<svg viewBox="0 0 128 128" xmlns="http://www.w3.org/2000/svg" xmlns:xlink="http://www.w3.org/1999/xlink">
  <polyline fill="#37474F" points="52.2,18.21 63.82,31.67 45.49,35.44 42.76,26.18 "/>
  <polygon fill="#455A64" opacity="0.49" points="48.88,10.75 34.54,32.67 43.89,36.97 54.95,14.7 53.63,11.08 "/>
  <linearGradient id="SVGID_1_" gradientUnits="userSpaceOnUse" x1="52.3723" x2="34.3449" y1="6.8688" y2="35.7188">
    <stop offset="0.1335" style="stop-color:#78909C"/>
    <stop offset="0.4839" style="stop-color:#90A4AE"/>
    <stop offset="0.6317" style="stop-color:#BDBDBD"/>
  </linearGradient>
  <path d="M55.38,9.23c-0.28-0.44-0.64-0.81-1.05-1.12c-0.14-0.1-0.28-0.2-0.42-0.28 c-0.73-0.43-1.56-0.67-2.37-0.67h-6.03c-1.29,0-2.51,0.61-3.28,1.66L29.45,26.93l-0.71,1.77c-0.01,0-0.01,0.01-0.02,0.01 c-0.09,0.35-0.16,0.73-0.2,1.16c-0.04,0.59-0.02,1.26,0.13,1.99c0,0,0,0,0,0c0.07,0.33,0.59,0.72,1.39,1.14 c3.71,1.94,13.59,4.49,13.59,4.49l12.08-24.32C56.27,11.59,56.04,10.25,55.38,9.23z" fill="url(#SVGID_1_)"/>
  <polygon fill="#627E89" points="53.35,11.84 38.11,34.5 41.66,36.97 52.72,14.7 51.39,11.08 "/>
  <path d="M55.38,9.23c-0.28-0.44-0.64-0.81-1.05-1.12c-0.14-0.1-0.28-0.2-0.42-0.28 c-0.73-0.43-1.56-0.67-2.37-0.67h-6.03c-1.29,0-2.51,0.61-3.28,1.66L29.45,26.93l-0.71,1.77c-0.01,0-0.01,0.01-0.02,0.01 c-0.09,0.35-0.16,0.73-0.2,1.16c-0.04,0.59-0.02,1.26,0.13,1.99c0,0,0,0,0,0c0.57-1.03,1.22-2.14,2.13-3.09 c0.14-0.4,0.28-0.66,0.32-0.72l12.74-18.04c0.39-0.53,1.02-0.84,1.67-0.84h6.03c0.81,0,1.66,0.44,2.12,1.09 c0.41,0.59,0.48,1.31,0.2,2.14L42.54,35.18c-5.67-1.34-10.17-2.91-11.67-3.83c-0.32,0.51-0.6,1.06-0.82,1.64 c3.71,1.94,13.59,4.49,13.59,4.49l12.08-24.32C56.27,11.59,56.04,10.25,55.38,9.23z" fill="#212121" opacity="0.25"/>
  <path d="M55.38,9.23c-0.28-0.44-0.64-0.81-1.05-1.12c-0.14-0.1-0.28-0.2-0.42-0.28 c-0.73-0.43-1.56-0.67-2.37-0.67h-6.03c-1.29,0-2.51,0.61-3.28,1.66L29.45,26.93l-0.71,1.77c-0.01,0-0.01,0.01-0.02,0.01 c-0.09,0.35-0.16,0.73-0.2,1.16c-0.04,0.59-0.02,1.26,0.13,1.99c0,0,0,0,0,0c0.57-1.03,1.22-2.14,2.13-3.09 c0.14-0.4,0.28-0.66,0.32-0.72l12.74-18.04c0.39-0.53,1.02-0.84,1.67-0.84h6.03c0.81,0,1.66,0.44,2.12,1.09 c0.41,0.59,0.48,1.31,0.2,2.14L42.54,35.18c-5.67-1.34-10.17-2.91-11.67-3.83c-0.32,0.51-0.6,1.06-0.82,1.64 c3.71,1.94,13.59,4.49,13.59,4.49l12.08-24.32C56.27,11.59,56.04,10.25,55.38,9.23z" fill="#212121" opacity="0.25"/>
  <path d="M38,29.39v4.09l-6.38,3.02c0,0-2.44-3.39-2.7-4.1c-0.26-0.71-0.68-1.65-0.19-3.71 c0.04-0.15,0.08-0.28,0.12-0.42c-3.13,1.39-5.31,4.52-5.31,8.17c0,4.94,4.01,8.95,8.95,8.95s8.95-4.01,8.95-8.95 C41.45,33.58,40.1,31.03,38,29.39z" fill="#37474F"/>
  <path d="M31.03,86.02c0.41-0.87,12-5.31,12-5.31L54.68,82L53.1,93.55c0,0-16.04,3.43-16.72,2.86 C35.69,95.84,31.03,86.02,31.03,86.02z" fill="#37474F"/>
  <linearGradient id="SVGID_3_" gradientUnits="userSpaceOnUse" x1="27.6949" x2="22.0699" y1="109.0532" y2="67.0532">
    <stop offset="0.019" style="stop-color:#212121"/>
    <stop offset="1" style="stop-color:#212121;stop-opacity:0"/>
  </linearGradient>
  <path d="M30.47,37.15l8.23,0.33l-7.89,44.75l-0.12,0.67l0.32,0.6c0.08,0.15,7.95,15.34,4.33,25.12 c-2.98,8.06-5.27,10.26-10.63,10.26c-1.23,0-2.6-0.13-4.2-0.4c-5.46-0.91-9.19-2.8-11.73-5.92c-4.1-5.04-3.7-11.96,1.38-23.91 l0.01-0.02l0.01-0.02L30.47,37.15 M29.13,35.09L8.31,87.87c-4.49,10.59-6.41,19.41-1.09,25.96c2.76,3.39,6.83,5.61,12.95,6.63 c1.69,0.28,3.19,0.42,4.53,0.42c6.96,0,9.64-3.82,12.51-11.57c3.97-10.73-4.43-26.74-4.43-26.74l8.29-47L29.13,35.09L29.13,35.09z" fill="url(#SVGID_3_)"/>
  <g>
    <linearGradient id="SVGID_4_" gradientTransform="matrix(0.9856 -0.1691 -0.1691 -0.9856 22.194 206.3526)" gradientUnits="userSpaceOnUse" x1="34.6918" x2="20.079" y1="159.966" y2="113.4057">
      <stop offset="0.1335" style="stop-color:#78909C"/>
      <stop offset="0.4839" style="stop-color:#90A4AE"/>
      <stop offset="1" style="stop-color:#BDBDBD"/>
    </linearGradient>
    <path d="M37.21,109.32c-3.42,9.23-6.57,12.89-17.04,11.14c-6.12-1.02-10.2-3.25-12.95-6.63 c-5.32-6.55-3.41-15.37,1.09-25.96l20.82-52.78l11.94,0.48l-8.29,47C32.78,82.57,41.19,98.59,37.21,109.32z" fill="url(#SVGID_4_)"/>
    <g opacity="0.39">
      <path d="M30.47,37.15l8.23,0.33l-7.89,44.75l-0.12,0.67l0.32,0.6c0.07,0.14,7.42,14.35,4.68,24 c-2.34,8.25-5.47,11.32-11.52,11.32c-1.11,0-2.35-0.11-3.67-0.33c-5.46-0.91-9.19-2.8-11.73-5.92c-4.1-5.04-3.7-11.96,1.38-23.91 l0.01-0.02l0.01-0.02L30.47,37.15 M29.13,35.09L8.31,87.87c-4.49,10.59-6.41,19.41-1.09,25.96c2.76,3.39,6.83,5.61,12.95,6.63 c1.45,0.24,2.78,0.36,4,0.36c7.62,0,11.12-4.61,13.44-12.78c2.99-10.54-4.84-25.47-4.84-25.47l8.29-47L29.13,35.09L29.13,35.09z" fill="#212121"/>
    </g>
  </g>
  <g>
    <linearGradient id="SVGID_5_" gradientTransform="matrix(0.9856 -0.1691 -0.1691 -0.9856 22.194 206.3526)" gradientUnits="userSpaceOnUse" x1="45.8768" x2="9.4662" y1="162.9055" y2="87.467">
      <stop offset="0.1335" style="stop-color:#78909C"/>
      <stop offset="0.4839" style="stop-color:#90A4AE"/>
      <stop offset="1" style="stop-color:#BDBDBD"/>
    </linearGradient>
    <path d="M37.21,109.32c-2.55,6.89-4.95,10.68-10.36,11.43c-0.3,0.04-1.17,0.5-1.49,0.48 c-1.66-0.09-3.45-0.04-5.66-0.47c-4.96-0.97-9.72-3.53-12.48-6.92c-5.32-6.55-3.41-15.37,1.09-25.96l20.82-52.78l11.94,0.48 l-8.29,47C32.78,82.57,41.19,98.59,37.21,109.32z" fill="url(#SVGID_5_)"/>
  </g>
  <linearGradient id="SVGID_10_" gradientUnits="userSpaceOnUse" x1="35.5491" x2="35.5491" y1="83.7291" y2="83.7291">
    <stop offset="0" style="stop-color:#41677A"/>
    <stop offset="1" style="stop-color:#90A4AE"/>
  </linearGradient>
  <path d="M35.55,83.73" fill="url(#SVGID_10_)"/>
  <g>
    <linearGradient id="SVGID_11_" gradientUnits="userSpaceOnUse" x1="15.3502" x2="15.4702" y1="107.898" y2="107.898">
      <stop offset="0" style="stop-color:#41677A"/>
      <stop offset="1" style="stop-color:#90A4AE"/>
    </linearGradient>
    <path d="M15.47,107.85l-0.12,0.03C15.39,107.97,15.43,107.97,15.47,107.85z" fill="url(#SVGID_11_)"/>
  </g>
  <linearGradient id="SVGID_12_" gradientUnits="userSpaceOnUse" x1="9.8936" x2="97.4946" y1="97.8595" y2="97.8595">
    <stop offset="0" style="stop-color:#90A4AE"/>
    <stop offset="0.2263" style="stop-color:#8EA2AC"/>
    <stop offset="0.3586" style="stop-color:#859CA7"/>
    <stop offset="0.4667" style="stop-color:#77919E"/>
    <stop offset="0.5611" style="stop-color:#638291"/>
    <stop offset="0.643" style="stop-color:#4B6F81"/>
    <stop offset="0.763" style="stop-color:#41677A"/>
  </linearGradient>
  <path d="M89.18,108.63c2.13-2.32,2.91-5.58,3.19-8.72c0.47-5.32-0.35-10.85-2.94-15.52 c-2.59-4.68-7.06-8.42-12.28-9.54c-0.34-0.07-0.68-0.13-1.02-0.18c-0.12-0.02-0.23-0.03-0.35-0.04c-0.22-0.03-0.45-0.06-0.68-0.08 c-0.14-0.01-0.28-0.02-0.42-0.03c-0.21-0.01-0.41-0.03-0.62-0.04c-0.15-0.01-0.3-0.01-0.45-0.01c-0.17,0-0.34-0.01-0.51-0.01 c-0.02,0-0.03,0-0.05,0c-0.12,0-0.25,0.01-0.37,0.02c-0.57,0.01-1.14,0.03-1.72,0.07c-0.03,0-0.05,0-0.08,0.01 c-0.72,0.06-1.44,0.14-2.15,0.24c-6.99,0.99-35.23,7.61-35.97,7.78c0,0,0.02,0.04,0.04,0.08c0,0.01,0.01,0.02,0.02,0.03 c0.05,0.11,0.15,0.3,0.27,0.55c0,0,0,0,0,0c0.28,0.6,1.35,3.01,1.46,3.27l6.8-1.46c0.23-0.04,0.44-0.07,0.65-0.09 c0.08-0.01,0.14-0.01,0.22-0.01c0.13-0.01,0.25-0.02,0.37-0.02c0.16,0,0.32,0.01,0.46,0.02c2.1,0.23,2.21,2.62-0.8,3.49 c-1.29,0.37-18.67,2.62-18.89,2.63c-0.08,0-0.15,0.01-0.23,0.01c-0.04,0-0.09,0-0.13,0.01c0,0,0,0,0,0 c-0.33,0.03-0.64,0.07-0.94,0.13c0,0,0,0,0,0c-4.62,0.93-8.33,3.87-10.39,7.72c-0.69,1.28-1.19,2.67-1.49,4.12 c-0.36,1.77-0.39,3.64-0.08,5.52c0.03,0.17,0.04,0.33,0.07,0.5c0.08,0.41,0.18,0.81,0.3,1.2c0.03,0.12,0.07,0.23,0.11,0.35 c0.09,0.28,0.19,0.57,0.29,0.84c0.04,0.12,0.09,0.23,0.13,0.34c0.14,0.33,0.28,0.66,0.44,0.98c0.02,0.04,0.03,0.07,0.05,0.11 c0.18,0.36,0.37,0.7,0.58,1.04c0.06,0.09,0.12,0.19,0.18,0.28c0.16,0.25,0.32,0.49,0.49,0.72c0.07,0.1,0.14,0.2,0.21,0.29 c0.2,0.26,0.4,0.52,0.62,0.76c0.04,0.05,0.08,0.1,0.12,0.15c0.26,0.29,0.53,0.57,0.81,0.84c0.07,0.07,0.15,0.14,0.22,0.2 c0.21,0.2,0.43,0.39,0.66,0.58c0.09,0.08,0.19,0.15,0.28,0.23c0.24,0.19,0.49,0.37,0.74,0.55c0.07,0.05,0.13,0.1,0.2,0.14 c0.32,0.21,0.65,0.42,0.98,0.61c0.08,0.05,0.16,0.09,0.24,0.13c0.26,0.14,0.53,0.28,0.8,0.4c0.11,0.05,0.22,0.1,0.33,0.15 c0.27,0.12,0.55,0.23,0.83,0.33c0.09,0.03,0.18,0.07,0.27,0.1c0.03,0.01,0.07,0.03,0.1,0.04c0.2,0.07,0.41,0.12,0.62,0.18 c0.17,0.05,0.34,0.11,0.51,0.15c0.25,0.06,0.51,0.11,0.76,0.16c0.16,0.03,0.32,0.07,0.49,0.1c0.29,0.05,0.59,0.08,0.89,0.11 c0.13,0.01,0.26,0.04,0.39,0.05c0.43,0.03,0.85,0.05,1.29,0.05c0,0,0.01,0,0.01,0c0,0,0,0,0.01,0c0.16,0,2.35-0.07,5.86-0.18 c0.12,0,0.24-0.01,0.36-0.01c0.44-0.01,0.9-0.03,1.37-0.04c16.35-0.51,54.03-1.71,62.87-1.99c1.02-0.03,1.66-0.05,1.84-0.06 c0.03,0,0.05,0,0.05,0L89.18,108.63z" fill="url(#SVGID_12_)"/>
  <circle cx="26.71" cy="107.94" fill="#455A64" opacity="0.6" r="6.1"/>
  <circle cx="26.34" cy="106.66" fill="#A5AFB3" r="5.69"/>
  <linearGradient id="SVGID_15_" gradientTransform="matrix(0.9875 0.1577 -0.1577 0.9875 21.5531 -8.9955)" gradientUnits="userSpaceOnUse" x1="85.9433" x2="85.9433" y1="89.6428" y2="61.0257">
    <stop offset="0" style="stop-color:#78909C"/>
    <stop offset="0.483" style="stop-color:#90A4AE"/>
    <stop offset="1" style="stop-color:#BDBDBD"/>
  </linearGradient>
  <path d="M97.49,60.95C78.32,57.91,65.97,72.9,63.87,75.67c-0.21,0.28,8.3-0.22,7.42,7.88 c-3.3,20.65,5.06,34.1,20.05,36.5c14.99,2.39,29.08-7.82,31.48-22.81C125.21,82.25,119.6,64.44,97.49,60.95z" fill="url(#SVGID_15_)"/>
  <circle cx="100.1" cy="94.44" fill="#455A64" opacity="0.67" r="16.48"/>
  <circle cx="100.1" cy="90.77" fill="#A5AFB3" r="14.8"/>
  <path d="M70.6,93.76c0,0-2.4,5.33-1.76,11.69c0.71,7.13,7.29,14.19,7.29,14.19l11.9-0.37 c0,0-9.19-3.38-13.46-11.05C71.3,102.35,70.6,93.76,70.6,93.76z" fill="#455A64" opacity="0.6"/>
  <path d="M123.32,90.69c0-0.28,0-0.57-0.01-0.85c-0.01-0.22-0.02-0.44-0.03-0.65 c-0.01-0.28-0.03-0.56-0.04-0.84c-0.01-0.22-0.03-0.44-0.05-0.66c-0.02-0.28-0.05-0.56-0.08-0.84c-0.02-0.22-0.05-0.44-0.08-0.66 c-0.04-0.28-0.07-0.56-0.11-0.83c-0.03-0.22-0.07-0.44-0.11-0.65c-0.05-0.28-0.1-0.55-0.15-0.83c-0.04-0.22-0.09-0.43-0.13-0.65 c-0.06-0.27-0.12-0.55-0.19-0.82c-0.05-0.21-0.1-0.43-0.16-0.64c-0.07-0.28-0.15-0.55-0.23-0.82c-0.06-0.21-0.12-0.41-0.19-0.62 c-0.09-0.28-0.18-0.55-0.28-0.82c-0.07-0.2-0.14-0.4-0.21-0.59c-0.1-0.28-0.22-0.55-0.33-0.83c-0.08-0.19-0.15-0.38-0.23-0.56 c-0.13-0.29-0.26-0.57-0.4-0.86c-0.08-0.17-0.15-0.34-0.24-0.5c-0.16-0.32-0.33-0.63-0.5-0.94c-0.07-0.13-0.14-0.26-0.21-0.39 c-3.86-6.79-10.79-12.14-21.88-13.9c-1.75-0.28-3.44-0.4-5.07-0.4c-16.26,0-26.62,12.58-28.54,15.12 c-10.83,2.13-31.1,6.91-31.1,6.91s0,0,0,0c0,0,0,0,0,0l8.29-47l-11.94-0.48L8.31,87.87c-4.49,10.59-6.41,19.41-1.09,25.96 c2.76,3.39,8.78,7.44,17.89,7.44c0.75,0,43.37-1.36,62.85-1.98c-1.9-0.56-3.68-1.32-5.31-2.27c-15.17,0.3-39.99,1.12-51.45,1.5 c-2.62,0.09-4.54,0.15-5.48,0.18c-0.38,0.01-0.62,0.02-0.66,0.02c-1.38,0-2.76-0.22-4.07-0.67c-4.25-1.45-7.44-5.08-8.32-9.47 c-0.66-3.31,0-6.68,1.87-9.48c1.87-2.81,4.72-4.72,8.03-5.39c0.61-0.12,6.56-0.89,11.99-1.62c0.63-0.09,1.25-0.17,1.86-0.25 c3.67-0.5,6.76-0.95,7.24-1.11c3.97-1.32,3.24-4.45,3.04-5.26c-0.31-1.23-1.54-2.54-4.09-2.54c-0.51,0-1.05,0.05-1.61,0.16 l-0.06,0.01l-0.06,0.02c0,0-5.85,1.23-7.1,1.52c-0.09-0.19-0.17-0.38-0.25-0.55c0,0-0.01,0-0.01,0c0,0,0,0,0,0 c2.95-0.65,26.94-5.9,34.77-7.17c1.81,0.92,3.23,2.86,3.01,6.64c-0.7,4.35-0.86,8.38-0.56,12.05l-0.01,0 c0.02,0.2,0.05,0.39,0.07,0.58c0.05,0.57,0.11,1.14,0.19,1.69c0.04,0.28,0.09,0.54,0.13,0.81c0.09,0.54,0.18,1.07,0.29,1.59 c0.06,0.27,0.12,0.54,0.19,0.81c0.12,0.5,0.24,0.99,0.37,1.47c0.08,0.27,0.17,0.54,0.25,0.8c0.14,0.46,0.29,0.91,0.45,1.35 c0.1,0.27,0.21,0.54,0.32,0.81c0.17,0.41,0.34,0.82,0.52,1.22c0.13,0.27,0.26,0.54,0.4,0.8c0.19,0.37,0.37,0.73,0.57,1.09 c0.16,0.27,0.32,0.54,0.48,0.8c0.2,0.33,0.4,0.65,0.62,0.96c0.19,0.27,0.38,0.53,0.58,0.79c0.21,0.28,0.43,0.57,0.65,0.84 c0.22,0.26,0.44,0.51,0.67,0.76c0.22,0.25,0.45,0.5,0.68,0.73c0.25,0.25,0.51,0.49,0.77,0.73c0.23,0.21,0.47,0.43,0.71,0.63 c0.28,0.24,0.57,0.46,0.86,0.68c0.24,0.18,0.48,0.36,0.73,0.54c0.31,0.22,0.63,0.42,0.96,0.62c0.16,0.1,0.32,0.21,0.48,0.31 c0.01,0,0.02,0,0.03,0c1.63,0.95,3.41,1.71,5.32,2.27c-0.01,0-0.03,0-0.04,0c0.18,0.05,0.36,0.09,0.54,0.14 c0.31,0.09,0.63,0.17,0.95,0.25c0.62,0.15,1.25,0.28,1.89,0.38c1.47,0.23,2.93,0.35,4.37,0.35c13.27,0,24.95-9.63,27.11-23.15 c0.08-0.48,0.15-0.97,0.21-1.46c0.02-0.16,0.03-0.31,0.05-0.47c0.04-0.33,0.07-0.67,0.1-1c0.02-0.19,0.03-0.38,0.04-0.57 c0.02-0.3,0.04-0.6,0.06-0.91c0.01-0.21,0.01-0.41,0.02-0.62c0.01-0.29,0.02-0.58,0.02-0.87C123.32,91.12,123.32,90.91,123.32,90.69 z M41.36,85.05c0.46-0.08,0.87-0.12,1.25-0.12c2.57,0,2.87,2.54-0.35,3.52c-0.48,0.15-3.28,0.55-6.59,1 c-0.37-1.08-0.74-2.07-1.1-2.94L41.36,85.05z M33.76,89.7c-5.13,0.69-10.68,1.38-10.75,1.39c-0.33,0.03-0.64,0.07-0.94,0.13 c-8.22,1.65-13.54,9.65-11.88,17.87c0.59,2.95,2.01,5.53,3.96,7.54c-2.2-1.01-3.97-2.34-5.37-4.06c-4.1-5.04-3.7-11.96,1.38-23.91 l0.01-0.02l0.01-0.02l20.3-51.46l8.23,0.33l-7.89,44.75l-0.13,0.73l0.38,0.64C31.1,83.66,32.46,86.13,33.76,89.7z M121.31,91.34 c0,0.27,0,0.53-0.01,0.8c-0.01,0.29-0.03,0.58-0.04,0.86c-0.01,0.24-0.02,0.48-0.04,0.72c-0.03,0.34-0.06,0.68-0.1,1.02 c-0.02,0.19-0.03,0.38-0.06,0.57c-0.06,0.54-0.14,1.07-0.22,1.61c-0.12,0.76-0.28,1.51-0.46,2.25c-0.07,0.27-0.16,0.53-0.24,0.8 c-0.13,0.46-0.26,0.92-0.41,1.36c-0.11,0.33-0.25,0.65-0.38,0.97c-0.14,0.36-0.28,0.73-0.44,1.09c-0.16,0.36-0.35,0.71-0.52,1.06 c-0.15,0.3-0.29,0.61-0.46,0.9c-0.21,0.38-0.45,0.74-0.67,1.11c-0.15,0.24-0.3,0.49-0.46,0.73c-0.26,0.39-0.55,0.77-0.83,1.14 c-0.15,0.19-0.29,0.39-0.44,0.58c-0.32,0.4-0.66,0.78-1,1.16c-0.13,0.15-0.26,0.3-0.4,0.44c-0.38,0.4-0.78,0.78-1.18,1.15 c-0.11,0.11-0.22,0.21-0.34,0.32c-0.44,0.39-0.89,0.76-1.36,1.12c-0.09,0.07-0.18,0.15-0.28,0.22c-0.5,0.37-1.01,0.72-1.53,1.06 c-0.07,0.04-0.14,0.09-0.21,0.13c-0.55,0.34-1.12,0.67-1.7,0.97c-0.05,0.02-0.09,0.05-0.14,0.07c-0.6,0.31-1.22,0.6-1.85,0.86 c-0.02,0.01-0.05,0.02-0.07,0.03c-0.65,0.27-1.31,0.51-1.98,0.72c-0.01,0-0.02,0.01-0.03,0.01c-2.06,0.65-4.24,1.05-6.48,1.16 c-0.42,0.02-0.85,0.06-1.28,0.06c-1.35,0-2.71-0.11-4.05-0.32c-1.65-0.26-3.2-0.69-4.65-1.23c-0.57-0.21-1.13-0.45-1.67-0.7 c-0.15-0.07-0.3-0.15-0.44-0.22c-0.48-0.24-0.95-0.49-1.4-0.77c-0.16-0.1-0.33-0.2-0.49-0.3c-0.42-0.27-0.83-0.55-1.23-0.85 c-0.16-0.12-0.32-0.24-0.48-0.37c-0.38-0.3-0.74-0.63-1.1-0.96c-0.15-0.14-0.3-0.28-0.45-0.42c-0.35-0.35-0.69-0.72-1.01-1.09 c-0.13-0.15-0.26-0.28-0.38-0.43c-0.35-0.43-0.69-0.88-1.01-1.34c-0.08-0.11-0.17-0.22-0.24-0.33c-0.39-0.58-0.75-1.18-1.09-1.8 c-0.09-0.17-0.18-0.36-0.27-0.54c-0.23-0.45-0.46-0.91-0.66-1.38c-0.13-0.3-0.24-0.61-0.36-0.91c-0.15-0.37-0.29-0.75-0.42-1.14 c-0.12-0.35-0.23-0.72-0.33-1.08c-0.11-0.36-0.21-0.72-0.31-1.09c-0.1-0.39-0.19-0.8-0.28-1.2c-0.08-0.36-0.15-0.72-0.21-1.09 c-0.08-0.43-0.15-0.87-0.21-1.31c-0.05-0.36-0.09-0.73-0.13-1.09c-0.05-0.46-0.1-0.93-0.13-1.41c-0.24-3.43-0.07-7.15,0.57-11.14 l0.01-0.05l0.01-0.05c0.31-2.81-0.32-5.1-1.85-6.81c-0.14-0.15-0.29-0.27-0.44-0.41c-0.82-0.78-1.76-1.33-2.7-1.69 c-0.29-0.11-0.58-0.22-0.87-0.3c3.89-4.24,12.7-12.02,25.01-12.02c1.57,0,3.17,0.13,4.76,0.38c8.45,1.34,14.84,4.91,18.98,10.63 c0.2,0.28,0.39,0.56,0.58,0.85c0.24,0.36,0.47,0.73,0.69,1.11c0.01,0.02,0.02,0.04,0.03,0.05c0.21,0.36,0.41,0.73,0.61,1.11 c0.02,0.04,0.04,0.07,0.06,0.11c0.18,0.36,0.36,0.73,0.53,1.1c0.02,0.06,0.05,0.11,0.08,0.17c0.16,0.36,0.31,0.72,0.46,1.09 c0.03,0.07,0.06,0.15,0.09,0.22c0.14,0.36,0.27,0.72,0.39,1.08c0.03,0.09,0.06,0.19,0.09,0.28c0.11,0.35,0.22,0.71,0.33,1.06 c0.03,0.11,0.06,0.23,0.09,0.34c0.09,0.34,0.18,0.69,0.27,1.04c0.03,0.13,0.06,0.27,0.09,0.41c0.07,0.34,0.14,0.67,0.21,1.01 c0.03,0.16,0.06,0.31,0.08,0.47c0.06,0.33,0.11,0.65,0.16,0.99c0.02,0.18,0.05,0.36,0.07,0.53c0.04,0.32,0.08,0.63,0.11,0.95 c0.02,0.2,0.03,0.4,0.05,0.6c0.02,0.3,0.05,0.6,0.06,0.91c0.01,0.23,0.02,0.45,0.02,0.68c0.01,0.29,0.02,0.57,0.02,0.86 C121.32,90.83,121.31,91.08,121.31,91.34z" fill="#212121" opacity="0.39"/>
  <g>
    <path d="M29.2,37.44l-1.13,0.35l-2.53,6.41c0,0,1.67-1.68,3-0.25c1.33,1.44,2.33,4.88,6.58,5.4 c1.33,0.16,2.52,0.03,3.57-0.31l2.38-13.48l-11.09-0.44C29.62,35.85,29.35,36.62,29.2,37.44z" fill="#37474F" opacity="0.49"/>
    <linearGradient id="SVGID_20_" gradientUnits="userSpaceOnUse" x1="39.2191" x2="26.1272" y1="37.2761" y2="32.5765">
      <stop offset="0" style="stop-color:#546E7A"/>
      <stop offset="1" style="stop-color:#78909C"/>
    </linearGradient>
    <path d="M36.87,26.38c-5.79,0-7.31,3.95-8.84,6.59c-0.46,1.38-2.3,1.59-2.12-0.03 c0.22-2.03,1.27-3.19,2.82-4.24l0.71-1.77c-1.22,0.18-6.12,2.91-6.12,9.5c0,2.25,0.75,4.33,2,6l0.6,0.77l0.28-0.7 c0,0-0.72-1.12-0.03-1.46c0.48-0.24,1.31-0.22,2.77,1.58c1.89,2.32,4.7,3.87,7.92,3.87c5.55,0,10.05-4.5,10.05-10.05 S42.42,26.38,36.87,26.38z" fill="url(#SVGID_20_)"/>
    <g opacity="0.39">
      <path d="M36.87,28.38c4.44,0,8.05,3.61,8.05,8.05s-3.61,8.05-8.05,8.05c-2.43,0-4.75-1.14-6.37-3.13 c-0.85-1.04-2.17-2.42-3.87-2.42c-0.29,0-0.58,0.04-0.86,0.12c-0.29-0.84-0.44-1.72-0.44-2.62c0-0.23,0.01-0.46,0.02-0.68 c0.4,0.22,0.86,0.33,1.34,0.33c1.35,0,2.61-0.92,3.16-2.25c0.14-0.24,0.27-0.48,0.41-0.73C31.59,30.67,32.86,28.38,36.87,28.38 M36.87,26.38c-5.79,0-7.31,3.95-8.84,6.59c-0.24,0.71-0.84,1.11-1.34,1.11c-0.47,0-0.86-0.35-0.77-1.14 c0.22-2.03,1.27-3.19,2.82-4.24l0.71-1.77c-1.22,0.18-6.12,2.91-6.12,9.5c0,2.25,0.75,4.33,2,6l0.6,0.77l0.28-0.7 c0,0-0.72-1.12-0.03-1.46c0.12-0.06,0.27-0.11,0.45-0.11c0.5,0,1.24,0.36,2.32,1.68c1.89,2.32,4.7,3.87,7.92,3.87 c5.55,0,10.05-4.5,10.05-10.05S42.42,26.38,36.87,26.38L36.87,26.38z" fill="#212121"/>
    </g>
    <linearGradient id="SVGID_21_" gradientUnits="userSpaceOnUse" x1="46.7505" x2="39.0857" y1="41.2179" y2="37.4891">
      <stop offset="0.019" style="stop-color:#212121"/>
      <stop offset="1" style="stop-color:#212121;stop-opacity:0"/>
    </linearGradient>
    <path d="M38.49,26.52c-0.19,0.62-0.38,1.27-0.58,1.93c3.95,0.51,7.01,3.89,7.01,7.97 c0,4.44-3.61,8.05-8.05,8.05c-1.24,0-2.44-0.3-3.55-0.85c-0.2,0.68-0.4,1.33-0.58,1.93c1.26,0.58,2.65,0.92,4.13,0.92 c5.55,0,10.05-4.5,10.05-10.05C46.92,31.43,43.27,27.3,38.49,26.52z" fill="url(#SVGID_21_)"/>
  </g>
  <linearGradient id="SVGID_22_" gradientUnits="userSpaceOnUse" x1="46.6949" x2="67.947" y1="22.898" y2="22.898">
    <stop offset="0" style="stop-color:#546E7A"/>
    <stop offset="1" style="stop-color:#78909C"/>
  </linearGradient>
  <path d="M67.77,29.77c-0.22-0.65-0.5-1.15-0.78-1.63L57.4,10.67c-2.1-3.5-5.83-4.3-8.45-2.33 c-3.23,2.42-2.53,6.28-0.69,8.34l11.09,12.71l-2.71,1.54l-0.6-3.83c-0.32-2.46-1.6-3.81-3.75-3.54c-2.77,0.35-3.2,2.83-3.19,4.91 l0.96,6.63c0.3,1.36,1.16,2.63,2.39,3.27c0.67,0.35,2.05,0,2.79,0c0.62,0,1.25-0.12,1.85-0.38l8.62-3.72 C67.47,33.49,68.35,31.59,67.77,29.77z" fill="url(#SVGID_22_)"/>
  <path d="M47.72,12.19c-0.13,1.32,0.36,2.78,1.28,3.81l11.09,12.72l0.78,0.89l2.78,1.34L48.39,10.14 C48.36,10.16,47.83,11.1,47.72,12.19z" fill="#455A64"/>
  <path d="M50.08,28.39l0.84,5.84c1.27-0.03,2.72-0.13,2.72-0.13l-1.28-9.55 C51.24,24.7,50.09,25.29,50.08,28.39z" fill="#455A64" opacity="0.76"/>
  <path d="M33.07,38.07c0-3.74,3.03-6.77,6.77-6.77s7.05,3.04,6.77,6.77 c-0.29,3.78-3.03,6.77-6.77,6.77S33.07,41.8,33.07,38.07z" fill="#37474F" opacity="0.44"/>
  <path d="M67.77,29.77c-0.22-0.65-0.5-1.15-0.78-1.63L57.4,10.67c-1.35-2.25-3.38-3.38-5.35-3.38 c-1.09,0-2.17,0.35-3.11,1.05c-3.23,2.42-2.53,6.28-0.69,8.34l11.09,12.71l-2.71,1.54l-0.6-3.83c-0.29-2.25-1.39-3.57-3.22-3.57 c-0.17,0-0.35,0.01-0.53,0.03c-2.77,0.35-3.2,2.83-3.19,4.91l0.96,6.63c0.3,1.36,1.16,2.63,2.4,3.27c0.22,0.12,0.53,0.15,0.86,0.15 c0.66,0,1.44-0.15,1.93-0.15c0.62,0,1.25-0.12,1.85-0.38l8.62-3.72C67.47,33.49,68.35,31.59,67.77,29.77z M65.3,33.34l-8.61,3.72 c-0.47,0.2-0.97,0.3-1.47,0.3c-0.29,0-0.61,0.04-0.94,0.08c-0.34,0.04-0.69,0.08-0.99,0.08c-0.3,0-0.39-0.04-0.39-0.04 c-0.9-0.47-1.62-1.45-1.87-2.56l-0.1-0.68l-0.84-5.84c0.01-3.1,1.15-3.69,2.29-3.84c0.01,0,0.02,0,0.03,0 c0.14-0.02,0.28-0.03,0.41-0.03c1.25,0,2,0.91,2.23,2.73l0.6,3.83l0.22,1.43l1.26-0.72l2.71-1.54l1.06-0.61l-0.8-0.92L48.99,16 c-0.92-1.03-1.41-2.49-1.28-3.81c0.12-1.22,0.74-2.25,1.82-3.06c0.74-0.56,1.61-0.85,2.51-0.85c1.75,0,3.38,1.06,4.47,2.87 l9.61,17.51c0.23,0.39,0.5,0.85,0.69,1.42C67.24,31.4,66.6,32.78,65.3,33.34z" fill="#212121" opacity="0.39"/>
  <g>
    <ellipse clip-rule="evenodd" cx="53.15" cy="14.62" fill="#37474F" fill-rule="evenodd" opacity="0.44" rx="4.12" ry="4.11"/>
    <linearGradient id="SVGID_24_" gradientUnits="userSpaceOnUse" x1="54.2306" x2="49.1498" y1="14.7601" y2="9.6793">
      <stop offset="0" style="stop-color:#78909C"/>
      <stop offset="0.483" style="stop-color:#90A4AE"/>
      <stop offset="1" style="stop-color:#BDBDBD"/>
    </linearGradient>
    <ellipse clip-rule="evenodd" cx="52.09" cy="12.62" fill="url(#SVGID_24_)" fill-rule="evenodd" rx="4.34" ry="4.33"/>
  </g>
  <g>
    <ellipse clip-rule="evenodd" cx="64.55" cy="30.87" fill="#37474F" fill-rule="evenodd" opacity="0.44" rx="3.39" ry="3.39"/>
    <linearGradient id="SVGID_27_" gradientUnits="userSpaceOnUse" x1="65.4296" x2="61.6775" y1="31.7875" y2="28.0355">
      <stop offset="0" style="stop-color:#78909C"/>
      <stop offset="0.483" style="stop-color:#90A4AE"/>
      <stop offset="1" style="stop-color:#BDBDBD"/>
    </linearGradient>
    <ellipse clip-rule="evenodd" cx="63.85" cy="30.2" fill="url(#SVGID_27_)" fill-rule="evenodd" rx="3.21" ry="3.2"/>
    <radialGradient id="SVGID_28_" cx="62.1583" cy="28.8089" gradientTransform="matrix(0.9324 -0.3665 0.3673 0.9304 -6.7124 25.3285)" gradientUnits="userSpaceOnUse" r="3.0199">
      <stop offset="0" style="stop-color:#EEEEEE"/>
      <stop offset="1" style="stop-color:#EEEEEE;stop-opacity:0"/>
    </radialGradient>
    <path clip-rule="evenodd" d="M62.9,33.08c-1.27-1.09-1.41-3.01-0.32-4.28 c0.95-1.1,2.5-1.35,3.73-0.69c-0.87-0.96-2.27-1.35-3.55-0.84c-1.65,0.65-2.46,2.51-1.81,4.15c0.42,1.05,1.33,1.76,2.36,1.96 C63.17,33.28,63.03,33.19,62.9,33.08z" fill="url(#SVGID_28_)" fill-rule="evenodd"/>
  </g>
  <linearGradient id="SVGID_29_" gradientUnits="userSpaceOnUse" x1="54.8812" x2="30.0427" y1="36.2158" y2="37.1125">
    <stop offset="0.1335" style="stop-color:#78909C"/>
    <stop offset="0.4839" style="stop-color:#90A4AE"/>
    <stop offset="1" style="stop-color:#BDBDBD"/>
  </linearGradient>
  <path d="M62.43,35.93c-0.21-2.36-2-3.25-4.33-3.3l-17.72-1.9c-0.17-0.01-0.34,0-0.5,0 c-0.1,0-0.21,0.01-0.31,0.01c-0.13,0.01-0.25,0.02-0.37,0.04c-0.09,0.01-0.17,0.02-0.26,0.04c-0.13,0.02-0.26,0.05-0.38,0.08 c-0.07,0.02-0.15,0.03-0.22,0.05c-0.13,0.04-0.26,0.08-0.39,0.12c-0.06,0.02-0.12,0.04-0.17,0.06c-0.14,0.05-0.27,0.11-0.4,0.17 c-0.04,0.02-0.09,0.04-0.13,0.06c-0.14,0.07-0.27,0.15-0.4,0.23c-0.03,0.02-0.06,0.03-0.08,0.05c-0.14,0.09-0.28,0.19-0.41,0.3 c-0.01,0.01-0.03,0.02-0.04,0.03c-0.14,0.12-0.28,0.24-0.41,0.37c0,0,0,0,0,0c-1.06,1.07-1.65,2.58-1.69,4.24c0,0,0,0,0,0 c0,0.01,0,0.01,0,0.01c-0.02,0.82,0.12,1.63,0.39,2.38c0.74,2.04,2.47,3.61,4.79,3.76c0.03,0,0.06,0,0.1,0.01 c0.2,0.01,0.39,0.01,0.6,0c0,0,0,0,0,0l18.73-2.34c0,0,3.59-0.36,3.64-3.96C62.48,36.27,62.45,36.11,62.43,35.93z" fill="url(#SVGID_29_)"/>
  <linearGradient id="SVGID_30_" gradientUnits="userSpaceOnUse" x1="48.3544" x2="48.3544" y1="39.5415" y2="28.9434">
    <stop offset="0" style="stop-color:#455A64"/>
    <stop offset="0.1495" style="stop-color:#586A73;stop-opacity:0.8505"/>
    <stop offset="0.4523" style="stop-color:#89959B;stop-opacity:0.5477"/>
    <stop offset="0.8773" style="stop-color:#D6D9DB;stop-opacity:0.1227"/>
    <stop offset="1" style="stop-color:#EEEEEE;stop-opacity:0"/>
  </linearGradient>
  <path d="M62.43,35.93c-0.21-2.36-2-3.25-4.33-3.3l-17.72-1.9c-0.17-0.01-0.34,0-0.5,0 c-0.1,0-0.21,0.01-0.31,0.01c-0.13,0.01-0.25,0.02-0.37,0.04c-0.09,0.01-0.17,0.02-0.26,0.04c-0.13,0.02-0.26,0.05-0.38,0.08 c-0.07,0.02-0.15,0.03-0.22,0.05c-0.13,0.04-0.26,0.08-0.39,0.12c-0.06,0.02-0.12,0.04-0.17,0.06c-0.14,0.05-0.27,0.11-0.4,0.17 c-0.04,0.02-0.09,0.04-0.13,0.06c-0.14,0.07-0.27,0.15-0.4,0.23c-0.03,0.02-0.06,0.03-0.08,0.05c-0.14,0.09-0.28,0.19-0.41,0.3 c-0.01,0.01-0.03,0.02-0.04,0.03c-0.14,0.12-0.28,0.24-0.41,0.37c0,0,0,0,0,0c-1.06,1.07-1.65,2.58-1.69,4.24c0,0,0,0,0,0 c0,0.01,0,0.01,0,0.01c-0.02,0.82,0.12,1.63,0.39,2.38c0.74,2.04,2.47,3.61,4.79,3.76c0.03,0,0.06,0,0.1,0.01 c0.2,0.01,0.39,0.01,0.6,0c0,0,0,0,0,0l18.73-2.34c0,0,3.59-0.36,3.64-3.96C62.48,36.27,62.45,36.11,62.43,35.93z" fill="url(#SVGID_30_)"/>
  <g>
    <path d="M62.43,35.93c-0.21-2.36-2-3.25-4.33-3.3l-17.72-1.9c-0.17-0.01-0.34,0-0.5,0 c-0.1,0-0.21,0.01-0.31,0.01c-0.13,0.01-0.25,0.02-0.37,0.04c-0.09,0.01-0.17,0.02-0.26,0.04c-0.13,0.02-0.26,0.05-0.38,0.08 c-0.07,0.02-0.15,0.03-0.22,0.05c-0.13,0.04-0.26,0.08-0.39,0.12c-0.06,0.02-0.12,0.04-0.17,0.06c-0.14,0.05-0.27,0.11-0.4,0.17 c-0.04,0.02-0.09,0.04-0.13,0.06c-0.14,0.07-0.27,0.15-0.4,0.23c-0.03,0.02-0.06,0.03-0.08,0.05c-0.14,0.09-0.28,0.19-0.41,0.3 c-0.01,0.01-0.03,0.02-0.04,0.03c-0.14,0.12-0.28,0.24-0.41,0.37c0,0,0,0,0,0c-1.06,1.07-1.65,2.58-1.69,4.24c0,0,0,0,0,0 c0,0.01,0,0.01,0,0.01c-0.02,0.82,0.12,1.63,0.39,2.38c0.74,2.04,2.47,3.61,4.79,3.76c0.03,0,0.06,0,0.1,0.01 c0.2,0.01,0.39,0.01,0.6,0c0,0,0,0,0,0l18.73-2.34c0,0,3.59-0.36,3.64-3.96C62.48,36.27,62.45,36.11,62.43,35.93z M58.71,39.43 l-18.7,2.34c-0.1,0.01-0.19,0.01-0.29,0.01c-1.18,0-2.23-0.44-3.04-1.28c-0.87-0.89-1.36-2.14-1.42-3.47 c-0.01-0.13-0.03-0.26-0.03-0.4c0.06-2.44,1.58-4.9,4.86-4.9c0.07,0,0.15,0,0.22,0L58,33.63l0.04,0l0.04,0 c2.87,0.3,3.41,1.54,3.39,2.82c0,0.12-0.03,0.21-0.04,0.32C61.19,39.06,58.99,39.4,58.71,39.43z" fill="#212121" opacity="0.51"/>
    <g>
      <ellipse clip-rule="evenodd" cx="41.68" cy="37.29" fill="#37474F" fill-rule="evenodd" opacity="0.44" rx="4.24" ry="4.16" transform="matrix(0.8994 -0.4371 0.4371 0.8994 -12.1089 21.9693)"/>
      <linearGradient id="SVGID_31_" gradientTransform="matrix(0.9704 -0.2415 0.2415 0.9704 -7.6693 11.0115)" gradientUnits="userSpaceOnUse" x1="43.0964" x2="38.9149" y1="38.621" y2="34.4396">
        <stop offset="0" style="stop-color:#78909C"/>
        <stop offset="0.483" style="stop-color:#90A4AE"/>
        <stop offset="1" style="stop-color:#BDBDBD"/>
      </linearGradient>
      <circle clip-rule="evenodd" cx="41.34" cy="36.8" fill="url(#SVGID_31_)" fill-rule="evenodd" r="3.57"/>
    </g>
  </g>
</svg>