<svg viewBox="0 0 128 128" xmlns="http://www.w3.org/2000/svg" xmlns:xlink="http://www.w3.org/1999/xlink">
  <g id="Layer_3">
    <g>
      <g>
        <g>
          <g>
            <g>
              <g>
                <linearGradient id="SVGID_4_" gradientTransform="matrix(-0.9779 -0.2092 -0.2092 0.9779 -1326.3302 7.178)" gradientUnits="userSpaceOnUse" x1="-1414.0339" x2="-1385.7653" y1="-221.8553" y2="-236.5375">
                  <stop offset="0" style="stop-color:#80FFEE"/>
                  <stop offset="0.1557" style="stop-color:#85FCED"/>
                  <stop offset="0.34" style="stop-color:#93F1E8"/>
                  <stop offset="0.5386" style="stop-color:#ABE1E1"/>
                  <stop offset="0.7476" style="stop-color:#CCC9D8"/>
                  <stop offset="0.9624" style="stop-color:#F7ACCB"/>
                  <stop offset="1" style="stop-color:#FFA6C9"/>
                </linearGradient>
                <path d="M96.81,87c-11.83,0-30.23-14.57-32.94-22.33c-0.85-2.44,0.16-3.24,0.49-3.51 c1.4-1.12,3.83-1.7,7.03-1.7c5.66,0,13.29,1.87,19.93,4.89c7.22,3.28,12.32,7.45,13.99,11.43c1.3,3.1,0.56,6.1-2.2,8.91 C101.61,86.23,99.49,87,96.81,87z" fill="url(#SVGID_4_)"/>
                <path d="M71.39,58.74v1.43c11.61,0,29.83,7.7,33.26,15.89c1.2,2.85,0.52,5.51-2.05,8.13 c-1.36,1.39-3.31,2.09-5.79,2.09c-11.34,0-29.68-14.45-32.26-21.85c-0.68-1.96,0.03-2.52,0.26-2.71 c1.28-1.01,3.55-1.55,6.58-1.55V58.74 M71.39,58.74c-3.21,0-5.86,0.58-7.47,1.86c-6.61,5.25,18.29,27.12,32.89,27.12 c2.72,0,5.08-0.76,6.81-2.52C116.11,72.49,87.06,58.74,71.39,58.74L71.39,58.74z" fill="#55BFD9"/>
              </g>
              <g>
                <path d=" M103.21,82.83c-8.97-10.2-18.44-16.9-30.71-22.73c-0.28-0.13-0.6-0.33-0.58-0.64c0.01-0.31,0.64-0.29,0.51-0.01" fill="none" stroke="#87CDDE" stroke-linecap="round" stroke-linejoin="round" stroke-miterlimit="10" stroke-width="0.9563"/>
                <path d=" M96.32,86.14c-3.77-1.3-4.84-2.69-7.9-5.25c-8.06-6.72-15.66-13.98-22.76-21.71c0.16,0.11,0.33,0.23,0.49,0.34" fill="none" stroke="#87CDDE" stroke-linecap="round" stroke-linejoin="round" stroke-miterlimit="10" stroke-width="0.9563"/>
                <path d=" M96.1,85.69c-1-4.95-2.88-9.73-5.51-14.04" fill="none" stroke="#87CDDE" stroke-linecap="round" stroke-linejoin="round" stroke-miterlimit="10" stroke-width="0.9563"/>
              </g>
            </g>
            <g>
              <g>
                <linearGradient id="SVGID_5_" gradientTransform="matrix(-0.9691 -0.2466 -0.2466 0.9691 -1343.4418 -2.4745)" gradientUnits="userSpaceOnUse" x1="-1421.35" x2="-1378.7339" y1="-324.4991" y2="-284.3899">
                  <stop offset="0" style="stop-color:#80FFEE"/>
                  <stop offset="0.1557" style="stop-color:#85FCED"/>
                  <stop offset="0.34" style="stop-color:#93F1E8"/>
                  <stop offset="0.5386" style="stop-color:#ABE1E1"/>
                  <stop offset="0.7476" style="stop-color:#CCC9D8"/>
                  <stop offset="0.9624" style="stop-color:#F7ACCB"/>
                  <stop offset="1" style="stop-color:#FFA6C9"/>
                </linearGradient>
                <path d="M68.88,64.48c-4.84,0-7.75-1.07-8.2-3.02c-0.66-2.9,0.84-6.77,4.36-11.17 C73.5,39.67,92.7,27.8,105.72,27.8c6.28,0,10.36,2.67,12.13,7.95c0.99,2.95,0.36,6.02-1.88,9.13 C107.93,56.06,81.86,64.48,68.88,64.48z" fill="url(#SVGID_5_)"/>
                <path d="M105.73,27.08v1.43c5.94,0,9.79,2.51,11.45,7.46c0.91,2.72,0.31,5.57-1.78,8.49 c-7.92,11.01-33.68,19.3-46.52,19.3c-4.34,0-7.14-0.92-7.5-2.46c-0.6-2.64,0.89-6.4,4.22-10.56 c8.36-10.49,27.3-22.22,40.13-22.22L105.73,27.08 M105.72,27.08c-18.43,0-48.43,22.77-45.74,34.54 c0.57,2.48,3.97,3.57,8.89,3.57c17.68,0,54.86-14.19,49.66-29.68C116.52,29.5,111.74,27.08,105.72,27.08L105.72,27.08z" fill="#55BFD9"/>
              </g>
              <g>
                <path d=" M113.6,31c-18.27,6.95-35.83,18.02-49.45,31.7" fill="none" stroke="#87CDDE" stroke-linecap="round" stroke-linejoin="round" stroke-miterlimit="10" stroke-width="0.9563"/>
                <path d=" M116.92,36.91c-15.38,12.46-32.65,21.47-51.93,26.91" fill="none" stroke="#87CDDE" stroke-linecap="round" stroke-linejoin="round" stroke-miterlimit="10" stroke-width="0.9563"/>
                <path d=" M98.24,29.81c-4.23,2.82-6.92,8.2-8.67,12.91" fill="none" stroke="#87CDDE" stroke-linecap="round" stroke-linejoin="round" stroke-miterlimit="10" stroke-width="0.9563"/>
                <path d=" M113.75,31.67c-4.72,3.95-8.3,9.17-10.26,14.94" fill="none" stroke="#87CDDE" stroke-linecap="round" stroke-linejoin="round" stroke-miterlimit="10" stroke-width="0.9563"/>
                <path d=" M91.42,53.37c-5.97,1.22-10.37,1.32-15.62-0.61" fill="none" stroke="#87CDDE" stroke-linecap="round" stroke-linejoin="round" stroke-miterlimit="10" stroke-width="0.9563"/>
              </g>
            </g>
          </g>
          <g>
            <g>
              <g>
                <linearGradient id="SVGID_6_" gradientTransform="matrix(0.9779 -0.2092 0.2092 0.9779 -1518.7054 7.178)" gradientUnits="userSpaceOnUse" x1="1493.2155" x2="1521.4841" y1="400.111" y2="385.4289">
                  <stop offset="0" style="stop-color:#80FFEE"/>
                  <stop offset="0.1557" style="stop-color:#85FCED"/>
                  <stop offset="0.34" style="stop-color:#93F1E8"/>
                  <stop offset="0.5386" style="stop-color:#ABE1E1"/>
                  <stop offset="0.7476" style="stop-color:#CCC9D8"/>
                  <stop offset="0.9624" style="stop-color:#F7ACCB"/>
                  <stop offset="1" style="stop-color:#FFA6C9"/>
                </linearGradient>
                <path d="M31.19,87c-2.68,0-4.8-0.78-6.3-2.31c-2.76-2.81-3.5-5.81-2.2-8.91 c1.67-3.99,6.77-8.15,13.99-11.43c6.64-3.02,14.28-4.89,19.93-4.89c3.19,0,5.62,0.59,7.03,1.7c0.33,0.26,1.34,1.07,0.49,3.51 C61.42,72.43,43.01,87,31.19,87C31.19,87,31.19,87,31.19,87z" fill="url(#SVGID_6_)"/>
                <path d="M56.61,60.17c3.03,0,5.3,0.54,6.58,1.55c0.23,0.19,0.95,0.75,0.26,2.71 c-2.58,7.41-20.92,21.85-32.26,21.85c-2.48,0-4.42-0.7-5.79-2.09c-2.58-2.62-3.25-5.28-2.05-8.13 C26.78,67.88,44.99,60.17,56.61,60.17 M56.61,58.74c-15.67,0-44.71,13.75-32.23,26.46c1.73,1.76,4.09,2.52,6.81,2.52 c14.6,0,39.51-21.87,32.89-27.12C62.47,59.32,59.82,58.74,56.61,58.74L56.61,58.74z" fill="#55BFD9"/>
              </g>
              <g>
                <path d=" M24.79,82.83c8.97-10.2,18.44-16.9,30.71-22.73c0.28-0.13,0.6-0.33,0.58-0.64s-0.64-0.29-0.51-0.01" fill="none" stroke="#87CDDE" stroke-linecap="round" stroke-linejoin="round" stroke-miterlimit="10" stroke-width="0.9563"/>
                <path d=" M31.68,86.14c3.77-1.3,4.84-2.69,7.9-5.25c8.06-6.72,15.66-13.98,22.76-21.71c-0.16,0.11-0.33,0.23-0.49,0.34" fill="none" stroke="#87CDDE" stroke-linecap="round" stroke-linejoin="round" stroke-miterlimit="10" stroke-width="0.9563"/>
                <path d=" M31.9,85.69c1-4.95,2.88-9.73,5.51-14.04" fill="none" stroke="#87CDDE" stroke-linecap="round" stroke-linejoin="round" stroke-miterlimit="10" stroke-width="0.9563"/>
              </g>
            </g>
            <g>
              <g>
                <linearGradient id="SVGID_7_" gradientTransform="matrix(0.9691 -0.2466 0.2466 0.9691 -1501.5938 -2.4745)" gradientUnits="userSpaceOnUse" x1="1460.4167" x2="1503.0328" y1="406.5052" y2="446.6144">
                  <stop offset="0" style="stop-color:#80FFEE"/>
                  <stop offset="0.1557" style="stop-color:#85FCED"/>
                  <stop offset="0.34" style="stop-color:#93F1E8"/>
                  <stop offset="0.5386" style="stop-color:#ABE1E1"/>
                  <stop offset="0.7476" style="stop-color:#CCC9D8"/>
                  <stop offset="0.9624" style="stop-color:#F7ACCB"/>
                  <stop offset="1" style="stop-color:#FFA6C9"/>
                </linearGradient>
                <path d="M59.12,62.26c-12.98,0-39.06-8.42-47.1-19.6c-2.24-3.11-2.87-6.18-1.88-9.13 c1.77-5.27,5.85-7.95,12.13-7.95c13.02,0,32.22,11.87,40.68,22.49c3.51,4.41,5.02,8.27,4.36,11.18 C66.88,61.19,63.97,62.26,59.12,62.26C59.13,62.26,59.13,62.26,59.12,62.26z" fill="url(#SVGID_7_)"/>
                <path d="M22.28,26.3c12.82,0,31.76,11.73,40.12,22.22c3.33,4.17,4.82,7.92,4.22,10.57 c-0.35,1.54-3.15,2.46-7.5,2.46c-12.84,0-38.6-8.29-46.52-19.3c-2.1-2.91-2.7-5.77-1.78-8.49 C12.48,28.81,16.34,26.3,22.28,26.3 M22.28,24.87c-6.01,0-10.79,2.42-12.81,8.44c-5.2,15.49,31.98,29.68,49.66,29.68 c4.92,0,8.33-1.1,8.89-3.57C70.71,47.64,40.71,24.87,22.28,24.87L22.28,24.87z" fill="#55BFD9"/>
              </g>
              <g>
                <path d=" M14.4,28.79c18.27,6.95,35.83,18.02,49.45,31.7" fill="none" stroke="#87CDDE" stroke-linecap="round" stroke-linejoin="round" stroke-miterlimit="10" stroke-width="0.9563"/>
                <path d=" M11.08,34.69C26.46,47.15,43.73,56.17,63.01,61.6" fill="none" stroke="#87CDDE" stroke-linecap="round" stroke-linejoin="round" stroke-miterlimit="10" stroke-width="0.9563"/>
                <path d=" M29.76,27.59c4.23,2.82,6.92,8.2,8.67,12.91" fill="none" stroke="#87CDDE" stroke-linecap="round" stroke-linejoin="round" stroke-miterlimit="10" stroke-width="0.9563"/>
                <path d=" M14.25,29.46c4.72,3.95,8.3,9.17,10.26,14.94" fill="none" stroke="#87CDDE" stroke-linecap="round" stroke-linejoin="round" stroke-miterlimit="10" stroke-width="0.9563"/>
                <path d=" M36.58,51.15c5.97,1.22,10.37,1.32,15.62-0.61" fill="none" stroke="#87CDDE" stroke-linecap="round" stroke-linejoin="round" stroke-miterlimit="10" stroke-width="0.9563"/>
              </g>
            </g>
          </g>
        </g>
        <linearGradient id="SVGID_8_" gradientTransform="matrix(0.9955 0.0952 -0.0952 0.9955 -63.7281 61.5616)" gradientUnits="userSpaceOnUse" x1="113.2855" x2="124.3933" y1="23.0814" y2="23.0814">
          <stop offset="0" style="stop-color:#A47B62"/>
          <stop offset="1" style="stop-color:#BA8D68"/>
        </linearGradient>
        <path d=" M50.58,88.82c-1.64,0.3-3.18,1.64-3.43,3.29c-0.12,0.82,0.12,1.64,0.36,2.43c0.65,2.11,1.33,4.2,2.04,6.28 c0.39,1.14,0.96,2.43,2.13,2.71c0.78,0.19,1.61-0.17,2.18-0.74c0.57-0.56,0.92-1.31,1.23-2.05c1.43-3.44,3.13-4.92,3.18-8.65 C58.34,87.35,54.1,88.19,50.58,88.82z" fill="url(#SVGID_8_)" stroke="#91674D" stroke-linecap="round" stroke-linejoin="round" stroke-miterlimit="10"/>
        <g>
          <linearGradient id="SVGID_9_" gradientUnits="userSpaceOnUse" x1="68.8251" x2="67.6369" y1="65.9853" y2="93.8249">
            <stop offset="0" style="stop-color:#FFB504"/>
            <stop offset="0.4699" style="stop-color:#FFCA28"/>
          </linearGradient>
          <path d="M59.43,96.84c-3.04,0-4.78-1.71-5.12-3.29c-0.27-1.26,0.3-2.34,1.53-2.89l12.96-4.4 c0.2-0.07,0.34-0.26,0.34-0.48c0-0.42-2.18-6.29-4.05-11.24l7.65-13.57c2.09,4.58,6.8,18.37,8.39,25.74 c0.64,2.98-0.54,6.46-4.62,7.52c-4.78,1.24-9.37,1.86-16.18,2.57C60.03,96.83,59.72,96.84,59.43,96.84z" fill="url(#SVGID_9_)"/>
          <path d="M72.69,62.09c2.21,5.25,6.5,17.97,7.96,24.72c0.44,2.05,0.04,5.81-4.25,6.93 c-4.75,1.23-9.32,1.85-16.1,2.56c-0.29,0.03-0.58,0.05-0.86,0.05c-2.76,0-4.33-1.5-4.63-2.89c-0.22-1.02,0.22-1.86,1.21-2.31 l12.95-4.4c0.41-0.14,0.68-0.53,0.68-0.96c0-0.21-0.01-0.59-4-11.2L72.69,62.09 M72.78,59.89L64.54,74.5 c0,0,4.09,10.86,4.1,11.29l-13,4.42c-3.64,1.62-1.84,7.13,3.79,7.13c0.31,0,0.63-0.02,0.96-0.05 c6.38-0.67,11.23-1.28,16.25-2.58c4.5-1.17,5.63-5.09,4.98-8.11C79.89,78.59,74.52,63.2,72.78,59.89L72.78,59.89z" fill="#EDA600"/>
        </g>
        <g>
          <linearGradient id="SVGID_10_" gradientUnits="userSpaceOnUse" x1="59.5511" x2="48.7407" y1="68.5833" y2="120.0146">
            <stop offset="0.5301" style="stop-color:#FFCA28"/>
            <stop offset="1" style="stop-color:#FFB504"/>
          </linearGradient>
          <path d="M45.8,123.56c-0.26,0-0.49-0.05-0.69-0.16c-0.83-0.44-1.03-1.64-1.11-2.75 c-0.17-2.16-0.3-4.37-0.4-6.58c-0.03-0.72-0.07-1.55,0.22-2.23c0.6-1.41,2.38-1.84,3.38-1.97c0.21-0.03,0.38-0.19,0.43-0.4 l3.22-15.87l1.48-24.32l10.56-8.47c0.89,4.43,1.76,9.11,2.06,13.52c-0.08,0.32-0.16,0.85-0.3,1.76 c-0.54,3.56-1.79,11.9-4.15,20.1c-2.21,7.7-8.37,19.14-8.43,19.26c-0.03,0.06-2.18,4.37-3.61,6.25 c-0.42,0.55-0.92,1.17-1.56,1.54C46.56,123.45,46.17,123.56,45.8,123.56L45.8,123.56z" fill="url(#SVGID_10_)"/>
          <path d="M62.56,61.72c0.82,4.16,1.61,8.51,1.89,12.61c-0.09,0.39-0.18,0.93-0.29,1.69 c-0.54,3.55-1.79,11.87-4.14,20.04c-2.2,7.65-8.33,19.05-8.4,19.19c-0.02,0.04-2.15,4.31-3.55,6.16 c-0.39,0.51-0.85,1.09-1.41,1.41c-0.27,0.16-0.59,0.25-0.86,0.25c-0.17,0-0.33-0.03-0.46-0.1c-0.62-0.33-0.78-1.43-0.85-2.35 c-0.17-2.18-0.3-4.38-0.4-6.57c-0.04-0.81-0.05-1.48,0.18-2.01c0.52-1.23,2.26-1.58,2.99-1.67c0.42-0.06,0.77-0.37,0.85-0.79 l3.22-15.87c0.01-0.05,0.02-0.09,0.02-0.14l1.46-24.03L62.56,61.72 M62.91,60.16l-11.06,8.87L50.36,93.5l-3.22,15.87 c-1.56,0.2-3.18,0.85-3.78,2.27c-0.32,0.76-0.3,1.62-0.26,2.45c0.1,2.2,0.23,4.4,0.4,6.6c0.09,1.2,0.32,2.59,1.38,3.16 c0.29,0.15,0.6,0.22,0.93,0.22c0.47,0,0.96-0.15,1.37-0.39c0.69-0.4,1.22-1.03,1.7-1.67c1.47-1.94,3.65-6.32,3.65-6.32 s6.21-11.51,8.47-19.36c3.12-10.86,4.32-21.95,4.47-21.95c0,0,0,0,0,0c-0.3-4.5-1.21-9.32-2.14-13.95L62.91,60.16L62.91,60.16z" fill="#EDA600"/>
        </g>
        <g>
          <linearGradient id="SVGID_11_" gradientTransform="matrix(-0.0568 0.9984 0.9984 0.0568 -44.6739 6.4109)" gradientUnits="userSpaceOnUse" x1="48.737" x2="48.737" y1="58.375" y2="143.1163">
            <stop offset="0.2643" style="stop-color:#FFCA28"/>
            <stop offset="1" style="stop-color:#FFB300"/>
          </linearGradient>
          <path d="M31.32,74.76c-0.39,0-0.79-0.05-1.2-0.15c-1.99-0.48-3.65-1.11-4.99-1.62 c-0.56-0.21-1.07-0.41-1.51-0.56c-0.48-0.16-0.71-0.68-0.65-1.06c0.08-0.52,0.64-0.59,0.96-0.59c0.28,0,0.61,0.05,0.98,0.16 c0.34,0.1,0.61,0.15,0.84,0.15c0.64,0,0.79-0.41,0.83-0.54c0.23-0.92-1.49-1.86-1.69-1.96c-0.32-0.17-0.72-0.25-1.21-0.25 c-0.75,0-1.61,0.19-2.45,0.37c-0.72,0.15-1.39,0.3-1.88,0.3c-0.33,0-0.42-0.07-0.44-0.08c-0.26-0.24-0.3-0.51-0.29-0.65 c0-0.17,0.07-0.29,0.11-0.33c0.98-0.87,3.35-1.77,5.63-1.77c0.12,0,0.23,0,0.35,0.01c0.85,0.04,2.03,0.68,3.18,1.31 c1.35,0.74,2.75,1.5,3.96,1.5c0.22,0,0.44-0.03,0.64-0.08c0.21-0.06,0.21-0.06,7.89-13.71l5.65-10.03l9.86,4.19 c-6.5,7.68-18.27,21.54-19,22.23C35.04,73.29,33.46,74.76,31.32,74.76z" fill="url(#SVGID_11_)"/>
          <path d="M46.24,45.78l8.85,3.76c-7.37,8.71-17.83,21.01-18.55,21.69c-1.76,1.63-3.27,3.03-5.22,3.03 c-0.35,0-0.71-0.04-1.08-0.13c-1.96-0.47-3.61-1.1-4.93-1.6c-0.57-0.22-1.07-0.41-1.52-0.56c-0.24-0.08-0.35-0.36-0.32-0.52 c0.03-0.16,0.31-0.18,0.48-0.18c0.24,0,0.52,0.05,0.84,0.14c0.39,0.11,0.7,0.17,0.98,0.17c0.79,0,1.19-0.47,1.3-0.91 c0.3-1.22-1.4-2.23-1.94-2.51c-0.39-0.21-0.86-0.31-1.44-0.31c-0.8,0-1.69,0.19-2.55,0.38c-0.66,0.14-1.34,0.29-1.77,0.29 c-0.07,0-0.12,0-0.16-0.01c-0.09-0.11-0.09-0.2-0.09-0.25c0.93-0.78,3.16-1.59,5.24-1.59c0.11,0,0.22,0,0.33,0.01 c0.74,0.03,1.87,0.65,2.97,1.25c1.41,0.77,2.86,1.56,4.19,1.56c0.27,0,0.52-0.03,0.76-0.09c0.4-0.1,0.4-0.1,1.29-1.67l1.76-3.12 l5.15-9.15L46.24,45.78 M19.12,68.22L19.12,68.22L19.12,68.22 M45.82,44.54c0,0-2.81,4.99-5.86,10.41 c-3.62,6.43-7.59,13.47-7.59,13.47c-0.16,0.04-0.33,0.06-0.51,0.06c-2.09,0-5.13-2.72-7.12-2.8c-0.12-0.01-0.25-0.01-0.37-0.01 c-2.33,0-4.86,0.92-5.95,1.89c-0.35,0.31-0.43,1.13,0.18,1.7c0.17,0.16,0.43,0.22,0.77,0.22c1.12,0,2.99-0.67,4.32-0.67 c0.38,0,0.72,0.05,0.98,0.19c1.22,0.64,1.92,1.58,1.09,1.58c-0.17,0-0.4-0.04-0.7-0.13c-0.43-0.13-0.8-0.18-1.12-0.18 c-1.98,0-1.76,2.18-0.47,2.61c1.5,0.5,3.69,1.51,6.54,2.19c0.46,0.11,0.89,0.16,1.31,0.16c2.34,0,4.06-1.6,5.9-3.3 c0.97-0.9,19.47-22.77,19.47-22.77L45.82,44.54L45.82,44.54z" fill="#EDA600"/>
        </g>
        <g>
          <linearGradient id="SVGID_12_" gradientTransform="matrix(1 0 0 1 16.7435 0)" gradientUnits="userSpaceOnUse" x1="73.1056" x2="73.1056" y1="42.3071" y2="84.5353">
            <stop offset="0.2643" style="stop-color:#FFCA28"/>
            <stop offset="1" style="stop-color:#FFB300"/>
          </linearGradient>
          <path d="M88.67,64.46c-1.26,0-2.52-0.66-3.21-1.69L75.18,50.75l8.3-4.29l5.63,9.37 c0.09,0.15,0.25,0.24,0.42,0.24c0.09,0,0.17-0.02,0.25-0.07l5.04-3.03c0.3-0.18,0.88-0.55,1.57-1c1.68-1.09,4.22-2.73,5.07-3.06 c0.12-0.05,0.25-0.09,0.39-0.12c0.14-0.03,0.29-0.05,0.45-0.05c0.54,0,1.07,0.2,1.46,0.55c0.08,0.08,0.16,0.15,0.23,0.23 c1.36,1.48-0.09,3.08-1.98,4.87l-0.36,0.34c-0.94,0.91-7.5,6.41-10.52,8.8c-0.2,0.15-0.43,0.29-0.68,0.4 c-0.04,0.02-0.07,0.04-0.1,0.06c-0.1,0.08-0.17,0.12-0.18,0.13C89.75,64.34,89.23,64.46,88.67,64.46 C88.67,64.46,88.67,64.46,88.67,64.46z" fill="url(#SVGID_12_)"/>
          <path d="M83.3,47.1l5.39,8.98c0.18,0.31,0.51,0.47,0.84,0.47c0.17,0,0.34-0.04,0.5-0.14l5.04-3.03 c0.31-0.18,0.88-0.56,1.58-1.01c1.56-1.01,4.18-2.71,4.98-3.02c0.12-0.05,0.22-0.08,0.31-0.1c0.11-0.02,0.23-0.04,0.34-0.04 c0.42,0,0.83,0.16,1.13,0.42c0.07,0.06,0.14,0.13,0.2,0.19c0.97,1.06,0.1,2.24-1.95,4.19l-0.36,0.34 c-0.94,0.9-7.46,6.38-10.47,8.76c-0.17,0.13-0.37,0.25-0.58,0.35c-0.07,0.03-0.14,0.07-0.2,0.12c-0.05,0.04-0.08,0.06-0.11,0.08 c-0.38,0.19-0.81,0.29-1.27,0.29c-1.1,0-2.21-0.58-2.81-1.47c-0.02-0.03-0.04-0.06-0.07-0.09L75.95,50.9L83.3,47.1 M83.67,45.82 l-9.25,4.78l10.65,12.45c0.8,1.19,2.22,1.91,3.62,1.91c0.61,0,1.22-0.14,1.77-0.43c0,0,0.08-0.05,0.21-0.15 c0.27-0.12,0.54-0.28,0.78-0.46c3.08-2.44,9.6-7.91,10.56-8.83c1.52-1.46,4.3-3.78,2.36-5.89c-0.08-0.09-0.17-0.17-0.26-0.26 c-0.49-0.44-1.14-0.68-1.79-0.68c-0.19,0-0.37,0.02-0.56,0.06c-0.16,0.03-0.31,0.08-0.46,0.14c-1.25,0.48-5.64,3.46-6.71,4.1 c-1.68,1.01-3.36,2.02-5.04,3.03L83.67,45.82L83.67,45.82z" fill="#EDA600"/>
        </g>
        <g>
          <linearGradient id="SVGID_13_" gradientTransform="matrix(1 -8.621460e-03 8.621460e-03 1 1.6019 0.9093)" gradientUnits="userSpaceOnUse" x1="62.0019" x2="62.0019" y1="28.7826" y2="76.4201">
            <stop offset="0" style="stop-color:#2CD1C9"/>
            <stop offset="0.188" style="stop-color:#609CB7"/>
            <stop offset="0.3756" style="stop-color:#8C6FA9"/>
            <stop offset="0.5546" style="stop-color:#AE4C9D"/>
            <stop offset="0.7227" style="stop-color:#C73395"/>
            <stop offset="0.8757" style="stop-color:#D62490"/>
            <stop offset="1" style="stop-color:#DB1F8E"/>
          </linearGradient>
          <path d="M83.93,46.43c0,0-3.21-7.54-20.55-7.39c-17.34,0.15-19.32,7.74-19.32,7.74l7.64,6.98l0.14,15.76 L62.36,76c0.79,0.39,1.66,0.59,2.54,0.58c0.91-0.01,1.81-0.24,2.61-0.67l8.95-6.61l-0.14-15.76L83.93,46.43z" fill="url(#SVGID_13_)"/>
        </g>
        <g>
          <linearGradient id="SVGID_14_" gradientTransform="matrix(1 -8.621460e-03 8.621460e-03 1 1.6019 0.9093)" gradientUnits="userSpaceOnUse" x1="62.0019" x2="62.0019" y1="28.7834" y2="76.4154">
            <stop offset="0" style="stop-color:#2CD1C9"/>
            <stop offset="0.188" style="stop-color:#609CB7"/>
            <stop offset="0.3756" style="stop-color:#8C6FA9"/>
            <stop offset="0.5546" style="stop-color:#AE4C9D"/>
            <stop offset="0.7227" style="stop-color:#C73395"/>
            <stop offset="0.8757" style="stop-color:#D62490"/>
            <stop offset="1" style="stop-color:#DB1F8E"/>
          </linearGradient>
          <path d="M83.93,46.43c0,0-3.21-7.54-20.55-7.39c-17.34,0.15-19.32,7.74-19.32,7.74l7.58,6.92l24.78-0.21 L83.93,46.43z" fill="url(#SVGID_14_)"/>
        </g>
        <g>
          <defs>
            <path id="SVGID_15_" d="M83.68,46.44c0,0-2.69-7.48-20.03-7.33c-17.34,0.15-17.79,7.66-17.79,7.66l6.55,6.93l24.78-0.21 L83.68,46.44z"/>
          </defs>
          <clipPath id="SVGID_16_">
            <use overflow="visible" xlink:href="#SVGID_15_"/>
          </clipPath>
          <g clip-path="url(#SVGID_16_)">
            <linearGradient id="SVGID_17_" gradientTransform="matrix(1 -8.621460e-03 8.621460e-03 1 1.6019 0.9093)" gradientUnits="userSpaceOnUse" x1="62.7538" x2="62.7538" y1="37.2979" y2="50.65">
              <stop offset="0.4398" style="stop-color:#FFCA28"/>
              <stop offset="1" style="stop-color:#E49800"/>
            </linearGradient>
            <path d="M64.62,47.87c-6.92,0-10.64-4.3-10.67-7.41c-0.03-3.23,4.77-5.89,10.69-5.94l0.17,0 c5.83,0,10.59,2.58,10.62,5.76c0.03,3.07-3.76,7.54-10.68,7.6L64.62,47.87z" fill="url(#SVGID_17_)"/>
            <path d="M64.82,35.02L64.82,35.02c5.46,0,10.1,2.41,10.12,5.26c0.01,1.52-0.94,3.23-2.55,4.56 c-1.94,1.6-4.65,2.5-7.63,2.53l-0.14,0c-6.51,0-10.14-4.09-10.17-6.91c-0.02-2.9,4.64-5.39,10.2-5.44L64.82,35.02 M64.82,34.02c-0.06,0-0.12,0-0.18,0c-6.21,0.05-11.22,2.94-11.19,6.45c0.03,3.48,4.16,7.91,11.17,7.91c0.05,0,0.1,0,0.14,0 c7.09-0.06,11.2-4.59,11.17-8.1C75.91,36.8,70.95,34.02,64.82,34.02L64.82,34.02z" fill="#EDA600"/>
          </g>
        </g>
        <path d="M63.65,40.11c13.6,0,17.92,4.52,19.02,6.12l-7.09,6.63c-0.21,0.19-0.32,0.47-0.32,0.75l0.32,15.37 l-8.54,6.19c-0.66,0.33-1.39,0.51-2.13,0.51c-0.71,0-1.42-0.16-2.06-0.48l-10.12-6.24V53.73c0-0.28-0.12-0.55-0.32-0.74 l-7.13-6.56C46.18,44.83,49.99,40.11,63.65,40.11 M63.65,39.11c-17.52,0-19.57,7.57-19.57,7.57l7.66,7.04V69.5l10.62,6.57 c0.79,0.4,1.67,0.61,2.56,0.61c0.92,0,1.83-0.22,2.64-0.65l9.04-6.53l-0.33-15.91l7.67-7.17 C83.93,46.42,81.16,39.11,63.65,39.11L63.65,39.11z" fill="#983BA1"/>
        <g id="XMLID_64_">
          <g id="XMLID_65_">
            <path d="M63.61,43.71c-1.9,0-3.45-1.47-3.45-3.28v-4.11h7.69v4.11c0,1.81-1.55,3.28-3.45,3.28H63.61z" fill="#E49800"/>
            <path d="M67.34,36.82v3.61c0,1.53-1.32,2.78-2.95,2.78h-0.79c-1.63,0-2.95-1.25-2.95-2.78v-3.61H64H67.34 M68.34,35.82H64h-4.34v4.61c0,2.09,1.77,3.78,3.95,3.78h0.79c2.18,0,3.95-1.69,3.95-3.78V35.82L68.34,35.82z" fill="#C78500"/>
          </g>
        </g>
        <g>
          <path d="M42.94,27.54c-2.8,0-5.73-1.29-7.85-3.44c-0.47-0.47-0.9-1-1.32-1.51c-0.42-0.5-0.85-1.03-1.32-1.51 c-0.92-0.95-2.19-2.06-3.76-2.16c-0.09-0.01-0.18-0.01-0.27-0.01c-0.66,0-1.24,0.15-1.73,0.37c0.93-1.16,2.28-1.74,4.05-1.74 c2.16,0,4.15,0.89,4.17,0.9c0.07,0.03,0.14,0.04,0.21,0.04c0.12,0,0.24-0.04,0.33-0.12c0.15-0.13,0.21-0.33,0.15-0.52 c-0.27-0.89-0.24-1.61,0.1-2.15c0.14-0.23,0.33-0.41,0.52-0.54c-0.15,0.66-0.09,1.39,0.51,1.93c0.68,0.62,1.42,0.93,2.18,0.93 c1.9,0,3.54-1.91,4.85-3.44c0.41-0.47,0.79-0.92,1.12-1.23c2.16-2.06,4.71-3.34,7.17-3.6c0.51-0.05,1.29-0.08,2.19-0.08 c3.75,0,6.98,0.45,7.69,0.88c-0.01,0.01-0.03,0.02-0.05,0.04c-0.91,0.64-2.47,3.05-4.75,6.66c-1.33,2.12-2.71,4.3-3.24,4.75 C51.77,23.79,47.41,27.54,42.94,27.54L42.94,27.54z" fill="#B346BD"/>
          <path d="M54.21,10.15c2.9,0,5.48,0.27,6.73,0.57c-0.98,1.06-2.34,3.18-4.27,6.24 c-1.19,1.89-2.67,4.24-3.14,4.64c-2.05,1.76-6.31,5.44-10.6,5.44c-2.67,0-5.47-1.23-7.5-3.29c-0.45-0.46-0.86-0.95-1.3-1.48 c-0.42-0.51-0.86-1.04-1.35-1.54c-0.99-1.02-2.34-2.2-4.09-2.31c-0.03,0-0.06,0-0.09,0c0.6-0.25,1.3-0.38,2.1-0.38 c2.04,0,3.94,0.84,3.96,0.85c0.13,0.06,0.27,0.09,0.41,0.09c0.24,0,0.47-0.09,0.66-0.25c0.3-0.26,0.41-0.67,0.3-1.04 c-0.09-0.31-0.15-0.59-0.16-0.84c0.11,0.21,0.27,0.41,0.48,0.6c0.78,0.71,1.62,1.06,2.52,1.06c2.13,0,3.85-2,5.23-3.61 c0.4-0.46,0.77-0.9,1.08-1.2c2.08-1.98,4.53-3.21,6.88-3.46C52.58,10.18,53.33,10.15,54.21,10.15 M54.21,9.15 c-0.91,0-1.7,0.03-2.24,0.09c-2.83,0.3-5.42,1.79-7.46,3.73c-1.37,1.31-3.39,4.54-5.62,4.54c-0.6,0-1.22-0.23-1.84-0.8 c-0.98-0.89,0.1-2.49,0.1-2.49s-3.05,0.47-2.04,3.77c0,0-2.08-0.94-4.37-0.94c-2.14,0-4.48,0.82-5.51,3.98 c0,0,1.19-1.61,3.19-1.61c0.08,0,0.16,0,0.24,0.01c1.36,0.09,2.5,1.04,3.44,2.01c0.93,0.96,1.7,2.07,2.65,3.03 c2.13,2.16,5.13,3.59,8.21,3.59c0,0,0,0,0,0c4.6,0,8.93-3.68,11.24-5.68c1.3-1.12,6.32-10.25,7.95-11.38 C63.99,9.69,58.05,9.15,54.21,9.15L54.21,9.15z" fill="#983BA1"/>
        </g>
        <g>
          <g>
            <path d="M110.46,21.27l-0.09-0.03l-9.15,40.97 c-0.06,0.26,0.1,0.52,0.36,0.58s0.52-0.1,0.58-0.36c0,0,0-0.01,0-0.01L110.46,21.27z" fill="#6D4C41" stroke="#6D4C41" stroke-miterlimit="10"/>
            <g>
              <path d="M110.08,23.75c-0.09-0.07-0.2-0.1-0.3-0.1c-0.05,0-0.1,0.01-0.16,0.02l-3.08,1l1.08-3.05 c0.05-0.16,0.03-0.33-0.07-0.46l-1.91-2.62c0,0,3.24,0.08,3.25,0.08c0.16,0,0.31-0.08,0.41-0.21l1.9-2.62l0.92,3.1 c0.05,0.16,0.17,0.28,0.33,0.33l3.08,1l-2.66,1.84c-0.13,0.09-0.22,0.25-0.22,0.41l0,3.24L110.08,23.75z" fill="#FFD600"/>
              <path d="M111.01,16.91l0.64,2.13c0.09,0.32,0.34,0.56,0.65,0.67l2.12,0.68l-1.83,1.26 c-0.27,0.19-0.43,0.5-0.43,0.82l0,2.22l-1.77-1.35c-0.18-0.14-0.39-0.21-0.61-0.21c-0.1,0-0.21,0.02-0.31,0.05l-2.11,0.69 l0.74-2.1c0.11-0.31,0.06-0.65-0.13-0.92l-1.31-1.8l2.22,0.05c0.01,0,0.02,0,0.02,0c0.32,0,0.62-0.15,0.81-0.41L111.01,16.91 M111.39,14.69l-2.49,3.44l-4.25-0.1l2.5,3.44l-1.41,4.01l4.04-1.32l3.38,2.58l0-4.25l3.5-2.41l-4.04-1.31L111.39,14.69 L111.39,14.69z" fill="#E6A900"/>
            </g>
          </g>
          <g>
            <path d="M103.61,53.84c-1.88,0-3.38-1.09-4.03-2.9c-0.68-1.92-0.15-3.29,0.42-4.09 c0.93-1.33,2.54-2.02,3.65-2.02c0.4,0,0.73,0.09,0.93,0.26c0.94,0.79,3.65,6.49,3.41,7.52l-2.55,0.91 C104.82,53.73,104.21,53.84,103.61,53.84z" fill="#FFCA28"/>
            <path d="M103.65,45.33L103.65,45.33c0.32,0,0.52,0.07,0.6,0.14c0.96,0.85,2.99,5.42,3.22,6.8l-2.2,0.79 c-0.55,0.2-1.11,0.3-1.65,0.3c-1.68,0-2.98-0.94-3.56-2.57c-0.49-1.38-0.37-2.6,0.36-3.64 C101.24,45.95,102.67,45.33,103.65,45.33 M103.65,44.33c-2.31,0-6.06,2.51-4.54,6.78c0.77,2.16,2.54,3.24,4.5,3.24 c0.65,0,1.32-0.12,1.98-0.35l2.64-0.94c1.19-0.42-2.32-7.48-3.34-8.34C104.6,44.45,104.16,44.32,103.65,44.33L103.65,44.33z" fill="#EDA600"/>
          </g>
          <radialGradient id="SVGID_18_" cx="-622.4059" cy="-1442.0239" gradientTransform="matrix(-1.0122 0.2784 0.1016 0.3682 -374.3522 755.4737)" gradientUnits="userSpaceOnUse" r="3.8766">
            <stop offset="0.5993" style="stop-color:#FFCA28"/>
            <stop offset="1" style="stop-color:#FFB300"/>
          </radialGradient>
          <path d=" M105.18,52.35L105.18,52.35c0.18,0.65,0.84,1.03,1.49,0.85l1.65-0.45c0.65-0.18,1.03-0.84,0.85-1.49l0,0 c-0.18-0.65-0.84-1.03-1.49-0.85l-1.65,0.45C105.38,51.04,105,51.71,105.18,52.35z" fill="url(#SVGID_18_)" stroke="#EDA600" stroke-linecap="round" stroke-linejoin="round" stroke-miterlimit="10"/>
          <radialGradient id="SVGID_19_" cx="-804.5626" cy="-1388.1945" gradientTransform="matrix(-0.8648 0.3887 0.1274 0.2771 -411.6517 742.2053)" gradientUnits="userSpaceOnUse" r="3.6419">
            <stop offset="0.5993" style="stop-color:#FFCA28"/>
            <stop offset="1" style="stop-color:#FFB300"/>
          </radialGradient>
          <path d=" M103.49,46.22l0.08,0.2c0.23,0.55,0.84,0.82,1.36,0.61l2.54-1.06c0.52-0.22,0.75-0.84,0.52-1.39l-0.08-0.2 c-0.23-0.55-0.84-0.82-1.36-0.61l-2.54,1.06C103.45,45.34,103.25,45.73,103.49,46.22z" fill="url(#SVGID_19_)" stroke="#EDA600" stroke-linecap="round" stroke-linejoin="round" stroke-miterlimit="10"/>
          <radialGradient id="SVGID_20_" cx="-685.3015" cy="-1426.212" gradientTransform="matrix(-1.0088 0.2913 0.1084 0.3832 -428.3678 795.5685)" gradientUnits="userSpaceOnUse" r="3.0888">
            <stop offset="0.5993" style="stop-color:#FFCA28"/>
            <stop offset="1" style="stop-color:#FFB300"/>
          </radialGradient>
          <path d=" M104.83,50.45L104.83,50.45c0.2,0.67,0.91,1.05,1.58,0.85l2.23-0.67c0.67-0.2,1.05-0.91,0.85-1.58l0,0 c-0.2-0.67-0.91-1.05-1.58-0.85l-2.23,0.67C105.01,49.07,104.63,49.78,104.83,50.45z" fill="url(#SVGID_20_)" stroke="#EDA600" stroke-linecap="round" stroke-linejoin="round" stroke-miterlimit="10"/>
          <path d="M104.55,50.74c0.22-0.05,0.38-0.12,0.56-0.26l-0.78,3.89c-0.62,0.02-1.24,0.04-1.85,0.06l0.93-4.17 C103.71,50.53,104.07,50.85,104.55,50.74z" fill="#6D4C41"/>
          <radialGradient id="SVGID_21_" cx="-740.2661" cy="-1342.3615" fx="-739.4178" fy="-1346.3568" gradientTransform="matrix(-0.9918 0.3483 0.1106 0.3176 -477.419 731.1374)" gradientUnits="userSpaceOnUse" r="4.0844">
            <stop offset="0.5993" style="stop-color:#FFCA28"/>
            <stop offset="1" style="stop-color:#FFB300"/>
          </radialGradient>
          <path d=" M104.01,48.47L104.01,48.47c0.23,0.64,0.94,0.98,1.58,0.75l2.66-0.95c0.64-0.23,0.98-0.94,0.75-1.58v0 c-0.23-0.64-0.94-0.98-1.58-0.75l-2.66,0.95C104.12,47.12,103.78,47.82,104.01,48.47z" fill="url(#SVGID_21_)" stroke="#EDA600" stroke-linecap="round" stroke-linejoin="round" stroke-miterlimit="10"/>
          <g>
            <path d="M101.02,46.39c0.37-0.64,1.4-1.22,2.24-1.09c0.83,0.12,1,0.7,1.16,0.86c0.06,0.06,0.89,2.47,1.06,2.76 c0.39,0.7-0.27,1.22-0.79,1.29c-0.51,0.07-1.08-0.26-1.29-0.73c-0.74-1.66-1.44-1.4-1.99-1.37c-0.35,0.02-0.63-0.13-0.85-0.33 C100.74,47.53,100.91,46.58,101.02,46.39z" fill="#FFCA28"/>
            <path d="M101.37,47.56l0.14-0.01c0.75-0.08,1.62-0.01,2.39,1.71c0.11,0.25,0.45,0.44,0.71,0.41 c0.16-0.02,0.34-0.14,0.4-0.25c0.02-0.03,0.52-0.29-0.07-1.52c-0.22-0.47-1.32-2.55-1.25-2.59c0.02-0.17,0.44-0.42,0.98,0.64 c0.06,0.12,0.1,0.1,0.66,1.35c0.27,0.59,0.54,1.22,0.62,1.36c0,0,0,0,0,0c0.23,0.41,0.25,0.86,0.05,1.25 c-0.22,0.43-0.65,0.7-1.04,0.81c-0.07,0.02-0.15,0.04-0.22,0.05c-0.75,0.1-1.5-0.15-1.87-1.05c-0.48-1.15-0.84-1.1-1.26-1.06 l-0.19,0.02c-0.55,0.04-0.97-0.2-1.28-0.49C100.25,48.14,101.15,47.58,101.37,47.56z" fill="#EDA600"/>
          </g>
        </g>
      </g>
      <g>
        <g>
          <g>
            <g>
              <g>
                <linearGradient id="SVGID_22_" gradientTransform="matrix(-0.9779 -0.2092 -0.2092 0.9779 -1326.3302 7.178)" gradientUnits="userSpaceOnUse" x1="-1414.0339" x2="-1385.7653" y1="-221.8553" y2="-236.5375">
                  <stop offset="0" style="stop-color:#80FFEE"/>
                  <stop offset="0.1557" style="stop-color:#85FCED"/>
                  <stop offset="0.34" style="stop-color:#93F1E8"/>
                  <stop offset="0.5386" style="stop-color:#ABE1E1"/>
                  <stop offset="0.7476" style="stop-color:#CCC9D8"/>
                  <stop offset="0.9624" style="stop-color:#F7ACCB"/>
                  <stop offset="1" style="stop-color:#FFA6C9"/>
                </linearGradient>
                <path d="M96.81,87c-11.83,0-30.23-14.57-32.94-22.33c-0.85-2.44,0.16-3.24,0.49-3.51 c1.4-1.12,3.83-1.7,7.03-1.7c5.66,0,13.29,1.87,19.93,4.89c7.22,3.28,12.32,7.45,13.99,11.43c1.3,3.1,0.56,6.1-2.2,8.91 C101.61,86.23,99.49,87,96.81,87z" fill="url(#SVGID_22_)"/>
                <path d="M71.39,58.74v1.43c11.61,0,29.83,7.7,33.26,15.89c1.2,2.85,0.52,5.51-2.05,8.13 c-1.36,1.39-3.31,2.09-5.79,2.09c-11.34,0-29.68-14.45-32.26-21.85c-0.68-1.96,0.03-2.52,0.26-2.71 c1.28-1.01,3.55-1.55,6.58-1.55V58.74 M71.39,58.74c-3.21,0-5.86,0.58-7.47,1.86c-6.61,5.25,18.29,27.12,32.89,27.12 c2.72,0,5.08-0.76,6.81-2.52C116.11,72.49,87.06,58.74,71.39,58.74L71.39,58.74z" fill="#55BFD9"/>
              </g>
              <g>
                <path d=" M103.21,82.83c-8.97-10.2-18.44-16.9-30.71-22.73c-0.28-0.13-0.6-0.33-0.58-0.64c0.01-0.31,0.64-0.29,0.51-0.01" fill="none" stroke="#87CDDE" stroke-linecap="round" stroke-linejoin="round" stroke-miterlimit="10" stroke-width="0.9563"/>
                <path d=" M96.32,86.14c-3.77-1.3-4.84-2.69-7.9-5.25c-8.06-6.72-15.66-13.98-22.76-21.71c0.16,0.11,0.33,0.23,0.49,0.34" fill="none" stroke="#87CDDE" stroke-linecap="round" stroke-linejoin="round" stroke-miterlimit="10" stroke-width="0.9563"/>
                <path d=" M96.1,85.69c-1-4.95-2.88-9.73-5.51-14.04" fill="none" stroke="#87CDDE" stroke-linecap="round" stroke-linejoin="round" stroke-miterlimit="10" stroke-width="0.9563"/>
              </g>
            </g>
            <g>
              <g>
                <linearGradient id="SVGID_23_" gradientTransform="matrix(-0.9691 -0.2466 -0.2466 0.9691 -1343.4418 -2.4745)" gradientUnits="userSpaceOnUse" x1="-1421.35" x2="-1378.7339" y1="-324.4991" y2="-284.3899">
                  <stop offset="0" style="stop-color:#80FFEE"/>
                  <stop offset="0.1557" style="stop-color:#85FCED"/>
                  <stop offset="0.34" style="stop-color:#93F1E8"/>
                  <stop offset="0.5386" style="stop-color:#ABE1E1"/>
                  <stop offset="0.7476" style="stop-color:#CCC9D8"/>
                  <stop offset="0.9624" style="stop-color:#F7ACCB"/>
                  <stop offset="1" style="stop-color:#FFA6C9"/>
                </linearGradient>
                <path d="M68.88,64.48c-4.84,0-7.75-1.07-8.2-3.02c-0.66-2.9,0.84-6.77,4.36-11.17 C73.5,39.67,92.7,27.8,105.72,27.8c6.28,0,10.36,2.67,12.13,7.95c0.99,2.95,0.36,6.02-1.88,9.13 C107.93,56.06,81.86,64.48,68.88,64.48z" fill="url(#SVGID_23_)"/>
                <path d="M105.73,27.08v1.43c5.94,0,9.79,2.51,11.45,7.46c0.91,2.72,0.31,5.57-1.78,8.49 c-7.92,11.01-33.68,19.3-46.52,19.3c-4.34,0-7.14-0.92-7.5-2.46c-0.6-2.64,0.89-6.4,4.22-10.56 c8.36-10.49,27.3-22.22,40.13-22.22L105.73,27.08 M105.72,27.08c-18.43,0-48.43,22.77-45.74,34.54 c0.57,2.48,3.97,3.57,8.89,3.57c17.68,0,54.86-14.19,49.66-29.68C116.52,29.5,111.74,27.08,105.72,27.08L105.72,27.08z" fill="#55BFD9"/>
              </g>
              <g>
                <path d=" M113.6,31c-18.27,6.95-35.83,18.02-49.45,31.7" fill="none" stroke="#87CDDE" stroke-linecap="round" stroke-linejoin="round" stroke-miterlimit="10" stroke-width="0.9563"/>
                <path d=" M116.92,36.91c-15.38,12.46-32.65,21.47-51.93,26.91" fill="none" stroke="#87CDDE" stroke-linecap="round" stroke-linejoin="round" stroke-miterlimit="10" stroke-width="0.9563"/>
                <path d=" M98.24,29.81c-4.23,2.82-6.92,8.2-8.67,12.91" fill="none" stroke="#87CDDE" stroke-linecap="round" stroke-linejoin="round" stroke-miterlimit="10" stroke-width="0.9563"/>
                <path d=" M113.75,31.67c-4.72,3.95-8.3,9.17-10.26,14.94" fill="none" stroke="#87CDDE" stroke-linecap="round" stroke-linejoin="round" stroke-miterlimit="10" stroke-width="0.9563"/>
                <path d=" M91.42,53.37c-5.97,1.22-10.37,1.32-15.62-0.61" fill="none" stroke="#87CDDE" stroke-linecap="round" stroke-linejoin="round" stroke-miterlimit="10" stroke-width="0.9563"/>
              </g>
            </g>
          </g>
          <g>
            <g>
              <g>
                <linearGradient id="SVGID_24_" gradientTransform="matrix(0.9779 -0.2092 0.2092 0.9779 -1518.7054 7.178)" gradientUnits="userSpaceOnUse" x1="1493.2155" x2="1521.4841" y1="400.111" y2="385.4289">
                  <stop offset="0" style="stop-color:#80FFEE"/>
                  <stop offset="0.1557" style="stop-color:#85FCED"/>
                  <stop offset="0.34" style="stop-color:#93F1E8"/>
                  <stop offset="0.5386" style="stop-color:#ABE1E1"/>
                  <stop offset="0.7476" style="stop-color:#CCC9D8"/>
                  <stop offset="0.9624" style="stop-color:#F7ACCB"/>
                  <stop offset="1" style="stop-color:#FFA6C9"/>
                </linearGradient>
                <path d="M31.19,87c-2.68,0-4.8-0.78-6.3-2.31c-2.76-2.81-3.5-5.81-2.2-8.91 c1.67-3.99,6.77-8.15,13.99-11.43c6.64-3.02,14.28-4.89,19.93-4.89c3.19,0,5.62,0.59,7.03,1.7c0.33,0.26,1.34,1.07,0.49,3.51 C61.42,72.43,43.01,87,31.19,87C31.19,87,31.19,87,31.19,87z" fill="url(#SVGID_24_)"/>
                <path d="M56.61,60.17c3.03,0,5.3,0.54,6.58,1.55c0.23,0.19,0.95,0.75,0.26,2.71 c-2.58,7.41-20.92,21.85-32.26,21.85c-2.48,0-4.42-0.7-5.79-2.09c-2.58-2.62-3.25-5.28-2.05-8.13 C26.78,67.88,44.99,60.17,56.61,60.17 M56.61,58.74c-15.67,0-44.71,13.75-32.23,26.46c1.73,1.76,4.09,2.52,6.81,2.52 c14.6,0,39.51-21.87,32.89-27.12C62.47,59.32,59.82,58.74,56.61,58.74L56.61,58.74z" fill="#55BFD9"/>
              </g>
              <g>
                <path d=" M24.79,82.83c8.97-10.2,18.44-16.9,30.71-22.73c0.28-0.13,0.6-0.33,0.58-0.64s-0.64-0.29-0.51-0.01" fill="none" stroke="#87CDDE" stroke-linecap="round" stroke-linejoin="round" stroke-miterlimit="10" stroke-width="0.9563"/>
                <path d=" M31.68,86.14c3.77-1.3,4.84-2.69,7.9-5.25c8.06-6.72,15.66-13.98,22.76-21.71c-0.16,0.11-0.33,0.23-0.49,0.34" fill="none" stroke="#87CDDE" stroke-linecap="round" stroke-linejoin="round" stroke-miterlimit="10" stroke-width="0.9563"/>
                <path d=" M31.9,85.69c1-4.95,2.88-9.73,5.51-14.04" fill="none" stroke="#87CDDE" stroke-linecap="round" stroke-linejoin="round" stroke-miterlimit="10" stroke-width="0.9563"/>
              </g>
            </g>
            <g>
              <g>
                <linearGradient id="SVGID_25_" gradientTransform="matrix(0.9691 -0.2466 0.2466 0.9691 -1501.5938 -2.4745)" gradientUnits="userSpaceOnUse" x1="1460.4167" x2="1503.0328" y1="406.5052" y2="446.6144">
                  <stop offset="0" style="stop-color:#80FFEE"/>
                  <stop offset="0.1557" style="stop-color:#85FCED"/>
                  <stop offset="0.34" style="stop-color:#93F1E8"/>
                  <stop offset="0.5386" style="stop-color:#ABE1E1"/>
                  <stop offset="0.7476" style="stop-color:#CCC9D8"/>
                  <stop offset="0.9624" style="stop-color:#F7ACCB"/>
                  <stop offset="1" style="stop-color:#FFA6C9"/>
                </linearGradient>
                <path d="M59.12,62.26c-12.98,0-39.06-8.42-47.1-19.6c-2.24-3.11-2.87-6.18-1.88-9.13 c1.77-5.27,5.85-7.95,12.13-7.95c13.02,0,32.22,11.87,40.68,22.49c3.51,4.41,5.02,8.27,4.36,11.18 C66.88,61.19,63.97,62.26,59.12,62.26C59.13,62.26,59.13,62.26,59.12,62.26z" fill="url(#SVGID_25_)"/>
                <path d="M22.28,26.3c12.82,0,31.76,11.73,40.12,22.22c3.33,4.17,4.82,7.92,4.22,10.57 c-0.35,1.54-3.15,2.46-7.5,2.46c-12.84,0-38.6-8.29-46.52-19.3c-2.1-2.91-2.7-5.77-1.78-8.49 C12.48,28.81,16.34,26.3,22.28,26.3 M22.28,24.87c-6.01,0-10.79,2.42-12.81,8.44c-5.2,15.49,31.98,29.68,49.66,29.68 c4.92,0,8.33-1.1,8.89-3.57C70.71,47.64,40.71,24.87,22.28,24.87L22.28,24.87z" fill="#55BFD9"/>
              </g>
              <g>
                <path d=" M14.4,28.79c18.27,6.95,35.83,18.02,49.45,31.7" fill="none" stroke="#87CDDE" stroke-linecap="round" stroke-linejoin="round" stroke-miterlimit="10" stroke-width="0.9563"/>
                <path d=" M11.08,34.69C26.46,47.15,43.73,56.17,63.01,61.6" fill="none" stroke="#87CDDE" stroke-linecap="round" stroke-linejoin="round" stroke-miterlimit="10" stroke-width="0.9563"/>
                <path d=" M29.76,27.59c4.23,2.82,6.92,8.2,8.67,12.91" fill="none" stroke="#87CDDE" stroke-linecap="round" stroke-linejoin="round" stroke-miterlimit="10" stroke-width="0.9563"/>
                <path d=" M14.25,29.46c4.72,3.95,8.3,9.17,10.26,14.94" fill="none" stroke="#87CDDE" stroke-linecap="round" stroke-linejoin="round" stroke-miterlimit="10" stroke-width="0.9563"/>
                <path d=" M36.58,51.15c5.97,1.22,10.37,1.32,15.62-0.61" fill="none" stroke="#87CDDE" stroke-linecap="round" stroke-linejoin="round" stroke-miterlimit="10" stroke-width="0.9563"/>
              </g>
            </g>
          </g>
        </g>
        <g>
          <linearGradient id="SVGID_26_" gradientUnits="userSpaceOnUse" x1="68.8251" x2="67.6369" y1="65.9853" y2="93.8249">
            <stop offset="0" style="stop-color:#A47B62"/>
            <stop offset="1" style="stop-color:#BA8D68"/>
          </linearGradient>
          <path d="M59.43,96.84c-3.04,0-4.78-1.71-5.12-3.29c-0.27-1.26,0.3-2.34,1.53-2.89l12.96-4.4 c0.2-0.07,0.34-0.26,0.34-0.48c0-0.42-2.18-6.29-4.05-11.24l7.65-13.57c2.09,4.58,6.8,18.37,8.39,25.74 c0.64,2.98-0.54,6.46-4.62,7.52c-4.78,1.24-9.37,1.86-16.18,2.57C60.03,96.83,59.72,96.84,59.43,96.84z" fill="url(#SVGID_26_)"/>
          <path d="M72.69,62.09c2.21,5.25,6.5,17.97,7.96,24.72c0.44,2.05,0.04,5.81-4.25,6.93 c-4.75,1.23-9.32,1.85-16.1,2.56c-0.29,0.03-0.58,0.05-0.86,0.05c-2.76,0-4.33-1.5-4.63-2.89c-0.22-1.02,0.22-1.86,1.21-2.31 l12.95-4.4c0.41-0.14,0.68-0.53,0.68-0.96c0-0.21-0.01-0.59-4-11.2L72.69,62.09 M72.78,59.89L64.54,74.5 c0,0,4.09,10.86,4.1,11.29l-13,4.42c-3.64,1.62-1.84,7.13,3.79,7.13c0.31,0,0.63-0.02,0.96-0.05 c6.38-0.67,11.23-1.28,16.25-2.58c4.5-1.17,5.63-5.09,4.98-8.11C79.89,78.59,74.52,63.2,72.78,59.89L72.78,59.89z" fill="#91674D"/>
        </g>
        <g>
          <linearGradient id="SVGID_27_" gradientUnits="userSpaceOnUse" x1="59.5511" x2="48.7407" y1="68.5833" y2="120.0146">
            <stop offset="0" style="stop-color:#A47B62"/>
            <stop offset="1" style="stop-color:#BA8D68"/>
          </linearGradient>
          <path d="M45.8,123.56c-0.26,0-0.49-0.05-0.69-0.16c-0.83-0.44-1.03-1.64-1.11-2.75 c-0.17-2.16-0.3-4.37-0.4-6.58c-0.03-0.72-0.07-1.55,0.22-2.23c0.6-1.41,2.38-1.84,3.38-1.97c0.21-0.03,0.38-0.19,0.43-0.4 l3.22-15.87l1.48-24.32l10.56-8.47c0.89,4.43,1.76,9.11,2.06,13.52c-0.08,0.32-0.16,0.85-0.3,1.76 c-0.54,3.56-1.79,11.9-4.15,20.1c-2.21,7.7-8.37,19.14-8.43,19.26c-0.03,0.06-2.18,4.37-3.61,6.25 c-0.42,0.55-0.92,1.17-1.56,1.54C46.56,123.45,46.17,123.56,45.8,123.56L45.8,123.56z" fill="url(#SVGID_27_)"/>
          <path d="M62.56,61.72c0.82,4.16,1.61,8.51,1.89,12.61c-0.09,0.39-0.18,0.93-0.29,1.69 c-0.54,3.55-1.79,11.87-4.14,20.04c-2.2,7.65-8.33,19.05-8.4,19.19c-0.02,0.04-2.15,4.31-3.55,6.16 c-0.39,0.51-0.85,1.09-1.41,1.41c-0.27,0.16-0.59,0.25-0.86,0.25c-0.17,0-0.33-0.03-0.46-0.1c-0.62-0.33-0.78-1.43-0.85-2.35 c-0.17-2.18-0.3-4.38-0.4-6.57c-0.04-0.81-0.05-1.48,0.18-2.01c0.52-1.23,2.26-1.58,2.99-1.67c0.42-0.06,0.77-0.37,0.85-0.79 l3.22-15.87c0.01-0.05,0.02-0.09,0.02-0.14l1.46-24.03L62.56,61.72 M62.91,60.16l-11.06,8.87L50.36,93.5l-3.22,15.87 c-1.56,0.2-3.18,0.85-3.78,2.27c-0.32,0.76-0.3,1.62-0.26,2.45c0.1,2.2,0.23,4.4,0.4,6.6c0.09,1.2,0.32,2.59,1.38,3.16 c0.29,0.15,0.6,0.22,0.93,0.22c0.47,0,0.96-0.15,1.37-0.39c0.69-0.4,1.22-1.03,1.7-1.67c1.47-1.94,3.65-6.32,3.65-6.32 s6.21-11.51,8.47-19.36c3.12-10.86,4.32-21.95,4.47-21.95c0,0,0,0,0,0c-0.3-4.5-1.21-9.32-2.14-13.95L62.91,60.16L62.91,60.16z " fill="#91674D"/>
        </g>
        <g>
          <linearGradient id="SVGID_28_" gradientUnits="userSpaceOnUse" x1="44.6744" x2="28.4179" y1="49.138" y2="70.1259">
            <stop offset="0" style="stop-color:#A47B62"/>
            <stop offset="1" style="stop-color:#BA8D68"/>
          </linearGradient>
          <path d="M31.32,74.75c-0.38,0-0.79-0.05-1.19-0.15c-1.99-0.48-3.65-1.11-4.99-1.62 c-0.56-0.21-1.07-0.41-1.51-0.56c-0.48-0.16-0.71-0.67-0.64-1.05c0.08-0.51,0.63-0.58,0.95-0.58c0.28,0,0.61,0.05,0.98,0.16 c0.34,0.1,0.62,0.15,0.84,0.15c0.65,0,0.8-0.42,0.84-0.55c0.23-0.93-1.5-1.87-1.69-1.98c-0.32-0.17-0.72-0.25-1.22-0.25 c-0.75,0-1.61,0.19-2.45,0.37c-0.72,0.15-1.39,0.3-1.87,0.3c-0.33,0-0.42-0.07-0.43-0.08c-0.26-0.24-0.29-0.51-0.29-0.64 c0-0.17,0.06-0.29,0.1-0.32c0.98-0.87,3.35-1.76,5.62-1.76c0.12,0,0.23,0,0.35,0.01c0.85,0.04,2.03,0.68,3.18,1.3 c1.35,0.74,2.75,1.5,3.96,1.5c0.22,0,0.44-0.03,0.64-0.08c0.22-0.06,0.22-0.06,7.9-13.71l5.64-10.02l9.84,4.18 c-6.5,7.68-18.26,21.53-18.99,22.21C35.04,73.28,33.46,74.75,31.32,74.75z" fill="url(#SVGID_28_)"/>
          <path d="M46.25,45.81l8.8,3.74c-7.37,8.71-17.8,20.98-18.52,21.66c-1.75,1.63-3.27,3.03-5.21,3.03 c-0.35,0-0.71-0.04-1.08-0.13c-1.96-0.47-3.61-1.1-4.93-1.6c-0.57-0.22-1.07-0.41-1.53-0.56c-0.23-0.08-0.33-0.34-0.31-0.5 c0.02-0.15,0.33-0.17,0.46-0.17c0.24,0,0.52,0.05,0.84,0.14c0.39,0.11,0.71,0.17,0.98,0.17c0.8,0,1.21-0.48,1.32-0.93 c0.31-1.24-1.41-2.26-1.95-2.54c-0.39-0.21-0.87-0.31-1.45-0.31c-0.8,0-1.69,0.19-2.55,0.38c-0.66,0.14-1.34,0.29-1.77,0.29 c-0.07,0-0.11,0-0.14-0.01c-0.07-0.09-0.08-0.18-0.08-0.22c0.93-0.77,3.15-1.58,5.22-1.58c0.11,0,0.22,0,0.33,0.01 c0.73,0.03,1.86,0.65,2.96,1.25c1.41,0.77,2.87,1.56,4.2,1.56c0.27,0,0.52-0.03,0.76-0.09c0.41-0.11,0.41-0.11,1.3-1.68 l1.76-3.12l5.15-9.15L46.25,45.81 M19.14,68.23L19.14,68.23L19.14,68.23 M45.82,44.54c0,0-2.81,4.99-5.86,10.41 c-3.62,6.43-7.59,13.47-7.59,13.47c-0.16,0.04-0.33,0.06-0.51,0.06c-2.09,0-5.13-2.72-7.12-2.8c-0.12-0.01-0.25-0.01-0.37-0.01 c-2.33,0-4.86,0.92-5.95,1.89c-0.35,0.31-0.43,1.13,0.18,1.7c0.17,0.16,0.43,0.22,0.77,0.22c1.12,0,2.99-0.67,4.32-0.67 c0.38,0,0.72,0.05,0.98,0.19c1.22,0.64,1.92,1.58,1.09,1.58c-0.17,0-0.4-0.04-0.7-0.13c-0.43-0.13-0.8-0.18-1.12-0.18 c-1.98,0-1.76,2.18-0.47,2.61c1.5,0.5,3.69,1.51,6.54,2.19c0.46,0.11,0.89,0.16,1.31,0.16c2.34,0,4.06-1.6,5.9-3.3 c0.97-0.9,19.47-22.77,19.47-22.77L45.82,44.54L45.82,44.54z" fill="#91674D"/>
        </g>
        <g>
          <linearGradient id="SVGID_29_" gradientTransform="matrix(1 0 0 1 16.7435 0)" gradientUnits="userSpaceOnUse" x1="73.1083" x2="73.1083" y1="42.3276" y2="84.4962">
            <stop offset="0" style="stop-color:#A47B62"/>
            <stop offset="1" style="stop-color:#BA8D68"/>
          </linearGradient>
          <path d="M88.67,64.45c-1.26,0-2.52-0.66-3.2-1.69L75.2,50.75l8.28-4.27l5.62,9.36 c0.09,0.16,0.26,0.24,0.43,0.24c0.09,0,0.18-0.02,0.26-0.07l5.04-3.03c0.3-0.18,0.88-0.55,1.57-1c1.68-1.09,4.22-2.73,5.06-3.06 c0.12-0.05,0.25-0.09,0.38-0.12c0.14-0.03,0.29-0.05,0.45-0.05c0.54,0,1.07,0.2,1.45,0.55c0.08,0.08,0.16,0.15,0.23,0.23 c1.35,1.48-0.1,3.07-1.98,4.86l-0.36,0.34c-0.94,0.91-7.5,6.41-10.52,8.8c-0.2,0.15-0.42,0.29-0.67,0.4 c-0.04,0.02-0.07,0.04-0.1,0.06c-0.1,0.08-0.17,0.12-0.18,0.13C89.75,64.33,89.23,64.45,88.67,64.45 C88.67,64.45,88.67,64.45,88.67,64.45z" fill="url(#SVGID_29_)"/>
          <path d="M83.29,47.13l5.38,8.96c0.19,0.31,0.52,0.49,0.86,0.49c0.18,0,0.35-0.05,0.51-0.14l5.04-3.03 c0.31-0.18,0.88-0.56,1.58-1.01c1.56-1.01,4.18-2.7,4.98-3.02c0.12-0.05,0.22-0.08,0.31-0.1c0.11-0.02,0.22-0.04,0.34-0.04 c0.41,0,0.82,0.15,1.12,0.42c0.07,0.06,0.14,0.13,0.19,0.19c0.96,1.04,0.09,2.22-1.95,4.16l-0.36,0.34 c-0.94,0.9-7.46,6.38-10.47,8.76c-0.17,0.13-0.36,0.25-0.58,0.34c-0.07,0.03-0.14,0.07-0.2,0.12 c-0.04,0.04-0.08,0.06-0.11,0.08c-0.38,0.19-0.8,0.29-1.25,0.29c-1.1,0-2.19-0.57-2.79-1.46c-0.02-0.03-0.05-0.06-0.07-0.09 L75.99,50.9L83.29,47.13 M83.67,45.82l-9.25,4.78l10.65,12.45c0.8,1.19,2.22,1.91,3.62,1.91c0.61,0,1.22-0.14,1.77-0.43 c0,0,0.08-0.05,0.21-0.15c0.27-0.12,0.54-0.28,0.78-0.46c3.08-2.44,9.6-7.91,10.56-8.83c1.52-1.46,4.3-3.78,2.36-5.89 c-0.08-0.09-0.17-0.17-0.26-0.26c-0.49-0.44-1.14-0.68-1.79-0.68c-0.19,0-0.37,0.02-0.56,0.06c-0.16,0.03-0.31,0.08-0.46,0.14 c-1.25,0.48-5.64,3.46-6.71,4.1c-1.68,1.01-3.36,2.02-5.04,3.03L83.67,45.82L83.67,45.82z" fill="#91674D"/>
        </g>
        <g>
          <linearGradient id="SVGID_30_" gradientTransform="matrix(1 -8.621460e-03 8.621460e-03 1 1.6019 0.9093)" gradientUnits="userSpaceOnUse" x1="62.0019" x2="62.0019" y1="28.7826" y2="76.4201">
            <stop offset="0" style="stop-color:#2CD1C9"/>
            <stop offset="0.188" style="stop-color:#609CB7"/>
            <stop offset="0.3756" style="stop-color:#8C6FA9"/>
            <stop offset="0.5546" style="stop-color:#AE4C9D"/>
            <stop offset="0.7227" style="stop-color:#C73395"/>
            <stop offset="0.8757" style="stop-color:#D62490"/>
            <stop offset="1" style="stop-color:#DB1F8E"/>
          </linearGradient>
          <path d="M83.93,46.43c0,0-3.21-7.54-20.55-7.39c-17.34,0.15-19.32,7.74-19.32,7.74l7.64,6.98l0.14,15.76 L62.36,76c0.79,0.39,1.66,0.59,2.54,0.58c0.91-0.01,1.81-0.24,2.61-0.67l8.95-6.61l-0.14-15.76L83.93,46.43z" fill="url(#SVGID_30_)"/>
        </g>
        <g>
          <linearGradient id="SVGID_31_" gradientTransform="matrix(1 -8.621460e-03 8.621460e-03 1 1.6019 0.9093)" gradientUnits="userSpaceOnUse" x1="62.0019" x2="62.0019" y1="28.7834" y2="76.4154">
            <stop offset="0" style="stop-color:#2CD1C9"/>
            <stop offset="0.188" style="stop-color:#609CB7"/>
            <stop offset="0.3756" style="stop-color:#8C6FA9"/>
            <stop offset="0.5546" style="stop-color:#AE4C9D"/>
            <stop offset="0.7227" style="stop-color:#C73395"/>
            <stop offset="0.8757" style="stop-color:#D62490"/>
            <stop offset="1" style="stop-color:#DB1F8E"/>
          </linearGradient>
          <path d="M83.93,46.43c0,0-3.21-7.54-20.55-7.39c-17.34,0.15-19.32,7.74-19.32,7.74l7.58,6.92l24.78-0.21 L83.93,46.43z" fill="url(#SVGID_31_)"/>
        </g>
        <g>
          <defs>
            <path id="SVGID_32_" d="M82.91,46.44c0,0-2.69-7.48-20.03-7.33c-17.34,0.15-17.79,7.66-17.79,7.66l6.55,6.93l24.78-0.21 L82.91,46.44z"/>
          </defs>
          <clipPath id="SVGID_33_">
            <use overflow="visible" xlink:href="#SVGID_32_"/>
          </clipPath>
          <g clip-path="url(#SVGID_33_)">
            <linearGradient id="SVGID_34_" gradientTransform="matrix(1 -8.621460e-03 8.621460e-03 1 1.6019 0.9093)" gradientUnits="userSpaceOnUse" x1="61.9902" x2="61.9902" y1="37.2914" y2="50.6434">
              <stop offset="0" style="stop-color:#A47B62"/>
              <stop offset="1" style="stop-color:#BA8D68"/>
            </linearGradient>
            <path d="M63.86,47.87c-6.92,0-10.64-4.3-10.67-7.41c-0.03-3.23,4.77-5.89,10.69-5.94l0.17,0 c5.83,0,10.59,2.58,10.62,5.76c0.03,3.07-3.76,7.54-10.68,7.6L63.86,47.87z" fill="url(#SVGID_34_)"/>
            <path d="M64.06,35.02L64.06,35.02c5.46,0,10.1,2.41,10.12,5.26c0.01,1.52-0.94,3.23-2.55,4.56 c-1.94,1.6-4.65,2.5-7.63,2.53l-0.14,0c-6.51,0-10.14-4.09-10.17-6.91c-0.02-2.9,4.64-5.39,10.2-5.44L64.06,35.02 M64.05,34.02c-0.06,0-0.12,0-0.18,0c-6.21,0.05-11.22,2.94-11.19,6.45c0.03,3.48,4.16,7.91,11.17,7.91c0.05,0,0.1,0,0.14,0 c7.09-0.06,11.2-4.59,11.17-8.1C75.15,36.8,70.18,34.02,64.05,34.02L64.05,34.02z" fill="#91674D"/>
          </g>
        </g>
        <path d="M63.65,40.11c13.6,0,17.92,4.52,19.02,6.12l-7.09,6.63c-0.21,0.19-0.32,0.47-0.32,0.75l0.32,15.37 l-8.54,6.19c-0.66,0.33-1.39,0.51-2.13,0.51c-0.71,0-1.42-0.16-2.06-0.48l-10.12-6.24V53.73c0-0.28-0.12-0.55-0.32-0.74 l-7.13-6.56C46.18,44.83,49.99,40.11,63.65,40.11 M63.65,39.11c-17.52,0-19.57,7.57-19.57,7.57l7.66,7.04V69.5l10.62,6.57 c0.79,0.4,1.67,0.61,2.56,0.61c0.92,0,1.83-0.22,2.64-0.65l9.04-6.53l-0.33-15.91l7.67-7.17 C83.93,46.42,81.16,39.11,63.65,39.11L63.65,39.11z" fill="#983BA1"/>
        <g id="XMLID_52_">
          <g id="XMLID_62_">
            <path d="M63.61,43.71c-1.9,0-3.45-1.47-3.45-3.28v-4.11h7.69v4.11c0,1.81-1.55,3.28-3.45,3.28H63.61z" fill="#99674F"/>
            <path d="M67.34,36.82v3.61c0,1.53-1.32,2.78-2.95,2.78h-0.79c-1.63,0-2.95-1.25-2.95-2.78v-3.61H64H67.34 M68.34,35.82H64h-4.34v4.61c0,2.09,1.77,3.78,3.95,3.78h0.79c2.18,0,3.95-1.69,3.95-3.78V35.82L68.34,35.82z" fill="#875740"/>
          </g>
        </g>
        <g>
          <g>
            <g>
              <path d="M53.42,29.85c-0.96-0.02-1.85-0.44-2.52-1.18c-0.68-0.75-1.04-1.74-1.02-2.78 c0.04-2.1,1.67-3.81,3.63-3.81l21.07,0.44c0.96,0.02,1.85,0.44,2.52,1.18c0.68,0.75,1.04,1.74,1.02,2.78 c-0.04,2.1-1.67,3.81-3.63,3.81L53.42,29.85z" fill="#99674F"/>
              <path d="M53.51,22.58l0.06,0l2.83,0.06l15.34,0.32l2.83,0.06c0.82,0.02,1.58,0.38,2.16,1.02 c0.59,0.66,0.91,1.52,0.89,2.43c-0.04,1.83-1.44,3.32-3.13,3.32l-0.06,0l-2.83-0.06l-15.34-0.32l-2.83-0.06 c-0.82-0.02-1.58-0.38-2.16-1.02c-0.59-0.66-0.91-1.52-0.89-2.43C50.42,24.07,51.82,22.58,53.51,22.58 M53.51,21.58 c-2.23,0-4.08,1.92-4.13,4.3c-0.05,2.41,1.76,4.42,4.03,4.47l2.83,0.06l15.34,0.32l2.83,0.06c0.03,0,0.05,0,0.08,0 c2.23,0,4.08-1.92,4.13-4.3c0.05-2.41-1.76-4.42-4.03-4.47l-2.83-0.06l-15.34-0.32l-2.83-0.06 C53.56,21.58,53.54,21.58,53.51,21.58L53.51,21.58z" fill="#875740"/>
            </g>
            <g>
              <linearGradient id="SVGID_35_" gradientTransform="matrix(-0.9996 -0.029 -0.029 0.9996 452.8428 5.224)" gradientUnits="userSpaceOnUse" x1="387.9285" x2="387.9285" y1="44.0893" y2="16.1297">
                <stop offset="0" style="stop-color:#A47B62"/>
                <stop offset="0.1914" style="stop-color:#AD8264"/>
                <stop offset="0.5512" style="stop-color:#B78A67"/>
                <stop offset="1" style="stop-color:#BA8D68"/>
              </linearGradient>
              <path d="M63.79,38.24c-0.83-0.02-1.76-0.23-2.7-0.59c-4.09-1.57-8.78-6.2-8.55-14.05 c0.3-10.2,6.5-13.82,11.73-13.82c0.12,0,0.23,0,0.35,0c3.15,0.09,5.99,1.39,7.99,3.67c2.27,2.58,3.4,6.33,3.27,10.83 c-0.23,7.84-5.17,12.19-9.33,13.53c-0.9,0.29-1.79,0.44-2.57,0.44L63.79,38.24z" fill="url(#SVGID_35_)"/>
              <path d="M64.27,10.28L64.27,10.28c0.11,0,0.23,0,0.34,0c5.15,0.15,11.06,3.9,10.77,13.98 c-0.22,7.58-4.98,11.78-8.99,13.06c-0.85,0.27-1.69,0.42-2.42,0.42l-0.16,0c-0.77-0.02-1.65-0.22-2.54-0.56 c-3.93-1.51-8.45-5.98-8.23-13.57C53.22,17.46,56.27,10.28,64.27,10.28 M64.27,9.28c-6.18,0-11.94,4.54-12.22,14.31 c-0.23,8.01,4.6,12.89,8.87,14.53c1.01,0.39,1.99,0.6,2.87,0.62c0.06,0,0.13,0,0.19,0c0.83,0,1.76-0.16,2.73-0.47 c4.36-1.4,9.45-5.99,9.68-13.99c0.29-9.96-5.42-14.83-11.74-15.01h0h0C64.51,9.28,64.39,9.28,64.27,9.28L64.27,9.28z" fill="#91674D"/>
            </g>
            <g>
              <path d="M62.68,28.34c0.04-0.01,0.08-0.02,0.12-0.03l2.57,0.07c0.04,0.01,0.08,0.02,0.12,0.03 c0.23,0.1,0.35,0.35,0.23,0.6c-0.12,0.25-0.65,0.96-1.68,0.93c-1.03-0.03-1.52-0.77-1.62-1.02 C62.31,28.67,62.44,28.43,62.68,28.34z" fill="#99674F"/>
              <g>
                <ellipse cx="70.14" cy="25.18" fill="#49362E" rx="1.85" ry="1.79" transform="matrix(0.029 -0.9996 0.9996 0.029 42.9352 94.565)"/>
                <ellipse cx="58.21" cy="24.84" fill="#49362E" rx="1.85" ry="1.79" transform="matrix(0.029 -0.9996 0.9996 0.029 31.6959 82.3017)"/>
                <path d="M67.58,21.78c0.35-0.44,1.16-1.07,2.69-1.03s2.3,0.72,2.62,1.18c0.14,0.2,0.1,0.43-0.01,0.57 c-0.1,0.13-0.39,0.24-0.7,0.12c-0.31-0.12-0.92-0.45-1.95-0.49c-1.03-0.02-1.66,0.28-1.98,0.38 c-0.32,0.1-0.6-0.03-0.69-0.16C67.46,22.21,67.43,21.98,67.58,21.78z" fill="#6D4C41"/>
                <path d="M55.65,21.43c0.35-0.44,1.16-1.07,2.69-1.03s2.3,0.72,2.62,1.18c0.14,0.2,0.1,0.43-0.01,0.57 c-0.1,0.13-0.39,0.24-0.7,0.12c-0.31-0.12-0.92-0.45-1.95-0.49c-1.03-0.02-1.66,0.28-1.98,0.38 c-0.32,0.1-0.6-0.03-0.69-0.16C55.53,21.86,55.5,21.63,55.65,21.43z" fill="#6D4C41"/>
              </g>
              <path d="M60.94,31.26c1.14,0.72,4.92,0.83,6.1,0.18c0.67-0.38,1.34,0.25,1.04,0.84 c-0.29,0.58-2.4,1.9-4.18,1.85s-3.79-1.49-4.04-2.09C59.6,31.43,60.29,30.85,60.94,31.26z" fill="#5D4037"/>
            </g>
          </g>
          <g>
            <radialGradient id="SVGID_36_" cx="65.1218" cy="6.31" gradientUnits="userSpaceOnUse" r="14.1526">
              <stop offset="5.102041e-03" style="stop-color:#D553E0"/>
              <stop offset="1" style="stop-color:#B346BD"/>
            </radialGradient>
            <path d="M49.87,23.57c-1.57-5.76-0.53-12.39,4.27-16.36c2.95-2.44,6.78-3.35,10.55-3.27 c5.17,0.12,10.27,2.03,12.71,6.86c1.52,3.02,1.67,6.85,1.22,10.12c-0.94,6.76-4.06,10.58-4.06,10.58s0.47-4.91,0.57-7.49 c0.05-1.32-0.05-4.98-1.62-5.33c-8.21-1.85-12.84-6.13-12.84-6.13c-0.7,1.47-1.89,2.61-3.16,3.59 c-0.64,0.5-1.3,0.96-1.95,1.44c-0.5,0.37-1.39,0.77-1.62,1.36c-1.88,4.65-0.1,12.74-0.1,12.74S51.1,28.08,49.87,23.57z" fill="url(#SVGID_36_)"/>
          </g>
          <path d="M77.4,10.8c-2.44-4.83-7.54-6.74-12.71-6.86c-0.16,0-0.32-0.01-0.48-0.01c-3.62,0-7.25,0.94-10.08,3.27 c-4.81,3.97-5.85,10.6-4.27,16.36c1.23,4.51,3.96,8.1,3.96,8.1s-0.25-1.06-0.43-2.54c0,0-0.84-1.37-1.25-2.29 s-0.97-2.26-1.32-3.53c-1.98-7.26,0.74-12.68,3.95-15.33c3.05-2.52,6.82-3.04,9.44-3.04c0.15,0,0.3,0,0.45,0.01 c3.27,0.07,9.15,0.99,11.84,6.31c1.67,3.31,1.42,7.39,1.13,9.53c-0.35,2.49-1.07,4.83-1.68,6.18s-1.19,2.17-1.19,2.17 c-0.17,2.21-0.2,2.36-0.2,2.36s3.13-3.82,4.06-10.58C79.07,17.66,78.92,13.82,77.4,10.8z" fill="#983BA1"/>
        </g>
        <g>
          <g>
            <path d="M110.46,21.27l-0.09-0.03l-9.15,40.97 c-0.06,0.26,0.1,0.52,0.36,0.58s0.52-0.1,0.58-0.36c0,0,0-0.01,0-0.01L110.46,21.27z" fill="#6D4C41" stroke="#6D4C41" stroke-miterlimit="10"/>
            <g>
              <path d="M110.08,23.75c-0.09-0.07-0.2-0.1-0.3-0.1c-0.05,0-0.1,0.01-0.16,0.02l-3.08,1l1.08-3.05 c0.05-0.16,0.03-0.33-0.07-0.46l-1.91-2.62c0,0,3.24,0.08,3.25,0.08c0.16,0,0.31-0.08,0.41-0.21l1.9-2.62l0.92,3.1 c0.05,0.16,0.17,0.28,0.33,0.33l3.08,1l-2.66,1.84c-0.13,0.09-0.22,0.25-0.22,0.41l0,3.24L110.08,23.75z" fill="#FFD600"/>
              <path d="M111.01,16.91l0.64,2.13c0.09,0.32,0.34,0.56,0.65,0.67l2.12,0.68l-1.83,1.26 c-0.27,0.19-0.43,0.5-0.43,0.82l0,2.22l-1.77-1.35c-0.18-0.14-0.39-0.21-0.61-0.21c-0.1,0-0.21,0.02-0.31,0.05l-2.11,0.69 l0.74-2.1c0.11-0.31,0.06-0.65-0.13-0.92l-1.31-1.8l2.22,0.05c0.01,0,0.02,0,0.02,0c0.32,0,0.62-0.15,0.81-0.41L111.01,16.91 M111.39,14.69l-2.49,3.44l-4.25-0.1l2.5,3.44l-1.41,4.01l4.04-1.32l3.38,2.58l0-4.25l3.5-2.41l-4.04-1.31L111.39,14.69 L111.39,14.69z" fill="#E6A900"/>
            </g>
          </g>
          <g>
            <path d="M103.61,53.84c-1.88,0-3.38-1.09-4.03-2.9c-0.68-1.92-0.15-3.29,0.42-4.09 c0.93-1.33,2.54-2.02,3.65-2.02c0.4,0,0.73,0.09,0.93,0.26c0.94,0.79,3.65,6.49,3.41,7.52l-2.55,0.91 C104.82,53.73,104.21,53.84,103.61,53.84z" fill="#BA8D68"/>
            <path d="M103.65,45.33L103.65,45.33c0.32,0,0.52,0.07,0.6,0.14c0.96,0.85,2.99,5.42,3.22,6.8l-2.2,0.79 c-0.55,0.2-1.11,0.3-1.65,0.3c-1.68,0-2.98-0.94-3.56-2.57c-0.49-1.38-0.37-2.6,0.36-3.64 C101.24,45.95,102.67,45.33,103.65,45.33 M103.65,44.33c-2.31,0-6.06,2.51-4.54,6.78c0.77,2.16,2.54,3.24,4.5,3.24 c0.65,0,1.32-0.12,1.98-0.35l2.64-0.94c1.19-0.42-2.32-7.48-3.34-8.34C104.6,44.45,104.16,44.32,103.65,44.33L103.65,44.33z" fill="#91674D"/>
          </g>
          <linearGradient id="SVGID_37_" gradientUnits="userSpaceOnUse" x1="106.2885" x2="109.3823" y1="52.0668" y2="51.1606">
            <stop offset="0" style="stop-color:#A47B62"/>
            <stop offset="1" style="stop-color:#BA8D68"/>
          </linearGradient>
          <path d=" M105.18,52.35L105.18,52.35c0.18,0.65,0.84,1.03,1.49,0.85l1.65-0.45c0.65-0.18,1.03-0.84,0.85-1.49l0,0 c-0.18-0.65-0.84-1.03-1.49-0.85l-1.65,0.45C105.38,51.04,105,51.71,105.18,52.35z" fill="url(#SVGID_37_)" stroke="#91674D" stroke-linecap="round" stroke-linejoin="round" stroke-miterlimit="10"/>
          <linearGradient id="SVGID_38_" gradientUnits="userSpaceOnUse" x1="105.4048" x2="107.5611" y1="45.504" y2="44.8165">
            <stop offset="0" style="stop-color:#A47B62"/>
            <stop offset="1" style="stop-color:#BA8D68"/>
          </linearGradient>
          <path d=" M103.49,46.22l0.08,0.2c0.23,0.55,0.84,0.82,1.36,0.61l2.54-1.06c0.52-0.22,0.75-0.84,0.52-1.39l-0.08-0.2 c-0.23-0.55-0.84-0.82-1.36-0.61l-2.54,1.06C103.45,45.34,103.25,45.73,103.49,46.22z" fill="url(#SVGID_38_)" stroke="#91674D" stroke-linecap="round" stroke-linejoin="round" stroke-miterlimit="10"/>
          <linearGradient id="SVGID_39_" gradientUnits="userSpaceOnUse" x1="106.1678" x2="108.9803" y1="50.1111" y2="49.0799">
            <stop offset="0" style="stop-color:#A47B62"/>
            <stop offset="1" style="stop-color:#BA8D68"/>
          </linearGradient>
          <path d=" M104.83,50.45L104.83,50.45c0.2,0.67,0.91,1.05,1.58,0.85l2.23-0.67c0.67-0.2,1.05-0.91,0.85-1.58l0,0 c-0.2-0.67-0.91-1.05-1.58-0.85l-2.23,0.67C105.01,49.07,104.63,49.78,104.83,50.45z" fill="url(#SVGID_39_)" stroke="#91674D" stroke-linecap="round" stroke-linejoin="round" stroke-miterlimit="10"/>
          <path d="M104.55,50.74c0.22-0.05,0.38-0.12,0.56-0.26l-0.78,3.89c-0.62,0.02-1.24,0.04-1.85,0.06l0.93-4.17 C103.71,50.53,104.07,50.85,104.55,50.74z" fill="#6D4C41"/>
          <linearGradient id="SVGID_40_" gradientUnits="userSpaceOnUse" x1="105.805" x2="108.4612" y1="47.8442" y2="46.8442">
            <stop offset="0" style="stop-color:#A47B62"/>
            <stop offset="1" style="stop-color:#BA8D68"/>
          </linearGradient>
          <path d=" M104.01,48.47L104.01,48.47c0.23,0.64,0.94,0.98,1.58,0.75l2.66-0.95c0.64-0.23,0.98-0.94,0.75-1.58v0 c-0.23-0.64-0.94-0.98-1.58-0.75l-2.66,0.95C104.12,47.12,103.78,47.82,104.01,48.47z" fill="url(#SVGID_40_)" stroke="#91674D" stroke-linecap="round" stroke-linejoin="round" stroke-miterlimit="10"/>
          <g>
            <path d="M101.02,46.39c0.37-0.64,1.4-1.22,2.24-1.09c0.83,0.12,1,0.7,1.16,0.86c0.06,0.06,0.89,2.47,1.06,2.76 c0.39,0.7-0.27,1.22-0.79,1.29c-0.51,0.07-1.08-0.26-1.29-0.73c-0.74-1.66-1.44-1.4-1.99-1.37c-0.35,0.02-0.63-0.13-0.85-0.33 C100.74,47.53,100.91,46.58,101.02,46.39z" fill="#BA8D68"/>
            <path d="M101.37,47.56l0.14-0.01c0.75-0.08,1.62-0.01,2.39,1.71c0.11,0.25,0.45,0.44,0.71,0.41 c0.16-0.02,0.34-0.14,0.4-0.25c0.02-0.03,0.52-0.29-0.07-1.52c-0.22-0.47-1.32-2.55-1.25-2.59c0.02-0.17,0.44-0.42,0.98,0.64 c0.06,0.12,0.1,0.1,0.66,1.35c0.27,0.59,0.54,1.22,0.62,1.36c0,0,0,0,0,0c0.23,0.41,0.25,0.86,0.05,1.25 c-0.22,0.43-0.65,0.7-1.04,0.81c-0.07,0.02-0.15,0.04-0.22,0.05c-0.75,0.1-1.5-0.15-1.87-1.05c-0.48-1.15-0.84-1.1-1.26-1.06 l-0.19,0.02c-0.55,0.04-0.97-0.2-1.28-0.49C100.25,48.14,101.15,47.58,101.37,47.56z" fill="#91674D"/>
          </g>
        </g>
      </g>
    </g>
  </g>
</svg>