<svg viewBox="0 0 128 128" xmlns="http://www.w3.org/2000/svg" xmlns:xlink="http://www.w3.org/1999/xlink">
  <symbol id="Grid" viewBox="-64.5 -64.5 129 129"/>
  <g id="Layer_1">
    <linearGradient id="SVGID_1_" gradientTransform="matrix(1 0 0 -1 0 130)" gradientUnits="userSpaceOnUse" x1="64" x2="64" y1="110.283" y2="22.3">
      <stop offset="0.5664" style="stop-color:#F6A323"/>
      <stop offset="0.9168" style="stop-color:#FEE133"/>
    </linearGradient>
    <path d="M64,119.89C36.07,119.89,6,102.4,6,64S36.07,8.11,64,8.11c15.48,0,29.81,5.12,40.36,14.43 C115.9,32.72,122,47.06,122,64c0,16.86-6.1,31.17-17.64,41.39C93.78,114.74,79.45,119.89,64,119.89z" fill="url(#SVGID_1_)"/>
    <path d="M64,10.11c14.99,0,28.86,4.95,39.03,13.93C114.13,33.83,120,47.65,120,64c0,16.27-5.87,30.07-16.97,39.89 c-10.21,9.03-24.07,14-39.03,14c-15.04,0-28.9-4.91-39.04-13.82C13.86,94.32,8,80.46,8,64c0-16.54,5.86-30.42,16.96-40.15 C35.07,14.99,48.93,10.11,64,10.11 M64,6.11c-31.15,0-60,20-60,57.89c0,37.68,28.85,57.89,60,57.89s60-20.73,60-57.89 C124,26.63,95.15,6.11,64,6.11z" fill="#EB8F00"/>
    <g id="XMLID_2_">
      <defs>
        <path id="XMLID_13_" d="M64,68.82c-16.95,0-35.33,14.17-35.33,31.67c0,4.89,5.61,7.73,10.62,5.75 c6.19-2.46,15.32-4.92,24.71-4.92s18.52,2.47,24.71,4.92c5.01,1.99,10.62-0.86,10.62-5.75C99.33,83,79.66,68.82,64,68.82z"/>
      </defs>
      <use fill="#EB8F00" overflow="visible" xlink:href="#XMLID_13_"/>
      <clipPath id="XMLID_10_">
        <use overflow="visible" xlink:href="#XMLID_13_"/>
      </clipPath>
      <path id="XMLID_69_" clip-path="url(#XMLID_10_)" d="M64,68.82c-16.95,0-35.33,14.17-35.33,31.67 c0,4.89,5.61,7.73,10.62,5.75c6.19-2.46,15.32-4.92,24.71-4.92s18.52,2.47,24.71,4.92c5.01,1.99,10.62-0.86,10.62-5.75 C99.33,83,79.66,68.82,64,68.82z" fill="#242424"/>
      <path id="XMLID_17_" clip-path="url(#XMLID_10_)" d="M64,81.02c12.42,0,23.94,1.61,33.04,4.56V56.96H30.96v28.61 C40.06,82.63,51.58,81.02,64,81.02z" fill="#FFFFFF"/>
      <g id="XMLID_3_" clip-path="url(#XMLID_10_)">
        <defs>
          <path id="XMLID_14_" d="M64,81.02c12.42,0,23.94,1.61,33.04,4.56V56.96H30.96v28.61C40.06,82.63,51.58,81.02,64,81.02z"/>
        </defs>
        <clipPath id="XMLID_18_">
          <use overflow="visible" xlink:href="#XMLID_14_"/>
        </clipPath>
        <g id="XMLID_4_" clip-path="url(#XMLID_18_)">
          <path id="XMLID_5_" d="M64,72.79c6.43,0,14.15,3.11,20.15,8.1c6.71,5.59,10.4,12.55,10.4,19.6 c0,1.66-1.31,2.42-2.52,2.42c-0.41,0-0.83-0.08-1.25-0.25c-4.02-1.6-14.69-5.31-26.78-5.31s-22.75,3.71-26.78,5.31 c-0.42,0.17-0.84,0.25-1.25,0.25c-1.21,0-2.52-0.76-2.52-2.42C33.45,84.89,49.87,72.79,64,72.79 M64,68.82 c-16.95,0-35.33,14.17-35.33,31.67c0,3.82,3.42,6.39,7.3,6.39c1.09,0,2.22-0.2,3.32-0.64c6.19-2.46,15.32-4.92,24.71-4.92 s18.52,2.47,24.71,4.92c1.1,0.44,2.23,0.64,3.32,0.64c3.88,0,7.3-2.57,7.3-6.39C99.33,83,79.66,68.82,64,68.82L64,68.82z" fill="#EB8F00"/>
        </g>
      </g>
    </g>
    <ellipse cx="110.1" cy="112.62" fill="#368231" rx="2.65" ry="1.56" transform="matrix(0.9891 -0.1473 0.1473 0.9891 -15.3906 17.4496)"/>
    <ellipse cx="22.12" cy="110.88" fill="#368231" rx="2.16" ry="3.67" transform="matrix(0.2971 -0.9548 0.9548 0.2971 -90.3165 99.056)"/>
    <linearGradient id="SVGID_3_" gradientUnits="userSpaceOnUse" x1="64.9807" x2="64.9807" y1="85.3333" y2="125.3351">
      <stop offset="0" style="stop-color:#469643"/>
      <stop offset="0.0203" style="stop-color:#489743"/>
      <stop offset="0.4427" style="stop-color:#6DB141"/>
      <stop offset="0.7841" style="stop-color:#84C03F"/>
      <stop offset="1" style="stop-color:#8CC63F"/>
    </linearGradient>
    <path d="M96.7,119.17c4.87-1.47,6.65-3.17,6.42-4.39c-0.3-1.58-7.12-1.82-15.12-0.68V87.5 c0,0-8.11-2.42-24.5-2.42C45.31,85.08,39,87.5,39,87.5v23.86c-5-0.29-8.79,0.33-8.97,1.68c-0.14,1.07,3.03,2.36,6.92,3.46 c-7.59,0.78-12.14,2-12.14,3.37c0,2.35,14.45,4.25,32.05,4.25c7.87,0,15.16-0.38,20.72-1.01c2.91,0.47,7.02,0.76,11.53,0.76 c8.84,0,16.02-1.12,16.02-2.5C105.14,120.42,101.73,119.59,96.7,119.17z" fill="url(#SVGID_3_)"/>
    <ellipse cx="58.25" cy="110.54" fill="#368231" rx="2.42" ry="4.71"/>
    <ellipse cx="62.75" cy="93.92" fill="#368231" rx="2.25" ry="4.08"/>
    <ellipse cx="76.38" cy="103.83" fill="#368231" rx="3.96" ry="7.25"/>
    <ellipse cx="48.21" cy="98.31" fill="#368231" rx="1.88" ry="3.27"/>
    <path d="M102.34,118.42c2.3-1.43,2.71-2.84,2.5-3.91c-0.28-1.48-2.62-3.65-14.84-2.12L90.02,88l-2.72-0.67 L87,115.83l1.71-0.24c7.22-1.03,11.38-0.73,12.86-0.33c-0.6,0.55-2.12,1.5-5.32,2.47l-7.53,2.28l7.84,0.65 c2.38,0.2,4.07,0.46,5.22,0.71c-2.38,0.5-6.65,1-12.66,1c-4.25,0-8.36-0.27-11.29-0.74l-0.2-0.03l-0.21,0.02 c-5.7,0.65-13,1-20.54,1c-15.84,0-26.59-1.47-29.8-2.75c1.37-0.54,4.42-1.29,10.14-1.88l7.79-0.8l-7.53-2.14 c-2.58-0.73-4.14-1.37-5-1.81c1.17-0.31,3.44-0.59,6.92-0.39l1.59,0.09l0.09-26.04L38,87.69v22.11c-4.32-0.11-8.86,0.42-9.21,3.05 c-0.13,1,0.28,1.95,2.13,2.97c-6.5,1.15-7.55,2.62-7.55,4.06c0,1.84,1.82,3.31,10.71,4.49c6.12,0.81,14.22,1.26,22.81,1.26 c7.56,0,14.89-0.35,20.67-1c3.1,0.48,7.19,0.75,11.56,0.75c14.48,0,17.52-2.17,17.52-4C106.65,120.29,106.02,119.2,102.34,118.42z" fill="#368231"/>
    <path d="M103.91,122h0.01H103.91z" fill="#368231"/>
    <path d="M33.19,56.55l12.17-2.36l-12.55-5.21c-0.14-0.07-0.28-0.15-0.42-0.23c-2.61-1.6-3.06-4.89-0.72-6.93 c1.81-1.58,4.76-1.6,6.88-0.3c4.98,3.05,16.7,10.24,21.27,13.04c0.82,0.5,0.7,1.58-0.22,1.93l-22.91,8.6 c-0.15,0.06-0.32,0.11-0.48,0.16c-3.03,0.84-6.32-0.89-6.79-3.78C29.07,59.27,30.77,57.22,33.19,56.55z" fill="#242424"/>
    <path d="M95.81,56.3l-12.17-2.36l12.55-5.21c0.14-0.07,0.28-0.15,0.42-0.23c2.61-1.6,3.06-4.89,0.72-6.93 c-1.81-1.58-4.76-1.6-6.88-0.3c-4.98,3.05-16.7,10.24-21.27,13.04c-0.82,0.5-0.7,1.58,0.22,1.93l22.91,8.6 c0.15,0.06,0.32,0.11,0.48,0.16c3.03,0.84,6.32-0.89,6.79-3.78C99.93,59.02,98.23,56.97,95.81,56.3z" fill="#242424"/>
    <g>
      <g id="XMLID_6_">
        <path id="XMLID_12_" d="M52.21,22.9c0,0-0.01,0.32-0.05,0.88 c-0.02,0.15-0.02,0.28-0.05,0.47c-0.04,0.2-0.1,0.42-0.16,0.66c-0.06,0.24-0.13,0.49-0.2,0.76c-0.08,0.25-0.18,0.49-0.28,0.75 c-0.18,0.53-0.44,1.08-0.76,1.64c-0.29,0.57-0.68,1.13-1.09,1.7c-0.44,0.54-0.87,1.13-1.41,1.62c-0.51,0.53-1.1,0.99-1.67,1.46 c-0.62,0.41-1.23,0.84-1.88,1.18c-0.63,0.38-1.31,0.62-1.95,0.89c-0.66,0.23-1.3,0.44-1.94,0.56c-0.63,0.14-1.22,0.23-1.79,0.26 c-0.55,0.06-1.07,0.05-1.52,0.02c-0.45-0.01-0.84-0.05-1.17-0.12c-0.64-0.11-1-0.2-1-0.2c-1.08-0.27-1.75-1.36-1.48-2.45 c0.18-0.71,0.7-1.24,1.35-1.44l0.34-0.11c0,0,0.27-0.09,0.72-0.19c0.23-0.04,0.5-0.13,0.8-0.22c0.31-0.08,0.65-0.19,1.01-0.33 c0.37-0.11,0.75-0.29,1.16-0.45c0.41-0.15,0.81-0.4,1.24-0.59c0.42-0.23,0.85-0.47,1.27-0.74c0.44-0.24,0.84-0.56,1.25-0.85 c0.39-0.32,0.82-0.61,1.17-0.96c0.38-0.33,0.73-0.67,1.07-1.01c0.3-0.36,0.65-0.68,0.92-1.03c0.27-0.34,0.55-0.66,0.76-0.98 c0.24-0.32,0.43-0.59,0.58-0.82c0.08-0.12,0.16-0.23,0.24-0.33c0.08-0.11,0.15-0.28,0.21-0.39c0.26-0.49,0.43-0.77,0.43-0.77 c0.59-0.98,1.87-1.29,2.84-0.7C51.87,21.48,52.23,22.19,52.21,22.9z" fill="#6D4C41" stroke="#6D4C41" stroke-miterlimit="10"/>
      </g>
      <g id="XMLID_7_">
        <path id="XMLID_11_" d="M79.63,21.78c0,0,0.17,0.28,0.43,0.77 c0.06,0.12,0.13,0.28,0.21,0.39c0.08,0.1,0.16,0.21,0.24,0.33c0.15,0.23,0.34,0.49,0.58,0.82c0.21,0.32,0.49,0.63,0.76,0.98 c0.26,0.35,0.62,0.66,0.92,1.03c0.34,0.34,0.69,0.68,1.07,1.01c0.35,0.35,0.78,0.64,1.17,0.96c0.42,0.29,0.81,0.61,1.25,0.85 c0.42,0.27,0.85,0.51,1.27,0.74c0.43,0.18,0.84,0.43,1.24,0.59c0.41,0.16,0.79,0.34,1.16,0.45c0.36,0.14,0.7,0.25,1.01,0.33 c0.31,0.09,0.58,0.19,0.8,0.22c0.45,0.11,0.72,0.19,0.72,0.19l0.33,0.11c1.07,0.33,1.66,1.47,1.32,2.54 c-0.22,0.7-0.78,1.19-1.44,1.36c0,0-0.35,0.09-1,0.2c-0.32,0.07-0.71,0.11-1.17,0.12c-0.46,0.03-0.97,0.04-1.52-0.02 c-0.56-0.02-1.16-0.12-1.79-0.26c-0.63-0.12-1.28-0.33-1.94-0.56c-0.64-0.27-1.33-0.51-1.95-0.89c-0.65-0.34-1.26-0.77-1.88-1.18 c-0.57-0.48-1.16-0.93-1.67-1.46c-0.54-0.49-0.97-1.08-1.41-1.62c-0.41-0.57-0.79-1.12-1.09-1.7c-0.31-0.56-0.57-1.11-0.76-1.64 c-0.1-0.26-0.2-0.5-0.28-0.75c-0.07-0.27-0.14-0.52-0.2-0.76c-0.06-0.24-0.12-0.46-0.16-0.66c-0.04-0.2-0.04-0.33-0.05-0.47 c-0.05-0.56-0.05-0.88-0.05-0.88c-0.03-1.14,0.87-2.09,2.02-2.12C78.57,20.76,79.26,21.16,79.63,21.78z" fill="#6D4C41" stroke="#6D4C41" stroke-miterlimit="10"/>
      </g>
    </g>
  </g>
</svg>