<svg viewBox="0 0 128 128" xmlns="http://www.w3.org/2000/svg" xmlns:xlink="http://www.w3.org/1999/xlink">
  <g>
    <linearGradient id="SVGID_1_" gradientTransform="matrix(1 0 0 1 0 -4121.9702)" gradientUnits="userSpaceOnUse" x1="29.175" x2="98.825" y1="4151.145" y2="4220.7949">
      <stop offset="0" style="stop-color:#757575"/>
      <stop offset="0.21" style="stop-color:#6C6C6C"/>
      <stop offset="0.5583" style="stop-color:#525252"/>
      <stop offset="0.7436" style="stop-color:#424242"/>
      <stop offset="1" style="stop-color:#424242"/>
    </linearGradient>
    <path d="M120,52H8c-2.2,0-4,1.8-4,4v16c0,2.2,1.8,4,4,4h112c2.2,0,4-1.8,4-4V56C124,53.8,122.2,52,120,52z" fill="url(#SVGID_1_)"/>
    <g opacity="0.2">
      <path d="M120,55c0.6,0,1,0.5,1,1v16c0,0.6-0.4,1-1,1H8c-0.6,0-1-0.4-1-1V56c0-0.5,0.4-1,1-1H120 M120,52H8 c-2.2,0-4,1.8-4,4v16c0,2.2,1.8,4,4,4h112c2.2,0,4-1.8,4-4V56C124,53.8,122.2,52,120,52z" fill="#EEEEEE"/>
    </g>
  </g>
</svg>