<svg viewBox="0 0 128 128" xmlns="http://www.w3.org/2000/svg" xmlns:xlink="http://www.w3.org/1999/xlink">
  <g id="_x31__copy">
    <g>
      <defs>
        <rect id="SVGID_1_" height="120" width="120" x="4" y="4"/>
      </defs>
      <clipPath id="SVGID_3_">
        <use overflow="visible" xlink:href="#SVGID_1_"/>
      </clipPath>
      <g id="XMLID_8_" clip-path="url(#SVGID_3_)">
        <linearGradient id="SVGID_4_" gradientUnits="userSpaceOnUse" x1="64" x2="64" y1="97.2812" y2="136.0977">
          <stop offset="3.247793e-03" style="stop-color:#448AFF"/>
          <stop offset="0.4042" style="stop-color:#3B7DFF"/>
          <stop offset="1" style="stop-color:#2962FF"/>
        </linearGradient>
        <path d="M13.5,136.1v-15.26c0-16.23,25.36-23.53,50.5-23.56h0.13c25.03,0,50.36,8.09,50.36,23.56v15.26 H13.5z" fill="url(#SVGID_4_)"/>
        <path d="M64.13,98.78c12.9,0,25.42,2.19,34.36,6c6.62,2.83,14.51,7.91,14.51,16.05v13.76H15v-13.76 c0-15.2,24.61-22.03,49-22.06L64.13,98.78 M64.13,95.78c-0.05,0-0.09,0-0.13,0c-25.49,0.03-52,7.28-52,25.06v16.76h104v-16.76 C116,104.08,89.74,95.78,64.13,95.78L64.13,95.78z" fill="#4073D4"/>
      </g>
      <g id="XMLID_6_" clip-path="url(#SVGID_3_)">
        <path d="M63.17,109.56c-4,0-7.26-3.22-7.26-7.17v-8.98h16.16v8.98c0,3.95-3.25,7.17-7.26,7.17H63.17z" fill="#E59600"/>
        <path d="M71.08,94.41v7.98c0,3.4-2.81,6.17-6.26,6.17h-1.65c-3.45,0-6.26-2.77-6.26-6.17v-7.98H64H71.08 M73.08,92.41H64h-9.08v9.98c0,4.51,3.7,8.17,8.26,8.17h1.65c4.56,0,8.26-3.66,8.26-8.17V92.41L73.08,92.41z" fill="#D18100"/>
      </g>
      <g clip-path="url(#SVGID_3_)">
        <defs>
          <path id="XMLID_5_" d="M12,120.84v16.76h104v-16.76c0-16.79-26.35-25.09-52-25.06C38.51,95.81,12,103.06,12,120.84z"/>
        </defs>
        <clipPath id="XMLID_7_">
          <use overflow="visible" xlink:href="#XMLID_5_"/>
        </clipPath>
        <g clip-path="url(#XMLID_7_)">
          <g>
            <g>
              <linearGradient id="SVGID_5_" gradientUnits="userSpaceOnUse" x1="45.9284" x2="45.9284" y1="95.9404" y2="136.8916">
                <stop offset="3.247793e-03" style="stop-color:#FF9100"/>
                <stop offset="0.4399" style="stop-color:#FF8400"/>
                <stop offset="1" style="stop-color:#FF6D00"/>
              </linearGradient>
              <path d="M29.55,100.57v37.03h32.76L50.18,94.11C42.46,95.35,35.3,97.46,29.55,100.57z" fill="url(#SVGID_5_)"/>
            </g>
            <linearGradient id="SVGID_6_" gradientUnits="userSpaceOnUse" x1="44.757" x2="44.757" y1="96.0193" y2="137.5944">
              <stop offset="3.247793e-03" style="stop-color:#FFFF00"/>
              <stop offset="0.6783" style="stop-color:#FFF200"/>
              <stop offset="1" style="stop-color:#FFEA00"/>
            </linearGradient>
            <path d="M35.13,98.03l1.77,39.57h17.48L43.8,95.38C40.75,96.1,37.84,96.99,35.13,98.03z" fill="url(#SVGID_6_)"/>
          </g>
          <g>
            <g>
              <linearGradient id="SVGID_7_" gradientTransform="matrix(-1 0 0 1 126.2405 0)" gradientUnits="userSpaceOnUse" x1="44.1689" x2="44.1689" y1="95.9404" y2="136.8916">
                <stop offset="3.247793e-03" style="stop-color:#FF9100"/>
                <stop offset="0.4399" style="stop-color:#FF8400"/>
                <stop offset="1" style="stop-color:#FF6D00"/>
              </linearGradient>
              <path d="M98.45,100.57v37.03H65.69l12.12-43.48C85.54,95.35,92.7,97.46,98.45,100.57z" fill="url(#SVGID_7_)"/>
            </g>
            <linearGradient id="SVGID_8_" gradientTransform="matrix(-1 0 0 1 126.2405 0)" gradientUnits="userSpaceOnUse" x1="42.9976" x2="42.9976" y1="96.0193" y2="137.5944">
              <stop offset="3.247793e-03" style="stop-color:#FFFF00"/>
              <stop offset="0.6783" style="stop-color:#FFF200"/>
              <stop offset="1" style="stop-color:#FFEA00"/>
            </linearGradient>
            <path d="M92.87,98.03L91.1,137.6H73.62L84.2,95.38C87.25,96.1,90.16,96.99,92.87,98.03z" fill="url(#SVGID_8_)"/>
          </g>
        </g>
      </g>
      <g clip-path="url(#SVGID_3_)">
        <path d="M18,52.5c0,9.34,20.59,16.92,46,16.92s46-7.57,46-16.92C110,43.15,18,43.15,18,52.5z" fill="#FFEA00"/>
        <path d="M105.38,52.49c-8.12-5.32-19.54-9.71-41.38-9.72c-21.85,0.01-33.27,4.4-41.38,9.72 c-0.62,0.41-0.78,1.21-0.32,1.8C26.75,60.12,45.76,65.86,64,65.88c18.24-0.02,38-6.62,41.71-11.58 C106.15,53.7,106.01,52.9,105.38,52.49z" fill="#EDBF00"/>
        <rect fill="none" height="84" width="78" x="25" y="20.08"/>
        <g>
          <defs>
            <rect id="SVGID_9_" height="76" width="84" x="22" y="32.04"/>
          </defs>
          <clipPath id="SVGID_10_">
            <use overflow="visible" xlink:href="#SVGID_9_"/>
          </clipPath>
          <g clip-path="url(#SVGID_10_)">
            <g>
              <path d="M36.67,72.34c-5.36,0-9.71-4.67-9.71-10.41s4.36-10.41,9.71-10.41h54.65c5.36,0,9.71,4.67,9.71,10.41 s-4.36,10.41-9.71,10.41H36.67z" fill="#E59600"/>
              <path d="M91.33,52.52c4.8,0,8.71,4.22,8.71,9.41s-3.91,9.41-8.71,9.41h-7.37H44.04h-7.37 c-4.8,0-8.71-4.22-8.71-9.41s3.91-9.41,8.71-9.41h7.37h39.91H91.33 M91.33,50.52h-7.37H44.04h-7.37 c-5.89,0-10.71,5.14-10.71,11.41c0,6.28,4.82,11.41,10.71,11.41h7.37h39.91h7.37c5.89,0,10.71-5.14,10.71-11.41 C102.04,55.65,97.22,50.52,91.33,50.52L91.33,50.52z" fill="#D18100"/>
            </g>
            <g>
              <linearGradient id="SVGID_11_" gradientUnits="userSpaceOnUse" x1="64.0002" x2="64.0002" y1="94.6764" y2="12.9102">
                <stop offset="0" style="stop-color:#FFB300"/>
                <stop offset="0.102" style="stop-color:#FFB809"/>
                <stop offset="0.3707" style="stop-color:#FFC21A"/>
                <stop offset="0.6592" style="stop-color:#FFC825"/>
                <stop offset="1" style="stop-color:#FFCA28"/>
              </linearGradient>
              <path d="M64,95.36c-15.66,0-32.52-12.14-32.52-38.81c0-12.38,3.56-23.79,10.02-32.13 c6.05-7.8,14.25-12.27,22.5-12.27s16.45,4.47,22.5,12.27c6.46,8.34,10.02,19.75,10.02,32.13c0,12.09-3.51,22.19-10.14,29.21 C80.52,91.95,72.57,95.36,64,95.36z" fill="url(#SVGID_11_)"/>
              <path d="M64,13.15L64,13.15c7.94,0,15.85,4.33,21.71,11.88c6.33,8.16,9.81,19.35,9.81,31.52 c0,11.83-3.41,21.7-9.87,28.52c-5.67,5.99-13.36,9.29-21.65,9.29c-8.29,0-15.98-3.3-21.65-9.29 c-6.46-6.82-9.87-16.69-9.87-28.52c0-12.16,3.49-23.35,9.81-31.52C48.15,17.48,56.06,13.15,64,13.15 M64,11.15L64,11.15 L64,11.15c-17.4,0-33.52,18.61-33.52,45.39c0,26.64,16.61,39.81,33.52,39.81s33.52-13.17,33.52-39.81 C97.52,29.76,81.4,11.15,64,11.15L64,11.15z" fill="#ED9E00"/>
            </g>
            <g>
              <g>
                <g>
                  <path d="M39.99,50.81c0,0,0.13-0.19,0.38-0.51c0.07-0.08,0.12-0.16,0.22-0.26 c0.11-0.11,0.23-0.22,0.37-0.34c0.14-0.12,0.28-0.24,0.43-0.38c0.15-0.13,0.31-0.23,0.48-0.35 c0.17-0.11,0.34-0.24,0.53-0.35c0.19-0.1,0.4-0.21,0.6-0.32c0.21-0.12,0.43-0.21,0.66-0.3c0.23-0.09,0.47-0.18,0.71-0.27 c0.49-0.14,1-0.29,1.54-0.36c0.53-0.1,1.08-0.11,1.63-0.14c0.55,0.03,1.09,0.03,1.63,0.14c0.53,0.07,1.05,0.22,1.54,0.36 c0.24,0.08,0.48,0.17,0.71,0.27c0.23,0.09,0.45,0.18,0.66,0.3c0.21,0.11,0.41,0.22,0.6,0.32c0.19,0.11,0.36,0.24,0.53,0.35 c0.17,0.12,0.33,0.22,0.47,0.34c0.14,0.12,0.27,0.24,0.4,0.35c0.12,0.11,0.24,0.21,0.34,0.31c0.1,0.1,0.18,0.21,0.26,0.29 c0.31,0.36,0.46,0.57,0.46,0.57c0.51,0.7,0.35,1.69-0.36,2.19c-0.43,0.31-0.96,0.37-1.43,0.21l-0.29-0.1 c0,0-0.19-0.07-0.49-0.2c-0.08-0.03-0.15-0.07-0.25-0.11c-0.1-0.03-0.19-0.07-0.3-0.11c-0.21-0.08-0.44-0.17-0.7-0.25 c-0.13-0.04-0.26-0.09-0.4-0.13c-0.14-0.03-0.28-0.07-0.43-0.11c-0.07-0.02-0.15-0.04-0.22-0.06 c-0.08-0.01-0.15-0.03-0.23-0.04c-0.16-0.03-0.31-0.07-0.47-0.1c-0.33-0.04-0.66-0.11-1-0.12 c-0.34-0.04-0.69-0.03-1.03-0.05c-0.35,0.02-0.7,0.01-1.03,0.05c-0.34,0.02-0.67,0.09-1,0.12 c-0.16,0.03-0.31,0.07-0.47,0.1c-0.08,0.01-0.16,0.03-0.23,0.04c-0.07,0.02-0.15,0.04-0.22,0.06 c-0.15,0.04-0.29,0.07-0.43,0.11c-0.14,0.04-0.27,0.09-0.4,0.13c-0.13,0.04-0.25,0.08-0.37,0.11 c-0.1,0.04-0.2,0.07-0.29,0.1c-0.09,0.03-0.18,0.06-0.27,0.09c-0.1,0.04-0.2,0.1-0.29,0.14c-0.36,0.18-0.57,0.27-0.57,0.27 c-0.83,0.34-1.77-0.05-2.11-0.87C39.62,51.82,39.7,51.25,39.99,50.81z" fill="#6D4C41"/>
                  <ellipse cx="48.19" cy="58.9" fill="#404040" rx="4.93" ry="5.1"/>
                </g>
                <g>
                  <path d="M86.05,53.22c0,0-0.22-0.09-0.57-0.27c-0.09-0.04-0.19-0.1-0.29-0.14 c-0.09-0.02-0.18-0.06-0.27-0.09c-0.09-0.03-0.19-0.07-0.29-0.1c-0.12-0.04-0.24-0.07-0.37-0.11 c-0.13-0.04-0.26-0.09-0.4-0.13c-0.14-0.04-0.28-0.07-0.43-0.11c-0.07-0.02-0.15-0.04-0.22-0.06 c-0.08-0.01-0.15-0.03-0.23-0.04c-0.16-0.03-0.31-0.07-0.47-0.1c-0.33-0.04-0.66-0.11-1-0.12 c-0.34-0.04-0.69-0.03-1.03-0.05c-0.35,0.02-0.7,0.01-1.03,0.05c-0.34,0.02-0.67,0.09-1,0.12 c-0.16,0.03-0.31,0.07-0.47,0.1c-0.08,0.01-0.16,0.03-0.23,0.04c-0.07,0.02-0.15,0.04-0.22,0.06 c-0.15,0.04-0.29,0.08-0.43,0.11c-0.14,0.04-0.27,0.09-0.4,0.13c-0.26,0.07-0.49,0.16-0.7,0.25 c-0.11,0.04-0.2,0.08-0.3,0.11c-0.09,0.04-0.17,0.08-0.25,0.11c-0.3,0.13-0.49,0.2-0.49,0.2l-0.28,0.1 c-0.82,0.29-1.72-0.15-2-0.97c-0.17-0.5-0.08-1.03,0.21-1.44c0,0,0.16-0.22,0.46-0.57c0.08-0.09,0.16-0.19,0.26-0.29 c0.1-0.1,0.22-0.2,0.34-0.31c0.12-0.11,0.26-0.23,0.4-0.35c0.14-0.12,0.31-0.22,0.47-0.34c0.17-0.12,0.34-0.24,0.53-0.35 c0.19-0.1,0.4-0.21,0.6-0.32c0.21-0.12,0.43-0.21,0.66-0.3c0.23-0.09,0.46-0.18,0.71-0.27c0.49-0.14,1-0.29,1.54-0.36 c0.53-0.1,1.08-0.11,1.63-0.14c0.55,0.03,1.09,0.03,1.63,0.14c0.53,0.06,1.05,0.22,1.54,0.36 c0.24,0.08,0.48,0.17,0.71,0.27c0.23,0.09,0.45,0.18,0.66,0.3c0.21,0.11,0.41,0.22,0.6,0.32c0.19,0.11,0.36,0.24,0.53,0.35 c0.17,0.12,0.32,0.22,0.48,0.35c0.15,0.13,0.3,0.26,0.43,0.38c0.13,0.12,0.26,0.23,0.37,0.34c0.09,0.1,0.15,0.18,0.22,0.26 c0.25,0.31,0.38,0.51,0.38,0.51c0.5,0.74,0.31,1.74-0.43,2.25C87.12,53.38,86.54,53.41,86.05,53.22z" fill="#6D4C41"/>
                  <ellipse cx="79.33" cy="58.9" fill="#404040" rx="4.93" ry="5.1"/>
                </g>
              </g>
              <path d="M67.86,68.14c-0.11-0.04-0.21-0.07-0.32-0.08h-7.07c-0.11,0.01-0.22,0.04-0.32,0.08 c-0.64,0.26-0.99,0.92-0.69,1.63c0.3,0.71,1.71,2.69,4.55,2.69c2.84,0,4.25-1.99,4.55-2.69 C68.85,69.07,68.5,68.4,67.86,68.14z" fill="#E59600"/>
              <path d="M72.53,76.23c-3.19,1.89-13.63,1.89-16.81,0c-1.83-1.09-3.7,0.58-2.94,2.24 c0.75,1.63,6.45,5.42,11.37,5.42s10.55-3.79,11.3-5.42C76.2,76.8,74.36,75.14,72.53,76.23z" fill="#795548"/>
            </g>
            <g>
              <defs>
                <path id="SVGID_12_" d="M64,4.12L64,4.12c-0.01,0-0.01,0-0.02,0s-0.01,0-0.02,0v0C18.53,4.36,27.84,56.25,27.84,56.25 s5.1,8.99,5.1,8.81c-0.03-1.41,0.46-6.89,0.46-6.89l-2.68-2.92c0,0,3.89-25.44,6.79-24.91c4.45,0.81,26.54,2,26.57,2 c7.83,0,14.92-0.36,19.37-1.17c2.9-0.53,9.64,1.7,10.68,4.45c1.33,3.54,3.13,19.71,3.13,19.71l-2.68,2.83 c0,0,0.49,5.51,0.46,6.89c0,0.18,5.1-8.81,5.1-8.81S109.44,4.36,64,4.12z"/>
              </defs>
              <clipPath id="SVGID_13_">
                <use overflow="visible" xlink:href="#SVGID_12_"/>
              </clipPath>
            </g>
            <g>
              <g>
                <radialGradient id="SVGID_14_" cx="64.2597" cy="4.3585" gradientUnits="userSpaceOnUse" r="48.8499">
                  <stop offset="0" style="stop-color:#6D4C41"/>
                  <stop offset="1" style="stop-color:#543930"/>
                </radialGradient>
                <path d="M64.02,4.12L64.02,4.12c-0.01,0-0.01,0-0.02,0c-0.01,0-0.01,0-0.02,0v0 C18.55,4.36,27.85,56.25,27.85,56.25s5.1,8.99,5.1,8.81c-0.16-7.25,2.74-20.09,4.8-25.55c1.04-2.76,3.9-4.36,6.79-3.83 c4.45,0.81,11.55,1.81,19.37,1.81c0.03,0,0.06,0,0.08,0c0.03,0,0.06,0,0.08,0c7.83,0,14.92-1,19.37-1.81 c2.9-0.53,5.76,1.08,6.79,3.83c2.06,5.47,4.96,18.3,4.8,25.55c0,0.18,5.1-8.81,5.1-8.81S109.45,4.36,64.02,4.12z" fill="url(#SVGID_14_)"/>
              </g>
              <path d="M64.02,4.12L64.02,4.12c-0.01,0-0.01,0-0.02,0c-0.01,0-0.01,0-0.02,0v0 C18.55,4.36,27.85,56.25,27.85,56.25s5,8.81,5.1,8.81c0,0,0,0,0,0c-0.03-1.48,0.07-3.2,0.26-5.03 c-0.12-0.29-2.46-4.75-2.48-4.79c-0.24-1.6-0.93-6.98-0.55-13.56c0.41-7.04,2.17-16.96,8.22-24.22 c5.67-6.8,14.27-10.28,25.56-10.35c0.01,0,0.03,0,0.04,0h0v0c11.32,0.06,19.93,3.54,25.6,10.35 c10.81,12.96,8.18,34.33,7.67,37.79c-0.02,0.04-2.46,4.58-2.49,4.65c0.2,1.89,0.31,3.65,0.27,5.17c0,0,0,0,0,0 c0.1,0,5.1-8.81,5.1-8.81S109.45,4.36,64.02,4.12z" fill="#3F2720"/>
            </g>
          </g>
        </g>
        <g>
          <radialGradient id="XMLID_11_" cx="64" cy="31.6755" gradientTransform="matrix(1 0 0 0.9806 0 0.0776)" gradientUnits="userSpaceOnUse" r="34.638">
            <stop offset="0" style="stop-color:#FFFF00"/>
            <stop offset="0.325" style="stop-color:#FFF600"/>
            <stop offset="0.8535" style="stop-color:#FFDE00"/>
            <stop offset="0.9978" style="stop-color:#FFD600"/>
          </radialGradient>
          <path id="XMLID_3_" d="M64.41,7.92c-46.76,0-43.24,46.43-43.24,46.43s12.21-10.8,43.5-10.8 s42.09,9.8,42.09,9.8S111.17,7.92,64.41,7.92z" fill="url(#XMLID_11_)"/>
          <linearGradient id="SVGID_15_" gradientUnits="userSpaceOnUse" x1="64.3214" x2="64.3214" y1="4.7354" y2="41.773">
            <stop offset="0" style="stop-color:#FFFF00"/>
            <stop offset="0.4462" style="stop-color:#FFF900"/>
            <stop offset="1" style="stop-color:#FFEA00"/>
          </linearGradient>
          <path d="M74.72,42.15h-20.8V9.05c0-2.79,2.26-5.05,5.05-5.05h10.7c2.79,0,5.05,2.26,5.05,5.05V42.15z" fill="url(#SVGID_15_)"/>
          <g>
            <defs>
              <path id="XMLID_1_" d="M64.41,7.92c-46.76,0-43.24,46.43-43.24,46.43s12.21-10.8,43.5-10.8s42.09,9.8,42.09,9.8 S111.17,7.92,64.41,7.92z"/>
            </defs>
            <clipPath id="XMLID_12_">
              <use overflow="visible" xlink:href="#XMLID_1_"/>
            </clipPath>
            <path id="XMLID_2_" clip-path="url(#XMLID_12_)" d="M47.12,10.23l6.95-2.3l0,23.29 C52.66,21.15,50.64,13.87,47.12,10.23z" fill="#EDBF00" opacity="0.5"/>
            <path clip-path="url(#XMLID_12_)" d="M81.71,10.23l-6.95-2.3v23.29 C76.17,21.15,78.19,13.87,81.71,10.23z" fill="#EDBF00" opacity="0.5"/>
          </g>
          <path d="M69.62,7c1.11,0,2.03,0.84,2.08,1.91c0.07,1.4,1.1,2.57,2.49,2.8c13.61,2.34,22.72,9.9,27.07,22.45 c1.8,5.19,2.4,10.24,2.56,13.81c-6.1-3.12-18.28-7.41-39.14-7.41c-21.22,0-34.04,4.85-40.44,8.27 c0.24-3.65,0.94-8.76,2.82-14.03c4.58-12.85,13.81-20.6,27.42-23.04c1.39-0.25,2.41-1.43,2.47-2.83 C56.98,7.85,57.9,7,59.02,7H69.62 M69.62,4h-10.6c-2.75,0-4.97,2.14-5.08,4.81c-35.73,6.4-32.76,45.55-32.76,45.55 s12.21-10.8,43.5-10.8s42.09,9.8,42.09,9.8s3.72-38.44-32.08-44.6C74.56,6.11,72.35,4,69.62,4L69.62,4z" fill="#EDBF00"/>
          <path d="M109.53,50.99c-0.25-0.42-0.63-0.74-1.07-0.99C90.36,39.59,64,39.93,64,39.93S37.64,39.59,19.54,50 c-0.44,0.25-0.82,0.57-1.07,0.99c-0.53,0.9-0.97,2.61,0.75,5.08c0,0,10.95-10.85,44.78-11.54 c33.82,0.68,44.78,11.54,44.78,11.54C110.5,53.6,110.06,51.89,109.53,50.99z" fill="#FFEA00"/>
        </g>
      </g>
    </g>
  </g>
</svg>