<svg viewBox="0 0 128 128" xmlns="http://www.w3.org/2000/svg" xmlns:xlink="http://www.w3.org/1999/xlink">
  <g id="Layer_1_copy_5">
    <g>
      <radialGradient id="SVGID_1_" cx="42.0816" cy="71.2425" gradientTransform="matrix(1 0 0 0.7783 0 15.7962)" gradientUnits="userSpaceOnUse" r="76.1202">
        <stop offset="0" style="stop-color:#66BDD6"/>
        <stop offset="0.3128" style="stop-color:#63B9D2"/>
        <stop offset="0.6083" style="stop-color:#5AAEC7"/>
        <stop offset="0.8959" style="stop-color:#4B9CB4"/>
        <stop offset="1" style="stop-color:#4493AB"/>
      </radialGradient>
      <path d="M123.84,64.83l-59.99,5.35h-0.07L4.15,64.19c0,0-4.4,59.77,59.63,59.81v0c0.01,0,0.02,0,0.03,0 c0.01,0,0.02,0,0.03,0v0C128.38,123.96,123.84,64.83,123.84,64.83z" fill="url(#SVGID_1_)"/>
      <linearGradient id="SVGID_3_" gradientUnits="userSpaceOnUse" x1="4.2222" x2="123.7778" y1="65.5231" y2="65.5231">
        <stop offset="1.923077e-03" style="stop-color:#96D7F2"/>
        <stop offset="1" style="stop-color:#7CC4E2"/>
      </linearGradient>
      <path d="M123.78,64.52c0,8.83-26.76,16.99-59.78,16.99S4.22,73.35,4.22,64.52S30.99,49.54,64,49.54 S123.78,55.69,123.78,64.52z" fill="url(#SVGID_3_)"/>
      <linearGradient id="SVGID_4_" gradientUnits="userSpaceOnUse" x1="15.8251" x2="119.7398" y1="53.8359" y2="75.6549">
        <stop offset="0" style="stop-color:#24778F"/>
        <stop offset="1" style="stop-color:#1A5C70"/>
      </linearGradient>
      <path d="M116.31,63.8c0,4.95-22.31,9.86-51.35,9.86c-28.89,0-53.27-4.91-53.27-9.86S35.11,54.83,64,54.83 S116.31,58.85,116.31,63.8z" fill="url(#SVGID_4_)"/>
      <linearGradient id="SVGID_5_" gradientUnits="userSpaceOnUse" x1="102.6236" x2="93.0189" y1="55.917" y2="68.3043">
        <stop offset="0" style="stop-color:#212121;stop-opacity:0.3"/>
        <stop offset="1" style="stop-color:#212121;stop-opacity:0.6"/>
      </linearGradient>
      <path d="M111.69,55.37c0,0-3.89,0.12-7.81,3.55c-4.33,3.79-9,12.81-9,12.81C89.31,72.84,81.58,73,81.71,73 s4.72-7.8,7.79-11.19c3.26-3.59,10.66-9.36,10.66-9.36S107.91,53.63,111.69,55.37z" fill="url(#SVGID_5_)"/>
      <g opacity="0.2">
        <path d="M64,52.54c37.8,0,56.78,7.69,56.78,11.99c0,0.24,0.03,0.5,0.09,0.77c0.13,2.49,0.81,24.32-13.51,39.79 c-9.76,10.55-24.4,15.9-43.46,15.92l-0.03,0c-0.03,0-0.05,0-0.08,0c-18.72-0.01-33.13-5.3-42.81-15.72 C5.66,88.79,7.23,64.66,7.24,64.42c0.12-1.57,3.54-4.99,15.6-7.88C33.61,53.96,48.23,52.54,64,52.54 M64,49.54 c-32.6,0-59.09,6.01-59.75,14.66c0,0-4.5,59.76,59.53,59.8v0c0.01,0,0.02,0,0.03,0c0.01,0,0.02,0,0.03,0v0 c64.53-0.04,59.99-59.17,59.99-59.17s-0.06-0.2-0.06-0.31C123.78,55.69,97.01,49.54,64,49.54L64,49.54z" fill="#424242"/>
      </g>
      <g>
        <defs>
          <path id="SVGID_6_" d="M116.4,63.14c-0.08,0.15-0.17,0.31-0.25,0.46c-2.73,4.91-12.52,6.49-17.48,7.33 C87.01,72.91,75.81,73.67,64,73.67c-2.57,0-6.43-0.14-9-0.21c-2.13-0.06-3.63-0.56-5.68-1.13c-1.37-0.38-1.32-0.34-1.73-1.92 c-0.28-1.09-0.46-2.21-0.58-3.33c-0.24-2.13-0.23-4.29-0.24-6.43c0-2.08,0-4.18,0.51-6.2c0.52-2.04,1.54-3.9,2.56-5.74 c2.03-3.69,4.07-7.38,6.52-10.81C67.6,22.21,87.3,13.49,106.59,13.99c3.26,0.08,6.56,0.42,9.63,1.51c3.08,1.09,5.94,3,7.72,5.74 c3.02,4.65,2.47,10.71,1.36,16.14C123.52,46.14,120.71,55.25,116.4,63.14z"/>
        </defs>
        <clipPath id="SVGID_7_">
          <use overflow="visible" xlink:href="#SVGID_6_"/>
        </clipPath>
        <g clip-path="url(#SVGID_7_)">
          <linearGradient id="SVGID_8_" gradientTransform="matrix(0.9966 -0.0829 0.0829 0.9966 -5.5012 6.3741)" gradientUnits="userSpaceOnUse" x1="94.2899" x2="77.0161" y1="24.4362" y2="66.4867">
            <stop offset="0.0186" style="stop-color:#EAF0F0"/>
            <stop offset="0.3116" style="stop-color:#D4DCDE"/>
            <stop offset="0.9953" style="stop-color:#A9B5B3"/>
          </linearGradient>
          <path d="M50.61,89.5c2.15-1.08,4.32-2.14,6.33-3.46c0,0,8.76-4,12.98-10.78 c8.69-13.99,24.13-35.07,30.62-42.83c5.58-6.66,12.53-10.38,17.74-8.67c4.81,1.58,6.82,5.32,2.61,10.76 c-5.1,6.59-35.63,24.76-46.37,51.93c-2.68,6.78-7.22,20.54-17.1,26.61c-6.97,4.28-15.93,5.01-23.52,2.4 c-1.58-0.54-3.17-1.32-4.16-2.76c-1.2-1.75-1.3-4.22-0.63-6.32c0.67-2.11,2.01-3.9,3.48-5.45C37.7,95.54,44.26,92.69,50.61,89.5 z" fill="url(#SVGID_8_)"/>
        </g>
        <g clip-path="url(#SVGID_7_)">
          <linearGradient id="SVGID_9_" gradientTransform="matrix(0.9966 -0.0829 0.0829 0.9966 -5.5012 6.3741)" gradientUnits="userSpaceOnUse" x1="72.5565" x2="77.2675" y1="64.5348" y2="71.6014">
            <stop offset="0" style="stop-color:#424242;stop-opacity:0.2"/>
            <stop offset="0.8484" style="stop-color:#424242;stop-opacity:0.4"/>
          </linearGradient>
          <path d="M114.92,25.47L114.92,25.47c5.87-0.51,4.86,4.67,3.13,6.44c-1.32,1.35-4.6,4.26-8.57,7.5 c-11.32,9.22-29.06,24.24-37.71,45.28c-0.24,0.62,0.31,2.29,0.03,3.01c-2.65,6.89-7.08,18.43-15.47,23.58 c-3.21,1.97-7.01,3.19-10.98,3.52c-3.66,0.3-7.38-0.15-10.76-1.31c-1.59-0.55-2.55-1.15-3.11-1.97 c-0.74-1.08-0.88-2.84-0.36-4.5c0.48-1.51,1.44-2.99,3.01-4.65c4.25-4.48,9.56-7.1,15.18-9.87c0.75-0.37,1.5-0.74,2.24-1.11 l0.44-0.22c1.98-0.99,4.03-2.02,5.97-3.28c1.27-0.6,9.5-4.7,13.73-11.51c8.66-13.95,24.2-35.13,30.45-42.59 C106.22,28.9,111,25.79,114.92,25.47 M114.75,23.38c-4.58,0.38-9.82,3.8-14.21,9.05c-6.49,7.76-21.94,28.85-30.62,42.83 c-4.21,6.78-12.98,10.78-12.98,10.78c-2.01,1.33-4.17,2.38-6.33,3.46c-6.35,3.18-12.9,6.03-18.01,11.42 c-1.48,1.56-2.82,3.35-3.48,5.45c-0.67,2.11-0.57,4.58,0.63,6.32c0.99,1.44,2.58,2.22,4.16,2.76c3.68,1.26,7.67,1.74,11.61,1.41 c4.19-0.35,8.31-1.61,11.91-3.82c9.88-6.06,14.42-19.82,17.1-26.61c10.74-27.17,41.27-45.34,46.37-51.93 c4.21-5.44,2.19-9.18-2.61-10.76C117.17,23.4,115.98,23.28,114.75,23.38L114.75,23.38z" fill="url(#SVGID_9_)"/>
        </g>
      </g>
    </g>
  </g>
</svg>