<svg viewBox="0 0 128 128" xmlns="http://www.w3.org/2000/svg" xmlns:xlink="http://www.w3.org/1999/xlink">
  <g id="Layer_1">
    <g>
      <g id="XMLID_53_">
        <linearGradient id="SVGID_1_" gradientUnits="userSpaceOnUse" x1="65.904" x2="76.7868" y1="81.338" y2="54.5407">
          <stop offset="0.6007" style="stop-color:#F9DDBD"/>
          <stop offset="1" style="stop-color:#FFD29C"/>
        </linearGradient>
        <path d="M65.75,83.21c-0.43,0-0.84-0.1-1.18-0.3c-1.02-0.59-1.48-2.06-0.98-3.15l4.41-11.06 c1.28-2.97,4.06-12.17,4.83-14.76l6.99-0.51l0.68,2.32L68.12,81.81C67.74,82.64,66.77,83.21,65.75,83.21L65.75,83.21z" fill="url(#SVGID_1_)"/>
        <path d="M79.09,54.49l0.34,1.17L67.21,81.41c-0.21,0.46-0.83,0.8-1.46,0.8c-0.26,0-0.49-0.06-0.68-0.17 c-0.58-0.33-0.85-1.24-0.57-1.87c0.01-0.03,0.02-0.06,0.04-0.08l4.38-10.99c1.22-2.84,3.7-10.98,4.67-14.21L79.09,54.49 M80.55,52.38L72.06,53c0,0-3.53,11.93-5,15.33l-4.39,11.02c-0.7,1.55-0.08,3.58,1.39,4.43c0.51,0.29,1.09,0.43,1.68,0.43 c1.35,0,2.71-0.73,3.28-1.96l12.54-26.41L80.55,52.38L80.55,52.38z" fill="#EDBD82"/>
      </g>
      <path d="M61.67,85.7L61.67,85.7L61.67,85.7z" fill="#EDA600"/>
      <g>
        <linearGradient id="SVGID_2_" gradientTransform="matrix(-1 0 0 1 127.4631 0)" gradientUnits="userSpaceOnUse" x1="75.996" x2="60.868" y1="56.3535" y2="84.6577">
          <stop offset="2.052774e-03" style="stop-color:#CCA47A"/>
          <stop offset="0.2584" style="stop-color:#D6B088"/>
          <stop offset="0.5901" style="stop-color:#DEB892"/>
          <stop offset="1" style="stop-color:#E0BB95"/>
        </linearGradient>
        <path d="M68.82,88.17c-0.56,0-0.94,0-1.83-1.38c-0.38-0.58-0.62-1.08-0.84-1.52 c-0.49-0.99-0.96-1.93-2.38-2.1c-0.04,0-0.15-0.01-0.18-0.01c-1.27,0-1.6,1.29-1.82,2.14c-0.07,0.29-0.19,0.77-0.3,0.94 c-0.19,0.06-0.35,0.09-0.47,0.09c-0.86-0.42-1.42-0.71,0.42-5.47c0.11-0.29,0.08-0.6-0.07-0.87L48.33,57.87l-0.22-2.78l7.33-0.01 c0.97,2.37,4.4,10.62,6.15,13.38l4.68,8.35c0.06,0.11,0.14,0.2,0.23,0.28c0.32,0.27,0.7,0.56,1.11,0.88 c1.41,1.09,3.17,2.45,4.5,4.24c0.63,0.85,0.97,1.59-0.38,3.44c-0.15,0.2-0.3,0.44-0.46,0.7c-0.66,1.06-1.19,1.81-2.05,1.81 L68.82,88.17z" fill="url(#SVGID_2_)"/>
        <path d="M54.78,56.09c1.22,2.95,4.27,10.21,5.94,12.87l4.68,8.35c0.12,0.21,0.28,0.4,0.46,0.56 c0.33,0.27,0.72,0.58,1.15,0.91c1.36,1.06,3.06,2.37,4.3,4.04c0.42,0.57,0.64,0.85-0.38,2.25c-0.18,0.24-0.34,0.51-0.5,0.76 c-0.35,0.56-0.83,1.34-1.2,1.34l-0.24,0l-0.18,0c-0.13,0-0.2,0-0.23,0c-0.01,0-0.01,0-0.01,0c-0.01-0.01-0.25-0.14-0.75-0.92 c-0.35-0.54-0.58-1.01-0.79-1.42c-0.51-1.02-1.2-2.42-3.16-2.65c-0.1-0.01-0.2-0.02-0.3-0.02c0,0,0,0,0,0 c-0.88,0-1.48,0.38-1.89,0.87c0.16-0.5,0.38-1.1,0.66-1.81c0.22-0.57,0.17-1.21-0.14-1.73l-12.9-21.92l-0.11-1.47L54.78,56.09 M56.12,54.08l-9.09,0.02l0.32,4.08L60.48,80.5c-1.83,4.75-1.63,5.88-0.04,6.71c0.17,0.09,0.36,0.12,0.56,0.12 c0.28,0,0.57-0.07,0.86-0.17c1.03-0.34,0.75-3,1.72-3c0.02,0,0.04,0,0.07,0c1.31,0.15,1.25,1.23,2.5,3.17 c1.11,1.72,1.8,1.84,2.67,1.84c0.13,0,0.27,0,0.42,0c1.83,0,2.62-1.97,3.31-2.92c1.58-2.17,1.3-3.38,0.37-4.63 c-1.81-2.44-4.38-4.12-5.77-5.29l-4.71-8.4C60.46,64.81,56.12,54.08,56.12,54.08L56.12,54.08z" fill="#BA8F63"/>
      </g>
      <path d="M70.44,86.79 c-1.25-1.92-2.17-2.92-2.17-2.92" fill="none" stroke="#BA8F63" stroke-linecap="round" stroke-linejoin="round" stroke-miterlimit="10"/>
      <path d="M72.02,85.38 c-1.25-1.92-2.42-2.92-2.42-2.92" fill="none" stroke="#BA8F63" stroke-linecap="round" stroke-linejoin="round" stroke-miterlimit="10"/>
      <path d="M68.72,87.55c0.19-0.71-0.15-1.48-0.84-1.8c-0.11-0.05-0.22-0.08-0.33-0.11l0.02-0.06 c0.27-0.84-0.2-1.75-1.04-2.02c0,0,0,0,0,0c-0.01-0.07-0.02-0.13-0.03-0.2c-0.11-0.41-0.38-0.76-0.75-0.97 c-0.24-0.14-0.52-0.21-0.8-0.21c-0.18,0-0.36,0.04-0.52,0.1c-0.16-0.2-0.35-0.38-0.59-0.49l-0.1-0.04 c-0.21-0.09-0.43-0.14-0.66-0.14c-0.64,0-1.22,0.38-1.48,0.96c0,0-1.71,2.22-1.23,3.93c0.17,0.62,0.88,0.89,1.2,0.87 c0.05,0,0.11-0.01,0.16-0.01c0.1,0.09,0.2,0.19,0.32,0.33c0.35,0.39,0.84,0.94,1.89,1.23c0.7,0.2,1.31,0.08,1.76-0.04 c0.15,0.19,0.33,0.34,0.56,0.45C67.69,90.06,68.56,87.97,68.72,87.55z" fill="#EDBD82"/>
      <path d="M66.57,88.1L66.57,88.1c0.35,0.16,0.76,0.01,0.92-0.34l0.18-0.4c0.16-0.35,0.01-0.76-0.34-0.92l0,0 c-0.35-0.16-0.76-0.01-0.92,0.34l-0.18,0.4C66.06,87.53,66.22,87.94,66.57,88.1z" fill="#F9DDBD"/>
      <path d="M65.01,87.27L65.01,87.27c0.33,0.16,0.74,0.02,0.91-0.31l0.66-1.36c0.16-0.33,0.02-0.74-0.31-0.91l0,0 c-0.33-0.16-0.74-0.02-0.91,0.31l-0.66,1.36C64.54,86.7,64.68,87.11,65.01,87.27z" fill="#F9DDBD"/>
      <path d="M63.32,86.44L63.32,86.44c0.33,0.17,0.74,0.04,0.91-0.29l1.1-2.12c0.17-0.33,0.04-0.74-0.29-0.91l0,0 c-0.33-0.17-0.74-0.04-0.91,0.29l-1.1,2.12C62.85,85.86,62.99,86.27,63.32,86.44z" fill="#F9DDBD"/>
      <path d="M61.69,85.5l0.04,0.02c0.34,0.17,0.76,0.03,0.93-0.31l0.92-1.84c0.17-0.34,0.03-0.76-0.31-0.93 l-0.04-0.02c-0.34-0.17-0.76-0.03-0.93,0.31l-0.92,1.84C61.2,84.91,61.34,85.33,61.69,85.5z" fill="#F9DDBD"/>
      <g>
        <g>
          <g>
            <linearGradient id="SVGID_3_" gradientTransform="matrix(-1 0 0 1 127.4631 0)" gradientUnits="userSpaceOnUse" x1="4.1863" x2="22.803" y1="86.4544" y2="55.4267">
              <stop offset="0.6007" style="stop-color:#F9DDBD"/>
              <stop offset="1" style="stop-color:#FFD29C"/>
            </linearGradient>
            <path d="M122.33,86.97c-0.08,0-0.13-0.02-0.19-0.08c-0.36-0.33-0.64-1.46-0.84-2.29 c-0.35-1.44-0.72-2.93-2.04-2.93c-0.12,0-0.23,0.01-0.35,0.04c-0.35,0.08-0.64,0.29-0.81,0.59c-0.33,0.57-0.15,1.19,0.04,1.85 c0.1,0.37,0.22,0.78,0.24,1.14c0,0.04,0,0.08,0,0.11c-0.29-0.37-0.89-1.31-1.4-2.14l-0.62-4.01c-0.02-0.15-0.08-0.3-0.17-0.43 l-14.97-21.01l-0.22-2.79l7.99-0.49l5.72,12.7c0.02,0.05,0.05,0.1,0.08,0.15c0,0,4.24,6.32,6.17,9.17 c0.03,0.05,0.07,0.09,0.11,0.14c1.76,1.8,2.16,2.36,2.79,4.74c0.74,2.81,0.28,4.04,0.12,4.35 C123.83,86.11,122.91,86.97,122.33,86.97z" fill="url(#SVGID_3_)"/>
            <path d="M108.37,55.58l5.43,12.07c0.05,0.1,0.1,0.2,0.16,0.29c0,0,4.24,6.33,6.17,9.18 c0.07,0.1,0.14,0.19,0.23,0.28c1.68,1.72,1.96,2.11,2.54,4.3c0.64,2.41,0.29,3.42,0.21,3.61c-0.09,0.13-0.28,0.3-0.46,0.44 c-0.15-0.42-0.29-1.01-0.38-1.38c-0.38-1.56-0.9-3.69-3.01-3.69h0c-0.19,0-0.39,0.02-0.58,0.07c-0.38,0.09-0.72,0.27-0.99,0.52 l-0.33-2.15c-0.05-0.31-0.17-0.6-0.35-0.86L102.2,57.47l-0.12-1.5L108.37,55.58 M109.63,53.5l-9.7,0.6l0.32,4.08l15.13,21.24 l0.65,4.21c0,0,1.52,2.54,1.85,2.71c0.18,0.09,0.37,0.14,0.57,0.14c0.51,0,0.98-0.35,0.93-1.22c-0.07-1.2-0.83-2.42-0.23-2.56 c0.04-0.01,0.08-0.01,0.11-0.01c1.05,0,1,3.84,2.2,4.95c0.26,0.24,0.56,0.34,0.87,0.34c1.07,0,2.27-1.18,2.55-1.72 c0.35-0.69,0.71-2.23-0.04-5.06c-0.68-2.57-1.17-3.27-3.04-5.19c-1.93-2.85-6.17-9.17-6.17-9.17 C114.13,63.5,109.63,53.5,109.63,53.5L109.63,53.5z" fill="#EDBD82"/>
          </g>
          <g>
            <linearGradient id="SVGID_5_" gradientTransform="matrix(-1 0 0 1 127.4631 0)" gradientUnits="userSpaceOnUse" x1="2.6512" x2="2.6875" y1="84.0657" y2="84.0657">
              <stop offset="0" style="stop-color:#FFB300"/>
              <stop offset="0.4007" style="stop-color:#FFCA28"/>
            </linearGradient>
            <path d="M124.81,84.19c-0.02-0.15-0.03-0.26-0.03-0.26S124.83,84.21,124.81,84.19z" fill="url(#SVGID_5_)"/>
            <path d="M124.78,83.94c0,0,0.02,0.11,0.03,0.26c0,0,0,0,0,0C124.82,84.19,124.78,83.94,124.78,83.94 L124.78,83.94z" fill="#EDA600"/>
          </g>
        </g>
        <linearGradient id="SVGID_6_" gradientTransform="matrix(-1 0 0 1 127.4631 0)" gradientUnits="userSpaceOnUse" x1="36.1114" x2="36.1114" y1="122.6899" y2="78.0066">
          <stop offset="1.058344e-03" style="stop-color:#616161"/>
          <stop offset="0.446" style="stop-color:#6B6B6B"/>
          <stop offset="1" style="stop-color:#6E6E6E"/>
        </linearGradient>
        <path d="M105.33,78.01v44.68h-5.65l-7.87-38.21c-0.04-0.24-0.24-0.41-0.46-0.41 c-0.22,0-0.42,0.17-0.46,0.41l-7.87,38.21h-5.65V78.01H105.33z" fill="url(#SVGID_6_)"/>
        <g>
          <path d="M100.56,121.69l-7.71-37.41c-0.13-0.69-0.73-1.2-1.44-1.2s-1.31,0.51-1.44,1.22l-7.7,37.39h-3.83V75.61 h25.95v46.08H100.56z" fill="#7C7C7C"/>
          <path d="M103.39,76.61v44.08h-2.02l-7.53-36.58c-0.22-1.18-1.24-2.04-2.43-2.04s-2.2,0.86-2.42,2l-7.54,36.61 h-2.02V76.61H103.39 M105.39,74.61H77.44v48.08h5.65l7.87-38.21c0.04-0.24,0.24-0.41,0.46-0.41c0.22,0,0.42,0.17,0.46,0.41 l7.87,38.21h5.65V74.61L105.39,74.61z" fill="#5B5B5B"/>
        </g>
        <g>
          <path d="M102.33,124h4.45c0.82-0.02,1.41-0.96,1.17-1.78c-0.74-2.49-2.99-4.32-5.62-4.32 c-2.68,0-4.96,1.9-5.66,4.46c-0.22,0.82,0.39,1.63,1.21,1.63H102.33z" fill="#2B2D2D"/>
          <path d="M80.29,124h-4.45c-0.82-0.02-1.41-0.96-1.17-1.78c0.74-2.49,2.99-4.32,5.62-4.32 c2.68,0,4.96,1.9,5.66,4.46c0.22,0.82-0.39,1.63-1.21,1.63H80.29z" fill="#2B2D2D"/>
        </g>
        <g>
          <linearGradient id="SVGID_7_" gradientTransform="matrix(-1 0 0 1 127.4631 0)" gradientUnits="userSpaceOnUse" x1="36.0446" x2="36.0446" y1="44.8145" y2="77">
            <stop offset="0" style="stop-color:#00BFA5"/>
            <stop offset="0.7047" style="stop-color:#00B29A"/>
            <stop offset="1" style="stop-color:#00AB94"/>
          </linearGradient>
          <path d="M78.46,77V59.72c0-0.41-0.26-0.79-0.64-0.93l-7.44-2.85c2.11-5.49,4.09-8.35,10.68-10.1 c2.3-0.61,6.45-1.03,10.32-1.03h0.16c3.84,0,7.97,0.41,10.27,1.03c6.55,1.74,8.53,4.6,10.64,10.11l-7.35,2.84 c-0.39,0.15-0.64,0.52-0.64,0.93V77H78.46z" fill="url(#SVGID_7_)"/>
          <path d="M91.54,45.81c3.76,0,7.79,0.4,10.01,0.99c5.81,1.55,7.68,3.81,9.6,8.57l-6.42,2.48 c-0.77,0.3-1.28,1.04-1.28,1.87V76h-24V59.72c0-0.83-0.51-1.57-1.29-1.87l-6.5-2.49c1.89-4.66,3.83-7.02,9.64-8.56 c2.23-0.59,6.27-0.99,10.06-0.99l0.08,0L91.54,45.81 M91.54,43.81c-0.03,0-0.05,0-0.08,0c-0.03,0-0.05,0-0.08,0 c-3.98,0-8.17,0.42-10.57,1.06c-7.55,2.01-9.46,5.56-11.71,11.65l8.37,3.2V78h28V59.72l8.28-3.2 c-2.25-6.09-4.12-9.64-11.67-11.65C99.67,44.23,95.52,43.81,91.54,43.81L91.54,43.81z" fill="#009984"/>
        </g>
        <g id="XMLID_8_">
          <path d="M90.9,49.85c-2.23,0-4.05-1.72-4.05-3.84v-4.8h9v4.8c0,2.12-1.81,3.84-4.04,3.84H90.9z" fill="#EDC391"/>
          <path d="M95.35,41.72v4.3c0,1.84-1.59,3.34-3.55,3.34H90.9c-1.95,0-3.55-1.5-3.55-3.34v-4.3h4H95.35 M96.35,40.72h-5h-5v5.3c0,2.4,2.04,4.34,4.55,4.34h0.91c2.51,0,4.55-1.94,4.55-4.34V40.72L96.35,40.72z" fill="#D9AC77"/>
        </g>
        <g>
          <g>
            <path d="M79.4,33.84c-2.31,0-4.19-2.02-4.19-4.5s1.88-4.5,4.19-4.5h23.95c2.31,0,4.19,2.02,4.19,4.5 s-1.88,4.5-4.19,4.5H79.4z" fill="#EDC391"/>
            <path d="M103.35,25.34c2.04,0,3.69,1.79,3.69,4s-1.66,4-3.69,4h-3.23H82.63H79.4c-2.04,0-3.69-1.79-3.69-4 s1.66-4,3.69-4h3.23h17.49H103.35 M103.35,24.34h-3.23H82.63H79.4c-2.58,0-4.69,2.25-4.69,5s2.11,5,4.69,5h3.23h17.49h3.23 c2.58,0,4.69-2.25,4.69-5S105.93,24.34,103.35,24.34L103.35,24.34z" fill="#D9AC77"/>
          </g>
          <g>
            <linearGradient id="SVGID_8_" gradientTransform="matrix(-1 0 0 1 127.4631 0)" gradientUnits="userSpaceOnUse" x1="36.0412" x2="36.0412" y1="7.0222" y2="43.5119">
              <stop offset="0.6007" style="stop-color:#F9DDBD"/>
              <stop offset="1" style="stop-color:#FFD29C"/>
            </linearGradient>
            <path d="M91.42,43.49c-6.83,0-14.19-5.3-14.19-16.94c0-9.32,5.42-19.39,14.19-19.39 s14.19,10.06,14.19,19.39C105.61,38.19,98.25,43.49,91.42,43.49z" fill="url(#SVGID_8_)"/>
            <path d="M91.42,7.66L91.42,7.66c3.44,0,6.87,1.88,9.41,5.16c2.76,3.55,4.27,8.43,4.27,13.73 c0,5.15-1.48,9.44-4.29,12.41c-2.46,2.6-5.8,4.03-9.4,4.03s-6.94-1.43-9.4-4.03c-2.81-2.97-4.29-7.26-4.29-12.41 c0-5.3,1.52-10.18,4.27-13.73C84.55,9.54,87.98,7.66,91.42,7.66 M91.42,6.66L91.42,6.66L91.42,6.66 c-7.63,0-14.69,8.15-14.69,19.89c0,11.67,7.28,17.44,14.69,17.44s14.69-5.77,14.69-17.44C106.11,14.81,99.05,6.66,91.42,6.66 L91.42,6.66z" fill="#EDBD82"/>
          </g>
          <g>
            <radialGradient id="SVGID_9_" cx="98.5743" cy="24.2496" gradientUnits="userSpaceOnUse" r="2.6099">
              <stop offset="0.0905" style="stop-color:#454140"/>
              <stop offset="1" style="stop-color:#454140"/>
            </radialGradient>
            <path d="M101.89,24.47c0,0-0.06-0.08-0.17-0.22c-0.03-0.03-0.05-0.07-0.09-0.11 c-0.05-0.05-0.1-0.09-0.16-0.15c-0.06-0.05-0.12-0.11-0.19-0.17c-0.07-0.06-0.14-0.1-0.21-0.15c-0.07-0.05-0.15-0.1-0.23-0.15 c-0.09-0.05-0.17-0.09-0.26-0.14c-0.09-0.05-0.19-0.09-0.29-0.13c-0.1-0.04-0.2-0.08-0.31-0.12 c-0.22-0.06-0.44-0.13-0.67-0.16c-0.23-0.05-0.47-0.05-0.71-0.06c-0.24,0.01-0.48,0.02-0.71,0.06 c-0.23,0.03-0.46,0.1-0.67,0.16c-0.11,0.04-0.21,0.08-0.31,0.12c-0.1,0.04-0.2,0.08-0.29,0.13c-0.09,0.05-0.18,0.1-0.26,0.14 c-0.08,0.05-0.16,0.1-0.23,0.15c-0.07,0.05-0.14,0.1-0.21,0.15c-0.06,0.05-0.12,0.11-0.17,0.15c-0.05,0.05-0.1,0.09-0.15,0.14 c-0.04,0.05-0.08,0.09-0.11,0.13c-0.13,0.16-0.2,0.25-0.2,0.25c-0.22,0.31-0.15,0.74,0.16,0.96c0.19,0.14,0.42,0.16,0.63,0.09 l0.13-0.04c0,0,0.08-0.03,0.21-0.09c0.03-0.01,0.07-0.03,0.11-0.05c0.04-0.01,0.08-0.03,0.13-0.05 c0.09-0.04,0.19-0.08,0.31-0.11c0.06-0.02,0.11-0.04,0.17-0.06c0.06-0.01,0.12-0.03,0.19-0.05c0.03-0.01,0.06-0.02,0.1-0.03 c0.03-0.01,0.07-0.01,0.1-0.02c0.07-0.01,0.14-0.03,0.21-0.04c0.14-0.02,0.29-0.05,0.44-0.05c0.15-0.02,0.3-0.01,0.45-0.02 c0.15,0.01,0.3,0,0.45,0.02c0.15,0.01,0.29,0.04,0.44,0.05c0.07,0.01,0.14,0.03,0.21,0.04c0.03,0.01,0.07,0.01,0.1,0.02 c0.03,0.01,0.06,0.02,0.1,0.03c0.06,0.02,0.13,0.03,0.19,0.05c0.06,0.02,0.12,0.04,0.17,0.06c0.06,0.02,0.11,0.03,0.16,0.05 c0.05,0.02,0.09,0.03,0.13,0.04c0.04,0.01,0.08,0.03,0.12,0.04c0.04,0.02,0.09,0.04,0.13,0.06c0.16,0.08,0.25,0.12,0.25,0.12 c0.36,0.15,0.78-0.02,0.93-0.38C102.06,24.92,102.02,24.66,101.89,24.47z" fill="url(#SVGID_9_)"/>
            <g>
              <radialGradient id="SVGID_10_" cx="84.1716" cy="24.2497" gradientUnits="userSpaceOnUse" r="2.61">
                <stop offset="0.0905" style="stop-color:#454140"/>
                <stop offset="1" style="stop-color:#454140"/>
              </radialGradient>
              <path d="M81.71,25.53c0,0,0.09-0.04,0.25-0.12c0.04-0.02,0.08-0.05,0.13-0.06 c0.04-0.01,0.08-0.02,0.12-0.04c0.04-0.01,0.08-0.03,0.13-0.04c0.05-0.02,0.1-0.03,0.16-0.05c0.06-0.02,0.11-0.04,0.17-0.06 c0.06-0.02,0.12-0.03,0.19-0.05c0.03-0.01,0.06-0.02,0.1-0.03c0.03-0.01,0.07-0.01,0.1-0.02c0.07-0.01,0.14-0.03,0.21-0.04 c0.14-0.02,0.29-0.05,0.44-0.05c0.15-0.02,0.3-0.02,0.45-0.02c0.15,0.01,0.3,0,0.45,0.02c0.15,0.01,0.29,0.04,0.44,0.05 c0.07,0.01,0.14,0.03,0.21,0.04c0.03,0.01,0.07,0.01,0.1,0.02c0.03,0.01,0.06,0.02,0.1,0.03c0.06,0.02,0.13,0.03,0.19,0.05 c0.06,0.02,0.12,0.04,0.17,0.06c0.11,0.03,0.22,0.07,0.31,0.11c0.05,0.02,0.09,0.04,0.13,0.05c0.04,0.02,0.07,0.03,0.11,0.05 c0.13,0.06,0.21,0.09,0.21,0.09l0.12,0.04c0.36,0.13,0.75-0.06,0.88-0.42c0.08-0.22,0.03-0.45-0.09-0.63 c0,0-0.07-0.09-0.2-0.25c-0.03-0.04-0.07-0.08-0.11-0.13c-0.04-0.04-0.09-0.09-0.15-0.14c-0.05-0.05-0.11-0.1-0.17-0.15 c-0.06-0.05-0.13-0.1-0.21-0.15c-0.07-0.05-0.15-0.1-0.23-0.15c-0.09-0.05-0.17-0.09-0.26-0.14 c-0.09-0.05-0.19-0.09-0.29-0.13c-0.1-0.04-0.2-0.08-0.31-0.12c-0.22-0.06-0.44-0.13-0.67-0.16 c-0.23-0.05-0.47-0.05-0.71-0.06c-0.24,0.01-0.48,0.02-0.71,0.06c-0.23,0.03-0.46,0.1-0.67,0.16 c-0.11,0.04-0.21,0.08-0.31,0.12c-0.1,0.04-0.2,0.08-0.29,0.13c-0.09,0.05-0.18,0.1-0.26,0.14c-0.08,0.05-0.16,0.1-0.23,0.15 c-0.07,0.05-0.14,0.1-0.21,0.15c-0.07,0.06-0.13,0.11-0.19,0.17c-0.06,0.05-0.11,0.1-0.16,0.15 c-0.04,0.04-0.07,0.08-0.09,0.11c-0.11,0.14-0.17,0.22-0.17,0.22c-0.22,0.32-0.14,0.76,0.19,0.98 C81.24,25.6,81.5,25.61,81.71,25.53z" fill="url(#SVGID_10_)"/>
            </g>
          </g>
          <g>
            <ellipse cx="98.57" cy="28.45" fill="#312D2D" rx="2.16" ry="2.24"/>
            <ellipse cx="84.17" cy="28.45" fill="#312D2D" rx="2.16" ry="2.24"/>
          </g>
          <g>
            <radialGradient id="SVGID_11_" cx="36.1372" cy="5.1422" gradientTransform="matrix(-1 0 0 1 127.4631 0)" gradientUnits="userSpaceOnUse" r="13.3159">
              <stop offset="1.342147e-03" style="stop-color:#454140"/>
              <stop offset="1" style="stop-color:#312D2D"/>
            </radialGradient>
            <path d="M91.25,4.01c20.07,0,15.85,23.06,15.85,23.06s-2.11,3.73-2.11,3.65 c0.07-3.18-1.2-8.8-2.1-11.2c-0.45-1.21-1.71-1.91-2.98-1.68c-1.95,0.35-5.06,0.79-8.49,0.79c-3.29,0-6.32-0.4-8.3-0.75 c-1.36-0.24-2.68,0.6-3.03,1.93l-2.49,10.9l-2.06-3.98C75.54,26.73,71.43,4.01,91.25,4.01z" fill="url(#SVGID_11_)"/>
          </g>
          <g>
            <defs>
              <path id="SVGID_12_" d="M91.25,4.01c20.07,0,16.1,22.49,16.1,22.49s-2.37,4.3-2.37,4.22c0.02-0.68-0.42-3.49-0.42-3.49v0 c0.77-1.47,1.18-3.11,1.18-4.78v-0.49l-1.18-4.38L91.35,9.43l-13.02,8.09l-1.1,5.05l-0.04,0.46 c0.18,1.47,0.63,2.81,1.19,4.18v0l-0.78,3.52l-2.11-4.18C75.49,26.54,71.43,4.01,91.25,4.01z"/>
            </defs>
            <clipPath id="SVGID_13_">
              <use overflow="visible" xlink:href="#SVGID_12_"/>
            </clipPath>
            <g clip-path="url(#SVGID_13_)">
              <path d="M91.25,6.01c4.85,0,8.53,1.44,10.93,4.28c2.88,3.41,3.5,8.24,3.52,11.68 c-0.32-1.26-0.65-2.37-0.95-3.15c-0.68-1.81-2.43-3.02-4.37-3.02c-0.28,0-0.56,0.03-0.84,0.08 c-1.91,0.35-4.87,0.76-8.13,0.76c-3.16,0-6.07-0.39-7.96-0.72c-0.27-0.05-0.54-0.07-0.8-0.07c-2.11,0-3.96,1.42-4.5,3.45 c-0.01,0.02-0.01,0.05-0.02,0.07l-0.91,4c-0.15-3.5,0.18-9.29,3.43-13.17C82.98,7.42,86.55,6.01,91.25,6.01 M91.25,4.01 c-19.82,0-15.71,22.72-15.71,22.72l2.06,3.98l2.49-10.9c0.32-1.18,1.39-1.97,2.57-1.97c0.15,0,0.31,0.01,0.46,0.04 c1.98,0.35,5.01,0.75,8.3,0.75c3.43,0,6.54-0.44,8.49-0.79c0.16-0.03,0.32-0.04,0.48-0.04c1.09,0,2.1,0.67,2.5,1.72 c0.9,2.39,2.17,8.02,2.1,11.2c0,0,0,0,0,0c0.04,0,2.41-4.22,2.41-4.22S111.32,4.01,91.25,4.01L91.25,4.01z" fill="#1F1A1A"/>
            </g>
          </g>
          <g>
            <path d="M87.66,36.43c1.4,0.83,5.97,0.83,7.37,0c0.8-0.48,1.62,0.25,1.29,0.98c-0.33,0.72-2.82,2.38-4.98,2.38 s-4.62-1.66-4.95-2.38C86.05,36.69,86.86,35.96,87.66,36.43z" fill="#424242"/>
            <path d="M89.86,32.4c0.05-0.02,0.09-0.03,0.14-0.04h3.1c0.05,0.01,0.09,0.02,0.14,0.04 c0.28,0.11,0.44,0.4,0.3,0.71c-0.13,0.31-0.75,1.18-1.99,1.18c-1.24,0-1.86-0.87-1.99-1.18 C89.43,32.81,89.58,32.52,89.86,32.4z" fill="#DBA689"/>
          </g>
        </g>
      </g>
      <g>
        <g>
          <g>
            <linearGradient id="SVGID_14_" gradientTransform="matrix(-1 0 0 1 127.4631 0)" gradientUnits="userSpaceOnUse" x1="105.206" x2="121.4962" y1="56.3348" y2="83.226">
              <stop offset="2.052774e-03" style="stop-color:#CCA47A"/>
              <stop offset="0.2584" style="stop-color:#D6B088"/>
              <stop offset="0.5901" style="stop-color:#DEB892"/>
              <stop offset="1" style="stop-color:#E0BB95"/>
            </linearGradient>
            <path d="M5.13,86.97c-0.57,0-1.49-0.85-1.66-1.18c-0.16-0.31-0.62-1.54,0.12-4.35 c0.63-2.38,1.03-2.95,2.79-4.74c0.04-0.04,0.08-0.09,0.11-0.14c1.93-2.85,6.17-9.17,6.17-9.17c0.03-0.05,0.06-0.1,0.08-0.15 l5.72-12.7l7.99,0.49l-0.22,2.79L11.27,78.84c-0.09,0.13-0.15,0.27-0.17,0.43l-0.62,4.01c-0.5,0.83-1.11,1.77-1.4,2.14 c0-0.03,0-0.07,0-0.12c0.02-0.36,0.14-0.78,0.24-1.14c0.19-0.66,0.37-1.29,0.04-1.85c-0.18-0.3-0.46-0.51-0.81-0.59 c-0.12-0.03-0.23-0.04-0.35-0.04c-1.33,0-1.69,1.49-2.04,2.93c-0.2,0.83-0.48,1.96-0.84,2.29C5.26,86.95,5.21,86.97,5.13,86.97 z" fill="url(#SVGID_14_)"/>
            <path d="M19.09,55.58l6.29,0.39l-0.12,1.5L10.45,78.26c-0.18,0.25-0.3,0.55-0.35,0.86l-0.33,2.15 c-0.28-0.25-0.62-0.43-0.99-0.52c-0.19-0.05-0.39-0.07-0.58-0.07c-2.11,0-2.63,2.13-3.01,3.69c-0.09,0.37-0.23,0.96-0.38,1.38 c-0.18-0.14-0.37-0.31-0.46-0.44c-0.08-0.18-0.43-1.2,0.21-3.61c0.58-2.19,0.86-2.58,2.54-4.3c0.08-0.09,0.16-0.18,0.23-0.28 c1.93-2.85,6.17-9.18,6.17-9.18c0.06-0.09,0.12-0.19,0.16-0.29L19.09,55.58 M17.83,53.5c0,0-4.5,10-6,13.33 c0,0-4.24,6.32-6.17,9.17c-1.88,1.92-2.36,2.62-3.04,5.19c-0.75,2.83-0.4,4.38-0.04,5.06c0.27,0.53,1.48,1.72,2.55,1.72 c0.31,0,0.61-0.1,0.87-0.34c1.2-1.11,1.15-4.95,2.2-4.95c0.04,0,0.07,0,0.11,0.01c0.6,0.15-0.16,1.36-0.23,2.56 c-0.05,0.87,0.42,1.22,0.93,1.22c0.19,0,0.39-0.05,0.57-0.14c0.33-0.17,1.85-2.71,1.85-2.71l0.65-4.21l15.13-21.24l0.32-4.08 L17.83,53.5L17.83,53.5z" fill="#BA8F63"/>
          </g>
          <g>
            <linearGradient id="SVGID_15_" gradientTransform="matrix(1 0 0 1 -93.25 0)" gradientUnits="userSpaceOnUse" x1="95.9012" x2="95.9375" y1="84.0657" y2="84.0657">
              <stop offset="0" style="stop-color:#FFB300"/>
              <stop offset="0.4007" style="stop-color:#FFCA28"/>
            </linearGradient>
            <path d="M2.66,84.19c0.02-0.15,0.03-0.26,0.03-0.26S2.64,84.21,2.66,84.19z" fill="url(#SVGID_15_)"/>
            <path d="M2.69,83.94L2.69,83.94L2.69,83.94z M2.69,83.94c0,0-0.05,0.26-0.03,0.26c0,0,0,0,0,0 C2.67,84.04,2.69,83.94,2.69,83.94L2.69,83.94z" fill="#EDA600"/>
          </g>
        </g>
        <g>
          <radialGradient id="SVGID_16_" cx="91.353" cy="-2.078" gradientTransform="matrix(-1 0 0 1 127.4631 0)" gradientUnits="userSpaceOnUse" r="21.7899">
            <stop offset="1.342147e-03" style="stop-color:#BFA055"/>
            <stop offset="0.9973" style="stop-color:#AB872F"/>
          </radialGradient>
          <path d="M35.97,4c18.19,0,18.04,16.82,18.04,17.08c0,10.89-0.83,26.28-5.19,32.33 c-1.73,2.4-5.07,2.53-5.07,2.53l-7.53-0.01l-7.53,0.01c0,0-3.34-0.13-5.07-2.53c-4.36-6.05-5.19-21.44-5.19-32.33 C18.44,20.82,17.79,4,35.97,4z" fill="url(#SVGID_16_)"/>
        </g>
        <path d="M35.97,6c5.03,0,8.97,1.39,11.7,4.13c4.3,4.31,4.34,10.68,4.34,10.95c0,15.78-1.71,26.85-4.81,31.16 c-1.06,1.47-3.25,1.68-3.5,1.7l-7.47-0.01l-7.46,0.01c-0.29-0.02-2.46-0.24-3.51-1.7c-3.1-4.31-4.81-15.38-4.81-31.16 c0-0.01,0-0.05,0-0.07c-0.01-0.69-0.02-6.81,4.05-10.96C27.12,7.36,30.99,6,35.97,6 M35.97,4C17.79,4,18.44,20.82,18.44,21.08 c0,10.89,0.83,26.28,5.19,32.33c1.73,2.4,5.07,2.53,5.07,2.53l7.53-0.01l7.53,0.01c0,0,3.34-0.13,5.07-2.53 c4.36-6.05,5.19-21.44,5.19-32.33C54.01,20.82,54.16,4,35.97,4L35.97,4z" fill="#8F7635"/>
        <linearGradient id="SVGID_17_" gradientTransform="matrix(-1 0 0 1 127.4631 0)" gradientUnits="userSpaceOnUse" x1="91.1114" x2="91.1114" y1="122.6899" y2="78.0066">
          <stop offset="1.058344e-03" style="stop-color:#616161"/>
          <stop offset="0.446" style="stop-color:#6B6B6B"/>
          <stop offset="1" style="stop-color:#6E6E6E"/>
        </linearGradient>
        <path d="M50.33,78.01v44.68h-5.65l-7.87-38.21c-0.04-0.24-0.24-0.41-0.46-0.41 c-0.22,0-0.42,0.17-0.46,0.41l-7.87,38.21h-5.65V78.01H50.33z" fill="url(#SVGID_17_)"/>
        <g>
          <path d="M45.56,121.69l-7.71-37.41c-0.13-0.69-0.73-1.2-1.44-1.2s-1.31,0.51-1.44,1.22l-7.7,37.39h-3.83V75.61 h25.95v46.08H45.56z" fill="#7C7C7C"/>
          <path d="M48.39,76.61v44.08h-2.02l-7.53-36.58c-0.22-1.18-1.24-2.04-2.43-2.04s-2.2,0.86-2.42,2l-7.54,36.61 h-2.02V76.61H48.39 M50.39,74.61H22.44v48.08h5.65l7.87-38.21c0.04-0.24,0.24-0.41,0.46-0.41c0.22,0,0.42,0.17,0.46,0.41 l7.87,38.21h5.65V74.61L50.39,74.61z" fill="#5B5B5B"/>
        </g>
        <g>
          <linearGradient id="SVGID_18_" gradientTransform="matrix(-1 0 0 1 127.4631 0)" gradientUnits="userSpaceOnUse" x1="91.0446" x2="91.0446" y1="44.8145" y2="77">
            <stop offset="0" style="stop-color:#AA00FF"/>
            <stop offset="0.4193" style="stop-color:#A100F2"/>
            <stop offset="1" style="stop-color:#9000D9"/>
          </linearGradient>
          <path d="M23.46,77V59.72c0-0.41-0.26-0.79-0.64-0.93l-7.44-2.85c2.11-5.49,4.09-8.35,10.68-10.1 c2.3-0.61,6.45-1.03,10.32-1.03h0.16c3.84,0,7.97,0.41,10.27,1.03c6.55,1.74,8.53,4.6,10.64,10.11l-7.35,2.84 c-0.39,0.15-0.64,0.52-0.64,0.93V77H23.46z" fill="url(#SVGID_18_)"/>
          <path d="M36.54,45.81c3.76,0,7.79,0.4,10.01,0.99c5.81,1.55,7.68,3.81,9.6,8.57l-6.42,2.48 c-0.77,0.3-1.28,1.04-1.28,1.87V76h-24V59.72c0-0.83-0.51-1.57-1.29-1.87l-6.5-2.49c1.89-4.66,3.83-7.02,9.64-8.56 c2.23-0.59,6.27-0.99,10.06-0.99l0.08,0L36.54,45.81 M36.54,43.81c-0.03,0-0.05,0-0.08,0c-0.03,0-0.05,0-0.08,0 c-3.98,0-8.17,0.42-10.57,1.06c-7.55,2.01-9.46,5.56-11.71,11.65l8.37,3.2V78h28V59.72l8.28-3.2 c-2.25-6.09-4.12-9.64-11.67-11.65C44.67,44.23,40.52,43.81,36.54,43.81L36.54,43.81z" fill="#7F00BF"/>
        </g>
        <g>
          <g id="XMLID_2_">
            <g id="XMLID_13_">
              <path d="M35.42,49.85c-2.23,0-4.05-1.72-4.05-3.84v-4.8h9v4.8c0,2.12-1.81,3.84-4.04,3.84H35.42z" fill="#C48E6A"/>
              <path d="M39.88,41.72v4.3c0,1.84-1.59,3.34-3.55,3.34h-0.91c-1.95,0-3.55-1.5-3.55-3.34v-4.3h4H39.88 M40.88,40.72h-5h-5v5.3c0,2.4,2.04,4.34,4.55,4.34h0.91c2.51,0,4.55-1.94,4.55-4.34V40.72L40.88,40.72z" fill="#B07853"/>
            </g>
          </g>
          <g>
            <g>
              <linearGradient id="SVGID_19_" gradientTransform="matrix(-1 0 0 1 127.4631 0)" gradientUnits="userSpaceOnUse" x1="91.7214" x2="91.7214" y1="43.2241" y2="8.7533">
                <stop offset="2.052774e-03" style="stop-color:#CCA47A"/>
                <stop offset="0.2584" style="stop-color:#D6B088"/>
                <stop offset="0.5901" style="stop-color:#DEB892"/>
                <stop offset="1" style="stop-color:#E0BB95"/>
              </linearGradient>
              <path d="M35.74,43.47c-1.01,0-2.15-0.22-3.32-0.62c-5.02-1.77-10.88-7.21-10.88-16.75 c0-12.7,7.65-17.2,14.19-17.2c6.55,0,14.19,4.51,14.19,17.2c0,9.52-5.85,14.97-10.86,16.75 C37.91,43.25,36.75,43.47,35.74,43.47z" fill="url(#SVGID_19_)"/>
              <path d="M35.74,9.39L35.74,9.39c6.32,0,13.69,4.37,13.69,16.7c0,9.26-5.67,14.56-10.52,16.28 c-1.12,0.39-2.21,0.6-3.17,0.6c-0.95,0-2.04-0.21-3.15-0.6c-4.86-1.71-10.54-7-10.54-16.28 C22.05,13.77,29.43,9.39,35.74,9.39 M35.74,8.39L35.74,8.39c-7.63,0-14.69,5.67-14.69,17.7c0,9.67,6,15.39,11.21,17.23 c1.23,0.43,2.43,0.65,3.48,0.65c1.06,0,2.26-0.22,3.5-0.66c5.21-1.84,11.19-7.56,11.19-17.22 C50.43,14.06,43.37,8.39,35.74,8.39L35.74,8.39z" fill="#BA8F63"/>
            </g>
            <g>
              <ellipse cx="43.08" cy="28.33" fill="#5D4037" rx="2.16" ry="2.24"/>
              <ellipse cx="28.67" cy="28.33" fill="#5D4037" rx="2.16" ry="2.24"/>
            </g>
            <path d="M34.19,32.4c0.05-0.02,0.09-0.03,0.14-0.04h3.1c0.05,0.01,0.09,0.02,0.14,0.04 c0.28,0.11,0.44,0.4,0.3,0.71c-0.13,0.31-0.75,1.18-1.99,1.18c-1.24,0-1.86-0.87-1.99-1.18C33.75,32.81,33.9,32.52,34.19,32.4 z" fill="#C48E6A"/>
            <g>
              <path d="M39.87,24.32c0.41-0.54,1.36-1.34,3.21-1.34s2.8,0.79,3.21,1.34c0.18,0.24,0.14,0.52,0.01,0.69 c-0.12,0.16-0.46,0.3-0.84,0.17c-0.38-0.13-1.13-0.51-2.37-0.52c-1.25,0.01-1.99,0.39-2.37,0.52 c-0.38,0.13-0.73-0.02-0.84-0.17C39.74,24.83,39.69,24.56,39.87,24.32z" fill="#AB872F"/>
              <path d="M25.46,24.32c0.41-0.54,1.36-1.34,3.21-1.34c1.84,0,2.8,0.79,3.21,1.34 c0.18,0.24,0.14,0.52,0.01,0.69c-0.12,0.16-0.46,0.3-0.84,0.17c-0.38-0.13-1.13-0.51-2.37-0.52 c-1.25,0.01-1.99,0.39-2.37,0.52c-0.38,0.13-0.73-0.02-0.84-0.17C25.33,24.83,25.28,24.56,25.46,24.32z" fill="#AB872F"/>
            </g>
            <g>
              <radialGradient id="SVGID_20_" cx="124.3498" cy="3.4406" gradientTransform="matrix(9.913657e-14 1 -0.9288 9.913657e-14 39.0716 -120.9092)" gradientUnits="userSpaceOnUse" r="16.5144">
                <stop offset="7.612179e-04" style="stop-color:#BFA055"/>
                <stop offset="1" style="stop-color:#AB872F"/>
              </radialGradient>
              <path d="M51.56,22.14c0-5.82-3.82-15.59-15.54-15.59c-12.12,0-15.84,11.34-15.84,15.59 c0,12.82,1.15,19.17,2.42,21.79c0.24,0.5,0.96,0.73,1.19-0.47c0,0-0.9-7.77-1-13.31c-0.02-1.29-0.42-6.09,2.29-6.69 c9.92-2.23,15.53-7.49,15.53-7.49c1.46,3.19,6.02,6.29,7.66,7.48c1.35,0.97,1.16,4.97,1.13,6.67l-1.35,13.32 c0,0,0.08,3.17,1.39,0.5C50.75,41.26,51.56,26.44,51.56,22.14z" fill="url(#SVGID_20_)"/>
            </g>
            <path d="M32.19,35.99c1.4,0.83,5.97,0.83,7.37,0c0.8-0.48,1.62,0.25,1.29,0.98c-0.33,0.72-2.82,2.38-4.98,2.38 c-2.16,0-4.62-1.66-4.95-2.38C30.58,36.24,31.39,35.51,32.19,35.99z" fill="#5D4037"/>
          </g>
        </g>
        <g>
          <path d="M47.33,124h4.45c0.82-0.02,1.41-0.96,1.17-1.78c-0.74-2.49-2.99-4.32-5.62-4.32 c-2.68,0-4.96,1.9-5.66,4.46c-0.22,0.82,0.39,1.63,1.21,1.63H47.33z" fill="#2B2D2D"/>
          <path d="M25.29,124h-4.45c-0.82-0.02-1.41-0.96-1.17-1.78c0.74-2.49,2.99-4.32,5.62-4.32 c2.68,0,4.96,1.9,5.66,4.46c0.22,0.82-0.39,1.63-1.21,1.63H25.29z" fill="#2B2D2D"/>
        </g>
      </g>
    </g>
  </g>
</svg>