<svg viewBox="0 0 128 128" xmlns="http://www.w3.org/2000/svg" xmlns:xlink="http://www.w3.org/1999/xlink">
  <g id="Layer_3">
    <g>
      <g>
        <linearGradient id="SVGID_4_" gradientTransform="matrix(0.9955 0.0952 -0.0952 0.9955 -63.7281 61.5616)" gradientUnits="userSpaceOnUse" x1="113.2855" x2="124.3933" y1="23.0814" y2="23.0814">
          <stop offset="0" style="stop-color:#FFD29C"/>
          <stop offset="0.0237" style="stop-color:#FFD39E"/>
          <stop offset="0.3158" style="stop-color:#FCD8AF"/>
          <stop offset="0.6295" style="stop-color:#FADCBA"/>
          <stop offset="1" style="stop-color:#F9DDBD"/>
        </linearGradient>
        <path d=" M50.58,88.82c-1.64,0.3-3.18,1.64-3.43,3.29c-0.12,0.82,0.12,1.64,0.36,2.43c0.65,2.11,1.33,4.2,2.04,6.28 c0.39,1.14,0.96,2.43,2.13,2.71c0.78,0.19,1.61-0.17,2.18-0.74c0.57-0.56,0.92-1.31,1.23-2.05c1.43-3.44,3.13-4.92,3.18-8.65 C58.34,87.35,54.1,88.19,50.58,88.82z" fill="url(#SVGID_4_)" stroke="#EDBD82" stroke-linecap="round" stroke-linejoin="round" stroke-miterlimit="10"/>
        <g>
          <linearGradient id="SVGID_5_" gradientUnits="userSpaceOnUse" x1="68.8251" x2="67.6369" y1="65.9853" y2="93.8249">
            <stop offset="0" style="stop-color:#FFB504"/>
            <stop offset="0.4699" style="stop-color:#FFCA28"/>
          </linearGradient>
          <path d="M59.43,96.84c-3.04,0-4.78-1.71-5.12-3.29c-0.27-1.26,0.3-2.34,1.53-2.89l12.96-4.4 c0.2-0.07,0.34-0.26,0.34-0.48c0-0.42-2.18-6.29-4.05-11.24l7.65-13.57c2.09,4.58,6.8,18.37,8.39,25.74 c0.64,2.98-0.54,6.46-4.62,7.52c-4.78,1.24-9.37,1.86-16.18,2.57C60.03,96.83,59.72,96.84,59.43,96.84z" fill="url(#SVGID_5_)"/>
          <path d="M72.69,62.09c2.21,5.25,6.5,17.97,7.96,24.72c0.44,2.05,0.04,5.81-4.25,6.93 c-4.75,1.23-9.32,1.85-16.1,2.56c-0.29,0.03-0.58,0.05-0.86,0.05c-2.76,0-4.33-1.5-4.63-2.89c-0.22-1.02,0.22-1.86,1.21-2.31 l12.95-4.4c0.41-0.14,0.68-0.53,0.68-0.96c0-0.21-0.01-0.59-4-11.2L72.69,62.09 M72.78,59.89L64.54,74.5 c0,0,4.09,10.86,4.1,11.29l-13,4.42c-3.64,1.62-1.84,7.13,3.79,7.13c0.31,0,0.63-0.02,0.96-0.05 c6.38-0.67,11.23-1.28,16.25-2.58c4.5-1.17,5.63-5.09,4.98-8.11C79.89,78.59,74.52,63.2,72.78,59.89L72.78,59.89z" fill="#EDA600"/>
        </g>
        <g>
          <linearGradient id="SVGID_6_" gradientUnits="userSpaceOnUse" x1="59.5511" x2="48.7407" y1="68.5833" y2="120.0146">
            <stop offset="0.5301" style="stop-color:#FFCA28"/>
            <stop offset="1" style="stop-color:#FFB504"/>
          </linearGradient>
          <path d="M45.8,123.56c-0.26,0-0.49-0.05-0.69-0.16c-0.83-0.44-1.03-1.64-1.11-2.75 c-0.17-2.16-0.3-4.37-0.4-6.58c-0.03-0.72-0.07-1.55,0.22-2.23c0.6-1.41,2.38-1.84,3.38-1.97c0.21-0.03,0.38-0.19,0.43-0.4 l3.22-15.87l1.48-24.32l10.56-8.47c0.89,4.43,1.76,9.11,2.06,13.52c-0.08,0.32-0.16,0.85-0.3,1.76 c-0.54,3.56-1.79,11.9-4.15,20.1c-2.21,7.7-8.37,19.14-8.43,19.26c-0.03,0.06-2.18,4.37-3.61,6.25 c-0.42,0.55-0.92,1.17-1.56,1.54C46.56,123.45,46.17,123.56,45.8,123.56L45.8,123.56z" fill="url(#SVGID_6_)"/>
          <path d="M62.56,61.72c0.82,4.16,1.61,8.51,1.89,12.61c-0.09,0.39-0.18,0.93-0.29,1.69 c-0.54,3.55-1.79,11.87-4.14,20.04c-2.2,7.65-8.33,19.05-8.4,19.19c-0.02,0.04-2.15,4.31-3.55,6.16 c-0.39,0.51-0.85,1.09-1.41,1.41c-0.27,0.16-0.59,0.25-0.86,0.25c-0.17,0-0.33-0.03-0.46-0.1c-0.62-0.33-0.78-1.43-0.85-2.35 c-0.17-2.18-0.3-4.38-0.4-6.57c-0.04-0.81-0.05-1.48,0.18-2.01c0.52-1.23,2.26-1.58,2.99-1.67c0.42-0.06,0.77-0.37,0.85-0.79 l3.22-15.87c0.01-0.05,0.02-0.09,0.02-0.14l1.46-24.03L62.56,61.72 M62.91,60.16l-11.06,8.87L50.36,93.5l-3.22,15.87 c-1.56,0.2-3.18,0.85-3.78,2.27c-0.32,0.76-0.3,1.62-0.26,2.45c0.1,2.2,0.23,4.4,0.4,6.6c0.09,1.2,0.32,2.59,1.38,3.16 c0.29,0.15,0.6,0.22,0.93,0.22c0.47,0,0.96-0.15,1.37-0.39c0.69-0.4,1.22-1.03,1.7-1.67c1.47-1.94,3.65-6.32,3.65-6.32 s6.21-11.51,8.47-19.36c3.12-10.86,4.32-21.95,4.47-21.95c0,0,0,0,0,0c-0.3-4.5-1.21-9.32-2.14-13.95L62.91,60.16L62.91,60.16z" fill="#EDA600"/>
        </g>
        <g>
          <linearGradient id="SVGID_7_" gradientTransform="matrix(-0.0568 0.9984 0.9984 0.0568 -44.6739 6.4109)" gradientUnits="userSpaceOnUse" x1="48.737" x2="48.737" y1="58.375" y2="143.1163">
            <stop offset="0.2643" style="stop-color:#FFCA28"/>
            <stop offset="1" style="stop-color:#FFB300"/>
          </linearGradient>
          <path d="M31.32,74.76c-0.39,0-0.79-0.05-1.2-0.15c-1.99-0.48-3.65-1.11-4.99-1.62 c-0.56-0.21-1.07-0.41-1.51-0.56c-0.48-0.16-0.71-0.68-0.65-1.06c0.08-0.52,0.64-0.59,0.96-0.59c0.28,0,0.61,0.05,0.98,0.16 c0.34,0.1,0.61,0.15,0.84,0.15c0.64,0,0.79-0.41,0.83-0.54c0.23-0.92-1.49-1.86-1.69-1.96c-0.32-0.17-0.72-0.25-1.21-0.25 c-0.75,0-1.61,0.19-2.45,0.37c-0.72,0.15-1.39,0.3-1.88,0.3c-0.33,0-0.42-0.07-0.44-0.08c-0.26-0.24-0.3-0.51-0.29-0.65 c0-0.17,0.07-0.29,0.11-0.33c0.98-0.87,3.35-1.77,5.63-1.77c0.12,0,0.23,0,0.35,0.01c0.85,0.04,2.03,0.68,3.18,1.31 c1.35,0.74,2.75,1.5,3.96,1.5c0.22,0,0.44-0.03,0.64-0.08c0.21-0.06,0.21-0.06,7.89-13.71l5.65-10.03l9.86,4.19 c-6.5,7.68-18.27,21.54-19,22.23C35.04,73.29,33.46,74.76,31.32,74.76z" fill="url(#SVGID_7_)"/>
          <path d="M46.24,45.78l8.85,3.76c-7.37,8.71-17.83,21.01-18.55,21.69c-1.76,1.63-3.27,3.03-5.22,3.03 c-0.35,0-0.71-0.04-1.08-0.13c-1.96-0.47-3.61-1.1-4.93-1.6c-0.57-0.22-1.07-0.41-1.52-0.56c-0.24-0.08-0.35-0.36-0.32-0.52 c0.03-0.16,0.31-0.18,0.48-0.18c0.24,0,0.52,0.05,0.84,0.14c0.39,0.11,0.7,0.17,0.98,0.17c0.79,0,1.19-0.47,1.3-0.91 c0.3-1.22-1.4-2.23-1.94-2.51c-0.39-0.21-0.86-0.31-1.44-0.31c-0.8,0-1.69,0.19-2.55,0.38c-0.66,0.14-1.34,0.29-1.77,0.29 c-0.07,0-0.12,0-0.16-0.01c-0.09-0.11-0.09-0.2-0.09-0.25c0.93-0.78,3.16-1.59,5.24-1.59c0.11,0,0.22,0,0.33,0.01 c0.74,0.03,1.87,0.65,2.97,1.25c1.41,0.77,2.86,1.56,4.19,1.56c0.27,0,0.52-0.03,0.76-0.09c0.4-0.1,0.4-0.1,1.29-1.67l1.76-3.12 l5.15-9.15L46.24,45.78 M19.12,68.22L19.12,68.22L19.12,68.22 M45.82,44.54c0,0-2.81,4.99-5.86,10.41 c-3.62,6.43-7.59,13.47-7.59,13.47c-0.16,0.04-0.33,0.06-0.51,0.06c-2.09,0-5.13-2.72-7.12-2.8c-0.12-0.01-0.25-0.01-0.37-0.01 c-2.33,0-4.86,0.92-5.95,1.89c-0.35,0.31-0.43,1.13,0.18,1.7c0.17,0.16,0.43,0.22,0.77,0.22c1.12,0,2.99-0.67,4.32-0.67 c0.38,0,0.72,0.05,0.98,0.19c1.22,0.64,1.92,1.58,1.09,1.58c-0.17,0-0.4-0.04-0.7-0.13c-0.43-0.13-0.8-0.18-1.12-0.18 c-1.98,0-1.76,2.18-0.47,2.61c1.5,0.5,3.69,1.51,6.54,2.19c0.46,0.11,0.89,0.16,1.31,0.16c2.34,0,4.06-1.6,5.9-3.3 c0.97-0.9,19.47-22.77,19.47-22.77L45.82,44.54L45.82,44.54z" fill="#EDA600"/>
        </g>
        <g>
          <linearGradient id="SVGID_8_" gradientTransform="matrix(1 0 0 1 16.7435 0)" gradientUnits="userSpaceOnUse" x1="73.1056" x2="73.1056" y1="42.3071" y2="84.5353">
            <stop offset="0.2643" style="stop-color:#FFCA28"/>
            <stop offset="1" style="stop-color:#FFB300"/>
          </linearGradient>
          <path d="M88.67,64.46c-1.26,0-2.52-0.66-3.21-1.69L75.18,50.75l8.3-4.29l5.63,9.37 c0.09,0.15,0.25,0.24,0.42,0.24c0.09,0,0.17-0.02,0.25-0.07l5.04-3.03c0.3-0.18,0.88-0.55,1.57-1c1.68-1.09,4.22-2.73,5.07-3.06 c0.12-0.05,0.25-0.09,0.39-0.12c0.14-0.03,0.29-0.05,0.45-0.05c0.54,0,1.07,0.2,1.46,0.55c0.08,0.08,0.16,0.15,0.23,0.23 c1.36,1.48-0.09,3.08-1.98,4.87l-0.36,0.34c-0.94,0.91-7.5,6.41-10.52,8.8c-0.2,0.15-0.43,0.29-0.68,0.4 c-0.04,0.02-0.07,0.04-0.1,0.06c-0.1,0.08-0.17,0.12-0.18,0.13C89.75,64.34,89.23,64.46,88.67,64.46 C88.67,64.46,88.67,64.46,88.67,64.46z" fill="url(#SVGID_8_)"/>
          <path d="M83.3,47.1l5.39,8.98c0.18,0.31,0.51,0.47,0.84,0.47c0.17,0,0.34-0.04,0.5-0.14l5.04-3.03 c0.31-0.18,0.88-0.56,1.58-1.01c1.56-1.01,4.18-2.71,4.98-3.02c0.12-0.05,0.22-0.08,0.31-0.1c0.11-0.02,0.23-0.04,0.34-0.04 c0.42,0,0.83,0.16,1.13,0.42c0.07,0.06,0.14,0.13,0.2,0.19c0.97,1.06,0.1,2.24-1.95,4.19l-0.36,0.34 c-0.94,0.9-7.46,6.38-10.47,8.76c-0.17,0.13-0.37,0.25-0.58,0.35c-0.07,0.03-0.14,0.07-0.2,0.12c-0.05,0.04-0.08,0.06-0.11,0.08 c-0.38,0.19-0.81,0.29-1.27,0.29c-1.1,0-2.21-0.58-2.81-1.47c-0.02-0.03-0.04-0.06-0.07-0.09L75.95,50.9L83.3,47.1 M83.67,45.82 l-9.25,4.78l10.65,12.45c0.8,1.19,2.22,1.91,3.62,1.91c0.61,0,1.22-0.14,1.77-0.43c0,0,0.08-0.05,0.21-0.15 c0.27-0.12,0.54-0.28,0.78-0.46c3.08-2.44,9.6-7.91,10.56-8.83c1.52-1.46,4.3-3.78,2.36-5.89c-0.08-0.09-0.17-0.17-0.26-0.26 c-0.49-0.44-1.14-0.68-1.79-0.68c-0.19,0-0.37,0.02-0.56,0.06c-0.16,0.03-0.31,0.08-0.46,0.14c-1.25,0.48-5.64,3.46-6.71,4.1 c-1.68,1.01-3.36,2.02-5.04,3.03L83.67,45.82L83.67,45.82z" fill="#EDA600"/>
        </g>
        <g>
          <linearGradient id="SVGID_9_" gradientTransform="matrix(1 -8.621460e-03 8.621460e-03 1 1.6019 0.9093)" gradientUnits="userSpaceOnUse" x1="62.0019" x2="62.0019" y1="28.7826" y2="76.4201">
            <stop offset="0" style="stop-color:#2CD1C9"/>
            <stop offset="0.188" style="stop-color:#609CB7"/>
            <stop offset="0.3756" style="stop-color:#8C6FA9"/>
            <stop offset="0.5546" style="stop-color:#AE4C9D"/>
            <stop offset="0.7227" style="stop-color:#C73395"/>
            <stop offset="0.8757" style="stop-color:#D62490"/>
            <stop offset="1" style="stop-color:#DB1F8E"/>
          </linearGradient>
          <path d="M83.93,46.43c0,0-3.21-7.54-20.55-7.39c-17.34,0.15-19.32,7.74-19.32,7.74l7.64,6.98l0.14,15.76 L62.36,76c0.79,0.39,1.66,0.59,2.54,0.58c0.91-0.01,1.81-0.24,2.61-0.67l8.95-6.61l-0.14-15.76L83.93,46.43z" fill="url(#SVGID_9_)"/>
        </g>
        <g>
          <linearGradient id="SVGID_10_" gradientTransform="matrix(1 -8.621460e-03 8.621460e-03 1 1.6019 0.9093)" gradientUnits="userSpaceOnUse" x1="62.0019" x2="62.0019" y1="28.7834" y2="76.4154">
            <stop offset="0" style="stop-color:#2CD1C9"/>
            <stop offset="0.188" style="stop-color:#609CB7"/>
            <stop offset="0.3756" style="stop-color:#8C6FA9"/>
            <stop offset="0.5546" style="stop-color:#AE4C9D"/>
            <stop offset="0.7227" style="stop-color:#C73395"/>
            <stop offset="0.8757" style="stop-color:#D62490"/>
            <stop offset="1" style="stop-color:#DB1F8E"/>
          </linearGradient>
          <path d="M83.93,46.43c0,0-3.21-7.54-20.55-7.39c-17.34,0.15-19.32,7.74-19.32,7.74l7.58,6.92l24.78-0.21 L83.93,46.43z" fill="url(#SVGID_10_)"/>
        </g>
        <g>
          <defs>
            <path id="SVGID_11_" d="M83.68,46.44c0,0-2.69-7.48-20.03-7.33c-17.34,0.15-17.79,7.66-17.79,7.66l6.55,6.93l24.78-0.21 L83.68,46.44z"/>
          </defs>
          <clipPath id="SVGID_12_">
            <use overflow="visible" xlink:href="#SVGID_11_"/>
          </clipPath>
          <g clip-path="url(#SVGID_12_)">
            <linearGradient id="SVGID_13_" gradientTransform="matrix(1 -8.621460e-03 8.621460e-03 1 1.6019 0.9093)" gradientUnits="userSpaceOnUse" x1="62.7538" x2="62.7538" y1="37.2979" y2="50.65">
              <stop offset="0.4398" style="stop-color:#FFCA28"/>
              <stop offset="1" style="stop-color:#E49800"/>
            </linearGradient>
            <path d="M64.62,47.87c-6.92,0-10.64-4.3-10.67-7.41c-0.03-3.23,4.77-5.89,10.69-5.94l0.17,0 c5.83,0,10.59,2.58,10.62,5.76c0.03,3.07-3.76,7.54-10.68,7.6L64.62,47.87z" fill="url(#SVGID_13_)"/>
            <path d="M64.82,35.02L64.82,35.02c5.46,0,10.1,2.41,10.12,5.26c0.01,1.52-0.94,3.23-2.55,4.56 c-1.94,1.6-4.65,2.5-7.63,2.53l-0.14,0c-6.51,0-10.14-4.09-10.17-6.91c-0.02-2.9,4.64-5.39,10.2-5.44L64.82,35.02 M64.82,34.02c-0.06,0-0.12,0-0.18,0c-6.21,0.05-11.22,2.94-11.19,6.45c0.03,3.48,4.16,7.91,11.17,7.91c0.05,0,0.1,0,0.14,0 c7.09-0.06,11.2-4.59,11.17-8.1C75.91,36.8,70.95,34.02,64.82,34.02L64.82,34.02z" fill="#EDA600"/>
          </g>
        </g>
        <path d="M63.65,40.11c13.6,0,17.92,4.52,19.02,6.12l-7.09,6.63c-0.21,0.19-0.32,0.47-0.32,0.75l0.32,15.37 l-8.54,6.19c-0.66,0.33-1.39,0.51-2.13,0.51c-0.71,0-1.42-0.16-2.06-0.48l-10.12-6.24V53.73c0-0.28-0.12-0.55-0.32-0.74 l-7.13-6.56C46.18,44.83,49.99,40.11,63.65,40.11 M63.65,39.11c-17.52,0-19.57,7.57-19.57,7.57l7.66,7.04V69.5l10.62,6.57 c0.79,0.4,1.67,0.61,2.56,0.61c0.92,0,1.83-0.22,2.64-0.65l9.04-6.53l-0.33-15.91l7.67-7.17 C83.93,46.42,81.16,39.11,63.65,39.11L63.65,39.11z" fill="#983BA1"/>
        <g>
          <g>
            <path d="M110.46,21.27l-0.09-0.03l-9.15,40.97 c-0.06,0.26,0.1,0.52,0.36,0.58s0.52-0.1,0.58-0.36c0,0,0-0.01,0-0.01L110.46,21.27z" fill="#6D4C41" stroke="#6D4C41" stroke-miterlimit="10"/>
            <g>
              <path d="M110.08,23.75c-0.09-0.07-0.2-0.1-0.3-0.1c-0.05,0-0.1,0.01-0.16,0.02l-3.08,1l1.08-3.05 c0.05-0.16,0.03-0.33-0.07-0.46l-1.91-2.62c0,0,3.24,0.08,3.25,0.08c0.16,0,0.31-0.08,0.41-0.21l1.9-2.62l0.92,3.1 c0.05,0.16,0.17,0.28,0.33,0.33l3.08,1l-2.66,1.84c-0.13,0.09-0.22,0.25-0.22,0.41l0,3.24L110.08,23.75z" fill="#FFD600"/>
              <path d="M111.01,16.91l0.64,2.13c0.09,0.32,0.34,0.56,0.65,0.67l2.12,0.68l-1.83,1.26 c-0.27,0.19-0.43,0.5-0.43,0.82l0,2.22l-1.77-1.35c-0.18-0.14-0.39-0.21-0.61-0.21c-0.1,0-0.21,0.02-0.31,0.05l-2.11,0.69 l0.74-2.1c0.11-0.31,0.06-0.65-0.13-0.92l-1.31-1.8l2.22,0.05c0.01,0,0.02,0,0.02,0c0.32,0,0.62-0.15,0.81-0.41L111.01,16.91 M111.39,14.69l-2.49,3.44l-4.25-0.1l2.5,3.44l-1.41,4.01l4.04-1.32l3.38,2.58l0-4.25l3.5-2.41l-4.04-1.31L111.39,14.69 L111.39,14.69z" fill="#E6A900"/>
            </g>
          </g>
          <g>
            <path d="M103.61,53.84c-1.88,0-3.38-1.09-4.03-2.9c-0.68-1.92-0.15-3.29,0.42-4.09 c0.93-1.33,2.54-2.02,3.65-2.02c0.4,0,0.73,0.09,0.93,0.26c0.94,0.79,3.65,6.49,3.41,7.52l-2.55,0.91 C104.82,53.73,104.21,53.84,103.61,53.84z" fill="#FFCA28"/>
            <path d="M103.65,45.33L103.65,45.33c0.32,0,0.52,0.07,0.6,0.14c0.96,0.85,2.99,5.42,3.22,6.8l-2.2,0.79 c-0.55,0.2-1.11,0.3-1.65,0.3c-1.68,0-2.98-0.94-3.56-2.57c-0.49-1.38-0.37-2.6,0.36-3.64 C101.24,45.95,102.67,45.33,103.65,45.33 M103.65,44.33c-2.31,0-6.06,2.51-4.54,6.78c0.77,2.16,2.54,3.24,4.5,3.24 c0.65,0,1.32-0.12,1.98-0.35l2.64-0.94c1.19-0.42-2.32-7.48-3.34-8.34C104.6,44.45,104.16,44.32,103.65,44.33L103.65,44.33z" fill="#EDA600"/>
          </g>
          <radialGradient id="SVGID_14_" cx="-622.4059" cy="-1442.0239" gradientTransform="matrix(-1.0122 0.2784 0.1016 0.3682 -374.3522 755.4737)" gradientUnits="userSpaceOnUse" r="3.8766">
            <stop offset="0.5993" style="stop-color:#FFCA28"/>
            <stop offset="1" style="stop-color:#FFB300"/>
          </radialGradient>
          <path d=" M105.18,52.35L105.18,52.35c0.18,0.65,0.84,1.03,1.49,0.85l1.65-0.45c0.65-0.18,1.03-0.84,0.85-1.49l0,0 c-0.18-0.65-0.84-1.03-1.49-0.85l-1.65,0.45C105.38,51.04,105,51.71,105.18,52.35z" fill="url(#SVGID_14_)" stroke="#EDA600" stroke-linecap="round" stroke-linejoin="round" stroke-miterlimit="10"/>
          <radialGradient id="SVGID_15_" cx="-804.5626" cy="-1388.1945" gradientTransform="matrix(-0.8648 0.3887 0.1274 0.2771 -411.6517 742.2053)" gradientUnits="userSpaceOnUse" r="3.6419">
            <stop offset="0.5993" style="stop-color:#FFCA28"/>
            <stop offset="1" style="stop-color:#FFB300"/>
          </radialGradient>
          <path d=" M103.49,46.22l0.08,0.2c0.23,0.55,0.84,0.82,1.36,0.61l2.54-1.06c0.52-0.22,0.75-0.84,0.52-1.39l-0.08-0.2 c-0.23-0.55-0.84-0.82-1.36-0.61l-2.54,1.06C103.45,45.34,103.25,45.73,103.49,46.22z" fill="url(#SVGID_15_)" stroke="#EDA600" stroke-linecap="round" stroke-linejoin="round" stroke-miterlimit="10"/>
          <radialGradient id="SVGID_16_" cx="-685.3015" cy="-1426.212" gradientTransform="matrix(-1.0088 0.2913 0.1084 0.3832 -428.3678 795.5685)" gradientUnits="userSpaceOnUse" r="3.0888">
            <stop offset="0.5993" style="stop-color:#FFCA28"/>
            <stop offset="1" style="stop-color:#FFB300"/>
          </radialGradient>
          <path d=" M104.83,50.45L104.83,50.45c0.2,0.67,0.91,1.05,1.58,0.85l2.23-0.67c0.67-0.2,1.05-0.91,0.85-1.58l0,0 c-0.2-0.67-0.91-1.05-1.58-0.85l-2.23,0.67C105.01,49.07,104.63,49.78,104.83,50.45z" fill="url(#SVGID_16_)" stroke="#EDA600" stroke-linecap="round" stroke-linejoin="round" stroke-miterlimit="10"/>
          <path d="M104.55,50.74c0.22-0.05,0.38-0.12,0.56-0.26l-0.78,3.89c-0.62,0.02-1.24,0.04-1.85,0.06l0.93-4.17 C103.71,50.53,104.07,50.85,104.55,50.74z" fill="#6D4C41"/>
          <radialGradient id="SVGID_17_" cx="-740.2661" cy="-1342.3615" fx="-739.4178" fy="-1346.3568" gradientTransform="matrix(-0.9918 0.3483 0.1106 0.3176 -477.419 731.1374)" gradientUnits="userSpaceOnUse" r="4.0844">
            <stop offset="0.5993" style="stop-color:#FFCA28"/>
            <stop offset="1" style="stop-color:#FFB300"/>
          </radialGradient>
          <path d=" M104.01,48.47L104.01,48.47c0.23,0.64,0.94,0.98,1.58,0.75l2.66-0.95c0.64-0.23,0.98-0.94,0.75-1.58v0 c-0.23-0.64-0.94-0.98-1.58-0.75l-2.66,0.95C104.12,47.12,103.78,47.82,104.01,48.47z" fill="url(#SVGID_17_)" stroke="#EDA600" stroke-linecap="round" stroke-linejoin="round" stroke-miterlimit="10"/>
          <g>
            <path d="M101.02,46.39c0.37-0.64,1.4-1.22,2.24-1.09c0.83,0.12,1,0.7,1.16,0.86c0.06,0.06,0.89,2.47,1.06,2.76 c0.39,0.7-0.27,1.22-0.79,1.29c-0.51,0.07-1.08-0.26-1.29-0.73c-0.74-1.66-1.44-1.4-1.99-1.37c-0.35,0.02-0.63-0.13-0.85-0.33 C100.74,47.53,100.91,46.58,101.02,46.39z" fill="#FFCA28"/>
            <path d="M101.37,47.56l0.14-0.01c0.75-0.08,1.62-0.01,2.39,1.71c0.11,0.25,0.45,0.44,0.71,0.41 c0.16-0.02,0.34-0.14,0.4-0.25c0.02-0.03,0.52-0.29-0.07-1.52c-0.22-0.47-1.32-2.55-1.25-2.59c0.02-0.17,0.44-0.42,0.98,0.64 c0.06,0.12,0.1,0.1,0.66,1.35c0.27,0.59,0.54,1.22,0.62,1.36c0,0,0,0,0,0c0.23,0.41,0.25,0.86,0.05,1.25 c-0.22,0.43-0.65,0.7-1.04,0.81c-0.07,0.02-0.15,0.04-0.22,0.05c-0.75,0.1-1.5-0.15-1.87-1.05c-0.48-1.15-0.84-1.1-1.26-1.06 l-0.19,0.02c-0.55,0.04-0.97-0.2-1.28-0.49C100.25,48.14,101.15,47.58,101.37,47.56z" fill="#EDA600"/>
          </g>
        </g>
      </g>
      <g>
        <g>
          <g>
            <g>
              <g>
                <linearGradient id="SVGID_18_" gradientTransform="matrix(-0.9779 -0.2092 -0.2092 0.9779 -1326.3302 7.178)" gradientUnits="userSpaceOnUse" x1="-1414.0339" x2="-1385.7653" y1="-221.8553" y2="-236.5375">
                  <stop offset="0" style="stop-color:#80FFEE"/>
                  <stop offset="0.1557" style="stop-color:#85FCED"/>
                  <stop offset="0.34" style="stop-color:#93F1E8"/>
                  <stop offset="0.5386" style="stop-color:#ABE1E1"/>
                  <stop offset="0.7476" style="stop-color:#CCC9D8"/>
                  <stop offset="0.9624" style="stop-color:#F7ACCB"/>
                  <stop offset="1" style="stop-color:#FFA6C9"/>
                </linearGradient>
                <path d="M96.81,87c-11.83,0-30.23-14.57-32.94-22.33c-0.85-2.44,0.16-3.24,0.49-3.51 c1.4-1.12,3.83-1.7,7.03-1.7c5.66,0,13.29,1.87,19.93,4.89c7.22,3.28,12.32,7.45,13.99,11.43c1.3,3.1,0.56,6.1-2.2,8.91 C101.61,86.23,99.49,87,96.81,87z" fill="url(#SVGID_18_)"/>
                <path d="M71.39,58.74v1.43c11.61,0,29.83,7.7,33.26,15.89c1.2,2.85,0.52,5.51-2.05,8.13 c-1.36,1.39-3.31,2.09-5.79,2.09c-11.34,0-29.68-14.45-32.26-21.85c-0.68-1.96,0.03-2.52,0.26-2.71 c1.28-1.01,3.55-1.55,6.58-1.55V58.74 M71.39,58.74c-3.21,0-5.86,0.58-7.47,1.86c-6.61,5.25,18.29,27.12,32.89,27.12 c2.72,0,5.08-0.76,6.81-2.52C116.11,72.49,87.06,58.74,71.39,58.74L71.39,58.74z" fill="#55BFD9"/>
              </g>
              <g>
                <path d=" M103.21,82.83c-8.97-10.2-18.44-16.9-30.71-22.73c-0.28-0.13-0.6-0.33-0.58-0.64c0.01-0.31,0.64-0.29,0.51-0.01" fill="none" stroke="#87CDDE" stroke-linecap="round" stroke-linejoin="round" stroke-miterlimit="10" stroke-width="0.9563"/>
                <path d=" M96.32,86.14c-3.77-1.3-4.84-2.69-7.9-5.25c-8.06-6.72-15.66-13.98-22.76-21.71c0.16,0.11,0.33,0.23,0.49,0.34" fill="none" stroke="#87CDDE" stroke-linecap="round" stroke-linejoin="round" stroke-miterlimit="10" stroke-width="0.9563"/>
                <path d=" M96.1,85.69c-1-4.95-2.88-9.73-5.51-14.04" fill="none" stroke="#87CDDE" stroke-linecap="round" stroke-linejoin="round" stroke-miterlimit="10" stroke-width="0.9563"/>
              </g>
            </g>
            <g>
              <g>
                <linearGradient id="SVGID_19_" gradientTransform="matrix(-0.9691 -0.2466 -0.2466 0.9691 -1343.4418 -2.4745)" gradientUnits="userSpaceOnUse" x1="-1421.35" x2="-1378.7339" y1="-324.4991" y2="-284.3899">
                  <stop offset="0" style="stop-color:#80FFEE"/>
                  <stop offset="0.1557" style="stop-color:#85FCED"/>
                  <stop offset="0.34" style="stop-color:#93F1E8"/>
                  <stop offset="0.5386" style="stop-color:#ABE1E1"/>
                  <stop offset="0.7476" style="stop-color:#CCC9D8"/>
                  <stop offset="0.9624" style="stop-color:#F7ACCB"/>
                  <stop offset="1" style="stop-color:#FFA6C9"/>
                </linearGradient>
                <path d="M68.88,64.48c-4.84,0-7.75-1.07-8.2-3.02c-0.66-2.9,0.84-6.77,4.36-11.17 C73.5,39.67,92.7,27.8,105.72,27.8c6.28,0,10.36,2.67,12.13,7.95c0.99,2.95,0.36,6.02-1.88,9.13 C107.93,56.06,81.86,64.48,68.88,64.48z" fill="url(#SVGID_19_)"/>
                <path d="M105.73,27.08v1.43c5.94,0,9.79,2.51,11.45,7.46c0.91,2.72,0.31,5.57-1.78,8.49 c-7.92,11.01-33.68,19.3-46.52,19.3c-4.34,0-7.14-0.92-7.5-2.46c-0.6-2.64,0.89-6.4,4.22-10.56 c8.36-10.49,27.3-22.22,40.13-22.22L105.73,27.08 M105.72,27.08c-18.43,0-48.43,22.77-45.74,34.54 c0.57,2.48,3.97,3.57,8.89,3.57c17.68,0,54.86-14.19,49.66-29.68C116.52,29.5,111.74,27.08,105.72,27.08L105.72,27.08z" fill="#55BFD9"/>
              </g>
              <g>
                <path d=" M113.6,31c-18.27,6.95-35.83,18.02-49.45,31.7" fill="none" stroke="#87CDDE" stroke-linecap="round" stroke-linejoin="round" stroke-miterlimit="10" stroke-width="0.9563"/>
                <path d=" M116.92,36.91c-15.38,12.46-32.65,21.47-51.93,26.91" fill="none" stroke="#87CDDE" stroke-linecap="round" stroke-linejoin="round" stroke-miterlimit="10" stroke-width="0.9563"/>
                <path d=" M98.24,29.81c-4.23,2.82-6.92,8.2-8.67,12.91" fill="none" stroke="#87CDDE" stroke-linecap="round" stroke-linejoin="round" stroke-miterlimit="10" stroke-width="0.9563"/>
                <path d=" M113.75,31.67c-4.72,3.95-8.3,9.17-10.26,14.94" fill="none" stroke="#87CDDE" stroke-linecap="round" stroke-linejoin="round" stroke-miterlimit="10" stroke-width="0.9563"/>
                <path d=" M91.42,53.37c-5.97,1.22-10.37,1.32-15.62-0.61" fill="none" stroke="#87CDDE" stroke-linecap="round" stroke-linejoin="round" stroke-miterlimit="10" stroke-width="0.9563"/>
              </g>
            </g>
          </g>
          <g>
            <g>
              <g>
                <linearGradient id="SVGID_20_" gradientTransform="matrix(0.9779 -0.2092 0.2092 0.9779 -1518.7054 7.178)" gradientUnits="userSpaceOnUse" x1="1493.2155" x2="1521.4841" y1="400.111" y2="385.4289">
                  <stop offset="0" style="stop-color:#80FFEE"/>
                  <stop offset="0.1557" style="stop-color:#85FCED"/>
                  <stop offset="0.34" style="stop-color:#93F1E8"/>
                  <stop offset="0.5386" style="stop-color:#ABE1E1"/>
                  <stop offset="0.7476" style="stop-color:#CCC9D8"/>
                  <stop offset="0.9624" style="stop-color:#F7ACCB"/>
                  <stop offset="1" style="stop-color:#FFA6C9"/>
                </linearGradient>
                <path d="M31.19,87c-2.68,0-4.8-0.78-6.3-2.31c-2.76-2.81-3.5-5.81-2.2-8.91 c1.67-3.99,6.77-8.15,13.99-11.43c6.64-3.02,14.28-4.89,19.93-4.89c3.19,0,5.62,0.59,7.03,1.7c0.33,0.26,1.34,1.07,0.49,3.51 C61.42,72.43,43.01,87,31.19,87C31.19,87,31.19,87,31.19,87z" fill="url(#SVGID_20_)"/>
                <path d="M56.61,60.17c3.03,0,5.3,0.54,6.58,1.55c0.23,0.19,0.95,0.75,0.26,2.71 c-2.58,7.41-20.92,21.85-32.26,21.85c-2.48,0-4.42-0.7-5.79-2.09c-2.58-2.62-3.25-5.28-2.05-8.13 C26.78,67.88,44.99,60.17,56.61,60.17 M56.61,58.74c-15.67,0-44.71,13.75-32.23,26.46c1.73,1.76,4.09,2.52,6.81,2.52 c14.6,0,39.51-21.87,32.89-27.12C62.47,59.32,59.82,58.74,56.61,58.74L56.61,58.74z" fill="#55BFD9"/>
              </g>
              <g>
                <path d=" M24.79,82.83c8.97-10.2,18.44-16.9,30.71-22.73c0.28-0.13,0.6-0.33,0.58-0.64s-0.64-0.29-0.51-0.01" fill="none" stroke="#87CDDE" stroke-linecap="round" stroke-linejoin="round" stroke-miterlimit="10" stroke-width="0.9563"/>
                <path d=" M31.68,86.14c3.77-1.3,4.84-2.69,7.9-5.25c8.06-6.72,15.66-13.98,22.76-21.71c-0.16,0.11-0.33,0.23-0.49,0.34" fill="none" stroke="#87CDDE" stroke-linecap="round" stroke-linejoin="round" stroke-miterlimit="10" stroke-width="0.9563"/>
                <path d=" M31.9,85.69c1-4.95,2.88-9.73,5.51-14.04" fill="none" stroke="#87CDDE" stroke-linecap="round" stroke-linejoin="round" stroke-miterlimit="10" stroke-width="0.9563"/>
              </g>
            </g>
            <g>
              <g>
                <linearGradient id="SVGID_21_" gradientTransform="matrix(0.9675 -0.253 0.253 0.9675 -1496.9943 2.9159)" gradientUnits="userSpaceOnUse" x1="1454.1228" x2="1496.739" y1="410.4959" y2="450.6052">
                  <stop offset="0" style="stop-color:#80FFEE"/>
                  <stop offset="0.1557" style="stop-color:#85FCED"/>
                  <stop offset="0.34" style="stop-color:#93F1E8"/>
                  <stop offset="0.5386" style="stop-color:#ABE1E1"/>
                  <stop offset="0.7476" style="stop-color:#CCC9D8"/>
                  <stop offset="0.9624" style="stop-color:#F7ACCB"/>
                  <stop offset="1" style="stop-color:#FFA6C9"/>
                </linearGradient>
                <path d="M58.83,62.7c-6.89,0-16.76-2.15-25.75-5.6c-10.13-3.89-17.7-8.77-21.29-13.73 c-2.23-3.08-2.87-6.13-1.91-9.07c1.75-5.33,5.86-8.03,12.23-8.03c13.08,0,32.31,11.78,40.76,22.32 c3.49,4.34,4.99,8.16,4.36,11.05C66.78,61.61,63.8,62.7,58.83,62.7C58.83,62.7,58.83,62.7,58.83,62.7z" fill="url(#SVGID_21_)"/>
                <path d="M22.1,26.98c12.88,0,31.85,11.64,40.21,22.05c3.3,4.11,4.8,7.82,4.21,10.44 c-0.35,1.57-3.22,2.51-7.69,2.51c-12.85,0-38.6-8.17-46.46-19.04c-2.09-2.88-2.7-5.72-1.81-8.43 C12.2,29.52,16.08,26.98,22.1,26.98 M22.1,25.55c-6.08,0-10.91,2.44-12.91,8.52C4.12,49.53,41.06,63.42,58.83,63.42 c5.04,0,8.54-1.12,9.09-3.63C70.52,48.03,40.55,25.55,22.1,25.55L22.1,25.55z" fill="#55BFD9"/>
              </g>
              <g>
                <path d=" M14.1,29.52c18.31,6.83,35.95,17.78,49.66,31.37" fill="none" stroke="#87CDDE" stroke-linecap="round" stroke-linejoin="round" stroke-miterlimit="10" stroke-width="0.9563"/>
                <path d=" M10.82,35.45c15.46,12.36,32.79,21.26,52.11,26.56" fill="none" stroke="#87CDDE" stroke-linecap="round" stroke-linejoin="round" stroke-miterlimit="10" stroke-width="0.9563"/>
                <path d=" M29.45,28.23c4.25,2.79,6.98,8.16,8.76,12.85" fill="none" stroke="#87CDDE" stroke-linecap="round" stroke-linejoin="round" stroke-miterlimit="10" stroke-width="0.9563"/>
                <path d=" M13.96,30.2c4.74,3.92,8.36,9.11,10.36,14.87" fill="none" stroke="#87CDDE" stroke-linecap="round" stroke-linejoin="round" stroke-miterlimit="10" stroke-width="0.9563"/>
                <path d=" M36.42,51.74c5.97,1.18,10.37,1.25,15.62-0.72" fill="none" stroke="#87CDDE" stroke-linecap="round" stroke-linejoin="round" stroke-miterlimit="10" stroke-width="0.9563"/>
              </g>
            </g>
          </g>
        </g>
        <g>
          <linearGradient id="SVGID_22_" gradientUnits="userSpaceOnUse" x1="68.8251" x2="67.6369" y1="65.9853" y2="93.8249">
            <stop offset="0" style="stop-color:#FFD29C"/>
            <stop offset="0.0237" style="stop-color:#FFD39E"/>
            <stop offset="0.3158" style="stop-color:#FCD8AF"/>
            <stop offset="0.6295" style="stop-color:#FADCBA"/>
            <stop offset="1" style="stop-color:#F9DDBD"/>
          </linearGradient>
          <path d="M59.43,96.84c-3.04,0-4.78-1.71-5.12-3.29c-0.27-1.26,0.3-2.34,1.53-2.89l12.96-4.4 c0.2-0.07,0.34-0.26,0.34-0.48c0-0.42-2.18-6.29-4.05-11.24l7.65-13.57c2.09,4.58,6.8,18.37,8.39,25.74 c0.64,2.98-0.54,6.46-4.62,7.52c-4.78,1.24-9.37,1.86-16.18,2.57C60.03,96.83,59.72,96.84,59.43,96.84z" fill="url(#SVGID_22_)"/>
          <path d="M72.69,62.09c2.21,5.25,6.5,17.97,7.96,24.72c0.44,2.05,0.04,5.81-4.25,6.93 c-4.75,1.23-9.32,1.85-16.1,2.56c-0.29,0.03-0.58,0.05-0.86,0.05c-2.76,0-4.33-1.5-4.63-2.89c-0.22-1.02,0.22-1.86,1.21-2.31 l12.95-4.4c0.41-0.14,0.68-0.53,0.68-0.96c0-0.21-0.01-0.59-4-11.2L72.69,62.09 M72.78,59.89L64.54,74.5 c0,0,4.09,10.86,4.1,11.29l-13,4.42c-3.64,1.62-1.84,7.13,3.79,7.13c0.31,0,0.63-0.02,0.96-0.05 c6.38-0.67,11.23-1.28,16.25-2.58c4.5-1.17,5.63-5.09,4.98-8.11C79.89,78.59,74.52,63.2,72.78,59.89L72.78,59.89z" fill="#EDBD82"/>
        </g>
        <g>
          <linearGradient id="SVGID_23_" gradientUnits="userSpaceOnUse" x1="59.5511" x2="48.7407" y1="68.5833" y2="120.0146">
            <stop offset="0" style="stop-color:#FFD29C"/>
            <stop offset="0.0237" style="stop-color:#FFD39E"/>
            <stop offset="0.3158" style="stop-color:#FCD8AF"/>
            <stop offset="0.6295" style="stop-color:#FADCBA"/>
            <stop offset="1" style="stop-color:#F9DDBD"/>
          </linearGradient>
          <path d="M45.8,123.56c-0.26,0-0.49-0.05-0.69-0.16c-0.83-0.44-1.03-1.64-1.11-2.75 c-0.17-2.16-0.3-4.37-0.4-6.58c-0.03-0.72-0.07-1.55,0.22-2.23c0.6-1.41,2.38-1.84,3.38-1.97c0.21-0.03,0.38-0.19,0.43-0.4 l3.22-15.87l1.48-24.32l10.56-8.47c0.89,4.43,1.76,9.11,2.06,13.52c-0.08,0.32-0.16,0.85-0.3,1.76 c-0.54,3.56-1.79,11.9-4.15,20.1c-2.21,7.7-8.37,19.14-8.43,19.26c-0.03,0.06-2.18,4.37-3.61,6.25 c-0.42,0.55-0.92,1.17-1.56,1.54C46.56,123.45,46.17,123.56,45.8,123.56L45.8,123.56z" fill="url(#SVGID_23_)"/>
          <path d="M62.56,61.72c0.82,4.16,1.61,8.51,1.89,12.61c-0.09,0.39-0.18,0.93-0.29,1.69 c-0.54,3.55-1.79,11.87-4.14,20.04c-2.2,7.65-8.33,19.05-8.4,19.19c-0.02,0.04-2.15,4.31-3.55,6.16 c-0.39,0.51-0.85,1.09-1.41,1.41c-0.27,0.16-0.59,0.25-0.86,0.25c-0.17,0-0.33-0.03-0.46-0.1c-0.62-0.33-0.78-1.43-0.85-2.35 c-0.17-2.18-0.3-4.38-0.4-6.57c-0.04-0.81-0.05-1.48,0.18-2.01c0.52-1.23,2.26-1.58,2.99-1.67c0.42-0.06,0.77-0.37,0.85-0.79 l3.22-15.87c0.01-0.05,0.02-0.09,0.02-0.14l1.46-24.03L62.56,61.72 M62.91,60.16l-11.06,8.87L50.36,93.5l-3.22,15.87 c-1.56,0.2-3.18,0.85-3.78,2.27c-0.32,0.76-0.3,1.62-0.26,2.45c0.1,2.2,0.23,4.4,0.4,6.6c0.09,1.2,0.32,2.59,1.38,3.16 c0.29,0.15,0.6,0.22,0.93,0.22c0.47,0,0.96-0.15,1.37-0.39c0.69-0.4,1.22-1.03,1.7-1.67c1.47-1.94,3.65-6.32,3.65-6.32 s6.21-11.51,8.47-19.36c3.12-10.86,4.32-21.95,4.47-21.95c0,0,0,0,0,0c-0.3-4.5-1.21-9.32-2.14-13.95L62.91,60.16L62.91,60.16z " fill="#EDBD82"/>
        </g>
        <g>
          <linearGradient id="SVGID_24_" gradientUnits="userSpaceOnUse" x1="45.0778" x2="26.9606" y1="48.4503" y2="72.229">
            <stop offset="0" style="stop-color:#FFD29C"/>
            <stop offset="0.0237" style="stop-color:#FFD39E"/>
            <stop offset="0.3158" style="stop-color:#FCD8AF"/>
            <stop offset="0.6295" style="stop-color:#FADCBA"/>
            <stop offset="1" style="stop-color:#F9DDBD"/>
          </linearGradient>
          <path d="M31.32,74.75c-0.38,0-0.79-0.05-1.19-0.15c-1.99-0.48-3.65-1.11-4.99-1.62 c-0.56-0.21-1.07-0.41-1.51-0.56c-0.48-0.16-0.71-0.67-0.64-1.05c0.08-0.51,0.63-0.58,0.95-0.58c0.28,0,0.61,0.05,0.98,0.16 c0.34,0.1,0.62,0.15,0.84,0.15c0.65,0,0.8-0.42,0.84-0.55c0.23-0.93-1.5-1.87-1.69-1.98c-0.32-0.17-0.72-0.25-1.22-0.25 c-0.75,0-1.61,0.19-2.45,0.37c-0.72,0.15-1.39,0.3-1.87,0.3c-0.33,0-0.42-0.07-0.43-0.08c-0.26-0.24-0.29-0.51-0.29-0.64 c0-0.17,0.06-0.29,0.1-0.32c0.98-0.87,3.35-1.76,5.62-1.76c0.12,0,0.23,0,0.35,0.01c0.85,0.04,2.03,0.68,3.18,1.3 c1.35,0.74,2.75,1.5,3.96,1.5c0.22,0,0.44-0.03,0.64-0.08c0.22-0.06,0.22-0.06,7.9-13.71l5.64-10.02l9.84,4.18 c-6.5,7.68-18.26,21.53-18.99,22.21C35.04,73.28,33.46,74.75,31.32,74.75z" fill="url(#SVGID_24_)"/>
          <path d="M46.25,45.81l8.8,3.74c-7.37,8.71-17.8,20.98-18.52,21.66c-1.75,1.63-3.27,3.03-5.21,3.03 c-0.35,0-0.71-0.04-1.08-0.13c-1.96-0.47-3.61-1.1-4.93-1.6c-0.57-0.22-1.07-0.41-1.53-0.56c-0.23-0.08-0.33-0.34-0.31-0.5 c0.02-0.15,0.33-0.17,0.46-0.17c0.24,0,0.52,0.05,0.84,0.14c0.39,0.11,0.71,0.17,0.98,0.17c0.8,0,1.21-0.48,1.32-0.93 c0.31-1.24-1.41-2.26-1.95-2.54c-0.39-0.21-0.87-0.31-1.45-0.31c-0.8,0-1.69,0.19-2.55,0.38c-0.66,0.14-1.34,0.29-1.77,0.29 c-0.07,0-0.11,0-0.14-0.01c-0.07-0.09-0.08-0.18-0.08-0.22c0.93-0.77,3.15-1.58,5.22-1.58c0.11,0,0.22,0,0.33,0.01 c0.73,0.03,1.86,0.65,2.96,1.25c1.41,0.77,2.87,1.56,4.2,1.56c0.27,0,0.52-0.03,0.76-0.09c0.41-0.11,0.41-0.11,1.3-1.68 l1.76-3.12l5.15-9.15L46.25,45.81 M19.14,68.23L19.14,68.23L19.14,68.23 M45.82,44.54c0,0-2.81,4.99-5.86,10.41 c-3.62,6.43-7.59,13.47-7.59,13.47c-0.16,0.04-0.33,0.06-0.51,0.06c-2.09,0-5.13-2.72-7.12-2.8c-0.12-0.01-0.25-0.01-0.37-0.01 c-2.33,0-4.86,0.92-5.95,1.89c-0.35,0.31-0.43,1.13,0.18,1.7c0.17,0.16,0.43,0.22,0.77,0.22c1.12,0,2.99-0.67,4.32-0.67 c0.38,0,0.72,0.05,0.98,0.19c1.22,0.64,1.92,1.58,1.09,1.58c-0.17,0-0.4-0.04-0.7-0.13c-0.43-0.13-0.8-0.18-1.12-0.18 c-1.98,0-1.76,2.18-0.47,2.61c1.5,0.5,3.69,1.51,6.54,2.19c0.46,0.11,0.89,0.16,1.31,0.16c2.34,0,4.06-1.6,5.9-3.3 c0.97-0.9,19.47-22.77,19.47-22.77L45.82,44.54L45.82,44.54z" fill="#EDBD82"/>
        </g>
        <g>
          <linearGradient id="SVGID_25_" gradientTransform="matrix(1 0 0 1 16.7435 0)" gradientUnits="userSpaceOnUse" x1="73.1083" x2="73.1083" y1="42.3276" y2="84.4962">
            <stop offset="0" style="stop-color:#FFD29C"/>
            <stop offset="0.0237" style="stop-color:#FFD39E"/>
            <stop offset="0.3158" style="stop-color:#FCD8AF"/>
            <stop offset="0.6295" style="stop-color:#FADCBA"/>
            <stop offset="1" style="stop-color:#F9DDBD"/>
          </linearGradient>
          <path d="M88.67,64.45c-1.26,0-2.52-0.66-3.2-1.69L75.2,50.75l8.28-4.27l5.62,9.36 c0.09,0.16,0.26,0.24,0.43,0.24c0.09,0,0.18-0.02,0.26-0.07l5.04-3.03c0.3-0.18,0.88-0.55,1.57-1c1.68-1.09,4.22-2.73,5.06-3.06 c0.12-0.05,0.25-0.09,0.38-0.12c0.14-0.03,0.29-0.05,0.45-0.05c0.54,0,1.07,0.2,1.45,0.55c0.08,0.08,0.16,0.15,0.23,0.23 c1.35,1.48-0.1,3.07-1.98,4.86l-0.36,0.34c-0.94,0.91-7.5,6.41-10.52,8.8c-0.2,0.15-0.42,0.29-0.67,0.4 c-0.04,0.02-0.07,0.04-0.1,0.06c-0.1,0.08-0.17,0.12-0.18,0.13C89.75,64.33,89.23,64.45,88.67,64.45 C88.67,64.45,88.67,64.45,88.67,64.45z" fill="url(#SVGID_25_)"/>
          <path d="M83.29,47.13l5.38,8.96c0.19,0.31,0.52,0.49,0.86,0.49c0.18,0,0.35-0.05,0.51-0.14l5.04-3.03 c0.31-0.18,0.88-0.56,1.58-1.01c1.56-1.01,4.18-2.7,4.98-3.02c0.12-0.05,0.22-0.08,0.31-0.1c0.11-0.02,0.22-0.04,0.34-0.04 c0.41,0,0.82,0.15,1.12,0.42c0.07,0.06,0.14,0.13,0.19,0.19c0.96,1.04,0.09,2.22-1.95,4.16l-0.36,0.34 c-0.94,0.9-7.46,6.38-10.47,8.76c-0.17,0.13-0.36,0.25-0.58,0.34c-0.07,0.03-0.14,0.07-0.2,0.12 c-0.04,0.04-0.08,0.06-0.11,0.08c-0.38,0.19-0.8,0.29-1.25,0.29c-1.1,0-2.19-0.57-2.79-1.46c-0.02-0.03-0.05-0.06-0.07-0.09 L75.99,50.9L83.29,47.13 M83.67,45.82l-9.25,4.78l10.65,12.45c0.8,1.19,2.22,1.91,3.62,1.91c0.61,0,1.22-0.14,1.77-0.43 c0,0,0.08-0.05,0.21-0.15c0.27-0.12,0.54-0.28,0.78-0.46c3.08-2.44,9.6-7.91,10.56-8.83c1.52-1.46,4.3-3.78,2.36-5.89 c-0.08-0.09-0.17-0.17-0.26-0.26c-0.49-0.44-1.14-0.68-1.79-0.68c-0.19,0-0.37,0.02-0.56,0.06c-0.16,0.03-0.31,0.08-0.46,0.14 c-1.25,0.48-5.64,3.46-6.71,4.1c-1.68,1.01-3.36,2.02-5.04,3.03L83.67,45.82L83.67,45.82z" fill="#EDBD82"/>
        </g>
        <g>
          <g>
            <linearGradient id="SVGID_26_" gradientTransform="matrix(1 -8.621460e-03 8.621460e-03 1 1.6019 0.9093)" gradientUnits="userSpaceOnUse" x1="62.0021" x2="62.0021" y1="78.8913" y2="35.4471">
              <stop offset="0" style="stop-color:#FFAB00"/>
              <stop offset="0.1722" style="stop-color:#FF8D00"/>
              <stop offset="0.4082" style="stop-color:#FF6A00"/>
              <stop offset="0.6315" style="stop-color:#FF5100"/>
              <stop offset="0.8348" style="stop-color:#FF4200"/>
              <stop offset="1" style="stop-color:#FF3D00"/>
            </linearGradient>
            <path d="M83.93,46.4c0,0-2.94-7.47-20.29-7.32c-17.34,0.15-19.58,7.66-19.58,7.66l7.64,6.98l0.14,15.76 l10.49,6.46c0.79,0.39,2.09,0.6,2.97,0.6c0.91-0.01,2.14-0.61,2.94-1.05l8.22-6.23l-0.14-15.76L83.93,46.4z" fill="url(#SVGID_26_)"/>
          </g>
          <path d="M63.65,40.08c13.6,0,17.92,4.52,19.02,6.12l-7.09,6.63c-0.21,0.19-0.32,0.47-0.32,0.75l0.32,15.39 l-7.9,5.72c-0.76,0.54-1.75,0.84-2.79,0.84c-0.75,0-1.47-0.16-2.04-0.45l-10.11-6.17V53.7c0-0.28-0.12-0.55-0.32-0.74 l-7.13-6.56C46.18,44.81,49.99,40.08,63.65,40.08 M63.65,39.08c-17.52,0-19.57,7.57-19.57,7.57l7.66,7.04v15.77l10.62,6.48 c0.72,0.38,1.61,0.58,2.53,0.58c1.17,0,2.39-0.33,3.38-1.03l8.33-6.03l-0.33-15.91l7.67-7.17 C83.93,46.39,81.16,39.08,63.65,39.08L63.65,39.08z" fill="#D84315"/>
        </g>
        <g>
          <defs>
            <path id="SVGID_27_" d="M82.91,46.44c0,0-3.29-6.42-19.07-6.42c-16.1,0-18.76,6.75-18.76,6.75l6.55,6.93l24.78-0.21 L82.91,46.44z"/>
          </defs>
          <clipPath id="SVGID_28_">
            <use overflow="visible" xlink:href="#SVGID_27_"/>
          </clipPath>
          <g clip-path="url(#SVGID_28_)">
            <linearGradient id="SVGID_29_" gradientTransform="matrix(1 -8.621460e-03 8.621460e-03 1 1.6019 0.9093)" gradientUnits="userSpaceOnUse" x1="61.9902" x2="61.9902" y1="37.2914" y2="50.6434">
              <stop offset="0" style="stop-color:#FFD29C"/>
              <stop offset="0.0237" style="stop-color:#FFD39E"/>
              <stop offset="0.3158" style="stop-color:#FCD8AF"/>
              <stop offset="0.6295" style="stop-color:#FADCBA"/>
              <stop offset="1" style="stop-color:#F9DDBD"/>
            </linearGradient>
            <path d="M63.86,47.87c-6.92,0-10.64-4.3-10.67-7.41c-0.03-3.23,4.77-5.89,10.69-5.94l0.17,0 c5.83,0,10.59,2.58,10.62,5.76c0.03,3.07-3.76,7.54-10.68,7.6L63.86,47.87z" fill="url(#SVGID_29_)"/>
            <path d="M64.06,35.02L64.06,35.02c5.46,0,10.1,2.41,10.12,5.26c0.01,1.52-0.94,3.23-2.55,4.56 c-1.94,1.6-4.65,2.5-7.63,2.53l-0.14,0c-6.51,0-10.14-4.09-10.17-6.91c-0.02-2.9,4.64-5.39,10.2-5.44L64.06,35.02 M64.05,34.02c-0.06,0-0.12,0-0.18,0c-6.21,0.05-11.22,2.94-11.19,6.45c0.03,3.48,4.16,7.91,11.17,7.91c0.05,0,0.1,0,0.14,0 c7.09-0.06,11.2-4.59,11.17-8.1C75.15,36.8,70.18,34.02,64.05,34.02L64.05,34.02z" fill="#EDBD82"/>
          </g>
        </g>
        <g>
          <g>
            <path d="M110.46,21.27l-0.09-0.03l-9.15,40.97 c-0.06,0.26,0.1,0.52,0.36,0.58s0.52-0.1,0.58-0.36c0,0,0-0.01,0-0.01L110.46,21.27z" fill="#6D4C41" stroke="#6D4C41" stroke-miterlimit="10"/>
            <g>
              <path d="M110.08,23.75c-0.09-0.07-0.2-0.1-0.3-0.1c-0.05,0-0.1,0.01-0.16,0.02l-3.08,1l1.08-3.05 c0.05-0.16,0.03-0.33-0.07-0.46l-1.91-2.62c0,0,3.24,0.08,3.25,0.08c0.16,0,0.31-0.08,0.41-0.21l1.9-2.62l0.92,3.1 c0.05,0.16,0.17,0.28,0.33,0.33l3.08,1l-2.66,1.84c-0.13,0.09-0.22,0.25-0.22,0.41l0,3.24L110.08,23.75z" fill="#FFD600"/>
              <path d="M111.01,16.91l0.64,2.13c0.09,0.32,0.34,0.56,0.65,0.67l2.12,0.68l-1.83,1.26 c-0.27,0.19-0.43,0.5-0.43,0.82l0,2.22l-1.77-1.35c-0.18-0.14-0.39-0.21-0.61-0.21c-0.1,0-0.21,0.02-0.31,0.05l-2.11,0.69 l0.74-2.1c0.11-0.31,0.06-0.65-0.13-0.92l-1.31-1.8l2.22,0.05c0.01,0,0.02,0,0.02,0c0.32,0,0.62-0.15,0.81-0.41L111.01,16.91 M111.39,14.69l-2.49,3.44l-4.25-0.1l2.5,3.44l-1.41,4.01l4.04-1.32l3.38,2.58l0-4.25l3.5-2.41l-4.04-1.31L111.39,14.69 L111.39,14.69z" fill="#E6A900"/>
            </g>
          </g>
          <g>
            <path d="M103.61,53.84c-1.88,0-3.38-1.09-4.03-2.9c-0.68-1.92-0.15-3.29,0.42-4.09 c0.93-1.33,2.54-2.02,3.65-2.02c0.4,0,0.73,0.09,0.93,0.26c0.94,0.79,3.65,6.49,3.41,7.52l-2.55,0.91 C104.82,53.73,104.21,53.84,103.61,53.84z" fill="#F9DDBD"/>
            <path d="M103.65,45.33L103.65,45.33c0.32,0,0.52,0.07,0.6,0.14c0.96,0.85,2.99,5.42,3.22,6.8l-2.2,0.79 c-0.55,0.2-1.11,0.3-1.65,0.3c-1.68,0-2.98-0.94-3.56-2.57c-0.49-1.38-0.37-2.6,0.36-3.64 C101.24,45.95,102.67,45.33,103.65,45.33 M103.65,44.33c-2.31,0-6.06,2.51-4.54,6.78c0.77,2.16,2.54,3.24,4.5,3.24 c0.65,0,1.32-0.12,1.98-0.35l2.64-0.94c1.19-0.42-2.32-7.48-3.34-8.34C104.6,44.45,104.16,44.32,103.65,44.33L103.65,44.33z" fill="#EDBD82"/>
          </g>
          <linearGradient id="SVGID_30_" gradientUnits="userSpaceOnUse" x1="106.1053" x2="109.1366" y1="52.0386" y2="51.3824">
            <stop offset="0" style="stop-color:#FFD29C"/>
            <stop offset="0.0237" style="stop-color:#FFD39E"/>
            <stop offset="0.3158" style="stop-color:#FCD8AF"/>
            <stop offset="0.6295" style="stop-color:#FADCBA"/>
            <stop offset="1" style="stop-color:#F9DDBD"/>
          </linearGradient>
          <path d=" M105.18,52.35L105.18,52.35c0.18,0.65,0.84,1.03,1.49,0.85l1.65-0.45c0.65-0.18,1.03-0.84,0.85-1.49l0,0 c-0.18-0.65-0.84-1.03-1.49-0.85l-1.65,0.45C105.38,51.04,105,51.71,105.18,52.35z" fill="url(#SVGID_30_)" stroke="#EDBD82" stroke-linecap="round" stroke-linejoin="round" stroke-miterlimit="10"/>
          <linearGradient id="SVGID_31_" gradientUnits="userSpaceOnUse" x1="104.9086" x2="107.6274" y1="45.7027" y2="44.7027">
            <stop offset="0" style="stop-color:#FFD29C"/>
            <stop offset="0.0237" style="stop-color:#FFD39E"/>
            <stop offset="0.3158" style="stop-color:#FCD8AF"/>
            <stop offset="0.6295" style="stop-color:#FADCBA"/>
            <stop offset="1" style="stop-color:#F9DDBD"/>
          </linearGradient>
          <path d=" M103.49,46.22l0.08,0.2c0.23,0.55,0.84,0.82,1.36,0.61l2.54-1.06c0.52-0.22,0.75-0.84,0.52-1.39l-0.08-0.2 c-0.23-0.55-0.84-0.82-1.36-0.61l-2.54,1.06C103.45,45.34,103.25,45.73,103.49,46.22z" fill="url(#SVGID_31_)" stroke="#EDBD82" stroke-linecap="round" stroke-linejoin="round" stroke-miterlimit="10"/>
          <linearGradient id="SVGID_32_" gradientUnits="userSpaceOnUse" x1="105.8772" x2="109.3147" y1="50.1322" y2="49.101">
            <stop offset="0" style="stop-color:#FFD29C"/>
            <stop offset="0.0237" style="stop-color:#FFD39E"/>
            <stop offset="0.3158" style="stop-color:#FCD8AF"/>
            <stop offset="0.6295" style="stop-color:#FADCBA"/>
            <stop offset="1" style="stop-color:#F9DDBD"/>
          </linearGradient>
          <path d=" M104.83,50.45L104.83,50.45c0.2,0.67,0.91,1.05,1.58,0.85l2.23-0.67c0.67-0.2,1.05-0.91,0.85-1.58l0,0 c-0.2-0.67-0.91-1.05-1.58-0.85l-2.23,0.67C105.01,49.07,104.63,49.78,104.83,50.45z" fill="url(#SVGID_32_)" stroke="#EDBD82" stroke-linecap="round" stroke-linejoin="round" stroke-miterlimit="10"/>
          <path d="M104.55,50.74c0.22-0.05,0.38-0.12,0.56-0.26l-0.78,3.89c-0.62,0.02-1.24,0.04-1.85,0.06l0.93-4.17 C103.71,50.53,104.07,50.85,104.55,50.74z" fill="#6D4C41"/>
          <linearGradient id="SVGID_33_" gradientUnits="userSpaceOnUse" x1="105.8163" x2="108.66" y1="47.8532" y2="46.7282">
            <stop offset="0" style="stop-color:#FFD29C"/>
            <stop offset="0.0237" style="stop-color:#FFD39E"/>
            <stop offset="0.3158" style="stop-color:#FCD8AF"/>
            <stop offset="0.6295" style="stop-color:#FADCBA"/>
            <stop offset="1" style="stop-color:#F9DDBD"/>
          </linearGradient>
          <path d=" M104.01,48.47L104.01,48.47c0.23,0.64,0.94,0.98,1.58,0.75l2.66-0.95c0.64-0.23,0.98-0.94,0.75-1.58v0 c-0.23-0.64-0.94-0.98-1.58-0.75l-2.66,0.95C104.12,47.12,103.78,47.82,104.01,48.47z" fill="url(#SVGID_33_)" stroke="#EDBD82" stroke-linecap="round" stroke-linejoin="round" stroke-miterlimit="10"/>
          <g>
            <path d="M101.02,46.39c0.37-0.64,1.4-1.22,2.24-1.09c0.83,0.12,1,0.7,1.16,0.86c0.06,0.06,0.89,2.47,1.06,2.76 c0.39,0.7-0.27,1.22-0.79,1.29c-0.51,0.07-1.08-0.26-1.29-0.73c-0.74-1.66-1.44-1.4-1.99-1.37c-0.35,0.02-0.63-0.13-0.85-0.33 C100.74,47.53,100.91,46.58,101.02,46.39z" fill="#F9DDBD"/>
            <path d="M101.37,47.56l0.14-0.01c0.75-0.08,1.62-0.01,2.39,1.71c0.11,0.25,0.45,0.44,0.71,0.41 c0.16-0.02,0.34-0.14,0.4-0.25c0.02-0.03,0.52-0.29-0.07-1.52c-0.22-0.47-1.32-2.55-1.25-2.59c0.02-0.17,0.44-0.42,0.98,0.64 c0.06,0.12,0.1,0.1,0.66,1.35c0.27,0.59,0.54,1.22,0.62,1.36c0,0,0,0,0,0c0.23,0.41,0.25,0.86,0.05,1.25 c-0.22,0.43-0.65,0.7-1.04,0.81c-0.07,0.02-0.15,0.04-0.22,0.05c-0.75,0.1-1.5-0.15-1.87-1.05c-0.48-1.15-0.84-1.1-1.26-1.06 l-0.19,0.02c-0.55,0.04-0.97-0.2-1.28-0.49C100.25,48.14,101.15,47.58,101.37,47.56z" fill="#EDBD82"/>
          </g>
        </g>
        <path d="M53.51,36.52c-0.19-0.23-0.41-0.44-0.7-0.45c-0.48-0.01-1.23-0.1-1.82-0.48 c-0.17-0.11-0.32-0.27-0.43-0.45c0.41-0.09,1.01-0.34,1.37-1.15c0.59-1.32-0.25-2.49-1.22-3.59c-1.59-1.8-3.38-6.22-1.14-10.52 c0.42-0.06,6.53,0.03,8.08,0.03c1.87,0,4.73,0,6.6,0v19.56C57,39.48,55.57,38.97,53.51,36.52z" fill="#D32F2F"/>
        <path d="M74.99,36.52c0.19-0.23,0.41-0.44,0.7-0.45c0.48-0.01,1.23-0.1,1.82-0.48c0.17-0.11,0.32-0.27,0.43-0.45 c-0.41-0.09-0.98-0.35-1.37-1.15c-0.59-1.22,0.09-2.34,1.22-3.59c1.27-1.4,3.38-6.22,1.14-10.52c-0.42-0.06-6.53,0.03-8.08,0.03 c-1.87,0-4.73,0-6.6,0v19.56C71.5,39.48,72.93,38.97,74.99,36.52z" fill="#D32F2F"/>
        <g>
          <path d="M78.47,20.61l0.09,0.19c1.99,3.98-0.2,7.89-1.17,8.94c-1.09,1.17-2.09,2.57-1.31,4.15v0 c0.2,0.41,0.46,0.74,0.78,0.98c-0.43,0.16-0.91,0.2-1.19,0.21c-0.57,0.01-0.94,0.44-1.1,0.62c-1.25,1.44-2.19,2.15-4.8,2.47 c0,0-1.35,0.72-2.29,0.97v0.35c4.57-0.17,6.04-0.85,7.91-3.02c0.14-0.17,0.24-0.24,0.3-0.24c0.58-0.01,1.41-0.12,2.09-0.55 c0.24-0.15,0.46-0.37,0.61-0.62l0.43-0.71l-0.79-0.16c-0.44-0.09-0.76-0.36-0.99-0.82v0c-0.38-0.77-0.07-1.54,1.12-2.83 c1.49-1.6,3.4-5.71,1.46-9.91c0,0,0-0.01,0-0.02H78.47z" fill="#B71C1C"/>
          <path d="M50.31,30.53c1,1.09,1.53,1.95,1.12,2.85c-0.2,0.45-0.52,0.71-0.98,0.8l-0.79,0.16l0.43,0.71 c0.16,0.26,0.37,0.47,0.61,0.62c0.68,0.43,1.51,0.53,2.09,0.55c0.07,0,0.16,0.08,0.31,0.24c1.86,2.15,3.33,2.84,7.85,3.01v-0.36 c-0.79-0.23-2.23-0.95-2.23-0.95c-2.61-0.31-3.55-1.02-4.8-2.47c-0.16-0.18-0.53-0.61-1.1-0.62c-0.28-0.01-0.75-0.04-1.18-0.2 c0.33-0.25,0.59-0.58,0.78-1c0.82-1.79-0.57-3.31-1.32-4.13c-1.41-1.55-2.94-5.19-1.4-8.85l0.11-0.25l-0.02-0.04h-1.22 c0.01,0.02,0.02,0.04,0.02,0.07C47.01,24.76,48.73,28.79,50.31,30.53z" fill="#B71C1C"/>
        </g>
        <g id="XMLID_2_">
          <g id="XMLID_4_">
            <path d="M63.61,43.71c-1.9,0-3.45-1.47-3.45-3.28v-4.11h7.69v4.11c0,1.81-1.55,3.28-3.45,3.28H63.61z" fill="#EDC391"/>
            <path d="M67.34,36.82v3.61c0,1.53-1.32,2.78-2.95,2.78h-0.79c-1.63,0-2.95-1.25-2.95-2.78v-3.61H64H67.34 M68.34,35.82H64h-4.34v4.61c0,2.09,1.77,3.78,3.95,3.78h0.79c2.18,0,3.95-1.69,3.95-3.78V35.82L68.34,35.82z" fill="#D9AC77"/>
          </g>
        </g>
        <g>
          <g>
            <path d="M54.03,29.56c-1.91-0.04-3.43-1.74-3.39-3.8c0.04-2.01,1.6-3.65,3.47-3.65l20.29,0.42 c0.92,0.02,1.77,0.42,2.41,1.13c0.65,0.72,1,1.67,0.97,2.66c-0.04,2.01-1.6,3.65-3.48,3.65L54.03,29.56z" fill="#EDC391"/>
            <path d="M54.11,22.61l0.06,0l2.73,0.06l14.77,0.31l2.73,0.06c0.78,0.02,1.5,0.36,2.05,0.97 c0.56,0.63,0.86,1.45,0.85,2.32c-0.04,1.74-1.37,3.16-2.97,3.16l-0.06,0l-2.73-0.06l-14.77-0.31l-2.73-0.06 c-0.78-0.02-1.5-0.36-2.05-0.97c-0.56-0.63-0.86-1.45-0.85-2.32C51.18,24.03,52.51,22.61,54.11,22.61 M54.11,21.61 c-2.15,0-3.93,1.85-3.97,4.14c-0.05,2.32,1.7,4.26,3.88,4.31l2.73,0.06l14.77,0.31l2.73,0.06c0.03,0,0.05,0,0.08,0 c2.15,0,3.93-1.85,3.97-4.14c0.05-2.32-1.7-4.26-3.88-4.31l-2.73-0.06l-14.77-0.31l-2.73-0.06 C54.17,21.61,54.14,21.61,54.11,21.61L54.11,21.61z" fill="#D9AC77"/>
          </g>
          <g>
            <linearGradient id="SVGID_34_" gradientUnits="userSpaceOnUse" x1="64.258" x2="64.258" y1="38.2881" y2="7.7529">
              <stop offset="0" style="stop-color:#FFD29C"/>
              <stop offset="0.0237" style="stop-color:#FFD39E"/>
              <stop offset="0.3158" style="stop-color:#FCD8AF"/>
              <stop offset="0.6295" style="stop-color:#FADCBA"/>
              <stop offset="1" style="stop-color:#F9DDBD"/>
            </linearGradient>
            <path d="M63.96,38.29c-5.73-0.12-11.81-4.7-11.61-14.48c0.21-10.05,6.3-16.05,12.07-16.05l0.18,0 c7.35,0.15,11.73,8.71,11.56,16.55c-0.2,9.66-6.15,13.99-11.96,13.99L63.96,38.29z" fill="url(#SVGID_34_)"/>
            <path d="M64.42,8.25L64.42,8.25l0.17,0c2.86,0.06,5.68,1.69,7.74,4.46c2.24,3.02,3.43,7.14,3.34,11.58 c-0.2,9.32-5.9,13.5-11.46,13.5l-0.23,0c-3-0.06-5.75-1.31-7.75-3.52c-2.29-2.53-3.45-6.14-3.36-10.45 C53.06,14.07,58.89,8.25,64.42,8.25 M64.42,7.25c-6.37,0-12.36,6.73-12.57,16.54c-0.21,9.86,5.84,14.86,12.1,14.99 c0.08,0,0.17,0,0.25,0c6.17,0,12.26-4.75,12.46-14.47c0.21-9.91-5.61-16.92-12.05-17.06h0l0,0 C64.55,7.25,64.48,7.25,64.42,7.25L64.42,7.25z" fill="#EDBD82"/>
          </g>
          <g>
            <radialGradient id="SVGID_35_" cx="70.2242" cy="21.711" gradientUnits="userSpaceOnUse" r="2.064">
              <stop offset="0.0905" style="stop-color:#454140"/>
              <stop offset="1" style="stop-color:#454140"/>
            </radialGradient>
            <path d="M67.58,21.78c0.35-0.44,1.16-1.07,2.69-1.03c1.53,0.04,2.3,0.72,2.62,1.18 c0.14,0.2,0.1,0.43-0.01,0.57c-0.1,0.13-0.39,0.24-0.7,0.12c-0.31-0.12-0.92-0.45-1.95-0.49c-1.03-0.02-1.66,0.28-1.98,0.38 c-0.32,0.1-0.6-0.03-0.69-0.16C67.45,22.21,67.42,21.98,67.58,21.78z" fill="url(#SVGID_35_)"/>
            <radialGradient id="SVGID_36_" cx="58.2922" cy="21.3646" gradientUnits="userSpaceOnUse" r="2.064">
              <stop offset="0.0905" style="stop-color:#454140"/>
              <stop offset="1" style="stop-color:#454140"/>
            </radialGradient>
            <path d="M55.65,21.43c0.35-0.44,1.16-1.07,2.69-1.03s2.3,0.72,2.62,1.18c0.14,0.2,0.1,0.43-0.01,0.57 c-0.1,0.13-0.39,0.24-0.7,0.12c-0.31-0.12-0.92-0.45-1.95-0.49c-1.03-0.02-1.66,0.28-1.98,0.38c-0.32,0.1-0.6-0.03-0.69-0.16 C55.52,21.86,55.49,21.63,55.65,21.43z" fill="url(#SVGID_36_)"/>
          </g>
          <g>
            <ellipse cx="58.18" cy="24.8" fill="#312D2D" rx="1.89" ry="1.82" transform="matrix(0.0209 -0.9998 0.9998 0.0209 32.1674 82.4389)"/>
            <ellipse cx="70.34" cy="25.05" fill="#312D2D" rx="1.89" ry="1.82" transform="matrix(0.0209 -0.9998 0.9998 0.0209 43.8226 94.8506)"/>
          </g>
          <path d="M65.6,28.37c-0.04-0.02-0.08-0.03-0.12-0.03l-2.62-0.05c-0.04,0-0.08,0.01-0.12,0.03 c-0.24,0.09-0.38,0.33-0.27,0.6c0.11,0.26,0.61,1.01,1.66,1.03c1.05,0.02,1.59-0.7,1.7-0.96 C65.96,28.72,65.83,28.48,65.6,28.37z" fill="#DBA689"/>
          <path d="M67.22,31.4c-1.19,0.68-5.06,0.6-6.22-0.13c-0.67-0.42-1.37,0.18-1.11,0.81 c0.26,0.61,2.34,2.06,4.17,2.1c1.82,0.04,3.93-1.32,4.22-1.92C68.58,31.64,67.91,31.01,67.22,31.4z" fill="#424242"/>
          <radialGradient id="SVGID_37_" cx="-86.8404" cy="137.1268" gradientTransform="matrix(0.5771 0 0 0.401 114.6826 -37.2136)" gradientUnits="userSpaceOnUse" r="22.2728">
            <stop offset="0" style="stop-color:#FF8F00"/>
            <stop offset="1" style="stop-color:#D32F2F"/>
          </radialGradient>
          <path d="M52.42,28.52c-0.25-1.03-0.46-2.53-0.35-4.51l0.02-0.35l-0.32-0.15 c-0.02-0.01-2.46-1.85-3.18-3.43c-1.16-2.53,1.46-3.98,1.46-3.98c-0.23-0.7-0.98-2.1,0-4.31c0.77-1.73,3.5-1.42,3.99-1.42 l0.1,0l0.94,0.07l-0.45-0.83c-0.05-0.09-1.06-1.99,0.12-3.17c0.38,0.76,1.22,1.59,2.78,1.59c0.75,0,1.63-0.19,2.6-0.58 c0.28-0.11,0.61-0.29,1.03-0.53c1.29-0.72,3.25-1.81,5.59-1.81c0.89,0,1.77,0.16,2.62,0.48c1.57,0.59,3.85,2.62,3.78,4.22 l-0.03,0.65l0.64-0.12c0.08-0.02,0.16-0.02,0.24-0.02c1.24,0,3.08,1.65,3.96,3.13c0.02,0.03,1.61,2.79,0.69,6.86 c-0.18,0.79-0.59,1.77-0.95,2.62c-0.38,0.9-0.7,1.68-0.75,2.21c-0.09,1-0.38,2-0.67,2.84c-0.01-0.07-0.01-0.13-0.02-0.2 c-0.16-1.96-0.34-4.18-0.64-5.71c-0.89-4.55-3.48-5.04-4.56-5.04c-0.03,0-0.05,0-0.08,0c-0.42-0.93-1.52-2.21-3.54-2.21 c-0.46,0-0.96,0.07-1.47,0.19c-1.8,0.45-3.08,1.41-4.44,2.42c-0.57,0.42-1.16,0.86-1.81,1.27c-3.09,1.97-5.86,2.6-5.88,2.61 l-0.46,0.1l0.06,0.47C53.51,22.51,52.95,25.77,52.42,28.52z" fill="url(#SVGID_37_)"/>
          <path d="M48.72,18.23c0.12-1.09,1.72-1.98,1.72-1.98s-0.7-2.55,0.13-4.05c1.4-2.5,5.15-1.16,5.15-1.16 s-1.38-2.1-0.97-3.65c0,0,1.43,1.16,2.76,1.16c0.82,0,1.76-0.21,2.79-0.61c0.31-0.12,0.66-0.31,1.1-0.56 c1.25-0.69,3.13-1.74,5.34-1.74c0.83,0,1.66,0.12,2.44,0.45c3.64,1.56,3.39,5.02,3.39,5.02s3.28-0.47,4.93,2.62 c0.79,1.46,1.44,3.97,0.96,6.89l1.16,0.11c0.81-3.58-0.2-6.67-0.7-7.52c-2.26-3.88-5.16-3.38-5.27-3.36 c0.09-1.95-2.45-4.1-4.11-4.73c-0.98-0.37-1.92-0.51-2.8-0.51c-3.24,0-5.77,1.96-6.82,2.37c-0.99,0.39-1.78,0.54-2.41,0.54 c-2.24,0-2.51-1.9-2.51-1.9c-1.52,0.9-1.78,2.81-1.12,4.19c0,0-2.27-0.67-3.84,1.14c-1.57,1.81-0.74,4.77-0.74,4.77 s-1.93,0.85-1.75,3.75c0.13,2.08,1.3,2.93,1.3,2.93l0.65-1.06C49.5,21.33,48.49,20.44,48.72,18.23z" fill="#B71C1C"/>
        </g>
      </g>
    </g>
  </g>
</svg>