<svg viewBox="0 0 128 128" xmlns="http://www.w3.org/2000/svg" xmlns:xlink="http://www.w3.org/1999/xlink">
  <g id="Layer_3">
    <g>
      <linearGradient id="SVGID_1_" gradientTransform="matrix(1 0 0 -1 0 131.4283)" gradientUnits="userSpaceOnUse" x1="63.9011" x2="63.9011" y1="97.1177" y2="20.5715">
        <stop offset="0" style="stop-color:#691B66"/>
        <stop offset="1" style="stop-color:#C735C1"/>
      </linearGradient>
      <path d="M48.65,31.81l-17.25,76.36 c5.32,1.53,10.92,3.01,16.42,3.6c8.01,0.87,15.75-3.36,23.77-1.92c5.83,1.05,9.46,2.13,15.28,0.37c3.26-0.98,6.47-2.24,9.54-3.71 L75.9,31.81H48.65z" fill="url(#SVGID_1_)" stroke="#611A5E" stroke-miterlimit="10" stroke-width="2"/>
      <g>
        <linearGradient id="SVGID_2_" gradientTransform="matrix(1.0651 -0.1281 -0.1293 -1.0755 55.3283 104.2872)" gradientUnits="userSpaceOnUse" x1="3.9661" x2="3.9661" y1="87.0907" y2="64.8791">
          <stop offset="2.804500e-03" style="stop-color:#0063B2"/>
          <stop offset="0.1363" style="stop-color:#0160AC"/>
          <stop offset="0.3109" style="stop-color:#03569C"/>
          <stop offset="0.5082" style="stop-color:#084681"/>
          <stop offset="0.7223" style="stop-color:#0E305B"/>
          <stop offset="0.9475" style="stop-color:#15142B"/>
          <stop offset="1" style="stop-color:#170D1F"/>
        </linearGradient>
        <polygon fill="url(#SVGID_2_)" points="35.64,14.45 48.2,10.02 64.21,32.99 57.46,33.53 47.59,13.59 " stroke="#0E2B52" stroke-miterlimit="10" stroke-width="1.3676"/>
        <linearGradient id="SVGID_3_" gradientTransform="matrix(0.9919 -0.2786 -0.2895 -1.0307 73.7089 35.7571)" gradientUnits="userSpaceOnUse" x1="-21.0974" x2="-21.0974" y1="23.3412" y2="4.4704">
          <stop offset="2.804500e-03" style="stop-color:#0063B2"/>
          <stop offset="0.1363" style="stop-color:#0160AC"/>
          <stop offset="0.3109" style="stop-color:#03569C"/>
          <stop offset="0.5082" style="stop-color:#084681"/>
          <stop offset="0.7223" style="stop-color:#0E305B"/>
          <stop offset="0.9475" style="stop-color:#15142B"/>
          <stop offset="1" style="stop-color:#170D1F"/>
        </linearGradient>
        <polygon fill="url(#SVGID_3_)" points="36.62,21.46 46.97,17.22 61.34,34.75 55.52,36.12 46.36,20.6 " stroke="#0E2B52" stroke-miterlimit="10" stroke-width="1.2251"/>
        <linearGradient id="SVGID_5_" gradientTransform="matrix(0.909 -0.4169 -0.4169 -0.909 80.0618 -44.4445)" gradientUnits="userSpaceOnUse" x1="-61.0471" x2="-61.0471" y1="-47.842" y2="-65.9085">
          <stop offset="2.804500e-03" style="stop-color:#0063B2"/>
          <stop offset="0.1363" style="stop-color:#0160AC"/>
          <stop offset="0.3109" style="stop-color:#03569C"/>
          <stop offset="0.5082" style="stop-color:#084681"/>
          <stop offset="0.7223" style="stop-color:#0E305B"/>
          <stop offset="0.9475" style="stop-color:#15142B"/>
          <stop offset="1" style="stop-color:#170D1F"/>
        </linearGradient>
        <polygon fill="url(#SVGID_5_)" points="36.81,29.32 44.48,24.43 60.41,37.54 55.04,39.75 44.29,28.03 " stroke="#0E2B52" stroke-miterlimit="10" stroke-width="1.1665"/>
        <linearGradient id="SVGID_6_" gradientTransform="matrix(-1.0651 -0.1281 0.1293 -1.0755 -659.9824 104.2872)" gradientUnits="userSpaceOnUse" x1="-673.92" x2="-673.92" y1="167.8337" y2="145.6211">
          <stop offset="2.804500e-03" style="stop-color:#0063B2"/>
          <stop offset="0.1363" style="stop-color:#0160AC"/>
          <stop offset="0.3109" style="stop-color:#03569C"/>
          <stop offset="0.5082" style="stop-color:#084681"/>
          <stop offset="0.7223" style="stop-color:#0E305B"/>
          <stop offset="0.9475" style="stop-color:#15142B"/>
          <stop offset="1" style="stop-color:#170D1F"/>
        </linearGradient>
        <polygon fill="url(#SVGID_6_)" points="92.16,14.45 79.61,10.02 63.59,32.99 70.34,33.53 80.22,13.59 " stroke="#0E2B52" stroke-miterlimit="10" stroke-width="1.3676"/>
        <linearGradient id="SVGID_7_" gradientTransform="matrix(-0.9919 -0.2786 0.2895 -1.0307 -678.3688 35.7571)" gradientUnits="userSpaceOnUse" x1="-705.5441" x2="-705.5441" y1="208.3467" y2="189.477">
          <stop offset="2.804500e-03" style="stop-color:#0063B2"/>
          <stop offset="0.1363" style="stop-color:#0160AC"/>
          <stop offset="0.3109" style="stop-color:#03569C"/>
          <stop offset="0.5082" style="stop-color:#084681"/>
          <stop offset="0.7223" style="stop-color:#0E305B"/>
          <stop offset="0.9475" style="stop-color:#15142B"/>
          <stop offset="1" style="stop-color:#170D1F"/>
        </linearGradient>
        <polygon fill="url(#SVGID_7_)" points="91.18,21.46 80.84,17.22 66.46,34.75 72.28,36.12 81.45,20.6 " stroke="#0E2B52" stroke-miterlimit="10" stroke-width="1.2251"/>
        <linearGradient id="SVGID_8_" gradientTransform="matrix(-0.909 -0.4169 0.4169 -0.909 -684.7178 -44.4445)" gradientUnits="userSpaceOnUse" x1="-726.7939" x2="-726.7939" y1="257.4938" y2="239.4273">
          <stop offset="2.804500e-03" style="stop-color:#0063B2"/>
          <stop offset="0.1363" style="stop-color:#0160AC"/>
          <stop offset="0.3109" style="stop-color:#03569C"/>
          <stop offset="0.5082" style="stop-color:#084681"/>
          <stop offset="0.7223" style="stop-color:#0E305B"/>
          <stop offset="0.9475" style="stop-color:#15142B"/>
          <stop offset="1" style="stop-color:#170D1F"/>
        </linearGradient>
        <polygon fill="url(#SVGID_8_)" points="90.99,29.32 83.33,24.43 67.39,37.54 72.76,39.75 83.52,28.03 " stroke="#0E2B52" stroke-miterlimit="10" stroke-width="1.1665"/>
      </g>
      <linearGradient id="SVGID_9_" gradientTransform="matrix(1 0 0 -1 0 131.4283)" gradientUnits="userSpaceOnUse" x1="78.7272" x2="84.1836" y1="81.8503" y2="95.1426">
        <stop offset="2.804500e-03" style="stop-color:#0063B2"/>
        <stop offset="1" style="stop-color:#170D1F"/>
      </linearGradient>
      <path d="M86.25,52.93c-0.67,0-1.3-0.25-1.76-0.72L70.34,38.07c-0.97-0.97-0.97-2.56,0-3.54l1.94-1.94 c0.31-0.31,0.99-0.49,1.87-0.49c1.44,0,3.04,0.47,3.64,1.07l9.85,13.81l3.19-4.09c0.38-0.32,0.96-0.53,1.56-0.53 c0.73,0,1.42,0.32,1.9,0.87l0.22,0.25c0.9,1.04,0.78,2.63-0.26,3.53l-6.19,5.33c-0.45,0.39-1.01,0.59-1.62,0.59H86.25z" fill="url(#SVGID_9_)"/>
      <path d="M74.16,32.6c1.36,0,2.74,0.45,3.24,0.88l9.44,13.25l0.78,1.09l0.82-1.06l2.71-3.48 c0.35-0.27,0.78-0.42,1.23-0.42c0.59,0,1.14,0.25,1.52,0.69l0.22,0.25c0.72,0.84,0.63,2.1-0.21,2.82l-6.19,5.33 c-0.45,0.39-0.96,0.47-1.31,0.47h-0.03h-0.03h-0.12c-0.54,0-1.04-0.2-1.41-0.57L70.7,37.71c-0.78-0.78-0.78-2.05,0-2.83l1.94-1.94 C72.81,32.77,73.35,32.6,74.16,32.6 M74.16,31.6c-0.94,0-1.78,0.19-2.23,0.64l-1.94,1.94c-1.17,1.17-1.17,3.08,0,4.24l14.14,14.14 c0.58,0.58,1.35,0.86,2.12,0.86h0.17h0.01c0.69,0,1.39-0.22,1.95-0.71l6.19-5.33c1.25-1.08,1.39-2.98,0.32-4.23l-0.22-0.25 c-0.59-0.69-1.43-1.04-2.28-1.04c-0.69,0-1.39,0.24-1.95,0.72l-2.78,3.56l-9.5-13.33C77.43,32.09,75.67,31.6,74.16,31.6z" fill="#0E2B52"/>
      <linearGradient id="SVGID_10_" gradientTransform="matrix(1 0 0 -1 0 131.4283)" gradientUnits="userSpaceOnUse" x1="63.0759" x2="63.0759" y1="75.4153" y2="39.8243">
        <stop offset="0" style="stop-color:#170D1F"/>
        <stop offset="0.9972" style="stop-color:#0063B2"/>
      </linearGradient>
      <path d="M83.08,89.35c-1.68-2.64-9.48-11.79-14.32-16.87c-0.82-0.86-1.93-1.34-3.12-1.34 c-1.14,0-2.22,0.45-3.02,1.25c-6.19,6.2-13.52,13.79-15.4,15.89c-3.62-0.65-8.31-2.38-9.86-2.97c1.12-2.11,5.6-10.49,9.47-16.72 c0.03-0.05,0.45-0.67,1.08-1.62c5.25-7.88,6.92-10.42,7.46-11.29c0.99,0.35,3.94,1.48,8.28,3.93c0.76,0.43,1.54,0.65,2.31,0.65 c2.25,0,3.81-1.83,4.5-2.82c0.23,0.24,0.55,0.58,1.01,1.07c0.47,0.49,1.1,1.15,1.22,1.31c0.87,1.87,12.23,17.46,16.12,22.78 C88.09,83.68,85.45,87.58,83.08,89.35z" fill="url(#SVGID_10_)"/>
      <path d="M55.58,56.27c1.23,0.46,3.97,1.58,7.83,3.76c0.84,0.47,1.7,0.71,2.55,0.71c2.12,0,3.68-1.46,4.54-2.55 c0.17,0.18,0.37,0.39,0.6,0.63c0.45,0.47,1.07,1.12,1.18,1.27c-0.01-0.01-0.1-0.14-0.14-0.33c0.22,1.04,8.74,12.85,16.03,22.83 c-0.84,1.26-2.99,4.33-5,6.02c-2.36-3.43-10.13-12.34-14.07-16.49c-0.92-0.96-2.15-1.5-3.48-1.5c-1.28,0-2.48,0.5-3.38,1.4 c-6,6.01-13.08,13.34-15.23,15.7c-3.19-0.61-7.12-2.01-8.97-2.7c1.44-2.71,5.58-10.38,9.18-16.18c0.04-0.07,0.45-0.68,1.07-1.6 C52.94,60.3,54.81,57.47,55.58,56.27 M55.15,55.06c-0.04,0.2-8.65,13.1-8.75,13.25c-4.5,7.25-9.75,17.25-9.75,17.25 s6.25,2.5,10.75,3.25c1.53-1.75,9.16-9.66,15.57-16.08c0.74-0.74,1.7-1.11,2.67-1.11c1,0,2.01,0.4,2.76,1.18 c5.55,5.86,14.17,16.09,14.5,17.26c2.97-1.89,6.5-7.5,6.5-7.5S73.36,60.63,73.13,59.56c-0.04-0.18-2.69-2.8-2.73-3 c0,0-1.69,3.18-4.44,3.18c-0.63,0-1.32-0.17-2.06-0.58C58.4,56.06,55.15,55.06,55.15,55.06L55.15,55.06z" fill="#0E2B52"/>
      <linearGradient id="SVGID_11_" gradientTransform="matrix(1 0 0 -1 0 131.4283)" gradientUnits="userSpaceOnUse" x1="63.5961" x2="63.5961" y1="107.4693" y2="67.2742">
        <stop offset="2.804500e-03" style="stop-color:#0063B2"/>
        <stop offset="1" style="stop-color:#170D1F"/>
      </linearGradient>
      <path d="M66.09,63.87c-0.97,0-1.89-0.37-2.59-1.04l-7.09-6.78c-0.63-0.6-1.03-1.4-1.13-2.26 c-0.17-1.42-0.55-3.75-1.38-6.86c-1.4-5.21-3.1-9.75-4.22-12.76c-0.41-1.1-0.73-1.96-0.91-2.52c-0.75-2.32-0.7-4.08,0.13-5.22 c0.85-1.17,2.58-1.77,5.12-1.77c4.58,0,10.17,1.97,10.23,1.99c1.08,0.41,2.26,0.78,3.51,1.17c5.56,1.75,11.87,3.73,11.13,10.02 c-0.02,0.21-0.07,0.43-0.15,0.69c-0.8,2.51-4.81,15.26-5.76,19.22c-0.17,0.7-0.52,1.33-1.01,1.82c-0.83,0.82-2.06,2.05-3.21,3.2 C68.03,63.48,67.09,63.87,66.09,63.87z" fill="url(#SVGID_11_)"/>
      <path d="M54.01,25.17c4.49,0,10.01,1.94,10.04,1.95c1.1,0.42,2.29,0.79,3.55,1.18c5.64,1.77,11.48,3.61,10.79,9.48 c-0.02,0.18-0.07,0.38-0.13,0.6c-0.8,2.52-4.82,15.28-5.77,19.26c-0.15,0.61-0.45,1.15-0.88,1.58c-0.83,0.82-2.07,2.05-3.22,3.2 c-0.61,0.61-1.43,0.95-2.3,0.95c-0.84,0-1.64-0.32-2.25-0.9l-7.1-6.78c-0.54-0.52-0.89-1.21-0.98-1.96 c-0.17-1.43-0.55-3.79-1.4-6.93c-1.41-5.23-3.11-9.79-4.24-12.8c-0.41-1.09-0.73-1.95-0.9-2.49c-0.7-2.16-0.68-3.77,0.06-4.77 C50.04,25.7,51.63,25.17,54.01,25.17 M54.01,24.17c-4.21,0-7.67,1.6-5.73,7.64c0.66,2.06,3.2,8.1,5.12,15.25 c0.83,3.1,1.2,5.41,1.37,6.79c0.12,0.98,0.57,1.88,1.28,2.56l7.1,6.78c0.82,0.79,1.88,1.18,2.94,1.18c1.09,0,2.17-0.41,3-1.24 c1.15-1.15,2.39-2.38,3.21-3.2c0.57-0.56,0.96-1.27,1.15-2.05c0.95-3.96,5-16.83,5.75-19.19c0.08-0.25,0.14-0.52,0.17-0.78 c0.95-8.14-8.9-9.42-14.97-11.72C64.4,26.19,58.73,24.17,54.01,24.17z" fill="#0E2B52"/>
      <g>
        <radialGradient id="SVGID_12_" cx="63.8097" cy="19.3519" gradientUnits="userSpaceOnUse" r="8.9538">
          <stop offset="0" style="stop-color:#6D4C41"/>
          <stop offset="1" style="stop-color:#543930"/>
        </radialGradient>
        <path d="M72.03,22.73c-0.37-0.81,0.11-1.53,0.91-2.32c0.9-0.89,2.44-4.27,1-7.13 c-0.29-0.05-4.47,0.15-5.53,0.12c-1.28-0.04-3.23-0.1-4.52-0.15c-1.28-0.04-3.23-0.1-4.52-0.15c-1.06-0.03-5.24-0.51-5.53-0.48 c-1.62,2.76-0.28,6.24,0.56,7.19c0.75,0.84,1.18,1.59,0.76,2.38c-0.28,0.52-0.68,0.68-0.96,0.72c0.07,0.12,0.17,0.23,0.28,0.3 c0.4,0.26,0.91,0.33,1.24,0.35c0.2,0.01,0.34,0.15,0.47,0.31c1.36,1.65,2.33,2.01,7.29,2.17c4.96,0.16,5.95-0.14,7.41-1.7 c0.14-0.15,0.29-0.28,0.49-0.28c0.33,0,0.85-0.04,1.26-0.27c0.12-0.07,0.22-0.17,0.3-0.28C72.66,23.45,72.28,23.26,72.03,22.73z" fill="url(#SVGID_12_)"/>
        <path d="M72.03,22.73c-0.37-0.81,0.11-1.53,0.91-2.32 c0.9-0.89,2.68-3.99,0.72-7.41c-0.29-0.05-19.53-0.14-19.82-0.1c-1.82,3.05-0.28,5.96,0.56,6.91c0.75,0.84,1.18,1.59,0.76,2.38 c-0.28,0.52-0.68,0.68-0.96,0.72c0.07,0.12,0.17,0.23,0.28,0.3c0.4,0.26,0.91,0.33,1.24,0.35c0.2,0.01,0.34,0.15,0.47,0.31 c1.36,1.65,2.33,2.01,7.29,2.17c4.96,0.16,5.95-0.14,7.41-1.7c0.14-0.15,0.29-0.28,0.49-0.28c0.33,0,0.85-0.04,1.26-0.27 c0.12-0.07,0.22-0.17,0.3-0.28C72.66,23.45,72.28,23.26,72.03,22.73z" fill="none" stroke="#3F2720" stroke-miterlimit="10"/>
      </g>
      <path d="M63.98,30.46c-1.42,0-2.58-1.14-2.58-2.54v-3.19h5.74v3.19c0,1.4-1.16,2.54-2.57,2.54H63.98z" fill="#99674F"/>
      <path d="M66.79,25.08v2.83c0,1.21-1,2.19-2.22,2.19h-0.59c-1.22,0-2.22-0.98-2.22-2.19v-2.83H66.79 M67.5,24.37 h-6.44v3.54c0,1.6,1.31,2.9,2.93,2.9h0.59c1.62,0,2.93-1.3,2.93-2.9v-3.54L67.5,24.37z" fill="#875740"/>
      <path d="M56.75,20.46c-1.4,0-2.54-1.22-2.54-2.72c0-1.5,1.14-2.72,2.54-2.72h14.28c1.4,0,2.54,1.22,2.54,2.72 c0,1.5-1.14,2.72-2.54,2.72H56.75z" fill="#99674F"/>
      <path d="M71.02,15.28c1.26,0,2.28,1.1,2.28,2.46c0,1.36-1.02,2.46-2.28,2.46H56.75c-1.26,0-2.28-1.1-2.28-2.46 c0-1.36,1.02-2.46,2.28-2.46H71.02 M71.02,14.75H56.75c-1.54,0-2.8,1.34-2.8,2.98c0,1.64,1.26,2.98,2.8,2.98h14.28 c1.54,0,2.8-1.34,2.8-2.98C73.83,16.09,72.56,14.75,71.02,14.75z" fill="#875740"/>
      <g>
        <linearGradient id="SVGID_13_" gradientTransform="matrix(1 0 0 -1 0 131.4283)" gradientUnits="userSpaceOnUse" x1="63.8911" x2="63.8911" y1="105.1327" y2="126.4981">
          <stop offset="3.806090e-04" style="stop-color:#A47B62"/>
          <stop offset="0.1917" style="stop-color:#AD8264"/>
          <stop offset="0.5514" style="stop-color:#B78A67"/>
          <stop offset="1" style="stop-color:#BA8D68"/>
        </linearGradient>
        <path d="M63.89,26.48c-4.09,0-8.5-3.17-8.5-10.14c0-5.58,3.25-11.6,8.5-11.6s8.5,6.02,8.5,11.6 C72.38,23.29,67.98,26.48,63.89,26.48z" fill="url(#SVGID_13_)"/>
      </g>
      <path d="M63.89,4.99c5.09,0,8.23,5.88,8.23,11.34c0,4.76-2.58,9.88-8.23,9.88c-5.66,0-8.23-5.12-8.23-9.88 C55.65,10.88,58.8,4.99,63.89,4.99 M63.89,4.47c-4.55,0-8.76,4.86-8.76,11.86c0,6.96,4.34,10.4,8.76,10.4s8.76-3.44,8.76-10.4 C72.64,9.33,68.43,4.47,63.89,4.47z" fill="#91674D"/>
      <path d="M62.68,19.71c0.08,0.19,1.21,1.21,1.21,1.21s1.13-1.02,1.21-1.21C65.17,19.52,62.6,19.52,62.68,19.71z" fill="#99674F"/>
      <linearGradient id="SVGID_14_" gradientTransform="matrix(1 0 0 -1 0 131.4283)" gradientUnits="userSpaceOnUse" x1="63.8862" x2="63.8862" y1="110.6951" y2="107.2608">
        <stop offset="0" style="stop-color:#4D4D4D"/>
        <stop offset="0.2554" style="stop-color:#2F2F2F"/>
        <stop offset="0.5415" style="stop-color:#151515"/>
        <stop offset="0.7987" style="stop-color:#060606"/>
        <stop offset="1" style="stop-color:#000000"/>
      </linearGradient>
      <path d="M68.82,20.72c-3.13,1.71-6.4,1.71-9.87,0c-0.24-0.12,1.1,3.43,4.94,3.43 C67.73,24.16,69.06,20.59,68.82,20.72z" fill="url(#SVGID_14_)"/>
      <g>
        <g>
          <radialGradient id="SVGID_15_" cx="63.5766" cy="10.9097" gradientUnits="userSpaceOnUse" r="9.4189">
            <stop offset="0" style="stop-color:#6D4C41"/>
            <stop offset="1" style="stop-color:#543930"/>
          </radialGradient>
          <path d="M60.47,4.25c-3.08,1.18-3.43-0.76-3.43-0.76c-1.66,0.88-0.51,2.66-0.51,2.66 s-1.71-0.08-2.41,1.41c-0.73,1.56-0.02,2.73-0.02,2.73s-1.62,1.08-0.93,2.97c0.46,1.25,1.75,1.72,1.75,1.72 c-0.09,2.72,0.8,4.02,0.8,4.02s0.2-3.26,0.48-5.23s0.63-3.08,2.57-3.84c1.62-0.63,5.23,1.18,5.23,1.18s1.81-1.39,3.5-1.6 c1.69-0.21,3.46,0.13,4.09,3.58c0.25,1.37,0.35,5.37,0.35,5.37c-0.02-0.12,0.85-1.64,0.97-3.16c0.04-0.57,0.87-1.96,1.1-2.99 c0.51-2.24-0.27-3.98-0.63-4.49c-0.66-0.94-2.2-2.23-3.33-2c0.03-1.22-0.96-2.32-2.12-2.68C64.74,2.14,61.38,3.9,60.47,4.25z" fill="url(#SVGID_15_)"/>
        </g>
        <g>
          <defs>
            <polygon id="SVGID_16_" points="55.52,1.99 52.56,7.38 52.24,13.88 53.62,14.73 54.35,12.61 66.49,6.66 71.96,10.28 73.57,13.76 74.97,12.51 74.18,1.53 "/>
          </defs>
          <clipPath id="SVGID_17_">
            <use overflow="visible" xlink:href="#SVGID_16_"/>
          </clipPath>
          <g clip-path="url(#SVGID_17_)">
            <path d="M60.47,4.25c-3.08,1.18-3.43-0.76-3.43-0.76 c-1.66,0.88-0.51,2.66-0.51,2.66s-1.71-0.08-2.41,1.41c-0.73,1.56-0.02,2.73-0.02,2.73s-1.62,1.08-0.93,2.97 c0.46,1.25,1.75,1.72,1.75,1.72c-0.09,2.72,0.8,4.02,0.8,4.02s0.95-4.69,0.83-5.41c0,0,1.95-0.44,4.15-1.77 c1.48-0.9,2.49-1.94,4.17-2.36c2.56-0.64,3.18,1.21,3.18,1.21s2.37-0.52,3.17,2.78c0.33,1.35,0.51,3.63,0.71,5.01 c-0.02-0.12,0.85-1.64,0.97-3.16c0.04-0.57,0.87-1.96,1.1-2.99c0.51-2.24-0.27-3.98-0.63-4.49c-0.66-0.94-2.2-2.23-3.33-2 c0.03-1.22-0.96-2.32-2.12-2.68C64.74,2.14,61.38,3.9,60.47,4.25z" fill="none" stroke="#3F2720" stroke-miterlimit="10"/>
          </g>
        </g>
      </g>
      <path d="M62.38,16.47c-0.24,0-0.48-0.02-0.71-0.05l-0.34-0.05L61,16.3c-0.22-0.04-0.43-0.11-0.65-0.17 c-0.22-0.06-0.42-0.13-0.63-0.2c-0.82-0.31-1.61-0.69-2.35-1.17l-0.51-0.33L56.99,14c0.06-0.19,0.12-0.37,0.2-0.55l0.11-0.28 l0.13-0.27c0.08-0.18,0.18-0.36,0.28-0.54c0.1-0.18,0.22-0.35,0.35-0.53l0.09,0.02c-0.06,0.38-0.12,0.77-0.18,1.15l-0.2,1.15 l-0.04-0.08l1.17,0.55l1.18,0.58l1.18,0.59c0.39,0.19,0.78,0.4,1.17,0.6L62.38,16.47z"/>
      <radialGradient id="SVGID_18_" cx="114.0358" cy="189.4068" gradientTransform="matrix(0.9263 0.3768 0.1497 -0.368 -73.765 43.8351)" gradientUnits="userSpaceOnUse" r="3.3762">
        <stop offset="2.644200e-03" style="stop-color:#FF0000"/>
        <stop offset="0.0722" style="stop-color:#F50000"/>
        <stop offset="0.7116" style="stop-color:#980000"/>
        <stop offset="1" style="stop-color:#730000"/>
      </radialGradient>
      <path d="M60.53,18.01c-0.42,0-0.89-0.11-1.3-0.31c-1.13-0.54-1.95-1.51-1.99-1.55l-0.34-0.4l0.52-0.06 c0,0,0.36-0.04,0.85-0.04c0.63,0,1.17,0.07,1.6,0.21s1.46,0.52,1.75,1.09c0.08,0.17,0.1,0.34,0.05,0.5 C61.56,17.8,61.13,18.01,60.53,18.01z" fill="url(#SVGID_18_)"/>
      <path d="M58.28,15.93c0.46,0,1.03,0.04,1.51,0.19c0.97,0.31,1.75,0.81,1.62,1.23c-0.08,0.24-0.42,0.38-0.87,0.38 c-0.35,0-0.77-0.09-1.18-0.28c-1.1-0.52-1.9-1.48-1.9-1.48S57.81,15.93,58.28,15.93 M58.28,15.36c-0.5,0-0.87,0.04-0.89,0.05 l-1.05,0.12l0.68,0.81c0.04,0.04,0.9,1.06,2.08,1.63c0.45,0.22,0.96,0.34,1.43,0.34c0.73,0,1.26-0.29,1.41-0.77 c0.24-0.75-0.48-1.46-1.98-1.95C59.51,15.43,58.94,15.36,58.28,15.36z"/>
      <path d="M65.39,16.47c0.24,0,0.48-0.02,0.71-0.05l0.34-0.05l0.33-0.07c0.22-0.04,0.43-0.11,0.65-0.17s0.42-0.13,0.63-0.2 c0.82-0.31,1.61-0.69,2.35-1.17l0.51-0.33L70.78,14c-0.06-0.19-0.12-0.37-0.2-0.55l-0.11-0.28l-0.13-0.27 c-0.08-0.18-0.18-0.36-0.28-0.54c-0.1-0.18-0.22-0.35-0.35-0.53l-0.09,0.02c0.06,0.38,0.12,0.77,0.18,1.15l0.2,1.15l0.04-0.08 l-1.18,0.57l-1.18,0.58l-1.18,0.59c-0.39,0.19-0.78,0.4-1.17,0.6L65.39,16.47z"/>
      <radialGradient id="SVGID_19_" cx="-574.4595" cy="-540.8098" gradientTransform="matrix(-0.9263 0.3768 -0.1497 -0.368 -545.5334 34.5401)" gradientUnits="userSpaceOnUse" r="3.3762">
        <stop offset="2.644200e-03" style="stop-color:#FF0000"/>
        <stop offset="0.0722" style="stop-color:#F50000"/>
        <stop offset="0.7116" style="stop-color:#980000"/>
        <stop offset="1" style="stop-color:#730000"/>
      </radialGradient>
      <path d="M67.24,18.01c-0.6,0-1.03-0.21-1.14-0.57c-0.05-0.16-0.03-0.33,0.05-0.5 c0.29-0.57,1.32-0.96,1.75-1.09c0.43-0.14,0.96-0.21,1.6-0.21c0.49,0,0.85,0.04,0.85,0.04l0.52,0.06l-0.34,0.4 c-0.04,0.04-0.86,1.01-1.99,1.55C68.13,17.91,67.66,18.01,67.24,18.01z" fill="url(#SVGID_19_)"/>
      <path d="M69.49,15.93c0.47,0,0.82,0.04,0.82,0.04s-0.81,0.96-1.89,1.48c-0.41,0.19-0.83,0.28-1.18,0.28 c-0.45,0-0.8-0.14-0.87-0.38c-0.14-0.42,0.64-0.92,1.62-1.23C68.46,15.97,69.03,15.93,69.49,15.93 M69.49,15.36 c-0.66,0-1.23,0.07-1.68,0.22c-1.5,0.48-2.22,1.2-1.98,1.95c0.16,0.48,0.68,0.77,1.41,0.77c0.47,0,0.97-0.12,1.43-0.34 c1.19-0.57,2.05-1.58,2.08-1.63l0.68-0.81l-1.05-0.12C70.36,15.4,69.99,15.36,69.49,15.36z"/>
      <path d="M62.79,16.44l-0.45-0.28c0.51-0.83,0.1-2.41,0.1-2.42l0.51-0.14C62.98,13.68,63.43,15.42,62.79,16.44z" fill="#875740"/>
      <path d="M64.95,16.44c-0.63-1.02-0.18-2.76-0.16-2.84l0.51,0.14c0,0.02-0.41,1.59,0.1,2.42L64.95,16.44z" fill="#875740"/>
      <radialGradient id="SVGID_20_" cx="58.609" cy="97.6417" gradientTransform="matrix(0.9649 -0.0175 -0.0701 -1.0351 16.5747 139.7523)" gradientUnits="userSpaceOnUse" r="3.8375">
        <stop offset="2.644200e-03" style="stop-color:#FF0000"/>
        <stop offset="0.0722" style="stop-color:#F50000"/>
        <stop offset="0.7116" style="stop-color:#980000"/>
        <stop offset="1" style="stop-color:#730000"/>
      </radialGradient>
      <polygon fill="url(#SVGID_20_)" points="64.23,36.37 65.9,32.45 68.16,36.27 66.59,42.87 "/>
      <path d="M65.94,33.16l1.88,3.16l-1.29,5.44l-1.96-5.38L65.94,33.16 M65.85,31.75l-0.5,1.16l-1.37,3.22l-0.1,0.23l0.09,0.24 l1.95,5.38l0.73,2.01l0.49-2.08l1.29-5.44l0.06-0.25L68.36,36l-1.88-3.16L65.85,31.75z"/>
      <linearGradient id="SVGID_21_" gradientTransform="matrix(1 0 0 -1 0 131.4283)" gradientUnits="userSpaceOnUse" x1="29.3788" x2="55.4383" y1="99.5825" y2="103.6015">
        <stop offset="2.804500e-03" style="stop-color:#0063B2"/>
        <stop offset="1" style="stop-color:#170D1F"/>
      </linearGradient>
      <path d="M33.44,39.98c-1.67,0-3.2-1.04-3.8-2.59l-4.12-10.63c-0.19-0.5-0.18-1.04,0.04-1.54 c0.22-0.49,0.61-0.87,1.11-1.06l2.74-1.07c0.23-0.09,0.47-0.14,0.72-0.14c0.83,0,1.58,0.52,1.88,1.28l2.82,7.26l16.09-4.28 c0.33-0.09,0.67-0.13,1.02-0.13c1.81,0,3.39,1.22,3.85,2.96c0.27,1.02,0.13,2.09-0.41,3.02c-0.54,0.92-1.39,1.58-2.42,1.85 l-18,4.79C34.41,39.89,33.93,39.98,33.44,39.98z" fill="url(#SVGID_21_)"/>
      <path d="M30.12,23.34c0.67,0,1.28,0.41,1.51,1.03l2.69,6.93l0.26,0.66l0.68-0.18l15.75-4.19 c0.3-0.08,0.61-0.12,0.91-0.12c1.63,0,3.06,1.1,3.47,2.66c0.24,0.92,0.11,1.89-0.37,2.72c-0.48,0.83-1.25,1.42-2.18,1.67 L34.88,39.3h-0.04l-0.1,0.02l-0.04,0.02c-0.41,0.16-0.85,0.24-1.29,0.24c-1.51,0-2.89-0.94-3.44-2.34l-4.12-10.63 c-0.32-0.83,0.09-1.77,0.92-2.09l2.74-1.06C29.73,23.37,29.92,23.34,30.12,23.34 M30.12,22.55c-0.29,0-0.58,0.05-0.86,0.16 l-2.74,1.06c-1.23,0.48-1.85,1.88-1.37,3.11l4.12,10.63c0.68,1.76,2.38,2.85,4.17,2.85c0.52,0,1.05-0.09,1.57-0.29 c0.02,0,0.04,0,0.06-0.01l18-4.79c2.33-0.62,3.72-3.03,3.1-5.35c-0.52-1.95-2.3-3.25-4.23-3.25c-0.37,0-0.74,0.05-1.12,0.15 l-15.75,4.19l-2.69-6.93C32,23.13,31.09,22.55,30.12,22.55z" fill="#0E2B52"/>
      <path d="M40.87,123.2c-5.94,0-9.06-1.2-10.64-2.2c-0.28-0.18-0.25-0.45-0.24-0.53c0.02-0.1,0.09-0.34,0.4-0.4 c17.72-3.73,18.31-5.13,18.53-5.66c0.12-0.28,0.09-0.58-0.07-0.84c-3.9-6.06-12.39-21.71-15.86-28.15 c-0.12-0.22-0.05-0.41,0.01-0.5c0.07-0.12,0.23-0.25,0.43-0.25c0.05,0,0.1,0.01,0.15,0.02l13.13,3.78 c0.17,0.05,0.29,0.17,0.35,0.34l9.65,31.01c0.06,0.29,0.01,0.56-0.17,0.81c-0.9,1.25-4.5,1.63-6.43,1.84 c-0.42,0.04-0.8,0.08-1.1,0.12C46.05,122.99,43.31,123.2,40.87,123.2z" fill="#0E2B52"/>
      <path d="M33.69,85.38l12.78,3.68l9.61,30.89c0.03,0.17-0.01,0.24-0.06,0.31c-0.73,1.02-4.41,1.41-5.99,1.58 c-0.43,0.05-0.81,0.09-1.12,0.13c-2.94,0.4-5.65,0.6-8.05,0.6c-5.47,0-8.46-1.02-10.04-1.94c17.75-3.75,18.35-5.19,18.68-5.97 c0.2-0.48,0.15-0.99-0.12-1.42C45.55,107.26,37.24,91.97,33.69,85.38 M33.43,84.03c-0.82,0-1.43,0.9-1,1.69 c3.27,6.08,11.94,22.06,15.88,28.2c0.89,1.39-12.71,4.41-18.06,5.53c-1.01,0.21-1.24,1.54-0.37,2.09c1.7,1.08,4.96,2.3,10.98,2.3 c2.31,0,5.03-0.18,8.23-0.61c2.28-0.31,8.91-0.54,8.22-3.6l-9.65-31.01c-0.11-0.37-0.41-0.65-0.78-0.76l-13.13-3.78 C33.64,84.04,33.53,84.03,33.43,84.03z"/>
      <path d="M101.36,118.52c-0.75,0-1.53-0.02-2.33-0.07c-6.89-0.39-9.03-1.91-9.62-3.11l-8.55-23.95 c-0.04-0.12-0.02-0.25,0.07-0.34l8.83-9.88c0.07-0.08,0.15-0.12,0.25-0.12c0.15,0,0.32,0.09,0.34,0.3 c0.75,6.56,2.59,22.44,3.39,28.2c0.07,0.51,0.24,1.7,15.39,7.56c0.21,0.08,0.22,0.27,0.22,0.35c-0.01,0.08-0.04,0.25-0.26,0.3 C107.41,118.1,104.7,118.52,101.36,118.52L101.36,118.52z" fill="#0E2B52"/>
      <path d="M89.85,81.88c0.78,6.79,2.54,22.04,3.34,27.75c0.11,0.79,0.28,1.99,15.06,7.73c-1.66,0.3-4.04,0.61-6.9,0.61 c-0.76,0-1.54-0.02-2.3-0.07c-7.08-0.4-8.75-2.02-9.14-2.76l-8.5-23.82L89.85,81.88 M90,80.5c-0.24,0-0.47,0.09-0.66,0.3 l-8.83,9.88c-0.22,0.24-0.28,0.58-0.17,0.89l8.57,24.01c1.41,2.89,8.08,3.3,10.08,3.42c0.82,0.05,1.61,0.07,2.36,0.07 c3.3,0,5.99-0.39,7.83-0.77c0.87-0.18,0.96-1.38,0.13-1.7c-4.86-1.88-14.87-5.89-15.05-7.12c-0.83-5.94-2.74-22.49-3.39-28.19 C90.83,80.8,90.42,80.5,90,80.5z"/>
      <linearGradient id="SVGID_22_" gradientTransform="matrix(1 0 0 -1 0 131.4283)" gradientUnits="userSpaceOnUse" x1="23.3081" x2="34.921" y1="127.192" y2="101.4408">
        <stop offset="0" style="stop-color:#17CB1F"/>
        <stop offset="0.356" style="stop-color:#0BB42E"/>
        <stop offset="0.7189" style="stop-color:#03A438"/>
        <stop offset="0.9972" style="stop-color:#009E3C"/>
      </linearGradient>
      <path d=" M34.13,9.11c0.36,0.36,0.96,0.36,1.33,0c0.36-0.36,0.36-0.96,0-1.33l-1.27-1.57c-1.32-1.57-2.54-0.82-2.54-0.82 c0.03-0.16,0.03-0.32-0.03-0.48c-0.18-0.48-0.72-0.73-1.2-0.55c0,0-1.58,0.26-1.68,0.13c-0.32-0.4-0.92-0.46-1.32-0.14l-2.23,1.82 c-0.25,0.2-2.31,4.39-2.71,7.97c-0.67,6,0.7,13.92,4.17,21.01c0,0,1.39-3.67,3.04-5.4c1.18-1.26,3.18-2.39,5.26-2.43 c0,0-0.53-2.46-4.36-8.13c-1.65-2.44-2.19-4.07-2.13-5.37h2.87c0.52,0,0.94-0.42,0.94-0.94c0-0.52-0.42-0.94-0.94-0.94H29.7 c-2.12-1.19,0.04-3.15,1.15-3.92C31.52,7.55,32.2,7.8,32.2,7.8L34.13,9.11z" fill="url(#SVGID_22_)" stroke="#009245" stroke-linecap="round" stroke-linejoin="round" stroke-miterlimit="10"/>
      <linearGradient id="SVGID_23_" gradientTransform="matrix(1 0 0 -1 0 131.4283)" gradientUnits="userSpaceOnUse" x1="90.4335" x2="101.3142" y1="107.3719" y2="83.2419">
        <stop offset="0" style="stop-color:#17CB1F"/>
        <stop offset="0.356" style="stop-color:#0BB42E"/>
        <stop offset="0.7189" style="stop-color:#03A438"/>
        <stop offset="0.9972" style="stop-color:#009E3C"/>
      </linearGradient>
      <path d=" M103.83,24.65l-2.92-2.59c-0.92-0.42-0.78-0.55-1.42,0c-1.17,1,1.17,2.5,1.17,2.5c-0.07,0.09-2.78-1.57-2.78-1.57 c-0.38-0.28-0.91-0.19-1.19,0.19l-0.03,0.04c-0.28,0.38-0.19,0.91,0.19,1.19l1.82,1.33c0.11,0.08-2.85-0.89-2.85-0.89 c-0.45-0.14-0.93,0.1-1.07,0.55l-0.02,0.05c-0.15,0.45,0.1,0.93,0.55,1.07l1.85,0.6c0,0.01,0,0.01,0.01,0.02 c0,0,0.33,0.82,0.67,1.71c0.43,1.12,0.39,2.46-0.81,2.54l-1.33-0.08c-0.81-0.06-2.25,1.5,0.08,1.92l3.28,0.45 c-0.2,1.44-1.16,2.86-4.27,4.78c-5.51,3.42-6.97,5.3-6.97,5.3c1.7,0.76,2.87,2.4,3.33,3.87c0.64,2.03-0.22,6.58-0.22,6.58 c5.79-4.73,10.22-13.04,11.86-17.59l0,0c1.28-3.55,0.76-7.55,0.84-7.96C103.6,28.66,104.03,24.95,103.83,24.65L103.83,24.65z" fill="url(#SVGID_23_)" stroke="#009245" stroke-linecap="round" stroke-linejoin="round" stroke-miterlimit="10"/>
    </g>
  </g>
</svg>