<svg viewBox="0 0 128 128" xmlns="http://www.w3.org/2000/svg" xmlns:xlink="http://www.w3.org/1999/xlink">
  <g id="Layer_4_copy_2">
    <g>
      <path d="M52.62,65.62l-0.27-0.81 c-0.27-0.8-0.47-1.88-0.2-2.68c0.06-0.17,0.09-0.36,0.09-0.55c0-0.95-0.77-1.72-1.72-1.72s-1.72,0.77-1.72,1.72 c0,0.57,0.28,1.07,0.7,1.39c0.71,0.52,0.99,1.12,1.28,1.95c0.14,0.41,0.25,0.73,0.25,0.73c0.07,0.21,0.59,0.4,0.8,0.4 c0.05,0,0.11-0.01,0.16-0.03C52.27,65.93,52.71,65.89,52.62,65.62z" stroke="#655C5A" stroke-linecap="round" stroke-linejoin="round" stroke-miterlimit="10"/>
      <g>
        <g>
          <g>
            <g>
              <linearGradient id="SVGID_1_" gradientTransform="matrix(0.9936 -0.1126 0.1126 0.9936 -87.2904 251.5455)" gradientUnits="userSpaceOnUse" x1="184.609" x2="198.3242" y1="-222.6615" y2="-194.9453">
                <stop offset="0.5588" style="stop-color:#F9DDBD"/>
                <stop offset="1" style="stop-color:#FFD29C"/>
              </linearGradient>
              <path d="M74.58,37.55l1.3-3.06c0.06-0.15,0.05-0.32-0.03-0.45c-0.08-0.14-0.23-0.23-0.39-0.24 c-0.1-0.01-0.19-0.01-0.26-0.01c-0.16,0-0.25,0.02-0.36,0.03c-0.08,0.01-0.17,0.03-0.36,0.03c-0.3,0-0.75-0.04-1.4-0.11 c-4.25-0.48-4.51-2.85-4.69-4.57c-0.08-0.71-0.14-1.27-0.45-1.65c-0.1-0.12-0.26-0.2-0.56-0.36 c-0.4-0.21-1.61-0.84-1.49-1.29c0.13-0.53,0.74-1.1,1.32-1.65c0.8-0.76,1.63-1.54,1.53-2.5c0-0.25-0.12-0.87-0.26-1.5 l-0.03-0.14c-0.24-1.26-0.19-2.98,0.14-4.61c1.04-5.13,4.24-8.27,9.01-8.83c0.33-0.04,0.67-0.06,1.01-0.06 c4.24,0,9.11,2.98,11.32,6.94c1.4,2.51,1.44,9.23-1.16,12.77c-4.56,6.19-5.09,10.41-5.12,11.91L74.58,37.55z" fill="url(#SVGID_1_)"/>
              <path d="M78.61,7.08c4.01,0,8.79,2.94,10.88,6.69c1.31,2.35,1.32,8.89-1.13,12.22 c-4.17,5.66-5.04,9.76-5.18,11.67l-7.86-0.57l1.02-2.42c0.13-0.3,0.1-0.63-0.07-0.91c-0.17-0.27-0.45-0.45-0.77-0.48 c-0.12-0.01-0.22-0.01-0.3-0.01c-0.2,0-0.34,0.02-0.44,0.04c-0.08,0.01-0.13,0.02-0.27,0.02 c-0.27,0-0.73-0.04-1.35-0.11c-3.85-0.44-4.07-2.4-4.25-4.13c-0.08-0.76-0.15-1.42-0.57-1.92 c-0.17-0.2-0.37-0.31-0.71-0.49c-0.67-0.35-1.08-0.62-1.21-0.8c0.15-0.38,0.7-0.9,1.15-1.32 c0.84-0.79,1.79-1.69,1.69-2.87c-0.01-0.32-0.12-0.87-0.27-1.59l-0.03-0.13c-0.23-1.2-0.18-2.85,0.14-4.41 c0.57-2.84,2.45-7.71,8.58-8.44C77.97,7.1,78.29,7.08,78.61,7.08 M78.61,6.08c-0.36,0-0.71,0.02-1.07,0.06 c-5.4,0.64-8.46,4.37-9.44,9.23c-0.36,1.76-0.38,3.53-0.14,4.8c0.03,0.15,0.28,1.26,0.28,1.6 c0.14,1.33-2.47,2.53-2.84,3.97c-0.28,1.09,1.98,1.89,2.15,2.09c0.85,1.02-0.78,5.69,5.48,6.4 c0.76,0.09,1.19,0.11,1.46,0.11c0.41,0,0.44-0.06,0.72-0.06c0.06,0,0.13,0,0.22,0.01l-1.57,3.7l10.32,0.74 c0,0-0.61-4.55,5-12.15c2.67-3.63,2.72-10.58,1.2-13.31C88.17,9.35,83.17,6.08,78.61,6.08L78.61,6.08z" fill="#EDBD82"/>
            </g>
            <path d="M70.7,27.59l-2.44,0.27c0,0,0.2,1.12,0.32,1.58c0.64,2.49,2.19,5.16,6.53,5.08 c0.39-0.01-1.84-5.6-1.84-5.6L70.7,27.59z" fill="none"/>
            <path d="M68.08,30.48c0.87,0.09,1.74-0.08,2.5-0.59c0.83-0.56,0.31-1.25-0.63-0.9 c-0.57,0.21-1.36,0.29-2.07,0.13L68.08,30.48z" fill="#2F2829"/>
          </g>
          <ellipse cx="72.1" cy="22.68" fill="#312D2D" rx="1.77" ry="1.15" transform="matrix(0.0138 -0.9999 0.9999 0.0138 48.4256 94.4643)"/>
          <g>
            <radialGradient id="SVGID_3_" cx="72.5213" cy="19.7598" gradientUnits="userSpaceOnUse" r="1.889">
              <stop offset="0.0905" style="stop-color:#454140"/>
              <stop offset="1" style="stop-color:#454140"/>
            </radialGradient>
            <path d="M71.33,20.03c-1.15,0.22-1.34-0.55-0.91-1.1c0.32-0.41,1.03-0.71,2.31-0.32 c1.21,0.36,1.64,1.12,1.93,1.59c0.29,0.46,0.21,0.89-0.08,0.9C74.19,21.1,72.75,19.77,71.33,20.03z" fill="url(#SVGID_3_)"/>
          </g>
        </g>
        <g>
          <radialGradient id="SVGID_4_" cx="136.309" cy="-146.9047" gradientTransform="matrix(1.0385 0.0161 -9.558592e-03 1.0002 -65.5563 155.7814)" gradientUnits="userSpaceOnUse" r="12.5869">
            <stop offset="0" style="stop-color:#454140"/>
            <stop offset="1" style="stop-color:#312D2D"/>
          </radialGradient>
          <path d="M80.63,22.56l1.04-1.47c0.65-0.83,1.24-1.55,2.03-1.37c2.33,0.56,1.83,4.73-0.96,5.6 c0,0,0.38,4.33,3.32,5.18c0.31,0.09,1.25,0.51,1.5,0.55c0.79,0.1,0.78-2.04,1.01-2.81c1.4-4.79,3-3.79,4.23-9.39 c1.69-7.68-5.03-12.94-11.6-13.59c-2.56-0.25-5.22,0.05-7.6,1.05c-1.01,0.41-4.53,2.13-5.34,3.76 C67.24,12.15,68.44,14,68.44,14s6.87-0.29,9.99,0.49c0.41,0.1,0.87,0.25,1.05,0.64c0.08,0.17,0.1,1.23,0.1,1.42 c0.07,2.4-0.18,3.89,0.47,5.43C80.16,22.22,80.63,22.56,80.63,22.56z" fill="url(#SVGID_4_)"/>
        </g>
        <path d="M86.07,29.32c0.31,0.09,0.58,0.15,0.83,0.18c0.79,0.1,1.44-0.49,1.67-1.26c1.4-4.79,3-3.79,4.23-9.39 c1.69-7.68-5.03-12.94-11.6-13.59c-2.56-0.25-5.22,0.05-7.6,1.05c-1.01,0.41-4.53,2.13-5.34,3.76 C67.24,12.15,68.44,14,68.44,14s6.87-0.29,9.99,0.49c0.41,0.1,0.87,0.25,1.05,0.64c0.08,0.17,0.1,1.23,0.1,1.42" fill="none"/>
        <path d="M91.55,10.37c-2.21-3.05-6.16-5.2-10.3-5.6c-2.78-0.27-5.49,0.1-7.84,1.09c-0.04,0.02-4.52,1.94-5.6,4 c-1.16,2.21-0.27,3.57-0.05,3.82c0.39,0.45,1.19,0.31,1.19,0.31c-0.56-0.64-0.89-2.38-0.24-3.68c0.7-1.4,3.97-3.07,5.08-3.52 c2.2-0.92,4.74-1.27,7.36-1.02c3.86,0.38,7.53,2.37,9.58,5.2c1.65,2.27,2.19,4.96,1.57,7.79c-0.64,2.92-1.37,3.96-2.15,5.06 c-0.69,0.99-1.41,2-2.08,4.29c-0.14,0.49-1.27,1.39-1.19,1.4c1.07,0.09,1.86-0.13,2.15-1.12c0.62-2.13,1.26-3.04,1.94-4 c0.8-1.13,1.62-2.31,2.3-5.42C93.98,15.85,93.37,12.88,91.55,10.37z" fill="#1F1A1A"/>
      </g>
      <g>
        <linearGradient id="SVGID_5_" gradientUnits="userSpaceOnUse" x1="82.335" x2="96.2432" y1="104.3511" y2="104.3511">
          <stop offset="0.1583" style="stop-color:#655C5A"/>
          <stop offset="0.3351" style="stop-color:#5A5250"/>
          <stop offset="0.6463" style="stop-color:#3D3736"/>
          <stop offset="1" style="stop-color:#141111"/>
        </linearGradient>
        <rect fill="url(#SVGID_5_)" height="4.61" width="13.91" x="82.33" y="102.05"/>
        <path d="M95.74,102.55v3.61H82.83v-3.61H95.74 M96.74,101.55H81.83v5.61h14.91V101.55L96.74,101.55z" fill="#2F2829"/>
      </g>
      <g>
        <linearGradient id="SVGID_6_" gradientUnits="userSpaceOnUse" x1="28.816" x2="32.7625" y1="116.56" y2="106.9259">
          <stop offset="0.2105" style="stop-color:#4E4545"/>
          <stop offset="0.4407" style="stop-color:#433C3D"/>
          <stop offset="0.8443" style="stop-color:#252529"/>
          <stop offset="1" style="stop-color:#181A20"/>
        </linearGradient>
        <path d="M39.78,112.12c-0.82,0-1.48-0.12-1.83-0.23l-18.34-6.13c-0.43-0.14-0.78-0.44-0.99-0.84 c-0.21-0.4-0.24-0.86-0.1-1.29c0.23-0.7,0.87-1.17,1.61-1.17c0.18,0,0.35,0.03,0.52,0.08l17.7,5.87c0.05,0.02,0.1,0.03,0.16,0.03 c0.14,0,0.28-0.06,0.38-0.17l9.62-10.94l1.85,4.77c-1.19,1.41-7.55,8.94-7.75,9.17C42.14,111.8,41.11,112.12,39.78,112.12z" fill="url(#SVGID_6_)"/>
        <path d="M48.34,98.26l1.44,3.72c-1.56,1.85-7.37,8.72-7.56,8.94c-0.36,0.43-1.3,0.69-2.45,0.69 c-0.76,0-1.38-0.11-1.67-0.21l-18.35-6.14c-0.3-0.1-0.55-0.31-0.69-0.59c-0.14-0.28-0.17-0.61-0.07-0.91 c0.16-0.49,0.62-0.82,1.13-0.82c0.12,0,0.25,0.02,0.36,0.06l17.71,5.87c0.1,0.03,0.21,0.05,0.31,0.05c0.28,0,0.56-0.12,0.75-0.34 L48.34,98.26 M48.68,96.36l-10.16,11.56l-17.71-5.87c-0.23-0.07-0.45-0.11-0.68-0.11c-0.92,0-1.78,0.59-2.09,1.52h0 c-0.37,1.15,0.26,2.39,1.41,2.76l18.34,6.14c0.46,0.15,1.19,0.26,1.98,0.26c1.21,0,2.55-0.26,3.21-1.05 c0.22-0.26,7.94-9.4,7.94-9.4L48.68,96.36L48.68,96.36z" fill="#4E4545"/>
      </g>
      <g>
        <g>
          <radialGradient id="SVGID_7_" cx="41.1246" cy="112.4549" gradientUnits="userSpaceOnUse" r="9.4761">
            <stop offset="0.0171" style="stop-color:#AFB8B6"/>
            <stop offset="0.1832" style="stop-color:#A4AEAD"/>
            <stop offset="0.4755" style="stop-color:#869295"/>
            <stop offset="0.8571" style="stop-color:#57656F"/>
            <stop offset="1" style="stop-color:#43535F"/>
          </radialGradient>
          <path d="M44.55,123.5c-3.76,0-6.82-3.06-6.82-6.82s3.06-6.82,6.82-6.82s6.82,3.06,6.82,6.82 S48.31,123.5,44.55,123.5z" fill="url(#SVGID_7_)"/>
          <path d="M44.55,110.36c3.49,0,6.32,2.84,6.32,6.32S48.04,123,44.55,123s-6.32-2.84-6.32-6.32 S41.07,110.36,44.55,110.36 M44.55,109.36c-4.04,0-7.32,3.28-7.32,7.32s3.28,7.32,7.32,7.32s7.32-3.28,7.32-7.32 S48.6,109.36,44.55,109.36L44.55,109.36z" fill="#2F3B4B"/>
        </g>
        <g>
          <path d="M44.55,119.6c-1.61,0-2.92-1.31-2.92-2.92s1.31-2.92,2.92-2.92s2.92,1.31,2.92,2.92 S46.16,119.6,44.55,119.6z" fill="#141111"/>
          <path d="M44.55,114.26c1.33,0,2.42,1.08,2.42,2.42s-1.08,2.42-2.42,2.42s-2.42-1.08-2.42-2.42 S43.22,114.26,44.55,114.26 M44.55,113.26c-1.89,0-3.42,1.53-3.42,3.42s1.53,3.42,3.42,3.42c1.89,0,3.42-1.53,3.42-3.42 S46.44,113.26,44.55,113.26L44.55,113.26z" fill="#2F2829"/>
        </g>
      </g>
      <g>
        <path d="M44.55,116.85c-0.76,0-1.38-0.62-1.38-1.38v-10.72h2.75v10.72C45.93,116.23,45.31,116.85,44.55,116.85z" fill="#43535F"/>
        <path d="M45.43,105.25v10.22c0,0.48-0.39,0.88-0.88,0.88s-0.88-0.39-0.88-0.88v-10.22H45.43 M46.43,104.25h-3.75 v11.22c0,1.04,0.84,1.88,1.88,1.88c1.04,0,1.88-0.84,1.88-1.88V104.25L46.43,104.25z" fill="#2F3B4B"/>
      </g>
      <g>
        <path d="M36.43,106.65c-0.07,0-0.13-0.01-0.19-0.03l-14.68-4.7c-0.12-0.04-0.23-0.13-0.29-0.24 c-0.06-0.12-0.07-0.25-0.03-0.37l0.39-1.19c0.44-1.35,1.65-2.28,3.07-2.37l6.44-0.05l6.27,2.02c0.24,0.62,0.91,2.54,0.48,3.86 l-0.84,2.64C36.95,106.48,36.7,106.65,36.43,106.65L36.43,106.65z" fill="#3C469A"/>
        <path d="M31.05,98.2l5.97,1.92c0.29,0.82,0.7,2.33,0.39,3.31l-0.84,2.64c-0.02,0.06-0.07,0.09-0.14,0.09 c-0.01,0-0.02,0-0.02,0l-14.68-4.69l0.39-1.19c0.38-1.15,1.4-1.94,2.6-2.02L31.05,98.2 M31.2,97.19l-6.54,0.05 c-1.61,0.1-3,1.18-3.51,2.71l-0.39,1.19c-0.17,0.52,0.12,1.08,0.64,1.25l14.68,4.7c0.12,0.04,0.23,0.05,0.35,0.05 c0.48,0,0.93-0.31,1.08-0.79l0.84-2.64c0.58-1.79-0.58-4.42-0.58-4.42L31.2,97.19L31.2,97.19z" fill="#232B84"/>
      </g>
      <g>
        <path d="M30.26,96.66l6.62-16.52c2.98-7.05,6.24-7.65,10.38-8.42l0.33-0.06l12.14-2.11 c0.18-0.03,0.33-0.16,0.39-0.33l1.07-3.12h17.69c0.28,1.84,1.2,9.42-1.76,13.52c-1.07,1.48-2.55,2.36-4.42,2.61 c-3.62,0.49-8.47,0.74-14.39,0.74c0,0,0,0,0,0c-5.58,0-10.1-0.23-10.15-0.23c-0.01,0-0.02,0-0.03,0c-0.19,0-0.36,0.1-0.44,0.27 l-8.84,17.23L30.26,96.66z" fill="#7C7C7C"/>
        <path d="M78.44,66.6c0.32,2.32,0.94,9.03-1.74,12.73c-1,1.38-2.33,2.17-4.08,2.41c-3.6,0.49-8.42,0.74-14.32,0.74 c-5.56,0-10.08-0.23-10.12-0.23c-0.02,0-0.03,0-0.05,0c-0.37,0-0.72,0.21-0.89,0.54L38.6,99.6l-7.7-3.21l6.43-16.05 c2.88-6.81,5.87-7.36,10.01-8.13l0.32-0.06l12.15-2.11c0.36-0.06,0.66-0.32,0.78-0.66l0.95-2.79H78.44 M79.3,65.6H60.83 l-1.18,3.46L47.5,71.17c-4.32,0.8-7.91,1.28-11.08,8.78l-6.81,16.98l9.46,3.95l9.06-17.64c0,0,4.52,0.23,10.17,0.23 c4.68,0,10.14-0.16,14.46-0.75C82.26,81.44,79.3,65.6,79.3,65.6L79.3,65.6z" fill="#5B5B5B"/>
      </g>
      <g>
        <linearGradient id="SVGID_8_" gradientUnits="userSpaceOnUse" x1="47.4551" x2="47.4551" y1="99.0913" y2="106.8293">
          <stop offset="0.3512" style="stop-color:#B80000"/>
          <stop offset="0.5204" style="stop-color:#AD0000"/>
          <stop offset="0.8169" style="stop-color:#8F0000"/>
          <stop offset="1" style="stop-color:#7A0000"/>
        </linearGradient>
        <path d="M44.25,106.92c-1.57,0-2.85-1.28-2.85-2.85v-1.4c0-0.77,0.32-1.52,0.88-2.06l8.5-8.14l2.72,14.44 H44.25z" fill="url(#SVGID_8_)"/>
        <path d="M50.46,93.47l2.44,12.94h-8.65c-1.3,0-2.35-1.05-2.35-2.35v-1.4c0-0.64,0.26-1.26,0.72-1.7L50.46,93.47 M51.11,91.47l-9.17,8.78c-0.66,0.63-1.03,1.51-1.03,2.42v1.4c0,1.85,1.5,3.35,3.35,3.35h9.86L51.11,91.47L51.11,91.47z" fill="#7A0000"/>
      </g>
      <g opacity="0.2">
        <radialGradient id="SVGID_9_" cx="50.8425" cy="99.6963" gradientUnits="userSpaceOnUse" r="5.4427">
          <stop offset="0.1505" style="stop-color:#2F2829"/>
          <stop offset="0.5735" style="stop-color:#241E1F"/>
          <stop offset="1" style="stop-color:#141111"/>
        </radialGradient>
        <polygon fill="url(#SVGID_9_)" points="51.09,106.92 48.18,94.97 50.79,92.47 53.51,106.92 "/>
        <path d="M50.46,93.47l2.44,12.94h-1.42l-2.75-11.29L50.46,93.47 M51.14,91.63l-0.2,0.01l-3.31,3.17l3.08,12.61 h3.41L51.14,91.63L51.14,91.63z" fill="#141111"/>
      </g>
      <g>
        <g>
          <radialGradient id="SVGID_10_" cx="93.3151" cy="112.4549" gradientUnits="userSpaceOnUse" r="9.4762">
            <stop offset="0.0171" style="stop-color:#AFB8B6"/>
            <stop offset="0.1832" style="stop-color:#A4AEAD"/>
            <stop offset="0.4755" style="stop-color:#869295"/>
            <stop offset="0.8571" style="stop-color:#57656F"/>
            <stop offset="1" style="stop-color:#43535F"/>
          </radialGradient>
          <circle cx="96.74" cy="116.68" fill="url(#SVGID_10_)" r="6.82"/>
          <path d="M96.74,110.36c3.49,0,6.32,2.84,6.32,6.32s-2.84,6.32-6.32,6.32s-6.32-2.84-6.32-6.32 S93.26,110.36,96.74,110.36 M96.74,109.36c-4.04,0-7.32,3.28-7.32,7.32S92.7,124,96.74,124c4.04,0,7.32-3.28,7.32-7.32 S100.79,109.36,96.74,109.36L96.74,109.36z" fill="#2F3B4B"/>
        </g>
        <g>
          <circle cx="96.74" cy="116.68" fill="#141111" r="2.92"/>
          <path d="M96.74,114.26c1.33,0,2.42,1.08,2.42,2.42s-1.08,2.42-2.42,2.42s-2.42-1.08-2.42-2.42 S95.41,114.26,96.74,114.26 M96.74,113.26c-1.89,0-3.42,1.53-3.42,3.42s1.53,3.42,3.42,3.42c1.89,0,3.42-1.53,3.42-3.42 S98.63,113.26,96.74,113.26L96.74,113.26z" fill="#2F2829"/>
        </g>
      </g>
      <g>
        <radialGradient id="SVGID_11_" cx="68.1924" cy="94.7954" gradientUnits="userSpaceOnUse" r="3.089">
          <stop offset="0.0171" style="stop-color:#AFB8B6"/>
          <stop offset="0.1832" style="stop-color:#A4AEAD"/>
          <stop offset="0.4755" style="stop-color:#869295"/>
          <stop offset="0.8571" style="stop-color:#57656F"/>
          <stop offset="1" style="stop-color:#43535F"/>
        </radialGradient>
        <rect fill="url(#SVGID_11_)" height="8.05" width="3.4" x="66.49" y="90.77"/>
        <path d="M69.39,91.27v7.05h-2.4v-7.05H69.39 M70.39,90.27h-4.4v9.05h4.4V90.27L70.39,90.27z" fill="#2F3B4B"/>
      </g>
      <g>
        <radialGradient id="SVGID_12_" cx="74.1143" cy="52.6652" gradientTransform="matrix(0.9761 0.2172 -0.2172 0.9761 11.7953 -13.9696)" gradientUnits="userSpaceOnUse" r="15.0429">
          <stop offset="0.3637" style="stop-color:#00BFA5"/>
          <stop offset="0.8121" style="stop-color:#00B29A"/>
          <stop offset="1" style="stop-color:#00AB94"/>
        </radialGradient>
        <path d="M76.08,72.88c-8.22,0-15.03-3.31-16.51-4.09c0.33-2.16,2.28-14.02,6.69-22.47 c2.86-5.47,4.7-7.34,6.92-8.72c1.38-0.86,3.87-1.73,6.31-1.73c1.31,0,3.1,0.26,4.14,1.5c1.85,2.19,1.67,3.28,1.31,5.46 c-0.06,0.37-0.12,0.76-0.18,1.19l-6.43,28.78C77.59,72.85,76.84,72.88,76.08,72.88z" fill="url(#SVGID_12_)"/>
        <path d="M79.5,36.36L79.5,36.36c1.21,0,2.84,0.23,3.76,1.32c1.7,2.02,1.55,2.91,1.2,5.05 c-0.06,0.36-0.12,0.74-0.18,1.16l-6.35,28.41c-0.61,0.04-1.23,0.06-1.85,0.06c-7.61,0-14.02-2.9-15.96-3.87 c0.45-2.85,2.41-13.95,6.59-21.96c2.82-5.4,4.54-7.16,6.74-8.53C74.77,37.19,77.15,36.36,79.5,36.36 M79.49,35.36 c-2.38,0-4.97,0.8-6.58,1.8c-2.47,1.54-4.32,3.6-7.1,8.92c-4.95,9.47-6.8,22.98-6.8,22.98s7.56,4.31,17.06,4.31 c0.87,0,1.76-0.04,2.66-0.12l6.52-29.18c0.42-3.02,1.08-4.28-1.24-7.04C83,35.83,81.31,35.36,79.49,35.36L79.49,35.36z" fill="#009984"/>
      </g>
      <g>
        <linearGradient id="SVGID_13_" gradientUnits="userSpaceOnUse" x1="66.5166" x2="66.5166" y1="87.4789" y2="70.1781">
          <stop offset="0" style="stop-color:#4E4545"/>
          <stop offset="0.2689" style="stop-color:#433B3B"/>
          <stop offset="0.7403" style="stop-color:#252021"/>
          <stop offset="0.9769" style="stop-color:#141111"/>
        </linearGradient>
        <path d="M65.42,86.28c-0.73-0.96-2.49-3.92-2.49-10.13c0-6.22,1.77-9.18,2.5-10.14l4.47,1.95 c-0.68,1.05-1.97,3.64-1.97,8.19c0,4.52,1.4,6.96,2.18,7.96L65.42,86.28z" fill="url(#SVGID_13_)"/>
        <path d="M65.6,66.64l3.58,1.56c-0.74,1.33-1.75,3.91-1.75,7.96c0,4.02,1.1,6.47,1.93,7.76l-3.76,1.74 c-0.75-1.15-2.16-4.04-2.16-9.5C63.43,70.67,64.86,67.77,65.6,66.64 M65.28,65.4c-0.48,0.53-2.85,3.52-2.85,10.74 s2.37,10.22,2.85,10.74l5.65-2.61c0,0-2.5-2.18-2.5-8.13c0-5.9,2.24-8.4,2.24-8.4L65.28,65.4L65.28,65.4z" fill="#655C5A"/>
      </g>
      <g>
        <linearGradient id="SVGID_14_" gradientUnits="userSpaceOnUse" x1="68.4421" x2="68.4421" y1="108.092" y2="91.1299">
          <stop offset="0" style="stop-color:#CB0A05"/>
          <stop offset="0.2706" style="stop-color:#F31612"/>
          <stop offset="0.892" style="stop-color:#F31612"/>
          <stop offset="0.9557" style="stop-color:#D80E09"/>
          <stop offset="1" style="stop-color:#CB0A05"/>
        </linearGradient>
        <path d="M55.28,109.43c-2.27,0-2.8-1.33-3.14-4.31l-2.15-15.06h36.9l-2.14,15.05 c-0.34,2.99-0.88,4.32-3.14,4.32H55.28z" fill="url(#SVGID_14_)"/>
        <path d="M86.31,90.56l-2.07,14.51c-0.35,3.07-0.89,3.86-2.64,3.86H69.58H67.3H55.28c-1.75,0-2.29-0.79-2.65-3.89 l-2.06-14.48H67.3h2.28H86.31 M87.47,89.56H69.58H67.3H49.42l2.23,15.62c0.31,2.75,0.81,4.75,3.64,4.75H67.3h2.28H81.6 c2.82,0,3.32-2.01,3.64-4.75L87.47,89.56L87.47,89.56z" fill="#B80000"/>
      </g>
      <g opacity="0.2">
        <radialGradient id="SVGID_15_" cx="68.4421" cy="90.8135" gradientUnits="userSpaceOnUse" r="13.0553">
          <stop offset="0.1505" style="stop-color:#2F2829"/>
          <stop offset="0.5735" style="stop-color:#241E1F"/>
          <stop offset="1" style="stop-color:#141111"/>
        </radialGradient>
        <polygon fill="url(#SVGID_15_)" points="50.21,91.57 49.99,90.06 86.89,90.06 86.67,91.57 "/>
        <path d="M86.31,90.56l-0.07,0.51h-35.6l-0.07-0.51H67.3h2.28H86.31 M87.47,89.56L87.47,89.56L87.47,89.56z M87.47,89.56H69.58H67.3H49.42l0.36,2.51h37.33L87.47,89.56L87.47,89.56z" fill="#141111"/>
      </g>
      <g>
        <linearGradient id="SVGID_16_" gradientUnits="userSpaceOnUse" x1="68.4919" x2="68.4919" y1="80.1979" y2="89.2358">
          <stop offset="0" style="stop-color:#4E4545"/>
          <stop offset="0.1362" style="stop-color:#433B3B"/>
          <stop offset="0.3029" style="stop-color:#2F2829"/>
          <stop offset="0.65" style="stop-color:#241E1F"/>
          <stop offset="1" style="stop-color:#141111"/>
        </linearGradient>
        <path d="M50.01,90.33c-0.39,0-0.76-0.16-1.04-0.44c-0.28-0.28-0.42-0.65-0.42-1.05l0.08-4.61 c0.01-0.79,0.66-1.44,1.46-1.45l38.16-0.19l0.19,5.44c0.02,0.64-0.22,1.25-0.67,1.72c-0.45,0.46-1.05,0.72-1.7,0.72L50.01,90.33z " fill="url(#SVGID_16_)"/>
        <path d="M87.76,83.11l0.17,4.95c0.02,0.51-0.17,0.99-0.53,1.36c-0.35,0.37-0.83,0.57-1.35,0.57l-36.05-0.14 c-0.26,0-0.5-0.1-0.68-0.29c-0.18-0.19-0.28-0.43-0.28-0.69l0.08-4.61c0.01-0.52,0.44-0.95,0.96-0.95L87.76,83.11 M88.73,82.1 l-38.65,0.2c-1.07,0.01-1.94,0.87-1.95,1.94l-0.08,4.61c-0.02,1.09,0.86,1.99,1.96,1.99l36.05,0.14c0,0,0.01,0,0.01,0 c1.62,0,2.91-1.34,2.87-2.95L88.73,82.1L88.73,82.1z" fill="#655C5A"/>
      </g>
      <g>
        <g>
          <radialGradient id="SVGID_17_" cx="63.2538" cy="54.2374" gradientTransform="matrix(0.9996 0.0281 -0.0281 0.9996 1.4592 -1.8733)" gradientUnits="userSpaceOnUse" r="13.7761">
            <stop offset="1.722756e-03" style="stop-color:#F9DDBD"/>
            <stop offset="0.7513" style="stop-color:#FFD29C"/>
          </radialGradient>
          <path d="M79.3,47.9l-7.95-1.49c-0.01,0,0.58,0.34,0.58,0.35c-0.08,0.29-2.49,7.61-2.49,7.61l-11.77,2.84 c0,0-5.15-0.98-5.9-0.93c-1.42,0.09-2.53,0.94-3.44,1.88c-1.03,1.05-2.94,1.04-3.15,2.5c-0.17,1.2,2.87,0.29,3.38-0.33 c0.18-0.22,1.49-0.77,1.85-0.71c0.57,0.1,1.22,0.38,1.79,0.48c0.93,0.16,1.78,1.08,2.65,1.44c0.63,0.26,1.37,0.43,2.04,0.24 c0.31-0.09,0.51-0.23,0.83-0.25c0.24-0.01,10.01-0.51,14.02-0.37c4.78,0.16,5.42-4.01,6.16-5.5c0.67-1.37,2.26-6.7,2.59-6.59 C82.38,49.67,79.31,47.9,79.3,47.9z" fill="url(#SVGID_17_)"/>
        </g>
        <path d="M72.55,47.89l7.27,1.38c-0.88,2.2-2.82,6.98-3.47,8.29c-0.92,1.85-1.48,2.97-6.19,2.97l-12.21,0.33 c-0.08,0-0.17,0.01-0.25,0.04c-0.89,0.25-1.32,0.29-1.53,0.29c0,0-0.01,0-0.01,0c-1.88-0.1-2.67-1.19-2.7-1.23 c-0.14-0.21-0.36-0.36-0.61-0.42l-2.14-0.5c-0.07-0.02-0.15-0.03-0.23-0.03c-0.15,0-0.3,0.03-0.43,0.1 c-0.03,0.01-2.76,1.33-3.93,1.81c-0.07,0.03-0.14,0.04-0.19,0.04c-0.14,0-0.18-0.1-0.2-0.15c-0.06-0.18,0.13-0.35,0.25-0.43 c2.68-1.83,4.66-3.37,4.68-3.38c0.02-0.02,0.04-0.03,0.06-0.05c0.15-0.13,0.55-0.27,0.97-0.27c0.08,0,0.16,0.01,0.22,0.02 c0.54,0.13,4.02,0.93,5.27,0.93c0.09,0,0.17,0,0.24-0.01c0.92-0.09,2.41-0.29,2.71-0.33c0.03,0,0.07-0.01,0.1-0.02l8.94-2.18 c0.31-0.08,0.57-0.3,0.69-0.6L72.55,47.89 M71.93,46.76l-2.99,7.38l-8.94,2.18v0c0,0-1.69,0.23-2.66,0.33 c-0.04,0-0.09,0.01-0.15,0.01c-1.2,0-5.07-0.91-5.07-0.91c-0.13-0.02-0.27-0.03-0.42-0.03c-0.58,0-1.25,0.18-1.64,0.53 c0,0-1.94,1.51-4.63,3.35c-1.26,0.86-0.64,2.4,0.51,2.4c0.18,0,0.37-0.04,0.57-0.12c1.21-0.5,3.98-1.83,3.98-1.83l2.14,0.5 c0,0,1.03,1.55,3.48,1.67c0.03,0,0.06,0,0.1,0c0.52,0,1.26-0.19,1.77-0.33l12.21-0.33c5.31,0,6.05-1.51,7.06-3.54 c0.87-1.76,3.95-9.48,3.95-9.48L71.93,46.76L71.93,46.76z" fill="#EDBD82"/>
        <g id="XMLID_104_">
          <path d="M70.3,49.68l3.45-8.57c0.76-1.9,2.58-3.12,4.62-3.12c0.64,0,1.26,0.12,1.86,0.36 c1.23,0.5,2.2,1.44,2.72,2.67c0.52,1.22,0.54,2.58,0.04,3.81l-3.45,8.57L70.3,49.68z" fill="#04A287"/>
          <path d="M78.37,38.49c0.57,0,1.13,0.11,1.67,0.32c1.11,0.45,1.98,1.3,2.45,2.4c0.47,1.1,0.48,2.32,0.04,3.43 l-3.26,8.11l-8.31-3.34l3.26-8.11C74.9,39.59,76.53,38.49,78.37,38.49 M78.37,37.49c-2.17,0-4.23,1.3-5.09,3.44l-3.63,9.04 l10.17,4.09l3.63-9.04c1.13-2.81-0.23-6-3.04-7.13h0C79.74,37.61,79.05,37.49,78.37,37.49L78.37,37.49z" fill="#008F76"/>
        </g>
      </g>
      <linearGradient id="SVGID_18_" gradientUnits="userSpaceOnUse" x1="68.4422" x2="68.4422" y1="93.4664" y2="105.1747">
        <stop offset="0.5329" style="stop-color:#9F0B00"/>
        <stop offset="0.9763" style="stop-color:#9F0B00;stop-opacity:0"/>
      </linearGradient>
      <path d="M54.11,105.17h28.67c0,0-0.88-11.71-13.93-11.71S54.11,105.17,54.11,105.17z" fill="url(#SVGID_18_)"/>
      <g>
        <g>
          <radialGradient id="SVGID_19_" cx="63.3654" cy="100.6023" gradientUnits="userSpaceOnUse" r="17.0052">
            <stop offset="0.0171" style="stop-color:#AFB8B6"/>
            <stop offset="0.1832" style="stop-color:#A4AEAD"/>
            <stop offset="0.4755" style="stop-color:#869295"/>
            <stop offset="0.8571" style="stop-color:#57656F"/>
            <stop offset="1" style="stop-color:#43535F"/>
          </radialGradient>
          <path d="M68.44,123c-7.07,0-12.82-5.75-12.82-12.82s5.75-12.82,12.82-12.82s12.82,5.75,12.82,12.82 S75.51,123,68.44,123z" fill="url(#SVGID_19_)"/>
          <path d="M68.44,98.36c6.52,0,11.82,5.3,11.82,11.82S74.96,122,68.44,122s-11.82-5.3-11.82-11.82 S61.93,98.36,68.44,98.36 M68.44,96.36c-7.63,0-13.82,6.19-13.82,13.82c0,7.63,6.19,13.82,13.82,13.82 c7.63,0,13.82-6.19,13.82-13.82C82.26,102.55,76.07,96.36,68.44,96.36L68.44,96.36z" fill="#2F3B4B"/>
        </g>
        <g>
          <path d="M68.44,116.11c-3.42,0-6.2-2.78-6.2-6.2s2.78-6.2,6.2-6.2s6.2,2.78,6.2,6.2S71.86,116.11,68.44,116.11z" fill="#AFB8B6"/>
          <path d="M68.44,104.2c3.15,0,5.7,2.56,5.7,5.7s-2.56,5.7-5.7,5.7s-5.7-2.56-5.7-5.7S65.3,104.2,68.44,104.2 M68.44,103.2c-3.7,0-6.7,3-6.7,6.7s3,6.7,6.7,6.7s6.7-3,6.7-6.7S72.14,103.2,68.44,103.2L68.44,103.2z" fill="#2F3B4B"/>
        </g>
        <g>
          <path d="M68.44,111.89c-1.09,0-1.99-0.89-1.99-1.98s0.89-1.98,1.99-1.98c1.09,0,1.98,0.89,1.98,1.98 S69.54,111.89,68.44,111.89z" fill="#2F2829"/>
          <path d="M68.44,108.42c0.82,0,1.48,0.67,1.48,1.48s-0.67,1.48-1.48,1.48s-1.48-0.67-1.48-1.48 S67.62,108.42,68.44,108.42 M68.44,107.42c-1.37,0-2.48,1.11-2.48,2.48s1.11,2.48,2.48,2.48c1.37,0,2.48-1.11,2.48-2.48 S69.81,107.42,68.44,107.42L68.44,107.42z" fill="#141111"/>
        </g>
      </g>
      <g>
        <path d="M96.74,116.85c-0.76,0-1.38-0.62-1.38-1.38V99.84h2.75v15.63C98.12,116.23,97.5,116.85,96.74,116.85z" fill="#43535F"/>
        <path d="M97.62,100.34v15.13c0,0.48-0.39,0.88-0.88,0.88s-0.88-0.39-0.88-0.88v-15.13H97.62 M98.62,99.34h-3.75 v16.13c0,1.04,0.84,1.88,1.88,1.88c1.04,0,1.88-0.84,1.88-1.88V99.34L98.62,99.34z" fill="#2F3B4B"/>
      </g>
      <ellipse cx="96.74" cy="99.45" fill="#070606" rx="1.88" ry="0.75"/>
      <path d="M55.78,64.26L54.5,65.6h-6.92 l-6.6-3.42c-0.37-0.19-1.5,0.39-0.53,1.2l7.65,5.43c0.45,0.32,1,0.49,1.55,0.49h2.45c1.54,0,2.35-0.84,3.17-2.16 c0.31-0.51,0.6-1.09,0.6-1.09L55.78,64.26z" stroke="#655C5A" stroke-linecap="round" stroke-linejoin="round" stroke-miterlimit="10"/>
      <g>
        <radialGradient id="SVGID_20_" cx="86.9506" cy="32.1847" gradientTransform="matrix(1.6234 0.3557 -0.214 0.9768 -43.4364 -29.1262)" gradientUnits="userSpaceOnUse" r="4.6889">
          <stop offset="0.0171" style="stop-color:#AFB8B6"/>
          <stop offset="0.1832" style="stop-color:#A4AEAD"/>
          <stop offset="0.4755" style="stop-color:#869295"/>
          <stop offset="0.8571" style="stop-color:#57656F"/>
          <stop offset="1" style="stop-color:#43535F"/>
        </radialGradient>
        <polygon fill="url(#SVGID_20_)" points="88.24,41.57 91.06,28.69 93.56,29.24 90.74,42.12 "/>
        <path d="M91.44,29.29l1.53,0.33l-2.61,11.9l-1.53-0.33L91.44,29.29 M90.68,28.1l-3.04,13.85l3.48,0.76l3.04-13.85 L90.68,28.1L90.68,28.1z" fill="#2F3B4B"/>
      </g>
      <g>
        <linearGradient id="SVGID_21_" gradientTransform="matrix(0.9998 -0.0192 0.0192 0.9998 1.6899 2.644)" gradientUnits="userSpaceOnUse" x1="84.7343" x2="96.0613" y1="24.5796" y2="24.5796">
          <stop offset="0.1505" style="stop-color:#4E4545"/>
          <stop offset="0.2035" style="stop-color:#494141"/>
          <stop offset="0.7261" style="stop-color:#231E1F"/>
          <stop offset="1" style="stop-color:#141111"/>
        </linearGradient>
        <path d="M93.5,34.52c-0.14,0-0.28-0.01-0.42-0.03l-3.79-0.59c-0.72-0.11-1.35-0.5-1.77-1.08 c-0.43-0.59-0.6-1.3-0.49-2.02l1.89-12.05c0.21-1.33,1.33-2.29,2.68-2.29c0.14,0,0.28,0.01,0.42,0.03l3.79,0.59 c1.48,0.23,2.49,1.62,2.26,3.1l-1.89,12.05C95.97,33.54,94.82,34.52,93.5,34.52z" fill="url(#SVGID_21_)"/>
        <path d="M91.59,16.95L91.59,16.95c0.11,0,0.23,0.01,0.35,0.03l3.79,0.59c1.21,0.19,2.03,1.32,1.84,2.53 l-1.89,12.05c-0.17,1.07-1.11,1.87-2.18,1.87c-0.12,0-0.23-0.01-0.35-0.03l-3.79-0.59c-0.58-0.09-1.1-0.41-1.45-0.88 s-0.49-1.06-0.4-1.65l1.89-12.05C89.57,17.75,90.51,16.95,91.59,16.95 M91.59,15.95c-1.56,0-2.92,1.13-3.17,2.72l-1.89,12.05 c-0.27,1.75,0.92,3.4,2.68,3.67l3.79,0.59c0.17,0.03,0.34,0.04,0.5,0.04c1.56,0,2.92-1.13,3.17-2.72l1.89-12.05 c0.27-1.75-0.92-3.4-2.68-3.67l-3.79-0.59C91.92,15.96,91.75,15.95,91.59,15.95L91.59,15.95z" fill="#655C5A"/>
      </g>
      <g>
        <linearGradient id="SVGID_22_" gradientTransform="matrix(0.9966 0.0823 -0.0823 0.9966 4.4045 -6.6469)" gradientUnits="userSpaceOnUse" x1="78.7033" x2="93.0494" y1="60.1167" y2="60.1167">
          <stop offset="0" style="stop-color:#4E4545"/>
          <stop offset="0.5025" style="stop-color:#2F2929"/>
          <stop offset="1" style="stop-color:#141111"/>
        </linearGradient>
        <path d="M86.49,84.38c-0.12,0-0.25-0.01-0.38-0.03c-3.71-0.62-9.85-2.86-9.34-10.85 c0.7-11.05,4.83-24.6,8.16-32.85c0.99-2.46,2.67-3.87,4.6-3.87c1.09,0,2.12,0.47,2.9,1.32c0.97,1.06,1.43,2.58,1.29,4.28 c-0.6,7.3-3.69,30.43-4.99,40.04C88.58,83.53,87.62,84.38,86.49,84.38z" fill="url(#SVGID_22_)"/>
        <path d="M89.53,37.28L89.53,37.28c0.95,0,1.85,0.41,2.54,1.15c0.88,0.95,1.29,2.34,1.16,3.9 c-0.62,7.54-3.97,32.53-4.98,40.01c-0.12,0.88-0.87,1.54-1.75,1.54c-0.1,0-0.2-0.01-0.3-0.02c-8.25-1.38-9.13-7.06-8.93-10.33 c0.7-10.99,4.81-24.48,8.13-32.7C86.31,38.57,87.81,37.28,89.53,37.28 M89.53,36.28c-1.88,0-3.88,1.26-5.06,4.18 c-3.64,9.03-7.53,22.5-8.2,33.01c-0.53,8.41,5.99,10.75,9.76,11.38c0.16,0.03,0.31,0.04,0.46,0.04c1.36,0,2.55-1.01,2.74-2.4 c1.09-8.06,4.37-32.55,4.99-40.06C94.53,38.69,92.14,36.28,89.53,36.28L89.53,36.28z" fill="#655C5A"/>
      </g>
      <g>
        <linearGradient id="SVGID_23_" gradientUnits="userSpaceOnUse" x1="46.3375" x2="86.4792" y1="65.3777" y2="65.3777">
          <stop offset="0" style="stop-color:#4E4545"/>
          <stop offset="0.2112" style="stop-color:#433B3B"/>
          <stop offset="0.4696" style="stop-color:#2F2829"/>
          <stop offset="0.7222" style="stop-color:#241E1F"/>
          <stop offset="0.9769" style="stop-color:#141111"/>
        </linearGradient>
        <path d="M59.67,67.93c-3.23-0.17-3.72-0.7-3.84-2.58c-0.17-2.58,1.39-2.92,3.77-3.15l0.47-0.05 c1.2-0.13,3.13-0.19,5.72-0.19c5.8,0,13.04,0.33,13.12,0.33c1.66,0,2.81,0.36,3.46,1.07c0.54,0.59,0.77,1.48,0.67,2.64 c-0.16,1.86-1.96,2.8-5.35,2.8L59.67,67.93z" fill="url(#SVGID_23_)"/>
        <path d="M65.8,62.46c5.78,0,13.02,0.33,13.14,0.33c1.49,0,2.52,0.3,3.07,0.9c0.45,0.49,0.63,1.23,0.54,2.26 c-0.13,1.55-1.77,2.34-4.81,2.34L59.7,67.43c-3.1-0.16-3.27-0.6-3.37-2.12c-0.13-2.08,0.86-2.38,3.32-2.62l0.47-0.05 C61.31,62.52,63.22,62.46,65.8,62.46 M65.8,61.46c-2.32,0-4.42,0.05-5.78,0.2c-2.08,0.22-4.91,0.22-4.69,3.72 c0.15,2.38,1.14,2.89,4.31,3.05l18.04,0.87c2.25,0,5.61-0.42,5.86-3.26c0.25-2.93-1.39-4.25-4.6-4.25 C78.94,61.79,71.67,61.46,65.8,61.46L65.8,61.46z" fill="#655C5A"/>
      </g>
    </g>
  </g>
</svg>