<svg viewBox="0 0 128 128" xmlns="http://www.w3.org/2000/svg">
  <radialGradient id="b" cx="62.75" cy="4.25" gradientUnits="userSpaceOnUse" r="119.82">
    <stop offset="0" stop-color="#CFD8DC"/>
    <stop offset=".1946" stop-color="#C6D1D6"/>
    <stop offset=".5083" stop-color="#AFBDC4"/>
    <stop offset=".8259" stop-color="#90A4AE"/>
    <stop offset="1" stop-color="#90A4AE"/>
  </radialGradient>
  <path d="m80 124h-32c-4.4 0-8-3.6-8-8v-104c0-4.4 3.6-8 8-8h32c4.4 0 8 3.6 8 8v104c0 4.4-3.6 8-8 8z" fill="url(#b)"/>
  <g opacity=".2">
    <path d="m80 7c2.76 0 5 2.24 5 5v104c0 2.76-2.24 5-5 5h-32c-2.76 0-5-2.24-5-5v-104c0-2.76 2.24-5 5-5h32m0-3h-32c-4.4 0-8 3.6-8 8v104c0 4.4 3.6 8 8 8h32c4.4 0 8-3.6 8-8v-104c0-4.4-3.6-8-8-8z" fill="#BDBDBD"/>
  </g>
  <g opacity=".2">
    <rect fill="#90A4AE" height="1" width="32" x="47.94" y="23"/>
  </g>
  <g opacity=".2">
    <rect fill="#90A4AE" height="1" width="32" x="47.94" y="35"/>
  </g>
  <g opacity=".2">
    <rect fill="#90A4AE" height="1" width="32" x="47.94" y="47"/>
  </g>
  <g opacity=".2">
    <rect fill="#90A4AE" height="1" width="32" x="47.94" y="59"/>
  </g>
  <g opacity=".2">
    <rect fill="#90A4AE" height="1" width="32" x="47.94" y="71"/>
  </g>
  <g opacity=".2">
    <rect fill="#90A4AE" height="1" width="32" x="47.94" y="83"/>
  </g>
  <g opacity=".2">
    <rect fill="#90A4AE" height="1" width="32" x="47.94" y="95"/>
  </g>
  <g opacity=".2">
    <rect fill="#90A4AE" height="1" width="32" x="47.94" y="107"/>
  </g>
  <path d="m64 117.5c-3.03 0-5.5-2.47-5.5-5.5v-96c0-3.03 2.47-5.5 5.5-5.5s5.5 2.47 5.5 5.5v96c0 3.03-2.47 5.5-5.5 5.5z" fill="#607D8B"/>
  <path d="m64 12c2.2 0 4 1.8 4 4v96c0 2.2-1.8 4-4 4s-4-1.8-4-4v-96c0-2.2 1.8-4 4-4m0-3c-3.86 0-7 3.14-7 7v96c0 3.86 3.14 7 7 7s7-3.14 7-7v-96c0-3.86-3.14-7-7-7z" fill="#78909C"/>
  <g opacity=".2">
    <path d="m64 14c1.1 0 2 0.9 2 2v96c0 1.1-0.9 2-2 2s-2-0.9-2-2v-96c0-1.1 0.9-2 2-2m0-2c-2.2 0-4 1.8-4 4v96c0 2.2 1.8 4 4 4s4-1.8 4-4v-96c0-2.2-1.8-4-4-4z" fill="#BDBDBD"/>
  </g>
  <radialGradient id="a" cx="63.833" cy="80.417" gradientUnits="userSpaceOnUse" r="14.305">
    <stop offset="0" stop-color="#40C4FF"/>
    <stop offset=".2777" stop-color="#3DC1FE"/>
    <stop offset=".5131" stop-color="#32B9FA"/>
    <stop offset=".733" stop-color="#21ABF5"/>
    <stop offset=".9423" stop-color="#0898ED"/>
    <stop offset="1" stop-color="#0091EA"/>
  </radialGradient>
  <path d="m73.55 89.75h-19.1c-1.35 0-2.45-1.1-2.45-2.45v-7.1c0-1.35 1.1-2.45 2.45-2.45h19.1c1.35 0 2.45 1.1 2.45 2.45v7.1c0 1.35-1.1 2.45-2.45 2.45z" fill="url(#a)"/>
  <g opacity=".2">
    <path d="m73 80.75v6h-18v-6h18m0.55-3h-19.1c-1.35 0-2.45 1.1-2.45 2.45v7.1c0 1.35 1.1 2.45 2.45 2.45h19.1c1.35 0 2.45-1.1 2.45-2.45v-7.1c0-1.35-1.1-2.45-2.45-2.45z" fill="#424242"/>
  </g>
</svg>