<svg viewBox="0 0 128 128" xmlns="http://www.w3.org/2000/svg">
  <linearGradient id="a" gradientUnits="userSpaceOnUse" x1="64" x2="64" y1="19.717" y2="107.7">
    <stop offset=".4379" stop-color="#F6A323"/>
    <stop offset=".6371" stop-color="#FAC42C"/>
    <stop offset=".8059" stop-color="#FDD931"/>
    <stop offset=".9168" stop-color="#FEE133"/>
  </linearGradient>
  <path d="M64,119.89C36.07,119.89,6,102.4,6,64S36.07,8.11,64,8.11c15.48,0,29.81,5.12,40.36,14.43 C115.9,32.72,122,47.06,122,64c0,16.86-6.1,31.17-17.64,41.39C93.78,114.74,79.45,119.89,64,119.89z" fill="url(#a)"/>
  <path d="m64 10.11c14.99 0 28.86 4.95 39.03 13.93 11.1 9.79 16.97 23.61 16.97 39.96 0 16.27-5.87 30.07-16.97 39.89-10.21 9.03-24.07 14-39.03 14-15.04 0-28.9-4.91-39.04-13.82-11.1-9.75-16.96-23.61-16.96-40.07 0-16.54 5.86-30.42 16.96-40.15 10.11-8.86 23.97-13.74 39.04-13.74m0-4c-31.15 0-60 20-60 57.89 0 37.68 28.85 57.89 60 57.89s60-20.73 60-57.89c0-37.37-28.85-57.89-60-57.89z" fill="#EB8F00"/>
  <path d="m53.81 96.35c-3.04 0-5.85-1.71-7.34-4.47s-1.34-5.97 0.4-8.61c3.84-5.84 9.76-8.92 17.13-8.92 7.36 0 13.29 3.09 17.13 8.92 1.73 2.64 1.88 5.85 0.4 8.61-1.49 2.75-4.3 4.47-7.34 4.47-0.94 0-1.89-0.16-2.82-0.49-2.39-0.83-4.87-1.26-7.37-1.26s-4.98 0.42-7.37 1.26c-0.92 0.33-1.87 0.49-2.82 0.49z" fill="#242424"/>
  <path d="m82.74 43.44c4.19 0 8 3.54 8 9.42s-3.81 9.42-8 9.42-8-3.54-8-9.42 3.81-9.42 8-9.42z" fill="#242424"/>
  <path d="m45.2 43.44c-4.19 0-8 3.54-8 9.42s3.81 9.42 8 9.42 8-3.54 8-9.42-3.81-9.42-8-9.42z" fill="#242424"/>
</svg>