<svg viewBox="0 0 128 128" xmlns="http://www.w3.org/2000/svg" xmlns:xlink="http://www.w3.org/1999/xlink">
  <g id="Layer_2">
    <g>
      <g>
        <linearGradient id="SVGID_2_" gradientUnits="userSpaceOnUse" x1="117.288" x2="33.8331" y1="19.9028" y2="83.2784">
          <stop offset="0" style="stop-color:#5C4037"/>
          <stop offset="0.1584" style="stop-color:#63463D"/>
          <stop offset="0.5335" style="stop-color:#6D5047"/>
          <stop offset="1" style="stop-color:#70534A"/>
        </linearGradient>
        <path d="M20.27,122.41c-1.11,0-2.16-0.34-3.2-1.05c-0.73-0.5-1.16-1.2-1.21-1.98 c-0.08-1.28,0.87-2.19,1.06-2.36c0.08-0.07,0.16-0.13,0.25-0.18c0,0,4.45-2.58,5.6-3.23c0.86-0.49,2.53-1.78,4.47-3.26 c2.47-1.9,5.55-4.26,8.53-6.21c3.5-2.29,4.91-3.98,6.31-7.54c0.88-2.23,0.18-12.29-0.5-22.03c-0.74-10.7-1.58-22.81-0.86-30.16 c-0.16-1.12-0.34-2.16-0.51-3.15c-0.84-4.83-1.5-8.64,1.36-13.44c1.03-1.73,2.54-3.06,4.36-3.84 C61.56,17.27,88.71,7.84,96.13,7.03c2.17-0.24,4.08-0.35,5.82-0.35c6.54,0,15.51,1.45,17.83,14.02c0.52,2.79,1.27,9.91-2.85,15.7 c-2.6,3.66-6.55,5.91-11.74,6.7c-5.36,1.15-15.66,1.65-25.61,2.14c-5.2,0.25-10.15,0.5-13.92,0.82 c6.48,14.6,0.27,26.75-3.9,34.91l-0.48,0.95c-2.21,4.34-4.64,14.03-3.13,21.96c0.07,0.38,0.18,0.82,0.29,1.3 c0.79,3.38,2.27,9.67-3.25,12.08c-1.85,0.8-3.48,1.15-5.46,1.15l0,0c-0.78,0-1.56-0.05-2.39-0.1c-0.54-0.04-1.11-0.07-1.73-0.1 c-0.78-0.03-1.47-0.09-2.11-0.14c-0.73-0.06-1.36-0.11-1.96-0.11c-0.95,0-2.06,0.11-3.77,0.93c-0.56,0.27-1.08,0.53-1.57,0.79 c-1.53,0.79-2.98,1.54-5.01,1.9c-0.3,0.05-0.62,0.08-0.95,0.08c-1.67,0-3.4-0.69-4.54-1.25c-0.52,0.55-1.29,1.11-2.4,1.43 l-0.39,0.11C22.09,122.16,21.23,122.41,20.27,122.41z" fill="url(#SVGID_2_)"/>
        <path d="M101.95,8.18c8.46,0,14.52,2.88,16.35,12.79c1.4,7.59-0.54,18.69-13.34,20.65 c-8.79,1.88-31.57,2.06-41.58,3.16c7.92,15.35,0.94,27.84-3.44,36.46c-2.19,4.3-4.91,14.28-3.26,22.92 c0.57,2.97,2.97,9.52-2.09,11.72c-1.87,0.81-3.34,1.02-4.86,1.02c-1.24,0-2.51-0.14-4.06-0.2c-1.66-0.07-2.91-0.26-4.14-0.26 c-1.33,0-2.64,0.22-4.42,1.07c-2.31,1.1-3.78,2.13-6.19,2.56c-0.22,0.04-0.45,0.06-0.68,0.06c-2.3,0-4.99-1.72-4.99-1.72 s-0.54,1.44-2.35,1.95c-0.93,0.26-1.76,0.55-2.63,0.55c-0.73,0-1.49-0.2-2.35-0.79c-1.26-0.86,0-1.98,0-1.98s4.45-2.57,5.59-3.23 c2.1-1.2,7.73-6.03,13.08-9.52c3.75-2.45,5.37-4.38,6.89-8.24c2.01-5.13-2.7-38.47-1.25-52.77c-0.91-6.48-2.53-10.48,0.62-15.79 c0.85-1.43,2.13-2.57,3.67-3.23C63.06,18.25,89.4,9.28,96.3,8.52C98.28,8.31,100.17,8.18,101.95,8.18 M101.95,5.18 c-1.8,0-3.75,0.12-5.98,0.36C88.23,6.39,61.2,15.78,45.33,22.6c-2.12,0.91-3.86,2.45-5.06,4.45c-3.14,5.28-2.4,9.54-1.55,14.47 c0.16,0.94,0.33,1.91,0.48,2.93c-0.7,7.5,0.14,19.56,0.88,30.23c0.57,8.17,1.34,19.37,0.6,21.38c-1.28,3.25-2.51,4.72-5.73,6.83 c-3.03,1.98-6.13,4.36-8.62,6.27c-1.82,1.4-3.53,2.71-4.3,3.15c-1.15,0.66-5.61,3.24-5.61,3.24c-0.17,0.1-0.34,0.22-0.49,0.35 c-0.4,0.35-1.68,1.66-1.56,3.58c0.08,1.25,0.74,2.36,1.87,3.12c1.3,0.88,2.62,1.31,4.04,1.31c1.17,0,2.18-0.29,3.07-0.55 l0.38-0.11c0.87-0.25,1.62-0.64,2.24-1.1c1.21,0.51,2.75,0.99,4.29,0.99c0.41,0,0.82-0.03,1.21-0.1c2.25-0.4,3.87-1.23,5.43-2.04 c0.48-0.25,0.97-0.5,1.52-0.77c1.36-0.65,2.23-0.78,3.13-0.78c0.54,0,1.14,0.05,1.84,0.11c0.64,0.05,1.35,0.11,2.17,0.15 c0.6,0.02,1.16,0.06,1.69,0.1c0.85,0.06,1.66,0.11,2.49,0.11c2.17,0,4.04-0.39,6.06-1.27c6.68-2.91,4.88-10.54,4.11-13.8 c-0.11-0.46-0.21-0.88-0.28-1.24c-1.44-7.58,0.88-16.84,2.99-20.99l0.48-0.95c4.12-8.06,10.17-19.89,4.73-34.25 c3.41-0.24,7.53-0.45,11.82-0.66c9.96-0.49,20.27-0.99,25.85-2.17c5.56-0.87,9.82-3.33,12.65-7.3c4.45-6.26,3.65-13.86,3.1-16.84 C119.36,10.17,113.05,5.18,101.95,5.18L101.95,5.18z" fill="#4A2F27"/>
      </g>
      <path d="M58.75,47.73c-0.73,2.29-1.39,4.48-1.95,6.67c-0.54,2.19-1.02,4.35-1.25,6.54 c-0.32,2.18-0.46,4.37-0.47,6.59c-0.07,2.25,0.16,4.47,0.18,6.9v0.03c0,0.05-0.04,0.1-0.11,0.1c-0.04,0-0.09-0.03-0.1-0.07 c-0.77-2.23-1.44-4.48-1.67-6.8c-0.33-2.31-0.27-4.65,0-6.97c0.31-2.31,0.92-4.6,1.78-6.79c0.86-2.2,1.97-4.33,3.4-6.3 c0.03-0.05,0.1-0.06,0.14-0.03c0.04,0.02,0.05,0.07,0.04,0.11L58.75,47.73z" fill="#4A2F27"/>
      <path d="M52.65,102.09c0.41,0.93,0.88,2.69-0.01,4.44c-1.43,2.11-3.23,2.4-4.16,2.37 c-0.28-0.01-0.43-0.3-0.26-0.51c0.51-0.61,1.46-1.83,2.26-3.21c0.72-1.24,1.24-2.4,1.52-3.1 C52.13,101.81,52.54,101.82,52.65,102.09z" fill="#4A2F27"/>
      <path d="M48.99,40.03c1.5-1.37,2.79-4.11,3.07-4.95c0.27-0.84,1.02-4.1,0.84-5.86l-0.02-0.09 c-0.01-0.06,0.03-0.12,0.1-0.12c0.03-0.01,0.06,0,0.08,0.02c1.1,0.75,1.67,1.97,1.85,3.15c0.2,1.2,0.08,2.43-0.27,3.59 c-0.38,1.15-1.04,2.26-2.01,3.12c-0.95,0.87-2.29,1.39-3.63,1.4c-0.06,0-0.12-0.05-0.12-0.11c0-0.03,0.02-0.07,0.04-0.09 L48.99,40.03z" fill="#4A2F27"/>
    </g>
  </g>
</svg>