<svg viewBox="0 0 128 128" xmlns="http://www.w3.org/2000/svg" xmlns:xlink="http://www.w3.org/1999/xlink">
  <g id="Layer_1">
    <g>
      <defs>
        <rect id="SVGID_1_" height="120" width="120" x="4" y="4"/>
      </defs>
      <clipPath id="SVGID_2_">
        <use overflow="visible" xlink:href="#SVGID_1_"/>
      </clipPath>
      <g clip-path="url(#SVGID_2_)">
        <linearGradient id="SVGID_3_" gradientUnits="userSpaceOnUse" x1="4" x2="124" y1="93.0715" y2="93.0715">
          <stop offset="3.247793e-03" style="stop-color:#4D4D4D"/>
          <stop offset="0.2391" style="stop-color:#404040"/>
          <stop offset="0.6744" style="stop-color:#1E1E1E"/>
          <stop offset="1" style="stop-color:#000000"/>
        </linearGradient>
        <path d="M4,74.82c0,0,23.95-9.01,60-8.84c17.58,0.08,37.33,3.02,60,8.84c0,0-23.39,45.35-60,45.35 S7.92,83.79,4,74.82z" fill="url(#SVGID_3_)"/>
      </g>
      <g clip-path="url(#SVGID_2_)">
        <linearGradient id="SVGID_4_" gradientUnits="userSpaceOnUse" x1="63.8638" x2="63.8638" y1="67.4785" y2="109.9601">
          <stop offset="3.211456e-03" style="stop-color:#E80800"/>
          <stop offset="0.2658" style="stop-color:#E40800"/>
          <stop offset="0.5018" style="stop-color:#DA0700"/>
          <stop offset="0.7275" style="stop-color:#C70600"/>
          <stop offset="0.9457" style="stop-color:#AE0400"/>
          <stop offset="1" style="stop-color:#A60400"/>
        </linearGradient>
        <path d="M63.83,110.33c-30.67,0-50.61-21.85-57.69-34.67c5.85-1.92,27.19-8.19,56.82-8.19 c19.81,0,39.52,2.76,58.62,8.2C116.48,82.81,94.75,110.33,63.83,110.33z" fill="url(#SVGID_4_)"/>
        <path d="M62.97,69c18.95,0,37.81,2.53,56.13,7.55c-6.7,8.86-27.09,32.29-55.26,32.29 c-14.91,0-28.45-5.01-40.25-14.88c-7.85-6.57-12.77-13.53-15.17-17.44c2.7-0.83,6.97-2.02,12.52-3.21 C30.15,71.34,44.93,69,62.97,69H63 M62.96,65.98C27.41,65.98,4,74.82,4,74.82c3.92,7.81,23.23,37.01,59.83,37.01 c36.61,0,60.17-37.01,60.17-37.01C101.55,68.19,80.74,65.98,62.96,65.98L62.96,65.98z" fill="#BD1D1D"/>
      </g>
      <g clip-path="url(#SVGID_2_)">
        <radialGradient id="SVGID_5_" cx="189.3951" cy="-33.3912" gradientTransform="matrix(0.826 0 0 0.826 -92.1879 19.8503)" gradientUnits="userSpaceOnUse" r="57.9034">
          <stop offset="0" style="stop-color:#6D4C41"/>
          <stop offset="1" style="stop-color:#523329"/>
        </radialGradient>
        <path d="M47.02,119.76c0,0-6.8-0.35-10.21-5.09c-7.37-10.23-11.42-35.81-11.42-72.02 c0-1.66,0.26-16.41,10.66-26.83C42.8,9.05,52.4,5.62,64.57,5.62c12.08,0,21.52,3.38,28.05,10.04 c9.82,10.02,10.04,24.16,9.99,26.89c0,36.31-4.06,61.89-11.42,72.12c-3.3,4.59-9.79,5.06-10.25,5.09L64,119.73L47.02,119.76z" fill="url(#SVGID_5_)"/>
        <path d="M64.57,7.12c11.66,0,20.74,3.23,26.98,9.59c9.6,9.8,9.59,24.2,9.56,25.81l0,0.12 c0,35.9-3.96,61.17-11.14,71.15c-2.84,3.94-8.55,4.43-9.08,4.46l-16.9-0.03l-16.88,0.03c-0.58-0.04-6.25-0.54-9.08-4.46 c-7.18-9.98-11.14-35.24-11.14-71.17c0-0.63,0.08-15.58,10.22-25.75C43.57,10.41,52.81,7.12,64.57,7.12 M64.57,4.12 c-41.01,0-40.68,37.92-40.68,38.52c0,24.56,1.88,59.25,11.71,72.9c3.9,5.41,11.43,5.71,11.43,5.71L64,121.23l16.97,0.03 c0,0,7.53-0.3,11.43-5.71c9.83-13.65,11.71-48.34,11.71-72.9C104.1,42.04,105.58,4.12,64.57,4.12L64.57,4.12z" fill="#402821"/>
      </g>
      <g id="XMLID_12_" clip-path="url(#SVGID_2_)">
        <linearGradient id="SVGID_6_" gradientUnits="userSpaceOnUse" x1="64" x2="64" y1="97.5" y2="130.5">
          <stop offset="3.247793e-03" style="stop-color:#4D4D4D"/>
          <stop offset="0.2391" style="stop-color:#404040"/>
          <stop offset="0.6744" style="stop-color:#1E1E1E"/>
          <stop offset="1" style="stop-color:#000000"/>
        </linearGradient>
        <path d="M13.5,130.5v-9.51c0-17.29,27.21-23.46,50.5-23.49h0.14c13.39,0,25.82,2.15,35.01,6.05 c7,2.98,15.35,8.42,15.35,17.44v9.51H13.5z" fill="url(#SVGID_6_)"/>
        <path d="M64.14,99c24.28,0,48.86,7.55,48.86,21.99V129H15v-8.01c0-6.95,4.88-12.47,14.52-16.42 C38.26,100.99,50.51,99.02,64,99L64.14,99 M64.14,96c-0.05,0-0.09,0-0.14,0c-25.65,0.03-52,7.1-52,24.99V132h104v-11.01 C116,104.13,89.9,96,64.14,96L64.14,96z" fill="#404042"/>
      </g>
      <path id="XMLID_13_" clip-path="url(#SVGID_2_)" d="M12,120.99V132h104v-11.01c0-16.89-26.19-25.02-52-24.99 C38.35,96.03,12,103.1,12,120.99z" fill="none"/>
      <g clip-path="url(#SVGID_2_)">
        <path d="M64,118.11c-14.7,0-26.67-7.51-26.67-16.74c0-0.49,0.04-1,0.12-1.52c5.23-1.39,11.17-2.33,17.58-2.81 c0.52-0.04,0.97-0.47,0.97-1V91h16v5.06c0,0.52,0.44,0.96,0.96,1c6.36,0.51,12.29,1.52,17.6,3.01c0.06,0.44,0.1,0.88,0.1,1.3 C90.66,110.6,78.7,118.11,64,118.11z" fill="#99674F"/>
        <path d="M71,92v4.06c0,1.04,0.84,1.91,1.88,1.99c6.03,0.48,11.67,1.42,16.75,2.79 c0.01,0.18,0.03,0.35,0.03,0.52c0,8.68-11.51,15.74-25.66,15.74s-25.66-7.06-25.66-15.74c0-0.24,0.01-0.48,0.03-0.73 c5.01-1.28,10.66-2.16,16.74-2.61c1.04-0.08,1.89-0.95,1.89-1.99V92h7H71 M73,90h-9h-9v6.05c-7,0.48-12.74,1.46-18.38,3.01 c-0.16,0.76-0.26,1.54-0.26,2.32c0,9.8,12.38,17.74,27.66,17.74s27.66-7.94,27.66-17.74c0-0.71-0.12-1.4-0.24-2.09 C85.79,97.65,80,96.58,73,96.06V90L73,90z" fill="#875740"/>
      </g>
      <path id="XMLID_6_" clip-path="url(#SVGID_2_)" d="M12,120.99V132h104v-11.01c0-16.89-26.19-25.02-52-24.99 C38.35,96.03,12,103.1,12,120.99z" fill="none"/>
      <g clip-path="url(#SVGID_2_)">
        <linearGradient id="SVGID_7_" gradientUnits="userSpaceOnUse" x1="64" x2="64" y1="94.7081" y2="17.8854">
          <stop offset="0" style="stop-color:#A47B62"/>
          <stop offset="0.1914" style="stop-color:#AD8264"/>
          <stop offset="0.5512" style="stop-color:#B78A67"/>
          <stop offset="1" style="stop-color:#BA8D68"/>
        </linearGradient>
        <path d="M64,95.27c-2.3,0-4.91-0.5-7.56-1.43C45.1,89.83,31.87,77.5,31.87,55.95 c0-28.72,17.31-38.91,32.13-38.91s32.13,10.19,32.13,38.91c0,21.58-13.26,33.9-24.61,37.9C68.89,94.78,66.29,95.27,64,95.27z" fill="url(#SVGID_7_)"/>
        <path d="M64,18.04L64,18.04c8.41,0,16.06,3.25,21.55,9.15c6.27,6.73,9.58,16.68,9.58,28.77 c0,21.06-12.9,33.07-23.94,36.96c-2.53,0.89-5.01,1.36-7.19,1.36c-2.19,0-4.69-0.48-7.23-1.38 c-11.03-3.9-23.9-15.92-23.9-36.94c0-12.09,3.31-22.03,9.58-28.77C47.94,21.29,55.59,18.04,64,18.04 M64,16.04L64,16.04 L64,16.04c-17.2,0-33.13,12.79-33.13,39.91c0,21.79,13.49,34.67,25.23,38.83c2.8,0.99,5.5,1.49,7.9,1.49 c2.38,0,5.07-0.49,7.85-1.47c11.76-4.14,25.28-17.03,25.28-38.84C97.13,28.83,81.2,16.04,64,16.04L64,16.04z" fill="#91674D"/>
      </g>
      <g clip-path="url(#SVGID_2_)">
        <defs>
          <path id="SVGID_8_" d="M30.41,88.85l-1.5-51.44c0-16.95,15.78-29.85,32.73-29.85h4.93c16.95,0,32.54,12.9,32.54,29.85 l-1.5,51.18L30.41,88.85z"/>
        </defs>
        <clipPath id="SVGID_9_">
          <use overflow="visible" xlink:href="#SVGID_8_"/>
        </clipPath>
        <g clip-path="url(#SVGID_9_)">
          <radialGradient id="SVGID_10_" cx="64.4329" cy="-0.1231" gradientTransform="matrix(1 0 0 0.9637 0 -4.464072e-03)" gradientUnits="userSpaceOnUse" r="38.0784">
            <stop offset="0" style="stop-color:#6D4C41"/>
            <stop offset="1" style="stop-color:#523329"/>
          </radialGradient>
          <path d="M64.08,7.07c-0.03,0-0.05,0-0.08,0c-0.03,0-0.05,0-0.08,0C25.09,7.07,28,43,28,43 s-0.96,39.98,2,46c2.96,6.02,5,6,5,6s-1.27-20.5-1.23-34.38C33.83,35.83,51,22.17,64,36l0,0v0c13-13.83,30.17-0.17,30.23,24.62 C94.27,74.5,90,96,90,96s4.04,1.02,7-5c2.96-6.02,4-48,4-48S102.91,7.07,64.08,7.07z" fill="url(#SVGID_10_)"/>
        </g>
      </g>
      <g clip-path="url(#SVGID_2_)">
        <path d="M67.81,68.05c-0.1-0.04-0.21-0.07-0.32-0.08h-6.99c-0.11,0.01-0.21,0.04-0.32,0.08 c-0.63,0.26-0.98,0.91-0.68,1.61c0.3,0.7,1.69,2.66,4.49,2.66c2.8,0,4.19-1.96,4.49-2.66C68.79,68.97,68.45,68.31,67.81,68.05z" fill="#99674F"/>
        <g>
          <ellipse cx="47.75" cy="58.87" fill="#49362E" rx="4.87" ry="5.04"/>
          <ellipse cx="80.25" cy="58.87" fill="#49362E" rx="4.87" ry="5.04"/>
          <path d="M54.98,49.82c-0.93-1.23-3.07-3.01-7.23-3.01s-6.31,1.79-7.23,3.01c-0.41,0.54-0.31,1.17-0.02,1.55 c0.26,0.35,1.04,0.68,1.9,0.39c0.86-0.29,2.54-1.16,5.35-1.18c2.81,0.02,4.49,0.89,5.35,1.18c0.86,0.29,1.64-0.03,1.9-0.39 C55.29,50.99,55.39,50.36,54.98,49.82z" fill="#613E31"/>
          <path d="M87.48,49.82c-0.93-1.23-3.07-3.01-7.23-3.01c-4.16,0-6.31,1.79-7.23,3.01 c-0.41,0.54-0.31,1.17-0.02,1.55c0.26,0.35,1.04,0.68,1.9,0.39c0.86-0.29,2.54-1.16,5.35-1.18c2.81,0.02,4.49,0.89,5.35,1.18 c0.86,0.29,1.64-0.03,1.9-0.39C87.79,50.99,87.89,50.36,87.48,49.82z" fill="#613E31"/>
        </g>
        <path d="M72.32,76.14c-3.15,1.87-13.46,1.87-16.61,0c-1.81-1.07-3.65,0.57-2.9,2.21 c0.74,1.61,6.37,5.36,11.23,5.36s10.42-3.75,11.16-5.36C75.95,76.71,74.12,75.06,72.32,76.14z" fill="#5D4037"/>
      </g>
      <g clip-path="url(#SVGID_2_)">
        <defs>
          <path id="SVGID_11_" d="M72.42,76.14c-3.19,1.89-13.63,1.89-16.81,0c-1.83-1.09-3.7,0.58-2.94,2.24 c0.75,1.63,6.45,5.42,11.37,5.42s10.55-3.79,11.3-5.42C76.09,76.72,74.25,75.05,72.42,76.14z"/>
        </defs>
        <clipPath id="SVGID_12_">
          <use overflow="visible" xlink:href="#SVGID_11_"/>
        </clipPath>
        <g clip-path="url(#SVGID_12_)">
          <polygon fill="#FFFFFF" points="55.33,75.66 56.33,80.65 58.67,76.71 "/>
          <polygon fill="#FFFFFF" points="72.67,75.66 71.67,80.65 69.33,76.71 "/>
        </g>
      </g>
      <linearGradient id="SVGID_13_" gradientUnits="userSpaceOnUse" x1="63.8333" x2="63.8333" y1="95.2443" y2="106.7738">
        <stop offset="3.247793e-03" style="stop-color:#4D4D4D"/>
        <stop offset="0.2391" style="stop-color:#404040"/>
        <stop offset="0.6744" style="stop-color:#1E1E1E"/>
        <stop offset="1" style="stop-color:#000000"/>
      </linearGradient>
      <path clip-path="url(#SVGID_2_)" d="M76.7,95.1c-1.15-0.38-2.36,0.08-3.38,0.74 c-1.45,0.93-2.81,1.55-4.11,1.99c-1.3,0.44-2.53,0.7-3.74,0.82c-0.55,0.06-1.09,0.08-1.63,0.09c-0.54-0.01-1.09-0.03-1.63-0.09 c-1.21-0.13-2.44-0.38-3.74-0.82c-1.3-0.44-2.67-1.06-4.11-1.99c-1.02-0.66-2.23-1.12-3.38-0.74c-2.7,0.89-0.11,11.3,12.87,11.39 C76.82,106.41,79.4,96,76.7,95.1z" fill="url(#SVGID_13_)"/>
      <linearGradient id="SVGID_14_" gradientUnits="userSpaceOnUse" x1="28.6861" x2="52.3856" y1="49.0321" y2="21.6419">
        <stop offset="0" style="stop-color:#E0E0E0;stop-opacity:0.2"/>
        <stop offset="0.7447" style="stop-color:#E0E0E0"/>
      </linearGradient>
      <path clip-path="url(#SVGID_2_)" d="M64,25.13c0,0-11.63-16.85-26.75-3.88 C24,32.62,28.53,67.38,28.53,67.38S28.97,31.66,44,23.48C54.8,17.6,64,25.13,64,25.13z" fill="url(#SVGID_14_)"/>
    </g>
  </g>
</svg>