<svg viewBox="0 0 128 128" xmlns="http://www.w3.org/2000/svg" xmlns:xlink="http://www.w3.org/1999/xlink">
  <g id="图层_1">
    <g>
      <defs>
        <rect id="SVGID_1_" height="120" width="120" x="4" y="4"/>
      </defs>
      <clipPath id="SVGID_2_">
        <use overflow="visible" xlink:href="#SVGID_1_"/>
      </clipPath>
      <radialGradient id="SVGID_3_" cx="25.7188" cy="78.5338" gradientTransform="matrix(0.9091 -0.4166 0.0629 0.1373 -2.6041 78.464)" gradientUnits="userSpaceOnUse" r="122.645">
        <stop offset="0.3342" style="stop-color:#E1F5FE"/>
        <stop offset="1" style="stop-color:#B3E5FC"/>
      </radialGradient>
      <path clip-path="url(#SVGID_2_)" d=" M102.12,51.29c-13.53,14.13-18.9,17.56-54.7,34.87C29.58,94.78,11.15,95.38,5.2,99.24c-23.23,15.1-0.89,18.65-0.89,18.65h46.38 l87.11-34.41l-5.35-69.87C132.45,13.62,120.56,32.05,102.12,51.29z" fill="url(#SVGID_3_)" stroke="#B3E5FC" stroke-linecap="round" stroke-linejoin="round" stroke-miterlimit="10"/>
      <g clip-path="url(#SVGID_2_)">
        <radialGradient id="SVGID_4_" cx="52.7323" cy="91.1083" gradientTransform="matrix(0.8866 -0.4625 0.2243 0.4299 -14.4532 76.3297)" gradientUnits="userSpaceOnUse" r="157.9058">
          <stop offset="0.2141" style="stop-color:#FFFFFF"/>
          <stop offset="1" style="stop-color:#B3E5FC"/>
        </radialGradient>
        <path d="M128,128H0v-12.32c0,0,13.72-8.48,29.28-17.63c18.73-11,46.38-12.78,77-42.81 c12.05-11.81,32.41-19.03,32.41-19.03L128,128z" fill="url(#SVGID_4_)"/>
      </g>
      <polyline clip-path="url(#SVGID_2_)" fill="none" points=" 128,46.43 128,128 0,128 0,115.68 " stroke="#94CDE8" stroke-linecap="round" stroke-linejoin="round" stroke-miterlimit="10" stroke-width="3"/>
      <g clip-path="url(#SVGID_2_)">
        <path d="M110.16,85.16c-1.82-3.35-6.68-4.22-10.58-2.84c-5.39,1.91-10.17,6.17-12.4,7.11L55.4,102.72 c-4.39,1.28-10.24,1.28-14.9,2.62c-5.65,1.61-7.26,4.69-7.33,9.36c-0.07,5.03,3.98,9.14,9,9.14c3.39,0,6.14-1.38,7.83-2.83 c0,0,4.72-3.79,8.39-5.45l34.74-14.53c2.18-0.91,5.88-1.49,9.32-2.24C115.67,95.89,112.01,87.86,110.16,85.16z" fill="#B3E5FC"/>
        <linearGradient id="SVGID_5_" gradientUnits="userSpaceOnUse" x1="34.326" x2="111.5352" y1="102.0896" y2="96.8653">
          <stop offset="0.1705" style="stop-color:#EF5350"/>
          <stop offset="0.6201" style="stop-color:#EA4643"/>
          <stop offset="0.9845" style="stop-color:#E53935"/>
        </linearGradient>
        <path d=" M106.16,82.16c-1.82-3.35-6.68-4.22-10.58-2.84c-5.39,1.91-10.17,6.17-12.4,7.11L51.4,99.72c-4.39,1.28-10.24,1.28-14.9,2.62 c-5.65,1.61-7.26,4.69-7.33,9.36c-0.07,5.03,3.98,9.14,9,9.14c3.39,0,6.14-1.38,7.83-2.83c0,0,4.72-3.79,8.39-5.45l34.74-14.53 c2.18-0.91,5.88-1.49,9.32-2.24C111.67,92.89,108.01,84.86,106.16,82.16z" fill="url(#SVGID_5_)" stroke="#B71C1C" stroke-linecap="round" stroke-linejoin="round" stroke-miterlimit="10"/>
        <circle cx="56.29" cy="57.81" fill="#616161" r="6.85"/>
        <path d="M31.92,71.03" fill="none"/>
        <g>
          <g>
            <rect fill="#616161" height="13.49" transform="matrix(0.9131 0.4076 -0.4076 0.9131 32.0716 -23.5689)" width="19.27" x="61.71" y="56.73"/>
            <rect fill="#616161" height="13.49" transform="matrix(0.2272 0.9738 -0.9738 0.2272 139.2383 -20.2971)" width="20.4" x="72.21" y="70.84"/>
            <circle cx="80.08" cy="67.33" fill="#616161" r="6.69"/>
            <circle cx="62.43" cy="59.55" fill="#616161" r="6.69"/>
          </g>
          <g>
            <rect fill="#616161" height="15.03" transform="matrix(0.4851 0.8744 -0.8744 0.4851 90.7031 -11.9873)" width="16.1" x="47.48" y="63.52"/>
            <polygon fill="#616161" points="47.17,99.2 54.51,76.46 67.38,80.45 60.84,101.57 "/>
            <circle cx="59.94" cy="78.93" fill="#616161" r="7.59"/>
            <path d="M55.13,70.43c-3.6,2-8.13,0.7-10.13-2.9s-3.06-10.37,0.54-12.36s10.5,1.54,12.49,5.13 C60.03,63.9,58.73,68.44,55.13,70.43z" fill="#616161"/>
          </g>
          <g>
            <g>
              <linearGradient id="SVGID_6_" gradientTransform="matrix(0.8229 0.5683 -0.5683 0.8229 3.3294 98.6903)" gradientUnits="userSpaceOnUse" x1="40.2911" x2="51.8957" y1="-98.5367" y2="-98.5367">
                <stop offset="0" style="stop-color:#A47B62"/>
                <stop offset="0.1914" style="stop-color:#AD8264"/>
                <stop offset="0.5512" style="stop-color:#B78A67"/>
                <stop offset="1" style="stop-color:#BA8D68"/>
              </linearGradient>
              <path d="M100.75,47.7c-0.56,0-1.24-0.19-2.01-0.41c-0.43-0.12-0.89-0.25-1.37-0.36 c-0.04-0.01-0.07-0.01-0.11-0.01c-0.01,0-0.02,0-0.03,0c-0.01,0-0.46,0.02-1.09,0.02c-1.47,0-2.58-0.13-3.04-0.35 c-0.25-0.12-2.42-1.26-1.78-4.11l0.04-0.18c0.94-2.04,2.69-3.08,5.2-3.08c1.43,0,2.57,0.36,2.59,0.36 c2.89,1.14,3.87,4.19,3.33,6.6l-0.05,0.23C101.93,47.53,101.32,47.7,100.75,47.7L100.75,47.7z" fill="url(#SVGID_6_)"/>
              <path d="M96.56,39.72c1.23,0,2.23,0.28,2.41,0.33c2.63,1.06,3.51,3.83,3.02,6.02l-0.03,0.14 c-0.41,0.91-0.81,0.99-1.2,0.99c-0.5,0-1.14-0.18-1.88-0.39c-0.44-0.13-0.9-0.25-1.4-0.37c-0.07-0.02-0.15-0.02-0.22-0.02 c-0.02,0-0.03,0-0.05,0c-0.01,0-0.46,0.02-1.07,0.02c-1.62,0-2.52-0.16-2.82-0.3c-0.21-0.1-2.07-1.07-1.51-3.55l0.03-0.13 C92.68,40.64,94.27,39.72,96.56,39.72 M96.56,38.72c-1.94,0-4.42,0.62-5.68,3.42l-0.05,0.23c-0.58,2.59,0.93,4.13,2.05,4.67 c0.7,0.34,2.21,0.4,3.26,0.4c0.65,0,1.12-0.02,1.12-0.02c1.35,0.3,2.52,0.78,3.5,0.78c0.89,0,1.61-0.39,2.16-1.67l0.05-0.23 c0.58-2.59-0.46-5.92-3.67-7.19C99.29,39.11,98.09,38.72,96.56,38.72L96.56,38.72z" fill="#91674D"/>
            </g>
            <radialGradient id="SVGID_7_" cx="-9.0415" cy="211.9647" gradientTransform="matrix(0.7711 -0.6367 0.6367 0.7711 -66.6456 -126.0899)" gradientUnits="userSpaceOnUse" r="6.2386">
              <stop offset="0" style="stop-color:#00AB94"/>
              <stop offset="0.1879" style="stop-color:#00B29A"/>
              <stop offset="0.6363" style="stop-color:#00BFA5"/>
            </radialGradient>
            <circle cx="61.34" cy="43.12" fill="url(#SVGID_7_)" r="6.24"/>
          </g>
          <g>
            <path d="M47.7,99.18l4.97-15.53c0.43-1.34,0.28-2.82-0.4-4.05l-6.72-12.12c-0.01-0.04-0.02-0.07-0.04-0.1 c0,0-0.06-0.09-0.06-0.09c-1.99-3.59-2.84-9.92,0.34-11.69c0.62-0.34,1.37-0.51,2.25-0.51c2.33,0,5.38,1.28,7.6,3.18 c0.09,0.08,0.21,0.12,0.33,0.12c0.05,0,0.1-0.01,0.15-0.02c0.17-0.05,0.29-0.18,0.33-0.35c0.1-0.37,0.21-0.69,0.34-0.99 c0.99-2.23,3.21-3.67,5.65-3.67c0.87,0,1.72,0.18,2.52,0.54c0.08,0.03,0.18,0.06,0.28,0.06c0.04,0,0.07,0,0.11-0.01 l17.22,7.69c0.04,0.03,0.08,0.06,0.12,0.08c1.75,0.81,3,2.34,3.43,4.2c0.01,0.05,0.02,0.11,0.03,0.16l0.02,0.13 c0.01,0.05,0.02,0.09,0.04,0.13l4.49,19.26l-12.16,2.84l-3.42-14.67c-0.29-1.24-1.16-2.3-2.33-2.82l-10.95-4.89 c-0.07-0.03-0.13-0.04-0.2-0.04c-0.14,0-0.27,0.06-0.37,0.16c-0.15,0.16-0.17,0.39-0.07,0.58l4.3,7.74 c1.14,2.05,1.82,3.82,1.4,5.84c0,0.01-0.01,0.05-0.01,0.05c-0.05,0.24-0.1,0.43-0.16,0.63c-0.06,0.19-0.13,0.38-0.21,0.57 l-6.03,19.47l-12,0.09L47.7,99.18z" fill="#7C7C7C"/>
            <path d="M62.43,53.87L62.43,53.87c0.8,0,1.58,0.17,2.3,0.49c0.02,0.01,0.08,0.04,0.1,0.05 c0.13,0.06,0.28,0.09,0.42,0.09c0.02,0,0.05,0,0.07,0l16.95,7.57c0.06,0.04,0.12,0.08,0.19,0.11 c1.61,0.74,2.76,2.15,3.16,3.86c0.01,0.04,0.02,0.09,0.02,0.13l0.02,0.13c0.01,0.07,0.03,0.14,0.06,0.2l4.37,18.73 L78.9,87.85l-3.31-14.19c-0.33-1.39-1.3-2.58-2.61-3.16l-10.95-4.89c-0.13-0.06-0.27-0.09-0.41-0.09 c-0.27,0-0.54,0.11-0.74,0.32c-0.29,0.32-0.35,0.78-0.14,1.16l4.3,7.74c1.09,1.95,1.73,3.63,1.35,5.49c0,0,0,0,0,0l0,0 c-0.01,0.03-0.02,0.05-0.02,0.08c-0.04,0.18-0.08,0.36-0.14,0.55c-0.06,0.18-0.12,0.36-0.19,0.53 c-0.01,0.03-0.02,0.05-0.03,0.08l-5.91,19.08l-11.29,0.09l-0.59-1.5l4.91-15.36c0.47-1.47,0.31-3.09-0.44-4.44L46,67.29 c-0.02-0.05-0.04-0.11-0.07-0.16c-0.02-0.03-0.04-0.06-0.05-0.09c-1.84-3.32-2.73-9.41,0.15-11c0.54-0.3,1.22-0.45,2.01-0.45 c2.22,0,5.14,1.23,7.28,3.06c0.18,0.16,0.42,0.24,0.65,0.24c0.1,0,0.2-0.02,0.3-0.05c0.33-0.1,0.58-0.37,0.67-0.7 c0.09-0.34,0.19-0.64,0.31-0.91C58.15,55.19,60.19,53.87,62.43,53.87 M62.43,52.87c-2.56,0-5,1.48-6.11,3.96 c-0.16,0.35-0.27,0.71-0.36,1.06c-2.17-1.86-5.32-3.3-7.93-3.3c-0.92,0-1.77,0.18-2.49,0.58c-3.6,2-2.53,8.77-0.54,12.36 c0.02,0.03,0.04,0.07,0.06,0.1l-0.01,0.01l6.77,12.21c0.62,1.12,0.75,2.44,0.36,3.65l-5.02,15.7l0.97,2.47l12.7-0.1 l6.13-19.78c0.08-0.2,0.16-0.4,0.22-0.61c0.06-0.21,0.11-0.42,0.16-0.63l0.03-0.1l0,0c0.46-2.23-0.32-4.15-1.46-6.18 l-4.3-7.74l10.95,4.89c1.03,0.46,1.79,1.37,2.04,2.47l3.54,15.16l13.14-3.07l-4.63-19.86l-0.01,0 c-0.02-0.1-0.03-0.21-0.06-0.31c-0.49-2.09-1.91-3.71-3.71-4.55l0.01-0.02l-17.6-7.86l-0.05,0.11 c-0.03-0.01-0.06-0.03-0.09-0.05C64.27,53.05,63.34,52.87,62.43,52.87L62.43,52.87z" fill="#5B5B5B"/>
          </g>
          <linearGradient id="SVGID_8_" gradientUnits="userSpaceOnUse" x1="66.4346" x2="99.3323" y1="39.923" y2="47.5558">
            <stop offset="0.1891" style="stop-color:#ED6D23"/>
            <stop offset="0.326" style="stop-color:#F37F21"/>
            <stop offset="0.46" style="stop-color:#F78C1F"/>
          </linearGradient>
          <path d=" M93.49,38.75l-12.72-0.62c0,0-14.5-5.7-16.93-5.78l-3.05,11.13c0,0,12.32,5.5,16.44,6.4c4.25,0.93,15.56-2.13,15.56-2.13 C96.58,43.67,93.49,38.75,93.49,38.75z" fill="url(#SVGID_8_)" stroke="#DA6727" stroke-linecap="round" stroke-linejoin="round" stroke-miterlimit="10"/>
          <linearGradient id="SVGID_9_" gradientUnits="userSpaceOnUse" x1="56.29" x2="56.9164" y1="39.0727" y2="67.6752">
            <stop offset="0.1891" style="stop-color:#ED6D23"/>
            <stop offset="0.326" style="stop-color:#F37F21"/>
            <stop offset="0.46" style="stop-color:#F78C1F"/>
          </linearGradient>
          <path d=" M59.9,29.98l-8.89,0.33c-4.38,0.16-7.8,3.67-7.65,7.83l0.11,18.73c0.17,4.54,1.94,10.07,10.11,8.21 c10.44-2.38,16.15-5.58,16.24-8.85c0.18-6.95-1.69-13.55-2.44-20.31C67.23,31.76,64.28,29.82,59.9,29.98z" fill="url(#SVGID_9_)" stroke="#DA6727" stroke-linecap="round" stroke-linejoin="round" stroke-miterlimit="10"/>
          <g>
            <g>
              <linearGradient id="SVGID_13_" gradientTransform="matrix(0.9756 -0.2194 0.2194 0.9756 -26.3315 -53.4489)" gradientUnits="userSpaceOnUse" x1="26.4587" x2="26.4587" y1="124.8312" y2="133.5006">
                <stop offset="0" style="stop-color:#A47B62"/>
                <stop offset="0.1914" style="stop-color:#AD8264"/>
                <stop offset="0.5512" style="stop-color:#B78A67"/>
                <stop offset="1" style="stop-color:#BA8D68"/>
              </linearGradient>
              <path d="M27.28,71.13c-1.96,0-3.67-0.68-4.57-1.82c-0.73-0.92-0.93-2.09-0.59-3.5 c0.47-1.99,2.49-2.14,3.09-2.14c0,0,0.16,0,0.17,0c0.09,0,0.18-0.02,0.26-0.07c0.03-0.02,3.12-1.85,5.27-1.85 c0.6,0,1.06,0.15,1.35,0.44l0.72,0.71c0.39,3.92,0.05,7.59-4.73,8.17C27.93,71.11,27.6,71.13,27.28,71.13L27.28,71.13z" fill="url(#SVGID_13_)"/>
              <path d="M30.9,62.25c0.47,0,0.8,0.1,1.01,0.3l0.59,0.57c0.39,4.12-0.25,6.95-4.31,7.44 c-0.3,0.04-0.61,0.06-0.92,0.06c-1.81,0-3.37-0.61-4.18-1.63c-0.63-0.79-0.79-1.83-0.5-3.07c0.37-1.58,1.95-1.76,2.61-1.76 c0.05,0,0.09,0,0.1,0c0.02,0,0.05,0,0.07,0c0.18,0,0.36-0.05,0.51-0.14C26.71,63.53,29.23,62.25,30.9,62.25 M30.9,61.25 c-2.32,0-5.53,1.92-5.53,1.92s-0.06,0-0.17,0c-0.65,0-3.03,0.17-3.58,2.53c-0.96,4.07,2.37,5.94,5.65,5.94 c0.35,0,0.7-0.02,1.04-0.06c5.4-0.66,5.56-5,5.14-8.9l-0.85-0.83C32.19,61.41,31.58,61.25,30.9,61.25L30.9,61.25z" fill="#91674D"/>
            </g>
            <radialGradient id="XMLID_2_" cx="9.9653" cy="-74.4473" gradientTransform="matrix(0.908 0.419 -0.419 0.908 -2.3011 97.527)" gradientUnits="userSpaceOnUse" r="27.4355">
              <stop offset="0.3637" style="stop-color:#F78C1F"/>
              <stop offset="0.6784" style="stop-color:#F37F21"/>
              <stop offset="1" style="stop-color:#ED6D23"/>
            </radialGradient>
            <path id="XMLID_11_" d="M34.56,62.32c0,0-2.15,1.98-4.71,2.34s-4.48-1.49-4.48-1.49 c-0.74-4.94-0.6-11.44,0.12-16.17l11.62,2.36L34.56,62.32z" fill="url(#XMLID_2_)"/>
            <radialGradient id="SVGID_15_" cx="42.9002" cy="-219.1581" gradientTransform="matrix(0.6981 0.716 -0.716 0.6981 -145.5189 160.9193)" gradientUnits="userSpaceOnUse" r="24.6331">
              <stop offset="0.3639" style="stop-color:#F78C1F"/>
              <stop offset="1" style="stop-color:#F78C1F"/>
            </radialGradient>
            <path d="M26.19,45.5l5.73,5.25l15.76-4.21l-5.55-11.01C36.01,37.33,28.62,40,26.19,45.5z" fill="url(#SVGID_15_)"/>
            <radialGradient id="SVGID_16_" cx="10.4398" cy="-73.5231" gradientTransform="matrix(0.908 0.419 -0.419 0.908 -2.3011 97.527)" gradientUnits="userSpaceOnUse" r="26.8354">
              <stop offset="0.3632" style="stop-color:#F78C1F"/>
              <stop offset="0.6781" style="stop-color:#F37F21"/>
              <stop offset="1" style="stop-color:#ED6D23"/>
            </radialGradient>
            <circle cx="30.48" cy="48.98" fill="url(#SVGID_16_)" r="5.5"/>
            <circle cx="45.5" cy="40.77" fill="#F78C1F" r="6.24"/>
          </g>
          <g>
            <g>
              <g>
                <g>
                  <defs>
                    <path id="SVGID_19_" d="M44.73,30.18l-3.25-0.13c0,0,0.73,1.25,1.29,2.5c1.14,2.57,3.28,5.19,7.96,4.33 c0.42-0.08-2.98-5.73-2.98-5.73L44.73,30.18z"/>
                  </defs>
                  <clipPath id="SVGID_20_">
                    <use overflow="visible" xlink:href="#SVGID_19_"/>
                  </clipPath>
                  <g clip-path="url(#SVGID_20_)">
                    <path d="M39.53,33.03c1.92,1.83,5.58,2.52,7.53,0.4c0.74-0.81-0.16-1.61-0.9-0.8 c-1.31,1.42-4.44,0.51-5.65-0.64C39.71,31.23,38.74,32.27,39.53,33.03L39.53,33.03z" fill="#795548"/>
                  </g>
                </g>
                <ellipse cx="46.95" cy="26.21" fill="#404040" rx="1.26" ry="2.28" transform="matrix(0.9974 -0.0714 0.0714 0.9974 -1.7519 3.4197)"/>
                <path d="M45.59,23.2c-1.52,0.4-2-0.41-1.55-1.08c0.32-0.49,1.23-0.92,3.09-0.68 c1.76,0.23,2.57,0.99,3.1,1.46c0.52,0.47,0.53,0.94,0.14,0.99C49.83,23.97,47.48,22.71,45.59,23.2z" fill="#6D4C41"/>
              </g>
              <g>
                <radialGradient id="SVGID_21_" cx="61.8558" cy="-67.8912" gradientTransform="matrix(1.0187 -0.107 0.1089 0.9812 -3.9568 85.11)" gradientUnits="userSpaceOnUse" r="14.6559">
                  <stop offset="0" style="stop-color:#6D4C41"/>
                  <stop offset="1" style="stop-color:#543930"/>
                </radialGradient>
                <path d="M57.42,28.58l0.12-5.64c0,0,4.46,0.78,3.52,4.67c-0.64,2.64,1.21,5.44,2.42,5.64l0.7,0.18 c1.07-3.96,5.87-5.36,6.22-15.64c0.3-8.92-6.99-12.92-14.48-13.02c-8.59-0.11-15.57,5.51-14.66,13.24l6.69-0.2 C52.08,17.91,54.18,28.4,57.42,28.58z" fill="url(#SVGID_21_)"/>
              </g>
              <g>
                <defs>
                  <path id="SVGID_22_" d="M45.85,13.34l19.36,9.9L63.4,30.6c0,0-1.12,1.81-0.91,2.1c0.35,0.47,1.69,0.74,1.69,0.74 c1.07-3.96,5.87-5.36,6.22-15.64c0.3-8.92-6.99-12.92-14.48-13.02c-8.59-0.11-15.57,5.51-14.66,13.24l2.07-0.06 l-0.22-1.91L45.85,13.34z"/>
                </defs>
                <clipPath id="SVGID_23_">
                  <use overflow="visible" xlink:href="#SVGID_22_"/>
                </clipPath>
                <g clip-path="url(#SVGID_23_)">
                  <path d="M55.67,6.77L55.67,6.77l0.23,0c4.15,0.05,7.79,1.41,10,3.72c1.77,1.85,2.61,4.28,2.51,7.23 c-0.21,6.19-2.11,8.71-3.78,10.94c-0.43,0.57-0.87,1.15-1.26,1.78c-0.32-0.64-0.56-1.51-0.36-2.36 c0.49-2.02-0.08-3.47-0.64-4.33c-1.43-2.19-4.17-2.73-4.48-2.78l-2.29-0.4l-0.05,2.33l-0.02,0.69 c-0.17-0.31-0.33-0.6-0.47-0.86c-1.73-3.21-3.7-6.84-7.05-6.92l-0.05,0l-0.05,0l-4.68,0.14c0.15-1.88,0.9-3.61,2.2-5.08 C47.71,8.31,51.54,6.77,55.67,6.77 M55.67,4.77c-8.48,0-15.31,5.59-14.4,13.24l6.69-0.2c4.12,0.09,6.22,10.59,9.46,10.77 l0.12-5.64c0,0,4.46,0.78,3.52,4.67c-0.64,2.64,1.21,5.44,2.42,5.64l0.7,0.18c1.07-3.96,5.87-5.36,6.22-15.64 c0.3-8.92-6.99-12.92-14.48-13.02C55.84,4.77,55.76,4.77,55.67,4.77L55.67,4.77z" fill="#452B22"/>
                </g>
              </g>
            </g>
            <g>
              <linearGradient id="SVGID_24_" gradientTransform="matrix(0.9997 0.0227 -0.0227 0.9997 -4.4568 1.7111)" gradientUnits="userSpaceOnUse" x1="52.1458" x2="74.4084" y1="5.2456" y2="27.9819">
                <stop offset="0.176" style="stop-color:#EF5350"/>
                <stop offset="0.6227" style="stop-color:#EA4643"/>
                <stop offset="0.9849" style="stop-color:#E53935"/>
              </linearGradient>
              <path d="M63.7,32.52c-0.4,0-0.85-0.12-1.32-0.35c-0.21-0.1-0.39-0.19-0.56-0.26 c-0.94-0.44-0.94-0.44-0.97-1.8c-0.01-0.47,0.03-1.18,0.07-1.99c0.18-3.51,0.23-6.49-0.92-7.41 c-1.7-1.37-7.62-1.41-13.35-1.45c-3.2-0.02-6.22-0.04-8.04-0.31c-0.44-0.06-0.69-0.17-0.75-0.31 c-0.07-0.16,0.06-0.45,0.36-0.8c0.38-0.45,0.89-0.84,1.38-1.23c0.55-0.43,1.12-0.87,1.54-1.4c0.43-0.53,0.64-1.16,0.84-1.76 c0.1-0.3,0.2-0.6,0.33-0.88c1.47-3.25,4.78-5.6,9.82-6.97c1.31-0.35,2.69-0.54,4.1-0.54c4.84,0,9.86,2.09,13.1,5.45 c6.44,6.67,1.52,14.31-0.89,17.28c-0.44,0.54-0.84,1.12-1.23,1.68C66.08,31.11,65.1,32.52,63.7,32.52 C63.7,32.52,63.7,32.52,63.7,32.52z" fill="url(#SVGID_24_)"/>
              <path d="M56.23,5.57c4.71,0,9.59,2.03,12.74,5.3c6.16,6.38,1.41,13.75-0.91,16.62 c-0.45,0.56-0.86,1.14-1.25,1.71c-1.05,1.51-1.96,2.82-3.11,2.82c-0.33,0-0.7-0.1-1.11-0.3c-0.21-0.1-0.4-0.19-0.56-0.27 c-0.24-0.11-0.52-0.24-0.62-0.31c-0.05-0.18-0.06-0.72-0.07-1.04c-0.01-0.46,0.03-1.15,0.07-1.96 c0.19-3.9,0.23-6.75-1.1-7.82c-1.71-1.37-6.51-1.51-13.65-1.56c-3.18-0.02-6.19-0.04-7.98-0.3 c-0.11-0.02-0.2-0.03-0.26-0.05c0.04-0.06,0.1-0.14,0.18-0.24c0.34-0.4,0.81-0.77,1.31-1.15c0.57-0.44,1.16-0.9,1.63-1.48 c0.48-0.6,0.72-1.3,0.93-1.92c0.1-0.3,0.2-0.58,0.31-0.83c0.52-1.16,2.12-4.69,9.5-6.69C53.53,5.75,54.86,5.57,56.23,5.57 M56.23,4.57c-1.42,0-2.85,0.17-4.23,0.55c-7.31,1.99-9.36,5.51-10.15,7.25c-0.39,0.85-0.54,1.83-1.11,2.54 c-0.77,0.96-2.09,1.63-2.92,2.62c-0.32,0.38-0.63,0.88-0.43,1.33c0.18,0.41,0.69,0.53,1.14,0.6 c5.01,0.72,18.67-0.34,21.15,1.65c1.37,1.1,0.62,6.98,0.66,9.02c0.04,1.9,0.1,1.67,1.81,2.5c0.57,0.27,1.08,0.4,1.54,0.4 c2.22,0,3.42-2.78,5.14-4.9c4.02-4.96,6.57-12.03,0.86-17.94C66.52,6.88,61.4,4.57,56.23,4.57L56.23,4.57z" fill="#B71C1C"/>
            </g>
          </g>
          <g>
            <path d="M57.46,106.45c-0.66,0-1.3-0.07-1.91-0.2c-1.87-0.41-4.61-1.42-6.58-2.2 c-0.89-0.35-1.47-1.2-1.47-2.17l0-1.75c0-0.47,0.34-0.87,0.81-0.95l13.23-1.8c2.45,0.36,3.33,2.41,2.87,6.61 c-0.03,0.28-0.21,0.54-0.47,0.68C62.72,105.34,60.21,106.45,57.46,106.45z" fill="#4568AD"/>
            <path d="M61.55,97.89c1.5,0.24,2.91,1.21,2.38,6.05c-0.01,0.12-0.09,0.23-0.21,0.29 c-0.97,0.52-3.52,1.72-6.26,1.72c-0.62,0-1.23-0.06-1.8-0.19c-1.94-0.42-4.91-1.54-6.51-2.18c-0.7-0.28-1.15-0.94-1.15-1.7 l0-1.75c0-0.23,0.16-0.42,0.37-0.45L61.55,97.89 M61.56,96.88l-13.31,1.81c-0.71,0.11-1.23,0.72-1.23,1.44l0,1.75 c0,1.16,0.7,2.2,1.78,2.63c1.84,0.73,4.71,1.8,6.66,2.22c0.68,0.15,1.35,0.21,2.01,0.21c2.91,0,5.56-1.21,6.73-1.84 c0.4-0.22,0.68-0.61,0.73-1.06C65.3,100.64,64.97,97.34,61.56,96.88L61.56,96.88z" fill="#315499"/>
          </g>
          <g>
            <path d="M90.04,92.39c-0.25,0-0.51-0.01-0.77-0.02c-2.21-0.11-7.13-0.68-9.86-1 c-0.71-0.08-1.25-0.67-1.28-1.38l-0.17-3.29l12.47-2.06c3.06,0.44,6.33,2.48,6.39,5.44c0.01,0.28-0.13,0.55-0.37,0.69 C95.44,91.36,93.28,92.39,90.04,92.39z" fill="#4568AD"/>
            <path d="M90.43,85.13c2.84,0.43,5.83,2.28,5.88,4.94c0,0.11-0.05,0.2-0.13,0.25 c-0.96,0.58-3.03,1.56-6.14,1.56c-0.24,0-0.49-0.01-0.75-0.02c-2.22-0.11-7.11-0.68-9.83-1c-0.47-0.06-0.82-0.44-0.84-0.91 l-0.14-2.85L90.43,85.13 M90.42,84.12l-12.98,2.15L77.63,90c0.05,0.96,0.77,1.74,1.72,1.86c2.6,0.31,7.62,0.89,9.9,1.01 c0.27,0.01,0.54,0.02,0.8,0.02c3.39,0,5.67-1.1,6.66-1.71c0.39-0.24,0.62-0.67,0.61-1.13C97.25,86.81,93.81,84.58,90.42,84.12 L90.42,84.12z" fill="#315499"/>
          </g>
        </g>
        <path d="M79.49,26.73c-5.95,3.62-5.18,6.21-10.61,10.87c-4.85,4.16-10.35,6.21-17.6,3.11 c-11.85-5.08-10.09-10.87-10.09-10.87s2.85,3.88,14.49,3.36c8.27-0.37,10.09-2.85,13.46-6.21s1.04-5.69,8.28-9.32 c7.25-3.62,15.01-2.59,15.01-2.59L102,23.1C102,23.1,85.44,23.1,79.49,26.73z" fill="#039BE5"/>
        <path d="M43.62,35.73c2.42,0,5.54,1.83,6.67,3.92c0.44,0.82,0.48,1.74,0.09,2.74 c-0.58,1.53-2.01,2.83-3.05,3.21c-2.16,0.78-10.25,3.57-10.33,3.6c-0.33,0.11-0.57,0.39-0.65,0.72l-2.9,12.74 c-0.62,0.41-2.26,1.35-4.23,1.35c-1.21,0-2.36-0.36-3.43-1.07c-0.06-2.29-0.3-11.89,0.17-15.96 c0.59-5.14,11.24-9.11,15.79-10.8c0.04-0.02,0.09-0.04,0.13-0.06C42.38,35.86,42.96,35.73,43.62,35.73 M43.62,34.73 c-0.79,0-1.55,0.16-2.21,0.52c-5.7,2.12-15.79,6-16.44,11.63c-0.54,4.75-0.16,16.6-0.16,16.6c1.52,1.15,3.04,1.54,4.41,1.54 c2.91,0,5.12-1.76,5.12-1.76l2.98-13.12c0,0,8.16-2.82,10.35-3.6s5.14-4.34,3.5-7.36C49.88,36.81,46.49,34.73,43.62,34.73 L43.62,34.73z" fill="#DA6727"/>
        <g>
          <path d="M57.42,41.3c-2.4,0-4.74-0.49-6.96-1.46c-8.98-3.93-9.46-8.44-9.28-10.13c1.43,0.93,5.29,2.82,13,2.82 c0.71,0,1.45-0.02,2.23-0.05c7.13-0.32,8.87-2.22,11.27-4.86c0.45-0.49,0.92-1.01,1.47-1.56c1.19-1.19,1.74-2.11,2.22-2.92 c0.9-1.51,1.61-2.7,6.26-5.02c4.42-2.21,9.02-2.67,12.11-2.67c1.25,0,2.14,0.08,2.47,0.12l8.43,7.06 c-4.12,0.08-16.36,0.6-21.42,3.68c-3.41,2.08-4.71,3.88-6.08,5.78c-1.1,1.53-2.25,3.12-4.6,5.13 C65.48,39.85,61.52,41.3,57.42,41.3z" fill="#039BE5"/>
          <path d="M89.75,15.94L89.75,15.94c1.07,0,1.88,0.06,2.27,0.1l7.3,6.12c-5.01,0.17-15.65,0.86-20.35,3.72 c-3.5,2.13-4.82,3.97-6.23,5.92c-1.09,1.51-2.21,3.07-4.52,5.05c-2.98,2.55-6.82,3.96-10.81,3.96c-2.33,0-4.6-0.48-6.75-1.42 c-7.55-3.3-8.9-6.91-9.01-8.82c1.9,1.02,5.78,2.47,12.53,2.47c0.73,0,1.49-0.02,2.26-0.05c7.34-0.33,9.23-2.4,11.62-5.02 c0.45-0.5,0.92-1.01,1.45-1.54c1.23-1.23,1.8-2.18,2.3-3.02c0.86-1.44,1.54-2.58,6.06-4.83C82.19,16.4,86.71,15.94,89.75,15.94 M89.75,14.94c-2.9,0-7.72,0.42-12.33,2.73c-7.25,3.62-5.25,4.68-8.62,8.04c-3.36,3.36-4.13,5.9-12.4,6.27 c-0.77,0.03-1.51,0.05-2.21,0.05c-9.93,0-13.33-3.19-13.33-3.19s-2.41,6.28,9.41,11.45c2.35,1.03,4.78,1.5,7.15,1.5 c4.26,0,8.35-1.53,11.46-4.2c5.44-4.66,4.66-7.25,10.61-10.87S102,23.1,102,23.1l-9.58-8.02 C92.43,15.08,91.4,14.94,89.75,14.94L89.75,14.94z" fill="#0089CC"/>
        </g>
      </g>
      <g clip-path="url(#SVGID_2_)">
        <path d="M106.45,74.95c0.01-0.01,0.02-0.01,0.03-0.03c1.23-1.08,0.39-3.2-1.31-2.93c-0.05,0-0.09,0.01-0.13,0.02 c-0.98,0.24-1.63,1.08-1.91,2.01c-0.14,0.48-0.26,0.96-0.36,1.45c-0.05,0.24-0.11,0.49-0.13,0.73 c-0.01,0.14,0.06,0.39,0.22,0.42c0.23,0.05,0.65-0.14,0.87-0.22C104.7,76.09,105.66,75.64,106.45,74.95z" fill="#FFFFFF"/>
        <path d="M118.47,63.04c0.01-0.01,0.01-0.02,0.03-0.03c1.1-1.22,3.21-0.35,2.91,1.35c0,0.04-0.02,0.09-0.03,0.13 c-0.25,0.98-1.1,1.62-2.04,1.89c-0.48,0.14-0.97,0.25-1.46,0.34c-0.24,0.05-0.49,0.1-0.73,0.12c-0.14,0.01-0.39-0.07-0.42-0.23 c-0.05-0.23,0.15-0.65,0.23-0.86C117.31,64.78,117.77,63.82,118.47,63.04z" fill="#FFFFFF"/>
        <path d="M100.5,62.29c0.01-0.01,0.01-0.02,0.01-0.04c0.68-1.69-1.22-3.38-2.77-2.25 c-0.04,0.03-0.08,0.06-0.12,0.09c-0.85,0.72-1.09,1.89-0.9,2.96c0.1,0.55,0.22,1.09,0.37,1.62c0.08,0.26,0.14,0.54,0.24,0.79 c0.06,0.14,0.26,0.35,0.43,0.31c0.26-0.06,0.57-0.46,0.75-0.65C99.34,64.3,100.07,63.37,100.5,62.29z" fill="#FFFFFF"/>
        <path d="M113.85,53c0.01-0.01,0.01-0.02,0.02-0.03c1.1-1.16,0.1-3.14-1.53-2.73c-0.04,0.01-0.09,0.02-0.13,0.04 c-0.93,0.31-1.49,1.19-1.68,2.11c-0.1,0.48-0.17,0.96-0.23,1.44c-0.02,0.24-0.06,0.48-0.06,0.72c0,0.13,0.1,0.37,0.25,0.39 c0.23,0.03,0.61-0.19,0.82-0.28C112.25,54.25,113.15,53.73,113.85,53z" fill="#FFFFFF"/>
        <path d="M112.59,62.13c0.01-0.01,0.02-0.02,0.03-0.03c1.37-1.48,0.07-3.96-1.97-3.41 c-0.05,0.01-0.11,0.03-0.16,0.05c-1.16,0.41-1.86,1.53-2.08,2.7c-0.11,0.6-0.2,1.21-0.25,1.82c-0.03,0.3-0.07,0.61-0.07,0.91 c0.01,0.16,0.13,0.46,0.32,0.48c0.29,0.04,0.78-0.25,1.03-0.37C110.6,63.74,111.72,63.07,112.59,62.13z" fill="#FFFFFF"/>
      </g>
      <g clip-path="url(#SVGID_2_)">
        <path d="M54.32,20.49c2.3,0.07,4.39,0.49,4.53,0.95l0.98,2.11c0.08,0.18,0.26,0.29,0.45,0.29 c0,0,9.49-0.26,9.49-0.26l-1.75,2.37l-7.21,1.95c-0.18,0.05-0.32,0.19-0.36,0.37l-0.8,3.56c-0.62,0.52-2.96,1.12-4.76,1.45 L54.32,20.49z" fill="#616161"/>
        <path d="M54.85,21.02c1.66,0.09,3.19,0.37,3.57,0.67c0,0.01,0.01,0.02,0.01,0.03l0.96,2.04 c0.17,0.35,0.52,0.58,0.91,0.58c0.01,0,0.02,0,0.03,0l8.45-0.23l-1.03,1.4l-7.04,1.91c-0.36,0.1-0.63,0.38-0.71,0.75 l-0.76,3.38c-0.55,0.33-2.12,0.8-3.84,1.15L54.85,21.02 M53.8,19.98l0.64,13.89c0,0,4.81-0.79,5.69-1.79l0.83-3.71l7.38-2 l2.46-3.33l-10.5,0.29l-0.96-2.04C58.94,20,53.8,19.98,53.8,19.98L53.8,19.98z M70.79,23.04L70.79,23.04L70.79,23.04z" fill="#4F4F4F"/>
      </g>
      <g clip-path="url(#SVGID_2_)">
        <path d="M45.29,32.76c-0.27-0.46-0.64-1.08-1.11-1.88l-1.33-0.1c-0.15,0.56-0.82,2.42-1.33,2.7 c-0.32,0.18-0.99-0.72-1.48-1.47c-0.37-0.57-0.44-1.28-0.19-1.92c0.11-0.29,0.23-0.58,0.31-0.78c0.22-0.57,0.54-1.09,0.74-1.66 c0.21-0.6-0.16-1.28-0.33-1.88c-0.2-0.67-0.4-1.34-0.6-2.02c-0.05-0.18-0.62-2.53-0.75-2.53c0,0-0.53-0.01-0.61-0.66 c-0.05-0.4-0.07-1.11,1.05-1.12c0,0,12.02,0.29,12.02,0.29c1.6,0.04,3.32,0.07,4.63,2.43c1,1.8,0.55,8.88,0.08,9.81 c-0.23,0.46-0.55,1.39-1.96,1.89c-1.05,0.37-5.25,0.14-7.34-0.01C46.35,33.82,45.68,33.41,45.29,32.76z" fill="#E3F2FD"/>
        <linearGradient id="SVGID_25_" gradientTransform="matrix(1.4567 0.1565 -0.1243 1.1564 147.8574 93.6479)" gradientUnits="userSpaceOnUse" x1="-79.1181" x2="-68.7703" y1="-48.4798" y2="-48.4798">
          <stop offset="0.3652" style="stop-color:#90CAF9"/>
          <stop offset="0.9874" style="stop-color:#42A5F5"/>
        </linearGradient>
        <path d="M49.21,31.26c-1.43-0.18-2.65-1.1-3.22-2.42c-0.56-1.3-1.24-2.79-1.5-3.01 c-0.47-0.41-2.28-0.34-2.5,0.08c-0.22,0.43-0.85,3.33-1.42,4.31c-2.24-4.95-1.53-8.87-1.53-8.87s2.48-0.01,3.36,0 c1.57,0.02,3.15,0.05,4.72,0.08c2.51,0.05,5.01-0.44,6.07,2.46c0.84,2.31,0.28,7-0.62,7.29C51.72,31.48,50.38,31.41,49.21,31.26 z" fill="url(#SVGID_25_)"/>
      </g>
    </g>
  </g>
</svg>