<svg viewBox="0 0 128 128" xmlns="http://www.w3.org/2000/svg" xmlns:xlink="http://www.w3.org/1999/xlink">
  <g id="Layer_2">
    <g>
      <g>
        <path d="M63.96,100.48c-2.95-2.25-4.99-5.49-5.76-9.12l-4.77-22.63l14.43-1.59l1.34,21.94 c0.09,1.43,0.66,2.81,1.6,3.89l13.75,15.69l-4.45,4.17L63.96,100.48z" fill="#646464"/>
        <path d="M67.4,67.69l1.31,21.41c0.09,1.54,0.71,3.03,1.72,4.19l13.43,15.32l-3.79,3.55l-15.82-12.08 c-2.85-2.18-4.83-5.32-5.57-8.83l-4.65-22.09L67.4,67.69 M68.34,66.58l-15.5,1.71l4.88,23.17c0.79,3.75,2.9,7.09,5.94,9.42 l16.49,12.6l5.11-4.79L71.19,92.63c-0.88-1-1.4-2.26-1.48-3.59L68.34,66.58L68.34,66.58z" fill="#4F4F4F"/>
      </g>
      <g>
        <path d="M47.3,119.08L45.7,96.3c-0.27-3.8,0.02-7.61,0.84-11.33l4.45-20.03l16.73-1.53 c0.27,2.43,0.83,7.45,0.83,8.05c0,5.15-3.43,7.49-7.13,9.24c-0.24,0.12-0.34,0.16-5.42,13.68c-0.01,0.04-0.02,0.08-0.03,0.12 l-2.9,24.58H47.3z" fill="#7C7C7C"/>
        <path d="M67.27,63.96c0.34,2.98,0.77,7.01,0.77,7.5c0,5.12-3.53,7.22-6.85,8.79c-0.5,0.24-0.53,0.25-5.68,13.95 c-0.03,0.08-0.05,0.15-0.06,0.23l-2.85,24.14h-4.85L46.2,96.27c-0.26-3.75,0.02-7.51,0.83-11.19l4.37-19.68L67.27,63.96 M68.15,62.87l-17.58,1.6l-4.53,20.39c-0.84,3.76-1.12,7.63-0.85,11.47l1.63,23.24h6.67l2.95-25.03c0,0,5.01-13.32,5.17-13.4 c3.28-1.55,7.42-3.9,7.42-9.69C69.04,70.65,68.15,62.87,68.15,62.87L68.15,62.87z" fill="#5B5B5B"/>
      </g>
      <g>
        <g>
          <g>
            <g>
              <linearGradient id="SVGID_1_" gradientTransform="matrix(0.9875 -0.1574 0.1574 0.9875 -62.3186 -228.1495)" gradientUnits="userSpaceOnUse" x1="71.4338" x2="85.6523" y1="253.0549" y2="281.7881">
                <stop offset="0.55" style="stop-color:#F9DDBD"/>
                <stop offset="0.8314" style="stop-color:#FFD29C"/>
                <stop offset="1" style="stop-color:#EDBD82"/>
              </linearGradient>
              <path d="M58.07,41.54c-2.44,0-2.88-3.15-2.9-3.29c0.02-0.46,0.05-3.21-1.31-3.73 c-0.52-0.2-0.57-0.21-1.16-0.23c-0.3-0.01-0.78-0.04-1.59-0.1c-4.19-0.31-4.55-2.6-4.81-4.28 c-0.11-0.69-0.19-1.24-0.52-1.6c-0.11-0.12-0.26-0.19-0.57-0.33c-0.4-0.19-1.61-0.75-1.52-1.19 c0.11-0.52,0.67-1.11,1.22-1.67c0.76-0.78,1.54-1.59,1.4-2.53c-0.01-0.25-0.16-0.86-0.32-1.48l-0.03-0.12 c-0.29-1.22-0.32-2.92-0.07-4.53c0.79-5.08,3.79-8.3,8.45-9.07c0.45-0.07,0.92-0.11,1.4-0.11 c4.04,0,8.78,2.72,11.01,6.32c1.42,2.29,0.36,9.93-1.92,13.85c-2.66,4.56-1.39,8.92-1.13,9.7c-0.07,0.51-0.6,3-4.48,4.2 C58.8,41.47,58.42,41.54,58.07,41.54L58.07,41.54z" fill="url(#SVGID_1_)"/>
              <path d="M55.74,7.78c3.89,0,8.44,2.62,10.58,6.08c1.32,2.13,0.24,9.61-1.93,13.34 c-2.64,4.53-1.55,8.89-1.21,9.98c-0.12,0.6-0.75,2.64-4.12,3.68c-0.36,0.11-0.7,0.17-1,0.17 c-1.85,0-2.32-2.34-2.39-2.78c0.03-1.14-0.09-3.61-1.63-4.2l-0.08-0.03c-0.49-0.19-0.6-0.2-1.23-0.23 c-0.3-0.01-0.78-0.04-1.58-0.1c-3.8-0.28-4.09-2.18-4.35-3.86c-0.12-0.74-0.22-1.39-0.65-1.86 c-0.18-0.19-0.38-0.29-0.73-0.45c-0.67-0.31-1.07-0.55-1.21-0.72c0.14-0.38,0.65-0.9,1.07-1.33 c0.79-0.82,1.69-1.74,1.54-2.91c-0.03-0.32-0.16-0.86-0.34-1.56l-0.03-0.13c-0.28-1.16-0.3-2.79-0.06-4.33 c0.44-2.81,2.06-7.67,8.04-8.65C54.84,7.82,55.28,7.78,55.74,7.78 M55.74,6.78c-0.5,0-0.99,0.04-1.48,0.12 c-5.27,0.87-8.11,4.67-8.86,9.49c-0.27,1.75-0.22,3.49,0.08,4.72c0.04,0.15,0.33,1.22,0.35,1.56 c0.2,1.3-2.32,2.59-2.61,4.02c-0.22,1.08,2.03,1.77,2.21,1.96c0.88,0.97-0.51,5.58,5.66,6.04 c2.37,0.18,1.91,0.03,2.61,0.3c1.09,0.42,0.99,3.32,0.99,3.32s0.47,3.72,3.4,3.72c0.39,0,0.82-0.07,1.29-0.21 c4.66-1.44,4.84-4.74,4.84-4.74s-1.73-4.6,1.05-9.38c2.23-3.83,3.53-11.76,1.92-14.37C64.91,9.69,60.1,6.78,55.74,6.78 L55.74,6.78z" fill="#EDBD82"/>
            </g>
            <path d="M46.05,31.23c0.86,0.05,1.7-0.15,2.43-0.69c0.79-0.59,0.25-1.24-0.66-0.86 c-0.55,0.23-1.32,0.35-2.02,0.22L46.05,31.23z" fill="#444444"/>
          </g>
          <ellipse cx="49.65" cy="23.39" fill="#312D2D" rx="1.13" ry="1.74" transform="matrix(0.9995 -0.0315 0.0315 0.9995 -0.712 1.5751)"/>
          <g>
            <radialGradient id="SVGID_2_" cx="49.948" cy="20.4714" gradientUnits="userSpaceOnUse" r="1.8511">
              <stop offset="0.0905" style="stop-color:#454140"/>
              <stop offset="1" style="stop-color:#454140"/>
            </radialGradient>
            <path d="M48.77,20.82c-1.12,0.26-1.34-0.48-0.94-1.04c0.29-0.42,0.98-0.74,2.25-0.42 c1.2,0.3,1.66,1.03,1.97,1.47c0.3,0.44,0.24,0.86-0.04,0.89C51.63,21.74,50.15,20.5,48.77,20.82z" fill="url(#SVGID_2_)"/>
          </g>
        </g>
        <g>
          <radialGradient id="SVGID_3_" cx="13.84" cy="103.8888" gradientTransform="matrix(1.0377 -0.042 0.0463 0.9992 34.6168 -91.5895)" gradientUnits="userSpaceOnUse" r="11.6944">
            <stop offset="0" style="stop-color:#454140"/>
            <stop offset="1" style="stop-color:#312D2D"/>
          </radialGradient>
          <path d="M57.54,22.9l0.92-1.47c0.58-0.84,1.11-1.56,1.88-1.43c2.28,0.41,2.02,4.45-0.62,5.45 c0,0,0.55,3.01,3.43,3.67c0.3,0.07,0.57,0.11,0.81,0.13c0.77,0.06,1.36-0.55,1.54-1.3c1.09-4.69,2.69-3.81,3.57-9.27 c1.21-7.49-5.54-12.2-11.91-12.47c-2.48-0.1-5.03,0.33-7.27,1.42c-0.95,0.45-4.25,2.3-4.94,3.91 c-0.88,2.06,0.38,3.77,0.38,3.77s6.6-0.65,9.65-0.07c0.4,0.08,0.86,0.2,1.04,0.56c0.08,0.16,0.16,1.18,0.17,1.36 c0.2,2.3,0.03,3.76,0.75,5.2C57.07,22.59,57.54,22.9,57.54,22.9z" fill="url(#SVGID_3_)"/>
        </g>
        <path d="M67.7,10.55c-2.3-2.82-6.5-4.66-10.51-4.83c-2.69-0.11-5.28,0.39-7.49,1.47 c-0.04,0.02-4.25,2.11-5.18,4.15c-1,2.19-0.07,3.45,0.16,3.68c0.4,0.41,1.16,0.24,1.16,0.24c-0.58-0.59-0.99-2.25-0.43-3.54 c0.59-1.39,3.66-3.17,4.71-3.66c2.07-1.01,4.5-1.48,7.03-1.37c3.74,0.16,7.67,1.86,9.8,4.47c1.71,2.1,2.38,4.66,1.93,7.42 c-0.46,2.85-1.11,3.89-1.79,4.99c-0.61,0.99-1.25,2.01-1.77,4.25c-0.11,0.48-1.15,1.41-1.07,1.41 c1.04,0.03,1.78-0.22,2.01-1.19c0.49-2.08,1.05-2.99,1.65-3.95c0.71-1.13,1.44-2.31,1.93-5.35 C70.33,15.7,69.59,12.87,67.7,10.55z" fill="#1F1A1A"/>
      </g>
      <g>
        <radialGradient id="SVGID_4_" cx="58.9419" cy="54.2061" gradientUnits="userSpaceOnUse" r="14.9185">
          <stop offset="0.3637" style="stop-color:#00BFA5"/>
          <stop offset="0.8121" style="stop-color:#00B29A"/>
          <stop offset="1" style="stop-color:#00AB94"/>
        </radialGradient>
        <path d="M53,73.01c-1.99,0-3.62-1.96-3.62-4.36l2.15-22.45c0.45-4.27,2.62-7.95,4.42-9.23 c1.83-1.31,4.54-1.54,4.57-1.55c0.14-0.01,0.3-0.02,0.46-0.02c1.06,0,3.04,0.28,4.33,2.17c0.77,1.12,1.43,3.49,1.58,5.64 l1.61,25.48c0,2.37-1.62,4.33-3.62,4.33H53z" fill="url(#SVGID_4_)"/>
        <path d="M60.99,35.9L60.99,35.9c1.18,0,2.82,0.34,3.92,1.95c0.72,1.06,1.35,3.32,1.49,5.38L68,68.68 c-0.01,2.12-1.41,3.83-3.11,3.83H52.99c-1.71,0-3.1-1.71-3.11-3.82l2.15-22.44c0.42-3.98,2.47-7.64,4.22-8.88 c1.72-1.22,4.29-1.45,4.31-1.46C60.69,35.91,60.84,35.9,60.99,35.9 M60.99,34.9c-0.18,0-0.34,0.01-0.5,0.02 c0,0-2.84,0.23-4.82,1.64c-2.1,1.5-4.2,5.48-4.63,9.59l-2.15,22.5c0,2.69,1.84,4.86,4.12,4.86h11.89c2.27,0,4.12-2.18,4.12-4.86 l-1.61-25.48c-0.14-2.14-0.79-4.62-1.66-5.88C64.44,35.39,62.48,34.9,60.99,34.9L60.99,34.9z" fill="#009984"/>
      </g>
      <g>
        <linearGradient id="SVGID_5_" gradientUnits="userSpaceOnUse" x1="61.1101" x2="61.1101" y1="22.8877" y2="82.6853">
          <stop offset="0" style="stop-color:#FFD29C"/>
          <stop offset="0.0237" style="stop-color:#FFD39E"/>
          <stop offset="0.3158" style="stop-color:#FCD8AF"/>
          <stop offset="0.6295" style="stop-color:#FADCBA"/>
          <stop offset="1" style="stop-color:#F9DDBD"/>
        </linearGradient>
        <path d="M58.39,74.19c-0.3,0-0.62-0.07-0.93-0.2c-1.41-0.61-1.71-1.86-0.91-3.7l3.35-9.33 c0.03-0.08,0.04-0.17,0.02-0.25l-2.07-12.69l5.98-0.97l2.17,13.34c0.18,0.76,0.08,1.52-0.27,2.19c-0.01,0.03-0.03,0.06-0.04,0.08 l-4.64,9.28C60.45,73.35,59.45,74.19,58.39,74.19L58.39,74.19z" fill="url(#SVGID_5_)"/>
        <path d="M63.43,47.61l2.09,12.84c0,0.03,0.01,0.05,0.02,0.08c0.15,0.6,0.06,1.24-0.23,1.8 c-0.02,0.04-0.04,0.08-0.05,0.12l-4.62,9.25c-0.01,0.02-0.02,0.03-0.02,0.05c-0.52,1.19-1.37,1.94-2.21,1.94 c-0.24,0-0.48-0.05-0.73-0.16c-0.75-0.33-0.92-0.76-0.99-1.06c-0.12-0.51,0-1.2,0.34-1.98c0.01-0.02,0.02-0.04,0.02-0.06 l3.34-9.3c0.06-0.16,0.07-0.33,0.05-0.5l-1.99-12.2L63.43,47.61 M64.25,46.46l-6.97,1.13l2.15,13.19l-3.34,9.3 c-0.84,1.92-0.62,3.58,1.17,4.36c0.39,0.17,0.76,0.25,1.13,0.25c1.33,0,2.47-1.03,3.13-2.54l4.67-9.35l-0.01,0 c0.42-0.79,0.52-1.68,0.32-2.51L64.25,46.46L64.25,46.46z" fill="#EDBD82"/>
      </g>
      <path d="M63.43,47.61l2.09,12.84c0,0.03,0.01,0.05,0.02,0.08c0.15,0.6,0.06,1.24-0.23,1.8 c-0.02,0.04-0.04,0.08-0.05,0.12l-4.52,9.02c-0.01,0.02-0.02,0.03-0.02,0.05c-0.65,1.49-2.57,3.42-3.72,3.42 c-0.1,0-0.19-0.02-0.27-0.05c-0.82-0.36-0.45-2.69,0.4-4.64c0.01-0.02,0.02-0.04,0.03-0.06l3.23-9.06 c0.06-0.16,0.07-0.33,0.05-0.5l-1.99-12.2L63.43,47.61 M64.25,46.46l-6.97,1.14l2.15,13.19l-3.23,9.06 c-0.82,1.87-1.67,5.18,0.12,5.96c0.21,0.09,0.43,0.13,0.67,0.13c1.73,0,3.92-2.37,4.64-4.02l4.57-9.11l-0.01,0 c0.42-0.79,0.52-1.68,0.32-2.51L64.25,46.46L64.25,46.46z" fill="#EDBD82"/>
      <g id="XMLID_4_">
        <path d="M55.14,43.22c-0.24-1.32,0.05-2.66,0.82-3.77c0.77-1.11,1.92-1.85,3.24-2.09c0.3-0.05,0.6-0.08,0.91-0.08 c2.43,0,4.52,1.74,4.95,4.14l1.67,9.2l-9.91,1.8L55.14,43.22z" fill="#04A287"/>
        <path d="M60.1,37.78c2.19,0,4.07,1.57,4.46,3.73l1.58,8.7l-8.93,1.62l-1.58-8.7c-0.45-2.46,1.19-4.83,3.66-5.27 C59.56,37.81,59.83,37.78,60.1,37.78 M60.1,36.78c-0.33,0-0.66,0.03-0.99,0.09c-3.01,0.55-5.01,3.43-4.46,6.44L56.41,53 l10.9-1.98l-1.76-9.69C65.06,38.66,62.73,36.78,60.1,36.78L60.1,36.78z" fill="#008F76"/>
      </g>
      <g>
        <defs>
          <path id="SVGID_8_" d="M56.86,71.03l0.25-0.72c0,0-1.09-1.15-2.03-0.26c-0.82,0.63-3.4,2.07-3.8,3.36 c-0.41,1.29-0.59,3.58-0.44,4.72c0.05,0.35,0.26,3,2.51,3.99c2.25,0.98,5.87,1.51,7.75-3.99c0.44-0.62,0.52-2.06,0.66-3.4 l-0.15-1.66c-0.11-0.63-0.99-1.32-0.99-1.32l-0.45,0.87L56.86,71.03z"/>
        </defs>
        <clipPath id="SVGID_9_">
          <use overflow="visible" xlink:href="#SVGID_8_"/>
        </clipPath>
        <g clip-path="url(#SVGID_9_)">
          <path d="M59.73,71.73 c-0.27-0.13-0.49-0.26-0.71-0.38c-0.45-0.25-0.87-0.48-1.52-0.72c-0.8-0.29-3.89,1.73-4.59,2.16c-0.23,0.14-0.45,0.28-0.65,0.42 c-0.27,0.18-0.44,0.46-0.5,0.74c-0.02,0.05-0.06,0.13-0.08,0.22c-0.01,0.04-0.01,0.07,0,0.11c0,0.01,0.05,1.52-0.18,2.39 c-0.09,0.34,0.1,0.84,0.44,0.89c0,0-0.03,0.79-0.09,1.2c-0.07,0.48,0,0.62,0.02,0.84c0.03,0.36,0.22,0.6,0.51,0.71 c0.35,0.14,0.45-0.01,0.61,0.07s0.15,0.27,0.23,0.47c0.22,0.53,0.71,0.59,0.9,0.57c0.62-0.07,0.72-0.48,0.83-0.5 c0.2-0.03,0.27,0.13,0.32,0.25c0.11,0.26,0.44,0.35,0.73,0.38c0.73-0.07,1.13-0.77,1.17-0.68c0.15,0.35,0.83,0.5,1.16,0.28 c0.28-0.19,0.51,0.02,1.77-3.13c0.26-0.56,0.59-2,0.73-3.33l0.07-0.63C61.02,73.05,60.56,72.14,59.73,71.73z" fill="#FFD29C" stroke="#EDBD82" stroke-linecap="round" stroke-linejoin="round" stroke-miterlimit="10"/>
          <g>
            <linearGradient id="SVGID_10_" gradientTransform="matrix(0.9901 0.14 -0.14 0.9901 -16.3362 110.2844)" gradientUnits="userSpaceOnUse" x1="64.3786" x2="67.322" y1="-49.6781" y2="-45.4529">
              <stop offset="0" style="stop-color:#FFD29C"/>
              <stop offset="0.0237" style="stop-color:#FFD39E"/>
              <stop offset="0.3158" style="stop-color:#FCD8AF"/>
              <stop offset="0.6295" style="stop-color:#FADCBA"/>
              <stop offset="1" style="stop-color:#F9DDBD"/>
            </linearGradient>
            <path d="M59.69,71.98c-0.82-0.41-1.39-0.56-2.27-1.12c-0.8-0.52-4.11,1.36-5.09,2.63 c-0.4,0.27-0.68,0.84-0.4,1.24c0.27,0.4,0.4,0.46,0.8,0.18c0,0,0.09,0.42,0.13,0.52c0.24,0.5,0.86,0.41,1.05,0.4 c0.35-0.02,0.53,0.03,0.62,0.37c0.08,0.32,0.37,0.64,0.68,0.75c0.35,0.12,0.6,0.11,0.96-0.07c0.17-0.08,0.29,0,0.38,0.17 c0.13,0.22,0.39,0.52,0.62,0.58c0.42,0.12,0.65,0.03,0.93-0.03c0.18-0.04,0.26-0.03,0.4,0.08c0.12,0.1,0.2,0.55,0.53,0.67 c1.44,0.51,1.47-2.53,1.68-4.33C60.8,73.16,60.44,72.35,59.69,71.98z" fill="url(#SVGID_10_)"/>
          </g>
          <line fill="none" stroke="#EDA600" stroke-linecap="round" stroke-linejoin="round" stroke-miterlimit="10" x1="42.83" x2="43.71" y1="84.25" y2="80.48"/>
          <line fill="none" stroke="#EDA600" stroke-linecap="round" stroke-linejoin="round" stroke-miterlimit="10" x1="44.89" x2="45.74" y1="84.6" y2="81.29"/>
          <line fill="none" stroke="#EDBD82" stroke-linecap="round" stroke-linejoin="round" stroke-miterlimit="10" x1="57.22" x2="57.81" y1="80.9" y2="78.57"/>
          <line fill="none" stroke="#EDBD82" stroke-linecap="round" stroke-linejoin="round" stroke-miterlimit="10" x1="55.05" x2="55.86" y1="80.97" y2="78.2"/>
          <line fill="none" stroke="#EDBD82" stroke-linecap="round" stroke-linejoin="round" stroke-miterlimit="10" x1="53.13" x2="53.75" y1="80.34" y2="77.17"/>
          <path d="M43.61,80.34c-0.55-0.05-0.88-0.22-1.06-0.5c-0.17,0.16-0.42,0.32-0.82,0.37 c-0.34,0.04-1-0.09-1.29-0.8c-0.03-0.07-0.05-0.15-0.07-0.22c0-0.01,0-0.02-0.01-0.03c-0.14,0.01-0.32,0.01-0.56-0.08 c-0.43-0.17-0.7-0.55-0.74-1.03c-0.02-0.29,0.21-2.01,0.25-2.33c0.04-0.27,0.13-0.74,0.18-1.05c-0.08-0.06-0.16-0.15-0.22-0.25 c-0.18-0.28-0.25-0.65-0.16-0.96c0.22-0.81,0.17-2.26,0.17-2.27c-0.01-0.04-0.01-0.12,0.01-0.2c0.02-0.13,0.07-0.23,0.1-0.3 c0.05-0.31,0.29-0.67,0.63-0.91c0.21-0.14,0.43-0.28,0.67-0.43c0.67-0.42,1.44-0.89,2.16-1.78c1.06-0.94,1.91-0.73,2.76-0.42 c0.67,0.25,1.1,0.49,1.56,0.74c0.25,0.14,0.46,0.26,0.71,0.38l0,0c0.97,0.48,1.52,1.54,1.38,2.7l-0.07,0.63 c-0.15,1.34-0.47,2.83-0.77,3.45c-1.21,3.12-1.75,3.99-2.32,4.5c-0.36,0.32-0.84,0.46-1.24,0.37 c-0.09-0.02-0.17-0.05-0.24-0.09C44.41,80.07,44.09,80.3,43.61,80.34z M42.58,78.96c0.27,0,0.47,0.16,0.61,0.48 c0.02,0.06,0.15,0.13,0.42,0.16c0.29-0.03,0.49-0.28,0.6-0.43c0.08-0.1,0.2-0.25,0.43-0.23c0.13,0.02,0.25,0.11,0.3,0.23 c0.21,0.06,0.45,0.02,0.65-0.17c0.48-0.42,0.98-1.24,2.13-4.23c0.23-0.49,0.56-1.86,0.71-3.24l0.07-0.64 c0.1-0.84-0.28-1.6-0.97-1.94c-0.26-0.13-0.48-0.25-0.7-0.37c-0.47-0.26-0.88-0.49-1.49-0.71c-0.75-0.28-1.25-0.39-1.96,0.23 c-0.75,0.94-1.57,1.45-2.3,1.9c-0.23,0.14-0.44,0.27-0.64,0.41c-0.18,0.12-0.3,0.31-0.34,0.5c-0.01,0.03-0.02,0.07-0.03,0.1 c-0.02,0.04-0.04,0.08-0.04,0.12c0,0.01,0.07,1.58-0.19,2.54c-0.03,0.1,0,0.25,0.07,0.35c0.03,0.05,0.06,0.07,0.07,0.07 c0.1,0.02,0.19,0.07,0.25,0.15c0.06,0.08,0.08,0.19,0.06,0.29c0,0-0.17,0.9-0.23,1.31c-0.09,0.56-0.26,1.97-0.25,2.16 c0.02,0.2,0.1,0.33,0.27,0.39c0.11,0.04,0.15,0.04,0.23,0.03c0.09-0.01,0.24-0.03,0.41,0.05C41,78.6,41.06,78.84,41.11,79 c0.01,0.04,0.02,0.09,0.04,0.13c0.15,0.36,0.47,0.34,0.51,0.33c0.28-0.03,0.37-0.15,0.47-0.26c0.07-0.09,0.17-0.21,0.35-0.24 C42.52,78.96,42.55,78.96,42.58,78.96z" fill="#EDA600"/>
          <path d="M56.05,82.05c-0.53-0.05-0.88-0.2-1.09-0.44c-0.18,0.14-0.42,0.27-0.78,0.31 c-0.37,0.04-1.1-0.09-1.42-0.88c-0.02-0.05-0.04-0.11-0.06-0.16c-0.14,0-0.3-0.01-0.51-0.1c-0.48-0.19-0.77-0.61-0.82-1.14 l-0.02-0.11c-0.03-0.17-0.07-0.4,0-0.84c0.03-0.22,0.06-0.57,0.07-0.83c-0.09-0.07-0.17-0.16-0.23-0.26 c-0.2-0.31-0.27-0.72-0.18-1.06c0.19-0.69,0.18-1.96,0.17-2.23c-0.01-0.04-0.01-0.14,0.01-0.23c0.02-0.12,0.06-0.22,0.09-0.29 c0.09-0.39,0.34-0.75,0.69-0.99c0.21-0.14,0.43-0.29,0.67-0.43c0.7-0.43,2.24-1.41,2.24-1.41c0.28-0.19,1.8-1.15,2.78-0.79 c0.69,0.25,1.15,0.51,1.59,0.75c0.23,0.13,0.44,0.25,0.69,0.37c0,0,0,0,0,0c1.02,0.51,1.59,1.61,1.45,2.82l-0.07,0.63 c-0.15,1.36-0.48,2.86-0.78,3.49c-1.1,2.73-1.46,3.09-1.9,3.31c-0.35,0.23-0.77,0.27-1.18,0.15c-0.12-0.04-0.23-0.08-0.32-0.14 C56.89,81.77,56.52,82,56.05,82.05z M55.73,80.97c0,0,0.08,0.06,0.32,0.08c0.23-0.03,0.47-0.28,0.62-0.43 c0.12-0.12,0.29-0.3,0.58-0.25c0.16,0.03,0.31,0.15,0.38,0.3c0.06,0.06,0.34,0.11,0.43,0.06c0.05-0.03,0.09-0.06,0.14-0.08 c0.12-0.06,0.39-0.2,1.44-2.82c0.23-0.49,0.55-1.83,0.7-3.2l0.07-0.63c0.09-0.79-0.26-1.5-0.9-1.81 c-0.26-0.13-0.49-0.25-0.71-0.38c-0.46-0.25-0.86-0.48-1.48-0.71c-0.36-0.13-1.33,0.32-1.89,0.69 c-0.01,0.01-1.56,0.99-2.26,1.43c-0.22,0.14-0.44,0.27-0.63,0.41c-0.15,0.1-0.26,0.26-0.29,0.42 c-0.01,0.04-0.02,0.08-0.04,0.12c0,0-0.04,0.1-0.04,0.11c0.01,0.03,0.06,1.6-0.19,2.54c-0.02,0.09,0.03,0.24,0.07,0.28 c0.25,0.04,0.4,0.25,0.39,0.5c0,0.03-0.03,0.83-0.1,1.26c-0.04,0.28-0.02,0.39,0,0.52c0.01,0.06,0.02,0.13,0.03,0.2 c0.02,0.19,0.11,0.26,0.2,0.29c0.08,0.03,0.1,0.03,0.17,0.02c0.1-0.01,0.27-0.04,0.48,0.06c0.31,0.16,0.39,0.44,0.44,0.61 c0.01,0.04,0.02,0.08,0.04,0.12c0.11,0.28,0.35,0.26,0.38,0.26c0.23-0.02,0.3-0.11,0.38-0.22c0.08-0.09,0.2-0.25,0.43-0.28 C55.15,80.39,55.51,80.45,55.73,80.97L55.73,80.97z" fill="#EDBD82"/>
        </g>
      </g>
      <g>
        <path d="M39.02,123.5c-0.13,0-0.26-0.05-0.36-0.15c-0.09-0.09-0.15-0.22-0.15-0.35l0-1.27 c0.01-1.44,0.88-2.71,2.22-3.23l6.18-2.04h6.66c0.42,0.52,1.66,2.17,1.66,3.57l0,2.8c0,0.17-0.07,0.33-0.19,0.46 s-0.28,0.19-0.46,0.19L39.02,123.5L39.02,123.5z" fill="#4568AD"/>
        <path d="M53.35,116.96c0.54,0.7,1.4,2.04,1.4,3.07l0,2.8c0,0.05-0.02,0.08-0.04,0.1 c-0.02,0.02-0.05,0.04-0.1,0.04L39.02,123l0.01-1.26c0.01-1.22,0.75-2.31,1.88-2.76l6.1-2.01H53.35 M53.82,115.96h-6.98 l-6.28,2.07c-1.52,0.6-2.53,2.06-2.54,3.69l-0.01,1.27c0,0.55,0.45,1,1,1h0l15.59-0.02c0.63,0,1.15-0.51,1.15-1.15l0-2.8 C55.75,118.13,53.82,115.96,53.82,115.96L53.82,115.96z" fill="#315499"/>
      </g>
      <g>
        <path d="M77.93,122.66c-0.13,0-0.26-0.05-0.35-0.15l-0.89-0.9c-1.01-1.02-1.29-2.54-0.71-3.85l2.93-5.81 l4.71-4.71c0.67,0.07,2.71,0.36,3.7,1.35l1.98,1.98c0.25,0.25,0.25,0.66,0,0.91l-11.01,11.03 C78.19,122.61,78.07,122.66,77.93,122.66L77.93,122.66z" fill="#325599"/>
        <path d="M83.79,107.76c0.88,0.11,2.43,0.45,3.16,1.18l1.98,1.98c0.04,0.04,0.04,0.08,0.04,0.1 c0,0.03-0.01,0.07-0.04,0.1l-11.01,11.03l-0.89-0.9c-0.86-0.87-1.1-2.16-0.62-3.28l2.89-5.74L83.79,107.76 M83.42,106.72 l-4.93,4.93l-2.97,5.91c-0.65,1.5-0.33,3.24,0.82,4.41l0.89,0.9c0.2,0.2,0.45,0.3,0.71,0.3c0.26,0,0.51-0.1,0.71-0.29 l11.01-11.03c0.45-0.45,0.45-1.17,0-1.62l-1.98-1.98C86.32,106.89,83.42,106.72,83.42,106.72L83.42,106.72z" fill="#224487"/>
      </g>
    </g>
  </g>
</svg>