<svg viewBox="0 0 128 128" xmlns="http://www.w3.org/2000/svg" xmlns:xlink="http://www.w3.org/1999/xlink">
  <g id="_x31_">
    <g>
      <defs>
        <rect id="SVGID_1_" height="120" width="120" x="4" y="4"/>
      </defs>
      <clipPath id="SVGID_2_">
        <use overflow="visible" xlink:href="#SVGID_1_"/>
      </clipPath>
      <g clip-path="url(#SVGID_2_)">
        <radialGradient id="SVGID_3_" cx="-20.1044" cy="-130.7548" gradientTransform="matrix(0.826 0 0 0.826 66.8563 101.2865)" gradientUnits="userSpaceOnUse" r="59.0089">
          <stop offset="0" style="stop-color:#454140"/>
          <stop offset="1" style="stop-color:#312D2D"/>
        </radialGradient>
        <path d="M33.02,123.42c0,0-6.8-0.35-10.21-5.09c-7.37-10.23-11.42-35.81-11.42-72.02 c0-0.75,0.09-17.96,11.37-29.27c6.7-6.72,16.06-10.12,27.81-10.12c11.66,0,20.87,3.36,27.37,9.98 c10.71,10.92,10.71,27.47,10.67,29.33c0,36.31-4.06,61.89-11.42,72.12c-3.3,4.59-9.8,5.06-10.25,5.09L50,123.4L33.02,123.42z" fill="url(#SVGID_3_)"/>
        <path d="M50.57,8.42c11.25,0,20.09,3.21,26.3,9.53c10.28,10.48,10.28,26.46,10.24,28.25l0,0.12 c0,35.9-3.96,61.17-11.14,71.15c-2.84,3.94-8.55,4.43-9.08,4.46l-16.9-0.03l-16.88,0.03c-0.58-0.04-6.25-0.54-9.08-4.46 c-7.18-9.98-11.14-35.24-11.14-71.17c0-0.7,0.09-17.32,10.94-28.19C30.24,11.67,39.23,8.42,50.57,8.42 M50.57,5.42 c-41.01,0-40.68,40.29-40.68,40.9c0,24.56,1.88,59.25,11.71,72.9c3.9,5.41,11.43,5.71,11.43,5.71L50,124.9l16.97,0.03 c0,0,7.53-0.3,11.43-5.71c9.83-13.65,11.71-48.34,11.71-72.9C90.1,45.71,91.58,5.42,50.57,5.42L50.57,5.42z" fill="#1F1A1A"/>
      </g>
      <g id="XMLID_60_" clip-path="url(#SVGID_2_)">
        <linearGradient id="SVGID_4_" gradientUnits="userSpaceOnUse" x1="110.7236" x2="110.7236" y1="100.6807" y2="135.7217">
          <stop offset="3.247793e-03" style="stop-color:#448AFF"/>
          <stop offset="0.4042" style="stop-color:#3B7DFF"/>
          <stop offset="1" style="stop-color:#2962FF"/>
        </linearGradient>
        <path d="M105.09,133.59l1.41-32.91c5.74,5.19,8.87,15.67,8.87,21.82c0,0.04,0,0.07,0,0.11l0.98,13.11 L105.09,133.59z" fill="url(#SVGID_4_)"/>
        <path d="M107.84,104.41c4.02,5.46,6.03,13.7,6.03,18.09c0,0.07,0,0.15,0.01,0.22l0.83,11.16l-8.07-1.53 L107.84,104.41 M105.12,97.79l-1.59,37.03l14.47,2.74l-1.12-15.06C116.88,115.74,113,102.5,105.12,97.79L105.12,97.79z" fill="#4073D4"/>
      </g>
      <g id="XMLID_67_" clip-path="url(#SVGID_2_)">
        <linearGradient id="SVGID_5_" gradientUnits="userSpaceOnUse" x1="50" x2="50" y1="97.2432" y2="136.0596">
          <stop offset="3.247793e-03" style="stop-color:#448AFF"/>
          <stop offset="0.4042" style="stop-color:#3B7DFF"/>
          <stop offset="1" style="stop-color:#2962FF"/>
        </linearGradient>
        <path d="M5.5,136.06V120.8c0-7.61,4.6-13.6,13.68-17.82c7.92-3.68,18.86-5.72,30.82-5.73h0.12 c22.05,0,44.38,8.09,44.38,23.56v15.26H5.5z" fill="url(#SVGID_5_)"/>
        <path d="M50.12,98.74c11.32,0,22.3,2.17,30.13,5.95C86.07,107.5,93,112.57,93,120.8v13.76H7V120.8 c0-6.97,4.31-12.51,12.81-16.46c7.72-3.59,18.44-5.58,30.19-5.59L50.12,98.74 M50.12,95.74c-0.04,0-0.08,0-0.12,0 c-22.55,0.03-46,7.28-46,25.06v16.76h92V120.8C96,104.05,72.77,95.74,50.12,95.74L50.12,95.74z" fill="#4073D4"/>
      </g>
      <g clip-path="url(#SVGID_2_)">
        <defs>
          <path id="XMLID_62_" d="M-2,120.8v16.76h104V120.8c0-16.79-26.35-25.09-52-25.06C24.51,95.77-2,103.02-2,120.8z"/>
        </defs>
        <clipPath id="XMLID_2_">
          <use overflow="visible" xlink:href="#XMLID_62_"/>
        </clipPath>
      </g>
      <g clip-path="url(#SVGID_2_)">
        <g>
          <path d="M117.96,54.78l-11.11-0.32c-4.2-0.09-7.67,3.39-7.74,7.79 l-0.64,36.36l3.8,0.09l0.64-36.36c0.04-2.19,1.78-3.94,3.87-3.89l11.11,0.32L117.96,54.78z" fill="#9E9E9E" stroke="#757575" stroke-miterlimit="10"/>
          <path d="M106.64,60.14l-1.49-0.02 c-1.11-0.02-2-0.97-1.99-2.13l0.02-2.21c0.01-1.16,0.92-2.09,2.03-2.07l1.49,0.02c1.11,0.02,2,0.97,1.99,2.13l-0.02,2.21 C108.66,59.23,107.75,60.15,106.64,60.14z" fill="#616161" stroke="#424242" stroke-miterlimit="10" stroke-width="0.9728"/>
          <path d="M103.48,90.19 c0.01-1.05-1.33-1.92-3-1.95c-1.67-0.02-3.03,0.81-3.04,1.86L97,127.92l6.05,0.08L103.48,90.19z" fill="#616161" stroke="#424242" stroke-miterlimit="10" stroke-width="0.9728"/>
        </g>
        <path d="M98.15,125.39l3.78,0.05 c1.54,0.02,2.8-1.36,2.82-3.08l0.33-27.34c0.02-1.88-1.33-3.42-3.01-3.45l-3.26-0.04c-1.68-0.02-3.07,1.48-3.09,3.36l-0.33,27.34 C95.38,123.96,96.61,125.37,98.15,125.39z" fill="#424242" stroke="#212121" stroke-miterlimit="10" stroke-width="0.9728"/>
        <g>
          <path d="M112.5,61.5c-2.73,0-5.66-1.72-5.66-5.5c0-4.14,3.19-5.25,5.08-5.25c4.5,0,9.18,3.78,10.85,5.28 C121.04,57.56,116.23,61.5,112.5,61.5z" fill="#40C4FF"/>
          <path d="M111.92,51.59c3.69,0,7.59,2.79,9.57,4.44c-2.28,1.91-6.15,4.62-8.99,4.62c-1.79,0-4.82-0.98-4.82-4.66 C107.68,52.52,110.34,51.59,111.92,51.59 M111.92,49.92c-2.56,0-5.92,1.67-5.92,6.08s3.5,6.33,6.5,6.33 c5,0,11.5-6.29,11.5-6.29S117.92,49.92,111.92,49.92L111.92,49.92z" fill="#2962FF"/>
        </g>
        <path d="M112.62,53.67c3.51,1.22,5.22,2.32,5.22,2.32s-1.12,1.21-4.74,2.01c-2.69,0.59-4.44-0.41-4.42-2.13 C108.72,54.16,110.81,53.03,112.62,53.67z" fill="#84FFFF"/>
      </g>
      <path clip-path="url(#SVGID_2_)" d=" M95.3,117.14l-1.32,2.29c0,0-6.26-1.36-5.59-4.65c0.16-0.78,1.56-2.44,1.56-2.44s-2.85-2.35-2.4-3.94 c0.45-1.57,3.17-2.79,3.17-2.79s-2.11-1.26-1.28-3.63c0.57-1.62,3.53-2.16,3.53-2.16s-2.76-4.05,2.85-4.97 c1.77-0.29,5.74,0.3,9.3,2.93c3.56,2.63,5.16,5.19,6.62,8.73c0.48,1.16,0.9,2.36,1.03,3.61c0.2,2.03-0.48,4.12-1.77,5.7 c-1.24,1.5-2.42,3.28-4.35,3.95C105.27,120.26,95.3,117.14,95.3,117.14z" fill="#FF7043" stroke="#E03B0E" stroke-linecap="round" stroke-linejoin="round" stroke-miterlimit="10" stroke-width="2"/>
      <g id="XMLID_12_" clip-path="url(#SVGID_2_)">
        <path d="M49.17,109.53c-4,0-7.26-3.22-7.26-7.17v-8.98h16.16v8.98c0,3.95-3.26,7.17-7.26,7.17H49.17z" fill="#EDC391"/>
        <path d="M57.08,94.37v7.98c0,3.4-2.81,6.17-6.26,6.17h-1.65c-3.45,0-6.26-2.77-6.26-6.17v-7.98H50H57.08 M59.08,92.37H50h-9.08v9.98c0,4.51,3.7,8.17,8.26,8.17h1.65c4.56,0,8.26-3.66,8.26-8.17V92.37L59.08,92.37z" fill="#D9AC77"/>
      </g>
      <g clip-path="url(#SVGID_2_)">
        <g>
          <defs>
            <path id="SVGID_6_" d="M16.41,88.91l-1.5-51.44c0-16.95,15.78-29.85,32.73-29.85h4.93c16.95,0,32.54,12.9,32.54,29.85 l-1.5,51.18L16.41,88.91z"/>
          </defs>
          <clipPath id="SVGID_7_">
            <use overflow="visible" xlink:href="#SVGID_6_"/>
          </clipPath>
        </g>
      </g>
      <g clip-path="url(#SVGID_2_)">
        <defs>
          <rect id="SVGID_8_" height="88" width="96" x="4" y="20.05"/>
        </defs>
        <clipPath id="SVGID_9_">
          <use overflow="visible" xlink:href="#SVGID_8_"/>
        </clipPath>
        <g clip-path="url(#SVGID_9_)">
          <defs>
            <path id="SVGID_10_" d="M14.9,37.45c0-16.95,15.78-29.85,32.73-29.85h4.93c16.95,0,32.54,12.9,32.54,29.85"/>
          </defs>
          <clipPath id="SVGID_11_">
            <use overflow="visible" xlink:href="#SVGID_10_"/>
          </clipPath>
          <g clip-path="url(#SVGID_11_)">
            <radialGradient id="SVGID_12_" cx="-22.8691" cy="-123.0774" gradientTransform="matrix(0.796 0 0 0.796 68.2045 97.599)" gradientUnits="userSpaceOnUse" r="48.2064">
              <stop offset="0" style="stop-color:#6D4C41"/>
              <stop offset="1" style="stop-color:#543930"/>
            </radialGradient>
            <path d="M12.28,53.71h8.09c0.42-3.61,1.65-7.29,5.03-8.05c22.36-5.02,35.01-16.89,35.01-16.89 c3.29,7.19,13.58,14.19,17.27,16.86c1.71,1.24,2.32,4.65,2.52,8.08h7.57c0.11-6.44,0.12-11.02,0.12-11.02 S88.91,7.12,50.08,7.12S12.11,42.69,12.11,42.69S12.14,47.27,12.28,53.71z" fill="url(#SVGID_12_)"/>
          </g>
        </g>
        <g clip-path="url(#SVGID_9_)">
          <g>
            <g>
              <g>
                <linearGradient id="SVGID_13_" gradientUnits="userSpaceOnUse" x1="50.2026" x2="50.2026" y1="95.2705" y2="17.04">
                  <stop offset="0" style="stop-color:#FFD29C"/>
                  <stop offset="0.0237" style="stop-color:#FFD39E"/>
                  <stop offset="0.3158" style="stop-color:#FCD8AF"/>
                  <stop offset="0.6295" style="stop-color:#FADCBA"/>
                  <stop offset="1" style="stop-color:#F9DDBD"/>
                </linearGradient>
                <path d="M50.2,95.27c-2.3,0-4.91-0.5-7.56-1.43C31.31,89.83,18.07,77.5,18.07,55.95 c0-28.72,17.31-38.91,32.13-38.91c14.82,0,32.13,10.19,32.13,38.91c0,21.58-13.26,33.9-24.61,37.9 C55.09,94.78,52.49,95.27,50.2,95.27z" fill="url(#SVGID_13_)"/>
                <path d="M50.2,18.04L50.2,18.04c8.41,0,16.06,3.25,21.55,9.15c6.27,6.73,9.58,16.68,9.58,28.77 c0,21.06-12.9,33.07-23.94,36.96c-2.53,0.89-5.01,1.36-7.19,1.36c-2.19,0-4.69-0.48-7.23-1.38 c-11.03-3.9-23.9-15.92-23.9-36.94c0-12.09,3.31-22.03,9.58-28.77C34.14,21.29,41.8,18.04,50.2,18.04 M50.2,16.04 L50.2,16.04L50.2,16.04c-17.2,0-33.13,12.79-33.13,39.91c0,21.79,13.49,34.67,25.23,38.83c2.8,0.99,5.5,1.49,7.9,1.49 c2.38,0,5.07-0.49,7.85-1.47c11.76-4.14,25.28-17.03,25.28-38.84C83.33,28.83,67.4,16.04,50.2,16.04L50.2,16.04z" fill="#EDBD82"/>
              </g>
              <g>
                <path d="M54.02,68.05c-0.1-0.04-0.21-0.07-0.32-0.08h-6.99c-0.11,0.01-0.21,0.04-0.32,0.08 c-0.63,0.26-0.98,0.91-0.68,1.61c0.3,0.7,1.69,2.66,4.49,2.66c2.8,0,4.19-1.96,4.49-2.66C55,68.97,54.65,68.31,54.02,68.05z" fill="#DBA689"/>
                <g>
                  <ellipse cx="34.96" cy="58.87" fill="#312D2D" rx="4.87" ry="5.04"/>
                  <ellipse cx="65.45" cy="58.87" fill="#312D2D" rx="4.87" ry="5.04"/>
                  <radialGradient id="SVGID_14_" cx="33.9552" cy="49.3334" gradientUnits="userSpaceOnUse" r="5.5998">
                    <stop offset="0.0905" style="stop-color:#454140"/>
                    <stop offset="1" style="stop-color:#454140"/>
                  </radialGradient>
                  <path d="M41.19,49.82c-0.93-1.23-3.07-3.01-7.23-3.01s-6.31,1.79-7.23,3.01 c-0.41,0.54-0.31,1.17-0.02,1.55c0.26,0.35,1.04,0.68,1.9,0.39c0.86-0.29,2.54-1.16,5.35-1.18 c2.81,0.02,4.49,0.89,5.35,1.18c0.86,0.29,1.64-0.03,1.9-0.39C41.49,50.99,41.6,50.36,41.19,49.82z" fill="url(#SVGID_14_)"/>
                  <radialGradient id="SVGID_15_" cx="66.4502" cy="49.3334" gradientUnits="userSpaceOnUse" r="5.5998">
                    <stop offset="0.0905" style="stop-color:#454140"/>
                    <stop offset="1" style="stop-color:#454140"/>
                  </radialGradient>
                  <path d="M73.68,49.82c-0.93-1.23-3.07-3.01-7.23-3.01s-6.31,1.79-7.23,3.01 c-0.41,0.54-0.31,1.17-0.02,1.55c0.26,0.35,1.04,0.68,1.9,0.39c0.86-0.29,2.54-1.16,5.35-1.18 c2.81,0.02,4.49,0.89,5.35,1.18c0.86,0.29,1.64-0.03,1.9-0.39C73.99,50.99,74.09,50.36,73.68,49.82z" fill="url(#SVGID_15_)"/>
                </g>
                <path d="M58.27,76.14c-3.15,1.87-13.46,1.87-16.61,0c-1.81-1.07-3.65,0.57-2.9,2.21 c0.74,1.61,6.37,5.36,11.23,5.36s10.42-3.75,11.16-5.36C61.9,76.71,60.08,75.06,58.27,76.14z" fill="#424242"/>
              </g>
            </g>
            <g>
              <defs>
                <path id="SVGID_16_" d="M16.18,88.85L15.56,39c0-16.95,14.66-31.83,31.61-31.83h4.93c16.95,0,32.33,14.51,32.33,31.46 l-1.07,49.96L16.18,88.85z"/>
              </defs>
              <clipPath id="SVGID_17_">
                <use overflow="visible" xlink:href="#SVGID_16_"/>
              </clipPath>
              <g clip-path="url(#SVGID_17_)">
                <radialGradient id="SVGID_18_" cx="-23.1555" cy="-123.134" gradientTransform="matrix(0.796 0 0 0.796 68.2045 97.5973)" gradientUnits="userSpaceOnUse" r="48.2064">
                  <stop offset="0" style="stop-color:#454140"/>
                  <stop offset="1" style="stop-color:#312D2D"/>
                </radialGradient>
                <path d="M87.66,42.65c0,0,1.02-35.57-37.81-35.57S11.88,42.65,11.88,42.65s0.33,45.48,3.2,51.39 s7.2,5.71,7.2,5.71s-2.03-26.54-2.26-39.04c-0.06-2.92-0.94-13.73,5.16-15.09c22.36-5.02,35.01-16.89,35.01-16.89 c3.29,7.19,13.58,14.19,17.27,16.86c3.03,2.19,2.61,11.2,2.55,15.03l-3.05,39.06c0,0,4.68,0.37,7.65-5.64 C87.57,88.02,87.66,42.65,87.66,42.65z" fill="url(#SVGID_18_)"/>
              </g>
            </g>
          </g>
        </g>
      </g>
      <path clip-path="url(#SVGID_2_)" d="M78.7,21.68H21.3V6.34c0,0,7.49-2.28,28.78-2.28 C63.23,4.06,78.7,6.5,78.7,6.5V21.68z" fill="#423F3E" opacity="0.74"/>
      <g clip-path="url(#SVGID_2_)">
        <g>
          <linearGradient id="SVGID_19_" gradientUnits="userSpaceOnUse" x1="10" x2="10" y1="28.9521" y2="45.093">
            <stop offset="0" style="stop-color:#BDBDBD"/>
            <stop offset="1" style="stop-color:#757575"/>
          </linearGradient>
          <path d="M8,43.06c-1.65,0-3-1.35-3-3v-8c0-1.65,1.35-3,3-3h4c1.65,0,3,1.35,3,3v8c0,1.65-1.35,3-3,3H8z" fill="url(#SVGID_19_)"/>
          <path d="M12,30.06c1.1,0,2,0.9,2,2v8c0,1.1-0.9,2-2,2H8c-1.1,0-2-0.9-2-2v-8c0-1.1,0.9-2,2-2H12 M12,28.06H8 c-2.21,0-4,1.79-4,4v8c0,2.21,1.79,4,4,4h4c2.21,0,4-1.79,4-4v-8C16,29.85,14.21,28.06,12,28.06L12,28.06z" fill="#807978"/>
        </g>
        <g>
          <linearGradient id="SVGID_20_" gradientUnits="userSpaceOnUse" x1="90" x2="90" y1="28.9521" y2="45.093">
            <stop offset="0" style="stop-color:#BDBDBD"/>
            <stop offset="1" style="stop-color:#757575"/>
          </linearGradient>
          <path d="M88,43.06c-1.65,0-3-1.35-3-3v-8c0-1.65,1.35-3,3-3h4c1.65,0,3,1.35,3,3v8c0,1.65-1.35,3-3,3H88 z" fill="url(#SVGID_20_)"/>
          <path d="M92,30.06c1.1,0,2,0.9,2,2v8c0,1.1-0.9,2-2,2h-4c-1.1,0-2-0.9-2-2v-8c0-1.1,0.9-2,2-2H92 M92,28.06h-4 c-2.21,0-4,1.79-4,4v8c0,2.21,1.79,4,4,4h4c2.21,0,4-1.79,4-4v-8C96,29.85,94.21,28.06,92,28.06L92,28.06z" fill="#807978"/>
        </g>
        <g>
          <path d="M49.6,32.84c-13.33,0-31.05,6.41-39.1,10.97c0,0,0,5.77,0,9.88c7.55-6.43,22.78-11.47,39.1-11.47 c16.5,0,29.01,6.27,39.82,11.62c0.05-2.14,0.36-10.2-0.69-12.75C80.68,36.43,63.09,32.84,49.6,32.84z" fill="#807978"/>
          <g>
            <g>
              <linearGradient id="SVGID_21_" gradientUnits="userSpaceOnUse" x1="50" x2="50" y1="4.3949" y2="51.5642">
                <stop offset="0" style="stop-color:#BDBDBD"/>
                <stop offset="1" style="stop-color:#757575"/>
              </linearGradient>
              <path d="M89.96,31.59c-0.05-1.07-0.28-2.13-0.68-3.12l-7.8-19.35c-0.58-1.18-1.64-2.18-3.03-3.04 c-0.2-0.13-0.47,0.04-0.47,0.29v9.07c0,0.97-0.77,1.75-1.73,1.75H23.76c-0.96,0-1.73-0.78-1.73-1.75l0-9.25 c0-0.18-0.18-0.29-0.32-0.2c-1.46,0.88-2.57,1.91-3.17,3.13l-7.8,19.35c-0.4,0.99-0.63,2.05-0.68,3.12L6,56.2 c0,0,0.02,0.15,0.08,0.38c0.15,0.62,0.57,1.86,1.67,2.48c0,0,11.21-19.36,40.58-21.58c1.11-0.08,2.23-0.08,3.34,0 c29.37,2.22,40.58,21.58,40.58,21.58c1.1-0.62,1.52-1.86,1.67-2.48C93.98,56.35,94,56.2,94,56.2L89.96,31.59z" fill="url(#SVGID_21_)"/>
            </g>
            <g>
              <path d="M67.59,28.08L67.59,28.08c-0.55,0-1-0.34-1-0.76v-4.7c0-0.42,0.45-0.76,1-0.76h0 c0.55,0,1,0.34,1,0.76v4.7C68.59,27.74,68.14,28.08,67.59,28.08z" fill="#807978"/>
              <path d="M58.26,29.93L58.26,29.93c-0.55,0-1-0.34-1-0.76v-8.4c0-0.42,0.45-0.76,1-0.76h0 c0.55,0,1,0.34,1,0.76v8.4C59.26,29.59,58.82,29.93,58.26,29.93z" fill="#807978"/>
              <path d="M50,28.43L50,28.43c-0.55,0-1-0.34-1-0.76v-5.4c0-0.42,0.45-0.76,1-0.76h0c0.55,0,1,0.34,1,0.76v5.4 C51,28.09,50.55,28.43,50,28.43z" fill="#807978"/>
              <path d="M32.41,28.08L32.41,28.08c-0.55,0-1-0.34-1-0.76v-4.7c0-0.42,0.45-0.76,1-0.76l0,0 c0.55,0,1,0.34,1,0.76v4.7C33.41,27.74,32.96,28.08,32.41,28.08z" fill="#807978"/>
              <path d="M41.74,29.93L41.74,29.93c-0.55,0-1-0.34-1-0.76v-8.4c0-0.42,0.45-0.76,1-0.76h0 c0.55,0,1,0.34,1,0.76v8.4C42.73,29.59,42.29,29.93,41.74,29.93z" fill="#807978"/>
            </g>
            <g>
              <path d="M22.02,6.16C22.02,6.16,22.02,6.16,22.02,6.16c-0.03-0.11-0.12-0.19-0.22-0.19 c-0.03,0-0.07,0.01-0.1,0.03c-1.46,0.88-2.57,1.91-3.17,3.13l-7.8,19.35c-0.4,0.99-0.63,2.05-0.68,3.12L6,56.2 c0,0,0.02,0.15,0.08,0.38c0.15,0.62,0.58,1.86,1.67,2.48c0,0,0.75-1.28,2.35-3.21c0.18-0.22-0.22-2.29-0.31-4.21L13,32.08 c0.02-0.11,0.03-0.23,0.04-0.34c0.04-0.74,0.19-1.46,0.47-2.14l7.75-19.22c0.16-0.3,0.43-0.6,0.76-0.9V6.16z" fill="#807978"/>
              <path d="M89.96,31.59c-0.05-1.07-0.28-2.13-0.68-3.12l-7.8-19.35c-0.58-1.18-1.64-2.18-3.03-3.04 c-0.05-0.03-0.1-0.04-0.15-0.04c-0.08,0-0.24,0.03-0.3,0.09v3.44c0.28,0.27,0.61,0.54,0.75,0.8l7.75,19.22 c0.28,0.68,0.43,1.41,0.47,2.14c0.01,0.12,0.02,0.23,0.04,0.34l3.21,19.57c-0.35-0.37-0.73-0.76-1.13-1.15v4.38 c2.17,2.47,3.17,4.18,3.17,4.18c1.1-0.62,1.52-1.86,1.67-2.48C93.98,56.35,94,56.2,94,56.2L89.96,31.59z" fill="#807978"/>
            </g>
            <linearGradient id="SVGID_22_" gradientUnits="userSpaceOnUse" x1="50" x2="50" y1="33.3018" y2="59.2425">
              <stop offset="0" style="stop-color:#BDBDBD"/>
              <stop offset="1" style="stop-color:#757575"/>
            </linearGradient>
            <path d="M7.75,59.06c0,0,11.53-20.09,42.25-21.69c30.72,1.6,42.25,21.69,42.25,21.69 c1.1-0.62,1.52-1.86,1.67-2.48c-2.9-5.7-12.64-17.79-36.45-22.74c-3.44-0.72-11.33-0.72-14.77,0 C18.89,38.79,8.97,50.88,6.08,56.58C6.23,57.21,6.65,58.45,7.75,59.06z" fill="url(#SVGID_22_)"/>
          </g>
        </g>
      </g>
      <g clip-path="url(#SVGID_2_)">
        <polygon fill="#F5F5F5" points="39.44,104.56 59.33,104.56 50.01,130.61 "/>
        <g>
          <linearGradient id="SVGID_23_" gradientUnits="userSpaceOnUse" x1="37.3169" x2="37.3169" y1="97.0615" y2="125.167">
            <stop offset="0" style="stop-color:#1565C0"/>
            <stop offset="0.6821" style="stop-color:#0D47A1"/>
            <stop offset="1" style="stop-color:#0D47A1"/>
          </linearGradient>
          <path d="M36.83,109.27c-0.19-0.28-0.5-0.44-0.83-0.44c-0.12,0-0.25,0.02-0.37,0.07l-8.55,3.37 L33.8,97.8l6.36-0.74l7.39,28.11L36.83,109.27z" fill="url(#SVGID_23_)"/>
          <path d="M39.41,98.16l5.67,21.57l-7.43-11.01c-0.38-0.56-1.01-0.88-1.66-0.88c-0.25,0-0.49,0.05-0.73,0.14 l-6.22,2.46l5.42-11.7L39.41,98.16 M40.91,95.97l-7.78,0.91l-8,17.25L36,109.83l14.01,20.78L40.91,95.97L40.91,95.97z" fill="#004EA3"/>
        </g>
        <g>
          <linearGradient id="SVGID_24_" gradientTransform="matrix(-1 0 0 1 100.4718 0)" gradientUnits="userSpaceOnUse" x1="37.8038" x2="37.8038" y1="97.0615" y2="125.6299">
            <stop offset="0" style="stop-color:#1565C0"/>
            <stop offset="0.6821" style="stop-color:#0D47A1"/>
            <stop offset="1" style="stop-color:#0D47A1"/>
          </linearGradient>
          <path d="M59.89,97.06l6.36,0.74l6.69,14.43l-7.74-3.16c-0.12-0.05-0.25-0.07-0.38-0.07 c-0.31,0-0.62,0.15-0.81,0.42l-11.64,16.21L59.89,97.06z" fill="url(#SVGID_24_)"/>
          <path d="M60.64,98.16l4.94,0.58l5.39,11.62l-5.38-2.2c-0.25-0.1-0.5-0.15-0.76-0.15c-0.63,0-1.24,0.3-1.63,0.83 l-8.48,11.82L60.64,98.16 M59.15,95.97l-9.11,34.64L64.83,110l10.1,4.12l-8-17.25L59.15,95.97L59.15,95.97z" fill="#004EA3"/>
        </g>
      </g>
    </g>
  </g>
  <g id="Layer_2">
    <rect fill="none" height="88" width="96" x="-57.4" y="20.05"/>
  </g>
</svg>