<svg viewBox="0 0 128 128" xmlns="http://www.w3.org/2000/svg" xmlns:xlink="http://www.w3.org/1999/xlink">
  <g id="图层_1_copy_2">
    <g>
      <g>
        <defs>
          <rect id="SVGID_2_" height="120" width="120" x="4" y="4"/>
        </defs>
        <clipPath id="SVGID_3_">
          <use overflow="visible" xlink:href="#SVGID_2_"/>
        </clipPath>
        <g id="XMLID_58_" clip-path="url(#SVGID_3_)">
          <linearGradient id="SVGID_4_" gradientUnits="userSpaceOnUse" x1="64.2272" x2="64.2272" y1="77.2056" y2="122.0898">
            <stop offset="0" style="stop-color:#F78C1F"/>
            <stop offset="0.4936" style="stop-color:#F37F20"/>
            <stop offset="1" style="stop-color:#ED6D23"/>
          </linearGradient>
          <path d="M24.46,122.46c-1.33-0.34-10.33-2.83-13.71-7.62c-1.38-1.95-4.44-11.38,5.74-21.9 c13.69-14.16,44.08-15.1,47.5-15.16c0.03,0,0.07,0,0.1-0.01h0.28c0.03,0,0.07,0,0.1,0.01c3.42,0.06,33.8,1,47.5,15.16 c10.17,10.52,7.11,19.95,5.74,21.9c-3.39,4.8-12.39,7.28-13.71,7.62H24.46z" fill="url(#SVGID_4_)"/>
          <path d="M64.13,79.28l0.06,0c0.01,0,0.02,0,0.04,0s0.02,0,0.04,0l0.06,0c0.04,0,0.08,0,0.12,0 c3.36,0.06,33.17,0.98,46.45,14.7c9.36,9.68,6.74,18.36,5.59,19.99c-2.64,3.73-9.74,6.22-12.67,6.98h-39.1h-0.96h-39.1 c-2.93-0.76-10.02-3.23-12.67-6.98c-1.15-1.63-3.77-10.31,5.59-19.99c13.27-13.73,43.09-14.64,46.45-14.7 C64.05,79.28,64.09,79.28,64.13,79.28 M64.5,76.28c0,0-0.11,0-0.27,0c-0.16,0-0.27,0-0.27,0l0,0.01 c-4.33,0.08-34.54,1.13-48.55,15.62C5.2,102.46,7.4,112.7,9.52,115.71c4.01,5.68,14.75,8.25,14.75,8.25h39.47h0.96h39.47 c0,0,10.74-2.57,14.75-8.25c2.12-3,4.33-13.25-5.88-23.81C99.04,77.41,68.83,76.36,64.5,76.28L64.5,76.28L64.5,76.28z" fill="#DA6727"/>
        </g>
        <path id="XMLID_57_" clip-path="url(#SVGID_3_)" d="M84.27,95.19c-7.57-2.44-17.86-2.32-20.27-2.26 c-2.41-0.07-12.7-0.19-20.27,2.26c-15.19,4.91-16.99,11.12-16.99,11.12L50.4,124h13.34h0.08h0.18h0.01h0.18h0.08h13.34 l23.65-17.69C101.27,106.31,99.47,100.1,84.27,95.19z" opacity="0.2"/>
        <g id="XMLID_52_" clip-path="url(#SVGID_3_)">
          <line id="XMLID_56_" fill="none" stroke="#444444" stroke-linecap="round" stroke-miterlimit="10" stroke-width="4" x1="52.56" x2="49.86" y1="15.99" y2="5.9"/>
          <line id="XMLID_55_" fill="none" stroke="#444444" stroke-linecap="round" stroke-miterlimit="10" stroke-width="4" x1="36.96" x2="30.3" y1="22.58" y2="16.04"/>
          <line id="XMLID_54_" fill="none" stroke="#444444" stroke-linecap="round" stroke-miterlimit="10" stroke-width="4" x1="90.31" x2="97.7" y1="23.42" y2="16.04"/>
          <line id="XMLID_53_" fill="none" stroke="#444444" stroke-linecap="round" stroke-miterlimit="10" stroke-width="4" x1="75.44" x2="78.14" y1="15.99" y2="5.9"/>
        </g>
        <rect clip-path="url(#SVGID_3_)" fill="none" height="120" width="120" x="4" y="12"/>
        <g id="XMLID_45_" clip-path="url(#SVGID_3_)">
          <g id="XMLID_49_">
            <g id="XMLID_50_">
              <linearGradient id="SVGID_5_" gradientUnits="userSpaceOnUse" x1="35.1007" x2="62.4913" y1="118.7176" y2="118.7176">
                <stop offset="0" style="stop-color:#FFB300"/>
                <stop offset="0.102" style="stop-color:#FFB809"/>
                <stop offset="0.3707" style="stop-color:#FFC21A"/>
                <stop offset="0.6592" style="stop-color:#FFC825"/>
                <stop offset="1" style="stop-color:#FFCA28"/>
              </linearGradient>
              <path d="M35.1,122.98l2.53-8.52l4.58,0.3c1.18,0,2.29,0.17,3.35,0.49c1.22,0.37,2.94,0.94,4.84,1.56 c3.83,1.26,8.17,2.69,11.05,3.42c0.61,0.16,1.04,0.71,1.04,1.35c0,0.77-0.63,1.4-1.4,1.4H35.1z" fill="url(#SVGID_5_)"/>
              <path d="M38.36,115.51l3.78,0.25c0.04,0,0.09,0,0.13,0c1.02,0,2.02,0.15,2.99,0.44 c1.21,0.37,2.97,0.95,4.83,1.56c3.84,1.26,8.2,2.69,11.11,3.43c0.17,0.04,0.29,0.2,0.29,0.38c0,0.22-0.18,0.4-0.4,0.4H36.44 L38.36,115.51 M36.9,113.41l-3.14,10.57h27.33c1.32,0,2.4-1.07,2.4-2.4c0-1.09-0.74-2.05-1.8-2.32 c-4.31-1.1-12.25-3.87-15.85-4.97c-1.16-0.35-2.36-0.53-3.57-0.53L36.9,113.41L36.9,113.41z" fill="#EDA600"/>
            </g>
          </g>
          <g id="XMLID_46_">
            <g id="XMLID_47_">
              <linearGradient id="SVGID_6_" gradientUnits="userSpaceOnUse" x1="65.5255" x2="92.9161" y1="118.7171" y2="118.7171">
                <stop offset="0" style="stop-color:#FFB300"/>
                <stop offset="0.102" style="stop-color:#FFB809"/>
                <stop offset="0.3707" style="stop-color:#FFC21A"/>
                <stop offset="0.6592" style="stop-color:#FFC825"/>
                <stop offset="1" style="stop-color:#FFCA28"/>
              </linearGradient>
              <path d="M66.92,122.98c-0.77,0-1.4-0.63-1.4-1.4c0-0.64,0.43-1.2,1.04-1.35 c2.88-0.73,7.22-2.16,11.05-3.42c1.9-0.63,3.62-1.19,4.84-1.56c1.06-0.32,2.17-0.49,3.28-0.49l4.64-0.31l2.53,8.52H66.92z" fill="url(#SVGID_6_)"/>
              <path d="M89.66,115.51l1.92,6.47H66.92c-0.22,0-0.4-0.18-0.4-0.4c0-0.18,0.12-0.34,0.29-0.38 c2.91-0.74,7.27-2.17,11.11-3.43c1.86-0.61,3.62-1.19,4.83-1.56c0.97-0.3,1.97-0.44,2.99-0.44c0.04,0,0.09,0,0.13,0 L89.66,115.51 M91.12,113.41l-5.37,0.36c-1.21,0-2.41,0.18-3.57,0.53c-3.6,1.1-11.54,3.87-15.85,4.97 c-1.06,0.27-1.8,1.23-1.8,2.32c0,1.32,1.07,2.4,2.4,2.4h27.33L91.12,113.41L91.12,113.41z" fill="#EDA600"/>
            </g>
          </g>
        </g>
        <g id="XMLID_43_" clip-path="url(#SVGID_3_)">
          <linearGradient id="SVGID_7_" gradientUnits="userSpaceOnUse" x1="31.7878" x2="31.7878" y1="75.6667" y2="123.5647">
            <stop offset="0" style="stop-color:#F78C1F"/>
            <stop offset="0.4936" style="stop-color:#F37F20"/>
            <stop offset="1" style="stop-color:#ED6D23"/>
          </linearGradient>
          <path d="M23.89,100.01l14.93,9.98c0.78,0.52,1.07,1.53,0.69,2.39L34.29,124l-10.02,0L23.89,100.01z" fill="url(#SVGID_7_)"/>
        </g>
        <g id="XMLID_40_" clip-path="url(#SVGID_3_)">
          <g id="XMLID_41_">
            <linearGradient id="SVGID_8_" gradientUnits="userSpaceOnUse" x1="-31.9999" x2="-31.9999" y1="50.2464" y2="110.9369">
              <stop offset="0" style="stop-color:#00BFA5"/>
              <stop offset="0.7047" style="stop-color:#00B29A"/>
              <stop offset="1" style="stop-color:#00AB94"/>
            </linearGradient>
            <path d="M-63,110.92V71.8c0-9.55,7.51-17.04,20.09-20.03c4.32-1.03,8.42-1.52,12.54-1.52 c2.87,0,5.8,0.25,8.69,0.75C-11.68,52.72-1,59.09-1,71.8v39.14L-63,110.92z" fill="url(#SVGID_8_)"/>
            <path d="M-30.37,51.25c2.82,0,5.69,0.25,8.53,0.74C-12.25,53.64-2,59.71-2,71.8v38.14l-60-0.01l0-38.12 c0-9.06,7.22-16.18,19.33-19.05C-38.43,51.74-34.4,51.25-30.37,51.25 M-30.37,49.25c-4.4,0-8.62,0.57-12.77,1.55 C-54.37,53.46-64,60.43-64,71.8l0,40.12l64,0.02V71.8c0-12.28-9.62-19.73-21.5-21.78C-24.55,49.49-27.49,49.25-30.37,49.25 L-30.37,49.25z" fill="#009984"/>
          </g>
        </g>
        <g clip-path="url(#SVGID_3_)">
          <defs>
            <path id="XMLID_37_" d="M23.89,100.01l14.93,9.98c0.78,0.52,1.07,1.53,0.69,2.39L34.29,124l-9.89,0.04l-0.9-0.31l0.08-3.06 l0.75,0.22l2.95,0.13l6.6-10.72l-9.9-6.64L23.89,100.01z"/>
          </defs>
          <clipPath id="XMLID_4_">
            <use overflow="visible" xlink:href="#XMLID_37_"/>
          </clipPath>
          <g id="XMLID_38_" clip-path="url(#XMLID_4_)">
            <path d="M26.98,105.68l9.42,6.29L32.35,121h-5.12L26.98,105.68 M23.89,100.01L24.28,124h10.02l5.22-11.63 c0.38-0.86,0.1-1.87-0.69-2.39L23.89,100.01L23.89,100.01z" fill="#DA6727"/>
          </g>
        </g>
        <g id="XMLID_35_" clip-path="url(#SVGID_3_)">
          <linearGradient id="SVGID_9_" gradientTransform="matrix(-1 0 0 1 158.2423 0)" gradientUnits="userSpaceOnUse" x1="62.0378" x2="62.0378" y1="75.6667" y2="123.5647">
            <stop offset="0" style="stop-color:#F78C1F"/>
            <stop offset="0.4936" style="stop-color:#F37F20"/>
            <stop offset="1" style="stop-color:#ED6D23"/>
          </linearGradient>
          <path d="M104.1,100.01l-14.93,9.98c-0.78,0.52-1.07,1.53-0.69,2.39L93.7,124l10.02,0L104.1,100.01z" fill="url(#SVGID_9_)"/>
        </g>
        <g clip-path="url(#SVGID_3_)">
          <defs>
            <path id="XMLID_7_" d="M104.1,100.01l-14.93,9.98c-0.78,0.52-1.07,1.53-0.69,2.39L93.7,124l10.44-0.08l0.04-2.98l-3.92,0.1 l-6.08-10.74l10.4-7.23L104.1,100.01z"/>
          </defs>
          <clipPath id="XMLID_5_">
            <use overflow="visible" xlink:href="#XMLID_7_"/>
          </clipPath>
          <g id="XMLID_33_" clip-path="url(#XMLID_5_)">
            <path d="M101.01,105.68L100.76,121h-5.12l-4.05-9.03L101.01,105.68 M104.1,100.01L104.1,100.01L104.1,100.01z M104.1,100.01l-14.93,9.98c-0.78,0.52-1.07,1.53-0.69,2.39L93.7,124h10.02L104.1,100.01L104.1,100.01z" fill="#DA6727"/>
          </g>
        </g>
      </g>
      <g id="XMLID_2_">
        <path d="M63.17,104.23c-4,0-7.26-3.22-7.26-7.17v-8.98h16.16v8.98c0,3.95-3.26,7.17-7.26,7.17H63.17z" fill="#E59600"/>
        <path d="M71.08,89.08v7.98c0,3.4-2.81,6.17-6.26,6.17h-1.65c-3.45,0-6.26-2.77-6.26-6.17v-7.98H64H71.08 M73.08,87.08H64h-9.08v9.98c0,4.51,3.7,8.17,8.26,8.17h1.65c4.56,0,8.26-3.66,8.26-8.17V87.08L73.08,87.08z" fill="#D18100"/>
      </g>
      <g>
        <defs>
          <rect id="SVGID_10_" height="89.04" width="87.42" x="20.29" y="10.5"/>
        </defs>
        <clipPath id="SVGID_11_">
          <use overflow="visible" xlink:href="#SVGID_10_"/>
        </clipPath>
        <g clip-path="url(#SVGID_11_)">
          <path d="M34.65,46.83c-7,2.67-14.16,12.92-12.12,22.5c2.15,10.12,9.27,10.75,10.02,14.5 c0.55,2.77-0.88,5.25-0.88,5.25s8.13,2.75,12.38-4.38c1.83-3.07,9.97-16.71,6.38-21.25L34.65,46.83z" fill="#543930"/>
          <path d="M93.35,46.83c7,2.67,14.16,12.92,12.12,22.5c-2.15,10.12-9.27,10.75-10.02,14.5 c-0.55,2.77,0.88,5.25,0.88,5.25s-8.12,2.75-12.38-4.38c-1.83-3.07-9.97-16.71-6.38-21.25L93.35,46.83z" fill="#543930"/>
        </g>
        <g clip-path="url(#SVGID_11_)">
          <path d="M35.65,46.83c-7,2.67-14.16,12.92-12.12,22.5 c2.15,10.12,9.27,10.75,10.02,14.5c0.55,2.77-0.88,5.25-0.88,5.25s8.12,2.75,12.38-4.38c1.83-3.07,9.97-16.71,6.38-21.25 L35.65,46.83z" fill="none" stroke="#402720" stroke-miterlimit="10" stroke-width="3"/>
          <path d="M92.35,46.83c7,2.67,14.16,12.92,12.12,22.5 c-2.15,10.12-9.27,10.75-10.02,14.5c-0.55,2.77,0.88,5.25,0.88,5.25s-8.12,2.75-12.38-4.38c-1.83-3.07-9.97-16.71-6.38-21.25 L92.35,46.83z" fill="none" stroke="#402720" stroke-miterlimit="10" stroke-width="3"/>
        </g>
        <g clip-path="url(#SVGID_11_)">
          <g>
            <path d="M37.83,79.35c-5.11,0-9.26-4.01-9.26-8.94s4.15-8.94,9.26-8.94h52.33c5.1,0,9.26,4.01,9.26,8.94 s-4.15,8.94-9.26,8.94H37.83z" fill="#E59600"/>
            <path d="M90.17,62.47c4.55,0,8.26,3.56,8.26,7.94s-3.7,7.94-8.26,7.94h-7.06H44.89h-7.06 c-4.55,0-8.26-3.56-8.26-7.94s3.7-7.94,8.26-7.94h7.06h38.22H90.17 M90.17,60.47h-7.06H44.89h-7.06 c-5.64,0-10.26,4.47-10.26,9.94s4.62,9.94,10.26,9.94h7.06h38.22h7.06c5.64,0,10.26-4.47,10.26-9.94S95.81,60.47,90.17,60.47 L90.17,60.47z" fill="#CC8600"/>
          </g>
          <g>
            <linearGradient id="SVGID_12_" gradientUnits="userSpaceOnUse" x1="64.0001" x2="64.0001" y1="97.9324" y2="26.9656">
              <stop offset="0" style="stop-color:#FFB300"/>
              <stop offset="0.102" style="stop-color:#FFB809"/>
              <stop offset="0.3707" style="stop-color:#FFC21A"/>
              <stop offset="0.6592" style="stop-color:#FFC825"/>
              <stop offset="1" style="stop-color:#FFCA28"/>
            </linearGradient>
            <path d="M64,98.52c-8.21,0-15.82-2.97-21.43-8.36c-6.33-6.08-9.67-14.83-9.67-25.32 c0-10.74,3.4-20.64,9.56-27.87C48.25,30.2,56.09,26.31,64,26.31s15.75,3.89,21.54,10.67c6.17,7.23,9.56,17.13,9.56,27.87 c0,10.48-3.34,19.24-9.67,25.32C79.82,95.55,72.21,98.52,64,98.52z" fill="url(#SVGID_12_)"/>
            <path d="M64,27.31L64,27.31c7.61,0,15.18,3.76,20.78,10.32c6.01,7.05,9.32,16.72,9.32,27.22 c0,10.2-3.24,18.71-9.36,24.6c-5.42,5.21-12.78,8.08-20.74,8.08c-7.95,0-15.32-2.87-20.74-8.08 c-6.12-5.89-9.36-14.39-9.36-24.6c0-10.5,3.31-20.17,9.32-27.22C48.82,31.07,56.39,27.31,64,27.31 M64,25.31L64,25.31 L64,25.31c-16.66,0-32.1,16.21-32.1,39.54c0,23.2,15.9,34.67,32.1,34.67s32.1-11.47,32.1-34.67 C96.1,41.52,80.66,25.31,64,25.31L64,25.31z" fill="#EDA600"/>
          </g>
          <path d="M67.7,83.76c-0.1-0.04-0.2-0.06-0.31-0.07h-6.77c-0.1,0.01-0.21,0.03-0.31,0.07 c-0.61,0.23-0.95,0.81-0.66,1.42c0.29,0.62,1.64,2.35,4.36,2.35c2.72,0,4.07-1.73,4.36-2.35C68.65,84.57,68.31,83.99,67.7,83.76 z" fill="#E59600"/>
          <g>
            <ellipse cx="47.56" cy="74.81" fill="#404040" rx="4.93" ry="4"/>
            <ellipse cx="80.44" cy="74.81" fill="#404040" rx="4.93" ry="4"/>
            <path d="M54.98,65.82c-0.93-1.23-3.07-3.01-7.23-3.01s-6.31,1.79-7.23,3.01c-0.41,0.54-0.31,1.17-0.02,1.55 c0.26,0.35,1.04,0.68,1.9,0.39c0.86-0.29,2.54-1.16,5.35-1.18c2.81,0.02,4.49,0.89,5.35,1.18c0.86,0.29,1.64-0.03,1.9-0.39 C55.29,66.99,55.39,66.36,54.98,65.82z" fill="#6D4C41"/>
            <path d="M87.48,65.82c-0.93-1.23-3.07-3.01-7.23-3.01s-6.31,1.79-7.23,3.01c-0.41,0.54-0.31,1.17-0.02,1.55 c0.26,0.35,1.04,0.68,1.9,0.39c0.86-0.29,2.54-1.16,5.35-1.18c2.81,0.02,4.49,0.89,5.35,1.18c0.86,0.29,1.64-0.03,1.9-0.39 C87.79,66.99,87.89,66.36,87.48,65.82z" fill="#6D4C41"/>
          </g>
          <g>
            <radialGradient id="SVGID_13_" cx="63.9317" cy="31.3077" gradientTransform="matrix(0.9577 0 0 1 2.6722 0)" gradientUnits="userSpaceOnUse" r="35.1017">
              <stop offset="0" style="stop-color:#6D4C41"/>
              <stop offset="1" style="stop-color:#543930"/>
            </radialGradient>
            <path d="M62.97,22.21c-14.52,4.5-14.84-5.62-14.84-5.62s-6.22,2.62-4.19,9.38c0,0-6.34-1.12-10.77,5.38 C29.7,36.41,31,41.83,31,41.83s-5.63,1-6.46,8c-0.76,6.35,4.07,9,4.07,9c1.08,3.75,2.22,4.44,2.22,4.44s-0.12,7.57,2.44,12.31 c0,0,3.2-8.83,4.92-12.69c7.66,0.69,17-1.81,24.54-7.31c2.33-1.7,8.1-4.15,10.93-4.42c7.1-0.67,9.36,6.06,9.36,6.06 s5.25-0.56,7.49,3.5c1.46,2.64,3.95,15.18,3.95,15.18s2.37-6.22,2.91-12.41c0,0,8.5-6.91,6.78-16.72 c-2.07-11.83-12.38-10.12-12.38-10.12S85.32,15.28,62.97,22.21z" fill="url(#SVGID_13_)"/>
          </g>
          <path d="M27.22,56.97c-0.91-1.21-1.93-3.29-1.61-5.96c0.69-5.75,5.06-6.67,5.24-6.7l1.57-0.28l-0.37-1.55 c-0.01-0.05-1.11-4.83,1.93-9.3c3.79-5.57,9.06-4.78,9.27-4.74l2.4,0.43l-0.7-2.34c-1.02-3.37,0.44-5.44,1.74-6.54 c0.46,1.31,1.34,2.91,3.04,4.12c3.01,2.15,7.47,2.33,13.25,0.54c20.61-6.39,25.88,12.4,25.88,12.4s9.9-1.46,13.29,8.7 c1.66,4.97-0.87,12.71-0.87,12.71c1.22,1.88,1.84,4.75,1.84,4.75s5.27-9.36,2.34-18.75c-3.44-11.02-13.92-11.04-13.92-11.04 c-1.67-4.03-8.77-18.05-29.45-11.64c-4.75,1.47-8.5,1.55-10.59-0.09c-3.23-2.54-2.92-6.04-2.92-6.04s-8.16,2-6.92,9.76 c-2.53,0.15-6.83,1.2-10.16,6.08c-2.73,4-2.79,8.17-2.59,10.29c-2.42,0.99-5.77,3.58-6.28,8.88c-0.5,5.19,3.18,9.08,3.18,9.08 C26.44,58.01,27.22,56.97,27.22,56.97z" fill="#402720"/>
        </g>
      </g>
    </g>
  </g>
</svg>