<svg viewBox="0 0 128 128" xmlns="http://www.w3.org/2000/svg" xmlns:xlink="http://www.w3.org/1999/xlink">
  <g>
    <defs>
      <rect id="SVGID_1_" height="120" width="120" x="4" y="4"/>
    </defs>
    <clipPath id="SVGID_2_">
      <use overflow="visible" xlink:href="#SVGID_1_"/>
    </clipPath>
    <rect clip-path="url(#SVGID_2_)" fill="#BDBDBD" height="120" width="120" x="4" y="4"/>
  </g>
  <g>
    <defs>
      <rect id="SVGID_3_" height="120" width="120" x="4" y="4"/>
    </defs>
    <clipPath id="SVGID_4_">
      <use overflow="visible" xlink:href="#SVGID_3_"/>
    </clipPath>
    <g clip-path="url(#SVGID_4_)">
      <linearGradient id="SVGID_5_" gradientTransform="matrix(-0.999 0.0437 0.0387 0.885 -872.644 -643.8505)" gradientUnits="userSpaceOnUse" x1="-879.5543" x2="-879.5543" y1="770.0399" y2="812.4062">
        <stop offset="0.2636" style="stop-color:#E0E0E0"/>
        <stop offset="0.9182" style="stop-color:#9E9E9E"/>
      </linearGradient>
      <path d="M7.3,23.21c0.47-0.02,0.94-0.01,1.4,0.02c-0.41-1.06-0.66-2.19-0.71-3.37 c-0.29-6.58,5.5-12.17,12.92-12.5c3.16-0.14,6.1,0.71,8.47,2.22c2.86-5.32,8.85-9.13,15.93-9.44 c10.18-0.44,18.75,6.5,19.15,15.52c0.01,0.32,0.01,0.65,0.01,0.97c7.71,0.5,13.91,6.03,14.21,13.05 c0.33,7.51-9.06,13.56-38.9,14.86S-3.9,40.12-4.15,34.29C-4.41,28.45,0.72,23.49,7.3,23.21z" fill="url(#SVGID_5_)"/>
    </g>
  </g>
  <g>
    <defs>
      <rect id="SVGID_6_" height="120" width="120" x="4" y="4"/>
    </defs>
    <clipPath id="SVGID_7_">
      <use overflow="visible" xlink:href="#SVGID_6_"/>
    </clipPath>
    <g clip-path="url(#SVGID_7_)">
      <linearGradient id="SVGID_8_" gradientTransform="matrix(0.999 0.0437 -0.0387 0.885 1.1687 -643.8505)" gradientUnits="userSpaceOnUse" x1="114.8442" x2="114.8442" y1="730.8734" y2="787.0786">
        <stop offset="0.2636" style="stop-color:#E0E0E0"/>
        <stop offset="0.9182" style="stop-color:#9E9E9E"/>
      </linearGradient>
      <path d="M125.42,30.4c-0.62-0.03-1.23-0.01-1.83,0.02c0.53-1.39,0.86-2.87,0.93-4.42 c0.38-8.62-7.21-15.96-16.95-16.39c-4.14-0.18-8,0.93-11.1,2.92C92.72,5.55,84.86,0.56,75.58,0.15 C62.23-0.43,50.99,8.68,50.47,20.51c-0.02,0.43-0.02,0.85-0.01,1.27c-10.11,0.65-18.23,7.9-18.64,17.11 C31.4,48.74,43.7,56.66,82.83,58.38c39.13,1.71,57.28-5.8,57.61-13.45C140.78,37.28,134.05,30.78,125.42,30.4z" fill="url(#SVGID_8_)"/>
    </g>
  </g>
  <g>
    <defs>
      <rect id="SVGID_9_" height="120" width="120" x="4" y="4"/>
    </defs>
    <clipPath id="SVGID_10_">
      <use overflow="visible" xlink:href="#SVGID_9_"/>
    </clipPath>
    <g clip-path="url(#SVGID_10_)">
      <linearGradient id="SVGID_11_" gradientTransform="matrix(0.999 0.0437 -0.0387 0.885 1.1687 -643.8505)" gradientUnits="userSpaceOnUse" x1="55.6534" x2="55.6534" y1="758.7966" y2="801.6606">
        <stop offset="0.2636" style="stop-color:#E0E0E0"/>
        <stop offset="0.9182" style="stop-color:#9E9E9E"/>
      </linearGradient>
      <path d="M56.22,47.21c-0.47-0.02-0.94-0.01-1.4,0.02c0.41-1.06,0.66-2.19,0.71-3.37 c0.29-6.58-5.5-12.17-12.92-12.5c-3.16-0.14-6.1,0.71-8.47,2.22c-2.86-5.32-8.85-9.13-15.93-9.44 C8.03,23.7-0.54,30.65-0.93,39.66c-0.01,0.32-0.01,0.65-0.01,0.97c-7.71,0.5-13.91,6.03-14.21,13.05 c-0.33,7.51,9.06,13.56,38.9,14.86s43.68-4.43,43.94-10.26C67.93,52.45,62.8,47.49,56.22,47.21z" fill="url(#SVGID_11_)"/>
    </g>
  </g>
  <g>
    <defs>
      <rect id="SVGID_12_" height="120" width="120" x="4" y="4"/>
    </defs>
    <clipPath id="SVGID_13_">
      <use overflow="visible" xlink:href="#SVGID_12_"/>
    </clipPath>
    <g clip-path="url(#SVGID_13_)">
      <linearGradient id="SVGID_14_" gradientTransform="matrix(0.999 0.0437 -0.0387 0.885 1.1687 -643.8505)" gradientUnits="userSpaceOnUse" x1="152.2171" x2="152.2171" y1="796.9686" y2="839.8356">
        <stop offset="0.2636" style="stop-color:#E0E0E0"/>
        <stop offset="0.9182" style="stop-color:#9E9E9E"/>
      </linearGradient>
      <path d="M151.22,85.21c-0.47-0.02-0.94-0.01-1.4,0.02c0.41-1.06,0.66-2.19,0.71-3.37 c0.29-6.58-5.5-12.17-12.92-12.5c-3.16-0.14-6.1,0.71-8.47,2.22c-2.86-5.32-8.85-9.13-15.93-9.44 c-10.18-0.44-18.75,6.5-19.15,15.52c-0.01,0.32-0.01,0.65-0.01,0.97c-7.71,0.5-13.91,6.03-14.21,13.05 c-0.33,7.51,9.06,13.56,38.9,14.86s43.68-4.43,43.94-10.26C162.93,90.45,157.8,85.49,151.22,85.21z" fill="url(#SVGID_14_)"/>
    </g>
  </g>
  <g>
    <defs>
      <rect id="SVGID_15_" height="120" width="120" x="4" y="4"/>
    </defs>
    <clipPath id="SVGID_16_">
      <use overflow="visible" xlink:href="#SVGID_15_"/>
    </clipPath>
    <ellipse clip-path="url(#SVGID_16_)" cx="88.33" cy="60.67" fill="#EEEEEE" rx="30" ry="27"/>
  </g>
  <g>
    <defs>
      <rect id="SVGID_17_" height="120" width="120" x="4" y="4"/>
    </defs>
    <clipPath id="SVGID_18_">
      <use overflow="visible" xlink:href="#SVGID_17_"/>
    </clipPath>
    <circle clip-path="url(#SVGID_18_)" cx="47.67" cy="58.33" fill="#EEEEEE" r="29"/>
  </g>
  <g>
    <defs>
      <rect id="SVGID_19_" height="120" width="120" x="4" y="4"/>
    </defs>
    <clipPath id="SVGID_20_">
      <use overflow="visible" xlink:href="#SVGID_19_"/>
    </clipPath>
    <linearGradient id="SVGID_21_" gradientTransform="matrix(1 0 0 1 0 -662)" gradientUnits="userSpaceOnUse" x1="58.175" x2="58.175" y1="712.032" y2="787.55">
      <stop offset="0.2636" style="stop-color:#E0E0E0"/>
      <stop offset="0.9182" style="stop-color:#9E9E9E"/>
    </linearGradient>
    <path clip-path="url(#SVGID_20_)" d="M88.22,73.37c-3.46,0-6.79,0.51-9.92,1.44 c-1.38-12.99-13.28-23.14-27.76-23.14c-9.36,0-17.65,4.25-22.7,10.77c-1.09-0.12-2.2-0.18-3.32-0.18 c-15.8,0-28.61,11.79-28.61,26.34s12.81,26.34,28.61,26.34c10.05,0,18.88-4.77,23.99-11.99c0.67,0.04,1.35,0.08,2.04,0.08 c1.88,0,3.71-0.17,5.48-0.5c0,0.17-0.01,0.33-0.01,0.5c0,16.37,14.42,29.65,32.21,29.65s32.21-13.27,32.21-29.65 C120.43,86.65,106.01,73.37,88.22,73.37z" fill="url(#SVGID_21_)"/>
  </g>
  <g>
    <defs>
      <rect id="SVGID_22_" height="120" width="120" x="4" y="4"/>
    </defs>
    <clipPath id="SVGID_23_">
      <use overflow="visible" xlink:href="#SVGID_22_"/>
    </clipPath>
    <path clip-path="url(#SVGID_23_)" d="M111.14,102.73c-3.36,0-6.56,0.64-9.51,1.79 c-4.61-8.94-15.29-15.69-28.18-16.68c-14.33-1.11-27.05,5.23-32.17,14.99c-1.35-0.2-2.73-0.31-4.14-0.31 c-15.33,0-27.76,12.43-27.76,27.76s12.43,27.76,27.76,27.76c12.62,0,23.26-8.42,26.64-19.95c1.85,0.41,3.76,0.7,5.72,0.85 c5.99,0.46,11.69-0.38,16.68-2.22c3.33,10.61,13.24,18.31,24.95,18.31c14.44,0,26.15-11.71,26.15-26.15 S125.58,102.73,111.14,102.73z" fill="#E0E0E0"/>
  </g>
  <g opacity="0.2">
    <path d="M121,7v114H7V7H121 M124,4H4v120h120V4L124,4z" fill="#424242"/>
  </g>
</svg>