<svg viewBox="0 0 128 128" xmlns="http://www.w3.org/2000/svg" xmlns:xlink="http://www.w3.org/1999/xlink">
  <g>
    <linearGradient id="SVGID_1_" gradientTransform="matrix(1 0 0 -1 0 130)" gradientUnits="userSpaceOnUse" x1="64.194" x2="64.194" y1="10.332" y2="121.6799">
      <stop offset="0" style="stop-color:#81C784"/>
      <stop offset="0.4141" style="stop-color:#6EBE71"/>
      <stop offset="1" style="stop-color:#4CAF50"/>
    </linearGradient>
    <path d="M109.53,56.95c-2.82,0-19.89,1.32-36.09,3.17c-0.09,0-0.18-0.09-0.09-0.18 c12.76-10.12,25.79-21.3,27.73-23.24c6.25-6.25,4.05-10.3,2.2-12.15c-3.08-3.08-7.57-2.38-12.15,2.2 c-1.94,1.94-13.12,14.96-23.24,27.73c-0.09,0.09-0.18,0-0.18-0.09c1.85-16.2,3.17-33.27,3.17-36.09c0-8.89-4.4-10.21-7.04-10.21 S56.8,9.42,56.8,18.31c0,2.82,1.32,19.89,3.17,36.09c0,0.09-0.09,0.18-0.18,0.09C49.93,41.9,38.76,28.87,36.82,26.85 c-4.67-4.67-9.07-5.28-12.15-2.2c-1.85,1.85-2.38,4.31-1.41,6.95c0.62,1.67,1.85,3.43,3.61,5.19 c1.94,1.94,14.96,13.12,27.73,23.24c0.09,0.09,0,0.18-0.09,0.18c-16.2-1.85-33.27-3.17-36.09-3.17 c-8.8-0.09-10.03,4.31-10.03,6.95s1.32,7.04,10.21,7.04c2.82,0,19.89-1.32,36.09-3.17c0.09,0,0.18,0.09,0.09,0.18 C41.84,78.08,28.9,89.26,26.87,91.19c-1.76,1.85-3.08,3.52-3.61,5.19c-0.97,2.55-0.44,5.11,1.41,6.95 c1.23,1.23,2.73,1.94,4.4,1.94c2.38,0,5.02-1.41,7.75-4.14c1.94-1.94,13.12-14.96,23.24-27.73c0.09-0.09,0.18,0,0.18,0.09 c-1.85,16.2-3.17,33.27-3.17,36.09c0,8.89,4.4,10.21,7.04,10.21c2.64,0,7.04-1.32,7.04-10.21c0-2.82-1.32-19.89-3.17-36.09 c0-0.09,0.09-0.18,0.18-0.09c10.12,12.76,21.3,25.79,23.24,27.73c2.73,2.73,5.37,4.14,7.75,4.14c1.67,0,3.17-0.7,4.4-1.94 c1.85-1.85,4.05-5.9-2.2-12.15c-1.94-1.94-14.96-13.12-27.73-23.24c-0.09-0.09,0-0.18,0.09-0.18c16.2,1.85,33.27,3.17,36.09,3.17 c8.89,0,10.21-4.4,10.21-7.04S118.42,56.95,109.53,56.95z" fill="url(#SVGID_1_)"/>
    <path d="M64.02,11c2.9,0,4.4,2.55,4.4,7.57 c0,2.38-1.23,19.28-3.17,35.74c-0.09,0.79,0.18,1.58,0.7,2.11c0.53,0.62,1.23,0.88,2.02,0.88c0.88,0,1.58-0.35,2.11-1.06 C80.3,43.31,91.39,30.46,93.15,28.7c2.11-2.11,4.23-3.34,5.99-3.34c0.88,0,1.76,0.35,2.46,1.06c2.02,2.02,1.32,4.84-2.2,8.45 c-1.76,1.76-14.61,12.85-27.55,23.06c-0.88,0.7-1.23,1.94-0.88,3.08c0.35,1.06,1.41,1.85,2.55,1.85c0.09,0,0.18,0,0.35,0 c16.37-1.94,33.27-3.17,35.74-3.17c1.85,0,7.48,0,7.48,4.4c0,2.9-2.55,4.4-7.57,4.4c-2.38,0-19.28-1.23-35.74-3.17 c-0.09,0-0.18,0-0.35,0c-1.14,0-2.2,0.7-2.55,1.85c-0.35,1.06,0,2.29,0.88,3.08c12.94,10.03,25.79,21.13,27.46,22.8 c3.52,3.52,4.31,6.34,2.2,8.45c-0.7,0.79-1.58,1.14-2.55,1.14c-1.67,0-3.7-1.14-5.9-3.34c-1.76-1.76-12.85-14.61-23.06-27.55 c-0.53-0.7-1.32-1.06-2.11-1.06s-1.5,0.35-2.02,0.88c-0.53,0.62-0.79,1.32-0.7,2.11c1.94,16.37,3.17,33.27,3.17,35.74 c0,5.02-1.5,7.48-4.4,7.48c-2.9,0-4.4-2.55-4.4-7.48c0-2.38,1.23-19.28,3.17-35.74c0.09-0.79-0.18-1.58-0.7-2.11 c-0.53-0.62-1.23-0.88-2.02-0.88c-0.88,0-1.58,0.35-2.11,1.06c-10.3,13.03-21.3,25.79-23.06,27.55c-2.2,2.2-4.23,3.34-5.9,3.34 c-0.97,0-1.76-0.35-2.55-1.14c-1.14-1.14-1.41-2.46-0.79-4.14c0.44-1.23,1.5-2.73,3.08-4.23c1.76-1.76,14.52-12.76,27.55-23.06 c0.88-0.7,1.23-1.94,0.88-3.08c-0.35-1.06-1.41-1.85-2.55-1.85c-0.09,0-0.18,0-0.35,0c-16.28,1.94-33.18,3.26-35.56,3.26 c-5.02,0-7.57-1.5-7.57-4.4c0-2.9,2.55-4.4,7.57-4.4c2.38,0,19.28,1.23,35.74,3.17c0.09,0,0.18,0,0.35,0c1.14,0,2.2-0.7,2.55-1.85 c0.35-1.06,0-2.29-0.88-3.08C43.24,47.62,30.48,36.62,28.81,34.95c-1.5-1.5-2.55-2.99-3.08-4.31c-0.62-1.67-0.35-2.99,0.79-4.14 c0.7-0.7,1.58-1.06,2.46-1.06c1.67,0,3.78,1.14,5.99,3.34c1.76,1.76,12.76,14.61,23.06,27.55c0.53,0.7,1.32,1.06,2.11,1.06 c0.79,0,1.5-0.35,2.02-0.88c0.53-0.62,0.79-1.32,0.7-2.11c-1.94-16.46-3.17-33.36-3.17-35.74C59.7,13.47,61.11,11,64.02,11 M64.02,8.36c-2.64,0-7.04,1.32-7.04,10.21c0,2.82,1.32,19.89,3.17,36.09c0,0.09,0,0.09-0.09,0.09h-0.09 C49.93,41.9,38.76,28.87,36.82,26.85c-2.73-2.73-5.46-4.14-7.83-4.14c-1.58,0-3.08,0.62-4.31,1.85c-1.85,1.85-2.38,4.31-1.41,6.95 c0.62,1.67,1.85,3.43,3.61,5.19c1.94,1.94,14.96,13.12,27.73,23.24c0.09,0.09,0,0.18-0.09,0.18l0,0 c-16.2-1.85-33.27-3.17-36.09-3.17c-8.8,0-10.12,4.4-10.12,7.04s1.32,7.04,10.21,7.04c2.82,0,19.89-1.32,36.09-3.17l0,0 c0.09,0,0.18,0.09,0.09,0.18C41.84,78.08,28.9,89.26,26.87,91.19c-1.76,1.76-2.99,3.52-3.61,5.19c-0.97,2.64-0.44,5.11,1.41,6.95 c1.23,1.23,2.73,1.94,4.4,1.94c2.38,0,5.02-1.41,7.75-4.14c1.94-1.94,13.12-14.96,23.24-27.73h0.09c0.09,0,0.09,0.09,0.09,0.09 c-1.85,16.2-3.17,33.27-3.17,36.09c0,8.8,4.4,10.12,7.04,10.12c2.64,0,7.04-1.32,7.04-10.12c0-2.82-1.32-19.89-3.17-36.09 c0-0.09,0-0.09,0.09-0.09h0.09c10.12,12.76,21.3,25.79,23.24,27.73c2.73,2.73,5.37,4.14,7.75,4.14c1.67,0,3.17-0.7,4.4-1.94 c1.85-1.85,4.05-5.9-2.2-12.15c-1.94-1.94-14.96-13.12-27.73-23.24c-0.09-0.09,0-0.18,0.09-0.18l0,0 c16.2,1.85,33.27,3.17,36.09,3.17c8.89,0,10.21-4.4,10.21-7.04s-1.32-7.04-10.12-7.04c-2.82,0-19.89,1.32-36.09,3.17l0,0 c-0.09,0-0.18-0.09-0.09-0.18c12.76-10.12,25.79-21.3,27.73-23.24c6.25-6.25,4.05-10.3,2.2-12.15c-1.23-1.23-2.73-1.85-4.31-1.85 c-2.38,0-5.11,1.32-7.83,4.14c-1.94,1.94-13.12,14.96-23.24,27.73h-0.09c-0.09,0-0.09-0.09-0.09-0.09 c1.85-16.2,3.17-33.27,3.17-36.09C71.06,9.6,66.66,8.36,64.02,8.36L64.02,8.36z" enable-background="new " fill="#424242" opacity="0.2"/>
  </g>
</svg>