<svg viewBox="0 0 128 128" xmlns="http://www.w3.org/2000/svg" xmlns:xlink="http://www.w3.org/1999/xlink">
  <g id="Layer_3">
    <g>
      <g>
        <g>
          <radialGradient id="SVGID_1_" cx="64.367" cy="89.1784" gradientUnits="userSpaceOnUse" r="45.973">
            <stop offset="0" style="stop-color:#D1D1D1"/>
            <stop offset="1" style="stop-color:#9E9E9E"/>
          </radialGradient>
          <path d="M108.4,103.58c-2.09-4.4,0.88-8.29,4.35-11.95c5.68-5.99,12.06-20.73,4.07-35.04 c-1.51-0.22-23.34,0.11-28.87,0.11c-6.69,0-16.88,0-23.58,0l-0.01,0.01V56.7c-6.69,0-16.88,0-23.58,0 c-5.53,0-27.36-0.33-28.87-0.11c-8,14.31-1.61,29.05,4.07,35.04c3.47,3.66,6.45,7.56,4.35,11.95c-1.29,2.71-3.41,3.54-4.89,3.84 c0.39,0.61,0.91,1.13,1.53,1.5c2.11,1.26,4.79,1.55,6.51,1.59c1.05,0.03,1.81,0.72,2.5,1.48c7.36,8.16,12.47,9.85,38.37,9.85 v-0.02l0.01,0.02c25.9,0,31.01-1.69,38.37-9.85c0.69-0.77,1.45-1.46,2.5-1.48c1.73-0.04,4.41-0.33,6.51-1.59 c0.61-0.37,1.14-0.88,1.53-1.5C111.81,107.12,109.69,106.29,108.4,103.58z" fill="url(#SVGID_1_)"/>
          <path d="M114.49,92.63c-3.56,3.75-4.48,6.44-3.06,9.77c1.66,3.9,4.42,3.65,4.42,3.65l-1.53,2.42 c-0.56,0.88-1.31,1.61-2.18,2.13c-2.44,1.46-5.41,1.82-7.47,1.87c-0.24,0.01-0.58,0.26-1.09,0.83 C96.93,120.68,91.06,124,75.06,122v-3c2.82-0.79,8.45,0.13,8.45,0.13c9.34-1.08,12.7-3.51,17.15-8.45 c0.56-0.62,1.88-2.08,3.92-2.13c1-0.02,3.75,0.96,6.37-1.06c0,0-9.77-5.68,0.05-16.16c5-5.34,10.22-18.81,4.69-31.35l-0.38-0.85 l0.06-0.12l3.85-0.35c-0.03,0.08,0.12,0.16,0.09,0.24C125.34,72.54,120.14,86.68,114.49,92.63z" fill="#808080"/>
        </g>
        <path d="M13.62,92.63c3.56,3.75,4.48,6.44,3.06,9.77c-1.66,3.9-4.42,3.65-4.42,3.65l1.53,2.42 c0.56,0.88,1.31,1.61,2.18,2.13c2.44,1.46,5.41,1.82,7.47,1.87c0.24,0.01,0.58,0.26,1.09,0.83c6.65,7.37,12.52,10.69,28.52,8.69 v-3c-2.82-0.79-8.45,0.13-8.45,0.13c-9.34-1.08-12.7-3.51-17.15-8.45c-0.56-0.62-1.88-2.08-3.92-2.13 c-1-0.02-3.75,0.96-6.37-1.06c0,0,9.77-5.68-0.05-16.16c-5-5.34-10.22-18.81-4.69-31.35l0.38-0.85L12.74,59H8.38 c0.03,0.08,0.05,0.15,0.09,0.23C2.76,73.24,7.97,86.68,13.62,92.63z" fill="#808080"/>
      </g>
      <g>
        <g>
          <g>
            <path d="M28.45,92.56c-6.86,0-12.44-5.99-12.44-13.35c0-7.36,5.58-13.35,12.44-13.35h71.1 c6.86,0,12.44,5.99,12.44,13.35c0,7.36-5.58,13.35-12.44,13.35H28.45z" fill="#EDC391"/>
            <path d="M99.55,67.37c6.03,0,10.94,5.31,10.94,11.85s-4.91,11.85-10.94,11.85h-9.59H38.04h-9.59 c-6.03,0-10.94-5.31-10.94-11.85s4.91-11.85,10.94-11.85h9.59h51.93H99.55 M99.55,64.37h-9.59H38.04h-9.59 c-7.67,0-13.94,6.68-13.94,14.85s6.27,14.85,13.94,14.85h9.59h51.93h9.59c7.67,0,13.94-6.68,13.94-14.85 S107.22,64.37,99.55,64.37L99.55,64.37z" fill="#D9AC77"/>
          </g>
          <g>
            <linearGradient id="SVGID_3_" gradientUnits="userSpaceOnUse" x1="64" x2="64" y1="121.6198" y2="15.6379">
              <stop offset="0" style="stop-color:#FFD29C"/>
              <stop offset="0.0237" style="stop-color:#FFD39E"/>
              <stop offset="0.3158" style="stop-color:#FCD8AF"/>
              <stop offset="0.6295" style="stop-color:#FADCBA"/>
              <stop offset="1" style="stop-color:#F9DDBD"/>
            </linearGradient>
            <path d="M64,122.5c-11.09,0-21.38-4.41-28.97-12.43c-8.6-9.09-13.14-22.18-13.14-37.86 c0-16.07,4.62-30.87,13-41.68C42.72,20.44,53.33,14.65,64,14.65s21.28,5.79,29.11,15.88c8.38,10.81,13,25.61,13,41.68 c0,15.68-4.54,28.77-13.14,37.86C85.38,118.09,75.1,122.5,64,122.5z" fill="url(#SVGID_3_)"/>
            <path d="M64,16.15L64,16.15c10.21,0,20.38,5.58,27.92,15.3c8.18,10.55,12.68,25.02,12.68,40.76 c0,15.29-4.4,28.03-12.73,36.83C84.58,116.75,74.68,121,64,121c-10.68,0-20.58-4.25-27.88-11.96 c-8.33-8.8-12.73-21.54-12.73-36.83c0-15.73,4.5-30.21,12.68-40.76C43.62,21.73,53.79,16.15,64,16.15 M64,13.15L64,13.15 L64,13.15c-22.64,0-43.61,24.21-43.61,59.06C20.39,106.87,42,124,64,124c22,0,43.61-17.13,43.61-51.79 C107.61,37.37,86.64,13.15,64,13.15L64,13.15z" fill="#EDBD82"/>
          </g>
          <g>
            <path d="M69.02,87.29c-0.14-0.06-0.28-0.09-0.42-0.11h-9.2c-0.14,0.02-0.28,0.05-0.42,0.11 c-0.83,0.34-1.29,1.2-0.9,2.12c0.4,0.92,2.23,3.5,5.92,3.5c3.69,0,5.52-2.58,5.92-3.5C70.31,88.5,69.85,87.63,69.02,87.29z" fill="#DBA689"/>
            <path d="M74.95,97.71c-4.14,2.46-17.73,2.46-21.87,0c-2.38-1.42-4.81,0.75-3.82,2.91 c0.97,2.13,8.38,7.06,14.79,7.06s13.73-4.93,14.7-7.06C79.73,98.46,77.33,96.3,74.95,97.71z" fill="#424242"/>
            <g>
              <ellipse cx="42.9" cy="75.23" fill="#312D2D" rx="6.32" ry="6.55"/>
              <ellipse cx="85.1" cy="75.23" fill="#312D2D" rx="6.32" ry="6.55"/>
              <path d="M52.29,63.47c-1.2-1.59-3.99-3.91-9.39-3.91s-8.19,2.32-9.39,3.91c-0.53,0.71-0.4,1.52-0.03,2.01 c0.34,0.46,1.35,0.88,2.47,0.5c1.12-0.38,3.3-1.51,6.95-1.53c3.65,0.03,5.84,1.15,6.95,1.53c1.12,0.38,2.13-0.04,2.47-0.5 C52.69,64.99,52.82,64.18,52.29,63.47z" fill="#9E9E9E"/>
              <path d="M94.5,63.47c-1.2-1.59-3.99-3.91-9.39-3.91c-5.4,0-8.19,2.32-9.39,3.91c-0.53,0.71-0.4,1.52-0.03,2.01 c0.34,0.46,1.35,0.88,2.47,0.5c1.12-0.38,3.3-1.51,6.95-1.53c3.65,0.03,5.84,1.15,6.95,1.53c1.12,0.38,2.13-0.04,2.47-0.5 C94.89,64.99,95.03,64.18,94.5,63.47z" fill="#9E9E9E"/>
            </g>
          </g>
        </g>
        <g>
          <g>
            <path d=" M42.98,55.87c0,0,8.69-3.44,20.69-3.44s21.36,3.44,21.36,3.44" fill="none" stroke="#EDBD82" stroke-linecap="round" stroke-linejoin="round" stroke-miterlimit="10" stroke-width="3"/>
            <path d=" M49.03,47.46c0,0,6.97-2.21,14.97-2.21s14.97,2.21,14.97,2.21" fill="none" stroke="#EDBD82" stroke-linecap="round" stroke-linejoin="round" stroke-miterlimit="10" stroke-width="3"/>
          </g>
          <g>
            <path d=" M48.22,86.81c-3.48,2.94-9.13,2.94-12.62,0" fill="none" stroke="#EDBD82" stroke-linecap="round" stroke-linejoin="round" stroke-miterlimit="10" stroke-width="3"/>
            <path d=" M92.4,86.81c-3.48,2.94-9.13,2.94-12.62,0" fill="none" stroke="#EDBD82" stroke-linecap="round" stroke-linejoin="round" stroke-miterlimit="10" stroke-width="3"/>
          </g>
          <g>
            <line fill="none" stroke="#EDBD82" stroke-linecap="round" stroke-linejoin="round" stroke-miterlimit="10" stroke-width="3" x1="50.16" x2="40.63" y1="94.28" y2="103.81"/>
            <line fill="none" stroke="#EDBD82" stroke-linecap="round" stroke-linejoin="round" stroke-miterlimit="10" stroke-width="3" x1="77.84" x2="87.37" y1="94.28" y2="103.81"/>
          </g>
        </g>
      </g>
      <radialGradient id="SVGID_4_" cx="64.6085" cy="41.7668" gradientTransform="matrix(1 0 0 0.8642 0 5.6718)" gradientUnits="userSpaceOnUse" r="47.6658">
        <stop offset="0" style="stop-color:#D1D1D1"/>
        <stop offset="1" style="stop-color:#9E9E9E"/>
      </radialGradient>
      <path d="M48.78,11.8c-16.07,5.7-15.69-5.6-15.69-5.6c-8.73,4.35-4.98,14.91-4.98,14.91s-8.85-0.66-12.63,7 C11.52,36.1,15,42.23,15,42.23s-8.5,5.4-5.16,15.23c2.22,6.52,8.2,12.67,8.2,12.67c1.42,11.69,4.27,17.39,4.27,17.39 s5.51-24.18,5-27.87c0,0,10.17-2.02,21.71-8.62c7.8-4.46,13.13-9.7,21.9-11.68c13.34-3,16.32,6.65,16.32,6.65 s12.34-2.37,16.07,14.77c1.53,7.05,2.19,18.84,3.03,26.01c-0.07-0.62,4.58-8.38,5.4-16.25c0.3-2.92,4.73-10.05,6.06-15.35 c2.9-11.54-0.91-20.63-2.7-23.34c-3.28-4.97-11.13-11.8-17-10.8C98.4,14.74,93.45,8.91,87.48,6.9 C71.17,1.41,53.58,10.1,48.78,11.8z" fill="url(#SVGID_4_)"/>
      <path d="M7.98,58.1c0.1,0.29,0.22,0.59,0.35,0.9l2.98,3.78l1.44-3.66l-0.42-0.83c-0.28-0.54-0.47-1.01-0.63-1.45 c-2.79-8.2,4.07-12.76,4.36-12.94l1.55-1l-0.89-1.62c-0.12-0.22-2.89-5.4,0.52-12.3c3.06-6.18,12.98-4.68,12.98-4.68 s-2.25-9.17,1.97-14.42c0.72,1.33,4.1,10.16,17.22,4.88c1.02-0.41,2.2-1,3.67-1.8c5.94-3.24,15.87-8.66,31.61-3.68 c5.69,1.8,11.68,6.77,11.45,11.65l-0.12,2.44l2.41-0.41c4.72-0.79,11.92,5.25,15.03,9.94c1.59,2.41,5.21,12.45,2.51,23.2 c-0.15,0.59-0.35,1.23-0.61,1.96l-0.29,0.81l0.06,0.11l1.2,2.57l2.99-2.57c0.07-0.3,0.35-1.5,0.46-1.92 c2.94-11.7-0.73-22.83-3.04-26.33c-3.2-4.84-10.37-11.33-16.8-11.75C98.9,12.8,92.28,7.57,85.87,5.54 C68.53,0.04,57.25,6.2,51.19,9.51c-1.26,0.69-2.38,1.21-3.1,1.55c-5.91,2.75-10.75,0.71-12.3-2.32c-1.8-3.5-0.9-5.73-0.9-5.73 s-10.65,2.95-8.6,16.63c-3.84,0.16-9.91,2.21-12.58,7.6c-3.17,6.42-2.05,11.78-1.13,14.35C9.28,44.39,5.32,50.29,7.98,58.1z" fill="#808080"/>
    </g>
  </g>
</svg>