<svg viewBox="0 0 128 128" xmlns="http://www.w3.org/2000/svg">
  <defs/>
  <path d="M116.46,3.96 L12.46,3.96 C8.04,3.96 4.46,7.54 4.46,11.96 L4.46,115.96 C4.46,120.38 8.04,123.96 12.46,123.96 L116.46,123.96 C120.88,123.96 124.46,120.38 124.46,115.96 L124.46,11.96 C124.46,7.54 120.88,3.96 116.46,3.96 Z" fill="#427687"/>
  <path d="M122.16,6.26 C120.62,4.8 118.58,3.98 116.46,3.96 L12.46,3.96 C8.04,3.96 4.46,7.54 4.46,11.96 L4.46,115.96 C4.48,118.08 5.3,120.12 6.76,121.66 L23.56,104.86 L99.56,104.86 C102.82,104.85 105.45,102.22 105.46,98.96 L105.46,22.96 L122.16,6.26 Z" fill="#8CAFBF"/>
  <path d="M85.06,47.46 C85.12,50.58 84.25,53.64 82.56,56.26 C80.84,58.86 78.46,60.97 75.66,62.36 C78.93,63.8 81.73,66.12 83.76,69.06 C85.65,71.9 86.63,75.25 86.56,78.66 C86.56,84.56 84.56,89.26 80.56,92.76 C76.56,96.26 71.26,97.96 64.56,97.96 C57.86,97.96 52.56,96.26 48.56,92.76 C44.56,89.26 42.56,84.56 42.56,78.76 C42.54,75.31 43.55,71.93 45.46,69.06 C47.42,66.12 50.2,63.83 53.46,62.46 C50.66,61.07 48.28,58.96 46.56,56.36 C44.87,53.74 44,50.68 44.06,47.56 C44.06,41.86 45.86,37.26 49.56,33.96 C53.26,30.66 58.26,28.96 64.46,28.96 C70.66,28.96 75.76,30.66 79.46,33.96 C83.16,37.26 85.06,41.76 85.06,47.46 Z M75.26,78.06 C75.38,75.07 74.3,72.15 72.26,69.96 C70.21,67.89 67.37,66.8 64.46,66.96 C61.55,66.81 58.72,67.9 56.66,69.96 C54.66,71.96 53.76,74.66 53.76,78.06 C53.64,80.97 54.68,83.82 56.66,85.96 C58.56,87.96 61.26,88.96 64.66,88.96 C67.58,89.12 70.44,88.07 72.56,86.06 C74.36,84.16 75.26,81.46 75.26,78.06 Z M73.86,47.86 C73.97,45.23 73.08,42.66 71.36,40.66 C69.62,38.77 67.13,37.74 64.56,37.86 C62.01,37.73 59.53,38.72 57.76,40.56 C55.99,42.61 55.1,45.26 55.26,47.96 C55.1,50.63 56,53.25 57.76,55.26 C59.5,57.08 61.94,58.07 64.46,57.96 C67.01,58.09 69.49,57.1 71.26,55.26 C73.04,53.22 73.97,50.57 73.86,47.86 Z" fill="#FAFAFA"/>
  <path d="M40.16,12.86 C40.16,10.56 38.56,9.86 29.36,10.16 C21.66,10.46 17.86,11.36 15.56,14.16 C13.26,16.96 12.66,22.66 12.56,29.46 C12.56,34.26 12.56,38.76 15.06,38.76 C18.46,38.76 18.46,30.86 21.26,26.46 C26.66,17.76 40.16,15.86 40.16,12.86 Z" fill="#B4E1ED" opacity="0.5"/>
</svg>