<svg viewBox="0 0 128 128" xmlns="http://www.w3.org/2000/svg">
  <defs/>
  <path d="M4.51,58.36 C4.51,58.36 1.64,79.32 13.84,97.8 C23.84,112.94 39.76,123.11 61.9,123.58 C82.86,124.02 98.3,116.74 110.13,102.29 C126.05,82.84 123.58,61.37 123.58,58.65 C123.58,53.99 114.96,79.67 114.96,79.67 L90.68,111.27 L55.09,117.76 C55.09,117.76 26.65,105.29 26.48,104.62 C26.31,103.95 4.51,58.36 4.51,58.36 Z" fill="#464C4F"/>
  <path d="M43.5,90.13 C43.5,90.13 43.42,94.64 43.58,95.06 C43.75,95.48 47.09,95.56 49.68,95.56 C52.44,95.56 56.07,95.7 56.15,94.95 C56.27,93.87 56.22,89.94 56.22,89.94 L48.59,85.28 L43.5,90.13 Z" fill="#464C4F"/>
  <path d="M53.7,69.15 L55.2,73.41 C55.2,73.41 65.95,74.97 73.14,72.29 C80.33,69.62 84.95,65.79 87.18,59.93 C90.18,52.07 86.9,43.83 86.9,43.83 L76.6,60.53 L58.21,67.3 L53.7,69.15 Z" fill="#464C4F"/>
  <path d="M64.14,35.22 C63.3,35.39 52.27,35.81 52.27,35.81 L53.69,42.41 C53.69,42.41 55.11,42.16 56.53,42.08 C57.95,42 66.35,41.14 69.99,43.33 C75.26,46.51 75.51,51.44 75.51,51.44 C75.51,51.44 83.7,48.18 82.7,46.42 C81.7,44.66 76.1,36.72 76.1,36.72 L64.14,35.22 Z" fill="#464C4F"/>
  <path d="M75.38,89.48 C75.38,89.48 78.18,94.03 78.74,94.19 C79.3,94.35 85.89,94.33 87.97,94.37 C92.22,94.46 92.32,92.67 90.89,90.04 C89.23,86.97 87.55,85.06 87.55,85.06 L75.38,89.48 Z" fill="#464C4F"/>
  <path d="M64.81,4.36 C26.31,4.13 3.4,34.85 4.51,62.88 C5.62,90.92 27.43,120.51 64.14,120.07 C100.85,119.62 122.77,89.02 123.6,62.04 C124.43,35.06 101.3,4.59 64.81,4.36 Z M65.26,109.83 C43.68,110.72 16.53,93.59 17.2,64.21 C17.87,34.84 40.13,18.29 62.82,17.7 C79.95,17.25 110.44,29.49 110.44,64.87 C110.43,93.38 85.52,109 65.26,109.83 Z" fill="#606265"/>
  <path d="M90.14,88.79 C89.34,87.65 75.83,67.73 75.83,67.73 C75.83,67.73 87.16,61.89 87.74,51.13 C87.9,48.16 87.74,39 78.93,33.27 C70.12,27.55 51.64,29.56 47.61,29.79 C43.58,30.02 43.5,31.8 43.35,33.43 C43.2,35.06 43.51,91.24 43.51,91.24 C43.51,91.24 46.54,91.44 49.86,91.42 C53.41,91.4 56.21,91.4 56.21,91.4 L56.15,70.7 L62.68,70.81 L76.07,90.5 C76.07,90.5 88.09,90.39 89.35,90.5 C90.6,90.62 90.94,89.93 90.14,88.79 Z M64.04,60.06 C59.88,60.13 55.91,59.95 55.91,59.95 L55.8,39.11 C55.8,39.11 60.04,38.87 64.64,39.14 C70.22,39.46 75.55,42.45 75.37,49.76 C75.18,57.67 70.45,59.94 64.04,60.06 Z" fill="#606265"/>
  <path d="M47.12,33.58 C45.81,34.71 45.64,42.13 47.38,42.47 C49.12,42.81 50.87,38.63 52.26,37.59 C53.66,36.54 57.78,35.06 57.67,33.75 C57.49,31.64 49.04,31.92 47.12,33.58 Z" fill="#9A9A9A"/>
  <path d="M79.21,52.33 C77.55,52.16 76.25,56.69 74.85,58.17 C73.45,59.65 70.03,61.1 70.4,62.79 C70.9,65.04 77.21,64.44 79.29,62.01 C81.92,58.96 82.38,52.66 79.21,52.33 Z" fill="#9A9A9A"/>
  <path d="M10.06,45.44 C9.66,47.13 9.45,48.93 11.11,49.54 C12.77,50.15 13.64,47.71 14.16,46.14 C14.68,44.57 20.96,31.05 30.47,23.29 C40.8,14.85 53.67,11.95 55.5,11.43 C57.33,10.91 58.5,9.65 58.2,8.55 C57.85,7.24 56.02,7.15 54.45,7.5 C53.21,7.78 40.37,8.9 27.1,19.73 C14.28,30.19 10.5,43.61 10.06,45.44 Z" fill="#9A9A9A"/>
</svg>