<svg viewBox="0 0 128 128" xmlns="http://www.w3.org/2000/svg">
  <defs/>
  <path d="M108.91,99.71 L62.6,99.71 L110.93,19.94 C111.37,19.21 111.39,18.3 110.97,17.55 C110.55,16.81 109.76,16.35 108.91,16.35 L81.06,16.35 C80.81,16.35 80.57,16.4 80.35,16.48 L19.09,16.48 C17.85,16.48 16.85,17.48 16.85,18.72 L16.85,35.44 C16.85,36.68 17.86,37.68 19.09,37.68 L66.52,37.68 L17.08,117.43 C16.63,118.16 16.61,119.08 17.02,119.83 C17.44,120.58 18.23,121.04 19.09,121.04 L48.34,121.04 C48.59,121.04 48.83,120.99 49.06,120.92 L108.9,120.92 C110.13,120.92 111.14,119.92 111.14,118.68 L111.14,101.96 C111.15,100.71 110.14,99.71 108.91,99.71 Z" fill="#40C0E7"/>
</svg>