<svg viewBox="0 0 128 128" xmlns="http://www.w3.org/2000/svg">
  <defs/>
  <path d="M116,4 L12,4 C7.58,4 4,7.58 4,12 L4,116 C4,120.42 7.58,124 12,124 L116,124 C120.42,124 124,120.42 124,116 L124,12 C124,7.58 120.42,4 116,4 Z" fill="#8E24AA"/>
  <path d="M109.7,4 L11.5,4 C7.37,4.03 4.03,7.37 4,11.5 L4,109.4 C3.99,113.54 7.34,116.89 11.48,116.9 C11.49,116.9 11.49,116.9 11.5,116.9 L109.6,116.9 C113.74,116.91 117.09,113.56 117.1,109.42 C117.1,109.41 117.1,109.41 117.1,109.4 L117.1,11.5 C117.19,7.45 113.97,4.09 109.92,4 C109.85,4 109.77,4 109.7,4 Z" fill="#AB47BC"/>
  <path d="M39.7,12.9 C39.7,10.6 38.1,9.9 28.9,10.2 C21.2,10.5 17.4,11.4 15.1,14.2 C12.8,17 12.2,22.7 12.1,29.5 C12.1,34.3 12.1,38.8 14.6,38.8 C18,38.8 18,30.9 20.8,26.5 C26.2,17.8 39.7,15.9 39.7,12.9 Z" fill="#FAFAFA" opacity="0.3"/>
  <path d="M29.19,36.87 L39.54,36.87 L39.54,91.76 L29.19,91.76 L29.19,36.87 Z" fill="#FAFAFA"/>
  <path d="M52.04,36.87 L70.59,36.87 C76.31,36.87 81.3,38.02 85.54,40.32 C89.78,42.62 93.05,45.84 95.35,49.98 C97.65,54.12 98.8,58.9 98.8,64.32 C98.8,69.74 97.65,74.52 95.35,78.66 C93.05,82.8 89.78,86.02 85.54,88.32 C81.3,90.62 76.31,91.77 70.59,91.77 L52.04,91.77 L52.04,36.87 Z M70.13,81.95 C76.06,81.95 80.58,80.38 83.7,77.24 C86.82,74.1 88.38,69.79 88.38,64.32 C88.38,58.85 86.82,54.54 83.7,51.4 C80.58,48.26 76.06,46.69 70.13,46.69 L62.39,46.69 L62.39,81.96 L70.13,81.96 Z" fill="#FAFAFA"/>
</svg>