<svg viewBox="0 0 128 128" xmlns="http://www.w3.org/2000/svg">
  <defs/>
  <path d="M94.9,71.35 C86.82,63.72 73.08,57.36 63.99,53.15 C62.45,52.44 61.06,51.8 59.88,51.23 C56.45,49.58 51.76,45.01 53.78,39.76 C55.14,36.21 58.59,34.42 64.05,34.42 C65.8,34.42 67.72,34.62 69.77,35 C76.89,36.33 82.29,38.99 85.35,40.5 C85.73,40.69 86.17,40.71 86.57,40.57 C86.96,40.42 87.29,40.12 87.46,39.73 L94.47,23.92 C94.78,23.23 94.54,22.41 93.9,21.99 C88.96,18.71 76.63,13.84 62.93,13.84 C60.95,13.84 58.98,13.94 57.06,14.14 C46.14,15.26 35.2,18.17 29.14,31.78 C25.36,40.25 25.37,49.79 29.15,56.67 C33.19,64.18 39.81,67.54 48.19,71.78 L49.27,72.33 C55.32,75.35 62.57,78.71 67.34,80.92 C74.39,84.32 77,90.36 75.38,94 C72.77,99.87 67,101.16 57.02,98.33 C48.21,95.94 40.08,89.19 37.81,87.18 C37.47,86.88 37.02,86.74 36.56,86.8 C36.11,86.86 35.71,87.12 35.46,87.49 L24.6,104.14 C24.19,104.77 24.28,105.6 24.82,106.12 C30.45,111.55 35.04,114.71 42.99,118.62 C48.34,121.25 56.17,122.83 63.94,122.83 C72.06,122.83 91.89,120.95 100.59,103.57 C106.14,92.45 104.07,80.73 94.9,71.35 Z" fill="#40C0E7"/>
</svg>