<svg viewBox="0 0 128 128" xmlns="http://www.w3.org/2000/svg">
  <defs/>
  <path d="M116,4 L12,4 C7.58,4 4,7.58 4,12 L4,116 C4,120.42 7.58,124 12,124 L116,124 C120.42,124 124,120.42 124,116 L124,12 C124,7.58 120.42,4 116,4 Z" fill="#CC3333"/>
  <path d="M109.7,4 L11.5,4 C7.37,4.03 4.03,7.37 4,11.5 L4,109.4 C3.99,113.54 7.34,116.89 11.48,116.9 C11.49,116.9 11.49,116.9 11.5,116.9 L109.6,116.9 C113.74,116.91 117.09,113.56 117.1,109.42 C117.1,109.41 117.1,109.41 117.1,109.4 L117.1,11.5 C117.19,7.45 113.97,4.09 109.92,4 C109.85,4 109.77,4 109.7,4 Z" fill="#F44336"/>
  <path d="M39.7,12.9 C39.7,10.6 38.1,9.9 28.9,10.2 C21.2,10.5 17.4,11.4 15.1,14.2 C12.8,17 12.2,22.7 12.1,29.5 C12.1,34.3 12.1,38.8 14.6,38.8 C18,38.8 18,30.9 20.8,26.5 C26.2,17.8 39.7,15.9 39.7,12.9 Z" fill="#FF8A80"/>
  <path d="M36.3,48.2 C33.59,51.85 30.47,55.17 27,58.1 C26.18,58.79 24.96,58.7 24.27,57.88 C24.25,57.85 24.23,57.83 24.2,57.8 C23.5,56.9 22.7,56 22,55.2 C21.24,54.45 21.23,53.22 21.99,52.46 C22.09,52.36 22.19,52.28 22.3,52.2 C27.2,48.61 31.46,44.21 34.9,39.2 C35.23,38.76 35.14,38.13 34.7,37.8 C34.53,37.67 34.32,37.6 34.1,37.6 L25.6,37.6 C24.5,37.6 23.6,36.7 23.6,35.6 L23.6,32.6 C23.6,31.5 24.5,30.6 25.6,30.6 L37.3,30.6 C37.84,30.56 38.26,30.14 38.3,29.6 L38.3,24 C38.3,22.9 39.2,22 40.3,22 L44.2,22 C45.3,22 46.2,22.9 46.2,24 L46.2,29.7 C46.24,30.24 46.66,30.66 47.2,30.7 L56.4,30.7 C57.5,30.7 58.4,31.6 58.4,32.7 L58.4,35.7 C58.4,36.8 57.5,37.7 56.4,37.7 L47.22,37.75 C46.66,37.75 46.44,38.47 46.9,38.78 C49.94,40.81 56.63,45.29 59,46.89 C59.43,47.15 59.57,47.71 59.31,48.14 C59.28,48.19 59.24,48.25 59.2,48.29 C58.5,49.09 57.5,50.49 56.7,51.49 C55.98,52.37 54.69,52.51 53.8,51.79 C53.8,51.79 53.8,51.79 53.8,51.79 C52.1,50.29 49.8,48.39 47.6,46.59 C47.16,46.26 46.53,46.35 46.2,46.79 C46.07,46.96 46,47.17 46,47.39 L46,58.79 C45.96,59.33 45.54,59.75 45,59.79 L40.1,59.79 C39,59.79 38.1,58.89 38.1,57.79 L38.1,48.89 C38.16,48.34 37.76,47.85 37.21,47.79 C36.86,47.76 36.51,47.91 36.3,48.2 Z M24.8,75.7 L100.2,75.7 C101.3,75.7 102.2,76.6 102.2,77.7 L102.2,80.9 C102.2,82 101.3,82.9 100.2,82.9 L67.6,82.9 C67.08,82.87 66.63,83.26 66.6,83.78 C66.6,83.82 66.6,83.86 66.6,83.9 L66.6,104 C66.6,105.1 65.7,106 64.6,106 L59.7,106 C58.6,106 57.7,105.1 57.7,104 L57.7,83.9 C57.7,83.35 57.25,82.9 56.7,82.9 L24.7,82.9 C23.6,82.9 22.7,82 22.7,80.9 L22.7,77.7 C22.78,76.59 23.69,75.73 24.8,75.7 Z M46.8,91.7 C42.63,96.23 37.89,100.19 32.7,103.5 C31.58,104.19 30.14,104.11 29.1,103.3 C28.65,102.88 28.19,102.47 27.7,102.1 C26.42,101.04 26.25,99.15 27.3,97.88 C27.52,97.61 27.79,97.38 28.1,97.2 C32.73,94.49 36.91,91.08 40.5,87.1 C41.29,86.18 42.55,85.83 43.7,86.2 L45.5,86.8 C47.11,87.39 47.93,89.18 47.33,90.78 C47.21,91.12 47.03,91.43 46.8,91.7 Z M35,62.7 L91,62.7 C92.1,62.7 93,63.6 93,64.7 L93,67.7 C93,68.8 92.1,69.7 91,69.7 L35,69.7 C33.9,69.7 33,68.8 33,67.7 L33,64.7 C33,63.6 33.9,62.7 35,62.7 Z M75.9,46.9 C72.75,50.96 69.05,54.56 64.9,57.6 C64.06,58.24 62.86,58.07 62.22,57.23 C62.21,57.22 62.2,57.21 62.2,57.2 C61.52,56.29 60.79,55.42 60,54.6 C59.23,53.81 59.25,52.54 60.05,51.77 C60.16,51.67 60.28,51.58 60.4,51.5 C65.49,48.21 69.96,44.05 73.6,39.2 C73.93,38.76 73.84,38.13 73.4,37.8 C73.23,37.67 73.02,37.6 72.8,37.6 L64.7,37.6 C62.8,37.6 61.9,36.7 61.9,35.6 L61.9,32.6 C61.9,31.5 62.8,30.6 63.9,30.6 L76.7,30.6 C77.25,30.6 77.7,30.15 77.7,29.6 L77.7,24 C77.7,22.9 78.6,22 79.7,22 L83.7,22 C84.8,22 85.7,22.9 85.7,24 L85.7,29.7 C85.7,30.25 86.15,30.7 86.7,30.7 L99.3,30.7 C100.4,30.7 101.3,31.6 101.3,32.7 L101.3,35.7 C101.3,36.8 100.4,37.7 99.3,37.7 L92,37.7 C91.45,37.71 91.01,38.16 91.01,38.71 C91.01,38.97 91.12,39.21 91.3,39.4 C95.18,42.82 98.79,46.53 102.1,50.5 C103.06,51.74 102.94,53.51 101.8,54.6 L100.8,55.5 C99.57,56.61 97.68,56.52 96.56,55.29 C96.5,55.23 96.45,55.16 96.4,55.1 C93.61,51.65 90.64,48.34 87.5,45.2 C87.11,44.81 86.47,44.82 86.09,45.21 C85.91,45.39 85.81,45.64 85.8,45.9 L85.8,57.8 C85.8,59.2 85.4,59.7 84.8,59.7 L79.8,59.7 C78.7,59.7 77.8,58.8 77.8,57.7 L77.8,47.5 C77.77,46.92 77.28,46.46 76.7,46.49 C76.38,46.5 76.09,46.65 75.9,46.9 Z M82.4,86.2 C87.41,89.38 92.25,92.81 96.9,96.5 C98.18,97.6 98.33,99.53 97.23,100.82 C97.07,101 96.9,101.16 96.7,101.3 L95.1,102.4 C93.94,103.39 92.21,103.35 91.1,102.3 C86.98,98.57 82.6,95.13 78,92 C76.64,91.06 76.3,89.19 77.24,87.83 C77.47,87.5 77.76,87.22 78.1,87 C78.5,86.7 78.9,86.5 79.3,86.2 C80.25,85.6 81.45,85.6 82.4,86.2 Z" fill="#FAFAFA"/>
</svg>