<svg viewBox="0 0 128 128" xmlns="http://www.w3.org/2000/svg">
  <defs/>
  <path d="M116,4 L12,4 C7.58,4 4,7.58 4,12 L4,116 C4,120.42 7.58,124 12,124 L116,124 C120.42,124 124,120.42 124,116 L124,12 C124,7.58 120.42,4 116,4 Z" fill="#CC3333"/>
  <path d="M109.7,4 L11.5,4 C7.37,4.03 4.03,7.37 4,11.5 L4,109.4 C3.99,113.54 7.34,116.89 11.48,116.9 C11.49,116.9 11.49,116.9 11.5,116.9 L109.6,116.9 C113.74,116.91 117.09,113.56 117.1,109.42 C117.1,109.41 117.1,109.41 117.1,109.4 L117.1,11.5 C117.19,7.45 113.97,4.09 109.92,4 C109.85,4 109.77,4 109.7,4 Z" fill="#F44336"/>
  <path d="M39.7,12.9 C39.7,10.6 38.1,9.9 28.9,10.2 C21.2,10.5 17.4,11.4 15.1,14.2 C12.8,17 12.2,22.7 12.1,29.5 C12.1,34.3 12.1,38.8 14.6,38.8 C18,38.8 18,30.9 20.8,26.5 C26.2,17.8 39.7,15.9 39.7,12.9 Z" fill="#FF8A80"/>
  <path d="M71.6,21.2 C71.27,21.72 70.9,22.22 70.5,22.7 C70.01,23.42 70.09,24.38 70.7,25 C81.5,35.3 93.3,42.1 106.2,47.5 C107.09,47.9 107.5,48.94 107.1,49.84 C107.02,50.01 106.92,50.17 106.8,50.3 C105.39,51.77 104.18,53.42 103.2,55.2 C102.74,56 101.73,56.31 100.9,55.9 C97.3,54.1 93.7,52.3 90.2,50.3 C89.37,49.82 88.32,50.1 87.83,50.93 C87.68,51.2 87.59,51.5 87.6,51.8 L87.6,53.4 C87.61,54.39 86.81,55.19 85.82,55.2 C85.81,55.2 85.81,55.2 85.8,55.2 L41.4,55.2 C40.41,55.21 39.61,54.41 39.6,53.42 C39.6,53.41 39.6,53.41 39.6,53.4 C39.59,52.44 38.81,51.67 37.85,51.67 C37.55,51.67 37.26,51.75 37,51.9 C33.81,53.83 30.5,55.57 27.1,57.1 C26.35,57.44 25.46,57.19 25,56.5 C23.79,54.76 22.49,53.09 21.1,51.5 C20.45,50.77 20.51,49.65 21.24,49 C21.38,48.88 21.53,48.77 21.7,48.7 C38.3,41.6 54.5,30.3 64,16.8 C64.49,16.09 65.42,15.83 66.2,16.2 L71,18.6 C71.87,19.1 72.17,20.21 71.67,21.08 C71.65,21.12 71.63,21.16 71.6,21.2 Z M36,65.1 L92.7,65.1 C93.69,65.09 94.49,65.89 94.5,66.88 C94.5,66.89 94.5,66.89 94.5,66.9 L94.5,101.9 C94.51,102.89 93.71,103.69 92.72,103.7 C92.71,103.7 92.71,103.7 92.7,103.7 L86.8,103.7 C85.81,103.71 85.01,102.91 85,101.92 C85,101.91 85,101.91 85,101.9 L85,101 C85.01,100.01 84.21,99.21 83.22,99.2 C83.21,99.2 83.21,99.2 83.2,99.2 L45,99.2 C44.01,99.19 43.21,99.99 43.2,100.98 C43.2,100.99 43.2,100.99 43.2,101 L43.2,102.3 C43.21,103.29 42.41,104.09 41.42,104.1 C41.41,104.1 41.41,104.1 41.4,104.1 L36,104.1 C35.01,104.11 34.21,103.31 34.2,102.32 C34.2,102.31 34.2,102.31 34.2,102.3 L34.2,66.8 C34.24,65.84 35.04,65.08 36,65.1 Z M43.3,74.8 L43.3,89.1 C43.29,90.09 44.09,90.89 45.08,90.9 C45.09,90.9 45.09,90.9 45.1,90.9 L83.3,90.9 C84.29,90.91 85.09,90.11 85.1,89.12 C85.1,89.11 85.1,89.11 85.1,89.1 L85.1,74.8 C85.11,73.81 84.31,73.01 83.32,73 C83.31,73 83.31,73 83.3,73 L45,73 C44.05,73.07 43.32,73.85 43.3,74.8 Z M80,43.6 C74.87,39.9 69.99,35.86 65.4,31.5 C64.7,30.84 63.59,30.87 62.93,31.57 C62.92,31.58 62.91,31.59 62.9,31.6 C58.74,35.99 54.22,40.04 49.4,43.7 C48.64,44.28 48.5,45.37 49.09,46.13 C49.43,46.57 49.95,46.82 50.5,46.8 L79,46.8 C79.97,46.79 80.75,46 80.75,45.03 C80.74,44.46 80.47,43.93 80,43.6 Z" fill="#FAFAFA"/>
</svg>