<svg viewBox="0 0 128 128" xmlns="http://www.w3.org/2000/svg">
  <defs/>
  <path d="M116,4 L12,4 C7.58,4 4,7.58 4,12 L4,116 C4,120.42 7.58,124 12,124 L116,124 C120.42,124 124,120.42 124,116 L124,12 C124,7.58 120.42,4 116,4 Z" fill="#F77E00"/>
  <path d="M109.7,4 L11.5,4 C7.37,4.03 4.03,7.37 4,11.5 L4,109.4 C3.99,113.54 7.34,116.89 11.48,116.9 C11.49,116.9 11.49,116.9 11.5,116.9 L109.6,116.9 C113.74,116.91 117.09,113.56 117.1,109.42 C117.1,109.41 117.1,109.41 117.1,109.4 L117.1,11.5 C117.19,7.45 113.97,4.09 109.92,4 C109.85,4 109.77,4 109.7,4 Z" fill="#FF9800"/>
  <path d="M39.7,12.9 C39.7,10.6 38.1,9.9 28.9,10.2 C21.2,10.5 17.4,11.4 15.1,14.2 C12.8,17 12.2,22.7 12.1,29.5 C12.1,34.3 12.1,38.8 14.6,38.8 C18,38.8 18,30.9 20.8,26.5 C26.2,17.8 39.7,15.9 39.7,12.9 Z" fill="#FFBD52" opacity="0.75"/>
  <path d="M38.2,38.4 C35.77,41.32 33.13,44.06 30.3,46.6 C29.08,47.72 27.18,47.64 26.06,46.43 C25.97,46.33 25.88,46.22 25.8,46.1 C25.4,45.48 24.97,44.88 24.5,44.3 C23.54,42.98 23.76,41.15 25,40.1 C31.16,35.05 36.35,28.92 40.3,22 C40.95,20.72 42.45,20.12 43.8,20.6 L45.5,21.1 C47.08,21.61 47.94,23.31 47.42,24.88 C47.36,25.06 47.29,25.23 47.2,25.4 C46.5,26.6 45.8,27.8 45,29 C44.67,29.44 44.76,30.07 45.2,30.4 C45.37,30.53 45.58,30.6 45.8,30.6 L98.4,30.6 C100.06,30.6 101.4,31.94 101.4,33.6 L101.4,35 C101.4,36.66 100.06,38 98.4,38 L38.9,38 C38.6,38.1 38.3,38.2 38.2,38.4 Z M104.1,74.9 L104.1,78.5 C104.1,79.6 103.2,80.5 102.1,80.5 L26.5,80.5 C25.4,80.5 24.5,79.6 24.5,78.5 L24.5,74.9 C24.5,73.8 25.4,72.9 26.5,72.9 L36.6,72.9 C37.15,72.9 37.6,72.45 37.6,71.9 L37.6,60.3 C37.56,59.76 37.14,59.34 36.6,59.3 L29.3,59.3 C28.2,59.3 27.3,58.4 27.3,57.3 L27.3,53.7 C27.3,52.6 28.2,51.7 29.3,51.7 L36.6,51.7 C37.14,51.66 37.56,51.24 37.6,50.7 L37.6,44.6 C37.6,43.5 38.5,42.6 39.6,42.6 L43.1,42.6 C44.2,42.6 45.1,43.5 45.1,44.6 L45.1,50.7 C45.14,51.24 45.56,51.66 46.1,51.7 L52.1,51.7 C52.64,51.66 53.06,51.24 53.1,50.7 L53.1,44.6 C53.1,43.5 54,42.6 55.1,42.6 L58.2,42.6 C59.3,42.6 60.2,43.5 60.2,44.6 L60.2,50.7 C60.24,51.24 60.66,51.66 61.2,51.7 L68.1,51.7 C68.65,51.7 69.1,51.25 69.1,50.7 L69.1,44.6 C69.1,43.5 70,42.6 71.1,42.6 L74.2,42.6 C75.3,42.6 76.2,43.5 76.2,44.6 L76.2,50.7 C76.2,51.25 76.65,51.7 77.2,51.7 L83.7,51.7 C84.25,51.7 84.7,51.25 84.7,50.7 L84.7,44.6 C84.7,43.5 85.6,42.6 86.7,42.6 L90.5,42.6 C91.6,42.6 92.5,43.5 92.5,44.6 L92.5,50.7 C92.5,51.25 92.95,51.7 93.5,51.7 L100.2,51.7 C101.3,51.7 102.2,52.6 102.2,53.7 L102.2,57.3 C102.2,58.4 101.3,59.3 100.2,59.3 L93.5,59.3 C92.95,59.3 92.5,59.75 92.5,60.3 L92.5,71.9 C92.47,72.42 92.86,72.87 93.38,72.9 C93.42,72.9 93.46,72.9 93.5,72.9 L102,72.9 C103.1,72.84 104.04,73.69 104.1,74.8 C104.1,74.83 104.1,74.87 104.1,74.9 Z M26.4,98.6 C29.29,94.23 31.8,89.61 33.9,84.8 C34.27,83.9 35.26,83.43 36.2,83.7 C37.4,84 39,84.4 40.4,84.8 C41.46,85.1 42.08,86.21 41.78,87.27 C41.76,87.35 41.73,87.43 41.7,87.5 C39.52,92.69 36.94,97.7 34,102.5 C33.49,103.3 32.49,103.64 31.6,103.3 C30.4,102.8 28.7,102.1 27.3,101.6 C26.27,101.19 25.77,100.03 26.18,99 C26.24,98.86 26.31,98.73 26.4,98.6 Z M46.1,72.9 L52.1,72.9 C52.65,72.9 53.1,72.45 53.1,71.9 L53.1,60.3 C53.06,59.76 52.64,59.34 52.1,59.3 L46.1,59.3 C45.56,59.34 45.14,59.76 45.1,60.3 L45.1,71.9 C45.14,72.44 45.56,72.86 46.1,72.9 Z M57.9,87.3 C58.73,91.53 59.3,95.8 59.6,100.1 C59.71,101.15 58.95,102.08 57.9,102.2 C56.7,102.4 55,102.6 53.7,102.8 C52.61,102.97 51.59,102.22 51.42,101.12 C51.41,101.05 51.4,100.97 51.4,100.9 C51.2,97.3 50.7,92.6 50.1,88.4 C49.92,87.31 50.67,86.28 51.76,86.11 C51.77,86.11 51.79,86.11 51.8,86.1 C53,86 54.5,85.8 55.7,85.7 C56.73,85.61 57.67,86.29 57.9,87.3 Z M60.3,60.3 L60.3,71.9 C60.3,72.45 60.75,72.9 61.3,72.9 L68.2,72.9 C68.72,72.93 69.17,72.54 69.2,72.02 C69.2,71.98 69.2,71.94 69.2,71.9 L69.2,60.3 C69.2,59.75 68.75,59.3 68.2,59.3 L61.3,59.3 C60.76,59.34 60.34,59.76 60.3,60.3 Z M76.5,86.2 C78.31,90.41 79.78,94.76 80.9,99.2 C81.18,100.22 80.58,101.27 79.56,101.55 C79.47,101.57 79.39,101.59 79.3,101.6 L75,102.4 C73.96,102.59 72.95,101.93 72.7,100.9 C71.72,96.62 70.45,92.41 68.9,88.3 C68.53,87.21 69.11,86.03 70.19,85.66 C70.26,85.64 70.33,85.62 70.4,85.6 C71.7,85.4 73.2,85.1 74.3,84.9 C75.23,84.84 76.1,85.36 76.5,86.2 L76.5,86.2 Z M76.3,60.3 L76.3,71.9 C76.27,72.42 76.66,72.87 77.18,72.9 C77.22,72.9 77.26,72.9 77.3,72.9 L83.8,72.9 C84.32,72.93 84.77,72.54 84.8,72.02 C84.8,71.98 84.8,71.94 84.8,71.9 L84.8,60.3 C84.8,59.75 84.35,59.3 83.8,59.3 L77.3,59.3 C76.76,59.34 76.34,59.76 76.3,60.3 Z M95,84.2 C97.9,88.6 101.1,94.2 103.2,98.3 C103.7,99.25 103.33,100.42 102.38,100.92 C102.32,100.95 102.26,100.98 102.2,101 C100.9,101.6 99,102.4 97.7,103 C96.71,103.42 95.55,102.98 95.1,102 C93.3,98 90.4,92.5 87.7,87.8 C87.13,86.85 87.44,85.62 88.38,85.05 C88.48,84.99 88.59,84.94 88.7,84.9 C90,84.4 91.5,83.8 92.7,83.3 C93.58,83.12 94.48,83.47 95,84.2 Z" fill="#FAFAFA"/>
</svg>