<svg viewBox="0 0 128 128" xmlns="http://www.w3.org/2000/svg">
  <defs/>
  <path d="M117.39,124 L10.61,124 C6.96,124 4,121.04 4,117.39 L4,16 L124,16 L124,117.39 C124,121.04 121.04,124 117.39,124 Z" fill="#82AEC0"/>
  <path d="M27.7,116.35 L12.87,116.35 C10.07,116.35 7.81,114.08 7.81,111.29 L7.81,25.49 L32.76,25.49 L32.76,111.29 C32.76,114.09 30.49,116.35 27.7,116.35 Z" fill="#FFFFFF"/>
  <path d="M56.84,116.35 L42.02,116.35 C39.22,116.35 36.96,114.08 36.96,111.29 L36.96,25.49 L61.9,25.49 L61.9,111.29 C61.9,114.09 59.64,116.35 56.84,116.35 Z" fill="#FFFFFF"/>
  <path d="M85.98,116.35 L71.16,116.35 C68.36,116.35 66.1,114.08 66.1,111.29 L66.1,25.49 L91.05,25.49 L91.05,111.29 C91.04,114.09 88.78,116.35 85.98,116.35 Z" fill="#FFFFFF"/>
  <path d="M115.13,116.35 L100.3,116.35 C97.5,116.35 95.24,114.08 95.24,111.29 L95.24,25.49 L120.19,25.49 L120.19,111.29 C120.19,114.09 117.92,116.35 115.13,116.35 Z" fill="#FFFFFF"/>
  <path d="M124,8.47 C124,6 122,4 119.53,4 L8.47,4 C6,4 4,6 4,8.47 L4,28 L26.54,28 L26.54,80.4 C26.54,81.61 27.69,82.6 29.1,82.6 L34.85,82.6 L40.6,82.6 C42.02,82.6 43.16,81.62 43.16,80.4 L43.16,28 L55.67,28 L55.67,80.4 C55.67,81.61 56.82,82.6 58.23,82.6 L64,82.6 L69.75,82.6 C71.17,82.6 72.31,81.62 72.31,80.4 L72.31,28 L84.82,28 L84.82,80.4 C84.82,81.61 85.97,82.6 87.38,82.6 L93.13,82.6 L98.88,82.6 C100.3,82.6 101.44,81.62 101.44,80.4 L101.44,28 L124,28 L124,8.47 Z"/>
  <path d="M4,4 L124,4 L124,10.65 L4,10.65 L4,4 Z" fill="#757575"/>
  <path d="M97.42,80.25 L88.87,80.25 C88.03,80.25 87.35,79.57 87.35,78.73 L87.35,71.52 C87.35,70.68 88.03,70 88.87,70 L97.42,70 C98.26,70 98.94,70.68 98.94,71.52 L98.94,78.73 C98.93,79.57 98.25,80.25 97.42,80.25 Z" fill="#757575"/>
  <path d="M68.27,80.25 L59.72,80.25 C58.88,80.25 58.2,79.57 58.2,78.73 L58.2,71.52 C58.2,70.68 58.88,70 59.72,70 L68.27,70 C69.11,70 69.79,70.68 69.79,71.52 L69.79,78.73 C69.79,79.57 69.11,80.25 68.27,80.25 Z" fill="#757575"/>
  <path d="M39.13,80.25 L30.58,80.25 C29.74,80.25 29.06,79.57 29.06,78.73 L29.06,71.52 C29.06,70.68 29.74,70 30.58,70 L39.13,70 C39.97,70 40.65,70.68 40.65,71.52 L40.65,78.73 C40.65,79.57 39.97,80.25 39.13,80.25 Z" fill="#757575"/>
</svg>