<svg viewBox="0 0 128 128" xmlns="http://www.w3.org/2000/svg">
  <defs>
    <linearGradient id="SVGID_1_" gradientTransform="matrix(0.9992 -0.0404 0.0404 0.9992 0 0)" gradientUnits="userSpaceOnUse" x1="116.908402" x2="39.669602" y1="130.197619" y2="37.292519">
      <stop offset="0" stop-color="#FFCC80"/>
      <stop offset="1" stop-color="#FFDCA6"/>
    </linearGradient>
    <linearGradient id="SVGID_2_" gradientUnits="userSpaceOnUse" x1="31.6833" x2="37.8228" y1="35.0641" y2="71.157">
      <stop offset="0" stop-color="#82AEC0"/>
      <stop offset="1" stop-color="#2F7889"/>
    </linearGradient>
  </defs>
  <path d="M120.09,80.17 L67.86,25.71 C66.48,24.28 63.69,23.05 61.69,23.01 L35.78,26.93 C33.41,27.33 31.72,28.67 31.26,31.34 L26.18,58.52 C26.13,60.52 27.25,63.35 28.62,64.79 L81.51,119.94 C82.89,121.38 85.23,121.42 86.67,120.05 L117.16,89.8 C118,89 120.12,86.15 120.68,83.68 C121.1,81.88 120.09,80.17 120.09,80.17 Z M46.59,47.5 C43.74,47.62 41.34,45.4 41.22,42.55 C41.1,39.7 43.32,37.3 46.17,37.19 C49.02,37.07 51.42,39.29 51.54,42.14 C51.66,44.98 49.44,47.39 46.59,47.5 Z" fill="url(#SVGID_1_)"/>
  <path d="M119.92,79.99 C119.92,79.99 121.45,82.25 119.25,84.63 L85.31,118.62 C85.02,118.9 84.63,119.06 84.21,119.08 C83.72,119.1 83.25,118.92 82.93,118.58 L30.04,63.42 C28.82,61.84 27.84,60.71 28.14,58.69 L33.35,30.78 C33.35,30.78 33.64,28.83 34.4,27.96 C35.18,27.07 36.04,26.87 36.04,26.87 C34.19,27.14 32.63,27.4 31.41,28.51 C30.21,29.61 29.7,30.79 29.14,33.67 L24.15,59.84 C23.7,62.92 24.75,64.26 25.77,65.64 L80.16,122.88 C80.9,123.66 81.93,124.03 82.94,123.99 C83.8,123.96 84.65,123.62 85.32,122.99 L118.01,90.26 C119.46,88.69 121.06,87.28 121.19,85.02 C121.32,83 121.03,80.82 119.92,79.99 Z" fill="#F19534"/>
  <path d="M45.66,36.26 L48.22,36.8 C49.78,33.11 50.43,28.99 49.91,24.78 L46.73,25.26 C47.26,29.16 46.99,32.96 45.66,36.26 Z" fill="#F7C272"/>
  <path d="M46.39,37.18 C49.15,37.18 51.43,39.36 51.54,42.13 C51.66,44.98 49.44,47.38 46.59,47.49 C46.52,47.49 46.45,47.49 46.38,47.49 C43.62,47.49 41.34,45.31 41.23,42.54 C41.11,39.69 43.33,37.29 46.18,37.18 C46.25,37.19 46.32,37.18 46.39,37.18 M46.39,34.25 C46.28,34.25 46.17,34.25 46.06,34.26 C41.6,34.44 38.12,38.21 38.3,42.67 C38.48,47.02 42.03,50.43 46.38,50.43 C46.49,50.43 46.6,50.43 46.71,50.42 C51.17,50.24 54.65,46.47 54.47,42.01 C54.3,37.66 50.75,34.25 46.39,34.25 L46.39,34.25 Z" fill="#82AEC0"/>
  <path d="M30.42,4 C17.38,4 6.78,14.61 6.78,27.64 C6.78,39.06 15.07,48.7 25.85,50.9 L26.6,47.03 C17.66,45.15 10.68,37.13 10.68,27.64 C10.68,16.76 19.53,7.9 30.42,7.9 C41.31,7.9 50.16,16.75 50.16,27.64 C50.16,34.42 46.71,40.4 41.49,43.95 C41.49,43.95 41.58,44.63 42.46,45.68 C43.15,46.51 44.06,46.94 44.06,46.94 C50.11,42.65 54.08,35.6 54.08,27.64 C54.06,14.61 43.45,4 30.42,4 Z" fill="url(#SVGID_2_)"/>
  <path d="M82.95,124 C83.81,123.97 84.66,123.63 85.33,123 L118.02,90.27 C119.47,88.7 121.07,87.29 121.2,85.03 C121.32,83.02 121.04,80.83 119.92,80.01 C119.92,80.01 121.45,82.27 119.25,84.65 L85.31,118.64 C85.02,118.92 84.63,119.08 84.21,119.1 L82.31,123.98 C82.53,123.99 82.74,124.01 82.95,124 Z" fill="#D1762C"/>
</svg>