<svg viewBox="0 0 128 128" xmlns="http://www.w3.org/2000/svg">
  <defs/>
  <path d="M34.17,112.97 C34.11,110.13 43.06,103.78 64.56,104.61 C86.06,105.44 94.3,107.85 94.58,112.02 C94.86,116.19 80.77,123.79 62.98,122.77 C45.19,121.75 34.26,117.25 34.17,112.97 Z" fill="#FEE5AD"/>
  <path d="M34.2,112.56 C34.2,112.56 40.37,111.39 41.04,112.51 C41.41,113.14 37.4,114.96 37.4,114.96 C37.4,114.96 42.22,120.91 64.61,121.16 C85.13,121.39 92.48,113.84 93.04,113.21 C93.76,112.41 94.15,111.18 94.39,111.18 C94.78,111.18 96.04,114.75 91.68,117.89 C87.31,121.02 80.85,124.26 64.3,124.15 C46.36,124.04 38.61,119.33 36.2,117.6 C33.16,115.41 34.2,112.56 34.2,112.56 Z" fill="#FDA72C"/>
  <path d="M93.54,113.58 C93.54,113.58 89.42,111.51 88.46,112.09 C87.06,112.93 91.77,115.4 91.77,115.4 L93.54,113.58 Z" fill="#FDA72C"/>
  <path d="M87.15,117.88 C87.15,117.88 83,115.13 81.79,115.59 C80.08,116.25 84.12,119.7 84.12,119.7 L87.15,117.88 Z" fill="#FDA72C"/>
  <path d="M46.85,119.84 C46.85,119.84 49.14,115.78 50.3,115.92 C51.47,116.06 49.88,120.49 49.88,120.49 L46.85,119.84 Z" fill="#FDA72C"/>
  <path d="M39.94,117.04 C39.94,117.04 42.51,114.33 43.39,114.66 C44.28,114.99 42.22,118.11 42.22,118.11 C42.22,118.11 40.03,116.94 39.94,117.04 Z" fill="#FDA72C"/>
  <path d="M44,91.39 C44,91.39 43.52,111.39 43.7,111.74 C43.88,112.1 50.96,115.9 63.58,116.14 C79.23,116.44 85.42,111.2 85.48,110.9 C85.54,110.6 85.96,90.25 85.96,90.25 L64.6,96.33 L44,91.39 Z" fill="#FFCB80"/>
  <path d="M43.81,100.6 C43.81,100.6 51.55,104.86 64.56,104.61 C77.57,104.36 85.76,100.14 85.76,100.14 L85.67,104.18 C85.67,104.18 80.25,108.52 64.48,108.52 C48.71,108.52 43.74,104.84 43.74,104.84 L43.81,100.6 Z" fill="#EB961B"/>
  <path d="M64.18,101.51 C63.4,101.55 59.54,105.74 59.48,106.51 C59.42,107.28 63.71,111.57 64.66,111.51 C65.61,111.45 69.42,107.52 69.42,106.45 C69.42,105.38 65.49,101.45 64.18,101.51 Z" fill="#EB961B"/>
  <path d="M39.78,57.85 C39.78,57.85 36.27,59.74 36.98,62.99 C37.68,66.24 38.96,71.13 38.96,71.13 L34.53,68.3 C34.53,68.3 32.04,69.86 32.67,72.94 C33.23,75.66 34.78,77.34 34.78,77.34 L32.72,76.62 C32.72,76.62 30.99,78.22 31.52,80.06 C32.05,81.91 34.51,84.71 37.15,87.27 C40.14,90.17 43.48,92.81 44.1,93.08 C44.72,93.34 52.63,96.6 63.98,97.04 C75.33,97.48 85.88,92.47 85.88,92.47 C85.88,92.47 92.13,88.25 93.97,86.4 C95.82,84.55 96.69,83.18 96.54,82.21 C96.38,81.14 95.61,80.4 95.61,80.4 L90.09,82.61 L92.03,66.34 C92.03,66.34 92.45,64 91.5,62.82 C90.25,61.27 88.56,61.06 88.56,61.06 C88.56,61.06 86.1,63.08 85.62,62.41 C85.14,61.74 87.47,56.24 85.9,54.3 C84.28,52.3 82.36,53.57 82.36,53.57 L67.24,65.72 L49.57,55.21 C49.57,55.21 46.56,54.6 44.91,56.82 C43.06,59.31 44.09,61.92 44.09,61.92 L39.78,57.85 Z" fill="#1F6721"/>
  <path d="M51.57,89 C51.57,89 55.79,94.68 65.19,94.58 C75.05,94.48 77.99,89.68 77.99,89.68 C77.99,89.68 80.71,91.58 86.34,88.59 C88.59,87.4 96.12,81.21 95.65,80.41 C95.18,79.61 93.34,80.39 93.34,80.39 C93.34,80.39 100.22,71.16 97.01,66.99 C93.97,63.03 90.05,69.21 88.79,68.23 C87.83,67.48 91.87,62.49 88.84,61.16 C86.79,60.26 83.47,62.9 83.47,62.9 C83.47,62.9 84,60.15 84.58,58.26 C85.15,56.43 85.55,53.82 84.25,53.31 C82.63,52.67 80.62,54.46 78.6,56.66 C75.66,59.87 49.64,55.33 49.64,55.33 C49.64,55.33 47.8,55.05 46.84,57.12 C46.12,58.66 46.34,61.7 45.88,61.8 C45.28,61.94 43.08,57.07 40.42,57.62 C38.53,58.01 38.35,60.05 39.32,63.4 C40.28,66.75 41.34,70.84 41.34,70.84 C41.34,70.84 36.89,66.66 34.55,68.27 C31.68,70.24 35.87,75.92 35.61,76.35 C35.49,76.55 32.95,75.7 32.41,77.07 C31.66,78.97 36.85,83.24 40.8,86.72 C48.92,93.88 51.57,89 51.57,89 Z" fill="#2F7F32"/>
  <path d="M43.33,76.89 C43.33,76.89 41.76,71.21 45.77,68.01 C50.43,64.28 55.8,67.44 55.8,67.44 L76.29,66.58 C76.29,66.58 81.24,66.38 84.17,68.23 C87.61,70.41 87.48,71.63 87.1,72.02 C86.86,72.27 86,72.67 84.75,73.53 C82.39,75.13 80.59,77.25 80.59,77.25 L62.61,72.74 L49.35,75.03 C49.35,75.03 48.06,74.17 45.98,74.6 C43.89,75.03 43.33,76.89 43.33,76.89 Z" fill="#1F6721"/>
  <path d="M50.71,16.34 L51.16,41.14 L57.23,35.9 L68.37,40.34 L68.4,16.04 Z" fill="#7FB240"/>
  <path d="M60.6,27.02 L60.6,36.76 C60.6,36.76 68.1,38.86 68.25,38.57 C68.39,38.28 68.38,17.01 68.38,17.01 L60.6,27.02 Z" fill="#737F35"/>
  <path d="M59.6,3.87 C56.16,3.8 50.72,7.31 50.72,16.34 C50.72,25.66 55.89,28.43 59.53,28.52 C63.76,28.62 68.56,24.82 68.41,15.7 C68.27,6.74 62.61,3.94 59.6,3.87 Z" fill="#F9DFAF"/>
  <path d="M59.53,7.67 C56.38,7.55 53.58,11.68 53.87,16.91 C54.16,22.14 56.67,24.95 59.17,25.08 C61.89,25.22 64.9,22.93 65.12,16.77 C65.28,12.05 63.18,7.82 59.53,7.67 Z" fill="#B69B5A"/>
  <path d="M50.71,46.79 L49.42,49.51 L49.35,75.02 C49.35,75.02 50.35,75.59 51.57,76.67 C52.79,77.75 53.86,80.04 53.86,80.04 C53.86,80.04 54.8,76.54 57.37,76.24 C62.31,75.67 65.11,83.48 65.11,83.48 C65.11,83.48 67.62,76.46 72.99,77.03 C77.41,77.5 77.22,81.54 77.22,81.54 C77.22,81.54 78.15,79.89 78.72,79.32 C79.29,78.75 80.58,77.24 80.58,77.24 L80.87,35.18 L50.71,46.79 Z" fill="#7FB240"/>
  <path d="M63.47,54.32 L63.38,80.06 C63.38,80.06 63.94,80.95 64.25,81.55 C64.73,82.46 65.12,83.48 65.12,83.48 C65.12,83.48 65.78,81.8 66.76,80.43 C67.75,79.05 68.78,78.29 68.78,78.29 L68.8,42.08 L65.67,40.13 L63.47,54.32 Z" fill="#737F35"/>
  <path d="M51.99,58.1 C53.43,58.1 53.4,60 53.43,63.98 C53.46,68.31 53.37,70.79 53.37,72.99 C53.37,74.13 53.14,75.83 51.99,75.83 C50.7,75.83 50.48,73.86 50.54,71.34 C50.59,69.02 50.59,61.65 50.61,60.58 C50.64,59.08 50.95,58.1 51.99,58.1 Z" fill="#E3DE9E"/>
  <path d="M70.29,45.86 C68.91,45.92 68.71,47.59 68.71,50.26 C68.71,52.93 68.71,73.4 68.66,74.43 C68.61,75.47 69.01,76.7 69.99,76.7 C70.98,76.7 71.72,75.46 71.67,73.54 C71.62,71.62 71.82,50.06 71.82,48.67 C71.82,47.28 71.47,45.81 70.29,45.86 Z" fill="#E3DE9E"/>
  <path d="M72.22,20.45 C68.74,20.38 63.27,24.02 63.27,32.74 C63.27,41.74 67.84,45.18 72.12,45.21 C77.81,45.26 81.11,41 80.96,32.18 C80.82,23.53 75.26,20.51 72.22,20.45 Z" fill="#F9DFAF"/>
  <path d="M72.24,24.05 C69.09,23.93 66.29,28.09 66.58,33.36 C66.87,38.63 69.38,41.46 71.88,41.59 C74.6,41.73 77.61,39.42 77.83,33.22 C77.99,28.46 75.89,24.2 72.24,24.05 Z" fill="#B69B5A"/>
  <path d="M58.07,34.34 C54.42,34.34 49.03,37.75 49.03,46.75 C49.03,56.04 53.77,58.79 58,58.91 C63.23,59.05 67.22,55.3 67.08,46.21 C66.93,37.28 61.19,34.34 58.07,34.34 Z" fill="#F9DFAF"/>
  <path d="M58.05,38 C54.9,37.88 52.1,42.01 52.39,47.24 C52.68,52.47 55.19,55.28 57.69,55.41 C60.41,55.55 63.42,53.26 63.64,47.1 C63.8,42.37 61.7,38.14 58.05,38 Z" fill="#B69B5A"/>
</svg>