<svg viewBox="0 0 128 128" xmlns="http://www.w3.org/2000/svg">
  <defs/>
  <path d="M68.38,85.39 L60.95,86.09 C60.95,86.09 60.16,99.03 59.29,106.38 C58.64,111.86 56.86,116.1 55.88,118.36 C55.01,120.37 55.71,123.7 59.38,123.87 C63.23,124.04 64.89,121.95 65.5,119.5 C66.11,117.05 67.69,111.63 68.04,104.02 C68.39,96.41 68.38,85.39 68.38,85.39 Z" fill="#94A71A"/>
  <path d="M65.23,103.75 C65.23,103.75 68.08,96.08 75.95,95.29 C86.43,94.24 91.72,101.56 91.98,103.05 C92.24,104.54 84.23,110.76 76.89,110.76 C68.76,110.76 64.97,106.72 64.97,106.72 L65.23,103.75 Z" fill="#94A71A"/>
  <path d="M85.61,102.35 C85.96,100.82 83.34,99.38 78.62,99.81 C73.9,100.25 71.48,101.6 70.34,102.39 C69.2,103.18 66.64,104.89 67.25,105.5 C67.86,106.11 71.74,104.51 75.49,103.93 C81.99,102.93 85.2,104.13 85.61,102.35 Z" fill="#728034"/>
  <path d="M60.95,109.62 C60.95,109.62 60.05,100.59 50.77,97.76 C43.07,95.42 34.09,101.71 33.89,102.98 C33.69,104.25 39.71,111.05 46.35,112.96 C53.32,114.98 60.08,113.44 60.95,109.62 Z" fill="#94A71A"/>
  <path d="M39.72,104.2 C39.98,105.61 43.67,105.41 48.63,106.41 C53.59,107.41 57.2,109.69 57.87,109.16 C58.54,108.63 56.01,104.27 48.49,102.46 C42.94,101.12 39.52,103.13 39.72,104.2 Z" fill="#728034"/>
  <path d="M56.27,84.57 C56.27,84.57 57.16,88.3 59.8,92.79 C61.96,96.46 64.6,99.17 65.54,99.17 C66.48,99.17 70.87,94.28 72.75,89.59 C73.36,88.08 74.22,83.49 74.22,83.49 C74.22,83.49 78.24,86.84 80.72,88.38 C83.2,89.92 88.22,91.8 88.96,91.13 C89.7,90.46 90.84,84.5 90.84,82.29 C90.84,80.08 90.49,76 90.49,76 C90.49,76 93.94,77.2 97.72,77.47 C100.53,77.67 104.28,77.4 104.89,76.53 C105.49,75.66 103.49,70.23 101.94,67.82 C99.8,64.47 96.58,62.19 96.58,62.19 C96.58,62.19 101.4,60.52 104.62,58.57 C107.84,56.63 109.78,54.48 109.78,54.48 C109.78,54.48 106.77,50.93 103.55,48.79 C100.33,46.65 96.58,45.04 96.58,45.04 C96.58,45.04 100.87,42.49 104.15,39.21 C106.3,37.06 108.1,33.25 108.1,33.25 C108.1,33.25 103.81,30.64 99.39,29.57 C94.97,28.5 90.01,29.57 90.01,29.57 C90.01,29.57 92.42,25.35 93.02,21.2 C93.62,17.05 92.69,13.5 92.69,13.5 C92.69,13.5 87.47,13.1 82.91,16.18 C78.36,19.26 77.22,21.61 77.22,21.61 C77.22,21.61 77.71,16.22 76.57,11.53 C75.59,7.5 72.8,3.93 72.8,3.93 C72.8,3.93 69.11,4.79 65.76,9.54 C63.37,12.93 62.24,18.37 62.24,18.37 C62.24,18.37 60.21,12.76 57.66,9.88 C55.11,7 52.1,5.32 51.5,5.41 C50.9,5.5 48.02,9.43 47.35,15.73 C46.87,20.26 48.35,23.17 48.35,23.17 C48.35,23.17 44.4,20.31 40.51,18.95 C35.55,17.21 31.21,16.96 30.86,17.28 C30.51,17.6 30.19,22.5 32.4,28.13 C33.82,31.76 36.42,34.63 36.42,34.63 C36.42,34.63 32.02,33.16 26.51,33.49 C22.02,33.76 19.04,34.96 18.87,35.37 C18.7,35.78 20.43,40.15 23.89,43.54 C27.24,46.82 31.19,48.43 31.19,48.43 C31.19,48.43 26.68,49.61 23.21,51.9 C19.1,54.62 17.76,58.15 17.8,58.61 C17.84,59.07 21.02,62.43 24.97,63.57 C28.92,64.71 32.47,64.17 32.47,64.17 C32.47,64.17 28.59,67.39 26.44,71.67 C24.87,74.8 23.65,78.71 23.96,79.11 C24.27,79.51 28.3,80.88 32.6,80.32 C38.23,79.58 41.84,77.04 41.84,77.04 C41.84,77.04 40.26,82.33 40.39,86.22 C40.52,90.1 41.69,93.8 42.17,94.06 C42.65,94.32 47.6,92.79 50.94,90.24 C54.32,87.65 56.27,84.57 56.27,84.57 Z" fill="#FFB901"/>
  <path d="M64.37,24.54 C49.41,24.67 36.35,35.07 37.3,54.97 C38.34,76.75 66.92,88.17 83.11,73.82 C97.01,61.5 93.11,43.81 88.06,36.96 C82.91,29.98 76.37,24.43 64.37,24.54 Z" fill="#D05416"/>
  <path d="M64.16,31.91 C55.74,31.85 44.25,37.58 44.57,52.66 C44.88,67.5 57.31,73.95 67,73.51 C78.37,72.98 85.43,62.98 85.53,51.92 C85.62,42.75 79.32,32.01 64.16,31.91 Z" fill="#6D4D42"/>
</svg>