<svg viewBox="0 0 128 128" xmlns="http://www.w3.org/2000/svg">
  <defs>
    <radialGradient id="SVGID_1_" cx="50.188253" cy="-21.611971" gradientTransform="matrix(0.6257 0.78 -0.5815 0.4665 0 0)" gradientUnits="userSpaceOnUse" r="90.9511">
      <stop offset="0.506" stop-color="#17A1F3"/>
      <stop offset="0.7668" stop-color="#1B7FFA"/>
      <stop offset="0.9624" stop-color="#1366F0"/>
      <stop offset="1" stop-color="#1160EE"/>
    </radialGradient>
    <radialGradient id="SVGID_2_" cx="-2.808471" cy="64.999215" gradientTransform="matrix(0.9806 -0.1961 0.1182 0.5911 0 0)" gradientUnits="userSpaceOnUse" r="40.2992">
      <stop offset="0.3442" stop-color="#E3DDA6"/>
      <stop offset="0.9961" stop-color="#E3DDA6" stop-opacity="0"/>
    </radialGradient>
    <radialGradient id="SVGID_3_" cx="42.1882" cy="107.5727" gradientUnits="userSpaceOnUse" r="31.591">
      <stop offset="0.7225" stop-color="#E3DDA6"/>
      <stop offset="1" stop-color="#E3DDA6" stop-opacity="0"/>
    </radialGradient>
    <radialGradient id="SVGID_4_" cx="62.9187" cy="134.2158" gradientUnits="userSpaceOnUse" r="22.6818">
      <stop offset="0.4033" stop-color="#E3DDA6"/>
      <stop offset="1" stop-color="#E3DDA6" stop-opacity="0"/>
    </radialGradient>
  </defs>
  <path d="M3.14,64.68 C3.82,89.08 20.13,124.23 64.59,123.78 C107.91,123.34 125.35,87.48 123.99,61.72 C122.62,35.96 102.33,4.26 62.2,4.49 C22.06,4.71 2.4,38.45 3.14,64.68 Z" fill="url(#SVGID_1_)"/>
  <path d="M63.03,4.48 C63.03,4.48 62.58,5.75 65.2,6.55 C67.82,7.35 69.21,7.4 71.08,8.26 C72.95,9.11 74.07,10.45 76.74,11.84 C79.41,13.23 80.32,13.55 80.8,12.59 C81.02,12.16 80.11,10.24 80.11,10.24 C80.11,10.24 80.54,8.42 79.9,7.78 C79.36,7.24 76.38,6.03 75.31,5.6 C74.31,5.2 70.72,4.76 69,4.65 C64.78,4.39 63.03,4.48 63.03,4.48 Z" fill="#FFFFFF"/>
  <path d="M49.06,49.8 C49.15,50.03 49.71,51.17 50.83,51.48 C51.95,51.79 54.91,51.85 55.62,52.13 C56.34,52.41 58.08,53.31 58.55,53.59 C59.02,53.87 60.85,55.41 61.29,55.55 C62.32,55.89 62.91,55.27 63.38,55.43 C63.85,55.59 64.13,56.49 65.06,56.55 C65.62,56.59 66.34,55.68 66.87,55.58 C67.4,55.48 70.11,55.7 70.17,54.83 C70.23,53.96 68.33,52.15 67.21,52.15 C66.27,52.15 66.12,52.96 65.4,52.99 C64.68,53.02 64.22,52.24 63.38,52.27 C62.54,52.3 62.1,53.02 61.64,52.8 C61.17,52.58 56.16,49.13 54.85,48.75 C53.54,48.38 50.12,48.84 49.65,48.97 C49.19,49.12 48.91,49.4 49.06,49.8 Z" fill="#7ADD8A"/>
  <path d="M27.19,21.25 C27.94,19.43 29.12,16.68 30.72,14.91 C32.33,13.14 35.08,10.68 35.08,10.68 C35.08,10.68 39.98,8.11 47.37,6.19 C54.76,4.27 61.91,4.49 61.91,4.49 C61.91,4.49 61.29,5.07 61.34,5.39 C61.39,5.71 61.39,6.25 62.68,6.73 C63.96,7.21 66.53,7.53 67.23,8.34 C67.93,9.14 68.14,10.21 67.34,10.75 C66.54,11.29 65.09,11.12 63.7,10.7 C62.31,10.27 62.36,10.22 62.2,9.74 C62.04,9.26 63.59,9.04 63.38,8.56 C63.17,8.08 62.47,8.29 61.67,7.86 C60.87,7.43 60.29,7.33 59.79,7.54 C59.29,7.75 58.8,8.81 58.58,9.34 C58.36,9.87 58.24,10.05 58.02,10.21 C57.8,10.37 56.44,10.3 56.07,10.33 C55.7,10.36 54.24,11.04 53.38,11.44 C52.51,11.84 50.69,12.28 50.28,12.62 C49.88,12.96 49.51,13.52 50.19,13.95 C50.87,14.38 52.39,14.82 53.29,15.13 C54.19,15.44 55.77,15.47 55.98,15.75 C56.2,16.03 56.01,17.33 56.17,17.52 C56.32,17.71 56.91,18.48 57.28,18.42 C57.65,18.36 58.18,16.93 58.39,16.5 C58.61,16.07 60.09,15.57 59.97,14.89 C59.85,14.21 59.16,14.08 59.13,13.68 C59.1,13.28 59.59,12.44 59.56,12.22 C59.53,12 59.59,10.76 60.24,10.64 C60.89,10.52 61.79,11.01 62.53,11.26 C63.27,11.51 64.02,11.23 65.16,12 C66.31,12.77 66.06,13.36 66.62,13.39 C67.18,13.42 67.21,12.49 67.95,12.37 C68.69,12.25 70.09,13.64 71.85,14.69 C73.61,15.74 76,17.2 76.71,18.22 C77.42,19.24 77.17,19.49 77.73,19.86 C78.29,20.23 80.15,21.25 80.24,21.69 C80.33,22.12 80.21,22.71 78.38,22.59 C76.55,22.47 75.78,22 75.34,21.54 C74.91,21.08 74.88,20.64 75,20.36 C75.12,20.08 75.62,20.05 75.62,20.05 C75.62,20.05 75.9,18.9 75.16,18.56 C74.42,18.22 73.7,18 71.41,18.37 C69.12,18.74 67.57,19.27 67.26,19.76 C66.95,20.26 67.23,20.87 67.63,20.87 C68.03,20.87 69.49,20.03 70.01,20.19 C70.54,20.34 70.01,22.05 70.41,22.3 C70.81,22.55 72.02,22.42 72.67,22.45 C73.32,22.48 74,22.39 74.34,22.91 C74.68,23.43 73.75,23.93 72.88,24.3 C72.01,24.67 70.74,25.51 70.37,25.82 C70,26.13 69.38,26.41 69.13,25.88 C68.88,25.35 69.16,24.36 69.16,24.36 C69.16,24.36 67.05,25.2 66.71,25.6 C66.37,26 66.9,27.24 66.21,27.89 C65.53,28.54 64.32,28.04 63.7,28.32 C63.08,28.6 62,29.65 61.28,30.52 C60.57,31.39 60.2,31.85 60.2,32.47 C60.2,33.09 60.88,33.71 59.77,34.64 C58.66,35.57 58.07,35.35 57.08,35.82 C56.09,36.28 54.6,37.15 54.01,38.45 C53.42,39.75 54.16,42.35 54.29,43.25 C54.41,44.15 54.85,46.16 53.83,46.19 C52.81,46.22 52.68,45.57 51.94,43.56 C51.2,41.55 50.92,40.65 50.36,40.37 C49.8,40.09 49.09,40.34 47.85,40.49 C46.61,40.64 41.62,40.86 40.6,40.86 C39.58,40.86 38.28,40.55 37.13,42.04 C35.98,43.53 36.08,44.36 36.05,45.48 C36.02,46.6 35.65,46.94 35.12,47.9 C34.59,48.86 34.44,51.52 34.62,51.96 C34.81,52.39 36.39,54.13 36.66,54.13 C36.94,54.13 39.51,54.25 39.94,54.1 C40.37,53.95 40.87,53.33 41.12,52.71 C41.37,52.09 41.27,51.56 41.96,50.88 C42.65,50.2 43.57,50.29 44.16,50.26 C44.75,50.23 45.21,50.11 45.74,50.04 C46.27,49.98 47.07,50.78 47.04,51.06 C47.01,51.34 45.86,52.52 45.55,53.17 C45.24,53.82 45.24,53.82 45.24,53.82 C45.24,53.82 45.02,54.81 44.74,55.24 C44.46,55.67 44.24,56.11 44,56.42 C43.75,56.73 43.91,57.32 44.43,57.44 C44.96,57.56 44.86,57.16 45.05,57.07 C45.24,56.98 48.21,57.04 48.83,57.1 C49.45,57.16 50.38,58.06 50.47,58.37 C50.56,58.68 50.59,60.51 50.25,61.44 C49.91,62.37 49.35,62.86 49.29,63.21 C49.23,63.55 49.38,64.08 49.38,64.08 C49.38,64.08 49.84,64.95 50.53,65.6 C51.21,66.25 51.95,66.65 51.95,66.65 C51.95,66.65 53.53,66.65 54.37,66.62 C55.21,66.59 55.79,66.47 56.35,66.87 C56.91,67.27 57.9,68.45 58.12,68.42 C58.34,68.39 58.65,67.18 60.38,65.79 C62.11,64.4 62.8,64.24 63.82,64.09 C64.84,63.94 65.03,64.4 65.03,64.4 C65.03,64.4 65.49,64.8 66.3,64.46 C67.11,64.12 67.01,63.62 68.25,63.69 C69.49,63.76 70.26,64.43 71.1,64.65 C71.94,64.87 73.52,64.99 75.19,65.08 C76.86,65.17 77.88,64.93 78.5,65.02 C79.12,65.11 79.65,65.83 79.99,66.13 C80.33,66.44 80.33,66.94 80.33,66.94 C80.33,66.94 80.98,67.09 81.6,67.53 C82.22,67.96 82.81,69.05 83.58,69.36 C84.35,69.67 85.75,69.51 87.39,69.61 C89.03,69.7 89.5,69.89 90.33,70.69 C91.16,71.49 91.66,72.55 91.97,73.45 C92.28,74.35 92.74,76.42 92.74,76.42 C92.74,76.42 93.95,76.05 95.84,76.82 C97.73,77.59 97.88,78.37 97.88,78.37 C97.88,78.37 100.82,78.28 101.63,78.31 C102.44,78.34 104.54,79.77 104.76,80.26 C104.98,80.76 104.54,84.57 104.61,85.15 C104.67,85.74 102.44,88.93 101.88,89.46 C101.32,89.99 100.95,90.61 100.08,93.08 C99.21,95.55 98.59,97.2 98.13,97.66 C97.67,98.12 96.21,99.86 94.69,100.6 C93.17,101.34 92.27,101.22 91.25,101.71 C90.23,102.21 89.45,103.82 88.96,104.93 C88.46,106.04 88.77,107.41 88.5,107.84 C88.22,108.27 84.66,111.77 83.98,111.99 C83.3,112.21 80.11,111.65 79.58,112.08 C79.05,112.51 80.23,113.75 80.11,114.16 C79.99,114.56 78.96,115.65 78.07,116.33 C77.17,117.01 76.4,118 75.78,118.1 C75.16,118.19 74.39,117.76 73.77,118.47 C73.15,119.18 73.83,120.33 73.55,120.82 C73.27,121.32 72.63,121.77 72.26,122.45 C71.89,123.13 71.62,123.37 71.62,123.37 C71.62,123.37 68.8,123.62 67.12,123.71 C65.45,123.8 62.06,123.76 62.06,123.76 C62.06,123.76 62.82,122.27 62.92,120.78 C63.02,119.29 62.55,118.49 62.86,117.62 C63.17,116.75 64.16,115.73 64.16,115.73 C64.16,115.73 64.87,112.32 64.81,110 C64.75,107.68 64.47,106.31 64.44,105.88 C64.41,105.45 64.66,97.77 64.53,97.3 C64.41,96.84 62.76,95.97 61.96,95.26 C61.15,94.55 58.96,93.59 58.37,92.69 C57.78,91.79 57.63,91.45 57.41,91.11 C57.19,90.77 55.52,87.77 55.12,86.99 C54.72,86.22 53.73,85.53 53.32,84.45 C52.91,83.37 52.92,82.47 53.23,82.13 C53.54,81.79 54.04,81.51 53.94,81.11 C53.85,80.71 52.95,80.65 53.26,79.34 C53.57,78.03 54.65,76.86 54.93,76.61 C55.21,76.36 55.43,76.64 55.7,76.39 C55.98,76.14 57.71,74.66 57.93,74.38 C58.15,74.1 58.08,72.12 57.78,71.28 C57.47,70.44 56.23,69.08 55.77,68.93 C55.31,68.78 54.19,70.08 53.2,70.04 C52.21,70.01 51.56,70.04 50.01,69.05 C48.46,68.06 46.29,66.14 45.83,65.33 C45.37,64.52 45.55,64.22 45.27,63.78 C44.99,63.35 43.54,62.57 42.73,62.17 C41.92,61.77 41.09,61.89 40.62,61.58 C40.15,61.27 37.89,58.76 37.46,58.24 C37.03,57.71 36.65,57.56 36.35,57.53 C36.05,57.5 35.76,57.93 35.51,57.99 C35.26,58.05 33.25,58.08 32.94,57.93 C32.63,57.78 30.21,56.54 29.01,55.42 C27.81,54.3 26.28,53.53 25.6,52.6 C24.92,51.67 25.63,50.68 25.72,50.18 C25.81,49.68 25.69,47.83 25.63,47.18 C25.57,46.53 24.45,45.35 24.3,44.05 C24.15,42.75 23.71,41.45 23.59,40.83 C23.47,40.21 23.53,38.04 23.37,37.92 C23.22,37.8 22.44,37.49 22.26,38.85 C22.08,40.21 22.51,41.23 22.6,42.78 C22.69,44.33 22.69,45.26 22.91,45.72 C23.13,46.18 23.87,47.14 23.28,47.45 C22.69,47.76 21.92,47.11 21.48,46.24 C21.05,45.37 21.39,43.73 21.02,42.93 C20.65,42.13 20.52,40.55 20.43,39.77 C20.34,39 20,37.04 20.09,35.34 C20.18,33.64 20.71,33.48 20.71,33.48 C20.71,33.48 20.71,31.5 20.74,31.1 C20.77,30.7 22.75,26.98 24.36,24.91 C26.01,22.86 27.19,21.25 27.19,21.25 Z" fill="#7ADD8A"/>
  <path d="M41.62,56.63 C41.78,54.11 40.41,53.96 39.98,54.11 C39.55,54.26 36.98,54.14 36.7,54.14 C36.42,54.14 34.84,52.41 34.66,51.97 C34.47,51.54 34.63,48.87 35.16,47.91 C35.69,46.95 36.06,46.61 36.09,45.49 C36.12,44.37 36.03,43.54 37.17,42.05 C38.32,40.56 39.62,40.87 40.64,40.87 C41.66,40.87 46.65,40.65 47.89,40.5 C49.13,40.35 49.84,40.1 50.4,40.38 C50.96,40.66 51.24,41.56 51.98,43.57 C52.72,45.58 52.85,46.23 53.87,46.2 C54.89,46.17 54.46,44.16 54.33,43.26 C54.21,42.36 53.46,39.76 54.05,38.46 C54.64,37.16 56.13,36.29 57.12,35.83 C58.11,35.37 58.7,35.58 59.81,34.65 C60.92,33.72 60.24,33.1 60.24,32.48 C60.24,31.86 60.61,31.4 61.32,30.53 C62.03,29.66 63.12,28.61 63.74,28.33 C64.36,28.05 65.57,28.55 66.25,27.9 C66.93,27.25 66.4,26.01 66.75,25.61 C67.09,25.21 69.2,24.37 69.2,24.37 C69.2,24.37 68.92,25.36 69.17,25.89 C69.42,26.42 70.04,26.14 70.41,25.83 C70.78,25.52 72.05,24.68 72.92,24.31 C73.79,23.94 74.72,23.44 74.38,22.92 C74.04,22.4 73.36,22.49 72.71,22.46 C72.06,22.43 70.85,22.55 70.45,22.31 C70.05,22.06 70.57,20.36 70.05,20.2 C69.52,20.05 68.07,20.88 67.67,20.88 C67.27,20.88 66.99,20.26 67.3,19.77 C67.61,19.27 57.67,18.35 57.3,18.41 C56.93,18.47 56.34,17.7 56.19,17.51 C56.04,17.32 56.22,16.02 56,15.74 C55.78,15.46 54.2,15.43 53.31,15.12 C52.41,14.81 50.89,14.38 50.21,13.94 C49.53,13.5 49.9,12.95 50.3,12.61 C50.7,12.27 52.53,11.84 53.4,11.43 C54.27,11.03 55.72,10.35 56.09,10.32 C56.46,10.29 57.82,10.35 58.04,10.2 C58.26,10.05 58.38,9.86 58.6,9.33 C58.82,8.8 59.31,7.75 59.81,7.53 C60.31,7.31 61.42,5.71 61.37,5.39 C61.32,5.07 61.94,4.49 61.94,4.49 C61.94,4.49 54.79,4.26 47.4,6.19 C40.01,8.12 35.11,10.68 35.11,10.68 C35.11,10.68 32.36,13.14 30.75,14.91 C29.14,16.68 27.97,19.43 27.22,21.25 C27.22,21.25 26.04,22.86 24.43,24.94 C22.82,27.02 20.84,30.73 20.81,31.13 C20.78,31.53 20.78,33.51 20.78,33.51 C20.78,33.51 20.25,33.66 20.16,35.37 C20.07,37.07 20.41,39.02 20.5,39.8 C20.59,40.57 20.72,42.15 21.09,42.96 C21.46,43.77 21.12,45.41 21.55,46.27 C21.98,47.14 22.76,47.79 23.35,47.48 C23.94,47.17 23.2,46.21 22.98,45.75 C22.76,45.29 22.76,44.36 22.67,42.81 C22.58,41.26 22.14,40.24 22.33,38.88 C22.52,37.52 23.29,37.83 23.44,37.95 C23.59,38.07 23.53,40.24 23.66,40.86 C23.78,41.48 24.22,42.78 24.37,44.08 C24.52,45.38 25.64,46.56 25.7,47.21 C25.76,47.86 25.89,49.72 25.79,50.21 C25.7,50.71 24.98,51.7 25.67,52.63 C26.35,53.56 27.87,54.33 29.08,55.45 C30.29,56.57 32.7,57.8 33.01,57.96 C33.32,58.11 35.33,58.08 35.58,58.02 C35.83,57.96 36.11,57.52 36.42,57.56 C36.73,57.6 38.04,58.7 38.59,58.61 C39.54,58.44 41.5,58.49 41.62,56.63 Z" fill="url(#SVGID_2_)"/>
  <path d="M57.83,71.27 C57.95,72.15 58.2,74.09 57.98,74.37 C57.76,74.65 56.03,76.14 55.75,76.38 C55.47,76.63 55.25,76.35 54.98,76.6 C54.7,76.85 53.62,78.02 53.31,79.33 C53,80.64 53.9,80.69 53.99,81.1 C54.08,81.51 53.59,81.78 53.28,82.12 C52.97,82.46 52.97,83.36 53.37,84.44 C53.77,85.52 54.76,86.21 55.17,86.98 C55.57,87.75 57.25,90.76 57.46,91.1 C57.68,91.44 57.83,91.78 58.42,92.68 C59.01,93.58 61.21,94.54 62.01,95.25 C62.82,95.96 64.46,96.83 64.58,97.29 C64.7,97.75 64.46,105.44 64.49,105.87 C64.52,106.3 64.8,107.67 64.86,109.99 C64.92,112.31 64.21,115.72 64.21,115.72 C64.21,115.72 63.22,116.74 62.91,117.61 C62.6,118.48 63.06,119.28 62.97,120.77 C62.88,122.26 62.11,123.75 62.11,123.75 C62.11,123.75 65.49,123.79 67.17,123.7 C68.84,123.61 71.67,123.36 71.67,123.36 C71.67,123.36 71.94,123.12 72.31,122.44 C72.68,121.76 73.32,121.31 73.6,120.81 C73.88,120.31 73.2,119.17 73.82,118.46 C74.44,117.75 75.21,118.18 75.83,118.09 C76.45,118 77.22,117.01 78.12,116.32 C79.02,115.64 80.04,114.55 80.16,114.15 C80.28,113.75 79.11,112.51 79.63,112.07 C80.16,111.64 83.35,112.19 84.03,111.98 C84.71,111.76 88.27,108.26 88.55,107.83 C88.83,107.4 88.52,106.03 89.01,104.92 C89.51,103.81 89.84,86.08 84.55,78.38 C78.36,69.36 57.24,66.73 57.83,71.27 Z" fill="url(#SVGID_3_)"/>
  <path d="M57.85,71.31 C57.97,72.19 58.22,74.13 58,74.41 C57.78,74.69 56.05,76.18 55.77,76.42 C55.49,76.67 55.27,76.39 55,76.64 C54.72,76.89 53.64,78.06 53.33,79.37 C53.02,80.68 53.92,80.73 54.01,81.14 C54.1,81.55 53.61,81.82 53.3,82.16 C52.99,82.5 52.99,83.4 53.39,84.48 C53.79,85.56 54.78,86.25 55.19,87.02 C55.59,87.79 57.27,90.8 57.48,91.14 C57.69,91.48 57.85,91.82 58.44,92.72 C59.03,93.62 61.23,94.58 62.03,95.29 C62.84,96 64.48,96.87 64.6,97.33 C64.72,97.79 64.48,105.48 64.51,105.91 C64.54,106.34 64.82,107.71 64.88,110.03 C64.94,112.35 64.23,115.76 64.23,115.76 C64.23,115.76 63.24,116.78 62.93,117.65 C62.62,118.52 63.08,119.32 62.99,120.81 C62.9,122.3 62.13,123.79 62.13,123.79 C62.13,123.79 65.51,123.83 67.19,123.74 C68.86,123.65 71.69,123.4 71.69,123.4 C71.69,123.4 71.96,123.16 72.33,122.48 C72.7,121.8 73.34,121.35 73.62,120.85 C73.9,120.35 73.22,119.21 73.84,118.5 C74.46,117.79 75.23,118.22 75.85,118.13 C76.47,118.04 77.24,117.05 78.14,116.36 C79.04,115.68 80.06,114.59 80.18,114.19 C80.3,113.79 79.13,112.55 79.65,112.11 C80.17,111.67 83.37,112.23 84.05,112.02 C84.73,111.8 88.29,108.3 88.57,107.87 C88.85,107.44 88.54,106.07 89.03,104.96 C89.53,103.85 89.86,86.12 84.57,78.42 C78.37,69.39 57.25,66.77 57.85,71.31 Z" fill="url(#SVGID_4_)"/>
  <path d="M47.21,22.14 C47.49,22.52 48.76,22.06 49.36,22.09 C49.96,22.12 50.61,22.36 50.69,22.91 C50.77,23.45 50.17,23.54 49.82,24.24 C49.64,24.6 48.43,27.03 49.09,27.31 C49.96,27.69 50.39,26.82 50.58,26.41 C50.77,26 51.23,25.13 51.23,25.13 C51.23,25.13 51.75,23.99 52.43,24.07 C53.65,24.21 53.16,25.95 53.16,25.95 C53.16,25.95 52.89,27.25 53.54,27.55 C54.19,27.85 54.82,27.63 55.17,27.5 C55.52,27.36 56.12,27.5 56.83,27.2 C57.54,26.9 57.84,26.63 58.32,26.44 C58.81,26.25 59.24,26.36 59.3,25.92 C59.35,25.49 58.92,25.05 58.19,25 C57.46,24.95 56.56,25.79 56.26,26.06 C55.96,26.33 54.98,26.52 54.87,25.82 C54.76,25.12 55.39,25.06 55.85,24.79 C56.31,24.52 56.61,24.14 56.61,24.14 C56.61,24.14 55.77,23.05 55.52,22.97 C55.28,22.89 54.3,23.19 53.32,22.51 C52.41,21.88 52.04,21.02 51.8,20.8 C51.56,20.58 50.47,20.23 49.41,20.45 C48.35,20.67 46.77,21.54 47.21,22.14 Z" fill="#4B9EEC"/>
</svg>