<svg viewBox="0 0 128 128" xmlns="http://www.w3.org/2000/svg">
  <defs/>
  <path d="M31.05,41.19 C31.05,41.19 28.09,18.38 40.76,19.79 C53.28,21.18 55.74,36.72 71.73,48.79 C94.68,66.11 104.82,66.81 109.04,73 C113.26,79.19 112.14,84.54 112.14,84.54 C112.14,84.54 77.65,85.53 60.33,70.74 C43.01,55.95 31.05,41.19 31.05,41.19 Z" fill="#F8AF3C"/>
  <path d="M17.11,13.31 C26.07,8.83 34.21,15.21 36.12,20.63 C37.9,25.73 47.38,40.76 54,47.66 C59.1,52.99 74.66,67.61 87.08,73 C101.02,79.05 113.27,77.79 118.76,81.73 C124.25,85.67 125.2,96.16 122.53,99.4 C119.86,102.64 113.27,106.23 102.57,102.29 C91.87,98.35 57.38,90.46 41.33,73.71 C25.28,56.96 8.39,26.12 9.65,22.6 C10.91,19.08 12.61,15.57 17.11,13.31 Z" fill="#EC6B31"/>
  <path d="M15.99,45.55 C12.83,39.81 8.11,34.92 8.81,26.12 C9.16,21.76 11.63,18.31 11.63,18.31 C11.63,18.31 11.07,24.57 14.73,27.25 C18.39,29.93 23.74,31.75 27.82,37.53 C31.9,43.31 37.67,57.8 55.98,71.88 C74.62,86.22 89.63,84.83 96.38,89.34 C103.14,93.84 104.69,101.17 112.71,101.02 C120.73,100.88 123.41,97.78 123.41,97.78 C123.41,97.78 121.02,106.09 112.01,106.93 C103,107.77 95.96,103.83 92.02,102.43 C88.08,101.03 48.24,88.63 37.12,74.98 C26,61.33 17.54,48.37 15.99,45.55 Z" fill="#AF5832"/>
  <path d="M29.5,95.11 C48.26,110.04 71.03,117.49 85.25,113.97 C101.96,109.83 100.19,99.47 98.91,96.79 C97.08,92.99 90.32,90.31 83.85,88.77 C77.37,87.22 62.13,83.43 46.82,69.34 C29.08,53.01 25.33,32.42 15.42,32.32 C8.88,32.25 5.22,35.63 4.3,45.55 C3.34,55.96 10.22,79.76 29.5,95.11 Z" fill="#F5B03C"/>
  <path d="M26.87,14.3 C24.29,12.74 22.04,15.09 21.8,19.56 C21.61,23.13 23.02,26.52 27.06,28.48 C30.44,30.12 35.65,31.48 37.43,35 C39.21,38.52 37.62,50.49 42.69,55.51 C47.76,60.53 59.33,59.44 63.78,64.04 C68.23,68.64 69.15,77.52 75.63,80.85 C82.11,84.18 88.02,79.49 93.98,81.32 C99.94,83.15 104.82,91.5 105.48,92.72 C106.14,93.94 108.27,96.38 110.41,94.97 C112.75,93.42 110.6,90.7 109.85,89.34 C109.1,87.98 102.76,77.61 94.93,75.45 C87.1,73.29 83.1,77.19 78.51,75.26 C73.91,73.34 73.77,62.82 66.97,58.32 C60.17,53.82 51.2,55.32 47.17,51.14 C43.14,46.96 46.13,35.93 43.09,31.43 C39.66,26.36 29,24.23 27.7,20.82 C26.62,18.06 28.97,15.57 26.87,14.3 Z" fill="#FFE361"/>
</svg>