<svg viewBox="0 0 128 128" xmlns="http://www.w3.org/2000/svg">
  <defs/>
  <path id="SVGID_5_" d="M109.44,34.58 C98.68,25.96 83.53,24.22 64.19,24.22 C44.98,24.22 29.92,25.89 19.16,34.4 C2.9,47.29 -1.48,76.26 9.05,94.81 C19.24,112.76 32.75,120.45 64.19,120.45 C95.64,120.45 110.77,111.55 119.34,94.81 C129.01,75.93 125.5,47.43 109.44,34.58 Z M57.28,77.72 L62.37,71.39 C63.26,70.29 64.79,70.23 65.75,71.27 L71.83,77.84 C72.8,78.88 72.43,79.73 71,79.73 L58.25,79.73 C56.82,79.72 56.39,78.81 57.28,77.72 Z M28.83,69.87 L39.91,57.39 C40.55,56.67 41.4,56.79 41.8,57.66 L48.52,72.02 C48.93,72.88 48.48,73.51 47.53,73.4 L29.4,71.36 C28.46,71.25 28.2,70.58 28.83,69.87 Z M96.22,85.77 L91.39,101.65 C91.05,102.75 90.02,103.2 89.1,102.65 L84.09,99.68 C83.18,99.13 81.69,99.17 80.8,99.77 L74.31,104.11 C73.41,104.71 71.99,104.64 71.15,103.95 L65.79,99.6 C64.95,98.92 63.59,98.94 62.77,99.66 L57.48,104.28 C56.65,104.99 55.24,105.12 54.33,104.56 L47.58,100.4 C46.67,99.84 45.15,99.79 44.2,100.27 L38.77,103.06 C37.83,103.54 36.74,103.06 36.37,101.98 L30.7,85.74 C30.33,84.66 30.79,84.17 31.74,84.66 L39.79,88.81 C40.74,89.29 42.15,89.06 42.94,88.3 L46.2,85.15 C46.98,84.39 48.37,84.24 49.28,84.81 L55.59,88.8 C56.49,89.37 57.91,89.26 58.73,88.55 L62.76,85.07 C63.57,84.36 64.97,84.3 65.84,84.94 L70.96,88.68 C71.83,89.33 73.27,89.35 74.16,88.75 L78.95,85.47 C79.84,84.86 81.26,84.91 82.11,85.58 L86.02,88.64 C86.87,89.31 88.3,89.38 89.21,88.78 L95.19,84.85 C96.1,84.25 96.56,84.67 96.22,85.77 Z M99.13,71.12 L81.06,73.59 C80.11,73.72 79.65,73.1 80.04,72.23 L86.41,57.72 C86.79,56.84 87.64,56.69 88.29,57.4 L99.67,69.62 C100.31,70.31 100.07,70.98 99.13,71.12 Z" fill="#F57C00"/>
  <path d="M98.33,38.11 C111.88,52.76 115.99,78.52 108.08,99.36 C105.629,105.825 102.156,111.077 97.621,115.14 C95.204,116.146 92.588,117.011 89.753,117.734 C97.208,113.689 102.484,107.318 105.85,98.44 C113.42,78.47 109.54,53.82 96.6,39.85 C90.83,33.6 83.17,31.12 73.72,30.29 C75.79,31.94 77.67,34.51 79.23,38.5 C84.89,53 86.6,78.49 83.31,99.1 C81.772,108.702 79.244,115.629 75.668,120 C74.476,120.1 73.255,120.183 72.006,120.25 C76.275,116.585 79.225,109.445 80.93,98.7 C84.17,78.49 82.51,53.57 77,39.45 C74.11,32.04 70.28,30.17 65.14,29.95 C65.1,29.95 65.07,29.97 65.03,29.97 L65.03,29.95 L64.75,29.95 C64.35,29.97 63.95,29.98 63.58,29.98 L63.54,29.98 C63.44,29.98 63.35,29.95 63.25,29.95 C57.99,30.1 54.1,31.87 51.16,39.28 C45.45,53.78 43.73,79.32 47.16,98.69 C49.133,109.803 51.848,116.71 55.876,120.249 C54.639,120.185 53.435,120.106 52.261,120.012 C48.929,115.769 46.569,108.978 44.82,99.12 C41.32,79.35 43.09,53.2 48.97,38.31 C50.5,34.44 52.34,31.93 54.37,30.3 C45.06,31.14 37.53,33.58 31.84,39.67 C18.42,54.02 14.37,79.27 22.42,98.4 C26.291,107.621 31.465,113.97 38.712,117.924 C35.822,117.21 33.173,116.339 30.73,115.305 C26.423,111.307 23.005,106.061 20.21,99.41 C11.8,79.4 16.06,52.97 30.14,37.93 C36.71,30.9 45.38,28.38 56.1,27.67 C55.58,27.41 55.08,27.17 54.55,26.97 C53.08,26.42 51.46,26 49.73,25.69 C47.992,25.385 46.231,25.201 44.473,25.181 C47.717,24.786 51.131,24.537 54.715,24.392 C54.926,24.463 55.134,24.535 55.34,24.61 C56.52,25.05 57.57,25.64 58.7,26.3 C59.21,26.58 59.74,26.72 60.36,26.87 L60.92,27.01 C61.74,27.22 62.48,27.39 63.23,27.44 L63.98,27.44 C64.01,27.44 64.04,27.43 64.06,27.43 C64.38,27.43 64.61,27.44 64.84,27.44 C65.17,27.42 65.48,27.35 65.79,27.28 C66.06,27.19 66.34,27.06 66.59,26.95 C66.89,26.82 67.18,26.68 67.45,26.58 C69.33,25.89 71.36,25.23 73.67,24.56 C73.839,24.511 74.006,24.463 74.174,24.417 C78.015,24.587 81.66,24.88 85.107,25.348 C84.693,25.381 84.313,25.513 83.9,25.54 C82.95,25.61 81.98,25.54 81.02,25.63 C78.75,25.84 76.5,26.32 74.31,26.96 C73.51,27.19 72.78,27.42 72.05,27.65 C82.91,28.36 91.67,30.92 98.33,38.11 Z" fill="#FF9800"/>
  <path id="SVGID_3_" d="M58.61,26.89 C58.55,25.84 58.67,24.74 58.67,23.89 C58.67,21.2 57.26,18.97 55.4,17.14 C53.84,15.6 51.18,14.66 49.82,13.08 C49.43,12.62 48.99,11.19 49.07,10.63 C49.41,8.23 51.46,5.6 53.94,5.18 C55.25,4.97 56.38,5.41 57.39,6.17 C63.05,10.44 67.74,14.01 68.67,21.48 C68.85,22.95 69.21,24.48 69.2,26 C69.19,28.43 68.46,29.29 66.04,29.92 C64.41,30.35 61.35,30.55 59.84,29.62 C58.97,29.07 58.68,28.03 58.61,26.89 Z" fill="#2E7D32"/>
  <path d="M57.28,77.72 L62.37,71.39 C63.26,70.29 64.79,70.23 65.75,71.27 L71.83,77.84 C72.8,78.88 72.43,79.73 71,79.73 L58.25,79.73 C56.82,79.72 56.39,78.81 57.28,77.72 Z" fill="#422B0D"/>
  <path d="M28.83,69.87 L39.91,57.39 C40.55,56.67 41.4,56.79 41.8,57.66 L48.52,72.02 C48.93,72.88 48.48,73.51 47.53,73.4 L29.4,71.36 C28.46,71.25 28.2,70.58 28.83,69.87 Z" fill="#422B0D"/>
  <path d="M96.22,85.77 L91.39,101.65 C91.05,102.75 90.02,103.2 89.1,102.65 L84.09,99.68 C83.18,99.13 81.69,99.17 80.8,99.77 L74.31,104.11 C73.41,104.71 71.99,104.64 71.15,103.95 L65.79,99.6 C64.95,98.92 63.59,98.94 62.77,99.66 L57.48,104.28 C56.65,104.99 55.24,105.12 54.33,104.56 L47.58,100.4 C46.67,99.84 45.15,99.79 44.2,100.27 L38.77,103.06 C37.83,103.54 36.74,103.06 36.37,101.98 L30.7,85.74 C30.33,84.66 30.79,84.17 31.74,84.66 L39.79,88.81 C40.74,89.29 42.15,89.06 42.94,88.3 L46.2,85.15 C46.98,84.39 48.37,84.24 49.28,84.81 L55.59,88.8 C56.49,89.37 57.91,89.26 58.73,88.55 L62.76,85.07 C63.57,84.36 64.97,84.3 65.84,84.94 L70.96,88.68 C71.83,89.33 73.27,89.35 74.16,88.75 L78.95,85.47 C79.84,84.86 81.26,84.91 82.11,85.58 L86.02,88.64 C86.87,89.31 88.3,89.38 89.21,88.78 L95.19,84.85 C96.1,84.25 96.56,84.67 96.22,85.77 Z" fill="#422B0D"/>
  <path d="M99.13,71.12 L81.06,73.59 C80.11,73.72 79.65,73.1 80.04,72.23 L86.41,57.72 C86.79,56.84 87.64,56.69 88.29,57.4 L99.67,69.62 C100.31,70.31 100.07,70.98 99.13,71.12 Z" fill="#422B0D"/>
</svg>