<svg viewBox="0 0 128 128" xmlns="http://www.w3.org/2000/svg">
  <defs>
    <radialGradient id="SVGID_2_" cx="-61.916202" cy="66.027223" gradientTransform="matrix(-0.9201 -0.3918 -0.3131 0.7354 0 0)" gradientUnits="userSpaceOnUse" r="16.1348">
      <stop offset="0" stop-color="#FBC02D"/>
      <stop offset="1" stop-color="#FBC02D" stop-opacity="0"/>
    </radialGradient>
    <radialGradient id="SVGID_1_" cx="44.6471" cy="27.193126" gradientTransform="matrix(1 0 0 1.0553 0 0)" gradientUnits="userSpaceOnUse" r="40.9352">
      <stop offset="0" stop-color="#FFF7B3"/>
      <stop offset="1" stop-color="#FFF7B2" stop-opacity="0"/>
    </radialGradient>
  </defs>
  <path d="M97.69,95.25 C91.76,95.08 85.87,93.86 80.36,91.65 C78.57,90.93 76.78,90.18 75.08,89.28 C74.42,88.93 73.59,88.59 73.11,87.99 C72.68,87.45 72.6,86.72 72.38,86.08 C71.51,83.54 69.39,83.33 68.91,83.09 C67.61,82.43 65.11,80.58 65.84,78.87 C66.31,77.78 73.61,74.37 72.12,68.11 C71.39,65.06 69.14,66.41 61.88,63.77 C58.77,62.64 56.22,60.31 54.25,57.65 C47.7,48.84 47.08,39.97 50.13,29.65 C52.55,21.45 57.06,13.92 63.12,7.89 C64.65,6.37 63.43,3.77 61.29,4.02 C30.41,7.61 6.67,34.56 8.19,66.73 C9.64,97.29 34.28,122.17 64.82,123.9 C87.9,125.2 108.35,113.5 119.53,95.44 C120.66,93.61 118.84,91.4 116.82,92.14 C110.89,94.33 104.43,95.44 97.69,95.25 Z" fill="#FFE558"/>
  <path d="M97.69,95.25 C91.76,95.08 85.87,93.86 80.36,91.65 C78.57,90.93 76.78,90.18 75.08,89.28 C74.42,88.93 73.59,88.59 73.11,87.99 C72.68,87.45 72.6,86.72 72.38,86.08 C71.51,83.54 69.39,83.33 68.91,83.09 C67.61,82.43 65.11,80.58 65.84,78.87 C66.31,77.78 73.61,74.37 72.12,68.11 C71.39,65.06 69.14,66.41 61.88,63.77 C58.77,62.64 56.22,60.31 54.25,57.65 C47.7,48.84 47.08,39.97 50.13,29.65 C52.55,21.45 57.06,13.92 63.12,7.89 C64.65,6.37 63.43,3.77 61.29,4.02 C30.41,7.61 6.67,34.56 8.19,66.73 C9.64,97.29 34.28,122.17 64.82,123.9 C87.9,125.2 108.35,113.5 119.53,95.44 C120.66,93.61 118.84,91.4 116.82,92.14 C110.89,94.33 104.43,95.44 97.69,95.25 Z" fill="#FFE558"/>
  <path d="M111.32,103.59 C99.19,114.12 81.16,119.71 66.82,118.9 C36.28,117.17 11.64,92.29 10.19,61.73 C9.78,53 11.49,44.19 14.88,36.06 C10.14,45.17 7.66,55.64 8.19,66.73 C9.64,97.29 34.28,122.17 64.82,123.9 C87.9,125.2 108.35,113.5 119.53,95.44 C119.88,94.88 119.95,94.28 119.81,93.74 C117.57,97.38 114.67,100.67 111.32,103.59 Z" fill="#FBC02D"/>
  <path d="M61.29,4.02 C61.29,4.02 49.07,14.17 44.65,26.51 C41.02,36.65 38.38,57.31 62.38,65.82 L45.17,82.55 C44.57,82.05 45.22,75.73 34.39,70.41 C31.07,68.78 23.72,71.87 20.24,70.64 C3.5,64.7 12.53,40.72 13.66,38.54 C31.36,4.62 61.29,4.02 61.29,4.02 Z" fill="url(#SVGID_1_)"/>
  <path d="M40.68,69.06 C44.18,69.67 46.98,66.77 47.36,63.53 C47.66,60.94 46.63,58.56 45.4,57.51 C40.26,53.12 30.32,57.52 30.59,66.2 C30.61,66.76 30.81,67.35 31.26,67.69 C31.64,66.96 32.33,63.64 35.34,62.29 C35.56,62.19 35.85,62.19 36.05,62.33 C36.32,62.52 35.67,68.19 40.68,69.06 Z" fill="#5D4037"/>
  <path d="M62.14,93.19 C55.62,93.19 52.09,90.3 50.53,88.31 C49.99,87.63 50.15,86.64 50.85,86.13 L50.85,86.13 C51.32,85.79 51.95,85.74 52.46,86.02 C57.29,88.69 63.83,89.19 69.32,86.33 C70.41,85.76 71.17,84.39 71.91,85.11 C72.66,85.83 72.42,87.59 71.63,88.7 C70.35,90.53 67.76,93.19 62.14,93.19 Z" fill="#5D4037"/>
  <path d="M65.75,79.83 C65.69,79.51 65.71,79.19 65.85,78.87 C66.32,77.78 73.62,74.37 72.13,68.11 C72.05,67.79 71.96,67.53 71.84,67.3 L71.81,67.32 C71.33,70.07 69.38,72.43 66.96,73.83 C66.23,74.25 65.46,74.6 64.8,75.12 C64.14,75.64 63.59,76.38 63.55,77.22 C63.49,78.29 64.3,79.28 65.29,79.69 C65.44,79.76 65.59,79.79 65.75,79.83 Z" fill="#F2A600"/>
  <path d="M45.17,82.55 C43.62,86.3 37.54,87.34 31.59,84.87 C25.64,82.41 22.07,77.37 23.62,73.63 C25.17,69.88 31.25,68.84 37.2,71.31 C43.15,73.77 46.72,78.8 45.17,82.55 Z" fill="url(#SVGID_2_)"/>
</svg>