<svg viewBox="0 0 128 128" xmlns="http://www.w3.org/2000/svg">
  <defs/>
  <path d="M62.36,120.37 C62.36,120.37 98.82,116.59 105.7,110.57 C109.14,107.56 113.05,101.13 115.33,97.33 C117.61,93.52 119.11,90.79 120.49,87.01 C123.24,79.44 124.62,56.74 120.49,45.39 C116.36,34.04 111.03,23.89 103.63,17.87 C96.36,11.93 83.51,3.92 63.9,3.92 C55.15,3.92 48.52,5.76 42.92,7.7 C34.54,10.61 29.78,13.79 26.58,16.47 C22.74,19.7 15.14,26.37 9.9,38.32 C7.85,42.98 5.59,49.51 4.91,55.35 C2.5,76.16 6.28,93.71 18.32,106.09 C30.36,118.47 34.83,116.75 34.83,116.75 L62.36,120.37 Z" fill="#F47A00"/>
  <path d="M31.28,104.83 C31.28,104.83 29.39,104.83 27.15,103.8 C24.91,102.77 16.66,91.24 15.11,86.77 C13.56,82.3 10.03,66.56 11.67,59.08 C12.61,54.81 13.73,51.51 13.73,51.51 C13.73,51.51 17.89,40.29 18.41,36.68 C18.93,33.07 23.54,28.98 25.77,26.4 C28,23.82 29.55,21.24 33.68,18.83 C37.81,16.42 42.11,16.42 44.86,15.05 C47.61,13.67 51.69,11.18 55.7,10.06 C63.31,7.93 67.91,10.23 72.04,10.06 C76.17,9.89 80.08,11.19 85.15,13.91 C88.76,15.85 91.55,18.08 94.81,20.66 C98.07,23.24 102.6,24.79 105.92,28.97 C109.1,32.97 109.7,37.57 111.6,42.73 C113.49,47.89 115.57,50.61 115.92,54.05 C116.26,57.49 115.96,60.19 116.13,64.14 C116.3,68.09 117.18,71.05 116.98,73.35 C116.56,78.31 114.66,79.4 114.15,82.84 C113.63,86.28 111.43,90.3 110.32,92.49 C107.32,98.42 101.81,101.63 99.49,103.17 C95.46,105.88 31.28,104.83 31.28,104.83 Z" fill="#FFA726"/>
  <path d="M17.12,61.96 C13.57,61.49 10.33,65.12 10.56,69.39 C10.8,73.66 13.64,75.08 16.72,74.29 C20.62,73.29 22.01,69.71 21.93,67.1 C21.85,64.49 20.66,62.43 17.12,61.96 Z" fill="#F27B00"/>
  <path d="M39.67,35.35 C36.56,32.83 37.7,29.4 39.38,27.22 C41.06,25.04 45.69,24.03 47.62,27.39 C49.55,30.75 48.11,33.09 46.58,34.69 C45.08,36.27 41.74,37.03 39.67,35.35 Z" fill="#F27B00"/>
  <path d="M52.83,26.23 C54.17,28.92 57.96,29.39 60.49,27.97 C63.02,26.55 63.89,23.78 62.39,21.26 C60.91,18.77 57.1,17.63 54.33,19.84 C51.57,22.04 52.04,24.65 52.83,26.23 Z" fill="#F27B00"/>
  <path d="M68.34,36.06 C69.57,38.9 73.07,39.36 75.78,38.01 C78.49,36.66 80.4,33.05 78.78,30.26 C77.15,27.48 73.5,27.23 71.07,28.91 C68.64,30.59 66.97,32.9 68.34,36.06 Z" fill="#F27B00"/>
  <path d="M83.18,28.75 C85.45,30.57 89.41,29.52 90.86,26.84 C91.97,24.79 92.58,22.43 90.29,20.14 C88,17.85 84.26,18.87 82.54,21.29 C81.19,23.21 80.81,26.86 83.18,28.75 Z" fill="#F27B00"/>
  <path d="M27.82,42.19 C26.12,42.31 26.37,45.8 26.29,50.78 C26.21,55.54 25.27,65.53 25.8,76.25 C26.02,80.76 25.55,93.48 25.98,99.87 C26.42,106.27 26.16,113.42 26.16,113.42 C26.16,113.42 36.41,124.04 63.96,124.44 C92.98,124.86 104.82,110.98 104.82,110.98 C104.82,110.98 104.5,93.47 104.53,86.58 C104.57,76.39 103.94,57.01 103.94,53.88 C103.94,50.75 104.2,43.37 103.07,42.37 C101.94,41.37 93.91,41.82 86.59,42 C80.04,42.16 57.19,42.22 48.79,42.22 C40.39,42.22 31.33,41.94 27.82,42.19 Z" fill="#3C3C3C"/>
  <path d="M31.76,48.99 C30.69,49.64 30.51,58.26 30.76,66.29 C31.01,74.32 31.01,81.96 33.64,82.46 C36.27,82.96 38.9,77.07 41.66,74.81 C44.42,72.55 47.68,70.8 49.81,67.67 C51.94,64.54 54.32,59.52 55.45,57.02 C56.58,54.51 60.09,51.13 59.71,49.12 C59.33,47.11 47.05,47.87 43.29,47.87 C39.53,47.87 34.02,47.62 31.76,48.99 Z" fill="#858585"/>
  <path d="M66.73,47.74 C65.14,48.87 63.47,53.25 62.34,55.26 C61.21,57.27 58.08,61.65 60.46,63.16 C62.84,64.66 67.6,61.15 69.11,60.15 C70.61,59.15 72.62,58.65 73.37,58.02 C74.12,57.39 77.88,51.88 78.76,51 C79.64,50.12 81.52,49.12 81.52,48.12 C81.52,47.12 76.88,47.12 72.75,47.24 C68.62,47.36 67.61,47.11 66.73,47.74 Z" fill="#858585"/>
  <path d="M52.32,73.18 C51.16,74.76 49.19,78.19 51.44,79.82 C53.7,81.45 56.2,79.69 57.96,77.81 C59.72,75.93 60.59,73.42 58.46,71.17 C56.33,68.92 53.69,71.3 52.32,73.18 Z" fill="#858585"/>
  <path d="M44.8,82.21 C43.55,82.11 40.91,86.1 38.53,87.1 C36.15,88.1 32.51,87.48 31.89,89.73 C31.26,91.99 29.88,101.51 31.89,102.64 C33.9,103.77 39.41,101.89 40.66,101.14 C41.91,100.39 41.79,98.63 44.29,97 C46.8,95.37 47.17,91.11 47.3,88.1 C47.43,85.09 46.42,82.33 44.8,82.21 Z" fill="#858585"/>
</svg>