<svg viewBox="0 0 128 128" xmlns="http://www.w3.org/2000/svg">
  <defs>
    <radialGradient id="SVGID_1_" cx="79.6982" cy="71.5718" gradientUnits="userSpaceOnUse" r="51.1552">
      <stop offset="0.5319" stop-color="#F8CD7F"/>
      <stop offset="0.6296" stop-color="#FAD593"/>
      <stop offset="0.8473" stop-color="#FEE4BB"/>
      <stop offset="0.9605" stop-color="#FFEACA"/>
    </radialGradient>
    <radialGradient id="SVGID_2_" cx="79.6065" cy="68.2169" gradientUnits="userSpaceOnUse" r="45.1423">
      <stop offset="0.5319" stop-color="#F8CD7F"/>
      <stop offset="0.6296" stop-color="#FAD593"/>
      <stop offset="0.8473" stop-color="#FEE4BB"/>
      <stop offset="0.9605" stop-color="#FFEACA"/>
    </radialGradient>
    <radialGradient id="SVGID_3_" cx="46.6324" cy="78.7651" gradientUnits="userSpaceOnUse" r="9.4423">
      <stop offset="0.5319" stop-color="#F6AF3D"/>
      <stop offset="0.9585" stop-color="#F6AF3D" stop-opacity="0"/>
    </radialGradient>
    <radialGradient id="SVGID_4_" cx="-100.370833" cy="12.239525" gradientTransform="matrix(-0.4024 -0.9155 2.0944 -0.9206 0 0)" gradientUnits="userSpaceOnUse" r="4.4988">
      <stop offset="0.5319" stop-color="#F6AF3D"/>
      <stop offset="0.9585" stop-color="#F6AF3D" stop-opacity="0"/>
    </radialGradient>
    <radialGradient id="SVGID_5_" cx="82.6285" cy="63.218" gradientUnits="userSpaceOnUse" r="4.7157">
      <stop offset="0.5319" stop-color="#F6AF3D"/>
      <stop offset="0.9585" stop-color="#F6AF3D" stop-opacity="0"/>
    </radialGradient>
    <radialGradient id="SVGID_6_" cx="64.6563" cy="34.4346" gradientUnits="userSpaceOnUse" r="7.3087">
      <stop offset="0.5319" stop-color="#F6AF3D"/>
      <stop offset="0.9585" stop-color="#F6AF3D" stop-opacity="0"/>
    </radialGradient>
    <radialGradient id="SVGID_7_" cx="72.6217" cy="40.4065" gradientUnits="userSpaceOnUse" r="9.1781">
      <stop offset="0.5319" stop-color="#F6AF3D"/>
      <stop offset="0.9585" stop-color="#F6AF3D" stop-opacity="0"/>
    </radialGradient>
  </defs>
  <path d="M45.79,74.25 C45.79,74.25 27.11,77.04 28.54,78.9 C30.77,81.8 48.48,97.49 58.79,105.84 C68.55,113.75 77.44,122.47 84.11,123.62 C94.18,125.36 108.79,122.56 119.44,108.42 C125.57,100.28 121.31,88.6 118.38,82.86 C115.45,77.12 85.93,58.06 85.93,58.06 L45.79,74.25 Z" fill="#9A9A9A"/>
  <path d="M54.2,84.96 C54.2,84.96 55.47,91.33 59.04,93.5 C62.61,95.67 64.77,95.16 68.6,98.47 C72.42,101.78 74.97,107.64 77.14,109.3 C79.31,110.96 83.64,112.23 86.7,114.4 C89.76,116.57 90.78,119.24 94.34,119.75 C97.9,120.26 115.1,116.12 120.31,107.09 C125.34,98.38 123.77,89.66 122.49,85.71 C121.22,81.76 102.24,57.4 97.14,51.03 C92.04,44.66 84.78,34.39 84.78,34.39 L54.2,84.96 Z" fill="#B0B0B0"/>
  <path d="M83.76,62.53 C83.76,62.53 84.58,66.36 85.54,70.72 C86.35,74.42 88.12,80.19 90.41,81.08 C92.7,81.97 95.61,81.26 95.61,81.26 C95.61,81.26 99.26,94.01 101.34,95.53 C102.74,96.55 106.95,95.53 107.71,96.42 C108.47,97.31 111.91,106.99 114.08,106.99 C116.25,106.99 118.1,103.98 119.81,98.2 C121.85,91.32 119.9,86.92 116.24,81.64 C111.65,75.01 98.53,57.69 95.09,53.74 C91.65,49.79 89.36,47.11 88.34,47.75 C87.33,48.39 83.76,62.53 83.76,62.53 Z" fill="#E0E0E0"/>
  <path d="M115.12,95.26 C113.63,95.26 112.79,97.63 113.12,100.15 C113.45,102.67 113.87,104.12 115.68,103.96 C117.79,103.77 117.46,100.78 117.42,99.07 C117.38,97.36 116.79,95.26 115.12,95.26 Z" fill="#FFFFFF"/>
  <path d="M97.3,77.45 C99.65,79.97 102.9,81.54 105.7,84.45 C108.5,87.36 110.96,91.95 113.15,93.07 C115.33,94.19 117.18,94.08 117.74,92.45 C118.3,90.83 116.9,88.14 115.22,86.85 C113.54,85.56 112.25,84.78 111.64,83.49 C111.03,82.2 111.3,80.24 109.18,78.06 C107.05,75.88 102.07,74.64 100.73,72.97 C99.39,71.29 100,66.98 97.99,65.19 C95.97,63.4 93.57,64.07 93.57,66.93 C93.57,69.79 94.75,70.07 95.31,72.02 C95.84,73.98 95.67,75.71 97.3,77.45 Z" fill="#FFFFFF"/>
  <path d="M89.57,67.82 C91.93,68.16 93.15,65.19 93.32,61.44 C93.49,57.69 93.9,53.53 90.69,52.99 C87.72,52.49 87.22,60.32 87.11,63.24 C87.03,65.13 87.22,67.48 89.57,67.82 Z" fill="#FFFFFF"/>
  <path d="M33.42,65.45 C33.42,65.45 20.84,73.27 29.94,80.32 C39.04,87.37 47.95,89.25 61.56,85.31 C76.52,80.98 85.02,67.07 87.65,57.8 C90.28,48.54 89.43,40.29 85.61,34.6 C81.79,28.91 77.2,24.83 74.99,24.32 C72.78,23.81 53.83,60.02 53.83,60.02 L33.42,65.45 Z" fill="#807F7D"/>
  <path d="M74.89,68.73 L78.22,68.62 C78.22,68.62 80.8,65.05 81.11,64.28 C81.42,63.5 71.78,36.91 71.88,36.39 C71.98,35.87 66.87,9.5 57.26,5.81 C50.52,3.22 46.37,4.25 43.47,4.05 C40.57,3.85 38.89,3.09 34.66,3.64 C29.06,4.37 21.6,5.51 12.47,16.08 C3.67,26.28 5.33,33.28 5.53,40.43 C5.73,47.58 4.32,53.5 8.05,58.69 C11.78,63.88 20.46,67.28 20.46,67.28 L74.89,68.73 Z" fill="#F6B140"/>
  <path d="M61.71,18.32 C61.55,17.11 61.33,11.47 53.31,11.35 C49.33,11.29 46.67,13.44 46.67,13.44 C46.67,13.44 39.02,11.38 33.07,13.7 C29.67,15.02 21.8,29 21.8,29 L31.52,31.19 L61.71,18.32 Z" fill="#A1C23C"/>
  <path d="M52.91,24.45 C52.97,24.14 61.64,18.59 61.64,18.59 C61.64,18.59 62.14,16.61 57.43,16.19 C53.94,15.88 52.16,18.34 52.16,18.34 C52.16,18.34 47.83,16.26 44.61,19.03 C42.42,20.91 44.11,22.65 44.11,22.65 L52.91,24.45 Z" fill="#95A61D"/>
  <path d="M24.02,29.31 C24.02,29.31 24.25,25.77 27.45,21.07 C31.19,15.58 37.18,14.39 37.31,13.58 C37.44,12.71 32.38,12.08 27.58,15.14 C23.58,17.69 20.18,22.16 19.68,27.22 C19.1,33.08 24.02,29.31 24.02,29.31 Z" fill="#95A61D"/>
  <path d="M27.3,32.1 C27.34,33.26 16.87,34.68 15.44,34.68 C14.01,34.68 12.25,33.26 12.8,31.31 C13.48,28.86 16.95,28.38 19.06,28.38 C21.78,28.38 27.16,28.5 27.3,32.1 Z" fill="#FFD61C"/>
  <path d="M26.41,33.35 C26.41,33.35 22.6,32.12 17.97,33.62 C13.45,35.08 11.59,37.32 10.48,41.45 C8.95,47.17 11.84,53.77 11.84,53.77 L21.03,59.9 C21.03,59.9 28.52,54.11 28.24,53.37 C27.96,52.63 26.41,33.35 26.41,33.35 Z" fill="#FFFFFE"/>
  <path d="M11.91,48.26 C10.93,48.89 9.87,51.59 12.52,56.02 C14.99,60.14 17.08,60.78 18.51,59.35 C19.94,57.92 16.76,55.88 15.24,52.61 C14.53,51.08 13.61,47.17 11.91,48.26 Z" fill="#FFD61C"/>
  <path d="M20.01,49.55 C20.01,49.55 16.54,46.83 17.9,40.97 C19.26,35.11 26.14,31.58 26.14,31.58 C26.14,31.58 25.73,23.28 33.01,20.28 C40.29,17.28 48.73,24.5 48.73,24.5 L52.61,45.6 L20.01,49.55 Z" fill="#FAB16E"/>
  <path d="M36.13,27.15 C35.23,29.41 33.86,33.44 36.32,34.17 C38.78,34.9 41.12,30.91 41.85,29.02 C42.58,27.13 43.82,24.1 41.6,22.89 C39.38,21.68 37.15,24.59 36.13,27.15 Z" fill="#D27857"/>
  <path d="M32.07,26.67 C30.09,26.52 28.81,28.63 28.88,32.33 C28.93,34.89 29.51,36.59 31.54,36.64 C33.77,36.69 34.01,33.3 34.15,31.37 C34.29,29.44 34.46,26.85 32.07,26.67 Z" fill="#D27857"/>
  <path d="M21.13,46.07 C21.87,47.54 24.76,48.01 28.39,45.78 C31.22,44.05 32.45,41.72 32.07,40.22 C31.68,38.72 27.96,38.24 24.76,40.27 C21.57,42.3 20.31,44.43 21.13,46.07 Z" fill="#D27857"/>
  <path d="M44.02,18.3 C42.3,18.69 40.29,20.14 40.73,22.9 C41.1,25.23 43.97,25.46 45.96,25.03 C47.66,24.66 49.93,22.47 49.49,20.34 C49.05,18.2 46.78,17.67 44.02,18.3 Z" fill="#543630"/>
  <path d="M35.26,40.07 C36.76,42.91 40.83,40.64 42.23,39.73 C43.7,38.77 45.38,36.73 44.7,34.99 C44.02,33.25 41.75,32.62 38.6,34.22 C35.45,35.82 34.29,38.23 35.26,40.07 Z" fill="#543630"/>
  <path d="M61.65,18.58 C61.65,18.58 58.51,18.47 54.26,21.68 C44.73,28.87 42.97,44.8 42.97,44.8 L38.84,46 C38.84,46 36.26,45.75 34.21,46.22 C31.31,46.86 29,49.03 29,49.03 L20.57,61.2 C20.57,61.2 24.9,63.16 31.27,62.5 C35.12,62.1 50.72,62.77 50.72,62.77 C50.72,62.77 66.41,61.13 66.19,60.77 C65.97,60.41 62.68,55.97 61.6,53.3 C60.51,50.62 62.52,31.66 62.52,31.66 L61.36,25.15 L61.65,18.58 Z" fill="#6D4C41"/>
  <path d="M43.96,41.01 C46.1,41.69 47.39,39.79 47.93,38.62 C48.78,36.79 49.51,34.65 51.63,32.53 C54.09,30.06 56.43,29.41 55.19,26.97 C53.74,24.11 48.06,30.1 48.06,30.1 C48.06,30.1 49.48,27.01 51.53,25.14 C53.3,23.53 52.08,20.24 48.91,22.39 C45.61,24.63 43.54,28.3 42.73,31.1 C42.04,33.49 41.39,40.2 43.96,41.01 Z" fill="#FFD61C"/>
  <path d="M58.45,30.45 C55.91,29.77 53.43,31.22 51.77,35.73 C50.64,38.8 51.82,42.09 53.71,42.59 C57.03,43.46 60.39,38.75 60.7,35.46 C61.02,32.16 60.3,30.95 58.45,30.45 Z" fill="#8D6256"/>
  <path d="M37.55,47.87 C38.09,49.82 42.69,50.4 45.49,49.22 C48.92,47.78 50.36,44.71 49.55,42.59 C48.74,40.47 45.01,39.85 41.88,41.37 C38.82,42.86 36.83,45.25 37.55,47.87 Z" fill="#8D6256"/>
  <path d="M47.21,53.69 C47.93,56.12 51.27,55.9 52.72,55.4 C54.16,54.9 56.6,53.82 56.06,51.11 C55.52,48.4 52.5,48.81 50.87,49.08 C49.24,49.36 46.49,51.25 47.21,53.69 Z" fill="#8D6256"/>
  <path d="M29.48,56.85 C29.79,58.23 29.43,60.68 24.61,61.32 C21.19,61.77 18.25,61.18 17.98,58.61 C17.5,54.03 22.58,54.28 22.58,54.28 C22.58,54.28 18.56,54.14 18.43,50.53 C18.33,47.91 21.23,46.29 24.93,45.66 C28.63,45.03 31.51,46.38 31.92,48.91 C32.55,52.75 26.78,54.37 26.78,54.37 C26.78,54.37 29.1,55.21 29.48,56.85 Z" fill="#8D6256"/>
  <path d="M40.22,52.6 C40.45,55.58 36.7,56.44 34.13,56.3 C32.33,56.21 28.72,55.05 29.39,52.19 C30.2,48.76 34.71,48.94 36.47,49.21 C38.23,49.48 40.07,50.67 40.22,52.6 Z" fill="#FAB16E"/>
  <path d="M19.46,68.67 C21.47,70.4 29.63,78.25 33.04,80.42 C36.46,82.59 43.12,86.17 54.54,83.84 C65.96,81.51 72.04,75.01 74.45,72.84 C76.87,70.67 77.8,68.75 77.79,68.63 C77.78,68.51 59.45,58.93 53.7,59.34 C47.95,59.76 36.95,64.09 30.95,65.09 C24.95,66.09 11.12,62.01 11.12,62.01 C11.12,62.01 15.96,65.67 19.46,68.67 Z" fill="url(#SVGID_1_)"/>
  <path d="M63.12,50.01 L63.12,26.95 L65.16,15.48 L62.56,9.21 C62.56,9.21 73.47,22.1 77.12,27.04 C80.77,31.97 84.01,35.49 84.81,38.55 C85.73,42.06 85.86,49.74 84.46,55.27 C82.76,61.96 80.44,65.45 80.44,65.45 C80.44,65.45 75.24,62.99 70.31,59.24 C65.38,55.49 63.12,50.01 63.12,50.01 Z" fill="url(#SVGID_2_)"/>
  <path d="M72.97,34.72 C71.33,35.11 70.84,39.3 71.39,42.62 C72.01,46.32 72.97,48.94 75.42,48.46 C77.87,47.99 77.31,42.54 76.6,38.83 C75.89,35.12 74.63,34.32 72.97,34.72 Z" fill="#F6C977"/>
  <path d="M66.42,42.45 C64.68,41.9 62.87,44.03 62.71,48.29 C62.55,52.55 64.53,52.4 65.24,52.55 C65.95,52.7 67.92,51.05 68.08,47.73 C68.2,45.06 67.85,42.91 66.42,42.45 Z" fill="#F6C977"/>
  <path d="M55.05,72.54 C52.62,74.6 52.44,78.3 53.63,80.36 C54.81,82.41 55.92,83.52 55.92,83.52 C55.92,83.52 61.09,82.26 63.87,80.84 C66.39,79.55 69.73,76.97 69.73,76.97 C69.73,76.97 64.61,72.08 61.13,71.29 C57.65,70.5 56.07,71.67 55.05,72.54 Z" fill="#F6C977"/>
  <path d="M76.34,54.99 C76.12,56.78 76.8,58.54 78.24,59.61 C79.92,60.86 83.34,59.61 81.38,55.82 C79.47,52.12 76.58,53.03 76.34,54.99 Z" fill="#F7BF5E"/>
  <path d="M36.78,72.1 C35.46,74.11 36.1,77.7 40.85,79.11 C44.14,80.09 46.42,78.64 47.13,77.1 C47.84,75.56 47.75,72.03 43.16,70.58 C39.96,69.56 37.91,70.38 36.78,72.1 Z" fill="#F6C977"/>
  <path d="M38.6,74.42 C38.08,76.04 39.73,77.86 42.51,78.21 C45.29,78.56 46.78,77.85 47.25,76.25 C47.72,74.65 45.47,72.87 42.92,72.58 C40.68,72.33 39.07,72.94 38.6,74.42 Z" fill="url(#SVGID_3_)"/>
  <path d="M55.96,76.62 C55.27,77.46 55.25,79.94 57.44,80.83 C59.63,81.72 61,80.47 61.29,79.53 C61.59,78.58 61.03,77 59.63,76.27 C58.38,75.61 56.79,75.61 55.96,76.62 Z" fill="#F7BD5C"/>
  <path d="M60.27,82.23 C60.27,82.23 59.39,78.97 61.41,77.89 C63.43,76.81 64.64,78.02 64.64,78.02 C64.64,78.02 65.11,76.64 66.83,76.39 C68.55,76.13 69.67,76.99 69.67,76.99 C69.67,76.99 67.04,79.12 65.12,80.22 C63.16,81.35 60.27,82.23 60.27,82.23 Z" fill="url(#SVGID_4_)"/>
  <path d="M83.17,59.58 C83.17,59.58 79.86,58.12 78.93,60.4 C77.97,62.74 80.8,64.94 80.8,64.94 C80.8,64.94 81.7,63.18 82.13,62.14 C82.65,60.89 83.17,59.58 83.17,59.58 Z" fill="url(#SVGID_5_)"/>
  <path d="M67.72,27.85 C66.29,27.85 65.29,30.05 65.38,31.88 C65.47,33.71 66.48,35.5 68.08,35.41 C70.33,35.28 70.43,32.98 70.37,31.2 C70.33,29.77 69.51,27.85 67.72,27.85 Z" fill="url(#SVGID_6_)"/>
  <path d="M78.14,37 C78.29,36.39 78.3,35.69 78.17,35 C77.85,33.35 76.45,32.06 74.78,32.62 C72.99,33.22 73.04,35.92 73.45,37.02 C73.64,37.51 73.99,37.97 74.46,38.3 C74.05,39.43 74.1,40.88 74.23,41.88 C74.46,43.71 75.24,45.54 76.93,46.05 C78.38,46.48 79.63,45.64 79.77,43.12 C79.88,41.12 79.62,38.12 78.14,37 Z" fill="url(#SVGID_7_)"/>
  <path d="M47.67,57.9 C41.93,59.05 34.4,61.53 27.19,62.91 C20.01,64.28 12.49,61.36 10.67,61.21 C8.85,61.06 16.13,66.32 17.45,67.03 C18.53,67.61 22.82,68.5 32.94,66.23 C43.06,63.96 47.12,62.02 51.64,62.1 C58.47,62.22 63.09,63.27 68.75,66.67 C74.01,69.82 74.58,70.72 75.71,71.61 C76.6,70.68 78.67,68.01 78.67,68.01 C78.67,68.01 63.37,54.74 47.67,57.9 Z" fill="#FFEBC8"/>
  <path d="M68.85,57.76 C68.61,58.25 65.86,57.89 63.91,56.59 C61.97,55.29 60.22,51.46 59.72,46.71 C59.15,41.29 59.88,32.08 61.34,25.15 C62.8,18.22 63.43,15.96 62.79,12.94 C62.09,9.63 60.4,9.18 59.92,7.57 C59.59,6.47 62.94,9.28 64.42,10.93 C69.31,16.37 65.66,20.44 64.85,28.54 C64.16,35.43 63.4,43.66 64.94,48.68 C66.48,53.7 68.85,57.76 68.85,57.76 Z" fill="#FFEBC8"/>
</svg>