<svg viewBox="0 0 128 128" xmlns="http://www.w3.org/2000/svg">
  <defs/>
  <path d="M20.55,21.01 L41.47,25.79 L82.12,26.99 L107.08,22.95 L113.73,16.16 L114.66,20.47 L71.59,63.55 L69.03,68.32 L68.92,95.8 C68.92,95.8 69.85,102.32 72.53,103.6 C75.21,104.88 84.76,106.05 88.6,108.96 C92.44,111.87 90.7,114.67 90.7,114.67 L83.83,119.79 L64.39,122.82 L42.97,120.61 C42.97,120.61 34.96,115.67 34.96,113.92 C34.96,113.92 34.64,110.55 38.78,108.15 C42.43,106.03 51.75,105.6 53.92,103.96 C58.23,100.7 58.46,97.21 58.46,97.21 L58.81,68.34 L52.87,61.47 C52.87,61.47 25.16,35.74 21.32,31.55 C17.48,27.36 15.73,25.03 14.1,22.58 C10.11,16.6 13.76,12.6 13.76,12.6 L20.55,21.01 Z" fill="#FFFFFF" opacity="0.5"/>
  <path d="M17.57,11.86 L35.5,7.31 L66,6.38 L97.44,10.11 L113.74,16.16 L114.67,20.47 L71.59,63.55 L69.03,68.32 L68.92,95.8 C68.92,95.8 69.85,102.32 72.53,103.6 C75.21,104.88 84.76,106.05 88.6,108.96 C92.44,111.87 90.7,114.67 90.7,114.67 L83.83,119.79 L64.39,122.82 L42.97,120.61 C42.97,120.61 34.96,115.67 34.96,113.92 C34.96,113.92 34.64,110.55 38.78,108.15 C42.43,106.03 51.75,105.6 53.92,103.96 C58.23,100.7 58.46,97.21 58.46,97.21 L58.81,68.34 L52.87,61.47 C52.87,61.47 25.16,35.74 21.32,31.55 C17.48,27.36 15.73,25.03 14.1,22.58 C10.11,16.6 13.76,12.6 13.76,12.6 L17.57,11.86 Z" fill="#E0E0E0" opacity="0.7"/>
  <path d="M24.89,26.32 C24.89,26.32 36.67,20.26 64.2,20.62 C91.73,20.98 102.54,28.6 102.54,28.6 L87,39.35 L45.23,37.4 L24.89,26.32 Z" fill="#FEF9E5"/>
  <path d="M64.9,33.06 C39.32,32.45 24.47,26.36 24.47,26.36 L54.92,56.44 C54.92,56.44 58.53,60.98 63.16,60.98 C67.79,60.98 69.53,59 71.12,57.78 C72.7,56.56 102.58,28.61 102.58,28.61 C102.58,28.61 86.58,33.57 64.9,33.06 Z" fill="#E5DDA0"/>
  <path d="M112.53,20.87 L110.94,23.09 C110.94,23.09 76.27,56.71 69.64,62.95 C66.92,65.51 65.99,67.45 66.1,70.48 C66.2,73.26 64.31,87.38 64.31,87.38 L66.17,102.97 C66.17,102.97 67.06,105.51 69.1,107.04 C71.14,108.57 76.1,109.2 76.1,109.2 C76.1,109.2 72.16,106.88 70.76,103.25 C69.36,99.62 69.55,98.13 69.55,95.97 C69.55,93.81 69.55,71.23 69.55,69.45 C69.55,67.67 71.71,65.32 73.24,63.85 C74.77,62.39 110.63,27.16 112.03,25.63 C114.74,22.67 115.59,20.71 115.71,19.18 C115.84,17.65 115.38,15.58 114.8,16.6 C114.23,17.63 112.53,20.87 112.53,20.87 Z" fill="#9E9E9E"/>
  <path d="M50.27,108.44 C50.27,108.44 54.78,106.02 55.99,102.58 C57.2,99.14 57.58,96.93 57.64,92.41 C57.7,87.89 57.64,70.66 57.64,68.63 C57.64,66.18 54.6,63.73 53.23,61.85 C52.99,61.52 55.04,62.19 57.05,63.41 C59.5,64.9 61.94,66.3 61.71,69.92 C61.48,73.44 61.93,82.1 61.93,82.1 L61.77,97.76 C61.77,97.76 61.84,104.07 57.95,106.24 C54.6,108.1 50.27,108.44 50.27,108.44 Z" fill="#9E9E9E"/>
  <path d="M34.94,113.49 C34.82,113.82 34.75,117.09 37.23,118.68 C39.01,119.82 44.53,124.22 62.86,124.28 C84.1,124.34 89.99,117.77 90.71,115.95 C91.54,113.85 91.06,111.78 90.88,111.83 C90.75,111.87 90.33,112.96 89.76,113.59 C89.19,114.23 85.12,119.06 74.05,120.33 C62.98,121.6 51.6,120.97 44.29,118.8 C36.98,116.63 35,113.33 34.94,113.49 Z" fill="#9E9E9E"/>
  <path d="M37.8,111.81 C37.25,112.71 37.57,114.2 39.77,115.56 C42.95,117.53 50.14,119.18 54.08,118.99 C58.02,118.8 58.09,116.26 54.53,115.68 C50.97,115.11 46.01,114.66 41.68,112.31 C40.53,111.7 38.69,110.35 37.8,111.81 Z" fill="#FFFFFF"/>
  <path d="M59.81,111.37 C59.95,113.16 62.67,112.77 64.01,112.77 C65.35,112.77 67.13,112.64 67.06,111.18 C67,109.72 64.58,109.85 63.56,109.91 C62.35,109.97 59.68,109.71 59.81,111.37 Z" fill="#FFFFFF"/>
  <path d="M63.81,67.62 C61.73,67.65 60.86,68.51 60.84,75.37 C60.82,81.09 60.57,101.96 60.25,103.11 C59.93,104.26 59.04,106.54 59.23,107.63 C59.42,108.71 60.69,109.16 63.3,109.16 C65.91,109.16 67.24,107.95 67.31,106.43 C67.37,104.9 66.8,104.27 66.61,103.06 C66.42,101.85 66.45,81.35 66.45,75.69 C66.45,71.26 66.5,67.57 63.81,67.62 Z" fill="#FFFFFF"/>
  <path d="M23.21,25.31 C21.95,26.57 35.36,39.52 40.51,44.67 C45.66,49.82 57.85,60.81 58.97,59.61 C60.09,58.41 46.42,45.89 41.8,41.32 C34.67,34.28 24.5,24.02 23.21,25.31 Z" fill="#FFFFFF"/>
  <path d="M12.78,15.1 C12.63,12.72 14.71,3.66 65.2,4.26 C114.94,4.85 115.69,16.14 115.54,18.22 C115.39,20.3 111.09,17.33 111.09,17.33 C111.09,17.33 101.24,8.45 64.72,8.31 C28.19,8.16 18.44,12.43 18.14,14.66 C17.84,16.89 17.55,18.67 17.55,18.67 L12.78,15.1 Z" fill="#BFBFBF"/>
  <path d="M76.74,32.82 C86.49,25.02 106.76,8.85 108.35,7.6 C110.54,5.88 116.89,1.88 117.44,2.43 C117.99,2.98 113.68,8.46 110.86,11.13 C109.13,12.76 95.14,24.25 85.54,32.03 C79.46,36.96 73.04,35.78 76.74,32.82 Z" fill="#F8C977"/>
  <path d="M70.04,38.47 L76.74,32.81 C76.74,32.81 78.95,32.72 81.04,32.55 C82.84,32.4 85.52,32.05 85.52,32.05 L73.1,42.38 L70.04,38.47 Z" fill="#E3C08F"/>
  <path d="M74.98,37.92 C71.99,34.28 65.33,34.63 61.35,38.23 C57.2,41.99 56.49,47.55 59.7,51.23 C62.91,54.91 68.08,55.3 72.94,50.99 C77.8,46.69 77.17,40.58 74.98,37.92 Z" fill="#919F50"/>
  <path d="M61.27,43.48 C62.37,44.81 63.93,44.26 65.19,43.24 C66.42,42.24 67.19,40.75 66.29,39.64 C65.27,38.39 63.63,39.01 62.53,39.88 C61.43,40.75 60.34,42.36 61.27,43.48 Z" fill="#E8DE9F"/>
  <path d="M59.43,46.44 C58.03,47.33 59.32,49.73 60.1,50.74 C60.66,51.46 62.28,53.31 63.56,52.25 C64.84,51.19 63.56,49.18 62.67,47.84 C62.11,47.01 60.87,45.52 59.43,46.44 Z" fill="#EF3E24"/>
  <path d="M64.1,29.37 C85.03,29.71 107.61,27.98 113.44,22.19 C118.59,17.08 113,13.25 113,13.25 L111.08,17.31 L108.08,20.77 L99.28,23.4 L90.28,24.71 L71.78,25.72 L52.37,25.21 L37.61,22.9 L26.18,20.57 L18.5,16.53 L16.58,12.99 C16.58,12.99 12.85,13.96 12.79,14.79 C12.69,16.13 13.37,17.53 14.35,18.75 C16.22,21.08 26.38,28.77 64.1,29.37 Z" fill="#BFBFBF"/>
  <path d="M72.22,26.22 C69.83,26.22 67.3,26.19 64.63,26.13 C31.22,25.4 20.53,20.65 17.43,16.79 C16.21,15.27 16.37,14.1 16.41,13.88 C16.52,13.34 17.05,12.99 17.59,13.1 C18.12,13.2 18.46,13.7 18.38,14.23 C18.38,14.29 18.39,14.89 19.18,15.77 C21.72,18.58 31.01,23.4 64.66,24.13 C99.45,24.89 107.82,20.26 109.8,18.23 C110.52,17.5 110.5,17.01 110.5,17.01 C110.39,16.47 110.75,15.97 111.29,15.87 C111.83,15.76 112.36,16.15 112.47,16.69 C112.51,16.89 112.65,17.96 111.54,19.29 C108.84,22.53 99.69,26.22 72.22,26.22 Z" fill="#FEFEFE"/>
</svg>