<svg viewBox="0 0 128 128" xmlns="http://www.w3.org/2000/svg">
  <defs/>
  <path d="M114.28,8.73 C93.12,-4.03 69.28,16.87 62.99,33.07 C56.7,49.26 66.8,60.03 66.8,60.03 C66.8,60.03 35.28,92.98 33.09,93.83 L33.9,97.54 L68.48,63.3 C68.48,63.3 74.29,68.86 84.1,68.54 C101.53,67.97 109.72,58.75 113.53,54.54 C117.45,50.21 122.58,43.01 123.72,31.87 C124.57,23.55 123.19,14.1 114.28,8.73 Z M107.05,55.74 C94.57,66.79 81.81,65.17 77.24,62.79 C72.67,60.41 71.62,58.79 69.91,56.88 C68.88,55.73 63.72,49.88 65.53,38.26 C66.81,30.06 71.11,24.52 76.77,18.88 C83.17,12.5 101.35,2.62 114.12,14.41 C125.08,24.55 119.52,44.69 107.05,55.74 Z" fill="#168DFC"/>
  <path d="M112.09,48.4 C101.67,62.56 82.28,68.59 71.61,58.59 L69.9,56.88 C69.9,56.88 69.23,57.45 67.61,56.98 C65.99,56.5 62.85,52.07 62.47,46.31 C61.65,33.86 65.79,25.82 74.66,17.64 C88.09,5.25 106.5,3.5 115.62,14.21 C119.43,18.68 123.52,32.88 112.09,48.4 Z M122.67,20.83 C122.35,17.85 120.54,13.86 117.72,11.16 C103.24,-2.7 82.65,6.54 73.04,15.4 C62.56,25.07 60.28,33.35 59.63,42.19 C58.82,53.28 64.54,59.14 64.54,59.14 L31.12,92.54 L31.69,97.16 L68.36,60.68 C68.36,60.68 73.29,65.93 84.17,66.39 C93.03,66.77 101.98,62.33 108.36,56.67 C116.28,49.69 124.38,37.07 122.67,20.83 Z" fill="#05BEF2"/>
  <path d="M58.62,62.51 C58.52,63.16 64.37,68.84 65.19,68.84 C66.01,68.84 69.6,65.07 69.6,64.66 C69.6,64.25 63.87,58 62.97,58.08 C62.07,58.15 58.79,61.44 58.62,62.51 Z" fill="#62666A"/>
  <path d="M27.93,92.64 C27.93,92.64 27.73,91.6 28.79,90.57 C30.05,89.34 31.31,89.94 34.35,93.21 C37.45,96.54 38.37,97.59 37.2,99.06 C36.06,100.49 34.73,100.15 34.73,100.15 L14.25,120.45 C14.25,120.45 14.54,122.37 13.18,123.3 C12.18,123.99 10.61,123.73 10.61,123.73 L3.98,116.89 C3.98,116.89 3.55,115.32 4.62,114.18 C5.69,113.04 7.26,113.47 7.26,113.47 L27.93,92.64 Z" fill="#62666A"/>
  <path d="M30.87,94.55 C30.25,94.2 29.04,94.5 28.33,95.41 C27.62,96.32 27.97,97.6 27.26,98.15 C26.55,98.71 25.02,98.61 23.5,100.13 C21.98,101.65 22.18,103.99 21.06,105.01 C19.94,106.03 17.83,106.1 16.69,107.25 C15.01,108.93 14.86,111.32 13.95,112.08 C13.04,112.84 11.26,112.54 10.34,113.4 C9.42,114.26 8.82,116.65 10.59,117.26 C12.36,117.87 12.32,116.04 13.54,115.68 C14.76,115.32 15.93,115.07 16.95,113.65 C17.97,112.23 17.86,110.85 18.98,109.79 C20.1,108.72 21.93,108.77 23.25,107.6 C24.57,106.43 24.42,103.89 25.94,102.57 C27.46,101.25 28.23,102.01 29.4,100.59 C30.57,99.17 30.26,97.79 31.23,97.34 C32.19,96.89 32.14,95.26 30.87,94.55 Z" fill="#858485"/>
  <path d="M104.41,56.25 L71.54,23.48 C71.13,23.07 71.13,22.41 71.54,22 C71.95,21.59 72.61,21.59 73.02,22 L106.13,54.87 C106.13,54.87 105.78,55.17 105.2,55.64 C104.82,55.93 104.41,56.25 104.41,56.25 Z" fill="#B9CED4"/>
  <path d="M111.11,49.66 L77.61,16.55 C77.2,16.14 77.2,15.48 77.6,15.07 C78.01,14.66 78.67,14.66 79.08,15.06 L112.4,47.95 C112.4,47.95 112.22,48.28 111.78,48.83 C111.59,49.07 111.11,49.66 111.11,49.66 Z" fill="#B9CED4"/>
  <path d="M95.9,61.21 L66.73,31.09 C66.33,30.68 66.34,30.01 66.75,29.61 C67.16,29.21 67.82,29.22 68.23,29.63 L97.96,60.28 C97.96,60.28 97.46,60.52 96.95,60.77 C96.47,61 95.9,61.21 95.9,61.21 Z" fill="#B9CED4"/>
  <path d="M84.99,63.53 L64.29,41.63 C63.89,41.21 63.9,40.55 64.32,40.15 C64.74,39.75 65.4,39.76 65.8,40.18 C65.8,40.18 87.47,62.84 87.41,62.92 C87.37,62.97 87.14,63.42 86.29,63.44 C85.89,63.45 84.99,63.53 84.99,63.53 Z" fill="#B9CED4"/>
  <path d="M116.18,41.69 L86.29,12.45 C85.88,12.05 85.87,11.38 86.27,10.97 C86.68,10.56 87.34,10.55 87.75,10.95 L117.07,39.65 C117.07,39.65 116.89,40.08 116.69,40.54 C116.5,41 116.18,41.69 116.18,41.69 Z" fill="#B9CED4"/>
  <path d="M119.22,32 L96.96,9.49 C96.55,9.08 96.56,8.42 96.97,8.01 C97.38,7.6 98.04,7.61 98.45,8.02 L119.54,29.14 C119.54,29.14 119.41,30.83 119.22,32 Z" fill="#B9CED4"/>
  <path d="M64.98,37.84 C64.72,37.84 64.45,37.74 64.25,37.54 C63.84,37.14 63.83,36.48 64.23,36.06 L91.86,8.73 C92.26,8.32 92.92,8.31 93.34,8.71 C93.75,9.11 93.76,9.77 93.36,10.19 L65.73,37.52 C65.53,37.74 65.26,37.84 64.98,37.84 Z" fill="#B9CED4"/>
  <path d="M65.28,49.1 C65.01,49.1 64.75,49 64.54,48.79 C64.13,48.38 64.13,47.72 64.54,47.31 L103.65,8.26 C104.06,7.85 104.72,7.85 105.13,8.26 C105.54,8.67 105.54,9.33 105.13,9.74 L66.01,48.79 C65.81,48.99 65.54,49.1 65.28,49.1 Z" fill="#B9CED4"/>
  <path d="M69.5,57.52 C69.23,57.52 68.97,57.42 68.77,57.22 C68.36,56.81 68.35,56.15 68.76,55.74 L111.43,12.36 C111.83,11.95 112.49,11.94 112.91,12.35 C113.32,12.76 113.33,13.42 112.92,13.83 L70.25,57.21 C70.04,57.42 69.77,57.52 69.5,57.52 Z" fill="#B9CED4"/>
  <path d="M75.23,61.22 L117.61,18.69 C117.61,18.69 117.77,18.71 118.08,19.28 C118.36,19.79 118.57,20.72 118.57,20.72 L77.23,62.17 C77.23,62.17 76.75,62.02 76.21,61.75 C75.61,61.45 75.23,61.22 75.23,61.22 Z" fill="#B9CED4"/>
  <path d="M84.96,63.54 L119.58,27.5 C119.61,28.46 119.41,30.79 119.41,30.79 L88.32,63.3 C88.32,63.3 86.87,63.54 84.96,63.54 Z" fill="#B9CED4"/>
  <path d="M35.42,14.36 C34.68,14.14 9.67,13.84 9.67,13.84 C9.67,13.84 7.37,13.99 6.33,16.29 C5.29,18.59 5.81,20.52 5.81,20.52 C5.81,20.52 3.44,21.78 3.58,25.86 C3.67,28.39 5.51,30.24 5.51,30.24 C5.51,30.24 4.32,32.32 5.81,35.58 C6.97,38.13 9.96,38.4 9.96,38.4 C9.96,38.4 9.8,40.9 11.22,42.48 C13.15,44.63 15.82,43.89 15.82,43.89 C15.82,43.89 16.56,46.19 19.38,46.93 C22.2,47.67 24.5,45 24.5,45 L40.31,27.86 L36.97,21.04 L35.42,14.36 Z" fill="#E1F7FE"/>
  <path d="M36.76,13.48 C36.76,13.48 39.66,12.19 42.61,12.47 C45.48,12.74 46.92,14.21 48.04,16.7 C49.29,19.47 49.57,21.62 48.11,24.02 C46.39,26.85 42.54,27.5 42.54,27.5 C42.54,27.5 39.35,26.89 38.54,25.83 C37.64,24.65 35.55,19.24 35.44,17.69 C35.24,14.73 36.76,13.48 36.76,13.48 Z" fill="#E1E1E1"/>
  <path d="M44.75,14.84 C43.43,13.3 40.09,14.62 39.32,17.69 C38.55,20.76 40.58,22.63 42.12,22.35 C43.66,22.08 43.33,19.22 44.09,18.24 C44.86,17.25 45.85,16.12 44.75,14.84 Z" fill="#FFFFFF"/>
  <path d="M6.35,21.12 C6.16,21.12 6.06,21.12 6.05,21.12 C5.47,21.11 5.01,20.64 5.02,20.06 C5.03,19.48 5.53,19.04 6.08,19.03 C6.14,19.03 11.71,18.63 17.66,18.1 C25.21,17.43 34.58,16.01 34.67,15.99 C35.23,15.9 35.77,16.3 35.86,16.87 C35.94,17.44 35.55,17.97 34.98,18.06 C34.89,18.07 25.4,19.32 17.84,20.12 C11.98,20.75 7.62,21.12 6.35,21.12 Z" fill="#AAE2F9"/>
  <path d="M5.52,30.75 C5.52,30.75 4.59,31 4.28,30.03 C3.98,29.09 4.88,28.76 4.88,28.76 C4.88,28.76 15.57,25.36 19.96,23.94 C24.29,22.53 34.66,19.04 34.76,19.01 C35.31,18.82 35.9,19.12 36.08,19.67 C36.26,20.22 35.97,20.81 35.42,20.99 C35.32,21.03 24.94,24.52 20.6,25.93 C16.22,27.35 5.52,30.75 5.52,30.75 Z" fill="#AAE2F9"/>
  <path d="M9.85,38.93 C9.5,38.93 9.15,38.75 8.96,38.43 C8.66,37.94 8.81,37.29 9.31,36.99 C9.38,36.95 16,32.87 23.18,28.84 C30.17,24.92 35.78,22.1 35.84,22.07 C36.36,21.81 36.98,22.02 37.24,22.53 C37.5,23.05 37.29,23.67 36.78,23.93 C36.72,23.96 31.15,26.76 24.21,30.65 C17.07,34.65 10.48,38.71 10.41,38.76 C10.23,38.88 10.04,38.93 9.85,38.93 Z" fill="#AAE2F9"/>
  <path d="M16.53,44.96 C16.24,44.96 15.96,44.84 15.75,44.61 C15.37,44.18 15.4,43.52 15.83,43.13 C15.91,43.06 22.5,37.36 26.57,33.93 C30.68,30.48 37.2,24.89 37.2,24.89 L38.56,26.48 C38.56,26.48 32.03,32.08 27.91,35.54 C23.86,38.95 17.29,44.63 17.21,44.7 C17.03,44.88 16.78,44.96 16.53,44.96 Z" fill="#AAE2F9"/>
  <path d="M37.04,13.35 L34.12,14.19 C34.12,14.19 32.95,16.55 35.04,22.03 C36.8,26.64 39.59,28.83 39.59,28.83 L42.55,27.52 C42.55,27.52 39.75,24.67 38.22,20.83 C36.65,16.88 37.04,13.35 37.04,13.35 Z" fill="#FD1B0D"/>
</svg>