<svg viewBox="0 0 128 128" xmlns="http://www.w3.org/2000/svg">
  <radialGradient id="SVGID_1_" cx="63.333" cy="124.5565" gradientTransform="matrix(1 0 0 -1 0 127.8898)" gradientUnits="userSpaceOnUse" r="120.14">
    <stop offset="0" stop-color="#EEEEEE"/>
    <stop offset="0.3167" stop-color="#EBEBEB"/>
    <stop offset="0.5781" stop-color="#E1E1E1"/>
    <stop offset="0.819" stop-color="#CFCFCF"/>
    <stop offset="1" stop-color="#BDBDBD"/>
  </radialGradient>
  <rect fill="url(#SVGID_1_)" height="120" width="120" x="4" y="4"/>
  <radialGradient id="SVGID_2_" cx="63.5722" cy="130.0381" gradientTransform="matrix(1 0 0 -1 0 127.8898)" gradientUnits="userSpaceOnUse" r="105.7601">
    <stop offset="0" stop-color="#616161"/>
    <stop offset="0.2204" stop-color="#5E5E5E"/>
    <stop offset="0.4074" stop-color="#535353"/>
    <stop offset="0.5821" stop-color="#424242"/>
    <stop offset="0.7485" stop-color="#292929"/>
    <stop offset="0.7941" stop-color="#212121"/>
    <stop offset="1" stop-color="#212121"/>
  </radialGradient>
  <path d="M4,4v24h16v60c0,2.21,1.79,4,4,4h12c2.21,0,4-1.79,4-4V28h14v60c0,2.21,1.79,4,4,4h12 c2.21,0,4-1.79,4-4V28h14v60c0,2.21,1.79,4,4,4h12c2.21,0,4-1.79,4-4V28h16V4H4z" fill="url(#SVGID_2_)"/>
  <rect fill="none" height="56" width="14" x="40" y="28"/>
  <rect fill="none" height="56" width="14" x="74" y="28"/>
  <rect fill="#424242" height="8" width="120" x="4" y="20"/>
  <rect fill="#504F4F" height="32" width="4" x="28" y="92"/>
  <rect fill="#504F4F" height="32" width="4" x="62.06" y="92"/>
  <rect fill="#504F4F" height="32" width="4" x="96" y="92"/>
</svg>