<svg viewBox="0 0 128 128" xmlns="http://www.w3.org/2000/svg">
  <defs/>
  <path d="M116.04,124 L14.45,124 C13.13,124 12.05,122.93 12.05,121.6 L12.05,53.59 L118.43,53.59 L118.43,121.6 C118.43,122.93 117.36,124 116.04,124 Z" fill="#424242"/>
  <path d="M13.93,48.54 L118.43,48.54 L118.43,56.13 L13.93,56.13 L13.93,48.54 Z"/>
  <path d="M12.06,53.59 L12.06,122.17 C12.06,123.18 12.88,123.99 13.88,123.99 L14.03,123.99 C15.04,123.99 15.85,123.17 15.85,122.17 L15.85,53.59 L12.06,53.59 Z" fill="#616161"/>
  <path d="M10.03,36.86 L120.47,36.86 L120.47,53.6 L10.03,53.6 L10.03,36.86 Z" fill="#EEEEEE"/>
  <path d="M10.03,36.86 L120.47,36.86 L120.47,39.01 L10.03,39.01 L10.03,36.86 Z" fill="#F5F5F5"/>
  <path d="M67.44,36.86 L50.7,53.59 L66.63,53.59 L83.37,36.86 Z" fill="#424242"/>
  <path d="M95.48,36.86 L78.74,53.59 L94.67,53.59 L111.41,36.86 Z" fill="#424242"/>
  <path d="M39.65,36.86 L22.91,53.59 L38.84,53.59 L55.08,37.35 L55.08,36.86 Z" fill="#424242"/>
  <path d="M120.46,40.39 L107.26,53.59 L120.46,53.59 Z" fill="#424242"/>
  <path d="M10.03,36.86 L120.47,36.86 L120.47,39.01 L10.03,39.01 L10.03,36.86 Z" fill="#FFFFFF" opacity="0.4"/>
  <path d="M7.539,20.3 L116.765,3.999 L119.235,20.555 L10.01,36.856 L7.539,20.3 Z" fill="#EEEEEE"/>
  <path d="M7.536,20.301 L116.761,4 L117.078,6.126 L7.853,22.427 L7.536,20.301 Z" fill="#F5F5F5"/>
  <path d="M66.77,28.41 L47.74,14.32 L63.5,11.97 L82.52,26.05 Z" fill="#424242"/>
  <path d="M94.45,24.25 L75.42,10.17 L91.18,7.82 L110.2,21.9 Z" fill="#424242"/>
  <path d="M39.33,32.5 L20.31,18.41 L36.06,16.06 L54.52,29.73 L54.59,30.22 Z" fill="#424242"/>
  <path d="M118.71,17.06 L103.71,5.95 L116.76,4 Z" fill="#424242"/>
  <path d="M9.71,22.42 L25.94,34.44 L11.82,36.58 Z" fill="#424242"/>
  <path d="M7.536,20.301 L116.761,4 L117.078,6.126 L7.853,22.427 L7.536,20.301 Z" fill="#FFFFFF" opacity="0.4"/>
  <path d="M10.02,36.85 L11.85,36.85 L9.36,20.06 L7.55,20.33 Z" fill="#9E9E9E"/>
  <path d="M23.94,68.479 L110.8,68.479 Q111.841,68.479 111.841,69.52 Q111.841,70.561 110.8,70.561 L23.94,70.561 Q22.899,70.561 22.899,69.52 Q22.899,68.479 23.94,68.479 Z" fill="#FFFFFF"/>
  <path d="M23.94,83.589 L110.8,83.589 Q111.841,83.589 111.841,84.63 Q111.841,85.671 110.8,85.671 L23.94,85.671 Q22.899,85.671 22.899,84.63 Q22.899,83.589 23.94,83.589 Z" fill="#FFFFFF"/>
  <path d="M23.94,98.699 L110.8,98.699 Q111.841,98.699 111.841,99.74 Q111.841,100.781 110.8,100.781 L23.94,100.781 Q22.899,100.781 22.899,99.74 Q22.899,98.699 23.94,98.699 Z" fill="#FFFFFF"/>
  <path d="M50.809,115.51 L50.809,99.74 Q50.809,98.699 51.85,98.699 Q52.891,98.699 52.891,99.74 L52.891,115.51 Q52.891,116.551 51.85,116.551 Q50.809,116.551 50.809,115.51 Z" fill="#FFFFFF"/>
  <path d="M81.849,115.51 L81.849,99.74 Q81.849,98.699 82.89,98.699 Q83.931,98.699 83.931,99.74 L83.931,115.51 Q83.931,116.551 82.89,116.551 Q81.849,116.551 81.849,115.51 Z" fill="#FFFFFF"/>
  <path d="M10.03,36.85 L11.85,36.85 L11.85,53.6 L10.03,53.6 L10.03,36.85 Z" fill="#BDBDBD"/>
  <path d="M35.3,53.59 L14.87,53.59 C13.2,53.59 11.85,52.24 11.85,50.57 L11.85,29.43 C11.85,25.96 17.58,23.83 21.37,27.06 L38.53,46.22 C40.43,48.12 37.99,53.59 35.3,53.59 Z" fill="#616161"/>
  <path d="M36.84,53.59 L18.76,53.59 C16.28,53.59 14.26,51.58 14.26,49.09 L14.26,31.01 C14.26,26.86 19.27,24.79 22.21,27.72 L40.14,45.65 C43.07,48.58 40.99,53.59 36.84,53.59 Z" fill="#424242"/>
  <path d="M21.9,47.74 A2.16 2.16 0 1 1 17.58,47.74 A2.16 2.16 0 1 1 21.9,47.74 Z" fill="#616161"/>
  <path d="M21.9,34.25 A2.16 2.16 0 1 1 17.58,34.25 A2.16 2.16 0 1 1 21.9,34.25 Z" fill="#616161"/>
  <path d="M36.91,47.74 A2.16 2.16 0 1 1 32.59,47.74 A2.16 2.16 0 1 1 36.91,47.74 Z" fill="#616161"/>
</svg>