<svg viewBox="0 0 128 128" xmlns="http://www.w3.org/2000/svg">
  <defs>
    <linearGradient id="SVGID_1_" gradientTransform="matrix(1 0 0 -1 0 0)" gradientUnits="userSpaceOnUse" x1="36.9427" x2="53.6869" y1="-48.1641" y2="-49.0944">
      <stop offset="0.5979" stop-color="#A56C43"/>
      <stop offset="1" stop-color="#8D5738"/>
    </linearGradient>
    <linearGradient id="SVGID_5_" gradientTransform="matrix(0.6649 -0.7469 -0.7469 -0.6649 0 0)" gradientUnits="userSpaceOnUse" x1="-12.026172" x2="-2.621572" y1="-56.436417" y2="-56.436417">
      <stop offset="0" stop-color="#8D5738"/>
      <stop offset="0.1375" stop-color="#A56C43"/>
      <stop offset="0.831" stop-color="#A56C43"/>
    </linearGradient>
    <linearGradient id="arm_1_" gradientTransform="matrix(1 0 0 -1 0 0)" gradientUnits="userSpaceOnUse" x1="81.3073" x2="73.1213" y1="-60.315" y2="-51.3848">
      <stop offset="0.5979" stop-color="#A56C43"/>
      <stop offset="1" stop-color="#8D5738"/>
    </linearGradient>
    <linearGradient id="finger_2_" gradientTransform="matrix(-0.7037 0.7105 -0.7105 -0.7037 0 0)" gradientUnits="userSpaceOnUse" x1="3.195052" x2="2.391852" y1="-55.194476" y2="-61.377176">
      <stop offset="0.5" stop-color="#A56C43"/>
      <stop offset="1" stop-color="#8D5738"/>
    </linearGradient>
    <radialGradient id="shadow_1_" cx="37.3351" cy="-43.5398" gradientTransform="matrix(1 0 0 -1 0 0)" gradientUnits="userSpaceOnUse" r="3.1067">
      <stop offset="0" stop-color="#8D5738"/>
      <stop offset="1" stop-color="#A56C43"/>
    </radialGradient>
    <linearGradient id="SVGID_2_" gradientTransform="matrix(0.9625 0.2714 0.2714 -0.9625 0 0)" gradientUnits="userSpaceOnUse" x1="64.061604" x2="90.644904" y1="-32.723341" y2="-32.723341">
      <stop offset="0" stop-color="#F78C1F"/>
      <stop offset="0.482" stop-color="#F47F12"/>
      <stop offset="1" stop-color="#EF6C00"/>
    </linearGradient>
    <linearGradient id="SVGID_3_" gradientTransform="matrix(1 0 0 -1 0 0)" gradientUnits="userSpaceOnUse" x1="73.4472" x2="66.9356" y1="-61.4937" y2="-64.6564">
      <stop offset="0.5979" stop-color="#A56C43"/>
      <stop offset="1" stop-color="#8D5738"/>
    </linearGradient>
    <linearGradient id="SVGID_4_" gradientTransform="matrix(-0.7037 0.7105 -0.7105 -0.7037 0 0)" gradientUnits="userSpaceOnUse" x1="4.231152" x2="7.081252" y1="-54.023576" y2="-54.023576">
      <stop offset="0.5" stop-color="#A56C43"/>
      <stop offset="1" stop-color="#8D5738"/>
    </linearGradient>
    <linearGradient id="SVGID_6_" gradientTransform="matrix(-0.7195 0.6945 -0.6945 -0.7195 0 0)" gradientUnits="userSpaceOnUse" x1="0.756004" x2="3.474004" y1="-53.989636" y2="-53.989636">
      <stop offset="0.5" stop-color="#A56C43"/>
      <stop offset="1" stop-color="#8D5738"/>
    </linearGradient>
    <radialGradient id="SVGID_7_" cx="70.300032" cy="1.411549" gradientTransform="matrix(0.9316 0.3634 0.5233 -1.3417 0 0)" gradientUnits="userSpaceOnUse" r="7.1292">
      <stop offset="0.45" stop-color="#554138" stop-opacity="0"/>
      <stop offset="1" stop-color="#554138"/>
    </radialGradient>
    <radialGradient id="SVGID_8_" cx="64.803182" cy="-19.189115" gradientTransform="matrix(0.9932 -0.1163 -0.1467 -1.2533 0 0)" gradientUnits="userSpaceOnUse" r="7.2264">
      <stop offset="0.45" stop-color="#554138" stop-opacity="0"/>
      <stop offset="1" stop-color="#554138"/>
    </radialGradient>
    <radialGradient id="SVGID_9_" cx="56.714982" cy="-28.798591" gradientTransform="matrix(0.9908 -0.1353 -0.1017 -0.7447 0 0)" gradientUnits="userSpaceOnUse" r="14.8733">
      <stop offset="0.45" stop-color="#554138" stop-opacity="0"/>
      <stop offset="1" stop-color="#554138"/>
    </radialGradient>
    <radialGradient id="SVGID_10_" cx="71.990552" cy="-9.032562" gradientTransform="matrix(0.9645 0.2639 0.1697 -0.6201 0 0)" gradientUnits="userSpaceOnUse" r="8.0069">
      <stop offset="0.45" stop-color="#554138" stop-opacity="0"/>
      <stop offset="1" stop-color="#554138"/>
    </radialGradient>
  </defs>
  <path id="head" d="M67.4,36.19 C67.4,36.19 68.52,40.51 63.72,41.63 C59.52,42.62 58.64,38.38 58.64,38.38 C58.64,38.38 57.71,34.1 55.79,33.68 C55.06,33.52 54.9,33.7 52.81,33.39 C49.24,32.85 48.3,31.12 48,29.55 C47.9,29.07 47.86,28.6 47.83,28.19 C47.78,27.62 47.73,27.16 47.53,26.9 C47.37,26.69 45.15,25.84 45.45,24.77 C45.85,23.35 48.47,22.22 48.36,20.9 C48.37,20.56 48.15,19.45 48.12,19.3 C47.91,18.04 47.98,16.28 48.38,14.54 C49.48,9.74 52.61,6.11 57.98,5.6 C62.79,5.16 68.29,8.74 70.54,13.01 C71.98,15.75 69.89,22.82 67.43,26.56 C64.23,31.44 67.4,36.19 67.4,36.19 Z" fill="#A56C43"/>
  <path id="mouth" d="M50.48,29.02 C49.72,29.51 48.86,29.65 48,29.55 C47.9,29.07 47.86,28.6 47.83,28.19 C48.51,28.33 49.37,28.29 49.88,28.12 C50.82,27.8 51.32,28.5 50.48,29.02 Z" fill="#473530"/>
  <path id="eye_2_" d="M52.239,20.141 C52.869,20.165 53.348,20.972 53.311,21.943 C53.274,22.915 52.733,23.683 52.104,23.658 C51.475,23.634 50.995,22.827 51.033,21.856 C51.07,20.885 51.61,20.117 52.239,20.141 Z" fill="#42312C"/>
  <path id="eyebrow_2_" d="M51.54,19.45 C50.44,19.81 50.15,19.09 50.51,18.48 C50.77,18.04 51.43,17.65 52.74,17.86 C53.97,18.06 54.5,18.75 54.84,19.17 C55.18,19.59 55.16,20.02 54.88,20.06 C54.49,20.14 52.9,19.01 51.54,19.45 Z" fill="#42312C"/>
  <path d="M98.86,82.64 L80.29,86.35 L75.12,68.48 L62.69,76.81 L71.75,95.01 L71.79,94.98 C72.51,96.27 73.73,97.3 75.28,97.78 C75.73,97.92 76.18,98 76.64,98.03 L76.64,98.05 L76.79,98.04 C77.35,98.07 77.9,98.03 78.43,97.92 L101.35,89.21 L98.86,82.64 Z" fill="#616161"/>
  <path d="M102.84,78.83 C102.52,78.29 101.83,78.12 101.29,78.44 L98.92,79.86 C97.31,80.82 96.44,83.55 96.44,83.55 L99.96,89.46 L104.89,93.74 C106.16,94.73 107.91,94.84 109.3,94.03 L110.37,93.4 C110.84,93.12 111,92.51 110.72,92.04 L102.84,78.83 Z" fill="#325599"/>
  <path d="M44.86,113.8 L56.27,92 C56.27,92 70.48,80.24 71.72,79.41 C76.35,76.31 77.27,72 76.81,68.87 C76.45,66.44 74.84,63.21 74.84,63.21 L56.19,68.77 L57.07,72.19 C57.07,72.19 51.36,79.57 50.03,81.11 C48.7,82.65 46.42,84.8 44.65,90.87 C42.78,97.27 38.09,112.7 38.09,112.7 L44.86,113.8 Z" fill="#7C7C7C"/>
  <path d="M44.85,120.59 C45.47,120.69 46.05,120.27 46.15,119.66 L46.59,116.93 C46.9,115.08 45.37,112.66 45.37,112.66 L38.58,111.54 L32.13,112.55 C30.55,112.89 29.34,114.15 29.07,115.74 L28.86,116.97 C28.77,117.51 29.13,118.02 29.67,118.11 L44.85,120.59 Z" fill="#4568AD"/>
  <path d="M50.06,49.02 L41.1,42.2 L36.74,46.86 L45.78,55.62 L45.79,55.61 C47.56,57.46 51.71,58.72 55.16,55.58 C58.44,52.59 62.49,46.22 62.49,46.22 L55.48,40.6 L50.06,49.02 Z" fill="url(#SVGID_1_)"/>
  <path d="M50.27,44.94 C52.84,52.13 59.14,52.35 59.14,52.35 L64.16,43.75 C65.51,41.44 64.73,38.46 62.42,37.11 L61.59,36.62 C59.28,35.27 57.32,35.93 54.21,40.47 C51.42,44.56 50.27,44.94 50.27,44.94 Z" fill="#ED6D23"/>
  <path d="M56.19,68.76 C53.71,58.92 53.25,52.01 53.81,46.47 C54.53,39.49 57.86,35.32 61.6,34 C66.22,32.37 69.42,34.72 70.71,38.9 C71.59,41.75 71.42,43.94 71.35,45.3 C71.35,45.3 70.71,52.77 76.65,62.12 C76.65,62.12 76.08,66.18 66.6,68.41 C62.38,69.4 56.19,68.76 56.19,68.76 Z" fill="url(#SVGID_2_)"/>
  <path d="M71.46,59.61 C71.46,59.61 67.12,57.45 67.07,57.43 C66.52,57.14 65.84,57.34 65.55,57.89 L64.62,59.63 C64.47,59.92 64.46,60.24 64.56,60.53 C64.06,60.82 62.83,61.58 62.57,62.09 C62.27,62.67 62.61,63.28 62.93,63.42 C63.3,63.58 63.47,64.1 63.36,64.49 C63.24,64.89 63.25,65.3 63.44,65.63 C63.63,65.96 63.87,66.09 64.33,66.18 C64.55,66.22 64.78,66.5 64.78,66.72 C64.77,67.06 64.77,67.65 64.94,67.87 C65.28,68.32 65.84,68.18 66.13,68.51 C66.24,68.64 66.25,69.21 66.48,69.42 C67.16,70.06 69.37,68.88 69.37,68.88 L73.59,64.97 L71.46,59.61 Z" fill="#875334"/>
  <path d="M70.06,58.93 L72.73,59.68 L74.56,64.73 C74.56,64.73 68.85,70.35 67.88,68.78 C67.57,68.29 68.14,67.76 67.31,67.45 C66.72,67.23 66.28,66.95 66.45,66.04 C66.52,65.7 66.25,65.28 66.01,65.25 C64.93,65.12 64.65,64.52 64.97,63.76 C65.15,63.34 65.11,62.63 64.5,62.31 C64.28,62.19 63.97,61.7 64.11,61 C64.34,59.91 70.06,58.93 70.06,58.93 Z" fill="url(#SVGID_3_)"/>
  <path id="arm_2_" d="M73.73,65.36 L83.62,58.69 L83.62,58.68 C84.81,57.5 85.23,56.68 85.47,55.69 C86.23,52.59 84.21,50.43 84.21,50.43 L75.06,40.2 L69.42,46.03 L77.46,54.07 L71.45,59.62 L73.73,65.36 Z" fill="url(#arm_1_)"/>
  <path d="M73.93,52.01 C73.93,52.01 79.99,46.02 79.83,41.41 C79.83,41.41 76.94,41.4 72.64,38.15 C69.93,36.11 66.33,35.94 64.88,38.32 C63.59,40.42 63.8,43.01 66.28,45.98 C68.14,48.19 73.93,52.01 73.93,52.01 Z" fill="#ED6D23"/>
  <path d="M36.29,43.39 L36.26,43.41 C35.83,43.95 35.09,44.1 34.61,43.73 L32.66,42.26 C32.18,41.9 32.14,41.16 32.57,40.62 L32.57,40.62 C33,40.08 33.74,39.93 34.22,40.3 L36.17,41.77 C36.66,42.14 36.73,42.85 36.29,43.39 Z" fill="url(#SVGID_4_)"/>
  <path d="M37.93,37.24 C37.96,37.26 37.97,37.28 37.97,37.28 C38.86,38.23 39.65,39.02 39.99,39.23 C40.89,39.8 41.73,40.52 42.25,41.53 C43.22,43.42 41.98,45.28 40.53,46.65 C39.09,48.03 38.18,48.33 36.61,48.07 C35.33,47.86 32.62,44.99 32.62,44.99 C32.34,44.66 32.02,44.32 31.7,44 C31.58,43.88 31.45,43.76 31.33,43.63 L31.32,43.62 C30.95,43.26 30.9,42.78 31.31,42.28 C31.85,41.62 32.38,41.96 32.44,42.01 C32.44,42.01 32.45,42.02 32.45,42.02 C32.7,42.25 32.97,42.56 33.17,42.71 C33.75,43.14 34.07,43.22 34.07,43.22 L36.81,39.74 L35.88,38.5 C35.88,38.5 35.87,38.48 35.84,38.45 C35.74,38.29 35.35,37.72 36.09,37.05 C36.91,36.35 37.76,37.08 37.93,37.24 Z" fill="url(#SVGID_5_)"/>
  <path d="M37.84,41.96 L37.84,41.96 C37.36,42.47 36.61,42.55 36.16,42.15 L34.09,40.3 C33.64,39.9 33.66,39.16 34.14,38.65 L34.14,38.65 C34.62,38.14 35.37,38.06 35.82,38.46 L37.89,40.31 C38.33,40.72 38.31,41.45 37.84,41.96 Z" fill="url(#SVGID_6_)"/>
  <path id="finger_1_" d="M35.15,42.26 C35.6,41.61 36.15,40.81 36.76,40.12 C36.85,40.02 36.93,39.93 37.02,39.84 C37.86,38.97 38.96,38.82 40.34,39.57 C40.34,39.57 40.34,39.57 40.34,39.57 C40.39,39.6 40.43,39.62 40.48,39.65 C40.56,39.7 40.64,39.75 40.73,39.8 C40.73,39.8 40.74,39.81 40.74,39.81 C40.86,39.89 40.98,39.97 41.1,40.06 C41.51,40.36 41.82,40.73 42.01,41.09 C42.77,42.3 42.55,43.45 42.55,43.45 C42.55,43.45 41.67,46.13 40.37,45.66 C39.07,45.19 38.4,43.34 38.4,43.34 L38.74,42 C38.35,41.96 38.01,42.13 37.55,42.65 C37.4,42.82 37.23,43.03 37.03,43.28 C37.01,43.31 36.76,43.62 36.74,43.64 C36.44,43.97 36.1,44.13 35.69,44.1 C35.16,44.07 34.71,43.56 34.46,43.36 C34.65,43.12 34.9,42.61 35.15,42.26 Z" fill="url(#finger_2_)"/>
  <path id="shadow" d="M34.56,45.35 L36.18,44.02 L37.04,43.04 L38.16,42.06 L38.55,42.23 L38.31,43.51 L39.15,44.77 L39.68,45.22 L36.93,47.17 Z" fill="url(#shadow_1_)"/>
  <path id="tone_5_" d="M34.67,44.62 C34.64,45.24 34.04,45.58 34.08,45.59 C34.25,45.66 35.09,45.45 36.02,44.41 C36.74,43.6 37.43,42.55 38.27,42.3 C37.98,43.72 38.61,44.81 39.77,45.24 C38.88,44.41 38.16,43.01 38.97,41.89 C38.31,41.49 37.54,42.15 37.15,42.63 C36.7,43.17 36.3,44.01 35.47,43.9 C34.9,43.83 34.69,43.47 34.89,42.93 C35.39,41.61 36.56,40.26 37.76,39.51 C38.2,39.24 39.1,39.17 40.26,39.4 C39.41,38.74 37.96,38.95 37.41,39.21 C36.94,39.43 37.06,39.34 36.64,39.07 C36.43,38.93 36.22,38.79 36.02,38.66 C36.19,38.94 36.49,39.28 36.54,39.61 C36.6,40.02 36.21,40.37 35.97,40.66 C35.35,41.4 34.81,40.76 34.17,40.36 C34.6,40.87 34.7,41.03 34.92,41.39 C35.21,41.88 34.77,42.28 34.45,42.66 C33.8,43.44 32.46,41.85 32.37,41.95 C32.27,42.07 34.7,43.94 34.67,44.62 Z" fill="#875334"/>
  <path id="hair_4_" d="M73.59,12.82 C72.33,9.48 69.66,8.43 68.79,8.17 C68.4,6.96 66.41,2.37 58.86,3.47 C57.02,3.74 55.67,4.59 54.47,5.34 C53.96,5.66 53.47,5.97 53.02,6.17 C52.65,6.34 52,6.49 51.47,6.3 C50.26,5.88 50.69,4.05 50.69,4.05 C50.69,4.05 46.23,4.85 48.07,9.18 C46.57,9.81 45.85,11.38 45.56,12.86 C45.16,14.88 46.12,16.84 48.05,17.74 C48.05,17.74 47.72,14.47 52.43,14.75 C53.89,14.84 55.41,15.09 56.78,14.57 C57.3,14.37 57.79,14.05 58.3,13.81 C58.42,13.81 58.48,13.81 58.48,13.81 C60.25,14.8 57.82,18.96 59.76,21.46 C60.14,21.95 60.48,21.78 60.48,21.78 L61.3,20.63 C61.92,19.84 62.48,19.15 63.23,19.33 C65.44,19.86 64.97,23.81 62.32,24.64 C62.06,24.72 62.59,29.15 68.05,29.25 C70.87,29.3 71.91,26.98 71.91,26.98 C71.91,26.98 70.7,27.26 70.46,26.23 C70.33,25.7 70.83,24.99 71.73,24.22 C74.31,22 73.44,19.39 73.08,18.57 C73.46,17.83 74.57,15.43 73.59,12.82 Z" fill="#3C2C23"/>
  <path d="M73.06,18.58 C73.11,18.49 72.24,20.57 68.64,20.16 C67.16,20.13 65.03,23.67 67.15,26.07 C69.03,28.19 71.89,26.99 71.89,26.99 C71.89,26.99 71.5,27.1 70.93,26.89 C70.56,26.75 70.44,26.27 70.44,26.25 C70.31,25.72 70.81,25.01 71.71,24.24 C74.29,22 73.42,19.39 73.06,18.58 Z" fill="url(#SVGID_7_)"/>
  <path d="M73.59,12.82 C72.93,11.06 71.68,9.57 70.02,8.69 C69.78,8.56 69.19,8.26 68.78,8.18 C68.96,8.96 68.93,9.79 68.58,10.63 C68.57,10.66 68.17,11.92 67.06,12.92 C67.83,14.03 68.21,15.37 68.56,16.69 C68.87,17.84 69.16,19.1 68.64,20.17 C69.33,20.14 70.43,20.35 71.65,19.83 C72.82,19.33 73.45,18 73.76,16.81 C74.09,15.49 74.07,14.1 73.59,12.82 Z" fill="url(#SVGID_8_)"/>
  <path d="M68.57,10.63 C69.48,8.41 68.29,6.33 66.46,4.92 C64.31,3.27 61.45,3.09 58.86,3.47 C57.02,3.74 55.67,4.59 54.47,5.34 C53.96,5.66 53.47,5.97 53.02,6.17 C52.65,6.34 52,6.49 51.47,6.3 C50.26,5.88 50.69,4.05 50.69,4.05 C50.69,4.05 46.23,4.85 48.07,9.18 C46.57,9.81 45.85,11.38 45.56,12.86 C45.16,14.88 46.12,16.84 48.05,17.74 C48.05,17.74 47.72,14.47 52.43,14.75 C53.89,14.84 55.41,15.09 56.78,14.57 C57.99,14.11 58.41,13.47 59.75,13.57 C61.2,13.68 63.12,14.26 64.61,14.06 C67.63,13.65 68.56,10.67 68.57,10.63 Z" fill="url(#SVGID_9_)"/>
  <path d="M67.15,26.07 C66.2,25.02 65.97,23.32 64.47,22.38 C64.17,23.36 63.44,24.29 62.31,24.64 C62.05,24.72 62.58,29.15 68.04,29.25 C70.86,29.3 71.9,26.98 71.9,26.98 C71.9,26.98 69.07,28.18 67.15,26.07 Z" fill="url(#SVGID_10_)"/>
</svg>