<svg viewBox="0 0 128 128" xmlns="http://www.w3.org/2000/svg">
  <defs>
    <linearGradient id="suit_1_" gradientTransform="matrix(1 0 0 -1 0 0)" gradientUnits="userSpaceOnUse" x1="31.6262" x2="116.3885" y1="-75.6751" y2="-75.6751">
      <stop offset="0" stop-color="#FFA000"/>
      <stop offset="0.3413" stop-color="#FF9300"/>
      <stop offset="0.9717" stop-color="#FF7100"/>
      <stop offset="1" stop-color="#FF6F00"/>
    </linearGradient>
    <linearGradient id="SVGID_1_" gradientTransform="matrix(1 0 0 -1 0 0)" gradientUnits="userSpaceOnUse" x1="4.707" x2="96.668" y1="-75.1095" y2="-75.1095">
      <stop offset="0" stop-color="#E0BB95"/>
      <stop offset="1" stop-color="#CCA47A"/>
    </linearGradient>
    <linearGradient id="SVGID_8_" gradientTransform="matrix(1 0 0 -1 0 0)" gradientUnits="userSpaceOnUse" x1="21.0165" x2="34.3917" y1="-62.9149" y2="-70.3167">
      <stop offset="2.100000e-03" stop-color="#FFA000"/>
      <stop offset="0.9994" stop-color="#FF6F00"/>
    </linearGradient>
  </defs>
  <path d="M21.18,42.61 L32.9,40.52 C34.47,40.17 35.47,38.62 35.12,37.05 L35.12,37.05 C34.77,35.48 33.22,34.48 31.65,34.83 L20.04,38.06 C18.47,38.41 17.41,39.44 17.75,41.01 L17.75,41.01 C18.1,42.58 19.61,42.96 21.18,42.61 Z" fill="#BA8F63"/>
  <path d="M89.08,71.67 C83.97,69.26 79.87,64.74 76.39,60.28 L59.64,38.85 C58.63,37.19 57.04,36.04 55.15,35.59 C55.07,35.57 54.99,35.56 54.91,35.54 L54.92,35.47 L20.64,32.48 C19.57,32.39 18.5,32.5 17.47,32.82 L12.15,34.48 C11.45,34.7 10.78,35.01 10.15,35.41 C8.91,36.2 6.68,37.67 5.65,38.57 C5.08,39.07 4.7,39.58 4.7,40.49 C4.7,41.23 5,41.89 5.56,42.35 C6.17,42.86 7.03,43.06 7.91,42.9 C9.02,42.7 10.25,41.63 11.09,40.77 C11.32,40.53 11.62,40.38 11.95,40.34 L17.58,39.6 C18.01,39.54 18.43,39.56 18.83,39.65 C19.58,39.82 20.46,39.97 21.49,40.16 C22.82,40.4 24.48,40.69 26.42,41.12 C28.82,41.65 46.67,47.41 46.84,47.46 C48.05,47.88 49.11,48.69 49.82,49.76 L56.54,59.86 C59.07,63.66 59.04,68.67 56.48,72.33 L56.38,72.47 C53.67,76.38 50.44,83.3 49.19,87.9 C46.5,97.77 48.13,104.19 54.06,106.99 L76.91,117.78 L96.68,75.93 L89.08,71.67 Z" fill="url(#SVGID_1_)"/>
  <path id="suit" d="M113.15,84.31 L89.53,70.79 C84.42,68.38 79.88,64.75 76.39,60.29 L59.64,38.85 C58.63,37.19 57.04,36.04 55.15,35.59 C54.96,35.55 54.78,35.51 54.6,35.48 C54.54,35.45 54.48,35.43 54.41,35.42 L35.21,33.75 C35.09,33.74 34.94,33.78 34.84,33.87 C32.79,35.64 31.56,38.66 31.63,41.74 C31.63,41.94 31.65,42.14 31.67,42.34 C31.69,42.54 31.83,42.7 32.02,42.76 C38.08,44.63 46.76,47.43 46.84,47.46 C48.05,47.88 49.11,48.69 49.82,49.76 L56.54,59.86 C58.8,63.26 57.35,71.92 54.57,76.16 C54.43,76.37 54.47,76.65 54.67,76.82 C58.9,80.38 60.87,83.72 59.93,85.76 C59,87.79 55.29,88.43 49.76,87.53 C49.49,87.48 49.23,87.67 49.19,87.94 C49.14,88.23 49,88.95 48.84,89.81 C48.39,92.14 48.02,94.12 47.99,94.68 C47.98,94.88 48.08,95.06 48.25,95.15 C52.23,97.26 76.6,117.61 76.68,117.61 C76.87,117.61 95.25,110 95.33,109.82 C95.33,109.82 114.97,91.9 116.38,86.6 C116.63,85.62 114.39,84.96 113.15,84.31 Z" fill="url(#suit_1_)"/>
  <path d="M61.14,87.92 L61.14,87.92 C63.03,85.07 62.25,81.23 59.4,79.34 L54.99,76.42 L48.16,86.74 L52.57,89.66 C55.41,91.55 59.25,90.77 61.14,87.92 Z" fill="#C48E6A"/>
  <path id="hair" d="M19.95,60.96 C19.95,60.96 20.08,60.75 20.14,60.66 C20.2,60.57 20.34,60.36 20.34,60.36 C28.34,49.78 36.12,51.51 40.86,53.67 C46,56 49.57,58.09 49.57,58.09 C49.57,58.09 49.26,58.15 48.76,58.31 C48.24,58.49 47.81,58.78 47.81,58.78 L51.35,61.97 L40.71,60.49 C40.64,60.48 40.58,60.51 40.55,60.57 L39.29,63.03 C38.02,65.5 36.61,67.9 35.09,70.22 L35.1,70.22 C35.03,70.32 34.97,70.42 34.9,70.52 C34.83,70.62 34.77,70.72 34.7,70.82 L34.69,70.82 C33.15,73.13 31.49,75.36 29.71,77.5 L27.94,79.62 C27.9,79.67 27.89,79.74 27.93,79.8 L33.45,89.02 L29.13,87 C29.13,87 29.02,87.51 29.06,88.06 C29.1,88.58 29.17,88.89 29.17,88.89 C29.17,88.89 25.49,86.54 21.55,82.5 C17.82,78.67 13.5,72.14 19.95,60.96 Z" fill="#AB872F"/>
  <path id="ears" d="M52.1,58.71 C49.41,56.93 47.33,59.14 47.33,59.14 L46.57,60.29 L30.06,85.22 L29.3,86.37 C29.3,86.37 28.08,89.15 30.77,90.93 C33.14,92.5 35.28,91.3 36.49,89.48 L53,64.54 C54.2,62.72 54.47,60.28 52.1,58.71 Z" fill="#C48E6A"/>
  <path d="M20.71,61.1 C27.83,50.34 38.04,53.05 49.75,60.81 C61.9,68.85 59.87,78.74 56.05,84.51 C52.29,90.19 44.01,96.06 31.78,87.96 C20.06,80.19 13.59,71.86 20.71,61.1 Z" fill="#E0BB95"/>
  <path d="M44.03,62.7 L44.03,62.7 C44.03,62.7 41.97,62.65 40.54,64.77 C39.11,66.9 39.94,68.78 39.94,68.78 L39.94,68.78 C39.99,68.92 40.09,69.06 40.23,69.15 C40.58,69.38 41.05,69.29 41.28,68.94 C41.33,68.87 41.39,68.66 41.4,68.63 C41.73,67 42.39,66 42.39,66 C42.39,66 43.06,65.01 44.44,64.09 C44.46,64.08 44.63,63.94 44.68,63.87 C44.91,63.52 44.82,63.05 44.47,62.82 C44.34,62.73 44.19,62.69 44.03,62.7 Z" fill="#AB872F"/>
  <path d="M35.16,75.92 L35.16,75.92 C35.16,75.92 33.1,75.87 31.68,77.99 C30.25,80.12 31.08,82 31.08,82 L31.08,82 C31.13,82.14 31.23,82.28 31.37,82.37 C31.72,82.6 32.19,82.51 32.42,82.16 C32.47,82.09 32.53,81.88 32.54,81.85 C32.87,80.22 33.53,79.22 33.53,79.22 C33.53,79.22 34.2,78.23 35.58,77.31 C35.6,77.3 35.77,77.16 35.82,77.09 C36.05,76.74 35.96,76.27 35.61,76.04 C35.47,75.95 35.32,75.92 35.16,75.92 Z" fill="#AB872F"/>
  <path d="M40.21,76.18 C42.05,77.42 42.51,79.96 40.38,83.11 C38.28,86.22 35.72,86.79 33.88,85.55 C32.04,84.31 31.11,81.63 33.32,78.37 C35.46,75.19 38.37,74.94 40.21,76.18 Z" fill="#01579B"/>
  <path id="SVGID_2_" d="M39.267,77.606 C40.614,78.522 40.714,80.724 39.491,82.523 C38.267,84.322 36.183,85.038 34.835,84.122 C33.488,83.206 33.388,81.004 34.612,79.205 C35.836,77.406 37.92,76.69 39.267,77.606 Z" fill="#B3E5FC"/>
  <path d="M37.403,77.254 L39.969,81.653 C39.842,81.949 39.682,82.241 39.491,82.523 C39.245,82.884 38.965,83.201 38.664,83.47 L35.562,78.152 C36.134,77.674 36.775,77.366 37.403,77.254 Z" fill="#FFFFFF"/>
  <path d="M48.44,64.01 C50.28,65.25 50.74,67.79 48.61,70.94 C46.51,74.05 43.95,74.62 42.11,73.38 C40.27,72.14 39.24,69.51 41.44,66.25 C43.59,63.07 46.6,62.77 48.44,64.01 Z" fill="#01579B"/>
  <path id="SVGID_4_" d="M47.499,65.429 C48.846,66.346 48.946,68.547 47.722,70.346 C46.498,72.146 44.414,72.862 43.067,71.945 C41.72,71.029 41.62,68.828 42.843,67.028 C44.067,65.229 46.151,64.513 47.499,65.429 Z" fill="#B3E5FC"/>
  <path d="M45.635,65.077 L48.201,69.477 C48.074,69.772 47.914,70.064 47.722,70.346 C47.476,70.709 47.195,71.027 46.892,71.297 L43.79,65.978 C44.363,65.499 45.006,65.189 45.635,65.077 Z" fill="#FFFFFF"/>
  <path d="M43.49,73.6 L40.94,77.37 L39.06,76.1 L41.61,72.33 Z" fill="#01579B"/>
  <path d="M48.23,59.86 C49.49,61.36 49.59,63.24 49.19,65.16 L47.31,63.9 C48.02,62.34 47.88,60.57 46.35,58.6 L48.23,59.86 Z" fill="#01579B"/>
  <path d="M29.96,86.91 C31.83,87.51 33.61,86.9 35.24,85.8 L33.36,84.54 C32.18,85.79 30.48,86.32 28.08,85.65 L29.96,86.91 Z" fill="#01579B"/>
  <path d="M18.1,59.1 C18.1,59.1 17.95,59.31 17.89,59.4 C17.83,59.49 17.7,59.7 17.7,59.7 C10.69,71.39 16.28,79.7 20.39,83.15 C24.95,86.98 29.04,88.82 29.04,88.82 C29.04,88.82 28.96,88.5 28.91,87.98 C28.85,87.42 28.95,86.91 28.95,86.91 C28.95,86.91 27.51,81.37 28.23,76.82 C28.97,72.17 34.02,64.61 37.53,62.39 C41.25,60.04 43.4,59.01 47.77,58.76 C47.77,58.76 48.21,58.47 48.75,58.3 C49.26,58.14 49.58,58.09 49.58,58.09 C49.58,58.09 46.18,55.26 40.94,52.41 C36.96,50.25 26.61,47.98 18.1,59.1 Z" fill="url(#SVGID_8_)"/>
  <path id="nose" d="M46.61,76.09 C46.57,76.12 46.53,76.16 46.49,76.2 L44.65,79.1 C44.63,79.15 44.61,79.2 44.6,79.25 C44.54,79.58 44.72,79.9 45.09,79.96 C45.46,80.02 46.64,79.96 47.38,78.79 C48.12,77.63 47.67,76.53 47.46,76.22 C47.25,75.92 46.88,75.89 46.61,76.09 Z" fill="#C48E6A"/>
  <path id="mouth" d="M52.39,78.42 C53.242,79.06 53.076,80.721 52.019,82.13 C50.961,83.539 49.413,84.162 48.561,83.523 C47.708,82.883 47.874,81.222 48.932,79.813 C49.989,78.404 51.537,77.78 52.39,78.42 Z" fill="#6D4C41"/>
  <path id="water_x5F_top" d="M112,81.98 C105.43,81.98 102.07,89.17 96,89.17 C89.94,89.17 86.57,81.98 80,81.98 C73.43,81.98 70.07,89.17 64,89.17 C57.93,89.17 54.57,81.98 48,81.98 C41.43,81.98 38.06,89.17 32,89.17 C25.94,89.17 22.57,81.98 16,81.98 C11.07,81.98 7.94,86.03 4.12,88.05 L4.12,123.95 L123.93,123.95 L123.93,88.08 C120.11,86.08 116.97,81.98 112,81.98 Z" fill="#039BE5"/>
  <path id="water_x5F_bottom" d="M111.97,105.69 C105.4,105.69 102.04,98.5 95.97,98.5 C89.91,98.5 86.54,105.69 79.97,105.69 C73.4,105.69 70.04,98.5 63.97,98.5 C57.9,98.5 54.54,105.69 47.97,105.69 C41.4,105.69 38.03,98.5 31.97,98.5 C25.91,98.5 22.54,105.69 15.97,105.69 C11.05,105.69 7.93,101.66 4.12,99.63 L4.12,123.95 L123.93,123.95 L123.93,99.56 C120.1,101.56 116.95,105.69 111.97,105.69 Z" fill="#29B6F6"/>
</svg>