<svg viewBox="0 0 128 128" xmlns="http://www.w3.org/2000/svg">
  <circle cx="49.78" cy="51.74" fill="#252525" r="45.44"/>
  <rect fill="#504F4F" height="4.65" transform="matrix(0.7071 -0.7071 0.7071 0.7071 -35.4875 83.5545)" width="6.23" x="80" y="82.29"/>
  <radialGradient id="SVGID_1_" cx="105.2816" cy="101.2407" gradientTransform="matrix(-0.7143 -0.6999 0.1404 -0.1433 163.4154 192.188)" gradientUnits="userSpaceOnUse" r="22.255">
    <stop offset="0" stop-color="#000000"/>
    <stop offset="1" stop-color="#504F4F"/>
  </radialGradient>
  <path d="M93.09,88.43l-2.62-2.08L84.81,92l2.04,2.59c4.8,6.07,14.69,16.03,20.69,20.9l4.31,3.5 c1.55,1.34,3.89,1.29,5.37-0.18c1.47-1.47,1.52-3.81,0.18-5.37l-3.53-4.36C109.04,103.09,99.12,93.22,93.09,88.43z M115.52,117.03 c-0.63,0.63-1.64,0.63-2.27,0c-0.63-0.63-0.63-1.64,0-2.27c0.63-0.63,1.64-0.63,2.27,0C116.15,115.39,116.15,116.4,115.52,117.03z" fill="url(#SVGID_1_)"/>
  <path d="M86.54,83.54l-4.55,4.55c-0.3,0.3-0.3,0.79,0,1.09l2.84,2.84l5.64-5.64l-2.84-2.84 C87.32,83.24,86.84,83.24,86.54,83.54z" fill="#333333"/>
  <path d="M49.78,7.42c24.44,0,44.32,19.88,44.32,44.32S74.22,96.06,49.78,96.06S5.46,76.18,5.46,51.74 S25.34,7.42,49.78,7.42 M49.78,6.31c-25.09,0-45.44,20.34-45.44,45.44s20.34,45.44,45.44,45.44s45.44-20.34,45.44-45.44 S74.87,6.31,49.78,6.31z" fill="#595858"/>
  <circle cx="49.78" cy="51.74" fill="#575757" r="36.28"/>
  <radialGradient id="SVGID_2_" cx="-68.1468" cy="637.1908" gradientTransform="matrix(4.489700e-11 1 1 -4.489700e-11 -587.5256 120.0557)" gradientUnits="userSpaceOnUse" r="28.3897">
    <stop offset="0" stop-color="#FFFFFF"/>
    <stop offset="0.4787" stop-color="#FDFDFD"/>
    <stop offset="0.6903" stop-color="#F8F6F6"/>
    <stop offset="0.8488" stop-color="#EEEBE9"/>
    <stop offset="0.9808" stop-color="#E1DAD7"/>
    <stop offset="1" stop-color="#DED7D4"/>
  </radialGradient>
  <path d="M51.95,23.68c-5.28-0.95-10.54,1.41-15.38,3.72c-4.57,2.17-9.44,4.62-11.82,9.08 c-2.51,4.73-1.58,10.47-2.46,15.75c-0.53,3.19-1.71,6.62-0.27,9.51c1.14,2.28,3.67,3.6,4.91,5.83c0.96,1.71,1.05,3.77,1.66,5.63 c0.86,2.63,2.82,4.88,5.3,6.1s5.46,1.39,8.07,0.46c2.47-0.88,4.69-2.71,7.31-2.73c1.82-0.01,3.52,0.86,5.31,1.15 c2.8,0.46,5.68-0.55,7.98-2.2s4.09-3.91,5.74-6.22c1.64-2.31,3.17-4.7,4.69-7.09c1.44-2.25,2.89-4.53,3.82-7.03 c1.95-5.21,1.48-11.26-1.24-16.11c-2.6-4.63-6.61-7.07-11.36-9.03C59.77,28.68,57.01,24.59,51.95,23.68z" fill="url(#SVGID_2_)"/>
  <path d="M49.81,35.55c9.69,0,15.93,5.86,15.93,15.55 S61,64.83,51.52,66.84c-9.86,2.09-18.2-6.24-18.2-15.93S40.12,35.55,49.81,35.55z" enable-background="new " fill="#E6DDD6" opacity="0.43"/>
  <radialGradient id="SVGID_3_" cx="41.607" cy="82.4656" gradientTransform="matrix(1 0 0 -1 0 129.2756)" gradientUnits="userSpaceOnUse" r="18.766">
    <stop offset="4.926100e-03" stop-color="#FDBF00"/>
    <stop offset="0.167" stop-color="#FCB70B"/>
    <stop offset="0.5553" stop-color="#FBA822"/>
    <stop offset="0.8029" stop-color="#FAA32A"/>
    <stop offset="1" stop-color="#FC923B"/>
  </radialGradient>
  <circle cx="49.9" cy="51.01" fill="url(#SVGID_3_)" r="14.31"/>
</svg>