<svg viewBox="0 0 128 128" xmlns="http://www.w3.org/2000/svg">
  <defs/>
  <path d="M64.36,54.09 C48.75,53.53 35.85,63.7 32.81,84.03 C29.75,104.48 39.57,124.41 64.07,123.96 C90.11,123.49 98.14,102.31 94.69,82.7 C90.75,60.42 77.72,54.58 64.36,54.09 Z" fill="#FFBE1F"/>
  <path d="M77.01,72.23 C74.82,72.17 70.1,76.87 69.16,77.92 C67.26,80.05 68.66,82.16 70.85,81.1 C72.96,80.08 76.23,77.82 77.05,77.81 C77.93,77.8 80.47,79.48 81.54,80.29 C84.62,82.59 86.33,80.18 84.44,77.87 C83.38,76.58 79.52,72.3 77.01,72.23 Z" fill="#F79429"/>
  <path d="M50.92,72.29 C48.42,72.16 42.84,77.85 42.54,78.17 C40.95,79.91 42.43,81.92 44.55,81.02 C45.77,80.5 49.63,77.92 50.56,77.95 C51.25,77.97 52.75,79.09 54.91,80.5 C58.45,82.8 60.4,80.42 58.06,77.88 C55.7,75.32 53.09,72.4 50.92,72.29 Z" fill="#F79429"/>
  <path d="M40.09,86.26 C38.64,86.16 35.68,88.86 34.85,89.78 C34.02,90.7 33.35,91.51 33.98,92.48 C34.41,93.14 35.76,93.17 36.78,92.59 C38.09,91.85 39.44,91.12 39.95,91.14 C40.78,91.18 44.07,94.09 45.09,94.96 C47.75,97.21 49.44,94.19 47.97,92.45 C46.4,90.59 42.77,86.45 40.09,86.26 Z" fill="#F79429"/>
  <path d="M64.13,86.5 C61.35,86.46 56.17,91.99 55.38,92.91 C53.47,95.14 54.92,98.11 57.89,96.03 C58.78,95.4 62.52,92.19 63.87,92.29 C64.73,92.36 67.66,94.66 69.67,96.07 C72.35,97.96 74.16,95.78 72.31,93.3 C71.48,92.18 67.2,86.54 64.13,86.5 Z" fill="#F79429"/>
  <path d="M87.35,85.87 C85.74,85.78 80.33,91.47 79.41,92.67 C77.82,94.75 79.56,96.73 82,95 C83.73,93.77 87.32,91.06 87.69,91.04 C88.22,91 89.64,92.07 90.73,92.7 C91.9,93.38 93.24,93.32 93.65,92.55 C94.21,91.51 93.38,90.49 92.53,89.7 C91.11,88.36 88.75,85.95 87.35,85.87 Z" fill="#F79429"/>
  <path d="M76.5,101.91 C73.6,101.96 69.43,106.89 68.67,108.16 C67.22,110.6 69.45,111.62 70.7,111 C72.59,110.05 74.63,107.84 76.65,107.47 C77.52,107.31 80.34,109.54 81.08,110 C84.76,112.3 86.09,109.19 83.66,106.78 C81.91,105.05 78.59,101.87 76.5,101.91 Z" fill="#F79429"/>
  <path d="M51.76,101.82 C49.72,101.72 44.84,106.15 43.62,107.33 C41.98,108.93 43.17,111.59 45.77,110.33 C48.04,109.23 50.76,107.55 51.52,107.59 C52.48,107.64 54.55,109.25 55.78,110.09 C59.44,112.61 61.02,109.84 58.74,107.2 C57.11,105.33 53.96,101.93 51.76,101.82 Z" fill="#F79429"/>
  <path d="M25.53,23.68 C24.62,22.51 29.63,19.81 34.91,19.66 C41.54,19.47 47.62,21.23 47.62,21.23 C47.62,21.23 48.17,16.87 44.67,11.99 C42.27,8.64 41.18,6.98 41.25,5.79 C41.32,4.59 46.52,3.86 53.45,6.95 C59.24,9.53 63.74,14.45 63.74,14.45 C63.74,14.45 67.4,9.33 72.22,6.86 C77.82,4 84.68,3.51 85.28,4.64 C85.74,5.5 83.56,8.02 82.13,11.26 C79.88,16.34 80.01,20.53 80.01,20.53 C80.01,20.53 84.67,17.13 89.67,16.13 C92.21,15.62 99.7,15.16 99.2,16.99 C99.12,17.28 86.32,26.27 86.32,26.27 L84.41,35.62 C84.41,35.62 91.2,31.74 97.25,32.45 C100.38,32.82 99.86,33.8 99.86,33.8 L85.34,42.04 L83.18,49.17 C83.18,49.17 87.25,48.15 91.21,48.1 C93.12,48.08 96.25,48.58 96.4,49.55 C96.6,50.8 87.65,55.22 87.65,55.22 L63.56,64.98 L40.69,56.7 C40.69,56.7 30.42,55.08 30.42,53.96 C30.42,52.83 32.47,51.95 35.55,51.47 C39.11,50.91 42.77,51.11 42.77,51.11 L32.2,44.1 C32.2,44.1 25.7,43.49 25.14,42.22 C24.58,40.95 28.06,38.63 30.19,38.01 C35.58,36.43 41.72,37.69 41.72,37.69 L38.25,28.4 C38.23,28.37 26.52,24.95 25.53,23.68 Z" fill="#2F7C31"/>
  <path d="M54.36,33.59 C54.9,33.86 56.3,30.54 58.03,28.41 C60.55,25.3 63.83,22.97 64.4,22.97 C64.95,22.97 67.52,24.92 69.75,27.59 C72.45,30.83 73.66,33.54 73.93,33.67 C74.93,34.16 78.17,28.45 84.41,23.63 C89.8,19.46 98.75,15.73 99.22,16.99 C99.37,17.4 94.78,20.42 90.38,26.54 C85.55,33.25 86.02,40.48 86.02,40.48 C86.02,40.48 91.55,36.51 93.33,35.59 C94.82,34.82 100.47,32.65 99.83,33.86 C99.37,34.72 93.97,40.1 90.87,43.05 C85.99,47.67 84.55,54.56 85.02,54.95 C85.56,55.4 89.19,52.71 91.38,51.48 C93.46,50.31 96.4,49.36 96.38,49.56 C96.25,51.03 90.95,54.85 87.22,58.2 C84.46,60.67 79.12,67.72 63.91,67.47 C51.34,67.27 43.99,60.69 39.41,58.23 C36.25,56.53 30.37,54.63 30.44,54.05 C30.48,53.73 33.24,53.51 35.1,53.74 C40.24,54.36 43.54,55.91 43.89,55.46 C44.25,55 39.34,48.78 30.86,45 C26.77,43.17 24.98,42.7 25.06,41.88 C25.09,41.52 27.65,41.05 30.91,40.94 C36.69,40.75 42.19,42.79 42.7,42.85 C43.9,43 39.05,34.59 36.3,31.31 C31.94,26.1 25.14,24.71 25.42,23.4 C25.57,22.69 33.49,22.59 39.99,25.03 C46.76,27.55 53.19,33.01 54.36,33.59 Z" fill="#709921"/>
  <path d="M64.38,38.24 C63.77,38.32 61.36,39.62 58.19,42.95 C54.44,46.88 53.12,51.13 53.99,51.85 C55.16,52.81 56.79,50.98 59.03,49.4 C61.67,47.54 63.81,46.53 64.27,46.53 C64.73,46.53 66.79,47.83 68.52,49.14 C70.67,50.78 72.53,52.55 73.48,51.95 C75.08,50.96 72.86,45.78 70.36,42.95 C67.7,39.93 64.91,38.17 64.38,38.24 Z" fill="#2F7C31"/>
</svg>