<svg viewBox="0 0 128 128" xmlns="http://www.w3.org/2000/svg">
  <defs/>
  <path d="M61.41,14.58 C61.41,14.58 63.21,5.85 65.13,5.34 C67.06,4.83 75.47,6.65 79.6,8.84 C85.37,11.89 88.93,16.98 89.78,23.18 C90.68,29.82 88.11,35.38 88.11,35.38 C88.11,35.38 94.14,31.79 101.33,32.43 C108.52,33.07 113.91,36.54 115.97,39.11 C118.02,41.68 120.85,44.5 120.46,45.79 C120.07,47.07 112.63,51.7 113.01,52.85 C113.4,54.01 122.13,53.36 123.02,54.9 C123.92,56.44 125.72,66.33 119.17,73.39 C112.62,80.45 106.2,81.48 106.2,81.48 C106.2,81.48 112.68,87.57 113.02,95.89 C113.3,102.7 111.47,106.77 107.75,108.19 C104.03,109.6 97.09,105.11 97.09,105.11 C97.09,105.11 103.12,115.89 100.43,117.56 C97.73,119.23 96.4,116.25 95.29,116.53 C94.38,116.76 95.93,118.97 93.88,120.9 C91.83,122.83 82.97,124.11 75.14,119.87 C67.31,115.63 64.87,108.96 64.87,108.96 C64.87,108.96 62.76,117.06 53.13,121.17 C43.5,125.28 36.49,120.25 35.21,119.48 C33.93,118.71 34.44,112.55 34.7,111.52 C34.96,110.49 36.11,108.05 35.34,107.54 C34.57,107.03 32,110.62 30.2,111.78 C28.4,112.94 26.09,114.22 23.78,112.29 C21.47,110.36 15.95,103.94 17.36,95.34 C18.77,86.74 23.65,81.86 23.65,81.86 C23.65,81.86 13.38,80.96 8.37,72.23 C3.36,63.5 4.02,54.77 4.92,53.61 C5.82,52.45 13.52,52.33 13.52,52.33 C13.52,52.33 6.2,48.09 6.97,44.76 C7.74,41.42 11.46,43.99 12.49,42.96 C13.52,41.93 9.87,38.03 12.75,35.99 C14.91,34.46 18.71,31.61 25.97,31.02 C33.62,30.39 38.94,34.23 38.94,34.23 C38.94,34.23 35.67,28.7 37.02,22.42 C38.09,17.45 41.77,13.18 45.23,10.74 C48.69,8.3 53.32,6.37 55.37,6.37 C57.42,6.37 61.41,14.58 61.41,14.58 Z" fill="#FFBCD8"/>
  <path d="M79.68,46.37 C81.06,47.96 83.97,45.79 85.88,42.55 C87.34,40.08 89.01,35.86 88.42,35.34 C87.83,34.82 83.28,38.36 81.74,40.11 C80.21,41.87 78.59,45.11 79.68,46.37 Z" fill="#FCA2C8"/>
  <path d="M87.42,77.33 C87.05,79.69 92.93,81.36 96.06,81.73 C99.03,82.08 106.19,82.48 106.21,81.47 C106.24,80.46 100.56,76.53 96.06,75.58 C92.11,74.75 87.74,75.32 87.42,77.33 Z" fill="#FCA2C8"/>
  <path d="M65.26,92.39 C63.25,92.27 62.5,96.95 62.87,100.55 C63.24,104.15 64.01,108.85 64.87,108.94 C65.73,109.03 67.22,103.83 67.59,98.96 C67.82,95.9 67.06,92.5 65.26,92.39 Z" fill="#FCA2C8"/>
  <path d="M23.66,81.86 C23.8,82.53 30.74,82.53 34.45,81.47 C38.16,80.41 40.49,78.24 40.07,76.65 C39.65,75.06 34.99,75.51 32.38,76.49 C28.99,77.76 23.53,81.2 23.66,81.86 Z" fill="#FCA2C8"/>
  <path d="M39.33,34.6 C38.54,35.18 41.08,40.01 42.78,42.08 C44.48,44.15 47.13,46.43 48.45,45.84 C49.78,45.26 48.56,41.07 45.64,38.26 C44.23,36.9 40.13,34.02 39.33,34.6 Z" fill="#FCA2C8"/>
  <path d="M78.4,45.99 C76.58,45.05 70.87,52.75 64.21,52.48 C57.55,52.21 50.69,45.15 49.48,46.23 C48.27,47.31 53.13,55.11 50.59,62.73 C48.27,69.7 40.13,74.34 41.01,76.06 C41.83,77.67 49.72,74.33 56.28,77.64 C63.93,81.51 62.47,91.39 65.16,91.46 C67.85,91.53 66.66,82.84 73.3,78.65 C79.69,74.61 86.51,77.75 87.09,75.69 C87.76,73.27 79.09,70.28 77.28,62.01 C75.17,52.46 80.29,46.96 78.4,45.99 Z" fill="#BF0477"/>
  <path d="M59.73,58.83 C58.36,59.29 54.81,67.42 55.37,68.42 C55.93,69.42 63.22,75.71 65.15,75.71 C67.08,75.71 73.43,69.61 73.49,68.67 C73.55,67.74 70.38,59.45 69.32,58.83 C68.26,58.21 61.04,58.39 59.73,58.83 Z" fill="#F2A159"/>
  <path d="M68.8,54.08 C67.23,55.54 67.08,58.34 68.98,59.91 C71.01,61.58 73.77,60.95 74.94,59.32 C75.97,57.9 76.07,55.71 74.35,54.17 C73.29,53.22 70.79,52.23 68.8,54.08 Z" fill="#FDD0B1"/>
  <path d="M71.28,69.71 C71.01,72.33 73.22,74.32 75.43,74.27 C78.32,74.21 79.39,71.8 79.36,70.16 C79.31,67.95 77.78,66.05 75.34,66.14 C72.9,66.23 71.51,67.5 71.28,69.71 Z" fill="#FDD0B1"/>
  <path d="M65.05,74.4 C63.11,74.45 61.08,75.75 61.12,78.6 C61.16,81.22 63.2,82.39 65.23,82.39 C67.26,82.39 68.93,80.94 68.93,78.46 C68.93,75.98 67.13,74.35 65.05,74.4 Z" fill="#FDD0B1"/>
  <path d="M52.68,65.96 C49.79,65.96 48.57,67.95 48.57,70.21 C48.57,72.47 50.24,74.11 52.91,74 C55.21,73.91 56.64,71.96 56.43,69.8 C56.2,67.45 55.12,65.96 52.68,65.96 Z" fill="#FDD0B1"/>
  <path d="M54.66,53.54 C53,55.15 52.94,57.92 54.71,59.37 C56.09,60.51 58.55,60.91 60.17,59.23 C61.8,57.56 61.52,55.17 60.08,53.77 C58.64,52.36 56.29,51.96 54.66,53.54 Z" fill="#FDD0B1"/>
</svg>