<svg viewBox="0 0 128 128" xmlns="http://www.w3.org/2000/svg" xmlns:xlink="http://www.w3.org/1999/xlink">
  <path d="M15.7,124c-3,0-4.8-1.4-5.8-3.1c-1.9-3-1.4-7.1,1.3-9.8l5.6-5.7l2.1,2.1l-5.6,5.7 c-1.7,1.7-2,4.2-0.9,6c2.3,3.6,8.1,0.9,12.6-2c6.4-4.1,11.3-5.2,14.5-3.2c2.9,1.7,3.6,6,3.7,8.3c0,0.9-0.6,1.6-1.5,1.6 c-0.8,0-1.5-0.6-1.5-1.4c-0.1-1.8-0.5-4.9-2.3-5.9c-1.5-0.9-4.8-1.1-11.4,3.2C21.8,122.9,18.3,124,15.7,124z" fill="#9E9E9E"/>
  <path d="M12.7,110.8c-1.6-1.6-1.6-4.1,0-5.7l4.2-7.1l8.5,8.5l-7.1,4.2C16.8,112.4,14.3,112.4,12.7,110.8z" fill="#757575"/>
  <g opacity="0.2">
    <path d="M17.5,102.9l3.1,3.1l-3.8,2.3l-0.3,0.2l-0.3,0.3c-0.2,0.2-0.5,0.3-0.7,0.3c-0.1,0-0.2,0-0.2,0 l-0.4-0.1l-0.2-0.3c-0.2-0.3-0.2-0.9,0.1-1.2l0.3-0.3l0.2-0.3L17.5,102.9 M16.9,98.1l-4.2,7.1c-1.3,1.3-1.5,3.4-0.6,4.9l-1,1.1 c-2.6,2.7-3.2,6.7-1.3,9.8c1.1,1.7,2.8,3.1,5.8,3.1c2.6,0,6.2-1.1,10.9-4.2c4.4-2.8,7.3-3.7,9.2-3.7c1,0,1.7,0.2,2.2,0.5 c1.7,1,2.2,4.1,2.3,5.9c0,0.8,0.7,1.4,1.5,1.4c0.9,0,1.5-0.7,1.5-1.6c-0.1-2.3-0.8-6.6-3.7-8.3c-1-0.6-2.3-0.9-3.6-0.9 c-2.9,0-6.6,1.4-10.9,4.2c-3,1.9-6.5,3.7-9.2,3.7c-1.4,0-2.6-0.5-3.4-1.7c-1.2-1.8-0.8-4.3,0.9-6l1.4-1.4c0.3,0.1,0.6,0.1,0.9,0.1 c1,0,2-0.4,2.8-1.2l7.1-4.2C25.4,106.6,16.9,98.1,16.9,98.1z" fill="#EEEEEE"/>
  </g>
  <radialGradient id="SVGID_1_" cx="53.976" cy="749.0132" gradientTransform="matrix(1 0 0 1.0013 0 -714.4389)" gradientUnits="userSpaceOnUse" r="70.217">
    <stop offset="0" stop-color="#40C4FF"/>
    <stop offset="0.2233" stop-color="#3ABFFD"/>
    <stop offset="0.5256" stop-color="#29B1F7"/>
    <stop offset="0.8716" stop-color="#0C9BEE"/>
    <stop offset="1" stop-color="#0091EA"/>
  </radialGradient>
  <path d="M65.9,41.5L15.5,96.7c-1.6,1.6-0.3,5.4,2.8,8.5s6.9,4.4,8.5,2.8l55-50.5 c-3.6-1.2-6.9-3.3-9.8-6.2C69.2,48.5,67.2,45.1,65.9,41.5z" fill="url(#SVGID_1_)"/>
  <path d="M74.9,31.5l-9,10c1.2,3.6,3.3,7,6.2,9.8s6.2,4.9,9.8,6.2l10-9L74.9,31.5z" fill="#0091EA"/>
  <path d="M57.2,69.7c-0.9,0-1.8-0.4-2.5-1c-1.4-1.4-1.4-3.6,0-5l4.2-4.2c0.7-0.7,1.5-1,2.5-1s1.8,0.4,2.5,1 c1.4,1.4,1.4,3.6,0,5l-4.2,4.2C59.1,69.3,58.2,69.7,57.2,69.7z" fill="#0091EA"/>
  <g opacity="0.2">
    <path d="M61.5,58.5c0.9,0,1.8,0.4,2.5,1c1.4,1.4,1.4,3.6,0,5l-4.2,4.2c-0.7,0.7-1.5,1-2.5,1s-1.8-0.4-2.5-1 c-1.4-1.4-1.4-3.6,0-5l4.2-4.2C59.7,58.8,60.6,58.5,61.5,58.5 M61.5,56.5c-1.5,0-2.8,0.6-3.9,1.6l-4.2,4.2c-2.1,2.1-2.1,5.6,0,7.8 c1,1,2.4,1.6,3.9,1.6s2.8-0.6,3.9-1.6l4.2-4.2c2.1-2.2,2.1-5.6,0-7.8C64.3,57,63,56.5,61.5,56.5z" fill="#EEEEEE"/>
  </g>
  <g opacity="0.2">
    <path d="M75,35.9l12.5,12.5l-7.7,6.9l-54.9,50.3c-0.8,0-2.6-0.7-4.5-2.6c-2-2-2.6-3.9-2.6-4.5l50.3-55 L75,35.9 M74.9,31.5l-9,10L15.5,96.6c-1.6,1.6-0.3,5.4,2.8,8.5c2.2,2.2,4.8,3.5,6.6,3.5c0.8,0,1.4-0.2,1.9-0.7l55-50.5l10-9 C91.9,48.5,74.9,31.5,74.9,31.5z" fill="#424242"/>
  </g>
  <radialGradient id="SVGID_2_" cx="93.642" cy="719.3467" gradientTransform="matrix(1 0 0 1.0013 0 -714.4389)" gradientUnits="userSpaceOnUse" r="51.366">
    <stop offset="0" stop-color="#757575"/>
    <stop offset="0.2223" stop-color="#6F6F6F"/>
    <stop offset="0.5051" stop-color="#606060"/>
    <stop offset="0.8196" stop-color="#464646"/>
    <stop offset="0.8589" stop-color="#424242"/>
    <stop offset="1" stop-color="#424242"/>
  </radialGradient>
  <ellipse cx="93.3" cy="30.1" fill="url(#SVGID_2_)" rx="26" ry="26"/>
  <g>
    <defs>
      <circle id="SVGID_3_" cx="93.3" cy="30" r="26"/>
    </defs>
    <clipPath id="SVGID_4_">
      <use overflow="visible" xlink:href="#SVGID_3_"/>
    </clipPath>
    <g clip-path="url(#SVGID_4_)">
      <ellipse cx="97.5" cy="-11.9" enable-background="new " fill="#9E9E9E" opacity="0.2" rx="2" ry="2"/>
      <ellipse cx="74.9" cy="10.8" enable-background="new " fill="#9E9E9E" opacity="0.2" rx="2" ry="2"/>
      <ellipse cx="89.1" cy="8" enable-background="new " fill="#9E9E9E" opacity="0.2" rx="2" ry="2"/>
      <ellipse cx="83.4" cy="13.6" enable-background="new " fill="#9E9E9E" opacity="0.2" rx="2" ry="2"/>
      <ellipse cx="77.7" cy="19.3" enable-background="new " fill="#9E9E9E" opacity="0.2" rx="2" ry="2"/>
      <ellipse cx="72.1" cy="25" enable-background="new " fill="#9E9E9E" opacity="0.2" rx="2" ry="2"/>
      <ellipse cx="66.4" cy="30.6" enable-background="new " fill="#9E9E9E" opacity="0.2" rx="2" ry="2"/>
      <ellipse cx="103.2" cy="5.1" enable-background="new " fill="#9E9E9E" opacity="0.2" rx="2" ry="2"/>
      <ellipse cx="97.5" cy="10.8" enable-background="new " fill="#9E9E9E" opacity="0.2" rx="2" ry="2"/>
      <ellipse cx="91.9" cy="16.5" enable-background="new " fill="#9E9E9E" opacity="0.2" rx="2" ry="2"/>
      <ellipse cx="86.2" cy="22.1" enable-background="new " fill="#9E9E9E" opacity="0.2" rx="2" ry="2"/>
      <ellipse cx="80.6" cy="27.8" enable-background="new " fill="#9E9E9E" opacity="0.2" rx="2" ry="2"/>
      <ellipse cx="74.9" cy="33.5" enable-background="new " fill="#9E9E9E" opacity="0.2" rx="2" ry="2"/>
      <ellipse cx="69.2" cy="39.1" enable-background="new " fill="#9E9E9E" opacity="0.2" rx="2" ry="2"/>
      <ellipse cx="106" cy="13.6" enable-background="new " fill="#9E9E9E" opacity="0.2" rx="2" ry="2"/>
      <ellipse cx="100.4" cy="19.3" enable-background="new " fill="#9E9E9E" opacity="0.2" rx="2" ry="2"/>
      <ellipse cx="94.7" cy="25" enable-background="new " fill="#9E9E9E" opacity="0.2" rx="2" ry="2"/>
      <ellipse cx="89.1" cy="30.6" enable-background="new " fill="#9E9E9E" opacity="0.2" rx="2" ry="2"/>
      <ellipse cx="83.4" cy="36.3" enable-background="new " fill="#9E9E9E" opacity="0.2" rx="2" ry="2"/>
      <ellipse cx="77.7" cy="42" enable-background="new " fill="#9E9E9E" opacity="0.2" rx="2" ry="2"/>
      <ellipse cx="72.1" cy="47.6" enable-background="new " fill="#9E9E9E" opacity="0.2" rx="2" ry="2"/>
      <ellipse cx="114.5" cy="16.5" enable-background="new " fill="#9E9E9E" opacity="0.2" rx="2" ry="2"/>
      <ellipse cx="108.8" cy="22.1" enable-background="new " fill="#9E9E9E" opacity="0.2" rx="2" ry="2"/>
      <ellipse cx="103.2" cy="27.8" enable-background="new " fill="#9E9E9E" opacity="0.2" rx="2" ry="2"/>
      <ellipse cx="97.5" cy="33.5" enable-background="new " fill="#9E9E9E" opacity="0.2" rx="2" ry="2"/>
      <ellipse cx="91.9" cy="39.1" enable-background="new " fill="#9E9E9E" opacity="0.2" rx="2" ry="2"/>
      <ellipse cx="86.2" cy="44.8" enable-background="new " fill="#9E9E9E" opacity="0.2" rx="2" ry="2"/>
      <ellipse cx="80.6" cy="50.5" enable-background="new " fill="#9E9E9E" opacity="0.2" rx="2" ry="2"/>
      <ellipse cx="117.3" cy="25" enable-background="new " fill="#9E9E9E" opacity="0.2" rx="2" ry="2"/>
      <ellipse cx="111.7" cy="30.6" enable-background="new " fill="#9E9E9E" opacity="0.2" rx="2" ry="2"/>
      <ellipse cx="106" cy="36.3" enable-background="new " fill="#9E9E9E" opacity="0.2" rx="2" ry="2"/>
      <ellipse cx="100.4" cy="42" enable-background="new " fill="#9E9E9E" opacity="0.2" rx="2" ry="2"/>
      <ellipse cx="94.7" cy="47.6" enable-background="new " fill="#9E9E9E" opacity="0.2" rx="2" ry="2"/>
      <ellipse cx="89.1" cy="53.3" enable-background="new " fill="#9E9E9E" opacity="0.2" rx="2" ry="2"/>
      <ellipse cx="120.2" cy="33.5" enable-background="new " fill="#9E9E9E" opacity="0.2" rx="2" ry="2"/>
      <ellipse cx="114.5" cy="39.1" enable-background="new " fill="#9E9E9E" opacity="0.2" rx="2" ry="2"/>
      <ellipse cx="108.8" cy="44.8" enable-background="new " fill="#9E9E9E" opacity="0.2" rx="2" ry="2"/>
      <ellipse cx="103.2" cy="50.5" enable-background="new " fill="#9E9E9E" opacity="0.2" rx="2" ry="2"/>
      <ellipse cx="97.5" cy="56.1" enable-background="new " fill="#9E9E9E" opacity="0.2" rx="2" ry="2"/>
    </g>
  </g>
  <g opacity="0.2">
    <path d="M93.3,7.1c6.1,0,11.9,2.4,16.3,6.7c9,9,9,23.6,0,32.6c-4.3,4.3-10.1,6.8-16.3,6.8S81.4,50.7,77,46.4 c-9-9-9-23.6,0-32.6C81.4,9.4,87.2,7.1,93.3,7.1 M93.3,4.1c-6.7,0-13.3,2.5-18.4,7.6c-10.2,10.2-10.2,26.6,0,36.8 c5.1,5.1,11.7,7.6,18.4,7.6s13.3-2.5,18.4-7.6c10.2-10.2,10.2-26.6,0-36.8C106.6,6.6,100,4.1,93.3,4.1z" fill="#EEEEEE"/>
  </g>
  <path d="M107.9,51.1L72.3,15.4c-1.1-1.1-1.1-2.9,0-4L74,9.8c1.1-1.1,2.9-1.1,4,0l35.6,35.7 c1.1,1.1,1.1,2.9,0,4l-1.7,1.7C110.8,52.2,109,52.2,107.9,51.1z" fill="#BDBDBD"/>
  <path d="M110.6,51L72.4,12.8c-0.8-0.8-0.8-2.1,0-2.8s2.1-0.8,2.8,0l38.2,38.2c0.8,0.8,0.8,2,0,2.8 S111.4,51.8,110.6,51z" fill="#E0E0E0"/>
</svg>