<svg viewBox="0 0 128 128" xmlns="http://www.w3.org/2000/svg">
  <defs>
    <linearGradient id="SVGID_1_" gradientTransform="matrix(1 0 0 -1 0 0)" gradientUnits="userSpaceOnUse" x1="5.3708" x2="122.3705" y1="-22.6583" y2="-105.1593">
      <stop offset="0" stop-color="#FFFFFF" stop-opacity="0"/>
      <stop offset="0.1646" stop-color="#C8C8C8" stop-opacity="0.1646"/>
      <stop offset="0.3934" stop-color="#828282" stop-opacity="0.3934"/>
      <stop offset="0.5997" stop-color="#4A4A4A" stop-opacity="0.5997"/>
      <stop offset="0.7759" stop-color="#222222" stop-opacity="0.7759"/>
      <stop offset="0.9151" stop-color="#090909" stop-opacity="0.9151"/>
      <stop offset="1" stop-color="#000000"/>
    </linearGradient>
  </defs>
  <path d="M124,35.2 C122.15,36.32 120.34,37.26 118.57,38.05 C116.79,38.85 115.05,39.5 113.33,40.03 C111.61,40.56 109.93,40.98 108.27,41.29 C106.61,41.61 104.98,41.83 103.38,41.97 C101.78,42.11 100.19,42.17 98.63,42.17 C97.07,42.17 95.53,42.11 94.01,41.99 C92.49,41.87 90.99,41.71 89.51,41.51 C88.03,41.3 86.56,41.06 85.11,40.78 C83.66,40.5 82.22,40.2 80.79,39.87 C79.36,39.54 77.94,39.19 76.54,38.82 C75.13,38.45 73.73,38.06 72.33,37.67 C70.93,37.28 69.54,36.86 68.16,36.45 C66.77,36.04 65.39,35.62 64,35.2 C62.62,34.78 61.23,34.36 59.84,33.95 C58.45,33.54 57.06,33.13 55.67,32.73 C54.27,32.33 52.87,31.95 51.46,31.58 C50.05,31.21 48.63,30.86 47.21,30.53 C45.79,30.2 44.34,29.89 42.89,29.62 C41.44,29.34 39.97,29.1 38.49,28.89 C37.01,28.68 35.51,28.52 33.99,28.41 C32.47,28.3 30.93,28.23 29.37,28.23 C27.81,28.23 26.23,28.29 24.62,28.43 C23.01,28.57 21.38,28.79 19.73,29.11 C18.07,29.43 16.39,29.84 14.67,30.37 C12.95,30.9 11.21,31.55 9.43,32.35 C7.66,33.15 5.85,34.09 4,35.2 L4,30.19 C4,30.19 4,27.31 4,25.82 L4,20.81 C5.85,19.69 7.66,18.75 9.43,17.96 C11.2,17.17 12.95,16.51 14.67,15.98 C16.39,15.45 18.07,15.03 19.73,14.72 C21.39,14.4 23.02,14.18 24.62,14.04 C26.23,13.9 27.81,13.84 29.37,13.84 C30.93,13.84 32.47,13.9 33.99,14.02 C35.51,14.13 37.01,14.3 38.49,14.5 C39.97,14.7 41.44,14.95 42.89,15.23 C44.34,15.51 45.78,15.81 47.21,16.14 C48.64,16.47 50.06,16.82 51.46,17.19 C52.87,17.56 54.27,17.95 55.67,18.34 C57.07,18.73 58.46,19.15 59.84,19.56 C61.22,19.97 62.61,20.39 64,20.81 C65.38,21.23 66.77,21.65 68.16,22.06 C69.55,22.47 70.94,22.88 72.33,23.28 C73.72,23.68 75.13,24.06 76.54,24.43 C77.95,24.8 79.37,25.15 80.79,25.48 C82.22,25.81 83.66,26.12 85.11,26.39 C86.56,26.67 88.03,26.91 89.51,27.12 C90.99,27.33 92.49,27.49 94.01,27.6 C95.53,27.71 97.07,27.78 98.63,27.78 C100.19,27.78 101.77,27.72 103.38,27.58 C104.99,27.44 106.62,27.22 108.27,26.9 C109.93,26.58 111.61,26.17 113.33,25.64 C115.05,25.11 116.79,24.46 118.57,23.66 C120.35,22.86 122.16,21.92 124,20.81 L124,25.82 L124,30.19 C124,30.19 124,33.28 124,35.2 L124,35.2 Z" fill="#FF0000"/>
  <path d="M124,49.6 C122.15,50.72 120.34,51.66 118.57,52.45 C116.79,53.25 115.05,53.9 113.33,54.43 C111.61,54.96 109.93,55.38 108.27,55.69 C106.61,56.01 104.98,56.23 103.38,56.37 C101.78,56.51 100.19,56.57 98.63,56.57 C97.07,56.57 95.53,56.51 94.01,56.39 C92.49,56.27 90.99,56.11 89.51,55.91 C88.03,55.7 86.56,55.46 85.11,55.18 C83.66,54.9 82.22,54.6 80.79,54.27 C79.36,53.94 77.94,53.59 76.54,53.22 C75.13,52.85 73.73,52.46 72.33,52.07 C70.93,51.68 69.54,51.26 68.16,50.85 C66.77,50.44 65.39,50.02 64,49.6 C62.61,49.18 61.23,48.76 59.84,48.35 C58.45,47.94 57.06,47.53 55.67,47.13 C54.27,46.73 52.87,46.35 51.46,45.98 C50.05,45.61 48.63,45.26 47.21,44.93 C45.78,44.6 44.34,44.29 42.89,44.02 C41.44,43.74 39.97,43.5 38.49,43.29 C37.01,43.08 35.51,42.92 33.99,42.81 C32.47,42.7 30.93,42.63 29.37,42.63 C27.81,42.63 26.23,42.69 24.62,42.83 C23.01,42.97 21.38,43.19 19.73,43.51 C18.07,43.83 16.39,44.24 14.67,44.77 C12.95,45.3 11.21,45.95 9.43,46.75 C7.65,47.55 5.85,48.48 4,49.6 L4,44.59 C4,44.59 4,41.71 4,40.22 C4,38.73 4,37.13 4,35.21 C5.85,34.09 7.66,33.15 9.43,32.36 C11.21,31.56 12.95,30.91 14.67,30.38 C16.39,29.85 18.07,29.43 19.73,29.12 C21.39,28.8 23.02,28.58 24.62,28.44 C26.23,28.3 27.81,28.24 29.37,28.24 C30.93,28.24 32.47,28.3 33.99,28.42 C35.51,28.53 37.01,28.7 38.49,28.9 C39.97,29.1 41.44,29.35 42.89,29.63 C44.34,29.91 45.78,30.21 47.21,30.54 C48.64,30.87 50.06,31.22 51.46,31.59 C52.87,31.96 54.27,32.35 55.67,32.74 C57.07,33.14 58.46,33.55 59.84,33.96 C61.23,34.37 62.61,34.79 64,35.21 C65.38,35.63 66.77,36.05 68.16,36.46 C69.55,36.87 70.94,37.28 72.33,37.68 C73.72,38.08 75.13,38.46 76.54,38.83 C77.95,39.2 79.37,39.55 80.79,39.88 C82.22,40.21 83.66,40.52 85.11,40.79 C86.56,41.07 88.03,41.31 89.51,41.52 C90.99,41.73 92.49,41.89 94.01,42 C95.53,42.11 97.07,42.18 98.63,42.18 C100.19,42.18 101.77,42.12 103.38,41.98 C104.99,41.84 106.62,41.62 108.27,41.3 C109.93,40.98 111.61,40.57 113.33,40.04 C115.05,39.51 116.79,38.86 118.57,38.06 C120.35,37.26 122.16,36.32 124,35.21 L124,40.22 C124,40.22 124,43.1 124,44.59 C124,46.08 124,47.68 124,49.6 Z" fill="#FB8D00"/>
  <path d="M124,64 C122.15,65.12 120.34,66.06 118.57,66.85 C116.79,67.65 115.05,68.3 113.33,68.83 C111.61,69.36 109.93,69.78 108.27,70.09 C106.61,70.41 104.98,70.63 103.38,70.77 C101.78,70.91 100.19,70.97 98.63,70.97 C97.07,70.97 95.53,70.91 94.01,70.79 C92.49,70.67 90.99,70.51 89.51,70.31 C88.03,70.1 86.56,69.86 85.11,69.58 C83.66,69.3 82.22,69 80.79,68.67 C79.36,68.34 77.94,67.99 76.54,67.62 C75.13,67.25 73.73,66.86 72.33,66.47 C70.93,66.08 69.54,65.66 68.16,65.25 C66.77,64.84 65.38,64.42 64,64 C62.62,63.58 61.23,63.16 59.84,62.75 C58.45,62.34 57.06,61.93 55.67,61.53 C54.27,61.13 52.87,60.75 51.46,60.38 C50.05,60.01 48.63,59.66 47.21,59.33 C45.79,59 44.34,58.69 42.89,58.42 C41.44,58.14 39.97,57.9 38.49,57.69 C37.01,57.48 35.51,57.32 33.99,57.21 C32.47,57.1 30.93,57.03 29.37,57.03 C27.81,57.03 26.23,57.09 24.62,57.23 C23.01,57.37 21.38,57.59 19.73,57.91 C18.07,58.23 16.39,58.64 14.67,59.17 C12.95,59.7 11.21,60.35 9.43,61.15 C7.66,61.94 5.85,62.88 4,64 L4,58.99 C4,58.99 4,56.11 4,54.62 L4,49.61 C5.85,48.49 7.66,47.55 9.43,46.76 C11.2,45.97 12.95,45.31 14.67,44.78 C16.39,44.25 18.07,43.83 19.73,43.52 C21.39,43.2 23.02,42.98 24.62,42.84 C26.23,42.7 27.81,42.64 29.37,42.64 C30.93,42.64 32.47,42.7 33.99,42.82 C35.51,42.93 37.01,43.1 38.49,43.3 C39.97,43.51 41.44,43.75 42.89,44.03 C44.34,44.31 45.78,44.61 47.21,44.94 C48.64,45.27 50.06,45.62 51.46,45.99 C52.87,46.36 54.27,46.75 55.67,47.14 C57.07,47.54 58.46,47.95 59.84,48.36 C61.23,48.77 62.61,49.19 64,49.61 C65.39,50.03 66.77,50.45 68.16,50.86 C69.55,51.27 70.94,51.68 72.33,52.08 C73.72,52.48 75.13,52.86 76.54,53.23 C77.95,53.6 79.37,53.95 80.79,54.28 C82.22,54.61 83.66,54.92 85.11,55.19 C86.56,55.47 88.03,55.71 89.51,55.92 C90.99,56.13 92.49,56.29 94.01,56.4 C95.53,56.51 97.07,56.58 98.63,56.58 C100.19,56.58 101.77,56.52 103.38,56.38 C104.99,56.24 106.62,56.02 108.27,55.7 C109.93,55.38 111.61,54.97 113.33,54.44 C115.05,53.91 116.79,53.26 118.57,52.46 C120.35,51.66 122.16,50.72 124,49.61 L124,54.62 L124,58.99 C124,58.99 124,62.08 124,64 Z" fill="#FFE000"/>
  <path d="M124,78.4 C122.15,79.52 120.34,80.46 118.57,81.25 C116.79,82.05 115.05,82.7 113.33,83.23 C111.61,83.76 109.93,84.18 108.27,84.49 C106.61,84.8 104.98,85.03 103.38,85.17 C101.77,85.31 100.19,85.37 98.63,85.37 C97.07,85.37 95.53,85.31 94.01,85.19 C92.49,85.08 90.99,84.91 89.51,84.71 C88.03,84.5 86.56,84.26 85.11,83.98 C83.66,83.7 82.22,83.4 80.79,83.07 C79.36,82.74 77.94,82.39 76.54,82.02 C75.13,81.65 73.73,81.26 72.33,80.87 C70.93,80.48 69.54,80.06 68.16,79.65 C66.77,79.24 65.39,78.82 64,78.4 C62.62,77.98 61.23,77.56 59.84,77.15 C58.45,76.74 57.06,76.33 55.67,75.93 C54.27,75.53 52.87,75.15 51.46,74.78 C50.05,74.41 48.63,74.06 47.21,73.73 C45.79,73.4 44.34,73.09 42.89,72.82 C41.44,72.54 39.97,72.3 38.49,72.09 C37.01,71.88 35.51,71.72 33.99,71.61 C32.47,71.5 30.93,71.43 29.37,71.43 C27.81,71.43 26.23,71.49 24.62,71.63 C23.01,71.77 21.38,71.99 19.73,72.31 C18.07,72.63 16.39,73.04 14.67,73.57 C12.95,74.1 11.21,74.75 9.43,75.55 C7.66,76.35 5.85,77.29 4,78.4 L4,73.39 C4,73.39 4,70.51 4,69.02 L4,64.01 C5.85,62.89 7.66,61.95 9.43,61.16 C11.21,60.36 12.95,59.71 14.67,59.18 C16.39,58.65 18.07,58.23 19.73,57.92 C21.39,57.6 23.02,57.38 24.62,57.24 C26.23,57.1 27.81,57.04 29.37,57.04 C30.93,57.04 32.47,57.1 33.99,57.22 C35.51,57.33 37.01,57.5 38.49,57.7 C39.97,57.91 41.44,58.15 42.89,58.43 C44.34,58.71 45.78,59.01 47.21,59.34 C48.64,59.67 50.06,60.02 51.46,60.39 C52.87,60.76 54.27,61.15 55.67,61.54 C57.07,61.94 58.46,62.35 59.84,62.76 C61.23,63.17 62.61,63.59 64,64.01 C65.38,64.43 66.77,64.85 68.16,65.26 C69.55,65.67 70.94,66.08 72.33,66.48 C73.72,66.88 75.13,67.26 76.54,67.63 C77.95,68 79.37,68.35 80.79,68.68 C82.22,69.01 83.66,69.32 85.11,69.59 C86.56,69.87 88.03,70.11 89.51,70.32 C90.99,70.53 92.49,70.69 94.01,70.8 C95.53,70.91 97.07,70.98 98.63,70.98 C100.19,70.98 101.77,70.92 103.38,70.78 C104.99,70.64 106.62,70.42 108.27,70.1 C109.93,69.78 111.61,69.37 113.33,68.84 C115.05,68.31 116.79,67.66 118.57,66.86 C120.35,66.06 122.16,65.12 124,64.01 L124,69.02 L124,73.39 C124,73.39 124,76.48 124,78.4 L124,78.4 Z" fill="#43A047"/>
  <path d="M124,92.8 C122.15,93.92 120.34,94.86 118.57,95.65 C116.79,96.45 115.05,97.1 113.33,97.63 C111.61,98.16 109.93,98.58 108.27,98.89 C106.61,99.2 104.98,99.43 103.38,99.57 C101.77,99.71 100.19,99.77 98.63,99.77 C97.07,99.77 95.53,99.71 94.01,99.59 C92.49,99.48 90.99,99.31 89.51,99.11 C88.03,98.9 86.56,98.66 85.11,98.38 C83.66,98.1 82.22,97.8 80.79,97.47 C79.36,97.14 77.94,96.79 76.54,96.42 C75.13,96.05 73.73,95.66 72.33,95.27 C70.93,94.87 69.54,94.46 68.16,94.05 C66.77,93.64 65.39,93.22 64,92.8 C62.62,92.38 61.23,91.96 59.84,91.55 C58.45,91.14 57.06,90.73 55.67,90.33 C54.27,89.93 52.87,89.55 51.46,89.18 C50.05,88.81 48.63,88.46 47.21,88.13 C45.79,87.8 44.34,87.49 42.89,87.22 C41.44,86.94 39.97,86.7 38.49,86.49 C37.01,86.28 35.51,86.12 33.99,86.01 C32.47,85.9 30.93,85.83 29.37,85.83 C27.81,85.83 26.23,85.89 24.62,86.03 C23.01,86.17 21.38,86.39 19.73,86.71 C18.08,87.03 16.39,87.44 14.67,87.97 C12.95,88.5 11.21,89.15 9.43,89.95 C7.65,90.75 5.85,91.68 4,92.8 L4,87.79 C4,87.79 4,84.91 4,83.42 L4,78.41 C5.85,77.29 7.66,76.35 9.43,75.56 C11.21,74.76 12.95,74.11 14.67,73.58 C16.39,73.05 18.07,72.63 19.73,72.32 C21.39,72 23.02,71.78 24.62,71.64 C26.23,71.5 27.81,71.44 29.37,71.44 C30.93,71.44 32.47,71.5 33.99,71.62 C35.51,71.73 37.01,71.9 38.49,72.1 C39.97,72.31 41.44,72.55 42.89,72.83 C44.34,73.11 45.78,73.41 47.21,73.74 C48.64,74.07 50.06,74.42 51.46,74.79 C52.87,75.16 54.27,75.55 55.67,75.94 C57.07,76.34 58.46,76.75 59.84,77.16 C61.23,77.57 62.61,77.99 64,78.41 C65.38,78.83 66.77,79.25 68.16,79.66 C69.55,80.07 70.94,80.48 72.33,80.88 C73.72,81.28 75.13,81.66 76.54,82.03 C77.95,82.4 79.37,82.75 80.79,83.08 C82.22,83.41 83.66,83.72 85.11,83.99 C86.56,84.27 88.03,84.51 89.51,84.72 C90.99,84.93 92.49,85.09 94.01,85.2 C95.53,85.31 97.07,85.38 98.63,85.38 C100.19,85.38 101.77,85.32 103.38,85.18 C104.99,85.04 106.62,84.82 108.27,84.5 C109.93,84.18 111.61,83.77 113.33,83.24 C115.05,82.71 116.79,82.06 118.57,81.26 C120.35,80.46 122.16,79.52 124,78.41 L124,83.42 L124,87.79 C124,87.79 124,90.88 124,92.8 Z" fill="#1565C0"/>
  <path d="M124,107.2 C122.15,108.32 120.34,109.26 118.57,110.05 C116.79,110.85 115.05,111.5 113.33,112.03 C111.61,112.56 109.93,112.98 108.27,113.29 C106.61,113.61 104.98,113.83 103.38,113.97 C101.77,114.11 100.19,114.17 98.63,114.17 C97.07,114.17 95.53,114.11 94.01,113.99 C92.49,113.88 90.99,113.71 89.51,113.51 C88.03,113.3 86.56,113.06 85.11,112.78 C83.66,112.5 82.22,112.2 80.79,111.87 C79.36,111.54 77.94,111.19 76.54,110.82 C75.14,110.45 73.73,110.06 72.33,109.67 C70.93,109.27 69.54,108.86 68.16,108.45 C66.77,108.04 65.39,107.62 64,107.2 C62.62,106.78 61.23,106.36 59.84,105.95 C58.45,105.54 57.06,105.13 55.67,104.73 C54.27,104.33 52.87,103.95 51.46,103.58 C50.05,103.21 48.63,102.86 47.21,102.53 C45.79,102.2 44.34,101.89 42.89,101.62 C41.44,101.34 39.97,101.1 38.49,100.89 C37.01,100.68 35.51,100.52 33.99,100.41 C32.47,100.3 30.93,100.23 29.37,100.23 C27.81,100.23 26.23,100.29 24.62,100.43 C23.01,100.57 21.38,100.79 19.73,101.11 C18.07,101.43 16.39,101.84 14.67,102.37 C12.95,102.9 11.21,103.55 9.43,104.35 C7.65,105.15 5.84,106.09 4,107.2 L4,102.19 C4,102.19 4,99.31 4,97.82 L4,92.81 C5.85,91.69 7.66,90.75 9.43,89.96 C11.2,89.17 12.95,88.51 14.67,87.98 C16.39,87.45 18.07,87.03 19.73,86.72 C21.39,86.41 23.02,86.18 24.62,86.04 C26.23,85.9 27.81,85.84 29.37,85.84 C30.93,85.84 32.47,85.9 33.99,86.02 C35.51,86.13 37.01,86.3 38.49,86.5 C39.97,86.7 41.44,86.95 42.89,87.23 C44.34,87.51 45.78,87.81 47.21,88.14 C48.64,88.47 50.06,88.82 51.46,89.19 C52.87,89.56 54.27,89.95 55.67,90.34 C57.07,90.74 58.46,91.15 59.84,91.56 C61.23,91.97 62.61,92.39 64,92.81 C65.38,93.23 66.77,93.65 68.16,94.06 C69.55,94.47 70.94,94.88 72.33,95.28 C73.73,95.68 75.13,96.06 76.54,96.43 C77.95,96.8 79.37,97.15 80.79,97.48 C82.22,97.81 83.66,98.12 85.11,98.39 C86.56,98.67 88.03,98.91 89.51,99.12 C90.99,99.33 92.49,99.49 94.01,99.6 C95.53,99.71 97.07,99.78 98.63,99.78 C100.19,99.78 101.77,99.72 103.38,99.58 C104.99,99.44 106.62,99.22 108.27,98.9 C109.92,98.58 111.61,98.17 113.33,97.64 C115.05,97.11 116.79,96.46 118.57,95.66 C120.35,94.86 122.16,93.92 124,92.81 L124,97.82 L124,102.19 C124,102.19 124,105.28 124,107.2 Z" fill="#7A1FA6"/>
  <path d="M120,26.98 L120,32.42 L120,37.14 L120,41.62 C120,41.62 120,44.68 120,46.34 L120,51.78 L120,57.11 C120,57.11 120,60.31 120,61.8 L120,66.17 L120,70.54 L120,75.23 C120,75.23 120,78.64 120,80.56 L120,86 C120,86 120,89.21 120,90.72 L120,95.2 L120,99.92 C120,99.92 120,103.37 120,105.36 C118.13,106.27 116.31,107.02 114.51,107.63 C112.72,108.24 110.96,108.72 109.24,109.08 C107.52,109.44 105.82,109.71 104.16,109.88 C102.5,110.05 100.86,110.14 99.26,110.16 C97.66,110.18 96.07,110.13 94.51,110.02 C92.95,109.91 91.42,109.75 89.9,109.55 C88.38,109.35 86.89,109.1 85.41,108.83 C83.93,108.56 82.46,108.24 81.01,107.91 C79.56,107.58 78.12,107.22 76.69,106.85 C75.26,106.48 73.84,106.08 72.43,105.68 C71.02,105.28 69.61,104.87 68.21,104.45 L64.01,103.19 C62.61,102.77 61.21,102.34 59.81,101.93 C58.41,101.52 57,101.1 55.59,100.7 C54.18,100.3 52.76,99.91 51.33,99.53 C49.9,99.16 48.46,98.8 47.01,98.47 C45.56,98.14 44.09,97.83 42.61,97.55 C41.13,97.27 39.63,97.03 38.12,96.83 C36.6,96.63 35.07,96.47 33.51,96.36 C31.95,96.25 30.37,96.2 28.76,96.22 C27.15,96.24 25.52,96.32 23.86,96.5 C22.2,96.67 20.51,96.93 18.78,97.3 C17.06,97.67 15.3,98.14 13.51,98.75 C11.72,99.36 9.89,100.11 8.02,101.02 L8.02,95.58 L8.02,90.86 L8.02,86.38 L8.02,81.66 L8.02,76.22 L8.02,70.89 C8.02,70.89 8.02,67.69 8.02,66.2 C8.02,64.71 8.02,63.27 8.02,61.83 L8.02,57.46 C8.02,57.46 8.02,54.42 8.02,52.77 C8.02,51.12 8.02,49.36 8.02,47.44 L8.02,42.01 L8.02,37.29 C8.02,37.29 8.02,34.32 8.02,32.81 L8.02,28.09 L8.02,22.66 C9.89,21.75 11.71,21 13.51,20.39 C15.31,19.78 17.06,19.3 18.78,18.94 C20.5,18.57 22.2,18.31 23.86,18.14 C25.52,17.97 27.16,17.88 28.76,17.86 C30.37,17.84 31.95,17.89 33.51,18 C35.07,18.11 36.6,18.27 38.12,18.47 C39.64,18.67 41.13,18.92 42.61,19.19 C44.09,19.47 45.56,19.78 47.01,20.11 C48.46,20.44 49.9,20.8 51.33,21.17 C52.76,21.54 54.18,21.94 55.59,22.34 C57,22.74 58.41,23.15 59.81,23.57 C61.21,23.99 62.61,24.41 64.01,24.83 C65.41,25.25 66.81,25.68 68.21,26.09 C69.61,26.51 71.02,26.92 72.43,27.32 C73.84,27.72 75.26,28.11 76.69,28.49 C78.12,28.86 79.56,29.22 81.01,29.55 C82.46,29.88 83.93,30.19 85.41,30.47 C86.89,30.75 88.39,30.99 89.9,31.19 C91.42,31.39 92.95,31.55 94.51,31.66 C96.07,31.77 97.65,31.82 99.26,31.8 C100.87,31.78 102.5,31.7 104.16,31.52 C105.82,31.35 107.51,31.09 109.24,30.72 C110.96,30.35 112.72,29.88 114.51,29.27 C116.3,28.66 118.13,27.89 120,26.98 M124,20.8 C122.15,21.92 120.34,22.86 118.57,23.65 C116.79,24.45 115.05,25.1 113.33,25.63 C111.61,26.16 109.93,26.58 108.27,26.89 C106.61,27.21 104.98,27.43 103.38,27.57 C101.78,27.71 100.19,27.77 98.63,27.77 C97.07,27.77 95.53,27.71 94.01,27.59 C92.49,27.48 90.99,27.31 89.51,27.11 C88.03,26.9 86.56,26.66 85.11,26.38 C83.66,26.1 82.22,25.8 80.79,25.47 C79.36,25.14 77.94,24.79 76.54,24.42 C75.13,24.05 73.73,23.66 72.33,23.27 C70.93,22.88 69.54,22.46 68.16,22.05 C66.77,21.64 65.39,21.22 64,20.8 C62.62,20.38 61.23,19.96 59.84,19.55 C58.45,19.14 57.06,18.73 55.67,18.33 C54.28,17.93 52.87,17.55 51.46,17.18 C50.05,16.81 48.63,16.46 47.21,16.13 C45.78,15.8 44.34,15.49 42.89,15.22 C41.44,14.94 39.97,14.7 38.49,14.49 C37.01,14.28 35.51,14.12 33.99,14.01 C32.47,13.9 30.93,13.83 29.37,13.83 C27.81,13.83 26.23,13.89 24.62,14.03 C23.01,14.17 21.38,14.39 19.73,14.71 C18.07,15.03 16.39,15.44 14.67,15.97 C12.95,16.5 11.21,17.15 9.43,17.95 C7.65,18.75 5.85,19.68 4,20.8 L4,26.13 C4,26.13 4,29.33 4,30.82 L4,35.19 L4,39.56 L4,44.25 C4,44.25 4,47.66 4,49.58 L4,49.6 L4,54.93 C4,54.93 4,58.13 4,59.62 L4,63.99 L4,68.36 L4,73.05 C4,73.05 4,76.46 4,78.38 L4,83.71 C4,83.71 4,86.91 4,88.4 C4,89.89 4,91.33 4,92.77 C4,94.21 4,95.65 4,97.14 C4,98.63 4,100.18 4,101.83 C4,103.48 4,105.24 4,107.16 C5.85,106.04 7.66,105.1 9.43,104.31 C11.21,103.51 12.95,102.86 14.67,102.33 C16.39,101.8 18.07,101.38 19.73,101.07 C21.39,100.75 23.02,100.53 24.62,100.39 C26.23,100.25 27.81,100.19 29.37,100.19 C30.93,100.19 32.47,100.25 33.99,100.37 C35.51,100.48 37.01,100.65 38.49,100.85 C39.97,101.06 41.44,101.3 42.89,101.58 C44.34,101.86 45.78,102.16 47.21,102.49 C48.64,102.82 50.06,103.17 51.46,103.54 C52.87,103.91 54.27,104.3 55.67,104.69 C57.07,105.09 58.46,105.5 59.84,105.91 C61.22,106.32 62.61,106.74 64,107.16 C65.38,107.58 66.77,108 68.16,108.41 C69.55,108.82 70.94,109.23 72.33,109.63 C73.73,110.03 75.13,110.41 76.54,110.78 C77.95,111.15 79.37,111.5 80.79,111.83 C82.22,112.16 83.66,112.47 85.11,112.74 C86.56,113.02 88.03,113.26 89.51,113.47 C90.99,113.68 92.49,113.84 94.01,113.95 C95.53,114.06 97.07,114.13 98.63,114.13 C100.19,114.13 101.77,114.07 103.38,113.93 C104.99,113.79 106.62,113.57 108.27,113.25 C109.93,112.93 111.61,112.52 113.33,111.99 C115.05,111.46 116.79,110.81 118.57,110.01 C120.35,109.21 122.16,108.27 124,107.16 L124,101.83 C124,101.83 124,98.63 124,97.14 C124,95.65 124,94.21 124,92.77 C124,91.33 124,89.89 124,88.4 C124,86.91 124,85.36 124,83.71 C124,82.06 124,80.3 124,78.38 L124,73.05 C124,73.05 124,69.85 124,68.36 L124,63.99 L124,59.62 L124,54.93 C124,54.93 124,51.52 124,49.6 L124,49.58 L124,44.25 C124,44.25 124,41.05 124,39.56 L124,35.19 L124,30.82 L124,26.13 C124,26.13 124,22.72 124,20.8 L124,20.8 Z" fill="#424242" opacity="0.2"/>
  <path d="M124,107.2 C122.15,108.32 120.34,109.26 118.57,110.05 C116.79,110.85 115.05,111.5 113.33,112.03 C111.61,112.56 109.93,112.98 108.27,113.29 C106.61,113.61 104.98,113.83 103.38,113.97 C101.77,114.11 100.19,114.17 98.63,114.17 C97.07,114.17 95.53,114.11 94.01,113.99 C92.49,113.88 90.99,113.71 89.51,113.51 C88.03,113.3 86.56,113.06 85.11,112.78 C83.66,112.5 82.22,112.2 80.79,111.87 C79.36,111.54 77.94,111.19 76.54,110.82 C75.14,110.45 73.73,110.06 72.33,109.67 C70.93,109.27 69.54,108.86 68.16,108.45 C66.77,108.04 65.39,107.62 64,107.2 C62.62,106.78 61.23,106.36 59.84,105.95 C58.45,105.54 57.06,105.13 55.67,104.73 C54.27,104.33 52.87,103.95 51.46,103.58 C50.05,103.21 48.63,102.86 47.21,102.53 C45.79,102.2 44.34,101.89 42.89,101.62 C41.44,101.34 39.97,101.1 38.49,100.89 C37.01,100.68 35.51,100.52 33.99,100.41 C32.47,100.3 30.93,100.23 29.37,100.23 C27.81,100.23 26.23,100.29 24.62,100.43 C23.01,100.57 21.38,100.79 19.73,101.11 C18.07,101.43 16.39,101.84 14.67,102.37 C12.95,102.9 11.21,103.55 9.43,104.35 C7.65,105.15 5.84,106.09 4,107.2 L4,101.59 L4,96.27 L4,91.2 L4,86.34 L4,81.66 C4,81.66 4,78.61 4,77.12 L4,72.69 C4,72.69 4,69.77 4,68.33 C4,66.89 4,65.44 4,64 L4,59.67 L4,55.31 L4,50.88 C4,50.88 4,47.88 4,46.34 C4,44.8 4,43.25 4,41.66 L4,36.8 C4,36.8 4,33.46 4,31.73 L4,26.41 L4,20.8 C5.85,19.68 7.66,18.74 9.43,17.95 C11.2,17.16 12.95,16.5 14.67,15.97 C16.39,15.44 18.07,15.02 19.73,14.71 C21.39,14.39 23.02,14.17 24.62,14.03 C26.23,13.89 27.81,13.83 29.37,13.83 C30.93,13.83 32.47,13.89 33.99,14.01 C35.51,14.12 37.01,14.29 38.49,14.49 C39.97,14.69 41.44,14.94 42.89,15.22 C44.34,15.5 45.78,15.8 47.21,16.13 C48.64,16.46 50.06,16.81 51.46,17.18 C52.87,17.55 54.27,17.94 55.67,18.33 C57.07,18.72 58.46,19.14 59.84,19.55 C61.22,19.96 62.61,20.38 64,20.8 C65.38,21.22 66.77,21.64 68.16,22.05 C69.55,22.46 70.94,22.87 72.33,23.27 C73.72,23.67 75.13,24.05 76.54,24.42 C77.95,24.79 79.37,25.14 80.79,25.47 C82.22,25.8 83.66,26.11 85.11,26.38 C86.56,26.66 88.03,26.9 89.51,27.11 C90.99,27.32 92.49,27.48 94.01,27.59 C95.53,27.7 97.07,27.77 98.63,27.77 C100.19,27.77 101.77,27.71 103.38,27.57 C104.99,27.43 106.62,27.21 108.27,26.89 C109.93,26.57 111.61,26.16 113.33,25.63 C115.05,25.1 116.79,24.45 118.57,23.65 C120.35,22.85 122.16,21.91 124,20.8 L124,26.41 L124,31.73 L124,36.8 C124,36.8 124,40.07 124,41.66 L124,46.34 C124,46.34 124,49.39 124,50.88 C124,52.37 124,53.85 124,55.31 L124,59.67 L124,64 L124,68.33 C124,68.33 124,71.23 124,72.69 C124,74.15 124,75.63 124,77.12 L124,81.66 C124,81.66 124,84.75 124,86.34 L124,91.2 L124,96.27 L124,101.59 L124,107.2 L124,107.2 Z" fill="url(#SVGID_1_)" opacity="0.3"/>
</svg>