<svg viewBox="0 0 128 128" xmlns="http://www.w3.org/2000/svg">
  <defs/>
  <path d="M78.87,72.26 L21.68,122.77 C21.68,122.77 38.86,128.41 66.73,118.44 C95.32,108.21 119.62,81.34 122.43,47.5 C124.87,18.11 119.49,14.72 117.82,12.55 C116.19,10.43 113.44,10.16 113.44,10.16 L78.87,72.26 Z" fill="#6D2A19"/>
  <path d="M27.83,32.7 C3.85,58.95 4.82,90.06 5.35,101.75 C5.7,109.55 7.05,113.51 10.84,117.68 C14.38,121.57 21.77,125.05 36.82,121.86 C52.49,118.54 76.34,107.58 97.94,82.98 C120.85,56.88 122.73,15.71 116.53,11.28 C110.33,6.85 97.76,3.49 85.55,4.2 C73.34,4.91 50.32,8.09 27.83,32.7 Z" fill="#9C3C25"/>
  <path d="M10.67,117.53 C10.38,117.72 8.05,116.21 7.95,113.45 C7.77,108.79 10.92,95.4 15.38,85.17 C19.57,75.54 22.57,71.23 22.57,71.23 C22.57,71.23 19.74,68.47 19.84,63.33 C19.94,58.19 21.72,48.37 41.29,29.46 C62.01,9.41 69,11.5 72.32,11.58 C75.05,11.65 79.32,13.27 79.64,13.36 C79.64,13.36 86.21,9.07 92.97,7.65 C99.73,6.23 106.53,7.02 107.64,7.13 C108.76,7.24 110.68,7.87 112.21,8.6 C113.67,9.29 115.4,10.51 115.4,10.51 C115.4,10.51 103.4,9.02 95.59,11.02 C87.78,13.02 82.88,15.94 82.88,15.94 C82.88,15.94 85.08,19.82 84.88,22.51 C84.59,26.32 82.12,29.46 75.07,36.7 C68.92,43.02 46.85,67.9 44.12,70.69 C40.6,74.31 36.22,76.02 32.31,75.64 C28.41,75.26 26.03,73.74 26.03,73.74 C26.03,73.74 21.74,81.07 18.6,88.79 C15.46,96.51 13.36,104.41 11.55,113.36 C11.1,115.62 11.21,117.17 10.67,117.53 Z" fill="#6D291A"/>
  <path d="M26.63,70.14 C29.18,71.65 36.01,72.44 39.89,69.31 C43.77,66.19 48.89,58.92 60.5,46.05 C69.3,36.31 79.41,28.04 79.89,23.31 C80.52,17.05 74.88,14.8 68.82,15.27 C62.77,15.74 51.32,24.07 41.86,33.91 C32.4,43.75 25.02,53.11 23.51,59.73 C22.58,63.8 23.54,68.3 26.63,70.14 Z" fill="#9C3C25"/>
  <path d="M67.99,6.99 C67.99,6.99 75.64,8.37 83.49,13.57 C91.34,18.77 99.9,25.55 105.14,31.3 C108.11,34.56 116.39,45.17 116.87,45.17 C117.35,45.17 118.3,38.83 118.59,36.47 C118.87,34.11 119.35,31.83 119.06,30.98 C118.78,30.13 113.25,22.74 104.3,14.8 C94.13,5.78 84.69,4.18 84.69,4.18 C84.69,4.18 82.24,4.09 76.07,4.89 C71.6,5.48 67.99,6.99 67.99,6.99 Z" fill="#F2F0EE"/>
  <path d="M8.23,69.01 C8.23,69.01 13.3,70.23 22,76.28 C31.8,83.1 37.89,88.48 45.27,96.05 C52.28,103.24 59.81,112.8 59.81,113.37 C59.81,113.94 56.83,115.13 52.46,117.05 C50.32,117.99 46.25,119.75 45.58,119.46 C44.92,119.18 39.55,111.03 31.17,102.95 C25.87,97.84 20.1,92.36 12.72,87.81 C8,84.91 5.6,84.35 5.6,84.35 C5.6,84.35 5.58,80.91 6.57,75.7 C7.46,71.09 8.23,69.01 8.23,69.01 Z" fill="#F2F0EE"/>
  <path d="M53.14,33.36 C40.56,45.28 26.29,64.16 25.5,65.31 C24.13,67.29 24.1,68.86 25.87,69.96 C27.64,71.06 28.92,69.3 30.04,67.86 C31.28,66.27 42.54,49.98 54.3,38.66 C67.9,25.59 77.24,19.43 78.38,18.3 C79.22,17.46 81.41,16.5 79.61,14.8 C78.24,13.5 75.54,15.18 74.41,16.03 C73.27,16.88 66.45,20.75 53.14,33.36 Z" fill="#FDFFFF"/>
  <path d="M66.18,13.61 C64.39,15 64.56,17.54 66.7,19.22 C68.33,20.5 71.81,23.25 73.47,24.77 C75.49,26.62 77.42,26.97 78.91,25.81 C80.47,24.6 81.28,21.59 78.51,18.81 C75.76,16.06 74.17,14.41 71.28,13.26 C69.4,12.51 67.46,12.63 66.18,13.61 Z" fill="#FDFFFF"/>
  <path d="M63.88,20.46 C62.23,19.82 59.45,18.57 57.27,20.55 C55.09,22.53 56.24,25.08 58.2,26.5 C60.16,27.92 62.98,30.72 65.78,32.71 C67.38,33.84 70.14,34.77 72.1,32.61 C73.72,30.82 72.34,27.86 71.12,26.37 C69.7,24.62 66.78,21.58 63.88,20.46 Z" fill="#FDFFFF"/>
  <path d="M56.23,28.65 C54.09,27.44 50.5,26.28 48.07,28.77 C45.41,31.5 46.91,33.51 49.52,35.13 C51.71,36.49 56.17,40.33 57.62,41.32 C59.99,42.94 63.01,42.23 64.16,40.45 C66.07,37.5 63.46,34.07 61.5,32.47 C59.59,30.91 57.1,29.15 56.23,28.65 Z" fill="#FDFFFF"/>
  <path d="M39.69,36.98 C38.08,38.85 37.84,40.86 40.33,43.58 C42.82,46.3 47.18,49.49 49.7,50.35 C52.59,51.33 53.98,50.23 55.02,48.61 C56.06,46.99 55.24,43.34 52.58,40.97 C50.9,39.47 47.9,36.81 44.2,36 C42.19,35.56 40.73,35.77 39.69,36.98 Z" fill="#FDFFFF"/>
  <path d="M35.7,45.03 C34.31,44.64 32.52,45.2 31.48,46.48 C30.44,47.75 29.94,50.27 31.19,51.69 C32.46,53.14 33.23,53.67 35.36,55.51 C37.5,57.36 39.64,59.62 42.19,59.91 C43.98,60.11 45.6,59.22 46.36,58.06 C47.11,56.9 47.03,54.32 44.97,52.1 C43.51,50.52 39.8,46.18 35.7,45.03 Z" fill="#FDFFFF"/>
  <path d="M24.09,55.9 C21.98,58.65 23.14,62.38 28.35,65.67 C32.62,68.38 36.38,70.28 38.94,67.17 C41.34,64.25 39,61.27 33.62,57.57 C28.58,54.11 26,53.42 24.09,55.9 Z" fill="#FDFFFF"/>
</svg>