<svg viewBox="0 0 128 128" xmlns="http://www.w3.org/2000/svg">
  <defs/>
  <path d="M34.8,39.43 L24.66,45.2 L20.44,55.9 C20.44,55.9 21.65,71.85 25.28,76.47 C30.45,83.06 36.37,89.73 56.48,94.19 C62.28,95.48 61.83,98.47 56.96,100.07 C53.83,101.1 46.14,101.16 46.14,101.16 C37.97,104.12 36.77,107.27 36.77,109.81 C36.77,112.35 37.63,118.97 51.84,122.76 C62.92,125.72 78,124.28 84.56,120.19 C91.16,116.07 91.61,111.44 91.55,109.55 C91.49,107.79 90.31,104.43 86.93,102.74 C85.39,101.97 81.16,103.73 77.75,102.81 C73.67,101.7 70.57,97.85 70.57,97.85 C70.57,97.85 70.57,94.88 71.11,94.48 C71.65,94.08 84.18,93.26 93.45,85.98 C102.72,78.7 107.82,68.02 107.82,59.03 C107.82,50.04 105.17,47.86 105.17,47.86 L94.77,40.96 L34.8,39.43 Z" fill="#6FA3B0"/>
  <path d="M65.34,94.85 C65.34,94.85 65.1,99.2 65.46,100.78 C65.82,102.35 67.63,105.08 67.09,106.38 C66.49,107.82 63.84,108.26 59.97,107.67 C53.78,106.73 56.25,103.32 55.43,104.3 C53.67,106.41 57.74,110.21 63.89,110.1 C69.52,110 72.43,107.82 72.46,106.29 C72.5,104.69 71.32,103.84 70.9,102.09 C70.48,100.33 70.55,97.85 70.55,97.85 C70.55,97.85 90.53,99.57 90.65,108.11 C90.77,116.65 80.9,121.9 63.34,121.61 C51.71,121.42 37,117.73 37.12,109.08 C37.24,100.43 56.68,97.94 56.68,97.94 L57.47,97.88 C57.47,97.88 57.47,96.43 57.47,95.94 C57.47,95.45 57.41,94.43 57.41,94.43 C57.41,94.43 59.23,94.8 61.29,94.85 C63.4,94.91 65.34,94.85 65.34,94.85 Z" fill="#B9CED3"/>
  <path d="M48.59,73.34 L29.29,66.57 L21.24,53.03 L19.85,49.09 C19.85,49.09 16.58,57.51 20.05,67.75 C23.52,77.99 37.47,91.8 62.62,91.8 C86.96,91.8 97.88,79.88 101.05,74.71 C107.34,64.45 107.14,54.45 107.14,54.45 L103.19,60.06 L95.42,67.47 L84.35,72.5 L66.06,75.43 L48.59,73.34 Z" fill="#BBCED3"/>
  <path d="M23.32,67.36 C22.11,67.89 24.36,74.23 30.94,79.72 C37.52,85.21 44.78,88.02 45.6,87.02 C46.42,86.01 37.45,81.11 34.11,78.15 C28.53,73.21 24.78,66.72 23.32,67.36 Z" fill="#FFFFFD"/>
  <path d="M55.37,104.54 C55.71,106.93 58.29,107.08 58.94,106.74 C59.53,106.43 60.3,102.79 60.3,100.5 C60.3,98.21 59.57,95.74 58.56,95.56 C57.55,95.38 58.11,99.6 57.56,101.07 C57.02,102.53 55.23,103.6 55.37,104.54 Z" fill="#FFFFFD"/>
  <path d="M64.22,77.11 C63.75,77.11 63.28,77.11 62.81,77.1 C39.81,76.76 29.55,69.85 24.55,64.56 C21,60.8 19.1,56.6 19.29,52.04 C19.77,40.48 36.85,36.71 37.56,36.53 L38.37,39.64 C38.22,39.68 24.11,44.21 23.75,52.78 C23.61,56.23 24.78,58.75 27.57,61.7 C33.89,68.39 46.93,72.61 63.79,72.85 C90.72,73.27 102.54,60.98 102.99,54.05 C103.38,47.98 95.38,41.8 87.69,39.71 L88.11,36.42 C97.31,38.92 107.28,45.25 107.21,53.66 C107.14,64.25 93.27,77.11 64.22,77.11 Z" fill="#DFEEF5"/>
  <path d="M42.25,36.17 L37.56,36.52 C37.56,36.52 36.24,33.12 37.98,31.11 C39.72,29.1 42.42,29.37 42.42,29.37 C42.42,29.37 41.56,20.98 46.52,13.66 C51.48,6.34 58.9,1.69 70.73,4.38 C83.36,7.25 87.11,19.62 87.11,19.62 L84.76,31.73 L62.37,41.49 L42.25,36.17 Z" fill="#FEA9A6"/>
  <path d="M54.79,37.39 C54.79,37.39 58.54,38.5 62.11,36.17 C64.42,34.66 64.87,32.94 64.87,32.94 C64.87,32.94 72.39,33.99 77.62,30.16 C82.85,26.33 86.3,17.6 86.3,17.6 C86.3,17.6 88.04,21.08 88.57,25.87 C88.97,29.42 88.42,31.56 88.42,31.56 C88.42,31.56 91.38,30.78 93.04,34.52 C94.63,38.12 92.69,40.79 92.69,40.79 L56.98,44.45 L54.79,37.39 Z" fill="#FE7C84"/>
  <path d="M74.46,19.58 C73.65,19.35 72.97,20.16 72.87,20.91 C72.76,21.65 72.92,22.56 73.93,22.77 C74.94,22.98 75.36,21.97 75.47,21.18 C75.58,20.38 75.21,19.79 74.46,19.58 Z" fill="#FE7C84"/>
  <path d="M57.68,19.13 C56.82,18.89 56.1,19.75 55.99,20.54 C55.88,21.33 56.03,22.37 57.12,22.51 C58.27,22.66 58.78,21.62 58.78,20.81 C58.78,19.96 58.47,19.36 57.68,19.13 Z" fill="#FE7C84"/>
  <path d="M81.16,13.84 C80.39,13.39 79.73,13.95 79.35,14.37 C78.98,14.79 78.75,15.95 79.47,16.38 C80.25,16.84 81.06,16.35 81.42,15.75 C81.84,15.04 81.75,14.19 81.16,13.84 Z" fill="#FE7C84"/>
  <path d="M61.95,11.85 C61.37,11.27 60.51,11.42 59.93,12.17 C59.4,12.86 59.48,13.81 59.96,14.23 C60.69,14.86 61.71,14.23 62.06,13.65 C62.46,13 62.38,12.28 61.95,11.85 Z" fill="#FE7C84"/>
  <path d="M51.8,23.81 C51.08,23.35 50.22,23.68 49.77,24.54 C49.35,25.34 49.62,26.27 50.21,26.59 C51.09,27.07 52.09,26.25 52.27,25.59 C52.45,24.95 52.33,24.15 51.8,23.81 Z" fill="#FE7C84"/>
  <path d="M68.14,42.38 C68.14,42.08 74.42,35.93 83.83,36.65 C95.3,37.52 99.42,45.73 99.42,45.73 L98.77,55.26 L90.77,65.49 C90.77,65.49 80.6,68.5 80.24,68.5 C79.88,68.5 66.1,69.7 66.1,69.7 L63.27,46.53 L68.14,42.38 Z" fill="#FFEBCA"/>
  <path d="M67.66,67.65 C67.78,67.83 83.98,67.73 91.94,58.98 C100.08,50.05 98.11,43.69 98.17,43.87 C98.23,44.05 100.42,46.4 101.6,51.34 C102.34,54.42 102.06,57.4 102.06,57.4 C102.06,57.4 98.68,64.92 87.92,69.08 C75.16,74.01 63.13,72.76 63.13,72.76 L67.66,67.65 Z" fill="#EAC183"/>
  <path d="M86.64,50.95 C85.88,50.46 84.99,50.95 84.44,51.78 C83.89,52.61 84.02,53.62 84.84,54.07 C85.62,54.49 86.58,54.01 87.02,53.12 C87.34,52.49 87.45,51.47 86.64,50.95 Z" fill="#EAC183"/>
  <path d="M62.33,68.15 L70.3,61.83 L70.15,49.72 L73.91,43.93 C73.91,43.93 73.53,40.47 70.68,39.19 C67.82,37.91 64.66,40.17 64.66,40.17 C64.66,40.17 57.05,31.61 45.1,33.37 C33.97,35.01 28.93,41.81 26.82,46.73 C25.13,50.67 25.84,57.59 25.84,57.59 L32.01,63.72 C32.01,63.72 48.25,68.38 50.51,68.83 C52.77,69.28 62.33,68.15 62.33,68.15 Z" fill="#865C50"/>
  <path d="M48.31,62.55 C48.31,62.55 56.27,66.85 61.96,64.32 C67.65,61.79 69.04,56.75 68.7,54.38 C68.36,52.01 67.8,49.93 67.8,49.93 C67.8,49.93 70.22,48.18 71.52,46.27 C72.82,44.36 72.89,41.17 72.89,41.17 C72.89,41.17 75.11,44.09 74.46,48.68 C73.95,52.28 71.74,54.1 71.74,54.1 C71.74,54.1 74.83,57.01 73.37,62.49 C72.02,67.56 67.29,68.97 67.29,68.97 C67.29,68.97 67.79,70.04 67.66,71.07 C67.53,72.1 67.17,72.89 67.17,72.89 C67.17,72.89 51.55,73.71 40.29,69.38 C28.48,64.82 26,59.74 26,59.74 C26,59.74 25.71,56.68 25.82,56.91 C25.93,57.14 31.36,62.83 38.18,63.79 C45,64.75 48.31,62.55 48.31,62.55 Z" fill="#6C4D42"/>
  <path d="M40.37,51.45 C39.51,50.7 38.27,51.22 37.73,51.95 C37.27,52.58 36.93,53.83 37.76,54.52 C38.76,55.35 39.83,54.62 40.3,54.02 C40.79,53.39 41.13,52.12 40.37,51.45 Z" fill="#6C4D42"/>
  <path d="M41.94,41.73 C41.15,42.91 41.94,44.03 42.51,44.3 C43.28,44.67 44.35,44.23 44.78,43.33 C45.21,42.43 45.3,41.48 44.31,40.89 C43.4,40.37 42.4,41.03 41.94,41.73 Z" fill="#6C4D42"/>
  <path d="M54.39,52.02 C53.27,51.42 52.49,52.32 52.12,52.99 C51.75,53.66 51.55,54.93 52.72,55.53 C53.89,56.13 54.82,55.01 55.02,54.53 C55.39,53.66 55.39,52.55 54.39,52.02 Z" fill="#6C4D42"/>
</svg>