<svg viewBox="0 0 128 128" xmlns="http://www.w3.org/2000/svg">
  <defs>
    <radialGradient id="SVGID_1_" cx="-51.5014" cy="48.303361" gradientTransform="matrix(0 -1 1.8259 0 0 0)" gradientUnits="userSpaceOnUse" r="56.3819">
      <stop offset="0.1579" stop-color="#FEBC45"/>
      <stop offset="0.2011" stop-color="#F8AE44"/>
      <stop offset="0.328" stop-color="#E98B40"/>
      <stop offset="0.4321" stop-color="#E0763E"/>
      <stop offset="0.4996" stop-color="#DD6E3D"/>
      <stop offset="0.76" stop-color="#C05E5D"/>
      <stop offset="0.9897" stop-color="#A95E75"/>
    </radialGradient>
    <radialGradient id="SVGID_2_" cx="25.5287" cy="113.0933" gradientUnits="userSpaceOnUse" r="140.5797">
      <stop offset="0.8171" stop-color="#DD6E3D" stop-opacity="0"/>
      <stop offset="0.9361" stop-color="#B86365" stop-opacity="0.6509"/>
      <stop offset="1" stop-color="#A95E75"/>
    </radialGradient>
    <radialGradient id="SVGID_3_" cx="87.8704" cy="113.7097" gradientUnits="userSpaceOnUse" r="112.1932">
      <stop offset="0.4108" stop-color="#FD960C"/>
      <stop offset="0.6099" stop-color="#F2811B" stop-opacity="0.662"/>
      <stop offset="0.8331" stop-color="#EA7028" stop-opacity="0.2833"/>
      <stop offset="1" stop-color="#E76A2C" stop-opacity="0"/>
    </radialGradient>
    <radialGradient id="SVGID_4_" cx="56.9885" cy="23.2792" gradientUnits="userSpaceOnUse" r="100.3943">
      <stop offset="0.5105" stop-color="#911F4E"/>
      <stop offset="0.9338" stop-color="#6D0C36"/>
    </radialGradient>
    <radialGradient id="SVGID_5_" cx="-35.47567" cy="81.145521" gradientTransform="matrix(0.0364 -1.3108 1.1462 0.0376 0 0)" gradientUnits="userSpaceOnUse" r="22.8543">
      <stop offset="0.1983" stop-color="#FFF6B2"/>
      <stop offset="0.7669" stop-color="#FFF6B2" stop-opacity="0"/>
    </radialGradient>
  </defs>
  <path d="M116.62,124.26 L11.32,124.26 C7.17,124.26 3.8,120.89 3.8,116.74 L3.8,11.44 C3.8,7.29 7.17,3.92 11.32,3.92 L116.62,3.92 C120.77,3.92 124.14,7.29 124.14,11.44 L124.14,116.74 C124.15,120.89 120.78,124.26 116.62,124.26 Z" fill="url(#SVGID_1_)"/>
  <path d="M116.62,124.26 L11.32,124.26 C7.17,124.26 3.8,120.89 3.8,116.74 L3.8,11.44 C3.8,7.29 7.17,3.92 11.32,3.92 L116.62,3.92 C120.77,3.92 124.14,7.29 124.14,11.44 L124.14,116.74 C124.15,120.89 120.78,124.26 116.62,124.26 Z" fill="url(#SVGID_2_)"/>
  <path d="M116.62,124.26 L11.32,124.26 C7.17,124.26 3.8,120.89 3.8,116.74 L3.8,11.44 C3.8,7.29 7.17,3.92 11.32,3.92 L116.62,3.92 C120.77,3.92 124.14,7.29 124.14,11.44 L124.14,116.74 C124.15,120.89 120.78,124.26 116.62,124.26 Z" fill="url(#SVGID_3_)"/>
  <path d="M105.13,49.17 A13.26 13.26 0 1 1 78.61,49.17 A13.26 13.26 0 1 1 105.13,49.17 Z" fill="#FEF7B2"/>
  <path d="M121.3,62.39 L102.3,62.39 L102.3,84.25 L60.19,84.25 L60.19,18.84 L28.65,18.84 L28.65,84.25 L24.17,84.25 L24.17,49.13 L12.34,49.13 L12.34,91.78 L21.84,91.78 L21.84,117.22 L118.97,117.22 L118.97,106.11 L121.3,106.11 Z" fill="#D17757"/>
  <path d="M32.41,25.13 L34.78,25.13 L34.78,32.72 L32.41,32.72 L32.41,25.13 Z" fill="#3F737B"/>
  <path d="M37.46,25.13 L39.93,25.13 L39.93,32.72 L37.46,32.72 L37.46,25.13 Z" fill="#3F737B"/>
  <path d="M45.27,25.13 L42.85,25.13 L42.85,32.72 L45.21,32.7 Z" fill="#3F737B"/>
  <path d="M50.44,25.13 L47.84,25.14 L47.91,32.72 L50.42,32.72 Z" fill="#FFE066"/>
  <path d="M32.41,25.13 L34.78,25.13 L34.78,32.72 L32.41,32.72 L32.41,25.13 Z" fill="#FFE066"/>
  <path d="M37.46,25.13 L39.93,25.13 L39.93,32.72 L37.46,32.72 L37.46,25.13 Z" fill="#FFE066"/>
  <path d="M45.31,25.13 L42.85,25.13 L42.85,32.72 L45.28,32.7 Z" fill="#FFE066"/>
  <path d="M50.44,37.13 L47.84,37.14 L47.91,44.72 L50.42,44.72 Z" fill="#FFE066"/>
  <path d="M32.41,37.13 L34.78,37.13 L34.78,44.72 L32.41,44.72 L32.41,37.13 Z" fill="#FFE066"/>
  <path d="M37.46,37.13 L39.93,37.13 L39.93,44.72 L37.46,44.72 L37.46,37.13 Z" fill="#FFE066"/>
  <path d="M45.31,37.13 L42.85,37.13 L42.85,44.72 L45.28,44.7 Z" fill="#FFE066"/>
  <path d="M32.41,49.13 L34.78,49.13 L34.78,56.72 L32.41,56.72 L32.41,49.13 Z" fill="#FFE066"/>
  <path d="M37.46,49.13 L39.93,49.13 L39.93,56.72 L37.46,56.72 L37.46,49.13 Z" fill="#FFE066"/>
  <path d="M45.31,49.13 L42.85,49.13 L42.85,56.72 L45.28,56.7 Z" fill="#FFE066"/>
  <path d="M53.36,25.13 L53.35,32.72 L55.91,32.72 L55.91,25.13 Z" fill="#FFE066"/>
  <path d="M105.55,81.2 L108.43,81.2 L108.43,85.14 L105.55,85.14 L105.55,81.2 Z" fill="#FFB65A"/>
  <path d="M111.3,81.2 L114.18,81.2 L114.18,85.14 L111.3,85.14 L111.3,81.2 Z" fill="#FFB65A"/>
  <path d="M105.55,73.83 L108.43,73.83 L108.43,77.77 L105.55,77.77 L105.55,73.83 Z" fill="#FFC55C"/>
  <path d="M111.3,73.83 L114.18,73.83 L114.18,77.77 L111.3,77.77 L111.3,73.83 Z" fill="#FFC55C"/>
  <path d="M105.55,66.83 L108.43,66.83 L108.43,70.77 L105.55,70.77 L105.55,66.83 Z" fill="#FFD360"/>
  <path d="M111.3,66.83 L114.18,66.83 L114.18,70.77 L111.3,70.77 L111.3,66.83 Z" fill="#FFD360"/>
  <path d="M115,49.4 C114.64,50.13 115,92.1 115,92.1 L99.13,92.1 L99.13,68.1 L94.02,68.1 L94.02,60.43 L89.49,60.43 L89.49,53.92 L81.33,53.92 L81.33,60.76 L76.14,60.76 L76.14,67.93 L70.78,67.93 L70.78,102.88 L65.74,102.88 L65.74,63.88 L68.09,63.88 L68.09,56.44 L65.74,56.44 L65.74,41.03 L63.09,41.03 L59.48,29.87 L52.37,29.87 L48.8,41.03 L46.01,41.03 L46.01,56.44 L43.53,56.44 L43.53,63.88 L46.01,63.88 L46.01,102.88 L38.83,102.88 L38.83,67.83 L17.19,67.83 L17.19,28.47 C17.19,28.47 3.84,28.38 3.8,28.42 L3.8,116.74 C3.8,120.89 7.17,124.26 11.32,124.26 L116.62,124.26 C120.77,124.26 124.14,120.89 124.14,116.74 L124.14,49.4 L115,49.4 Z" fill="url(#SVGID_4_)"/>
  <path d="M5.71,116.21 L35.68,116.21 L35.68,118.56 L5.71,118.56 L5.71,116.21 Z" fill="#FC7143"/>
  <path d="M5.71,107.86 L35.68,107.86 L35.68,110.21 L5.71,110.21 L5.71,107.86 Z" fill="#FC7444"/>
  <path d="M5.71,99.21 L35.68,99.21 L35.68,101.56 L5.71,101.56 L5.71,99.21 Z" fill="#FC7C47"/>
  <path d="M5.71,90.86 L35.68,90.86 L35.68,93.21 L5.71,93.21 L5.71,90.86 Z" fill="#FD894A"/>
  <path d="M5.71,81.21 L35.68,81.21 L35.68,83.56 L5.71,83.56 L5.71,81.21 Z" fill="#FDA152"/>
  <path d="M5.71,72.86 L35.68,72.86 L35.68,75.21 L5.71,75.21 L5.71,72.86 Z" fill="#FCB95A"/>
  <path d="M5.71,63.32 L7.47,63.32 L7.47,67.02 L5.71,67.02 L5.71,63.32 Z" fill="#FEDC61"/>
  <path d="M11.71,63.32 L13.47,63.32 L13.47,67.02 L11.71,67.02 L11.71,63.32 Z" fill="#FEDC61"/>
  <path d="M5.71,55.89 L7.47,55.89 L7.47,59.59 L5.71,59.59 L5.71,55.89 Z" fill="#FEDC61"/>
  <path d="M11.71,55.89 L13.47,55.89 L13.47,59.59 L11.71,59.59 L11.71,55.89 Z" fill="#FEDC61"/>
  <path d="M5.71,48.46 L7.47,48.46 L7.47,52.16 L5.71,52.16 L5.71,48.46 Z" fill="#FEDC61"/>
  <path d="M11.71,48.46 L13.47,48.46 L13.47,52.16 L11.71,52.16 L11.71,48.46 Z" fill="#FEDC61"/>
  <path d="M5.71,41.03 L7.47,41.03 L7.47,44.73 L5.71,44.73 L5.71,41.03 Z" fill="#FEDC61"/>
  <path d="M11.71,41.03 L13.47,41.03 L13.47,44.73 L11.71,44.73 L11.71,41.03 Z" fill="#FEDC61"/>
  <path d="M5.71,33.59 L7.47,33.59 L7.47,37.29 L5.71,37.29 L5.71,33.59 Z" fill="#FEDC61"/>
  <path d="M11.71,33.59 L13.47,33.59 L13.47,37.29 L11.71,37.29 L11.71,33.59 Z" fill="#FEDC61"/>
  <path d="M49.8,64.51 L52.07,64.51 L52.07,69.27 L49.8,69.27 L49.8,64.51 Z" fill="#FECE60"/>
  <path d="M55.18,64.51 L57.45,64.51 L57.45,69.27 L55.18,69.27 L55.18,64.51 Z" fill="#FECE60"/>
  <path d="M60.36,64.51 L62.63,64.51 L62.63,69.27 L60.36,69.27 L60.36,64.51 Z" fill="#FECE60"/>
  <path d="M49.8,97.7 L52.07,97.7 L52.07,102.46 L49.8,102.46 L49.8,97.7 Z" fill="#FE7A47"/>
  <path d="M55.18,97.7 L57.45,97.7 L57.45,102.46 L55.18,102.46 L55.18,97.7 Z" fill="#FE7A47"/>
  <path d="M60.36,97.7 L62.63,97.7 L62.63,102.46 L60.36,102.46 L60.36,97.7 Z" fill="#FE7A47"/>
  <path d="M49.8,73.51 L52.07,73.51 L52.07,78.27 L49.8,78.27 L49.8,73.51 Z" fill="#FCB757"/>
  <path d="M55.18,73.51 L57.45,73.51 L57.45,78.27 L55.18,78.27 L55.18,73.51 Z" fill="#FCB757"/>
  <path d="M60.36,73.51 L62.63,73.51 L62.63,78.27 L60.36,78.27 L60.36,73.51 Z" fill="#FCB757"/>
  <path d="M49.8,82.51 L52.07,82.51 L52.07,87.27 L49.8,87.27 L49.8,82.51 Z" fill="#FE9C51"/>
  <path d="M55.18,82.51 L57.45,82.51 L57.45,87.27 L55.18,87.27 L55.18,82.51 Z" fill="#FE9C51"/>
  <path d="M60.36,82.51 L62.63,82.51 L62.63,87.27 L60.36,87.27 L60.36,82.51 Z" fill="#FE9C51"/>
  <path d="M54.01,53.96 L58.67,53.96 L58.67,47.04 C58.67,47.04 58.84,44.44 56.32,44.38 C53.95,44.32 53.92,46.98 53.92,46.98 C53.92,46.98 54.07,53.96 54.01,53.96 Z" fill="#FDCB61"/>
  <path d="M79.85,64.16 L82.12,64.16 L82.12,73.85 L79.85,73.85 L79.85,64.16 Z" fill="#FFCF62"/>
  <path d="M88.36,64.16 L90.63,64.16 L90.63,73.85 L88.36,73.85 L88.36,64.16 Z" fill="#FFCF62"/>
  <path d="M84.15,64.16 L86.42,64.16 L86.42,73.85 L84.15,73.85 L84.15,64.16 Z" fill="#FFCF62"/>
  <path d="M76.37,77.58 L78.64,77.58 L78.64,80.67 L76.37,80.67 L76.37,77.58 Z" fill="#FEB359"/>
  <path d="M84.19,77.58 L86.46,77.58 L86.46,80.67 L84.19,80.67 L84.19,77.58 Z" fill="#FEB359"/>
  <path d="M92.01,77.58 L94.28,77.58 L94.28,80.67 L92.01,80.67 L92.01,77.58 Z" fill="#FEB359"/>
  <path d="M76.37,87.58 L78.64,87.58 L78.64,90.67 L76.37,90.67 L76.37,87.58 Z" fill="#FF9A4F"/>
  <path d="M84.19,87.58 L86.46,87.58 L86.46,90.67 L84.19,90.67 L84.19,87.58 Z" fill="#FF9A4F"/>
  <path d="M92.01,87.58 L94.28,87.58 L94.28,90.67 L92.01,90.67 L92.01,87.58 Z" fill="#FF9A4F"/>
  <path d="M76.37,97.03 L78.64,97.03 L78.64,100.12 L76.37,100.12 L76.37,97.03 Z" fill="#FF844B"/>
  <path d="M84.19,97.03 L86.46,97.03 L86.46,100.12 L84.19,100.12 L84.19,97.03 Z" fill="#FF844B"/>
  <path d="M92.01,97.03 L94.28,97.03 L94.28,100.12 L92.01,100.12 L92.01,97.03 Z" fill="#FF844B"/>
  <path d="M76.37,107.03 L78.64,107.03 L78.64,110.12 L76.37,110.12 L76.37,107.03 Z" fill="#FF7942"/>
  <path d="M84.19,107.03 L86.46,107.03 L86.46,110.12 L84.19,110.12 L84.19,107.03 Z" fill="#FF7942"/>
  <path d="M92.01,107.03 L94.28,107.03 L94.28,110.12 L92.01,110.12 L92.01,107.03 Z" fill="#FF7942"/>
  <path d="M76.37,116.5 L78.64,116.5 L78.64,119.59 L76.37,119.59 L76.37,116.5 Z" fill="#FC7544"/>
  <path d="M84.19,116.5 L86.46,116.5 L86.46,119.59 L84.19,119.59 L84.19,116.5 Z" fill="#FC7544"/>
  <path d="M92.01,116.5 L94.28,116.5 L94.28,119.59 L92.01,119.59 L92.01,116.5 Z" fill="#FC7544"/>
  <path d="M23.111,49.173 L25.111,49.167 L25.17,67.817 L23.17,67.823 L23.111,49.173 Z" fill="#FFF6B2"/>
  <path d="M16.141,28.462 L18.141,28.459 L18.199,67.849 L16.199,67.852 L16.141,28.462 Z" fill="#FFF6B2"/>
  <path d="M102.304,63.352 L102.31,61.352 L114.17,61.387 L114.164,63.387 L102.304,63.352 Z" fill="#FFF6B2"/>
  <path d="M99.13,93.11 L99.12,91.11 L114,91.1 L114,48.4 L124.16,48.41 L124.15,50.41 L116,50.4 L116,93.1 Z" fill="#FFF6B2"/>
  <path d="M94.02,67.1 L99.13,67.1 L99.13,69.1 L94.02,69.1 L94.02,67.1 Z" fill="#FFF6B2"/>
  <path d="M76.12,59.76 L81.31,59.76 L81.31,61.76 L76.12,61.76 L76.12,59.76 Z" fill="#FFF6B2"/>
  <path d="M70.77,66.93 L76.13,66.93 L76.13,68.93 L70.77,68.93 L70.77,66.93 Z" fill="#FFF6B2"/>
  <path d="M67.72,102.88 L65.72,102.88 L65.72,62.88 L68.07,62.88 L68.07,57.44 L65.72,57.44 L65.72,42.03 L63.34,42.03 L59.46,30.03 L59.49,18.85 L61.49,18.85 L61.46,29.71 L61.71,30.45 L64.8,40.03 L67.72,40.03 L67.72,55.44 L70.07,55.44 L70.07,64.88 L67.72,64.88 Z" fill="#FFF6B2"/>
  <path d="M120.66,49.46 A28.37 30.07 0 1 1 63.92,49.46 A28.37 30.07 0 1 1 120.66,49.46 Z" fill="url(#SVGID_5_)" opacity="0.63"/>
</svg>