<svg viewBox="0 0 128 128" xmlns="http://www.w3.org/2000/svg">
  <defs/>
  <path d="M63.38,20.45 C39.47,20.98 20.8,31.77 12.61,58.07 C4.42,84.37 20.8,123.38 63.04,124.02 C105.28,124.66 126.84,82.21 113.04,50.95 C102.65,27.39 79.75,20.09 63.38,20.45 Z" fill="#EFE4AF"/>
  <path d="M82.04,112.09 C81.01,112.66 76.41,122.7 76.41,122.7 C76.41,122.7 77.93,122.36 78.78,122.14 C79.56,121.94 80.98,121.46 80.98,121.46 C80.98,121.46 84.75,114.8 84.57,113.57 C84.4,112.36 82.82,111.66 82.04,112.09 Z" fill="#B4DE58"/>
  <path d="M89.03,109.47 C87.65,110.02 87.37,114.72 89.38,115.15 C91.39,115.59 92.62,113.4 92.79,112.18 C92.97,110.96 90.78,108.77 89.03,109.47 Z" fill="#B4DE58"/>
  <path d="M79.59,108.95 C80.37,109.07 83.79,100.38 83.7,99.59 C83.61,98.8 79.77,96.7 78.37,97.32 C76.97,97.94 75.48,102.13 76.1,104.84 C76.7,107.55 78.45,108.77 79.59,108.95 Z" fill="#B4DE58"/>
  <path d="M81.69,87.7 C80.73,87.86 79.08,92.59 79.33,93.3 C80.2,95.75 84.4,96.1 85.01,95.75 C85.62,95.4 86.5,90.5 86.15,89.8 C85.8,89.1 82.74,87.52 81.69,87.7 Z" fill="#B4DE58"/>
  <path d="M68.92,91.72 C68.87,91.99 71.54,91.81 71.54,91.81 C71.54,91.81 74.6,93.47 74.69,95.22 C74.78,96.97 72.33,100.47 71.98,99.85 C71.63,99.24 69.01,91.2 68.92,91.72 Z" fill="#B4DE58"/>
  <path d="M74.87,109.56 C74.43,110.43 74.78,113.67 76.01,114.02 C77.23,114.37 78.28,113.15 78.11,111.22 C77.93,109.3 75.39,108.51 74.87,109.56 Z" fill="#B4DE58"/>
  <path d="M88.16,94.87 C87.01,95.05 85.97,98.72 86.76,99.77 C87.55,100.82 90.43,100.47 91.04,99.33 C91.65,98.19 89.29,94.69 88.16,94.87 Z" fill="#B4DE58"/>
  <path d="M85.45,103.61 C84.09,104.21 83.96,107.02 84.05,107.63 C84.14,108.24 85.45,109.2 86.24,109.12 C87.03,109.03 88.34,106.85 88.34,105.36 C88.33,103.87 86.23,103.26 85.45,103.61 Z" fill="#B4DE58"/>
  <path d="M91.74,103.79 C91.78,104.69 92.79,106.33 93.49,106.33 C94.19,106.33 96.38,101.96 96.38,101.96 L94.72,96.19 C94.72,96.18 91.57,99.76 91.74,103.79 Z" fill="#B4DE58"/>
  <path d="M88.95,91.89 C88.92,92.44 89.91,93.38 90.61,92.15 C91.31,90.93 93.67,84.63 93.93,83.67 C94.19,82.71 93.23,81.05 92.01,81.05 C90.78,81.05 89.03,90.41 88.95,91.89 Z" fill="#B4DE58"/>
  <path d="M70.14,85.51 C70.14,85.51 72.5,89.36 75.04,89.27 C77.58,89.18 78.8,86.47 78.63,86.03 C78.46,85.59 74.08,81.66 73.3,81.92 C72.51,82.19 70.14,85.51 70.14,85.51 Z" fill="#B4DE58"/>
  <path d="M69.62,57.44 C69.62,57.44 74.25,56.92 74.87,60.5 C75.49,64.08 70.15,72.92 70.15,72.92 L67.09,62.78 L69.62,57.44 Z" fill="#B4DE58"/>
  <path d="M66.82,44.76 C66.82,44.76 70.49,43.89 70.58,44.5 C70.67,45.11 66.65,54.03 66.56,52.89 C66.47,51.76 66.82,44.76 66.82,44.76 Z" fill="#B4DE58"/>
  <path d="M70.58,52.2 C71.22,54.12 74.78,55.44 75.74,55.35 C76.7,55.26 78.8,52.2 78.98,51.33 C79.15,50.46 78.37,45.3 76.71,45.12 C75.05,44.94 70.06,50.62 70.58,52.2 Z" fill="#B4DE58"/>
  <path d="M78.36,65.05 C79.04,66.42 83.61,66.8 83.78,66.19 C83.95,65.58 85.09,62.26 84.39,60.77 C83.69,59.28 78.97,59.37 78.53,60.16 C78.1,60.94 77.67,63.65 78.36,65.05 Z" fill="#B4DE58"/>
  <path d="M73.82,72.39 C73.4,73.05 72.42,76.32 73.3,75.98 C74.17,75.63 82.83,71.87 82.57,70.38 C82.31,68.89 79.95,68.98 78.98,68.98 C78.01,68.98 74.43,71.43 73.82,72.39 Z" fill="#B4DE58"/>
  <path d="M75.48,79.04 C75.79,79.9 78.1,81.05 79.07,80.96 C80.03,80.87 83.7,76.24 84.05,75.45 C84.4,74.66 84.05,73.26 82.3,73.53 C80.55,73.8 75.13,78.08 75.48,79.04 Z" fill="#B4DE58"/>
  <path d="M86.15,74.41 C86.08,75.21 88.07,78.34 90.61,77.82 C93.15,77.3 92.88,68.2 92.1,67.76 C91.31,67.32 89.13,70.91 88.51,71.78 C87.89,72.65 86.23,73.44 86.15,74.41 Z" fill="#B4DE58"/>
  <path d="M85.1,78.6 C84.27,78.6 81.6,83.32 81.95,84.02 C82.3,84.72 85.62,86.91 86.93,86.12 C88.24,85.33 87.89,80.35 87.72,79.74 C87.55,79.13 85.62,78.6 85.1,78.6 Z" fill="#B4DE58"/>
  <path d="M96.29,52.37 C96.29,52.37 98.13,51.41 98.74,52.02 C99.35,52.63 101.01,54.38 100.4,54.99 C99.79,55.6 96.64,59.1 96.64,58.84 C96.64,58.58 96.29,52.37 96.29,52.37 Z" fill="#B4DE58"/>
  <path d="M82.3,50.1 C81.56,50.35 79.68,56.13 79.94,56.92 C80.2,57.71 84.22,57.01 84.75,56.57 C85.28,56.13 85.1,52.02 84.75,51.41 C84.4,50.8 82.82,49.92 82.3,50.1 Z" fill="#B4DE58"/>
  <path d="M86.23,68.55 C86.2,69.25 87.28,69.6 87.8,69.16 C88.32,68.72 90.51,64.88 90.42,63.91 C90.33,62.95 88.58,62.16 88.15,62.77 C87.72,63.39 86.41,64.87 86.23,68.55 Z" fill="#B4DE58"/>
  <path d="M70.41,40.92 C70.87,41 73.3,38.82 73.03,37.42 C72.76,36.02 70.67,34.18 70.14,34.8 C69.62,35.41 69.88,40.83 70.41,40.92 Z" fill="#B4DE58"/>
  <path d="M80.81,32.26 C79.99,32.87 81.68,34.97 82.73,35.06 C83.78,35.15 85.53,34.62 85.62,33.84 C85.71,33.05 86.06,31.04 84.66,30.6 C83.26,30.16 81.51,31.73 80.81,32.26 Z" fill="#B4DE58"/>
  <path d="M88.07,29.11 C88.07,29.11 88.33,34.53 89.56,34.71 C90.78,34.88 92.36,30.16 92.36,30.16 L88.07,29.11 Z" fill="#B4DE58"/>
  <path d="M91.31,39.08 C91.38,39.78 95.16,39.78 95.77,39.25 C96.38,38.73 95.51,33.83 94.98,33.65 C94.45,33.47 91.22,38.2 91.31,39.08 Z" fill="#B4DE58"/>
  <path d="M92.09,43.8 C91.65,44.67 92.44,46.51 93.75,46.6 C95.06,46.69 95.94,44.33 95.59,43.71 C95.24,43.1 92.41,43.17 92.09,43.8 Z" fill="#B4DE58"/>
  <path d="M99.35,42.84 C98.44,43.2 96.64,47.91 96.99,48.52 C97.34,49.13 99.35,50.09 100.05,50.01 C100.75,49.92 102.85,45.29 102.5,44.33 C102.15,43.36 100.23,42.49 99.35,42.84 Z" fill="#B4DE58"/>
  <path d="M104.09,47.86 C103.71,47.73 101.6,51.62 101.66,51.91 C101.72,52.2 102.18,53.36 102.99,53.01 C103.8,52.66 105.3,50.52 105.3,50 C105.3,49.48 104.61,48.04 104.09,47.86 Z" fill="#B4DE58"/>
  <path d="M102.12,57.17 C101.58,58.25 102.87,59.02 102.52,60.35 C102.17,61.68 101.42,63.93 101.88,64.46 C102.34,64.98 106.68,63.94 107.03,63.53 C107.38,63.13 107.78,58.85 107.38,57.92 C106.98,56.99 103.05,55.32 102.12,57.17 Z" fill="#B4DE58"/>
  <path d="M105.65,54.11 C105.97,54.79 110.74,54.57 110.68,54.23 C110.62,53.88 109.58,50.36 109.58,50.36 C109.58,50.36 105.25,53.24 105.65,54.11 Z" fill="#B4DE58"/>
  <path d="M110.28,60.64 C109.76,61.11 108.55,65.09 108.78,66.65 C109.01,68.21 110.69,71.91 111.44,71.97 C112.19,72.03 111.67,63.99 111.56,62.83 C111.43,61.68 110.91,60.06 110.28,60.64 Z" fill="#B4DE58"/>
  <path d="M103.74,68.16 C103.69,68.99 105.36,76.2 106.75,76.49 C108.14,76.78 109.53,75.45 109.58,74.52 C109.64,73.59 107.15,67.7 106.69,66.71 C106.23,65.73 103.8,67.12 103.74,68.16 Z" fill="#B4DE58"/>
  <path d="M106.4,80.07 C105.78,80.89 104.55,83.42 105.24,84.29 C105.93,85.16 107.26,85.39 109.17,84.98 C111.08,84.58 111.25,83.59 111.37,83.07 C111.49,82.55 111.95,79.95 111.31,79.2 C110.68,78.45 106.75,79.61 106.4,80.07 Z" fill="#B4DE58"/>
  <path d="M104.84,91.57 C106.58,91.57 106.63,90.47 108.42,89.78 C110.21,89.09 111.31,88.62 111.48,88.22 C111.65,87.82 112.23,85.62 111.83,85.44 C111.43,85.26 110.5,86.37 109.05,86.65 C107.6,86.94 106.62,86.77 105.81,87.17 C105,87.57 103.67,88.79 103.73,89.83 C103.8,90.88 104.38,91.57 104.84,91.57 Z" fill="#B4DE58"/>
  <path d="M105.13,95.74 C104.13,97.19 105.77,98.92 106.52,99.09 C107.27,99.26 109.32,99.04 109.32,99.04 C109.32,99.04 110.61,96.98 111.16,95.83 C111.58,94.94 112.42,93.17 112.42,93.17 C112.42,93.17 112.6,91.69 111.96,91.17 C111.32,90.65 109.18,91.69 108.14,92.62 C107.1,93.55 105.65,94.99 105.13,95.74 Z" fill="#B4DE58"/>
  <path d="M48.4,22.34 C48.4,22.34 50.45,21.86 51.14,21.72 C52.38,21.45 53.52,21.32 53.52,21.32 C53.52,21.32 53.52,22.53 52.71,22.77 C51.91,22.99 48.4,22.34 48.4,22.34 Z" fill="#B4DE58"/>
  <path d="M65.34,20.43 C65.34,20.43 71.97,20.41 76.62,21.73 C80.6,22.86 85.76,24.56 85.76,24.56 L79.63,25.6 C79.63,25.6 81.77,24.79 81.25,24.1 C80.73,23.41 78.13,22.42 77.61,23.06 C77.09,23.7 77.9,25.26 77.9,25.26 L75.85,26.01 C75.85,26.01 76.38,24.15 75.51,23.75 C74.64,23.35 73.99,23.47 73.21,22.77 C72.59,22.21 70.02,19.97 67.1,21.63 C65.05,22.8 65.34,20.43 65.34,20.43 Z" fill="#B4DE58"/>
  <path d="M35.69,28.53 L49.91,26.16 C49.91,26.16 50.72,25.29 49.51,24.89 C48.3,24.49 45.29,24.66 45.29,24.66 C45.29,24.66 44.9,24.24 44.36,24.07 C43.81,23.89 43.24,23.9 43.24,23.9 C43.24,23.9 38.77,25.56 36.86,26.66 C34.95,27.76 33.9,28.88 33.9,28.88 L35.69,28.53 Z" fill="#B4DE58"/>
  <path d="M36.27,32.65 C36.27,32.65 36.93,35.09 38.47,34.73 C39.97,34.38 40.38,33.46 40.9,32.07 C41.07,31.61 41.36,30.39 41.36,30.39 L36.27,32.65 Z" fill="#B4DE58"/>
  <path d="M42.97,29.71 C42.91,29.88 43.43,30.52 43.03,31.68 C42.63,32.84 41.41,34.74 42.39,35.26 C43.37,35.78 45.51,33.35 46.09,32.89 C46.67,32.43 45.97,29.48 45.97,29.48 L42.97,29.71 Z" fill="#B4DE58"/>
  <path d="M33.14,35.72 C33.21,36.47 35.97,39.25 36.67,39.36 C37.36,39.48 38.46,38.49 38,37.74 C37.54,36.99 35.28,34.91 34.7,34.56 C34.13,34.22 33.03,34.45 33.14,35.72 Z" fill="#B4DE58"/>
  <path d="M32.05,39.48 C31.7,39.16 30.6,39.88 30.66,40.75 C30.72,41.62 32.05,42.6 32.16,43.81 C32.27,45.02 31.57,47.11 32.28,47.92 C33.49,49.31 35.92,46.42 35.69,44.57 C35.46,42.72 32.68,40.06 32.05,39.48 Z" fill="#B4DE58"/>
  <path d="M24.99,42.83 C24.99,43.12 26.44,47.05 27.3,47.34 C28.17,47.63 28.92,45.26 28.86,44.33 C28.8,43.4 26.26,37.97 26.26,37.97 L24.99,42.83 Z" fill="#B4DE58"/>
  <path d="M28.4,51.91 C27.99,52.81 28.05,55.78 28.52,56.07 C28.98,56.36 31.41,55.09 32.05,54.62 C32.69,54.16 34.36,53.35 34.31,52.6 C34.25,51.85 34.54,48.96 33.91,48.84 C33.28,48.72 31.71,50.17 30.67,50.57 C29.62,50.98 28.75,51.16 28.4,51.91 Z" fill="#B4DE58"/>
  <path d="M17.24,53.01 C17.36,53.18 18.74,54.4 18.74,54.4 C18.74,54.4 21,52.32 21.8,51.8 C22.61,51.28 23.25,50.87 23.25,49.6 C23.25,48.33 23.42,47.06 22.96,46.88 C22.5,46.71 19.26,46.53 19.26,47 C19.26,47.47 17.24,53.01 17.24,53.01 Z" fill="#B4DE58"/>
  <path d="M20.83,55.73 C20.5,57.62 21.81,60.41 22.56,60.53 C23.31,60.65 23.95,58.97 24.53,58.68 C25.11,58.39 25.86,58.39 26.15,57.99 C26.44,57.59 26.03,55.1 25.92,54.41 C25.8,53.72 25.86,52.27 24.82,52.44 C23.78,52.6 21.18,53.76 20.83,55.73 Z" fill="#B4DE58"/>
  <path d="M26.38,62.2 C25.66,62.2 24.12,63.41 23.78,64.05 C23.43,64.69 23.03,65.84 22.68,66.25 C22.33,66.65 21.29,67.41 21.75,68.51 C22.21,69.61 24.24,70.94 25.57,70.82 C26.9,70.7 27.59,67.99 27.59,66.25 C27.59,64.51 27.13,62.2 26.38,62.2 Z" fill="#B4DE58"/>
  <path d="M16.38,72.32 C16.38,73.07 18.58,74.81 19.5,75.73 C20.42,76.65 22.1,78.27 22.74,78.27 C23.38,78.27 25.57,76.01 25.34,75.21 C25.11,74.4 23.32,72.67 22.68,71.86 C22.04,71.05 20.66,69.72 19.56,69.78 C18.46,69.83 16.38,71.63 16.38,72.32 Z" fill="#B4DE58"/>
  <path d="M13.37,69.54 C13.77,69.37 16.38,67.98 17.82,66.88 C19.26,65.78 20.08,65.03 20.08,64.45 C20.08,63.87 19.79,62.6 19.39,61.62 C18.99,60.64 17.31,58.38 17.31,58.38 C17.31,58.38 13.2,62.6 13.2,63.76 C13.2,64.92 13.37,69.54 13.37,69.54 Z" fill="#B4DE58"/>
  <path d="M31.76,70.99 C30.89,71.45 28.35,72.9 28.46,75.21 C28.58,77.52 29.96,78.74 29.96,78.74 L32.91,74.17 L31.76,70.99 Z" fill="#B4DE58"/>
  <path d="M20.25,82.61 C18.69,82.44 17.65,82.03 17.19,83.19 C16.73,84.35 18.12,85.91 18.87,86.77 C19.62,87.63 22.51,90.7 24.02,90.7 C25.53,90.7 27.43,88.79 27.43,87.98 C27.43,86.92 23.65,82.94 23.38,82.83 C22.91,82.67 21.81,82.79 20.25,82.61 Z" fill="#B4DE58"/>
  <path d="M19.73,91.98 C18.98,92.19 20.02,95.16 21,96.61 C21.98,98.06 23.49,98.98 24.01,99.1 C24.53,99.22 26.96,97.89 26.9,97.54 C26.84,97.19 25.11,95.98 24.07,94.88 C23.03,93.78 22.62,92.91 21.87,92.51 C21.12,92.1 20.13,91.86 19.73,91.98 Z" fill="#B4DE58"/>
  <path d="M26.55,93.08 C26.45,93.6 27.53,94.6 28.57,95.22 C30.13,96.15 33.95,96.49 33.95,96.49 C33.95,96.49 30.89,88.45 30.65,88.68 C30.41,88.91 28.16,90.88 27.82,91.28 C27.48,91.69 26.73,92.21 26.55,93.08 Z" fill="#B4DE58"/>
  <path d="M23.72,101.69 C23.98,102.27 24.82,104.18 26.73,104.18 C28.23,104.18 28.75,100.83 28.41,100.42 C28.06,100.02 22.91,99.9 23.72,101.69 Z" fill="#B4DE58"/>
  <path d="M22.28,105.38 C22.28,105.38 23.26,104.8 25.23,105.78 C30.09,108.21 29.74,112.76 29.74,112.76 C29.74,112.76 26.45,110 25.23,108.67 C24.01,107.34 22.28,105.38 22.28,105.38 Z" fill="#B4DE58"/>
  <path d="M45,113.43 C44.39,114.22 46.45,116.84 46.45,116.84 C46.45,116.84 46.28,119.96 46.8,120.6 C47.32,121.24 49.46,121.81 50.73,121.93 C52.62,122.11 53.16,120.95 53.1,120.6 C53.04,120.25 52.81,118.63 51.25,115.92 C50.08,113.88 49.05,112.74 48.47,112.51 C47.89,112.28 45.4,112.91 45,113.43 Z" fill="#B4DE58"/>
  <path d="M49.05,108.98 C48.82,110 51.71,112.16 52.58,112.91 C53.45,113.66 54.2,114.59 54.95,114.41 C55.7,114.24 56.45,112.39 56.97,111.87 C57.49,111.35 58.18,110.37 58.18,109.73 C58.18,109.09 57.25,105.74 56.79,105.34 C56.33,104.94 51.88,104.41 51.35,104.7 C50.83,104.99 50.19,105.91 50.08,106.43 C49.97,106.96 49.16,108.46 49.05,108.98 Z" fill="#B4DE58"/>
  <path d="M58.24,114.59 C58.69,114.66 60.67,117.25 60.73,117.89 C60.79,118.53 59.54,122.04 59,122.23 C58.46,122.41 55.99,122.4 55.65,121.88 C55.31,121.36 55.13,117.2 55.77,116.56 C56.41,115.92 57.89,114.53 58.24,114.59 Z" fill="#B4DE58"/>
  <path d="M46.79,98.17 C46.67,98.92 48.12,100.14 48.81,100.83 C49.5,101.52 50.02,102.62 51.53,102.22 C53.03,101.82 54.25,100.89 54.88,99.16 C55.51,97.43 56.27,94.01 56.15,93.67 C56.03,93.32 52.85,90.95 52.22,91.36 C51.59,91.77 46.91,97.41 46.79,98.17 Z" fill="#B4DE58"/>
  <path d="M58.93,96.08 C58.12,96.2 56.44,100.94 56.56,101.4 C56.68,101.86 57.89,103.25 59.05,103.08 C60.21,102.91 61.88,100.25 61.88,99.73 C61.88,99.21 59.71,95.97 58.93,96.08 Z" fill="#B4DE58"/>
  <path d="M44.59,101.81 C44.9,102 46.04,103.49 45.69,104.64 C45.34,105.8 44.01,110.83 43.38,110.71 C42.74,110.59 41.47,105.74 41.47,105.33 C41.47,104.92 44.3,101.64 44.59,101.81 Z" fill="#B4DE58"/>
  <path d="M40.2,96.49 C39.84,96.74 38.81,98.75 38.75,99.44 C38.69,100.13 38.75,102.45 39.85,102.62 C41.57,102.89 43.43,99.21 43.43,98.8 C43.43,98.4 42.16,97.07 41.75,96.83 C41.35,96.61 40.78,96.08 40.2,96.49 Z" fill="#B4DE58"/>
  <path d="M39.39,90.88 C39.45,91.86 42.28,94.46 44.3,94.58 C46.32,94.7 48,91.75 47.88,91.11 C47.76,90.47 42.44,85.91 41.92,86.02 C41.4,86.14 40.76,88.22 40.76,88.22 C40.76,88.22 39.33,89.96 39.39,90.88 Z" fill="#B4DE58"/>
  <path d="M47.95,76.14 C47.45,76.32 46.56,79.32 46.27,80.19 C45.98,81.06 45.63,83.25 45.92,83.66 C46.21,84.06 48.12,85.11 50.03,84.93 C51.94,84.76 52.86,82.96 53.15,82.44 C53.44,81.92 54.65,77.7 54.36,76.83 C54.08,75.96 49.05,75.73 47.95,76.14 Z" fill="#B4DE58"/>
  <path d="M42.8,74.17 C41.93,74.17 40.08,77.12 40.08,78.04 C40.08,78.96 41.76,80.76 42.68,80.76 C43.61,80.76 44.59,79.03 44.82,78.16 C45.05,77.29 44.76,75.79 44.76,75.56 C44.76,75.33 44.01,74.17 42.8,74.17 Z" fill="#B4DE58"/>
  <path d="M36.84,82.03 C36.47,82.72 38.05,85.5 38.86,85.85 C39.67,86.2 40.88,85.16 41,83.36 C41.12,81.57 40.54,80.47 39.27,80.24 C38.86,80.17 37.31,81.17 36.84,82.03 Z" fill="#B4DE58"/>
  <path d="M54.48,87.3 C54.43,87.94 57.83,89.38 58.41,89.38 C58.76,89.38 60.61,85.85 60.67,84.58 C60.79,82.09 60.32,80.01 58.24,79.38 C56.86,78.96 56.91,81.17 56.56,81.98 C56.21,82.79 54.71,84.35 54.48,87.3 Z" fill="#B4DE58"/>
  <path d="M57.89,72.61 C57.71,74.07 58.99,76.31 59.68,76.77 C60.37,77.23 64.31,79.72 64.31,79.72 L64.19,71.8 C64.19,71.8 58.12,70.76 57.89,72.61 Z" fill="#B4DE58"/>
  <path d="M62.17,61.97 C62.17,61.97 58.41,61.04 57.2,61.45 C55.99,61.85 54.89,63.24 54.77,63.53 C54.65,63.82 56.16,66.88 56.79,67 C57.43,67.12 62.75,68.45 62.75,67.4 C62.75,66.35 62.17,61.97 62.17,61.97 Z" fill="#B4DE58"/>
  <path d="M44.65,68.45 C44.12,68.48 43.38,70.07 44.82,70.82 C46.27,71.57 50.2,71.86 51.35,71.92 C52.51,71.98 55.74,72.5 55.74,71.57 C55.74,70.64 55.34,68.39 55.1,67.99 C54.87,67.59 52.67,64.87 52.21,64.93 C51.75,64.99 48.8,67.13 47.93,67.47 C47.06,67.81 45.69,68.39 44.65,68.45 Z" fill="#B4DE58"/>
  <path d="M37.71,63.59 C39.5,63.01 40.08,61.68 41.76,61.16 C43.44,60.64 45.63,59.25 46.15,59.37 C46.67,59.49 49.56,62.09 49.62,62.43 C49.68,62.78 46.67,64.4 45.92,64.69 C45.17,64.98 41.9,66.45 41.9,66.45 L38.92,68.79 L37.71,63.59 Z" fill="#B4DE58"/>
  <path d="M39.85,52.83 C39.85,52.83 44.07,52.4 44.48,52.37 C46.2,52.25 46.21,53.06 46.21,53.35 C46.21,53.64 46.38,56.59 44.59,57.34 C42.8,58.09 41.24,58.15 41.06,58.38 C40.89,58.61 38.11,60.46 38.17,60.23 C38.23,60 39.85,52.6 39.85,52.83 Z" fill="#B4DE58"/>
  <path d="M48.7,54.4 C48.29,55.36 49.45,58.1 49.68,58.39 C49.91,58.68 52.05,60.36 53.79,60.36 C55.53,60.36 58.94,56.54 59.17,55.91 C59.4,55.28 57.2,51.86 56.63,51.75 C56.05,51.63 53.85,52.79 53.85,52.79 C53.85,52.79 48.87,53.99 48.7,54.4 Z" fill="#B4DE58"/>
  <path d="M48.24,44.28 C47.78,44.78 47.2,51.05 47.66,51.16 C48.12,51.28 50.61,50.12 50.61,50.12 C50.61,50.12 52.4,50.29 53.04,50.12 C53.68,49.95 54.89,49.25 55.06,48.73 C55.23,48.21 53.33,43.58 52.8,43.29 C52.27,43 48.87,43.58 48.24,44.28 Z" fill="#B4DE58"/>
  <path d="M55.41,41.15 C55.26,41.42 57.2,47.68 57.9,47.68 C58.6,47.68 59.92,45.37 59.98,45.02 C60.04,44.67 59.05,40.63 57.84,40.16 C56.62,39.71 55.69,40.63 55.41,41.15 Z" fill="#B4DE58"/>
  <path d="M54.94,37.74 C55.27,38.4 57.25,38.55 58.29,38.14 C59.33,37.74 60.89,37.27 60.83,36.46 C60.77,35.65 58.81,33.8 57.13,33.97 C56.61,34.02 55.86,34.72 55.4,35.53 C54.94,36.36 54.65,37.16 54.94,37.74 Z" fill="#B4DE58"/>
  <path d="M101.28,101.6 C101.28,101.6 104.69,101.43 105.51,101.48 C106.33,101.53 107.2,102.27 107.2,102.27 C107.2,102.27 106.08,103.85 105.23,104.92 C104.17,106.25 102.11,108.48 102.11,108.48 L100.33,102.37 L101.28,101.6 Z" fill="#B4DE58"/>
  <path d="M52.44,34.78 C50.83,33.1 41.86,36.85 38.6,40.82 C35.34,44.79 36.61,49.26 34.78,52.98 C32.95,56.7 29.69,58.36 29.53,62.82 C29.37,67.28 30.64,69.93 30.01,74.15 C29.37,78.37 26.51,79.94 27.86,85.9 C29.21,91.86 31.2,96.49 30.8,99.22 C30.4,101.95 29.21,104.51 30,107.49 C30.8,110.47 31.67,111.05 31.75,112.12 C31.83,113.2 31.94,114.55 31.94,114.55 C31.94,114.55 34.52,116.52 36.36,117.58 C38.61,118.87 43.04,120.58 43.04,120.58 C43.04,120.58 41.85,115.68 40.34,112.62 C38.83,109.56 36.21,107.08 36.28,102.11 C36.35,97.14 38.27,97.23 37.47,91.85 C36.67,86.47 34.69,84.65 34.77,80.85 C34.85,77.04 39.06,73.9 39.3,68.94 C39.54,63.98 38.35,62.49 39.14,58.43 C39.94,54.38 42.96,51.4 43.99,48.09 C45.02,44.78 44.6,43.85 45.9,41.64 C47.67,38.67 54.51,36.93 52.44,34.78 Z" fill="#A8CE5F"/>
  <path d="M65.88,37.18 C64.54,36.8 63.93,37.64 62.2,41.17 C60.37,44.89 60.16,48.25 60.62,50.32 C61.08,52.39 62.82,55.03 62.21,58.59 C61.6,62.15 59.19,63.07 60.03,68.7 C60.87,74.33 62.92,76.81 62.46,80.86 C62,84.91 60.56,88.39 61.09,91.86 C61.62,95.33 62.99,95.75 62.92,99.88 C62.84,104.02 61.09,106.66 61.7,110.14 C62.31,113.61 63.22,115.52 62.69,118.16 C62.16,120.81 61.09,123.95 61.09,123.95 C61.09,123.95 63.2,124.08 66.57,123.95 C68.63,123.87 71.63,123.39 71.63,123.39 C71.63,123.39 73.19,120.64 73.19,117.83 C73.19,115.02 71.44,113.03 71.67,109.56 C71.9,106.09 72.66,103.52 72.28,99.63 C71.9,95.74 70.53,92.43 70.76,89.37 C70.99,86.31 71.67,83.83 71.37,78.7 C71.07,73.57 69,70.35 69.53,66.96 C70.06,63.57 70.59,61.25 70.21,57.28 C69.83,53.31 67.55,52.56 67.17,48.43 C66.8,44.29 68.51,37.92 65.88,37.18 Z" fill="#A8CE5F"/>
  <path d="M76.65,33.95 C75.85,35.16 77.18,38.85 77.45,39.74 C78.74,44.05 81.4,45.11 84,47.35 C84.31,47.61 85.92,48.52 86.08,49.67 C86.4,51.99 86.32,52.9 87.44,55.54 C88.56,58.19 90.4,60.42 91.28,62.08 C92.16,63.73 93.6,65.14 93.68,68.04 C93.76,70.94 93.52,74.33 94.48,76.89 C95.44,79.45 96.8,81.69 96.24,84.42 C95.68,87.15 92.56,92.28 93.52,96.66 C94.48,101.04 96.08,102.62 95.76,105.76 C95.44,108.9 94.17,111.45 93.76,113.21 C93.38,114.84 93.26,115.92 93.26,115.92 C93.26,115.92 98.04,112.77 100.56,110.23 C102.3,108.47 104,106.84 103.92,103.03 C103.84,99.22 100.48,98.23 101.2,92.94 C101.92,87.65 104.48,81.51 103.84,76.4 C102.88,68.79 99.44,67.3 98.72,64.49 C98,61.68 99.6,56.8 97.52,51.34 C95.44,45.88 91.21,47.7 89.21,45.05 C87.21,42.4 87.29,40.58 85.61,38.18 C83.92,35.77 77.53,32.63 76.65,33.95 Z" fill="#A8CE5F"/>
  <path d="M74.7,28.08 C75.3,29.28 76.69,29.92 81.08,29.76 C85.46,29.59 87.44,29.33 89.92,30.98 C92.4,32.63 92.15,33.96 95.13,36.03 C98.11,38.1 100.42,38.18 102.66,41.32 C104.9,44.46 107.13,51.41 108.78,53.98 C110.43,56.55 112.83,58.61 113.58,63.16 C114.33,67.71 113.83,72.34 113.58,77.31 C113.33,82.27 112.39,93.19 112.39,93.19 C112.39,93.19 115.95,85.79 116.83,77.25 C117.52,70.55 118.41,58.15 110.11,44.96 C101.46,31.21 90.59,26.47 85.76,24.57 C85.72,24.55 82.54,24.49 80.91,24.61 C77.31,24.88 73.55,25.76 74.7,28.08 Z" fill="#A8CE5F"/>
  <path d="M31.69,35.19 C33.92,33.14 35,34.11 38.39,32.87 C41.78,31.63 41.2,30.64 44.1,30.22 C47,29.81 52.87,31.05 53.12,28.65 C53.37,26.25 49.56,24.76 44.43,25.51 C39.3,26.25 37.03,26.58 37.03,26.58 C37.03,26.58 27.66,31.44 22.18,38.83 C17.15,45.61 9.85,56.2 10.52,74.73 C11.15,92.48 21.03,103.68 21.03,103.68 C21.03,103.68 18.95,96.86 18.53,95.53 C18.12,94.21 16.6,90.61 16.16,88.57 C14.99,83.17 16.88,83.19 15.98,79.27 C15.61,77.66 14.9,74.8 14.74,71.49 C14.57,68.18 17.97,65.2 18.3,61.56 C18.63,57.92 18.13,55.27 20.2,50.81 C22.27,46.35 25.16,45.52 26.98,42.87 C28.79,40.24 28.63,38 31.69,35.19 Z" fill="#A8CE5F"/>
  <path d="M55.81,20.98 C55.81,20.98 58.07,20.73 59,20.64 C59.93,20.56 61.62,20.53 61.62,20.53 L63.79,22.45 C63.79,22.45 59.98,22.34 58.91,21.66 C57.84,20.98 55.81,20.98 55.81,20.98 Z" fill="#B4DE58"/>
  <path d="M60.4,14.7 L60.59,25.16 C60.59,25.16 56.19,26.31 56.32,28.86 C56.45,31.41 59.76,32.75 64.16,32.62 C68.56,32.49 71.75,30.71 71.94,28.41 C72.13,26.11 68.69,25.48 68.69,25.48 L68.95,14.32 C68.95,14.32 76.27,14.25 83.17,12.66 C89.8,11.13 93.44,10.3 93.95,8.26 C94.46,6.22 94.65,2.9 92.74,2.52 C90.83,2.14 80.61,6.51 63.59,6.86 C44.84,7.24 39.62,5.01 38.79,5.39 C37.96,5.77 36.43,9.6 37.96,12.02 C39.49,14.44 47.59,14.57 50.27,14.63 C52.94,14.7 60.4,14.7 60.4,14.7 Z" fill="#5E8A28"/>
</svg>