<svg viewBox="0 0 128 128" xmlns="http://www.w3.org/2000/svg">
  <defs>
    <radialGradient id="SVGID_1_" cx="49.402733" cy="-61.50733" gradientTransform="matrix(-0.002713 1 -1.0419 -0.002826 0 0)" gradientUnits="userSpaceOnUse" r="25.2814">
      <stop offset="0.4039" stop-color="#AF0D1A"/>
      <stop offset="0.5347" stop-color="#AB0C19"/>
      <stop offset="0.6675" stop-color="#9F0B17"/>
      <stop offset="0.8013" stop-color="#8A0813"/>
      <stop offset="0.9351" stop-color="#6E050D"/>
      <stop offset="0.9597" stop-color="#68040C"/>
    </radialGradient>
  </defs>
  <path d="M43.34,11.83 L55.32,18.36 L73.24,18.85 L84.35,12.35 L85.93,16.57 C85.93,16.57 92.92,35.43 92.39,45.98 C91.9,55.86 90.69,64.6 81.58,72.49 C74.72,78.42 67.87,78.95 67.87,78.95 L68,99.13 C68,99.13 76.97,99.53 82.24,102.95 C87,106.04 87.78,109.02 87.78,110.99 C87.78,112.97 85.93,123.12 63.52,122.86 C41.11,122.6 39.78,111.65 39.78,109.67 C39.78,107.69 41.9,103.88 48.22,101.49 C54.15,99.25 59.3,99.51 59.3,99.51 L59.3,78.56 C59.3,78.56 50.99,76.45 44.66,70.38 C40.75,66.63 34.24,58.12 35.17,44.27 C35.97,32.13 43.34,11.83 43.34,11.83 Z" fill="#FFFFFF" opacity="0.5"/>
  <path d="M43.34,11.83 L48.09,7.48 L55.47,5.11 L72.48,5.24 L80.26,8.54 L84.35,12.36 L85.93,16.58 C85.93,16.58 92.92,35.44 92.39,45.99 C91.9,55.87 90.69,64.61 81.58,72.5 C74.72,78.43 67.87,78.96 67.87,78.96 L67.93,99.1 C67.93,99.1 76.95,100.13 82.23,103.56 C86.99,106.65 87.78,109.03 87.78,111.01 C87.78,112.99 85.93,123.14 63.52,122.88 C41.11,122.62 39.78,111.67 39.78,109.69 C39.78,107.71 41.9,103.9 48.22,101.51 C54.15,99.27 59.23,99.11 59.23,99.11 L59.3,78.57 C59.3,78.57 50.99,76.46 44.66,70.39 C40.75,66.64 34.24,58.13 35.17,44.28 C35.97,32.13 43.34,11.83 43.34,11.83 Z" fill="#E0E0E0" opacity="0.7"/>
  <path d="M58.59,79.03 C58.3,78.94 51.82,77.37 47.42,73.93 C38.86,67.23 34.8,59.84 34.28,49.98 C33.97,44.16 36.36,34.27 38.06,27.34 C39.8,20.28 41.9,15 41.92,14.94 C41.92,14.94 42.2,14.14 42.5,14.29 C43.13,14.61 42.5,17.39 42.5,17.39 C42.02,19.17 41.56,20.85 39.86,27.81 C38.19,34.62 36,44.31 36.29,49.86 C36.78,59.09 40.59,66.03 48.66,72.34 C52.76,75.55 57.97,76.81 58.68,77.15 C59.39,77.49 60.31,77.65 60.18,78.56 C60.04,79.5 58.59,79.03 58.59,79.03 Z" fill="#D4D4D4"/>
  <path d="M68.62,79.28 C67.87,79.35 67.14,79.22 67.08,78.49 C67,77.59 68.12,77.53 68.12,77.53 C68.86,77.26 72.65,76.95 76.4,74.7 C86.97,68.36 92.09,58.41 91.43,45.51 C90.51,27.72 83.53,14.17 83.46,14.04 L84.78,12.1 C84.85,12.24 92.48,27.18 93.43,45.41 C94.14,59.1 89.03,69.71 77.78,76.45 C73.68,78.91 69.01,79.24 68.62,79.28 Z" fill="#9E9E9E"/>
  <path d="M65.13,21.92 C64.88,21.92 64.63,21.92 64.38,21.91 C55.58,21.78 48.06,19.3 44.42,15.78 C43.12,14.53 42.94,13.66 42.87,12.28 C42.74,9.91 45.56,3.99 63.93,4.09 C76.04,4.15 85.03,7.9 85.08,12.6 C85.1,14.02 84.85,15.18 83.5,16.52 C80.05,19.91 73.21,21.92 65.13,21.92 Z M63.03,6.58 C50.99,6.68 45.83,10 45.88,12.15 C45.89,12.7 45.93,13.01 46.59,13.69 C48.99,16.19 55.44,18.77 64.43,18.9 L64.43,18.9 C73.39,19.05 79.08,16.65 81.4,14.36 C82.15,13.63 82.53,13.39 82.53,12.81 C82.53,10.54 77.66,6.87 64.78,6.59 C64.19,6.59 63.6,6.58 63.03,6.58 Z" fill="#C8C8C8"/>
  <path d="M65.32,19.74 C64.51,19.74 63.66,19.72 62.78,19.67 C48.78,18.93 46.06,13.32 45.93,13.06 C45.69,12.56 45.58,11.59 45.96,11.48 C46.47,11.33 46.74,11.78 47.26,12.26 C48.1,13.04 51.13,17.09 63.78,17.38 C76.18,17.67 80.17,13.89 80.9,13.23 C81.45,12.73 82.03,11.69 82.49,11.99 C82.95,12.29 82.71,13.49 82.44,13.96 C82.02,14.68 78.89,19.74 65.32,19.74 Z" fill="#FFFFFF"/>
  <path d="M63.79,79.74 C61.64,79.74 62.08,81.39 61.97,92.36 C61.89,101.11 62.8,102.67 63.7,102.76 C64.61,102.84 65.43,102.18 65.43,92.94 C65.44,82.22 65.77,79.74 63.79,79.74 Z" fill="#9E9E9E"/>
  <path d="M67.11,100.05 C66.29,100.12 67.18,101.91 66.07,103.33 C65.19,104.45 63.54,105.12 63.61,106.38 C63.68,107.65 70.16,106.83 70.16,104.44 C70.16,103.51 69.48,102.86 68.82,101.98 C68.16,101.1 67.52,100.01 67.11,100.05 Z" fill="#FFFFFF"/>
  <path d="M52.14,109.06 C52.14,109.06 54.99,112.88 63.77,112.96 C72.63,113.04 74.82,110.36 75.15,109.3 C75.39,108.5 72.39,104.31 72.02,104.38 C71.65,104.45 70.68,108.34 63.83,108.09 C56.98,107.84 56.8,105.15 56.25,104.64 C55.81,104.23 52.14,109.06 52.14,109.06 Z" fill="#9E9E9E"/>
  <path d="M43.95,107.2 C41.73,107.49 41.63,110.07 43.06,112.41 C45.96,117.18 55.59,120.44 56.09,117.85 C56.54,115.54 51.48,114.95 51.99,111.07 C52.36,108.24 57.43,105.63 56.01,104.14 C54.6,102.65 52.44,106.15 49.53,106.82 C46.99,107.41 45.66,106.98 43.95,107.2 Z" fill="#FFFFFF"/>
  <path d="M76.12,103.4 C74.88,104.39 78.58,105.41 78.43,108.46 C78.28,111.51 75.23,112.83 75.82,113.67 C76.71,114.94 81.96,112.25 81.78,108.08 C81.63,104.67 77.24,102.51 76.12,103.4 Z" fill="#CACACA"/>
  <path d="M74.78,117.48 C75.23,118.89 81.15,118.28 83.94,114.28 C86.84,110.11 84.83,106.61 83.72,106.98 C82.6,107.35 84.17,109.96 81.34,112.71 C78.5,115.46 74.28,115.9 74.78,117.48 Z" fill="#FFFFFF"/>
  <path d="M39.79,109.54 C39.53,109.3 39.06,111.66 39.85,113.6 C40.52,115.24 43.95,123.8 64.5,123.95 C87.36,124.12 88.53,114.32 88.24,111.58 C88.05,109.77 87.7,109.15 87.52,109.15 C87.35,109.14 87.17,110.75 87.02,111.62 C86.54,114.34 83.86,121.2 64.87,121.35 C47.59,121.49 42.53,114.42 41.64,113.16 C41.01,112.26 39.94,109.68 39.79,109.54 Z" fill="#9E9E9E"/>
  <path d="M38.26,47.89 L41.33,56.25 L52.59,62.31 L67,65.03 L81.33,52.58 L86.36,45.16 C86.36,45.16 81.42,43.06 75.84,42.24 C67.14,40.96 59.75,40.64 51.05,42.26 C40.36,44.25 38.26,47.89 38.26,47.89 Z" fill="#CC1935"/>
  <path d="M57.96,60.51 C68.02,60.85 69.39,54.97 77.58,49.17 C85.77,43.37 89.09,45.08 89.09,45.08 C89.09,45.08 91.84,57.55 82.35,67.42 C74.08,76.03 58.93,78.62 46.97,68.49 C38.1,60.98 38.26,47.89 38.26,47.89 C38.26,47.89 45.25,60.08 57.96,60.51 Z" fill="url(#SVGID_1_)"/>
  <path d="M45.09,20.08 C45.09,20.08 43.68,24.05 41.9,32.01 C40.37,38.85 39.74,43.2 39.74,43.2 C39.74,43.2 42.96,41.6 46.55,40.66 C49.8,39.81 52.61,39.98 52.61,39.98 C52.61,39.98 52.52,34.77 52.95,31.01 C53.3,27.91 54.06,23.92 54.06,23.92 C54.06,23.92 51.24,23.24 49.53,22.47 C47.82,21.7 45.09,20.08 45.09,20.08 Z" fill="#FFFFFF"/>
</svg>