<svg viewBox="0 0 128 128" xmlns="http://www.w3.org/2000/svg">
  <defs/>
  <path d="M78.7,52.85 L60.22,36.83 L67.08,31.73 C67.08,31.73 86.99,20.58 105.98,34.02 C124.64,47.22 122.88,86.47 108.44,104.42 C94,122.37 83.97,123.43 78.52,123.25 C73.06,123.07 72.18,120.43 66.9,120.96 C61.62,121.49 59.86,124.48 50.18,123.78 C41.4,123.14 34.16,119.73 30.64,115.86 C27.31,112.18 78.7,52.85 78.7,52.85 Z" fill="#6EA517"/>
  <path d="M100.21,34.4 C100.21,34.4 92.28,37.82 84.36,38.44 C76.43,39.06 62.29,37.97 62.29,37.97 C62.29,37.97 60.74,29.73 60.27,29.73 C59.8,29.73 38.99,22.49 23.75,33.93 C7.69,45.98 6.11,69.38 8.67,80.55 C14.56,106.22 33.45,118.31 33.45,118.31 C33.45,118.31 50.32,120.18 71.46,110.86 C92.6,101.54 110.9,85.22 110.47,63.31 C110,39.99 100.21,34.4 100.21,34.4 Z" fill="#87C244"/>
  <path d="M37.7,38.9 C34.99,35.77 27.55,36.47 21.77,44.74 C15.75,53.34 15.48,69.1 20.44,69.53 C24.51,69.88 25.55,62.99 28.05,58.11 C32.75,48.95 43.9,46.07 37.7,38.9 Z" fill="#E5DD9F"/>
  <path d="M44.25,35.36 C43.06,37.84 46.98,43.94 61.62,44.39 C77.02,44.86 82.07,36.28 80.31,34.28 C78.55,32.28 72.79,35.57 61.86,35.46 C50.93,35.35 46.28,31.15 44.25,35.36 Z" fill="#59702C"/>
  <path d="M51.86,18.64 C50.68,18.4 45.87,17.58 45.39,15.7 C45.17,14.81 46.33,11.94 49.39,9.82 C52.45,7.7 55.5,7.12 56.21,8.76 C56.92,10.41 56.68,11.46 56.68,11.82 C56.68,12.17 59.1,15 60.79,18.64 C63.14,23.69 64.43,28.63 64.2,33.69 C64.03,37.35 63.96,42.51 61.85,42.15 C59.65,41.78 60.11,36.62 59.03,32.98 C56.45,24.29 52.57,18.79 51.86,18.64 Z" fill="#513532"/>
  <path d="M82.59,24.36 C82.83,24.01 107.16,8.73 107.27,7.79 C107.38,6.85 94.7,4.61 86.71,7.55 C78.72,10.49 70.44,15.22 66.49,23.42 C63.32,30 63.32,34.47 64.14,35.53 C64.53,36.03 82.59,24.36 82.59,24.36 Z" fill="#2F7C31"/>
  <path d="M79.89,23.42 C90.63,16.56 107.28,7.79 107.28,7.79 C107.28,7.79 107.78,9.1 104.58,14.61 C100.35,21.9 90.47,31.3 80.48,34.24 C69.64,37.43 64.14,35.53 64.14,35.53 C64.14,35.53 71.43,28.83 79.89,23.42 Z" fill="#4C8C19"/>
</svg>