<svg viewBox="0 0 128 128" xmlns="http://www.w3.org/2000/svg">
  <defs>
    <linearGradient id="SVGID_1_" gradientTransform="matrix(1 0 0 -1 0 0)" gradientUnits="userSpaceOnUse" x1="47.1165" x2="47.1165" y1="-32.5969" y2="-73.3412">
      <stop offset="0" stop-color="#A56C43"/>
      <stop offset="1" stop-color="#8D5738"/>
    </linearGradient>
    <linearGradient id="SVGID_2_" gradientTransform="matrix(1 0 0 -1 0 0)" gradientUnits="userSpaceOnUse" x1="46.721" x2="113.15" y1="-96.028" y2="-96.028">
      <stop offset="0" stop-color="#651FFF"/>
      <stop offset="0.7047" stop-color="#5914F2"/>
      <stop offset="1" stop-color="#530EEB"/>
    </linearGradient>
    <linearGradient id="SVGID_9_" gradientTransform="matrix(1 0 0 -1 0 0)" gradientUnits="userSpaceOnUse" x1="21.0165" x2="34.3917" y1="-62.9149" y2="-70.3167">
      <stop offset="0" stop-color="#651FFF"/>
      <stop offset="0.7047" stop-color="#5914F2"/>
      <stop offset="1" stop-color="#530EEB"/>
    </linearGradient>
  </defs>
  <path d="M21.18,42.61 L32.9,40.52 C34.47,40.17 35.47,38.62 35.12,37.05 L35.12,37.05 C34.77,35.48 33.22,34.48 31.65,34.83 L20.04,38.06 C18.47,38.41 17.41,39.44 17.75,41.01 L17.75,41.01 C18.1,42.58 19.61,42.96 21.18,42.61 Z" fill="#875334"/>
  <path d="M89.53,70.79 C84.42,68.38 79.88,64.75 76.39,60.29 L59.64,38.85 C58.63,37.19 57.04,36.04 55.15,35.59 C55.07,35.57 54.99,35.56 54.91,35.54 L54.92,35.47 L20.64,32.48 C19.57,32.39 18.5,32.5 17.47,32.82 L12.15,34.48 C11.45,34.7 10.78,35.01 10.15,35.41 C8.91,36.2 6.68,37.67 5.65,38.57 C5.08,39.07 4.7,39.58 4.7,40.49 C4.7,41.23 5,41.89 5.56,42.35 C6.17,42.86 7.03,43.06 7.91,42.9 C9.02,42.7 10.25,41.63 11.09,40.77 C11.32,40.53 11.62,40.38 11.95,40.34 L17.58,39.6 C18.01,39.54 18.43,39.56 18.83,39.65 C19.58,39.82 20.46,39.97 21.49,40.16 C22.82,40.4 24.48,40.69 26.42,41.12 C28.82,41.65 46.67,47.41 46.84,47.46 C48.05,47.88 49.11,48.69 49.82,49.76 L56.54,59.86 C59.07,63.66 59.04,68.67 56.48,72.33 L56.38,72.47 C53.67,76.38 50.44,83.3 49.19,87.9 C46.5,97.77 48.13,104.19 54.06,106.99 L76.91,117.78 L89.53,70.79 Z" fill="url(#SVGID_1_)"/>
  <path d="M63.04,113.5 L82.78,122.85 L85.12,123.95 L94.36,123.95 L113.15,84.31 L84.8,68.1 C77.1,76.38 59.43,69.66 58.04,68.98 C57.79,69.58 57.43,70.11 57.07,70.73 C68.26,79.71 64.78,87.24 64.78,87.24 C64.75,87.3 61.11,94.71 47.14,91.76 C46.98,92.45 46.84,93.14 46.73,93.81 C48.13,94.47 64.56,102.29 63.04,113.5 Z" fill="url(#SVGID_2_)"/>
  <path d="M61.14,87.92 L61.14,87.92 C63.03,85.07 62.25,81.23 59.4,79.34 L54.99,76.42 L48.16,86.74 L52.57,89.66 C55.41,91.55 59.25,90.77 61.14,87.92 Z" fill="#7A4C32"/>
  <path id="hear" d="M19.95,60.96 C19.95,60.96 20.08,60.75 20.14,60.66 C20.2,60.57 20.34,60.36 20.34,60.36 C28.34,49.78 36.12,51.51 40.86,53.67 C46,56 49.57,58.09 49.57,58.09 C49.57,58.09 49.26,58.15 48.76,58.31 C48.24,58.49 47.81,58.78 47.81,58.78 L51.35,61.97 L40.71,60.49 C40.64,60.48 40.58,60.51 40.55,60.57 L39.29,63.03 C38.02,65.5 36.61,67.9 35.09,70.22 L35.1,70.22 C35.03,70.32 34.97,70.42 34.9,70.52 C34.83,70.62 34.77,70.72 34.7,70.82 L34.69,70.82 C33.15,73.13 31.49,75.36 29.71,77.5 L27.94,79.62 C27.9,79.67 27.89,79.74 27.93,79.8 L33.45,89.02 L29.13,87 C29.13,87 29.02,87.51 29.06,88.06 C29.1,88.58 29.17,88.89 29.17,88.89 C29.17,88.89 25.49,86.54 21.55,82.5 C17.82,78.67 13.5,72.14 19.95,60.96 Z" fill="#6D4C41"/>
  <path id="ears" d="M52.1,58.71 C49.41,56.93 47.33,59.14 47.33,59.14 L46.57,60.29 L30.06,85.22 L29.3,86.37 C29.3,86.37 28.08,89.15 30.77,90.93 C33.14,92.5 35.28,91.3 36.49,89.48 L53,64.54 C54.2,62.72 54.47,60.28 52.1,58.71 Z" fill="#7A4C32"/>
  <path d="M20.71,61.1 C27.83,50.34 38.04,53.05 49.75,60.81 C61.9,68.85 59.87,78.74 56.05,84.51 C52.29,90.19 44.01,96.06 31.78,87.96 C20.06,80.19 13.59,71.86 20.71,61.1 Z" fill="#A56C43"/>
  <path d="M44.07,62.65 L44.07,62.65 C44.07,62.65 42.01,62.6 40.58,64.73 C39.15,66.86 39.98,68.75 39.98,68.75 L39.98,68.75 C40.03,68.89 40.13,69.03 40.27,69.12 C40.62,69.35 41.09,69.26 41.33,68.91 C41.38,68.84 41.45,68.62 41.45,68.6 C41.78,66.97 42.45,65.97 42.45,65.97 C42.45,65.97 43.12,64.98 44.5,64.06 C44.52,64.05 44.69,63.91 44.74,63.84 C44.97,63.49 44.88,63.02 44.53,62.78 C44.38,62.68 44.22,62.64 44.07,62.65 Z" fill="#42312C"/>
  <path d="M35.18,75.91 L35.18,75.91 C35.18,75.91 33.12,75.86 31.69,77.99 C30.26,80.12 31.09,82.01 31.09,82.01 L31.09,82.01 C31.14,82.15 31.24,82.29 31.38,82.38 C31.73,82.61 32.2,82.52 32.44,82.17 C32.49,82.1 32.56,81.88 32.56,81.86 C32.89,80.23 33.56,79.23 33.56,79.23 C33.56,79.23 34.23,78.24 35.61,77.32 C35.63,77.31 35.8,77.17 35.85,77.1 C36.08,76.75 35.99,76.28 35.64,76.04 C35.49,75.94 35.33,75.9 35.18,75.91 Z" fill="#42312C"/>
  <path d="M40.21,76.18 C42.05,77.42 42.51,79.96 40.38,83.11 C38.28,86.22 35.72,86.79 33.88,85.55 C32.04,84.31 31.11,81.63 33.32,78.37 C35.46,75.19 38.37,74.94 40.21,76.18 Z" fill="#01579B"/>
  <path id="SVGID_3_" d="M39.267,77.606 C40.614,78.522 40.714,80.724 39.491,82.523 C38.267,84.322 36.183,85.038 34.835,84.122 C33.488,83.206 33.388,81.004 34.612,79.205 C35.836,77.406 37.92,76.69 39.267,77.606 Z" fill="#B3E5FC"/>
  <path d="M37.403,77.254 L39.969,81.653 C39.842,81.949 39.682,82.241 39.491,82.523 C39.245,82.884 38.965,83.201 38.664,83.47 L35.562,78.152 C36.134,77.674 36.775,77.366 37.403,77.254 Z" fill="#FFFFFF"/>
  <path d="M48.44,64.01 C50.28,65.25 50.74,67.79 48.61,70.94 C46.51,74.05 43.95,74.62 42.11,73.38 C40.27,72.14 39.24,69.51 41.44,66.25 C43.59,63.07 46.6,62.77 48.44,64.01 Z" fill="#01579B"/>
  <path id="SVGID_5_" d="M47.499,65.429 C48.846,66.346 48.946,68.547 47.722,70.346 C46.498,72.146 44.414,72.862 43.067,71.945 C41.72,71.029 41.62,68.828 42.843,67.028 C44.067,65.229 46.151,64.513 47.499,65.429 Z" fill="#B3E5FC"/>
  <path d="M45.635,65.077 L48.201,69.477 C48.074,69.772 47.914,70.064 47.722,70.346 C47.476,70.709 47.195,71.027 46.892,71.297 L43.79,65.978 C44.363,65.499 45.006,65.189 45.635,65.077 Z" fill="#FFFFFF"/>
  <path d="M43.49,73.6 L40.94,77.37 L39.06,76.1 L41.61,72.33 Z" fill="#01579B"/>
  <path d="M48.23,59.86 C49.49,61.36 49.59,63.24 49.19,65.16 L47.31,63.9 C48.02,62.34 47.88,60.57 46.35,58.6 L48.23,59.86 Z" fill="#01579B"/>
  <path d="M29.96,86.91 C31.83,87.51 33.61,86.9 35.24,85.8 L33.36,84.54 C32.18,85.79 30.48,86.32 28.08,85.65 L29.96,86.91 Z" fill="#01579B"/>
  <path d="M18.1,59.1 C18.1,59.1 17.95,59.31 17.89,59.4 C17.83,59.49 17.7,59.7 17.7,59.7 C10.69,71.39 16.28,79.7 20.39,83.15 C24.95,86.98 29.04,88.82 29.04,88.82 C29.04,88.82 28.96,88.5 28.91,87.98 C28.85,87.42 28.95,86.91 28.95,86.91 C28.95,86.91 27.51,81.37 28.23,76.82 C28.97,72.17 34.02,64.61 37.53,62.39 C41.25,60.04 43.4,59.01 47.77,58.76 C47.77,58.76 48.21,58.47 48.75,58.3 C49.26,58.14 49.58,58.09 49.58,58.09 C49.58,58.09 46.18,55.26 40.94,52.41 C36.96,50.25 26.61,47.98 18.1,59.1 Z" fill="url(#SVGID_9_)"/>
  <path id="nose" d="M46.61,76.09 C46.57,76.12 46.53,76.16 46.49,76.2 L44.65,79.1 C44.63,79.15 44.61,79.2 44.6,79.25 C44.54,79.58 44.72,79.9 45.09,79.96 C45.46,80.02 46.64,79.96 47.38,78.79 C48.12,77.63 47.67,76.53 47.46,76.22 C47.25,75.92 46.88,75.89 46.61,76.09 Z" fill="#875334"/>
  <path id="mouth" d="M52.39,78.42 C53.242,79.06 53.076,80.721 52.019,82.13 C50.961,83.539 49.413,84.162 48.561,83.523 C47.708,82.883 47.874,81.222 48.932,79.813 C49.989,78.404 51.537,77.78 52.39,78.42 Z" fill="#473530"/>
  <path id="water_x5F_top" d="M112,81.98 C105.43,81.98 102.07,89.17 96,89.17 C89.94,89.17 86.57,81.98 80,81.98 C73.43,81.98 70.07,89.17 64,89.17 C57.93,89.17 54.57,81.98 48,81.98 C41.43,81.98 38.06,89.17 32,89.17 C25.94,89.17 22.57,81.98 16,81.98 C10.99,81.98 7.84,86.16 3.94,88.14 L3.94,123.96 L123.94,123.96 L123.94,88.08 C120.11,86.08 116.97,81.98 112,81.98 Z" fill="#039BE5"/>
  <path id="water_x5F_bottom" d="M111.97,105.69 C105.4,105.69 102.04,98.5 95.97,98.5 C89.91,98.5 86.54,105.69 79.97,105.69 C73.4,105.69 70.04,98.5 63.97,98.5 C57.9,98.5 54.54,105.69 47.97,105.69 C41.4,105.69 38.03,98.5 31.97,98.5 C25.91,98.5 22.54,105.69 15.97,105.69 C10.97,105.69 7.83,101.53 3.94,99.54 L3.94,123.95 L123.94,123.95 L123.94,99.56 C120.1,101.56 116.95,105.69 111.97,105.69 Z" fill="#29B6F6"/>
</svg>