<svg viewBox="0 0 128 128" xmlns="http://www.w3.org/2000/svg">
  <defs/>
  <path id="SVGID_8_" d="M65.33,114.77 C61.71,114.43 56.28,114.67 50.51,111.1 C36.78,102.62 28.72,82.71 23.09,70.51 C21.95,68.03 22.94,67.6 24.7,68.08 C27.65,68.88 32.8,72.1 33.71,72.72 C57.17,88.61 71.92,103.87 73.65,109.21 C75.49,114.84 67.56,114.98 65.33,114.77 Z" fill="#7CB342"/>
  <path d="M22.623,69.1 C22.451,67.879 23.348,67.711 24.7,68.08 C27.65,68.88 32.8,72.1 33.71,72.72 C57.17,88.61 71.92,103.87 73.65,109.21 C74.892,113.01 71.683,114.309 68.779,114.687 C68.759,114.586 68.127,111.526 65.03,107.19 C57.34,96.418 30.274,71.8 22.623,69.1 Z" fill="#BDCF46"/>
  <path d="M44.34,24.64 C44.94,20.7 51.08,6.17 60.46,5.57 C66.9,5.15 74.44,11.04 76.34,20.13 C78.17,28.9 80.6,38.03 76.42,46.28 C72.94,53.14 65.05,61.24 56.64,56.22 C47.2,50.59 42.51,36.38 44.34,24.64 Z" fill="#EB4E9D"/>
  <path d="M50.52,24.5 C50.9,22.02 54.76,12.9 60.65,12.51 C64.7,12.25 69.44,15.94 70.63,21.67 C71.78,27.19 73.3,32.93 70.68,38.11 C68.49,42.43 63.52,47.52 58.24,44.37 C52.31,40.82 49.38,31.88 50.52,24.5 Z" fill="#F387AB"/>
  <path d="M68.22,111.32 C68.1,111.76 67.94,112.19 67.77,112.61 C67.46,113.39 67.15,114.17 66.82,114.95 C66.54,115.59 66.26,116.38 65.53,116.65 C64.62,117 63.48,116.84 62.57,116.57 C58.79,115.46 60.12,111.92 60.73,109.17 C61.95,103.63 63.11,98.02 63.51,92.36 C63.92,86.52 63.53,80.66 63.53,74.81 C63.53,74.7 63.54,72.32 63.45,72.32 L70.91,72.32 C70.91,73.23 70.91,74.15 70.91,75.06 C70.91,79.3 70.92,83.53 70.83,87.76 C70.64,95.6 70.49,103.71 68.22,111.32 Z" fill="#7CB342"/>
  <path id="SVGID_2_" d="M53.94,118.6 C55.68,113.26 70.42,98 93.88,82.11 C94.79,81.49 99.95,78.26 102.89,77.47 C104.65,76.99 105.65,77.42 104.5,79.9 C98.87,92.1 90.81,112.01 77.08,120.49 C71.31,124.05 65.88,123.82 62.26,124.16 C60.04,124.36 52.11,124.22 53.94,118.6 Z" fill="#7CB342"/>
  <path d="M58.82,124.07 L58.816,124.071 C55.916,123.69 52.705,122.393 53.94,118.6 C55.68,113.26 70.42,98 93.88,82.11 C94.79,81.49 99.95,78.26 102.89,77.47 C104.238,77.102 105.141,77.269 104.972,78.482 C97.314,81.19 70.249,105.8 62.57,116.57 C59.42,120.98 58.82,124.07 58.82,124.07 Z" fill="#BDCF46"/>
  <path d="M75.62,12.39 C78.11,9.84 82.82,5.61 87.72,10.54 C86.12,8.11 84.56,6.49 83.22,5.52 C81.18,4.03 78.95,3.78 76.82,5.21 C67.07,11.75 60.38,29.59 58.72,45.51 C58.67,46 58.62,47.13 58.62,48.69 C59.41,42.61 60.81,37.47 61.27,36.1 C64.5,26.59 70.65,17.49 75.62,12.39 Z" fill="#EA4E9C"/>
  <path d="M96.85,43.02 C95.27,26.19 91.41,16.17 87.71,10.54 C82.81,5.61 78.1,9.84 75.61,12.39 C70.81,17.32 64.9,26.02 61.6,35.2 C56.08,27.27 48.74,18.79 42.31,17.37 C39.96,16.85 37.15,16.34 34.4,20.51 C33.4,22.02 32.36,24.33 31.58,27.53 C30.98,33.4 31.03,40.87 32.27,50.28 C33.4,58.88 35.96,64.02 36.85,65.81 C43.22,78.73 56.44,79.97 58.81,79.97 L58.81,79.97 C70,81.32 77.46,77.9 77.57,77.85 C77.58,77.85 77.58,77.85 77.59,77.85 C79.9,77.32 92.51,73.18 95.85,59.16 C96.3,57.24 97.66,51.65 96.85,43.02 Z" fill="#F387AB"/>
  <path d="M42.31,17.37 C53.05,19.73 66.36,41.83 69.42,48.14 C69.69,48.7 70.4,50.7 71.11,53.44 C70.28,49.06 69.23,45.64 68.89,44.71 C65.82,36.47 54.35,13.16 43.4,8.96 C41,8.04 38.88,8.78 37.23,10.69 C35.04,13.21 32.52,18.44 31.58,27.53 C32.36,24.33 33.4,22.02 34.4,20.51 C37.15,16.34 39.96,16.86 42.31,17.37 Z" fill="#EA4E9C"/>
</svg>