<svg viewBox="0 0 128 128" xmlns="http://www.w3.org/2000/svg">
  <defs/>
  <path d="M63.55,9.17 C79.3,8.65 99.82,29.96 109.42,43 C118.62,55.5 127.49,72.76 123.59,89.94 C119.69,107.12 104.46,114.74 87.81,116.69 C71.16,118.64 33.43,119.17 20.68,112.08 C7.93,105 -0.22,91.89 4.38,71.17 C9.7,47.25 41.94,9.88 63.55,9.17 Z" fill="#CDCBBF"/>
  <path d="M63.83,14.78 C51.18,14.78 29.95,36.47 22.9,46.54 C15.85,56.61 5.92,77.54 14.97,87.75 C24.02,97.96 40.13,92.49 62.84,92.78 C85.55,93.07 97.2,93.5 101.51,92.64 C105.82,91.78 113.87,88.33 116.03,79.13 C118.19,69.93 111.05,51.03 98.4,37.37 C83.62,21.4 73.31,14.78 63.83,14.78 Z" fill="#FFFFFF"/>
  <path d="M42.87,37.66 C42.87,40.28 44.77,40.91 48.81,40.75 C52.85,40.59 54.83,39.66 54.67,37.58 C54.43,34.57 51.9,34.65 48.81,34.65 C45.72,34.65 42.87,34.97 42.87,37.66 Z" fill="#D4D4D4"/>
  <path d="M79.19,43.05 C80.14,45.82 83.23,44.63 86,43.6 C88.77,42.57 90.99,40.6 89.8,38.22 C88.45,35.53 85.93,37.63 83.86,38.54 C81.33,39.65 78.24,40.28 79.19,43.05 Z" fill="#D4D4D4"/>
  <path d="M56.02,28.01 C56.78,29.92 59.33,29.75 61.88,28.64 C65.36,27.14 66.71,25.71 65.68,23.41 C64.65,21.11 61.64,22.46 59.98,23.17 C58.32,23.89 54.91,25.23 56.02,28.01 Z" fill="#D4D4D4"/>
  <path d="M27.26,46.24 C25.95,48.58 28.31,50.67 30.94,52.09 C33.57,53.51 35.62,53.73 36.72,52.09 C38.12,50 36.59,48.48 33.65,46.65 C30.16,44.48 28.08,44.79 27.26,46.24 Z" fill="#D4D4D4"/>
  <path d="M15.08,78.77 C15.29,80.9 16.35,81.7 20.7,81.38 C25.06,81.06 26.28,79.73 26.16,77.82 C26,75.21 23.07,75.21 20.14,75.6 C17.22,75.99 14.84,76.39 15.08,78.77 Z" fill="#D4D4D4"/>
  <path d="M99.11,66.55 C100.81,68.64 103.7,66.07 105.21,64.57 C106.72,63.07 109.29,60.8 107.35,58.71 C105.21,56.41 103.07,58.87 101.41,60.37 C99.74,61.88 97.05,64.01 99.11,66.55 Z" fill="#D4D4D4"/>
  <path d="M96.29,80.6 C96.29,84.01 99.54,83.77 102.07,83.69 C104.6,83.61 107.85,82.82 107.85,80.28 C107.85,77.75 105.47,77.35 101.91,77.75 C98.35,78.15 96.29,78.54 96.29,80.6 Z" fill="#D4D4D4"/>
  <path d="M35.47,59.56 C37.29,59.3 54.49,60.01 63.42,59.62 C72.35,59.23 89.94,59.21 90.98,59.43 C92.94,59.83 92.9,61.35 92.9,63.27 C92.9,65.19 92.89,85.57 92.83,92.14 C92.78,98.19 93.36,115.55 92.5,116.32 C91.64,117.09 86.56,117.9 83.39,118.09 C80.22,118.28 65.9,120.06 42.3,117.99 C39.14,117.71 33.66,116.59 33.37,116.21 C33.08,115.83 33.08,92.26 33.18,85.45 C33.28,78.63 33.27,62.15 33.26,61.48 C33.25,60.04 34.79,59.65 35.47,59.56 Z" fill="#3C3C3C"/>
  <path d="M73.67,80.66 C73.98,81.74 76.68,83.09 78.5,82.97 C80.32,82.84 82.47,82.19 82.97,80.77 C83.23,80.04 82.31,77.76 82.43,77.16 C82.55,76.56 82.44,74.06 80.7,73.31 C78.96,72.56 76.94,75.8 76.16,76.48 C75.37,77.16 74.68,77.05 74.2,77.88 C73.72,78.72 73.32,79.45 73.67,80.66 Z" fill="#858585"/>
  <path d="M47.62,84.99 C48.07,86.66 50.5,87.2 51.27,87.49 C52.04,87.78 53.86,88.45 55.69,88.35 C57.51,88.25 61.35,84.8 61.93,83.55 C62.51,82.3 63.56,79.9 64.91,79.13 C66.25,78.36 74.99,73.85 74.7,71.83 C74.47,70.2 73.55,68.47 70.67,68.28 C67.79,68.09 63.85,69.43 61.45,69.62 C59.05,69.81 54.63,69.91 52.71,71.54 C50.79,73.17 48.49,76.44 47.91,78.26 C47.33,80.1 46.94,82.5 47.62,84.99 Z" fill="#858585"/>
  <path d="M36.45,65.21 C36.71,68.56 36.83,69.79 37.12,74.88 C37.41,79.97 37.22,87.07 37.22,89.76 C37.22,92.45 37.8,102.72 39.72,103.01 C41.64,103.3 44.52,101.67 44.81,98.88 C45.1,96.1 44.81,90.14 44.81,89.18 C44.81,88.22 42.89,84.57 42.99,83.9 C43.09,83.23 41.93,78.62 43.95,75.35 C45.97,72.09 49.42,68.73 50.67,67.96 C51.37,67.53 59.12,65.85 59.12,65.85 C59.12,65.85 63.25,66.14 64.11,63.45 C64.97,60.76 59.83,62.31 57.29,62.49 C54.6,62.68 47.98,62.97 44.71,63.16 C41.43,63.36 36.16,61.47 36.45,65.21 Z" fill="#858585"/>
</svg>