<svg viewBox="0 0 128 128" xmlns="http://www.w3.org/2000/svg">
  <defs/>
  <path d="M35.88,45.15 C30.49,51.24 34.31,59.45 34.31,59.45 L19.57,69.06 C19.57,69.06 17.37,70.06 15.09,73.12 C13.42,75.36 29.53,96.51 29.53,96.51 C29.53,96.51 32.15,96.03 34.29,95.1 C36.49,94.14 39.19,91.64 39.19,91.64 L56.63,109.39 C56.63,109.39 57.93,111.39 60.61,112.01 C64.29,112.87 65.66,111.46 65.66,111.46 L88.4,117.07 C88.4,117.07 89.54,118.35 90.68,119.18 C91.82,120.01 93.68,120.78 93.68,120.78 L112.17,100.87 C112.17,100.87 110.96,99.02 109.9,97.9 C108.28,96.18 106.04,95.06 106.04,95.06 L105.36,73.11 C105.36,73.11 104.01,72.25 100.33,71.6 C96.38,70.9 93.58,69.32 93.58,69.32 L88.08,50.22 L89.84,47.94 C89.84,47.94 93.27,41.61 88.49,40.05 C83.71,38.49 72.09,37.56 72.09,37.56 L69.18,28.11 C69.18,28.11 67.69,29.63 66.65,31.39 C65.61,33.15 64.82,35.38 64.82,35.38 L47.48,40.88 L45.24,40.99 C45.26,40.97 40.52,39.9 35.88,45.15 Z" fill="#4C186E"/>
  <path d="M25.24,55.08 C25.24,55.08 33.1,53.79 32.99,52.85 C32.89,51.92 32.65,41.4 32.8,41.4 C32.9,41.4 37.15,42.6 40.92,43.64 C45.69,44.96 48.08,45.83 48.08,45.83 L50.05,38.87 C50.05,38.87 46.42,37.62 41.33,35.96 C37.24,34.63 32.69,33.35 32.03,32.57 C30.89,31.22 28.02,27.18 27.68,23.55 C27.06,16.8 30.42,13.74 34.99,13.54 C39.45,13.34 41.63,15.93 43.3,16.03 C44.96,16.13 46.61,13.3 45.58,10.22 C43.92,5.24 35.72,2.73 28.76,5.03 C19,8.25 18.07,20.39 19.52,25.69 C21.51,32.95 25.02,37.21 25.02,37.21 L25.24,55.08 Z" fill="#727F37"/>
  <path d="M52.65,33.49 C46,36.71 40.69,49 49.95,57.37 C57.53,64.22 68.01,60.48 71.23,54.98 C74.02,50.21 74.97,42.63 70.81,37.64 C66.65,32.65 59.62,30.11 52.65,33.49 Z" fill="#A363B1"/>
  <path d="M69.19,28.11 C69.19,28.11 71.42,25.68 75.23,24.68 C78.4,23.85 82.92,23.62 87.89,26.98 C93.1,30.5 94.15,36.39 93.48,41.26 C92.78,46.3 89.96,50.65 87.11,51.44 C81.5,53 89.91,49.99 88.46,47.29 C87.01,44.59 78.94,48.82 72.26,40.75 C67.28,34.74 69.19,28.11 69.19,28.11 Z" fill="#A363B1"/>
  <path d="M74.14,60.48 C71.5,68.39 75.28,77.3 84.63,79.37 C93.97,81.45 99.58,75.32 101.86,69.92 C104.14,64.52 102.07,53.83 92.83,51.03 C83.59,48.23 76.42,53.63 74.14,60.48 Z" fill="#A363B1"/>
  <path d="M46.63,73.87 C44.25,81.39 48.5,88.3 53.69,90.9 C60.27,94.19 70.09,91.32 72.79,83.43 C75.28,76.16 73.41,67.86 65.52,64.95 C57.63,62.04 49.22,65.67 46.63,73.87 Z" fill="#A363B1"/>
  <path d="M19.22,60.9 C16.98,67.63 19.22,76.68 28.36,79.38 C37.5,82.08 43.43,76.37 45.39,69.73 C46.95,64.44 46.64,55.82 36.98,52.19 C27.56,48.64 21.19,54.98 19.22,60.9 Z" fill="#A363B1"/>
  <path d="M83.37,82.45 C80.32,83.04 78.67,85.82 77.3,89.08 C74.93,94.68 72.46,96.2 71.54,98.23 C70.36,100.83 73.77,103.05 75.17,103.83 C77.56,105.16 86.72,106.68 90.71,98.78 C95.81,88.66 87.86,81.58 83.37,82.45 Z" fill="#A363B1"/>
  <path d="M100.53,96.66 C100.6,97.75 112.55,97.2 112.4,85.08 C112.28,75.79 105.32,73.08 105.32,73.08 C105.32,73.08 100.76,76.45 100.92,82.22 C101.08,88 102.2,87.13 101.85,91.84 C101.74,93.31 100.5,96.26 100.53,96.66 Z" fill="#A363B1"/>
  <path d="M112.24,100.87 C112.24,100.87 104.22,101.21 99.57,107.54 C95.24,113.44 93.71,120.79 93.71,120.79 C93.71,120.79 104.76,126.59 111.54,119.13 C119.12,110.77 112.24,100.87 112.24,100.87 Z" fill="#A363B1"/>
  <path d="M65.62,107.45 C64.17,108.27 63.28,114.35 66.17,118.95 C67.7,121.38 70.48,123.57 74.58,124.19 C80.19,125.04 84.06,122.81 86.65,120.07 C89.63,116.92 90.64,112.88 89.76,111.32 C88.1,108.4 83.78,112.36 76.44,111.25 C69.1,110.15 68.14,106.03 65.62,107.45 Z" fill="#A363B1"/>
  <path d="M40.54,88.05 C39.24,88.32 34.66,93.33 35.1,99.68 C35.3,102.57 36.05,105.57 39.1,108.7 C43.3,113 49.3,113.48 53.32,112.34 C57,111.29 59.7,108.89 59.78,106.82 C59.87,104.29 59.5,101.72 55.05,99.88 C53.03,99.05 49.69,98.14 46.45,95.46 C41.17,91.08 41.86,87.77 40.54,88.05 Z" fill="#A363B1"/>
  <path d="M15.21,73.06 C15.21,73.06 12.79,75.87 11.99,80.08 C11.44,83 11.25,86.34 13.61,90.15 C19.08,98.99 29.59,96.5 29.59,96.5 C29.59,96.5 34.31,92.78 32.35,88.01 C31.73,86.49 30.39,85.8 27.51,84.65 C22.56,82.67 19.62,79.6 18.12,77.55 C16.63,75.51 15.21,73.06 15.21,73.06 Z" fill="#A363B1"/>
  <path d="M86.78,54.66 C85.29,52.97 80.31,54.42 77.87,60.1 C76.01,64.41 76.29,71.1 80.71,71.85 C85.72,72.7 82.84,65.63 84.89,61.6 C86.22,58.99 88.51,56.64 86.78,54.66 Z" fill="#DABCF3"/>
  <path d="M58.99,67.85 C56.86,65.48 52.52,68.32 50.63,73.21 C47.96,80.1 51.43,83.54 53.08,83.23 C56,82.68 55.76,79.13 57.18,75.58 C58.3,72.8 61.06,70.15 58.99,67.85 Z" fill="#DABCF3"/>
  <path d="M75.02,26.79 C72.82,26.38 72.17,28.93 72.17,30.62 C72.17,32.31 72.52,34.09 74.22,34.18 C75.82,34.27 76.54,32.67 76.8,30.35 C77.03,28.39 76.45,27.06 75.02,26.79 Z" fill="#DABCF3"/>
  <path d="M56.99,35.8 C54.26,34.3 50.03,37.19 49.06,43.72 C48.23,49.35 50.41,53.03 53.5,52.31 C56.98,51.5 56.04,46.35 56.87,43.45 C57.74,40.42 59.49,37.18 56.99,35.8 Z" fill="#DABCF3"/>
  <path d="M28.93,56.18 C25.42,55.38 23.09,58.86 22.54,62.41 C22.1,65.21 22.66,69.16 25.46,69.75 C28.46,70.38 30.9,66.75 31.3,63.83 C31.69,60.91 31.69,56.81 28.93,56.18 Z" fill="#DABCF3"/>
  <path d="M15.9,80.81 C14.17,81.02 13.53,83.89 14.4,86.25 C15.27,88.62 16.29,89.72 18.11,89.25 C20.14,88.72 18.74,85.86 18.19,84.2 C17.63,82.55 17.87,80.58 15.9,80.81 Z" fill="#DABCF3"/>
  <path d="M40.37,94.04 C38.08,94.28 37.12,97.28 37.81,100.65 C38.37,103.36 40.38,106.31 42.9,105.35 C45.49,104.37 43.38,101.28 42.73,98.81 C42.07,96.35 42.49,93.82 40.37,94.04 Z" fill="#DABCF3"/>
  <path d="M84.21,90.19 C82.34,88.77 80.04,90.23 78.44,92.59 C76.84,94.95 76.78,96.93 78.35,98.19 C80.08,99.58 82.69,98.47 84.1,96.23 C85.3,94.32 86.18,91.69 84.21,90.19 Z" fill="#DABCF3"/>
  <path d="M68.48,111.31 C66.53,111.46 65.95,113.35 66.5,115.6 C66.95,117.44 68.39,118.63 69.83,118.04 C71.06,117.53 71.84,115.93 71.11,113.51 C70.57,111.77 69.47,111.23 68.48,111.31 Z" fill="#DABCF3"/>
</svg>