<svg viewBox="0 0 128 128" xmlns="http://www.w3.org/2000/svg">
  <defs>
    <radialGradient id="SVGID_1_" cx="61.437622" cy="-30.560621" gradientTransform="matrix(-0.0195 0.9998 -2.1765 -0.0425 0 0)" gradientUnits="userSpaceOnUse" r="45.7854">
      <stop offset="0.4451" stop-color="#FEEAC9"/>
      <stop offset="0.5647" stop-color="#FEE7C2"/>
      <stop offset="0.7412" stop-color="#FEDEAE"/>
      <stop offset="0.9521" stop-color="#FFCF8D"/>
      <stop offset="1" stop-color="#FFCB85"/>
    </radialGradient>
    <radialGradient id="SVGID_2_" cx="64.7913" cy="42.689618" gradientTransform="matrix(1 0 0 0.6157 0 0)" gradientUnits="userSpaceOnUse" r="39.0237">
      <stop offset="0.0341" stop-color="#FFE265" stop-opacity="0.7"/>
      <stop offset="0.1123" stop-color="#FFE575" stop-opacity="0.6433"/>
      <stop offset="0.4171" stop-color="#FFF0B0" stop-opacity="0.4224"/>
      <stop offset="0.6773" stop-color="#FFF8DB" stop-opacity="0.2339"/>
      <stop offset="0.8799" stop-color="#FFFDF5" stop-opacity="0.0871"/>
      <stop offset="1" stop-color="#FFFFFF" stop-opacity="0"/>
    </radialGradient>
    <radialGradient id="SVGID_3_" cx="64.9086" cy="35.9784" gradientUnits="userSpaceOnUse" r="19.4281">
      <stop offset="0.1702" stop-color="#FF9616"/>
      <stop offset="0.6539" stop-color="#FFD429"/>
    </radialGradient>
    <radialGradient id="SVGID_4_" cx="77.2124" cy="30.8269" gradientUnits="userSpaceOnUse" r="19.0445">
      <stop offset="0.1702" stop-color="#FF9616"/>
      <stop offset="0.6539" stop-color="#FFD429"/>
    </radialGradient>
    <radialGradient id="SVGID_5_" cx="52.8219" cy="30.8216" gradientUnits="userSpaceOnUse" r="18.8526">
      <stop offset="0.1702" stop-color="#FF9616"/>
      <stop offset="0.6539" stop-color="#FFD429"/>
    </radialGradient>
  </defs>
  <path d="M19.65,84.13 C19.65,84.13 17.82,87.51 17.68,89.62 C17.54,91.73 18.95,108.91 22.04,112.71 C25.13,116.51 34.57,126.51 62.44,126.79 C90.31,127.07 104.53,114.4 106.08,111.87 C107.63,109.34 109.6,97.51 109.74,88.22 C109.88,78.93 60.33,85.4 60.33,85.4 L19.65,84.13 Z" fill="#FBB75A"/>
  <path d="M61.88,106.65 C86.66,107.35 109.6,92.15 109.6,92.15 L108.9,99.75 C108.9,99.75 90.04,114.25 62.3,113.55 C34.56,112.85 18.52,99.75 18.52,99.75 L17.82,93.13 C17.82,93.13 40.21,106.03 61.88,106.65 Z" fill="#F2A05B"/>
  <path d="M64.98,47.52 C54.42,47.57 22.61,50.05 19.37,63.57 C16.13,77.09 16.55,89.76 17.12,90.88 C17.68,92.01 18.94,90.06 21.91,91.16 C25.71,92.57 25.43,102.84 32.33,104.67 C39.23,106.5 39.37,97.07 47.25,97.63 C55.13,98.19 51.47,108.76 61.89,108.89 C72.59,109.03 68.62,98.43 76.11,97.49 C83.52,96.55 79.63,108.05 89.91,106.5 C100.19,104.95 99,90.32 104.26,88.77 C108.25,87.6 107.91,91.52 109.8,91.35 C111.35,91.21 110.74,69.76 109.33,64.98 C107.92,60.2 94.68,47.38 64.98,47.52 Z" fill="url(#SVGID_1_)"/>
  <path d="M32.95,77.72 C25.46,74.56 23.04,71.57 21.83,70.05 C20.99,68.99 19.72,68.57 19.01,69.42 C18.31,70.26 18.66,71.18 19.43,72.09 C20.2,73.01 23.65,78.28 32.52,81.17 C40.32,83.71 45.47,84.06 47.44,84.13 C49.63,84.21 50.54,81.46 47.65,81.1 C44.34,80.69 41.12,81.17 32.95,77.72 Z" fill="#FDFFFF"/>
  <path d="M55.45,82.11 C53.53,82.06 52.82,83.14 52.82,83.99 C52.82,85.02 53.71,85.59 55.26,85.68 C56.81,85.77 57.7,84.74 57.7,84.04 C57.71,83.33 57.28,82.15 55.45,82.11 Z" fill="#FDFFFF"/>
  <path d="M25.14,88.78 C24.26,89.64 24.63,90.64 25.05,91.16 C25.74,92.01 26.98,92.15 27.62,91.65 C28.35,91.09 28.26,90.05 27.8,89.36 C27.21,88.46 26.01,87.92 25.14,88.78 Z" fill="#FCE9CA"/>
  <path d="M27.6,92.48 C26.39,93.16 26.93,94.67 27.58,95.91 C28.97,98.55 29.41,100.7 31.01,101.76 C32.63,102.83 34.63,102.09 34.44,100.98 C34.14,99.21 33.05,100.55 32.11,98.31 C31.72,97.38 30.92,95.89 29.99,93.88 C29.45,92.7 28.82,91.79 27.6,92.48 Z" fill="#FCE9CA"/>
  <path d="M55.78,99.61 C54.59,100.46 55.31,102.61 56.81,104.3 C58.31,105.99 60.42,107.35 62.72,106.74 C64.5,106.27 64.36,104.3 63.14,103.74 C61.92,103.18 60.47,103.51 59.15,101.77 C58.51,100.92 57.61,98.3 55.78,99.61 Z" fill="#FCE9CA"/>
  <path d="M84.04,97.76 C82.86,98.63 83.97,100.44 84.7,101.69 C85.43,102.94 87.84,105.34 89.25,103.92 C90.28,102.88 88.34,101.62 87.43,100.26 C86.75,99.23 85.61,96.59 84.04,97.76 Z" fill="#FCE9CA"/>
  <path d="M82.01,94.5 C81.23,95.07 81.35,95.97 81.63,96.47 C82.01,97.13 83.23,97.41 83.93,96.8 C84.61,96.21 84.21,95.25 83.84,94.78 C83.47,94.31 82.53,94.12 82.01,94.5 Z" fill="#FCE9CA"/>
  <path d="M86.4,39.57 C86.4,39.57 78.67,50.23 79.16,52.35 C79.54,54.02 81.34,55.81 85.19,56.07 C89.04,56.33 91.45,54.54 92,52.84 C92.74,50.58 90.33,43.38 89.46,41.95 C88.23,39.92 87.12,39.63 86.4,39.57 Z" fill="#EE5B4A"/>
  <path d="M102.38,49.19 L94.07,60.83 C94.07,60.83 94.32,63.38 96.82,64.48 C99.43,65.62 104.76,65.69 106.29,63.46 C108.03,60.93 107.28,56.58 106.4,53.95 C105.72,51.89 104.28,48.97 102.38,49.19 Z" fill="#EE5B4A"/>
  <path d="M88.31,62.34 L80.27,74.69 C80.27,74.69 80.18,77.75 83.81,78.6 C86.69,79.27 91.98,79.3 93.95,77.61 C95.92,75.92 95.76,72.52 94.06,68.95 C92.2,65.07 89.44,61.42 88.31,62.34 Z" fill="#EE5B4A"/>
  <path d="M68.29,65.37 L57.76,78.11 C57.76,78.11 57.55,80.57 60.15,81.77 C63.49,83.32 68.63,83.24 71.24,81.84 C73.53,80.61 73.88,76.71 73.05,74.27 C72.37,72.28 71.43,70.59 71.08,69.67 C70.73,68.76 69.55,65.93 68.29,65.37 Z" fill="#EE5B4A"/>
  <path d="M45.62,61.07 L36.65,75.08 C36.65,75.08 36.93,78.35 40.35,79.02 C43.3,79.6 48.16,79.94 49.85,77.82 C51.54,75.7 51.61,70.32 49.99,66.52 C48.37,62.73 46.96,61.57 45.62,61.07 Z" fill="#EE5B4A"/>
  <path d="M32,47.86 L30.8,47.43 L22.8,60.07 C22.8,60.07 22.57,62.3 24.43,63.49 C26.19,64.62 31.79,65.18 34.81,63.7 C37.84,62.22 37.62,57.26 35.51,53 C33.56,49.05 32,47.86 32,47.86 Z" fill="#EE5B4A"/>
  <path d="M46.68,38.53 L38.91,51.94 C38.91,51.94 39.25,53.68 41.93,54.44 C44.56,55.19 48,55.05 49.76,53.69 C51.53,52.33 52,49.34 51.19,45.87 C50.64,43.5 48.51,39.21 46.68,38.53 Z" fill="#EE5B4A"/>
  <path d="M39.01,65.96 C37.34,69.56 35,74.9 37.67,76.66 C40.34,78.42 44.29,75.6 45.69,70.32 C47.09,65.04 47.31,62.4 45.97,61.27 C44.64,60.16 41.19,61.25 39.01,65.96 Z" fill="#FD6F42"/>
  <path d="M29.95,47.02 C28.05,47.14 25.87,50.08 24.78,52.97 C23.69,55.86 22.42,59.45 22.88,60.61 C23.34,61.77 26.47,63.18 27.81,60.72 C29.15,58.26 28.88,54.97 29.18,53.29 C29.71,50.33 32,47.87 32,47.87 C32,47.87 31.22,46.94 29.95,47.02 Z" fill="#FD6F42"/>
  <path d="M45.01,37.95 C43.65,38.03 42.36,38.6 41.2,42.4 C40.57,44.48 38.79,46.89 38.62,49.16 C38.45,51.44 38.96,52.03 38.96,52.03 C38.96,52.03 42.22,52.66 43.49,50.12 C44.71,47.69 44.33,45.21 44.74,44.06 C45.15,42.9 47.02,38.69 47.02,38.69 C47.02,38.69 46.2,37.89 45.01,37.95 Z" fill="#FD6F42"/>
  <path d="M86.07,39.5 C84.64,39.43 82.55,41.2 81.22,44.36 C79.88,47.52 79.07,50.95 79.13,51.96 C79.19,52.97 84.47,53.09 86.33,50.04 C87.5,48.12 87.44,42.97 87.31,41.73 C87.19,40.48 87.56,39.57 86.07,39.5 Z" fill="#FF6E45"/>
  <path d="M101.94,49.15 C100.71,49.35 97.81,50.06 95.47,55.11 C94.01,58.26 93.57,61.29 94.63,61.73 C95.69,62.17 98.58,62.61 99.9,60.96 C101.22,59.31 102.68,54.82 103.01,52.58 C103.33,50.36 103.55,48.89 101.94,49.15 Z" fill="#FF6E45"/>
  <path d="M80.57,75.54 C82.15,76.98 85.16,75.62 86.24,74.34 C87.89,72.37 89.27,68.25 89.34,65.37 C89.39,63.28 89.87,62.1 88.04,62.2 C87.41,62.24 85.68,62.55 83.68,65.51 C82.09,67.85 81.18,69.7 80.65,71.99 C80.2,73.89 80.11,75.12 80.57,75.54 Z" fill="#FF6E45"/>
  <path d="M66.21,64.66 C65.19,64.62 63.25,65.22 61.25,68.53 C59.24,71.84 56.96,77.19 57.94,78.84 C58.93,80.49 61.35,80.67 63.82,79.65 C66.28,78.63 67.97,75.07 68.11,73.63 C68.25,72.19 69.2,66.03 68.39,65.43 C67.58,64.84 67.09,64.7 66.21,64.66 Z" fill="#FF6E45"/>
  <path d="M104.3,26.03 C104.3,39.96 82.04,52.31 64.69,52.31 C47.34,52.31 25.27,39.21 25.27,25.28 C25.27,11.35 47.03,0.26 64.37,0.26 C81.71,0.26 104.3,12.1 104.3,26.03 Z" fill="url(#SVGID_2_)"/>
  <path d="M72.79,31.12 C73.14,30.63 79.73,31.18 80.32,31.33 C80.6,31.4 80.53,56.53 80.18,56.74 C79.88,56.92 78.7,58.01 76.45,58.01 C74.2,58.01 72.93,57.24 72.51,56.95 C72.09,56.67 72.44,31.61 72.79,31.12 Z" fill="#FEA8A8"/>
  <path d="M60.69,37.32 C60.42,37.55 60.34,61.82 60.55,62.03 C60.76,62.24 62.17,63.51 64.91,63.44 C67.66,63.37 68.92,62.38 69.13,62.17 C69.34,61.96 69.27,37.32 69.06,37.18 C68.85,37.03 61.11,36.96 60.69,37.32 Z" fill="#EC7FAE"/>
  <path d="M48.86,32.11 C48.52,32.31 48.51,56.96 48.65,57.17 C48.79,57.38 50.83,58.09 52.73,58.09 C54.63,58.09 56.46,57.67 56.67,57.46 C56.88,57.25 56.74,32.4 56.53,32.12 C56.32,31.84 49.21,31.9 48.86,32.11 Z" fill="#93C7EE"/>
  <path d="M64.98,15 C65.4,15 65.97,18.31 66.74,20.21 C67.51,22.11 70.4,26.83 69.27,30.91 C68.04,35.38 61.07,36.25 59.56,30.42 C58.5,26.34 62.09,22.11 63.01,20.21 C63.64,18.9 64.69,15 64.98,15 Z" fill="url(#SVGID_3_)"/>
  <path d="M76.31,9.86 C76.31,9.86 75.27,14.6 73.99,16.62 C72.16,19.51 71,23.46 72.44,26.69 C74.27,30.77 81.6,30.56 81.73,23.59 C81.8,19.93 80.2,17.99 79.06,15.92 C78.28,14.51 76.8,10 76.31,9.86 Z" fill="url(#SVGID_4_)"/>
  <path d="M53.01,10.64 C53.01,10.64 51.11,15.36 49.91,17.12 C48.71,18.88 46.58,23.03 47.8,26.34 C49.28,30.35 55.83,30.83 57.09,25.57 C57.93,22.05 56.1,19.38 54.84,16.49 C54.05,14.67 53.01,10.64 53.01,10.64 Z" fill="url(#SVGID_5_)"/>
</svg>