<svg viewBox="0 0 128 128" xmlns="http://www.w3.org/2000/svg">
  <defs>
    <radialGradient id="SVGID_1_" cx="-64.156607" cy="60.685823" gradientTransform="matrix(0.0156 -0.9999 1.1028 0.0172 0 0)" gradientUnits="userSpaceOnUse" r="70.091">
      <stop offset="0.1637" stop-color="#EE5416"/>
      <stop offset="0.2337" stop-color="#E95216"/>
      <stop offset="0.3112" stop-color="#DC4D17"/>
      <stop offset="0.3923" stop-color="#C64418"/>
      <stop offset="0.4755" stop-color="#A7391A"/>
      <stop offset="0.4969" stop-color="#9E351B"/>
      <stop offset="0.5763" stop-color="#8D311B"/>
      <stop offset="0.734" stop-color="#60281A"/>
      <stop offset="0.9508" stop-color="#191919"/>
    </radialGradient>
    <radialGradient id="SVGID_2_" cx="66.1051" cy="69.1262" gradientUnits="userSpaceOnUse" r="35.7239">
      <stop offset="0.4147" stop-color="#F3A05C"/>
      <stop offset="0.9987" stop-color="#AB5931"/>
    </radialGradient>
  </defs>
  <path d="M116.69,124.19 L11.38,124.19 C7.23,124.19 3.86,120.82 3.86,116.67 L3.86,11.37 C3.86,7.22 7.23,3.85 11.38,3.85 L116.68,3.85 C120.83,3.85 124.2,7.22 124.2,11.37 L124.2,116.67 C124.21,120.83 120.84,124.19 116.69,124.19 Z" fill="url(#SVGID_1_)"/>
  <path d="M61.57,76.36 L61.29,124.2 L68.26,124.19 L69.29,73.48 L65.2,69.85 Z" fill="url(#SVGID_2_)"/>
  <path d="M69.2,58.22 L90.7,27.66 L95.13,28.04 L75.33,58.64 C75.33,58.64 96.35,41.42 97.48,40.67 C98.61,39.92 99.27,40.1 99.84,40.67 C100.41,41.24 100.12,42.08 99.09,42.93 C98.06,43.78 73.91,62.8 73.91,62.8 L106.82,54.23 L110.87,55.27 L106.63,57.72 L74.32,66.07 L110.4,70.45 C110.4,70.45 112.47,70.92 112.19,72.71 C111.91,74.5 110.4,74.31 109.55,74.31 C108.7,74.31 75.94,71.14 75.94,71.14 C75.94,71.14 97.39,84.68 98.43,85.34 C99.47,86 100.03,87.32 99.47,88.26 C98.9,89.2 97.68,89.01 96.36,88.45 C95.04,87.89 74.21,74.8 74.21,74.8 L98.33,109.28 L97.76,113.9 C97.76,113.9 96.44,112.86 95.4,111.45 C94.36,110.04 67.27,74.69 65.76,74.6 C64.25,74.51 35.92,102.4 35.92,102.4 L29.89,102.78 L32.91,97.78 L55.6,73.48 C55.6,73.48 18.4,86.76 16.7,87.13 C15,87.51 13.12,88.54 12.46,86.75 C11.8,84.96 13.87,84.39 15.29,83.92 C16.71,83.45 53.98,69.81 53.98,69.81 L28.02,67.89 L26.13,64.21 L53.27,66.55 L18.12,46.32 L24.44,44.53 L55.1,60.36 C55.1,60.36 28.96,31.42 28.11,30.48 C27.26,29.54 26.54,28.28 27.64,27.28 C28.77,26.24 30.37,27.66 31.03,28.51 C31.69,29.36 59.85,59.5 59.57,58.84 C59.29,58.18 44.98,20.97 44.98,20.97 L46.3,18.61 L49.79,21.34 L64.14,57.88 L65.25,20.68 L69.21,23.23 L69.2,58.22 Z" fill="#FFFFFF"/>
  <path d="M46.05,14.31 C46.05,14.31 50.96,9.42 51.72,8.84 C52.8,8.03 54.22,8.64 53.41,10.26 C52.6,11.88 49.02,17.28 49.02,17.28 C49.02,17.28 57.36,23.66 58.13,24.23 C59.21,25.04 58.26,26.59 57.19,26.05 C56.11,25.51 47.13,20.38 47.13,20.38 C47.13,20.38 43.72,32.63 43.35,33.47 C42.61,35.16 41.26,35.02 41.12,33.34 C40.99,31.77 42.06,20.11 42.06,20.11 C42.06,20.11 30.92,19.03 28.83,18.76 C26.74,18.49 26.74,16.34 29.3,16.4 C32.13,16.47 41.65,16.47 41.65,16.47 C41.65,16.47 40.71,11.21 40.44,9.38 C40.17,7.56 41.6,7.17 42.4,8.5 C43.21,9.85 46.05,14.31 46.05,14.31 Z" fill="#FFE268"/>
  <path d="M65.42,22.81 C64.41,22.34 57.66,15.99 57.05,15.25 C56.44,14.51 56.97,13.04 58.53,13.9 C60.17,14.8 64.41,17.2 64.41,17.2 C64.41,17.2 64.81,11.27 64.95,9.99 C65.15,8.03 66.43,8.17 66.84,9.99 C67.25,11.81 68.04,16.94 68.04,16.94 C68.04,16.94 78.29,10.09 79.25,9.45 C80.67,8.51 81.95,9.58 80.46,11.27 C78.98,12.96 69.81,21.15 70.02,21.28 C70.22,21.41 75.06,23.79 76.14,24.5 C77.89,25.65 77.29,27.13 75.26,26.46 C73.24,25.79 68.84,23.84 68.03,23.57 C67.23,23.3 65.42,22.81 65.42,22.81 Z" fill="#FFE268"/>
  <path d="M93.63,29.36 C93.36,29.29 84.45,27.34 83.57,26.93 C82.69,26.53 82.76,25.11 84.24,25.51 C85.72,25.91 90.58,26.72 90.58,26.72 C90.58,26.72 86.13,17.2 85.59,15.92 C85.05,14.64 85.99,13.96 86.94,14.84 C87.88,15.72 91.87,20.31 91.87,20.31 C91.87,20.31 92.34,14.71 92.68,13.09 C93.02,11.47 94.43,11.88 94.77,13.22 C95,14.16 96.09,21.57 96.09,21.57 C96.09,21.57 106.91,17.66 108.33,17.2 C110.22,16.59 110.83,17.74 109.21,18.89 C107.59,20.04 98.68,24.9 98.88,25.17 C99.08,25.44 104.28,26.72 105.56,27.13 C106.84,27.53 106.98,29.02 105.22,29.15 C103.48,29.29 93.63,29.36 93.63,29.36 Z" fill="#FFE268"/>
  <path d="M109.55,52.44 C109.68,52.51 113.87,43.94 114.75,42.72 C115.63,41.51 116.5,42.38 116.44,43.33 C116.37,44.27 113.81,53.05 113.81,53.05 C113.81,53.05 118.67,53.18 120.15,53.32 C121.63,53.45 121.9,54.67 120.22,55.14 C118.53,55.61 113.88,56.83 113.88,56.83 C113.88,56.83 116.17,60.47 117.32,62.36 C118.1,63.64 117.19,64.86 115.84,63.84 C114.49,62.83 110.37,57.9 110.37,57.9 C110.37,57.9 104.97,65.19 103.96,66.4 C102.95,67.61 101.27,67.04 102.35,65.15 C103.16,63.73 108.29,55.4 108.29,55.4 C108.29,55.4 97.61,51.97 96.49,51.55 C94.87,50.94 95.12,49.4 97.01,49.74 C98.89,50.08 109.42,52.37 109.55,52.44 Z" fill="#FFE268"/>
  <path d="M110.96,72.74 C110.96,72.74 107.51,67.64 107.13,66.82 C106.66,65.81 107.2,65 108.48,65.74 C109.76,66.48 113.68,69.45 113.68,69.45 C113.68,69.45 114.56,68.3 115.57,67.22 C116.58,66.14 117.51,66.41 117,68.1 C116.59,69.48 116,71.42 116,71.42 C116,71.42 119.02,72.33 120.1,72.73 C121.02,73.08 121.45,73.96 119.83,74.43 C119.03,74.66 116.12,75.1 116.12,75.1 C116.12,75.1 118.48,80.43 118.95,81.51 C119.62,83.06 117.8,84.14 116.86,82.32 C116.22,81.09 113.69,76.58 113.69,76.58 C113.69,76.58 107.79,82.77 106.81,83.6 C105.53,84.68 104.52,84.48 105.06,82.79 C105.6,81.1 110.96,72.74 110.96,72.74 Z" fill="#FFE268"/>
  <path d="M96.53,110.82 C96.53,110.82 101.02,93.7 101.42,92.26 C101.96,90.3 103.95,90.37 103.82,92.32 C103.68,94.34 101.59,110.73 101.59,110.73 C101.59,110.73 110.16,109.1 111.85,108.63 C113.54,108.16 114.89,108.92 113,110.14 C111.11,111.35 102.54,116.15 102.54,116.15 C102.54,116.15 103.28,118.85 103.89,120.74 C104.4,122.33 103.71,122.8 102.22,121.72 C101.17,120.96 98.65,118.78 98.65,118.78 C98.65,118.78 96.8,121.57 96.02,122.3 C95.18,123.09 94.3,123.37 94.51,121.62 C94.65,120.4 95.44,116.52 95.44,116.52 C95.45,116.58 83.8,114.29 82.04,113.84 C80.4,113.42 80.06,112.71 81.75,112.64 C83.44,112.57 96.53,110.82 96.53,110.82 Z" fill="#FFE268"/>
  <path d="M33.29,100.97 C33.29,100.97 33.14,93.15 33.02,91.18 C32.89,89.02 31.33,88.75 30.66,90.84 C30.07,92.68 28.43,98.87 28.43,98.87 C28.43,98.87 21.41,92.26 20.33,91.24 C19.25,90.22 18.04,91.24 18.64,92.45 C19.25,93.66 24.46,104.33 24.46,104.33 C24.46,104.33 19.38,111.49 18.44,113.38 C17.5,115.27 18.78,115.81 20.19,115.27 C21.6,114.73 28.28,110.16 28.28,110.16 C28.28,110.16 35.57,117.77 36.45,118.51 C37.33,119.25 38.61,118.71 38.14,117.16 C37.65,115.57 33.53,106.83 33.53,106.83 C33.53,106.83 44.35,103.59 45.84,103.12 C47.32,102.65 46.92,100.83 45.23,100.89 C43.54,100.95 33.29,100.97 33.29,100.97 Z" fill="#FFE268"/>
  <path d="M26.54,62.43 C26.54,62.43 32.21,59.66 33.22,59.12 C34.23,58.58 35.24,59.73 34.23,60.74 C33.22,61.75 29.17,65.53 29.17,65.53 C29.17,65.53 33.08,69.44 34.03,70.25 C34.97,71.06 34.57,72.34 32.95,71.94 C31.33,71.54 26.54,69.04 26.54,69.04 C26.54,69.04 24.24,73.6 23.77,74.3 C23.1,75.31 21.81,75.11 21.75,73.63 C21.68,72.15 21.87,67.95 21.87,67.95 C21.87,67.95 15.02,66.56 11.69,65.66 C10.45,65.33 10.14,63.91 11.96,63.7 C13.78,63.49 22.15,63.03 22.15,63.03 C22.15,63.03 22.63,58.06 22.76,57.02 C22.89,55.94 23.91,55.74 24.51,56.89 C25.12,58.04 26.54,62.43 26.54,62.43 Z" fill="#FFE268"/>
  <path d="M21.55,46.91 C21.55,46.91 21.55,54.27 21.62,55.14 C21.69,56.02 20.41,56.62 19.93,55.27 C19.46,53.92 17.23,47.56 17.23,47.56 C17.23,47.56 12.64,52.03 11.63,52.91 C10.62,53.79 9.2,53.25 9.88,51.83 C10.55,50.41 13.82,44.65 13.82,44.65 C13.82,44.65 8.67,40.49 7.52,39.48 C5.82,38 6.7,36.78 8.18,37.25 C9.66,37.72 16.15,40.31 16.15,40.31 C16.15,40.31 19.88,33.28 20.26,32.52 C21.07,30.9 22.08,31.31 22.01,33.06 C21.94,34.81 21.07,41.36 21.07,41.36 C21.07,41.36 28.01,40.23 29.44,40.01 C31.6,39.67 31.8,40.55 30.25,41.83 C28.7,43.13 21.55,46.91 21.55,46.91 Z" fill="#FFE268"/>
</svg>