<svg viewBox="0 0 128 128" xmlns="http://www.w3.org/2000/svg">
  <defs>
    <radialGradient id="SVGID_1_" cx="63.9755" cy="60.6032" gradientUnits="userSpaceOnUse" r="82.4653">
      <stop offset="0.2853" stop-color="#004FA3"/>
      <stop offset="0.3934" stop-color="#014D9E"/>
      <stop offset="0.5242" stop-color="#04468F"/>
      <stop offset="0.6669" stop-color="#083B77"/>
      <stop offset="0.8179" stop-color="#0F2B54"/>
      <stop offset="0.9741" stop-color="#171729"/>
      <stop offset="0.9771" stop-color="#171728"/>
    </radialGradient>
    <radialGradient id="SVGID_2_" cx="67.0849" cy="54.8784" gradientUnits="userSpaceOnUse" r="11.6103">
      <stop offset="0" stop-color="#FEB1DA"/>
      <stop offset="0.4468" stop-color="#F086D2"/>
      <stop offset="0.9933" stop-color="#DD4CC8"/>
    </radialGradient>
    <radialGradient id="SVGID_3_" cx="71.389" cy="57.6102" gradientUnits="userSpaceOnUse" r="12.7987">
      <stop offset="0" stop-color="#FEB1DA"/>
      <stop offset="0.4468" stop-color="#F086D2"/>
      <stop offset="0.9933" stop-color="#DD4CC8"/>
    </radialGradient>
    <radialGradient id="SVGID_4_" cx="72.8877" cy="61.4806" gradientUnits="userSpaceOnUse" r="10.7231">
      <stop offset="0" stop-color="#FEB1DA"/>
      <stop offset="0.4468" stop-color="#F086D2"/>
      <stop offset="0.9933" stop-color="#DD4CC8"/>
    </radialGradient>
    <radialGradient id="SVGID_5_" cx="73.852" cy="66.3827" gradientUnits="userSpaceOnUse" r="7.7378">
      <stop offset="0" stop-color="#FEB1DA"/>
      <stop offset="0.4468" stop-color="#F086D2"/>
      <stop offset="0.9933" stop-color="#DD4CC8"/>
    </radialGradient>
    <radialGradient id="SVGID_6_" cx="68.5287" cy="66.3676" gradientUnits="userSpaceOnUse" r="18.4298">
      <stop offset="0" stop-color="#FEB1DA"/>
      <stop offset="0.4468" stop-color="#F086D2"/>
      <stop offset="0.9933" stop-color="#DD4CC8"/>
    </radialGradient>
    <radialGradient id="SVGID_7_" cx="62.9741" cy="69.7987" gradientUnits="userSpaceOnUse" r="13.978">
      <stop offset="0" stop-color="#FEB1DA"/>
      <stop offset="0.4468" stop-color="#F086D2"/>
      <stop offset="0.9933" stop-color="#DD4CC8"/>
    </radialGradient>
    <radialGradient id="SVGID_8_" cx="57.6013" cy="65.4542" gradientUnits="userSpaceOnUse" r="16.2341">
      <stop offset="0" stop-color="#FEB1DA"/>
      <stop offset="0.4468" stop-color="#F086D2"/>
      <stop offset="0.9933" stop-color="#DD4CC8"/>
    </radialGradient>
    <radialGradient id="SVGID_9_" cx="53.3662" cy="64.4229" gradientUnits="userSpaceOnUse" r="9.3035">
      <stop offset="0" stop-color="#FEB1DA"/>
      <stop offset="0.4468" stop-color="#F086D2"/>
      <stop offset="0.9933" stop-color="#DD4CC8"/>
    </radialGradient>
    <radialGradient id="SVGID_10_" cx="54.647" cy="61.4282" gradientUnits="userSpaceOnUse" r="12.5523">
      <stop offset="0" stop-color="#FEB1DA"/>
      <stop offset="0.4468" stop-color="#F086D2"/>
      <stop offset="0.9933" stop-color="#DD4CC8"/>
    </radialGradient>
    <radialGradient id="SVGID_11_" cx="57.1655" cy="54.4267" gradientUnits="userSpaceOnUse" r="10.8471">
      <stop offset="0" stop-color="#FEB1DA"/>
      <stop offset="0.4468" stop-color="#F086D2"/>
      <stop offset="0.9933" stop-color="#DD4CC8"/>
    </radialGradient>
    <radialGradient id="SVGID_12_" cx="63.0393" cy="53.3774" gradientUnits="userSpaceOnUse" r="9.9087">
      <stop offset="0" stop-color="#FEB1DA"/>
      <stop offset="0.4468" stop-color="#F086D2"/>
      <stop offset="0.9933" stop-color="#DD4CC8"/>
    </radialGradient>
    <radialGradient id="SVGID_13_" cx="90.8943" cy="46.0829" gradientUnits="userSpaceOnUse" r="23.9382">
      <stop offset="0.2226" stop-color="#FF7E8A"/>
      <stop offset="0.337" stop-color="#FF8290"/>
      <stop offset="0.4831" stop-color="#FF8E9F"/>
      <stop offset="0.6098" stop-color="#FF9CB3"/>
      <stop offset="0.6939" stop-color="#FFA6A8"/>
      <stop offset="0.8399" stop-color="#FEC08C"/>
      <stop offset="1" stop-color="#FDE366"/>
    </radialGradient>
    <radialGradient id="SVGID_14_" cx="95.8726" cy="54.2327" gradientUnits="userSpaceOnUse" r="11.1667">
      <stop offset="0.3963" stop-color="#FF7E8A"/>
      <stop offset="0.5747" stop-color="#FF8290"/>
      <stop offset="0.8025" stop-color="#FF8E9F"/>
      <stop offset="1" stop-color="#FF9CB3"/>
    </radialGradient>
    <radialGradient id="SVGID_15_" cx="93.3605" cy="60.6076" gradientUnits="userSpaceOnUse" r="23.0563">
      <stop offset="0.3092" stop-color="#FF7E8A"/>
      <stop offset="0.3967" stop-color="#FF8290"/>
      <stop offset="0.5083" stop-color="#FF8E9F"/>
      <stop offset="0.6051" stop-color="#FF9CB3"/>
      <stop offset="0.6902" stop-color="#FFA6A8"/>
      <stop offset="0.8379" stop-color="#FEC08C"/>
      <stop offset="1" stop-color="#FDE366"/>
    </radialGradient>
    <radialGradient id="SVGID_16_" cx="100.0983" cy="68.9212" gradientUnits="userSpaceOnUse" r="24.5708">
      <stop offset="0.3163" stop-color="#FF7E8A"/>
      <stop offset="0.4051" stop-color="#FF8290"/>
      <stop offset="0.5184" stop-color="#FF8E9F"/>
      <stop offset="0.6167" stop-color="#FF9CB3"/>
      <stop offset="0.6994" stop-color="#FFA6A8"/>
      <stop offset="0.8427" stop-color="#FEC08C"/>
      <stop offset="1" stop-color="#FDE366"/>
    </radialGradient>
    <radialGradient id="SVGID_17_" cx="101.791" cy="79.358" gradientUnits="userSpaceOnUse" r="18.7138">
      <stop offset="0.1779" stop-color="#FF7E8A"/>
      <stop offset="0.2857" stop-color="#FF8290"/>
      <stop offset="0.4234" stop-color="#FF8E9F"/>
      <stop offset="0.5427" stop-color="#FF9CB3"/>
      <stop offset="0.6113" stop-color="#FFA6A8"/>
      <stop offset="0.7303" stop-color="#FEC08C"/>
      <stop offset="0.8609" stop-color="#FDE366"/>
    </radialGradient>
    <radialGradient id="SVGID_18_" cx="91.8951" cy="79.9984" gradientUnits="userSpaceOnUse" r="34.3405">
      <stop offset="0" stop-color="#FF7E8A"/>
      <stop offset="0.1583" stop-color="#FF8290"/>
      <stop offset="0.3605" stop-color="#FF8E9F"/>
      <stop offset="0.5357" stop-color="#FF9CB3"/>
      <stop offset="0.62" stop-color="#FFA6A8"/>
      <stop offset="0.7676" stop-color="#FEC18B"/>
      <stop offset="0.9216" stop-color="#FDE366"/>
    </radialGradient>
    <radialGradient id="SVGID_19_" cx="81.0899" cy="78.864" gradientUnits="userSpaceOnUse" r="30.7498">
      <stop offset="0.3036" stop-color="#FF7E8A"/>
      <stop offset="0.3481" stop-color="#FF818E"/>
      <stop offset="0.7559" stop-color="#FF9CB3"/>
      <stop offset="0.8042" stop-color="#FFA3AC"/>
      <stop offset="0.8758" stop-color="#FEB598"/>
      <stop offset="0.9613" stop-color="#FDD377"/>
      <stop offset="1" stop-color="#FDE366"/>
    </radialGradient>
    <radialGradient id="SVGID_20_" cx="75.0033" cy="98.1307" gradientUnits="userSpaceOnUse" r="18.0503">
      <stop offset="0.1263" stop-color="#FF7E8A"/>
      <stop offset="0.3019" stop-color="#FF8A9B"/>
      <stop offset="0.5983" stop-color="#FF9CB3"/>
      <stop offset="0.7306" stop-color="#FF9EB0"/>
      <stop offset="0.8112" stop-color="#FFA6A8"/>
      <stop offset="0.8781" stop-color="#FEB39A"/>
      <stop offset="0.9374" stop-color="#FEC685"/>
      <stop offset="0.9912" stop-color="#FDDE6B"/>
      <stop offset="1" stop-color="#FDE366"/>
    </radialGradient>
    <radialGradient id="SVGID_21_" cx="59.5563" cy="92.9279" gradientUnits="userSpaceOnUse" r="17.5753">
      <stop offset="0.1263" stop-color="#FF7E8A"/>
      <stop offset="0.3019" stop-color="#FF8A9B"/>
      <stop offset="0.5983" stop-color="#FF9CB3"/>
      <stop offset="0.7306" stop-color="#FF9EB0"/>
      <stop offset="0.8112" stop-color="#FFA6A8"/>
      <stop offset="0.8781" stop-color="#FEB39A"/>
      <stop offset="0.9374" stop-color="#FEC685"/>
      <stop offset="0.9912" stop-color="#FDDE6B"/>
      <stop offset="1" stop-color="#FDE366"/>
    </radialGradient>
    <radialGradient id="SVGID_22_" cx="48.0652" cy="90.288" gradientUnits="userSpaceOnUse" r="23.6267">
      <stop offset="0.3178" stop-color="#FF7E8A"/>
      <stop offset="0.53" stop-color="#FF93A7"/>
      <stop offset="0.612" stop-color="#FF9CB3"/>
      <stop offset="0.6986" stop-color="#FFAAA4"/>
      <stop offset="0.8656" stop-color="#FECF7B"/>
      <stop offset="0.9445" stop-color="#FDE366"/>
    </radialGradient>
    <radialGradient id="SVGID_23_" cx="37.6942" cy="85.5718" gradientUnits="userSpaceOnUse" r="22.9958">
      <stop offset="0.3963" stop-color="#FF7E8A"/>
      <stop offset="0.4847" stop-color="#FF8290"/>
      <stop offset="0.5976" stop-color="#FF8E9F"/>
      <stop offset="0.6955" stop-color="#FF9CB3"/>
      <stop offset="0.7443" stop-color="#FFA6A8"/>
      <stop offset="0.8288" stop-color="#FEC08C"/>
      <stop offset="0.9216" stop-color="#FDE366"/>
    </radialGradient>
    <radialGradient id="SVGID_24_" cx="34.0368" cy="81.3148" gradientUnits="userSpaceOnUse" r="18.7418">
      <stop offset="0.2334" stop-color="#FF7E8A"/>
      <stop offset="0.3691" stop-color="#FF8A9B"/>
      <stop offset="0.5983" stop-color="#FF9CB3"/>
      <stop offset="0.7306" stop-color="#FF9EB0"/>
      <stop offset="0.8112" stop-color="#FFA6A8"/>
      <stop offset="0.8781" stop-color="#FEB39A"/>
      <stop offset="0.9374" stop-color="#FEC685"/>
      <stop offset="0.9912" stop-color="#FDDE6B"/>
      <stop offset="1" stop-color="#FDE366"/>
    </radialGradient>
    <radialGradient id="SVGID_25_" cx="32.4386" cy="71.202" gradientUnits="userSpaceOnUse" r="29.4267">
      <stop offset="0.3496" stop-color="#FF7E8A"/>
      <stop offset="0.4302" stop-color="#FF8290"/>
      <stop offset="0.5332" stop-color="#FF8E9F"/>
      <stop offset="0.6224" stop-color="#FF9CB3"/>
      <stop offset="0.6869" stop-color="#FFA6A8"/>
      <stop offset="0.7988" stop-color="#FEC08C"/>
      <stop offset="0.9216" stop-color="#FDE366"/>
    </radialGradient>
    <radialGradient id="SVGID_26_" cx="29.0686" cy="63.7595" gradientUnits="userSpaceOnUse" r="28.9573">
      <stop offset="0.2902" stop-color="#FF7E8A"/>
      <stop offset="0.397" stop-color="#FF8290"/>
      <stop offset="0.5334" stop-color="#FF8E9F"/>
      <stop offset="0.6516" stop-color="#FF9CB3"/>
      <stop offset="0.7098" stop-color="#FFA6A8"/>
      <stop offset="0.8108" stop-color="#FEC08C"/>
      <stop offset="0.9216" stop-color="#FDE366"/>
    </radialGradient>
    <radialGradient id="SVGID_27_" cx="30.7472" cy="57.8953" gradientUnits="userSpaceOnUse" r="18.7874">
      <stop offset="0.3567" stop-color="#FF7E8A"/>
      <stop offset="0.4446" stop-color="#FF8290"/>
      <stop offset="0.5568" stop-color="#FF8E9F"/>
      <stop offset="0.6542" stop-color="#FF9CB3"/>
      <stop offset="0.7111" stop-color="#FFA6A8"/>
      <stop offset="0.8099" stop-color="#FEC08C"/>
      <stop offset="0.9183" stop-color="#FDE366"/>
    </radialGradient>
    <radialGradient id="SVGID_28_" cx="35.6433" cy="50.6573" gradientUnits="userSpaceOnUse" r="27.4856">
      <stop offset="0.3344" stop-color="#FF7E8A"/>
      <stop offset="0.4271" stop-color="#FF8290"/>
      <stop offset="0.5454" stop-color="#FF8E9F"/>
      <stop offset="0.6479" stop-color="#FF9CB3"/>
      <stop offset="0.6956" stop-color="#FFA6A8"/>
      <stop offset="0.7784" stop-color="#FEC08C"/>
      <stop offset="0.8692" stop-color="#FDE366"/>
    </radialGradient>
    <radialGradient id="SVGID_29_" cx="36.1219" cy="43.9242" gradientUnits="userSpaceOnUse" r="24.3327">
      <stop offset="0.2723" stop-color="#FF7E8A"/>
      <stop offset="0.372" stop-color="#FF8290"/>
      <stop offset="0.4994" stop-color="#FF8E9F"/>
      <stop offset="0.6098" stop-color="#FF9CB3"/>
      <stop offset="0.6771" stop-color="#FFA6A8"/>
      <stop offset="0.7937" stop-color="#FEC08C"/>
      <stop offset="0.9216" stop-color="#FDE366"/>
    </radialGradient>
    <radialGradient id="SVGID_30_" cx="48.8113" cy="41.1494" gradientUnits="userSpaceOnUse" r="18.4638">
      <stop offset="0.3963" stop-color="#FF7E8A"/>
      <stop offset="0.7578" stop-color="#FF9CB3"/>
      <stop offset="0.8119" stop-color="#FFA7A7"/>
      <stop offset="0.9082" stop-color="#FEC389"/>
      <stop offset="1" stop-color="#FDE366"/>
    </radialGradient>
    <radialGradient id="SVGID_31_" cx="54.9308" cy="35.652" gradientUnits="userSpaceOnUse" r="27.1406">
      <stop offset="0.6659" stop-color="#FF7E8A"/>
      <stop offset="0.7228" stop-color="#FF8488"/>
      <stop offset="0.7957" stop-color="#FF9382"/>
      <stop offset="0.8773" stop-color="#FEAE79"/>
      <stop offset="0.9646" stop-color="#FDD26C"/>
      <stop offset="1" stop-color="#FDE366"/>
    </radialGradient>
    <radialGradient id="SVGID_32_" cx="60.0902" cy="34.0364" gradientUnits="userSpaceOnUse" r="15.8782">
      <stop offset="0.6659" stop-color="#FF7E8A"/>
      <stop offset="0.7228" stop-color="#FF8488"/>
      <stop offset="0.7957" stop-color="#FF9382"/>
      <stop offset="0.8773" stop-color="#FEAE79"/>
      <stop offset="0.9646" stop-color="#FDD26C"/>
      <stop offset="1" stop-color="#FDE366"/>
    </radialGradient>
    <radialGradient id="SVGID_33_" cx="65.2433" cy="42.9533" gradientUnits="userSpaceOnUse" r="24.1187">
      <stop offset="0.6659" stop-color="#FF7E8A"/>
      <stop offset="0.7228" stop-color="#FF8488"/>
      <stop offset="0.7957" stop-color="#FF9382"/>
      <stop offset="0.8773" stop-color="#FEAE79"/>
      <stop offset="0.9646" stop-color="#FDD26C"/>
      <stop offset="1" stop-color="#FDE366"/>
    </radialGradient>
    <radialGradient id="SVGID_34_" cx="74.3271" cy="35.0558" gradientUnits="userSpaceOnUse" r="27.5507">
      <stop offset="0.6659" stop-color="#FF7E8A"/>
      <stop offset="0.7228" stop-color="#FF8488"/>
      <stop offset="0.7957" stop-color="#FF9382"/>
      <stop offset="0.8773" stop-color="#FEAE79"/>
      <stop offset="0.9646" stop-color="#FDD26C"/>
      <stop offset="1" stop-color="#FDE366"/>
    </radialGradient>
    <radialGradient id="SVGID_35_" cx="80.5551" cy="34.4237" gradientUnits="userSpaceOnUse" r="25.3553">
      <stop offset="0.6659" stop-color="#FF7E8A"/>
      <stop offset="0.7228" stop-color="#FF8488"/>
      <stop offset="0.7957" stop-color="#FF9382"/>
      <stop offset="0.8773" stop-color="#FEAE79"/>
      <stop offset="0.9646" stop-color="#FDD26C"/>
      <stop offset="1" stop-color="#FDE366"/>
    </radialGradient>
    <radialGradient id="SVGID_36_" cx="88.8932" cy="42.0588" gradientUnits="userSpaceOnUse" r="21.8253">
      <stop offset="0.1091" stop-color="#FF7E8A"/>
      <stop offset="0.2267" stop-color="#FF8290"/>
      <stop offset="0.3768" stop-color="#FF8E9F"/>
      <stop offset="0.507" stop-color="#FF9CB3"/>
      <stop offset="0.6133" stop-color="#FFA6A8"/>
      <stop offset="0.7977" stop-color="#FEC08C"/>
      <stop offset="1" stop-color="#FDE366"/>
    </radialGradient>
  </defs>
  <path d="M116.63,124.22 L11.32,124.22 C7.17,124.22 3.8,120.85 3.8,116.7 L3.8,11.39 C3.8,7.24 7.17,3.87 11.32,3.87 L116.62,3.87 C120.77,3.87 124.14,7.24 124.14,11.39 L124.14,116.69 C124.15,120.85 120.78,124.22 116.63,124.22 Z" fill="url(#SVGID_1_)"/>
  <path d="M68.41,53.09 C69.77,53.46 69.34,47.52 73.61,44.91 C77.05,42.8 81.07,43.91 80.69,40.59 C80.44,38.38 74.62,38.29 70.58,41.87 C66.59,45.42 67.42,52.82 68.41,53.09 Z" fill="url(#SVGID_2_)"/>
  <path d="M73.16,56.71 C74.32,57.7 76.78,52.95 82.04,53.12 C86.25,53.26 88.22,57.8 90.46,55.71 C93.01,53.33 89.26,49.34 83.51,48.94 C75.86,48.4 71.89,55.63 73.16,56.71 Z" fill="url(#SVGID_3_)"/>
  <path d="M74.44,61.97 C74.56,62.82 80.8,62.47 85.13,65.46 C89.45,68.45 90.57,72.06 93.12,71.4 C95.67,70.73 94.36,66.42 89.02,63.02 C83.21,59.3 74.08,59.44 74.44,61.97 Z" fill="url(#SVGID_4_)"/>
  <path d="M75.32,67.35 C74.65,68.13 75.38,68.63 77.98,71.4 C80.58,74.17 81.86,75.67 82.97,76.67 C84.02,77.62 85.47,77.9 86.19,77.22 C87.24,76.22 85.7,74.25 84.5,73.01 C82.84,71.29 80.14,69.25 78.98,68.53 C77.84,67.84 75.93,66.64 75.32,67.35 Z" fill="url(#SVGID_5_)"/>
  <path d="M68.14,67.09 C67.56,67.28 68.34,69.1 68.84,71.86 C69.15,73.59 69.59,74.98 69.91,80.83 C70.27,87.56 69.17,90.63 72.5,90.67 C76.03,90.72 74.63,83.37 73.98,79.61 C73.25,75.41 72.4,72.61 71.45,70.65 C70.59,68.88 68.98,66.82 68.14,67.09 Z" fill="url(#SVGID_6_)"/>
  <path d="M63.14,71.15 C61.98,70.9 60.53,73.68 59.2,78.07 C57.81,82.69 57.07,86.65 59.86,87.02 C63.46,87.5 63.08,82.69 63.35,78.61 C63.56,75.44 63.91,71.32 63.14,71.15 Z" fill="url(#SVGID_7_)"/>
  <path d="M60.24,66.35 C58.83,65.29 53.13,69.13 50.29,73.38 C47.17,78.04 44.56,85.04 47.96,85.28 C51.66,85.54 51.06,80.55 53.79,75.5 C57.07,69.44 60.92,66.86 60.24,66.35 Z" fill="url(#SVGID_8_)"/>
  <path d="M52.72,65.28 C53.1,65.96 50.07,67.93 47.69,70.25 C45.31,72.57 42.77,76.39 41.45,75.06 C40.13,73.74 40.87,71.17 43.57,68.32 C46.88,64.81 52.13,64.22 52.72,65.28 Z" fill="url(#SVGID_9_)"/>
  <path d="M35.73,65.97 C37.75,67.3 38.72,61.54 43.65,61.07 C48.51,60.61 53.4,62.21 53.84,61.09 C54.18,60.24 48.73,57.38 42.8,58.2 C36.64,59.06 33.08,64.22 35.73,65.97 Z" fill="url(#SVGID_10_)"/>
  <path d="M58.59,56.98 C59.86,56.45 57.85,46.95 48.81,46.53 C40.72,46.15 38.07,51.96 39.71,53.86 C41.06,55.43 44.45,50.91 48.66,50.89 C56.24,50.85 57.11,57.59 58.59,56.98 Z" fill="url(#SVGID_11_)"/>
  <path d="M54.5,39.79 C53.44,40.74 53.82,42.62 57.29,44.95 C60.81,47.31 60.75,52.09 61.96,52.03 C63.18,51.98 63,46.37 60.89,42.87 C59.04,39.83 56.01,38.42 54.5,39.79 Z" fill="url(#SVGID_12_)"/>
  <path d="M90.99,48.5 C92.11,49.84 96.37,46.86 103.88,46.91 C110.55,46.95 113.98,49.77 115.26,46.6 C116.56,43.37 111.8,41.83 104.1,42.39 C96.69,42.94 89.61,46.87 90.99,48.5 Z" fill="url(#SVGID_13_)"/>
  <path d="M95.67,55.28 C96.1,56.34 99.14,54.96 102.25,55.69 C104.88,56.3 107.62,58.39 108.55,56.18 C109.49,53.97 107.1,51.76 102.77,51.67 C98.47,51.59 95.07,53.77 95.67,55.28 Z" fill="url(#SVGID_14_)"/>
  <path d="M91.24,61.65 C91.35,62.77 94.99,61.85 99.5,63.17 C104.01,64.49 106.22,66.08 108.38,67.94 C110.55,69.81 113.15,72.56 114.88,70.57 C116.97,68.16 113.48,65.48 110.84,63.73 C108.52,62.19 105.06,60.41 99.83,60.03 C94.27,59.63 91.14,60.59 91.24,61.65 Z" fill="url(#SVGID_15_)"/>
  <path d="M99.46,70.75 C99.51,71.64 101.38,71.94 103.69,73.81 C106.4,76.01 108.17,78.29 110.73,81.95 C112.46,84.43 113.77,87.85 116.16,86.98 C119.09,85.92 117.16,82.11 114.18,78.79 C111.65,75.98 110.07,74.27 106.55,72.19 C103.61,70.46 99.37,69.14 99.46,70.75 Z" fill="url(#SVGID_16_)"/>
  <path d="M100.22,80.74 C99.45,81.59 101.03,82.58 102.14,83.94 C103.25,85.3 105.35,88.8 106.09,89.8 C107.28,91.42 108.94,91.08 109.7,90.44 C110.46,89.8 110.72,88.12 109.77,86.74 C108.37,84.7 105.74,82.78 103.83,81.68 C102.45,80.87 100.89,80 100.22,80.74 Z" fill="url(#SVGID_17_)"/>
  <path d="M88.32,79.89 C87.84,80.59 88.89,81.21 90.33,83.2 C91.81,85.25 93.8,87.75 95.83,94.57 C97.94,101.66 98.22,107.12 98.39,108.62 C98.67,110.99 99.4,112.62 101.56,112.62 C103.35,112.62 104.01,110.41 103.83,107.12 C103.63,103.51 102.62,97.64 99.94,91.86 C96.69,84.83 93.1,81.98 92.24,81.29 C91.05,80.36 89.11,78.74 88.32,79.89 Z" fill="url(#SVGID_18_)"/>
  <path d="M77.76,76.03 C76.79,76.58 77.84,77.89 78.73,79.6 C79.62,81.31 82.47,87.09 83.55,91.67 C84.77,96.82 85.05,99.85 85.21,102.33 C85.31,103.87 85.85,105.56 87.92,105.53 C90.55,105.49 90.37,101.58 89.73,97.67 C88.75,91.68 86.7,87.23 84.37,83.29 C82.51,80.13 81.77,79 80.56,77.7 C79.43,76.48 78.41,75.66 77.76,76.03 Z" fill="url(#SVGID_19_)"/>
  <path d="M88.83,108.68 C86.76,108.41 85.94,110.44 85.86,111.7 C85.75,113.39 86.6,114.72 88.26,114.84 C90.37,115 91.04,113.37 91.11,111.59 C91.14,110.61 91.01,108.97 88.83,108.68 Z" fill="#FFDD74"/>
  <path d="M78.81,97.51 C77.72,97.58 77.75,100.47 76.98,105.25 C76.21,110.03 74.44,113.81 77.65,114.64 C80.94,115.49 80.82,108.66 80.65,105.07 C80.52,102.54 80.19,97.42 78.81,97.51 Z" fill="url(#SVGID_20_)"/>
  <path d="M57.26,93.61 C55.95,93.38 54.21,97.08 53.45,101 C52.6,105.36 52.36,108.56 54.83,108.84 C57.09,109.1 57.13,105.04 57.31,100.95 C57.55,95.49 58.14,93.77 57.26,93.61 Z" fill="url(#SVGID_21_)"/>
  <path d="M53.88,87.95 C52.9,87.16 46.7,93.05 45.48,101.86 C44.47,109.17 44.74,117.25 48.64,116.65 C52.54,116.05 49.21,109.56 50.26,101.18 C51.48,91.57 55.06,88.89 53.88,87.95 Z" fill="url(#SVGID_22_)"/>
  <path d="M44.81,79.68 C43.87,78.54 37.71,83.1 34.24,89.81 C31.22,95.66 30,100.81 29.42,105.48 C29.01,108.77 29.96,111.73 32.51,111.6 C34.59,111.49 35.02,109.18 35.22,103.87 C35.49,96.88 37.49,91.56 39.79,87.2 C41.76,83.5 45.55,80.58 44.81,79.68 Z" fill="url(#SVGID_23_)"/>
  <path d="M31.84,80.69 C30.68,79.87 27.42,83.39 25.54,86.21 C23.66,89.03 21.02,93.8 23.98,94.94 C27.43,96.27 27.56,91.25 28.77,88.56 C30.75,84.16 32.82,81.39 31.84,80.69 Z" fill="url(#SVGID_24_)"/>
  <path d="M35.13,70.41 C36,71.75 30.38,73.47 23.92,82.4 C17.37,91.47 19.13,99.04 14.96,98.44 C10.69,97.82 14.09,88.53 19.66,80.9 C25.67,72.68 34.35,69.2 35.13,70.41 Z" fill="url(#SVGID_25_)"/>
  <path d="M11.52,80.71 C13.2,82.05 14.65,81.03 16.16,78.96 C18.18,76.2 21.29,73.03 23.49,71.06 C26.65,68.24 31.55,65.75 30.95,64.71 C30.39,63.75 25.86,64.82 20.34,68.52 C14.98,72.12 12.98,74.55 12.34,75.39 C11.45,76.55 9.22,78.87 11.52,80.71 Z" fill="url(#SVGID_26_)"/>
  <path d="M15.31,63.76 C16.48,65.35 18.67,64.57 19.95,63.49 C21.23,62.41 23.26,60.99 25.69,59.95 C28.13,58.91 30.14,59.28 30.03,57.71 C29.95,56.5 24.65,56.34 19.31,58.41 C14.37,60.32 14.36,62.48 15.31,63.76 Z" fill="url(#SVGID_27_)"/>
  <path d="M32.98,50.78 C32.69,52.03 29.13,49.96 21.58,50.77 C14.81,51.5 8.08,56.57 6.64,53 C4.7,48.19 13.93,46.36 20.45,46.43 C26.97,46.5 33.46,48.72 32.98,50.78 Z" fill="url(#SVGID_28_)"/>
  <path d="M38.63,45.68 C37.87,46.38 36.18,44.25 31.93,42.71 C27.92,41.26 25.24,40.4 20.67,40.34 C16.1,40.28 13.03,42.59 11.89,39.7 C10.75,36.81 13.38,35.03 20.24,35.22 C28.19,35.44 32.67,38.38 35.38,40.45 C37.36,41.95 39.55,44.83 38.63,45.68 Z" fill="url(#SVGID_29_)"/>
  <path d="M49.45,42.79 C48.22,43.71 44.63,38.83 40,35.81 C37.05,33.88 31.71,33.54 32.72,29.89 C33.72,26.28 38.27,28.07 42.4,31.44 C47.4,35.51 50.9,41.7 49.45,42.79 Z" fill="url(#SVGID_30_)"/>
  <path d="M29.55,15.03 C28.62,17.22 30.12,19.03 33.18,19.74 C36.45,20.5 40.06,22.83 42.92,25.16 C46.23,27.86 48.65,30.76 50.28,33.13 C51.48,34.87 52.66,36.86 53.47,36.59 C54.28,36.32 54,34.44 53.26,32.49 C52.52,30.54 50.06,24.3 43.25,18.64 C38.04,14.32 31.5,10.46 29.55,15.03 Z" fill="url(#SVGID_31_)"/>
  <path d="M23.77,27.4 C23.66,29.02 24.91,30.3 26.93,30.42 C28.42,30.51 30.63,30.15 30.76,28 C30.89,25.99 29.48,24.64 27.2,24.64 C25.45,24.64 23.91,25.38 23.77,27.4 Z" fill="#FEDE6A"/>
  <path d="M53.88,18.32 C52.12,19.56 53.53,21.76 55.08,24.32 C56.63,26.88 58.92,32.37 60.67,31.9 C62.42,31.43 59.46,23.63 58.79,21.68 C58.12,19.73 56.37,16.57 53.88,18.32 Z" fill="url(#SVGID_32_)"/>
  <path d="M65.71,40.64 C67.61,40.88 67.66,33.25 69.88,26.12 C72.1,18.99 74.99,15.37 72.1,14.29 C69.21,13.21 66.84,17 65.48,24.24 C64.27,30.69 64.03,40.42 65.71,40.64 Z" fill="url(#SVGID_33_)"/>
  <path d="M75.26,33.91 C76.83,34.85 78.24,28.08 83.72,23.01 C90.98,16.29 97.73,16.79 96.64,13.35 C95.99,11.3 90.7,11.6 85.93,14.97 C81.05,18.42 78.96,21.69 76.87,26.06 C75.49,28.94 74.15,33.25 75.26,33.91 Z" fill="url(#SVGID_34_)"/>
  <path d="M81.64,36.27 C82.71,37 85.6,33.36 88.36,31.09 C92.22,27.91 96.24,25.92 100.83,24.57 C105.45,23.22 108.81,23.52 108.32,20.6 C107.78,17.38 102.53,18.5 98.83,19.95 C93.8,21.93 89.3,24.34 85.94,28.15 C83.2,31.27 80.86,35.73 81.64,36.27 Z" fill="url(#SVGID_35_)"/>
  <path d="M85.47,45.14 C86.77,46.15 88.07,43.15 91.54,40.8 C94.63,38.71 97.09,37.22 100.38,36.21 C103.2,35.35 107.65,35.46 106.84,32.97 C106.13,30.78 101.74,30.79 98.32,32.05 C95.05,33.25 91.87,35.54 89.41,38.11 C87.43,40.2 84.5,44.38 85.47,45.14 Z" fill="url(#SVGID_36_)"/>
  <path d="M56.8,60.5 C56.8,61.45 60.23,61.44 61.72,62.79 C63.71,64.59 63.86,66.93 64.76,66.93 C65.65,66.93 66.26,63.46 67.93,62.17 C69.61,60.88 72.57,60.83 72.52,59.99 C72.47,59.15 68.91,59.17 67.1,57.53 C65.51,56.09 65.29,53.78 64.58,53.79 C63.76,53.8 63.99,56.19 61.67,58.04 C59.21,59.99 56.8,59.55 56.8,60.5 Z" fill="#FFFFFD"/>
  <path d="M31.51,113.75 C29.43,113.81 28.97,115.77 29.07,116.96 C29.2,118.57 30.3,119.67 31.96,119.59 C33.93,119.49 34.31,117.85 34.12,116.16 C34.01,115.24 33.35,113.7 31.51,113.75 Z" fill="#FFDD74"/>
  <path d="M77.69,40.58 C77.54,42.2 78.35,42.9 79.67,42.9 C81.18,42.9 81.76,41.82 81.72,40.77 C81.69,39.88 81.22,38.87 79.78,38.79 C78.66,38.73 77.81,39.34 77.69,40.58 Z" fill="#FFFEFD"/>
  <path d="M89.23,56.44 C89.12,57.8 89.84,59.06 91.19,59.06 C92.73,59.06 93.36,57.8 93.32,56.73 C93.29,55.82 92.96,54.56 91.5,54.48 C90.35,54.41 89.33,55.18 89.23,56.44 Z" fill="#FFFEFD"/>
  <path d="M52.65,39.8 C52.43,41.19 53.28,42.26 54.6,42.18 C56.23,42.08 56.77,40.94 56.73,39.84 C56.69,38.91 56.01,37.91 54.8,37.91 C53.59,37.91 52.86,38.51 52.65,39.8 Z" fill="#FFFEFD"/>
  <path d="M36.28,53.19 C36.11,54.92 37.1,55.73 38.54,55.73 C40.19,55.73 40.84,54.37 40.79,53.25 C40.75,52.3 40.24,51.22 38.68,51.14 C37.45,51.08 36.4,51.86 36.28,53.19 Z" fill="#FFFEFD"/>
  <path d="M32.59,66.28 C32.43,68.11 33.35,68.88 34.72,68.88 C36.29,68.88 36.89,67.65 36.85,66.47 C36.82,65.46 36.33,64.32 34.84,64.23 C33.67,64.16 32.71,64.87 32.59,66.28 Z" fill="#FFFEFD"/>
  <path d="M39.18,75.08 C38.37,76.47 38.63,77.71 39.71,78.22 C40.96,78.81 42.08,77.77 42.49,76.82 C42.84,76.01 42.99,74.78 41.84,74.15 C40.95,73.66 39.8,74.02 39.18,75.08 Z" fill="#FFFEFD"/>
  <path d="M45.72,85.02 C45.57,86.69 46.38,87.44 47.69,87.44 C49.19,87.44 49.78,86.34 49.75,85.26 C49.72,84.34 49.22,83.09 47.79,83.09 C46.66,83.09 45.83,83.74 45.72,85.02 Z" fill="#FFFEFD"/>
  <path d="M57.57,88.06 C57.26,89.51 58.02,90.63 59.37,90.75 C60.92,90.89 61.57,89.8 61.7,88.69 C61.81,87.67 61.36,86.4 59.89,86.26 C58.73,86.16 57.85,86.76 57.57,88.06 Z" fill="#FFFEFD"/>
  <path d="M69.99,92.59 C69.82,94.37 70.81,95.33 72.26,95.33 C73.93,95.33 74.51,94 74.47,92.85 C74.43,91.87 74.17,90.38 72.26,90.31 C71.01,90.26 70.12,91.23 69.99,92.59 Z" fill="#FFFEFD"/>
  <path d="M83.62,76.76 C83.47,78.33 84.45,79 85.56,79.04 C87.04,79.09 87.63,78.01 87.59,76.99 C87.56,76.13 87.07,74.95 85.66,74.95 C84.55,74.96 83.74,75.56 83.62,76.76 Z" fill="#FFFEFD"/>
  <path d="M92.52,72.56 C92.56,74.06 93.36,74.85 94.75,74.77 C96.13,74.69 96.64,73.53 96.48,72.24 C96.35,71.17 95.54,70.19 94.23,70.37 C93.2,70.51 92.48,71.23 92.52,72.56 Z" fill="#FFFEFD"/>
  <path d="M96.34,12.46 C96.13,14.67 97.27,15.63 99.12,15.63 C101.25,15.63 102.06,14.15 102.01,12.73 C101.96,11.52 101.3,10.19 99.28,10.04 C97.66,9.91 96.5,10.77 96.34,12.46 Z" fill="#FFFEFD"/>
  <path d="M111.78,19.23 C109.84,18.53 108.79,19.08 108.23,20.57 C107.59,22.26 108.73,23.41 110.01,23.78 C111.09,24.1 112.49,23.96 113.13,22.34 C113.62,21.08 112.98,19.67 111.78,19.23 Z" fill="#FFFEFD"/>
  <path d="M117.04,48.12 C116.73,49.89 117.75,50.82 119.07,50.82 C120.58,50.82 121.38,49.54 121.28,48.26 C121.21,47.37 120.72,46.38 119.28,46.3 C118.15,46.24 117.26,46.89 117.04,48.12 Z" fill="#FFFEFD"/>
  <path d="M115,70.2 C113.96,71.6 114.22,73.13 115.33,73.82 C116.82,74.74 118.21,73.98 118.85,72.87 C119.39,71.92 119.58,70.59 118.22,69.63 C117.14,68.88 115.91,68.98 115,70.2 Z" fill="#FFFEFD"/>
  <path d="M115.49,87.77 C115.33,89.44 116.14,90.15 117.51,90.15 C119.07,90.15 119.64,88.8 119.6,87.72 C119.57,86.8 119.08,85.76 117.6,85.68 C116.43,85.62 115.61,86.49 115.49,87.77 Z" fill="#FFFEFD"/>
  <path d="M102.17,114 C100.41,113.91 99.67,115.04 99.73,116.44 C99.8,118.05 101.16,118.42 102.3,118.33 C103.27,118.26 104.34,117.71 104.36,116.18 C104.37,115 103.52,114.07 102.17,114 Z" fill="#FFFEFD"/>
  <path d="M74.84,116.4 C74.67,118.21 75.62,119.09 77.09,119.09 C78.77,119.09 79.38,117.63 79.34,116.46 C79.3,115.46 78.78,114.34 77.18,114.25 C75.93,114.18 74.97,115.01 74.84,116.4 Z" fill="#FFFEFD"/>
  <path d="M46.44,115.99 C46.68,117.92 47.96,118.57 49.47,118.24 C51.21,117.86 51.51,116.2 51.19,115 C50.92,113.97 50.13,112.92 48.46,113.19 C47.16,113.39 46.26,114.51 46.44,115.99 Z" fill="#FFFEFD"/>
  <path d="M22.5,95.2 C21.75,96.63 22.24,97.85 23.44,98.34 C24.83,98.91 25.82,97.92 26.18,96.95 C26.49,96.12 26.43,95.02 25.15,94.41 C24.14,93.93 23.07,94.11 22.5,95.2 Z" fill="#FFFEFD"/>
  <path d="M11.82,101.16 C12.16,103.12 13.88,103.63 15.08,103.18 C16.81,102.54 17.09,100.99 16.71,99.77 C16.39,98.73 15.33,97.55 13.62,97.92 C12.28,98.21 11.56,99.66 11.82,101.16 Z" fill="#FFFEFD"/>
  <path d="M12.59,63.36 C11.04,64.67 11.29,66.3 12.25,67.15 C13.35,68.12 15,67.58 15.84,66.57 C16.56,65.71 17.01,64.19 15.91,63.12 C15.12,62.35 13.78,62.35 12.59,63.36 Z" fill="#FFFEFD"/>
  <path d="M10.52,37.87 C9.56,39.23 10.1,40.95 11.6,41.72 C13.06,42.46 14.73,41.46 15.26,40.26 C15.71,39.23 15.72,37.83 14.11,36.94 C12.85,36.24 11.42,36.59 10.52,37.87 Z" fill="#FFFEFD"/>
  <path d="M24.81,14.97 C24.31,17 25.3,18.14 26.97,18.39 C28.88,18.68 29.88,17.18 30.03,15.84 C30.16,14.7 29.76,13.33 27.96,12.96 C26.56,12.66 25.2,13.41 24.81,14.97 Z" fill="#FFFEFD"/>
  <path d="M49.28,15.44 C49.13,17.15 50.35,18.06 51.66,18.06 C53.16,18.06 54.13,17.09 54.18,15.77 C54.22,14.83 53.55,13.53 51.94,13.36 C50.68,13.22 49.39,14.13 49.28,15.44 Z" fill="#FFFEFD"/>
  <path d="M70.64,12.51 C70.46,14.37 71.66,15.37 73.19,15.37 C74.95,15.37 75.6,14.02 75.56,12.82 C75.52,11.8 75.02,10.54 73.35,10.45 C72.03,10.39 70.77,11.09 70.64,12.51 Z" fill="#FFFEFD"/>
</svg>