<svg viewBox="0 0 128 128" xmlns="http://www.w3.org/2000/svg">
  <defs/>
  <path d="M105.27,16.94 C104.85,18.41 102.17,17.31 99.47,16.94 C97.47,16.67 86.95,14.04 76.95,21.88 C66.95,29.72 54.35,48.19 49.53,65.18 C44.71,82.17 42.97,86.23 42.36,102.02 C41.75,117.81 43.08,120.7 41.28,122.99 C39.64,125.07 36.22,124.8 34.29,123.59 C32.36,122.38 32.41,118.41 32.48,112.02 C32.6,100.81 34.53,81.17 43.33,59.6 C52.13,38.03 63.81,24.3 74.66,17.67 C85.51,11.04 93.88,11.5 100.57,13.21 C105.27,14.41 105.51,16.1 105.27,16.94 Z" fill="#7CB23F"/>
  <path d="M84.47,15.48 C84.71,16.71 85.26,17.98 86.86,17.68 C88.46,17.38 88.52,15.66 88.25,14.21 C87.98,12.76 86.86,11.72 85.45,12.28 C84.28,12.76 84.24,14.32 84.47,15.48 Z" fill="#6A9A18"/>
  <path d="M63.86,24.69 C63.06,25.52 63.23,27.36 65.27,29.3 C67.54,31.45 69.32,30.99 69.98,30.26 C70.98,29.17 71.01,27.45 68.83,25.36 C66.58,23.2 64.91,23.58 63.86,24.69 Z" fill="#6A9A18"/>
  <path d="M47.95,46.62 C46.81,48.33 46.66,50.78 50.49,52.67 C53.74,54.27 55.88,53.88 56.78,52 C57.79,49.89 55.77,47.92 53.47,46.62 C51.17,45.32 49.1,44.89 47.95,46.62 Z" fill="#6A9A18"/>
  <path d="M42.96,71.87 C40.45,71.29 37.73,71.49 37.15,73.79 C36.57,76.09 37.77,77.77 41.04,78.4 C44.3,79.02 46.58,78.67 47.04,76.58 C47.71,73.5 45.02,72.35 42.96,71.87 Z" fill="#6A9A18"/>
  <path d="M31.78,100.91 C31.54,103.5 32.88,104.94 37.3,105.23 C41.72,105.52 43.25,103.84 43.35,102.01 C43.48,99.6 41.19,98.65 37.78,98.31 C35.13,98.05 31.98,98.75 31.78,100.91 Z" fill="#6A9A18"/>
  <path d="M77.74,51.49 C77.74,51.49 79.42,50.71 81.32,50.15 C82.68,49.75 84.17,49.48 84.17,49.48 C84.17,49.48 87.86,52.66 90.82,59.59 C93.78,66.52 93.61,72.27 93.61,72.27 C93.61,72.27 91.43,73.16 90.37,73.5 C89.31,73.84 86.52,74.73 86.52,74.73 C86.52,74.73 84.06,65.96 82.5,61.32 C80.59,55.71 77.74,51.49 77.74,51.49 Z" fill="#FFC119"/>
  <path d="M80.64,22.78 C80.47,22.84 80.59,28.21 82.87,35.07 C85.22,42.11 89.07,46.75 89.07,46.75 C89.07,46.75 91.47,46.97 93.54,46.47 C95.61,45.97 96.84,44.91 96.84,44.91 C96.84,44.91 92.71,38.26 90.64,31.67 C88.31,24.24 88.74,21.61 88.74,21.61 L80.64,22.78 Z" fill="#FFB0DA"/>
  <path d="M54.33,48.26 C54.33,48.26 60.29,42.03 66.93,38.42 C73.6,34.8 78.7,33.11 85.15,31.93 C89.83,31.08 94.68,30.76 94.77,31.63 C94.86,32.5 83.32,35.03 80.44,35.95 C75.84,37.43 69.64,39.89 62.61,45.27 C58,48.8 54.85,51.72 54.85,51.72 C54.85,51.72 54.16,47.74 54.33,48.26 Z" fill="#6A9A18"/>
  <path d="M83.61,33.89 C84.37,34.58 88.71,33.3 93.38,29.11 C97.11,25.76 99.13,21.14 98.48,20.63 C97.69,20.01 92.41,21.11 88.82,24.39 C84.96,27.9 82.43,32.82 83.61,33.89 Z" fill="#7FCE13"/>
  <path d="M90.75,31.96 C90.16,33.14 92.38,37.27 94.35,40.12 C96.6,43.39 101.85,47.38 102.88,47.04 C103.64,46.79 103.26,42.16 101.75,39.47 C100.45,37.15 99.1,35.98 99.1,35.98 C99.1,35.98 101.21,36.73 106.05,37.16 C110.88,37.59 113.1,36.77 113.3,36.52 C113.69,36 109.81,28.79 102.35,28.42 C95.05,28.05 91.23,30.99 90.75,31.96 Z" fill="#7FCE13"/>
  <path d="M69.92,39.42 C70.51,40.71 73.36,43.87 76.04,45.43 C78.72,46.99 86.69,49.01 87.37,48.27 C87.96,47.63 82.38,40.7 78.51,39.09 C76.15,38.11 73.41,37.75 72.23,37.91 C71.05,38.08 69.65,38.82 69.92,39.42 Z" fill="#7FCE13"/>
  <path d="M44.85,73.87 C44.85,73.87 50.94,64.01 68.3,56.87 C84.14,50.36 93.26,53.03 93.12,53.92 C92.98,54.81 83.86,53.99 70.56,59.13 C62.85,62.11 56.5,66.26 50.81,72.23 C48.3,74.86 46.22,77.24 46.22,77.24 L44.85,73.87 Z" fill="#6A9A18"/>
  <path d="M57.53,64.27 C56.3,64.23 56,60.73 58.51,56.37 C60.5,52.93 66.49,46.85 67.61,47.13 C68.33,47.31 68.3,52.14 65.9,56.11 C63.81,59.58 60.35,64.37 57.53,64.27 Z" fill="#7FCE13"/>
  <path d="M49.58,71.95 C49.79,72.79 54.59,74.28 58.29,74.76 C61.99,75.24 65.08,74.28 67.2,74.21 C69.33,74.14 72.45,73.25 72.48,72.77 C72.53,71.82 69.94,68.18 62.2,67.08 C54.07,65.93 49.37,71.1 49.58,71.95 Z" fill="#7FCE13"/>
  <path d="M98.94,65.37 C98.94,65.37 99.63,71.68 100.04,76.68 C100.38,80.82 101,86.9 101.07,87.17 C101.12,87.36 103.68,87.24 105.87,86.42 C107.72,85.73 109.44,84.57 109.44,84.57 C109.44,84.57 108.82,78.26 107.52,71.13 C106.64,66.32 105.6,63.25 105.33,62.97 C105.05,62.69 98.94,65.37 98.94,65.37 Z" fill="#52C2F3"/>
  <path d="M87.08,53.37 C87.15,53.73 89.53,56.99 90.32,58.21 C91.83,60.54 94.5,64.5 95.42,65.7 C96.72,67.41 99.6,70.37 99.84,70.3 C100.68,70.08 102.1,66.94 100.87,62.62 C100.37,60.88 98.26,58.23 98.26,58.23 C98.26,58.23 102.54,59.62 105.67,61.93 C111.08,65.94 113.62,69.67 114.09,69.5 C115.76,68.88 115.74,59.7 106.15,54.11 C95.79,48.09 86.94,52.62 87.08,53.37 Z" fill="#7FCE13"/>
  <path d="M59.66,56.66 C59.66,56.66 59.93,63.38 59.8,67.97 C59.67,72.23 58.43,80.38 58.43,80.38 C58.43,80.38 62.68,80.17 64.4,80.04 C66.11,79.9 69.2,79.56 69.2,79.56 C69.2,79.56 68.79,69.55 68.72,64.27 C68.65,58.99 68.03,53.64 68.03,53.64 C68.03,53.64 59.66,56.18 59.66,56.66 Z" fill="#FFD61C"/>
  <path d="M72.82,73.73 C72.82,73.73 75.43,73.39 77.48,73.04 C79.27,72.74 81.94,72.49 81.94,72.49 C81.94,72.49 83.72,81.95 85.3,86.2 C87.02,90.84 89.62,94.91 89.62,94.91 C89.62,94.91 87.6,96.13 85.44,97.24 C83.04,98.47 79.95,98.95 79.95,98.95 C79.95,98.95 76.61,93.03 75.08,86.88 C72.96,78.33 73.1,73.05 72.82,73.73 Z" fill="#FF2825"/>
  <path d="M33.47,48.77 C32.31,49.07 31.48,49.66 32.72,52.4 C33.95,55.14 35.39,57.68 36.49,62.34 C37.5,66.63 38.14,73.93 38.14,73.93 L41.36,72.7 C41.36,72.7 40.16,63.27 39.17,59.67 C38.06,55.7 35.04,48.36 33.47,48.77 Z" fill="#6A9A18"/>
  <path d="M15.23,48.82 C15.62,49.49 19.34,50.01 23.46,50.84 C27.58,51.67 33.59,52.08 34.22,51.66 C35.09,51.09 35.25,46.47 32.03,40.07 C27.78,31.64 18.89,28.62 18.11,29.37 C17.75,29.72 18.88,34.03 22.02,38.28 C24.63,41.81 26.55,43.77 26.55,43.77 C26.55,43.77 22.67,44.04 19.9,44.94 C17.01,45.87 14.82,48.11 15.23,48.82 Z" fill="#80D114"/>
  <path d="M38.2,66.67 C37.55,67.29 34.29,65.71 31.82,64.48 C29.35,63.25 23.32,62.22 19.55,62.42 C15.78,62.62 12.51,63.32 12.22,62.75 C11.56,61.44 17.34,54.98 26.06,55.08 C37.58,55.22 39.57,65.37 38.2,66.67 Z" fill="#80D114"/>
  <path d="M48.96,46.51 C48.96,46.51 48.48,35.13 46.56,29.23 C44.64,23.33 41.49,20.8 41.49,20.8 L44.85,19.91 C44.85,19.91 48.08,24.41 49.58,28.96 C51.71,35.41 51.84,46.58 51.84,46.58 L48.96,46.51 Z" fill="#6A9A18"/>
  <path d="M42.93,12.98 C42.93,12.98 43.12,10.32 44.7,7.57 C46.28,4.82 49.11,3.7 49.58,3.92 C50.05,4.14 50.62,8.14 49.58,13.38 C48.41,19.28 46.73,23.04 45.81,23.73 C44.89,24.42 41.34,24.03 35.53,23.18 C30.39,22.43 27.58,20.85 27.23,19.96 C26.89,19.07 30.48,17.32 32.72,16.94 C34.78,16.6 36.97,17.21 36.97,17.21 C36.97,17.21 34.71,14.33 33.2,10.63 C31.69,6.93 31.49,3.99 31.9,3.64 C32.38,3.22 36.43,5.15 38.83,7.62 C41.21,10.1 42.93,12.98 42.93,12.98 Z" fill="#7FCE1A"/>
  <path d="M39.16,25.19 C38.95,25.26 36.83,32.66 35.59,36.43 C34.36,40.2 32.64,42.88 31.61,44.04 C30.58,45.21 28.73,46.92 28.73,46.92 L37.3,52.34 C37.3,52.34 41.26,46.88 43.54,39.72 C45.6,33.27 46.42,29.37 46.01,28.68 C45.6,28 39.16,25.19 39.16,25.19 Z" fill="#FF2622"/>
</svg>