<svg viewBox="0 0 128 128" xmlns="http://www.w3.org/2000/svg">
  <defs/>
  <path d="M40.77,61.97 C40.77,61.97 31.53,65.85 31.79,66.94 C32.05,68.04 33.66,70.62 34.63,72.82 C35.32,74.39 36.63,77.08 36.37,79.41 C36.11,81.74 34.82,85.87 34.82,85.87 L48.65,97.56 C48.65,97.56 51.18,94.84 55.16,93.62 C59.03,92.43 61.96,93.18 63.44,93.3 C65.96,93.49 69.64,93.82 70.16,93.56 C71.25,93.02 55.75,73.02 55.75,73.02 L40.77,61.97 Z" fill="#FDD083"/>
  <path d="M42.04,73.01 C42.04,73.01 33.8,86.39 28.43,93.95 C23.06,101.51 18.48,107.07 17.83,107.78 C17.18,108.49 13.76,111.27 13.95,112.82 C14.14,114.37 17.96,116.89 21.77,119.6 C25.58,122.31 28.75,125.16 30.17,124.64 C31.59,124.12 35.5,117.02 37.92,113.53 C42.42,107.05 59.05,83.64 59.05,83.64 L42.04,73.01 Z" fill="#F3A25A"/>
  <path d="M41.01,82.38 C41.4,82.38 41.16,85.68 44.19,87.55 C47.23,89.42 49.6,88.97 49.93,89.36 C50.07,89.52 46.57,94.6 42.5,100.41 C37.29,107.85 31.51,115.7 31,116.5 C30.29,117.6 28.16,119.41 25.89,117.99 C23.66,116.59 21.26,114.75 20.42,113.39 C19.58,112.03 20.46,110.75 21.75,109.07 C22.46,108.15 27.56,101.14 32.54,94.14 C36.64,88.4 40.69,82.38 41.01,82.38 Z" fill="#FDD083"/>
  <path d="M31.79,66.95 L68.47,93.74 C68.47,93.74 78.71,94.99 85.53,91.52 C92.35,88.05 100.03,82.85 107.44,69.13 C115.1,54.94 122.16,28.91 96.91,12.8 C71.66,-3.31 49.14,16.75 42.56,24.53 C35.98,32.31 29.92,41.53 29.39,52.54 C28.9,62.48 31.79,66.95 31.79,66.95 Z" fill="#FF4F28"/>
  <path d="M53.72,47.69 C64.89,47.68 71.73,37.83 70.43,26.66 C69.13,15.49 55.27,14.27 55.27,14.27 L37.34,31.3 L36.12,33.17 C36.11,33.18 37.05,47.71 53.72,47.69 Z" fill="#EE3E23"/>
  <path d="M40.19,7.01 C33.82,11.7 30.9,21.76 36.2,29.75 C40.89,36.82 52.94,40.18 61.39,32.93 C70.26,25.32 67.17,13.28 62.53,8.64 C56.33,2.45 46.38,2.45 40.19,7.01 Z" fill="#D8CDC9"/>
  <path d="M41.66,9.95 C37.5,14.02 36.44,22.01 41.74,26 C46.66,29.71 53.4,29.26 57.23,24.7 C61.22,19.95 59.43,11.82 55.68,9.29 C52.64,7.25 46.23,5.46 41.66,9.95 Z" fill="#EAEBEB"/>
  <path d="M40.67,23.37 C42.53,23.18 42.77,21.53 43.18,18.35 C43.56,15.41 46.43,11.94 48.94,11.38 C51.65,10.78 53.24,10.75 53.23,9.04 C53.21,7.01 49.22,5.43 44.67,7.48 C40.05,9.56 37.7,15.1 37.7,18.72 C37.7,22.41 38.89,23.55 40.67,23.37 Z" fill="#FEFFFF"/>
</svg>