<svg viewBox="0 0 128 128" xmlns="http://www.w3.org/2000/svg">
  <defs/>
  <path d="M28.1,39.94 L24.18,43.98 L48.55,66.81 C48.55,66.81 104.2,54.09 104.2,53.61 C104.2,53.13 104.44,44.57 104.44,44.57 C104.44,44.57 103.7,43.59 103.21,43.07 C102.72,42.55 100.12,40.23 100.12,40.23 L28.1,39.94 Z" fill="#AC5811"/>
  <path d="M39.26,29.35 L40.63,37.3 L82.84,41.77 L97.49,31.34 L71.67,26.62 Z" fill="#8A460A"/>
  <path d="M32.66,43.22 C32.66,43.22 26.29,41.83 23.92,38.84 C22.52,37.07 22.44,34.51 23.71,32.18 C25.45,29.01 30.32,27.52 32.5,27.07 C34.68,26.62 46.1,22.71 66.17,23.31 C86.24,23.91 106.16,28.35 105.78,35.41 C105.4,42.47 97.21,42.4 97.21,42.4 L96.01,30.3 L85.09,30.42 C85.09,30.42 73.16,29.11 65.05,28.8 C55.58,28.45 48.73,29.32 48.73,29.32 L35.5,31.65 L32.66,43.22 Z" fill="#E17F13"/>
  <path d="M69.64,38.1 C69.94,37.8 92.19,15.1 92.19,15.1 C92.19,15.1 91.87,11.75 92.27,10.06 C92.95,7.2 96.1,3.37 98.81,3.6 C101.52,3.83 109.11,11.94 108.73,14.12 C108.35,16.3 106.1,18.86 103.84,19.68 C101.59,20.51 99.26,20.28 99.26,20.28 L80.46,39.08 L69.64,38.1 Z" fill="#AE5614"/>
  <path d="M94.75,14.8 C96.42,15.19 100.24,11.94 100.69,11.19 C101.14,10.44 99.56,9.31 99.04,8.03 C98.52,6.75 98.51,5.7 97.46,5.93 C96.41,6.16 94.61,8.13 94.15,9.76 C93.47,12.17 93.77,14.58 94.75,14.8 Z" fill="#DF8116"/>
  <path d="M24.38,43.67 C24.38,43.67 16.36,52.06 16.84,64.21 C17.33,76.36 22.31,90.71 26.32,98.12 C30.33,105.53 35.92,116.23 38.11,117.69 C40.3,119.15 46.8,123.5 62.05,123.77 C80.07,124.09 88.5,119.76 90.56,117.94 C92.63,116.12 97.78,108.34 102.52,96.18 C107.26,84.02 110.66,73.45 110.54,62.15 C110.42,50.85 104.41,44.59 104.41,44.59 C104.41,44.59 89.21,53.12 63.57,52.51 C37.93,51.9 24.38,43.67 24.38,43.67 Z" fill="#E07F14"/>
  <path d="M63.05,112.62 C86.75,113.04 98.14,106.29 98.14,106.29 C98.14,106.29 100.49,101.17 101.9,97.81 C103.36,94.3 105.3,88.8 105.3,88.8 C105.3,88.8 96.09,97.06 63.01,97.2 C36.49,97.31 21.98,88.25 21.98,88.25 C21.98,88.25 24.36,94.49 26.4,98.36 C29.28,103.82 31.13,107.04 31.13,107.04 C31.13,107.04 42.87,112.27 63.05,112.62 Z" fill="#AC5811"/>
  <path d="M50.48,28.49 C50.69,26.76 49.75,20.86 37.92,21.55 C25.18,22.29 26.13,32.21 26.74,34.12 C28.23,38.84 30.96,40.16 31.12,42.64 C31.29,45.12 29.22,50.91 28.8,61.01 C28.38,71.11 29.37,75.82 29.71,77.22 C30.35,79.84 32.27,81.52 34.34,80.2 C36.41,78.88 35.42,74.99 35.17,72.67 C34.92,70.35 35.12,59.83 35.87,55.86 C36.61,51.89 37.52,49.34 39.92,50.01 C42.32,50.68 41.55,54.06 41.38,56.87 C41.21,59.68 41.13,65.06 41.46,67.71 C41.79,70.36 43.18,71.97 45.41,71.84 C48.4,71.67 49.07,69.28 49.23,65.31 C49.4,61.34 49.15,58.61 49.81,54.72 C50.47,50.83 52.37,48.85 53.86,48.1 C55.35,47.36 58.74,46.78 63.87,46.94 C69,47.1 73.05,47.44 74.62,49.67 C76.19,51.9 76.69,57.28 79.58,59.43 C82.48,61.58 85.78,59.43 86.86,61.75 C87.94,64.07 88.6,69.53 88.68,75.9 C88.76,82.27 88.02,90.54 87.52,94.1 C87.02,97.66 85.8,102.7 87.44,105.27 C88.71,107.25 91.49,106.84 92.73,104.36 C93.97,101.88 94.72,96.42 95.29,90.13 C95.87,83.84 96.12,63.99 96.37,61.59 C96.62,59.19 98.39,53.78 100.92,45.87 C103.67,37.26 106.8,30.32 100.41,26.43 C97,24.35 94.87,24.66 94.87,24.66 L88.62,30.92 C88.62,30.92 92.18,31.5 92.15,32.87 C92.11,35.25 76.93,37.37 66.5,37.54 C56.07,37.71 41.56,35.68 41.56,33.03 C41.56,30.38 50.06,31.88 50.48,28.49 Z" fill="#FFB803"/>
  <path d="M93.55,27.98 C92.77,29.62 94.53,29.94 94.74,31.17 C94.94,32.4 94.25,34.32 95.07,34.52 C95.89,34.72 99.24,33.58 98.5,30.02 C97.76,26.46 94.06,26.89 93.55,27.98 Z" fill="#FFFFFF"/>
  <path d="M78.95,47.76 C77.92,48.01 77.96,51.18 79.4,54.06 C80.99,57.25 83.61,57.29 84.22,56.23 C84.83,55.17 83.16,54.06 82.05,52.1 C80.42,49.19 79.97,47.52 78.95,47.76 Z" fill="#FFFFFF"/>
  <path d="M39.83,37.21 C39.03,38.54 40.73,40.68 45.27,41.99 C49.81,43.3 52.18,42.4 52.3,40.72 C52.4,39.35 48.5,39.04 46.09,38.35 C43.67,37.66 40.93,35.37 39.83,37.21 Z" fill="#FFFFFF"/>
  <path d="M36.23,23.39 C35,22.71 30.71,23.06 30.26,26.86 C29.91,29.8 33.66,34.41 35.86,33.03 C37.17,32.21 34.88,29.84 35.53,27.88 C36.06,26.31 37.95,24.33 36.23,23.39 Z" fill="#FFFFFF"/>
  <path d="M43.34,64.55 C42.05,64.78 42.22,67.45 42.51,68.42 C42.8,69.39 43.42,70.95 44.94,70.56 C46.1,70.26 45.95,68.35 45.7,67.23 C45.44,66.1 44.78,64.29 43.34,64.55 Z" fill="#FFFCFF"/>
  <path d="M31.39,74.17 C30.11,74.34 30.15,75.64 30.53,77.24 C30.8,78.39 31.71,79.71 32.8,79.42 C33.89,79.13 33.67,77.64 33.35,76.55 C33.06,75.6 32.73,73.99 31.39,74.17 Z" fill="#FFFCFF"/>
  <path d="M89.55,97.94 C88.19,98.01 88.29,99.74 88.24,101.45 C88.19,103.16 88.16,104.41 89.4,104.41 C90.65,104.41 90.59,102.14 90.62,101.09 C90.65,100.04 91,97.87 89.55,97.94 Z" fill="#FFFFFF"/>
</svg>