<svg viewBox="0 0 128 128" xmlns="http://www.w3.org/2000/svg">
  <defs/>
  <path d="M62.58,29.28 L18.68,72.14 L24.15,94.93 L18.16,115.91 L44.99,117.6 L93.45,117.73 L108.95,116.69 L109.74,71.49 L64.66,27.45 Z" fill="#C8A68F"/>
  <path d="M19.4,64.59 L15.89,69.27 L21.61,93.45 L16.54,115.94 L20.44,116.2 L26.55,96.18 L21.09,73.3 L64.64,33.27 L107.66,75.64 L107.66,115.68 L111.17,115.42 L111,69 L70.23,25.86 L63.08,23 Z" fill="#9E7B65"/>
  <path d="M19.16,53.94 L19.27,33.86 L31.99,28.3 L31.72,45.29 Z" fill="#AB5832"/>
  <path d="M12.55,64.36 L9.78,69.47 L15.95,69.4 C15.95,69.4 63.55,24.29 64.55,24.25 C65.76,24.2 110.94,70.08 110.94,70.08 L116.89,70.06 L67.47,16.79 L60.21,16.31 L47.67,28.95 L45.57,37.11 L39.32,37.36 L12.55,64.36 Z" fill="#2E1914"/>
  <path d="M4,68.19 C3.22,69.14 3.99,69.64 4.62,69.64 C5.25,69.64 12.06,69.48 12.06,69.48 L62.55,20.74 C62.55,20.74 63.7,19.56 64.52,19.6 C65.41,19.64 66.56,20.77 66.56,20.77 L116.84,70.06 C116.84,70.06 122.57,70.08 123.48,69.85 C124.47,69.61 123.97,68.8 122.75,67.36 C121.9,66.35 71.02,16.11 70.18,15.24 C67.68,12.66 66.46,11.16 64.1,11.26 C61.73,11.36 60.33,13.11 57.96,15.29 C57.73,15.5 44.38,27.86 44.38,27.86 L45.46,36.97 L39.53,33.32 C39.54,33.32 4.2,67.95 4,68.19 Z" fill="#553A30"/>
  <path d="M44.31,74.53 L37.89,74.53 L36.98,74.53 L25.98,74.53 C24.41,74.53 23.13,75.81 23.13,77.38 L23.13,89.06 L23.13,90.81 L23.13,97 C23.13,98.57 24.41,99.85 25.98,99.85 L36.98,99.85 L37.89,99.85 L44.31,99.85 C45.88,99.85 47.16,98.57 47.16,97 L47.16,90.81 L47.16,89.06 L47.16,77.38 C47.16,75.8 45.88,74.53 44.31,74.53 Z" fill="#3E2723"/>
  <path d="M50.34,111.73 C50.34,111.73 50.19,86.99 50.34,80.74 C50.49,74.5 56.35,69.1 63.14,69.33 C71.54,69.62 75.86,74.34 76.17,80.43 C76.48,86.52 76.48,112.11 76.48,112.11 L50.34,111.73 Z" fill="#36292B"/>
  <path d="M53.47,113.07 C53.47,113.07 53.35,86.71 53.47,81.83 C53.62,75.78 58.18,72.6 63.48,72.9 C69.65,73.25 72.7,76.53 72.94,81.3 C73.18,86.06 73.18,113.09 73.18,113.09 L53.47,113.07 Z" fill="#523833"/>
  <path d="M69.99,91.58 C69.97,87.24 69.93,83.41 69.87,82.24 C69.71,79.09 67.47,76.64 63.12,76.49 C59.61,76.37 56.72,79.11 56.64,82.34 C56.61,83.53 56.62,87.27 56.64,91.53 L69.99,91.58 Z" fill="#362729"/>
  <path d="M56.67,96.45 C56.71,102.26 56.76,107.61 56.76,107.61 L70.03,107.65 C70.03,107.65 70.03,102.32 70.01,96.51 L56.67,96.45 Z" fill="#362729"/>
  <path d="M70.03,93.81 C69.98,95.22 70.55,96.36 72.22,96.36 C73.89,96.36 74.5,95.58 74.62,94.07 C74.72,92.72 73.79,91.52 72.22,91.62 C70.66,91.73 70.07,92.82 70.03,93.81 Z" fill="#886A57"/>
  <path d="M100.63,74.53 L93.3,74.53 L93.3,80.68 L90.24,80.75 L90.24,74.53 L82.3,74.53 C80.73,74.53 79.45,75.81 79.45,77.38 L79.45,85.85 L84.87,85.85 L84.83,89.06 L79.45,89.06 L79.45,97 C79.45,98.57 80.73,99.85 82.3,99.85 L89.33,99.85 L90.24,99.85 L100.62,99.85 C102.19,99.85 103.47,98.57 103.47,97 L103.47,90.81 L103.47,89.06 L103.47,77.38 C103.47,75.8 102.2,74.53 100.63,74.53 Z" fill="#3E2723"/>
  <path d="M33.74,51.01 C33.74,51.01 40.41,53.04 40.9,53.61 C41.39,54.18 43.83,61.42 44.23,61.74 C44.64,62.07 58.3,63.29 58.46,62.88 C58.71,62.26 47.15,57.27 47.15,57.27 C47.15,57.27 47.88,52.14 47.72,51.65 C47.56,51.16 39.59,46.28 39.59,46.28 L33.74,51.01 Z" fill="#2E1914"/>
  <path d="M44.08,41.96 C44.08,41.96 52.94,49.62 53.76,48.89 C54.57,48.16 49.86,36.04 49.86,36.04 L44.08,41.96 Z" fill="#2E1914"/>
  <path d="M101.45,101.35 C101.55,101.63 102.22,103.79 102.22,103.79 C102.22,103.79 92.85,104.31 92.57,104.59 C92.29,104.87 88.58,110.05 88.02,110.69 C87.47,111.34 87.55,112.19 88.94,111.17 C90.33,110.15 94.24,107.36 94.24,107.36 C94.24,107.36 105.79,106.78 106.08,106.44 C106.23,106.26 105.34,103.2 105.34,103.2 C105.34,103.2 109.95,100.33 111.13,99.35 C111.54,99.01 111.11,94.94 111.11,94.94 L101.45,101.35 Z" fill="#3E2723"/>
  <path d="M83.65,94.95 C83.83,94.83 92.65,84.09 92.65,84.09 L101.11,75.75 L105.31,79.23 C105.31,79.23 100.33,85.95 98.29,88.17 C96.25,90.39 94.69,91.77 92.95,93.63 C91.21,95.49 87.91,99.81 87.91,99.81 L83.59,95.91 L83.65,94.95 Z" fill="#6D4C41"/>
  <path d="M82.21,94.89 C82.21,94.89 88.57,87.63 91.45,84.15 C94.33,80.67 99.71,74.57 99.71,74.57 L101.8,76.32 C101.8,76.32 96.66,81.4 94.56,83.68 C92.46,85.96 89.28,89.68 87.9,91.3 C86.52,92.92 84.18,96.46 84.18,96.46 L82.21,94.89 Z" fill="#885C51"/>
  <path d="M51.02,73.6 C51.02,73.6 49.95,74.83 49.52,75.94 C49.09,77.05 48.08,80.02 48.08,80.02 L57.92,85.24 L67.34,86.98 L68.78,83.38 C68.78,83.38 60.32,78.52 58.16,77.62 C56,76.71 51.02,73.6 51.02,73.6 Z" fill="#865C51"/>
  <path d="M76.39,94.28 C76.39,94.28 78.24,88.39 78.42,88.34 C78.6,88.29 68.78,83.37 68.78,83.37 L57.92,85.23 C57.92,85.23 65.42,88.83 67.7,90.03 C69.98,91.23 76.39,94.28 76.39,94.28 Z" fill="#6E4D42"/>
  <path d="M49.69,110.56 L53.23,109.81 L64.82,101.07 C64.82,101.07 57.44,102.15 54.86,102.69 C52.28,103.23 48.02,103.95 48.02,103.95 C48.02,103.95 48.62,107.07 48.86,107.79 C49.1,108.5 49.69,110.56 49.69,110.56 Z" fill="#865C51"/>
  <path d="M78.01,105.08 L77.59,99.08 L61.28,101.6 C61.28,101.6 56.78,105.8 55.46,107 C54.14,108.2 53.18,109.82 53.18,109.82 C53.18,109.82 61.88,107.9 66.26,107 C70.64,106.1 78.01,105.08 78.01,105.08 Z" fill="#6D4C41"/>
  <path d="M26.61,75.57 L25.83,88.95 L31.53,89.73 L34.29,85.23 L34.41,75.75 Z" fill="#865C51"/>
  <path d="M36.27,75.99 L36.03,85.17 L41.73,84.75 L44.67,79.89 L44.67,75.81 Z" fill="#865C51"/>
  <path d="M25.71,96.93 L25.83,88.95 L34.29,85.23 L34.41,96.75 Z" fill="#6D4C41"/>
  <path d="M35.97,97.47 L36.03,85.17 L36.07,84.19 L44.67,79.99 C44.67,79.99 44.78,85.11 44.6,88.05 C44.42,90.99 44.84,97.35 44.66,97.47 C44.58,97.52 42.63,97.78 40.7,97.77 C38.36,97.75 35.97,97.47 35.97,97.47 Z" fill="#6D4C41"/>
  <path d="M38.85,102.01 C38.65,102.47 38.45,106.36 38.9,106.56 C39.36,106.76 46.89,106.51 47.04,106.36 C47.19,106.21 47.19,102.11 46.89,101.81 C46.59,101.5 39.01,101.66 38.85,102.01 Z" fill="#865C51"/>
  <path d="M30.31,65.4 C29.8,66.06 29.96,70.25 30.21,70.61 C30.47,70.98 33.25,70.96 36.02,70.93 C38.04,70.9 40.25,70.96 40.53,70.66 C40.86,70.31 40.8,68.94 40.88,67.83 C40.96,66.7 41.07,65.71 40.42,65.35 C39.96,65.1 37.76,65.2 35.82,65.2 C32.99,65.2 30.52,65.13 30.31,65.4 Z" fill="#865C51"/>
  <path d="M77.91,56.05 C77.29,56.5 77.33,60.67 77.69,61.03 C78.05,61.39 87.86,61.53 88.22,61.1 C88.58,60.67 88.58,56.48 88.22,56.12 C87.86,55.76 78.41,55.69 77.91,56.05 Z" fill="#865C51"/>
  <path d="M86.85,64.78 C86.62,65.31 86.56,68.89 86.92,69.54 C87.28,70.19 97.47,70.06 97.69,69.77 C97.91,69.48 98.03,64.71 97.82,64.49 C97.6,64.28 87.28,63.77 86.85,64.78 Z" fill="#865C51"/>
  <path d="M106.44,78.58 C106.13,79.1 106.13,83 106.62,83.49 C107.11,83.98 112.2,83.85 112.47,83.53 C112.74,83.22 112.65,78.93 112.38,78.62 C112.11,78.31 106.75,78.04 106.44,78.58 Z" fill="#865C51"/>
  <path d="M104.87,108.49 C104.41,109.13 104.47,112.69 104.91,112.86 C105.35,113.03 110.89,113.04 111.25,112.73 C111.61,112.42 111.56,108.67 111.43,108.45 C111.3,108.22 105.1,108.18 104.87,108.49 Z" fill="#865C51"/>
  <path d="M78.6,119.19 C78.93,120.19 80.71,119.97 80.71,119.97 C80.71,119.97 96.05,119.86 99.28,119.86 C102.5,119.86 110.95,119.64 110.95,119.64 C110.95,119.64 117.06,111.08 115.84,110.52 C114.62,109.96 100.05,115.75 100.05,115.75 C100.05,115.75 103.61,109.52 102.94,108.75 C102.27,107.97 92.41,111.49 90.27,112.42 C81.49,116.19 78.6,119.19 78.6,119.19 Z" fill="#728035"/>
  <path d="M10.56,113.86 C10.4,114.8 13.78,117.2 15.34,118.53 C16.77,119.76 18.79,120.86 18.79,120.86 C18.79,120.86 28.02,120.97 33.47,120.75 C38.92,120.53 44.7,120.86 46.14,120.64 C47.58,120.42 45.92,115.75 42.47,111.41 C39.02,107.07 36.58,105.3 35.8,105.74 C35.02,106.18 36.36,111.3 36.36,111.3 C36.36,111.3 24.69,106.85 24.24,108.3 C23.8,109.75 26.57,114.64 26.57,114.64 C26.57,114.64 19.79,113.42 16.9,113.31 C14.01,113.2 10.67,113.19 10.56,113.86 Z" fill="#728035"/>
  <path d="M80.95,118.94 C80.95,118.94 81.34,112.47 80.95,111.93 C80.56,111.39 62.48,111.77 59.13,111.77 C55.78,111.77 45.88,111.61 45.49,112.08 C45.1,112.55 45.41,119.56 45.41,119.56 L51.1,123.07 L80.95,118.94 Z" fill="#858585"/>
  <path d="M45.41,124.24 L45.41,119.56 C45.41,119.56 51.96,119.01 62.4,118.78 C72.84,118.55 80.95,118.94 80.95,118.94 C80.95,118.94 80.48,121.67 80.33,122.53 C80.17,123.39 79.47,124.32 79.47,124.32 L45.41,124.24 Z" fill="#5E6367"/>
</svg>