<svg viewBox="0 0 128 128" xmlns="http://www.w3.org/2000/svg">
  <defs/>
  <path d="M76.11,60.1 L71.61,58.71 L58.81,56.34 C58.81,56.34 49.92,45.33 49.58,44.92 C49.24,44.51 48.01,40.61 48.01,40.61 C48.01,40.61 47.34,40.71 46.89,40.32 C46.37,39.88 45.64,38 45.64,38 L35.15,47.39 C35.15,47.39 36.39,48.06 36.72,48.89 C37.05,49.71 37.01,50.17 37.01,50.17 L47.29,55.12 L55.38,71.3 C55.38,71.3 53.88,73.49 53.72,75.31 C53.14,81.96 57.21,89.22 60.58,94.03 C62.21,96.36 71.47,107.9 74.65,111.08 C77.83,114.26 85.82,123.41 87.66,123.99 C89.49,124.57 93.05,123.8 95.75,123.03 C98.45,122.26 102.01,120.72 104.23,119.18 C106.45,117.64 107.02,113.3 104.23,109.84 C101.44,106.38 76.11,60.1 76.11,60.1 Z" fill="#485020"/>
  <path d="M44,50.41 L40.39,52.84 C40.39,52.84 43.61,55.99 48.14,64.01 C52.67,72.03 53.66,77.28 53.66,77.28 C53.66,77.28 55.43,76.69 56.88,76.16 C58.33,75.63 62.2,74.25 62.2,74.25 C62.2,74.25 56.09,63.67 54.38,60.72 C52.67,57.77 47.22,51.26 47.02,51.13 C46.83,51 44,50.41 44,50.41 Z" fill="#F6AF41"/>
  <path d="M49.52,43.38 L45.12,50.94 C45.12,50.94 49.78,56.98 52.61,62.04 C55.44,67.1 58.65,75.53 58.65,75.53 C58.65,75.53 64.96,73.09 69.05,72.16 C74.2,70.99 77.75,70.88 77.98,70.56 C78.37,70.01 75.02,63.02 74.36,61.71 C73.7,60.4 72.85,59.08 72.85,59.08 C72.85,59.08 65.69,56.85 59.38,51.92 C53.07,46.99 49.52,43.38 49.52,43.38 Z" fill="#F7C876"/>
  <path d="M59.51,77.74 C59.51,77.74 65.42,74.91 72.19,73.73 C78.96,72.55 81.19,72.94 81.59,72.35 C81.98,71.76 76.07,60.06 76.07,60.06 C76.07,60.06 79.75,61.11 85.66,65.12 C91.57,69.13 97.26,75.23 97.26,75.23 L114.57,94.68 C114.57,94.68 117,97.18 117.07,100.07 C117.14,102.96 115.7,106.15 113.41,109.98 C107.85,119.25 96.52,123.09 96.12,122.89 C95.73,122.69 87.37,114.26 81.06,107.3 C74.75,100.34 66.75,91.54 63.72,86.41 C59.71,79.65 59.51,77.74 59.51,77.74 Z" fill="#317C31"/>
  <path d="M77.84,92.4 C77.58,93.78 95.34,113.63 96.76,113.69 C98.47,113.75 106.28,110.05 110.54,102.42 C113.88,96.44 113.16,93.09 113.04,92.94 C112.8,92.63 99.24,77.25 98.41,76.31 C96.96,74.67 93.16,71.2 93.16,71.2 C93.16,71.2 92.48,75.44 89.02,80.58 C83.55,88.65 78.01,91.52 77.84,92.4 Z" fill="#F5B03E"/>
  <path d="M90.82,81.81 C86.67,86.79 84.71,94.36 91.08,101.26 C97.45,108.16 105.6,104.1 108.1,99.29 C110.79,94.1 109.66,89.05 109.66,89.05 C109.66,89.05 106.13,84.84 104.36,82.87 C102.59,80.9 100.32,78.47 100.32,78.47 C100.32,78.47 94.43,77.48 90.82,81.81 Z" fill="#FFEBCA"/>
  <path d="M36.38,37.54 C33.19,40.27 31.65,44.7 34.01,46.94 C36.38,49.17 40.61,47.3 43.01,45.1 C46.29,42.1 47.41,39.12 45.05,36.62 C42.69,34.12 39.14,35.17 36.38,37.54 Z" fill="#317C31"/>
  <path d="M36.98,49.93 C36.98,49.93 41.05,50.74 44.73,46.99 C48.41,43.24 48.01,40.61 48.01,40.61 C48.01,40.61 50.76,40.42 50.64,43.77 C50.51,47.38 45.45,53.69 39.34,53.49 C36.6,53.41 36.98,49.93 36.98,49.93 Z" fill="#317C31"/>
  <path d="M39.59,27.15 C39.59,27.15 40.04,23.28 37.79,23.06 C35.04,22.8 34.21,25.64 34.21,27.62 C34.21,29.6 34.08,32.94 34.08,32.94 L27.38,35.37 C27.38,35.37 23.77,34.8 22.69,36.89 C21.75,38.72 23.18,39.9 23.18,39.9 L34.48,38.2 C34.48,38.2 38.49,33.34 38.49,32.94 C38.49,32.54 39.59,27.15 39.59,27.15 Z" fill="#FFF1C2"/>
  <path d="M36.12,30.9 C36.12,30.9 35.77,23.81 37.89,23.48 C39.56,23.22 39.66,25.19 39.73,26.11 C39.8,27.03 40.34,36.8 40.32,37.28 C40.25,39.25 37.76,41.75 34.93,41.81 C33.94,41.83 24.35,41.28 23.17,39.97 C22.49,39.21 23.5,38.33 24.29,37.93 C25.08,37.53 26.92,37.54 26.92,37.54 C26.92,37.54 25.34,34.52 27.77,32.42 C30.21,30.31 36.12,30.9 36.12,30.9 Z" fill="#FEE465"/>
  <path d="M34.35,13.36 C36.06,13.29 36.39,10.73 36.12,8.04 C35.86,5.35 35.14,3.32 33.56,3.44 C31.79,3.57 31.39,6.2 31.65,8.56 C31.91,10.92 32.64,13.42 34.35,13.36 Z" fill="#FEE465"/>
  <path d="M39.73,19.53 C41.17,20.09 42.49,17.89 43.01,16.31 C43.54,14.73 44,12.57 42.35,11.78 C40.71,10.99 39.33,13.49 38.93,15 C38.53,16.51 38.22,18.94 39.73,19.53 Z" fill="#FEE465"/>
  <path d="M18.12,35.43 C18.12,36.55 16.54,37.66 13.59,37.73 C10.63,37.8 9.19,36.42 9.25,34.71 C9.32,33 12.08,32.48 13.85,32.74 C15.62,33 18.12,33.79 18.12,35.43 Z" fill="#FEE465"/>
  <path d="M26.87,15.7 C26.87,15.7 24.66,12.27 22.86,12.15 C21.54,12.06 18.19,13.33 15.76,15.64 C12.87,18.4 11.73,22.01 12.02,23 C12.4,24.32 14.52,26.48 15.11,26.68 C15.7,26.88 25.82,24.18 25.82,23.92 C25.82,23.66 26.87,15.7 26.87,15.7 Z" fill="#F2A259"/>
  <path d="M21.94,22.34 C17.48,26.18 14.1,25.91 14.1,25.91 C14.1,25.91 15.18,27.46 16.16,27.53 C17.15,27.6 18.07,27.4 18.07,27.4 C18.07,27.4 21.03,31.47 23.06,31.47 C25.09,31.47 26.9,30.51 28.64,28.91 C30.22,27.46 31.47,25.69 31.27,23.79 C31.16,22.74 27.79,18.99 27.79,18.99 C27.79,18.99 27.77,17.78 27.57,17.06 C27.37,16.34 26.67,15.45 26.67,15.45 C26.67,15.45 25.84,18.98 21.94,22.34 Z" fill="#CD844F"/>
</svg>