<svg viewBox="0 0 128 128" xmlns="http://www.w3.org/2000/svg">
  <g>
    <path d="M3.16,33.47v65.27c0,1.11,0.9,2.02,2.02,2.02h115.96c1.11,0,2.02-0.9,2.02-2.02V33.47 c0-1.11-0.9-2.02-2.02-2.02H5.18C4.06,31.45,3.16,32.36,3.16,33.47z M86.17,96.28c-5.57,3.57-11.49-2.34-7.91-7.91 c0.24-0.38,0.56-0.7,0.94-0.94c5.57-3.57,11.49,2.34,7.91,7.91C86.86,95.72,86.54,96.04,86.17,96.28z M86.17,79.45 c-5.57,3.57-11.49-2.34-7.91-7.91c0.24-0.38,0.56-0.7,0.94-0.94c5.57-3.57,11.49,2.34,7.91,7.91 C86.86,78.88,86.54,79.21,86.17,79.45z M86.17,61.62c-5.57,3.57-11.49-2.34-7.91-7.91c0.24-0.38,0.56-0.7,0.94-0.94 c5.57-3.57,11.49,2.34,7.91,7.91C86.86,61.05,86.54,61.38,86.17,61.62z M86.17,44.79c-5.57,3.57-11.49-2.34-7.91-7.91 c0.24-0.38,0.56-0.7,0.94-0.94c5.57-3.57,11.49,2.34,7.91,7.91C86.86,44.22,86.54,44.55,86.17,44.79z" fill="#A65F3E"/>
    <path d="M3.16,30.47v65.27c0,1.11,0.9,2.02,2.02,2.02h115.96c1.11,0,2.02-0.9,2.02-2.02V30.47 c0-1.11-0.9-2.02-2.02-2.02H5.18C4.06,28.45,3.16,29.36,3.16,30.47z M86.17,93.28c-5.57,3.57-11.49-2.34-7.91-7.91 c0.24-0.38,0.56-0.7,0.94-0.94c5.57-3.57,11.49,2.34,7.91,7.91C86.86,92.72,86.54,93.04,86.17,93.28z M86.17,76.45 c-5.57,3.57-11.49-2.34-7.91-7.91c0.24-0.38,0.56-0.7,0.94-0.94c5.57-3.57,11.49,2.34,7.91,7.91 C86.86,75.88,86.54,76.21,86.17,76.45z M86.17,58.62c-5.57,3.57-11.49-2.34-7.91-7.91c0.24-0.38,0.56-0.7,0.94-0.94 c5.57-3.57,11.49,2.34,7.91,7.91C86.86,58.05,86.54,58.38,86.17,58.62z M86.17,41.79c-5.57,3.57-11.49-2.34-7.91-7.91 c0.24-0.38,0.56-0.7,0.94-0.94c5.57-3.57,11.49,2.34,7.91,7.91C86.86,41.22,86.54,41.55,86.17,41.79z" fill="#FFD54F"/>
    <g opacity="0.8">
      <line fill="none" stroke="#4E342E" stroke-width="8" stroke-linecap="round" stroke-miterlimit="10" x1="15.06" x2="47.62" y1="51.03" y2="51.03"/>
      <line fill="none" stroke="#4E342E" stroke-width="8" stroke-linecap="round" stroke-miterlimit="10" x1="15.06" x2="38.13" y1="66.51" y2="66.51"/>
      <line fill="none" stroke="#4E342E" stroke-width="8" stroke-linecap="round" stroke-miterlimit="10" x1="54.09" x2="58.93" y1="66.51" y2="66.51"/>
    </g>
    <g opacity="0.5">
      <rect height="9.3" fill="#6D4C41" width="3" x="13.56" y="80.46"/>
      <rect height="9.3" fill="#6D4C41" width="3" x="38.71" y="80.46"/>
      <rect height="9.3" fill="#6D4C41" width="3" x="44.15" y="80.46"/>
      <rect height="9.3" fill="#6D4C41" width="6" x="19.47" y="80.46"/>
      <rect height="9.3" fill="#6D4C41" width="7" x="49.66" y="80.46"/>
      <rect height="9.3" fill="#6D4C41" width="8" x="28.14" y="80.46"/>
    </g>
    <path d="M122.04,28.45H4.27c-0.62,0-1.11,0.5-1.11,1.11v9.96h74.45c-0.72-1.67-0.64-3.77,0.76-5.82 c0.19-0.28,0.44-0.53,0.72-0.72c4.42-2.93,9.1,0.17,9.1,4.36c0,0.77-0.16,1.51-0.45,2.17h35.41v-9.96 C123.16,28.95,122.66,28.45,122.04,28.45z" fill="#E2A610"/>
    <rect height="16.69" opacity="0.5" fill="#6D4C41" width="18.23" x="97.81" y="48.68"/>
    <line opacity="0.8" fill="none" stroke="#4E342E" stroke-width="3" stroke-linecap="round" stroke-miterlimit="10" x1="98.98" x2="108.05" y1="74.14" y2="74.14"/>
    <line opacity="0.8" fill="none" stroke="#4E342E" stroke-width="3" stroke-linecap="round" stroke-miterlimit="10" x1="98.98" x2="113.26" y1="80.46" y2="80.46"/>
  </g>
</svg>