<svg viewBox="0 0 128 128" xmlns="http://www.w3.org/2000/svg">
  <defs/>
  <path d="M20.24,47.26 C20.24,47.26 14.76,50.71 14.13,54.15 C13.5,57.6 14.76,61.67 16.48,64.33 C18.2,66.99 20.24,69.19 22.75,70.13 C25.26,71.07 27.45,70.91 27.45,70.91 C27.45,70.91 33.25,77.49 43.58,86.42 C53.91,95.35 67.08,106 81.96,114.3 C96.84,122.6 102.17,124.64 106.24,124.64 C110.31,124.64 110.16,118.53 109.69,116.65 C109.22,114.77 83.06,85.64 83.06,85.64 L20.24,47.26 Z" fill="#FF8E00"/>
  <path d="M31.21,62.46 L27.29,58.23 C27.29,58.23 23.22,50.55 19.46,50.55 C15.7,50.55 14.13,54.15 14.13,54.15 C14.13,54.15 13.66,50.23 18.36,42.72 C23.06,35.21 29.01,29.25 34.34,25.49 C39.67,21.73 46.24,17.34 50.63,14.84 C55.02,12.34 64.57,9.2 70.06,7.32 C75.54,5.44 87.45,3.09 92.93,4.19 C98.41,5.29 100.76,9.05 100.76,12.96 C100.76,16.87 99.82,19.54 99.04,20.32 C98.26,21.1 93.09,25.49 93.09,25.49 L31.21,62.46 Z" fill="#F5B03E"/>
  <path d="M42.2,45.95 L32.49,52.22 L28.42,60.21 C28.42,60.21 29.2,62.87 30.46,64.28 C31.71,65.69 42.2,75.74 49.71,82.16 C55.57,87.17 68.06,97.8 68.06,97.8 C68.06,97.8 68.57,103.14 69.16,106.89 C69.63,109.87 69.66,114.84 72.8,114.7 C76.76,114.52 74.48,106.5 77.62,106.58 C83.89,106.74 77.67,123.7 84.41,123.61 C89.78,123.54 86.37,114.27 89.06,112.69 C90.52,111.83 93.42,115.48 98.15,117.55 C103.99,120.1 107.55,122.03 109.43,121.15 C113.4,119.29 105.03,75.92 104.09,68.56 C103.15,61.2 98.47,23.4 98.15,22.15 C97.83,20.9 91.41,20.74 91.41,20.74 L81.54,24.19 L67.44,26.07 L50.84,35.94 L42.2,45.95 Z" fill="#FFCC8A"/>
  <path d="M39.75,44.38 C36.67,46.12 32.7,47.09 29.35,52.61 C26.56,57.21 25.82,61.92 27.81,62.28 C29.8,62.64 31.31,55.7 33.96,53.06 C38.21,48.81 41.65,48.36 44.09,46.1 C46.53,43.84 49.2,37.7 59.37,32.27 C71.22,25.94 78.3,27.61 81.07,26.57 C84.69,25.21 85.67,22.99 90.2,22.05 C94.99,21.06 98.32,22.97 98.32,22.97 C98.32,22.97 99.41,20.44 97.96,19.26 C96.51,18.08 93.84,17.16 89.38,18.07 C84.5,19.06 80.88,22.32 79.89,22.41 C78.9,22.5 68.77,21.96 56.74,28.83 C44.71,35.7 42.46,42.84 39.75,44.38 Z" fill="#CB6C22"/>
  <path d="M53.58,55.32 L37.4,58.85 C37.4,58.85 37.15,61.92 37.31,62.83 C37.85,65.9 41.92,70.79 44.36,71.6 C46.8,72.41 51.77,72.5 53.4,71.78 C55.03,71.06 59.91,67.53 60.54,65.63 C61.17,63.73 61,55.78 59.74,54.51 C58.48,53.25 53.58,55.32 53.58,55.32 Z" fill="#DB0D27"/>
  <path d="M42.19,50.26 C40.46,51.6 37.13,56.14 37.4,59.39 C37.67,62.65 43.28,68.34 44.81,68.88 C46.34,69.42 51.32,69.51 52.59,69.15 C53.86,68.79 58.74,65.17 59.46,63.91 C60.18,62.64 60.82,55.59 59.64,54.33 C58.46,53.07 54.94,49.36 52.14,48.54 C49.33,47.73 43.82,48.99 42.19,50.26 Z" fill="#ED6D30"/>
  <path d="M83.6,65.45 C83.6,65.45 69.28,64.42 69.1,65.32 C68.92,66.22 68.59,69.7 69.5,72.5 C70.14,74.49 71.67,77.93 76.37,79.91 C81.07,81.89 85.59,79.73 86.77,78.82 C88.98,77.12 90.39,75.02 90.75,73.76 C91.11,72.5 83.6,65.45 83.6,65.45 Z" fill="#DB0D27"/>
  <path d="M76.64,57.94 C74.43,58.74 69.14,62.01 69.04,65.63 C68.95,69.25 71.57,73.68 72.93,74.67 C74.29,75.66 78.81,78.29 82.15,78.11 C85.5,77.93 90.11,75.22 90.74,73.77 C91.37,72.32 91.64,68.07 91.37,65.9 C91.1,63.73 86.4,58.85 84.05,58.12 C81.7,57.4 78.63,57.22 76.64,57.94 Z" fill="#ED6D30"/>
  <path d="M76.1,91.76 C76.1,91.76 62.99,88.14 62.81,88.41 C62.63,88.68 60.82,90.94 61.27,92.03 C61.72,93.12 66.33,96.82 68.23,98.45 C70.13,100.08 75.87,103.45 76.55,103.33 C78.18,103.06 79.44,100.44 79.44,100.44 L76.1,91.76 Z" fill="#DB0D27"/>
  <path d="M77.27,86.24 C74.07,83.89 69.4,84.07 66.87,85.25 C64.34,86.43 62.8,87.96 62.53,89.14 C62.26,90.32 64.35,92.59 65.17,93.22 C65.98,93.85 68.44,95.71 68.44,95.71 C68.44,95.71 72.09,98.57 73.44,99.61 C75.32,101.06 77.68,101.88 78.31,101.97 C78.94,102.06 81.88,98.26 81.34,93.19 C81.06,90.6 79.96,88.22 77.27,86.24 Z" fill="#ED6D30"/>
  <path d="M100.06,79.01 L95.18,78.83 C95.18,78.83 93.19,82.54 94.55,86.7 C95.66,90.1 97.99,92.13 101.87,93.21 C105.76,94.3 107.93,93.91 107.93,93.91 L107.99,91.18 L100.06,79.01 Z" fill="#DB0D27"/>
  <path d="M104.76,72.77 C104.76,72.77 98.74,72.06 95.63,77.65 C93.25,81.94 94.91,85.52 96.81,87.6 C98.71,89.68 101.6,91.04 103.77,91.22 C105.94,91.4 108.04,91.23 108.04,91.23 C108.04,91.23 107.2,85.68 106.38,81.04 C105.88,78.26 104.76,72.77 104.76,72.77 Z" fill="#ED6D30"/>
  <path d="M87.22,33.62 C87.22,33.62 75.56,33.98 74.83,35.16 C74.1,36.34 74.11,41.58 74.47,43.66 C74.83,45.74 78,50.8 84.33,50.89 C90.66,50.98 92.89,49.4 95.35,44.62 C97.81,39.84 95.25,34.49 95.25,34.49 L87.22,33.62 Z" fill="#DB0D27"/>
  <path d="M87.31,28.28 C84.78,27.79 81.25,28.82 79.53,30 C77.81,31.18 75.01,33.62 74.83,35.43 C74.65,37.24 76.28,42.48 76.91,43.48 C77.54,44.47 80.16,47.16 80.98,47.55 C82.88,48.45 88.12,48 89.66,47.46 C91.2,46.92 95.45,43.48 95.9,41.67 C96.35,39.86 96.89,36.79 94.81,33.08 C92.73,29.37 89.66,28.74 87.31,28.28 Z" fill="#ED6D30"/>
  <path d="M103.78,104.17 L93.37,103.72 C93.37,103.72 91.97,106.53 92.39,108.99 C92.73,111.03 94.42,113.81 97.45,114.98 C99.17,115.64 103.67,115.21 104.77,114.46 C106.99,112.94 107.7,110.18 107.63,108.76 C107.6,108.02 103.78,104.17 103.78,104.17 Z" fill="#DB0D27"/>
  <path d="M101.51,99.75 C98.81,99.34 95.7,100.8 94.36,102.19 C93.02,103.58 92.75,105.32 93.26,107.42 C94.19,111.26 96.65,112.35 97.79,112.94 C99.48,113.81 104.12,113.64 105.58,112.53 C107.03,111.43 108.13,109.55 107.79,106.66 C107.44,103.76 106.16,100.45 101.51,99.75 Z" fill="#ED6D30"/>
  <path d="M36,31.03 C36.09,33.19 39.87,32.82 41.36,32.67 C42.55,32.55 45.53,32.3 45.53,30.36 C45.53,28.42 42.93,28.43 40.99,28.5 C39.12,28.57 35.92,29.32 36,31.03 Z" fill="#FCC12B"/>
  <path d="M56.31,18.31 C56.31,19.73 57.87,19.87 58.84,19.95 C59.81,20.02 61.07,19.65 61.15,18.54 C61.22,17.42 60.26,16.75 58.84,16.68 C57.35,16.59 56.31,17.11 56.31,18.31 Z" fill="#FCC12B"/>
  <path d="M65.61,21.73 C67.04,23.28 69.18,21.21 69.93,20.24 C70.67,19.27 70.82,17.78 70,17.04 C69.18,16.3 67.62,17.11 66.58,18.08 C65.54,19.05 64.72,20.76 65.61,21.73 Z" fill="#FCC12B"/>
  <path d="M81.76,13.84 C83.5,15.81 86.37,12.5 87.56,11.38 C88.75,10.26 89.72,8.7 88.6,7.44 C87.48,6.18 84.95,7.96 83.99,9.08 C83.02,10.19 80.64,12.58 81.76,13.84 Z" fill="#FCC12B"/>
  <path d="M26.92,47.25 C28.61,47.65 29.16,45.65 29.45,44.12 C29.75,42.56 29.75,41.07 28.48,40.85 C27.04,40.6 26.25,42.04 26.02,43.45 C25.83,44.72 25.36,46.88 26.92,47.25 Z" fill="#FCC12B"/>
</svg>