<svg viewBox="0 0 128 128" xmlns="http://www.w3.org/2000/svg" xmlns:xlink="http://www.w3.org/1999/xlink">
  <g id="Layer_3">
    <g>
      <g>
        <g>
          <linearGradient id="SVGID_4_" gradientUnits="userSpaceOnUse" x1="4.4897" x2="18.4999" y1="58.2153" y2="58.2153">
            <stop offset="0.2321" style="stop-color:#FFAF61"/>
            <stop offset="1" style="stop-color:#C46D3D"/>
          </linearGradient>
          <path d="M10.91,65.03c-2.53,0-4-1.13-5.11-2.23c-2.11-2.11-1.28-5.82-0.25-7.14l0.11-0.15 c0.47-0.62,1.7-2.28,3.95-4.01c0.09-0.07,0.2-0.1,0.3-0.1c0.05,0,0.11,0.01,0.16,0.03c4.11,1.42,7.17,5.43,8.41,11.01 c0.04,0.17-0.02,0.35-0.14,0.47c-0.09,0.09-0.22,0.14-0.35,0.14c-0.01,0-0.02,0-0.03,0c-0.22,0.04-1.01,0.36-1.65,0.62 c-0.9,0.36-1.91,0.78-2.61,0.96C12.71,64.9,11.77,65.03,10.91,65.03z" fill="url(#SVGID_4_)"/>
          <path d="M9.92,51.9c4.46,1.54,7.04,5.94,8.08,10.64c-0.01,0-0.02,0-0.03,0c-0.43,0-3.07,1.25-4.39,1.61 c-1.01,0.27-1.89,0.39-2.66,0.39c-2.49,0-3.85-1.18-4.76-2.08c-1.91-1.9-1.07-5.37-0.21-6.48C6.25,55.58,7.48,53.77,9.92,51.9 M9.92,50.9c-0.22,0-0.43,0.07-0.61,0.21C7,52.88,5.74,54.58,5.26,55.22l-0.11,0.14c-1.12,1.44-2.02,5.49,0.3,7.8 c0.71,0.71,2.38,2.37,5.46,2.37c0.9,0,1.89-0.14,2.92-0.42c0.72-0.2,1.76-0.62,2.67-0.99c0.54-0.22,1.26-0.51,1.52-0.59 c0.25-0.01,0.49-0.1,0.67-0.28c0.25-0.24,0.36-0.6,0.28-0.94c-1.27-5.75-4.46-9.9-8.73-11.37C10.14,50.92,10.03,50.9,9.92,50.9 L9.92,50.9z" fill="#B05A2A"/>
        </g>
        <g>
          <linearGradient id="SVGID_6_" gradientUnits="userSpaceOnUse" x1="111.09" x2="111.09" y1="35.6796" y2="70.1902">
            <stop offset="1.244114e-03" style="stop-color:#C69C6D"/>
            <stop offset="7.110367e-03" style="stop-color:#C59B6C"/>
            <stop offset="0.6855" style="stop-color:#7D542C"/>
            <stop offset="1" style="stop-color:#603813"/>
          </linearGradient>
          <path d="M113.53,69.25c-0.95,0-1.71-0.21-2.19-0.38c-0.61-0.21-0.98-0.53-1.22-0.74 c-0.07-0.08-0.13-0.14-0.18-0.19h0.03l0.46,0.08c0.14,0.02,0.29,0.03,0.45,0.03l0.14,0.01l0.27-0.01 c0.17-0.01,0.34-0.02,0.54-0.05c2.16-0.37,3.9-1.85,4.33-3.67c0.28-1.19,0.05-2.47-0.65-3.71c-1.15-2.03-3.07-3.39-4.93-4.71 c-0.4-0.29-0.81-0.57-1.21-0.87c-0.55-0.41-1.11-0.8-1.68-1.2c-1.86-1.3-3.78-2.65-5.17-4.4c-2.08-2.59-3.08-5.64-2.81-8.59 c0.1-1.16,0.97-4.15,1.51-4.29c0.04,0.07,0.08,0.29,0.12,0.68c0.08,0.46,0.23,0.99,0.45,1.62c1.38,3.99,4.81,6.09,8.2,7.9 l0.6,0.32c3.25,1.73,6.6,3.51,8.88,6.14c2.76,3.18,3.7,6.81,2.59,9.96c-1.18,3.34-4.58,5.88-8.08,6.06 C113.82,69.24,113.67,69.25,113.53,69.25z" fill="url(#SVGID_6_)"/>
          <path d="M101.47,36.98L101.47,36.98L101.47,36.98 M100.97,37.92c0.08,0.33,0.2,0.69,0.34,1.11 c1.44,4.16,4.96,6.32,8.44,8.18l0.6,0.32c3.2,1.7,6.52,3.47,8.73,6.02c1.55,1.79,3.93,5.39,2.49,9.46 c-1.1,3.1-4.38,5.56-7.65,5.73c-0.14,0.01-0.28,0.01-0.41,0.01c-0.69,0-1.28-0.12-1.71-0.25c0.03,0,0.07-0.01,0.1-0.02 c2.36-0.4,4.26-2.03,4.73-4.05c0.31-1.31,0.06-2.72-0.7-4.07c-1.2-2.12-3.17-3.52-5.07-4.87c-0.4-0.28-0.8-0.57-1.2-0.86 c-0.55-0.41-1.12-0.81-1.69-1.21c-1.83-1.28-3.72-2.61-5.07-4.3c-1.16-1.44-3.04-4.43-2.7-8.23 C100.26,40.33,100.6,38.89,100.97,37.92 M101.21,36.06c-1.1,0-1.94,4.08-2,4.75c-0.31,3.46,1.04,6.6,2.92,8.95 c1.87,2.33,4.56,3.92,6.94,5.69c2.24,1.65,4.66,3.07,6,5.42c0.58,1.02,0.87,2.19,0.6,3.35c-0.39,1.68-2.04,2.97-3.92,3.29 c-0.26,0.04-0.48,0.04-0.7,0.06c-0.2-0.01-0.39-0.02-0.53-0.04c-0.3-0.05-0.46-0.08-0.46-0.08l-0.09-0.01 c-0.03,0-0.06-0.01-0.09-0.01c-0.1,0-0.21,0.03-0.3,0.08c-0.23,0.14-0.31,0.4-0.16,0.59c0,0,0.11,0.14,0.35,0.4 c0.26,0.23,0.69,0.6,1.4,0.84c0.6,0.22,1.41,0.41,2.36,0.41c0.15,0,0.31,0,0.47-0.02c3.89-0.2,7.36-3.1,8.53-6.39 c1.34-3.78-0.19-7.58-2.68-10.45c-2.48-2.86-6.17-4.73-9.62-6.57c-3.25-1.74-6.63-3.77-7.96-7.62 c-0.22-0.63-0.35-1.12-0.42-1.51c-0.04-0.43-0.09-0.66-0.09-0.66c-0.03-0.14-0.1-0.27-0.21-0.36 C101.43,36.09,101.32,36.06,101.21,36.06L101.21,36.06z" fill="#734825"/>
        </g>
        <path d="M80.01,115.8c-1.2,2.82-1.03,7.36-0.89,7.94 c0.18,0.72,7.39-3.89,7.39-4.43c0-0.49-0.35-3.67-0.41-4.24C83.89,115.04,82.16,115.25,80.01,115.8z" fill="#603813" stroke="#4D290A" stroke-miterlimit="10"/>
        <linearGradient id="SVGID_7_" gradientUnits="userSpaceOnUse" x1="94.4434" x2="89.9434" y1="112.4928" y2="95.7428">
          <stop offset="0.2321" style="stop-color:#FFAF61"/>
          <stop offset="0.4152" style="stop-color:#FCAC5F"/>
          <stop offset="0.572" style="stop-color:#F3A159"/>
          <stop offset="0.7192" style="stop-color:#E38F50"/>
          <stop offset="0.8597" style="stop-color:#CD7742"/>
          <stop offset="0.9051" style="stop-color:#C46D3D"/>
        </linearGradient>
        <path d="M105.07,102.8c0.35-0.22,0.61-0.55,0.74-0.94 c0.34-1,0.81-2.95-0.23-3.86c-1.43-1.25-8.76-13.59-8.04-14.48S81.45,84.6,81.45,84.6l3.22,2.68c0,0,5.01,6.79,8.22,9.65 s4.83,4.29,2.86,6.26s-12.81,8.22-14.49,9.55c-0.52,0.41-1.13,2.15-1.25,3.06c2.15-0.55,6.09-0.82,6.09-0.82L105.07,102.8z" fill="url(#SVGID_7_)" stroke="#B05A2A" stroke-miterlimit="10"/>
        <g>
          <linearGradient id="SVGID_8_" gradientUnits="userSpaceOnUse" x1="21.043" x2="43.2706" y1="81.2032" y2="90.6172">
            <stop offset="0.2321" style="stop-color:#FFAF61"/>
            <stop offset="0.4152" style="stop-color:#FCAC5F"/>
            <stop offset="0.572" style="stop-color:#F3A159"/>
            <stop offset="0.7192" style="stop-color:#E38F50"/>
            <stop offset="0.8597" style="stop-color:#CD7742"/>
            <stop offset="0.9051" style="stop-color:#C46D3D"/>
          </linearGradient>
          <path d="M40.08,108.29c-0.54-0.25-1.09-0.52-1.66-0.79c-0.59-0.29-1.21-0.51-1.8-0.72 c-1.45-0.52-2.82-1.01-3.25-2.31c-0.44-1.3-5.36-5.97-6.86-7.28c-1.55-1.35-2.11-3.43-1.51-5.57c0.49-1.73,1.67-3.02,2.93-3.23 c2.86-0.47,11.73-4.03,12.5-4.34c9.9-6.96,12.52-7.76,13.62-7.76c0.65,0,0.95,0.31,1.09,0.56c0.62,1.14-0.85,3.56-3.33,7.41 c-1.19,1.84-2.82,4.36-2.72,4.92c0.15,0.31,0.14,0.67-0.03,1.01c-0.82,1.62-5.75,2.75-12.1,4.05c-1.96,0.4-4.16,0.86-4.81,1.13 c0.48,1.02,5.02,5.13,6.86,6.1c0.08,0.04,0.28,0.06,0.48,0.08c0.7,0.06,1.75,0.15,3.06,1.25l0.29,0.24l-0.16,0.35 c-0.67,1.49-1.37,3.08-1.93,4.63l-0.19,0.52L40.08,108.29z" fill="url(#SVGID_8_)"/>
          <path d="M54.04,76.78c3.41,0-6.14,11.02-5.42,12.58c1.27,2.77-16.75,4.83-17,5.77s5.28,5.79,7.15,6.77 c0.55,0.29,1.75-0.16,3.46,1.27c-0.7,1.56-1.39,3.11-1.95,4.67c-0.53-0.25-1.09-0.52-1.66-0.79c-2.03-0.98-4.29-1.21-4.8-2.74 c-0.51-1.53-5.84-6.48-7.01-7.5c-3.01-2.61-1.17-7.54,1.18-7.93c3.06-0.5,12.66-4.4,12.66-4.4 C48.73,78.8,52.58,76.78,54.04,76.78 M54.04,75.78c-1.27,0-4,0.89-13.87,7.82c-1.05,0.42-9.59,3.84-12.34,4.29 c-1.47,0.24-2.78,1.65-3.33,3.59c-0.66,2.33-0.04,4.6,1.66,6.08c2.15,1.87,6.37,6.04,6.71,7.06c0.51,1.53,2.06,2.08,3.56,2.62 c0.58,0.21,1.19,0.43,1.76,0.7c0.57,0.28,1.13,0.54,1.67,0.8l0.99,0.47l0.37-1.03c0.55-1.53,1.22-3.05,1.92-4.6l0.31-0.69 l-0.58-0.49c-1.43-1.2-2.63-1.31-3.34-1.37c-0.12-0.01-0.29-0.03-0.34-0.04c-1.47-0.77-5.03-3.89-6.22-5.37 c0.94-0.25,2.58-0.59,4.08-0.9c6.91-1.42,11.51-2.49,12.44-4.31c0.21-0.42,0.25-0.88,0.1-1.31c0.14-0.71,1.63-3.03,2.63-4.57 c2.89-4.48,4.09-6.58,3.35-7.92C55.41,76.29,54.99,75.78,54.04,75.78L54.04,75.78z" fill="#B05A2A"/>
        </g>
        <g>
          <path d="M46.03,111.92c-0.16,0-0.32-0.03-0.47-0.09c-1.14-0.43-3.39-1.48-5.62-3.65l-0.23-0.22l0.11-0.3 c0.57-1.58,1.28-3.19,1.96-4.7l0.13-0.29l0.32-0.01c0.43-0.01,0.87-0.02,1.32-0.04c0.64-0.02,1.29-0.04,1.89-0.04 c1.9,0,2.85,0.24,3.28,0.83c0.16,0.22,0.31,0.61,0.13,1.16c-0.45,1.33-1.19,4.83-1.49,6.27 C47.22,111.47,46.67,111.92,46.03,111.92L46.03,111.92z" fill="#603813"/>
          <path d="M45.44,103.08c1.86,0,3.3,0.22,2.93,1.33c-0.45,1.33-1.17,4.69-1.51,6.33 c-0.08,0.41-0.44,0.68-0.83,0.68c-0.1,0-0.2-0.02-0.3-0.05c-1.18-0.45-3.31-1.46-5.45-3.54c0.56-1.56,1.25-3.11,1.95-4.67 C43.28,103.15,44.42,103.08,45.44,103.08 M45.44,102.08c-0.61,0-1.26,0.02-1.91,0.05c-0.45,0.02-0.89,0.03-1.32,0.04 l-0.63,0.01l-0.26,0.58c-0.68,1.52-1.4,3.14-1.98,4.74l-0.22,0.61l0.46,0.45c2.29,2.23,4.61,3.31,5.79,3.76 c0.21,0.08,0.43,0.12,0.65,0.12c0.87,0,1.63-0.62,1.81-1.48c0.3-1.44,1.04-4.92,1.48-6.21c0.27-0.79-0.01-1.35-0.19-1.61 C48.51,102.26,47.2,102.08,45.44,102.08L45.44,102.08z" fill="#4D290A"/>
        </g>
        <path d="M72.56,117.94c-0.35-1.78-2.73-5.64-5.69-7.27 c-0.19-0.11-0.59,0-0.8,0.08c-0.75,0.31-1.92,0.85-3.45,2.09c-0.21,0.17-0.31,0.44-0.26,0.7c0.29,1.79,0.79,3.48,1.57,5.12 c0.13,0.27,0.41,0.43,0.7,0.42l7.23-0.27C72.32,118.8,72.65,118.38,72.56,117.94z" fill="#603813" stroke="#4D290A" stroke-miterlimit="10"/>
        <g>
          <path d="M83.79,106.42c-0.23,0-0.45-0.09-0.61-0.26c-0.16-0.17-0.24-0.39-0.22-0.62 c0.09-1.44,0.41-4.92,1.48-6.25c0.63-0.78,0.92-1.02,1.26-1.02c0.12,0,0.33,0.04,0.48,0.25c0.99,0.49,2.06,0.72,3.36,0.72 c1.05,0,2.12-0.15,3.25-0.3c0.39-0.05,0.79-0.11,1.19-0.16l0.81-0.1l-0.27,0.76c-0.01,0.02-0.74,2.07-0.9,2.76 c-0.72,3.12-7.05,3.98-9.74,4.21L83.79,106.42z" fill="#603813"/>
          <path d="M85.7,98.77c0.12,0,0.1,0.21,0.2,0.21c0.01,0,0.03,0,0.05-0.02c1.18,0.59,2.37,0.78,3.59,0.78 c1.46,0,2.95-0.27,4.5-0.46c0,0-0.75,2.09-0.92,2.81c-0.67,2.92-7.58,3.68-9.29,3.82c-0.01,0-0.02,0-0.03,0 c-0.19,0-0.34-0.16-0.33-0.36c0.07-1.18,0.37-4.72,1.37-5.96C85.36,98.94,85.58,98.77,85.7,98.77 M85.7,97.77 c-0.58,0-0.99,0.39-1.65,1.21c-1.12,1.39-1.47,4.69-1.59,6.53c-0.02,0.37,0.11,0.73,0.36,1c0.25,0.27,0.6,0.42,0.97,0.42h0.04 l0.07,0c8.4-0.71,9.92-3.45,10.18-4.59c0.13-0.55,0.68-2.13,0.89-2.7l0.55-1.53l-1.61,0.2c-0.4,0.05-0.8,0.1-1.2,0.16 c-1.11,0.15-2.16,0.3-3.18,0.3c-1.18,0-2.15-0.2-3.04-0.62C86.2,97.8,85.83,97.77,85.7,97.77L85.7,97.77L85.7,97.77L85.7,97.77z " fill="#4D290A"/>
        </g>
        <g>
          <linearGradient id="SVGID_10_" gradientUnits="userSpaceOnUse" x1="48.396" x2="89.151" y1="34.5253" y2="112.9216">
            <stop offset="0" style="stop-color:#FFAF61"/>
            <stop offset="0.028" style="stop-color:#F7A65C"/>
            <stop offset="0.125" style="stop-color:#E18D4F"/>
            <stop offset="0.226" style="stop-color:#D17B45"/>
            <stop offset="0.3327" style="stop-color:#C7703F"/>
            <stop offset="0.4544" style="stop-color:#C46D3D"/>
            <stop offset="0.6196" style="stop-color:#D27D46"/>
            <stop offset="0.9415" style="stop-color:#F8A75C"/>
            <stop offset="1" style="stop-color:#FFAF61"/>
          </linearGradient>
          <path d="M59.46,120.71c-0.55,0-0.93-0.12-1.18-0.35c-0.75-0.72-10.25-8.55-11.62-9.15 c-2.24-0.99-4.25-3.6-3.37-7c0.86-3.3,0.64-12.02,0.6-13.54c-2.22-1.82-4.23-4.46-6.14-8.09c-1.28-2.44-4.74-13.88-6.41-22.71 c-2.69,1.19-11.3,3.2-13.07,3.2c-0.17,0-0.29-0.01-0.4-0.04c-0.18-0.05-0.32-0.19-0.36-0.38c-0.69-3.13-2.6-8.64-7.62-10.37 c-0.18-0.06-0.32-0.23-0.33-0.42c-0.02-0.19,0.08-0.38,0.24-0.48c3.18-1.87,8.03-8.41,10.63-11.92 c1.15-1.55,1.76-2.38,2.07-2.65c0.24-0.22,1.46-0.94,4.26-2.58c1.14-0.67,2.44-1.42,2.59-1.54c0.6-0.45,1.51-1.05,2.5-1.05 c0.91,0,1.73,0.49,2.43,1.46c0.04,0.05,0.08,0.11,0.11,0.16c0.39-0.2,0.84-0.37,1.29-0.37c0.37,0,0.7,0.1,1,0.31 c2.1,1.46,5.23,4.63,8.85,8.3c6.49,6.58,14.57,14.77,19.02,15.08c3.48,0.24,6.52,0.36,9.29,0.36c6.16,0,9.91-0.58,13.87-1.2 c0.98-0.15,1.97-0.31,3.01-0.45c0.99-0.14,2.06-0.21,3.17-0.21c8.76,0,18.54,4.11,19.74,15.65c0.91,8.83-3.28,13.59-7.19,16.08 c0.3,0.31,0.59,0.63,0.86,0.93c0.51,0.56,0.96,1.04,1.26,1.31c0.65,0.58,0.68,1.73,0.5,2.6c-0.21,1.01-0.84,2.23-1.96,2.61 l-0.55,0.18c-2.88,0.96-10.54,3.5-12.12,6.08c-0.08,0.13-0.21,0.22-0.37,0.24c-0.8,0.1-1.65,0.15-2.51,0.15c0,0,0,0,0,0 c-1.59,0-4.62-0.18-7.02-1.38c-0.17-0.08-0.27-0.25-0.28-0.44c0-0.19,0.1-0.36,0.26-0.45c1.02-0.55,4.04-2.31,6.96-4.01 c2.13-1.24,4.16-2.42,5.38-3.11c-1.27-0.8-4.03-2.5-6.25-3.64c-0.69-0.04-1.33-0.05-1.93-0.05c-4.16,0-6.13,0.87-8.64,1.96 c-2.01,0.88-4.28,1.88-8.17,2.71c-4.88,1.04-8.85,1.26-11.31,1.26c-1.72,0-2.91-0.1-3.47-0.16l-5.38,11.39l7.53,8.49 c0.63-0.3,1.95-0.86,2.91-0.86c0.06,0,0.13,0,0.19,0.01c0.23,0.02,0.42,0.2,0.45,0.43c0.31,2.15,0.9,4.06,1.8,5.83 c0.07,0.13,0.07,0.28,0.02,0.41c-0.05,0.13-0.16,0.24-0.29,0.29C64.19,119.61,61.14,120.71,59.46,120.71z" fill="url(#SVGID_10_)"/>
          <path d="M31.85,32.12c0.68,0,1.36,0.34,2.03,1.26c0.13,0.18,0.23,0.36,0.32,0.56c0.43-0.27,0.97-0.56,1.49-0.56 c0.24,0,0.48,0.06,0.71,0.22c5.95,4.14,21.02,22.98,28.11,23.47c3.66,0.25,6.71,0.36,9.33,0.36c7.74,0,11.74-0.92,16.94-1.65 c0.93-0.13,1.98-0.21,3.1-0.21c7.35,0,18,3.2,19.24,15.2c0.86,8.33-2.93,13.24-7.49,15.92c1.01,1.04,2.01,2.2,2.58,2.71 c0.9,0.81,0.37,3.81-1.28,4.36c-2.83,0.95-11.16,3.57-12.93,6.48c-0.76,0.09-1.59,0.14-2.45,0.14c-2.34,0-4.9-0.38-6.79-1.32 c1.94-1.06,11.05-6.41,13.08-7.54c0,0-4.05-2.6-7.09-4.16c-0.74-0.04-1.43-0.06-2.06-0.06c-7.55,0-8.11,2.8-16.91,4.68 c-4.72,1.01-8.59,1.25-11.21,1.25c-2.41,0-3.77-0.21-3.77-0.21l-5.68,12.02l8,9.03c0,0,1.89-0.98,3.03-0.98 c0.05,0,0.1,0,0.15,0.01c0.3,2.11,0.88,4.08,1.86,5.98c0,0-3.08,1.11-4.69,1.11c-0.38,0-0.68-0.06-0.84-0.21 c-0.83-0.8-10.3-8.6-11.77-9.25c-2.07-0.91-3.9-3.29-3.09-6.41c0.97-3.72,0.61-13.92,0.61-13.92c-2.13-1.69-4.18-4.25-6.19-8.08 c-1.31-2.5-4.87-14.35-6.49-23.24c-0.59,0.78-11.27,3.47-13.43,3.47c-0.12,0-0.21-0.01-0.27-0.02 c-1.04-4.7-3.49-9.19-7.95-10.73c4.46-2.62,11.73-13.67,12.79-14.64c0.41-0.38,6.4-3.77,6.82-4.09 C30.36,32.55,31.1,32.12,31.85,32.12 M31.85,31.12c-1.14,0-2.14,0.66-2.8,1.15c-0.18,0.13-1.43,0.86-2.53,1.5 c-3.04,1.77-4.09,2.4-4.37,2.66c-0.34,0.31-0.93,1.1-2.13,2.73c-2.58,3.49-7.39,9.98-10.48,11.79c-0.34,0.2-0.53,0.57-0.49,0.96 c0.04,0.39,0.3,0.72,0.67,0.85c4.79,1.65,6.63,6.98,7.3,10c0.08,0.37,0.36,0.66,0.72,0.75c0.15,0.04,0.32,0.06,0.53,0.06 c1.23,0,9.21-1.67,12.69-3.01c1.74,8.91,5.05,19.78,6.35,22.25c1.89,3.59,3.88,6.24,6.09,8.1c0.06,2,0.22,10.07-0.59,13.18 c-0.96,3.68,1.22,6.51,3.65,7.58c1.21,0.53,10.5,8.12,11.48,9.06c0.34,0.33,0.84,0.49,1.53,0.49c1.74,0,4.7-1.05,5.03-1.17 c0.27-0.1,0.49-0.31,0.59-0.57c0.11-0.27,0.09-0.57-0.04-0.82c-0.88-1.72-1.45-3.58-1.76-5.67c-0.07-0.46-0.44-0.81-0.91-0.85 c-0.07-0.01-0.15-0.01-0.23-0.01c-0.89,0-2.04,0.43-2.78,0.75l-7.06-7.97l5.09-10.78c0.66,0.06,1.73,0.13,3.17,0.13 c2.49,0,6.49-0.22,11.42-1.27c3.94-0.84,6.24-1.85,8.27-2.74c2.55-1.12,4.38-1.92,8.44-1.92c0.56,0,1.16,0.02,1.8,0.05 c1.84,0.95,4.02,2.27,5.41,3.13c-1.22,0.7-2.91,1.68-4.66,2.7c-2.92,1.7-5.94,3.45-6.95,4c-0.33,0.18-0.53,0.52-0.52,0.9 s0.22,0.71,0.55,0.88c2.49,1.24,5.6,1.43,7.24,1.43c0.88,0,1.75-0.05,2.57-0.15c0.3-0.04,0.57-0.21,0.73-0.47 c1.48-2.43,9.01-4.93,11.85-5.87l0.54-0.18c1.13-0.38,1.98-1.49,2.29-2.98c0.27-1.31,0.03-2.46-0.66-3.07 c-0.29-0.26-0.75-0.76-1.23-1.28c-0.15-0.16-0.3-0.33-0.46-0.49c3.88-2.65,7.82-7.51,6.92-16.22 c-0.58-5.62-3.28-10.07-7.8-12.85c-4.59-2.83-9.76-3.25-12.43-3.25c-1.14,0-2.23,0.07-3.24,0.22c-1.04,0.15-2.03,0.3-3.01,0.45 c-3.94,0.61-7.66,1.19-13.79,1.19c-2.76,0-5.79-0.12-9.26-0.36c-4.26-0.29-12.6-8.76-18.7-14.93c-3.64-3.69-6.78-6.87-8.92-8.36 c-0.38-0.26-0.81-0.4-1.28-0.4c-0.4,0-0.78,0.1-1.13,0.24C33.78,31.63,32.87,31.12,31.85,31.12L31.85,31.12z" fill="#B05A2A"/>
        </g>
        <g>
          <linearGradient id="SVGID_11_" gradientTransform="matrix(0.9977 0.0673 -0.0673 0.9977 31.1175 -28.8523)" gradientUnits="userSpaceOnUse" x1="-13.5934" x2="-13.5934" y1="82.1227" y2="95.0975">
            <stop offset="0" style="stop-color:#FFF1C4"/>
            <stop offset="0.4265" style="stop-color:#FFE2A7"/>
            <stop offset="1" style="stop-color:#FFCA7B"/>
          </linearGradient>
          <path d="M9.67,51.81c-2.11,2.12-3.46,3.75-3.73,4.16c-1.21,1.86-1.7,4.58,0.21,6.48 c1.18,1.18,3.16,2.84,7.42,1.7c1.36-0.37,4.12-1.69,4.42-1.61C16.96,57.84,14.13,53.35,9.67,51.81z" fill="url(#SVGID_11_)"/>
        </g>
        <path d="M80.01,74.4c0.04,3.63,1.74,7.21,4.53,9.53 c1.82,1.52,7.08,4.32,7.08,4.32" fill="none" stroke="#B05A2A" stroke-linecap="round" stroke-miterlimit="10"/>
        <ellipse cx="25.76" cy="46.93" fill="#404040" rx="3.06" ry="2.71" transform="matrix(0.3467 -0.938 0.938 0.3467 -27.1828 54.8236)"/>
        <g>
          <linearGradient id="SVGID_12_" gradientUnits="userSpaceOnUse" x1="65.9541" x2="87.5546" y1="50.8835" y2="71.5132">
            <stop offset="0" style="stop-color:#FBC02D"/>
            <stop offset="0.6867" style="stop-color:#FEDC36"/>
            <stop offset="0.9988" style="stop-color:#FFEB3B"/>
          </linearGradient>
          <path d="M76.28,74.65c-3.85,0-6.92-0.44-9.4-1.34c-3.14-1.14-3.54-4.77-3.5-8.16 c0.02-2.27,0.21-4.48,0.41-6.72c0.03-0.37,0.04-0.83,0.04-1.34c0-1.61,0-3.8,1.24-4.13c0.2-0.05,0.42-0.08,0.65-0.08 c0.99,0,2.11,0.5,3.1,0.95c0.38,0.17,0.75,0.34,1.1,0.47c2.17,0.84,4.91,1.3,7.7,1.3l0.4,0c5.57-0.09,8.13-1.67,9.83-2.72 c0.75-0.46,1.3-0.8,1.8-0.8c0.33,0,0.69,0.15,1.12,0.46c0.62,0.46,1.1,1.09,1.46,1.91c1.55,3.59,3.79,12.32,2.37,15.51 c-1.53,3.42-9.68,4.26-12.15,4.43C80.48,74.52,78.39,74.65,76.28,74.65L76.28,74.65z" fill="url(#SVGID_12_)"/>
          <path d="M89.64,52.56c0.08,0,0.32,0,0.82,0.37c0.55,0.41,0.97,0.97,1.3,1.71c1.58,3.66,3.68,12.18,2.37,15.11 c-1.12,2.52-6.79,3.79-11.73,4.14c-1.94,0.14-4.01,0.26-6.11,0.26c-3.79,0-6.81-0.43-9.23-1.31c-2.85-1.04-3.2-4.47-3.17-7.69 c0.02-2.25,0.2-4.44,0.41-6.68c0.04-0.4,0.04-0.88,0.04-1.39c0-1.36,0-3.42,0.87-3.64c0.16-0.04,0.33-0.06,0.52-0.06 c0.88,0,1.91,0.46,2.89,0.9c0.39,0.18,0.76,0.34,1.13,0.48c2.23,0.86,5.03,1.33,7.87,1.33c0.14,0,0.28,0,0.41,0 c5.71-0.1,8.34-1.72,10.08-2.79C88.76,52.88,89.28,52.56,89.64,52.56 M89.64,51.56c-1.94,0-3.51,3.38-11.64,3.52 c-0.13,0-0.26,0-0.39,0c-2.47,0-5.23-0.38-7.52-1.26c-1.3-0.5-2.89-1.45-4.38-1.45c-0.26,0-0.52,0.03-0.78,0.1 c-2.05,0.54-1.49,4.24-1.65,5.91c-0.2,2.27-0.39,4.47-0.41,6.76c-0.03,3.36,0.35,7.37,3.83,8.64c2.92,1.06,6.27,1.37,9.58,1.37 c2.12,0,4.23-0.13,6.18-0.27c3.39-0.24,10.99-1.18,12.57-4.73c1.55-3.46-0.92-12.58-2.36-15.91c-0.41-0.95-0.96-1.63-1.62-2.12 C90.51,51.73,90.06,51.56,89.64,51.56L89.64,51.56z" fill="#E8AD1A"/>
        </g>
        <path d="M11.51,55.22c0.55,0.19,0.9,0.79,0.89,1.38c-0.01,0.58-0.32,1.13-0.75,1.54 c-0.51,0.48-1.2,0.38-1.32-0.39c-0.06-0.4,0.37-0.89,0.3-1.33c-0.07-0.5-1.56-0.5-0.6-0.98C10.46,55.21,11.03,55.06,11.51,55.22z " fill="#404040"/>
        <g>
          <linearGradient id="SVGID_13_" gradientUnits="userSpaceOnUse" x1="25.7225" x2="56.3657" y1="27.5551" y2="48.803">
            <stop offset="1.244114e-03" style="stop-color:#C69C6D"/>
            <stop offset="7.110367e-03" style="stop-color:#C59B6C"/>
            <stop offset="0.6855" style="stop-color:#7D542C"/>
            <stop offset="1" style="stop-color:#603813"/>
          </linearGradient>
          <path d="M59.97,59.25c-2.04,0-4.35-0.72-7.05-2.2c-5.87-3.21-7.89-6.26-10.45-10.12 c-0.44-0.66-0.89-1.35-1.38-2.06c-0.78-1.13-1.64-2.42-2.47-3.67c-1.51-2.27-2.82-4.22-3.4-4.88c-0.32-0.37-0.98-0.49-2.13-0.68 c-0.67-0.11-2.07-0.35-2.22-0.63c0.06-1.37,0.82-2.07,2.12-2.81c1.24-0.71,2.6-1.06,4.04-1.06c1.59,0,2.97,0.44,3.82,0.8 l-2.27,1.02c-0.22,0.1-0.34,0.34-0.28,0.58c0.05,0.22,0.26,0.38,0.49,0.38c0.01,0,0.02,0,0.03,0c0.13-0.01,0.26-0.01,0.39-0.01 c1.32,0,2.79,0.36,4.21,0.7c1.39,0.34,2.7,0.66,3.87,0.66c0.51,0,0.96-0.06,1.36-0.19c-0.3,2.04-1.75,2.16-4,2.34 c-0.23,0.02-0.44,0.19-0.48,0.42c-0.04,0.22,0.05,0.45,0.26,0.54c1.05,0.47,2.2,0.72,3.33,0.72c0.72,0,1.39-0.1,2.01-0.3 c0.85-0.28,1.54-0.74,2.01-1.13c0.01,0.74-0.22,1.84-1.41,2.76c-0.21,0.16-0.25,0.45-0.11,0.67c0.09,0.15,0.26,0.23,0.42,0.23 c0.08,0,0.16-0.02,0.24-0.06c0.01-0.01,1.42-0.75,3.08-0.75c0.17,0,0.34,0.01,0.51,0.02c0.37,0.04,0.73,0.09,1.09,0.14 c0.59,0.09,1.2,0.18,1.8,0.18c0.39,0,0.75-0.04,1.1-0.11c0.21,1.46-0.34,3-1.45,3.98c-0.13,0.12-0.19,0.29-0.16,0.47 c0.03,0.17,0.15,0.32,0.32,0.38c0.92,0.33,1.86,0.55,2.83,0.65c-0.53,0.32-1.08,0.61-1.65,0.86c-0.2,0.09-0.32,0.31-0.29,0.53 c0.03,0.22,0.2,0.39,0.42,0.42c1.28,0.19,2.59,0.28,3.89,0.28c0.89,0,1.8-0.04,2.68-0.13c2.81-0.27,4.19-0.54,4.89-0.77 c0.06,1.7-0.66,3.4-1.4,4.87c-0.81,1.61-1.97,3.66-3.7,5.15C63.46,58.65,61.85,59.25,59.97,59.25z" fill="url(#SVGID_13_)"/>
          <path d="M37.04,31.64L37.04,31.64c0.92,0,1.77,0.16,2.47,0.36l-1.13,0.51c-0.44,0.2-0.68,0.68-0.56,1.15 c0.11,0.45,0.51,0.76,0.97,0.76c0.02,0,0.04,0,0.06,0c0.12-0.01,0.24-0.01,0.36-0.01c1.26,0,2.7,0.35,4.09,0.69 c1.42,0.34,2.76,0.67,3.99,0.67c0.24,0,0.46-0.01,0.68-0.04c-0.41,0.89-1.41,1.03-3.36,1.19l-0.05,0 c-0.45,0.04-0.83,0.38-0.9,0.83c-0.08,0.45,0.16,0.89,0.58,1.08c1.11,0.5,2.33,0.76,3.53,0.76c0.77,0,1.5-0.11,2.17-0.33 c0.43-0.14,0.81-0.32,1.16-0.52c-0.18,0.42-0.48,0.86-1.01,1.27c-0.41,0.32-0.51,0.9-0.22,1.33c0.19,0.29,0.51,0.46,0.84,0.46 c0.16,0,0.32-0.04,0.47-0.12c0.01-0.01,1.32-0.69,2.85-0.69c0.15,0,0.31,0.01,0.46,0.02c0.36,0.03,0.72,0.09,1.06,0.14 c0.61,0.09,1.23,0.18,1.88,0.18c0.22,0,0.43-0.01,0.64-0.03c0,1.13-0.48,2.29-1.32,3.03c-0.26,0.23-0.39,0.59-0.32,0.93 c0.07,0.35,0.31,0.63,0.64,0.75c0.48,0.18,0.97,0.32,1.47,0.43c-0.11,0.05-0.22,0.1-0.33,0.15c-0.4,0.18-0.64,0.61-0.57,1.05 c0.06,0.44,0.41,0.78,0.85,0.85c1.31,0.19,2.64,0.29,3.97,0.29c0.91,0,1.83-0.05,2.73-0.13l0.07-0.01 c2.08-0.2,3.4-0.41,4.26-0.61c-0.12,1.38-0.72,2.76-1.33,3.99c-0.79,1.57-1.91,3.56-3.58,5c-1.34,1.15-2.84,1.71-4.6,1.71 c-1.96,0-4.19-0.7-6.81-2.14c-5.76-3.15-7.75-6.16-10.27-9.96c-0.44-0.67-0.9-1.35-1.39-2.06c-0.78-1.13-1.64-2.42-2.47-3.67 c-1.52-2.28-2.84-4.25-3.43-4.93c-0.45-0.52-1.28-0.65-2.42-0.85c-0.5-0.08-1.37-0.23-1.77-0.39c0.13-0.98,0.74-1.5,1.84-2.12 C34.41,31.98,35.69,31.64,37.04,31.64 M37.04,30.64c-1.33,0-2.8,0.29-4.29,1.13c-1.25,0.71-2.3,1.51-2.37,3.24 c-0.04,1.15,3.93,1.03,4.47,1.65c0.87,0.99,3.69,5.39,5.83,8.5c3.33,4.83,5,8.5,12,12.33c2.3,1.26,4.83,2.26,7.29,2.26 c1.83,0,3.62-0.55,5.25-1.96c1.66-1.43,2.84-3.35,3.82-5.31c0.93-1.85,1.74-3.92,1.37-5.96c0.12,0.63-4.81,1.09-5.35,1.15 c-0.88,0.09-1.75,0.13-2.63,0.13c-1.28,0-2.56-0.09-3.82-0.28c1.06-0.49,2.08-1.08,3.03-1.77c-0.14,0.01-0.28,0.01-0.41,0.01 c-1.3,0-2.61-0.23-3.83-0.68c1.37-1.21,1.97-3.22,1.5-4.98c-0.5,0.18-0.99,0.24-1.48,0.24c-0.92,0-1.85-0.22-2.85-0.32 C54.37,40.01,54.19,40,54.01,40c-1.82,0-3.32,0.81-3.32,0.81c2.3-1.79,1.44-4.19,1.44-4.19s-0.95,1.19-2.5,1.69 c-0.58,0.19-1.22,0.28-1.86,0.28c-1.06,0-2.16-0.24-3.12-0.67c2.52-0.21,4.55-0.35,4.57-3.67c-0.53,0.37-1.18,0.51-1.92,0.51 c-2.3,0-5.42-1.36-8.08-1.36c-0.14,0-0.28,0-0.42,0.01l3.24-1.46C42.03,31.96,39.88,30.64,37.04,30.64L37.04,30.64z M49.21,34.25L49.21,34.25L49.21,34.25z M61.64,45.76L61.64,45.76L61.64,45.76z" fill="#734825"/>
        </g>
        <line fill="none" stroke="#B05A2A" stroke-linecap="round" stroke-miterlimit="10" x1="43.77" x2="43.19" y1="90.62" y2="77.24"/>
        <path d="M57.44,93.31c0,0,1.82-5.43,3.25-8.69" fill="none" stroke="#B05A2A" stroke-linecap="round" stroke-miterlimit="10"/>
        <path d="M10.14,51.5 c4.07,1.56,7.52,4.47,7.37,11.16" fill="none" stroke="#4E342E" stroke-linecap="round" stroke-miterlimit="10" stroke-width="2"/>
        <path d=" M17.91,59.11c3.59-1.11,8.84-3.7,12.76-7.11" fill="none" stroke="#4E342E" stroke-linecap="round" stroke-linejoin="round" stroke-miterlimit="10" stroke-width="2"/>
        <polyline fill="none" points=" 36.53,40.03 31.58,44.83 29.88,59.63 " stroke="#4E342E" stroke-linecap="round" stroke-linejoin="round" stroke-miterlimit="10" stroke-width="2"/>
        <path d=" M31.36,44.55c-3.63-4.19-5.87-5.61-9.86-7.47" fill="none" stroke="#4E342E" stroke-linecap="round" stroke-linejoin="round" stroke-miterlimit="10" stroke-width="2"/>
      </g>
      <path d=" M17.51,62.66c7.99,0,20.99-5.87,27.08-13.16" fill="none" stroke="#4E342E" stroke-linecap="round" stroke-linejoin="round" stroke-miterlimit="10" stroke-width="2"/>
      <path d="M78,55.08l-4.55,3.09c0,0,1.45,4.83,0.75,9.75s-2.12,9.79-2.12,9.79l-6.53-22.62l6.22-5.26 l0.56,5.09L78,55.08z" fill="#262626" opacity="0.2"/>
      <g>
        <g>
          <line fill="none" x1="41" x2="42.38" y1="48.36" y2="47.8"/>
          <g id="XMLID_7_">
            <radialGradient id="SVGID_14_" cx="2795.5325" cy="3373.7053" gradientTransform="matrix(-0.0766 -0.3143 0.4978 0.1895 -1419.149 282.2326)" gradientUnits="userSpaceOnUse" r="7.0924">
              <stop offset="0" style="stop-color:#FFD29C"/>
              <stop offset="0.7466" style="stop-color:#FFD29C"/>
              <stop offset="0.8696" style="stop-color:#FFD29C"/>
            </radialGradient>
            <path d="M48.99,46.54L48.99,46.54c0.3-0.48,0.15-1.11-0.33-1.41l-3.28-2.02 c-0.48-0.3-1.11-0.15-1.41,0.33l0,0c-0.3,0.48-0.15,1.11,0.33,1.41l3.28,2.02C48.06,47.17,48.69,47.02,48.99,46.54z" fill="url(#SVGID_14_)"/>
          </g>
          <g id="XMLID_6_">
            <radialGradient id="SVGID_16_" cx="6746.083" cy="-202.0708" gradientTransform="matrix(0.2709 0.0274 -0.1378 0.3273 -1810.549 -75.1339)" gradientUnits="userSpaceOnUse" r="8.7027">
              <stop offset="0" style="stop-color:#FFD29C"/>
              <stop offset="0.7466" style="stop-color:#FFD29C"/>
              <stop offset="0.8696" style="stop-color:#FFD29C"/>
            </radialGradient>
            <path d="M42.97,46.18L42.97,46.18c0.44,0.36,1.08,0.29,1.44-0.15l1.13-1.39 c0.36-0.44,0.29-1.08-0.15-1.44h0c-0.44-0.36-1.08-0.29-1.44,0.15l-1.13,1.39C42.47,45.18,42.53,45.82,42.97,46.18z" fill="url(#SVGID_16_)"/>
          </g>
        </g>
        <g>
          <radialGradient id="SVGID_17_" cx="784.6486" cy="-1708.505" gradientTransform="matrix(-0.1634 -0.8565 -0.9429 0.1799 -1438.295 1029.0216)" gradientUnits="userSpaceOnUse" r="4.5823">
            <stop offset="0" style="stop-color:#FFD29C"/>
            <stop offset="0.7466" style="stop-color:#FFD29C"/>
            <stop offset="0.8696" style="stop-color:#FFD29C"/>
          </radialGradient>
          <path d="M47.08,46.29l1.38,4.82l-3.02,2.73c0,0-2.19,0.67-2.68-0.03c-0.16-0.23-0.07-0.73-0.15-0.87 c-0.2-0.35-0.72-0.32-0.95-0.78c-0.11-0.23-0.01-0.76,0.06-1.06c0.04-0.19-0.12-0.49-0.31-0.56c-0.4-0.16-0.59-0.32-0.7-0.65 c-0.11-0.33-0.05-0.7,0.13-1.04c0.17-0.33,0.11-0.82-0.2-1.03c-0.26-0.18-0.45-0.78-0.09-1.25c0.4-0.51,2.27-1.12,2.27-1.12 L47.08,46.29z" fill="url(#SVGID_17_)"/>
        </g>
        <g>
          <linearGradient id="SVGID_18_" gradientTransform="matrix(-0.1634 -0.8565 -0.8818 0.1683 -1339.0293 1010.08)" gradientUnits="userSpaceOnUse" x1="780.3439" x2="784.3936" y1="-1722.524" y2="-1716.7109">
            <stop offset="0" style="stop-color:#FFD29C"/>
            <stop offset="0.0237" style="stop-color:#FFD39E"/>
            <stop offset="0.3158" style="stop-color:#FCD8AF"/>
            <stop offset="0.6295" style="stop-color:#FADCBA"/>
            <stop offset="1" style="stop-color:#F9DDBD"/>
          </linearGradient>
          <path d="M48.98,45.06l1.83,5.96c0,0-5.95,4.12-6.58,2.56c-0.05-0.12-0.07-0.56-0.08-0.73 c-0.01-0.21-0.12-0.3-0.3-0.42c-0.27-0.19-0.57-0.44-0.63-0.72c-0.05-0.28,0.02-0.64,0.12-0.93c0.07-0.21-0.05-0.42-0.25-0.51 c-0.44-0.18-0.72-0.32-0.81-0.8c-0.07-0.39-0.11-0.83,0.11-1.14c0.23-0.34,0.16-0.93-0.13-1.22c-0.16-0.16-0.37-0.64-0.12-1.24 C42.53,44.93,48.98,45.06,48.98,45.06z" fill="url(#SVGID_18_)"/>
        </g>
        <path d="M50.81,51.02 l-1.83-5.96c0,0-0.17,0-0.43,0l-3.17-1.95c-0.22-0.14-0.48-0.17-0.71-0.13c-0.01,0-0.02,0-0.02,0c-0.03,0.01-0.06,0.02-0.1,0.03 c-0.22,0.05-0.43,0.15-0.59,0.34l-1.13,1.39c-0.19,0.23-0.25,0.52-0.21,0.79c-0.49,0.17-1.73,0.64-2.05,1.04 c-0.36,0.46-0.17,1.07,0.09,1.25c0.3,0.21,0.37,0.7,0.2,1.03c-0.17,0.33-0.24,0.7-0.13,1.04c0.11,0.33,0.3,0.48,0.7,0.65 c0.19,0.08,0.35,0.37,0.3,0.56c-0.07,0.3-0.17,0.83-0.06,1.06c0.23,0.46,0.75,0.44,0.95,0.78c0.08,0.14-0.01,0.65,0.15,0.87 c0.38,0.53,1.76,0.26,2.37,0.11C46.97,53.68,50.81,51.02,50.81,51.02z" fill="none" stroke="#EDBD82" stroke-linecap="round" stroke-linejoin="round" stroke-miterlimit="10"/>
      </g>
      <g>
        <g>
          <g>
            <g>
              <g>
                <linearGradient id="SVGID_19_" gradientTransform="matrix(0.9306 -0.3661 0.3661 0.9306 -29.9737 134.1182)" gradientUnits="userSpaceOnUse" x1="77.2772" x2="88.2442" y1="-88.6469" y2="-85.8167">
                  <stop offset="0" style="stop-color:#FFD29C"/>
                  <stop offset="0.0237" style="stop-color:#FFD39E"/>
                  <stop offset="0.3158" style="stop-color:#FCD8AF"/>
                  <stop offset="0.6295" style="stop-color:#FADCBA"/>
                  <stop offset="1" style="stop-color:#F9DDBD"/>
                </linearGradient>
                <path d="M46.96,29.85c-2.55,0-3.22-1.62-3.76-2.93c-0.24-0.57-0.42-1.03-0.77-1.27 c-0.12-0.09-0.27-0.12-0.55-0.18c-1.13-0.25-1.37-0.47-1.38-0.61c-0.01-0.42,0.34-0.98,0.68-1.53 c0.49-0.78,0.99-1.6,0.69-2.37c-0.05-0.2-0.29-0.67-0.53-1.14l-0.05-0.1c-0.45-0.93-0.77-2.28-0.85-3.62 c-0.26-4.22,1.57-7.33,5.17-8.77c0.88-0.35,1.88-0.53,2.96-0.53c2.96,0,6.14,1.31,8.1,3.33 c1.56,1.6,1.81,7.68,0.87,11.21c-0.09,0.33-0.19,0.7,3.2,2.82l-3.31,5.09c-0.74-0.2-2.5-0.61-4.46-0.61 c-0.78,0-1.52,0.07-2.2,0.2c-0.28,0.06-0.5,0.17-0.72,0.29c-0.37,0.2-0.88,0.47-2.08,0.64 C47.62,29.82,47.28,29.85,46.96,29.85z" fill="url(#SVGID_19_)"/>
                <path d="M48.58,7.29c2.78,0,5.9,1.28,7.74,3.18c1.32,1.36,1.72,7.08,0.75,10.74 c-0.16,0.61-0.27,1.03,2.99,3.1l-2.84,4.37c-0.89-0.22-2.49-0.54-4.24-0.54c-0.82,0-1.59,0.07-2.3,0.21 c-0.36,0.07-0.63,0.21-0.86,0.34c-0.36,0.19-0.8,0.43-1.91,0.59c-0.34,0.05-0.66,0.07-0.95,0.07 c-2.22,0-2.79-1.39-3.3-2.62c-0.26-0.62-0.48-1.16-0.94-1.49c-0.21-0.14-0.41-0.19-0.73-0.26 c-0.19-0.04-0.71-0.16-0.96-0.29c0.09-0.3,0.36-0.75,0.58-1.1c0.52-0.84,1.1-1.78,0.74-2.78 c-0.08-0.27-0.28-0.67-0.56-1.22l-0.05-0.1c-0.42-0.88-0.73-2.16-0.81-3.44c-0.14-2.31,0.3-6.45,4.86-8.27 C46.63,7.46,47.56,7.29,48.58,7.29 M48.58,6.29c-1.11,0-2.18,0.18-3.15,0.57c-4.12,1.64-5.74,5.23-5.49,9.27 c0.09,1.46,0.44,2.86,0.9,3.81c0.06,0.11,0.48,0.93,0.56,1.2c0.39,1.02-1.41,2.51-1.4,3.73 c0.01,0.91,1.96,1.07,2.14,1.19c0.82,0.58,0.83,4.29,4.82,4.29c0.33,0,0.7-0.03,1.09-0.08 c1.95-0.28,2.22-0.82,2.83-0.94c0.7-0.14,1.41-0.19,2.1-0.19c2.5,0,4.68,0.7,4.68,0.7L61.46,24 c0,0-3.51-2.17-3.41-2.54c0.94-3.55,0.78-9.86-1-11.69C55.01,7.68,51.67,6.29,48.58,6.29L48.58,6.29z" fill="#EDBD82"/>
              </g>
              <path d="M43.12,28.03c0.7-0.11,1.35-0.43,1.84-0.99c0.54-0.62-0.02-1.05-0.68-0.58 c-0.4,0.29-1.01,0.52-1.6,0.54L43.12,28.03z" fill="#444444"/>
            </g>
            <ellipse cx="44.64" cy="21.04" fill="#312D2D" rx="0.94" ry="1.44" transform="matrix(0.9694 -0.2457 0.2457 0.9694 -3.8004 11.6122)"/>
            <g>
              <radialGradient id="SVGID_20_" cx="44.4924" cy="18.6094" gradientUnits="userSpaceOnUse" r="1.5373">
                <stop offset="0.0905" style="stop-color:#454140"/>
                <stop offset="1" style="stop-color:#454140"/>
              </radialGradient>
              <path d="M43.59,19.27c-0.78,0.55-1.18,0.06-1.05-0.5c0.09-0.41,0.52-0.88,1.6-1.03 c1.02-0.15,1.6,0.27,1.97,0.51c0.37,0.24,0.46,0.59,0.25,0.69C46.07,19.08,44.55,18.59,43.59,19.27z" fill="url(#SVGID_20_)"/>
            </g>
          </g>
          <g>
            <radialGradient id="SVGID_21_" cx="89.6039" cy="-32.1725" gradientTransform="matrix(1.0028 -0.2704 0.2661 0.9642 -33.9036 66.7287)" gradientUnits="userSpaceOnUse" r="9.6705">
              <stop offset="0" style="stop-color:#454140"/>
              <stop offset="1" style="stop-color:#312D2D"/>
            </radialGradient>
            <path d="M52.47,19.88l0.47-1.35c0.32-0.78,0.61-1.47,1.26-1.49c1.91-0.09,2.44,3.22,0.49,4.51 c0,0,0.99,2.33,3.44,2.34c0.25,0,0.48-0.02,0.68-0.05c0.63-0.09,1-0.69,1-1.33c0.02-3.99,1.47-3.57,1.18-8.13 c-0.39-6.26-6.7-8.83-11.88-7.88c-2.02,0.37-3.99,1.19-5.6,2.48c-0.69,0.54-3.01,2.63-3.27,4.06c-0.33,1.82,1,2.97,1,2.97 s5.21-1.73,7.77-1.82c0.34-0.01,0.73,0,0.94,0.26c0.1,0.11,0.34,0.92,0.39,1.06c0.58,1.82,0.71,3.03,1.56,4.06 C52.03,19.72,52.47,19.88,52.47,19.88z" fill="url(#SVGID_21_)"/>
          </g>
          <path d="M57.98,7.15c-2.37-1.85-6.1-2.57-9.36-1.97c-2.19,0.4-4.19,1.28-5.77,2.55 c-0.03,0.02-3.04,2.48-3.42,4.3c-0.4,1.95,0.58,2.79,0.8,2.94c0.4,0.26,0.98-0.02,0.98-0.02c-0.57-0.37-1.21-1.63-1-2.77 c0.23-1.23,2.37-3.22,3.13-3.82c1.49-1.19,3.36-2.02,5.42-2.4c3.05-0.56,6.53,0.1,8.72,1.81c1.76,1.38,2.77,3.33,2.92,5.63 c0.15,2.38-0.18,3.34-0.53,4.36c-0.32,0.91-0.64,1.85-0.65,3.75c0,0.41-0.67,1.35-0.6,1.34c0.84-0.17,1.4-0.51,1.4-1.33 c0.01-1.77,0.3-2.61,0.61-3.49c0.36-1.04,0.74-2.12,0.58-4.67C61.04,10.82,59.93,8.67,57.98,7.15z" fill="#1F1A1A"/>
        </g>
        <g>
          <linearGradient id="SVGID_22_" gradientTransform="matrix(0.9975 -0.0712 0.0712 0.9975 0.3822 -26.1362)" gradientUnits="userSpaceOnUse" x1="69.1015" x2="56.9155" y1="74.4283" y2="99.9081">
            <stop offset="0.1952" style="stop-color:#FFB300"/>
            <stop offset="0.6908" style="stop-color:#FFCA28"/>
          </linearGradient>
          <polygon fill="url(#SVGID_22_)" points="70.81,77.2 64.82,77.7 60.62,54.36 70.53,53.56 "/>
          <linearGradient id="SVGID_23_" gradientUnits="userSpaceOnUse" x1="57.8443" x2="82.3443" y1="52.3191" y2="44.1941">
            <stop offset="0.0834" style="stop-color:#EEEEEE"/>
            <stop offset="1" style="stop-color:#BDBDBD"/>
          </linearGradient>
          <polygon fill="url(#SVGID_23_)" points="69.58,56.72 62.49,49.95 81.95,36.03 89.07,47.44 "/>
          <linearGradient id="SVGID_24_" gradientUnits="userSpaceOnUse" x1="62.646" x2="87.146" y1="66.7978" y2="58.6728">
            <stop offset="0.0834" style="stop-color:#EEEEEE"/>
            <stop offset="1" style="stop-color:#BDBDBD"/>
          </linearGradient>
          <polygon fill="url(#SVGID_24_)" points="70.81,77.2 64.82,77.7 60.62,54.36 70.53,53.56 "/>
          <linearGradient id="SVGID_25_" gradientTransform="matrix(0.9975 -0.0712 0.0712 0.9975 0.3822 -26.1362)" gradientUnits="userSpaceOnUse" x1="65.0098" x2="52.8238" y1="72.4714" y2="97.9512">
            <stop offset="0.1952" style="stop-color:#FFB300"/>
            <stop offset="0.6908" style="stop-color:#FFCA28"/>
          </linearGradient>
          <circle cx="65.55" cy="53.81" fill="url(#SVGID_25_)" r="4.97"/>
          <linearGradient id="SVGID_26_" gradientUnits="userSpaceOnUse" x1="57.5007" x2="82.0007" y1="51.2829" y2="43.1579">
            <stop offset="0.0834" style="stop-color:#EEEEEE"/>
            <stop offset="1" style="stop-color:#BDBDBD"/>
          </linearGradient>
          <circle cx="85.94" cy="41.85" fill="url(#SVGID_26_)" r="6.97"/>
          <linearGradient id="SVGID_27_" gradientUnits="userSpaceOnUse" x1="59.0529" x2="83.5529" y1="55.9632" y2="47.8382">
            <stop offset="0.0834" style="stop-color:#EEEEEE"/>
            <stop offset="1" style="stop-color:#BDBDBD"/>
          </linearGradient>
          <circle cx="65.55" cy="53.81" fill="url(#SVGID_27_)" r="4.97"/>
          <path d="M89.07,34.56 c-2.04-1.99-4.86,0.03-7.07,1.54l-0.04-0.07l-18.7,13.38c-0.87,0.45-1.62,1.16-2.1,2.09c-0.52,0.99-0.66,2.08-0.49,3.11 l4.15,23.09l5.99-0.5c0,0,1.25-15.64-0.86-21.08c0,0,19.98-6.62,21.73-11.43C93.38,40.92,91.62,37.06,89.07,34.56z" fill="none" stroke="#ABA59F" stroke-linecap="round" stroke-linejoin="round" stroke-miterlimit="10"/>
          <path d="M73.34,82.5 c0.56-0.09,0.85-1,0.86-2.25s-1.48-4.55-1.48-4.55l-1.43-12.67l-9.61,1.45l2.28,12.56l-3.86,2.09 c-1.27,0.73-1.96,2.16-1.75,3.61l0.17,1.12c0.07,0.49,0.53,0.83,1.02,0.76L73.34,82.5z" fill="#444444" stroke="#2D2E30" stroke-linecap="round" stroke-linejoin="round" stroke-miterlimit="10"/>
        </g>
        <radialGradient id="SVGID_28_" cx="59.5384" cy="30.8727" gradientUnits="userSpaceOnUse" r="14.6081">
          <stop offset="0.3666" style="stop-color:#FB8C00"/>
          <stop offset="0.6719" style="stop-color:#F67F00"/>
          <stop offset="1" style="stop-color:#EF6C00"/>
        </radialGradient>
        <path d=" M56.86,27.15c-0.64,1.44-0.56,6.21,2.67,6.58c9.81,1.15,14.65,7.08,14.65,7.08s8.74-4.88,16.33-5.07 c-4.23-7.13-14.72-12.89-24-13.99C62.97,21.34,58.04,21.46,56.86,27.15z" fill="url(#SVGID_28_)" stroke="#DB6300" stroke-linecap="round" stroke-linejoin="round" stroke-miterlimit="10"/>
        <circle id="XMLID_5_" cx="59.52" cy="44.16" fill="#FB8C00" r="3.24"/>
        <path id="XMLID_4_" d="M56.73,44.64l6.57-0.27l1.36-15.19c-0.04-2.16-1.82-3.87-3.98-3.83l-0.2,0 c-2.16,0.04-3.87,1.82-3.83,3.98L56.73,44.64z" fill="#FB8C00"/>
        <polygon id="XMLID_1_" fill="#FB8C00" points="48.25,44.93 50.81,51.02 61.21,46.93 57.06,41.22 "/>
        <path d="M50.83,22.13c0.32,3.54-0.07,5.72-0.5,7.45c2.06-0.32,2.41-3.82,2.66-6.62 c0.24-2.79-0.03-5.49-0.03-5.49l-3.34-0.29C49.62,17.18,50.67,20.25,50.83,22.13z" fill="#262626"/>
        <g>
          <radialGradient id="SVGID_29_" cx="48.055" cy="11.124" gradientUnits="userSpaceOnUse" r="10.6449">
            <stop offset="0" style="stop-color:#757575"/>
            <stop offset="1" style="stop-color:#616161"/>
          </radialGradient>
          <path d="M36.51,17.66c-1.38,0-1.79-0.58-1.98-1.01c-0.23-0.53,0.68-1.1,1.89-1.8 c0.84-0.49,1.57-0.91,1.88-1.45c1.4-2.43,3-4.46,4.77-6.04c1.24-1.1,3.47-2.18,5.31-2.57c0.3-0.07,1.15-0.16,1.46-0.18 c0.27-0.02,0.54-0.02,0.8-0.02c6.89,0,10.8,5.11,10.98,9.91c0.02,0.63-0.11,1.41-0.23,2.1l-0.09,0.55 c-0.04,0.23-0.15,0.3-0.89,0.36l-0.3,0.03c-0.38,0.04-0.75,0.07-1.12,0.07l-0.16,0c-3.48-0.08-6.55-0.28-9.39-0.64 c-0.72-0.09-1.46-0.25-2.17-0.4c-0.99-0.21-2.01-0.43-3.06-0.49l-0.16,0c-0.83,0-1.95,0.33-3.25,0.7 C39.37,17.19,37.76,17.66,36.51,17.66z" fill="url(#SVGID_29_)"/>
          <path d="M50.63,5.09c6.58,0,10.31,4.86,10.48,9.43c0.02,0.57-0.11,1.33-0.22,1.99c-0.03,0.15-0.05,0.3-0.07,0.45 c-0.13,0.02-0.32,0.04-0.46,0.05c-0.11,0.01-0.21,0.02-0.32,0.03c-0.43,0.05-0.76,0.07-1.07,0.07l-0.15,0 c-3.46-0.08-6.52-0.28-9.34-0.64c-0.7-0.09-1.39-0.24-2.13-0.39c-1.01-0.22-2.05-0.44-3.14-0.5c-0.06,0-0.12,0-0.18,0 c-0.9,0-2.06,0.34-3.39,0.72c-1.39,0.4-2.96,0.86-4.14,0.86c-1.17,0-1.4-0.44-1.51-0.68c0.16-0.32,1.13-0.88,1.67-1.19 c0.87-0.5,1.69-0.97,2.07-1.63c1.37-2.38,2.94-4.37,4.67-5.91c1.18-1.05,3.31-2.08,5.08-2.45c0.26-0.05,1.07-0.15,1.39-0.17 C50.12,5.1,50.38,5.09,50.63,5.09 M50.63,4.09c-0.27,0-0.55,0.01-0.83,0.03c-0.34,0.02-1.21,0.12-1.53,0.19 c-1.81,0.38-4.15,1.45-5.54,2.69c-1.99,1.78-3.58,3.94-4.87,6.16c-0.65,1.12-4.47,2.12-3.8,3.69c0.42,0.98,1.32,1.31,2.44,1.31 c2.43,0,5.86-1.58,7.54-1.58c0.04,0,0.09,0,0.13,0c1.76,0.1,3.46,0.67,5.2,0.89c3.14,0.39,6.28,0.57,9.44,0.64 c0.06,0,0.11,0,0.17,0c0.39,0,0.78-0.03,1.18-0.08c0.7-0.08,1.52-0.02,1.64-0.81c0.13-0.85,0.35-1.89,0.32-2.75 C61.91,9.02,57.34,4.09,50.63,4.09L50.63,4.09z" fill="#444444"/>
        </g>
      </g>
      <g>
        <linearGradient id="SVGID_30_" gradientUnits="userSpaceOnUse" x1="17.219" x2="25.1325" y1="32.9547" y2="40.9862">
          <stop offset="1.244114e-03" style="stop-color:#C69C6D"/>
          <stop offset="7.110367e-03" style="stop-color:#C59B6C"/>
          <stop offset="0.6855" style="stop-color:#7D542C"/>
          <stop offset="1" style="stop-color:#603813"/>
        </linearGradient>
        <path d="M18.33,42.9c-0.85,0-1.77-0.11-2.75-0.32c-2.13-0.47-4.36-2.3-4.77-5.37 c0.71,0.38,1.74,0.62,2.77,0.62c1.88,0,3.55-0.75,4.71-2.12l0.24-0.28c1.04-1.23,2.62-3.09,3.92-3.61 c0.96-0.38,1.96-0.58,2.96-0.58c1.49,0,2.67,0.43,3.29,0.72c-0.62,0.94-1.15,2.09-1.71,3.31C25.35,38.83,23.5,42.9,18.33,42.9z" fill="url(#SVGID_30_)"/>
        <path d="M25.4,31.73L25.4,31.73c1.05,0,1.93,0.23,2.55,0.45c-0.51,0.86-0.96,1.84-1.42,2.86 c-1.65,3.61-3.35,7.35-8.2,7.35c-0.81,0-1.7-0.1-2.65-0.31c-1.33-0.29-3.49-1.46-4.21-4.06c0.64,0.19,1.36,0.3,2.1,0.3 c2.03,0,3.84-0.82,5.09-2.3l0.23-0.28c0.95-1.12,2.54-3,3.72-3.48C23.53,31.91,24.46,31.73,25.4,31.73 M25.4,30.73 c-0.95,0-2.01,0.16-3.14,0.62c-1.52,0.61-3.26,2.76-4.35,4.03c-1.24,1.46-2.89,1.94-4.33,1.94c-1.31,0-2.45-0.4-2.94-0.83 c-0.05-0.04-0.1-0.06-0.15-0.06c-0.12,0-0.24,0.1-0.23,0.25c0.22,3.79,2.94,5.88,5.22,6.37c1.05,0.23,2,0.33,2.86,0.33 c7.59,0,8.4-8.15,11.1-11.63C29.43,31.77,27.8,30.73,25.4,30.73L25.4,30.73z" fill="#734825"/>
      </g>
      <path d="M64.67,29.17 c-0.04-2.16-1.82-3.87-3.98-3.83l-0.2,0c-2.16,0.04-3.87,1.82-3.83,3.98l0.09,11.9l-8.5,3.71l2.56,6.1l9.35-3.69 c3-0.94,3.27-3.52,3.27-3.52L64.67,29.17z" fill="none" stroke="#DB6300" stroke-linecap="round" stroke-linejoin="round" stroke-miterlimit="10"/>
      <g>
        <path d="M32.95,28.22c0.6-0.52,1.72-0.1,1.9,0.71c0.87,3.94,2.08,12.53-4.56,10.27 C23.75,36.98,29.94,30.81,32.95,28.22z" fill="#FFAF61"/>
        <path d="M27.75,37.42 c-1.61-2.8,2.8-7.14,5.2-9.2c0.6-0.52,1.72-0.1,1.9,0.71c0.53,2.41,1.19,6.54,0.11,8.89" fill="none" stroke="#B05A2A" stroke-linecap="round" stroke-linejoin="round" stroke-miterlimit="10"/>
        <linearGradient id="SVGID_31_" gradientTransform="matrix(0.8586 0.5127 -0.5127 0.8586 33.6025 22.5899)" gradientUnits="userSpaceOnUse" x1="3.5598" x2="4.9702" y1="4.8852" y2="12.8185">
          <stop offset="0" style="stop-color:#D49151"/>
          <stop offset="0.3194" style="stop-color:#D28E4F"/>
          <stop offset="0.5929" style="stop-color:#CE8349"/>
          <stop offset="0.8489" style="stop-color:#C6713F"/>
          <stop offset="0.9" style="stop-color:#C46D3D"/>
        </linearGradient>
        <path d="M33.42,34.99c-0.08,0.56-0.22,1.13-0.58,1.56c-0.36,0.43-1,0.71-1.61,0.54 c-0.69-0.18-1.16-0.87-1.23-1.51c-0.08-0.64,0.16-1.26,0.42-1.83c0.3-0.66,1.86-2.63,3.09-3.7 C33.88,29.72,33.51,34.3,33.42,34.99z" fill="url(#SVGID_31_)"/>
      </g>
    </g>
  </g>
</svg>