<svg viewBox="0 0 128 128" xmlns="http://www.w3.org/2000/svg">
  <defs/>
  <path d="M105.06,18.27 C110.52,22.67 112.92,28.93 111.31,34.59 C110.41,37.73 108.8,40.63 106.61,43.06 C107.29,45.86 107.11,50.44 104.25,55.32 C102.59,58.25 100.08,60.61 97.05,62.09 C97.31,64.12 97.2,66.18 96.71,68.17 C96.53,68.87 96.25,69.54 95.89,70.17 C98.04,71.94 101.03,75.09 100.46,79.17 C100.24,80.57 99.64,81.88 98.71,82.95 C99.97,85.49 100.15,88.43 99.21,91.11 C99.15,91.27 99.07,91.47 99.04,91.56 C98.17,93.64 96.91,95.54 95.32,97.14 C95.11,98.46 92.75,106.27 88.43,111.36 C78.28,123.36 67.21,124.36 65.88,124.52 C57.13,125.86 58.38,117.77 66,108.77 C70.38,103.77 70.76,95.71 69.88,91.87 C65.49,91.45 59.72,89.94 57.32,88.47 C53.94,86.39 51.73,84.95 49.97,82.64 C49.89,82.53 49.83,82.42 49.76,82.31 C47.08,81.84 44.44,81.15 41.87,80.25 C38.84,79.05 36.31,76.84 34.7,74 C33.61,71.92 32.83,69.68 32.4,67.37 C26.7,64.63 23.04,60.86 21.45,57.86 C19.53,54.25 18.89,49.52 18.68,47.22 C17.36,46.09 16.18,44.81 15.16,43.4 C11.55,38.26 11.96,33.85 12.52,31.67 C13.73,27 16.93,23.26 22,20.55 C28.76,16.94 36.38,15.39 41,15.55 C46.24,11.44 54,10.29 59.52,9.48 L59.78,9.48 C68.41,8.42 77.15,8.65 85.71,10.17 C94.42,11.88 100,14.23 105.06,18.27 Z" fill="#E3EBEE"/>
  <path d="M48,2 C50.73,2.26 54.29,3.4 53.78,5.21 C53.33,6.85 49,6.57 47.65,6.5 C41.27,6.21 34.97,8.02 29.72,11.65 C27.47,13.28 25.03,14.53 23.85,13.38 C22.67,12.23 25.31,9.11 27,7.65 C32.29,3.28 39.27,1.16 48,2 Z" fill="#AFC5CC"/>
  <path d="M10,69.49 C9.37,68.27 7.68,64 9.21,63 C10.74,62 12.79,65.69 13.44,66.9 C16.73,73.01 22.82,76.69 27.86,78.51 C30.5,79.37 33.66,80.6 33.35,82.17 C32.91,84.06 28.5,83.33 26.35,82.79 C19.67,81.15 14.14,77.23 10,69.49 Z" fill="#AFC5CC"/>
  <path d="M112.2,70.78 C111.2,71.78 107.64,74.66 106.52,73.39 C105.4,72.12 107.81,69.39 108.76,68.39 C113.04,63.88 114.41,59.06 114.76,53.71 C114.88,50.94 115.76,48.29 117.05,48.29 C118.88,48.29 119.29,51.35 119.36,53.61 C119.58,60.47 117.48,65.61 112.2,70.78 Z" fill="#AFC5CC"/>
  <path d="M106.61,43.06 C100.34,49.45 92.35,53.88 83.61,55.82 C75.46,57.82 67.11,58.88 58.72,59 C57.64,59 55.03,59 55.1,58 C55.17,57 58.1,56.72 59.04,56.56 C68.14,55 84.72,53.56 98.81,42.14 C110.31,32.81 109.67,23.56 106.16,19.25 C109.65,22.31 111.7,26.7 111.8,31.34 C111.79,35.59 109.72,39.46 106.61,43.06 Z" fill="#AFC5CC"/>
  <path d="M32.4,67.37 C39.38,70.33 46.78,72.18 54.33,72.83 C60.77,73.18 67.22,72.76 73.56,71.56 C77.18,70.88 79.4,70.48 79.24,69.56 C78.91,68.39 75.15,68.74 72.24,68.75 C61.72,68.75 52.5,68.12 42.32,65.13 C36.68,63.48 23,58.39 19,49.92 C20.37,61.31 28.18,65.29 32.4,67.37 Z" fill="#AFC5CC"/>
  <path d="M95.89,70.12 C95.19,70.94 90.63,75.04 82.75,77.57 C76.83,79.37 70.69,80.34 64.51,80.46 C63.89,80.46 60.99,80.46 61.09,79.61 C61.19,78.76 63,78.71 64.59,78.53 C70.47,77.9 76.24,76.43 81.71,74.18 C88.59,71.49 96.8,66.08 97,62.09 C97.45,64.9 97,68.47 95.89,70.12 Z" fill="#AFC5CC"/>
  <path d="M67.31,91.73 C80.64,92.73 89.42,87.67 90.03,87.23 C90.64,86.79 92.63,85.59 92.03,85.02 C91.57,84.62 89.83,85.36 89.03,85.67 C88.03,86.05 78.26,88.67 70.38,88.38 C62.75,88.06 54.92,85.78 49.79,82.29 C51.92,85.61 58.43,89.29 61.25,90.29 C63.22,91.01 65.27,91.48 67.35,91.68" fill="#AFC5CC"/>
  <path d="M99.77,88.38 C98.47,91.53 93.97,94.45 88.19,97.47 C85.05,99.11 79.47,101.02 75.19,101.06 C74.52,101.06 73.02,101.06 73.1,101.84 C73.16,102.36 74.46,102.63 74.98,102.68 C79.66,103.05 84.36,102.4 88.77,100.78 C91.07,99.81 93.25,98.58 95.28,97.12 C95.28,97.12 99.37,93.34 99.77,88.38 Z" fill="#AFC5CC"/>
  <path d="M73.11,20.78 C67.97,20.44 55.38,21.28 55.36,26.47 C55.36,30.61 66.64,30.61 66.71,29.56 C66.82,27.94 62.96,28.56 62.78,26.84 C62.6,25.47 67.78,24.7 72.05,25.61 C76.32,26.52 80.71,30.31 79.13,33.11 C77.32,36.31 69.04,41.27 52.58,39.11 C41,37.57 28.72,27.25 41,15.58 C40.01,15.54 39.02,15.64 38.06,15.86 C32.9,16.86 22.16,22.58 25.57,30.86 C28.98,39.14 43.32,45 58.77,45.06 C70.96,45.15 92.07,40.4 92.07,31.51 C92.08,25.53 85.68,21.6 73.11,20.78 Z" fill="#AFC5CC"/>
  <path d="M92.88,102 C93.171,101.759 93.542,101.616 93.913,101.603 C92.762,104.581 90.922,108.423 88.43,111.36 C79.415,122.018 70.25,121.782 67.381,121.708 C67.02,121.699 66.759,121.692 66.61,121.71 C66.58,121.715 66.549,121.719 66.519,121.724 C70.636,120.679 75.267,118.121 78.09,116.3 C84.38,112.31 87.14,107.23 92.88,102 Z" fill="#AFC5CC"/>
  <path d="M102.01,124 L41.709,124 C42.171,120.692 45.872,118.07 50.36,118.07 C51.35,118.07 52.34,118.2 53.3,118.47 C54.73,115.79 58.19,113.9 62.19,113.9 C64.76,113.85 67.27,114.7 69.28,116.3 C71.46,113.73 75.48,112.05 80.08,112.05 C84.83,112.07 88.94,113.95 91.01,116.69 C96.562,116.762 101.188,119.87 102.01,124 Z" fill="#B0BEC5"/>
</svg>