<svg viewBox="0 0 128 128" xmlns="http://www.w3.org/2000/svg">
  <defs>
    <linearGradient id="SVGID_15_" gradientTransform="matrix(0.9998 -0.0182 -0.0182 -0.9998 0 0)" gradientUnits="userSpaceOnUse" x1="63.464856" x2="63.464856" y1="-21.514903" y2="-31.997403">
      <stop offset="0.2533" stop-color="#FFFFFF"/>
      <stop offset="1" stop-color="#E0E0E0"/>
    </linearGradient>
    <linearGradient id="SVGID_1_" gradientTransform="matrix(1 0 0 -1 0 0)" gradientUnits="userSpaceOnUse" x1="63.9935" x2="63.9935" y1="-28.5184" y2="-134.7508">
      <stop offset="0" stop-color="#EEEEEE"/>
      <stop offset="1" stop-color="#BDBDBD"/>
    </linearGradient>
    <linearGradient id="SVGID_2_" gradientTransform="matrix(1 0 0 -1 0 0)" gradientUnits="userSpaceOnUse" x1="63.998" x2="63.998" y1="-99.9602" y2="-122.1462">
      <stop offset="0.1785" stop-color="#FAFAFA"/>
      <stop offset="0.8279" stop-color="#E0E0E0"/>
    </linearGradient>
    <radialGradient id="SVGID_3_" cx="78.1986" cy="167.243122" gradientTransform="matrix(1 0 0 0.4912 0 0)" gradientUnits="userSpaceOnUse" r="23.419">
      <stop offset="0.7275" stop-color="#6D4C41" stop-opacity="0"/>
      <stop offset="1" stop-color="#6D4C41"/>
    </radialGradient>
    <radialGradient id="SVGID_4_" cx="-58.384929" cy="-153.905119" gradientTransform="matrix(-0.9057 0.4238 -0.3144 -0.6719 0 0)" gradientUnits="userSpaceOnUse" r="6.9209">
      <stop offset="0.6628" stop-color="#6D4C41"/>
      <stop offset="1" stop-color="#6D4C41" stop-opacity="0"/>
    </radialGradient>
    <radialGradient id="SVGID_5_" cx="-65.146367" cy="94.41772" gradientTransform="matrix(-0.0746 -0.9972 0.8311 -0.0622 0 0)" gradientUnits="userSpaceOnUse" r="30.3992">
      <stop offset="0.7247" stop-color="#6D4C41" stop-opacity="0"/>
      <stop offset="1" stop-color="#6D4C41"/>
    </radialGradient>
    <radialGradient id="SVGID_6_" cx="-55.64849" cy="-57.845525" gradientTransform="matrix(0.0746 -0.9972 -0.8311 -0.0622 0 0)" gradientUnits="userSpaceOnUse" r="30.3992">
      <stop offset="0.7247" stop-color="#6D4C41" stop-opacity="0"/>
      <stop offset="1" stop-color="#6D4C41"/>
    </radialGradient>
    <radialGradient id="SVGID_7_" cx="-49.0548" cy="167.243122" gradientTransform="matrix(-1 0 0 0.4912 0 0)" gradientUnits="userSpaceOnUse" r="23.419">
      <stop offset="0.7275" stop-color="#6D4C41" stop-opacity="0"/>
      <stop offset="1" stop-color="#6D4C41"/>
    </radialGradient>
    <radialGradient id="SVGID_8_" cx="56.882639" cy="-81.20156" gradientTransform="matrix(0.9057 0.4238 0.3144 -0.6719 0 0)" gradientUnits="userSpaceOnUse" r="6.9209">
      <stop offset="0.6628" stop-color="#6D4C41"/>
      <stop offset="1" stop-color="#6D4C41" stop-opacity="0"/>
    </radialGradient>
    <radialGradient id="SVGID_9_" cx="66.073034" cy="86.840021" gradientTransform="matrix(0.3076 0.9515 0.706 -0.2282 0 0)" gradientUnits="userSpaceOnUse" r="35.6328">
      <stop offset="0.6985" stop-color="#6D4C41" stop-opacity="0"/>
      <stop offset="1" stop-color="#6D4C41"/>
    </radialGradient>
    <radialGradient id="SVGID_10_" cx="43.314892" cy="15.568413" gradientTransform="matrix(0.8813 0.4726 0.5603 -1.045 0 0)" gradientUnits="userSpaceOnUse" r="9.3426">
      <stop offset="0.58" stop-color="#6D4C41"/>
      <stop offset="1" stop-color="#6D4C41" stop-opacity="0"/>
    </radialGradient>
    <radialGradient id="SVGID_11_" cx="-69.520481" cy="-11.825734" gradientTransform="matrix(-0.9378 -0.3944 -0.2182 0.5285 0 0)" gradientUnits="userSpaceOnUse" r="28.7211">
      <stop offset="0.6985" stop-color="#6D4C41" stop-opacity="0"/>
      <stop offset="1" stop-color="#6D4C41"/>
    </radialGradient>
    <radialGradient id="SVGID_12_" cx="43.1445" cy="-10.401875" gradientTransform="matrix(1 0 0 -1.2233 0 0)" gradientUnits="userSpaceOnUse" r="8.5755">
      <stop offset="0.7016" stop-color="#6D4C41" stop-opacity="0"/>
      <stop offset="1" stop-color="#6D4C41"/>
    </radialGradient>
    <radialGradient id="SVGID_13_" cx="-47.760893" cy="17.100371" gradientTransform="matrix(-0.9657 -0.2598 -0.2432 0.9037 0 0)" gradientUnits="userSpaceOnUse" r="16.0834">
      <stop offset="0.6605" stop-color="#6D4C41" stop-opacity="0"/>
      <stop offset="1" stop-color="#6D4C41"/>
    </radialGradient>
    <radialGradient id="SVGID_14_" cx="43.707713" cy="-26.889687" gradientTransform="matrix(0.9907 0.1363 0.1915 -1.3921 0 0)" gradientUnits="userSpaceOnUse" r="16.8856">
      <stop offset="0.5981" stop-color="#6D4C41" stop-opacity="0"/>
      <stop offset="1" stop-color="#6D4C41"/>
    </radialGradient>
  </defs>
  <path d="M63.79,9 C-0.15,9 3.84,124 3.84,124 L5.35,124 L6.85,124 L121.16,124 L122.66,124 L124.16,124 C124.16,124 127.74,9 63.79,9 Z" fill="url(#SVGID_1_)"/>
  <path d="M113.13,98.06 C111.59,96.1 109.26,95.01 106.83,95.01 C106.21,95.01 105.58,95.08 104.97,95.23 C102.69,95.77 100.15,96.57 98.55,97.71 C97.43,98.5 96.12,98.95 94.79,98.95 C94.18,98.95 93.58,98.86 92.98,98.67 C84.29,95.87 73.87,94.45 63.42,94.45 C63.41,94.45 63.4,94.45 63.4,94.45 L63.4,94.45 C63.37,94.45 63.33,94.45 63.29,94.45 C53.09,94.46 42.87,95.66 34.25,98.23 C33.68,98.4 33.1,98.48 32.52,98.48 C31.33,98.48 30.14,98.13 29.15,97.43 C27.6,96.34 25.12,95.6 22.9,95.12 C22.34,95 21.77,94.94 21.21,94.94 C18.79,94.94 16.46,96.04 14.92,97.99 C11.97,101.73 7.94,107.53 7.94,111.39 C7.94,115.16 11.26,117.96 11.26,119.89 L11.26,124 L12.76,124 L14.26,124 L111.26,124 L112.76,124 L114.26,124 L114.26,119.89 C114.26,118.25 120.04,115.67 120.04,111.39 C120.05,107.55 116.08,101.81 113.13,98.06 Z" fill="url(#SVGID_2_)"/>
  <path id="hair_3_" d="M98.51,79.85 C97.26,77.58 98.85,75.27 101.57,72.41 C105.88,67.87 110.57,57.34 106.21,46.65 C106.24,46.59 105.35,44.79 105.38,44.73 L103.59,44.64 C103.02,44.56 83.33,44.52 63.62,44.52 C43.91,44.52 24.22,44.56 23.65,44.64 C23.65,44.64 21,46.59 21.02,46.65 C16.67,57.34 21.35,67.86 25.66,72.41 C28.37,75.27 29.96,77.58 28.72,79.85 C27.51,82.06 23.91,82.38 23.91,82.38 C23.91,82.38 24.74,84.64 26.74,85.86 C28.59,86.99 30.87,87.25 32.44,87.29 C32.44,87.29 38.59,95.8 54.67,95.8 L63.62,95.8 L72.57,95.8 C88.65,95.8 94.8,87.29 94.8,87.29 C96.37,87.25 98.65,86.99 100.5,85.86 C102.5,84.64 103.33,82.38 103.33,82.38 C103.33,82.38 99.72,82.06 98.51,79.85 Z" fill="#543930"/>
  <path d="M63.6,95.79 L63.6,86.35 L92.17,84.09 L94.77,87.29 C94.77,87.29 88.62,95.8 72.54,95.8 L63.6,95.79 Z" fill="url(#SVGID_3_)"/>
  <path d="M94.71,83.16 C90.43,76.66 99.92,74.23 99.92,74.23 C99.92,74.23 99.93,74.24 99.93,74.24 C98.28,76.29 97.53,78.08 98.5,79.85 C99.71,82.06 103.31,82.38 103.31,82.38 C103.31,82.38 98.41,86.74 94.71,83.16 Z" fill="url(#SVGID_4_)"/>
  <path d="M106.24,46.65 C110.49,57 106.02,67.66 101.83,72.16 C101.26,72.78 98.82,75.17 98.26,77.08 C98.26,77.08 88.72,63.77 85.87,55.95 C85.3,54.37 84.77,52.75 84.7,51.07 C84.65,49.81 84.84,48.31 85.57,47.24 C86.46,45.93 105.73,45.54 105.73,45.54 C105.73,45.55 106.24,46.65 106.24,46.65 Z" fill="url(#SVGID_5_)"/>
  <path d="M21.02,46.65 C16.77,57 21.24,67.66 25.43,72.15 C26.01,72.77 28.44,75.16 29,77.07 C29,77.07 38.54,63.76 41.39,55.94 C41.97,54.36 42.49,52.74 42.56,51.06 C42.61,49.8 42.42,48.3 41.69,47.23 C40.8,45.92 39.76,46.27 38.25,46.27 C35.37,46.27 22.76,45.53 21.78,45.53 C21.79,45.55 21.02,46.65 21.02,46.65 Z" fill="url(#SVGID_6_)"/>
  <path d="M63.65,95.79 L63.65,86.35 L35.08,84.09 L32.48,87.29 C32.48,87.29 38.63,95.8 54.71,95.8 L63.65,95.79 Z" fill="url(#SVGID_7_)"/>
  <path d="M32.54,83.16 C36.82,76.66 27.33,74.23 27.33,74.23 C27.33,74.23 27.32,74.24 27.32,74.24 C28.97,76.29 29.72,78.08 28.75,79.85 C27.54,82.06 23.94,82.38 23.94,82.38 C23.94,82.38 28.84,86.74 32.54,83.16 Z" fill="url(#SVGID_8_)"/>
  <path d="M78.43,99.5 C74.5,97.17 74.84,91.42 74.84,91.42 C74.32,89.75 71.9,90.08 70.15,90.08 L64,90.08 L64,90.08 L57.86,90.08 C56.11,90.08 53.69,89.75 53.17,91.42 C53.17,91.42 53.5,97.17 49.58,99.5 C46.51,101.32 43.04,104.03 43.04,107.81 C43.04,113.19 43.08,110.58 43.14,111.48 C43.19,112.21 53.6,112.49 64.01,112.41 C64.01,112.41 64.01,112.41 64.01,112.41 C74.42,112.49 84.83,112.21 84.88,111.48 C84.94,110.58 84.98,113.19 84.98,107.81 C84.97,104.03 81.5,101.32 78.43,99.5 Z" fill="#99674F"/>
  <path d="M54.51,111.97 C53.3,109.02 49.57,112.21 44.25,114.39 C38.93,116.58 34.03,116.93 35.25,119.88 C35.7,120.97 37.04,122.55 38.81,123.99 L52.88,123.99 C55.15,120.09 55.4,114.13 54.51,111.97 Z" fill="#C2185B"/>
  <path d="M54.478,110.561 C55.353,112.691 51.747,116.191 46.424,118.378 C41.101,120.564 36.076,120.61 35.201,118.48 C34.325,116.35 37.931,112.85 43.255,110.663 C48.578,108.476 53.602,108.43 54.478,110.561 Z" fill="#EC407A"/>
  <path d="M49.529,113.787 C49.867,114.609 48.48,115.958 46.432,116.8 C44.383,117.641 42.449,117.657 42.111,116.834 C41.773,116.012 43.16,114.663 45.208,113.821 C47.257,112.98 49.191,112.964 49.529,113.787 Z" fill="#D81B60"/>
  <path d="M74.72,109.38 C74.99,108.03 74.72,107.05 74.72,107.05 C73.18,105.05 68.27,105.11 63.27,104.95 C58.58,104.8 53.9,104.21 52.07,105.77 C51.42,106.32 51.65,107.76 51.69,108.65 C51.87,112.51 56.21,123.42 62.41,123.99 L63.45,123.99 C71.75,123.32 73.96,113.09 74.72,109.38 Z" fill="#C2185B"/>
  <path d="M63.44,124 L62.4,124 C62.51,124.01 62.62,124.03 62.73,124.03 C62.97,124.04 63.21,124.02 63.44,124 Z" fill="#C2185B"/>
  <path d="M63.396,102.937 C69.755,103.136 74.852,105.141 74.781,107.416 C74.71,109.69 69.497,111.372 63.138,111.173 C56.779,110.974 51.681,108.969 51.752,106.695 C51.824,104.42 57.037,102.738 63.396,102.937 Z" fill="#EC407A"/>
  <path d="M63.321,106.331 C65.607,106.403 67.438,107.123 67.413,107.94 C67.387,108.757 65.514,109.361 63.229,109.29 C60.943,109.218 59.111,108.498 59.137,107.681 C59.163,106.864 61.036,106.26 63.321,106.331 Z" fill="#D81B60"/>
  <path d="M92.17,119.89 C93.38,116.94 88.49,116.58 83.17,114.4 C77.85,112.22 74.12,109.02 72.91,111.98 C72.02,114.14 72.27,120.1 74.55,124.01 L88.62,124.01 C90.39,122.55 91.72,120.97 92.17,119.89 Z" fill="#C2185B"/>
  <path d="M85.162,109.54 C90.485,111.727 93.863,115.781 92.707,118.596 C91.55,121.411 86.298,121.92 80.974,119.734 C75.651,117.547 72.273,113.492 73.43,110.677 C74.586,107.862 79.839,107.353 85.162,109.54 Z" fill="#EC407A"/>
  <path d="M83.929,113.672 C86.1,114.564 87.477,116.219 87.005,117.368 C86.533,118.518 84.39,118.726 82.219,117.834 C80.048,116.942 78.67,115.287 79.142,114.138 C79.615,112.989 81.758,112.78 83.929,113.672 Z" fill="#D81B60"/>
  <path d="M61.74,121 C59.37,116.64 52.36,115.87 52.36,115.87 C52.36,115.87 50.24,120.08 50.77,124 L62.58,124 C62.5,122.96 62.26,121.93 61.74,121 Z" fill="#2E7D32"/>
  <path d="M49.62,122.43 C45.16,120.25 39,123.7 39,123.7 C39,123.7 39.02,123.81 39.06,124.01 L51.71,124.01 C51.12,123.37 50.43,122.82 49.62,122.43 Z" fill="#43A047"/>
  <path d="M77.07,118.89 C77.07,118.89 70.08,119.66 67.7,124 L78.62,124 C78.23,121.21 77.07,118.89 77.07,118.89 Z" fill="#2E7D32"/>
  <path d="M73.12,116.56 C73.12,116.56 66.07,116.31 63.1,120.29 C62.28,121.39 61.87,122.69 61.68,124 L73.72,124 C74.4,120.41 73.12,116.56 73.12,116.56 Z" fill="#43A047"/>
  <path d="M79.29,122.8 C78.65,123.11 78.1,123.53 77.59,124 L89.83,124 C89.12,123.62 83.46,120.75 79.29,122.8 Z" fill="#43A047"/>
  <path d="M91.33,50.43 L36.67,50.43 C30.78,50.43 25.96,55.57 25.96,61.84 C25.96,68.11 30.78,73.25 36.67,73.25 L91.32,73.25 C97.21,73.25 102.03,68.11 102.03,61.84 C102.03,55.57 97.22,50.43 91.33,50.43 Z" fill="#99674F"/>
  <path d="M64,11.07 L64,11.07 L64,11.07 C46.6,11.07 30.48,29.68 30.48,56.47 C30.48,83.11 47.09,96.28 64,96.28 C80.91,96.28 97.52,83.1 97.52,56.46 C97.52,29.68 81.4,11.07 64,11.07 Z" fill="#BA8D68"/>
  <path d="M52.49,58.81 A4.93 5.1 0 1 1 42.63,58.81 A4.93 5.1 0 1 1 52.49,58.81 Z" fill="#49362E"/>
  <path d="M85.37,58.81 A4.93 5.1 0 1 1 75.51,58.81 A4.93 5.1 0 1 1 85.37,58.81 Z" fill="#49362E"/>
  <path d="M54.8,49.82 C53.87,48.59 51.73,46.81 47.57,46.81 C43.41,46.81 41.26,48.6 40.34,49.82 C39.93,50.36 40.03,50.99 40.32,51.37 C40.58,51.72 41.36,52.05 42.22,51.76 C43.08,51.47 44.76,50.6 47.57,50.58 C50.38,50.6 52.06,51.47 52.92,51.76 C53.78,52.05 54.56,51.73 54.82,51.37 C55.1,50.99 55.21,50.36 54.8,49.82 Z" fill="#613E31"/>
  <path d="M87.67,49.82 C86.74,48.59 84.6,46.81 80.44,46.81 C76.28,46.81 74.13,48.6 73.21,49.82 C72.8,50.36 72.9,50.99 73.19,51.37 C73.45,51.72 74.23,52.05 75.09,51.76 C75.95,51.47 77.63,50.6 80.44,50.58 C83.25,50.6 84.93,51.47 85.79,51.76 C86.65,52.05 87.43,51.73 87.69,51.37 C87.97,50.99 88.08,50.36 87.67,49.82 Z" fill="#613E31"/>
  <path id="mouth_2_" d="M72.42,76.14 C69.24,78.03 58.79,78.03 55.61,76.14 C53.78,75.05 51.91,76.72 52.67,78.38 C53.42,80.01 59.11,83.8 64.04,83.8 C68.97,83.8 74.59,80.01 75.34,78.38 C76.09,76.72 74.25,75.05 72.42,76.14 Z" fill="#5D4037"/>
  <path id="nose_2_" d="M67.86,68.06 C67.75,68.02 67.65,67.99 67.54,67.98 L60.46,67.98 C60.35,67.99 60.24,68.02 60.14,68.06 C59.5,68.32 59.15,68.98 59.45,69.69 C59.75,70.4 61.16,72.38 64,72.38 C66.84,72.38 68.25,70.39 68.55,69.69 C68.85,68.98 68.5,68.32 67.86,68.06 Z" fill="#99674F"/>
  <path id="hair_2_" d="M103.69,25.11 C101.25,21.42 95.78,16.47 90.87,16.14 C90.08,11.42 85.03,7.42 80.14,5.87 C66.91,1.68 58.3,6.38 53.67,8.9 C52.71,9.42 46.5,12.87 42.16,10.4 C39.44,8.85 39.49,4.66 39.49,4.66 C39.49,4.66 30.97,7.91 33.88,16.96 C30.95,17.08 27.11,18.32 25.08,22.43 C22.66,27.33 23.52,31.42 24.22,33.38 C21.7,35.52 18.53,40.07 20.7,45.98 C22.34,50.43 28.87,52.48 28.87,52.48 C28.41,60.49 29.9,65.42 30.69,67.41 C30.83,67.76 31.32,67.73 31.41,67.37 C32.4,63.4 35.77,49.57 35.44,47.16 C35.44,47.16 46.79,44.91 57.61,36.94 C59.81,35.32 62.2,33.94 64.74,32.93 C78.33,27.52 81.17,36.75 81.17,36.75 C81.17,36.75 90.59,34.94 93.43,48.02 C94.5,52.92 95.22,60.77 95.83,66.26 C95.87,66.65 96.4,66.73 96.55,66.37 C97.5,64.19 99.4,59.87 99.85,55.46 C100.01,53.91 104.19,51.86 105.99,45.2 C108.41,36.32 105.45,27.78 103.69,25.11 Z" fill="#543930"/>
  <path d="M99.83,55.5 C99.99,53.95 104.17,51.9 105.97,45.24 C106.16,44.53 106.32,43.81 106.47,43.09 C107.93,35 105.31,27.57 103.68,25.11 C101.42,21.7 96.58,17.22 91.99,16.3 C91.59,16.25 91.2,16.2 90.83,16.18 C90.83,16.18 91.16,18.33 90.29,20.04 C89.17,22.26 86.88,22.79 86.88,22.79 C98.86,34.76 98,44.79 99.83,55.5 Z" fill="url(#SVGID_9_)"/>
  <path d="M56.57,7.39 C55.47,7.92 54.51,8.45 53.67,8.9 C52.71,9.42 46.5,12.87 42.16,10.4 C39.49,8.88 39.49,4.82 39.49,4.68 C38.26,6.25 34.54,17.46 45.42,18.21 C50.11,18.53 53,14.44 54.72,10.98 C55.33,9.72 56.31,7.88 56.57,7.39 Z" fill="url(#SVGID_10_)"/>
  <path d="M78.77,5.47 C86.09,7.45 89.66,11.18 90.85,16.15 C91.2,17.61 91.62,31.23 65.62,15.75 C55.95,9.99 58.59,6.39 59.72,5.98 C64.15,4.38 70.57,3.25 78.77,5.47 Z" fill="url(#SVGID_11_)"/>
  <path d="M39.46,4.68 C39.45,4.69 39.43,4.69 39.4,4.71 C39.4,4.71 39.4,4.71 39.39,4.71 C38.46,5.1 31.15,8.49 33.88,16.96 L41.66,18.21 C34.77,11.23 39.49,4.66 39.49,4.66 C39.49,4.66 39.47,4.67 39.46,4.68 Z" fill="url(#SVGID_12_)"/>
  <path d="M38.69,17.73 L33.88,16.96 C33.69,16.96 33.05,17.02 32.7,17.07 C29.99,17.45 26.8,18.85 25.07,22.43 C23.21,26.29 23.26,29.6 23.77,31.81 C23.92,32.55 24.22,33.39 24.22,33.39 C24.22,33.39 26.6,31.13 32.27,30.98 L38.69,17.73 Z" fill="url(#SVGID_13_)"/>
  <path d="M23.99,33.58 C21.62,35.68 18.43,40.37 20.78,46.19 C22.55,50.58 28.87,52.48 28.87,52.48 C28.87,52.5 30.13,52.88 30.78,52.88 L32.26,30.98 C29.23,30.98 26.32,31.89 24.44,33.2 C24.46,33.23 23.98,33.55 23.99,33.58 Z" fill="url(#SVGID_14_)"/>
  <path d="M62.99,20.02 C50.65,20.03 38.13,23.7 31.14,26.31 C26.54,28.03 22.46,33.89 21.53,38.55 C21.52,38.58 40.26,28.43 63.13,28.02 C86.01,27.6 106.79,37.03 106.79,37.01 C105.79,31.01 101.03,27.17 96.61,25.63 C89.64,23.2 77.5,20.01 62.99,20.02 Z" fill="url(#SVGID_15_)"/>
</svg>