<svg viewBox="0 0 128 128" xmlns="http://www.w3.org/2000/svg">
  <defs>
    <linearGradient id="SVGID_4_" gradientTransform="matrix(1 0 0 -1 0 0)" gradientUnits="userSpaceOnUse" x1="62.22" x2="62.22" y1="-87.62" y2="-56.63">
      <stop offset="0" stop-color="#FF4081"/>
      <stop offset="0.28" stop-color="#FB3D80"/>
      <stop offset="0.55" stop-color="#EF337D"/>
      <stop offset="0.82" stop-color="#DB2378"/>
      <stop offset="1" stop-color="#CA1573"/>
    </linearGradient>
    <linearGradient id="SVGID_3_" gradientTransform="matrix(1 0 0 -1 0 0)" gradientUnits="userSpaceOnUse" x1="61.7164" x2="61.7164" y1="-76.35" y2="-51.7107">
      <stop offset="0" stop-color="#404040"/>
      <stop offset="0.12" stop-color="#3E3A35"/>
      <stop offset="0.44" stop-color="#392D1E"/>
      <stop offset="0.74" stop-color="#362510"/>
      <stop offset="1" stop-color="#35220B"/>
    </linearGradient>
  </defs>
  <path d="M111.29,109.36 C110.42,107.55 108.44,106.56 106.47,106.95 L105.47,107.06 L105.21,107.06 C101.43,107.06 99.77,106.06 98.62,103.25 C96.87,98.98 98.31,92.71 99.77,87.73 C102.77,77.49 106.87,63.48 106.77,49.73 C106.76,47.18 106.61,44.64 106.3,42.11 C105.81,38.08 104.86,34.11 103.48,30.29 C103.85,49.49 100.23,74 83.7,91 C70.5,104.58 48,112.49 38.93,111 C49.43,122.21 64.5,127.98 79.8,126.64 C93.38,125.54 109.23,120.03 111.49,113.83 C112.03,112.37 111.95,110.76 111.29,109.36 Z" fill="#E0E0E0"/>
  <path d="M27.63,43.86 C21.82,43.18 15.8,40.43 13.63,34.93 C11.92,30.66 10.46,24.29 5.47,25.05 C-0.73,26 0.72,38.49 2.17,43.31 C8.06,62.91 27.25,66 27.56,65.53 C27.87,65.06 29.07,43.84 27.63,43.86 Z" fill="#E0E0E0"/>
  <path d="M27.63,43.86 C24.47,43.53 21.43,42.51 18.72,40.86 C19.39,43.44 19.11,46.17 17.92,48.56 C15.71,53.56 9.6,56.24 9.6,56.24 C17.38,64.37 27.34,65.88 27.6,65.54 C28,65 29.07,43.84 27.63,43.86 Z" fill="#CCCCCC"/>
  <path d="M100.37,43.86 C106.18,43.18 112.2,40.43 114.37,34.93 C116.08,30.66 117.54,24.29 122.53,25.05 C128.7,25.99 127.25,38.49 125.8,43.31 C119.91,62.91 100.72,66.01 100.41,65.53 C100.1,65.05 98.93,43.84 100.37,43.86 Z" fill="#E0E0E0"/>
  <path d="M120.11,48.06 C116.33,52.23 107.67,56.21 99.73,56.79 C99.76,59.71 99.98,62.63 100.37,65.53 C100.69,66 119.87,62.91 125.76,43.31 C126.78,39.66 127.18,35.87 126.93,32.09 C126.36,37.99 123.97,43.57 120.11,48.06 Z" fill="#CCCCCC"/>
  <path d="M106.82,49.7 C106.81,47.15 106.66,44.61 106.35,42.08 C104.35,25.73 95.11,11.53 82.23,5 C76.4,1.98 69.83,0.71 63.3,1.35 C49.73,2.79 37.62,10.49 30.57,22.17 C12.83,51.84 24.19,87.73 27.19,93.83 C42.53,125 67.31,127.66 79.81,126.65 C93.39,125.55 109.24,120.04 111.5,113.84 C112.03,112.38 111.96,110.77 111.3,109.36 C110.43,107.55 108.45,106.56 106.48,106.95 L105.48,107.06 L105.22,107.06 C101.44,107.06 99.78,106.06 98.63,103.25 C96.88,98.98 98.32,92.71 99.78,87.73 C102.78,77.51 106.89,63.5 106.82,49.7 Z" fill="#E0E0E0"/>
  <path d="M111.29,109.36 C110.42,107.55 108.44,106.56 106.47,106.95 L105.47,107.06 L105.21,107.06 C101.43,107.06 99.77,106.06 98.62,103.25 C96.87,98.98 98.31,92.71 99.77,87.73 C102.77,77.49 106.87,63.48 106.77,49.73 C106.76,47.18 106.61,44.64 106.3,42.11 C105.81,38.08 104.86,34.11 103.48,30.29 C103.85,49.49 100.23,74 83.7,91 C70.5,104.58 48,112.49 38.93,111 C49.43,122.21 64.5,127.98 79.8,126.64 C93.38,125.54 109.23,120.03 111.49,113.83 C112.03,112.37 111.95,110.76 111.29,109.36 Z" fill="#CCCCCC"/>
  <path d="M61.67,53.88 C70.21,53.92 78.74,53.19 87.15,51.7 C87.45,51.65 87.75,51.65 88.05,51.7 C89.46,51.95 90.4,53.29 90.15,54.7 C87.96,66.3 77.39,76.3 61.7,76.3 C47.35,76.3 35.7,66.58 33.28,54.74 Q33.205,54.305 33.28,53.87 C33.52,52.45 34.86,51.5 36.28,51.74 C44.66,53.21 53.16,53.93 61.67,53.88 Z" fill="url(#SVGID_3_)"/>
  <path d="M63.68,57.26 L61.68,57.26 L60.75,57.26 C56.5,57.26 52.33,57.05 48.31,56.72 L48.31,74.92 C48.32,81.93 53.99,87.61 61,87.62 L63.42,87.62 C70.44,87.62 76.12,81.94 76.13,74.92 L76.13,56.63 C72.11,57 67.93,57.21 63.68,57.26 Z" fill="url(#SVGID_4_)"/>
  <path d="M62.2,73 C63.01,73.01 63.67,72.35 63.68,71.54 C63.68,71.54 63.68,71.53 63.68,71.53 L63.68,57.26 L61.68,57.26 L60.75,57.26 L60.75,71.51 C60.74,72.32 61.39,72.99 62.2,73 C62.2,73 62.2,73 62.2,73 Z" fill="#AB3F2E" opacity="0.3"/>
  <path id="right-sclera" d="M86.83,33.95 A11.65 11.65 0 1 1 63.53,33.95 A11.65 11.65 0 1 1 86.83,33.95 Z" fill="#FFFFFF"/>
  <path id="right-pupil" d="M80.68,33.95 A5 5.08 0 1 1 70.68,33.95 A5 5.08 0 1 1 80.68,33.95 Z" fill="#422B0D"/>
  <path id="left-eye" d="M55.13,36 L55.03,35.84 C54.92,35.66 54.8,35.48 54.67,35.31 C54.23,34.73 53.75,34.18 53.23,33.67 C52.53,33 51.78,32.37 51,31.8 C50.57,31.49 50.12,31.16 49.65,30.86 C49.18,30.56 48.71,30.28 48.19,29.97 C47.67,29.66 47.19,29.44 46.71,29.19 C46.23,28.94 45.71,28.73 45.21,28.51 C44.3,28.11 43.37,27.78 42.41,27.51 C41.71,27.32 40.99,27.19 40.27,27.11 L39.63,27.11 L39.4,27.11 C38.49,27.08 37.74,27.79 37.7,28.69 C37.67,29.42 38.14,30.08 38.84,30.31 L39.02,30.37 L39.6,30.56 C39.98,30.69 40.53,30.89 41.21,31.18 C41.89,31.47 42.67,31.83 43.51,32.24 L44.8,32.91 C45.24,33.14 45.66,33.37 46.14,33.65 L46.41,33.81 L45.51,33.9 C45.16,33.96 45,33.98 44.67,34.05 C44.34,34.12 44.06,34.17 43.79,34.24 C43.23,34.38 42.69,34.56 42.15,34.76 C41.18,35.12 40.26,35.6 39.41,36.18 C39.06,36.42 38.73,36.69 38.41,36.97 C38.16,37.19 37.92,37.43 37.7,37.68 C37.51,37.89 37.38,38.07 37.28,38.19 L37.14,38.38 C36.6,39.11 36.75,40.13 37.48,40.67 C38.06,41.1 38.86,41.1 39.44,40.67 L39.62,40.54 L39.74,40.45 L40.07,40.21 C40.49,39.93 40.93,39.67 41.39,39.45 C42.07,39.13 42.78,38.86 43.5,38.64 C43.9,38.52 44.33,38.42 44.77,38.32 C44.99,38.26 45.2,38.23 45.4,38.19 C45.6,38.15 45.94,38.11 46.11,38.08 C46.99,37.96 47.88,37.9 48.77,37.9 C49.52,37.91 50.28,37.98 51.02,38.11 C51.34,38.17 51.63,38.22 51.87,38.29 C52.08,38.34 52.28,38.4 52.48,38.47 L52.68,38.52 L52.89,38.61 L53.06,38.69 C53.74,38.98 54.53,38.79 55,38.22 C55.23,37.94 55.36,37.58 55.36,37.22 C55.44,36.8 55.36,36.36 55.13,36 Z" fill="#422B0D"/>
</svg>