<svg viewBox="0 0 128 128" xmlns="http://www.w3.org/2000/svg">
  <defs/>
  <path d="M93.96,8.97 C72.05,8.97 64,31.35 64,31.35 C64,31.35 56.06,8.97 33.99,8.97 C17.41,8.97 -1.49,22.11 5.49,51.98 C12.47,81.85 64.05,119.06 64.05,119.06 C64.05,119.06 115.44,81.85 122.43,51.98 C129.41,22.11 111.87,8.97 93.96,8.97 Z" fill="#FFCC32"/>
  <path d="M30.61,11.2 C47.81,11.2 56.35,29.69 59.11,37.18 C59.5,38.25 60.99,38.28 61.44,37.24 L63.96,31.36 C60.41,20.01 50.65,8.97 33.99,8.97 C27.09,8.97 19.8,11.25 14.13,16.06 C19.14,12.77 25.01,11.2 30.61,11.2 Z" fill="#F2A600"/>
  <path d="M93.96,8.97 C88.67,8.97 84.19,10.51 80.43,12.82 C83.07,11.8 85.99,11.2 89.23,11.2 C105.44,11.2 119.95,23.49 113.4,51.9 C107.78,76.29 74.94,105.88 64.91,117.17 C64.27,117.89 64.05,119.05 64.05,119.05 C64.05,119.05 115.44,81.84 122.43,51.97 C129.41,22.11 110.53,8.97 93.96,8.97 Z" fill="#F2A600"/>
  <path d="M17,24.82 C20.75,20.14 27.45,16.27 33.13,20.73 C36.2,23.14 34.86,28.08 32.11,30.16 C28.11,33.2 24.63,35.03 22.19,39.79 C20.73,42.65 19.85,45.78 19.4,48.97 C19.22,50.23 17.57,50.54 16.95,49.43 C12.73,41.95 11.53,31.65 17,24.82 Z" fill="#FFF170"/>
  <path d="M77.13,34.66 C75.37,34.66 74.13,32.96 74.77,31.32 C75.96,28.3 77.5,25.38 79.35,22.78 C82.09,18.94 87.3,16.7 90.6,19.03 C93.98,21.41 93.54,26.17 91.17,28.47 C86.07,33.4 79.66,34.66 77.13,34.66 Z" fill="#FFF170"/>
</svg>