<svg viewBox="0 0 128 128" xmlns="http://www.w3.org/2000/svg">
  <defs>
    <linearGradient id="SVGID_1_" gradientTransform="matrix(-1 0 0 1 0 0)" gradientUnits="userSpaceOnUse" x1="-30.8455" x2="-30.8455" y1="123.5179" y2="110.8654">
      <stop offset="0" stop-color="#530EEB"/>
      <stop offset="1" stop-color="#651FFF"/>
    </linearGradient>
    <linearGradient id="SVGID_2_" gradientUnits="userSpaceOnUse" x1="97.2363" x2="97.2363" y1="123.5179" y2="110.8654">
      <stop offset="0" stop-color="#009E89"/>
      <stop offset="1" stop-color="#00BFA5"/>
    </linearGradient>
    <radialGradient id="hairHighlights_2_" cx="38.018696" cy="64.730678" gradientTransform="matrix(0.9988 0.0497 -0.0666 1.3393 0 0)" gradientUnits="userSpaceOnUse" r="30.7367">
      <stop offset="0.7651" stop-color="#554138" stop-opacity="0"/>
      <stop offset="0.9659" stop-color="#554138"/>
    </radialGradient>
    <radialGradient id="hairHighlights_3_" cx="82.108198" cy="80.091619" gradientTransform="matrix(0.9925 -0.1219 0.1375 1.1198 0 0)" gradientUnits="userSpaceOnUse" r="26.9515">
      <stop offset="0.7945" stop-color="#BFA055" stop-opacity="0"/>
      <stop offset="1" stop-color="#BFA055"/>
    </radialGradient>
  </defs>
  <path d="M78.41,3.74 C67.87,3.74 64,14.5 64,14.5 C64,14.5 60.18,3.74 49.57,3.74 C41.6,3.74 32.5,10.06 35.86,24.42 C39.22,38.78 64.02,56.68 64.02,56.68 C64.02,56.68 88.74,38.78 92.1,24.42 C95.46,10.06 87.02,3.74 78.41,3.74 Z" fill="#EF5592"/>
  <path d="M47.94,4.81 C56.21,4.81 60.32,13.7 61.65,17.31 C61.84,17.82 62.56,17.84 62.77,17.34 L63.98,14.51 C62.27,9.06 57.58,3.74 49.57,3.74 C46.25,3.74 42.75,4.84 40.02,7.15 C42.42,5.56 45.25,4.81 47.94,4.81 Z" fill="#DA2E75"/>
  <path d="M78.41,3.74 C75.86,3.74 73.71,4.48 71.9,5.59 C73.17,5.1 74.58,4.81 76.13,4.81 C83.93,4.81 90.9,10.72 87.75,24.39 C85.05,36.12 69.25,50.35 64.43,55.78 C64.12,56.13 64.02,56.69 64.02,56.69 C64.02,56.69 88.74,38.79 92.1,24.43 C95.46,10.06 86.38,3.74 78.41,3.74 Z" fill="#DA2E75"/>
  <path d="M41.4,11.36 C43.2,9.11 46.43,7.25 49.16,9.39 C50.64,10.55 49.99,12.93 48.67,13.93 C46.74,15.39 45.07,16.27 43.9,18.56 C43.2,19.94 42.77,21.44 42.56,22.98 C42.48,23.59 41.68,23.73 41.38,23.2 C39.34,19.6 38.77,14.65 41.4,11.36 Z" fill="#F386AB"/>
  <path d="M70.31,16.09 C69.46,16.09 68.87,15.27 69.18,14.48 C69.75,13.03 70.49,11.62 71.38,10.37 C72.7,8.52 75.2,7.45 76.79,8.56 C78.42,9.71 78.21,11.99 77.06,13.1 C74.61,15.49 71.53,16.09 70.31,16.09 Z" fill="#F386AB"/>
  <path id="hair_3_" d="M5.43,74.62 C5.49,74.36 10.38,45.28 36.23,47.54 C51.27,48.85 61.71,59.06 61.83,74.15 C61.87,79.47 62.05,88.66 61.61,92.84 C59.78,110.42 53.87,121.27 53.08,121.47 C48.92,122.49 11.74,124.82 8.99,119.24 C2.65,106.44 3.99,83.56 5.43,74.62 Z" fill="#3C2C23"/>
  <path d="M27.08,111.11 L30.84,111.11 L34.6,111.11 C43.29,110.45 56.16,114.35 59.07,124 L30.85,124 L2.61,124 C5.52,114.36 18.39,110.45 27.08,111.11 Z" fill="url(#SVGID_1_)"/>
  <path id="neck_1_" d="M30.61,117.83 L30.61,117.83 C26.85,117.83 23.81,114.78 23.81,111.03 L23.81,106.49 L37.42,106.49 L37.42,111.03 C37.41,114.79 34.36,117.83 30.61,117.83 Z" fill="#7A4C32"/>
  <path d="M37.51,55.63 L37.51,55.63 L37.51,55.63 C25.36,54.14 13,61.79 10.64,80.95 C8.75,96.34 17.16,106.61 25.1,110.56 C26.99,111.5 28.86,112.09 30.55,112.3 C32.23,112.51 34.17,112.39 36.22,111.94 C44.88,110.04 55.55,102.1 57.45,86.69 C59.8,67.53 49.66,57.12 37.51,55.63 Z" fill="#A56C43"/>
  <path id="nose_178_" d="M36.63,94.22 C36.56,94.18 36.49,94.15 36.41,94.14 L31.47,93.53 C31.39,93.53 31.32,93.54 31.24,93.56 C30.77,93.69 30.47,94.12 30.62,94.64 C30.77,95.16 31.58,96.67 33.56,96.91 C35.54,97.15 36.69,95.89 36.97,95.42 C37.25,94.95 37.06,94.46 36.63,94.22 Z" fill="#875334"/>
  <path d="M29.03,80.21 C28.48,79.26 27.12,77.81 24.18,77.45 C21.24,77.09 19.57,78.16 18.81,78.95 C18.47,79.3 18.49,79.75 18.66,80.04 C18.82,80.31 19.34,80.61 19.97,80.48 C20.6,80.35 21.86,79.88 23.85,80.11 C25.84,80.37 26.95,81.13 27.53,81.41 C28.11,81.69 28.69,81.53 28.91,81.3 C29.14,81.06 29.27,80.63 29.03,80.21 Z" fill="#42312C"/>
  <path d="M52.23,83.06 C51.68,82.11 50.32,80.66 47.38,80.3 C44.44,79.94 42.77,81.01 42.01,81.8 C41.67,82.15 41.69,82.6 41.86,82.89 C42.02,83.16 42.54,83.46 43.17,83.33 C43.8,83.2 45.06,82.73 47.05,82.96 C49.04,83.22 50.15,83.98 50.73,84.26 C51.31,84.54 51.89,84.38 52.11,84.15 C52.35,83.91 52.48,83.48 52.23,83.06 Z" fill="#42312C"/>
  <path d="M46.777,85.27 C48.674,85.503 50.015,87.287 49.774,89.255 C49.532,91.223 47.799,92.629 45.902,92.396 C44.006,92.163 42.664,90.379 42.906,88.411 C43.147,86.444 44.881,85.037 46.777,85.27 Z" fill="#42312C"/>
  <path d="M23.568,82.421 C25.465,82.654 26.806,84.438 26.564,86.406 C26.323,88.374 24.589,89.78 22.693,89.547 C20.796,89.314 19.455,87.53 19.696,85.563 C19.938,83.595 21.671,82.188 23.568,82.421 Z" fill="#42312C"/>
  <path id="mouth_104_" d="M39.11,100.32 C36.72,101.37 29.44,100.47 27.38,98.88 C26.2,97.96 24.75,98.96 25.14,100.19 C25.52,101.39 29.17,104.53 32.61,104.95 C36.05,105.37 40.3,103.21 40.96,102.13 C41.63,101.04 40.48,99.72 39.11,100.32 Z" fill="#473530"/>
  <path id="hair_2_" d="M36.22,47.55 C10.37,45.29 5.49,74.36 5.43,74.62 C4.76,78.8 4.11,86.02 4.25,93.83 L11.49,94.34 C11.27,90.38 14.37,75.2 20.91,74.73 C37.18,73.54 44.62,66.14 44.62,66.14 C46.32,71.5 52.98,77.34 55.36,79.55 C57.31,81.36 56.2,91.24 55.83,93.95 L61.49,93.95 C61.53,93.59 61.57,93.23 61.61,92.86 C62.04,88.68 61.87,79.49 61.83,74.17 C61.7,59.06 51.26,48.86 36.22,47.55 Z" fill="#3C2C23"/>
  <path id="hairHighlights_1_" d="M61.82,74.15 C61.7,59.06 51.26,48.86 36.22,47.54 C10.37,45.29 5.49,74.36 5.43,74.62 C4.09,82.97 2.83,103.49 7.83,116.59 C13.16,112.35 21.11,110.65 27.08,111.11 L30.84,111.11 L34.6,111.11 C41.12,110.61 49.99,112.68 55.24,117.82 C57.36,113.23 60.38,104.53 61.59,92.84 C62.04,88.67 61.86,79.47 61.82,74.15 Z" fill="url(#hairHighlights_2_)"/>
  <path d="M101,111.11 L97.24,111.11 L93.48,111.11 C84.78,110.45 71.91,114.36 69,124 L97.23,124 L125.46,124 C122.57,114.36 109.69,110.45 101,111.11 Z" fill="url(#SVGID_2_)"/>
  <path id="neck" d="M97,117.83 L97,117.83 C93.24,117.83 90.2,114.78 90.2,111.03 L90.2,106.49 L103.81,106.49 L103.81,111.03 C103.8,114.79 100.75,117.83 97,117.83 Z" fill="#C48E6A"/>
  <path d="M112,79.66 L106.82,80.3 L78.79,83.74 L73.61,84.38 C69.47,84.89 66.53,88.91 67.07,93.32 C67.61,97.73 71.44,100.92 75.58,100.41 L80.76,99.77 L108.79,96.33 L113.97,95.69 C118.11,95.18 121.05,91.16 120.51,86.75 C119.97,82.35 116.14,79.16 112,79.66 Z" fill="#C48E6A"/>
  <path d="M89.33,53.67 L89.33,53.67 L89.33,53.67 C77.11,55.17 67.39,69.63 69.7,88.44 C72,107.15 84.79,114.96 96.67,113.51 C108.55,112.05 119.07,101.37 116.78,82.66 C114.47,63.85 101.55,52.17 89.33,53.67 Z" fill="#E0BB95"/>
  <path d="M74.86,84.31 C76.71,80.87 81.94,80.12 84.91,82.49 C85.42,82.9 85.98,83.45 85.72,84.17 C85.43,84.97 84.64,84.94 83.97,84.76 C82.18,84.28 80.38,84.19 78.59,84.79 C77.82,85.05 77.18,85.46 76.46,85.82 C75.49,86.3 74.33,85.37 74.86,84.31 Z" fill="#AB872F"/>
  <path d="M107.69,82 C106.04,81.51 104.41,81.31 102.7,81.72 C101.93,81.91 101.18,82.21 100.48,82.59 C99.93,82.89 99.34,83.34 98.69,83.01 C96.83,82.04 99.64,79.73 100.49,79.23 C102.33,78.15 104.65,77.95 106.64,78.7 C107.43,79 108.31,79.46 108.84,80.14 C109.51,80.98 108.83,82.3 107.69,82 Z" fill="#AB872F"/>
  <path d="M84.323,88.908 C84.566,90.887 83.212,92.681 81.299,92.916 C79.386,93.151 77.638,91.738 77.395,89.759 C77.152,87.78 78.506,85.985 80.419,85.75 C82.332,85.515 84.08,86.929 84.323,88.908 Z" fill="#5D4037"/>
  <path d="M107.682,86.037 C107.925,88.016 106.571,89.81 104.658,90.045 C102.745,90.28 100.997,88.867 100.754,86.888 C100.511,84.909 101.865,83.114 103.778,82.879 C105.691,82.644 107.439,84.058 107.682,86.037 Z" fill="#5D4037"/>
  <path id="nose_173_" d="M96.04,94.06 C95.96,94.04 95.88,94.03 95.81,94.03 L90.84,94.64 C90.77,94.66 90.69,94.69 90.62,94.73 C90.19,94.97 90,95.46 90.28,95.94 C90.55,96.41 91.71,97.68 93.71,97.44 C95.7,97.2 96.52,95.68 96.67,95.16 C96.82,94.63 96.52,94.19 96.04,94.06 Z" fill="#C48E6A"/>
  <path id="mouth_99_" d="M99.94,99.35 C97.87,100.96 90.53,101.86 88.13,100.8 C86.75,100.19 85.58,101.52 86.26,102.63 C86.92,103.71 91.25,105.88 94.71,105.46 C98.17,105.04 101.79,101.89 102.18,100.68 C102.57,99.44 101.13,98.43 99.94,99.35 Z" fill="#6D4C41"/>
  <path id="hair_588_" d="M88.81,49.43 L88.81,49.43 C88.81,49.43 88.8,49.43 88.8,49.43 C88.8,49.43 88.79,49.43 88.79,49.43 L88.79,49.43 C56.9,53.53 67.91,89.17 67.91,89.17 C67.91,89.17 69.8,92.75 70.66,94.33 C70.78,94.56 71.13,94.49 71.15,94.23 C71.46,91.1 71.59,79.99 72.42,76.56 C72.91,74.53 74.78,73.17 76.86,73.28 C82.05,73.56 90.72,72.87 90.74,72.86 C96.24,72.19 102.12,70.87 105.18,69.92 C107.17,69.3 109.32,70.18 110.28,72.03 C111.91,75.15 115.67,85.6 116.74,88.6 C116.83,88.85 117.18,88.83 117.24,88.57 L118.67,82.93 C118.68,82.93 120.74,45.69 88.81,49.43 Z" fill="#AB872F"/>
  <path id="hairHighlights" d="M118.68,82.93 C118.68,82.93 120.74,45.68 88.81,49.43 L88.81,49.43 C88.81,49.43 88.8,49.43 88.8,49.43 L88.8,49.43 C88.8,49.43 88.79,49.43 88.79,49.43 L88.79,49.43 C88.29,49.49 87.81,49.56 87.33,49.64 C86.38,49.8 85.48,49.98 84.61,50.2 C84.6,50.2 84.59,50.2 84.58,50.21 C84.52,50.23 84.46,50.24 84.4,50.26 C57.95,56.94 67.91,89.17 67.91,89.17 L70.66,94.3 C70.78,94.53 71.12,94.46 71.15,94.2 C71.46,91.04 71.59,79.98 72.42,76.55 C72.91,74.52 74.78,73.15 76.86,73.27 C80.06,73.45 85.12,73.54 90.62,72.87 C90.64,72.87 91.65,72.86 91.67,72.86 C91.69,72.86 91.71,72.86 91.73,72.85 C97.23,72.18 102.12,70.86 105.18,69.91 C107.17,69.29 109.32,70.17 110.28,72.02 C111.92,75.16 115.7,85.68 116.75,88.63 C116.84,88.87 117.18,88.86 117.25,88.61 C117.7,86.88 118.68,82.93 118.68,82.93 Z" fill="url(#hairHighlights_3_)"/>
</svg>