<svg viewBox="0 0 128 128" xmlns="http://www.w3.org/2000/svg">
  <defs>
    <radialGradient id="SVGID_1_" cx="68.966026" cy="98.438478" gradientTransform="matrix(1 0.00336 -0.001858 0.5531 0 0)" gradientUnits="userSpaceOnUse" r="127.3763">
      <stop offset="0.4439" stop-color="#FF689B"/>
      <stop offset="1" stop-color="#D6336B"/>
    </radialGradient>
  </defs>
  <path d="M80.67,19.16 A8.56 8.56 0 1 1 63.55,19.16 A8.56 8.56 0 1 1 80.67,19.16 Z" fill="#E2A610"/>
  <path d="M65.19,24.18 C64.71,23.56 64.27,22.9 63.88,22.21 C63.84,22.14 63.8,22.07 63.79,22 C63.77,21.88 63.81,21.76 63.84,21.64 C64.08,20.82 64.16,19.96 64.09,19.12 C64.03,18.47 63.88,17.83 63.88,17.18 C63.88,16.75 64.11,15.27 64.67,15.64 C65.15,15.96 65.5,17.05 65.69,17.57 C66.18,18.93 66.3,20.43 66.03,21.85 C65.88,22.66 65.6,23.45 65.19,24.18 Z" fill="#9E740B"/>
  <path d="M74.03,12.59 C74.52,13.04 74.7,13.88 74.26,14.37 C73.99,14.67 73.47,14.89 72.82,14.84 C71.51,14.75 70.53,15.07 69.82,15.35 C68.19,15.99 67.35,15.62 67.28,14.96 C67.21,14.3 67.4,13.09 69.91,12.31 C72.42,11.54 73.69,12.28 74.03,12.59 Z" fill="#FFCA28"/>
  <path d="M64.45,33.8 C64.45,33.8 65.36,30.31 65.98,28.25 C66.82,25.44 67.47,20.25 71.59,20.88 C73.39,21.16 74.94,22.96 74.68,24.78 L72.11,33.79 L64.45,33.79 Z" fill="#FFCA28"/>
  <path d="M64.45,19.16 A8.56 8.56 0 1 1 47.33,19.16 A8.56 8.56 0 1 1 64.45,19.16 Z" fill="#FFCA28"/>
  <path d="M56.99,13.32 C57.43,14.21 56.99,15.13 54.97,16.35 C52.88,17.61 52.59,18.76 51.73,19.66 C51.03,20.39 49.66,20.12 49.5,19.14 C49.12,16.84 50.23,15.03 51.28,13.94 C52.88,12.27 56.05,11.44 56.99,13.32 Z" fill="#FFE36C"/>
  <path d="M62.77,24.24 C63.07,23.83 63.5,23.15 63.67,22.71 C63.72,22.59 63.33,22.74 62.98,23.07 C62.22,23.8 60.73,25.3 57.88,26.16 C54.17,27.28 51.56,25.92 51.18,26.04 C50.79,26.17 52.16,26.85 52.36,26.94 C53.07,27.26 53.83,27.49 54.6,27.61 L55.11,29.33 L62.78,29.33 L61.63,25.51 C62.03,25.15 62.42,24.72 62.77,24.24 Z" fill="#9E740B"/>
  <path d="M101.46,29.34 L26.54,29.34 C15.93,29.34 12.97,36.75 12.97,43.13 L12.97,69.02 L115.05,69.02 L115.05,43.13 C115.04,36.75 112.07,29.34 101.46,29.34 Z" fill="#FFCA28"/>
  <path d="M12.96,55.51 C12.96,55.51 13.71,56.88 17.06,55.89 C20.41,54.9 21.96,48.97 21.96,48.97 L21.54,69.02 L12.96,69.02 L12.96,55.51 Z" fill="#E2A610"/>
  <path d="M115.04,54.56 C115.04,54.56 114.15,55.95 110.86,55.04 C107.56,54.12 106.25,47.5 106.25,47.5 L106.51,69.03 L115.04,69.03 L115.04,54.56 Z" fill="#E2A610"/>
  <path d="M112.28,63.93 C107.8,56.4 106.73,52.84 106.09,45.92 C105.67,41.38 104.37,37.87 99.92,37.87 L28.08,37.87 C23.63,37.87 22.33,41.39 21.91,45.92 C21.27,52.83 20.2,56.4 15.72,63.93 C8.82,75.53 3.1,85.88 4.12,93.14 C6.07,107.04 18.51,122.93 28.41,122.93 C32.04,122.93 95.95,122.93 99.59,122.93 C109.5,122.93 121.93,107.04 123.88,93.14 C124.9,85.88 119.18,75.53 112.28,63.93 Z" fill="url(#SVGID_1_)"/>
  <path d="M56.93,37.99 C56.93,37.99 38.25,54.03 44.07,57.95 C50.07,61.99 56.93,37.99 56.93,37.99 L56.93,37.99 Z" fill="#D6336B"/>
  <path d="M64.2,67.99 C72.34,67.99 63.78,37.8 63.78,37.8 C63.78,37.8 56.06,67.99 64.2,67.99 Z" fill="#D6336B"/>
  <path d="M71.45,37.8 C71.45,37.8 77.38,62.35 83.73,58.12 C90.08,53.89 71.45,37.8 71.45,37.8 L71.45,37.8 Z" fill="#D6336B"/>
</svg>