<svg viewBox="0 0 128 128" xmlns="http://www.w3.org/2000/svg">
  <defs>
    <linearGradient id="e" gradientUnits="userSpaceOnUse" x1="42.41" x2="83.27" y1="39.536" y2="39.536">
      <stop offset="0" stop-color="#70534A"/>
      <stop offset=".4473" stop-color="#65483F"/>
      <stop offset=".9991" stop-color="#5C4037"/>
    </linearGradient>
    <linearGradient id="d" gradientUnits="userSpaceOnUse" x1="45.612" x2="104.92" y1="47.458" y2="47.458">
      <stop offset="0" stop-color="#70534A"/>
      <stop offset=".4661" stop-color="#6D5047"/>
      <stop offset=".8408" stop-color="#63463D"/>
      <stop offset=".9991" stop-color="#5C4037"/>
    </linearGradient>
    <linearGradient id="a" gradientUnits="userSpaceOnUse" x1="36.044" x2="88.678" y1="59.183" y2="111.82">
      <stop offset="0" stop-color="#70534A"/>
      <stop offset=".4661" stop-color="#6D5047"/>
      <stop offset=".8408" stop-color="#63463D"/>
      <stop offset=".9991" stop-color="#5C4037"/>
    </linearGradient>
  </defs>
  <path d="M77.93,56.51 C68.42,56.51 48.77,40.61 47.58,39.64 C45.28,37.33 40.4,31.35 43.3,24.72 C43.92,23.29 45.27,22.57 47.29,22.57 C49.74,22.57 52.91,23.68 55.76,25.54 L81.25,45.23 C84.49,47.68 83.39,52.22 80.99,55.42 C80.33,56.15 79.33,56.51 77.93,56.51 Z" fill="url(#e)"/>
  <path d="M47.29,24.06 C49.45,24.06 52.29,25.06 54.89,26.75 L80.35,46.43 C83.1,48.51 81.25,52.53 79.83,54.46 C79.65,54.65 79.18,55.02 77.92,55.02 C70.32,55.02 54.29,43.21 48.59,38.54 C46.49,36.41 42.16,31.07 44.67,25.33 C44.84,24.94 45.23,24.06 47.29,24.06 M47.29,21.06 C44.86,21.06 42.87,21.97 41.93,24.11 C39.22,30.3 42.32,36.49 46.57,40.75 C46.57,40.75 67.51,58.01 77.92,58.01 C79.68,58.01 81.14,57.52 82.15,56.36 C85.13,52.42 86.1,47.02 82.16,44.04 L56.63,24.31 C53.6,22.32 50.15,21.06 47.29,21.06 Z" fill="#4A2F27"/>
  <path d="M96.48,89.21 C87.18,89.11 84.18,68.94 83.81,61.16 C83.79,60.71 83.57,60.3 83.21,60.03 C78.92,56.8 74.12,45.84 71.06,36.65 C70.97,36.39 70.91,36.26 70.9,36.25 C70.71,35.91 70.4,35.65 70.02,35.53 C63.15,33.42 52.67,24.88 48.48,19.94 C46.17,17.22 44.69,11.45 46.24,8.11 C46.99,6.49 48.33,5.71 50.34,5.71 C52.88,5.71 56.38,7.01 60.47,9.48 C61.61,10.31 81.15,24.57 86.27,30.24 C91.48,36.01 97.91,48.87 97.97,49 C106.22,66.42 105.01,82.11 104.6,85.67 C101.18,87.31 97.33,89.03 96.48,89.21 Z" fill="url(#d)"/>
  <path d="M50.35,7.21 C51.92,7.21 54.81,7.82 59.65,10.73 C61.22,11.87 80.21,25.75 85.17,31.24 C90.14,36.74 96.32,49.02 96.63,49.64 C104.17,65.59 103.63,80.09 103.21,84.67 C100.35,86.03 97.32,87.38 96.31,87.69 C88.97,87.29 85.74,69.66 85.32,61.08 C85.28,60.19 84.84,59.36 84.13,58.82 C81.62,56.93 77.06,49.86 72.5,36.17 C72.42,35.93 72.36,35.76 72.23,35.52 C71.86,34.83 71.23,34.32 70.48,34.09 C67.47,33.16 63.38,30.8 58.95,27.43 C55.3,24.65 51.64,21.32 49.64,18.96 C47.43,16.36 46.43,11.29 47.61,8.73 C47.96,7.98 48.56,7.21 50.35,7.21 M50.35,4.21 C41.9,4.21 43.22,16.05 47.35,20.91 C51.33,25.6 62.05,34.64 69.6,36.97 C69.64,37.04 75.79,56.31 82.32,61.23 C82.32,61.23 83.72,90.71 96.56,90.71 C97.68,90.71 106,86.67 106,86.67 C106,86.67 109,68.75 99.33,48.34 C99.33,48.34 92.82,35.24 87.4,29.24 C81.98,23.24 61.31,8.24 61.31,8.24 C56.56,5.36 52.98,4.21 50.35,4.21 Z" fill="#4A2F27"/>
  <path d="M51.27,122.3 C49.02,122.28 43.29,119.05 42.5,118.35 C42.46,118.31 42.38,118.25 42.34,118.22 C42.25,118.16 33.29,111.75 28.77,105.45 C24.33,99.27 22.9,87.16 22.89,87.04 C22.33,83.08 22.75,78.06 27.96,76.33 C28.79,76.05 29.63,75.91 30.47,75.91 C34.39,75.91 37.47,78.9 39.07,81.73 C39.67,83.24 45.84,97.96 57.59,97.96 C59.57,97.96 61.61,97.53 63.65,96.67 C70.84,93.66 73.64,88.31 74.72,84.35 C76.51,77.8 74.8,70.68 72.28,67.31 C69.62,63.74 65,61.61 59.94,61.61 C57.99,61.61 56.11,61.93 54.52,62.55 C52.09,63.49 49.9,65.18 47.78,66.81 C45.7,68.41 43.55,70.07 41.14,71.07 C39.24,71.86 37.44,72.24 35.63,72.24 C32.69,72.24 29.79,71.21 26.76,69.1 C25.42,68.17 24.76,66.98 24.8,65.57 C24.85,63.63 26.24,61.52 28.35,60.19 C35.27,55.36 45.72,48.1 46.71,47.49 C50.03,45.94 55.27,44.67 58.42,44.67 C59.39,44.67 59.95,44.79 60.24,44.88 L81.78,51.89 C85.238,53.045 89.995,59.381 93.539,64.616 C94.826,67.411 96.066,70.163 97.28,72.45 C101.43,80.28 102.74,84.51 102.74,84.51 C102.74,84.51 103.672,84.435 104.513,84.699 C104.499,85.287 104.431,85.872 104.3,86.45 C103.6,89.53 100.87,96.4 96.41,106.33 C92.07,115.99 82.04,122.24 70.87,122.26 Z" fill="url(#a)"/>
  <path d="M58.41,46.19 C55.53,46.19 50.54,47.39 47.42,48.81 C46.06,49.68 35.66,56.91 29.26,61.38 C29.22,61.41 29.18,61.43 29.14,61.46 C27.47,62.51 26.32,64.18 26.29,65.61 C26.26,66.5 26.7,67.24 27.61,67.88 C30.38,69.81 33,70.75 35.62,70.75 C37.22,70.75 38.84,70.4 40.55,69.69 C42.78,68.76 44.76,67.24 46.85,65.62 C49.06,63.92 51.33,62.17 53.97,61.15 C55.73,60.47 57.79,60.11 59.92,60.11 C65.45,60.11 70.52,62.47 73.46,66.41 C76.25,70.15 78.07,77.65 76.14,84.74 C74.97,89.02 71.96,94.81 64.21,98.05 C61.99,98.98 59.75,99.45 57.57,99.45 C45.07,99.45 38.54,84.47 37.69,82.38 C36.3,79.94 33.69,77.4 30.45,77.4 C29.78,77.4 29.1,77.51 28.42,77.74 C25.03,78.86 23.66,81.9 24.36,86.77 C24.36,86.8 24.37,86.83 24.37,86.86 C24.39,86.98 25.78,98.71 29.98,104.57 C34.36,110.67 43.11,116.93 43.2,116.99 C43.3,117.05 43.39,117.13 43.48,117.21 C44.61,118.1 49.71,120.78 51.28,120.79 L70.86,120.76 C81.45,120.74 90.94,114.84 95.04,105.72 C100.63,93.29 102.37,88.2 102.84,86.12 C102.959,85.593 103.014,85.051 103.014,84.5 C103.806,84.494 106.027,84.642 105.822,86.499 C105.803,86.596 105.782,86.693 105.76,86.79 C104.88,90.63 101.3,99.1 97.77,106.96 C93.19,117.14 82.59,123.75 70.86,123.77 L51.25,123.8 C48.45,123.78 42.22,120.17 41.46,119.44 C41.46,119.44 36.413,115.857 31.877,111.326 C30.293,109.742 28.771,108.043 27.55,106.34 C22.83,99.76 21.58,86.87 21.58,86.87 C21.538,82.7 21.732,79.451 23.696,77.24 C24.335,76.563 25.111,75.977 26.039,75.506 C26.479,75.29 26.961,75.095 27.49,74.92 C31.153,73.708 34.557,74.865 37.153,77.078 C38.471,78.204 39.581,79.603 40.41,81.1 C40.41,81.1 43.236,88.438 48.691,92.973 C52.33,96.004 57.14,97.789 63.06,95.31 C77.01,89.47 74.97,73.46 71.07,68.23 C70.024,66.827 68.712,65.746 67.265,64.947 C64.983,63.686 62.365,63.13 59.92,63.13 C58.14,63.13 56.45,63.43 55.05,63.97 C50.54,65.71 46.84,70.35 41.71,72.48 C39.69,73.31 37.67,73.76 35.63,73.76 C34.364,73.76 33.091,73.59 31.802,73.235 C29.879,72.701 27.921,71.755 25.91,70.35 C21.41,67.21 23.24,61.65 27.55,58.94 C27.55,58.94 45.68,46.29 46.03,46.17 C46.222,46.079 46.423,45.987 46.632,45.894 C49.959,44.454 55.016,43.19 58.41,43.19 C59.32,43.19 60.11,43.28 60.71,43.48 L82.24,50.48 C84.553,51.25 87.202,53.817 89.754,56.932 C92.457,61.797 94.92,68.003 97.28,72.45 C97.36,72.601 97.439,72.75 97.517,72.899 C97.16,72.486 96.835,72.136 96.56,71.86 C96.41,71.71 96.28,71.55 96.17,71.38 C95.89,70.95 95.59,70.48 95.26,69.97 C92.3,65.4 85.38,54.68 81.29,53.32 L59.78,46.33 C59.66,46.3 59.28,46.19 58.41,46.19 Z" fill="#4A2F27"/>
</svg>