<svg viewBox="0 0 128 128" xmlns="http://www.w3.org/2000/svg">
  <defs/>
  <path d="M104.063,74.251 C104.672,79.845 101.846,84.742 97.75,85.188 C93.654,85.634 89.84,81.46 89.231,75.865 C88.623,70.271 91.449,65.374 95.545,64.928 C99.641,64.482 103.455,68.656 104.063,74.251 Z" fill="#176BC6"/>
  <path d="M53.175,24 C53.507,29.546 50.335,34.248 46.09,34.501 C41.845,34.755 38.135,30.465 37.803,24.919 C37.471,19.373 40.644,14.672 44.889,14.418 C49.134,14.164 52.844,18.454 53.175,24 Z" fill="#176BC6"/>
  <path d="M64.119,21.033 C68.341,21.542 71.249,26.221 70.615,31.485 C69.981,36.749 66.044,40.603 61.822,40.095 C57.6,39.586 54.692,34.907 55.326,29.643 C55.96,24.379 59.897,20.524 64.119,21.033 Z" fill="#176BC6"/>
  <path d="M34.831,26.006 C36.189,31.78 33.878,37.263 29.669,38.253 C25.459,39.244 20.946,35.366 19.587,29.592 C18.229,23.818 20.54,18.335 24.75,17.345 C28.959,16.355 33.473,20.232 34.831,26.006 Z" fill="#176BC6"/>
  <path d="M89.66,94.36 C104.77,85.91 122.06,97.83 119.79,106.94 C117.35,116.7 108.06,111.44 101.11,113.98 C96.84,115.54 90.32,124.3 82.81,118.95 C76.26,114.28 79.8,99.87 89.66,94.36 Z" fill="#176BC6"/>
  <path d="M38.16,40.41 C48.96,37.58 64.02,45.97 62.3,55.54 C60.68,64.55 48.16,60.62 43.08,62.51 C36.46,64.97 28.16,72.22 23.44,64.97 C18.12,56.78 28.68,42.9 38.16,40.41 Z" fill="#176BC6"/>
  <path d="M19.588,37.074 C22.335,41.833 21.573,47.417 17.886,49.546 C14.198,51.675 8.982,49.543 6.234,44.784 C3.486,40.025 4.248,34.442 7.936,32.312 C11.623,30.183 16.84,32.315 19.588,37.074 Z" fill="#176BC6"/>
  <path d="M86.014,78.353 C88.828,83.227 88.004,88.971 84.173,91.182 C80.342,93.394 74.955,91.237 72.141,86.363 C69.327,81.489 70.152,75.745 73.983,73.533 C77.814,71.322 83.2,73.479 86.014,78.353 Z" fill="#176BC6"/>
  <path d="M73.304,92.986 C76.56,97.576 76.476,103.229 73.115,105.613 C69.755,107.997 64.391,106.209 61.135,101.619 C57.879,97.029 57.963,91.375 61.324,88.991 C64.684,86.607 70.048,88.396 73.304,92.986 Z" fill="#176BC6"/>
  <path d="M122.475,77.862 C122.796,83.077 119.737,87.509 115.641,87.761 C111.545,88.014 107.964,83.991 107.643,78.776 C107.322,73.562 110.382,69.13 114.477,68.877 C118.573,68.625 122.154,72.648 122.475,77.862 Z" fill="#176BC6"/>
</svg>