<svg viewBox="0 0 128 128" xmlns="http://www.w3.org/2000/svg" xmlns:xlink="http://www.w3.org/1999/xlink">
  <g>
    <defs>
      <rect id="SVGID_1_" height="120" width="120" x="4" y="4"/>
    </defs>
    <clipPath id="SVGID_00000026879045340114453910000017953425418660478350_">
      <use overflow="visible" xlink:href="#SVGID_1_"/>
    </clipPath>
    <g clip-path="url(#SVGID_00000026879045340114453910000017953425418660478350_)">
      <g>
        <defs>
          <rect id="SVGID_00000032630236356029858750000007830341546415103917_" height="128" width="128"/>
        </defs>
        <clipPath id="SVGID_00000054239132659405170690000017351906285187083699_">
          <use overflow="visible" xlink:href="#SVGID_00000032630236356029858750000007830341546415103917_"/>
        </clipPath>
        <g clip-path="url(#SVGID_00000054239132659405170690000017351906285187083699_)">
          <radialGradient id="SVGID_00000154426139766392860730000003436646532090758589_" cx="-2261.908" cy="-250.5096" gradientTransform="matrix(-0.7071 -0.7071 -0.7071 0.7071 -1734.1222 -1353.3722)" gradientUnits="userSpaceOnUse" r="137.58">
            <stop offset="0.3582" stop-color="#BA8D68"/>
            <stop offset="0.8723" stop-color="#A47B62"/>
          </radialGradient>
          <path d="M-20.3,186.8c-11.5,0-22.5-5.2-32.8-15.5 c-28.1-28.1-34.5-44.3-26.1-66.5c3.4-9.1,17.6-32.2,18.9-34.2c1.1-1.1,8.9-9,15.1-15.8c6.5-7.2,11.5-16.1,12.2-17.1 c0.7-0.9,1.9-1.5,3.1-1.5c0.7,0,1.3,0.2,1.9,0.5c7,4.3,9.4,9.5,7.2,15.9c-1.5,4.7-5.8,9.5-9.2,13.5c-4,4.6-6.6,7.6-5.6,10.1 c0.2,0.4,0.3,0.8,0.4,1.2c0.6,1.9,1.3,3.8,3.1,3.8c0.8,0,1.5-0.4,2.1-1.2c0.9-1,34.4-32.6,52-49.1c3.3-3.3,6.6-5,9.6-5 c2.2,0,4.1,0.9,5.9,2.7c2.2,2.2,3.1,4.7,2.6,7.4c-0.5,2.6-2.1,5.3-4.8,8L-1.4,83.9c-0.5,0.6-0.5,1.5,0,2.1 c0.3,0.3,0.7,0.5,1.1,0.5c0.3,0,0.7-0.1,1-0.4l54.9-47.4c0,0,0,0,0.1-0.1c3.2-3.2,6.5-4.9,9.5-4.9c2.2,0,4.1,0.9,5.9,2.7 c5.8,5.8,1.1,12.1-2.2,15.5l-8.2,7.8c-0.6,0.6-0.6,1.5-0.1,2.1c0.3,0.3,0.7,0.5,1.1,0.5c0.4,0,0.7-0.1,1-0.4 c2.9-2.6,5.9-4,8.5-4c2.2,0,4.1,0.9,5.9,2.7c2.2,2.2,3.1,4.7,2.6,7.4c-0.5,2.6-2.1,5.3-4.8,8l-0.1,0.1l-39.3,46 c-0.5,0.6-0.5,1.5,0.1,2c0.3,0.3,0.7,0.4,1,0.4s0.7-0.1,1-0.4l27-23.7c3.3-3.3,6.6-5,9.6-5c2.2,0,4.1,0.9,5.9,2.7 c3.9,3.9,2.9,8.1-3.3,14.3C76.2,113,15.7,171,5.1,178.3C-0.5,182.1-9.4,186.8-20.3,186.8z" fill="url(#SVGID_00000154426139766392860730000003436646532090758589_)"/>
          <path d="M31.5,27.5c1.8,0,3.4,0.7,4.9,2.3c2.5,2.5,4.2,6.9-2.2,13.3l-0.1,0.1L-2.5,82.9c-1.1,1.2-1,3,0.1,4.1 c0.6,0.6,1.4,0.9,2.2,0.9c0.7,0,1.4-0.2,2-0.7l54.9-47.4c0.1,0,0.1-0.1,0.2-0.2c2.9-2.9,5.9-4.5,8.5-4.5 c1.8,0,3.3,0.7,4.9,2.3c2.5,2.5,4.2,6.9-2.2,13.3l-8.2,7.8c-0.4,0.3-0.8,0.7-1.1,1.1c-1.2,1.2-1.2,3,0,4.2 c0.6,0.6,1.4,0.9,2.2,0.9c0.7,0,1.5-0.3,2.1-0.8l1-1c2.6-2.4,5.2-3.6,7.5-3.6c1.8,0,3.3,0.7,4.9,2.3c1.9,1.9,2.6,3.9,2.1,6.1 c-0.4,2.3-1.9,4.8-4.4,7.2C74.1,75,74.1,75,74,75.1l-39.3,46c-1,1.2-0.9,3,0.2,4.1c0.6,0.6,1.3,0.9,2.1,0.9 c0.7,0,1.4-0.2,2-0.8l27-23.7c0.1,0,0.1-0.1,0.1-0.1C69,98.6,72,97,74.6,97c1.8,0,3.3,0.7,4.9,2.3c2.2,2.2,3.8,5-3.3,12.2 C74.7,112.9,15,170,4.6,177.2c-5.4,3.8-14.1,8.2-24.5,8.2c-11.1,0-21.8-5.1-31.7-15C-65.9,156.1-74,145.5-77.8,136 c-3.9-9.8-3.8-19.2,0.4-30.5c3.3-8.8,16.9-31,18.6-33.8c1.5-1.5,9-9.1,15-15.8c6.4-7.1,11.4-15.8,12.3-17.3 c0.5-0.5,1.1-0.8,1.8-0.8c0.4,0,0.8,0.1,1.1,0.3c6.4,4,8.5,8.5,6.6,14.2c-1.5,4.4-5.6,9.1-8.9,13c-4.2,4.8-7.2,8.3-5.9,11.7 c0.2,0.4,0.3,0.8,0.4,1.2c0.7,2,1.7,4.8,4.5,4.8c0.8,0,2-0.3,3.2-1.6c1.7-1.8,32-30.2,52-49.1c0,0,0,0,0.1-0.1 C26,29.1,29,27.5,31.5,27.5 M31.5,24.5c-3.6,0-7.3,2.1-10.6,5.4c0,0-51.5,48.5-52.2,49.3c-0.4,0.4-0.7,0.6-0.9,0.6 c-1,0-1.4-2.3-2.2-4.1c-1.4-3.5,11.7-13.1,14.9-22.6c3.4-10.2-4.5-15.6-7.9-17.7c-0.8-0.5-1.8-0.8-2.7-0.8 c-1.6,0-3.3,0.8-4.3,2.2c0,0-5.3,9.5-12,17s-15.2,15.9-15.2,15.9s-15.4,24.8-19,34.5c-8.9,23.9-1,40.7,26.5,68.1 c11.8,11.8,23.4,15.9,33.8,15.9c10.3,0,19.4-4,26.2-8.8c10.8-7.5,72-66,72-66c5.5-5.5,8.8-11,3.3-16.5c-2.2-2.2-4.6-3.1-7-3.1 c-3.6,0-7.3,2.1-10.6,5.4l-27,23.8L76,77c5.5-5.5,7.7-12.1,2.2-17.6c-2.2-2.2-4.6-3.1-7-3.1c-3.2,0-6.5,1.7-9.5,4.4l-1,1 c0.3-0.3,0.7-0.7,1-1l8.2-7.8c5.5-5.5,7.7-12.1,2.2-17.6c-2.2-2.2-4.6-3.1-7-3.1c-3.6,0-7.3,2.1-10.6,5.4L-0.3,84.9l36.5-39.8 c5.5-5.5,7.7-12.1,2.2-17.6C36.3,25.4,33.9,24.5,31.5,24.5L31.5,24.5z" fill="#91674D"/>
          <linearGradient id="SVGID_00000168109585197081242820000012331019361191753658_" gradientTransform="matrix(1 0 0 1 0 -662)" gradientUnits="userSpaceOnUse" x1="56.3238" x2="88.3498" y1="712.5587" y2="682.3897">
            <stop offset="0.0794" stop-color="#D32F2F"/>
            <stop offset="0.79" stop-color="#F44336"/>
          </linearGradient>
          <path d="M73.9,47.3c-8.5,8.5-11.7,5.6-15.5,1.8 s-6.7-7.1,1.8-15.5s18.5-12.3,22.3-8.5S82.4,38.8,73.9,47.3z" fill="url(#SVGID_00000168109585197081242820000012331019361191753658_)"/>
          <linearGradient id="SVGID_00000026867358459970963440000012393912233233480866_" gradientTransform="matrix(1 0 0 1 0 -662)" gradientUnits="userSpaceOnUse" x1="19.0784" x2="48.3119" y1="693.6898" y2="693.6898">
            <stop offset="0" stop-color="#D32F2F"/>
            <stop offset="0.6444" stop-color="#F44336"/>
          </linearGradient>
          <path d="M38.3,40.8c-8.5,8.5-11.7,5.6-15.5,1.8 s-6.7-7.1,1.8-15.5S43,14.7,46.8,18.5S46.8,32.3,38.3,40.8z" fill="url(#SVGID_00000026867358459970963440000012393912233233480866_)"/>
          <linearGradient id="SVGID_00000072248308781932414050000011346958476074265775_" gradientTransform="matrix(1 0 0 1 0 -662)" gradientUnits="userSpaceOnUse" x1="62.9411" x2="92.3169" y1="762.053" y2="762.053">
            <stop offset="0" stop-color="#D32F2F"/>
            <stop offset="0.6444" stop-color="#F44336"/>
          </linearGradient>
          <path d="M81.6,109.1c-8.8,7.9-11.8,4.8-15.3,0.9 s-6.2-7.3,2.6-15.1s18.7-11.1,22.2-7.1C94.6,91.7,90.3,101.2,81.6,109.1z" fill="url(#SVGID_00000072248308781932414050000011346958476074265775_)"/>
          <path d="M10.3,108.8c-0.4,0-0.8-0.2-1.1-0.5c-0.6-0.6-0.5-1.6,0.1-2.1l48.9-45.8c0.6-0.6,2.3-0.7,2.9-0.1 s0.3,1.9-0.3,2.5l-49.4,45.6C11.1,108.7,10.7,108.8,10.3,108.8z" fill="#91674D"/>
          <linearGradient id="SVGID_00000178904242536192809840000013981032256674086077_" gradientTransform="matrix(1 0 0 1 0 -662)" gradientUnits="userSpaceOnUse" x1="59.692" x2="87.265" y1="725.7875" y2="725.7875">
            <stop offset="0" stop-color="#D32F2F"/>
            <stop offset="0.6444" stop-color="#F44336"/>
          </linearGradient>
          <path d="M77.9,72.4c-8,8-11.1,5.2-14.7,1.7 c-3.6-3.6-6.3-6.7,1.7-14.7s17.4-11.6,21-8S85.9,64.4,77.9,72.4z" fill="url(#SVGID_00000178904242536192809840000013981032256674086077_)"/>
        </g>
      </g>
      <g>
        <defs>
          <rect id="SVGID_00000076598161698116744760000009471812941082883229_" height="128" width="128"/>
        </defs>
        <clipPath id="SVGID_00000028289834449926133830000012162457640901134775_">
          <use overflow="visible" xlink:href="#SVGID_00000076598161698116744760000009471812941082883229_"/>
        </clipPath>
        <g clip-path="url(#SVGID_00000028289834449926133830000012162457640901134775_)">
          <rect fill="#C62828" height="6" transform="matrix(0.3817 -0.9243 0.9243 0.3817 25.4834 124.7359)" width="30" x="90.97" y="40.32"/>
          <linearGradient id="SVGID_00000124882109831253808030000011432827924355050375_" gradientTransform="matrix(1.142 0.4716 -0.3817 0.9243 -373.416 -500.5668)" gradientUnits="userSpaceOnUse" x1="526.5871" x2="526.6471" y1="303.5971" y2="278.2571">
            <stop offset="0.1671" stop-color="#F44336"/>
            <stop offset="0.6964" stop-color="#D32F2F"/>
          </linearGradient>
          <path d="M120.5,34l-18.3-7.5 c-2.9-1.2-4.3-4.6-3.1-7.5l17-41.1c1.2-3,4.6-4.4,7.5-3.1l18.3,7.5c2.9,1.2,4.4,4.6,3.1,7.5l-17,41.1 C126.9,33.8,123.5,35.2,120.5,34z" fill="url(#SVGID_00000124882109831253808030000011432827924355050375_)"/>
          <radialGradient id="SVGID_00000013885049906387161190000000006556208493365131_" cx="769.1702" cy="355.6573" gradientTransform="matrix(0.9243 0.3817 -0.3817 0.9243 -484.1974 -546.3146)" gradientUnits="userSpaceOnUse" r="12.201">
            <stop offset="0" stop-color="#EF5350"/>
            <stop offset="1" stop-color="#E53935"/>
          </radialGradient>
          <path d="M80.3,80.3c0,0,3.9-1.9,6.3-4.3 c3.5-3.6-0.3-8.5,4.7-15.9c2.8-4.1,6.4-4.5,6.4-4.5l5.9,2.6c0,0,5.7,6.8-3.5,17.6C91.5,85.9,80.3,80.3,80.3,80.3z" fill="url(#SVGID_00000013885049906387161190000000006556208493365131_)"/>
          <linearGradient id="SVGID_00000070102895189569047390000003624142997796976784_" gradientTransform="matrix(1.142 0.4716 -0.3817 0.9243 -373.416 -500.5668)" gradientUnits="userSpaceOnUse" x1="526.5871" x2="526.6471" y1="303.5971" y2="278.2571">
            <stop offset="0" stop-color="#F44336"/>
            <stop offset="0.2857" stop-color="#E53A33"/>
            <stop offset="0.6599" stop-color="#D83230"/>
            <stop offset="1" stop-color="#D32F2F"/>
          </linearGradient>
          <path d="M120.5,34l-18.3-7.5 c-2.9-1.2-4.3-4.6-3.1-7.5l17-41.1c1.2-3,4.6-4.4,7.5-3.1l18.3,7.5c2.9,1.2,4.4,4.6,3.1,7.5l-17,41.1 C126.9,33.8,123.5,35.2,120.5,34z" fill="url(#SVGID_00000070102895189569047390000003624142997796976784_)"/>
          <g opacity="0.2">
            <path d="M121.5-22.8c0.4,0,0.7,0.1,1.1,0.2l18.3,7.5c1.4,0.6,2.1,2.2,1.5,3.6l-17,41.1 c-0.4,1-1.4,1.7-2.6,1.7c-0.4,0-0.7-0.1-1.1-0.2l-18.3-7.5c-1.4-0.6-2.1-2.2-1.5-3.6l17-41.1 C119.3-22.1,120.3-22.7,121.5-22.8 M121.5-25.7c-2.3,0-4.4,1.3-5.3,3.6L99.2,19c-1.2,3,0.2,6.3,3.1,7.5l18.3,7.5 c0.7,0.3,1.5,0.4,2.2,0.4c2.3,0,4.4-1.3,5.3-3.6l17-41.1c1.2-2.9-0.2-6.3-3.1-7.5l-18.3-7.5 C122.9-25.6,122.2-25.8,121.5-25.7L121.5-25.7z" fill="#424242"/>
          </g>
          <g opacity="0.2">
            <path d="M97.4,58.8l4.1,1.8c0.7,1.4,2.3,6.1-3.8,13.3c-2.7,3.2-6,4.9-9.8,5c0.3-0.2,0.5-0.5,0.8-0.8 c2.4-2.5,2.5-5.4,2.6-7.9s0.2-5.1,2.4-8.4C95,59.9,96.6,59.1,97.4,58.8 M97.7,55.6c0,0-3.7,0.5-6.4,4.5 c-5,7.3-1.2,12.2-4.7,15.9c-2.4,2.5-6.3,4.3-6.3,4.3s3.1,1.5,7.2,1.5c3.8,0,8.5-1.3,12.6-6.1c9.2-10.8,3.5-17.6,3.5-17.6 L97.7,55.6z" fill="#424242"/>
          </g>
        </g>
      </g>
    </g>
  </g>
  <g>
    <defs>
      <rect id="SVGID_00000182509080354007980300000008600911139060521622_" height="120" width="120" x="4" y="4"/>
    </defs>
    <clipPath id="SVGID_00000065061059716107336060000001021645298503156377_">
      <use overflow="visible" xlink:href="#SVGID_00000182509080354007980300000008600911139060521622_"/>
    </clipPath>
    <g clip-path="url(#SVGID_00000065061059716107336060000001021645298503156377_)" opacity="0.2">
      <path d="M78.3,26.6c0.7,0,1.5,0.1,2,0.6c0.9,0.9,0.8,3.3-0.3,6.2c-1.4,3.8-4.4,8.1-8.2,11.8 c-3.8,3.8-6,4.6-7.1,4.6c-1.3,0-2.5-1.1-4.2-2.9c-1.6-1.6-2.8-2.9-2.8-4.1c-0.1-1.1,0.7-3.3,4.6-7.2 C68.6,29.4,74.8,26.6,78.3,26.6 M78.3,23.6c-4.8,0-11.8,3.7-18.1,10c-8.5,8.5-5.6,11.7-1.8,15.5c2,2,3.8,3.7,6.3,3.7 c2.3,0,5.2-1.5,9.2-5.5c8.5-8.5,12.3-18.5,8.5-22.3C81.4,24.1,80,23.6,78.3,23.6z" fill="#424242"/>
    </g>
  </g>
  <g>
    <defs>
      <rect id="SVGID_00000033362674232160055770000003047880246995611779_" height="120" width="120" x="4" y="4"/>
    </defs>
    <clipPath id="SVGID_00000156566267891769001720000004446966469572015005_">
      <use overflow="visible" xlink:href="#SVGID_00000033362674232160055770000003047880246995611779_"/>
    </clipPath>
    <g clip-path="url(#SVGID_00000156566267891769001720000004446966469572015005_)" opacity="0.2">
      <path d="M42.7,20c0.7,0,1.5,0.1,2,0.6c1.9,1.9-0.5,10.1-8.5,18c-3.8,3.8-6,4.6-7.1,4.6c-1.3,0-2.5-1.1-4.2-2.9 c-1.6-1.6-2.8-2.9-2.9-4.1c-0.1-1.1,0.7-3.3,4.6-7.2C32.9,22.9,39.2,20,42.7,20 M42.7,17c-4.8,0-11.9,3.7-18.1,10 c-8.5,8.5-5.6,11.7-1.8,15.5c2,2,3.8,3.7,6.3,3.7c2.3,0,5.1-1.5,9.2-5.5c8.5-8.5,12.3-18.5,8.5-22.3C45.8,17.5,44.4,17,42.7,17z" fill="#424242"/>
    </g>
  </g>
  <g>
    <defs>
      <rect id="SVGID_00000003799836847077543390000005793703413263475877_" height="120" width="120" x="4" y="4"/>
    </defs>
    <clipPath id="SVGID_00000072983878363421241640000010243552383600940461_">
      <use overflow="visible" xlink:href="#SVGID_00000003799836847077543390000005793703413263475877_"/>
    </clipPath>
    <g clip-path="url(#SVGID_00000072983878363421241640000010243552383600940461_)" opacity="0.2">
      <path d="M86.6,89.1c0.8,0,1.8,0.1,2.3,0.7c0.8,0.9,0.6,3.3-0.6,6c-1.6,3.6-4.7,7.7-8.6,11.1 c-3.8,3.4-5.9,4.1-7,4.1c-1.2,0-2.2-0.9-4.1-3c-1.5-1.7-2.6-2.9-2.6-4.1c0-1.1,0.8-3.2,4.9-6.8C76.3,92.2,82.4,89.1,86.6,89.1 M86.6,86.1c-4.7,0-11.5,3.2-17.7,8.8c-8.8,7.9-6.1,11.2-2.6,15.1c1.9,2.1,3.7,4,6.3,4c2.2,0,5-1.3,9-4.9 c8.8-7.9,13-17.4,9.5-21.3C90,86.6,88.5,86.1,86.6,86.1z" fill="#424242"/>
    </g>
  </g>
  <g>
    <defs>
      <rect id="SVGID_00000079473508266447267930000004429778429994778290_" height="120" width="120" x="4" y="4"/>
    </defs>
    <clipPath id="SVGID_00000011718524013077465480000006144591691173947824_">
      <use overflow="visible" xlink:href="#SVGID_00000079473508266447267930000004429778429994778290_"/>
    </clipPath>
    <g clip-path="url(#SVGID_00000011718524013077465480000006144591691173947824_)" opacity="0.2">
      <path d="M82,53c0.6,0,1.4,0.1,1.8,0.5c1.7,1.7-0.6,9.3-8,16.8c-3.6,3.6-5.5,4.3-6.6,4.3s-2.3-1.1-3.9-2.6 c-1.5-1.5-2.6-2.7-2.6-3.7c-0.1-1,0.6-3,4.3-6.7C72.9,55.6,78.8,53,82,53 M82,50c-4.5,0-11.2,3.5-17.1,9.4 c-8,8-5.2,11.1-1.7,14.7c1.9,1.9,3.6,3.5,6,3.5c2.2,0,4.9-1.4,8.7-5.2c8-8,11.6-17.4,8-21C84.9,50.4,83.6,50,82,50z" fill="#424242"/>
    </g>
  </g>
</svg>