<svg viewBox="0 0 128 128" xmlns="http://www.w3.org/2000/svg">
  <defs>
    <radialGradient id="SVGID_1_" cx="62.8269" cy="27.832795" gradientTransform="matrix(1 0 0 1.1201 0 0)" gradientUnits="userSpaceOnUse" r="93.3331">
      <stop offset="0.3949" stop-color="#F06292" stop-opacity="0"/>
      <stop offset="1" stop-color="#F06292" stop-opacity="0.8"/>
    </radialGradient>
  </defs>
  <path d="M64.6,22.97 L52.64,9.69 L53.81,6.72 C53.81,6.72 56.99,4.78 64.7,4.78 C72.41,4.78 74.9,6.72 74.9,6.72 L75.98,10.47 L64.6,22.97 Z" fill="#FFFFFF"/>
  <path d="M122.46,24.47 C107.45,21.93 92.64,17.73 79.16,10.65 L74.9,6.72 C74.9,6.72 68.9,12.52 64.26,17.53 C60.07,13.01 54.81,8.12 54.81,8.12 C53.34,7.79 50.47,10.14 50.47,10.14 C30,19.88 20.54,21.94 5.53,24.47 C2.68,46.98 3.81,70 8.88,92.13 C9.1,93.09 9.36,94.11 10.1,94.77 C10.83,95.42 11.86,95.56 12.83,95.68 C18.9,96.4 24.99,96.94 31.09,97.29 C30.82,85.84 30.61,73.31 33.06,62.13 C34.94,53.51 38.57,48.48 40.66,46.49 C40.93,52.25 40.87,120.1 40.87,120.1 C40.87,120.89 41.4,121.57 42.17,121.75 C46.62,122.83 62.32,125.83 85.74,121.66 C86.55,121.52 87.15,120.8 87.15,119.98 C87.15,119.98 87.17,50.7 86.94,46.09 C86.94,46.09 93.55,49.79 95.45,63 C97.07,74.33 97.2,85.84 96.93,97.29 C103.03,96.93 109.12,96.39 115.19,95.68 C116.16,95.57 117.19,95.42 117.92,94.77 C118.66,94.12 118.92,93.09 119.14,92.13 C124.19,70 125.32,46.98 122.46,24.47 Z" fill="#FFB6D7"/>
  <path d="M87.07,54.12 L40.8,54.65 L40.85,61.1 C40.87,64.97 42.61,65.29 44.89,65.48 C48.69,65.8 55.11,65.27 64.95,65.16 C73.86,65.06 79.69,65.67 83.04,65.44 C85.38,65.28 87.32,64.15 87.15,60.98 L87.07,54.12 Z M82.26,61.61 C80.53,62.28 72.51,61.77 64.54,61.84 C56.05,61.91 47.57,62.52 45.91,61.89 C44.41,61.32 43.36,60.45 42.66,59.2 C44.44,59.05 52.11,58.43 62.83,58.31 C74.16,58.18 84.07,58.65 85.52,58.73 C84.85,59.95 83.9,60.97 82.26,61.61 Z" fill="#DF86AC"/>
  <path d="M122.46,24.47 C107.45,21.93 92.64,17.73 79.16,10.65 L75.79,7.53 L64.2,19.46 L54.82,8.12 L50.48,10.14 C30.01,19.88 20.55,21.94 5.54,24.47 C2.68,46.98 3.81,70 8.88,92.13 C9.1,93.09 9.36,94.11 10.1,94.77 C10.83,95.42 11.86,95.56 12.83,95.68 C18.9,96.4 24.99,96.94 31.09,97.29 C30.82,85.84 30.61,73.31 33.06,62.13 C34.94,53.51 38.57,48.48 40.66,46.49 C40.93,52.25 40.87,120.1 40.87,120.1 C40.87,120.89 41.4,121.57 42.17,121.75 C46.62,122.83 62.32,125.83 85.74,121.66 C86.55,121.52 87.15,120.8 87.15,119.98 C87.15,119.98 87.17,50.7 86.94,46.09 C86.94,46.09 93.55,49.79 95.45,63 C97.07,74.33 97.2,85.84 96.93,97.29 C103.03,96.93 109.12,96.39 115.19,95.68 C116.16,95.57 117.19,95.42 117.92,94.77 C118.66,94.12 118.92,93.09 119.14,92.13 C124.19,70 125.32,46.98 122.46,24.47 Z" fill="url(#SVGID_1_)"/>
  <path d="M67.14,20.71 C64.37,23.68 61.9,28.23 61.9,28.23 C63.02,28.5 66.23,28.53 68.06,26.69 C69.15,25.58 69.69,24.25 69.62,23.04 C69.62,22.99 69.69,22.97 69.7,23.03 C69.9,23.9 70.22,24.87 71.01,25.73 C72.86,27.75 74.77,27.76 76.07,27.84 C76.39,27.86 76.58,27.5 76.41,27.24 C76.08,26.75 75.92,26.24 75.84,25.84 C75.77,25.51 76.13,25.25 76.42,25.43 C76.75,25.64 77.14,25.94 77.44,26.37 C77.63,26.64 78.04,26.57 78.13,26.26 C78.46,25.14 78.68,23.01 76.87,20.54 C76.36,19.84 75.78,19.36 75.15,19.01 C75.01,18.93 75.01,18.73 75.17,18.67 C75.66,18.48 76.51,18.12 77.25,17.56 C79.42,15.93 78.79,13.73 79.19,12.71 C79.31,12.41 79.05,12.2 78.73,12.19 C78.06,12.18 76.79,12.34 76.5,12.49 C76.48,12.48 72.41,15.06 67.14,20.71 Z" fill="#FDF0F7"/>
  <path d="M68.06,20.24 C68.86,20.33 69.24,20.99 69.4,21.4 C69.44,21.49 69.57,21.49 69.6,21.4 C69.77,20.83 70.2,19.71 70.94,19.27 C71.72,18.8 72.83,18.68 73.42,18.65 C73.54,18.64 73.59,18.49 73.49,18.42 C73.07,18.09 72.4,17.4 72.37,16.32 L68.06,20.24 Z" fill="#F48FB1"/>
  <path d="M72.44,21.27 A0.72 0.72 0 1 1 71,21.27 A0.72 0.72 0 1 1 72.44,21.27 Z" fill="#EC407A"/>
  <path d="M75.11,21.02 A0.75 0.75 0 1 1 73.61,21.02 A0.75 0.75 0 1 1 75.11,21.02 Z" fill="#EC407A"/>
  <path d="M75.18,17.08 A0.66 0.66 0 1 1 73.86,17.08 A0.66 0.66 0 1 1 75.18,17.08 Z" fill="#EC407A"/>
  <path d="M66.62,23.27 C66.79,23.65 67.23,23.82 67.61,23.66 C67.99,23.49 68.16,23.05 68,22.67 C67.84,22.29 67.39,22.12 67.01,22.28 C66.63,22.45 66.45,22.89 66.62,23.27 Z" fill="#EC407A"/>
  <path d="M70.22,9.02 C70.79,8.41 71.08,7.96 70.21,7.75 C70.21,7.75 68.49,7.26 64.97,7.26 C61.45,7.26 58.6,7.64 59.03,8.57 C59.33,9.23 62.26,11.79 63.56,13.34 C63.56,13.34 61.89,15.45 61.45,16.02 C60.26,17.55 62.42,16.96 62.42,16.96 C65.04,14 69.43,9.87 70.22,9.02 Z" fill="#2167A1"/>
  <path d="M78.5,9.78 L75.63,6 C75.24,5.49 74.68,5.14 74.05,5.01 C72.46,4.69 69.01,4.14 63.87,4.15 C59.71,4.16 55.84,5.25 54.2,5.79 C53.67,5.96 53.21,6.31 52.88,6.76 L50.58,9.98 C50.26,10.43 50.3,11.03 50.69,11.42 C52.69,13.48 58.68,19.65 60.39,21.73 C57.46,25.14 54.68,28.64 52.37,31.95 C54.89,32.36 57.12,32.62 58.55,33.1 C63.96,25.8 74.81,14.43 78.35,11.3 C78.8,10.92 78.86,10.25 78.5,9.78 Z M72.61,8.61 C72.3,8.94 65.8,15.72 64.2,17.46 C62.53,15.46 60.76,13.56 59,11.64 C56.41,8.82 55.65,7.86 56.42,7.12 C57.06,6.51 60.84,5.91 64.2,5.9 C69.41,5.89 71.43,6.4 72.49,7.02 C73.39,7.56 72.92,8.28 72.61,8.61 Z" fill="#2686C6"/>
  <path d="M58.68,19.8 C58.68,19.8 59.88,17.72 62.17,15.12 L64.2,17.47 L60.4,21.74 L58.68,19.8 Z" fill="#2167A1"/>
  <path d="M36.69,38.29 C37.16,37.7 37.67,36.56 37.03,35.99 C36.46,35.48 35.39,35.95 34.8,36.59 C34.38,35.96 33.46,35.14 32.73,35.57 C32.09,35.95 32.18,37.05 32.57,37.81 C31.84,38 30.71,38.63 30.9,39.49 C31.07,40.28 32.34,40.51 33.21,40.28 C33.14,41.01 33.37,42.4 34.28,42.49 C35.05,42.57 35.65,41.52 35.73,40.65 C36.45,40.89 37.61,40.99 37.94,40.23 C38.25,39.52 37.48,38.66 36.69,38.29 Z" fill="#FCE4EC"/>
  <path d="M39.73,47.44 C36.46,51.98 31.77,69.87 31.77,69.87 C31.2,51.13 35.8,36.13 41.87,23.4 C42.1,22.93 42.8,23.16 42.72,23.68 C40.83,34.97 41.9,44.43 39.73,47.44 Z" fill="#DF86AC"/>
  <path d="M88.3,47.44 C91.57,51.98 96.26,69.87 96.26,69.87 C96.83,51.13 92.23,36.13 86.16,23.4 C85.93,22.93 85.23,23.16 85.31,23.68 C87.21,34.97 86.14,44.43 88.3,47.44 Z" fill="#DF86AC"/>
  <path d="M87.54,32.57 C87.13,30.16 85.37,29.32 83.32,28.96 C73.82,27.29 65.26,32.08 65.26,32.08 C59.01,29.06 45.66,28 41.35,30.32 C37.71,32.28 40.93,34.89 40.93,34.89 L86.44,34.89 C86.45,34.89 87.73,33.7 87.54,32.57 Z" fill="#82AEC0"/>
  <path d="M87.54,32.57 C87.32,31.5 85.39,30.4 83.32,30.11 C77.6,29.31 73.86,29.67 65.45,33.7 L61.68,33.92 L63.76,32.88 C57.51,29.86 44.7,29.61 41.35,31.48 C38.38,33.13 41.07,34.95 41.07,34.95 L86.56,34.95 C86.57,34.94 87.74,33.54 87.54,32.57 Z" fill="#F5F5F5"/>
  <path d="M85.89,57.18 C85.89,57.18 73.45,56.25 62.38,56.25 C51.31,56.25 41.77,57.18 41.77,57.18 C40.98,57.18 40.34,56.54 40.34,55.75 L40.34,36.06 C40.34,35.27 40.98,34.63 41.77,34.63 C41.77,34.63 50.19,33.7 62.66,33.7 C75.13,33.7 85.89,34.63 85.89,34.63 C86.68,34.63 87.32,35.27 87.32,36.06 L87.32,55.74 C87.32,56.54 86.68,57.18 85.89,57.18 Z" fill="#82AEC0"/>
  <path d="M40.515,43.772 Q52.598,43.09 63.61,43.09 Q74.62,43.09 87.479,43.772 Q88.977,43.852 88.898,45.349 Q88.818,46.847 87.321,46.768 Q74.54,46.09 63.61,46.09 Q52.682,46.09 40.685,46.768 Q39.187,46.852 39.102,45.355 Q39.018,43.857 40.515,43.772 Z" fill="#2167A1"/>
  <path d="M60.12,44.28 C60.12,44.28 60.75,41.47 63.26,41.47 C65.77,41.47 66.39,44.49 66.39,44.49 L69.05,44.69 C69.05,44.69 68.52,48.23 64.58,48.54 C59.56,48.94 60.12,44.28 60.12,44.28 Z" fill="#2167A1"/>
  <path d="M81.37,95.07 C81.14,95.09 80.96,94.87 81.03,94.65 C81.48,93.35 82.43,89.62 80.18,85.86 C79.96,85.49 79.39,85.49 79.21,85.88 C78.86,86.61 78.36,87.16 77.94,87.54 C77.59,87.86 77.03,87.6 77.04,87.13 C77.05,86.59 77.15,85.92 77.45,85.26 C77.64,84.84 77.28,84.39 76.84,84.5 C75.27,84.89 72.55,86.13 70.88,90.04 C70.69,90.49 70.52,91.17 70.42,91.64 C70.37,91.85 70.12,91.93 69.96,91.78 C68.93,90.81 65.71,88.28 60.76,89.41 C60.34,89.51 60.16,90.04 60.47,90.34 C61.06,90.9 61.43,91.55 61.66,92.07 C61.85,92.51 61.43,92.96 60.99,92.8 C60.48,92.62 59.85,92.31 59.31,91.81 C58.99,91.51 58.46,91.73 58.43,92.16 C58.31,93.77 58.64,96.75 61.86,99.57 C62.7,100.31 63.57,100.77 64.46,101.06 C64.64,101.12 64.63,101.37 64.45,101.42 C63.6,101.66 62.72,102.06 61.81,102.74 C58.77,105.02 57.89,108.37 57.61,110.15 C57.54,110.59 58,110.92 58.39,110.71 C59.11,110.32 59.84,110.16 60.41,110.1 C60.88,110.05 61.19,110.59 60.9,110.97 C60.57,111.4 60.08,111.9 59.44,112.26 C59.05,112.47 59.1,113.04 59.51,113.21 C61,113.82 63.94,114.43 67.61,112.24 C69.51,111.11 70.44,109.53 71.06,107.82 C71.09,107.75 71.29,107.65 71.26,108.07 C71.16,109.27 71.16,110.52 71.7,112.08 C72.93,115.67 75.65,117.39 77.26,118.21 C77.65,118.41 78.11,118.08 78.03,117.64 C77.88,116.84 77.96,116.09 78.08,115.53 C78.18,115.07 78.78,114.94 79.05,115.33 C79.36,115.78 79.68,116.39 79.82,117.1 C79.91,117.54 80.45,117.69 80.74,117.35 C81.78,116.12 83.27,113.51 82.32,109.34 C82.04,108.11 81.53,107.14 80.88,106.32 C80.77,106.18 80.86,105.99 81.04,106 C81.83,106.05 83.47,106.1 84.56,105.77 C85.52,105.49 86.38,105.1 87.13,104.68 C87.13,102.03 87.13,99.16 87.12,96.15 C86.07,95.59 84.75,95.15 83.08,95 C82.59,94.96 81.86,95.02 81.37,95.07 Z" fill="#FCE4EC"/>
  <path d="M76.08,100.59 C76.2,99.49 77.01,98.49 77.62,97.88 C77.7,97.8 77.61,97.68 77.51,97.73 C76.6,98.22 75.14,98.84 74.1,98.5 C73.1,98.17 72.28,96.99 71.91,96.05 C71.87,95.95 71.72,95.99 71.73,96.09 C71.86,97.27 72.4,98.5 71.6,99.54 C70.91,100.44 69.48,100.57 68.64,100.59 C68.53,100.59 68.51,100.75 68.62,100.78 C69.51,101.03 70.8,101.49 71.31,102.18 C71.98,103.09 71.66,104.9 71.58,105.51 C71.55,105.78 71.71,105.78 71.82,105.6 C71.93,105.42 72.51,103.65 74.17,103.19 C76.17,102.64 77.7,103.9 77.97,104.07 C78.24,104.24 78.38,104.07 78.15,103.87 C77.46,103.28 75.92,101.95 76.08,100.59 Z" fill="#F48FB1"/>
  <path d="M68.95,96.59 C68.4,96.42 67.81,96.73 67.64,97.28 C67.47,97.83 67.78,98.42 68.33,98.59 C68.88,98.76 69.47,98.45 69.64,97.9 C69.81,97.34 69.5,96.76 68.95,96.59 Z" fill="#EC407A"/>
  <path d="M73.02,92.65 C72.53,92.5 72.02,92.77 71.87,93.26 C71.72,93.75 71.99,94.26 72.48,94.41 C72.97,94.56 73.48,94.29 73.63,93.8 C73.78,93.31 73.51,92.8 73.02,92.65 Z" fill="#EC407A"/>
  <path d="M76.31,94.72 C75.76,94.55 75.17,94.86 75,95.41 C74.83,95.96 75.14,96.55 75.69,96.72 C76.24,96.89 76.83,96.58 77,96.03 C77.17,95.47 76.86,94.89 76.31,94.72 Z" fill="#EC407A"/>
  <path d="M79.5,100.37 C78.95,100.2 78.36,100.51 78.19,101.06 C78.02,101.61 78.33,102.2 78.88,102.37 C79.43,102.54 80.02,102.23 80.19,101.68 C80.36,101.13 80.05,100.54 79.5,100.37 Z" fill="#EC407A"/>
  <path d="M80.51,97.13 C80.02,96.98 79.51,97.25 79.36,97.74 C79.21,98.23 79.48,98.74 79.97,98.89 C80.46,99.04 80.97,98.77 81.12,98.28 C81.27,97.79 80.99,97.28 80.51,97.13 Z" fill="#EC407A"/>
  <path d="M76.31,105.27 C75.76,105.1 75.17,105.41 75,105.96 C74.83,106.51 75.14,107.1 75.69,107.27 C76.24,107.44 76.83,107.13 77,106.58 C77.17,106.03 76.86,105.44 76.31,105.27 Z" fill="#EC407A"/>
  <path d="M68.8,105.77 C68.31,105.62 67.8,105.89 67.65,106.38 C67.5,106.87 67.77,107.38 68.26,107.53 C68.75,107.68 69.26,107.41 69.41,106.92 C69.56,106.44 69.29,105.92 68.8,105.77 Z" fill="#EC407A"/>
  <path d="M67.9,101.87 C67.35,101.7 66.76,102.01 66.59,102.56 C66.42,103.11 66.73,103.7 67.28,103.87 C67.83,104.04 68.42,103.73 68.59,103.18 C68.76,102.63 68.45,102.04 67.9,101.87 Z" fill="#EC407A"/>
  <path d="M9.59,24.81 C10.41,25.87 13.64,28.46 18.13,26.8 C19.84,26.17 20.78,25.22 21.48,24.03 C21.57,23.88 21.79,23.97 21.75,24.14 C21.51,25.15 21.39,26.29 21.67,27.54 C22.5,31.25 24.8,32.58 26.31,33.57 C26.68,33.81 27.17,33.53 27.14,33.09 C27.08,32.27 27.24,31.54 27.42,31 C27.57,30.55 28.18,30.49 28.41,30.91 C28.66,31.38 28.92,32.02 28.98,32.74 C29.02,33.19 29.55,33.41 29.88,33.09 C31.05,31.97 32.73,29.56 32.32,25.32 C32.18,23.91 31.63,23.08 31.26,22.35 C31.15,22.12 31.34,21.87 31.59,21.91 C32.39,22.06 33.83,22.22 35.25,21.89 C38.61,21.1 39.37,18.39 40.52,17.46 C40.86,17.18 40.75,16.63 40.32,16.52 C39.74,16.38 38.52,15.96 37.73,15.8 C27.2,20.08 19.67,21.93 10.63,23.58 C10.1,23.98 9.41,24.58 9.59,24.81 Z" fill="#FCE4EC"/>
  <path d="M22.05,22.92 C22.46,22.98 23.47,21.32 25.97,20.89 C27.7,20.59 29.44,21.14 30.34,21.49 C30.53,21.57 30.71,21.35 30.61,21.18 C30.61,21.18 29.66,20.42 29.22,18.97 C26.91,19.74 24.71,20.4 22.54,20.98 C22.46,22.17 21.7,22.87 22.05,22.92 Z" fill="#F48FB1"/>
  <path d="M32.2,18.74 C31.72,18.53 31.17,18.75 30.97,19.24 C30.76,19.72 30.98,20.29 31.46,20.5 C31.94,20.71 32.49,20.49 32.69,20 C32.89,19.51 32.67,18.95 32.2,18.74 Z" fill="#EC407A"/>
  <path d="M26.39,23.82 A1.04 1.04 0 1 1 24.31,23.82 A1.04 1.04 0 1 1 26.39,23.82 Z" fill="#EC407A"/>
  <path d="M29.81,24.64 A0.94 0.96 0 1 1 27.93,24.64 A0.94 0.96 0 1 1 29.81,24.64 Z" fill="#EC407A"/>
  <path d="M18.09,22.67 C18.03,23.19 18.41,23.67 18.92,23.72 C19.44,23.78 19.9,23.4 19.95,22.87 C20.01,22.35 19.64,21.89 19.13,21.82 C18.93,21.87 18.74,21.91 18.54,21.96 C18.3,22.11 18.12,22.36 18.09,22.67 Z" fill="#EC407A"/>
  <path d="M121.63,55.02 C121.03,54.84 120.46,54.76 119.91,54.77 C120.16,54.47 120.4,54.12 120.62,53.72 C122.06,51.06 121.59,48.35 121.2,46.97 C121.1,46.63 120.66,46.54 120.45,46.82 C120.06,47.34 119.58,47.7 119.19,47.93 C118.86,48.12 118.47,47.83 118.55,47.46 C118.65,47.04 118.83,46.53 119.16,46.06 C119.37,45.77 119.15,45.36 118.8,45.38 C117.51,45.44 115.2,45.98 113.28,48.77 C112.65,49.69 112.35,50.61 112.25,51.53 C111.98,50.71 111.56,49.87 110.77,49.03 C108.69,46.84 105.96,46.45 104.53,46.4 C104.18,46.39 103.96,46.78 104.16,47.07 C104.53,47.6 104.72,48.17 104.82,48.61 C104.9,48.98 104.5,49.27 104.18,49.07 C103.81,48.85 103.38,48.52 103.04,48.05 C102.83,47.76 102.37,47.84 102.28,48.19 C101.94,49.43 101.74,51.8 103.8,54.48 C105.06,56.12 106.67,56.65 108.36,56.96 C107.2,56.84 105.91,56.81 104.41,57.53 C101.68,58.83 100.47,61.31 99.98,62.65 C99.86,62.98 100.16,63.31 100.5,63.21 C101.12,63.02 101.72,63.01 102.17,63.05 C102.55,63.09 102.7,63.55 102.42,63.8 C102.1,64.08 101.65,64.39 101.1,64.57 C100.76,64.68 100.7,65.14 101,65.34 C102.08,66.05 104.26,66.97 107.45,65.84 C108.54,65.46 109.33,64.86 109.96,64.15 C109.93,64.55 109.94,64.98 110,65.44 C110.39,68.44 112.38,70.35 113.5,71.24 C113.78,71.46 114.19,71.27 114.19,70.92 C114.2,70.27 114.38,69.7 114.56,69.28 C114.71,68.93 115.2,68.93 115.35,69.28 C115.52,69.67 115.68,70.2 115.68,70.78 C115.68,71.14 116.1,71.34 116.38,71.11 C117.38,70.31 118.94,68.51 118.85,65.13 C118.83,64.48 118.72,63.9 118.55,63.37 C118.76,63.43 118.98,63.49 119.22,63.53 C120.85,63.83 122.3,63.57 123.49,63.15 C123.66,60.77 123.79,58.39 123.88,56.01 C123.25,55.63 122.52,55.28 121.63,55.02 Z" fill="#FCE4EC"/>
  <path d="M117.2,55.81 C116.36,56.06 114.81,56.76 113.75,56.03 C112.89,55.43 112.54,53.95 112.52,53.64 C112.5,53.33 112.28,53.28 112.26,53.63 C112.23,53.98 112.39,55.61 111.35,56.45 C110.7,56.97 109.25,57.03 108.96,57.02 C108.67,57.01 108.65,57.26 108.96,57.27 C109.05,57.27 110.65,57.89 111.14,59.03 C111.63,60.17 110.72,62.05 110.56,62.43 C110.4,62.81 110.73,62.72 110.86,62.51 C110.99,62.31 112,60.57 113.52,60.44 C114.97,60.32 116.35,61.38 116.35,61.38 C116.68,61.55 116.86,61.33 116.6,61.1 C116.6,61.1 114.8,59.75 115.1,58.33 C115.42,56.84 117.14,56.11 117.36,56 C117.57,55.91 117.48,55.73 117.2,55.81 Z" fill="#F48FB1"/>
  <path d="M115.4,53.41 C114.95,53.33 114.52,53.62 114.43,54.08 C114.34,54.54 114.64,54.96 115.1,55.05 C115.56,55.14 115.98,54.84 116.07,54.38 C116.16,53.92 115.85,53.49 115.4,53.41 Z" fill="#EC407A"/>
  <path d="M119.02,56.18 C118.62,56.11 118.24,56.37 118.17,56.76 C118.1,57.16 118.36,57.54 118.75,57.61 C119.15,57.68 119.53,57.42 119.6,57.03 C119.67,56.63 119.41,56.25 119.02,56.18 Z" fill="#EC407A"/>
  <path d="M117.86,58.5 C117.41,58.42 116.98,58.71 116.89,59.17 C116.8,59.63 117.1,60.05 117.56,60.14 C118.02,60.23 118.44,59.93 118.53,59.47 C118.62,59.01 118.31,58.58 117.86,58.5 Z" fill="#EC407A"/>
  <path d="M113.402,62.925 C113.456,63.324 113.176,63.692 112.776,63.746 C112.377,63.8 112.009,63.519 111.955,63.12 C111.901,62.72 112.182,62.353 112.581,62.299 C112.981,62.245 113.348,62.525 113.402,62.925 Z" fill="#EC407A"/>
  <path d="M116.28,63.591 C116.342,64.046 116.023,64.463 115.569,64.525 C115.115,64.586 114.697,64.267 114.635,63.813 C114.574,63.359 114.893,62.941 115.347,62.88 C115.801,62.818 116.219,63.137 116.28,63.591 Z" fill="#EC407A"/>
  <path d="M109.801,60.031 C109.863,60.485 109.544,60.903 109.09,60.964 C108.635,61.025 108.218,60.707 108.156,60.253 C108.095,59.798 108.414,59.38 108.868,59.319 C109.322,59.258 109.74,59.576 109.801,60.031 Z" fill="#EC407A"/>
  <path d="M108.151,54.654 C108.202,55.054 107.92,55.42 107.52,55.472 C107.12,55.524 106.754,55.241 106.702,54.841 C106.651,54.442 106.933,54.076 107.333,54.024 C107.733,53.972 108.099,54.254 108.151,54.654 Z" fill="#EC407A"/>
  <path d="M110.34,53.11 C109.89,53.03 109.46,53.32 109.37,53.78 C109.28,54.24 109.58,54.66 110.04,54.75 C110.5,54.84 110.92,54.54 111.01,54.08 C111.1,53.62 110.79,53.19 110.34,53.11 Z" fill="#EC407A"/>
  <path d="M28.04,43.36 C27.56,43.4 27.14,43.32 26.82,43.22 C26.56,43.14 26.52,42.78 26.76,42.64 C27.03,42.49 27.41,42.33 27.83,42.29 C28.09,42.26 28.21,41.94 28.02,41.75 C27.36,41.08 25.92,40.08 23.46,40.41 C22.99,40.47 22.57,40.6 22.2,40.77 C22.23,40.61 22.25,40.44 22.27,40.27 C22.44,38.06 21.31,36.38 20.64,35.57 C20.47,35.37 20.15,35.44 20.09,35.7 C19.98,36.17 19.77,36.55 19.58,36.82 C19.42,37.05 19.07,36.97 19.01,36.7 C18.95,36.39 18.92,35.99 19,35.58 C19.06,35.32 18.79,35.11 18.55,35.23 C17.71,35.65 16.32,36.71 15.86,39.15 C15.78,39.61 15.76,40.03 15.81,40.42 C15.57,40.26 15.3,40.11 14.99,39.98 C12.94,39.13 10.99,39.69 10.02,40.08 C9.78,40.18 9.75,40.51 9.97,40.64 C10.38,40.89 10.68,41.21 10.88,41.47 C11.05,41.69 10.86,42.01 10.59,41.97 C10.28,41.93 9.89,41.84 9.52,41.63 C9.28,41.5 9,41.69 9.04,41.95 C9.18,42.88 9.67,44.69 11.94,45.72 C12.95,46.18 13.86,46.24 13.86,46.24 C13.86,46.24 13.16,46.58 12.32,47.53 C10.85,49.19 10.81,51.24 10.88,52.29 C10.9,52.55 11.2,52.68 11.4,52.51 C11.76,52.2 12.16,52.01 12.47,51.91 C12.73,51.82 12.97,52.09 12.86,52.34 C12.73,52.62 12.52,52.97 12.21,53.25 C12.01,53.43 12.11,53.75 12.37,53.79 C13.3,53.94 15.06,53.93 16.85,52.2 C18.19,50.91 18.37,49.33 18.37,49.33 C18.37,49.33 18.39,50.48 19.03,51.52 C20.19,53.41 22.09,54.11 23.11,54.36 C23.36,54.42 23.58,54.17 23.48,53.94 C23.29,53.5 23.24,53.07 23.24,52.73 C23.24,52.45 23.57,52.3 23.77,52.49 C24,52.7 24.26,53.01 24.44,53.4 C24.55,53.64 24.89,53.65 25.01,53.42 C25.44,52.58 25.96,50.91 24.88,48.67 C24.38,47.62 23.45,46.97 23.45,46.97 C23.45,46.97 24.05,46.92 24.39,46.84 C26.55,46.32 27.79,44.73 28.36,43.84 C28.47,43.63 28.3,43.34 28.04,43.36 Z" fill="#FCE4EC"/>
  <path d="M15.49,45.97 C15.49,45.73 16.98,45.75 17.43,44.96 C17.88,44.17 16.74,42.28 16.93,42.19 C17.12,42.1 17.81,43.79 18.8,43.85 C19.79,43.91 20.81,42.29 21.01,42.51 C21.21,42.72 20.07,43.68 20.23,44.74 C20.39,45.8 22.41,46.33 22.28,46.59 C22.15,46.85 20.38,46.06 19.59,46.5 C18.8,46.94 18.78,48.21 18.49,48.21 C18.2,48.21 18.38,46.85 17.76,46.34 C17.14,45.85 15.49,46.21 15.49,45.97 Z" fill="#F48FB1"/>
  <path d="M16.1,43.98 A0.61 0.61 0 1 1 14.88,43.98 A0.61 0.61 0 1 1 16.1,43.98 Z" fill="#EC407A"/>
  <path d="M18.16,40.58 A0.61 0.61 0 1 1 16.94,40.58 A0.61 0.61 0 1 1 18.16,40.58 Z" fill="#EC407A"/>
  <path d="M19.83,42.18 A0.56 0.56 0 1 1 18.71,42.18 A0.56 0.56 0 1 1 19.83,42.18 Z" fill="#EC407A"/>
  <path d="M22.85,45.01 A0.56 0.56 0 1 1 21.73,45.01 A0.56 0.56 0 1 1 22.85,45.01 Z" fill="#EC407A"/>
  <path d="M23.22,42.98 A0.61 0.61 0 1 1 22,42.98 A0.61 0.61 0 1 1 23.22,42.98 Z" fill="#EC407A"/>
  <path d="M21.19,48 A0.61 0.61 0 1 1 19.97,48 A0.61 0.61 0 1 1 21.19,48 Z" fill="#EC407A"/>
  <path d="M17.1,49.22 A0.61 0.61 0 1 1 15.88,49.22 A0.61 0.61 0 1 1 17.1,49.22 Z" fill="#EC407A"/>
  <path d="M16.12,47.39 A0.56 0.56 0 1 1 15,47.39 A0.56 0.56 0 1 1 16.12,47.39 Z" fill="#EC407A"/>
  <path d="M60.75,77.31 C60.3,76.94 59.51,76.64 59.06,76.49 C58.93,76.45 58.9,76.28 59.01,76.19 C59.72,75.65 61.61,74.01 61.82,71.48 C61.84,71.22 61.58,71.04 61.36,71.17 C60.95,71.41 60.53,71.51 60.2,71.56 C59.93,71.6 59.74,71.29 59.9,71.07 C60.08,70.82 60.35,70.52 60.71,70.3 C60.94,70.16 60.91,69.79 60.65,69.74 C57.79,69.11 55.77,70.62 55.17,71.15 C55.08,71.23 54.95,71.19 54.91,71.08 C54.64,70.3 53.62,67.88 51.37,67.3 C51.12,67.24 50.88,67.39 50.93,67.65 C51.03,68.11 51,68.55 50.94,68.88 C50.89,69.15 50.54,69.24 50.38,69.01 C50.19,68.76 49.99,68.41 49.9,68 C49.84,67.74 49.5,67.66 49.35,67.88 C48.42,69.25 48.45,70.66 48.67,71.93 C48.9,73.26 49.76,74.27 49.7,74.38 C49.63,74.5 48.71,74.1 46.92,74.31 C45.79,74.44 44.55,74.79 43.72,75.88 C43.56,76.08 43.66,76.38 43.91,76.4 C44.38,76.45 44.79,76.61 45.08,76.77 C45.32,76.9 45.29,77.26 45.03,77.35 C44.73,77.45 44.34,77.53 43.92,77.5 C43.66,77.48 43.49,77.77 43.63,77.99 C44.15,78.77 45.37,80.01 47.84,80.16 C48.66,80.21 49.34,80.04 49.95,79.76 C49.54,80.24 49.17,80.82 48.95,81.63 C48.37,83.76 49.16,85.61 49.67,86.53 C49.79,86.75 50.12,86.74 50.23,86.51 C50.42,86.07 50.7,85.74 50.94,85.51 C51.14,85.32 51.47,85.46 51.47,85.73 C51.47,86.04 51.43,86.44 51.27,86.83 C51.17,87.07 51.4,87.34 51.65,87.25 C55.3,85.99 55.33,82.45 55.2,81.15 C55.19,81.02 55.35,80.96 55.43,81.06 C56.14,81.94 58.15,83.9 61.57,83.22 C61.82,83.17 61.91,82.85 61.72,82.68 C61.37,82.36 61.13,81.99 60.99,81.69 C60.87,81.44 61.1,81.17 61.37,81.25 C61.67,81.34 62.03,81.51 62.35,81.78 C62.55,81.95 62.86,81.82 62.87,81.55 C62.92,80.6 62.67,78.88 60.75,77.31 Z" fill="#FDF0F7"/>
  <path d="M50.96,78.9 C50.79,78.71 52.43,77.85 52.48,77.12 C52.55,76.22 50.97,75.15 51.1,75 C51.23,74.85 52.67,75.76 53.36,75.48 C54.24,75.14 54.39,73.95 54.58,73.95 C54.77,73.95 54.4,75.34 54.85,76 C55.32,76.7 57.13,76.32 57.13,76.52 C57.13,76.72 55.42,76.89 54.89,77.62 C54.48,78.2 55.03,79.71 54.77,79.71 C54.51,79.71 54.19,78.46 53.36,78.24 C52.55,78.01 51.13,79.09 50.96,78.9 Z" fill="#F48FB1"/>
  <path d="M51.07,77.11 A0.61 0.61 0 1 1 49.85,77.11 A0.61 0.61 0 1 1 51.07,77.11 Z" fill="#EC407A"/>
  <path d="M51.68,73.58 A0.61 0.61 0 1 1 50.46,73.58 A0.61 0.61 0 1 1 51.68,73.58 Z" fill="#EC407A"/>
  <path d="M53.91,73.58 A0.53 0.53 0 1 1 52.85,73.58 A0.53 0.53 0 1 1 53.91,73.58 Z" fill="#EC407A"/>
  <path d="M56.96,75.07 A0.53 0.53 0 1 1 55.9,75.07 A0.53 0.53 0 1 1 56.96,75.07 Z" fill="#EC407A"/>
  <path d="M56.8,72.97 A0.61 0.61 0 1 1 55.58,72.97 A0.61 0.61 0 1 1 56.8,72.97 Z" fill="#EC407A"/>
  <path d="M57.31,78.62 A0.61 0.61 0 1 1 56.09,78.62 A0.61 0.61 0 1 1 57.31,78.62 Z" fill="#EC407A"/>
  <path d="M54.27,81.27 A0.61 0.61 0 1 1 53.05,81.27 A0.61 0.61 0 1 1 54.27,81.27 Z" fill="#EC407A"/>
  <path d="M52.63,79.83 A0.53 0.53 0 1 1 51.57,79.83 A0.53 0.53 0 1 1 52.63,79.83 Z" fill="#EC407A"/>
  <path d="M56.96,122.86 C57.14,122.69 57.98,122.4 58.75,122.43 C58.99,122.44 59.2,122.22 59.13,121.99 C58.54,120.01 56.71,118.3 54.83,117.46 C53.01,116.65 50.95,116.52 48.98,116.87 C48.8,116.55 48.96,116.83 48.78,116.51 C49.52,115.69 50.19,114.83 50.6,113.77 C51.59,111.19 50.78,108.45 49.36,106.2 C49.13,105.83 48.56,105.83 48.35,106.21 C47.97,106.9 47.46,107.42 47.04,107.77 C46.67,108.07 46.12,107.8 46.16,107.32 C46.2,106.78 46.32,106.11 46.65,105.46 C46.86,105.05 46.51,104.59 46.07,104.69 C44.75,104.96 42.62,105.79 40.88,108.27 C40.88,115.35 40.87,120.1 40.87,120.1 C40.87,120.89 41.4,121.57 42.17,121.75 C44.51,122.32 49.96,123.41 58.01,123.72 C57.37,123.31 56.87,122.94 56.96,122.86 Z" fill="#FCE4EC"/>
  <path d="M45.1,120.44 C45.43,119.77 46.46,118.43 46.7,118.26 C46.94,118.09 46.76,117.91 46.52,118.04 C45.69,118.49 43.74,119.22 42.29,118.73 C41.71,118.53 41.25,118.04 40.87,117.47 C40.87,119.13 40.87,120.08 40.87,120.08 C40.87,120.87 41.4,121.55 42.17,121.73 C42.87,121.9 43.86,122.12 45.12,122.35 C44.86,121.74 44.79,121.08 45.1,120.44 Z" fill="#F48FB1"/>
  <path d="M42.92,111.76 C42.51,111.61 42.06,111.83 41.91,112.24 C41.76,112.65 41.98,113.1 42.39,113.25 C42.8,113.4 43.25,113.18 43.4,112.77 C43.55,112.35 43.33,111.9 42.92,111.76 Z" fill="#EC407A"/>
  <path d="M44.31,115.28 C43.77,115.09 43.17,115.37 42.98,115.92 C42.79,116.46 43.07,117.06 43.62,117.25 C44.16,117.44 44.76,117.16 44.95,116.61 C45.14,116.07 44.85,115.48 44.31,115.28 Z" fill="#EC407A"/>
  <path d="M49.43,120.36 C48.99,120.2 48.5,120.44 48.35,120.88 C48.19,121.32 48.43,121.81 48.87,121.96 C49.31,122.12 49.8,121.88 49.95,121.44 C50.1,121.01 49.87,120.52 49.43,120.36 Z" fill="#EC407A"/>
  <path d="M105.61,35.04 C106.41,34.26 107.32,32.8 106.54,31.86 C105.83,30.99 104.18,31.42 103.17,32.21 C102.71,31.2 101.56,29.76 100.38,30.22 C99.33,30.63 99.24,32.34 99.67,33.54 C98.56,33.67 96.88,34.32 96.95,35.58 C97.01,36.67 98.52,37.29 99.77,37.28 C99.53,38.36 99.6,40.27 100.85,40.59 C102,40.89 103.15,39.38 103.43,38.1 C104.34,38.69 106.31,39.31 107.04,38.18 C107.66,37.22 106.69,35.74 105.61,35.04 Z" fill="#FDF0F7"/>
  <path d="M107.99,78.28 C108.79,77.5 109.7,76.04 108.92,75.1 C108.21,74.23 106.56,74.66 105.55,75.45 C105.09,74.44 103.94,73 102.76,73.46 C101.71,73.87 101.62,75.58 102.05,76.78 C100.94,76.91 99.26,77.56 99.33,78.82 C99.39,79.91 100.9,80.53 102.15,80.52 C101.91,81.6 101.98,83.51 103.23,83.83 C104.38,84.13 105.53,82.62 105.81,81.34 C106.72,81.93 108.69,82.55 109.42,81.42 C110.04,80.45 109.07,78.97 107.99,78.28 Z" fill="#FCE4EC"/>
  <path d="M23.37,68.65 C24.06,67.78 24.82,66.1 23.87,65.26 C23.03,64.51 21.46,65.21 20.59,66.14 C19.97,65.21 18.62,64.01 17.54,64.65 C16.6,65.2 16.73,66.82 17.31,67.94 C16.24,68.22 14.57,69.14 14.85,70.41 C15.11,71.57 16.98,71.91 18.24,71.57 C18.13,72.65 18.47,74.69 19.81,74.82 C20.95,74.93 21.82,73.4 21.95,72.11 C23.01,72.47 24.72,72.61 25.21,71.5 C25.66,70.46 24.53,69.19 23.37,68.65 Z" fill="#FCE4EC"/>
  <path d="M116.71,88.09 C117.18,87.5 117.69,86.36 117.05,85.79 C116.48,85.28 115.41,85.75 114.82,86.39 C114.4,85.76 113.48,84.94 112.75,85.37 C112.11,85.75 112.2,86.85 112.59,87.61 C111.86,87.8 110.73,88.43 110.92,89.29 C111.09,90.08 112.36,90.31 113.23,90.08 C113.16,90.81 113.39,92.2 114.3,92.29 C115.07,92.37 115.67,91.32 115.75,90.45 C116.47,90.69 117.63,90.79 117.96,90.03 C118.27,89.32 117.5,88.45 116.71,88.09 Z" fill="#FCE4EC"/>
  <path d="M72.88,75.64 C73.35,75.05 73.86,73.91 73.22,73.34 C72.65,72.83 71.58,73.3 70.99,73.94 C70.57,73.31 69.65,72.49 68.92,72.92 C68.28,73.3 68.37,74.4 68.76,75.16 C68.03,75.35 66.9,75.98 67.09,76.84 C67.26,77.63 68.53,77.86 69.4,77.63 C69.33,78.36 69.56,79.75 70.47,79.84 C71.24,79.92 71.84,78.87 71.92,78 C72.64,78.24 73.8,78.34 74.13,77.58 C74.43,76.87 73.66,76 72.88,75.64 Z" fill="#FDF0F7"/>
  <path d="M14.62,59.9 C15.09,59.31 15.6,58.17 14.96,57.6 C14.39,57.09 13.32,57.56 12.73,58.2 C12.31,57.57 11.39,56.75 10.66,57.18 C10.02,57.56 10.11,58.66 10.5,59.42 C9.77,59.61 8.64,60.24 8.83,61.1 C9,61.89 10.27,62.12 11.14,61.89 C11.07,62.62 11.3,64.01 12.21,64.1 C12.98,64.18 13.58,63.13 13.66,62.26 C14.38,62.5 15.54,62.6 15.87,61.84 C16.18,61.13 15.4,60.27 14.62,59.9 Z" fill="#FCE4EC"/>
</svg>