<svg viewBox="0 0 128 128" xmlns="http://www.w3.org/2000/svg">
  <linearGradient id="SVGID_1_" gradientTransform="matrix(1 0 0.6741 -1 -41.6118 128)" gradientUnits="userSpaceOnUse" x1="74.5026" x2="74.5026" y1="76.92" y2="27.89">
    <stop offset="0" style="stop-color:#FFC107"/>
    <stop offset="1" style="stop-color:#FFD54F"/>
  </linearGradient>
  <path d="M101.37,99.87H21.92c-2.13,0-3.27-1.73-2.56-3.86l16.99-50.4c0.72-2.13,3.03-3.86,5.16-3.86 h79.46c2.13,0,3.27,1.73,2.56,3.86l-16.99,50.4C105.81,98.14,103.5,99.87,101.37,99.87z" style="fill:url(#SVGID_1_);"/>
  <linearGradient id="SVGID_2_" gradientTransform="matrix(1 0 0.3371 -1 -20.8118 128)" gradientUnits="userSpaceOnUse" x1="72.9779" x2="72.9779" y1="85.67" y2="40.327">
    <stop offset="0" style="stop-color:#FFE082"/>
    <stop offset="0.9931" style="stop-color:#FFCA28"/>
  </linearGradient>
  <path d="M123.31,46.23l0.53-1.57c0.54-1.6-0.32-2.91-1.93-2.91H40.56c-1.6,0-3.34,1.3-3.88,2.91 l-0.49,1.47l32.22,33.5L123.31,46.23z" style="fill:url(#SVGID_2_);"/>
  <g>
    <defs>
      <path id="SVGID_3_" d="M101.37,99.87H21.92c-2.13,0-3.27-1.73-2.56-3.86l16.99-50.4c0.72-2.13,3.03-3.86,5.16-3.86h79.46 c2.13,0,3.27,1.73,2.56,3.86l-16.99,50.4C105.81,98.14,103.5,99.87,101.37,99.87z"/>
    </defs>
    <clipPath id="SVGID_4_">
      <use style="overflow:visible;" xlink:href="#SVGID_3_"/>
    </clipPath>
    <g style="clip-path:url(#SVGID_4_);">
      <line style="fill:none;stroke:#FFB300;stroke-width:2.1792;stroke-miterlimit:10;" x1="56.98" x2="14.06" y1="68.46" y2="102.73"/>
      <line style="fill:none;stroke:#FFB300;stroke-width:2.1792;stroke-miterlimit:10;" x1="87.43" x2="107.13" y1="68.39" y2="102.86"/>
    </g>
  </g>
  <g>
    <defs>
      <path id="SVGID_5_" d="M101.37,99.87H21.92c-2.13,0-3.27-1.73-2.56-3.86l16.99-50.4c0.72-2.13,3.03-3.86,5.16-3.86h79.46 c2.13,0,3.27,1.73,2.56,3.86l-16.99,50.4C105.81,98.14,103.5,99.87,101.37,99.87z"/>
    </defs>
    <clipPath id="SVGID_6_">
      <use style="overflow:visible;" xlink:href="#SVGID_5_"/>
    </clipPath>
    <polyline points=" 33.88,44.51 68.4,79.63 126.7,44.62 " style="clip-path:url(#SVGID_6_);fill:none;stroke:#FFB300;stroke-width:2.1792;stroke-miterlimit:10;"/>
  </g>
  <line style="fill:none;stroke:#B0BEC5;stroke-width:5;stroke-linecap:round;stroke-linejoin:round;stroke-miterlimit:10;" x1="5.84" x2="30.21" y1="45" y2="45"/>
  <line style="fill:none;stroke:#B0BEC5;stroke-width:5;stroke-linecap:round;stroke-linejoin:round;stroke-miterlimit:10;" x1="5.84" x2="23.31" y1="56.53" y2="56.53"/>
  <line style="fill:none;stroke:#B0BEC5;stroke-width:5;stroke-linecap:round;stroke-linejoin:round;stroke-miterlimit:10;" x1="5.84" x2="20" y1="56.53" y2="56.53"/>
  <line style="fill:none;stroke:#B0BEC5;stroke-width:5;stroke-linecap:round;stroke-linejoin:round;stroke-miterlimit:10;" x1="5.84" x2="12.92" y1="67.03" y2="67.03"/>
</svg>