<svg viewBox="0 0 128 128" xmlns="http://www.w3.org/2000/svg">
  <defs/>
  <path d="M64,19.06 C37.89,19.06 19.74,25.2 10.93,29.05 C7.22,30.67 4.83,34.33 4.83,38.38 L4.83,115.62 C4.83,119.59 8.05,122.82 12.03,122.82 L64,122.82 L115.97,122.82 C119.94,122.82 123.17,119.6 123.17,115.62 L123.17,38.38 C123.17,34.33 120.78,30.67 117.07,29.05 C108.26,25.2 90.11,19.06 64,19.06 Z" fill="#BAE2FD"/>
  <path d="M38.79,63.9 C38.79,63.9 37.81,66.24 43.42,65.31 C47.6,64.62 63.46,54.85 65.7,54.85 C67.93,54.85 85.31,71.25 90.51,64.51 C92.98,61.31 66.72,41.27 66.72,41.27 L62.31,41.16 L38.79,63.9 Z" fill="#77ABC0"/>
  <path d="M56.43,72.7 C56.43,72.7 48.94,82.4 47.81,94.4 C47.19,100.95 46.32,121.63 46.32,121.63 C46.32,121.63 45.81,124 51.04,123.98 C55.27,123.96 72.52,124 77.22,124 C82.39,124 82.02,121.62 82.02,121.62 C82.02,121.62 81.47,103.56 80.72,95.66 C79.71,84.95 71.48,74.73 71.48,73.09 C71.48,71.94 78.43,63.49 81.36,58.71 L64.16,41.79 L50.39,55.54 C51.38,60.09 56.43,72.7 56.43,72.7 Z" fill="#DE7340"/>
  <path d="M80.2,92.45 C72.72,86.91 58.2,79 53.86,76.67 C53.22,77.77 52.53,79.06 51.83,80.52 C62.06,85.58 72.72,91.57 80.94,98.28 C80.87,97.33 80.8,96.45 80.73,95.68 C80.62,94.59 80.43,93.51 80.2,92.45 Z" fill="#F3AB47"/>
  <path d="M81.68,112.15 C70.99,103.95 55.9,94.95 48.28,91.18 C48.28,91.18 48.06,92.49 47.97,93.14 C47.82,94.19 47.71,95.77 47.71,95.77 C55.43,99.8 71.31,109.12 81.9,117.81 C81.85,116.38 81.76,114.39 81.68,112.15 Z" fill="#F3AB47"/>
  <path d="M46.69,113.55 C52.31,117 58.53,121.02 63.01,123.98 C65.66,123.98 68.37,123.99 70.77,123.99 C64.69,119.83 55.46,113.85 46.93,108.66 C46.85,110.35 46.76,112.01 46.69,113.55 Z" fill="#F3AB47"/>
  <path d="M71.41,54.47 C71.41,54.47 70.4,53.37 69.42,52.81 C68.44,52.25 67.36,51.82 67.36,51.82 C62.75,54.79 56.98,59.37 53.07,63.88 C53.67,65.53 54.28,67.16 54.82,68.56 C58.92,62.98 66.22,57.67 71.41,54.47 Z" fill="#F3AB47"/>
  <path d="M52,60.86 C52,60.86 58.22,50.99 64.91,51.4 C73.43,51.91 77.36,64.52 77.36,64.52 L80.95,59.46 L65.12,42.64 C64.71,42.62 63.78,42.67 63.35,42.68 L50.45,56.08 C50.7,57.19 52,60.86 52,60.86 Z" fill="#874D36"/>
  <path d="M102.73,20.65 C102.73,20.65 97.51,13.96 92.65,12.5 C88.74,11.32 89.74,14.77 84.9,22.62 C80.87,29.16 67.95,38.82 64.16,41.79 C60.38,38.82 47.46,29.16 43.42,22.62 C38.59,14.78 39.59,11.32 35.67,12.5 C30.81,13.97 25.59,20.65 25.59,20.65 C22.69,24.41 21.94,29.35 23.44,33.76 L36.44,62.6 C37.3,65.5 41.27,66.25 43.42,64 L64.16,42.72 L84.9,63.99 C87.05,66.25 91.02,65.49 91.88,62.59 L104.88,33.75 C106.38,29.35 105.63,24.41 102.73,20.65 Z" fill="#E8F6FF"/>
  <path d="M84.01,22.38 C82.59,24.77 72.05,35.39 64.29,40.51 C64.19,40.58 63.82,40.58 63.72,40.51 C55.96,35.39 45.42,24.77 44,22.38 C42.58,19.99 45.15,19.12 46.37,18.97 C46.37,18.97 53.36,17.79 64.01,17.68 C74.66,17.8 81.65,18.97 81.65,18.97 C82.86,19.11 85.43,19.98 84.01,22.38 Z" fill="#77ABC0"/>
  <path d="M96.92,12.75 C93.74,9.74 90.87,7.08 86.65,5.99 C82.76,4.98 78.7,4.59 74.71,4.32 C71.14,4.09 67.57,4 64,4 C60.43,4 56.86,4.09 53.29,4.33 C49.29,4.6 45.24,4.99 41.35,6 C37.12,7.09 34.26,9.75 31.08,12.76 C26.7,16.9 24.71,21.25 23.48,24.55 C26.05,20.83 29.32,16.82 33.13,14.52 C33.93,14.04 37.11,11.37 38.79,14.94 C40.13,17.79 40.8,19.76 42.78,22.59 C49.03,31.48 60.8,40.33 63.51,42.24 C63.8,42.45 64.19,42.45 64.49,42.24 C67.2,40.33 79.44,31.12 85.22,22.59 C87.03,19.93 87.88,17.79 89.21,14.94 C90.88,11.37 94.07,14.04 94.87,14.52 C98.68,16.82 101.95,20.83 104.52,24.55 C103.3,21.25 101.3,16.9 96.92,12.75 Z M82.67,22.83 C81.34,25.06 71.51,34.97 64.27,39.75 C64.17,39.81 63.83,39.81 63.74,39.75 C56.5,34.97 46.66,25.06 45.34,22.83 C44.01,20.6 46.41,19.78 47.55,19.65 C47.55,19.65 54.07,18.55 64.01,18.44 C73.95,18.55 80.47,19.65 80.47,19.65 C81.6,19.78 83.99,20.59 82.67,22.83 Z" fill="#BAE2FD"/>
  <path d="M71.55,72.62 L71.49,73.46 C68.72,75.08 66.36,75.49 63.62,75.57 C60.88,75.65 58.25,74.82 55.89,73.42 L56.35,72.46 C58.11,70.96 60.8,70.64 63.08,70.63 C69.23,70.62 71.55,72.62 71.55,72.62 Z" fill="#874D36"/>
</svg>