<svg viewBox="0 0 128 128" xmlns="http://www.w3.org/2000/svg" xmlns:xlink="http://www.w3.org/1999/xlink">
  <linearGradient id="SVGID_1_" gradientTransform="matrix(1 0 0 -1 0 128)" gradientUnits="userSpaceOnUse" x1="64.1" x2="64.1" y1="37.4244" y2="73.0076">
    <stop offset="0" stop-color="#212121"/>
    <stop offset="1" stop-color="#616161"/>
  </linearGradient>
  <path d="M123.8,47.9c0,0-1-1.7-19-3.4c-18.9-1.8-28.3,2-32.2,4.4c-0.7,0.3-1.9,0.6-3.3,0.5H69 c-1.9-0.1-3.6-0.2-5.6-0.2h-0.1c-1.1,0-3.5,0.1-5.2,0.2c-0.8,0.1-1.5,0-2.1-0.2c-3.6-2.4-13-6.6-32.7-4.7c-18,1.7-19,3.4-19,3.4 l-0.1,6.8c0,0,2.7,0.8,4.4,2.9c1.7,2.1,2.5,14.1,5.4,19.7c4.4,8.7,26.1,6.5,26.1,6.5S49,84.5,53.3,77c3.7-6.4,5.2-15.4,5.6-17.6 c0.9-0.9,2.6-2,5.1-2.1c2.8,0,4.6,1.4,5.4,2.4c0.4,2.7,1.9,11.2,5.5,17.3c4.3,7.5,13.2,6.8,13.2,6.8s21.7,2.2,26.1-6.5 c2.8-5.6,3.6-17.6,5.4-19.7c1.7-2.2,4.4-2.9,4.4-2.9L123.8,47.9z" fill="url(#SVGID_1_)"/>
  <linearGradient id="SVGID_2_" gradientUnits="userSpaceOnUse" x1="64.1" x2="64.1" y1="83.8744" y2="65.9936">
    <stop offset="0" stop-color="#BFBEBE"/>
    <stop offset="1" stop-color="#212121" stop-opacity="0"/>
  </linearGradient>
  <path d="M123.8,47.9c0,0-1-1.7-19-3.4c-18.9-1.8-28.3,2-32.2,4.4 c-0.7,0.3-1.9,0.6-3.3,0.5H69c-1.9-0.1-3.6-0.2-5.6-0.2h-0.1c-1.1,0-3.5,0.1-5.2,0.2c-0.8,0.1-1.5,0-2.1-0.2 c-3.6-2.4-13-6.6-32.7-4.7c-18,1.7-19,3.4-19,3.4l-0.1,6.8c0,0,2.7,0.8,4.4,2.9c1.7,2.1,2.5,14.1,5.4,19.7 c4.4,8.7,26.1,6.5,26.1,6.5S49,84.5,53.3,77c3.7-6.4,5.2-15.4,5.6-17.6c0.9-0.9,2.6-2,5.1-2.1c2.8,0,4.6,1.4,5.4,2.4 c0.4,2.7,1.9,11.2,5.5,17.3c4.3,7.5,13.2,6.8,13.2,6.8s21.7,2.2,26.1-6.5c2.8-5.6,3.6-17.6,5.4-19.7c1.7-2.2,4.4-2.9,4.4-2.9 L123.8,47.9z" fill="url(#SVGID_2_)" opacity="0.5"/>
  <linearGradient id="SVGID_3_" gradientTransform="matrix(1 0 0 1 0 -0.1102)" gradientUnits="userSpaceOnUse" x1="33.7818" x2="33.7818" y1="35.8812" y2="83.3502">
    <stop offset="0" stop-color="#ECEFF1"/>
    <stop offset="1" stop-color="#B0BEC5"/>
  </linearGradient>
  <path d="M51.7,53.9c0.9,1.5,1.6,4.9-0.2,12.9c-1.7,8-3.9,13.4-18.6,12.6c-9.5-0.5-16.1-0.5-17.6-14.3 c-0.9-8.6,0.1-11.8,0.8-12.9c0.7-1,3.2-4,17.9-3.5C48.7,49.1,50.8,52.4,51.7,53.9z" fill="url(#SVGID_3_)"/>
  <path d="M51.7,53.9c0.9,1.5,1.6,4.9-0.2,12.9c-1.7,8-3.9,13.4-18.6,12.6c-9.5-0.5-16.1-0.5-17.6-14.3 c-0.9-8.6,0.1-11.8,0.8-12.9c0.7-1,3.2-4,17.9-3.5C48.7,49.1,50.8,52.4,51.7,53.9z" fill="none"/>
  <g>
    <defs>
      <path id="SVGID_4_" d="M51.7,53.9c0.9,1.5,1.6,4.9-0.2,12.9c-1.7,8-3.9,13.4-18.6,12.6c-9.5-0.5-16.1-0.5-17.6-14.3 c-0.9-8.6,0.1-11.8,0.8-12.9c0.7-1,3.2-4,17.9-3.5C48.7,49.1,50.8,52.4,51.7,53.9z"/>
    </defs>
    <clipPath id="SVGID_5_">
      <use overflow="visible" xlink:href="#SVGID_4_"/>
    </clipPath>
    <g clip-path="url(#SVGID_5_)">
      <linearGradient id="SVGID_6_" gradientTransform="matrix(1 0 0 1 0 -0.1102)" gradientUnits="userSpaceOnUse" x1="12.15" x2="12.15" y1="47.2482" y2="47.1672">
        <stop offset="0" stop-color="#9E9E9E"/>
        <stop offset="1" stop-color="#616161"/>
      </linearGradient>
      <path d="M12.3,47.1c-0.1,0-0.2,0-0.3,0.1C12.1,47.1,12.2,47.1,12.3,47.1z" fill="url(#SVGID_6_)"/>
      <linearGradient id="SVGID_7_" gradientTransform="matrix(1 0 0 1 0 -0.1102)" gradientUnits="userSpaceOnUse" x1="11.75" x2="11.75" y1="47.4962" y2="47.2562">
        <stop offset="0" stop-color="#9E9E9E"/>
        <stop offset="1" stop-color="#616161"/>
      </linearGradient>
      <path d="M11.6,47.3c0.1-0.1,0.2-0.1,0.3-0.2C11.8,47.2,11.7,47.3,11.6,47.3z" fill="url(#SVGID_7_)"/>
    </g>
  </g>
  <linearGradient id="SVGID_8_" gradientTransform="matrix(1 0 0 1 0 -0.1102)" gradientUnits="userSpaceOnUse" x1="94.2182" x2="94.2182" y1="35.8812" y2="83.3502">
    <stop offset="0" stop-color="#ECEFF1"/>
    <stop offset="1" stop-color="#B0BEC5"/>
  </linearGradient>
  <path d="M76.3,53.9c-0.9,1.5-1.6,4.9,0.2,12.9c1.7,8,3.9,13.4,18.6,12.6c9.5-0.5,16.1-0.5,17.6-14.3 c0.9-8.6-0.1-11.8-0.8-12.9c-0.7-1-3.2-4-17.9-3.5C79.3,49.1,77.2,52.4,76.3,53.9z" fill="url(#SVGID_8_)"/>
  <g>
    <defs>
      <path id="SVGID_9_" d="M76.3,53.9c-0.9,1.5-1.6,4.9,0.2,12.9c1.7,8,3.9,13.4,18.6,12.6c9.5-0.5,16.1-0.5,17.6-14.3 c0.9-8.6-0.1-11.8-0.8-12.9c-0.7-1-3.2-4-17.9-3.5C79.3,49.1,77.2,52.4,76.3,53.9z"/>
    </defs>
    <clipPath id="SVGID_10_">
      <use overflow="visible" xlink:href="#SVGID_9_"/>
    </clipPath>
    <g clip-path="url(#SVGID_10_)">
      <linearGradient id="SVGID_11_" gradientTransform="matrix(-1 0 0 1 -416.876 -0.1102)" gradientUnits="userSpaceOnUse" x1="-533.126" x2="-533.126" y1="47.2482" y2="47.1672">
        <stop offset="0" stop-color="#9E9E9E"/>
        <stop offset="1" stop-color="#616161"/>
      </linearGradient>
      <path d="M116.1,47.1c0.1,0,0.2,0,0.3,0.1C116.3,47.1,116.2,47.1,116.1,47.1z" fill="url(#SVGID_11_)"/>
      <linearGradient id="SVGID_12_" gradientTransform="matrix(-1 0 0 1 -416.876 -0.1102)" gradientUnits="userSpaceOnUse" x1="-533.426" x2="-533.426" y1="47.4962" y2="47.2562">
        <stop offset="0" stop-color="#9E9E9E"/>
        <stop offset="1" stop-color="#616161"/>
      </linearGradient>
      <path d="M116.7,47.3c-0.1-0.1-0.2-0.1-0.3-0.2C116.5,47.2,116.6,47.3,116.7,47.3z" fill="url(#SVGID_12_)"/>
    </g>
  </g>
</svg>