<svg viewBox="0 0 128 128" xmlns="http://www.w3.org/2000/svg">
  <defs/>
  <path d="M58.5,13.64 L39.54,24.34 L28.47,35.04 L19.44,36.79 C19.44,36.79 22.96,40.73 33.2,37.39 C43.34,34.08 49.06,20.48 60.12,21.69 C70.75,22.85 68.74,33.2 68.74,33.2 L83.28,16.65 L58.5,13.64 Z" fill="#5A6415"/>
  <path d="M55.27,42.28 C55.27,42.28 51.9,43.27 49.97,48.51 C48.47,52.58 49.45,56.53 49.88,58.08 C50.3,59.63 51.37,61.74 51.44,62.58 C51.51,63.42 49.03,65.07 49.15,66.63 C49.22,67.55 50.92,68.91 53.02,69.16 C57.1,69.65 58.02,68.6 58.02,68.6 L63.51,49.7 L55.27,42.28 Z" fill="#5A6415"/>
  <path d="M57.27,75.19 C57.27,75.19 50.2,71.11 42.95,71.53 C35.7,71.95 33.66,75.33 32.81,78.22 C32.25,80.14 30.95,83.45 29.92,85.12 C28.97,86.67 26.96,87.99 25.7,88.27 C23.89,88.67 21.65,89.43 22.37,92.21 C22.96,94.49 24.62,95.92 26.66,97.26 C28.67,98.57 31.04,100.08 31.04,100.08 L57.01,82.87 L57.27,75.19 Z" fill="#5A6415"/>
  <path d="M82.08,88.21 L76.17,96.02 C76.17,96.02 78.49,100.67 84.26,102 C90.03,103.34 93.02,103.69 93.8,105.55 C94.85,108.09 93.66,111.46 93.24,112.17 C92.82,112.87 90.62,115.17 92.22,116.75 C94.16,118.65 99.4,117.52 101.23,116.89 C103.06,116.26 105.36,115.78 106.17,113.11 C106.72,111.28 107.83,104.69 107.67,100.6 C107.49,95.85 106.61,92.68 105.14,91.34 C103.66,90 93.98,88.21 93.98,88.21 C93.98,88.21 95.65,84.33 97.57,79.27 C98.52,76.77 99.08,74.1 99.54,73.92 C100.27,73.64 101.48,75.61 101.76,76.38 C102.04,77.15 101.9,84.85 102.95,86 C103.84,86.98 106.78,87.62 109.47,85.82 C111.83,84.24 114.32,81.31 114.19,78.29 C114.01,74.38 110.42,71.53 110.28,69.98 C110.14,68.43 110.84,64.52 110.28,61.5 C109.72,58.47 95.25,49.5 95.25,49.5 L82.08,88.21 Z" fill="#5A6415"/>
  <path d="M56.04,101.72 L22.67,110.73 L18.17,111.79 L18.31,116.36 L26.83,121.99 L46.54,116.15 L59.14,109.4 L55.62,101.23" fill="#F26A35"/>
  <path d="M19.51,117.63 C19.51,117.63 19.79,113.48 21.62,113.83 C23.11,114.12 23.8,119.04 23.8,119.04 L26.33,121.15 L28.86,118.76 C28.86,118.76 30.13,113.83 31.61,113.69 C33.3,113.53 34.43,118.12 34.43,118.12 L26.34,122.55 L19.51,117.63 Z" fill="#FFFDFD"/>
  <path d="M39.5,107.07 C39.5,107.07 41.25,110.55 43.3,110.38 C45.76,110.17 46.19,104.19 46.19,104.19 L39.5,107.07 Z" fill="#FFFDFD"/>
  <path d="M35.13,92.36 C34.81,94.29 30.83,96.69 29.17,97.78 C27.11,99.14 24.71,100.95 23.16,101.02 C21.61,101.09 19.31,101.25 17.11,101.4 C15,101.54 13.5,101.99 12.51,104.03 C11.78,105.54 11.62,109.05 13.31,110.74 C15,112.43 18.73,113.91 23.73,113.27 C28.73,112.64 30.28,111.79 31.9,111.09 C33.52,110.39 41.05,107.36 44.57,106.44 C48.09,105.52 54.71,103.62 55.83,104.61 C56.96,105.6 52.45,108.62 48.93,109.96 C45.41,111.3 34.96,117.28 30.82,118.41 C27.87,119.21 21.6,118.77 20.07,117.35 C18.91,116.28 18.52,115.54 18.49,114.57 C18.45,113.6 17.38,113.25 16.41,114.25 C15.21,115.48 16.52,118.75 18.94,120.73 C21.35,122.68 25.41,123.82 31.42,123.4 C39.59,122.84 47.07,117.56 48.83,117.49 C50.59,117.42 56.33,118.34 61.78,116.18 C67.38,113.96 70.13,109.75 70.13,109.75 C70.13,109.75 75.01,107.4 78.11,105.29 C81.21,103.18 83.18,101.72 83.18,101.72 C83.18,101.72 80.46,100.12 80.39,96.23 C80.35,93.91 81.16,90.74 83.21,91.09 C85.25,91.44 81.73,96.58 85.53,98.41 C89.33,100.24 95.88,102.28 99.4,100.24 C102.92,98.2 106.55,92.93 105.36,91.17 C104.16,89.41 101.33,88.76 98.6,88.21 C96.04,87.7 92.78,87.5 92.78,87.5 C92.78,87.5 96.23,78.84 96.65,73.99 C96.87,71.46 96.77,69.05 96.44,67.02 C96.02,64.42 95.35,61.19 95.38,58.78 C95.42,56.18 95.66,52.59 97,52.87 C98.34,53.15 97.73,56.81 97.99,60.26 C98.27,64.13 99.96,69.62 104.33,69.34 C108.69,69.06 111.02,66.03 110.38,60.26 C109.75,54.49 109.08,50.83 106.68,47.87 C104.29,44.91 101.65,44.32 101.65,44.32 C101.65,44.32 101.3,33.38 98.06,26.62 C94.51,19.19 86.55,9.09 74.31,5.57 C62.07,2.05 53,5.46 46.68,9.3 C37.99,14.58 34.19,28.9 28.84,31.51 C23.49,34.12 19.16,34.01 19.09,35.49 C19.02,36.97 19.58,37.46 23.03,37.39 C26.48,37.32 30.02,36.76 34.57,33.52 C39.95,29.68 47.31,20.78 52.87,18.74 C58.43,16.7 64.41,17.33 67.23,20.36 C70.05,23.39 70.89,26.79 70.22,29.51 C69.11,34.03 65.82,36.9 65.82,36.9 C65.82,36.9 55.33,39.72 52.31,44.36 C49.29,49 50.16,51.08 52.45,52.95 C56.12,55.94 61.04,54.43 61.04,54.43 C61.04,54.43 58.61,63.37 58.05,66.11 C57.49,68.86 55.69,77.87 55.13,79.27 C54.57,80.68 53.86,83.77 51.96,83.7 C50.06,83.63 46.68,80.11 40.91,82.36 C35.68,84.4 35.56,89.83 35.13,92.36 Z" fill="#70853C"/>
  <path d="M52.13,103.69 C49.98,104.29 49.84,109.57 49.84,109.57 C49.84,109.57 51.15,109.06 52.55,108.27 C53.92,107.5 54.54,106.84 54.54,106.84 C54.54,106.84 53.46,103.32 52.13,103.69 Z" fill="#FFFDFD"/>
  <path d="M97.26,113.42 C95.78,113.31 95.15,114.73 94.82,116.18 C94.64,116.95 94.57,117.69 94.57,117.69 C94.57,117.69 95.41,117.87 96.4,117.8 C97.39,117.73 98.3,117.59 98.3,117.59 C98.3,117.59 99.31,113.57 97.26,113.42 Z" fill="#70853C"/>
  <path d="M99.62,117.31 C99.62,117.31 99.41,115.6 100.15,114.2 C100.89,112.79 102.93,112.8 103.04,114.73 C103.09,115.7 102.97,116.33 102.97,116.33 C102.97,116.33 102.27,116.68 101.58,116.88 C100.77,117.1 99.62,117.31 99.62,117.31 Z" fill="#70853C"/>
  <path d="M105.45,82.93 C103.73,82.94 103.63,86.48 103.63,86.48 C103.63,86.48 104.24,86.98 105.34,87.01 C106.32,87.04 107.1,86.83 107.1,86.83 C107.1,86.83 107.36,82.92 105.45,82.93 Z" fill="#71873B"/>
  <path d="M108.59,86.32 C108.59,86.32 106.96,82.4 109.09,81.86 C110.55,81.49 111.06,84.52 111.06,84.52 C111.06,84.52 110.6,85.1 110,85.51 C109.36,85.94 108.59,86.32 108.59,86.32 Z" fill="#71873B"/>
  <path d="M49.67,67.65 C49.67,67.65 51.03,64.43 52.4,65.13 C53.84,65.87 52.01,68.95 52.01,68.95 C52.01,68.95 51.24,68.7 50.6,68.35 C50.16,68.11 49.67,67.65 49.67,67.65 Z" fill="#70853C"/>
  <path d="M55.12,66 C56.63,66.07 56.11,69.26 56.11,69.26 C56.11,69.26 55.46,69.33 54.77,69.31 C54.13,69.29 53.38,69.22 53.38,69.22 C53.38,69.22 53.78,65.94 55.12,66 Z" fill="#70853C"/>
  <path d="M22.25,91.34 C22.25,91.34 25.88,90.39 26.61,92.01 C27.35,93.63 23.64,94.72 23.64,94.72 C23.64,94.72 22.88,93.76 22.64,93.1 C22.13,91.74 22.25,91.34 22.25,91.34 Z" fill="#70853C"/>
  <path d="M24.86,95.93 C24.82,95.82 27.11,93.64 28.41,94.59 C29.71,95.54 27.6,97.83 27.6,97.83 C27.6,97.83 26.72,97.35 26.16,96.95 C25.48,96.47 24.86,95.93 24.86,95.93 Z" fill="#70853C"/>
  <path d="M61.83,95.01 C61.97,96.65 61.5,98.58 59.01,99.19 C56.75,99.75 54.46,98.3 54.41,95.86 C54.36,93.51 56.2,91.82 58.21,91.82 C60.22,91.82 61.66,93 61.83,95.01 Z" fill="#2E2C33"/>
  <path d="M26.99,107.61 C26.9,108.78 25.89,109.1 25.16,109.02 C24.13,108.9 23.45,107.89 23.74,106.93 C24.01,106 24.95,105.57 25.75,105.82 C26.54,106.06 27.07,106.61 26.99,107.61 Z" fill="#2E2C33"/>
  <path d="M18.85,105.34 C19.27,106.28 18.47,107.21 17.86,107.45 C17.04,107.78 15.95,107.41 15.68,106.44 C15.42,105.51 15.99,104.65 16.8,104.44 C17.61,104.23 18.44,104.42 18.85,105.34 Z" fill="#2E2C33"/>
  <path d="M59.54,77.32 C58.86,79.58 59.62,80.97 59.95,81.7 C60.61,83.15 61.65,83.1 62.5,82.44 C63.34,81.78 62.12,79.44 62.55,78.36 C63.16,76.81 65.32,76.76 65.13,74.89 C64.99,73.49 63.12,73.19 61.8,74.33 C60.83,75.14 59.99,75.79 59.54,77.32 Z" fill="#97A927"/>
  <path d="M64.03,63.47 C63.08,65.82 63.68,67.71 63.96,68.4 C64.42,69.53 66.53,69.88 66.74,68.01 C66.88,66.75 66.28,65.93 66.85,64.49 C67.4,63.08 68.54,63.43 69.6,62.48 C70.16,61.97 70.23,60.09 68.16,60.12 C67.06,60.14 65.15,60.69 64.03,63.47 Z" fill="#97A927"/>
  <path d="M81.52,68.74 C81.1,70.89 81.45,72.26 81.87,73 C82.29,73.74 84.05,74.26 84.54,72.65 C84.82,71.73 84.15,71 84.65,69.1 C84.9,68.13 85.57,67.66 86.2,66.99 C87.19,65.93 85.87,64.23 84.26,64.88 C83.14,65.33 82.04,66.12 81.52,68.74 Z" fill="#97A927"/>
  <path d="M75.15,81.98 C74.27,83.56 74.43,85.34 74.59,86.38 C74.91,88.53 77.05,88.49 77.3,87.26 C77.55,86.03 77.26,84.51 77.69,83.49 C78.12,82.47 79.45,82.23 80.29,81.8 C81.45,81.2 81.13,78.74 78.95,79.2 C76.77,79.66 75.85,80.72 75.15,81.98 Z" fill="#97A927"/>
  <path d="M85.5,52.73 C84.97,54.52 85.12,55.74 85.25,56.39 C85.57,57.9 87.68,57.97 87.89,56.64 C88.1,55.3 88.03,54.56 88.28,53.72 C88.69,52.33 89.04,52.09 89.65,51.43 C90.74,50.27 89.4,48.44 87.75,49.42 C86.8,49.99 85.9,51.37 85.5,52.73 Z" fill="#97A927"/>
  <path d="M68.42,47.64 C67.51,49.4 67.73,51.3 67.87,52.23 C68.02,53.15 68.49,54.01 69.51,53.93 C70.53,53.86 70.9,53.08 70.79,52.23 C70.73,51.79 70.5,50.34 70.97,49.34 C71.44,48.34 72.38,47.74 73.12,47.45 C74.95,46.75 73.87,44.11 71.77,44.82 C70.24,45.35 69.15,46.23 68.42,47.64 Z" fill="#97A927"/>
  <path d="M75.19,33.94 C73.87,35.36 73.8,37.08 73.89,38.3 C74.07,40.73 76.32,40.34 76.6,38.97 C76.79,38.05 76.99,36.79 77.27,36.15 C77.83,34.88 78.78,34.11 78.04,33.33 C77.37,32.64 76.07,32.99 75.19,33.94 Z" fill="#97A927"/>
  <path d="M87.79,37.19 C87.67,39.3 88.02,40.16 88.55,41.13 C89.31,42.52 91.26,42.17 91.37,40.53 C91.45,39.34 90.89,39.62 91.01,37.31 C91.09,35.85 91.88,34.45 90.81,33.93 C89.75,33.41 87.99,33.69 87.79,37.19 Z" fill="#97A927"/>
  <path d="M84.51,20.95 C85.11,21.97 85.88,22.85 86.16,24.26 C86.55,26.2 89.09,25.74 89.12,23.98 C89.16,21.62 88.42,20.57 87.57,19.51 C86.75,18.49 85.42,18.45 84.86,18.84 C84.3,19.23 84,20.08 84.51,20.95 Z" fill="#97A927"/>
  <path d="M74.84,21.81 C74.2,22.35 73.97,23.43 74.61,24.23 C75.45,25.27 75.92,26.12 75.87,26.99 C75.79,28.38 77.04,28.89 77.84,28.31 C78.91,27.53 79.28,26.07 78.26,23.78 C77.3,21.64 75.57,21.18 74.84,21.81 Z" fill="#97A927"/>
  <path d="M72.09,9.52 C71.78,10.5 72.82,10.86 73.86,11.04 C74.9,11.22 76.1,12 76.45,12.77 C76.94,13.85 78.48,14.44 78.81,12.75 C79.1,11.3 77.25,9.8 76.11,9.14 C75.18,8.59 72.63,7.82 72.09,9.52 Z" fill="#97A927"/>
  <path d="M69.8,13.81 C68.22,12.92 65.48,13 65.15,14.51 C64.8,16.16 66.31,16.11 66.98,16.16 C67.86,16.23 68.7,16.48 69.23,17.11 C69.76,17.74 70.15,18.45 71.24,18.13 C72.33,17.82 72.55,15.35 69.8,13.81 Z" fill="#97A927"/>
  <path d="M64.38,8.6 C64.84,8.02 64.7,6.31 61.6,6.17 C59.01,6.05 58.34,7.29 58.75,8.07 C59.28,9.09 60.57,8.38 61.64,8.49 C62.94,8.63 63.82,9.3 64.38,8.6 Z" fill="#97A927"/>
  <path d="M57.87,11.66 C56.08,11.45 54.09,12.53 54.49,14.09 C54.81,15.32 56.28,13.99 57.45,14.02 C58.86,14.06 60.1,14.92 60.51,14.09 C61.11,12.89 60.33,11.95 57.87,11.66 Z" fill="#97A927"/>
  <path d="M51.51,9.55 C51.48,10.75 50.36,10.4 48.98,10.92 C48.14,11.24 47.35,12.75 46.56,12.09 C45.5,11.2 46.47,9.78 48.06,8.96 C49.21,8.35 51.55,8.28 51.51,9.55 Z" fill="#97A927"/>
  <path d="M46.66,14.87 C44.31,16.02 43.7,18.88 44.87,19.39 C46.29,20.01 46.26,17.89 47.48,17.11 C48.45,16.5 50.71,16.82 50.69,15.44 C50.67,14.06 48.08,14.18 46.66,14.87 Z" fill="#97A927"/>
  <path d="M42.28,22.6 C42.54,21.69 40.73,20.45 38.58,21.9 C36.43,23.35 36.28,25.47 37.66,25.77 C38.65,25.98 38.72,24.48 39.56,23.83 C40.76,22.92 41.93,23.84 42.28,22.6 Z" fill="#97A927"/>
</svg>