<svg viewBox="0 0 128 128" xmlns="http://www.w3.org/2000/svg">
  <radialGradient id="SVGID_1_" cx="292.9058" cy="-801.0307" gradientTransform="matrix(1.230000e-13 1.0276 -0.5662 5.000000e-14 -389.443 -278.9334)" gradientUnits="userSpaceOnUse" r="98.902">
    <stop offset="0" stop-color="#FAFAFA"/>
    <stop offset="0.4133" stop-color="#EEEEEE"/>
    <stop offset="0.9947" stop-color="#E0E0E0"/>
  </radialGradient>
  <rect fill="url(#SVGID_1_)" height="102.8" width="48" x="40" y="20"/>
  <linearGradient id="SVGID_2_" gradientTransform="matrix(1 0 0 1 0 -714)" gradientUnits="userSpaceOnUse" x1="44" x2="84" y1="783.9999" y2="783.9999">
    <stop offset="0" stop-color="#FFFFFF"/>
    <stop offset="0.2199" stop-color="#FAFAFA"/>
    <stop offset="0.4963" stop-color="#EAEAEA"/>
    <stop offset="0.7972" stop-color="#D1D1D1"/>
    <stop offset="0.8736" stop-color="#D4D4D4"/>
    <stop offset="0.9406" stop-color="#DFDFDF"/>
    <stop offset="0.9947" stop-color="#EEEEEE"/>
  </linearGradient>
  <rect fill="url(#SVGID_2_)" height="100" width="40" x="44" y="20"/>
  <polygon fill="#08128A" points="84,20 84,24.7 44,47.8 44,33.3 67,20 "/>
  <polygon fill="#D40004" points="84,39.4 84,53.9 44,77 44,62.5 "/>
  <polygon fill="#08128A" points="84,68.9 84,83.4 44,106.5 44,92 "/>
  <polygon fill="#D40004" points="84,98.5 84,112.9 71.8,120 46.7,120 "/>
  <radialGradient id="SVGID_3_" cx="60.75" cy="725.9999" gradientTransform="matrix(1 0 0 1 0 -714)" gradientUnits="userSpaceOnUse" r="23.034">
    <stop offset="0" stop-color="#F5F5F5"/>
    <stop offset="0.995" stop-color="#BDBDBD"/>
  </radialGradient>
  <path d="M42,22.7C42,12.4,51.8,4,64,4s22,8.4,22,18.7H42z" fill="url(#SVGID_3_)"/>
  <linearGradient id="SVGID_4_" gradientTransform="matrix(1 0 0 1 0 -714)" gradientUnits="userSpaceOnUse" x1="64" x2="64" y1="831.18" y2="837.96">
    <stop offset="5.254400e-03" stop-color="#BDBDBD"/>
    <stop offset="1" stop-color="#FAFAFA"/>
  </linearGradient>
  <path d="M88,124H40c-1.7,0-3-1.3-3-3s1.3-3,3-3h48c1.7,0,3,1.3,3,3S89.7,124,88,124z" fill="url(#SVGID_4_)"/>
  <linearGradient id="SVGID_5_" gradientTransform="matrix(1 0 0 1 0 -714)" gradientUnits="userSpaceOnUse" x1="64" x2="64" y1="734.047" y2="739.908">
    <stop offset="0" stop-color="#FAFAFA"/>
    <stop offset="0.9947" stop-color="#BDBDBD"/>
  </linearGradient>
  <path d="M88,26H40c-1.7,0-3-1.3-3-3s1.3-3,3-3h48c1.7,0,3,1.3,3,3S89.7,26,88,26z" fill="url(#SVGID_5_)"/>
  <g opacity="0.2">
    <path d="M64,7c9.4,0,17.5,5.8,18.8,13.5c0.2,1.4,1.5,2.5,3,2.5H88c-1.7,0-3,1.3-3,3v92c0,1.7,1.3,3,3,3H40 c1.7,0,3-1.3,3-3V26c0-1.7-1.3-3-3-3h2.2c1.5,0,2.7-1.1,3-2.5C46.5,12.8,54.6,7,64,7 M64,4c-11.1,0-20.2,6.9-21.8,16H40 c-1.7,0-3,1.3-3,3s1.3,3,3,3v92c-1.7,0-3,1.3-3,3s1.3,3,3,3h48c1.7,0,3-1.3,3-3s-1.3-3-3-3V26c1.7,0,3-1.3,3-3s-1.3-3-3-3h-2.2 C84.2,10.9,75.1,4,64,4L64,4z" fill="#424242"/>
  </g>
</svg>