<svg viewBox="0 0 128 128" xmlns="http://www.w3.org/2000/svg">
  <defs>
    <linearGradient id="SVGID_1_" gradientTransform="matrix(1 0 0 -1 0 0)" gradientUnits="userSpaceOnUse" x1="64.02" x2="64.02" y1="-96.4119" y2="-125.6548">
      <stop offset="3.200000e-03" stop-color="#3B78E7"/>
      <stop offset="0.2231" stop-color="#386EDA"/>
      <stop offset="0.6286" stop-color="#3052B8"/>
      <stop offset="1" stop-color="#283593"/>
    </linearGradient>
    <radialGradient id="hairHighlights_1_" cx="64" cy="-71.364734" gradientTransform="matrix(1 0 0 -1.1901 0 0)" gradientUnits="userSpaceOnUse" r="34.4541">
      <stop offset="0.7936" stop-color="#6D4C41" stop-opacity="0"/>
      <stop offset="1" stop-color="#6D4C41"/>
    </radialGradient>
    <radialGradient id="hairHighlights_3_" cx="64.3817" cy="40.58" gradientUnits="userSpaceOnUse" r="38.3405">
      <stop offset="0.7945" stop-color="#6D4C41" stop-opacity="0"/>
      <stop offset="1" stop-color="#6D4C41"/>
    </radialGradient>
    <linearGradient id="SVGID_5_" gradientTransform="matrix(1 0 0 -1 0 0)" gradientUnits="userSpaceOnUse" x1="64.213" x2="64.213" y1="-4.689" y2="-34.0712">
      <stop offset="3.200000e-03" stop-color="#3B78E7"/>
      <stop offset="0.0115" stop-color="#3B77E6"/>
      <stop offset="0.2985" stop-color="#335BC2"/>
      <stop offset="0.5675" stop-color="#2D46A8"/>
      <stop offset="0.8091" stop-color="#293998"/>
      <stop offset="1" stop-color="#283593"/>
    </linearGradient>
    <linearGradient id="SVGID_4_" gradientTransform="matrix(1 0 0 -1 0 0)" gradientUnits="userSpaceOnUse" x1="64.268" x2="64.268" y1="-24.2842" y2="-44.6626">
      <stop offset="4.000000e-03" stop-color="#666666"/>
      <stop offset="0.0985" stop-color="#606060"/>
      <stop offset="0.6803" stop-color="#3F3F3F"/>
      <stop offset="1" stop-color="#333333"/>
    </linearGradient>
    <linearGradient id="SVGID_2_" gradientTransform="matrix(1 0 0 -1 0 0)" gradientUnits="userSpaceOnUse" x1="116.4018" x2="106.563" y1="-118.5235" y2="-118.5235">
      <stop offset="4.000000e-03" stop-color="#666666"/>
      <stop offset="0.0985" stop-color="#606060"/>
      <stop offset="0.6803" stop-color="#3F3F3F"/>
      <stop offset="1" stop-color="#333333"/>
    </linearGradient>
    <linearGradient id="SVGID_3_" gradientTransform="matrix(1 0 0 -1 0 0)" gradientUnits="userSpaceOnUse" x1="11.5972" x2="21.436" y1="-118.5235" y2="-118.5235">
      <stop offset="4.000000e-03" stop-color="#666666"/>
      <stop offset="0.0985" stop-color="#606060"/>
      <stop offset="0.6803" stop-color="#3F3F3F"/>
      <stop offset="1" stop-color="#333333"/>
    </linearGradient>
  </defs>
  <path id="hair" d="M96.64,70.43 C102.15,64.51 25.85,64.51 31.36,70.43 C30.14,74.92 29.35,79.2 28.75,82.67 C26.37,96.5 28.1,108.33 36.6,117.53 C40.29,121.53 48.03,121.54 48.03,121.54 L64,121.53 L79.97,121.55 C79.97,121.55 87.71,121.54 91.4,117.54 C99.89,108.34 101.63,96.51 99.25,82.68 C98.65,79.2 97.86,74.93 96.64,70.43 Z" fill="#543930"/>
  <path id="hairHighlights" d="M95.02,58.1 C95,57.84 79.76,53.79 64,49.73 C48.24,53.79 33,57.84 32.98,58.1 C31.88,74.1 25.45,84.98 28.58,101.67 C30.18,110.19 33.13,113.51 35.89,118.7 C37.24,121.27 39.19,122.89 41.08,123.94 L64,123.94 L86.92,123.94 C88.81,122.89 90.76,121.27 92.11,118.7 C94.87,113.51 97.82,110.19 99.42,101.67 C102.55,84.98 96.12,74.1 95.02,58.1 Z" fill="url(#hairHighlights_1_)"/>
  <path d="M116.02,120.93 L116.02,123.94 L12.02,123.94 L12.02,120.93 C12.02,114.62 15.29,109.66 20.65,105.88 C21.22,105.48 21.82,105.09 22.44,104.71 C22.48,104.69 22.52,104.67 22.55,104.65 C24.34,103.56 26.31,102.59 28.44,101.73 C28.48,101.71 28.52,101.7 28.56,101.68 C28.57,101.68 28.57,101.67 28.58,101.67 C35.51,98.86 44.03,97.16 52.94,96.41 C56.59,96.1 60.31,95.95 64.02,95.94 L64.16,95.94 C67.74,95.94 71.33,96.1 74.85,96.42 C83.86,97.22 92.46,99.07 99.44,101.98 C102.26,103.16 104.82,104.51 107.04,106.04 C112.61,109.88 116.02,114.83 116.02,120.93 Z" fill="url(#SVGID_1_)"/>
  <path d="M64.01,121.88 L73.33,104.81 L53.43,104.81 Z" fill="#212121"/>
  <path id="neck" d="M54.92,86.08 L54.92,100.06 C54.92,104.57 58.62,108.23 63.18,108.23 L64.83,108.23 C69.39,108.23 73.09,104.57 73.09,100.06 L73.09,86.08 L64,86.08 L54.92,86.08 Z" fill="#E59600"/>
  <path id="ears" d="M91.33,50.43 L83.96,50.43 L44.04,50.43 L36.67,50.43 C30.78,50.43 25.96,55.57 25.96,61.84 C25.96,68.11 30.78,73.25 36.67,73.25 L44.04,73.25 L83.95,73.25 L91.32,73.25 C97.21,73.25 102.03,68.11 102.03,61.84 C102.03,55.57 97.22,50.43 91.33,50.43 Z" fill="#E59600"/>
  <path id="head" d="M64,16.04 L64,16.04 L64,16.04 C46.8,16.04 30.87,28.83 30.87,55.95 C30.87,77.73 44.36,90.62 56.1,94.78 C58.9,95.77 61.6,96.27 64,96.27 C66.38,96.27 69.07,95.78 71.85,94.8 C83.61,90.66 97.13,77.77 97.13,55.96 C97.13,28.83 81.2,16.04 64,16.04 Z" fill="#FFCA28"/>
  <path id="mouth" d="M72.42,76.14 C69.24,78.03 58.79,78.03 55.61,76.14 C53.78,75.05 51.91,76.72 52.67,78.38 C53.42,80.01 59.11,83.8 64.04,83.8 C68.97,83.8 74.59,80.01 75.34,78.38 C76.09,76.72 74.25,75.05 72.42,76.14 Z" fill="#795548"/>
  <path id="nose" d="M67.86,68.06 C67.75,68.02 67.65,67.99 67.54,67.98 L60.46,67.98 C60.35,67.99 60.24,68.02 60.14,68.06 C59.5,68.32 59.15,68.98 59.45,69.69 C59.75,70.4 61.16,72.38 64,72.38 C66.84,72.38 68.25,70.39 68.55,69.69 C68.85,68.98 68.5,68.32 67.86,68.06 Z" fill="#E59600"/>
  <path d="M52.49,58.81 A4.93 5.1 0 1 1 42.63,58.81 A4.93 5.1 0 1 1 52.49,58.81 Z" fill="#404040"/>
  <path d="M85.37,58.81 A4.93 5.1 0 1 1 75.51,58.81 A4.93 5.1 0 1 1 85.37,58.81 Z" fill="#404040"/>
  <path d="M54.8,49.82 C53.87,48.59 51.73,46.81 47.57,46.81 C43.41,46.81 41.26,48.6 40.34,49.82 C39.93,50.36 40.03,50.99 40.32,51.37 C40.58,51.72 41.36,52.05 42.22,51.76 C43.08,51.47 44.76,50.6 47.57,50.58 C50.38,50.6 52.06,51.47 52.92,51.76 C53.78,52.05 54.56,51.73 54.82,51.37 C55.1,50.99 55.21,50.36 54.8,49.82 Z" fill="#6D4C41"/>
  <path d="M87.67,49.82 C86.74,48.59 84.6,46.81 80.44,46.81 C76.28,46.81 74.13,48.6 73.21,49.82 C72.8,50.36 72.9,50.99 73.19,51.37 C73.45,51.72 74.23,52.05 75.09,51.76 C75.95,51.47 77.63,50.6 80.44,50.58 C83.25,50.6 84.93,51.47 85.79,51.76 C86.65,52.05 87.43,51.73 87.69,51.37 C87.97,50.99 88.08,50.36 87.67,49.82 Z" fill="#6D4C41"/>
  <path d="M103.98,41.47 C103.98,36.22 102.9,7.13 64.07,7.13 C25.24,7.13 24.31,32.94 24.31,42.87 C24.31,59.34 32.68,68.04 32.68,68.04 C32.68,68.04 32.58,63.88 33,58.94 C33.42,54 33.31,47.06 39.4,45.69 C61.76,40.65 74.41,28.8 74.41,28.8 C77.7,35.98 87.99,42.99 91.68,45.66 C94.71,47.85 96.21,67.45 96.21,67.45 C96.21,67.45 103.98,58.4 103.98,41.47 Z" fill="#543930"/>
  <path id="hairHighlights_2_" d="M103.98,41.47 C103.98,36.22 102.9,7.13 64.07,7.13 C25.24,7.13 24.31,32.94 24.31,42.87 C24.31,59.34 32.68,68.04 32.68,68.04 C32.68,68.04 32.58,63.88 33,58.94 C33.42,54 33.31,47.06 39.4,45.69 C61.76,40.65 74.41,28.8 74.41,28.8 C77.7,35.98 87.99,42.99 91.68,45.66 C94.71,47.85 96.21,67.45 96.21,67.45 C96.21,67.45 103.98,58.4 103.98,41.47 Z" fill="url(#hairHighlights_3_)"/>
  <path d="M107.04,106.04 C106.53,106.86 102.31,112.75 90.19,108.9 C83.23,106.7 76.35,106.09 76.35,106.09 C73.92,105.41 74.69,97.79 74.85,96.42 C87.51,97.55 99.34,100.73 107.04,106.04 Z" fill="#283593"/>
  <path d="M51.45,106.09 C51.45,106.09 44.57,106.7 37.61,108.9 C25.35,112.8 21.09,106.59 20.65,105.88 C20.62,105.83 20.61,105.81 20.61,105.81 C20.61,105.81 21.25,105.38 22.44,104.71 C22.48,104.69 22.52,104.67 22.55,104.65 C23.9,103.89 25.91,102.83 28.44,101.73 C28.49,101.71 28.53,101.69 28.58,101.67 C35.51,98.86 44.03,97.16 52.94,96.41 C53.1,97.76 53.87,105.41 51.45,106.09 Z" fill="#283593"/>
  <path d="M45.77,119.65 L34.86,119.65 C33.66,119.65 32.69,118.68 32.69,117.48 L32.69,117.48 C32.69,116.28 33.66,115.31 34.86,115.31 L45.78,115.31 C46.98,115.31 47.95,116.28 47.95,117.48 L47.95,117.48 C47.94,118.68 46.97,119.65 45.77,119.65 Z" fill="#E0E0E0"/>
  <path d="M113.9,113.11 L108.9,113.19 L106.56,117.48 L111.39,123.94 L116.38,123.94 C116.65,116.57 113.9,113.11 113.9,113.11 Z" fill="url(#SVGID_2_)"/>
  <path d="M19.1,113.19 L14.1,113.11 C14.1,113.11 11.36,116.57 11.62,123.94 L16.61,123.94 L21.44,117.48 L19.1,113.19 Z" fill="url(#SVGID_3_)"/>
  <path d="M109.35,113.93 L113.91,113.85 C114.32,113.84 114.65,113.5 114.65,113.09 C114.65,112.68 114.33,112.38 113.89,112.35 L108.45,112.44 L105.43,117.99 L109.66,123.94 L111.5,123.94 L107.19,117.89 L109.35,113.93 Z" fill="#BDBDBD"/>
  <path d="M111.86,116.63 L115.24,116.49 C115.52,116.48 115.73,116.25 115.72,115.97 C115.71,115.69 115.47,115.5 115.2,115.49 L111.33,115.65 L109.76,117.93 L113.71,123.94 L114.91,123.94 L110.97,117.95 L111.86,116.63 Z" fill="#BDBDBD"/>
  <path d="M19.55,112.45 L14.11,112.36 C14.1,112.36 14.1,112.36 14.1,112.36 C13.69,112.36 13.36,112.69 13.35,113.1 C13.34,113.51 13.67,113.86 14.09,113.86 L18.66,113.94 L20.81,117.9 L16.5,123.95 L18.34,123.95 L22.57,118 L19.55,112.45 Z" fill="#BDBDBD"/>
  <path d="M16.67,115.66 L12.8,115.5 C12.52,115.51 12.29,115.7 12.28,115.98 C12.27,116.26 12.48,116.49 12.76,116.5 L16.14,116.64 L17.05,117.95 L13.11,123.94 L14.31,123.94 L18.26,117.93 L16.67,115.66 Z" fill="#BDBDBD"/>
  <path d="M47.12,97.12 L39.12,113.35 L49.99,110.08 L64.01,121.88 L54.9,96.21 Z" fill="#3674CE"/>
  <path d="M73.14,96.21 L64.04,121.88 L78.83,110.24 L88.93,113.35 L80.93,97.12 Z" fill="#3674CE"/>
  <path d="M64.01,24.18 C31.07,24.18 25.78,35.32 25.78,35.32 C25.78,35.32 35.93,45.04 64.01,45.22 C92.08,45.03 102.76,34.7 102.76,34.7 C102.76,34.7 96.95,24.18 64.01,24.18 Z" fill="url(#SVGID_4_)"/>
  <path d="M21.03,34.25 C22.71,40.32 24.31,42.89 24.31,42.89 C26.01,40.93 36.13,31.79 64.15,31.79 C64.16,31.79 64.27,31.79 64.27,31.79 L64.27,31.79 C64.27,31.79 64.27,31.79 64.31,31.79 C92.33,31.79 101.98,40.97 103.69,42.93 C103.69,42.93 105.72,40.19 107.4,34.12 C111.29,20.07 92.02,4.33 64.28,4.33 C36.59,4.34 17.16,20.23 21.03,34.25 Z" fill="url(#SVGID_5_)"/>
  <path d="M99.55,35.35 C99.34,34.26 98.73,33.28 97.85,32.6 C94.14,29.75 83.06,22.7 64.27,22.7 C45,22.7 34.21,29.75 30.64,32.6 C29.79,33.28 29.2,34.23 29,35.3 L28.99,35.36 C28.74,36.65 29.07,37.87 29.76,38.83 C35.49,35.61 46.1,31.82 64.15,31.82 C64.16,31.82 64.27,31.82 64.27,31.82 C64.27,31.82 64.27,31.82 64.31,31.82 C82.65,31.82 93.12,35.75 98.64,39.02 C99.42,38.03 99.81,36.73 99.55,35.35 Z" fill="#3B78E7"/>
  <path d="M72.02,13.84 L71.71,13.44 C71.57,13.26 71.34,13.15 71.1,13.15 C70.84,13.15 70.6,13.27 70.46,13.48 C69.91,14.32 69.1,14.88 67.67,14.88 C66.28,14.88 65.27,13.6 64.66,12.81 C64.47,12.56 64.17,12.4 63.84,12.4 C63.51,12.4 63.21,12.56 63.02,12.81 C62.42,13.6 61.46,14.88 60.07,14.88 C58.64,14.88 57.83,14.31 57.28,13.48 C57.14,13.27 56.9,13.15 56.64,13.15 C56.4,13.15 56.17,13.26 56.03,13.44 L55.72,13.84 C55.35,14.32 55.29,14.96 55.57,15.49 C55.99,16.29 56.21,17.17 56.21,18.06 L56.21,21.54 C56.21,24.08 60.35,29.26 63.86,29.26 C67.37,29.26 71.51,24.08 71.51,21.54 L71.51,18.06 C71.51,17.17 71.73,16.29 72.15,15.49 C72.45,14.95 72.39,14.32 72.02,13.84 Z" fill="#FFCC00"/>
</svg>