<svg viewBox="0 0 128 128" xmlns="http://www.w3.org/2000/svg">
  <defs>
    <linearGradient id="SVGID_1_" gradientUnits="userSpaceOnUse" x1="63.9827" x2="63.9827" y1="9.6472" y2="23.14">
      <stop offset="0.1815" stop-color="#B881CF"/>
      <stop offset="1" stop-color="#754CA5"/>
    </linearGradient>
  </defs>
  <path d="M122.23,46.29 C119.76,41.67 109.24,24.65 98.67,18.32 C96.07,16.77 88.85,14.77 85.63,13.89 L85.63,13.89 C81.38,12.4 79.97,12.61 78.59,13.26 C73.33,15.75 69.8,16.94 64.41,16.94 C64.26,16.94 64.12,16.93 63.98,16.93 C63.84,16.94 63.7,16.94 63.55,16.94 C58.16,16.94 54.63,15.75 49.37,13.26 C47.99,12.61 46.58,12.4 42.33,13.89 L42.33,13.89 C39.11,14.77 31.89,16.77 29.29,18.32 C18.72,24.64 8.2,41.67 5.73,46.29 C5.38,46.93 4.94,47.5 5.2,48.17 C6.42,51.28 10.83,55.35 20.36,60.99 C21.03,61.39 21.86,61.44 22.47,60.96 C24.97,58.99 31.05,51.51 31.05,51.51 C31.05,51.51 35.38,69.13 33.56,84.36 C31.73,99.59 28.6,111.43 28.6,111.43 C28.51,112.18 28.9,112.91 29.6,113.24 C32.61,114.69 47.13,117.96 63.99,117.99 C80.85,117.97 95.37,114.69 98.38,113.24 C99.08,112.91 99.47,112.17 99.38,111.43 C99.38,111.43 96.24,99.6 94.42,84.36 C92.59,69.13 96.93,51.51 96.93,51.51 C96.93,51.51 103.01,58.99 105.51,60.96 C106.12,61.44 106.95,61.39 107.62,60.99 C117.15,55.36 121.57,51.29 122.78,48.17 C123.03,47.49 122.58,46.93 122.23,46.29 Z" fill="#CFB0EA"/>
  <path d="M82.36,9.48 C81.64,8.8 79.97,7.41 77.1,8.22 C73.99,9.09 69.27,9.72 63.88,9.74 C58.5,9.72 53.78,9.1 50.67,8.22 C47.81,7.42 46.14,8.81 45.41,9.48 C44.25,10.56 40.67,13.34 40.67,14.43 C40.67,18.24 42.59,29.8 53.26,31.66 C58.54,32.58 61.88,28.12 63.22,25.84 C63.37,25.59 63.62,25.46 63.88,25.45 C64.14,25.47 64.39,25.59 64.54,25.84 C65.88,28.13 69.22,32.58 74.5,31.66 C85.17,29.81 87.1,18.25 87.1,14.44 C87.1,13.34 83.52,10.56 82.36,9.48 Z" fill="#EEEEEE"/>
  <path d="M40.78,14.44 C41.23,17.45 42.11,20.37 43.59,22.9 C45,25.45 46.99,27.58 49.42,28.8 C50.63,29.42 51.95,29.8 53.29,30.04 C54.57,30.27 55.74,30.13 56.85,29.65 C57.96,29.18 58.99,28.4 59.88,27.41 C60.33,26.92 60.74,26.38 61.12,25.82 C61.31,25.54 61.49,25.25 61.66,24.95 L61.8,24.7 C61.97,24.4 62.22,24.13 62.52,23.92 C63.12,23.5 63.86,23.38 64.55,23.56 C64.89,23.65 65.23,23.82 65.5,24.05 C65.64,24.16 65.76,24.3 65.87,24.43 L66.02,24.64 L66.06,24.7 L66.36,25.18 C66.55,25.49 66.75,25.79 66.94,26.08 C67.33,26.66 67.74,27.2 68.18,27.69 C69.06,28.67 70.08,29.4 71.19,29.83 C72.3,30.27 73.55,30.36 74.84,30.16 C76.16,29.93 77.52,29.55 78.72,28.95 C81.16,27.76 83.11,25.63 84.38,23.02 C85.05,21.73 85.57,20.33 85.97,18.88 C86.36,17.43 86.65,15.94 86.98,14.43 L87.18,14.45 C86.94,17.48 86.54,20.57 85.37,23.42 C84.24,26.27 82.23,28.84 79.5,30.33 C78.16,31.1 76.68,31.59 75.16,31.89 C73.64,32.18 72.03,32.14 70.56,31.61 C69.08,31.1 67.79,30.14 66.74,29.01 C66.21,28.44 65.74,27.83 65.3,27.2 C65.08,26.88 64.87,26.56 64.66,26.24 L64.35,25.76 C64.26,25.61 64.17,25.54 64.04,25.5 C63.91,25.47 63.77,25.49 63.66,25.57 C63.61,25.61 63.56,25.66 63.52,25.71 L63.38,25.96 C63.18,26.29 62.98,26.62 62.76,26.94 C62.32,27.57 61.84,28.19 61.31,28.75 C60.26,29.88 59,30.85 57.54,31.42 C56.09,32 54.46,32.11 52.95,31.78 C51.44,31.48 49.96,30.97 48.62,30.19 C45.91,28.66 43.9,26.14 42.61,23.36 C41.33,20.57 40.62,17.52 40.56,14.45 L40.78,14.45 Z" fill="#B881CF"/>
  <path d="M82.36,9.48 C81.59,8.86 79.97,7.41 77.1,8.22 C73.99,9.09 69.27,9.72 63.88,9.74 C58.5,9.72 53.78,9.1 50.67,8.22 C47.81,7.42 46.14,8.81 45.41,9.48 C44.29,10.53 40.9,13.17 40.69,14.33 C41.22,14.46 44.97,10.78 46.24,10.89 C47.22,10.97 48.58,14.19 50.93,15 C53.28,15.81 76.71,15.36 76.71,15.36 C76.71,15.36 78.92,13.62 80.12,11.97 C80.84,10.98 81.48,10.61 82.51,11.12 C83.52,11.63 86.94,15 87.08,14.36 C86.95,13.23 83.72,10.57 82.36,9.48 Z" fill="#B7D5E5"/>
  <path d="M21.39,62.22 C14.7,58.19 9.13,53.63 4.21,48.85 C3.97,48.62 3.93,48.25 4.11,47.98 L5.39,45.99 C5.63,45.62 6.13,45.56 6.44,45.86 C11.14,50.37 17.54,55.33 23.87,59.17 C24.24,59.4 24.31,59.91 24.01,60.23 L22.25,62.11 C22.04,62.34 21.67,62.39 21.39,62.22 Z" fill="#B881CF"/>
  <path d="M106.61,62.22 C113.3,58.19 118.88,53.63 123.8,48.85 C124.04,48.62 124.08,48.25 123.9,47.98 L122.62,45.99 C122.38,45.62 121.88,45.56 121.57,45.86 C116.87,50.37 110.47,55.33 104.14,59.17 C103.77,59.4 103.7,59.91 104,60.23 L105.76,62.11 C105.96,62.34 106.33,62.39 106.61,62.22 Z" fill="#B881CF"/>
  <path d="M77.28,9.99 C75.58,10.4 70.04,11.93 64.2,11.93 C64.13,11.93 64.06,11.93 63.99,11.93 C63.92,11.93 63.85,11.93 63.78,11.93 C57.94,11.93 52.39,10.41 50.7,9.99 C49,9.58 48.34,10 48.67,11.36 C50.1,15.02 54.37,20.36 64,20.37 C73.63,20.36 77.9,15.02 79.33,11.36 C79.64,9.99 78.98,9.58 77.28,9.99 Z" fill="url(#SVGID_1_)"/>
</svg>