<svg viewBox="0 0 128 128" xmlns="http://www.w3.org/2000/svg">
  <defs/>
  <path d="M59.01,92.53 C57.85,89.48 54.3,87.99 51.1,89.21 L34.32,95.59 L44.5,59.35 C44.86,58.08 44.8,56.77 44.34,55.55 C43.11,52.32 39.35,50.74 35.95,52.04 L8.1,62.62 C6.56,63.2 5.33,64.32 4.62,65.75 C3.89,67.23 3.8,68.88 4.37,70.39 C5.53,73.45 9.1,74.95 12.32,73.73 L28.55,67.56 L18.28,103.6 C17.91,104.9 17.96,106.24 18.43,107.48 C19.38,109.98 21.83,111.5 24.47,111.5 C25.29,111.5 26.13,111.35 26.95,111.04 L55.31,100.26 C58.51,99.04 60.17,95.57 59.01,92.53 Z" fill="#176BC6"/>
  <path d="M92.6,61.82 C92.04,58.53 88.77,56.34 85.32,56.92 L67.21,60 L84.6,25.63 C85.21,24.42 85.41,23.09 85.19,21.78 C84.6,18.29 81.13,15.97 77.46,16.59 L47.4,21.72 C45.74,22 44.28,22.87 43.28,24.18 C42.25,25.53 41.84,27.16 42.11,28.79 C42.67,32.1 45.96,34.3 49.43,33.71 L66.95,30.73 L49.5,64.88 C48.87,66.11 48.66,67.47 48.89,68.81 C49.35,71.51 51.51,73.52 54.16,74.04 C54.98,74.2 55.85,74.22 56.74,74.07 L87.35,68.86 C90.8,68.27 93.16,65.11 92.6,61.82 Z" fill="#176BC6"/>
  <path d="M123.94,74.46 C123.76,72.33 121.79,70.75 119.55,70.94 L107.81,71.93 L120.78,50.92 C121.24,50.18 121.44,49.34 121.37,48.5 C121.18,46.24 119.09,44.57 116.72,44.77 L97.25,46.4 C96.18,46.49 95.2,46.97 94.49,47.75 C93.76,48.55 93.41,49.58 93.5,50.63 C93.68,52.77 95.66,54.36 97.91,54.17 L109.26,53.21 L96.26,74.07 C95.79,74.82 95.58,75.68 95.66,76.54 C95.81,78.29 97.08,79.69 98.74,80.17 C99.26,80.32 99.81,80.38 100.38,80.33 L120.21,78.66 C122.45,78.48 124.12,76.59 123.94,74.46 Z" fill="#176BC6"/>
</svg>