<svg viewBox="0 0 128 128" xmlns="http://www.w3.org/2000/svg">
  <g>
    <g>
      <g>
        <path d="M110.2,54.68c0,0,10.58-5.06,13.09-15.84 c2.52-10.79-5.53-17.56-13.56-14.48C100.5,27.89,95.6,35.8,95.6,35.8L110.2,54.68z" fill="#FFFFFF" stroke="#91BDCE" stroke-miterlimit="10" stroke-width="3"/>
        <path d="M106.34,52.66c0,0,6.8-11.71,8.39-15.67c1.16-2.88,0.67-4.21-2.81-2.84 c-6.06,2.39-14.49,5.88-14.49,5.88L106.34,52.66z" fill="#91BDCE"/>
      </g>
      <g>
        <path d="M17.8,54.68c0,0-10.58-5.06-13.09-15.84 s5.53-17.56,13.56-14.48C27.5,27.89,32.4,35.8,32.4,35.8L17.8,54.68z" fill="#FFFFFF" stroke="#91BDCE" stroke-miterlimit="10" stroke-width="3"/>
        <path d="M21.66,52.66c0,0-6.8-11.71-8.39-15.67c-1.16-2.88-0.67-4.21,2.81-2.84 c6.06,2.39,14.49,5.88,14.49,5.88L21.66,52.66z" fill="#91BDCE"/>
      </g>
    </g>
    <path d="M116.75,63.09 c-4.75-18.3-15.1-31.76-28.67-38.59c-7.73-3.89-13.54-2.45-18-0.54c-2.45,1.05-4.56,1.31-6.26,1.31s-3.62-0.27-6.07-1.31 c-4.46-1.91-10.27-3.36-18,0.54c-13.57,6.84-23.92,20.29-28.67,38.59c-4.8,18.51,2.36,25.76,8.28,31.64 c8.61,8.54,27.26,11.43,44.56,11.22c17.3,0.21,35.95-2.68,44.56-11.22C114.39,88.85,121.55,81.6,116.75,63.09z" fill="#FFFFFF" stroke="#91BDCE" stroke-miterlimit="10" stroke-width="3"/>
    <path d="M83.94,58.62C78.38,44.59,67.83,42.86,64,42.86s-14.38,1.73-19.94,15.76 c-2.97,7.5-4.87,13.28-3.65,19.09c2.42,11.57,11.9,17,23.6,17s21.18-5.44,23.6-17C88.81,71.9,86.92,66.12,83.94,58.62z" fill="#CFD8DC"/>
    <path d="M75.42,75.07c-1.19-0.9-3.34-2.1-6.15-3.14c-1.64-0.61-2.85-2-2.77-3.74 c0.09-1.93,0.16-4.02,0.06-4.24c-0.24-0.53-1.71-0.91-2.44-0.85c-0.04,0-0.08,0-0.12,0c-0.04,0-0.08,0-0.12,0 c-0.73-0.06-2.21,0.32-2.44,0.85c-0.08,0.19-0.04,1.79,0.03,3.47c0.09,2.1-1.28,3.87-3.23,4.65c-2.52,1-4.54,2.16-5.65,3.01 c-0.68,0.51-1.22,1.5-0.89,2.39c0.43,1.14,2.34,0.98,3.42,0.49c2.9-1.32,5.57-2.01,8.88-2.01c3.32,0,5.98,0.69,8.88,2.01 c1.08,0.49,2.99,0.65,3.42-0.49C76.64,76.57,76.1,75.58,75.42,75.07z" fill="#231F20"/>
    <path d="M70.56,52.25c-2.97-1.87-9.55-1.79-13.36,0c-1.82,0.85-5.98,5.12-4.8,9.68 c0.51,1.98,1.92,3.57,3.39,4.46c1.81,1.09,7.5,2.5,8.09,2.49c0.59,0.01,6.53-1.65,8.34-2.74c1.47-0.89,2.88-2.48,3.39-4.46 C76.8,57.13,72.26,53.32,70.56,52.25z" fill="#231F20"/>
    <g>
      <circle cx="87.28" cy="47.24" fill="#231F20" r="4.42"/>
      <circle cx="40.72" cy="47.24" fill="#231F20" r="4.42"/>
    </g>
  </g>
</svg>