<svg viewBox="0 0 128 128" xmlns="http://www.w3.org/2000/svg" xmlns:xlink="http://www.w3.org/1999/xlink">
  <g id="Layer_1_copy_2">
    <g>
      <defs>
        <rect id="SVGID_1_" height="120" width="120" x="4" y="4"/>
      </defs>
      <clipPath id="SVGID_2_">
        <use overflow="visible" xlink:href="#SVGID_1_"/>
      </clipPath>
      <g clip-path="url(#SVGID_2_)">
        <g id="XMLID_31_">
          <linearGradient id="SVGID_3_" gradientUnits="userSpaceOnUse" x1="8.5361" x2="8.5361" y1="97.4707" y2="130.4707">
            <stop offset="0" style="stop-color:#67B730"/>
            <stop offset="0.2418" style="stop-color:#64AF2E"/>
            <stop offset="0.607" style="stop-color:#5A9B2A"/>
            <stop offset="1" style="stop-color:#4D7D23"/>
          </linearGradient>
          <path d="M-41.96,130.47v-9.44c0-16.23,25.36-23.53,50.5-23.56h0.13c25.03,0,50.36,8.09,50.36,23.56v9.44 H-41.96z" fill="url(#SVGID_3_)"/>
          <path d="M8.67,98.97c12.9,0,25.42,2.19,34.36,6c6.62,2.83,14.51,7.91,14.51,16.05v7.94h-98v-7.94 c0-15.2,24.61-22.03,49-22.06L8.67,98.97 M8.67,95.97c-0.05,0-0.09,0-0.13,0c-25.49,0.03-52,7.28-52,25.06v10.94h104v-10.94 C60.54,104.27,34.27,95.97,8.67,95.97L8.67,95.97z" fill="#518626"/>
        </g>
      </g>
      <g clip-path="url(#SVGID_2_)">
        <g id="XMLID_29_">
          <linearGradient id="SVGID_5_" gradientUnits="userSpaceOnUse" x1="119.8662" x2="119.8662" y1="97.4707" y2="130.4707">
            <stop offset="0" style="stop-color:#FF8530"/>
            <stop offset="0.2478" style="stop-color:#FD7D2A"/>
            <stop offset="0.622" style="stop-color:#F86918"/>
            <stop offset="1" style="stop-color:#F24D00"/>
          </linearGradient>
          <path d="M69.37,130.47v-9.44c0-16.23,25.36-23.53,50.5-23.56H120c25.03,0,50.36,8.09,50.36,23.56v9.44 H69.37z" fill="url(#SVGID_5_)"/>
          <path d="M120,98.97c12.9,0,25.42,2.19,34.36,6c6.62,2.83,14.51,7.91,14.51,16.05v7.94h-98v-7.94 c0-15.2,24.61-22.03,49-22.06L120,98.97 M120,95.97c-0.05,0-0.09,0-0.13,0c-25.49,0.03-52,7.28-52,25.06v10.94h104v-10.94 C171.87,104.27,145.6,95.97,120,95.97L120,95.97z" fill="#DB5200"/>
        </g>
        <g id="XMLID_27_">
          <path d="M119.04,107.2c-4,0-7.26-3.22-7.26-7.17v-8.98h16.16v8.98c0,3.95-3.26,7.17-7.26,7.17H119.04z" fill="#E59600"/>
          <path d="M126.95,92.05v7.98c0,3.4-2.81,6.17-6.26,6.17h-1.65c-3.45,0-6.26-2.77-6.26-6.17v-7.98h7.08H126.95 M128.95,90.05h-9.08h-9.08v9.98c0,4.51,3.7,8.17,8.26,8.17h1.65c4.56,0,8.26-3.66,8.26-8.17V90.05L128.95,90.05z" fill="#D18100"/>
        </g>
        <g>
          <g>
            <path d="M149.38,87.11c0.53-0.58,1.11-1.11,1.91-1.13c1.32-0.03,3.36-0.25,4.97-1.22 c0.47-0.28,0.87-0.67,1.17-1.14c-1.13-0.23-2.68-0.89-3.73-2.93c-1.6-3.1,0.25-5.95,3.32-9.12c3.46-3.57,9.21-15.82,3.1-26.74 c-1.15-0.17-17.81,0.08-22.03,0.08c-5.11,0-12.88,0-17.99,0v49.71C139.86,94.62,143.77,93.33,149.38,87.11z" fill="#543930"/>
            <path d="M90.82,87.11c-0.53-0.58-1.11-1.11-1.91-1.13c-1.32-0.03-3.36-0.25-4.97-1.22 c-0.47-0.28-0.87-0.67-1.17-1.14c1.13-0.23,2.75-0.86,3.73-2.93c1.6-3.35-0.67-6.33-3.32-9.12c-4.33-4.57-9.21-15.82-3.1-26.74 c1.15-0.17,17.81,0.08,22.03,0.08c5.11,0,12.88,0,17.99,0v49.71C100.34,94.62,96.43,93.33,90.82,87.11z" fill="#543930"/>
            <path d="M158.88,46.67l0.26,0.5c5.42,10.4-0.55,20.63-3.19,23.36c-2.96,3.05-5.7,6.73-3.58,10.85v0 c0.55,1.07,1.27,1.93,2.13,2.56c-1.18,0.42-2.47,0.52-3.24,0.54c-1.56,0.04-2.56,1.15-2.99,1.63 c-3.4,3.77-5.97,5.63-13.09,6.45c0,0-3.69,1.89-6.24,2.53V96c12.46-0.45,16.47-2.23,21.56-7.88c0.39-0.44,0.65-0.63,0.83-0.64 c1.58-0.04,3.84-0.32,5.7-1.43c0.67-0.4,1.24-0.96,1.67-1.63l1.17-1.85l-2.14-0.43c-1.19-0.24-2.07-0.94-2.69-2.14v0 c-1.04-2.01-0.2-4.01,3.07-7.39c4.05-4.18,9.28-14.94,3.97-25.89c0,0,0-0.02,0.01-0.05H158.88z" fill="#402720"/>
            <path d="M81.38,72.33c2.71,2.86,3.42,4.92,2.33,7.46c-1.27,2.97-3.37,2.78-3.37,2.78l1.17,1.85 c0.42,0.67,1,1.23,1.67,1.63c1.86,1.11,4.13,1.39,5.7,1.43c0.18,0,0.44,0.2,0.83,0.64c5.07,5.62,9.06,7.42,21.39,7.88v-0.95 c-2.15-0.6-6.08-2.48-6.08-2.48c-7.12-0.82-9.69-2.68-13.09-6.45c-0.43-0.48-1.43-1.59-2.99-1.63 c-0.76-0.02-2.86,0.73-4.86-0.81c0,0,7.46-4.33-0.04-12.33c-3.82-4.07-7.8-14.35-3.58-23.92l0.29-0.65l-0.05-0.09h-3.32 c0.02,0.06,0.04,0.11,0.07,0.17C73.09,57.53,77.07,67.79,81.38,72.33z" fill="#402720"/>
          </g>
          <g>
            <g>
              <path d="M92.67,72.26c-5.36,0-9.71-4.67-9.71-10.41s4.36-10.41,9.71-10.41h54.65c5.36,0,9.71,4.67,9.71,10.41 s-4.36,10.41-9.71,10.41H92.67z" fill="#E59600"/>
              <path d="M147.33,52.43c4.8,0,8.71,4.22,8.71,9.41s-3.91,9.41-8.71,9.41h-7.37h-39.91h-7.37 c-4.8,0-8.71-4.22-8.71-9.41s3.91-9.41,8.71-9.41h7.37h39.91H147.33 M147.33,50.43h-7.37h-39.91h-7.37 c-5.89,0-10.71,5.14-10.71,11.41c0,6.28,4.82,11.41,10.71,11.41h7.37h39.91h7.37c5.89,0,10.71-5.14,10.71-11.41 C158.04,55.57,153.22,50.43,147.33,50.43L147.33,50.43z" fill="#D18100"/>
            </g>
            <g>
              <linearGradient id="SVGID_6_" gradientUnits="userSpaceOnUse" x1="120" x2="120" y1="94.5914" y2="12.8253">
                <stop offset="0" style="stop-color:#FFB300"/>
                <stop offset="0.102" style="stop-color:#FFB809"/>
                <stop offset="0.3707" style="stop-color:#FFC21A"/>
                <stop offset="0.6592" style="stop-color:#FFC825"/>
                <stop offset="1" style="stop-color:#FFCA28"/>
              </linearGradient>
              <path d="M120,95.27c-15.66,0-32.52-12.14-32.52-38.81c0-12.38,3.56-23.79,10.02-32.13 c6.04-7.8,14.25-12.27,22.5-12.27s16.45,4.47,22.5,12.27c6.46,8.33,10.02,19.75,10.02,32.13c0,12.09-3.51,22.19-10.14,29.21 C136.52,91.86,128.57,95.27,120,95.27z" fill="url(#SVGID_6_)"/>
              <path d="M120,13.07L120,13.07c7.94,0,15.85,4.33,21.71,11.88c6.33,8.16,9.81,19.35,9.81,31.52 c0,11.83-3.41,21.7-9.87,28.52c-5.67,5.99-13.36,9.29-21.65,9.29c-8.29,0-15.98-3.3-21.65-9.29 c-6.46-6.82-9.87-16.69-9.87-28.52c0-12.16,3.49-23.35,9.81-31.52C104.15,17.4,112.06,13.07,120,13.07 M120,11.07L120,11.07 L120,11.07c-17.4,0-33.52,18.61-33.52,45.39c0,26.64,16.61,39.81,33.52,39.81s33.52-13.17,33.52-39.81 C153.52,29.68,137.4,11.07,120,11.07L120,11.07z" fill="#ED9E00"/>
            </g>
            <g>
              <g>
                <ellipse cx="103.56" cy="58.81" fill="#404040" rx="4.93" ry="5.1"/>
                <ellipse cx="136.44" cy="58.81" fill="#404040" rx="4.93" ry="5.1"/>
                <g>
                  <path d="M110.98,49.82c-0.93-1.23-3.07-3.01-7.23-3.01c-4.16,0-6.31,1.79-7.23,3.01 c-0.41,0.54-0.31,1.17-0.02,1.55c0.26,0.35,1.04,0.68,1.9,0.39c0.86-0.29,2.54-1.16,5.35-1.18 c2.81,0.02,4.49,0.89,5.35,1.18c0.86,0.29,1.64-0.03,1.9-0.39C111.29,50.99,111.39,50.36,110.98,49.82z" fill="#6D4C41"/>
                  <path d="M143.48,49.82c-0.93-1.23-3.07-3.01-7.23-3.01c-4.16,0-6.31,1.79-7.23,3.01 c-0.41,0.54-0.31,1.17-0.02,1.55c0.26,0.35,1.04,0.68,1.9,0.39c0.86-0.29,2.54-1.16,5.35-1.18 c2.81,0.02,4.49,0.89,5.35,1.18c0.86,0.29,1.64-0.03,1.9-0.39C143.79,50.99,143.89,50.36,143.48,49.82z" fill="#6D4C41"/>
                </g>
              </g>
              <path d="M123.86,68.06c-0.11-0.04-0.21-0.07-0.32-0.08h-7.07c-0.11,0.01-0.22,0.04-0.32,0.08 c-0.64,0.26-0.99,0.92-0.69,1.63c0.3,0.71,1.71,2.69,4.55,2.69c2.84,0,4.25-1.99,4.55-2.69 C124.85,68.98,124.5,68.32,123.86,68.06z" fill="#E59600"/>
              <path d="M128.42,76.14c-3.19,1.89-13.63,1.89-16.81,0c-1.83-1.09-3.7,0.58-2.94,2.24 c0.75,1.63,6.45,5.42,11.37,5.42s10.55-3.79,11.3-5.42C132.09,76.72,130.25,75.05,128.42,76.14z" fill="#795548"/>
            </g>
          </g>
          <radialGradient id="SVGID_7_" cx="120.3256" cy="33.4659" gradientTransform="matrix(1 0 0 0.8642 0 4.5445)" gradientUnits="userSpaceOnUse" r="36.3963">
            <stop offset="0" style="stop-color:#6D4C41"/>
            <stop offset="1" style="stop-color:#543930"/>
          </radialGradient>
          <path d="M113,10c-12.26,4.35-13-3-13-3c-6.66,3.32-6,11-6,11s-8.28-0.75-11.17,5.09 c-3.02,6.11-0.36,10.78-0.36,10.78S75.98,38,78.53,45.5c1.69,4.98,6.26,9.67,6.26,9.67c1.08,8.92,3.26,13.27,3.26,13.27 s4.21-18.45,3.81-21.27c0,0,7.76-1.54,16.57-6.58c5.95-3.41,10.02-7.41,16.71-8.91c10.18-2.29,12.45,5.08,12.45,5.08 s9.42-1.81,12.26,11.27c1.17,5.38,1.67,14.37,2.31,19.84c-0.06-0.48,3.5-6.4,4.12-12.4c0.23-2.23,3.61-7.67,4.63-11.72 c2.21-8.8-0.69-15.74-2.06-17.81c-2.5-3.79-8.49-9-12.97-8.24c0.23-4.8-3.55-9.25-8.1-10.78C125.33,2.73,116.66,8.7,113,10z" fill="url(#SVGID_7_)"/>
          <path d="M77.11,45.98c0.08,0.22,0.17,0.45,0.27,0.68l2.28,2.89l1.1-2.79l-0.32-0.63 c-0.21-0.42-0.36-0.77-0.48-1.11c-2.13-6.26,3.11-9.73,3.33-9.88l1.18-0.76l-0.68-1.23c-0.09-0.17-2.21-4.12,0.4-9.38 c2.33-4.71,12.91-3.57,12.91-3.57S95,12.19,99,9c0.55,1.01,3.71,7.94,13.72,3.91c0.78-0.31,1.68-0.76,2.8-1.38 c4.53-2.47,8.11-6.61,20.12-2.81c4.34,1.38,8.92,5.17,8.74,8.89l-0.09,1.87l1.84-0.31c3.6-0.6,9.1,4.01,11.47,7.59 c1.22,1.84,3.98,9.5,1.92,17.71c-0.11,0.45-0.26,0.94-0.46,1.5l-0.22,0.62l0.04,0.08l1.09,1.9l2.11-1.9 c0.05-0.23,0.27-1.14,0.35-1.46c2.24-8.93-0.56-17.42-2.32-20.09c-2.44-3.7-7.91-8.64-12.82-8.97 c-0.79-4.72-5.84-8.72-10.73-10.27c-13.23-4.19-17.84-0.49-22.47,2.03c-0.96,0.53-1.82,0.93-2.36,1.18 c-4.51,2.1-8.06,1.6-9.72-1.09c-1.58-2.55-1.35-4.06-1.35-4.06s-8.12,2.25-6.56,12.69c-2.93,0.12-10.56,1.69-12.6,5.8 c-2.42,4.9-1.56,8.99-0.86,10.95C78.11,35.52,75.09,40.02,77.11,45.98z" fill="#402720"/>
        </g>
        <g id="XMLID_25_">
          <path d="M7.71,107.2c-4,0-7.26-3.22-7.26-7.17v-8.98h16.16v8.98c0,3.95-3.25,7.17-7.26,7.17H7.71z" fill="#E59600"/>
          <path d="M15.62,92.05v7.98c0,3.4-2.81,6.17-6.26,6.17H7.71c-3.45,0-6.26-2.77-6.26-6.17v-7.98h7.08H15.62 M17.62,90.05H8.54h-9.08v9.98c0,4.51,3.7,8.17,8.26,8.17h1.65c4.56,0,8.26-3.66,8.26-8.17V90.05L17.62,90.05z" fill="#D18100"/>
        </g>
        <g>
          <g>
            <path d="M-20.9,87.11c-0.53-0.58-1.11-1.11-1.91-1.13c-1.32-0.03-3.36-0.25-4.97-1.22 c-0.47-0.28-0.87-0.67-1.17-1.14c1.13-0.23,2.68-0.89,3.73-2.93c1.6-3.1-0.25-5.95-3.32-9.12C-32,68-37.75,55.75-31.65,44.83 c1.15-0.17,17.81,0.08,22.03,0.08c5.11,0,12.88,0,17.99,0v49.71C-11.39,94.62-15.29,93.33-20.9,87.11z" fill="#543930"/>
            <path d="M37.66,87.11c0.53-0.58,1.11-1.11,1.91-1.13c1.32-0.03,3.36-0.25,4.97-1.22 c0.47-0.28,0.87-0.67,1.17-1.14c-1.13-0.23-2.75-0.86-3.73-2.93c-1.6-3.35,0.67-6.33,3.32-9.12c4.33-4.57,9.21-15.82,3.1-26.74 c-1.15-0.17-17.81,0.08-22.03,0.08c-5.11,0-12.88,0-17.99,0v49.71C28.14,94.62,32.04,93.33,37.66,87.11z" fill="#543930"/>
            <path d="M-30.4,46.67l-0.26,0.5c-5.42,10.4,0.55,20.63,3.19,23.36c2.96,3.05,5.7,6.73,3.58,10.85v0 c-0.55,1.07-1.27,1.93-2.13,2.56c1.18,0.42,2.47,0.52,3.24,0.54c1.56,0.04,2.56,1.15,2.99,1.63c3.4,3.77,5.97,5.63,13.09,6.45 c0,0,3.69,1.89,6.24,2.53V96c-12.46-0.45-16.47-2.23-21.56-7.88c-0.39-0.44-0.65-0.63-0.83-0.64c-1.58-0.04-3.84-0.32-5.7-1.43 c-0.67-0.4-1.24-0.96-1.67-1.63l-1.17-1.85l2.14-0.43c1.19-0.24,2.07-0.94,2.69-2.14v0c1.04-2.01,0.2-4.01-3.07-7.39 c-4.05-4.18-9.28-14.94-3.97-25.89c0,0,0-0.02-0.01-0.05H-30.4z" fill="#402720"/>
            <path d="M47.1,72.33c-2.71,2.86-3.42,4.92-2.33,7.46c1.27,2.97,3.37,2.78,3.37,2.78l-1.17,1.85 c-0.42,0.67-1,1.23-1.67,1.63c-1.86,1.11-4.13,1.39-5.7,1.43c-0.18,0-0.44,0.2-0.83,0.64c-5.07,5.62-9.06,7.42-21.39,7.88 v-0.95c2.15-0.6,6.08-2.48,6.08-2.48c7.12-0.82,9.69-2.68,13.09-6.45c0.43-0.48,1.43-1.59,2.99-1.63 c0.76-0.02,2.86,0.73,4.86-0.81c0,0-7.46-4.33,0.04-12.33c3.82-4.07,7.8-14.35,3.58-23.92l-0.29-0.65l0.05-0.09h3.32 c-0.02,0.06-0.04,0.11-0.07,0.17C55.38,57.53,51.41,67.79,47.1,72.33z" fill="#402720"/>
          </g>
          <g>
            <g>
              <path d="M-18.85,72.26c-5.36,0-9.71-4.67-9.71-10.41s4.36-10.41,9.71-10.41H35.8c5.36,0,9.71,4.67,9.71,10.41 s-4.36,10.41-9.71,10.41H-18.85z" fill="#E59600"/>
              <path d="M35.8,52.43c4.8,0,8.71,4.22,8.71,9.41s-3.91,9.41-8.71,9.41h-7.37h-39.91h-7.37 c-4.8,0-8.71-4.22-8.71-9.41s3.91-9.41,8.71-9.41h7.37h39.91H35.8 M35.8,50.43h-7.37h-39.91h-7.37 c-5.89,0-10.71,5.14-10.71,11.41c0,6.28,4.82,11.41,10.71,11.41h7.37h39.91h7.37c5.89,0,10.71-5.14,10.71-11.41 C46.51,55.57,41.69,50.43,35.8,50.43L35.8,50.43z" fill="#D18100"/>
            </g>
            <g>
              <linearGradient id="SVGID_8_" gradientTransform="matrix(-1 0 0 1 53.3751 0)" gradientUnits="userSpaceOnUse" x1="44.901" x2="44.901" y1="94.5914" y2="12.8253">
                <stop offset="0" style="stop-color:#FFB300"/>
                <stop offset="0.102" style="stop-color:#FFB809"/>
                <stop offset="0.3707" style="stop-color:#FFC21A"/>
                <stop offset="0.6592" style="stop-color:#FFC825"/>
                <stop offset="1" style="stop-color:#FFCA28"/>
              </linearGradient>
              <path d="M8.47,95.27c-15.66,0-32.52-12.14-32.52-38.81c0-12.38,3.56-23.79,10.02-32.13 c6.05-7.8,14.25-12.27,22.5-12.27s16.45,4.47,22.5,12.27c6.46,8.33,10.02,19.75,10.02,32.13c0,12.09-3.51,22.19-10.14,29.21 C24.99,91.86,17.04,95.27,8.47,95.27z" fill="url(#SVGID_8_)"/>
              <path d="M8.47,13.07L8.47,13.07c7.94,0,15.85,4.33,21.71,11.88c6.33,8.16,9.81,19.35,9.81,31.52 c0,11.83-3.41,21.7-9.87,28.52c-5.67,5.99-13.36,9.29-21.65,9.29c-8.29,0-15.98-3.3-21.65-9.29 c-6.46-6.82-9.87-16.69-9.87-28.52c0-12.16,3.49-23.35,9.81-31.52C-7.38,17.4,0.53,13.07,8.47,13.07 M8.47,11.07L8.47,11.07 L8.47,11.07c-17.4,0-33.52,18.61-33.52,45.39c0,26.64,16.61,39.81,33.52,39.81S41.99,83.1,41.99,56.46 C41.99,29.68,25.88,11.07,8.47,11.07L8.47,11.07z" fill="#ED9E00"/>
            </g>
            <g>
              <g>
                <ellipse cx="24.91" cy="58.81" fill="#404040" rx="4.93" ry="5.1"/>
                <ellipse cx="-7.96" cy="58.81" fill="#404040" rx="4.93" ry="5.1"/>
                <g>
                  <path d="M17.49,49.82c0.93-1.23,3.07-3.01,7.23-3.01s6.31,1.79,7.23,3.01c0.41,0.54,0.31,1.17,0.02,1.55 c-0.26,0.35-1.04,0.68-1.9,0.39c-0.86-0.29-2.54-1.16-5.35-1.18c-2.81,0.02-4.49,0.89-5.35,1.18 c-0.86,0.29-1.64-0.03-1.9-0.39C17.18,50.99,17.08,50.36,17.49,49.82z" fill="#6D4C41"/>
                  <path d="M-15.01,49.82c0.93-1.23,3.07-3.01,7.23-3.01s6.31,1.79,7.23,3.01c0.41,0.54,0.31,1.17,0.02,1.55 c-0.26,0.35-1.04,0.68-1.9,0.39c-0.86-0.29-2.54-1.16-5.35-1.18c-2.81,0.02-4.49,0.89-5.35,1.18 c-0.86,0.29-1.64-0.03-1.9-0.39C-15.31,50.99-15.42,50.36-15.01,49.82z" fill="#6D4C41"/>
                </g>
              </g>
              <path d="M4.61,68.06c0.11-0.04,0.21-0.07,0.32-0.08h7.07c0.11,0.01,0.22,0.04,0.32,0.08 c0.64,0.26,0.99,0.92,0.69,1.63c-0.3,0.71-1.71,2.69-4.55,2.69c-2.84,0-4.25-1.99-4.55-2.69C3.62,68.98,3.97,68.32,4.61,68.06 z" fill="#E59600"/>
              <path d="M0.05,76.14c3.19,1.89,13.63,1.89,16.81,0c1.83-1.09,3.7,0.58,2.94,2.24 c-0.75,1.63-6.45,5.42-11.37,5.42s-10.55-3.79-11.3-5.42C-3.62,76.72-1.77,75.05,0.05,76.14z" fill="#795548"/>
            </g>
          </g>
          <radialGradient id="SVGID_9_" cx="45.2269" cy="33.4659" gradientTransform="matrix(-1 0 0 0.8642 53.3751 4.5445)" gradientUnits="userSpaceOnUse" r="36.3963">
            <stop offset="0" style="stop-color:#6D4C41"/>
            <stop offset="1" style="stop-color:#543930"/>
          </radialGradient>
          <path d="M15.47,10c12.26,4.35,13-3,13-3c6.66,3.32,6,11,6,11s8.28-0.75,11.17,5.09 C48.66,29.2,46,33.88,46,33.88S52.49,38,49.94,45.5c-1.69,4.98-6.26,9.67-6.26,9.67c-1.08,8.92-3.26,13.27-3.26,13.27 s-4.21-18.45-3.81-21.27c0,0-7.76-1.54-16.57-6.58c-5.95-3.41-10.02-7.41-16.71-8.91c-10.18-2.29-12.45,5.08-12.45,5.08 s-9.42-1.81-12.26,11.27c-1.17,5.38-1.67,14.37-2.31,19.84c0.06-0.48-3.5-6.4-4.12-12.4c-0.23-2.23-3.61-7.67-4.63-11.72 c-2.21-8.8,0.69-15.74,2.06-17.81c2.5-3.79,8.49-9,12.97-8.24c-0.23-4.8,3.55-9.25,8.1-10.78C3.14,2.73,11.81,8.7,15.47,10z" fill="url(#SVGID_9_)"/>
          <path d="M51.36,45.98c-0.08,0.22-0.17,0.45-0.27,0.68l-2.28,2.89l-1.1-2.79l0.32-0.63 c0.21-0.42,0.36-0.77,0.48-1.11c2.13-6.26-3.11-9.73-3.33-9.88l-1.18-0.76l0.68-1.23c0.09-0.17,2.21-4.12-0.4-9.38 c-2.33-4.71-12.91-3.57-12.91-3.57s2.08-8-1.92-11.19c-0.55,1.01-3.71,7.94-13.72,3.91c-0.78-0.31-1.68-0.76-2.8-1.38 C8.42,9.07,4.84,4.93-7.17,8.73c-4.34,1.38-8.92,5.17-8.74,8.89l0.09,1.87l-1.84-0.31c-3.6-0.6-9.1,4.01-11.47,7.59 c-1.22,1.84-3.98,9.5-1.92,17.71c0.11,0.45,0.26,0.94,0.46,1.5l0.22,0.62l-0.04,0.08l-1.09,1.9l-2.11-1.9 c-0.05-0.23-0.27-1.14-0.35-1.46c-2.24-8.93,0.56-17.42,2.32-20.09c2.44-3.7,7.91-8.64,12.82-8.97 c0.79-4.72,5.84-8.72,10.73-10.27C5.15,1.68,9.76,5.38,14.39,7.91c0.96,0.53,1.82,0.93,2.36,1.18c4.51,2.1,8.06,1.6,9.72-1.09 c1.58-2.55,1.35-4.06,1.35-4.06s8.12,2.25,6.56,12.69c2.93,0.12,10.56,1.69,12.6,5.8c2.42,4.9,1.56,8.99,0.86,10.95 C50.37,35.52,53.39,40.02,51.36,45.98z" fill="#402720"/>
        </g>
      </g>
      <g id="XMLID_15_" clip-path="url(#SVGID_2_)">
        <g id="XMLID_23_">
          <linearGradient id="SVGID_10_" gradientUnits="userSpaceOnUse" x1="64.2197" x2="64.2197" y1="-4.3801" y2="54.6032">
            <stop offset="0" style="stop-color:#F48FB1"/>
            <stop offset="1" style="stop-color:#EC407A"/>
          </linearGradient>
          <path d="M64.22,70.89c-0.66,0-1.28-0.26-1.75-0.73c-1.16-1.17-2.64-2.66-4.33-4.36 c-8.42-8.45-22.51-22.58-26.83-29c-2.03-3.03-3.26-5.96-3.76-8.95c-0.55-3.29-0.52-7.96,0.77-10.97 C31.37,9.75,37.53,5.5,44.79,5.5l0.94,0.02c2.79,0.05,5.6,0.65,8.37,1.81c1.88,0.79,3.4,1.87,5,3.01 c0.81,0.58,1.66,1.18,2.57,1.76c0.74,0.47,1.62,0.72,2.55,0.72c0.93,0,1.8-0.25,2.54-0.72c0.91-0.58,1.74-1.17,2.55-1.75 c1.61-1.15,3.14-2.24,5.03-3.03c2.76-1.15,5.57-1.76,8.35-1.8l0.96-0.02c7.26,0,13.42,4.25,16.47,11.38 c1.29,3.01,1.32,7.68,0.77,10.97c-0.51,3.02-1.75,5.95-3.76,8.94c-4.31,6.43-18.43,20.58-26.86,29.03 c-1.68,1.69-3.15,3.16-4.3,4.33C65.5,70.63,64.88,70.89,64.22,70.89z" fill="url(#SVGID_10_)"/>
          <path d="M44.79,7l0.06,0c0.15,0,0.3,0.01,0.45,0.01c0.13,0,0.26,0,0.42,0.01c2.58,0.04,5.21,0.61,7.79,1.69 c1.73,0.73,3.11,1.71,4.71,2.85c0.83,0.59,1.69,1.2,2.64,1.81c0.98,0.62,2.14,0.95,3.35,0.95c1.21,0,2.37-0.33,3.35-0.95 c0.94-0.6,1.79-1.2,2.61-1.79c1.61-1.15,3-2.14,4.73-2.87c2.59-1.08,5.21-1.65,7.83-1.69c0.13,0,0.26-0.01,0.39-0.01 c0.15,0,0.3,0,0.45-0.01l0.06,0c6.74,0,12.24,3.82,15.09,10.47c1.16,2.72,1.16,7.16,0.67,10.12c-0.48,2.81-1.63,5.55-3.53,8.37 c-4.23,6.3-18.27,20.38-26.67,28.8c-1.69,1.69-3.16,3.17-4.31,4.34c-0.23,0.24-0.5,0.29-0.68,0.29c-0.18,0-0.44-0.05-0.68-0.29 c-1.16-1.17-2.64-2.66-4.33-4.36c-8.39-8.41-22.42-22.48-26.65-28.78c-1.91-2.86-3.06-5.59-3.53-8.36 c-0.5-2.98-0.5-7.42,0.67-10.14C32.55,10.82,38.05,7,44.79,7 M83.65,4c-0.04,0-0.07,0-0.11,0c-0.3,0.01-0.58,0.01-0.88,0.02 c-3.08,0.05-6.07,0.74-8.9,1.92c-3.03,1.27-5.11,3.18-7.8,4.89c-0.51,0.32-1.12,0.48-1.74,0.48c-0.62,0-1.24-0.16-1.74-0.48 c-2.7-1.71-4.77-3.62-7.8-4.89c-2.83-1.18-5.82-1.87-8.9-1.92C45.49,4.01,45.19,4.01,44.9,4c-0.04,0-0.07,0-0.11,0 c-7.83,0-14.51,4.48-17.85,12.29c-1.42,3.32-1.45,8.32-0.87,11.81c0.58,3.47,2.04,6.61,3.99,9.54 c5.26,7.82,24.32,26.44,31.33,33.57c0.77,0.79,1.79,1.18,2.81,1.18c1.02,0,2.04-0.39,2.81-1.18 c7.01-7.13,26.08-25.75,31.33-33.57c1.97-2.92,3.41-6.06,4-9.54c0.58-3.49,0.56-8.49-0.87-11.81C98.15,8.48,91.47,4,83.65,4 L83.65,4z" fill="#D92E67"/>
        </g>
      </g>
    </g>
  </g>
</svg>