<svg viewBox="0 0 128 128" xmlns="http://www.w3.org/2000/svg">
  <defs>
    <radialGradient id="SVGID_1_" cx="20.1027" cy="100.1742" gradientUnits="userSpaceOnUse" r="95.9397">
      <stop offset="0.4677" stop-color="#8D5E50"/>
      <stop offset="0.6753" stop-color="#5A7439"/>
      <stop offset="0.8209" stop-color="#34642E"/>
      <stop offset="1" stop-color="#315427"/>
    </radialGradient>
  </defs>
  <path d="M52.83,29.41 C52.83,29.41 59.78,25.7 62.87,20.17 C65.96,14.64 67,8.76 62.26,6.32 C56.59,3.4 50.43,10.54 50.43,10.54 C50.43,10.54 50.99,6.08 46.86,5.61 C37.65,4.56 36.25,15.32 36.25,15.32 C36.25,15.32 33.91,13.36 30.99,14.38 C27.52,15.6 26.98,20.19 27.14,22.45 C27.37,25.69 29.35,29.86 29.35,29.86 L52.83,29.41 Z" fill="#A42E1A"/>
  <path d="M66.67,95.11 L42.67,89.9 C42.67,89.9 43.59,98.49 42.95,99.47 C41.71,101.4 34.86,101.37 30.91,102.29 C27.2,103.15 22.18,108.5 25.77,112.92 C29.15,117.07 32.74,109.47 34.64,109.61 C36.54,109.75 36.94,113.58 39.07,113.48 C42.17,113.34 40.34,109.05 41.82,107.5 C43.3,105.95 48.86,106.23 49.99,104.4 C51.12,102.57 50.69,96.45 50.69,96.45 L57.87,98.98 C57.87,98.98 61.95,103.84 61.67,107.85 C61.39,111.86 59.28,114.42 57.87,114.75 C52.94,115.88 46.47,117.28 46.89,120.24 C47.32,123.25 52.93,121.79 61.18,121.79 C69.2,121.79 73.36,122.78 73.99,119.4 C74.62,116.02 68.57,115.95 68.5,114.75 C68.43,113.55 70.4,108.13 70.05,105.67 C69.7,103.2 66.67,95.11 66.67,95.11 Z" fill="#FFB70C"/>
  <path d="M55.22,50.71 L29.64,53.15 C29.64,53.15 23.66,57.94 22.65,67.13 C22.06,72.51 24.17,80.72 31.1,87.4 C36.9,92.98 44.71,103.07 60.19,101.48 C75.67,99.89 86.04,86.81 89.47,79.75 C92.75,72.99 94.07,65.25 94.91,65.16 C95.75,65.07 103.6,76.45 106.27,75.86 C107.96,75.48 107.91,70.22 107.49,67.13 C106.83,62.34 105.05,59.34 105.05,59.34 C105.05,59.34 112.84,65.07 113.97,63.42 C114.82,62.19 114.16,56.15 112.98,51.59 C111.69,46.59 109.65,43.47 109.65,43.47 C109.65,43.47 117.91,51.68 118.61,49.34 C118.94,48.24 119.22,32.31 105.33,28.08 C91.44,23.85 81.44,36.67 79.05,42.72 C76.48,49.23 74.4,59.75 74.4,59.75 L55.22,50.71 Z" fill="url(#SVGID_1_)"/>
  <path d="M41.89,22.84 C35.05,23.16 29.5,29.69 29.5,29.69 C29.5,29.69 23.47,30.07 21.52,30.72 C18.66,31.68 16.64,33.92 16.45,35.04 C15.98,37.81 26.77,38.98 26.77,38.98 L27.61,54.94 C27.61,54.94 34.27,60.76 35.02,60.85 C35.77,60.94 40.84,54.66 41.5,54.56 C42.16,54.46 49.29,61.88 49.29,61.88 L67.99,55.83 C67.99,55.83 65.39,51.04 63.49,47.74 C61.61,44.46 60.53,33.94 54.83,27.96 C51.09,24.01 45.93,22.65 41.89,22.84 Z" fill="#FFB903"/>
  <path d="M31.85,36.07 C31.85,36.07 27.3,36.1 24.72,35.98 C22.75,35.89 16.46,35.04 16.46,35.04 C16.46,35.04 16.23,35.7 16.84,35.98 C17.45,36.26 23.03,37.67 24.96,37.81 C26.88,37.95 32.66,38.19 32.66,38.19 L33.13,37.25 L31.85,36.07 Z" fill="#FF732D"/>
  <path d="M32.22,38.93 C32.22,38.93 27.43,39.12 26.68,39.31 C25.93,39.5 19.41,43.11 16.97,46.96 C14.53,50.81 14.06,56.86 17.44,59.16 C20.34,61.13 26.31,60.1 29.41,54.33 C32.02,49.47 33.96,44.8 33.96,44.8 C33.96,44.8 44.75,44.61 45.18,35.56 C45.6,26.5 37.2,25.61 34.15,26.32 C31.73,26.88 29.27,29.65 29.27,29.65 C29.27,29.65 31.48,32.84 31.71,34.34 C31.94,35.84 32.22,38.93 32.22,38.93 Z" fill="#FF6157"/>
  <path d="M39.7,35.64 C39.19,37.82 37.43,39.35 35.84,38.98 C34.25,38.61 33.36,36.19 33.87,34.01 C34.38,31.83 35.97,30.66 37.58,30.96 C39.51,31.32 40.21,33.46 39.7,35.64 Z" fill="#29292A"/>
  <path d="M59.63,50.34 C59.63,50.34 46.47,56.25 43.58,64.7 C40.69,73.15 43.18,82.45 50.41,86.94 C58.22,91.8 68.52,90.75 75.12,88 C80.68,85.68 82.44,82.58 82.09,80.4 C81.67,77.82 80.4,76.95 80.4,76.95 C80.4,76.95 84.55,74.2 84.48,71.11 C84.41,68.01 80.68,67.17 80.68,67.17 C80.68,67.17 83.99,65.13 83.71,62.1 C83.43,59.07 78.75,57 74.07,56.47 C68.43,55.83 59.63,50.34 59.63,50.34 Z" fill="#D27856"/>
</svg>