<svg viewBox="0 0 128 128" xmlns="http://www.w3.org/2000/svg">
  <defs/>
  <path d="M113.97,96.23 L37.1,98.91 C37.1,98.91 34.1,112.72 34.85,114.96 C35.13,115.8 44.7,106.51 44.7,106.51 C44.7,106.51 56.67,121.29 57.51,121.15 C58.35,121.01 67.51,111.72 67.51,111.72 C67.51,111.72 81.17,123.12 82.15,123.12 C83.13,123.12 91.44,111.01 91.44,111.01 C91.44,111.01 102,118.61 102.7,118.47 C103.4,118.33 110.58,106.93 110.58,106.93 C110.58,106.93 121.8,110.26 122.92,109.98 C124.06,109.7 117.91,97.78 113.97,96.23 Z" fill="#B1B1B1"/>
  <path d="M33.16,54.98 L32.5,37.29 L44.47,25.75 L71.03,26.13 C71.03,26.13 78.07,32.47 79.9,33.59 C81.73,34.72 88.14,37.97 99.73,52.18 C105.9,59.75 110.88,72.44 112.28,75.82 C113.68,79.2 123.12,108.9 123.12,109.75 C123.12,110.6 111.58,100.32 110.87,100.88 C110.17,101.44 103.41,114.39 102.56,114.68 C101.72,114.96 92.28,105.53 91.3,105.95 C90.32,106.37 82.57,119.75 82.01,119.75 C81.45,119.75 69.91,105.38 68.5,105.1 C67.09,104.82 58.5,116.78 57.38,116.78 C56.25,116.78 45.98,100.17 44.71,100.17 C43.44,100.17 35.51,113.22 34.81,113.78 C34.11,114.34 32.6,93.27 32.32,90.74 C32.04,88.21 33.16,54.98 33.16,54.98 Z" fill="#E0E0E0"/>
  <path d="M59.44,83.06 C58.37,83.06 57.38,82.37 57.05,81.29 L55.27,75.47 C54.87,74.15 55.61,72.75 56.93,72.35 C58.25,71.95 59.65,72.69 60.05,74.01 L61.83,79.83 C62.23,81.15 61.49,82.55 60.17,82.95 C59.93,83.02 59.68,83.06 59.44,83.06 Z" fill="#FFFFFF"/>
  <path d="M79.81,89.63 C78.83,89.63 77.9,89.05 77.5,88.09 L74.68,81.33 C74.15,80.05 74.75,78.59 76.03,78.06 C77.31,77.53 78.77,78.13 79.3,79.41 L82.12,86.17 C82.65,87.45 82.05,88.91 80.77,89.44 C80.46,89.57 80.13,89.63 79.81,89.63 Z" fill="#FFFFFF"/>
  <path d="M93.32,81.18 C92.38,81.18 91.49,80.65 91.06,79.75 L88.53,74.4 C87.94,73.15 88.47,71.66 89.72,71.07 C90.97,70.48 92.46,71.01 93.05,72.26 L95.58,77.61 C96.17,78.86 95.64,80.35 94.39,80.94 C94.05,81.1 93.68,81.18 93.32,81.18 Z" fill="#FFFFFF"/>
  <path d="M77.18,63.91 C76.39,63.91 75.61,63.53 75.12,62.83 L70.52,56.17 C69.74,55.03 70.02,53.48 71.16,52.69 C72.3,51.9 73.85,52.19 74.64,53.33 L79.24,59.99 C80.02,61.13 79.74,62.68 78.6,63.47 C78.17,63.77 77.67,63.91 77.18,63.91 Z" fill="#FFFFFF"/>
  <path d="M44.43,69.48 C47.43,69.71 73.57,65.44 64.23,44.8 C57.01,28.83 36.73,42.83 32.98,48.37 C32.3,49.38 31.06,65.26 31.06,65.26 C31.06,65.26 22.04,78.21 25,85.39 C27.96,92.57 36.74,93.93 42.03,87.78 C46.4,82.72 44.85,71.88 44.43,69.48 Z" fill="#FF615E"/>
  <path d="M35.13,38.23 C37.21,35.01 44,28.23 54.7,27.81 C65.4,27.39 70.89,29.5 72.86,30.34 C74.83,31.18 80.46,34 80.46,34 C80.46,34 91.04,29 90.62,18.02 C90.2,7.04 78.92,6.27 74.55,8.67 C70.18,11.07 69.48,14.58 66.24,14.72 C63,14.86 60.47,6.98 50.33,10.92 C41.7,14.28 44.48,22.55 41.32,24.58 C37.8,26.83 30.2,22.05 24.85,29.51 C19.5,36.97 26.12,43.73 27.52,44.86 C28.93,45.99 33.57,48.57 33.57,48.57 C33.57,48.57 32.04,43.02 35.13,38.23 Z" fill="#FF615E"/>
  <path d="M41.42,65.07 C42.72,64.38 41.7,58.78 38.51,54.37 C35.32,49.96 32.88,48.08 32.88,48.08 C32.88,48.08 21.34,50.71 13.92,54.84 C9.78,57.15 4.68,62.21 5.24,64.08 C5.8,65.96 16.43,65.47 25.37,65.21 C34.85,64.93 39.83,65.92 41.42,65.07 Z" fill="#FBBB02"/>
  <path d="M5.19,63.34 C5.19,63.34 15.94,62.59 20.77,61.93 C25.6,61.27 28.73,60.82 30.58,60.38 C32.55,59.91 36.77,58.69 36.77,58.69 L37.05,60.66 C37.05,60.66 26.82,62.96 20.91,63.48 C15.71,63.93 7.21,64.56 6.5,64.56 C5.79,64.56 5.37,64.23 5.19,64 C5.01,63.77 5.19,63.34 5.19,63.34 Z" fill="#FE5F12"/>
  <path d="M39.45,59.51 A1.62 1.67 0 1 1 36.21,59.51 A1.62 1.67 0 1 1 39.45,59.51 Z" fill="#FE5F12"/>
  <path d="M56.15,54.6 C55.39,58.02 52.31,60.38 48.37,58.97 C45.44,57.92 44.36,54.37 45.47,51.05 C46.58,47.73 49.76,46.2 52.81,46.82 C55.88,47.43 56.91,51.18 56.15,54.6 Z" fill="#2C2B2C"/>
</svg>