<svg viewBox="0 0 128 128" xmlns="http://www.w3.org/2000/svg">
  <defs/>
  <path d="M64.73,20 C19.51,20 5,61.27 5,61.27 C5,61.27 17.42,101.12 64.73,101.12 C72.07,101.18 79.37,100.1 86.37,97.91 C92.37,106.4 105.15,110.38 111.67,111.24 L111.94,111.24 C113.04,111.22 113.93,110.31 113.91,109.21 C113.9,108.83 113.79,108.46 113.58,108.14 C110.65,103.83 106,96.14 104.36,88.47 C113.39,81.45 120.25,72.02 124.14,61.26 C124.14,61.26 109.95,20 64.73,20 Z" fill="#FFFFFF" opacity="0.2"/>
  <path d="M104.36,88.48 C113.39,81.46 120.25,72.03 124.14,61.27 C124.14,61.27 109.95,20 64.73,20 C19.51,20 5,61.27 5,61.27 C5,61.27 17.42,101.12 64.73,101.12 C72.07,101.18 79.37,100.1 86.37,97.91 C92.37,106.4 105.15,110.38 111.67,111.24 C112.77,111.37 113.76,110.59 113.9,109.5 C113.96,109.03 113.85,108.55 113.58,108.15 C110.65,103.84 106,96.12 104.36,88.48 Z" fill="#FFFFFF"/>
  <path d="M93.48,60.54 A28.76 28.76 0 1 1 35.96,60.54 A28.76 28.76 0 1 1 93.48,60.54 Z" fill="#3F474C"/>
  <path d="M80.73,60.54 A16.01 16.01 0 1 1 48.71,60.54 A16.01 16.01 0 1 1 80.73,60.54 Z" fill="#231F20"/>
  <path d="M88.72,56.34 A6.8 6.8 0 1 1 75.12,56.34 A6.8 6.8 0 1 1 88.72,56.34 Z" fill="#F5F8FA"/>
  <path d="M107.727,89.627 Q109.82,97.283 116.067,106.472 Q117.113,108.022 116.876,109.882 Q116.613,111.923 114.994,113.19 Q113.369,114.462 111.278,114.214 Q104.528,113.324 97.584,110.167 Q89.69,106.579 85.262,101.369 Q75.218,104.206 64.73,104.12 Q33.83,104.12 14.9,83.208 Q5.437,72.756 2.136,62.163 Q1.84,61.213 2.17,60.275 Q5.996,49.392 15.677,38.629 Q35.131,17 64.73,17 Q94.337,17 113.632,38.638 Q123.233,49.406 126.977,60.295 Q127.321,61.295 126.961,62.29 Q121.049,78.642 107.727,89.627 Z M102.519,86.112 Q115.241,76.221 120.947,61.251 Q117.503,51.995 109.153,42.632 Q91.648,23 64.73,23 Q37.804,23 20.138,42.641 Q11.687,52.037 8.174,61.324 Q11.207,70.189 19.348,79.182 Q36.492,98.12 64.73,98.12 Q75.374,98.207 85.474,95.047 Q87.559,94.395 88.82,96.179 Q92.375,101.209 100.066,104.705 Q105.027,106.96 109.814,107.897 Q103.289,97.785 101.427,89.11 Q101.031,87.268 102.519,86.112 Z" fill="#000000"/>
</svg>