<svg viewBox="0 0 128 128" xmlns="http://www.w3.org/2000/svg">
  <g>
    <path d="M94.77,5.4c-0.1-0.82-0.76-1.48-1.66-1.39C88.47,4.46,74.77,4.86,64,4.95s-24.47-0.5-29.11-0.94 C34,3.92,33.33,4.58,33.23,5.4c-0.77,6.29-0.43,27.8-0.43,27.8s0.03,29.74,0.03,40.44c0,10.7,1.98,46.94,1.98,46.94 c6.62,4.65,18.83,2.8,22.12-0.15c0,0,1.55-31.73,1.96-44.02c0.5-15.18,2.96-35.78,3.24-37.14c0.23-1.17,1.1-1.51,1.87-1.51 c0.77,0,1.64,0.34,1.87,1.51c0.27,1.36,2.73,21.96,3.24,37.14c0.41,12.29,1.96,44.02,1.96,44.02c3.29,2.95,15.5,4.8,22.12,0.15 c0,0,1.98-36.23,1.98-46.94c0-10.7,0.03-40.44,0.03-40.44S95.54,11.7,94.77,5.4z" fill="#174DA1"/>
    <radialGradient id="SVGID_1_" cx="86.0991" cy="21.4032" gradientUnits="userSpaceOnUse" r="9.6713">
      <stop offset="0" stop-color="#1976D2"/>
      <stop offset="0.9486" stop-color="#1976D2" stop-opacity="0.0514"/>
      <stop offset="1" stop-color="#1976D2" stop-opacity="0"/>
    </radialGradient>
    <path d="M91.4,24.04c-1.24,0.07-4-0.33-6.96-3.11c-3.4-3.19-3.16-7.87-3.16-7.87l0.8-0.25 c0.01,0.04,0.73,4.45,3.88,7.4c3.5,3.28,6.53,2.84,6.57,2.83c0,0,0.76-0.11,1.26-0.35S93.66,23.92,91.4,24.04z" fill="url(#SVGID_1_)"/>
    <radialGradient id="SVGID_2_" cx="60.7201" cy="21.4032" gradientTransform="matrix(-1 0 0 1 102.6787 0)" gradientUnits="userSpaceOnUse" r="9.6713">
      <stop offset="0" stop-color="#1976D2"/>
      <stop offset="0.9486" stop-color="#1976D2" stop-opacity="0.0514"/>
      <stop offset="1" stop-color="#1976D2" stop-opacity="0"/>
    </radialGradient>
    <path d="M36.66,24.04c1.24,0.07,4-0.33,6.96-3.11c3.4-3.19,3.16-7.87,3.16-7.87l-0.8-0.25 c-0.01,0.04-0.73,4.45-3.88,7.4c-3.5,3.28-6.53,2.84-6.57,2.83c0,0-0.76-0.11-1.26-0.35C33.76,22.46,34.4,23.92,36.66,24.04z" fill="url(#SVGID_2_)"/>
    <path d="M63.35,14.03c-17.04,0-30.47-2.72-30.47-2.72l0.03-1.13c0,0,13.65,1.95,30.44,1.95 c16.84,0,30.03-2.03,31.72-2.29l0.04,1.18C94.98,11.03,80.36,14.03,63.35,14.03z" fill="#10356E"/>
    <radialGradient id="SVGID_3_" cx="93.2062" cy="12.5557" gradientTransform="matrix(0.9441 -0.3297 0.551 1.5776 -1.7055 23.4811)" gradientUnits="userSpaceOnUse" r="11.2084">
      <stop offset="0.4998" stop-color="#10356E" stop-opacity="0"/>
      <stop offset="0.91" stop-color="#10356E"/>
    </radialGradient>
    <path d="M94.51,21.23l0.6-10.47l-12.96,1.73c0,0,0.67,5.54,4.65,8.46c0.9,0.66,1.9,1.19,2.86,1.61 C91.8,23.48,94.32,23.54,94.51,21.23z" fill="url(#SVGID_3_)"/>
    <radialGradient id="SVGID_4_" cx="50.8542" cy="12.5557" gradientTransform="matrix(-0.9441 -0.3297 -0.551 1.5776 89.7163 9.5164)" gradientUnits="userSpaceOnUse" r="11.2084">
      <stop offset="0.4998" stop-color="#10356E" stop-opacity="0"/>
      <stop offset="0.91" stop-color="#10356E"/>
    </radialGradient>
    <path d="M33.49,21.23l-0.6-10.47l12.96,1.73c0,0-0.67,5.54-4.65,8.46c-0.9,0.66-1.9,1.19-2.86,1.61 C36.2,23.48,33.67,23.54,33.49,21.23z" fill="url(#SVGID_4_)"/>
    <path d="M68.59,7.43c0.17,0.01,0.34,0.03,0.47,0.13c0.11,0.08,0.17,0.21,0.23,0.34 c0.11,0.26,0.18,0.52,0.22,0.8c0.01,0.07,0.02,0.14-0.02,0.2C69.45,8.96,69.37,8.98,69.3,9c-1.46,0.37-2.97,0.59-4.47,0.65 c-0.19,0.01-0.39,0.01-0.54-0.1c-0.14-0.11-0.2-0.29-0.23-0.46C63.6,6.56,67.03,7.32,68.59,7.43z" fill="#10356E"/>
    <g>
      <linearGradient id="SVGID_5_" gradientUnits="userSpaceOnUse" x1="63.5832" x2="63.9998" y1="8.9941" y2="28.0854">
        <stop offset="0" stop-color="#1976D2"/>
        <stop offset="0.9486" stop-color="#1976D2" stop-opacity="0.0514"/>
        <stop offset="1" stop-color="#1976D2" stop-opacity="0"/>
      </linearGradient>
      <path d="M59.49,27.75c-0.19-1.89-0.41-19.12-0.31-20.31c0.14-1.72,0.5-2.36,1.55-2.49 c2.33-0.28,3.45-0.2,4.58-0.23c0.46,0.03,2.35,0.17,2.76,0.13C60,5.64,60.81,5.76,60.9,11.4c0.08,4.71,0.08,16.18,0.14,19.75 C61.06,31.84,59.84,31.28,59.49,27.75z" fill="url(#SVGID_5_)"/>
    </g>
    <circle cx="64.32" cy="8.74" r="2.18" fill="#94D1E0"/>
    <radialGradient id="SVGID_6_" cx="47.0498" cy="56.0625" gradientTransform="matrix(1.0247 0.0826 -0.1994 2.4732 8.8092 -86.828)" gradientUnits="userSpaceOnUse" r="10.2974">
      <stop offset="0" stop-color="#BBDEFB" stop-opacity="0.3"/>
      <stop offset="1" stop-color="#BBDEFB" stop-opacity="0"/>
    </radialGradient>
    <path d="M56.17,56.54c-1.17,14.54-6.75,25.96-12.45,25.5s-9.38-12.62-8.2-27.17 c1.17-14.54,6.75-25.96,12.45-25.5S57.34,42,56.17,56.54z" fill="url(#SVGID_6_)"/>
    <radialGradient id="SVGID_7_" cx="86.5649" cy="52.7113" gradientTransform="matrix(-1.0247 0.0826 0.1994 2.4732 160.3497 -81.8039)" gradientUnits="userSpaceOnUse" r="10.2974">
      <stop offset="0" stop-color="#BBDEFB" stop-opacity="0.3"/>
      <stop offset="1" stop-color="#BBDEFB" stop-opacity="0"/>
    </radialGradient>
    <path d="M71.83,56.54c1.17,14.54,6.75,25.96,12.45,25.5s9.38-12.62,8.2-27.17 c-1.17-14.54-6.75-25.96-12.45-25.5C74.33,29.84,70.66,42,71.83,56.54z" fill="url(#SVGID_7_)"/>
    <g>
      <linearGradient id="SVGID_8_" gradientUnits="userSpaceOnUse" x1="87.1466" x2="73.8174" y1="27.3107" y2="32.2166">
        <stop offset="0" stop-color="#10356E" stop-opacity="0"/>
        <stop offset="1" stop-color="#10356E"/>
      </linearGradient>
      <path d="M70.86,33.2c0,0,3.04-2.82,7.9-4.38c5.15-1.65,8.81-1.29,8.81-1.29s-3.36,2.4-7.69,4.04 C75.55,33.23,70.86,33.2,70.86,33.2z" fill="url(#SVGID_8_)"/>
    </g>
    <g>
      <linearGradient id="SVGID_9_" gradientTransform="matrix(0.9933 0.1154 -0.1154 0.9933 3.7469 -5.5581)" gradientUnits="userSpaceOnUse" x1="41.5314" x2="54.3052" y1="26.0452" y2="30.5808">
        <stop offset="0" stop-color="#10356E" stop-opacity="0"/>
        <stop offset="1" stop-color="#10356E"/>
      </linearGradient>
      <path d="M49.98,30.41c-4.21-1.9-6.77-4.85-6.77-4.85s2.89,0.25,7.16,2.28s6.95,4.98,7.38,5.37 C57.46,32.98,54.19,32.31,49.98,30.41z" fill="url(#SVGID_9_)"/>
    </g>
    <linearGradient id="SVGID_10_" gradientTransform="matrix(0.9887 -0.1496 0.1496 0.9887 -4.3831 7.1162)" gradientUnits="userSpaceOnUse" x1="34.1153" x2="50.7768" y1="28.4282" y2="36.2035">
      <stop offset="0" stop-color="#10356E" stop-opacity="0"/>
      <stop offset="1" stop-color="#10356E"/>
    </linearGradient>
    <path d="M43.72,35.64c-4.85-1.59-7.44-7.2-7.65-7.34c5.67,3.86,12.12,6.1,18.88,7.23 C54.95,35.53,49.45,37.52,43.72,35.64z" fill="url(#SVGID_10_)"/>
    <path d="M63.17,31.27c-0.52,0.29-1.01,0.13-0.38-0.47c0.64-0.6,2.5-2.68,2.94-3.29 c0.45-0.61,0.53-1.67,0.53-2.99V12.89h1.51v11.62c0,1.63,0.28,3.22-1.13,4.3C65.55,29.64,63.69,30.97,63.17,31.27z" fill="#10356E"/>
    <path d="M45.08,116.87c-4.81,0-10.55-1.6-10.55-1.6l-0.02-1.79c0,0,5.87,1.12,10.24,1.06 c5.25-0.08,12.48-1.29,12.48-1.29l-0.02,1.67C57.2,114.93,49.97,116.87,45.08,116.87z" fill="#10356E"/>
    <path d="M57.89,121.44c0,0.45-0.3,0.84-0.74,0.94c-1.9,0.46-7.18,1.62-12.08,1.62 c-4.81,0-9.25-1.12-10.93-1.59c-0.42-0.12-0.71-0.5-0.71-0.93v-5.7c0-0.66,0.44-1.17,1.06-0.97c1.86,0.61,5.79,1.44,10.16,1.38 c5.25-0.08,9.03-0.62,12.56-1.61c0.58-0.16,0.67,0.38,0.67,0.98V121.44z" fill="#64B5F6"/>
    <path d="M82.88,116.87c4.81,0,10.55-1.6,10.55-1.6l0.02-1.79c0,0-5.87,1.12-10.24,1.06 c-5.25-0.08-12.48-1.29-12.48-1.29l0.02,1.67C70.75,114.93,77.98,116.87,82.88,116.87z" fill="#10356E"/>
    <path d="M70.06,121.44c0,0.45,0.3,0.84,0.74,0.94c1.9,0.46,7.18,1.62,12.08,1.62 c4.81,0,9.25-1.12,10.93-1.59c0.42-0.12,0.71-0.5,0.71-0.93v-5.7c0-0.66-0.44-1.17-1.06-0.97c-1.86,0.61-5.79,1.44-10.16,1.38 c-5.25-0.08-9.03-0.62-12.56-1.61c-0.58-0.16-0.67,0.38-0.67,0.98V121.44z" fill="#64B5F6"/>
  </g>
</svg>