<svg viewBox="0 0 128 128" xmlns="http://www.w3.org/2000/svg">
  <defs/>
  <path d="M39.64,89.66 L27.06,90.22 C27.06,90.22 28.94,110.87 29.22,112.93 C29.5,114.99 30.25,119.03 35.88,118.94 C41.51,118.85 41.32,113.21 41.23,111.9 C41.14,110.59 40.67,101.95 40.67,101.95 L49.49,104.11 C49.49,104.11 49.58,116.69 49.68,118.47 C49.78,120.25 50.99,124.01 56.25,123.82 C61.51,123.63 61.98,119.5 61.98,118.47 C61.98,117.44 62.64,104.02 62.64,104.02 L73.53,103.08 C73.53,103.08 73.38,107.02 73.53,109.74 C73.62,111.43 76.25,114.24 80.94,113.96 C85.63,113.68 87.32,111.43 87.23,110.11 C87.14,108.8 87.61,98.19 87.61,98.19 L92.68,98.75 C92.68,98.75 92.3,110.39 92.4,111.33 C92.49,112.27 94.56,115.65 99.72,115.55 C104.88,115.46 106.18,113.1 106.29,111.98 C106.48,110.01 107.23,98.75 107.51,95.93 C107.79,93.11 107.89,82.23 107.89,82.23 L39.64,89.66 Z" fill="#B1B1B1"/>
  <path d="M106.65,42.45 C106.65,42.45 107.92,42.17 109.75,42.87 C111.58,43.57 115.38,49.77 117.21,50.75 C119.04,51.74 121.86,52.44 122.56,53 C124.3,54.39 123.97,61.87 120.31,64.26 C116.65,66.65 112.14,67.36 112.14,67.36 L102.71,50.33 L106.65,42.45 Z" fill="#B1B1B1"/>
  <path d="M47.52,4.58 C31.12,1.27 25,15.85 25,15.85 C25,15.85 13.17,11.35 9.23,24.86 C6.03,35.84 18.24,42.04 18.24,42.04 C18.24,42.04 4.58,43.25 5.01,57.75 C5.28,66.9 11.49,69.2 11.49,69.2 C11.49,69.2 5.77,76.64 10.65,86.8 C15.72,97.36 27.26,96.8 27.26,96.8 C27.26,96.8 28.68,106.29 41.76,110.03 C53.59,113.41 59.5,108.48 59.5,108.48 C59.5,108.48 64.43,112.84 73.01,110.45 C80.09,108.48 81.18,102.43 81.18,102.43 C81.18,102.43 89.34,106.36 98.21,102.15 C106.52,98.21 107.5,89.76 107.5,89.76 C107.5,89.76 119.04,86.1 119.33,71.04 C119.59,57.25 111.02,52.03 111.02,52.03 C111.02,52.03 115.38,41.33 105.53,33.31 C97.45,26.73 90.33,29.79 90.33,29.79 C90.33,29.79 89.34,24.3 83.15,22.89 C76.96,21.48 73.72,24.86 73.72,24.86 C73.72,24.86 73.13,21.18 69.64,18.81 C65.7,16.14 62.04,17.68 62.04,17.68 C62.04,17.68 62.16,7.54 47.52,4.58 Z" fill="#868686"/>
  <path d="M48.37,7.68 C32.51,4.72 27.25,18.96 26.13,19.08 C24.86,19.22 16.89,13 12.19,24.99 C8.1,35.42 22.75,41.19 22.32,42.88 C21.95,44.35 7.53,43.93 7.91,57.19 C8.15,65.56 14.77,67.64 14.95,68.92 C15.09,69.91 8.65,75.94 13.26,85.16 C17.67,93.98 28.25,93.18 29.87,94.26 C31.5,95.35 29.68,101.67 40.19,106.09 C53.02,111.47 57.81,104.83 59.24,104.59 C61.08,104.28 61.87,109.66 71.44,107.97 C79.3,106.58 78.54,99.93 79.98,99.24 C81.42,98.55 86.08,104.24 96.12,100.18 C104,96.99 104.1,89.95 104.94,88.78 C106.04,87.26 115.56,84.39 116.06,70.62 C116.58,56.35 108.23,53.37 108.04,52.22 C107.85,51.09 111.42,42.65 103.54,36.08 C96.22,29.98 90.59,34.2 89.46,33.45 C88.96,33.12 89.27,27.35 82.42,25.85 C76.74,24.61 73.03,28.85 72.42,28.52 C71.06,27.79 71.36,24.43 68.16,22.26 C64.55,19.81 61.29,21.76 60.31,21.2 C59.47,20.7 62.04,10.23 48.37,7.68 Z" fill="#FFFFFF"/>
  <path d="M28.47,33.82 C28.47,33.82 23.53,37.06 18.33,37.86 C12.79,38.7 4.44,36.26 3.88,38.24 C3.32,40.22 6.7,45.37 12.14,47.16 C17.18,48.81 19.27,47.25 19.27,47.25 C19.27,47.25 20.35,49.17 19.69,51.99 C19.03,54.81 16.97,59.16 17.39,63.49 C17.86,68.28 21.73,75.21 30.81,77.1 C42.07,79.45 50.18,73.59 52.49,68.37 C55.35,61.89 53.48,57.34 56.95,54.25 C60.42,51.15 64.88,50.82 68.73,51.01 C72.58,51.2 76.33,49.09 77.46,48.05 C78.59,47.02 79.15,45 78.87,44.62 C78.59,44.24 75.96,44.43 73.24,43.12 C70.52,41.81 65.92,39.18 65.92,39.18 C65.92,39.18 62.68,42.51 57.9,41.85 C53.11,41.19 51.56,36.08 51.56,36.08 C51.56,36.08 46.59,43.68 37.86,41.71 C30.42,40.02 28.47,33.82 28.47,33.82 Z" fill="#B1B1B1"/>
  <path d="M53.28,48.73 C52.65,51.33 50.06,52.23 47.97,51.22 C46.08,50.31 45.16,48.04 46.03,45.86 C46.9,43.68 49.19,42.55 51.13,43.33 C53.07,44.11 53.83,46.45 53.28,48.73 Z" fill="#2B2B2B"/>
  <path d="M29.66,44.47 C29.04,46.95 26.76,48.38 24.87,47.46 C23.18,46.64 22.38,44.5 23.22,42.42 C24.06,40.34 26.05,39.48 27.8,40.18 C29.55,40.88 30.21,42.3 29.66,44.47 Z" fill="#2B2B2B"/>
  <path d="M31.85,61.37 C31.85,61.37 38.19,58.27 38.89,60.15 C39.59,62.03 37.01,63.48 35.98,64.14 C34.95,64.8 32.6,65.36 32.6,65.36 C32.6,65.36 32.79,69.02 34.66,69.11 C36.54,69.2 37.9,66.62 39.12,67.94 C40.34,69.25 38.65,71.98 35.74,71.98 C32.83,71.98 31.24,69.92 31.24,69.92 C31.24,69.92 29.33,71.05 27.67,70.62 C25.09,69.96 24.67,67.05 25.51,66.4 C26.35,65.75 26.96,67.81 28.42,67.71 C29.87,67.62 30.3,65.04 30.3,65.04 C30.3,65.04 28.61,64.24 27.2,62.55 C26.39,61.58 24.59,59.19 25.51,58.23 C27.02,56.67 31.85,61.37 31.85,61.37 Z" fill="#2B2B2B"/>
</svg>