<svg viewBox="0 0 128 128" xmlns="http://www.w3.org/2000/svg" xmlns:xlink="http://www.w3.org/1999/xlink">
  <radialGradient id="g" cx="64.083" cy="22" gradientTransform="matrix(1.2344e-13 1.0276 -.5662 4.9876e-14 76.557 -43.795)" gradientUnits="userSpaceOnUse" r="98.902">
    <stop offset="0" stop-color="#FAFAFA"/>
    <stop offset=".4133" stop-color="#eee"/>
    <stop offset=".9947" stop-color="#E0E0E0"/>
  </radialGradient>
  <rect fill="url(#g)" height="102.76" width="48" x="40" y="20"/>
  <linearGradient id="f" gradientUnits="userSpaceOnUse" x1="44" x2="84" y1="70" y2="70">
    <stop offset="0" stop-color="#fff"/>
    <stop offset=".2199" stop-color="#FAFAFA"/>
    <stop offset=".4963" stop-color="#EAEAEA"/>
    <stop offset=".7972" stop-color="#D1D1D1"/>
    <stop offset=".8736" stop-color="#D4D4D4"/>
    <stop offset=".9406" stop-color="#DFDFDF"/>
    <stop offset=".9947" stop-color="#eee"/>
  </linearGradient>
  <rect fill="url(#f)" height="100" width="40" x="44" y="20"/>
  <defs>
    <rect id="e" height="100" width="40" x="44" y="20"/>
  </defs>
  <clipPath id="a">
    <use xlink:href="#e"/>
  </clipPath>
  <polygon clip-path="url(#a)" fill="#08128A" points="94.83 18.42 26.17 58.06 26.17 43.57 94.83 3.93"/>
  <polygon clip-path="url(#a)" fill="#D40004" points="94.83 47.67 26.17 87.31 26.17 72.82 94.83 33.18"/>
  <polygon clip-path="url(#a)" fill="#08128A" points="94.83 77.19 26.17 116.83 26.17 102.34 94.83 62.7"/>
  <polygon clip-path="url(#a)" fill="#D40004" points="94.83 106.7 26.17 146.35 26.17 131.86 94.83 92.21"/>
  <radialGradient id="d" cx="60.75" cy="12" gradientUnits="userSpaceOnUse" r="23.034">
    <stop offset="0" stop-color="#F5F5F5"/>
    <stop offset=".995" stop-color="#BDBDBD"/>
  </radialGradient>
  <path d="M42,22.67C42,12.36,51.85,4,64,4s22,8.36,22,18.67H42z" fill="url(#d)"/>
  <linearGradient id="c" gradientUnits="userSpaceOnUse" x1="64" x2="64" y1="117.18" y2="123.96">
    <stop offset=".0052544" stop-color="#BDBDBD"/>
    <stop offset="1" stop-color="#FAFAFA"/>
  </linearGradient>
  <path d="m88 124h-48c-1.66 0-3-1.34-3-3s1.34-3 3-3h48c1.66 0 3 1.34 3 3s-1.34 3-3 3z" fill="url(#c)"/>
  <linearGradient id="b" gradientUnits="userSpaceOnUse" x1="64" x2="64" y1="20.047" y2="25.908">
    <stop offset="0" stop-color="#FAFAFA"/>
    <stop offset=".9947" stop-color="#BDBDBD"/>
  </linearGradient>
  <path d="m88 26h-48c-1.66 0-3-1.34-3-3s1.34-3 3-3h48c1.66 0 3 1.34 3 3s-1.34 3-3 3z" fill="url(#b)"/>
  <g opacity=".2">
    <path d="M64,7c9.43,0,17.52,5.8,18.81,13.5c0.24,1.44,1.49,2.5,2.96,2.5H88c-1.66,0-3,1.34-3,3v92 c0,1.66,1.34,3,3,3H40c1.66,0,3-1.34,3-3V26c0-1.66-1.34-3-3-3h2.23c1.46,0,2.71-1.06,2.96-2.5C46.48,12.8,54.57,7,64,7 M64,4 c-11.08,0-20.25,6.95-21.77,16H40c-1.66,0-3,1.34-3,3s1.34,3,3,3v92c-1.66,0-3,1.34-3,3s1.34,3,3,3h48c1.66,0,3-1.34,3-3 s-1.34-3-3-3V26c1.66,0,3-1.34,3-3s-1.34-3-3-3h-2.23C84.25,10.95,75.08,4,64,4L64,4z" fill="#424242"/>
  </g>
</svg>