<svg viewBox="0 0 128 128" xmlns="http://www.w3.org/2000/svg">
  <defs>
    <radialGradient id="SVGID_1_" cx="53.3278" cy="-211.628322" gradientTransform="matrix(1 0 0 -0.6035 0 0)" gradientUnits="userSpaceOnUse" r="68.2194">
      <stop offset="0.5595" stop-color="#F5F5F5"/>
      <stop offset="1" stop-color="#C6C6C6"/>
    </radialGradient>
    <linearGradient id="SVGID_2_" gradientTransform="matrix(1 0 0 -1 0 0)" gradientUnits="userSpaceOnUse" x1="87.9225" x2="102.3804" y1="-114.9478" y2="-116.8631">
      <stop offset="0" stop-color="#9E9E9E" stop-opacity="0"/>
      <stop offset="0.788" stop-color="#9E9E9E"/>
    </linearGradient>
    <linearGradient id="SVGID_3_" gradientTransform="matrix(1 0 0 -1 0 0)" gradientUnits="userSpaceOnUse" x1="52.21" x2="52.21" y1="-105.704" y2="-124.733">
      <stop offset="3.200000e-03" stop-color="#80CBC4"/>
      <stop offset="0.3326" stop-color="#73C6BE"/>
      <stop offset="0.9409" stop-color="#51B8AE"/>
      <stop offset="1" stop-color="#4DB6AC"/>
    </linearGradient>
    <linearGradient id="SVGID_4_" gradientTransform="matrix(1 0 0 -1 0 0)" gradientUnits="userSpaceOnUse" x1="38.665" x2="38.665" y1="-117.3429" y2="-97.1395">
      <stop offset="0.335" stop-color="#E0E0E0"/>
      <stop offset="0.668" stop-color="#D0D0D0"/>
      <stop offset="0.9874" stop-color="#BDBDBD"/>
    </linearGradient>
    <linearGradient id="SVGID_5_" gradientTransform="matrix(-1 0 0 -1 0 0)" gradientUnits="userSpaceOnUse" x1="-65.6045" x2="-65.6045" y1="-117.3429" y2="-97.1395">
      <stop offset="0.335" stop-color="#E0E0E0"/>
      <stop offset="0.668" stop-color="#D0D0D0"/>
      <stop offset="0.9874" stop-color="#BDBDBD"/>
    </linearGradient>
    <linearGradient id="SVGID_6_" gradientTransform="matrix(1 0 0 -1 0 0)" gradientUnits="userSpaceOnUse" x1="97.9733" x2="123.7165" y1="-105.2152" y2="-108.6256">
      <stop offset="0.4369" stop-color="#F5F5F5"/>
      <stop offset="1" stop-color="#C6C6C6"/>
    </linearGradient>
    <linearGradient id="SVGID_7_" gradientTransform="matrix(1 0 0 -1 0 0)" gradientUnits="userSpaceOnUse" x1="118.5669" x2="96.0909" y1="-52.5689" y2="-105.28">
      <stop offset="0" stop-color="#B3E5FC" stop-opacity="0.8"/>
      <stop offset="0.0826" stop-color="#AEE3FC" stop-opacity="0.8165"/>
      <stop offset="0.6744" stop-color="#8DD8FA" stop-opacity="0.9349"/>
      <stop offset="1" stop-color="#81D4FA"/>
    </linearGradient>
    <radialGradient id="SVGID_8_" cx="128.186557" cy="-62.073055" gradientTransform="matrix(0.9732 0.2302 0.2302 -0.9732 0 0)" gradientUnits="userSpaceOnUse" r="25.3664">
      <stop offset="0" stop-color="#CE93D8"/>
      <stop offset="0.2054" stop-color="#CA8AD5"/>
      <stop offset="0.5366" stop-color="#BF73CC"/>
      <stop offset="0.9503" stop-color="#AD4CBE"/>
      <stop offset="1" stop-color="#AB47BC"/>
    </radialGradient>
    <linearGradient id="SVGID_9_" gradientTransform="matrix(1 0 0 -1 0 0)" gradientUnits="userSpaceOnUse" x1="51.6545" x2="51.6545" y1="-44.309" y2="-68.502">
      <stop offset="0.2028" stop-color="#B3E5FC" stop-opacity="0.5"/>
      <stop offset="1" stop-color="#B3E5FC" stop-opacity="0.2"/>
    </linearGradient>
    <radialGradient id="hairHighlights_2_" cx="52.5513" cy="-49.591972" gradientTransform="matrix(1 0 0 -1.1901 0 0)" gradientUnits="userSpaceOnUse" r="47.5316">
      <stop offset="0.7936" stop-color="#BFA055" stop-opacity="0"/>
      <stop offset="1" stop-color="#BFA055"/>
    </radialGradient>
    <radialGradient id="hairHighlights_3_" cx="52.8846" cy="-51.956442" gradientTransform="matrix(1 0 0 -1.2135 0 0)" gradientUnits="userSpaceOnUse" r="49.788">
      <stop offset="0.7945" stop-color="#BFA055" stop-opacity="0"/>
      <stop offset="1" stop-color="#BFA055"/>
    </radialGradient>
    <linearGradient id="SVGID_10_" gradientTransform="matrix(1 0 0 -1 0 0)" gradientUnits="userSpaceOnUse" x1="80.2091" x2="80.2091" y1="-55.7805" y2="-43.153">
      <stop offset="0" stop-color="#BDBDBD"/>
      <stop offset="1" stop-color="#E0E0E0"/>
    </linearGradient>
    <linearGradient id="SVGID_11_" gradientTransform="matrix(1 0 0 -1 0 0)" gradientUnits="userSpaceOnUse" x1="24.0409" x2="24.0409" y1="-55.6138" y2="-43.4919">
      <stop offset="0" stop-color="#BDBDBD"/>
      <stop offset="1" stop-color="#E0E0E0"/>
    </linearGradient>
    <radialGradient id="SVGID_12_" cx="56.128" cy="37.000148" gradientTransform="matrix(0 1 1.4084 0 0 0)" gradientUnits="userSpaceOnUse" r="22.8959">
      <stop offset="0" stop-color="#F5F5F5"/>
      <stop offset="0.6761" stop-color="#EEEEEE"/>
      <stop offset="1" stop-color="#E0E0E0"/>
    </radialGradient>
  </defs>
  <path id="hair_10_" d="M53.12,3.45 C12.11,3.45 12.44,41.37 12.44,41.97 C12.44,66.53 14.32,101.22 24.15,114.87 C28.05,120.28 35.58,120.58 35.58,120.58 L52.55,120.55 L69.52,120.58 C69.52,120.58 77.06,120.28 80.95,114.87 C90.78,101.22 92.66,66.53 92.66,41.97 C92.66,41.37 94.13,3.45 53.12,3.45 Z" fill="#AB872F"/>
  <path id="hairHighlights_1_" d="M53.12,3.45 C12.11,3.45 12.44,41.37 12.44,41.97 C12.44,66.53 14.32,101.22 24.15,114.87 C28.05,120.28 35.58,120.58 35.58,120.58 L52.55,120.55 L69.52,120.58 C69.52,120.58 77.06,120.28 80.95,114.87 C90.78,101.22 92.66,66.53 92.66,41.97 C92.66,41.37 94.13,3.45 53.12,3.45 Z" fill="url(#hairHighlights_2_)"/>
  <path d="M51.92,96.45 C28.3,96.52 3.81,103.78 3.81,121.5 L3.81,124.54 L100.04,124.54 L100.04,121.5 C100.04,103.78 75.54,96.52 51.92,96.45 Z" fill="url(#SVGID_1_)"/>
  <path d="M90.03,105.14 L84.21,124.55 L100.04,124.55 L100.04,121.51 C100.04,114.46 96.17,109.08 90.03,105.14 Z" fill="url(#SVGID_2_)"/>
  <path d="M52,92.53 L42.92,92.53 L42.92,102.51 C42.92,107.02 46.62,110.68 51.18,110.68 L52.83,110.68 C57.39,110.68 61.09,107.02 61.09,102.51 L61.09,92.53 L52,92.53 Z" fill="#C48E6A"/>
  <path d="M62.78,105.7 L41.64,105.7 L44.06,124.55 L60.62,124.55 Z" fill="url(#SVGID_3_)"/>
  <path d="M43.05,96.77 C37.13,97.2 34.36,97.71 34.36,97.71 L31.23,105.01 L36.48,109.4 L31.6,115.55 L38.72,124.55 L46.1,124.55 L43.05,96.77 Z" fill="url(#SVGID_4_)"/>
  <path d="M61.22,96.77 C67.14,97.2 69.91,97.71 69.91,97.71 L73.04,105.01 L67.79,109.4 L72.67,115.55 L65.55,124.55 L58.17,124.55 L61.22,96.77 Z" fill="url(#SVGID_5_)"/>
  <path d="M122.32,74.01 C123.46,81.8 122.21,90.88 122.21,90.88 L111.95,89.98 C111.95,89.98 111.56,84.07 111.95,84.06 L122.32,74.01 Z" fill="#80CBC4"/>
  <path d="M111.99,88.35 C105.33,87.54 102.4,86.75 102.4,86.75 L91.06,124.55 L119.25,124.55 L123.39,88.34 C123.39,88.34 120.24,89.35 111.99,88.35 Z" fill="url(#SVGID_6_)"/>
  <path d="M110.49,113.13 C108.22,114.53 101.38,113.25 94.74,110.88 C89.62,109.05 85.51,106.72 85.47,106.71 C84.94,106.46 79.97,103.76 79.97,100.97 C79.97,98.65 81.93,97.08 82.41,96.54 C82.48,96.47 82.51,96.44 82.51,96.44 L99.97,78.85 L113.11,47.05 L113.13,47.04 C113.13,47.04 115.49,46.23 118.8,47.53 C122.11,48.83 123.81,50.99 123.81,50.99 L123.79,51 L111.94,83.62 C111.94,83.62 111.97,107 111.94,109.01 C111.9,111.73 111.58,112.46 110.49,113.13 Z" fill="url(#SVGID_7_)" opacity="0.86"/>
  <path d="M106.89,111.57 C101.25,109.37 89.51,104.72 83.86,102.43 C82.33,101.8 81.93,99.83 83.09,98.66 L90.52,91.17 L110.03,90.23 L110.03,109.42 C110.04,111.04 108.41,112.16 106.89,111.57 Z" fill="url(#SVGID_8_)" opacity="0.8"/>
  <path d="M96.849,100.281 L97.621,98.436 L103.894,101.062 L103.121,102.907 L96.849,100.281 Z" fill="#FFFFFF"/>
  <path d="M98.864,94.837 L99.636,92.992 L105.909,95.618 L105.136,97.463 L98.864,94.837 Z" fill="#FFFFFF"/>
  <path d="M100.898,89.397 L101.67,87.553 L107.942,90.179 L107.17,92.024 L100.898,89.397 Z" fill="#FFFFFF"/>
  <path d="M102.92,83.961 L103.692,82.116 L109.964,84.742 L109.192,86.587 L102.92,83.961 Z" fill="#FFFFFF"/>
  <path d="M104.934,78.516 L105.707,76.672 L111.979,79.298 L111.206,81.143 L104.934,78.516 Z" fill="#FFFFFF"/>
  <path d="M106.955,73.083 L107.727,71.238 L113.999,73.864 L113.227,75.709 L106.955,73.083 Z" fill="#FFFFFF"/>
  <path d="M108.978,67.644 L109.75,65.799 L116.023,68.424 L115.25,70.269 L108.978,67.644 Z" fill="#FFFFFF"/>
  <path d="M111.483,61.319 L112.255,59.474 L118.528,62.1 L117.755,63.944 L111.483,61.319 Z" fill="#FFFFFF"/>
  <path d="M113.508,55.876 L114.28,54.031 L120.553,56.656 L119.781,58.501 L113.508,55.876 Z" fill="#FFFFFF"/>
  <path d="M98.74,80.1 C98.74,80.1 96.21,77.96 96.22,76.01 C96.23,74.45 98.11,72.97 98.11,72.97 C98.11,72.97 96.31,70.2 96.97,68.69 C97.91,66.55 100.38,66.14 100.38,66.14 C100.38,66.14 99.26,63.35 101.03,61.71 C102.29,60.54 105.93,61.03 105.93,61.03 C105.93,61.03 106.29,56.45 110.75,57.6 C112.49,58.05 118.66,61.59 120.96,69.06 C122.4,73.73 122.96,75.12 122.5,82.12 C122.3,85.09 114.79,85.09 111.96,84.07 C104.91,81.53 102.91,78.43 101.94,78.45 C100.96,78.46 98.74,80.1 98.74,80.1 Z" fill="#80CBC4"/>
  <path d="M99.61,71.23 C98.89,71.36 98.33,71.94 98.17,72.66 L98.1,72.97 L102.28,71.54 C101.3,71.08 100.33,71.1 99.61,71.23 Z" fill="#26A69A"/>
  <path d="M104.69,66.42 C104.12,65.79 103.46,65.43 102.87,65.22 C101.93,64.89 100.89,65.29 100.37,66.14 L100.37,66.14 L104.69,66.42 Z" fill="#26A69A"/>
  <path d="M107.98,60.37 C107.25,60.08 106.38,60.3 105.94,60.95 C105.93,60.97 105.92,60.99 105.91,61 C107.69,61.22 110.36,62.34 110.36,62.34 C109.82,61.28 108.8,60.69 107.98,60.37 Z" fill="#26A69A"/>
  <path d="M97.207,102.53 C104.621,105.453 110.081,109.218 109.402,110.939 C108.724,112.661 102.163,111.686 94.749,108.763 C87.335,105.84 81.875,102.075 82.554,100.354 C83.233,98.632 89.793,99.607 97.207,102.53 Z" fill="#8F5D9B"/>
  <path d="M119.507,46.469 C122.451,47.629 124.332,49.856 123.706,51.444 C123.081,53.032 120.187,53.379 117.242,52.22 C114.298,51.06 112.417,48.833 113.043,47.245 C113.668,45.657 116.562,45.31 119.507,46.469 Z" fill="#81D4FA"/>
  <path d="M52.11,16.04 L52.11,16.04 L52.11,16.04 C34.91,16.04 18.98,28.83 18.98,55.95 C18.98,77.73 32.47,90.62 44.21,94.78 C47.01,95.77 49.71,96.27 52.11,96.27 C54.49,96.27 57.18,95.78 59.96,94.8 C71.72,90.66 85.24,77.77 85.24,55.96 C85.24,28.83 69.31,16.04 52.11,16.04 Z" fill="#E0BB95"/>
  <path id="nose" d="M55.86,68.26 C55.75,68.22 55.65,68.19 55.54,68.18 L48.46,68.18 C48.35,68.19 48.24,68.22 48.14,68.26 C47.5,68.52 47.15,69.18 47.45,69.89 C47.75,70.6 49.16,72.58 52,72.58 C54.84,72.58 56.25,70.59 56.55,69.89 C56.85,69.19 56.5,68.52 55.86,68.26 Z" fill="#C48E6A"/>
  <path id="mouth" d="M60.53,76.35 C57.34,78.24 46.9,78.24 43.72,76.35 C41.89,75.26 40.02,76.93 40.78,78.59 C41.53,80.22 47.22,84.01 52.15,84.01 C57.08,84.01 62.7,80.22 63.45,78.59 C64.2,76.92 62.36,75.26 60.53,76.35 Z" fill="#6D4C41"/>
  <path d="M43.77,49.97 C42.84,48.74 40.7,46.96 36.54,46.96 C32.38,46.96 30.23,48.75 29.31,49.97 C28.9,50.51 29,51.14 29.29,51.52 C29.55,51.87 30.33,52.2 31.19,51.91 C32.05,51.62 33.73,50.75 36.54,50.73 C39.35,50.75 41.03,51.62 41.89,51.91 C42.75,52.2 43.53,51.88 43.79,51.52 C44.08,51.15 44.18,50.52 43.77,49.97 Z" fill="#AB872F"/>
  <path d="M74.92,49.97 C73.99,48.74 71.85,46.96 67.69,46.96 C63.53,46.96 61.38,48.75 60.46,49.97 C60.05,50.51 60.15,51.14 60.44,51.52 C60.7,51.87 61.48,52.2 62.34,51.91 C63.2,51.62 64.88,50.75 67.69,50.73 C70.5,50.75 72.18,51.62 73.04,51.91 C73.9,52.2 74.68,51.88 74.94,51.52 C75.22,51.15 75.32,50.52 74.92,49.97 Z" fill="#AB872F"/>
  <path d="M41.47,59.02 A4.93 5.1 0 1 1 31.61,59.02 A4.93 5.1 0 1 1 41.47,59.02 Z" fill="#5D4037"/>
  <path d="M72.61,59.02 A4.93 5.1 0 1 1 62.75,59.02 A4.93 5.1 0 1 1 72.61,59.02 Z" fill="#5D4037"/>
  <path d="M31.1,44.31 L73.75,44.31 L79.54,49.41 L79.54,64.44 C79.54,64.44 75.6,69.94 66.1,67.63 C56.6,65.32 57.87,59.58 52.22,59.58 C46.57,59.58 43.97,68.75 31.6,68.5 C31.6,68.5 25.22,67.94 24.04,63.94 L23.77,47.33 L31.1,44.31 Z" fill="url(#SVGID_9_)"/>
  <path d="M88.28,54.76 C88.29,55.43 88.09,56.08 87.71,56.63 L82.24,64.68 C80.18,67.53 72.94,69.11 72.94,69.11 L81.12,59.97 L79.56,48.47 L72.13,42.67 C72.13,42.67 75.2,42.97 77.37,42.97 C79.54,42.97 81.7,44.36 82.81,45.13 L86.83,47.9 C87.71,48.51 88.23,49.5 88.24,50.57 L88.28,54.76 Z" fill="url(#SVGID_10_)"/>
  <path d="M15.97,54.76 C15.96,55.43 16.16,56.08 16.54,56.63 L22,64.68 C24.06,67.53 31.3,69.11 31.3,69.11 L23.12,59.97 L24.68,48.47 L32.11,42.67 C32.11,42.67 29.04,42.97 26.87,42.97 C24.7,42.97 22.54,44.36 21.43,45.13 L17.41,47.9 C16.53,48.51 16.01,49.5 16,50.57 L15.97,54.76 Z" fill="url(#SVGID_11_)"/>
  <path d="M71.58,45.63 C72.68,45.63 74.51,45.98 76.06,46.97 C78.16,48.31 78.22,49.86 78.24,50.37 C78.27,51.14 78.3,51.88 78.34,52.62 C78.44,54.93 78.54,57.11 78.54,59.23 C78.54,63.58 74.63,66.61 69.04,66.61 C65.09,66.61 60.62,63.28 58.58,61.04 C56.98,59.29 54.62,58.28 52.1,58.28 C49.58,58.28 47.22,59.29 45.62,61.04 C43.58,63.28 39.11,66.61 35.16,66.61 C29.57,66.61 25.66,63.58 25.66,59.23 C25.66,57.1 25.76,54.92 25.86,52.62 C25.89,51.88 25.93,51.13 25.96,50.37 C25.98,49.86 26.04,48.31 28.14,46.97 C29.69,45.98 31.52,45.63 32.62,45.63 L71.58,45.63 M71.58,42.63 L32.64,42.63 C29.06,42.63 23.2,44.93 22.98,50.25 C22.85,53.45 22.68,56.35 22.68,59.24 C22.68,65.24 27.89,69.62 35.18,69.62 C40.18,69.62 45.33,65.84 47.85,63.07 C48.93,61.89 50.52,61.29 52.11,61.29 C53.7,61.29 55.3,61.89 56.37,63.07 C58.9,65.84 64.04,69.62 69.04,69.62 C76.33,69.62 81.54,65.24 81.54,59.24 C81.54,56.36 81.37,53.45 81.24,50.25 C81.03,44.93 75.17,42.63 71.58,42.63 L71.58,42.63 Z" fill="url(#SVGID_12_)"/>
  <path id="hair_5_" d="M53.12,3.45 C12.11,3.45 12.44,41.37 12.44,41.97 C12.44,49.73 12.63,58.5 13.19,67.29 L19.91,67.27 C19.85,64.35 21.9,46.3 27.99,44.93 C50.35,39.9 63,28.04 63,28.04 C66.29,35.22 76.58,42.23 80.27,44.9 C83.3,47.09 84.23,63.45 84.17,67.28 L91.88,67.28 C91.88,67.23 91.9,67.18 91.9,67.12 C92.46,58.37 92.64,49.66 92.64,41.95 C92.66,41.37 94.13,3.45 53.12,3.45 Z" fill="#AB872F"/>
  <path id="hairHighlights" d="M53.12,3.45 C12.11,3.45 12.44,41.37 12.44,41.97 C12.44,49.73 12.63,58.5 13.19,67.29 L19.91,67.27 C19.85,64.35 21.9,46.3 27.99,44.93 C50.35,39.9 63,28.04 63,28.04 C66.29,35.22 76.58,42.23 80.27,44.9 C83.3,47.09 84.23,63.45 84.17,67.28 L91.88,67.28 C91.88,67.23 91.9,67.18 91.9,67.12 C92.46,58.37 92.64,49.66 92.64,41.95 C92.66,41.37 94.13,3.45 53.12,3.45 Z" fill="url(#hairHighlights_3_)"/>
</svg>