<svg viewBox="0 0 128 128" xmlns="http://www.w3.org/2000/svg">
  <defs>
    <radialGradient id="hairHighlights_1_" cx="67.6469" cy="84.398621" gradientTransform="matrix(0 1 0.7605 0 0 0)" gradientUnits="userSpaceOnUse" r="57.3918">
      <stop offset="0.8436" stop-color="#BFA055" stop-opacity="0"/>
      <stop offset="1" stop-color="#BFA055"/>
    </radialGradient>
    <linearGradient id="SVGID_1_" gradientTransform="matrix(1 0 0 -1 0 0)" gradientUnits="userSpaceOnUse" x1="64" x2="64" y1="-95.9599" y2="-137.7768">
      <stop offset="3.200000e-03" stop-color="#448AFF"/>
      <stop offset="0.4042" stop-color="#3B7DFF"/>
      <stop offset="1" stop-color="#2962FF"/>
    </linearGradient>
    <radialGradient id="XMLID_2_" cx="64" cy="-31.937619" gradientTransform="matrix(1 0 0 -0.9806 0 0)" gradientUnits="userSpaceOnUse" r="34.638">
      <stop offset="0" stop-color="#FFFF00"/>
      <stop offset="0.325" stop-color="#FFF600"/>
      <stop offset="0.8535" stop-color="#FFDE00"/>
      <stop offset="0.9978" stop-color="#FFD600"/>
    </radialGradient>
    <linearGradient id="SVGID_2_" gradientTransform="matrix(1 0 0 -1 0 0)" gradientUnits="userSpaceOnUse" x1="44.025" x2="44.025" y1="-98.331" y2="-136.0499">
      <stop offset="3.200000e-03" stop-color="#FF9100"/>
      <stop offset="0.4399" stop-color="#FF8400"/>
      <stop offset="1" stop-color="#FF6D00"/>
    </linearGradient>
    <linearGradient id="SVGID_3_" gradientTransform="matrix(1 0 0 -1 0 0)" gradientUnits="userSpaceOnUse" x1="43.075" x2="43.075" y1="-98.1231" y2="-136.8342">
      <stop offset="3.200000e-03" stop-color="#FFFF00"/>
      <stop offset="0.6783" stop-color="#FFF200"/>
      <stop offset="1" stop-color="#FFEA00"/>
    </linearGradient>
    <linearGradient id="SVGID_4_" gradientTransform="matrix(1 0 0 -1 0 0)" gradientUnits="userSpaceOnUse" x1="83.975" x2="83.975" y1="-98.3686" y2="-136.0326">
      <stop offset="3.200000e-03" stop-color="#FF9100"/>
      <stop offset="0.4399" stop-color="#FF8400"/>
      <stop offset="1" stop-color="#FF6D00"/>
    </linearGradient>
    <linearGradient id="SVGID_5_" gradientTransform="matrix(1 0 0 -1 0 0)" gradientUnits="userSpaceOnUse" x1="84.92" x2="84.92" y1="-98.2209" y2="-136.7864">
      <stop offset="3.200000e-03" stop-color="#FFFF00"/>
      <stop offset="0.6783" stop-color="#FFF200"/>
      <stop offset="1" stop-color="#FFEA00"/>
    </linearGradient>
    <linearGradient id="SVGID_6_" gradientTransform="matrix(1 0 0 -1 0 0)" gradientUnits="userSpaceOnUse" x1="64.3215" x2="64.3215" y1="-4.9146" y2="-41.9521">
      <stop offset="0" stop-color="#FFFF00"/>
      <stop offset="0.4462" stop-color="#FFF900"/>
      <stop offset="1" stop-color="#FFEA00"/>
    </linearGradient>
  </defs>
  <path d="M116,124.14 L116,121.02 C116,104.24 89.65,95.93 64,95.96 C38.51,95.99 12,103.24 12,121.02 L12,124.14 L116,124.14 Z" fill="url(#SVGID_1_)"/>
  <path d="M18,52.31 C18,61.65 38.6,69.23 64,69.23 C89.4,69.23 110,61.65 110,52.31 C110,42.97 18,42.96 18,52.31 Z" fill="#FFEA00"/>
  <path d="M105.38,52.29 C97.26,46.98 85.84,42.58 64,42.57 C42.15,42.58 30.73,46.97 22.62,52.29 C22,52.7 21.84,53.5 22.29,54.09 C26.75,59.93 45.76,65.67 64,65.68 C82.24,65.66 102,59.06 105.71,54.1 C106.15,53.5 106.01,52.7 105.38,52.29 Z" fill="#EDBF00"/>
  <path id="hair_2_" d="M104.11,45.38 C104.11,62.85 103.16,85.45 99.07,101.95 C89.34,97.94 76.59,95.95 64,95.96 C51.44,95.98 38.63,97.75 28.86,101.67 C24.83,85.19 23.89,62.75 23.89,45.38 C23.89,44.77 23.56,9.85 64.57,9.85 C105.58,9.85 104.11,44.77 104.11,45.38 Z" fill="#AB872F"/>
  <path id="neck_1_" d="M64,90.11 L54.92,90.11 L54.92,100.09 C54.92,104.6 58.62,108.26 63.18,108.26 L64.83,108.26 C69.39,108.26 73.09,104.6 73.09,100.09 L73.09,90.11 C73.08,90.11 64,90.11 64,90.11 Z" fill="#C48E6A"/>
  <path id="head_1_" d="M64,15.77 C46.8,15.77 30.87,28.56 30.87,55.68 C30.87,77.47 44.36,90.35 56.1,94.51 C58.9,95.5 61.6,96 64,96 C66.38,96 69.07,95.51 71.85,94.53 C83.61,90.39 97.13,77.5 97.13,55.69 C97.13,28.56 81.2,15.77 64,15.77 Z" fill="#E0BB95"/>
  <path id="hair_3_" d="M101.89,45.38 C101.89,45.38 102.91,9.81 64.08,9.81 C25.25,9.81 26.11,45.38 26.11,45.38 C26.11,45.38 26.44,76.72 29.31,82.64 C32.18,88.56 36.5,88.35 36.5,88.35 C36.5,88.35 34.47,75.95 34.24,63.45 C34.18,60.53 33.3,47.72 39.4,46.36 C61.76,41.34 74.41,31.48 74.41,31.48 C77.7,38.67 87.99,45.67 91.68,48.34 C94.71,50.53 94.29,59.54 94.23,63.37 L91.18,88.29 C91.18,88.29 95.86,88.66 98.83,82.65 C101.8,76.62 101.89,45.38 101.89,45.38 Z" fill="#AB872F"/>
  <path d="M53.33,58.81 A4.93 5.1 0 1 1 43.47,58.81 A4.93 5.1 0 1 1 53.33,58.81 Z" fill="#5D4037"/>
  <path d="M84.53,58.81 A4.93 5.1 0 1 1 74.67,58.81 A4.93 5.1 0 1 1 84.53,58.81 Z" fill="#5D4037"/>
  <path d="M55.64,49.82 C54.71,48.59 52.57,46.81 48.41,46.81 C44.25,46.81 42.1,48.6 41.18,49.82 C40.77,50.36 40.87,50.99 41.16,51.37 C41.42,51.72 42.2,52.05 43.06,51.76 C43.92,51.47 45.6,50.6 48.41,50.58 C51.22,50.6 52.9,51.47 53.76,51.76 C54.62,52.05 55.4,51.73 55.66,51.37 C55.94,50.99 56.05,50.36 55.64,49.82 Z" fill="#AB872F"/>
  <path d="M86.83,49.82 C85.9,48.59 83.76,46.81 79.6,46.81 C75.44,46.81 73.29,48.6 72.37,49.82 C71.96,50.36 72.06,50.99 72.35,51.37 C72.61,51.72 73.39,52.05 74.25,51.76 C75.11,51.47 76.79,50.6 79.6,50.58 C82.41,50.6 84.09,51.47 84.95,51.76 C85.81,52.05 86.59,51.73 86.85,51.37 C87.13,50.99 87.24,50.36 86.83,49.82 Z" fill="#AB872F"/>
  <path id="nose" d="M67.81,68.15 C67.7,68.11 67.6,68.08 67.49,68.07 L60.5,68.07 C60.39,68.08 60.29,68.11 60.18,68.15 C59.55,68.41 59.2,69.06 59.5,69.76 C59.8,70.46 61.19,72.42 63.99,72.42 C66.79,72.42 68.19,70.46 68.49,69.76 C68.79,69.06 68.45,68.41 67.81,68.15 Z" fill="#C48E6A"/>
  <path id="mouth" d="M72.32,76.23 C69.17,78.1 58.85,78.1 55.71,76.23 C53.9,75.16 52.06,76.8 52.81,78.44 C53.55,80.05 59.18,83.8 64.04,83.8 C68.9,83.8 74.46,80.05 75.2,78.44 C75.95,76.8 74.13,75.16 72.32,76.23 Z" fill="#6D4C41"/>
  <path id="hairHighlights" d="M104.12,42.7 C104.12,61.05 103.45,84.75 99.07,101.95 C89.49,98.16 76.48,96.05 64.16,96.05 L64.02,96.05 C51.68,96.07 38.52,97.96 28.86,101.67 C24.54,84.61 23.91,60.94 23.91,42.7 C23.91,42.09 23.58,13.17 64.59,13.17 C105.6,13.17 104.12,42.09 104.12,42.7 Z" fill="url(#hairHighlights_1_)"/>
  <path d="M58.5,124.14 L29.55,124.14 L29.55,101.4 C31.34,100.7 33.23,100.08 35.19,99.54 C38.08,98.72 41.13,98.05 44.29,97.53 C46.43,97.17 48.62,96.88 50.84,96.65 L58.5,124.14 Z" fill="url(#SVGID_2_)"/>
  <path d="M50.96,124.14 L36.29,124.14 L35.19,99.54 C38.08,98.72 41.13,98.05 44.29,97.53 L50.96,124.14 Z" fill="url(#SVGID_3_)"/>
  <path d="M98.45,101.7 L98.45,124.14 L69.5,124.14 L77.15,96.69 C79.36,96.93 81.55,97.25 83.68,97.63 C86.85,98.2 89.91,98.9 92.8,99.76 C94.77,100.34 96.66,100.99 98.45,101.7 Z" fill="url(#SVGID_4_)"/>
  <path d="M92.8,99.76 L91.71,124.14 L77.04,124.14 L83.68,97.63 C86.85,98.2 89.91,98.9 92.8,99.76 Z" fill="url(#SVGID_5_)"/>
  <path id="XMLID_4_" d="M64.41,8.1 C17.65,8.1 21.17,54.53 21.17,54.53 C21.17,54.53 33.38,43.73 64.67,43.73 C95.96,43.73 106.77,53.53 106.77,53.53 C106.77,53.53 111.17,8.1 64.41,8.1 Z" fill="url(#XMLID_2_)"/>
  <path d="M74.72,42.33 L53.92,42.33 L53.92,9.23 C53.92,6.44 56.18,4.18 58.97,4.18 L69.67,4.18 C72.46,4.18 74.72,6.44 74.72,9.23 L74.72,42.33 Z" fill="url(#SVGID_6_)"/>
  <path id="XMLID_3_" d="M54.07,8.954 L54.07,31.39 C52.692,21.555 50.73,14.377 47.354,10.651 C49.426,9.951 51.66,9.378 54.07,8.954 Z" fill="#EDBF00" opacity="0.5"/>
  <path d="M74.76,8.94 C77.184,9.36 79.426,9.929 81.5,10.623 C78.109,14.342 76.142,21.531 74.76,31.39 Z" fill="#EDBF00" opacity="0.5"/>
  <path d="M109.53,51.17 C109.28,50.75 108.89,50.43 108.46,50.18 C90.36,39.76 64,40.1 64,40.1 C64,40.1 37.64,39.76 19.54,50.17 C19.1,50.42 18.72,50.74 18.47,51.16 C17.94,52.06 17.5,53.77 19.22,56.24 C19.22,56.24 30.17,45.39 64,44.71 C97.82,45.4 108.78,56.24 108.78,56.24 C110.5,53.78 110.06,52.07 109.53,51.17 Z" fill="#FFEA00"/>
</svg>