<svg viewBox="0 0 128 128" xmlns="http://www.w3.org/2000/svg">
  <defs/>
  <path d="M64,4.5 C36.2,4.5 8,28.1 8,55.8 C8,83.5 52.3,123.5 64.2,123.5 C77.4,123.5 120,83.6 120,55.8 C120,28 91.8,4.5 64,4.5 Z" fill="#ADBCC3"/>
  <path id="mouth" d="M64,102.35 C54.63,102.35 47.94,96.83 45.93,93.77 C45.17,92.79 45.01,91.46 45.52,90.33 C45.91,89.59 46.69,89.15 47.52,89.18 C47.82,89.18 48.12,89.23 48.4,89.33 C53.1,90.8 57.23,93 64,93 C70.77,93 74.92,90.84 79.63,89.37 C79.91,89.27 80.21,89.22 80.51,89.22 C81.34,89.19 82.12,89.63 82.51,90.37 C83.02,91.5 82.86,92.83 82.1,93.81 C80.06,96.83 73.37,102.35 64,102.35 Z" fill="#422B0D"/>
  <path d="M54.05,81.56 C51.05,85.44 36.34,85.45 25.2,75.2 C15.11,65.92 15.74,49.56 19.07,46.26 C22.4,42.96 38.26,42.88 47.92,52.62 C57.58,62.36 57.72,77.92 54.05,81.56 Z" fill="#422B0D"/>
  <path d="M80.08,52.58 C89.74,42.88 105.6,42.96 108.93,46.25 C112.26,49.54 112.46,65.36 102.8,75.05 C93.14,84.74 77.64,85 73.94,81.38 C70.24,77.76 70.42,62.28 80.08,52.58 Z" fill="#422B0D"/>
  <path d="M64,4.5 C78.52,4.5 93.13,10.92 103.8,21 C93,9.46 77.17,2 61.47,2 C33.67,2 5.47,25.6 5.47,53.3 C5.47,68.9 19.53,88.41 33.94,102.48 C20.46,88.64 8,70.49 8,55.8 C8,28.1 36.2,4.5 64,4.5 Z" fill="#ADBCC3"/>
</svg>