<svg viewBox="0 0 128 128" xmlns="http://www.w3.org/2000/svg">
  <defs/>
  <path d="M105.78,94.28 L22.54,94.28 C20.42,94.28 19.57,92.92 19.57,91.25 L33.69,36.74 C33.69,35.07 35.02,33.71 36.66,33.71 L119.9,33.71 C121.54,33.71 122.87,35.07 122.87,36.74 L108.75,91.25 C108.75,92.93 107.42,94.28 105.78,94.28 Z" fill="#FFFFFF"/>
  <path d="M122.82,36.06 C122.82,36.06 121.74,34.86 120.32,35.99 L76.84,64.77 C73.84,67.2 69.72,67.19 66.72,64.75 L36.43,35.49 C35.96,35.09 35.25,35.16 34.86,35.64 C34.47,36.12 34.53,36.84 35.01,37.24 L52.94,56.94 L20.55,92.12 C20.14,92.59 20.07,92.99 20.36,93.2 C20.82,93.54 21.11,94.45 21.63,93.94 L56.18,60.5 L64.86,70.04 C68.79,73.51 74.52,73.46 78.4,69.92 L88.07,62.45 L105.97,92.83 C106.49,93.34 106.93,93.54 107.39,93.2 C107.68,92.99 108.93,92.27 108.52,91.8 L91.91,59.48 L121.43,36.69 C121.9,36.28 122.82,36.06 122.82,36.06 Z" fill="#6FBFF0"/>
  <path d="M123.006,35.893 L123.287,36.205 L122.878,36.303 Q122.018,36.509 121.594,36.878 L121.589,36.883 L92.227,59.551 L108.73,91.661 Q109.075,92.093 108.507,92.668 Q108.255,92.922 107.686,93.301 Q107.571,93.378 107.539,93.401 Q106.773,93.967 105.795,93.008 L105.771,92.985 L87.999,62.821 L78.561,70.112 Q75.583,72.824 71.651,72.859 Q67.714,72.894 64.695,70.227 L64.684,70.218 L56.169,60.859 L21.805,94.118 Q21.433,94.483 21.038,94.262 Q20.854,94.159 20.559,93.782 Q20.329,93.488 20.213,93.402 Q19.869,93.153 19.946,92.714 Q20.008,92.361 20.362,91.956 L20.364,91.953 L52.601,56.939 L34.836,37.421 Q33.801,36.547 34.666,35.482 Q35.025,35.041 35.591,34.986 Q36.159,34.931 36.592,35.3 L36.598,35.305 L66.886,64.563 Q71.786,68.542 76.683,64.576 L76.692,64.568 L120.173,35.788 Q121.772,34.522 123.006,35.893 Z M122.318,35.942 Q121.506,35.366 120.476,36.186 L120.467,36.192 L76.988,64.972 Q71.777,69.185 66.562,64.944 L66.554,64.937 L36.262,35.676 Q35.993,35.45 35.639,35.484 Q35.281,35.518 35.054,35.798 Q34.495,36.486 35.17,37.048 L35.183,37.059 L53.279,56.941 L20.738,92.284 L20.734,92.289 Q20.476,92.586 20.439,92.801 Q20.416,92.932 20.507,92.998 Q20.681,93.126 20.953,93.474 Q21.186,93.772 21.283,93.826 Q21.35,93.864 21.455,93.762 L56.191,60.141 L65.036,69.862 Q67.908,72.392 71.647,72.359 Q75.392,72.326 78.231,69.735 L78.239,69.728 L88.141,62.079 L106.168,92.674 Q106.826,93.306 107.241,92.999 Q107.285,92.967 107.409,92.885 Q107.936,92.534 108.152,92.316 Q108.41,92.054 108.332,91.964 L108.312,91.941 L91.593,59.409 L121.271,36.497 Q121.663,36.158 122.318,35.942 Z" fill="#6FBFF0"/>
  <path d="M105.78,96.28 L22.54,96.28 Q17.57,96.28 17.57,91.25 L17.57,90.995 L31.697,36.459 Q31.789,34.57 33.131,33.199 Q34.59,31.71 36.66,31.71 L119.9,31.71 Q121.97,31.71 123.429,33.199 Q124.87,34.671 124.87,36.74 L124.87,36.995 L110.743,91.531 Q110.651,93.427 109.307,94.796 Q107.85,96.28 105.78,96.28 Z M105.78,92.28 Q106.75,92.28 106.75,91.25 L106.75,90.995 L120.859,36.529 Q120.765,35.71 119.9,35.71 L36.66,35.71 Q35.69,35.71 35.69,36.74 L35.69,36.995 L21.581,91.461 Q21.675,92.28 22.54,92.28 Z" fill="#6FBFF0"/>
  <path d="M5.13,34.11 L26.69,34.11 Q28.69,34.11 28.69,36.11 Q28.69,38.11 26.69,38.11 L5.13,38.11 Q3.13,38.11 3.13,36.11 Q3.13,34.11 5.13,34.11 Z" fill="#B0BEC5"/>
  <path d="M5.13,45.31 L20.58,45.31 Q22.58,45.31 22.58,47.31 Q22.58,49.31 20.58,49.31 L5.13,49.31 Q3.13,49.31 3.13,47.31 Q3.13,45.31 5.13,45.31 Z" fill="#B0BEC5"/>
  <path d="M5.13,45.31 L17.65,45.31 Q19.65,45.31 19.65,47.31 Q19.65,49.31 17.65,49.31 L5.13,49.31 Q3.13,49.31 3.13,47.31 Q3.13,45.31 5.13,45.31 Z" fill="#B0BEC5"/>
  <path d="M5.13,55.51 L11.39,55.51 Q13.39,55.51 13.39,57.51 Q13.39,59.51 11.39,59.51 L5.13,59.51 Q3.13,59.51 3.13,57.51 Q3.13,55.51 5.13,55.51 Z" fill="#B0BEC5"/>
</svg>