<svg viewBox="0 0 128 128" xmlns="http://www.w3.org/2000/svg">
  <defs>
    <radialGradient id="hairHighlights_2_" cx="64.0002" cy="-49.102058" gradientTransform="matrix(1 0 0 -1.1901 0 0)" gradientUnits="userSpaceOnUse" r="47.5315">
      <stop offset="0.7936" stop-color="#BFA055" stop-opacity="0"/>
      <stop offset="1" stop-color="#BFA055"/>
    </radialGradient>
    <radialGradient id="hairHighlights_3_" cx="64.3333" cy="-51.475938" gradientTransform="matrix(1 0 0 -1.2135 0 0)" gradientUnits="userSpaceOnUse" r="49.788">
      <stop offset="0.7945" stop-color="#BFA055" stop-opacity="0"/>
      <stop offset="1" stop-color="#BFA055"/>
    </radialGradient>
    <linearGradient id="SVGID_1_" gradientTransform="matrix(1 0 0 -1 0 0)" gradientUnits="userSpaceOnUse" x1="64" x2="64" y1="-95.6065" y2="-122.3978">
      <stop offset="3.200000e-03" stop-color="#E3F2FD"/>
      <stop offset="0.2252" stop-color="#D6ECFC"/>
      <stop offset="0.6348" stop-color="#B4DBFB"/>
      <stop offset="1" stop-color="#90CAF9"/>
    </linearGradient>
    <linearGradient id="SVGID_2_" gradientTransform="matrix(1 0 0 -1 0 0)" gradientUnits="userSpaceOnUse" x1="64" x2="64" y1="-112.116" y2="-91.4574">
      <stop offset="0.5" stop-color="#F5F5F5"/>
      <stop offset="1" stop-color="#DADADA"/>
    </linearGradient>
  </defs>
  <path id="hair_10_" d="M64.57,2.87 C23.56,2.87 23.89,40.79 23.89,41.39 C23.89,65.95 25.77,100.64 35.6,114.29 C39.5,119.7 47.03,120 47.03,120 L64,119.98 L80.97,120 C80.97,120 88.51,119.7 92.4,114.29 C102.23,100.64 104.11,65.95 104.11,41.39 C104.1,40.79 105.58,2.87 64.57,2.87 Z" fill="#AB872F"/>
  <path id="hairHighlights_1_" d="M64.57,2.87 C23.56,2.87 23.89,40.79 23.89,41.39 C23.89,65.95 25.77,100.64 35.6,114.29 C39.5,119.7 47.03,120 47.03,120 L64,119.98 L80.97,120 C80.97,120 88.51,119.7 92.4,114.29 C102.23,100.64 104.11,65.95 104.11,41.39 C104.1,40.79 105.58,2.87 64.57,2.87 Z" fill="url(#hairHighlights_2_)"/>
  <path d="M64.14,96 C64.09,96 64.05,96 64,96 C38.35,96.03 12,103.1 12,120.99 L12,124 L13.5,124 L15,124 L113,124 L114.5,124 L116,124 L116,120.99 C116,104.12 89.9,96 64.14,96 Z" fill="url(#SVGID_1_)"/>
  <path d="M75.65,90.8 L52.35,90.8 L45.38,98.33 L53.58,111.04 C54.48,112.43 56.47,112.54 57.51,111.25 L63.99,103.24 L70.47,111.25 C71.51,112.54 73.51,112.43 74.4,111.04 L82.6,98.33 L75.65,90.8 Z" fill="url(#SVGID_2_)"/>
  <path d="M65.69,111.31 A1.69 1.69 0 1 1 62.31,111.31 A1.69 1.69 0 1 1 65.69,111.31 Z" fill="#64B5F6"/>
  <path d="M65.69,119.31 A1.69 1.69 0 1 1 62.31,119.31 A1.69 1.69 0 1 1 65.69,119.31 Z" fill="#64B5F6"/>
  <path d="M64,84.33 L54.92,84.33 L54.92,94.31 C54.92,98.82 58.62,102.48 63.18,102.48 L64.83,102.48 C69.39,102.48 73.09,98.82 73.09,94.31 L73.09,84.33 L64,84.33 Z" fill="#C48E6A"/>
  <path d="M64,16.04 L64,16.04 L64,16.04 C46.8,16.04 30.87,28.83 30.87,55.95 C30.87,77.73 44.36,90.62 56.1,94.78 C58.9,95.77 61.6,96.27 64,96.27 C66.38,96.27 69.07,95.78 71.85,94.8 C83.61,90.66 97.13,77.77 97.13,55.96 C97.13,28.83 81.2,16.04 64,16.04 Z" fill="#E0BB95"/>
  <path id="nose" d="M67.81,68.06 C67.7,68.02 67.6,67.99 67.49,67.98 L60.5,67.98 C60.39,67.99 60.29,68.02 60.18,68.06 C59.55,68.32 59.2,68.97 59.5,69.67 C59.8,70.37 61.19,72.33 63.99,72.33 C66.79,72.33 68.19,70.37 68.48,69.67 C68.79,68.97 68.45,68.31 67.81,68.06 Z" fill="#C48E6A"/>
  <path d="M52.62,58.87 A4.87 5.04 0 1 1 42.88,58.87 A4.87 5.04 0 1 1 52.62,58.87 Z" fill="#5D4037"/>
  <path d="M85.12,58.87 A4.87 5.04 0 1 1 75.38,58.87 A4.87 5.04 0 1 1 85.12,58.87 Z" fill="#5D4037"/>
  <path d="M54.99,49.82 C54.06,48.59 51.92,46.81 47.76,46.81 C43.6,46.81 41.45,48.6 40.53,49.82 C40.12,50.36 40.22,50.99 40.51,51.37 C40.77,51.72 41.55,52.05 42.41,51.76 C43.27,51.47 44.95,50.6 47.76,50.58 C50.57,50.6 52.25,51.47 53.11,51.76 C53.97,52.05 54.75,51.73 55.01,51.37 C55.29,50.99 55.39,50.36 54.99,49.82 Z" fill="#AB872F"/>
  <path d="M87.48,49.82 C86.55,48.59 84.41,46.81 80.25,46.81 C76.09,46.81 73.94,48.6 73.02,49.82 C72.61,50.36 72.71,50.99 73,51.37 C73.26,51.72 74.04,52.05 74.9,51.76 C75.76,51.47 77.44,50.6 80.25,50.58 C83.06,50.6 84.74,51.47 85.6,51.76 C86.46,52.05 87.24,51.73 87.5,51.37 C87.79,50.99 87.89,50.36 87.48,49.82 Z" fill="#AB872F"/>
  <path id="mouth" d="M72.32,76.14 C69.17,78.01 58.85,78.01 55.71,76.14 C53.9,75.07 52.06,76.71 52.81,78.35 C53.55,79.96 59.18,83.71 64.04,83.71 C68.9,83.71 74.46,79.96 75.2,78.35 C75.95,76.71 74.12,75.06 72.32,76.14 Z" fill="#6D4C41"/>
  <path id="hair_5_" d="M64.57,2.87 C23.56,2.87 23.89,40.79 23.89,41.39 C23.89,49.15 24.08,57.92 24.64,66.71 L31.36,66.69 C31.3,63.77 33.35,45.72 39.44,44.35 C61.8,39.32 74.45,27.46 74.45,27.46 C77.74,34.64 88.03,41.65 91.72,44.32 C94.75,46.51 95.99,62.87 95.93,66.7 L103.33,66.7 C103.33,66.65 103.35,66.6 103.35,66.54 C103.91,57.79 104.09,49.08 104.09,41.37 C104.1,40.79 105.58,2.87 64.57,2.87 Z" fill="#AB872F"/>
  <path id="hairHighlights" d="M64.57,2.87 C23.56,2.87 23.89,40.79 23.89,41.39 C23.89,49.15 24.08,57.92 24.64,66.71 L31.36,66.69 C31.3,63.77 33.35,45.72 39.44,44.35 C61.8,39.32 74.45,27.46 74.45,27.46 C77.74,34.64 88.03,41.65 91.72,44.32 C94.75,46.51 95.99,62.87 95.93,66.7 L103.33,66.7 C103.33,66.65 103.35,66.6 103.35,66.54 C103.91,57.79 104.09,49.08 104.09,41.37 C104.1,40.79 105.58,2.87 64.57,2.87 Z" fill="url(#hairHighlights_3_)"/>
</svg>