<svg viewBox="0 0 128 128" xmlns="http://www.w3.org/2000/svg">
  <defs/>
  <path d="M63.29,9.93 C78.21,10.15 79.69,13.54 84.06,13.66 C90.38,13.84 100.04,1.69 113.13,12.67 C126.03,23.49 115.52,40.47 115.52,40.47 C115.52,40.47 122.7,53.19 123.54,72.57 C124.15,86.6 118.75,104.06 94.54,113.96 C72.25,123.08 38.99,121.26 18.66,105.65 C2.9,93.56 4.01,75.92 4.44,69.91 C5.57,54.14 12.46,41.47 12.46,41.47 C12.46,41.47 2.27,21.32 14.71,11.77 C28.37,1.28 38.09,13.63 43.71,13.18 C47.8,12.84 49.14,9.72 63.29,9.93 Z" fill="#855B52"/>
  <path d="M35.98,20.77 C35.79,19.66 28.55,12.48 21.06,19.78 C15.29,25.41 21.06,35.2 22.05,34.42 C22.81,33.82 25.61,30.21 28.88,27.1 C32.23,23.91 36.05,21.2 35.98,20.77 Z" fill="#B99277"/>
  <path d="M92.5,20.84 C92.45,21.46 96.31,23.79 99.82,27.1 C103.37,30.45 106.57,34.77 107.14,34.7 C108.27,34.56 113.12,25.06 106.79,19.71 C100.46,14.36 92.64,19.01 92.5,20.84 Z" fill="#B99277"/>
  <path d="M64.51,60.38 C79.15,60.38 87.93,76.9 87.41,87.22 C86.94,96.61 81.59,104.4 63.57,104.3 C45.55,104.21 40.98,95.94 40.67,87.12 C40.39,79.24 46.02,60.38 64.51,60.38 Z" fill="#F2A258"/>
  <path d="M92.92,59.7 C93.25,63.86 91.02,67.65 86.75,67.33 C82.63,67.01 79.62,63.67 79.62,59.49 C79.62,55.31 81.84,52.35 85.18,51.89 C89.26,51.32 92.45,53.79 92.92,59.7 Z" fill="#171716"/>
  <path d="M74.55,76.99 C74.21,81.15 71.45,85.6 63.43,85.32 C56.7,85.08 53.53,80.6 53.43,76.43 C53.29,70.54 56.43,68.37 64.04,68.26 C72.72,68.15 75.02,71.27 74.55,76.99 Z" fill="#2F3030"/>
  <path d="M48.37,61.25 C47.94,65.4 44.04,68.31 40.39,67.42 C36.38,66.44 34.58,62.22 35.42,58.13 C36.17,54.47 39.38,51.62 43.02,52.03 C46.82,52.45 48.91,56.02 48.37,61.25 Z" fill="#171716"/>
  <path d="M63.99,95.04 C69.48,95.04 72.48,92.01 73.33,91.17 C74.18,90.33 75.32,88.89 77.08,90.33 C78.58,91.55 77.1,93.45 76.42,94.18 C75.2,95.49 71.52,99.49 63.49,99.13 C55.61,98.78 52.58,95.21 51.73,94.37 C50.89,93.53 49.48,91.37 51.07,90.15 C52.98,88.69 53.6,90.34 55.57,91.93 C57.54,93.52 58.78,95.04 63.99,95.04 Z" fill="#2F3030"/>
</svg>