<svg viewBox="0 0 128 128" xmlns="http://www.w3.org/2000/svg">
  <defs/>
  <path d="M31.1,89.64 L7.71,89.64 C6.88,89.64 6.17,89.09 5.96,88.29 C5.28,85.68 4,78.96 4,65.49 C4,53 5.1,47.86 5.81,45.85 C6.06,45.13 6.75,44.66 7.51,44.66 L31.1,44.66 L31.1,89.64 Z" fill="#37474F"/>
  <path d="M66.08,42.01 L100.36,16.16 L110.13,28.4 L91.81,42.21 Z" fill="#455A64"/>
  <path d="M99.8,39.29 C99.8,37.5 102.03,36.04 104.79,36.04 C107.54,36.04 109.78,37.49 109.78,39.29 C109.77,41.08 99.8,41.08 99.8,39.29 Z" fill="#82AEC0"/>
  <path d="M85.16,39.29 C85.16,37.5 87.39,36.04 90.15,36.04 C92.9,36.04 95.14,37.49 95.14,39.29 C95.13,41.08 85.16,41.08 85.16,39.29 Z" fill="#82AEC0"/>
  <path d="M113.81,117.31 L32.59,117.31 C28.04,117.31 25.44,113.76 24.35,109.27 C24.35,109.27 22.08,100.43 22.08,79.11 C22.08,57.79 24.35,47.2 24.35,47.2 C24.81,43.34 28.04,39.16 32.59,39.16 L113.8,39.16 C118.35,39.16 121.53,42.03 122.04,47.2 C122.04,47.2 123.99,58.35 123.99,78.4 C123.99,98.45 122.04,109.27 122.04,109.27 C122.05,113.71 118.36,117.31 113.81,117.31 Z" fill="#546E7A"/>
  <path d="M97.87,18.08 C97.87,18.08 100.57,19.45 103.32,23.36 C106.07,27.28 107.6,30.43 107.6,30.43 L114.09,28.79 C115.06,28.32 115.5,27.07 115.13,25.86 C114.6,24.11 113.82,20.88 111.3,17.38 C107.71,12.39 103.92,10.75 102.43,10.7 C101.66,10.67 100.99,11.13 100.65,11.89 L97.87,18.08 Z" fill="#37474F"/>
  <path d="M109.69,103.59 L44.24,103.59 C41.68,103.59 39.61,101.52 39.61,98.96 L39.61,89.95 L34.59,89.99 L34.54,84.48 L41.17,84.43 C41.18,84.43 41.19,84.43 41.2,84.43 C42.41,84.43 43.53,84.98 44.3,85.95 C44.86,86.67 45.11,87.57 45.11,88.48 L45.11,98.08 L107.05,98.08 L110.7,103.23 C110.42,103.46 110.06,103.59 109.69,103.59 Z" fill="#263238"/>
  <path d="M35.18,67.402 L42.81,67.402 L42.81,72.678 L35.18,72.678 L35.18,67.402 Z" fill="#82AEC0"/>
  <path d="M106.97,98.09 C106.97,98.09 107.82,91.04 107.82,78.23 C107.82,68.6 106.38,62.24 105.66,59.67 C105.45,58.91 104.75,58.39 103.96,58.39 L45.89,58.39 C44.37,58.39 40.84,52.88 42.36,52.88 L107.24,52.88 C108.66,52.88 109.92,53.81 110.32,55.18 C111.41,58.94 113.33,67.11 113.33,78.23 C113.33,90.96 111.83,99.52 111.19,102.45 C111.11,102.83 110.87,103.14 110.55,103.33 L106.97,98.09 Z" fill="#82AEC0"/>
  <path d="M37.47,49.44 A3.24 3.24 0 1 1 30.99,49.44 A3.24 3.24 0 1 1 37.47,49.44 Z" fill="#F44336"/>
  <path d="M7.67,47.65 C6.15,51.88 5.82,57.04 6.09,61.87 C6.13,62.59 6.74,63.15 7.47,63.16 L18.29,63.28 C19.07,63.29 19.7,62.65 19.7,61.87 C19.68,57.52 20.09,52.7 21.16,48.41 C21.38,47.53 20.71,46.69 19.81,46.69 L8.97,46.74 C8.39,46.74 7.86,47.1 7.67,47.65 Z" fill="#82AEC0" opacity="0.49"/>
  <path d="M12.36,89.62 C10.26,74.72 10.54,58.41 13.1,44.66 L11.1,44.66 C8.57,58.45 8.31,74.71 10.37,89.62 L12.36,89.62 Z" fill="#82AEC0"/>
  <path d="M10.73,46.72 C9.9,51.87 9.32,57.74 9.1,63.16 L11.07,63.17 C11.29,57.73 11.9,51.87 12.74,46.72 L10.73,46.72 Z" fill="#B9E4EA"/>
</svg>