<svg viewBox="0 0 128 128" xmlns="http://www.w3.org/2000/svg">
  <defs>
    <radialGradient id="c" cx="-28.631803" cy="-132.967786" gradientTransform="matrix(0.2322 -0.8128 -0.6266 -0.2803 0 0)" gradientUnits="userSpaceOnUse" r="45.83">
      <stop offset=".2997" stop-color="#E0BB95"/>
      <stop offset=".5052" stop-color="#DEB892"/>
      <stop offset=".6715" stop-color="#D6B088"/>
      <stop offset=".8" stop-color="#CCA47A"/>
    </radialGradient>
    <linearGradient id="b" gradientUnits="userSpaceOnUse" x1="6.9523" x2="114.51" y1="57.252" y2="57.252">
      <stop offset=".402" stop-color="#E0BB95"/>
      <stop offset=".6476" stop-color="#DEB892"/>
      <stop offset=".8464" stop-color="#D6B088"/>
      <stop offset="1" stop-color="#CCA47A"/>
    </linearGradient>
  </defs>
  <path d="M81.56,73.92 C81.8,77.03 79.86,79.83 76.82,80.6 C74.95,81.07 75.74,83.97 77.62,83.49 C81.87,82.41 84.9,78.31 84.57,73.92 C84.41,72 81.41,71.99 81.56,73.92 Z" fill="#EDA600"/>
  <path d="M69.86,114.71 C62.64,114.59 57.49,104.13 58.8,97.49 C60.29,89.99 65.2,85.25 74.17,86.35 C94.98,88.9 99.56,84.64 101.75,78.21 C104.78,69.34 107.82,29.01 107.82,29.01 C107.82,29.01 114.14,38.81 118.22,56.85 C119.86,64.08 121.18,70.83 122.16,76.25 C124.03,86.52 122.42,97.18 117.26,106.25 C115.05,110.14 112.44,113.32 109.62,113.98 C101.42,115.9 102.34,111.87 91.76,112 C81.81,112.14 75.74,116.26 69.86,114.71 Z" fill="url(#c)"/>
  <path d="M113.17,60.73 C111.6,41.32 111.29,18.3 95.28,18.27 C92.68,18.26 90.23,18.97 88.1,20.02 C85.8,21.16 83.05,20.62 81.44,18.62 C78.66,15.16 74.34,12.94 69.47,12.94 C64.26,12.94 59.66,15.49 56.92,19.39 C55.41,21.54 52.55,22.13 50.29,20.78 C48.58,19.76 46.67,19.14 44.63,19.03 C40.52,18.81 36.63,20.66 33.6,23.86 C32.76,24.75 31.54,25.15 30.35,24.89 C19.23,22.42 15.93,30.66 13.05,40.54 C13.05,40.54 -2.67,84.23 16.33,87.9 C17.78,88.18 21.44,88.77 22.76,88.63 C25.14,88.37 27.48,89.29 29.23,90.92 C32.01,93.51 35.43,95.13 38.9,95.32 C42.32,95.51 45.9,94.73 49.03,93.04 C51.24,91.85 53.93,92.64 55.33,94.73 C58.31,99.18 63.01,101.58 68.66,101.58 C73.18,101.58 78.39,100.26 81.51,97.22 C84.85,93.96 89.95,93.52 93.83,96.11 C95.98,97.54 99.33,98.46 105,97.25 C116.67,94.73 115.09,84.48 113.17,60.73 Z" fill="url(#b)"/>
  <path d="M57.519,92.344 Q60.057,97.769 69.894,99.257 Q75.984,100.182 82.689,95.291 Q83.732,94.53 84.136,94.316 Q88.435,92.037 96.26,94.759 Q101.845,96.702 104.779,96.285 Q111.751,95.287 113.37,88.629 Q114.974,82.033 112.341,66.491 Q112.091,65.012 113.569,64.761 Q115.048,64.511 115.299,65.989 Q118.035,82.141 116.285,89.338 Q114.186,97.969 105.201,99.255 Q101.547,99.774 95.275,97.593 Q88.684,95.3 85.544,96.964 Q85.328,97.079 84.457,97.715 Q76.754,103.334 69.446,102.223 Q58.02,100.495 54.801,93.616 Q54.484,92.936 54.664,92.438 Q54.845,91.939 55.524,91.621 Q56.883,90.986 57.519,92.344 Z" fill="#BA8F63"/>
  <path d="M69.47,15.94 C73.21,15.94 76.68,17.56 79.01,20.39 C80.68,22.42 83.12,23.58 85.71,23.58 C87.01,23.58 88.26,23.29 89.43,22.71 C91.37,21.75 93.33,21.27 95.28,21.27 C100.74,21.28 104.35,24.85 107.36,33.2 C107.85,34.55 108.39,35.95 108.97,37.43 C110.89,42.37 113.28,48.52 115.31,57.52 C116.7,63.67 118.02,70.16 119.23,76.79 C121,86.55 119.39,96.49 114.67,104.77 C111.74,109.93 109.69,110.89 108.95,111.06 C107.69,111.36 106.64,111.5 105.76,111.5 C104.46,111.5 103.59,111.19 102.27,110.71 C100.13,109.95 97.48,108.99 92.29,108.99 L91.74,108.99 C86.74,109.05 82.59,110.07 79.26,110.89 C76.75,111.51 74.58,112.04 72.69,112.04 C71.95,112.04 71.28,111.96 70.64,111.79 C70.41,111.73 70.17,111.69 69.92,111.69 C67.89,111.66 66.23,110.24 65.2,109.07 C62.77,106.29 61.28,101.89 61.67,98.62 C61.79,97.58 61.36,96.55 60.54,95.9 C59.48,95.07 58.58,94.1 57.86,93.03 C56.36,90.79 53.89,89.46 51.26,89.46 C50,89.46 48.75,89.78 47.64,90.38 C45.29,91.65 42.62,92.32 39.94,92.32 C39.66,92.32 39.38,92.31 39.1,92.3 C36.41,92.15 33.64,90.88 31.31,88.7 C29.13,86.67 26.4,85.56 23.6,85.56 C23.22,85.56 22.84,85.58 22.47,85.62 C22.42,85.62 22.36,85.63 22.3,85.63 C21.09,85.63 18.39,85.22 16.94,84.94 C14.71,84.51 13.13,83.37 11.99,81.37 C6.77,72.2 13.05,49.51 15.91,41.55 C15.93,41.49 15.95,41.43 15.97,41.38 C18.67,32.14 21.06,27.44 26.67,27.44 C27.6,27.44 28.64,27.57 29.74,27.81 C29.95,27.86 30.17,27.88 30.39,27.88 L30.51,27.88 C32.44,27.88 34.8,26.89 36.24,25.48 C38.57,23.21 41.25,22 43.99,22 C44.16,22 44.33,22 44.5,22.01 C46,22.09 47.45,22.54 48.79,23.34 C50.04,24.09 51.47,24.48 52.91,24.48 C55.49,24.48 57.92,23.21 59.41,21.09 C61.65,17.87 65.42,15.94 69.47,15.94 M69.47,12.94 C64.26,12.94 59.66,15.49 56.92,19.39 C55.95,20.77 54.44,21.5 52.88,21.5 C52,21.5 51.11,21.27 50.3,20.78 C48.59,19.76 46.68,19.14 44.64,19.03 C44.42,19.02 44.19,19.01 43.97,19.01 C40.33,19.01 36.9,20.63 34.12,23.34 C33.28,24.16 31.67,24.88 30.49,24.88 L30.37,24.88 C29.02,24.58 27.78,24.44 26.65,24.44 C18.46,24.44 15.61,31.85 13.07,40.54 C13.07,40.54 -2.65,84.23 16.35,87.9 C17.65,88.15 20.7,88.65 22.28,88.65 C22.47,88.65 22.64,88.64 22.78,88.63 C23.05,88.6 23.32,88.59 23.59,88.59 C25.69,88.59 27.7,89.48 29.26,90.93 C32.04,93.52 35.46,95.14 38.93,95.33 C39.26,95.35 39.6,95.36 39.93,95.36 C43.04,95.36 46.23,94.58 49.05,93.06 C49.75,92.68 50.5,92.5 51.24,92.5 C52.84,92.5 54.4,93.32 55.35,94.74 C56.29,96.14 57.42,97.32 58.68,98.3 C57.89,104.95 62.92,114.62 69.86,114.73 C70.79,114.98 71.72,115.08 72.68,115.08 C77.76,115.08 83.39,112.14 91.77,112.03 L92.29,112.03 C100.36,112.03 101.45,114.53 105.76,114.53 C106.81,114.53 108.05,114.38 109.63,114.01 C112.45,113.35 115.06,110.17 117.27,106.28 C122.43,97.21 124.04,86.55 122.17,76.28 C121.19,70.86 119.86,64.11 118.23,56.88 C115.53,44.96 112.27,38.01 110.18,32.2 C107.38,24.43 103.33,18.3 95.29,18.29 L95.26,18.29 C92.67,18.29 90.23,18.99 88.11,20.04 C87.35,20.42 86.53,20.6 85.72,20.6 C84.07,20.6 82.44,19.85 81.34,18.51 C78.55,15.11 74.27,12.94 69.47,12.94 Z" fill="#BA8F63"/>
  <path d="M31.772,50.225 Q27.093,68.329 28.227,86.969 Q28.273,87.718 27.921,88.115 Q27.57,88.512 26.821,88.557 Q25.324,88.648 25.233,87.151 Q24.07,68.038 28.868,49.475 Q29.055,48.749 29.512,48.479 Q29.969,48.21 30.695,48.398 Q32.148,48.773 31.772,50.225 Z" fill="#BA8F63"/>
  <path d="M55.316,49.062 Q54.242,56.971 54.226,72.916 Q54.211,88.717 55.188,90.896 Q55.803,92.264 54.434,92.879 Q53.066,93.493 52.451,92.124 Q51.21,89.358 51.226,72.914 Q51.242,56.767 52.344,48.658 Q52.546,47.172 54.032,47.374 Q55.518,47.576 55.316,49.062 Z" fill="#BA8F63"/>
  <path d="M83.32,44.256 Q87.213,67.871 87.57,93.969 Q87.59,95.469 86.091,95.49 Q84.591,95.51 84.57,94.011 Q84.216,68.137 80.36,44.744 Q80.116,43.264 81.596,43.02 Q82.336,42.898 82.767,43.207 Q83.198,43.516 83.32,44.256 Z" fill="#BA8F63"/>
</svg>