<svg viewBox="0 0 128 128" xmlns="http://www.w3.org/2000/svg">
  <defs/>
  <path d="M120.44,51.23 C122.34,47.29 123.4,42.88 123.4,38.21 C123.4,21.61 109.95,8.16 93.35,8.16 C89.46,8.16 85.74,8.91 82.32,10.26 C77.95,6.45 72.22,4.1 66,4.1 C58.4,4.1 51.6,7.5 47.1,12.8 C43.6,10.9 39.6,9.8 35.4,9.8 C22,9.9 11.1,20.7 11.1,34.1 C11.1,39.1 12.6,43.8 15.3,47.7 C10.3,51.7 6.8,57.6 6.1,64.5 C4.8,77.9 14.7,90 28.3,91.3 C31.5,91.6 34.5,91.3 37.4,90.5 C38.5,101.2 47.5,109.5 58.5,109.5 C65.5,109.5 71.7,106.1 75.5,100.9 C79.1,103.7 83.6,105.5 88.6,105.5 C99.6,105.5 108.7,97 109.5,86.3 C118,82.4 124,73.8 124,63.8 C124,59.21 122.67,54.88 120.44,51.23 Z" fill="#FFFFFF"/>
  <path d="M123.805,51.07 Q127,57.02 127,63.8 Q127,72.074 122.442,78.989 Q118.507,84.958 112.304,88.259 Q111.144,96.361 104.91,102.117 Q97.997,108.5 88.6,108.5 Q81.83,108.5 76.072,104.947 Q69.228,112.5 58.5,112.5 Q49.13,112.5 42.222,106.235 Q36.622,101.155 34.963,94.087 Q31.529,94.616 28.015,94.286 Q16.6,93.195 9.299,84.347 Q2.017,75.522 3.115,64.197 Q4.149,54.012 11.406,47.117 Q8.1,41.179 8.1,34.1 Q8.1,22.822 16.107,14.838 Q24.083,6.884 35.4,6.8 Q41.157,6.8 46.404,9.117 Q54.306,1.1 66,1.1 Q75.48,1.1 82.902,6.856 Q87.968,5.16 93.35,5.16 Q107.043,5.16 116.721,14.839 Q126.4,24.517 126.4,38.21 Q126.4,44.963 123.805,51.07 Z M117.738,49.927 Q120.4,44.406 120.4,38.21 Q120.4,27.003 112.479,19.081 Q104.557,11.16 93.35,11.16 Q88.211,11.16 83.422,13.05 L81.724,13.721 L80.349,12.521 Q74.13,7.1 66,7.1 Q55.875,7.1 49.387,14.742 L47.81,16.599 L45.669,15.437 Q40.812,12.8 35.4,12.8 Q26.582,12.866 20.343,19.087 Q14.1,25.312 14.1,34.1 Q14.1,40.696 17.767,45.992 L19.36,48.294 L17.174,50.043 Q10,55.782 9.085,64.803 Q8.229,73.624 13.926,80.528 Q19.646,87.459 28.585,88.314 Q32.66,88.696 36.602,87.608 L40.022,86.665 L40.384,90.193 Q41.096,97.113 46.253,101.79 Q51.446,106.5 58.5,106.5 Q67.692,106.5 73.078,99.13 L74.902,96.634 L77.342,98.532 Q82.444,102.5 88.6,102.5 Q95.65,102.5 100.84,97.708 Q105.995,92.949 106.508,86.076 L106.64,84.311 L108.249,83.573 Q113.962,80.952 117.433,75.686 Q121,70.275 121,63.8 Q121,57.901 117.88,52.794 L117.028,51.399 Z" fill="#000000"/>
  <path d="M24.3,97.3 C19.8,96.8 15.8,100.1 15.3,104.6 C14.8,109.1 18.1,113.1 22.6,113.5 C27.1,114 31.1,110.7 31.6,106.2 C32.1,101.7 28.8,97.7 24.3,97.3 Z" fill="#FFFFFF"/>
  <path d="M24.524,95.061 Q28.826,95.452 31.563,98.784 Q34.316,102.134 33.836,106.448 Q33.358,110.748 30.022,113.469 Q26.655,116.214 22.401,115.741 Q18.082,115.357 15.337,112.016 Q12.584,108.666 13.064,104.352 Q13.542,100.052 16.878,97.331 Q20.236,94.594 24.524,95.061 Z M24.052,99.536 Q21.625,99.267 19.722,100.819 Q17.811,102.377 17.536,104.848 Q17.266,107.276 18.813,109.159 Q20.361,111.042 22.799,111.259 Q25.275,111.533 27.178,109.981 Q29.089,108.423 29.364,105.952 Q29.634,103.524 28.087,101.641 Q26.539,99.758 24.101,99.541 Z" fill="#000000"/>
  <path d="M9,114.3 C6,114 3.3,116.2 3,119.2 C2.7,122.2 4.9,124.8 7.9,125.1 C10.9,125.4 13.6,123.2 13.9,120.2 C14.2,117.3 12,114.6 9,114.3 Z" fill="#FFFFFF"/>
  <path d="M9.224,112.061 Q12.388,112.378 14.423,114.843 Q16.461,117.311 16.139,120.424 Q15.821,123.602 13.335,125.631 Q10.853,127.657 7.676,127.339 Q4.504,127.022 2.486,124.605 Q0.443,122.159 0.761,118.976 Q1.079,115.798 3.565,113.769 Q6.047,111.743 9.224,112.061 Z M8.776,116.539 Q5.56,116.217 5.239,119.424 Q5.109,120.726 5.939,121.72 Q6.78,122.727 8.124,122.861 Q9.449,122.994 10.49,122.144 Q11.529,121.296 11.661,119.976 Q11.791,118.723 10.952,117.707 Q10.097,116.671 8.776,116.539 Z" fill="#000000"/>
</svg>