<svg viewBox="0 0 128 128" xmlns="http://www.w3.org/2000/svg" xmlns:xlink="http://www.w3.org/1999/xlink">
  <linearGradient id="h" gradientUnits="userSpaceOnUse" x1="63.75" x2="63.75" y1="92.167" y2="124.84">
    <stop offset=".2748" stop-color="#757575"/>
    <stop offset=".9927" stop-color="#BDBDBD"/>
  </linearGradient>
  <rect fill="url(#h)" height="40" width="18" x="54.75" y="84"/>
  <g opacity=".2">
    <path d="m69.75 87v34h-12v-34h12m3-3h-18v40h18v-40z" fill="#444"/>
  </g>
  <linearGradient id="d" gradientUnits="userSpaceOnUse" x1="76.094" x2="76.094" y1="23.5" y2="90.394">
    <stop offset="0" stop-color="#64B5F6"/>
    <stop offset=".6645" stop-color="#2196F3"/>
  </linearGradient>
  <path d="m123.95 95.96h-95.71v-72h69.72c14.36 0 26 11.64 26 26v46z" fill="url(#d)"/>
  <linearGradient id="c" gradientUnits="userSpaceOnUse" x1="26.388" x2="26.388" y1="23.75" y2="96">
    <stop offset=".3323" stop-color="#90CAF9"/>
    <stop offset="1" stop-color="#42A5F5"/>
  </linearGradient>
  <path d="M48.78,95.96H4V46.35c0-12.36,10.02-22.39,22.39-22.39h0c12.36,0,22.39,10.02,22.39,22.39 V95.96z" fill="url(#c)"/>
  <path d="m37.39 51.62h-22c-1.1 0-2-0.9-2-2v-4c0-1.1 0.9-2 2-2h22c1.1 0 2 0.9 2 2v4c0 1.11-0.9 2-2 2z" fill="#1E88E5"/>
  <g opacity=".2">
    <path d="m97.95 26.96c12.68 0 23 10.32 23 23v43h-113.95v-46.61c0-10.69 8.7-19.39 19.39-19.39 0.49 0 1.01 0.02 1.6 0.07 0.08 0.01 0.16 0.01 0.24 0.01 0.24 0 0.47-0.03 0.7-0.08h69.02m0-3h-69.71v0.08c-0.61-0.05-1.22-0.08-1.85-0.08-12.37 0-22.39 10.02-22.39 22.39v49.61h119.95v-46c0-14.36-11.64-26-26-26z" fill="#444"/>
  </g>
  <linearGradient id="b" gradientUnits="userSpaceOnUse" x1="76.861" x2="76.861" y1="12.5" y2="64.502">
    <stop offset=".2273" stop-color="#EF5350"/>
    <stop offset=".7827" stop-color="#E53935"/>
  </linearGradient>
  <path d="m85.89 4.24h-18.06c-3.31 0-6 2.69-6 6v3.76c0 0.18 0.01 0.36 0.03 0.53v42.56c0 1.37 1.11 2.49 2.49 2.49h5.02c1.37 0 2.49-1.11 2.49-2.49v-37.09h14.04c3.31 0 6-2.69 6-6v-3.76c-0.01-3.31-2.69-6-6.01-6z" fill="url(#b)"/>
  <g opacity=".2">
    <path d="m85.89 6.24c2.21 0 4 1.79 4 4v3.76c0 2.21-1.79 4-4 4h-14.04c-1.1 0-2 0.9-2 2v37.09c0 0.27-0.22 0.49-0.49 0.49h-5.02c-0.27 0-0.49-0.22-0.49-0.49v-42.56c0-0.06 0-0.12-0.01-0.18-0.01-0.12-0.02-0.24-0.02-0.36v-3.76c0-2.21 1.79-4 4-4h18.07m0-1.99h-18.06c-3.31 0-6 2.69-6 6v3.76c0 0.18 0.01 0.36 0.03 0.53v42.56c0 1.37 1.11 2.49 2.49 2.49h5.02c1.37 0 2.49-1.11 2.49-2.49v-37.09h14.04c3.31 0 6-2.69 6-6v-3.76c-0.01-3.31-2.69-6-6.01-6z" fill="#444"/>
  </g>
  <radialGradient id="i" cx="63.854" cy="56.168" gradientUnits="userSpaceOnUse" r="14.929">
    <stop offset="0" stop-color="#ECEFF1"/>
    <stop offset=".6718" stop-color="#B0BEC5"/>
  </radialGradient>
  <circle cx="66.85" cy="59.42" fill="url(#i)" r="9"/>
  <g opacity=".2">
    <path d="m66.85 52.42c3.86 0 7 3.14 7 7s-3.14 7-7 7-7-3.14-7-7 3.14-7 7-7m0-2c-4.97 0-9 4.03-9 9s4.03 9 9 9 9-4.03 9-9-4.03-9-9-9z" fill="#444"/>
  </g>
</svg>