<svg viewBox="0 0 128 128" xmlns="http://www.w3.org/2000/svg">
  <defs/>
  <path d="M62.87,81.8 L52.59,84.33 C52.59,84.33 54.49,99.11 54.07,101.15 C53.65,103.19 51.89,110.72 51.32,111.29 C50.76,111.85 46.48,115.76 47.87,117.7 C48.86,119.07 51.28,119.46 53.64,119.46 C54.98,119.46 58.5,119.35 59.13,117.88 C59.76,116.4 59.66,114.25 59.66,114.25 C59.66,114.25 63.78,105.59 64.2,103.06 C64.63,100.53 62.87,81.8 62.87,81.8 Z" fill="#DF9047"/>
  <path d="M88,88.21 C88,88.21 90.25,98.77 89.9,100.67 C89.55,102.57 88,108.13 87.65,108.91 C87.3,109.68 83.85,114.21 85.96,115.74 C87.61,116.94 89.76,116.94 91.59,116.94 C94.3,116.94 96.09,115.88 96.73,114.83 C97.36,113.77 97.22,110.47 97.22,110.47 C97.22,110.47 100.11,100.62 100.18,99.35 C100.25,98.08 97.36,83.3 97.36,83.3 L88,88.21 Z" fill="#DF9047"/>
  <path d="M54.91,18.45 L39.64,38.16 L18.24,38.65 L18.31,38.16 L12.4,43.4 C12.4,43.4 14.9,43.05 16.52,42.52 C17.6,42.17 18.7,41.75 19.48,41.96 C20.25,42.17 22.75,43.86 24.02,44.49 C25.29,45.12 27.96,46.39 27.96,46.39 L28.17,54.91 L40.77,62.79 L48.3,50.89 C48.3,50.89 48.44,44.27 49,43.22 C49.56,42.16 53.06,39.97 54,32.66 C54.6,27.98 54.81,26.4 54.81,26.4 C54.81,26.4 58.49,23.62 59,21.33 C59.67,18.34 58.12,16.3 58.12,16.3 L54.91,18.45 Z" fill="#DF9047"/>
  <path d="M51.68,24.86 C51.68,24.86 51.54,35.35 49.43,39.08 C47.82,41.93 43.39,45.47 39.73,45.8 C31.21,46.57 21.23,39.89 19.02,40.14 C17.12,40.35 11.98,47.04 5.86,41.13 C1.35,36.77 3.96,23.67 14.52,21.42 C18.34,20.61 22.4,20.36 23.74,19.73 C25.08,19.1 28.11,15.19 31.48,13.54 C35.35,11.64 38.31,11.57 38.31,11.57 C38.31,11.57 39.18,7.49 42.89,7.63 C46.69,7.77 46.34,11.78 46.34,11.78 C46.34,11.78 47.75,11.99 49.16,13.05 C49.96,13.65 51.41,15.23 51.41,15.23 C51.41,15.23 55.69,12.71 57.89,15.93 C61.32,20.99 51.68,24.86 51.68,24.86 Z" fill="#F6B03E"/>
  <path d="M7.49,30.77 C7.49,30.77 12.05,27.76 13.68,29.55 C15.65,31.71 8.19,33.96 8.19,33.96 L8.01,37.1 C8.01,37.1 9,38.09 10.78,37.99 C12.56,37.89 14.3,36.39 15.33,37.52 C16.36,38.65 11.9,43.12 6.06,39.95 C4,38.83 3.15,35.54 3.6,35.22 C4.73,34.42 4.59,36.82 5.29,36.21 C5.48,35.6 5.48,32.36 5.48,32.36 C5.48,32.36 4.21,28.75 5.53,28.09 C6.84,27.44 7.49,30.77 7.49,30.77 Z" fill="#BA8859"/>
  <path d="M32.65,25.56 C33.59,25.37 35.09,25.41 37.34,25.47 C39.08,25.52 41.13,25.44 41.19,26.41 C41.28,27.91 40.32,28.65 39.55,29.13 C38.42,29.83 36.41,29.88 35.05,29.27 C32.49,28.12 31.71,25.75 32.65,25.56 Z" fill="#323230"/>
  <path d="M33.16,26.31 C33.16,26.31 32.81,26.97 31.42,27.76 C30.68,28.19 29.1,28.07 29.12,29.21 C29.14,30.27 30.83,30.24 32.24,29.59 C33.65,28.93 34.63,27.57 34.63,27.57 L34.88,28.65 C34.88,28.65 34.01,29.54 33.26,29.92 C32.51,30.3 31.09,30.81 31.63,31.66 C32.17,32.5 34.03,31.91 35.09,30.94 C36.02,30.1 36.88,28.93 36.88,28.93 L37.7,29.14 C37.7,29.14 37.11,30.24 36.55,30.85 C35.99,31.46 34.6,32.38 35.42,33.34 C36.24,34.3 38.15,32.68 38.92,31.11 C39.65,29.61 39.69,28.34 39.69,28.34 L33.16,26.31 Z" fill="#323230"/>
  <path d="M39.36,54.94 C34.22,56.07 28.1,52.8 28.1,52.8 C28.1,52.8 28.15,66.26 30.42,72.4 C32.51,78.05 37.2,82.9 43.4,85.15 C49.6,87.4 56.45,87.68 59.54,87.5 C62.63,87.32 63.67,87.03 63.67,87.03 C63.67,87.03 64.89,87.78 65.45,88.06 C66.01,88.34 66.95,88.53 66.95,88.53 C66.95,88.53 69.01,97.07 68.73,100.26 C68.45,103.45 65.35,113.96 65.35,113.96 C65.35,113.96 60.71,117.74 62.35,119.87 C63.43,121.28 67.14,121.66 69.76,121.66 C72.38,121.66 75.85,121.11 76.66,118.14 C77.08,116.58 76.99,113.76 76.99,113.76 C76.99,113.76 78.21,108.41 78.68,106.53 C79.15,104.65 79.99,102.49 79.99,101.27 C79.99,100.05 79.43,96.67 79.43,94.51 C79.43,92.35 79.43,90.1 79.43,90.1 C79.43,90.1 85.06,90.19 90.79,89.44 C96.52,88.69 99.61,86.72 99.61,86.72 C99.61,86.72 102.33,92.82 103.08,95.26 C103.83,97.7 104.3,99.39 104.3,100.05 C104.3,100.71 102.14,110.75 102.14,110.75 C102.14,110.75 97.54,115.35 97.92,117.79 C98.3,120.23 102.05,119.95 106.55,119.57 C111.05,119.19 111.43,116.85 111.43,114.69 C111.43,112.53 114.81,103.05 114.81,100.8 C114.81,98.55 111.62,88.32 111.9,86.82 C112.18,85.32 112.93,82.41 113.4,79.97 C113.87,77.53 114.24,73.21 114.24,73.21 C114.24,73.21 115.37,78.84 117.15,81.75 C118.93,84.66 121.56,87.85 123.25,86.25 C124.94,84.65 121.65,83.34 120.9,79.12 C120.15,74.9 119.87,62.7 116.77,55.47 C113.67,48.24 106.73,45.9 106.73,45.9 C106.73,45.9 103.67,31.42 101.6,27.01 C99.53,22.6 94.43,17.37 88.05,17.93 C81.67,18.49 75.12,21.74 72.49,26.9 C69.86,32.06 69.18,42.7 68.43,43.27 C67.68,43.83 61.86,46.27 59.61,51.25 C57.36,56.22 57.36,59.51 57.36,59.51 C57.36,59.51 53.67,60.74 50.98,58.48 C47.72,55.73 48.39,48.56 48.39,48.56 C48.39,48.56 47.05,53.25 39.36,54.94 Z" fill="#F6B03E"/>
  <path d="M86.66,13.36 C80.75,13.45 77.31,16.82 75.02,21.15 C72.3,26.31 71.74,28.85 71.74,28.85 C71.74,28.85 72.48,28.84 73.99,27.07 C75.28,25.56 76.21,23.42 78.07,23.95 C80.92,24.76 74.87,31.57 79.69,32.96 C86.52,34.93 82.4,24.55 86.76,24.69 C91.83,24.85 86.56,34.2 93.22,33.17 C99.46,32.2 92.7,24.41 96.4,23.21 C98.83,22.42 98.95,25.58 99.88,26.87 C101.38,28.93 102.6,29.6 102.6,29.6 C102.6,29.6 101.46,23.24 97.81,18.62 C95.49,15.65 92.16,13.27 86.66,13.36 Z" fill="#E09147"/>
</svg>