<svg viewBox="0 0 128 128" xmlns="http://www.w3.org/2000/svg">
  <defs/>
  <path d="M116.34,101.95 L11.67,101.95 C7.47,101.95 4.04,98.52 4.04,94.32 L4.04,33.68 C4.04,29.48 7.47,26.05 11.67,26.05 L116.34,26.05 C120.54,26.05 123.97,29.48 123.97,33.68 L123.97,94.32 C123.97,98.52 120.54,101.95 116.34,101.95 Z" fill="#FFC107"/>
  <path d="M4.03,38.88 L123.98,38.88 L123.98,54.95 L4.03,54.95 L4.03,38.88 Z" fill="#424242"/>
  <path d="M114.2,74.14 L13.87,74.14 C12.89,74.14 12.08,73.34 12.08,72.35 L12.08,63.94 C12.08,62.96 12.88,62.15 13.87,62.15 L114.2,62.15 C115.18,62.15 115.99,62.95 115.99,63.94 L115.99,72.35 C115.98,73.33 115.18,74.14 114.2,74.14 Z" fill="#FFFFFF"/>
  <path d="M23.092,70.03 Q23.349,69.535 23.687,68.358 Q24.019,67.205 24.278,66.629 Q25.598,63.7 28.136,64.102 Q29.83,64.377 30.837,66.412 Q32.185,65.156 34.177,64.5 Q34.898,64.25 35.472,64.357 Q36.565,64.564 37.344,66.123 Q38.216,67.823 39.421,69.284 Q39.888,69.86 40.194,69.954 Q40.628,70.081 41.776,68.909 Q43.018,67.641 43.874,67.293 Q45.525,66.626 48.381,68.08 Q49.787,68.795 50.443,68.917 Q51.966,69.2 54.365,67.833 Q56.244,66.763 57.429,66.495 Q58.354,66.289 59.028,66.476 Q60.019,66.762 61.003,68.203 Q61.034,68.249 61.045,68.265 Q62.557,70.491 64.056,70.5 Q64.735,70.507 66.207,69.789 Q66.427,69.681 66.538,69.628 Q72.702,66.685 78.041,68.556 Q78.985,68.887 78.654,69.831 Q78.323,70.775 77.379,70.444 Q72.819,68.845 67.402,71.432 Q67.297,71.482 67.084,71.586 Q65.188,72.511 64.044,72.5 Q61.493,72.484 59.395,69.395 Q59.377,69.369 59.351,69.331 Q58.773,68.484 58.492,68.404 Q58.3,68.35 57.871,68.445 Q56.976,68.648 55.355,69.571 Q52.32,71.3 50.077,70.883 Q49.137,70.709 47.474,69.862 Q45.43,68.822 44.626,69.147 Q44.156,69.338 43.205,70.308 Q41.217,72.337 39.606,71.866 Q38.717,71.592 37.879,70.556 Q36.535,68.929 35.556,67.017 Q35.219,66.344 35.108,66.323 Q35.053,66.313 34.803,66.4 Q32.774,67.068 31.613,68.538 Q32.065,70.199 32.11,71.954 Q32.141,72.965 31.656,73.543 Q31.648,73.552 31.64,73.561 Q30.981,74.309 29.935,74.079 Q29.061,73.887 28.614,73.147 Q28.06,72.229 28.407,70.76 Q28.753,69.334 29.414,68.2 Q29.341,67.992 29.26,67.787 Q28.638,66.21 27.824,66.078 Q26.794,65.915 26.102,67.451 Q25.901,67.896 25.609,68.911 Q25.216,70.279 24.868,70.95 Q24.638,71.394 24.301,71.501 Q23.964,71.608 23.52,71.378 Q22.632,70.917 23.092,70.03 Z" fill="#424242"/>
</svg>