<svg viewBox="0 0 128 128" xmlns="http://www.w3.org/2000/svg">
  <defs/>
  <path d="M116.46,3.96 L12.46,3.96 C8.04,3.96 4.46,7.54 4.46,11.96 L4.46,115.96 C4.46,120.38 8.04,123.96 12.46,123.96 L116.46,123.96 C120.88,123.96 124.46,120.38 124.46,115.96 L124.46,11.96 C124.46,7.54 120.88,3.96 116.46,3.96 Z" fill="#689F38"/>
  <path d="M110.16,3.96 L11.96,3.96 C7.83,3.99 4.49,7.33 4.46,11.46 L4.46,109.36 C4.45,113.5 7.8,116.85 11.94,116.86 C11.95,116.86 11.95,116.86 11.96,116.86 L110.06,116.86 C114.2,116.87 117.55,113.52 117.56,109.38 C117.56,109.37 117.56,109.37 117.56,109.36 L117.56,11.46 C117.65,7.41 114.43,4.05 110.38,3.96 C110.31,3.96 110.23,3.96 110.16,3.96 Z" fill="#7CB342"/>
  <path d="M9.618,109.285 L21.618,94.485 Q23.085,92.676 24.994,94.012 L34.578,100.721 L41.205,86.88 Q41.502,86.261 42.073,85.88 L54.073,77.88 Q54.935,77.305 55.95,77.509 Q56.966,77.712 57.54,78.573 Q57.571,78.619 57.599,78.666 L66.975,94.164 L75.206,71.119 Q75.554,70.144 76.49,69.701 Q77.426,69.257 78.401,69.606 Q79.196,69.89 79.656,70.598 L89.07,85.08 L100.981,63.202 L108.807,23.378 Q109.007,22.362 109.866,21.785 Q110.726,21.207 111.742,21.407 Q112.758,21.607 113.335,22.466 Q113.913,23.326 113.713,24.342 L105.813,64.542 Q105.739,64.918 105.556,65.255 L91.456,91.155 Q91.153,91.711 90.622,92.056 Q89.754,92.62 88.741,92.406 Q87.728,92.191 87.164,91.322 L78.216,77.556 L69.914,100.801 Q69.615,101.639 68.854,102.099 Q67.968,102.635 66.963,102.388 Q65.957,102.14 65.421,101.254 L54.673,83.489 L45.418,89.659 L37.815,105.54 Q37.726,105.725 37.608,105.894 Q37.014,106.742 35.994,106.922 Q34.975,107.102 34.126,106.508 L24.035,99.444 L13.502,112.435 Q12.85,113.239 11.82,113.346 Q10.79,113.454 9.985,112.802 Q9.181,112.15 9.074,111.12 Q8.966,110.09 9.618,109.285 Z" fill="#EFEBE9"/>
  <path d="M40.16,12.86 C40.16,10.56 38.56,9.86 29.36,10.16 C21.66,10.46 17.86,11.36 15.56,14.16 C13.26,16.96 12.66,22.66 12.56,29.46 C12.56,34.26 12.56,38.76 15.06,38.76 C18.46,38.76 18.46,30.86 21.26,26.46 C26.66,17.76 40.16,15.86 40.16,12.86 Z" fill="#ABC884" opacity="0.65"/>
  <path d="M41.26,39.36 L51.56,17.16 C51.86,16.55 52.48,16.16 53.16,16.16 L58.26,16.16 C58.86,16.16 59.34,16.64 59.35,17.23 C59.35,17.38 59.32,17.52 59.26,17.66 L47.06,41.66 C46.82,42.2 47.07,42.83 47.61,43.07 C47.72,43.12 47.84,43.15 47.96,43.16 L54.86,43.16 C55.5,43.14 56.04,43.64 56.06,44.28 C56.06,44.31 56.06,44.33 56.06,44.36 L56.06,46.66 C56.08,47.3 55.58,47.84 54.94,47.86 C54.91,47.86 54.89,47.86 54.86,47.86 L44.96,47.86 C44.41,47.86 43.96,48.31 43.96,48.86 L43.96,52.96 C43.96,53.51 44.41,53.96 44.96,53.96 L54.86,53.96 C55.5,53.94 56.04,54.44 56.06,55.08 C56.06,55.11 56.06,55.13 56.06,55.16 L56.06,57.36 C56.08,58 55.58,58.54 54.94,58.56 C54.91,58.56 54.89,58.56 54.86,58.56 L44.96,58.56 C44.41,58.56 43.96,59.01 43.96,59.56 L43.96,69.26 C43.95,69.97 43.37,70.55 42.66,70.56 L38.06,70.56 C37.35,70.55 36.77,69.97 36.76,69.26 L36.76,59.56 C36.76,59.01 36.31,58.56 35.76,58.56 L26.06,58.56 C25.42,58.58 24.88,58.08 24.86,57.44 C24.86,57.41 24.86,57.39 24.86,57.36 L24.86,55.16 C24.84,54.52 25.34,53.98 25.98,53.96 C26.01,53.96 26.03,53.96 26.06,53.96 L35.76,53.96 C36.31,53.96 36.76,53.51 36.76,52.96 L36.76,48.86 C36.76,48.31 36.31,47.86 35.76,47.86 L26.06,47.86 C25.42,47.88 24.88,47.38 24.86,46.74 C24.86,46.71 24.86,46.69 24.86,46.66 L24.86,44.36 C24.84,43.72 25.34,43.18 25.98,43.16 C26.01,43.16 26.03,43.16 26.06,43.16 L33.06,43.16 C33.61,43.18 34.07,42.75 34.09,42.19 C34.1,42 34.05,41.82 33.96,41.66 L21.76,17.66 C21.48,17.18 21.64,16.57 22.11,16.29 C22.31,16.17 22.53,16.13 22.76,16.16 L27.96,16.16 C28.64,16.16 29.26,16.55 29.56,17.16 L39.86,39.36 C40.04,39.75 40.49,39.92 40.88,39.74 C41.05,39.67 41.18,39.53 41.26,39.36 Z" fill="#EFEBE9"/>
  <path d="M40.16,12.86 C40.16,10.56 38.56,9.86 29.36,10.16 C21.66,10.46 17.86,11.36 15.56,14.16 C13.26,16.96 12.66,22.66 12.56,29.46 C12.56,34.26 12.56,38.76 15.06,38.76 C18.46,38.76 18.46,30.86 21.26,26.46 C26.66,17.76 40.16,15.86 40.16,12.86 Z" fill="#ABC884" opacity="0.3"/>
</svg>