<svg viewBox="0 0 128 128" xmlns="http://www.w3.org/2000/svg">
  <defs>
    <linearGradient id="veil_1_" gradientTransform="matrix(1 0 0 -1 0 0)" gradientUnits="userSpaceOnUse" x1="63.9935" x2="63.9935" y1="-11.6424" y2="-153.177">
      <stop offset="0" stop-color="#EEEEEE"/>
      <stop offset="1" stop-color="#BDBDBD"/>
    </linearGradient>
    <linearGradient id="SVGID_1_" gradientTransform="matrix(1 0 0 -1 0 0)" gradientUnits="userSpaceOnUse" x1="63.998" x2="63.998" y1="-91.402" y2="-127.4993">
      <stop offset="0.1785" stop-color="#FAFAFA"/>
      <stop offset="0.8279" stop-color="#E0E0E0"/>
    </linearGradient>
    <radialGradient id="hairHighlights_3_" cx="-70.3101" cy="-64.680878" fx="-21.1865" fy="-64.643278" gradientTransform="matrix(0 -1 -0.9863 0 0 0)" gradientUnits="userSpaceOnUse" r="49.9839">
      <stop offset="0.8217" stop-color="#6D4C41" stop-opacity="0"/>
      <stop offset="0.9701" stop-color="#6D4C41"/>
    </radialGradient>
    <radialGradient id="hairHighlights_4_" cx="65.1591" cy="-56.76954" gradientTransform="matrix(1 0 0 -1.3488 0 0)" gradientUnits="userSpaceOnUse" r="52.1692">
      <stop offset="0.7603" stop-color="#6D4C41" stop-opacity="0"/>
      <stop offset="1" stop-color="#6D4C41"/>
    </radialGradient>
    <linearGradient id="SVGID_2_" gradientTransform="matrix(1 0 0 -1 0 0)" gradientUnits="userSpaceOnUse" x1="64.4285" x2="64.4285" y1="-14.3678" y2="-24.9435">
      <stop offset="0.2533" stop-color="#FFFFFF"/>
      <stop offset="1" stop-color="#E0E0E0"/>
    </linearGradient>
  </defs>
  <path id="veil_2_" d="M63.79,9 C-0.15,9 3.84,124 3.84,124 L124.17,124 C124.16,124 127.74,9 63.79,9 Z" fill="url(#veil_1_)"/>
  <path d="M64.57,4.12 C23.56,4.12 23.89,43.89 23.89,44.5 C23.89,69.06 25.77,101.9 35.6,115.55 C39.5,120.96 47.03,121.26 47.03,121.26 L64,121.23 L80.97,121.26 C80.97,121.26 88.51,120.96 92.4,115.55 C102.23,101.9 104.11,69.06 104.11,44.5 C104.1,43.9 105.58,4.12 64.57,4.12 Z" fill="#543930"/>
  <path id="hairHighlights_1_" d="M64.57,4.12 C23.56,4.12 23.89,43.89 23.89,44.5 C23.89,69.06 25.77,101.9 35.6,115.55 C39.5,120.96 47.03,121.26 47.03,121.26 L64,121.23 L80.97,121.26 C80.97,121.26 88.51,120.96 92.4,115.55 C102.23,101.9 104.11,69.06 104.11,44.5 C104.1,43.9 105.58,4.12 64.57,4.12 Z" fill="url(#hairHighlights_3_)"/>
  <path d="M113.13,98.06 C111.59,96.1 109.26,95.01 106.83,95.01 C106.21,95.01 105.58,95.08 104.97,95.23 C102.69,95.77 100.15,96.57 98.55,97.71 C97.43,98.5 96.12,98.95 94.79,98.95 C94.18,98.95 93.58,98.86 92.98,98.67 C84.29,95.87 73.87,94.45 63.42,94.45 C63.41,94.45 63.4,94.45 63.4,94.45 L63.4,94.45 C63.37,94.45 63.33,94.45 63.29,94.45 C53.09,94.46 42.87,95.66 34.25,98.23 C33.68,98.4 33.1,98.48 32.52,98.48 C31.33,98.48 30.14,98.13 29.15,97.43 C27.6,96.34 25.12,95.6 22.9,95.12 C22.34,95 21.77,94.94 21.21,94.94 C18.79,94.94 16.46,96.04 14.92,97.99 C11.97,101.73 7.94,107.53 7.94,111.39 C7.94,115.16 11.26,117.96 11.26,119.89 L11.26,124 L114.26,124 L114.26,119.89 C114.26,118.25 120.04,115.67 120.04,111.39 C120.05,107.55 116.08,101.81 113.13,98.06 Z" fill="url(#SVGID_1_)"/>
  <path d="M78.43,99.5 C74.5,97.17 74.84,91.42 74.84,91.42 C74.32,89.75 71.9,90.08 70.15,90.08 L64,90.08 L64,90.08 L57.86,90.08 C56.11,90.08 53.69,89.75 53.17,91.42 C53.17,91.42 53.5,97.17 49.58,99.5 C46.51,101.32 43.04,104.03 43.04,107.81 C43.04,113.19 43.08,110.58 43.14,111.48 C43.19,112.21 53.6,112.49 64.01,112.41 C64.01,112.41 64.01,112.41 64.01,112.41 C74.42,112.49 84.83,112.21 84.88,111.48 C84.94,110.58 84.98,113.19 84.98,107.81 C84.97,104.03 81.5,101.32 78.43,99.5 Z" fill="#E59600"/>
  <path d="M54.51,111.97 C53.3,109.02 49.57,112.21 44.25,114.39 C38.93,116.58 34.03,116.93 35.25,119.88 C35.7,120.97 37.04,122.55 38.81,123.99 L52.88,123.99 C55.15,120.09 55.4,114.13 54.51,111.97 Z" fill="#C2185B"/>
  <path d="M54.478,110.561 C55.353,112.691 51.747,116.191 46.424,118.378 C41.101,120.564 36.076,120.61 35.201,118.48 C34.325,116.35 37.931,112.85 43.255,110.663 C48.578,108.476 53.602,108.43 54.478,110.561 Z" fill="#EC407A"/>
  <path d="M49.529,113.787 C49.867,114.609 48.48,115.958 46.432,116.8 C44.383,117.641 42.449,117.657 42.111,116.834 C41.773,116.012 43.16,114.663 45.208,113.821 C47.257,112.98 49.191,112.964 49.529,113.787 Z" fill="#D81B60"/>
  <path d="M74.72,109.38 C74.99,108.03 74.72,107.05 74.72,107.05 C73.18,105.05 68.27,105.11 63.27,104.95 C58.58,104.8 53.9,104.21 52.07,105.77 C51.42,106.32 51.65,107.76 51.69,108.65 C51.87,112.51 56.21,123.42 62.41,123.99 L63.45,123.99 C71.75,123.32 73.96,113.09 74.72,109.38 Z" fill="#C2185B"/>
  <path d="M63.44,124 L62.4,124 C62.51,124.01 62.62,124.03 62.73,124.03 C62.97,124.04 63.21,124.02 63.44,124 Z" fill="#C2185B"/>
  <path d="M63.396,102.937 C69.755,103.136 74.852,105.141 74.781,107.416 C74.71,109.69 69.497,111.372 63.138,111.173 C56.779,110.974 51.681,108.969 51.752,106.695 C51.824,104.42 57.037,102.738 63.396,102.937 Z" fill="#EC407A"/>
  <path d="M63.321,106.331 C65.607,106.403 67.438,107.123 67.413,107.94 C67.387,108.757 65.514,109.361 63.229,109.29 C60.943,109.218 59.111,108.498 59.137,107.681 C59.163,106.864 61.036,106.26 63.321,106.331 Z" fill="#D81B60"/>
  <path d="M92.17,119.89 C93.38,116.94 88.49,116.58 83.17,114.4 C77.85,112.22 74.12,109.02 72.91,111.98 C72.02,114.14 72.27,120.1 74.55,124.01 L88.62,124.01 C90.39,122.55 91.72,120.97 92.17,119.89 Z" fill="#C2185B"/>
  <path d="M85.162,109.54 C90.485,111.727 93.863,115.781 92.707,118.596 C91.55,121.411 86.298,121.92 80.974,119.734 C75.651,117.547 72.273,113.492 73.43,110.677 C74.586,107.862 79.839,107.353 85.162,109.54 Z" fill="#EC407A"/>
  <path d="M83.929,113.672 C86.1,114.564 87.477,116.219 87.005,117.368 C86.533,118.518 84.39,118.726 82.219,117.834 C80.048,116.942 78.67,115.287 79.142,114.138 C79.615,112.989 81.758,112.78 83.929,113.672 Z" fill="#D81B60"/>
  <path d="M61.74,121 C59.37,116.64 52.36,115.87 52.36,115.87 C52.36,115.87 50.24,120.08 50.77,124 L62.58,124 C62.5,122.96 62.26,121.93 61.74,121 Z" fill="#2E7D32"/>
  <path d="M49.62,122.43 C45.16,120.25 39,123.7 39,123.7 C39,123.7 39.02,123.81 39.06,124.01 L51.71,124.01 C51.12,123.37 50.43,122.82 49.62,122.43 Z" fill="#43A047"/>
  <path d="M77.07,118.89 C77.07,118.89 70.08,119.66 67.7,124 L78.62,124 C78.23,121.21 77.07,118.89 77.07,118.89 Z" fill="#2E7D32"/>
  <path d="M73.12,116.56 C73.12,116.56 66.07,116.31 63.1,120.29 C62.28,121.39 61.87,122.69 61.68,124 L73.72,124 C74.4,120.41 73.12,116.56 73.12,116.56 Z" fill="#43A047"/>
  <path d="M79.29,122.8 C78.65,123.11 78.1,123.53 77.59,124 L89.83,124 C89.12,123.62 83.46,120.75 79.29,122.8 Z" fill="#43A047"/>
  <path d="M64,16.04 L64,16.04 L64,16.04 C46.8,16.04 30.87,28.83 30.87,55.95 C30.87,77.73 44.36,90.62 56.1,94.78 C58.9,95.77 61.6,96.27 64,96.27 C66.38,96.27 69.07,95.78 71.85,94.8 C83.61,90.66 97.13,77.77 97.13,55.96 C97.13,28.83 81.2,16.04 64,16.04 Z" fill="#FFCA28"/>
  <path d="M52.49,58.81 A4.93 5.1 0 1 1 42.63,58.81 A4.93 5.1 0 1 1 52.49,58.81 Z" fill="#404040"/>
  <path d="M85.37,58.81 A4.93 5.1 0 1 1 75.51,58.81 A4.93 5.1 0 1 1 85.37,58.81 Z" fill="#404040"/>
  <path d="M54.8,49.82 C53.87,48.59 51.73,46.81 47.57,46.81 C43.41,46.81 41.26,48.6 40.34,49.82 C39.93,50.36 40.03,50.99 40.32,51.37 C40.58,51.72 41.36,52.05 42.22,51.76 C43.08,51.47 44.76,50.6 47.57,50.58 C50.38,50.6 52.06,51.47 52.92,51.76 C53.78,52.05 54.56,51.73 54.82,51.37 C55.1,50.99 55.21,50.36 54.8,49.82 Z" fill="#6D4C41"/>
  <path d="M87.67,49.82 C86.74,48.59 84.6,46.81 80.44,46.81 C76.28,46.81 74.13,48.6 73.21,49.82 C72.8,50.36 72.9,50.99 73.19,51.37 C73.45,51.72 74.23,52.05 75.09,51.76 C75.95,51.47 77.63,50.6 80.44,50.58 C83.25,50.6 84.93,51.47 85.79,51.76 C86.65,52.05 87.43,51.73 87.69,51.37 C87.97,50.99 88.08,50.36 87.67,49.82 Z" fill="#6D4C41"/>
  <path id="mouth_2_" d="M72.42,76.14 C69.24,78.03 58.79,78.03 55.61,76.14 C53.78,75.05 51.91,76.72 52.67,78.38 C53.42,80.01 59.11,83.8 64.04,83.8 C68.97,83.8 74.59,80.01 75.34,78.38 C76.09,76.72 74.25,75.05 72.42,76.14 Z" fill="#795548"/>
  <path id="nose_2_" d="M67.86,68.06 C67.75,68.02 67.65,67.99 67.54,67.98 L60.46,67.98 C60.35,67.99 60.24,68.02 60.14,68.06 C59.5,68.32 59.15,68.98 59.45,69.69 C59.75,70.4 61.16,72.38 64,72.38 C66.84,72.38 68.25,70.39 68.55,69.69 C68.85,68.98 68.5,68.32 67.86,68.06 Z" fill="#E59600"/>
  <path id="hair_1_" d="M25.34,77.87 L35.03,78 C34.68,72.11 34.37,66.13 34.26,61.66 C34.25,61.34 34.25,61.02 34.24,60.72 C34.18,57.8 33.3,47 39.4,45.62 C61.76,40.6 74.41,28.74 74.41,28.74 C77.7,35.92 87.99,42.93 91.68,45.6 C94.71,47.79 94.29,56.8 94.23,60.63 L92.88,78 L102.64,78 C103.91,62.31 104.11,53.26 104.11,43.96 C104.11,33.56 103.06,4.13 64.22,4.13 C23.88,4.13 23.88,43.69 23.88,43.69 C23.88,43.69 23.73,51.98 24.22,61.66 C24.5,67.02 24.94,72.83 25.34,77.87 Z" fill="#543930"/>
  <path id="hairHighlights_2_" d="M35.03,78 C33.82,56.77 32.81,47.19 39.4,45.62 C62.38,40.15 74.41,28.73 74.41,28.73 C77.7,35.91 87.99,42.92 91.68,45.59 C94.71,47.78 94.29,56.79 94.23,60.62 L92.88,78 L102.64,78 C103.91,62.31 104.11,53.26 104.11,43.96 C104.11,33.56 103.06,4.13 64.22,4.13 C23.88,4.13 23.88,43.69 23.88,43.69 C23.88,43.69 23.88,65.01 25.33,77.87 L35.03,78 Z" fill="url(#hairHighlights_4_)"/>
  <path d="M103.08,31.95 C102.43,25.97 99.05,20.72 99.05,20.72 C99.05,20.72 83.44,14 64,14 C44.56,14 30.96,20.26 30.96,20.26 C30.96,20.26 26.65,27.03 25.77,31.67 C25.77,31.71 40.63,22 64,22 C87.37,22 103.09,31.98 103.08,31.95 Z" fill="url(#SVGID_2_)"/>
</svg>