<svg viewBox="0 0 128 128" xmlns="http://www.w3.org/2000/svg">
  <defs>
    <linearGradient id="SVGID_1_" gradientTransform="matrix(1 0 0 -1 0 0)" gradientUnits="userSpaceOnUse" x1="53.16" x2="53.16" y1="-36.7933" y2="-79.613">
      <stop offset="0" stop-color="#EC008C"/>
      <stop offset="0.2202" stop-color="#EA0188"/>
      <stop offset="0.4213" stop-color="#E5057D"/>
      <stop offset="0.6151" stop-color="#DC0B6B"/>
      <stop offset="0.8042" stop-color="#CF1351"/>
      <stop offset="0.9884" stop-color="#BF1D2F"/>
      <stop offset="1" stop-color="#BE1E2D"/>
    </linearGradient>
    <radialGradient id="hairHighlights_2_" cx="64.0002" cy="-49.102058" gradientTransform="matrix(1 0 0 -1.1901 0 0)" gradientUnits="userSpaceOnUse" r="47.5315">
      <stop offset="0.7936" stop-color="#444140" stop-opacity="0"/>
      <stop offset="1" stop-color="#444140"/>
    </radialGradient>
    <radialGradient id="hairHighlights_3_" cx="64.3333" cy="-51.475938" gradientTransform="matrix(1 0 0 -1.2135 0 0)" gradientUnits="userSpaceOnUse" r="49.788">
      <stop offset="0.7945" stop-color="#444140" stop-opacity="0"/>
      <stop offset="1" stop-color="#444140"/>
    </radialGradient>
    <linearGradient id="hand_1_" gradientTransform="matrix(1 0 0 -1 0 0)" gradientUnits="userSpaceOnUse" x1="99.2417" x2="123.8323" y1="-80.8751" y2="-80.8751">
      <stop offset="0.5" stop-color="#70534A"/>
      <stop offset="1" stop-color="#5C4037"/>
    </linearGradient>
    <linearGradient id="finger_1_" gradientTransform="matrix(1 0 0 -1 0 0)" gradientUnits="userSpaceOnUse" x1="108.6903" x2="106.6903" y1="-83.9142" y2="-99.3095">
      <stop offset="0.5" stop-color="#70534A"/>
      <stop offset="1" stop-color="#5C4037"/>
    </linearGradient>
    <linearGradient id="SVGID_2_" gradientTransform="matrix(1 0 0 -1 0 0)" gradientUnits="userSpaceOnUse" x1="111.2057" x2="118.3049" y1="-81.0875" y2="-81.0875">
      <stop offset="0.5" stop-color="#70534A"/>
      <stop offset="1" stop-color="#5C4037"/>
    </linearGradient>
    <linearGradient id="SVGID_3_" gradientTransform="matrix(0.9997 -0.0225 -0.0225 -0.9997 0 0)" gradientUnits="userSpaceOnUse" x1="103.733513" x2="110.501713" y1="-83.286594" y2="-83.286594">
      <stop offset="0.5" stop-color="#70534A"/>
      <stop offset="1" stop-color="#5C4037"/>
    </linearGradient>
    <linearGradient id="SVGID_4_" gradientTransform="matrix(1 0 0 -1 0 0)" gradientUnits="userSpaceOnUse" x1="35.8015" x2="35.8015" y1="-102.6123" y2="-128.3117">
      <stop offset="4.000000e-03" stop-color="#666666"/>
      <stop offset="0.0118" stop-color="#656565"/>
      <stop offset="0.2735" stop-color="#484747"/>
      <stop offset="0.5297" stop-color="#343131"/>
      <stop offset="0.7756" stop-color="#272324"/>
      <stop offset="1" stop-color="#231F20"/>
    </linearGradient>
    <linearGradient id="SVGID_5_" gradientTransform="matrix(-1 0 0 -1 0 0)" gradientUnits="userSpaceOnUse" x1="-93.0645" x2="-93.0645" y1="-102.6123" y2="-128.3117">
      <stop offset="4.000000e-03" stop-color="#666666"/>
      <stop offset="0.0118" stop-color="#656565"/>
      <stop offset="0.2735" stop-color="#484747"/>
      <stop offset="0.5297" stop-color="#343131"/>
      <stop offset="0.7756" stop-color="#272324"/>
      <stop offset="1" stop-color="#231F20"/>
    </linearGradient>
    <linearGradient id="SVGID_6_" gradientTransform="matrix(1 0 0 -1 0 0)" gradientUnits="userSpaceOnUse" x1="40.393" x2="40.393" y1="-114.3333" y2="-128.009094">
      <stop offset="0" stop-color="#651FFF"/>
      <stop offset="0.9315" stop-color="#540FED"/>
      <stop offset="1" stop-color="#530EEB"/>
    </linearGradient>
    <linearGradient id="SVGID_7_" gradientTransform="matrix(1 0 0 -1 0 0)" gradientUnits="userSpaceOnUse" x1="41.46" x2="41.46" y1="-99.1358" y2="-126.6721">
      <stop offset="0" stop-color="#AB47BC"/>
      <stop offset="0.2488" stop-color="#A745B8"/>
      <stop offset="0.476" stop-color="#9C3EAE"/>
      <stop offset="0.6948" stop-color="#8A329C"/>
      <stop offset="0.9072" stop-color="#702282"/>
      <stop offset="1" stop-color="#621975"/>
    </linearGradient>
    <linearGradient id="SVGID_8_" gradientTransform="matrix(1 0 0 -1 0 0)" gradientUnits="userSpaceOnUse" x1="87.144" x2="87.144" y1="-114.3333" y2="-128.009094">
      <stop offset="0" stop-color="#651FFF"/>
      <stop offset="0.9315" stop-color="#540FED"/>
      <stop offset="1" stop-color="#530EEB"/>
    </linearGradient>
    <linearGradient id="SVGID_9_" gradientTransform="matrix(1 0 0 -1 0 0)" gradientUnits="userSpaceOnUse" x1="85.9595" x2="85.9595" y1="-99.1912" y2="-126.666">
      <stop offset="0" stop-color="#AB47BC"/>
      <stop offset="0.2488" stop-color="#A745B8"/>
      <stop offset="0.476" stop-color="#9C3EAE"/>
      <stop offset="0.6948" stop-color="#8A329C"/>
      <stop offset="0.9072" stop-color="#702282"/>
      <stop offset="1" stop-color="#621975"/>
    </linearGradient>
    <linearGradient id="SVGID_10_" gradientTransform="matrix(1 0 0 -1 0 0)" gradientUnits="userSpaceOnUse" x1="110.158" x2="110.158" y1="-98.018" y2="-136.4232">
      <stop offset="4.000000e-03" stop-color="#666666"/>
      <stop offset="0.6314" stop-color="#393637"/>
      <stop offset="1" stop-color="#231F20"/>
    </linearGradient>
  </defs>
  <path id="hair_10_" d="M64.57,2.87 C23.56,2.87 23.89,40.79 23.89,41.39 C23.89,65.95 25.77,100.64 35.6,114.29 C39.5,119.7 47.03,120 47.03,120 L64,119.98 L80.97,120 C80.97,120 88.51,119.7 92.4,114.29 C102.23,100.64 104.11,65.95 104.11,41.39 C104.1,40.79 105.58,2.87 64.57,2.87 Z" fill="#232020"/>
  <path id="hairHighlights_1_" d="M64.57,2.87 C23.56,2.87 23.89,40.79 23.89,41.39 C23.89,65.95 25.77,100.64 35.6,114.29 C39.5,119.7 47.03,120 47.03,120 L64,119.98 L80.97,120 C80.97,120 88.51,119.7 92.4,114.29 C102.23,100.64 104.11,65.95 104.11,41.39 C104.1,40.79 105.58,2.87 64.57,2.87 Z" fill="url(#hairHighlights_2_)"/>
  <path d="M112.02,123.94 L112.02,119.63 C112.02,106.19 88.26,99.73 64.83,99.76 C41.55,99.78 17.64,105.4 17.64,119.63 L17.64,123.94 L112.02,123.94 Z"/>
  <path d="M64,90.08 L54.92,90.08 L54.92,100.06 C54.92,104.57 58.62,108.23 63.18,108.23 L64.83,108.23 C69.39,108.23 73.09,104.57 73.09,100.06 L73.09,90.08 L64,90.08 Z" fill="#3C2B24"/>
  <path d="M97.13,55.95 C97.13,77.77 83.61,90.66 71.85,94.8 C69.07,95.78 66.38,96.27 64,96.27 C61.6,96.27 58.9,95.77 56.1,94.78 C50.09,92.65 43.63,88.24 38.76,81.53 C38.6,81.32 38.45,81.11 38.3,80.89 C36.09,77.73 34.24,74.08 32.95,69.93 C32.86,69.7 32.79,69.47 32.73,69.24 C31.55,65.26 30.87,60.83 30.87,55.95 C30.87,28.83 46.8,16.04 64,16.04 C81.2,16.04 97.13,28.83 97.13,55.95 Z" fill="#70534A"/>
  <path d="M58.28,47.99 L68.37,45.87 L38.76,81.53 C38.6,81.32 38.45,81.11 38.3,80.89 L40,67.03 L32.95,69.93 C32.86,69.7 32.79,69.47 32.73,69.24 L45.78,33.3 L73.59,27.89 L58.28,47.99 Z" fill="url(#SVGID_1_)"/>
  <path d="M52.49,58.81 A4.93 5.1 0 1 1 42.63,58.81 A4.93 5.1 0 1 1 52.49,58.81 Z" fill="#1A1717"/>
  <path d="M85.37,58.81 A4.93 5.1 0 1 1 75.51,58.81 A4.93 5.1 0 1 1 85.37,58.81 Z" fill="#1A1717"/>
  <path d="M54.99,49.82 C54.06,48.59 51.92,46.81 47.76,46.81 C43.6,46.81 41.45,48.6 40.53,49.82 C40.12,50.36 40.22,50.99 40.51,51.37 C40.77,51.72 41.55,52.05 42.41,51.76 C43.27,51.47 44.95,50.6 47.76,50.58 C50.57,50.6 52.25,51.47 53.11,51.76 C53.97,52.05 54.75,51.73 55.01,51.37 C55.29,50.99 55.39,50.36 54.99,49.82 Z" fill="#1A1717"/>
  <path d="M87.48,49.82 C86.55,48.59 84.41,46.81 80.25,46.81 C76.09,46.81 73.94,48.6 73.02,49.82 C72.61,50.36 72.71,50.99 73,51.37 C73.26,51.72 74.04,52.05 74.9,51.76 C75.76,51.47 77.44,50.6 80.25,50.58 C83.06,50.6 84.74,51.47 85.6,51.76 C86.46,52.05 87.24,51.73 87.5,51.37 C87.79,50.99 87.89,50.36 87.48,49.82 Z" fill="#1A1717"/>
  <path id="nose" d="M67.86,68.06 C67.75,68.02 67.65,67.99 67.54,67.98 L60.46,67.98 C60.35,67.99 60.24,68.02 60.14,68.06 C59.5,68.32 59.15,68.98 59.45,69.69 C59.75,70.4 61.16,72.38 64,72.38 C66.84,72.38 68.25,70.39 68.55,69.69 C68.85,68.98 68.5,68.32 67.86,68.06 Z" fill="#33251F"/>
  <path id="mouth" d="M72.42,76.14 C69.24,78.03 58.79,78.03 55.61,76.14 C53.78,75.05 51.91,76.72 52.67,78.38 C53.42,80.01 59.11,83.8 64.04,83.8 C68.97,83.8 74.59,80.01 75.34,78.38 C76.09,76.72 74.25,75.05 72.42,76.14 Z" fill="#1A1717"/>
  <path id="hair_5_" d="M64.57,2.87 C23.56,2.87 23.89,40.79 23.89,41.39 C23.89,49.15 24.08,57.92 24.64,66.71 L31.36,66.69 C31.3,63.77 33.35,45.72 39.44,44.35 C61.8,39.32 74.45,27.46 74.45,27.46 C77.74,34.64 88.03,41.65 91.72,44.32 C94.75,46.51 95.99,62.87 95.93,66.7 L103.33,66.7 C103.33,66.65 103.35,66.6 103.35,66.54 C103.91,57.79 104.09,49.08 104.09,41.37 C104.1,40.79 105.58,2.87 64.57,2.87 Z" fill="#232020"/>
  <path id="hairHighlights" d="M64.57,2.87 C23.56,2.87 23.89,40.79 23.89,41.39 C23.89,49.15 24.08,57.92 24.64,66.71 L31.36,66.69 C31.3,63.77 33.35,45.72 39.44,44.35 C61.8,39.32 74.45,27.46 74.45,27.46 C77.74,34.64 88.03,41.65 91.72,44.32 C94.75,46.51 95.99,62.87 95.93,66.7 L103.33,66.7 C103.33,66.65 103.35,66.6 103.35,66.54 C103.91,57.79 104.09,49.08 104.09,41.37 C104.1,40.79 105.58,2.87 64.57,2.87 Z" fill="url(#hairHighlights_3_)"/>
  <path d="M113.89,86.8 L113.98,86.79 C115.7,86.97 117.25,85.92 117.45,84.43 L118.28,78.41 C118.48,76.92 117.24,75.56 115.53,75.38 L115.53,75.38 C113.81,75.2 112.26,76.25 112.06,77.74 L111.23,83.76 C111.03,85.25 112.17,86.62 113.89,86.8 Z" fill="url(#SVGID_2_)"/>
  <path id="hand_3_" d="M112.23,100.06 C107.26,100.21 101.8,99.15 100.15,94.12 C99.27,91.43 99.49,88.67 100.05,86.09 C100.67,83.23 100.72,81.78 100.52,79.52 C100.38,77.86 99.33,64.9 99.33,64.9 C99.33,64.9 98.69,62.54 100.81,61.86 C103.14,60.97 104,63.54 104,63.54 L106.52,81.38 L117.5,82.63 C117.5,82.63 117.93,81.92 118.17,80.14 C118.28,79.38 118.14,77.97 118.26,77.07 C118.83,72.91 119.53,67.88 119.6,67.46 C119.72,66.74 120.5,65.68 121.99,65.89 C123.48,66.1 123.88,67.2 123.81,67.92 C123.74,68.65 123.2,74.48 123.2,74.48 C123.04,77.28 122.88,80.37 123.14,83.16 L123.35,85.4 C123.69,89.01 123.16,92.8 121.59,95.62 C119.98,98.57 117.2,99.91 112.23,100.06 Z" fill="url(#hand_1_)"/>
  <path d="M108.65,87.02 L108.65,87.02 C110.38,87.06 111.84,85.88 111.92,84.38 L112.26,77.47 C112.33,75.97 111,74.72 109.27,74.67 L109.27,74.67 C107.54,74.63 106.08,75.81 106,77.31 L105.66,84.22 C105.58,85.73 106.92,86.98 108.65,87.02 Z" fill="url(#SVGID_3_)"/>
  <path id="finger_3_" d="M113.89,82.79 C111.96,82.45 109.57,82.02 107.28,81.9 C106.96,81.88 106.64,81.87 106.32,81.86 C103.31,81.81 101.12,83.49 100.03,87.26 C100.03,87.26 100.03,87.26 100.03,87.26 C99.99,87.38 99.96,87.5 99.92,87.63 C99.86,87.85 99.8,88.09 99.75,88.35 C99.75,88.36 99.75,88.37 99.75,88.38 C99.68,88.72 99.61,89.07 99.56,89.45 C99.37,90.7 99.49,91.9 99.78,92.87 C100.57,96.33 103,97.97 103,97.97 C103,97.97 109.29,101.12 110.73,97.97 C112.17,94.82 110.08,90.42 110.08,90.42 L107.16,88.69 C107.77,87.94 108.66,87.62 110.41,87.72 C110.96,87.75 111.63,87.82 112.45,87.9 C112.53,87.91 113.53,88.02 113.6,88.02 C114.71,88.08 115.58,87.74 116.26,86.98 C117.14,85.99 117.03,84.31 117.1,83.51 C116.3,83.43 114.95,82.98 113.89,82.79 Z" fill="url(#finger_1_)"/>
  <path d="M54.24,123.94 L53.37,102.35 C49.96,103.76 46.52,104.45 42.91,104.45 C42.91,104.45 42.91,104.45 42.91,104.45 C37.01,104.45 31.83,102.55 27.68,101.02 C24.84,99.98 22.38,99.07 20.53,99.07 C18.27,99.07 17.35,101.04 17.35,105.88 L17.35,123.94 L54.24,123.94 L54.24,123.94 Z" fill="url(#SVGID_4_)"/>
  <path d="M111.66,123.94 L111.66,105.88 C111.66,101.05 110.74,99.07 108.48,99.07 C106.65,99.07 104.09,99.95 101.14,100.98 C96.73,102.51 91.24,104.41 85.1,104.41 C81.38,104.41 77.88,103.73 74.46,102.34 L74.58,123.94 L111.66,123.94 Z" fill="url(#SVGID_5_)"/>
  <path d="M57.81,123.94 L56.08,112 L22.98,118.22 L27.09,123.94 Z" fill="url(#SVGID_6_)"/>
  <path d="M39.47,123.94 L57.74,123.94 L54.92,96.88 L25.18,104.11 L38,121.83 Z" fill="url(#SVGID_7_)"/>
  <path d="M100.71,123.94 L104.74,118.34 L71.19,112 L69.55,123.94 Z" fill="url(#SVGID_8_)"/>
  <path d="M86.93,123.94 L89.47,120.29 L102.3,102.57 L73.08,96.94 L69.62,123.94 Z" fill="url(#SVGID_9_)"/>
  <path d="M121.59,123.94 L121.44,97.94 L98.73,98.02 L98.74,123.94 Z" fill="url(#SVGID_10_)"/>
  <path d="M103.66,107.95 A4.11 4.11 0 1 1 95.44,107.95 A4.11 4.11 0 1 1 103.66,107.95 Z" fill="#E1BEE7"/>
  <path d="M114.27,107.92 A4.11 4.11 0 1 1 106.05,107.92 A4.11 4.11 0 1 1 114.27,107.92 Z" fill="#D81B60"/>
  <path d="M124.87,107.88 A4.11 4.11 0 1 1 116.65,107.88 A4.11 4.11 0 1 1 124.87,107.88 Z" fill="#651FFF"/>
  <path d="M34.26,87.9 L11.54,97.29 L11.2,96.63 C11.13,96.69 11.06,96.75 10.97,96.8 L9.72,97.53 L9.72,123.94 L6.59,123.94 L6.59,99.33 C5.77,99.7 4.8,99.42 4.32,98.64 C3.79,97.79 4.07,96.66 4.94,96.15 L9.16,93.69 C9.31,93.6 9.47,93.55 9.63,93.51 L9,92.25 L30.19,79.52 C30.15,79.89 30.14,80.26 30.15,80.64 C30.26,83.71 31.87,86.36 34.26,87.9 Z" fill="#5D5F61"/>
  <path d="M47.09,80.35 A7.97 7.97 0 1 1 31.15,80.35 A7.97 7.97 0 1 1 47.09,80.35 Z" fill="#434444"/>
  <path d="M35.44,87.41 L34.26,87.9 C31.87,86.36 30.26,83.71 30.15,80.64 C30.14,80.26 30.15,79.89 30.19,79.52 L31.29,78.87 C31.18,79.43 31.13,80.02 31.15,80.61 C31.25,83.59 32.97,86.13 35.44,87.41 Z" fill="#727475"/>
  <path d="M42.77,87.44 C42.35,87.66 41.91,87.83 41.46,87.97 C41.45,87.96 41.45,87.96 41.45,87.96 C41.06,87.75 40.66,87.48 40.26,87.15 C38.86,86.02 37.51,84.32 36.42,82.33 C36.33,82.16 36.23,81.99 36.15,81.82 C34.66,78.92 34.04,76.06 34.27,74 C34.63,73.72 35.02,73.48 35.43,73.26 C36.34,72.78 37.37,72.49 38.45,72.4 C38.58,72.39 38.72,72.38 38.86,72.37 C39.33,72.35 39.8,72.38 40.26,72.45 C44.02,72.98 46.96,76.15 47.09,80.08 C47.14,81.53 46.8,82.9 46.15,84.09 C45.87,84.64 45.51,85.15 45.1,85.6 C44.44,86.35 43.66,86.98 42.77,87.44 Z" fill="#434444"/>
  <path d="M40.89,86.38 C39.48,85.25 38.11,83.47 37.05,81.37 C35.31,77.96 34.9,74.91 35.44,73.27 C35.03,73.48 34.64,73.73 34.28,74.01 C34.05,76.06 34.68,78.92 36.16,81.83 C36.24,82 36.34,82.18 36.43,82.34 C37.52,84.33 38.87,86.03 40.27,87.16 C40.68,87.48 41.08,87.76 41.46,87.97 C41.46,87.97 41.46,87.97 41.47,87.98 C41.92,87.84 42.36,87.67 42.78,87.45 C42.2,87.27 41.56,86.92 40.89,86.38 Z" fill="#5D5F61"/>
  <path id="tone_1_" d="M118.23,77.68 C118.05,79.03 116.88,82.89 116.88,82.89 C115.38,82.28 114.01,81.85 112.76,81.55 C112.64,80.66 112.35,78.5 112.24,77.21 C111.99,78.27 111.34,80.39 111.08,81.22 C109.3,80.94 107.8,80.96 106.55,81.16 C106.47,80.47 106.17,78.09 106.01,77.41 C105.89,78.01 105.79,79.32 105.67,79.93 C105.56,80.49 105.42,81.1 105.35,81.41 C104.04,81.77 103.08,82.32 102.39,82.84 C101.86,83.2 101.4,83.63 101.07,84.18 C101.01,84.27 100.97,84.33 100.97,84.33 C101.93,83.46 103.26,82.98 104.5,82.68 C107.91,81.86 112.36,82.17 115.57,83.59 C116.89,84.18 117.15,85.19 116.28,86.32 C115.01,87.99 112.83,87.23 111.08,87.08 C109.56,86.95 107.04,87.14 106.59,89.01 C109.99,89.54 111.2,93.27 111.11,96.3 C112.37,93.5 111.55,90.47 108.54,88.5 C110.47,87.44 116.85,90.53 117.81,85.61 C118.24,83.39 118.29,78.72 118.23,77.68 Z" fill="#4A2F27"/>
</svg>