<svg viewBox="0 0 128 128" xmlns="http://www.w3.org/2000/svg">
  <defs>
    <linearGradient id="SVGID_1_" gradientUnits="userSpaceOnUse" x1="88.6417" x2="46.9709" y1="32.7507" y2="33.8769">
      <stop offset="0" stop-color="#01AB46"/>
      <stop offset="0.396" stop-color="#128A3C"/>
      <stop offset="1" stop-color="#2F502A"/>
    </linearGradient>
  </defs>
  <path d="M103.13,54.42 C103.13,54.42 106.63,53.76 109.7,51.46 C112.45,49.4 116.47,45.58 115.1,44.14 C113.62,42.59 111.23,46.67 110.67,45.69 C110.3,45.04 112.99,42.8 114.19,39.35 C115.26,36.28 114.04,33.24 111.3,36.6 C110.45,37.64 109.81,38.77 109.4,38.36 C108.96,37.92 110.01,35.36 110.78,32.97 C112.07,28.93 110.1,26.25 106.73,31.14 C105.29,33.22 104.64,35.96 103.56,35.76 C102.79,35.62 103.18,34.06 103.05,32.51 C102.78,29.28 99.69,29.64 98.63,35.34 C98.16,37.86 98.57,40.77 98,40.97 C97.01,41.32 97.23,37.03 95.61,37.45 C94.43,37.76 93.99,40.69 94.06,43.79 C94.13,46.89 96.1,51.88 96.1,51.88 L98.85,56.88 L103.13,54.42 Z" fill="#BDCE44"/>
  <path d="M95.46,52.19 C95.46,52.19 93.25,57.35 96.28,63.99 C98.49,68.84 101.65,72.26 99.78,74.2 C97.01,77.06 87.25,70.87 77.63,73.71 C70.14,75.92 66.57,80.18 64.39,88 C62.76,93.85 61.15,96.12 58.43,96.92 C56.31,97.54 52.99,97.08 51.23,95.47 C47.51,92.05 47.6,88.1 49,84.78 C50.31,81.67 54.64,78.63 56.65,77.59 C62.21,74.7 75.87,70.48 79.74,63.09 C83.19,56.5 84.1,48.94 81.99,44.01 C79.88,39.08 76.5,40.84 76.5,40.84 L77.27,52.52 L63.83,66.6 L44.47,79.83 L41.8,93.91 L48.56,105.31 L62.5,104.25 L76.72,82.85 L90.45,81.86 L103.47,81.16 L108.4,67.36 L95.46,52.19 Z" fill="#6D8038"/>
  <path d="M105.59,40.13 C103.27,38.56 95.36,45.76 95.29,53.86 C95.22,61.95 100.1,67.66 101.09,69.28 C102.08,70.9 105.2,76.58 101.16,79.13 C97.92,81.19 82.79,74.55 74.97,79.55 C67.16,84.55 69.81,93.14 62.63,100.08 C59.94,102.69 45.48,105.1 44.28,90.74 C43.08,76.38 60.47,75.68 69.06,69.41 C77.65,63.15 80.39,57.87 80.11,50.48 C79.83,43.09 77.65,40.77 77.65,40.77 L63.85,46.4 L57.51,56.68 C57.51,56.68 49.24,59.71 41.93,64.63 C33.32,70.43 31.79,74.63 31.79,74.63 C31.79,74.63 29.77,74 29.77,73.5 C29.77,73 36.86,64.93 36.25,61.39 C35.5,57.05 33.11,55.88 31.7,55.74 C30.29,55.6 29.49,56.82 30.53,58.41 C31.56,60.01 32.08,61.41 31.89,62.02 C31.7,62.63 31.08,63.27 30.95,62.21 C30.81,61.04 29.96,59.04 29.35,58.22 C28.85,57.55 27.29,55.59 25.36,55.92 C23.43,56.25 23.3,58.08 24.89,59.58 C26.49,61.08 28.03,63.19 27.24,64.13 C26.44,65.07 25.13,62.04 24.28,60.92 C23.44,59.79 21.35,59.36 20.1,59.11 C18.79,58.85 16.63,60.3 17.89,62.39 C18.83,63.94 20.1,63.19 21.64,64.83 C23.18,66.47 23.24,67.08 23.19,67.5 C23.14,67.92 20.23,70.08 19.91,72.05 C19.58,74.02 20.14,75.24 19.39,75.94 C18.64,76.64 15.45,76.5 14.42,76.83 C13.39,77.16 12.26,79.79 14.23,80.63 C16.2,81.47 19.81,81.62 21.5,81.1 C22.73,80.72 23.1,80.16 23.61,80.26 C24.13,80.35 28.21,83.36 28.21,83.36 C28.21,83.36 27.63,87.7 27.72,91.38 C27.84,96.17 29.27,99.92 29.27,99.92 C29.27,99.92 30.7,101.96 30.09,101.94 C28.35,101.87 23.61,97.15 21.27,96.64 C18.92,96.12 17.05,96.27 16.15,97.3 C15.33,98.24 15.03,100.31 16.67,100.44 C18.46,100.58 19.3,100.21 19.3,100.86 C19.3,101.29 18.72,101.64 17.56,102.03 C15.89,102.59 15.42,103.92 15.82,105.55 C16.2,107.08 18.31,106.63 18.92,106.16 C19.53,105.69 19.76,105.22 20.09,105.64 C20.42,106.06 18.98,107.14 18.54,108.13 C17.65,110.12 18.9,110.98 20.23,111.09 C22.06,111.23 22.34,108.88 23.19,107.99 C24.03,107.1 25.11,106.39 25.49,106.44 C25.87,106.49 25.72,107.99 27.41,109.82 C29.1,111.65 31.4,110.62 31.77,110.95 C32.14,111.28 31.49,113.72 32.94,115.03 C34.39,116.34 36.74,115.78 36.74,113.76 C36.74,111.74 36.93,110.9 36.93,110.9 C36.93,110.9 39.77,113.39 43.48,114.7 C47.19,116.01 52.26,117.12 52.26,117.12 C52.26,117.12 51.75,118.03 51.86,119.82 C51.91,120.55 52.07,122.78 54.23,122.73 C55.78,122.7 55.85,119.73 56.41,119.63 C56.97,119.54 55.87,123.5 58.73,123.69 C61.59,123.88 60.68,120.15 61.19,120.05 C61.71,119.96 61.72,124.89 65.46,123.19 C67.43,122.3 64.8,117.95 64.99,117.56 C65.11,117.33 66.96,117.04 68.18,116.25 C68.99,115.72 69.49,114.56 69.49,114.56 C69.49,114.56 75.4,112.89 77.84,108.48 C81.17,102.46 80.61,95.32 83.24,93.02 C85.87,90.72 90.94,92.55 93.38,92.83 C95.82,93.11 96.05,93.02 96.2,93.11 C96.34,93.2 96.62,94.33 96.39,94.66 C96.16,94.99 89.49,97.38 87.9,100.06 C86.3,102.73 86.53,104.64 86.68,105.36 C87.01,106.91 88.53,107.12 89.21,105.83 C89.88,104.56 90.24,103.44 90.81,103.62 C91.37,103.81 90.27,105.91 90.72,106.9 C91.38,108.35 93.02,108.12 93.68,107.6 C94.34,107.08 94.5,105.02 94.97,105.25 C95.44,105.48 94.97,106.38 95.84,107.9 C96.61,109.25 99.15,108.02 98.77,106.02 C98.54,104.8 97.53,103.88 98.98,102.71 C100.43,101.54 101.61,101.58 103.11,100.65 C104.61,99.71 104.47,98.35 106.16,98.96 C107.85,99.57 107.9,101.1 109.16,100.23 C111.06,98.92 110.15,96.29 108.55,95.02 C106.95,93.75 104.61,93.61 104.28,93.47 C103.95,93.33 103.81,91.55 103.81,91.55 C103.81,91.55 113.29,87.84 114.37,78.5 C115.45,69.16 104.7,59.07 104,53.02 C103.32,47.01 107.62,41.5 105.59,40.13 Z" fill="#00AA48"/>
  <path d="M40.64,113.46 C41.92,114.15 43.28,114.75 44.61,115.19 C48.43,116.45 52.31,117.16 52.31,117.16 C52.31,117.16 53.11,115.52 55.78,114.3 C57.29,113.61 60.57,113.08 60.57,113.08 C60.57,113.08 55.74,112.94 50.86,112.14 C48.76,111.8 46.13,110.9 43.74,109.32 L40.64,113.46 Z" fill="#7BD989"/>
  <path d="M51.75,66.25 C54.8,64.63 57.73,63.25 60.01,62.26 L57.29,56.83 C55.12,57.58 52.29,58.74 48.85,60.54 L51.75,66.25 Z" fill="#7BD989"/>
  <path d="M36.34,80.43 C37.68,77.54 39.59,74.96 41.75,72.86 L37.99,67.5 C34.51,70.41 32.06,73.52 30.43,76.82 L36.34,80.43 Z" fill="#7BD989"/>
  <path d="M29.75,78.3 C28.07,82.34 27.58,85.62 27.67,90.5 L34.33,90.12 C34.19,87.25 34.72,84.48 35.7,81.91 L29.75,78.3 Z" fill="#7BD989"/>
  <path d="M32.26,105.7 C33.45,107.34 34.81,108.82 36.26,110.31 C37.03,111.1 38.05,111.9 39.21,112.63 L42.45,108.4 C41.62,107.74 40.85,106.99 40.15,106.14 C39.19,104.97 38.25,103.73 37.4,102.24 L32.26,105.7 Z" fill="#7BD989"/>
  <path d="M31.38,104.41 C29.41,101.3 28.04,97.53 27.73,92.05 L34.42,91.44 C34.75,95.59 35.61,98.57 36.74,100.94 L31.38,104.41 Z" fill="#7BD989"/>
  <path d="M42.91,71.8 C43.84,71 44.81,70.28 45.79,69.67 C47.28,68.74 48.82,67.84 50.36,67 L47.54,61.24 C46.06,62.05 44.22,63.07 42.53,64.13 C41.2,64.97 40,65.82 39.11,66.6 L42.91,71.8 Z" fill="#7BD989"/>
  <path d="M61.24,61.73 C61.7,61.54 62.12,61.37 62.49,61.22 C65.87,59.91 66.9,57.89 66.24,56.34 C65.58,54.79 63,55.17 62.39,55.4 C62.14,55.49 60.85,55.69 58.6,56.39 L61.24,61.73 Z" fill="#7BD989"/>
  <path d="M34.43,24.11 C34.43,24.11 34.01,18.81 37.57,15.99 C41.14,13.17 46.77,15.05 49.86,15.61 C52.95,16.17 56.99,16.08 59.9,15.42 C62.81,14.76 63.94,14.2 65.72,14.11 C67.5,14.02 70.08,13.83 72.34,13.64 C74.25,13.48 78.07,12.98 78.68,14.77 C79.14,16.1 77.84,17.44 75.77,17.96 C73.71,18.48 73.1,18.71 73.52,19.65 C73.94,20.59 77.37,19.98 78.12,19.74 C78.87,19.51 83.24,18.61 83.24,21.15 C83.24,23.69 79.67,24.43 77.37,25 C75.07,25.56 73.67,25.23 73.76,26.41 C73.9,28.29 79.77,26.5 81.55,26.27 C83.33,26.04 85.59,25.71 85.82,27.4 C86.05,29.09 84.27,30.92 80.89,31.48 C77.51,32.04 75.31,32.61 75.35,33.5 C75.39,34.39 79.55,33.48 80.75,33.27 C82.3,32.99 84.5,32.95 84.74,34.54 C85.3,38.29 78.64,37.64 78.5,39.14 C78.37,40.48 83.8,39.05 84.46,41.25 C85.12,43.46 83.05,45.38 79.77,45.66 C77.49,45.86 69.68,44.3 68.46,45.61 C67.24,46.92 71.42,47.22 72.82,47.53 C74.7,47.95 77.84,48.19 76.43,51.05 C75.51,52.93 72.07,52.41 69.56,52.53 C67.05,52.65 62.59,52.93 62.59,52.93 L52.55,53.4 L44.15,52.41 L38.85,50.44 L34.81,48.75 L33.54,47.39 L45.22,32.98 L34.43,24.11 Z" fill="url(#SVGID_1_)"/>
  <path d="M66.88,50.8 C66.88,54.05 64.66,57.66 60.05,57.7 C55.44,57.74 53.08,54.92 52.34,54.71 C51.6,54.5 51.35,57.38 48.79,57.53 C46.22,57.67 42.42,54.33 41.93,54.22 C41.44,54.11 41.3,56.75 38.52,56.75 C36.58,56.75 34.33,53.72 32.85,52.35 C31.37,50.98 28.73,48.97 28.73,48.97 L36.19,48.97 C36.19,48.97 38.69,48.69 41.82,48.97 C44.86,49.24 47.35,51.64 52.38,51.54 C55.2,51.48 56.53,51.22 56.53,51.22 C56.53,51.22 57.55,47.54 62.2,47.31 C66.53,47.1 66.88,50.06 66.88,50.8 Z" fill="#BECE44"/>
  <path d="M51.49,20.75 C51.49,20.75 56.35,18.9 56.96,17.58 C57.57,16.27 59.49,11.34 61.98,10.45 C64.47,9.56 65.92,12.05 64.19,13.97 C62.46,15.89 59.92,17.49 61.33,18.38 C62.74,19.27 65.83,14.91 66.63,13.88 C67.43,12.85 69.26,10.17 71.32,10.22 C73.38,10.27 74.66,13.8 70.71,17.07 C66.63,20.45 64.61,21.25 59.92,21.57 C55.23,21.9 52.97,22.2 52.97,22.2 L51.49,20.75 Z" fill="#FFBA02"/>
  <path d="M27.48,20.96 C27.48,20.96 25.13,13.17 29.26,9.79 C33.39,6.41 38.79,8.52 42.07,10.54 C45.08,12.39 50.97,12.08 50.75,8.66 C50.56,5.7 47.31,6.53 47.04,7.86 C46.81,9.03 46.31,9.78 45.87,9.64 C45.37,9.49 45.06,8.48 45.12,7.86 C45.35,5.19 47.61,4.39 49.39,4.58 C50.79,4.73 53.14,5.75 52.91,9.51 C52.68,13.27 48.76,14.32 44.98,13.69 C41.99,13.19 39.3,11.11 36.59,10.38 C34.93,9.94 32.59,10.3 31.16,11.34 C29.49,12.56 29.05,14.49 29.06,16.08 C29.07,17.09 29.26,18.02 29.35,18.71 C29.56,20.28 31.32,25.05 31.32,25.05 L27.48,20.96 Z" fill="#7CDB8B"/>
  <path d="M54.61,26.5 C54.61,26.5 57,27.02 57.1,29.78 C57.2,32.54 56.77,32.78 57.01,32.88 C57.25,32.98 59.17,31.85 60.2,33.16 C61.5,34.82 59.17,37.52 57.85,38.42 C56.54,39.31 55.74,39.45 55.55,39.87 C55.36,40.29 53.59,45.74 51.19,46.72 C48.42,47.85 40.44,47.38 39.36,47.38 C38.28,47.38 37.2,48.44 36.19,48.96 C35.18,49.48 34.2,49.82 33.02,49.53 C31.85,49.25 30.06,47.93 30.06,47.93 L54.61,26.5 Z" fill="#7CDB8B"/>
  <path d="M38.61,38.79 L41.47,38.93 L42.92,33.81 C42.92,33.81 38.93,32.45 37.52,32.73 C36.11,33.01 33.06,34.18 32.08,34.7 C31.09,35.22 30.3,36.53 28.42,36.25 C26.54,35.97 22.51,35.22 20.11,37.94 C18.04,40.3 18.42,42.3 20.2,43.15 C21.98,43.99 24.24,41.32 25.69,41.09 C27.14,40.86 29.35,41.89 29.35,41.89 L38.61,38.79 Z" fill="#D43330"/>
  <path d="M28.05,32.88 C28.05,32.88 28.94,36.96 30.02,36.96 C31.1,36.96 31.1,35.65 31.1,35.65 C31.1,35.65 35.23,34.57 36.03,34.1 C36.83,33.63 37.81,31.71 37.81,31.71 L30.49,31.19 L28.05,32.88 Z" fill="#FFFFFF"/>
  <path d="M27.95,44 C27.95,44 27.11,42.17 27.43,41.37 C27.76,40.57 28.04,39.12 28.98,39.21 C30.01,39.31 30.15,40.9 30.15,40.9 C30.15,40.9 32.87,38.41 34.98,37.57 C36.11,37.12 38.03,36.96 38.17,37.85 C38.31,38.74 37.65,41.28 37.65,41.28 L27.95,44 Z" fill="#FFFFFF"/>
  <path d="M24.86,40.62 C24.51,41.26 24.2,43.62 24.77,45.31 C25.33,47 27.21,49.63 30.12,49.81 C33.03,49.99 38.43,43.8 38.75,43.62 C39.08,43.43 48.23,44.65 50.81,40.99 C53.39,37.33 52.04,30.89 53.34,28.88 C54.75,26.72 56.81,28.13 56.81,28.13 C56.81,28.13 56.58,26.63 55.54,25.6 C54.51,24.57 53.05,24.76 53.48,23.54 C53.9,22.32 57.09,23.45 57.28,22.55 C57.47,21.66 56.19,20.76 54.73,20.49 C54.04,20.36 52.3,20.68 52.21,20.26 C52.12,19.84 53.57,19.79 53.62,18.81 C53.67,17.82 49.91,18.2 48.36,18.39 C46.81,18.58 44.79,19.47 44.65,19.09 C44.51,18.71 47.18,17.31 47.09,16.84 C47,16.37 44.88,15.95 41.74,17.64 C38.6,19.33 34.51,23.46 34.51,23.46 L31.41,23.23 C31.41,23.23 27.09,18.12 24.32,18.77 C21.4,19.46 20.43,22.29 20.47,26.28 C20.51,30.27 22.21,32.47 26.52,33.27 C28.96,33.72 35.3,33.05 36.61,32.99 C40.04,32.83 40.69,34.35 40.88,35.66 C41.07,36.97 38.53,38.43 37.31,38.71 C36.09,38.99 34.45,39.27 33.13,40.16 C31.82,41.05 30.31,43.54 29.42,43.49 C28.53,43.44 28.34,41.89 27.87,40.96 C27.44,40.01 25.7,39.08 24.86,40.62 Z" fill="#02AB47"/>
  <path d="M48.61,23.45 C48.57,23.84 47.52,27.39 44.81,28.94 C42.1,30.49 39.35,30.03 38.62,27.78 C37.8,25.27 39.18,22.68 42.46,23.13 C45.42,23.55 48.82,21.58 48.61,23.45 Z" fill="#79DA89"/>
  <path d="M43.006,24.464 C43.842,25.134 43.894,26.459 43.121,27.425 C42.348,28.391 41.043,28.631 40.206,27.962 C39.37,27.292 39.319,25.966 40.092,25 C40.865,24.035 42.17,23.794 43.006,24.464 Z" fill="#2F2E2F"/>
  <path d="M24.74,21.69 C24.12,22.25 25.16,23.67 25.23,24.48 C25.3,25.29 24.92,26.76 25.98,26.69 C27.04,26.62 27.36,25.38 27.14,23.94 C26.84,22 25.83,20.7 24.74,21.69 Z" fill="#2F2E2F"/>
</svg>