<svg viewBox="0 0 128 128" xmlns="http://www.w3.org/2000/svg">
  <defs/>
  <path d="M64,4 C30.86,4 4,30.86 4,64 C4,97.14 30.86,124 64,124 C97.14,124 124,97.14 124,64 C124,30.86 97.14,4 64,4 Z M114,64 C114.04,75.53 110.04,86.71 102.7,95.6 L32.4,25.3 C41.29,17.96 52.47,13.96 64,14 C91.61,14 114,36.39 114,64 Z M14,64 C13.96,52.47 17.96,41.29 25.3,32.4 L95.6,102.7 C86.71,110.04 75.53,114.04 64,114 C36.39,114 14,91.61 14,64 Z" fill="#CC3333"/>
  <path d="M116.2,63.1 A56.1 56.1 0 1 1 4,63.1 A56.1 56.1 0 1 1 116.2,63.1 Z" fill="#F44336"/>
  <path d="M95.6,102.7 C86.71,110.04 75.53,114.04 64,114 C36.39,114 14,91.61 14,64 C13.96,52.47 17.96,41.29 25.3,32.4 L32.4,25.3 C41.29,17.96 52.47,13.96 64,14 C91.61,14 114,36.39 114,64 C114.04,75.53 110.04,86.71 102.7,95.6" fill="#FFFFFF"/>
  <path d="M95.6,102.7 C86.71,110.04 75.53,114.04 64,114 C36.39,114 14,91.61 14,64 C13.96,52.47 17.96,41.29 25.3,32.4 L32.4,25.3 C41.29,17.96 52.47,13.96 64,14 C91.61,14 114,36.39 114,64 C114.04,75.53 110.04,86.71 102.7,95.6" fill="#231F20"/>
  <path d="M96.4,103.2 C75.91,119.94 45.74,116.9 29,96.41 C14.59,78.78 14.59,53.44 29,35.8 L35.8,29 C44.33,21.97 55.05,18.15 66.1,18.2 C92.55,18.2 114,39.64 114,66.1 C114,77.14 110.18,87.85 103.2,96.4" fill="#414042"/>
  <path d="M81.8,28.1 C79.8,27.6 74.6,26 63.9,26 C53.2,26 47,27.8 46,28.1 C44.65,28.47 43.7,29.7 43.7,31.1 L43.7,97 C43.73,98.39 44.66,99.61 46,100 C47.1,100.3 53.2,102.1 63.9,102.1 C74.6,102.1 79.9,100.5 81.8,100 C83.15,99.63 84.1,98.4 84.1,97 L84.1,31.1 C84.1,29.7 83.15,28.47 81.8,28.1 Z M56.8,30.5 L71,30.5 C71.55,30.5 72,30.95 72,31.5 C72,32.05 71.55,32.5 71,32.5 L56.8,32.5 C56.25,32.5 55.8,32.05 55.8,31.5 C55.8,30.95 56.25,30.5 56.8,30.5 Z M49.9,30.5 C50.45,30.5 50.9,30.95 50.9,31.5 C50.9,32.05 50.45,32.5 49.9,32.5 C49.35,32.5 48.9,32.05 48.9,31.5 C48.94,30.96 49.36,30.54 49.9,30.5 Z M71,97.4 L56.8,97.4 C56.25,97.4 55.8,96.95 55.8,96.4 C55.8,95.85 56.25,95.4 56.8,95.4 L71,95.4 C71.55,95.4 72,95.85 72,96.4 C71.96,96.94 71.54,97.36 71,97.4 Z M79.1,92.4 L48.7,92.4 C48.18,92.43 47.73,92.04 47.7,91.52 C47.7,91.48 47.7,91.44 47.7,91.4 L47.7,36.6 C47.7,36.05 48.15,35.6 48.7,35.6 L79.1,35.6 C79.62,35.57 80.07,35.96 80.1,36.48 C80.1,36.52 80.1,36.56 80.1,36.6 L80.1,91.4 C80.1,91.95 79.65,92.4 79.1,92.4 Z" fill="#FAFAFA"/>
  <path d="M23.4,35.6 L95,102.1 L97,100.2 L30.6,33.4" fill="#231F20" opacity="0.8"/>
  <path d="M103.9,96.8 L25.3,18.9 L18.2,26 L96.8,103.9" fill="#F44336"/>
  <path d="M45,10.9 C46.7,10.5 49.2,9.3 50.9,9.8 C51.99,10.1 52.65,11.2 52.4,12.3 C52.03,13.11 51.28,13.67 50.4,13.8 C46.5,14.77 42.72,16.15 39.1,17.9 C31.92,21.68 25.72,27.09 21,33.7 C19.1,36.4 17.6,39.2 15.2,41.5 C14.99,41.73 14.71,41.87 14.4,41.9 C14.23,41.93 14.05,41.89 13.9,41.8 C12.7,41.3 12.5,40.7 12.7,39.5 C12.88,38.49 13.22,37.51 13.7,36.6 C14.71,34.84 15.81,33.14 17,31.5 C18.89,28.59 21.11,25.91 23.6,23.5 C30.4,17.2 39.2,12.4 45,10.9 Z" fill="#FF8A80"/>
  <path d="M32.4,25.3 L30.4,27.3 L101.5,98.4 L103.3,96.2 Z" fill="#CC3333"/>
</svg>