<svg viewBox="0 0 128 128" xmlns="http://www.w3.org/2000/svg">
  <defs/>
  <path d="M57.52,49.63 C57.52,49.63 54.42,47.52 50.9,47.66 C47.38,47.8 43.02,50.48 43.02,50.48 C43.02,50.48 36.97,50.76 32.32,50.62 C27.67,50.48 16.69,49.21 11.06,51.75 C5.43,54.28 4.02,59.07 4.87,62.87 C5.71,66.67 6.61,72.67 25.42,83.42 C33.66,88.13 42.68,89.86 50.47,90.47 C50.82,91.9 51.67,102.08 53.3,107.49 C55.41,114.53 58.4,114.81 59.49,115.09 C63.85,116.22 62.01,110.46 61.88,106.08 C61.67,98.78 63.29,91.87 64.13,91.86 C65.77,91.85 71.04,93.69 72.3,93.69 C82.44,110.72 91.38,112.86 94.4,110.72 C96.79,109.03 94.26,105.65 91.73,99.6 C90.15,95.82 89.13,94.04 90.78,93.91 C104.31,92.83 120.13,87.53 122.42,66.94 C123.95,53.13 115.7,42.59 114.96,40.61 C115.38,38.57 118.38,33.06 119.68,29.03 C121.86,22.24 122.21,19.21 121.16,19.07 C120.04,18.92 116.09,22.31 111.87,24.98 C108.36,27.21 107.05,33.29 107.05,33.29 C107.05,33.29 101.31,29.77 96.1,32.02 C89.91,34.7 86.67,35.26 86.53,36.24 C86.39,37.23 92.87,39.48 97.37,40.74 C102.03,42.05 107.22,43.13 107.22,43.13 C107.22,43.13 111.72,54.96 104.26,58.33 C96.8,61.71 91.31,57.34 84.27,53.83 C77.23,50.31 70.72,45.98 65.26,46.65 C60.3,47.29 57.52,49.63 57.52,49.63 Z" fill="#6BA4AE"/>
  <path d="M61.25,25.53 C61.25,25.53 60.83,22.54 64.35,21.55 C67.87,20.56 71.74,20.42 71.95,16.83 C72.19,12.75 68.22,11.9 64.98,12.89 C60.62,14.22 57.38,19.08 57.38,19.08 C57.38,19.08 53.58,11.76 47.53,11.76 C42.57,11.76 42.05,15.45 42.46,17.18 C43.09,19.85 46.15,21.09 49.39,21.44 C52.94,21.83 53.3,25.28 53.3,25.28 C53.3,25.28 47.16,21.24 46.4,25.28 C45.63,29.43 52.59,28.52 54.14,32.32 C55.07,34.6 55.34,46.54 57.94,46.4 C60.61,46.26 59.49,32.89 61.32,31.34 C63.15,29.79 69.06,27.96 67.94,25.29 C66.23,21.22 61.25,25.53 61.25,25.53 Z" fill="#36B4E1"/>
  <path d="M78.89,11.81 A2.2 2.23 0 1 1 74.49,11.81 A2.2 2.23 0 1 1 78.89,11.81 Z" fill="#36B4E1"/>
  <path d="M78.17,21.61 A1.55 1.5 0 1 1 75.07,21.61 A1.55 1.5 0 1 1 78.17,21.61 Z" fill="#36B4E1"/>
  <path d="M38.36,11.63 A2.54 2.57 0 1 1 33.28,11.63 A2.54 2.57 0 1 1 38.36,11.63 Z" fill="#36B4E1"/>
  <path d="M35.83,20.04 A1.91 1.96 0 1 1 32.01,20.04 A1.91 1.96 0 1 1 35.83,20.04 Z" fill="#36B4E1"/>
  <path d="M40.487,28.794 C41.032,29.645 40.77,30.787 39.901,31.344 C39.032,31.902 37.884,31.665 37.339,30.814 C36.793,29.963 37.055,28.821 37.924,28.264 C38.794,27.706 39.941,27.944 40.487,28.794 Z" fill="#36B4E1"/>
  <path d="M60.9,74.83 C61.6,77.65 44.85,77.5 30.77,74.97 C16.69,72.44 6.13,66.81 6.13,66.81 C6.11,67.04 4.66,63.47 4.58,60.9 C4.52,58.85 5.28,57.27 5.28,57.27 C5.28,57.27 10.1,61.39 17.99,64.2 C25.87,67.02 35.12,70.22 42.73,71.31 C55.55,73.14 60.41,72.88 60.9,74.83 Z" fill="#FDEACB"/>
  <path d="M65.807,69.835 C66.087,71.653 64.757,73.367 62.836,73.663 C60.915,73.96 59.13,72.726 58.849,70.909 C58.569,69.091 59.899,67.377 61.82,67.081 C63.742,66.785 65.527,68.018 65.807,69.835 Z" fill="#2C292A"/>
  <path d="M117.77,80.82 C117.77,80.82 112.42,86.52 100.03,86.38 C91.67,86.28 78.63,84.83 78.63,84.83 C78.63,84.83 83.13,86.94 85.67,89.76 C88.2,92.58 91.62,99.33 91.62,99.33 C91.62,99.33 103.3,95.99 108.8,91.34 C114.29,86.69 117.77,80.82 117.77,80.82 Z" fill="#A4CED5"/>
  <path d="M9.41,71.74 C9.41,71.74 20.5,78.64 31.2,80.61 C41.9,82.58 51.61,83.71 57.39,83.99 C63.17,84.27 68.79,84.13 68.79,84.13 C68.79,84.13 75.97,95.11 77.8,98.21 C79.63,101.31 83.15,107.92 87.09,109.47 C91.03,111.02 94.59,110.6 94.59,110.6 C94.59,110.6 89.38,114.54 83.43,110.46 C80.88,108.71 74.88,101.38 74.88,101.38 C74.88,101.38 67.56,101.31 63.05,100.85 C58.84,100.42 54.15,99.48 54.15,99.48 C54.15,99.48 53.88,104.07 54.22,106.45 C54.57,108.91 56.26,113.26 60.13,114.19 C61.01,114.4 62.09,114.36 62.03,114.47 C61.57,115.39 57.57,117.07 53.86,113.41 C49.04,108.65 50.06,98.98 50.06,98.98 C50.06,98.98 43.23,97.51 35.14,92.57 C30.53,89.75 21.1,83.84 16.77,79.72 C13.35,76.48 9.41,71.74 9.41,71.74 Z" fill="#A4CED5"/>
  <path d="M54.63,86.87 C57.75,87.69 61.84,86.59 61.88,87.36 C61.95,88.7 57.32,89.22 54.35,88.84 C50.55,88.35 47.98,85.67 48.01,84.83 C48.09,83.28 50.76,85.85 54.63,86.87 Z" fill="#D9EBF3"/>
  <path d="M33.09,82.93 C32.59,83.79 35.84,86.1 37.95,86.66 C40.06,87.22 41.96,87.72 43.44,88.63 C44.92,89.54 46.54,93.28 49.99,94.33 C53.44,95.39 56.54,92.99 60.27,93.13 C64,93.27 66.32,93.2 65.83,92.64 C65.34,92.08 62.52,91.16 60.2,91.02 C57.88,90.88 53.44,92.71 50.56,91.79 C47.67,90.87 47.11,87.57 44.22,86.37 C41.33,85.17 38.94,85.24 37.6,84.75 C36.26,84.27 33.59,82.08 33.09,82.93 Z" fill="#D9EBF3"/>
  <path d="M25,81.45 C24.31,81.6 25.53,84.86 29.89,87.33 C34.25,89.8 37.81,90.26 39.71,91.38 C42.46,93 42.97,95.89 47.31,97.57 C52.94,99.75 57.59,98.27 61.39,98.2 C65.19,98.13 71.53,99.82 71.74,98.83 C72.01,97.57 65.69,96.16 61.18,96.08 C58.08,96.03 54.49,97.49 49.35,96.15 C44.21,94.81 44.28,91.57 40.27,89.46 C37.04,87.76 33.65,86.93 30.91,85.66 C28.17,84.41 25.98,81.24 25,81.45 Z" fill="#D9EBF3"/>
</svg>