<svg viewBox="0 0 128 128" xmlns="http://www.w3.org/2000/svg">
  <linearGradient id="SVGID_1_" gradientTransform="matrix(1 0 0 1 0 -714)" gradientUnits="userSpaceOnUse" x1="64" x2="64" y1="721.3937" y2="797.642">
    <stop offset="0.3439" style="stop-color:#E53935"/>
    <stop offset="0.998" style="stop-color:#C62828"/>
  </linearGradient>
  <path d="M40,104V34c0-13.2,4.8-30,18-30s30,16.8,30,30v70C88,117.2,40,117.2,40,104z" style="fill:url(#SVGID_1_);"/>
  <linearGradient id="SVGID_2_" gradientTransform="matrix(0.9756 0.0193 0.0193 0.9731 -10.4224 -705.2285)" gradientUnits="userSpaceOnUse" x1="50.3936" x2="78.4836" y1="735.2719" y2="761.7408">
    <stop offset="0.1984" style="stop-color:#E57373"/>
    <stop offset="0.8571" style="stop-color:#EF5350"/>
  </linearGradient>
  <path d="M81.3,38c-3.7,4-13.2,1.1-21.2-6.4s-11.5-16.8-7.7-20.8s13.2-1.1,21.2,6.3S85.1,34,81.3,38z" style="fill:url(#SVGID_2_);"/>
  <g style="opacity:0.2;">
    <path d="M58,7c11.6,0,27,15.4,27,27v70c0,3.3-8.4,6.9-21,6.9s-21-3.6-21-6.9V34c0-7,1.4-13.8,3.7-18.7 C49.4,9.8,53.2,7,58,7L58,7z M58,4C44.8,4,40,20.7,40,34v70c0,6.6,12,9.9,24,9.9s24-3.3,24-9.9V34C88,20.7,71.2,4,58,4z" style="fill:#424242;"/>
  </g>
  <linearGradient id="SVGID_3_" gradientTransform="matrix(1 0 0 1 0 -714)" gradientUnits="userSpaceOnUse" x1="36" x2="92" y1="808.4999" y2="808.4999">
    <stop offset="0" style="stop-color:#EDC139"/>
    <stop offset="0.4969" style="stop-color:#FFE596"/>
    <stop offset="1" style="stop-color:#EDC139"/>
  </linearGradient>
  <path d="M92,108H36V85c0-2.2,1.8-4,4-4h48c2.2,0,4,1.8,4,4V108z" style="fill:url(#SVGID_3_);"/>
  <rect height="15.7" style="opacity:0.3;fill:#424242;enable-background:new ;" width="56" x="36" y="101.2"/>
  <linearGradient id="SVGID_4_" gradientTransform="matrix(1 0 0 -1 0 127.8898)" gradientUnits="userSpaceOnUse" x1="31.682" x2="95.132" y1="13.2918" y2="13.2918">
    <stop offset="0.09" style="stop-color:#D9B136"/>
    <stop offset="0.4563" style="stop-color:#F7D66A"/>
    <stop offset="0.8297" style="stop-color:#D9B136"/>
  </linearGradient>
  <path d="M96.1,109.1V124H31.9v-14.8c0-2.2,1.8-4,4-4h56.2C94.3,105.1,96.1,106.9,96.1,109.1z" style="fill:url(#SVGID_4_);"/>
  <g style="opacity:0.2;">
    <path d="M92.1,105L92.1,105L92,85c0-2.2-1.8-4-4-4H40c-2.2,0-4,1.8-4,4v20h-0.1c-2.2,0-3.9,1.9-3.9,4.2V124 h3v-14.8c0-0.6,0.4-1.2,0.9-1.2H36c1.7,0,3-1.3,3-3V85c0-0.6,0.5-1,1-1h48c0.5,0,1,0.5,1,1v20c0,1.7,1.3,3,3,3h0.1 c0.5,0,0.9,0.5,0.9,1.2V124h3v-14.8C96,106.9,94.3,105,92.1,105z" style="fill:#424242;"/>
  </g>
</svg>