<svg viewBox="0 0 128 128" xmlns="http://www.w3.org/2000/svg">
  <defs/>
  <path d="M106.88,22.97 L103.91,20 L117.85,6.06 C118.54,5.37 119.12,5.13 119.69,5.12 L123.65,5.32 C123.97,5.34 124.12,5.74 123.89,5.97 L106.88,22.97 Z" fill="#848484"/>
  <path d="M20.906,105.969 C27.611,112.674 32.053,119.104 30.827,120.33 C29.6,121.556 23.171,117.114 16.465,110.409 C9.76,103.704 5.319,97.274 6.545,96.048 C7.771,94.822 14.201,99.263 20.906,105.969 Z" fill="#B9E4EA"/>
  <path d="M16.58,110.3 C11.4,105.12 5.72,97.54 6.55,96.05 C6.55,96.05 4.81,97.79 4.53,98.07 C2.39,100.21 7,106.47 13.7,113.17 C20.4,119.87 26.66,124.48 28.8,122.34 C29.04,122.1 30.82,120.32 30.82,120.32 C29.77,121.39 21.76,115.48 16.58,110.3 Z" fill="#82AEC0"/>
  <path d="M26.99,114.45 C26.99,114.45 24.67,114.02 18.77,108.11 C12.87,102.21 12.43,99.89 12.43,99.89 L35.05,77.27 L49.61,91.83 L26.99,114.45 Z" fill="#B9E4EA"/>
  <path d="M62.58,88.59 L105.93,45.24 C106.45,44.72 106.45,43.87 105.93,43.35 L83.52,20.96 C83,20.44 82.15,20.44 81.63,20.96 L38.32,64.27 C38.32,64.27 35.84,65.13 32.3,62.99 C30.28,61.76 28.66,60.91 26.87,62.7 C26.87,62.7 26.11,65.69 43.52,83.1 C60.93,100.51 64.32,99.8 64.32,99.8 C65.34,98.78 64.89,97.07 63.69,94.4 C62.23,91.18 62.58,88.59 62.58,88.59 Z" fill="#B9E4EA"/>
  <path d="M106.51,20.37 L106.51,20.37 C104.95,18.81 102.43,18.81 100.88,20.37 L91.82,29.43 L97.45,35.06 L106.51,26 C108.07,24.45 108.07,21.92 106.51,20.37 Z" fill="#00937A"/>
  <path d="M94.06,30.74 L92.66,29.34 L99.96,22.04 C100.35,21.65 100.98,21.65 101.36,22.04 L101.36,22.04 C101.75,22.43 101.75,23.06 101.36,23.44 L94.06,30.74 Z" fill="#12D8B7"/>
  <path d="M55.9,85.54 C55.9,85.54 53.58,85.11 47.68,79.2 C41.78,73.29 41.34,70.98 41.34,70.98 L58.86,53.46 L73.42,68.02 L55.9,85.54 Z" fill="#82AEC0"/>
  <path d="M63.49,100.67 C63.82,100.28 64.14,99.89 64.51,99.54 C64.26,99.6 63.99,99.57 63.75,99.48 C63.5,99.39 63.29,99.25 63.09,99.08 C61.66,97.89 60.23,96.7 58.82,95.49 C56.62,93.6 54.45,91.68 52.31,89.72 C49.65,87.29 47.04,84.8 44.49,82.25 C41.95,79.71 39.47,77.11 37.04,74.47 C35.1,72.36 33.19,70.21 31.32,68.04 C30.64,67.25 29.96,66.45 29.29,65.65 C28.69,64.93 27.85,64.17 27.56,63.28 C27.45,62.93 27.41,62.56 27.51,62.21 C26.35,63 25.44,64.14 24.44,65.13 C24.12,65.45 24.08,65.95 24.36,66.32 C25.82,68.26 30.86,74.62 41.68,85.44 C52.48,96.24 58.7,101.14 60.6,102.57 C60.96,102.84 61.46,102.8 61.78,102.49 C62.14,102.13 62.5,101.77 62.86,101.41 C63.08,101.15 63.29,100.91 63.49,100.67 Z" fill="#82AEC0"/>
  <path d="M83.52,25.81 C85.36,27.65 82.83,29.82 82.83,29.82 C82.83,29.82 48.89,63.5 45.22,67.14 C44.08,68.28 42.86,69.83 41.2,70.06 C38.7,70.31 36.26,68.77 34.81,66.81 C34.62,66.55 34.6,66.17 34.99,66.24 C38.65,67.02 39.84,66.08 42.22,63.45 C44.15,61.54 76.95,28.95 79.59,26.33 C80.62,25.31 82.03,24.31 83.52,25.81 Z" fill="#FFFFFF"/>
  <path d="M81.45,66.77 L60.17,45.63 L54.64,51.14 L75.85,72.37 Z" fill="#455A64"/>
  <path d="M59.83,52.65 L61.68,50.78 C62.7,49.76 64.35,49.76 65.37,50.78 L77.99,63.32 C79.02,64.35 79,66.03 77.97,67.06 L76.12,68.91 C75.09,69.94 73.42,69.94 72.4,68.91 L59.82,56.34 C58.81,55.32 58.81,53.67 59.83,52.65 Z" fill="#212121"/>
</svg>