<svg viewBox="0 0 128 128" xmlns="http://www.w3.org/2000/svg">
  <defs/>
  <path d="M63.76,19.97 C34.67,19.22 25.25,41.74 24.53,50.19 C23.97,56.76 21.15,80.79 34.85,96.93 C41.92,105.26 53.25,109.41 65.26,109.13 C77.37,108.85 88.31,106.44 95.67,96.74 C108.06,80.41 106.74,56.01 105.06,48.12 C103.48,40.78 97.35,20.83 63.76,19.97 Z" fill="#FFEAC8"/>
  <path d="M96.82,64.43 C97.85,72.24 94.46,79.69 85.53,80.22 C77.36,80.71 72.32,75.5 71.92,67.83 C71.51,59.97 75.81,52.66 82.64,51.91 C89.85,51.12 95.8,56.62 96.82,64.43 Z" fill="#D27856"/>
  <path d="M18.9,26.72 C18.9,26.72 9.07,30.57 6.7,36.29 C3.51,43.99 4.98,59.27 6.7,65.2 C8.39,71.02 12.89,77.03 19.84,76.84 C26.79,76.65 32.89,69.61 35.04,60.42 C37.2,51.22 37.67,35.46 38.32,32.64 C38.97,29.82 40.1,27.57 40.1,27.57 C40.1,27.57 31.47,19.21 18.9,26.72 Z" fill="#D27856"/>
  <path d="M101.21,25.5 C101.21,25.5 114.54,25.97 117.73,27.38 C120.92,28.79 123.83,35.17 123.55,43.71 C123.27,52.25 122.71,66.06 118.39,70.83 C114.82,74.77 107.6,75.05 103.56,70.17 C99.52,65.29 96.99,57.03 96.05,51.68 C95.11,46.33 93.52,39.39 92.48,36.29 C91.45,33.19 88.91,27 87.6,25.59 C86.28,24.19 88.91,22.87 101.21,25.5 Z" fill="#D27856"/>
  <path d="M29.97,22.31 C22.74,21.85 10.82,27.57 8.38,33.48 C5.94,39.39 7.37,58.57 9.42,64.17 C11.58,70.08 16.08,77.5 23.87,71.12 C31.66,64.74 33.72,48.69 34.48,43.53 C35.23,38.37 36.26,32.08 37.39,30.77 C38.52,29.46 40.11,27.58 40.11,27.58 C40.11,27.58 38.89,22.87 29.97,22.31 Z" fill="#865B51"/>
  <path d="M102.8,21.09 C109.59,21.56 116.97,24.09 119.69,30.01 C122.41,35.92 121.38,49.91 120.35,56.57 C119.32,63.23 116.88,70.18 110.78,69.43 C104.68,68.68 101.58,60.42 99.71,52.63 C97.83,44.84 95.86,37.05 93.42,31.42 C91.95,28.02 86.85,25.51 86.85,25.51 C86.85,25.51 89.1,20.15 102.8,21.09 Z" fill="#865B51"/>
  <path d="M50.5,67.69 C50.1,71.11 48.34,73.87 44.52,73.47 C41.81,73.18 39.99,69.95 40.39,66.52 C40.79,63.1 41.98,60.64 45.18,60.7 C50.15,60.79 50.9,64.26 50.5,67.69 Z" fill="#2F2F2F"/>
  <path d="M89.74,66.73 C89.9,70.17 88.54,73.11 84.57,73.4 C81.12,73.65 79.35,70.66 79.2,67.22 C79.04,63.78 80.75,61.02 84.04,60.61 C88.31,60.06 89.58,63.29 89.74,66.73 Z" fill="#2F2F2F"/>
  <path d="M75.12,84.07 C75.28,87.51 72.96,90.73 65.73,90.64 C58.69,90.55 56.13,87.7 55.97,84.26 C55.81,80.82 59.81,77.73 65.54,77.6 C73.43,77.4 74.96,80.62 75.12,84.07 Z" fill="#2F2F2F"/>
  <path d="M59.16,97.96 C59.16,97.96 60.01,106.13 60.85,108.57 C62.63,113.73 70.13,112.87 71.46,108.01 C72.59,103.88 71.84,96.75 71.84,96.75 L65.18,95.81 L59.16,97.96 Z" fill="#E94B8C"/>
  <path d="M65.96,100.68 C64.79,100.73 64.83,101.81 64.83,104.29 C64.83,106.78 64.97,108.28 66.1,108.23 C67.23,108.18 67.09,106.26 67.09,104.48 C67.09,102.7 67.18,100.63 65.96,100.68 Z" fill="#EF87B2"/>
  <path d="M50.15,90.21 C48.8,92.2 51.42,93.96 53.58,95.42 C55.74,96.87 58.36,99.08 61.46,99.03 C64.93,98.98 65.87,96.64 65.87,96.64 C65.87,96.64 67,99.41 71.92,98.89 C74.55,98.61 77.79,95.66 78.77,95 C80.65,93.73 82.9,92.14 81.91,90.82 C80.78,89.31 78.39,91.34 75.95,92.6 C73.51,93.87 72.67,94.48 70.84,94.48 C69.01,94.48 67.74,93.73 67.65,90.68 C67.57,88.19 67.6,87.72 67.6,87.72 L63.42,87.72 C63.42,87.72 63.56,90.35 63.56,91.1 C63.56,93.07 62.53,93.92 60.56,94.01 C58.59,94.1 56.48,92.46 55.44,91.85 C54.42,91.25 51.23,88.62 50.15,90.21 Z" fill="#2F2F30"/>
</svg>