<svg viewBox="0 0 128 128" xmlns="http://www.w3.org/2000/svg">
  <defs>
    <radialGradient id="d" cx="60.161" cy="79.925" gradientUnits="userSpaceOnUse" r="73.528">
      <stop offset="0" stop-color="#FFD54F"/>
      <stop offset=".747" stop-color="#FFC107"/>
    </radialGradient>
    <radialGradient id="c" cx="62.235" cy="41.076766" gradientTransform="matrix(1 0 0 1.345 0 0)" gradientUnits="userSpaceOnUse" r="32.315">
      <stop offset=".4862" stop-color="#FFCA28" stop-opacity=".8"/>
      <stop offset=".8603" stop-color="#FFB300"/>
    </radialGradient>
  </defs>
  <path d="M60.4,122.56 C47.23,122.56 41.23,114.7 41.23,107.39 C41.23,103.82 41.75,101.25 42.26,98.77 C43.13,94.5 43.95,90.46 41.67,82.87 C40.81,80.02 38.74,77.41 36.33,74.38 C33.9,71.33 31.16,67.86 29.09,63.42 C22.4,49.02 22.72,34.81 29.99,23.42 C36.97,12.49 49.53,5.42 62.01,5.42 C73.87,5.42 85.88,10.54 94.16,19.11 C100.58,25.76 103.96,33.53 103.7,41 C102.95,62.19 94.58,75.92 87.85,86.96 C84.46,92.52 81.53,97.32 80.28,102 C75.57,119.71 70.56,122.56 60.4,122.56 Z" fill="url(#d)"/>
  <path d="M62.02,6.94 C73.48,6.94 85.09,11.89 93.09,20.17 C99.13,26.43 102.46,34.01 102.21,40.96 C101.48,61.76 93.22,75.31 86.58,86.19 C83.13,91.85 80.15,96.74 78.84,101.62 C74.95,116.21 71.74,121.06 60.41,121.06 C48.27,121.06 42.74,113.98 42.74,107.39 C42.74,103.97 43.25,101.48 43.74,99.07 C44.65,94.61 45.51,90.39 43.11,82.44 C42.17,79.32 40.01,76.6 37.51,73.46 C35.14,70.47 32.45,67.08 30.46,62.8 C24,48.88 24.28,35.18 31.27,24.24 C37.97,13.73 50.05,6.94 62.02,6.94 M62.02,3.94 C38.39,3.94 11.49,29.06 27.74,64.06 C31.89,73 38.64,78 40.24,83.31 C43.71,94.81 39.74,97.39 39.74,107.39 C39.74,116.06 47.07,124.06 60.41,124.06 C73.75,124.06 77.74,117.39 81.74,102.39 C85.32,88.96 104.07,73.39 105.21,41.06 C105.85,22.82 85.64,3.94 62.02,3.94 Z" fill="#EDA600"/>
  <path d="M94.89,43.79 C95.36,30.24 80.53,16.21 63.18,16.21 C45.83,16.21 26.07,34.88 38,60.88 C41.05,67.53 48.37,70.58 50.09,74.73 C51.81,78.88 49.09,83.04 48.08,87.19 C47.07,91.38 46.53,95.13 49.64,97.29 C56.65,102.14 57.38,87 66.88,86.51 C76.22,86.03 75.34,95.93 80.05,82.92 C83.58,73.22 94.05,67.82 94.89,43.79 Z" fill="url(#c)"/>
  <path d="M48.44,46.28 C48.2,45.95 47.8,46.45 48.01,46.8 C49.6,49.54 52.99,53.4 56.59,54.28 C61.88,55.57 67.55,57.51 70.73,62.4 C77.22,72.38 73.06,83.88 62.27,87.03 C60.47,87.55 60.78,88.19 62.58,87.66 C73.5,84.48 80.02,74.76 75.39,63.73 C69.87,50.56 56.23,57.24 48.44,46.28 Z" fill="#EDA600" opacity="0.8"/>
  <path d="M36.72,35.07 C36.72,35.07 51.3,16.01 71.67,22.14 C81.22,25.01 88.94,34.08 90.41,44 C92.07,55.25 78.95,84.31 78.95,84.31 L82.23,79.67 C82.23,79.67 98.49,55.43 94.49,40.55 C84.79,4.4 46.74,15.4 41.14,27.41 C38.34,33.44 36.72,35.07 36.72,35.07 Z" fill="#EDA600"/>
  <path d="M53.82,71.15 C55.83,74.42 55.7,78.25 54.93,81.52 C54.28,84.23 51.9,86.63 50.1,87.34 C49.208,87.69 48.68,87.73 48.345,87.63 C48.627,86.725 48.988,85.9 49.346,85.085 C50.446,82.576 51.509,80.15 50.09,75.73 C48.794,71.692 45.553,69.886 42.567,67.446 C47.477,65.044 52.272,68.644 53.82,71.15 Z" fill="#D48322"/>
</svg>