<svg viewBox="0 0 128 128" xmlns="http://www.w3.org/2000/svg">
  <defs/>
  <path d="M67.96,38.21 L95.96,86.71 C96.87,88.57 96.1,90.82 94.24,91.73 C93.75,91.97 93.21,92.1 92.66,92.11 L36.66,92.11 C34.63,92.14 32.96,90.51 32.93,88.48 C32.92,87.86 33.07,87.26 33.36,86.71 L61.36,38.21 C62.21,36.39 64.37,35.6 66.2,36.45 C66.97,36.81 67.6,37.43 67.96,38.21 Z" fill="#CC3333"/>
  <path d="M64.6,43.01 L90.1,87.21 C90.94,88.88 90.27,90.91 88.6,91.75 C88.13,91.98 87.62,92.11 87.1,92.11 L36.1,92.11 C34.24,92.12 32.73,90.62 32.73,88.76 C32.73,88.22 32.86,87.69 33.1,87.21 L58.6,43.01 C59.33,41.35 61.27,40.6 62.93,41.34 C63.67,41.66 64.27,42.26 64.6,43.01 Z" fill="#F44336"/>
  <path d="M60.72,47.85 C59.7,48.99 41.93,78.83 41.93,78.83 C41.93,78.83 40.41,81.12 42.18,82.51 C43.96,83.91 45.61,82.51 46.37,81.37 C47.13,80.23 63.26,53.44 63.89,52.17 C64.45,50.72 64.21,49.08 63.26,47.85 C62.37,46.96 61.36,46.96 60.72,47.85 Z" fill="#FF8A80"/>
</svg>