<svg viewBox="0 0 128 128" xmlns="http://www.w3.org/2000/svg">
  <linearGradient id="SVGID_1_" gradientTransform="matrix(-1 0 0 1 -1783.9199 -1326.145)" gradientUnits="userSpaceOnUse" x1="-1898.6163" x2="-1795.0734" y1="1440.6368" y2="1337.0947">
    <stop offset="0" stop-color="#757575"/>
    <stop offset="1" stop-color="#BDBDBD"/>
  </linearGradient>
  <path d="M10.7,82c7-7.6,17.5-10.1,26.6-6.7l0,0l38.2-38.5c-2.8-8.5-1.1-18.8,5.9-25.7 c7.4-7.4,18.4-8.9,27.3-5.3c1.1,0.5,1.5,2,0.7,2.9L92.7,25.4c-0.3,0.4-0.6,0.8-0.5,1.3l0.6,6.6c0.1,0.8,0.7,1.4,1.5,1.5l6.8,0.8 c0.5,0,1.1,0,1.5-0.3l16.6-16.6c0.8-0.8,2.1-0.8,2.6,0.3c4.1,9.1,2.4,19.4-4.4,26.8c-7,7.6-17.5,10.1-26.6,6.7L52.6,90.9 c2.8,8.5,1,18.7-5.9,25.7c-7.4,7.4-18.4,9-27.2,5.3c-1.1-0.5-1.5-2-0.6-2.8l16.6-16.6c0.3-0.3,0.5-0.9,0.5-1.4l-0.6-6.7 c-0.1-0.8-0.7-1.4-1.5-1.5l-6.8-0.7c-0.5-0.1-1.1,0-1.4,0.4L8.9,109.2c-0.8,0.8-2.1,0.7-2.6-0.4C2.1,99.7,3.8,89.4,10.7,82z" fill="url(#SVGID_1_)"/>
  <g opacity="0.2">
    <path d="M98.9,7c2.3,0,4.6,0.4,6.8,1L90.5,23.2c-1,1-1.5,2.4-1.4,3.7l0.6,6.7c0.2,2.2,2,4,4.2,4.2l6.8,0.8 c0,0,0,0,0.1,0c0.2,0,0.4,0,0.7,0c1.7,0,2.7-0.7,3.2-1.2l15.2-15.2c2.5,7.4,0.8,15.5-4.7,21.5c-4.2,4.6-10.1,7.2-16.1,7.2 c-2.5,0-4.9-0.4-7.2-1.3c-0.3-0.1-0.7-0.2-1-0.2c-0.8,0-1.6,0.3-2.1,0.9L50.5,88.8c-0.8,0.8-1.1,2-0.7,3.1 c2.6,7.9,0.6,16.8-5.2,22.6c-4.1,4.1-9.6,6.3-15.5,6.3c-2.3,0-4.6-0.3-6.7-1l15.2-15.2c1-1,1.5-2.3,1.3-3.8l-0.6-6.7 c-0.2-2.2-2-4-4.2-4.2l-6.8-0.7c-0.2,0-0.4,0-0.5,0c-1.3,0-2.5,0.4-3.3,1.3L8.2,105.6c-2.6-7.4-0.8-15.5,4.7-21.5 c4.2-4.6,10.1-7.2,16.1-7.2c2.3,0,4.6,0.4,6.7,1.1c0.5,0.3,1,0.4,1.5,0.4c0.6,0,1.2-0.2,1.8-0.6l0,0c0.2-0.1,0.3-0.3,0.5-0.5 l38-38.3c0.8-0.8,1.1-2,0.7-3.1c-2.7-8-0.6-16.9,5.2-22.6C87.5,9.2,93,7,98.9,7 M98.9,4c-6.3,0-12.8,2.3-17.6,7.2 c-7,7-8.7,17.2-5.9,25.7L37.3,75.3l0,0l0,0l0,0c-2.7-1-5.5-1.5-8.3-1.5c-6.7,0-13.4,2.8-18.3,8.2c-6.8,7.4-8.6,17.7-4.4,26.8 c0.3,0.6,0.8,0.9,1.4,0.9c0.4,0,0.9-0.2,1.2-0.5l16.6-16.6c0.3-0.3,0.8-0.4,1.2-0.4c0.1,0,0.2,0,0.3,0l6.8,0.7 c0.8,0.1,1.4,0.7,1.5,1.5l0.6,6.7c0,0.5-0.1,1-0.5,1.4L18.8,119c-0.9,0.9-0.5,2.4,0.6,2.8c3,1.3,6.3,1.9,9.6,1.9 c6.3,0,12.8-2.3,17.6-7.2c7-7,8.8-17.2,5.9-25.7l38.1-38.4c2.7,1,5.5,1.5,8.2,1.5c6.7,0,13.4-2.8,18.3-8.2 c6.8-7.4,8.6-17.7,4.4-26.8c-0.3-0.6-0.8-0.9-1.3-0.9c-0.4,0-0.9,0.2-1.3,0.6l-16.6,16.6c-0.3,0.3-0.7,0.3-1.1,0.3 c-0.1,0-0.2,0-0.4,0L94,34.7c-0.8-0.1-1.4-0.7-1.5-1.5l-0.6-6.6c-0.1-0.5,0.2-1,0.5-1.3L109,8.7c0.9-0.9,0.5-2.4-0.7-2.9 C105.5,4.7,102.2,4,98.9,4L98.9,4z" fill="#424242"/>
  </g>
</svg>