<svg viewBox="0 0 128 128" xmlns="http://www.w3.org/2000/svg">
  <defs/>
  <path d="M109.3,53.2 L115.9,42.8 L106.8,38.8 C105.5,38.4 104.4,37.6 103.7,36.3 C103,35 103,33.5 103.5,32.1 L108.7,17.6 L93,26 C91.7,26.6 90.2,26.5 89,26 C87.8,25.5 86.9,24.5 86.5,23.3 L82.5,15.5 L75.8,21.8 C73.9,23.4 71.3,23.3 69.4,21.8 L54.5,9.6 L47.3,21.7 C46.1,24 43.2,24.9 40.8,23.8 L22.5,15.1 L26.6,29.6 C27,30.9 26.8,32.4 26,33.6 C25.3,34.8 24.1,35.6 22.7,35.8 L15.9,37 L19,42.6 C19.8,43.6 20.1,44.9 19.9,46.2 C19.7,47.6 18.9,48.9 17.7,49.6 L8.4,55.6 L20.8,61.7 C22.3,62.4 23.3,63.7 23.6,65.2 C23.9,66.7 23.5,68.2 22.5,69.4 L17.1,77.2 L24.9,78.5 C26.5,78.7 27.9,79.7 28.7,81.1 C29.5,82.6 29.5,84.3 28.7,85.8 L12,115.7 L42.9,94.2 C44.1,93.3 45.7,93.1 47.1,93.5 C48.5,93.9 49.7,95 50.3,96.4 L50.4,96.7 L52.3,103.1 L67,94 C68.6,92.9 70.8,92.9 72.4,93.9 L84.1,101 L85.7,94.3 C85.9,92.9 86.8,91.6 88,90.9 C89.3,90.1 90.9,90 92.3,90.5 L109.2,96.8 L103.8,81 C103.2,79.7 103.3,78.2 103.9,76.9 C104.5,75.6 105.7,74.6 107.1,74.3 L120.2,70.4 L109.5,59.5 C107.9,57.9 107.9,55.1 109.3,53.2 Z" fill="#FFFFFF"/>
  <path d="M126,67.9 L114.5,56.3 L121.8,44.8 L121.9,44.7 C122.7,43.4 122.7,41.7 122.1,40.3 C121.5,39 120.4,38.1 119,37.7 L109.5,33.5 L115.3,17.4 C116.1,15.6 115.7,13.5 114.3,12 C112.9,10.5 110.7,10.1 108.8,10.9 L91.6,20.1 L87.2,11.5 C86.7,10.1 85.7,9.2 84.4,8.8 C82.9,8.3 81.1,8.8 79.8,9.9 L72.7,16.6 L57.5,4.2 C56.3,3.2 54.8,2.8 53.3,3.1 C51.8,3.4 50.6,4.3 49.9,5.6 L42.6,18 L23,8.7 C21.2,7.9 19.2,8.1 17.7,9.4 C16.2,10.7 15.6,12.6 16.1,14.5 L20.5,30.2 L13.2,31.4 C11.5,31.7 10,32.9 9.4,34.6 C8.8,36.1 9.1,37.9 10.1,39.2 L13.4,45.2 L3.5,51.6 C2,52.6 1.1,54.4 1.3,56.2 C1.5,58 2.6,59.5 4.2,60.2 L17.1,66.5 L11,75.4 C9.9,76.7 9.5,78.3 10.1,79.8 C10.7,81.4 12.3,82.6 14.3,82.8 L22.7,84.2 L4.4,116.8 C3.3,118.8 3.7,121.3 5.4,122.9 C6.3,123.7 7.5,124.2 8.7,124.2 C9.7,124.2 10.7,123.9 11.5,123.3 L45,100 L46.9,106.3 L47,106.6 C47.6,108 48.7,109 50.2,109.5 C51.6,109.9 53.1,109.7 54.3,108.8 L69.7,99.4 L82.1,106.9 C83.5,107.8 85.3,108 86.8,107.3 C88.3,106.6 89.4,105.2 89.6,103.6 L91.2,96.7 L109.1,103.4 C111,104.1 113.1,103.6 114.4,102.1 C115.7,100.7 116.1,98.6 115.3,96.8 L109.5,79.9 L123.3,75.8 C124.9,75.4 126.2,74.2 126.7,72.6 C127.4,71 127.1,69.2 126,67.9 Z M107.1,74.4 C105.7,74.8 104.5,75.7 103.9,77 C103.3,78.3 103.2,79.8 103.8,81.1 L109.2,96.9 L92.3,90.6 C90.9,90.1 89.3,90.2 88,91 C86.8,91.8 85.9,93 85.7,94.4 L84.1,101.1 L72.4,94 C70.7,92.9 68.6,92.9 67,94.1 L52.2,103.1 L50.3,96.7 L50.2,96.4 C49.6,95 48.5,94 47,93.5 C45.5,93 44,93.3 42.8,94.2 L11.9,115.7 L28.6,85.8 C29.4,84.3 29.4,82.6 28.6,81.1 C27.8,79.7 26.4,78.7 24.8,78.5 L17,77.2 L22.4,69.4 C23.4,68.2 23.8,66.7 23.5,65.2 C23.2,63.6 22.1,62.3 20.7,61.7 L8.4,55.6 L17.7,49.6 C18.9,48.8 19.7,47.6 19.9,46.2 C20.1,44.9 19.7,43.6 19,42.6 L15.9,37 L22.8,35.8 C24.2,35.6 25.4,34.7 26.1,33.6 C26.8,32.4 27,31 26.7,29.6 L22.6,15.1 L40.9,23.8 C43.3,24.9 46.1,24 47.4,21.7 L54.6,9.6 L69.5,21.8 C71.3,23.4 74,23.4 75.9,21.8 L82.6,15.6 L86.6,23.4 C87,24.6 88,25.6 89.1,26.1 C90.4,26.7 91.9,26.7 93.1,26.1 L108.8,17.7 L103.6,32.2 C103,33.5 103.1,35.1 103.8,36.4 C104.4,37.6 105.5,38.5 106.9,38.9 L116,42.9 L109.4,53.3 C108,55.1 108,57.9 109.5,59.7 L120.2,70.6 L107.1,74.4 Z" fill="#2F2F2F"/>
</svg>