<svg viewBox="0 0 128 128" xmlns="http://www.w3.org/2000/svg">
  <defs>
    <linearGradient id="SVGID_2_" gradientUnits="userSpaceOnUse" x1="64.1153" x2="64.1153" y1="50.815" y2="112.9698">
      <stop offset="0" stop-color="#BDBDBD"/>
      <stop offset="0.5591" stop-color="#919191"/>
      <stop offset="0.9629" stop-color="#757575"/>
    </linearGradient>
    <linearGradient id="SVGID_1_" gradientUnits="userSpaceOnUse" x1="64" x2="64" y1="66.7761" y2="141.5314">
      <stop offset="0" stop-color="#424242"/>
      <stop offset="0.3055" stop-color="#222222"/>
      <stop offset="0.8701" stop-color="#000000"/>
    </linearGradient>
  </defs>
  <path d="M121.07,82 A57.07 29.74 0 1 1 6.93,82 A57.07 29.74 0 1 1 121.07,82 Z" fill="url(#SVGID_1_)"/>
  <path d="M117.95,95.7 C142.96,68.4 89.23,46.3 52.42,51.32 C10.53,54.9 -16.53,84.73 23.49,105.06 C53.87,120.5 102.81,112.99 117.95,95.7 C117.94,95.7 117.94,95.7 117.95,95.7 C117.94,95.7 117.94,95.7 117.95,95.7 Z M64,109.27 C39.9,109.27 18.79,101.4 11.1,90.76 C24.81,56.59 105.02,58.53 116.9,90.76 C109.21,101.39 88.1,109.27 64,109.27 Z" fill="url(#SVGID_2_)"/>
  <path d="M11.1,90.76 C12.9,86.28 15.85,82.42 19.63,79.17 L18.96,64.96 C10.58,69.7 7.27,76.23 7.27,81.5 C7.27,85.87 11.1,90.76 11.1,90.76 Z" fill="#757575"/>
  <path d="M116.91,90.76 C115.11,86.28 112.36,82.36 108.39,79.13 L109.05,64.97 C117.42,69.71 120.74,76.24 120.74,81.51 C120.74,85.87 116.91,90.76 116.91,90.76 Z" fill="#757575"/>
</svg>