<svg viewBox="0 0 128 128" xmlns="http://www.w3.org/2000/svg">
  <defs/>
  <path d="M53.32,18.8 C53.32,11.71 59.09,5.94 66.18,5.94 C73.27,5.94 79.04,11.71 79.04,18.8 C79.04,25.89 73.27,31.66 66.18,31.66 C59.09,31.66 53.32,25.9 53.32,18.8 Z M60.8,18.8 C60.8,21.77 63.21,24.18 66.18,24.18 C69.15,24.18 71.56,21.77 71.56,18.8 C71.56,15.83 69.15,13.42 66.18,13.42 C63.21,13.42 60.8,15.84 60.8,18.8 Z" fill="#E2A610"/>
  <path d="M77.24,12.28 C77.24,12.28 77.81,14.55 75.18,15.79 C72.55,17.02 70.81,16.11 70.81,16.11 C71.28,16.91 71.56,17.82 71.56,18.81 C71.56,21.78 69.15,24.19 66.18,24.19 C63.21,24.19 60.8,21.78 60.8,18.81 C60.8,18.51 60.87,17.38 61.35,16.44 C56.89,18.56 53.5,16.75 53.5,16.75 C53.39,17.42 53.32,18.11 53.32,18.81 C53.32,25.9 59.09,31.67 66.18,31.67 C73.27,31.67 79.04,25.9 79.04,18.8 C79.04,16.42 78.38,14.19 77.24,12.28 Z" fill="#9E740B"/>
  <path d="M10.46,97.8 C17.23,91.15 21.45,88.91 23.17,79.27 C24.89,69.63 23.51,49.32 31.09,36.02 C38.01,23.84 50.71,18.8 63.1,18.8 C63.4,18.8 63.7,18.82 64,18.82 C64.3,18.81 64.6,18.8 64.9,18.8 C77.29,18.8 89.99,23.84 96.91,36.01 C104.48,49.32 103.11,69.63 104.83,79.26 C106.55,88.9 110.77,91.14 117.54,97.79 C120.46,100.66 123.99,105.23 124,108.17 C124.01,111.11 122.51,112.18 118.94,113.68 C108.84,117.93 95.34,122.05 64,122.05 C32.66,122.05 19.16,117.93 9.06,113.68 C5.49,112.18 3.99,111.12 4,108.17 C4.01,105.24 7.54,100.67 10.46,97.8 Z" fill="#FFCA28"/>
  <path d="M113.7,108.38 C113.7,103.95 91.45,100.36 64,100.36 C36.55,100.36 14.3,103.95 14.3,108.38 C14.3,112.81 36.55,118.1 64,118.1 C91.45,118.1 113.7,112.81 113.7,108.38 Z" fill="#4E342E"/>
  <path d="M93.84,44.79 C94.21,46.2 94.52,47.61 94.77,48.99 C96.04,56.05 95.81,63.29 96.38,70.44 C97.15,80.01 98.85,85.05 102.72,89.55 C103.23,90.14 102.71,91.05 101.94,90.93 C96.77,90.14 92.62,89.35 87.89,86.23 C80.83,81.58 79.09,72.83 79.04,64.97 C78.96,53.27 79.18,41.94 78.25,37.64 C76.96,31.65 75.76,28.46 73.8,25.55 C70.81,21.11 82.42,27.27 84.24,28.64 C89.31,32.47 92.22,38.63 93.84,44.79 Z" fill="#E2A610"/>
  <path d="M30.89,60.32 C30.77,52.74 30.83,44.9 33.85,37.94 C35.66,33.78 38.73,30.03 42.65,27.7 C45.73,25.87 51.99,23.85 54.24,28 C54.69,28.83 54.87,29.8 54.9,30.75 C54.98,34.06 53.26,37.12 51.59,39.98 C46.65,48.46 44.68,57.73 42.07,67.13 C41,71.01 39.64,74.88 37.31,78.16 C35.71,80.41 26.8,88.41 28.84,81.18 C30.8,74.19 31,67.6 30.89,60.32 Z" fill="#FFF59D"/>
  <path d="M73.09,106.82 C73.08,105.1 72.15,104.11 70.01,103.37 C65.57,101.84 60.01,102.12 56.77,103.86 C53.37,105.68 55.73,115.77 64,115.77 C72.27,115.77 73.1,108.13 73.09,106.82 Z" fill="#E2A610"/>
  <path d="M33.25,91.79 C24.47,93.33 18.11,96.66 15.36,99.36 C13.18,101.49 13.18,103.17 17.02,101.42 C19.91,100.1 29.17,97.42 37.28,96.61 C51.21,95.21 59.81,95.18 61.24,95.21 C64.59,95.28 64.87,92.7 58.1,91.79 C51.33,90.89 42.03,90.26 33.25,91.79 Z" fill="#FFF59D"/>
  <path d="M60.46,113.82 C61.62,114.62 63.16,115.01 64.46,114.47 C65.76,113.93 66.6,112.28 65.96,111.03 C65.71,110.54 65.28,110.17 64.85,109.83 C63.66,108.9 62.34,108.14 60.94,107.58 C60.39,107.36 59.81,107.16 59.21,107.2 C58.62,107.23 58,107.54 57.77,108.09 C56.78,110.34 58.76,112.66 60.46,113.82 Z" fill="#FFF59D"/>
</svg>