<svg viewBox="0 0 128 128" xmlns="http://www.w3.org/2000/svg">
  <defs/>
  <path d="M121.37,116.03 L114.7,121.8 C112.13,124.02 108.23,123.73 106.03,121.15 L26.96,25.71 L37.13,18.06 L121.88,107.44 C124.16,109.94 123.93,113.81 121.37,116.03 Z" fill="#A06841"/>
  <path d="M34.19,34.43 L53.01,57.15 C55.94,52.73 57.44,47.43 58.64,40.74 L40.47,21.58 C39,22.79 37.73,24.24 36.76,25.87 C35.21,28.46 34.4,31.41 34.19,34.43 Z" fill="#7D5133"/>
  <path d="M71.49,4.73 C54.22,4.53 47.83,6.06 38.21,14.37 C35.33,16.86 32.44,19.35 29.56,21.84 C26.42,24.55 22.25,26.91 22.91,31.6 C23.15,33.31 23.68,35.04 23.36,36.74 C23.05,38.34 21.19,39.14 19.86,38.23 C18.62,37.37 17.24,36.32 15.71,36.14 C14.27,35.98 12.76,36.43 11.68,37.39 C11.68,37.39 4.99,43.34 4.99,43.34 C4.99,43.34 4.03,47.23 11.52,55.71 C19.01,64.19 23.83,63.58 23.83,63.58 C23.83,63.58 30.12,58.05 30.12,58.05 C31.18,57.12 31.72,55.76 31.7,54.35 C31.67,52.71 30.71,51.44 30.14,49.96 C30.03,49.68 29.4,48.68 30.5,47.78 C31.48,46.93 33.49,47.22 34.63,47.53 C35.78,47.84 36.87,48.33 38.03,48.63 C40.28,49.22 41.33,48.17 42.9,46.82 C44.28,45.62 52.62,38.42 55.4,36.02 C60.95,31.22 52.49,22.82 52.49,22.82 C48.49,18.32 72.66,6.98 72.66,6.98 C74.42,6.35 73.88,4.76 71.49,4.73 Z" fill="#82AEC0"/>
  <path d="M38.02,48.63 C38.49,48.75 38.9,48.79 39.28,48.78 C39.28,48.72 39.28,48.65 39.28,48.59 C39.18,47.51 38.59,46.54 38,45.64 C34.27,39.96 29.63,34.88 24.31,30.64 C23.87,30.29 23.41,29.94 22.94,29.64 C22.84,30.25 22.82,30.9 22.92,31.61 C23.16,33.32 23.69,35.05 23.37,36.75 C23.03,38.5 21.2,38.99 19.79,38.33 C23.44,40.69 26.58,43.84 28.85,47.54 C29.16,48.04 29.47,48.57 29.83,49.04 C29.88,48.55 30.1,48.09 30.51,47.78 C31.49,46.93 33.5,47.22 34.64,47.53 C35.77,47.84 36.87,48.33 38.02,48.63 Z" fill="#2F7889"/>
  <path d="M17.43,50.74 C22.67,56.22 25.62,61.91 24.02,63.45 C22.41,64.99 16.86,61.79 11.61,56.31 C6.36,50.83 3.38,44.89 4.98,43.35 C6.58,41.81 12.19,45.26 17.43,50.74 Z" fill="#2F7889"/>
  <path d="M37.85,22.4 C42.02,20.62 45.74,16.82 50.59,12.63 C51.98,11.43 53.74,10.3 55.54,9.45 C56.21,9.13 55.97,8.11 55.22,8.13 C52.72,8.17 50.49,8.93 48.3,9.88 C45.23,11.21 42.53,13.24 39.91,15.32 C38.12,16.75 33.91,20.3 31.26,22.54 C30.77,22.96 31.15,23.61 31.8,23.62 C33.68,23.63 34.73,23.73 37.85,22.4 Z" fill="#B9E4EA"/>
  <path d="M11.57,39.81 C9.81,41.79 12.05,42.33 16.01,45.6 C18.8,47.91 21.76,45.77 21.79,43.61 C21.81,41.67 21.33,40.63 18.5,38.85 C15.68,37.07 13.17,38.01 11.57,39.81 Z" fill="#B9E4EA"/>
</svg>