<svg viewBox="0 0 128 128" xmlns="http://www.w3.org/2000/svg">
  <defs/>
  <path d="M124,64 A60 60 0 1 1 4,64 A60 60 0 1 1 124,64 Z" fill="#98C0D0"/>
  <path d="M112.14,64 A48.14 48.14 0 1 1 15.86,64 A48.14 48.14 0 1 1 112.14,64 Z" fill="#FCEBCD"/>
  <path d="M50.3,15.06 C43.88,16.92 34.89,19.77 25.27,31.26 C15.77,42.63 13.81,55.84 13.2,64.95 C13.2,64.95 7.71,71.82 7.45,70.54 C5.38,60.59 9.56,38.35 20.49,26.59 C33.21,12.91 49.75,8.06 55.73,7.15 C56.76,6.99 52.25,14.5 50.3,15.06 Z" fill="#C2E3F0"/>
  <path d="M109.59,64 A45.59 45.59 0 1 1 18.41,64 A45.59 45.59 0 1 1 109.59,64 Z" fill="#FFFFFF"/>
  <path d="M66,64.07 L66,93.07 Q66,95.07 64,95.07 Q62,95.07 62,93.07 L62,64.07 Q62,62.07 64,62.07 Q66,62.07 66,64.07 Z" fill="#563428"/>
  <path d="M69.06,64 A5.06 5.06 0 1 1 58.94,64 A5.06 5.06 0 1 1 69.06,64 Z" fill="#563428"/>
  <path d="M61.894,66.136 L46.774,51.226 Q45.889,50.354 45.88,49.111 Q45.871,47.868 46.744,46.984 Q47.616,46.099 48.859,46.09 Q50.102,46.081 50.986,46.954 L66.106,61.864 Q66.991,62.736 67,63.979 Q67.009,65.222 66.136,66.106 Q65.264,66.991 64.021,67 Q62.778,67.009 61.894,66.136 Z" fill="#563428"/>
  <path d="M66.5,100 L66.5,105 L61.5,105 L61.5,100 L66.5,100 Z" fill="#6596A3"/>
  <path d="M66.5,23 L66.5,28 L61.5,28 L61.5,23 L66.5,23 Z" fill="#6596A3"/>
  <path d="M66.5,100 L66.5,105 L61.5,105 L61.5,100 L66.5,100 Z" fill="#6596A3"/>
  <path d="M66.5,23 L66.5,28 L61.5,28 L61.5,23 L66.5,23 Z" fill="#6596A3"/>
  <path d="M28,66.5 L23,66.5 L23,61.5 L28,61.5 L28,66.5 Z" fill="#6596A3"/>
  <path d="M105,66.5 L100,66.5 L100,61.5 L105,61.5 L105,66.5 Z" fill="#6596A3"/>
  <path d="M28,66.5 L23,66.5 L23,61.5 L28,61.5 L28,66.5 Z" fill="#6596A3"/>
  <path d="M105,66.5 L100,66.5 L100,61.5 L105,61.5 L105,66.5 Z" fill="#6596A3"/>
  <path d="M47.299,95.93 L44.799,100.26 L42.201,98.76 L44.701,94.43 L47.299,95.93 Z" fill="#B0BEC5"/>
  <path d="M85.799,29.24 L83.299,33.57 L80.701,32.07 L83.201,27.74 L85.799,29.24 Z" fill="#B0BEC5"/>
  <path d="M47.299,95.93 L44.799,100.26 L42.201,98.76 L44.701,94.43 L47.299,95.93 Z" fill="#B0BEC5"/>
  <path d="M85.799,29.24 L83.299,33.57 L80.701,32.07 L83.201,27.74 L85.799,29.24 Z" fill="#B0BEC5"/>
  <path d="M83.299,94.43 L85.799,98.76 L83.201,100.26 L80.701,95.93 L83.299,94.43 Z" fill="#B0BEC5"/>
  <path d="M44.799,27.74 L47.299,32.07 L44.701,33.57 L42.201,29.24 L44.799,27.74 Z" fill="#B0BEC5"/>
  <path d="M83.299,94.43 L85.799,98.76 L83.201,100.26 L80.701,95.93 L83.299,94.43 Z" fill="#B0BEC5"/>
  <path d="M44.799,27.74 L47.299,32.07 L44.701,33.57 L42.201,29.24 L44.799,27.74 Z" fill="#B0BEC5"/>
  <path d="M95.93,80.701 L100.26,83.201 L98.76,85.799 L94.43,83.299 L95.93,80.701 Z" fill="#B0BEC5"/>
  <path d="M29.24,42.201 L33.57,44.701 L32.07,47.299 L27.74,44.799 L29.24,42.201 Z" fill="#B0BEC5"/>
  <path d="M95.93,80.701 L100.26,83.201 L98.76,85.799 L94.43,83.299 L95.93,80.701 Z" fill="#B0BEC5"/>
  <path d="M29.24,42.201 L33.57,44.701 L32.07,47.299 L27.74,44.799 L29.24,42.201 Z" fill="#B0BEC5"/>
  <path d="M33.57,83.299 L29.24,85.799 L27.74,83.201 L32.07,80.701 L33.57,83.299 Z" fill="#B0BEC5"/>
  <path d="M100.26,44.799 L95.93,47.299 L94.43,44.701 L98.76,42.201 L100.26,44.799 Z" fill="#B0BEC5"/>
  <path d="M33.57,83.299 L29.24,85.799 L27.74,83.201 L32.07,80.701 L33.57,83.299 Z" fill="#B0BEC5"/>
  <path d="M100.26,44.799 L95.93,47.299 L94.43,44.701 L98.76,42.201 L100.26,44.799 Z" fill="#B0BEC5"/>
</svg>