<svg viewBox="0 0 128 128" xmlns="http://www.w3.org/2000/svg">
  <defs/>
  <path d="M15.07,52.73 C15.07,52.73 19.96,51.47 21.8,51.51 C24.12,51.56 26.77,52.21 28.18,53.06 C29.59,53.9 34.84,52.66 34.84,52.66 C34.84,52.66 37.87,52.87 36.81,50.62 C36.29,49.51 30.72,47.83 27.38,47.31 C23.02,46.63 17.03,48.08 17.03,48.08 C17.03,48.08 16.61,42.92 15.41,40.2 C14.73,38.64 12.38,33.44 10.34,31.33 C9.01,29.95 7.11,28.46 5.48,29.36 C3.44,30.49 5.69,34.43 7.45,37.31 C9.21,40.19 11.83,43.26 12.73,45.76 C13.38,47.52 15.07,52.73 15.07,52.73 Z" fill="#6B7E37"/>
  <path d="M21.79,40.94 C21.79,40.94 23.97,35.66 24.32,33.13 C24.67,30.6 24.81,26.02 23.9,23.56 C23.3,21.95 22.14,20.81 20.73,21.45 C19.89,21.83 18.03,23.95 18.62,28.07 C19.18,32.01 19.61,35.11 19.61,38.14 C19.61,40.18 19.26,42.86 19.26,42.86 L21.79,40.94 Z" fill="#6B7E37"/>
  <path d="M19.93,44.92 C19.93,44.92 22.82,44.36 26.19,44.43 C29.56,44.5 36.33,45.98 40.34,45.84 C44.35,45.7 44.99,43.8 43.86,42.32 C42.73,40.84 39.71,38.45 33.86,39.01 C29.43,39.44 22.46,41.79 22.46,41.79 L19.93,44.92 Z" fill="#6B7E37"/>
  <path d="M25.14,73.92 C25.14,73.92 25.07,74.98 24.37,75.54 C23.62,76.14 22.68,76.31 22.68,76.31 C22.68,76.31 16.98,71.24 15.01,65.33 C13.05,59.44 13.78,54.06 13.88,52.94 C14.09,50.69 15.36,47.8 16.55,45.9 C18.2,43.29 21.2,40.13 22.67,38.72 C24.15,37.31 26.4,34.78 28.09,32.95 C29.47,31.46 33.42,27.28 34.85,26.19 C37.52,24.15 41.47,21.54 43.16,23.87 C44.85,26.19 41.33,30.06 38.51,31.96 C35.69,33.86 31.82,36.25 29.99,37.1 C28.98,37.57 25.49,39.85 23.73,41.75 C21.97,43.65 19.01,46.82 17.96,49.84 C16.9,52.87 16.62,55.77 16.97,59.91 C17.32,64.06 19.79,68.42 20.56,69.55 C21.99,71.67 25.14,73.92 25.14,73.92 Z" fill="#6B7E37"/>
  <path d="M51.25,63.92 C51.25,63.92 48.86,56.53 52.09,46.67 C55.43,36.5 60.61,30.34 64.48,27.1 C71.05,21.6 75.53,20.69 77.29,22.24 C78.94,23.69 78.91,25.83 78.35,28.29 C78.02,29.74 75.89,32.87 75.89,32.87 C75.89,32.87 77.21,32.84 78.35,34.35 C80.11,36.67 79.19,42.16 79.19,42.16 L71.17,61.52 L60.19,68.35 L51.25,63.92 Z" fill="#B0B0B0"/>
  <path d="M58.69,65.45 C58.69,65.45 52.38,62.63 50.06,59.07 C45.56,52.17 39.04,50.67 34.95,50.72 C24.91,50.82 21.15,57.57 21.15,57.57 L21.62,65.36 C21.62,65.36 25.94,70.99 26.12,71.84 C26.3,72.69 24.76,78.55 28.65,89.48 C31.78,98.26 42.73,107.41 56.15,109.1 C69.57,110.79 74.45,109.38 74.45,109.38 C74.45,109.38 80.41,120.13 81.44,120.03 C82.47,119.94 84.54,117.64 86.46,116.79 C89.46,115.47 95.38,112.78 99.04,108.2 C105.23,100.46 104.13,95.59 105.56,92.62 C106.78,90.09 107.95,88.3 107.77,87.36 C107.59,86.42 102.42,85.81 99.32,85.67 C97.06,85.57 94.39,85.39 92.28,85.11 C90.47,84.87 88.24,83.66 88.24,83.66 L94.43,78.5 L95.56,70.05 L101.85,64.32 L102.32,58.5 L110.95,52.59 L116.11,45.36 L116.11,39.35 L120.05,32.87 C120.05,32.87 122.21,28.57 121.55,28 C120.89,27.43 119.63,26.7 117.33,28.17 C116.49,28.71 118.72,25.37 119.93,23.5 C121.48,21.11 121.85,18.53 120.92,17.59 C119.98,16.65 118.95,16.6 113.95,17.94 C107.44,19.68 98.75,22.54 86.54,33.43 C74.33,44.32 58.69,65.45 58.69,65.45 Z" fill="#E0E0E0"/>
  <path d="M120.89,27.58 C120.89,27.58 120.3,32.23 117.56,35.21 C114.52,38.51 109.25,42.32 107,43.52 C104.75,44.72 98.91,47.39 97.99,47.74 C97.07,48.09 95.67,48.87 96.09,49.85 C96.51,50.84 97.5,50.98 98.91,50.34 C100.32,49.71 106.72,46.37 108.2,45.55 C109.89,44.61 114.07,42.08 114.39,43.3 C114.77,44.71 111.96,48.39 108.6,51.75 C104.66,55.69 99.18,58.65 97.42,59.42 C95.66,60.19 92.99,61.25 92.14,61.6 C91.3,61.95 89.39,62.73 89.82,63.99 C90.24,65.26 92.78,64.37 93.66,64.1 C95.7,63.47 100.66,60.62 100.87,61.32 C101.08,62.02 100.59,63.78 98.83,65.82 C97.07,67.86 91.65,70.68 89.75,71.73 C87.85,72.78 87.08,73.07 86.51,73.28 C85.95,73.49 84.47,73.98 84.75,75.32 C85.03,76.66 86.54,76.16 87.32,75.88 C87.85,75.69 93.2,72.99 93.76,72.78 C94.32,72.57 94.53,74.68 93.76,76.33 C93.06,77.84 90.8,79.96 88.55,81.79 C86.78,83.23 84.47,84.54 83.9,84.82 C83.34,85.1 81.58,86.02 81.93,86.93 C82.28,87.85 83.62,87.92 85.38,87.07 C87.14,86.23 96.14,79.91 97.06,74.96 C97.55,72.32 97.2,70.88 97.2,70.88 C97.2,70.88 102.06,66.45 102.97,64.12 C103.89,61.8 103.74,59.69 103.74,59.69 C103.74,59.69 109.81,54.86 112.95,51.24 C115.78,47.98 117.56,44.04 117.89,42.21 C118.18,40.61 117.96,39.07 117.96,39.07 C117.96,39.07 121.27,34.28 122.11,31.47 C123.05,28.44 120.89,27.58 120.89,27.58 Z" fill="#B0B0B0"/>
  <path d="M119.88,16.97 C119.88,16.97 120.16,19.01 119.18,21.33 C117.61,25.02 114.03,27.8 111.16,29.57 C108.06,31.47 104.19,33.16 103.56,33.51 C102.93,33.86 101.84,34.67 102.29,35.76 C102.78,36.96 104.19,36.46 105.04,36.04 C105.88,35.62 115.32,30.27 117.15,28.44 C118.39,27.2 121.51,24.36 122.22,21.4 C123.49,16 119.88,16.97 119.88,16.97 Z" fill="#B0B0B0"/>
  <path d="M35.09,62.16 C35.09,63.77 34.04,65.16 32.46,65.16 C30.88,65.16 29.58,63.75 29.36,62.16 C29.13,60.47 30.36,59.18 31.94,59.11 C34.01,59.02 35.09,60.56 35.09,62.16 Z" fill="#2D2D2D"/>
  <path d="M21.81,56.67 C21.81,56.67 9.28,61.17 9.37,62.11 C9.43,62.67 14.81,64.74 14.81,64.74 L14.6,63.82 L17.96,64.41 L18.57,65.72 L22.61,66.61 C22.61,66.61 22.94,63.18 22.66,60.56 C22.4,58.19 21.81,56.67 21.81,56.67 Z" fill="#FFC300"/>
</svg>