<svg viewBox="0 0 128 128" xmlns="http://www.w3.org/2000/svg">
  <defs/>
  <path d="M106.63,124 L30.35,124 C28.75,124 25.8,124 21.99,120.51 C18.92,117.7 15.4,115.07 15.47,111.81 L97.75,14.44 C102.23,14.44 104.26,15.75 107.1,17.45 C112.47,20.67 112.65,22.3 112.65,24.12 L112.65,117.99 C112.64,121.31 109.95,124 106.63,124 Z" fill="#B9E4EA"/>
  <path d="M69.17,87.62 L69.17,116.62 L98.02,116.62 C101.19,116.62 103.76,114.05 103.76,110.88 L103.76,87.62 L69.17,87.62 Z" fill="#82AEC0"/>
  <path d="M75.11,116.62 C69.9,116.62 79.36,95.32 79.36,95.32 C79.36,95.32 103.76,72.92 103.76,88.47 C103.76,104.02 80.31,116.62 75.11,116.62 Z" fill="#B9E4EA"/>
  <path d="M85.12,96.44 C85.12,96.44 103.76,95.25 103.76,87.89 L103.76,20.45 C103.76,17.13 101.41,14.44 97.75,14.44 L21.36,14.44 C17.41,14.44 15.35,17.13 15.35,20.45 L15.35,110.61 C15.35,113.93 18.04,116.62 21.36,116.62 L74.18,116.62 C85.71,113.9 85.12,96.44 85.12,96.44 Z" fill="#F5F5F5"/>
  <path d="M31.24,20.52 A3.11 3.47 0 1 1 25.02,20.52 A3.11 3.47 0 1 1 31.24,20.52 Z" fill="#2F7889"/>
  <path d="M29.57,17.67 C29.14,16.77 28.85,15.65 28.85,14.43 C28.85,11.62 30.31,9.25 32.04,9.25 C33.77,9.25 35.24,11.62 35.24,14.43 L39.94,14.43 C39.94,8.68 36.4,4 32.05,4 C27.7,4 24.15,8.68 24.15,14.43 C24.15,16.48 24.6,18.39 25.37,20 C26.07,21.46 27.58,22.11 28.91,21.4 C30.04,20.81 30.18,18.93 29.57,17.67 Z" fill="#94D1E0"/>
  <path d="M36.59,5.91 C36.61,5.97 37.19,7.47 36.37,8.91 C35.54,10.38 33.82,10.15 33.82,10.15 L33.82,10.15 C34.67,11.09 35.24,12.67 35.24,14.43 L39.96,14.43 C39.96,10.91 38.61,7.8 36.59,5.91 Z" fill="#2F7889"/>
  <path d="M52.23,20.52 A3.11 3.47 0 1 1 46.01,20.52 A3.11 3.47 0 1 1 52.23,20.52 Z" fill="#2F7889"/>
  <path d="M50.56,17.67 C50.13,16.77 49.84,15.65 49.84,14.43 C49.84,11.62 51.3,9.25 53.03,9.25 C54.76,9.25 56.23,11.62 56.23,14.43 L60.93,14.43 C60.93,8.68 57.39,4 53.03,4 C48.68,4 45.13,8.68 45.13,14.43 C45.13,16.48 45.58,18.39 46.35,20 C47.05,21.46 48.56,22.11 49.89,21.4 C51.03,20.81 51.17,18.93 50.56,17.67 Z" fill="#94D1E0"/>
  <path d="M57.58,5.91 C57.6,5.97 58.18,7.47 57.36,8.91 C56.53,10.38 54.81,10.15 54.81,10.15 L54.81,10.15 C55.66,11.09 56.23,12.67 56.23,14.43 L60.97,14.43 C60.97,10.91 59.6,7.8 57.58,5.91 Z" fill="#2F7889"/>
  <path d="M73.22,20.52 A3.11 3.47 0 1 1 67,20.52 A3.11 3.47 0 1 1 73.22,20.52 Z" fill="#2F7889"/>
  <path d="M71.55,17.67 C71.12,16.77 70.83,15.65 70.83,14.43 C70.83,11.62 72.29,9.25 74.02,9.25 C75.75,9.25 77.22,11.62 77.22,14.43 L81.92,14.43 C81.92,8.68 78.38,4 74.02,4 C69.67,4 66.12,8.68 66.12,14.43 C66.12,16.48 66.57,18.39 67.34,20 C68.04,21.46 69.55,22.11 70.88,21.4 C72.01,20.81 72.16,18.93 71.55,17.67 Z" fill="#94D1E0"/>
  <path d="M78.57,5.91 C78.59,5.97 79.17,7.47 78.35,8.91 C77.52,10.38 75.8,10.15 75.8,10.15 L75.8,10.15 C76.65,11.09 77.22,12.67 77.22,14.43 L81.97,14.43 C81.97,10.91 80.59,7.8 78.57,5.91 Z" fill="#2F7889"/>
  <path d="M94.19,20.52 A3.11 3.47 0 1 1 87.97,20.52 A3.11 3.47 0 1 1 94.19,20.52 Z" fill="#2F7889"/>
  <path d="M92.53,17.67 C92.1,16.77 91.81,15.65 91.81,14.43 C91.81,11.62 93.27,9.25 95,9.25 C96.73,9.25 98.2,11.62 98.2,14.43 L102.9,14.43 C102.9,8.68 99.35,4 95,4 C90.65,4 87.1,8.68 87.1,14.43 C87.1,16.48 87.55,18.39 88.32,20 C89.02,21.46 90.53,22.11 91.86,21.4 C92.99,20.81 93.13,18.93 92.53,17.67 Z" fill="#94D1E0"/>
  <path d="M99.54,5.91 C99.56,5.97 100.14,7.47 99.32,8.91 C98.49,10.38 96.77,10.15 96.77,10.15 L96.77,10.15 C97.62,11.09 98.19,12.67 98.19,14.43 L99.8,14.54 C99.8,14.54 101.4,14.67 102.96,15.27 C102.96,15.27 103.5,9.22 99.54,5.91 Z" fill="#2F7889"/>
  <g opacity="0.9">
    <path d="M84.34,104.03 L15.47,104.03 L15.47,102.02 L84.72,102.02 C84.63,103.11 84.34,104.03 84.34,104.03 Z" fill="#4FC3F7"/>
    <path d="M101.02,92.22 L15.47,92.22 L15.47,90.21 L103.14,90.21 C102.25,91.59 101.02,92.22 101.02,92.22 Z" fill="#4FC3F7"/>
    <path d="M103.76,80.413 L15.47,80.413 L15.47,78.407 L103.76,78.407 L103.76,80.413 Z" fill="#4FC3F7"/>
    <path d="M103.76,68.593 L15.47,68.593 L15.47,66.587 L103.76,66.587 L103.76,68.593 Z" fill="#4FC3F7"/>
    <path d="M103.76,56.783 L15.47,56.783 L15.47,54.777 L103.76,54.777 L103.76,56.783 Z" fill="#4FC3F7"/>
    <path d="M103.76,44.973 L15.47,44.973 L15.47,42.967 L103.76,42.967 L103.76,44.973 Z" fill="#4FC3F7"/>
    <path d="M103.76,33.163 L15.47,33.163 L15.47,31.157 L103.76,31.157 L103.76,33.163 Z" fill="#4FC3F7"/>
  </g>
  <path d="M112.61,38.13 L103.76,33.16 L103.76,31.14 L112.65,36.13 Z" fill="#2F7889" opacity="0.75"/>
  <path d="M112.61,49.94 L103.76,44.98 L103.76,42.96 L112.65,47.95 Z" fill="#2F7889" opacity="0.75"/>
  <path d="M112.61,61.76 L103.76,56.79 L103.76,54.77 L112.65,59.76 Z" fill="#2F7889" opacity="0.75"/>
  <path d="M112.61,73.57 L103.76,68.6 L103.76,66.58 L112.65,71.58 Z" fill="#2F7889" opacity="0.75"/>
  <path d="M112.61,85.39 L103.76,80.42 L103.76,78.4 L112.65,83.39 Z" fill="#2F7889" opacity="0.75"/>
  <path d="M112.61,97.2 L103.76,92.23 L103.76,90.21 L112.65,95.2 Z" fill="#2F7889" opacity="0.75"/>
  <path d="M112.61,109.01 L103.76,104.04 L103.76,102.02 L112.65,107.02 Z" fill="#2F7889" opacity="0.75"/>
</svg>