<svg viewBox="0 0 128 128" xmlns="http://www.w3.org/2000/svg">
  <defs/>
  <path d="M119.3,32.62 L107.02,18 C99.9,9.52 87.21,8.42 78.73,15.54 C70.25,22.66 69.15,35.35 76.27,43.83 L88.56,58.46 C95.68,66.94 108.37,68.04 116.85,60.92 C125.33,53.8 126.42,41.1 119.3,32.62 Z M95.3,54.42 C93.42,52.18 92.6,49.43 92.58,46.69 C92.56,43.55 90.61,40.07 87.01,39.43 C84.3,38.95 82.83,39.47 81.4,37.87 C76.7,32.62 78.07,24.12 84.28,19.95 C88.85,16.88 95,17.22 99.03,20.74 C101.04,22.5 100.51,24.67 100.83,28.15 C101.16,31.67 103.16,33.74 107.11,34.56 C110.3,35.23 113.31,36.92 115.2,40 C118,44.55 117.25,50.69 113.43,54.66 C108.27,60.07 99.83,59.82 95.3,54.42 Z" fill="#2F7889"/>
  <path d="M22.3,103.58 L35.35,119.11 C35.71,119.54 36.25,119.79 36.82,119.79 C37.28,119.79 37.73,119.63 38.08,119.33 L42.94,115.18 C43.33,114.85 43.58,114.38 43.63,113.87 C43.68,113.35 43.53,112.85 43.19,112.45 L37.98,106.25 C37.53,105.72 37.6,104.92 38.13,104.47 L41.26,101.84 C41.79,101.39 42.59,101.46 43.04,101.99 L48.25,108.19 C48.61,108.62 49.15,108.87 49.72,108.87 C50.18,108.87 50.63,108.71 50.98,108.41 L55.94,104.24 C56.76,103.55 56.88,102.33 56.19,101.51 L43.19,86.03 L22.3,103.58 Z" fill="#2F7889"/>
  <path d="M117.03,29.99 L104.74,15.36 C97.62,6.88 84.93,5.78 76.45,12.9 C67.97,20.02 66.87,32.71 73.99,41.19 L76.94,44.7 L70.54,50.08 L70.47,49.99 L65.49,47.4 C65.02,47.15 64.44,47.22 64.03,47.56 L61.42,49.75 C61.07,50.04 60.89,50.49 60.96,50.95 C61.29,53.34 62.94,56.47 62.94,56.47 L62.94,56.47 L4.22,105.8 C4.22,105.8 3.09,107.35 5.99,110.8 C8.89,114.25 10.61,113.4 10.61,113.4 L22.31,103.57 L34.27,117.81 C34.63,118.24 35.17,118.49 35.74,118.49 C36.2,118.49 36.65,118.33 37,118.03 L41.86,113.88 C42.25,113.55 42.5,113.08 42.55,112.57 C42.6,112.05 42.45,111.55 42.11,111.15 L36.9,104.95 C36.45,104.42 36.52,103.62 37.05,103.17 L40.18,100.54 C40.71,100.09 41.51,100.16 41.96,100.69 L47.17,106.89 C47.53,107.32 48.07,107.57 48.64,107.57 C49.1,107.57 49.55,107.41 49.9,107.11 L54.86,102.94 C55.68,102.25 55.8,101.03 55.11,100.21 L43.2,86.02 L69.33,64.06 L69.33,64.06 C69.33,64.06 71.77,65.88 74.41,66.89 C74.86,67.06 75.37,66.98 75.74,66.67 L78.29,64.53 C78.7,64.18 78.86,63.62 78.7,63.11 L76.94,57.67 L76.94,57.67 L83.34,52.29 L86.29,55.8 C93.41,64.28 106.1,65.38 114.58,58.26 C123.05,51.15 124.15,38.46 117.03,29.99 Z M111.17,52.04 C105.99,57.44 97.55,57.18 93.02,51.79 C91.14,49.55 90.25,46.8 90.3,44.06 C90.34,41.68 88.63,39.63 86.27,39.26 C83.56,38.83 81,37.48 79.12,35.25 C74.59,29.86 75.79,21.5 82,17.33 C86.57,14.26 92.74,14.58 96.75,18.12 C99.46,20.51 100.75,23.77 100.72,27.03 C100.7,29.51 102.4,31.53 104.84,31.94 C108.06,32.47 111.04,34.3 112.93,37.38 C115.74,41.93 114.99,48.06 111.17,52.04 Z" fill="#90A4AF"/>
  <path d="M62.94,56.46 L60.56,58.46 C60.56,58.46 63.29,60.27 63.8,62.96 C64.32,65.66 63.11,69.28 63.11,69.28 L69.32,64.06 C69.32,64.06 68.21,63.39 66.17,60.82 C64.14,58.25 62.94,56.46 62.94,56.46 Z" fill="#2F7889"/>
  <path d="M76.95,44.7 L75.01,46.33 C75.01,46.33 77.68,48.61 78.02,51.34 C78.36,54.07 76.94,57.68 76.94,57.68 L83.34,52.3 L76.95,44.7 Z" fill="#2F7889"/>
  <path d="M64.97,48.43 C65.45,48.59 70.27,51.1 70.27,51.1 L75.39,60.82 C75.39,60.82 71.99,59.6 68.94,55.16 C65.89,50.72 64.97,48.43 64.97,48.43 Z" fill="#B9E4EA"/>
  <path d="M93.98,14.04 C93.65,14.1 93.3,14.07 92.97,13.94 C89.82,12.71 86.17,12.92 83.18,14.51 C82.27,14.99 81.15,14.65 80.66,13.74 C80.18,12.83 80.52,11.7 81.43,11.22 C85.36,9.13 90.18,8.85 94.33,10.47 C95.29,10.85 95.76,11.93 95.38,12.88 C95.14,13.51 94.6,13.93 93.98,14.04 Z" fill="#B9E4EA"/>
  <path d="M24.29,104.58 C23.63,103.79 23.15,103.11 23.93,102.45 L41.12,88 C42.29,87.02 42.88,86.99 43.54,87.78 C44.2,88.57 44.15,89.23 42.96,90.45 L26.32,105.3 C25.54,105.96 24.95,105.36 24.29,104.58 Z" fill="#2F7889"/>
  <path d="M8.9,106.3 C8.59,104.85 10.24,103.55 10.77,103.11 L47.12,72.57 C47.94,71.88 48.56,71.81 48.76,72.82 C48.9,73.53 46.85,75.44 46.32,75.89 L11.15,106.98 C10.62,107.41 9.2,107.7 8.9,106.3 Z" fill="#B9E4EA"/>
</svg>