<svg viewBox="0 0 128 128" xmlns="http://www.w3.org/2000/svg">
  <defs/>
  <path d="M116.14,107.14 A6.95 6.95 0 1 1 102.24,107.14 A6.95 6.95 0 1 1 116.14,107.14 Z" fill="#2F7889"/>
  <path d="M47.43,69.75 L47.43,30.92 C47.43,28.38 49.23,26.97 52.03,26.32 L69.92,22.7 C69.5,24.05 69.65,26.04 69.65,26.04 L94.11,26.32 C94.11,21.08 92.35,14.62 85.88,11.91 C78.45,8.79 70.47,7.18 62.58,5.55 C51.58,3.27 45.71,3.61 43.2,3.78 C31.74,4.55 22.49,14.03 22.49,25.63 L22.49,71.08 C22.49,85.17 32.29,92.96 44.37,92.96 L89.81,92.96 L89.81,74.35 L52.04,74.35 C49.49,74.35 47.43,72.29 47.43,69.75 Z" fill="#82AEC0"/>
  <path d="M94.12,26.04 A12.23 2.8 0 1 1 69.66,26.04 A12.23 2.8 0 1 1 94.12,26.04 Z" fill="#82AEC0"/>
  <path d="M89.04,20.14 C89.2,22.07 86.66,23.91 83.87,22.23 C82.61,21.47 80.29,17.84 79.17,16.88 C75.82,14 66.5,10.16 66.61,9.67 C66.74,9.1 69.31,9.07 71.84,9.81 C74.37,10.54 75.82,10.91 78.27,11.81 C87.89,15.37 88.8,17.26 89.04,20.14 Z" fill="#94D1E0"/>
  <path d="M69.69,80.15 L69.69,75.64 C69.66,75.53 48.92,75.35 48.02,75.57 C47.01,75.82 44.39,77.06 42.6,78.33 C40.3,79.88 45.96,79.88 46.3,79.88 C48.49,79.84 69.69,80.15 69.69,80.15 Z" fill="#94D1E0"/>
  <path d="M47.43,69.7 L47.43,30.87 C47.43,28.33 49.23,26.92 52.03,26.27 L68.91,22.9 C69.76,22.73 69.01,24.34 69.71,26.3 C69.71,26.3 70.3,23.24 72.69,19.66 C72.88,19.38 73.18,19.06 72.98,18.78 C72.77,18.49 69.29,18.38 68.87,18.37 C61.5,18.31 48.73,17.49 43.85,18.67 C43.19,18.83 40.7,19.63 39.88,23.87 C39.07,28.03 39.4,73.01 39.64,75.01 C40.16,79.36 46.05,75.23 47.41,72.5 C47.79,71.71 47.43,70.5 47.43,69.7 Z" fill="#2F7889"/>
  <path d="M70.57,89.37 L70.06,82.06 C70.06,82.06 67.93,86.42 61.65,86.79 C58.39,86.98 48.43,86.77 42.27,86.3 C36.23,85.84 29.81,81.18 28.97,70.57 C28.86,69.15 27.76,43.73 27.76,43.73 C27.61,42.73 26.27,45.56 26.08,49.89 C25.85,55.08 25.99,63.9 26.27,70.94 C26.74,83.03 34.57,88.2 42.05,89.24 C49.38,90.26 70.57,89.37 70.57,89.37 Z" fill="#2F7889"/>
  <path d="M79.52,109.955 L106.66,105.335 Q107.681,105.162 108.526,105.761 Q109.371,106.36 109.545,107.38 Q109.718,108.401 109.119,109.246 Q108.52,110.091 107.5,110.265 L80.36,114.885 Q79.339,115.058 78.494,114.459 Q77.649,113.86 77.475,112.84 Q77.302,111.819 77.901,110.974 Q78.5,110.129 79.52,109.955 Z" fill="#84B0C1"/>
  <path d="M90.04,116.49 A8.19 2.63 0 1 1 73.66,116.49 A8.19 2.63 0 1 1 90.04,116.49 Z" fill="#82AEC0"/>
  <path d="M90.03,116.49 L73.66,116.49 C73.66,114.37 73.66,112.24 73.66,110.12 C73.66,106.89 73.09,104.53 76.72,103.15 C78.03,102.65 79.46,102.58 80.86,102.57 C83.41,102.54 86.07,102.71 88.28,103.98 C90.79,105.41 90.03,108.7 90.03,111.15 C90.03,112.92 90.03,114.7 90.03,116.49 Z" fill="#82AEC0"/>
  <path d="M49.38,115.085 L76.52,110.465 Q77.541,110.292 78.386,110.891 Q79.231,111.49 79.405,112.51 Q79.578,113.531 78.979,114.376 Q78.38,115.221 77.36,115.395 L50.22,120.015 Q49.199,120.188 48.354,119.589 Q47.509,118.99 47.335,117.97 Q47.162,116.949 47.761,116.104 Q48.36,115.259 49.38,115.085 Z" fill="#94D1E0"/>
  <path d="M84.19,109.81 C84.19,110.21 84.37,115.32 84.99,116.37 C85.79,117.71 88,116.52 88.47,114.77 C88.86,113.35 89.75,106.31 88.54,107.23 C85.45,109.61 84.19,108.5 84.19,109.81 Z" fill="#94D1E0"/>
  <path d="M57.92,117.21 A6.95 6.95 0 1 1 44.02,117.21 A6.95 6.95 0 1 1 57.92,117.21 Z" fill="#2F7889"/>
  <path d="M93.58,109.76 C95.45,111.5 95.59,112.28 95.59,112.28 L89.97,113.26 L90.08,108.16 C90.08,108.17 92.45,108.7 93.58,109.76 Z" fill="#2F7889"/>
  <path d="M86.24,105.35 C86.24,105.35 85.77,106.89 81.88,106.89 C77.99,106.89 77.52,105.35 77.52,105.35 L77.52,80.46 L86.23,80.46 L86.23,105.35 Z" fill="#84B0C1"/>
  <path d="M77.53,81.67 L77.53,83.83 C79.47,85.48 81.7,86.36 83.42,86.83 C84.34,87.08 84.97,87.92 84.97,88.88 L84.97,88.94 C84.97,90.58 83.29,91.65 81.81,90.97 C80.72,90.47 78.86,89.73 77.53,88.75 L77.53,91.21 C79.47,92.86 81.71,93.74 83.42,94.21 C84.34,94.46 84.97,95.3 84.97,96.26 L84.97,96.32 C84.97,97.95 83.29,99.03 81.81,98.35 C80.72,97.85 78.85,96.79 77.53,95.65 L77.53,98.59 C79.47,100.24 81.71,101.12 83.42,101.59 C84.34,101.84 84.97,102.68 84.97,103.64 L84.97,103.7 C84.97,105.33 82.49,105.71 80.96,105.16 C78.73,104.37 77.53,103.03 77.53,103.03 C77.53,103.03 77.52,105.34 77.53,105.34 C77.58,106.16 79.62,106.88 81.89,106.88 C84.3,106.88 86.22,106.22 86.25,105.34 C86.25,105.28 86.25,83.1 86.25,81.18 C86.24,81.19 79.12,82.84 77.53,81.67 Z" fill="#2F7889"/>
  <path d="M94.09,91.2 A12.2 3.92 0 1 1 69.69,91.2 A12.2 3.92 0 1 1 94.09,91.2 Z" fill="#82AEC0"/>
  <path d="M69.69,71.71 L94.08,71.71 L94.08,90.93 L69.69,90.93 L69.69,71.71 Z" fill="#82AEC0"/>
  <path d="M94.09,71.71 A12.2 3.92 0 1 1 69.69,71.71 A12.2 3.92 0 1 1 94.09,71.71 Z" fill="#B9E4EA"/>
  <path d="M86.19,79.28 C85.59,80.68 86.36,89.3 86.72,90.53 C87.13,91.92 88.36,91.73 89.05,91.64 C90.78,91.42 91.23,89.77 91.29,89.19 C91.29,89.19 92.71,78.63 91.45,77.43 C90.25,76.29 86.64,78.22 86.19,79.28 Z" fill="#94D1E0"/>
  <path d="M86.24,70.75 C86.24,70.75 85.77,72.29 81.88,72.29 C77.99,72.29 77.52,70.75 77.52,70.75 L77.52,45.86 L86.23,45.86 L86.23,70.75 Z" fill="#82AEC0"/>
  <path d="M77.53,47.07 L77.53,49.23 C79.47,50.88 81.7,51.76 83.42,52.23 C84.34,52.48 84.97,53.32 84.97,54.28 L84.97,54.34 C84.97,55.98 83.29,57.05 81.81,56.37 C80.72,55.87 78.86,55.13 77.53,54.15 L77.53,56.61 C79.47,58.26 81.71,59.14 83.42,59.61 C84.34,59.86 84.97,60.7 84.97,61.66 L84.97,61.72 C84.97,63.35 83.29,64.43 81.81,63.75 C80.72,63.25 78.85,62.19 77.53,61.05 L77.53,63.99 C79.47,65.64 81.71,66.52 83.42,66.99 C84.34,67.24 84.97,68.08 84.97,69.04 L84.97,69.1 C84.97,70.73 82.49,71.11 80.96,70.56 C78.73,69.77 77.53,68.43 77.53,68.43 C77.53,68.43 77.52,70.74 77.53,70.74 C77.58,71.56 79.62,72.28 81.89,72.28 C84.3,72.28 86.22,71.62 86.25,70.74 C86.25,70.68 86.25,48.5 86.25,46.58 C86.24,46.59 79.12,48.24 77.53,47.07 Z" fill="#2F7889"/>
  <path d="M81.89,35.77 C81.81,35.77 73.18,35.88 73.18,35.88 C73.18,38.03 74.72,43.3 76.68,46.76 C77.09,47.48 79.51,48.27 81.89,48.27 C84.27,48.27 86.69,47.48 87.1,46.76 C89.07,43.3 90.6,38.03 90.6,35.88 C90.6,35.88 81.96,35.77 81.89,35.77 Z" fill="#82AEC0"/>
  <path d="M90.6,35.77 A8.71 2.8 0 1 1 73.18,35.77 A8.71 2.8 0 1 1 90.6,35.77 Z" fill="#B9E4EA"/>
  <path d="M45.9,115.71 C45.41,118.4 46.61,119.09 47.46,119.09 C48.3,119.09 48.62,116.84 50.35,114.94 C50.64,114.62 50.81,114.18 50.8,113.75 C50.79,112.94 49.93,112.33 49.13,112.37 C48.32,112.41 46.39,113.02 45.9,115.71 Z" fill="#82AEC0"/>
</svg>