<svg viewBox="0 0 128 128" xmlns="http://www.w3.org/2000/svg">
  <defs/>
  <path d="M116,4 L12,4 C7.58,4 4,7.58 4,12 L4,116 C4,120.42 7.58,124 12,124 L116,124 C120.42,124 124,120.42 124,116 L124,12 C124,7.58 120.42,4 116,4 Z" fill="#427687"/>
  <path d="M121.7,6.3 C120.16,4.84 118.12,4.02 116,4 L12,4 C7.58,4 4,7.58 4,12 L4,116 C4.02,118.12 4.84,120.16 6.3,121.7 L23.1,104.9 L99.1,104.9 C102.36,104.89 104.99,102.26 105,99 L105,23 L121.7,6.3 Z" fill="#8CAFBF"/>
  <path d="M99.5,68.7 C99.5,78.3 97.7,85.5 94.1,90.4 C90.5,95.3 85,97.7 77.7,97.7 C70.4,97.7 65,95.3 61.4,90.6 C57.8,85.9 55.9,78.8 55.8,69.5 L55.8,57.9 C55.8,48.3 57.6,41.1 61.2,36.3 C64.8,31.5 70.3,29.1 77.7,29.1 C85,29.1 90.5,31.4 94.1,36.1 C97.7,40.8 99.5,47.8 99.6,57.1 C99.6,57.1 99.5,68.7 99.5,68.7 Z M88.3,56.2 C88.3,49.9 87.4,45.3 85.7,42.4 C84,39.5 81.3,38 77.5,38 C73.9,38 71.2,39.4 69.5,42.2 C67.8,45 66.9,49.3 66.8,55.2 L66.8,70.3 C66.8,76.5 67.7,81.2 69.4,84.2 C71,87.21 74.2,89.01 77.6,88.8 C80.81,89 83.87,87.37 85.5,84.6 C87.2,81.8 88.1,77.3 88.2,71.3 L88.3,56.2 Z" fill="#FAFAFA"/>
  <path d="M46.4,97.9 L37.5,97.9 C36.84,97.89 36.31,97.36 36.3,96.7 L36.3,44.5 C36.31,43.82 35.76,43.25 35.07,43.25 C34.94,43.25 34.82,43.27 34.7,43.3 L24.8,46.6 C24.18,46.82 23.49,46.5 23.27,45.87 C23.22,45.72 23.19,45.56 23.2,45.4 L23.2,38.4 C23.2,37.88 23.52,37.4 24,37.2 L46.1,29 C46.2,29 46.4,28.9 46.5,28.9 C47.14,28.88 47.68,29.38 47.7,30.02 C47.7,30.05 47.7,30.07 47.7,30.1 L47.7,96.4 C47.77,97.16 47.21,97.83 46.45,97.9 C46.43,97.9 46.42,97.9 46.4,97.9 Z" fill="#FAFAFA"/>
  <path d="M39.7,12.9 C39.7,10.6 38.1,9.9 28.9,10.2 C21.2,10.5 17.4,11.4 15.1,14.2 C12.8,17 12.2,22.7 12.1,29.5 C12.1,34.3 12.1,38.8 14.6,38.8 C18,38.8 18,30.9 20.8,26.5 C26.2,17.8 39.7,15.9 39.7,12.9 Z" fill="#B4E1ED" opacity="0.5"/>
</svg>