<svg viewBox="0 0 128 128" xmlns="http://www.w3.org/2000/svg">
  <defs/>
  <path d="M116,4 L12,4 C7.58,4 4,7.58 4,12 L4,116 C4,120.42 7.58,124 12,124 L116,124 C120.42,124 124,120.42 124,116 L124,12 C124,7.58 120.42,4 116,4 Z" fill="#427687"/>
  <path d="M109.7,4 L11.5,4 C7.37,4.03 4.03,7.37 4,11.5 L4,109.4 C3.99,113.54 7.34,116.89 11.48,116.9 C11.49,116.9 11.49,116.9 11.5,116.9 L109.6,116.9 C113.74,116.91 117.09,113.56 117.1,109.42 C117.1,109.41 117.1,109.41 117.1,109.4 L117.1,11.5 C117.19,7.45 113.97,4.09 109.92,4 C109.85,4 109.77,4 109.7,4 Z" fill="#8CAFBF"/>
  <path d="M77.6,17 L101.6,41 C103.26,42.46 103.42,44.99 101.95,46.65 C101.84,46.78 101.72,46.89 101.6,47 L77.6,71 C75.92,72.44 73.4,72.24 71.96,70.56 C71.35,69.85 71.01,68.94 71,68 L71,54 C71,52.9 70.1,52 69,52 L23,52 C20.79,52 19,50.21 19,48 L19,40 C19,37.79 20.79,36 23,36 L69,36 C70.1,36 71,35.1 71,34 L71,20 C71.02,17.79 72.83,16.02 75.04,16.04 C75.98,16.05 76.89,16.39 77.6,17 Z" fill="#FAFAFA"/>
  <path d="M39.7,12.9 C39.7,10.6 38.1,9.9 28.9,10.2 C21.2,10.5 17.4,11.4 15.1,14.2 C12.8,17 12.2,22.7 12.1,29.5 C12.1,34.3 12.1,38.8 14.6,38.8 C18,38.8 18,30.9 20.8,26.5 C26.2,17.8 39.7,15.9 39.7,12.9 Z" fill="#B4E1ED" opacity="0.5"/>
  <path d="M28.06,103.94 C28.06,106.45 27.16,108.43 25.35,109.88 C23.54,111.33 21.02,112.05 17.8,112.05 C14.83,112.05 12.2,111.49 9.92,110.37 L9.92,104.89 C11.8,105.73 13.39,106.32 14.69,106.66 C15.99,107 17.18,107.17 18.26,107.17 C19.55,107.17 20.55,106.92 21.24,106.43 C21.93,105.93 22.28,105.2 22.28,104.22 C22.28,103.67 22.13,103.19 21.82,102.76 C21.52,102.34 21.07,101.93 20.48,101.53 C19.89,101.14 18.69,100.51 16.87,99.65 C15.17,98.85 13.89,98.08 13.04,97.35 C12.19,96.62 11.51,95.76 11,94.78 C10.49,93.8 10.24,92.66 10.24,91.35 C10.24,88.89 11.07,86.95 12.74,85.54 C14.41,84.13 16.72,83.43 19.66,83.43 C21.11,83.43 22.49,83.6 23.8,83.94 C25.11,84.28 26.49,84.77 27.92,85.39 L26.02,89.98 C24.53,89.37 23.31,88.94 22.34,88.7 C21.37,88.46 20.41,88.34 19.47,88.34 C18.35,88.34 17.5,88.6 16.9,89.12 C16.3,89.64 16,90.32 16,91.16 C16,91.68 16.12,92.13 16.36,92.52 C16.6,92.91 16.98,93.28 17.51,93.64 C18.04,94 19.28,94.65 21.25,95.59 C23.85,96.83 25.64,98.08 26.6,99.33 C27.58,100.59 28.06,102.12 28.06,103.94 Z" fill="#FAFAFA"/>
  <path d="M56.62,97.71 C56.62,102.32 55.48,105.86 53.19,108.34 C50.9,110.82 47.63,112.05 43.36,112.05 C39.09,112.05 35.82,110.81 33.53,108.34 C31.24,105.87 30.1,102.31 30.1,97.68 C30.1,93.05 31.25,89.51 33.54,87.06 C35.83,84.62 39.12,83.39 43.39,83.39 C47.66,83.39 50.94,84.62 53.21,87.08 C55.49,89.55 56.62,93.09 56.62,97.71 Z M36.3,97.71 C36.3,100.82 36.89,103.16 38.07,104.74 C39.25,106.32 41.02,107.1 43.36,107.1 C48.07,107.1 50.42,103.97 50.42,97.71 C50.42,91.44 48.08,88.3 43.39,88.3 C41.04,88.3 39.27,89.09 38.08,90.67 C36.9,92.26 36.3,94.6 36.3,97.71 Z" fill="#FAFAFA"/>
  <path d="M84.74,97.71 C84.74,102.32 83.6,105.86 81.31,108.34 C79.02,110.82 75.75,112.05 71.48,112.05 C67.21,112.05 63.94,110.81 61.65,108.34 C59.36,105.87 58.22,102.31 58.22,97.68 C58.22,93.05 59.37,89.51 61.66,87.06 C63.95,84.62 67.24,83.39 71.52,83.39 C75.8,83.39 79.07,84.62 81.34,87.08 C83.61,89.54 84.74,93.09 84.74,97.71 Z M64.42,97.71 C64.42,100.82 65.01,103.16 66.19,104.74 C67.37,106.32 69.14,107.1 71.48,107.1 C76.19,107.1 78.55,103.97 78.55,97.71 C78.55,91.44 76.21,88.3 71.52,88.3 C69.17,88.3 67.4,89.09 66.21,90.67 C65.01,92.26 64.42,94.6 64.42,97.71 Z" fill="#FAFAFA"/>
  <path d="M112.28,111.67 L104.78,111.67 L92.67,90.61 L92.5,90.61 C92.74,94.33 92.86,96.98 92.86,98.57 L92.86,111.67 L87.58,111.67 L87.58,83.83 L95.03,83.83 L107.12,104.68 L107.25,104.68 C107.06,101.06 106.96,98.5 106.96,97.01 L106.96,83.83 L112.27,83.83 L112.27,111.67 Z" fill="#FAFAFA"/>
</svg>