<svg viewBox="0 0 128 128" xmlns="http://www.w3.org/2000/svg">
  <defs>
    <radialGradient id="SVGID_14_" cx="54.399931" cy="-44.742081" gradientTransform="matrix(0.9182 0 0 -0.7823 0 0)" gradientUnits="userSpaceOnUse" r="61.7378">
      <stop offset="3.200000e-03" stop-color="#757575"/>
      <stop offset="0.3326" stop-color="#686868"/>
      <stop offset="0.9409" stop-color="#464646"/>
      <stop offset="1" stop-color="#424242"/>
    </radialGradient>
    <radialGradient id="SVGID_15_" cx="7.460076" cy="34.918821" gradientTransform="matrix(0 0.9331 1.4131 0 0 0)" gradientUnits="userSpaceOnUse" r="33.4313">
      <stop offset="3.200000e-03" stop-color="#757575"/>
      <stop offset="0.3326" stop-color="#686868"/>
      <stop offset="0.9409" stop-color="#464646"/>
      <stop offset="1" stop-color="#424242"/>
    </radialGradient>
    <radialGradient id="SVGID_17_" cx="71.284489" cy="-33.998451" gradientTransform="matrix(0.9997 -0.0234 -0.0234 -0.9997 0 0)" gradientUnits="userSpaceOnUse" r="48.964">
      <stop offset="0" stop-color="#E0E0E0"/>
      <stop offset="0.2274" stop-color="#DBDBDB"/>
      <stop offset="0.4939" stop-color="#CDCDCD"/>
      <stop offset="0.7789" stop-color="#B5B5B5"/>
      <stop offset="1" stop-color="#9E9E9E"/>
    </radialGradient>
    <radialGradient id="SVGID_18_" cx="93.1976" cy="-81.5847" gradientTransform="matrix(1 0 0 -1 0 0)" gradientUnits="userSpaceOnUse" r="13.6102">
      <stop offset="0" stop-color="#FFA726"/>
      <stop offset="0.0404" stop-color="#FFA623"/>
      <stop offset="0.5168" stop-color="#FF9800"/>
      <stop offset="1" stop-color="#FB8C00"/>
    </radialGradient>
    <radialGradient id="hairHighlights_1_" cx="50.0874" cy="-42.849173" gradientTransform="matrix(1 0 0 -1.1282 0 0)" gradientUnits="userSpaceOnUse" r="36.5136">
      <stop offset="0.7945" stop-color="#554138" stop-opacity="0"/>
      <stop offset="1" stop-color="#554138"/>
    </radialGradient>
    <radialGradient id="palm_1_" cx="-152.969771" cy="-4.846978" gradientTransform="matrix(-0.635 -0.7725 -0.8167 0.6714 0 0)" gradientUnits="userSpaceOnUse" r="21.6846">
      <stop offset="0.3074" stop-color="#A56C43"/>
      <stop offset="1" stop-color="#8D5738"/>
    </radialGradient>
    <radialGradient id="finger_1_" cx="-18.169763" cy="-150.581314" gradientTransform="matrix(0.5293 -0.8484 -0.8484 -0.5293 0 0)" gradientUnits="userSpaceOnUse" r="15.8888">
      <stop offset="0" stop-color="#8D5738"/>
      <stop offset="1" stop-color="#A56C43"/>
    </radialGradient>
    <radialGradient id="finger_2_" cx="53.052646" cy="-132.067657" gradientTransform="matrix(0.9078 -0.4835 -0.4667 -0.8846 0 0)" gradientUnits="userSpaceOnUse" r="15.8727">
      <stop offset="0" stop-color="#8D5738"/>
      <stop offset="1" stop-color="#A56C43"/>
    </radialGradient>
    <radialGradient id="finger_3_" cx="30.194284" cy="-150.812565" gradientTransform="matrix(0.7524 -0.6587 -0.6587 -0.7524 0 0)" gradientUnits="userSpaceOnUse" r="18.06">
      <stop offset="0" stop-color="#8D5738"/>
      <stop offset="1" stop-color="#A56C43"/>
    </radialGradient>
    <radialGradient id="finger_5_" cx="50.710138" cy="-145.556156" gradientTransform="matrix(0.8382 -0.5454 -0.5454 -0.8382 0 0)" gradientUnits="userSpaceOnUse" r="17.2586">
      <stop offset="0" stop-color="#8D5738"/>
      <stop offset="1" stop-color="#A56C43"/>
    </radialGradient>
    <radialGradient id="finger_10_" cx="4.21157" cy="-152.252839" gradientTransform="matrix(0.6377 -0.7703 -0.7703 -0.6377 0 0)" gradientUnits="userSpaceOnUse" r="17.2647">
      <stop offset="0" stop-color="#8D5738"/>
      <stop offset="1" stop-color="#A56C43"/>
    </radialGradient>
    <linearGradient id="SVGID_1_" gradientTransform="matrix(1 0 0 -1 0 0)" gradientUnits="userSpaceOnUse" x1="53" x2="53" y1="-95.2598" y2="-134.3297">
      <stop offset="0.1609" stop-color="#606060"/>
      <stop offset="0.2878" stop-color="#606060"/>
      <stop offset="0.449" stop-color="#595959"/>
      <stop offset="0.6836" stop-color="#464646"/>
      <stop offset="0.962" stop-color="#262626"/>
      <stop offset="1" stop-color="#212121"/>
    </linearGradient>
    <radialGradient id="SVGID_16_" cx="65.514935" cy="-34.420015" gradientTransform="matrix(0.9938 0.1109 0.1109 -0.9938 0 0)" gradientUnits="userSpaceOnUse" r="41.908">
      <stop offset="0" stop-color="#FAFAFA"/>
      <stop offset="1" stop-color="#EEEEEE"/>
    </radialGradient>
    <linearGradient id="SVGID_12_" gradientTransform="matrix(1 0 0 -1 0 0)" gradientUnits="userSpaceOnUse" x1="33.95" x2="33.95" y1="-94.8159" y2="-136.1699">
      <stop offset="0.1252" stop-color="#757575"/>
      <stop offset="0.2997" stop-color="#707070"/>
      <stop offset="0.5018" stop-color="#626262"/>
      <stop offset="0.7177" stop-color="#4B4B4B"/>
      <stop offset="0.9419" stop-color="#2B2B2B"/>
      <stop offset="1" stop-color="#212121"/>
    </linearGradient>
    <linearGradient id="SVGID_13_" gradientTransform="matrix(1 0 0 -1 0 0)" gradientUnits="userSpaceOnUse" x1="66.05" x2="66.05" y1="-94.789" y2="-136.1699">
      <stop offset="0.1252" stop-color="#757575"/>
      <stop offset="0.2997" stop-color="#707070"/>
      <stop offset="0.5018" stop-color="#626262"/>
      <stop offset="0.7177" stop-color="#4B4B4B"/>
      <stop offset="0.9419" stop-color="#2B2B2B"/>
      <stop offset="1" stop-color="#212121"/>
    </linearGradient>
  </defs>
  <path d="M50.1,95.4 L50,95.4 C31.9,95.4 13.2,99.1 4,107.6 L4,109.9 L4,112 L4,123.9 L99,123.9 L100.5,123.9 L102,123.9 L102,120.5 C102,103.7 75.7,95.4 50.1,95.4 Z" fill="url(#SVGID_1_)"/>
  <path d="M33.48,96.33 C37.54,97.18 40.94,118.43 45.76,123.9 L51.71,123.9 C60.11,118.33 68.61,96.33 73.24,94.34 C76.83,92.83 79,90.94 79,88.96 C79,83.96 66.06,79.99 50.1,79.99 C34.14,79.99 21.11,84.05 21.11,88.96 C21.11,92.08 26.02,94.72 33.48,96.33 Z" fill="#404042"/>
  <path id="neck" d="M49.2,109.3 C45.2,109.3 41.9,106.1 41.9,102.1 L41.9,93.1 L58.1,93.1 L58.1,102.1 C58.1,106.1 54.8,109.3 50.8,109.3 L49.2,109.3 Z" fill="#7A4C32"/>
  <path id="shirt" d="M58.4,124 L60.6,105 L39.4,105 L41.9,124 Z" fill="#BDBDBD"/>
  <path id="ears" d="M77.3,50.3 L22.7,50.3 C16.8,50.3 12,55.4 12,61.7 C12,68 16.8,73.1 22.7,73.1 L77.4,73.1 C83.2,73.1 88,68 88,61.7 C88,55.4 83.2,50.3 77.3,50.3 Z" fill="#7A4C32"/>
  <path id="head" d="M50,10.9 C32.6,10.9 16.5,29.5 16.5,56.3 C16.5,82.9 33.1,96.1 50,96.1 C66.9,96.1 83.5,82.9 83.5,56.3 C83.5,29.5 67.4,10.9 50,10.9 Z" fill="#A56C43"/>
  <path d="M39.1,58.7 A4.9 5.1 0 1 1 29.3,58.7 A4.9 5.1 0 1 1 39.1,58.7 Z" fill="#42312C"/>
  <path d="M71.8,60 A6 6.2 0 1 1 59.8,60 A6 6.2 0 1 1 71.8,60 Z" fill="#42312C"/>
  <path id="nose" d="M53.9,67.9 C53.8,67.9 53.7,67.8 53.6,67.8 L46.5,67.8 C46.4,67.8 46.3,67.8 46.2,67.9 C45.6,68.2 45.2,68.8 45.5,69.5 C45.8,70.2 47.2,72.2 50,72.2 C52.8,72.2 54.2,70.2 54.5,69.5 C54.9,68.8 54.5,68.2 53.9,67.9 Z" fill="#875334"/>
  <path id="mouth" d="M58.5,76 C55.3,77.9 44.9,77.9 41.7,76 C39.9,74.9 38,76.6 38.8,78.2 C39.6,79.8 45.3,83.6 50.2,83.6 C55.1,83.6 60.7,79.8 61.5,78.2 C62.2,76.6 60.4,74.9 58.5,76 Z" fill="#473530"/>
  <path d="M75.5,50.4 C74.4,48.9 71.8,46.8 66.8,46.8 C61.8,46.8 59.2,48.9 58.1,50.4 C57.6,51.1 57.7,51.8 58.1,52.3 C58.4,52.7 59.3,53.1 60.4,52.8 C61.5,52.5 63.4,51.4 66.8,51.4 C70.2,51.4 72.2,52.5 73.2,52.8 C74.2,53.1 75.2,52.8 75.5,52.3 C75.8,51.8 76,51 75.5,50.4 Z" fill="#42312C"/>
  <path d="M41.73,50.56 L41.73,50.56 C41.74,50.55 39.48,47 34.24,47 C29,47 26.75,50.55 26.75,50.55 L26.75,50.56 C26.57,50.82 26.45,51.13 26.45,51.46 C26.45,52.32 27.14,53.01 28,53.01 C28.18,53.01 28.61,52.88 28.65,52.86 C31.78,51.57 34.24,51.56 34.24,51.56 C34.24,51.56 36.68,51.57 39.81,52.86 C39.85,52.88 40.28,53.01 40.46,53.01 C41.32,53.01 42.01,52.32 42.01,51.46 C42.03,51.12 41.91,50.81 41.73,50.56 Z" fill="#42312C"/>
  <path id="hair_7_" d="M50.06,9.49 L50.06,9.49 C50.05,9.49 50.05,9.49 50.05,9.49 C50.05,9.49 50.04,9.49 50.04,9.49 C50.04,9.49 50.04,9.49 50.04,9.49 C29.22,8.32 20.78,17.17 17.03,28.87 C13.18,40.7 14.36,55.87 14.45,55.13 C14.45,55.14 16.11,60.96 16.89,63.48 C17,63.85 17.5,63.81 17.6,63.42 C18.83,58.7 23,43.2 24.87,38.9 C25.96,36.35 28.72,35.15 31.46,35.87 C35.67,36.99 42.45,38.29 49.97,38.28 C50,38.28 50.02,38.28 50.05,38.28 C50.08,38.28 50.1,38.28 50.13,38.28 C57.65,38.29 64.43,36.98 68.65,35.87 C71.39,35.15 74.15,36.35 75.24,38.9 C77.11,43.18 81.25,58.59 82.49,63.37 C82.59,63.76 83.09,63.8 83.2,63.42 C84.03,60.67 84.86,57.9 85.66,55.12 C85.75,55.86 86.93,40.69 83.08,28.86 C79.32,17.17 70.88,8.32 50.06,9.49 Z" fill="#3C2C23"/>
  <path id="hairHighlights" d="M85.66,55.13 C85.75,55.87 86.93,40.7 83.08,28.87 C79.32,17.17 70.88,8.32 50.07,9.49 C50.07,9.49 50.07,9.49 50.07,9.49 C50.06,9.49 50.06,9.49 50.06,9.49 L50.06,9.49 C50.05,9.49 50.05,9.49 50.05,9.49 L50.05,9.49 C49.4,9.49 48.77,9.5 48.14,9.51 C46.9,9.53 45.7,9.58 44.55,9.64 C44.54,9.64 44.53,9.64 44.52,9.64 C44.44,9.65 44.36,9.65 44.28,9.66 C9.56,8.44 14.61,54.6 14.44,55.13 C15.25,57.92 16.07,60.69 16.9,63.44 C17.01,63.81 17.5,63.77 17.6,63.39 C18.84,58.62 22.99,43.19 24.86,38.91 C25.95,36.36 28.71,35.16 31.45,35.88 C35.66,37 42.44,38.3 49.96,38.29 C49.99,38.29 50.01,38.29 50.04,38.29 C50.07,38.29 50.09,38.29 50.12,38.29 C57.64,38.3 64.42,36.99 68.63,35.88 C71.36,35.16 74.13,36.36 75.22,38.91 C77.1,43.21 81.27,58.74 82.48,63.44 C82.58,63.82 83.07,63.86 83.18,63.5 C83.99,60.98 85.66,55.14 85.66,55.13 Z" fill="url(#hairHighlights_1_)"/>
  <path d="M116.9,124 L95.6,124 C97.1,117.5 97.9,114.6 97.9,114.6 C98.4,111.2 101.6,109.1 104.9,109.9 L114.8,112.4 Z" fill="#616161"/>
  <path d="M115.2,114.4 C115.2,118.818 111.305,122.4 106.5,122.4 C101.695,122.4 97.8,118.818 97.8,114.4 C97.8,109.982 101.695,106.4 106.5,106.4 C111.305,106.4 115.2,109.982 115.2,114.4 Z" fill="#404042"/>
  <path d="M24.55,97.46 L29.56,107.59 L27.31,106.87 C24.83,106.07 20.16,106.34 11.99,112.13 C11.67,112.36 11.31,112.46 10.95,112.46 C10.03,112.46 9.05,111.8 8.34,110.95 L5.24,107.25 C4.48,106.19 4.57,104.91 5.44,103.87 C11.91,96.06 23.66,97.02 24.25,97.31 Z" fill="#808080"/>
  <path d="M14,105.5 C14,106.991 12.791,108.2 11.3,108.2 C9.809,108.2 8.6,106.991 8.6,105.5 C8.6,104.009 9.809,102.8 11.3,102.8 C12.791,102.8 14,104.009 14,105.5 Z" fill="#757575"/>
  <path d="M14.5,105.5 Q14.5,106.826 13.563,107.763 Q12.625,108.7 11.3,108.7 Q9.975,108.7 9.037,107.763 Q8.1,106.825 8.1,105.5 Q8.1,102.3 11.3,102.3 Q12.625,102.3 13.563,103.237 Q14.5,104.175 14.5,105.5 Z M13.5,105.5 Q13.5,103.3 11.3,103.3 Q9.1,103.3 9.1,105.5 Q9.1,107.7 11.3,107.7 Q12.211,107.7 12.856,107.056 Q13.5,106.411 13.5,105.5 Z" fill="#9E9E9E"/>
  <path d="M12.8,105.6 C12.8,105.931 12.531,106.2 12.2,106.2 C11.869,106.2 11.6,105.931 11.6,105.6 C11.6,105.269 11.869,105 12.2,105 C12.531,105 12.8,105.269 12.8,105.6 Z" fill="#424242"/>
  <path d="M11,105.3 C11,105.631 10.731,105.9 10.4,105.9 C10.069,105.9 9.8,105.631 9.8,105.3 C9.8,104.969 10.069,104.7 10.4,104.7 C10.731,104.7 11,104.969 11,105.3 Z" fill="#424242"/>
  <path d="M92.67,103.86 C93.54,104.9 93.63,106.18 92.91,107.2 L89.76,110.96 C89.18,111.65 88.11,112.46 87.11,112.46 C86.74,112.46 86.38,112.35 86.06,112.08 C77.96,106.33 73.29,106.06 70.81,106.86 L68.56,107.58 L73.55,97.46 L73.85,97.31 C74.43,97.01 86.1,96.06 92.67,103.86 Z" fill="#808080"/>
  <path d="M89.4,105.5 C89.4,106.991 88.191,108.2 86.7,108.2 C85.209,108.2 84,106.991 84,105.5 C84,104.009 85.209,102.8 86.7,102.8 C88.191,102.8 89.4,104.009 89.4,105.5 Z" fill="#757575"/>
  <path d="M89.9,105.5 Q89.9,108.7 86.7,108.7 Q85.375,108.7 84.437,107.763 Q83.5,106.825 83.5,105.5 Q83.5,102.3 86.7,102.3 Q89.9,102.3 89.9,105.5 Z M88.9,105.5 Q88.9,103.3 86.7,103.3 Q84.5,103.3 84.5,105.5 Q84.5,106.411 85.144,107.056 Q85.789,107.7 86.7,107.7 Q87.611,107.7 88.256,107.056 Q88.9,106.411 88.9,105.5 Z" fill="#9E9E9E"/>
  <path d="M86.4,105.6 C86.4,105.931 86.131,106.2 85.8,106.2 C85.469,106.2 85.2,105.931 85.2,105.6 C85.2,105.269 85.469,105 85.8,105 C86.131,105 86.4,105.269 86.4,105.6 Z" fill="#424242"/>
  <path d="M88.3,105.3 C88.3,105.631 88.031,105.9 87.7,105.9 C87.369,105.9 87.1,105.631 87.1,105.3 C87.1,104.969 87.369,104.7 87.7,104.7 C88.031,104.7 88.3,104.969 88.3,105.3 Z" fill="#424242"/>
  <path d="M46.6,124 L32.7,124 L21.3,90 C24.8,92 31.8,95.2 39.6,95.2 C40.3,95.2 41.1,95.2 41.9,95.1 C42.6,95.1 43.2,95.7 43.4,96.5 Z" fill="url(#SVGID_12_)"/>
  <path d="M67.4,124 L53.3,124 L56.7,96.4 C56.9,95.6 57.5,95 58.1,95 L58.2,95 C59,95.2 59.9,95.2 60.8,95.2 C68.2,95.2 75.3,92 78.8,90 Z" fill="url(#SVGID_13_)"/>
  <path d="M83.5,26.76 C79,25.62 72.6,24.68 66.5,24.06 C61.4,23.54 55.8,24.58 50,24.58 C44.2,24.58 38.6,23.54 33.5,24.06 C27.4,24.58 19.8,26.76 15.3,27.9 C7.5,29.88 4,31.95 4,34.86 C4,37.77 8.1,39.12 16,41.09 C20.5,42.23 24,44.83 31.9,45.76 C37,46.38 45.5,44.51 51.2,44.51 C57,44.51 64.6,46.38 69.7,45.86 C75.8,45.34 79.4,42.85 83.9,41.71 C91.8,39.74 95.9,37.66 95.9,34.75 C95.9,31.85 91.4,28.73 83.5,26.76 Z" fill="url(#SVGID_14_)"/>
  <path d="M64.6,4.44 C61.8,3.71 57.2,4.03 54.4,4.44 C47.3,5.69 48.3,4.96 41.6,4.34 C38.9,4.03 35.3,3.82 32.7,4.65 C22.7,7.77 21.5,16.59 15.2,30.09 C15.3,42.45 85.2,42.34 85.1,30.09 C79,17.21 75,7.24 64.6,4.44 Z" fill="url(#SVGID_15_)"/>
  <path d="M38.8,10.35 C42,12.63 45.9,13.78 49.8,13.26 C53.3,12.85 56.7,11.49 59.9,9.94 C60.4,9.63 61,10.25 60.8,10.88 C60.3,12.23 55.3,17.32 49.4,17.32 C43.9,17.32 40.2,14.93 38.3,11.5 C37.9,10.98 38.1,9.84 38.8,10.35 Z" fill="#EEEEEE" opacity="0.2"/>
  <path d="M82.1,23.44 C70.5,30.29 29.8,30.29 18.3,23.34 C17.3,25.52 16.3,27.81 15.3,30.09 C15.4,42.45 85.3,42.34 85.2,30.09 C84.1,27.9 83.1,25.62 82.1,23.44 Z" fill="#404042"/>
  <path d="M90.3,43.4 C97.6,52.6 96.1,66.1 87,73.5 C77.9,80.9 64.4,79.3 57,70.1 C49.6,60.9 51.2,47.4 60.4,40 C69.6,32.6 82.9,34.2 90.3,43.4 Z" fill="url(#SVGID_16_)" opacity="0.6"/>
  <path d="M101.16,85.78 L95.48,90.3 L82.84,74.52 L88.52,70 Z" fill="#C7C7C7"/>
  <path d="M92.5,41.3 C84.1,30.7 68.8,29 58.3,37.5 C47.8,46 46.1,61.4 54.5,71.9 C62.9,82.4 78.2,84.2 88.7,75.7 C99.2,67.2 100.9,51.8 92.5,41.3 Z M85.14,71.17 C77.1,77.6 65.36,76.37 58.93,68.24 C52.5,60.11 53.82,48.37 61.86,41.84 C69.9,35.31 81.64,36.64 88.07,44.77 C94.51,52.9 93.18,64.73 85.14,71.17 Z" fill="url(#SVGID_17_)"/>
  <path d="M113.1,100.6 L112.7,100.1 C112.3,96.7 110.3,92.2 106.9,87.9 C103.9,84.1 100.5,81.3 97.5,80 C96.7,79.6 96,79 95.4,78.3 L94.6,77.3 L88.4,82.3 L89.2,83.3 C89.8,84 90.2,84.8 90.4,85.7 C91,89 93,93 96,96.7 C99.4,101 103.3,104 106.5,105.1 L106.9,105.6 C107.3,106.1 107.9,106.4 108.6,106.4 C109.1,106.4 109.5,106.2 109.9,105.9 L110.8,105.2 C111,105.1 111.2,105 111.4,104.8 C111.6,104.7 111.7,104.5 111.9,104.3 L112.8,103.6 C113.7,102.9 113.9,101.5 113.1,100.6 Z" fill="url(#SVGID_18_)"/>
  <path d="M96.6,80.4 L90.8,85 C90.1,85.5 89.2,85.4 88.7,84.8 L88.3,84.2 C87.8,83.5 87.9,82.6 88.5,82.1 L94.3,77.4 C95,76.9 95.9,77 96.4,77.6 L96.8,78.2 C97.4,78.9 97.3,79.8 96.6,80.4 Z" fill="#ABABAB"/>
  <path id="palm_2_" d="M101.53,97.62 C100.71,98.49 99.97,99.43 99.41,100.48 C98.6,101.98 91.35,104.78 95.35,110.77 C96.52,112.38 100.17,117.46 103.37,118.87 C110.06,121.82 119.58,112.54 120.47,112.05 C126.07,109 111.53,94.64 107.13,94.75 C106.6,94.79 105.81,94.94 105.1,95.05 C103.73,95.29 102.39,96.72 101.53,97.62 Z" fill="url(#palm_1_)"/>
  <path id="finger_9_" d="M119.9,107.09 L114.16,111.29 C113.41,111.81 113.18,112.76 113.58,113.52 L113.58,113.52 C114,114.36 115.07,114.64 115.95,114.2 L122.17,110.76 C123.18,110.23 123.58,108.99 123.01,108.05 L122.72,107.57 C122.12,106.61 120.83,106.39 119.9,107.09 Z" fill="url(#finger_1_)"/>
  <path id="finger_8_" d="M98.35,114.61 C98.35,114.61 100.09,114.53 102.37,113.89 C109.27,111.93 104.96,104.96 104.31,103.86 C101,98.22 106.45,95.87 110.11,92.66 C110.87,91.99 113.29,89.47 112.65,87.09 C111.12,83.48 108.07,85.89 101.25,90.48 C99.39,91.73 97.65,93.11 96.08,94.71 C88.58,102.3 95.11,110.96 98.35,114.61 Z" fill="url(#finger_2_)"/>
  <path id="finger_7_" d="M114.64,96.58 L107.08,103.45 C106.06,104.36 106.67,105.2 107.4,106.27 L107.4,106.27 C108.18,107.45 109.04,108.31 110.28,107.48 L118.69,101.65 C120.11,100.67 120.48,98.74 119.46,97.44 L118.94,96.78 C117.88,95.46 115.92,95.36 114.64,96.58 Z" fill="url(#finger_3_)"/>
  <path id="finger_6_" d="M110.88,91.9 L104.69,98.18 C103.76,99.1 103.66,100.51 104.41,101.5 L104.41,101.5 C105.21,102.59 106.81,102.73 107.95,101.88 L115.01,96.56 C116.32,95.56 116.58,93.69 115.54,92.49 L115.01,91.88 C113.93,90.67 112.04,90.67 110.88,91.9 Z" fill="url(#finger_5_)"/>
  <path id="finger_4_" d="M117.65,102.04 L111.52,107.29 C110.59,108.05 110.39,109.33 111,110.29 L111,110.29 C111.64,111.35 113.08,111.61 114.19,110.92 L121.04,106.61 C122.32,105.8 122.71,104.12 121.85,102.94 L121.42,102.34 C120.53,101.17 118.81,101.02 117.65,102.04 Z" fill="url(#finger_10_)"/>
  <path id="tone_1_" d="M118.86,101.51 C118.26,100.54 111.72,107.01 110.26,106.95 C108.59,106.88 107.44,105.14 108.25,103.62 C109.17,101.91 115.83,96.41 115.53,96.03 C114.97,95.32 107.65,104.27 105.14,101.1 C103.58,99.14 105.69,97.54 106.91,96.2 C107.63,95.41 111.11,92.3 110.91,92.04 C110.71,91.79 109.87,92.56 109.76,92.63 C109.04,93.08 104.99,96.71 104.04,97.87 C102.47,99.79 102.83,101.22 103.43,102.08 C104.13,103.09 104.86,104.58 105.26,105.74 C106.1,108.21 105.1,111.87 105.23,112.19 C105.37,112.53 106.35,110.5 106.54,108.68 C106.65,107.61 107.69,107.28 108.53,107.96 C109.04,108.38 109.49,108.78 109.65,109 C109.99,109.46 112.01,112.15 112.56,113.18 C112.77,113.58 112.96,113.88 113.37,114.19 C113.67,114.42 114.01,114.59 114.38,114.69 C116.02,115.14 117.55,114.11 118.79,113.25 C119.53,112.73 122.65,110.85 123.02,109.95 C121.41,111.15 115.91,115.59 114.47,113.23 C113.69,111.89 115.07,111.38 115.95,110.82 C116.95,110.19 118.72,108.87 119.58,108.06 C119.82,107.83 121.21,106.81 121.06,106.61 C120.83,106.32 117.93,108.48 117.6,108.72 C116.41,109.57 114.11,111.63 112.52,110.66 C111.94,110.3 111.53,109.62 111.53,108.93 C111.53,107.27 119.17,102.01 118.86,101.51 Z" fill="#875334"/>
</svg>