<svg viewBox="0 0 128 128" xmlns="http://www.w3.org/2000/svg">
  <defs/>
  <path d="M116,4 L12,4 C7.58,4 4,7.58 4,12 L4,116 C4,120.42 7.58,124 12,124 L116,124 C120.42,124 124,120.42 124,116 L124,12 C124,7.58 120.42,4 116,4 Z" fill="#427687"/>
  <path d="M109.7,4 L11.5,4 C7.37,4.03 4.03,7.37 4,11.5 L4,109.4 C3.99,113.54 7.34,116.89 11.48,116.9 C11.49,116.9 11.49,116.9 11.5,116.9 L109.6,116.9 C113.74,116.91 117.09,113.56 117.1,109.42 C117.1,109.41 117.1,109.41 117.1,109.4 L117.1,11.5 C117.19,7.45 113.97,4.09 109.92,4 C109.85,4 109.77,4 109.7,4 Z" fill="#8CAFBF"/>
  <path d="M47.4,71 L23.4,47 C21.74,45.54 21.58,43.01 23.05,41.35 C23.16,41.22 23.28,41.11 23.4,41 L47.4,17 C49.08,15.56 51.6,15.76 53.04,17.44 C53.65,18.15 53.99,19.06 54,20 L54,34 C54,35.1 54.9,36 56,36 L102,36 C104.21,36 106,37.79 106,40 L106,48 C106,50.21 104.21,52 102,52 L56,52 C54.9,52 54,52.9 54,54 L54,68 C53.98,70.21 52.17,71.98 49.96,71.96 C49.02,71.95 48.11,71.61 47.4,71 Z" fill="#FAFAFA"/>
  <path d="M39.7,12.9 C39.7,10.6 38.1,9.9 28.9,10.2 C21.2,10.5 17.4,11.4 15.1,14.2 C12.8,17 12.2,22.7 12.1,29.5 C12.1,34.3 12.1,38.8 14.6,38.8 C18,38.8 18,30.9 20.8,26.5 C26.2,17.8 39.7,15.9 39.7,12.9 Z" fill="#B4E1ED" opacity="0.5"/>
  <path d="M41.28,111.67 L25.25,111.67 L25.25,83.83 L41.28,83.83 L41.28,88.67 L31.15,88.67 L31.15,94.78 L40.58,94.78 L40.58,99.62 L31.15,99.62 L31.15,106.8 L41.28,106.8 L41.28,111.67 Z" fill="#FAFAFA"/>
  <path d="M73.93,111.67 L66.43,111.67 L54.32,90.61 L54.15,90.61 C54.39,94.33 54.51,96.98 54.51,98.57 L54.51,111.67 L49.24,111.67 L49.24,83.83 L56.69,83.83 L68.78,104.68 L68.91,104.68 C68.72,101.06 68.62,98.5 68.62,97.01 L68.62,83.83 L73.93,83.83 L73.93,111.67 Z" fill="#FAFAFA"/>
  <path d="M104.04,97.48 C104.04,102.06 102.74,105.57 100.13,108.01 C97.52,110.45 93.75,111.67 88.83,111.67 L80.95,111.67 L80.95,83.83 L89.69,83.83 C94.23,83.83 97.76,85.03 100.28,87.43 C102.8,89.83 104.04,93.18 104.04,97.48 Z M97.91,97.64 C97.91,91.66 95.27,88.67 89.99,88.67 L86.85,88.67 L86.85,106.8 L89.38,106.8 C95.06,106.8 97.91,103.74 97.91,97.64 Z" fill="#FAFAFA"/>
</svg>