<svg viewBox="0 0 128 128" xmlns="http://www.w3.org/2000/svg">
  <defs/>
  <path d="M40.03,51.95 C40.13,52.56 38.92,73.25 38.92,73.25 C38.92,73.25 31.15,80.42 28.72,82.44 C26.3,84.46 21.96,88.5 17.01,83.35 C14.87,81.12 13.38,77.39 13.38,77.39 L6.82,80.72 C6.82,80.72 9.25,87.17 16.31,91.02 C24.33,95.4 31.56,87.79 34.48,85.27 C37.19,82.93 59.72,61.44 59.72,61.44 L50.13,61.64 L45.28,66.79 L46.39,53.36 L40.03,51.95 Z" fill="#DB0D2A"/>
  <path d="M40.08,52.04 L39.49,63.27 C39.49,63.27 40.48,64.53 42.53,64.51 C44.88,64.49 45.6,62.8 45.6,62.8 L46.39,53.37 L40.08,52.04 Z" fill="#AF0A1B"/>
  <path d="M106.9,39.03 C107.1,39.43 114.24,53.23 114.24,53.23 C114.24,53.23 118.18,48.56 118.68,48.01 C119.18,47.46 121.51,47.91 122.72,49.42 C123.93,50.93 123.95,51.83 123.48,52.47 C123.01,53.11 83.54,95.46 75.78,103.23 C70.33,108.69 62.86,112.32 53.87,106.06 C47.96,101.94 45.79,96.77 45.79,96.77 L52.76,93.94 C52.76,93.94 57.37,102.5 62.96,101.82 C66.75,101.35 71.96,97.31 75.33,93.82 C78.49,90.56 80.54,88.36 80.54,88.36 L74.98,64.26 L80.64,60.06 L86.4,82.2 L109.37,57.89 L100.29,39.5 L106.9,39.03 Z" fill="#DB0D2A"/>
  <path d="M75.78,68.01 L76.99,73.06 C76.99,73.06 78.29,74.93 81.03,73.97 C83.56,73.08 83.27,70.24 83.27,70.24 L81.03,61.65 L75.78,68.01 Z" fill="#AF0A1B"/>
  <path d="M101.92,42.87 L104.19,47.48 C104.19,47.48 106.2,48.31 107.89,47.28 C109.92,46.04 109.69,44.49 109.69,44.49 L106.35,37.85 L101.92,42.87 Z" fill="#AF0A1B"/>
  <path d="M14.59,71.24 L17.53,73.87 L40.74,54.08 C40.74,54.08 42.58,60.55 50.93,63.36 C62.04,67.1 72.45,63.35 72.45,63.35 L76.27,61.94 L51.65,86.68 L56.19,88.6 C56.19,88.6 114.36,32.57 114.55,31.95 C114.74,31.33 115,29.17 114.6,28.97 C114.58,28.96 108.85,28.76 108.85,28.76 L107.89,28.6 C107.89,28.6 107.58,27.72 107.33,27.66 C106.73,27.53 100.82,27.42 100.82,27.42 C100.82,27.42 100.03,26.26 100.02,26.26 C99.38,26.12 94.03,25.77 94.03,25.77 C94.03,25.77 93.98,25.04 93.39,24.85 C92.69,24.62 87.42,24.14 87.42,24.14 C87.42,24.14 87.12,23.29 86.62,23.16 C85.7,22.93 81.49,22.48 81.49,22.48 C81.49,22.48 81.11,21.69 80.71,21.61 C80.03,21.47 76.69,20.76 76.69,20.76 C76.69,20.76 76.22,19.48 76.17,19.47 C75.26,19.35 29.94,57 29.94,57 L14.59,71.24 Z" fill="#D2712A"/>
  <path d="M12.98,68.61 C12.98,68.61 70.83,18.73 71.64,18.43 C72.45,18.13 75.54,18.66 76.17,19.45 C76.65,20.06 14.9,72.34 14.9,72.34 L12.98,68.61 Z" fill="#F0A358"/>
  <path d="M41.55,51.35 L76.68,20.76 C76.68,20.76 80.69,21.57 80.71,21.61 C80.84,21.87 43.3,55.22 43.3,55.22 C43.3,55.22 42.37,54.14 42.01,53.08 C41.75,52.32 41.55,51.35 41.55,51.35 Z" fill="#F0A358"/>
  <path d="M43.86,56.13 L81.84,22.03 L86.63,23.16 L47.81,59.51 C47.81,59.51 46.75,58.95 45.56,57.89 C44.37,56.83 43.86,56.13 43.86,56.13 Z" fill="#F0A358"/>
  <path d="M48.97,60 L87.9,23.65 L93.4,24.85 L55.28,61.91 C55.28,61.91 52.95,61.62 51.62,61.2 C50.27,60.78 48.97,60 48.97,60 Z" fill="#F0A358"/>
  <path d="M56.73,62.14 L94.87,25.34 L100.01,26.26 L63.59,62.4 C63.59,62.4 61.83,62.61 59.79,62.47 C58.36,62.37 56.73,62.14 56.73,62.14 Z" fill="#F0A358"/>
  <path d="M65.42,62.26 L101.5,26.68 L107.35,27.67 L74.02,60.13 C74.02,60.13 72.45,60.95 70.12,61.45 C67.39,62.04 65.42,62.26 65.42,62.26 Z" fill="#F0A358"/>
  <path d="M108.9,27.73 L50.25,84.32 L54.94,85.95 C54.94,85.95 114.78,29.6 114.6,28.97 C114.43,28.34 108.9,27.73 108.9,27.73 Z" fill="#F0A358"/>
  <path d="M6.91,81.87 C7.97,83.06 10.09,83.29 11.75,82.78 C14.19,82.03 14.89,79.89 14.89,79.89 L14.39,77.01 L17.91,73.88 C17.91,73.88 17.91,71.17 16.91,70.05 C15.7,68.7 12.84,68.6 12.84,68.6 L11.45,69.66 C11.45,69.66 9.89,68.94 8.65,68.78 C7.32,68.6 4.37,69.38 3.93,71.88 C3.16,76.26 6.91,81.87 6.91,81.87 Z" fill="#5E6268"/>
  <path d="M7.42,78.14 C9.17,78.39 7.73,75.13 8.61,74.13 C9.49,73.13 10.64,72.55 10.33,71.42 C10.02,70.29 6.42,69.74 5.67,71.87 C4.92,74 6.1,77.95 7.42,78.14 Z" fill="#9B9B9B"/>
  <path d="M48.82,85.26 L51.42,82.96 C51.42,82.96 54.78,84.02 55.53,85.46 C56.28,86.9 56.28,89.09 56.28,89.09 L53.27,92.16 C53.27,92.16 53.48,93.31 53.77,94.54 C54.02,95.58 52.64,98.11 50.33,98.92 C48.01,99.73 45.57,98.36 45.57,98.36 C45.57,98.36 40.88,92.26 41.06,88.9 C41.31,84.39 45.02,83.96 46.26,84.14 C47.99,84.41 48.82,85.26 48.82,85.26 Z" fill="#5E6268"/>
  <path d="M47.38,86.9 C48.38,88.4 45.81,89.28 45.56,90.41 C45.31,91.54 46.12,93.6 45.12,94.1 C44.12,94.6 42.52,91.52 42.8,89.22 C43.13,86.65 46.45,85.5 47.38,86.9 Z" fill="#9A9A9B"/>
</svg>