<svg viewBox="0 0 128 128" xmlns="http://www.w3.org/2000/svg">
  <defs/>
  <path d="M4,4 L124,4 L124,7 L4,7 L4,4 Z" fill="#607D8B"/>
  <path d="M77.165,25.117 Q88.704,15.924 100.708,9.506 Q106.743,6.28 110.508,4.884 L110.509,4.883 L111.551,7.697 Q107.977,9.022 102.123,12.152 Q90.359,18.441 79.035,27.463 Z" fill="#82AEC0"/>
  <path d="M9.42,81.24 C8.63,84.09 7.97,86.96 7.48,89.76 L5.17,107.82 C5.17,107.82 4.23,115.05 9.18,115.05 C12.2,115.05 115.01,115.05 119.87,115.05 C123.81,115.05 123.72,112.41 123.72,110.46 L123.28,81.24 L9.42,81.24 Z" fill="#88B151"/>
  <path d="M119.87,115.05 C115.07,115.05 9.44,115.05 8.37,115.05 C6.8,115.05 5.75,112.78 5.75,112.78 C5.75,112.78 117.95,112.78 119.87,112.78 C121.79,112.78 123.72,111.07 123.72,111.07 C123.72,111.07 124.66,115.05 119.87,115.05 Z" fill="#608C3D"/>
  <path d="M86.79,38.7 L58.4,38.7 L54.55,38.7 C53.57,38.7 52.84,37.79 53.03,36.82 L54.21,30.79 C54.35,30.05 54.99,29.52 55.73,29.52 L85.61,29.52 C86.35,29.52 86.99,30.05 87.13,30.79 L88.31,36.82 C88.5,37.79 87.77,38.7 86.79,38.7 Z" fill="#82AEC0"/>
  <path d="M53.03,37.55 L53.36,35.14 L87.98,35.14 L88.28,37.55 Z" fill="#2F7889"/>
  <path d="M122.8,49.21 C122.8,49.21 123.4,36.83 112.62,36.83 C108.68,36.83 45.21,36.83 43.7,36.83 C42.2,36.83 41.74,33.12 39.52,33.12 C37.3,33.12 31.23,33.33 27.16,34.15 C20.25,35.53 14.01,39.76 10.95,58.83 L7.12,92.61 C7.12,92.61 22.15,92.61 30.57,92.61 C38.99,92.61 43.9,85.94 51.97,85.94 C60.04,85.94 123.41,85.94 123.41,85.94 L122.8,49.21 Z" fill="#FFCA28"/>
  <path d="M121.61,42.66 C120.36,39.69 117.81,36.83 112.63,36.83 C108.69,36.83 45.22,36.83 43.71,36.83 C42.2,36.83 41.75,33.12 39.53,33.12 C37.31,33.12 31.24,33.33 27.17,34.15 C22.94,35 18.97,36.93 15.82,42.66 L121.61,42.66 Z" fill="#BDBDBD"/>
  <path d="M42.62,83.12 C49.15,83.12 103.08,83.12 123.36,83.12 L122.81,49.21 C122.81,49.21 123.41,39.37 116.48,39.37 C112.54,39.37 40.45,39.37 38.94,39.37 C37.43,39.37 37.38,35.66 35.99,35.66 C33.77,35.66 25.84,36 23.95,36.34 C20.51,36.97 18.61,38.69 18.61,38.69 C15.6,41.94 12.99,46.21 10.97,58.82 L7.44,89.79 C12.02,89.79 17.33,89.79 21.23,89.79 C29.64,89.79 34.55,83.12 42.62,83.12 Z" fill="#E0E0E0"/>
  <path d="M116.14,49.72 L21.12,49.72 C21.12,49.72 15.4,54.02 14.28,65.13 C13.16,76.24 14.28,81.31 14.28,81.31 L24.7,81.31 L40.87,77.43 L115.64,77.43 L116.14,49.72 Z" fill="#BAE2FD"/>
  <path d="M32.86,112.78 A11.04 11.21 0 1 1 10.78,112.78 A11.04 11.21 0 1 1 32.86,112.78 Z" fill="#5D4037"/>
  <path d="M28.05,112.78 A6.23 6.32 0 1 1 15.59,112.78 A6.23 6.32 0 1 1 28.05,112.78 Z" fill="#9E9E9E"/>
  <path d="M11,115.05 C10.85,114.32 10.77,113.56 10.77,112.78 C10.77,106.59 15.71,101.57 21.81,101.57 C27.91,101.57 32.85,106.59 32.85,112.78 C32.85,113.56 32.77,114.32 32.62,115.05 L34.44,115.05 C34.57,114.31 34.65,113.55 34.65,112.78 C34.65,105.59 28.89,99.74 21.8,99.74 C14.72,99.74 8.95,105.59 8.95,112.78 C8.95,113.56 9.03,114.31 9.16,115.05 L11,115.05 Z" fill="#608C3D"/>
  <path d="M110.82,112.78 A11.04 11.21 0 1 1 88.74,112.78 A11.04 11.21 0 1 1 110.82,112.78 Z" fill="#5D4037"/>
  <path d="M106.01,112.78 A6.23 6.32 0 1 1 93.55,112.78 A6.23 6.32 0 1 1 106.01,112.78 Z" fill="#9E9E9E"/>
  <path d="M88.96,115.05 C88.81,114.32 88.73,113.56 88.73,112.78 C88.73,106.59 93.67,101.57 99.77,101.57 C105.87,101.57 110.81,106.59 110.81,112.78 C110.81,113.56 110.73,114.32 110.58,115.05 L112.4,115.05 C112.53,114.31 112.61,113.55 112.61,112.78 C112.61,105.59 106.85,99.74 99.76,99.74 C92.68,99.74 86.91,105.59 86.91,112.78 C86.91,113.56 86.99,114.31 87.12,115.05 L88.96,115.05 Z" fill="#608C3D"/>
  <path d="M6.98,105.82 C7.52,105.9 8.03,105.51 8.11,104.97 L9.35,95.94 C9.42,95.4 9.04,94.89 8.5,94.81 L7.86,94.72 C7.32,94.64 6.81,95.03 6.74,95.57 L5.56,104.61 C5.5,105.16 5.9,105.67 6.44,105.74 L6.98,105.82 Z" fill="#FFA000"/>
  <path d="M123.46,97.01 C123.45,96.46 122.99,96.01 122.44,96.01 L121.45,96.01 C120.9,96.01 120.45,96.46 120.45,97.01 L120.45,106.13 C120.45,106.68 120.9,107.13 121.45,107.13 L122.65,107.13 C123.2,107.13 123.64,106.68 123.63,106.13 L123.46,97.01 Z" fill="#F44336"/>
  <path d="M111.62,46.53 C107.55,46.53 29.22,46.53 29.22,46.53 C24.53,46.53 20,46.97 17.57,50.78 C15.08,54.68 13,64.06 12.54,73.07 C12.18,80.05 12.2,83.74 18.82,83.74 L24.68,83.74 C29.05,83.74 35.48,80.36 40.36,80.31 C45.24,80.26 98.67,79.76 111.09,79.76 C116.05,79.76 118.09,76.34 118.09,73.02 C118.09,70.81 118.09,52.91 118.09,52.91 C118.09,52.91 118.34,46.53 111.62,46.53 Z M82.52,52.48 L94.55,52.48 C95.61,52.48 96.47,53.34 96.47,54.4 L96.47,72.67 C96.47,73.73 95.61,74.59 94.55,74.59 L82.52,74.59 C81.46,74.59 80.6,73.73 80.6,72.67 L80.6,54.4 C80.6,53.34 81.46,52.48 82.52,52.48 Z M75.68,74.58 L63.65,74.58 C62.59,74.58 61.73,73.72 61.73,72.66 L61.73,54.4 C61.73,53.34 62.59,52.48 63.65,52.48 L75.68,52.48 C76.74,52.48 77.6,53.34 77.6,54.4 L77.6,72.67 C77.6,73.72 76.74,74.58 75.68,74.58 Z M58.73,54.4 L58.73,72.67 C58.73,73.73 57.87,74.59 56.81,74.59 L44.78,74.59 C43.72,74.59 42.86,73.73 42.86,72.67 L42.86,54.4 C42.86,53.34 43.72,52.48 44.78,52.48 L56.81,52.48 C57.87,52.48 58.73,53.34 58.73,54.4 Z M18.83,78.38 C14.89,78.38 15.05,76.48 15.25,72.83 C15.64,65.53 17.33,59.15 19.88,55.34 C21.49,52.94 24.52,52.47 29.22,52.47 L37.93,52.47 C38.99,52.47 39.85,53.33 39.85,54.39 L39.85,72.99 C39.85,73.91 39.2,74.67 38.31,74.87 C34.34,75.75 29.85,78.37 24.69,78.37 L18.83,78.37 Z M115.41,56.04 L115.41,56.08 L115.41,70.63 C115.41,71.82 114.99,74.58 111.12,74.58 L101.4,74.58 C100.34,74.58 99.48,73.72 99.48,72.66 L99.48,54.4 C99.48,53.34 100.34,52.48 101.4,52.48 L111.62,52.48 C112.86,52.48 113.76,52.75 114.35,53.31 C115.24,54.14 115.42,55.55 115.41,56 L115.41,56.04 Z" fill="#37474F"/>
  <path d="M14.61,47.08 C11.55,47.08 10.13,48.04 8.48,49.82 L6.2,52.84 C5.04,53 4.13,53.99 4.13,55.2 L4.13,64.89 C4.13,66.21 5.2,67.28 6.52,67.28 L7.14,67.28 C7.6,67.28 7.97,66.91 7.97,66.45 L7.97,54.15 C9.33,52.99 12.3,50.77 15.17,50.77 L22.56,50.21 L27.04,46.53 L14.61,47.08 Z" fill="#37474F"/>
  <path d="M113.66,5.82 A2.63 2.63 0 1 1 108.4,5.82 A2.63 2.63 0 1 1 113.66,5.82 Z" fill="#5C9AAD"/>
  <path d="M80.73,25.64 L79.25,24.16 C78.55,23.46 77.35,23.76 77.07,24.71 C77.07,24.71 77.07,24.71 76.75,25.79 C76.43,26.87 74.49,25.72 72.48,27.32 C71.66,27.97 71.22,28.78 70.97,29.52 L78.09,29.52 C78.24,28.82 78.48,28.18 79.2,28.03 C80.08,27.85 80.08,27.85 80.08,27.85 C81.09,27.63 81.47,26.37 80.73,25.64 Z" fill="#5C9AAD"/>
</svg>