<svg viewBox="0 0 128 128" xmlns="http://www.w3.org/2000/svg">
  <defs>
    <radialGradient id="face_1_" cx="63.6" cy="62.9" gradientUnits="userSpaceOnUse" r="56.9597">
      <stop offset="0.5" stop-color="#FDE030"/>
      <stop offset="0.92" stop-color="#F7C02B"/>
      <stop offset="1" stop-color="#F4A223"/>
    </radialGradient>
  </defs>
  <path id="face" d="M63.6,118.8 C35.7,118.8 5.6,101.3 5.6,62.9 C5.6,24.5 35.7,7 63.6,7 C79.1,7 93.4,12.1 104,21.4 C115.5,31.6 121.6,46 121.6,62.9 C121.6,79.8 115.5,94.1 104,104.3 C93.4,113.6 79,118.8 63.6,118.8 Z" fill="url(#face_1_)"/>
  <path d="M25.15,70.57 C26.84,74.34 29.07,77.86 31.76,81 C34.42,84.1 37.51,86.79 40.94,89 C44.35,91.22 48.05,92.95 51.94,94.13 C59.78,96.42 68.1,96.42 75.94,94.13 C79.83,92.95 83.53,91.22 86.94,89 C90.41,86.8 93.55,84.1 96.24,81 C98.93,77.87 101.15,74.38 102.85,70.62 L102.85,70.62 C103.45,69.53 104.81,69.13 105.9,69.73 C106.8,70.23 107.26,71.27 107,72.27 C105.39,76.59 103.12,80.64 100.28,84.27 C91.52,95.39 78.15,101.88 64,101.88 C49.84,101.87 36.47,95.38 27.72,84.25 C24.88,80.62 22.61,76.57 21,72.25 C20.53,71.11 21.07,69.79 22.21,69.32 C23.35,68.85 24.67,69.39 25.14,70.53 L25.15,70.57 Z" fill="#422B0D"/>
  <path d="M111.49,29.67 C116.82,38.27 119.6,48.51 119.6,59.9 C119.6,76.8 113.5,91.1 102,101.3 C91.4,110.6 77,115.8 61.6,115.8 C43.54,115.8 24.6,108.45 13.42,92.86 C24.18,110.52 44.42,118.8 63.6,118.8 C79,118.8 93.4,113.6 104,104.3 C115.5,94.1 121.6,79.8 121.6,62.9 C121.6,50.16 118.13,38.84 111.49,29.67 Z" fill="#EB8F00"/>
  <path d="M50.15,56.1 L50,55.88 L49.79,55.61 C49.71,55.5 49.63,55.41 49.53,55.32 L48.91,54.7 C48.66,54.45 48.36,54.18 48.05,53.91 C47.39,53.34 46.65,52.88 45.85,52.52 C45.07,52.17 44.22,52 43.37,52 L43,52 C42.9,51.98 42.81,51.98 42.71,52 C42.53,52.02 42.35,52.05 42.17,52.09 C41.75,52.19 41.35,52.32 40.95,52.48 C40.15,52.84 39.41,53.3 38.75,53.87 C38.21,54.33 37.71,54.82 37.24,55.34 L36.67,55.98 L36.37,56.32 C35.18,57.72 33.08,57.9 31.68,56.71 C30.61,55.8 30.22,54.32 30.71,53 L30.82,52.68 C30.92,52.37 31.04,52.07 31.17,51.77 C31.65,50.68 32.26,49.66 33,48.73 C34.75,46.42 37.21,44.74 40,43.94 C40.57,43.79 41.15,43.68 41.74,43.6 C42.04,43.6 42.48,43.51 42.61,43.51 L43.37,43.51 C44.51,43.53 45.64,43.69 46.74,43.98 C47.79,44.27 48.8,44.69 49.74,45.23 C51.29,46.13 52.65,47.34 53.74,48.77 C54.16,49.31 54.54,49.87 54.87,50.47 C55.14,50.94 55.38,51.42 55.59,51.91 C55.67,52.07 55.74,52.24 55.79,52.41 C55.79,52.54 55.87,52.65 55.9,52.74 L56,53 C56.57,54.77 55.6,56.67 53.83,57.24 C52.49,57.66 51.02,57.2 50.15,56.1 Z" fill="#422B0D"/>
  <path d="M93.48,56.1 L93.3,55.88 L93.09,55.61 C93.01,55.5 92.93,55.41 92.83,55.32 L92.21,54.7 C91.96,54.45 91.66,54.18 91.35,53.91 C90.69,53.34 89.95,52.88 89.15,52.52 C88.38,52.18 87.54,52 86.7,52 L86.29,52 C86.19,51.98 86.1,51.98 86,52 C85.82,52.02 85.64,52.05 85.46,52.09 C85.04,52.19 84.64,52.32 84.24,52.48 C83.43,52.85 82.67,53.33 82,53.91 C81.46,54.37 80.96,54.86 80.48,55.38 L80,56 L79.7,56.34 C78.58,57.8 76.49,58.07 75.03,56.94 C73.83,56.02 73.4,54.4 74,53 L74.11,52.68 C74.21,52.37 74.33,52.07 74.46,51.77 C74.93,50.67 75.55,49.64 76.28,48.69 C78.03,46.38 80.49,44.7 83.28,43.9 C83.85,43.75 84.43,43.64 85.02,43.56 C85.32,43.56 85.75,43.47 85.89,43.47 L86.65,43.47 C87.79,43.49 88.92,43.65 90.02,43.94 C91.07,44.23 92.08,44.65 93.02,45.19 C94.57,46.09 95.93,47.3 97.02,48.73 C97.44,49.27 97.82,49.83 98.15,50.43 C98.42,50.9 98.66,51.38 98.87,51.87 C98.95,52.03 99.02,52.2 99.07,52.37 L99.18,52.7 L99.27,52.97 C99.84,54.74 98.87,56.63 97.1,57.2 C95.77,57.63 94.32,57.19 93.45,56.1 L93.48,56.1 Z" fill="#422B0D"/>
  <path d="M86.67,89.27 C85.84,89.79 85,90.27 84.14,90.75 C85.14,90.21 86.14,89.64 87.06,89.03 L86.67,89.27 Z" fill="#FF4081"/>
  <path d="M74,94.68 L74,94.68 C74.67,94.52 75.34,94.35 76,94.15 C75.36,94.36 74.69,94.51 74,94.68 Z" fill="#FF4081"/>
  <path d="M76,94.16 C76.93,93.89 77.83,93.58 78.73,93.24 C77.85,93.58 77,93.89 76,94.16 Z" fill="#FF4081"/>
  <path d="M92.21,85.1 C91.6,85.64 90.97,86.16 90.32,86.65 C90,86.91 89.67,87.15 89.32,87.4 C88.57,87.97 87.81,88.52 87.03,89.03 C88.03,88.4 88.93,87.72 89.85,87.03 C90.77,86.34 91.46,85.77 92.21,85.1 Z" fill="#FF4081"/>
  <path d="M94.16,83.21 C94.09,83.28 94.03,83.35 93.96,83.41 C93.4,84 92.81,84.56 92.21,85.1 C92.84,84.54 93.45,83.96 94.03,83.35 L94.16,83.21 Z" fill="#AB3F2E" opacity="0.3"/>
  <path d="M68.35,95.64 L72.06,99.58 L72.42,99.95 L68.35,95.64 Z" fill="#FF4081"/>
  <path d="M72.42,99.95 L73.31,100.91 L73.32,100.9 L73.32,100.89 Z" fill="#AB3F2E" opacity="0.3"/>
  <path d="M109.62,89.11 L102.62,81.79 L102.34,81.5 L102.34,81.5 L99.66,78.7 L98.87,77.87 L98.77,77.77 C97.98,78.89 97.14,79.97 96.24,81 C93.58,84.1 90.49,86.79 87.06,89 C83.65,91.22 79.95,92.95 76.06,94.13 C73.56,94.87 70.99,95.36 68.39,95.61 L72.42,100 L73.32,100.94 L73.32,100.94 L74.04,101.69 L74.45,102.12 L84.79,112.92 C90.78,119.18 100.71,119.4 106.97,113.41 L109.13,111.34 C115.4,105.35 115.64,95.42 109.65,89.14 C109.64,89.13 109.63,89.12 109.62,89.11 Z" fill="#FF4081"/>
  <path d="M95.67,96.63 L87.86,88.46 C87.59,88.65 87.33,88.85 87.06,89.03 C86.23,89.56 85.39,90.03 84.54,90.54 L92.9,99.28 C93.25,99.65 93.73,99.86 94.24,99.87 C94.75,99.89 95.24,99.7 95.61,99.34 C96.37,98.62 96.41,97.42 95.69,96.65 C95.69,96.65 95.68,96.64 95.67,96.63 Z" fill="#E62B6B"/>
  <path d="M99.61,78.66 L98.82,77.83 L98.72,77.73 C97.95,78.86 97.12,79.95 96.24,81 C93.58,84.1 90.49,86.79 87.06,89 C83.65,91.22 79.95,92.95 76.06,94.13 C73.56,94.87 70.99,95.36 68.39,95.61 L72.42,100 L73.32,100.94 L73.32,100.94 C91.93,94.19 98.38,81.71 99.61,78.66 Z" fill="#AB3F2E" opacity="0.3"/>
</svg>