<svg viewBox="0 0 128 128" xmlns="http://www.w3.org/2000/svg" xmlns:xlink="http://www.w3.org/1999/xlink">
  <linearGradient id="SVGID_1_" gradientTransform="matrix(1 0 0 -1 0 130)" gradientUnits="userSpaceOnUse" x1="63" x2="63" y1="108.535" y2="20.55">
    <stop offset="0.5" style="stop-color:#FEE133"/>
    <stop offset="0.6118" style="stop-color:#FEDE32"/>
    <stop offset="0.7076" style="stop-color:#FCD32F"/>
    <stop offset="0.7975" style="stop-color:#FAC12B"/>
    <stop offset="0.8834" style="stop-color:#F7A924"/>
    <stop offset="0.9" style="stop-color:#F6A323"/>
  </linearGradient>
  <path d="M63,121.6c-27.9,0-58-17.5-58-55.9S35.1,9.9,63,9.8c15.5,0,29.8,5.1,40.4,14.4 C114.9,34.5,121,48.8,121,65.8c0,16.9-6.1,31.2-17.6,41.4C92.8,116.5,78.4,121.6,63,121.6z" fill="url(#SVGID_1_)"/>
  <path d="M63,11.9c15,0,28.9,4.9,39,13.9c11.1,9.8,17,23.6,17,40c0,16.2-5.9,30-17,39.8c-10.2,9-24.1,14-39,14 c-15,0-28.9-4.9-39-13.8C12.9,96,7,82.2,7,65.7s5.9-30.4,17-40.2C34.1,16.7,47.9,11.8,63,11.9 M63,7.8c-31.2,0-60,20-60,57.9 c0,37.7,28.8,57.9,60,57.9s60-20.7,60-57.9C123,28.4,94.2,7.8,63,7.8z" fill="#EB8F00"/>
  <path d="M77.2,21.6c-0.3-0.2-0.7-0.3-1.1-0.4c-0.4-0.2-0.9-0.3-1.3-0.5c-0.7-0.2-1.4-0.4-2.1-0.6 c-0.8-0.3-1.7-0.5-2.5-0.8c-1.6-0.5-3.6-1.8-4.6,0.5c-0.2,0.5-0.5,1.1-0.4,1.6c0,0.8,0.6,1.2,1.3,1.5c0.7,0.3,1.5,0.6,2.3,0.8 c0.2,0.1,0.5,0.2,0.8,0.2c0.2,0,0.4,0.1,0.4,0.3c0,0.1-0.2,0.2-0.3,0.3c-0.2,0.1-0.4,0.3-0.6,0.4l-0.3,0.2c-0.6,0.4-1.1,0.8-1.7,1.1 c-0.4,0.3-0.9,0.6-1.3,0.9c-0.2,0.1-0.4,0.2-0.6,0.4c-0.6,0.4-1.1,0.8-1.7,1.3L63.3,29c-0.5,0.5-1,1-1.1,1.7 c-0.1,0.9,0.6,1.3,1.4,1.7c0.3,0.1,0.6,0.2,0.9,0.3l0,0c1,0.4,2.1,0.7,3.2,1c0.8,0.3,1.7,0.5,2.5,0.8c1.6,0.5,3.6,1.8,4.6-0.5 c0.2-0.5,0.5-1.1,0.4-1.6c-0.1-0.8-0.6-1.2-1.3-1.5c-0.7-0.3-1.5-0.6-2.3-0.8c-0.2,0-0.3-0.1-0.5-0.2c-0.1,0-0.3-0.1-0.4-0.1 c-0.2-0.2,0.2-0.4,0.3-0.5c0.4-0.2,0.8-0.5,1.2-0.8s0.8-0.5,1.2-0.9c0.2-0.1,0.4-0.3,0.6-0.4c0.4-0.3,0.9-0.6,1.3-0.9 c1.1-0.9,3.6-2,2.8-3.7C78,22.4,77.6,21.8,77.2,21.6L77.2,21.6z" fill="#5F7AFF"/>
  <path d="M97.1,12.1c-0.4-0.2-0.8-0.3-1.2-0.4c-0.5-0.1-1-0.3-1.5-0.4c-0.8-0.2-1.6-0.3-2.3-0.5 c-0.9-0.2-1.9-0.5-2.8-0.7c-1.8-0.4-4.1-1.6-5,1c-0.2,0.5-0.4,1.3-0.3,1.8c0.1,0.9,0.8,1.3,1.6,1.5c0.8,0.3,1.7,0.5,2.5,0.7 c0.3,0.1,0.6,0.1,0.9,0.2c0.2,0,0.4,0.1,0.4,0.3c0,0.1-0.2,0.3-0.3,0.4c-0.2,0.2-0.4,0.3-0.6,0.5c-0.1,0.1-0.2,0.1-0.3,0.2 c-0.6,0.5-1.2,0.9-1.8,1.4c-0.5,0.4-0.9,0.7-1.4,1.1c-0.2,0.1-0.4,0.3-0.6,0.4c-0.6,0.5-1.2,1-1.7,1.5c-0.1,0.1-0.2,0.1-0.2,0.2 c-0.5,0.5-1.1,1.2-1.1,2c0,1,0.8,1.4,1.7,1.8c0.3,0.1,0.7,0.2,1,0.3l0,0c1.1,0.4,2.3,0.6,3.5,0.9c0.9,0.2,1.9,0.5,2.8,0.7 c1.8,0.4,4.1,1.6,5-1c0.2-0.5,0.4-1.3,0.3-1.8c-0.1-0.9-0.8-1.3-1.6-1.5c-0.8-0.3-1.7-0.5-2.6-0.7c-0.2,0-0.4-0.1-0.6-0.1 c-0.1,0-0.4,0-0.5-0.1c-0.2-0.2,0.2-0.4,0.3-0.5c0.4-0.3,0.8-0.6,1.3-1c0.4-0.3,0.9-0.7,1.3-1c0.2-0.2,0.4-0.3,0.7-0.5 c0.5-0.4,1-0.7,1.4-1.1c1.1-1.1,3.8-2.4,2.7-4.3C98,12.8,97.5,12.3,97.1,12.1z" fill="#5F7AFF"/>
  <path d="M123.6,9c-0.3-0.6-1-1.2-1.6-1.5c-0.5-0.2-1.1-0.4-1.6-0.5c-0.7-0.2-1.3-0.4-2-0.5c-1-0.3-2.1-0.5-3.1-0.7 c-1.2-0.3-2.5-0.7-3.7-1c-2.4-0.6-5.4-2.2-6.7,1.3c-0.3,0.7-0.5,1.7-0.4,2.4c0.2,1.2,1,1.7,2.1,2c1.1,0.4,2.2,0.6,3.4,0.9 c0.4,0.1,0.8,0.2,1.1,0.3c0.2,0.1,0.6,0.1,0.6,0.4c0,0.2-0.2,0.4-0.4,0.5c-0.3,0.2-0.5,0.4-0.8,0.6c-0.1,0.1-0.2,0.2-0.4,0.3 c-0.8,0.6-1.6,1.2-2.3,1.8c-0.6,0.5-1.2,1-1.8,1.5c-0.2,0.2-0.5,0.4-0.8,0.6c-0.8,0.6-1.5,1.3-2.3,2l-0.3,0.3 c-0.7,0.7-1.4,1.5-1.4,2.6c0,1.3,1.1,1.9,2.3,2.4c0.4,0.2,0.9,0.3,1.3,0.4h0.1c1.5,0.5,3.1,0.8,4.7,1.2c1.2,0.3,2.5,0.6,3.7,0.9 c2.4,0.6,5.5,2.2,6.7-1.3c0.3-0.7,0.5-1.7,0.4-2.4c-0.2-1.2-1-1.7-2.1-2c-1.1-0.5-2.3-0.7-3.4-1c-0.3-0.1-0.5-0.1-0.8-0.2 c-0.2,0-0.5-0.1-0.6-0.2c-0.3-0.3,0.2-0.6,0.4-0.7c0.6-0.4,1.1-0.8,1.7-1.3s1.2-0.9,1.7-1.4c0.3-0.2,0.6-0.4,0.9-0.7 c0.6-0.5,1.3-0.9,1.8-1.5C121.5,13.2,125,11.4,123.6,9z" fill="#5F7AFF"/>
  <path d="M54.7,103.3c-2.5,0-4.8-1.4-6-3.7s-1.1-4.9,0.3-7c3.1-4.8,8-7.3,14-7.3s10.9,2.5,14,7.3 c1.4,2.2,1.5,4.8,0.3,7c-1.2,2.2-3.5,3.7-6,3.7c-0.8,0-1.6-0.1-2.3-0.4c-2-0.7-4-1-6-1s-4.1,0.3-6,1 C56.2,103.2,55.4,103.3,54.7,103.3z" fill="#242424"/>
  <g>
    <path d="M48.6,54.7l-0.2,0.2c-0.1,0.1-0.4,0.4-0.5,0.5c-0.2,0.2-0.4,0.3-0.7,0.6c-0.3,0.2-0.6,0.5-1,0.7 s-0.8,0.5-1.2,0.7c-0.4,0.2-0.9,0.4-1.4,0.6c-0.5,0.2-1,0.3-1.5,0.4c-0.5,0.1-1,0.1-1.6,0.1h0.1l0,0l0,0l0,0h-0.1h-0.2H40 c-0.3,0-0.3,0-0.4,0c-0.2,0-0.5,0-0.7-0.1c-0.5-0.1-1-0.2-1.5-0.4s-0.9-0.3-1.4-0.6c-0.4-0.2-0.8-0.5-1.2-0.7 c-0.7-0.5-1.3-1-1.7-1.3c-0.4-0.4-0.6-0.6-0.6-0.6l-0.2-0.2c-1.2-1.2-3.2-1.2-4.6-0.2c-1,0.8-1.3,2.2-0.8,3.2l0.2,0.3 c0.1,0.2,0.2,0.5,0.4,0.8c0.4,0.7,1.1,1.7,2.2,2.8c0.5,0.5,1.2,1.1,1.9,1.6c0.7,0.5,1.6,1,2.5,1.4s2,0.8,3,1 c0.6,0.1,1.1,0.2,1.7,0.3c0.3,0,0.7,0.1,0.8,0.1h0.8c1.1,0,2.2-0.1,3.3-0.3c1.1-0.2,2.1-0.6,3-1s1.8-0.9,2.5-1.4s1.4-1,1.9-1.6 c0.5-0.5,1-1,1.3-1.5c0.2-0.2,0.3-0.5,0.5-0.7c0.1-0.2,0.3-0.4,0.4-0.6c0.3-0.4,0.3-0.6,0.4-0.8c0.1-0.2,0.1-0.2,0.1-0.2 c0.7-1.5-0.1-3.2-1.8-3.8C51,53.4,49.5,53.8,48.6,54.7z" fill="#242424"/>
    <path d="M93.5,54.7l-0.2,0.2c-0.1,0.1-0.4,0.4-0.5,0.5c-0.2,0.2-0.4,0.3-0.7,0.6c-0.3,0.2-0.6,0.5-1,0.7 s-0.8,0.5-1.2,0.7c-0.4,0.2-0.9,0.4-1.4,0.6c-0.5,0.2-1,0.3-1.5,0.4c-0.5,0.1-1,0.1-1.6,0.1h0.1l0,0l0,0l0,0h-0.1h-0.2h-0.3 c-0.3,0-0.3,0-0.4,0c-0.2,0-0.4,0-0.7-0.1c-0.5-0.1-1-0.2-1.5-0.4s-0.9-0.3-1.4-0.6c-0.4-0.2-0.8-0.5-1.2-0.7 c-0.7-0.5-1.3-1-1.7-1.3c-0.4-0.4-0.6-0.6-0.6-0.6l-0.2-0.2c-1.2-1.2-3.2-1.2-4.6-0.2c-1,0.8-1.3,2.2-0.8,3.2l0.2,0.3 c0.1,0.2,0.2,0.5,0.4,0.8c0.4,0.7,1.1,1.7,2.2,2.8c0.5,0.5,1.2,1.1,1.9,1.6s1.6,1,2.5,1.4s2,0.8,3,1c0.6,0.1,1.1,0.2,1.7,0.3 c0.3,0,0.7,0.1,0.8,0.1h0.8c1.1,0,2.2-0.1,3.3-0.3c1.1-0.2,2.1-0.6,3-1s1.8-0.9,2.5-1.4c0.8-0.5,1.4-1,1.9-1.6c0.5-0.5,1-1,1.3-1.5 c0.2-0.2,0.3-0.5,0.5-0.7c0.1-0.2,0.3-0.4,0.4-0.6c0.3-0.4,0.3-0.6,0.4-0.8s0.1-0.2,0.1-0.2c0.7-1.5-0.1-3.2-1.8-3.8 C95.9,53.4,94.4,53.8,93.5,54.7z" fill="#242424"/>
  </g>
</svg>