<svg viewBox="0 0 128 128" xmlns="http://www.w3.org/2000/svg">
  <defs/>
  <path d="M3.83,65.39 L3.83,32.27 C3.83,32.27 11.86,31.58 18.21,35.16 C24.56,38.74 32.19,48.79 35.07,51.1 C37.96,53.41 41.88,57.34 43.85,58.03 C45.81,58.72 48.98,58.84 50.9,59.88 C53.67,61.38 54.71,63.69 54.71,63.69 L56.5,71.26 L6.2,68.08 L3.83,65.39 Z" fill="#A7D0D6"/>
  <path d="M124.2,64.68 L124.2,37.01 C124.2,37.01 119.86,36.66 112.7,43.36 C105.54,50.06 99.76,56.18 96.41,57.34 C93.06,58.5 84.43,58.99 80.93,59.77 C75.73,60.93 72.84,64.74 72.84,64.74 L86.59,68.55 L124.2,64.68 Z" fill="#A7D0D6"/>
  <path d="M124.2,63.68 L124.21,116.67 C124.21,120.82 120.84,124.19 116.69,124.19 L11.38,124.19 C7.23,124.19 3.86,120.82 3.86,116.67 L3.83,64.39 L124.2,63.68 Z" fill="#7DB240"/>
  <path d="M3.84,54.85 L3.85,87.35 C3.85,87.35 8.5,87.45 12.12,87.36 C15.75,87.26 20.23,86.6 20.81,85.36 C21.38,84.12 18.04,67.42 15.94,67.32 C13.84,67.22 10.88,77.25 10.88,77.25 C10.88,77.25 9.09,54.76 3.84,54.85 Z" fill="#528D30"/>
  <path d="M29.97,50.8 C28.54,50.8 23.61,66.09 24.53,67.22 C26.25,69.32 34.65,68.84 35.41,67.12 C35.85,66.15 32.07,50.8 29.97,50.8 Z" fill="#528D30"/>
  <path d="M86.86,67.03 C87.45,68.64 96.12,68.75 96.5,67.03 C96.81,65.63 94.22,51.57 91.92,51.57 C89.92,51.56 86.19,65.21 86.86,67.03 Z" fill="#528D30"/>
  <path d="M109.67,57.48 C108.43,57.4 104.52,65.5 104.9,66.74 C105.28,67.98 111.96,67.79 111.96,67.79 C111.96,67.79 111.29,70.37 112.53,71.23 C113.77,72.09 121.98,72.38 122.84,71.42 C123.7,70.47 120.74,51.66 117.88,51.47 C116.26,51.36 113.39,62.54 113.39,62.54 C113.39,62.54 111.1,57.58 109.67,57.48 Z" fill="#528D30"/>
  <path d="M52.18,64.09 L75.1,63.93 C75.1,63.93 77.44,65.75 77.99,67.24 C78.54,68.73 78.23,69.13 79.4,70.38 C80.57,71.63 82.7,72.87 84.28,75.15 C85.85,77.43 86.18,80.43 87.19,82.09 C89.56,85.99 93.41,88.5 95.05,90.97 C98.35,95.94 97.5,99.73 99.97,104 C102.49,108.35 106.53,109.71 108.39,113.76 C110.86,119.15 109.84,124.18 109.84,124.18 L13.93,124.22 C13.93,124.22 14.01,118.87 16.52,114.55 C19.04,110.23 22.46,109.41 24.58,105.79 C26.7,102.17 25.68,98.55 28.55,94.5 C31.94,89.71 34.5,90.2 36.65,86.64 C37.76,84.8 38.56,81.51 40.95,78.72 C43.78,75.42 45.92,74.78 47.26,72.34 C48.6,69.9 48.52,68.33 49.62,66.37 C50.7,64.42 52.18,64.09 52.18,64.09 Z" fill="#DAD0C5"/>
  <path d="M53.44,66.25 C53.44,66.25 52.92,68.35 53.83,68.51 C54.93,68.7 73.27,68.84 73.9,68.57 C74.55,68.29 74.18,66.71 74.18,66.71 L53.44,66.25 Z" fill="#88857C"/>
  <path d="M49.14,72.8 L49.06,73.7 C49.06,73.7 48.85,74.9 50.64,75.11 C52.09,75.28 74.85,75.17 76.01,75.11 C77.18,75.05 78.41,74.01 78.48,73.29 C78.55,72.57 63.36,70.69 63.36,70.69 L49.14,72.8 Z" fill="#88857C"/>
  <path d="M45.44,80.76 L44.66,81.54 C44.66,81.54 44.34,83.1 45.76,83.55 C46.49,83.78 55.4,83.46 64.45,83.42 C73.1,83.38 82.04,83.57 82.54,83.54 C83.7,83.49 84.25,81.72 83.65,80.82 C83.52,80.62 73.31,77.87 63.73,77.9 C54.28,77.93 45.44,80.76 45.44,80.76 Z" fill="#88857C"/>
  <path d="M38.04,90.1 C38.04,90.1 36.98,91.6 37.98,92.76 C39.22,94.2 54.59,92.95 65.69,93.15 C76.79,93.35 87.17,92.96 88.01,92.76 C88.85,92.57 89.05,90.23 89.05,90.23 L64.39,85.82 L38.04,90.1 Z" fill="#88857C"/>
  <path d="M30.9,102.17 C31.16,102.13 29.73,104.9 31.03,105.93 C32.33,106.96 53.55,106.71 63.8,106.71 C74.05,106.71 92.61,106.19 94.17,105.87 C95.73,105.55 96.64,103.73 96.12,102.69 C95.6,101.65 92.62,100.48 92.62,100.48 L44.79,99.57 C44.79,99.58 30.45,102.24 30.9,102.17 Z" fill="#88857C"/>
  <path d="M24.83,117.23 L19.43,118.92 C19.43,118.92 19.19,122.22 19.87,123.19 C20.44,124.01 21.11,124.23 21.11,124.23 L101.17,124.19 C101.17,124.19 104.3,124.07 105.8,122.2 C107.08,120.6 106.52,118.24 106.52,118.24 L60.49,112.77 L24.83,117.23 Z" fill="#88857C"/>
  <path d="M54.71,64.83 L53.51,64.95 C53.51,64.95 53.38,65.42 53.41,66.18 C53.43,66.73 53.71,66.97 54.04,67.08 C54.37,67.18 74.22,67.18 74.22,67.18 C74.22,67.18 74.49,65.47 74.45,65.04 C74.41,64.61 73.63,63.93 73.63,63.93 L54.71,64.83 Z" fill="#543529"/>
  <path d="M49.92,70.51 C49.92,70.51 49.28,70.92 49.16,72.04 C49.03,73.19 49.32,73.8 50.13,73.84 C50.94,73.88 64.01,73.75 64.01,73.75 C64.01,73.75 77.59,73.58 78.15,73.49 C78.71,73.4 78.79,71.78 78.24,71.27 C77.69,70.77 49.92,70.51 49.92,70.51 Z" fill="#543529"/>
  <path d="M44.73,79.12 C44.73,79.12 44.22,80.9 44.66,81.54 C45.1,82.18 83.02,81.85 83.37,81.78 C83.71,81.71 84.06,80.06 83.51,79.37 C82.96,78.68 62.95,78.06 62.95,78.06 L44.73,79.12 Z" fill="#543529"/>
  <path d="M38.02,89.21 C37.96,89.2 37.7,90 37.79,90.58 C37.94,91.47 38.26,91.88 39.36,91.81 C40.75,91.73 54.52,91.64 65.04,91.71 C75.56,91.78 88.04,91.26 88.59,91.05 C89.14,90.84 89.49,89.4 89.03,88.58 C88.65,87.9 63.98,87.06 63.98,87.06 L38.02,89.21 Z" fill="#543529"/>
  <path d="M31.73,98.49 C31.73,98.49 30.35,101.1 30.63,102.89 C30.91,104.68 31.73,104.54 33.59,104.54 C35.45,104.54 54.83,104.47 64.94,104.54 C75.05,104.61 92.72,104.4 94.02,104.33 C95.32,104.26 95.89,102.54 95.81,101.51 C95.6,99.02 93.61,96.63 93.61,96.63 L31.73,98.49 Z" fill="#543529"/>
  <path d="M98.97,113.69 L104.47,115.59 C104.47,115.59 106.26,117.15 106.49,118.09 C106.72,119.03 106.02,120.63 105.22,121 C104.42,121.38 61.21,121.33 61.21,121.33 C61.21,121.33 21.62,121.63 21.03,121.48 C20.43,121.33 19.61,120.49 19.42,119.42 C19.23,118.35 19.83,117.15 20.21,116.41 C20.58,115.66 29.92,113.72 29.92,113.72 L98.97,113.69 Z" fill="#543529"/>
  <path d="M25.62,109.73 C24.65,110.1 20.88,115.34 20.21,116.39 C19.54,117.44 20.88,118.33 22.08,118.33 C23.28,118.33 106.17,118.44 106.36,117.94 C106.7,117.04 104.82,115.11 103.25,113.2 C100.91,110.38 99.7,109.16 99.7,109.16 L25.62,109.73 Z" fill="#B88956"/>
  <path d="M34.4,95.85 C33.68,96.03 32.55,96.92 31.73,98.49 C30.91,100.06 31.94,101.44 31.94,101.44 L94.25,101.4 C94.25,101.4 95.77,99.97 94.43,97.73 C93.09,95.49 92.01,95.4 92.01,95.4 L34.4,95.85 Z" fill="#B88956"/>
  <path d="M41.31,85.41 C40.38,85.67 37.97,88.98 37.96,89.21 C37.92,89.75 88.82,89.41 89.14,89.07 C89.46,88.73 87.11,85.14 85.93,84.86 C85.26,84.7 42.56,85.06 41.31,85.41 Z" fill="#B88956"/>
  <path d="M46.84,76.57 C46.41,76.66 44.15,78.92 44.84,79.54 C45.17,79.84 54.92,79.73 64.11,79.68 C74.08,79.63 83.7,79.9 83.67,79.67 C83.61,79.21 81.66,76.92 80.97,76.57 C80.27,76.22 47.87,76.36 46.84,76.57 Z" fill="#B88956"/>
  <path d="M50.93,69.32 C50.51,69.43 49.18,71.13 49.34,71.44 C49.5,71.75 78.28,71.85 78.48,71.61 C78.65,71.41 77.23,69.44 76.77,69.36 C76.29,69.28 51.36,69.21 50.93,69.32 Z" fill="#B88956"/>
  <path d="M53.5,64.96 C53.5,65.15 74.47,65.32 74.47,65.04 C74.47,64.75 74.12,63.72 73.61,63.64 C73.1,63.56 55.44,63.52 54.47,63.72 C53.96,63.82 53.5,64.77 53.5,64.96 Z" fill="#B88956"/>
  <path d="M61.47,65.58 L39.87,123.87 L34.89,123.79 L33.03,121.93 L58.21,63.93 L61.22,63.42 C61.22,63.44 61.89,64.2 61.47,65.58 Z" fill="#88857C"/>
  <path d="M88.47,122.16 C88.47,122.16 66.12,65.87 66,65.31 C65.84,64.6 66.08,63.73 66.36,63.5 C66.63,63.27 69.2,63.72 69.2,63.72 L95.81,121.85 L96.72,124 L88.25,123.89 L88.47,122.16 Z" fill="#88857C"/>
  <path d="M34.33,121.84 C34.64,120.71 58.06,63.74 58.37,63.28 C58.8,62.65 61.43,63.04 61.27,63.55 C61.11,64.06 38.9,121.24 38.48,122.14 C38.06,123.04 37.5,123.33 36.04,123.33 C34.58,123.33 34,123 34.33,121.84 Z" fill="#C8C9C6"/>
  <path d="M90.96,122.56 C90.19,121.02 66.27,63.92 66.37,63.51 C66.46,63.13 68.58,62.91 69.1,63.51 C69.65,64.16 94.82,121.84 94.98,122.11 C95.14,122.39 95.04,123.68 93.28,123.68 C91.51,123.68 90.96,122.56 90.96,122.56 Z" fill="#C8C9C6"/>
</svg>