<svg viewBox="0 0 128 128" xmlns="http://www.w3.org/2000/svg">
  <defs/>
  <path d="M27.85,109.64 L8.85,109.64 C8.85,109.64 3.77,54.94 8.85,54.94 C13.93,54.94 23.84,59.06 23.84,59.06 C26.25,59.95 27.85,62.24 27.85,64.81 L27.85,109.64 Z" fill="#A65F3E"/>
  <path d="M121.91,105.43 L12.98,105.43 L12.98,58.99 C12.98,56.75 11.16,54.93 8.92,54.93 C6.68,54.93 4.86,56.75 4.86,58.99 L4.86,123.89 L10.86,123.89 L15.66,114.31 L112.36,114.31 L117.16,123.89 L123.16,123.89 L123.16,106.67 C123.15,105.99 122.6,105.43 121.91,105.43 Z" fill="#C87D5E"/>
  <path d="M13.75,95.99 L23.03,95.99 L23.03,83.08 C20.37,82.91 17.66,83.54 15.5,85.08 C12.11,87.51 13.01,91.86 12.98,95.54 C12.98,95.54 13.28,95.72 13.75,95.99 Z" fill="#784D30"/>
  <path d="M120.46,108.37 L16.29,108.47 C14.8,108.47 13.38,107.69 13.38,106.15 C13.38,106.15 119.91,105.38 121.12,105.38 C122.33,105.38 123.14,105.43 123.14,106.55 C123.14,107.65 122.98,108.37 120.46,108.37 Z" fill="#784D30"/>
  <path d="M110.47,106.94 L14.86,107.04 C13.37,107.04 12.98,105.59 12.98,103.93 L12.98,96.02 C12.98,94.87 13.82,93.93 14.85,93.93 L109.58,93.93 C111.56,93.93 113.17,95.72 113.17,97.93 L113.17,103.93 C113.16,105.59 111.96,106.94 110.47,106.94 Z" fill="#E0F7FA"/>
  <path d="M112.35,114.31 L117.15,114.31 L117.15,121.66 L117.15,123.89 Z" fill="#784D30"/>
  <path d="M15.65,114.31 L10.85,114.31 L10.85,121.66 L10.85,123.89 Z" fill="#784D30"/>
  <path d="M27.33,93.95 C15.97,93.95 13.95,87.99 13.95,87.99 C13.95,87.99 17.5,81.42 27.06,81.42 C36.62,81.42 41.58,87.3 41.87,89.26 C42.49,93.48 38.69,93.95 27.33,93.95 Z" fill="#E0F7FA"/>
  <path d="M13.95,87.99 C14.75,89.91 17.76,93.95 27.33,93.95 C31.98,93.95 34,93.95 34,93.95 L38.35,88.42 C38.35,88.42 35.44,89.89 27.07,90.13 C21.38,90.29 16.46,89.37 13.95,87.99 Z" fill="#94D1E0"/>
  <path d="M118.89,107.04 C121.79,107.04 123.45,104.21 122.81,101.02 C120.7,90.47 117.63,84.94 109.55,84.94 L53.72,84.94 C45.81,84.94 38.89,88.94 36.91,96.94 C35.94,100.84 35.64,103.69 35.73,107.04 L118.89,107.04 Z" fill="#3DAAE0"/>
  <path d="M120.42,107.59 C123.07,107.59 123.14,105.32 122.87,102.94 C121.96,94.94 115.22,93.53 111.63,93.53 L44.8,93.53 C44.8,93.53 43.31,95.74 42.62,100.56 C41.94,105.38 42.66,107.59 42.66,107.59 L120.42,107.59 Z" fill="#188AD6"/>
  <path d="M44.78,96.94 C46.78,88.94 53.78,84.94 61.78,84.94 L49.78,84.94 C41.78,84.94 34.78,88.94 32.78,96.94 C31.35,102.65 42.78,104.94 44.78,96.94 Z" fill="#B0E0FF"/>
  <path d="M43.77,107.59 C43.75,103.82 44.14,95.74 47.35,91.51 C47.35,91.51 44.27,90.92 40.75,90.91 C36.59,90.91 35.37,91.29 35.37,91.29 C33.97,93.07 33.41,94.44 32.79,96.94 C32.3,98.88 31.97,101.85 31.8,105.43 C31.75,106.6 32.69,107.58 33.86,107.58 L43.77,107.58 Z" fill="#7DBBE3"/>
</svg>