<svg viewBox="0 0 128 128" xmlns="http://www.w3.org/2000/svg">
  <defs/>
  <path d="M49.24,24.95 L50.94,16.42 C52.07,10.83 52.74,6.92 55.84,5.1 C57.88,3.91 60.19,3.68 62.53,4.44 C68.44,6.35 68.95,17.47 69.53,32.3 L65.19,29.16 C64.89,18.38 64.79,9.59 61.24,8.44 C60.03,8.05 58.96,8.15 57.96,8.73 C55.95,9.91 55.93,12.93 55.06,17.25 L53.36,25.77 L49.24,24.95 Z" fill="#78909C"/>
  <path d="M116.92,115.53 C116.92,115.53 116.59,116.59 114.82,116.59 C113.05,116.59 112.72,115.53 112.72,115.53 L112.72,103.98 L116.92,106.07 L116.92,115.53 Z" fill="#78909C"/>
  <path d="M64.74,113.86 C64.74,113.86 64.19,115.1 62.64,115.1 C61.09,115.1 60.54,113.86 60.54,113.86 L60.54,94.01 L64.74,99.89 L64.74,113.86 Z" fill="#78909C"/>
  <path d="M89.84,113.55 L117.9,106.52 C117.9,106.52 117.12,104.37 115.69,103.97 L86.76,111.54 L89.84,113.55 Z" fill="#82AEC0"/>
  <path d="M87.49,122.94 C87.49,122.94 87.16,124 85.39,124 C83.62,124 83.29,122.94 83.29,122.94 L83.29,111.92 L87.49,114.01 L87.49,122.94 Z" fill="#78909C"/>
  <path d="M119.23,106.15 L118.9,97.66 C118.9,95.67 117.82,94.66 116.57,93.95 C115.32,93.24 112.53,92.55 112.53,92.55 C104.18,89.66 99.77,84.72 96.87,76.07 C94.66,69.48 86.34,46.6 81.5,34.56 C79.15,28.7 74.98,24.37 69.75,22.35 C65.75,20.81 55.6,19.28 54.47,19.04 L50.35,19.37 L48.76,27.35 C52.74,28.17 63.82,30.4 66.28,31.35 C68.98,32.39 71.2,34.81 72.55,38.15 C77.33,50.05 85.55,72.63 87.72,79.13 C91.66,90.89 99.48,98.46 111.01,101.64 L116.03,103.46 L116.11,107.03 L119.23,106.15 Z" fill="#82AEC0"/>
  <path d="M116.77,98.63 C116.67,96.73 115.38,95.1 113.55,94.57 L110.6,93.57 C102.25,90.68 97.84,85.79 94.94,77.14 C92.73,70.55 84.41,47.67 79.57,35.63 C77.22,29.77 73.05,25.44 67.82,23.42 C63.82,21.88 51.48,19.6 50.34,19.36 L48.52,28.52 C52.5,29.34 61.89,31.47 64.35,32.41 C67.05,33.45 69.27,35.87 70.62,39.21 C75.4,51.11 83.62,73.69 85.79,80.19 C89.73,91.95 97.55,99.52 109.08,102.7 L116.91,103.97 L116.77,98.63 Z" fill="#2F7889"/>
  <path d="M60.54,94.01 L60.54,100.49 C61.78,102.44 63.18,104.2 64.74,105.79 L64.74,99.89 L60.54,94.01 Z" fill="#546E7A"/>
  <path d="M83.29,111.92 L83.29,115.28 L87.49,116.34 L87.49,114.02 Z" fill="#546E7A"/>
  <path d="M73.72,105.52 C73.94,105.19 95.68,99.15 95.68,99.15 C96.97,98.85 98.31,99.02 99.48,99.65 C101.14,100.54 104.57,101.69 108.73,102.94 C109.42,103.15 109.4,104.13 108.71,104.32 L85.99,110.77 L73.72,105.52 Z" fill="#B9E4EA"/>
  <path d="M41.23,86.23 C41.23,86.23 40.99,87.21 39.31,87.33 C37.4,87.47 36.91,86.45 37.06,85.69 L48.46,27.55 L52.58,28.37 L41.23,86.23 Z" fill="#78909C"/>
  <path d="M46.96,39.69 L20.3,46.32 L19.71,49.3 L46.24,42.7 C46.24,42.7 47.89,42.45 48.09,41.18 C48.26,40.05 47.56,39.52 46.96,39.69 Z" fill="#78909C"/>
  <path d="M44.72,51.66 L17.94,58.32 L17.35,61.3 L44,54.67 C44,54.67 45.65,54.42 45.85,53.15 C46.03,52.02 45.32,51.5 44.72,51.66 Z" fill="#78909C"/>
  <path d="M42.49,63.63 L15.59,70.31 L15,73.29 L41.77,66.63 C41.77,66.63 43.42,66.38 43.62,65.11 C43.79,63.99 43.09,63.47 42.49,63.63 Z" fill="#78909C"/>
  <path d="M40.25,75.6 L13.22,82.31 L12.63,85.29 L39.53,78.61 C39.53,78.61 41.18,78.36 41.38,77.09 C41.56,75.97 40.85,75.44 40.25,75.6 Z" fill="#78909C"/>
  <path d="M46.04,39.92 L28.54,44.33 C29.97,44.71 31.17,45.06 31.89,45.34 C32.41,45.54 32.93,45.74 33.43,45.94 L45.45,42.89 L43.68,51.92 L39.59,52.94 C39.9,53.77 40.22,54.63 40.55,55.53 L43.09,54.89 L42.26,59.17 C43.15,61.61 44.08,64.22 45.02,66.89 L52.57,28.38 L48.45,27.56 L46.04,39.92 Z" fill="#546E7A"/>
  <path d="M87.5,111.65 C87.5,111.65 77.79,112.02 69.22,103.45 C59.35,93.58 42.74,45.3 37.83,42.53 C30.14,38.19 23.51,33.83 23.51,33.83 L48.2,27.55 C48.2,27.55 58.65,29.1 64.62,31.62 C66.11,32.25 68.99,33.64 71.49,40.06 C75.6,50.64 81.52,68.18 86.72,80.22 C89.72,87.17 92.2,91.61 94.7,93.54 C105.82,102.1 116.76,103.98 116.76,103.98 L87.5,111.65 Z" fill="#94D1E0"/>
  <path d="M97.13,95.33 C96.78,95.07 95.2,93.82 94.85,93.55 C92.35,91.63 89.88,87.18 86.87,80.23 C81.67,68.2 75.75,50.65 71.64,40.07 C70.92,38.21 70.03,36.82 69.28,35.7 L44.24,42.04 L66.7,100.12 C67.4,101.14 68.07,102.02 68.73,102.76 L97.13,95.33 Z" fill="#66B7C4"/>
  <path d="M90.14,113.44 L89.82,104.95 C89.76,103.24 88.54,101.78 86.87,101.41 L84.59,100.9 C76.28,98.61 70.83,94.26 67.93,85.61 C65.72,79.01 57.4,56.13 52.56,44.1 C50.21,38.24 46.04,33.91 40.81,31.89 C36.81,30.35 26.81,28.27 25.56,28.01 L22.19,28.53 L22.52,37.22 C26.95,38.14 34.89,39.94 37.34,40.89 C40.04,41.93 42.26,44.35 43.61,47.69 C48.39,59.58 56.61,82.16 58.78,88.67 C62.72,100.43 70.54,108 82.07,111.17 L87.46,112.03 L87.54,114.2 L90.14,113.44 Z" fill="#B0F2F7"/>
  <path d="M87.25,107.27 C87.17,105.31 85.82,103.62 83.92,103.12 L82.3,102.69 C73.99,100.4 68.54,95.08 65.64,86.43 C63.43,79.83 55.11,56.95 50.27,44.92 C47.92,39.06 43.75,34.73 38.52,32.71 C34.52,31.17 23.44,28.85 22.18,28.59 L20.22,38.03 C24.65,38.95 32.59,40.75 35.04,41.7 C37.74,42.74 40.32,43.65 41.09,45.61 C45.81,57.52 54.3,82.98 56.48,89.48 C60.42,101.24 68.24,108.81 79.77,111.98 L87.53,114.18 L87.25,107.27 Z" fill="#94D1E0"/>
  <path d="M12.98,93.47 C12.98,93.47 12.7,94.54 10.85,94.67 C10.3,94.71 9.87,94.62 9.55,94.48 C8.97,94.24 8.68,93.58 8.8,92.97 L21.97,25.56 C23.1,19.97 23.77,16.06 26.87,14.24 C28.91,13.05 31.22,12.82 33.56,13.58 C39.72,15.57 40.16,30.11 40.79,45.99 C40.79,45.99 39.28,46.36 38.1,45.76 C36.92,45.16 36.91,43.87 36.91,43.87 C36.42,32.03 36.38,18.91 32.27,17.58 C31.06,17.19 29.99,17.29 28.99,17.87 C26.98,19.05 26.96,22.07 26.09,26.39 L12.98,93.47 Z" fill="#78909C"/>
  <path d="M112.79,107.81 L112.79,109.66 L116.92,108.77 L116.92,106.8 Z" fill="#546E7A"/>
  <path d="M25.45,18.79 C24.97,18.55 24.97,17.78 25.21,17.32 C26.07,15.69 27.81,14.64 29.64,14.46 C30.54,14.37 30.69,14.56 30.81,14.89 C30.98,15.37 30.46,15.71 29.96,15.84 C28.49,16.25 27.41,17.12 26.86,18.19 C26.49,18.92 25.93,19.03 25.45,18.79 Z" fill="#CFD8DC"/>
</svg>