<svg viewBox="0 0 128 128" xmlns="http://www.w3.org/2000/svg">
  <defs/>
  <path d="M114.11,70.76 C112.31,44.78 94.44,26.3 64,26.3 C33.56,26.3 15.69,44.78 13.89,70.76 C12.84,85.9 18.94,98.77 30.98,106.97 C30.98,106.97 43.19,116.85 64,117.11 C84.81,116.85 97.02,106.97 97.02,106.97 C109.05,98.77 115.16,85.9 114.11,70.76 Z" fill="#FFC022"/>
  <path d="M110.47,59.02 C119.98,34.19 114.12,15.19 110.76,9.74 C109.43,7.58 106.87,6.98 104.51,7.72 C98.29,9.68 81.5,23.4 74.08,42.6" fill="#FFC022"/>
  <path d="M92.16,36.23 C90.62,34.94 90.66,32.86 91.56,31.07 C93.72,26.76 98.89,22.29 100.72,20.84 C103.72,18.46 106.04,17.66 106.93,21.49 C108.58,28.57 108.45,38.18 106.68,43.48 C106.06,45.35 104.14,46.34 102.66,45.05 L92.16,36.23 Z" fill="#FFD1D1"/>
  <path d="M17.53,59.02 C8.02,34.19 13.88,15.19 17.24,9.74 C18.57,7.58 21.13,6.98 23.49,7.72 C29.71,9.68 46.5,23.4 53.92,42.6" fill="#FFC022"/>
  <path d="M35.84,36.23 C37.38,34.94 37.34,32.86 36.44,31.07 C34.28,26.76 29.11,22.29 27.28,20.84 C24.28,18.46 21.96,17.66 21.07,21.49 C19.42,28.57 19.55,38.18 21.32,43.48 C21.94,45.35 23.86,46.34 25.34,45.05 L35.84,36.23 Z" fill="#FFD1D1"/>
  <path d="M54.12,45.02 C55.25,45.98 57.54,45.84 58.87,44.3 C60.48,42.43 62.16,36.13 61.11,26.39 C56.44,26.56 52.02,27.23 47.9,28.36 C51.23,33.82 52.03,43.24 54.12,45.02 Z" fill="#FF7043" opacity="0.47"/>
  <path d="M73.88,45.02 C72.75,45.98 70.46,45.84 69.13,44.3 C67.52,42.43 65.84,36.13 66.89,26.39 C71.56,26.56 75.98,27.23 80.1,28.36 C76.77,33.82 75.97,43.24 73.88,45.02 Z" fill="#FF7043" opacity="0.47"/>
  <path d="M6.753,65.755 L23.673,74.095 Q25.019,74.758 24.355,76.103 Q24.024,76.776 23.522,76.946 Q23.02,77.117 22.347,76.785 L5.427,68.445 Q4.081,67.782 4.745,66.437 Q5.076,65.764 5.578,65.594 Q6.08,65.423 6.753,65.755 Z" fill="#9E9E9E"/>
  <path d="M4.247,77.822 L22.397,80.982 Q23.136,81.111 23.441,81.545 Q23.746,81.978 23.618,82.717 Q23.36,84.195 21.883,83.938 L3.733,80.778 Q2.994,80.649 2.689,80.215 Q2.384,79.782 2.512,79.043 Q2.77,77.565 4.247,77.822 Z" fill="#9E9E9E"/>
  <path d="M5.606,94.02 L22.526,88.25 Q23.946,87.766 24.43,89.186 Q24.672,89.896 24.438,90.372 Q24.204,90.848 23.494,91.09 L6.574,96.86 Q5.154,97.344 4.67,95.924 Q4.428,95.214 4.662,94.738 Q4.896,94.262 5.606,94.02 Z" fill="#9E9E9E"/>
  <path d="M122.573,68.445 L105.653,76.785 Q104.308,77.449 103.645,76.103 Q102.981,74.758 104.327,74.095 L121.247,65.755 Q122.592,65.091 123.255,66.437 Q123.919,67.782 122.573,68.445 Z" fill="#9E9E9E"/>
  <path d="M124.267,80.778 L106.117,83.938 Q104.64,84.195 104.382,82.717 Q104.125,81.24 105.603,80.982 L123.753,77.822 Q125.23,77.565 125.488,79.043 Q125.745,80.52 124.267,80.778 Z" fill="#9E9E9E"/>
  <path d="M121.426,96.86 L104.506,91.09 Q103.086,90.606 103.57,89.186 Q104.054,87.766 105.474,88.25 L122.394,94.02 Q123.814,94.504 123.33,95.924 Q122.846,97.344 121.426,96.86 Z" fill="#9E9E9E"/>
  <path d="M55.96,77.19 C55.91,74.33 60.02,72.95 63.91,72.89 C67.8,72.82 71.98,74.09 72.03,76.95 C72.08,79.81 67.17,83.59 64.08,83.59 C60.99,83.59 56.01,80.05 55.96,77.19 Z"/>
  <path d="M71.89,88.35 C71.99,88.37 72.09,88.39 72.2,88.41 C73.5,88.65 74.7,88.85 75.9,89.51 C76.06,89.6 76.24,89.71 76.3,89.9 C76.37,90.09 76.3,90.31 76.23,90.5 C75.8,91.53 75,92.3 74.2,93 C71.04,95.72 67.2,97.78 63.22,97.54 C59.78,97.34 56.46,95.33 54.42,92.23 C54.32,92.08 54.23,91.92 54.22,91.74 C54.21,91.55 54.3,91.37 54.4,91.22 C54.99,90.33 55.98,89.93 56.87,89.46 C58.42,88.66 59.84,87.55 61.05,86.2 C61.61,85.58 62.14,84.9 62.87,84.56 C64.16,83.96 64.68,85.03 65.57,85.73 C66.57,86.51 67.84,87.15 69.02,87.49 C69.98,87.76 70.94,88.14 71.89,88.35 Z" fill="#EF7F9D"/>
  <path d="M78.879,89.661 Q77.651,92.281 75.29,94.852 Q70.399,100.177 64.27,100.177 Q58.371,100.177 53.394,94.865 Q51,92.311 49.686,89.712 L53.054,88.008 Q54.125,90.124 56.149,92.285 Q60.007,96.403 64.27,96.403 Q68.741,96.403 72.51,92.298 Q74.479,90.154 75.461,88.059 Z" fill="#000000"/>
  <path d="M42.316,83.601 Q43.114,84.573 44.825,85.627 Q48.335,87.79 52.7,87.79 Q57.583,87.79 60.578,83.42 Q62.159,81.111 62.682,78.858 Q63.133,76.91 65.082,77.362 Q67.03,77.813 66.578,79.762 Q65.886,82.749 63.877,85.68 Q59.692,91.79 52.7,91.79 Q47.202,91.79 42.727,89.033 Q40.446,87.627 39.224,86.139 Q38.59,85.366 38.659,84.663 Q38.728,83.959 39.501,83.324 Q41.046,82.055 42.316,83.601 Z" fill="#000000"/>
  <path d="M88.776,86.139 Q87.554,87.627 85.273,89.033 Q80.798,91.79 75.3,91.79 Q68.313,91.79 64.128,85.688 Q62.119,82.76 61.422,79.763 L61.422,79.762 Q60.97,77.813 62.918,77.362 Q63.892,77.136 64.492,77.51 Q65.092,77.884 65.318,78.857 L65.318,78.858 Q65.845,81.12 67.426,83.425 Q70.42,87.79 75.3,87.79 Q79.665,87.79 83.175,85.627 Q84.886,84.573 85.684,83.601 Q86.954,82.055 88.499,83.324 Q90.045,84.594 88.776,86.139 Z" fill="#000000"/>
  <path d="M103.96,43.02 C96.58,40.95 91.15,46.99 91.15,46.99 C91.15,46.99 90.52,40.14 84.21,37.97 C76.63,35.37 68.63,39.51 68.16,50.23 C67.62,62.49 83.79,78.53 83.79,78.53 C83.79,78.53 103.87,73.14 110.45,61.69 C115.81,52.38 109.55,44.59 103.96,43.02 Z" fill="#D93D8E"/>
  <path d="M103.96,43.02 C103.96,43.02 102.14,42.53 101.18,42.64 C101.18,42.64 105.29,45.18 107.22,49.79 C108.5,52.83 108.83,56.78 106.42,61.5 C101.19,71.73 85.09,78.06 83.89,78.5 C85.36,78.09 104.13,72.69 110.45,61.68 C115.81,52.38 109.55,44.59 103.96,43.02 Z" fill="#AD236B"/>
  <path d="M91.14,48.11 C91.09,47.03 90.89,45.95 90.73,45.32 C89.95,42.16 88.59,40.45 86.26,38.98 C83.93,37.5 81.06,37.22 81.06,37.22 C81.06,37.22 83.78,38.04 85.68,41.78 C86.68,43.74 87.2,45.93 87.35,48.13 C87.4,48.92 87.42,49.75 87.78,50.46 C88.14,51.17 88.94,51.74 89.71,51.52 C90.94,51.17 91.21,49.63 91.14,48.11 Z" fill="#AD236B"/>
  <path d="M73.66,43.8 C75.34,41.71 78.1,39.72 80.74,41.56 C82.15,42.54 82.16,45.32 80.45,46.57 C77.55,48.69 77.42,50.09 77.09,51.25 C76.7,52.65 76.44,54.31 75.17,55.02 C73.9,55.73 72.79,54.98 72.12,53.01 C71.98,52.6 70.24,48.06 73.66,43.8 Z" fill="#F48FB1"/>
  <path d="M43.8,37.81 C36.51,40.18 35.34,48.21 35.34,48.21 C35.34,48.21 31.02,42.85 24.57,44.55 C16.82,46.59 12.46,54.47 18.01,63.66 C24.36,74.17 46.71,78.55 46.71,78.55 C46.71,78.55 60.43,62.93 59.56,49.75 C58.85,39.03 49.32,36.02 43.8,37.81 Z" fill="#D93D8E"/>
  <path d="M43.8,37.81 C43.8,37.81 42.01,38.41 41.28,39.04 C41.28,39.04 46.1,38.87 50.27,41.64 C53.02,43.46 55.48,46.56 56.09,51.83 C57.41,63.24 47.52,77.44 46.76,78.47 C47.75,77.32 60.38,62.42 59.55,49.75 C58.85,39.03 49.32,36.02 43.8,37.81 Z" fill="#AD236B"/>
  <path d="M35.96,49.15 C35.32,48.27 34.55,47.49 34.07,47.05 C31.67,44.85 29.59,44.19 26.84,44.25 C24.08,44.31 21.53,45.67 21.53,45.67 C21.53,45.67 24.25,44.85 27.9,46.9 C29.82,47.98 31.46,49.51 32.81,51.26 C33.3,51.89 33.77,52.57 34.46,52.96 C35.15,53.36 36.13,53.38 36.65,52.78 C37.48,51.81 36.85,50.38 35.96,49.15 Z" fill="#AD236B"/>
  <path d="M19.05,55.26 C19.08,54.53 19.21,53.79 19.45,53.04 C19.9,51.64 20.84,50.14 22.32,49.68 C23.7,49.25 25.61,49.55 26.34,50.93 C27,52.15 26.52,53.64 26.16,54.98 C25.73,56.6 25.75,58.09 25.62,59.69 C25.52,60.96 24.64,62.1 23.3,62.06 C22.07,62.02 21.12,61 20.44,59.97 C19.46,58.48 18.99,56.9 19.05,55.26 Z" fill="#F48FB1"/>
</svg>