<svg viewBox="0 0 128 128" xmlns="http://www.w3.org/2000/svg">
  <defs>
    <radialGradient id="face_1_" cx="63.6" cy="62.9" gradientUnits="userSpaceOnUse" r="56.9597">
      <stop offset="0.5" stop-color="#FDE030"/>
      <stop offset="0.92" stop-color="#F7C02B"/>
      <stop offset="1" stop-color="#F4A223"/>
    </radialGradient>
    <radialGradient id="SVGID_1_" cx="20.59" cy="-40.874221" gradientTransform="matrix(1 0 0 -1.54 0 0)" gradientUnits="userSpaceOnUse" r="33.4">
      <stop offset="0.46" stop-color="#29B6F6"/>
      <stop offset="1" stop-color="#1E88E5"/>
    </radialGradient>
    <linearGradient id="effect_1_" gradientUnits="userSpaceOnUse" x1="63.6" x2="63.6" y1="118.8" y2="7">
      <stop offset="0.39" stop-color="#40C0E7" stop-opacity="0"/>
      <stop offset="1" stop-color="#5F7AFF"/>
    </linearGradient>
  </defs>
  <path id="face" d="M63.6,118.8 C35.7,118.8 5.6,101.3 5.6,62.9 C5.6,24.5 35.7,7 63.6,7 C79.1,7 93.4,12.1 104,21.4 C115.5,31.6 121.6,46 121.6,62.9 C121.6,79.8 115.5,94.1 104,104.3 C93.4,113.6 79,118.8 63.6,118.8 Z" fill="url(#face_1_)"/>
  <path d="M111.49,29.67 C116.82,38.27 119.6,48.51 119.6,59.9 C119.6,76.8 113.5,91.1 102,101.3 C91.4,110.6 77,115.8 61.6,115.8 C43.54,115.8 24.6,108.45 13.42,92.86 C24.18,110.52 44.42,118.8 63.6,118.8 C79,118.8 93.4,113.6 104,104.3 C115.5,94.1 121.6,79.8 121.6,62.9 C121.6,50.16 118.13,38.84 111.49,29.67 Z" fill="#EB8F00"/>
  <path id="effect" d="M63.6,118.8 C35.7,118.8 5.6,101.3 5.6,62.9 C5.6,24.5 35.7,7 63.6,7 C79.1,7 93.4,12.1 104,21.4 C115.5,31.6 121.6,46 121.6,62.9 C121.6,79.8 115.5,94.1 104,104.3 C93.4,113.6 79,118.8 63.6,118.8 Z" fill="url(#effect_1_)"/>
  <path id="mouth" d="M64,99.9 C67.85,99.9 71.67,100.56 75.3,101.83 C83,104.52 89.67,95.83 85.2,89.03 C80.54,82 73.29,80 64,80 C54.71,80 47.47,81.91 42.81,89 C38.33,95.81 45.01,104.48 52.71,101.8 C56.34,100.53 60.16,99.89 64,99.9 Z" fill="#422B0D"/>
  <path d="M19.52,107 C11.06,107 4.52,98.79 4.52,91.76 C4.52,86.82 6.73,81.09 9.86,73.15 C10.25,71.98 10.77,70.8 11.29,69.5 C12.78,65.78 14.09,61.75 16.09,58.26 C17.04,56.56 19.19,55.96 20.88,56.91 C21.44,57.23 21.91,57.69 22.23,58.26 C24.09,61.69 25.37,65.4 27.3,69.73 C32.77,81.97 34.3,86.92 34.3,91.86 C34.49,98.83 27.85,107 19.52,107 Z" fill="url(#SVGID_1_)"/>
  <path d="M28.67,97.65 C26.76,100.65 22.42,100.05 22.42,95.14 C22.42,92 23.06,75.88 25.76,78.14 C30.14,81.81 31.39,93.47 28.67,97.65 Z" fill="#81D4FA"/>
  <path d="M27.39,39.77 C25.19,40.16 25.08,43.36 27.48,43.47 C32.78,43.55 37.9,41.59 41.8,38 C43.28,36.72 44.54,35.21 45.51,33.51 C46.09,32.68 45.89,31.54 45.07,30.95 C44.25,30.36 43.1,30.57 42.51,31.39 L42.41,31.49 C38.48,35.88 33.19,38.79 27.39,39.77 Z" fill="#422B0D"/>
  <path d="M86.12,31.52 L86.02,31.42 C85.44,30.59 84.29,30.39 83.46,30.97 C82.63,31.55 82.43,32.7 83.02,33.53 C84,35.22 85.26,36.73 86.75,38 C90.65,41.59 95.77,43.54 101.07,43.45 C103.47,43.34 103.36,40.14 101.15,39.75 C95.35,38.78 90.06,35.88 86.12,31.52 Z" fill="#422B0D"/>
  <path d="M44,49.94 L44,49.94 C39.81,49.94 36,53.48 36,59.36 C36,65.24 39.81,68.77 44,68.77 L44,68.77 C48.2,68.77 52,65.23 52,59.36 C52,53.49 48.24,49.94 44,49.94 Z" fill="#422B0D"/>
  <path d="M43.65,53.87 L43.65,53.87 C42.23,53.19 40.52,53.79 39.83,55.21 C39.3,56.32 39.54,57.65 40.43,58.51 L40.43,58.51 C41.85,59.19 43.56,58.59 44.25,57.17 C44.78,56.06 44.54,54.73 43.65,53.87 Z" fill="#896024"/>
  <path d="M82.4,49.94 L82.4,49.94 C78.21,49.94 74.4,53.48 74.4,59.36 C74.4,65.24 78.21,68.77 82.4,68.77 L82.4,68.77 C86.59,68.77 90.4,65.23 90.4,59.36 C90.4,53.49 86.59,49.94 82.4,49.94 Z" fill="#422B0D"/>
  <path d="M82,53.87 L82,53.87 C80.58,53.19 78.87,53.79 78.18,55.21 C77.65,56.32 77.89,57.65 78.78,58.51 L78.78,58.51 C80.2,59.19 81.91,58.59 82.6,57.17 C83.13,56.06 82.89,54.73 82,53.87 Z" fill="#896024"/>
</svg>