<svg viewBox="0 0 128 128" xmlns="http://www.w3.org/2000/svg">
  <defs/>
  <path d="M108.16,61.56 C108.16,84.93 95.59,103.45 64.59,103.36 C31.57,103.26 20.81,88.14 20.61,63.29 C20.42,39.92 34.51,18.24 63.63,18.24 C90.97,18.24 108.16,38.19 108.16,61.56 Z" fill="#B6885A"/>
  <path d="M63.68,44.31 C71.14,44.08 79.22,33.84 88.18,42.03 C96.4,49.54 89.9,56.49 90.11,63.59 C90.28,69.47 96.08,73.73 91.43,82.66 C87.68,89.86 77.02,94.97 64.24,94.73 C47.8,94.43 37.74,89.56 35,81.44 C32.33,73.53 38.07,69.16 37.76,63.08 C37.46,56.99 30.98,47.69 39.41,41.57 C50.87,33.25 55.76,44.56 63.68,44.31 Z" fill="#FFCD88"/>
  <path d="M55.75,57.5 C56.2,61.95 53.74,64.93 50.75,65.23 C47.76,65.53 45.04,62.86 44.67,59.26 C44.3,55.66 45.79,52.15 49.59,51.85 C52.59,51.61 55.32,53.28 55.75,57.5 Z" fill="#393531"/>
  <path d="M82.23,57.99 C82.1,63.11 78.93,64.75 76.1,64.54 C73.27,64.33 71.38,61.16 71.63,57.79 C71.88,54.41 74.14,51.21 77.72,51.55 C80.55,51.82 82.33,54.03 82.23,57.99 Z" fill="#393531"/>
  <path d="M64.1,64.29 C67.98,64.37 69.4,64.37 69.27,66.31 C69.19,67.53 66.68,69.96 64.25,70 C62.2,70.04 59.15,67.98 58.96,66.2 C58.75,64.18 60.29,64.21 64.1,64.29 Z" fill="#393531"/>
  <path d="M63.52,72.87 C80.11,73.07 82.94,75.66 82.8,78.4 C82.6,82.26 76,86.87 63.98,86.77 C51.4,86.66 45.06,82.36 44.91,78.65 C44.76,75 53.18,72.75 63.52,72.87 Z" fill="#FF6B17"/>
  <path d="M10.57,68.15 C10.64,64.5 7.91,61.49 8.85,55.27 C9.97,47.86 15.44,44.11 20.21,44.01 C24.98,43.91 27.82,53.85 27.82,53.85 L27.11,78 L23.46,77.9 C23.46,77.9 17.98,85.16 16.87,87.13 C15.74,89.12 13.83,94.27 17.99,94.64 C22.06,95 24.28,92.21 26.82,88.96 C29.36,85.71 31.18,83.18 31.18,83.18 L40.82,95.66 C40.82,95.66 22.42,119.73 8.02,109.28 C-9.22,96.77 10.47,73.23 10.57,68.15 Z" fill="#B6885A"/>
  <path d="M97.81,84.18 C97.81,84.18 87.56,95.44 87.87,95.85 C88.17,96.26 106.54,119.23 120.46,109.84 C134.41,100.44 123.38,80.73 121.15,77.59 C118.92,74.44 116.48,72.42 116.48,70.08 C116.48,67.75 118.81,63.49 118.51,57.5 C118.21,51.51 112.83,44.51 108.57,43.7 C104.31,42.89 102.08,48.98 102.08,48.98 L103.6,78.1 L112.43,88.96 C112.43,88.96 113.34,94.74 112.23,95.55 C111.12,96.36 107.06,94.23 104.01,90.98 C100.96,87.73 97.81,84.18 97.81,84.18 Z" fill="#B6885A"/>
  <path d="M20.26,44.06 C21.56,46.01 22.87,46.98 23.15,49.03 C23.71,53.18 21.1,55.19 21.4,59.38 C21.7,63.56 23.91,66.38 23.45,71.4 C22.99,76.42 21.09,79.09 17.13,83.57 C13.17,88.05 13.68,92.32 14.82,94.07 C15.96,95.82 18.22,95.74 18.98,94.98 C19.74,94.22 16.75,94.68 16.98,90.87 C17.21,87.07 27.25,79.53 27.18,71.54 C27.1,63.55 25.51,62.33 25.28,57.24 C25.15,54.35 27.13,50.62 25.81,46.97 C24.52,43.4 19.86,43.45 20.26,44.06 Z" fill="#855B50"/>
  <path d="M102.83,60.67 C102.72,66.47 100.09,67.52 101,73.91 C101.91,80.3 105.11,80.76 108,85.48 C110.86,90.15 112.28,93.83 111.8,94.99 C111.04,96.84 112.31,96.84 113.52,94.94 C115.27,92.21 113.44,88.22 110.93,84.03 C108.42,79.85 105.71,78.1 104.87,74.06 C104.03,70.03 107,64.85 105.94,58.01 C104.88,51.17 103.35,48.96 104.95,46.44 C105.96,44.85 109.46,43.04 106.12,43.65 C102.77,44.26 101.07,47.05 101.22,50.4 C101.39,53.75 102.91,56.49 102.83,60.67 Z" fill="#865B54"/>
</svg>