<svg viewBox="0 0 128 128" xmlns="http://www.w3.org/2000/svg">
  <defs/>
  <path d="M64,14 C91.57,14 114,36.43 114,64 C114,91.57 91.57,114 64,114 C36.43,114 14,91.57 14,64 C14,36.43 36.43,14 64,14 M64,4 C30.86,4 4,30.86 4,64 C4,97.14 30.86,124 64,124 C97.14,124 124,97.14 124,64 C124,30.86 97.14,4 64,4 L64,4 Z" fill="#D68B52"/>
  <path d="M64,14.03 C91.55,14.03 113.97,36.44 113.97,64 C113.97,91.56 91.55,113.97 64,113.97 C36.45,113.97 14.03,91.55 14.03,64 C14.03,36.45 36.45,14.03 64,14.03 M64,11.06 C34.76,11.06 11.06,34.76 11.06,64 C11.06,93.24 34.76,116.94 64,116.94 C93.24,116.94 116.94,93.24 116.94,64 C116.94,34.76 93.24,11.06 64,11.06 L64,11.06 Z" fill="#784D30"/>
  <path d="M111.18,77.49 L73.83,65.35 L112.18,52.89 C113.76,52.38 114.62,50.68 114.11,49.11 C113.6,47.53 111.9,46.67 110.33,47.18 L71.97,59.65 L95.96,26.63 C96.93,25.29 96.64,23.41 95.3,22.44 C93.96,21.47 92.08,21.76 91.11,23.1 L67.12,56.12 L67.12,14.84 C67.12,13.18 65.78,11.84 64.12,11.84 C62.46,11.84 61.12,13.18 61.12,14.84 L61.12,56.12 L37.04,22.98 C36.07,21.64 34.19,21.34 32.85,22.32 C31.51,23.29 31.21,25.17 32.19,26.51 L56.27,59.65 L17.67,47.11 C16.1,46.6 14.4,47.46 13.89,49.04 C13.38,50.62 14.24,52.31 15.82,52.82 L54.41,65.36 L16.74,77.59 C15.16,78.1 14.3,79.8 14.81,81.37 C15.22,82.64 16.4,83.44 17.66,83.44 C17.97,83.44 18.28,83.39 18.59,83.29 L56.26,71.05 L33.36,102.57 C32.39,103.91 32.68,105.79 34.02,106.76 C34.55,107.15 35.17,107.33 35.78,107.33 C36.71,107.33 37.62,106.9 38.21,106.09 L61.11,74.56 L61.11,112.95 C61.11,114.61 62.45,115.95 64.11,115.95 C65.77,115.95 67.11,114.61 67.11,112.95 L67.11,74.55 L90.07,106.15 C90.66,106.96 91.57,107.39 92.5,107.39 C93.11,107.39 93.73,107.2 94.26,106.82 C95.6,105.85 95.9,103.97 94.92,102.63 L71.96,71.03 L109.31,83.17 C109.62,83.27 109.93,83.32 110.24,83.32 C111.5,83.32 112.68,82.51 113.09,81.25 C113.61,79.69 112.75,78 111.18,77.49 Z M64,73.68 C59.49,73.68 55.84,70.02 55.84,65.52 C55.84,61.01 59.5,57.36 64,57.36 C68.5,57.36 72.16,61.02 72.16,65.52 C72.16,70.03 68.51,73.68 64,73.68 Z" fill="#A65F3E"/>
  <path d="M64,55.03 C58.21,55.03 53.52,59.72 53.52,65.51 C53.52,71.31 58.21,76 64,76 C69.79,76 74.48,71.31 74.48,65.52 C74.48,59.73 69.79,55.03 64,55.03 L64,55.03 Z M64,68.49 C62.36,68.49 61.03,67.16 61.03,65.52 C61.03,63.88 62.36,62.55 64,62.55 C65.64,62.55 66.97,63.88 66.97,65.52 C66.97,67.16 65.64,68.49 64,68.49 L64,68.49 Z" fill="#D68B52"/>
  <path d="M64,62.54 C65.64,62.54 66.97,63.87 66.97,65.51 C66.97,67.15 65.64,68.48 64,68.48 C62.36,68.48 61.03,67.15 61.03,65.51 C61.03,63.87 62.36,62.54 64,62.54 M64,60.54 C61.26,60.54 59.03,62.77 59.03,65.51 C59.03,68.25 61.26,70.48 64,70.48 C66.74,70.48 68.97,68.25 68.97,65.51 C68.97,62.77 66.74,60.54 64,60.54 L64,60.54 Z" fill="#784D30"/>
</svg>