<svg viewBox="0 0 128 128" xmlns="http://www.w3.org/2000/svg" xmlns:xlink="http://www.w3.org/1999/xlink">
  <linearGradient id="SVGID_1_" gradientTransform="matrix(1 0 0 -1 0 -820)" gradientUnits="userSpaceOnUse" x1="64" x2="64" y1="-839.717" y2="-927.7">
    <stop offset="0.5" style="stop-color:#FEE133"/>
    <stop offset="0.6118" style="stop-color:#FEDE32"/>
    <stop offset="0.7076" style="stop-color:#FCD32F"/>
    <stop offset="0.7975" style="stop-color:#FAC12B"/>
    <stop offset="0.8834" style="stop-color:#F7A924"/>
    <stop offset="0.9" style="stop-color:#F6A323"/>
  </linearGradient>
  <path d="M64,119.9c-27.9,0-58-17.5-58-55.9S36.1,8.1,64,8.1c15.5,0,29.8,5.1,40.4,14.4 C115.9,32.7,122,47.1,122,64s-6.1,31.2-17.6,41.4C93.8,114.7,79.4,119.9,64,119.9z" fill="url(#SVGID_1_)"/>
  <path d="M64,10.1c15,0,28.9,4.9,39,13.9c11.1,9.8,17,23.6,17,40c0,16.3-5.9,30.1-17,39.9c-10.2,9-24.1,14-39,14 c-15,0-28.9-4.9-39-13.8C13.9,94.3,8,80.5,8,64s5.9-30.4,17-40.2C35.1,15,48.9,10.1,64,10.1 M64,6.1C32.8,6.1,4,26.1,4,64 c0,37.7,28.8,57.9,60,57.9s60-20.7,60-57.9C124,26.6,95.2,6.1,64,6.1z" fill="#EB8F00"/>
  <path d="M63.7,79.6c12,0,20.5,6.2,23.1,10.1c1,1.5,1.2,3.2,0.5,4.4c-0.5,0.9-1.4,1.5-2.5,1.5c-0.4,0-0.8-0.1-1.1-0.2 c-6-1.9-13-2.9-20-2.9s-13.9,1-19.9,2.9c-0.4,0.1-0.8,0.2-1.1,0.2c-1.1,0-2-0.5-2.5-1.5c-0.7-1.2-0.5-2.9,0.5-4.4 C43.2,85.8,51.7,79.6,63.7,79.6z" fill="#242424"/>
  <path d="M27.4,34.8c-2.2,0.4-2.3,3.6,0.1,3.7c4.9,0.1,10.2-1.7,14.3-5.5 c1.5-1.3,2.8-2.9,3.7-4.5c1.2-2.2-1.6-3.7-3-2.1l-0.1,0.1C38.4,31,32.9,33.9,27.4,34.8z" fill="#EB8F00" stroke="#EB8F00" stroke-miterlimit="10"/>
  <path d="M84.5,26.4c-1.4-1.7-4.2-0.1-3,2.1c0.9,1.6,2.2,3.2,3.7,4.5 c4,3.7,9.4,5.6,14.3,5.5c2.5-0.1,2.3-3.3,0.1-3.7C94,33.9,88.5,31,84.5,26.4L84.5,26.4" fill="#EB8F00" stroke="#EB8F00" stroke-miterlimit="10"/>
  <g>
    <path d="M84,48.9c4.2,0,8,3.5,8,9.4s-3.8,9.4-8,9.4s-8-3.5-8-9.4S79.8,48.9,84,48.9z" fill="#242424"/>
    <path d="M43.5,48.9c-4.2,0-8,3.5-8,9.4s3.8,9.4,8,9.4s8-3.5,8-9.4S47.7,48.9,43.5,48.9z" fill="#242424"/>
  </g>
</svg>