<svg viewBox="0 0 128 128" xmlns="http://www.w3.org/2000/svg">
  <defs>
    <radialGradient id="face_1_" cx="63.6" cy="62.8999" gradientUnits="userSpaceOnUse" r="56.9597">
      <stop offset="0.5" stop-color="#FDE030"/>
      <stop offset="0.92" stop-color="#F7C02B"/>
      <stop offset="1" stop-color="#F4A223"/>
    </radialGradient>
  </defs>
  <path id="face" d="M63.6,118.8 C35.7,118.8 5.6,101.3 5.6,62.9 C5.6,24.5 35.7,7 63.6,7 C79.1,7 93.4,12.1 104,21.4 C115.5,31.6 121.6,46 121.6,62.9 C121.6,79.8 115.5,94.1 104,104.3 C93.4,113.6 79,118.8 63.6,118.8 Z" fill="url(#face_1_)"/>
  <path d="M111.49,29.67 C116.82,38.27 119.6,48.51 119.6,59.9 C119.6,76.8 113.5,91.1 102,101.3 C91.4,110.6 77,115.8 61.6,115.8 C43.54,115.8 24.6,108.45 13.42,92.86 C24.18,110.52 44.42,118.8 63.6,118.8 C79,118.8 93.4,113.6 104,104.3 C115.5,94.1 121.6,79.8 121.6,62.9 C121.6,50.16 118.13,38.84 111.49,29.67 Z" fill="#EB8F00"/>
  <path d="M38,51 L53,51 Q54.657,51 55.828,52.172 Q57,53.343 57,55 Q57,56.657 55.828,57.828 Q54.657,59 53,59 L38,59 Q36.343,59 35.172,57.828 Q34,56.657 34,55 Q34,53.343 35.172,52.172 Q36.343,51 38,51 Z" fill="#35220B"/>
  <path d="M76,51 L91,51 Q92.657,51 93.828,52.172 Q95,53.343 95,55 Q95,56.657 93.828,57.828 Q92.657,59 91,59 L76,59 Q74.343,59 73.172,57.828 Q72,56.657 72,55 Q72,53.343 73.172,52.172 Q74.343,51 76,51 Z" fill="#35220B"/>
  <path id="mouth" d="M89,88 L39,88 C36.79,88 35,86.21 35,84 C35,81.79 36.79,80 39,80 L89,80 C91.21,80 93,81.79 93,84 C93,86.21 91.21,88 89,88 Z" fill="#422B0D"/>
</svg>