<svg viewBox="0 0 128 128" xmlns="http://www.w3.org/2000/svg" xmlns:xlink="http://www.w3.org/1999/xlink">
  <linearGradient id="SVGID_1_" gradientTransform="matrix(1 0 0 1 0 -1375.8898)" gradientUnits="userSpaceOnUse" x1="64" x2="64" y1="1459.3898" y2="1501.5398">
    <stop offset="0" stop-color="#29B6F6"/>
    <stop offset="0.9826" stop-color="#0288D1"/>
  </linearGradient>
  <rect fill="url(#SVGID_1_)" height="44" width="120" x="4" y="80"/>
  <g opacity="0.2">
    <path d="M121,83v38H7V83H121 M124,80H4v44h120V80z" fill="#424242"/>
  </g>
  <path d="M67,28H47.4c-2.8,0-5.7,6.5-5.7,6.5H72C72.1,34.5,69.8,28,67,28z" fill="#757575"/>
  <path d="M103.1,28c-3.7,0-7.1,1.9-8.8,5l-0.9,1.6h19.4l-1.1-1.8C110,29.8,106.7,28,103.1,28z" fill="#757575"/>
  <g opacity="0.2">
    <path d="M66.9,30c0.4,0.1,1.3,1.1,2.1,2.5H45.1c0.9-1.4,1.8-2.4,2.3-2.5H66.9 M67,28H47.4c-2.8,0-5.7,6.5-5.7,6.5 H72C72.1,34.5,69.8,28,67,28z" fill="#424242"/>
  </g>
  <g opacity="0.2">
    <path d="M103.1,30c2.4,0,4.6,0.9,6,2.5h-12C98.5,31,100.7,30,103.1,30 M103.1,28c-3.7,0-7.1,1.9-8.8,5l-0.9,1.6 h19.4l-1.1-1.8C110,29.8,106.7,28,103.1,28z" fill="#424242"/>
  </g>
  <linearGradient id="SVGID_00000077305422870063556230000005627731599928815758_" gradientTransform="matrix(1 0 0 1 0 -1375.8898)" gradientUnits="userSpaceOnUse" x1="63.9778" x2="63.9778" y1="1421.8898" y2="1464.5618">
    <stop offset="0" stop-color="#F5F5F5"/>
    <stop offset="1" stop-color="#E0E0E0"/>
  </linearGradient>
  <path d="M117.1,33h-81c-1,0-1.9,0.5-2.4,1.2l-1.3,1.9 c-0.4,0.5,0,1.3,0.7,1.3h1.8c0.5,0,0.8,0.6,0.5,1L20,60.1H4c-0.1,0,0,1.9,0,1.9c0,2,0.7,3.9,1.9,5.4l11.6,14.5 c1.6,2,2.5,3.7,2.4,6.2L124,88V59.8l-5.2-21.7c0.8,0,1.4-0.9,1.1-1.7l-0.3-0.8C119.1,34,118.8,33,117.1,33z" fill="url(#SVGID_00000077305422870063556230000005627731599928815758_)"/>
  <g>
    <defs>
      <path id="SVGID_00000022553073147292631200000013047330080809287841_" d="M34.6,39.4L20,60.1H4v2c0,1.9,0.7,3.8,1.9,5.3 l11.7,14.5c1.6,2,2.5,3.7,2.4,6.2l0,0L124,88V74.2L95.1,61.1L112,61l-0.4-21.1L34.6,39.4z"/>
    </defs>
    <clipPath id="SVGID_00000033353984270486340960000008930381472909482911_">
      <use overflow="visible" xlink:href="#SVGID_00000022553073147292631200000013047330080809287841_"/>
    </clipPath>
    <rect clip-path="url(#SVGID_00000033353984270486340960000008930381472909482911_)" fill="#01579B" height="13.2" width="122" x="4" y="75.8"/>
  </g>
  <g>
    <defs>
      <path id="SVGID_00000124163364190671086250000001549391514531551138_" d="M34.6,39.4L20,60.1H4v2c0,1.9,0.7,3.8,1.9,5.3 l11.7,14.5c1.6,2,2.5,3.7,2.4,6.2l0,0L124,88V74.2L95.1,61.1L112,61l-0.4-21.1L34.6,39.4z"/>
    </defs>
    <clipPath id="SVGID_00000106112231966868834800000000183020664362062246_">
      <use overflow="visible" xlink:href="#SVGID_00000124163364190671086250000001549391514531551138_"/>
    </clipPath>
    <rect clip-path="url(#SVGID_00000106112231966868834800000000183020664362062246_)" fill="#4FC3F7" height="6" width="79.3" x="28.8" y="40"/>
  </g>
  <g>
    <defs>
      <path id="SVGID_00000098211441478516398620000008353374236177538231_" d="M34.6,39.4L20,60.1H4v2c0,1.9,0.7,3.8,1.9,5.3 l11.7,14.5c1.6,2,2.5,3.7,2.4,6.2l0,0L124,88V74.2L95.1,61.1L112,61l-0.4-21.1L34.6,39.4z"/>
    </defs>
    <clipPath id="SVGID_00000112601446084505314860000005809767806763967887_">
      <use overflow="visible" xlink:href="#SVGID_00000098211441478516398620000008353374236177538231_"/>
    </clipPath>
    <rect clip-path="url(#SVGID_00000112601446084505314860000005809767806763967887_)" fill="#4FC3F7" height="8" width="86.9" x="21" y="50.4"/>
  </g>
  <g>
    <defs>
      <path id="SVGID_00000174600256753427783630000005670401983004953770_" d="M34.6,39.4L20,60.1H4v2c0,1.9,0.7,3.8,1.9,5.3 l11.7,14.5c1.6,2,2.5,3.7,2.4,6.2l0,0L124,88V74.2L95.1,61.1L112,61l-0.4-21.1L34.6,39.4z"/>
    </defs>
    <clipPath id="SVGID_00000161627893419448185280000010648870360484486564_">
      <use overflow="visible" xlink:href="#SVGID_00000174600256753427783630000005670401983004953770_"/>
    </clipPath>
    <g clip-path="url(#SVGID_00000161627893419448185280000010648870360484486564_)" opacity="0.2">
      <path d="M106.1,42v2H30.8v-2H106.1 M108.1,40H28.8v6h79.3C108.1,46,108.1,40,108.1,40z" fill="#424242"/>
    </g>
  </g>
  <g>
    <defs>
      <path id="SVGID_00000082352844214016382790000001563676588605272475_" d="M34.6,39.4L20,60.1H4v2c0,1.9,0.7,3.8,1.9,5.3 l11.7,14.5c1.6,2,2.5,3.7,2.4,6.2l0,0L124,88V74.2L95.1,61.1L112,61l-0.4-21.1L34.6,39.4z"/>
    </defs>
    <clipPath id="SVGID_00000130639527574009863630000000999117230555619241_">
      <use overflow="visible" xlink:href="#SVGID_00000082352844214016382790000001563676588605272475_"/>
    </clipPath>
    <g clip-path="url(#SVGID_00000130639527574009863630000000999117230555619241_)" opacity="0.2">
      <path d="M105.9,52.4v4H23v-4H105.9 M107.9,50.4H21v8h86.9V50.4L107.9,50.4z" fill="#424242"/>
    </g>
  </g>
  <g opacity="0.2">
    <path d="M36.1,33" fill="#424242"/>
  </g>
  <g opacity="0.2">
    <path d="M117.1,35c0.1,0,0.1,0,0.2,0c0.1,0.2,0.3,0.7,0.5,1.1l0.1,0.2c0,0,0,0,0,0.1l0,0c-0.2,0.1-0.4,0.3-0.5,0.5 c-0.4,0.5-0.5,1.1-0.4,1.7l5,21.4v26L21.8,86.1c-0.4-2.2-1.4-3.8-2.7-5.5L7.5,66.1c-1-1.1-1.5-2.6-1.5-4h14c0.6,0,1.3-0.3,1.6-0.8 l15.3-21.7c0.6-0.8,0.6-1.8,0.2-2.7c-0.4-0.7-1-1.2-1.8-1.4l0,0c0.2-0.2,0.5-0.4,0.8-0.4L117.1,35 M117.1,33h-81 c-1,0-1.9,0.5-2.4,1.2l-1.3,1.9c-0.4,0.5,0,1.3,0.7,1.3l0,0h1.8l0,0c0.5,0,0.8,0.6,0.5,1L20,60.1H4c-0.1,0,0,1.9,0,1.9 c0,2,0.7,3.9,1.9,5.4l11.6,14.5c1.6,2,2.5,3.7,2.4,6.2L124,88V59.8l-5.2-21.7c0.8,0,1.4-0.9,1.1-1.7l-0.3-0.8 C119.1,34.1,118.8,33,117.1,33L117.1,33z" fill="#424242"/>
  </g>
  <circle cx="26.7" cy="68.4" fill="#FF9800" r="4"/>
  <circle cx="48.2" cy="68.4" fill="#FF9800" r="4"/>
  <circle cx="69.8" cy="68.4" fill="#FF9800" r="4"/>
  <circle cx="91.3" cy="68.4" fill="#FF9800" r="4"/>
  <circle cx="112.8" cy="68.4" fill="#FF9800" r="4"/>
  <g opacity="0.2">
    <path d="M26.7,66.4c1.1,0,2,0.9,2,2s-0.9,2-2,2s-2-0.9-2-2S25.6,66.4,26.7,66.4 M26.7,64.4c-2.2,0-4,1.8-4,4 s1.8,4,4,4s4-1.8,4-4S28.9,64.4,26.7,64.4z" fill="#424242"/>
  </g>
  <g opacity="0.2">
    <path d="M48.2,66.4c1.1,0,2,0.9,2,2s-0.9,2-2,2s-2-0.9-2-2S47.1,66.4,48.2,66.4 M48.2,64.4c-2.2,0-4,1.8-4,4 s1.8,4,4,4s4-1.8,4-4S50.4,64.4,48.2,64.4z" fill="#424242"/>
  </g>
  <g opacity="0.2">
    <path d="M69.8,66.4c1.1,0,2,0.9,2,2s-0.9,2-2,2s-2-0.9-2-2S68.7,66.4,69.8,66.4 M69.8,64.4c-2.2,0-4,1.8-4,4 s1.8,4,4,4s4-1.8,4-4S72,64.4,69.8,64.4z" fill="#424242"/>
  </g>
  <g opacity="0.2">
    <path d="M91.3,66.4c1.1,0,2,0.9,2,2s-0.9,2-2,2s-2-0.9-2-2S90.2,66.4,91.3,66.4 M91.3,64.4c-2.2,0-4,1.8-4,4 s1.8,4,4,4s4-1.8,4-4S93.5,64.4,91.3,64.4z" fill="#424242"/>
  </g>
  <g opacity="0.2">
    <path d="M112.8,66.4c1.1,0,2,0.9,2,2s-0.9,2-2,2s-2-0.9-2-2S111.7,66.4,112.8,66.4 M112.8,64.4c-2.2,0-4,1.8-4,4 s1.8,4,4,4s4-1.8,4-4S115,64.4,112.8,64.4z" fill="#424242"/>
  </g>
</svg>