<svg viewBox="0 0 128 128" xmlns="http://www.w3.org/2000/svg">
  <linearGradient id="d" gradientUnits="userSpaceOnUse" x1="64" x2="64" y1="5.3946" y2="121.39">
    <stop offset="0" stop-color="#212121"/>
    <stop offset=".3086" stop-color="#242424"/>
    <stop offset=".5332" stop-color="#2D2D2D"/>
    <stop offset=".7312" stop-color="#3D3D3D"/>
    <stop offset=".9127" stop-color="#535353"/>
    <stop offset="1" stop-color="#616161"/>
  </linearGradient>
  <path d="m76.44 124h-24.88c-5.5 0-10-4.5-10-10v-100c0-5.5 4.5-10 10-10h24.88c5.5 0 10 4.5 10 10v100c0 5.5-4.5 10-10 10z" fill="url(#d)"/>
  <radialGradient id="c" cx="60.105" cy="61.054" gradientUnits="userSpaceOnUse" r="13.076">
    <stop offset=".0014825" stop-color="#FFEE58"/>
    <stop offset=".3529" stop-color="#FDD743"/>
    <stop offset=".7247" stop-color="#FCC633"/>
    <stop offset="1" stop-color="#FBC02D"/>
  </radialGradient>
  <circle cx="64" cy="63.84" fill="url(#c)" r="13.08"/>
  <radialGradient id="b" cx="59.966" cy="96.247" gradientUnits="userSpaceOnUse" r="13.076">
    <stop offset=".0019061" stop-color="#81C784"/>
    <stop offset=".1121" stop-color="#77C07A"/>
    <stop offset=".4646" stop-color="#5AAF5E"/>
    <stop offset=".7726" stop-color="#49A44D"/>
    <stop offset="1" stop-color="#43A047"/>
  </radialGradient>
  <circle cx="64" cy="99.45" fill="url(#b)" r="13.08"/>
  <g opacity=".2">
    <path d="m76.44 7.11c3.8 0 6.89 3.09 6.89 6.89v100c0 3.8-3.09 6.89-6.89 6.89h-24.88c-3.8 0-6.89-3.09-6.89-6.89v-100c0-3.8 3.09-6.89 6.89-6.89h24.88m0-3.11h-24.88c-5.5 0-10 4.5-10 10v100c0 5.5 4.5 10 10 10h24.88c5.5 0 10-4.5 10-10v-100c0-5.5-4.5-10-10-10z" fill="#eee"/>
  </g>
  <radialGradient id="a" cx="59.92" cy="24.794" gradientUnits="userSpaceOnUse" r="13.076">
    <stop offset="0" stop-color="#E57373"/>
    <stop offset=".1104" stop-color="#E56969"/>
    <stop offset=".4636" stop-color="#E54F4C"/>
    <stop offset=".7721" stop-color="#E53F3B"/>
    <stop offset="1" stop-color="#E53935"/>
  </radialGradient>
  <circle cx="64" cy="28.23" fill="url(#a)" r="13.08"/>
</svg>