<svg viewBox="0 0 128 128" xmlns="http://www.w3.org/2000/svg">
  <defs/>
  <path d="M72.67,71.53 C72.67,71.53 50.8,71.32 50.51,71.55 C50.21,71.78 49.99,72.81 49.99,75.07 C49.99,77.34 51.1,78.24 51.52,78.27 C52.7,78.35 54.8,78.27 54.8,78.27 C54.8,78.27 53.79,80.71 53.79,81.63 C53.79,82.55 53.96,96.25 53.96,96.25 L72.45,94.65 L72.67,71.53 Z" fill="#2F7C31"/>
  <path d="M96.98,71.71 L82.61,72.01 C82.61,72.01 81.52,73.27 81.6,75.29 C81.68,77.31 82.84,78.82 82.84,78.82 L86.36,78.97 C86.36,78.97 86.21,80.84 86.21,82.71 C86.21,83.59 86.1,94.79 86.1,94.79 L89.33,96.12 L101.93,87.04 L96.98,71.71 Z" fill="#2F7C31"/>
  <path d="M29.08,83.06 L24.21,87.52 L34.29,98.61 L42.19,97.1 Z" fill="#4E433D"/>
  <path d="M36.07,62.46 L22.58,59.72 C22.58,59.72 22.52,58.48 23.11,56.17 C24.71,49.89 32.82,32.15 32.82,32.15 L42.6,29.33 L42.78,61.22 L36.07,62.46 Z" fill="#AFE3FB"/>
  <path d="M70.9,33.04 C71.02,34.43 70.88,69.09 70.88,69.09 L77.59,68.1 L77.72,32.94 L70.9,33.04 Z" fill="#B0B0B0"/>
  <path d="M23.91,70.39 L22.56,68.14 C22.56,68.14 22.31,65.51 22.42,62.99 C22.47,61.84 22.56,59.66 22.56,59.66 C22.56,59.66 35.64,59.73 37.22,59.73 C38.8,59.73 40.57,58.41 40.57,55.59 C40.57,52.77 40.98,34.13 40.98,34.13 L27.88,22.2 L27.09,17.71 C27.09,17.71 30.7,14.89 35.81,15.42 C40.92,15.95 43.92,19.91 43.92,19.91 C43.92,19.91 102.77,20.1 105.07,20.09 C111.09,20.06 113.52,21.42 117.39,25.81 C120.42,29.24 122.07,35.51 122.42,38.59 C122.77,41.67 125.42,62.38 125.33,63.88 C125.24,65.38 124.98,67.4 123.39,67.67 C121.8,67.93 119.34,69.17 119.34,69.17 L101.72,69.79 L98.89,69.66 C98.89,69.66 98.79,40.86 98.88,39.19 C98.97,37.52 98.2,35.75 95.91,35.57 C93.62,35.39 81.09,35.7 71.14,35.61 C61.18,35.52 46.63,35.29 46.63,35.29 L46.35,67.6 L32.98,72.07 L23.91,70.39 Z" fill="#FFB803"/>
  <path d="M17.29,19.36 C17.12,20.93 31.8,34.02 32.07,34.02 C32.33,34.02 40.9,34.28 41.06,34.19 C41.39,34.01 27.25,17.51 27.25,17.51 C27.25,17.51 17.46,17.79 17.29,19.36 Z" fill="#536F7D"/>
  <path d="M22.51,67.63 L46.38,67.51 L46.3,94.42 C46.3,94.42 54.87,94.41 56.85,94.41 C58.83,94.41 60.45,93.13 60.57,90.92 C60.69,88.71 60.45,82.32 60.45,80.93 C60.45,79.54 61.03,78.49 63.12,78.37 C65.21,78.25 70.86,78.34 70.86,78.34 L70.86,67.71 L77.61,67.66 C77.61,67.66 77.52,88.5 77.63,90.36 C77.74,92.22 78.8,94.07 80.43,94.07 C82.06,94.07 92.63,94.19 92.63,94.19 L93.67,88.65 C93.67,88.65 92.63,78.62 94.26,74.55 C95.89,70.48 98.87,68.02 98.87,68.02 L123.37,67.66 C123.37,67.66 123.66,96.62 123.66,97.44 C123.66,98.25 122.27,100.93 122.27,100.93 L83.8,100.81 L36.15,100.69 L30.57,97.2 C30.57,97.2 31.73,96.62 33.59,96.5 C35.45,96.38 36.73,95.22 35.8,93.71 C34.87,92.2 27.68,86.42 24.64,78.37 C22.71,73.21 22.51,67.63 22.51,67.63 Z" fill="#02AB46"/>
  <path d="M11.64,121.14 C4.53,116.38 2.67,106.94 7.43,99.83 C12.19,92.72 21.76,90.75 28.72,95.72 C36.36,101.18 37.73,110.11 32.97,117.22 C28.21,124.33 18.75,125.9 11.64,121.14 Z" fill="#4E433D"/>
  <path d="M22.86,114.32 C26.46,112.71 27.79,108.74 26.29,105.26 C25.03,102.35 21.3,100.31 17.82,101.77 C14.48,103.18 12.38,106.81 13.82,110.63 C15.17,114.22 19.08,116.01 22.86,114.32 Z" fill="#1C1D1E"/>
  <path d="M18.63,110.56 C17.28,109.66 16.92,107.87 17.82,106.53 C18.72,105.19 20.53,104.82 21.85,105.76 C23.3,106.8 23.56,108.49 22.66,109.83 C21.77,111.17 19.98,111.46 18.63,110.56 Z" fill="#4E433D"/>
  <path d="M83.34,107.38 C83.34,107.38 81.52,84.97 103.5,84.45 C125.48,83.93 124.18,107.46 123.75,107.81 C123.32,108.16 83.34,107.38 83.34,107.38 Z" fill="#2F7C31"/>
  <path d="M119.53,107.54 C119.53,116.68 112.27,123.94 103.13,123.94 C93.99,123.94 86.56,116.63 86.83,107.49 C87.13,97.46 94.24,90.94 103.38,90.94 C112.52,90.94 119.53,98.4 119.53,107.54 Z" fill="#4E433D"/>
  <path d="M106.81,101.64 C103.25,99.4 98.93,100.58 96.74,103.98 C94.91,106.83 95.32,111.35 98.68,113.56 C101.91,115.68 106.39,115.39 108.92,111.84 C111.29,108.52 110.56,103.99 106.81,101.64 Z" fill="#1C1D1E"/>
  <path d="M105.99,107.63 C105.99,109.36 104.62,110.74 102.89,110.74 C101.16,110.74 99.76,109.35 99.81,107.62 C99.87,105.72 101.21,104.48 102.94,104.48 C104.67,104.48 105.99,105.89 105.99,107.63 Z" fill="#4E433D"/>
  <path d="M100.73,72.35 C100.21,72.7 100.24,77.25 100.48,77.33 C100.86,77.46 114.1,77.46 114.1,77.46 L114.23,72.54 C114.23,72.54 100.92,72.23 100.73,72.35 Z" fill="#FF8B00"/>
  <path d="M35.37,105.27 C35.37,105.27 39.64,105.54 40.08,105.23 C40.52,104.91 30.89,85.89 18.79,84.15 C10.51,82.96 5.48,86.54 3.59,90.58 C1.72,94.57 2.36,99.03 2.52,99.16 C2.84,99.41 12.82,94.21 21.44,96.2 C30.65,98.32 35.37,105.27 35.37,105.27 Z" fill="#2F7C31"/>
  <path d="M20.68,79.23 C20.68,81.06 16.08,85.47 10.46,85.92 C8.13,86.1 5.25,83.72 5.35,78.98 C5.47,73.75 7.68,72.1 9.95,72.04 C15.64,71.88 20.68,76.89 20.68,79.23 Z" fill="#B0B0B0"/>
  <path d="M9.23,82.82 C7.97,82.88 6.9,81.05 7.02,78.4 C7.11,76.45 8.09,74.55 9.04,74.55 C10.24,74.55 11.06,76.38 11.06,78.78 C11.06,80.68 10.36,82.77 9.23,82.82 Z" fill="#FFFFFF"/>
</svg>