<svg viewBox="0 0 128 128" xmlns="http://www.w3.org/2000/svg">
  <defs>
    <radialGradient id="face_1_" cx="63.6" cy="-62.8999" gradientTransform="matrix(1 0 0 -1 0 0)" gradientUnits="userSpaceOnUse" r="56.9597">
      <stop offset="0.5" stop-color="#FDE030"/>
      <stop offset="0.9188" stop-color="#F7C02B"/>
      <stop offset="1" stop-color="#F4A223"/>
    </radialGradient>
    <radialGradient id="SVGID_1_" cx="27.832252" cy="77.226834" gradientTransform="matrix(0.9791 0 0 0.9301 0 0)" gradientUnits="userSpaceOnUse" r="19.4444">
      <stop offset="0" stop-color="#ED7770"/>
      <stop offset="0.9" stop-color="#ED7770" stop-opacity="0"/>
    </radialGradient>
    <radialGradient id="SVGID_2_" cx="102.903052" cy="77.226834" gradientTransform="matrix(0.9791 0 0 0.9301 0 0)" gradientUnits="userSpaceOnUse" r="19.4444">
      <stop offset="0" stop-color="#ED7770"/>
      <stop offset="0.9" stop-color="#ED7770" stop-opacity="0"/>
    </radialGradient>
  </defs>
  <path id="face_106_" d="M63.6,118.8 C35.7,118.8 5.6,101.3 5.6,62.9 C5.6,24.5 35.7,7 63.6,7 C79.1,7 93.4,12.1 104,21.4 C115.5,31.6 121.6,46 121.6,62.9 C121.6,79.8 115.5,94.1 104,104.3 C93.4,113.6 79,118.8 63.6,118.8 Z" fill="url(#face_1_)"/>
  <path d="M111.49,29.67 C116.82,38.27 119.6,48.51 119.6,59.9 C119.6,76.8 113.5,91.1 102,101.3 C91.4,110.6 77,115.8 61.6,115.8 C43.54,115.8 24.56,108.45 13.42,92.86 C24.18,110.52 44.41,118.8 63.6,118.8 C79,118.8 93.4,113.6 104,104.3 C115.5,94.1 121.6,79.8 121.6,62.9 C121.6,50.16 118.13,38.84 111.49,29.67 Z" fill="#EB8F00"/>
  <path d="M44.75,71.83 A17.5 17.5 0 1 1 9.75,71.83 A17.5 17.5 0 1 1 44.75,71.83 Z" fill="url(#SVGID_1_)" opacity="0.8"/>
  <path d="M118.25,71.83 A17.5 17.5 0 1 1 83.25,71.83 A17.5 17.5 0 1 1 118.25,71.83 Z" fill="url(#SVGID_2_)" opacity="0.8"/>
  <path d="M48.96,56.89 C48.96,56.89 48.91,56.82 48.8,56.69 C48.7,56.56 48.56,56.38 48.38,56.15 C48.23,55.99 48.05,55.8 47.84,55.58 C47.63,55.34 47.37,55.09 47.11,54.83 C46.84,54.58 46.56,54.32 46.27,54.11 C45.99,53.88 45.68,53.71 45.43,53.57 C45.17,53.41 44.93,53.37 44.78,53.32 C44.7,53.29 44.63,53.29 44.57,53.28 C44.54,53.29 44.51,53.27 44.48,53.28 L44.44,53.29 L44.42,53.29 L44.41,53.29 L44.41,53.29 L44.41,53.29 L44.41,53.29 C44.53,53.29 44.14,53.3 44.68,53.28 L44.13,53.3 C43.99,53.3 44.08,53.31 44.09,53.31 C44.12,53.31 44.14,53.31 44.16,53.3 C44.24,53.27 44.16,53.3 44.14,53.3 C44.11,53.3 44.07,53.31 44.03,53.33 C43.87,53.38 43.63,53.42 43.38,53.58 C43.13,53.72 42.82,53.89 42.54,54.12 C42.26,54.34 41.97,54.59 41.7,54.84 C41.18,55.35 40.72,55.86 40.4,56.23 C40.07,56.61 39.89,56.83 39.89,56.83 L39.66,57.1 C38.29,58.7 35.77,58.97 34.04,57.71 C32.86,56.85 32.35,55.51 32.57,54.23 C32.57,54.23 32.64,53.82 32.84,53.11 C33.05,52.4 33.4,51.39 34.09,50.2 C34.78,49.02 35.78,47.63 37.47,46.36 C38.3,45.74 39.31,45.12 40.51,44.7 C40.8,44.59 41.11,44.49 41.43,44.41 C41.76,44.33 42.02,44.24 42.47,44.18 L43.09,44.09 C43.28,44.07 43.56,44.04 43.6,44.04 L44.15,44 L44.46,43.99 L44.49,43.99 L44.55,43.99 L44.68,44 L44.92,44 L45.43,44.03 C45.77,44.06 46.1,44.12 46.43,44.17 C47.08,44.29 47.73,44.46 48.32,44.68 C49.52,45.1 50.53,45.71 51.36,46.34 C53.05,47.61 54.05,49 54.74,50.18 C55.09,50.77 55.35,51.33 55.54,51.82 C55.75,52.29 55.9,52.79 56.02,53.16 C56.13,53.52 56.13,53.71 56.18,53.88 C56.21,54.04 56.22,54.13 56.22,54.13 C56.59,56.15 55.1,58.06 52.91,58.39 C51.34,58.64 49.83,58.01 48.96,56.89 Z" fill="#422B0D"/>
  <path d="M88.46,56.89 C88.46,56.89 88.41,56.82 88.3,56.69 C88.2,56.56 88.06,56.38 87.88,56.15 C87.73,55.99 87.55,55.8 87.34,55.58 C87.13,55.34 86.87,55.09 86.61,54.83 C86.34,54.58 86.06,54.32 85.77,54.11 C85.49,53.88 85.18,53.71 84.93,53.57 C84.67,53.41 84.43,53.37 84.28,53.32 C84.2,53.29 84.13,53.29 84.07,53.28 C84.04,53.29 84.01,53.27 83.98,53.28 L83.94,53.29 L83.92,53.29 L83.91,53.29 L83.9,53.29 L83.9,53.29 L83.9,53.29 C84.02,53.29 83.63,53.3 84.17,53.28 L83.62,53.3 C83.48,53.3 83.57,53.31 83.58,53.31 C83.61,53.31 83.63,53.31 83.65,53.3 C83.73,53.27 83.65,53.3 83.63,53.3 C83.6,53.3 83.56,53.31 83.52,53.33 C83.36,53.38 83.12,53.42 82.87,53.58 C82.62,53.72 82.31,53.89 82.03,54.12 C81.75,54.34 81.46,54.59 81.19,54.84 C80.67,55.35 80.21,55.86 79.89,56.23 C79.56,56.61 79.38,56.83 79.38,56.83 L79.15,57.1 C77.78,58.7 75.26,58.97 73.53,57.71 C72.35,56.85 71.84,55.51 72.06,54.23 C72.06,54.23 72.13,53.82 72.33,53.11 C72.54,52.4 72.89,51.39 73.58,50.2 C74.27,49.02 75.27,47.63 76.96,46.36 C77.79,45.74 78.8,45.12 80,44.7 C80.29,44.59 80.6,44.49 80.92,44.41 C81.25,44.33 81.51,44.24 81.96,44.18 L82.58,44.09 C82.77,44.07 83.05,44.04 83.09,44.04 L83.64,44 L83.95,43.99 L83.98,43.99 L84.04,43.99 L84.17,44 L84.41,44 L84.92,44.03 C85.26,44.06 85.59,44.12 85.92,44.17 C86.57,44.29 87.22,44.46 87.81,44.68 C89.01,45.1 90.02,45.71 90.85,46.34 C92.54,47.61 93.54,49 94.23,50.18 C94.58,50.77 94.84,51.33 95.03,51.82 C95.24,52.29 95.39,52.79 95.51,53.16 C95.62,53.52 95.62,53.71 95.67,53.88 C95.7,54.04 95.71,54.13 95.71,54.13 C96.08,56.15 94.59,58.06 92.4,58.39 C90.83,58.64 89.32,58.01 88.46,56.89 Z" fill="#422B0D"/>
  <path id="mouth_9_" d="M64.02,93.99 C51.45,93.99 41.51,88.04 36.03,81.67 C35.48,81.03 35.35,80.17 35.7,79.42 C36.05,78.65 36.81,78.15 37.63,78.15 L37.63,78.15 C38,78.15 38.38,78.25 38.71,78.44 C44.36,81.7 53.85,85.73 63.99,85.73 L64.15,85.73 C74.3,85.73 83.78,81.69 89.43,78.44 C89.77,78.25 90.14,78.14 90.51,78.15 L90.51,78.15 C91.33,78.15 92.09,78.65 92.44,79.42 C92.78,80.17 92.66,81.04 92.11,81.67 C86.63,88.03 76.68,93.99 64.12,93.99" fill="#422B0D"/>
</svg>