<svg viewBox="0 0 128 128" xmlns="http://www.w3.org/2000/svg">
  <defs>
    <linearGradient id="e" gradientTransform="matrix(1.0084 0 0 1 0 0)" gradientUnits="userSpaceOnUse" x1="40.039404" x2="40.039404" y1="114.68" y2="5.5791">
      <stop offset="0" stop-color="#A47B62"/>
      <stop offset="1" stop-color="#BA8D68"/>
    </linearGradient>
    <linearGradient id="d" gradientUnits="userSpaceOnUse" x1="-2.9132" x2="55.292" y1="103.73" y2="103.73">
      <stop offset="0" stop-color="#2196F3"/>
      <stop offset="1" stop-color="#64B5F6"/>
    </linearGradient>
    <linearGradient id="c" gradientTransform="matrix(-1.0084 0 0 1 0 0)" gradientUnits="userSpaceOnUse" x1="-86.446359" x2="-86.446359" y1="114.68" y2="5.5791">
      <stop offset="0" stop-color="#A47B62"/>
      <stop offset="1" stop-color="#BA8D68"/>
    </linearGradient>
    <linearGradient id="b" gradientTransform="matrix(-1 0 0 1 0 0)" gradientUnits="userSpaceOnUse" x1="-130.44" x2="-72.24" y1="103.73" y2="103.73">
      <stop offset="0" stop-color="#2196F3"/>
      <stop offset="1" stop-color="#64B5F6"/>
    </linearGradient>
  </defs>
  <path d="M18.39,90.92 C18.32,90.86 18.25,90.8 18.16,90.75 C17.97,90.63 17.85,90.47 17.82,90.27 C17.79,90.09 17.82,89.9 17.91,89.71 C20.73,88.37 37.32,80.43 41.51,76.62 C42.72,75.52 43.22,73.11 44.25,67.76 C44.47,66.6 44.71,65.36 44.97,64.06 C45.21,62.87 45.87,60.64 46.56,58.28 C47.51,55.04 48.5,51.69 48.83,49.69 C51.57,33.1 53.85,12.56 53.87,12.35 C54.37,7.61 55.43,5.59 57.42,5.59 C60.59,5.59 62.73,7.49 62.73,10.33 L62.94,89.36 C62.94,94.67 61.13,95.36 58.62,96.32 C57.16,96.88 55.5,97.51 54.3,99.12 C52,102.2 49.54,106.27 47.16,110.22 C46.26,111.72 45.33,113.25 44.43,114.7 Z" fill="url(#e)"/>
  <path d="M57.43,4.08 C61.65,4.08 64.23,6.88 64.23,10.32 L64.44,89.34 C64.44,99 58.25,96.32 55.5,100 C52.06,104.6 48.25,111.5 44.75,117 L17.38,92.02 C16.17,91.28 15.96,89.71 16.9,88.52 C16.9,88.52 36.14,79.47 40.51,75.5 C41.65,74.46 42.28,69.79 43.51,63.75 C44.09,60.87 46.8,52.82 47.36,49.43 C50.12,32.69 52.39,12.17 52.39,12.17 C52.73,8.95 53.46,4.08 57.43,4.08 Z M57.43,7.08 C56.42,7.08 55.75,8.85 55.36,12.5 C55.34,12.73 53.05,33.31 50.31,49.94 C49.97,52.03 48.97,55.42 48,58.71 C47.35,60.93 46.67,63.23 46.44,64.36 C46.18,65.66 45.94,66.9 45.72,68.05 C44.71,73.33 44.15,76.25 42.52,77.73 C38.63,81.27 25.16,87.9 20.01,90.37 L44.11,112.36 C44.7,111.39 45.29,110.4 45.88,109.43 C48.28,105.46 50.75,101.35 53.1,98.21 C54.57,96.25 56.52,95.51 58.09,94.91 C60.4,94.03 61.45,93.63 61.45,89.35 L61.24,10.33 C61.24,8.32 59.78,7.08 57.43,7.08 Z" fill="#91674D"/>
  <path d="M43.93,124 L4,124 L4,88.425 L29.38,77.03 C30.87,76.37 32.6,77.2 33,78.78 C33.95,82.49 36.16,89.07 41,95.67 C45.56,101.89 50.48,106.69 53.54,109.43 C55.3,111.01 55.8,113.56 54.75,115.68 Z" fill="url(#d)"/>
  <path d="M51.612,17.843 Q51.849,16.354 52.745,14.892 Q54.623,11.83 58.12,11.83 Q61.667,11.83 63.281,14.956 Q64.045,16.436 64.138,17.938 Q64.2,18.936 63.202,18.998 Q62.204,19.06 62.142,18.062 Q61.88,13.83 58.12,13.83 Q54.274,13.83 53.588,18.157 Q53.431,19.144 52.443,18.988 Q51.95,18.909 51.742,18.623 Q51.534,18.337 51.612,17.843 Z" fill="#91674D"/>
  <path d="M50.126,30.821 Q50.418,29.221 51.399,27.646 Q53.452,24.35 57.12,24.35 Q60.779,24.35 62.889,27.634 Q63.898,29.205 64.22,30.802 Q64.418,31.782 63.438,31.98 Q62.948,32.079 62.653,31.884 Q62.359,31.688 62.26,31.198 Q61.282,26.35 57.12,26.35 Q52.974,26.35 52.094,31.179 Q52.004,31.671 51.713,31.872 Q51.423,32.073 50.931,31.984 Q50.439,31.894 50.238,31.603 Q50.037,31.313 50.126,30.821 Z" fill="#91674D"/>
  <path d="M30.21,79.95 L4,91.726 L4,88.429 L29.39,77.03 C29.74,76.87 30.1,76.8 30.46,76.8 C31.61,76.8 32.7,77.57 33,78.78 C33.95,82.5 36.16,89.08 41,95.67 C45.57,101.9 50.48,106.69 53.54,109.43 C55.31,111 55.8,113.56 54.75,115.68 L43.331,124 L39.646,124 C39.787,123.245 40.204,122.578 40.83,122.12 L52.25,113.79 C52.4,113.02 52.14,112.2 51.54,111.66 C48.19,108.66 43.22,103.76 38.58,97.44 C33.56,90.59 31.21,83.7 30.21,79.95 Z" fill="#424242" opacity="0.2"/>
  <path d="M83.09,114.68 C82.19,113.22 81.26,111.69 80.36,110.2 C77.98,106.26 75.53,102.18 73.22,99.1 C72.02,97.49 70.36,96.86 68.9,96.3 C66.39,95.34 64.58,94.65 64.58,89.34 L64.79,10.32 C64.79,7.48 66.92,5.58 70.1,5.58 C72.09,5.58 73.15,7.6 73.65,12.33 C73.67,12.54 75.96,33.09 78.69,49.68 C79.02,51.68 80.01,55.03 80.96,58.27 C81.65,60.63 82.31,62.86 82.55,64.05 C82.82,65.36 83.05,66.61 83.28,67.77 C84.3,73.11 84.8,75.51 86.01,76.61 C90.2,80.42 106.79,88.36 109.61,89.7 C109.7,89.89 109.74,90.09 109.71,90.26 C109.67,90.46 109.56,90.63 109.37,90.74 C109.29,90.79 109.21,90.85 109.14,90.91 Z" fill="url(#c)"/>
  <path d="M70.1,4.08 C74.07,4.08 74.81,8.95 75.13,12.18 C75.13,12.18 77.4,32.7 80.16,49.44 C80.72,52.83 83.43,60.88 84.01,63.76 C85.24,69.8 85.87,74.47 87.01,75.51 C91.38,79.48 110.62,88.53 110.62,88.53 C111.57,89.72 111.35,91.29 110.14,92.03 L82.77,117 C79.27,111.5 75.46,104.6 72.02,100 C69.27,96.32 63.08,99 63.08,89.34 L63.29,10.32 C63.29,6.88 65.88,4.08 70.1,4.08 Z M70.1,7.08 C67.75,7.08 66.29,8.32 66.28,10.32 L66.07,89.35 C66.07,93.62 67.13,94.02 69.43,94.9 C71,95.5 72.96,96.24 74.42,98.2 C76.77,101.34 79.24,105.45 81.64,109.42 C82.22,110.39 82.82,111.38 83.41,112.35 L107.51,90.36 C102.36,87.89 88.89,81.26 85,77.72 C83.37,76.24 82.81,73.33 81.8,68.04 C81.58,66.89 81.34,65.65 81.08,64.35 C80.85,63.22 80.17,60.92 79.52,58.7 C78.55,55.41 77.55,52.01 77.21,49.92 C74.47,33.29 72.18,12.71 72.16,12.5 C71.78,8.85 71.1,7.08 70.1,7.08 Z" fill="#91674D"/>
  <path d="M124,88.64 L124,124 L83.59,124 L72.77,115.68 C71.72,113.56 72.22,111.01 73.98,109.43 C77.04,106.69 81.96,101.89 86.52,95.67 C91.36,89.07 93.57,82.49 94.52,78.78 C94.92,77.2 96.65,76.37 98.14,77.03 Z" fill="url(#b)"/>
  <path d="M73.942,18.157 Q73.256,13.83 69.41,13.83 Q65.65,13.83 65.388,18.062 Q65.357,18.561 65.092,18.795 Q64.827,19.029 64.328,18.998 Q63.33,18.936 63.392,17.938 Q63.485,16.435 64.25,14.955 Q65.864,11.83 69.41,11.83 Q72.907,11.83 74.785,14.892 Q75.682,16.354 75.918,17.843 Q76.074,18.831 75.087,18.988 Q74.593,19.066 74.307,18.858 Q74.021,18.65 73.942,18.157 Z" fill="#91674D"/>
  <path d="M75.436,31.179 Q74.556,26.35 70.41,26.35 Q66.24,26.35 65.271,31.196 Q65.173,31.686 64.878,31.883 Q64.584,32.079 64.094,31.981 Q63.113,31.784 63.309,30.804 Q63.629,29.206 64.637,27.635 Q66.745,24.35 70.41,24.35 Q74.078,24.35 76.131,27.646 Q77.112,29.221 77.404,30.821 Q77.493,31.313 77.292,31.603 Q77.091,31.894 76.599,31.984 Q76.107,32.073 75.817,31.872 Q75.526,31.671 75.436,31.179 Z" fill="#91674D"/>
  <path d="M97.32,79.95 C96.32,83.7 93.97,90.59 88.96,97.43 C84.32,103.75 79.35,108.65 76,111.65 C75.39,112.19 75.14,113.01 75.29,113.78 L86.71,122.11 C87.339,122.57 87.756,123.241 87.896,124 L84.189,124 L72.77,115.68 C71.72,113.56 72.22,111.01 73.98,109.43 C77.04,106.69 81.96,101.89 86.52,95.67 C91.36,89.07 93.57,82.49 94.52,78.78 C94.83,77.57 95.91,76.8 97.07,76.8 C97.43,76.8 97.79,76.87 98.14,77.03 L124,88.644 L124,91.924 Z" fill="#424242" opacity="0.2"/>
</svg>