<svg viewBox="0 0 128 128" xmlns="http://www.w3.org/2000/svg">
  <defs>
    <radialGradient id="face_1_" cx="63.6" cy="62.8999" gradientUnits="userSpaceOnUse" r="56.9597">
      <stop offset="0.5" stop-color="#FDE030"/>
      <stop offset="0.92" stop-color="#F7C02B"/>
      <stop offset="1" stop-color="#F4A223"/>
    </radialGradient>
  </defs>
  <path id="face" d="M63.6,118.8 C35.7,118.8 5.6,101.3 5.6,62.9 C5.6,24.5 35.7,7 63.6,7 C79.1,7 93.4,12.1 104,21.4 C115.5,31.6 121.6,46 121.6,62.9 C121.6,79.8 115.5,94.1 104,104.3 C93.4,113.6 79,118.8 63.6,118.8 Z" fill="url(#face_1_)"/>
  <path d="M111.49,29.67 C116.82,38.27 119.6,48.51 119.6,59.9 C119.6,76.8 113.5,91.1 102,101.3 C91.4,110.6 77,115.8 61.6,115.8 C43.54,115.8 24.6,108.45 13.42,92.86 C24.18,110.52 44.42,118.8 63.6,118.8 C79,118.8 93.4,113.6 104,104.3 C115.5,94.1 121.6,79.8 121.6,62.9 C121.6,50.16 118.13,38.84 111.49,29.67 Z" fill="#EB8F00"/>
  <path d="M64,0 C31,0 4.2,6.77 4.2,15.12 C4.2,23.47 19.38,32.25 64,32.25 C106.16,32.25 123.75,23.48 123.75,15.12 C123.75,6.76 97,0 64,0 Z M64,21.44 C38.48,21.44 17.78,19.44 17.78,14.52 C17.78,9.6 38.48,4.52 64,4.52 C89.52,4.52 110.22,9.64 110.22,14.57 C110.22,19.5 89.48,21.44 64,21.44 Z" fill="#4FC3F7"/>
  <path id="mouth" d="M63,91.61 C53.93,91.68 45.27,87.87 39.2,81.13 C38.74,80.6 38.63,79.85 38.92,79.21 C39.21,78.56 39.85,78.14 40.56,78.13 L40.56,78.13 C40.88,78.13 41.2,78.22 41.48,78.38 C46.3,81.15 54.36,84.59 63,84.59 L63.14,84.59 C71.77,84.59 79.84,81.15 84.65,78.38 C84.93,78.22 85.25,78.13 85.57,78.13 L85.57,78.13 C86.28,78.14 86.92,78.56 87.21,79.21 C87.51,79.85 87.4,80.6 86.93,81.13 C80.86,87.87 72.18,91.69 63.11,91.61" fill="#422B0D"/>
  <path d="M49,56.89 L48.85,56.69 L48.42,56.14 L47.89,55.57 C47.67,55.32 47.41,55.08 47.16,54.82 C46.91,54.56 46.6,54.31 46.32,54.1 C46.06,53.9 45.78,53.71 45.48,53.56 C45.28,53.45 45.06,53.36 44.83,53.31 C44.76,53.3 44.69,53.3 44.62,53.31 C44.62,53.31 44.56,53.31 44.53,53.31 L44.45,53.31 C44.57,53.31 44.18,53.31 44.72,53.31 L44.17,53.31 C44.02,53.31 44.12,53.31 44.17,53.31 L44.25,53.31 C44.33,53.31 44.25,53.31 44.25,53.31 L44.14,53.31 C43.91,53.36 43.69,53.44 43.48,53.56 C43.19,53.72 42.9,53.9 42.64,54.1 C42.35,54.32 42.07,54.56 41.81,54.82 C41.28,55.33 40.81,55.82 40.51,56.21 L39.99,56.81 L39.76,57.08 C38.32,58.69 35.89,58.95 34.14,57.69 C33.02,56.91 32.45,55.56 32.67,54.21 C32.67,54.21 32.74,53.81 32.93,53.1 C33.23,52.09 33.65,51.11 34.18,50.19 C35.03,48.69 36.18,47.38 37.56,46.34 C38.47,45.64 39.48,45.08 40.56,44.69 C40.86,44.57 41.17,44.48 41.48,44.4 C41.81,44.3 42.14,44.23 42.48,44.17 L43.09,44.08 L43.6,44.02 L44.15,44.02 L44.94,44.02 L45.45,44.02 C45.79,44.02 46.12,44.11 46.45,44.16 C47.09,44.27 47.73,44.44 48.34,44.67 C49.42,45.06 50.43,45.62 51.34,46.32 C52.72,47.36 53.87,48.67 54.72,50.17 C55.03,50.69 55.3,51.24 55.52,51.8 C55.71,52.25 55.87,52.7 56,53.17 C56.07,53.41 56.13,53.65 56.16,53.89 L56.16,54.14 C56.46,56.18 55.04,58.08 53,58.38 C52.95,58.39 52.9,58.39 52.85,58.4 C51.39,58.61 49.93,58.03 49,56.89 Z" fill="#422B0D"/>
  <path d="M88.46,56.89 L88.3,56.69 L87.87,56.14 L87.34,55.57 C87.12,55.32 86.86,55.08 86.61,54.82 C86.36,54.56 86.05,54.31 85.77,54.1 C85.51,53.9 85.23,53.71 84.93,53.56 C84.73,53.45 84.51,53.36 84.28,53.31 C84.21,53.3 84.14,53.3 84.07,53.31 C84.07,53.31 84.01,53.31 83.98,53.31 L83.9,53.31 C84.02,53.31 83.63,53.31 84.17,53.31 L83.62,53.31 C83.47,53.31 83.57,53.31 83.62,53.31 L83.7,53.31 C83.78,53.31 83.7,53.31 83.7,53.31 L83.59,53.31 C83.36,53.36 83.14,53.44 82.93,53.56 C82.64,53.71 82.36,53.9 82.1,54.1 C81.8,54.32 81.52,54.56 81.26,54.82 C80.73,55.33 80.26,55.82 79.96,56.21 L79.44,56.81 L79.22,57.08 C77.77,58.69 75.35,58.95 73.59,57.69 C72.47,56.91 71.9,55.56 72.12,54.21 C72.12,54.21 72.19,53.81 72.39,53.1 C72.69,52.08 73.1,51.1 73.64,50.19 C74.49,48.69 75.63,47.38 77.01,46.34 C77.92,45.64 78.93,45.08 80.01,44.69 C80.31,44.57 80.62,44.48 80.93,44.4 C81.26,44.3 81.59,44.23 81.93,44.17 L82.55,44.08 L83.05,44.02 L83.6,44.02 L84.39,44.02 L84.9,44.02 C85.24,44.02 85.57,44.11 85.9,44.16 C86.55,44.27 87.18,44.44 87.79,44.67 C88.87,45.06 89.88,45.62 90.79,46.32 C92.17,47.36 93.32,48.67 94.17,50.17 C94.48,50.69 94.75,51.24 94.97,51.8 C95.16,52.24 95.32,52.69 95.45,53.15 C95.52,53.39 95.58,53.63 95.61,53.87 L95.61,54.12 C95.93,56.16 94.53,58.07 92.49,58.39 C92.46,58.39 92.43,58.4 92.4,58.4 C90.91,58.65 89.4,58.07 88.46,56.89 Z" fill="#422B0D"/>
</svg>