<svg viewBox="0 0 128 128" xmlns="http://www.w3.org/2000/svg">
  <defs/>
  <path d="M116,4 L12,4 C7.58,4 4,7.58 4,12 L4,116 C4,120.42 7.58,124 12,124 L116,124 C120.42,124 124,120.42 124,116 L124,12 C124,7.58 120.42,4 116,4 Z" fill="#8E24AA"/>
  <path d="M109.7,4 L11.5,4 C7.37,4.03 4.03,7.37 4,11.5 L4,109.4 C3.99,113.54 7.34,116.89 11.48,116.9 C11.49,116.9 11.49,116.9 11.5,116.9 L109.6,116.9 C113.74,116.91 117.09,113.56 117.1,109.42 C117.1,109.41 117.1,109.41 117.1,109.4 L117.1,11.5 C117.19,7.45 113.97,4.09 109.92,4 C109.85,4 109.77,4 109.7,4 Z" fill="#AB47BC"/>
  <path d="M39.7,12.9 C39.7,10.6 38.1,9.9 28.9,10.2 C21.2,10.5 17.4,11.4 15.1,14.2 C12.8,17 12.2,22.7 12.1,29.5 C12.1,34.3 12.1,38.8 14.6,38.8 C18,38.8 18,30.9 20.8,26.5 C26.2,17.8 39.7,15.9 39.7,12.9 Z" fill="#B982CA" opacity="0.65"/>
  <path d="M19,33.6 C17.34,33.56 16.03,32.19 16.07,30.54 C16.1,29.2 17.01,28.05 18.3,27.7 L60.4,16.4 C62.8,15.8 65.3,15.8 67.7,16.4 L109.8,27.7 C111.44,27.92 112.6,29.42 112.38,31.07 C112.16,32.71 110.66,33.87 109.01,33.65 C108.8,33.62 108.59,33.57 108.4,33.5 L66.2,22.3 C64.76,21.9 63.24,21.9 61.8,22.3 L19.7,33.5 C19.48,33.58 19.24,33.62 19,33.6 Z" fill="#FAFAFA"/>
  <path d="M39.7,12.9 C39.7,10.6 38.1,9.9 28.9,10.2 C21.2,10.5 17.4,11.4 15.1,14.2 C12.8,17 12.2,22.7 12.1,29.5 C12.1,34.3 12.1,38.8 14.6,38.8 C18,38.8 18,30.9 20.8,26.5 C26.2,17.8 39.7,15.9 39.7,12.9 Z" fill="#B982CA" opacity="0.3"/>
  <path d="M87.5,102.8 L72.3,102.8 C71.97,102.8 71.71,102.54 71.71,102.21 C71.71,102 71.82,101.8 72,101.7 C72,101.7 81.5,96.1 81.6,96.1 C85,94.3 87.1,90.7 86.1,86.9 L78.3,59.8 C77.15,55.61 72.82,53.14 68.63,54.29 C68.62,54.29 68.61,54.3 68.6,54.3 C67.39,54.66 66.26,55.28 65.3,56.1 C65.01,56.3 64.74,56.54 64.5,56.8 L54.2,66.9 C53.5,67.62 52.35,67.64 51.63,66.94 C51.59,66.9 51.54,66.85 51.5,66.8 L41.9,55.4 C40.62,53.83 38.31,53.59 36.74,54.87 C36.73,54.88 36.72,54.89 36.7,54.9 C35.19,56.14 34.97,58.38 36.21,59.9 C36.24,59.94 36.27,59.97 36.3,60 L49.4,75.6 C49.6,75.8 49.7,76.1 49.9,76.3 C50.5,76.87 51.28,77.22 52.1,77.3 L52.7,77.3 C53.53,77.28 54.34,77 55,76.5 C55.22,76.29 55.43,76.05 55.6,75.8 L62.9,68.5 C63.23,68.14 63.79,68.13 64.14,68.46 C64.27,68.58 64.36,68.73 64.4,68.9 L70.1,88.8 C70.57,90.4 69.92,92.12 68.5,93 L51.4,103.4 L51.3,103.5 C51.2,103.6 51,103.7 50.9,103.8 L50.6,104.1 L50.3,104.4 L50,104.7 C49.89,104.81 49.83,104.95 49.8,105.1 C49.68,105.2 49.6,105.34 49.6,105.5 C49.5,105.6 49.5,105.8 49.4,105.9 C49.3,106 49.3,106.2 49.3,106.3 C49.31,106.44 49.28,106.58 49.2,106.7 L49.2,108.1 C49.2,108.3 49.3,108.4 49.3,108.5 C49.3,108.6 49.4,108.8 49.4,108.9 C49.4,109 49.6,109.2 49.6,109.4 C49.61,109.48 49.65,109.55 49.7,109.6 C49.7,109.66 49.74,109.7 49.8,109.7 C49.87,109.85 49.98,109.99 50.1,110.1 C50.2,110.2 50.3,110.3 50.3,110.4 C50.41,110.52 50.55,110.63 50.7,110.7 L51,111 C51.11,111.11 51.25,111.17 51.4,111.2 C51.5,111.3 51.6,111.3 51.8,111.4 C52,111.5 52.1,111.5 52.3,111.6 C52.5,111.7 52.6,111.7 52.7,111.7 C52.84,111.69 52.98,111.72 53.1,111.8 C53.27,111.78 53.45,111.82 53.6,111.9 L87.7,111.9 C90.27,111.88 92.34,109.77 92.32,107.2 C92.32,107.07 92.31,106.93 92.3,106.8 C91.91,104.46 89.87,102.76 87.5,102.8 L87.5,102.8 Z" fill="#FAFAFA"/>
  <path d="M72.2,43 A9 9 0 1 1 54.2,43 A9 9 0 1 1 72.2,43 Z" fill="#FAFAFA"/>
</svg>