<svg viewBox="0 0 128 128" xmlns="http://www.w3.org/2000/svg">
  <defs/>
  <path d="M57.9,96.09 C55.7,96.09 20.62,105.56 20.03,105.76 C19.26,106.03 19,107.02 20.27,107.37 C21.54,107.72 79.81,123.78 80.39,123.78 C80.97,123.78 112.23,109.25 112.8,109.02 C113.38,108.79 112.68,107.41 111.65,107.06 C110.61,106.7 60.78,96.09 57.9,96.09 Z" fill="#5E6268"/>
  <path d="M58.12,117.76 L95.04,103.38 L100.76,104.65 L63.89,119.2 Z" fill="#C8C8C8"/>
  <path d="M96.49,105.49 L112.8,109.01 L109.23,110.66 L91.74,106.69 Z" fill="#C8C8C8"/>
  <path d="M89.75,108.07 L106.23,112.04 L102.44,113.79 L85.48,109.76 Z" fill="#C8C8C8"/>
  <path d="M80.49,111.44 L97.87,115.89 L93.78,117.76 L76.52,113.18 Z" fill="#C8C8C8"/>
  <path d="M67.08,117.03 L85,121.78 L89.99,119.5 L72.01,115.17 Z" fill="#C8C8C8"/>
  <path d="M56.05,101.89 C53.24,101.24 51.32,100.79 51.32,100.79 L44.22,102.35 L49.85,103.76 C51.89,103.14 54.14,102.46 56.05,101.89 Z" fill="#C8C8C8"/>
  <path d="M67.47,104.52 C65.5,104.07 63.45,103.6 61.5,103.15 L55.62,105.21 L61.59,106.7 L67.47,104.52 Z" fill="#C8C8C8"/>
  <path d="M72.62,105.69 L66.77,108 L71.89,109.28 L78.14,106.87 C77.55,106.78 75.42,106.31 72.62,105.69 Z" fill="#C8C8C8"/>
  <path d="M23.6,47.53 C23.55,48.02 33.2,66.27 33.39,66.21 C33.58,66.15 40.46,64.98 40.46,64.98 L44.68,60.25 C44.68,60.25 28.46,44.49 27.95,44.49 C27.42,44.48 23.66,46.88 23.6,47.53 Z" fill="#014EAC"/>
  <path d="M99.39,50.94 C99.39,50.94 105.57,50.59 109.9,50.24 C114.8,49.84 119.77,48.74 119.77,48.74 C119.77,48.74 119.71,46.52 119.89,46.12 C120.2,45.42 121.61,44.4 121.96,44.4 C122.31,44.4 124.12,46.46 124.99,48.08 C126.06,50.06 125.24,51.56 123.01,52.61 C118.76,54.61 109.52,57.64 93.4,59.48 C68.83,62.29 99.39,50.94 99.39,50.94 Z" fill="#006CA8"/>
  <path d="M51.13,66.59 L33.63,73.02 C33.63,73.02 50.43,74.69 57.22,73.02 C61.17,72.05 73.88,67.56 92.57,57.09 C110.98,46.77 117.61,39.37 118.81,37.89 C120.28,36.09 120.89,34.15 119.9,33.03 C119.02,32.04 116.49,32.04 116.49,32.04 L51.13,66.59 Z" fill="#B0B0B0"/>
  <path d="M29.59,68.7 C29.59,68.7 31.16,67.17 32.98,65.8 C37.47,62.42 40.93,60.92 40.93,60.92 L51.85,53.73 C51.85,53.73 96.62,30.96 99.33,29.78 C102.04,28.6 104.68,27.59 107.75,27.92 C110.65,28.23 111.96,29.64 111.96,29.64 L113.8,31.65 C113.8,31.65 115.82,31.49 118.03,32.09 C119.46,32.47 119.91,33.04 119.91,33.04 C119.91,33.04 103.61,45.63 91.02,53.05 C78.43,60.47 57.41,72.18 48.52,73.08 C39.63,73.98 30.16,72.6 30.16,72.6 L29.59,68.7 Z" fill="#C8C8C8"/>
  <path d="M11.14,71.22 C11.22,72.66 12.05,72.66 16.96,72.66 C22.03,72.66 31.93,72.81 32.68,72.81 C33.44,72.81 36.46,71.6 36.61,69.41 C36.72,67.82 36.31,67.07 35.25,67.07 C34.19,67.07 32.68,67.83 31.09,68.13 C29.5,68.43 16.27,69.57 14.61,69.72 C12.96,69.85 11.07,69.85 11.14,71.22 Z" fill="#006CA8"/>
  <path d="M95.21,60.4 C95.21,60.4 97.65,57.79 100.02,55.7 C102.4,53.61 105.71,51.31 106.7,51.25 C108.74,51.12 111.86,52.14 112.78,55.67 C113.7,59.2 111.56,61.09 110.65,61.71 C109.37,62.58 103.26,66.88 99.32,66.01 C94.24,64.91 95.21,60.4 95.21,60.4 Z" fill="#9A9A9A"/>
  <path d="M106.74,52.81 C105.69,53.28 104.88,55.01 106.28,57.74 C107.67,60.47 109.44,60.75 110.45,60.06 C111.55,59.31 111.45,56.83 110.68,55.19 C109.82,53.33 107.9,52.29 106.74,52.81 Z" fill="#5E6269"/>
  <path d="M70.01,49.95 C68.87,50.29 68.86,51.71 68.97,52.2 C69.27,53.62 71.35,53.41 71.35,53.41 C71.35,53.41 72.03,52.2 71.66,51.08 C71.47,50.49 70.98,49.66 70.01,49.95 Z" fill="#3B5361"/>
  <path d="M4.42,50.88 C3.29,50.97 3.14,56.85 3.21,58.29 C3.29,59.73 4.12,60.78 6.84,61.09 C9.56,61.4 51.36,62.53 55.97,62.53 C60.58,62.53 71.92,60.26 71.92,60.26 C71.92,60.26 77.66,57.09 79.4,55.95 C81.14,54.82 84.82,52.82 82.69,51.26 C81.87,50.66 65.41,52.78 47.28,54.21 C28.17,55.71 18.33,56.86 8.43,56.48 C8.42,56.48 5.32,50.81 4.42,50.88 Z" fill="#006CA8"/>
  <path d="M55.37,65.8 C57.24,69.24 61.81,68.76 64.65,67.42 C67.49,66.09 71.3,64.29 71.72,63.94 C72.14,63.59 73.4,60 71.2,56.29 C69,52.58 66.12,52.6 65.29,52.7 C64.45,52.8 59.8,55.91 57.93,57.45 C55.89,59.13 53.52,62.38 55.37,65.8 Z" fill="#9A9A9A"/>
  <path d="M65.39,54.33 C63.85,54.8 64.05,58.29 65.39,60.48 C66.78,62.74 68.52,63.84 69.85,63.21 C71.18,62.57 71.01,60.03 69.85,57.59 C68.63,55.02 66.72,53.92 65.39,54.33 Z" fill="#5E6269"/>
  <path d="M112.04,29.66 C112.04,29.66 110.17,29.59 106.98,31.56 C103.79,33.53 102.8,35.78 103.67,36.41 C104.63,37.1 106.49,35.07 109.26,33.65 C111.53,32.48 113.78,31.62 113.78,31.62 L112.04,29.66 Z" fill="#3B5361"/>
  <path d="M76.37,46.72 C75.52,46.95 75.19,47.94 75.34,48.93 C75.49,49.92 76.25,50.37 76.94,50.15 C77.62,49.92 78.08,49.35 78,48.21 C77.93,47.11 77.36,46.46 76.37,46.72 Z" fill="#3B5361"/>
  <path d="M82.71,43.29 C81.59,43.67 81.54,44.63 81.62,45.36 C81.74,46.4 82.53,46.92 83.29,46.73 C84.05,46.54 84.39,45.56 84.23,44.65 C84.08,43.74 83.55,43.01 82.71,43.29 Z" fill="#3B5361"/>
  <path d="M89.06,40.03 C88.24,40.27 87.82,41.05 87.93,42.19 C88.02,43.17 88.7,44.1 89.52,43.75 C90.36,43.38 90.74,42.68 90.56,41.37 C90.42,40.45 89.93,39.77 89.06,40.03 Z" fill="#3B5361"/>
  <path d="M95.19,37.1 C94.21,37.47 93.97,38.2 93.97,39.08 C93.97,40.19 94.76,40.97 95.62,40.73 C96.69,40.43 96.92,39.17 96.84,38.53 C96.71,37.62 96.07,36.77 95.19,37.1 Z" fill="#3B5361"/>
  <path d="M44.79,63.81 C44.06,64.06 43.64,64.83 43.79,65.88 C43.94,66.93 44.73,67.13 45.3,67.1 C45.86,67.07 46.47,66.21 46.37,65.01 C46.3,64.13 45.53,63.55 44.79,63.81 Z" fill="#3B5361"/>
  <path d="M96.61,32.65 C95.82,33.02 64.29,49.85 63.51,50.3 C62.73,50.75 62.63,51.25 62.91,51.73 C63.19,52.21 64.23,51.79 64.82,51.51 C65.41,51.23 97.05,34.62 97.5,34.35 C97.94,34.08 98.55,33.5 98.17,32.75 C97.92,32.24 97.18,32.39 96.61,32.65 Z" fill="#E0E0DF"/>
  <path d="M99.65,31.03 C99.12,31.33 98.64,31.81 98.91,32.38 C99.18,32.95 99.88,32.91 100.45,32.61 C101.02,32.32 101.42,31.85 101.21,31.28 C101,30.71 100.22,30.71 99.65,31.03 Z" fill="#E0E0DF"/>
</svg>