<svg viewBox="0 0 128 128" xmlns="http://www.w3.org/2000/svg">
  <defs/>
  <path d="M82.02,119.67 C81.69,119.62 76.51,119.6 69.4,119.6 L64.71,104.1 L60.44,105.21 L64.46,119.6 C56.17,119.6 46.42,119.6 38.65,119.59 L43.37,105.36 L38.3,105.36 L33.66,119.58 C28.68,119.57 25.24,119.55 24.78,119.51 C22.88,119.35 20.59,117.93 19.64,117.38 C18.69,116.83 16.95,114.61 15.29,116.43 C13.63,118.25 16.49,120.48 18.45,121.73 C21.3,123.55 24.54,123.71 26.44,123.71 C28.34,123.71 81.47,123.79 82.18,123.71 C82.89,123.63 83.84,122.52 83.84,121.73 C83.84,120.94 83.27,119.85 82.02,119.67 Z" fill="#FEB804"/>
  <path d="M103.92,47.96 C103.21,47.88 61.15,47.25 61.15,47.25 C61.15,47.25 60.18,45.74 57.55,45.02 C59.68,44.92 61.3,44.76 61.39,44.57 C62.02,43.15 58.94,40.78 54.12,40.7 C49.61,40.63 46.37,42.99 46.77,44.73 C46.83,44.99 48.79,45.11 51.26,45.14 C48.71,45.93 47.56,47.42 47.56,47.42 C47.56,47.42 6.28,49.07 5.09,49.15 C3.9,49.23 2.96,49.62 2.96,50.57 C2.96,51.52 3.51,52.31 4.54,52.31 C5.57,52.31 44.54,50.89 44.54,50.89 C44.54,50.89 26.59,55.95 25.49,56.27 C24.38,56.59 22.96,56.98 23.12,57.93 C23.28,58.88 24.7,58.8 25.57,58.56 C26.44,58.32 51.34,52.16 51.34,52.16 L51.34,59.03 C49.22,59.02 47.48,59.08 47.23,59.27 C46.48,59.85 45.74,62.58 45.41,64.96 C45.01,67.81 44.94,70.81 44.94,70.81 L55.85,71.44 L60.12,59.26 C60.12,59.26 59.08,59.21 57.59,59.16 L57.59,52.62 C57.59,52.62 84.23,59.42 84.94,59.58 C85.65,59.74 86.84,59.66 86.92,58.95 C87,58.24 86.84,57.61 85.89,57.21 C84.94,56.81 64.39,50.96 64.39,50.96 C64.39,50.96 101.63,50.96 103.29,50.88 C104.95,50.8 105.42,50.33 105.42,49.38 C105.42,48.44 104.63,48.04 103.92,47.96 Z" fill="#5E6367"/>
  <path d="M16.64,89.07 L14.43,91.13 L11.43,95.4 C11.43,95.4 9.93,99.35 14.75,102.36 C19.57,105.36 25.66,107.66 46.69,107.18 C67.72,106.71 76.89,102.67 80.84,97.77 C84.79,92.87 85.11,88.6 85.11,88.6 L91.67,82.28 L105.98,82.52 C105.98,82.52 111.36,97.23 111.51,97.54 C111.67,97.86 115.38,97.86 115.38,97.86 L118.15,90.03 C118.15,90.03 117.75,81.25 117.99,80.31 C118.23,79.36 125.26,57.38 125.11,56.59 C124.96,55.8 124.8,55.76 124.25,55.73 C123.7,55.69 122.27,55.77 122.27,55.77 L107.87,71.1 L106.73,73.71 L103.86,74.18 L82.88,72.44 C82.88,72.44 82.88,70.64 82.35,69.03 C81.82,67.43 80.41,64.75 80.41,64.75 L51.06,66.66 L49.01,69.83 L39.19,74.91 L16.64,89.07 Z" fill="#FFA62D"/>
  <path d="M114.24,55.7 C114.04,56.04 107.88,71.1 107.88,71.1 L115.6,91.05 C115.6,91.05 115.5,91.79 114.67,91.97 C113.84,92.15 112.11,90.9 112.11,90.9 L114.8,97.84 C114.8,97.84 121.4,97.84 121.46,97.6 C121.52,97.36 116.93,76.6 116.93,76.13 C116.93,75.66 122.94,55.53 122.94,55.53 C122.94,55.53 114.41,55.4 114.24,55.7 Z" fill="#FFD61C"/>
  <path d="M76.55,74.82 C76.55,74.82 79.53,76.67 81.31,78.81 C82.88,80.69 84.88,83.87 84.88,83.87 L91.49,78.63 L107.09,79.34 C107.09,79.34 106.93,76.33 106.79,75.65 C106.61,74.76 106.19,73.63 106.19,73.63 L82.85,72.02 L76.55,74.82 Z" fill="#FFD61C"/>
  <path d="M51.06,66.66 C51.06,66.66 56,67.35 64.46,67.85 C71.55,68.27 76.79,68.62 78.99,67.49 C80.51,66.71 80.96,65.88 80.96,65.88 C80.96,65.88 78.76,61.18 77.86,60.64 C76.97,60.1 65.84,58.76 60.12,59.27 C55.35,59.69 51.06,66.66 51.06,66.66 Z" fill="#FFD61C"/>
  <path d="M81.69,83.76 C81.69,83.76 72.66,69.43 49.93,69.85 C27.21,70.28 23.15,87.34 23.15,87.34 L31.25,89.83 C31.25,89.83 31.68,92.1 30.5,92.39 C29.33,92.68 19.12,92.62 17.6,92.57 C14.92,92.47 14.78,90.61 14.78,90.61 C14.78,90.61 13.32,91.72 12.56,92.93 C11.8,94.14 11.41,95.39 11.41,95.39 C11.41,95.39 12.15,97.58 16.04,99.24 C19.93,100.91 31.01,103.14 46.7,103.04 C62.39,102.94 75.71,99.29 79.46,93.27 C83.22,87.27 81.69,83.76 81.69,83.76 Z M47,92.38 C46.18,93.03 38.77,93.3 37.6,92.24 C36.66,91.39 37.67,89.58 37.67,89.58 L40.95,87.53 C40.95,87.53 47.67,88.31 47.7,89.41 C47.72,90.35 47.58,91.92 47,92.38 Z M63.48,92.75 C62.19,93.16 56.79,93.28 55.62,93.16 C54.45,93.04 53.51,93.07 52.92,92.01 C52.33,90.95 52.69,89.17 52.69,89.17 L65.61,86.73 C65.61,86.73 65.62,88.81 65.49,90.17 C65.37,91.35 64.55,92.41 63.48,92.75 Z" fill="#FFD61C"/>
  <path d="M41.55,75.6 C40.64,76.37 37.1,89.33 37.67,89.58 C38.23,89.83 47.16,89.89 47.7,89.4 C48.24,88.91 49.44,75.76 49.04,75.36 C48.64,74.97 42.29,74.97 41.55,75.6 Z" fill="#5E6367"/>
  <path d="M53.84,75.88 C53.38,76.22 52.51,89.36 52.7,89.88 C52.94,90.54 55.33,90.39 58.82,90.39 C62.31,90.39 65.45,89.7 65.68,87.53 C65.94,85.08 65.79,81.13 65.68,79.47 C65.57,77.81 63.85,76.44 61.39,75.98 C59.53,75.65 54.45,75.42 53.84,75.88 Z" fill="#5E6367"/>
  <path d="M30,94.46 C29.52,93.9 23.02,94.22 22.74,99.09 C22.57,102.06 26.23,103.83 27.03,103.78 C27.83,103.73 28.4,101.89 29.2,99.32 C29.88,97.12 30.34,94.86 30,94.46 Z" fill="#5E6367"/>
  <path d="M16.22,89.66 C16.45,90.57 30.57,90.41 31.25,90 C31.82,89.66 37.08,72.91 36.85,72.57 C36.62,72.23 31.36,72.97 23.65,79.43 C18.9,83.41 16,88.75 16.22,89.66 Z" fill="#868686"/>
  <path d="M42,81.66 C42.99,81.95 43.89,79.95 44.8,79.49 C45.71,79.03 47.13,78.35 47.09,77.49 C47.03,76.46 44.17,75.66 43.03,76.58 C41.89,77.5 40.46,81.2 42,81.66 Z" fill="#C9C7C4"/>
  <path d="M55.44,77.66 C54.64,78.52 54.41,82.12 55.61,82.35 C56.81,82.58 57.38,80.98 58.41,80.23 C59.44,79.49 61,79.02 60.93,77.71 C60.87,76.69 56.87,76.11 55.44,77.66 Z" fill="#C9C7C4"/>
  <path d="M32.97,75.66 C32.19,74.95 27.89,77.55 24.85,80.4 C22,83.09 19.2,86.65 20,87.72 C21.31,89.49 24.12,84.86 27.26,82.06 C28.77,80.71 34.29,76.86 32.97,75.66 Z" fill="#C8C8C8"/>
  <path d="M107.58,63.24 C106.13,63.55 107.58,70.01 108.08,72.15 C108.58,74.3 110.01,77.38 110.01,77.38 L112.98,76 C112.98,76 112.04,71.16 111.05,68.35 C110.06,65.54 108.84,62.96 107.58,63.24 Z" fill="#999A9D"/>
  <path d="M110.71,79.92 C110.71,79.92 110.67,82.23 111.86,85.71 C113.01,89.11 114.54,92.06 115.88,91.64 C117.12,91.25 116.26,86.12 115.65,83.93 C115.04,81.74 113.69,78.95 113.69,78.95 L110.71,79.92 Z" fill="#999A9D"/>
  <path d="M110.93,75.38 C108.62,76.25 108.76,78.13 109.27,79.34 C109.64,80.22 111.16,81.46 112.94,80.66 C114.32,80.04 115.18,78.82 114.49,76.93 C114.05,75.7 112.76,74.69 110.93,75.38 Z" fill="#5E6367"/>
</svg>