<svg viewBox="0 0 128 128" xmlns="http://www.w3.org/2000/svg">
  <defs>
    <linearGradient id="hand_2_" gradientTransform="matrix(1 0 0 -1 0 0)" gradientUnits="userSpaceOnUse" x1="65.5258" x2="25.2239" y1="-19.873" y2="-19.873">
      <stop offset="0.5999" stop-color="#BA8D68"/>
      <stop offset="1" stop-color="#A47B62"/>
    </linearGradient>
    <linearGradient id="hand_3_" gradientTransform="matrix(-1 0 0 -1 0 0)" gradientUnits="userSpaceOnUse" x1="-65.7386" x2="-106.0405" y1="-19.873" y2="-19.873">
      <stop offset="0.5999" stop-color="#BA8D68"/>
      <stop offset="1" stop-color="#A47B62"/>
    </linearGradient>
    <linearGradient id="shirt_3_" gradientTransform="matrix(1 0 0 -1 0 0)" gradientUnits="userSpaceOnUse" x1="64" x2="64" y1="-22.2388" y2="-124.1051">
      <stop offset="0" stop-color="#F78C1F"/>
      <stop offset="0.4801" stop-color="#F37F12"/>
      <stop offset="1" stop-color="#EF6C00"/>
    </linearGradient>
    <linearGradient id="shirt_4_" gradientTransform="matrix(1 0 0 -1 0 0)" gradientUnits="userSpaceOnUse" x1="21.1266" x2="21.1266" y1="-22.2388" y2="-124.1051">
      <stop offset="0" stop-color="#F78C1F"/>
      <stop offset="0.4801" stop-color="#F37F12"/>
      <stop offset="1" stop-color="#EF6C00"/>
    </linearGradient>
    <linearGradient id="shirt_5_" gradientTransform="matrix(1 0 0 -1 0 0)" gradientUnits="userSpaceOnUse" x1="106.8739" x2="106.8739" y1="-22.2388" y2="-124.1051">
      <stop offset="0" stop-color="#F78C1F"/>
      <stop offset="0.4801" stop-color="#F37F12"/>
      <stop offset="1" stop-color="#EF6C00"/>
    </linearGradient>
    <radialGradient id="SVGID_1_" cx="78.6159" cy="167.452722" gradientTransform="matrix(1 0 0 0.4929 0 0)" gradientUnits="userSpaceOnUse" r="23.419">
      <stop offset="0.7275" stop-color="#6D4C41" stop-opacity="0"/>
      <stop offset="1" stop-color="#6D4C41"/>
    </radialGradient>
    <radialGradient id="SVGID_2_" cx="-58.7168" cy="-154.276392" gradientTransform="matrix(-0.9057 0.4253 -0.3144 -0.6742 0 0)" gradientUnits="userSpaceOnUse" r="6.9209">
      <stop offset="0.6628" stop-color="#6D4C41"/>
      <stop offset="1" stop-color="#6D4C41" stop-opacity="0"/>
    </radialGradient>
    <radialGradient id="SVGID_3_" cx="-65.27009" cy="94.908654" gradientTransform="matrix(-0.0746 -1.0007 0.8311 -0.0624 0 0)" gradientUnits="userSpaceOnUse" r="30.3992">
      <stop offset="0.7247" stop-color="#6D4C41" stop-opacity="0"/>
      <stop offset="1" stop-color="#6D4C41"/>
    </radialGradient>
    <radialGradient id="SVGID_4_" cx="-55.715007" cy="-58.353611" gradientTransform="matrix(0.0746 -1.0007 -0.8311 -0.0624 0 0)" gradientUnits="userSpaceOnUse" r="30.3992">
      <stop offset="0.7247" stop-color="#6D4C41" stop-opacity="0"/>
      <stop offset="1" stop-color="#6D4C41"/>
    </radialGradient>
    <radialGradient id="SVGID_5_" cx="-49.4721" cy="167.452722" gradientTransform="matrix(-1 0 0 0.4929 0 0)" gradientUnits="userSpaceOnUse" r="23.419">
      <stop offset="0.7275" stop-color="#6D4C41" stop-opacity="0"/>
      <stop offset="1" stop-color="#6D4C41"/>
    </radialGradient>
    <radialGradient id="SVGID_6_" cx="57.303648" cy="-81.087103" gradientTransform="matrix(0.9057 0.4253 0.3144 -0.6742 0 0)" gradientUnits="userSpaceOnUse" r="6.9209">
      <stop offset="0.6628" stop-color="#6D4C41"/>
      <stop offset="1" stop-color="#6D4C41" stop-opacity="0"/>
    </radialGradient>
    <radialGradient id="SVGID_7_" cx="66.300209" cy="87.332057" gradientTransform="matrix(0.3076 0.9548 0.706 -0.229 0 0)" gradientUnits="userSpaceOnUse" r="35.6328">
      <stop offset="0.6985" stop-color="#6D4C41" stop-opacity="0"/>
      <stop offset="1" stop-color="#6D4C41"/>
    </radialGradient>
    <radialGradient id="SVGID_8_" cx="43.730963" cy="15.658963" gradientTransform="matrix(0.8813 0.4742 0.5603 -1.0486 0 0)" gradientUnits="userSpaceOnUse" r="9.3426">
      <stop offset="0.58" stop-color="#6D4C41"/>
      <stop offset="1" stop-color="#6D4C41" stop-opacity="0"/>
    </radialGradient>
    <radialGradient id="SVGID_9_" cx="43.5618" cy="-10.485684" gradientTransform="matrix(1 0 0 -1.2275 0 0)" gradientUnits="userSpaceOnUse" r="8.5755">
      <stop offset="0.7016" stop-color="#6D4C41" stop-opacity="0"/>
      <stop offset="1" stop-color="#6D4C41"/>
    </radialGradient>
    <radialGradient id="SVGID_10_" cx="-48.190821" cy="17.091703" gradientTransform="matrix(-0.9657 -0.2607 -0.2432 0.9068 0 0)" gradientUnits="userSpaceOnUse" r="16.0834">
      <stop offset="0.6605" stop-color="#6D4C41" stop-opacity="0"/>
      <stop offset="1" stop-color="#6D4C41"/>
    </radialGradient>
    <radialGradient id="SVGID_11_" cx="44.135078" cy="-26.921156" gradientTransform="matrix(0.9907 0.1368 0.1915 -1.3969 0 0)" gradientUnits="userSpaceOnUse" r="16.8856">
      <stop offset="0.5981" stop-color="#6D4C41" stop-opacity="0"/>
      <stop offset="1" stop-color="#6D4C41"/>
    </radialGradient>
  </defs>
  <path id="shirt_2_" d="M108.03,124 L98.9,96.86 C98.92,96.81 98.94,96.76 98.96,96.72 C99.28,95.97 98.93,95.11 98.19,94.78 L97.95,94.06 C97.88,94.24 97.8,94.44 97.71,94.66 C97.08,94.6 96.45,94.95 96.19,95.57 C94.38,99.9 92.36,103 84.44,100.4 C78.05,98.3 72.61,97.9 64.29,97.9 C64.09,97.9 63.89,97.9 63.69,97.9 C55.37,97.9 49.93,98.3 43.54,100.4 C35.62,103 33.6,99.9 31.79,95.57 C31.53,94.96 30.92,94.61 30.29,94.66 C30.19,94.44 30.11,94.24 30.04,94.06 L29.8,94.78 C29.06,95.11 28.72,95.97 29.03,96.72 C29.05,96.77 29.07,96.82 29.09,96.87 L19.97,124 L108.03,124 Z" fill="url(#shirt_3_)"/>
  <path id="hair_3_" d="M98.93,80.23 C97.68,77.95 99.27,75.63 101.99,72.76 C106.3,68.2 110.99,57.64 106.63,46.91 C106.66,46.85 105.77,45.04 105.8,44.98 L104,44.89 C103.43,44.81 83.74,44.77 64.03,44.77 C44.32,44.77 24.63,44.81 24.06,44.89 C24.06,44.89 21.41,46.85 21.43,46.91 C17.08,57.64 21.76,68.2 26.07,72.76 C28.78,75.63 30.37,77.95 29.13,80.23 C27.92,82.44 24.32,82.77 24.32,82.77 C24.32,82.77 25.15,85.04 27.15,86.26 C29,87.39 31.28,87.65 32.85,87.69 C32.85,87.69 39,96.23 55.08,96.23 L64.03,96.23 L72.98,96.23 C89.06,96.23 95.21,87.69 95.21,87.69 C96.78,87.65 99.06,87.39 100.91,86.26 C102.91,85.04 103.74,82.77 103.74,82.77 C103.74,82.77 100.14,82.44 98.93,80.23 Z" fill="#543930"/>
  <path d="M64.02,96.23 L64.02,86.75 L92.59,84.48 L95.19,87.69 C95.19,87.69 89.04,96.23 72.96,96.23 L64.02,96.23 Z" fill="url(#SVGID_1_)"/>
  <path d="M95.13,83.55 C90.85,77.03 100.34,74.59 100.34,74.59 C100.34,74.59 100.35,74.6 100.35,74.6 C98.7,76.66 97.95,78.46 98.92,80.23 C100.13,82.44 103.73,82.77 103.73,82.77 C103.73,82.77 98.83,87.14 95.13,83.55 Z" fill="url(#SVGID_2_)"/>
  <path d="M106.65,46.91 C110.9,57.3 106.43,68 102.24,72.51 C101.67,73.13 99.23,75.53 98.67,77.45 C98.67,77.45 89.13,64.1 86.28,56.25 C85.71,54.67 85.18,53.03 85.11,51.35 C85.06,50.09 85.25,48.58 85.98,47.51 C86.87,46.19 106.14,45.8 106.14,45.8 C106.14,45.81 106.65,46.91 106.65,46.91 Z" fill="url(#SVGID_3_)"/>
  <path d="M21.44,46.91 C17.19,57.3 21.66,68 25.85,72.51 C26.43,73.13 28.86,75.53 29.42,77.45 C29.42,77.45 38.96,64.1 41.81,56.25 C42.39,54.67 42.91,53.03 42.98,51.35 C43.03,50.09 42.84,48.58 42.11,47.51 C41.22,46.19 40.18,46.54 38.67,46.54 C35.79,46.54 23.18,45.8 22.2,45.8 C22.2,45.81 21.44,46.91 21.44,46.91 Z" fill="url(#SVGID_4_)"/>
  <path d="M64.07,96.23 L64.07,86.75 L35.5,84.48 L32.9,87.69 C32.9,87.69 39.05,96.23 55.13,96.23 L64.07,96.23 Z" fill="url(#SVGID_5_)"/>
  <path d="M32.96,83.55 C37.24,77.03 27.75,74.59 27.75,74.59 C27.75,74.59 27.74,74.6 27.74,74.6 C29.39,76.66 30.14,78.46 29.17,80.23 C27.96,82.44 24.36,82.77 24.36,82.77 C24.36,82.77 29.26,87.14 32.96,83.55 Z" fill="url(#SVGID_6_)"/>
  <path d="M54.92,90.08 L54.92,100.06 C54.92,104.57 58.62,108.23 63.18,108.23 L64.83,108.23 C69.39,108.23 73.09,104.57 73.09,100.06 L73.09,90.08 L54.92,90.08 Z" fill="#99674F"/>
  <path d="M91.12,50.43 L36.47,50.43 C30.58,50.43 25.76,55.57 25.76,61.84 C25.76,68.11 30.58,73.25 36.47,73.25 L91.12,73.25 C97.01,73.25 101.83,68.11 101.83,61.84 C101.83,55.57 97.01,50.43 91.12,50.43 Z" fill="#99674F"/>
  <path id="head" d="M64,11.07 L64,11.07 L64,11.07 C46.6,11.07 30.48,29.68 30.48,56.47 C30.48,83.11 47.09,96.28 64,96.28 C80.91,96.28 97.52,83.1 97.52,56.46 C97.52,29.68 81.4,11.07 64,11.07 Z" fill="#BA8D68"/>
  <path id="nose" d="M67.86,68.06 C67.75,68.02 67.65,67.99 67.54,67.98 L60.46,67.98 C60.35,67.99 60.24,68.02 60.14,68.06 C59.5,68.32 59.15,68.98 59.45,69.69 C59.75,70.4 61.16,72.38 64,72.38 C66.84,72.38 68.25,70.39 68.55,69.69 C68.85,68.98 68.5,68.32 67.86,68.06 Z" fill="#99674F"/>
  <path id="mouth" d="M72.42,76.14 C69.24,78.03 58.79,78.03 55.61,76.14 C53.78,75.05 51.91,76.72 52.67,78.38 C53.42,80.01 59.11,83.8 64.04,83.8 C68.97,83.8 74.59,80.01 75.34,78.38 C76.09,76.72 74.25,75.05 72.42,76.14 Z" fill="#5D4037"/>
  <path d="M52.49,58.81 A4.93 5.1 0 1 1 42.63,58.81 A4.93 5.1 0 1 1 52.49,58.81 Z" fill="#49362E"/>
  <path d="M85.37,58.81 A4.93 5.1 0 1 1 75.51,58.81 A4.93 5.1 0 1 1 85.37,58.81 Z" fill="#49362E"/>
  <path d="M54.99,49.82 C54.06,48.59 51.92,46.81 47.76,46.81 C43.6,46.81 41.45,48.6 40.53,49.82 C40.12,50.36 40.22,50.99 40.51,51.37 C40.77,51.72 41.55,52.05 42.41,51.76 C43.27,51.47 44.95,50.6 47.76,50.58 C50.57,50.6 52.25,51.47 53.11,51.76 C53.97,52.05 54.75,51.73 55.01,51.37 C55.29,50.99 55.39,50.36 54.99,49.82 Z" fill="#613E31"/>
  <path d="M87.48,49.82 C86.55,48.59 84.41,46.81 80.25,46.81 C76.09,46.81 73.94,48.6 73.02,49.82 C72.61,50.36 72.71,50.99 73,51.37 C73.26,51.72 74.04,52.05 74.9,51.76 C75.76,51.47 77.44,50.6 80.25,50.58 C83.06,50.6 84.74,51.47 85.6,51.76 C86.46,52.05 87.24,51.73 87.5,51.37 C87.79,50.99 87.89,50.36 87.48,49.82 Z" fill="#613E31"/>
  <path id="hair" d="M104.11,25.3 C101.67,21.59 96.2,16.63 91.29,16.3 C90.5,11.56 85.45,8.55 80.56,7 C67.33,2.79 58.72,6.5 54.09,9.04 C53.13,9.57 46.92,13.02 42.58,10.54 C39.86,8.99 39.91,4.78 39.91,4.78 C39.91,4.78 31.39,8.04 34.3,17.12 C31.37,17.24 27.53,18.48 25.5,22.61 C23.08,27.52 23.94,31.63 24.64,33.6 C22.12,35.75 18.95,40.32 21.12,46.25 C22.76,50.72 29.29,52.77 29.29,52.77 C28.83,60.8 30.32,65.76 31.11,67.76 C31.25,68.11 31.74,68.08 31.83,67.72 C32.82,63.74 36.19,49.86 35.86,47.44 C35.86,47.44 47.21,45.18 58.03,37.19 C60.23,35.56 62.62,34.18 65.16,33.16 C78.75,27.73 81.6,36.99 81.6,36.99 C81.6,36.99 91.02,35.18 93.86,48.3 C94.93,53.22 95.65,61.09 96.26,66.61 C96.3,67 96.83,67.08 96.98,66.72 C97.93,64.54 99.83,60.19 100.28,55.77 C100.44,54.21 104.62,52.15 106.42,45.47 C108.83,36.55 105.87,27.98 104.11,25.3 Z" fill="#543930"/>
  <path d="M100.25,55.8 C100.41,54.24 104.59,52.18 106.39,45.5 C106.58,44.79 106.74,44.07 106.89,43.34 C108.35,35.22 105.73,27.77 104.1,25.3 C101.84,21.87 97,17.38 92.41,16.46 C92.01,16.41 91.62,16.36 91.25,16.34 C91.25,16.34 91.58,18.49 90.71,20.22 C89.59,22.45 87.3,22.98 87.3,22.98 C99.28,34.99 98.42,45.04 100.25,55.8 Z" fill="url(#SVGID_7_)"/>
  <path d="M56.99,7.52 C55.89,8.05 54.93,8.58 54.09,9.04 C53.13,9.57 46.92,13.02 42.58,10.54 C39.91,9.02 39.91,4.94 39.91,4.8 C38.68,6.37 34.96,17.63 45.84,18.37 C50.53,18.69 53.42,14.59 55.14,11.11 C55.75,9.85 56.72,8.02 56.99,7.52 Z" fill="url(#SVGID_8_)"/>
  <path d="M39.88,4.8 C39.87,4.81 39.85,4.81 39.82,4.83 C39.82,4.83 39.82,4.83 39.81,4.83 C38.88,5.22 31.57,8.62 34.3,17.13 L42.08,18.39 C35.2,11.38 39.91,4.79 39.91,4.79 C39.91,4.79 39.89,4.79 39.88,4.8 Z" fill="url(#SVGID_9_)"/>
  <path d="M39.1,17.9 L34.29,17.12 C34.1,17.12 33.46,17.18 33.11,17.23 C30.4,17.61 27.21,19.01 25.48,22.61 C23.62,26.48 23.67,29.81 24.18,32.03 C24.33,32.77 24.63,33.61 24.63,33.61 C24.63,33.61 27.01,31.35 32.68,31.19 L39.1,17.9 Z" fill="url(#SVGID_10_)"/>
  <path d="M24.41,33.8 C22.04,35.91 18.85,40.62 21.2,46.45 C22.97,50.85 29.29,52.76 29.29,52.76 C29.29,52.78 30.55,53.16 31.2,53.16 L32.68,31.19 C29.65,31.19 26.74,32.1 24.86,33.41 C24.88,33.45 24.4,33.77 24.41,33.8 Z" fill="url(#SVGID_11_)"/>
  <path id="hand" d="M29.3,16.62 C32.19,13.42 37.29,10.42 42.83,8.32 C51.41,5.07 54.46,4.35 59.34,4.31 C61.57,4.29 62.56,4.9 62.18,6.12 C61.76,7.46 60.65,8.67 57.73,8.8 C53.25,9.17 50.63,10.78 46.47,13.14 C44.51,14.07 42.98,18.82 40.91,20.29 C39,21.65 34.33,26.18 32.98,34.26 C32.58,36.64 22.09,35.36 21.96,30.62 C21.92,29.27 24.05,22.43 29.3,16.62 Z" fill="url(#hand_2_)"/>
  <path id="shirt" d="M37.82,29.12 C38.11,28.12 38.04,26.9 36.8,26.21 L25.42,20.22 C25.15,20.09 24.86,20.03 24.57,20.03 C23.7,20.03 22.85,20.59 22.53,21.37 L5.97,64.19 C4.85,67.22 3.79,70.38 4.55,74.54 C4.55,74.54 13.64,120.7 14.76,124 L16.33,124 L17.94,124 L37.32,124 L32.1,102.14 C32.43,102.4 32.8,102.65 33.22,102.84 L32.66,98.04 C25.39,77.86 25.44,71.33 26.13,68.91 L37.82,29.12 Z" fill="url(#shirt_4_)"/>
  <path id="hand_1_" d="M98.7,16.62 C95.81,13.42 90.71,10.42 85.17,8.32 C76.6,5.07 73.54,4.35 68.66,4.32 C66.43,4.3 65.44,4.91 65.82,6.13 C66.24,7.47 67.35,8.68 70.27,8.81 C74.75,9.18 77.37,10.79 81.53,13.15 C83.49,14.08 85.02,18.83 87.09,20.3 C89,21.66 93.67,26.19 95.02,34.27 C95.42,36.65 105.91,35.37 106.04,30.63 C106.08,29.27 103.95,22.43 98.7,16.62 Z" fill="url(#hand_3_)"/>
  <path id="shirt_1_" d="M122.03,64.19 L105.47,21.38 C105.15,20.6 104.3,20.04 103.43,20.04 C103.14,20.04 102.86,20.1 102.58,20.23 L91.2,26.22 C89.96,26.91 89.89,28.13 90.18,29.13 L101.88,68.92 C102.57,71.34 102.62,77.87 95.35,98.05 L94.79,102.85 C95.21,102.65 95.58,102.41 95.91,102.15 L90.69,124 L110.07,124 L111.68,124 L113.25,124 C114.37,120.7 123.46,74.54 123.46,74.54 C124.21,70.38 123.15,67.21 122.03,64.19 Z" fill="url(#shirt_5_)"/>
</svg>