<svg viewBox="0 0 128 128" xmlns="http://www.w3.org/2000/svg" xmlns:xlink="http://www.w3.org/1999/xlink">
  <g id="Layer_4">
    <g>
      <defs>
        <rect id="SVGID_2_" height="120" width="120" x="4" y="4"/>
      </defs>
      <clipPath id="SVGID_5_">
        <use overflow="visible" xlink:href="#SVGID_2_"/>
      </clipPath>
      <g clip-path="url(#SVGID_5_)">
        <linearGradient id="SVGID_6_" gradientUnits="userSpaceOnUse" x1="63.9997" x2="63.9997" y1="29.2081" y2="133.631">
          <stop offset="0.2149" style="stop-color:#BCAAA4"/>
          <stop offset="1" style="stop-color:#8D6E63"/>
        </linearGradient>
        <path d="M0.5,127.5V75.14c0.64-1.74,11.29-30.41,23.03-32.63c0.6-0.11,1.23-0.17,1.85-0.17 c3.63,0,6.99,1.91,10.55,3.94c3.62,2.06,7.37,4.19,11.51,4.19l0.14,0c6.28-0.08,11.17-5.17,15.26-9.94 c8.43-9.83,13.48-15.42,15.02-16.61c3.65-2.81,8.34-4.36,13.2-4.36c16.28,0,35.19,32.39,36.44,34.57v73.38H0.5z" fill="url(#SVGID_6_)"/>
        <path d="M91.06,20.05c15.76,0,34.22,31.23,35.94,34.21V127H1V75.22c0.88-2.38,11.3-30.08,22.62-32.23 c0.57-0.11,1.16-0.16,1.75-0.16c3.5,0,6.8,1.88,10.31,3.87c3.68,2.09,7.49,4.26,11.75,4.26l0.15,0 c6.49-0.08,11.47-5.26,15.63-10.11c10.48-12.22,13.91-15.74,14.95-16.54C81.73,21.56,86.31,20.05,91.06,20.05 M91.06,19.05 c-4.83,0-9.68,1.52-13.51,4.47c-2.35,1.81-12.14,13.22-15.1,16.68c-3.99,4.65-8.76,9.69-14.89,9.76c-0.05,0-0.09,0-0.14,0 c-7.92,0-14.46-8.12-22.06-8.13c-0.64,0-1.28,0.06-1.94,0.18C10.97,44.37,0,75.05,0,75.05V128h128V53.99 C128,53.99,108.3,19.05,91.06,19.05L91.06,19.05z" fill="#A1887F"/>
      </g>
      <g clip-path="url(#SVGID_5_)">
        <g>
          <defs>
            <rect id="SVGID_7_" height="120" width="120" x="4" y="4"/>
          </defs>
          <clipPath id="SVGID_10_">
            <use overflow="visible" xlink:href="#SVGID_7_"/>
          </clipPath>
          <g clip-path="url(#SVGID_10_)">
            <path d="M66.37,91.4c-0.17,0-0.33-0.08-0.43-0.23l-0.73-1.06c-0.83-1.21-0.84-2.79-0.02-4.01l3.99-5.31 l5.59-3.88c0.66,0.19,2.66,0.85,3.48,2.03l1.63,2.35c0.1,0.15,0.14,0.32,0.11,0.5c-0.03,0.18-0.13,0.33-0.28,0.43l-13.05,9.1 C66.58,91.37,66.48,91.4,66.37,91.4L66.37,91.4z" fill="#4568AD"/>
            <path d="M74.86,77.45c0.88,0.27,2.37,0.89,2.98,1.77l1.63,2.34c0.03,0.05,0.03,0.1,0.03,0.13 c-0.01,0.03-0.02,0.08-0.07,0.11l-13.08,9.09l-0.73-1.06c-0.71-1.04-0.72-2.38-0.03-3.43l3.94-5.25L74.86,77.45 M74.67,76.36 l-5.85,4.06l-4.06,5.4c-0.93,1.39-0.92,3.2,0.03,4.57l0.73,1.06c0.2,0.29,0.52,0.44,0.84,0.44c0.2,0,0.4-0.06,0.58-0.18 l13.05-9.1c0.53-0.37,0.66-1.1,0.29-1.63l-1.63-2.34C77.55,77.05,74.67,76.36,74.67,76.36L74.67,76.36z" fill="#315499"/>
          </g>
          <g clip-path="url(#SVGID_10_)">
            <g>
              <g>
                <g>
                  <g>
                    <linearGradient id="SVGID_11_" gradientUnits="userSpaceOnUse" x1="40.9868" x2="50.4035" y1="19.9157" y2="24.499">
                      <stop offset="0.55" style="stop-color:#A56C43"/>
                      <stop offset="0.83" style="stop-color:#8D5738"/>
                      <stop offset="1" style="stop-color:#7A4C32"/>
                    </linearGradient>
                    <path d="M51.68,10.35c-3.24-3.37-9.33-5.24-13.7-3.56c-4.89,1.88-6.85,6.07-6.6,10.81 c0.09,1.72,0.49,3.37,1.03,4.49c0.06,0.13,0.56,1.1,0.65,1.42c0.45,1.2-1.7,2.93-1.7,4.36 c0,1.07,2.31,1.28,2.51,1.43c1.04,0.75,0.63,5.39,6.66,4.62c2.03-0.26,2.13-0.47,2.86-0.51 c1.9-0.12,7.26,1.63,7.26,1.63l3.42-5.92c0,0-3.03,0.68-1.33-4.7C54.04,20.31,53.76,12.51,51.68,10.35z" fill="url(#SVGID_11_)"/>
                    <g>
                      <linearGradient id="SVGID_12_" gradientUnits="userSpaceOnUse" x1="31.3587" x2="54.0737" y1="20.6023" y2="20.6023">
                        <stop offset="0" style="stop-color:#875334"/>
                        <stop offset="1" style="stop-color:#663B22"/>
                      </linearGradient>
                      <path d="M41.59,7.16c3.38,0,7.14,1.56,9.37,3.88c1.67,1.74,2.13,8.96,0.83,13.08 c-0.75,2.38-0.75,4.03,0,5.06c0.2,0.27,0.44,0.49,0.72,0.65l-2.32,4.01c-1.55-0.48-4.89-1.44-6.6-1.44 c-0.09,0-0.17,0-0.26,0.01c-0.4,0.02-0.67,0.09-0.97,0.17c-0.36,0.09-0.85,0.21-1.96,0.35 c-0.4,0.05-0.78,0.08-1.13,0.08c-2.72,0-3.27-1.46-3.81-2.88c-0.26-0.69-0.49-1.28-1-1.65 c-0.21-0.15-0.43-0.2-0.79-0.29c-0.68-0.16-1.12-0.3-1.29-0.44c0.06-0.38,0.44-0.97,0.75-1.45 c0.6-0.94,1.28-2.01,0.89-3.11c-0.09-0.3-0.31-0.77-0.64-1.42l-0.06-0.12c-0.5-1.05-0.85-2.59-0.93-4.11 c-0.15-2.76,0.43-7.7,5.96-9.83C39.3,7.35,40.4,7.16,41.59,7.16 M41.59,6.16c-1.27,0-2.49,0.2-3.61,0.63 c-4.89,1.88-6.85,6.07-6.6,10.81c0.09,1.72,0.49,3.37,1.03,4.49c0.06,0.13,0.56,1.1,0.65,1.42 c0.45,1.2-1.7,2.93-1.7,4.36c0,1.07,2.31,1.28,2.52,1.43c0.96,0.69,0.68,4.71,5.4,4.71c0.39,0,0.8-0.03,1.26-0.08 c2.03-0.26,2.13-0.47,2.86-0.51c0.06,0,0.13-0.01,0.19-0.01c2.04,0,7.07,1.64,7.07,1.64l3.42-5.92 c0,0-0.12,0.03-0.3,0.03c-0.72,0-2.38-0.43-1.03-4.72c1.3-4.11,1.02-11.91-1.06-14.08 C49.27,7.84,45.28,6.16,41.59,6.16L41.59,6.16z" fill="url(#SVGID_12_)"/>
                    </g>
                  </g>
                  <path d="M35.01,31.63c0.83-0.12,1.61-0.48,2.19-1.14c0.64-0.72-0.01-1.23-0.8-0.69 c-0.48,0.33-1.2,0.6-1.9,0.61L35.01,31.63z" fill="#473530"/>
                </g>
                <ellipse cx="36.88" cy="23.43" fill="#42312C" rx="1.11" ry="1.69" transform="matrix(0.9705 -0.2411 0.2411 0.9705 -4.5622 9.5848)"/>
                <path d="M35.65,21.34c-0.93,0.64-1.39,0.05-1.23-0.61c0.12-0.48,0.63-1.02,1.91-1.19 c1.2-0.15,1.89,0.34,2.32,0.63c0.44,0.29,0.53,0.7,0.28,0.82C38.59,21.16,36.8,20.55,35.65,21.34z" fill="#42312C"/>
              </g>
              <g>
                <radialGradient id="SVGID_13_" cx="66.2094" cy="38.8684" gradientTransform="matrix(1.044 -0.074 0.0752 1.0362 -35.8388 -24.5751)" gradientUnits="userSpaceOnUse" r="10.1523">
                  <stop offset="0" style="stop-color:#554138"/>
                  <stop offset="1" style="stop-color:#3C2C23"/>
                </radialGradient>
                <path d="M53.13,12.16c-0.43-0.58-0.9-1.12-1.44-1.6c-0.76-0.68-1.64-1.21-2.56-1.64 c-2.44-1.13-5.24-1.5-7.88-0.96c-2.64,0.54-5.08,2.02-6.73,4.15c-1.27,1.65-2.05,3.91-1.25,5.83 c0.99-0.29,1.72-1.15,2.8-1.37c1.4-0.3,2.93-0.32,4.12-1.11c0.46-0.3,0.85-0.71,1.28-1.05c0.11-0.03,0.18-0.04,0.18-0.04 c1.91,0.55,0.5,5.03,2.91,6.98c0.48,0.39,1.04,0.71,1.04,0.71s-0.41-3.16,1.61-3.19c2.1-0.03,2.27,2.12,1.67,3.95 c-0.62,1.9-1.69,1.23-1.31,1.86c0.62,1.03,3.81,1.33,4.81,1.12c1.34-0.27,2.2-1.73,3-2.84c0.93-1.28,0.85-2.8,0.71-4.38 c-0.16-1.74-0.99-3.35-1.91-4.84C53.85,13.19,53.5,12.66,53.13,12.16z" fill="url(#SVGID_13_)"/>
              </g>
              <path d="M43.69,8.69c1.71,0,3.45,0.39,5.02,1.11c0.91,0.42,1.69,0.92,2.32,1.48 c0.44,0.4,0.87,0.87,1.3,1.45c0.31,0.42,0.63,0.89,1,1.5c0.79,1.29,1.62,2.83,1.77,4.41c0.14,1.51,0.18,2.74-0.53,3.72 c-0.11,0.15-0.21,0.3-0.32,0.46c-0.63,0.91-1.29,1.84-2.08,2c-0.05,0.01-0.23,0.04-0.61,0.04 c-0.98,0-1.91-0.18-2.52-0.38c0.27-0.3,0.54-0.74,0.75-1.39c0.26-0.79,0.75-2.77-0.25-4.15c-0.36-0.5-1.05-1.09-2.3-1.09 c-0.01,0-0.06,0-0.06,0c-0.72,0.01-1.35,0.29-1.8,0.82c-0.35,0.4-0.55,0.9-0.67,1.4c-0.57-0.8-0.71-1.95-0.86-3.07 c-0.19-1.48-0.41-3.16-1.94-3.61c-0.09-0.03-0.18-0.04-0.27-0.04c-0.07,0-0.14,0.01-0.22,0.02l-0.18,0.04 c-0.14,0.03-0.27,0.09-0.38,0.18c-0.18,0.14-0.36,0.3-0.54,0.45c-0.24,0.21-0.46,0.4-0.68,0.55 c-0.7,0.47-1.63,0.61-2.61,0.77c-0.39,0.06-0.78,0.12-1.16,0.2c-0.76,0.16-1.34,0.53-1.86,0.86 c-0.03,0.02-0.05,0.03-0.08,0.05c-0.09-1.36,0.58-2.8,1.36-3.81c1.47-1.9,3.71-3.29,6.15-3.79 C42.18,8.76,42.93,8.69,43.69,8.69 M43.69,7.71c-0.82,0-1.64,0.08-2.44,0.25c-2.64,0.54-5.08,2.02-6.73,4.15 c-1.27,1.65-2.05,3.91-1.25,5.83c0.99-0.29,1.72-1.15,2.8-1.37c1.4-0.3,2.93-0.32,4.12-1.11 c0.46-0.3,0.85-0.71,1.28-1.05c0.11-0.03,0.18-0.04,0.18-0.04c1.91,0.55,0.5,5.03,2.91,6.98 c0.48,0.39,1.04,0.71,1.04,0.71s-0.41-3.16,1.61-3.19c0.02,0,0.03,0,0.05,0c2.05,0,2.22,2.13,1.63,3.95 c-0.62,1.9-1.69,1.23-1.31,1.86c0.5,0.83,2.66,1.19,4.01,1.19c0.33,0,0.61-0.02,0.8-0.06c1.34-0.27,2.2-1.73,3-2.84 c0.93-1.28,0.85-2.8,0.71-4.38c-0.16-1.74-0.99-3.35-1.91-4.84c-0.33-0.54-0.67-1.07-1.05-1.57 c-0.43-0.58-0.9-1.12-1.44-1.6c-0.76-0.68-1.64-1.21-2.56-1.64C47.43,8.13,45.56,7.71,43.69,7.71L43.69,7.71z" fill="#291D15"/>
            </g>
            <g>
              <g>
                <linearGradient id="SVGID_14_" gradientUnits="userSpaceOnUse" x1="50.8243" x2="82.8747" y1="59.3633" y2="59.3633">
                  <stop offset="0" style="stop-color:#7A4C32"/>
                  <stop offset="1" style="stop-color:#8D5738"/>
                </linearGradient>
                <path d="M51.94,60c0,0-0.02-0.03-0.03-0.04c-0.2-0.25-0.35-0.49-0.48-0.73 c-0.64-1.21-0.77-2.59-0.37-3.89s1.28-2.38,2.49-3.02c0.03-0.02,0.06-0.03,0.08-0.05l23.53-13.61l5.72,10.76l-18.83,9.16 c-0.13,0.06-0.23,0.18-0.26,0.32c-0.04,0.14-0.01,0.29,0.07,0.41l11.11,16.15l-6.31,4.64L51.94,60z" fill="url(#SVGID_14_)"/>
                <path d="M76.96,39.34l5.23,9.85l-18.37,8.94c-0.26,0.13-0.46,0.36-0.53,0.64 c-0.07,0.28-0.02,0.58,0.14,0.82l10.83,15.75l-5.54,4.07L52.46,59.84c-0.04-0.05-0.08-0.09-0.13-0.15 c-0.01-0.01-0.02-0.03-0.03-0.04c-0.18-0.23-0.32-0.44-0.43-0.66c-0.58-1.09-0.7-2.33-0.34-3.51 c0.36-1.18,1.16-2.14,2.24-2.72c0.04-0.02,0.09-0.05,0.13-0.08L76.96,39.34 M77.35,37.95L53.3,51.86l0,0.01 c-2.74,1.45-3.77,4.85-2.32,7.59c0.15,0.29,0.33,0.55,0.53,0.8l0,0l0.04,0.05c0.05,0.06,0.1,0.12,0.15,0.19l16.86,20.27 l7.08-5.21L64.26,59.02l19.3-9.39L77.35,37.95L77.35,37.95z" fill="#663B22"/>
              </g>
              <circle cx="80.46" cy="43.79" fill="#FBC11B" r="6.61"/>
              <g>
                <path d="M60.58,46.83l16.49-9.58c0.02-0.01,0.03-0.01,0.05-0.02c1.06-0.56,2.26-0.86,3.45-0.86 c2.73,0,5.23,1.5,6.51,3.91c0.92,1.74,1.12,3.73,0.54,5.61c-0.58,1.88-1.85,3.43-3.59,4.35l-16.87,8.97L60.58,46.83z" fill="#646464"/>
                <path d="M80.57,36.86c2.55,0,4.87,1.4,6.07,3.64c1.78,3.34,0.5,7.51-2.84,9.28l-16.43,8.74l-6.12-11.51 l16.04-9.32c0.02-0.01,0.04-0.02,0.06-0.03C78.34,37.14,79.45,36.86,80.57,36.86 M80.57,35.86c-1.25,0-2.51,0.3-3.69,0.92 l0-0.01l-16.97,9.86l7.04,13.24l17.31-9.21c3.84-2.04,5.29-6.8,3.25-10.64C86.11,37.38,83.38,35.86,80.57,35.86 L80.57,35.86z" fill="#4F4F4F"/>
              </g>
              <polygon fill="#E0E0E0" points=" 71.3,69.26 63.66,74.88 68.56,80.77 75.64,75.56 " stroke="#CCC7BD" stroke-linecap="round" stroke-linejoin="round" stroke-miterlimit="10"/>
            </g>
            <g>
              <g>
                <radialGradient id="SVGID_15_" cx="88.2144" cy="81.8904" gradientUnits="userSpaceOnUse" r="37.0471">
                  <stop offset="0" style="stop-color:#78909C"/>
                  <stop offset="0.5619" style="stop-color:#617A86"/>
                  <stop offset="1" style="stop-color:#546E7A"/>
                </radialGradient>
                <path d="M97.53,122.57c-12.59,0-22.84-10.24-22.84-22.83c0-12.59,10.25-22.83,22.84-22.83 c12.59,0,22.83,10.24,22.83,22.83C120.35,112.33,110.11,122.57,97.53,122.57z M97.52,84.24c-8.55,0-15.51,6.95-15.51,15.5 s6.96,15.5,15.51,15.5c8.55,0,15.5-6.95,15.5-15.5S106.07,84.24,97.52,84.24z" fill="url(#SVGID_15_)"/>
                <path d="M97.52,77.41c12.31,0,22.33,10.02,22.33,22.33c0,12.31-10.02,22.33-22.33,22.33 c-12.32,0-22.34-10.02-22.34-22.33C75.19,87.42,85.21,77.41,97.52,77.41 M97.52,115.74c8.82,0,16-7.18,16-16 c0-8.82-7.18-16-16-16c-8.83,0-16.01,7.18-16.01,16C81.52,108.56,88.7,115.74,97.52,115.74 M97.52,76.41 c-12.87,0-23.34,10.47-23.34,23.33c0,12.87,10.47,23.33,23.34,23.33c12.86,0,23.33-10.47,23.33-23.33 C120.85,86.87,110.39,76.41,97.52,76.41L97.52,76.41z M97.52,114.74c-8.26,0-15.01-6.73-15.01-15c0-8.27,6.74-15,15.01-15 c8.27,0,15,6.73,15,15C112.52,108.01,105.79,114.74,97.52,114.74L97.52,114.74z" fill="#405966"/>
              </g>
              <g>
                <radialGradient id="SVGID_17_" cx="21.1744" cy="81.8904" gradientUnits="userSpaceOnUse" r="37.0471">
                  <stop offset="0" style="stop-color:#78909C"/>
                  <stop offset="0.5619" style="stop-color:#617A86"/>
                  <stop offset="1" style="stop-color:#546E7A"/>
                </radialGradient>
                <path d="M30.49,122.57c-12.59,0-22.84-10.24-22.84-22.83c0-12.59,10.25-22.83,22.84-22.83 c12.59,0,22.83,10.24,22.83,22.83C53.31,112.33,43.07,122.57,30.49,122.57z M30.48,84.24c-8.55,0-15.51,6.95-15.51,15.5 s6.96,15.5,15.51,15.5c8.55,0,15.5-6.95,15.5-15.5S39.03,84.24,30.48,84.24z" fill="url(#SVGID_17_)"/>
                <path d="M30.48,77.41c12.31,0,22.33,10.02,22.33,22.33c0,12.31-10.02,22.33-22.33,22.33 c-12.32,0-22.34-10.02-22.34-22.33C8.15,87.42,18.17,77.41,30.48,77.41 M30.48,115.74c8.82,0,16-7.18,16-16 c0-8.82-7.18-16-16-16c-8.83,0-16.01,7.18-16.01,16C14.48,108.56,21.66,115.74,30.48,115.74 M30.48,76.41 c-12.87,0-23.34,10.47-23.34,23.33c0,12.87,10.47,23.33,23.34,23.33c12.86,0,23.33-10.47,23.33-23.33 C53.81,86.87,43.35,76.41,30.48,76.41L30.48,76.41z M30.48,114.74c-8.26,0-15.01-6.73-15.01-15c0-8.27,6.74-15,15.01-15 c8.27,0,15,6.73,15,15C45.48,108.01,38.75,114.74,30.48,114.74L30.48,114.74z" fill="#405966"/>
              </g>
              <g>
                <linearGradient id="SVGID_18_" gradientUnits="userSpaceOnUse" x1="53.0272" x2="88.2706" y1="66.0107" y2="85.0071">
                  <stop offset="0.2236" style="stop-color:#D8EB21"/>
                  <stop offset="0.24" style="stop-color:#D6E921"/>
                  <stop offset="0.6058" style="stop-color:#B8C721"/>
                  <stop offset="0.8038" style="stop-color:#ADBA21"/>
                </linearGradient>
                <path d="M77.15,74.57c-0.13,0-0.26-0.01-0.4-0.03l-36.42-5.26c-1.5-0.22-2.54-1.6-2.32-3.1 c0.22-1.5,1.64-2.55,3.11-2.32l36.42,5.26c1.5,0.22,2.54,1.61,2.32,3.11C79.66,73.59,78.49,74.57,77.15,74.57z" fill="url(#SVGID_18_)"/>
              </g>
              <g>
                <linearGradient id="SVGID_19_" gradientUnits="userSpaceOnUse" x1="51.4416" x2="86.6916" y1="68.9523" y2="87.9523">
                  <stop offset="0.2236" style="stop-color:#D8EB21"/>
                  <stop offset="0.24" style="stop-color:#D6E921"/>
                  <stop offset="0.6058" style="stop-color:#B8C721"/>
                  <stop offset="0.8038" style="stop-color:#ADBA21"/>
                </linearGradient>
                <path d="M64.44,101.78c-0.87,0-1.7-0.42-2.22-1.12L38.51,68.18c-0.9-1.22-0.63-2.94,0.6-3.83 c1.22-0.89,2.94-0.62,3.83,0.6L63.9,93.64L78.94,60.9c0.63-1.38,2.26-1.98,3.64-1.35c1.38,0.63,1.99,2.26,1.35,3.64 l-17,36.99c-0.4,0.88-1.25,1.48-2.22,1.58C64.62,101.77,64.53,101.78,64.44,101.78z" fill="url(#SVGID_19_)"/>
              </g>
              <g>
                <linearGradient id="SVGID_20_" gradientUnits="userSpaceOnUse" x1="48.9159" x2="84.1659" y1="73.6381" y2="92.6381">
                  <stop offset="0.2236" style="stop-color:#D8EB21"/>
                  <stop offset="0.24" style="stop-color:#D6E921"/>
                  <stop offset="0.6058" style="stop-color:#B8C721"/>
                  <stop offset="0.8038" style="stop-color:#ADBA21"/>
                </linearGradient>
                <path d="M97.35,101.78H64.44c-1.51,0-2.74-1.23-2.74-2.74c0-1.51,1.23-2.74,2.74-2.74H91.9 L74.94,73.47c-0.9-1.22-0.65-2.94,0.57-3.84c1.22-0.9,2.94-0.65,3.84,0.57l20.2,27.2c0.62,0.83,0.72,1.94,0.25,2.87 C99.34,101.19,98.39,101.78,97.35,101.78z" fill="url(#SVGID_20_)"/>
              </g>
              <g>
                <linearGradient id="SVGID_21_" gradientUnits="userSpaceOnUse" x1="43.5293" x2="78.7793" y1="83.6317" y2="102.6317">
                  <stop offset="0.2236" style="stop-color:#D8EB21"/>
                  <stop offset="0.24" style="stop-color:#D6E921"/>
                  <stop offset="0.6058" style="stop-color:#B8C721"/>
                  <stop offset="0.8038" style="stop-color:#ADBA21"/>
                </linearGradient>
                <path d="M31,102.87c-0.24,0-0.47-0.03-0.71-0.09c-1.46-0.39-2.33-1.89-1.95-3.35L39.1,58.72 c0.4-1.46,1.9-2.34,3.35-1.95c1.47,0.39,2.35,1.89,1.96,3.35l-10.75,40.71C33.33,102.06,32.21,102.87,31,102.87z" fill="url(#SVGID_21_)"/>
              </g>
              <path d="M41.75,57.67L41.75,57.67c0.15,0,0.3,0.02,0.44,0.06c0.45,0.12,0.83,0.41,1.07,0.81 c0.23,0.4,0.3,0.87,0.18,1.32l-1.07,4.05c-0.07,0.28-0.02,0.57,0.13,0.81c0.16,0.24,0.41,0.4,0.69,0.44l31.98,4.62 c0.05,0.01,0.1,0.01,0.14,0.01c0.39,0,0.74-0.22,0.91-0.58l3.63-7.89c0.28-0.62,0.9-1.01,1.59-1.01 c0.25,0,0.49,0.05,0.72,0.16c0.43,0.2,0.75,0.54,0.91,0.98c0.16,0.44,0.14,0.91-0.05,1.33l-3.74,8.13 c-0.15,0.33-0.11,0.72,0.11,1.01L98.75,98c0.4,0.53,0.46,1.23,0.15,1.83c-0.29,0.59-0.89,0.96-1.55,0.96H64.44 c-0.12,0-0.24-0.02-0.38-0.05c-0.03-0.01-0.07-0.02-0.11-0.03c-0.11-0.03-0.19-0.06-0.26-0.09 c-0.03-0.01-0.05-0.03-0.11-0.06c-0.07-0.04-0.14-0.08-0.2-0.13c-0.04-0.03-0.08-0.06-0.11-0.09 c-0.06-0.05-0.1-0.11-0.15-0.17c-0.03-0.04-0.07-0.08-0.11-0.12L42.08,71.38c-0.19-0.26-0.49-0.41-0.81-0.41 c-0.06,0-0.12,0.01-0.19,0.02c-0.38,0.07-0.68,0.35-0.78,0.73l-7.62,28.87c-0.2,0.76-0.89,1.3-1.68,1.3 c-0.16,0-0.3-0.02-0.45-0.06c-0.93-0.25-1.48-1.2-1.24-2.13l10.75-40.7C40.27,58.21,40.96,57.67,41.75,57.67 M63.9,94.64 c0.03,0,0.07,0,0.1-0.01c0.35-0.04,0.66-0.26,0.81-0.58l9.03-19.65c0.13-0.29,0.12-0.62-0.03-0.9s-0.42-0.47-0.74-0.51 l-26.14-3.78c-0.05-0.01-0.1-0.01-0.14-0.01c-0.35,0-0.67,0.18-0.86,0.48c-0.21,0.34-0.19,0.78,0.05,1.11l17.11,23.43 C63.28,94.49,63.58,94.64,63.9,94.64 M68.72,97.29H91.9c0.38,0,0.72-0.21,0.89-0.55c0.17-0.34,0.13-0.74-0.09-1.05 L78.38,76.41c-0.19-0.26-0.49-0.4-0.8-0.4c-0.03,0-0.07,0-0.1,0.01c-0.35,0.04-0.66,0.26-0.8,0.58l-8.86,19.28 c-0.14,0.31-0.12,0.67,0.07,0.96C68.06,97.12,68.38,97.29,68.72,97.29 M41.75,56.67c-1.21,0-2.32,0.81-2.65,2.04 L28.35,99.43c-0.38,1.46,0.49,2.96,1.95,3.35c0.24,0.06,0.47,0.09,0.71,0.09c1.21,0,2.32-0.81,2.65-2.04l7.62-28.86 l20.95,28.69c0.04,0.05,0.09,0.09,0.13,0.14c0.08,0.09,0.15,0.18,0.24,0.26c0.06,0.05,0.12,0.1,0.18,0.15 c0.1,0.08,0.2,0.15,0.31,0.21c0.06,0.03,0.12,0.07,0.18,0.1c0.13,0.06,0.27,0.11,0.4,0.15c0.05,0.02,0.1,0.04,0.16,0.05 c0.19,0.04,0.4,0.07,0.6,0.07h32.92c1.04,0,1.99-0.58,2.45-1.51c0.47-0.92,0.38-2.04-0.25-2.87L80.19,71.32l3.74-8.13 c0.64-1.38,0.03-3.01-1.35-3.64c-0.37-0.17-0.76-0.25-1.14-0.25c-1.04,0-2.04,0.59-2.5,1.6l-3.63,7.89l-31.98-4.62 l1.07-4.05c0.39-1.46-0.48-2.96-1.96-3.35C42.21,56.7,41.98,56.67,41.75,56.67L41.75,56.67z M63.9,93.64L46.79,70.21 l26.14,3.78L63.9,93.64L63.9,93.64z M68.72,96.29l8.86-19.28L91.9,96.29H68.72L68.72,96.29z" fill="#9E9D24"/>
              <path clip-rule="evenodd" d=" M62.21,99.76c-1.67,0.74-3.47,2.72-2.65,4.66c1.03,2.41,2.77,1.46,4.67,0.8c1.9-0.66,5.26-1.28,6.38-3.16 c0.83-1.39-0.31-3.72-1.9-3.98C67.75,97.92,63.11,99.36,62.21,99.76z" fill="#444444" fill-rule="evenodd" stroke="#30302D" stroke-linecap="round" stroke-linejoin="round" stroke-miterlimit="10"/>
              <g>
                <radialGradient id="SVGID_22_" cx="38.2479" cy="57.8843" gradientUnits="userSpaceOnUse" r="5.1535">
                  <stop offset="0" style="stop-color:#78909C"/>
                  <stop offset="0.5619" style="stop-color:#617A86"/>
                  <stop offset="1" style="stop-color:#546E7A"/>
                </radialGradient>
                <path d="M42.52,61.15c-0.18,0-0.35-0.02-0.52-0.06l-8.54-2.05c-0.58-0.14-1.08-0.5-1.39-1.01 s-0.41-1.11-0.27-1.7c0.24-1.01,1.14-1.72,2.19-1.72c0.17,0,0.35,0.02,0.52,0.06l8.54,2.05c1.2,0.29,1.95,1.5,1.66,2.71 C44.46,60.44,43.56,61.15,42.52,61.15z" fill="url(#SVGID_22_)"/>
                <path d="M33.98,55.12L33.98,55.12c0.14,0,0.27,0.02,0.4,0.05l8.54,2.05c0.94,0.23,1.52,1.17,1.29,2.1 c-0.19,0.79-0.89,1.34-1.7,1.34c-0.14,0-0.27-0.02-0.41-0.05l-8.54-2.05c-0.45-0.11-0.84-0.39-1.08-0.78 c-0.24-0.4-0.32-0.87-0.21-1.32C32.47,55.67,33.17,55.12,33.98,55.12 M33.98,54.12c-1.24,0-2.37,0.84-2.67,2.1 c-0.35,1.48,0.55,2.96,2.03,3.31l8.54,2.05c0.21,0.05,0.42,0.08,0.64,0.08c1.24,0,2.36-0.84,2.67-2.1 c0.35-1.47-0.56-2.95-2.03-3.31l-8.54-2.05C34.41,54.14,34.19,54.12,33.98,54.12L33.98,54.12z" fill="#405966"/>
              </g>
              <g>
                <path clip-rule="evenodd" d="M84.22,65.17c-0.28,0-0.56-0.02-0.84-0.06 c-1.67-0.23-3.35-0.67-4.97-1.1c-0.67-0.18-1.33-0.35-2-0.51l-0.32-0.08c-1.98-0.48-4.04-0.98-5.83-1.96 c-1.81-0.98-2.4-2-1.91-3.29c0.46-1.2,1.71-2.11,2.9-2.11l0.14,0c0.78,0.04,1.56,0.05,2.35,0.05c0.51,0,1.03,0,1.55-0.01 c0.51-0.01,1.03-0.01,1.54-0.01c1.03,0,1.86,0.02,2.6,0.07c1.57,0.1,3.15,0.17,4.72,0.25l0.12,0 c0.29,0.01,0.57,0.02,0.86,0.02c0.97,0.01,1.89,0.02,2.68,0.47c0.1,0.06,0.23,0.14,0.34,0.23c1.79,1.39,2.24,3.85,1.04,5.61 C88.16,64.25,86.26,65.17,84.22,65.17L84.22,65.17z" fill="#444444" fill-rule="evenodd"/>
                <path d="M71.24,56.57c0.04,0,0.07,0,0.11,0c0.69,0.04,1.44,0.05,2.37,0.05c0.52,0,1.04-0.01,1.55-0.01 c0.51-0.01,1.03-0.01,1.54-0.01c1.02,0,1.84,0.02,2.58,0.07c1.54,0.1,3.12,0.17,4.64,0.24l0.2,0.01 c0.29,0.01,0.59,0.02,0.88,0.02c0.94,0.01,1.76,0.02,2.4,0.39c0.1,0.06,0.21,0.13,0.32,0.22c1.57,1.22,1.98,3.39,0.92,4.93 c-0.92,1.35-2.66,2.19-4.54,2.19c-0.26,0-0.52-0.02-0.77-0.05c-1.64-0.22-3.31-0.66-4.92-1.09 c-0.67-0.18-1.34-0.35-2.01-0.52l-0.32-0.08c-1.95-0.47-3.97-0.96-5.71-1.91c-1.97-1.06-1.97-1.91-1.68-2.67 C69.2,57.34,70.25,56.57,71.24,56.57L71.24,56.57 M71.24,55.57c-1.47,0-2.86,1.11-3.37,2.43c-0.72,1.87,0.55,3.05,2.14,3.91 c1.95,1.06,4.14,1.56,6.27,2.08c2.32,0.56,4.64,1.3,7.02,1.62c0.3,0.04,0.6,0.06,0.91,0.06c2.06,0,4.19-0.91,5.36-2.62 c1.4-2.04,0.82-4.76-1.13-6.28c-0.13-0.1-0.27-0.2-0.41-0.28c-1.15-0.65-2.44-0.5-3.76-0.56c-1.6-0.08-3.22-0.15-4.82-0.25 c-0.88-0.06-1.76-0.07-2.64-0.07c-1.03,0-2.07,0.02-3.09,0.02c-0.78,0-1.55-0.01-2.32-0.05 C71.36,55.57,71.3,55.57,71.24,55.57L71.24,55.57z" fill="#30302D"/>
              </g>
            </g>
            <g>
              <g>
                <linearGradient id="SVGID_23_" gradientUnits="userSpaceOnUse" x1="73.5225" x2="73.5225" y1="47.78" y2="97.4917">
                  <stop offset="0" style="stop-color:#A56C43"/>
                  <stop offset="1" style="stop-color:#8D5738"/>
                </linearGradient>
                <path d="M61.29,67.74c-0.23-1.28,0.01-2.56,0.67-3.63l0.25-0.41l-0.02-0.01l13.28-23.28l10.36,6.41 l-14.5,21.66l-1.46,24.57l-5.87,0.07L61.29,67.74z" fill="url(#SVGID_23_)"/>
                <path d="M75.66,41.1l9.48,5.87L71,68.09l-0.15,0.23l-0.02,0.27L69.4,92.56l-4.94,0.06l-2.67-24.93l0-0.04 l-0.01-0.04c-0.2-1.13,0.01-2.28,0.61-3.24l0.52-0.86l-0.03-0.02L75.66,41.1 M75.3,39.71L61.53,63.85l0.01,0 c-0.76,1.23-0.98,2.63-0.74,3.95l2.77,25.84l6.79-0.09l1.48-24.9l14.72-21.98L75.3,39.71L75.3,39.71z" fill="#875334"/>
              </g>
              <circle cx="80.92" cy="43.19" fill="#FBC11B" r="6.61"/>
              <g>
                <polygon fill="#E0E0E0" points="63.15,86.49 70.41,86.41 69.89,93.05 64,93.13 "/>
                <path d="M69.87,86.91l-0.44,5.65l-4.98,0.06l-0.72-5.64L69.87,86.91 M70.95,85.9L70.95,85.9L70.95,85.9z M70.95,85.9l-8.36,0.09l0.98,7.64l6.79-0.09L70.95,85.9L70.95,85.9z" fill="#CCC7BD"/>
              </g>
              <g>
                <path d="M64.85,56.19l9.84-16.93c0.01-0.02,0.02-0.03,0.04-0.05c1.35-2.18,3.7-3.49,6.27-3.49 c1.36,0,2.7,0.38,3.87,1.1c3.63,2.25,4.05,7.03,2.37,10.17c-1.06,1.98-8.91,14.17-10.47,16.58L64.85,56.19z" fill="#7C7C7C"/>
                <path d="M81,36.21c1.27,0,2.52,0.36,3.61,1.03c3.38,2.09,3.77,6.56,2.19,9.51 c-1,1.87-8.16,12.99-10.18,16.14l-11.09-6.86l9.58-16.49c0.02-0.02,0.03-0.04,0.04-0.06C76.42,37.43,78.6,36.21,81,36.21 M81,35.21c-2.63,0-5.21,1.32-6.7,3.73l0,0L64.17,56.35l12.75,7.89c0,0,9.56-14.8,10.76-17.03 c1.93-3.6,1.15-8.54-2.55-10.83C83.84,35.59,82.41,35.21,81,35.21L81,35.21z" fill="#5B5B5B"/>
              </g>
              <g>
                <path d="M57.7,102.75c-0.23,0-0.44-0.16-0.5-0.38l-0.34-1.25c-0.38-1.42,0.13-2.91,1.31-3.79l5.53-3.69 l6.56-1.81c0.56,0.4,2.23,1.68,2.61,3.07l0.77,2.75c0.1,0.36-0.11,0.73-0.47,0.83l-15.33,4.26 C57.79,102.74,57.74,102.75,57.7,102.75z" fill="#4568AD"/>
                <path d="M70.15,92.37c0.74,0.55,1.94,1.63,2.23,2.66l0.77,2.75c0.02,0.06,0,0.1-0.02,0.13 c-0.02,0.03-0.05,0.06-0.1,0.08l-15.35,4.24l-0.34-1.24c-0.33-1.21,0.11-2.49,1.11-3.25l5.46-3.64L70.15,92.37 M70.34,91.28l-6.86,1.9l-5.61,3.75c-1.33,1-1.92,2.71-1.49,4.33l0.34,1.25c0.12,0.45,0.54,0.75,0.98,0.75 c0.09,0,0.18-0.01,0.27-0.04l15.33-4.26c0.62-0.17,0.99-0.82,0.81-1.44l-0.77-2.75C72.83,92.89,70.34,91.28,70.34,91.28 L70.34,91.28z" fill="#315499"/>
              </g>
            </g>
            <g>
              <linearGradient id="SVGID_24_" gradientUnits="userSpaceOnUse" x1="49.7299" x2="85.0446" y1="35.9521" y2="35.9521">
                <stop offset="0" style="stop-color:#651FFF"/>
                <stop offset="0.7047" style="stop-color:#5914F2"/>
                <stop offset="1" style="stop-color:#530EEB"/>
              </linearGradient>
              <path d="M71.52,48.12c-1.35,0-2.74-0.33-4.13-0.97c-2.01-0.93-3.19-1.89-4.44-2.92 c-2.02-1.65-4.11-3.36-9.74-5.14c-1.28-0.41-2.32-1.39-2.93-2.78c-0.73-1.68-0.74-3.68-0.01-5.22 c0.44-0.91,0.4-1.38,0.32-1.9c-0.06-0.33-0.1-0.59,0.19-1.25c1.4-2.59,4.34-4.16,7.84-4.16c0.8,0,1.6,0.09,2.37,0.25 c9.79,2.15,17.88,6.37,24.05,12.54C81.61,42.34,77.32,48.12,71.52,48.12L71.52,48.12z" fill="url(#SVGID_24_)"/>
              <path d="M58.62,24.28c0.77,0,1.53,0.08,2.27,0.24c9.55,2.1,17.46,6.18,23.52,12.13 c-3.33,5.53-7.45,10.96-12.89,10.96c-1.28,0-2.6-0.31-3.92-0.93c-1.95-0.9-3.11-1.85-4.33-2.85 c-1.96-1.6-4.18-3.42-9.9-5.23c-1.14-0.36-2.07-1.25-2.62-2.5c-0.67-1.53-0.67-3.41-0.02-4.8c0.5-1.04,0.46-1.64,0.36-2.2 c-0.05-0.28-0.07-0.43,0.14-0.93C52.56,25.74,55.32,24.28,58.62,24.28 M58.62,23.28c-3.27,0-6.63,1.37-8.3,4.46 c-0.73,1.62,0.29,1.48-0.5,3.14c-1.41,2.99-0.26,7.58,3.24,8.68c9.09,2.89,8.84,5.59,14.12,8.04 c1.53,0.71,2.98,1.02,4.34,1.02c6.66,0,11.37-7.4,14.15-12.12c-6.11-6.23-14.25-10.69-24.57-12.96 C60.3,23.37,59.47,23.28,58.62,23.28L58.62,23.28z" fill="#4A00ED"/>
            </g>
            <g>
              <circle cx="53.58" cy="30.16" fill="#FBC11B" r="4.06"/>
              <g>
                <linearGradient id="SVGID_25_" gradientUnits="userSpaceOnUse" x1="28.2966" x2="56.8473" y1="44.8931" y2="44.8931">
                  <stop offset="0" style="stop-color:#8D5738"/>
                  <stop offset="0.2163" style="stop-color:#97603D"/>
                  <stop offset="0.5728" style="stop-color:#A26941"/>
                  <stop offset="1" style="stop-color:#A56C43"/>
                </linearGradient>
                <path d="M35.37,60.15c-0.2,0-0.44-0.12-0.82-0.42c0.05-0.16,0.2-0.45,0.3-0.66 c0.15-0.29,0.3-0.6,0.42-0.9c0.48-1.31,0.28-2.13-0.69-2.95c-0.19-0.16-0.54-0.32-1.7-0.32c-0.57,0-1.09,0.04-1.09,0.04 c-0.12,0.01-0.23,0.06-0.31,0.15c-0.03,0.03-0.68,0.69-1.09,1.36c-0.23,0.38-0.16,0.83-0.1,1.27 c0.05,0.32,0.1,0.71-0.02,0.8c-0.17,0.12-0.35,0.17-0.54,0.17c-0.64,0-1.22-0.68-1.26-0.9l-0.17-2.42 c0.62-0.62,1.93-1.89,2.52-2.24c0.09-0.06,0.46-0.15,1.23-0.15c1.19,0,3.04,0.23,4.52,0.73c0.05,0.02,0.11,0.03,0.16,0.03 c0.12,0,0.23-0.04,0.32-0.12l8.33-7.02c0.08-0.07,0.13-0.15,0.16-0.25l4.5-16.73l6.81,2.02l-5.66,17.46 c-0.18,0.62-0.54,1.15-1.04,1.55l-10.87,7.3c-0.23,0.16-0.5,0.24-0.8,0.33c-0.51,0.15-1.15,0.34-1.79,0.98 C36.07,59.88,35.67,60.15,35.37,60.15L35.37,60.15z" fill="url(#SVGID_25_)"/>
                <path d="M50.38,30.26l5.83,1.73l-5.51,17c-0.15,0.5-0.44,0.93-0.84,1.26l-10.87,7.3 c-0.16,0.11-0.38,0.18-0.66,0.26c-0.54,0.16-1.27,0.38-2,1.11c-0.73,0.73-0.95,0.73-0.96,0.73c-0.01,0-0.06-0.01-0.2-0.09 c0.04-0.09,0.09-0.18,0.13-0.26c0.15-0.29,0.32-0.62,0.44-0.96c0.55-1.51,0.29-2.55-0.85-3.5 c-0.37-0.31-0.96-0.44-2.02-0.44c-0.59,0-1.11,0.04-1.13,0.04c-0.24,0.02-0.46,0.12-0.63,0.29 c-0.07,0.07-0.73,0.75-1.16,1.46c-0.32,0.53-0.23,1.12-0.16,1.6c0.02,0.11,0.04,0.27,0.05,0.38 c-0.05,0.01-0.08,0.02-0.11,0.02c-0.3,0-0.63-0.31-0.75-0.49c0-0.01,0-0.02,0-0.03l-0.15-2.11 c0.74-0.73,1.8-1.72,2.23-1.99c0,0,0.24-0.1,1-0.1c1.35,0,3.14,0.29,4.36,0.71c0.11,0.04,0.22,0.05,0.32,0.05 c0.23,0,0.46-0.08,0.64-0.24l8.33-7.02c0.16-0.13,0.27-0.31,0.32-0.51L50.38,30.26 M49.68,29.01l-4.63,17.22l-8.33,7.02 c-1.43-0.49-3.34-0.76-4.68-0.76c-0.69,0-1.24,0.07-1.49,0.22c-0.84,0.5-2.78,2.48-2.78,2.48l0.19,2.56 c-0.1,0.37,0.74,1.44,1.75,1.44c0.26,0,0.54-0.07,0.81-0.26c0.68-0.45-0.05-1.7,0.27-2.23c0.38-0.63,1.01-1.27,1.01-1.27 s0.5-0.04,1.05-0.04c0.56,0,1.18,0.04,1.38,0.21c0.76,0.63,0.98,1.19,0.55,2.39c-0.31,0.86-1.02,1.75-0.66,2.04 c0.47,0.38,0.84,0.61,1.23,0.61c0.46,0,0.94-0.31,1.66-1.03c0.92-0.92,1.79-0.74,2.52-1.25l10.9-7.32 c0.56-0.44,0.99-1.05,1.21-1.78l5.82-17.95L49.68,29.01L49.68,29.01z" fill="#875334"/>
              </g>
              <g>
                <path d="M46.54,38.97l2.41-8.96c0.01-0.01,0.01-0.03,0.02-0.05c0.6-2.03,2.5-3.45,4.62-3.45 c0.46,0,0.92,0.07,1.37,0.2c1.23,0.37,2.25,1.19,2.87,2.32c0.61,1.13,0.75,2.43,0.39,3.67l-2.88,8.87L46.54,38.97z" fill="#4300D9"/>
                <path d="M53.59,27.01c0.41,0,0.83,0.06,1.23,0.18c2.29,0.68,3.59,3.09,2.92,5.35l-2.73,8.42l-7.86-2.33 l2.27-8.46c0.01-0.02,0.01-0.04,0.02-0.06C49.99,28.29,51.69,27.01,53.59,27.01 M53.59,26.01c-2.3,0-4.42,1.5-5.1,3.81l0,0 l-2.55,9.49l9.73,2.88l3.03-9.35c0.83-2.82-0.77-5.78-3.59-6.61C54.6,26.08,54.09,26.01,53.59,26.01L53.59,26.01z" fill="#3B00BF"/>
              </g>
            </g>
            <g>
              <linearGradient id="SVGID_26_" gradientTransform="matrix(0.9962 0.0868 -0.0868 0.9962 0.8489 19.5209)" gradientUnits="userSpaceOnUse" x1="46.2255" x2="46.2255" y1="-0.8241" y2="7.0234">
                <stop offset="0" style="stop-color:#646464"/>
                <stop offset="0.9947" style="stop-color:#262626"/>
              </linearGradient>
              <path d="M45.93,27.8c0.11,1.66-2.8,5.42-2.88,5.65c-0.16,0.38,1.43,0.44,1.78,0.08 c0.35-0.36,3.57-3.53,5.64-7.49c0.93-1.78,3.03-6.51,3.03-6.51l-2.93-1.43c0,0-0.86,8.22-2.93,8.19 c-2.08-0.03-2.04-7.99-2.04-7.99l-4.67,1.94C40.93,20.24,45.87,26.77,45.93,27.8z" fill="url(#SVGID_26_)"/>
              <g>
                <radialGradient id="SVGID_27_" cx="34.7236" cy="11.8725" gradientUnits="userSpaceOnUse" r="19.4506">
                  <stop offset="0" style="stop-color:#81D4FA"/>
                  <stop offset="0.3601" style="stop-color:#5EB3E7"/>
                  <stop offset="0.7751" style="stop-color:#3C92D3"/>
                  <stop offset="1" style="stop-color:#2F85CC"/>
                </radialGradient>
                <path d="M53.64,22.41c-0.92,0-1.91-0.71-2.7-1.96c-1.05-1.64-2.13-2.43-3.32-2.43 c-0.18,0-0.34,0.02-0.49,0.04c-0.86,0.15-1.31,0.59-1.83,1.09c-0.26,0.25-0.55,0.54-0.95,0.84 c-0.78,0.6-1.45,0.89-2.06,0.89c-0.63,0-1.19-0.3-1.83-0.76c-0.04-0.03-0.09-0.07-0.16-0.12c-0.52-0.42-1.74-1.4-3.36-1.4 c-0.12,0-0.24,0.01-0.37,0.02c-0.46,0.04-1.25,0.32-2.5,0.77c-0.79,0.28-1.6,0.57-2.04,0.67c-0.2,0.04-0.36,0.06-0.51,0.06 c-0.33,0-0.59-0.11-0.8-0.34c-0.48-0.52-0.69-1.72-0.56-3.2c0.14-1.54,0.66-3.22,1.55-5.01c1.85-3.7,6.23-5.85,7.62-6.32 c1.52-0.51,3.1-0.76,4.71-0.76c3.54,0,6.83,1.24,9.25,3.48c2.75,2.55,3.34,5.55,3.36,7.62c0.02,3.16-1.24,5.74-1.89,6.36 C54.46,22.26,54.07,22.41,53.64,22.41L53.64,22.41z" fill="url(#SVGID_27_)"/>
                <path d="M44.06,4.99c3.42,0,6.58,1.19,8.9,3.35c2.62,2.43,3.18,5.29,3.2,7.26c0.02,3.07-1.22,5.5-1.74,6 c-0.21,0.2-0.48,0.31-0.78,0.31c-0.75,0-1.58-0.63-2.28-1.73c-1.15-1.79-2.37-2.66-3.74-2.66c-0.19,0-0.38,0.02-0.57,0.05 c-1.01,0.18-1.54,0.69-2.09,1.23c-0.26,0.25-0.53,0.52-0.91,0.8c-0.69,0.53-1.26,0.79-1.75,0.79 c-0.5,0-0.98-0.27-1.54-0.67c-0.03-0.02-0.08-0.06-0.13-0.1c-0.56-0.45-1.88-1.51-3.67-1.51c-0.13,0-0.27,0.01-0.41,0.02 c-0.52,0.05-1.34,0.33-2.62,0.79c-0.77,0.28-1.57,0.56-1.98,0.65c-0.16,0.04-0.3,0.05-0.41,0.05 c-0.2,0-0.32-0.05-0.43-0.18c-0.38-0.41-0.54-1.51-0.43-2.82c0.13-1.48,0.64-3.1,1.5-4.83c1.81-3.61,6.24-5.7,7.33-6.07 C40.97,5.24,42.5,4.99,44.06,4.99 M44.06,3.99c-1.64,0-3.3,0.26-4.87,0.79c-1.44,0.48-5.97,2.71-7.91,6.57 c-0.81,1.62-1.45,3.39-1.61,5.19c-0.09,0.98-0.1,2.73,0.69,3.59c0.35,0.38,0.77,0.5,1.17,0.5c0.21,0,0.42-0.03,0.62-0.07 c1.05-0.23,3.7-1.35,4.49-1.43c0.11-0.01,0.21-0.01,0.32-0.01c1.66,0,2.89,1.19,3.22,1.43c0.67,0.48,1.34,0.86,2.12,0.86 c0.67,0,1.43-0.27,2.36-0.99c1.21-0.93,1.48-1.65,2.56-1.84c0.12-0.02,0.26-0.04,0.4-0.04c0.73,0,1.73,0.38,2.9,2.2 c0.99,1.54,2.14,2.19,3.12,2.19c0.57,0,1.08-0.21,1.47-0.59c1.49-1.42,4.39-9.27-1.47-14.71 C51.04,5.19,47.56,3.99,44.06,3.99L44.06,3.99z" fill="#007EB5"/>
              </g>
            </g>
          </g>
          <g clip-path="url(#SVGID_10_)">
            <radialGradient id="SVGID_28_" cx="32.9347" cy="56.5459" gradientUnits="userSpaceOnUse" r="2.3391">
              <stop offset="0" style="stop-color:#78909C"/>
              <stop offset="0.5619" style="stop-color:#617A86"/>
              <stop offset="1" style="stop-color:#546E7A"/>
            </radialGradient>
            <path clip-rule="evenodd" d="M32.94,58.89c-1.29,0-2.34-1.05-2.34-2.34 s1.05-2.34,2.34-2.34c1.29,0,2.34,1.05,2.34,2.34S34.23,58.89,32.94,58.89z" fill="url(#SVGID_28_)" fill-rule="evenodd"/>
            <path d="M32.94,54.71c1.01,0,1.84,0.83,1.84,1.84c0,1.01-0.82,1.84-1.84,1.84c-1.01,0-1.84-0.83-1.84-1.84 C31.1,55.53,31.92,54.71,32.94,54.71 M32.94,53.71c-1.57,0-2.84,1.27-2.84,2.84c0,1.57,1.27,2.84,2.84,2.84 c1.57,0,2.84-1.27,2.84-2.84C35.77,54.98,34.5,53.71,32.94,53.71L32.94,53.71z" fill="#405966"/>
          </g>
        </g>
        <g>
          <path d="M11.95,127.5c-0.52-1.75-0.93-3.74-0.8-4.23c0.67-0.39,1.6-1.21,2.58-2.08 c0.92-0.82,1.88-1.66,2.46-1.98l0.55-0.31c1.25-0.7,2.53-1.42,3.88-1.42c0.16,0,0.32,0.01,0.49,0.03 c0.91,0.12,1.86,0.46,2.78,0.78c0.53,0.19,1.06,0.37,1.58,0.52c0.52,0.15,1.04,0.3,1.56,0.46c1.15,0.35,2.33,0.7,3.52,0.95 c0.39,0.08,0.81,0.12,1.26,0.12c1.63,0,3.36-0.53,4.89-1c0.38-0.12,0.75-0.23,1.09-0.33c0.67-0.19,1.33-0.39,2-0.59 c1.91-0.58,3.89-1.17,5.89-1.45c0.19-0.03,0.37-0.04,0.55-0.04c0.8,0,1.48,0.25,2.26,0.55c0.31,0.12,0.63,0.24,0.98,0.35 c1.52,0.49,3.08,0.86,4.59,1.21c0.98,0.23,1.96,0.46,2.94,0.73c1.23,0.33,2.43,0.49,3.68,0.49c2.53,0,4.95-0.7,7-1.39 l0.39-0.13c1.11-0.38,2.38-0.8,3.4-0.99c0.26-0.05,0.54-0.07,0.84-0.07c1.18,0,2.46,0.38,3.69,0.75 c0.51,0.15,1.01,0.3,1.49,0.42c1.52,0.38,2.96,0.63,4.4,0.78c0.34,0.04,0.68,0.09,1.01,0.15c0.45,0.08,0.92,0.16,1.4,0.19 c0.08,0,0.15,0.01,0.23,0.01c0.67,0,1.26-0.19,1.83-0.38l0.31-0.1c1.73-0.55,3.4-1.32,5.01-2.06l1.04-0.48 c0.39-0.18,0.73-0.26,1.07-0.26c0.56,0,1.1,0.23,1.75,0.53c0.91,0.42,1.87,0.75,2.79,1.07c0.48,0.17,0.97,0.33,1.44,0.51 c0.41,0.15,0.82,0.34,1.23,0.54c0.88,0.41,1.8,0.83,2.79,0.96c0.13,0.02,0.26,0.03,0.39,0.03c0.89,0,1.67-0.39,2.42-0.78 c0.44-0.22,0.86-0.44,1.27-0.55c0.24-0.07,0.48-0.1,0.73-0.1c1.04,0,2.07,0.6,3.04,1.22c0.48,0.3,0.98,0.56,1.47,0.81 c0.73,0.37,1.41,0.72,2,1.2c1.26,1.04,2.16,3.9,1.82,5.05c-0.08,0.25-0.18,0.29-0.24,0.3H11.95z" fill="#6D4C41"/>
          <path d="M93.76,117.22c0.41,0,0.84,0.16,1.54,0.49c0.93,0.43,1.9,0.76,2.83,1.08c0.48,0.16,0.96,0.33,1.43,0.51 c0.39,0.15,0.78,0.33,1.2,0.52c0.92,0.42,1.87,0.86,2.93,1c0.15,0.02,0.31,0.03,0.46,0.03c1.01,0,1.88-0.44,2.65-0.83 c0.42-0.21,0.81-0.41,1.18-0.52c0.19-0.06,0.39-0.08,0.59-0.08c0.91,0,1.86,0.56,2.77,1.14c0.5,0.32,1.01,0.58,1.51,0.83 c0.7,0.36,1.36,0.69,1.91,1.14c1.2,0.99,1.9,3.69,1.68,4.47H12.32c-0.41-1.44-0.69-2.85-0.7-3.44c0.69-0.45,1.54-1.2,2.43-1.99 c0.86-0.76,1.84-1.63,2.36-1.92c0.18-0.1,0.37-0.2,0.55-0.31c1.19-0.67,2.42-1.36,3.63-1.36c0.14,0,0.28,0.01,0.42,0.03 c0.86,0.11,1.75,0.43,2.68,0.75c0.53,0.18,1.07,0.37,1.61,0.53c0.52,0.15,1.03,0.3,1.55,0.46c1.16,0.35,2.35,0.71,3.57,0.96 c0.42,0.09,0.88,0.13,1.35,0.13c1.7,0,3.47-0.54,5.04-1.02c0.38-0.11,0.74-0.23,1.08-0.32c0.67-0.19,1.34-0.39,2.01-0.59 c1.98-0.6,3.85-1.16,5.81-1.43c0.16-0.02,0.32-0.03,0.48-0.03c0.71,0,1.32,0.23,2.09,0.52c0.32,0.12,0.65,0.24,1,0.36 c1.54,0.5,3.11,0.87,4.62,1.22c0.96,0.23,1.96,0.46,2.92,0.72c1.27,0.34,2.51,0.51,3.81,0.51c2.6,0,5.07-0.71,7.16-1.41 l0.4-0.13c1.09-0.37,2.34-0.79,3.32-0.97c0.23-0.04,0.48-0.06,0.75-0.06c1.11,0,2.35,0.37,3.54,0.73 c0.5,0.15,1.02,0.3,1.51,0.43c1.54,0.38,3,0.64,4.47,0.79c0.32,0.03,0.64,0.09,0.98,0.15c0.46,0.08,0.94,0.16,1.44,0.19 c0.09,0.01,0.18,0.01,0.26,0.01c0.75,0,1.38-0.21,1.99-0.41l0.3-0.1c1.75-0.56,3.43-1.33,5.06-2.08 c0.35-0.16,0.7-0.32,1.04-0.48C93.22,117.28,93.5,117.22,93.76,117.22 M11.64,123.37L11.64,123.37L11.64,123.37 M93.76,116.22 c-0.39,0-0.8,0.09-1.28,0.3c-1.97,0.89-3.93,1.86-5.99,2.52c-0.67,0.21-1.29,0.46-1.99,0.46c-0.06,0-0.13,0-0.2-0.01 c-0.81-0.05-1.59-0.25-2.39-0.34c-1.47-0.15-2.88-0.41-4.34-0.77c-1.64-0.4-3.54-1.18-5.29-1.18c-0.32,0-0.63,0.03-0.93,0.08 c-1.18,0.22-2.62,0.72-3.85,1.14c-2.37,0.8-4.57,1.36-6.84,1.36c-1.15,0-2.32-0.14-3.55-0.48c-2.5-0.68-5.03-1.14-7.5-1.93 c-1.24-0.4-2.17-0.92-3.4-0.92c-0.2,0-0.4,0.01-0.62,0.04c-2.73,0.37-5.33,1.31-7.96,2.05c-1.74,0.49-3.9,1.3-5.85,1.3 c-0.4,0-0.78-0.03-1.15-0.11c-1.7-0.35-3.37-0.93-5.05-1.4c-1.45-0.41-2.95-1.11-4.43-1.31c-0.19-0.03-0.37-0.04-0.55-0.04 c-1.69,0-3.23,1-4.67,1.79c-1.26,0.69-3.86,3.42-5.11,4.1c-0.71,0.39,0.75,5.12,0.75,5.12H116.7c1.62-0.17,0.48-4.78-1.3-6.24 c-1.05-0.86-2.37-1.32-3.52-2.04c-1.02-0.65-2.12-1.3-3.3-1.3c-0.28,0-0.57,0.04-0.87,0.12c-1.18,0.34-2.29,1.31-3.56,1.31 c-0.11,0-0.21-0.01-0.32-0.02c-1.37-0.18-2.64-0.99-3.91-1.47c-1.4-0.53-2.85-0.93-4.2-1.56 C95.01,116.46,94.41,116.22,93.76,116.22L93.76,116.22z" fill="#593A2F"/>
        </g>
      </g>
    </g>
    <radialGradient id="SVGID_29_" cx="63.6691" cy="18.8721" gradientUnits="userSpaceOnUse" r="7.8758">
      <stop offset="0" style="stop-color:#554138"/>
      <stop offset="1" style="stop-color:#3C2C23"/>
    </radialGradient>
    <path d="M55.79,21.11c1.22-2.26,3.77-3.75,6.34-3.71c1.35,0.02,2.68,0.43,4.04,0.42 c2.91-0.04,5.51-2.09,6.98-4.61c0.12,2.35,0.38,5.33-0.67,7.44s-4.31,4.15-7.06,3.84c-5.48-0.62-4.94-2.03-11.33-0.24" fill="url(#SVGID_29_)"/>
    <path d="M65.03,24.51c-1.92-0.12-3.17-0.54-4.18-0.8c-1.95-0.5-4.21-0.38-7.1,0.71l0.52-1.15 c3.56-1.27,4.8-1.05,6.82-0.53c1.03,0.27,2.2,0.57,4.05,0.78c2.53,0.29,5.37-1.78,6.33-3.66c1.29-2.54,1.36-5.47,1.36-5.47 c-1.15,1.68-3.65,4.31-7.11,3.9c-1.38-0.16-3.1-0.32-4.19-0.22c-2.46,0.23-4.98,1.67-6.08,3.71c0,0,0.15-0.46,0.58-1.38 c0.88-1.86,2.96-3.28,5.8-3.35c0.92-0.02,2.43,0.27,4.49,0.28c3.61,0.02,7.31-5.51,7.31-5.51c0.5,1.06,0.21,6.25-1.04,8.58 C71.5,22.44,68.84,24.75,65.03,24.51z" fill="#291D15"/>
  </g>
</svg>