<svg viewBox="0 0 128 128" xmlns="http://www.w3.org/2000/svg" xmlns:xlink="http://www.w3.org/1999/xlink">
  <path d="M122.06,19H5.94C4.87,19,4,18.06,4,17s0.87-2,1.94-2h116.13c1.07,0,1.94,0.94,1.94,2 S123.13,19,122.06,19z" fill="#504F4F"/>
  <path d="M108,16H91.96c-0.26,0-0.51,0.07-0.73,0.19l-26,27.46c-0.18,0.1-0.34,0.35-0.46,0.35H54 c-1.1,0-2,0.98-2,2.08v0.83c0,1.1,0.9,2.08,2,2.08h23.92c1.1,0,2.08-0.98,2.08-2.08v-0.83c0-1.1-0.98-2.08-2.08-2.08h-7.24l22.94-25 H108c0.83,0,1.5-0.67,1.5-1.5S108.83,16,108,16z" fill="#787676"/>
  <linearGradient id="SVGID_1_" gradientTransform="matrix(1 0 0 -1 0 128)" gradientUnits="userSpaceOnUse" x1="64" x2="64" y1="79.361" y2="24.25">
    <stop offset="6.808300e-03" stop-color="#FFF8E1"/>
    <stop offset="0.1844" stop-color="#FFF7DC"/>
    <stop offset="0.4054" stop-color="#FFF3CC"/>
    <stop offset="0.6496" stop-color="#FFECB3"/>
    <stop offset="0.9087" stop-color="#FFE490"/>
    <stop offset="0.9981" stop-color="#FFE082"/>
  </linearGradient>
  <path d="M118,115.75H10c-3.3,0-6-2.7-6-6V54c0-3.3,2.7-6,6-6h108c3.3,0,6,2.7,6,6v55.75 C124,113.05,121.3,115.75,118,115.75z" fill="url(#SVGID_1_)"/>
  <path d="M29.95,81.92H16.03c-1.66,0-3-1.34-3-3V58.87c0-1.66,1.34-3,3-3h13.92c1.66,0,3,1.34,3,3v20.05 C32.95,80.58,31.61,81.92,29.95,81.92z" fill="#4FC3F7"/>
  <path d="M49.87,75.67h-9.84c-1.66,0-3-1.34-3-3v-13.8c0-1.66,1.34-3,3-3h9.84c1.66,0,3,1.34,3,3v13.8 C52.87,74.33,51.53,75.67,49.87,75.67z" fill="#4FC3F7"/>
  <path d="M69.82,75.67h-9.84c-1.66,0-3-1.34-3-3v-13.8c0-1.66,1.34-3,3-3h9.84c1.66,0,3,1.34,3,3v13.8 C72.82,74.33,71.48,75.67,69.82,75.67z" fill="#4FC3F7"/>
  <path d="M89.96,75.67h-9.84c-1.66,0-3-1.34-3-3v-13.8c0-1.66,1.34-3,3-3h9.84c1.66,0,3,1.34,3,3v13.8 C92.96,74.33,91.62,75.67,89.96,75.67z" fill="#4FC3F7"/>
  <path d="M109.92,75.67h-9.84c-1.66,0-3-1.34-3-3v-13.8c0-1.66,1.34-3,3-3h9.84c1.66,0,3,1.34,3,3v13.8 C112.92,74.33,111.58,75.67,109.92,75.67z" fill="#4FC3F7"/>
  <g>
    <defs>
      <path id="SVGID_2_" d="M118,115.75H10c-3.3,0-6-2.7-6-6V54c0-3.3,2.7-6,6-6h108c3.3,0,6,2.7,6,6v55.75 C124,113.05,121.3,115.75,118,115.75z"/>
    </defs>
    <clipPath id="SVGID_3_">
      <use overflow="visible" xlink:href="#SVGID_2_"/>
    </clipPath>
    <rect clip-path="url(#SVGID_3_)" fill="#66BB6A" height="29.05" width="120.12" x="3.88" y="89.1"/>
  </g>
  <path d="M4.87,90.75c-0.3,0-0.59,0.04-0.87,0.1v10.3c0.28,0.06,0.57,0.1,0.87,0.1c2.18,0,3.96-1.78,3.96-3.96 v-2.58C8.83,92.53,7.05,90.75,4.87,90.75z" fill="#FFEB3B"/>
  <circle cx="27" cy="112" fill="#553A30" r="12"/>
  <circle cx="27" cy="112" fill="#BDBDBD" r="5.14"/>
  <circle cx="101" cy="112" fill="#553A30" r="12"/>
  <circle cx="101" cy="112" fill="#BDBDBD" r="5.14"/>
</svg>