<svg viewBox="0 0 128 128" xmlns="http://www.w3.org/2000/svg">
  <rect height="0.37" style="fill:#666666;" width="1.36" x="77.68" y="42.01"/>
  <linearGradient id="SVGID_1_" gradientTransform="matrix(1 0 0 -1 0 128)" gradientUnits="userSpaceOnUse" x1="64.07" x2="64.07" y1="25.14" y2="91.441">
    <stop offset="0.2346" style="stop-color:#D32F2F"/>
    <stop offset="0.5991" style="stop-color:#E73B33"/>
    <stop offset="0.9106" style="stop-color:#F44336"/>
  </linearGradient>
  <path d="M115.02,104.15l-0.21,15.76H13.12l0.03-15.76L25.5,36.04c1.28-6.95,6.92-11.95,13.46-11.95 h50.25c6.54,0,12.18,5,13.46,11.95C102.67,36.04,115.02,104.15,115.02,104.15z" style="fill:url(#SVGID_1_);"/>
  <ellipse cx="64.09" cy="64.09" rx="30.46" ry="33" style="fill:#EF5350;"/>
  <polygon points="45.01,79.79 45.14,48.21 63.96,64.41 " style="fill:#FFCDD2;"/>
  <polygon points="83.54,79.79 83.41,48.21 64.6,64.41 " style="fill:#FFCDD2;"/>
  <path d="M4.09,124l0.02-10.94c0-4.9,3.66-8.86,8.18-8.87l103.42-0.04c4.47,0,8.12,3.88,8.19,8.73l0.2,11.12 C124.1,124,4.09,124,4.09,124z" style="fill:#504F4F;"/>
</svg>