<svg viewBox="0 0 128 128" xmlns="http://www.w3.org/2000/svg">
  <g>
    <path d="M4,83.05V44.95c0-5.26,4.27-9.53,9.53-9.53h100.94c5.26,0,9.53,4.27,9.53,9.53v38.11 c0,5.26-4.27,9.53-9.53,9.53H13.53C8.27,92.58,4,88.32,4,83.05z" fill="#424242"/>
    <circle cx="27.29" cy="65.26" r="13.41" fill="#4CAF50"/>
    <path d="M17.93,66.44c-1.14-0.36-1.45-4.36,1.22-7.57c3.98-4.79,9.71-4.67,10.32-2.12 c0.85,3.57-3.67,2.16-7.11,5.04C20.22,63.59,19.74,67,17.93,66.44z" fill="#6FD86F"/>
    <circle cx="64" cy="65.26" r="13.41" fill="#FFCA28"/>
    <path d="M54.64,66.45c-1.14-0.36-1.45-4.36,1.22-7.57c3.98-4.79,9.71-4.67,10.32-2.12 c0.85,3.57-3.67,2.16-7.11,5.04C56.92,63.6,56.45,67.01,54.64,66.45z" fill="#FFF59D"/>
    <circle cx="100.71" cy="65.26" r="13.41" fill="#F44336"/>
    <path d="M91.35,66.45c-1.14-0.36-1.45-4.36,1.22-7.57c3.98-4.79,9.71-4.67,10.32-2.12 c0.85,3.57-3.67,2.16-7.11,5.04C93.63,63.6,93.16,67.01,91.35,66.45z" fill="#FF8155"/>
    <path d="M12.77,58.77c-0.47,0.92-1.89,0.88-1.76-0.52c0.32-3.41,2.26-6.09,3.85-7.73 c3.16-3.32,7.8-5.21,12.43-5.2c4.63-0.02,9.27,1.88,12.44,5.19c1.59,1.64,3.85,5.3,3.86,7.85c0,1.11-1.26,1.41-1.72,0.51 c-1.15-2.24-4.71-9.55-14.57-9.55S13.91,56.55,12.77,58.77z" fill="#757575"/>
    <path d="M49.48,58.77c-0.47,0.92-1.89,0.88-1.76-0.52c0.32-3.41,2.26-6.09,3.85-7.73 c3.16-3.32,7.8-5.21,12.43-5.2c4.63-0.02,9.27,1.88,12.44,5.19c1.59,1.64,3.85,5.3,3.86,7.85c0,1.11-1.26,1.41-1.72,0.51 c-1.15-2.24-4.71-9.55-14.57-9.55S50.62,56.55,49.48,58.77z" fill="#757575"/>
    <path d="M86.18,58.77c-0.47,0.92-1.89,0.88-1.76-0.52c0.32-3.41,2.26-6.09,3.85-7.73 c3.16-3.32,7.8-5.21,12.43-5.2c4.63-0.02,9.27,1.88,12.44,5.19c1.59,1.64,3.85,5.3,3.86,7.85c0,1.11-1.26,1.41-1.72,0.51 c-1.15-2.24-4.71-9.55-14.57-9.55S87.33,56.55,86.18,58.77z" fill="#757575"/>
  </g>
</svg>