<svg viewBox="0 0 128 128" xmlns="http://www.w3.org/2000/svg">
  <defs/>
  <path d="M110.47,59.02 C119.98,34.19 114.12,15.19 110.76,9.74 C109.43,7.58 106.87,6.98 104.51,7.72 C98.29,9.68 81.5,23.4 74.08,42.6" fill="#FFC022"/>
  <path d="M17.53,59.02 C8.02,34.19 13.88,15.19 17.24,9.74 C18.57,7.58 21.13,6.98 23.49,7.72 C29.71,9.68 46.5,23.4 53.92,42.6" fill="#FFC022"/>
  <path d="M114.11,70.76 C112.31,44.78 94.44,26.3 64,26.3 C33.56,26.3 15.69,44.78 13.89,70.76 C12.84,85.9 18.94,98.77 30.98,106.97 C30.98,106.97 43.19,116.85 64,117.11 C84.81,116.85 97.02,106.97 97.02,106.97 C109.05,98.77 115.16,85.9 114.11,70.76 Z" fill="#FFC022"/>
  <path d="M54.12,45.02 C55.25,45.98 57.54,45.84 58.87,44.3 C60.48,42.43 62.16,36.13 61.11,26.39 C56.44,26.56 52.02,27.23 47.9,28.36 C51.23,33.82 52.03,43.24 54.12,45.02 Z" fill="#FF7043" opacity="0.47"/>
  <path d="M73.88,45.02 C72.75,45.98 70.46,45.84 69.13,44.3 C67.52,42.43 65.84,36.13 66.89,26.39 C71.56,26.56 75.98,27.23 80.1,28.36 C76.77,33.82 75.97,43.24 73.88,45.02 Z" fill="#FF7043" opacity="0.47"/>
  <path d="M6.753,63.474 L21.853,70.914 Q22.526,71.246 22.696,71.748 Q22.867,72.25 22.536,72.923 Q21.873,74.269 20.527,73.606 L5.427,66.166 Q4.754,65.834 4.584,65.332 Q4.413,64.83 4.744,64.157 Q5.407,62.811 6.753,63.474 Z" fill="#9E9E9E"/>
  <path d="M4.246,75.552 L22.396,78.702 Q23.135,78.83 23.441,79.264 Q23.746,79.698 23.618,80.436 Q23.361,81.914 21.884,81.658 L3.734,78.508 Q2.995,78.38 2.689,77.946 Q2.384,77.512 2.512,76.774 Q2.769,75.296 4.246,75.552 Z" fill="#9E9E9E"/>
  <path d="M122.573,66.166 L107.473,73.606 Q106.127,74.269 105.464,72.923 Q104.801,71.577 106.147,70.914 L121.247,63.474 Q121.92,63.143 122.422,63.314 Q122.924,63.484 123.256,64.157 Q123.919,65.503 122.573,66.166 Z" fill="#9E9E9E"/>
  <path d="M124.266,78.508 L106.116,81.658 Q104.639,81.914 104.382,80.436 Q104.126,78.959 105.604,78.702 L123.754,75.552 Q125.231,75.296 125.488,76.774 Q125.744,78.251 124.266,78.508 Z" fill="#9E9E9E"/>
  <path d="M32.56,70.26 C32.26,70.26 31.96,70.2 31.67,70.07 C30.55,69.58 30.03,68.27 30.53,67.15 C30.88,66.35 34.13,59.3 39.88,59.3 C45.56,59.3 49.05,66.04 49.43,66.81 C49.97,67.91 49.52,69.24 48.42,69.78 C47.32,70.32 46.25,69.66 45.45,68.77 C44.48,67.69 42.37,65.27 39.88,65.27 C37.38,65.27 35.3,67.86 34.6,68.92 C34.09,69.69 33.41,70.26 32.56,70.26 Z"/>
  <path d="M95.44,70.26 C95.74,70.26 96.04,70.2 96.33,70.07 C97.45,69.58 97.97,68.27 97.47,67.15 C97.12,66.35 93.87,59.3 88.12,59.3 C82.44,59.3 78.95,66.04 78.57,66.81 C78.03,67.91 78.48,69.24 79.58,69.78 C80.68,70.32 81.75,69.66 82.55,68.77 C83.52,67.69 85.63,65.27 88.12,65.27 C90.62,65.27 92.7,67.86 93.4,68.92 C93.91,69.69 94.59,70.26 95.44,70.26 Z"/>
  <path d="M55.96,76.98 C55.91,74.12 60.02,72.74 63.91,72.68 C67.8,72.61 71.98,73.88 72.03,76.74 C72.08,79.6 67.17,83.38 64.08,83.38 C60.99,83.38 56.01,79.84 55.96,76.98 Z"/>
  <path d="M90.06,90.38 C88.42,88.71 85.77,88.22 83.31,89.14 C80.6,90.16 72.31,93.27 68.09,90.59 C64.38,88.24 64.58,83.46 64.58,83.46 L63.01,83.46 C63.01,83.46 63.26,88.67 59.9,90.59 C55.55,93.09 47.39,90.15 44.68,89.14 C42.23,88.22 39.58,88.71 37.93,90.38 C36.38,91.95 36.11,94.2 37.21,96.26 C39.53,100.61 47.79,107.97 63.99,108.03 C80.19,107.98 88.45,100.61 90.77,96.26 C91.88,94.2 91.61,91.95 90.06,90.38 Z" fill="#FFFFFF"/>
  <path d="M91.58,88.8 C89.84,86.91 87.04,86.36 84.44,87.4 C81.57,88.55 72.8,92.08 68.33,89.04 C64.4,86.38 66,82.24 66,82.24 L62,82.24 C62,82.24 63.22,86.86 59.67,89.04 C55.06,91.87 46.43,88.54 43.56,87.4 C40.96,86.36 38.16,86.91 36.42,88.8 C34.78,90.58 34.49,93.13 35.66,95.46 C38.12,100.38 46.86,108.72 64,108.78 C81.15,108.72 89.88,100.38 92.34,95.46 C93.51,93.13 93.22,90.58 91.58,88.8 Z M89.66,94.12 C87.65,98.13 79.71,105.73 64,105.78 C48.29,105.72 40.35,98.13 38.34,94.12 C37.73,92.89 37.83,91.69 38.62,90.83 C39.19,90.21 40.02,89.88 40.92,89.88 C41.41,89.88 41.93,89.98 42.44,90.18 C48.05,92.43 56.12,95.01 61.33,91.54 C62.53,90.74 63.37,90.08 63.97,89.54 C63.98,89.55 63.99,89.56 64,89.56 C64.01,89.55 64.02,89.54 64.03,89.54 C64.63,90.08 65.48,90.74 66.67,91.54 C71.88,95.01 79.95,92.43 85.56,90.18 C86.07,89.98 86.58,89.88 87.08,89.88 C87.98,89.88 88.81,90.21 89.38,90.83 C90.17,91.7 90.27,92.89 89.66,94.12 Z"/>
  <path d="M43.93,89.54 L43.93,101.87 L41.93,101.87 L41.93,89.54 L43.93,89.54 Z" fill="#000000"/>
  <path d="M54.47,91.5 L54.47,105.15 L52.47,105.15 L52.47,91.5 L54.47,91.5 Z" fill="#000000"/>
  <path d="M65,86.8 L65,106.71 L63,106.71 L63,86.8 L65,86.8 Z" fill="#000000"/>
  <path d="M86.07,88.39 L86.07,100.72 L84.07,100.72 L84.07,88.39 L86.07,88.39 Z" fill="#000000"/>
  <path d="M75.53,90.48 L75.53,104.66 L73.53,104.66 L73.53,90.48 L75.53,90.48 Z" fill="#000000"/>
  <path d="M99.01,75.05 C98.76,74.49 99.21,73.87 99.83,73.94 C103.54,74.34 113.66,76.16 119.83,84.32 C123.35,88.97 124.55,97.44 119.34,101.32 C112.98,106.05 105.35,101.67 104.19,95.96 C103.31,91.63 102.81,87.46 102.06,84.47 C100.82,79.51 99.67,76.54 99.01,75.05 Z" fill="#28B3F2"/>
  <path d="M120.9,98.21 C114.46,102.82 107.78,99.25 106.32,92.89 C106.32,92.89 104.67,85.38 103.57,82.18 C101.82,77.05 99.15,74.2 99.15,74.2 C99.15,74.2 98.79,74.56 99.01,75.06 C99.67,76.56 100.82,79.52 102.06,84.48 C102.81,87.47 103.31,91.64 104.19,95.97 C105.35,101.69 112.98,106.06 119.34,101.33 C121.12,100.01 122.13,98.15 122.58,96.09 C122.18,96.94 121.63,97.68 120.9,98.21 Z" fill="#0277BD"/>
  <path d="M113.51,83.7 C115.39,82.76 118.93,84.51 120.57,89.19 C122.25,94.02 118.97,97 115.67,93.29 C113.26,90.6 111.6,84.66 113.51,83.7 Z" fill="#81D4FA"/>
  <path d="M28.99,75.05 C29.24,74.49 28.79,73.87 28.17,73.94 C24.46,74.34 14.34,76.16 8.17,84.32 C4.65,88.97 3.45,97.44 8.66,101.32 C15.02,106.05 22.65,101.67 23.81,95.96 C24.69,91.63 25.19,87.46 25.94,84.47 C27.18,79.51 28.33,76.54 28.99,75.05 Z" fill="#28B3F2"/>
  <path d="M7.1,98.21 C13.54,102.82 20.22,99.25 21.68,92.89 C21.68,92.89 23.33,85.38 24.43,82.18 C26.18,77.05 28.85,74.2 28.85,74.2 C28.85,74.2 29.21,74.56 28.99,75.06 C28.33,76.56 27.18,79.52 25.94,84.48 C25.19,87.47 24.69,91.64 23.81,95.97 C22.65,101.69 15.02,106.06 8.66,101.33 C6.88,100.01 5.87,98.15 5.42,96.09 C5.82,96.94 6.37,97.68 7.1,98.21 Z" fill="#0277BD"/>
  <path d="M14.49,83.7 C12.61,82.76 9.07,84.51 7.43,89.19 C5.75,94.02 9.03,97 12.33,93.29 C14.74,90.6 16.4,84.66 14.49,83.7 Z" fill="#81D4FA"/>
  <path d="M92.16,36.23 C90.62,34.94 90.66,32.86 91.56,31.07 C93.72,26.76 98.89,22.29 100.72,20.84 C103.72,18.46 106.04,17.66 106.93,21.49 C108.58,28.57 108.45,38.18 106.68,43.48 C106.06,45.35 104.14,46.34 102.66,45.05 L92.16,36.23 Z" fill="#FFD1D1"/>
  <path d="M35.84,36.23 C37.38,34.94 37.34,32.86 36.44,31.07 C34.28,26.76 29.11,22.29 27.28,20.84 C24.28,18.46 21.96,17.66 21.07,21.49 C19.42,28.57 19.55,38.18 21.32,43.48 C21.94,45.35 23.86,46.34 25.34,45.05 L35.84,36.23 Z" fill="#FFD1D1"/>
</svg>