<svg viewBox="0 0 128 128" xmlns="http://www.w3.org/2000/svg">
  <defs>
    <radialGradient id="face_1_" cx="63.6" cy="62.8999" gradientUnits="userSpaceOnUse" r="56.9597">
      <stop offset="0.5" stop-color="#FDE030"/>
      <stop offset="0.92" stop-color="#F7C02B"/>
      <stop offset="1" stop-color="#F4A223"/>
    </radialGradient>
  </defs>
  <path id="face" d="M63.6,118.8 C35.7,118.8 5.6,101.3 5.6,62.9 C5.6,24.5 35.7,7 63.6,7 C79.1,7 93.4,12.1 104,21.4 C115.5,31.6 121.6,46 121.6,62.9 C121.6,79.8 115.5,94.1 104,104.3 C93.4,113.6 79,118.8 63.6,118.8 Z" fill="url(#face_1_)"/>
  <path d="M111.49,29.67 C116.82,38.27 119.6,48.51 119.6,59.9 C119.6,76.8 113.5,91.1 102,101.3 C91.4,110.6 77,115.8 61.6,115.8 C43.54,115.8 24.6,108.45 13.42,92.86 C24.18,110.52 44.42,118.8 63.6,118.8 C79,118.8 93.4,113.6 104,104.3 C115.5,94.1 121.6,79.8 121.6,62.9 C121.6,50.16 118.13,38.84 111.49,29.67 Z" fill="#EB8F00"/>
  <path id="mouth" d="M64,93.81 C52.49,93.81 44.27,87.81 41.8,84.07 C40.87,82.86 40.68,81.24 41.3,79.85 C41.77,78.96 42.7,78.41 43.71,78.44 C44.08,78.44 44.45,78.5 44.8,78.61 C51.03,80.49 57.5,81.43 64,81.39 C70.5,81.43 76.98,80.49 83.2,78.61 C83.55,78.5 83.92,78.44 84.29,78.44 C85.3,78.41 86.23,78.96 86.7,79.85 C87.32,81.24 87.13,82.86 86.2,84.07 C83.73,87.83 75.51,93.81 64,93.81 Z" fill="#422B0D"/>
  <path d="M124,45.42 C124,45.42 119.74,45.51 119.74,48.92 C119.74,57.34 119.84,75.41 97.74,75.41 C80.08,75.41 71.65,66.29 70.23,56.22 C69.65,52.03 68.23,47.47 63.96,47.47 C59.69,47.47 58.31,52 57.73,56.22 C56.31,66.29 47.88,75.41 30.22,75.41 C8.16,75.41 8.22,57.34 8.22,48.92 C8.22,45.51 3.96,45.42 3.96,45.42 L3.96,37.08 C10.81,36.18 17.71,35.76 24.61,35.82 C37.09,35.82 42.06,35.82 51.99,36.82 C57.86,37.4 63.99,37.47 63.99,37.47 C63.99,37.47 70.09,37.4 75.99,36.82 C85.92,35.82 90.89,35.82 103.37,35.82 C110.27,35.76 117.16,36.19 124,37.08 L124,45.42 Z" fill="#422B0D"/>
  <path d="M21.12,52 C21.02,53.6 20.38,55.08 18.81,55.38 C18.63,55.41 18.46,55.43 18.28,55.43 C16.87,55.42 15.66,54.4 15.44,53 C14.83,50.24 15.5,47.35 17.26,45.14 C18.88,43.18 21.3,42.05 23.84,42.06 C25.35,41.92 26.69,43.03 26.83,44.54 C26.83,44.57 26.84,44.6 26.84,44.64 C26.84,46.52 25.34,47.32 23.84,47.84 C22.2,48.58 21.14,50.2 21.12,52 Z" fill="#896024"/>
  <path d="M84.7,52 C84.61,53.6 83.96,55.08 82.4,55.38 C82.22,55.41 82.04,55.43 81.86,55.43 C80.44,55.43 79.23,54.4 79,53 C78.39,50.24 79.06,47.35 80.82,45.14 C82.45,43.18 84.86,42.05 87.41,42.06 C88.92,41.92 90.26,43.03 90.4,44.54 C90.4,44.57 90.41,44.6 90.41,44.64 C90.41,46.52 88.91,47.32 87.41,47.84 C85.78,48.58 84.72,50.2 84.7,52 Z" fill="#896024"/>
</svg>