<svg viewBox="0 0 128 128" xmlns="http://www.w3.org/2000/svg">
  <defs/>
  <path d="M116,4 L12,4 C7.58,4 4,7.58 4,12 L4,116 C4,120.42 7.58,124 12,124 L116,124 C120.42,124 124,120.42 124,116 L124,12 C124,7.58 120.42,4 116,4 Z" fill="#194FA5"/>
  <path d="M109.7,4 L11.5,4 C7.37,4.03 4.03,7.37 4,11.5 L4,109.4 C3.99,113.54 7.34,116.89 11.48,116.9 C11.49,116.9 11.49,116.9 11.5,116.9 L109.6,116.9 C113.74,116.91 117.09,113.56 117.1,109.42 C117.1,109.41 117.1,109.41 117.1,109.4 L117.1,11.5 C117.19,7.45 113.97,4.09 109.92,4 C109.85,4 109.77,4 109.7,4 Z" fill="#2262DD"/>
  <path d="M39.7,12.9 C39.7,10.6 38.1,9.9 28.9,10.2 C21.2,10.5 17.4,11.4 15.1,14.2 C13.2,16.5 12.8,19.8 12.5,22.6 C12.3,24.8 10.3,37.5 16,33.8 C16.68,33.35 17.23,32.73 17.6,32 C18.8,29.9 19.5,28.5 20.9,26.4 C26.2,17.8 39.7,15.9 39.7,12.9 Z" fill="#68ABE6" opacity="0.3"/>
  <path d="M39.7,12.9 C39.7,10.6 38.1,9.9 28.9,10.2 C21.2,10.5 17.4,11.4 15.1,14.2 C13.2,16.5 12.8,19.8 12.5,22.6 C12.3,24.8 10.3,37.5 16,33.8 C16.68,33.35 17.23,32.73 17.6,32 C18.8,29.9 19.5,28.5 20.9,26.4 C26.2,17.8 39.7,15.9 39.7,12.9 Z" fill="#68ABE6" opacity="0.65"/>
  <path d="M71.5,25.47 A9.35 9.35 0 1 1 52.8,25.47 A9.35 9.35 0 1 1 71.5,25.47 Z" fill="#FFFFFF"/>
  <path d="M81.52,72.35 C83.2,71.74 84.08,69.83 83.5,68.08 L74.83,42.83 C73.7,39.34 68.43,36.7 62.09,36.7 C55.77,36.7 50.51,39.33 49.35,42.8 L40.79,68.09 C40.2,69.84 41.09,71.75 42.77,72.36 C44.45,72.97 46.29,72.05 46.87,70.3 L52.02,53.83 C52.11,53.55 52.52,53.61 52.52,53.91 L52.52,101.7 C52.52,104.01 54.32,105.89 56.55,105.89 C58.78,105.89 60.58,104.01 60.58,101.7 L60.58,71.78 C60.58,70.85 61.3,70.11 62.19,70.11 C63.08,70.11 63.8,70.86 63.8,71.78 L63.8,101.69 C63.8,104 65.6,105.88 67.83,105.88 C70.06,105.88 71.86,104 71.86,101.69 L71.86,53.93 C71.86,53.63 72.26,53.57 72.36,53.85 L77.43,70.3 C78,72.04 79.85,72.96 81.52,72.35 L81.52,72.35 Z" fill="#FFFFFF"/>
</svg>