<svg viewBox="0 0 128 128" xmlns="http://www.w3.org/2000/svg">
  <defs/>
  <path d="M87.7,110.45 C87.7,110.45 58.85,114.56 58.15,115.5 C57.55,116.29 57.03,116.96 60.07,119.62 C62.91,122.1 74.12,129.72 97.75,122.57 C111.41,118.44 117.96,105.42 115.77,101.71 C113.58,98 110.09,99.31 110.09,99.31 L87.7,110.45 Z" fill="#D17020"/>
  <path d="M64.54,112.52 C64.54,112.52 57.26,112.5 58.03,115.66 C58.31,116.83 65.95,118.98 71.08,119.3 C76.32,119.63 85.09,119.69 96.67,115.1 C106.41,111.24 110.5,107.93 113.36,103.4 C114.74,101.21 113.47,98.47 113.47,98.47 L64.54,112.52 Z" fill="#AC5811"/>
  <path d="M8.75,69.52 C8.75,69.52 7.21,70.73 5.78,75.36 C4.71,78.81 2.81,84.06 5.47,89.96 C7.36,94.15 17.26,114.74 61.02,116.49 C107.11,118.33 119.54,94.02 121.03,88.26 C123.26,79.59 119.98,75.13 118.54,74.08 C117.08,73.02 8.75,69.52 8.75,69.52 Z" fill="#FCE9C5"/>
  <path d="M14.66,66.58 C14.4,66.97 7.31,71.44 7.31,71.44 C7.31,71.44 3.63,79.45 10.2,88.12 C16.77,96.79 30.94,107.03 61.28,109 C91.61,110.97 114.99,98.1 118.8,85.63 C122.61,73.16 114.96,70.69 114.96,70.69 L14.66,66.58 Z" fill="#FFA828"/>
  <path d="M77.95,93.5 C77.82,94.94 79.16,98.71 83.55,101.82 C86.86,104.17 89.78,105.02 90.16,105.31 C90.21,106.39 90.45,112.21 89.67,113.92 C88.88,115.63 83.6,116.34 83.6,116.34 L91.74,116.34 C91.74,116.34 96.86,118.18 96.86,113.19 C96.86,108.2 97.93,102.88 98.72,101.31 C99.15,100.46 102.51,98.63 104.75,95.65 C106.65,93.11 107.27,90.42 107.5,89.29 C107.73,88.16 108.45,85.7 106.71,84.56 C104.76,83.3 77.95,93.5 77.95,93.5 Z" fill="#AB580F"/>
  <path d="M8.62,48.2 C8.62,48.2 3.76,53.06 4.29,62.51 C4.82,71.96 15.45,95.21 61.81,96.78 C107.5,98.33 121.62,73.68 123.26,66.45 C124.76,59.84 122.88,54.7 119.86,50.63 C116.84,46.56 48.28,43.34 48.28,43.34 L8.62,48.2 Z" fill="#FCE9C5"/>
  <path d="M12.3,45.57 C12.3,45.57 5.82,48.02 6.26,56.08 C6.79,65.8 21.89,88.65 63.64,88.51 C100.8,88.39 121.16,68.16 121.42,57.52 C121.68,47.01 113.41,46.49 113.41,46.49 L12.3,45.57 Z" fill="#FFA828"/>
  <path d="M92.4,66.06 L64.82,70 C64.82,70 66.83,75.12 74.27,78.67 C82.54,82.61 89.5,81.82 89.9,84.45 C90.29,87.08 90.68,94.9 90.68,94.9 L93.84,94.3 L101.82,74.57 L105.85,69.53 C105.85,69.53 108.41,62.39 105.52,59.77 C102.64,57.13 92.4,66.06 92.4,66.06 Z" fill="#AF5713"/>
  <path d="M26.35,18.52 C25.96,18.52 15.71,19.96 15.71,19.96 C15.71,19.96 7,24.66 6.65,37.3 C6.25,51.48 19.39,71.05 62.33,71.31 C106.32,71.58 121.27,54.27 122.21,42.29 C123.33,28.02 115.25,22.19 115.25,22.19 L26.35,18.52 Z" fill="#FCE9C5"/>
  <path d="M10.46,31.52 C10.61,46.75 26.87,61.85 63.9,63.17 C100.04,64.45 119.84,46.89 119.71,32.18 C119.59,18.52 97.79,5.26 63.25,5.13 C28.18,5 10.33,18.13 10.46,31.52 Z" fill="#FFA828"/>
  <path d="M85.37,75.82 C85.47,78.87 92.77,80.18 93.21,82.57 C93.65,84.97 93.87,94.61 93.87,94.61 C93.87,94.61 91.88,95.44 89.67,95.9 C87.17,96.42 84.44,96.65 84.85,98.08 C85.86,101.55 93.27,103.33 93.27,103.33 C93.27,103.33 93.62,108.7 93.49,110.95 C93.19,116.22 91.74,117.12 91.74,117.12 L95.38,120.09 L99.95,114.44 C99.95,114.44 99.73,109.36 99.66,107.69 C99.59,106.02 99.44,102.54 99.44,102.54 C99.44,102.54 103.1,99.83 105.57,95.07 C107.41,91.52 107.43,88.97 105.11,90.06 C102.79,91.15 99.13,93.17 99.13,93.17 C99.13,93.17 98.65,84.25 99.44,81.93 C100.24,79.61 106.63,70.68 105.68,69.15 C104.73,67.62 98.93,70.96 95.44,71.91 C91.97,72.84 85.29,73.64 85.37,75.82 Z" fill="#D0701C"/>
  <path d="M46.8,5.2 C46.8,5.2 38.09,6.11 37.28,11.73 C36.46,17.35 37.55,18.17 33.92,20.26 C30.29,22.35 20.1,27.77 19.55,29.76 C19,31.75 17.86,37.48 30.74,38.94 C39.65,39.95 42.34,38.83 47.61,42.64 C52.88,46.45 54.02,53.4 62.56,56.36 C68.22,58.32 72.19,56.72 76.91,58.99 C81.63,61.26 86.08,65.66 91.29,64.65 C95.69,63.8 98.57,50.59 98.57,50.31 C98.57,50.03 99.02,35.08 99.02,35.08 C99.02,35.08 97.06,32.45 98.41,29.78 C99.33,27.95 106.21,23.28 107.21,20.53 C108.15,17.95 107.74,15.14 106.47,14.14 C105.2,13.14 91.52,15.73 91.25,15.36 C90.98,14.99 74.74,11.55 72.38,10.82 C70.02,10.1 46.8,5.2 46.8,5.2 Z" fill="#AB580F"/>
  <path d="M95.6,28.51 C94.95,34.28 102.41,34.5 102.68,42.12 C102.86,47.38 99.23,50.56 97.69,54.18 C96.15,57.81 94.06,60.98 90.71,61.71 C87.35,62.44 81.35,57.6 76.18,55.69 C71.01,53.79 68.17,56.81 60.44,52.44 C55.88,49.87 50.89,39.48 44.72,37.67 C41.91,36.84 35.78,37 30.65,36.31 C24.52,35.48 19.52,33.69 19.41,30.87 C19.14,23.43 36.92,20.17 38.64,17.54 C40.36,14.91 36.35,6.59 47.17,4.75 C61.59,2.3 68.4,8.38 77.37,10.01 C86.34,11.64 101.64,10.06 105.49,13.09 C112.38,18.53 96.24,22.89 95.6,28.51 Z" fill="#CF701E"/>
  <path d="M53.83,30.15 C54.06,31.05 55.14,37.28 58.23,38.34 C61.32,39.39 68.09,37.55 73.89,36.31 C81.16,34.75 89.42,33.34 89.16,31.28 C88.77,28.09 85.01,24.73 81.82,20.14 C79.88,17.34 78.02,13.05 75.01,13.65 C72,14.25 53.83,30.15 53.83,30.15 Z" fill="#AC5813"/>
  <path d="M27.28,26.44 C25.51,26.88 24.53,30.57 28.41,32.39 C33.38,34.72 39.33,34.42 39.71,31.86 C40.09,29.3 34.29,29.9 32.33,28.55 C30.37,27.19 29.69,25.84 27.28,26.44 Z" fill="#FDFFFC"/>
  <path d="M42.8,32.61 C41.54,33.78 42.9,35.1 44.54,35.73 C46.18,36.36 47.48,36.41 48.22,35.43 C48.96,34.46 47.53,32.94 46.08,32.51 C44.63,32.08 43.56,31.9 42.8,32.61 Z" fill="#FDFFFC"/>
  <path d="M48.85,16.18 C48.85,16.18 49.33,14.74 51.67,14.37 C54.01,14 59.82,14 62.37,13.41 C64.93,12.82 69.24,10.64 71.47,11.12 C73.71,11.6 75.99,16.47 76.56,17.38 C78.97,21.19 80.89,23.89 81.15,25.33 C81.42,26.77 69.28,31.83 68.7,31.83 C68.12,31.83 59.7,37.63 57.41,32.95 C55.12,28.27 48.95,16.02 48.85,16.18 Z" fill="#FADE62"/>
  <path d="M67.64,27.73 C64.82,28.32 57.58,30.29 57.58,30.29 L56.41,33.32 C56.41,33.32 56.89,35.72 58.54,35.82 C60.19,35.93 65.54,34.4 69.63,33.34 C73.36,32.37 80.91,30.6 81.23,29.91 C81.55,29.22 81.9,24.94 80.95,24.77 C80.37,24.67 77.13,25.54 75.32,25.97 C72.77,26.57 70.46,27.15 67.64,27.73 Z" fill="#F5AD02"/>
  <path d="M47.85,20.07 C48.07,20.75 49.98,24.86 51.52,27.31 C53.06,29.76 56.74,35.75 57.8,35.86 C58.77,35.96 58.67,34.3 58.75,33.23 C58.84,32 58.81,30.88 58.55,30.03 C58.28,29.18 55.99,25.56 54.77,23.64 C53.55,21.72 49.98,15.39 49.18,15.65 C48.38,15.92 47.48,18.9 47.85,20.07 Z" fill="#FDFFFC"/>
  <path d="M58.21,43.09 C56.51,43.94 58.58,48.84 63.21,50.97 C67.84,53.1 72.76,52.78 73.59,50.22 C74.34,47.93 68.07,47.85 65.5,46.6 C61.35,44.58 60.5,41.94 58.21,43.09 Z" fill="#FDFFFC"/>
  <path d="M34.47,78.83 C34.2,79.84 34.92,80.77 37.65,81.37 C40.39,81.97 41.48,81.72 41.78,80.77 C42.08,79.82 41.18,78.88 38.74,78.23 C36.03,77.51 34.67,78.08 34.47,78.83 Z" fill="#FCE9C5"/>
  <path d="M52.83,82.51 C52.43,83.8 54.27,85.64 59.95,85.84 C65.88,86.05 69.21,85.29 69.25,83.2 C69.28,81.8 64.72,82.35 60.14,82.11 C55.57,81.86 53.2,81.32 52.83,82.51 Z" fill="#FCE9C5"/>
  <path d="M17.95,90.47 C17.31,91.19 17.71,91.94 18.85,92.91 C20.19,94.05 22.03,94.45 22.78,93.56 C23.53,92.67 21.78,91.67 20.79,90.92 C19.79,90.17 18.74,89.57 17.95,90.47 Z" fill="#FCE9C5"/>
</svg>