<svg viewBox="0 0 128 128" xmlns="http://www.w3.org/2000/svg">
  <defs/>
  <path d="M106.15,14.34 L99.66,6.44 L93.17,14.34 L86.68,6.44 L80.19,14.34 L73.7,6.44 L67.21,14.34 L60.72,6.44 L54.23,14.34 L47.74,6.44 L41.25,14.34 L34.76,6.44 L28.27,14.34 L21.48,6.08 L20.81,6.08 L20.92,122.12 L100,122.24 C116.68,122.24 113.34,87.43 113.34,87.43 L113.36,6.07 L112.98,6.07 L106.15,14.34 Z" fill="#FFFFFF"/>
  <path d="M73.6,31.23 A8 8 0 1 1 57.6,31.23 A8 8 0 1 1 73.6,31.23 Z" fill="#94D1E0"/>
  <path d="M32.41,45.62 L70.89,45.62 Q72.89,45.62 72.89,47.62 Q72.89,49.62 70.89,49.62 L32.41,49.62 Q30.41,49.62 30.41,47.62 Q30.41,45.62 32.41,45.62 Z" fill="#82AEC0"/>
  <path d="M88.44,45.62 L100.13,45.62 Q102.13,45.62 102.13,47.62 Q102.13,49.62 100.13,49.62 L88.44,49.62 Q86.44,49.62 86.44,47.62 Q86.44,45.62 88.44,45.62 Z" fill="#82AEC0"/>
  <path d="M88.44,58.76 L100.13,58.76 Q102.13,58.76 102.13,60.76 Q102.13,62.76 100.13,62.76 L88.44,62.76 Q86.44,62.76 86.44,60.76 Q86.44,58.76 88.44,58.76 Z" fill="#82AEC0"/>
  <path d="M59.32,58.76 L69.89,58.76 Q71.89,58.76 71.89,60.76 Q71.89,62.76 69.89,62.76 L59.32,62.76 Q57.32,62.76 57.32,60.76 Q57.32,58.76 59.32,58.76 Z" fill="#82AEC0"/>
  <path d="M32.41,58.76 L50.03,58.76 Q52.03,58.76 52.03,60.76 Q52.03,62.76 50.03,62.76 L32.41,62.76 Q30.41,62.76 30.41,60.76 Q30.41,58.76 32.41,58.76 Z" fill="#82AEC0"/>
  <path d="M82.12,95.94 L100.13,95.94 Q102.13,95.94 102.13,97.94 Q102.13,99.94 100.13,99.94 L82.12,99.94 Q80.12,99.94 80.12,97.94 Q80.12,95.94 82.12,95.94 Z" fill="#82AEC0"/>
  <path d="M88.44,71.9 L100.13,71.9 Q102.13,71.9 102.13,73.9 Q102.13,75.9 100.13,75.9 L88.44,75.9 Q86.44,75.9 86.44,73.9 Q86.44,71.9 88.44,71.9 Z" fill="#82AEC0"/>
  <path d="M32.41,71.9 L63.57,71.9 Q65.57,71.9 65.57,73.9 Q65.57,75.9 63.57,75.9 L32.41,75.9 Q30.41,75.9 30.41,73.9 Q30.41,71.9 32.41,71.9 Z" fill="#82AEC0"/>
  <path d="M32.81,85.04 L33.21,85.04 Q35.21,85.04 35.21,87.04 Q35.21,89.04 33.21,89.04 L32.81,89.04 Q30.81,89.04 30.81,87.04 Q30.81,85.04 32.81,85.04 Z" fill="#82AEC0"/>
  <path d="M73.765,85.04 L74.516,85.04 Q76.516,85.04 76.516,87.04 Q76.516,89.04 74.516,89.04 L73.765,89.04 Q71.765,89.04 71.765,87.04 Q71.765,85.04 73.765,85.04 Z M40.72,85.04 L41.471,85.04 Q43.471,85.04 43.471,87.04 Q43.471,89.04 41.471,89.04 L40.72,89.04 Q38.72,89.04 38.72,87.04 Q38.72,85.04 40.72,85.04 Z M48.981,85.04 L49.732,85.04 Q51.732,85.04 51.732,87.04 Q51.732,89.04 49.732,89.04 L48.981,89.04 Q46.981,89.04 46.981,87.04 Q46.981,85.04 48.981,85.04 Z M57.243,85.04 L57.994,85.04 Q59.994,85.04 59.994,87.04 Q59.994,89.04 57.994,89.04 L57.243,89.04 Q55.243,89.04 55.243,87.04 Q55.243,85.04 57.243,85.04 Z M90.288,85.04 L91.039,85.04 Q93.039,85.04 93.039,87.04 Q93.039,89.04 91.039,89.04 L90.288,89.04 Q88.288,89.04 88.288,87.04 Q88.288,85.04 90.288,85.04 Z M65.504,85.04 L66.255,85.04 Q68.255,85.04 68.255,87.04 Q68.255,89.04 66.255,89.04 L65.504,89.04 Q63.504,89.04 63.504,87.04 Q63.504,85.04 65.504,85.04 Z M82.027,85.04 L82.777,85.04 Q84.777,85.04 84.777,87.04 Q84.777,89.04 82.777,89.04 L82.027,89.04 Q80.027,89.04 80.027,87.04 Q80.027,85.04 82.027,85.04 Z" fill="#82AEC0"/>
  <path d="M98.55,85.04 L98.95,85.04 Q100.95,85.04 100.95,87.04 Q100.95,89.04 98.95,89.04 L98.55,89.04 Q96.55,89.04 96.55,87.04 Q96.55,85.04 98.55,85.04 Z" fill="#82AEC0"/>
  <path d="M115.12,3.04 L114.87,3.04 C114.87,3.04 114.87,3.04 114.87,3.04 C114.79,3.04 113.38,3.07 111.17,5.44 L106.16,11.54 L99.66,3.64 L93.17,11.54 L86.67,3.64 L80.18,11.54 L73.68,3.64 L67.19,11.54 L60.7,3.64 L54.21,11.54 L47.72,3.64 L41.23,11.54 L34.74,3.64 L28.25,11.53 L24.87,7.19 C21.43,3.06 19.28,3.45 19.19,3.46 L18.99,3.5 L19.09,106.58 L13.7,112.45 L7.94,105.54 C7.94,105.54 4.46,110.57 8.95,117.37 C12.54,122.82 24,122.26 28.68,122.26 L96.65,122.32 C108.2,122.25 111.35,119.81 113.59,109.46 C115.13,102.33 115.12,91.82 115.12,87.86 L115.12,3.04 Z M70.69,105.55 L64.36,112.46 L58.03,105.55 L51.7,112.46 L45.37,105.55 L39.04,112.46 L32.71,105.55 L26.38,112.46 L22.69,108.43 L22.6,10.26 L28.26,17.14 L34.75,9.24 L41.24,17.14 L47.73,9.24 L54.22,17.14 L60.71,9.24 L67.2,17.14 L73.69,9.24 L80.19,17.14 L86.68,9.24 L93.18,17.14 L99.67,9.24 L106.17,17.14 L111.54,10.6 L111.52,87.36 L111.52,88.26 C111.53,92.44 111.57,102.24 110.07,108.7 C108.53,115.39 106.1,118.09 101.12,118.67 C99.64,118.84 91.87,119.03 84.67,105.57 C84.55,105.34 84.36,105.39 84.32,105.4 C84.31,105.4 84.3,105.41 84.29,105.41 C84.22,105.11 84.18,104.93 84.18,104.93 L77.03,112.45 L70.69,105.55 Z" fill="#6FBFF0"/>
</svg>