<svg viewBox="0 0 128 128" xmlns="http://www.w3.org/2000/svg">
  <defs>
    <linearGradient id="SVGID_2_" gradientTransform="matrix(1 0 0 -1 0 0)" gradientUnits="userSpaceOnUse" x1="70.5601" x2="58.043" y1="-85.2878" y2="-91.182">
      <stop offset="0.5089" stop-color="#000000"/>
      <stop offset="1" stop-color="#000000" stop-opacity="0"/>
    </linearGradient>
    <linearGradient id="hand_1_" gradientTransform="matrix(1 0 0 -1 0 0)" gradientUnits="userSpaceOnUse" x1="58.3354" x2="75.0796" y1="-36.3744" y2="-74.6999">
      <stop offset="0.5" stop-color="#A56C43"/>
      <stop offset="1" stop-color="#8D5738"/>
    </linearGradient>
    <linearGradient id="shirt_x5F_fill_2_" gradientTransform="matrix(1 0 0 -1 0 0)" gradientUnits="userSpaceOnUse" x1="98.1661" x2="77.515" y1="-96.4649" y2="-106.2323">
      <stop offset="0" stop-color="#00BFA5"/>
      <stop offset="0.4701" stop-color="#00B29A"/>
      <stop offset="1" stop-color="#009E89"/>
    </linearGradient>
    <linearGradient id="SVGID_1_" gradientTransform="matrix(1 0 0 -1 0 0)" gradientUnits="userSpaceOnUse" x1="64" x2="64" y1="-95.1791" y2="-128.1808">
      <stop offset="0" stop-color="#00BFA5"/>
      <stop offset="0.4701" stop-color="#00B29A"/>
      <stop offset="1" stop-color="#009E89"/>
    </linearGradient>
    <radialGradient id="hairHighlights_1_" cx="63.9995" cy="-42.260091" gradientTransform="matrix(1 0 0 -1.1282 0 0)" gradientUnits="userSpaceOnUse" r="38.0923">
      <stop offset="0.7945" stop-color="#554138" stop-opacity="0"/>
      <stop offset="1" stop-color="#554138"/>
    </radialGradient>
  </defs>
  <path d="M64.13,96 C64.09,96 64.04,96 64,96 C38.51,96.03 12,103.28 12,121.06 L12,124 L13.5,124 L15,124 L113,124 L114.5,124 L116,124 L116,121.06 C116,104.3 89.74,96 64.13,96 Z" fill="url(#SVGID_1_)"/>
  <path d="M54.92,90.08 L54.92,100.06 C54.92,104.57 58.62,108.23 63.18,108.23 L64.83,108.23 C69.39,108.23 73.09,104.57 73.09,100.06 L73.09,90.08 L54.92,90.08 Z" fill="#7A4C32"/>
  <path d="M91.33,50.43 L36.67,50.43 C30.78,50.43 25.96,55.57 25.96,61.84 C25.96,68.11 30.78,73.25 36.67,73.25 L91.32,73.25 C97.21,73.25 102.03,68.11 102.03,61.84 C102.03,55.57 97.22,50.43 91.33,50.43 Z" fill="#7A4C32"/>
  <path id="head" d="M64.02,11.07 L64.02,11.07 L64.02,11.07 C46.62,11.06 30.49,29.67 30.48,56.45 C30.47,83.09 47.07,96.27 63.98,96.28 C80.89,96.29 97.51,83.13 97.52,56.49 C97.53,29.69 81.42,11.07 64.02,11.07 Z" fill="#A56C43"/>
  <path id="nose" d="M67.81,68.06 C67.7,68.02 67.6,67.99 67.49,67.98 L60.5,67.98 C60.39,67.99 60.29,68.02 60.18,68.06 C59.55,68.32 59.2,68.97 59.5,69.67 C59.8,70.37 61.19,72.33 63.99,72.33 C66.79,72.33 68.19,70.37 68.48,69.67 C68.79,68.97 68.45,68.31 67.81,68.06 Z" fill="#875334"/>
  <path d="M47.69,60.3 C45.63,60.3 43.79,59.8 42.51,59.01 C41.96,58.67 41.64,58.87 41.74,59.51 C42.11,61.99 44.64,63.91 47.69,63.91 C50.75,63.91 53.27,61.99 53.64,59.51 C53.74,58.87 53.42,58.67 52.87,59.01 C51.59,59.8 49.75,60.3 47.69,60.3 Z" fill="#42312C"/>
  <path d="M80.31,60.3 C78.25,60.3 76.41,59.8 75.13,59.01 C74.58,58.67 74.26,58.87 74.36,59.51 C74.74,61.99 77.26,63.91 80.31,63.91 C83.36,63.91 85.89,61.99 86.26,59.51 C86.36,58.87 86.04,58.67 85.49,59.01 C84.21,59.8 82.36,60.3 80.31,60.3 Z" fill="#42312C"/>
  <path d="M39.99,50.73 C43.18,46.17 50.75,46.09 54.47,49.99 C55.15,50.7 55.82,51.66 55.12,52.62 C54.36,53.67 53.25,53.16 52.31,52.77 C49.94,51.8 47.29,51.53 44.79,52.12 C44.26,52.24 43.74,52.41 43.23,52.59 C42.72,52.77 42.23,53.11 41.7,53.22 C40.31,53.52 39.2,51.91 39.99,50.73 Z" fill="#42312C"/>
  <path d="M86.05,53.13 C83.82,52.16 81.56,51.6 79.1,51.88 C77.98,52.01 76.88,52.3 75.84,52.71 C75.01,53.04 74.12,53.57 73.26,52.99 C70.81,51.3 75.15,48.55 76.43,48 C79.19,46.81 82.48,46.92 85.15,48.31 C86.21,48.86 87.36,49.66 87.99,50.71 C88.78,52.02 87.6,53.76 86.05,53.13 Z" fill="#42312C"/>
  <path id="mouth" d="M73.95,81.76 C73.95,82.77 69.49,82.98 64,82.98 C58.51,82.98 54.05,82.75 54.05,81.76 C54.05,80.72 58.51,80.08 64,80.08 C69.49,80.08 73.95,80.7 73.95,81.76 Z" fill="#473530"/>
  <path id="hair_7_" d="M64.02,4.61 L64.02,4.61 C64.01,4.61 64.01,4.61 64,4.61 C63.99,4.61 63.99,4.61 63.98,4.61 L63.98,4.61 C18.54,4.85 27.85,56.75 27.85,56.75 C27.85,56.75 29.89,62.1 30.82,64.46 C30.95,64.8 31.45,64.76 31.53,64.41 C32.5,60.07 35.99,44.68 37.75,40.01 C38.79,37.25 41.65,35.65 44.54,36.18 C48.99,36.99 56.09,37.99 63.91,37.99 C63.94,37.99 63.97,37.99 63.99,37.99 C64.01,37.99 64.05,37.99 64.07,37.99 C71.89,37.99 78.99,36.99 83.44,36.18 C86.34,35.65 89.2,37.26 90.23,40.01 C91.98,44.67 95.45,59.97 96.43,64.37 C96.51,64.73 97.01,64.76 97.14,64.42 L100.12,56.75 C100.15,56.75 109.45,4.85 64.02,4.61 Z" fill="#3C2C23"/>
  <path id="hairHighlights" d="M100.15,56.75 C100.15,56.75 109.46,4.85 64.02,4.61 L64.02,4.61 C64.01,4.61 64.01,4.61 64,4.61 L64,4.61 C63.99,4.61 63.99,4.61 63.98,4.61 L63.98,4.61 C63.27,4.61 62.58,4.63 61.9,4.66 C60.55,4.72 59.24,4.82 57.98,4.97 C57.97,4.97 57.95,4.97 57.94,4.97 C57.86,4.99 57.78,5 57.69,5.01 C19.44,9.82 27.85,56.75 27.85,56.75 L30.83,64.43 C30.96,64.77 31.45,64.74 31.53,64.38 C32.51,59.99 35.99,44.67 37.75,40.01 C38.79,37.25 41.65,35.65 44.54,36.18 C48.99,36.99 56.09,37.99 63.91,37.99 C63.94,37.99 63.97,37.99 63.99,37.99 C64.01,37.99 64.05,37.99 64.07,37.99 C71.89,37.99 78.99,36.99 83.44,36.18 C86.34,35.65 89.2,37.26 90.23,40.01 C91.99,44.69 95.48,60.11 96.45,64.43 C96.53,64.79 97.02,64.82 97.15,64.48 C98.09,62.12 100.15,56.75 100.15,56.75 Z" fill="url(#hairHighlights_1_)"/>
  <path d="M82.42,74.24 C84.17,69.81 83.86,67.67 82.58,63.61 C82.25,62.56 82.05,60.27 81.98,59.49 C81.72,56.51 82.74,52.74 83.39,51.99 C84.58,50.62 84.92,49.14 84.77,47.61 C84.55,45.39 80.88,42.6 76.86,46.77 C75.24,48.46 74.55,51.15 74.55,51.15 C72.74,46.84 69.57,39.22 69.16,38.25 L69.1,38.1 C68.45,36.47 67.22,35.22 65.75,34.7 C64.42,34.22 62.99,34.35 61.71,35.05 C60.83,35.53 60.14,36.27 59.71,37.15 C58.33,35.85 56.55,35.39 54.78,35.99 C53.39,36.46 52.33,37.45 51.8,38.77 C51.45,39.65 51.35,40.62 51.5,41.6 C50.41,41.4 49.28,41.6 48.26,42.2 C47.32,42.76 44.45,44.91 46.77,49.37 C46.82,49.47 46.89,49.6 46.98,49.75 C46.1,49.79 45.39,50.08 44.93,50.34 C43.63,51.06 42.74,52.21 42.44,53.59 C42.11,55.07 42.5,56.69 43.48,58.02 L49.66,67.08 C49.66,67.08 53.53,72.94 55.12,75.38 C56.39,77.32 57.81,78.91 59.37,80.11 C59.03,81.1 59.09,82.16 59.51,83.03 L74.45,124 L108.92,124 C108.92,124 82.43,74.25 82.42,74.24 Z" fill="url(#SVGID_2_)" opacity="0.2"/>
  <path id="hand" d="M81.77,45.85 C80.69,45.44 78.94,45.84 77.4,47.71 C75.86,49.58 76.39,52.17 75.75,53.79 C75.54,54.31 74.81,54.31 74.6,53.79 C73.2,50.35 67.9,37.78 67.9,37.78 C67.22,36.07 65.61,35.12 64.03,35.99 C62.77,36.68 62.54,38.25 63.12,39.68 L67.41,51.19 C67.47,51.34 67.41,51.51 67.28,51.57 L67.28,51.57 C67.14,51.64 66.96,51.58 66.88,51.42 L60,38.92 C59.29,37.56 58.06,36.65 56.7,37.11 C55.01,37.68 54.64,39.52 55.49,41.16 L61.71,53.88 C61.87,54.19 61.77,54.55 61.5,54.72 C61.5,54.72 61.49,54.72 61.49,54.73 C61.21,54.9 60.83,54.79 60.65,54.48 C60.65,54.48 55.19,45.85 54.43,44.59 C53.67,43.33 52.21,42.18 50.65,43.1 C49.09,44.02 49.34,45.52 50.1,46.97 C50.75,48.21 54.71,54.91 55.86,56.84 C56.03,57.13 55.94,57.5 55.66,57.68 L55.66,57.68 C55.4,57.85 55.05,57.79 54.85,57.55 L50.68,52.5 C49.65,51.25 48.51,50.59 47.26,51.28 C45.7,52.14 45.57,53.87 46.66,55.36 L52.86,64.45 C52.86,64.45 56.74,70.32 58.33,72.76 C62.52,79.18 66.95,79 67.85,79.02 C70.19,79.07 75.09,77.01 76.67,76.25 C85.5,72.01 81.08,64.31 80.68,59.72 C80.43,56.89 81.51,51.61 82.91,49.77 C84.26,47.93 82.68,46.19 81.77,45.85 Z" fill="url(#hand_1_)"/>
  <path id="shirt_x5F_fill_1_" d="M78.69,124 L62.95,80.9 C62.93,80.86 62.92,80.81 62.89,80.77 C62.71,80.4 62.69,79.98 62.84,79.6 C62.99,79.22 63.27,78.91 63.64,78.75 L80.22,71.46 C80.41,71.38 80.62,71.33 80.82,71.33 C81.38,71.33 81.89,71.64 82.15,72.13 L111.94,124 L78.69,124 Z" fill="url(#shirt_x5F_fill_2_)"/>
</svg>