<svg viewBox="0 0 128 128" xmlns="http://www.w3.org/2000/svg">
  <defs>
    <radialGradient id="a" cx="-44.228506" cy="39.620581" gradientTransform="matrix(-1.0127 0 0 1.0127 0 0)" gradientUnits="userSpaceOnUse" r="108.49">
      <stop offset="0" stop-color="#70534A"/>
      <stop offset="1" stop-color="#5C4037"/>
    </radialGradient>
  </defs>
  <path d="M80.96,108.36 C79.88,108.36 78.89,108.22 78.03,107.93 C70.16,105.31 58.89,100 52.74,94.55 C49.93,92.07 47.87,89.84 45.87,87.68 C41.75,83.24 37.86,79.05 28.71,74.1 C25.55,72.39 20.13,72.03 16.15,72.03 C14.86,72.03 14.03,72.07 14.03,72.07 C7.75,72.07 5.5,64.38 5.5,57.79 L7.24,26.11 C7.76,23.41 9.87,20.38 13.31,20.04 C15.9,19.78 19.74,19.64 24.4,19.64 C42.48,19.64 70.85,21.68 85.16,24.98 C116.96,32.32 121.96,36.45 122.5,46.81 L121.44,89.98 C121.16,94.76 117.19,98.56 112.37,98.65 L96.38,95.68 C96.29,95.66 96.2,95.65 96.11,95.65 C95.78,95.65 95.46,95.76 95.2,95.96 C94.86,96.22 94.65,96.61 94.62,97.03 C94.62,97.07 94.26,101.15 92.31,103.76 C90.9,105.64 85.78,108.36 80.96,108.36 Z" fill="url(#a)"/>
  <path d="M24.4,18.14 L24.4,21.14 C42.4,21.14 70.62,23.17 84.82,26.45 C115.6,33.55 120.49,37.4 121,46.84 L119.95,89.9 C119.7,93.87 116.46,97.01 112.5,97.15 L96.66,94.21 C96.48,94.18 96.3,94.16 96.11,94.16 C95.46,94.16 94.81,94.37 94.28,94.78 C93.61,95.3 93.18,96.08 93.11,96.92 C93.03,97.86 92.5,100.98 91.09,102.86 C89.89,104.46 85.1,106.85 80.95,106.85 C80.03,106.85 79.2,106.73 78.5,106.5 C70.77,103.92 59.72,98.73 53.73,93.42 C50.98,90.98 48.94,88.78 46.96,86.65 C42.76,82.12 38.78,77.84 29.42,72.77 C25.98,70.91 20.3,70.52 16.14,70.52 C15.06,70.52 14.29,70.55 14.04,70.56 C7.32,70.51 7.01,59.5 7,57.87 L8.73,26.3 C9.18,24.16 10.82,21.8 13.45,21.53 C16,21.27 19.78,21.14 24.39,21.14 L24.4,18.14 M24.4,18.14 C19.77,18.14 15.88,18.27 13.16,18.55 C9.11,18.96 6.39,22.4 5.75,25.93 L4,57.8 C4,65.44 6.78,73.58 14.11,73.58 C14.11,73.58 14.91,73.54 16.15,73.54 C19.21,73.54 24.95,73.78 28,75.43 C41.27,82.61 43,87.93 51.75,95.68 C58.52,101.68 70.4,106.97 77.56,109.36 C78.62,109.71 79.77,109.87 80.96,109.87 C85.98,109.87 91.68,107.11 93.5,104.68 C95.75,101.68 96.11,97.17 96.11,97.17 L112.25,100.16 C117.93,100.14 122.62,95.7 122.94,90.03 L124,46.8 C123.41,35.08 116.68,30.73 85.49,23.53 C70.61,20.09 42.11,18.14 24.4,18.14 Z" fill="#4A2F27"/>
  <path d="M100.17,68.53 C93.07,64.13 73.38,52.01 71.38,65.23 C70.17,73.24 78.62,81.17 84.18,85.75 C88.33,89.17 93.06,91.9 97.57,94.84 C99.05,95.81 94.46,97.79 93.03,96.73 C89.07,93.78 84.25,89.94 79.31,85.13 C73.41,79.38 66.05,70.92 69.38,62.06 C74.25,49.11 94.54,61.94 101.02,67.55 C102.37,68.74 100.17,68.53 100.17,68.53 Z" fill="#4A2F27"/>
  <path d="M74.58,56.08 C70.73,60.41 67.84,66.19 73.14,75.65 C74.24,77.62 73.58,78.19 72.29,76.39 C64.31,65.23 66.08,58.49 73.46,53.67 C79.2,49.93 83.89,51.1 83.89,51.1 C83.89,51.1 78.06,52.17 74.58,56.08 Z" fill="#4A2F27"/>
</svg>