<svg viewBox="0 0 128 128" xmlns="http://www.w3.org/2000/svg" xmlns:xlink="http://www.w3.org/1999/xlink">
  <g id="Layer_3">
    <g>
      <g>
        <g>
          <path d="M98.48,121.19c-0.34,0-0.67-0.02-0.94-0.07c-0.09-0.01-5.58-0.56-10.11-1.55 c-1.24-0.27-1.99-0.71-2.16-1.27c-0.24-0.78,0.62-1.72,0.62-1.73c0.13-0.14,0.17-0.35,0.1-0.53c-0.01-0.02-0.82-2.13,0.12-3.66 l2.55-3.19c0.37-0.45,0.77-0.67,1.19-0.67c0.49,0,1.06,0.29,1.69,0.85c0.4,0.36,0.88,0.83,1.4,1.36c1,1.01,2.14,2.15,3.38,3.11 c2.04,1.57,5.99,3.15,6.16,3.21c0.73,0.29,1.18,0.65,1.27,1c0.08,0.34-0.18,0.65-0.18,0.65c-0.03,0.04-0.06,0.08-0.08,0.13 C102.67,120.69,99.95,121.19,98.48,121.19L98.48,121.19z" fill="#4568AC"/>
          <path d="M89.85,109.01c0.36,0,0.83,0.25,1.36,0.73c0.39,0.35,0.85,0.81,1.38,1.34 c0.96,0.97,2.16,2.18,3.43,3.15c2.1,1.61,6.11,3.21,6.28,3.28c0.7,0.28,0.94,0.55,0.97,0.66c0.02,0.06-0.04,0.17-0.06,0.2 c-0.07,0.08-0.13,0.17-0.17,0.27c-0.62,1.41-2.79,2.06-4.55,2.06c-0.32,0-0.61-0.02-0.85-0.06c-0.02,0-0.05-0.01-0.07-0.01 c-0.05-0.01-5.52-0.56-10.02-1.54c-1.49-0.33-1.75-0.79-1.79-0.93c-0.12-0.38,0.3-1.02,0.51-1.24c0.27-0.28,0.34-0.69,0.2-1.05 c-0.01-0.02-0.7-1.86,0.05-3.17l2.53-3.17C89.45,109.01,89.75,109.01,89.85,109.01 M89.85,108.01c-0.6,0-1.13,0.31-1.58,0.86 l-2.58,3.24c-1.08,1.78-0.16,4.11-0.16,4.11s-2.7,2.86,1.8,3.84c4.61,1.01,10.13,1.56,10.13,1.56 c0.29,0.05,0.64,0.08,1.02,0.08c1.9,0,4.6-0.69,5.46-2.66c0,0,1.29-1.43-1.28-2.45c0,0-4.03-1.6-6.04-3.14 c-1.88-1.44-3.58-3.4-4.75-4.44C91.11,108.32,90.44,108.01,89.85,108.01L89.85,108.01z" fill="#305499"/>
        </g>
        <g>
          <path d="M66.18,121.49c-1.22,0-2.26-0.1-3.1-0.28c-3.79-0.85-6.25-3.1-5.89-11.31 c0.24-5.63,0.89-16.88,1.03-19.31c5.64-0.14,15.03-2.7,17.85-3.5c-1.67,7.65-6.41,22.29-6.46,22.45 c-0.05,0.14-0.03,0.3,0.05,0.42c0.08,0.13,0.21,0.21,0.36,0.23l15.05,1.82c0.83,0.7,1.51,3.71,1.04,5.72 c-0.13,0.56-0.4,1.24-0.95,1.3c-2.23,0.26-4.71,0.67-7.1,1.06C73.87,120.78,69.53,121.49,66.18,121.49L66.18,121.49z" fill="#616161"/>
          <path d="M75.39,87.8c-1.8,7.8-6.22,21.44-6.27,21.58c-0.09,0.28-0.05,0.59,0.11,0.85 c0.16,0.25,0.43,0.42,0.72,0.45l14.89,1.8c0.61,0.69,1.2,3.29,0.77,5.13c-0.12,0.53-0.33,0.9-0.52,0.92 c-2.24,0.26-4.72,0.67-7.11,1.06c-4.18,0.68-8.5,1.39-11.81,1.39c-1.18,0-2.19-0.09-2.99-0.27c-2.86-0.64-5.88-2.06-5.5-10.8 c0.23-5.33,0.82-15.71,1-18.85C63.94,90.83,71.97,88.75,75.39,87.8 M76.72,86.38L76.72,86.38L76.72,86.38z M76.72,86.38 c0,0-12.54,3.72-18.98,3.72c0,0-0.78,13.4-1.05,19.78c-0.36,8.44,2.25,10.91,6.28,11.81c0.92,0.21,2.01,0.3,3.21,0.3 c5.32,0,12.92-1.74,19.04-2.46c2.35-0.28,1.72-6.91,0.04-8l-15.18-1.84C70.07,109.69,75.21,93.87,76.72,86.38L76.72,86.38z" fill="#4F4F4F"/>
        </g>
      </g>
      <g>
        <g>
          <path d="M28.83,123.5c-0.16,0-0.31-0.06-0.42-0.17c-0.11-0.11-0.17-0.26-0.17-0.42l0-1.38 c0.01-1.59,0.97-2.99,2.45-3.58l6.75-2.24l7.3-0.01c0.45,0.55,1.84,2.38,1.84,3.94l0.01,3.06c0,0.2-0.08,0.39-0.22,0.53 s-0.33,0.22-0.53,0.22L28.83,123.5z" fill="#4568AC"/>
          <path d="M44.5,116.19c0.61,0.77,1.58,2.26,1.58,3.44l0.01,3.06c0,0.09-0.04,0.14-0.07,0.18 s-0.09,0.07-0.18,0.07L28.83,123c-0.03,0-0.05-0.01-0.06-0.03c-0.02-0.02-0.03-0.04-0.03-0.07l0-1.38 c0.01-1.38,0.83-2.59,2.11-3.1l6.67-2.22L44.5,116.19 M44.97,115.19l-7.62,0.01l-6.85,2.28c-1.66,0.66-2.75,2.25-2.76,4.04 l0,1.38c0,0.6,0.49,1.09,1.09,1.09c0,0,0,0,0,0l17.02-0.05c0.69,0,1.25-0.56,1.25-1.26l-0.01-3.06 C47.08,117.55,44.97,115.19,44.97,115.19L44.97,115.19z" fill="#305499"/>
        </g>
        <g>
          <path d="M76.94,77.63L58.9,78.86c0,0-10.26,1.42-16.62,1.97c-6.36,0.55-7.73,6.33-7.38,14.61 c0.25,6.01,1.93,19.77,1.93,19.77s1.67,0.99,4.69,0.99c3.02,0,4.49-1.01,4.49-1.01l2.62-21.13c0,0,5.17-0.31,9.22-0.15 C66.44,94.26,78.95,93.86,76.94,77.63z" fill="#7C7C7C"/>
          <path d="M41.51,116.7c-3.12,0-4.87-1.02-4.94-1.06c-0.13-0.08-0.22-0.22-0.24-0.37 c-0.02-0.14-1.68-13.85-1.93-19.81c-0.3-7.12,0.4-14.49,7.84-15.13c6.28-0.54,16.49-1.95,16.59-1.96l18.07-1.23 c0.29-0.03,0.5,0.17,0.53,0.44c0.69,5.55-0.27,9.79-2.84,12.58c-3.84,4.18-10.33,4.52-16.78,4.26 c-3.33-0.13-7.45,0.06-8.76,0.12l-2.57,20.71c-0.02,0.14-0.1,0.27-0.21,0.35C46.22,115.65,44.65,116.7,41.51,116.7z M37.29,114.88c0.52,0.24,1.99,0.82,4.22,0.82c2.22,0,3.56-0.58,4.02-0.82L48.12,94c0.03-0.24,0.23-0.42,0.47-0.44 c0.05,0,5.24-0.31,9.27-0.15c6.21,0.25,12.43-0.06,16-3.94c2.29-2.49,3.18-6.3,2.64-11.31l-17.56,1.19 c-0.07,0.01-10.31,1.42-16.61,1.96c-5.25,0.45-7.32,4.67-6.92,14.09C35.63,100.88,37.06,112.95,37.29,114.88z" fill="#5B5B5B"/>
        </g>
      </g>
      <g>
        <g>
          <g>
            <g>
              <linearGradient id="SVGID_1_" gradientTransform="matrix(0.9936 -0.1126 0.1126 0.9936 -93.2164 138.5888)" gradientUnits="userSpaceOnUse" x1="155.6348" x2="171.3218" y1="-109.464" y2="-77.7631">
                <stop offset="0.5521" style="stop-color:#70534A"/>
                <stop offset="1" style="stop-color:#5C4037"/>
              </linearGradient>
              <path d="M56.46,45.02c0.12-2.3,0.09-6.32-1.59-6.56c-0.33-0.05-0.57-0.06-0.91-0.09 c-0.5-0.03-1.18-0.08-2.7-0.26c-4.54-0.55-4.82-3.06-5.02-4.89c-0.08-0.75-0.15-1.33-0.48-1.73 c-0.11-0.13-0.27-0.21-0.58-0.38c-0.47-0.25-1.73-0.9-1.6-1.4c0.15-0.57,0.79-1.18,1.41-1.77 c0.85-0.8,1.73-1.62,1.62-2.63c0-0.27-0.13-0.93-0.27-1.6l-0.03-0.15c-0.26-1.34-0.2-3.18,0.15-4.91 c1.11-5.47,4.52-8.81,9.61-9.42c0.35-0.04,0.71-0.06,1.08-0.06c4.52,0,9.71,3.18,12.06,7.4 c1.51,2.7,0.07,11.6-2.07,15.83c-1.48,2.91-0.58,8.79-0.26,10.54L56.46,45.02z" fill="url(#SVGID_1_)"/>
              <path d="M57.13,9.67c4.29,0,9.39,3.14,11.63,7.14c1.32,2.36,0.15,10.97-2.08,15.35 c-1.43,2.81-0.76,8.15-0.39,10.37l-9.3,1.86c0.18-5.01-0.99-6.28-2.05-6.43c-0.36-0.05-0.62-0.07-0.95-0.09 c-0.49-0.03-1.17-0.08-2.67-0.26c-4.15-0.5-4.38-2.6-4.58-4.45c-0.09-0.8-0.16-1.48-0.59-1.99 c-0.17-0.21-0.38-0.32-0.74-0.5c-0.76-0.4-1.21-0.7-1.33-0.9c0.15-0.42,0.73-0.97,1.25-1.46c0.88-0.83,1.88-1.77,1.78-3 c-0.01-0.34-0.13-0.92-0.29-1.68l-0.03-0.14c-0.25-1.28-0.19-3.05,0.15-4.72c0.61-3.04,2.62-8.24,9.18-9.02 C56.44,9.69,56.78,9.67,57.13,9.67 M57.13,8.67c-0.38,0-0.76,0.02-1.13,0.07c-5.74,0.68-8.99,4.65-10.04,9.81 c-0.38,1.87-0.41,3.76-0.15,5.1c0.03,0.16,0.29,1.34,0.3,1.7c0.15,1.41-2.63,2.68-3.02,4.22 c-0.29,1.15,2.11,2.01,2.29,2.22c0.91,1.09-0.83,6,5.82,6.8c2.56,0.31,2.8,0.24,3.6,0.35c1.59,0.23,1.12,6.68,1.12,6.68 l11.52-2.31c0,0-1.53-7.45,0.12-10.7c2.17-4.27,3.68-13.4,2.07-16.3C67.29,12.15,61.98,8.67,57.13,8.67L57.13,8.67z" fill="#4A2F27"/>
            </g>
            <path d="M48.72,31.55l-2.59,0.29c0,0,0.21,1.19,0.34,1.68c0.69,2.64,2.33,5.48,6.94,5.4 c0.42-0.01-1.96-5.95-1.96-5.95L48.72,31.55z" fill="none"/>
            <path d="M45.93,34.63c0.92,0.09,1.85-0.08,2.66-0.62c0.88-0.6,0.33-1.33-0.67-0.96 c-0.6,0.23-1.44,0.31-2.2,0.13L45.93,34.63z" fill="#1A1717"/>
          </g>
          <ellipse cx="50.21" cy="26.33" fill="#5D4037" rx="1.88" ry="1.22" transform="matrix(0.0138 -0.9999 0.9999 0.0138 23.1875 76.1702)"/>
          <path d="M49.38,23.51c-1.22,0.23-1.42-0.58-0.96-1.17c0.34-0.44,1.1-0.75,2.46-0.34 c1.28,0.39,1.75,1.19,2.05,1.69s0.22,0.95-0.09,0.95C52.42,24.65,50.89,23.23,49.38,23.51z" fill="#1A1717"/>
        </g>
        <g>
          <ellipse cx="50.19" cy="26.36" fill="#1A1717" rx="1.81" ry="1.18" transform="matrix(0.0138 -0.9999 0.9999 0.0138 23.1431 76.1743)"/>
          <g>
            <radialGradient id="SVGID_2_" cx="54.647" cy="12.7183" gradientTransform="matrix(0.9996 0.0269 -0.0269 0.9996 0.5694 -1.5489)" gradientUnits="userSpaceOnUse" r="14.0968">
              <stop offset="0" style="stop-color:#444140"/>
              <stop offset="1" style="stop-color:#232020"/>
            </radialGradient>
            <path d="M72.92,16.88c-1.42-4.08-4.99-4.92-4.99-4.92s-1.11-6.33-10.11-5.27 c-2.76,0.33-4.58,2-6.25,2.71c-1.43,0.61-2.91,0.4-3.09-2.06c-1.93,0.91-2.82,2.42-1.91,5.04c-1.8,0.36-2.52,1.9-2.97,3.68 c-0.5,1.98,0.5,3.88,2.29,4.77c0.5-1.96,2.8-2.74,4.59-2.66c1.58,0.07,3.21,0.46,4.7-0.07c0.57-0.2,1.11-0.53,1.66-0.77 c0.12,0,0.2,0.01,0.2,0.01c1.88,1.12-0.86,5.54,1.17,8.3c0.4,0.54,0.76,0.37,0.76,0.37l0.92-1.22 c0.69-0.84,1.32-1.56,2.12-1.34c2.38,0.63,1.75,4.89-1.14,5.71c-0.29,0.08,0.91,2.43,1.03,2.55c2.02,2.1,3.35,2.01,4.83,2.16 c2.04,0.21,3.29-1.42,3.29-1.42c0,0-2.45-1.28,0.71-3.86c3.12-2.54,1.38-5.71,1.38-5.71S74.01,20.04,72.92,16.88z" fill="url(#SVGID_2_)"/>
          </g>
          <path d="M73.39,16.71c-1.26-3.64-4.11-4.85-5.05-5.16c-0.39-1.32-2.4-6.33-10.58-5.36 c-1.99,0.24-3.48,1.11-4.79,1.89c-0.56,0.33-1.1,0.65-1.59,0.86c-0.4,0.17-1.16,0.41-1.67,0.09s-0.68-1.12-0.73-1.73 l-0.05-0.73l-0.66,0.31c-2.2,1.04-2.98,2.77-2.32,5.15c-1.64,0.64-2.46,2.31-2.82,3.9c-0.49,2.17,0.48,4.31,2.55,5.34 l0.39-0.93c-1.3-0.89-2.29-2.64-1.97-4.17c0.42-2.03,1.27-3.05,2.58-3.31l0.56-0.11l-0.19-0.54c-0.66-1.91-0.34-3.2,1.04-4.09 c0.18,0.83,0.55,1.42,1.1,1.76c0.67,0.41,1.57,0.41,2.58-0.02c0.56-0.24,1.12-0.57,1.71-0.92c1.23-0.72,2.62-1.54,4.4-1.75 c8.4-0.99,9.52,4.62,9.56,4.86l0.06,0.32l0.32,0.08c0.13,0.03,3.33,0.84,4.63,4.6c1,2.88-0.76,5.53-0.78,5.56l-0.17,0.25 l0.14,0.27c0.06,0.12,1.5,2.84-1.25,5.08c-1.87,1.52-1.95,2.73-1.69,3.47c0.12,0.33,0.33,0.62,0.55,0.84 c-1.03,1.3-3.92,1.22-3.92,1.22c0.58,0.48,1.7,0.46,1.83,0.46c3.15,0.06,3.98-2.22,3.98-2.22s-1.31,0.27-1.54-0.85 c-0.12-0.58,0.44-1.33,1.43-2.13c2.85-2.32,1.99-5.17,1.62-6.06C73.11,22.12,74.38,19.56,73.39,16.71z" fill="#1F1D1B"/>
        </g>
      </g>
      <g>
        <radialGradient id="SVGID_3_" cx="59.888" cy="62.4536" gradientTransform="matrix(0.9795 -0.2013 0.192 0.9342 -8.9375 15.5542)" gradientUnits="userSpaceOnUse" r="17.1936">
          <stop offset="0.3666" style="stop-color:#F58B21"/>
          <stop offset="0.6967" style="stop-color:#F17E22"/>
          <stop offset="1" style="stop-color:#EC6E24"/>
        </radialGradient>
        <path d="M65.72,80.69c-6.95,0-11.93-1.63-13.2-2.09c0.05-2.23,0.37-14.41,0.78-20.62l0.08-1.3 c0.39-6.22,0.67-10.72,5.06-13.74c0.03-0.02,2.35-1.69,5.03-1.69c3.38,0,5.84,2.57,7.32,7.64c2.14,7.34,6.28,26.36,6.85,28.99 c-0.83,0.62-4.18,2.7-11.28,2.81L65.72,80.69z" fill="url(#SVGID_3_)"/>
        <path d="M63.48,41.75L63.48,41.75c3.13,0,5.43,2.45,6.84,7.28c2.07,7.07,6,25.04,6.78,28.63 c-1.1,0.72-4.37,2.43-10.73,2.53c-0.21,0-0.43,0-0.64,0c-6.37,0-11.06-1.38-12.69-1.94c0.07-2.96,0.38-14.31,0.77-20.24 l0.08-1.3c0.38-6.08,0.66-10.48,4.87-13.38C58.77,43.32,60.95,41.75,63.48,41.75 M63.47,40.75c-2.88,0-5.32,1.78-5.32,1.78 c-4.9,3.37-4.91,8.51-5.36,15.42c-0.46,6.91-0.79,20.99-0.79,20.99s5.44,2.25,13.71,2.25c0.22,0,0.43,0,0.65,0 C75,81.07,78.2,78.08,78.2,78.08s-4.6-21.37-6.93-29.33C69.41,42.38,66.24,40.75,63.47,40.75L63.47,40.75z" fill="#D86727"/>
      </g>
      <linearGradient id="SVGID_5_" gradientUnits="userSpaceOnUse" x1="52.0532" x2="58.932" y1="79.6512" y2="55.7378">
        <stop offset="0.3203" style="stop-color:#70534A"/>
        <stop offset="0.997" style="stop-color:#5C4037"/>
      </linearGradient>
      <path d=" M57.91,53.42l3.64,15.56c0,0-10.46,6.32-13.32,6.92c-1.71,0.36-4.61,0.76-7.86,1.2c-2.54,0.35-5.22,4.04-6.27,5.63 c-0.28,0.43-0.26,0.98,0.06,1.38h0c0.39,0.5,1.1,0.6,1.62,0.23l3.72-2.21c0,0,1.68,0.28,4.13,0.18c2.45-0.11,4.89-1.2,4.89-1.2 c1.64-0.63,12.89-2.38,18.12-3.48c5.38-1.13,4.89-6.94,4.3-10.69c-0.48-3.04-2.78-14.5-2.78-14.5L57.91,53.42z" fill="url(#SVGID_5_)" stroke="#4A2F27" stroke-linecap="round" stroke-linejoin="round" stroke-miterlimit="10"/>
      <g id="XMLID_9_">
        <path d="M57,55.04c-0.26-1.52-0.09-3.99,1.27-5.89c0.89-1.25,2.12-2,3.64-2.25c0.33-0.05,0.67-0.08,0.99-0.08 c3.81,0,5.88,3.76,6.29,6.14l1.83,9.14l-12.18,2.1L57,55.04z" fill="#EC6E24"/>
        <path d="M62.9,47.32c3.5,0,5.41,3.51,5.8,5.75l1.72,8.62l-11.19,1.93l-1.73-8.65c-0.25-1.44-0.09-3.75,1.18-5.53 c0.81-1.13,1.93-1.82,3.32-2.05C62.3,47.35,62.6,47.32,62.9,47.32 M62.9,46.32c-0.34,0-0.7,0.03-1.07,0.09 c-4.53,0.74-5.87,5.57-5.32,8.73l1.92,9.63L71.6,62.5l-1.92-9.63C69.18,49.96,66.8,46.32,62.9,46.32L62.9,46.32z" fill="#D86727"/>
      </g>
    </g>
  </g>
</svg>