<svg viewBox="0 0 128 128" xmlns="http://www.w3.org/2000/svg">
  <defs>
    <radialGradient id="c" cx="-93.049" cy="31.863" gradientUnits="userSpaceOnUse" r="62.124">
      <stop offset="0" stop-color="#6D4C41"/>
      <stop offset="1" stop-color="#543930"/>
    </radialGradient>
    <radialGradient id="b" cx="-316.02" cy="27.737" gradientUnits="userSpaceOnUse" r="66.138">
      <stop offset="0" stop-color="#6D4C41"/>
      <stop offset="1" stop-color="#543930"/>
    </radialGradient>
    <radialGradient id="a" cx="67.121" cy="28.86" gradientUnits="userSpaceOnUse" r="65.349">
      <stop offset="0" stop-color="#6D4C41"/>
      <stop offset="1" stop-color="#543930"/>
    </radialGradient>
  </defs>
  <path d="M128,0 L124,0 C123.45,0 123,0.45 123,1 C123,1.55 123.45,2 124,2 L128,2 L128,0 Z M116,0 L112,0 C111.45,0 111,0.45 111,1 C111,1.55 111.45,2 112,2 L116,2 C116.55,2 117,1.55 117,1 C117,0.45 116.55,0 116,0 Z M104,0 L100,0 C99.45,0 99,0.45 99,1 C99,1.55 99.45,2 100,2 L104,2 C104.55,2 105,1.55 105,1 C105,0.45 104.55,0 104,0 Z M92,0 L88,0 C87.45,0 87,0.45 87,1 C87,1.55 87.45,2 88,2 L92,2 C92.55,2 93,1.55 93,1 C93,0.45 92.55,0 92,0 Z M80,0 L76,0 C75.45,0 75,0.45 75,1 C75,1.55 75.45,2 76,2 L80,2 C80.55,2 81,1.55 81,1 C81,0.45 80.55,0 80,0 Z M68,0 L64,0 C63.45,0 63,0.45 63,1 C63,1.55 63.45,2 64,2 L68,2 C68.55,2 69,1.55 69,1 C69,0.45 68.55,0 68,0 Z M56,0 L52,0 C51.45,0 51,0.45 51,1 C51,1.55 51.45,2 52,2 L56,2 C56.55,2 57,1.55 57,1 C57,0.45 56.55,0 56,0 Z M44,0 L40,0 C39.45,0 39,0.45 39,1 C39,1.55 39.45,2 40,2 L44,2 C44.55,2 45,1.55 45,1 C45,0.45 44.55,0 44,0 Z M32,0 L28,0 C27.45,0 27,0.45 27,1 C27,1.55 27.45,2 28,2 L32,2 C32.55,2 33,1.55 33,1 C33,0.45 32.55,0 32,0 Z M20,0 L16,0 C15.45,0 15,0.45 15,1 C15,1.55 15.45,2 16,2 L20,2 C20.55,2 21,1.55 21,1 C21,0.45 20.55,0 20,0 Z M8,0 L4,0 C3.45,0 3,0.45 3,1 C3,1.55 3.45,2 4,2 L8,2 C8.55,2 9,1.55 9,1 C9,0.45 8.55,0 8,0 Z M1,3 C0.45,3 0,3.45 0,4 L0,8 C0,8.55 0.45,9 1,9 C1.55,9 2,8.55 2,8 L2,4 C2,3.45 1.55,3 1,3 Z M1,15 C0.45,15 0,15.45 0,16 L0,20 C0,20.55 0.45,21 1,21 C1.55,21 2,20.55 2,20 L2,16 C2,15.45 1.55,15 1,15 Z M1,27 C0.45,27 0,27.45 0,28 L0,32 C0,32.55 0.45,33 1,33 C1.55,33 2,32.55 2,32 L2,28 C2,27.45 1.55,27 1,27 Z M1,39 C0.45,39 0,39.45 0,40 L0,44 C0,44.55 0.45,45 1,45 C1.55,45 2,44.55 2,44 L2,40 C2,39.45 1.55,39 1,39 Z M1,51 C0.45,51 0,51.45 0,52 L0,56 C0,56.55 0.45,57 1,57 C1.55,57 2,56.55 2,56 L2,52 C2,51.45 1.55,51 1,51 Z M1,63 C0.45,63 0,63.45 0,64 L0,68 C0,68.55 0.45,69 1,69 C1.55,69 2,68.55 2,68 L2,64 C2,63.45 1.55,63 1,63 Z M1,75 C0.45,75 0,75.45 0,76 L0,80 C0,80.55 0.45,81 1,81 C1.55,81 2,80.55 2,80 L2,76 C2,75.45 1.55,75 1,75 Z M1,87 C0.45,87 0,87.45 0,88 L0,92 C0,92.55 0.45,93 1,93 C1.55,93 2,92.55 2,92 L2,88 C2,87.45 1.55,87 1,87 Z M1,99 C0.45,99 0,99.45 0,100 L0,104 C0,104.55 0.45,105 1,105 C1.55,105 2,104.55 2,104 L2,100 C2,99.45 1.55,99 1,99 Z M1,111 C0.45,111 0,111.45 0,112 L0,116 C0,116.55 0.45,117 1,117 C1.55,117 2,116.55 2,116 L2,112 C2,111.45 1.55,111 1,111 Z M1,123 C0.45,123 0,123.45 0,124 L0,128 L2,128 L2,124 C2,123.45 1.55,123 1,123 Z M12,126 L8,126 C7.45,126 7,126.45 7,127 C7,127.55 7.45,128 8,128 L12,128 C12.55,128 13,127.55 13,127 C13,126.45 12.55,126 12,126 Z M24,126 L20,126 C19.45,126 19,126.45 19,127 C19,127.55 19.45,128 20,128 L24,128 C24.55,128 25,127.55 25,127 C25,126.45 24.55,126 24,126 Z M36,126 L32,126 C31.45,126 31,126.45 31,127 C31,127.55 31.45,128 32,128 L36,128 C36.55,128 37,127.55 37,127 C37,126.45 36.55,126 36,126 Z M48,126 L44,126 C43.45,126 43,126.45 43,127 C43,127.55 43.45,128 44,128 L48,128 C48.55,128 49,127.55 49,127 C49,126.45 48.55,126 48,126 Z M60,126 L56,126 C55.45,126 55,126.45 55,127 C55,127.55 55.45,128 56,128 L60,128 C60.55,128 61,127.55 61,127 C61,126.45 60.55,126 60,126 Z M72,126 L68,126 C67.45,126 67,126.45 67,127 C67,127.55 67.45,128 68,128 L72,128 C72.55,128 73,127.55 73,127 C73,126.45 72.55,126 72,126 Z M84,126 L80,126 C79.45,126 79,126.45 79,127 C79,127.55 79.45,128 80,128 L84,128 C84.55,128 85,127.55 85,127 C85,126.45 84.55,126 84,126 Z M96,126 L92,126 C91.45,126 91,126.45 91,127 C91,127.55 91.45,128 92,128 L96,128 C96.55,128 97,127.55 97,127 C97,126.45 96.55,126 96,126 Z M108,126 L104,126 C103.45,126 103,126.45 103,127 C103,127.55 103.45,128 104,128 L108,128 C108.55,128 109,127.55 109,127 C109,126.45 108.55,126 108,126 Z M120,126 L116,126 C115.45,126 115,126.45 115,127 C115,127.55 115.45,128 116,128 L120,128 C120.55,128 121,127.55 121,127 C121,126.45 120.55,126 120,126 Z M127,123 C126.45,123 126,123.45 126,124 L126,128 L128,128 L128,124 C128,123.45 127.55,123 127,123 Z M127,111 C126.45,111 126,111.45 126,112 L126,116 C126,116.55 126.45,117 127,117 C127.55,117 128,116.55 128,116 L128,112 C128,111.45 127.55,111 127,111 Z M127,99 C126.45,99 126,99.45 126,100 L126,104 C126,104.55 126.45,105 127,105 C127.55,105 128,104.55 128,104 L128,100 C128,99.45 127.55,99 127,99 Z M127,87 C126.45,87 126,87.45 126,88 L126,92 C126,92.55 126.45,93 127,93 C127.55,93 128,92.55 128,92 L128,88 C128,87.45 127.55,87 127,87 Z M127,75 C126.45,75 126,75.45 126,76 L126,80 C126,80.55 126.45,81 127,81 C127.55,81 128,80.55 128,80 L128,76 C128,75.45 127.55,75 127,75 Z M127,63 C126.45,63 126,63.45 126,64 L126,68 C126,68.55 126.45,69 127,69 C127.55,69 128,68.55 128,68 L128,64 C128,63.45 127.55,63 127,63 Z M127,51 C126.45,51 126,51.45 126,52 L126,56 C126,56.55 126.45,57 127,57 C127.55,57 128,56.55 128,56 L128,52 C128,51.45 127.55,51 127,51 Z M127,39 C126.45,39 126,39.45 126,40 L126,44 C126,44.55 126.45,45 127,45 C127.55,45 128,44.55 128,44 L128,40 C128,39.45 127.55,39 127,39 Z M127,27 C126.45,27 126,27.45 126,28 L126,32 C126,32.55 126.45,33 127,33 C127.55,33 128,32.55 128,32 L128,28 C128,27.45 127.55,27 127,27 Z M127,15 C126.45,15 126,15.45 126,16 L126,20 C126,20.55 126.45,21 127,21 C127.55,21 128,20.55 128,20 L128,16 C128,15.45 127.55,15 127,15 Z M127,3 C126.45,3 126,3.45 126,4 L126,8 C126,8.55 126.45,9 127,9 C127.55,9 128,8.55 128,8 L128,4 C128,3.45 127.55,3 127,3 Z"/>
  <path d="M122.77,80.75 C122.79,80.4 122.8,80.05 122.81,79.69 C122.9,77.29 121,75.28 118.52,75.07 L118.52,74.98 C120.98,74.62 122.75,72.49 122.49,70.09 C122.45,69.73 122.41,69.38 122.37,69.03 C122.09,66.81 120.16,65.16 117.89,65.08 C117.88,64.99 117.86,64.91 117.84,64.82 C119.91,63.91 121.05,61.7 120.42,59.54 C120.32,59.19 120.21,58.85 120.11,58.5 C119.46,56.42 117.38,55.13 115.21,55.3 C115.17,55.19 115.12,55.08 115.07,54.97 C116.8,53.69 117.41,51.38 116.4,49.42 C116.23,49.1 116.07,48.78 115.89,48.46 C114.85,46.54 112.57,45.63 110.47,46.18 C110.4,46.07 110.32,45.96 110.25,45.85 C111.66,44.27 111.78,41.91 110.41,40.19 C110.18,39.9 109.94,39.61 109.71,39.33 C108.29,37.64 105.86,37.19 103.92,38.13 C103.82,38.03 103.73,37.94 103.63,37.85 C104.67,36.02 104.28,33.69 102.56,32.28 C102.27,32.04 101.97,31.81 101.68,31.57 C99.95,30.22 97.53,30.25 95.84,31.49 C95.71,31.4 95.57,31.31 95.44,31.22 C96.01,29.25 95.11,27.09 93.15,26.08 C92.82,25.91 92.49,25.74 92.15,25.57 C90.23,24.62 87.95,25.07 86.55,26.51 C86.35,26.43 86.16,26.34 85.96,26.26 C86,24.3 84.71,22.48 82.66,21.88 C82.29,21.77 81.93,21.67 81.56,21.57 C79.55,21.02 77.5,21.83 76.4,23.39 C76.16,23.34 75.92,23.29 75.68,23.24 C75.31,21.18 73.73,19.19 71.63,18.98 C71.26,18.94 70.88,18.91 70.5,18.88 C68.32,18.7 66.15,20.28 65.36,22.25 C65.26,22.25 65.16,22.24 65.05,22.24 L65.03,22.24 C64.32,20.18 62.19,18.77 60.06,18.94 C59.68,18.97 59.31,19.01 58.93,19.04 C56.83,19.25 54.9,21.2 54.38,23.24 C54.12,23.29 53.87,23.35 53.62,23.4 C52.52,21.82 50.46,21.01 48.44,21.56 C48.07,21.66 47.7,21.76 47.34,21.87 C45.27,22.48 43.98,24.32 44.04,26.29 C43.85,26.37 43.67,26.45 43.48,26.53 C42.08,25.06 39.78,24.6 37.85,25.56 C37.52,25.73 37.18,25.9 36.85,26.07 C34.87,27.09 33.97,29.28 34.57,31.27 C34.45,31.35 34.33,31.43 34.2,31.52 C32.5,30.24 30.05,30.2 28.31,31.57 C28.01,31.8 27.72,32.04 27.43,32.28 C25.69,33.7 25.31,36.07 26.39,37.9 L26.13,38.16 C24.18,37.18 21.71,37.63 20.28,39.33 C20.04,39.61 19.81,39.9 19.58,40.19 C18.19,41.93 18.33,44.33 19.79,45.91 C19.72,46.01 19.66,46.1 19.59,46.2 C17.47,45.61 15.15,46.51 14.1,48.46 C13.93,48.78 13.76,49.1 13.59,49.42 C12.57,51.39 13.21,53.73 15,55 C14.96,55.1 14.91,55.2 14.87,55.3 C12.66,55.09 10.54,56.38 9.88,58.49 C9.77,58.83 9.67,59.18 9.57,59.53 C8.93,61.72 10.11,63.96 12.23,64.85 C12.22,64.93 12.2,65 12.19,65.08 C9.89,65.13 7.9,66.78 7.62,69.03 C7.58,69.38 7.54,69.74 7.5,70.09 C7.24,72.52 9.05,74.68 11.56,75 L11.56,75.07 C9.04,75.24 7.09,77.27 7.18,79.7 C7.19,80.05 7.21,80.4 7.22,80.76 C7.34,83.16 9.42,85 11.88,85.03 C11.88,85.06 11.88,85.09 11.89,85.12 C9.47,85.6 7.83,87.78 8.18,90.15 C8.23,90.49 9.02,94.48 12.7,94.96 C10.34,96.02 10.26,98.8 11.42,100.89 C12.43,102.7 17.69,106.86 18.38,107.59 L18.38,107.57 C18.76,108.12 19.15,108.66 19.58,109.19 C19.68,109.24 19.74,109.26 19.74,109.24 C19.63,104.37 20.52,97.73 21.8,91.26 C22.26,88.96 22.76,86.69 23.29,84.52 C26.21,84 28.43,81.52 28.43,78.53 C28.43,77.41 28.1,76.38 27.56,75.48 C28.27,75.75 29.03,75.91 29.84,75.91 C32.75,75.91 35.17,73.97 35.88,71.35 C36.93,73.29 38.99,74.62 41.4,74.62 C44.7,74.62 47.38,72.12 47.62,68.97 L47.65,68.97 C48.06,71.95 50.66,74.26 53.83,74.26 C56.3,74.26 58.42,72.85 59.44,70.83 C60.42,72.95 62.6,74.44 65.15,74.44 C67.57,74.44 69.65,73.09 70.69,71.13 C71.76,72.99 73.79,74.26 76.13,74.26 C79.29,74.26 81.88,71.97 82.31,69 L82.34,69 C82.6,72.14 85.27,74.62 88.56,74.62 C90.97,74.62 93.03,73.29 94.08,71.35 C94.79,73.97 97.21,75.91 100.12,75.91 C101.22,75.91 102.23,75.61 103.12,75.13 C102.59,76.03 102.26,77.06 102.26,78.17 C102.26,80.98 104.22,83.33 106.88,84.03 C108.94,92.37 110.69,102.41 110.55,109.14 C111.09,108.46 111.58,107.75 112.06,107.03 C113.65,105.64 117.55,102.42 118.41,100.89 C119.57,98.82 119.49,96.07 117.18,94.99 C119.39,94.92 121.31,93.36 121.66,91.19 C121.72,90.85 121.77,90.5 121.82,90.15 C122.17,87.81 120.57,85.66 118.2,85.14 C118.2,85.1 118.2,85.06 118.21,85.02 C120.62,84.94 122.65,83.12 122.77,80.75 Z" fill="url(#a)"/>
  <path d="M124.77,80.85 C125.09,78.66 124.29,76.57 123.26,75.38 C123.02,75.1 123,74.68 123.23,74.38 C124.18,73.12 124.57,71.54 124.49,69.86 C124.38,67.4 123.32,65.64 122.09,64.62 C121.81,64.38 121.73,63.97 121.9,63.65 C122.63,62.25 123.04,60.15 122.55,58.53 C121.84,56.2 120.42,54.97 118.99,54.16 C118.67,53.98 118.52,53.59 118.63,53.25 C119.1,51.71 118.98,49.5 118.26,47.95 C117.18,45.62 115.49,44.89 113.9,44.36 C113.56,44.25 113.33,43.9 113.37,43.54 C113.53,41.93 113.08,39.82 112.1,38.41 C110.77,36.49 108.55,35.89 106.87,35.69 C106.51,35.65 106.23,35.35 106.19,35 C106.01,33.38 105.37,31.66 104.18,30.37 C102.68,28.75 99.81,28.42 98.12,28.56 C97.76,28.59 97.42,28.37 97.31,28.03 C96.8,26.47 95.78,24.86 94.26,23.91 C91.93,22.45 89.66,22.86 88.02,23.36 C87.67,23.46 87.3,23.3 87.11,22.99 C86.28,21.56 85.8,20.46 83.55,19.58 C80.44,18.37 78.79,19.37 77.34,20.06 C76.99,20.23 76.57,20.11 76.34,19.8 C75.31,18.33 74.11,17.2 72.21,16.79 C68.5,16 67.16,17.36 65.75,18.49 C65.46,18.72 65.06,18.69 64.75,18.49 C63.07,17.36 61.63,16.25 58.79,16.55 C55.32,16.92 55.06,18.35 53.83,19.93 C53.6,20.23 53.18,20.32 52.85,20.15 C51.37,19.38 49.12,18.5 46.56,19.37 C44.33,20.13 43.71,21.56 42.89,22.98 C42.71,23.29 42.33,23.45 41.98,23.35 C40.35,22.86 37.74,22.94 36.2,23.82 C34.24,24.94 33.23,26.46 32.71,28.02 C32.6,28.36 32.26,28.58 31.9,28.55 C30.21,28.4 28.04,28.52 26.66,29.65 C24.58,31.38 24,33.38 23.82,35 C23.78,35.36 23.49,35.65 23.14,35.69 C21.46,35.89 19.24,36.55 18.21,37.96 C16.92,39.71 16.48,41.94 16.64,43.55 C16.68,43.91 16.45,44.26 16.11,44.37 C14.53,44.9 12.96,45.42 11.92,47.46 C11.02,49.22 10.91,51.72 11.38,53.25 C11.49,53.6 11.33,53.99 11.02,54.17 C9.59,54.98 8.3,55.96 7.59,57.88 C6.86,59.86 7.4,62.26 8.14,63.67 C8.31,64 8.23,64.41 7.94,64.64 C6.7,65.67 5.84,67.13 5.64,68.78 C5.59,69.14 5.55,69.51 5.51,69.88 C5.33,71.56 5.81,73.14 6.76,74.39 C6.98,74.68 6.97,75.1 6.73,75.38 C5.71,76.56 5.13,78.1 5.19,79.76 C5.2,80.12 5.22,80.49 5.24,80.85 C5.32,82.47 6.02,83.93 7.1,85.02 C7.36,85.29 7.41,85.71 7.2,86.02 C6.36,87.29 5.97,88.85 6.21,90.45 C6.42,91.84 7.31,94.17 9.26,95.65 C9.16,95.86 9.07,96.08 8.99,96.31 C8.43,98 8.69,100.08 9.68,101.86 C10.51,103.35 12.86,105.43 15.61,107.8 C15.9,108.05 17.34,109.44 18.48,110.54 C19.01,111.06 19.9,110.66 19.88,109.92 L19.81,107.07 C19.81,106.94 19.78,106.82 19.72,106.7 C17.99,103.19 13.63,103.19 12.68,99 C12.36,97.6 13.02,96.36 13.62,95.57 C13.95,95.13 13.77,94.53 13.27,94.3 C9.99,92.85 10.16,89.92 10.16,89.84 C10.13,88.14 11.69,86.59 12.8,85.71 C13.26,85.35 13.19,84.64 12.68,84.35 C11.38,83.6 9.46,82.13 9.38,80 C9.3,78.01 10.89,76.59 12.13,75.8 C12.66,75.46 12.64,74.69 12.09,74.38 C10.85,73.66 9.31,72.3 9.42,70 C9.52,67.89 11.56,66.73 13.11,66.16 C13.7,65.94 13.83,65.15 13.33,64.76 C12.23,63.87 11.04,62.31 11.65,59.91 C12.28,57.44 14.38,56.62 15.95,56.36 C16.58,56.25 16.88,55.53 16.48,55.03 C15.59,53.92 14.71,52.13 15.65,49.9 C16.67,47.49 18.65,47.32 19.98,47.52 C20.56,47.61 21.03,47.08 20.9,46.51 C20.55,44.96 20.32,42.42 21.83,40.61 C23.24,38.92 25.59,39.19 27.08,39.6 C27.66,39.76 28.21,39.25 28.1,38.67 C27.82,37.12 27.75,34.69 29.58,33.34 C31.13,32.19 33.35,32.77 34.68,33.29 C35.2,33.5 35.78,33.14 35.81,32.58 C35.91,31.01 36.36,28.41 38.25,27.62 C40.13,26.84 42.27,27.96 43.44,28.75 C43.88,29.05 44.49,28.86 44.67,28.35 C45.21,26.87 45.7,24.5 48.4,23.68 C51.01,22.88 52.69,24.35 53.87,25.42 C54.31,25.81 54.99,25.64 55.2,25.09 C55.75,23.61 56.71,21.52 59.13,21.03 C61.62,20.52 63.47,22.54 64.37,23.84 C64.69,24.29 65.35,24.31 65.69,23.88 C66.66,22.63 68.59,20.69 70.95,20.94 C73.37,21.2 74.71,23.71 75.3,25.18 C75.5,25.69 76.13,25.88 76.57,25.55 C77.79,24.63 80.04,23.18 82.09,23.79 C84.01,24.36 85.01,26.51 85.46,27.94 C85.64,28.5 86.3,28.7 86.77,28.34 C87.95,27.43 90.09,26.31 92.49,27.54 C94.51,28.57 94.83,30.87 94.81,32.33 C94.8,32.91 95.36,33.32 95.91,33.13 C97.33,32.65 99.71,32.19 101.3,33.63 C102.89,35.06 102.77,37.39 102.5,38.85 C102.39,39.43 102.91,39.91 103.49,39.8 C105.01,39.5 107.49,39.42 109.04,41.46 C110.39,43.25 109.81,45.46 109.26,46.75 C109.04,47.27 109.37,47.84 109.93,47.9 C111.36,48.06 113.65,48.6 114.44,50.36 C115.2,52.05 114.26,54.04 113.49,55.26 C113.17,55.76 113.48,56.42 114.07,56.52 C115.59,56.77 117.86,57.48 118.3,59.47 C118.74,61.49 117.23,63.59 116.17,64.77 C115.77,65.21 115.95,65.9 116.5,66.1 C117.98,66.64 120.22,67.78 120.4,69.81 C120.58,71.84 118.9,73.53 117.7,74.47 C117.23,74.84 117.31,75.57 117.84,75.85 C119.26,76.6 121.35,78.06 121.36,80.14 C121.37,82.23 119.39,83.87 118.04,84.74 C117.54,85.06 117.53,85.76 118.01,86.11 C119.06,86.87 120.38,88.29 120.07,90.46 C119.76,92.65 118.35,93.61 116.4,93.95 C115.83,94.05 115.56,94.71 115.86,95.2 C116.55,96.32 117.32,98.12 116.66,99.91 C116.13,101.33 112.46,104.06 110.77,105.47 C110.59,105.62 110.48,105.85 110.48,106.09 L110.42,112.63 C110.41,113.39 111.34,113.76 111.85,113.21 C113.95,110.96 117.85,106.7 120.23,103.54 C122.27,100.84 121.41,97.75 120.93,96.49 C120.8,96.16 120.9,95.79 121.17,95.57 C122.48,94.55 123.53,92.89 123.78,90.45 C123.95,88.84 123.61,87.29 122.77,86.01 C122.57,85.7 122.62,85.29 122.88,85.03 C123.99,83.92 124.53,82.45 124.77,80.85 Z" fill="#3F2720"/>
</svg>