<svg viewBox="0 0 128 128" xmlns="http://www.w3.org/2000/svg" xmlns:xlink="http://www.w3.org/1999/xlink">
  <defs>
    <rect id="e" height="58.36" width="120.55" x="3.93" y="4.01"/>
  </defs>
  <clipPath id="a">
    <use xlink:href="#e"/>
  </clipPath>
  <linearGradient id="d" gradientUnits="userSpaceOnUse" x1="79.154" x2="79.154" y1="-8.6667" y2="41.338">
    <stop offset=".1355" stop-color="#1E88E5"/>
    <stop offset=".938" stop-color="#1565C0"/>
  </linearGradient>
  <polygon clip-path="url(#a)" fill="url(#d)" points="48.44 46.18 79.87 46.18 109.87 -2.25 78.44 -2.25"/>
  <g clip-path="url(#a)" opacity=".2">
    <path d="m104.23 1-26.03 42h-24.35l26.26-42h23.89m5.87-3h-31.43l-30 48h31.42l30.01-48z" fill="#424242"/>
  </g>
  <path clip-path="url(#a)" d="m82 34h-36c-4.42 0-8 3.58-8 8v16.04c0 2.17 1.8 3.95 4.02 3.96h0.01c2.23-0.01 4.97-1.75 4.97-3.96v-10.04c0-1.1 0.9-2 2-2h30c1.1 0 2 0.9 2 2v9.93c0 1.98 2.35 3.68 4.22 4.04 0.26 0.05 0.52 0.08 0.78 0.08 2.21 0 4-1.79 4-4v-16.05c0-4.42-3.58-8-8-8z" fill="#BDBDBD"/>
  <g clip-path="url(#a)" opacity=".2">
    <path d="m82 36c3.31 0 6 2.69 6 6v16.04c0 1.1-0.9 2-2 2-0.13 0-0.27-0.01-0.41-0.04-1.18-0.23-2.59-1.35-2.59-2.07v-9.93c0-2.21-1.79-4-4-4h-30c-2.21 0-4 1.79-4 4v10.04c0 0.88-1.64 1.96-2.97 1.96-1.12-0.01-2.03-0.89-2.03-1.96v-16.04c0-3.31 2.69-6 6-6h36m0-2h-36c-4.42 0-8 3.58-8 8v16.04c0 2.17 1.8 3.95 4.02 3.96h0.01c2.23-0.01 4.97-1.75 4.97-3.96v-10.04c0-1.1 0.9-2 2-2h30c1.1 0 2 0.9 2 2v9.93c0 1.98 2.35 3.68 4.22 4.04 0.26 0.05 0.52 0.08 0.78 0.08 2.21 0 4-1.79 4-4v-16.05c0-4.42-3.58-8-8-8z" fill="#424242"/>
  </g>
  <linearGradient id="c" gradientUnits="userSpaceOnUse" x1="34.81" x2="66.143" y1="-.9254" y2="49.075">
    <stop offset=".1355" stop-color="#64B5F6"/>
    <stop offset=".9462" stop-color="#2196F3"/>
  </linearGradient>
  <polygon clip-path="url(#a)" fill="url(#c)" points="79.87 46.18 48.44 46.18 18.44 -2.25 49.87 -2.25"/>
  <g clip-path="url(#a)" opacity=".2">
    <path d="m48.1 1 26.35 42h-24.35l-26.24-42h24.14m1.87-3h-31.43l30 48h31.42l-29.99-48z" fill="#424242"/>
  </g>
  <radialGradient id="b" cx="43" cy="63.25" gradientUnits="userSpaceOnUse" r="69.492">
    <stop offset=".2835" stop-color="#eee"/>
    <stop offset="1" stop-color="#BDBDBD"/>
  </radialGradient>
  <circle cx="64" cy="86" fill="url(#b)" r="38"/>
  <g opacity=".2">
    <path d="m64 51c19.3 0 35 15.7 35 35s-15.7 35-35 35-35-15.7-35-35 15.7-35 35-35m0-3c-20.99 0-38 17.01-38 38s17.01 38 38 38 38-17.01 38-38-17.01-38-38-38z" fill="#424242"/>
  </g>
  <path d="M78.37,107.09H50.1v-5.61l13.34-14.22c1.83-2,3.19-3.75,4.06-5.24s1.32-2.91,1.32-4.25 c0-1.83-0.46-3.27-1.39-4.32c-0.92-1.05-2.25-1.57-3.96-1.57c-1.85,0-3.31,0.64-4.38,1.91c-1.07,1.28-1.6,2.95-1.6,5.03h-8.21 c0-2.51,0.6-4.8,1.8-6.88c1.2-2.08,2.89-3.71,5.08-4.89c2.19-1.18,4.67-1.77,7.45-1.77c4.25,0,7.55,1.02,9.9,3.06 s3.53,4.92,3.53,8.64c0,2.04-0.53,4.12-1.59,6.23s-2.87,4.58-5.44,7.39l-9.37,9.88h17.73V107.09z" fill="#757575"/>
</svg>