<svg viewBox="0 0 128 128" xmlns="http://www.w3.org/2000/svg">
  <defs>
    <linearGradient id="SVGID_1_" gradientUnits="userSpaceOnUse" x1="93.8171" x2="98.6631" y1="68.0943" y2="115.8423">
      <stop offset="0" stop-color="#ECEFF1"/>
      <stop offset="1" stop-color="#B0BEC5"/>
    </linearGradient>
    <linearGradient id="SVGID_2_" gradientUnits="userSpaceOnUse" x1="75.1962" x2="57.6492" y1="76.4774" y2="116.9074">
      <stop offset="0" stop-color="#ECEFF1"/>
      <stop offset="1" stop-color="#B0BEC5"/>
    </linearGradient>
    <linearGradient id="SVGID_3_" gradientUnits="userSpaceOnUse" x1="72.7622" x2="63.6282" y1="42.985" y2="59.032">
      <stop offset="0" stop-color="#ECEFF1"/>
      <stop offset="1" stop-color="#B0BEC5"/>
    </linearGradient>
    <linearGradient id="SVGID_4_" gradientUnits="userSpaceOnUse" x1="50.6093" x2="66.0703" y1="52.3016" y2="63.8276">
      <stop offset="0" stop-color="#ECEFF1"/>
      <stop offset="1" stop-color="#B0BEC5"/>
    </linearGradient>
    <linearGradient id="SVGID_5_" gradientTransform="matrix(0.9595 0.2818 -0.2818 0.9595 0 0)" gradientUnits="userSpaceOnUse" x1="104.098503" x2="120.889503" y1="12.46287" y2="17.83287">
      <stop offset="0" stop-color="#ECEFF1"/>
      <stop offset="1" stop-color="#B0BEC5"/>
    </linearGradient>
    <linearGradient id="SVGID_6_" gradientUnits="userSpaceOnUse" x1="116.8637" x2="111.5437" y1="32.2821" y2="53.2901">
      <stop offset="0" stop-color="#B0BEC5"/>
      <stop offset="0.5212" stop-color="#CFD8DC"/>
      <stop offset="1" stop-color="#B0BEC5"/>
    </linearGradient>
    <linearGradient id="SVGID_7_" gradientUnits="userSpaceOnUse" x1="86.0709" x2="86.0709" y1="11.958" y2="34.234">
      <stop offset="0.5453" stop-color="#FFCA28"/>
      <stop offset="0.834" stop-color="#FFB300"/>
      <stop offset="0.9947" stop-color="#E59600"/>
    </linearGradient>
    <linearGradient id="SVGID_8_" gradientUnits="userSpaceOnUse" x1="73.5925" x2="98.4138" y1="22.5" y2="22.5">
      <stop offset="0" stop-color="#EDA600"/>
      <stop offset="0.8708" stop-color="#D18900"/>
    </linearGradient>
    <radialGradient id="SVGID_9_" cx="83.7" cy="11.49" gradientUnits="userSpaceOnUse" r="12.764">
      <stop offset="0" stop-color="#6D4C41"/>
      <stop offset="1" stop-color="#543930"/>
    </radialGradient>
    <linearGradient id="SVGID_10_" gradientUnits="userSpaceOnUse" x1="71.1501" x2="71.1501" y1="67.024" y2="116.0899">
      <stop offset="0" stop-color="#ECEFF1"/>
      <stop offset="1" stop-color="#B0BEC5"/>
    </linearGradient>
    <linearGradient id="SVGID_11_" gradientUnits="userSpaceOnUse" x1="91.1089" x2="95.2569" y1="72.3857" y2="113.2517">
      <stop offset="0" stop-color="#ECEFF1"/>
      <stop offset="1" stop-color="#B0BEC5"/>
    </linearGradient>
    <linearGradient id="SVGID_12_" gradientUnits="userSpaceOnUse" x1="84.1436" x2="85.1316" y1="27.3766" y2="67.1246">
      <stop offset="0" stop-color="#ECEFF1"/>
      <stop offset="1" stop-color="#B0BEC5"/>
    </linearGradient>
    <linearGradient id="SVGID_13_" gradientUnits="userSpaceOnUse" x1="58.8026" x2="58.8026" y1="114.8499" y2="122.26">
      <stop offset="0" stop-color="#CFD8DC"/>
      <stop offset="1" stop-color="#90A4AE"/>
    </linearGradient>
    <linearGradient id="SVGID_14_" gradientUnits="userSpaceOnUse" x1="100.785" x2="100.785" y1="113.62" y2="122.0299">
      <stop offset="0" stop-color="#CFD8DC"/>
      <stop offset="1" stop-color="#90A4AE"/>
    </linearGradient>
    <radialGradient id="SVGID_17_" cx="119.722271" cy="6.487292" gradientTransform="matrix(0.9823 0.1874 -0.1591 0.8341 0 0)" gradientUnits="userSpaceOnUse" r="10.97">
      <stop offset="2.929700e-03" stop-color="#90A4AE"/>
      <stop offset="0.4219" stop-color="#B0BEC5"/>
      <stop offset="0.8419" stop-color="#ECEFF1"/>
    </radialGradient>
    <linearGradient id="SVGID_18_" gradientTransform="matrix(-0.9242 -0.382 -0.382 0.9242 0 0)" gradientUnits="userSpaceOnUse" x1="-117.305248" x2="-118.175148" y1="-23.533648" y2="-18.635648">
      <stop offset="0" stop-color="#ECEFF1"/>
      <stop offset="0.9354" stop-color="#B0BEC5"/>
    </linearGradient>
  </defs>
  <path d="M41.3,48 L4.5,43.7 L4.5,44.4 L41,50 Z" fill="#FFB300"/>
  <path d="M41,50.5 C40.9,50.5 40.9,50.5 41,50.5 L4.4,44.9 C4.2,44.9 4,44.7 4,44.4 L4,43.7 C4,43.6 4.1,43.4 4.2,43.3 C4.3,43.2 4.4,43.2 4.6,43.2 L41.4,47.4 C41.5,47.4 41.7,47.5 41.7,47.6 C41.7,47.7 41.8,47.8 41.8,48 L41.5,50 C41.4,50.3 41.2,50.5 41,50.5 Z M12.3,45.1 L40.6,49.4 L40.8,48.4 C40.7,48.4 12.3,45.1 12.3,45.1 Z" fill="#E69200"/>
  <path d="M35.7,48 C35.3,51.2 35.8,53.9 36.9,54.1 C38,54.3 39.3,51.8 39.7,48.6 C40.1,45.4 39.6,42.7 38.5,42.5 C37.4,42.3 36.2,44.8 35.7,48 Z" fill="#FFB300"/>
  <path d="M37.1,54.6 C37,54.6 37,54.6 36.9,54.6 C36.4,54.5 35.6,54.1 35.3,52.3 C35.1,51.1 35,49.5 35.3,48 C35.7,44.9 37,41.8 38.7,42 C40.4,42.2 40.8,45.5 40.4,48.6 C40.2,50.2 39.8,51.7 39.2,52.8 C38.4,54.2 37.6,54.6 37.1,54.6 Z M36.2,48.1 C36,49.6 36,51 36.2,52.1 C36.4,53.1 36.7,53.6 37,53.6 C37.2,53.6 37.7,53.3 38.1,52.4 C38.6,51.4 39,50 39.2,48.5 C39.7,45 39,43 38.5,43 L38.5,43 C37.9,43 36.7,44.7 36.2,48.1 Z" fill="#E69200"/>
  <path d="M96.7,119.6 L102.8,119.6 L101.9,95.8 L91.5,97.2 Z" fill="url(#SVGID_1_)"/>
  <path d="M67.2,121.3 L60.9,121.3 L55.7,95 L66.8,94.8 Z" fill="url(#SVGID_2_)"/>
  <path d="M59.3,57.5 L65.2,61.7 L77.1,44.5 L69.8,39.5 Z" fill="url(#SVGID_3_)"/>
  <path d="M64.3,57.1 L64.3,57.1 L64.3,57.1 C63.9,56.7 63.5,56.5 63,56.3 L47.1,47.3 L43.7,52.6 L59.5,62.6 C59.8,62.8 60.1,63 60.4,63.2 L60.5,63.2 L60.5,63.2 C60.9,63.4 61.3,63.5 61.7,63.5 C63.7,63.6 65.5,62 65.6,60 C65.6,58.8 65.1,57.8 64.3,57.1 Z" fill="url(#SVGID_4_)"/>
  <path d="M61.9,64.5 C61.8,64.5 61.7,64.5 61.7,64.5 C61.2,64.5 60.8,64.4 60.3,64.2 C60.2,64.2 60.1,64.1 60,64.1 C59.7,64 59.3,63.7 59,63.5 L43.3,53.5 C43.1,53.4 42.9,53.1 42.9,52.9 C42.9,52.7 42.9,52.4 43,52.1 L46.4,46.8 C46.7,46.4 47.3,46.2 47.7,46.5 L60.4,53.7 L68.9,39 C69,38.8 69.3,38.6 69.5,38.5 C69.7,38.4 70.1,38.5 70.3,38.7 L77.7,43.7 C77.9,43.9 78.1,44.1 78.1,44.4 C78.2,44.7 78.1,44.9 77.9,45.2 L66,62.2 C65.9,62.3 65.8,62.5 65.6,62.5 C64.7,63.8 63.4,64.5 61.9,64.5 Z M60.8,62.2 C60.8,62.2 60.8,62.3 60.8,62.2 C61.2,62.4 61.5,62.4 61.8,62.4 C62.8,62.5 63.8,61.9 64.3,61 C64.4,60.8 64.6,60.7 64.8,60.6 L75.9,44.7 L70.2,40.9 L61.7,55.5 C61.4,56 60.8,56.1 60.3,55.9 L47.5,48.7 L45.2,52.4 L60,61.8 C60,61.8 60.1,61.8 60.1,61.9 C60.3,62 60.5,62.1 60.8,62.2 L60.8,62.2 Z" fill="#90A4AE"/>
  <path d="M110.4,55.9 L114.1,49.2 L98.6,37.2 L94.9,45.9 Z" fill="url(#SVGID_5_)"/>
  <path d="M115.5,52.5 L119.8,33.3 L113.6,32.6 L108.5,50.7 C108.4,50.9 108.3,51.2 108.2,51.4 C108.1,51.7 108,52.1 108,52.4 L108,52.4 L108,52.4 C108,54 108.9,55.5 110.5,56 C112.3,56.6 114.1,55.7 114.9,54.1 L114.9,54.1 L114.9,54 C115,53.9 115,53.8 115.1,53.6 C115.5,53.2 115.5,52.8 115.5,52.5 Z" fill="url(#SVGID_6_)"/>
  <path d="M111.8,57.1 C111.3,57.1 110.9,57 110.4,56.9 L110.4,56.9 C110.2,56.9 110.1,56.9 109.9,56.8 L109.5,56.6 C109.4,56.6 109.3,56.5 109.2,56.4 L94.3,46.8 C93.9,46.5 93.7,46 93.9,45.6 L97.6,36.9 C97.7,36.6 98,36.4 98.3,36.3 C98.6,36.2 98.9,36.3 99.2,36.5 L109.4,44.5 L113,31.6 C113.1,31.1 113.6,30.8 114.1,30.9 L120.2,31.6 C120.5,31.6 120.7,31.8 120.9,32 C121.1,32.2 121.1,32.5 121.1,32.8 L116.6,52.7 C116.6,53.2 116.5,53.6 116.4,54 C116.3,54.1 116.3,54.3 116.2,54.4 C116.2,54.6 116.1,54.7 116,54.8 C115.1,56.2 113.5,57.1 111.8,57.1 Z M110.7,54.8 C110.8,54.8 110.8,54.8 110.9,54.8 C111,54.8 111,54.8 111.1,54.9 C112.3,55.3 113.7,54.7 114.3,53.5 L114.3,53.5 L114.4,53.3 C114.4,53.3 114.5,53.2 114.5,53.1 C114.6,52.9 114.6,52.6 114.6,52.3 C114.6,52.2 114.6,52.2 114.6,52.1 L118.9,33.2 L114.7,32.7 L111,46.2 C110.9,46.5 110.7,46.8 110.3,46.9 C110,47 109.6,46.9 109.4,46.7 L99,38.7 L96.1,45.5 L110.3,54.6 C110.4,54.7 110.5,54.7 110.6,54.8 L110.7,54.8 Z" fill="#90A4AE"/>
  <path d="M97.6,13.1 C95.9,8.8 90.7,6.1 86.1,6.1 C79.7,6.1 74.3,10 74.3,16.8 L74.6,19.8 C74.9,22.1 74.3,22.9 73.9,24.4 C73.5,25.6 73.6,27.8 74.9,29.5 C76,30.9 78.7,32.8 80.2,32.8 C82.3,32.8 83,33.1 83.3,34.7 L83.8,38.9 L91.2,38.9 L91.6,32.8 C91.8,30.4 93.1,28.3 95.2,27 C98,25.4 99.5,18 97.6,13.1 L97.6,13.1 Z" fill="url(#SVGID_7_)"/>
  <path d="M86.1,7.1 C90.6,7.1 95.2,9.8 96.6,13.5 C98.4,18.1 97,24.9 94.6,26.3 C92.3,27.7 90.8,30.2 90.5,32.8 L90.2,38 L84.6,38 L84.2,34.7 L84.2,34.6 C83.7,32.1 82,31.9 80.1,31.9 C79.1,31.9 76.6,30.3 75.6,29 C74.5,27.6 74.4,25.8 74.7,24.8 C74.8,24.5 74.9,24.2 75,23.9 C75.4,22.8 75.8,21.8 75.5,19.7 L75.2,16.8 C75.2,10.2 80.8,7.1 86.1,7.1 L86.1,7.1 M86.1,6.1 L86.1,6.1 C79.7,6.1 74.2,10 74.2,16.8 L74.5,19.8 C74.8,22.1 74.2,22.9 73.8,24.4 C73.4,25.6 73.5,27.8 74.8,29.5 C75.9,30.9 78.6,32.8 80.1,32.8 C82.2,32.8 82.9,33.1 83.2,34.7 L83.7,38.9 L91.1,38.9 L91.5,32.8 C91.7,30.4 93,28.3 95.1,27 C98,25.2 99.5,17.8 97.5,12.9 C95.9,8.9 90.7,6.1 86.1,6.1 L86.1,6.1 Z" fill="url(#SVGID_8_)"/>
  <path d="M85.7,22.6 C85.8,23.3 85.8,24.6 87.3,25.4 L89.6,21 C89.6,21 89.6,21 89.7,21.1 C91.2,22.1 91.6,24 90.8,25.6 L90.4,26.3 C89.8,28 90.5,31 92.2,31.3 L92.4,31.3 C93.6,28 97.4,28.4 99.1,19.8 C100.4,13.4 97.5,7.8 89.3,6.1 C81.5,4.5 74.5,7.8 74,15.5 L80.6,18 C82,18.3 83.3,19.1 84.2,20.2 C85,20.9 85.6,21.8 85.7,22.6 Z" fill="url(#SVGID_9_)"/>
  <path d="M82.9,24.2 A1.3 2 0 1 1 80.3,24.2 A1.3 2 0 1 1 82.9,24.2 Z" fill="#404040"/>
  <path d="M98.2,11.6 C97.4,10.1 96.1,8.9 94.4,7.9 C93,7.1 91.4,6.4 89.4,6 C89.1,5.9 88.8,5.9 88.5,5.9 C87.5,5.7 86.5,5.7 85.6,5.7 C85.2,5.7 84.8,5.7 84.5,5.7 C84.1,5.7 83.7,5.8 83.4,5.8 C82.7,5.9 82,6 81.3,6.3 C81,6.4 80.6,6.5 80.3,6.6 C80,6.7 79.7,6.9 79.4,7 L79.4,7 C79.1,7.2 78.8,7.3 78.5,7.5 C78.2,7.7 78,7.9 77.7,8.1 C76.9,8.7 76.3,9.4 75.7,10.3 C75.5,10.6 75.4,10.9 75.2,11.2 C75,11.7 74.8,12.1 74.6,12.7 C74.3,13.5 74.1,14.5 74.1,15.5 L74.1,15.5 L74.5,15.7 L75.8,16.2 L76.2,14.3 L76.3,14 C77.3,10 80.6,7.8 85.6,7.8 C86.7,7.8 87.8,7.9 89,8.2 C95.5,9.5 98.5,13.7 97.3,19.6 C96.3,24.5 94.7,26 93.2,27.4 C92.9,27.7 92.6,27.9 92.3,28.2 L92.2,28.4 L90.9,30.4 C91.3,30.9 91.7,31.3 92.3,31.4 L92.5,31.4 C93.7,28.1 97.5,28.5 99.2,19.9 C99.8,16.7 99.5,13.9 98.2,11.6 Z" fill="#402821"/>
  <path d="M81.1,21.4 C80,21.2 79.3,20.9 79.7,20.3 C80.3,19.4 81.9,19.8 82.5,20 C83.9,20.5 84.3,21.5 84.4,21.9 C84.5,22.3 84.5,22.8 84.2,22.7 C84,22.6 83.3,21.8 81.1,21.4 Z" fill="#6D4C41"/>
  <path d="M76.8,22.4 C76.8,23.5 76.5,24.3 76,24.3 C75.5,24.3 75.5,20.4 76,20.4 C76.5,20.4 76.8,21.3 76.8,22.4 Z" fill="#404040"/>
  <path d="M75.5,18 C76,18 76.4,18.2 76.6,18.4 C77.2,18.8 77.4,19.2 77.4,19.5 C77.5,19.8 77.5,20.3 77.2,20.2 C77,20.2 77.4,20.2 75.7,19.7 C75.5,19.7 74.9,18 75.5,18 Z" fill="#6D4C41"/>
  <path d="M86.7,74.8 L75.2,63.5 L57.2,90.4 C55.3,92.4 55,95.5 56.8,97.8 C58.7,100.2 62.2,100.7 64.7,98.7 C65.9,97.7 66.6,96.4 66.8,94.9 L86.7,74.8 Z" fill="url(#SVGID_10_)"/>
  <path d="M91.5,97.2 L101.9,95.8 L95.7,63 L82.3,68.5 Z" fill="url(#SVGID_11_)"/>
  <path d="M71.6,38.2 L76.1,36.9 L91.7,35.5 L97.2,36.5 C99.2,36.9 100.5,38.7 100.3,40.7 L96.7,68.4 L86.4,78 C85.3,79 83.6,78.9 82.6,77.9 L72.5,67.4 L68.7,42.7 C68.4,40.8 69.6,38.8 71.6,38.2 Z" fill="url(#SVGID_12_)"/>
  <path d="M38,49 L38,49.3 C37.8,51.8 39.7,53.9 42.2,54.1 L43.3,54.2 C45.8,54.4 47.9,52.5 48.1,50 L48.1,49.7 C48.3,47.2 46.4,45.1 43.9,44.9 L42.8,44.8 C40.3,44.6 38.2,46.5 38,49 Z" fill="#CFD8DC"/>
  <path d="M48,50.2 L48,49.6 C48.2,47.2 46.4,45.1 44,45 L42.6,44.9 C41.8,44.8 41.1,45 40.4,45.3 C40.5,45.3 41.6,45 42.4,45.7 C43.1,46.3 42.4,46.5 43.1,47.3 C43.6,47.8 44.1,47 45.2,47.6 C45.7,47.9 45.6,48.4 45.7,49.1 C45.7,49.6 46.6,49.4 46.4,50.5 C46.3,51.3 45.6,52.5 45.6,52.5 C45.6,52.5 46,53 46.7,52.7 C47.5,51.9 47.9,51.3 48,50.2 Z" fill="#B0BEC5"/>
  <path d="M67.2,122.3 L60.9,122.3 C60.4,122.3 60,122 59.9,121.5 L55,96.3 C54.2,94 54.8,91.5 56.5,89.7 L71.5,67.3 L67.8,42.9 C67.4,40.4 68.9,38 71.3,37.2 L75.8,35.9 C75.9,35.9 75.9,35.9 76,35.9 L91.6,34.5 C91.7,34.5 91.8,34.5 91.9,34.5 L97.4,35.5 C99.9,36 101.6,38.3 101.3,40.8 L97.8,68.2 L103,95.5 C103,95.6 103,95.6 103,95.7 L103.9,119.5 C103.9,119.8 103.8,120 103.6,120.2 C103.4,120.4 103.2,120.5 102.9,120.5 L96.7,120.5 C96.2,120.5 95.8,120.2 95.7,119.7 L90.5,97.3 L84.8,79.5 C84.3,79.5 83.9,79.5 83.4,79.3 L67.8,95.3 L68.1,121.3 C68.1,121.6 68,121.8 67.8,122 C67.6,122.2 67.4,122.3 67.2,122.3 L67.2,122.3 Z M61.7,120.3 L66.1,120.3 L65.8,94.9 C65.8,94.6 65.9,94.4 66.1,94.2 L82.5,77.6 C82.8,77.3 83.3,77.2 83.7,77.4 C84.1,77.6 84.7,77.7 85.1,77.5 C85.3,77.4 85.6,77.4 85.9,77.5 C86.2,77.6 86.3,77.8 86.4,78.1 L92.4,96.8 L97.4,118.5 L101.7,118.5 L100.9,95.8 L95.7,68.4 C95.7,68.3 95.7,68.2 95.7,68.1 L99.2,40.6 C99.4,39.2 98.4,37.8 97,37.5 L91.6,36.5 L76.2,37.9 L71.8,39.1 C70.3,39.6 69.4,41 69.7,42.6 L73.4,67.1 C73.5,67.4 73.5,67.8 73.3,68 L58.1,90.9 C58,91 58,91 58,91.1 C56.8,92.3 56.4,94.1 56.9,95.8 L56.9,95.9 C56.9,95.9 61.7,120.3 61.7,120.3 Z" fill="#90A4AE"/>
  <path d="M59.9,116.6 L52.6,118.5 C51.7,118.8 50.9,119.5 50.6,120.4 C50.2,121.6 51.1,122.9 52.4,122.9 L67.1,122.9 L67.1,116.5 C67.2,116.6 59.9,116.6 59.9,116.6 Z" fill="url(#SVGID_13_)"/>
  <path d="M102.7,114.8 L106.7,119.3 C107,119.6 107.1,120 107.1,120.4 L107.1,120.7 C107.1,121.4 106.6,122.9 105.9,122.9 L96.9,122.9 C95.1,122.9 94.3,120 94.5,118.9 L94.5,118.7 C94.7,117.4 95.7,114.7 95.7,114.7 L102.7,114.8 L102.7,114.8 Z" fill="url(#SVGID_14_)"/>
  <path d="M82.7,5.6 C82.7,5.6 75.7,5.9 73.3,12.9 C71.2,19.3 69.9,30.6 78.5,32.3 C78.5,32.3 84.1,31.3 86.6,20.4 C89.5,7.7 82.7,5.6 82.7,5.6 Z" fill="#37474F" opacity="0.87"/>
  <path d="M85.9,25 C85.9,25 83.6,31.4 79.5,32.3 C78.2,32.6 76.3,31.7 76.3,31.7 L76.6,36.7 L74.7,37.4 L77,38 C78.9,38.5 80.8,39.4 82.2,40.8 C83.2,41.7 84.5,42.2 85.9,42.1 C87.6,41.9 89.9,41.1 91.4,38.1 C94,32.8 93.2,25.1 93.2,25.1 L85.9,25 L85.9,25 Z" fill="#CFD8DC"/>
  <path d="M87.3,20.6 L96.5,20.6 C96.5,20.6 96.1,24.7 94.4,27.9 C93.6,29.5 91.9,30.3 90.4,30.3 L84.4,30.3 L87.3,20.6 Z" fill="#B0BEC5"/>
  <path d="M76.4,35 C76.4,35 79.4,35.8 82.2,35.5 C85.1,35.2 87.8,31.9 89.1,25.1 L85,25.1 C85,25.1 82.8,31.6 79.6,32 C77,32.2 76.2,32 76.2,32 L76.4,35 Z" fill="#B0BEC5"/>
  <path d="M85.8,12.8 C85.9,15.8 85.7,18.3 85.3,20.6 L96.5,20.6 C98.1,9.7 94.4,7 89.6,6 C86,5.2 82.5,5.7 82.5,5.7 C82.5,5.7 85.6,7.4 85.8,12.8 Z" fill="#78909C"/>
  <path d="M122,27.8 C122.6,27.5 121.7,31.5 121.3,32.7 C120.8,33.8 120.6,35.4 118.5,35.9 C118.451,35.912 118.4,35.922 118.349,35.931 L118.5,35.1 L114.1,34.4 L113.99,35.062 C113.539,34.86 113.185,34.659 113,34.5 C112.3,33.9 110.4,30.9 110.4,30.9 C110.4,30.9 110.2,28 110.1,27.5 C109.9,26.5 111.2,26.4 111.8,26.8 C112.3,27.1 112.8,27.6 112.9,28.2 C112.9,28.8 113,29.2 113.2,29.4 C113.3,29.3 113.3,29.2 113.4,29.1 C114,28 114.2,26.5 114.2,26.5 C114.2,26.5 119,26.3 122,27.8 Z" fill="url(#SVGID_17_)"/>
  <path d="M122.207,26.789 Q122.375,26.814 122.542,26.898 Q122.927,27.09 123.092,27.515 Q123.208,27.818 123.2,28.288 Q123.19,28.861 123.009,29.864 Q122.67,31.753 122.249,33.016 Q122.232,33.066 122.21,33.114 Q122.137,33.276 121.99,33.665 Q121.116,35.982 119.306,36.693 C118.875,36.566 118.3,36.2 118.3,36.2 L118.5,35.1 L117.782,34.986 Q118.051,34.978 118.271,34.927 Q119.486,34.637 120.119,32.959 Q120.27,32.558 120.366,32.338 Q120.733,31.223 121.041,29.511 Q121.15,28.904 121.184,28.521 Q118.747,27.437 115.043,27.478 Q114.788,28.644 114.278,29.579 Q114.235,29.657 114.179,29.726 Q114.062,29.952 113.907,30.107 Q113.2,30.814 112.493,30.107 Q111.925,29.539 111.901,28.307 Q111.808,27.971 111.286,27.657 Q111.265,27.645 111.245,27.632 Q111.189,27.595 111.124,27.581 Q111.224,28.352 111.38,30.578 Q113.087,33.257 113.651,33.741 Q114.134,34.155 115.664,34.618 Q115.783,34.654 115.897,34.686 L114.1,34.4 L113.9,35.6 C113.9,35.6 112.6,35.4 112.4,35.2 C111.7,34.6 109.8,31.6 109.8,31.6 C109.8,31.6 109.338,28.885 109.072,27.363 Q108.969,26.038 110.392,25.659 Q111.45,25.377 112.334,25.954 Q112.83,26.255 113.172,26.618 Q113.192,26.495 113.209,26.368 Q113.32,25.536 114.158,25.501 Q119.03,25.298 122.207,26.789 Z" fill="#95A9B3"/>
  <path d="M112.4,23.6 C112.8,23.5 113.6,23.5 113.8,24.1 C114.1,23.4 114.6,23 115.3,23.1 C116.1,23.2 116.5,24 116.5,24 C117.1,23.3 117.6,23.1 118.3,23.3 C119.5,23.7 119.9,24.6 119.9,24.6 C120.5,24 121.3,24.2 121.8,24.7 C122.5,25.3 122.5,26 122.2,26.7 L120.9,28.8 C120.3,29.3 119.6,29.6 119,29.2 C118.7,29 118.6,28.7 118.5,28.4 C118.1,28.7 117.7,28.8 117.2,28.7 C116.4,28.5 115.8,28.1 116,27.3 C116,27.3 115.5,27.7 114.9,27.5 C114.3,27.3 114.1,27 114,26.4 C113.8,26.8 113.2,27 112.8,26.9 C112.1,26.8 111.7,26.3 111.6,25.6 L111.5,25.2 C111.2,24.4 111.7,23.9 112.4,23.6 Z" fill="url(#SVGID_18_)"/>
  <path d="M112.279,23.115 Q113.219,22.88 113.746,23.213 Q114.36,22.461 115.371,22.605 Q116.104,22.697 116.579,23.225 Q117.438,22.534 118.437,22.819 Q118.448,22.822 118.458,22.826 Q119.495,23.171 120.034,23.859 Q121.055,23.258 122.14,24.333 Q123.32,25.357 122.66,26.897 Q122.645,26.931 122.625,26.963 L121.325,29.063 Q121.282,29.132 121.22,29.184 Q119.822,30.349 118.723,29.616 Q118.46,29.441 118.264,29.102 Q117.718,29.314 117.102,29.19 Q117.09,29.188 117.079,29.185 Q116.278,28.985 115.871,28.579 Q115.632,28.339 115.532,28.052 Q115.154,28.112 114.742,27.974 Q114.14,27.774 113.822,27.309 Q113.364,27.55 112.704,27.391 Q111.333,27.182 111.109,25.697 L111.021,25.347 Q110.488,23.875 112.203,23.14 Q112.24,23.125 112.279,23.115 Z M112.56,24.076 Q111.748,24.438 111.968,25.024 Q111.978,25.051 111.985,25.079 L112.085,25.479 Q112.091,25.504 112.095,25.529 Q112.207,26.31 112.871,26.405 Q112.896,26.409 112.921,26.415 Q113.377,26.529 113.553,26.176 Q113.667,25.949 113.918,25.907 Q114.164,25.866 114.308,25.968 Q114.452,26.071 114.493,26.318 Q114.585,26.868 115.058,27.026 Q115.4,27.14 115.688,26.91 Q115.881,26.755 116.121,26.815 Q116.364,26.876 116.455,27.027 Q116.546,27.179 116.485,27.421 Q116.414,27.707 116.579,27.871 Q116.787,28.079 117.309,28.212 Q117.794,28.304 118.2,28 Q118.265,27.951 118.342,27.926 Q118.816,27.768 118.974,28.242 Q119.12,28.679 119.277,28.784 Q119.738,29.091 120.519,28.466 L121.754,26.47 Q122.103,25.618 121.475,25.08 Q121.46,25.067 121.446,25.054 Q121.164,24.771 120.832,24.734 Q120.509,24.698 120.254,24.954 Q120.188,25.019 120.103,25.057 Q119.646,25.26 119.443,24.803 Q119.134,24.108 118.153,23.778 Q117.502,23.599 116.88,24.325 Q116.814,24.402 116.724,24.447 Q116.276,24.671 116.053,24.224 Q115.772,23.663 115.229,23.595 Q114.599,23.505 114.26,24.297 Q114.171,24.503 113.958,24.574 Q113.484,24.732 113.326,24.258 Q113.214,23.923 112.56,24.076 Z" fill="#95A9B3"/>
  <path d="M113.271,29.005 Q114.386,29.164 115.1,29.7 Q116,30.375 116,32 Q116,32.5 115.5,32.5 Q115,32.5 115,32 Q115,30.875 114.5,30.5 Q113.991,30.118 113.129,29.995 Q112.634,29.924 112.705,29.429 Q112.74,29.182 112.882,29.076 Q113.023,28.97 113.271,29.005 Z" fill="#95A9B3"/>
  <path d="M67.2,124 L52.4,124 C51.4,124 50.6,123.6 50,122.8 C49.5,122 49.3,121.1 49.6,120.2 C50,119 51,118 52.3,117.6 L59.7,115.7 C59.8,115.7 59.9,115.7 59.9,115.7 L67.1,115.7 C67.7,115.7 68.1,116.1 68.1,116.7 L68.1,123.1 C68.2,123.6 67.7,124 67.2,124 Z M60.1,117.6 L52.9,119.5 C52.3,119.7 51.8,120.2 51.6,120.8 C51.5,121.1 51.6,121.4 51.7,121.6 C51.9,121.8 52.2,122 52.5,122 L66.2,122 L66.2,117.6 C66.2,117.6 60.1,117.6 60.1,117.6 Z" fill="#8698A1"/>
  <path d="M105.8,124 L96.8,124 C96,124 95.3,123.6 94.7,122.9 C93.7,121.8 93.3,119.9 93.4,118.8 L93.4,118.6 C93.6,117.2 94.6,114.5 94.6,114.4 C94.7,114 95.1,113.7 95.5,113.7 L102.6,113.7 C102.9,113.7 103.2,113.8 103.4,114 L107.4,118.5 C107.8,119 108.1,119.7 108.1,120.3 L108.1,120.6 C108.1,121.7 107.4,124 105.8,124 Z M96.3,115.8 C96,116.7 95.5,118.2 95.4,119 L95.4,119.2 C95.3,119.6 95.6,121 96.2,121.7 C96.5,122.1 96.8,122.1 96.8,122.1 L105.6,122.1 C105.8,121.9 106,121.2 106,120.9 L106,120.6 C106,120.4 105.9,120.3 105.8,120.1 L102.1,115.9 C102.2,115.8 96.3,115.8 96.3,115.8 Z" fill="#8698A1"/>
  <path d="M85.1,6.5 C86.7,6.5 88.1,6.7 89.4,6.9 C93.1,7.7 96.8,9.5 95.6,19.6 L86,19.6 C86.3,17.1 86.6,13.4 85.9,10.7 C85.4,8.7 84.8,7.4 84.3,6.5 C84.6,6.5 84.9,6.5 85.1,6.5 M85.1,5.5 C83.6,5.5 82.5,5.6 82.5,5.6 C82.5,5.6 84,6.8 85,11 C85.7,13.6 85.4,17.4 84.9,20.6 L96.5,20.6 C98.1,9.7 94.4,7 89.7,6 C88,5.6 86.4,5.5 85.1,5.5 Z" fill="#607C8A"/>
  <path d="M82.4,5.7 C82.4,5.7 83.5,5.5 84.3,5.5 C84.3,5.5 86,6 87,8.5 C88,11.1 88.5,14.5 87.3,20.6 C86.1,26.8 84.4,29.6 82.2,31.6 C80,33.6 76.3,33 76.3,33 L75.6,31.2 C75.6,31.2 77.8,31.5 79.3,30.7 C80.9,29.9 84.1,25.4 84.9,20.4 C85.5,17.2 85.6,13.3 84.9,10.2 C84.2,7.1 82.4,5.7 82.4,5.7 Z" fill="#CFD8DC"/>
  <path d="M85.5,43 C84.1,43 82.7,42.5 81.6,41.5 C80.2,40.3 78.6,39.4 76.8,39 L74.5,38.4 C74.1,38.3 73.8,37.9 73.8,37.5 C73.8,37.1 74.1,36.7 74.5,36.5 L75.7,36.1 L75.7,35.4 C75.7,35.3 75.7,35.2 75.6,35.1 L75.5,33.2 L75,31.9 C69.7,28.2 70.3,19.3 72.5,12.7 C75,5.1 82.7,4.7 82.8,4.7 L82.9,4.7 C83.4,4.6 84,4.6 84.5,4.6 C84.6,4.6 84.7,4.6 84.7,4.6 C86,4.6 88,4.6 90,5.1 C94.7,6.2 99.3,8.8 97.7,20.7 L97.7,20.8 C97.7,21 97.3,25.1 95.5,28.5 C95.2,29 94.8,29.5 94.4,30 L94.3,30.1 C94.1,33.5 93.5,36.4 92.4,38.6 C90.7,42 88.1,42.9 86.1,43.1 C85.8,43 85.6,43 85.5,43 L85.5,43 Z M77.5,37.1 C79.5,37.6 81.3,38.6 82.8,40 C83.6,40.8 84.7,41.1 85.7,41 C87.8,40.8 89.4,39.7 90.4,37.6 C91.4,35.6 92,32.8 92.2,29.6 C92.2,29.4 92.3,29.2 92.4,29.1 L92.5,28.9 C92.6,28.8 92.6,28.8 92.7,28.7 C92.8,28.6 92.8,28.6 92.9,28.5 C93.2,28.2 93.5,27.9 93.7,27.5 C95.1,24.8 95.5,21.4 95.6,20.7 C95.6,20.6 95.6,20.6 95.6,20.5 C97.2,9.7 93.3,7.9 89.5,7 C87.6,6.6 85.8,6.5 84.6,6.6 C84.5,6.6 84.4,6.6 84.4,6.6 C83.9,6.6 83.3,6.7 83,6.7 C82.9,6.7 82.8,6.7 82.8,6.7 C81.9,6.8 76.4,7.4 74.5,13.3 C72.9,18.2 71.5,27.2 76.4,30.4 C76.6,30.5 76.7,30.7 76.8,31 L77.5,32.6 C77.5,32.7 77.6,32.8 77.6,32.9 L77.7,34.7 C77.7,34.8 77.7,34.9 77.8,34.9 L77.9,36.6 C77.6,36.8 77.6,36.9 77.5,37.1 Z" fill="#90A4AE"/>
  <path d="M43.7,54.3 C43.6,54.3 43.4,54.3 43.3,54.3 L42.1,54.2 C39.1,54 36.8,51.3 37,48.3 L37,47.9 C37.1,46.4 37.8,45.1 38.9,44.1 C40,43.1 41.4,42.7 42.9,42.8 L44.1,42.9 C47.1,43.1 49.4,45.8 49.2,48.8 L49.2,49.2 C49.1,50.7 48.4,52 47.3,53 C46.3,53.8 45,54.3 43.7,54.3 Z M39.1,48 L39.1,48.4 C39,50.3 40.4,52 42.3,52.1 L43.5,52.2 C45.4,52.3 47.1,50.9 47.2,49 L47.2,48.6 C47.3,46.7 45.9,45 44,44.9 L42.8,44.8 C41.9,44.7 41,45 40.3,45.6 C39.6,46.3 39.1,47.1 39.1,48 Z" fill="#95A9B3"/>
  <path d="M46.3,48.4 C46.5,47.5 47.1,47.3 47.7,47.5 L51.2,47.9 C51.9,48.1 52.4,48.9 52.2,49.8 C52,50.7 51.3,51.2 50.6,51 L47.2,50 C46.7,49.9 46.1,49.3 46.3,48.4 Z" fill="#FFB300"/>
  <path d="M46.012,48.484 Q46.124,47.803 46.64,47.368 Q47.198,46.898 47.868,47.005 L51.398,47.408 L51.437,47.419 Q53.228,47.931 52.788,49.908 Q52.599,50.761 51.985,51.215 Q51.334,51.695 50.577,51.485 L47.011,50.67 L46.943,50.629 Q45.592,49.819 46.012,48.484 Z M46.995,48.671 L46.974,48.758 Q46.783,49.332 47.394,49.731 L50.824,50.516 L50.837,50.519 Q51.13,50.603 51.39,50.41 Q51.704,50.179 51.812,49.692 Q52.042,48.656 51.199,48.392 L47.73,47.995 L47.718,47.993 Q47.494,47.956 47.285,48.132 Q47.043,48.336 46.995,48.671 Z" fill="#E69200"/>
</svg>