<svg viewBox="0 0 128 128" xmlns="http://www.w3.org/2000/svg">
  <defs/>
  <path d="M51.09,24.81 C51.09,24.81 40.11,22.3 31.19,26.05 C22.83,29.57 21.64,36.28 22.39,40.13 C23.14,43.98 25.56,47.35 30.41,47.66 C33.72,47.87 34.84,45.97 34.38,45.17 C34.14,44.76 30.63,42.54 32.24,39.77 C33.59,37.46 38.14,39.59 39.44,41.6 C40.66,43.48 42.26,46.2 42.26,46.2 C42.26,46.2 56.06,40.29 55.77,39.91 C55.48,39.53 51.09,24.81 51.09,24.81 Z" fill="#E74B8C"/>
  <path d="M50.43,32.51 L46.11,28.66 L39.03,37.25 L43.06,43.53 L53.34,39.03 Z" fill="#FCD817"/>
  <path d="M28.85,36.26 C28.31,37.85 28.79,40.4 26.79,40.62 C24.73,40.85 23.24,38.36 24.49,34.38 C25.57,30.95 29.83,28.91 31.48,31.71 C32.69,33.77 29.83,33.35 28.85,36.26 Z" fill="#EF7FAD"/>
  <path d="M38.84,21.01 C38.56,21.48 33.68,28.66 33.68,28.66 L38.37,36.12 L44,33.26 L45.17,27.58 L38.84,21.01 Z" fill="#BBD047"/>
  <path d="M33.49,15.52 L29.22,20.91 L33.4,28.19 L37.29,26.26 L39.08,21.15 Z" fill="#62A5A8"/>
  <path d="M27.67,9.65 L24.72,12.75 L29.08,20.59 L31.57,18.76 L33.3,15.28 Z" fill="#38B2E8"/>
  <path d="M22.04,5.76 C21.03,6.77 24.71,12.71 24.71,12.71 C24.71,12.71 27.43,9.61 27.43,9.43 C27.44,9.23 23.21,4.58 22.04,5.76 Z" fill="#A37BCB"/>
  <path d="M45.18,27.2 C46.54,26.82 47.48,29.36 46.26,31.94 C45.17,34.24 43.59,36.02 41.47,37.2 C40.42,37.78 38.84,38.42 38.23,37.29 C37.57,36.08 38.32,35.46 39.64,34.52 C40.85,33.65 42.08,32.36 42.78,31.14 C43.48,29.92 44.16,27.48 45.18,27.2 Z" fill="#A364B2"/>
  <path d="M38.7,20.4 C39.8,20.08 40.62,22.28 39.63,24.49 C38.75,26.46 37.66,28.03 35.96,29.04 C35.12,29.54 33.84,30.09 33.35,29.12 C32.82,28.08 33.32,27.35 34.38,26.54 C35.36,25.8 36.21,24.44 36.77,23.4 C37.34,22.36 37.88,20.64 38.7,20.4 Z" fill="#A364B2"/>
  <path d="M33.09,14.4 C34,14.65 34.64,16.26 33.82,17.91 C33.09,19.38 32.38,20.16 30.96,20.91 C30.25,21.28 29.43,21.75 28.98,21.19 C28.41,20.49 28.2,19.49 29.09,18.89 C29.91,18.34 30.83,17.67 31.44,16.5 C31.85,15.69 32.25,14.17 33.09,14.4 Z" fill="#A364B2"/>
  <path d="M27.07,8.84 C27.69,8.69 28.45,9.99 27.9,11.03 C27.41,11.96 26.78,12.55 25.82,13.03 C25.35,13.27 24.82,13.41 24.54,12.96 C24.24,12.47 23.96,12.13 24.56,11.75 C25.11,11.4 25.88,10.61 26.2,10.11 C26.52,9.62 26.61,8.96 27.07,8.84 Z" fill="#A364B2"/>
  <path d="M50.28,119.9 C49.27,119.23 54.28,101.81 56.25,97.17 C58.22,92.52 59.39,88.63 59.39,88.63 C59.39,88.63 49.96,90.08 43.86,90.13 C39.21,90.17 32.46,89.57 32.46,89.57 L18.94,71.83 C18.94,71.83 22.74,64.93 24.99,62.12 C27.24,59.3 34,50.15 37.38,46.92 C40.76,43.68 45.4,40.3 47.38,39.46 C49.35,38.62 50.62,38.05 50.62,38.05 C50.62,38.05 49.63,32 50.06,28.2 C50.48,24.4 55.87,13.79 56.72,13.79 C57.85,13.79 62.73,21.02 63.71,25.94 C64.7,30.86 75.4,44.66 75.4,44.66 L106.65,103.79 C106.65,103.79 107.21,119.56 107.07,120.12 C106.93,120.68 89.61,123.08 79.05,123.08 C68.49,123.08 51.13,120.47 50.28,119.9 Z" fill="#DFDFDF"/>
  <path d="M71.57,69.38 C70.53,69.33 67.56,75.28 64.58,79.66 C62.07,83.34 59.13,85.11 55.99,86.75 C52.75,88.44 47.94,89.54 49.58,89.87 C51.22,90.2 61.01,89.11 64.29,87.73 C66.14,86.96 68.72,83.15 70.04,80.62 C71.36,78.09 73.73,69.47 71.57,69.38 Z" fill="#B0B0B0"/>
  <path d="M53.79,57.94 C54,61.04 52.87,63.71 49.64,63.92 C47.36,64.07 45.65,61.76 45.36,58.94 C45.13,56.74 46.05,53.9 49.06,53.48 C51.89,53.08 53.59,55.11 53.79,57.94 Z" fill="#303030"/>
  <path d="M63.57,25.98 C63.57,25.98 72.06,29.8 75.33,29.08 C77.86,28.52 78.74,26.69 78.85,24.86 C78.99,22.4 76.81,22.68 76.46,21.69 C76.11,20.7 78.71,18.94 81.74,19.51 C84.77,20.07 88.38,22.87 88.31,27.37 C88.24,31.87 85.47,34.29 85.47,34.29 C85.47,34.29 92.77,33.94 97.65,38.94 C103.14,44.57 101.94,53.79 101.94,53.79 C101.94,53.79 104.83,54.21 105.88,52.73 C106.93,51.25 106.65,49.56 105.95,48.58 C105.25,47.59 107.29,46.96 108.62,47.52 C109.96,48.08 116.14,52.51 112.78,59.66 C110.7,64.1 105.45,64.77 105.45,64.77 C105.45,64.77 114.25,68.66 117.47,78.47 C121.01,89.27 117.14,96.45 113.13,103.34 C109.12,110.24 109.48,110.65 109.26,112.91 C108.98,115.73 108.13,119.25 107.08,119.17 C106.02,119.1 104.76,116.14 104.12,112.91 C103.49,109.67 99.54,106.5 96.38,103.62 C93.22,100.74 85.28,93.13 83,86.17 C80.11,77.37 81.59,65.12 81.59,65.12 C81.59,65.12 72.86,61.11 68,53.08 C62.74,44.39 63.21,38.02 63.21,38.02 C63.21,38.02 64.55,34.22 64.62,31.61 C64.69,29 63.57,25.98 63.57,25.98 Z" fill="#E74B8C"/>
  <path d="M77.3,32.04 C77.91,34.66 82.72,33.31 83.64,28.87 C84.56,24.43 82.02,22.46 80.54,23.31 C79.06,24.15 80.89,26.41 79.91,28.31 C78.93,30.21 76.8,29.92 77.3,32.04 Z" fill="#F081AF"/>
  <path d="M101.7,57.6 C100.86,60.16 105.25,61.05 108.69,58.29 C112.22,55.45 111.22,51.25 109.18,51.46 C106.59,51.73 107.69,54.66 105.86,55.77 C104.03,56.89 102.38,55.55 101.7,57.6 Z" fill="#F081AF"/>
  <path d="M71.74,35.34 C68.36,34.92 67.89,41.51 69.98,46.04 C73.29,53.22 78.78,51.88 82.58,56.53 C85.52,60.13 84.83,64.77 87.86,64.7 C90.89,64.63 91.66,59.56 87.02,53.37 C82.37,47.18 76.53,47.18 74.77,43.45 C73,39.71 75.68,35.84 71.74,35.34 Z" fill="#F081AF"/>
  <path d="M88.91,67.23 C85.04,69.44 87.8,74.45 89.9,74.9 C92.86,75.53 94.19,73.56 94.55,71.59 C94.91,69.62 92.85,64.98 88.91,67.23 Z" fill="#F081AF"/>
  <path d="M91.87,79.13 C88.81,79.63 89.15,82.7 89.69,85.82 C90.61,91.17 93.42,96.31 96.73,99.05 C99.93,101.7 101.73,100.88 102.64,99.82 C103.72,98.58 102.71,96.37 101.44,94.89 C100.17,93.41 98.53,91.51 97.43,89.89 C96.09,87.92 95.93,85.36 95.67,83.91 C95.18,81.1 94.89,78.63 91.87,79.13 Z" fill="#F081AF"/>
  <path d="M11.34,93.28 C14.44,99.13 21.69,97.64 21.69,97.64 C21.69,97.64 28.52,94.54 28.52,94.33 C28.52,94.12 33.02,88.42 33.02,88.42 C33.02,88.42 31.82,83.28 27.18,77.65 C23.51,73.21 19.65,71.03 19.65,71.03 L11.2,78.63 C11.2,78.63 6.98,85.04 11.34,93.28 Z" fill="#FFFFFF"/>
  <path d="M16.9,77.86 C16.41,79.69 18.03,80.39 18.59,81.03 C19.15,81.66 17.82,84.34 19.72,85.04 C21.62,85.74 23.8,82.58 23.1,79.83 C22.34,76.89 17.64,75.12 16.9,77.86 Z" fill="#90909B"/>
  <path d="M20.49,70.8 C20,69.86 18.92,70.33 17.86,71.32 C16.8,72.31 10.82,76.67 9.13,80.66 C7.89,83.59 7,89.24 10.22,93.84 C13.56,98.62 16.56,99.08 21.13,98.7 C27.82,98.14 31.52,92.65 32.23,91.73 C32.94,90.81 34.48,88.82 33.64,87.84 C32.8,86.85 32.01,88.28 30.92,89.76 C29.51,91.66 28.39,92.81 26.98,94.08 C26.16,94.82 23.81,96.1 22.83,96.31 C21.84,96.52 24.78,94.83 25.93,92.86 C26.71,91.53 28.32,88.36 28.32,88.36 L25.57,87.52 C25.57,87.52 24.23,90.43 23.18,91.7 C22.12,92.97 18.82,95.83 17.83,96.04 C16.84,96.25 13.11,94.59 11.45,91.61 C9.85,88.75 9.6,84.64 11.22,81.4 C12.84,78.16 16.92,74.85 18.19,73.87 C19.44,72.86 21.12,72 20.49,70.8 Z" fill="#AFAFAF"/>
  <path d="M28.52,85.63 C27.76,84.97 26.5,85.44 25.85,86.33 C25.19,87.22 24.96,88.25 26.27,88.96 C27.58,89.66 28.43,88.91 29.04,88.07 C29.64,87.22 29.22,86.24 28.52,85.63 Z" fill="#90909B"/>
</svg>