<svg viewBox="0 0 128 128" xmlns="http://www.w3.org/2000/svg">
  <defs>
    <radialGradient id="g" cx="5.801" cy="-144.346459" gradientTransform="matrix(0 1 -0.442 0 0 0)" gradientUnits="userSpaceOnUse" r="115.53">
      <stop offset=".2457" stop-color="#5C4037"/>
      <stop offset=".6884" stop-color="#70534A"/>
      <stop offset=".9991" stop-color="#5C4037"/>
    </radialGradient>
    <radialGradient id="f" cx="65.168" cy="85.312" gradientUnits="userSpaceOnUse" r="26.794">
      <stop offset=".3" stop-color="#70534A" stop-opacity=".8"/>
      <stop offset="1" stop-color="#70534A" stop-opacity="0"/>
    </radialGradient>
    <radialGradient id="e" cx="52.571211" cy="-224.13353" fx="58.380211" fy="-251.49353" gradientTransform="matrix(-0.0699 0.9347 -0.3356 -0.0192 0 0)" gradientUnits="userSpaceOnUse" r="27.969">
      <stop offset=".6064" stop-color="#70534A"/>
      <stop offset=".9991" stop-color="#5C4037"/>
    </radialGradient>
    <radialGradient id="d" cx="67.627476" cy="-109.997282" gradientTransform="matrix(0.1233 0.9292 -0.3952 0.0436 0 0)" gradientUnits="userSpaceOnUse" r="20.902">
      <stop offset=".6064" stop-color="#70534A"/>
      <stop offset=".9991" stop-color="#5C4037"/>
    </radialGradient>
    <radialGradient id="a" cx="107.519943" cy="87.023551" gradientTransform="matrix(0.7905 0.0898 -0.0981 0.8635 0 0)" gradientUnits="userSpaceOnUse" r="26.301">
      <stop offset="0" stop-color="#70534A"/>
      <stop offset=".9991" stop-color="#5C4037"/>
    </radialGradient>
  </defs>
  <path d="M64.33,120.29 C43.49,120.29 29,104.97 29,83.02 L29,66.22 L26.95,35.29 C26.79,33.01 27.28,30.91 28.38,29.37 C29.51,27.8 31.16,26.89 33.19,26.75 C33.38,26.74 33.56,26.73 33.74,26.73 C37.58,26.73 40.27,29.65 40.59,34.16 C40.59,34.2 40.6,34.25 40.6,34.29 L44.28,57.39 C44.4,58.11 45.02,58.65 45.75,58.65 C55.23,58.7 67.87,59.89 78.74,61.74 C78.82,61.75 78.91,61.76 78.99,61.76 C79.31,61.76 79.62,61.66 79.88,61.47 C80.21,61.23 80.42,60.86 80.47,60.45 L86.18,15.22 C86.18,15.18 86.19,15.15 86.19,15.11 C86.43,10.61 89.07,7.69 92.9,7.69 C93.04,7.69 93.19,7.69 93.33,7.7 C95.32,7.81 96.97,8.67 98.09,10.18 C99.19,11.67 99.73,13.72 99.61,15.95 L95.87,66.18 C95.84,66.6 95.99,67.02 96.28,67.32 C101.34,72.64 103.41,86.37 97.88,99.27 C94.53,107.14 85.72,120.29 64.33,120.29 Z" fill="url(#g)"/>
  <path d="M92.91,9.21 C93.02,9.21 93.14,9.21 93.26,9.22 C97.1,9.43 98.28,12.93 98.13,15.87 L94.39,66.1 C94.33,66.94 94.62,67.78 95.21,68.39 C97.61,70.92 99.2,75.46 99.57,80.86 C99.97,86.79 98.88,93.13 96.49,98.71 C93.27,106.21 84.8,118.8 64.27,118.8 C54.17,118.8 45.39,115.2 39.24,108.4 C33.4,101.93 30,92.92 30,83.02 L30,66.22 C30,66.16 30.18,66.09 30.18,66.03 L28.29,35.18 C28.06,31.92 29.53,28.51 33.24,28.25 C33.39,28.24 33.57,28.23 33.72,28.23 C37.36,28.23 38.89,31.48 39.08,34.27 C39.09,34.36 39.1,34.45 39.12,34.53 L42.8,57.63 C43.03,59.08 44.28,60.15 45.75,60.16 C55.15,60.21 67.7,61.39 78.5,63.23 C78.67,63.26 78.84,63.27 79.01,63.27 C79.65,63.27 80.28,63.07 80.8,62.68 C81.46,62.19 81.89,61.46 81.99,60.65 L87.7,15.41 C87.71,15.34 87.72,15.27 87.72,15.2 C87.85,12.44 89.31,9.21 92.91,9.21 M92.91,6.21 C88.05,6.21 84.98,10.07 84.71,15.04 L79,60.28 C68.88,58.55 56.09,57.22 45.76,57.17 L42.08,34.07 C41.73,29.07 38.59,25.24 33.73,25.24 C33.51,25.24 33.29,25.25 33.06,25.26 C27.83,25.63 24.82,30.16 25.19,35.39 L27,66.22 L27,83.02 C27,104.34 41.09,121.79 64.08,121.79 C103.34,121.79 108.62,78.23 97.29,66.32 L101.08,16.06 C101.36,10.91 98.55,6.51 93.4,6.22 C93.23,6.21 93.08,6.21 92.91,6.21 Z" fill="#4A2F27"/>
  <path d="M95.48,85.31 A30.31 22.74 0 1 1 34.86,85.31 A30.31 22.74 0 1 1 95.48,85.31 Z" fill="url(#f)" opacity="0.4"/>
  <path d="M83.39,86.17 C79.68,85.08 75.6,84.69 72.02,86.43 C68.32,88.23 66.45,91.85 64.96,95.49 C64.23,97.28 67.13,98.05 67.85,96.29 C69.08,93.29 70.65,90.24 73.81,88.94 C76.66,87.76 79.72,88.22 82.59,89.07 C84.45,89.61 85.24,86.72 83.39,86.17 Z" fill="#4A2F27"/>
  <path d="M69.86,81.21 C69.67,81.21 69.47,81.2 69.28,81.19 C67.03,81.05 64.95,80.06 63.59,78.48 C62.45,77.17 61.9,75.54 62.03,73.91 L63.55,54.99 C63.84,51.43 67.27,48.64 71.36,48.64 C71.55,48.64 71.75,48.65 71.94,48.66 C74.19,48.8 76.27,49.79 77.63,51.37 C78.77,52.68 79.32,54.31 79.19,55.94 L77.67,74.86 C77.39,78.42 73.96,81.21 69.86,81.21 Z" fill="url(#e)"/>
  <path d="M71.36,50.14 C71.52,50.14 71.68,50.15 71.84,50.16 C73.7,50.28 75.39,51.08 76.5,52.35 C77.12,53.06 77.82,54.24 77.7,55.82 L76.18,74.74 C75.96,77.53 73.18,79.71 69.86,79.71 C69.7,79.71 69.54,79.7 69.38,79.69 C67.52,79.57 65.83,78.77 64.72,77.5 C64.1,76.79 63.4,75.61 63.52,74.03 L65.04,55.11 C65.27,52.33 68.04,50.14 71.36,50.14 M71.36,47.14 C66.5,47.14 62.4,50.49 62.05,54.87 L60.53,73.79 C60.16,78.38 64.04,82.36 69.18,82.69 C69.41,82.7 69.63,82.71 69.86,82.71 C74.72,82.71 78.82,79.36 79.17,74.98 L80.69,56.06 C81.06,51.47 77.18,47.49 72.04,47.16 C71.81,47.15 71.59,47.14 71.36,47.14 Z" fill="#4A2F27"/>
  <path d="M53.95,80.01 C49.82,80.01 46.38,77.31 45.95,73.73 L44.07,58.2 C43.87,56.52 44.37,54.84 45.48,53.45 C46.81,51.79 48.9,50.72 51.2,50.49 C51.5,50.46 51.8,50.45 52.09,50.45 C56.22,50.45 59.66,53.15 60.09,56.73 L61.97,72.26 C62.17,73.94 61.67,75.63 60.56,77.01 C59.23,78.67 57.14,79.74 54.84,79.97 C54.54,79.99 54.25,80.01 53.95,80.01 Z" fill="url(#d)"/>
  <path d="M52.1,51.94 C55.41,51.94 58.27,54.12 58.61,56.9 L60.49,72.43 C60.69,74.06 60.01,75.31 59.4,76.06 C58.32,77.4 56.61,78.28 54.71,78.46 C54.46,78.48 54.21,78.5 53.96,78.5 C50.65,78.5 47.79,76.32 47.45,73.54 L45.57,58.01 C45.37,56.38 46.05,55.13 46.66,54.38 C47.74,53.04 49.45,52.16 51.35,51.98 C51.6,51.96 51.85,51.94 52.1,51.94 M52.1,48.94 C51.76,48.94 51.41,48.96 51.06,48.99 C45.81,49.49 42.02,53.69 42.58,58.37 L44.46,73.9 C44.99,78.27 49.13,81.5 53.95,81.5 C54.29,81.5 54.64,81.48 54.99,81.45 C60.24,80.95 64.03,76.75 63.47,72.07 L61.59,56.54 C61.06,52.18 56.91,48.94 52.1,48.94 Z" fill="#4A2F27"/>
  <path d="M98.739,79.219 C98.912,79.752 99.044,80.306 99.13,80.88 C100.28,88.57 99.29,99.84 89.89,99.08 C87.912,98.921 84.932,97.363 82.528,94.825 C82.275,94.053 82.049,93.338 81.86,92.74 C81.45,91.45 81.06,90.19 80.67,89.08 C78.76,83.59 73.44,81.54 60.37,81.25 C56.99,81.18 53.52,78.52 52.64,75.34 C52.19,73.69 52.31,71.11 53.66,69.35 C54.49,68.25 55.67,67.7 57.16,67.7 C57.4,67.7 57.66,67.71 57.92,67.74 C60.77,68.06 76.78,68.11 79.15,68.12 C85.422,70.474 94.259,74.852 98.739,79.219 Z" fill="url(#a)"/>
  <path d="M57.16,69.2 C56.14,69.2 55.41,69.53 54.84,70.26 C53.86,71.55 53.72,73.64 54.08,74.95 C54.78,77.45 57.73,79.7 60.4,79.76 C74.25,80.06 79.92,82.37 82.09,88.59 C82.49,89.73 82.88,90.98 83.3,92.29 C83.672,93.467 84.216,95.186 84.811,96.838 C82.533,95.169 80.332,92.657 79.26,89.58 C77.86,85.56 74.56,83.07 60.34,82.76 C56.38,82.67 52.26,79.6 51.2,75.74 C50.821,74.359 50.801,72.662 51.216,71.084 C51.903,68.481 53.774,66.2 57.16,66.2 C57.324,66.2 57.492,66.203 57.662,66.212 C57.803,66.221 57.945,66.234 58.09,66.25 C61.05,66.59 79.43,66.62 79.43,66.62 C79.43,66.62 89.744,70.44 96.751,75.583 C97.962,77.11 98.828,78.866 99.13,80.88 C99.192,81.297 99.249,81.726 99.297,82.162 C98.21,80.512 95.66,77.983 89.73,74.69 C85.07,72.1 80.36,70.2 78.87,69.62 C75.4,69.61 60.59,69.55 57.75,69.23 C57.55,69.21 57.35,69.2 57.16,69.2 Z" fill="#4A2F27"/>
</svg>