<svg viewBox="0 0 128 128" xmlns="http://www.w3.org/2000/svg">
  <defs>
    <radialGradient id="SVGID_1_" cx="78.5829" cy="167.243326" gradientTransform="matrix(1 0 0 0.4912 0 0)" gradientUnits="userSpaceOnUse" r="23.419">
      <stop offset="0.7275" stop-color="#444140" stop-opacity="0"/>
      <stop offset="1" stop-color="#444140"/>
    </radialGradient>
    <radialGradient id="SVGID_2_" cx="-58.732974" cy="-154.124699" gradientTransform="matrix(-0.9057 0.4238 -0.3144 -0.6719 0 0)" gradientUnits="userSpaceOnUse" r="6.9209">
      <stop offset="0.6628" stop-color="#444140"/>
      <stop offset="1" stop-color="#444140" stop-opacity="0"/>
    </radialGradient>
    <radialGradient id="SVGID_3_" cx="-65.175077" cy="94.877525" gradientTransform="matrix(-0.0746 -0.9972 0.8311 -0.0622 0 0)" gradientUnits="userSpaceOnUse" r="30.3992">
      <stop offset="0.7247" stop-color="#444140" stop-opacity="0"/>
      <stop offset="1" stop-color="#444140"/>
    </radialGradient>
    <radialGradient id="SVGID_4_" cx="-55.619679" cy="-58.30553" gradientTransform="matrix(0.0746 -0.9972 -0.8311 -0.0622 0 0)" gradientUnits="userSpaceOnUse" r="30.3992">
      <stop offset="0.7247" stop-color="#444140" stop-opacity="0"/>
      <stop offset="1" stop-color="#444140"/>
    </radialGradient>
    <radialGradient id="SVGID_5_" cx="-49.4391" cy="167.243326" gradientTransform="matrix(-1 0 0 0.4912 0 0)" gradientUnits="userSpaceOnUse" r="23.419">
      <stop offset="0.7275" stop-color="#444140" stop-opacity="0"/>
      <stop offset="1" stop-color="#444140"/>
    </radialGradient>
    <radialGradient id="SVGID_6_" cx="57.230684" cy="-80.98198" gradientTransform="matrix(0.9057 0.4238 0.3144 -0.6719 0 0)" gradientUnits="userSpaceOnUse" r="6.9209">
      <stop offset="0.6628" stop-color="#444140"/>
      <stop offset="1" stop-color="#444140" stop-opacity="0"/>
    </radialGradient>
    <linearGradient id="SVGID_7_" gradientTransform="matrix(1 0 0 -1 0 0)" gradientUnits="userSpaceOnUse" x1="64" x2="64" y1="-95.6878" y2="-123.6988">
      <stop offset="3.200000e-03" stop-color="#E3F2FD"/>
      <stop offset="0.2252" stop-color="#D6ECFC"/>
      <stop offset="0.6348" stop-color="#B4DBFB"/>
      <stop offset="1" stop-color="#90CAF9"/>
    </linearGradient>
    <linearGradient id="SVGID_8_" gradientTransform="matrix(1 0 0 -1 0 0)" gradientUnits="userSpaceOnUse" x1="64" x2="64" y1="-111.6811" y2="-93.4476">
      <stop offset="0.5" stop-color="#F5F5F5"/>
      <stop offset="1" stop-color="#DADADA"/>
    </linearGradient>
    <radialGradient id="SVGID_9_" cx="66.191294" cy="87.332846" gradientTransform="matrix(0.3076 0.9515 0.706 -0.2282 0 0)" gradientUnits="userSpaceOnUse" r="35.6328">
      <stop offset="0.6985" stop-color="#444140" stop-opacity="0"/>
      <stop offset="1" stop-color="#444140"/>
    </radialGradient>
    <radialGradient id="SVGID_10_" cx="43.653568" cy="15.72156" gradientTransform="matrix(0.8813 0.4726 0.5603 -1.045 0 0)" gradientUnits="userSpaceOnUse" r="9.3426">
      <stop offset="0.58" stop-color="#444140"/>
      <stop offset="1" stop-color="#444140" stop-opacity="0"/>
    </radialGradient>
    <radialGradient id="SVGID_11_" cx="-69.869641" cy="-12.086268" gradientTransform="matrix(-0.9378 -0.3944 -0.2182 0.5285 0 0)" gradientUnits="userSpaceOnUse" r="28.7211">
      <stop offset="0.6985" stop-color="#444140" stop-opacity="0"/>
      <stop offset="1" stop-color="#444140"/>
    </radialGradient>
    <radialGradient id="SVGID_12_" cx="43.5288" cy="-10.401875" gradientTransform="matrix(1 0 0 -1.2233 0 0)" gradientUnits="userSpaceOnUse" r="8.5755">
      <stop offset="0.7016" stop-color="#444140" stop-opacity="0"/>
      <stop offset="1" stop-color="#444140"/>
    </radialGradient>
    <radialGradient id="SVGID_13_" cx="-48.131948" cy="16.993653" gradientTransform="matrix(-0.9657 -0.2598 -0.2432 0.9037 0 0)" gradientUnits="userSpaceOnUse" r="16.0834">
      <stop offset="0.6605" stop-color="#444140" stop-opacity="0"/>
      <stop offset="1" stop-color="#444140"/>
    </radialGradient>
    <radialGradient id="SVGID_14_" cx="44.088438" cy="-26.852396" gradientTransform="matrix(0.9907 0.1363 0.1915 -1.3921 0 0)" gradientUnits="userSpaceOnUse" r="16.8856">
      <stop offset="0.5981" stop-color="#444140" stop-opacity="0"/>
      <stop offset="1" stop-color="#444140"/>
    </radialGradient>
  </defs>
  <path id="hair_3_" d="M98.9,79.85 C97.65,77.58 99.24,75.27 101.96,72.41 C106.27,67.87 110.96,57.34 106.6,46.65 C106.63,46.59 105.74,44.79 105.77,44.73 L103.98,44.64 C103.41,44.56 83.72,44.52 64.01,44.52 C44.3,44.52 24.61,44.56 24.04,44.64 C24.04,44.64 21.39,46.59 21.41,46.65 C17.06,57.34 21.74,67.86 26.05,72.41 C28.76,75.27 30.35,77.58 29.11,79.85 C27.9,82.06 24.3,82.38 24.3,82.38 C24.3,82.38 25.13,84.64 27.13,85.86 C28.98,86.99 31.26,87.25 32.83,87.29 C32.83,87.29 38.98,95.8 55.06,95.8 L64.01,95.8 L72.96,95.8 C89.04,95.8 95.19,87.29 95.19,87.29 C96.76,87.25 99.04,86.99 100.89,85.86 C102.89,84.64 103.72,82.38 103.72,82.38 C103.72,82.38 100.11,82.06 98.9,79.85 Z" fill="#232020"/>
  <path d="M63.99,95.79 L63.99,86.35 L92.56,84.09 L95.16,87.29 C95.16,87.29 89.01,95.8 72.93,95.8 L63.99,95.79 Z" fill="url(#SVGID_1_)"/>
  <path d="M95.1,83.16 C90.82,76.66 100.31,74.23 100.31,74.23 C100.31,74.23 100.32,74.24 100.32,74.24 C98.67,76.29 97.92,78.08 98.89,79.85 C100.1,82.06 103.7,82.38 103.7,82.38 C103.7,82.38 98.79,86.74 95.1,83.16 Z" fill="url(#SVGID_2_)"/>
  <path d="M106.62,46.65 C110.87,57 106.4,67.66 102.21,72.16 C101.64,72.78 99.2,75.17 98.64,77.08 C98.64,77.08 89.1,63.77 86.25,55.95 C85.68,54.37 85.15,52.75 85.08,51.07 C85.03,49.81 85.22,48.31 85.95,47.24 C86.84,45.93 106.11,45.54 106.11,45.54 C106.11,45.55 106.62,46.65 106.62,46.65 Z" fill="url(#SVGID_3_)"/>
  <path d="M21.4,46.65 C17.16,57 21.63,67.66 25.81,72.15 C26.39,72.77 28.82,75.16 29.38,77.07 C29.38,77.07 38.92,63.76 41.77,55.94 C42.35,54.36 42.87,52.74 42.94,51.06 C42.99,49.8 42.8,48.3 42.07,47.23 C41.18,45.92 40.14,46.27 38.63,46.27 C35.75,46.27 23.14,45.53 22.16,45.53 C22.17,45.55 21.4,46.65 21.4,46.65 Z" fill="url(#SVGID_4_)"/>
  <path d="M64.03,95.79 L64.03,86.35 L35.46,84.09 L32.86,87.29 C32.86,87.29 39.01,95.8 55.09,95.8 L64.03,95.79 Z" fill="url(#SVGID_5_)"/>
  <path d="M32.92,83.16 C37.2,76.66 27.71,74.23 27.71,74.23 C27.71,74.23 27.7,74.24 27.7,74.24 C29.35,76.29 30.1,78.08 29.13,79.85 C27.92,82.06 24.32,82.38 24.32,82.38 C24.32,82.38 29.23,86.74 32.92,83.16 Z" fill="url(#SVGID_6_)"/>
  <path d="M64.14,96 C64.09,96 64.05,96 64,96 C38.35,96.03 12,103.1 12,120.99 L12,123.94 L13.5,123.94 L15,123.94 L113,123.94 L114.5,123.94 L116,123.94 L116,120.99 C116,104.12 89.9,96 64.14,96 Z" fill="url(#SVGID_7_)"/>
  <path d="M75.02,91.38 L52.98,91.38 L46.39,98.5 L55.87,113.19 L64,103.15 L72.13,113.19 L81.61,98.5 Z" fill="url(#SVGID_8_)"/>
  <path d="M64.58,111.61 L63.49,111.61 C62.3,111.61 61.27,110.79 60.99,109.63 L60.57,107.88 C60.19,106.27 62.23,104.72 64.09,104.72 C65.95,104.72 67.85,106.25 67.48,107.86 L67.08,109.61 C66.82,110.79 65.78,111.61 64.58,111.61 Z" fill="#1565C0"/>
  <path d="M52.14,113.13 L52.14,103.73 C52.14,102.56 53.41,101.82 54.44,102.39 L62.78,107.02 C63.82,107.6 63.84,109.09 62.8,109.68 L54.46,114.46 C53.42,115.04 52.14,114.31 52.14,113.13 Z" fill="#1565C0"/>
  <path d="M75.52,113.13 L75.52,103.73 C75.52,102.56 74.25,101.82 73.22,102.39 L64.88,107.02 C63.84,107.6 63.82,109.09 64.86,109.68 L73.2,114.46 C74.23,115.04 75.52,114.31 75.52,113.13 Z" fill="#1565C0"/>
  <path d="M64,84.33 L54.92,84.33 L54.92,94.31 C54.92,98.82 58.62,102.48 63.18,102.48 L64.83,102.48 C69.39,102.48 73.09,98.82 73.09,94.31 L73.09,84.33 L64,84.33 Z" fill="#3C2B24"/>
  <path d="M91.33,50.43 L83.96,50.43 L44.04,50.43 L36.67,50.43 C30.78,50.43 25.96,55.57 25.96,61.84 C25.96,68.11 30.78,73.25 36.67,73.25 L44.04,73.25 L83.95,73.25 L91.32,73.25 C97.21,73.25 102.03,68.11 102.03,61.84 C102.03,55.57 97.22,50.43 91.33,50.43 Z" fill="#3C2B24"/>
  <path d="M64,11.07 L64,11.07 L64,11.07 C46.6,11.07 30.48,29.68 30.48,56.47 C30.48,83.11 47.09,96.28 64,96.28 C80.91,96.28 97.52,83.1 97.52,56.46 C97.52,29.68 81.4,11.07 64,11.07 Z" fill="#70534A"/>
  <path d="M54.8,49.82 C53.87,48.59 51.73,46.81 47.57,46.81 C43.41,46.81 41.26,48.6 40.34,49.82 C39.93,50.36 40.03,50.99 40.32,51.37 C40.58,51.72 41.36,52.05 42.22,51.76 C43.08,51.47 44.76,50.6 47.57,50.58 C50.38,50.6 52.06,51.47 52.92,51.76 C53.78,52.05 54.56,51.73 54.82,51.37 C55.1,50.99 55.21,50.36 54.8,49.82 Z" fill="#1A1717"/>
  <path d="M87.67,49.82 C86.74,48.59 84.6,46.81 80.44,46.81 C76.28,46.81 74.13,48.6 73.21,49.82 C72.8,50.36 72.9,50.99 73.19,51.37 C73.45,51.72 74.23,52.05 75.09,51.76 C75.95,51.47 77.63,50.6 80.44,50.58 C83.25,50.6 84.93,51.47 85.79,51.76 C86.65,52.05 87.43,51.73 87.69,51.37 C87.97,50.99 88.08,50.36 87.67,49.82 Z" fill="#1A1717"/>
  <path d="M52.49,58.81 A4.93 5.1 0 1 1 42.63,58.81 A4.93 5.1 0 1 1 52.49,58.81 Z" fill="#1A1717"/>
  <path d="M85.37,58.81 A4.93 5.1 0 1 1 75.51,58.81 A4.93 5.1 0 1 1 85.37,58.81 Z" fill="#1A1717"/>
  <path id="nose" d="M67.86,68.06 C67.75,68.02 67.65,67.99 67.54,67.98 L60.46,67.98 C60.35,67.99 60.24,68.02 60.14,68.06 C59.5,68.32 59.15,68.98 59.45,69.69 C59.75,70.4 61.16,72.38 64,72.38 C66.84,72.38 68.25,70.39 68.55,69.69 C68.85,68.98 68.5,68.32 67.86,68.06 Z" fill="#33251F"/>
  <path id="mouth" d="M72.42,76.14 C69.24,78.03 58.79,78.03 55.61,76.14 C53.78,75.05 51.91,76.72 52.67,78.38 C53.42,80.01 59.11,83.8 64.04,83.8 C68.97,83.8 74.59,80.01 75.34,78.38 C76.09,76.72 74.25,75.05 72.42,76.14 Z" fill="#1A1717"/>
  <path id="hair" d="M104.07,25.11 C101.63,21.42 96.16,16.47 91.25,16.14 C90.46,11.42 85.41,7.42 80.52,5.87 C67.29,1.68 58.68,6.38 54.06,8.9 C53.1,9.42 46.89,12.87 42.55,10.4 C39.83,8.85 39.88,4.66 39.88,4.66 C39.88,4.66 31.36,7.91 34.27,16.96 C31.34,17.08 27.5,18.32 25.47,22.43 C23.05,27.33 23.91,31.42 24.61,33.38 C22.09,35.52 18.92,40.07 21.09,45.98 C22.73,50.43 29.26,52.48 29.26,52.48 C28.8,60.49 30.29,65.42 31.08,67.41 C31.22,67.76 31.71,67.73 31.8,67.37 C32.79,63.4 36.17,49.57 35.83,47.16 C35.83,47.16 47.18,44.91 58,36.94 C60.2,35.32 62.59,33.94 65.13,32.93 C78.72,27.52 81.56,36.75 81.56,36.75 C81.56,36.75 90.98,34.94 93.82,48.02 C94.89,52.92 95.61,60.77 96.22,66.26 C96.26,66.65 96.79,66.73 96.94,66.37 C97.89,64.19 99.79,59.87 100.24,55.46 C100.4,53.91 104.58,51.86 106.38,45.2 C108.79,36.32 105.84,27.78 104.07,25.11 Z" fill="#232020"/>
  <path d="M100.22,55.5 C100.38,53.95 104.56,51.9 106.36,45.24 C106.55,44.53 106.71,43.81 106.86,43.09 C108.32,35 105.7,27.57 104.07,25.11 C101.81,21.7 96.97,17.22 92.38,16.3 C91.98,16.25 91.59,16.2 91.22,16.18 C91.22,16.18 91.55,18.33 90.68,20.04 C89.56,22.26 87.27,22.79 87.27,22.79 C99.24,34.77 98.39,44.79 100.22,55.5 Z" fill="url(#SVGID_9_)"/>
  <path d="M56.95,7.39 C55.85,7.92 54.89,8.45 54.05,8.9 C53.09,9.42 46.88,12.87 42.54,10.4 C39.87,8.88 39.87,4.82 39.87,4.68 C38.64,6.25 34.92,17.46 45.8,18.21 C50.49,18.53 53.38,14.44 55.1,10.98 C55.72,9.72 56.69,7.88 56.95,7.39 Z" fill="url(#SVGID_10_)"/>
  <path d="M79.16,5.47 C86.48,7.45 90.05,11.18 91.24,16.15 C91.59,17.61 92.01,31.23 66.01,15.75 C56.34,9.99 58.98,6.39 60.11,5.98 C64.53,4.38 70.96,3.25 79.16,5.47 Z" fill="url(#SVGID_11_)"/>
  <path d="M39.84,4.68 C39.83,4.69 39.81,4.69 39.78,4.71 C39.78,4.71 39.78,4.71 39.77,4.71 C38.84,5.1 31.53,8.49 34.26,16.96 L42.04,18.21 C35.15,11.23 39.87,4.66 39.87,4.66 C39.87,4.66 39.85,4.67 39.84,4.68 Z" fill="url(#SVGID_12_)"/>
  <path d="M39.07,17.73 L34.26,16.96 C34.07,16.96 33.43,17.02 33.08,17.07 C30.37,17.45 27.18,18.85 25.45,22.43 C23.59,26.29 23.64,29.6 24.15,31.81 C24.3,32.55 24.6,33.39 24.6,33.39 C24.6,33.39 26.98,31.13 32.65,30.98 L39.07,17.73 Z" fill="url(#SVGID_13_)"/>
  <path d="M24.37,33.58 C22,35.68 18.81,40.37 21.16,46.19 C22.93,50.58 29.25,52.48 29.25,52.48 C29.25,52.5 30.51,52.88 31.16,52.88 L32.64,30.98 C29.61,30.98 26.7,31.89 24.82,33.2 C24.85,33.23 24.36,33.55 24.37,33.58 Z" fill="url(#SVGID_14_)"/>
</svg>