<svg viewBox="0 0 128 128" xmlns="http://www.w3.org/2000/svg" xmlns:xlink="http://www.w3.org/1999/xlink">
  <g id="Layer_9">
    <g>
      <g>
        <linearGradient id="SVGID_1_" gradientUnits="userSpaceOnUse" x1="88.252" x2="88.252" y1="90.7816" y2="119.0041">
          <stop offset="1.923077e-03" style="stop-color:#DEA43C"/>
          <stop offset="1" style="stop-color:#FFC559"/>
        </linearGradient>
        <path d="M79.97,122.84c-0.17,0-0.27-0.09-0.32-0.14c-0.05-0.05-0.12-0.17-0.11-0.33 c0,0,0.05-0.47,0.07-0.71c0.22-2.49,0.57-4.74,2.43-4.83c0.99-0.05,1.71-0.06,2.23-0.07c1.12-0.02,2.28-0.03,2.33-1.4 c0.04-1.02,0.04-1.15-0.11-1.71c-0.05-0.18-0.13-0.46-0.24-0.95c-0.55-2.55-1.8-5.71-3.13-9.04c-2.63-6.63-5.61-14.14-4.65-20.14 c0.57-3.56,7.54-4.09,11.65-4.09c3.37,0,6.55,0.34,8.07,0.53c-0.61,6.06-3.91,38.71-4.5,42.54c-0.03,0.21-0.21,0.35-0.42,0.35 H79.97z" fill="url(#SVGID_1_)"/>
        <path d="M90.14,80.42c2.72,0,5.3,0.22,6.97,0.4c-0.77,7.68-3.61,35.74-4.32,41.02H80.6 c0-0.03,0.01-0.06,0.01-0.09c0.25-2.82,0.65-3.88,1.49-3.92c0.97-0.05,1.67-0.06,2.19-0.07c1.05-0.02,3.23-0.05,3.32-2.37 c0.04-1.05,0.05-1.3-0.15-2.01c-0.05-0.17-0.12-0.43-0.22-0.9c-0.57-2.63-1.83-5.82-3.18-9.2c-2.58-6.51-5.51-13.88-4.59-19.61 C79.8,81.63,83.78,80.42,90.14,80.42 M90.14,78.42c-5.67,0-12,0.92-12.64,4.93c-1.51,9.43,6.19,22.18,7.79,29.55 c0.36,1.65,0.38,0.95,0.33,2.42c-0.02,0.61-0.37,0.34-3.61,0.51c-3.22,0.17-3.22,4.42-3.44,6.43l0,0 c-0.09,0.84,0.57,1.58,1.42,1.58h13.32c0.7,0,1.3-0.51,1.41-1.2c0.66-4.28,4.6-43.56,4.6-43.56S94.95,78.42,90.14,78.42 L90.14,78.42z" fill="#D3914F"/>
      </g>
      <g>
        <linearGradient id="SVGID_2_" gradientUnits="userSpaceOnUse" x1="118.2207" x2="109.1813" y1="94.5029" y2="78.3825">
          <stop offset="0.3299" style="stop-color:#FFECB3"/>
          <stop offset="1" style="stop-color:#FFC559"/>
        </linearGradient>
        <path d="M122.65,103.02c-0.04,0-0.08,0-0.13-0.01c-6.97-1.12-12.84-11.96-14.61-26.96l-0.02-0.2 l-7.95-13.77c10.96,5.29,13.64,15.32,16.02,24.25c1.53,5.74,2.98,11.16,6.49,14.5c0.69,0.66,0.82,1.43,0.64,1.87 C122.96,103.02,122.73,103.02,122.65,103.02z" fill="url(#SVGID_2_)"/>
        <path d="M102.64,64.76c7.94,5.31,10.18,13.68,12.35,21.83c1.57,5.88,3.05,11.44,6.77,14.96 c0.12,0.12,0.21,0.23,0.27,0.34c-6.24-1.62-11.47-11.89-13.13-25.96l-0.05-0.41l-0.21-0.36L102.64,64.76 M97.58,60l9.33,16.17 c1.77,15.02,7.65,26.58,15.44,27.83c0.1,0.02,0.2,0.02,0.29,0.02c1.61,0,2.17-2.32,0.49-3.92C114.17,91.59,119.33,68,97.58,60 L97.58,60z" fill="#D3914F"/>
      </g>
      <g>
        <linearGradient id="SVGID_3_" gradientUnits="userSpaceOnUse" x1="49.9979" x2="49.9979" y1="84.2154" y2="113.9834">
          <stop offset="1.923077e-03" style="stop-color:#DEA43C"/>
          <stop offset="1" style="stop-color:#FFC559"/>
        </linearGradient>
        <path d="M43.25,122.84c-0.17,0-0.27-0.09-0.32-0.14c-0.04-0.05-0.12-0.16-0.1-0.31 c0.22-1.97,1.28-4.46,2.27-4.58c1.95-0.24,2.42-0.3,2.68-0.5c0.25-0.06,0.7-0.27,0.9-0.94c0.9-2.94-3.09-22.82-7.12-27.28 c-0.1-0.11-0.16-0.19-0.21-0.26c0.3-0.15,0.87-0.33,1.28-0.45c1.25-0.38,2.68-0.8,3.34-1.95c0.84-1.45,2.26-2.48,3.81-2.75 c0.29-0.05,0.58-0.08,0.87-0.08c2.05,0,4.29,1.29,5.71,3.28c4.13,5.82,1.75,32.3-0.06,35.16l-0.07,0.11 c-0.16,0.26-0.39,0.62-0.5,0.62L43.25,122.84z" fill="url(#SVGID_3_)"/>
        <path d="M50.65,84.6c1.74,0,3.66,1.12,4.89,2.86c3.81,5.37,1.58,31.17-0.09,34.05l-0.07,0.11 c-0.03,0.04-0.06,0.1-0.09,0.15l-11.37,0.07c0.29-1.45,0.96-2.78,1.36-3.04c1.72-0.21,2.45-0.3,2.92-0.58 c0.43-0.15,1.11-0.55,1.42-1.55c0.91-2.96-2.6-21.34-6.64-27.35c1.35-0.41,3-0.92,3.85-2.39c0.68-1.18,1.87-2.05,3.12-2.27 C50.18,84.62,50.42,84.6,50.65,84.6 M50.65,82.6c-0.35,0-0.7,0.03-1.05,0.09c-1.88,0.33-3.54,1.59-4.5,3.24 c-1.12,1.94-6.56,1.31-4.29,3.83c4.06,4.49,8.13,26.23,6.72,26.58c-0.9,0.22,0.66,0.09-2.56,0.48 c-1.78,0.22-2.92,3.48-3.14,5.46c-0.09,0.83,0.57,1.56,1.42,1.56l12.49-0.07c0.7,0,1.04-0.6,1.41-1.19 c1.96-3.09,4.45-30.05,0.03-36.27C55.67,84.19,53.2,82.6,50.65,82.6L50.65,82.6z" fill="#D3914F"/>
      </g>
      <g>
        <linearGradient id="SVGID_4_" gradientUnits="userSpaceOnUse" x1="59.4933" x2="59.4933" y1="123" y2="18.9647">
          <stop offset="0" style="stop-color:#FFECB3"/>
          <stop offset="0.2793" style="stop-color:#FFD884"/>
          <stop offset="0.505" style="stop-color:#FFCA65"/>
          <stop offset="0.6306" style="stop-color:#FFC559"/>
          <stop offset="0.6966" style="stop-color:#FFC861"/>
          <stop offset="0.798" style="stop-color:#FFD276"/>
          <stop offset="0.9214" style="stop-color:#FFE199"/>
          <stop offset="1" style="stop-color:#FFECB3"/>
        </linearGradient>
        <path d="M18.76,123c-0.16,0-0.27-0.09-0.32-0.14c-0.04-0.05-0.12-0.16-0.1-0.31 c0.22-1.96,1.31-4.46,2.27-4.58c1.95-0.24,2.42-0.3,2.68-0.5c0.73-0.18,1.55-0.42,8.4-29.78l0.13-0.55l-0.4-0.39 c-1.33-1.3-4.07-5.22-5.99-9.88c-2.48-6.02-1.51-18.39-1.29-20.81c0.07-0.77-0.45-1.47-1.18-1.58c-0.71-0.11-1.25-0.38-1.63-0.63 c1.46-1.92,4.4-6.51,3.73-11.48l-0.13-0.94l-0.95,0.08c-0.02,0-1.81,0.15-4.16,0.15c-5.16,0-8.82-0.68-10.31-1.91 c-0.68-0.56-1.19-1.34-1.59-2.03c-1.9-3.22-2.4-5.96-2.89-9.48C4.94,27.59,5.35,27,5.98,26.85c3.32-0.75,8.03-2.06,11.72-3.28 c2.15-0.71,3.25-2.56,4.14-4.04c0.35-0.59,0.68-1.14,1.02-1.53c1.76-2.03,4.24-3.06,7.38-3.06c0.89,0,1.84,0.08,2.82,0.25 c4.13,0.7,8.21,2.22,11.78,4.4c2.68,1.64,3.31,6.35,3.44,9.02c0.12,2.41-0.01,4.44-0.12,6.22c-0.13,1.97-0.23,3.53,0.08,4.81 c0.41,1.69,0.98,2.95,1.38,3.7c-1.02,0.8-1.64,1.09-1.64,1.09l-0.69,0.32l0.13,0.76c0.01,0.08,0.37,2.01,2.44,3.29 c1.3,0.81,2.93,1.58,4.66,2.4c0.79,0.37,1.59,0.75,2.39,1.15c7.05,3.51,14.43,5.57,21.36,5.95c1.34,0.07,2.71,0.08,3.74,0.08 l3.46-0.01c4.84,0,9.91,0.22,14,2.85c8.66,5.58,13.53,24.86,14.46,57.3c0.02,0.77,0.04,1.44,0.06,1.98 c0.03,0.77-0.21,1.48-0.65,1.94c-0.33,0.35-0.75,0.52-1.25,0.52l-10.1,0.01c-1.64,0-2.01-0.24-2.09-0.34 c-0.11-0.14-0.17-0.62,0.19-2.11c0.03-0.11,0.15-0.43,0.25-0.71c0.09-0.25,0.17-0.47,0.2-0.57c0.56-1.79,1.48-1.94,2.45-1.94 c0.15,0,0.73,0.02,0.86,0.02c0.36,0,1.2,0,1.67-0.69c0.48-0.7,0.23-1.59-0.07-2.38c-1.14-2.93-6.98-17.65-10.72-20.94 c-0.16-0.16-4.84-4.6-13.52-4.6c-2.27,0-4.64,0.31-7.03,0.93c-0.54,0.14-1.37,0.57-2.62,1.21c-3.57,1.84-10.22,5.26-17.05,5.26 c-2.63,0-5.24-0.27-7.74-0.8l-0.83-0.18l-0.31,0.79c-3.78,9.63-12.57,24.35-13.77,26.24l-0.07,0.11 c-0.16,0.26-0.39,0.62-0.5,0.62L18.76,123z" fill="url(#SVGID_4_)"/>
        <path d="M30.23,15.94L30.23,15.94c0.84,0,1.73,0.08,2.66,0.24c4.01,0.67,7.96,2.15,11.43,4.27 c1.67,1.02,2.75,4.02,2.96,8.22c0.12,2.36-0.01,4.35-0.12,6.11c-0.13,2.06-0.24,3.68,0.11,5.11c0.31,1.3,0.72,2.36,1.08,3.16 c-0.5,0.35-0.78,0.49-0.78,0.49l0,0l-1.41,0.64l0.26,1.52c0.04,0.25,0.49,2.47,2.9,3.97c1.34,0.84,3,1.62,4.75,2.46 c0.78,0.37,1.58,0.75,2.37,1.14c7.17,3.57,14.69,5.67,21.75,6.06c1.37,0.08,2.75,0.09,3.8,0.09c0.57,0,1.15,0,1.73-0.01 c0.58,0,1.15-0.01,1.73-0.01c4.69,0,9.6,0.21,13.45,2.7c5.18,3.34,9.16,12.51,11.5,26.5c1.98,11.81,2.33,24.09,2.5,29.98 c0.02,0.78,0.04,1.44,0.06,1.99c0.02,0.49-0.13,0.95-0.37,1.21c-0.14,0.15-0.31,0.21-0.53,0.22l-10.1,0.01 c-0.56,0-0.92-0.03-1.15-0.06c0.03-0.23,0.09-0.58,0.22-1.11c0.04-0.14,0.14-0.4,0.23-0.63c0.1-0.27,0.19-0.52,0.22-0.62 c0.38-1.23,0.8-1.23,1.49-1.23c0,0,0.01,0,0.01,0c0.14,0,0.28,0,0.42,0.01c0.16,0,0.31,0.01,0.45,0.01c0.43,0,1.72,0,2.49-1.12 c0.84-1.22,0.27-2.68,0.03-3.31c-1.61-4.14-7.13-17.89-10.96-21.3c-0.54-0.51-5.47-4.88-14.22-4.88c-2.36,0-4.81,0.32-7.28,0.96 c-0.65,0.17-1.47,0.59-2.83,1.29c-3.5,1.8-10.01,5.15-16.6,5.15c-2.56,0-5.1-0.26-7.54-0.78l-1.66-0.35l-0.62,1.58 c-3.74,9.54-12.49,24.19-13.68,26.07l-0.07,0.11c-0.03,0.04-0.06,0.1-0.09,0.15L19.44,122c0.29-1.45,0.96-2.78,1.36-3.04 c1.68-0.21,2.42-0.3,2.89-0.56c1.29-0.34,1.75-1.02,5.48-16.02c1.78-7.16,3.46-14.38,3.48-14.46l0.26-1.1l-0.81-0.79 c-1.23-1.2-3.92-5.07-5.76-9.55c-1.86-4.5-1.82-13.77-1.22-20.34c0.12-1.29-0.77-2.46-2.02-2.66c-0.09-0.01-0.18-0.03-0.27-0.05 c1.61-2.39,3.82-6.62,3.2-11.2l-0.25-1.88l-1.89,0.16c-0.02,0-1.78,0.14-4.08,0.14c-4.78,0-8.4-0.63-9.67-1.68 c-0.56-0.47-1.01-1.15-1.37-1.77c-1.81-3.06-2.27-5.59-2.76-9.1c-0.02-0.13,0.06-0.25,0.17-0.27c3.35-0.75,8.1-2.08,11.82-3.31 c2.5-0.82,3.76-2.94,4.68-4.48c0.33-0.55,0.63-1.06,0.91-1.38C25.2,16.83,27.36,15.94,30.23,15.94 M30.23,13.94 c-2.88,0-5.88,0.81-8.13,3.41c-1.29,1.49-2.13,4.42-4.71,5.28c-3.44,1.13-8.1,2.46-11.63,3.25c-1.14,0.26-1.88,1.34-1.72,2.5 c0.53,3.81,1.07,6.55,3.02,9.85c0.5,0.84,1.06,1.66,1.82,2.29c2.16,1.79,7.25,2.14,10.94,2.14c2.42,0,4.24-0.15,4.24-0.15 c0.67,4.98-2.64,9.74-4.12,11.47c0,0,0.97,1.19,2.85,1.49c0.23,0.04,0.37,0.27,0.35,0.51c-0.23,2.49-1.2,15.05,1.37,21.28 c1.88,4.57,4.68,8.72,6.21,10.21c0,0-6.71,28.8-7.66,29.03c-0.9,0.22,0.66,0.09-2.56,0.48c-1.78,0.22-2.92,3.48-3.14,5.46 c-0.09,0.83,0.57,1.56,1.42,1.56l12.49-0.07c0.7,0,1.04-0.6,1.41-1.19c1.23-1.94,10.08-16.78,13.85-26.41 c2.6,0.55,5.28,0.82,7.95,0.82c9.29,0,18.1-6.03,19.93-6.5c2.48-0.64,4.75-0.89,6.78-0.89c8.38,0,12.87,4.36,12.87,4.36 c3.76,3.31,10.08,19.62,10.44,20.55c0.59,1.52,0.16,1.7-0.66,1.7c-0.26,0-0.55-0.02-0.87-0.02c-1.19,0-2.66,0.25-3.41,2.63 c-0.07,0.21-0.43,1.14-0.48,1.34c-0.7,2.88-0.35,3.68,2.87,3.68l10.11-0.01c1.85,0,2.97-1.65,2.9-3.49 c-0.32-8.91-0.61-50.82-14.98-60.08c-4.28-2.76-9.44-3.01-14.54-3.01c-1.16,0-2.32,0.01-3.46,0.01c-1.25,0-2.48-0.02-3.69-0.08 c-7.24-0.4-14.53-2.65-20.97-5.85c-2.51-1.25-5.13-2.37-6.96-3.51c-1.71-1.07-1.98-2.62-1.98-2.62s0.96-0.43,2.52-1.77 c0,0-1.07-1.5-1.71-4.17c-0.53-2.2,0.33-5.74,0.07-10.85c-0.16-3.13-0.92-7.99-3.92-9.82c-3.71-2.27-7.85-3.81-12.14-4.54 C32.27,14.05,31.26,13.94,30.23,13.94L30.23,13.94z" fill="#D3914F"/>
      </g>
      <linearGradient id="SVGID_5_" gradientUnits="userSpaceOnUse" x1="24.7464" x2="35.3046" y1="74.6613" y2="65.8299">
        <stop offset="0.2939" style="stop-color:#FFEBC0;stop-opacity:0.9713"/>
        <stop offset="1" style="stop-color:#FFF8E1;stop-opacity:0.9713"/>
      </linearGradient>
      <path d="M40.27,60c-4.37,2.12-8.37,0-8.37,0c2.66-1.75,4-5.63,4-5.63c-2.26,0.97-2.36,1.13-4.75,1.71 c-3.47,0.08-5.71,0.42-5.71,0.42c-1.16,3.79-3.67,14.56-0.94,20.75c1.95,4.41,4.56,8.52,6.1,10.1c0.98-4.43,2.98-9.76,5.63-13.05 c0,0-3.92,0.27-6.25,2.88C31.15,67.31,39.19,67.85,40.27,60z" fill="url(#SVGID_5_)"/>
      <path d="M32.59,88.14c1.2-4.76,1.55-9.18,1.63-10.44c0.01-0.1-0.13-0.15-0.18-0.06c-1.05,1.72-2.91,7.22-2.91,7.22 c-1.4-1.77-3.21-4.83-4.8-8.41c-2.73-6.17-1.24-17.13-0.27-20.19c0.24-0.76-2.89-0.72-2.89-0.72c-0.14,1.08-2.26,13.61,1.32,21.72 c2,4.52,4.68,8.72,6.21,10.21L32.59,88.14z" fill="#D3914F"/>
      <linearGradient id="SVGID_6_" gradientUnits="userSpaceOnUse" x1="67.8127" x2="67.8127" y1="95.4167" y2="89.8308">
        <stop offset="0.2939" style="stop-color:#FFEBC0;stop-opacity:0.9713"/>
        <stop offset="1" style="stop-color:#FFF8E1;stop-opacity:0.9713"/>
      </linearGradient>
      <path d="M83,87c-9.88-3.59-17.97,0.57-20,1.76c1.01-3.41,1.39-6.4,1.39-6.4 c-5.12,3.82-10.64,4.41-16.34,5.6L46,96.01c0,0,4.45,1.14,8.47,1.14c9.29,0,18.1-6.03,19.93-6.5c8.68-2.23,12.3-1.82,15.22-0.05 C89.62,90.6,86.47,88.26,83,87z" fill="url(#SVGID_6_)"/>
      <g>
        <linearGradient id="SVGID_7_" gradientUnits="userSpaceOnUse" x1="65.5195" x2="68.4668" y1="93.0649" y2="93.0649">
          <stop offset="0.3299" style="stop-color:#FFECB3"/>
          <stop offset="1" style="stop-color:#FFC559"/>
        </linearGradient>
        <path d="M65.52,93.71c1.04-0.43,2.03-0.88,2.95-1.29C67.56,92.85,66.57,93.29,65.52,93.71z" fill="url(#SVGID_7_)"/>
        <path d="M81.43,87.78c-2.73,0-6.12,0.62-10.3,2.34c-3.65,1.5-10.04,5.17-16.66,5.17c-2.61,0-5.15-0.28-7.58-0.8 c-0.18,0.58-0.38,1.22-0.56,1.79c2.66,0.58,5.4,0.87,8.14,0.87c9.29,0,18.1-6.03,19.93-6.5c2.48-0.64,4.75-0.9,6.78-0.9 c3.79,0,7.74,0.77,9.88,1.75C90.12,90.65,87.31,87.78,81.43,87.78L81.43,87.78z" fill="#D3914F"/>
      </g>
      <g>
        <linearGradient id="SVGID_8_" gradientUnits="userSpaceOnUse" x1="40.0883" x2="40.0883" y1="97.7331" y2="49.1434">
          <stop offset="0.1176" style="stop-color:#6D473B"/>
          <stop offset="0.7884" style="stop-color:#8D6E63"/>
        </linearGradient>
        <path d="M58.27,64.93l0.55-12.46c0.01-0.22-0.08-0.43-0.24-0.58l-3.41-2.53c-0.49-0.47-1.3-0.14-1.32,0.54 L53.38,62.9L22.5,62.89c-0.51,0-0.94,0.4-0.97,0.91l-0.18,2.92c-0.03,0.56,0.41,1.03,0.96,1.03l30.94,0.19l-0.59,28.57 c-0.02,0.72,0.6,1.29,1.32,1.22l2.45-0.25c0.6-0.06,1.06-0.56,1.07-1.16L58.27,64.93L58.27,64.93L58.27,64.93z" fill="url(#SVGID_8_)"/>
        <g opacity="0.2">
          <path d="M54.84,50.36l2.98,2.2l-0.55,12.34L56.5,96.29c0,0.1-0.08,0.18-0.18,0.19l-2.47,0.25 c-0.07,0-0.12-0.04-0.14-0.06c-0.03-0.03-0.06-0.07-0.06-0.14l0.59-28.57l0.02-1.01l-1.01-0.01l-30.91-0.16l0.15-2.89 l30.88,0.01l0.96,0l0.04-0.96L54.84,50.36 M54.64,49.14c-0.39,0-0.77,0.3-0.78,0.76L53.38,62.9L22.5,62.89h0 c-0.51,0-0.94,0.4-0.97,0.91l-0.18,2.92c-0.03,0.56,0.41,1.03,0.96,1.03l30.94,0.19l-0.59,28.57c-0.02,0.68,0.53,1.22,1.19,1.22 c0.04,0,0.08,0,0.12-0.01l2.45-0.25c0.6-0.06,1.06-0.56,1.07-1.16l0.77-31.39l0-0.01h0l0.55-12.46 c0.01-0.22-0.08-0.43-0.24-0.58l-3.41-2.53C55.02,49.21,54.83,49.14,54.64,49.14L54.64,49.14z" fill="#212121"/>
        </g>
        <line fill="none" stroke="#9E9E9E" stroke-miterlimit="10" stroke-width="2" x1="48.81" x2="44.31" y1="60.91" y2="64.93"/>
        <circle cx="43.69" cy="65.55" fill="#BDBDBD" r="1.86"/>
        <path d="M43.69,63.69c0.03,0,0.06,0,0.1,0c1.03,0.05,1.82,0.93,1.77,1.96c-0.05,1-0.87,1.77-1.86,1.77 c-0.03,0-0.06,0-0.1,0c-1.03-0.05-1.82-0.93-1.77-1.96C41.88,64.46,42.7,63.69,43.69,63.69 M43.69,62.94L43.69,62.94 c-1.39,0-2.54,1.09-2.61,2.48c-0.04,0.7,0.2,1.37,0.67,1.89c0.47,0.52,1.11,0.82,1.81,0.86c0.05,0,0.09,0,0.14,0 c1.39,0,2.54-1.09,2.61-2.48c0.04-0.7-0.2-1.37-0.67-1.89c-0.47-0.52-1.11-0.82-1.81-0.86C43.78,62.94,43.73,62.94,43.69,62.94 L43.69,62.94z" fill="#424242"/>
      </g>
      <path d="M45.08,98.57c-0.09,0-0.18-0.01-0.27-0.04c-0.53-0.15-1.06-0.6-0.91-1.13c2-4.55,4.2-12.13,4.92-14.7 c0.04-0.15,0.27-0.11,0.26,0.04c-0.06,3.47-0.33,6.08-0.94,8.37c-0.79,2.98-1.92,6.4-2.11,6.74 C45.82,98.24,45.52,98.57,45.08,98.57z" fill="#D3914F"/>
      <ellipse cx="24.37" cy="24.71" rx="2.36" ry="2.09" transform="matrix(0.6755 -0.7374 0.7374 0.6755 -10.3152 25.9923)"/>
      <linearGradient id="SVGID_9_" gradientTransform="matrix(0.9906 -0.1616 0.1601 0.9818 -4.2364 3.9923)" gradientUnits="userSpaceOnUse" x1="6.1027" x2="8.1608" y1="23.6444" y2="28.5229">
        <stop offset="0" style="stop-color:#424242;stop-opacity:0.9713"/>
        <stop offset="1" style="stop-color:#000000"/>
      </linearGradient>
      <path d="M4.68,32.14c0,0,5.29-1.59,5.28-6.1c0-0.63-0.59-1.09-1.19-0.92c-1.01,0.28-2.47,0.67-3.24,0.86 c-1.1,0.26-1.7,0.69-1.49,2.4C4.23,29.87,4.68,32.14,4.68,32.14z" fill="url(#SVGID_9_)"/>
      <linearGradient id="SVGID_10_" gradientTransform="matrix(0.9901 -0.1406 0.1406 0.9901 -3.7333 3.6636)" gradientUnits="userSpaceOnUse" x1="34.5163" x2="41.3887" y1="32.9238" y2="21.93">
        <stop offset="0" style="stop-color:#D3914F"/>
        <stop offset="1" style="stop-color:#D3914F;stop-opacity:0"/>
      </linearGradient>
      <path d="M32.29,18.29c0.63-2.75,12.96,3.41,12.32,9.77c-0.71,7.02-8.07,10.73-11.43,9.15 C29.46,35.45,31.91,19.95,32.29,18.29z" fill="url(#SVGID_10_)"/>
      <g opacity="0.2">
        <path d="M44.61,27.22c0.03,1.45-0.3,2.94-0.93,4.31c-0.65,1.36-1.6,2.6-2.77,3.6c-1.16,1.02-2.53,1.78-4.06,2.25 c-0.77,0.23-1.59,0.35-2.5,0.25c-0.23-0.03-0.46-0.07-0.71-0.15c-0.24-0.07-0.57-0.23-0.78-0.41c-0.46-0.36-0.72-0.79-0.92-1.19 c-0.72-1.61-0.8-3.1-0.91-4.59c-0.04-1.48-0.03-2.95,0.1-4.4c0.1-1.45,0.28-2.89,0.48-4.32c0.21-1.43,0.49-2.85,0.67-4.28 c0.27,1.44,0.24,2.9,0.32,4.34l0.1,4.3c0.06,1.43,0.08,2.85,0.23,4.23c0.12,1.36,0.31,2.81,0.8,3.83 c0.11,0.24,0.25,0.44,0.36,0.53c0.07,0.05,0.06,0.06,0.17,0.09c0.1,0.04,0.22,0.06,0.34,0.08c0.52,0.08,1.15-0.01,1.77-0.14 c1.25-0.28,2.47-0.89,3.58-1.65C42.18,32.38,43.86,30.04,44.61,27.22z"/>
      </g>
      <g>
        <g>
          <linearGradient id="SVGID_11_" gradientTransform="matrix(0.9238 -0.0221 0.0239 0.9997 2.5292 0.7543)" gradientUnits="userSpaceOnUse" x1="19.5697" x2="50.0013" y1="51.9004" y2="51.9004">
            <stop offset="0" style="stop-color:#00897B"/>
            <stop offset="0.6344" style="stop-color:#4DB6AC"/>
            <stop offset="1" style="stop-color:#00897B"/>
          </linearGradient>
          <path d="M22.19,58.09l-0.23-1.47c-0.1-0.66,0.31-1.29,0.93-1.43c2.2-0.48,7.4-1.79,13.43-4.5 c5.28-2.37,9.22-4.78,10.94-5.9c0.54-0.35,1.25-0.18,1.61,0.38l0.79,1.24c0.38,0.59,0.21,1.39-0.36,1.77 c-1.82,1.18-5.92,3.69-11.47,6.19c-6.43,2.89-11.88,4.25-14.21,4.75C22.94,59.27,22.3,58.79,22.19,58.09z" fill="url(#SVGID_11_)"/>
        </g>
        <g opacity="0.2">
          <path d="M47.87,45.61c0.05,0,0.11,0.04,0.15,0.1l0.79,1.24c0.08,0.13,0.05,0.32-0.06,0.39 c-1.9,1.24-5.91,3.67-11.34,6.12c-6.44,2.9-11.95,4.24-14.04,4.69c-0.07,0-0.16-0.08-0.18-0.21l-0.23-1.47 c-0.02-0.15,0.06-0.28,0.15-0.3c2.03-0.44,7.43-1.78,13.62-4.56c5.27-2.37,9.2-4.75,11.07-5.97 C47.82,45.62,47.84,45.61,47.87,45.61 M47.87,44.61c-0.21,0-0.42,0.06-0.61,0.18c-1.72,1.11-5.66,3.52-10.94,5.9 c-6.02,2.71-11.23,4.02-13.43,4.5c-0.62,0.14-1.03,0.76-0.93,1.43l0.23,1.47c0.1,0.62,0.6,1.06,1.17,1.06 c0.08,0,0.16-0.01,0.24-0.03c2.34-0.5,7.79-1.86,14.21-4.75c5.56-2.5,9.65-5.01,11.47-6.19c0.57-0.37,0.74-1.17,0.36-1.77 l-0.79-1.24C48.63,44.81,48.25,44.61,47.87,44.61L47.87,44.61z" fill="#212121"/>
        </g>
      </g>
      <g>
        <linearGradient id="SVGID_12_" gradientUnits="userSpaceOnUse" x1="62.5856" x2="94.7469" y1="37.4107" y2="8.3874">
          <stop offset="0.1543" style="stop-color:#BDBDBD"/>
          <stop offset="0.5167" style="stop-color:#E0E0E0"/>
          <stop offset="0.8717" style="stop-color:#BDBDBD"/>
          <stop offset="1" style="stop-color:#9E9E9E"/>
        </linearGradient>
        <path d="M100.32,4.01l-0.01,0L86.69,4c-1.51,0.18-3.04,0.32-5.89,3.46c-2.31,2.55-24.05,24.61-31.4,32.58 c0,0,0.29,1.66,1.51,3.53c0,0-1.01,0.85-2.13,1.48l0.42,0.72l32.55-34.32c1.01-1.11,1.61-2.19,3.12-2.22l8.63,0.18 c0.78-0.01,1.19,0.93,0.65,1.49L48.6,58.09c-1.13,1.05-1.19,2.49-0.16,3.4c1.11,0.89,2.6,0.17,3.23-0.62 c5.89-7.38,41.46-43.09,50.5-53.87C103.05,5.95,101.68,3.86,100.32,4.01z" fill="url(#SVGID_12_)"/>
        <linearGradient id="SVGID_13_" gradientUnits="userSpaceOnUse" x1="92.6651" x2="92.6651" y1="8.9856" y2="4.3382">
          <stop offset="0.1176" style="stop-color:#6D473B"/>
          <stop offset="0.7884" style="stop-color:#8D6E63"/>
        </linearGradient>
        <path d="M100.44,4.01l-0.01,0L86.69,4c-3.31,0.45-4.33,5.41-3.56,5.39l11.41,0.23 c0,0,1.73-3.13,3.58-4.09c0.88-0.45,2.95-1.19,4.32,0.5l-0.31-0.92C102.14,5.12,101.54,3.88,100.44,4.01z" fill="url(#SVGID_13_)"/>
      </g>
      <path d="M100.46,4c-0.05,0-0.09,0-0.14,0.01l-0.01,0L86.79,4c-1.51,0.18-3.04,0.32-5.89,3.46 c-2.04,2.26-21.92,22.5-31.52,32.6c0.07,0.23,0.19,0.61,0.33,1C59.96,30.26,79.68,10.3,81.65,8.14c2.55-2.82,3.84-2.97,5.2-3.13 l0,0l13.45,0.01l0.1,0L100.46,5c0.25,0,0.66,0.31,0.87,0.76c0.12,0.25,0.14,0.5,0.06,0.6C96.71,11.96,84.98,24.18,73.63,36 C63.41,46.65,53.76,56.7,50.89,60.24c-0.45,0.55-0.91,0.67-1.23,0.67c-0.31,0-0.5-0.11-0.54-0.16c-0.55-0.51-0.47-1.25,0.2-1.97 l45.55-47.18c0.53-0.54,0.67-1.34,0.38-2.04c-0.29-0.7-0.97-1.15-1.74-1.15h0l-8.78-0.05c-1.69,0.03-2.57,1.07-3.35,1.98 c-0.15,0.18-0.31,0.37-0.49,0.56l-30.41,31.9c0.22,0.39,0.43,0.76,0.43,0.76s-1.13,0.87-1.67,1.18c-0.16,0.09-0.44,0.28-0.46,0.3 c-0.02,0.02,0.42,0.72,0.42,0.72l0,0l32.42-34.19c1.01-1.11,1.61-2.19,3.12-2.22l8.76,0.05c0.01,0,0.01,0,0.02,0 c0.77,0,1.17,0.93,0.63,1.49L48.6,58.09c-1.19,1.28-0.99,2.62-0.16,3.4c0.26,0.25,0.71,0.42,1.23,0.42c0.64,0,1.38-0.28,2-1.04 c5.95-7.34,41.46-43.09,50.5-53.87C103.02,5.99,101.78,4,100.46,4z" fill="#212121" opacity="0.2"/>
      <g>
        <linearGradient id="SVGID_14_" gradientUnits="userSpaceOnUse" x1="50.6609" x2="54.413" y1="53.6724" y2="57.4245">
          <stop offset="0.1176" style="stop-color:#6D473B"/>
          <stop offset="0.7884" style="stop-color:#8D6E63"/>
        </linearGradient>
        <path d="M57.5,56.98l-3.22,3.84l-4.1-4.1c-0.34-0.34-0.34-0.9,0-1.24l2.29-2.29 c0.34-0.34,0.9-0.34,1.24,0L57.5,56.98z" fill="url(#SVGID_14_)"/>
        <path d="M54.46,60.32l-3.65-3.65 c-0.32-0.32-0.35-0.8-0.08-1.08l1.84-1.84c0.28-0.28,0.76-0.24,1.08,0.08l3.37,3.37" fill="none" opacity="0.2" stroke="#212121" stroke-linecap="round" stroke-miterlimit="10"/>
      </g>
    </g>
  </g>
</svg>