<svg viewBox="0 0 128 128" xmlns="http://www.w3.org/2000/svg">
  <defs>
    <radialGradient id="hair_x5F_white_1_" cx="64.034" cy="33.1272" gradientUnits="userSpaceOnUse" r="34.4558">
      <stop offset="0" stop-color="#FFFFFF"/>
      <stop offset="0.4129" stop-color="#FAF9F8"/>
      <stop offset="0.9948" stop-color="#EBEAE6"/>
      <stop offset="0.9953" stop-color="#EBEAE6"/>
    </radialGradient>
    <radialGradient id="hairHighlight_x5F_white_1_" cx="64.2231" cy="43.758648" gradientTransform="matrix(1 0 0 0.986 0 0)" gradientUnits="userSpaceOnUse" r="41.0007">
      <stop offset="0.724" stop-color="#FFFFFF" stop-opacity="0"/>
      <stop offset="1" stop-color="#BDBDBD"/>
    </radialGradient>
    <linearGradient id="SVGID_1_" gradientTransform="matrix(1 0 0 -1 0 0)" gradientUnits="userSpaceOnUse" x1="62.6217" x2="99.3737" y1="-80.2499" y2="-83.7945">
      <stop offset="0.8614" stop-color="#FFFFFF" stop-opacity="0"/>
      <stop offset="1" stop-color="#BDBDBD"/>
    </linearGradient>
    <linearGradient id="SVGID_2_" gradientTransform="matrix(-1 0 0 -1 0 0)" gradientUnits="userSpaceOnUse" x1="-65.3783" x2="-29.1176" y1="-80.2499" y2="-83.7471">
      <stop offset="0.8614" stop-color="#FFFFFF" stop-opacity="0"/>
      <stop offset="1" stop-color="#BDBDBD"/>
    </linearGradient>
    <linearGradient id="SVGID_3_" gradientTransform="matrix(1 0 0 -1 0 0)" gradientUnits="userSpaceOnUse" x1="64" x2="64" y1="-95.6811" y2="-123.6035">
      <stop offset="4.006410e-04" stop-color="#00BFA5"/>
      <stop offset="0.7048" stop-color="#00B29A"/>
      <stop offset="1" stop-color="#00AB94"/>
    </linearGradient>
    <linearGradient id="SVGID_4_" gradientTransform="matrix(1 0 0 -1 0 0)" gradientUnits="userSpaceOnUse" x1="63.5725" x2="63.5725" y1="-95.6811" y2="-128.7994">
      <stop offset="0" stop-color="#00897B"/>
      <stop offset="1" stop-color="#004D40"/>
    </linearGradient>
    <linearGradient id="SVGID_5_" gradientTransform="matrix(1 0 0 -1 0 0)" gradientUnits="userSpaceOnUse" x1="63.9983" x2="63.9983" y1="-119.6811" y2="-84.5183">
      <stop offset="0.0685" stop-color="#87CEAC"/>
      <stop offset="0.3057" stop-color="#84CDAB"/>
      <stop offset="0.4624" stop-color="#7BC8A8"/>
      <stop offset="0.5958" stop-color="#6CC0A2"/>
      <stop offset="0.7161" stop-color="#57B69B"/>
      <stop offset="0.8278" stop-color="#3CA891"/>
      <stop offset="0.9315" stop-color="#1A9785"/>
      <stop offset="1" stop-color="#00897B"/>
    </linearGradient>
    <linearGradient id="SVGID_6_" gradientTransform="matrix(-1 0 0 -1 0 0)" gradientUnits="userSpaceOnUse" x1="-64.0015" x2="-64.0015" y1="-47.363" y2="-39.9216">
      <stop offset="4.006410e-04" stop-color="#00BFA5"/>
      <stop offset="0.7048" stop-color="#00B29A"/>
      <stop offset="1" stop-color="#00AB94"/>
    </linearGradient>
  </defs>
  <path d="M65.23,117 L31.23,116.17 L25.42,51.17 L65.23,52.01 Z" fill="#E7E7E7"/>
  <path d="M62.77,117 L96.77,116.17 L102.58,51.17 L62.77,52.01 Z" fill="#E7E7E7"/>
  <path d="M62.77,115.11 L96.94,114.28 L102.75,49.28 L62.77,50.11 Z" fill="url(#SVGID_1_)"/>
  <path d="M65.23,115.11 L31.06,114.28 L25.25,49.28 L65.23,50.11 Z" fill="url(#SVGID_2_)"/>
  <path d="M64.13,96 C64.09,96 64.04,96 64,96 C38.51,96.03 12,103.28 12,121.06 L12,123.96 L13.5,123.96 L15,123.96 L113,123.96 L114.5,123.96 L116,123.96 L116,121.06 C116,104.31 89.74,96 64.13,96 Z" fill="url(#SVGID_3_)"/>
  <path d="M44.98,123.96 L81.86,123.96 L89.68,110.96 L104.46,104.49 C104.46,104.49 91.03,95.45 64,96 C33.84,96.6 22.69,104.73 22.69,104.73 L39.33,112.01 L44.98,123.96 Z" fill="url(#SVGID_4_)"/>
  <path d="M89.12,87.25 C83.64,76.9 68.12,85.63 68.12,85.63 L64,83.71 L64,83.71 L64,83.71 L59.88,85.63 C59.88,85.63 44.36,76.91 38.88,87.25 C36.03,92.62 37.5,99.63 45.76,105.63 C54.02,111.63 64,119.84 64,119.84 L64,119.84 C64,119.84 74,111.64 82.25,105.64 C90.5,99.64 91.97,92.62 89.12,87.25 Z" fill="url(#SVGID_5_)"/>
  <path d="M43.47,123.96 L46.91,123.96 C46.55,122.75 42.05,113.58 41.13,111.59 C41.04,111.39 40.88,111.22 40.66,111.12 L40.63,111.11 C39.26,110.47 37.86,109.9 36.46,109.31 C35.07,108.72 33.65,108.17 32.24,107.62 C29.41,106.55 23.1,104.74 23.1,104.74 C25.13,106.45 33.48,110.38 39.26,112.68 L43.47,123.96 Z" fill="#E0F2F1"/>
  <path d="M37.54,113.84 C30.21,109.81 26.94,115.49 26.94,115.49 C26.94,115.49 30.65,117.01 32.8,116.58 C36.15,115.91 37.54,113.84 37.54,113.84 Z" fill="#E0F2F1"/>
  <path d="M45.9,118.26 C50.86,112.46 47.52,108.44 47.52,108.44 C47.52,108.44 45.12,109.58 44.63,112.27 C44,115.82 45.9,118.26 45.9,118.26 Z" fill="#E0F2F1"/>
  <path d="M38.68,108.74 C38.96,102.05 34.62,101.13 34.62,101.13 C34.62,101.13 33.68,103.52 34.7,105.67 C35.87,108.13 38.68,108.74 38.68,108.74 Z" fill="#E0F2F1"/>
  <path d="M84.53,123.96 L88.73,112.67 C94.51,110.38 102.87,106.45 104.89,104.73 C104.89,104.73 98.59,106.54 95.75,107.61 C94.34,108.16 92.93,108.71 91.53,109.3 C90.14,109.89 88.74,110.47 87.36,111.1 L87.33,111.11 C87.12,111.21 86.95,111.38 86.86,111.58 C85.94,113.57 81.44,122.74 81.08,123.95 L84.53,123.96 Z" fill="#E0F2F1"/>
  <path d="M90.46,113.84 C97.78,109.81 101.06,115.49 101.06,115.49 C101.06,115.49 97.35,117.01 95.2,116.58 C91.86,115.91 90.46,113.84 90.46,113.84 Z" fill="#E0F2F1"/>
  <path d="M82.1,118.26 C77.14,112.46 80.48,108.44 80.48,108.44 C80.48,108.44 82.75,109.61 83.37,112.27 C84.19,115.82 82.1,118.26 82.1,118.26 Z" fill="#E0F2F1"/>
  <path d="M89.32,108.74 C89.04,102.05 93.38,101.13 93.38,101.13 C93.38,101.13 94.32,103.52 93.3,105.67 C92.13,108.13 89.32,108.74 89.32,108.74 Z" fill="#E0F2F1"/>
  <path id="ears_2_" d="M87.5,50.44 L40.5,50.44 L20.5,38.51 C20.5,38.51 20.62,53.13 24.5,60.68 C30.5,72.35 40.5,73.27 40.5,73.27 L87.75,73.27 L87.76,73.24 C89.37,73 98.07,71.24 103.5,60.68 C107.38,53.13 107.5,38.51 107.5,38.51 L87.5,50.44 Z" fill="#3C2B24"/>
  <path id="neck" d="M64,90.08 L54.92,90.08 L54.92,95.77 C54.92,98.5 56.08,101.1 58.11,102.92 L64.01,108.23 L64.01,108.23 L69.91,102.92 C71.94,101.1 73.09,98.5 73.09,95.77 L73.09,90.08 L64,90.08 L64,90.08 Z" fill="#3C2B24"/>
  <path id="head" d="M64,11.07 L64,11.07 L64,11.07 C46.6,11.07 30.48,29.68 30.48,56.47 C30.48,83.11 47.09,96.28 64,96.28 C80.91,96.28 97.52,83.1 97.52,56.47 C97.52,29.68 81.4,11.07 64,11.07 Z" fill="#70534A"/>
  <path id="hair_x5F_white" d="M64.03,4.04 C35.14,4.06 25.8,25.7 24.94,41.07 L27.62,42.95 C28.19,52.66 30.41,60.15 30.76,61.28 C30.85,61.74 30.9,61.99 30.9,61.99 C31.03,62.32 31.53,62.29 31.61,61.94 C32.59,57.68 36.06,42.88 37.81,38.37 C38.85,35.7 41.71,34.15 44.6,34.66 C48.84,35.4 62.66,36.31 64.02,36.4 C65.38,36.31 79.2,35.4 83.44,34.66 C86.34,34.15 89.2,35.7 90.23,38.37 C91.98,42.88 95.45,57.68 96.43,61.94 C96.51,62.29 97.01,62.32 97.14,61.99 C97.14,61.99 97.19,61.74 97.28,61.28 C97.63,60.15 99.85,52.66 100.42,42.95 L103.1,41.07 C102.26,25.7 92.92,4.06 64.03,4.04 Z" fill="url(#hair_x5F_white_1_)"/>
  <path id="hairHighlight_x5F_white_6_" d="M64.03,4.04 C35.14,4.06 25.8,25.7 24.94,41.07 L27.62,42.95 C28.19,52.66 30.41,60.15 30.76,61.28 C30.85,61.74 30.9,61.99 30.9,61.99 C31.03,62.32 31.53,62.29 31.61,61.94 C32.59,57.68 36.06,42.88 37.81,38.37 C38.85,35.7 41.71,34.15 44.6,34.66 C48.84,35.4 62.66,36.31 64.02,36.4 C65.38,36.31 79.2,35.4 83.44,34.66 C86.34,34.15 89.2,35.7 90.23,38.37 C91.98,42.88 95.45,57.68 96.43,61.94 C96.51,62.29 97.01,62.32 97.14,61.99 C97.14,61.99 97.19,61.74 97.28,61.28 C97.63,60.15 99.85,52.66 100.42,42.95 L103.1,41.07 C102.26,25.7 92.92,4.06 64.03,4.04 Z" fill="url(#hairHighlight_x5F_white_1_)"/>
  <path d="M103.67,38.38 C102.54,38.59 100.69,38.97 100.28,38.99 C96.31,39.16 92.69,37.36 88.89,35.47 C92.48,34.35 101.76,32.71 102.27,32.77 C102.67,32.82 102.39,29.78 102.12,29.75 C101.52,29.69 98.47,29.64 97.83,29.67 C93.56,29.88 88.61,31.28 83.79,33.14 C80.69,31.99 77.57,31.48 74.66,31.71 C69.34,32.12 64.01,35.86 64.01,35.86 C64.01,35.86 64.01,35.86 64.01,35.86 L64.01,35.85 C64.01,35.85 64.01,35.85 64.01,35.85 C64.01,35.85 64,35.85 64,35.86 C64,35.86 63.99,35.86 63.99,35.85 C63.99,35.85 63.99,35.85 63.99,35.85 L63.99,35.86 C63.99,35.86 63.99,35.86 63.98,35.86 C63.98,35.86 58.65,32.13 53.33,31.71 C50.42,31.48 47.3,32 44.2,33.14 C39.38,31.28 34.43,29.88 30.16,29.66 C29.52,29.63 26.47,29.68 25.87,29.74 C25.59,29.77 25.31,32.81 25.72,32.76 C26.23,32.7 35.51,34.34 39.1,35.46 C35.3,37.35 31.68,39.15 27.71,38.98 C27.3,38.96 25.45,38.58 24.32,38.37 C24,38.31 24.09,40.16 24.37,40.22 C24.37,40.22 25.28,41.6 27.73,41.74 C32.19,41.99 36.67,40.04 40.52,38.12 C41.38,37.69 42.24,37.27 43.11,36.86 C47.12,38.42 51.05,40.37 54.46,42.26 L63.9,48.31 L63.99,48.38 L63.99,48.38 L63.99,48.38 L63.99,48.38 L64,48.37 L64,48.37 L64,48.37 L64,48.41 L64,48.41 L64,48.41 L64,48.4 L64.09,48.33 L73.53,42.28 C76.94,40.39 80.87,38.44 84.88,36.88 C85.75,37.29 86.62,37.71 87.47,38.14 C91.32,40.05 95.8,42 100.26,41.76 C102.71,41.62 103.62,40.24 103.62,40.24 C103.9,40.17 103.99,38.32 103.67,38.38 Z M64.17,43.17 C64.08,43.22 64.03,43.25 64,43.27 C64,43.27 64,43.27 64,43.27 C64,43.27 63.99,43.27 63.99,43.28 C63.99,43.28 63.98,43.28 63.98,43.27 C63.98,43.27 63.98,43.27 63.98,43.27 C63.95,43.26 63.9,43.22 63.81,43.17 C61.13,41.4 55.27,37.96 48.62,34.99 C50.16,34.69 51.66,34.58 53.1,34.71 C59.16,35.25 63.98,39.45 63.98,39.45 L64,39.44 L64.02,39.45 C64.02,39.45 68.84,35.25 74.9,34.71 C76.33,34.58 77.84,34.69 79.38,34.99 C72.71,37.96 66.85,41.39 64.17,43.17 Z" fill="#212121" opacity="0.36"/>
  <path d="M64,42.22 C63.99,42.23 63.99,42.23 63.98,42.23 C59.17,38.92 42.58,29.21 31.09,28.63 C30.47,28.6 27.51,28.65 26.92,28.71 C26.65,28.74 25.79,29.19 25.42,30.63 C25.08,31.97 25.52,32.87 25.91,32.82 C26.41,32.76 28.7,32.72 29.8,32.7 C40.91,32.44 56.93,42.14 62.8,46.4 L63.97,47.37 L63.97,47.37 L63.97,47.37 L63.97,47.37 L64,47.35 L64,42.22 Z" fill="#97B4C2"/>
  <path d="M64,42.22 C64.01,42.23 64.01,42.23 64.02,42.23 C68.83,38.92 85.41,29.21 96.91,28.63 C97.53,28.6 100.49,28.65 101.08,28.71 C101.35,28.74 102.21,29.19 102.58,30.63 C102.92,31.97 102.48,32.87 102.09,32.82 C101.59,32.76 99.3,32.72 98.2,32.7 C87.09,32.44 71.07,42.14 65.2,46.4 L64.03,47.37 L64.03,47.37 L64.03,47.37 L64.03,47.37 L64,47.35 L64,42.22 Z" fill="#97B4C2"/>
  <path d="M64,42.24 C64.02,42.23 67.32,40.14 69.86,39.93 C71.29,39.81 73.75,40.94 73.75,40.94 L64,47.36 L64.01,47.36 L54.27,40.93 C54.27,40.93 56.73,39.81 58.16,39.92 C60.69,40.13 63.99,42.21 64.02,42.23 L64,42.23 Z" fill="url(#SVGID_6_)"/>
  <path d="M63.97,34.82 C63.97,34.82 58.79,31.09 53.62,30.67 C50.23,30.4 46.54,31.18 42.95,32.85 C41.89,33.35 40.83,33.88 39.79,34.42 C36.09,36.31 32.57,38.12 28.7,37.95 C28.3,37.93 26.2,37.49 25.11,37.28 C24.8,37.22 23.86,37.28 23.71,38.5 C23.56,39.66 24.56,40.27 24.83,40.33 C25.57,40.5 27,40.96 28.29,40.96 C28.58,40.96 28.88,40.97 29.21,40.97 C33.56,40.97 37.4,39.01 41.15,37.09 C42.16,36.57 43.18,36.05 44.21,35.57 C47.33,34.11 50.51,33.4 53.39,33.67 C59.28,34.21 63.96,38.41 63.96,38.41 L64,38.39 L64,34.8 C63.99,34.81 63.98,34.81 63.97,34.82 Z" fill="#97B4C2"/>
  <path d="M64.03,34.82 C64.03,34.82 69.21,31.09 74.38,30.67 C77.77,30.4 81.46,31.18 85.05,32.85 C86.12,33.35 87.16,33.88 88.21,34.42 C91.91,36.31 95.43,38.12 99.3,37.95 C99.7,37.93 101.8,37.49 102.9,37.28 C103.21,37.22 104.15,37.28 104.3,38.5 C104.45,39.66 103.44,40.27 103.18,40.33 C102.44,40.5 101.01,40.96 99.72,40.96 C99.43,40.96 99.13,40.97 98.79,40.97 C94.44,40.97 90.6,39.01 86.85,37.09 C85.84,36.57 84.82,36.05 83.78,35.57 C80.66,34.11 77.48,33.4 74.6,33.67 C68.71,34.21 64.03,38.41 64.03,38.41 L64,38.39 L64,34.8 C64.01,34.81 64.02,34.81 64.03,34.82 Z" fill="#97B4C2"/>
  <path d="M52.49,58.81 A4.93 5.1 0 1 1 42.63,58.81 A4.93 5.1 0 1 1 52.49,58.81 Z" fill="#1A1717"/>
  <path d="M85.36,58.81 A4.93 5.1 0 1 1 75.5,58.81 A4.93 5.1 0 1 1 85.36,58.81 Z" fill="#1A1717"/>
  <path id="nose_1_" d="M67.86,68.06 C67.75,68.02 67.65,67.99 67.54,67.98 L60.46,67.98 C60.35,67.99 60.24,68.02 60.14,68.06 C59.5,68.32 59.15,68.98 59.45,69.69 C59.75,70.4 61.16,72.38 64,72.38 C66.84,72.38 68.25,70.39 68.55,69.69 C68.85,68.98 68.5,68.32 67.86,68.06 Z" fill="#33251F"/>
  <path id="mouth_1_" d="M72.42,76.14 C69.24,78.03 58.79,78.03 55.61,76.14 C53.78,75.05 51.91,76.72 52.67,78.38 C53.42,80.01 59.11,83.8 64.04,83.8 C68.97,83.8 74.59,80.01 75.34,78.38 C76.09,76.72 74.25,75.05 72.42,76.14 Z" fill="#1A1717"/>
  <path d="M88.1,50.78 L88.1,50.78 C88.1,50.77 85.81,47.17 80.5,47.17 C75.19,47.17 72.9,50.77 72.9,50.77 L72.9,50.78 C72.71,51.04 72.6,51.36 72.6,51.7 C72.6,52.57 73.31,53.28 74.17,53.28 C74.35,53.28 74.79,53.15 74.83,53.13 C78.01,51.82 80.5,51.81 80.5,51.81 C80.5,51.81 82.97,51.82 86.15,53.13 C86.19,53.15 86.63,53.28 86.81,53.28 C87.68,53.28 88.38,52.57 88.38,51.7 C88.39,51.35 88.28,51.04 88.1,50.78 Z" fill="#1A1717"/>
  <path d="M55.09,50.78 L55.09,50.78 C55.1,50.77 52.8,47.17 47.5,47.17 C42.2,47.17 39.9,50.77 39.9,50.77 L39.91,50.78 C39.72,51.04 39.61,51.36 39.61,51.7 C39.61,52.57 40.32,53.28 41.19,53.28 C41.37,53.28 41.81,53.15 41.85,53.13 C45.03,51.82 47.52,51.81 47.52,51.81 C47.52,51.81 49.99,51.82 53.17,53.13 C53.21,53.15 53.65,53.28 53.83,53.28 C54.7,53.28 55.41,52.57 55.41,51.7 C55.39,51.35 55.28,51.04 55.09,50.78 Z" fill="#1A1717"/>
</svg>