<svg viewBox="0 0 128 128" xmlns="http://www.w3.org/2000/svg">
  <defs>
    <radialGradient id="SVGID_1_" cx="46.116622" cy="201.171122" gradientTransform="matrix(0.9669 -0.2551 0.1253 0.4749 0 0)" gradientUnits="userSpaceOnUse" r="22.3339">
      <stop offset="0.7275" stop-color="#6D4C41" stop-opacity="0"/>
      <stop offset="1" stop-color="#6D4C41"/>
    </radialGradient>
    <radialGradient id="SVGID_2_" cx="-50.988287" cy="148.471419" gradientTransform="matrix(-0.9656 -0.2599 -0.1277 0.4743 0 0)" gradientUnits="userSpaceOnUse" r="22.3339">
      <stop offset="0.7275" stop-color="#6D4C41" stop-opacity="0"/>
      <stop offset="1" stop-color="#6D4C41"/>
    </radialGradient>
    <linearGradient id="SVGID_3_" gradientTransform="matrix(1 0 0 -1 0 0)" gradientUnits="userSpaceOnUse" x1="104" x2="116.986" y1="-110.886" y2="-110.886">
      <stop offset="3.200000e-03" stop-color="#448AFF"/>
      <stop offset="0.4042" stop-color="#3B7DFF"/>
      <stop offset="1" stop-color="#2962FF"/>
    </linearGradient>
    <radialGradient id="SVGID_7_" cx="-55.801248" cy="-142.549886" gradientTransform="matrix(-0.9437 0.3309 -0.2455 -0.7 0 0)" gradientUnits="userSpaceOnUse" r="7.4129">
      <stop offset="0.6628" stop-color="#6D4C41"/>
      <stop offset="1" stop-color="#6D4C41" stop-opacity="0"/>
    </radialGradient>
    <radialGradient id="SVGID_8_" cx="-73.972366" cy="81.009661" gradientTransform="matrix(-0.0746 -0.9972 0.8311 -0.0622 0 0)" gradientUnits="userSpaceOnUse" r="25.856">
      <stop offset="0.7247" stop-color="#6D4C41" stop-opacity="0"/>
      <stop offset="1" stop-color="#6D4C41"/>
    </radialGradient>
    <radialGradient id="SVGID_9_" cx="38.746673" cy="-97.855714" gradientTransform="matrix(0.9437 0.3309 0.2455 -0.7 0 0)" gradientUnits="userSpaceOnUse" r="7.4129">
      <stop offset="0.6628" stop-color="#6D4C41"/>
      <stop offset="1" stop-color="#6D4C41" stop-opacity="0"/>
    </radialGradient>
    <radialGradient id="SVGID_10_" cx="-66.504525" cy="-38.904534" gradientTransform="matrix(0.0746 -0.9972 -0.8311 -0.0622 0 0)" gradientUnits="userSpaceOnUse" r="25.856">
      <stop offset="0.7247" stop-color="#6D4C41" stop-opacity="0"/>
      <stop offset="1" stop-color="#6D4C41"/>
    </radialGradient>
    <radialGradient id="SVGID_11_" cx="33.403955" cy="7.424508" gradientTransform="matrix(0.9217 0.3879 0.46 -1.0929 0 0)" gradientUnits="userSpaceOnUse" r="9.7169">
      <stop offset="0.58" stop-color="#6D4C41"/>
      <stop offset="1" stop-color="#6D4C41" stop-opacity="0"/>
    </radialGradient>
    <radialGradient id="SVGID_12_" cx="-58.412292" cy="-1.198658" gradientTransform="matrix(-0.9378 -0.3944 -0.2182 0.5285 0 0)" gradientUnits="userSpaceOnUse" r="28.8995">
      <stop offset="0.6985" stop-color="#6D4C41" stop-opacity="0"/>
      <stop offset="1" stop-color="#6D4C41"/>
    </radialGradient>
    <radialGradient id="SVGID_13_" cx="30.985681" cy="-9.339885" gradientTransform="matrix(0.9953 0.097 0.1186 -1.2175 0 0)" gradientUnits="userSpaceOnUse" r="8.5759">
      <stop offset="0.7016" stop-color="#6D4C41" stop-opacity="0"/>
      <stop offset="1" stop-color="#6D4C41"/>
    </radialGradient>
    <linearGradient id="SVGID_4_" gradientTransform="matrix(1 0 0 -1 0 0)" gradientUnits="userSpaceOnUse" x1="4" x2="96" y1="-109.863" y2="-109.863">
      <stop offset="3.200000e-03" stop-color="#448AFF"/>
      <stop offset="0.4042" stop-color="#3B7DFF"/>
      <stop offset="1" stop-color="#2962FF"/>
    </linearGradient>
    <linearGradient id="SVGID_5_" gradientTransform="matrix(1 0 0 -1 0 0)" gradientUnits="userSpaceOnUse" x1="36.943" x2="36.943" y1="-95.976" y2="-125.2149">
      <stop offset="0" stop-color="#1565C0"/>
      <stop offset="0.6821" stop-color="#0D47A1"/>
      <stop offset="1" stop-color="#0D47A1"/>
    </linearGradient>
    <linearGradient id="SVGID_6_" gradientTransform="matrix(-1 0 0 -1 0 0)" gradientUnits="userSpaceOnUse" x1="-63.057" x2="-63.057" y1="-95.976" y2="-125.2149">
      <stop offset="0" stop-color="#1565C0"/>
      <stop offset="0.6821" stop-color="#0D47A1"/>
      <stop offset="1" stop-color="#0D47A1"/>
    </linearGradient>
    <linearGradient id="SVGID_15_" gradientTransform="matrix(1 0 0 -1 0 0)" gradientUnits="userSpaceOnUse" x1="50" x2="50" y1="-33.3028" y2="-59.2435">
      <stop offset="0" stop-color="#BDBDBD"/>
      <stop offset="1" stop-color="#757575"/>
    </linearGradient>
    <linearGradient id="SVGID_14_" gradientTransform="matrix(1 0 0 -1 0 0)" gradientUnits="userSpaceOnUse" x1="50" x2="50" y1="-4.3949" y2="-51.5642">
      <stop offset="0" stop-color="#BDBDBD"/>
      <stop offset="1" stop-color="#757575"/>
    </linearGradient>
  </defs>
  <path id="hair_1_" d="M84.21,82.06 C83.33,79.95 85.24,78.16 87.87,75.68 C92.05,71.74 97.93,63.39 90.3,54.05 C87.53,50.67 86.82,50.94 85.46,46.91 C84.1,42.88 81.15,46.06 82.29,48.91 C82.37,49.11 82.46,49.29 82.54,49.48 C78.54,50.13 70.69,51.66 67.55,51.66 C63.66,51.66 55.73,51.66 50.09,51.66 C48.88,51.66 47.53,51.66 46.09,51.66 C41.62,51.66 36.38,51.66 32.63,51.66 C29.49,51.66 21.64,50.13 17.64,49.48 C17.72,49.29 17.81,49.11 17.89,48.91 C19.04,46.06 16.09,42.88 14.72,46.91 C13.35,50.94 12.65,50.66 9.88,54.05 C2.25,63.39 8.13,71.73 12.31,75.68 C14.94,78.16 16.85,79.96 15.97,82.06 C15,84.39 11.5,84.35 11.5,84.35 C11.5,84.35 11.96,86.08 14.25,87.37 C16.03,88.37 18.26,88.58 19.78,88.61 C19.96,88.61 20.21,88.78 20.59,89.16 C25.44,93.97 29.29,95.55 40.84,95.98 L40.84,95.99 L41.02,95.99 C41.13,95.99 41.23,96 41.35,96 L41.35,95.99 L58.82,95.99 L58.82,96 C58.93,96 59.03,95.99 59.15,95.99 L59.21,95.99 L59.21,95.99 C70.86,95.57 74.72,94 79.58,89.17 C79.96,88.79 80.21,88.62 80.39,88.62 C81.92,88.59 84.14,88.38 85.92,87.38 C88.21,86.09 88.67,84.36 88.67,84.36 C88.67,84.36 85.19,84.39 84.21,82.06 Z" fill="#543930"/>
  <path d="M50.32,96.77 L50.32,87.67 L77.84,85.49 L79.8,88.94 C79.8,88.94 76.09,92.94 71.55,94.37 C68.07,95.47 64.32,95.65 58.25,96.31 L50.32,96.77 Z" fill="url(#SVGID_1_)"/>
  <path d="M49.68,96.77 L49.72,87.67 L22.21,85.36 L20.24,88.8 C20.24,88.8 23.93,92.82 28.47,94.27 C31.95,95.38 35.69,95.59 41.76,96.27 L49.68,96.77 Z" fill="url(#SVGID_2_)"/>
  <path d="M116.88,122.5 C116.88,115.74 113,102.5 105.13,97.79 L104,123.98 L105.5,123.98 L107,123.98 L113.97,123.98 L115.47,123.98 L116.97,123.98 L116.88,122.5 Z" fill="url(#SVGID_3_)"/>
  <path d="M50.12,95.74 C50.08,95.74 50.04,95.74 50,95.74 C27.45,95.77 4,103.02 4,120.8 L4,123.98 L5.5,123.98 L7,123.98 L93,123.98 L94.5,123.98 L96,123.98 L96,120.8 C96,104.05 72.77,95.74 50.12,95.74 Z" fill="url(#SVGID_4_)"/>
  <path d="M117.96,54.78 L106.85,54.46 C102.65,54.37 99.18,57.85 99.1,62.25 L98.46,98.61 L102.26,98.7 L102.9,62.34 C102.94,60.15 104.68,58.4 106.77,58.44 L117.88,58.76 L117.96,54.78 Z" fill="#9E9E9E"/>
  <path d="M106.64,60.14 L105.15,60.12 C104.04,60.1 103.15,59.15 103.16,57.99 L103.18,55.78 C103.19,54.62 104.1,53.69 105.21,53.71 L106.7,53.73 C107.81,53.75 108.7,54.7 108.69,55.86 L108.67,58.07 C108.66,59.23 107.75,60.15 106.64,60.14 Z" fill="#504F4F"/>
  <path d="M103.09,122.98 L103.48,90.19 C103.49,89.14 102.15,88.27 100.48,88.24 C98.81,88.21 97.45,89.05 97.44,90.1 L97.05,122.97 L103.09,122.97 Z" fill="#616161"/>
  <path d="M104.77,123.98 L105.08,95.02 C105.1,93.14 103.75,91.6 102.07,91.57 L98.81,91.53 C97.13,91.51 95.74,93.01 95.73,94.89 L95.42,123.97 L104.77,123.98 L104.77,123.98 Z" fill="#504F4F"/>
  <path d="M112.5,61.49 C109.77,61.49 106.84,59.77 106.84,56 C106.84,51.86 110.03,50.76 111.92,50.76 C116.42,50.76 121.09,54.54 122.77,56.04 C121.04,57.56 116.23,61.49 112.5,61.49 Z" fill="#40C4FF"/>
  <path d="M111.92,51.59 C115.61,51.59 119.51,54.38 121.49,56.04 C119.21,57.95 115.35,60.66 112.5,60.66 C110.71,60.66 107.68,59.68 107.68,56 C107.68,52.52 110.34,51.59 111.92,51.59 M111.92,49.92 C109.36,49.92 106,51.59 106,56 C106,60.41 109.5,62.33 112.5,62.33 C117.5,62.33 124,56.04 124,56.04 C124,56.04 117.92,49.92 111.92,49.92 L111.92,49.92 Z" fill="#2962FF"/>
  <path d="M112.62,53.67 C116.13,54.89 117.84,55.99 117.84,55.99 C117.84,55.99 116.72,57.21 113.1,58 C110.41,58.59 108.66,57.59 108.68,55.87 C108.72,54.16 110.81,53.03 112.62,53.67 Z" fill="#84FFFF"/>
  <path d="M113.87,110.04 C113.73,108.62 113.24,107.27 112.77,106.14 C111.3,102.57 109.63,99.79 105.82,96.98 C101.95,94.12 97.69,93.55 95.77,93.87 C93.61,94.22 92.23,95.07 91.66,96.39 C91.23,97.4 91.39,98.42 91.65,99.18 C90.55,99.56 89.07,100.31 88.6,101.66 C88.04,103.24 88.49,104.52 89.14,105.4 C88.2,106 87.03,106.95 86.69,108.14 C86.24,109.73 87.7,111.49 88.68,112.46 C88.2,113.1 87.63,113.96 87.5,114.59 C86.82,117.95 91.18,119.83 93.86,120.41 C94.29,120.5 94.72,120.31 94.94,119.93 L95.86,118.33 C99.29,119.39 104.3,120.81 106.39,120.81 C106.68,120.81 106.91,120.78 107.07,120.73 C109,120.06 110.25,118.49 111.35,117.11 C111.52,116.9 111.69,116.68 111.86,116.47 C113.37,114.65 114.09,112.31 113.87,110.04 Z" fill="#E94539"/>
  <path id="shirt" d="M52.68,123.98 L59.33,104.56 L39.44,104.56 L47.32,123.98 Z" fill="#F8F8F7"/>
  <path d="M50,92.37 L40.92,92.37 L40.92,102.35 C40.92,106.86 44.62,110.52 49.18,110.52 L50,110.52 L50.83,110.52 C55.39,110.52 59.09,106.86 59.09,102.35 L59.09,92.37 L50,92.37 Z" fill="#E59600"/>
  <path d="M35.71,108.44 C36.04,108.44 36.36,108.6 36.56,108.89 L46.74,123.98 L47.32,123.98 L40.92,95.97 L33.45,97.12 L26.56,111.97 L35.33,108.51 C35.46,108.46 35.58,108.44 35.71,108.44 Z" fill="url(#SVGID_5_)"/>
  <path d="M64.29,108.44 C63.96,108.44 63.64,108.6 63.44,108.89 L53.26,123.98 L52.68,123.98 L59.08,95.97 L66.55,97.12 L73.44,111.97 L64.67,108.51 C64.54,108.46 64.42,108.44 64.29,108.44 Z" fill="url(#SVGID_6_)"/>
  <path d="M79.37,85.28 C73.49,76.85 87.03,76.45 87.03,76.45 C85.1,78.31 83.33,80.07 84.22,82.06 C85.27,84.41 88.69,84.35 88.69,84.35 C88.69,84.35 83.36,89.14 79.37,85.28 Z" fill="url(#SVGID_7_)"/>
  <path d="M89.85,73.57 C88.09,75.68 84.38,78.48 84.08,80.41 C87.12,63.92 74.55,67.52 71.8,59.98 C71.25,58.46 70.74,56.89 70.68,55.28 C70.63,54.07 78.14,42.57 78.84,41.54 C79.7,40.28 93,58.45 93,58.45 C92.99,58.47 96.77,65.29 89.85,73.57 Z" fill="url(#SVGID_8_)"/>
  <path d="M20.83,85.28 C26.71,76.85 13.17,76.45 13.17,76.45 C15.1,78.31 16.87,80.07 15.98,82.06 C14.93,84.41 11.51,84.35 11.51,84.35 C11.51,84.35 16.84,89.14 20.83,85.28 Z" fill="url(#SVGID_9_)"/>
  <path d="M10.36,73.58 C12.12,75.69 15.83,78.49 16.13,80.42 C13.09,63.93 25.66,67.53 28.41,59.99 C28.96,58.47 29.47,56.9 29.53,55.29 C29.58,54.08 22.07,42.58 21.37,41.55 C20.52,40.29 7.22,58.47 7.22,58.47 C7.23,58.48 3.45,65.3 10.36,73.58 Z" fill="url(#SVGID_10_)"/>
  <path d="M77.33,50.48 L69.96,50.48 L30.04,50.48 L22.67,50.48 C16.78,50.48 11.96,55.61 11.96,61.89 C11.96,68.17 16.78,73.3 22.67,73.3 L30.04,73.3 L69.95,73.3 L77.32,73.3 C83.21,73.3 88.03,68.16 88.03,61.89 C88.03,55.62 83.22,50.48 77.33,50.48 Z" fill="#E59600"/>
  <path d="M50,11.11 L50,11.11 L50,11.11 C32.6,11.11 16.48,29.72 16.48,56.51 C16.48,83.15 33.09,96.32 50,96.32 C66.91,96.32 83.52,83.15 83.52,56.51 C83.52,29.72 67.4,11.11 50,11.11 Z" fill="#FFCA28"/>
  <path d="M41.42,49.82 C40.49,48.59 38.35,46.81 34.19,46.81 C30.03,46.81 27.88,48.6 26.96,49.82 C26.55,50.36 26.65,50.99 26.94,51.37 C27.2,51.72 27.98,52.05 28.84,51.76 C29.7,51.47 31.38,50.6 34.19,50.58 C37,50.6 38.68,51.47 39.54,51.76 C40.4,52.05 41.18,51.73 41.44,51.37 C41.73,50.99 41.83,50.36 41.42,49.82 Z" fill="#6D4C41"/>
  <path d="M72.57,49.82 C71.64,48.59 69.5,46.81 65.34,46.81 C61.18,46.81 59.03,48.6 58.11,49.82 C57.7,50.36 57.8,50.99 58.09,51.37 C58.35,51.72 59.13,52.05 59.99,51.76 C60.85,51.47 62.53,50.6 65.34,50.58 C68.15,50.6 69.83,51.47 70.69,51.76 C71.55,52.05 72.33,51.73 72.59,51.37 C72.87,50.99 72.98,50.36 72.57,49.82 Z" fill="#6D4C41"/>
  <path d="M39.12,58.86 A4.93 5.1 0 1 1 29.26,58.86 A4.93 5.1 0 1 1 39.12,58.86 Z" fill="#404040"/>
  <path d="M70.26,58.86 A4.93 5.1 0 1 1 60.4,58.86 A4.93 5.1 0 1 1 70.26,58.86 Z" fill="#404040"/>
  <path id="nose" d="M53.86,68.1 C53.75,68.06 53.65,68.03 53.54,68.02 L46.46,68.02 C46.35,68.03 46.24,68.06 46.14,68.1 C45.5,68.36 45.15,69.02 45.45,69.73 C45.75,70.44 47.16,72.42 50,72.42 C52.84,72.42 54.25,70.43 54.55,69.73 C54.85,69.03 54.5,68.36 53.86,68.1 Z" fill="#E59600"/>
  <path id="mouth" d="M58.53,76.19 C55.34,78.08 44.9,78.08 41.72,76.19 C39.89,75.1 38.02,76.77 38.78,78.43 C39.53,80.06 45.22,83.85 50.15,83.85 C55.08,83.85 60.7,80.06 61.45,78.43 C62.2,76.76 60.36,75.1 58.53,76.19 Z" fill="#795548"/>
  <path id="hair" d="M78.19,20.08 L78.38,17.39 C78.01,17.32 77.64,17.26 77.28,17.24 C76.5,12.61 71.44,8.7 66.55,7.18 C53.32,3.08 44.71,7.68 40.08,10.15 C39.12,10.66 33.84,13.91 29.28,10.98 C27.37,9.75 26.88,6 26.88,6 C26.88,6 17.13,9.2 20.3,18.04 C20.3,18.04 19.28,18.04 17.88,18.35 L17.88,21.72 C18.88,21.32 19.99,21.12 21.08,21.03 L12.48,34.6 L15.29,52.82 C14.67,63.34 18.05,68.44 18.05,68.44 C18.05,68.44 22.27,47.52 21.87,44.76 C21.87,44.76 30.13,43.8 38.94,38.86 C44.89,35.53 48.45,33.92 55.14,32.45 C65.32,30.21 67.59,37.42 67.59,37.42 C67.59,37.42 77.01,35.65 79.85,48.46 C81.02,53.73 81.52,62.53 82.16,67.89 C82.1,67.42 85.29,61.58 86.28,55.75 C88.26,44.1 82.67,25.22 78.19,20.08 Z" fill="#543930"/>
  <path d="M45.34,7.64 C40.73,9.17 35.84,14.02 30.07,11.46 C27.26,10.21 26.89,6.16 26.88,6.01 C23.45,10.2 23.15,19.2 34.05,18.92 C38.75,18.8 41.25,14.46 42.63,10.85 C43.12,9.54 45.13,8.16 45.34,7.64 Z" fill="url(#SVGID_11_)"/>
  <path d="M65.98,6.95 C73.3,8.93 77.05,12.51 78.24,17.48 C78.59,18.94 79.01,32.56 53.01,17.08 C43.34,11.32 45.74,7.47 46.88,7.08 C51.22,5.6 57.78,4.73 65.98,6.95 Z" fill="url(#SVGID_12_)"/>
  <path d="M26.84,6.01 C26.83,6.02 26.81,6.02 26.78,6.03 C26.78,6.03 26.78,6.03 26.78,6.03 C25.71,6.53 18.21,8.99 20.1,17.69 L27.72,19.69 C21.55,12.08 26.87,6 26.87,6 C26.87,6 26.85,6.01 26.84,6.01 Z" fill="url(#SVGID_13_)"/>
  <path d="M78.7,21.68 L21.3,21.68 L21.3,6.34 C21.3,6.34 28.79,4.06 50.08,4.06 C63.23,4.06 78.7,6.5 78.7,6.5 L78.7,21.68 L78.7,21.68 Z" fill="#423F3E" opacity="0.74"/>
  <path d="M12,44.06 L8,44.06 C5.79,44.06 4,42.27 4,40.06 L4,32.06 C4,29.85 5.79,28.06 8,28.06 L12,28.06 C14.21,28.06 16,29.85 16,32.06 L16,40.06 C16,42.27 14.21,44.06 12,44.06 Z" fill="#807978"/>
  <path d="M92,44.06 L88,44.06 C85.79,44.06 84,42.27 84,40.06 L84,32.06 C84,29.85 85.79,28.06 88,28.06 L92,28.06 C94.21,28.06 96,29.85 96,32.06 L96,40.06 C96,42.27 94.21,44.06 92,44.06 Z" fill="#807978"/>
  <path d="M49.6,32.84 C36.27,32.84 18.54,39.25 10.5,43.81 C10.5,43.81 10.5,49.58 10.5,53.69 C18.05,47.26 33.28,42.22 49.6,42.22 C66.1,42.22 78.61,48.48 89.42,53.84 C89.47,51.7 89.78,43.65 88.73,41.09 C80.68,36.43 63.09,32.84 49.6,32.84 Z" fill="#807978"/>
  <path d="M89.96,31.59 C89.91,30.52 89.68,29.46 89.28,28.47 L81.48,9.12 C80.9,7.94 79.84,6.94 78.45,6.08 C78.24,5.95 77.98,6.12 77.98,6.37 L77.98,15.44 C77.98,16.41 77.2,17.19 76.25,17.19 L23.75,17.19 C22.79,17.19 22.02,16.41 22.02,15.44 L22.02,6.2 C22.02,6.02 21.84,5.91 21.7,6 C20.24,6.88 19.13,7.91 18.53,9.13 L10.73,28.48 C10.33,29.48 10.1,30.53 10.05,31.6 L6,56.2 C6,56.2 6.02,56.35 6.08,56.58 C6.23,57.2 6.65,58.44 7.75,59.06 C7.75,59.06 18.96,39.7 48.33,37.48 C49.44,37.4 50.56,37.4 51.67,37.48 C81.04,39.7 92.25,59.06 92.25,59.06 C93.35,58.44 93.77,57.2 93.92,56.58 C93.98,56.35 94,56.2 94,56.2 L89.96,31.59 Z" fill="url(#SVGID_14_)"/>
  <path d="M67.59,28.08 L67.59,28.08 C67.04,28.08 66.59,27.74 66.59,27.32 L66.59,22.62 C66.59,22.2 67.04,21.86 67.59,21.86 L67.59,21.86 C68.14,21.86 68.59,22.2 68.59,22.62 L68.59,27.32 C68.59,27.74 68.14,28.08 67.59,28.08 Z" fill="#807978"/>
  <path d="M58.26,29.93 L58.26,29.93 C57.71,29.93 57.26,29.59 57.26,29.17 L57.26,20.77 C57.26,20.35 57.71,20.01 58.26,20.01 L58.26,20.01 C58.81,20.01 59.26,20.35 59.26,20.77 L59.26,29.17 C59.26,29.59 58.82,29.93 58.26,29.93 Z" fill="#807978"/>
  <path d="M50,28.43 L50,28.43 C49.45,28.43 49,28.09 49,27.67 L49,22.27 C49,21.85 49.45,21.51 50,21.51 L50,21.51 C50.55,21.51 51,21.85 51,22.27 L51,27.67 C51,28.09 50.55,28.43 50,28.43 Z" fill="#807978"/>
  <path d="M32.41,28.08 L32.41,28.08 C31.86,28.08 31.41,27.74 31.41,27.32 L31.41,22.62 C31.41,22.2 31.86,21.86 32.41,21.86 L32.41,21.86 C32.96,21.86 33.41,22.2 33.41,22.62 L33.41,27.32 C33.41,27.74 32.96,28.08 32.41,28.08 Z" fill="#807978"/>
  <path d="M41.74,29.93 L41.74,29.93 C41.19,29.93 40.74,29.59 40.74,29.17 L40.74,20.77 C40.74,20.35 41.19,20.01 41.74,20.01 L41.74,20.01 C42.29,20.01 42.74,20.35 42.74,20.77 L42.74,29.17 C42.74,29.59 42.29,29.93 41.74,29.93 Z" fill="#807978"/>
  <path d="M7.75,59.06 C7.75,59.06 19.28,38.97 50,37.37 C80.72,38.97 92.25,59.06 92.25,59.06 C93.35,58.44 93.77,57.2 93.92,56.58 C91.02,50.88 81.28,38.79 57.47,33.84 C54.03,33.12 46.14,33.12 42.7,33.84 C18.89,38.79 8.97,50.88 6.08,56.58 C6.23,57.21 6.65,58.45 7.75,59.06 Z" fill="url(#SVGID_15_)"/>
</svg>