<svg viewBox="0 0 128 128" xmlns="http://www.w3.org/2000/svg">
  <defs>
    <radialGradient id="face_1_" cx="0.754911" cy="86.745069" gradientTransform="matrix(0.71 -0.71 0.71 0.71 0 0)" gradientUnits="userSpaceOnUse" r="56.96">
      <stop offset="0.5" stop-color="#FDE030"/>
      <stop offset="0.92" stop-color="#F7C02B"/>
      <stop offset="1" stop-color="#F4A223"/>
    </radialGradient>
    <radialGradient id="SVGID_1_" cx="-40.818758" cy="-47.175357" gradientTransform="matrix(-0.13 -0.99 -1.53 0.21 0 0)" gradientUnits="userSpaceOnUse" r="31.6">
      <stop offset="0.46" stop-color="#29B6F6"/>
      <stop offset="1" stop-color="#1E88E5"/>
    </radialGradient>
    <radialGradient id="SVGID_2_" cx="-32.956266" cy="-49.888842" gradientTransform="matrix(-1 0.08 -0.13 -1.53 0 0)" gradientUnits="userSpaceOnUse" r="30.26">
      <stop offset="0.46" stop-color="#29B6F6"/>
      <stop offset="1" stop-color="#1E88E5"/>
    </radialGradient>
  </defs>
  <path id="face" d="M103.13,102.43 C83.4,122.16 49.74,131.07 22.59,103.91 C-4.56,76.75 4.34,43.1 24.07,23.37 C35,12.41 48.75,5.91 62.82,5 C78.17,4.08 92.66,9.95 104.61,21.9 C116.56,33.85 122.36,48.27 121.44,63.62 C120.52,77.68 114,91.54 103.13,102.43 Z" fill="url(#face_1_)"/>
  <path d="M74,5.54 C83.84,7.85 93,13.13 101.11,21.18 C113.11,33.18 118.86,47.56 117.94,62.9 C117,77 110.48,90.83 99.59,101.72 C86.82,114.49 68.21,122.72 49.3,119.57 C69.4,124.45 89.56,116 103.13,102.43 C114,91.54 120.52,77.68 121.44,63.61 C122.36,48.26 116.56,33.84 104.61,21.89 C95.6,12.88 85.14,7.33 74,5.54 Z" fill="#EB8F00"/>
  <path d="M96.71,39.56 C93.94,38.76 91,40.13 89.83,42.77 C84.68,52.14 78.21,60.71 70.62,68.24 C63.1,75.83 54.52,82.3 45.15,87.44 C42.52,88.62 41.16,91.55 41.94,94.32 C42.76,97.07 45.51,98.42 48.1,99.39 C62.61,104.82 78.58,100.78 90.85,88.58 L90.97,88.47 C103.16,76.2 107.2,60.23 101.77,45.71 C100.81,43.13 99.45,40.37 96.71,39.56 Z" fill="#422B0D"/>
  <path d="M90.08,87.58 L90.02,87.64 L90.02,87.7 L90.08,87.58 Z" fill="#422B0D"/>
  <path d="M71.61,69 L71.5,69.1 L71.4,69.21 L71.61,69 Z" fill="#422B0D"/>
  <path d="M71.61,69 L71.5,69.1 L71.4,69.21 L71.61,69 Z" fill="#422B0D"/>
  <path d="M90.08,87.58 L90.02,87.64 L90.02,87.7 L90.08,87.58 Z" fill="#422B0D"/>
  <path d="M99.4,74.38 C98.89,74.38 98.4,74.45 97.92,74.49 C92.49,74.84 87.39,77.21 83.62,81.13 C79.58,85.01 77.02,90.19 76.38,95.76 C76.32,96.25 76.26,96.76 76.23,97.24 C76.2,97.72 76.31,98.12 76.37,98.52 C81.78,96.14 86.69,92.77 90.85,88.58 L90.97,88.47 C94.98,84.48 98.24,79.8 100.59,74.66 C100.2,74.54 99.8,74.45 99.4,74.38 Z" fill="#ED7770"/>
  <path d="M89.83,42.77 C84.68,52.14 78.21,60.71 70.62,68.24 C63.1,75.83 54.52,82.3 45.15,87.44 C42.52,88.62 41.16,91.55 41.94,94.32 C42.07,94.73 42.24,95.12 42.46,95.49 C42.87,95.35 43.26,95.19 43.65,95 C56.42,90.76 68,83.54 77.41,73.92 C86.64,64.89 93.68,53.88 98,41.71 C98.17,41.3 98.32,40.88 98.45,40.45 C97.93,40.05 97.34,39.74 96.71,39.56 C93.94,38.76 91,40.13 89.83,42.77 Z" fill="#FFFFFF"/>
  <path d="M71.4,69.74 L71.4,69.74 C77.27,64.06 81.11,58.48 85.73,51.68 C86.88,49.98 87.97,48.24 89.02,46.45 L89.78,45.1 C89.98,44.75 90.2,44.41 90.46,44.1 C90.92,43.53 91.51,43.09 92.19,42.81 C93.77,42.23 95.5,42.2 97.1,42.73 C100.35,44.29 103.18,49.85 102.82,48.81 C102.82,48.81 102.23,46.48 102.21,46.45 C101.41,44.45 100.59,42.19 98.52,40.45 C96.3,38.76 93.34,38.42 90.8,39.57 C89.61,40.11 88.58,40.94 87.8,41.98 C87.42,42.46 87.08,42.98 86.8,43.53 L86.13,44.85 C85.2,46.6 84.21,48.33 83.13,50.02 C79.29,56.43 74.76,62.4 69.62,67.82 L69.62,67.82 L69.46,67.98 L69.46,67.98 C64.15,73.06 58.3,77.53 52,81.31 C50.3,82.31 48.58,83.31 46.83,84.31 L45.47,85 C44.92,85.28 44.4,85.61 43.92,86 C42.87,86.78 42.04,87.81 41.5,89 C40.43,91.52 40.81,94.43 42.5,96.59 C45.19,100.1 51.33,100.59 51.36,100.59 C52.36,100.95 46.3,98.37 44.74,95.12 C44.19,93.58 44.19,91.89 44.74,90.35 C45,89.65 45.43,89.03 46,88.55 C46.31,88.29 46.65,88.07 47,87.88 L48.35,87.12 C50.13,86.12 51.87,84.97 53.58,83.82 C60.37,79.2 65.58,75.82 71.23,69.9" fill="#EB8F00"/>
  <path d="M115.13,31.34 C116.33,38.98 109.31,46.22 102.94,47.08 C98.46,47.68 93.46,46.65 85.94,44.78 C84.83,44.57 83.7,44.24 82.46,43.93 C77.88,42.66 73.38,41.13 68.97,39.35 C68.1,39.03 67.62,38.11 67.84,37.22 C67.97,36.84 68.23,36.51 68.56,36.29 C71.93,32.83 75.73,29.81 79.85,27.29 C90.26,20.85 94.22,19.98 98.7,19.38 C104.88,18.37 113.83,23 115.13,31.34 Z" fill="url(#SVGID_1_)"/>
  <path d="M105.52,24.19 C108.43,25.57 108.45,29.56 104.01,30.19 C101.16,30.57 86.49,31.95 88.2,29.24 C91,24.79 101.41,22.24 105.52,24.19 Z" fill="#81D4FA"/>
  <path d="M72.65,31.1 L63.42,39.38 L66.84,26.23 C66.87,26.07 66.9,25.92 66.91,25.76 C67.29,23.48 65.74,21.32 63.46,20.95 C62.92,20.86 62.36,20.88 61.82,21 C59.39,21.67 57.63,23.79 57.43,26.3 C56.86,32.11 55.52,45.8 55,51.13 C54.84,51.66 55.14,52.22 55.67,52.38 C56.02,52.49 56.4,52.39 56.66,52.13 L77.35,39.05 L77.76,38.76 C80.26,36.84 80.87,33.18 78.85,31.06 C77.31,29.44 74.65,29.57 72.65,31.1 Z" fill="#422B0D"/>
  <path d="M25.9,104 C25.54,99.69 25.53,95.81 29.42,84.74 C30.94,80.36 33,76.19 35.55,72.32 C35.69,71.96 35.95,71.66 36.28,71.46 C37.07,71.06 38.03,71.33 38.51,72.07 C41.08,75.83 43.43,79.73 45.57,83.75 C46.11,84.85 46.65,85.83 47.08,86.83 C50.38,93.52 52.37,97.99 52.73,102.3 C53.24,108.43 47.91,116.49 40.52,116.95 C32.47,117.41 26.28,110 25.9,104 Z" fill="url(#SVGID_2_)"/>
  <path d="M33,92.17 C35.17,90 36.9,104 37.13,106.75 C37.48,111.03 33.74,111.83 31.86,109.4 C29.18,106 29.43,95.69 33,92.17 Z" fill="#81D4FA"/>
  <path d="M30.17,78.76 L36.83,68.29 L24.42,73.83 L24,74 C21.81,74.74 19.43,73.57 18.68,71.38 C18.5,70.86 18.43,70.31 18.47,69.76 C18.73,67.25 20.53,65.17 22.98,64.56 L47,58.05 C47.5,57.81 48.1,58.02 48.34,58.52 C48.5,58.85 48.47,59.24 48.25,59.53 L38.78,82.08 C38.72,82.24 38.65,82.39 38.57,82.54 C37.09,85.32 33.57,86.54 31.15,84.88 C29.3,83.62 29,81 30.17,78.76 Z" fill="#422B0D"/>
</svg>