<svg viewBox="0 0 128 128" xmlns="http://www.w3.org/2000/svg">
  <defs>
    <linearGradient id="SVGID_11_" gradientTransform="matrix(1 0 0 -1 0 0)" gradientUnits="userSpaceOnUse" x1="102.9177" x2="108.4163" y1="-86.0635" y2="-56.3718">
      <stop offset="0" stop-color="#212121"/>
      <stop offset="0.9959" stop-color="#404040"/>
    </linearGradient>
    <linearGradient id="SVGID_12_" gradientTransform="matrix(0.9982 -0.0594 -0.0594 -0.9982 0 0)" gradientUnits="userSpaceOnUse" x1="100.628168" x2="100.628168" y1="-72.81693" y2="-82.37533">
      <stop offset="0" stop-color="#FFCA28"/>
      <stop offset="0.3408" stop-color="#FFC825"/>
      <stop offset="0.6293" stop-color="#FFC21A"/>
      <stop offset="0.898" stop-color="#FFB809"/>
      <stop offset="1" stop-color="#FFB300"/>
    </linearGradient>
    <radialGradient id="SVGID_13_" cx="54.316" cy="-50.92346" gradientTransform="matrix(1 0 0 -0.422 0 0)" gradientUnits="userSpaceOnUse" r="54.7102">
      <stop offset="0.462" stop-color="#FAFAFA"/>
      <stop offset="0.6345" stop-color="#EAEAEA"/>
      <stop offset="0.9693" stop-color="#C1C1C1"/>
      <stop offset="1" stop-color="#BDBDBD"/>
    </radialGradient>
    <radialGradient id="SVGID_14_" cx="54.127904" cy="-34.075634" gradientTransform="matrix(1 0.0065 0.0064 -0.9763 0 0)" gradientUnits="userSpaceOnUse" r="40.6535">
      <stop offset="0.3031" stop-color="#F8F8F7"/>
      <stop offset="0.5045" stop-color="#E8E8E7"/>
      <stop offset="0.8953" stop-color="#BFBFBF"/>
      <stop offset="1" stop-color="#B3B3B3"/>
    </radialGradient>
    <linearGradient id="SVGID_15_" gradientTransform="matrix(1 0 0 -1 0 0)" gradientUnits="userSpaceOnUse" x1="29.2791" x2="36.7791" y1="-9.1397" y2="-30.6397">
      <stop offset="0" stop-color="#757575" stop-opacity="0"/>
      <stop offset="1" stop-color="#757575" stop-opacity="0.9"/>
    </linearGradient>
    <linearGradient id="SVGID_16_" gradientTransform="matrix(1 0 0 -1 0 0)" gradientUnits="userSpaceOnUse" x1="10.905" x2="25.405" y1="-17.7584" y2="-32.8834">
      <stop offset="0" stop-color="#757575" stop-opacity="0"/>
      <stop offset="1" stop-color="#757575" stop-opacity="0.9"/>
    </linearGradient>
    <linearGradient id="SVGID_17_" gradientTransform="matrix(-1 0 0 -1 0 0)" gradientUnits="userSpaceOnUse" x1="-78.8315" x2="-71.3315" y1="-9.1397" y2="-30.6397">
      <stop offset="0" stop-color="#757575" stop-opacity="0"/>
      <stop offset="1" stop-color="#757575" stop-opacity="0.9"/>
    </linearGradient>
    <linearGradient id="SVGID_18_" gradientTransform="matrix(-1 0 0 -1 0 0)" gradientUnits="userSpaceOnUse" x1="-97.2057" x2="-82.7058" y1="-17.7587" y2="-32.8837">
      <stop offset="0" stop-color="#757575" stop-opacity="0"/>
      <stop offset="1" stop-color="#757575" stop-opacity="0.9"/>
    </linearGradient>
    <radialGradient id="SVGID_7_" cx="54.771" cy="-214.599181" gradientTransform="matrix(1 0 0 -0.5864 0 0)" gradientUnits="userSpaceOnUse" r="67.3502">
      <stop offset="0.5595" stop-color="#F8F8F7"/>
      <stop offset="1" stop-color="#C6C6C6"/>
    </radialGradient>
    <radialGradient id="SVGID_8_" cx="15.186078" cy="-169.328" gradientTransform="matrix(0.9631 -0.2692 -0.2034 -0.7275 0 0)" gradientUnits="userSpaceOnUse" r="19.9493">
      <stop offset="0.1531" stop-color="#BDBDBD"/>
      <stop offset="1" stop-color="#BDBDBD" stop-opacity="0"/>
    </radialGradient>
    <linearGradient id="SVGID_9_" gradientTransform="matrix(1 0 0 -1 0 0)" gradientUnits="userSpaceOnUse" x1="48.6175" x2="48.6175" y1="-123.9601" y2="-101.9027">
      <stop offset="0.2987" stop-color="#BDBDBD"/>
      <stop offset="0.6566" stop-color="#CDCDCD"/>
      <stop offset="1" stop-color="#E0E0E0"/>
    </linearGradient>
    <radialGradient id="finger_1_" cx="66.193845" cy="-141.33617" gradientTransform="matrix(0.9395 -0.3426 -0.3426 -0.9395 0 0)" gradientUnits="userSpaceOnUse" r="14.83">
      <stop offset="0" stop-color="#FFD29C"/>
      <stop offset="1" stop-color="#F9DDBD"/>
    </radialGradient>
    <radialGradient id="palm_1_" cx="-116.97683" cy="-79.291793" gradientTransform="matrix(-0.0247 -0.9997 -1.0569 0.0261 0 0)" gradientUnits="userSpaceOnUse" r="20.2396">
      <stop offset="0.3074" stop-color="#F9DDBD"/>
      <stop offset="1" stop-color="#FFD29C"/>
    </radialGradient>
    <radialGradient id="palm_2_" cx="98.906126" cy="-110.061576" gradientTransform="matrix(1 -0.0047 -0.0047 -1 0 0)" gradientUnits="userSpaceOnUse" r="13.5436">
      <stop offset="0" stop-color="#FFD29C"/>
      <stop offset="1" stop-color="#F9DDBD"/>
    </radialGradient>
    <radialGradient id="finger_2_" cx="119.74897" cy="-82.382207" gradientTransform="matrix(1.013 0.178 0.177 -0.9844 0 0)" gradientUnits="userSpaceOnUse" r="14.8167">
      <stop offset="0" stop-color="#FFD29C"/>
      <stop offset="1" stop-color="#F9DDBD"/>
    </radialGradient>
    <radialGradient id="finger_3_" cx="107.997619" cy="-117.433349" gradientTransform="matrix(0.9984 -0.0557 -0.0557 -0.9984 0 0)" gradientUnits="userSpaceOnUse" r="16.8566">
      <stop offset="0" stop-color="#FFD29C"/>
      <stop offset="1" stop-color="#F9DDBD"/>
    </radialGradient>
    <radialGradient id="finger_4_" cx="123.031188" cy="-101.447308" gradientTransform="matrix(0.9963 0.0864 0.0864 -0.9963 0 0)" gradientUnits="userSpaceOnUse" r="16.1085">
      <stop offset="0" stop-color="#FFD29C"/>
      <stop offset="1" stop-color="#F9DDBD"/>
    </radialGradient>
    <radialGradient id="finger_5_" cx="86.444626" cy="-131.807174" gradientTransform="matrix(0.9768 -0.2142 -0.2142 -0.9768 0 0)" gradientUnits="userSpaceOnUse" r="16.1142">
      <stop offset="0" stop-color="#FFD29C"/>
      <stop offset="1" stop-color="#F9DDBD"/>
    </radialGradient>
    <radialGradient id="SVGID_1_" cx="68.6376" cy="167.243326" gradientTransform="matrix(1 0 0 0.4912 0 0)" gradientUnits="userSpaceOnUse" r="23.419">
      <stop offset="0.7275" stop-color="#454140" stop-opacity="0"/>
      <stop offset="1" stop-color="#454140"/>
    </radialGradient>
    <radialGradient id="SVGID_2_" cx="-49.725278" cy="-148.442773" gradientTransform="matrix(-0.9057 0.4238 -0.3144 -0.6719 0 0)" gradientUnits="userSpaceOnUse" r="6.9209">
      <stop offset="0.6628" stop-color="#454140"/>
      <stop offset="1" stop-color="#454140" stop-opacity="0"/>
    </radialGradient>
    <radialGradient id="SVGID_3_" cx="-64.972266" cy="83.057046" gradientTransform="matrix(-0.0746 -0.9972 0.8311 -0.0622 0 0)" gradientUnits="userSpaceOnUse" r="29.4905">
      <stop offset="0.7247" stop-color="#454140" stop-opacity="0"/>
      <stop offset="1" stop-color="#454140"/>
    </radialGradient>
    <radialGradient id="SVGID_4_" cx="-56.764381" cy="-46.314734" gradientTransform="matrix(0.0746 -0.9972 -0.8311 -0.0622 0 0)" gradientUnits="userSpaceOnUse" r="29.721">
      <stop offset="0.7247" stop-color="#454140" stop-opacity="0"/>
      <stop offset="1" stop-color="#454140"/>
    </radialGradient>
    <radialGradient id="SVGID_5_" cx="-39.4939" cy="167.243326" gradientTransform="matrix(-1 0 0 0.4912 0 0)" gradientUnits="userSpaceOnUse" r="23.419">
      <stop offset="0.7275" stop-color="#454140" stop-opacity="0"/>
      <stop offset="1" stop-color="#454140"/>
    </radialGradient>
    <radialGradient id="SVGID_6_" cx="48.222989" cy="-86.663906" gradientTransform="matrix(0.9057 0.4238 0.3144 -0.6719 0 0)" gradientUnits="userSpaceOnUse" r="6.9209">
      <stop offset="0.6628" stop-color="#454140"/>
      <stop offset="1" stop-color="#454140" stop-opacity="0"/>
    </radialGradient>
    <linearGradient id="SVGID_10_" gradientTransform="matrix(1 0 0 -1 0 0)" gradientUnits="userSpaceOnUse" x1="106.8509" x2="102.5564" y1="-53.5288" y2="-99.1775">
      <stop offset="0.1194" stop-color="#757575"/>
      <stop offset="0.2256" stop-color="#7A7A7A"/>
      <stop offset="0.3593" stop-color="#8A8A8A"/>
      <stop offset="0.4788" stop-color="#9E9E9E"/>
      <stop offset="0.488" stop-color="#969696"/>
      <stop offset="0.5244" stop-color="#7B7B7B"/>
      <stop offset="0.5662" stop-color="#656565"/>
      <stop offset="0.6151" stop-color="#545454"/>
      <stop offset="0.6756" stop-color="#494949"/>
      <stop offset="0.7604" stop-color="#424242"/>
      <stop offset="0.9959" stop-color="#404040"/>
    </linearGradient>
    <linearGradient id="SVGID_19_" gradientTransform="matrix(1 0 0 -1 0 0)" gradientUnits="userSpaceOnUse" x1="54.056" x2="54.056" y1="-7.427" y2="-28.199">
      <stop offset="0" stop-color="#757575" stop-opacity="0"/>
      <stop offset="1" stop-color="#757575" stop-opacity="0.9"/>
    </linearGradient>
  </defs>
  <path id="hair_7_" d="M88.95,79.85 C87.7,77.58 88.75,74.63 92.01,72.41 C102.74,65.1 93.26,52.66 91.53,47.81 C91.56,47.75 90.67,45.95 90.7,45.89 L88.9,45.8 C88.33,45.72 73.76,44.52 54.06,44.51 C34.35,44.51 19.36,45.71 18.78,45.8 C18.78,45.8 16.13,47.75 16.15,47.81 C15.14,51.87 6.39,61.78 16.1,72.41 C18.76,75.32 20.4,77.58 19.16,79.85 C17.95,82.06 14.35,82.38 14.35,82.38 C14.35,82.38 15.18,84.64 17.18,85.86 C19.03,86.99 21.31,87.25 22.88,87.29 C22.88,87.29 29.03,95.8 45.11,95.8 L54.06,95.8 L63.01,95.8 C79.09,95.8 85.24,87.29 85.24,87.29 C86.81,87.25 89.09,86.99 90.94,85.86 C92.94,84.64 93.77,82.38 93.77,82.38 C93.77,82.38 90.16,82.06 88.95,79.85 Z" fill="#312D2D"/>
  <path d="M54.04,95.79 L54.04,86.35 L82.61,84.09 L85.21,87.29 C85.21,87.29 79.06,95.8 62.98,95.8 L54.04,95.79 Z" fill="url(#SVGID_1_)"/>
  <path d="M85.15,83.16 C80.87,76.66 90.36,74.23 90.36,74.23 C90.36,74.23 90.37,74.24 90.37,74.24 C88.72,76.29 87.97,78.08 88.94,79.85 C90.15,82.06 93.75,82.38 93.75,82.38 C93.75,82.38 88.85,86.74 85.15,83.16 Z" fill="url(#SVGID_2_)"/>
  <path d="M91.55,47.81 C91.56,51.87 102.38,59.58 92.27,72.16 C91.74,72.82 89.26,75.17 88.7,77.08 C88.7,77.08 79.16,63.77 76.31,55.95 C75.74,54.37 75.21,52.75 75.14,51.07 C75.09,49.81 75.28,48.31 76.01,47.24 C76.9,45.93 91.05,46.7 91.05,46.7 C91.04,46.72 91.55,47.81 91.55,47.81 Z" fill="url(#SVGID_3_)"/>
  <path d="M16.15,47.81 C15.14,51.87 6.5,61.66 15.87,72.16 C16.43,72.79 18.88,75.17 19.44,77.08 C19.44,77.08 28.98,63.77 31.83,55.95 C32.41,54.37 32.93,52.75 33,51.07 C33.05,49.81 32.86,48.31 32.13,47.24 C31.24,45.93 30.2,46.28 28.69,46.28 C25.81,46.28 17.9,46.7 16.92,46.7 C16.92,46.72 16.15,47.81 16.15,47.81 Z" fill="url(#SVGID_4_)"/>
  <path d="M54.09,95.79 L54.09,86.35 L25.52,84.09 L22.92,87.29 C22.92,87.29 29.07,95.8 45.15,95.8 L54.09,95.79 Z" fill="url(#SVGID_5_)"/>
  <path d="M22.98,83.16 C27.26,76.66 17.77,74.23 17.77,74.23 C17.77,74.23 17.76,74.24 17.76,74.24 C19.41,76.29 20.16,78.08 19.19,79.85 C17.98,82.06 14.38,82.38 14.38,82.38 C14.38,82.38 19.28,86.74 22.98,83.16 Z" fill="url(#SVGID_6_)"/>
  <path d="M103.03,120.57 C103.03,108.55 88.74,100.64 70.81,97.87 L70.81,94.63 C70.21,94.63 62,96.32 62,96.32 L46.44,96.32 L37.5,94.46 L37.51,98.25 C19.88,100.95 5.52,108.14 5.52,120.57 L5.52,124 L103.02,124 L103.02,120.57 Z" fill="url(#SVGID_7_)"/>
  <path d="M54.25,89.08 L45.17,89.08 L45.17,96.1 C45.17,96.1 53.16,97.02 53.16,107.24 L55.86,107.24 C56.16,96 63.34,96 63.34,96 L63.34,89.09 L54.25,89.08 L54.25,89.08 Z" fill="#EDC391"/>
  <path d="M53.94,108.06 C53.9,107.7 53.63,104.84 53.58,104.37 C53.04,99.51 50.28,96.54 46.97,95.79 L37.22,93.31 C36.59,93.31 36.07,93.97 36.07,94.78 L37.57,106.67 L51.14,110.24 L53.94,108.06 Z" fill="#F8F8F7"/>
  <path d="M46.83,119.5 A2.27 2.27 0 1 1 42.29,119.5 A2.27 2.27 0 1 1 46.83,119.5 Z" fill="#9E9E9E"/>
  <path d="M73.28,119.5 A2.27 2.27 0 1 1 68.74,119.5 A2.27 2.27 0 1 1 73.28,119.5 Z" fill="#9E9E9E"/>
  <path d="M54.4,108.02 C54.44,107.66 54.71,104.8 54.76,104.33 C55.3,99.47 58.06,96.5 61.37,95.75 L71.12,93.27 C71.75,93.27 72.26,93.93 72.26,94.74 L70.76,106.63 L57.19,110.2 L54.4,108.02 Z" fill="#F8F8F7"/>
  <path d="M56.11,104.36 C53.92,104.28 49.91,103.54 45.63,104.34 C34.66,106.41 28.08,114.8 29.54,122.06 C29.68,122.74 29.91,123.38 30.19,124 L35.86,124 L37.07,114.07 C38.47,112.55 56.23,108.33 56.23,108.33 L56.11,104.36 Z" fill="url(#SVGID_8_)"/>
  <path d="M54.76,104.33 C54.71,104.76 54.57,106.32 54.52,106.81 L54.61,107.75 L38.58,112.34 C36.95,112.94 35.86,114.49 35.86,116.23 L35.86,124 L36.89,124 C36.89,124 38.08,116.74 38.26,115.77 C38.44,114.8 39.21,114.63 39.66,114.46 L57.13,109.23 C57.13,96.61 61.38,95.75 61.38,95.75 C58.06,96.5 55.3,99.47 54.76,104.33 Z" fill="url(#SVGID_9_)"/>
  <path d="M81.27,50.48 L73.9,50.48 L33.99,50.48 L26.62,50.48 C20.73,50.48 15.91,55.61 15.91,61.89 C15.91,68.17 20.73,73.3 26.62,73.3 L33.99,73.3 L73.9,73.3 L81.27,73.3 C87.16,73.3 91.98,68.16 91.98,61.89 C91.98,55.62 87.16,50.48 81.27,50.48 Z" fill="#EDC391"/>
  <path d="M53.94,11.11 L53.94,11.11 L53.94,11.11 C36.54,11.11 20.42,29.72 20.42,56.51 C20.42,83.15 37.03,96.32 53.94,96.32 C70.85,96.32 87.46,83.15 87.46,56.51 C87.46,29.72 71.35,11.11 53.94,11.11 Z" fill="#F9DDBD"/>
  <path id="hair_6_" d="M16.19,47.88 C16.6,51.87 19.32,52.48 19.32,52.48 C18.86,60.49 20.35,65.42 21.14,67.42 C21.28,67.77 21.77,67.74 21.86,67.38 C22.85,63.41 26.22,49.58 25.89,47.17 C25.89,47.17 37.23,44.92 48.06,36.95 C50.26,35.33 52.65,33.95 55.19,32.94 C68.78,27.53 71.62,36.76 71.62,36.76 C71.62,36.76 81.04,34.95 83.88,48.03 C84.95,52.93 85.67,60.78 86.28,66.27 C86.32,66.66 86.85,66.74 87,66.38 C87.95,64.2 89.85,59.88 90.3,55.47 C90.46,53.92 92.59,51.87 91.42,47.38 C90.09,42.25 84.72,17.82 53.81,17.82 C22.9,17.82 15.55,41.61 16.19,47.88 Z" fill="#312D2D"/>
  <path d="M43.3,58.86 A4.93 5.1 0 1 1 33.44,58.86 A4.93 5.1 0 1 1 43.3,58.86 Z" fill="#312D2D"/>
  <path d="M74.45,58.86 A4.93 5.1 0 1 1 64.59,58.86 A4.93 5.1 0 1 1 74.45,58.86 Z" fill="#312D2D"/>
  <path id="mouth_3_" d="M62.47,76.19 C59.28,78.08 48.84,78.08 45.66,76.19 C43.83,75.1 41.96,76.77 42.72,78.43 C43.47,80.06 49.16,83.85 54.09,83.85 C59.02,83.85 64.64,80.06 65.39,78.43 C66.15,76.76 64.3,75.1 62.47,76.19 Z" fill="#444444"/>
  <path d="M45.69,49.82 C44.76,48.59 42.62,46.81 38.46,46.81 C34.3,46.81 32.15,48.6 31.23,49.82 C30.82,50.36 30.92,50.99 31.21,51.37 C31.47,51.72 32.25,52.05 33.11,51.76 C33.97,51.47 35.65,50.6 38.46,50.58 C41.27,50.6 42.95,51.47 43.81,51.76 C44.67,52.05 45.45,51.73 45.71,51.37 C45.99,50.99 46.1,50.36 45.69,49.82 Z" fill="#454140"/>
  <path d="M76.66,49.82 C75.73,48.59 73.59,46.81 69.43,46.81 C65.27,46.81 63.12,48.6 62.2,49.82 C61.79,50.36 61.89,50.99 62.18,51.37 C62.44,51.72 63.22,52.05 64.08,51.76 C64.94,51.47 66.62,50.6 69.43,50.58 C72.24,50.6 73.92,51.47 74.78,51.76 C75.64,52.05 76.42,51.73 76.68,51.37 C76.97,50.99 77.07,50.36 76.66,49.82 Z" fill="#454140"/>
  <path id="nose_3_" d="M57.8,68.1 C57.69,68.06 57.59,68.03 57.48,68.02 L50.4,68.02 C50.29,68.03 50.18,68.06 50.08,68.1 C49.44,68.36 49.09,69.02 49.39,69.73 C49.69,70.44 51.1,72.42 53.94,72.42 C56.78,72.42 58.19,70.43 58.49,69.73 C58.8,69.03 58.44,68.36 57.8,68.1 Z" fill="#DBA689"/>
  <path d="M106.59,53.62 C96.34,52.8 87.36,60.44 86.54,70.69 C85.79,79.97 92,88.19 100.79,90.27 L99.54,100.05 C99.55,100.05 106.61,100.85 106.7,100.87 L107.51,90.64 C116.05,89.53 122.95,82.59 123.66,73.67 C124.48,63.42 116.84,54.44 106.59,53.62 Z" fill="url(#SVGID_10_)"/>
  <path d="M120.58,73.3 A15.3 15.3 0 1 1 89.98,73.3 A15.3 15.3 0 1 1 120.58,73.3 Z" fill="url(#SVGID_11_)"/>
  <path d="M116.12,71.99 C118.22,79.46 112.83,87.25 105.71,82.56 C98.59,77.87 92.3,79.05 94.56,72.36 C96.82,65.67 98.6,59.79 103.85,60.98 C109.11,62.16 114.02,64.52 116.12,71.99 Z" fill="#FFFFFF"/>
  <path d="M110.24,71.81 A5.16 5.16 0 1 1 99.92,71.81 A5.16 5.16 0 1 1 110.24,71.81 Z" fill="url(#SVGID_12_)"/>
  <path d="M116.12,71.99 C117.11,74.91 117.02,78.34 115.36,81.14 C114.55,82.53 113.23,83.71 111.61,84.2 C109.99,84.7 108.24,84.4 106.76,83.73 C105.29,82.94 104.11,82.1 102.73,81.41 C101.38,80.7 99.96,80.13 98.55,79.5 C97.16,78.86 95.62,78.27 94.56,76.96 C94.09,76.27 93.91,75.43 93.97,74.64 C94.01,74.25 94.09,73.86 94.17,73.48 L94.56,72.38 L94.32,73.51 C94.28,73.89 94.23,74.27 94.23,74.65 C94.25,75.4 94.49,76.12 94.94,76.67 C95.92,77.74 97.41,78.26 98.84,78.8 C100.29,79.33 101.74,79.9 103.16,80.58 C104.56,81.25 105.93,82.19 107.19,82.84 C108.51,83.45 109.98,83.7 111.35,83.31 C112.72,82.95 113.89,81.96 114.72,80.75 C115.55,79.53 116.05,78.07 116.26,76.57 C116.49,75.06 116.41,73.51 116.12,71.99 Z" fill="#F7CB4D"/>
  <path d="M99.2,101.62 C99.2,101.25 100.79,90.27 100.79,90.27 L101,90.16 C102.94,89.19 105.24,89.27 107.1,90.39 L107.5,90.63 L106.69,102.49 L99.2,101.62 Z" fill="#757575"/>
  <path d="M94.79,14.5 C85.14,8.1 70.31,4.01 53.94,4.01 C37.57,4.01 22.51,8.1 12.86,14.5 C6.79,18.52 4.2,24.29 5.66,29.68 C6.76,33.69 15.9,40.22 15.9,40.22 C27.06,45.46 28.12,36.53 53.82,36.5 C79.52,36.53 80.58,45.46 91.74,40.22 C91.74,40.22 100.89,33.69 101.98,29.67 C103.44,24.29 100.86,18.52 94.79,14.5 Z" fill="url(#SVGID_13_)"/>
  <path d="M16.19,47.88 L15.14,39.66 C15.14,39.66 22.07,28.37 54.4,28.37 C86.73,28.37 92.6,39.59 92.6,39.59 L91.44,47.37 C66.75,41.91 40.81,42.42 16.19,47.88 Z" fill="url(#SVGID_14_)"/>
  <path d="M31.6,10.53 C31.6,10.53 34.15,20.27 40.3,29.35 C28.95,28.99 26.66,16.75 31.6,10.53 Z" fill="url(#SVGID_15_)"/>
  <path d="M17,15.59 C17.54,20.76 17.1,26.09 26.44,32.52 C13.77,36.34 8.52,24.42 17,15.59 Z" fill="url(#SVGID_16_)"/>
  <path d="M76.51,10.53 C76.51,10.53 73.96,20.27 67.81,29.35 C79.16,28.99 81.45,16.75 76.51,10.53 Z" fill="url(#SVGID_17_)"/>
  <path d="M91.12,15.59 C90.58,20.76 91.02,26.09 81.68,32.52 C94.35,36.34 99.6,24.42 91.12,15.59 Z" fill="url(#SVGID_18_)"/>
  <path d="M54.06,7.43 C55.51,9.16 56.26,10.89 56.8,12.62 C57.33,14.35 57.55,16.08 57.56,17.81 C57.56,19.54 57.34,21.27 56.81,23 C56.27,24.73 55.52,26.46 54.06,28.19 C52.6,26.46 51.85,24.73 51.31,23 C50.78,21.27 50.56,19.54 50.56,17.81 C50.57,16.08 50.79,14.35 51.32,12.62 C51.85,10.89 52.6,9.16 54.06,7.43 Z" fill="url(#SVGID_19_)"/>
  <path id="palm_7_" d="M96.95,102.41 C95.84,102.58 94.76,102.85 93.75,103.3 C92.29,103.94 85.35,101.83 84.85,108.53 C84.79,110.38 84.56,116.22 86.1,119.1 C89.32,125.11 101.66,123.76 102.59,123.92 C108.46,124.89 106.02,105.97 102.73,103.53 C102.32,103.26 101.65,102.91 101.06,102.58 C99.91,101.95 98.1,102.24 96.95,102.41 Z" fill="url(#palm_1_)"/>
  <path id="finger_19_" d="M105.02,119.92 L98.38,119.71 C97.53,119.66 96.82,120.23 96.67,121.02 L96.67,121.02 C96.49,121.88 97.12,122.7 98.03,122.88 L104.59,123.92 C105.64,124.11 106.65,123.43 106.77,122.41 L106.83,121.89 C106.93,120.85 106.11,119.95 105.02,119.92 Z" fill="url(#finger_1_)"/>
  <path id="palm_6_" d="M96.56,105.25 C96.39,105.25 86.51,113.39 86.51,113.39 C86.51,113.39 86.73,117.37 90.55,120.62 C91.63,121.53 94.74,122.83 96.2,122.88 C106.18,123.25 104.95,105.21 96.56,105.25 Z" fill="url(#palm_2_)"/>
  <path id="finger_18_" d="M84.81,112.94 C84.81,112.94 86.18,114.02 88.22,114.85 C94.42,117.38 95.26,109.77 95.41,108.59 C96.22,102.54 101.57,103.94 106.11,103.69 C107.05,103.64 110.28,103.18 111.18,101.06 C112.13,97.53 108.5,97.54 100.85,97 C98.77,96.85 96.69,96.87 94.62,97.14 C84.74,98.41 84.51,108.39 84.81,112.94 Z" fill="url(#finger_2_)"/>
  <path id="finger_17_" d="M107.19,109.17 L97.69,109.88 C96.41,109.96 96.38,110.93 96.3,112.14 L96.3,112.14 C96.19,113.45 96.34,114.58 97.73,114.68 L107.27,115.23 C108.88,115.33 110.26,114.12 110.26,112.57 L110.26,111.78 C110.22,110.21 108.83,109.01 107.19,109.17 Z" fill="url(#finger_3_)"/>
  <path id="finger_16_" d="M107.12,103.57 L98.96,104.63 C97.74,104.77 96.87,105.75 96.85,106.91 L96.85,106.91 C96.81,108.17 97.91,109.19 99.24,109.22 L107.49,109.37 C109.03,109.39 110.3,108.16 110.22,106.68 L110.18,105.93 C110.07,104.42 108.68,103.33 107.12,103.57 Z" fill="url(#finger_4_)"/>
  <path id="finger_15_" d="M106.27,114.92 L98.74,115.26 C97.62,115.29 96.74,116.11 96.63,117.16 L96.63,117.16 C96.49,118.3 97.41,119.33 98.62,119.46 L106.13,120.22 C107.53,120.36 108.79,119.34 108.83,117.99 L108.85,117.3 C108.88,115.93 107.71,114.83 106.27,114.92 Z" fill="url(#finger_5_)"/>
  <path id="tone_3_" d="M107.55,115.24 C107.67,114.17 99.04,115.18 97.99,114.29 C96.79,113.27 96.94,111.3 98.43,110.65 C100.11,109.91 108.26,109.7 108.25,109.24 C108.25,108.39 97.26,110.44 97.57,106.97 C97.78,104.62 100.05,104.64 101.73,104.36 C102.73,104.19 107.12,103.9 107.12,103.59 C107.12,103.28 106.04,103.37 105.92,103.36 C105.12,103.28 99.97,103.52 98.62,103.93 C96.85,104.47 95.41,106.04 95.91,108.04 C95.99,108.38 96.14,108.68 96.32,108.97 C96.67,109.51 95.88,110.98 95.78,111.74 C95.53,113.7 96.6,114.75 96.58,115.46 C96.57,116 96.04,116.38 95.89,117.21 C95.73,118.13 96.5,119.17 96.31,120.26 C96.24,120.63 96.21,120.93 96.28,121.31 C96.39,121.88 96.68,122.38 97.09,122.79 C98.04,123.75 99.35,123.87 100.63,123.94 C101.49,123.99 105.02,124.2 105.82,123.75 C103.93,123.71 98.2,123.57 97.43,121.41 C97.38,119.94 98.95,120.38 99.93,120.48 C101.04,120.59 103.12,120.64 104.24,120.54 C104.55,120.51 105.85,120.37 105.85,120.14 C105.85,119.79 102.77,119.9 102.39,119.88 C101.01,119.82 98.1,120.02 97.48,118.37 C97.25,117.77 97.35,117.02 97.76,116.51 C98.74,115.26 107.48,115.79 107.55,115.24 Z" fill="#EDBD82"/>
</svg>