<svg viewBox="0 0 128 128" xmlns="http://www.w3.org/2000/svg" xmlns:xlink="http://www.w3.org/1999/xlink">
  <g id="Layer_3">
    <g>
      <radialGradient id="SVGID_1_" cx="87.0859" cy="104.237" gradientUnits="userSpaceOnUse" r="18.2671">
        <stop offset="0" style="stop-color:#543930"/>
        <stop offset="1" style="stop-color:#6D4C41"/>
      </radialGradient>
      <path d="M88.28,100.24c-11.72,3.42,0,23.82,0,23.82s3.57-6.22,4.8-12.37 C94.08,106.71,93.53,101.77,88.28,100.24z" fill="url(#SVGID_1_)"/>
      <radialGradient id="SVGID_2_" cx="87.0859" cy="104.237" gradientUnits="userSpaceOnUse" r="18.2671">
        <stop offset="0" style="stop-color:#543930"/>
        <stop offset="1" style="stop-color:#6D4C41"/>
      </radialGradient>
      <path d="M91.11,98.14c0,0,3.37,4.01-2.27,10.21c-4.49,4.94-3.96,12.87-3.96,12.87s-4.6-6.61-3.27-14.21 S91.11,98.14,91.11,98.14z" fill="url(#SVGID_2_)"/>
    </g>
    <path d="M90.63,99.26c0.29,0.59,0.65,1.7,0.37,3.22c-0.05,0.28,0.02,0.56,0.19,0.78c1.34,1.77,1.65,4.54,0.92,8.23 c-0.81,4.06-2.7,8.21-3.82,10.43c-0.62-1.23-1.47-3.04-2.25-5.1c-0.15-0.39-0.52-0.65-0.94-0.65c-0.04,0-0.07,0-0.11,0.01 c-0.45,0.05-0.82,0.4-0.88,0.86c-0.02,0.15-0.04,0.3-0.06,0.45c-1.07-2.52-2.15-6.29-1.45-10.31 C83.6,101.49,88.79,99.72,90.63,99.26 M91.11,98.14c0,0-8.16,1.26-9.49,8.87c-1.33,7.61,3.27,14.21,3.27,14.21 s-0.11-1.71,0.21-4.04c1.46,3.89,3.18,6.88,3.18,6.88s3.57-6.22,4.8-12.37c0.68-3.38,0.63-6.74-1.1-9.03 C92.5,99.82,91.11,98.14,91.11,98.14L91.11,98.14z" fill="#402821"/>
    <g>
      <g>
        <linearGradient id="SVGID_6_" gradientUnits="userSpaceOnUse" x1="57.0703" x2="74.0732" y1="108.5" y2="108.5">
          <stop offset="0" style="stop-color:#A47B62"/>
          <stop offset="1" style="stop-color:#BA8D68"/>
        </linearGradient>
        <path d="M58.96,124c-1.04,0-1.89-0.81-1.89-1.27c0-0.62,1.09-1.14,2-1.36l8.97-1.01 c0.26-0.03,0.46-0.03,0.45-0.29L67.68,93h6.39l-0.87,28.48c0,1.4-1.07,2.52-2.33,2.52H58.96z" fill="url(#SVGID_6_)"/>
        <path d="M73.92,93L73,121v0.07c0,1.05-1.13,1.93-2.13,1.93H58.96c-0.8,0-1.34-0.38-1.39-0.52 c0-0.08,0.27-0.42,1.56-0.73l8.97-0.96c0.52-0.06,0.91-0.5,0.89-1.02L68.19,93H74 M74.59,92L74.59,92L74.59,92z M74.59,92 h-7.43l0.83,27.79l-9.03,0.96c-1.44,0.34-2.39,0.86-2.39,1.72c0,0.86,1.16,1.52,2.39,1.52h11.92c1.56,0,3.13-1.35,3.13-2.93 V121l0.73-29H74.59z" fill="#91674D"/>
      </g>
      <g>
        <linearGradient id="SVGID_7_" gradientUnits="userSpaceOnUse" x1="88.316" x2="121.5371" y1="78.7299" y2="90.6615">
          <stop offset="0" style="stop-color:#FFB300"/>
          <stop offset="0.754" style="stop-color:#FFCA28"/>
        </linearGradient>
        <ellipse cx="85.06" cy="77.56" fill="url(#SVGID_7_)" rx="3.71" ry="3.76"/>
        <path d="M113.56,87.74c-0.15-0.14-0.29,0.02-0.14,0.16c0.94,0.85,1.34,2.14,1.11,3.39 c-0.02,0.13,0.11,0.15,0.13,0.06c0.04-0.13,0.14-0.11,0.42-0.13C115.15,89.98,114.51,88.6,113.56,87.74z" fill="#EDA600"/>
        <g>
          <linearGradient id="SVGID_8_" gradientUnits="userSpaceOnUse" x1="81.1946" x2="122.9901" y1="84.1952" y2="84.1952">
            <stop offset="0" style="stop-color:#A47B62"/>
            <stop offset="1" style="stop-color:#BA8D68"/>
          </linearGradient>
          <path d="M122.33,88.09c-0.39-0.19-2.64-1.09-3.29-1.35c-0.1-0.04-0.15-0.15-0.11-0.25 c0.03-0.1,0.13-0.15,0.23-0.13l1.99,0.45c0.49,0.11,0.9,0.05,1.08-0.37c0.23-0.53-0.07-0.99-0.62-1.15l-3.25-1.07 c0,0-2.07-0.72-2.92-1.01c-0.47-0.16-1.25-0.25-2.06,0.16l-9.88-5.1c-0.28-0.15-0.57-0.28-0.89-0.35l-16.77-4.03 c-2.01-0.43-4.12,0.87-4.55,2.9S82,80.81,84,81.24l0,0v0l16.82,3.11l9.96,3.89c0.1,1.49,1.17,2.17,1.56,2.7 c0.54,0.72,1.39,2.29,1.3,2.96c-0.06,0.43,0.65,0.76,0.94,0.67c0.35-0.11,0.69-0.62,0.79-1.27c0.06-0.38-0.56-1.3-0.71-1.84 c-0.02-0.08,0.01-0.15,0.06-0.2c0.04-0.02,0.11-0.03,0.21-0.03c0.01,0,0.01,0,0.02,0c1,0.59,4.68,2.72,4.68,2.72 c0.49,0.3,1.07,0.22,1.3-0.32c0.18-0.42-0.06-0.87-0.47-1.11c0,0-2.88-2.14-2.88-2.18l3.9,1.75c0.43,0.2,0.86,0.19,1.11-0.2 c0.31-0.48,0.03-1.02-0.49-1.26l-3.96-1.98c-0.1-0.05-0.15-0.16-0.11-0.25c0,0,0,0,0,0c0.04-0.1,0.15-0.14,0.25-0.1 c0,0,2.98,1.1,3.41,1.26c0.43,0.16,1.01,0.17,1.22-0.37C123.14,88.64,122.79,88.31,122.33,88.09z" fill="url(#SVGID_8_)"/>
          <path d="M114.47,95.09c-0.34,0-0.69-0.17-0.92-0.36c-0.29-0.25-0.44-0.57-0.39-0.9c0.05-0.4-0.58-1.78-1.19-2.59 c-0.08-0.1-0.19-0.21-0.31-0.34c-0.46-0.47-1.12-1.16-1.3-2.31l-9.65-3.78l-16.66-3.08c-0.02,0-0.05-0.01-0.07-0.02 c-2.19-0.51-3.59-2.75-3.11-5.03c0.23-1.1,0.88-2.05,1.84-2.68c0.97-0.63,2.12-0.85,3.23-0.61l16.78,4.04 c0.32,0.07,0.66,0.2,1.02,0.4l9.65,4.98c1-0.41,1.86-0.19,2.21-0.08c0.86,0.29,2.93,1.02,2.93,1.02l3.24,1.06 c0.42,0.12,0.75,0.39,0.92,0.75c0.16,0.33,0.16,0.71,0,1.08c-0.11,0.25-0.35,0.61-0.87,0.7c0.34,0.14,0.61,0.25,0.72,0.31l0,0 c1.16,0.55,0.98,1.39,0.84,1.72c-0.19,0.48-0.61,0.76-1.12,0.79l0.07,0.04c0.42,0.2,0.73,0.54,0.85,0.95 c0.1,0.35,0.04,0.72-0.17,1.04c-0.37,0.57-1.04,0.71-1.74,0.38l-0.05-0.02c0.29,0.38,0.37,0.87,0.18,1.31 c-0.15,0.36-0.43,0.62-0.78,0.73c-0.39,0.12-0.84,0.06-1.24-0.18l0,0c0,0-2.43-1.4-3.88-2.24c0.23,0.47,0.42,0.89,0.36,1.24 c-0.13,0.82-0.58,1.49-1.13,1.67C114.65,95.08,114.56,95.09,114.47,95.09z M84.28,80.76l16.7,3.1L111,87.78 c0.18,0.07,0.3,0.24,0.32,0.43c0.07,0.98,0.62,1.54,1.06,2c0.15,0.16,0.29,0.3,0.39,0.43c0.42,0.55,1.52,2.36,1.39,3.33 c0.03,0.01,0.19,0.12,0.33,0.12c0.06-0.02,0.33-0.32,0.41-0.86c-0.01-0.1-0.21-0.51-0.32-0.75c-0.15-0.3-0.3-0.61-0.37-0.88 c-0.07-0.25,0.01-0.52,0.2-0.7c0.04-0.04,0.09-0.07,0.14-0.09c0.12-0.06,0.26-0.07,0.38-0.08c0.05,0,0.1,0,0.15,0.01 c0.06,0.01,0.12,0.04,0.17,0.07c0.97,0.57,4.66,2.7,4.66,2.7c0.16,0.09,0.31,0.13,0.42,0.09c0.03-0.01,0.11-0.04,0.17-0.17 c0.08-0.18-0.08-0.38-0.27-0.49c-3.13-2.31-3.13-2.31-3.13-2.61c0-0.17,0.09-0.33,0.23-0.42c0.14-0.09,0.32-0.11,0.48-0.04 l3.9,1.75c0.37,0.17,0.46,0.04,0.49-0.01c0.06-0.1,0.05-0.17,0.04-0.22c-0.04-0.12-0.16-0.25-0.32-0.32l-3.97-1.99 c-0.3-0.14-0.46-0.48-0.38-0.79c0.01-0.03,0.01-0.06,0.03-0.1c0.07-0.17,0.2-0.3,0.37-0.38c0.17-0.07,0.36-0.08,0.54-0.01l0,0 c0,0,2.98,1.09,3.4,1.26c0.11,0.04,0.47,0.16,0.58-0.09c0.05-0.12,0.1-0.25-0.34-0.45h0c-0.31-0.15-1.95-0.81-3.26-1.34 c-0.35-0.14-0.52-0.53-0.39-0.88c0.12-0.33,0.47-0.53,0.81-0.45l1.99,0.45c0.43,0.1,0.48-0.02,0.51-0.08 c0.06-0.15,0.03-0.23,0.01-0.25c-0.04-0.09-0.16-0.17-0.31-0.22l-3.27-1.07c-0.01,0-2.07-0.73-2.93-1.02 c-0.25-0.09-0.92-0.25-1.68,0.13c-0.14,0.07-0.31,0.07-0.45,0l-9.88-5.1c-0.29-0.16-0.53-0.26-0.77-0.31l-16.78-4.04 c-0.84-0.18-1.72-0.01-2.46,0.47c-0.74,0.48-1.24,1.21-1.41,2.04c-0.37,1.76,0.71,3.5,2.4,3.86 C84.25,80.75,84.26,80.76,84.28,80.76z" fill="#91674D"/>
        </g>
      </g>
      <linearGradient id="SVGID_12_" gradientUnits="userSpaceOnUse" x1="68.4118" x2="84.9677" y1="68.61" y2="93.4438">
        <stop offset="0" style="stop-color:#651FFF"/>
        <stop offset="0.7047" style="stop-color:#5914F2"/>
        <stop offset="1" style="stop-color:#530EEB"/>
      </linearGradient>
      <path d="M76.59,87.08l5.99-4.19c3.38-2.37,4.23-7.07,1.89-10.49L71.14,52.87L52.9,65.64l13.33,19.53 C68.57,88.6,73.21,89.45,76.59,87.08z" fill="url(#SVGID_12_)"/>
      <ellipse cx="70.87" cy="91.62" fill="#FAC01B" rx="3.71" ry="3.76"/>
      <linearGradient id="SVGID_13_" gradientUnits="userSpaceOnUse" x1="77.4331" x2="93.989" y1="62.5958" y2="87.4297">
        <stop offset="0" style="stop-color:#651FFF"/>
        <stop offset="0.7047" style="stop-color:#5914F2"/>
        <stop offset="1" style="stop-color:#530EEB"/>
      </linearGradient>
      <path d="M80.36,76.56c-0.51,2.45,1.04,4.86,3.46,5.38l0,0l8.14,1.52l1.76-8.47l-8.05-1.94 C83.25,72.53,80.87,74.1,80.36,76.56z" fill="url(#SVGID_13_)"/>
      <linearGradient id="SVGID_14_" gradientUnits="userSpaceOnUse" x1="59.8461" x2="76.402" y1="74.3205" y2="99.1543">
        <stop offset="0" style="stop-color:#651FFF"/>
        <stop offset="0.7047" style="stop-color:#5914F2"/>
        <stop offset="1" style="stop-color:#530EEB"/>
      </linearGradient>
      <path d="M70.87,82.99c2.48,0,4.48,2.03,4.48,4.54h0l-0.21,8.38H66.6l-0.21-8.38 C66.39,85.02,68.4,82.99,70.87,82.99z" fill="url(#SVGID_14_)"/>
      <path d="M70.88,54.27l12.76,18.7c0.36,0.52,1.49,1,1.82,1.07l7.14,1.46l-1.67,7.11L84,80.97v0 c0-0.02,0-0.04-0.1-0.05l0.03,0c-0.05-0.01-0.05-0.01-0.09-0.01c-0.27,0-0.51,0.11-0.7,0.31c-0.2,0.21-0.55,0.46-0.87,0.68 L82,82.08l-5.99,4.21c-0.39,0.28-0.74,0.48-1.07,0.63c-0.35,0.16-0.58,0.5-0.59,0.89L74.17,95h-6.6l-0.19-7.43 c0-2.3-0.13-2.67-0.34-2.97L54.28,65.89L70.88,54.27 M71.14,52.87L52.9,65.64l13.33,19.53c0.16,0.23,0.16,1.8,0.16,2.4L66.6,96 h8.55l0.2-8.17c0.43-0.19,0.84-0.44,1.24-0.72l5.99-4.21c0.42-0.3,0.89-0.63,1.23-0.99c0.03,0.01,0.18,0.02,0.18,0.02v0 l7.83,1.88l1.93-9.11l-8.11-1.66c-0.29-0.06-1.06-0.47-1.19-0.65L71.14,52.87L71.14,52.87z" fill="#4A00ED"/>
      <ellipse cx="66.51" cy="57.53" fill="#FAC01B" rx="6.04" ry="6.12"/>
      <g>
        <linearGradient id="SVGID_15_" gradientUnits="userSpaceOnUse" x1="60.6694" x2="85.4863" y1="31.8484" y2="31.8484">
          <stop offset="0" style="stop-color:#A47B62"/>
          <stop offset="1" style="stop-color:#BA8D68"/>
        </linearGradient>
        <path d="M85.49,6.65c0.02-0.97-0.7-1.05-1.95-1.16L73.9,4.64c-1.62-0.14-3.06,1.08-3.2,2.74l-0.4,3.7 l-0.03,0L67.4,33.3L60.67,56l11.69,3.07l5.04-23.38l1.5-22.35l0.95-0.32c0.51,0.04,2.05,0.49,2.42-0.24 c0.29-0.58-0.12-0.88-0.28-0.93c0.17,0.05,0.83,0.17,1.05-0.36c0.28-0.69-0.44-0.97-0.44-0.97s0.94,0.23,1.22-0.43 c0.31-0.72-0.61-1.02-0.61-1.02s1.15,0.26,1.34-0.44c0.16-0.57-0.17-0.84-0.48-0.96C84.78,7.75,85.47,7.48,85.49,6.65z" fill="url(#SVGID_15_)"/>
        <path d="M72.36,59.57c-0.04,0-0.08-0.01-0.13-0.02l-11.69-3.07c-0.13-0.03-0.24-0.12-0.31-0.24 c-0.07-0.12-0.08-0.26-0.04-0.39l6.74-22.7l2.84-22.14c0.01-0.06,0.02-0.11,0.05-0.16l0.38-3.53c0.17-1.92,1.84-3.34,3.75-3.18 l9.64,0.85c1.2,0.11,2.44,0.21,2.41,1.67l0,0c-0.01,0.59-0.27,0.93-0.49,1.12c-0.13,0.11-0.28,0.2-0.45,0.27 c0.05,0.22,0.05,0.46-0.02,0.71c-0.11,0.4-0.37,0.62-0.69,0.74c0.06,0.2,0.07,0.46-0.07,0.78c-0.15,0.35-0.42,0.55-0.7,0.66 c0.04,0.19,0.04,0.44-0.08,0.73c-0.13,0.32-0.36,0.52-0.63,0.63c0.02,0.19-0.01,0.43-0.15,0.7c-0.47,0.93-1.79,0.7-2.57,0.57 c-0.09-0.02-0.17-0.03-0.24-0.04l-0.52,0.18L77.9,35.72l-5.05,23.45c-0.03,0.13-0.11,0.25-0.23,0.32 C72.54,59.54,72.45,59.57,72.36,59.57z M61.3,55.65l10.68,2.8l4.93-22.87l1.49-22.28c0.01-0.2,0.15-0.37,0.34-0.44l0.95-0.33 c0.07-0.02,0.14-0.03,0.21-0.03c0.1,0.01,0.25,0.03,0.42,0.06c0.91,0.16,1.42,0.15,1.51-0.03c0.04-0.07,0.06-0.2-0.01-0.23 c-0.26-0.08-0.39-0.36-0.31-0.62c0.08-0.26,0.36-0.4,0.63-0.33c0,0,0.38,0.09,0.45-0.07c0.03-0.07,0.09-0.22-0.16-0.32 c-0.24-0.1-0.36-0.37-0.28-0.62c0.08-0.25,0.34-0.39,0.59-0.33c0,0,0.53,0.11,0.64-0.14c0.03-0.08,0.02-0.1,0.02-0.11 c-0.04-0.09-0.24-0.2-0.32-0.23c-0.25-0.08-0.4-0.35-0.33-0.61c0.07-0.26,0.34-0.42,0.59-0.36c0.27,0.06,0.71,0.05,0.75-0.08 c0.05-0.19,0.04-0.28-0.18-0.37c-0.23-0.09-0.36-0.34-0.3-0.59c0.06-0.24,0.29-0.41,0.54-0.37c0.31,0.04,0.57-0.02,0.71-0.14 c0.04-0.03,0.14-0.12,0.15-0.39c0.01-0.42-0.05-0.53-1.5-0.66l-9.64-0.85c-1.36-0.12-2.54,0.91-2.66,2.28l-0.4,3.71 c-0.01,0.06-0.03,0.12-0.05,0.18L67.9,33.36L61.3,55.65z M85.49,6.65L85.49,6.65L85.49,6.65z" fill="#91674D"/>
      </g>
      <ellipse cx="58.72" cy="62.77" fill="#FAC01B" rx="6.04" ry="6.12"/>
      <linearGradient id="SVGID_16_" gradientUnits="userSpaceOnUse" x1="12.5376" x2="261.2606" y1="48.2641" y2="133.8711">
        <stop offset="0" style="stop-color:#A47B62"/>
        <stop offset="1" style="stop-color:#BA8D68"/>
      </linearGradient>
      <path d=" M36.64,50.79L15.5,42.57v0l-2.98-1.74c-1.5-0.67-2.79,0.02-3.45,1.53l-3.69,8.99c-0.51,1.16-0.67,1.85,0.18,2.3 c0.72,0.39,1.29,0.22,1.56-0.46c-0.04,0.34,0.11,0.44,0.68,0.58c0.69,0.16,1.04-0.85,1.04-0.85s-0.19,0.83,0.58,0.9 c0.71,0.06,0.98-0.97,0.98-0.97s-0.16,0.84,0.58,0.92c0.56,0.06,0.79-0.82,0.83-1c-0.03,0.17-0.12,0.84,0.52,0.86 c0.81,0.02,0.98-1.67,1.19-2.15l0.36-0.83l20.29,9.93l0.02-0.05c0.16,0.07,0.3,0.15,0.47,0.2l0,0l0,0.01l22.31,7.88l3.47-11.69 C60.42,56.93,36.67,50.8,36.64,50.79z" fill="url(#SVGID_16_)" stroke="#91674D" stroke-linecap="round" stroke-linejoin="round" stroke-miterlimit="10"/>
      <g>
        <g id="XMLID_26_">
          <path d="M76.61,85.81c-0.88-1.06-0.75-2.64,0.29-3.53c0.44-0.38,1-0.59,1.58-0.59c0.72,0,1.41,0.32,1.88,0.89 l1.43,1.72l-3.75,3.22L76.61,85.81z" fill="#99674F"/>
          <path d="M78.47,82.19L78.47,82.19c0.57,0,1.12,0.26,1.49,0.71l1.12,1.35l-2.99,2.57l-1.1-1.32 c-0.7-0.85-0.6-2.12,0.23-2.83C77.58,82.35,78.01,82.19,78.47,82.19 M78.47,81.19c-0.67,0-1.35,0.23-1.9,0.71 c-1.25,1.07-1.4,2.96-0.35,4.23l1.75,2.1l4.51-3.87l-1.75-2.1C80.15,81.56,79.31,81.19,78.47,81.19L78.47,81.19z" fill="#875740"/>
        </g>
        <g>
          <defs>
            <polygon id="SVGID_17_" points="69.52,93.44 88.95,76.78 105.34,96.52 85.92,113.18 "/>
          </defs>
          <clipPath id="SVGID_18_">
            <use overflow="visible" xlink:href="#SVGID_17_"/>
          </clipPath>
          <g clip-path="url(#SVGID_18_)">
            <g>
              <path d="M79.62,99.97c-0.8,0-1.56-0.37-2.09-1.01c-0.96-1.15-0.88-2.82,0.17-3.72l11.63-9.97 c0.42-0.37,0.95-0.56,1.53-0.56c0.8,0,1.56,0.37,2.09,1.01c0.96,1.15,0.88,2.82-0.17,3.72l-11.63,9.97 C80.73,99.78,80.2,99.97,79.62,99.97L79.62,99.97z" fill="#99674F"/>
              <path d="M90.86,85.21c0.65,0,1.27,0.3,1.71,0.83c0.78,0.94,0.73,2.3-0.11,3.03l-1.57,1.35l-8.49,7.28 l-1.57,1.34c-0.33,0.29-0.75,0.44-1.2,0.44c-0.65,0-1.27-0.3-1.71-0.83c-0.78-0.94-0.73-2.3,0.11-3.03l1.57-1.34l8.49-7.28 l1.57-1.35C89.99,85.36,90.41,85.21,90.86,85.21 M90.86,84.21c-0.67,0-1.32,0.22-1.85,0.68l-1.57,1.34l-8.49,7.28l-1.57,1.34 c-1.25,1.08-1.36,3.07-0.23,4.42c0.65,0.78,1.57,1.19,2.48,1.19c0.67,0,1.32-0.22,1.85-0.68l1.57-1.34l8.49-7.28l1.57-1.34 c1.25-1.08,1.36-3.07,0.23-4.42C92.69,84.62,91.77,84.21,90.86,84.21L90.86,84.21z" fill="#875740"/>
            </g>
            <g>
              <linearGradient id="SVGID_19_" gradientUnits="userSpaceOnUse" x1="76.6258" x2="96.7547" y1="94.1182" y2="94.1182">
                <stop offset="0" style="stop-color:#BA8D68"/>
                <stop offset="0.4488" style="stop-color:#B78A67"/>
                <stop offset="0.8086" style="stop-color:#AD8264"/>
                <stop offset="1" style="stop-color:#A47B62"/>
              </linearGradient>
              <path d="M89.52,104.77c-3.43,0-7.11-1.97-9.85-5.27c-4.7-5.66-3.33-11.24-0.08-14.03 c1.51-1.3,3.42-2.01,5.37-2.01c2.06,0,5.15,0.77,8.2,4.44c3.77,4.54,5.25,11.66,1.08,15.24 C92.99,104.21,91.36,104.77,89.52,104.77L89.52,104.77z" fill="url(#SVGID_19_)"/>
              <path d="M84.96,83.96c1.95,0,4.89,0.74,7.82,4.26c3.62,4.36,5.08,11.15,1.14,14.54 c-1.15,0.99-2.67,1.51-4.4,1.51c-3.28,0-6.82-1.9-9.47-5.09c-2.05-2.47-3.06-5.13-2.92-7.67c0.12-2.21,1.11-4.22,2.79-5.66 C81.33,84.63,83.13,83.96,84.96,83.96 M84.96,82.96c-2.14,0-4.14,0.79-5.69,2.13c-3.6,3.09-4.77,8.97,0.02,14.73 c3.05,3.67,6.89,5.45,10.24,5.45c1.93,0,3.69-0.59,5.05-1.75v0v0c3.7-3.18,3.79-10.14-1.02-15.94 C90.83,84.32,87.76,82.96,84.96,82.96L84.96,82.96z" fill="#91674D"/>
            </g>
            <g>
              <path d="M92.35,90.36c0,0,0.01,0.07,0.01,0.18c0,0.03,0,0.06,0,0.1c0,0.04-0.01,0.09-0.02,0.14 c-0.01,0.05-0.02,0.1-0.02,0.16c-0.01,0.06-0.03,0.11-0.04,0.16c-0.02,0.06-0.03,0.11-0.05,0.17 c-0.02,0.06-0.05,0.12-0.07,0.18c-0.02,0.06-0.05,0.12-0.09,0.18c-0.03,0.06-0.07,0.12-0.1,0.19 c-0.08,0.12-0.16,0.25-0.26,0.36c-0.09,0.12-0.21,0.22-0.32,0.33c-0.12,0.09-0.24,0.19-0.37,0.27 c-0.13,0.08-0.26,0.14-0.39,0.2c-0.07,0.03-0.13,0.05-0.2,0.07c-0.06,0.02-0.13,0.04-0.19,0.06 c-0.06,0.01-0.13,0.03-0.19,0.04c-0.06,0.01-0.12,0.02-0.18,0.02c-0.06,0-0.11,0.01-0.16,0.01c-0.05,0-0.1,0-0.15,0 c-0.05,0-0.09,0-0.13-0.01c-0.04,0-0.08-0.01-0.11-0.02c-0.13-0.02-0.2-0.04-0.2-0.04c-0.23-0.06-0.38-0.3-0.32-0.54 c0.04-0.15,0.14-0.26,0.27-0.31l0.08-0.03c0,0,0.05-0.02,0.14-0.05c0.02-0.01,0.05-0.01,0.07-0.02 c0.03-0.01,0.05-0.02,0.08-0.03c0.06-0.02,0.12-0.04,0.19-0.07c0.03-0.02,0.07-0.03,0.11-0.04c0.04-0.02,0.07-0.04,0.11-0.05 c0.02-0.01,0.04-0.02,0.06-0.03c0.02-0.01,0.04-0.02,0.06-0.03c0.04-0.02,0.08-0.04,0.12-0.06c0.08-0.05,0.16-0.1,0.23-0.16 c0.08-0.05,0.15-0.12,0.23-0.18c0.07-0.07,0.15-0.13,0.21-0.2c0.07-0.07,0.13-0.14,0.19-0.21c0.03-0.04,0.05-0.07,0.08-0.11 c0.01-0.02,0.03-0.03,0.04-0.05c0.01-0.02,0.02-0.04,0.04-0.05c0.02-0.04,0.05-0.07,0.07-0.1c0.02-0.03,0.04-0.07,0.06-0.1 c0.02-0.03,0.04-0.06,0.06-0.09c0.02-0.03,0.03-0.05,0.04-0.08c0.01-0.02,0.03-0.05,0.04-0.07c0.01-0.03,0.03-0.06,0.04-0.08 c0.04-0.1,0.07-0.16,0.07-0.16c0.11-0.22,0.39-0.31,0.61-0.2C92.25,90.08,92.33,90.22,92.35,90.36z" fill="#613E31"/>
              <path d="M82.11,98.25c0,0,0.06-0.02,0.17-0.05c0.03-0.01,0.06-0.01,0.09-0.02c0.02-0.01,0.05-0.02,0.07-0.03 c0.03-0.01,0.05-0.02,0.08-0.03c0.03-0.01,0.06-0.03,0.1-0.04c0.03-0.02,0.07-0.03,0.11-0.04c0.04-0.02,0.07-0.04,0.11-0.05 c0.02-0.01,0.04-0.02,0.06-0.03c0.02-0.01,0.04-0.02,0.06-0.03c0.04-0.02,0.08-0.04,0.12-0.06c0.08-0.05,0.16-0.1,0.23-0.16 c0.08-0.05,0.15-0.12,0.23-0.18c0.07-0.07,0.15-0.13,0.21-0.2c0.07-0.07,0.13-0.14,0.19-0.21c0.03-0.04,0.05-0.07,0.08-0.11 c0.01-0.02,0.03-0.03,0.04-0.05c0.01-0.02,0.02-0.04,0.04-0.05c0.02-0.03,0.05-0.07,0.07-0.1c0.02-0.03,0.04-0.07,0.06-0.1 c0.04-0.06,0.08-0.13,0.11-0.18c0.02-0.03,0.03-0.05,0.04-0.08c0.01-0.02,0.02-0.05,0.03-0.07c0.04-0.08,0.07-0.13,0.07-0.13 l0.04-0.07c0.12-0.21,0.39-0.28,0.6-0.16c0.13,0.08,0.2,0.21,0.21,0.35c0,0,0.01,0.07,0,0.21c0,0.03,0,0.07,0,0.11 c0,0.04-0.01,0.08-0.02,0.13c-0.01,0.05-0.01,0.1-0.02,0.15c-0.01,0.05-0.03,0.1-0.04,0.16c-0.02,0.06-0.03,0.11-0.05,0.17 c-0.02,0.06-0.05,0.12-0.07,0.18c-0.02,0.06-0.05,0.12-0.09,0.18c-0.03,0.06-0.07,0.12-0.1,0.19 c-0.08,0.12-0.16,0.25-0.26,0.36c-0.09,0.12-0.21,0.22-0.32,0.33c-0.12,0.09-0.24,0.19-0.37,0.27 c-0.13,0.08-0.26,0.14-0.39,0.2c-0.07,0.03-0.13,0.05-0.2,0.07c-0.06,0.02-0.13,0.04-0.19,0.06 c-0.06,0.01-0.13,0.03-0.19,0.04c-0.06,0.01-0.12,0.02-0.18,0.02c-0.06,0-0.11,0.01-0.16,0.01c-0.06,0-0.11,0-0.16,0 c-0.05,0-0.1,0-0.14-0.01c-0.04,0-0.06-0.01-0.09-0.02c-0.11-0.02-0.17-0.04-0.17-0.04c-0.24-0.07-0.38-0.32-0.31-0.56 C81.86,98.41,81.98,98.3,82.11,98.25z" fill="#613E31"/>
            </g>
            <g>
              <ellipse cx="89.11" cy="89.79" fill="#49362E" rx="1.38" ry="1.44" transform="matrix(0.8772 -0.4802 0.4802 0.8772 -32.1686 53.8177)"/>
              <ellipse cx="82.11" cy="95.79" fill="#49362E" rx="1.38" ry="1.44" transform="matrix(0.8772 -0.4802 0.4802 0.8772 -35.9088 51.1957)"/>
            </g>
            <radialGradient id="SVGID_20_" cx="68.3" cy="-279.9583" gradientTransform="matrix(-0.5845 0.5403 -0.5489 -0.5938 -17.0214 -98.2891)" gradientUnits="userSpaceOnUse" r="9.0011">
              <stop offset="0" style="stop-color:#6D4C41"/>
              <stop offset="1" style="stop-color:#543930"/>
            </radialGradient>
            <path d="M95.16,104.5c7.96-6.36,2.96-16.65-2.62-18.28c0,0,2.09,3.3,0.67,5.9 c-2.73,5-3.5,9.04-3.5,9.04c-1.83-0.78-4.91-0.34-6.04-0.21c-0.93,0.11-5.22-2.44-5.22-2.44 C78.45,103.56,87.78,110.41,95.16,104.5z" fill="url(#SVGID_20_)"/>
            <path d="M92.63,86.25l0.56,1.33c0,0,1.32,0.85,1.31,0.82c1.73,1.4,3.14,3.7,3.62,6.11 c0.4,2.05,0.48,5.97-3.58,9.21c-1.71,1.37-3.62,2.06-5.66,2.06c-3.86,0-7.55-2.6-8.89-5.26c-0.23-0.69-0.38-1.36-0.31-1.32 l-1.22-0.7c0,3.67,4.91,8.28,10.42,8.28c2.09,0,4.26-0.66,6.29-2.28C103.08,98.17,98.18,87.97,92.63,86.25z" fill="#3F2720"/>
            <g>
              <path d="M80.31,90.58c0.34-0.99,2.56-2.9,3.58-3.07c0.58-0.1,0.68-0.8,0.22-1.02c-0.45-0.22-2.35,0-3.39,0.9 c-1.05,0.9-1.56,2.75-1.43,3.23C79.43,91.13,80.12,91.15,80.31,90.58z" fill="#5D4037"/>
              <path d="M83.31,91.41c0.03-0.01,0.06-0.02,0.08-0.04l1.51-1.29c0.02-0.02,0.04-0.05,0.05-0.08 c0.09-0.17,0.05-0.38-0.15-0.48c-0.19-0.1-0.85-0.27-1.45,0.25c-0.6,0.52-0.55,1.2-0.48,1.41 C82.93,91.39,83.13,91.47,83.31,91.41z" fill="#99674F"/>
            </g>
          </g>
        </g>
      </g>
      <g>
        <radialGradient id="SVGID_21_" cx="66.894" cy="55.327" gradientTransform="matrix(0.9839 0 0 1 -5.5043 0)" gradientUnits="userSpaceOnUse" r="13.4712">
          <stop offset="0.013" style="stop-color:#E53935"/>
          <stop offset="0.3792" style="stop-color:#EA4643"/>
          <stop offset="0.831" style="stop-color:#EF5350"/>
        </radialGradient>
        <polygon fill="url(#SVGID_21_)" points="77.24,61.78 71.14,52.87 52.9,65.64 58.73,74.25 "/>
        <radialGradient id="SVGID_22_" cx="63.752" cy="50.6846" gradientTransform="matrix(0.9839 0 0 1 -5.5043 0)" gradientUnits="userSpaceOnUse" r="18.6981">
          <stop offset="0.013" style="stop-color:#E53935"/>
          <stop offset="0.3792" style="stop-color:#EA4643"/>
          <stop offset="0.831" style="stop-color:#EF5350"/>
        </radialGradient>
        <path d="M64.68,64.69c3.84,1.01,7.76-1.33,8.75-5.22l0.01,0l3-13.09l-13.26-3.48l-3.65,12.91 C58.53,59.72,60.84,63.69,64.68,64.69z" fill="url(#SVGID_22_)"/>
        <radialGradient id="SVGID_23_" cx="63.752" cy="50.6846" gradientTransform="matrix(0.9839 0 0 1 -5.5043 0)" gradientUnits="userSpaceOnUse" r="18.6981">
          <stop offset="0.013" style="stop-color:#E53935"/>
          <stop offset="0.3792" style="stop-color:#EA4643"/>
          <stop offset="0.831" style="stop-color:#EF5350"/>
        </radialGradient>
        <path d="M65.7,64.94c-1.16,3.84-5.18,6-8.97,4.83l0,0.01l-12.58-4.26l4.01-13.26l12.78,3.61 C64.73,57.03,66.86,61.1,65.7,64.94z" fill="url(#SVGID_23_)"/>
        <path d="M63.87,44.13l11.37,2.98l-2.23,9.72c-0.06,0.27-0.01,0.56,0.15,0.79l2.78,4.08L59.07,72.99l-2.87-4.24 c-0.12-0.18-0.3-0.32-0.51-0.39l-10.31-3.49l3.45-11.4l10.52,2.97c0.09,0.03,0.18,0.04,0.27,0.04c0.44,0,0.84-0.29,0.96-0.73 L63.87,44.13 M63.18,42.91l-3.55,12.57l-11.47-3.24l-4.01,13.26l11.23,3.8l3.42,5.07l18.54-12.4L74,57.06l2.44-10.67 L63.18,42.91L63.18,42.91z" fill="#D12724"/>
      </g>
      <g>
        <path d="M55.79,69.03c-0.06-0.09-0.15-0.16-0.25-0.19l-10.77-3.65l3.73-12.33l10.99,3.1 c0.04,0.01,0.09,0.02,0.14,0.02c0.22,0,0.42-0.14,0.48-0.36l3.42-12.1l12.32,3.23l-2.33,10.19c-0.03,0.14,0,0.28,0.07,0.39 l3.06,4.5L58.94,73.68L55.79,69.03z" fill="#7C7C7C"/>
        <path d="M63.87,44.13l11.37,2.98l-2.23,9.72c-0.06,0.27-0.01,0.56,0.15,0.79l2.78,4.08L59.07,72.99l-2.87-4.24 c-0.12-0.18-0.3-0.32-0.51-0.39l-10.31-3.49l3.45-11.4l10.52,2.97c0.09,0.03,0.18,0.04,0.27,0.04c0.44,0,0.84-0.29,0.96-0.73 L63.87,44.13 M63.18,42.91l-3.55,12.57l-11.47-3.24l-4.01,13.26l11.23,3.8l3.42,5.07l18.54-12.4L74,57.06l2.44-10.67 L63.18,42.91L63.18,42.91z" fill="#5B5B5B"/>
      </g>
    </g>
  </g>
</svg>