<svg viewBox="0 0 128 128" xmlns="http://www.w3.org/2000/svg" xmlns:xlink="http://www.w3.org/1999/xlink">
  <g>
    <defs>
      <rect id="SVGID_1_" height="120" width="120" x="4" y="4"/>
    </defs>
    <clipPath id="SVGID_2_">
      <use overflow="visible" xlink:href="#SVGID_1_"/>
    </clipPath>
    <g clip-path="url(#SVGID_2_)">
      <g>
        <radialGradient id="SVGID_3_" cx="63.2838" cy="44.3655" gradientUnits="userSpaceOnUse" r="23.2068">
          <stop offset="0" style="stop-color:#554138"/>
          <stop offset="1" style="stop-color:#3C2C23"/>
        </radialGradient>
        <path d="M93.38,87.11c0.53-0.58,1.11-1.11,1.91-1.13c1.32-0.03,3.36-0.25,4.97-1.22 c0.47-0.28,0.87-0.67,1.17-1.14c-1.13-0.23-2.68-0.89-3.73-2.93c-1.6-3.1,0.25-5.95,3.32-9.12c3.46-3.57,9.21-15.82,3.1-26.74 c-1.15-0.17-17.81,0.08-22.03,0.08c-5.11,0-12.88,0-17.99,0v49.71C83.86,94.62,87.77,93.33,93.38,87.11z" fill="url(#SVGID_3_)"/>
      </g>
      <g>
        <radialGradient id="SVGID_4_" cx="62.9854" cy="44.6988" gradientUnits="userSpaceOnUse" r="23.2505">
          <stop offset="0" style="stop-color:#554138"/>
          <stop offset="1" style="stop-color:#3C2C23"/>
        </radialGradient>
        <path d="M34.82,87.11c-0.53-0.58-1.11-1.11-1.91-1.13c-1.32-0.03-3.36-0.25-4.97-1.22 c-0.47-0.28-0.87-0.67-1.17-1.14c1.13-0.23,2.75-0.86,3.73-2.93c1.6-3.35-0.67-6.33-3.32-9.12c-4.33-4.57-9.21-15.82-3.1-26.74 c1.15-0.17,17.81,0.08,22.03,0.08c5.11,0,12.88,0,17.99,0v49.71C44.34,94.62,40.43,93.33,34.82,87.11z" fill="url(#SVGID_4_)"/>
      </g>
      <path d="M102.88,46.67l0.26,0.5c5.42,10.4-0.55,20.63-3.19,23.36c-2.96,3.05-5.7,6.73-3.58,10.85v0 c0.55,1.07,1.27,1.93,2.13,2.56c-1.18,0.42-2.47,0.52-3.24,0.54c-1.56,0.04-2.56,1.15-2.99,1.63c-3.4,3.77-5.97,5.63-13.09,6.45 c0,0-3.69,1.89-6.24,2.53V96c12.46-0.45,16.47-2.23,21.56-7.88c0.39-0.44,0.65-0.63,0.83-0.64c1.58-0.04,3.84-0.32,5.7-1.43 c0.67-0.4,1.24-0.96,1.67-1.63l1.17-1.85l-2.14-0.43c-1.19-0.24-2.07-0.94-2.69-2.14v0c-1.04-2.01-0.2-4.01,3.07-7.39 c4.05-4.18,9.28-14.94,3.97-25.89c0,0,0-0.02,0.01-0.05H102.88z" fill="#291D15"/>
      <path d="M26.09,72.6c2.71,2.86,4.17,5.1,3.06,7.44c-0.56,1.17-1.43,1.86-2.67,2.1l-2.14,0.43l1.17,1.85 c0.42,0.67,1,1.23,1.67,1.63c1.86,1.11,4.13,1.39,5.7,1.43c0.18,0,0.44,0.2,0.83,0.64c5.07,5.62,9.06,7.42,21.39,7.88v-0.95 c-2.15-0.6-6.08-2.48-6.08-2.48c-7.12-0.82-9.69-2.68-13.09-6.45c-0.43-0.48-1.43-1.59-2.99-1.63c-0.76-0.02-2.04-0.12-3.21-0.53 c0.89-0.65,1.61-1.53,2.13-2.61c2.22-4.67-1.56-8.66-3.59-10.8c-3.84-4.05-8.03-13.55-3.8-23.12l0.29-0.65l-0.05-0.09h-3.32 c0.02,0.06,0.04,0.11,0.07,0.17C17.09,57.53,21.78,68.06,26.09,72.6z" fill="#291D15"/>
    </g>
    <g id="XMLID_24_" clip-path="url(#SVGID_2_)">
      <linearGradient id="SVGID_5_" gradientUnits="userSpaceOnUse" x1="64.0003" x2="64.0003" y1="77.9426" y2="130.3063">
        <stop offset="0" style="stop-color:#F78C1F"/>
        <stop offset="0.4936" style="stop-color:#F37F20"/>
        <stop offset="1" style="stop-color:#ED6D23"/>
      </linearGradient>
      <path d="M13.5,130.5v-9.44c0-16.23,25.36-23.53,50.5-23.56h0.13c25.03,0,50.36,8.09,50.36,23.56v9.44H13.5 z" fill="url(#SVGID_5_)"/>
      <path d="M64.13,99c12.9,0,25.42,2.19,34.36,6c6.62,2.83,14.51,7.91,14.51,16.05V129H15v-7.94 c0-15.2,24.61-22.03,49-22.06L64.13,99 M64.13,96c-0.05,0-0.09,0-0.13,0c-25.49,0.03-52,7.28-52,25.06V132h104v-10.94 C116,104.3,89.74,96,64.13,96L64.13,96z" fill="#DA6727"/>
    </g>
    <g id="XMLID_22_" clip-path="url(#SVGID_2_)">
      <path d="M63.17,107.23c-4,0-7.26-3.22-7.26-7.17v-8.98h16.16v8.98c0,3.96-3.26,7.17-7.26,7.17H63.17z" fill="#7A4C32"/>
      <path d="M71.08,92.08v7.98c0,3.4-2.81,6.17-6.26,6.17h-1.65c-3.45,0-6.26-2.77-6.26-6.17v-7.98H64H71.08 M73.08,90.08H64h-9.08v9.98c0,4.51,3.7,8.17,8.26,8.17h1.65c4.56,0,8.26-3.66,8.26-8.17V90.08L73.08,90.08z" fill="#663B22"/>
    </g>
    <g clip-path="url(#SVGID_2_)">
      <path d="M36.67,72.26c-5.36,0-9.71-4.67-9.71-10.41c0-5.74,4.36-10.41,9.71-10.41h54.65 c5.36,0,9.71,4.67,9.71,10.41c0,5.74-4.36,10.41-9.71,10.41H36.67z" fill="#7A4C32"/>
      <path d="M91.33,52.43c4.8,0,8.71,4.22,8.71,9.41s-3.91,9.41-8.71,9.41h-7.37H44.04h-7.37 c-4.8,0-8.71-4.22-8.71-9.41s3.91-9.41,8.71-9.41h7.37h39.91H91.33 M91.33,50.43h-7.37H44.04h-7.37 c-5.89,0-10.71,5.14-10.71,11.41c0,6.28,4.82,11.41,10.71,11.41h7.37h39.91h7.37c5.89,0,10.71-5.14,10.71-11.41 C102.04,55.57,97.22,50.43,91.33,50.43L91.33,50.43z" fill="#663B22"/>
    </g>
    <g clip-path="url(#SVGID_2_)">
      <linearGradient id="SVGID_6_" gradientUnits="userSpaceOnUse" x1="63.9998" x2="63.9998" y1="94.5919" y2="12.8257">
        <stop offset="0" style="stop-color:#8D5738"/>
        <stop offset="0.2163" style="stop-color:#97603D"/>
        <stop offset="0.5728" style="stop-color:#A26941"/>
        <stop offset="1" style="stop-color:#A56C43"/>
      </linearGradient>
      <path d="M64,95.27c-15.66,0-32.52-12.14-32.52-38.81c0-12.38,3.56-23.79,10.02-32.13 c6.04-7.8,14.25-12.27,22.5-12.27s16.45,4.47,22.5,12.27c6.46,8.34,10.02,19.75,10.02,32.13c0,12.09-3.51,22.19-10.14,29.21 C80.52,91.86,72.57,95.27,64,95.27z" fill="url(#SVGID_6_)"/>
      <path d="M64,13.07L64,13.07c7.94,0,15.85,4.33,21.71,11.88c6.33,8.16,9.81,19.35,9.81,31.52 c0,11.83-3.41,21.7-9.87,28.52c-5.67,5.99-13.36,9.29-21.65,9.29c-8.29,0-15.98-3.3-21.65-9.29 c-6.46-6.82-9.87-16.69-9.87-28.52c0-12.16,3.49-23.35,9.81-31.52C48.15,17.4,56.06,13.07,64,13.07 M64,11.07L64,11.07L64,11.07 c-17.4,0-33.52,18.61-33.52,45.39c0,26.64,16.61,39.81,33.52,39.81S97.52,83.1,97.52,56.46C97.52,29.68,81.4,11.07,64,11.07 L64,11.07z" fill="#875334"/>
    </g>
    <g clip-path="url(#SVGID_2_)">
      <g>
        <path d="M54.98,51.82c-0.93-1.23-3.07-3.01-7.23-3.01s-6.31,1.79-7.23,3.01c-0.41,0.54-0.31,1.17-0.02,1.55 c0.26,0.35,1.04,0.68,1.9,0.39c0.86-0.29,2.54-1.16,5.35-1.18c2.81,0.02,4.49,0.89,5.35,1.18c0.86,0.29,1.64-0.03,1.9-0.39 C55.29,52.99,55.39,52.36,54.98,51.82z" fill="#42312C"/>
        <path d="M87.48,51.82c-0.93-1.23-3.07-3.01-7.23-3.01c-4.16,0-6.31,1.79-7.23,3.01 c-0.41,0.54-0.31,1.17-0.02,1.55c0.26,0.35,1.04,0.68,1.9,0.39c0.86-0.29,2.54-1.16,5.35-1.18c2.81,0.02,4.49,0.89,5.35,1.18 c0.86,0.29,1.64-0.03,1.9-0.39C87.79,52.99,87.89,52.36,87.48,51.82z" fill="#42312C"/>
      </g>
      <path d="M67.86,68.06c-0.11-0.04-0.21-0.07-0.32-0.08h-7.07c-0.11,0.01-0.22,0.04-0.32,0.08 c-0.64,0.26-0.99,0.92-0.69,1.63c0.3,0.71,1.71,2.69,4.55,2.69c2.84,0,4.25-1.99,4.55-2.69C68.85,68.98,68.5,68.32,67.86,68.06z" fill="#E59600"/>
    </g>
    <g clip-path="url(#SVGID_2_)">
      <defs>
        <path id="SVGID_7_" d="M64,4.03L64,4.03c-0.01,0-0.01,0-0.02,0s-0.01,0-0.02,0v0C18.53,4.27,27.84,56.17,27.84,56.17 s5.1,8.99,5.1,8.81c-0.03-1.41,0.46-6.89,0.46-6.89l-2.68-2.92c0,0,3.89-25.44,6.79-24.91c4.45,0.81,26.54,2,26.57,2 c7.83,0,14.92-0.36,19.37-1.17c2.9-0.53,9.64,1.7,10.68,4.45c1.33,3.54,3.13,19.71,3.13,19.71l-2.68,2.83 c0,0,0.49,5.51,0.46,6.89c0,0.18,5.1-8.81,5.1-8.81S109.44,4.27,64,4.03z"/>
      </defs>
      <clipPath id="SVGID_8_">
        <use overflow="visible" xlink:href="#SVGID_7_"/>
      </clipPath>
    </g>
    <g clip-path="url(#SVGID_2_)">
      <g>
        <radialGradient id="SVGID_9_" cx="64.3256" cy="33.5198" gradientTransform="matrix(1 0 0 0.8642 0 4.5518)" gradientUnits="userSpaceOnUse" r="36.3729">
          <stop offset="0" style="stop-color:#554138"/>
          <stop offset="1" style="stop-color:#3C2C23"/>
        </radialGradient>
        <path d="M52.25,10.65C39.98,15,38.76,7.3,38.76,7.3c-6.66,3.32-2.28,10.45-2.28,10.45 s-6.75-0.5-9.64,5.34c-3.02,6.11-0.36,10.78-0.36,10.78S19.98,38,22.53,45.5c1.69,4.98,6.75,6.98,6.75,6.98 c-0.62,10.74,2.77,15.95,2.77,15.95s4.21-18.45,3.81-21.27c0,0,7.76-1.54,16.57-6.58c5.95-3.41,10.02-7.41,16.71-8.91 c10.18-2.29,12.45,5.08,12.45,5.08s9.42-1.81,12.26,11.27c1.17,5.38,1.67,14.37,2.31,19.84c-0.06-0.48,3.5-6.4,4.12-12.4 c0.23-2.23,3.61-7.67,4.63-11.72c2.21-8.8-0.69-15.74-2.06-17.81c-2.5-3.79-8.49-9-12.97-8.24c0.23-4.8-3.55-9.25-8.1-10.78 C69.33,2.73,55.91,9.35,52.25,10.65z" fill="url(#SVGID_9_)"/>
      </g>
      <path d="M21.11,45.98c0.08,0.22,0.17,0.45,0.27,0.68l2.28,2.89l1.1-2.79l-0.32-0.63 c-0.21-0.42-0.36-0.77-0.48-1.11c-2.13-6.26,3.11-9.73,3.33-9.88l1.18-0.76l-0.68-1.23c-0.09-0.17-2.21-4.12,0.4-9.38 c2.33-4.71,7.75-3.73,7.98-3.69l2.95,0.59l-1.31-2.71c-0.1-0.22-2.19-4.67,0.33-8.01c0.55,1.01,1.43,2.15,2.84,3 c2.85,1.73,6.8,1.72,11.75-0.03c0.79-0.28,1.68-0.76,2.8-1.38c4.53-2.47,12.11-6.61,24.12-2.81c4.34,1.38,8.92,5.17,8.74,8.89 l-0.09,1.87l1.84-0.31c3.6-0.6,9.1,4.01,11.47,7.59c1.22,1.84,3.98,9.5,1.92,17.71c-0.11,0.45-0.26,0.94-0.46,1.5l-0.22,0.62 l0.04,0.08l1.09,1.9l2.11-1.9c0.05-0.23,0.27-1.14,0.35-1.46c2.24-8.93-0.56-17.42-2.32-20.09c-2.44-3.7-7.91-8.64-12.82-8.97 c-0.79-4.72-5.84-8.72-10.73-10.27C67.32,1.68,58.71,6.38,54.08,8.91c-0.96,0.53-1.79,0.98-2.36,1.18 c-3.97,1.41-7.13,1.52-9.15,0.32c-1.97-1.17-2.32-3.23-2.33-3.31L39.9,4.66l-2.01,1.41c-4.24,2.99-4.4,7.63-3.6,10.88 c-2.93,0.12-6.77,1.36-8.8,5.47c-2.42,4.9-1.56,8.99-0.86,10.95C22.11,35.52,19.09,40.02,21.11,45.98z" fill="#291D15"/>
    </g>
    <path clip-path="url(#SVGID_2_)" d="M82.02,128l-17.8-48.34c1.99-0.87,4.4-2.02,5.39-2.49 c8.83-4.24,5.13-11.17,4.73-15.77c-0.25-2.83,0.56-8.35,2.23-9.95c1.66-1.59-0.19-3.56-1.1-3.9c-1.08-0.41-2.83-0.01-4.37,1.86 s-1.01,4.46-1.65,6.08c-0.21,0.52-0.94,0.52-1.15,0c-1.4-3.44-6.7-16.01-6.7-16.01c-0.69-1.71-2.29-2.66-3.87-1.79 c-1.26,0.69-1.48,2.26-0.91,3.69l4.29,11.51c0.06,0.15,0,0.32-0.13,0.38l-0.01,0c-0.14,0.07-0.32,0.01-0.4-0.14l-6.88-12.5 c-0.71-1.36-1.94-2.27-3.3-1.81c-1.69,0.57-2.06,2.41-1.21,4.05l6.22,12.72c0.16,0.31,0.07,0.67-0.21,0.84c0,0-0.01,0-0.01,0.01 c-0.28,0.17-0.66,0.06-0.84-0.25c0,0-5.46-8.63-6.22-9.89c-0.77-1.26-2.22-2.41-3.78-1.49c-1.56,0.92-1.31,2.41-0.55,3.87 c0.65,1.24,4.61,7.94,5.76,9.87c0.17,0.29,0.08,0.66-0.2,0.84c-0.27,0.17-0.61,0.11-0.81-0.13l-4.17-5.05 c-1.04-1.25-2.17-1.91-3.43-1.22c-1.56,0.86-1.69,2.59-0.6,4.08l6.2,9.09c0,0,3.87,5.87,5.47,8.31c1.2,1.84,2.42,3.14,3.57,4.07 L72.52,128H82.02z" fill="#4E342E" opacity="0.35"/>
    <g clip-path="url(#SVGID_2_)">
      <path d="M67.81,68.05c-0.1-0.04-0.21-0.07-0.32-0.08h-6.99c-0.11,0.01-0.21,0.04-0.32,0.08 c-0.63,0.26-0.98,0.91-0.68,1.61c0.3,0.7,1.69,2.66,4.49,2.66c2.8,0,4.19-1.96,4.49-2.66C68.79,68.97,68.45,68.31,67.81,68.05z" fill="#E59600"/>
      <g>
        <path d="M47.63,60.3c-2.06,0-3.9-0.5-5.18-1.29c-0.55-0.34-0.87-0.14-0.77,0.5c0.37,2.48,2.9,4.4,5.95,4.4 c3.06,0,5.58-1.92,5.95-4.4c0.1-0.64-0.22-0.84-0.77-0.5C51.53,59.8,49.69,60.3,47.63,60.3z" fill="#42312C"/>
        <path d="M80.25,60.3c-2.06,0-3.9-0.5-5.18-1.29c-0.55-0.34-0.87-0.14-0.77,0.5c0.37,2.48,2.9,4.4,5.95,4.4 c3.06,0,5.58-1.92,5.95-4.4c0.1-0.64-0.22-0.84-0.77-0.5C84.15,59.8,82.3,60.3,80.25,60.3z" fill="#42312C"/>
      </g>
      <path id="XMLID_19_" d="M73.85,81.76c0,1.01-4.46,1.22-9.95,1.22s-9.95-0.23-9.95-1.22 c0-1.04,4.46-1.68,9.95-1.68S73.85,80.7,73.85,81.76z" fill="#473530"/>
    </g>
    <g clip-path="url(#SVGID_2_)">
      <g>
        <path d="M80.21,44.3c-1.08-0.41-2.83-0.01-4.37,1.86c-1.54,1.87-1.01,4.46-1.65,6.08 c-0.21,0.52-0.94,0.52-1.15,0c-1.4-3.44-6.7-16.01-6.7-16.01c-0.69-1.71-2.29-2.66-3.87-1.79c-1.26,0.69-1.48,2.26-0.91,3.69 l4.29,11.51c0.06,0.15,0,0.32-0.13,0.38l-0.01,0c-0.14,0.07-0.32,0.01-0.4-0.14l-6.88-12.5c-0.71-1.36-1.94-2.27-3.3-1.81 c-1.69,0.57-2.06,2.41-1.21,4.05l6.22,12.72c0.16,0.31,0.07,0.67-0.21,0.84c0,0-0.01,0-0.01,0.01 c-0.28,0.17-0.66,0.06-0.84-0.25c0,0-5.46-8.63-6.22-9.89c-0.77-1.26-2.22-2.41-3.78-1.49s-1.31,2.41-0.55,3.87 c0.65,1.24,4.61,7.94,5.76,9.87c0.17,0.29,0.08,0.66-0.2,0.84v0c-0.27,0.17-0.61,0.11-0.81-0.13l-4.17-5.05 c-1.04-1.25-2.17-1.91-3.43-1.22c-1.56,0.86-1.69,2.59-0.6,4.08l6.2,9.09c0,0,3.87,5.87,5.47,8.31 c4.19,6.42,8.65,6.46,9.52,6.26c1.3-0.29,6.52-2.78,8.09-3.54c8.83-4.24,5.13-11.17,4.73-15.77c-0.25-2.83,0.56-8.35,2.23-9.95 S81.13,44.64,80.21,44.3z" fill="#A56C43"/>
        <path d="M65.7,78.49c-1.69,0-5.83-0.69-9.79-6.75c-1.59-2.44-5.46-8.31-5.47-8.31l-6.19-9.07 c-0.75-1.02-1.05-2.19-0.81-3.26c0.21-0.95,0.83-1.75,1.75-2.25c1.09-0.6,2.79-0.83,4.68,1.46l1.11,1.34 c-1.5-2.55-2.96-5.05-3.34-5.78c-1.61-3.09-0.11-4.58,0.93-5.19c2.04-1.21,4.06,0.05,5.15,1.83c0.29,0.47,1.26,2.02,2.35,3.75 l-3.04-6.22c-0.6-1.16-0.71-2.46-0.28-3.52c0.37-0.91,1.1-1.59,2.07-1.91c1.71-0.58,3.48,0.32,4.51,2.3l2.2,4.01l-0.91-2.44 c-0.8-2-0.24-4.03,1.37-4.91c0.9-0.49,1.9-0.58,2.82-0.25c1.07,0.38,1.97,1.31,2.46,2.55c0.04,0.1,4.42,10.49,6.25,14.9 c0.03-0.24,0.06-0.49,0.08-0.75c0.14-1.37,0.32-3.08,1.48-4.48c1.96-2.38,4.18-2.65,5.49-2.16c0,0,0,0,0,0 c0.8,0.3,2.06,1.37,2.36,2.82c0.21,1-0.12,1.98-0.92,2.74c-1.27,1.22-2.17,6.26-1.92,9.14c0.07,0.82,0.26,1.75,0.46,2.73 c0.88,4.33,2.1,10.25-5.76,14.02c-3.12,1.5-7.08,3.34-8.3,3.61C66.47,78.43,66.19,78.49,65.7,78.49z M46.68,50.43 c-0.24,0-0.4,0.09-0.52,0.16c-0.42,0.23-0.68,0.55-0.76,0.93c-0.11,0.5,0.07,1.11,0.49,1.68l6.22,9.12 c0.01,0.01,3.89,5.89,5.48,8.33c4.21,6.45,8.42,5.84,8.46,5.83c0.78-0.18,3.73-1.47,7.88-3.46c6.45-3.09,5.54-7.53,4.66-11.82 c-0.21-1.04-0.42-2.03-0.5-2.96c-0.23-2.68,0.43-8.74,2.53-10.76c0.39-0.37,0.39-0.67,0.34-0.9c-0.13-0.62-0.8-1.23-1.1-1.35 c-0.73-0.27-2.05,0.1-3.25,1.56c-0.77,0.94-0.9,2.2-1.03,3.42c-0.09,0.86-0.17,1.66-0.46,2.4c-0.24,0.61-0.83,1.02-1.49,1.02 c0,0-0.01,0-0.01,0c-0.66,0-1.25-0.4-1.5-1.01c-1.39-3.39-6.64-15.87-6.7-16c-0.29-0.72-0.76-1.24-1.29-1.43 c-0.38-0.14-0.78-0.09-1.18,0.13c-0.82,0.45-0.82,1.55-0.46,2.44l4.3,11.53c0.25,0.61-0.03,1.34-0.63,1.63 c-0.64,0.31-1.39,0.05-1.72-0.58l-6.87-12.48c-0.16-0.31-0.97-1.73-2.1-1.35c-0.42,0.14-0.71,0.4-0.85,0.77 c-0.21,0.52-0.13,1.21,0.21,1.87l6.23,12.74c0.39,0.76,0.13,1.71-0.6,2.14c-0.77,0.45-1.76,0.18-2.22-0.6 c-0.21-0.33-5.45-8.62-6.22-9.87c-0.19-0.32-1.22-1.86-2.42-1.15c-0.43,0.25-1.14,0.68-0.17,2.55c0.42,0.81,2.46,4.3,5.73,9.82 c0.45,0.76,0.22,1.72-0.53,2.2c-0.69,0.44-1.6,0.29-2.12-0.34l-4.17-5.05C47.58,50.66,47.05,50.43,46.68,50.43z M59.26,52.77 c0,0,0,0.01,0.01,0.01L59.26,52.77z M59.93,52.37c0,0.01,0.01,0.01,0.01,0.01C59.93,52.37,59.93,52.37,59.93,52.37z M64.9,49.97 c0,0.01,0.01,0.02,0.01,0.03L64.9,49.97z M66.17,49.36l0.01,0.02C66.18,49.38,66.18,49.37,66.17,49.36z" fill="#875334"/>
      </g>
    </g>
    <g clip-path="url(#SVGID_2_)">
      <defs>
        <path id="SVGID_10_" d="M109.36,128H78.56L61.54,81.41c-0.73-1.53-0.05-3.36,1.5-4.04l16.58-7.29c1.44-0.64,3.13-0.05,3.86,1.35 l23.52,40.95l-4.7,2.48L109.36,128z"/>
      </defs>
      <clipPath id="SVGID_11_">
        <use overflow="visible" xlink:href="#SVGID_10_"/>
      </clipPath>
      <g clip-path="url(#SVGID_11_)">
        <linearGradient id="SVGID_12_" gradientUnits="userSpaceOnUse" x1="88.0586" x2="88.0586" y1="75.9139" y2="130.0934">
          <stop offset="0" style="stop-color:#F78C1F"/>
          <stop offset="0.4936" style="stop-color:#F37F20"/>
          <stop offset="1" style="stop-color:#ED6D23"/>
        </linearGradient>
        <path d="M79.6,126.5L62.95,80.9c-0.02-0.04-0.04-0.09-0.06-0.13c-0.18-0.37-0.2-0.79-0.05-1.17 s0.43-0.69,0.8-0.85l16.58-7.29c0.19-0.08,0.4-0.13,0.6-0.13c0.56,0,1.07,0.31,1.33,0.8l31.22,54.37H79.6z" fill="url(#SVGID_12_)"/>
        <path d="M80.83,72.82L80.83,72.82L80.83,72.82 M80.82,72.83c0.02,0.03,0.03,0.06,0.05,0.1L110.78,125H80.65 l-16.3-44.62c-0.03-0.09-0.07-0.18-0.11-0.26L80.82,72.83 M80.82,69.83c-0.4,0-0.82,0.08-1.21,0.26l-16.58,7.29 c-1.55,0.68-2.23,2.51-1.5,4.04L78.56,128h37.41L83.48,71.43C82.94,70.41,81.9,69.83,80.82,69.83L80.82,69.83z" fill="#DA6727"/>
      </g>
    </g>
  </g>
</svg>