<svg viewBox="0 0 128 128" xmlns="http://www.w3.org/2000/svg">
  <defs>
    <radialGradient id="SVGID_1_" cx="60.5283" cy="14.7923" gradientUnits="userSpaceOnUse" r="72.9624">
      <stop offset="0.5011" stop-color="#5C727D"/>
      <stop offset="0.8408" stop-color="#484D4F"/>
    </radialGradient>
    <linearGradient id="SVGID_2_" gradientUnits="userSpaceOnUse" x1="60.6284" x2="61.0103" y1="76.6649" y2="46.1064">
      <stop offset="0.1909" stop-color="#27A0E2"/>
      <stop offset="0.4261" stop-color="#80C7EE" stop-opacity="0.8729"/>
      <stop offset="0.746" stop-color="#FFFFFF" stop-opacity="0.7"/>
    </linearGradient>
  </defs>
  <path d="M97.93,47.42 C97.93,47.42 92.73,43.09 90.99,41.35 C87.81,38.17 80.73,31.09 60.21,31.09 C46.19,31.09 36.22,35.57 30.59,41.78 C25.89,46.96 18.6,51.75 18.6,51.75 L16.58,69.52 L27.13,86.14 C27.13,86.14 29.88,92.93 38.4,94.67 C48.98,96.82 49.82,92.21 61.38,92.5 C70.92,92.74 74.1,95.97 82.33,95.1 C90.73,94.22 95.77,86.72 97.07,84.12 C98.37,81.52 107.62,64.47 107.62,64.47 L97.93,47.42 Z M90.7,71.11 C89.48,76.96 87.52,79.2 87.52,79.2 L38.25,81.8 C38.25,81.8 34.64,76.89 32.47,72.26 C30.3,67.64 30.23,63.11 31.31,58.68 C32.78,52.65 39.51,47.59 39.51,47.59 L84.92,47.7 C84.92,47.7 87.77,49.53 89.98,54.64 C92.29,59.99 91.52,67.23 90.7,71.11 Z" fill="url(#SVGID_1_)"/>
  <path d="M66.84,110.47 C66.84,110.47 77.87,109.6 88.01,100.06 C103.46,85.53 108.08,60.44 109.41,49.71 C111.01,36.78 107.24,25.91 107.24,25.91 L115.48,23.16 C115.48,23.16 119.25,33.96 117.65,52.57 C116.39,67.22 109.41,93.08 94.99,106.24 C82.09,118.01 65.7,119.74 65.7,119.74 L66.84,110.47 Z" fill="#4485F6"/>
  <path d="M107.58,56.92 C107.58,56.92 109.56,57.51 110.9,57.84 C113.07,58.37 117.05,59.3 117.41,60.09 C118.15,61.74 115.94,71.11 114.34,71.23 C112.74,71.34 109.08,70.43 107.7,69.51 C106.32,68.59 107.58,56.92 107.58,56.92 Z" fill="#484D4F"/>
  <path d="M81.35,103.71 C81.35,103.71 79.68,102.58 78.25,103.71 C76.84,104.82 77.35,106.64 78.19,108.19 C79.03,109.74 82.07,114.16 82.97,114.94 C83.87,115.72 85.21,115.76 86.03,115.27 C87.6,114.33 87.07,112.54 87.07,112.54 C87.07,112.54 88.5,113.81 90.19,112.87 C91.97,111.88 91.36,110.04 91.36,110.04 C91.36,110.04 93.12,110.98 94.65,109.81 C96.07,108.72 95.72,107.17 95.72,107.17 C95.72,107.17 97.35,107.79 98.81,106.23 C100.1,104.85 99.3,103.27 99.3,103.27 C99.3,103.27 100.63,103.76 101.68,102.52 C102.88,101.09 102.01,99.53 101.35,98.87 C100.69,98.21 96.14,93.59 94.29,92.82 C93.65,92.55 92.6,92.5 91.85,93.18 C90.66,94.25 91.59,95.78 91.59,95.78 C91.59,95.78 90.15,94.83 88.95,95.91 C87.7,97.04 88.57,98.83 88.57,98.83 C88.57,98.83 87.04,97.39 85.52,98.47 C84.32,99.33 85.04,101.16 85.04,101.16 C85.04,101.16 83.57,99.89 82.11,100.98 C80.68,102.05 81.35,103.71 81.35,103.71 Z" fill="#1664C0"/>
  <path d="M96.97,8.04 C96.73,9.74 103.26,24.37 103.58,25.13 C104.1,26.37 107.34,29.92 112.48,27.62 C116.87,25.66 115.81,20.8 115.62,20.09 C114.9,17.41 110.45,3.53 108.81,3.2 C107.44,2.92 97.16,6.66 96.97,8.04 Z" fill="#7FDAFB"/>
  <path d="M54.4,107.42 C54.4,107.42 54.46,119.95 54.51,121.28 C54.57,122.61 55.34,123.83 56.89,123.89 C58.44,123.95 65.37,123.89 66.37,123.83 C67.37,123.77 68.21,122.68 68.31,120.73 C68.42,118.62 68.53,106.6 68.53,106.6 L54.4,107.42 Z" fill="#5C727F"/>
  <path d="M47.47,99.61 C47.3,99.83 47.97,109.09 61.33,108.92 C74.69,108.75 75.63,99.88 75.52,99.44 C75.41,99 47.63,99.38 47.47,99.61 Z" fill="#484D4F"/>
  <path d="M14.96,55.1 C14.96,55.1 16.04,48.09 19.37,44.97 C21.87,42.63 25.09,41.69 28.79,41.42 C32.49,41.14 88.68,41.16 93.03,41.24 C98.11,41.33 102.41,44.14 104.58,46.79 C107.12,49.89 108.07,55.8 108.07,57.37 C108.07,58.94 98.94,48.36 98.94,48.36 L81.7,46.66 L28.52,45.85 L14.96,55.1 Z" fill="#4383F4"/>
  <path d="M33.26,87.03 C33.26,87.03 37.62,90.19 46.93,89.21 C56.12,88.24 58.66,78.08 58.66,78.08 L65.92,80.98 C65.92,80.98 68.22,86.91 74.51,88.6 C80.8,90.29 87.11,87.82 87.11,87.82 L73.18,79.41 L66.29,68.4 L56.89,68.3 L49.84,79.65 L42.22,85.46 L33.26,87.03 Z" fill="#000202"/>
  <path d="M61.54,71.64 C59.15,71.64 58.19,75.85 56.66,79.1 C55.13,82.35 53.03,86.27 54.46,87.61 C55.89,88.95 57.52,88.76 61.44,88.85 C65.46,88.95 67.56,88.75 68.52,86.94 C69.42,85.24 67.53,81.93 66.32,79 C64.98,75.76 63.64,71.64 61.54,71.64 Z" fill="#5C727D"/>
  <path d="M34.39,80.61 L21.99,77.05 L15.41,61.85 L20.58,50.85 C20.58,50.85 34.27,45.78 35.67,46 C37.07,46.22 66.39,46.11 68.12,46.22 C69.85,46.33 98.41,46.76 98.63,47.08 C98.85,47.4 106.5,48.59 106.28,54.95 C106.06,61.31 104.99,69.93 104.77,70.69 C104.55,71.45 102.51,78.34 100.57,78.77 C98.63,79.2 90.11,79.63 90.11,79.63 L72.76,77.13 L61.56,64.54 L51.97,74.13 L34.39,80.61 Z" fill="url(#SVGID_2_)" opacity="0.8"/>
  <path d="M18.34,72.37 L18.89,67.47 C18.89,67.47 23.18,73.68 27.67,75.88 C32.67,78.32 37.8,79.39 44.55,76.24 C50.7,73.38 53.07,65.13 55.9,62.41 C56.86,61.49 58.52,60.21 61.68,60.3 C63.8,60.36 65.73,61.2 66.6,61.97 C70.4,65.36 72.62,73.86 77.12,76.35 C82.8,79.49 89.61,79.47 95.24,75.96 C100.88,72.45 103.47,68.75 103.47,68.75 L103.19,76.51 L94.22,85.57 L77.5,83.46 L71.4,77.08 L64.28,68.02 C64.28,68.02 57.07,68.02 56.89,68.3 C56.71,68.58 50.33,78.1 50.33,78.1 L43.58,84.57 C43.58,84.57 32.58,85.59 31.66,84.85 C30.74,84.11 21.59,79.3 21.59,79.3 L18.34,72.37 Z" fill="#1565C4"/>
  <path d="M101.87,47.3 C98.49,45.43 93.68,44.5 86.99,44.61 C80.31,44.72 31.8,44.29 28.78,44.39 C25.76,44.5 22.2,45.58 19.94,47.19 C15.34,50.48 14.02,56.89 13.8,64.01 C13.53,72.52 18.42,88.01 36.1,88.11 C48.88,88.18 52.47,79.68 55.68,74.44 C57.16,72.03 58.33,69.37 61.54,69.46 C64.99,69.56 65.81,72.02 66.9,73.95 C70,79.48 73.02,88.37 86.98,88.29 C102.5,88.21 108.45,73.21 108.75,63.52 C109,54.8 105.64,49.39 101.87,47.3 Z M103.27,64.01 C102.84,71.66 98.84,82.63 87.21,83.09 C76.32,83.52 73.41,77.05 71.79,74.79 C70.17,72.53 67.29,68.01 65.74,66.69 C63.58,64.86 58.55,65.49 57.04,66.79 C55.12,68.43 53.01,71.93 50.76,75.15 C46.99,80.54 44.52,82.67 36.87,82.99 C29.22,83.31 22.96,78.79 20.48,71.46 C17.56,62.83 19.19,55.4 24.15,51.73 C26.55,49.96 28.79,49.25 31.16,49.14 C33.53,49.03 87,48.82 92.93,49.36 C98.86,49.9 103.7,56.36 103.27,64.01 Z" fill="#81D7FF"/>
</svg>