<svg viewBox="0 0 128 128" xmlns="http://www.w3.org/2000/svg">
  <defs/>
  <path d="M65.82,31.35 C65.33,31.35 64.85,31.15 64.5,30.75 C63.86,30.02 63.93,28.92 64.66,28.28 L73.86,20.21 C74.59,19.57 75.69,19.65 76.33,20.37 C76.97,21.1 76.9,22.2 76.17,22.84 L66.97,30.91 C66.65,31.2 66.23,31.35 65.82,31.35 Z" fill="#7ADC8A"/>
  <path d="M47.62,17.83 C47.56,17.83 47.5,17.83 47.44,17.82 C46.48,17.72 45.78,16.86 45.88,15.9 L46.82,6.7 C46.92,5.74 47.77,5.04 48.74,5.14 C49.7,5.24 50.4,6.1 50.3,7.06 L49.36,16.26 C49.27,17.16 48.5,17.83 47.62,17.83 Z" fill="#7ADC8A"/>
  <path d="M29.93,22.76 C29.41,22.76 28.89,22.53 28.54,22.08 L21.6,13.07 C21.01,12.3 21.15,11.21 21.92,10.62 C22.69,10.03 23.78,10.17 24.37,10.94 L31.31,19.95 C31.9,20.72 31.76,21.81 30.99,22.4 C30.67,22.64 30.3,22.76 29.93,22.76 Z" fill="#7ADC8A"/>
  <path d="M17.96,36.79 C17.83,36.79 17.7,36.78 17.57,36.75 L6.87,34.31 C5.93,34.1 5.34,33.16 5.55,32.21 C5.77,31.27 6.7,30.68 7.65,30.89 L18.35,33.33 C19.29,33.54 19.88,34.48 19.67,35.43 C19.48,36.24 18.76,36.79 17.96,36.79 Z" fill="#7ADC8A"/>
  <path d="M12.14,64.76 C11.52,64.76 10.91,64.42 10.6,63.83 C10.14,62.98 10.47,61.92 11.32,61.46 L22.21,55.64 C23.06,55.18 24.12,55.51 24.58,56.36 C25.04,57.21 24.71,58.27 23.86,58.73 L12.97,64.55 C12.7,64.69 12.42,64.76 12.14,64.76 Z" fill="#7ADC8A"/>
  <path d="M37.67,82.97 C37.28,82.97 36.89,82.84 36.57,82.58 C35.82,81.97 35.7,80.87 36.31,80.12 L44.38,70.17 C44.99,69.42 46.09,69.31 46.84,69.91 C47.59,70.52 47.71,71.62 47.1,72.37 L39.03,82.32 C38.68,82.75 38.18,82.97 37.67,82.97 Z" fill="#7ADC8A"/>
  <path d="M53.81,99.48 C53.2,99.48 52.6,99.16 52.28,98.58 C51.81,97.74 52.11,96.67 52.95,96.2 L64.02,90.01 C64.86,89.54 65.93,89.84 66.4,90.68 C66.87,91.52 66.57,92.59 65.73,93.06 L54.66,99.25 C54.39,99.41 54.1,99.48 53.81,99.48 Z" fill="#7ADC8A"/>
  <path d="M69.2,119.76 C68.9,119.76 68.59,119.68 68.3,119.51 C67.47,119.01 67.2,117.94 67.69,117.11 L75.2,104.53 C75.7,103.7 76.77,103.43 77.6,103.92 C78.43,104.42 78.7,105.49 78.21,106.32 L70.7,118.9 C70.38,119.45 69.8,119.76 69.2,119.76 Z" fill="#7ADC8A"/>
  <path d="M93.6,123.51 C92.79,123.51 92.06,122.94 91.89,122.12 L89.07,108.61 C88.87,107.66 89.48,106.74 90.43,106.54 C91.37,106.34 92.3,106.95 92.5,107.9 L95.32,121.41 C95.52,122.36 94.91,123.28 93.96,123.48 C93.84,123.5 93.72,123.51 93.6,123.51 Z" fill="#7ADC8A"/>
  <path d="M115,112.62 C114.55,112.62 114.09,112.45 113.75,112.1 L104.36,102.53 C103.68,101.84 103.69,100.73 104.38,100.05 C105.07,99.37 106.18,99.38 106.86,100.07 L116.25,109.64 C116.93,110.33 116.92,111.44 116.23,112.12 C115.89,112.46 115.45,112.62 115,112.62 Z" fill="#7ADC8A"/>
  <path d="M111.06,87.85 C110.21,87.85 109.47,87.23 109.33,86.37 C109.18,85.41 109.84,84.52 110.79,84.37 L121.68,82.68 C122.64,82.54 123.53,83.19 123.68,84.14 C123.83,85.1 123.17,85.99 122.22,86.14 L111.33,87.83 C111.24,87.84 111.15,87.85 111.06,87.85 Z" fill="#7ADC8A"/>
  <path d="M99.42,72.45 C99.02,72.45 98.62,72.31 98.29,72.04 C97.55,71.42 97.46,70.31 98.08,69.57 L107.28,58.68 C107.9,57.94 109.01,57.85 109.75,58.47 C110.49,59.09 110.58,60.2 109.96,60.94 L100.76,71.83 C100.41,72.24 99.92,72.45 99.42,72.45 Z" fill="#7ADC8A"/>
  <path d="M81.03,55 C80.63,55 80.23,54.86 79.9,54.58 C79.16,53.96 79.07,52.85 79.7,52.11 L89.08,41.04 C89.7,40.3 90.81,40.21 91.55,40.84 C92.29,41.46 92.38,42.57 91.75,43.31 L82.37,54.38 C82.02,54.79 81.52,55 81.03,55 Z" fill="#7ADC8A"/>
  <path d="M57.19,22.9 C56.89,22.9 56.59,22.82 56.31,22.66 C55.47,22.17 55.19,21.1 55.68,20.27 L63,7.69 C63.49,6.86 64.56,6.57 65.39,7.06 C66.22,7.55 66.51,8.62 66.02,9.45 L58.7,22.03 C58.38,22.59 57.79,22.9 57.19,22.9 Z" fill="#01AB46"/>
  <path d="M72.58,43.36 C72.04,43.36 71.51,43.11 71.17,42.64 C70.6,41.86 70.77,40.77 71.55,40.19 L82.81,31.93 C83.59,31.36 84.68,31.53 85.26,32.31 C85.83,33.09 85.66,34.18 84.88,34.76 L73.62,43.02 C73.3,43.25 72.94,43.36 72.58,43.36 Z" fill="#01AB46"/>
  <path d="M90.6,64.76 C90.3,64.76 89.99,64.68 89.71,64.52 C88.88,64.03 88.6,62.96 89.09,62.12 L96.6,49.36 C97.09,48.53 98.16,48.25 99,48.74 C99.83,49.23 100.11,50.3 99.62,51.14 L92.11,63.9 C91.78,64.45 91.2,64.76 90.6,64.76 Z" fill="#01AB46"/>
  <path d="M105.62,79.4 C105.06,79.4 104.51,79.13 104.17,78.64 C103.62,77.84 103.83,76.75 104.62,76.21 L114.76,69.26 C115.56,68.71 116.65,68.92 117.19,69.71 C117.74,70.51 117.53,71.6 116.74,72.14 L106.6,79.09 C106.3,79.3 105.96,79.4 105.62,79.4 Z" fill="#01AB46"/>
  <path d="M103.55,118.82 C102.92,118.82 102.31,118.48 102,117.88 L96,106.43 C95.55,105.57 95.88,104.52 96.74,104.07 C97.6,103.62 98.65,103.95 99.1,104.81 L105.11,116.26 C105.56,117.12 105.23,118.17 104.37,118.62 C104.11,118.75 103.83,118.82 103.55,118.82 Z" fill="#01AB46"/>
  <path d="M81.41,123.51 C81.3,123.51 81.18,123.5 81.07,123.48 C80.12,123.29 79.51,122.37 79.7,121.42 L82.33,108.28 C82.52,107.33 83.45,106.71 84.39,106.91 C85.34,107.1 85.95,108.02 85.76,108.97 L83.13,122.11 C82.95,122.93 82.22,123.51 81.41,123.51 Z" fill="#01AB46"/>
  <path d="M59.25,109.43 C58.73,109.43 58.22,109.2 57.88,108.77 C57.28,108.01 57.41,106.91 58.16,106.31 L68.11,98.43 C68.87,97.83 69.97,97.96 70.57,98.71 C71.17,99.47 71.04,100.57 70.29,101.17 L60.34,109.05 C60.02,109.31 59.64,109.43 59.25,109.43 Z" fill="#01AB46"/>
  <path d="M47.99,90.1 C47.5,90.1 47,89.89 46.66,89.49 C46.03,88.76 46.12,87.65 46.85,87.02 L57.17,78.2 C57.9,77.57 59.01,77.66 59.64,78.39 C60.27,79.12 60.18,80.23 59.45,80.86 L49.13,89.68 C48.8,89.96 48.39,90.1 47.99,90.1 Z" fill="#01AB46"/>
  <path d="M22.65,75.83 C22.29,75.83 21.92,75.72 21.61,75.49 C20.83,74.91 20.67,73.82 21.25,73.04 L28.76,62.9 C29.33,62.12 30.43,61.96 31.21,62.54 C31.99,63.12 32.15,64.21 31.57,64.99 L24.06,75.13 C23.71,75.59 23.19,75.83 22.65,75.83 Z" fill="#01AB46"/>
  <path d="M24.15,29.09 C23.81,29.09 23.47,28.99 23.17,28.79 L12.1,21.28 C11.3,20.74 11.09,19.65 11.63,18.85 C12.17,18.05 13.26,17.84 14.06,18.38 L25.13,25.89 C25.93,26.43 26.14,27.52 25.6,28.32 C25.26,28.82 24.71,29.09 24.15,29.09 Z" fill="#01AB46"/>
  <path d="M35.6,19.15 C34.76,19.15 34.02,18.55 33.88,17.69 L32,6.61 C31.84,5.66 32.48,4.75 33.43,4.59 C34.39,4.43 35.29,5.07 35.45,6.02 L37.33,17.09 C37.49,18.04 36.85,18.95 35.9,19.11 C35.8,19.14 35.7,19.15 35.6,19.15 Z" fill="#01AB46"/>
  <path d="M23.4,21.9 C9.51,36.73 14.39,53.97 25.28,63.2 C38.79,74.65 51.84,74.46 57.47,81.78 C63.1,89.1 63.38,99.8 75.77,108.06 C84.45,113.85 97.28,112.94 105.24,104.4 C113.37,95.68 116.13,80.54 105.38,72.44 C94.54,64.27 92.29,63.76 82.71,52.87 C73.13,41.98 69.58,25.84 58.13,18.33 C46.68,10.82 32.03,12.69 23.4,21.9 Z" fill="#02AB47"/>
  <path d="M27.91,26.59 C18.15,37.1 19.45,52.34 34.1,61.5 C46.11,69.01 51.78,67.94 61.32,77.92 C69.39,86.37 70.18,95.64 76.15,100.73 C84.97,108.24 95.12,105.66 101.02,100.31 C107.07,94.82 110.12,82.52 96.23,72.39 C82.34,62.26 78.12,56.45 75.21,52.12 C69.39,43.49 65.07,33.72 56.25,25.84 C47.82,18.31 35.77,18.13 27.91,26.59 Z" fill="#7CDB8D"/>
  <path d="M81.59,84.13 C82.94,86.46 82.06,89.01 80.75,89.95 C78.6,91.49 75.81,90.78 74.46,88.45 C73.11,86.12 73.62,83.3 75.96,82.07 C77.74,81.12 80.24,81.79 81.59,84.13 Z" fill="#00AA46"/>
  <path d="M96.33,90.69 C96.56,92.86 95.3,94.82 92.95,95.01 C90.14,95.24 88.82,92.96 88.82,90.79 C88.82,88.62 90.23,86.75 92.67,86.85 C94.79,86.93 96.14,88.91 96.33,90.69 Z" fill="#00AA46"/>
  <path d="M80.75,68.55 C81.22,71.74 79.62,74.37 75.87,74.56 C72.94,74.71 70.01,71.78 70.03,68.93 C70.05,65.46 72.19,63.58 75.12,63.58 C78.05,63.57 80.33,65.72 80.75,68.55 Z" fill="#00AA46"/>
  <path d="M52.17,36.4 C57.93,41.74 60.87,50.43 56.63,54.28 C52.59,57.94 43.49,56.06 37.48,50.43 C31.28,44.62 32.36,38.08 35.99,34.42 C39.64,30.72 47.08,31.68 52.17,36.4 Z" fill="#FBC219"/>
  <path d="M69.42,54.71 C70.05,56.69 69.52,58.68 67.79,59.39 C65.73,60.23 63.75,59.11 62.82,56.57 C62.1,54.63 63.29,52.71 65.07,52.15 C66.84,51.59 68.79,52.74 69.42,54.71 Z" fill="#00AA46"/>
  <path d="M60.85,62.4 C61.78,63.67 61.82,65.53 60.65,66.38 C59.48,67.24 57.53,66.77 56.6,65.5 C55.67,64.23 55.87,62.5 57.04,61.65 C58.22,60.79 59.93,61.13 60.85,62.4 Z" fill="#00AA46"/>
  <path d="M6.88,48.99 C5.98,48.99 5.22,48.3 5.14,47.39 C5.06,46.43 5.77,45.58 6.74,45.5 L17.81,44.56 C18.77,44.47 19.62,45.19 19.7,46.16 C19.78,47.12 19.07,47.97 18.1,48.05 L7.03,48.98 C6.98,48.99 6.93,48.99 6.88,48.99 Z" fill="#01AB46"/>
  <path d="M120.26,101.17 C119.95,101.17 119.64,101.09 119.36,100.92 L108.1,94.16 C107.27,93.66 107,92.59 107.5,91.76 C108,90.93 109.07,90.66 109.9,91.16 L121.16,97.92 C121.99,98.42 122.26,99.49 121.76,100.32 C121.43,100.87 120.85,101.17 120.26,101.17 Z" fill="#01AB46"/>
</svg>