<svg viewBox="0 0 128 128" xmlns="http://www.w3.org/2000/svg">
  <defs>
    <radialGradient id="SVGID_1_" cx="82.926613" cy="-3.234206" gradientTransform="matrix(0.7977 0.6031 -0.7218 0.9547 0 0)" gradientUnits="userSpaceOnUse" r="67.7321">
      <stop offset="0.3839" stop-color="#F7C876" stop-opacity="0"/>
      <stop offset="0.4769" stop-color="#F6C269" stop-opacity="0.3283"/>
      <stop offset="0.6493" stop-color="#F3B346" stop-opacity="0.9376"/>
      <stop offset="0.667" stop-color="#F3B142"/>
    </radialGradient>
    <radialGradient id="SVGID_2_" cx="46.0094" cy="-2.534913" gradientTransform="matrix(0.5121 0.8589 -1.469 0.8759 0 0)" gradientUnits="userSpaceOnUse" r="41.4394">
      <stop offset="0.5618" stop-color="#F7C876"/>
      <stop offset="0.6444" stop-color="#F6BE5F"/>
      <stop offset="0.738" stop-color="#F5B74D"/>
      <stop offset="0.8369" stop-color="#F4B242"/>
      <stop offset="0.9489" stop-color="#F4B13F"/>
    </radialGradient>
    <linearGradient id="SVGID_3_" gradientUnits="userSpaceOnUse" x1="53.9856" x2="88.1474" y1="52.014" y2="44.1736">
      <stop offset="0" stop-color="#F4B13F" stop-opacity="0"/>
      <stop offset="1" stop-color="#F4B13F"/>
    </linearGradient>
    <radialGradient id="SVGID_4_" cx="106.1334" cy="32.1478" gradientUnits="userSpaceOnUse" r="13.8126">
      <stop offset="0" stop-color="#F3B142"/>
      <stop offset="0.2822" stop-color="#F4B54C" stop-opacity="0.7178"/>
      <stop offset="0.7562" stop-color="#F6C166" stop-opacity="0.2438"/>
      <stop offset="1" stop-color="#F7C876" stop-opacity="0"/>
    </radialGradient>
  </defs>
  <path d="M17.32,95.27 C22.82,97.57 43.39,84.43 47.38,81.37 C56.12,74.66 57.92,70.86 57.92,70.86 C57.92,70.86 53.33,86.57 54.29,96.72 C55.25,106.87 57.19,113.88 61.78,116.54 C66.37,119.2 79.91,117.51 99.73,105.42 C119.55,93.33 126.32,64.33 122.21,50.07 C117.26,32.87 101.42,23.97 101.42,23.97 C101.42,23.97 93.94,5.36 82.09,2.7 C68.63,-0.32 50.43,17.2 39.8,22.76 C29.17,28.32 16.36,34.36 13.7,37.02 C11.04,39.68 2.33,52.25 4.27,67.23 C6.21,82.21 12.41,93.21 17.32,95.27 Z" fill="#F7C876"/>
  <path d="M57.92,70.86 C57.92,70.86 53.33,86.57 54.29,96.72 C55.25,106.87 57.19,113.88 61.78,116.54 C66.37,119.2 79.91,117.51 99.73,105.42 C119.55,93.33 126.14,64.87 122.21,50.56 C117.17,32.2 101.42,23.97 101.42,23.97 C101.42,23.97 93.94,5.36 82.09,2.7 C68.63,-0.32 57.92,70.86 57.92,70.86 Z" fill="url(#SVGID_1_)"/>
  <path d="M17.32,95.27 C22.82,97.57 43.39,84.43 47.38,81.37 C56.12,74.66 57.92,70.86 57.92,70.86 L75.76,32.42 C75.76,32.42 81.7,16.42 78.55,13.27 C76.64,11.36 72.32,10.59 69.27,14.78 C66.76,18.23 65.25,26.96 59.54,36.89 C54.46,45.72 43.63,55 27.49,58.54 C13.43,61.62 2.95,57.43 4.27,67.23 C6.28,82.2 12.41,93.21 17.32,95.27 Z" fill="url(#SVGID_2_)"/>
  <path d="M17.32,95.27 C22.82,97.57 43.39,84.43 47.38,81.37 C56.12,74.66 57.92,70.86 57.92,70.86 L75.76,32.42 C75.76,32.42 81.7,16.42 78.55,13.27 C76.64,11.36 72.32,10.59 69.27,14.78 C66.76,18.23 65.25,26.96 59.54,36.89 C54.46,45.72 43.63,55 27.49,58.54 C13.43,61.62 2.95,57.43 4.27,67.23 C6.28,82.2 12.41,93.21 17.32,95.27 Z" fill="url(#SVGID_3_)"/>
  <path d="M62.85,111.64 C63.65,119.39 85.76,109.79 94.75,103.84 C107.81,95.19 112.4,86.36 116.13,77.71 C120.9,66.66 120.88,57.01 119.52,57.01 C118.16,57.01 118.45,71.05 104.42,85.68 C88.64,102.14 61.83,101.8 62.85,111.64 Z" fill="#CF701E"/>
  <path d="M80.8,104.91 C80.8,104.91 89.71,100.56 93.84,98.2 C98.27,95.67 104.6,91.62 104.6,91.62 L121.82,102.76 C121.82,102.76 109.16,111.5 106.63,113.27 C104.1,115.04 99.03,118.84 98.4,120.11 C97.77,121.38 97.26,125.93 96.37,125.68 C95.48,125.43 93.84,123.91 88.9,117.07 C83.96,110.23 80.8,104.91 80.8,104.91 Z" fill="#E0E0E0"/>
  <path d="M77.61,16.63 C71.67,15.61 70.82,27.15 65.9,41.57 C60.98,55.99 56.75,70.39 57.82,71.1 C58.68,71.67 66.41,57.48 72.18,42.38 C77.22,29.22 81.46,17.29 77.61,16.63 Z" fill="#CF701E"/>
  <path d="M101.43,23.97 C101.43,23.97 104.9,29.91 106.42,32.53 C107.94,35.15 113,42.28 113.75,43.58 C114.5,44.89 120.54,43.25 115.06,36.06 C108.77,27.83 101.43,23.97 101.43,23.97 Z" fill="url(#SVGID_4_)"/>
</svg>