<svg viewBox="0 0 128 128" xmlns="http://www.w3.org/2000/svg" xmlns:xlink="http://www.w3.org/1999/xlink">
  <g id="Layer_11">
    <g>
      <g>
        <linearGradient id="SVGID_1_" gradientUnits="userSpaceOnUse" x1="63.6956" x2="63.8848" y1="115.6574" y2="11.8867">
          <stop offset="0" style="stop-color:#BF360C"/>
          <stop offset="0.5049" style="stop-color:#E64A19"/>
          <stop offset="1" style="stop-color:#FF7043"/>
        </linearGradient>
        <path d="M67.46,117.75c-4.71,0-12.35-0.87-19.67-3.31c-5.81-1.94-13.42-5.58-16.61-11.9 c-3.03-5.99-1.57-13.08,4.33-21.09c2.31-3.14,3.03-6.77,3.24-8.35c-6.34-1.9-9.97-9.16-11.63-13.59 c0.25,3.52,2.43,8.27,3.47,10.14l1.56,2.82l-2.88-1.44C24,68.39,20.95,63.23,19.22,58.7c0.51,3.99,1.31,7.59,1.32,7.65l0.84,3.75 l-2.56-2.86c-5.12-5.73-6.74-12.56-7.21-17.07c-1.37,3.89-2.02,6.99-2.03,7.03l-0.74,3.64l-1.18-3.52 c-2.86-8.53-3.96-19.56,0.4-23.62c4.45-4.15,32.94-21.32,34.15-22.05l1.29-0.78l0.21,1.5c2.59,18.3-6.75,25.4-7.15,25.7l-1.9,1.4 l0.96-7.16c-2.08,4.18-5.25,8.38-9.67,8.9l-1.72,0.2c2.1,1.54,6.14,3.81,11.81,3.81c4,0,8.22-1.11,12.55-3.31l1.97-1L50,43.03 c-1.05,4.1-0.84,9.89-0.37,15.8C56.6,46.55,62.18,40.8,67.11,40.8c7.27,0,10.46,4.61,14.17,11.88l0.96-12.58l1.62,3.26 c6.35,12.82,16.39,18.48,24.47,23.04c8.87,5,15.87,8.96,13.74,19.52c-0.54,2.7-2.99,7.23-13.26,7.23c0,0,0,0,0,0 c-1.81,0-3.8-0.14-5.92-0.43c-2.08-0.28-4.06-0.72-5.91-1.32c0.21,1.69,0.31,3.34,0.3,4.92 C97.21,112.14,81.18,117.75,67.46,117.75z M23.21,40.58c0.21,0.18,0.47,0.4,0.78,0.63l1.01-1.56c0.78-1.21,1.48-2.48,2.02-3.61 L23.21,40.58z" fill="url(#SVGID_1_)"/>
        <path d="M42.71,12.5c2.54,17.92-6.75,24.75-6.75,24.75l1.88-13.97c0,0-3.7,15.94-12.01,16.92 c0,0,3.99-6.17,3.08-7.97l-7.08,8.43c0,0,5.04,5.54,14.2,5.54c3.69,0,8.04-0.9,13-3.42c-1.28,5.01-0.76,12.3-0.12,19.41 c5.37-9.93,12.22-20.38,18.19-20.38c7.45,0,10.18,5.06,14.9,14.55l0.96-12.55c13.31,26.86,42,22.7,38.12,41.92 c-0.73,3.63-4.39,6.43-12.28,6.43c-1.72,0-3.65-0.13-5.79-0.42c-2.76-0.37-5.16-1.01-7.26-1.83c0.33,2.11,0.53,4.25,0.52,6.41 c-0.05,14.52-14.28,20.44-28.81,20.44c-14.52,0-50.69-8.18-31.14-34.71c3.27-4.43,3.52-9.7,3.52-9.7 c-9.25-1.96-12.88-16.59-12.88-16.59c-3,4,2.75,14.38,2.75,14.38c-10-5-11.67-20.04-11.67-20.04 c-1.03,5.08,1.52,16.49,1.52,16.49c-8.1-9.07-7.1-21.22-7.1-21.22C9.78,51.2,8.6,56.99,8.6,56.99 c-3.01-8.96-3.64-19.06,0.13-22.57C13.15,30.3,42.71,12.5,42.71,12.5 M44.27,9.23l-2.59,1.56c-1.21,0.73-29.79,17.95-34.32,22.17 C2.66,37.35,3.64,48.52,6.7,57.63l2.36,7.04l1.49-7.27c0.01-0.03,0.25-1.19,0.75-2.97c0.95,4.17,2.89,9.13,6.77,13.48l5.12,5.73 l-1.67-7.49c-0.07-0.33-0.16-0.74-0.25-1.2c1.83,2.79,4.28,5.34,7.56,6.98l5.77,2.88l-3.08-5.55c1.67,1.94,3.69,3.6,6.13,4.52 c-0.31,1.71-1.08,4.58-2.93,7.09c-6.14,8.34-7.63,15.78-4.42,22.13c5.8,11.48,25.88,15.76,37.17,15.76 c14.17,0,30.75-5.88,30.81-22.43c0-1.15-0.05-2.33-0.15-3.53c1.48,0.4,3.02,0.71,4.63,0.93c2.17,0.29,4.21,0.44,6.06,0.44 c10.98,0,13.64-5.03,14.25-8.03c2.27-11.28-5.37-15.59-14.23-20.59c-7.95-4.49-17.85-10.07-24.06-22.61l-3.23-6.53l-0.55,7.26 l-0.42,5.54C77.3,43.5,73.8,39.8,67.11,39.8c-4.9,0-10.27,5.03-16.71,15.73c-0.27-4.66-0.26-9.03,0.57-12.25l1.09-4.28l-3.94,2 c-4.18,2.12-8.25,3.2-12.09,3.2c-3.84,0-6.86-1.06-8.99-2.19c2.55-0.59,4.87-2.29,6.94-5.09l-0.01,0.06l-0.63,4.67l3.79-2.79 c0.42-0.31,10.22-7.76,7.54-26.64L44.27,9.23L44.27,9.23z" fill="#961C00"/>
      </g>
      <path d="M46.21,19.5" fill="#B39DDB"/>
      <g>
        <g>
          <g>
            <path d="M51.94,114.59c-3.27,0-7.06-0.92-9.89-2.41c-4.83-2.53-7.79-6.81-9.48-10.19 c0.98,3.94,3.75,7.21,3.79,7.26l2.95,3.44l-4.13-1.88c-8.4-3.83-10.84-10.21-11.45-14.69c-0.83,3.62-0.14,6.65-0.13,6.69 l0.78,3.29l-2.45-2.33c-0.2-0.19-4.8-4.64-5.59-10.59c-0.35-2.61,0.04-6.55,2.27-9.09c1.38-1.57,3.23-2.37,5.49-2.37l0.12,0 c6.28,0.08,21.35,5.67,33.41,26.29c1.19,2.03,0.88,3.42,0.41,4.23C57.2,113.76,55.02,114.59,51.94,114.59 C51.94,114.59,51.94,114.59,51.94,114.59z" fill="#FF7043"/>
            <path d="M24.12,82.72c0.04,0,0.07,0,0.11,0c6.17,0.08,20.85,5.79,32.56,25.8c2.07,3.54-0.79,5.07-4.84,5.07 c-2.99,0-6.63-0.83-9.43-2.29c-8.37-4.39-10.91-14.52-10.91-14.52c-1.87,6.28,4,13.13,4,13.13 c-13.37-6.1-10.88-18.73-10.88-18.73c-3.58,5.6-2.09,11.87-2.09,11.87s-4.54-4.33-5.29-10 C16.85,89.28,18.05,82.72,24.12,82.72 M24.12,80.72L24.12,80.72c-2.53,0-4.69,0.94-6.25,2.71c-2.45,2.79-2.88,7.07-2.51,9.88 c0.83,6.3,5.68,10.99,5.89,11.18l4.89,4.67l-1.57-6.58c0-0.01-0.04-0.16-0.08-0.44c1.68,3.48,4.75,7.05,10.27,9.57l8.25,3.76 l-2.7-3.15c0.41,0.25,0.83,0.49,1.26,0.72c2.97,1.56,6.94,2.52,10.36,2.52c3.5,0,5.92-0.98,6.99-2.84 c0.6-1.04,1.01-2.8-0.42-5.24C46.22,86.5,30.73,80.8,24.25,80.72L24.12,80.72L24.12,80.72z" fill="#961C00"/>
          </g>
          <g>
            <path d="M50.85,123.17c-2.84,0-6.46-0.53-8.94-0.93c-2.01-0.32-3.27-1.01-3.85-2.1 c-0.76-1.42-0.05-2.97,0.37-3.9c0.06-0.12,0.11-0.23,0.15-0.34c0.35-0.84,0.99-2.08,1.55-3.19c0.23-0.45,0.45-0.87,0.61-1.21 c0.33-0.67,0.78-1.58,1.64-2.14c0.22-0.15,0.46-0.3,11.16-3.5c0.3-0.09,0.6-0.13,0.91-0.13c1.88,0,3.4,1.67,4.41,2.77 l0.44,0.48c0.96,1.04,2.16,2.33,2.61,3.75c0.58,1.83,0.05,4.22-2.08,5.23c-1.29,0.62-2.99,1.1-4.2,1.41c0,0,0,0,0,0 c0.45,0.88,0.06,1.83-0.07,2.13C55.09,122.66,53.64,123.17,50.85,123.17z M52.12,117.67c-0.04-0.67,0.29-1.33,0.92-1.8 c0.41-0.3,1.29-0.87,2.12-1.4l-1.25-0.43c-0.92,1.11-2.05,2.49-2.85,3.47L52.12,117.67z" fill="#BDAAD1"/>
            <path d="M54.46,106.73c1.5,0,2.84,1.54,3.77,2.55c0.94,1.03,2.3,2.38,2.73,3.74c0.44,1.39,0.1,3.24-1.56,4.03 c-1.7,0.81-4.18,1.38-4.75,1.52c-0.1,0.02-0.21,0.03-0.31,0.03c-1.02,0-1.8-1.14-0.72-1.94c0.82-0.61,3.84-2.47,3.84-2.47 l-3.9-1.32c0,0-4.36,5.26-4.38,5.38l3.47,0.51c2.03,0.5,2.51,1.06,1.97,2.37c-0.32,0.78-1.84,1.04-3.79,1.04 c-2.79,0-6.46-0.55-8.78-0.92c-4.92-0.79-3.13-3.64-2.57-4.96c0.49-1.15,1.59-3.22,2.14-4.34c0.32-0.66,0.68-1.35,1.29-1.75 c0.33-0.21,7.63-2.4,10.9-3.38C54.05,106.76,54.26,106.73,54.46,106.73 M54.46,104.73L54.46,104.73c-0.4,0-0.81,0.06-1.2,0.18 c-10.84,3.25-11.05,3.38-11.42,3.62c-1.09,0.71-1.63,1.81-1.99,2.54c-0.16,0.33-0.38,0.75-0.61,1.2 c-0.57,1.11-1.21,2.38-1.58,3.25c-0.04,0.1-0.09,0.2-0.14,0.31c-0.47,1.02-1.34,2.92-0.35,4.79c0.74,1.39,2.24,2.24,4.58,2.62 c2.51,0.41,6.18,0.94,9.09,0.94c2.19,0,4.8-0.26,5.64-2.28c0.12-0.29,0.41-0.98,0.36-1.81c1.1-0.31,2.38-0.72,3.43-1.22 c2.64-1.26,3.31-4.19,2.6-6.43c-0.52-1.64-1.8-3.03-2.84-4.14l-0.33-0.35l-0.1-0.11C58.49,106.6,56.79,104.73,54.46,104.73 L54.46,104.73z" fill="#7E6E9E"/>
          </g>
        </g>
        <g>
          <g>
            <path d="M79.98,114.59c-3.08,0-5.25-0.83-6.12-2.34c-0.47-0.81-0.77-2.21,0.41-4.23 C86.34,87.4,101.4,81.8,107.68,81.72l0.12,0c2.27,0,4.11,0.8,5.49,2.37c2.23,2.54,2.61,6.48,2.27,9.09 c-0.79,5.95-5.39,10.41-5.59,10.59l-2.43,2.32l0.77-3.27c0.01-0.04,0.69-3.07-0.13-6.68c-0.61,4.48-3.05,10.85-11.45,14.68 l-4.11,1.87l2.93-3.43c0.04-0.05,2.8-3.32,3.78-7.24c-1.69,3.37-4.65,7.64-9.47,10.17C87.04,113.67,83.25,114.59,79.98,114.59z " fill="#FF7043"/>
            <path d="M107.8,82.72c6.07,0,7.27,6.56,6.77,10.33c-0.75,5.67-5.29,10-5.29,10s1.49-6.28-2.09-11.87 c0,0,2.5,12.62-10.88,18.73c0,0,5.88-6.85,4-13.13c0,0-2.54,10.13-10.91,14.52c-2.79,1.46-6.44,2.29-9.43,2.29 c-4.06,0-6.92-1.53-4.84-5.07c11.71-20.01,26.39-25.72,32.56-25.8C107.73,82.72,107.77,82.72,107.8,82.72 M107.8,80.72 l-0.13,0c-6.48,0.08-21.97,5.78-34.26,26.79c-1.43,2.44-1.02,4.19-0.42,5.24c1.07,1.86,3.48,2.84,6.99,2.84 c3.42,0,7.39-0.97,10.36-2.52c0.43-0.23,0.85-0.47,1.26-0.72l-2.7,3.15l8.25-3.76c5.52-2.52,8.59-6.09,10.27-9.57 c-0.04,0.28-0.08,0.43-0.08,0.44l-1.5,6.5l4.83-4.6c0.21-0.2,5.05-4.89,5.89-11.18c0.37-2.82-0.06-7.09-2.51-9.88 C112.49,81.66,110.33,80.72,107.8,80.72L107.8,80.72z" fill="#961C00"/>
          </g>
          <g>
            <path d="M81.07,123.17c-2.79,0-4.24-0.51-4.72-1.66c-0.13-0.31-0.52-1.25-0.07-2.13c0,0,0,0,0,0 c-1.22-0.3-2.91-0.79-4.2-1.41c-2.13-1.01-2.66-3.4-2.08-5.23c0.45-1.42,1.65-2.72,2.61-3.75l0.44-0.48 c1.01-1.1,2.53-2.76,4.41-2.76c0.31,0,0.61,0.04,0.91,0.13c10.7,3.2,10.93,3.35,11.16,3.5c0.86,0.56,1.31,1.47,1.64,2.14 c0.16,0.33,0.37,0.74,0.6,1.18c0.57,1.11,1.21,2.36,1.57,3.21c0.04,0.1,0.1,0.22,0.15,0.34c0.42,0.93,1.13,2.47,0.37,3.9 c-0.58,1.09-1.84,1.78-3.85,2.1C87.53,122.64,83.91,123.17,81.07,123.17z M76.76,114.47c0.83,0.52,1.71,1.09,2.12,1.4 c0.64,0.47,0.97,1.14,0.92,1.81l1.06-0.16c-0.8-0.98-1.93-2.36-2.85-3.47L76.76,114.47z" fill="#BDAAD1"/>
            <path d="M77.46,106.73c0.2,0,0.41,0.03,0.62,0.09c3.27,0.98,10.57,3.17,10.9,3.38c0.61,0.4,0.97,1.09,1.29,1.75 c0.55,1.12,1.65,3.19,2.14,4.34c0.56,1.32,2.35,4.17-2.57,4.96c-2.31,0.37-5.99,0.92-8.78,0.92c-1.95,0-3.47-0.27-3.79-1.04 c-0.54-1.31-0.06-1.87,1.97-2.37l3.47-0.51c-0.01-0.12-4.38-5.38-4.38-5.38l-3.9,1.32c0,0,3.01,1.86,3.84,2.47 c1.09,0.81,0.3,1.94-0.72,1.94c-0.1,0-0.2-0.01-0.31-0.03c-0.57-0.13-3.05-0.7-4.75-1.52c-1.66-0.79-1.99-2.64-1.56-4.03 c0.43-1.37,1.79-2.72,2.73-3.74C74.62,108.27,75.96,106.73,77.46,106.73 M77.46,104.73c-2.32,0-4.02,1.86-5.15,3.09l-0.1,0.11 l-0.33,0.35c-1.03,1.11-2.32,2.5-2.84,4.14c-0.71,2.24-0.04,5.17,2.6,6.43c1.05,0.5,2.32,0.91,3.43,1.22 c-0.05,0.83,0.24,1.52,0.36,1.81c0.84,2.02,3.45,2.28,5.64,2.28c2.91,0,6.58-0.54,9.09-0.94c2.34-0.38,3.84-1.23,4.58-2.62 c0.99-1.86,0.12-3.76-0.35-4.79c-0.05-0.11-0.1-0.22-0.14-0.31c-0.37-0.87-1.01-2.13-1.58-3.25c-0.23-0.45-0.44-0.87-0.61-1.2 c-0.36-0.73-0.9-1.83-1.99-2.54c-0.37-0.24-0.57-0.37-11.42-3.62C78.27,104.79,77.86,104.73,77.46,104.73L77.46,104.73z" fill="#7E6E9E"/>
          </g>
        </g>
      </g>
      <g>
        <g>
          <linearGradient id="SVGID_2_" gradientUnits="userSpaceOnUse" x1="65.9619" x2="65.9619" y1="23.2778" y2="63.3477">
            <stop offset="0" style="stop-color:#E64A19"/>
            <stop offset="1" style="stop-color:#FF7043"/>
          </linearGradient>
          <path d="M65.9,77.04c-6.35,0-9.93-3.58-12.14-7.17l0.56,6.67l-2.03-2.43c-3.15-3.78-4.5-7.63-5.01-10.81 l-1.68,5.48l-0.97-3.06c-2.53-7.95-1.52-15.59,3.48-26.36c3.79-8.17,8.01-15.51,17.78-15.51h0.12c9.77,0,13.98,7.34,17.78,15.51 c5,10.77,6.01,18.41,3.48,26.36l-0.97,3.06l-1.67-5.48c-0.51,3.18-1.85,7.04-5.01,10.81l-2.03,2.43l0.56-6.67 c-2.21,3.59-5.79,7.17-12.14,7.17H65.9z" fill="url(#SVGID_2_)"/>
          <path d="M66.02,24.84c9.1,0,13.04,6.68,16.87,14.93c5.3,11.42,5.67,18.61,3.44,25.64l-2.82-9.21 c0,0,2.34,8.88-4.65,17.26l0.74-8.72c-2.1,4.86-5.22,11.29-13.57,11.29c-0.02,0-0.04,0-0.06,0c-0.02,0-0.04,0-0.06,0 c-8.35,0-11.47-6.43-13.57-11.29l0.74,8.72c-7-8.38-4.65-17.26-4.65-17.26l-2.82,9.21c-2.23-7.03-1.87-14.22,3.44-25.64 c3.83-8.25,7.77-14.93,16.87-14.93c0.02,0,0.04,0,0.06,0C65.98,24.85,66,24.84,66.02,24.84 M66.02,22.84h-0.07l-0.02,0l-0.04,0 c-10.36,0-14.75,7.61-18.69,16.09c-5.11,11.02-6.14,18.87-3.53,27.08l1.94,6.11l1.56-5.09c0.82,2.46,2.17,5.1,4.34,7.7 l4.06,4.86l-0.53-6.29c2.37,2.63,5.77,4.72,10.84,4.72c0.02,0,0.04,0,0.06,0c0.02,0,0.04,0,0.06,0c5.07,0,8.47-2.09,10.84-4.72 l-0.53,6.29l4.06-4.86c2.17-2.6,3.52-5.24,4.34-7.7l1.56,5.09l1.94-6.11c2.61-8.22,1.59-16.06-3.53-27.08 C80.77,30.46,76.38,22.84,66.02,22.84L66.02,22.84z" fill="#961C00"/>
        </g>
        <path d="M74.13,33.8c-0.62-0.68-2.15-2.59-3.22-2.45c-0.24,0.03-0.46,0.17-0.67,0.3 c-1.45,0.88-3.09,1.43-4.78,1.6c0.51-0.85,0.8-1.83,0.83-2.83c-2.02,1.52-4.23,2.8-6.56,3.8c0.49-1.1,0.93-2.21,1.33-3.34 c-2.59,1.51-4.4,4.06-5.4,6.84c-1,2.77-1.57,5.7-2,8.61c-0.04,0.25-0.55,4.56-0.48,4.56c0.09,0,0.16-0.07,0.22-0.13 c0.77-0.72,1.82-1.16,2.87-1.5c2.67-0.87,5.51-1.28,8.34-1.57c0.04,0,0.09-0.01,0.13-0.01c0.4-0.04,0.8-0.08,1.2-0.11 c0.4,0.03,0.8,0.07,1.2,0.11c0.04,0,0.09,0.01,0.13,0.01c2.83,0.29,5.67,0.7,8.34,1.57c1.05,0.34,2.1,0.77,2.87,1.5 c0.06,0.06,0.13,0.12,0.22,0.13C78.83,50.89,77.79,37.78,74.13,33.8z" fill="#BDAAD1"/>
        <path d="M78.51,50.77c0.06,0.05,0.12,0.09,0.19,0.1c0.06,0,0.02,0,0.02-0.04l-0.01-0.11l-0.06-0.44l-0.14-0.87 l-0.31-1.73c-0.23-1.15-0.45-2.3-0.72-3.43c-0.53-2.27-1.15-4.52-2.02-6.63c-0.44-1.04-0.95-2.06-1.6-2.88 c-0.7-0.77-1.54-1.76-2.31-2.27c-0.19-0.12-0.38-0.21-0.47-0.22c-0.05-0.01-0.03,0-0.03,0c-0.01,0-0.06,0.03-0.16,0.09 c-0.48,0.31-1.07,0.64-1.64,0.89c-1.16,0.52-2.4,0.85-3.67,0.99l-1.94,0.22l1.01-1.69c0.42-0.71,0.66-1.53,0.68-2.35l1.59,0.82 c-2.08,1.59-4.38,2.87-6.78,3.89l-2.13,0.9l0.87-2.18c0.43-1.09,0.89-2.17,1.35-3.26l1.33,1.1c-1.51,0.84-2.77,2.11-3.77,3.57 c-1.02,1.46-1.65,3.17-2.23,4.94c-0.56,1.76-1,3.58-1.39,5.42c-0.2,0.92-0.35,1.83-0.52,2.77l-0.25,1.39l-0.12,0.7l-0.05,0.35 c0,0.04,0,0.04-0.02,0.07c0.02,0,0.05,0,0.08-0.01c0.05-0.02,0.1-0.06,0.15-0.09c-0.04,0.04-0.08,0.09-0.13,0.12 c-0.03,0.01-0.06,0.03-0.09,0.03c-0.03-0.03-0.03-0.09-0.03-0.11l0-0.36l0.02-0.71c0.01-0.47,0.03-0.94,0.06-1.42 c0.05-0.94,0.09-1.9,0.2-2.84c0.19-1.88,0.47-3.77,0.91-5.64c0.43-1.85,1.04-3.75,2.07-5.47c1.01-1.72,2.45-3.22,4.19-4.29 l2.27-1.39l-0.94,2.49c-0.43,1.14-0.86,2.29-1.32,3.43l-1.26-1.28c2.26-0.97,4.38-2.24,6.35-3.7l1.66-1.23l-0.07,2.06 c-0.04,1.17-0.39,2.31-0.99,3.3l-0.93-1.47c1.07-0.1,2.12-0.38,3.12-0.79c0.51-0.21,0.95-0.43,1.47-0.74 c0.16-0.09,0.36-0.2,0.64-0.27c0.28-0.07,0.61-0.05,0.84,0c0.49,0.11,0.81,0.32,1.11,0.53c0.58,0.42,1.01,0.87,1.43,1.33 c0.42,0.48,0.76,0.86,1.18,1.42c0.75,1.07,1.23,2.21,1.63,3.35c0.78,2.3,1.22,4.64,1.54,6.98c0.15,1.17,0.28,2.35,0.35,3.53 c0.04,0.59,0.07,1.18,0.09,1.77l0.01,0.88l-0.01,0.44l-0.01,0.11c0,0.01,0,0.04-0.02,0.07c-0.01,0.02-0.04,0-0.06,0 C78.61,50.88,78.56,50.82,78.51,50.77z" fill="#961C00"/>
        <path d="M76.99,50.28" fill="none" opacity="0.2" stroke="#212121" stroke-miterlimit="10"/>
        <path d="M72.02,39.44c-5.3-1.31-3.5,4.88-10.79,3.75c-6.21-0.96-6.32,6.67-6.5,6.81c0,0,0,0,3.09-0.77 c2.25-0.56,4.09-0.48,5.25-1.05c0.85-0.42,1.09-1.25,1.52-2.02c0.68-1.21,2.06-1.13,2.73,0.04c0.44,0.77,0.67,1.6,1.52,2.02 c1.15,0.57,3,0.49,5.25,1.05c3.09,0.77,3.42,1.24,3.42,1.24S75.97,40.42,72.02,39.44z" fill="#927DB2"/>
        <path d="M71.38,50.28c-1.9-1.33-3.25-2.98-4.12-4.28c-0.31-0.46-0.81-0.67-1.3-0.65 c-0.49-0.03-0.99,0.19-1.3,0.65c-0.87,1.3-2.23,2.95-4.12,4.28c-3.59,2.51-6.3,6.69-6.2,10.5c0.17,6.38,5.17,11.56,11.56,11.56 c0.02,0,0.04,0,0.06,0c0.02,0,0.04,0,0.06,0c6.38,0,11.38-5.18,11.56-11.56C77.68,56.97,74.97,52.79,71.38,50.28z" fill="#7E6E9E"/>
        <path d="M70.91,50.03c-1.73-1.21-2.96-2.72-3.76-3.9c-0.28-0.42-0.74-0.61-1.18-0.59 c-0.45-0.02-0.9,0.17-1.18,0.59c-0.8,1.19-2.03,2.69-3.76,3.9c-3.28,2.29-5.75,6.1-5.65,9.58c0.16,5.82,4.72,10.54,10.54,10.54 c0.02,0,0.04,0,0.05,0c0.02,0,0.04,0,0.05,0c5.82,0,10.38-4.72,10.54-10.54C76.65,56.13,74.18,52.32,70.91,50.03z" fill="#BDAAD1"/>
        <g>
          <path d="M67.14,51.37l1.09-0.74c0.43-0.29,1.01-0.17,1.29,0.26v0c0.29,0.43,0.17,1.02-0.26,1.3l-1.09,0.74 c-0.43,0.29-1.01,0.17-1.29-0.26v0C66.6,52.24,66.71,51.65,67.14,51.37z"/>
          <path d="M63.85,52.92l-1.14-0.66c-0.44-0.26-0.6-0.84-0.34-1.28v0c0.26-0.45,0.83-0.6,1.27-0.34l1.14,0.66 c0.44,0.26,0.6,0.84,0.34,1.28l0,0C64.87,53.03,64.29,53.18,63.85,52.92z"/>
        </g>
        <g>
          <ellipse cx="61.23" cy="46.18" rx="2.44" ry="2.38"/>
          <ellipse cx="70.69" cy="46.18" rx="2.44" ry="2.38"/>
        </g>
        <path d="M70.69,65.56c-0.54,1.75-2.99,0.94-4.56,0.94s-4.16,0.84-4.16-0.62s2.59-3.04,4.16-3.04S71.16,64.05,70.69,65.56z"/>
      </g>
      <g>
        <path d="M63.6,23c-0.27,0-0.53-0.03-0.78-0.1c-0.57-0.16-0.99-0.56-1.15-1.1c-0.38-1.3,1.07-3.53,2.58-5.42 c-0.26,0.01-0.53,0.02-0.8,0.02c-2.46,0-4.6-0.47-5.74-0.77c-1.39,2.96-3.75,5.86-10.83,6.04l-0.96,0.02L45.17,9.91l0.56-0.3 c0.24-0.13,5.95-3.21,8.56-4.25c0.58-0.23,1.18-0.35,1.8-0.35c0.79,0,1.58,0.2,2.29,0.57c2.44,1.29,8.4,4.44,11.06,5.9 c1,0.55,3.66,2,2.09,5.08C71.04,17.51,66.97,23,63.6,23z" fill="#BDAAD1"/>
        <path d="M56.1,6.01c0.63,0,1.25,0.15,1.82,0.45c2.77,1.46,8.46,4.48,11.05,5.89c1.84,1.01,2.56,2.02,1.68,3.75 c-0.59,1.16-4.4,5.9-7.04,5.9c-0.18,0-0.35-0.02-0.51-0.07c-2.15-0.58,3.62-6.85,3.62-6.85c-1.1,0.23-2.2,0.32-3.25,0.32 c-3.47,0-6.3-0.98-6.3-0.98c-1.2,2.83-2.95,6.06-10.3,6.24l-0.65-10.18c0,0,5.86-3.17,8.45-4.2C55.13,6.1,55.61,6.01,56.1,6.01 M56.1,4.01c-0.75,0-1.48,0.14-2.17,0.42c-2.67,1.06-8.42,4.17-8.67,4.3l-1.12,0.61l0.08,1.28l0.65,10.18l0.12,1.92l1.92-0.05 c6.8-0.17,9.66-2.77,11.34-5.87c1.03,0.24,2.43,0.49,4.03,0.58c-2.05,3-1.7,4.23-1.56,4.71c0.26,0.89,0.93,1.54,1.84,1.79 C62.89,23.96,63.24,24,63.6,24c3.89,0,8.19-5.76,8.82-6.99c1.66-3.26-0.44-5.29-2.5-6.41c-2.56-1.4-8.04-4.3-11.07-5.91 C58,4.24,57.05,4.01,56.1,4.01L56.1,4.01z" fill="#7E6E9E"/>
      </g>
      <g>
        <path d="M90.63,91.83c-1.48,0-2.72-0.66-3.41-1.8c-0.84-1.4-0.73-3.31,0.3-5.24c1.65-3.11,5.73-10.58,7.99-12.86 c1.14-1.16,2.56-1.77,4.1-1.77c0.66,0,1.33,0.11,1.99,0.34c0.79,0.27,7.78,2.69,9.56,4.44c1.76,1.71,2.29,4.16,1.38,6.38 c-0.83,2.03-2.64,3.29-4.73,3.29l0,0c-0.37,0-0.75-0.04-1.13-0.12c-0.98-0.2-2.47-0.53-3.22-0.69c-1.78,1.38-8.27,6.42-9.8,7.21 C92.62,91.55,91.6,91.83,90.63,91.83z" fill="#BDAAD1"/>
        <path d="M99.61,71.16c0.55,0,1.11,0.09,1.67,0.29c2.95,1.01,7.92,2.96,9.19,4.21c3.06,2.98,1.1,7.96-2.65,7.96 c-0.3,0-0.61-0.03-0.93-0.1c-1.35-0.28-3.67-0.79-3.67-0.79s-8.38,6.55-10.02,7.4c-0.93,0.48-1.8,0.7-2.56,0.7 c-2.54,0-3.92-2.4-2.23-5.58c1.62-3.06,5.68-10.47,7.81-12.62C97.17,71.66,98.35,71.16,99.61,71.16 M99.61,69.16 c-1.79,0-3.5,0.73-4.82,2.06c-2.27,2.29-6.09,9.19-8.16,13.09c-1.2,2.25-1.29,4.52-0.27,6.23c0.87,1.45,2.43,2.29,4.27,2.29 c1.13,0,2.31-0.31,3.49-0.93c1.51-0.79,7.26-5.22,9.58-7.03c0.8,0.17,1.96,0.42,2.77,0.59c0.45,0.09,0.9,0.14,1.34,0.14 c2.51,0,4.68-1.5,5.66-3.91c1.05-2.57,0.41-5.51-1.61-7.48c-1.9-1.85-8.61-4.21-9.94-4.67 C101.16,69.29,100.38,69.16,99.61,69.16L99.61,69.16z" fill="#7E6E9E"/>
      </g>
      <path d="M56.2,45.72c0.18-1.05,1.19-1.77,2.16-2.13c1-0.36,2.05-0.48,3.09-0.51c1.07-0.02,2.01,0.07,2.94-0.18 c0.93-0.2,1.79-0.62,2.56-1.18c0.8-0.55,1.46-1.28,2.34-1.94c0.22-0.16,0.47-0.32,0.74-0.44c0.27-0.12,0.62-0.19,0.89-0.2 c0.57-0.04,1.15,0.07,1.67,0.3c1.05,0.46,1.77,1.33,2.3,2.22c0.51,0.91,0.89,1.88,1.09,2.89c-0.4-0.94-0.87-1.84-1.48-2.63 c-0.59-0.78-1.33-1.47-2.19-1.78c-0.43-0.16-0.88-0.2-1.32-0.15c-0.44,0.02-0.76,0.22-1.14,0.52c-0.73,0.6-1.45,1.37-2.32,2 c-0.87,0.63-1.89,1.11-2.96,1.3c-1.07,0.22-2.18,0.09-3.14,0.02c-0.99-0.04-1.99-0.03-2.94,0.2 C57.55,44.25,56.6,44.75,56.2,45.72z" fill="#705E9E"/>
    </g>
  </g>
</svg>