<svg viewBox="0 0 128 128" xmlns="http://www.w3.org/2000/svg">
  <defs>
    <radialGradient id="hairHighlight_x5F_white_3_" cx="63.5526" cy="-42.0341" gradientTransform="matrix(1 0 0 -1 0 0)" gradientUnits="userSpaceOnUse" r="38.9674">
      <stop offset="0.724" stop-color="#FFFFFF" stop-opacity="0"/>
      <stop offset="1" stop-color="#BDBDBD"/>
    </radialGradient>
    <linearGradient id="SVGID_1_" gradientTransform="matrix(1 0 0 -1 0 0)" gradientUnits="userSpaceOnUse" x1="62.7173" x2="101.806" y1="-80.1182" y2="-83.8882">
      <stop offset="0.8614" stop-color="#FFFFFF" stop-opacity="0"/>
      <stop offset="1" stop-color="#BDBDBD"/>
    </linearGradient>
    <linearGradient id="SVGID_2_" gradientTransform="matrix(-1 0 0 -1 0 0)" gradientUnits="userSpaceOnUse" x1="-65.2766" x2="-26.5583" y1="-80.1102" y2="-83.8445">
      <stop offset="0.8614" stop-color="#FFFFFF" stop-opacity="0"/>
      <stop offset="1" stop-color="#BDBDBD"/>
    </linearGradient>
    <linearGradient id="SVGID_3_" gradientTransform="matrix(1 0 0 -1 0 0)" gradientUnits="userSpaceOnUse" x1="64" x2="64" y1="-95.9137" y2="-125.9966">
      <stop offset="0" stop-color="#FF7500"/>
      <stop offset="0.3812" stop-color="#FD6800"/>
      <stop offset="1" stop-color="#FA4A00"/>
    </linearGradient>
    <linearGradient id="SVGID_4_" gradientTransform="matrix(1 0 0 -1 0 0)" gradientUnits="userSpaceOnUse" x1="63.5725" x2="63.5725" y1="-96.7323" y2="-123.7267">
      <stop offset="0" stop-color="#E14301"/>
      <stop offset="0.5395" stop-color="#C82C11"/>
      <stop offset="0.9916" stop-color="#B71C1C"/>
    </linearGradient>
    <linearGradient id="SVGID_5_" gradientTransform="matrix(1 0 0 -1 0 0)" gradientUnits="userSpaceOnUse" x1="64.1568" x2="63.8922" y1="-107.483" y2="-82.499">
      <stop offset="0.0685" stop-color="#F57C00"/>
      <stop offset="0.367" stop-color="#F37900"/>
      <stop offset="0.5641" stop-color="#EC7002"/>
      <stop offset="0.7319" stop-color="#E16105"/>
      <stop offset="0.8825" stop-color="#D04C08"/>
      <stop offset="1" stop-color="#BF360C"/>
    </linearGradient>
    <radialGradient id="SVGID_6_" cx="64" cy="-33.39" gradientTransform="matrix(1 0 0 -1 0 0)" gradientUnits="userSpaceOnUse" r="34.3535">
      <stop offset="0" stop-color="#FFFFFF"/>
      <stop offset="0.4129" stop-color="#FAF9F8"/>
      <stop offset="0.9948" stop-color="#EBEAE6"/>
      <stop offset="0.9953" stop-color="#EBEAE6"/>
    </radialGradient>
    <linearGradient id="SVGID_7_" gradientTransform="matrix(-1 0 0 -1 0 0)" gradientUnits="userSpaceOnUse" x1="-64.0015" x2="-64.0015" y1="-47.363" y2="-39.9216">
      <stop offset="0" stop-color="#FF7500"/>
      <stop offset="0.3812" stop-color="#FD6800"/>
      <stop offset="1" stop-color="#FA4A00"/>
    </linearGradient>
  </defs>
  <path d="M65.33,117 L28.77,116.17 L22.52,51.17 L65.33,52 Z" fill="#E7E7E7"/>
  <path d="M62.67,117 L99.23,116.17 L105.48,51.17 L62.67,52 Z" fill="#E7E7E7"/>
  <path d="M62.67,115.1 L99.41,114.27 L105.66,49.27 L62.67,50.1 Z" fill="url(#SVGID_1_)"/>
  <path d="M65.33,115.1 L28.43,114.27 L22.16,49.27 L65.33,50.1 Z" fill="url(#SVGID_2_)"/>
  <path d="M64.13,96 C64.09,96 64.04,96 64,96 C38.51,96.03 12,103.28 12,121.06 L12,123.96 L13.5,123.96 L15,123.96 L113,123.96 L114.5,123.96 L116,123.96 L116,121.06 C116,104.3 89.74,96 64.13,96 Z" fill="url(#SVGID_3_)"/>
  <path d="M44.98,123.96 L81.86,123.96 L89.68,110.96 L104.46,104.49 C104.46,104.49 91.03,95.45 64,96 C33.84,96.6 22.69,104.73 22.69,104.73 L39.33,112.01 L44.98,123.96 Z" fill="url(#SVGID_4_)"/>
  <path d="M89.12,87.25 C83.64,76.9 68.12,85.63 68.12,85.63 L64,83.71 L64,83.71 L64,83.71 L59.88,85.63 C59.88,85.63 44.36,76.91 38.88,87.25 C36.03,92.62 37.5,99.63 45.76,105.63 C54.02,111.63 64,119.83 64,119.83 L64,119.83 C64,119.83 74,111.63 82.25,105.63 C90.5,99.63 91.97,92.62 89.12,87.25 Z" fill="url(#SVGID_5_)"/>
  <path d="M43.47,123.96 L46.91,123.96 C46.55,122.75 42.05,113.58 41.13,111.59 C41.04,111.39 40.88,111.22 40.66,111.12 L40.63,111.11 C39.26,110.47 37.86,109.9 36.46,109.31 C35.07,108.72 33.65,108.17 32.24,107.62 C29.41,106.55 23.1,104.74 23.1,104.74 C25.13,106.45 33.48,110.38 39.26,112.68 L43.47,123.96 Z" fill="#FFCCBC"/>
  <path d="M37.54,113.83 C30.21,109.8 26.94,115.48 26.94,115.48 C26.94,115.48 30.65,117 32.8,116.57 C36.15,115.9 37.54,113.83 37.54,113.83 Z" fill="#FFCCBC"/>
  <path d="M45.9,118.26 C50.86,112.46 47.52,108.44 47.52,108.44 C47.52,108.44 45.12,109.58 44.63,112.27 C44,115.81 45.9,118.26 45.9,118.26 Z" fill="#FFCCBC"/>
  <path d="M38.68,108.73 C38.96,102.04 34.62,101.12 34.62,101.12 C34.62,101.12 33.68,103.51 34.7,105.66 C35.87,108.12 38.68,108.73 38.68,108.73 Z" fill="#FFCCBC"/>
  <path d="M84.53,123.96 L88.73,112.67 C94.51,110.38 102.87,106.45 104.89,104.73 C104.89,104.73 98.59,106.54 95.75,107.61 C94.34,108.16 92.93,108.71 91.53,109.3 C90.14,109.89 88.74,110.47 87.36,111.1 L87.33,111.11 C87.12,111.21 86.95,111.38 86.86,111.58 C85.94,113.57 81.44,122.74 81.08,123.95 C81.09,123.96 84.53,123.96 84.53,123.96 Z" fill="#FFCCBC"/>
  <path d="M90.46,113.83 C97.78,109.8 101.06,115.48 101.06,115.48 C101.06,115.48 97.35,117 95.2,116.57 C91.86,115.9 90.46,113.83 90.46,113.83 Z" fill="#FFCCBC"/>
  <path d="M82.1,118.26 C77.14,112.46 80.48,108.44 80.48,108.44 C80.48,108.44 82.75,109.61 83.37,112.27 C84.19,115.81 82.1,118.26 82.1,118.26 Z" fill="#FFCCBC"/>
  <path d="M89.32,108.73 C89.04,102.04 93.38,101.12 93.38,101.12 C93.38,101.12 94.32,103.51 93.3,105.66 C92.13,108.12 89.32,108.73 89.32,108.73 Z" fill="#FFCCBC"/>
  <path id="ears" d="M87.5,50.43 L40.5,50.43 L20.5,38.5 C20.5,38.5 20.62,53.12 24.5,60.67 C30.5,72.34 40.5,73.26 40.5,73.26 L87.75,73.26 L87.76,73.23 C89.37,72.99 98.07,71.23 103.5,60.67 C107.38,53.12 107.5,38.5 107.5,38.5 L87.5,50.43 Z" fill="#3C2B24"/>
  <path id="neck_1_" d="M64,90.08 L54.92,90.08 L54.92,95.77 C54.92,98.5 56.08,101.1 58.11,102.92 L64.01,108.23 L64.01,108.23 L69.91,102.92 C71.94,101.1 73.09,98.5 73.09,95.77 L73.09,90.08 L64,90.08 L64,90.08 Z" fill="#3C2B24"/>
  <path id="head_1_" d="M64,11.07 L64,11.07 L64,11.07 C46.6,11.07 30.48,29.68 30.48,56.47 C30.48,83.11 47.09,96.28 64,96.28 C80.91,96.28 97.52,83.1 97.52,56.46 C97.52,29.68 81.4,11.07 64,11.07 Z" fill="#70534A"/>
  <path d="M52.49,58.81 A4.93 5.1 0 1 1 42.63,58.81 A4.93 5.1 0 1 1 52.49,58.81 Z" fill="#1A1717"/>
  <path d="M85.37,58.81 A4.93 5.1 0 1 1 75.51,58.81 A4.93 5.1 0 1 1 85.37,58.81 Z" fill="#1A1717"/>
  <path d="M54.99,49.82 C54.06,48.59 51.92,46.81 47.76,46.81 C43.6,46.81 41.45,48.6 40.53,49.82 C40.12,50.36 40.22,50.99 40.51,51.37 C40.77,51.72 41.55,52.05 42.41,51.76 C43.27,51.47 44.95,50.6 47.76,50.58 C50.57,50.6 52.25,51.47 53.11,51.76 C53.97,52.05 54.75,51.73 55.01,51.37 C55.29,50.99 55.39,50.36 54.99,49.82 Z" fill="#1A1717"/>
  <path d="M87.48,49.82 C86.55,48.59 84.41,46.81 80.25,46.81 C76.09,46.81 73.94,48.6 73.02,49.82 C72.61,50.36 72.71,50.99 73,51.37 C73.26,51.72 74.04,52.05 74.9,51.76 C75.76,51.47 77.44,50.6 80.25,50.58 C83.06,50.6 84.74,51.47 85.6,51.76 C86.46,52.05 87.24,51.73 87.5,51.37 C87.79,50.99 87.89,50.36 87.48,49.82 Z" fill="#1A1717"/>
  <path id="nose" d="M67.86,68.06 C67.75,68.02 67.65,67.99 67.54,67.98 L60.46,67.98 C60.35,67.99 60.24,68.02 60.14,68.06 C59.5,68.32 59.15,68.98 59.45,69.69 C59.75,70.4 61.16,72.38 64,72.38 C66.84,72.38 68.25,70.39 68.55,69.69 C68.85,68.98 68.5,68.32 67.86,68.06 Z" fill="#33251F"/>
  <path id="mouth" d="M72.42,76.14 C69.24,78.03 58.79,78.03 55.61,76.14 C53.78,75.05 51.91,76.72 52.67,78.38 C53.42,80.01 59.11,83.8 64.04,83.8 C68.97,83.8 74.59,80.01 75.34,78.38 C76.09,76.72 74.25,75.05 72.42,76.14 Z" fill="#1A1717"/>
  <path d="M102.71,41.06 C101.85,25.69 92.83,4.03 63.57,4.03 L63.57,4.03 L63.57,4.03 L63.57,4.03 C62.56,4.03 61.56,4.07 60.57,4.13 C60.35,4.14 60.14,4.16 59.92,4.18 C59.23,4.23 58.54,4.3 57.85,4.38 C57.61,4.41 57.37,4.42 57.14,4.45 C55.31,4.69 53.52,5.05 51.76,5.53 C51.66,5.56 51.57,5.58 51.47,5.61 C51.03,5.73 50.59,5.87 50.16,6 C42.44,8.4 35.74,13.07 31.24,20.32 C25.18,30.09 25.3,41.61 25.3,41.61 L28.07,43.26 C28.07,43.26 28.08,43.13 28.09,42.91 C28.51,54.25 30.59,62.75 30.59,62.75 L34.84,43.5 C51.26,43.5 63.32,31.57 70.09,30.38 C76.92,29.17 80.59,36.35 80.59,36.35 C80.59,36.35 86.05,33.97 90.34,39.93 C93.18,43.87 93.42,53.84 96.84,61.45 C96.84,61.45 99.41,53.5 100.03,42.95 L102.71,41.06 Z" fill="url(#SVGID_6_)"/>
  <path id="hairHighlight_x5F_white_2_" d="M102.71,41.36 C101.85,25.99 92.83,4.03 63.57,4.03 L63.57,4.03 L63.57,4.03 L63.57,4.03 C62.56,4.03 61.56,4.07 60.57,4.13 C60.35,4.14 60.14,4.16 59.92,4.18 C59.23,4.23 58.54,4.3 57.85,4.38 C57.61,4.41 57.37,4.42 57.14,4.45 C55.31,4.69 53.52,5.05 51.76,5.53 C51.66,5.56 51.57,5.58 51.47,5.61 C51.03,5.73 50.59,5.87 50.16,6 C42.44,8.4 35.74,13.07 31.24,20.32 C25.18,30.09 25.3,41.61 25.3,41.61 L28.07,43.26 C28.07,43.26 28.08,43.13 28.09,42.91 C28.51,54.25 30.59,62.75 30.59,62.75 L34.84,43.5 C51.26,43.5 63.32,31.57 70.09,30.38 C76.92,29.17 80.59,36.35 80.59,36.35 C80.59,36.35 86.05,33.97 90.34,39.93 C93.18,43.87 93.42,53.84 96.84,61.45 C96.84,61.45 99.41,53.5 100.03,42.95 L102.71,41.36 Z" fill="url(#hairHighlight_x5F_white_3_)"/>
  <path d="M102.63,38.71 C101.5,38.92 100.69,38.97 100.28,38.99 C96.31,39.16 92.69,37.36 88.89,35.47 C92.48,34.35 100.75,32.71 101.26,32.77 C101.66,32.82 101.38,29.78 101.11,29.75 C100.51,29.69 98.47,29.64 97.83,29.67 C93.56,29.88 88.61,31.28 83.79,33.14 C80.69,31.99 77.57,31.48 74.66,31.71 C69.34,32.12 64.01,35.86 64.01,35.86 C64.01,35.86 64.01,35.86 64.01,35.86 L64.01,35.85 C64.01,35.85 64.01,35.85 64.01,35.85 C64.01,35.85 64,35.85 64,35.86 C64,35.86 63.99,35.86 63.99,35.85 C63.99,35.85 63.99,35.85 63.99,35.85 L63.99,35.86 C63.99,35.86 63.99,35.86 63.98,35.86 C63.98,35.86 58.65,32.13 53.33,31.71 C50.42,31.48 47.3,32 44.2,33.14 C39.38,31.28 34.43,29.88 30.16,29.66 C29.52,29.63 27.15,29.68 26.55,29.74 C26.27,29.77 25.99,32.81 26.4,32.76 C26.91,32.7 35.51,34.34 39.1,35.46 C35.3,37.35 31.68,39.15 27.71,38.98 C27.3,38.96 26.39,38.7 25.26,38.49 C24.94,38.43 25.03,40.28 25.31,40.34 C25.31,40.34 25.28,41.6 27.73,41.73 C32.19,41.98 36.67,40.03 40.52,38.11 C41.38,37.68 42.24,37.26 43.11,36.85 C47.12,38.41 51.05,40.36 54.46,42.25 L63.9,48.3 L63.99,48.37 L63.99,48.37 L63.99,48.37 L63.99,48.37 L64,48.36 L64,48.36 L64,48.36 L64,48.41 L64,48.41 L64,48.41 L64,48.4 L64.09,48.33 L73.53,42.28 C76.94,40.39 80.87,38.44 84.88,36.88 C85.75,37.29 86.62,37.71 87.47,38.14 C91.32,40.05 95.8,42 100.26,41.76 C102.71,41.62 102.57,40.57 102.57,40.57 C102.86,40.5 102.94,38.65 102.63,38.71 Z M64.17,43.17 C64.08,43.22 64.03,43.25 64,43.27 C64,43.27 64,43.27 64,43.27 C64,43.27 63.99,43.27 63.99,43.28 C63.99,43.28 63.98,43.28 63.98,43.27 C63.98,43.27 63.98,43.27 63.98,43.27 C63.95,43.26 63.9,43.22 63.81,43.17 C61.13,41.4 55.27,37.96 48.62,34.99 C50.16,34.69 51.66,34.58 53.1,34.71 C59.16,35.25 63.98,39.45 63.98,39.45 L64,39.44 L64.02,39.45 C64.02,39.45 68.84,35.25 74.9,34.71 C76.33,34.58 77.84,34.69 79.38,34.99 C72.71,37.96 66.85,41.39 64.17,43.17 Z" fill="#212121" opacity="0.36"/>
  <path d="M64,42.22 C63.99,42.23 63.99,42.23 63.98,42.23 C59.17,38.92 42.58,29.21 31.09,28.63 C30.47,28.6 28.03,28.65 27.45,28.71 C27.18,28.74 26.32,29.19 25.95,30.63 C25.61,31.97 26.05,32.87 26.44,32.82 C26.94,32.76 28.7,32.72 29.8,32.7 C40.91,32.44 56.93,42.14 62.8,46.4 L63.97,47.37 L63.97,47.37 L63.97,47.37 L63.97,47.37 L64,47.35 L64,42.22 Z" fill="#97B4C2"/>
  <path d="M64,42.22 C64.01,42.23 64.01,42.23 64.02,42.23 C68.83,38.92 85.41,29.21 96.91,28.63 C97.53,28.6 99.49,28.65 100.08,28.71 C100.35,28.74 101.21,29.19 101.58,30.63 C101.92,31.97 101.48,32.87 101.09,32.82 C100.59,32.76 99.3,32.72 98.2,32.7 C87.09,32.44 71.07,42.14 65.2,46.4 L64.03,47.37 L64.03,47.37 L64.03,47.37 L64.03,47.37 L64,47.35 L64,42.22 Z" fill="#97B4C2"/>
  <path d="M64,42.24 C64.02,42.23 67.32,40.14 69.86,39.93 C71.29,39.81 73.75,40.94 73.75,40.94 L64,47.36 L64.01,47.36 L54.27,40.93 C54.27,40.93 56.73,39.81 58.16,39.92 C60.69,40.13 63.99,42.21 64.02,42.23 L64,42.23 Z" fill="url(#SVGID_7_)"/>
  <path d="M63.97,34.82 C63.97,34.82 58.79,31.09 53.62,30.67 C50.23,30.4 46.54,31.18 42.95,32.85 C41.89,33.35 40.83,33.88 39.79,34.42 C36.09,36.31 32.57,38.12 28.7,37.95 C28.3,37.93 26.62,37.57 25.52,37.36 C25.21,37.3 24.27,37.36 24.12,38.58 C23.97,39.74 24.97,40.35 25.24,40.41 C25.98,40.58 26.99,40.96 28.29,40.96 C28.58,40.96 28.88,40.97 29.21,40.97 C33.56,40.97 37.4,39.01 41.15,37.09 C42.16,36.57 43.18,36.05 44.21,35.57 C47.33,34.11 50.51,33.4 53.39,33.67 C59.28,34.21 63.96,38.41 63.96,38.41 L64,38.39 L64,34.8 C63.99,34.81 63.98,34.81 63.97,34.82 Z" fill="#97B4C2"/>
  <path d="M64.03,34.82 C64.03,34.82 69.21,31.09 74.38,30.67 C77.77,30.4 81.46,31.18 85.05,32.85 C86.12,33.35 87.16,33.88 88.21,34.42 C91.91,36.31 95.43,38.12 99.3,37.95 C99.7,37.93 100.91,37.73 102.01,37.52 C102.32,37.46 103.26,37.52 103.41,38.74 C103.56,39.9 102.55,40.51 102.29,40.57 C101.55,40.74 101.01,40.96 99.71,40.96 C99.42,40.96 99.12,40.97 98.78,40.97 C94.43,40.97 90.59,39.01 86.84,37.09 C85.83,36.57 84.81,36.05 83.77,35.57 C80.65,34.11 77.47,33.4 74.59,33.67 C68.7,34.21 64.02,38.41 64.02,38.41 L64,38.39 L64,34.8 C64.01,34.81 64.02,34.81 64.03,34.82 Z" fill="#97B4C2"/>
</svg>