<svg viewBox="0 0 128 128" xmlns="http://www.w3.org/2000/svg">
  <defs>
    <radialGradient id="SVGID_1_" cx="42.192" cy="16.266047" gradientTransform="matrix(1 0 0 0.6598 0 0)" gradientUnits="userSpaceOnUse" r="13.1134">
      <stop offset="0.6107" stop-color="#00838F" stop-opacity="0"/>
      <stop offset="1" stop-color="#00838F"/>
    </radialGradient>
    <radialGradient id="SVGID_2_" cx="42.919107" cy="-12.099544" gradientTransform="matrix(0.8569 0.5154 -0.4948 0.8226 0 0)" gradientUnits="userSpaceOnUse" r="8.2949">
      <stop offset="0.6107" stop-color="#00838F" stop-opacity="0"/>
      <stop offset="1" stop-color="#00838F"/>
    </radialGradient>
    <radialGradient id="SVGID_3_" cx="38.87759" cy="8.62935" gradientTransform="matrix(0.9998 0.0177 -0.0174 0.982 0 0)" gradientUnits="userSpaceOnUse" r="5.9346">
      <stop offset="0" stop-color="#FFEB3B"/>
      <stop offset="1" stop-color="#FBAA19"/>
    </radialGradient>
    <radialGradient id="SVGID_4_" cx="32.9501" cy="113.0081" gradientUnits="userSpaceOnUse" r="61.232">
      <stop offset="0" stop-color="#29B6F6"/>
      <stop offset="1" stop-color="#0277BD"/>
    </radialGradient>
    <linearGradient id="SVGID_5_" gradientTransform="matrix(1 0 0 -1 0 0)" gradientUnits="userSpaceOnUse" x1="47.8866" x2="22.5485" y1="-81.9129" y2="-109.6165">
      <stop offset="0" stop-color="#005584" stop-opacity="0"/>
      <stop offset="0.8412" stop-color="#005584"/>
    </linearGradient>
    <linearGradient id="SVGID_6_" gradientTransform="matrix(1 0 0 -1 0 0)" gradientUnits="userSpaceOnUse" x1="88.4855" x2="116.42" y1="-88.6266" y2="-88.6266">
      <stop offset="0" stop-color="#54CCBE"/>
      <stop offset="0.2344" stop-color="#45CABA"/>
      <stop offset="0.6806" stop-color="#1FC4AE"/>
      <stop offset="1" stop-color="#00BFA5"/>
    </linearGradient>
    <linearGradient id="SVGID_7_" gradientTransform="matrix(1 0 0 -1 0 0)" gradientUnits="userSpaceOnUse" x1="63.2689" x2="77.5687" y1="-110.2765" y2="-72.8494">
      <stop offset="0" stop-color="#00AB94"/>
      <stop offset="0.7061" stop-color="#00BFA5"/>
    </linearGradient>
    <linearGradient id="SVGID_8_" gradientUnits="userSpaceOnUse" x1="37.1929" x2="58.4018" y1="71.13" y2="71.13">
      <stop offset="0.0956" stop-color="#00AB94"/>
      <stop offset="0.4488" stop-color="#00BFA5"/>
    </linearGradient>
    <linearGradient id="SVGID_9_" gradientUnits="userSpaceOnUse" x1="31.1996" x2="7.0546" y1="69.53" y2="69.53">
      <stop offset="0.0956" stop-color="#00AB94"/>
      <stop offset="0.4474" stop-color="#00BFA5"/>
    </linearGradient>
    <linearGradient id="SVGID_10_" gradientTransform="matrix(1 0 0 -1 0 0)" gradientUnits="userSpaceOnUse" x1="106.0931" x2="102.1031" y1="-111.041" y2="-122.781">
      <stop offset="0" stop-color="#00AB94"/>
      <stop offset="0.5785" stop-color="#00BFA5"/>
    </linearGradient>
    <radialGradient id="SVGID_11_" cx="80.017465" cy="-146.165599" gradientTransform="matrix(0.9726 -0.2326 -0.2175 -0.9094 0 0)" gradientUnits="userSpaceOnUse" r="8.6992">
      <stop offset="0.2716" stop-color="#FEBC12"/>
      <stop offset="0.4999" stop-color="#FEA709"/>
      <stop offset="0.809" stop-color="#FF9000"/>
    </radialGradient>
    <radialGradient id="SVGID_12_" cx="134.232332" cy="-66.709555" gradientTransform="matrix(0.9596 0.2812 0.2812 -0.9596 0 0)" gradientUnits="userSpaceOnUse" r="3.7747">
      <stop offset="0" stop-color="#FEBC12"/>
      <stop offset="1" stop-color="#FF8F00"/>
    </radialGradient>
    <radialGradient id="SVGID_13_" cx="134.185632" cy="-87.069555" gradientTransform="matrix(0.9596 0.2812 0.2812 -0.9596 0 0)" gradientUnits="userSpaceOnUse" r="4.3859">
      <stop offset="0" stop-color="#FEF59F"/>
      <stop offset="0.9044" stop-color="#FAC537"/>
      <stop offset="1" stop-color="#F9BF2C"/>
    </radialGradient>
  </defs>
  <path d="M54.6,8.2 C54.6,8.2 53.4,9.9 51.1,9.9 C49.8,9.9 48.1,9.3 46.1,7.7 C44.1,6 43.24,5.12 40.8,4.3 C38.63,3.57 35.75,3.78 34.1,5.3 C30.6,8.9 32.1,12.3 32.4,13.2 C32.4,13.2 35.9,17.8 45,17.8 C46.9,17.8 48.8,17.5 50.5,16.6 C56.2,13.5 54.6,8.2 54.6,8.2 Z" fill="#2D2D2D"/>
  <path d="M54.6,8.2 C54.6,8.2 53.4,9.9 51.1,9.9 C49.8,9.9 48.1,9.3 46.1,7.7 C44.1,6 43.24,5.12 40.8,4.3 C38.63,3.57 35.75,3.78 34.1,5.3 C30.6,8.9 32.1,12.3 32.4,13.2 C32.4,13.2 35.9,17.8 45,17.8 C46.9,17.8 48.8,17.5 50.5,16.6 C56.2,13.5 54.6,8.2 54.6,8.2 Z" fill="#0F3B7C"/>
  <path d="M54.6,8.2 C54.6,8.2 53.4,9.9 51.1,9.9 C49.8,9.9 32.1,12.3 32.4,13.2 C32.4,13.2 35.9,17.8 45,17.8 C46.9,17.8 48.8,17.5 50.5,16.6 C56.2,13.5 54.6,8.2 54.6,8.2 Z" fill="url(#SVGID_1_)"/>
  <path d="M46.1,7.7 C44.1,6 43.24,5.12 40.8,4.3 C38.63,3.57 35.75,3.78 34.1,5.3 C30.6,8.9 32.1,12.3 32.4,13.2 C32.4,13.2 48.1,9.3 46.1,7.7 Z" fill="url(#SVGID_2_)"/>
  <path d="M35.7,6.5 L36.1,6.5 C38.3,6.5 40,8.3 39.9,10.5 L39.9,10.9 C39.9,13.1 38.1,14.8 35.9,14.7 L35.5,14.7 C33.3,14.7 31.6,12.9 31.6,10.7 L31.6,10.3 C31.7,8.2 33.5,6.4 35.7,6.5 Z" fill="url(#SVGID_3_)"/>
  <path d="M38.3,9.4 A1.2 1.2 0 1 1 35.9,9.4 A1.2 1.2 0 1 1 38.3,9.4 Z" fill="#FFFFFF"/>
  <path d="M111.17,87.23 C109.56,88.4 97.52,90.42 105.02,86.19 C109.95,83.41 112.49,74.18 101.34,71.39 C89.93,68.56 77.74,88.46 76,92.63 C71.87,102.52 66.15,110.83 54.42,116.8 C43.93,122.15 34.14,122.65 21.89,116.72 C11.91,111.89 8.73,102.76 10.1,90.84 C10.27,89.33 10.46,88.01 10.66,86.85 C10.8,86.03 10.94,85.29 11.08,84.61 C12.47,77.86 13.83,76.94 11.72,67.66 L29.95,65.63 L33.07,65.28 L58.68,62.42 C58.68,69.14 57.91,74.24 48.14,83.7 C44.26,87.46 37.6,90.66 36.24,95.59 C35.79,97.24 35.49,99 36.96,101.19 C38.64,103.71 50.5,109.7 61.75,93.73 C62.9,92.1 69.27,82.43 71,79.82 C75.26,73.39 79.9,67.72 87,64.18 C112,51.7 123.92,77.96 111.17,87.23 Z" fill="url(#SVGID_4_)"/>
  <path d="M37.79,79.63 C34.31,82.85 30.23,85.34 26.42,88.17 C22.61,91 18.97,94.28 16.85,98.52 C14.73,102.76 14.39,108.15 17,112.11 C18.16,113.87 21.5,117.54 30.12,119.85 C30.12,119.85 16.66,113.29 24.36,102.25 C26.8,98.75 36.84,92.9 40.08,90.13 C43.32,87.36 42.6,88.49 45.56,85.42 C48.93,81.93 53.24,76.75 54.99,72.23 C56.22,69.05 57.96,63.86 52.58,63.86 C47.2,63.86 40.87,76.79 37.79,79.63 Z" fill="url(#SVGID_5_)"/>
  <path d="M91.05,103.88 C90.44,103.68 89.74,103.46 89.56,103.1 C87.2,98.31 88.82,93.01 93.51,90.2 C95.16,89.22 98.18,88.33 100.39,87.69 C100.92,87.54 101.41,87.39 101.84,87.26 C108.43,85.24 112.79,82.16 114.79,78.1 C115.73,76.19 115.93,74.74 115.92,73.32 C116.17,74.4 116.42,75.59 116.42,77.78 C116.42,84.13 112.71,86.95 108.69,89.04 C106.49,90.19 104.22,90.62 101.82,91.07 C99.47,91.52 97.03,91.98 94.71,93.18 C92.38,94.39 90.91,95.95 90.36,97.84 C89.84,99.6 90.12,101.64 91.18,103.93 C91.13,103.91 91.09,103.9 91.05,103.88 Z" fill="url(#SVGID_6_)"/>
  <path d="M49.23,119.06 C52.38,116.04 59.78,108.49 62.6,100.2 C69.24,80.61 72.05,77.47 76.31,72.7 L76.38,72.62 C81.15,67.05 86.68,63.61 92.4,62 C87.38,65.77 84.09,72.41 81.21,80.28 C78.35,88.12 75.1,97.02 68.32,106.29 C64.04,112.14 56.66,116.93 49.23,119.06 Z" fill="url(#SVGID_7_)"/>
  <path d="M49.24,118.98 C64,109 71,92 76.82,76.67 C77.86,74.08 79.09,71.58 80.48,69.18 C81.87,66.78 83.42,64.47 85.07,62.24 C85.93,61.09 86.91,60.01 87.98,59.02 C89.07,58.05 90.26,57.17 91.54,56.44 C94.12,55 97.07,54.18 100.03,54.15 C103,54.13 105.93,54.9 108.52,56.27 C111.09,57.66 113.43,59.65 114.88,62.31 C115.62,63.63 116.06,65.14 116.25,66.56 C116.46,68 116.48,69.46 116.34,70.89 C116.02,73.75 115.06,76.52 113.44,78.88 C112.63,80.05 111.62,81.1 110.57,81.99 C109.52,82.9 108.42,83.72 107.28,84.49 C105,86.01 102.6,87.41 99.99,88.2 C101.25,87.68 102.42,86.99 103.54,86.24 C104.67,85.5 105.76,84.69 106.8,83.84 C108.85,82.12 110.96,80.35 112.2,78.09 C113.49,75.85 114.18,73.28 114.28,70.73 C114.39,68.2 113.97,65.55 112.74,63.53 C111.48,61.45 109.5,59.78 107.27,58.66 C105.04,57.54 102.53,56.98 100.06,57.03 C97.59,57.07 95.16,57.77 93,59 C91.93,59.63 90.93,60.38 89.99,61.22 C89.08,62.09 88.22,63.02 87.44,64.03 C85.84,66.14 84.34,68.35 82.97,70.63 C82.96,70.65 82.94,70.68 82.93,70.7 C80.99,73.94 79.44,77.41 78.18,80.97 C72.92,95.9 65.21,108.88 51.12,118.08 C50.54,118.46 49.93,118.83 49.24,118.98 Z" fill="#5CEAD6"/>
  <path d="M63.98,68.72 L57.7,68.61 L38.77,68.28 L37.53,68.25 L37.35,68.25 L35.31,68.21 L34.27,68.2 L33.05,68.18 L31.69,68.15 L31.2,68.15 L29.9,68.12 L28.69,68.1 L14.19,67.84 L10.1,67.77 C11.32,61.24 14.19,58.36 17.37,56.77 C20.1,55.4 23.06,54.98 25.38,54.02 C25.7,53.9 26,53.76 26.29,53.6 C26.71,53.38 27.1,53.13 27.46,52.84 C27.58,52.74 27.7,52.63 27.82,52.51 C27.83,52.51 27.83,52.51 27.83,52.51 C27.83,52.5 27.84,52.49 27.84,52.49 C28.88,51.47 29.54,50 29.61,47.72 L41.35,47.1 C41.21,49.75 42.08,51.4 43.55,52.54 C43.62,52.6 43.69,52.65 43.76,52.7 C43.93,52.82 44.11,52.94 44.29,53.05 C44.74,53.31 45.22,53.55 45.74,53.77 C46.05,53.89 46.36,54.01 46.69,54.12 C46.96,54.22 47.24,54.31 47.53,54.39 C47.57,54.41 47.61,54.42 47.65,54.43 C47.8,54.48 47.95,54.52 48.1,54.57 C48.18,54.59 48.26,54.61 48.35,54.63 C49.97,55.09 51.72,55.48 53.45,56.01 C53.7,56.09 53.97,56.18 54.26,56.28 C54.88,56.48 55.5,56.72 56.11,56.98 C56.32,57.08 56.51,57.16 56.68,57.24 C56.74,57.26 56.8,57.29 56.86,57.32 C60.5,59.1 63.48,62.19 63.98,68.72 Z" fill="#039BE5"/>
  <path d="M46.87,87.3 C46.36,88.04 45.75,88.27 45.21,88.3 C44.58,88.33 44.05,88.07 43.93,88 C43.92,88 43.92,87.99 43.91,87.99 C43.91,87.99 32.13,80.63 34.27,68.2 C35.05,63.63 37.72,58.37 43.55,52.54 C43.62,52.6 43.69,52.65 43.76,52.7 C43.93,52.82 44.11,52.94 44.29,53.05 C44.74,53.31 45.22,53.55 45.74,53.77 C45.46,54.11 44.78,54.91 43.96,55.97 C40.81,59.96 38.3,64.01 37.53,68.25 C37.22,69.94 37.19,71.66 37.51,73.43 C38.54,79.05 42.34,82.92 44.57,85.34 C45.51,86.27 46.87,87.28 46.87,87.3 Z" fill="#212121" opacity="0.35"/>
  <path d="M56.58,73.51 C55.91,74.94 54.95,76.38 53.98,77.77 C53.81,78.01 53.65,78.25 53.48,78.49 L53.16,78.95 C51.89,80.76 49.42,84.44 47.72,86.98 L46.47,88.84 L46.22,89.21 C45.97,89 45.63,88.69 45.21,88.3 C42.83,86 38.19,80.66 37.33,73.22 C37.33,73.21 37.33,73.21 37.33,73.2 C37.17,71.83 37.15,70.46 37.27,69.07 C37.29,68.8 37.33,68.53 37.35,68.25 C37.88,61.49 40.24,58.14 44.29,53.05 C44.74,53.31 45.22,53.55 45.74,53.77 C46.05,53.89 46.36,54.01 46.69,54.12 C46.96,54.22 51.72,55.48 53.45,56.01 C53.7,56.09 56.8,57.29 56.85,57.31 L56.86,57.32 C60.41,65.98 56.74,73.17 56.58,73.51 Z" fill="url(#SVGID_8_)"/>
  <path d="M47.72,86.98 L46.47,88.84 L46.22,89.21 L45.92,89.65 C45.5,89.34 44.79,88.78 43.93,88 C43.92,88 43.92,87.99 43.91,87.99 C40.31,84.73 34.11,77.63 35.31,68.21 C35.91,63.54 38.32,58.32 43.76,52.7 C43.93,52.82 44.11,52.94 44.29,53.05 C44.74,53.31 45.22,53.55 45.74,53.77 C46.05,53.89 46.36,54.01 46.69,54.12 C46.35,54.53 45.82,55.18 45.2,55.97 C42.05,59.97 39.53,64.03 38.77,68.28 C38.46,69.96 38.43,71.67 38.75,73.43 C39.78,79.05 43.58,82.92 45.81,85.34 C46.44,85.96 47.25,86.61 47.72,86.98 Z" fill="#FCB316"/>
  <path d="M33.05,68.18 C32.93,69.36 32.66,70.65 32.18,72.06 C30.3,77.53 27.11,86.65 10.66,86.85 C10.67,86.76 10.69,86.68 10.7,86.6 C10.73,86.43 10.76,86.26 10.79,86.1 C10.89,85.57 10.98,85.08 11.08,84.61 C11.5,84.13 12.11,83.74 12.97,83.67 C23.96,82.52 27.38,76.87 29.09,71.87 C29.54,70.56 29.79,69.31 29.9,68.12 C29.99,67.25 30,66.41 29.95,65.63 C29.87,64.1 29.58,62.77 29.26,61.7 C29.2,61.49 29.12,61.19 29.02,60.83 C28.44,58.68 27.65,56.44 27.34,55.78 C26.99,55.04 26.56,54.16 26.29,53.6 C26.71,53.38 27.1,53.13 27.46,52.84 C27.58,52.74 27.7,52.63 27.82,52.51 C27.83,52.51 27.83,52.51 27.83,52.51 C27.84,52.52 27.86,52.53 27.87,52.55 C30.31,54.63 31.7,59.41 32.13,60.84 C32.5,62.08 32.92,63.54 33.07,65.28 C33.15,66.17 33.16,67.13 33.05,68.18 Z" fill="#212121" opacity="0.35"/>
  <path d="M31.2,68.15 C31.17,68.43 31.13,68.72 31.1,69.01 C30.78,71.89 29.59,74.34 29.14,75.28 C26.81,80.14 22.13,85.28 10.79,86.1 C9.75,86.18 8.66,86.22 7.5,86.22 C7.38,86.21 7.25,86.21 7.13,86.21 C7.64,85.56 8.26,84.63 8.91,83.51 L8.92,83.51 C9.96,81.72 11.11,79.44 12.02,77.09 C12.74,75.23 13.32,73.31 13.59,71.56 L13.61,71.42 L13.64,71.26 C13.82,70.1 13.99,68.96 14.19,67.84 C14.7,64.85 17.12,57.35 17.37,56.77 C20.1,55.4 23.06,54.98 25.38,54.02 C25.7,53.9 26,53.76 26.29,53.6 C26.71,53.38 27.1,53.13 27.46,52.84 C28.88,54.97 31.78,62.58 31.2,68.15 Z" fill="url(#SVGID_9_)"/>
  <path d="M31.69,68.15 C31.57,69.56 31.27,71.08 30.73,72.67 C28.97,77.83 25.01,85.6 10.7,86.6 C9.69,86.67 8.62,86.71 7.5,86.71 C7.21,86.71 6.93,86.71 6.64,86.7 C6.83,86.49 8.26,84.67 8.91,83.51 L8.92,83.51 C9.47,83.51 10.36,83.62 11.77,83.5 C22.76,82.35 26.18,76.7 27.89,71.7 C28.32,70.45 28.57,69.24 28.69,68.1 C28.97,65.47 28.56,63.18 28.06,61.53 C28,61.32 27.92,61.02 27.82,60.66 C27.24,58.51 26.45,56.27 26.14,55.61 C25.9,55.1 25.62,54.52 25.38,54.02 C25.7,53.9 26,53.76 26.29,53.6 C26.71,53.38 27.1,53.13 27.46,52.84 C27.58,52.74 27.7,52.63 27.82,52.51 C27.83,52.51 27.83,52.51 27.83,52.51 C27.83,52.5 27.84,52.49 27.84,52.49 C27.85,52.51 27.86,52.53 27.87,52.55 C29.61,55.14 30.57,59.46 30.93,60.66 C31.46,62.44 31.99,65.05 31.69,68.15 Z" fill="#FCB316"/>
  <path d="M56.58,73.51 C55.91,74.94 54.95,76.38 53.98,77.77 C48.03,77.68 41.71,75.84 37.98,73.5 L37.33,73.22 L36.34,72.79 C34.7,73.34 32.14,74.34 29.14,75.28 C23.94,76.91 17.4,78.37 12.02,77.09 C12.74,75.23 13.32,73.31 13.59,71.56 L13.61,71.42 C15.98,69.67 26.2,68.97 26.62,68.97 C26.75,68.97 28.55,68.99 31.1,69.01 C32.89,69.03 35.05,69.05 37.27,69.07 C43.41,69.13 56.74,73.17 56.58,73.51 Z" fill="#212121" opacity="0.35"/>
  <path d="M63.07,63.87 C63.45,64.32 65.73,66.45 65.71,68.63 C65.69,70.42 64.95,72.7 62.46,73.91 C55.87,77.13 43.61,74.56 37.99,71.01 C31,66.61 26.25,64.02 26.25,64.02 C20.11,65.32 15,62.28 15,62.28 C15,62.28 8.33,63.56 7.22,63.53 C5.47,63.49 5.04,61.13 6.49,60.63 C9.35,59.64 16.19,55.61 18.85,55.76 C20.3,55.84 34.98,58.66 39.2,59.86 C40.56,60.25 48.73,61.71 48.73,61.71" fill="#4FC3F7"/>
  <path d="M39.49,59.94 C39.49,59.94 52.3,55.7 55.19,56.34 C62.41,57.94 65.85,63.59 65.96,64.62 C65.56,65.83 62.97,66.61 60.41,65.98 C56.99,65.14 53.12,62.63 48.71,61.71 C48.71,61.71 39.69,60.12 39.49,59.94 Z" fill="#4FC3F7"/>
  <path d="M65.96,64.62 C65.85,65.23 65.31,65.71 64.77,66.02 C64.22,66.34 63.61,66.53 62.99,66.66 C61.74,66.88 60.43,66.84 59.16,66.38 C57.87,65.95 56.86,65.05 55.96,64.33 C55.07,63.57 54.28,63.04 53.43,63.01 L53.09,63 L52.63,63 C52.32,63 52,63.01 51.7,63 C51.08,62.98 50.47,62.95 49.86,62.88 C48.65,62.72 47.46,62.55 46.29,62.27 C43.95,61.72 41.63,61.06 39.49,59.93 C41.86,60.25 44.21,60.48 46.54,60.73 C47.71,60.82 48.86,60.95 50.02,60.99 C50.59,61.01 51.17,61.05 51.73,61.04 C52.02,61.05 52.29,61.03 52.57,61.02 L53,61.01 L53.56,61.01 C54.31,61.07 55.06,61.33 55.66,61.7 C56.27,62.07 56.77,62.49 57.21,62.9 C58.08,63.74 58.85,64.46 59.78,64.94 C60.69,65.4 61.81,65.66 62.91,65.68 C63.47,65.7 64.03,65.64 64.57,65.51 C65.08,65.36 65.65,65.14 65.96,64.62 Z" fill="#0277BD"/>
  <path d="M36.73,70.23 C35.27,71.31 21.47,76.59 12.02,74.47 C9.83,73.98 6.87,73.37 6.18,70.78 C5.34,67.6 9.09,63.34 9.09,63.34 L14.99,62.3 L18.5,63.62 C19.56,64.02 20.68,64.2 21.81,64.17 L26.24,64.03 C26.24,64.02 37.25,70.23 36.73,70.23 Z" fill="#4FC3F7"/>
  <path d="M62.45,73.91 C59.58,75.54 56.13,75.97 52.84,75.91 C49.52,75.84 46.22,75.28 43.03,74.29 C41.44,73.78 39.86,73.18 38.36,72.36 C37.59,71.94 36.91,71.51 36.22,71.08 L34.14,69.82 C31.39,68.11 28.58,66.45 25.8,64.82 L26.42,64.91 C25.41,65.08 24.39,65.21 23.37,65.19 C22.35,65.18 21.34,65.07 20.35,64.88 C19.36,64.69 18.38,64.43 17.45,64.06 C16.51,63.7 15.62,63.29 14.73,62.74 L15.09,62.8 C13.78,62.98 12.48,63.14 11.16,63.29 L9.19,63.48 C8.53,63.52 7.87,63.58 7.21,63.54 C7.86,63.47 8.5,63.3 9.14,63.16 L11.06,62.71 L14.89,61.79 L15.05,61.75 L15.26,61.85 C16.06,62.25 16.97,62.58 17.86,62.83 C18.76,63.08 19.67,63.28 20.59,63.39 C21.51,63.51 22.43,63.55 23.35,63.5 C24.27,63.49 25.17,63.33 26.06,63.15 L26.38,63.09 L26.68,63.24 C29.6,64.76 32.4,66.43 35.2,68.11 L37.28,69.41 C37.97,69.85 38.66,70.29 39.32,70.66 C40.68,71.4 42.13,72.04 43.62,72.58 C45.12,73.1 46.65,73.54 48.21,73.91 C49.77,74.25 51.35,74.54 52.94,74.71 C56.09,75.02 59.36,75.02 62.45,73.91 Z" fill="#0277BD"/>
  <path d="M20.8,40.67 C19.74,40.44 17.88,39.86 16.59,38.51 C14.23,36.02 13.51,31.02 13.33,29.2 C14.64,29.32 17.61,29.78 19.14,31.59 L20.8,40.67 Z" fill="#039BE5"/>
  <path d="M18.04,38.42 C17.9,40.06 17.08,41.43 15.84,41.45 C14.6,41.48 13.57,40.15 13.54,38.5 C13.52,37.25 14.07,36.17 14.88,35.71 L15.35,36.68 C14.94,36.96 14.59,37.63 14.61,38.49 C14.63,39.63 15.26,40.41 15.82,40.4 C16.38,40.39 16.98,39.59 16.97,38.45 C16.96,37.51 16.83,37.22 16.59,36.7 C16.2,35.82 16.85,35.14 17.47,36 C17.47,36 18.17,36.84 18.04,38.42 Z" fill="#FCB316"/>
  <path d="M51.28,31.59 C52.81,29.77 55.78,29.32 57.09,29.2 C56.91,31.02 56.19,36.02 53.83,38.51 C52.54,39.87 50.68,40.45 49.62,40.67 L51.28,31.59 Z" fill="#039BE5"/>
  <path d="M33.68,52.13 L34.9,52.21 L36.52,52.21 C45.53,51.61 51.56,43.27 51.75,30.07 C51.94,16.94 43.85,10.32 35.52,10.2 C27.19,10.08 18.9,16.45 18.71,29.58 C18.51,42.8 25.13,51.44 33.68,52.13 Z" fill="#4FC3F7"/>
  <path d="M37.11,38.19 C37.06,38.17 37.01,38.16 36.96,38.15 L33.54,38.1 C33.49,38.11 33.44,38.12 33.38,38.14 C33.07,38.26 32.89,38.58 33.03,38.92 C33.17,39.26 33.84,40.23 35.21,40.25 C36.58,40.27 37.28,39.32 37.43,38.98 C37.58,38.64 37.41,38.32 37.11,38.19 Z" fill="#0277BD"/>
  <path d="M39.31,42.13 C37.76,43.02 32.71,42.95 31.19,42.01 C30.31,41.47 29.4,42.26 29.75,43.07 C30.1,43.86 32.83,45.74 35.21,45.77 C37.59,45.8 40.34,44.01 40.71,43.23 C41.08,42.43 40.2,41.62 39.31,42.13 Z" fill="#4E342E"/>
  <path d="M52.95,36 C53.57,35.14 54.22,35.82 53.83,36.7 C53.59,37.22 53.46,37.51 53.45,38.45 C53.44,39.59 54.04,40.39 54.6,40.4 C55.16,40.41 55.79,39.63 55.81,38.49 C55.83,37.63 55.48,36.96 55.07,36.68 L55.54,35.71 C56.35,36.17 56.9,37.25 56.88,38.5 C56.85,40.15 55.82,41.48 54.58,41.45 C53.34,41.43 52.52,40.06 52.38,38.42 C52.25,36.84 52.95,36 52.95,36 Z" fill="#FCB316"/>
  <path d="M29.67,33.6 A2.38 2.38 0 1 1 24.91,33.6 A2.38 2.38 0 1 1 29.67,33.6 Z" fill="#212121"/>
  <path d="M45.55,33.6 A2.38 2.38 0 1 1 40.79,33.6 A2.38 2.38 0 1 1 45.55,33.6 Z" fill="#212121"/>
  <path d="M116.24,113.57 C110.66,112.68 111.14,110.97 110.61,109.38 L105.28,107.82 C104.06,108.87 102.9,111.05 98.31,108.81 C96.9,108.12 92.14,104.09 92.14,104.09 L88.55,103.18 C89.01,103.6 92.92,108.63 96.25,112.84 C100.41,118.11 102.9,119.09 104.73,119.62 C107.47,120.42 110.65,120.02 110.65,120.02 C110.65,120.02 115.99,120.6 119.65,119.26 C123.45,117.87 125.18,114.36 125.18,114.36 C125.18,114.36 118.76,113.81 116.24,113.57 Z M119.05,117.63 C117.67,118.13 115.99,118.33 114.51,118.39 C115.79,117.46 116.64,116.33 117.17,115.41 C118.19,115.5 119.68,115.64 121.88,115.83 C121.16,116.52 120.22,117.21 119.05,117.63 Z" fill="url(#SVGID_10_)"/>
  <path d="M121.88,115.84 C121.16,116.53 120.22,117.21 119.05,117.64 C117.67,118.14 115.99,118.34 114.51,118.4 C115.59,117.61 116.64,116.24 117.17,115.42 C114.17,115.58 110.3,115.28 106.38,114.13 C99.02,111.97 92.8,105.2 91.74,103.99 L88.55,103.18 C89.01,103.6 92.92,108.63 96.25,112.84 C99.06,116.39 101.1,117.99 102.7,118.82 C99.29,118.71 97.26,120.79 97.26,120.79 L110.43,124.65 C110.43,124.65 109.84,121.78 106.87,120.03 C108.9,120.25 110.65,120.03 110.65,120.03 C110.65,120.03 115.99,120.61 119.65,119.27 C123.45,117.88 125.18,114.37 125.18,114.37 L121.88,115.84 L121.88,115.84 Z" fill="url(#SVGID_11_)"/>
  <path d="M108.34,104.94 L105.07,108.06 L110.72,109.72 L109.22,105.24 L110.38,104.29 C110.71,104.02 110.88,103.61 110.84,103.19 L110.63,100.77 C110.59,100.29 109.99,100.09 109.67,100.46 L108.06,102.31 C107.75,102.66 107.66,103.16 107.83,103.6 C107.83,103.6 108.34,104.94 108.34,104.94 Z" fill="url(#SVGID_12_)"/>
  <path d="M110.04,123.59 L98.19,120.11 L99.67,119.33 L109.18,122.12 Z" fill="url(#SVGID_13_)"/>
  <path d="M30.8,29.8 C30.5,30.1 30,29.9 29.6,29.7 C28.6,29.3 27.8,29 26.7,28.9 C25.9,28.9 24.7,29 23.8,29.3 C23,29.5 23.5,28.3 24.5,27.6 C25.2,27.1 25.9,26.9 27.4,26.9 C28.7,26.9 30.1,27.4 30.8,27.9 C31.3,28.5 31.3,29.4 30.8,29.8 Z" fill="#01579B"/>
  <path d="M39.7,29.8 C40,30.1 40.5,29.9 40.9,29.7 C41.9,29.3 42.7,29 43.8,28.9 C44.6,28.9 45.8,29 46.7,29.3 C47.5,29.5 47,28.3 46,27.6 C45.3,27.1 44.6,26.9 43.1,26.9 C41.8,26.9 40.4,27.4 39.7,27.9 C39.2,28.5 39.2,29.4 39.7,29.8 Z" fill="#01579B"/>
</svg>