<svg viewBox="0 0 128 128" xmlns="http://www.w3.org/2000/svg" xmlns:xlink="http://www.w3.org/1999/xlink">
  <symbol id="Grid" viewBox="-64.5 -64.5 129 129"/>
  <g id="Layer_5">
    <g>
      <g>
        <linearGradient id="SVGID_1_" gradientUnits="userSpaceOnUse" x1="64" x2="64" y1="18.3777" y2="106.3633">
          <stop offset="0.5" style="stop-color:#FEE133"/>
          <stop offset="0.6118" style="stop-color:#FEDE32"/>
          <stop offset="0.7076" style="stop-color:#FCD32F"/>
          <stop offset="0.7975" style="stop-color:#FAC12B"/>
          <stop offset="0.8834" style="stop-color:#F7A924"/>
          <stop offset="0.9" style="stop-color:#F6A323"/>
        </linearGradient>
        <path d="M64,118.56c-27.93,0-58-17.49-58-55.89C6,24.26,36.07,6.77,64,6.77 c15.48,0,29.81,5.13,40.36,14.43C115.9,31.38,122,45.72,122,62.66c0,16.86-6.1,31.17-17.64,41.39 C93.78,113.4,79.45,118.56,64,118.56z" fill="url(#SVGID_1_)"/>
        <path d="M64,8.77L64,8.77c14.99,0,28.86,4.95,39.03,13.93c11.1,9.8,16.97,23.61,16.97,39.96 c0,16.27-5.87,30.07-16.97,39.89c-10.21,9.03-24.07,14-39.03,14c-15.04,0-28.9-4.91-39.04-13.82C13.86,92.98,8,79.12,8,62.66 c0-16.54,5.86-30.42,16.96-40.15C35.07,13.65,48.93,8.77,64,8.77 M64,4.77L64,4.77L64,4.77L64,4.77c-31.15,0-60,20.01-60,57.89 c0,37.68,28.85,57.89,60,57.89h0h0h0c31.15,0,60-20.73,60-57.89C124,25.29,95.15,4.77,64,4.77L64,4.77z" fill="#EB8F00"/>
      </g>
      <g>
        <path d="M50.1,23.98c0.05,0,0.09,0,0.14,0 c2.2,0.07,2.96-3.05,0.58-3.62c-1.86-0.4-3.85-0.54-5.86-0.36c-5.55,0.47-10.52,3.15-13.72,6.83c-1.58,1.86,0.89,3.96,2.61,2.58 C38.23,25.97,44.06,23.89,50.1,23.98z" fill="#EB8F00" stroke="#EB8F00" stroke-miterlimit="10"/>
        <path d="M77.9,23.98c-0.05,0-0.09,0-0.14,0 c-2.2,0.07-2.96-3.05-0.58-3.62c1.86-0.4,3.85-0.54,5.86-0.36c5.55,0.47,10.52,3.15,13.72,6.83c1.58,1.86-0.89,3.96-2.61,2.58 C89.77,25.97,83.94,23.89,77.9,23.98z" fill="#EB8F00" stroke="#EB8F00" stroke-miterlimit="10"/>
      </g>
      <g>
        <path d="M32.19,47.07 c0,0,8.29,2.85,19.6-0.34" fill="none" stroke="#242424" stroke-linecap="round" stroke-miterlimit="10" stroke-width="6"/>
        <path d="M95.81,47.07 c0,0-8.29,2.85-19.6-0.34" fill="none" stroke="#242424" stroke-linecap="round" stroke-miterlimit="10" stroke-width="6"/>
      </g>
      <circle cx="64" cy="82.16" fill="#242424" r="22.5"/>
      <g>
        <radialGradient id="SVGID_3_" cx="98.3989" cy="94.7912" gradientTransform="matrix(-0.5231 -0.8522 -0.8522 0.5231 187.6621 122.4336)" gradientUnits="userSpaceOnUse" r="48.4553">
          <stop offset="0.6676" style="stop-color:#FEE133"/>
          <stop offset="0.8723" style="stop-color:#F9B928"/>
        </radialGradient>
        <path d="M29.01,68.77c8.44,1.49,0.99,10.87,0.37,14.61c-0.14,0.83,0.05,1.87,0.73,1.36 c0.28-0.21,20.39-12.31,20.39-12.31c2.19-1.34,4.78-1.11,6.12,1.07c1.34,2.18,0.38,4.6-1.81,5.94l-15.13,9.57l20.61-12.3 c2.19-1.34,4.78-1.11,6.12,1.07c1.34,2.18,0.38,4.6-1.81,5.94L44.18,96.61l16.82-10.04c2.19-1.34,4.78-1.11,6.12,1.07 c1.34,2.18,0.38,4.6-1.81,5.94l-16.64,10.57l10.27-6.02c2.19-1.34,4.78-1.11,6.12,1.07c1.34,2.18,0.11,4.15-2.08,5.5 c0,0-22.22,13.75-24.62,14.95c-6,3-19.16,2.27-25-7c-7.19-11.42,1.48-21.36,3.89-25.31c1.89-3.09,4.3-6.21,5.9-9.58 C24.55,74.81,26.52,68.33,29.01,68.77z" fill="url(#SVGID_3_)"/>
        <path d="M30.62,123.23c-6.84,0-14.71-2.76-18.96-9.51c-7.06-11.2-0.35-21.12,2.87-25.89 c0.39-0.58,0.74-1.1,1.01-1.53c0.66-1.08,1.39-2.18,2.1-3.24c1.33-2,2.71-4.07,3.71-6.16c0.28-0.59,0.59-1.33,0.91-2.13 c1.67-4.03,3.55-8.6,7.11-7.98l0,0c2.45,0.43,4.13,1.5,5.01,3.16c1.64,3.13-0.22,7.2-1.72,10.47c-0.09,0.2-0.18,0.39-0.27,0.59 c2.79-1.69,7.85-4.75,17.09-10.3c1.48-0.91,3.15-1.29,4.71-1.05c1.73,0.26,3.2,1.25,4.14,2.79c0.5,0.81,0.79,1.69,0.88,2.58 l0.06-0.04c3.26-2,6.99-1.27,8.84,1.74c0.94,1.54,1.16,3.3,0.61,4.96c-0.35,1.07-1.02,2.05-1.92,2.86 c0.79,0.48,1.49,1.16,2.02,2.03c1.85,3.02,0.81,6.67-2.47,8.69l-1.47,0.94c0.74,0.48,1.38,1.13,1.88,1.94 c0.97,1.58,1.11,3.32,0.41,4.92c-0.56,1.26-1.65,2.41-3.15,3.33c-0.9,0.56-22.32,13.8-24.77,15.03 C36.96,122.59,33.91,123.23,30.62,123.23z M29.81,71.05c-0.59-0.23-1.27,0-1.61,0.54c-0.82,1.28-1.77,3.58-2.24,4.72 c-0.35,0.85-0.68,1.65-1,2.32c-1.12,2.36-2.58,4.54-3.99,6.66c-0.72,1.08-1.39,2.09-2.01,3.11c-0.29,0.48-0.67,1.04-1.11,1.69 c-3.17,4.69-8.46,12.53-2.8,21.51c5.42,8.6,17.65,8.66,22.41,6.28c1.9-0.95,18.31-11.05,24.47-14.86 c0.8-0.49,1.36-1.04,1.59-1.54c0.13-0.29,0.2-0.63-0.16-1.21c-0.33-0.54-0.77-0.84-1.33-0.93c-0.63-0.09-1.34,0.09-2.03,0.51 l-10.3,6.04c-1.04,0.61-2.4,0.18-2.87-0.99c-0.37-0.91,0.05-1.96,0.88-2.48L64.24,91.9c1.07-0.66,2-1.88,1.18-3.21 c-0.81-1.33-2.32-1.05-3.36-0.41L45.21,98.33c-1,0.6-2.31,0.22-2.83-0.86c-0.45-0.93-0.04-2.06,0.84-2.61l20.32-12.82 c0.71-0.44,1.2-1,1.4-1.59c0.18-0.54,0.11-1.07-0.22-1.61c-0.82-1.33-2.32-1.05-3.36-0.42L40.71,90.74 c-1.04,0.62-2.4,0.19-2.88-0.97c-0.37-0.91,0.04-1.96,0.88-2.49l15.04-9.52c0.71-0.44,1.2-1,1.4-1.59 c0.18-0.54,0.11-1.07-0.22-1.61s-0.77-0.84-1.33-0.93c-0.62-0.09-1.34,0.09-2.03,0.51c-7.77,4.68-19.49,11.74-20.3,12.25 c-0.83,0.59-1.84,0.65-2.65,0.15c-1.49-0.91-1.29-2.9-1.19-3.49c0.2-1.23,0.85-2.64,1.6-4.29c1.01-2.21,2.54-5.56,1.81-6.95 C30.64,71.47,30.25,71.22,29.81,71.05z M29,83.09c-0.02,0.01-0.04,0.02-0.05,0.04C28.95,83.12,28.97,83.11,29,83.09z" fill="#EB8F00"/>
      </g>
    </g>
  </g>
</svg>