<svg viewBox="0 0 128 128" xmlns="http://www.w3.org/2000/svg">
  <defs>
    <radialGradient id="face_1_" cx="63.6" cy="62.8999" gradientUnits="userSpaceOnUse" r="56.9597">
      <stop offset="0.5" stop-color="#FDE030"/>
      <stop offset="0.92" stop-color="#F7C02B"/>
      <stop offset="1" stop-color="#F4A223"/>
    </radialGradient>
    <linearGradient id="SVGID_1_" gradientTransform="matrix(1 0 0 -1 0 0)" gradientUnits="userSpaceOnUse" x1="69.745" x2="69.745" y1="-124.1799" y2="-90.2141">
      <stop offset="0.46" stop-color="#29B6F6"/>
      <stop offset="1" stop-color="#1E88E5"/>
    </linearGradient>
  </defs>
  <path id="face" d="M63.6,118.8 C35.7,118.8 5.6,101.3 5.6,62.9 C5.6,24.5 35.7,7 63.6,7 C79.1,7 93.4,12.1 104,21.4 C115.5,31.6 121.6,46 121.6,62.9 C121.6,79.8 115.5,94.1 104,104.3 C93.4,113.6 79,118.8 63.6,118.8 Z" fill="url(#face_1_)"/>
  <path d="M111.49,29.67 C116.82,38.27 119.6,48.51 119.6,59.9 C119.6,76.8 113.5,91.1 102,101.3 C91.4,110.6 77,115.8 61.6,115.8 C43.54,115.8 24.6,108.45 13.42,92.86 C24.18,110.52 44.42,118.8 63.6,118.8 C79,118.8 93.4,113.6 104,104.3 C115.5,94.1 121.6,79.8 121.6,62.9 C121.6,50.16 118.13,38.84 111.49,29.67 Z" fill="#EB8F00"/>
  <path id="mouth-2" d="M64,97.31 C50.75,97.31 41.29,89.5 38.45,85.17 C37.38,83.78 37.15,81.91 37.87,80.31 C38.42,79.29 39.49,78.66 40.65,78.69 C41.07,78.69 41.5,78.76 41.9,78.89 C48.58,81 54.42,84 64,84 C73.58,84 79.44,81 86.1,78.87 C86.5,78.74 86.93,78.67 87.35,78.67 C88.51,78.64 89.58,79.27 90.13,80.29 C90.85,81.89 90.62,83.76 89.55,85.15 C86.71,89.5 77.25,97.31 64,97.31 Z" fill="#422B0D"/>
  <path d="M82.34,110.1 C81.34,105.46 79.76,101.04 80.14,98.1 C80.88,92.4 84.31,90.43 84.31,90.43 C82.54,90 80.68,90.21 79.05,91.03 C75.77,92.53 77.19,93.29 72.14,94.33 C67.89,95.21 65.44,93.02 60.59,93.86 C56.26,94.62 55.18,96.08 55.18,96.08 C57.56,96.83 60.02,97.34 62.5,97.61 C70.5,98.56 69.5,105.61 68.93,108.61 C67.79,114.42 66.25,124.54 75.8,124.17 C82.73,123.93 83.71,116.72 82.34,110.1 Z" fill="url(#SVGID_1_)"/>
  <path d="M29.91,58.48 L29.91,58.48 C28.55,57.19 28.49,55.04 29.78,53.67 C29.97,53.47 30.18,53.29 30.41,53.15 C33.34,51 36.61,49.37 40.09,48.34 C43.61,47.46 47.25,47.19 50.86,47.55 C52.74,47.63 54.21,49.21 54.13,51.09 C54.12,51.36 54.08,51.63 54,51.9 L54,51.9 C53.43,53.63 51.74,54.74 49.93,54.57 C47.25,54.28 44.55,54.46 41.93,55.09 C39.36,55.88 36.93,57.11 34.77,58.71 C33.3,59.78 31.28,59.69 29.91,58.48 Z" fill="#422B0D"/>
  <path d="M98.09,58.48 L98.09,58.48 C99.45,57.19 99.51,55.04 98.22,53.67 C98.03,53.47 97.82,53.29 97.59,53.15 C94.66,51 91.39,49.37 87.91,48.34 C84.39,47.46 80.75,47.19 77.14,47.55 C75.26,47.63 73.79,49.21 73.87,51.09 C73.88,51.36 73.92,51.63 74,51.9 L74,51.9 C74.57,53.63 76.26,54.74 78.07,54.57 C80.75,54.28 83.45,54.46 86.07,55.09 C88.64,55.88 91.07,57.11 93.23,58.71 C94.7,59.78 96.72,59.69 98.09,58.48 Z" fill="#422B0D"/>
  <path d="M79.88,118.61 C78.81,120.27 76.39,119.95 76.39,117.21 C76.39,115.45 76.75,106.44 78.25,107.7 C80.71,109.75 81.41,116.28 79.88,118.61 Z" fill="#81D4FA"/>
  <path d="M30.32,40.57 C28.98,42.36 26.07,41.03 27.05,38.84 C29.33,34.06 33.37,30.34 38.32,28.46 C40.13,27.7 42.05,27.26 44,27.14 C45,26.99 45.93,27.68 46.08,28.67 C46.23,29.66 45.54,30.6 44.55,30.75 L44.42,30.75 C38.74,32.34 33.77,35.8 30.32,40.57 Z" fill="#422B0D"/>
  <path d="M97.15,33.44 C98.59,35.15 101.42,33.66 100.32,31.53 C97.77,26.89 93.53,23.4 88.48,21.8 C86.64,21.15 84.7,20.81 82.74,20.8 C81.72,20.79 80.9,21.61 80.89,22.63 C80.89,23.52 81.52,24.29 82.4,24.45 L82.53,24.45 C88.28,25.71 93.43,28.87 97.15,33.44 Z" fill="#422B0D"/>
</svg>