<svg viewBox="0 0 128 128" xmlns="http://www.w3.org/2000/svg">
  <defs>
    <linearGradient id="SVGID_11_" gradientTransform="matrix(1 0 0 -1 0 0)" gradientUnits="userSpaceOnUse" x1="110.1296" x2="98.8738" y1="-52.5529" y2="-123.0644">
      <stop offset="0" stop-color="#90A4AE"/>
      <stop offset="0.2674" stop-color="#889DA8"/>
      <stop offset="0.5844" stop-color="#78909C"/>
      <stop offset="1" stop-color="#607D8B"/>
    </linearGradient>
    <linearGradient id="SVGID_13_" gradientTransform="matrix(1 0 0 -1 0 0)" gradientUnits="userSpaceOnUse" x1="50.0005" x2="50.0005" y1="-38.8793" y2="1.3377">
      <stop offset="0" stop-color="#0068B5"/>
      <stop offset="0.807" stop-color="#4C8EEA"/>
      <stop offset="1" stop-color="#5E97F6"/>
    </linearGradient>
    <linearGradient id="SVGID_14_" gradientTransform="matrix(1 0 0 -1 0 0)" gradientUnits="userSpaceOnUse" x1="49.731" x2="49.731" y1="-45.4627" y2="-19.7071">
      <stop offset="0" stop-color="#0068B5"/>
      <stop offset="1" stop-color="#5E97F6"/>
    </linearGradient>
    <radialGradient id="SVGID_1_" cx="64.592" cy="167.243326" gradientTransform="matrix(1 0 0 0.4912 0 0)" gradientUnits="userSpaceOnUse" r="23.419">
      <stop offset="0.7275" stop-color="#444140" stop-opacity="0"/>
      <stop offset="1" stop-color="#444140"/>
    </radialGradient>
    <radialGradient id="SVGID_2_" cx="-46.061023" cy="-146.131438" gradientTransform="matrix(-0.9057 0.4238 -0.3144 -0.6719 0 0)" gradientUnits="userSpaceOnUse" r="6.9209">
      <stop offset="0.6628" stop-color="#444140"/>
      <stop offset="1" stop-color="#444140" stop-opacity="0"/>
    </radialGradient>
    <radialGradient id="SVGID_3_" cx="-63.687434" cy="78.298343" gradientTransform="matrix(-0.0746 -0.9972 0.8311 -0.0622 0 0)" gradientUnits="userSpaceOnUse" r="31.1476">
      <stop offset="0.7247" stop-color="#444140" stop-opacity="0"/>
      <stop offset="1" stop-color="#444140"/>
    </radialGradient>
    <radialGradient id="SVGID_4_" cx="-56.03842" cy="-41.464365" gradientTransform="matrix(0.0746 -0.9972 -0.8311 -0.0622 0 0)" gradientUnits="userSpaceOnUse" r="31.4531">
      <stop offset="0.7247" stop-color="#444140" stop-opacity="0"/>
      <stop offset="1" stop-color="#444140"/>
    </radialGradient>
    <radialGradient id="SVGID_5_" cx="-35.4483" cy="167.243326" gradientTransform="matrix(-1 0 0 0.4912 0 0)" gradientUnits="userSpaceOnUse" r="23.419">
      <stop offset="0.7275" stop-color="#444140" stop-opacity="0"/>
      <stop offset="1" stop-color="#444140"/>
    </radialGradient>
    <radialGradient id="SVGID_6_" cx="44.558733" cy="-88.975241" gradientTransform="matrix(0.9057 0.4238 0.3144 -0.6719 0 0)" gradientUnits="userSpaceOnUse" r="6.9209">
      <stop offset="0.6628" stop-color="#444140"/>
      <stop offset="1" stop-color="#444140" stop-opacity="0"/>
    </radialGradient>
    <linearGradient id="SVGID_7_" gradientTransform="matrix(1 0 0 -1 0 0)" gradientUnits="userSpaceOnUse" x1="50.009" x2="50.009" y1="-95.7429" y2="-131.1703">
      <stop offset="3.200000e-03" stop-color="#303F9F"/>
      <stop offset="0.4718" stop-color="#273492"/>
      <stop offset="1" stop-color="#1A237E"/>
    </linearGradient>
    <linearGradient id="SVGID_8_" gradientTransform="matrix(1 0 0 -1 0 0)" gradientUnits="userSpaceOnUse" x1="107.724" x2="107.724" y1="-107.073" y2="-124">
      <stop offset="3.200000e-03" stop-color="#303F9F"/>
      <stop offset="0.4718" stop-color="#273492"/>
      <stop offset="1" stop-color="#1A237E"/>
    </linearGradient>
    <linearGradient id="SVGID_9_" gradientTransform="matrix(1 0 0 -1 0 0)" gradientUnits="userSpaceOnUse" x1="30.6456" x2="41.2503" y1="-99.2905" y2="-125.244">
      <stop offset="0" stop-color="#5C6BC0"/>
      <stop offset="1" stop-color="#3949AB"/>
    </linearGradient>
    <linearGradient id="SVGID_10_" gradientTransform="matrix(1 0 0 -1 0 0)" gradientUnits="userSpaceOnUse" x1="69.0253" x2="61.2113" y1="-98.0674" y2="-125.2766">
      <stop offset="0" stop-color="#5C6BC0"/>
      <stop offset="1" stop-color="#3949AB"/>
    </linearGradient>
    <linearGradient id="SVGID_12_" gradientTransform="matrix(1 0 0 -1 0 0)" gradientUnits="userSpaceOnUse" x1="86.7166" x2="111.8999" y1="-107.4959" y2="-107.4959">
      <stop offset="0" stop-color="#5C4037"/>
      <stop offset="0.5" stop-color="#70534A"/>
    </linearGradient>
  </defs>
  <path id="hair_3_" d="M84.91,79.85 C83.66,77.58 85.25,75.27 87.97,72.41 C92.28,67.87 96.02,54.76 87.49,45.86 C87.52,45.8 86.63,44 86.66,43.94 L84.87,43.85 C84.3,43.77 69.73,44.52 50.03,44.52 C30.33,44.52 13.67,44.36 13.09,44.44 C13.09,44.44 12.3,45.48 12.33,45.54 C4.75,53.21 4.03,64.87 12.07,72.4 C14.95,75.09 16.37,77.57 15.13,79.84 C13.92,82.05 10.32,82.37 10.32,82.37 C10.32,82.37 11.15,84.63 13.15,85.85 C15,86.98 17.28,87.24 18.85,87.28 C18.85,87.28 25,95.79 41.08,95.79 L50.03,95.79 L58.98,95.79 C75.06,95.79 81.21,87.28 81.21,87.28 C82.78,87.24 85.06,86.98 86.91,85.85 C88.91,84.63 89.74,82.37 89.74,82.37 C89.74,82.37 86.12,82.06 84.91,79.85 Z" fill="#232020"/>
  <path d="M50,95.79 L50,86.35 L78.57,84.09 L81.17,87.29 C81.17,87.29 75.02,95.8 58.94,95.8 L50,95.79 Z" fill="url(#SVGID_1_)"/>
  <path d="M81.11,83.16 C76.83,76.66 86.32,74.23 86.32,74.23 C86.32,74.23 86.33,74.24 86.33,74.24 C84.68,76.29 83.93,78.08 84.9,79.85 C86.11,82.06 89.71,82.38 89.71,82.38 C89.71,82.38 84.8,86.74 81.11,83.16 Z" fill="url(#SVGID_2_)"/>
  <path d="M87.5,45.85 C94.7,53.45 93.73,64.7 88.22,72.15 C87.72,72.83 85.21,75.16 84.65,77.07 C84.65,77.07 75.11,63.76 72.26,55.94 C71.69,54.36 71.16,52.74 71.09,51.06 C71.04,49.8 71.23,48.3 71.96,47.23 C72.85,45.93 87,44.75 87,44.75 C86.99,44.76 87.5,45.85 87.5,45.85 Z" fill="url(#SVGID_3_)"/>
  <path d="M12.31,45.54 C4.38,53.71 4.47,65.31 11.82,72.15 C12.44,72.72 14.83,75.16 15.39,77.07 C15.39,77.07 24.93,63.76 27.78,55.94 C28.36,54.36 28.88,52.74 28.95,51.06 C29,49.8 28.81,48.3 28.08,47.23 C27.19,45.92 26.15,46.27 24.64,46.27 C21.76,46.27 14.05,44.43 13.07,44.43 C13.08,44.45 12.31,45.54 12.31,45.54 Z" fill="url(#SVGID_4_)"/>
  <path d="M50.04,95.79 L50.04,86.35 L21.47,84.09 L18.87,87.29 C18.87,87.29 25.02,95.8 41.1,95.8 L50.04,95.79 Z" fill="url(#SVGID_5_)"/>
  <path d="M18.93,83.16 C23.21,76.66 13.72,74.23 13.72,74.23 C13.72,74.23 13.71,74.24 13.71,74.24 C15.36,76.29 16.11,78.08 15.14,79.85 C13.93,82.06 10.33,82.38 10.33,82.38 C10.33,82.38 15.24,86.74 18.93,83.16 Z" fill="url(#SVGID_6_)"/>
  <path d="M50.01,95.74 C27.46,95.77 4.01,103.02 4.01,120.8 L4.01,124 L96.01,124 L96.01,120.8 C96.01,104.02 72.7,95.71 50.01,95.74 Z" fill="url(#SVGID_7_)"/>
  <path d="M113.75,120.8 C113.75,115.52 110.89,110.91 105.23,107.07 L101.7,124 L113.75,124 L113.75,120.8 Z" fill="url(#SVGID_8_)"/>
  <path d="M106.22,109.67 C110.22,112.92 112.25,116.64 112.25,120.8 L112.25,124 L115.25,124 L115.25,120.8 C115.25,114.04 110.98,108.66 104.21,104.65 L100.17,124 L103.24,124 L106.22,109.67 Z" fill="#1B2B8F"/>
  <path d="M50.01,92.37 L40.93,92.37 L40.93,102.35 C40.93,106.86 44.63,110.52 49.19,110.52 L50.84,110.52 C55.4,110.52 59.1,106.86 59.1,102.35 L59.1,92.37 L50.01,92.37 Z" fill="#3C2B24"/>
  <path d="M77.33,50.48 L22.67,50.48 C16.78,50.48 11.96,55.61 11.96,61.89 C11.96,68.17 16.78,73.3 22.67,73.3 L77.32,73.3 C83.21,73.3 88.03,68.16 88.03,61.89 C88.03,55.62 83.22,50.48 77.33,50.48 Z" fill="#3C2B24"/>
  <path d="M50,11.11 L50,11.11 L50,11.11 C32.6,11.11 16.48,29.72 16.48,56.51 C16.48,83.15 33.09,96.32 50,96.32 C66.91,96.32 83.52,83.15 83.52,56.51 C83.52,29.72 67.4,11.11 50,11.11 Z" fill="#70534A"/>
  <path id="mouth" d="M58.32,76.14 C55.17,78.01 44.85,78.01 41.71,76.14 C39.9,75.07 38.06,76.71 38.81,78.35 C39.55,79.96 45.18,83.71 50.04,83.71 C54.9,83.71 60.46,79.96 61.2,78.35 C61.95,76.71 60.12,75.06 58.32,76.14 Z" fill="#1A1717"/>
  <path id="nose" d="M53.81,68.06 C53.71,68.02 53.6,67.99 53.49,67.98 L46.5,67.98 C46.39,67.99 46.29,68.02 46.18,68.06 C45.55,68.32 45.2,68.97 45.5,69.67 C45.8,70.37 47.19,72.33 49.99,72.33 C52.79,72.33 54.18,70.37 54.48,69.67 C54.79,68.97 54.45,68.31 53.81,68.06 Z" fill="#33251F"/>
  <path d="M38.49,58.81 A4.93 5.1 0 1 1 28.63,58.81 A4.93 5.1 0 1 1 38.49,58.81 Z" fill="#1A1717"/>
  <path d="M71.37,58.81 A4.93 5.1 0 1 1 61.51,58.81 A4.93 5.1 0 1 1 71.37,58.81 Z" fill="#1A1717"/>
  <path d="M40.99,49.82 C40.06,48.59 37.92,46.81 33.76,46.81 C29.6,46.81 27.45,48.6 26.53,49.82 C26.12,50.36 26.22,50.99 26.51,51.37 C26.77,51.72 27.55,52.05 28.41,51.76 C29.27,51.47 30.95,50.6 33.76,50.58 C36.57,50.6 38.25,51.47 39.11,51.76 C39.97,52.05 40.75,51.73 41.01,51.37 C41.29,50.99 41.39,50.36 40.99,49.82 Z" fill="#1A1717"/>
  <path d="M73.48,49.82 C72.55,48.59 70.41,46.81 66.25,46.81 C62.09,46.81 59.94,48.6 59.02,49.82 C58.61,50.36 58.71,50.99 59,51.37 C59.26,51.72 60.04,52.05 60.9,51.76 C61.76,51.47 63.44,50.6 66.25,50.58 C69.06,50.6 70.74,51.47 71.6,51.76 C72.46,52.05 73.24,51.73 73.5,51.37 C73.79,50.99 73.89,50.36 73.48,49.82 Z" fill="#1A1717"/>
  <path id="undershirt" d="M59.31,104.56 L39.42,104.56 L47.31,124 L52.36,124 Z" fill="#F5F5F5"/>
  <path d="M40.89,95.97 L33.11,96.88 L25.11,114.12 L35.98,109.83 L45.54,124 L46.74,124 L47.22,124 L48.26,124 Z" fill="url(#SVGID_9_)"/>
  <path d="M66.91,96.88 L59.13,95.97 L51.76,124 L52.79,124 L53.54,124 L54.77,124 L64.82,110 L74.91,114.12 Z" fill="url(#SVGID_10_)"/>
  <path d="M121.82,56.74 C121.48,56.14 120.9,55.86 120.33,55.86 C119.57,55.86 118.83,56.35 118.66,57.24 L117.2,65.14 C117.1,65.67 116.76,66.13 116.27,66.36 L108.19,70.23 C107.96,70.34 107.71,70.4 107.46,70.4 C107,70.4 106.56,70.22 106.23,69.87 L100.07,63.37 C99.7,62.98 99.54,62.43 99.63,61.9 L101.09,54 C101.3,52.86 100.4,52 99.41,52 C99.04,52 98.66,52.12 98.32,52.4 C95.37,54.85 93.2,58.37 92.43,62.52 C91.34,68.42 93.34,74.13 97.25,77.85 C99.01,79.53 99.85,81.95 99.41,84.34 L92.1,124 L93.12,124 L94.14,124 L100.38,124 L101.4,124 L102.42,124 L109.41,86.18 C109.85,83.79 111.5,81.83 113.74,80.89 C118.72,78.81 122.63,74.2 123.72,68.29 C124.47,64.15 123.71,60.08 121.82,56.74 Z" fill="url(#SVGID_11_)"/>
  <path d="M94.51,117.35 L92.61,119.5 C92.61,119.5 86.93,118.29 87.6,115 C87.76,114.22 89.16,112.56 89.16,112.56 C89.16,112.56 86.31,110.21 86.76,108.62 C87.21,107.05 89.93,105.83 89.93,105.83 C89.93,105.83 87.82,104.57 88.65,102.2 C89.22,100.58 92.18,100.04 92.18,100.04 C92.18,100.04 89.42,95.99 95.03,95.07 C96.8,94.78 100.77,95.37 104.33,98 C107.89,100.63 109.52,102.21 111.16,105.67 C113.66,110.92 109.24,119.92 105.85,120 C103.02,120.06 94.51,117.35 94.51,117.35 Z" fill="url(#SVGID_12_)"/>
  <path id="hair" d="M13,44.81 C14.64,49.26 15.27,52.48 15.27,52.48 C14.81,60.49 16.3,65.42 17.09,67.42 C17.23,67.77 17.72,67.74 17.81,67.38 C18.8,63.41 22.17,49.58 21.84,47.17 C21.84,47.17 33.18,44.92 44.01,36.95 C46.21,35.33 48.6,33.95 51.14,32.94 C64.73,27.53 67.57,36.76 67.57,36.76 C67.57,36.76 76.99,34.95 79.83,48.03 C80.9,52.93 81.62,60.78 82.23,66.27 C82.27,66.66 82.8,66.74 82.95,66.38 C83.9,64.2 85.8,59.88 86.25,55.47 C86.41,53.92 87.15,51.71 86.98,44.81 C86.88,40.7 68.36,23.83 49.99,24.06 C30.88,24.3 11.89,41.79 13,44.81 Z" fill="#232020"/>
  <path d="M49.73,4.59 C67.67,4.59 84.14,16.25 87,44.81 C87,44.81 77.25,36.79 50.23,36.79 C20.98,36.79 12.9,45.32 13,44.39 C16.12,15.87 32.59,4.59 50.23,4.59 L49.73,4.59 Z" fill="url(#SVGID_13_)"/>
  <path d="M26.93,34.45 C26.93,15.71 35.9,5.64 49.73,5.64 C63.56,5.64 72.53,16.11 72.53,34.45 C72.53,49.35 61.75,37.62 49.73,37.62 C37.71,37.62 26.93,49.36 26.93,34.45 Z" fill="url(#SVGID_14_)"/>
  <path d="M50.09,28.49 C28.32,28.49 17.88,40.38 17.88,40.38 C17.86,42.35 20.08,45.9 25.13,46.71 C32.08,47.83 36.57,42.21 49.98,42.21 C50.01,42.21 50.03,42.21 50.05,42.21 L50.05,42.18 L50.09,42.21 C50.12,42.21 50.14,42.21 50.16,42.21 C63.57,42.21 68.05,47.82 75.01,46.71 C80.06,45.9 81.9,42.86 81.88,40.9 C81.87,40.89 72.12,28.49 50.09,28.49 Z" fill="#5E97F6"/>
</svg>