<svg viewBox="0 0 128 128" xmlns="http://www.w3.org/2000/svg">
  <defs/>
  <path d="M43.86,11.94 C43.86,11.94 57.2,5.25 64,5.25 C70.8,5.25 84.14,11.94 84.14,11.94 L84.14,115.46 C84.14,115.46 76.27,112.24 64,112.24 C51.73,112.24 43.86,115.46 43.86,115.46 L43.86,11.94 Z" fill="#E64A19"/>
  <path d="M57.92,56.45 C57.92,48.78 54.59,43.79 53.2,40.54 C50.94,35.23 49.98,29.73 49.79,24.16 C49.61,18.77 51.94,10.78 55.02,6.3 C46.63,9.85 25.68,20.6 25.47,20.86 C25.47,20.86 26.08,39.86 23.79,48.7 C20.12,62.88 12.2,68.86 12.2,68.86 L12.2,117.26 C18.91,119.48 37.16,121.61 48.46,122.78 C50.5,122.99 54.93,122.24 56.51,120.94 C58.18,119.57 59.22,117.17 59.25,115.01 C59.48,95.59 57.92,64.13 57.92,56.45 Z" fill="#FF9100"/>
  <path d="M12.23,105.94 C26.1,110.11 53.32,111.83 59.18,110.8 L58.99,102.68 C53.13,102.66 26.25,102.25 12.22,97.4 L12.23,105.94 Z" fill="#FFFF00"/>
  <path d="M58.99,84.36 C58.99,84.36 51.82,84.71 41.18,83.65 L42.49,12.19 C39.28,13.67 34.16,16.35 34.16,16.35 L33.17,82.94 C25.7,82.14 17.81,80.89 12.22,78.96 L12.22,87.5 C26.09,91.67 53.33,94.01 59.18,92.98 L58.99,84.36 Z" fill="#FFFF00"/>
  <path d="M11.63,68.91 C11.55,67.72 11.58,67.25 12,66.78 C12.36,66.37 12.77,65.88 13.11,65.45 C14.09,64.23 15.04,62.99 15.94,61.71 C18.02,58.77 20,55.61 21.17,52.18 C23.41,45.58 24.32,38.58 24.54,31.62 C24.71,26.42 24.09,21.58 24.09,21.58 C24.09,21.58 23.88,21.14 25.12,20.49 C26.36,19.84 26.88,20.09 26.88,20.09 C27.2,21.95 27.46,25.27 27.54,26.99 C28.32,42.37 24.92,50.57 24.04,53.16 C21.38,60.99 13.95,69.65 12.24,70.41 C12.26,70.4 11.72,70.1 11.63,68.91 Z" fill="#616161"/>
  <path d="M70.08,56.45 C70.08,48.78 73.41,43.79 74.8,40.54 C77.06,35.23 78.02,29.73 78.21,24.16 C78.39,18.77 76.06,10.78 72.98,6.3 C81.37,9.85 102.32,20.6 102.53,20.86 C102.53,20.86 101.92,39.86 104.21,48.7 C107.88,62.88 115.8,68.86 115.8,68.86 L115.75,116.96 C102.91,120.28 90.43,122.46 79.69,122.75 C77.64,122.8 73.64,122.98 71.48,120.94 C68.96,118.56 68.85,117.62 68.83,115.46 C68.61,96.04 70.08,64.13 70.08,56.45 Z" fill="#FF9100"/>
  <path d="M115.73,105.94 C101.86,110.11 74.68,111.83 68.83,110.8 L69.02,102.68 C74.88,102.66 101.72,102.25 115.75,97.4 L115.73,105.94 Z" fill="#FFFF00"/>
  <path d="M94.84,82.94 L93.85,16.35 C93.85,16.35 88.73,13.67 85.52,12.19 L86.83,83.65 C78.43,84.75 69.02,84.87 69.02,84.87 L68.83,92.99 C74.2,93.64 101.88,91.68 115.75,87.51 L115.75,78.97 C110.15,80.89 102.31,82.14 94.84,82.94 Z" fill="#FFFF00"/>
  <path d="M116.37,68.91 C116.45,67.72 116.42,67.25 116,66.78 C115.64,66.37 115.23,65.88 114.89,65.45 C113.91,64.23 112.96,62.99 112.06,61.71 C109.98,58.77 108,55.61 106.83,52.18 C104.59,45.58 103.68,38.58 103.46,31.62 C103.29,26.42 103.91,21.58 103.91,21.58 C103.91,21.58 104.12,21.14 102.88,20.49 C101.64,19.84 101.12,20.09 101.12,20.09 C100.8,21.95 100.54,25.27 100.46,26.99 C99.68,42.37 103.08,50.57 103.96,53.16 C106.62,60.99 114.05,69.65 115.76,70.41 C115.74,70.4 116.28,70.1 116.37,68.91 Z" fill="#616161"/>
  <path d="M115.75,114.94 C115.39,115.1 114.32,115.34 113.81,115.42 C112.34,115.64 95.48,119.56 79.32,120.73 C77.7,120.8 74.54,120.88 72,118.98 C70.93,118.18 70.51,116.37 70.52,115.42 C70.59,109.14 71.79,59.52 71.81,59.01 C71.81,59 72.26,52.04 73.94,46.91 C76.66,38.58 79.92,27.14 79.98,19.95 C80.02,14.72 78.69,10.71 76.04,8.04 C73.35,5.33 68.14,4 64,4 C59.86,4 54.65,5.33 51.97,8.03 C49.31,10.71 47.99,14.72 48.03,19.94 C48.09,27.13 51.34,38.57 54.07,46.9 C55.75,52.03 56.19,58.99 56.2,59 C56.21,59.51 57.42,109.13 57.49,115.41 C57.5,116.35 57.08,118.16 56.01,118.97 C53.48,120.88 50.31,120.8 48.69,120.72 C32.52,119.55 15.69,116.14 14.2,115.72 C13.7,115.58 12.62,115.41 12.26,115.24 C12.26,115.24 11.98,115.21 12.04,116.53 C12.07,117.32 12.14,117.78 12.35,118.04 C12.65,118.42 13.17,118.48 13.95,118.76 C15.68,119.37 22.38,120.33 31.04,121.87 C36.5,122.84 44.72,123.91 47.64,123.96 C51.5,124.03 55.35,124.29 58.59,121.2 C60.01,119.85 60.55,118.18 60.53,116.42 C60.46,110.12 59.26,59.45 59.24,58.88 C59.22,58.58 58.77,51.47 56.97,45.96 C53.16,34.31 51.12,25.3 51.08,19.92 C51.05,15.53 52.07,12.25 54.14,10.17 C56.13,8.16 59.54,7.14 64.01,7.06 C68.48,7.14 71.88,8.16 73.88,10.17 C75.95,12.25 76.97,15.53 76.94,19.92 C76.9,25.3 74.86,34.31 71.05,45.96 C69.25,51.47 68.8,58.58 68.78,58.88 C68.77,59.45 67.56,110.12 67.49,116.42 C67.47,118.19 68.01,119.86 69.43,121.2 C72.68,124.29 76.52,124.03 80.38,123.96 C83.3,123.91 91.52,122.84 96.98,121.87 C105.64,120.34 112.33,119.04 114.07,118.48 C114.97,118.19 115.37,118.14 115.67,117.76 C115.87,117.5 115.94,117.04 115.98,116.25 C116.03,114.94 115.75,114.94 115.75,114.94 Z" fill="#616161"/>
</svg>