<svg viewBox="0 0 128 128" xmlns="http://www.w3.org/2000/svg">
  <defs/>
  <path d="M57.64,20.92 L28.19,26.29 C28.19,26.29 28.54,55.41 28.23,69.06 C27.92,82.71 27.81,102.06 28.03,104.51 C28.22,106.64 34.78,113.41 34.78,113.41 L56.87,121.39 L78.34,120.62 L97.05,111.88 C97.05,111.88 99.84,108.13 100.37,106.86 C100.78,105.89 100.4,78.73 100.4,65.8 C100.4,54.91 100.95,25.34 100.95,25.34 L57.64,20.92 Z" fill="#FEB502"/>
  <path d="M28.3,109.44 C28.64,110.92 40.51,124.29 64.48,124.29 C88.45,124.29 99.94,112.56 100.16,111.35 C100.38,110.14 100.42,106.69 100.42,106.69 C100.42,106.69 88.78,119.34 64.81,119.45 C40.5,119.56 28.01,104.37 28.01,104.37 C28.01,104.37 27.96,107.96 28.3,109.44 Z" fill="#B0B0B0"/>
  <path d="M38.42,10.35 L28.15,18.05 C28.15,18.05 27.85,21.34 27.86,22.89 C27.88,25.19 28.19,26.3 28.19,26.3 C28.19,26.3 35.09,37.5 64.87,38.3 C91.78,39.02 100.89,28.84 100.89,28.84 C100.89,28.84 102.04,26.43 102.29,24.69 C102.71,21.82 102.21,19.38 102.21,19.38 L38.42,10.35 Z" fill="#E0E0E0"/>
  <path d="M65.37,3.86 C47.56,3.21 28.19,9.25 28.08,18.7 C27.97,28.49 52.61,34.23 64.81,34.32 C79.96,34.43 101.98,29.04 102.31,20.24 C102.65,11.45 84.85,4.57 65.37,3.86 Z" fill="#B0B0B0"/>
  <path d="M65.37,16.72 C65.37,16.72 36.56,22.22 34.91,20.79 C33.26,19.36 31.94,18.15 35.68,14.85 C39.42,11.55 49.74,7.11 66.25,7.81 C83.57,8.55 96.47,14.42 97.3,19.08 C97.45,19.9 97.22,21.4 96.28,21.92 C96.07,22.04 90.81,24.58 90.81,24.58 C90.81,24.58 64.6,16.61 65.37,16.72 Z" fill="#858585"/>
  <path d="M83.18,13.23 C72.01,10.07 53.74,9.25 44.06,13.54 C34.38,17.83 34.98,20.84 34.98,20.84 C34.98,20.84 43.3,28.68 65.04,28.94 C88.25,29.22 96.27,21.9 96.27,21.9 C96.27,21.9 95.61,16.75 83.18,13.23 Z" fill="#E0E0E0"/>
  <path d="M40.62,46.75 C39.91,47.1 39.85,48.4 39.74,50.05 C39.63,51.7 39.3,99.21 39.52,99.65 C39.74,100.09 47.33,108.23 64.6,107.9 C81.21,107.58 89.34,101.69 89.34,101.69 C89.34,101.69 89.56,71.7 89.67,64.66 C89.78,57.62 90.58,49.37 89.67,48.54 C88.16,47.16 81.09,49.05 64.71,48.83 C48.33,48.61 41.94,46.09 40.62,46.75 Z" fill="#719921"/>
  <path d="M44.14,51.92 C43.36,53.08 43.67,74.48 43.67,78.77 C43.67,83.06 43.63,96.65 43.63,96.65 C43.63,96.65 50.32,102.97 63.49,102.95 C76.85,102.93 85.12,98.55 85.12,98.55 C85.12,98.55 85.49,80.4 85.6,72.27 C85.71,64.14 85.92,54.49 85.94,53 C85.96,51.75 73.44,53.77 63.55,53.33 C51.02,52.79 44.8,50.93 44.14,51.92 Z" fill="#E5DDA0"/>
  <path d="M50.17,59.93 C49.5,60.26 49.1,60.61 48.97,61.77 C48.8,63.27 49.46,64.21 50.21,64.63 C50.96,65.05 57.01,65.36 64.6,65.4 C72.55,65.45 79.31,65.21 79.31,65.21 C79.31,65.21 80.14,64.29 80.14,62.63 C80.14,61.29 79.76,60.69 79.31,60.38 C78.85,60.07 69.99,60.48 64.24,60.44 C57.75,60.39 50.83,59.6 50.17,59.93 Z" fill="#749B22"/>
  <path d="M50.26,82.35 C50.26,90.36 55.43,96.61 64.93,96.52 C74.43,96.43 78.46,87.78 78.19,82.76 C77.86,76.59 74.35,69.34 64.35,69.34 C54.35,69.34 50.26,76.52 50.26,82.35 Z" fill="#FF5119"/>
</svg>