<svg viewBox="0 0 128 128" xmlns="http://www.w3.org/2000/svg">
  <defs>
    <linearGradient id="a" gradientTransform="matrix(-1 0 0 1 0 0)" gradientUnits="userSpaceOnUse" x1="-63.912" x2="-63.912" y1="13.424" y2="120.54">
      <stop offset="0" stop-color="#EDC391"/>
      <stop offset=".1396" stop-color="#F1CB9E"/>
      <stop offset=".3958" stop-color="#F5D5AF"/>
      <stop offset=".6718" stop-color="#F8DBBA"/>
      <stop offset="1" stop-color="#F9DDBD"/>
    </linearGradient>
  </defs>
  <path d="M83.59,121.86 C79.85,121.86 76.55,121.22 73.77,119.97 C70.28,118.39 66.18,116.09 62.21,113.87 C54.81,109.73 47.16,105.44 41.95,104.86 C40.1,104.66 37.61,104.59 34.74,104.52 C26.21,104.3 13.31,103.98 9.42,99.09 C3.17,91.23 4.35,84.21 8.72,74.01 C14.26,61.09 14.38,52.73 14.11,39.06 C13.95,30.88 13.42,21.72 13.01,15.48 C12.93,14.2 13.36,12.99 14.23,12.05 C15.11,11.11 16.29,10.6 17.58,10.6 L46.86,10.61 C48.1,10.61 49.26,11.1 50.13,11.98 C51,12.86 51.46,14.03 51.44,15.26 C51.18,29.66 51.33,54.79 55.22,61.38 C60.44,70.22 69.01,79.1 73.96,82.27 C76.3,83.77 78.41,85.82 80.45,87.82 C81.25,88.61 82.06,89.39 82.87,90.13 C86.09,93.1 89.3,95.02 93.95,96.76 C94.37,96.92 94.77,97.07 95.17,97.23 C97.2,98.02 99.11,98.77 101.47,98.97 C101.94,99.01 102.56,99.03 103.4,99.03 C104.15,99.03 105,99.01 105.87,99 C106.76,98.98 107.67,98.97 108.51,98.97 C109.75,98.97 110.61,99.01 111.13,99.09 C112.8,99.34 114.27,100.12 115.57,100.81 C116.9,101.51 118.04,102.12 119.25,102.12 C119.77,102.12 120.27,102 120.71,101.77 C120.82,101.8 121.11,101.9 121.62,102.27 C122.57,102.96 123.07,105.06 122.5,105.94 L122.11,106.55 C121.54,107.44 121.16,108.45 120.99,109.57 C120.77,111 120.12,112.92 118.28,113.96 C117.62,114.33 117.01,114.81 116.49,115.38 C115.91,116 114.88,116.8 113.2,117.07 C112.4,117.2 111.66,117.44 111.01,117.78 C110.24,118.17 109.01,118.69 107.5,118.89 C106.19,119.07 104.93,119.59 103.84,120.41 C102.99,121.05 101.67,121.82 100.17,121.82 C99.94,121.82 99.7,121.8 99.47,121.76 C98.43,121.59 97.83,121.39 97.51,121.25 C96.44,120.79 95.35,120.55 94.27,120.55 C93.72,120.55 93.17,120.61 92.65,120.74 C90.5,121.26 87.21,121.86 83.59,121.86 Z" fill="url(#a)"/>
  <path d="M17.58,12.11 L46.85,12.12 C47.68,12.12 48.47,12.45 49.05,13.04 C49.63,13.63 49.94,14.42 49.93,15.25 C49.61,33.03 50.04,55.59 53.92,62.16 C59.25,71.19 68.05,80.29 73.14,83.55 C75.35,84.96 77.31,86.88 79.4,88.91 C80.19,89.68 81.01,90.48 81.85,91.25 C85.23,94.36 88.58,96.37 93.42,98.18 C93.83,98.33 94.23,98.49 94.62,98.64 C96.66,99.43 98.77,100.25 101.33,100.48 C101.85,100.53 102.5,100.55 103.39,100.55 C104.15,100.55 105.01,100.53 105.89,100.52 C106.77,100.5 107.67,100.49 108.5,100.49 C109.65,100.49 110.45,100.52 110.9,100.59 C112.32,100.8 113.61,101.49 114.86,102.16 C116.3,102.92 117.66,103.65 119.24,103.65 C119.72,103.65 120.19,103.58 120.64,103.44 L120.73,103.5 C121.06,103.76 121.35,104.79 121.21,105.18 L120.84,105.76 C120.15,106.83 119.7,108.04 119.49,109.37 C119.32,110.47 118.85,111.94 117.53,112.68 C116.73,113.13 116,113.7 115.37,114.38 C114.95,114.83 114.19,115.4 112.94,115.61 C111.99,115.76 111.1,116.05 110.3,116.46 C109.76,116.74 108.65,117.23 107.28,117.42 C105.71,117.63 104.2,118.26 102.91,119.24 C102.25,119.74 101.23,120.34 100.15,120.34 C100,120.34 99.84,120.33 99.69,120.3 C98.75,120.15 98.28,119.98 98.08,119.9 C96.82,119.36 95.53,119.08 94.25,119.08 C93.58,119.08 92.92,119.16 92.28,119.31 C90.23,119.79 87.06,120.37 83.59,120.37 C80.06,120.37 76.97,119.78 74.39,118.61 C70.96,117.06 66.89,114.78 62.95,112.57 C55.07,108.16 47.63,103.99 42.12,103.38 C40.21,103.17 37.69,103.1 34.78,103.03 C27.03,102.83 14.05,102.5 10.6,98.16 C6.13,92.55 4.73,87.14 10.1,74.6 C15.76,61.4 15.88,52.91 15.61,39.03 C15.45,30.83 14.92,21.64 14.51,15.38 C14.45,14.52 14.75,13.7 15.33,13.08 C15.92,12.45 16.72,12.11 17.58,12.11 M17.58,9.11 C14.06,9.11 11.28,12.08 11.51,15.59 C11.91,21.61 12.45,30.87 12.61,39.1 C12.88,52.69 12.79,60.71 7.34,73.43 C1.89,86.14 2.59,92.94 8.24,100.03 C13.89,107.13 34.15,105.52 41.78,106.36 C49.41,107.2 63.23,116.85 73.14,121.34 C76.5,122.86 80.18,123.37 83.58,123.37 C87.32,123.37 90.72,122.76 92.96,122.23 C93.38,122.13 93.81,122.08 94.24,122.08 C95.14,122.08 96.04,122.29 96.89,122.65 C97.4,122.87 98.14,123.09 99.21,123.26 C99.53,123.31 99.84,123.34 100.15,123.34 C102.06,123.34 103.68,122.42 104.72,121.63 C105.58,120.97 106.6,120.54 107.67,120.4 C109.42,120.16 110.84,119.56 111.67,119.14 C112.22,118.86 112.81,118.68 113.42,118.58 C115.57,118.23 116.89,117.16 117.57,116.43 C117.99,115.98 118.47,115.6 119,115.3 C121.47,113.91 122.23,111.34 122.46,109.83 C122.59,108.97 122.88,108.13 123.36,107.4 L123.75,106.79 C124.81,105.16 124.03,102.21 122.5,101.09 C121.98,100.71 121.28,100.3 120.66,100.3 C120.46,100.3 120.26,100.34 120.08,100.45 C119.82,100.6 119.55,100.66 119.25,100.66 C117.44,100.66 114.91,98.18 111.36,97.64 C110.67,97.54 109.65,97.5 108.51,97.5 C106.85,97.5 104.92,97.57 103.4,97.57 C102.69,97.57 102.07,97.56 101.6,97.51 C99.01,97.28 96.9,96.29 94.48,95.39 C90.26,93.8 87.17,92.08 83.89,89.06 C80.95,86.35 78.16,83.21 74.77,81.04 C69.88,77.91 61.51,69.1 56.51,60.65 C52.7,54.19 52.71,27.54 52.93,15.32 C52.99,11.92 50.25,9.14 46.85,9.14 L17.58,9.11 Z" fill="#E6B77E"/>
  <path d="M119.572,109.586 Q118.883,108.767 117.861,108.863 Q116.468,108.991 115.242,107.411 Q114.4,106.325 113.412,106.146 Q111.936,105.877 112.204,104.402 Q112.473,102.926 113.948,103.194 Q116.066,103.579 117.612,105.572 Q117.755,105.756 117.841,105.858 Q120.253,105.736 121.868,107.654 Q122.834,108.802 121.686,109.768 Q120.538,110.734 119.572,109.586 Z" fill="#E6B77E"/>
  <path d="M116.305,114.876 Q114.967,112.586 113.383,112.354 Q112.563,112.234 112.228,111.477 Q110.71,108.043 106.4,107.224 Q104.926,106.943 105.206,105.47 Q105.487,103.996 106.96,104.276 Q112.387,105.309 114.635,109.568 Q117.117,110.318 118.895,113.364 Q119.652,114.659 118.356,115.415 Q117.061,116.172 116.305,114.876 Z" fill="#E6B77E"/>
  <path d="M110.85,116.984 Q110.858,116.294 110.028,115.519 Q109.138,114.689 108.229,114.615 Q107.348,114.544 106.984,113.739 Q105.538,110.549 99.429,109.121 Q97.968,108.779 98.309,107.319 Q98.651,105.858 100.111,106.199 Q107.033,107.817 109.337,111.767 Q110.795,112.132 112.075,113.326 Q113.872,115.003 113.85,117.016 Q113.834,118.516 112.334,118.5 Q111.584,118.492 111.213,118.113 Q110.842,117.734 110.85,116.984 Z" fill="#E6B77E"/>
  <path d="M103.681,119.273 Q103.705,118.645 102.983,118.134 Q102.729,117.957 102.222,117.655 Q101.533,117.243 101.132,116.949 Q100.338,116.374 99.904,115.418 Q99.782,115.148 99.69,114.988 Q98.536,113.002 93.238,112.606 Q91.742,112.494 91.854,110.998 Q91.966,109.502 93.462,109.614 Q100.337,110.128 102.29,113.492 Q102.454,113.777 102.636,114.178 Q102.742,114.411 102.908,114.531 Q103.193,114.74 103.76,115.078 Q104.358,115.436 104.716,115.686 Q106.764,117.135 106.679,119.387 Q106.622,120.886 105.123,120.829 Q103.624,120.772 103.681,119.273 Z" fill="#E6B77E"/>
  <path d="M25.206,69.658 Q22.23,73.179 22.827,77.735 Q23.426,82.302 27.191,84.942 Q28.419,85.803 27.558,87.031 Q27.128,87.645 26.605,87.737 Q26.083,87.829 25.469,87.398 Q20.623,84.001 19.853,78.125 Q19.083,72.255 22.914,67.722 Q23.399,67.149 23.927,67.105 Q24.456,67.06 25.028,67.544 Q26.174,68.513 25.206,69.658 Z" fill="#E6B77E"/>
</svg>