<svg viewBox="0 0 128 128" xmlns="http://www.w3.org/2000/svg" xmlns:xlink="http://www.w3.org/1999/xlink">
  <g id="Layer_4">
    <g>
      <g>
        <linearGradient id="SVGID_1_" gradientUnits="userSpaceOnUse" x1="68.8745" x2="68.8745" y1="90.3885" y2="82.943">
          <stop offset="0" style="stop-color:#141111"/>
          <stop offset="1" style="stop-color:#4E4545"/>
        </linearGradient>
        <path d="M51.12,90.16C49.93,90.1,49,89.12,49,87.94l0.29-3.36c0.17-1.35,1.16-2.14,2.72-2.14l28.57,0.58 l8.16,8.96L51.12,90.16z" fill="url(#SVGID_1_)"/>
        <path d="M52,82.94l28.36,0.58l7.2,7.91l-36.42-1.76c-0.91-0.04-1.62-0.78-1.64-1.69l0.28-3.32 C49.97,83.17,51.25,82.94,52,82.94 M52.01,81.94c-1.73,0-3.01,0.91-3.22,2.6l-0.29,3.4c0,1.45,1.14,2.65,2.6,2.72l38.84,1.88 l-9.12-10.02L52.01,81.94L52.01,81.94z" fill="#655C5A"/>
      </g>
      <g>
        <linearGradient id="SVGID_3_" gradientUnits="userSpaceOnUse" x1="89.6894" x2="81.9661" y1="75.4637" y2="75.4637">
          <stop offset="0" style="stop-color:#141111"/>
          <stop offset="1" style="stop-color:#4E4545"/>
        </linearGradient>
        <path d="M81.36,82.28l0.88-19.03c0-2.34,0.43-3.52,2.79-3.52h2.23c2,0,2.46,0.22,2.46,2.35L89.49,91.2 L81.36,82.28z" fill="url(#SVGID_3_)"/>
        <path d="M87.26,60.23c1.77,0,1.96,0.06,1.96,1.85L89,89.92l-7.13-7.82l0.87-18.87c0-2.38,0.47-3,2.29-3H87.26 M87.26,59.23h-2.23c-2.79,0-3.29,1.56-3.29,4l-0.89,19.24l9.12,10.02l0.24-30.4C90.22,59.62,89.47,59.23,87.26,59.23 L87.26,59.23z" fill="#655C5A"/>
      </g>
      <g>
        <linearGradient id="SVGID_4_" gradientUnits="userSpaceOnUse" x1="73.193" x2="73.193" y1="88.0823" y2="93.7002">
          <stop offset="0" style="stop-color:#141111"/>
          <stop offset="1" style="stop-color:#4E4545"/>
        </linearGradient>
        <path d="M59.73,90.1c-1.19-0.06-2.13-1.04-2.13-2.23l0.29-3.36c0.17-1.35,1.16-2.14,2.72-2.14l20.01,0.58 l8.15,8.95L59.73,90.1z" fill="url(#SVGID_4_)"/>
        <path d="M60.61,82.88l19.79,0.57l7.18,7.88L59.75,89.6c-0.91-0.04-1.62-0.78-1.64-1.69l0.28-3.32 C58.58,83.11,59.85,82.88,60.61,82.88 M60.62,81.88c-1.73,0-3.01,0.91-3.22,2.6l-0.29,3.4c0,1.45,1.14,2.65,2.6,2.72l30.28,1.88 l-9.12-10.02L60.62,81.88L60.62,81.88z" fill="#655C5A"/>
      </g>
      <g>
        <line fill="none" stroke="#F31612" stroke-linejoin="round" stroke-miterlimit="10" stroke-width="4" x1="77.72" x2="77.72" y1="99.55" y2="92.41"/>
        <g>
          <linearGradient id="SVGID_5_" gradientUnits="userSpaceOnUse" x1="39.8842" x2="23.5335" y1="116.576" y2="111.58">
            <stop offset="0" style="stop-color:#141111"/>
            <stop offset="0.2752" style="stop-color:#1F1B1B"/>
            <stop offset="0.7577" style="stop-color:#3C3535"/>
            <stop offset="1" style="stop-color:#4E4545"/>
          </linearGradient>
          <path d="M41.17,118.84c-0.18,0-0.36-0.03-0.53-0.08l-15.98-5.19c-0.44-0.14-0.79-0.44-1-0.85 s-0.24-0.87-0.1-1.31c0.23-0.71,0.89-1.19,1.63-1.19c0.18,0,0.36,0.03,0.53,0.08l15.98,5.19c0.9,0.29,1.39,1.26,1.1,2.16 C42.58,118.36,41.92,118.84,41.17,118.84z" fill="url(#SVGID_5_)"/>
          <path d="M25.19,110.72L25.19,110.72c0.13,0,0.25,0.02,0.38,0.06l15.98,5.19c0.31,0.1,0.56,0.32,0.71,0.6 c0.15,0.29,0.17,0.62,0.07,0.93c-0.16,0.5-0.63,0.84-1.16,0.84c-0.13,0-0.25-0.02-0.38-0.06l-15.98-5.19 c-0.64-0.21-0.99-0.89-0.78-1.53C24.2,111.05,24.66,110.72,25.19,110.72 M25.19,109.72c-0.93,0-1.8,0.6-2.11,1.53 c-0.38,1.16,0.26,2.41,1.42,2.79l15.98,5.19c0.23,0.07,0.46,0.11,0.69,0.11c0.93,0,1.8-0.6,2.11-1.53v0 c0.38-1.16-0.26-2.41-1.42-2.79l-15.98-5.19C25.65,109.75,25.42,109.72,25.19,109.72L25.19,109.72z" fill="#655C5A"/>
        </g>
        <g>
          <g>
            <radialGradient id="SVGID_6_" cx="43.0184" cy="117.5476" gradientTransform="matrix(1 0 0 1 4 0)" gradientUnits="userSpaceOnUse" r="7.3703">
              <stop offset="0.3413" style="stop-color:#AFB8B6"/>
              <stop offset="0.4527" style="stop-color:#A4AEAD"/>
              <stop offset="0.6486" style="stop-color:#869295"/>
              <stop offset="0.9042" style="stop-color:#57656F"/>
              <stop offset="1" style="stop-color:#43535F"/>
            </radialGradient>
            <path d="M46.8,123.44c-3.33,0-6.03-2.71-6.03-6.03s2.71-6.03,6.03-6.03c3.33,0,6.03,2.71,6.03,6.03 S50.12,123.44,46.8,123.44z" fill="url(#SVGID_6_)"/>
          </g>
          <path d="M46.8,111.88c3.05,0,5.53,2.48,5.53,5.53s-2.48,5.53-5.53,5.53s-5.53-2.48-5.53-5.53 S43.75,111.88,46.8,111.88 M46.8,110.88c-3.61,0-6.53,2.93-6.53,6.53s2.93,6.53,6.53,6.53c3.61,0,6.53-2.93,6.53-6.53 S50.4,110.88,46.8,110.88L46.8,110.88z" fill="#2F3B4B"/>
        </g>
        <line fill="none" stroke="#F31612" stroke-linecap="round" stroke-linejoin="round" stroke-miterlimit="10" stroke-width="3" x1="90.76" x2="89.98" y1="61.06" y2="92.48"/>
        <path d=" M88.96,93.06l-32.82-1.91c-8.36,0-12.02,3.02-15.15,12.83l-4.78,13.87" fill="none" stroke="#F31612" stroke-linecap="round" stroke-linejoin="round" stroke-miterlimit="10" stroke-width="3"/>
        <rect fill="none" height="7.14" stroke="#B80000" stroke-miterlimit="10" width="4" x="75.72" y="92.41"/>
        <path d=" M88.96,93.06l-32.82-1.91c-8.36,0-12.02,3.02-15.15,12.83l-4.78,13.87" fill="none" stroke="#F31612" stroke-linecap="round" stroke-linejoin="round" stroke-miterlimit="10" stroke-width="3"/>
        <path d=" M40.25,105.98c3.62,0,6.55,2.93,6.55,6.55v4.88" fill="none" stroke="#F31612" stroke-linecap="round" stroke-linejoin="round" stroke-miterlimit="10" stroke-width="3"/>
        <path d="M89.57,61.71l-0.26,29.73l-33.17-1.79 c-9.09,0-13.27,3.5-16.56,13.84l-0.57,1.64c-0.15,0.21-0.23,0.47-0.25,0.74l-3.96,11.49c-0.27,0.78,0.15,1.64,0.93,1.91 c0.16,0.06,0.33,0.08,0.49,0.08c0.62,0,1.2-0.39,1.42-1.01l3.7-10.73c2.26,0.5,3.96,2.51,3.96,4.92v4.88c0,0.83,0.67,1.5,1.5,1.5 s1.5-0.67,1.5-1.5v-4.88c0-3.72-2.54-6.85-5.98-7.77l0.11-0.33c2.91-9.14,5.99-11.78,13.63-11.79l32.82,1.91 c1.17,0,1.67-0.12,2.24-0.79c0.59-0.71,0.68-1.91,0.68-2.17l0.38-30.19c0-1.08-0.36-1.8-1.31-1.8 C90.11,59.62,89.57,60.01,89.57,61.71z" fill="none" stroke="#B80000" stroke-miterlimit="10"/>
        <radialGradient id="SVGID_7_" cx="60.7597" cy="71.314" gradientTransform="matrix(1 0 0 1 4 0)" gradientUnits="userSpaceOnUse" r="23.8681">
          <stop offset="0" style="stop-color:#FA6E6B"/>
          <stop offset="0.1965" style="stop-color:#F96360"/>
          <stop offset="0.542" style="stop-color:#F74643"/>
          <stop offset="0.9934" style="stop-color:#F31613"/>
          <stop offset="1" style="stop-color:#F31612"/>
        </radialGradient>
        <path d="M88.96,93.79c0,0,2.16,0.12,2.16-1.97s0.34-15.09,0.34-15.09c-3.17-2.91-32.45-12.37-40.07,15.72 l4.22-0.45l12.51,0.69c2.2-3.66,5.83-6.01,11.6-5.79C83.87,87.04,87.7,89.58,88.96,93.79z" fill="url(#SVGID_7_)"/>
        <g>
          <defs>
            <polygon id="SVGID_8_" points="51.96,93.01 52.33,91.68 65.34,91.98 67.19,91.17 67.81,93.85 89.55,94.58 88.96,93.27 90.76,88.34 90.7,87.47 89.57,84.88 90.84,76.77 91.93,77.37 91.78,73.57 78.18,70.35 60.56,74.16 52.06,81.98 50.33,93.29 "/>
          </defs>
          <clipPath id="SVGID_9_">
            <use overflow="visible" xlink:href="#SVGID_8_"/>
          </clipPath>
          <path clip-path="url(#SVGID_9_)" d="M90.95,92.44l0.82-15.62 c-1.8-1.63-11.11-6.09-20.95-3.57c-7.97,2.05-16.29,6.76-20.08,20.3l17.38-0.25c2.56-7.33,17.31-10.86,20.76,1.24 C89.11,95.36,90.3,91.85,90.95,92.44z" fill="none" stroke="#B80000" stroke-miterlimit="10"/>
        </g>
        <g>
          <path d="M46.77,119.07c-0.76,0-1.35-0.49-1.47-1.23l-0.32-3.32c-0.02-0.14,0.03-0.24,0.08-0.29 c0.09-0.1,0.23-0.16,0.38-0.16h2.54c0.15,0,0.28,0.06,0.37,0.16c0.05,0.05,0.1,0.14,0.09,0.26l-0.12,3.42 C48.31,118.5,47.55,119.07,46.77,119.07z" fill="#2F2829"/>
          <path d="M47.93,114.57l-0.12,3.35c0,0.24-0.5,0.65-1.04,0.65c-0.5,0-0.88-0.31-0.97-0.78l-0.32-3.22H47.93 M47.97,113.57h-2.54c-0.58,0-1.03,0.47-0.95,1l0.33,3.35c0.17,0.99,0.97,1.65,1.96,1.65h0c0.99,0,2.04-0.74,2.04-1.65 l0.12-3.39C48.98,114.02,48.54,113.57,47.97,113.57L47.97,113.57z" fill="#141111"/>
        </g>
        <g>
          <g>
            <g>
              <radialGradient id="SVGID_10_" cx="73.7218" cy="99.5502" gradientTransform="matrix(1 0 0 1 4 0)" gradientUnits="userSpaceOnUse" r="1.1064">
                <stop offset="0" style="stop-color:#6E7D85"/>
                <stop offset="0.6185" style="stop-color:#50606B"/>
                <stop offset="1" style="stop-color:#43535F"/>
              </radialGradient>
              <circle cx="77.72" cy="99.55" fill="url(#SVGID_10_)" r="1.11"/>
              <path d="M77.72,98.94c0.33,0,0.61,0.27,0.61,0.61s-0.27,0.61-0.61,0.61s-0.61-0.27-0.61-0.61 S77.39,98.94,77.72,98.94 M77.72,97.94c-0.89,0-1.61,0.72-1.61,1.61s0.72,1.61,1.61,1.61c0.89,0,1.61-0.72,1.61-1.61 S78.61,97.94,77.72,97.94L77.72,97.94z" fill="#8A9799"/>
            </g>
            <line fill="none" stroke="#8A9799" stroke-miterlimit="10" x1="77.72" x2="77.72" y1="78.84" y2="120.26"/>
            <line fill="none" stroke="#8A9799" stroke-miterlimit="10" x1="92.37" x2="63.08" y1="84.91" y2="114.19"/>
            <line fill="none" stroke="#8A9799" stroke-miterlimit="10" x1="92.37" x2="63.08" y1="114.19" y2="84.91"/>
            <line fill="none" stroke="#8A9799" stroke-miterlimit="10" x1="57.01" x2="98.43" y1="99.55" y2="99.55"/>
          </g>
          <g>
            <radialGradient id="SVGID_11_" cx="63.7633" cy="86.0006" gradientTransform="matrix(1 0 0 1 4 0)" gradientUnits="userSpaceOnUse" r="40.1444">
              <stop offset="0.0171" style="stop-color:#AFB8B6"/>
              <stop offset="0.1832" style="stop-color:#A4AEAD"/>
              <stop offset="0.4755" style="stop-color:#869295"/>
              <stop offset="0.8571" style="stop-color:#57656F"/>
              <stop offset="1" style="stop-color:#43535F"/>
            </radialGradient>
            <path d="M77.72,123.44c-13.17,0-23.89-10.72-23.89-23.89s10.72-23.89,23.89-23.89 c13.17,0,23.89,10.72,23.89,23.89S90.9,123.44,77.72,123.44z M77.72,79.31c-11.16,0-20.24,9.08-20.24,20.24 s9.08,20.24,20.24,20.24s20.24-9.08,20.24-20.24S88.88,79.31,77.72,79.31z" fill="url(#SVGID_11_)"/>
            <path d="M77.72,76.16c12.9,0,23.39,10.49,23.39,23.39s-10.49,23.39-23.39,23.39s-23.39-10.49-23.39-23.39 S64.82,76.16,77.72,76.16 M77.72,120.29c11.44,0,20.74-9.31,20.74-20.74s-9.31-20.74-20.74-20.74s-20.74,9.31-20.74,20.74 S66.28,120.29,77.72,120.29 M77.72,75.16c-13.47,0-24.39,10.92-24.39,24.39s10.92,24.39,24.39,24.39s24.39-10.92,24.39-24.39 S91.19,75.16,77.72,75.16L77.72,75.16z M77.72,119.29c-10.9,0-19.74-8.84-19.74-19.74c0-10.9,8.84-19.74,19.74-19.74 c10.9,0,19.74,8.84,19.74,19.74C97.47,110.45,88.63,119.29,77.72,119.29L77.72,119.29z" fill="#2F3B4B"/>
          </g>
          <circle cx="77.72" cy="99.55" fill="#2F2829" r="3.57" stroke="#141111" stroke-linecap="round" stroke-linejoin="round" stroke-miterlimit="10"/>
        </g>
        <g>
          <g>
            <g>
              <radialGradient id="SVGID_12_" cx="73.7218" cy="99.5502" gradientTransform="matrix(1 0 0 1 4 0)" gradientUnits="userSpaceOnUse" r="1.1064">
                <stop offset="0" style="stop-color:#6E7D85"/>
                <stop offset="0.6185" style="stop-color:#50606B"/>
                <stop offset="1" style="stop-color:#43535F"/>
              </radialGradient>
              <circle cx="77.72" cy="99.55" fill="url(#SVGID_12_)" r="1.11"/>
              <path d="M77.72,98.94c0.33,0,0.61,0.27,0.61,0.61s-0.27,0.61-0.61,0.61s-0.61-0.27-0.61-0.61 S77.39,98.94,77.72,98.94 M77.72,97.94c-0.89,0-1.61,0.72-1.61,1.61s0.72,1.61,1.61,1.61c0.89,0,1.61-0.72,1.61-1.61 S78.61,97.94,77.72,97.94L77.72,97.94z" fill="#8A9799"/>
            </g>
            <line fill="none" stroke="#8A9799" stroke-miterlimit="10" x1="77.72" x2="77.72" y1="78.84" y2="120.26"/>
            <line fill="none" stroke="#8A9799" stroke-miterlimit="10" x1="92.37" x2="63.08" y1="84.91" y2="114.19"/>
            <line fill="none" stroke="#8A9799" stroke-miterlimit="10" x1="92.37" x2="63.08" y1="114.19" y2="84.91"/>
            <line fill="none" stroke="#8A9799" stroke-miterlimit="10" x1="57.01" x2="98.43" y1="99.55" y2="99.55"/>
          </g>
          <g>
            <radialGradient id="SVGID_13_" cx="63.7633" cy="86.0006" gradientTransform="matrix(1 0 0 1 4 0)" gradientUnits="userSpaceOnUse" r="40.1444">
              <stop offset="0.0171" style="stop-color:#AFB8B6"/>
              <stop offset="0.1832" style="stop-color:#A4AEAD"/>
              <stop offset="0.4755" style="stop-color:#869295"/>
              <stop offset="0.8571" style="stop-color:#57656F"/>
              <stop offset="1" style="stop-color:#43535F"/>
            </radialGradient>
            <path d="M77.72,123.44c-13.17,0-23.89-10.72-23.89-23.89s10.72-23.89,23.89-23.89 c13.17,0,23.89,10.72,23.89,23.89S90.9,123.44,77.72,123.44z M77.72,79.31c-11.16,0-20.24,9.08-20.24,20.24 s9.08,20.24,20.24,20.24s20.24-9.08,20.24-20.24S88.88,79.31,77.72,79.31z" fill="url(#SVGID_13_)"/>
            <path d="M77.72,76.16c12.9,0,23.39,10.49,23.39,23.39s-10.49,23.39-23.39,23.39s-23.39-10.49-23.39-23.39 S64.82,76.16,77.72,76.16 M77.72,120.29c11.44,0,20.74-9.31,20.74-20.74s-9.31-20.74-20.74-20.74s-20.74,9.31-20.74,20.74 S66.28,120.29,77.72,120.29 M77.72,75.16c-13.47,0-24.39,10.92-24.39,24.39s10.92,24.39,24.39,24.39s24.39-10.92,24.39-24.39 S91.19,75.16,77.72,75.16L77.72,75.16z M77.72,119.29c-10.9,0-19.74-8.84-19.74-19.74c0-10.9,8.84-19.74,19.74-19.74 c10.9,0,19.74,8.84,19.74,19.74C97.47,110.45,88.63,119.29,77.72,119.29L77.72,119.29z" fill="#2F3B4B"/>
          </g>
          <circle cx="77.72" cy="99.55" fill="#2F2829" r="3.57" stroke="#655C5A" stroke-linecap="round" stroke-linejoin="round" stroke-miterlimit="10"/>
        </g>
        <path d="M77.72,82.82c9.22,0,16.73,7.5,16.73,16.73s-7.5,16.73-16.73,16.73s-16.73-7.5-16.73-16.73 S68.5,82.82,77.72,82.82 M77.72,81.82c-9.79,0-17.73,7.94-17.73,17.73s7.94,17.73,17.73,17.73s17.73-7.94,17.73-17.73 S87.51,81.82,77.72,81.82L77.72,81.82z" fill="#141111"/>
      </g>
    </g>
  </g>
</svg>