<svg viewBox="0 0 128 128" xmlns="http://www.w3.org/2000/svg">
  <defs/>
  <path d="M85.84,33.6 C85.84,33.6 76.4,37.53 76.66,38.97 C76.92,40.41 75.61,61 75.61,61 L77.05,64.41 C77.05,64.41 77.96,67.39 80.47,68.41 C83.38,69.59 85.24,67.8 85.24,67.8 L90.21,63.45 L97.77,63.82 L104.58,57.13 C104.58,57.13 108.69,57.35 111.08,53.63 C113.43,49.99 112.2,45.76 112.2,45.76 C112.2,45.76 91.03,30.44 90.53,31.19 C90.03,31.94 85.84,33.6 85.84,33.6 Z" fill="#96030D"/>
  <path d="M104.95,51.59 C104.14,52.43 90.23,54.02 90.23,54.02 L90.07,57.37 C90.07,57.37 91.94,59.32 94.54,59.4 C96.79,59.47 99.09,58.24 99.09,58.52 C99.09,58.8 97.69,61.51 95.26,61.87 C92.83,62.23 90.11,61.23 90.03,61.99 C89.95,62.75 89.67,64.78 89.67,64.78 C89.67,64.78 92.93,66.53 97.37,65.3 C101.56,64.14 103.59,61.43 104.43,58.92 C105.81,54.79 105.47,51.05 104.95,51.59 Z" fill="#F7153A"/>
  <path d="M83.53,50.39 C82.99,51.85 83.33,53.54 84.49,54.58 C85.63,55.6 87.28,56.26 87.28,56.61 C87.28,56.97 86.67,59.97 86.16,62.11 C85.4,65.34 83.41,66.74 83.77,67.97 C84.01,68.81 85.55,69.63 87.76,68.57 C89.83,67.57 91.27,66.14 91.71,61.23 C91.93,58.8 91.99,56.84 91.99,56.84 C91.99,56.84 95.14,57 99.05,55.96 C102.96,54.92 105.83,52.52 105.51,50.58 C105.17,48.52 101.11,49.5 97.61,50.42 C94.84,51.15 91.43,51.34 89.03,50.66 C86.63,49.98 84.37,48.12 83.53,50.39 Z" fill="#CC0B1E"/>
  <path d="M67.27,26.93 C67.27,26.93 67.48,30.93 68.18,34.98 C68.98,39.62 70.01,44.52 69.58,48.51 C69.05,53.37 67.63,60.68 71.65,63.98 C75.57,67.2 77.51,65.36 77.51,65.36 C77.51,65.36 77.18,61.96 78.3,59.98 C79.42,58 81.09,56.18 81.97,51.06 C82.92,45.55 81.4,42.21 81.83,41.67 C82.26,41.13 83.1,41.64 84.33,42.29 C85.56,42.93 91.32,46.49 95.98,47.59 C101.56,48.91 109.88,48.09 112.78,46.8 C116.05,45.35 116.74,42.07 115.11,39.3 C113.34,36.31 109.33,35.69 106.8,33.3 C105.03,31.63 99.28,26.55 95.85,22.42 C92.41,18.29 90.03,17.49 90.03,17.49 C90.03,17.49 75.38,13.52 73.87,16.36 C72.36,19.2 67.27,26.93 67.27,26.93 Z" fill="#CD0E1E"/>
  <path d="M69.8,13.98 C69.8,13.98 69.81,17.55 66.33,18.81 C63.88,19.69 61.23,19.08 60.82,19.42 C59.98,20.12 60.89,22.35 63.2,22.96 C64.8,23.38 66.94,23.1 66.94,23.1 C66.94,23.1 65.99,25.21 64.7,26.03 C63.41,26.85 61.71,27.23 61.84,27.8 C62.41,30.22 66.86,29.85 69.39,28.72 C75.04,26.2 75.7,22.69 75.7,22.69 C75.7,22.69 76.6,23.27 77.82,25.03 C79.04,26.8 82.21,32.22 83.4,30.78 C84.76,29.15 84.69,25.41 83.94,22.96 C83.18,20.49 82.44,19.22 82.44,19.22 C82.44,19.22 85.19,20.67 88.9,20.04 C93.43,19.27 95.97,15.48 94.34,12.69 C93.73,11.65 92.3,13.64 88.42,14.12 C87.07,14.29 84.87,13.37 84.87,13.37 C84.87,13.37 86.67,11.88 86.67,8.32 C86.67,5.59 84.21,3.25 82.22,3.61 C81.74,3.7 82.53,7.45 80.34,9.51 C79.18,10.6 77.18,10.98 74.32,10.17 C73.24,9.86 69.37,8.74 69.37,8.74 C69.37,8.74 69.54,11.45 69.8,13.98 Z" fill="#738136"/>
  <path d="M103.36,69.73 C103.69,70.72 104.51,73.88 104.29,78.72 C104.11,82.59 101.17,84.89 100.58,86.69 C100.13,88.06 110.44,89.04 111.85,80.66 C112.95,74.09 109.34,70.86 107.72,69.63 C105.4,67.87 103.02,68.71 103.36,69.73 Z" fill="#CD0E1E"/>
  <path d="M85.55,96.06 C83.6,96.19 83.51,100.6 84.44,103.57 C85.37,106.54 88.98,113.77 95.84,115.35 C102.7,116.93 104.93,114.89 105.02,113.77 C105.11,112.65 101.59,112.01 100.57,109.41 C99.96,107.87 99.27,105.14 96.86,102.73 C94.45,100.32 90.74,100.23 88.98,99.02 C87.22,97.82 86.95,95.97 85.55,96.06 Z" fill="#CD0E1E"/>
  <path d="M26.77,54.61 C26.77,54.61 17.08,53.36 13.23,62.86 C9.89,71.11 12.49,76.86 14.16,81.13 C15.29,84.03 16.47,89.05 17.22,89.2 C18.15,89.39 23.34,83.82 27.42,79 C31.5,74.18 34.56,67.87 31.13,60.55 C29.17,56.38 26.77,54.61 26.77,54.61 Z" fill="#748138"/>
  <path d="M50.88,71.95 C50.88,71.95 52.92,67.78 56.26,67.68 C59.05,67.6 60.62,69.72 61.36,71.39 C62.1,73.06 61.92,73.89 61.36,75.66 C60.8,77.43 59.68,80.46 60.8,84.19 C61.91,87.9 65.71,92.35 68.12,94.48 C70.53,96.61 76.09,100.88 76.93,100.6 C77.76,100.32 78.14,90.86 77.67,85.58 C77.21,80.29 75.17,75.75 71.55,73.71 C67.93,71.67 67.47,72.13 66.54,71.02 C65.61,69.91 64.13,63.97 57.27,62.86 C52.71,62.12 48.46,65.09 48.46,65.55 C48.47,66.02 50.88,71.95 50.88,71.95 Z" fill="#748138"/>
  <path d="M77.38,12.64 C77.19,12.36 69.87,2.26 56.43,3.74 C42.99,5.22 38.9,17.65 38.53,27.66 C38.24,35.46 38.62,43.89 40.2,51.3 C41.78,58.72 44.19,68.92 46.04,82.92 C47.43,93.41 47.54,102.44 47.15,106.56 C46.59,112.49 44.83,122.04 44.83,122.04 C44.83,122.04 45.94,124.45 49.74,124.36 C52.16,124.3 52.89,122.6 52.89,122.6 C52.89,122.6 54.84,113.05 54.47,97.38 C54.1,81.71 49.93,62.52 47.98,54.73 C46.03,46.94 42.51,26.64 47.61,16.9 C52.71,7.16 63.84,9.85 67.08,11.89 C70.32,13.93 72.18,16.16 72.18,16.16 L77.38,12.64 Z" fill="#748138"/>
  <path d="M23.17,56.88 C23.08,56.6 24.45,49.89 29.92,45.81 C35.39,41.73 40.86,44.51 40.86,44.51 L42.44,52.85 C42.44,52.85 39.19,47.47 34.19,50.25 C28.28,53.53 28.48,58.64 28.48,58.64 L23.17,56.88 Z" fill="#748138"/>
</svg>