<svg viewBox="0 0 128 128" xmlns="http://www.w3.org/2000/svg">
  <defs/>
  <path d="M73.99,78.07 L62.3,83.14 C62.3,83.14 65.26,89.19 66.8,91.59 C68.34,93.99 70.39,95.67 70.67,98.63 C70.95,101.59 69.52,110.69 68.25,113.08 C67.16,115.14 65.95,116.86 66.94,118.27 C67.93,119.68 73.51,119.77 74.35,118.34 C74.99,117.26 75.17,113.84 75.31,112.57 C75.45,111.3 76.15,106.31 76.72,102.36 C77.08,99.85 77.92,98.21 78.06,96.52 C78.2,94.83 75.51,92.59 74.54,90.89 C72.3,86.94 73.99,78.07 73.99,78.07 Z" fill="#8A5B51"/>
  <path d="M86.1,66.88 L89.83,69.34 C89.83,69.34 95.11,69.48 96.31,64.48 C97.24,60.59 96.31,56.55 94.55,57.72 C94.13,58 92.51,63.28 92.51,63.28 L86.1,66.88 Z" fill="#FFEAC3"/>
  <path d="M34.15,40.62 L31.19,40.9 C31.19,40.9 29.81,41.51 28.75,41.79 C27.66,42.08 25.98,42.27 25.7,43.12 C25.42,43.96 25.48,48.53 26.47,49.91 C27.17,50.9 27.6,52.51 31.4,52.44 C35.2,52.37 40.48,52.23 40.48,52.23 L38.86,42.1 L34.15,40.62 Z" fill="#FFEAC3"/>
  <path d="M50.69,33.23 C50.69,33.23 48.37,30.06 43.96,30.53 C40.88,30.86 37.95,33.16 37.95,33.16 C37.95,33.16 34.92,27.6 32.25,25.49 C29.58,23.38 23.8,20.99 22.82,22.32 C21.83,23.66 25.99,29.15 28.03,31.82 C30.07,34.49 33.59,38.3 33.59,38.3 C33.59,38.3 32.53,40.13 30.99,40.94 C32.61,41.15 34.67,41.69 36.22,43.91 C37.86,46.26 38.99,49.87 38.47,52.26 C38.01,54.37 35.35,57.66 35.7,64.48 C36.05,71.31 37.53,75.46 38.8,77.57 C40.07,79.68 43.16,83.55 43.16,83.55 C43.16,83.55 43.44,91.29 43.37,95.38 C43.3,99.46 42.53,106.85 41.82,110.44 C41.12,114.03 40.27,115.72 39.43,116.78 C38.59,117.84 37.06,120.11 39.68,120.72 C41.65,121.18 44.55,120.88 45.23,120.67 C46.65,120.23 46.26,117.9 46.19,116.63 C46.12,115.36 47.81,105.2 48.23,100.91 C48.64,96.79 49.45,91.66 49.73,89.27 C50.06,86.5 50.44,85.21 50.95,85.28 C51.65,85.37 51.77,86.34 51.7,88.66 C51.63,91 51.04,97.99 50.76,102 C50.48,106.01 49.38,115.77 49.16,116.55 C48.95,117.32 46.88,119.42 47.1,121.08 C47.29,122.51 49,123.12 51.18,123.12 C53.36,123.12 54.88,122.53 55.03,121.34 C55.22,119.79 54.91,118.69 54.84,117 C54.77,115.31 56.25,103.7 56.44,101.4 C56.6,99.42 58.22,90.68 58.5,89.55 C58.78,88.42 58.91,87.12 59.16,86.52 C59.35,86.05 64.49,86.8 68.85,84.69 C73.21,82.58 75.96,79.76 75.96,79.76 C75.96,79.76 79.06,83.91 80.61,85.81 C82.16,87.71 87.65,95.03 87.86,97.64 C88.07,100.24 88.35,109.61 88.35,112.21 C88.35,114.81 88.28,116.79 88.07,117.35 C87.86,117.91 85.4,121.22 86.1,122.42 C86.8,123.62 88.75,123.92 90.98,123.69 C93.29,123.45 94.32,122.47 94.69,121.02 C95.35,118.44 94.31,107.81 94.46,102.39 C94.6,96.97 95.4,95.12 94.84,93.71 C94.28,92.3 91.53,88.99 90.69,84.77 C89.85,80.55 90.62,77.38 90.62,73.65 C90.62,69.92 90.41,67.67 90.41,67.67 C90.41,67.67 93.23,66.6 94.39,64.5 C95.55,62.39 95.97,57.67 94.92,57.53 C93.86,57.39 92.36,60.24 91.75,60.91 C90.72,62.04 88.65,62.53 88.65,62.53 C88.65,62.53 86.33,56.27 79.5,55 C72.67,53.73 64.4,57.19 60.07,58.03 C55.71,58.87 53.03,59.44 52.33,58.17 C51.63,56.9 52.54,54.37 54.02,51.91 C55.5,49.45 56.25,47.83 56.46,46.14 C56.67,44.45 56.69,42.69 56.69,42.69 C56.69,42.69 61.76,41.77 64.86,38.33 C67.96,34.88 70.7,27.63 71.62,25.8 C72.54,23.97 73.31,23.62 72.89,22.63 C72.47,21.64 66.77,21.36 63.25,22.35 C60.05,23.25 55.51,26.15 53.68,28.47 C51.82,30.77 50.69,33.23 50.69,33.23 Z" fill="#D17856"/>
  <path d="M54.75,37.9 C53.33,36.54 53.53,34.19 55.83,31.38 C58.13,28.57 60.93,26.83 63.48,25.84 C65.54,25.04 68.39,24.26 69.02,24.85 C69.31,25.13 67.55,28.69 65.44,32.1 C63.5,35.24 61.09,37.61 59.21,38.32 C57.55,38.94 55.83,38.93 54.75,37.9 Z" fill="#FFEAC3"/>
  <path d="M25.88,25.07 C25.55,25.68 27.47,27.95 30.14,31.41 C32.17,34.04 33.53,35.98 34.55,36.15 C35.18,36.26 35.83,35.65 35.61,34.67 C35.22,32.98 33.76,30.94 31.81,28.94 C29.55,26.64 26.21,24.46 25.88,25.07 Z" fill="#FFEAC3"/>
  <path d="M46.62,40.55 C46.51,42.2 45.87,43.25 44.33,43.37 C43.09,43.47 42.04,41.98 42.04,40.48 C42.04,38.98 43.09,37.92 44.33,37.92 C45.57,37.92 46.73,39.05 46.62,40.55 Z" fill="#0A070B"/>
  <path d="M26.86,48.93 C26.86,48.93 29.64,47.17 29.64,45.73 C29.64,44.6 28.56,43.68 27.46,43.02 C26.85,42.66 25.95,42.42 25.52,42.98 C25.1,43.54 24.5,45.02 24.89,47.45 C25.28,49.88 26.54,50.34 26.54,50.34 C26.54,50.34 25.84,51.61 30.2,51.5 C34.56,51.39 34.63,50.3 34.53,49.67 C34.42,49.04 31.78,49.07 30.38,49.28 C28.31,49.6 26.86,48.93 26.86,48.93 Z" fill="#2C2A32"/>
  <path d="M47.8,32.25 C47.8,32.25 50.05,26.83 50.55,24.75 C50.93,23.14 50.97,20.25 51.01,18.52 C51.02,17.87 50.59,17.32 50.62,16.27 C50.66,15.08 51.31,13.89 52.87,13.84 C54.32,13.8 55.16,14.83 55.23,15.99 C55.3,17.19 54.74,17.82 54.7,18.52 C54.59,20.39 54.38,24.08 54.38,24.08 C54.38,24.08 57.23,21.41 57.55,20.6 C57.87,19.79 57.9,15.71 57.9,14.9 C57.9,14.09 57.9,12.96 57.9,12.96 C57.9,12.96 57.07,11.78 57.09,10.74 C57.1,9.91 57.72,8.66 59.1,8.63 C60.59,8.59 61.22,9.57 61.32,10.6 C61.41,11.63 60.9,12.57 60.9,12.57 L60.76,16.9 C60.76,16.9 62.34,14.82 62.98,13.94 C63.61,13.06 64.32,11.65 64.32,11.65 C64.32,11.65 63.96,10.48 64.11,9.33 C64.25,8.29 64.95,7.15 66.4,7.11 C67.81,7.08 68.58,8.17 68.58,9.33 C68.58,11.09 67.52,12.29 67.52,12.29 C67.52,12.29 64.92,17.39 62.91,20.03 C61.45,21.95 60.45,23.37 59.81,23.76 C59.18,24.15 55.16,26.4 53.33,29.11 C52.16,30.84 50.69,33.23 50.69,33.23 C50.69,33.23 50,34.24 48.72,33.76 C47.7,33.37 47.8,32.25 47.8,32.25 Z" fill="#BD9178"/>
  <path d="M23.52,10.78 C23.52,10.78 25.53,15.88 26.93,18.66 C28.33,21.44 30.41,24.29 30.41,24.29 C30.41,24.29 33.28,26.44 34.21,27.56 C35.9,29.6 37.84,33.37 37.84,33.37 L40.15,31.75 L38.09,28.2 C38.09,28.2 38.05,24.57 38.05,23.17 C38.05,22.01 38.09,19.97 38.09,19.97 C38.09,19.97 38.78,18.9 38.83,17.82 C38.89,16.6 38.24,15.36 36.79,15.29 C35.42,15.22 34.64,16.41 34.54,17.47 C34.43,18.53 35,19.48 35,19.48 L34.86,25.22 C34.86,25.22 34.09,23.78 33.8,23.39 C33.51,23 32.83,21.39 32.67,21.1 C32.35,20.5 32.99,15.47 32.99,14.66 C32.99,13.85 33.2,11.49 33.2,11.49 C33.2,11.49 33.88,10.46 33.87,9.31 C33.86,8.28 33.25,7.14 32,7.05 C30.59,6.94 29.85,7.95 29.68,8.88 C29.47,10.02 29.96,10.99 29.96,10.99 C29.96,10.99 29.74,16.12 29.4,16.02 C29.01,15.91 26.65,9.76 26.65,9.76 C26.65,9.76 27.19,8.48 26.79,6.87 C26.42,5.38 25.21,4.44 23.48,4.93 C21.74,5.43 21.4,7.25 21.97,8.66 C22.48,9.94 23.52,10.78 23.52,10.78 Z" fill="#BD9178"/>
</svg>