<svg viewBox="0 0 128 128" xmlns="http://www.w3.org/2000/svg">
  <defs>
    <linearGradient id="leg_2_" gradientTransform="matrix(1 0 0 -1 0 0)" gradientUnits="userSpaceOnUse" x1="73.1007" x2="73.1007" y1="-42.5534" y2="1.7308">
      <stop offset="0" stop-color="#8D5738"/>
      <stop offset="0.5" stop-color="#A56C43"/>
    </linearGradient>
    <linearGradient id="leg_3_" gradientTransform="matrix(1 0 0 -1 0 0)" gradientUnits="userSpaceOnUse" x1="34.8153" x2="-2.3009" y1="-54.4113" y2="-43.8067">
      <stop offset="0" stop-color="#8D5738"/>
      <stop offset="0.5" stop-color="#A56C43"/>
    </linearGradient>
    <radialGradient id="SVGID_1_" cx="-5.0289" cy="-244.139041" gradientTransform="matrix(-0.7809 0.6246 -0.3068 -0.3836 0 0)" gradientUnits="userSpaceOnUse" r="6.3743">
      <stop offset="0.7275" stop-color="#554138" stop-opacity="0"/>
      <stop offset="1" stop-color="#554138"/>
    </radialGradient>
    <radialGradient id="SVGID_2_" cx="-52.042599" cy="147.022613" gradientTransform="matrix(0.4426 -0.8967 0.6652 0.3283 0 0)" gradientUnits="userSpaceOnUse" r="1.8838">
      <stop offset="0.6628" stop-color="#554138"/>
      <stop offset="1" stop-color="#554138" stop-opacity="0"/>
    </radialGradient>
    <radialGradient id="SVGID_3_" cx="126.126947" cy="7.095861" gradientTransform="matrix(0.6812 0.7321 -0.6102 0.5677 0 0)" gradientUnits="userSpaceOnUse" r="8.2742">
      <stop offset="0.7247" stop-color="#554138" stop-opacity="0"/>
      <stop offset="1" stop-color="#554138"/>
    </radialGradient>
    <radialGradient id="SVGID_4_" cx="124.99286" cy="28.48332" gradientTransform="matrix(0.5646 0.8254 0.6879 -0.4706 0 0)" gradientUnits="userSpaceOnUse" r="8.2742">
      <stop offset="0.7247" stop-color="#554138" stop-opacity="0"/>
      <stop offset="1" stop-color="#554138"/>
    </radialGradient>
    <radialGradient id="SVGID_5_" cx="12.956486" cy="-244.139491" gradientTransform="matrix(0.7809 -0.6246 -0.3068 -0.3836 0 0)" gradientUnits="userSpaceOnUse" r="6.3743">
      <stop offset="0.7275" stop-color="#554138" stop-opacity="0"/>
      <stop offset="1" stop-color="#554138"/>
    </radialGradient>
    <radialGradient id="SVGID_6_" cx="-69.114497" cy="136.702224" gradientTransform="matrix(-0.972 0.2348 0.1742 0.7211 0 0)" gradientUnits="userSpaceOnUse" r="1.8838">
      <stop offset="0.6628" stop-color="#554138"/>
      <stop offset="1" stop-color="#554138" stop-opacity="0"/>
    </radialGradient>
    <linearGradient id="SVGID_7_" gradientTransform="matrix(1 0 0 -1 0 0)" gradientUnits="userSpaceOnUse" x1="65.6015" x2="65.6015" y1="-95.6346" y2="-122.4267">
      <stop offset="0" stop-color="#8D5738"/>
      <stop offset="0.5" stop-color="#A56C43"/>
    </linearGradient>
    <linearGradient id="SVGID_8_" gradientTransform="matrix(1 0 0 -1 0 0)" gradientUnits="userSpaceOnUse" x1="92.1062" x2="120.8503" y1="-80.3587" y2="-90.1261">
      <stop offset="0" stop-color="#8D5738"/>
      <stop offset="0.5" stop-color="#A56C43"/>
    </linearGradient>
    <linearGradient id="SVGID_9_" gradientTransform="matrix(1 0 0 -1 0 0)" gradientUnits="userSpaceOnUse" x1="79.9437" x2="67.3696" y1="-84.8731" y2="-66.8191">
      <stop offset="0" stop-color="#F78C1F"/>
      <stop offset="0.482" stop-color="#F47F12"/>
      <stop offset="1" stop-color="#EF6C00"/>
    </linearGradient>
    <radialGradient id="SVGID_10_" cx="-113.500536" cy="50.710454" gradientTransform="matrix(-0.918 -0.5838 -0.3743 0.6453 0 0)" gradientUnits="userSpaceOnUse" r="9.7267">
      <stop offset="0.6985" stop-color="#554138" stop-opacity="0"/>
      <stop offset="1" stop-color="#554138"/>
    </radialGradient>
    <radialGradient id="SVGID_11_" cx="-69.626279" cy="94.534212" gradientTransform="matrix(-1.0113 0.1821 0.3234 1.2231 0 0)" gradientUnits="userSpaceOnUse" r="3.1647">
      <stop offset="0.58" stop-color="#554138"/>
      <stop offset="1" stop-color="#554138" stop-opacity="0"/>
    </radialGradient>
    <radialGradient id="SVGID_12_" cx="49.190261" cy="-200.709753" gradientTransform="matrix(0.9983 -0.2831 -0.2133 -0.5763 0 0)" gradientUnits="userSpaceOnUse" r="7.84">
      <stop offset="0.6985" stop-color="#554138" stop-opacity="0"/>
      <stop offset="1" stop-color="#554138"/>
    </radialGradient>
    <radialGradient id="SVGID_13_" cx="-8.103401" cy="105.051385" gradientTransform="matrix(-0.7624 0.648 0.8787 1.0067 0 0)" gradientUnits="userSpaceOnUse" r="3.2104">
      <stop offset="0.7016" stop-color="#554138" stop-opacity="0"/>
      <stop offset="1" stop-color="#554138"/>
    </radialGradient>
    <radialGradient id="SVGID_14_" cx="41.430542" cy="-125.109578" gradientTransform="matrix(0.9228 -0.4119 -0.4638 -0.9013 0 0)" gradientUnits="userSpaceOnUse" r="4.3903">
      <stop offset="0.6605" stop-color="#554138" stop-opacity="0"/>
      <stop offset="1" stop-color="#554138"/>
    </radialGradient>
    <radialGradient id="SVGID_15_" cx="-26.953287" cy="83.531445" gradientTransform="matrix(-0.8531 0.5298 0.854 1.2698 0 0)" gradientUnits="userSpaceOnUse" r="4.6093">
      <stop offset="0.5981" stop-color="#554138" stop-opacity="0"/>
      <stop offset="1" stop-color="#554138"/>
    </radialGradient>
  </defs>
  <path id="hair_3_" d="M75.11,94.27 C75.76,94.54 75.82,95.3 75.73,96.37 C75.59,98.07 76.38,101.1 79.12,102.63 C79.12,102.65 79.62,102.88 79.62,102.9 L80.02,102.61 C80.16,102.53 84.35,99.19 88.54,95.84 C92.73,92.49 96.91,89.13 97.01,89.02 C97.01,89.02 97.24,88.15 97.23,88.15 C96.34,85.14 93.55,83.7 91.86,83.46 C90.8,83.31 90.07,83.09 89.94,82.4 C89.82,81.72 90.53,81.04 90.53,81.04 C90.53,81.04 89.97,80.7 89.34,80.78 C88.76,80.86 88.23,81.19 87.88,81.45 C87.88,81.45 85.13,80.69 81.71,83.42 L79.81,84.94 L77.91,86.46 C74.49,89.19 74.63,92.05 74.63,92.05 C74.3,92.33 73.86,92.77 73.66,93.32 C73.44,93.92 73.65,94.54 73.65,94.54 C73.65,94.54 74.48,94.01 75.11,94.27 Z" fill="#3C2C23"/>
  <path d="M79.82,84.94 L81.43,86.95 L75.74,92.29 L74.64,92.05 C74.64,92.05 74.5,89.19 77.92,86.46 L79.82,84.94 Z" fill="url(#SVGID_1_)"/>
  <path d="M75.36,92.92 C77.38,93.57 75.77,95.7 75.77,95.7 L75.77,95.7 C75.77,94.98 75.63,94.48 75.12,94.27 C74.49,94.01 73.67,94.55 73.67,94.55 C73.67,94.55 73.96,92.79 75.36,92.92 Z" fill="url(#SVGID_2_)"/>
  <path d="M79.12,102.64 C76.46,101.16 75.59,98.14 75.72,96.47 C75.74,96.24 75.85,95.32 75.64,94.82 C75.64,94.82 79.93,96.03 81.87,97.2 C82.26,97.44 82.65,97.69 82.95,98.04 C83.17,98.3 83.39,98.65 83.42,99 C83.45,99.43 79.42,102.79 79.42,102.79 C79.41,102.79 79.12,102.64 79.12,102.64 Z" fill="url(#SVGID_3_)"/>
  <path d="M97.23,88.15 C96.37,85.23 93.61,83.72 91.96,83.48 C91.73,83.45 90.81,83.35 90.36,83.04 C90.36,83.04 90.59,87.49 91.32,89.64 C91.47,90.07 91.63,90.51 91.9,90.88 C92.1,91.16 92.4,91.44 92.73,91.55 C93.14,91.68 93.3,91.43 93.62,91.17 C94.23,90.68 97.04,88.69 97.24,88.53 C97.25,88.51 97.23,88.15 97.23,88.15 Z" fill="url(#SVGID_4_)"/>
  <path d="M79.81,84.95 L81.42,86.96 L87.88,82.58 L87.89,81.46 C87.89,81.46 85.14,80.7 81.72,83.43 L79.81,84.95 Z" fill="url(#SVGID_5_)"/>
  <path d="M88.57,82.35 C88.76,84.46 91.2,83.36 91.2,83.36 C91.2,83.36 91.2,83.36 91.2,83.36 C90.5,83.21 90.04,82.95 89.94,82.41 C89.82,81.73 90.53,81.05 90.53,81.05 C90.53,81.05 88.75,80.96 88.57,82.35 Z" fill="url(#SVGID_6_)"/>
  <path d="M74.61,91.68 L67.18,91.68 L68.01,119.47 L58.98,120.43 C57.54,120.77 56.59,121.29 56.59,122.15 C56.59,123.01 57.75,123.68 58.98,123.68 L70.9,123.68 C72.47,123.68 73.73,122.33 73.73,120.75 L73.73,120.68 L74.61,91.68 Z" fill="url(#SVGID_7_)"/>
  <path d="M122.35,87.78 C121.96,87.59 119.71,86.68 119.06,86.43 C118.82,86.34 118.88,85.97 119.18,86.05 L121.17,86.5 C121.66,86.61 122.07,86.55 122.25,86.13 C122.48,85.6 122.18,85.14 121.63,84.98 L118.38,83.91 C118.38,83.91 116.31,83.19 115.45,82.9 C114.98,82.74 114.2,82.65 113.39,83.06 L103.51,77.96 C103.23,77.81 102.94,77.68 102.62,77.61 L85.85,73.58 C83.84,73.15 81.79,74.45 81.37,76.48 C80.95,78.51 82.19,80.51 84.15,80.93 L84.15,80.93 L84.15,80.93 L100.9,84.04 L110.83,87.93 C110.93,89.43 111.98,90.1 112.37,90.63 C112.91,91.34 113.75,92.92 113.66,93.59 C113.6,94.02 114.31,94.35 114.6,94.26 C114.95,94.15 115.22,93.69 115.2,93.02 C115.19,92.64 115.11,91.71 114.77,91.28 C114.63,91.1 114.78,90.87 114.95,90.92 C114.96,90.92 114.96,90.92 114.97,90.92 C115.97,91.51 119.54,93.82 119.54,93.82 C120.03,94.12 120.61,94.04 120.84,93.5 C121.02,93.08 120.78,92.63 120.37,92.39 C120.37,92.39 118.18,90.77 117.51,90.24 C117.37,90.13 117.44,89.85 117.69,89.96 C117.94,90.07 121.5,91.77 121.5,91.77 C121.93,91.97 122.36,91.96 122.61,91.57 C122.92,91.09 122.64,90.55 122.12,90.31 L118.16,88.33 C117.97,88.22 118.03,87.86 118.3,87.97 C118.3,87.97 121.28,89.07 121.71,89.23 C122.14,89.4 122.72,89.4 122.93,88.85 C123.16,88.32 122.82,88 122.35,87.78 Z" fill="url(#SVGID_8_)"/>
  <path d="M85.63,72.74 C85.13,72.6 84.56,72.27 84.06,71.55 L76.62,60.65 L58.12,73.05 L65.79,84.29 C66.37,85.09 66.33,86.3 66.35,87.22 L66.56,95.6 L75.11,95.6 L75.23,87.38 C75.23,87.38 76.7,86.42 78.92,84.61 C81.14,82.8 83.25,81.32 83.25,81.32 L91.92,83.15 L93.68,74.68 L85.63,72.74 Z" fill="url(#SVGID_9_)"/>
  <path id="leg_1_" d="M85.51,6.34 C85.53,5.37 84.81,5.29 83.56,5.18 L73.92,4.33 C72.3,4.19 70.86,5.41 70.72,7.07 L70.33,10.77 L70.3,10.77 L67.44,32.99 L60.7,55.69 L72.39,58.76 L77.43,35.38 L78.93,13.03 L79.88,12.71 C80.39,12.76 81.93,13.2 82.3,12.47 C82.59,11.89 82.18,11.59 82.02,11.54 C82.19,11.59 82.85,11.71 83.07,11.18 C83.35,10.49 82.63,10.21 82.63,10.21 C82.63,10.21 83.57,10.44 83.85,9.78 C84.16,9.06 83.24,8.76 83.24,8.76 C83.24,8.76 84.39,9.02 84.58,8.32 C84.74,7.75 84.41,7.48 84.1,7.36 C84.8,7.44 85.49,7.17 85.51,6.34 Z" fill="url(#leg_2_)"/>
  <path id="leg" d="M36.66,50.48 C36.66,50.48 17.39,43.36 15.52,42.26 C13.65,41.16 12.54,40.52 12.54,40.52 C11.04,39.85 9.76,40.54 9.09,42.05 L5.4,51.04 C4.89,52.21 4.73,52.89 5.58,53.34 C6.3,53.73 6.87,53.56 7.14,52.88 C7.09,53.22 7.25,53.32 7.82,53.46 C8.51,53.63 8.86,52.61 8.86,52.61 C8.86,52.61 8.67,53.44 9.44,53.51 C10.15,53.57 10.42,52.54 10.42,52.54 C10.42,52.54 10.26,53.38 11,53.46 C11.56,53.52 11.79,52.65 11.83,52.46 C11.8,52.63 11.71,53.3 12.35,53.31 C13.16,53.33 13.33,51.64 13.54,51.16 L13.9,50.33 L34.19,60.26 L34.21,60.21 C34.37,60.28 34.51,60.36 34.68,60.41 L34.68,60.41 L34.68,60.42 L56.99,68.3 L60.46,56.61 C60.44,56.61 36.69,50.49 36.66,50.48 Z" fill="url(#leg_3_)"/>
  <path id="neck" d="M76.54,81.63 L76.54,81.63 C77.78,80.56 79.65,80.71 80.7,81.97 L82.46,84.07 L77.97,87.96 L76.21,85.86 C75.15,84.6 75.3,82.7 76.54,81.63 Z" fill="#7A4C32"/>
  <path id="ears" d="M81.36,99.47 L82.99,98.2 L91.83,91.34 L93.46,90.07 C94.77,89.06 94.97,87.07 93.91,85.66 C92.85,84.25 90.92,83.92 89.61,84.94 L87.98,86.21 L79.14,93.07 L77.51,94.34 C76.2,95.35 76,97.34 77.06,98.75 C78.12,100.16 80.05,100.49 81.36,99.47 Z" fill="#7A4C32"/>
  <path d="M77.34,61.66 L74,56.74 L76.44,46.08 L63.18,42.6 L59.63,55.17 L48.16,51.93 L44.15,65.19 L55.38,69 L58.8,74.06 Z" fill="#7C7C7C"/>
  <path id="head" d="M79.75,84.9 L79.75,84.9 L79.75,84.9 C75.93,87.87 74.59,93.47 79.28,99.5 C83.04,104.34 88.27,104.88 91.6,103.78 C92.39,103.52 93.08,103.16 93.61,102.75 C94.14,102.34 94.65,101.76 95.1,101.07 C97,98.12 97.78,92.92 94.01,88.07 C89.32,82.02 83.57,81.93 79.75,84.9 Z" fill="#A56C43"/>
  <path id="mouth_1_" d="M81.37,90.81 C81.75,89.85 84.04,88.07 85.06,87.94 C85.65,87.87 85.77,87.18 85.32,86.95 C84.88,86.72 82.98,86.86 81.9,87.7 C80.82,88.54 80.23,90.33 80.34,90.82 C80.47,91.32 81.16,91.36 81.37,90.81 Z" fill="#473530"/>
  <path id="nose_1_" d="M83.77,91.83 C83.8,91.82 83.83,91.81 83.85,91.79 L85.4,90.58 C85.42,90.56 85.44,90.54 85.46,90.51 C85.56,90.34 85.52,90.14 85.33,90.03 C85.14,89.93 84.5,89.73 83.87,90.21 C83.25,90.69 83.28,91.37 83.33,91.58 C83.39,91.8 83.59,91.89 83.77,91.83 Z" fill="#875334"/>
  <path d="M90.904,89.568 C91.386,90.187 91.291,91.065 90.694,91.53 C90.096,91.994 89.222,91.868 88.741,91.249 C88.259,90.629 88.354,89.751 88.951,89.287 C89.549,88.823 90.423,88.948 90.904,89.568 Z" fill="#42312C"/>
  <path d="M83.673,95.182 C84.155,95.801 84.06,96.679 83.463,97.143 C82.865,97.608 81.991,97.482 81.51,96.863 C81.029,96.243 81.123,95.365 81.72,94.901 C82.318,94.437 83.192,94.562 83.673,95.182 Z" fill="#42312C"/>
  <path d="M89.77,93.67 C90.19,93.78 90.97,93.81 91.9,93.09 C92.83,92.37 92.99,91.6 92.99,91.17 C92.99,90.98 92.86,90.86 92.73,90.82 C92.61,90.79 92.38,90.85 92.24,91.06 C92.1,91.27 91.88,91.76 91.25,92.25 C90.62,92.73 90.1,92.83 89.86,92.91 C89.62,92.99 89.5,93.2 89.5,93.32 C89.5,93.47 89.59,93.62 89.77,93.67 Z" fill="#42312C"/>
  <path d="M82.55,99.29 C82.97,99.4 83.75,99.43 84.68,98.71 C85.61,97.99 85.77,97.22 85.77,96.79 C85.77,96.6 85.64,96.48 85.51,96.44 C85.39,96.41 85.16,96.47 85.02,96.68 C84.88,96.89 84.66,97.38 84.03,97.87 C83.4,98.35 82.88,98.45 82.64,98.53 C82.4,98.61 82.28,98.82 82.28,98.94 C82.28,99.08 82.36,99.24 82.55,99.29 Z" fill="#42312C"/>
  <path id="hair_2_" d="M83.99,107.25 C85.22,107.65 87.33,107.79 88.42,107 C89.51,107.92 91.34,107.93 92.67,107.41 C96.24,106.01 97.12,103.43 97.58,102.05 C97.68,101.76 98.29,100.89 99.68,100.68 C100.55,100.55 101.36,102.5 101.36,102.5 C101.36,102.5 102.5,98.26 100.12,96.75 C100.7,96.21 101.26,95.25 100.88,93.96 C100.42,92.43 99.44,91.66 98.91,91.35 C99.02,90.42 98.78,88.84 97.17,87.9 C95.96,87.19 94.2,87.89 94.2,87.89 C92.73,86.01 91.45,85.17 90.89,84.86 C90.79,84.81 90.7,84.9 90.75,85 C91.32,86.07 93.33,89.77 93.87,90.25 C93.87,90.25 91.95,92.76 91.26,96.47 C91.12,97.22 90.89,97.96 90.56,98.63 C88.79,102.25 86.39,100.68 86.39,100.68 C86.39,100.68 84.78,102.75 81.63,100.32 C80.45,99.41 78.76,97.77 77.55,96.65 C77.47,96.57 77.34,96.65 77.38,96.75 C77.61,97.41 78.06,98.71 78.83,99.79 C79.1,100.17 78.63,101.37 79.57,103.18 C80.81,105.57 83.1,106.96 83.99,107.25 Z" fill="#3C2C23"/>
  <path d="M78.83,99.74 C79.1,100.12 78.63,101.32 79.57,103.13 C79.67,103.32 79.78,103.51 79.89,103.7 C81.17,105.78 83.18,106.98 84,107.24 C85.14,107.61 87.03,107.76 88.16,107.15 C88.25,107.09 88.34,107.03 88.43,106.97 C88.43,106.97 87.94,106.55 87.79,106.01 C87.59,105.31 87.96,104.79 87.96,104.79 C83.1,104.22 81.31,101.82 78.83,99.74 Z" fill="url(#SVGID_10_)"/>
  <path d="M97.27,102.89 C97.39,102.58 97.49,102.29 97.58,102.04 C97.68,101.75 98.29,100.88 99.68,100.67 C100.53,100.54 101.33,102.45 101.36,102.48 C101.31,101.91 99.89,96.73 97.47,98.49 C96.43,99.25 96.63,100.68 96.95,101.76 C97.07,102.15 97.23,102.74 97.27,102.89 Z" fill="url(#SVGID_11_)"/>
  <path d="M93.03,107.25 C91.12,108.1 89.64,107.89 88.42,106.99 C88.06,106.72 85.3,103.74 93.75,102.62 C96.89,102.2 97.05,103.48 96.89,103.77 C96.28,104.91 95.17,106.3 93.03,107.25 Z" fill="url(#SVGID_12_)"/>
  <path d="M101.36,102.48 C101.36,102.48 101.36,102.47 101.37,102.46 C101.37,102.46 101.37,102.46 101.37,102.46 C101.49,102.21 102.34,98.15 100.11,96.73 L98.24,97.83 C101.05,98.18 101.36,102.49 101.36,102.48 C101.36,102.49 101.36,102.48 101.36,102.48 Z" fill="url(#SVGID_13_)"/>
  <path d="M98.96,97.41 L100.11,96.73 C100.15,96.7 100.27,96.57 100.33,96.5 C100.82,95.94 101.21,95.06 100.87,93.95 C100.5,92.76 99.84,92.02 99.3,91.61 C99.12,91.47 98.9,91.33 98.9,91.33 C98.9,91.33 98.85,92.26 97.7,93.29 L98.96,97.41 Z" fill="url(#SVGID_14_)"/>
  <path d="M98.91,91.25 C98.99,90.36 98.73,88.74 97.1,87.85 C95.87,87.18 94.18,87.87 94.18,87.87 C94.18,87.87 93.84,88.01 93.7,88.12 L97.69,93.3 C98.32,92.76 98.75,92.05 98.88,91.42 C98.88,91.41 98.92,91.25 98.91,91.25 Z" fill="url(#SVGID_15_)"/>
</svg>