<svg viewBox="0 0 128 128" xmlns="http://www.w3.org/2000/svg">
  <defs>
    <linearGradient id="SVGID_1_" gradientUnits="userSpaceOnUse" x1="99.5084" x2="122.7816" y1="53.8902" y2="35.9877">
      <stop offset="0" stop-color="#D07753"/>
      <stop offset="0.2205" stop-color="#DA8543"/>
      <stop offset="0.6521" stop-color="#F3A818"/>
      <stop offset="0.8434" stop-color="#FFB903"/>
    </linearGradient>
    <linearGradient id="SVGID_2_" gradientUnits="userSpaceOnUse" x1="38.9419" x2="38.01" y1="44.9304" y2="18.6509">
      <stop offset="0.0908" stop-color="#D07753"/>
      <stop offset="0.1777" stop-color="#DA8542"/>
      <stop offset="0.3501" stop-color="#EA9C27"/>
      <stop offset="0.5241" stop-color="#F6AC13"/>
      <stop offset="0.6992" stop-color="#FDB607"/>
      <stop offset="0.877" stop-color="#FFB903"/>
    </linearGradient>
  </defs>
  <path d="M99.65,46.53 C99.65,46.53 104.08,47.47 107.11,44.64 C111.59,40.46 110.79,38.37 113.67,32.11 C116.55,25.84 123.02,25.45 124.31,25.45 C125.6,25.45 127.19,25.55 127.19,26.25 C127.19,26.95 124.9,28.84 123.51,33.11 C122.12,37.39 122.12,46.54 118.34,51.11 C114.56,55.69 111.18,57.28 107.3,57.67 C103.43,58.07 99.65,46.53 99.65,46.53 Z" fill="url(#SVGID_1_)"/>
  <path d="M46.24,78.36 L36,78.75 C36,78.75 35.7,89.59 35.7,93.37 C35.7,97.15 36.05,106.25 35.5,107.59 C34.58,109.86 33.11,110.57 32.62,111.57 C32.08,112.65 31.82,114.95 33.81,115.75 C35.8,116.55 39.68,115.35 41.47,114.36 C43.26,113.37 44.66,112.05 44.85,111.38 C45.3,109.79 46.19,95.67 46.24,92.68 C46.34,87.41 46.24,78.36 46.24,78.36 Z" fill="#D1775B"/>
  <path d="M78.87,72.79 C78.87,72.79 78.78,77.55 79.96,82.74 C80.76,86.22 84.04,91.59 83.74,95.67 C83.44,99.75 82.05,102.93 80.26,105.02 C78.47,107.11 78.77,109.5 79.27,110.09 C79.77,110.68 82.05,111.58 85.73,111.08 C88.6,110.69 89.81,109.39 90.11,108.79 C90.41,108.19 92.89,99.24 93.49,97.05 C94.09,94.86 95.44,89.54 95.98,87.2 C96.88,83.32 98.17,77.65 98.17,77.35 C98.17,77.05 91.21,65.61 91.21,65.61 L78.87,72.79 Z" fill="#D1775B"/>
  <path d="M44.26,33.4 C44.26,33.4 50.13,39.47 51.32,39.86 C52.51,40.26 67.33,39.26 76.09,39.56 C84.85,39.86 91.31,40.26 95.98,42.74 C100.65,45.23 106.52,46.32 109.21,62.13 C111.9,77.94 110.11,78.94 111.5,81.72 C112.89,84.5 116.08,93.65 116.57,95.54 C117.06,97.43 117.17,111.25 116.27,113.04 C115.37,114.83 113.29,116.72 110.5,116.72 C107.72,116.72 105.1,116.42 105.03,114.03 C104.96,111.83 106.62,110.85 106.92,109.75 C107.22,108.66 107.62,99.41 107.12,98.01 C106.62,96.61 99.46,88.46 95.68,84.48 C91.9,80.5 88.82,71.45 88.82,71.45 C88.82,71.45 81.16,74.04 77.38,76.52 C73.6,79.01 69.32,82.09 67.93,83.08 C66.54,84.07 65.34,84.57 65.34,84.57 C65.34,84.57 65.74,91.93 65.44,97.3 C65.14,102.67 64.64,114.11 63.45,115.9 C62.26,117.69 59.27,120.08 55.49,119.98 C51.71,119.88 51.51,117.89 53.1,114.21 C54.69,110.53 54.79,110.63 54.79,109.73 C54.79,108.83 54.68,95.16 54.64,93.87 C54.59,92.13 53.99,87.55 53.5,87.16 C53,86.76 46.04,88.06 39.28,83.88 C32.52,79.7 29.04,72.29 27.75,67.91 C26.46,63.53 24.57,54.68 24.02,53.04 C23.64,51.9 21.48,44.14 20.99,42.45 C20.5,40.76 19.9,37.58 19.9,37.58 C19.9,37.58 11.94,37.46 9.71,37.08 C7.47,36.71 4.42,34.84 3.44,33.13 C2.55,31.56 0.41,26.93 1.4,24.1 C2.03,22.31 5.68,21.56 7.17,21.34 C8.66,21.12 11.27,20.74 11.79,19.85 C12.31,18.95 14.03,13.96 16.86,11.94 C19.47,10.08 27.23,8.21 32.75,10.3 C38.27,12.39 40.66,19.25 40.66,19.25 L44.26,33.4 Z" fill="#FFB903"/>
  <path d="M44.31,34.69 C44.31,34.69 37.7,39.76 29.32,44.69 C26.41,46.4 22.46,47.82 22.16,48.35 C21.86,48.88 23.28,52.9 23.88,53.2 C24.48,53.5 26.96,52.35 32.09,49.54 C35.49,47.68 37.68,46.26 39.4,44.99 C45.04,40.82 48.43,37.72 48.5,37.16 C48.57,36.56 46.04,34.4 46.04,34.4 L44.31,34.69 Z" fill="#0AC2E7"/>
  <path d="M35.28,17.69 C34.56,17.39 32.85,19.46 31.77,21.42 C30.43,23.86 28.44,27.53 27.59,32.76 C26.93,36.86 26.92,40.97 29.01,41.94 C31.28,42.99 34.6,42.41 38.41,41.12 C42.81,39.62 48.3,37.38 48.53,34.8 C48.73,32.61 47.09,29.78 47.09,29.78 L35.25,20.48 C35.25,20.47 36,17.99 35.28,17.69 Z" fill="#D27854"/>
  <path d="M58.11,55.36 L39.01,59.69 L26.11,61.93 L26.71,63.89 C26.71,63.89 33.17,64.45 41.33,63.79 C49.98,63.09 61.4,59.54 61.4,59.54 L58.11,55.36 Z" fill="#D27854"/>
  <path d="M24.52,21.26 C24.28,22.9 23.17,24.16 21.6,23.87 C20.24,23.62 19.41,22.19 19.56,20.53 C19.74,18.54 21.11,17.72 22.48,17.92 C23.85,18.12 24.76,19.61 24.52,21.26 Z" fill="#07000D"/>
  <path d="M5.32,27.43 C5.32,27.43 8.15,27.18 8.15,25.09 C8.15,23 5.46,22.65 4.07,22.7 C2.68,22.76 0.79,23.46 0.64,25 C0.49,26.54 2.78,27.49 2.78,27.49 C2.78,27.49 2.75,29.35 2.48,29.93 C2.13,30.68 1.58,31.52 2.43,32.17 C3.12,32.7 3.92,31.08 3.92,31.08 C3.92,31.08 5.06,33.42 7.35,34.41 C9.64,35.4 12.01,34.94 12.62,34.91 C13.61,34.86 13.96,33.27 12.47,33.27 C10.98,33.27 9.4,33.3 8.15,32.71 C6.9,32.12 5.81,30.82 5.51,30.02 C5.22,29.22 5.32,27.43 5.32,27.43 Z" fill="#54656B"/>
  <path d="M36.15,16.64 C36.15,16.64 40.48,14.8 42.02,16.34 C43.56,17.88 45.25,23.95 46.4,27.23 C47.27,29.72 48.09,31.76 47.59,32.95 C46.43,35.73 41.9,37.58 39.29,38.52 C36.65,39.46 32.43,40.91 30.49,39.51 C28.55,38.12 29.55,32.7 30.74,29.07 C31.86,25.66 35.07,19.72 35.46,19.07 C35.85,18.43 36.15,16.64 36.15,16.64 Z" fill="url(#SVGID_2_)"/>
  <path d="M24.61,57 C24.18,57.43 24.98,61.7 25.65,62.07 C26.32,62.44 39.05,62.04 43.15,61.45 C47.77,60.78 56.97,58.79 56.97,58.79 L61.22,66.92 C61.22,66.92 64.78,74.03 65.02,76.24 C65.28,78.55 65.37,84.74 65.37,84.74 L66.27,84.22 C66.27,84.22 66.44,60.57 65.92,53.71 C65.53,48.58 65.02,39.84 64.95,39.46 C64.88,39.09 61.32,39.21 59.01,39.36 C56.7,39.51 55.93,39.91 55.93,39.91 L56,52.44 C56,52.44 52.14,53.79 49.36,54.38 C46.53,54.98 41.9,55.99 38.92,56.17 C34.09,56.48 24.99,56.63 24.61,57 Z" fill="#865953"/>
  <path d="M54.08,39.39 C54.08,39.39 55.27,58.56 55.65,58.93 C56.02,59.3 56.69,59.15 56.99,59.45 C57.29,59.75 60.87,66.31 60.87,66.31 C60.87,66.31 59.68,39.98 59.45,39.46 C59.23,38.94 57.59,39.16 56.54,39.16 C55.49,39.16 54.08,38.87 54.08,39.39 Z" fill="#6E4A3A"/>
  <path d="M50.57,39.42 C50.57,39.42 73.02,25.6 73.84,24.7 C74.66,23.8 83.04,12.77 85.28,10.97 C87.63,9.09 90.87,8.84 93.14,10.52 C94.88,11.81 96.47,14.2 95.18,17.13 C93.58,20.75 86.57,31.75 84.94,33.64 C83.12,35.75 65.12,48.93 65.12,48.93 C65.12,48.93 60.05,55.42 59.08,56.69 C58.11,57.96 56.75,58.17 56.05,57.56 C54.96,56.62 55.35,55.35 56.7,53.63 C58.04,51.91 63.26,46.32 63.26,46.32 C63.26,46.32 81.86,33.09 82.88,31.7 C83.9,30.31 91.55,17.65 91.96,17.08 C92.95,15.69 92.51,13.57 91.16,12.75 C89.81,11.93 87.78,12.35 86.88,13.25 C85.98,14.15 76.78,25.33 75.79,26.55 C74.8,27.77 55.84,39.17 55.84,39.17 C55.84,39.17 54.6,39.22 54.3,39.32 C54,39.42 54.05,39.92 54.05,39.92 L51.46,39.97 L50.57,39.42 Z" fill="#ABB0B1"/>
</svg>