<svg viewBox="0 0 128 128" xmlns="http://www.w3.org/2000/svg">
  <defs/>
  <path d="M57.1,71.88 C55.9,72.16 49.08,72.8 49.08,72.8 C49.08,72.8 49.02,83.01 49.08,88.78 C49.15,95.68 49.64,100.61 49.57,104.9 C49.49,109.48 48.8,114.26 48.51,115.11 C48.22,115.96 46.96,118.56 47.17,119.05 C47.38,119.54 48.37,119.84 50.9,119.89 C54.49,119.96 55.19,119.4 55.4,118.62 C55.49,118.28 55.75,101.44 56.03,98.7 C56.34,95.68 56.45,84.55 56.45,84.55 L57.1,71.88 Z" fill="#FA821B"/>
  <path d="M92.36,80.68 L86.66,87.23 L88.49,96.17 C88.49,96.17 91.16,100.11 91.16,101.94 C91.16,103.77 90.88,108.54 90.81,109.19 C90.67,110.53 89.61,114.4 89.33,115.81 C89.05,117.22 88.7,118.63 89.12,119.12 C89.54,119.61 91.73,119.51 92.71,119.47 C94.33,119.4 95.1,119.05 95.6,118.77 C96.2,118.43 96.23,111.87 96.37,108.42 C96.5,105.3 96.93,100.68 96.93,99.62 C96.93,98.56 94.96,96.38 93.97,94.41 C93.27,93 92.56,90.96 92.56,89.69 C92.56,88.42 92.36,80.68 92.36,80.68 Z" fill="#FA821B"/>
  <path d="M35.04,11.67 L34.81,6.84 L38,6.74 L38.89,11.01 Z" fill="#FA821B"/>
  <path d="M102.57,83.14 C102.57,83.14 105.1,82.74 106.79,83.77 C108.48,84.8 109.95,86.84 109.93,90.22 C109.92,92.88 108.97,95.28 107.91,96.79 C107.09,97.96 106.08,98.57 105.75,98.39 C105.42,98.21 105.52,95.11 104.95,92.95 C104.38,90.79 102.84,85.58 102.7,84.97 C102.57,84.36 102.57,83.14 102.57,83.14 Z" fill="#D57657"/>
  <path d="M41.45,11.72 C41.45,11.72 38.67,10.18 35.53,11.17 C32.39,12.16 30.71,14.44 29.49,16.65 C28.27,18.86 27,20.33 25.88,21.11 C23.51,22.76 17.86,24.72 19.31,29.28 C20.4,32.72 26.11,31.25 29.31,31.02 C32.5,30.79 37.76,30.93 37.76,30.93 L45.46,18.59 L41.45,11.72 Z" fill="#D57657"/>
  <path d="M49.7,17.63 L57.94,16.34 L59.59,17.61 C59.59,17.61 57.13,22.4 54.63,23.64 C52.46,24.72 48.67,24.44 48.67,24.44 C48.67,24.44 50.45,29.93 52.33,33.5 C54.21,37.07 57.96,42.98 59.09,44.15 C60.22,45.32 66.65,49.55 67.49,50.3 C68.33,51.05 71.43,57.53 71.43,57.53 L59.32,57.8 L41.87,24.15 L49.7,17.63 Z" fill="#D57657"/>
  <path d="M47.03,7.21 L43.14,6.08 C43.14,6.08 42.34,9.18 41.92,9.97 C41.5,10.77 39.34,11.89 39.1,13.07 C38.87,14.24 39.01,14.9 39.01,14.9 C39.01,14.9 31.92,14.24 31.13,20.39 C30.74,23.37 31.49,25.32 32.4,26.73 C33.6,28.59 35.34,29.29 35.5,29.69 C35.78,30.39 40.24,41.33 41.08,43.53 C41.92,45.74 48.07,59.16 48.17,60.14 C48.26,61.13 47.75,62.67 47.51,64.27 C47.28,65.87 46.76,70.56 48.54,74.12 C50.32,77.68 54.27,81.16 54.64,82.43 C55.02,83.7 56.8,88.06 57.36,91.25 C57.92,94.44 58.77,101.29 59.14,103.92 C59.52,106.55 60.59,110.96 60.55,114.24 C60.5,117.52 59.19,121.28 59.42,122.12 C59.65,122.96 61.39,123.72 63.36,123.62 C65.33,123.53 67.3,122.63 67.4,122.12 C67.49,121.6 66.7,111.61 66.51,109.5 C66.32,107.39 65.76,100.96 66.13,95.66 C66.51,90.36 67.35,82.9 67.35,82.9 C67.35,82.9 70.59,82.57 71.95,82.34 C73.31,82.11 77.72,80.74 77.72,80.74 C77.72,80.74 78.38,84.31 79.41,89.66 C80.44,95.01 81.24,100.31 80.82,102.28 C80.4,104.25 79.69,108.33 78.29,112.18 C76.89,116.03 74.77,121.94 75.05,122.55 C75.33,123.16 77.21,123.86 79.18,123.68 C81.15,123.49 82.46,122.74 82.7,122.18 C82.94,121.62 83.5,115.89 83.69,115.23 C83.88,114.57 88.34,101.86 88.76,98.76 C89.18,95.66 89.93,87.31 90.21,86.42 C90.49,85.53 92.6,84.12 93.68,81.26 C94.76,78.4 95.23,75.35 95.23,75.35 C95.23,75.35 96.87,78.54 98.51,80.51 C100.15,82.48 103.34,85.32 103.72,85.77 C104.37,86.52 105.78,85.91 104.75,84.55 C103.72,83.19 101.23,80.94 100.15,79.15 C99.07,77.37 97.15,72.96 96.82,71.83 C96.49,70.7 95.28,68.56 94.83,67.83 C94.1,66.66 89.98,59.76 87.54,59.1 C85.1,58.44 81.56,57.66 77.53,57.7 C75.14,57.73 69.88,56.2 69.13,55.87 C68.38,55.54 66.46,54.6 66.46,54.6 C66.46,54.6 64.86,51.88 63.55,50.61 C62.24,49.34 59,48.03 58.2,47.23 C57.4,46.43 53.32,40.33 51.16,35.92 C49,31.51 46.84,27.9 46.37,26.07 C45.9,24.24 45.48,21.89 45.48,21.89 C45.48,21.89 49.75,22.12 52.33,21.33 C54.91,20.54 58.38,16.68 58.38,16.68 C58.38,16.68 55.66,14.1 51.67,14.19 C47.68,14.28 46.53,15.16 46.53,15.16 C46.53,15.16 46.46,12.92 46.55,11.89 C46.65,10.87 47.03,7.21 47.03,7.21 Z" fill="#FFB305"/>
  <path d="M23.16,25.59 C22.41,26.28 21.89,27.22 22.45,27.85 C23.11,28.59 24.07,28.15 24.77,27.55 C25.48,26.96 26.24,25.88 25.68,25.19 C25.18,24.57 24.12,24.7 23.16,25.59 Z" fill="#2E2A32"/>
  <path d="M42.43,21.24 C42.43,23.65 40.45,25.74 37.97,25.74 C35.49,25.74 33.46,23.88 33.46,21.47 C33.46,19.06 35.47,17.11 37.95,17.11 C40.43,17.11 42.43,18.83 42.43,21.24 Z" fill="#FEE2B2"/>
  <path d="M35.39,21.27 C35.62,20.72 35.8,20.1 36.35,19.63 C37.34,18.79 39.08,18.77 39.89,20.03 C40.83,21.48 40.2,22.99 39.05,23.53 C38.01,24.02 36.47,23.51 36.47,23.51 C36.47,23.51 35.18,24.12 34.03,23.96 C33.54,23.89 32.78,23.46 32.76,23.04 C32.74,22.5 32.93,22.31 34.12,22.2 C35.13,22.09 35.27,21.55 35.39,21.27 Z" fill="#2E2A32"/>
  <path d="M36.47,4.09 C34.47,3.94 33.9,4.83 33.87,5.88 C33.83,6.94 34.47,7.96 36.16,7.96 C37.85,7.96 38.62,7.36 38.62,5.85 C38.62,4.51 37.39,4.16 36.47,4.09 Z" fill="#4D4D4D"/>
  <path d="M42.6,5.39 C41.9,6.97 42.74,8.25 44.47,8.87 C46.23,9.5 47.71,9.15 48.1,7.36 C48.49,5.57 47.54,4.76 46.55,4.3 C45.57,3.85 43.49,3.38 42.6,5.39 Z" fill="#4D4D4D"/>
  <path d="M43.26,26.83 C44.08,27.24 44.03,28.59 43.75,29.36 C43.58,29.82 42.48,30.49 41.64,29.64 C40.8,28.8 42,26.19 43.26,26.83 Z" fill="#D57657"/>
  <path d="M39.36,33.9 C39.33,34.71 40.31,37.28 41.47,37.35 C42.63,37.42 44.18,36.75 44.07,35.91 C43.96,35.07 42.98,32.5 42.1,32.46 C41.22,32.42 39.39,32.85 39.36,33.9 Z" fill="#D57657"/>
  <path d="M45.34,31.61 C44.08,32.26 44.92,33.48 45.41,34.11 C45.9,34.74 46.96,35.62 47.7,35.06 C48.44,34.5 48.16,33.5 48.02,32.84 C47.52,30.52 46.78,30.88 45.34,31.61 Z" fill="#D57657"/>
  <path d="M48.33,36.61 C47.65,37.04 46.85,37.28 47.77,39.07 C48.69,40.86 50.37,45.26 52.27,44.31 C54.17,43.36 52.41,40.83 51.71,39.49 C51.01,38.16 50.13,35.49 48.33,36.61 Z" fill="#D57657"/>
  <path d="M41.96,41.29 C41.71,42.39 43.61,46.67 45.34,46.85 C47.06,47.03 48.23,45.97 48.23,45.06 C48.23,44.14 46.36,39.46 44.92,39.5 C43.48,39.54 42.14,40.52 41.96,41.29 Z" fill="#D57657"/>
  <path d="M46.71,51.25 C46.65,52.03 48.61,55.75 50.23,55.9 C51.85,56.05 54.63,54.84 54.77,53.44 C54.91,52.03 53.29,48.37 51.46,48.2 C49.63,48.02 46.78,50.27 46.71,51.25 Z" fill="#D57657"/>
  <path d="M53.82,46.64 C52.95,47.63 53.43,47.77 55.37,50.12 C56.02,50.91 57.38,52.97 58.57,51.46 C59.58,50.19 59.45,50.23 56.95,47.94 C56.03,47.1 54.56,45.8 53.82,46.64 Z" fill="#D57657"/>
  <path d="M59.77,53.82 C59.77,54.84 63.15,57.02 63.85,56.14 C64.55,55.26 62.83,52.44 61.88,52.2 C60.93,51.96 59.77,53.15 59.77,53.82 Z" fill="#D57657"/>
  <path d="M52.63,60.83 C54.53,63.19 55.73,62.59 56.82,63.12 C57.91,63.65 59.95,65.08 60.73,65.06 C61.96,65.02 64.6,63.44 64.71,61.61 C64.82,59.78 61.3,56.01 58.94,55.59 C56.57,55.16 50.9,58.68 52.63,60.83 Z" fill="#D57657"/>
  <path d="M51.01,64.13 C51.07,64.51 50.2,65.78 49.81,67.09 C49.42,68.39 49.39,70.22 49.11,70.5 C48.83,70.78 47.46,70.54 47.46,70.54 C47.46,70.54 46.98,68.54 47.14,65.79 C47.25,63.96 48.02,61.85 48.02,61.85 C48.02,61.85 50.9,63.47 51.01,64.13 Z" fill="#D57657"/>
  <path d="M53.51,65.05 C52.95,65.26 51.82,66.53 51.36,67.94 C50.9,69.35 50.48,71.85 50.76,72.2 C51.04,72.55 58.61,76.11 59.88,75.93 C61.15,75.75 65.69,72.23 65.79,71 C65.9,69.77 65.09,66.28 63.5,66.11 C61.92,65.93 59.42,68.36 58.75,68.5 C58.08,68.64 54.46,64.7 53.51,65.05 Z" fill="#D57657"/>
  <path d="M66.14,57.66 C66.18,58.22 67.51,59.31 67.65,61.07 C67.79,62.83 66.38,64.34 66.38,64.98 C66.38,65.62 68.14,69.22 68.77,69.13 C70.11,68.95 72.61,64.91 72.78,61.42 C72.89,59.31 72.18,57.13 71.62,56.77 C71.06,56.42 69.47,55.78 68.38,56.1 C67.3,56.43 66.07,56.74 66.14,57.66 Z" fill="#D57657"/>
  <path d="M76,59.35 C74.97,59.58 73.01,65.54 73.64,66.64 C74.27,67.73 78.78,69.28 79.9,68.22 C81.03,67.16 80.25,64.35 79.58,63.01 C78.92,61.67 77.09,59.1 76,59.35 Z" fill="#D57657"/>
  <path d="M70.4,70.26 C69.91,70.89 73.18,75.19 74.41,76.6 C75.23,77.53 79.2,72.13 79.02,71.07 C78.85,70.01 72.42,67.67 70.4,70.26 Z" fill="#D57657"/>
  <path d="M68.6,72.62 C67.09,72.42 63.22,75.79 63.11,76.42 C63,77.05 64.59,80.54 66.59,80.4 C68.6,80.26 71.76,78.46 71.69,77.73 C71.63,76.98 69.94,72.79 68.6,72.62 Z" fill="#D57657"/>
  <path d="M56.04,77.23 C54.83,77.93 56.39,81 58.57,83.04 C60.69,85.02 61.74,86.24 62.62,85.5 C63.5,84.76 64.06,80.61 63.32,79.94 C62.59,79.27 57.87,76.17 56.04,77.23 Z" fill="#D57657"/>
  <path d="M61.92,88.7 C61.77,89.6 63.08,90.81 63.79,90.53 C64.49,90.25 65.69,88.17 64.88,87.47 C64.06,86.76 62.09,87.64 61.92,88.7 Z" fill="#D57657"/>
  <path d="M59.24,92.01 C58.91,92.93 60.05,94.16 61.18,94.16 C62.31,94.16 62.45,92.44 61.43,91.77 C60.4,91.09 59.45,91.41 59.24,92.01 Z" fill="#D57657"/>
  <path d="M86.1,67.44 C84.72,67.14 81.63,69.59 80.96,71.7 C80.29,73.81 81,80.89 82.54,81.31 C84.08,81.73 87.78,77.58 88,76.42 C88.21,75.26 87.22,67.69 86.1,67.44 Z" fill="#D57657"/>
  <path d="M88.31,67.86 C89.08,70.32 89.75,73.91 90.6,75.18 C91.82,77.01 94.75,73.07 94.44,70.82 C94.12,68.57 92.12,66.14 90.99,66.03 C89.86,65.93 87.93,66.65 88.31,67.86 Z" fill="#D57657"/>
  <path d="M87.75,81.24 C86.93,80.87 83.32,84.13 83.14,85.32 C82.96,86.52 85.11,89.51 86.52,88.87 C87.93,88.24 88.45,81.56 87.75,81.24 Z" fill="#D57657"/>
  <path d="M89.69,80.99 C90.16,81.92 91.91,81.48 92.51,80.67 C93.11,79.86 93.11,77.12 92.69,77.01 C92.27,76.9 90.54,78.31 90.37,78.59 C90.18,78.88 89.55,80.71 89.69,80.99 Z" fill="#D57657"/>
  <path d="M83.81,92.61 C83.77,92.96 85.14,96.19 85.85,96.16 C86.84,96.12 87.26,93.41 87.36,92.85 C87.44,92.42 86.69,91.02 85.85,91.06 C85.01,91.1 83.88,92.04 83.81,92.61 Z" fill="#D57657"/>
  <path d="M82.82,66.67 C83.26,67.91 85.88,65.23 86.09,64.77 C86.3,64.31 87.08,61.81 86.09,61.18 C85.1,60.55 81.66,61.07 81.48,61.71 C81.31,62.34 82.61,66.07 82.82,66.67 Z" fill="#D57657"/>
  <path d="M88.49,64.31 C88.85,64.76 90.64,65.05 91.41,64.84 C92.18,64.63 92.54,64.42 92.54,64.42 C92.54,64.42 90.89,61.96 90.46,61.43 C90.04,60.9 88.56,59.53 88.17,59.35 C87.79,59.17 87.43,63.01 88.49,64.31 Z" fill="#D57657"/>
  <path d="M80.96,60.33 C82.44,60.33 83.99,58.25 83.99,58.25 C83.99,58.25 81.88,57.9 81.39,57.83 C80.9,57.76 78.36,57.69 78.36,57.69 C78.36,57.69 79.8,60.33 80.96,60.33 Z" fill="#D57657"/>
</svg>