<svg viewBox="0 0 128 128" xmlns="http://www.w3.org/2000/svg">
  <defs/>
  <path d="M60.77,26.74 C41.76,26.31 15.83,32.2 7.18,52.35 C-1.25,71.98 3.69,92.11 17.4,102.58 C28.91,111.37 40.1,115.63 62.38,115.92 C83.52,116.19 98.09,111.79 109.77,103.58 C128.88,90.14 128.74,58.11 115.51,44.33 C102.27,30.54 86.17,27.31 60.77,26.74 Z" fill="#858585"/>
  <path d="M60.28,28.06 C48.57,27.68 19.13,32.25 19.01,49.87 C18.9,65.99 46.3,71.61 65.11,71.47 C81.18,71.35 109.46,64.14 108.2,47.83 C107.12,33.74 80.08,28.7 60.28,28.06 Z" fill="#FF2A23"/>
  <path d="M53.55,56.78 C53.55,56.78 46.21,56.59 41.75,53.97 C38.06,51.8 36.54,49.88 36.45,47.31 C36.37,45.06 37.98,43.94 39.98,42.25 C41.52,40.96 44.48,38.07 46.08,34.3 C47.69,30.53 50.82,21.41 58.13,18.2 C64.81,15.27 71.6,14.13 84.45,13.08 C99.21,11.88 104.33,12.08 107.14,12.17 C111.88,12.33 113.27,13.25 113.7,15.13 C114,16.46 113.86,17.43 113.86,17.43 L92.5,24.26 L66.8,26.51 C66.8,26.51 62.54,32.29 62.54,32.77 C62.54,33.25 66.72,42.41 66.72,42.41 C66.72,42.41 70.33,45.93 71.94,47.06 C73.55,48.18 78.93,51.73 88.08,53.01 C97.23,54.29 107.86,52.21 107.86,52.21 C107.86,52.21 106.58,62.16 89.67,67.61 C74.46,72.51 65.11,71.48 65.11,71.48 C65.11,71.48 58.2,70.6 54.99,65.38 C51.78,60.16 53.55,56.78 53.55,56.78 Z" fill="#DD0C28"/>
  <path d="M43.51,47.47 C45.77,49.14 48.09,47.39 50.26,43.37 C52.89,38.5 55.05,29.34 58.68,25.88 C62.05,22.67 68.17,20.7 83.1,19.2 C97.78,17.72 108.23,17.27 107.11,14.62 C106.07,12.18 74.99,15.82 69.53,16.87 C64.07,17.91 55.88,19.36 51.54,27.79 C47.2,36.22 45.68,39.92 43.67,42.32 C41.93,44.42 41.99,46.34 43.51,47.47 Z" fill="#FF2A23"/>
  <path d="M71.99,47.09 C71.99,47.09 65.09,41.48 65.88,34.08 C66.42,29.04 71.2,28.62 75.51,28.26 C79.88,27.9 96.71,26.18 102.18,25.1 C107.18,24.11 110.72,22.37 111.81,21.36 C113.94,19.39 113.9,17.17 113.9,17.17 C113.9,17.17 109,19.06 101.96,20.5 C94.92,21.94 71.84,23.45 68.39,24.24 C64.94,25.03 59.79,27.45 60.2,35.24 C60.56,42.14 64.8,45.61 66.6,46.67 C69.91,48.6 71.99,47.09 71.99,47.09 Z" fill="#AC101B"/>
  <path d="M3.64,64.7 C3.64,64.7 11.99,91.89 63.13,91.74 C118.19,91.58 124.34,64.05 124.34,64.05 C124.34,64.05 125.54,68.44 124.66,77.13 C124.05,83.13 121.56,88.39 121.56,88.39 C121.56,88.39 111.66,108.96 64.61,109.7 C22.13,110.36 7.32,90.36 7.32,90.36 C7.32,90.36 3.92,84.19 3.21,78.27 C2.34,71.09 3.56,64.45 3.64,64.7 Z" fill="#B0B0B0"/>
  <path d="M7.62,61.62 C6.45,63.57 6.55,66.36 8.57,69.07 C13.52,75.69 24.01,80.93 28.54,81.29 C33.07,81.65 34.02,79.44 33.43,77.71 C32.85,76.03 27.53,75.92 19.9,70.62 C13.75,66.34 12.04,62.11 11.08,61.2 C10,60.19 8.51,60.13 7.62,61.62 Z" fill="#E1E1E1"/>
  <path d="M37.24,81.23 C36.82,83.08 37.52,84.81 40.4,85.34 C43.32,85.88 44.51,84.45 44.75,82.66 C44.99,80.87 44.03,79.2 41.53,78.73 C39.03,78.25 37.68,79.31 37.24,81.23 Z" fill="#E1E1E1"/>
  <path d="M14.82,52.04 C14.18,51.6 12.95,51.56 12.41,52.59 C11.98,53.39 12.01,54.2 12.81,54.93 C13.35,55.42 14.57,55.3 15.22,54.45 C15.91,53.57 15.41,52.44 14.82,52.04 Z" fill="#5D6165"/>
  <path d="M22.28,64.4 C21.18,64.36 20.6,65.09 20.63,66.19 C20.67,67.29 21.22,67.87 22.28,67.87 C23.34,67.87 23.78,66.96 23.74,66.04 C23.7,65.12 23.23,64.44 22.28,64.4 Z" fill="#5D6165"/>
  <path d="M33.87,71.09 C33.45,71.98 33.69,73.14 34.64,73.61 C35.59,74.09 36.68,73.66 37.02,73.02 C37.61,71.92 37.2,70.94 36.29,70.39 C35.37,69.85 34.24,70.33 33.87,71.09 Z" fill="#5D6165"/>
  <path d="M53.58,80.13 C53.48,81.34 54.24,81.92 55.34,82.03 C56.44,82.14 57.28,81.01 57.21,80.06 C57.14,79.11 56.52,78.38 55.31,78.41 C54.1,78.44 53.66,79.28 53.58,80.13 Z" fill="#5D6165"/>
  <path d="M68.94,83.01 C68.03,82.94 66.56,83.16 66.53,84.98 C66.49,86.92 68.33,87.16 68.91,87.1 C69.93,86.99 70.85,85.93 70.63,84.69 C70.46,83.79 69.71,83.08 68.94,83.01 Z" fill="#5D6165"/>
  <path d="M75.79,78.01 C75.37,78.9 75.61,80.06 76.56,80.53 C77.51,81.01 78.6,80.58 78.94,79.94 C79.53,78.84 79.12,77.86 78.21,77.31 C77.29,76.77 76.15,77.25 75.79,78.01 Z" fill="#5D6165"/>
  <path d="M93.97,79.7 C93.25,79.17 91.87,79.12 91.29,80.07 C90.69,81.05 90.85,82.13 91.78,82.79 C92.41,83.24 93.8,83.24 94.4,82.23 C95,81.21 94.58,80.15 93.97,79.7 Z" fill="#5D6165"/>
  <path d="M110.02,67.83 C109.17,67.76 107.8,67.97 107.76,69.68 C107.72,71.49 109.45,71.72 109.98,71.66 C110.94,71.56 111.79,70.57 111.59,69.4 C111.44,68.55 110.73,67.88 110.02,67.83 Z" fill="#5D6165"/>
  <path d="M97.8,72.81 C97.03,72.83 96.22,73.42 96.16,74.33 C96.1,75.24 96.5,76.03 97.68,76.07 C98.81,76.11 99.39,75.4 99.42,74.41 C99.45,73.26 98.48,72.79 97.8,72.81 Z" fill="#5D6165"/>
  <path d="M115.26,53.45 C114.17,53.45 113.46,54.12 113.54,55.35 C113.62,56.58 114.45,56.96 115.26,56.95 C116.49,56.93 117.04,55.96 116.92,54.95 C116.82,54.18 116.35,53.45 115.26,53.45 Z" fill="#5D6165"/>
</svg>