<svg viewBox="0 0 128 128" xmlns="http://www.w3.org/2000/svg">
  <defs>
    <linearGradient id="SVGID_1_" gradientUnits="userSpaceOnUse" x1="90.042" x2="84.8327" y1="76.7846" y2="95.8543">
      <stop offset="9.566327e-04" stop-color="#6A463E"/>
      <stop offset="1" stop-color="#8C685C"/>
    </linearGradient>
    <linearGradient id="SVGID_2_" gradientUnits="userSpaceOnUse" x1="73.3128" x2="74.15" y1="85.1829" y2="100.6712">
      <stop offset="9.566327e-04" stop-color="#6A463E"/>
      <stop offset="1" stop-color="#8C685C"/>
    </linearGradient>
    <linearGradient id="SVGID_3_" gradientUnits="userSpaceOnUse" x1="27.9581" x2="27.9581" y1="84.2115" y2="67.9242">
      <stop offset="0.1386" stop-color="#BF967C"/>
      <stop offset="0.9901" stop-color="#BF967C" stop-opacity="0.0115"/>
      <stop offset="1" stop-color="#BF967C" stop-opacity="0"/>
    </linearGradient>
  </defs>
  <path d="M14.18,41.9 C15.35,41.8 15.44,41.49 15.44,36.7 C15.44,32.92 15.03,31.82 15.03,31.82 C15.03,31.82 11.67,31.14 11.05,27.03 C10.52,23.5 13.4,18.69 12.9,17.68 C12.38,16.63 11.51,16.13 8.08,19.64 C4.67,23.12 2.95,28.39 4.79,34.6 C7.02,42.13 13.24,41.98 14.18,41.9 Z" fill="#F7CC93"/>
  <path d="M86.39,69.93 C88.59,69.17 91.17,69.45 93,70.88 C95.44,72.8 96.12,76.18 96.31,79.28 C96.4,80.84 95.83,85.94 95.54,87.02 C94.79,89.78 94.63,92.78 94.04,95.58 C93.32,98.99 90.8,105.21 90.04,107.34 C89.86,107.85 89.48,108.25 88.99,108.48 C87.95,108.96 86.02,109.65 83.99,109.32 C82.84,109.13 82.01,108.81 81.42,108.49 C80.62,108.05 80.25,107.12 80.49,106.25 C81.07,104.17 82.26,99.85 82.88,97.19 C83.67,93.77 83.93,90.28 83.51,88.05 C82.78,84.16 80.25,81.23 80.9,77.01 C81.32,74.31 82.9,71.74 85.29,70.42 C85.63,70.23 86,70.06 86.39,69.93 Z" fill="url(#SVGID_1_)"/>
  <path d="M72.27,22.88 C72.27,22.88 78.38,23.85 90.55,32.74 C94.99,35.98 103.28,37.39 106.04,38.09 C113.79,40.04 118.32,45.9 119.16,52.46 C120,59.02 119.44,69.76 117.9,75.48 C116.37,81.2 115.4,86.36 115.25,88.6 C114.97,92.79 115.51,98.02 114.83,102.13 C114.14,106.36 112.88,111.2 112.32,113.26 C112.09,114.11 111.53,114.84 110.74,115.24 C109.78,115.73 108.24,116.16 105.97,115.87 C105.15,115.77 104.47,115.62 103.91,115.45 C102.3,114.97 101.37,113.31 101.75,111.68 C102.67,107.72 104.66,98.69 104.23,95.99 C103.67,92.5 98.23,86.64 97.49,80.59 C97.49,80.59 93.33,81.85 82.7,86.04 C79.68,87.23 77.41,88.46 75.77,93.76 C73.43,101.36 72.57,116.82 72.34,121.19 C72.28,122.29 71.58,123.24 70.55,123.61 C69.66,123.93 68.33,124.18 66.35,124.18 C64.21,124.18 62.79,123.88 61.87,123.53 C60.85,123.14 60.2,122.15 60.18,121.06 C60.06,115.18 59.5,91.22 57.91,87.06 C56.1,82.32 47.79,85.43 46.33,89.43 C45.63,91.35 45.72,92.29 45.91,94.08 C46.18,96.61 47.72,106.64 47.17,111.8 C46.7,116.17 46.04,120 45.72,121.08 C45.66,121.29 45.54,121.48 45.37,121.62 C44.59,122.31 42.02,124.22 37.95,123.82 C35.7,123.6 34.39,122.75 33.71,122.11 C33.32,121.75 33.22,121.17 33.48,120.71 C34.36,119.11 36.41,114.92 35.86,111.61 C35.16,107.42 25.32,79.89 25.32,79.89 L42.14,42.4 L72.27,22.88 Z" fill="url(#SVGID_2_)"/>
  <path d="M72.27,22.88 C72.27,22.88 78.38,23.85 90.55,32.74 C94.99,35.98 103.28,37.39 106.04,38.09 C113.79,40.04 118.32,45.9 119.16,52.46 C120,59.02 119.44,69.76 117.9,75.48 C116.37,81.2 115.4,86.36 115.25,88.6 C114.97,92.79 115.51,98.02 114.83,102.13 C114.14,106.36 112.88,111.2 112.32,113.26 C112.09,114.11 111.53,114.84 110.74,115.24 C109.78,115.73 108.24,116.16 105.97,115.87 C105.15,115.77 104.47,115.62 103.91,115.45 C102.3,114.97 101.37,113.31 101.75,111.68 C102.67,107.72 104.66,98.69 104.23,95.99 C103.67,92.5 98.23,86.64 97.49,80.59 C97.49,80.59 93.33,81.85 82.7,86.04 C79.68,87.23 77.41,88.46 75.77,93.76 C73.43,101.36 72.57,116.82 72.34,121.19 C72.28,122.29 71.58,123.24 70.55,123.61 C69.66,123.93 68.33,124.18 66.35,124.18 C64.21,124.18 62.79,123.88 61.87,123.53 C60.85,123.14 60.2,122.15 60.18,121.06 C60.06,115.18 59.5,91.22 57.91,87.06 C56.1,82.32 46.79,85.2 46.33,89.43 L42.14,42.41 L72.27,22.88 Z" fill="#8C685C"/>
  <path d="M83.4,48.09 C83.84,44.59 85.7,45.32 85.97,41.87 C86.25,38.38 83.88,38.4 83.81,35.73 C83.76,33.64 85.88,31.76 84.69,29.13 C83.32,26.11 81.33,26.8 79.83,25.57 C77.68,23.81 79.48,21.66 77.32,19.5 C75.18,17.36 73.17,18.63 71.46,17.59 C69.93,16.66 70.75,14.67 67.96,13.35 C65.13,12.01 64.25,14.21 60.99,12.42 C59.73,11.73 58.17,9.53 54.88,9.91 C51.58,10.29 51.38,12.3 48.58,12.72 C45.79,13.14 45.16,11.27 41.39,12.02 C36.7,12.96 34.39,18.17 33.01,22.22 C29.99,31.09 25.77,66.38 25.85,68.39 C26,72.44 30.26,77.69 32.65,80.88 C34.7,83.61 38.38,85.62 40.62,88.14 C42.86,90.66 47.38,90.89 50.07,89.12 C50.79,88.64 52.01,86.5 55.28,87.35 C60.07,88.61 62.98,87.53 64.57,83.27 C64.8,82.66 65.29,80.69 70.14,80.05 C72.63,79.72 74.72,76.65 73.79,73.2 C73.34,71.51 75.28,69.2 77.32,68.61 C80.06,67.82 81.09,65.26 80.72,62.85 C80.52,61.54 81.36,59.19 83.02,58.09 C85.13,56.69 85.79,54.27 84.76,51.95 C84.14,50.58 83.21,49.59 83.4,48.09 Z" fill="#6A463E"/>
  <path d="M83.7,35.73 C83.52,34.09 84.44,32.58 84.46,31.22 C84.48,30.54 84.32,29.92 83.97,29.36 C83.62,28.75 83.18,28.26 82.69,27.96 C82.19,27.65 81.62,27.51 80.8,27.28 C80.4,27.16 79.94,27 79.49,26.74 C79.04,26.45 78.66,26.16 78.31,25.73 C77.56,24.9 77.36,23.7 77.27,22.95 C77.17,22.15 77.07,21.61 76.82,21.22 C76.6,20.83 76.16,20.43 75.72,20.15 C75.28,19.89 74.88,19.77 74.25,19.73 C73.64,19.67 72.77,19.76 71.64,19.46 C71.08,19.29 70.52,19.04 69.98,18.56 C69.45,18.08 69.12,17.48 68.93,17.06 C68.54,16.18 68.41,15.84 68.12,15.55 C67.86,15.27 67.35,14.97 66.86,14.8 C66.37,14.66 66.09,14.62 65.43,14.73 C64.81,14.83 63.69,15.07 62.6,14.88 C62.06,14.8 61.56,14.63 61.1,14.45 C60.86,14.36 60.65,14.25 60.44,14.14 L60.12,13.98 L59.75,13.75 C58.91,13.16 58.45,12.7 57.92,12.36 C56.91,11.67 55.96,11.5 54.76,11.65 C54.16,11.73 53.68,11.88 53.18,12.17 C52.67,12.44 52.09,12.96 51.22,13.45 C50.36,13.95 49.32,14.22 48.37,14.28 C47.39,14.36 46.3,14.11 45.53,13.81 C44.74,13.51 44.21,13.3 43.6,13.2 C43,13.11 42.35,13.13 41.67,13.21 C40.39,13.39 39.15,13.94 38.09,14.87 C36.99,15.76 36.07,16.94 35.27,18.21 C34.87,18.85 34.5,19.52 34.15,20.2 C33.78,20.87 33.44,21.57 33.11,22.27 L32.92,22.21 C33.42,20.75 33.97,19.3 34.68,17.92 C35.38,16.54 36.23,15.22 37.35,14.13 C39.51,11.88 43.13,11.04 46.01,12.32 C47.43,12.84 49.05,12.71 50.34,11.95 C50.99,11.58 51.56,11.05 52.24,10.64 C52.91,10.22 53.68,9.95 54.45,9.82 C56,9.52 57.69,9.85 58.99,10.75 C59.66,11.17 60.24,11.71 60.85,12.13 C61.48,12.5 62.19,12.82 62.91,12.93 C63.64,13.07 64.37,12.92 65.15,12.8 C65.92,12.66 66.77,12.71 67.52,12.99 C68.26,13.27 68.97,13.67 69.53,14.26 C70.1,14.85 70.38,15.64 70.66,16.33 C70.81,16.67 70.99,16.99 71.25,17.23 C71.51,17.47 71.84,17.64 72.18,17.75 C72.88,17.96 73.66,17.93 74.44,18.01 C76.04,18.11 77.52,19.11 78.25,20.54 C79.01,22 78.44,23.74 79.4,24.93 C79.62,25.23 79.91,25.47 80.2,25.68 C80.51,25.88 80.86,26.03 81.22,26.16 C81.94,26.41 82.71,26.64 83.35,27.13 C83.98,27.62 84.44,28.3 84.76,29 C85.11,29.71 85.24,30.53 85.13,31.31 C84.94,32.89 83.91,34.21 83.91,35.73 L83.7,35.73 Z" fill="#AF7464"/>
  <path d="M15.62,42.14 C15.62,42.14 14.31,45.64 14.88,52.65 C15.35,58.42 17.9,63.3 17.48,67.07 C17.06,70.84 15.75,75.21 18.69,79.12 C20.01,80.88 21.93,82.02 24,82.67 C25.65,83.19 29.12,83.14 29.12,83.14 C29.12,83.14 30.04,87.42 30.87,88.94 C32.02,91.02 34.37,92.74 36.96,94.76 C36.03,92.87 37.16,89.45 38.45,87.78 C42.74,82.23 40.27,79.64 41.54,78.76 C53.44,70.47 58.32,53.45 58.32,53.45 C58.32,53.45 64.81,54.01 66.76,53.45 C68.71,52.89 70.67,50.94 68.16,48.15 C65.65,45.36 58.6,41.45 57.9,39.22 C57.2,36.99 27.9,35.03 27.9,35.03 L15.62,42.14 Z" fill="#8C685C"/>
  <path d="M119.22,53.42 C120.16,61.59 121.14,69.91 124.52,77.4 C124.95,78.36 125.43,79.64 124.65,80.34 C123.54,81.34 121.66,79.84 121.22,79.33 C116.85,74.29 114.51,66.71 113.79,65.27" fill="#8C685C"/>
  <path d="M23.58,54.18 A2.68 3.3 0 1 1 18.22,54.18 A2.68 3.3 0 1 1 23.58,54.18 Z"/>
  <path d="M43.2,54.18 A2.68 3.3 0 1 1 37.84,54.18 A2.68 3.3 0 1 1 43.2,54.18 Z"/>
  <path d="M22.12,69.56 C20.9,70.65 19.56,73.6 19.67,76.79 C19.75,79.3 20.52,80.93 22.71,82.22 C25.94,83.59 29.33,83.85 33.86,82.12 C39.15,78.65 34.21,71.46 32.85,69.96 C30.78,67.71 24.23,67.66 22.12,69.56 Z" fill="url(#SVGID_3_)"/>
  <path d="M31.06,72.69 C29.99,71.64 28.43,72.96 26.01,72.96 C23.55,72.96 22.59,71.67 21.61,72.96 C21.13,73.59 21.36,74.45 21.76,75.01 C22.16,75.57 22.98,76.03 23.94,76.76 C24.37,77.09 23.65,77.77 23.31,78.1 C22.92,78.46 22.16,79.53 22.89,80.1 C23.35,80.46 23.64,80.21 24.62,79.74 C25.29,79.42 25.87,79.36 26.65,79.41 C27.45,79.47 28.6,79.98 29.2,80.29 C29.46,80.42 29.72,80.56 30,80.6 C30.29,80.64 30.61,80.57 30.79,80.35 C31.1,79.97 30.87,79.39 30.58,78.99 C30.15,78.39 29.41,77.89 28.7,77.48 C28.38,77.29 28.17,77 28.47,76.78 C29.32,76.16 30.23,75.69 30.95,74.83 C31.49,74.18 31.65,73.27 31.06,72.69 Z" fill="#212121"/>
  <path d="M91.69,102.91 C86.84,103.81 83.38,103.32 81.52,102.65 C81.49,102.77 81.43,102.89 81.37,103.01 C81.03,104.28 80.71,105.44 80.48,106.25 C80.24,107.12 80.61,108.05 81.41,108.49 C82,108.81 82.83,109.14 83.98,109.32 C86.01,109.65 87.94,108.96 88.98,108.48 C89.47,108.25 89.85,107.85 90.03,107.34 C90.36,106.43 91,104.77 91.69,102.91 Z" fill="#BF967C"/>
  <path d="M102.38,108.88 C102.15,109.95 101.92,110.92 101.74,111.69 C101.36,113.32 102.3,114.98 103.9,115.46 C104.46,115.63 105.14,115.77 105.96,115.88 C108.22,116.17 109.76,115.73 110.73,115.25 C111.52,114.85 112.08,114.12 112.31,113.27 C112.56,112.36 112.94,110.92 113.35,109.23 C113.37,109.09 113.42,108.94 113.45,108.8 C107.55,110.19 104.45,109.57 102.38,108.88 Z" fill="#BF967C"/>
  <path d="M72.63,116.1 C67.4,118.14 62.62,117.32 60.06,116.56 C60.06,116.57 60.06,116.58 60.06,116.59 C60.11,118.48 60.14,120.04 60.16,121.06 C60.18,122.15 60.84,123.14 61.85,123.53 C62.78,123.88 64.19,124.18 66.33,124.18 C68.31,124.18 69.64,123.93 70.53,123.61 C71.56,123.24 72.26,122.29 72.32,121.19 C72.38,120.1 72.48,118.3 72.63,116.1 Z" fill="#BF967C"/>
  <path d="M35.46,115.93 C34.91,117.51 33.89,119.95 33.46,120.72 C33.2,121.18 33.31,121.76 33.69,122.12 C34.37,122.76 35.68,123.61 37.93,123.83 C42,124.23 44.56,122.32 45.35,121.63 C45.52,121.48 45.63,121.3 45.7,121.09 C45.89,120.43 46.21,118.74 46.54,116.53 C46.57,116.28 46.59,116.03 46.63,115.79 C42.18,117.74 37.55,116.96 35.46,115.93 Z" fill="#BF967C"/>
  <path d="M45.2,17.76 C45.2,17.76 29.94,11.99 20.36,18.78 C10.78,25.57 10.87,32.83 10.59,36.08 C10.31,39.34 11.52,43.99 10.59,46.31 C9.66,48.64 9.71,52.89 13.38,54.59 C18.22,56.82 20.9,52.45 20.9,52.45 C20.9,52.45 25.2,56.37 31.9,55.92 C38.6,55.47 39.81,51.24 39.81,51.24 C39.81,51.24 43.93,56.18 49.02,54.31 C56.09,51.71 56.09,42.03 56.09,42.03 L45.49,18.77 L45.2,17.76 Z" fill="#6A463E"/>
  <path d="M48.02,20.8 C46.88,19.73 45.59,18.99 44.23,18.39 C42.89,17.76 41.48,17.33 40.07,16.95 C38.65,16.62 37.23,16.3 35.78,16.18 C34.35,16.01 32.91,15.95 31.48,16.04 C28.63,16.13 25.83,16.78 23.19,17.93 C21.88,18.52 20.59,19.22 19.36,20.07 C18.12,20.91 16.97,21.9 15.76,22.94 L15.6,22.82 C16.51,21.55 17.52,20.36 18.65,19.29 C19.8,18.23 21.07,17.31 22.43,16.55 C25.15,15.01 28.26,14.19 31.38,14.04 C34.51,13.91 37.64,14.41 40.58,15.46 C42.05,15.99 43.47,16.65 44.78,17.5 C46.08,18.35 47.32,19.37 48.17,20.7 L48.02,20.8 Z" fill="#AF7464"/>
  <path d="M56.7,43.56 C55.69,43.49 52.81,43.02 52.38,37.95 C52.1,34.63 54.22,32.93 54.22,32.93 C54.22,32.93 57.01,30.7 56.08,26.79 C55.15,22.88 53.1,18.99 53.48,17.86 C53.92,16.51 55.5,16.09 59.15,19.81 C62.78,23.51 65.67,29.11 63.71,35.72 C61.48,43.22 57.95,43.65 56.7,43.56 Z" fill="#FADCB2"/>
  <path d="M12.53,27.77 C11.83,30.49 11.74,33.03 11.95,35.59 C12.08,36.87 12.22,38.14 12.46,39.44 L12.75,41.47 C12.8,41.82 12.84,42.19 12.87,42.61 C12.88,42.82 12.9,43.04 12.88,43.31 C12.88,43.54 12.79,43.98 12.75,44.13 C12.54,44.93 12.31,45.54 12.11,46.19 C11.91,46.82 11.73,47.43 11.56,47.99 C11.26,49.01 11.25,50.21 11.45,51.2 C11.68,52.2 12.25,53.13 13.2,53.82 C14.14,54.53 15.39,55 16.75,55.1 L16.79,55.3 C15.42,55.58 13.99,55.35 12.74,54.75 C11.49,54.15 10.46,53.05 9.99,51.73 C9.51,50.41 9.46,48.98 9.73,47.62 C10,46.27 10.48,44.97 10.81,43.67 C10.95,43.06 10.86,42.38 10.79,41.71 L10.55,39.68 C10.4,38.32 10.3,36.95 10.32,35.58 C10.37,32.85 10.95,30.07 12.34,27.69 L12.53,27.77 Z" fill="#AF7464"/>
  <path d="M19.76,43.2 C19.83,44.91 20.07,46.38 20.5,47.66 C20.74,48.29 20.97,48.89 21.33,49.43 C21.65,49.98 22.02,50.54 22.45,51.01 C22.64,51.27 22.88,51.49 23.09,51.74 L23.82,52.39 C24.31,52.85 24.89,53.21 25.48,53.62 C26.69,54.38 28.06,55.07 29.61,55.8 L29.61,56 C27.99,55.99 26.38,55.67 24.88,55.07 C23.39,54.46 21.97,53.55 20.92,52.29 C19.9,51.02 19.15,49.5 18.94,47.88 C18.73,46.26 18.95,44.61 19.57,43.1 L19.76,43.2 Z" fill="#AF7464"/>
  <path d="M56.5,49.78 C56.78,52.98 58.34,53.63 58.34,53.63 C57.79,55.48 56.39,59.13 55.39,60.76 C51.43,67.24 47.37,73.85 41.58,78.77 C41.4,78.92 41.21,79.09 41.11,79.3 C41.03,79.49 41.02,79.7 41.02,79.91 C41.01,81.23 41.05,82.56 40.64,83.83 C40.07,85.58 38.77,86.97 37.88,88.58 C36.9,90.34 36.4,92.36 36.47,94.38 C37.32,89.91 41.94,88.07 43.57,84.1 C44.3,82.32 44.45,80.1 46.03,78.99 C46.85,78.42 47.89,78.28 48.86,78.06 C50.65,77.65 52.4,76.35 52.98,74.55 C53.5,72.94 53.18,71.02 54.22,69.69 C55.58,67.94 58.62,68.07 59.69,66.14 C60.52,64.65 59.68,62.81 59.75,61.1 C59.81,59.41 60.86,57.8 62.37,57.05 C63.55,56.47 64.94,56.49 66.2,56.09 C69.35,55.09 69.69,52.79 69.16,51.57 C68.35,52.71 66.89,53.32 65.53,53.4 C60.23,53.68 58,51.46 56.5,49.78 Z" fill="#3B2622"/>
</svg>