<svg viewBox="0 0 128 128" xmlns="http://www.w3.org/2000/svg">
  <defs>
    <radialGradient id="SVGID_7_" cx="53.1968" cy="-210.724413" gradientTransform="matrix(1 0 0 -0.6035 0 0)" gradientUnits="userSpaceOnUse" r="68.2194">
      <stop offset="0.5595" stop-color="#F5F5F5"/>
      <stop offset="1" stop-color="#C6C6C6"/>
    </radialGradient>
    <linearGradient id="SVGID_8_" gradientTransform="matrix(1 0 0 -1 0 0)" gradientUnits="userSpaceOnUse" x1="87.7915" x2="102.2494" y1="-114.4018" y2="-116.3172">
      <stop offset="0" stop-color="#9E9E9E" stop-opacity="0"/>
      <stop offset="0.788" stop-color="#9E9E9E"/>
    </linearGradient>
    <linearGradient id="SVGID_9_" gradientTransform="matrix(1 0 0 -1 0 0)" gradientUnits="userSpaceOnUse" x1="52.079" x2="52.079" y1="-105.159" y2="-124.1881">
      <stop offset="3.200000e-03" stop-color="#80CBC4"/>
      <stop offset="0.3326" stop-color="#73C6BE"/>
      <stop offset="0.9409" stop-color="#51B8AE"/>
      <stop offset="1" stop-color="#4DB6AC"/>
    </linearGradient>
    <linearGradient id="SVGID_10_" gradientTransform="matrix(1 0 0 -1 0 0)" gradientUnits="userSpaceOnUse" x1="38.534" x2="38.534" y1="-116.7973" y2="-96.594">
      <stop offset="0.335" stop-color="#E0E0E0"/>
      <stop offset="0.668" stop-color="#D0D0D0"/>
      <stop offset="0.9874" stop-color="#BDBDBD"/>
    </linearGradient>
    <linearGradient id="SVGID_11_" gradientTransform="matrix(-1 0 0 -1 0 0)" gradientUnits="userSpaceOnUse" x1="-65.473" x2="-65.473" y1="-116.7973" y2="-96.594">
      <stop offset="0.335" stop-color="#E0E0E0"/>
      <stop offset="0.668" stop-color="#D0D0D0"/>
      <stop offset="0.9874" stop-color="#BDBDBD"/>
    </linearGradient>
    <linearGradient id="SVGID_12_" gradientTransform="matrix(1 0 0 -1 0 0)" gradientUnits="userSpaceOnUse" x1="51.6545" x2="51.6545" y1="-44.309" y2="-68.502">
      <stop offset="0.2028" stop-color="#B3E5FC" stop-opacity="0.5"/>
      <stop offset="1" stop-color="#B3E5FC" stop-opacity="0.2"/>
    </linearGradient>
    <linearGradient id="SVGID_16_" gradientTransform="matrix(1 0 0 -1 0 0)" gradientUnits="userSpaceOnUse" x1="97.8423" x2="123.5855" y1="-104.6692" y2="-108.0796">
      <stop offset="0.4369" stop-color="#F5F5F5"/>
      <stop offset="1" stop-color="#C6C6C6"/>
    </linearGradient>
    <linearGradient id="SVGID_17_" gradientTransform="matrix(1 0 0 -1 0 0)" gradientUnits="userSpaceOnUse" x1="118.4361" x2="95.96" y1="-52.0234" y2="-104.7345">
      <stop offset="0" stop-color="#B3E5FC" stop-opacity="0.8"/>
      <stop offset="0.0826" stop-color="#AEE3FC" stop-opacity="0.8165"/>
      <stop offset="0.6744" stop-color="#8DD8FA" stop-opacity="0.9349"/>
      <stop offset="1" stop-color="#81D4FA"/>
    </linearGradient>
    <radialGradient id="SVGID_18_" cx="127.933557" cy="-61.572355" gradientTransform="matrix(0.9732 0.2302 0.2302 -0.9732 0 0)" gradientUnits="userSpaceOnUse" r="25.3664">
      <stop offset="0" stop-color="#CE93D8"/>
      <stop offset="0.2054" stop-color="#CA8AD5"/>
      <stop offset="0.5366" stop-color="#BF73CC"/>
      <stop offset="0.9503" stop-color="#AD4CBE"/>
      <stop offset="1" stop-color="#AB47BC"/>
    </radialGradient>
    <radialGradient id="SVGID_1_" cx="66.694" cy="167.243326" gradientTransform="matrix(1 0 0 0.4912 0 0)" gradientUnits="userSpaceOnUse" r="23.419">
      <stop offset="0.7275" stop-color="#6D4C41" stop-opacity="0"/>
      <stop offset="1" stop-color="#6D4C41"/>
    </radialGradient>
    <radialGradient id="SVGID_2_" cx="-47.9648" cy="-147.332265" gradientTransform="matrix(-0.9057 0.4238 -0.3144 -0.6719 0 0)" gradientUnits="userSpaceOnUse" r="6.9209">
      <stop offset="0.6628" stop-color="#6D4C41"/>
      <stop offset="1" stop-color="#6D4C41" stop-opacity="0"/>
    </radialGradient>
    <radialGradient id="SVGID_3_" cx="-64.287977" cy="80.65236" gradientTransform="matrix(-0.0746 -0.9972 0.8311 -0.0622 0 0)" gradientUnits="userSpaceOnUse" r="30.3992">
      <stop offset="0.7247" stop-color="#6D4C41" stop-opacity="0"/>
      <stop offset="1" stop-color="#6D4C41"/>
    </radialGradient>
    <radialGradient id="SVGID_4_" cx="-56.506879" cy="-44.080375" gradientTransform="matrix(0.0746 -0.9972 -0.8311 -0.0622 0 0)" gradientUnits="userSpaceOnUse" r="30.3992">
      <stop offset="0.7247" stop-color="#6D4C41" stop-opacity="0"/>
      <stop offset="1" stop-color="#6D4C41"/>
    </radialGradient>
    <radialGradient id="SVGID_5_" cx="-37.5502" cy="167.243326" gradientTransform="matrix(-1 0 0 0.4912 0 0)" gradientUnits="userSpaceOnUse" r="23.419">
      <stop offset="0.7275" stop-color="#6D4C41" stop-opacity="0"/>
      <stop offset="1" stop-color="#6D4C41"/>
    </radialGradient>
    <radialGradient id="SVGID_6_" cx="46.46251" cy="-87.774415" gradientTransform="matrix(0.9057 0.4238 0.3144 -0.6719 0 0)" gradientUnits="userSpaceOnUse" r="6.9209">
      <stop offset="0.6628" stop-color="#6D4C41"/>
      <stop offset="1" stop-color="#6D4C41" stop-opacity="0"/>
    </radialGradient>
    <linearGradient id="SVGID_13_" gradientTransform="matrix(1 0 0 -1 0 0)" gradientUnits="userSpaceOnUse" x1="80.2091" x2="80.2091" y1="-55.7805" y2="-43.153">
      <stop offset="0" stop-color="#BDBDBD"/>
      <stop offset="1" stop-color="#E0E0E0"/>
    </linearGradient>
    <linearGradient id="SVGID_14_" gradientTransform="matrix(1 0 0 -1 0 0)" gradientUnits="userSpaceOnUse" x1="25.0022" x2="25.0022" y1="-55.6138" y2="-43.4919">
      <stop offset="0" stop-color="#BDBDBD"/>
      <stop offset="1" stop-color="#E0E0E0"/>
    </linearGradient>
    <radialGradient id="SVGID_15_" cx="56.128" cy="37.000148" gradientTransform="matrix(0 1 1.4084 0 0 0)" gradientUnits="userSpaceOnUse" r="22.8959">
      <stop offset="0" stop-color="#F5F5F5"/>
      <stop offset="0.6761" stop-color="#EEEEEE"/>
      <stop offset="1" stop-color="#E0E0E0"/>
    </radialGradient>
    <radialGradient id="SVGID_19_" cx="62.534795" cy="72.086264" gradientTransform="matrix(0.3076 0.9515 0.706 -0.2282 0 0)" gradientUnits="userSpaceOnUse" r="35.6328">
      <stop offset="0.6985" stop-color="#6D4C41" stop-opacity="0"/>
      <stop offset="1" stop-color="#6D4C41"/>
    </radialGradient>
    <radialGradient id="SVGID_20_" cx="33.175735" cy="10.983254" gradientTransform="matrix(0.8813 0.4726 0.5603 -1.045 0 0)" gradientUnits="userSpaceOnUse" r="9.3426">
      <stop offset="0.58" stop-color="#6D4C41"/>
      <stop offset="1" stop-color="#6D4C41" stop-opacity="0"/>
    </radialGradient>
    <radialGradient id="SVGID_21_" cx="-59.067665" cy="-4.026274" gradientTransform="matrix(-0.9378 -0.3944 -0.2182 0.5285 0 0)" gradientUnits="userSpaceOnUse" r="28.7211">
      <stop offset="0.6985" stop-color="#6D4C41" stop-opacity="0"/>
      <stop offset="1" stop-color="#6D4C41"/>
    </radialGradient>
    <radialGradient id="SVGID_22_" cx="31.6399" cy="-10.401875" gradientTransform="matrix(1 0 0 -1.2233 0 0)" gradientUnits="userSpaceOnUse" r="8.5755">
      <stop offset="0.7016" stop-color="#6D4C41" stop-opacity="0"/>
      <stop offset="1" stop-color="#6D4C41"/>
    </radialGradient>
    <radialGradient id="SVGID_23_" cx="-36.652323" cy="20.293468" gradientTransform="matrix(-0.9657 -0.2598 -0.2432 0.9037 0 0)" gradientUnits="userSpaceOnUse" r="16.0834">
      <stop offset="0.6605" stop-color="#6D4C41" stop-opacity="0"/>
      <stop offset="1" stop-color="#6D4C41"/>
    </radialGradient>
    <radialGradient id="SVGID_24_" cx="32.310509" cy="-28.005599" gradientTransform="matrix(0.9907 0.1363 0.1915 -1.3921 0 0)" gradientUnits="userSpaceOnUse" r="16.8856">
      <stop offset="0.5981" stop-color="#6D4C41" stop-opacity="0"/>
      <stop offset="1" stop-color="#6D4C41"/>
    </radialGradient>
  </defs>
  <path id="hair_2_" d="M87.01,79.85 C85.76,77.58 87.35,75.27 90.07,72.41 C94.38,67.87 99.07,57.34 94.71,46.65 C94.74,46.59 93.85,44.79 93.88,44.73 L92.09,44.64 C91.52,44.56 71.83,44.52 52.12,44.52 C32.41,44.52 12.72,44.56 12.15,44.64 C12.15,44.64 9.5,46.59 9.52,46.65 C5.16,57.34 9.85,67.86 14.16,72.4 C16.87,75.26 18.46,77.57 17.22,79.84 C16.01,82.05 12.41,82.37 12.41,82.37 C12.41,82.37 13.24,84.63 15.24,85.85 C17.09,86.98 19.37,87.24 20.94,87.28 C20.94,87.28 27.09,95.79 43.17,95.79 L52.12,95.79 L61.07,95.79 C77.15,95.79 83.3,87.28 83.3,87.28 C84.87,87.24 87.15,86.98 89,85.85 C91,84.63 91.83,82.37 91.83,82.37 C91.83,82.37 88.22,82.06 87.01,79.85 Z" fill="#543930"/>
  <path d="M52.1,95.79 L52.1,86.35 L80.67,84.09 L83.27,87.29 C83.27,87.29 77.12,95.8 61.04,95.8 L52.1,95.79 Z" fill="url(#SVGID_1_)"/>
  <path d="M83.21,83.16 C78.93,76.66 88.42,74.23 88.42,74.23 C88.42,74.23 88.43,74.24 88.43,74.24 C86.78,76.29 86.03,78.08 87,79.85 C88.21,82.06 91.81,82.38 91.81,82.38 C91.81,82.38 86.9,86.74 83.21,83.16 Z" fill="url(#SVGID_2_)"/>
  <path d="M94.73,46.65 C98.98,57 94.51,67.66 90.32,72.16 C89.75,72.78 87.31,75.17 86.75,77.08 C86.75,77.08 77.21,63.77 74.36,55.95 C73.79,54.37 73.26,52.75 73.19,51.07 C73.14,49.81 73.33,48.31 74.06,47.24 C74.95,45.93 94.22,45.54 94.22,45.54 C94.22,45.55 94.73,46.65 94.73,46.65 Z" fill="url(#SVGID_3_)"/>
  <path d="M9.51,46.65 C5.27,57 9.74,67.66 13.92,72.15 C14.49,72.77 16.93,75.16 17.49,77.07 C17.49,77.07 27.03,63.76 29.88,55.94 C30.46,54.36 30.98,52.74 31.05,51.06 C31.1,49.8 30.91,48.3 30.18,47.23 C29.29,45.92 28.25,46.27 26.74,46.27 C23.86,46.27 11.25,45.53 10.27,45.53 C10.28,45.55 9.51,46.65 9.51,46.65 Z" fill="url(#SVGID_4_)"/>
  <path d="M52.14,95.79 L52.14,86.35 L23.57,84.09 L20.97,87.29 C20.97,87.29 27.12,95.8 43.2,95.8 L52.14,95.79 Z" fill="url(#SVGID_5_)"/>
  <path d="M21.04,83.16 C25.32,76.66 15.83,74.23 15.83,74.23 C15.83,74.23 15.82,74.24 15.82,74.24 C17.47,76.29 18.22,78.08 17.25,79.85 C16.04,82.06 12.44,82.38 12.44,82.38 C12.44,82.38 17.34,86.74 21.04,83.16 Z" fill="url(#SVGID_6_)"/>
  <path d="M51.79,95.9 C28.17,95.97 3.67,103.23 3.67,120.96 L3.67,124 L99.9,124 L99.9,120.96 C99.91,103.23 75.41,95.97 51.79,95.9 Z" fill="url(#SVGID_7_)"/>
  <path d="M89.9,104.59 L84.07,124 L99.9,124 L99.9,120.96 C99.91,113.92 96.04,108.53 89.9,104.59 Z" fill="url(#SVGID_8_)"/>
  <path d="M52,92.53 L42.92,92.53 L42.92,102.51 C42.92,107.02 46.62,110.68 51.18,110.68 L52.83,110.68 C57.39,110.68 61.09,107.02 61.09,102.51 L61.09,92.53 L52,92.53 Z" fill="#99674F"/>
  <path d="M79.44,50.64 L24.78,50.64 C18.89,50.64 14.07,55.78 14.07,62.05 C14.07,68.32 18.89,73.46 24.78,73.46 L79.43,73.46 C85.32,73.46 90.14,68.32 90.14,62.05 C90.14,55.78 85.33,50.64 79.44,50.64 Z" fill="#99674F"/>
  <path d="M52.11,11.27 L52.11,11.27 L52.11,11.27 C34.71,11.27 18.59,29.88 18.59,56.67 C18.59,83.31 35.2,96.48 52.11,96.48 C69.02,96.48 85.63,83.31 85.63,56.67 C85.63,29.88 69.51,11.27 52.11,11.27 Z" fill="#BA8D68"/>
  <path id="nose_3_" d="M55.86,68.26 C55.75,68.22 55.65,68.19 55.54,68.18 L48.46,68.18 C48.35,68.19 48.24,68.22 48.14,68.26 C47.5,68.52 47.15,69.18 47.45,69.89 C47.75,70.6 49.16,72.58 52,72.58 C54.84,72.58 56.25,70.59 56.55,69.89 C56.85,69.19 56.5,68.52 55.86,68.26 Z" fill="#99674F"/>
  <path id="mouth_1_" d="M60.53,76.35 C57.34,78.24 46.9,78.24 43.72,76.35 C41.89,75.26 40.02,76.93 40.78,78.59 C41.53,80.22 47.22,84.01 52.15,84.01 C57.08,84.01 62.7,80.22 63.45,78.59 C64.2,76.92 62.36,75.26 60.53,76.35 Z" fill="#5D4037"/>
  <path d="M43.77,49.97 C42.84,48.74 40.7,46.96 36.54,46.96 C32.38,46.96 30.23,48.75 29.31,49.97 C28.9,50.51 29,51.14 29.29,51.52 C29.55,51.87 30.33,52.2 31.19,51.91 C32.05,51.62 33.73,50.75 36.54,50.73 C39.35,50.75 41.03,51.62 41.89,51.91 C42.75,52.2 43.53,51.88 43.79,51.52 C44.08,51.15 44.18,50.52 43.77,49.97 Z" fill="#613E31"/>
  <path d="M74.92,49.97 C73.99,48.74 71.85,46.96 67.69,46.96 C63.53,46.96 61.38,48.75 60.46,49.97 C60.05,50.51 60.15,51.14 60.44,51.52 C60.7,51.87 61.48,52.2 62.34,51.91 C63.2,51.62 64.88,50.75 67.69,50.73 C70.5,50.75 72.18,51.62 73.04,51.91 C73.9,52.2 74.68,51.88 74.94,51.52 C75.22,51.15 75.32,50.52 74.92,49.97 Z" fill="#613E31"/>
  <path d="M41.47,59.02 A4.93 5.1 0 1 1 31.61,59.02 A4.93 5.1 0 1 1 41.47,59.02 Z" fill="#49362E"/>
  <path d="M72.61,59.02 A4.93 5.1 0 1 1 62.75,59.02 A4.93 5.1 0 1 1 72.61,59.02 Z" fill="#49362E"/>
  <path d="M62.65,105.16 L41.51,105.16 L43.92,124 L60.49,124 Z" fill="url(#SVGID_9_)"/>
  <path d="M42.92,96.22 C37,96.65 34.23,97.16 34.23,97.16 L31.1,104.46 L36.35,108.85 L31.47,115 L38.59,124 L45.97,124 L42.92,96.22 Z" fill="url(#SVGID_10_)"/>
  <path d="M61.09,96.22 C67.01,96.65 69.78,97.16 69.78,97.16 L72.91,104.46 L67.66,108.85 L72.54,115 L65.42,124 L58.04,124 L61.09,96.22 Z" fill="url(#SVGID_11_)"/>
  <path id="nose_2_" d="M55.92,68.21 C55.82,68.17 55.71,68.14 55.6,68.13 L48.61,68.13 C48.5,68.14 48.4,68.17 48.29,68.21 C47.66,68.47 47.31,69.12 47.61,69.82 C47.91,70.52 49.3,72.48 52.1,72.48 C54.9,72.48 56.29,70.52 56.59,69.82 C56.91,69.13 56.56,68.47 55.92,68.21 Z" fill="#99674F"/>
  <path d="M31.1,44.31 L73.75,44.31 L79.54,49.41 L79.54,64.44 C79.54,64.44 75.6,69.94 66.1,67.63 C56.6,65.32 57.87,59.58 52.22,59.58 C46.57,59.58 43.97,68.75 31.6,68.5 C31.6,68.5 25.22,67.94 24.04,63.94 L23.77,47.33 L31.1,44.31 Z" fill="url(#SVGID_12_)"/>
  <path d="M88.28,54.76 C88.29,55.43 88.09,56.08 87.71,56.63 L82.24,64.68 C80.18,67.53 72.94,69.11 72.94,69.11 L81.12,59.97 L79.56,48.47 L72.13,42.67 C72.13,42.67 75.2,42.97 77.37,42.97 C79.54,42.97 81.7,44.36 82.81,45.13 L86.83,47.9 C87.71,48.51 88.23,49.5 88.24,50.57 L88.28,54.76 Z" fill="url(#SVGID_13_)"/>
  <path d="M18.15,59.02 L22,64.68 C24.06,67.53 31.3,69.11 31.3,69.11 L23.12,59.97 L24.68,48.47 L32.11,42.67 C32.11,42.67 29.04,42.97 26.87,42.97 C24.7,42.97 22.54,44.36 21.43,45.13 L18.58,47.1 C17.71,47.7 17.78,58.46 18.15,59.02 Z" fill="url(#SVGID_14_)"/>
  <path d="M71.58,45.63 C72.68,45.63 74.51,45.98 76.06,46.97 C78.16,48.31 78.22,49.86 78.24,50.37 C78.27,51.14 78.3,51.88 78.34,52.62 C78.44,54.93 78.54,57.11 78.54,59.23 C78.54,63.58 74.63,66.61 69.04,66.61 C65.09,66.61 60.62,63.28 58.58,61.04 C56.98,59.29 54.62,58.28 52.1,58.28 C49.58,58.28 47.22,59.29 45.62,61.04 C43.58,63.28 39.11,66.61 35.16,66.61 C29.57,66.61 25.66,63.58 25.66,59.23 C25.66,57.1 25.76,54.92 25.86,52.62 C25.89,51.88 25.93,51.13 25.96,50.37 C25.98,49.86 26.04,48.31 28.14,46.97 C29.69,45.98 31.52,45.63 32.62,45.63 L71.58,45.63 M71.58,42.63 L32.64,42.63 C29.06,42.63 23.2,44.93 22.98,50.25 C22.85,53.45 22.68,56.35 22.68,59.24 C22.68,65.24 27.89,69.62 35.18,69.62 C40.18,69.62 45.33,65.84 47.85,63.07 C48.93,61.89 50.52,61.29 52.11,61.29 C53.7,61.29 55.3,61.89 56.37,63.07 C58.9,65.84 64.04,69.62 69.04,69.62 C76.33,69.62 81.54,65.24 81.54,59.24 C81.54,56.36 81.37,53.45 81.24,50.25 C81.03,44.93 75.17,42.63 71.58,42.63 L71.58,42.63 Z" fill="url(#SVGID_15_)"/>
  <path d="M122.19,73.46 C123.33,81.25 122.08,90.33 122.08,90.33 L111.82,89.43 C111.82,89.43 111.43,83.52 111.82,83.51 L122.19,73.46 Z" fill="#80CBC4"/>
  <path d="M111.86,87.8 C105.2,86.99 102.27,86.2 102.27,86.2 L90.93,124 L119.12,124 L123.26,87.79 C123.26,87.79 120.11,88.8 111.86,87.8 Z" fill="url(#SVGID_16_)"/>
  <path d="M110.36,112.59 C108.09,113.99 101.25,112.71 94.61,110.34 C89.49,108.51 85.38,106.18 85.34,106.17 C84.81,105.92 79.84,103.22 79.84,100.43 C79.84,98.11 81.8,96.54 82.28,96 C82.35,95.93 82.38,95.9 82.38,95.9 L99.84,78.3 L112.98,46.5 L113,46.49 C113,46.49 115.36,45.68 118.67,46.98 C121.98,48.28 123.68,50.44 123.68,50.44 L123.66,50.45 L111.81,83.07 C111.81,83.07 111.84,106.45 111.81,108.46 C111.77,111.19 111.45,111.91 110.36,112.59 Z" fill="url(#SVGID_17_)" opacity="0.86"/>
  <path d="M106.76,111.03 C101.12,108.83 89.38,104.18 83.73,101.89 C82.2,101.26 81.8,99.29 82.96,98.12 L90.39,90.63 L109.9,89.69 L109.9,108.88 C109.91,110.49 108.28,111.62 106.76,111.03 Z" fill="url(#SVGID_18_)" opacity="0.8"/>
  <path d="M96.714,99.733 L97.487,97.889 L103.759,100.515 L102.987,102.36 L96.714,99.733 Z" fill="#FFFFFF"/>
  <path d="M98.739,94.293 L99.511,92.448 L105.783,95.074 L105.011,96.919 L98.739,94.293 Z" fill="#FFFFFF"/>
  <path d="M100.763,88.849 L101.535,87.004 L107.807,89.63 L107.035,91.475 L100.763,88.849 Z" fill="#FFFFFF"/>
  <path d="M102.785,83.412 L103.557,81.567 L109.829,84.193 L109.057,86.038 L102.785,83.412 Z" fill="#FFFFFF"/>
  <path d="M104.809,77.972 L105.581,76.127 L111.853,78.753 L111.081,80.598 L104.809,77.972 Z" fill="#FFFFFF"/>
  <path d="M106.82,72.536 L107.592,70.691 L113.865,73.316 L113.092,75.161 L106.82,72.536 Z" fill="#FFFFFF"/>
  <path d="M108.843,67.095 L109.616,65.25 L115.888,67.876 L115.116,69.721 L108.843,67.095 Z" fill="#FFFFFF"/>
  <path d="M111.357,60.774 L112.13,58.929 L118.402,61.555 L117.63,63.4 L111.357,60.774 Z" fill="#FFFFFF"/>
  <path d="M113.383,55.331 L114.155,53.486 L120.427,56.111 L119.655,57.956 L113.383,55.331 Z" fill="#FFFFFF"/>
  <path d="M98.6,79.55 C98.6,79.55 96.07,77.41 96.08,75.46 C96.09,73.9 97.97,72.42 97.97,72.42 C97.97,72.42 96.17,69.65 96.83,68.14 C97.77,66 100.24,65.59 100.24,65.59 C100.24,65.59 99.12,62.8 100.89,61.16 C102.15,59.99 105.79,60.48 105.79,60.48 C105.79,60.48 106.15,55.9 110.61,57.05 C112.35,57.5 118.52,61.04 120.82,68.51 C122.26,73.18 122.82,74.57 122.36,81.57 C122.16,84.54 114.65,84.54 111.82,83.52 C104.77,80.98 102.77,77.88 101.8,77.9 C100.82,77.92 98.6,79.55 98.6,79.55 Z" fill="#80CBC4"/>
  <path d="M99.47,70.68 C98.75,70.81 98.19,71.39 98.03,72.11 L97.96,72.42 L102.14,70.99 C101.17,70.53 100.2,70.55 99.47,70.68 Z" fill="#26A69A"/>
  <path d="M104.56,65.87 C103.99,65.24 103.33,64.88 102.74,64.67 C101.8,64.34 100.76,64.74 100.24,65.59 L100.24,65.59 L104.56,65.87 Z" fill="#26A69A"/>
  <path d="M107.85,59.82 C107.12,59.53 106.25,59.75 105.81,60.4 C105.8,60.42 105.79,60.44 105.78,60.45 C107.56,60.67 110.23,61.79 110.23,61.79 C109.68,60.73 108.67,60.14 107.85,59.82 Z" fill="#26A69A"/>
  <path d="M97.072,101.982 C104.486,104.906 109.947,108.671 109.268,110.392 C108.589,112.113 102.029,111.139 94.615,108.215 C87.201,105.292 81.741,101.527 82.419,99.806 C83.098,98.085 89.658,99.059 97.072,101.982 Z" fill="#8F5D9B"/>
  <path d="M119.372,45.921 C122.317,47.08 124.197,49.307 123.571,50.895 C122.946,52.483 120.052,52.831 117.108,51.671 C114.163,50.512 112.283,48.284 112.908,46.696 C113.533,45.108 116.427,44.761 119.372,45.921 Z" fill="#81D4FA"/>
  <path id="hair_1_" d="M92.18,25.11 C89.74,21.42 84.27,16.47 79.36,16.14 C78.57,11.42 73.52,7.42 68.63,5.87 C55.4,1.68 46.79,6.38 42.17,8.9 C41.21,9.42 35,12.87 30.66,10.4 C27.94,8.85 27.99,4.66 27.99,4.66 C27.99,4.66 19.47,7.91 22.38,16.96 C19.45,17.08 15.61,18.32 13.58,22.43 C11.16,27.33 12.02,31.42 12.72,33.38 C10.2,35.52 7.03,40.07 9.2,45.98 C10.84,50.43 17.37,52.48 17.37,52.48 C16.91,60.49 18.4,65.42 19.19,67.41 C19.33,67.76 19.82,67.73 19.91,67.37 C20.9,63.4 24.27,49.57 23.94,47.16 C23.94,47.16 35.28,44.91 46.11,36.94 C48.31,35.32 50.7,33.94 53.24,32.93 C66.83,27.52 69.67,36.75 69.67,36.75 C69.67,36.75 79.09,34.94 81.93,48.02 C83,52.92 83.72,60.77 84.33,66.26 C84.37,66.65 84.9,66.73 85.05,66.37 C86,64.19 87.9,59.87 88.35,55.46 C88.51,53.91 92.69,51.86 94.49,45.2 C96.9,36.32 93.95,27.78 92.18,25.11 Z" fill="#543930"/>
  <path d="M88.33,55.5 C88.49,53.95 92.67,51.9 94.47,45.24 C94.66,44.53 94.82,43.81 94.97,43.09 C96.43,35 93.81,27.57 92.18,25.11 C89.92,21.7 85.08,17.22 80.49,16.3 C80.09,16.25 79.7,16.2 79.33,16.18 C79.33,16.18 79.66,18.33 78.79,20.04 C77.67,22.26 75.38,22.79 75.38,22.79 C87.35,34.77 86.5,44.79 88.33,55.5 Z" fill="url(#SVGID_19_)"/>
  <path d="M45.06,7.39 C43.96,7.92 43,8.45 42.16,8.9 C41.2,9.42 34.99,12.87 30.65,10.4 C27.98,8.88 27.98,4.82 27.98,4.68 C26.75,6.25 23.03,17.46 33.91,18.21 C38.6,18.53 41.49,14.44 43.21,10.98 C43.83,9.72 44.8,7.88 45.06,7.39 Z" fill="url(#SVGID_20_)"/>
  <path d="M67.27,5.47 C74.59,7.45 78.16,11.18 79.35,16.15 C79.7,17.61 80.12,31.23 54.12,15.75 C44.45,9.99 47.09,6.39 48.22,5.98 C52.64,4.38 59.07,3.25 67.27,5.47 Z" fill="url(#SVGID_21_)"/>
  <path d="M27.95,4.68 C27.94,4.69 27.92,4.69 27.89,4.71 C27.89,4.71 27.89,4.71 27.89,4.71 C26.96,5.1 19.65,8.49 22.38,16.96 L30.16,18.21 C23.27,11.23 27.99,4.66 27.99,4.66 C27.99,4.66 27.97,4.67 27.95,4.68 Z" fill="url(#SVGID_22_)"/>
  <path d="M27.18,17.73 L22.37,16.96 C22.18,16.96 21.54,17.02 21.19,17.07 C18.48,17.45 15.29,18.85 13.56,22.43 C11.7,26.29 11.75,29.6 12.26,31.81 C12.41,32.55 12.71,33.39 12.71,33.39 C12.71,33.39 15.09,31.13 20.76,30.98 L27.18,17.73 Z" fill="url(#SVGID_23_)"/>
  <path d="M12.48,33.58 C10.11,35.68 6.92,40.37 9.27,46.19 C11.04,50.58 17.36,52.48 17.36,52.48 C17.36,52.5 18.62,52.88 19.27,52.88 L20.75,30.98 C17.72,30.98 14.81,31.89 12.93,33.2 C12.96,33.23 12.47,33.55 12.48,33.58 Z" fill="url(#SVGID_24_)"/>
</svg>