<svg viewBox="0 0 128 128" xmlns="http://www.w3.org/2000/svg" xmlns:xlink="http://www.w3.org/1999/xlink">
  <g id="Layer_12">
    <g>
      <g>
        <radialGradient id="SVGID_1_" cx="66.4544" cy="30.0554" gradientUnits="userSpaceOnUse" r="48.4402">
          <stop offset="0" style="stop-color:#FFF8E1"/>
          <stop offset="0.4325" style="stop-color:#FFCA28"/>
          <stop offset="0.6276" style="stop-color:#F8B713"/>
          <stop offset="0.8284" style="stop-color:#F4AA05"/>
          <stop offset="1" style="stop-color:#F2A600"/>
        </radialGradient>
        <path d="M68.39,5c-15.08,0-25.89,7.46-37.5,15.67c-9,6.36-26.1-1.19-26.1-1.19s4.96,9.15,4.96,9.16 l-5.33,1.32c9.05,7.67,13.55,13.05,13.8,19.79c1.18,31.73,18.52,45.75,44.57,45.75s43.1-6.48,46.65-40.24 C111.01,40.42,102.72,5,68.39,5z" fill="url(#SVGID_1_)"/>
        <g opacity="0.75">
          <linearGradient id="SVGID_3_" gradientUnits="userSpaceOnUse" x1="90.5419" x2="48.0419" y1="5.5569" y2="56.5569">
            <stop offset="0.2174" style="stop-color:#FABE2C"/>
            <stop offset="0.4201" style="stop-color:#DE7D1D"/>
            <stop offset="0.6" style="stop-color:#C84A11"/>
            <stop offset="0.688" style="stop-color:#BF360C"/>
            <stop offset="1" style="stop-color:#8F2100"/>
          </linearGradient>
          <path d="M68.39,8c10.86,0,19.76,3.77,26.45,11.21c10.1,11.22,12.48,27.51,11.62,35.73 c-1.61,15.26-5.95,25.01-13.68,30.68c-6.49,4.76-15.73,6.88-29.99,6.88c-12.63,0-22.57-3.41-29.53-10.13 c-7.45-7.19-11.5-18.2-12.04-32.73c-0.25-6.73-4-12.07-10.53-18.15l1.67-0.42l0.34-1.91c0.19-1.04,0.04-1.31-1.09-3.39 l-0.55-1.02c3.05,0.8,6.71,1.47,10.36,1.47c4.53,0,8.3-1.04,11.21-3.1C43.62,15.34,54.01,8,68.39,8 M68.39,5 c-15.08,0-25.89,7.46-37.5,15.67c-2.67,1.88-6.04,2.55-9.48,2.55c-8.16,0-16.63-3.74-16.63-3.74s4.96,9.15,4.96,9.16l-5.33,1.32 c9.05,7.67,13.55,13.05,13.8,19.79c1.18,31.73,18.52,45.75,44.57,45.75s43.95-6.64,46.65-40.24C111.01,40.42,102.72,5,68.39,5 L68.39,5z" fill="url(#SVGID_3_)"/>
        </g>
        <linearGradient id="SVGID_4_" gradientUnits="userSpaceOnUse" x1="7.7194" x2="38.6441" y1="30.3559" y2="41.4237">
          <stop offset="0.0428" style="stop-color:#B85D00"/>
          <stop offset="1" style="stop-color:#B85D00;stop-opacity:0"/>
        </linearGradient>
        <path d="M53.07,7.75c-0.01-0.03-12.11,6.04-22.18,12.91c-7.74,5.29-26.1-1.19-26.1-1.19 s-0.64,0.55,0.02,1.78c1.47,2.7,4.94,7.38,4.94,7.38c0,0-3.64,0.58-4.48,0.62s-0.85,0.7-0.85,0.7 c9.05,7.67,13.61,12.3,13.8,19.79c0.38,14.59,5.96,25.34,5.96,25.34c0.34-0.21,1.54-1.63,1.77-1.96 c6.78-9.73,12.13-20.44,15.92-31.67c1.89-5.62,3.4-11.37,4.49-17.19C47.33,19.1,54.1,12.93,53.07,7.75z" fill="url(#SVGID_4_)"/>
        <g>
          <g opacity="0.6">
            <path d="M13.05,29.39c3.52,0.71,6.82,2.56,9.64,4.88c1.4,1.18,2.71,2.48,3.93,3.85c1.2,1.39,2.3,2.85,3.33,4.36 c2.06,3.01,3.75,6.28,5.3,9.46c1.48,3.1,3.24,6.02,5.31,8.68c4.1,5.34,9.66,9.44,16.16,11.44c3.24,1,6.65,1.58,10.13,1.74 c3.48,0.22,7.01-0.04,10.58-0.28c-3.4,1.07-6.92,1.87-10.54,2.19c-3.61,0.29-7.33,0.13-10.95-0.7 c-1.81-0.42-3.6-0.95-5.33-1.69c-1.71-0.76-3.39-1.62-4.96-2.64c-3.17-2.04-5.87-4.71-8.21-7.6c-2.32-2.92-4.12-6.19-5.66-9.5 c-0.74-1.63-1.4-3.23-2.16-4.79c-0.74-1.57-1.56-3.09-2.39-4.6C23.82,38.23,19.51,32.58,13.05,29.39z" fill="#D87100"/>
          </g>
          <g opacity="0.8">
            <path d="M24.51,50.25c0.75,2.36,1.67,4.62,2.71,6.81c1.02,2.2,2.17,4.33,3.41,6.39 c1.28,2.04,2.6,4.03,4.11,5.87c1.49,1.85,3.09,3.61,4.86,5.16c3.49,3.17,7.6,5.58,12.07,7.13c2.25,0.75,4.58,1.27,6.97,1.6 c2.39,0.37,4.83,0.39,7.31,0.47c-2.4,0.59-4.88,0.97-7.4,1c-2.51,0.01-5.05-0.21-7.53-0.82c-2.49-0.58-4.88-1.55-7.15-2.74 c-2.26-1.22-4.35-2.72-6.28-4.41c-1.88-1.73-3.6-3.63-5.1-5.67c-1.48-2.06-2.82-4.2-3.91-6.47c-1.12-2.25-2.02-4.6-2.74-6.99 C25.17,55.18,24.61,52.73,24.51,50.25z" fill="#E0650A"/>
          </g>
          <g opacity="0.68">
            <path d="M16.83,26.09c2.58,0.18,5.15,0.24,7.7,0.12c2.55-0.14,5.07-0.47,7.51-1.08 c2.44-0.61,4.8-1.44,7.07-2.53c2.27-1.08,4.46-2.33,6.7-3.61c2.24-1.28,4.52-2.59,6.99-3.67c2.47-1.06,5.1-1.89,7.8-2.32 c2.7-0.43,5.45-0.53,8.14-0.31c2.69,0.24,5.32,0.7,7.92,1.31c5.2,1.24,10.29,3.45,14.63,6.77c4.36,3.31,7.78,7.78,10.03,12.65 c2.25,4.89,3.43,10.12,3.95,15.33c0.49,5.22,0.35,10.44-0.28,15.57c-0.32-5.16-0.75-10.29-1.77-15.27 c-0.46-2.5-1.14-4.94-1.92-7.32c-0.78-2.38-1.73-4.69-2.9-6.86c-1.18-2.16-2.51-4.23-4.1-6.08c-1.57-1.86-3.39-3.48-5.32-4.94 c-3.88-2.92-8.5-4.76-13.27-6.03c-4.82-1.21-9.78-1.84-14.58-1.23c-4.82,0.6-9.33,2.66-13.92,5 c-4.56,2.36-9.55,4.56-14.81,5.31C27.14,27.72,21.85,27.23,16.83,26.09z" fill="#FFECB3"/>
          </g>
          <path d="M24.89,29.5c3.7,1.08,7.48,1.85,11.28,2.14c3.81,0.31,7.61,0.09,11.38-0.41 c3.77-0.51,7.52-1.42,11.49-1.72c3.93-0.31,7.96-0.1,11.85,0.82c3.89,0.9,7.66,2.45,11.04,4.59c3.39,2.15,6.39,4.84,8.99,7.85 c2.61,3,4.8,6.34,6.63,9.84c1.82,3.53,3.33,7.12,4.4,11.04l-2.83,0.31c0.17-5.08-0.18-10.19-1.36-15.1 c-1.18-4.89-3.17-9.63-6.24-13.64c-3.01-4.04-7.03-7.32-11.59-9.62c-2.29-1.13-4.71-2.03-7.21-2.62 c-2.5-0.55-5.09-0.96-7.68-0.69c2.56-0.5,5.22-0.36,7.8,0.06c2.59,0.44,5.13,1.18,7.57,2.2c4.89,2.02,9.27,5.31,12.68,9.44 c3.43,4.13,5.72,9.11,7.13,14.24c1.35,5.17,1.83,10.51,1.76,15.8l-0.13,9.87l-2.7-9.56c-0.99-3.51-2.49-7.06-4.23-10.35 c-1.77-3.31-3.85-6.45-6.26-9.29C83.86,39.03,77.48,34.7,70.27,32.9c-3.6-0.91-7.34-1.25-11.1-1.1 c-1.88,0.07-3.74,0.29-5.65,0.54c-1.91,0.24-3.84,0.48-5.78,0.64c-1.95,0.15-3.9,0.24-5.86,0.19c-1.95-0.09-3.9-0.22-5.83-0.55 C32.21,32.04,28.45,30.99,24.89,29.5z" fill="#FFF9C4"/>
        </g>
        <path d="M54.72,38.17c5.5-0.36,11.15,0.13,16.49,1.93c2.67,0.87,5.24,2.1,7.64,3.58 c2.39,1.51,4.6,3.32,6.55,5.36c3.89,4.08,6.92,8.96,8.85,14.22c1.95,5.25,2.79,10.9,2.37,16.41c-0.35-5.51-1.68-10.86-3.8-15.84 c-2.15-4.96-5.12-9.55-8.86-13.42c-3.69-3.89-8.26-6.87-13.29-8.84C65.64,39.61,60.22,38.6,54.72,38.17z" fill="#FFF9C4"/>
      </g>
      <g opacity="0.8">
        <path d="M39.23,87.01c-17.91,0-31.97,6.97-32.18,15.91c-0.66,3.58,0.85,9.24,1.03,9.88l0.08,0.31l0.17,0.26 c5.16,7.83,19.87,10.61,30.9,10.61c13.31,0,25.94-4.73,30.71-11.51c1.61-2.29,1.71-2.92,1.58-5.81c-0.04-0.96-0.1-2.28-0.1-4.19 C71.42,94.1,56.68,87.01,39.23,87.01L39.23,87.01z" fill="#FFFFFF"/>
      </g>
      <g>
        <linearGradient id="SVGID_5_" gradientUnits="userSpaceOnUse" x1="15.9746" x2="42.8496" y1="109.9494" y2="102.0744">
          <stop offset="0" style="stop-color:#FFFFFF"/>
          <stop offset="1" style="stop-color:#FFECB3"/>
        </linearGradient>
        <ellipse cx="39.23" cy="103.13" fill="url(#SVGID_5_)" rx="30.19" ry="14.12"/>
        <ellipse cx="39.8" cy="102.12" fill="none" rx="22.72" ry="10.75" stroke="#F4B056" stroke-miterlimit="10" stroke-width="2"/>
        <ellipse cx="39.8" cy="101.49" fill="none" rx="14.92" ry="6.23" stroke="#F4B056" stroke-miterlimit="10" stroke-width="2"/>
        <ellipse cx="39.8" cy="101.49" fill="none" rx="6.02" ry="2.17" stroke="#F4B056" stroke-miterlimit="10" stroke-width="2"/>
        <radialGradient id="SVGID_6_" cx="39.2162" cy="117.8426" gradientTransform="matrix(0.9772 0 0 0.8139 0.9015 16.3289)" gradientUnits="userSpaceOnUse" r="23.5344">
          <stop offset="0.2093" style="stop-color:#FFECB3"/>
          <stop offset="1" style="stop-color:#FFCC4D"/>
        </radialGradient>
        <path d="M69.42,102.48c-1.08,7.8-14.44,14.77-30.19,14.77c-27.36,0-30.19-14.12-30.19-14.12 c-0.68,3.19,0.96,9.14,0.96,9.14c4.17,6.34,16.56,9.71,29.23,9.71c12.26,0,24.52-4.19,29.07-10.66 C70.17,108.68,69.42,102.48,69.42,102.48z" fill="url(#SVGID_6_)"/>
      </g>
      <g opacity="0.8">
        <path d="M39.23,89.01c16.31,0,30.19,6.56,30.19,13.47c0,6.91,0.75,6.2-1.12,8.85 c-4.55,6.47-16.81,10.66-29.07,10.66c-12.67,0-25.06-3.37-29.23-9.71c0,0-1.64-5.95-0.96-9.14 C9.05,95.33,22.56,89.01,39.23,89.01 M39.23,87.01c-17.91,0-31.97,6.97-32.18,15.91c-0.66,3.58,0.85,9.24,1.03,9.88l0.08,0.31 l0.17,0.26c5.16,7.83,19.87,10.61,30.9,10.61c13.31,0,25.94-4.73,30.71-11.51c1.61-2.29,1.71-2.92,1.58-5.81 c-0.04-0.96-0.1-2.28-0.1-4.19C71.42,94.1,56.68,87.01,39.23,87.01L39.23,87.01z" fill="#E65100"/>
      </g>
      <g>
        <linearGradient id="SVGID_7_" gradientUnits="userSpaceOnUse" x1="66.2932" x2="109.4182" y1="78.2496" y2="102.1246">
          <stop offset="0" style="stop-color:#FFFFFF"/>
          <stop offset="1" style="stop-color:#FFECB3"/>
        </linearGradient>
        <path d="M90.26,69.43c19.62,3.78,33.81,15.79,31.68,26.81s-19.76,16.89-39.38,13.11 S48.75,93.56,50.87,82.53S70.63,65.64,90.26,69.43z" fill="url(#SVGID_7_)"/>
        <ellipse cx="86.41" cy="89.38" fill="none" rx="16.19" ry="28.82" stroke="#F4B056" stroke-miterlimit="10" stroke-width="2" transform="matrix(0.1894 -0.9819 0.9819 0.1894 -17.7237 157.3008)"/>
        <ellipse cx="86.41" cy="89.38" fill="none" rx="11.99" ry="21.35" stroke="#F4B056" stroke-miterlimit="10" stroke-width="2" transform="matrix(0.1894 -0.9819 0.9819 0.1894 -17.7237 157.3008)"/>
        <ellipse cx="86.41" cy="89.38" fill="none" rx="7.65" ry="13.62" stroke="#F4B056" stroke-miterlimit="10" stroke-width="2" transform="matrix(0.1894 -0.9819 0.9819 0.1894 -17.7237 157.3008)"/>
        <ellipse cx="86.41" cy="89.38" fill="none" rx="2.84" ry="5.05" stroke="#F4B056" stroke-miterlimit="10" stroke-width="2" transform="matrix(0.1894 -0.9819 0.9819 0.1894 -17.7237 157.3008)"/>
        <radialGradient id="SVGID_8_" cx="85.6113" cy="101.4735" gradientTransform="matrix(0.9819 0.1894 -0.1894 0.9819 19.3158 -14.879)" gradientUnits="userSpaceOnUse" r="27.2517">
          <stop offset="0.407" style="stop-color:#FFCC4D"/>
          <stop offset="0.7909" style="stop-color:#FFE082"/>
        </radialGradient>
        <path d="M122.12,95.32c-3.4,10.78-21.02,17.6-39.56,14.03c-32.21-6.21-31.68-26.81-31.68-26.81 C49.21,86.89,50,93.12,50,93.12c3.18,9.91,16.85,17.49,31.76,20.36c14.43,2.78,30-0.35,37.12-8.46 C121.8,101.69,122.12,95.32,122.12,95.32z" fill="url(#SVGID_8_)"/>
      </g>
      <path d="M78.5,68.28c3.75,0,7.71,0.37,11.75,1.15c19.2,3.7,31.86,14.88,31.59,25c0,0-0.05,7.26-2.97,10.59 c-5.42,6.17-15.72,9.46-26.68,9.46c-3.46,0-6.98-0.33-10.44-0.99C66.85,110.6,53.19,103.02,50,93.12c0,0-0.8-6.23,0.87-10.58 C52.56,73.78,64.03,68.28,78.5,68.28 M78.5,66.28c-15.77,0-27.62,6.3-29.56,15.71c-1.75,4.75-0.96,11.12-0.93,11.39l0.02,0.18 l0.06,0.18c3.18,9.91,16.25,18.43,33.28,21.71c3.54,0.68,7.18,1.03,10.82,1.03c12.07,0,22.61-3.79,28.19-10.14 c3.32-3.78,3.46-11.07,3.46-11.89c0.31-11.65-13.97-23.27-33.21-26.98C86.56,66.67,82.47,66.28,78.5,66.28L78.5,66.28z" fill="#FF9100"/>
    </g>
  </g>
</svg>