<svg viewBox="0 0 128 128" xmlns="http://www.w3.org/2000/svg">
  <defs/>
  <path d="M61.53,89.7 C61.53,89.7 63.4,97.66 73.76,103.58 C80.29,107.31 94.02,111.18 101.03,106 C109.01,100.1 110.73,94.26 111.11,92.11 C111.49,89.96 110.35,84.03 110.35,84.03 L97.22,79.36 C97.22,79.36 75.51,84.66 75.13,84.66 C74.76,84.67 61.53,89.7 61.53,89.7 Z" fill="#E06767"/>
  <path d="M110.39,94.67 C110.68,93.92 110.86,93.28 110.99,92.75 C108.67,92.13 105.98,91.13 103.54,90.09 C103.74,90 103.94,89.91 104.13,89.81 C105.33,89.2 106.51,88.49 107.36,87.45 C108.28,86.33 108.7,84.88 108.65,83.43 L97.22,79.36 C97.22,79.36 75.51,84.66 75.13,84.66 C74.75,84.66 61.53,89.69 61.52,89.7 C61.35,89.76 62.75,92.7 62.84,92.85 C64.11,95.22 67.03,98.52 69.03,100.31 C69.03,100.31 68.11,98.19 69.85,97.4 C70.62,97.05 71.55,97.22 72.34,97.53 C74.32,98.32 76.8,101.36 83,104.62 C87.21,106.84 91.54,108.54 92.94,108.48 C94.81,108.4 98.2,107.49 98.2,107.49 C98.2,107.49 93.88,107.08 86.94,103.85 C84.84,102.87 77.07,99.05 76.33,96.92 C76.12,96.32 75.37,95.26 76.73,94.66 C78.81,93.73 84.48,98.62 89.35,100.86 C95.15,103.52 101.47,105.65 101.47,105.65 C102.15,105.13 102.79,104.61 103.39,104.09 C100.16,103.26 97,102.12 93.95,100.79 C90.91,99.47 87.93,97.76 85.18,95.88 C83.43,94.68 82.22,92.66 84.1,92.4 C87.18,91.97 91.16,94.9 95.15,96.97 C98.75,98.84 103.07,99.7 107.12,100.21 C107.64,99.56 108.49,98.32 108.49,98.32 C108.49,98.32 106.96,98.06 102.44,97.06 C100.46,96.62 98.54,96.05 96.78,95.06 C96.32,94.8 94.71,93.15 96.91,92.39 C99.11,91.63 101.2,93.14 104.52,93.91 C107.85,94.7 110.36,94.74 110.39,94.67 Z" fill="#B05353"/>
  <path d="M118,53.3 C118,53.3 117.75,45.2 113.4,38.03 C109.65,31.85 104.3,31.22 104.3,31.22 C104.3,31.22 103.24,27.33 99.52,24.35 C95.8,21.37 88.15,18.88 88.15,18.88 C72.83,11.98 63.28,17.63 63.28,17.63 C63.28,17.63 40.56,12.23 22.37,27.66 C22.37,27.66 13.19,31.98 9.44,40.14 C7.37,44.66 8.26,52.03 8.26,52.03 C1.89,59.43 3.64,71.15 10.79,77.02 C14.2,79.81 18.41,81.66 22.8,82.13 C24.52,82.31 25.39,81.9 26.11,83.65 C27.17,86.23 28,88.88 30.13,90.73 C32.3,92.61 34.83,94.07 37.52,95.07 C42.74,97 48.64,97.21 53.91,95.32 C55.66,94.69 61.27,94.63 61.27,94.63 C61.27,94.63 64.24,97.08 74.78,96.69 C85.32,96.3 89.77,91.75 92.18,90.9 C94.03,90.25 96.3,88.82 98.32,89.19 C99.47,89.4 100.5,89.99 101.55,90.49 C104.49,91.9 107.79,92.67 111.03,92.37 C123.28,91.24 124.57,77.13 123.36,67.43 C122.14,57.64 118,53.3 118,53.3 Z" fill="#FFB3B3"/>
  <path d="M27.52,72.45 C27.27,73.02 24.77,78.48 22.67,79.36 C19.04,80.89 13.42,77.25 11.27,76.25 C10.85,76.05 10.57,76.55 10.57,76.55 C10.22,77 11.13,77.93 11.59,78.26 C13.37,79.54 17.64,82.44 20.81,83.23 C24.9,84.25 27.97,83.23 27.97,83.23 C27.97,83.23 29.09,75.04 29.18,74.67 C29.27,74.3 29.18,71.04 29.18,71.04 L27.52,72.45 Z" fill="#EA6363"/>
  <path d="M63.25,95.56 C63.25,95.56 61.19,95.24 58.03,95.29 C54.87,95.34 50.42,96.25 50.42,96.25 C50.42,96.25 53.56,94.82 54.96,93.57 C56.36,92.31 56.64,89.25 56.41,87.43 C56.17,85.57 55.54,84.63 50.78,83.64 L65.04,82.85 C60.26,86.03 59.39,92.58 63.25,95.56 Z" fill="#F07371"/>
  <path d="M106.42,65.47 C103.94,65.8 101.53,65.33 99.39,64.06 C98.46,63.5 98.36,62.18 99.18,61.47 C99.73,61 100.52,60.97 101.13,61.37 C104.59,63.64 108.11,62.15 109.99,60.98 C114.79,57.99 117.17,52.69 116.85,47.13 C117.81,48.83 118.51,50.71 118.68,52.65 C119.11,57.36 115.72,61.03 111.93,63.4 C110.12,64.54 108.25,65.23 106.42,65.47 Z" fill="#F07371"/>
  <path d="M117.14,70.16 C116.06,70.16 114.89,69.93 113.78,69.25 C112.64,68.55 112,67.61 111.43,66.45 C110.96,65.5 110.3,64.91 109.09,65 C108.24,65.07 107.42,65.55 106.57,65.43 C107.7,63.43 109.51,61.83 111.64,60.96 C112.62,60.56 113.72,60.31 114.72,60.62 C114.83,61.32 114.36,61.97 114.09,62.63 C113.62,63.8 113.81,65.2 114.57,66.2 C115.09,66.88 116.08,67.61 116.99,67.55 C117.59,67.51 118.01,67 118.6,66.95 C120.43,66.82 120.89,69.5 119.09,69.92 C118.51,70.06 117.85,70.16 117.14,70.16 Z" fill="#F07371"/>
  <path d="M99.54,33.08 C98.81,33.17 98.07,33.09 97.69,32.45 C97.2,31.62 97.61,30.58 98.52,30.26 C101.03,29.38 103.85,29.54 106.3,30.52 C108.44,31.38 109.73,32.84 110.58,33.83 C111.43,34.82 112.01,36.78 112.01,36.78 C109.88,34.93 108.67,32.02 99.54,33.08 Z" fill="#F07371"/>
  <path d="M89.96,31.15 C87.8,31.06 89.9,31.15 89.88,31.15 C86.46,31.15 82.37,29.97 81.82,26.07 C80.83,18.97 91.31,21.73 95.15,22.26 C95.15,22.26 92.12,19.15 88.15,18.88 C86.3,18.76 84.39,18.81 82.59,19.29 C80.61,19.82 79.61,21.31 77.81,22.05 C76.45,22.6 74.9,22.39 73.5,21.97 C72.21,21.58 68.02,19.33 67.9,22.13 C67.87,22.9 68.42,23.56 69.17,23.67 C72.21,24.1 76.41,25.46 77.97,28.36 C78.69,29.69 78.86,31.3 78.44,32.75 C78.24,33.46 77.95,34.37 78.54,34.82 C78.99,35.17 79.68,34.94 80.09,34.54 C80.5,34.14 80.76,33.6 81.17,33.2 C82.45,31.94 83.61,32.84 84.97,33.32 C86.54,33.88 88.2,34.15 89.87,34.15 C89.91,34.15 86.94,33.86 89.98,34.15 C93.01,34.43 92.11,31.24 89.96,31.15 Z" fill="#F07371"/>
  <path d="M41.89,27.89 C40.23,26.39 39.44,20.55 44.21,17.54 C44.21,17.54 41.61,17.63 39.44,19.33 C37.59,20.78 37.22,23.29 37.66,25.94 C37.77,26.62 37.24,27.24 36.55,27.2 C34.07,27.07 31.6,27.52 29.47,28.5 C28.66,28.88 28.38,29.9 28.86,30.66 L28.86,30.66 C29.27,31.3 30.08,31.52 30.77,31.2 C33.16,30.1 36.64,29.51 39.43,30.21 C42.26,30.92 44.25,31.74 46.47,35.59 C46.85,36.24 47.67,36.47 48.29,36.05 L48.29,36.05 C48.77,35.72 48.97,35.1 48.77,34.56 C46.87,29.32 44.13,29.91 41.89,27.89 Z" fill="#F07371"/>
  <path d="M48.08,45.9 C47.84,45.08 47,44.63 46.21,44.87 C43.81,45.59 40.34,45.38 38.79,43.82 C36.72,39.03 35.15,38.18 32.64,37.33 C31.64,36.99 30.64,37.85 30.74,38.89 L30.74,38.89 C30.8,39.48 31.19,39.98 31.76,40.15 C33.54,40.68 35.33,43.07 36.25,45.51 C37.09,47.72 37.19,50.63 35.29,52.71 C34.8,53.25 34.7,54.03 35.13,54.62 L35.15,54.65 C35.7,55.41 36.8,55.47 37.44,54.78 C38.12,54.04 38.83,53.08 39.13,52.11 C39.44,51.08 39.35,50.16 40.24,49.34 C41.23,48.42 42.17,48.61 43.36,48.61 C44.58,48.61 45.89,48.17 47.04,47.76 C47.82,47.51 48.32,46.68 48.08,45.9 Z" fill="#F07371"/>
  <path d="M17.42,59.46 C17.08,59.46 16.75,59.45 16.4,59.42 C11.77,59.02 9.34,55.69 8.24,52.04 C7.14,48.39 8.07,44.42 8.07,44.42 C9.47,55.22 15.1,56.29 16.66,56.43 C19.61,56.69 22.43,55.41 23.2,53.46 C24.42,50.38 20.68,47.36 18.85,45.49 C17.64,44.25 17.19,42.14 17.51,40.47 C17.67,39.61 18.05,38.77 18.76,38.22 C19.46,37.68 21.22,37.19 20.98,38.73 C20.91,39.21 20.6,39.61 20.41,40.05 C19.04,43.17 23.91,46.06 25.24,48.37 C26.33,50.24 26.81,52.5 25.99,54.56 C24.83,57.5 21.32,59.46 17.42,59.46 Z" fill="#F07371"/>
  <path d="M16.35,58.66 C17.16,58.76 17.99,58.62 18.72,58.26 C19.42,57.92 20.05,57.38 20.82,57.32 C21.19,57.3 21.65,57.52 21.59,57.88 C21.57,58.01 22.42,58.25 22.31,58.32 C20.32,59.56 15.28,60.79 18.76,69.72 C19.04,70.43 18.82,71.23 18.17,71.62 C17.41,72.08 16.4,71.78 16.04,70.97 C15.09,68.88 14.63,66.57 14.66,64.27 C14.69,62.03 14.92,60.07 13.42,58.2 C13.26,58.01 13.09,57.74 13.22,57.53 C13.3,57.4 13.46,57.35 13.61,57.31 C14.23,57.15 14.89,56.98 15.52,57.11 C15.8,57.17 18.93,58.9 18.96,58.84" fill="#F07371"/>
  <path d="M105.56,73.1 C103.49,72.85 101.36,73 99.4,73.74 C97.74,74.37 96.5,75.64 94.59,75.22 C93.45,74.97 92.44,74.24 91.73,73.31 C90.23,71.36 90.43,69.31 90.99,67.09 C91.55,64.89 91.49,62.34 90.5,60.27 C90.24,59.72 89.8,59.23 89.23,59.03 C88.65,58.83 87.94,59 87.6,59.51 C87.26,60.03 87.39,60.72 87.51,61.33 C87.9,63.2 88.4,65.22 87.84,67.05 C87.31,68.79 86.58,70.35 85.33,71.69 C82.96,74.24 79.52,75.41 76.55,74.66 C74.36,74.11 72.59,72.58 71.4,70.24 C70.98,68.41 70.54,66.03 68.27,65.77 C67.81,65.72 67.31,65.79 66.96,66.08 C66.61,66.38 66.45,66.86 66.45,67.32 C66.45,68.47 67.55,69.33 67.75,70.46 C68.38,73.92 66.08,77.88 62.59,79.8 C59.89,81.29 52.48,82.13 45.84,76.56 C45.56,76.32 45.56,75.86 45.29,75.61 C45.11,75.45 44.88,75.35 44.65,75.31 C43.66,75.12 42.63,76.06 42.72,77.06 C42.8,77.97 43.55,78.67 44.22,79.29 C45.96,80.91 45.18,81.56 44.88,82.43 C44.81,82.65 44.68,82.85 44.66,83.08 C44.6,83.72 45.58,83.51 46.22,83.46 C46.86,83.41 47.44,83.06 48.06,82.88 C48.84,82.66 52.41,83.97 53.11,84.12 C55.14,84.56 55.84,84.76 57.59,84.76 C59.78,84.76 61.64,85.89 63.24,84.39 C65.52,82.26 67.29,80.87 69.31,80.18 C70.31,79.84 71.51,79.67 72.35,80.32 C72.95,80.78 73.22,81.55 73.43,82.27 C73.86,83.75 74.18,85.26 74.81,86.67 C75.44,88.07 76.44,89.38 77.84,90.01 C78.28,90.21 78.78,90.34 79.26,90.23 C79.74,90.12 80.16,89.71 80.17,89.23 C80.18,88.9 80.01,88.6 79.83,88.33 C79.14,87.23 78.32,86.21 77.71,85.07 C77.1,83.93 76.7,82.6 76.95,81.33 C77.41,78.98 80.13,78.32 82.08,77.73 C83.95,77.16 85.82,76.09 87.83,76.2 C89.09,76.27 91.76,77.74 92.56,78.72 C92.72,78.92 92.79,79.17 92.83,79.43 C93.17,81.54 91.62,83.44 90.15,84.98 C89.89,85.25 89.62,85.66 89.84,85.97 C89.92,86.08 90.04,86.14 90.16,86.18 C91.22,86.59 92.46,86.23 93.36,85.54 C95.34,84.04 96.03,81.47 97.72,79.69 C99.11,78.24 100.98,77.29 102.87,76.67 C109.63,74.45 109.98,79.77 111.19,82.75 C112.4,85.73 114.19,83.67 114.21,82.85 C114.28,78.96 111.79,73.84 105.56,73.1 Z" fill="#F07371"/>
  <path d="M42.25,88.89 L42.25,88.89 C41.22,88.83 40.54,87.76 40.96,86.81 C41.63,85.29 42.89,83.78 44.52,82.62 C47,80.86 49.48,80.54 51.97,81.25 L52.48,83.79 C50.87,83.33 47.99,83.84 46.26,85.07 C45.01,85.96 44.15,87.05 43.73,87.96 C43.46,88.55 42.89,88.93 42.25,88.89 Z" fill="#F07371"/>
  <path d="M107.01,42.8 C106.82,41.53 105.83,40.35 104.55,40.31 C103.92,40.29 103.22,40.62 103.05,41.23 C102.97,41.5 103.01,41.8 103.02,42.08 C103.1,44.16 101.43,46.17 99.37,46.46 C97.04,46.79 95.32,45.35 93.56,44.15 C91.88,43.01 89.78,42.24 87.84,41.69 C82.67,40.24 78.22,41.21 74.83,45.48 C73.57,47.07 72.37,48.81 70.6,49.79 C67.82,51.33 61.95,51.44 60.22,48.42 C57.95,44.47 57.87,32.33 65.15,33.71 C67.4,34.14 69.07,36.09 69.23,37.54 C69.33,38.46 68.76,39.26 68.03,39.88 C67.47,40.36 67.35,41.17 67.73,41.79 C68.21,42.58 69.29,42.75 69.99,42.16 C72.04,40.4 72.36,38.55 72.21,37.21 C71.74,32.94 66.93,30.53 63.11,30.42 C62.27,30.39 61.3,30.12 60.98,29.33 C60.84,28.99 60.86,28.62 60.83,28.26 C60.63,25.71 58.02,22.94 55.98,21.62 C55.23,21.13 54.22,21.45 53.83,22.25 C53.5,22.94 53.76,23.75 54.4,24.17 C56.34,25.45 57.52,27.31 57.91,29.71 C58.35,32.47 57.75,35.29 56.59,37.8 C56.01,39.06 55.3,40.28 54.47,41.4 C53.76,42.37 52.75,43.02 52.29,44.18 C52.24,44.31 52.19,44.45 52.23,44.58 C52.3,44.83 52.61,44.9 52.87,44.91 C53.61,44.94 54.35,44.78 55.01,44.47 C54.63,45.94 55.61,47.37 56.42,48.65 C57.23,49.93 57.88,51.67 56.96,52.88 C56.92,52.93 56.87,52.98 56.83,53.04 C54.86,53.87 52.96,55 51.48,56.56 C48.93,59.26 47.04,61.69 43.31,62.89 C40.01,63.96 36.34,63.83 33.13,62.54 C32.51,62.29 31.88,62 31.21,62.02 C30.54,62.04 29.83,62.51 29.81,63.18 C29.8,63.52 29.97,63.83 30.12,64.14 C31.82,67.59 28.7,69.83 27.37,72.83 C26.12,75.63 25.48,78.7 25.48,81.77 C25.48,85.12 26.63,87.56 30.78,91.82 C32.66,93.74 35.12,94.88 37.19,95.55 C37.84,95.76 38.25,94.87 37.67,94.5 C33.4,91.78 32.73,89.37 31.43,86.89 C28.31,80.92 31.72,71.82 37.59,67.2 C39.86,65.42 43.08,65.56 45.82,66.5 C48.76,67.51 50.5,69.67 52.71,71.68 C53.31,72.23 54.08,72.82 54.85,72.58 C55.55,72.37 55.9,71.54 55.82,70.82 C55.74,70.1 55.33,69.46 54.94,68.85 C54.51,68.18 54.08,67.51 53.64,66.84 C53.07,65.96 52.48,65.04 52.3,64 C52.1,62.87 53.1,58.96 62.6,56.54 C64.21,56.13 65.85,56.31 67.47,56.77 C69.65,57.39 71.21,58.99 73.04,60.24 C73.55,60.59 74.11,60.96 74.73,60.98 C75.51,61.01 76.27,60.42 76.43,59.65 C76.65,58.59 75.85,57.64 75.32,56.7 C73.56,53.6 75.61,49.46 78.2,47.48 C80.52,45.72 83.57,45.07 86.46,45.37 C90.86,45.82 95.2,48.76 96.21,53.06 C96.44,54.03 96.72,55.28 97.71,55.41 C98.81,55.56 99.4,54.09 99.29,52.98 C99.18,51.87 98.82,50.62 99.51,49.74 C99.83,49.34 100.31,49.11 100.78,48.9 C102.13,48.31 103.54,47.82 104.75,46.97 C105.96,46.13 106.97,44.84 107.06,43.37 C107.05,43.2 107.04,43 107.01,42.8 Z" fill="#EA6363"/>
  <path d="M52.86,44.9 C53.6,44.93 54.34,44.77 55,44.46 C54.62,45.93 55.6,47.36 56.41,48.64 C57,49.58 57.82,51.25 56.93,52.96 C56.93,52.96 58.27,52.21 60.44,51.58 C62.61,50.95 64.73,50.81 64.73,50.81 C63.19,50.49 60.91,49.62 60.21,48.41 C57.94,44.46 57.86,32.32 65.14,33.7 C67.39,34.13 69.06,36.08 69.22,37.53 C69.32,38.45 68.75,39.25 68.02,39.87 C67.46,40.35 67.34,41.16 67.72,41.78 C68.2,42.57 69.28,42.74 69.98,42.15 C72.03,40.39 72.35,38.54 72.2,37.2 C71.73,32.93 66.92,30.52 63.1,30.41 C62.26,30.38 61.29,30.11 60.97,29.32 C60.83,28.98 60.85,28.61 60.82,28.25 C60.62,25.7 58.01,22.93 55.97,21.61 C55.22,21.12 54.21,21.44 53.82,22.24 C53.49,22.93 53.75,23.74 54.39,24.16 C56.33,25.44 57.51,27.3 57.9,29.7 C58.34,32.46 57.74,35.28 56.58,37.79 C56,39.05 55.29,40.27 54.46,41.39 C53.75,42.36 52.74,43.01 52.28,44.17 C52.23,44.3 52.18,44.44 52.22,44.57 C52.29,44.82 52.6,44.89 52.86,44.9 Z" fill="#F07371"/>
</svg>