<svg viewBox="0 0 128 128" xmlns="http://www.w3.org/2000/svg">
  <defs>
    <linearGradient id="a" gradientUnits="userSpaceOnUse" x1="78.816" x2="84.271" y1="49.594" y2="36.305">
      <stop offset=".0028045" stop-color="#0063B2"/>
      <stop offset="1" stop-color="#170D1F"/>
    </linearGradient>
    <linearGradient id="h" gradientUnits="userSpaceOnUse" x1="64" x2="64" y1="34.333" y2="110.86">
      <stop offset="0" stop-color="#691B66"/>
      <stop offset="1" stop-color="#C735C1"/>
    </linearGradient>
    <linearGradient id="r" gradientUnits="userSpaceOnUse" x1="63.177" x2="63.177" y1="56.03" y2="91.612">
      <stop offset="0" stop-color="#170D1F"/>
      <stop offset=".9972" stop-color="#0063B2"/>
    </linearGradient>
    <linearGradient id="q" gradientUnits="userSpaceOnUse" x1="63.681" x2="63.681" y1="23.984" y2="64.169">
      <stop offset=".0028045" stop-color="#0063B2"/>
      <stop offset="1" stop-color="#170D1F"/>
    </linearGradient>
    <linearGradient id="p" gradientUnits="userSpaceOnUse" x1="63.985" x2="63.985" y1="26.33" y2="4.9494">
      <stop offset="0" stop-color="#A47B62"/>
      <stop offset=".1914" stop-color="#AD8264"/>
      <stop offset=".5512" stop-color="#B78A67"/>
      <stop offset="1" stop-color="#BA8D68"/>
    </linearGradient>
    <radialGradient id="o" cx="64.356" cy="4.7177" gradientUnits="userSpaceOnUse" r="12.883">
      <stop offset="0" stop-color="#6D4C41"/>
      <stop offset="1" stop-color="#523329"/>
    </radialGradient>
    <radialGradient id="n" cx="62.328181" cy="-17.273012" gradientTransform="matrix(0.9263 0.3768 -0.1497 0.368 0 0)" gradientUnits="userSpaceOnUse" r="3.3754">
      <stop offset=".0026442" stop-color="#f00"/>
      <stop offset=".0722" stop-color="#F50000"/>
      <stop offset=".7116" stop-color="#980000"/>
      <stop offset="1" stop-color="#730000"/>
    </radialGradient>
    <radialGradient id="m" cx="-56.205075" cy="104.093935" gradientTransform="matrix(-0.9263 0.3768 0.1497 0.368 0 0)" gradientUnits="userSpaceOnUse" r="3.3754">
      <stop offset=".0026442" stop-color="#f00"/>
      <stop offset=".0722" stop-color="#F50000"/>
      <stop offset=".7116" stop-color="#980000"/>
      <stop offset="1" stop-color="#730000"/>
    </radialGradient>
    <radialGradient id="l" cx="66.069007" cy="37.525132" gradientTransform="matrix(0.9649 -0.0175 0.0701 1.0351 0 0)" gradientUnits="userSpaceOnUse" r="3.8408">
      <stop offset=".0026442" stop-color="#f00"/>
      <stop offset=".0722" stop-color="#F50000"/>
      <stop offset=".7116" stop-color="#980000"/>
      <stop offset="1" stop-color="#730000"/>
    </radialGradient>
    <linearGradient id="k" gradientUnits="userSpaceOnUse" x1="29.486" x2="55.539" y1="31.867" y2="27.849">
      <stop offset=".0028045" stop-color="#0063B2"/>
      <stop offset="1" stop-color="#170D1F"/>
    </linearGradient>
    <linearGradient id="j" gradientUnits="userSpaceOnUse" x1="23.415" x2="35.025" y1="4.2672" y2="30.012">
      <stop offset="0" stop-color="#17CB1F"/>
      <stop offset=".356" stop-color="#0BB42E"/>
      <stop offset=".7189" stop-color="#03A438"/>
      <stop offset=".9972" stop-color="#009E3C"/>
    </linearGradient>
    <linearGradient id="i" gradientUnits="userSpaceOnUse" x1="90.522" x2="101.4" y1="24.083" y2="48.207">
      <stop offset="0" stop-color="#17CB1F"/>
      <stop offset=".356" stop-color="#0BB42E"/>
      <stop offset=".7189" stop-color="#03A438"/>
      <stop offset=".9972" stop-color="#009E3C"/>
    </linearGradient>
    <linearGradient id="g" gradientTransform="matrix(1.0651 -0.1281 0.1293 1.0755 0 0)" gradientUnits="userSpaceOnUse" x1="43.657619" x2="43.657619" y1="14.629983" y2="36.835983">
      <stop offset=".0028045" stop-color="#0063B2"/>
      <stop offset=".1363" stop-color="#0160AC"/>
      <stop offset=".3109" stop-color="#03569C"/>
      <stop offset=".5082" stop-color="#084681"/>
      <stop offset=".7223" stop-color="#0E305B"/>
      <stop offset=".9475" stop-color="#15142B"/>
      <stop offset="1" stop-color="#170D1F"/>
    </linearGradient>
    <linearGradient id="f" gradientTransform="matrix(0.9919 -0.2786 0.2895 1.0307 0 0)" gradientUnits="userSpaceOnUse" x1="38.487986" x2="38.487986" y1="27.481714" y2="46.347714">
      <stop offset=".0028045" stop-color="#0063B2"/>
      <stop offset=".1363" stop-color="#0160AC"/>
      <stop offset=".3109" stop-color="#03569C"/>
      <stop offset=".5082" stop-color="#084681"/>
      <stop offset=".7223" stop-color="#0E305B"/>
      <stop offset=".9475" stop-color="#15142B"/>
      <stop offset="1" stop-color="#170D1F"/>
    </linearGradient>
    <linearGradient id="e" gradientTransform="matrix(0.909 -0.4169 0.4169 0.909 0 0)" gradientUnits="userSpaceOnUse" x1="30.334395" x2="30.334395" y1="40.886145" y2="58.948145">
      <stop offset=".0028045" stop-color="#0063B2"/>
      <stop offset=".1363" stop-color="#0160AC"/>
      <stop offset=".3109" stop-color="#03569C"/>
      <stop offset=".5082" stop-color="#084681"/>
      <stop offset=".7223" stop-color="#0E305B"/>
      <stop offset=".9475" stop-color="#15142B"/>
      <stop offset="1" stop-color="#170D1F"/>
    </linearGradient>
    <linearGradient id="d" gradientTransform="matrix(-1.0651 -0.1281 -0.1293 1.0755 0 0)" gradientUnits="userSpaceOnUse" x1="-74.8086" x2="-74.8086" y1="0.51831" y2="22.72531">
      <stop offset=".0028045" stop-color="#0063B2"/>
      <stop offset=".1363" stop-color="#0160AC"/>
      <stop offset=".3109" stop-color="#03569C"/>
      <stop offset=".5082" stop-color="#084681"/>
      <stop offset=".7223" stop-color="#0E305B"/>
      <stop offset=".9475" stop-color="#15142B"/>
      <stop offset="1" stop-color="#170D1F"/>
    </linearGradient>
    <linearGradient id="c" gradientTransform="matrix(-0.9919 -0.2786 -0.2895 1.0307 0 0)" gradientUnits="userSpaceOnUse" x1="-81.115379" x2="-81.115379" y1="-4.847274" y2="14.017726">
      <stop offset=".0028045" stop-color="#0063B2"/>
      <stop offset=".1363" stop-color="#0160AC"/>
      <stop offset=".3109" stop-color="#03569C"/>
      <stop offset=".5082" stop-color="#084681"/>
      <stop offset=".7223" stop-color="#0E305B"/>
      <stop offset=".9475" stop-color="#15142B"/>
      <stop offset="1" stop-color="#170D1F"/>
    </linearGradient>
    <linearGradient id="b" gradientTransform="matrix(-0.909 -0.4169 -0.4169 0.909 0 0)" gradientUnits="userSpaceOnUse" x1="-86.005284" x2="-86.005284" y1="-12.472799" y2="5.589201">
      <stop offset=".0028045" stop-color="#0063B2"/>
      <stop offset=".1363" stop-color="#0160AC"/>
      <stop offset=".3109" stop-color="#03569C"/>
      <stop offset=".5082" stop-color="#084681"/>
      <stop offset=".7223" stop-color="#0E305B"/>
      <stop offset=".9475" stop-color="#15142B"/>
      <stop offset="1" stop-color="#170D1F"/>
    </linearGradient>
  </defs>
  <path d="M48.75,31.83 L31.5,108.17 C36.82,109.7 42.42,111.18 47.92,111.77 C55.93,112.64 63.67,108.41 71.68,109.85 C77.51,110.9 81.14,111.98 86.96,110.22 C90.22,109.24 93.43,107.98 96.5,106.51 L76,31.83 L48.75,31.83 Z" fill="url(#h)"/>
  <path d="M47.951,30.83 L76.762,30.83 L97.686,107.051 L96.932,107.412 Q92.137,109.708 87.249,111.177 Q81.897,112.796 73.516,111.209 Q72.203,110.96 71.503,110.834 Q67.473,110.11 59.373,111.699 Q51.758,113.193 47.813,112.764 Q41.503,112.087 31.224,109.131 L30.317,108.87 L47.775,31.61 Z M49.549,32.83 L32.684,107.468 Q42.167,110.147 48.027,110.776 Q51.672,111.172 58.988,109.736 Q67.457,108.075 71.857,108.866 Q72.566,108.993 73.888,109.244 Q81.787,110.74 86.671,109.263 Q91.028,107.953 95.313,105.964 L75.238,32.83 L49.549,32.83 Z" fill="#611A5E"/>
  <path d="M35.75,14.48 L48.3,10.05 L64.31,33.01 L57.56,33.55 L47.69,13.62 Z" fill="url(#g)"/>
  <path d="M35.522,13.835 L48.563,9.232 L65.553,33.597 L57.153,34.269 L47.281,14.335 L30.729,15.527 Z M40.771,13.433 L48.099,12.905 L57.967,32.831 L63.067,32.423 L48.037,10.868 L40.771,13.433 Z" fill="#0E2B52"/>
  <path d="M36.73,21.49 L47.07,17.25 L61.44,34.77 L55.62,36.14 L46.46,20.63 Z" fill="url(#f)"/>
  <path d="M36.498,20.923 L47.256,16.511 L62.537,35.141 L55.322,36.84 L46.129,21.274 L32.76,22.456 Z M40.7,20.524 L46.791,19.986 L55.918,35.44 L60.343,34.399 L46.884,17.989 L40.7,20.524 Z" fill="#0E2B52"/>
  <path d="M36.92,29.34 L44.58,24.45 L60.51,37.56 L55.14,39.77 L44.39,28.05 Z" fill="url(#e)"/>
  <path d="M36.606,28.848 L44.623,23.73 L61.633,37.729 L54.985,40.464 L44.175,28.679 L34.163,30.408 Z M39.677,28.272 L44.605,27.421 L55.295,39.076 L59.387,37.391 L44.537,25.17 L39.677,28.272 Z" fill="#0E2B52"/>
  <path d="M92.25,14.48 L79.7,10.05 L63.69,33.01 L70.44,33.55 L80.31,13.62 Z" fill="url(#d)"/>
  <path d="M97.271,15.527 L80.719,14.335 L70.847,34.269 L62.447,33.597 L79.437,9.232 L92.478,13.835 Z M87.229,13.433 L79.963,10.868 L64.933,32.423 L70.033,32.831 L79.901,12.905 L87.229,13.433 Z" fill="#0E2B52"/>
  <path d="M91.27,21.49 L80.93,17.25 L66.56,34.77 L72.38,36.14 L81.54,20.63 Z" fill="url(#c)"/>
  <path d="M95.24,22.456 L81.871,21.274 L72.678,36.84 L65.463,35.141 L80.744,16.511 L91.502,20.923 Z M87.3,20.524 L81.117,17.989 L67.657,34.399 L72.082,35.44 L81.209,19.986 L87.3,20.524 Z" fill="#0E2B52"/>
  <path d="M91.08,29.34 L83.42,24.45 L67.49,37.56 L72.86,39.77 L83.61,28.05 Z" fill="url(#b)"/>
  <path d="M93.837,30.408 L83.825,28.679 L73.015,40.464 L66.367,37.729 L83.377,23.73 L91.394,28.848 Z M88.323,28.272 L83.463,25.17 L68.613,37.391 L72.705,39.076 L83.395,27.421 L88.323,28.272 Z" fill="#0E2B52"/>
  <path d="M86.34,52.95 C85.67,52.95 85.04,52.7 84.58,52.23 L70.44,38.09 C69.47,37.12 69.47,35.53 70.44,34.55 L72.38,32.61 C72.69,32.3 73.37,32.12 74.25,32.12 C75.69,32.12 77.29,32.59 77.89,33.19 L87.74,47 L90.93,42.91 C91.31,42.59 91.89,42.38 92.49,42.38 C93.22,42.38 93.91,42.7 94.39,43.25 L94.61,43.5 C95.51,44.54 95.39,46.13 94.35,47.03 L88.16,52.36 C87.71,52.75 87.15,52.95 86.54,52.95 L86.34,52.95 Z" fill="url(#a)"/>
  <path d="M74.26,32.62 C75.62,32.62 77,33.07 77.5,33.5 L86.94,46.75 L87.72,47.84 L88.54,46.78 L91.25,43.3 C91.6,43.03 92.03,42.88 92.48,42.88 C93.07,42.88 93.62,43.13 94,43.57 L94.22,43.82 C94.94,44.66 94.85,45.92 94.01,46.64 L87.82,51.97 C87.37,52.36 86.86,52.44 86.51,52.44 L86.48,52.44 L86.45,52.44 L86.33,52.44 C85.79,52.44 85.29,52.24 84.92,51.87 L70.8,37.73 C70.02,36.95 70.02,35.68 70.8,34.9 L72.74,32.96 C72.91,32.79 73.45,32.62 74.26,32.62 M74.26,31.62 C73.32,31.62 72.48,31.81 72.03,32.26 L70.09,34.2 C68.92,35.37 68.92,37.28 70.09,38.44 L84.23,52.58 C84.81,53.16 85.58,53.44 86.35,53.44 L86.52,53.44 L86.53,53.44 C87.22,53.44 87.92,53.22 88.48,52.73 L94.67,47.4 C95.92,46.32 96.06,44.42 94.99,43.17 L94.77,42.92 C94.18,42.23 93.34,41.88 92.49,41.88 C91.8,41.88 91.1,42.12 90.54,42.6 L87.76,46.16 L78.26,32.83 C77.53,32.11 75.77,31.62 74.26,31.62 Z" fill="#0E2B52"/>
  <path d="M83.17,89.36 C81.49,86.72 73.69,77.57 68.85,72.49 C68.03,71.63 66.92,71.15 65.73,71.15 C64.59,71.15 63.51,71.6 62.71,72.4 C56.52,78.6 49.19,86.19 47.31,88.29 C43.69,87.64 39,85.91 37.45,85.32 C38.57,83.21 43.05,74.83 46.92,68.6 C46.95,68.55 47.37,67.93 48,66.98 C53.25,59.1 54.92,56.56 55.46,55.69 C56.45,56.04 59.4,57.17 63.74,59.62 C64.5,60.05 65.28,60.27 66.05,60.27 C68.3,60.27 69.86,58.44 70.55,57.45 C70.78,57.69 71.1,58.03 71.56,58.52 C72.03,59.01 72.66,59.67 72.78,59.83 C73.65,61.7 85.01,77.29 88.9,82.6 C88.18,83.69 85.54,87.59 83.17,89.36 Z" fill="url(#r)"/>
  <path d="M55.68,56.29 C56.91,56.75 59.65,57.87 63.51,60.05 C64.35,60.52 65.21,60.76 66.06,60.76 C68.18,60.76 69.74,59.3 70.6,58.21 C70.77,58.39 70.97,58.6 71.2,58.84 C71.65,59.31 72.27,59.96 72.38,60.11 C72.37,60.1 72.28,59.97 72.24,59.78 C72.46,60.82 80.98,72.63 88.27,82.6 C87.43,83.86 85.28,86.93 83.27,88.62 C80.91,85.19 73.14,76.28 69.2,72.13 C68.28,71.17 67.05,70.63 65.72,70.63 C64.44,70.63 63.24,71.13 62.34,72.03 C56.34,78.04 49.26,85.37 47.11,87.73 C43.92,87.12 39.99,85.72 38.14,85.03 C39.58,82.32 43.72,74.65 47.32,68.85 C47.36,68.78 47.77,68.17 48.39,67.25 C53.04,60.32 54.91,57.49 55.68,56.29 M55.25,55.08 C55.21,55.28 46.6,68.18 46.5,68.33 C42,75.58 36.75,85.58 36.75,85.58 C36.75,85.58 43,88.08 47.5,88.83 C49.03,87.08 56.66,79.17 63.07,72.75 C63.81,72.01 64.77,71.64 65.74,71.64 C66.74,71.64 67.75,72.04 68.5,72.82 C74.05,78.68 82.67,88.91 83,90.08 C85.97,88.19 89.5,82.58 89.5,82.58 C89.5,82.58 73.46,60.65 73.23,59.58 C73.19,59.4 70.54,56.78 70.5,56.58 C70.5,56.58 68.81,59.76 66.06,59.76 C65.43,59.76 64.74,59.59 64,59.18 C58.5,56.08 55.25,55.08 55.25,55.08 Z" fill="#0E2B52"/>
  <path d="M66.19,63.89 C65.22,63.89 64.3,63.52 63.6,62.85 L56.51,56.07 C55.88,55.47 55.48,54.67 55.38,53.81 C55.21,52.39 54.83,50.06 54,46.95 C52.6,41.74 50.9,37.2 49.78,34.19 C49.37,33.09 49.05,32.23 48.87,31.67 C48.12,29.35 48.17,27.59 49,26.45 C49.85,25.28 51.58,24.68 54.12,24.68 C58.7,24.68 64.29,26.65 64.35,26.67 C65.43,27.08 66.61,27.45 67.86,27.84 C73.42,29.59 79.73,31.57 78.99,37.86 C78.97,38.07 78.92,38.29 78.84,38.55 C78.04,41.06 74.03,53.81 73.08,57.77 C72.91,58.47 72.56,59.1 72.07,59.59 C71.24,60.41 70.01,61.64 68.86,62.79 C68.13,63.5 67.19,63.89 66.19,63.89 Z" fill="url(#q)"/>
  <path d="M54.11,25.19 C58.6,25.19 64.12,27.13 64.15,27.14 C65.25,27.56 66.44,27.93 67.7,28.32 C73.34,30.09 79.18,31.93 78.49,37.8 C78.47,37.98 78.42,38.18 78.36,38.4 C77.56,40.92 73.54,53.68 72.59,57.66 C72.44,58.27 72.14,58.81 71.71,59.24 C70.88,60.06 69.64,61.29 68.49,62.44 C67.88,63.05 67.06,63.39 66.19,63.39 C65.35,63.39 64.55,63.07 63.94,62.49 L56.84,55.71 C56.3,55.19 55.95,54.5 55.86,53.75 C55.69,52.32 55.31,49.96 54.46,46.82 C53.05,41.59 51.35,37.03 50.22,34.02 C49.81,32.93 49.49,32.07 49.32,31.53 C48.62,29.37 48.64,27.76 49.38,26.76 C50.14,25.72 51.73,25.19 54.11,25.19 M54.11,24.19 C49.9,24.19 46.44,25.79 48.38,31.83 C49.04,33.89 51.58,39.93 53.5,47.08 C54.33,50.18 54.7,52.49 54.87,53.87 C54.99,54.85 55.44,55.75 56.15,56.43 L63.25,63.21 C64.07,64 65.13,64.39 66.19,64.39 C67.28,64.39 68.36,63.98 69.19,63.15 C70.34,62 71.58,60.77 72.4,59.95 C72.97,59.39 73.36,58.68 73.55,57.9 C74.5,53.94 78.55,41.07 79.3,38.71 C79.38,38.46 79.44,38.19 79.47,37.93 C80.42,29.79 70.57,28.51 64.5,26.21 C64.5,26.21 58.83,24.19 54.11,24.19 Z" fill="#0E2B52"/>
  <path d="M64.08,30.48 C62.66,30.48 61.5,29.34 61.5,27.93 L61.5,24.74 L67.25,24.74 L67.25,27.93 C67.25,29.34 66.09,30.48 64.67,30.48 L64.08,30.48 Z" fill="#99674F"/>
  <path d="M66.9,25.09 L66.9,27.93 C66.9,29.14 65.9,30.13 64.67,30.13 L64.08,30.13 C62.85,30.13 61.85,29.14 61.85,27.93 L61.85,25.09 L66.9,25.09 M67.6,24.39 L61.16,24.39 L61.16,27.93 C61.16,29.53 62.47,30.83 64.09,30.83 L64.68,30.83 C66.3,30.83 67.61,29.53 67.61,27.93 L67.61,24.39 L67.6,24.39 Z" fill="#875740"/>
  <path d="M56.85,20.5 C55.44,20.5 54.3,19.27 54.3,17.77 C54.3,16.27 55.44,15.04 56.85,15.04 L71.13,15.04 C72.54,15.04 73.68,16.26 73.68,17.77 C73.68,19.28 72.54,20.5 71.13,20.5 L56.85,20.5 Z" fill="#99674F"/>
  <path d="M71.12,15.28 C72.39,15.28 73.42,16.39 73.42,17.76 C73.42,19.13 72.39,20.24 71.12,20.24 L56.85,20.24 C55.58,20.24 54.55,19.13 54.55,17.76 C54.55,16.39 55.58,15.28 56.85,15.28 L71.12,15.28 M71.12,14.78 L56.85,14.78 C55.31,14.78 54.05,16.12 54.05,17.76 C54.05,19.4 55.31,20.74 56.85,20.74 L71.13,20.74 C72.67,20.74 73.93,19.4 73.93,17.76 C73.93,16.12 72.66,14.78 71.12,14.78 Z" fill="#875740"/>
  <path d="M63.99,26.51 C59.89,26.51 55.48,23.33 55.48,16.36 C55.48,10.78 58.73,4.75 63.99,4.75 C69.25,4.75 72.5,10.78 72.5,16.36 C72.49,23.33 68.08,26.51 63.99,26.51 Z" fill="url(#p)"/>
  <path d="M63.99,5 C69.09,5 72.25,10.9 72.25,16.36 C72.25,21.13 69.67,26.26 63.99,26.26 C58.32,26.26 55.73,21.13 55.73,16.36 C55.73,10.9 58.89,5 63.99,5 M63.99,4.5 C59.44,4.5 55.23,9.36 55.23,16.36 C55.23,23.32 59.57,26.76 63.99,26.76 C68.41,26.76 72.75,23.32 72.75,16.36 C72.74,9.36 68.53,4.5 63.99,4.5 Z" fill="#91674D"/>
  <path d="M62.78,19.74 C62.86,19.93 63.99,20.95 63.99,20.95 C63.99,20.95 65.12,19.93 65.2,19.74 C65.27,19.55 62.7,19.55 62.78,19.74 Z" fill="#99674F"/>
  <path d="M68.92,20.75 C65.79,22.46 62.52,22.46 59.05,20.75 C58.81,20.63 60.15,24.18 63.99,24.18 C67.83,24.18 69.16,20.62 68.92,20.75 Z" fill="#5D4037"/>
  <path d="M73.92,6.85 C73.67,4.6 67.95,2.59 63.98,2.59 C60.52,2.59 54.3,4.6 54.04,6.85 C53.51,11.55 54.53,16.28 54.53,16.28 C54.53,16.28 55.86,18.63 55.86,18.58 C55.82,16.69 56.58,13.33 57.11,11.9 C57.38,11.18 58.13,10.76 58.88,10.9 C60.04,11.11 61.94,11.37 63.96,11.37 C65.99,11.37 67.89,11.11 69.04,10.9 C69.8,10.76 70.54,11.18 70.81,11.9 C71.35,13.33 72.11,16.68 72.06,18.58 C72.06,18.63 73.39,16.28 73.39,16.28 C73.39,16.28 74.45,11.55 73.92,6.85 Z" fill="url(#o)"/>
  <path d="M62.48,16.5 C62.24,16.5 62,16.48 61.77,16.45 L61.43,16.4 L61.1,16.33 C60.88,16.29 60.67,16.22 60.45,16.16 C60.23,16.1 60.03,16.03 59.82,15.96 C59,15.65 58.21,15.27 57.47,14.79 L56.96,14.46 L57.09,14.03 C57.15,13.84 57.21,13.66 57.29,13.48 L57.4,13.2 L57.53,12.93 C57.61,12.75 57.71,12.57 57.81,12.39 C57.91,12.21 58.03,12.04 58.16,11.86 L58.25,11.88 C58.19,12.26 58.13,12.65 58.07,13.03 L57.87,14.18 L57.83,14.1 L59,14.65 L60.18,15.23 L61.36,15.82 C61.75,16.01 62.14,16.22 62.53,16.42 L62.48,16.5 Z"/>
  <path d="M60.63,18.04 C60.21,18.04 59.74,17.93 59.33,17.73 C58.2,17.19 57.38,16.22 57.34,16.18 L57,15.78 L57.52,15.72 C57.52,15.72 57.88,15.68 58.37,15.68 C59,15.68 59.54,15.75 59.97,15.89 C60.4,16.03 61.43,16.41 61.72,16.98 C61.8,17.15 61.82,17.32 61.77,17.48 C61.66,17.83 61.23,18.04 60.63,18.04 Z" fill="url(#n)"/>
  <path d="M58.38,15.96 C58.84,15.96 59.41,16 59.89,16.15 C60.86,16.46 61.64,16.96 61.51,17.38 C61.43,17.62 61.09,17.76 60.64,17.76 C60.29,17.76 59.87,17.67 59.46,17.48 C58.36,16.96 57.56,16 57.56,16 C57.56,16 57.91,15.96 58.38,15.96 M58.38,15.39 C57.88,15.39 57.51,15.43 57.49,15.44 L56.44,15.56 L57.12,16.37 C57.16,16.41 58.02,17.43 59.2,18 C59.65,18.22 60.16,18.34 60.63,18.34 C61.36,18.34 61.89,18.05 62.04,17.57 C62.28,16.82 61.56,16.11 60.06,15.62 C59.61,15.46 59.04,15.39 58.38,15.39 Z"/>
  <path d="M65.49,16.5 C65.73,16.5 65.97,16.48 66.2,16.45 L66.54,16.4 L66.87,16.33 C67.09,16.29 67.3,16.22 67.52,16.16 C67.74,16.1 67.94,16.03 68.15,15.96 C68.97,15.65 69.76,15.27 70.5,14.79 L71.01,14.46 L70.88,14.03 C70.82,13.84 70.76,13.66 70.68,13.48 L70.57,13.2 L70.44,12.93 C70.36,12.75 70.26,12.57 70.16,12.39 C70.06,12.21 69.94,12.04 69.81,11.86 L69.72,11.88 C69.78,12.26 69.84,12.65 69.9,13.03 L70.1,14.18 L70.14,14.1 L68.96,14.67 L67.78,15.25 L66.6,15.84 C66.21,16.03 65.82,16.24 65.43,16.44 L65.49,16.5 Z"/>
  <path d="M67.34,18.04 C66.74,18.04 66.31,17.83 66.2,17.47 C66.15,17.31 66.17,17.14 66.25,16.97 C66.54,16.4 67.57,16.01 68,15.88 C68.43,15.74 68.96,15.67 69.6,15.67 C70.09,15.67 70.45,15.71 70.45,15.71 L70.97,15.77 L70.63,16.17 C70.59,16.21 69.77,17.18 68.64,17.72 C68.23,17.94 67.76,18.04 67.34,18.04 Z" fill="url(#m)"/>
  <path d="M69.59,15.96 C70.06,15.96 70.41,16 70.41,16 C70.41,16 69.6,16.96 68.52,17.48 C68.11,17.67 67.69,17.76 67.34,17.76 C66.89,17.76 66.54,17.62 66.47,17.38 C66.33,16.96 67.11,16.46 68.09,16.15 C68.56,16 69.13,15.96 69.59,15.96 M69.59,15.39 C68.93,15.39 68.36,15.46 67.91,15.61 C66.41,16.09 65.69,16.81 65.93,17.56 C66.09,18.04 66.61,18.33 67.34,18.33 C67.81,18.33 68.31,18.21 68.77,17.99 C69.96,17.42 70.82,16.41 70.85,16.36 L71.53,15.55 L70.48,15.43 C70.46,15.43 70.09,15.39 69.59,15.39 Z"/>
  <path d="M73.95,6.85 C73.7,4.6 67.47,2.59 64.01,2.59 C64.01,2.59 64,2.61 64,2.65 C64,2.61 63.99,2.59 63.99,2.59 C60.53,2.59 54.31,4.6 54.05,6.85 C53.52,11.55 54.54,16.28 54.54,16.28 C54.54,16.28 55.85,18.58 55.87,18.58 C55.86,18.22 55.95,17.09 55.95,17.09 L55.3,16.05 C55.3,16.05 54.35,11.05 54.82,6.94 C54.99,5.47 60.38,3.38 63.98,3.38 C63.99,3.38 63.99,3.37 63.99,3.35 C63.99,3.37 64,3.38 64,3.38 C67.6,3.38 72.99,5.48 73.16,6.94 C73.63,11.05 72.68,16.05 72.68,16.05 L72.03,17.09 C72.03,17.09 72.12,18.23 72.11,18.58 C72.13,18.58 73.44,16.28 73.44,16.28 C73.44,16.28 74.48,11.55 73.95,6.85 Z" fill="#402821"/>
  <path d="M74.04,10.99 C73.96,12.22 73.84,13.44 73.69,14.66 L73.69,14.75 C73.83,13.81 73.99,12.48 74.04,10.99 C74.05,10.99 74.05,10.99 74.04,10.99 Z"/>
  <path d="M63.052,13.633 Q63.531,15.431 62.892,16.467 L62.448,16.193 Q62.969,15.349 62.548,13.767 Z" fill="#99674F"/>
  <path d="M65.392,13.767 Q64.971,15.349 65.492,16.193 L65.048,16.467 Q64.409,15.431 64.888,13.633 Z" fill="#99674F"/>
  <path d="M64.33,36.39 L66,32.47 L68.26,36.29 L66.69,42.89 Z" fill="url(#l)"/>
  <path d="M66.04,33.18 L67.92,36.34 L66.63,41.78 L64.67,36.4 L66.04,33.18 M65.95,31.77 L65.45,32.93 L64.08,36.15 L63.98,36.38 L64.07,36.62 L66.02,42 L66.75,44.01 L67.24,41.93 L68.53,36.49 L68.59,36.24 L68.46,36.02 L66.58,32.86 L65.95,31.77 Z"/>
  <path d="M33.55,40 C31.88,40 30.35,38.96 29.75,37.41 L25.63,26.78 C25.44,26.28 25.45,25.74 25.67,25.24 C25.89,24.75 26.28,24.37 26.78,24.18 L29.52,23.11 C29.75,23.02 29.99,22.97 30.24,22.97 C31.07,22.97 31.82,23.49 32.12,24.25 L34.94,31.51 L51.03,27.23 C51.36,27.14 51.7,27.1 52.05,27.1 C53.86,27.1 55.44,28.32 55.9,30.06 C56.17,31.08 56.03,32.15 55.49,33.08 C54.95,34 54.1,34.66 53.07,34.93 L35.07,39.72 C34.52,39.91 34.04,40 33.55,40 Z" fill="url(#k)"/>
  <path d="M30.23,23.37 C30.9,23.37 31.51,23.78 31.74,24.4 L34.43,31.33 L34.69,31.99 L35.37,31.81 L51.12,27.62 C51.42,27.54 51.73,27.5 52.03,27.5 C53.66,27.5 55.09,28.6 55.5,30.16 C55.74,31.08 55.61,32.05 55.13,32.88 C54.65,33.71 53.88,34.3 52.95,34.55 L34.99,39.32 L34.95,39.32 L34.85,39.34 L34.81,39.36 C34.4,39.52 33.96,39.6 33.52,39.6 C32.01,39.6 30.63,38.66 30.08,37.26 L25.96,26.63 C25.64,25.8 26.05,24.86 26.88,24.54 L29.62,23.48 C29.84,23.4 30.03,23.37 30.23,23.37 M30.23,22.58 C29.94,22.58 29.65,22.63 29.37,22.74 L26.63,23.8 C25.4,24.28 24.78,25.68 25.26,26.91 L29.38,37.54 C30.06,39.3 31.76,40.39 33.55,40.39 C34.07,40.39 34.6,40.3 35.12,40.1 C35.14,40.1 35.16,40.1 35.18,40.09 L53.18,35.3 C55.51,34.68 56.9,32.27 56.28,29.95 C55.76,28 53.98,26.7 52.05,26.7 C51.68,26.7 51.31,26.75 50.93,26.85 L35.18,31.04 L32.49,24.11 C32.11,23.16 31.2,22.58 30.23,22.58 Z" fill="#0E2B52"/>
  <path d="M40.97,123.2 C35.03,123.2 31.91,122 30.33,121 C30.05,120.82 30.08,120.55 30.09,120.47 C30.11,120.37 30.18,120.13 30.49,120.07 C48.21,116.34 48.8,114.94 49.02,114.41 C49.14,114.13 49.11,113.83 48.95,113.57 C45.05,107.51 36.56,91.87 33.09,85.43 C32.97,85.21 33.04,85.02 33.1,84.93 C33.17,84.81 33.33,84.68 33.53,84.68 C33.58,84.68 33.63,84.69 33.68,84.7 L46.81,88.48 C46.98,88.53 47.1,88.65 47.16,88.82 L56.81,119.82 C56.87,120.11 56.82,120.38 56.64,120.63 C55.74,121.88 52.14,122.26 50.21,122.47 C49.79,122.51 49.41,122.55 49.11,122.59 C46.15,122.99 43.41,123.2 40.97,123.2 Z" fill="#0E2B52"/>
  <path d="M33.8,85.39 L46.58,89.07 L56.19,119.95 C56.22,120.12 56.18,120.19 56.13,120.26 C55.4,121.28 51.72,121.67 50.14,121.84 C49.71,121.89 49.33,121.93 49.02,121.97 C46.08,122.37 43.37,122.57 40.97,122.57 C35.5,122.57 32.51,121.55 30.93,120.63 C48.68,116.88 49.28,115.44 49.61,114.66 C49.81,114.18 49.76,113.67 49.49,113.24 C45.65,107.26 37.35,91.98 33.8,85.39 M33.54,84.04 C32.72,84.04 32.11,84.94 32.54,85.73 C35.81,91.81 44.48,107.78 48.42,113.92 C49.31,115.31 35.71,118.33 30.36,119.45 C29.35,119.66 29.12,120.99 29.99,121.54 C31.69,122.62 34.95,123.84 40.97,123.84 C43.28,123.84 46,123.66 49.2,123.23 C51.48,122.92 58.11,122.69 57.42,119.63 L47.77,88.63 C47.66,88.26 47.36,87.98 46.99,87.87 L33.86,84.09 C33.75,84.05 33.64,84.04 33.54,84.04 Z"/>
  <path d="M101.45,118.52 C100.7,118.52 99.92,118.5 99.12,118.45 C92.23,118.06 90.09,116.54 89.5,115.34 L80.95,91.4 C80.91,91.28 80.93,91.15 81.02,91.06 L89.85,81.18 C89.92,81.1 90,81.06 90.1,81.06 C90.25,81.06 90.42,81.15 90.44,81.36 C91.19,87.92 93.03,103.79 93.83,109.55 C93.9,110.06 94.07,111.25 109.22,117.11 C109.43,117.19 109.44,117.38 109.44,117.46 C109.43,117.54 109.4,117.71 109.18,117.76 C107.5,118.1 104.79,118.52 101.45,118.52 Z" fill="#0E2B52"/>
  <path d="M89.94,81.89 C90.72,88.68 92.48,103.92 93.28,109.63 C93.39,110.42 93.56,111.62 108.34,117.36 C106.68,117.66 104.3,117.97 101.44,117.97 C100.68,117.97 99.9,117.95 99.14,117.9 C92.06,117.5 90.39,115.88 90,115.14 L81.5,91.33 L89.94,81.89 M90.09,80.51 C89.85,80.51 89.62,80.6 89.43,80.81 L80.6,90.69 C80.38,90.93 80.32,91.27 80.43,91.58 L89,115.58 C90.41,118.47 97.08,118.88 99.08,119 C99.9,119.05 100.69,119.07 101.44,119.07 C104.74,119.07 107.43,118.68 109.27,118.3 C110.14,118.12 110.23,116.92 109.4,116.6 C104.54,114.72 94.53,110.71 94.35,109.48 C93.52,103.54 91.61,87 90.96,81.3 C90.92,80.81 90.51,80.51 90.09,80.51 Z"/>
  <path d="M34.24,9.14 C34.6,9.5 35.2,9.5 35.57,9.14 C35.93,8.78 35.93,8.18 35.57,7.81 L34.3,6.24 C32.98,4.67 31.76,5.42 31.76,5.42 C31.79,5.26 31.79,5.1 31.73,4.94 C31.55,4.46 31.01,4.21 30.53,4.39 C30.53,4.39 28.95,4.65 28.85,4.52 C28.53,4.12 27.93,4.06 27.53,4.38 L25.3,6.2 C25.05,6.4 22.99,10.59 22.59,14.17 C21.92,20.17 23.29,28.09 26.76,35.17 C26.76,35.17 28.15,31.5 29.8,29.77 C30.98,28.51 32.98,27.38 35.06,27.34 C35.06,27.34 34.53,24.88 30.7,19.21 C29.05,16.77 28.51,15.14 28.57,13.84 L31.44,13.84 C31.96,13.84 32.38,13.42 32.38,12.9 C32.38,12.38 31.96,11.96 31.44,11.96 L29.81,11.96 C27.69,10.77 29.85,8.81 30.96,8.04 C31.63,7.58 32.31,7.83 32.31,7.83 L34.24,9.14 Z" fill="url(#j)"/>
  <path d="M33.922,9.528 L32.085,8.282 Q31.673,8.157 31.245,8.451 Q30.073,9.264 29.609,10.088 Q29.36,10.531 29.428,10.848 Q29.499,11.179 29.947,11.46 L31.44,11.46 Q32.88,11.46 32.88,12.9 Q32.88,13.497 32.459,13.919 Q32.037,14.34 31.44,14.34 L29.08,14.34 Q29.237,16.154 31.114,18.93 Q34.998,24.68 35.549,27.235 Q35.559,27.282 35.56,27.33 Q35.57,27.83 35.07,27.84 Q32.242,27.894 30.162,30.115 Q28.582,31.772 27.228,35.347 Q27.158,35.532 26.98,35.619 Q26.756,35.729 26.588,35.672 Q26.421,35.615 26.311,35.39 Q20.941,24.433 22.093,14.114 Q22.359,11.735 23.536,8.735 Q24.544,6.164 24.984,5.813 L27.218,3.99 Q27.679,3.621 28.272,3.683 Q28.87,3.745 29.246,4.215 L29.136,4.055 Q29.332,4.048 29.668,4.007 Q30.041,3.963 30.403,3.904 Q31.675,3.454 32.177,4.709 Q33.428,4.426 34.689,5.926 L35.945,7.479 Q36.92,8.497 35.919,9.498 Q34.909,10.481 33.922,9.528 Z M34.594,8.786 Q34.901,9.094 35.221,8.782 Q35.524,8.479 35.212,8.159 Q35.196,8.142 35.181,8.124 L33.911,6.554 Q32.875,5.322 32.022,5.846 Q31.596,6.108 31.334,5.682 Q31.233,5.517 31.269,5.328 Q31.293,5.198 31.262,5.116 Q31.199,4.948 31.034,4.872 Q30.87,4.797 30.706,4.858 Q30.66,4.875 30.611,4.883 Q28.736,5.192 28.454,4.825 Q28.351,4.696 28.168,4.677 Q27.983,4.658 27.842,4.77 L25.616,6.587 Q25.377,6.778 24.467,9.1 Q23.338,11.977 23.087,14.226 Q22.021,23.773 26.72,33.924 Q27.972,30.962 29.438,29.425 Q31.567,27.152 34.417,26.876 Q33.64,24.455 30.286,19.49 Q27.967,16.061 28.071,13.817 Q28.093,13.34 28.57,13.34 L31.44,13.34 Q31.88,13.34 31.88,12.9 Q31.88,12.46 31.44,12.46 L29.81,12.46 Q29.679,12.46 29.565,12.396 Q28.625,11.868 28.45,11.059 Q28.302,10.371 28.738,9.597 Q29.315,8.573 30.675,7.629 Q31.56,7.022 32.483,7.361 Q32.54,7.382 32.591,7.416 L34.521,8.726 Q34.56,8.753 34.594,8.786 Z" fill="#009245"/>
  <path d="M103.92,24.67 L101,22.08 C100.08,21.66 100.22,21.53 99.58,22.08 C98.41,23.08 100.75,24.58 100.75,24.58 C100.68,24.67 97.97,23.01 97.97,23.01 C97.59,22.73 97.06,22.82 96.78,23.2 L96.75,23.24 C96.47,23.62 96.56,24.15 96.94,24.43 L98.76,25.76 C98.87,25.84 95.91,24.87 95.91,24.87 C95.46,24.73 94.98,24.97 94.84,25.42 L94.82,25.47 C94.67,25.92 94.92,26.4 95.37,26.54 L97.22,27.14 C97.22,27.15 97.22,27.15 97.23,27.16 C97.23,27.16 97.56,27.98 97.9,28.87 C98.33,29.99 98.29,31.33 97.09,31.41 L95.76,31.33 C94.95,31.27 93.51,32.83 95.84,33.25 L99.12,33.7 C98.92,35.14 97.96,36.56 94.85,38.48 C89.34,41.9 87.88,43.78 87.88,43.78 C89.58,44.54 90.75,46.18 91.21,47.65 C91.85,49.68 90.99,54.23 90.99,54.23 C96.78,49.5 101.21,41.19 102.85,36.64 L102.85,36.64 C104.13,33.09 103.61,29.09 103.69,28.68 C103.69,28.68 104.12,24.97 103.92,24.67 Z" fill="url(#i)"/>
  <path d="M104.252,24.296 Q104.3,24.339 104.336,24.393 Q104.638,24.845 104.187,28.738 Q104.184,28.757 104.181,28.776 Q104.175,28.803 104.196,29.338 Q104.369,33.9 103.32,36.81 Q99.237,48.138 91.306,54.617 Q91.126,54.765 90.897,54.721 Q90.406,54.628 90.499,54.137 Q91.335,49.711 90.733,47.799 Q89.934,45.246 87.676,44.236 Q87.621,44.212 87.573,44.175 Q87.376,44.022 87.354,43.846 Q87.332,43.671 87.485,43.473 Q89,41.523 94.587,38.055 Q97.899,36.01 98.511,34.121 L95.772,33.745 Q95.762,33.744 95.751,33.742 Q94.77,33.565 94.355,33.095 Q93.902,32.58 94.157,31.928 Q94.619,30.744 95.79,30.831 L97.085,30.909 Q97.521,30.866 97.618,30.423 Q97.742,29.854 97.433,29.048 Q97.135,28.269 96.845,27.544 L95.221,27.017 Q94.683,26.85 94.426,26.351 Q94.167,25.849 94.346,25.312 Q94.35,25.298 94.356,25.284 L94.369,25.252 Q94.565,24.638 94.974,24.419 Q95.403,24.189 96.066,24.395 Q96.155,24.424 96.246,24.454 Q96.061,24.213 96.022,23.95 Q95.952,23.479 96.35,22.94 L96.377,22.903 Q97.177,21.819 98.248,22.594 Q98.507,22.752 98.765,22.908 Q98.665,22.205 99.254,21.701 Q100.028,21.036 100.809,21.431 Q101.045,21.551 101.208,21.625 Q101.276,21.656 101.332,21.706 Z M100.48,25.001 Q100.291,24.88 100.116,24.747 Q99.257,24.384 97.709,23.436 Q97.691,23.425 97.673,23.413 Q97.395,23.208 97.183,23.497 L97.15,23.54 Q96.948,23.815 97.237,24.027 L99.055,25.356 Q99.188,25.453 99.238,25.608 Q99.331,25.893 99.124,26.11 Q99.017,26.221 98.867,26.253 Q98.768,26.274 98.661,26.256 Q98.616,26.248 98.54,26.228 Q98.431,26.199 98.216,26.133 Q97.863,26.026 97.224,25.821 Q96.496,25.588 95.754,25.345 Q95.419,25.241 95.317,25.569 Q95.312,25.587 95.304,25.606 L95.291,25.639 Q95.251,25.77 95.314,25.892 Q95.38,26.02 95.519,26.063 L97.374,26.664 Q97.65,26.754 97.706,27.003 Q98.032,27.814 98.367,28.692 Q98.783,29.776 98.595,30.637 Q98.334,31.828 97.123,31.909 Q97.092,31.911 97.06,31.909 L95.73,31.829 Q95.282,31.796 95.088,32.292 Q95.055,32.376 95.106,32.434 Q95.288,32.641 95.919,32.756 L99.188,33.205 Q99.683,33.273 99.615,33.768 L99.615,33.769 Q99.257,36.347 95.113,38.905 Q90.342,41.867 88.677,43.623 Q90.861,44.861 91.687,47.501 Q92.261,49.322 91.714,52.956 Q98.664,46.78 102.38,36.47 Q103.363,33.744 103.196,29.376 Q103.174,28.799 103.194,28.622 L103.193,28.622 Q103.577,25.312 103.514,24.978 L100.723,22.503 Q100.564,22.428 100.357,22.323 Q100.173,22.23 99.906,22.459 Q99.724,22.614 99.76,22.797 Q99.807,23.039 100.102,23.375 Q100.494,23.822 101.02,24.159 Q101.23,24.294 101.268,24.467 Q101.306,24.639 101.171,24.85 Q101.159,24.869 101.145,24.887 Q101.021,25.046 100.543,24.904 L100.48,25.001 Z" fill="#009245"/>
</svg>