<svg viewBox="0 0 128 128" xmlns="http://www.w3.org/2000/svg">
  <defs>
    <linearGradient id="hat_x5F_back_1_" gradientTransform="matrix(1 0 0 -1 0 0)" gradientUnits="userSpaceOnUse" x1="55.511" x2="55.511" y1="-40.25" y2="-74.9491">
      <stop offset="5.450581e-05" stop-color="#05080F"/>
      <stop offset="0.1125" stop-color="#070A15"/>
      <stop offset="0.2637" stop-color="#0B1026"/>
      <stop offset="0.4371" stop-color="#131A42"/>
      <stop offset="0.6268" stop-color="#1D286A"/>
      <stop offset="0.8276" stop-color="#2B399B"/>
      <stop offset="1" stop-color="#384ACC"/>
    </linearGradient>
    <linearGradient id="shirt_1_" gradientTransform="matrix(1 0 0 -1 0 0)" gradientUnits="userSpaceOnUse" x1="55.306" x2="55.306" y1="-95.9869" y2="-137.8038">
      <stop offset="0" stop-color="#384ACC"/>
      <stop offset="0.216" stop-color="#3548BF"/>
      <stop offset="0.6146" stop-color="#2F449D"/>
      <stop offset="0.9606" stop-color="#283F7A"/>
    </linearGradient>
    <radialGradient id="SVGID_2_" cx="66.4071" cy="169.961084" gradientTransform="matrix(1 0 0 0.4912 0 0)" gradientUnits="userSpaceOnUse" r="23.1088">
      <stop offset="0.724" stop-color="#FFFFFF" stop-opacity="0"/>
      <stop offset="1" stop-color="#BDBDBD"/>
    </radialGradient>
    <radialGradient id="SVGID_3_" cx="-50.727035" cy="-148.699677" gradientTransform="matrix(-0.9057 0.4238 -0.3144 -0.6719 0 0)" gradientUnits="userSpaceOnUse" r="8.204">
      <stop offset="0.1769" stop-color="#BDBDBD"/>
      <stop offset="0.7785" stop-color="#BDBDBD" stop-opacity="0"/>
    </radialGradient>
    <radialGradient id="SVGID_4_" cx="-66.3747" cy="84.94055" gradientTransform="matrix(-0.0746 -0.9972 0.8311 -0.0622 0 0)" gradientUnits="userSpaceOnUse" r="30.3992">
      <stop offset="0.6929" stop-color="#BDBDBD" stop-opacity="0"/>
      <stop offset="1" stop-color="#BDBDBD"/>
    </radialGradient>
    <radialGradient id="SVGID_5_" cx="-64.693202" cy="-48.906576" gradientTransform="matrix(0.0746 -0.9972 -0.8311 -0.0622 0 0)" gradientUnits="userSpaceOnUse" r="30.0566">
      <stop offset="0.6929" stop-color="#BDBDBD" stop-opacity="0"/>
      <stop offset="1" stop-color="#BDBDBD"/>
    </radialGradient>
    <radialGradient id="SVGID_6_" cx="-44.4465" cy="168.246792" gradientTransform="matrix(-1 0 0 0.4912 0 0)" gradientUnits="userSpaceOnUse" r="23.3519">
      <stop offset="0.724" stop-color="#FFFFFF" stop-opacity="0"/>
      <stop offset="1" stop-color="#BDBDBD"/>
    </radialGradient>
    <radialGradient id="SVGID_7_" cx="51.037587" cy="-84.730471" gradientTransform="matrix(0.9057 0.4238 0.3144 -0.6719 0 0)" gradientUnits="userSpaceOnUse" r="6.9886">
      <stop offset="0.1769" stop-color="#BDBDBD"/>
      <stop offset="1" stop-color="#BDBDBD" stop-opacity="0"/>
    </radialGradient>
    <linearGradient id="SVGID_9_" gradientTransform="matrix(1 0 0 -1 0 0)" gradientUnits="userSpaceOnUse" x1="55.8605" x2="55.8605" y1="-21.9135" y2="-58.7288">
      <stop offset="0.2075" stop-color="#384ACC"/>
      <stop offset="1" stop-color="#1D3678"/>
    </linearGradient>
    <linearGradient id="hand_2_" gradientTransform="matrix(1 0 0 -1 0 0)" gradientUnits="userSpaceOnUse" x1="89.2016" x2="112.7829" y1="-102.051" y2="-117.8184">
      <stop offset="0.5" stop-color="#FFCA28"/>
      <stop offset="1" stop-color="#FFB300"/>
    </linearGradient>
    <linearGradient id="SVGID_8_" gradientTransform="matrix(1 0 0 -1 0 0)" gradientUnits="userSpaceOnUse" x1="58.1389" x2="57.7181" y1="-4.0125" y2="-22.5301">
      <stop offset="0.3696" stop-color="#3649BF"/>
      <stop offset="1" stop-color="#2C4585"/>
    </linearGradient>
    <linearGradient id="SVGID_1_" gradientTransform="matrix(1 0 0 -1 0 0)" gradientUnits="userSpaceOnUse" x1="96.2588" x2="120.7042" y1="-113.0725" y2="-113.0725">
      <stop offset="0" stop-color="#384ACC"/>
      <stop offset="0.216" stop-color="#3548BF"/>
      <stop offset="0.6146" stop-color="#2F449D"/>
      <stop offset="0.9606" stop-color="#283F7A"/>
    </linearGradient>
  </defs>
  <path id="shirt_2_" d="M104.62,124.03 L104.62,121.05 C104.62,104.26 79.63,95.96 55.31,95.99 C31.14,96.02 6,103.27 6,121.04 L6,124.02 L104.62,124.02 Z" fill="url(#shirt_1_)"/>
  <path d="M112.3,102.32 C111.71,102.01 110.99,102.21 110.65,102.78 C108.77,105.93 105.09,108.26 101.53,110.52 C99.89,111.56 98.21,112.63 96.75,113.75 C96.3,114.1 96.14,114.71 96.37,115.23 L100.2,123.96 L101.56,123.96 L104.05,123.96 L117.97,123.96 L119.27,123.96 L120.52,123.96 C121.03,118.84 121.16,107.03 112.3,102.32 Z" fill="url(#SVGID_1_)"/>
  <path d="M36.68,102.22 L38.73,104.54 L41.8,104.16 L40.24,106.82 L41.54,109.62 L38.53,108.96 L36.27,111.07 L35.96,108 L33.26,106.5 L36.09,105.26 Z" fill="#F9F722"/>
  <path d="M33.4,114.54 L33.9,117.2 L36.37,118.3 L33.99,119.59 L33.71,122.28 L31.75,120.43 L29.1,120.99 L30.26,118.55 L28.91,116.21 L31.59,116.56 Z" fill="#F9F722"/>
  <path d="M57.18,123.97 L64.03,123.97 L63.78,122.98 L66.8,119.52 L62.22,119.22 L59.86,115.28 L58.17,119.54 L53.69,120.56 L57.22,123.5 Z" fill="#F9F722"/>
  <path d="M17.12,109.56 L19.27,111.76 L22.3,111.25 L20.87,113.97 L22.3,116.69 L19.27,116.17 L17.12,118.38 L16.68,115.33 L13.92,113.97 L16.68,112.61 Z" fill="#F9F722"/>
  <path d="M79.25,107.19 L79.39,110.52 L82.21,112.29 L79.09,113.45 L78.27,116.68 L76.2,114.07 L72.88,114.3 L74.72,111.52 L73.48,108.43 L76.69,109.32 Z" fill="#F9F722"/>
  <path id="hat_x5F_back" d="M105.36,57.77 A49.85 18.32 0 1 1 5.66,57.77 A49.85 18.32 0 1 1 105.36,57.77 Z" fill="url(#hat_x5F_back_1_)"/>
  <path d="M90.99,79.06 L90.99,79.06 C89.95,77.05 90.79,75.04 94.06,71.67 C97.84,67.77 102.66,58.14 98.96,47.98 C97.59,44.22 96,41.84 96,41.81 L92.43,43.04 C92.43,43.04 92.73,43.33 93.17,43.84 C87.93,43.83 77.3,43.98 74.05,43.98 C70.9,43.98 62.91,43.98 56.06,43.98 C51.82,43.98 48.01,43.98 46.06,43.98 C43.18,43.98 40.36,43.98 38.07,43.98 C34.25,43.98 22.4,40.13 19.32,39.52 C18.79,38.96 18.05,38.57 18.05,38.57 C18.07,38.63 15.09,39.88 12.84,47.47 C9.81,57.7 13.96,67.34 18.06,71.67 C20.77,74.53 22.32,76.8 21.21,79.14 C20.65,80.31 19.69,80.97 18.45,81.22 L16.31,81.65 L17.48,83.5 C17.9,84.17 18.48,84.73 19.14,85.13 C21,86.24 23.27,86.52 24.84,86.56 C25.02,86.56 25.28,86.76 25.67,87.2 C30.74,92.82 34.73,94.62 47.07,95.08 L47.47,93.59 C49.96,93.68 52.79,93.71 56.07,93.71 C59.23,93.71 61.98,93.68 64.4,93.6 L64.91,95.09 C77.37,94.65 81.38,92.86 86.47,87.21 C86.86,86.77 87.12,86.58 87.3,86.57 C88.87,86.53 91.14,86.25 93,85.14 C93.67,84.74 94.24,84.18 94.67,83.51 L95.84,81.66 L93.7,81.23 C92.49,80.97 91.61,80.26 90.99,79.06 Z" fill="#E7E7E7"/>
  <path d="M56.11,95.04 L56.11,85.6 L84.68,83.34 L86.45,87.17 C86.45,87.17 81.56,95.56 65.05,95.04 L56.11,95.04 Z" fill="url(#SVGID_2_)"/>
  <path d="M87.22,82.41 C82.94,75.91 92.43,73.48 92.43,73.48 C92.43,73.48 92.44,73.49 92.44,73.49 C90.79,75.54 90.04,77.33 91.01,79.1 C92.22,81.31 95.82,81.63 95.82,81.63 C95.82,81.63 90.92,85.99 87.22,82.41 Z" fill="url(#SVGID_3_)"/>
  <path d="M98.74,45.9 C102.99,56.25 98.52,66.91 94.33,71.41 C93.76,72.03 91.32,74.42 90.76,76.33 C90.76,76.33 81.22,63.02 78.37,55.2 C77.8,53.62 77.27,52 77.2,50.32 C77.15,49.06 77.34,47.56 78.07,46.49 C78.96,45.18 98.23,44.79 98.23,44.79 C98.23,44.81 98.74,45.9 98.74,45.9 Z" fill="url(#SVGID_4_)"/>
  <path d="M13.53,45.9 C9.28,56.25 13.57,66.84 17.76,71.34 C18.34,71.96 20.39,74.04 21.23,75.97 C21.23,75.97 31.05,63.02 33.9,55.2 C34.48,53.62 35,52 35.07,50.32 C35.12,49.06 34.93,47.56 34.2,46.49 C33.31,45.18 32.27,45.53 30.76,45.53 C27.88,45.53 15.27,44.79 14.29,44.79 C14.3,44.81 13.53,45.9 13.53,45.9 Z" fill="url(#SVGID_5_)"/>
  <path d="M56.16,95.04 L56.16,85.6 L27.59,83.34 C27.59,83.34 23.47,84.1 25.94,87.47 C29.11,91.81 35.65,95.06 46.91,95.05 L56.16,95.05 Z" fill="url(#SVGID_6_)"/>
  <path d="M25.05,82.41 C29.33,75.91 19.84,73.48 19.84,73.48 C19.84,73.48 19.83,73.49 19.83,73.49 C24.35,79.8 18.9,81.53 16.3,81.63 C16.3,81.63 21.35,85.99 25.05,82.41 Z" fill="url(#SVGID_7_)"/>
  <path id="neck" d="M55.61,88.1 L46.53,88.1 L46.53,98.08 C46.53,102.59 50.23,106.25 54.79,106.25 L56.44,106.25 C61,106.25 64.7,102.59 64.7,98.08 L64.7,88.1 L55.61,88.1 Z" fill="#E59600"/>
  <path id="ears_1_" d="M82.81,49.33 L75.58,49.33 L36.42,49.33 L29.19,49.33 C23.41,49.33 18.68,54.37 18.68,60.53 C18.68,66.69 23.41,71.73 29.19,71.73 L36.42,71.73 L75.58,71.73 L82.81,71.73 C88.59,71.73 93.32,66.69 93.32,60.53 C93.32,54.37 88.59,49.33 82.81,49.33 Z" fill="#E59600"/>
  <path id="head_2_" d="M55.88,11.47 L55.88,11.47 L55.88,11.47 C38.8,11.47 22.99,29.73 22.99,56.01 C22.99,82.14 39.28,95.07 55.88,95.07 C72.48,95.07 88.77,82.15 88.77,56.01 C88.77,29.73 72.96,11.47 55.88,11.47 Z" fill="#FFCA28"/>
  <path id="mouth" d="M64.14,76.15 C61.02,78.01 50.77,78.01 47.64,76.15 C45.85,75.08 44.01,76.72 44.76,78.35 C45.49,79.95 51.08,83.67 55.92,83.67 C60.76,83.67 66.27,79.95 67,78.35 C67.75,76.72 65.93,75.08 64.14,76.15 Z" fill="#795548"/>
  <path id="nose" d="M59.67,68.38 C59.57,68.34 59.46,68.31 59.35,68.3 L52.41,68.3 C52.3,68.31 52.2,68.34 52.09,68.38 C51.46,68.63 51.12,69.29 51.41,69.98 C51.7,70.67 53.09,72.62 55.87,72.62 C58.65,72.62 60.04,70.67 60.33,69.98 C60.64,69.29 60.3,68.64 59.67,68.38 Z" fill="#E59600"/>
  <path d="M47.02,21.26 C38.99,23.55 31.53,27.8 25.72,33.77 C24.03,35.51 22.47,37.4 21.4,39.58 C19.87,42.72 19.5,46.4 20.29,49.8 C20.68,51.47 21.32,52.68 21.32,54.37 C21.32,60.51 24.56,68.34 24.56,68.34 C24.56,68.32 28.27,50.05 27.88,47.23 C27.88,47.23 35.54,45.69 44.23,40.65 C50.1,37.24 54.11,33.25 60.72,31.74 C70.76,29.44 73,36.81 73,36.81 C73,36.81 82.29,35 85.1,48.08 C86.25,53.46 86.43,63.04 87.06,68.51 C87,68.04 90.53,60.01 91.14,54 C91.46,50.84 94.29,49.78 94.85,46.67 C95.41,43.55 94.13,40.27 92.24,37.83 C89.96,34.87 86.81,32.75 83.87,30.44 C82.06,29.02 80.31,27.52 78.4,26.24 C75.32,24.19 71.87,22.76 68.45,21.35 C66.76,20.65 65.05,19.95 63.24,19.61 C61.51,19.28 59.73,19.3 57.97,19.4 C54.27,19.61 50.59,20.24 47.02,21.26 Z" fill="#E7E7E7"/>
  <path d="M44.52,59.26 A4.83 5.01 0 1 1 34.86,59.26 A4.83 5.01 0 1 1 44.52,59.26 Z" fill="#404040"/>
  <path d="M77.15,59.26 A4.83 5.01 0 1 1 67.49,59.26 A4.83 5.01 0 1 1 77.15,59.26 Z" fill="#404040"/>
  <path d="M46.4,51.12 C45.54,49.98 43.55,48.32 39.68,48.32 C35.81,48.32 33.82,49.98 32.96,51.12 C32.58,51.63 32.68,52.21 32.94,52.56 C33.18,52.89 33.91,53.19 34.71,52.92 C35.51,52.65 37.07,51.84 39.68,51.82 C42.29,51.84 43.85,52.65 44.65,52.92 C45.45,53.19 46.17,52.89 46.42,52.56 C46.69,52.21 46.78,51.63 46.4,51.12 Z" fill="#FFFFFF"/>
  <path d="M79.03,51.12 C78.17,49.98 76.18,48.32 72.31,48.32 C68.45,48.32 66.45,49.98 65.59,51.12 C65.21,51.63 65.31,52.21 65.57,52.56 C65.82,52.89 66.54,53.19 67.34,52.92 C68.14,52.65 69.7,51.84 72.31,51.82 C74.92,51.84 76.48,52.65 77.28,52.92 C78.08,53.19 78.8,52.89 79.05,52.56 C79.32,52.21 79.41,51.63 79.03,51.12 Z" fill="#FFFFFF"/>
  <path d="M74.15,17.45 C74.69,16.41 85.38,18.77 86.5,17.01 C87.67,15.16 81.85,7.37 69.3,4.92 C65.08,4.09 59.34,2.97 52.21,5.33 C48.01,6.72 29.34,13.43 25.21,38.08 C25.2,38.14 89.53,38.32 89.53,38.32 C86.95,29.75 73.61,18.49 74.15,17.45 Z" fill="url(#SVGID_8_)"/>
  <path d="M105.82,54.92 C99.12,26.47 59.29,14.61 32.66,26.51 C24.19,30.05 15.51,36.16 9.91,44.98 C8.07,47.57 1.07,62 11.46,58.06 C68.95,24.43 106.18,70.86 105.82,54.92 Z" fill="url(#SVGID_9_)"/>
  <path d="M112.17,81.48 L109.15,84.21 L111.57,90.24 L119.2,90.13 L123.34,78.45 L110.09,67.21 L95.5,78.62 L102.86,93.99 C102.31,96.17 99.2,108.44 98.37,111.73 C97.64,114.62 96.66,119.27 95.73,123.9 L96.7,123.9 L97.67,123.9 L101.49,123.9 L102.49,123.9 L103.49,123.9 L112.34,95.09 L104.48,80.9 L109.91,77.26 L115.32,79.65 L115.18,82.09 L112.17,81.48 Z" fill="#CF8900"/>
  <path id="hand_1_" d="M115.57,111.13 C115.43,109.72 114.94,108.37 114.47,107.24 C113.01,103.67 111.33,100.9 107.53,98.1 C103.67,95.25 99.42,94.68 97.5,94.99 C95.35,95.34 93.98,96.18 93.42,97.49 C92.99,98.49 93.17,99.52 93.43,100.28 C92.33,100.65 90.84,101.4 90.36,102.75 C89.8,104.33 90.26,105.62 90.92,106.49 C89.98,107.09 88.79,108.04 88.45,109.23 C88,110.81 89.47,112.58 90.45,113.54 C89.97,114.18 89.39,115.05 89.26,115.68 C88.58,119.01 92.92,120.89 95.59,121.47 C96,121.56 96.42,121.37 96.64,121.01 L97.57,119.39 C101,120.45 106.02,121.87 108.11,121.87 C108.39,121.87 108.62,121.84 108.79,121.79 C110.71,121.12 111.96,119.56 113.06,118.18 C113.23,117.97 113.4,117.75 113.57,117.54 C115.07,115.73 115.79,113.39 115.57,111.13 Z" fill="url(#hand_2_)"/>
</svg>