<svg viewBox="0 0 128 128" xmlns="http://www.w3.org/2000/svg">
  <defs>
    <radialGradient id="hand_x5F_fill_3_" cx="45.0355" cy="57.9282" gradientUnits="userSpaceOnUse" r="60.6616">
      <stop offset="0.6451" stop-color="#A56C43"/>
      <stop offset="1" stop-color="#8D5738"/>
    </radialGradient>
    <radialGradient id="hand_x5F_fill_4_" cx="80.9411" cy="45.329514" gradientTransform="matrix(1 0 0 1.1144 0 0)" gradientUnits="userSpaceOnUse" r="43.9224">
      <stop offset="0.6198" stop-color="#8D5738" stop-opacity="0.97"/>
      <stop offset="1" stop-color="#8D5738" stop-opacity="0"/>
    </radialGradient>
    <radialGradient id="hand_x5F_fill_5_" cx="62.2509" cy="55.1348" gradientUnits="userSpaceOnUse" r="58.3432">
      <stop offset="0.6499" stop-color="#A56C43"/>
      <stop offset="1" stop-color="#8D5738"/>
    </radialGradient>
    <linearGradient id="SVGID_1_" gradientUnits="userSpaceOnUse" x1="9.9696" x2="67.6439" y1="104.5994" y2="16.2275">
      <stop offset="0.4011" stop-color="#875334"/>
      <stop offset="1" stop-color="#663B22"/>
    </linearGradient>
  </defs>
  <path id="hand_x5F_fill_1_" d="M103.65,27.08 C101.82,25.55 90.05,14.06 89.54,13.57 L89.45,13.47 C89.42,13.43 86.19,9.7 83.55,6.93 C82.81,6.16 81.95,6.06 81.35,6.12 C79.87,6.25 78.05,7.96 76.71,8.46 C75.6,8.88 75.45,8.34 74.34,8.77 C72.9,9.33 70.47,11.38 70.05,12.87 C69.63,14.35 70.15,17.3 69.52,17.09 C67.44,16.43 61.75,15.58 60.44,18.41 C60.05,19.26 59.65,20.48 59.2,21.89 C57.71,26.52 56.38,32.76 50.04,40.26 C49.18,41.28 48.21,42.38 47.16,43.58 C42.76,48.6 37.43,54.33 32.59,62.31 C29.74,67.02 27.55,71.73 25.89,76.96 C24.94,79.94 23.8,85.62 23.19,88.94 C18.2,93.76 8.57,105.96 8.66,106.34 C8.94,107.52 22.9,121.34 43.89,124.27 C43.89,124.27 46.61,122.45 48.98,120.36 C51.17,118.44 58.12,113.87 58.12,113.87 C58.12,113.87 58.03,113.79 57.91,113.67 C70.52,111.25 83.25,103.82 91.59,96.28 C96.76,91.6 102.47,86.02 104.75,78.91 C107.78,69.49 108.9,49.68 108.91,38.66 C108.94,35.11 108.31,30.96 103.65,27.08 Z M75.63,58.82 C73.98,59.19 60.25,59.77 59.21,59.67 C60.14,55.86 63.04,49.96 65.1,46.67 C66.19,44.93 67.24,43.14 68,41.22 C68.56,39.83 68.72,38.08 69.51,36.85 C70.65,39.23 71.55,41.76 72.82,44.13 C73.74,45.84 74.61,47.46 75.12,49.06 C75.61,50.6 77.92,58.3 75.63,58.82 Z" fill="url(#hand_x5F_fill_3_)"/>
  <path id="hand_x5F_fill_2_" d="M103.65,27.08 C101.82,25.55 90.05,14.06 89.54,13.57 L89.45,13.47 C89.42,13.43 86.19,9.7 83.55,6.93 C82.81,6.16 81.95,6.06 81.35,6.12 C79.87,6.25 78.05,7.96 76.71,8.46 C75.6,8.88 75.45,8.34 74.34,8.77 C72.9,9.33 70.47,11.38 70.05,12.87 C69.63,14.35 70.15,17.3 69.52,17.09 C67.44,16.43 61.75,15.58 60.44,18.41 C60.05,19.26 59.65,20.48 59.2,21.89 C57.71,26.52 56.38,32.76 50.04,40.26 C49.18,41.28 48.21,42.38 47.16,43.58 C43.51,47.74 38.78,51.89 36.97,57.18 C34.86,63.35 35.85,69.8 38.16,75.78 C42.97,88.23 53.74,99.27 67.03,100.49 C71.13,100.87 75.25,100.31 79.33,99.76 C85.26,98.96 90.08,97.86 94.44,93.63 C98.76,89.44 102.88,84.74 104.76,78.91 C107.79,69.49 108.91,49.68 108.92,38.66 C108.94,35.11 108.31,30.96 103.65,27.08 Z M75.63,58.82 L59.21,59.67 C59.21,59.67 68.72,38.08 69.52,36.85 C70.66,39.23 74.62,47.45 75.13,49.06 C75.61,50.6 75.63,58.82 75.63,58.82 Z" fill="url(#hand_x5F_fill_4_)"/>
  <path d="M56.11,59.4 C61.26,53.44 66.41,42.87 67.02,37.47 C67.06,37.12 67.17,36.17 68.15,35.89 C68.95,35.66 69.78,36.12 70,36.92 C70.08,37.19 70.08,37.45 70.01,37.7 L70,37.81 C69.32,43.81 64.46,54.33 58.92,60.74 C58.62,61.08 55.56,60.03 56.11,59.4 Z" fill="#663B22"/>
  <path d="M49.64,63.08 C49.64,63.08 49.52,62.1 52.91,60.6 C60.65,57.18 67.86,57.08 75.59,57.13 C75.59,57.13 75.6,57.13 75.6,57.13 C76.45,57.14 77.14,57.81 77.13,58.64 C77.12,59.47 76.43,60.14 75.57,60.13 C68.19,60.09 58.13,60.79 49.64,63.08 Z" fill="#663B22"/>
  <path id="hand_x5F_fill" d="M103.65,27.08 C101.82,25.55 90.05,14.06 89.54,13.57 L89.45,13.47 C89.42,13.43 86.19,9.7 83.55,6.93 C82.81,6.16 81.95,6.06 81.35,6.12 C79.87,6.25 79.16,7.54 77.82,8.04 C75.01,9.09 72.25,8.42 70.54,11.52 C69.62,13.19 69.43,15.18 69.52,17.09 C69.58,18.43 69.76,19.81 69.35,21.09 C69.03,22.1 68.41,22.99 67.86,23.9 C64.55,29.38 70.52,40.91 71.81,44.25 C74.91,52.24 74.9,61.06 76.58,69.47 C71.02,71.1 52.22,69.99 40.41,91.07 C37.73,95.86 37.98,104.25 40.26,107.52 C46.4,116.31 55.24,114.72 63.1,112.41 C73.56,109.33 83.51,103.59 91.59,96.28 C96.76,91.6 102.47,86.02 104.75,78.91 C107.78,69.49 108.9,49.68 108.91,38.66 C108.94,35.11 108.31,30.96 103.65,27.08 Z" fill="url(#hand_x5F_fill_5_)"/>
  <path d="M7.69,105.07 C13.76,99.37 20.46,92.45 20.99,90.24 C21.08,89.86 21.19,89.4 21.31,88.89 C22.5,83.75 25.28,71.7 30.98,62.28 C35.84,54.27 41.51,47.79 45.65,43.07 C46.66,41.92 47.59,40.85 48.42,39.87 C54.23,33 56.32,26.51 57.7,22.21 C58.17,20.74 58.58,19.47 59.04,18.47 C60.38,15.57 63.95,14.72 66.7,15.16 C69.66,15.63 71.69,17.47 71.99,19.97 C72.09,20.79 71.5,21.54 70.68,21.64 C69.85,21.73 69.11,21.15 69.01,20.33 C68.81,18.66 66.83,18.22 66.23,18.12 C64.53,17.85 62.39,18.38 61.76,19.73 C61.38,20.56 60.99,21.75 60.55,23.13 C59.09,27.65 56.9,34.48 50.71,41.8 C49.87,42.79 48.93,43.87 47.9,45.04 C43.61,49.94 38.26,56.04 33.54,63.83 C28.08,72.83 25.38,84.55 24.22,89.56 C24.1,90.08 23.99,90.55 23.9,90.94 C23.07,94.42 9.53,107.46 9.53,107.46 C8.16,106.16 7.69,105.07 7.69,105.07 Z" fill="url(#SVGID_1_)"/>
  <path d="M77.21,72.31 C76.45,69.13 75.61,64.03 74.96,59.72 C74.34,55.56 73.8,51.97 73.2,50.08 C72.73,48.61 71.9,47.05 70.93,45.26 C69.16,41.97 66.96,37.87 66.33,32.56 C65.71,27.31 65.47,23.94 67.42,21.4 C69,19.34 71.45,18.31 73.65,18.76 C75.67,19.17 77.2,20.79 77.85,23.19 C78.12,23.83 79.67,27.41 80.81,29.6 C81.29,30.52 82.15,31.84 83.14,33.37 C84.71,35.78 86.66,38.79 88.33,42.04 C91.03,47.3 93.31,53.44 94.15,62.29 C94.45,65.48 94.28,67.3 94.03,68.33 C93.91,68.82 93.21,68.81 93.1,68.31 C92.22,64.11 89.29,50.9 85.66,43.4 C84.13,40.25 82.15,37.35 80.62,34.99 C79.59,33.4 78.69,32.03 78.15,30.98 C76.84,28.48 75.12,24.43 75.04,24.26 L74.97,24.05 C74.73,23.11 74.2,21.93 73.04,21.7 C71.97,21.48 70.66,22.1 69.79,23.23 C68.53,24.87 68.77,27.72 69.3,32.21 C69.87,36.96 71.83,40.62 73.57,43.85 C74.56,45.7 75.5,47.45 76.05,49.19 C76.72,51.3 77.25,54.83 77.91,59.29 C78.64,64.2 79.5,71.33 81.17,76.96 C81.3,77.41 80.79,77.78 80.42,77.49 C79.37,76.64 77.87,75.03 77.21,72.31 Z" fill="#875334"/>
  <path d="M103.85,63.69 C103.21,60.05 100.7,46.2 98.35,38.87 L98.27,38.56 C97.52,35.69 94.89,32.15 92.67,30.15 C88.87,26.7 81.73,18.73 79.92,15.59 L79.43,14.74 C77.74,11.76 76.5,9.84 74.84,10.21 C73.91,10.42 73.05,11.11 72.43,12.16 C71.3,14.06 71.13,16.82 71.95,19.74 C72.18,20.54 71.71,21.37 70.91,21.59 C70.11,21.82 69.28,21.35 69.06,20.55 C68,16.78 68.27,13.26 69.85,10.62 C70.9,8.86 72.43,7.67 74.18,7.28 C78.14,6.39 80.31,10.19 82.04,13.25 L82.51,14.08 C84.01,16.68 90.84,24.44 94.68,27.92 C97.15,30.15 100.23,34.2 101.17,37.8 L101.25,38.11 C102.46,42.76 104.34,51.92 104.85,57.84 C105.02,59.86 104.91,62.62 104.33,63.81 C103.98,64.52 103.95,64.27 103.85,63.69 Z" fill="#875334"/>
  <path d="M43.08,124.14 C49.08,117.79 54.88,113.68 60.66,111.68 L61.77,111.3 C68.34,109.05 80.56,104.86 91.01,95.41 C96.05,90.85 101.62,85.4 103.86,78.46 C106.82,69.27 107.91,49.93 107.92,39.18 C107.92,35.72 107.31,31.66 102.76,27.87 C101.04,26.44 89.48,15.16 88.99,14.68 L88.9,14.59 C88.87,14.55 85.72,10.91 83.14,8.21 C82.42,7.46 81.58,7.37 80.99,7.42 C79.85,7.53 78.75,8.27 77.98,9.46 C77.53,10.16 76.6,10.35 75.91,9.9 C75.2,9.46 75,8.53 75.45,7.83 C76.73,5.86 78.64,4.62 80.7,4.43 C82.45,4.27 84.09,4.87 85.3,6.14 C87.77,8.72 90.73,12.14 91.12,12.58 C95.27,16.63 103.37,24.48 104.67,25.57 C110.21,30.18 110.91,35.27 110.91,39.19 C110.9,50.13 109.77,69.87 106.71,79.39 C104.25,87.03 98.36,92.82 93.02,97.64 C82.12,107.51 69.03,111.99 62.74,114.14 L61.65,114.52 C56.8,116.2 51.89,119.54 46.78,124.65 L43.08,124.14 Z" fill="#875334"/>
  <path d="M40.82,90.24 C48.26,76.68 59.98,69.92 78.03,68.48 C78.85,68.41 79.09,71.4 78.27,71.47 C61.84,72.78 49.9,78.99 42.41,91.03 C41.7,92.16 39.95,95.53 39.71,94.96 C39.42,94.28 39.99,91.75 40.82,90.24 Z" fill="#875334"/>
</svg>