<svg viewBox="0 0 128 128" xmlns="http://www.w3.org/2000/svg">
  <defs/>
  <path d="M96,78.61 C93.46,57.18 86.51,39.54 86.51,39.54 L86.42,39.54 C85.47,35.63 76.06,32.55 64.58,32.55 C64.39,32.55 64.2,32.56 64,32.56 C63.81,32.56 63.62,32.55 63.42,32.55 C51.94,32.55 42.54,35.62 41.58,39.54 L41.49,39.54 C41.49,39.54 34.54,57.18 32,78.61 C29.47,99.96 28.39,113.03 33.95,118.44 C37.67,122.06 53.54,124 64,124 C74.46,124 90.33,122.06 94.05,118.44 C99.61,113.03 98.53,99.96 96,78.61 Z" fill="#4FE8D8"/>
  <path d="M63.56,19.37 C57.07,19.37 51.8,20.46 51.8,21.8 L51.8,35.53 C51.8,36.87 57.07,37.96 63.56,37.96 C70.05,37.96 75.32,36.87 75.32,35.53 L75.32,21.81 C75.32,20.46 70.05,19.37 63.56,19.37 Z" fill="#78909C"/>
  <path d="M67.27,21.19 C67.27,21.19 65.96,21.81 63.43,21.81 C60.89,21.81 59.59,21.19 59.59,21.19 L59.59,10.06 L67.28,10.06 L67.28,21.19 Z" fill="#78909C"/>
  <path d="M63.01,17.2 C59.42,15.8 59.58,13.84 59.58,13.84 L59.58,11.95 L67.27,11.95 L67.27,17.85 C67.27,17.85 66.1,18.4 63.01,17.2 Z" fill="#546E7A"/>
  <path d="M53.51,4.87 L52.46,7.4 C52.19,8.06 52.52,8.72 53.08,9.17 C55.01,10.71 58.8,12.66 62.64,12.66 C73.67,12.66 75.72,9.96 79.68,9.79 C83.06,9.64 85.64,10.65 86.99,11 C87.43,11.11 87.9,10.93 88.15,10.55 L89.91,7.87 C90.28,7.31 90.05,6.56 89.44,6.3 C87.54,5.5 83.54,4.08 79.27,4.08 C71.84,4.08 68.45,5.74 63.85,5.56 C60.81,5.45 57.09,4.6 55.21,4.05 C54.51,3.85 53.79,4.21 53.51,4.87 Z" fill="#78909C"/>
  <path d="M57.94,25.79 C57.72,25.76 57.49,25.73 57.27,25.7 C56.36,25.56 55.43,25.33 54.65,24.84 C54.07,24.47 53.56,23.94 53.3,23.29 C53.04,22.66 53.27,22.12 54.03,22.33 C55.64,22.77 57.23,23.17 58.87,23.46 C60.31,23.71 61.79,23.63 63.25,23.64 C63.64,23.64 64.21,23.87 63.96,24.37 C63.87,24.56 63.68,24.69 63.5,24.8 C61.75,25.82 59.88,26.01 57.94,25.79 Z" fill="#A7FFEB" opacity="0.75"/>
  <path d="M40.91,70.29 C39.93,70.31 39.59,67.71 39.9,63.78 C40.44,56.75 41.58,51.48 44.49,45.05 C46.36,40.91 52.99,41.86 51.21,46.22 C46.98,56.6 45.39,60.71 44.05,64.64 C42.85,68.19 42.14,70.26 40.91,70.29 Z" fill="#A7FFEB"/>
  <path d="M50.61,82.5 C50.59,74.97 58.57,63.28 62.4,58.34 C63.39,57.06 64.48,56.98 65.42,58.3 C69.11,63.48 77.4,74.55 77.4,82.5 C77.4,89.9 71.4,95.9 64,95.9 C56.6,95.9 50.63,89.89 50.61,82.5 Z" fill="#FFFFFF"/>
</svg>