<svg viewBox="0 0 128 128" xmlns="http://www.w3.org/2000/svg">
  <defs/>
  <path d="M114.74,56.58 A51.61 51.61 0 1 1 11.52,56.58 A51.61 51.61 0 1 1 114.74,56.58 Z" fill="#880E4F"/>
  <path d="M53.34,36.91 C53.22,36.91 53.09,36.88 52.97,36.87 C50.86,36.75 50.3,34.35 50.65,33.03 C52.81,24.76 51.74,17.41 48.2,8.02 C47.47,6.1 50.38,5.6 51.65,6.11 C52.87,6.6 54,8.36 54.49,9.69 C57.42,17.62 58.24,25.95 55.82,34.86 C55.5,36.06 54.54,36.94 53.34,36.91 Z" fill="#EC407A"/>
  <path d="M59.8,44.58 C59.58,44.58 59.36,44.54 59.14,44.47 C57.83,44.07 57.09,42.69 57.49,41.39 C60.27,32.19 62.3,17.15 55.86,5.85 C55.18,4.66 56.91,3.88 58.27,4.01 C61.39,4.29 63.21,8.96 63.81,11.04 C66.63,20.75 65.71,33.73 62.22,42.82 C61.82,43.89 60.88,44.61 59.8,44.58 Z" fill="#EC407A"/>
  <path d="M66.46,51.83 C64.76,51.34 64.44,49.1 64.83,47.79 C72.57,21.85 64.78,5.91 64.72,5.74 C64.24,4.46 68.44,2.71 70.51,7.9 C70.81,8.65 77.72,26 69.93,49.9 C69.56,51 68.24,52.35 66.46,51.83 Z" fill="#EC407A"/>
  <path d="M22.42,90.5 C21.7,89.65 20.8,88.3 21.94,87.54 C23.83,86.27 30.32,84.21 35.51,77.17 C36.32,76.07 37.69,75.56 38.88,76.24 C40.07,76.91 40.6,78.5 39.81,79.61 C33.51,88.49 25.84,90.89 25.53,91.07 C25.15,91.29 23.14,91.35 22.42,90.5 Z" fill="#EC407A"/>
  <path d="M26.59,94.19 C26.07,92.89 29.39,92.32 29.39,92.32 C30.86,91.76 36.89,90.63 41.7,83.06 C42.43,81.91 43.89,81.46 45.07,82.14 C46.26,82.82 46.67,84.33 45.99,85.51 C42.76,91.17 36.45,95.41 32.13,96.44 C29.82,96.99 27.1,95.46 26.59,94.19 Z" fill="#EC407A"/>
  <path d="M34.67,101.6 C33.14,100.79 32.69,99.31 33.66,98.99 C39.39,97.14 45.65,92.36 48.69,87.86 C49.45,86.73 50.99,86.43 52.12,87.2 C53.25,87.96 53.54,89.5 52.78,90.63 C49.21,96.01 45.57,98.73 39.63,101.31 C38.5,101.8 36.1,102.36 34.67,101.6 Z" fill="#EC407A"/>
  <path d="M41.99,103.81 C45.74,102.09 51.99,98.53 55.61,92.46 C56.31,91.29 57.83,90.9 59,91.6 C60.17,92.3 60.56,93.82 59.86,94.99 C56.94,99.89 52.88,103.76 46.69,105.94 C43.68,107.01 40.75,104.39 41.99,103.81 Z" fill="#EC407A"/>
  <path d="M18.96,83.36 C10.63,73.54 9.16,60.72 11.3,48.02 C11.79,45.1 12.86,43.28 13.92,43.29 C15.29,43.31 16.61,48.01 16.21,50.56 C14.41,62.03 17.73,73.28 24.91,82.03 C25.34,82.56 24.73,84.35 23.2,85.02 C21.67,85.68 19.96,84.54 18.96,83.36 Z" fill="#EC407A"/>
  <path d="M25.31,77.83 C21.54,74.29 18.42,63.21 18.41,57.94 C18.41,56.57 18.42,54.6 19.79,54.6 C19.79,54.6 22.85,55.07 23.36,57.93 C24.09,62.05 26.37,71.51 30.17,76.3 C31.02,77.37 27.88,80.24 25.31,77.83 Z" fill="#EC407A"/>
  <path d="M66.43,110.1 C62.08,110.32 55.4,109.41 53.21,106.41 C52.4,105.31 53.85,104.27 55.17,104.62 C63.13,106.77 68.64,108.02 78.81,103.08 C80.87,102.08 83.15,103.13 82.13,104.57 C80.7,106.6 74.25,109.75 66.43,110.1 Z" fill="#D81B60"/>
  <path d="M58.27,101.13 C57.5,100 59.79,98.11 61.15,98.33 C63.3,98.67 64.79,99.05 66.29,99.11 C67.83,99.17 69.72,98.61 70.3,98.61 C71.67,98.61 74.95,99.96 74.11,101.04 C71.51,104.38 60.7,104.68 58.27,101.13 Z" fill="#D81B60"/>
  <path d="M86.48,44.57 C85.23,44.72 84.05,43.89 83.78,42.64 C83.49,41.31 84.34,39.99 85.67,39.7 C91.56,38.42 99.24,34.03 103.72,26.98 C104.79,25.29 108.12,28.46 106.33,31.14 C100.95,39.23 93.9,42.98 86.72,44.53 C86.64,44.54 86.56,44.56 86.48,44.57 Z" fill="#EC407A"/>
  <path d="M84.77,53.52 C83.44,53.68 82.22,52.75 82.03,51.41 C81.84,50.06 82.77,48.8 84.13,48.61 C93.82,47.22 104.41,39.83 107.97,32.43 C108.56,31.2 112.65,34.83 109.73,38.88 C104.52,46.09 94.3,52.15 84.84,53.5 C84.81,53.52 84.79,53.52 84.77,53.52 Z" fill="#EC407A"/>
  <path d="M85.66,61.38 C84.87,61.47 84.09,61.54 83.34,61.57 C81.98,61.63 80.82,60.57 80.76,59.2 C80.7,57.83 81.76,56.67 83.13,56.63 C93.04,56.21 107.45,49.55 111.92,41.26 C112.57,40.06 116.71,43.46 113.19,47.92 C110.55,51.27 106.39,54.01 101.63,56.4 C96.47,59 90.67,60.79 85.66,61.38 Z" fill="#EC407A"/>
  <path d="M93.49,68.14 C92.79,68.22 92.14,68.26 91.56,68.24 C90.19,68.21 89.11,67.07 89.15,65.71 C89.18,64.35 90.31,63.26 91.68,63.3 C96.25,63.4 108.59,58.6 113.83,50.37 C114.57,49.22 117.3,53.52 114.35,56.88 C107.97,64.15 99.52,67.43 93.49,68.14 Z" fill="#EC407A"/>
  <path d="M74.42,58.31 C74.12,58.31 73.82,58.26 73.52,58.14 C72.25,57.65 71.67,56.23 72.11,54.94 C77.2,40.01 78.98,22.41 72.58,6.2 C72.08,4.93 76.96,4.76 78.25,8.55 C84.33,26.49 82.5,41.01 76.72,56.73 C76.36,57.72 75.41,58.31 74.42,58.31 Z" fill="#EC407A"/>
  <path d="M93.08,29.81 C91.81,28.22 86.95,24.38 85.07,23.72 C83.78,23.26 83.33,18.82 84.7,18.82 C89.2,18.81 95.37,23.26 97.21,27.52 C98.57,30.67 95.68,33.06 93.08,29.81 Z" fill="#D81B60"/>
  <path d="M99.36,25.81 C94.93,19.89 91.37,16 83.17,13.12 C81.28,12.45 79.49,10.13 80.64,9.39 C82.77,8.01 86.74,9.69 87.85,10.22 C92.19,12.29 96.21,14.51 99.59,18.44 C101.5,20.66 103.74,25.29 102.83,26.3 C101.45,27.83 99.85,26.46 99.36,25.81 Z" fill="#D81B60"/>
  <path d="M100.6,74.95 C99.88,73.79 103.89,72.12 104.25,67.88 C104.37,66.52 108.51,64.92 108.6,66.28 C108.94,71.58 107.07,73.51 104.99,75.02 C102.72,76.65 101.06,75.71 100.6,74.95 Z" fill="#D81B60"/>
  <path d="M108.84,78.57 C106.99,78.15 107.73,76.16 108.59,75.1 C111.87,71.08 112.17,68.93 111.83,64.55 C111.66,62.39 113.43,60.46 114.27,61.53 C115.36,62.93 116.18,67.02 115.4,70.38 C113.56,78.37 109.42,78.7 108.84,78.57 Z" fill="#D81B60"/>
  <path d="M90.09,32.14 C90.39,32.53 90.68,32.95 90.8,33.42 C90.93,33.9 90.87,34.45 90.55,34.82 C90.33,35.07 90.03,35.22 89.73,35.36 C89.16,35.63 88.59,35.9 87.97,36.01 C87.35,36.12 86.68,36.05 86.17,35.69 C85.53,35.23 85.27,34.41 85.1,33.65 C84.81,32.41 84.63,31.15 84.54,29.88 C84.52,29.58 84.51,29.25 84.65,28.98 C85.5,27.38 89.51,31.41 90.09,32.14 Z" fill="#D81B60"/>
  <path d="M93.08,98.12 C87.2,97.09 81.3,94.79 75.53,92.17 C74.2,91.53 72.92,90.86 71.64,90.18 C69.52,91.38 67.24,92.35 64.86,93.07 C71.17,96.6 76.41,98.51 80.25,99.65 C86.82,101.61 89.51,101.25 90.07,101.17 C92.23,100.84 94.42,98.39 93.08,98.12 Z" fill="#EC407A"/>
  <path d="M19.25,36.29 C18.6,35.09 17.63,32.11 17.63,32.11 C15.91,31.9 14.5,34.12 15.13,37.89 C15.5,40.06 25.29,64.73 54.23,86.18 C58.03,89 61.58,91.25 64.85,93.08 C64.85,93.08 67.15,94.6 70.29,92.98 C72.95,91.61 71.63,90.18 71.63,90.18 C48.28,77.88 32.29,60.24 19.25,36.29 Z" fill="#F06292"/>
  <path d="M99.65,92.69 C92.58,90.43 85.72,87.73 79.16,84.48 C77.83,85.88 76.37,87.15 74.8,88.29 C76.19,89.07 77.57,89.82 78.94,90.55 C83.25,92.85 100.49,100.35 99.65,92.69 Z" fill="#EC407A"/>
  <path d="M79.15,84.48 C55.75,72.89 35.61,54.73 22.89,24.07 C19.54,24.81 19.89,28.74 20.37,30.02 C31.74,60.27 54.77,77.06 74.79,88.29 C74.79,88.29 77.95,90.03 80.04,87.36 C81.29,85.75 79.15,84.48 79.15,84.48 Z" fill="#F06292"/>
  <path d="M104.68,86.24 C97.27,84.13 90.36,81.2 83.95,77.74 C83.13,79.33 82.17,80.84 81.09,82.24 C86.21,84.84 91.62,87.04 97.3,88.69 C104.48,90.76 106.03,86.47 104.68,86.24 Z" fill="#EC407A"/>
  <path d="M29.04,17.83 C28.22,16.1 24.76,18.73 25.36,21.46 C29.09,35.04 46.32,65.6 81.09,82.24 C81.09,82.24 83.87,83.46 84.93,81.14 C85.99,78.81 83.96,77.74 83.96,77.74 C47.43,58.31 33.56,30.48 29.04,17.83 Z" fill="#F06292"/>
  <path d="M109.63,79.99 C101.27,76.91 93.8,73.58 87.02,69.83 C86.97,70.22 86.91,70.61 86.82,70.97 C86.47,72.48 86,73.93 85.44,75.32 C91.35,78.35 97.71,80.94 104.57,83.09 C110.05,84.62 110.91,80.48 109.63,79.99 Z" fill="#EC407A"/>
  <path d="M87.02,69.83 C62.3,56.24 49.81,40.71 36.04,13.9 C34.36,11.2 30.27,13.67 31.86,16.54 C44,42.87 56.96,59.21 85.44,75.33 C85.44,75.33 87.62,76.18 88.46,73.64 C88.99,72.04 88.49,70.63 87.02,69.83 Z" fill="#F06292"/>
  <path d="M70.52,124 C67.75,124 64.94,123.93 62.13,123.77 C44.8,122.81 23.16,116.85 16.62,106 C14.57,102.61 8.34,92.28 21.05,71.38 C28.18,59.66 45.31,34.62 40.62,10.7 C40.62,10.7 39.97,8.4 42.02,7.53 C45.05,6.25 45.54,8.85 45.54,8.85 C51.53,36.76 33.63,62.16 26.14,74.47 C16.43,90.44 18.97,98.35 21.72,102.91 C24.9,108.17 38.37,116.48 62.46,117.81 C92.74,119.48 111.27,111.91 113.17,109.2 C113.24,108.18 112.58,106.98 101.22,106.74 C98.07,106.67 98.36,102.07 99.94,101.89 C104.56,101.35 113.25,101.35 117.23,104.23 C119.24,105.69 120.08,107.84 119.29,110.34 C116.92,117.83 95.83,124 70.52,124 Z" fill="#FF80AB"/>
</svg>