<svg viewBox="0 0 128 128" xmlns="http://www.w3.org/2000/svg">
  <defs/>
  <path d="M30.77,22.75 C15.26,29.92 4.07,41.15 4.16,43.87 C4.21,45.28 4.93,47.81 6.98,49.97 C8.19,51.25 11.41,53.58 13.67,53.72 C15.92,53.86 32.18,43.02 32.18,43.02 L48.37,40.77 L58.22,64.28 C58.22,64.28 61.46,68.93 65.96,72.73 C70.46,76.53 74.83,77.8 75.81,76.95 C76.79,76.1 73.91,70.4 73.7,68.93 C73.42,66.97 72.57,62.17 77.36,62.88 C82.15,63.59 91.02,67.1 91.02,72.31 C91.02,77.52 87.5,83.29 77.51,83.29 C67.52,83.29 53.44,80.05 46.96,80.33 C40.48,80.61 34.71,81.17 28.8,83.57 C24.42,85.34 19.51,88.64 19.65,89.06 C19.79,89.48 25.28,91.31 31.76,92.16 C38.24,93.01 50.77,92.86 52.88,95.96 C54.99,99.06 55.55,103.52 54.85,110.13 C54.15,116.74 54.43,122.14 54.57,122.14 C54.71,122.14 60.24,118.98 63.02,114.12 C67.52,106.24 67.52,96.66 69.21,94.69 C70.9,92.72 77.9,92.18 83.57,91.45 C89.39,90.7 122.43,89.34 122.43,56.4 C122.43,29.93 97.23,24.02 96.67,23.46 C96.11,22.9 95.19,18.76 97.09,15.01 C98.59,12.05 101.13,7.55 100.33,6.42 C99.34,5.02 90.19,6.56 83.44,10.08 C76.69,13.6 72.44,18.1 72.44,18.1 C72.44,18.1 46.47,15.49 30.77,22.75 Z" fill="#9A9A9A"/>
  <path d="M34.71,36.82 C39.84,34.55 48.24,32.71 54.56,32.32 C65.89,31.62 75.54,32.95 75.54,32.95 C75.54,32.95 79.66,41.54 83,45.83 C88.84,53.33 97.25,59.13 98.38,57.51 C99.32,56.16 98.56,49.06 97.08,44.7 C96.35,42.55 93.98,36.82 93.98,36.82 C93.98,36.82 104.26,37.66 110.17,46.11 C116.08,54.56 118.47,72.44 105.52,80.04 C94.26,86.66 87.92,85.67 87.92,85.67 C87.92,85.67 94.67,78.21 93.6,72.95 C92.47,67.41 90.03,65.91 85.81,65.11 C83.14,64.61 60.23,65.11 54.18,64.97 C48.13,64.83 39.02,64.41 32.73,62.48 C29.72,61.56 27.57,60.13 27.57,60.13 L27.71,55.06 C27.71,55.06 22.55,56.09 19.59,55.81 C16.63,55.53 12.46,53.84 12.18,53.42 C11.9,53 15.51,49.84 18.52,47.51 C22.28,44.61 28.66,39.5 34.71,36.82 Z" fill="#E0E0E0"/>
  <path d="M47.52,43.91 C47.52,45.34 45.83,45.27 44.38,45.27 C42.94,45.27 41.99,45.36 41.33,45.83 C40.67,46.3 41.15,49.57 35.14,55.03 C31.57,58.27 28.19,60.43 27.63,60.24 C27.07,60.05 25.99,57.28 25.75,56.25 C23.36,56.95 17.98,55.88 18.8,55.69 C21.57,55.03 25.71,53.13 28.47,51.04 C30.39,49.59 34.08,46.69 35.23,45.92 C36.22,45.26 39.08,43.15 40.35,43.01 C42.4,42.79 47.52,42.36 47.52,43.91 Z" fill="#FF2B25"/>
  <path d="M39.64,36.07 C39.64,38.4 37.48,40.39 34.81,40.11 C32.52,39.87 30.63,38.22 30.63,35.89 C30.63,33.56 32.45,31.46 34.76,31.39 C38.48,31.26 39.64,33.74 39.64,36.07 Z" fill="#2F2F2F"/>
  <path d="M29.5,53.76 C30.39,53.01 28.61,50.94 28.61,50.94 L26.45,52.37 C26.45,52.38 28.29,54.79 29.5,53.76 Z" fill="#FFFEFD"/>
  <path d="M34.66,49.96 C35.55,49.21 33.72,46.96 33.72,46.96 L31.42,48.74 C31.43,48.74 33.45,50.99 34.66,49.96 Z" fill="#FFFEFD"/>
  <path d="M37.01,48.7 C36.25,49.59 38.42,51.61 38.42,51.61 C38.42,51.61 40.22,49.23 40.02,49.08 C39.83,48.93 38.04,47.49 37.01,48.7 Z" fill="#FFFEFD"/>
  <path d="M33.12,52.59 C32.36,53.48 34.11,55.78 34.41,55.69 C34.71,55.6 36.4,53.81 36.4,53.81 C36.4,53.81 34.14,51.38 33.12,52.59 Z" fill="#FFFEFD"/>
  <path d="M65.17,25.42 C64.04,26.17 64.79,27.77 65.45,29.08 C66.11,30.39 66.53,31.59 66.6,33.37 C66.66,34.97 66.25,37.85 66.06,38.84 C65.89,39.75 65.28,41.74 66.62,42.08 C68.31,42.5 68.78,41.19 69.15,39.92 C69.64,38.27 69.89,34.91 69.81,33.21 C69.62,29.57 68.4,27.39 67.84,26.55 C67.28,25.71 66.27,24.68 65.17,25.42 Z" fill="#606568"/>
  <path d="M73.38,27.67 C72.63,28.27 73.38,30.06 73.71,30.86 C74.04,31.66 74.2,32.78 74.2,33.93 C74.2,34.73 74.04,36.58 73.94,37.61 C73.8,39.15 73.88,40.07 75.02,40.28 C76.8,40.61 76.87,38.22 77.04,37.23 C77.17,36.44 77.29,33.84 77.19,32.62 C77.1,31.4 76.52,29.63 75.82,28.55 C75.25,27.7 74.32,26.92 73.38,27.67 Z" fill="#606568"/>
  <path d="M57.66,24.72 C56.12,25.51 57.8,28.15 58.22,29.04 C58.64,29.93 59.25,31.9 59.21,33.97 C59.16,36.03 59,38.15 58.65,39.3 C58.34,40.3 57.43,42 58.13,42.7 C59.16,43.73 60.82,42.66 61.39,40.99 C62.23,38.53 62.45,36.51 62.35,33.32 C62.23,29.03 59.96,23.54 57.66,24.72 Z" fill="#606568"/>
  <path d="M28.89,56.3 C28.13,57.19 29.78,59.26 29.78,59.26 L32.08,57.66 C32.08,57.66 29.92,55.09 28.89,56.3 Z" fill="#FFFEFD"/>
  <path d="M38.84,46.3 C39.71,45.52 38.23,43.86 38.23,43.86 C38.23,43.86 36.12,45.13 36.21,45.27 C36.42,45.57 37.9,47.15 38.84,46.3 Z" fill="#FFFEFD"/>
</svg>