<svg viewBox="0 0 128 128" xmlns="http://www.w3.org/2000/svg" xmlns:xlink="http://www.w3.org/1999/xlink">
  <g id="Layer_5">
    <g>
      <path d="M91.12,46.43c-8.64-15.63-32.33-13.9-32.33-13.9s-23.69-1.73-32.33,13.9 c-10.22,18.48-6.27,38.64,8.21,44.73c9.55,4.02,11.39-1.01,24.12-1.01s14.57,5.03,24.12,1.01C97.4,85.06,101.34,64.91,91.12,46.43 z" fill="#FFFFFF"/>
      <g>
        <g>
          <linearGradient id="SVGID_1_" gradientTransform="matrix(0.9959 0.0904 -0.0904 0.9959 5.9361 -7.6307)" gradientUnits="userSpaceOnUse" x1="96.2113" x2="58.3924" y1="54.4213" y2="117.6758">
            <stop offset="0.1184" style="stop-color:#4285F4"/>
            <stop offset="1" style="stop-color:#1C3AA9"/>
          </linearGradient>
          <path d="M55.47,112.96c0.46-0.13,1.03-0.21,2.01-0.36c5.34-0.78,21.6-3.16,33.46-15.65 c5.48-5.78,15.43-35.1,17.1-53.8c0.96-10.74-8.41-30.16-10.32-33.97l6.45-2.73c1.8,3.3,11.62,22.06,10.39,37.3 c-1.4,17.29-11.17,49.59-18.88,57.71c-13.42,14.13-31.36,16.75-37.26,17.62l-0.01,0L55.47,112.96z" fill="url(#SVGID_1_)"/>
          <path d="M103.89,7.29c2.34,4.37,11.19,22.01,10.03,36.41c-1.39,17.2-11.07,49.28-18.7,57.31 c-12.92,13.61-30.13,16.43-36.41,17.35l-2.39-4.94c0.3-0.05,0.67-0.11,1.16-0.18c5.4-0.79,21.82-3.2,33.84-15.85 c6.5-6.84,15.85-38.14,17.28-54.19c0.93-10.41-7.62-28.7-10.07-33.7L103.89,7.29 M104.47,5.62l-7.64,3.23 c0,0,11.6,22.6,10.57,34.24c-1.66,18.62-11.53,47.72-16.92,53.4c-11.7,12.32-27.79,14.68-33.08,15.45 c-1.49,0.22-2.11,0.31-2.82,0.65l3.42,7.07c-0.3,0.15-0.54,0.21-0.61,0.23c0.24-0.05,0.63-0.1,1.15-0.18 c5.95-0.87,24.07-3.53,37.64-17.82c7.7-8.11,17.6-40.11,19.05-58.11C116.6,26.71,104.47,5.62,104.47,5.62L104.47,5.62z M57.38,119.9c-0.01,0-0.01,0-0.02,0C57.37,119.9,57.37,119.9,57.38,119.9L57.38,119.9z" fill="#2A56C6"/>
        </g>
        <path d="M80.83,113.06 c-0.62-0.09-1.18-0.48-1.46-1.09l-2.15-4.73c-0.43-0.95-0.01-2.07,0.94-2.5c0.95-0.43,2.07-0.01,2.5,0.94l2.15,4.73 c0.43,0.95,0.01,2.07-0.94,2.5C81.54,113.06,81.18,113.1,80.83,113.06z" fill="#A1C2FA" stroke="#2A56C6" stroke-miterlimit="10" stroke-width="1.8895"/>
        <path d="M84.89,110.9 c-0.51-0.1-0.98-0.42-1.26-0.9l-2.6-4.5c-0.52-0.9-0.21-2.06,0.69-2.58c0.9-0.52,2.06-0.21,2.58,0.69l2.6,4.5 c0.52,0.9,0.21,2.06-0.69,2.58C85.79,110.92,85.32,110.99,84.89,110.9z" fill="#A1C2FA" stroke="#2A56C6" stroke-miterlimit="10" stroke-width="1.8895"/>
        <path d="M89.28,108.16 c-0.52-0.04-1.02-0.29-1.36-0.74l-3.14-4.14c-0.63-0.83-0.47-2.02,0.36-2.65c0.83-0.63,2.02-0.47,2.65,0.36l3.14,4.14 c0.63,0.83,0.47,2.02-0.36,2.65C90.19,108.08,89.73,108.2,89.28,108.16z" fill="#A1C2FA" stroke="#2A56C6" stroke-miterlimit="10" stroke-width="1.8895"/>
        <path d="M92.7,105.16 c-0.41-0.07-0.8-0.27-1.09-0.6l-3.47-3.87c-0.7-0.78-0.63-1.97,0.14-2.67c0.78-0.7,1.97-0.63,2.67,0.14l3.47,3.87 c0.7,0.78,0.63,1.97-0.14,2.67C93.83,105.1,93.25,105.25,92.7,105.16z" fill="#A1C2FA" stroke="#2A56C6" stroke-miterlimit="10" stroke-width="1.8895"/>
        <path d="M95.8,101.99 c-0.31-0.08-0.6-0.24-0.85-0.48l-3.72-3.63c-0.75-0.73-0.76-1.93-0.03-2.67c0.73-0.75,1.92-0.76,2.67-0.03l3.72,3.63 c0.75,0.73,0.76,1.93,0.03,2.67C97.13,101.98,96.43,102.15,95.8,101.99z" fill="#A1C2FA" stroke="#2A56C6" stroke-miterlimit="10" stroke-width="1.8895"/>
        <linearGradient id="SVGID_3_" gradientTransform="matrix(0.3743 0.9273 -0.9273 0.3743 70.6051 -76.6997)" gradientUnits="userSpaceOnUse" x1="97.1754" x2="97.1754" y1="8.6231" y2="-1.9287">
          <stop offset="0" style="stop-color:#2196F3"/>
          <stop offset="1" style="stop-color:#90CAF9"/>
        </linearGradient>
        <path d="M102.11,24.38l-6.2-15.35 c-0.31-0.77,0.06-1.65,0.83-1.96l6.99-2.82c0.77-0.31,1.65,0.06,1.96,0.83l4.76,11.78c1.08,2.67-0.21,5.7-2.88,6.77l-3.7,1.49 C103.18,25.41,102.39,25.08,102.11,24.38z" fill="url(#SVGID_3_)" stroke="#1565C0" stroke-miterlimit="10" stroke-width="1.3095"/>
      </g>
      <g>
        <linearGradient id="SVGID_4_" gradientUnits="userSpaceOnUse" x1="58.7939" x2="58.7939" y1="93.3916" y2="31.8003">
          <stop offset="0.2363" style="stop-color:#263238"/>
          <stop offset="1" style="stop-color:#607D8B"/>
        </linearGradient>
        <path d="M76.18,93.39c-2.08,0-3.9-0.46-6.01-1c-2.9-0.73-6.18-1.57-11.38-1.57 c-5.19,0-8.48,0.83-11.38,1.57c-2.11,0.53-3.93,1-6.01,1c-2.16,0-4.38-0.51-6.99-1.61c-5.98-2.52-10.35-7.35-12.64-13.97 c-3.29-9.49-1.79-21.04,4.11-31.71C28.26,41.8,36.02,31.8,56.7,31.8c1.3,0,2.08,0.05,2.14,0.06c-0.03,0,0.75-0.06,2.05-0.06 c20.67,0,28.44,10,30.82,14.31c5.9,10.67,7.4,22.22,4.11,31.71c-2.29,6.62-6.67,11.45-12.64,13.97 C80.56,92.88,78.34,93.39,76.18,93.39L76.18,93.39z M38.96,44.92c-1.62,0.74-16.11,8.03-10.06,27.27 c1.71,5.42,4.74,9.41,8.77,11.53c0.24,0.12,0.48,0.18,0.73,0.18c0,0,0,0,0,0c2.19,0,5.27-4.43,8.25-8.72 c3.55-5.11,7.57-10.9,11.93-12.39l0.19-0.07l0.2,0.05c3.59,0.96,7.57,6.08,11.41,11.03c3.61,4.65,7.34,9.45,9.84,9.45 c0.25,0,0.47-0.05,0.69-0.15c3.36-1.54,5.97-5.21,7.77-10.92c6.05-19.24-8.44-26.52-10.06-27.27H38.96z" fill="url(#SVGID_4_)"/>
        <path d="M60.89,32.47c5.98,0,23.15,1.16,30.23,13.96c10.22,18.48,6.27,38.64-8.21,44.73 c-2.73,1.15-4.83,1.56-6.73,1.56c-4.76,0-8.3-2.56-17.39-2.56c-9.09,0-12.63,2.56-17.39,2.56c-1.9,0-4-0.41-6.73-1.56 c-14.48-6.1-18.43-26.25-8.21-44.73c7.08-12.8,24.25-13.96,30.23-13.96c1.32,0,2.1,0.06,2.1,0.06S59.57,32.47,60.89,32.47 M38.4,84.58c5.27,0,12.39-18.4,20.39-21.15c6.81,1.82,15.83,20.5,21.43,20.5c0.34,0,0.66-0.07,0.97-0.21 c3.73-1.71,6.39-5.82,8.12-11.32c6.53-20.77-10.55-28.14-10.55-28.14H60.43h-3.27H38.82c0,0-17.09,7.37-10.55,28.14 c1.89,6.02,5.18,9.86,9.09,11.92C37.7,84.49,38.05,84.58,38.4,84.58 M60.89,31.13c-1.1,0-1.84,0.04-2.1,0.05 c-0.25-0.02-0.99-0.05-2.1-0.05c-3.02,0-8.99,0.29-15.11,2.24c-7.6,2.42-13.08,6.6-16.29,12.41c-5.99,10.83-7.5,22.59-4.16,32.25 c2.32,6.71,6.95,11.81,13.02,14.36c2.7,1.14,5,1.66,7.25,1.66c2.16,0,4.02-0.47,6.18-1.02c2.86-0.72,6.1-1.55,11.21-1.55 c5.11,0,8.35,0.82,11.21,1.55c2.15,0.55,4.01,1.02,6.18,1.02c2.25,0,4.55-0.53,7.25-1.66c6.07-2.56,10.69-7.66,13.02-14.36 c3.35-9.66,1.83-21.42-4.16-32.25C89.08,39.97,83.6,35.8,76,33.37C69.88,31.42,63.91,31.13,60.89,31.13L60.89,31.13z M39.11,45.59h18.05h3.27h18.05c2.04,0.98,15.31,8.15,9.57,26.4c-1.71,5.44-4.27,9.07-7.41,10.51c-0.13,0.06-0.26,0.09-0.41,0.09 c-2.17,0-6.13-5.1-9.31-9.19C67,68.36,62.95,63.15,59.14,62.13l-0.4-0.11l-0.39,0.13c-4.56,1.57-8.65,7.45-12.26,12.64 c-2.61,3.76-5.86,8.43-7.7,8.43c-0.15,0-0.28-0.03-0.42-0.11c-3.92-2.07-6.76-5.81-8.44-11.14 C23.81,53.75,37.07,46.58,39.11,45.59L39.11,45.59z" fill="#90A4AE"/>
      </g>
      <g>
        <g>
          <linearGradient id="SVGID_5_" gradientUnits="userSpaceOnUse" x1="58.7939" x2="58.7939" y1="123.25" y2="104.7207">
            <stop offset="0.2363" style="stop-color:#263238"/>
            <stop offset="1" style="stop-color:#607D8B"/>
          </linearGradient>
          <path d="M56.37,123.25c-1.66,0-3.04-1.23-3.13-2.79l-0.93-15.74h12.96l-0.93,15.74 c-0.09,1.56-1.47,2.79-3.13,2.79H56.37z" fill="url(#SVGID_5_)"/>
          <path d="M64.75,105.22l-0.9,15.21c-0.08,1.3-1.23,2.32-2.63,2.32h-4.85c-1.4,0-2.55-1.02-2.63-2.32l-0.9-15.21 H64.75 M65.81,104.22h-1.06h-11.9h-1.06l0.06,1.06l0.9,15.21c0.11,1.83,1.7,3.26,3.63,3.26h4.85c1.93,0,3.52-1.43,3.63-3.26 l0.9-15.21L65.81,104.22L65.81,104.22z" fill="#90A4AE"/>
        </g>
        <g>
          <linearGradient id="SVGID_6_" gradientUnits="userSpaceOnUse" x1="58.8384" x2="58.8384" y1="103.0828" y2="96.6131">
            <stop offset="0.2363" style="stop-color:#263238"/>
            <stop offset="1" style="stop-color:#607D8B"/>
          </linearGradient>
          <path d="M53.81,106.47c-6.33,0-7.74-5.78-7.75-5.84L45.91,100h25.85l-0.25,0.7 c-0.02,0.06-2.17,5.77-7.73,5.77H53.81z" fill="url(#SVGID_6_)"/>
          <path d="M71.02,100.52c0,0-1.98,5.43-7.25,5.43h-9.97c-5.99,0-7.25-5.43-7.25-5.43H71.02 M72.5,99.48h-1.48 H46.56h-1.3l0.29,1.27c0.5,2.16,2.86,6.24,8.25,6.24h9.97c5.92,0,8.13-5.86,8.22-6.11L72.5,99.48L72.5,99.48z" fill="#90A4AE"/>
        </g>
      </g>
      <g>
        <linearGradient id="SVGID_7_" gradientUnits="userSpaceOnUse" x1="58.7937" x2="58.7937" y1="70.2236" y2="88.8076">
          <stop offset="0" style="stop-color:#78909C"/>
          <stop offset="1" style="stop-color:#455A64"/>
        </linearGradient>
        <path d="M58.79,88.81c-4.22,0-6.69-0.64-7.55-1.95c-0.29-0.44-0.54-1.18-0.09-2.2l5.69-13.15 c0.34-0.79,1.09-1.29,1.96-1.29c0.86,0,1.61,0.49,1.96,1.29l5.69,13.15c0.44,1.03,0.19,1.76-0.09,2.2 C65.48,88.17,63.01,88.81,58.79,88.81z" fill="url(#SVGID_7_)"/>
        <path d="M58.79,70.89c0.54,0,1.09,0.29,1.34,0.88l5.69,13.15c0.42,0.97,0.84,3.22-7.03,3.22s-7.45-2.25-7.03-3.22 l5.69-13.15C57.71,71.19,58.25,70.89,58.79,70.89 M58.79,69.55c-1.14,0-2.12,0.65-2.57,1.69l-5.69,13.15 c-0.56,1.3-0.23,2.26,0.15,2.84c1.01,1.54,3.59,2.25,8.11,2.25c4.52,0,7.1-0.72,8.11-2.25c0.38-0.58,0.71-1.54,0.15-2.84 l-5.69-13.15C60.91,70.2,59.93,69.55,58.79,69.55L58.79,69.55z" fill="#455A64"/>
      </g>
      <linearGradient id="SVGID_8_" gradientUnits="userSpaceOnUse" x1="58.534" x2="58.534" y1="85.2004" y2="42.5252">
        <stop offset="0.391" style="stop-color:#263238"/>
        <stop offset="1" style="stop-color:#263238"/>
      </linearGradient>
      <path d="M92.44,82 c0.22-1.56,2.38-1.8,3.55-2.85c0.67-0.6,1-1.48,1.31-2.33c0.7-1.91,1.39-3.82,2.09-5.73c1.24-3.41,2.49-6.87,2.83-10.48 c0.33-3.61-0.35-7.46-2.63-10.29c-3.13-3.88-0.14-10.09-71.09-6.93c-2.62,0.12-5.14,1.85-7.49,3.47c-2.46,1.7-4.44,4.11-5.53,6.9 c-1.6,4.13-0.06,7.4,0.77,11.75c0.52,2.73,1.42,7.16,2.85,9.55c1.22,2.03,1.72,2.72,3.18,4.46c1.15,1.37,10.55,5.17,15.08,4.78 c10.07-0.87,10.21-19.97,21.43-20.89S71.08,88.25,84.7,84.9 M89.32,72.39c-1.73,5.51-4.4,9.61-8.12,11.32 c-5.48,2.52-15.18-18.36-22.4-20.29c-8.54,2.94-16.08,23.71-21.43,20.89c-3.91-2.06-7.2-5.9-9.09-11.92 c-6.53-20.77,10.55-28.14,10.55-28.14h18.34h3.27h18.34C78.77,44.25,95.85,51.62,89.32,72.39z" fill="url(#SVGID_8_)" stroke="#546E7A" stroke-miterlimit="10" stroke-width="2.68"/>
      <linearGradient id="SVGID_9_" gradientUnits="userSpaceOnUse" x1="58.7859" x2="58.7859" y1="47.9029" y2="82.7573">
        <stop offset="0.1621" style="stop-color:#FFFFFF"/>
        <stop offset="0.58" style="stop-color:#84A2CF"/>
        <stop offset="1" style="stop-color:#0D47A1"/>
      </linearGradient>
      <path d="M85.26,46.93c6.16,0,10.26,1.52,12.19,4.52c3.83,5.94,0.01,17.67-1.63,21.31 l-0.08,0.14l-0.09,0.28c-0.39,0.98-3.45,7.69-14.01,7.69c-4.65,0-6.5-2.71-9.61-8.89c-2.41-4.78-5.7-11.32-13.23-11.32 s-10.82,6.54-13.23,11.32c-3.11,6.18-4.96,8.89-9.61,8.89c-10.54,0-13.61-6.69-14-7.69l-0.04-0.13l-0.14-0.3 c-1.65-3.62-5.49-15.31-1.64-21.3c1.93-3,6.04-4.53,12.2-4.53h26.47H85.26" fill="url(#SVGID_9_)" opacity="0.6"/>
      <g>
        <linearGradient id="SVGID_10_" gradientTransform="matrix(0.9553 0.2957 -0.2957 0.9553 21.5447 -28.4726)" gradientUnits="userSpaceOnUse" x1="109.2926" x2="109.2926" y1="67.6102" y2="58.3107">
          <stop offset="0.2363" style="stop-color:#263238"/>
          <stop offset="1" style="stop-color:#607D8B"/>
        </linearGradient>
        <path d="M110.96,69.9c-0.17,0-0.35-0.03-0.51-0.08l-10.64-3.29l2.75-8.88l10.64,3.29 c0.44,0.14,0.8,0.44,1.02,0.85c0.22,0.41,0.26,0.88,0.12,1.32l-1.72,5.57C112.39,69.41,111.73,69.9,110.96,69.9z" fill="url(#SVGID_10_)"/>
        <path d="M102.9,58.29l10.15,3.14c0.64,0.2,1,0.88,0.8,1.52l-1.72,5.57c-0.16,0.52-0.64,0.86-1.16,0.86 c-0.12,0-0.24-0.02-0.36-0.05l-10.15-3.14L102.9,58.29 M102.22,57l-0.31,0.99l-2.44,7.89l-0.31,0.99l0.99,0.31l10.15,3.14 c0.22,0.07,0.44,0.1,0.67,0.1c0.99,0,1.86-0.64,2.15-1.59l1.72-5.57c0.37-1.19-0.3-2.45-1.48-2.82l-10.15-3.14L102.22,57 L102.22,57z" fill="#90A4AE"/>
      </g>
      <linearGradient id="SVGID_11_" gradientUnits="userSpaceOnUse" x1="58.7937" x2="58.7937" y1="86.2337" y2="41.572">
        <stop offset="0.3538" style="stop-color:#2196F3"/>
        <stop offset="1" style="stop-color:#90CAF9"/>
      </linearGradient>
      <path d="M85.26,46.93 c6.16,0,10.26,1.52,12.19,4.52c3.83,5.94,0.01,17.67-1.63,21.31l-0.08,0.14l-0.09,0.28c-0.39,0.98-3.45,7.69-14.01,7.69 c-4.65,0-6.5-2.71-9.61-8.89c-2.41-4.78-5.7-11.32-13.23-11.32s-10.82,6.54-13.23,11.32c-3.11,6.18-4.96,8.89-9.61,8.89 c-10.54,0-13.61-6.69-14-7.69l-0.04-0.13l-0.14-0.3c-1.65-3.62-5.49-15.31-1.64-21.3c1.93-3,6.04-4.53,12.2-4.53h26.47H85.26 M85.26,41.57c-12.9,0-26.47,0-26.47,0s-13.57,0-26.47,0c-30.65,0-15.44,33.4-15.44,33.4s3.92,11.26,19.06,11.26 c15.14,0,13.3-20.21,22.84-20.21s7.71,20.21,22.84,20.21c15.14,0,19.06-11.26,19.06-11.26S115.91,41.57,85.26,41.57L85.26,41.57z" fill="url(#SVGID_11_)" stroke="#1565C0" stroke-miterlimit="10" stroke-width="1.34"/>
    </g>
  </g>
</svg>