<svg viewBox="0 0 128 128" xmlns="http://www.w3.org/2000/svg">
  <defs/>
  <path d="M120.27,7.69 C117.89,5.31 114.72,4 111.36,4 C108,4 104.83,5.31 102.45,7.69 C97.54,12.61 97.54,20.61 102.45,25.53 C104.83,27.91 108,29.22 111.36,29.22 C114.73,29.22 117.89,27.91 120.28,25.53 C125.19,20.61 125.19,12.61 120.27,7.69 Z M106.38,11.63 C107.71,10.3 109.48,9.57 111.35,9.57 C113.22,9.57 115,10.3 116.33,11.63 C119.08,14.38 119.08,18.85 116.33,21.59 C115,22.92 113.23,23.65 111.35,23.65 C109.47,23.65 107.7,22.92 106.38,21.59 C103.64,18.85 103.64,14.38 106.38,11.63 Z" fill="#E2A610"/>
  <path d="M105.51,30.95 L97.04,22.47 L103.08,16.42 C104.42,15.08 106.59,15.08 107.94,16.42 L111.56,20.04 C112.9,21.38 112.9,23.55 111.56,24.89 L105.51,30.95 Z" fill="#FFCA28"/>
  <path d="M107.69,28.76 C107.69,28.76 109.02,26.09 105.45,22.52 C101.88,18.95 99.18,20.32 99.18,20.32 L97.04,22.47 L105.51,30.95 L107.69,28.76 Z" fill="#E2A610"/>
  <path d="M120.7,65.63 A58.33 58.37 0 1 1 4.04,65.63 A58.33 58.37 0 1 1 120.7,65.63 Z" fill="#FFCA28"/>
  <path d="M109.66,65.63 A47.29 47.32 0 1 1 15.08,65.63 A47.29 47.32 0 1 1 109.66,65.63 Z" fill="#FFFFFF"/>
  <path d="M68.78,72.05 L62.37,99.76 L55.96,72.05 L28.26,65.63 L55.96,59.22 L62.37,31.5 L68.78,59.22 L96.48,65.63 Z" fill="#E0C3AB"/>
  <path d="M71.43,65.63 L86.49,89.77 L62.37,74.7 L38.25,89.77 L53.31,65.63 L38.25,41.5 L62.37,56.56 L86.49,41.5 Z" fill="#B2947C"/>
  <path d="M50.45,86.94 C50.45,86.94 63.27,77.85 68.13,72.99 C73,68.14 83.26,53.87 83.26,53.87 C86.01,50.82 89.1,43.11 89.96,40.87 C90.05,40.63 89.82,40.39 89.58,40.48 C87.62,41.23 81.41,43.68 77.08,46.44 C71.67,49.9 61.99,57.81 57.48,62.32 C52.97,66.83 47.11,75.52 43.78,80.25 C41,84.21 37.52,91.57 36.47,93.86 C36.35,94.11 36.61,94.37 36.86,94.26 C39.22,93.27 46.87,89.9 50.45,86.94 Z" fill="#212121" opacity="0.32"/>
  <path d="M82.66,52.46 C85.52,48.81 88.23,41.62 89.03,39.39 C89.13,39.12 88.87,38.86 88.59,38.95 C86.36,39.75 79.18,42.47 75.53,45.33 C71.18,48.74 56.71,60.63 56.71,60.63 L67.36,71.29 C67.37,71.29 79.25,56.81 82.66,52.46 Z" fill="#F44336"/>
  <path d="M41.41,79.48 C38.55,83.13 35.84,90.32 35.04,92.55 C34.94,92.82 35.2,93.08 35.48,92.99 C37.71,92.19 44.89,89.47 48.54,86.61 C52.89,83.2 67.36,71.31 67.36,71.31 L56.7,60.65 C56.7,60.65 44.82,75.12 41.41,79.48 Z" fill="#2F7889"/>
  <path d="M69.59,65.98 A7.56 7.57 0 1 1 54.47,65.98 A7.56 7.57 0 1 1 69.59,65.98 Z" fill="#94D1E0"/>
  <path d="M90.46,37.52 L90.46,37.52 C89.12,36.18 89.12,34 90.46,32.66 L94.02,29.1 L98.88,33.96 L95.33,37.52 C93.98,38.87 91.8,38.87 90.46,37.52 Z" fill="#F44336"/>
  <path d="M34.28,93.74 L34.28,93.74 C35.62,95.08 35.62,97.26 34.28,98.6 L30.72,102.16 L25.86,97.3 L29.41,93.74 C30.76,92.4 32.94,92.4 34.28,93.74 Z" fill="#B2947C"/>
  <path d="M102.1,65.63 L102.1,65.63 C102.1,63.73 103.64,62.19 105.54,62.19 L110.56,62.19 L110.56,69.07 L105.54,69.07 C103.64,69.07 102.1,67.53 102.1,65.63 Z" fill="#E0C3AB"/>
  <path d="M22.65,65.63 L22.65,65.63 C22.65,67.53 21.11,69.07 19.21,69.07 L14.19,69.07 L14.19,62.19 L19.21,62.19 C21.11,62.19 22.65,63.73 22.65,65.63 Z" fill="#E0C3AB"/>
  <path d="M90.46,93.74 L90.46,93.74 C91.8,92.4 93.98,92.4 95.32,93.74 L98.87,97.3 L94.01,102.16 L90.45,98.6 C89.12,97.26 89.12,95.09 90.46,93.74 Z" fill="#B2947C"/>
  <path d="M34.28,37.52 L34.28,37.52 C32.94,38.86 30.76,38.86 29.42,37.52 L25.87,33.96 L30.73,29.1 L34.29,32.66 C35.62,34 35.62,36.18 34.28,37.52 Z" fill="#B2947C"/>
  <path d="M62.37,105.38 L62.37,105.38 C64.27,105.38 65.81,106.92 65.81,108.82 L65.81,113.85 L58.94,113.85 L58.94,108.82 C58.93,106.92 60.47,105.38 62.37,105.38 Z" fill="#E0C3AB"/>
  <path d="M62.37,25.88 L62.37,25.88 C60.47,25.88 58.93,24.34 58.93,22.44 L58.93,17.41 L65.8,17.41 L65.8,22.44 C65.81,24.34 64.27,25.88 62.37,25.88 Z" fill="#E0C3AB"/>
  <path d="M111.16,65.63 Q111.16,85.852 96.87,100.151 Q82.58,114.45 62.37,114.45 Q42.16,114.45 27.87,100.151 Q13.58,85.852 13.58,65.63 Q13.58,45.408 27.87,31.109 Q42.16,16.81 62.37,16.81 Q82.58,16.81 96.87,31.109 Q111.16,45.408 111.16,65.63 Z M108.16,65.63 Q108.16,46.65 94.748,33.23 Q81.337,19.81 62.37,19.81 Q43.403,19.81 29.992,33.23 Q16.58,46.65 16.58,65.63 Q16.58,84.609 29.992,98.03 Q43.403,111.45 62.37,111.45 Q81.337,111.45 94.748,98.03 Q108.16,84.609 108.16,65.63 Z" fill="#E2A610"/>
  <path d="M8.72,64.92 C8.72,64.92 6.6,54.18 12.25,40.88 C20.59,21.26 38.6,10.46 57.97,9.62 C72.5,8.99 80.88,13.78 80.88,13.78 C80.88,13.78 69.06,12.81 60.91,13.17 C41.25,14.04 27.59,23.01 18.23,38.35 C10.53,50.99 8.72,64.92 8.72,64.92 Z" fill="#FFF59D"/>
</svg>