<svg viewBox="0 0 128 128" xmlns="http://www.w3.org/2000/svg">
  <defs>
    <linearGradient id="robe_1_" gradientTransform="matrix(1 0 0 -1 0 0)" gradientUnits="userSpaceOnUse" x1="64" x2="64" y1="-95.4951" y2="-128.1509">
      <stop offset="0" stop-color="#F44336"/>
      <stop offset="0.3592" stop-color="#E73B32"/>
      <stop offset="1" stop-color="#C62828"/>
    </linearGradient>
    <linearGradient id="SVGID_7_" gradientTransform="matrix(1 0 0 -1 0 0)" gradientUnits="userSpaceOnUse" x1="27.61" x2="105.4818" y1="-32.8925" y2="-32.8925">
      <stop offset="0" stop-color="#F44336"/>
      <stop offset="0.3592" stop-color="#E73B32"/>
      <stop offset="1" stop-color="#C62828"/>
    </linearGradient>
    <radialGradient id="SVGID_8_" cx="98.5048" cy="61.816145" gradientTransform="matrix(1 0 0 1.0094 0 0)" gradientUnits="userSpaceOnUse" r="14.1888">
      <stop offset="0.5391" stop-color="#F5F5F5"/>
      <stop offset="1" stop-color="#BDBDBD"/>
    </radialGradient>
    <radialGradient id="SVGID_9_" cx="19.850813" cy="-66.346727" gradientTransform="matrix(0.8655 -0.5008 -0.9673 -1.6717 0 0)" gradientUnits="userSpaceOnUse" r="11.7231">
      <stop offset="0" stop-color="#E0E0E0"/>
      <stop offset="0.6561" stop-color="#F5F5F5"/>
    </radialGradient>
    <linearGradient id="SVGID_10_" gradientTransform="matrix(1 0 0 -1 0 0)" gradientUnits="userSpaceOnUse" x1="31.6716" x2="74.3795" y1="-101.363" y2="-101.363">
      <stop offset="0.6763" stop-color="#F5F5F5"/>
      <stop offset="1" stop-color="#E0E0E0"/>
    </linearGradient>
    <radialGradient id="SVGID_1_" cx="79.077" cy="-166.817861" gradientTransform="matrix(1 0 0 -0.4912 0 0)" gradientUnits="userSpaceOnUse" r="23.419">
      <stop offset="0.7315" stop-color="#D6D6D6" stop-opacity="0"/>
      <stop offset="0.8065" stop-color="#E6E6E6" stop-opacity="0.2791"/>
      <stop offset="0.9196" stop-color="#F8F8F8" stop-opacity="0.7007"/>
      <stop offset="1" stop-color="#FFFFFF"/>
    </radialGradient>
    <radialGradient id="SVGID_2_" cx="-58.714758" cy="190.215783" gradientTransform="matrix(-0.9057 0.4238 0.2547 0.5443 0 0)" gradientUnits="userSpaceOnUse" r="8.0763">
      <stop offset="0" stop-color="#FFFFFF"/>
      <stop offset="0.2993" stop-color="#F8F8F8" stop-opacity="0.7007"/>
      <stop offset="0.7209" stop-color="#E6E6E6" stop-opacity="0.2791"/>
      <stop offset="1" stop-color="#D6D6D6" stop-opacity="0"/>
    </radialGradient>
    <radialGradient id="SVGID_3_" cx="-63.79596" cy="-141.732416" gradientTransform="matrix(-0.0746 -0.9972 -0.6085 0.0455 0 0)" gradientUnits="userSpaceOnUse" r="30.3992">
      <stop offset="0.5919" stop-color="#D6D6D6" stop-opacity="0"/>
      <stop offset="0.7058" stop-color="#E6E6E6" stop-opacity="0.2791"/>
      <stop offset="0.8778" stop-color="#F8F8F8" stop-opacity="0.7007"/>
      <stop offset="1" stop-color="#FFFFFF"/>
    </radialGradient>
    <radialGradient id="SVGID_4_" cx="-48.9672" cy="-166.817861" gradientTransform="matrix(-1 0 0 -0.4912 0 0)" gradientUnits="userSpaceOnUse" r="23.419">
      <stop offset="0.7315" stop-color="#D6D6D6" stop-opacity="0"/>
      <stop offset="0.8065" stop-color="#E6E6E6" stop-opacity="0.2791"/>
      <stop offset="0.9196" stop-color="#F8F8F8" stop-opacity="0.7007"/>
      <stop offset="1" stop-color="#FFFFFF"/>
    </radialGradient>
    <radialGradient id="SVGID_5_" cx="57.263673" cy="99.911802" gradientTransform="matrix(0.9057 0.4238 -0.2547 0.5443 0 0)" gradientUnits="userSpaceOnUse" r="8.0763">
      <stop offset="0" stop-color="#FFFFFF"/>
      <stop offset="0.2993" stop-color="#F8F8F8" stop-opacity="0.7007"/>
      <stop offset="0.7209" stop-color="#E6E6E6" stop-opacity="0.2791"/>
      <stop offset="1" stop-color="#D6D6D6" stop-opacity="0"/>
    </radialGradient>
    <radialGradient id="SVGID_6_" cx="-53.843092" cy="69.202692" gradientTransform="matrix(0.0746 -0.9972 0.5876 0.044 0 0)" gradientUnits="userSpaceOnUse" r="31.3424">
      <stop offset="0.5919" stop-color="#D6D6D6" stop-opacity="0"/>
      <stop offset="0.7058" stop-color="#E6E6E6" stop-opacity="0.2791"/>
      <stop offset="0.8778" stop-color="#F8F8F8" stop-opacity="0.7007"/>
      <stop offset="1" stop-color="#FFFFFF"/>
    </radialGradient>
  </defs>
  <path id="hair_x5F_white_1_" d="M98.9,79.85 C97.65,77.58 99.24,75.27 101.96,72.41 C106.27,67.87 110.96,57.34 106.6,46.65 C106.63,46.59 105.74,44.79 105.77,44.73 L103.98,44.64 C103.41,44.56 83.72,44.52 64.01,44.52 C44.3,44.52 27.95,44.59 27.95,44.59 C25.11,46.51 13.56,58.46 25.85,73.11 C28.38,76.13 30.35,77.59 29.11,79.86 C27.9,82.07 24.3,82.39 24.3,82.39 C24.3,82.39 25.13,84.65 27.13,85.87 C28.98,87 31.26,87.26 32.83,87.3 C32.83,87.3 38.98,95.81 55.06,95.81 L64.01,95.81 L72.96,95.81 C89.04,95.81 95.19,87.3 95.19,87.3 C96.76,87.26 99.04,87 100.89,85.87 C102.89,84.65 103.72,82.39 103.72,82.39 C103.72,82.39 100.11,82.06 98.9,79.85 Z" fill="#BDBDBD"/>
  <g opacity="0.5">
    <path d="M63.99,95.79 L63.99,86.35 L92.56,84.09 L95.16,87.29 C95.16,87.29 89.01,95.8 72.93,95.8 L63.99,95.79 Z" fill="url(#SVGID_1_)"/>
    <path d="M95.1,83.16 C90.82,76.66 100.31,74.23 100.31,74.23 C100.31,74.23 100.32,74.24 100.32,74.24 C98.67,76.29 97.92,78.08 98.89,79.85 C100.1,82.06 103.7,82.38 103.7,82.38 C103.7,82.38 98.79,86.74 95.1,83.16 Z" fill="url(#SVGID_2_)"/>
    <path d="M106.62,46.65 C110.87,57 106.4,67.66 102.21,72.16 C101.63,72.78 99.2,75.17 98.64,77.08 C98.64,77.08 89.1,63.77 86.25,55.95 C85.67,54.37 85.15,52.75 85.08,51.07 C85.03,49.81 85.22,48.31 85.95,47.25 C86.84,45.94 106.11,45.55 106.11,45.55 C106.11,45.55 106.62,46.65 106.62,46.65 Z" fill="url(#SVGID_3_)"/>
    <path d="M64.06,95.79 L64.06,86.35 L35.49,84.09 L32.89,87.29 C32.89,87.29 39.04,95.8 55.12,95.8 L64.06,95.79 Z" fill="url(#SVGID_4_)"/>
    <path d="M32.95,83.16 C37.23,76.66 27.74,74.23 27.74,74.23 C27.74,74.23 27.73,74.24 27.73,74.24 C29.38,76.29 30.13,78.08 29.16,79.85 C27.95,82.06 24.35,82.38 24.35,82.38 C24.35,82.38 29.25,86.74 32.95,83.16 Z" fill="url(#SVGID_5_)"/>
    <path d="M25.84,73.1 C27.25,74.78 28.48,75.97 29.08,77.09 C29.7,76.21 38.68,63.56 41.43,56.01 C42.01,54.43 42.53,52.81 42.6,51.13 C42.64,50.21 42.02,46.75 41.41,44.53 C33.23,44.55 27.93,44.57 27.93,44.57 C25.1,46.5 13.55,58.45 25.84,73.1 Z" fill="url(#SVGID_6_)"/>
  </g>
  <path id="robe" d="M64.14,95.97 C64.09,95.97 64.05,95.97 64,95.97 C38.35,96 12,103.07 12,120.96 L12,124 L13.44,124 L14.89,124 L113.11,124 L114.56,124 L116,124 L116,120.96 C116,104.1 89.9,95.97 64.14,95.97 Z" fill="url(#robe_1_)"/>
  <path id="ears" d="M90.76,49.55 L37.19,49.55 C31.41,49.55 26.69,54.72 26.69,61.05 C26.69,67.38 31.42,72.55 37.19,72.55 L90.76,72.55 C96.54,72.55 101.26,67.37 101.26,61.05 C101.26,54.73 96.54,49.55 90.76,49.55 Z" fill="#99674F"/>
  <path id="head" d="M63.59,10.47 L63.59,10.47 L63.59,10.47 C46.51,10.47 30.7,28.73 30.7,55.01 C30.7,81.14 46.99,94.07 63.59,94.07 C80.19,94.07 96.48,81.15 96.48,55.01 C96.48,28.73 80.66,10.47 63.59,10.47 Z" fill="#BA8D68"/>
  <path id="tone_4_" d="M91.5,61.5 C91.38,61.5 91.25,61.48 91.13,61.43 L86.7,59.67 C86.37,59.54 86.13,59.24 86.08,58.88 C86.03,58.53 86.17,58.17 86.45,57.95 L90.01,55.15 C90.45,54.81 91.07,54.88 91.41,55.32 C91.75,55.75 91.68,56.38 91.24,56.72 L89.05,58.45 L91.87,59.57 C92.38,59.77 92.63,60.36 92.43,60.87 C92.27,61.26 91.9,61.5 91.5,61.5 Z" fill="#91674D"/>
  <path id="tone_2_" d="M46.55,79.81 C46.29,79.81 46.04,79.71 45.84,79.52 C45.45,79.13 45.45,78.5 45.84,78.11 L52.95,71 C53.34,70.61 53.97,70.61 54.36,71 C54.75,71.39 54.75,72.02 54.36,72.41 L47.25,79.52 C47.06,79.72 46.8,79.81 46.55,79.81 Z" fill="#91674D"/>
  <path id="tone_1_" d="M81.4,79.81 C81.14,79.81 80.89,79.71 80.69,79.52 L73.58,72.41 C73.19,72.02 73.19,71.39 73.58,71 C73.97,70.61 74.6,70.61 74.99,71 L82.1,78.11 C82.49,78.5 82.49,79.13 82.1,79.52 C81.91,79.72 81.66,79.81 81.4,79.81 Z" fill="#91674D"/>
  <path id="tone" d="M36.5,61.5 C36.1,61.5 35.73,61.26 35.57,60.87 C35.37,60.36 35.62,59.77 36.13,59.57 L38.95,58.45 L36.76,56.72 C36.33,56.38 36.25,55.75 36.59,55.32 C36.93,54.89 37.56,54.81 37.99,55.15 L41.54,57.95 C41.82,58.17 41.96,58.53 41.91,58.88 C41.86,59.23 41.62,59.53 41.29,59.67 L36.86,61.43 C36.75,61.48 36.62,61.5 36.5,61.5 Z" fill="#91674D"/>
  <path id="tone_3_" d="M51.57,43.28 C51.57,43.93 52.17,44.41 52.8,44.26 C55.48,43.63 59.28,42.99 63.67,42.99 C68.19,42.99 72.22,43.67 75.05,44.32 C75.68,44.46 76.27,43.99 76.27,43.34 L76.27,43.34 C76.27,42.87 75.94,42.46 75.48,42.36 C72.55,41.69 68.4,41 63.67,41 C59.08,41 55.14,41.65 52.35,42.31 C51.89,42.41 51.57,42.81 51.57,43.28 L51.57,43.28 Z" fill="#91674D"/>
  <path id="mouth_1_" d="M72.24,76.15 C69.12,78.01 58.87,78.01 55.74,76.15 C53.95,75.08 52.11,76.72 52.86,78.35 C53.59,79.95 59.18,83.67 64.02,83.67 C68.86,83.67 74.37,79.95 75.1,78.35 C75.84,76.72 74.03,75.08 72.24,76.15 Z" fill="#5D4037"/>
  <path d="M52.52,59.26 A4.83 5.01 0 1 1 42.86,59.26 A4.83 5.01 0 1 1 52.52,59.26 Z" fill="#49362E"/>
  <path d="M85.15,59.26 A4.83 5.01 0 1 1 75.49,59.26 A4.83 5.01 0 1 1 85.15,59.26 Z" fill="#49362E"/>
  <path d="M54.8,49.82 C53.87,48.59 51.73,46.81 47.57,46.81 C43.41,46.81 41.26,48.6 40.34,49.82 C39.93,50.36 40.03,50.99 40.32,51.37 C40.58,51.72 41.36,52.05 42.22,51.76 C43.08,51.47 44.76,50.6 47.57,50.58 C50.38,50.6 52.06,51.47 52.92,51.76 C53.78,52.05 54.56,51.73 54.82,51.37 C55.1,50.99 55.21,50.36 54.8,49.82 Z" fill="#9E9E9E"/>
  <path d="M87.67,49.82 C86.74,48.59 84.6,46.81 80.44,46.81 C76.28,46.81 74.13,48.6 73.21,49.82 C72.8,50.36 72.9,50.99 73.19,51.37 C73.45,51.72 74.23,52.05 75.09,51.76 C75.95,51.47 77.63,50.6 80.44,50.58 C83.25,50.6 84.93,51.47 85.79,51.76 C86.65,52.05 87.43,51.73 87.69,51.37 C87.97,50.99 88.08,50.36 87.67,49.82 Z" fill="#9E9E9E"/>
  <path id="hair_x5F_white" d="M99.33,30.12 C96.94,23.63 46.31,11.52 29.75,33.84 C26.5,38.23 29.26,52.48 29.26,52.48 C28.8,60.49 30.29,65.42 31.08,67.42 C31.22,67.77 31.71,67.74 31.8,67.38 C32.79,63.42 36.17,49.58 35.83,47.17 C35.83,47.17 47.18,44.92 58,36.95 C60.2,35.33 62.59,33.95 65.13,32.93 C78.72,27.52 81.57,36.75 81.57,36.75 C81.57,36.75 90.99,34.94 93.83,48.02 C94.9,52.92 95.63,60.77 96.23,66.26 C96.27,66.65 96.8,66.73 96.96,66.37 C97.91,64.2 105.1,45.75 99.33,30.12 Z" fill="#BDBDBD"/>
  <path d="M90.92,11.55 C85.56,7.07 77.56,4.3 63.59,4.3 C37.95,4.3 27.61,20.83 27.61,41.17 C27.61,41.25 30.03,41.42 30.52,41.46 C30.58,41.46 30.63,41.47 30.69,41.47 L64,32 C64,32 94.06,41.38 94.31,42.22 L100,59.73 C100.31,60.77 101.26,61.48 102.35,61.48 C103.64,61.48 104.71,60.48 104.8,59.19 C104.98,56.32 105.28,51.18 105.42,46.29 C105.62,38.86 106.28,24.38 90.92,11.55 Z" fill="url(#SVGID_7_)"/>
  <path d="M108.66,63.86 A6.75 6.75 0 1 1 95.16,63.86 A6.75 6.75 0 1 1 108.66,63.86 Z" fill="url(#SVGID_8_)"/>
  <path d="M97.06,30.73 C96.09,30.03 81.64,22.01 62.08,22.01 C42.52,22.01 28.07,30.02 27.1,30.73 C23.08,33.64 22.76,38.22 25.24,42.59 C26.66,45.11 30,44.57 30.56,43.99 C30.56,43.99 44.05,38.48 62.09,38.48 C80.13,38.48 93.61,43.99 93.61,43.99 C94.17,44.57 97.5,45.11 98.93,42.59 C101.4,38.22 101.08,33.64 97.06,30.73 Z" fill="#F5F5F5"/>
  <path id="nose_1_" d="M67.79,68.38 C67.69,68.34 67.58,68.31 67.47,68.3 L60.53,68.3 C60.42,68.31 60.32,68.34 60.21,68.38 C59.58,68.63 59.24,69.29 59.53,69.98 C59.82,70.67 61.21,72.62 63.99,72.62 C66.78,72.62 68.16,70.67 68.45,69.98 C68.76,69.29 68.42,68.64 67.79,68.38 Z" fill="#99674F"/>
  <path d="M96.24,103 C95.44,104.87 90.97,107.58 86.15,109.49 L86.07,107.12 C86.07,101.03 84.99,95.79 79.58,92.93 C78.44,92.4 76.97,91.76 75.83,91.59 C77.4,90.8 79.96,89.32 81.65,88.34 C82.16,88.04 82.69,87.91 83.22,87.91 C86.81,87.91 90.55,94.01 92.02,95.71 C93.58,97.49 96.93,101.36 96.24,103 Z" fill="url(#SVGID_9_)"/>
  <path d="M71.68,112.89 C69.85,113.07 67.03,113.23 65.18,113.23 C64.78,113.23 64.39,113.22 64,113.22 C63.6,113.22 63.22,113.23 62.81,113.23 C48.32,113.23 33.54,107.21 31.76,103.02 C31.07,101.38 34.42,97.5 35.98,95.72 C37.45,94.03 41.27,89.5 45.09,89.5 C45.65,89.5 46.21,89.6 46.76,89.81 C53.26,92.36 55.49,94.38 65.04,93.29 C65.04,93.29 70.98,100.55 71.26,104 C71.4,105.77 71.7,109.14 71.68,112.89 Z" fill="url(#SVGID_10_)"/>
  <path d="M87.14,106.67 C87.14,100.58 85.44,94.46 80.3,92.07 C78.44,91.21 76.53,90.88 74.7,90.88 C68.95,90.88 64.31,93.38 64.31,93.38 C64.31,93.38 70.27,100.69 70.55,104.15 C70.83,107.59 70.71,116.86 70.56,124.01 L87.68,124.01 L87.14,106.67 Z" fill="#FAFAFA"/>
</svg>