<svg viewBox="0 0 128 128" xmlns="http://www.w3.org/2000/svg">
  <defs>
    <linearGradient id="SVGID_9_" gradientTransform="matrix(1 0 0 -1 0 0)" gradientUnits="userSpaceOnUse" x1="64" x2="64" y1="-102.0916" y2="-117.0615">
      <stop offset="0" stop-color="#E1F5FE"/>
      <stop offset="1" stop-color="#81D4FA"/>
    </linearGradient>
    <linearGradient id="SVGID_12_" gradientTransform="matrix(1 0 0 -1 0 0)" gradientUnits="userSpaceOnUse" x1="79.5688" x2="76.9456" y1="-105.2869" y2="-116.3322">
      <stop offset="1.700000e-03" stop-color="#212121" stop-opacity="0.2"/>
      <stop offset="1" stop-color="#212121" stop-opacity="0.6"/>
    </linearGradient>
    <linearGradient id="SVGID_14_" gradientTransform="matrix(1 0 0 -1 0 0)" gradientUnits="userSpaceOnUse" x1="58.4047" x2="60.268" y1="-108.887" y2="-103.0311">
      <stop offset="0" stop-color="#212121"/>
      <stop offset="1" stop-color="#424242"/>
    </linearGradient>
    <linearGradient id="SVGID_15_" gradientTransform="matrix(0.9612 0.2758 -0.3192 1.1123 0 0)" gradientUnits="userSpaceOnUse" x1="86.839468" x2="130.284568" y1="70.635607" y2="70.635607">
      <stop offset="0.0102" stop-color="#BDBDBD"/>
      <stop offset="0.9869" stop-color="#F8F8F7"/>
    </linearGradient>
    <linearGradient id="SVGID_1_" gradientTransform="matrix(1 0 0 -1 0 0)" gradientUnits="userSpaceOnUse" x1="63.9995" x2="63.9995" y1="-11.3953" y2="-88.4893">
      <stop offset="0" stop-color="#26A69A"/>
      <stop offset="1" stop-color="#00796B"/>
    </linearGradient>
    <linearGradient id="SVGID_2_" gradientTransform="matrix(1 0 0 -1 0 0)" gradientUnits="userSpaceOnUse" x1="63.9995" x2="63.9995" y1="-8.545" y2="-90.776">
      <stop offset="0" stop-color="#8D6E63"/>
      <stop offset="0.7789" stop-color="#795548"/>
    </linearGradient>
    <radialGradient id="SVGID_3_" cx="78.5829" cy="167.243326" gradientTransform="matrix(1 0 0 0.4912 0 0)" gradientUnits="userSpaceOnUse" r="23.419">
      <stop offset="0.7275" stop-color="#454140" stop-opacity="0"/>
      <stop offset="1" stop-color="#454140"/>
    </radialGradient>
    <radialGradient id="SVGID_4_" cx="-58.732974" cy="-154.124699" gradientTransform="matrix(-0.9057 0.4238 -0.3144 -0.6719 0 0)" gradientUnits="userSpaceOnUse" r="6.9209">
      <stop offset="0.6628" stop-color="#454140"/>
      <stop offset="1" stop-color="#454140" stop-opacity="0"/>
    </radialGradient>
    <radialGradient id="SVGID_5_" cx="-65.175077" cy="94.877525" gradientTransform="matrix(-0.0746 -0.9972 0.8311 -0.0622 0 0)" gradientUnits="userSpaceOnUse" r="30.3992">
      <stop offset="0.7247" stop-color="#454140" stop-opacity="0"/>
      <stop offset="1" stop-color="#454140"/>
    </radialGradient>
    <radialGradient id="SVGID_6_" cx="-55.619679" cy="-58.30553" gradientTransform="matrix(0.0746 -0.9972 -0.8311 -0.0622 0 0)" gradientUnits="userSpaceOnUse" r="30.3992">
      <stop offset="0.7247" stop-color="#454140" stop-opacity="0"/>
      <stop offset="1" stop-color="#454140"/>
    </radialGradient>
    <radialGradient id="SVGID_7_" cx="-49.4391" cy="167.243326" gradientTransform="matrix(-1 0 0 0.4912 0 0)" gradientUnits="userSpaceOnUse" r="23.419">
      <stop offset="0.7275" stop-color="#454140" stop-opacity="0"/>
      <stop offset="1" stop-color="#454140"/>
    </radialGradient>
    <radialGradient id="SVGID_8_" cx="57.230684" cy="-80.98198" gradientTransform="matrix(0.9057 0.4238 0.3144 -0.6719 0 0)" gradientUnits="userSpaceOnUse" r="6.9209">
      <stop offset="0.6628" stop-color="#454140"/>
      <stop offset="1" stop-color="#454140" stop-opacity="0"/>
    </radialGradient>
    <linearGradient id="SVGID_10_" gradientTransform="matrix(1 0 0 -1 0 0)" gradientUnits="userSpaceOnUse" x1="29.113" x2="29.113" y1="-98.8439" y2="-123.0299">
      <stop offset="0" stop-color="#FFA000"/>
      <stop offset="0.3413" stop-color="#FF9300"/>
      <stop offset="0.9717" stop-color="#FF7100"/>
      <stop offset="1" stop-color="#FF6F00"/>
    </linearGradient>
    <linearGradient id="SVGID_11_" gradientTransform="matrix(1 0 0 -1 0 0)" gradientUnits="userSpaceOnUse" x1="98.8875" x2="98.8875" y1="-98.5648" y2="-123.1933">
      <stop offset="0" stop-color="#FFA000"/>
      <stop offset="0.3413" stop-color="#FF9300"/>
      <stop offset="0.9717" stop-color="#FF7100"/>
      <stop offset="1" stop-color="#FF6F00"/>
    </linearGradient>
    <linearGradient id="SVGID_13_" gradientTransform="matrix(1 0 0 -1 0 0)" gradientUnits="userSpaceOnUse" x1="81.8403" x2="79.8694" y1="-110.9019" y2="-117.5141">
      <stop offset="0" stop-color="#EF5350"/>
      <stop offset="1" stop-color="#E53935"/>
    </linearGradient>
    <radialGradient id="SVGID_16_" cx="66.191294" cy="87.332846" gradientTransform="matrix(0.3076 0.9515 0.706 -0.2282 0 0)" gradientUnits="userSpaceOnUse" r="35.6328">
      <stop offset="0.6985" stop-color="#454140" stop-opacity="0"/>
      <stop offset="1" stop-color="#454140"/>
    </radialGradient>
    <radialGradient id="SVGID_17_" cx="43.653568" cy="15.72156" gradientTransform="matrix(0.8813 0.4726 0.5603 -1.045 0 0)" gradientUnits="userSpaceOnUse" r="9.3426">
      <stop offset="0.58" stop-color="#454140"/>
      <stop offset="1" stop-color="#454140" stop-opacity="0"/>
    </radialGradient>
    <radialGradient id="SVGID_18_" cx="-69.869641" cy="-12.086268" gradientTransform="matrix(-0.9378 -0.3944 -0.2182 0.5285 0 0)" gradientUnits="userSpaceOnUse" r="28.7211">
      <stop offset="0.6985" stop-color="#454140" stop-opacity="0"/>
      <stop offset="1" stop-color="#454140"/>
    </radialGradient>
    <radialGradient id="SVGID_19_" cx="43.5288" cy="-10.401875" gradientTransform="matrix(1 0 0 -1.2233 0 0)" gradientUnits="userSpaceOnUse" r="8.5755">
      <stop offset="0.7016" stop-color="#454140" stop-opacity="0"/>
      <stop offset="1" stop-color="#454140"/>
    </radialGradient>
    <radialGradient id="SVGID_20_" cx="-48.131948" cy="16.993653" gradientTransform="matrix(-0.9657 -0.2598 -0.2432 0.9037 0 0)" gradientUnits="userSpaceOnUse" r="16.0834">
      <stop offset="0.6605" stop-color="#454140" stop-opacity="0"/>
      <stop offset="1" stop-color="#454140"/>
    </radialGradient>
    <radialGradient id="SVGID_21_" cx="44.088438" cy="-26.852396" gradientTransform="matrix(0.9907 0.1363 0.1915 -1.3921 0 0)" gradientUnits="userSpaceOnUse" r="16.8856">
      <stop offset="0.5981" stop-color="#454140" stop-opacity="0"/>
      <stop offset="1" stop-color="#454140"/>
    </radialGradient>
  </defs>
  <path d="M6.36,10.9 L121.65,10.9 L121.65,88.42 L6.36,88.42 L6.36,10.9 Z" fill="url(#SVGID_1_)"/>
  <path d="M119.29,13.26 L119.29,86.07 L8.71,86.07 L8.71,13.26 L119.29,13.26 M124,8.55 L4,8.55 L4,90.78 L124,90.78 L124,8.55 L124,8.55 Z" fill="url(#SVGID_2_)"/>
  <path id="hair_3_" d="M98.9,79.85 C97.65,77.58 99.24,75.27 101.96,72.41 C106.27,67.87 110.96,57.34 106.6,46.65 C106.63,46.59 105.74,44.79 105.77,44.73 L103.98,44.64 C103.41,44.56 83.72,44.52 64.01,44.52 C44.3,44.52 24.61,44.56 24.04,44.64 C24.04,44.64 21.39,46.59 21.41,46.65 C17.06,57.34 21.74,67.86 26.05,72.41 C28.76,75.27 30.35,77.58 29.11,79.85 C27.9,82.06 24.3,82.38 24.3,82.38 C24.3,82.38 25.13,84.64 27.13,85.86 C28.98,86.99 31.26,87.25 32.83,87.29 C32.83,87.29 38.98,95.8 55.06,95.8 L64.01,95.8 L72.96,95.8 C89.04,95.8 95.19,87.29 95.19,87.29 C96.76,87.25 99.04,86.99 100.89,85.86 C102.89,84.64 103.72,82.38 103.72,82.38 C103.72,82.38 100.11,82.06 98.9,79.85 Z" fill="#312D2D"/>
  <path d="M63.99,95.79 L63.99,86.35 L92.56,84.09 L95.16,87.29 C95.16,87.29 89.01,95.8 72.93,95.8 L63.99,95.79 Z" fill="url(#SVGID_3_)"/>
  <path d="M95.1,83.16 C90.82,76.66 100.31,74.23 100.31,74.23 C100.31,74.23 100.32,74.24 100.32,74.24 C98.67,76.29 97.92,78.08 98.89,79.85 C100.1,82.06 103.7,82.38 103.7,82.38 C103.7,82.38 98.79,86.74 95.1,83.16 Z" fill="url(#SVGID_4_)"/>
  <path d="M106.62,46.65 C110.87,57 106.4,67.66 102.21,72.16 C101.64,72.78 99.2,75.17 98.64,77.08 C98.64,77.08 89.1,63.77 86.25,55.95 C85.68,54.37 85.15,52.75 85.08,51.07 C85.03,49.81 85.22,48.31 85.95,47.24 C86.84,45.93 106.11,45.54 106.11,45.54 C106.11,45.55 106.62,46.65 106.62,46.65 Z" fill="url(#SVGID_5_)"/>
  <path d="M21.4,46.65 C17.16,57 21.63,67.66 25.81,72.15 C26.39,72.77 28.82,75.16 29.38,77.07 C29.38,77.07 38.92,63.76 41.77,55.94 C42.35,54.36 42.87,52.74 42.94,51.06 C42.99,49.8 42.8,48.3 42.07,47.23 C41.18,45.92 40.14,46.27 38.63,46.27 C35.75,46.27 23.14,45.53 22.16,45.53 C22.17,45.55 21.4,46.65 21.4,46.65 Z" fill="url(#SVGID_6_)"/>
  <path d="M64.03,95.79 L64.03,86.35 L35.46,84.09 L32.86,87.29 C32.86,87.29 39.01,95.8 55.09,95.8 L64.03,95.79 Z" fill="url(#SVGID_7_)"/>
  <path d="M32.92,83.16 C37.2,76.66 27.71,74.23 27.71,74.23 C27.71,74.23 27.7,74.24 27.7,74.24 C29.35,76.29 30.1,78.08 29.13,79.85 C27.92,82.06 24.32,82.38 24.32,82.38 C24.32,82.38 29.23,86.74 32.92,83.16 Z" fill="url(#SVGID_8_)"/>
  <path d="M114.5,120.75 C114.5,105.28 89.16,97.19 64.14,97.19 L64,97.19 C38.86,97.22 13.5,104.51 13.5,120.75 L13.5,124 L114.5,124 L114.5,120.75 Z" fill="url(#SVGID_9_)"/>
  <path d="M64,92.33 L54.92,92.33 L54.92,102.31 L63.98,104.69 L73.08,102.31 L73.08,92.33 Z" fill="#EDC391"/>
  <path d="M12,120.75 L12,124 L13.5,124 L15,124 L41.89,124 L43.39,124 L44.89,124 L46.22,96.96 C27.52,99.72 12,107.15 12,120.75 Z" fill="url(#SVGID_10_)"/>
  <path d="M81.78,96.96 L83.1,124 L84.6,124 L86.1,124 L113,124 L114.5,124 L116,124 L116,120.75 C116,107.15 100.48,99.72 81.78,96.96 Z" fill="url(#SVGID_11_)"/>
  <path d="M54.03,92.12 L64.02,104.94 L64.02,104.94 L47.78,111.58 L45.37,97.04 Z" fill="#66C0E8"/>
  <path d="M73.97,92.12 L63.98,104.94 L63.98,104.94 L80.22,111.58 L82.63,97.04 Z" fill="#66C0E8"/>
  <path d="M48.88,95 C48.88,95 47.74,97.72 46.94,101 C45.35,107.52 45.25,116.8 45.25,116.8 C45.25,116.8 38.36,114.46 36.21,108.75 C33.67,102 37.96,98.29 37.96,98.29 C37.96,98.29 38.86,97.91 42.64,95.83 C46.42,93.75 48.88,95 48.88,95 Z" fill="#AF5214"/>
  <path d="M79.12,95 C79.12,95 80.26,97.72 81.06,101 C82.65,107.52 82.75,116.8 82.75,116.8 C82.75,116.8 89.64,114.46 91.79,108.75 C94.33,102 90.04,98.29 90.04,98.29 C90.04,98.29 89.14,97.91 85.36,95.83 C81.58,93.75 79.12,95 79.12,95 Z" fill="#AF5214"/>
  <path d="M91.12,50.43 L83.75,50.43 L43.84,50.43 L36.47,50.43 C30.58,50.43 25.76,55.57 25.76,61.84 C25.76,68.11 30.58,73.25 36.47,73.25 L43.84,73.25 L83.75,73.25 L91.12,73.25 C97.01,73.25 101.83,68.11 101.83,61.84 C101.83,55.57 97.01,50.43 91.12,50.43 Z" fill="#EDC391"/>
  <path d="M63.79,11.07 L63.79,11.07 L63.79,11.07 C46.39,11.07 30.27,29.68 30.27,56.47 C30.27,83.11 46.88,96.28 63.79,96.28 C80.7,96.28 97.31,83.1 97.31,56.46 C97.31,29.68 81.2,11.07 63.79,11.07 Z" fill="#F9DDBD"/>
  <path d="M52.91,58.81 A4.93 5.1 0 1 1 43.05,58.81 A4.93 5.1 0 1 1 52.91,58.81 Z" fill="#312D2D"/>
  <path d="M84.06,58.81 A4.93 5.1 0 1 1 74.2,58.81 A4.93 5.1 0 1 1 84.06,58.81 Z" fill="#312D2D"/>
  <path d="M55.37,49.82 C54.44,48.59 52.3,46.81 48.14,46.81 C43.98,46.81 41.83,48.6 40.91,49.82 C40.5,50.36 40.6,50.99 40.89,51.37 C41.15,51.72 41.93,52.05 42.79,51.76 C43.65,51.47 45.33,50.6 48.14,50.58 C50.95,50.6 52.63,51.47 53.49,51.76 C54.35,52.05 55.13,51.73 55.39,51.37 C55.67,50.99 55.78,50.36 55.37,49.82 Z" fill="#454140"/>
  <path d="M86.36,49.82 C85.43,48.59 83.29,46.81 79.13,46.81 C74.97,46.81 72.82,48.6 71.9,49.82 C71.49,50.36 71.59,50.99 71.88,51.37 C72.14,51.72 72.92,52.05 73.78,51.76 C74.64,51.47 76.32,50.6 79.13,50.58 C81.94,50.6 83.62,51.47 84.48,51.76 C85.34,52.05 86.12,51.73 86.38,51.37 C86.67,50.99 86.77,50.36 86.36,49.82 Z" fill="#454140"/>
  <path id="nose_1_" d="M67.65,68.06 C67.54,68.02 67.44,67.99 67.33,67.98 L60.25,67.98 C60.14,67.99 60.03,68.02 59.93,68.06 C59.29,68.32 58.94,68.98 59.24,69.69 C59.54,70.4 60.95,72.38 63.79,72.38 C66.63,72.38 68.04,70.39 68.34,69.69 C68.65,68.98 68.29,68.32 67.65,68.06 Z" fill="#DBA689"/>
  <path id="mouth_1_" d="M72.32,76.14 C69.14,78.03 58.69,78.03 55.51,76.14 C53.68,75.05 51.81,76.72 52.57,78.38 C53.32,80.01 59.01,83.8 63.94,83.8 C68.87,83.8 74.49,80.01 75.24,78.38 C76,76.72 74.15,75.05 72.32,76.14 Z" fill="#444444"/>
  <path d="M93.83,52.93 C93.76,51.74 93.71,51.62 92.14,51.12 C90.91,50.73 84.19,50.18 79.13,50.46 C78.77,50.48 78.42,50.5 78.09,50.53 C73.5,50.92 67.99,52.77 63.85,52.87 C62.09,52.91 54.84,51.01 49.71,50.61 C49.38,50.59 49.05,50.56 48.71,50.55 C43.64,50.29 36.89,50.88 35.66,51.28 C34.09,51.79 34.04,51.91 33.98,53.1 C33.91,54.29 34.11,55.3 35.04,55.61 C36.31,56.03 36.32,57.61 37.17,62.15 C37.94,66.29 39.79,69.56 47.74,70.13 C48.08,70.15 48.4,70.17 48.72,70.17 C55.75,70.27 58.17,65.64 58.97,64.1 C60.46,61.24 59.99,57.3 63.93,57.29 C67.86,57.28 67.49,61.15 69,64 C69.81,65.53 72.17,70.18 79.14,70.08 C79.48,70.08 79.83,70.06 80.19,70.03 C88.13,69.41 89.97,66.13 90.71,61.99 C91.53,57.44 91.54,55.85 92.8,55.43 C93.71,55.13 93.91,54.12 93.83,52.93 Z M53.28,68.17 C52.06,68.74 50.43,69.03 48.71,69.03 C45.12,69.02 41.14,67.76 39.7,65.22 C37.66,61.6 37.13,54.28 39.73,52.75 C40.87,52.08 44.72,51.62 48.7,51.79 C52.83,51.97 57.1,52.83 58.64,54.85 C61.19,58.18 57.14,66.35 53.28,68.17 Z M88.18,65.07 C86.75,67.63 82.74,68.92 79.13,68.93 C77.43,68.94 75.82,68.66 74.62,68.1 C70.75,66.3 66.65,58.16 69.17,54.81 C70.7,52.77 74.99,51.89 79.13,51.69 C83.1,51.5 86.94,51.94 88.07,52.6 C90.68,54.12 90.2,61.44 88.18,65.07 Z" fill="#212121"/>
  <path d="M94.104,52.912 L94.104,52.914 Q94.26,55.238 92.887,55.691 Q92.008,55.984 91.353,59.88 Q91.126,61.229 90.981,62.038 Q89.635,69.568 80.213,70.304 Q79.601,70.355 79.144,70.355 Q72.101,70.456 68.791,64.193 Q68.767,64.148 68.757,64.129 Q68.314,63.293 67.761,61.507 Q66.536,57.558 63.931,57.565 Q61.342,57.572 60.193,61.533 Q59.659,63.372 59.214,64.227 Q55.93,70.548 48.72,70.445 Q48.409,70.445 47.78,70.408 Q47.745,70.406 47.72,70.404 Q38.3,69.729 36.9,62.201 Q36.745,61.375 36.507,60.007 Q35.837,56.163 34.953,55.871 Q33.569,55.409 33.705,53.086 Q33.78,51.602 35.575,51.019 Q39.34,49.794 48.718,50.275 Q48.953,50.282 49.407,50.314 Q49.621,50.329 49.731,50.336 Q52.6,50.56 58.981,51.808 Q63.093,52.612 63.843,52.595 Q66.035,52.542 71.273,51.427 Q75.918,50.439 78.065,50.256 Q78.416,50.224 79.115,50.185 Q88.47,49.668 92.223,50.858 Q94.016,51.429 94.104,52.912 Z M93.556,52.946 Q93.49,51.839 92.057,51.382 Q88.4,50.222 79.145,50.735 Q78.456,50.773 78.115,50.804 Q75.999,50.984 71.388,51.965 Q66.1,53.091 63.857,53.145 Q63.046,53.163 58.875,52.347 Q52.526,51.105 49.689,50.884 Q49.584,50.878 49.368,50.863 Q48.926,50.831 48.702,50.825 Q39.413,50.349 35.745,51.541 Q34.31,52.007 34.255,53.114 Q34.142,55.021 35.127,55.349 Q36.322,55.744 37.049,59.913 Q37.286,61.277 37.44,62.099 Q38.09,65.593 39.947,67.275 Q42.37,69.469 47.76,69.856 L47.813,69.859 Q48.426,69.895 48.72,69.895 Q55.599,69.993 58.726,63.973 Q59.147,63.166 59.665,61.38 Q60.928,57.023 63.929,57.015 Q66.941,57.007 68.286,61.344 Q68.824,63.081 69.243,63.871 Q69.255,63.895 69.277,63.936 Q72.43,69.901 79.136,69.805 Q79.579,69.805 80.167,69.756 Q89.168,69.053 90.439,61.942 Q90.585,61.135 90.811,59.789 Q91.52,55.567 92.713,55.169 Q93.683,54.849 93.556,52.948 Z M88.42,65.204 Q86.196,69.185 79.131,69.205 Q76.372,69.221 74.504,68.349 Q71.359,66.887 69.248,62.148 Q67.037,57.188 68.95,54.645 Q71.081,51.804 79.117,51.415 Q86.021,51.085 88.209,52.363 Q90.221,53.534 90.136,58.049 Q90.057,62.262 88.42,65.204 Z M53.396,68.419 Q51.5,69.305 48.71,69.305 Q41.689,69.286 39.461,65.356 Q37.807,62.42 37.7,58.208 Q37.586,53.693 39.591,52.513 Q41.791,51.22 48.712,51.515 Q56.709,51.864 58.859,54.683 Q60.794,57.211 58.616,62.187 Q56.534,66.94 53.397,68.419 Z M87.94,64.936 L87.94,64.936 Q89.51,62.114 89.586,58.039 Q89.665,53.847 87.931,52.837 Q85.885,51.642 79.143,51.965 Q71.366,52.34 69.39,54.975 Q67.671,57.26 69.75,61.924 Q71.778,66.475 74.736,67.851 Q76.493,68.671 79.129,68.655 Q85.873,68.636 87.94,64.936 Z M58.112,61.966 Q60.16,57.288 58.421,55.017 Q56.428,52.402 48.688,52.065 Q41.93,51.776 39.869,52.987 Q38.144,54.002 38.25,58.194 Q38.353,62.269 39.939,65.084 Q42.01,68.736 48.71,68.755 Q51.378,68.755 53.163,67.921 L53.164,67.921 Q56.114,66.529 58.112,61.966 Z" fill="#212121"/>
  <path d="M101.67,121.61 L101.67,121.61 L102.24,119.41 L102.25,119.36 L104.18,111.76 L97.28,109.78 L62.36,99.75 C62.31,99.74 62.27,99.74 62.23,99.72 C58.99,98.87 55.65,100.75 54.72,103.99 L48.97,124 L100.99,124 L101.67,121.61 Z" fill="url(#SVGID_12_)" opacity="0.67"/>
  <path d="M105.75,111.88 C106.04,110.87 105.46,109.82 104.45,109.54 L65.76,98.44 C62.48,97.5 59.05,99.4 58.11,102.68 L52,124 L102.28,124 L105.75,111.88 Z" fill="#424242"/>
  <path d="M105.08,120.31 C105.43,119.09 104.7,117.81 103.46,117.46 L61.94,105.56 C57.41,104.26 56.62,107.91 55.35,112.34 L52,124 L104.02,124 L105.08,120.31 Z" fill="url(#SVGID_13_)"/>
  <path d="M63.26,98.24 C60.89,98.55 58.82,100.22 58.12,102.66 L52,124 L55.87,124 L63.26,98.24 Z" fill="url(#SVGID_14_)"/>
  <path d="M64.33,101.57 C64.51,101.57 64.71,101.59 64.92,101.64 L102.17,112.34 L101.86,113.42 C90.07,110.13 67.57,103.8 62.92,102.26 C63.16,101.93 63.63,101.57 64.33,101.57 M64.33,98.24 C59.81,98.24 57.55,103.81 61.21,105.18 C65.24,106.68 104.14,117.5 104.14,117.5 L105.72,111.98 C106.03,110.92 105.53,109.84 104.61,109.58 L65.77,98.42 C65.27,98.3 64.79,98.24 64.33,98.24 L64.33,98.24 Z" fill="#424242" opacity="0.2"/>
  <path d="M103.37,112.12 L63.57,100.7 C62.49,100.39 61.31,101.16 60.95,102.41 L60.89,102.63 C60.53,103.88 61.12,105.16 62.2,105.47 L102,116.89 C102,116.89 101.66,116.06 102.07,114.59 C102.48,113.11 103.37,112.12 103.37,112.12 Z" fill="url(#SVGID_15_)"/>
  <path id="hair" d="M104.07,25.11 C101.63,21.42 96.16,16.47 91.25,16.14 C90.46,11.42 85.41,7.42 80.52,5.87 C67.29,1.68 58.68,6.38 54.06,8.9 C53.1,9.42 46.89,12.87 42.55,10.4 C39.83,8.85 39.88,4.66 39.88,4.66 C39.88,4.66 31.36,7.91 34.27,16.96 C31.34,17.08 27.5,18.32 25.47,22.43 C23.05,27.33 23.91,31.42 24.61,33.38 C22.09,35.52 18.92,40.07 21.09,45.98 C22.73,50.43 29.26,52.48 29.26,52.48 C28.8,60.49 30.29,65.42 31.08,67.41 C31.22,67.76 31.71,67.73 31.8,67.37 C32.79,63.4 36.17,49.57 35.83,47.16 C35.83,47.16 47.18,44.91 58,36.94 C60.2,35.32 62.59,33.94 65.13,32.93 C78.72,27.52 81.56,36.75 81.56,36.75 C81.56,36.75 90.98,34.94 93.82,48.02 C94.89,52.92 95.61,60.77 96.22,66.26 C96.26,66.65 96.79,66.73 96.94,66.37 C97.89,64.19 99.79,59.87 100.24,55.46 C100.4,53.91 104.58,51.86 106.38,45.2 C108.79,36.32 105.84,27.78 104.07,25.11 Z" fill="#312D2D"/>
  <path d="M100.22,55.5 C100.38,53.95 104.56,51.9 106.36,45.24 C106.55,44.53 106.71,43.81 106.86,43.09 C108.32,35 105.7,27.57 104.07,25.11 C101.81,21.7 96.97,17.22 92.38,16.3 C91.98,16.25 91.59,16.2 91.22,16.18 C91.22,16.18 91.55,18.33 90.68,20.04 C89.56,22.26 87.27,22.79 87.27,22.79 C99.24,34.77 98.39,44.79 100.22,55.5 Z" fill="url(#SVGID_16_)"/>
  <path d="M56.95,7.39 C55.85,7.92 54.89,8.45 54.05,8.9 C53.09,9.42 46.88,12.87 42.54,10.4 C39.87,8.88 39.87,4.82 39.87,4.68 C38.64,6.25 34.92,17.46 45.8,18.21 C50.49,18.53 53.38,14.44 55.1,10.98 C55.72,9.72 56.69,7.88 56.95,7.39 Z" fill="url(#SVGID_17_)"/>
  <path d="M79.16,5.47 C86.48,7.45 90.05,11.18 91.24,16.15 C91.59,17.61 92.01,31.23 66.01,15.75 C56.34,9.99 58.98,6.39 60.11,5.98 C64.53,4.38 70.96,3.25 79.16,5.47 Z" fill="url(#SVGID_18_)"/>
  <path d="M39.84,4.68 C39.83,4.69 39.81,4.69 39.78,4.71 C39.78,4.71 39.78,4.71 39.77,4.71 C38.84,5.1 31.53,8.49 34.26,16.96 L42.04,18.21 C35.15,11.23 39.87,4.66 39.87,4.66 C39.87,4.66 39.85,4.67 39.84,4.68 Z" fill="url(#SVGID_19_)"/>
  <path d="M39.07,17.73 L34.26,16.96 C34.07,16.96 33.43,17.02 33.08,17.07 C30.37,17.45 27.18,18.85 25.45,22.43 C23.59,26.29 23.64,29.6 24.15,31.81 C24.3,32.55 24.6,33.39 24.6,33.39 C24.6,33.39 26.98,31.13 32.65,30.98 L39.07,17.73 Z" fill="url(#SVGID_20_)"/>
  <path d="M24.37,33.58 C22,35.68 18.81,40.37 21.16,46.19 C22.93,50.58 29.25,52.48 29.25,52.48 C29.25,52.5 30.51,52.88 31.16,52.88 L32.64,30.98 C29.61,30.98 26.7,31.89 24.82,33.2 C24.85,33.23 24.36,33.55 24.37,33.58 Z" fill="url(#SVGID_21_)"/>
</svg>