<svg viewBox="0 0 128 128" xmlns="http://www.w3.org/2000/svg">
  <defs>
    <linearGradient id="shadow_x5F_body_2_" gradientTransform="matrix(1 0 0 -1 0 0)" gradientUnits="userSpaceOnUse" x1="78.1582" x2="78.1582" y1="-145.5629" y2="-73.7348">
      <stop offset="0" stop-color="#212121" stop-opacity="0.8"/>
      <stop offset="1" stop-color="#212121" stop-opacity="0"/>
    </linearGradient>
    <linearGradient id="SVGID_10_" gradientTransform="matrix(1 0 0 -1 0 0)" gradientUnits="userSpaceOnUse" x1="91.6947" x2="101.028" y1="-98.8874" y2="-121.7207">
      <stop offset="0" stop-color="#F78C1F"/>
      <stop offset="1" stop-color="#ED6D23"/>
    </linearGradient>
    <linearGradient id="SVGID_7_" gradientTransform="matrix(1 0 0 -1 0 0)" gradientUnits="userSpaceOnUse" x1="62.2498" x2="62.2498" y1="-77.7069" y2="-119.2892">
      <stop offset="0" stop-color="#F78C1F"/>
      <stop offset="1" stop-color="#ED6D23"/>
    </linearGradient>
    <linearGradient id="SVGID_8_" gradientTransform="matrix(1 0 0 -1 0 0)" gradientUnits="userSpaceOnUse" x1="82.942" x2="57.0318" y1="-77.2198" y2="-89.5907">
      <stop offset="0" stop-color="#81D4FA"/>
      <stop offset="1" stop-color="#0288D1"/>
    </linearGradient>
    <linearGradient id="SVGID_9_" gradientTransform="matrix(1 0 0 -1 0 0)" gradientUnits="userSpaceOnUse" x1="57.8753" x2="57.8753" y1="-122.1398" y2="-80.2793">
      <stop offset="0.1003" stop-color="#212121" stop-opacity="0.4"/>
      <stop offset="1" stop-color="#252525" stop-opacity="0"/>
    </linearGradient>
    <linearGradient id="hand_1_" gradientTransform="matrix(1 0 0 -1 0 0)" gradientUnits="userSpaceOnUse" x1="62.512" x2="90.095" y1="-117.2392" y2="-117.2392">
      <stop offset="0" stop-color="#FFB300"/>
      <stop offset="0.5" stop-color="#FFCA28"/>
    </linearGradient>
    <linearGradient id="hand_x5F_fill_2_" gradientTransform="matrix(0.9898 0.1426 0.1426 -0.9898 0 0)" gradientUnits="userSpaceOnUse" x1="102.526301" x2="89.328801" y1="-81.378501" y2="-65.217701">
      <stop offset="0" stop-color="#FFB300"/>
      <stop offset="0.5" stop-color="#FFCA28"/>
    </linearGradient>
    <radialGradient id="SVGID_1_" cx="63.338303" cy="131.059186" gradientTransform="matrix(0.9869 -0.1613 0.0792 0.4848 0 0)" gradientUnits="userSpaceOnUse" r="15.1203">
      <stop offset="0.7275" stop-color="#6D4C41" stop-opacity="0"/>
      <stop offset="1" stop-color="#6D4C41"/>
    </radialGradient>
    <radialGradient id="SVGID_2_" cx="-44.516099" cy="-120.562405" gradientTransform="matrix(-0.8255 0.5644 -0.4187 -0.6124 0 0)" gradientUnits="userSpaceOnUse" r="4.4684">
      <stop offset="0.6628" stop-color="#6D4C41"/>
      <stop offset="1" stop-color="#6D4C41" stop-opacity="0"/>
    </radialGradient>
    <radialGradient id="SVGID_3_" cx="-54.328277" cy="75.306425" gradientTransform="matrix(-0.2345 -0.9721 0.8102 -0.1954 0 0)" gradientUnits="userSpaceOnUse" r="19.6271">
      <stop offset="0.7247" stop-color="#6D4C41" stop-opacity="0"/>
      <stop offset="1" stop-color="#6D4C41"/>
    </radialGradient>
    <radialGradient id="SVGID_4_" cx="-46.279953" cy="-53.731764" gradientTransform="matrix(-0.0872 -0.9962 -0.8303 0.0727 0 0)" gradientUnits="userSpaceOnUse" r="19.6271">
      <stop offset="0.7247" stop-color="#6D4C41" stop-opacity="0"/>
      <stop offset="1" stop-color="#6D4C41"/>
    </radialGradient>
    <radialGradient id="SVGID_5_" cx="-44.522613" cy="131.064258" gradientTransform="matrix(-0.9869 0.1613 0.0792 0.4848 0 0)" gradientUnits="userSpaceOnUse" r="15.1203">
      <stop offset="0.7275" stop-color="#6D4C41" stop-opacity="0"/>
      <stop offset="1" stop-color="#6D4C41"/>
    </radialGradient>
    <radialGradient id="SVGID_6_" cx="53.167027" cy="-58.937093" gradientTransform="matrix(0.9622 0.2722 0.2019 -0.7138 0 0)" gradientUnits="userSpaceOnUse" r="4.4684">
      <stop offset="0.6628" stop-color="#6D4C41"/>
      <stop offset="1" stop-color="#6D4C41" stop-opacity="0"/>
    </radialGradient>
    <radialGradient id="SVGID_11_" cx="57.405617" cy="67.843263" gradientTransform="matrix(0.457 0.8894 0.6599 -0.3391 0 0)" gradientUnits="userSpaceOnUse" r="23.0061">
      <stop offset="0.6985" stop-color="#6D4C41" stop-opacity="0"/>
      <stop offset="1" stop-color="#6D4C41"/>
    </radialGradient>
    <radialGradient id="SVGID_12_" cx="44.646363" cy="6.741341" gradientTransform="matrix(0.946 0.3243 0.3845 -1.1216 0 0)" gradientUnits="userSpaceOnUse" r="6.032">
      <stop offset="0.58" stop-color="#6D4C41"/>
      <stop offset="1" stop-color="#6D4C41" stop-opacity="0"/>
    </radialGradient>
    <radialGradient id="SVGID_13_" cx="-60.798652" cy="1.947242" gradientTransform="matrix(-0.9892 -0.238 -0.1301 0.5567 0 0)" gradientUnits="userSpaceOnUse" r="18.5436">
      <stop offset="0.6985" stop-color="#6D4C41" stop-opacity="0"/>
      <stop offset="1" stop-color="#6D4C41"/>
    </radialGradient>
    <radialGradient id="SVGID_14_" cx="40.701548" cy="-15.986536" gradientTransform="matrix(0.9869 -0.1613 -0.1973 -1.2073 0 0)" gradientUnits="userSpaceOnUse" r="5.5367">
      <stop offset="0.7016" stop-color="#6D4C41" stop-opacity="0"/>
      <stop offset="1" stop-color="#6D4C41"/>
    </radialGradient>
    <radialGradient id="SVGID_15_" cx="-46.190033" cy="19.173757" gradientTransform="matrix(-0.9949 -0.1007 -0.0942 0.9311 0 0)" gradientUnits="userSpaceOnUse" r="10.3842">
      <stop offset="0.6605" stop-color="#6D4C41" stop-opacity="0"/>
      <stop offset="1" stop-color="#6D4C41"/>
    </radialGradient>
    <radialGradient id="SVGID_16_" cx="42.490989" cy="-24.110751" gradientTransform="matrix(0.9997 -0.0253 -0.0355 -1.4048 0 0)" gradientUnits="userSpaceOnUse" r="10.9021">
      <stop offset="0.5981" stop-color="#6D4C41" stop-opacity="0"/>
      <stop offset="1" stop-color="#6D4C41"/>
    </radialGradient>
  </defs>
  <path id="hair_4_" d="M85.59,49.74 C84.56,48.42 85.33,46.78 86.76,44.68 C89.03,41.34 90.92,34.14 87.04,27.78 C87.05,27.74 86.3,26.68 86.31,26.64 L85.16,26.77 C84.78,26.78 72.23,28.8 59.68,30.85 C47.13,32.9 34.58,34.98 34.22,35.09 C34.22,35.09 32.73,36.61 32.75,36.64 C31.09,43.91 35.17,50.12 38.39,52.57 C40.42,54.11 41.67,55.42 41.11,56.99 C40.57,58.52 38.31,59.1 38.31,59.1 C38.31,59.1 39.07,60.45 40.48,61.02 C41.78,61.54 43.26,61.48 44.26,61.34 C44.26,61.34 49.07,66.12 59.31,64.45 L65.01,63.52 L70.71,62.59 C80.95,60.92 83.99,54.85 83.99,54.85 C84.99,54.66 86.41,54.26 87.48,53.35 C88.63,52.37 88.92,50.84 88.92,50.84 C88.92,50.84 86.59,51.02 85.59,49.74 Z" fill="#543930"/>
  <path d="M65.01,63.54 L64.03,57.52 L82,53.1 L83.99,54.87 C83.99,54.87 80.96,60.93 70.71,62.61 L65.01,63.54 Z" fill="url(#SVGID_1_)"/>
  <path d="M83.52,52.25 C80.11,48.55 85.91,46.02 85.91,46.02 C85.91,46.02 85.91,46.02 85.92,46.02 C85.08,47.5 84.79,48.72 85.59,49.74 C86.59,51.02 88.92,50.85 88.92,50.85 C88.92,50.85 86.24,54.14 83.52,52.25 Z" fill="url(#SVGID_2_)"/>
  <path d="M87.06,27.78 C90.84,33.94 89.1,41.19 86.91,44.49 C86.61,44.94 85.3,46.72 85.15,48 C85.15,48 77.68,40.51 75.05,35.83 C74.52,34.88 74.02,33.9 73.8,32.84 C73.64,32.04 73.61,31.07 73.95,30.31 C74.38,29.38 86.62,27.13 86.62,27.13 C86.62,27.14 87.06,27.78 87.06,27.78 Z" fill="url(#SVGID_3_)"/>
  <path d="M32.76,36.65 C31.13,43.69 35.09,50.02 38.23,52.44 C38.66,52.77 40.46,54.04 41.01,55.2 C41.01,55.2 45.7,45.73 46.71,40.45 C46.91,39.38 47.08,38.29 46.95,37.22 C46.85,36.41 46.57,35.48 46,34.87 C45.3,34.13 44.67,34.46 43.71,34.61 C41.87,34.91 33.77,35.75 33.14,35.86 C33.13,35.88 32.76,36.65 32.76,36.65 Z" fill="url(#SVGID_4_)"/>
  <path d="M65.04,63.53 L64.06,57.51 L45.62,59.04 L44.3,61.35 C44.3,61.35 49.11,66.13 59.35,64.46 L65.04,63.53 Z" fill="url(#SVGID_5_)"/>
  <path d="M43.9,58.72 C45.95,54.13 39.65,53.58 39.65,53.58 C39.65,53.58 39.65,53.58 39.64,53.59 C40.91,54.72 41.57,55.79 41.14,57.01 C40.6,58.54 38.34,59.12 38.34,59.12 C38.34,59.12 41.92,61.39 43.9,58.72 Z" fill="url(#SVGID_6_)"/>
  <path d="M101.26,123.96 C96.93,123.96 60.8,124 55.97,124 C51.14,124 47.86,123.61 46.35,123.33 C39.27,122.04 31.59,120.8 25.73,116.75 C21.25,113.66 16.6,107.92 21.24,97.77 C27.71,82.85 33.38,68.13 46.64,66.25 C51.08,65.62 57.61,65.69 64.94,65.69 C72.27,65.69 77.1,66.9 80.16,67.57 C102.01,72.36 102.93,89.55 104.93,108.25 C104.93,108.25 106.64,123.96 101.26,123.96 Z" fill="url(#SVGID_7_)"/>
  <path d="M64.74,59.63 L57.57,59.63 L57.57,67.51 C57.57,71.07 60.49,73.96 64.09,73.96 L65.39,73.96 C68.99,73.96 71.91,71.07 71.91,67.51 L71.91,59.63 C71.91,59.63 64.74,59.63 64.74,59.63 Z" fill="#E59600"/>
  <path id="shadow_x5F_body_1_" d="M101.73,109.32 C95.6,98.35 93.87,96.76 93.01,94.84 C91.58,91.63 90.15,90.36 89.08,89.9 C88.96,88.68 88.66,87.21 88.25,85.42 C88.88,84.99 89.37,84.39 89.66,83.67 C90.03,82.73 90.01,81.7 89.61,80.77 L86.49,73.62 C86.09,72.69 53.97,86.42 53.97,86.42 C52.92,88.17 52.52,89.71 53.84,92.59 C54.61,94.27 56.37,95.63 56.74,95.47 L59.75,94.33 L59.75,94.33 C60.17,94.95 60.77,95.43 61.49,95.71 C61.77,95.82 62.9,96.12 64.39,95.66 L72.22,92.33 C72.22,92.33 72.22,92.33 72.22,92.33 C73.3,93.92 74.92,94.1 75.98,94.01 C75.98,94.01 76.82,96.54 79.06,97.66 C78.01,99.31 79.77,102.38 80.76,104.34 C82.29,107.36 78.89,118.62 80.09,123.99 L101.28,124.09 C102.94,120.72 104.67,114.57 101.73,109.32 Z" fill="url(#shadow_x5F_body_2_)"/>
  <path d="M92.84,77.56 L89.72,70.41 C89.32,69.48 88.57,68.77 87.63,68.4 C86.69,68.03 85.66,68.05 84.73,68.45 L61.46,78.35 C59.55,79.18 58.67,81.42 59.5,83.33 L62.62,90.48 C63.02,91.41 63.77,92.12 64.71,92.49 C64.99,92.6 65.27,92.67 65.56,92.72 C66.25,92.82 66.95,92.72 67.61,92.44 L90.88,82.54 L90.88,82.54 C91.81,82.14 92.52,81.39 92.89,80.45 C93.27,79.51 93.25,78.49 92.84,77.56 Z" fill="url(#SVGID_8_)"/>
  <path d="M60.72,78.79 C59.42,79.4 58.79,81.51 59.41,82.92 L62.98,91.12 C63.6,92.53 66.18,93.15 67.59,92.53 L90.88,82.54 L60.72,78.79 Z" fill="#FFFDE7"/>
  <path d="M57.72,85.15 C58.2,85.02 58.83,85.08 59.12,85.47 C59.45,85.92 59.68,86.63 59.92,87.15 C60.33,88.05 60.6,88.99 60.58,89.98 C60.58,90.09 60.57,90.22 60.48,90.3 C60.42,90.36 60.33,90.38 60.24,90.4 C59.7,90.51 59.14,90.55 58.59,90.53 C57.49,90.49 56.91,89.52 56.57,88.57 C56.36,87.97 56.26,87.33 56.38,86.71 C56.51,86.09 56.89,85.51 57.45,85.23 C57.54,85.21 57.62,85.18 57.72,85.15 Z" fill="#C53929"/>
  <path d="M62.98,91.12 L61.88,91.6 C61.14,91.92 60.22,91.74 59.68,91.14 C59.16,90.56 59.2,89.77 59.09,89.02 C58.95,88.04 58.6,87.15 57.95,86.53 C57.76,86.35 57.53,86.2 57.35,86.01 C56.54,85.14 57.23,83.57 58.19,83.15 C58.19,83.15 59.29,82.67 59.29,82.67 C60.34,82.21 62.26,83.1 63.4,85.87 C64.54,88.62 64.03,90.66 62.98,91.12 Z" fill="#E06055"/>
  <path d="M55.01,93.21 C54.4,98.37 50.13,102.77 45.2,104.1 C39.98,105.52 33.41,102.51 30.18,97.99 C24.15,89.57 30.59,82.56 31.97,80.99 C35.41,77.09 40.49,77.16 44.51,77.41 C52.75,77.92 55.85,86.18 55.01,93.21 Z" fill="#C5E1A5"/>
  <path d="M43.17,75.79 C41.09,75.81 37.91,76 35.66,77.32 C34.65,77.92 34.33,78.96 34.33,78.96 C37.03,77.93 39.76,77.74 43.14,78.98 C49.49,81.31 50.56,86.69 50.02,93.45 C49.63,98.34 46.39,102.3 42.45,103.56 C40.61,104.15 40.77,105.04 43.17,105.21 C51.82,105.81 57.88,98.62 57.88,90.5 C57.88,82.38 52.46,75.7 43.17,75.79 Z" fill="#FEF6E0"/>
  <path d="M58.52,96.25 C70.9,97.44 74.48,104.37 74.48,104.37 C86.89,107.12 90.14,115.37 89.15,119.11 C89.15,119.11 83.47,122.45 79.93,122.52 C74.82,122.63 69.69,122.68 64.6,122.45 C64.6,122.45 65.38,116.79 63.52,115.15 C62.39,114.16 60.44,115.16 58.56,114.05 C55.41,112.19 50.6,109.34 46.56,107.15 C42.54,104.97 39.01,103.98 39.01,103.98 C42.6,99.8 49.03,95.34 58.52,96.25 Z" fill="#BDBDBD"/>
  <path d="M28.66,86 C28.66,86 29.6,92.67 35.89,93.94 C44.51,95.68 50.21,91.55 50.21,91.55 C50.21,91.55 50.81,92.6 52.43,92.21 C53.73,91.9 56.44,91.2 57.03,90.21 C57.82,88.9 57.68,87.76 57.68,87.76 C57.64,88.22 57.8,88.77 57.82,89.24 C57.88,90.49 57.83,91.76 57.64,93 C57.45,94.26 56.81,96.12 56.81,96.12 C55,96.62 53.25,98.83 54.33,101.83 C56.73,108.44 63.19,112.33 69.69,111.94 C72.49,111.77 75.23,111.13 77.97,110.56 C78.45,110.46 79.11,110.25 79.39,110.64 C80.51,112.2 77.9,114.81 77.17,115.6 C82.61,118.49 88.6,115.73 88.86,115.77 C89.12,115.81 85.82,119.45 79.74,119.45 C76.86,119.45 74.13,118.34 71.37,117.62 C68.67,116.91 65.39,117.71 63.76,115.43 C62.77,114.05 60.4,115.12 58.68,114.14 C55.3,112.2 47.35,107.29 43.55,105.7 C40.31,104.35 39.62,104.16 38.36,103.81 C34.27,102.67 30.53,105.53 27.41,101.32 C25.66,98.96 28.47,94.95 28.47,94.95 C26.57,90.38 28.66,86 28.66,86 Z" fill="url(#SVGID_9_)"/>
  <path d="M83.37,93.62 C80.45,94.75 82.79,98.76 83.99,101.13 C85.75,104.59 87.03,114.54 89.36,118.51 C92.54,123.93 100.96,125.46 104.61,122.85 C107.63,120.69 108.66,112.69 104.98,106.1 C98.85,95.13 97.12,93.54 96.26,91.62 C93.42,85.24 90.57,86.54 90.57,86.54 L83.37,93.62 Z" fill="url(#SVGID_10_)"/>
  <path id="hand_3_" d="M90.1,116.71 C90.1,116.07 89.87,115.37 88.31,115.99 C84.36,117.56 81.24,118.69 76.79,116.93 C77.26,117.34 82.74,112.72 79.54,110.42 C78.17,109.93 75.27,113.11 72.4,113.32 C69.52,113.21 66.01,113.15 63.52,115.7 L62.52,123.99 C65.08,123.99 77.25,124.36 82.02,123.7 L82.02,123.7 C84.83,122.97 89.48,120.72 90.1,116.71 Z" fill="url(#hand_1_)"/>
  <path id="hand_x5F_fill_1_" d="M78.99,69.97 C78.1,69.84 76.45,69.89 76.13,70.72 C75.49,72.35 77.25,73.27 78.43,73.57 C80.27,74.04 82.28,74.44 82.28,74.44 L84,77.37 C84,77.37 80.23,76.28 78.5,76.24 C76.3,76.19 73.59,77.35 71.95,78.03 C69.92,78.86 71.39,81.16 73.55,81.12 C75.38,81.08 77.49,80.27 77.49,80.27 L80.04,81.27 C78.96,81.34 76.03,81.55 75.42,83.3 C74.75,85.23 76,86.84 76,86.84 C76,86.84 75.22,87.87 76,89.53 C76.63,90.86 78.52,91.93 80.33,91.96 C81.26,94.84 83.72,95.37 85.12,95.35 C88.09,95.32 90.53,93.49 91.59,91.35 C92.85,88.79 93.16,85.38 90.89,80.25 C89.56,77.25 87.26,72.54 85.26,71.59 C82.79,70.42 82.49,70.5 78.99,69.97 Z" fill="url(#hand_x5F_fill_2_)"/>
  <path id="tone_2_" d="M78.88,91.72 C79.35,91.86 79.84,91.95 80.33,91.96 C80.71,93.15 81.36,93.92 82.09,94.44 C81.81,94.13 81.31,93.22 81.26,93.02 C80.98,91.75 81.23,91.21 81.64,90.44 C82.05,89.67 82.03,89.12 81.72,88.88 C81.35,88.59 79.68,89.14 79.29,89.17 C79.29,89.17 80.39,90.23 79.92,91.03 C79.68,91.41 79.26,91.62 78.88,91.72 Z" fill="#EDA600"/>
  <path id="tone_1_" d="M76,86.84 C76,86.84 77.76,84.89 82.1,85.17 C82.1,85.17 80.78,84.27 78.88,84.52 C76.65,84.82 76,86.84 76,86.84 Z" fill="#EDA600"/>
  <path id="tone" d="M80.04,81.26 L82.66,81.23 C82.66,81.23 80.95,80.63 79.97,80.45 C78.99,80.28 77.49,80.26 77.49,80.26 L80.04,81.26 Z" fill="#EDA600"/>
  <path d="M77.36,32.28 L72.77,33 L47.94,36.92 L43.36,37.64 C39.69,38.22 37.2,41.89 37.82,45.79 C38.44,49.69 41.94,52.42 45.61,51.84 L50.19,51.12 L75.02,47.2 L79.6,46.48 C83.27,45.9 85.76,42.23 85.14,38.33 C84.52,34.43 81.03,31.7 77.36,32.28 Z" fill="#E59600"/>
  <path id="head_1_" d="M82,34.02 C79.16,20 68.79,13.47 60.69,12.34 C59.55,12.18 58.47,12.13 57.45,12.17 C56.73,12.2 56.05,12.28 55.42,12.41 C53.88,12.72 52.22,13.39 50.56,14.39 C43.54,18.59 36.52,28.66 39.37,42.7 C42.54,58.37 52.47,64.92 62.48,64.48 C63.62,64.43 64.76,64.29 65.91,64.06 C76.97,61.79 85.55,51.48 82,34.02 Z" fill="#FFCA28"/>
  <path d="M54.32,35.15 C53.59,34.45 52.02,33.51 49.32,33.93 C46.62,34.35 45.41,35.73 44.94,36.62 C44.73,37.01 44.86,37.41 45.08,37.63 C45.29,37.83 45.82,37.96 46.35,37.69 C46.88,37.42 47.88,36.68 49.7,36.38 C51.53,36.11 52.71,36.5 53.29,36.6 C53.87,36.7 54.35,36.41 54.48,36.16 C54.63,35.88 54.64,35.47 54.32,35.15 Z" fill="#6D4C41"/>
  <path d="M75.4,31.84 C74.67,31.14 73.1,30.2 70.4,30.62 C67.7,31.04 66.49,32.42 66.02,33.31 C65.81,33.7 65.94,34.1 66.16,34.32 C66.37,34.52 66.91,34.65 67.43,34.38 C67.95,34.11 68.96,33.37 70.78,33.07 C72.61,32.8 73.79,33.19 74.37,33.29 C74.96,33.39 75.43,33.1 75.56,32.85 C75.72,32.57 75.72,32.15 75.4,31.84 Z" fill="#6D4C41"/>
  <path id="mouth_1_" d="M68.25,50.46 C66.4,52 59.7,53.05 57.47,52.16 C56.19,51.65 55.16,52.9 55.81,53.89 C56.45,54.86 60.49,56.72 63.64,56.22 C66.8,55.72 70.02,52.73 70.33,51.6 C70.66,50.46 69.31,49.58 68.25,50.46 Z" fill="#795548"/>
  <path id="nose_1_" d="M64.3,44.38 C64.23,44.36 64.16,44.36 64.09,44.36 L59.56,45.07 C59.49,45.09 59.43,45.12 59.36,45.15 C58.98,45.38 58.82,45.84 59.08,46.27 C59.34,46.7 60.45,47.82 62.27,47.54 C64.09,47.25 64.79,45.84 64.91,45.35 C65.03,44.87 64.73,44.48 64.3,44.38 Z" fill="#E59600"/>
  <path d="M50.62,42.71 C49.29,42.92 48.04,42.78 47.13,42.4 C46.74,42.23 46.55,42.4 46.68,42.8 C47.18,44.37 49.01,45.36 50.99,45.05 C52.97,44.74 54.41,43.24 54.4,41.59 C54.4,41.17 54.17,41.06 53.85,41.34 C53.1,41.99 51.95,42.5 50.62,42.71 Z" fill="#404040"/>
  <path d="M71.78,39.38 C70.45,39.59 69.2,39.45 68.29,39.07 C67.9,38.9 67.71,39.07 67.84,39.47 C68.34,41.04 70.17,42.03 72.15,41.72 C74.13,41.41 75.57,39.91 75.56,38.26 C75.56,37.84 75.33,37.73 75.01,38.01 C74.25,38.66 73.11,39.17 71.78,39.38 Z" fill="#404040"/>
  <path id="hair_1_" d="M83.19,14.32 C81.25,12.22 77.25,9.64 74.09,9.94 C73.1,7.02 69.46,5 66.18,4.52 C57.31,3.23 52.32,7.12 49.63,9.21 C49.07,9.65 45.48,12.48 42.45,11.36 C40.55,10.66 40.15,7.98 40.15,7.98 C40.15,7.98 35.06,10.94 37.86,16.4 C36.01,16.78 33.69,17.97 32.82,20.8 C31.79,24.17 32.76,26.69 33.41,27.87 C32.03,29.49 30.48,32.73 32.48,36.27 C33.99,38.94 38.36,39.56 38.36,39.56 C38.9,44.71 40.37,47.7 41.08,48.89 C41.2,49.1 41.52,49.03 41.54,48.79 C41.76,46.16 42.47,37 42,35.49 C42,35.49 48.99,32.87 55.06,26.67 C56.3,25.41 57.67,24.28 59.18,23.37 C67.27,18.51 70.05,24.09 70.05,24.09 C70.05,24.09 75.86,21.96 79.04,30 C80.23,33.01 81.51,37.94 82.47,41.37 C82.54,41.61 82.88,41.61 82.94,41.36 C83.32,39.87 84.08,36.92 83.91,34.06 C83.85,33.05 86.3,31.31 86.75,26.88 C87.37,20.97 84.59,15.84 83.19,14.32 Z" fill="#543930"/>
  <path d="M83.9,34.09 C83.84,33.08 86.29,31.34 86.74,26.91 C86.79,26.44 86.82,25.96 86.84,25.49 C86.93,20.18 84.48,15.72 83.19,14.33 C81.4,12.39 77.84,10.04 74.82,9.93 C74.56,9.94 74.31,9.95 74.07,9.97 C74.07,9.97 74.5,11.3 74.13,12.49 C73.65,14.02 72.24,14.6 72.24,14.6 C81.12,20.98 81.61,27.45 83.9,34.09 Z" fill="url(#SVGID_11_)"/>
  <path d="M51.32,7.94 C50.68,8.39 50.12,8.83 49.63,9.2 C49.07,9.64 45.48,12.47 42.45,11.35 C40.59,10.66 40.17,8.07 40.15,7.98 C39.53,9.11 38.32,16.64 45.34,15.98 C48.36,15.7 49.78,12.79 50.51,10.4 C50.78,9.55 51.21,8.28 51.32,7.94 Z" fill="url(#SVGID_12_)"/>
  <path d="M65.27,4.4 C70.14,4.9 72.8,6.9 74.08,9.95 C74.46,10.84 76.14,19.48 57.96,12.32 C51.2,9.66 52.51,7.09 53.18,6.71 C55.84,5.23 59.81,3.84 65.27,4.4 Z" fill="url(#SVGID_13_)"/>
  <path d="M40.14,7.99 C40.13,8 40.12,8.01 40.1,8.02 C40.1,8.02 40.1,8.02 40.1,8.02 C39.55,8.37 35.24,11.29 37.86,16.4 L42.95,16.39 C37.84,12.66 40.15,7.98 40.15,7.98 C40.15,7.98 40.14,7.99 40.14,7.99 Z" fill="url(#SVGID_14_)"/>
  <path d="M41.01,16.39 L37.87,16.4 C37.75,16.42 37.35,16.52 37.13,16.59 C35.44,17.11 33.56,18.34 32.83,20.8 C32.05,23.45 32.43,25.56 32.98,26.91 C33.15,27.37 33.43,27.87 33.43,27.87 C33.43,27.87 34.71,26.18 38.31,25.5 L41.01,16.39 Z" fill="url(#SVGID_15_)"/>
  <path d="M33.29,28.02 C32,29.61 30.45,32.93 32.56,36.39 C34.15,39 38.37,39.56 38.37,39.56 C38.37,39.57 39.22,39.68 39.63,39.61 L38.29,25.5 C36.36,25.82 34.6,26.7 33.54,27.73 C33.55,27.75 33.28,28 33.29,28.02 Z" fill="url(#SVGID_16_)"/>
</svg>