<svg viewBox="0 0 128 128" xmlns="http://www.w3.org/2000/svg">
  <defs>
    <radialGradient id="face_1_" cx="63.6" cy="-62.8999" gradientTransform="matrix(1 0 0 -1 0 0)" gradientUnits="userSpaceOnUse" r="56.9597">
      <stop offset="0.5" stop-color="#FDE030"/>
      <stop offset="0.9188" stop-color="#F7C02B"/>
      <stop offset="1" stop-color="#F4A223"/>
    </radialGradient>
    <linearGradient id="SVGID_1_" gradientUnits="userSpaceOnUse" x1="59.5692" x2="58.3885" y1="24.5702" y2="14.9541">
      <stop offset="0.0652" stop-color="#B3B3B3"/>
      <stop offset="0.2661" stop-color="#BDBDBD" stop-opacity="0.7505"/>
      <stop offset="0.6106" stop-color="#D9D9D9" stop-opacity="0.3227"/>
      <stop offset="0.8705" stop-color="#F2F2F2" stop-opacity="0"/>
    </linearGradient>
  </defs>
  <path id="face_129_" d="M63.6,118.8 C35.7,118.8 5.6,101.3 5.6,62.9 C5.6,24.5 35.7,7 63.6,7 C79.1,7 93.4,12.1 104,21.4 C115.5,31.6 121.6,46 121.6,62.9 C121.6,79.8 115.5,94.1 104,104.3 C93.4,113.6 79,118.8 63.6,118.8 Z" fill="url(#face_1_)"/>
  <path d="M111.49,29.67 C116.82,38.27 119.6,48.51 119.6,59.9 C119.6,76.8 113.5,91.1 102,101.3 C91.4,110.6 77,115.8 61.6,115.8 C43.54,115.8 24.56,108.45 13.42,92.86 C24.18,110.52 44.41,118.8 63.6,118.8 C79,118.8 93.4,113.6 104,104.3 C115.5,94.1 121.6,79.8 121.6,62.9 C121.6,50.16 118.13,38.84 111.49,29.67 Z" fill="#EB8F00"/>
  <path id="mouth_112_" d="M86.11,100.49 C85.79,100.43 85.49,100.28 85.24,100.06 C80.98,96.38 75.65,93.76 69.73,92.43 C63.82,91.1 57.88,91.17 52.45,92.67 C52.13,92.76 51.79,92.76 51.48,92.68 L51.48,92.68 C50.79,92.5 50.25,91.93 50.12,91.22 C49.99,90.53 50.28,89.84 50.87,89.43 C56.79,85.35 64.15,83.96 71.27,85.57 C78.39,87.17 84.45,91.58 88.04,97.81 C88.4,98.43 88.37,99.18 87.95,99.75 C87.54,100.34 86.81,100.62 86.11,100.49 Z" fill="#422B0D"/>
  <path d="M44.04,54.94 L44.04,54.94 C39.85,54.94 36.04,58.48 36.04,64.36 C36.04,70.23 39.85,73.78 44.04,73.78 L44.04,73.78 C48.23,73.78 52.04,70.24 52.04,64.36 C52.04,58.48 48.24,54.94 44.04,54.94 Z" fill="#422B0D"/>
  <path d="M43.65,58.87 L43.65,58.87 C42.62,58.15 41.07,58.38 40.07,59.82 C39.07,61.27 39.4,62.79 40.43,63.51 L40.43,63.51 C41.46,64.23 43.01,64 44.01,62.56 C45.01,61.12 44.69,59.59 43.65,58.87 Z" fill="#896024"/>
  <path d="M82.4,54.94 L82.4,54.94 C78.21,54.94 74.4,58.48 74.4,64.36 C74.4,70.23 78.21,73.78 82.4,73.78 L82.4,73.78 C86.59,73.78 90.4,70.24 90.4,64.36 C90.4,58.48 86.59,54.94 82.4,54.94 Z" fill="#422B0D"/>
  <path d="M82.01,58.87 L82.01,58.87 C80.98,58.15 79.43,58.38 78.43,59.82 C77.43,61.27 77.76,62.79 78.79,63.51 L78.79,63.51 C79.82,64.23 81.37,64 82.37,62.56 C83.38,61.11 83.04,59.59 82.01,58.87 Z" fill="#896024"/>
  <path d="M104,21.4 C98.5,16.57 91.99,12.89 84.84,10.45 L82.95,11.49 L58.97,22.92 L18.46,28.43 L16.36,28.66 C9.74,37.32 5.6,48.67 5.6,62.9 C5.6,68.32 6.22,73.31 7.33,77.9 L66.96,44.87 L117.22,39.9 C114.26,32.81 109.82,26.57 104,21.4 Z" fill="#F5F5F5"/>
  <path d="M7.69,79.4 L7.13,77.22 C7.13,77.22 38.96,52.36 70.89,42.76 L76.49,43.61 C44.37,53.8 8.02,79.16 7.69,79.4 Z" fill="#808080"/>
  <path d="M84.84,10.45 C88.36,11.5 91.78,12.91 95.06,14.6 C98.34,16.29 101.5,18.27 104.35,20.72 C107.15,23.19 109.65,26.01 111.81,29.06 C112.89,30.59 113.89,32.17 114.81,33.8 C115.73,35.44 116.57,37.08 117.32,38.88 L117.94,40.39 L116.26,40.56 C107.13,41.51 97.99,42.43 88.85,43.26 C84.28,43.7 79.71,44.1 75.14,44.49 C70.57,44.88 65.99,45.3 61.42,45.64 C52.29,46.33 43.16,47.13 34.03,48.01 L20.34,49.39 C15.78,49.87 11.22,50.41 6.66,50.95 C11.14,49.94 15.67,49.13 20.19,48.32 C24.71,47.51 29.25,46.79 33.8,46.13 C42.9,44.81 52.03,43.74 61.18,42.87 L74.88,41.55 C79.45,41.12 84.01,40.69 88.59,40.31 C97.73,39.49 106.87,38.77 116.02,38.06 L114.96,39.74 C113.73,36.48 112.02,33.21 110.08,30.21 C108.15,27.18 105.9,24.33 103.33,21.81 C100.76,19.3 97.79,17.16 94.66,15.3 C93.09,14.37 91.48,13.5 89.84,12.7 C88.21,11.89 86.55,11.12 84.84,10.45 Z" fill="#808080"/>
  <path d="M104,21.45 C98.8,21.76 93.65,21.9 88.49,22.09 C85.91,22.21 83.33,22.17 80.75,22.31 L73,22.72 C67.84,22.99 62.67,23.36 57.52,23.81 C52.36,24.21 47.21,24.72 42.05,25.27 L42.03,25.17 C52.29,23.69 62.6,22.64 72.93,21.9 C78.1,21.55 83.27,21.25 88.45,21.13 C93.63,21.03 98.82,21.03 103.99,21.36 L104,21.45 Z" fill="#808080"/>
  <path d="M16.36,28.65 C14.34,32.64 12.5,36.64 10.96,40.72 C10.21,42.76 9.51,44.81 8.99,46.9 C8.41,48.98 8.05,51.05 7.83,53.19 C7.36,57.55 6.98,61.91 6.86,66.28 C6.81,68.46 6.78,70.65 6.91,72.84 C7.01,75.03 7.19,77.22 7.68,79.4 C6.56,77.44 5.96,75.23 5.45,73.03 C4.97,70.82 4.68,68.58 4.52,66.33 C4.2,61.83 4.34,57.32 4.85,52.86 C5.35,48.27 6.81,43.83 8.82,39.8 C10.84,35.74 13.32,31.95 16.36,28.65 Z" fill="#808080"/>
</svg>