<svg viewBox="0 0 128 128" xmlns="http://www.w3.org/2000/svg">
  <defs/>
  <path d="M125.61,101.91 C125.61,101.91 118.72,78.54 114.72,68.15 C109.69,55.09 98.27,29.46 95.75,28.28 C95.39,28.11 95.04,27.99 94.7,27.9 L79.16,22.21 L48.86,22.21 L33.36,27.89 C33,27.98 32.63,28.1 32.25,28.28 C29.73,29.47 18.34,55.01 13.28,68.15 C9.28,78.54 2.39,101.91 2.39,101.91 C2.05,102.98 2.46,104.14 3.41,104.74 C5.48,106.03 9.74,108.06 17.1,108.94 C18.2,109.07 19.25,108.46 19.68,107.44 C20.85,104.63 35.32,69.96 36.78,66.03 L32.95,111.09 C32.87,112.13 33.56,113.06 34.57,113.29 C38.11,114.1 48.14,115.69 64.03,115.69 C79.91,115.69 89.94,114.09 93.49,113.29 C94.5,113.06 95.19,112.13 95.11,111.09 L91.29,66.12 C92.74,70.02 107.19,104.62 108.35,107.43 C108.77,108.45 109.83,109.06 110.93,108.93 C118.28,108.05 122.55,106.02 124.62,104.73 C125.55,104.14 125.96,102.98 125.61,101.91 Z" fill="#004F7C"/>
  <path d="M58.29,64.85 A2.73 2.73 0 1 1 52.83,64.85 A2.73 2.73 0 1 1 58.29,64.85 Z" fill="#00273D"/>
  <path d="M72.43,64.85 A2.73 2.73 0 1 1 66.97,64.85 A2.73 2.73 0 1 1 72.43,64.85 Z" fill="#00273D"/>
  <path d="M58.29,79.86 A2.73 2.73 0 1 1 52.83,79.86 A2.73 2.73 0 1 1 58.29,79.86 Z" fill="#00273D"/>
  <path d="M72.43,79.86 A2.73 2.73 0 1 1 66.97,79.86 A2.73 2.73 0 1 1 72.43,79.86 Z" fill="#00273D"/>
  <path d="M58.29,94.86 A2.73 2.73 0 1 1 52.83,94.86 A2.73 2.73 0 1 1 58.29,94.86 Z" fill="#00273D"/>
  <path d="M72.43,94.86 A2.73 2.73 0 1 1 66.97,94.86 A2.73 2.73 0 1 1 72.43,94.86 Z" fill="#00273D"/>
  <path d="M58.29,63.64 A2.73 2.73 0 1 1 52.83,63.64 A2.73 2.73 0 1 1 58.29,63.64 Z" fill="#B5840D"/>
  <path d="M72.43,63.64 A2.73 2.73 0 1 1 66.97,63.64 A2.73 2.73 0 1 1 72.43,63.64 Z" fill="#B5840D"/>
  <path d="M58.29,78.64 A2.73 2.73 0 1 1 52.83,78.64 A2.73 2.73 0 1 1 58.29,78.64 Z" fill="#B5840D"/>
  <path d="M72.43,78.64 A2.73 2.73 0 1 1 66.97,78.64 A2.73 2.73 0 1 1 72.43,78.64 Z" fill="#B5840D"/>
  <path d="M58.29,93.64 A2.73 2.73 0 1 1 52.83,93.64 A2.73 2.73 0 1 1 58.29,93.64 Z" fill="#B5840D"/>
  <path d="M72.43,93.64 A2.73 2.73 0 1 1 66.97,93.64 A2.73 2.73 0 1 1 72.43,93.64 Z" fill="#B5840D"/>
  <path d="M47.4,72.6 L45.06,71.56 C44.25,71.2 43.31,71.64 43.07,72.5 L37.85,91.22 C37.66,91.9 37.99,92.63 38.64,92.93 L40.76,93.91 C41.57,94.28 42.52,93.85 42.76,93 L48.2,74.34 C48.41,73.63 48.06,72.89 47.4,72.6 Z" fill="#2686C6" opacity="0.5"/>
  <path d="M81.29,72.6 L83.63,71.56 C84.44,71.2 85.38,71.64 85.62,72.5 L90.84,91.22 C91.03,91.9 90.7,92.63 90.05,92.93 L87.93,93.91 C87.12,94.28 86.17,93.85 85.93,93 L80.49,74.34 C80.28,73.63 80.63,72.89 81.29,72.6 Z" fill="#2686C6" opacity="0.5"/>
  <path d="M76.82,47.94 C75.73,45.51 75.29,44.06 75.53,43.15 C76.03,41.22 77.85,39.97 79.58,38.98 C79.48,38.91 71.75,13.35 71.75,13.35 L56.32,13.35 L47.06,40.44 C53.59,40.66 66.05,48.3 70.87,53.53 C73.17,56.02 74.97,58.92 76.75,61.81 C77.24,58.9 79.06,52.93 76.82,47.94 Z" fill="#00273D"/>
  <path d="M54.39,13.3 L45.82,21.16 C45.82,21.16 44.9,28.51 45.01,32.94 C45.13,37.74 45.7,40.37 48.88,39.08 C52.06,37.79 56.55,35.63 57.67,35.07 C58.79,34.51 59.9,34.12 59.2,35.91 C58.5,37.7 57.82,41.24 57.74,41.55 C57.38,42.89 57.16,43.87 60.84,44.67 C64.52,45.47 75.14,48.31 75.14,48.31 C75.14,48.31 60.74,31.85 58.83,28.58 C56.49,24.58 56.36,19.13 56.49,16.19 C56.54,15.02 57.5,14.1 58.67,14.1 L69.05,14.1 C70.2,14.1 71.15,14.99 71.23,16.13 C71.42,19.03 71.61,24.26 70.77,26.43 C69.99,28.44 67.81,30.16 66.09,31.42 C64.85,32.32 65.06,33.48 65.75,34.21 L70.08,39.26 C70.08,39.26 71.1,34.5 71.71,34.27 C72.32,34.04 75.58,37.23 78.4,38.25 C80.32,38.95 81.22,36.88 81.42,35.68 C81.62,34.49 82.69,24.86 82.45,23.21 C82.2,21.57 81.22,20.07 80.13,19.37 C79.3,18.84 75.06,15.07 73.04,13.27 C72.35,12.65 71.05,12.31 70.12,12.31 L57.94,12.31 C56.38,12.32 55.09,12.67 54.39,13.3 Z" fill="#004F7C"/>
  <path d="M82.56,21.56 C81.53,20.07 80.42,19.54 79.03,18.41 C79.89,19.44 80.67,20.57 81.03,21.86 C81.69,24.48 80.67,33.63 80.36,35.5 C80.19,36.5 79.38,37.39 78.41,37.07 C77.46,36.75 77.08,36.52 73.2,33.36 C71.7,32.14 70.73,32.14 70.1,33.99 C69.54,35.62 68.9,37.87 68.9,37.87 L70.87,40.18 C70.87,40.18 71.81,36.29 72.09,35.19 C76.59,38.63 78.41,39.43 79.62,39.28 C81.96,39 82.35,36.52 82.47,35.84 C82.9,32.71 82.97,29.51 83.25,26.36 C83.35,24.97 83.51,22.93 82.56,21.56 Z" fill="#2686C6"/>
  <path d="M72.95,46.9 C70.03,45.42 64.51,44.48 61.01,43.63 C59.82,43.34 58.62,43.05 58.78,42.16 C58.95,41.46 59.51,38.94 59.89,37.83 C60.27,36.72 61.16,34.49 59.94,33.61 C59.02,32.94 57.8,33.6 57.8,33.6 C57.74,33.64 52.38,36.39 49.33,37.65 C48.05,38.18 46.99,37.92 46.71,36.02 C45.77,29.64 45.65,23.88 48.81,18.47 C48.06,19.23 46.68,20.14 45.9,20.86 C44.28,22.33 43.69,31.72 44.81,37.83 C45.21,40.02 46.8,41.18 49.75,39.78 C52.57,38.44 58.15,35.88 58.15,35.88 C58.15,35.88 56.84,40.64 56.64,42.36 C56.45,44.08 57.27,45.01 60.56,45.71 C62.7,46.17 67.38,46.72 70.16,47.82 C73.51,49.15 74.46,49.57 76.82,52.53 C76.07,49.91 75.35,48.11 72.95,46.9 Z" fill="#2686C6"/>
  <path d="M75.33,115.39 L69.46,115.65 C69.46,115.65 71.11,114.67 73.81,114.16 C76.32,113.69 75.91,111.76 75.91,110.07 C75.91,108.38 75.91,58.02 75.91,58.02 C75.91,49.74 73.01,49.27 70.49,47.92 L72.96,46.89 C73.2,47.02 78.05,48.39 78.05,58.02 C78.05,58.02 78.05,109.22 78.05,111.11 C78.05,113 78.22,115.39 75.33,115.39 Z" fill="#2686C6"/>
  <path d="M56.77,22.06 C56.77,22.06 55.4,19.25 55.07,16.68 C54.7,13.73 55.73,12.67 58.16,12.32 C60.79,11.94 67.32,12.11 68.92,12.17 C70.28,12.21 72.42,12.32 72.92,14.56 C73.41,16.72 71.4,22.07 71.4,22.07 C71.4,22.07 71.36,16.57 71.25,16.15 C71.14,15.73 70.93,14.75 68.92,14.45 C64.58,13.8 62.37,14.12 59.34,14.03 C56.58,13.95 56.55,15.4 56.52,17.62 C56.5,19.83 56.77,22.06 56.77,22.06 Z" fill="#2686C6"/>
  <path d="M38.27,55.44 C38.19,49.15 35.65,37.11 32.55,31.63 C32.39,31.34 32.38,31 32.53,30.71 L32.53,30.71 C32.9,30.01 33.89,30.01 34.26,30.71 C38.37,38.55 40.55,50.62 39.08,57.08 C39.09,57.08 38.31,58.34 38.27,55.44 Z" fill="#00273D"/>
  <path d="M89.73,55.44 C89.81,49.15 92.35,37.11 95.45,31.63 C95.61,31.34 95.62,31 95.47,30.71 L95.47,30.71 C95.1,30.01 94.11,30.01 93.74,30.71 C89.63,38.55 87.45,50.62 88.92,57.08 C88.91,57.08 89.69,58.34 89.73,55.44 Z" fill="#00273D"/>
</svg>