<svg viewBox="0 0 128 128" xmlns="http://www.w3.org/2000/svg">
  <defs>
    <radialGradient id="suit_back_layer_2_" cx="64.6139" cy="226.463592" gradientTransform="matrix(1 0 0 0.5476 0 0)" gradientUnits="userSpaceOnUse" r="52.4973">
      <stop offset="0.7824" stop-color="#212121"/>
      <stop offset="1" stop-color="#616161"/>
    </radialGradient>
    <radialGradient id="SVGID_10_" cx="64.2871" cy="-55.388226" gradientTransform="matrix(1 0 0 -0.6655 0 0)" gradientUnits="userSpaceOnUse" r="51.9877">
      <stop offset="0.6313" stop-color="#212121" stop-opacity="0"/>
      <stop offset="0.9176" stop-color="#BFBEBE"/>
    </radialGradient>
    <radialGradient id="SVGID_1_" cx="78.6384" cy="167.594135" gradientTransform="matrix(1 0 0 0.4912 0 0)" gradientUnits="userSpaceOnUse" r="23.419">
      <stop offset="0.7275" stop-color="#6D4C41" stop-opacity="0"/>
      <stop offset="1" stop-color="#6D4C41"/>
    </radialGradient>
    <radialGradient id="SVGID_2_" cx="-58.710273" cy="-154.366839" gradientTransform="matrix(-0.9057 0.4238 -0.3144 -0.6719 0 0)" gradientUnits="userSpaceOnUse" r="6.9209">
      <stop offset="0.6628" stop-color="#6D4C41"/>
      <stop offset="1" stop-color="#6D4C41" stop-opacity="0"/>
    </radialGradient>
    <radialGradient id="SVGID_3_" cx="-78.52995" cy="90.499935" gradientTransform="matrix(-0.0746 -0.9972 0.8311 -0.0622 0 0)" gradientUnits="userSpaceOnUse" r="40.5814">
      <stop offset="0.7247" stop-color="#6D4C41" stop-opacity="0"/>
      <stop offset="1" stop-color="#6D4C41"/>
    </radialGradient>
    <radialGradient id="SVGID_4_" cx="-60.886382" cy="-69.774288" gradientTransform="matrix(0.0746 -0.9972 -0.8311 -0.0622 0 0)" gradientUnits="userSpaceOnUse" r="43.0898">
      <stop offset="0.7247" stop-color="#6D4C41" stop-opacity="0"/>
      <stop offset="1" stop-color="#6D4C41"/>
    </radialGradient>
    <radialGradient id="SVGID_5_" cx="-49.4947" cy="167.594135" gradientTransform="matrix(-1 0 0 0.4912 0 0)" gradientUnits="userSpaceOnUse" r="23.419">
      <stop offset="0.7275" stop-color="#6D4C41" stop-opacity="0"/>
      <stop offset="1" stop-color="#6D4C41"/>
    </radialGradient>
    <radialGradient id="SVGID_6_" cx="57.354018" cy="-81.160858" gradientTransform="matrix(0.9057 0.4238 0.3144 -0.6719 0 0)" gradientUnits="userSpaceOnUse" r="6.9209">
      <stop offset="0.6628" stop-color="#6D4C41"/>
      <stop offset="1" stop-color="#6D4C41" stop-opacity="0"/>
    </radialGradient>
    <radialGradient id="hairHighlights_2_" cx="63.3621" cy="-55.2808" gradientTransform="matrix(1 0 0 -1 0 0)" gradientUnits="userSpaceOnUse" r="43.238">
      <stop offset="0.7247" stop-color="#6D4C41" stop-opacity="0"/>
      <stop offset="1" stop-color="#6D4C41"/>
    </radialGradient>
    <linearGradient id="SVGID_7_" gradientTransform="matrix(1 0 0 -1 0 0)" gradientUnits="userSpaceOnUse" x1="64.0555" x2="64.0555" y1="-24.4782" y2="-45.2581">
      <stop offset="4.000000e-03" stop-color="#666666"/>
      <stop offset="0.0797" stop-color="#606060"/>
      <stop offset="0.5459" stop-color="#3F3F3F"/>
      <stop offset="0.8021" stop-color="#333333"/>
    </linearGradient>
  </defs>
  <path id="hair_3_" d="M98.95,80.02 C97.7,77.75 99.29,75.44 102.01,72.58 C105.55,68.85 109.34,61.08 108.17,52.5 C107.73,49.29 106.23,46.31 104.06,43.9 C101.64,41.21 98.41,37.63 98.42,37.59 C98.42,37.59 83.76,44.69 64.05,44.69 C44.34,44.69 31.95,33.11 31.37,33.19 C31.37,33.19 10.24,53.07 26.1,72.57 C28.59,75.63 30.4,77.74 29.16,80.01 C27.95,82.22 24.35,82.54 24.35,82.54 C24.35,82.54 25.18,84.8 27.18,86.02 C29.03,87.15 31.31,87.41 32.88,87.45 C32.88,87.45 39.03,95.96 55.11,95.96 L64.06,95.96 L73.01,95.96 C89.09,95.96 95.24,87.45 95.24,87.45 C96.81,87.41 99.09,87.15 100.94,86.02 C102.94,84.8 103.77,82.54 103.77,82.54 C103.77,82.54 100.16,82.23 98.95,80.02 Z" fill="#543930"/>
  <path d="M64.04,95.96 L64.04,86.52 L92.61,84.26 L95.21,87.46 C95.21,87.46 89.06,95.97 72.98,95.97 L64.04,95.96 Z" fill="url(#SVGID_1_)"/>
  <path d="M95.15,83.33 C90.87,76.83 100.36,74.4 100.36,74.4 C100.36,74.4 100.37,74.41 100.37,74.41 C98.72,76.46 97.97,78.25 98.94,80.02 C100.15,82.23 103.75,82.55 103.75,82.55 C103.75,82.55 98.85,86.91 95.15,83.33 Z" fill="url(#SVGID_2_)"/>
  <path d="M103.06,42.76 C107.05,47.24 109.1,50.93 108.13,59.18 C107.47,64.85 104.74,69.66 102.26,72.32 C101.69,72.94 99.25,75.33 98.69,77.24 C98.69,77.24 89.15,63.93 86.3,56.11 C85.73,54.53 85.2,52.91 85.13,51.23 C85.08,49.97 85.27,48.47 86,47.4 C86.89,46.1 96.24,35.1 96.24,35.1 C96.24,35.11 100.04,39.38 103.06,42.76 Z" fill="url(#SVGID_3_)"/>
  <path d="M31.81,33.44 C14.61,50.01 19.77,65.68 26.56,73.13 C27.13,73.75 29.29,76.3 29.84,78.21 C29.84,78.21 39.38,64.9 42.23,57.08 C42.81,55.5 43.33,53.88 43.4,52.2 C43.45,50.94 43.26,49.44 42.53,48.37 C41.64,47.06 40.6,47.41 39.09,47.41 C36.22,47.4 31.81,33.44 31.81,33.44 Z" fill="url(#SVGID_4_)"/>
  <path d="M64.09,95.96 L64.09,86.52 L35.52,84.26 L32.92,87.46 C32.92,87.46 39.07,95.97 55.15,95.97 L64.09,95.96 Z" fill="url(#SVGID_5_)"/>
  <path d="M32.98,83.33 C37.26,76.83 27.77,74.4 27.77,74.4 C27.77,74.4 27.76,74.41 27.76,74.41 C29.41,76.46 30.16,78.25 29.19,80.02 C27.98,82.23 24.38,82.55 24.38,82.55 C24.38,82.55 29.28,86.91 32.98,83.33 Z" fill="url(#SVGID_6_)"/>
  <path d="M73.63,112.3 L73.63,89.51 L64,89.51 L54.37,89.51 L54.37,112.3 Z" fill="#99674F"/>
  <path id="suit_back_layer_1_" d="M116.52,123.96 L116.52,120.85 C116.52,111.47 108.08,105.51 100.79,102.42 C94.34,99.68 86.51,97.32 76.8,96.62 C76.8,96.62 73.88,116.14 64.15,116 C55.83,115.88 52.24,96.59 52.24,96.59 C31.69,98.53 11.49,106.05 11.49,120.85 L11.49,123.96 L116.52,123.96 Z" fill="url(#suit_back_layer_2_)"/>
  <path d="M71.91,123.96 L75.34,106 L52.66,106 L56.5,123.96 Z" fill="#E0E0E0"/>
  <path d="M66.85,113.53 L61.22,113.53 L59.44,106.03 L68.56,106.03 Z" fill="#212121"/>
  <path d="M67.96,123.96 L66.82,113.53 L61.18,113.53 L60.04,123.96 Z" fill="#212121"/>
  <path d="M63.98,106 L55.33,113.19 L53.71,114.54 L50.22,96.73 C50.72,96.67 51.22,96.62 51.72,96.58 C52.83,96.47 53.09,96.38 54.21,96.31 C54.21,96.31 56.02,99.39 57.87,101.81 C61.04,105.94 63.98,106 63.98,106 Z" fill="#FAFAFA"/>
  <path d="M77.76,96.78 L74.28,114.54 L63.99,106 C63.99,106 66.95,105.94 70.12,101.81 C72.04,99.31 73.79,96.33 73.79,96.33 C74.91,96.41 75.17,96.5 76.28,96.61 C76.78,96.66 77.27,96.71 77.76,96.78 Z" fill="#FAFAFA"/>
  <path d="M55.23,113.19 L51.62,96.58 C51.12,96.62 50.62,96.67 50.12,96.73 C46.96,97.07 42.04,97.91 42.04,97.91 L38.94,104.48 L46.06,108.84 L41.31,114.95 L50.56,123.96 L56.56,123.96 L56.56,123.96 L57.57,123.96 L55.23,113.19 Z" fill="#424242"/>
  <path d="M72.77,113.19 L76.38,96.58 C76.88,96.62 77.38,96.67 77.88,96.73 C81.23,96.95 85.89,97.76 85.89,97.76 L89.06,104.48 L81.94,108.84 L86.69,114.95 L77.44,123.96 L71.44,123.96 L71.44,123.96 L70.43,123.96 L72.77,113.19 Z" fill="#424242"/>
  <path d="M92.2,119.78 C92.16,119.8 92.12,119.82 92.08,119.82 L87.96,119.82 C87.81,119.82 87.75,120.01 87.87,120.1 C87.97,120.17 88.06,120.24 88.16,120.3 C88.49,120.53 88.89,120.64 89.29,120.64 L92.52,120.64 C92.43,120.34 92.32,120.05 92.2,119.78 Z" fill="#FFC107"/>
  <path d="M92,119.38 C91.78,118.96 91.57,118.64 91.41,118.42 L86.12,118.42 C86.01,118.42 85.95,118.56 86.04,118.64 C86.09,118.69 86.14,118.73 86.19,118.78 C86.64,119.18 87.22,119.39 87.81,119.39 L92,119.39 L92,119.38 Z" fill="#FFC107"/>
  <path d="M92.65,121.1 L89.81,121.1 C89.72,121.1 89.69,121.22 89.77,121.26 C91.49,122.12 92.46,122.06 92.46,122.06 L92.79,122.06 C92.77,121.73 92.72,121.4 92.65,121.1 Z" fill="#FFC107"/>
  <path d="M102.04,119.82 L97.92,119.82 C97.87,119.82 97.83,119.8 97.8,119.78 C97.68,120.04 97.57,120.34 97.48,120.65 L100.71,120.65 C101.11,120.65 101.51,120.53 101.84,120.31 C101.93,120.25 102.03,120.18 102.13,120.11 C102.25,120.02 102.19,119.82 102.04,119.82 Z" fill="#FFC107"/>
  <path d="M103.88,118.41 L98.59,118.41 C98.43,118.63 98.22,118.95 98,119.37 L102.18,119.37 C102.78,119.37 103.36,119.16 103.8,118.76 C103.85,118.71 103.9,118.67 103.95,118.62 C104.04,118.55 103.99,118.41 103.88,118.41 Z" fill="#FFC107"/>
  <path d="M100.19,121.1 L97.35,121.1 C97.28,121.41 97.23,121.73 97.2,122.06 L97.53,122.06 C97.53,122.06 98.5,122.12 100.22,121.26 C100.31,121.22 100.28,121.1 100.19,121.1 Z" fill="#FFC107"/>
  <path d="M96.78,117.29 C96.46,117.44 96.08,117.53 95.74,117.58 C95.25,117.65 94.75,117.65 94.26,117.58 C93.91,117.53 93.54,117.44 93.22,117.29 C93.02,117.2 92.78,117.3 92.7,117.5 L92.37,118.33 C92.28,118.55 92.3,118.69 92.38,118.8 C92.68,119.2 93.38,120.3 93.43,121.63 C93.44,121.78 93.51,121.91 93.65,121.98 C93.92,122.11 94.4,122.36 94.76,122.66 C94.91,122.78 95.12,122.78 95.27,122.66 C95.63,122.36 96.1,122.12 96.38,121.98 C96.51,121.92 96.59,121.78 96.6,121.63 C96.65,120.3 97.35,119.21 97.65,118.8 C97.73,118.69 97.75,118.55 97.69,118.43 C97.6,118.2 97.44,117.81 97.32,117.51 C97.22,117.3 96.98,117.2 96.78,117.29 Z" fill="#FFC107"/>
  <path d="M91.38,50.6 L36.73,50.6 C30.84,50.6 26.02,55.73 26.02,62.01 C26.02,68.29 30.84,73.42 36.73,73.42 L91.38,73.42 C97.27,73.42 102.09,68.28 102.09,62.01 C102.09,55.74 97.27,50.6 91.38,50.6 Z" fill="#99674F"/>
  <path d="M64.06,11.24 L64.06,11.24 L64.06,11.24 C46.66,11.24 30.54,29.85 30.54,56.64 C30.54,83.28 47.15,96.45 64.06,96.45 C80.97,96.45 97.58,83.28 97.58,56.64 C97.58,29.85 81.46,11.24 64.06,11.24 Z" fill="#BA8D68"/>
  <path d="M54.85,49.99 C53.92,48.76 51.78,46.98 47.62,46.98 C43.46,46.98 41.31,48.77 40.39,49.99 C39.98,50.53 40.08,51.16 40.37,51.54 C40.63,51.89 41.41,52.22 42.27,51.93 C43.13,51.64 44.81,50.77 47.62,50.75 C50.43,50.77 52.11,51.64 52.97,51.93 C53.83,52.22 54.61,51.9 54.87,51.54 C55.16,51.16 55.26,50.53 54.85,49.99 Z" fill="#613E31"/>
  <path d="M87.72,49.99 C86.79,48.76 84.65,46.98 80.49,46.98 C76.33,46.98 74.18,48.77 73.26,49.99 C72.85,50.53 72.95,51.16 73.24,51.54 C73.5,51.89 74.28,52.22 75.14,51.93 C76,51.64 77.68,50.77 80.49,50.75 C83.3,50.77 84.98,51.64 85.84,51.93 C86.7,52.22 87.48,51.9 87.74,51.54 C88.03,51.16 88.13,50.53 87.72,49.99 Z" fill="#613E31"/>
  <path d="M52.55,58.98 A4.93 5.1 0 1 1 42.69,58.98 A4.93 5.1 0 1 1 52.55,58.98 Z" fill="#49362E"/>
  <path d="M85.42,58.98 A4.93 5.1 0 1 1 75.56,58.98 A4.93 5.1 0 1 1 85.42,58.98 Z" fill="#49362E"/>
  <path id="hair" d="M99.19,20.17 C98.21,16.07 31.05,8.66 34.01,17.25 C31.04,17.36 26.84,37.81 26.84,37.81 C25.24,51.95 31.25,66.1 31.25,66.1 C31.25,66.1 36,48.59 35.6,45.91 C35.6,45.91 43.47,44.45 52.39,39.67 C58.42,36.44 62.54,32.64 69.33,31.21 C79.65,29.04 81.95,36.03 81.95,36.03 C81.95,36.03 91.5,34.31 94.38,46.73 C95.57,51.84 96.34,60.31 96.99,65.5 C96.93,65.05 100.27,59.49 100.9,53.8 C101.06,52.32 104.39,42 99.19,20.17 Z" fill="#543930"/>
  <path id="hairHighlights_1_" d="M99.19,20.17 C98.21,16.07 31.05,8.66 34.01,17.25 C31.04,17.36 26.84,37.81 26.84,37.81 C25.24,51.95 31.25,66.1 31.25,66.1 C31.25,66.1 36,48.59 35.6,45.91 C35.6,45.91 43.47,44.45 52.39,39.67 C58.42,36.44 62.54,32.64 69.33,31.21 C79.65,29.04 81.95,36.03 81.95,36.03 C81.95,36.03 91.5,34.31 94.38,46.73 C95.57,51.84 96.34,60.31 96.99,65.5 C96.93,65.05 100.27,59.49 100.9,53.8 C101.06,52.32 104.39,42 99.19,20.17 Z" fill="url(#hairHighlights_2_)"/>
  <path id="mouth_2_" d="M72.47,76.31 C69.29,78.2 58.84,78.2 55.66,76.31 C53.83,75.22 51.96,76.89 52.72,78.55 C53.47,80.18 59.16,83.97 64.09,83.97 C69.02,83.97 74.64,80.18 75.39,78.55 C76.15,76.89 74.3,75.23 72.47,76.31 Z" fill="#5D4037"/>
  <path id="nose_2_" d="M67.92,68.23 C67.81,68.19 67.71,68.16 67.6,68.15 L60.52,68.15 C60.41,68.16 60.3,68.19 60.2,68.23 C59.56,68.49 59.21,69.15 59.51,69.86 C59.81,70.57 61.22,72.55 64.06,72.55 C66.9,72.55 68.31,70.56 68.61,69.86 C68.91,69.15 68.56,68.49 67.92,68.23 Z" fill="#99674F"/>
  <path d="M63.79,24.37 C30.54,24.37 25.21,35.73 25.21,35.73 C25.21,35.73 35.46,45.64 63.79,45.83 C92.13,45.64 102.9,35.1 102.9,35.1 C102.9,35.1 97.05,24.37 63.79,24.37 Z" fill="url(#SVGID_7_)"/>
  <path d="M20.41,34.65 C22.1,40.84 23.72,43.39 23.72,43.39 C25.44,41.39 35.65,32 63.93,32 C63.94,32 64.05,32 64.05,32 L64.05,32 C64.05,32 64.05,32 64.09,32 C92.37,32 102.05,41.57 103.76,43.57 C103.76,43.57 105.87,40.67 107.57,34.48 C111.5,20.16 92.04,4.12 64.04,4.12 C36.12,4.13 16.5,20.34 20.41,34.65 Z" fill="#303030"/>
  <path id="XMLID_1_" d="M99.67,35.76 C99.929,37.137 99.559,38.436 98.801,39.425 C93.241,36.067 82.661,32 64.09,32 L63.93,32 C45.67,32 34.944,35.915 29.172,39.227 C28.514,38.266 28.208,37.047 28.45,35.76 L28.46,35.7 C28.66,34.62 29.25,33.64 30.11,32.95 C33.72,30.04 44.61,22.85 64.06,22.85 C83.02,22.85 94.21,30.05 97.95,32.95 C98.85,33.65 99.46,34.64 99.67,35.76 Z" fill="#212121"/>
  <path d="M57.31,20.48 C57.22,20.54 57.13,20.58 57.02,20.58 L47.18,20.58 C46.82,20.58 46.68,21.04 46.97,21.25 C47.2,21.42 47.43,21.58 47.66,21.73 C48.46,22.27 49.4,22.55 50.37,22.55 L58.09,22.55 C57.86,21.81 57.6,21.11 57.31,20.48 Z" fill="#FFC107"/>
  <path d="M56.84,19.51 C56.32,18.51 55.81,17.73 55.44,17.21 L42.79,17.21 C42.52,17.21 42.39,17.54 42.59,17.72 C42.71,17.83 42.84,17.94 42.96,18.05 C44.03,18.99 45.41,19.51 46.84,19.51 L56.84,19.51 L56.84,19.51 Z" fill="#FFC107"/>
  <path d="M58.38,23.62 L51.59,23.62 C51.38,23.62 51.31,23.91 51.5,24.01 C55.61,26.06 57.94,25.92 57.94,25.92 L58.73,25.92 C58.68,25.12 58.56,24.35 58.38,23.62 Z" fill="#FFC107"/>
  <path d="M80.82,20.58 L70.98,20.58 C70.87,20.58 70.77,20.54 70.69,20.48 C70.4,21.11 70.14,21.81 69.91,22.55 L77.63,22.55 C78.59,22.55 79.54,22.27 80.34,21.73 C80.57,21.58 80.8,21.42 81.03,21.25 C81.32,21.04 81.18,20.58 80.82,20.58 Z" fill="#FFC107"/>
  <path d="M85.21,17.21 L72.56,17.21 C72.19,17.73 71.68,18.51 71.16,19.51 L81.15,19.51 C82.58,19.51 83.96,19 85.03,18.05 C85.15,17.94 85.28,17.83 85.4,17.72 C85.6,17.54 85.47,17.21 85.21,17.21 Z" fill="#FFC107"/>
  <path d="M76.41,23.62 L69.62,23.62 C69.45,24.35 69.33,25.12 69.27,25.92 L70.06,25.92 C70.06,25.92 72.39,26.06 76.5,24.01 C76.68,23.91 76.62,23.62 76.41,23.62 Z" fill="#FFC107"/>
  <path d="M68.25,14.53 C67.49,14.88 66.59,15.09 65.76,15.22 C64.59,15.4 63.4,15.4 62.23,15.22 C61.4,15.09 60.5,14.88 59.74,14.53 C59.26,14.31 58.7,14.55 58.5,15.04 L57.7,17.02 C57.49,17.54 57.53,17.88 57.72,18.14 C58.43,19.1 60.11,21.73 60.22,24.9 C60.23,25.25 60.42,25.57 60.74,25.73 C61.39,26.04 62.53,26.64 63.38,27.34 C63.74,27.64 64.24,27.64 64.6,27.34 C65.46,26.63 66.59,26.04 67.24,25.73 C67.56,25.58 67.74,25.26 67.76,24.9 C67.87,21.73 69.56,19.11 70.26,18.14 C70.45,17.88 70.49,17.55 70.37,17.25 C70.14,16.69 69.77,15.76 69.48,15.04 C69.3,14.55 68.73,14.31 68.25,14.53 Z" fill="#FFC107"/>
  <path d="M20.41,34.65 C22.1,40.84 23.72,43.39 23.72,43.39 C25.44,41.39 35.65,32 63.93,32 C63.94,32 64.05,32 64.05,32 L64.05,32 C64.05,32 64.05,32 64.09,32 C92.37,32 102.06,41.59 103.78,43.59 C103.78,43.59 105.89,40.68 107.58,34.49 C111.51,20.17 92.05,4.13 64.05,4.13 C36.12,4.13 16.5,20.34 20.41,34.65 Z" fill="url(#SVGID_10_)" opacity="0.3"/>
</svg>