<svg viewBox="0 0 128 128" xmlns="http://www.w3.org/2000/svg">
  <defs/>
  <path d="M43.7,64.5 L40.92,66.2 C40.92,66.2 42.4,71.61 42.99,74.56 C43.58,77.51 44.27,79.77 45.06,81.25 C46.29,83.56 49.48,83.74 50.71,82.8 C53.27,80.86 54.62,74.98 54.62,74.98 C54.62,74.98 55.97,70.14 56.71,67.53 C57.31,65.4 58.73,62.22 58.73,62.22 L63.55,64.51 C63.55,64.51 63.28,69.33 65.07,73.34 C66.79,77.19 71.36,80.96 73.28,82.14 C75.2,83.32 77.04,83.98 76.67,85.98 C76.3,87.97 73.65,92.32 71.88,94.54 C70.11,96.75 65.63,103.31 64.65,105.6 C63.49,108.3 62.29,111.28 65.09,112.09 C67.89,112.9 72.05,107.12 72.05,107.12 L85.67,88.04 C85.67,88.04 85.74,87.01 84.64,85.75 C83.53,84.5 83.16,83.76 82.57,82.14 C81.98,80.52 81.76,75.43 81.76,75.43 C81.76,75.43 86.55,66.51 87.44,65.4 C88.33,64.29 89.87,62.23 89.87,62.23 C89.87,62.23 91.26,66.82 93.78,71.08 C96.63,75.9 102.25,80.78 107.5,82.78 C112.91,84.85 118.05,85.31 121.88,85.46 C125.72,85.61 127.93,84.3 127.41,83.42 C126.89,82.53 117.08,81.26 117.08,81.26 L99.9,70.18 L92.52,51.74 L78.44,40.08 L59.04,40.6 L45.98,61.47 C45.98,61.47 47.82,65.9 47.97,66.71 C48.12,67.52 47.9,72.17 47.9,72.17 C47.9,72.17 47.36,70.33 46.94,68.92 C46.64,67.93 46.57,66.19 46.57,66.19 L43.7,64.5 Z" fill="#865B52"/>
  <path d="M33.37,37.87 C33.37,37.87 39.55,31.83 41.56,29.17 C44.76,24.94 47.09,19.29 44.51,17.37 C41.93,15.45 37.28,19.88 34.7,23.34 C32.12,26.8 29.56,32.34 28.97,30.94 C28.38,29.54 31.16,26.2 32.95,23.32 C33.87,21.84 36.34,19.12 37.42,16.78 C38.36,14.75 38.14,13.03 36.68,12.26 C33.43,10.54 28.27,15.49 26.58,18.85 C24.2,23.57 23.41,29.03 23.41,29.03 C23.41,29.03 19.5,28.59 16.03,31.24 C13.53,33.15 12.19,37.14 10.87,37.88 C9.54,38.62 4.58,40.93 4.58,40.93 C4.58,40.93 0.65,45.4 4.31,49.09 C6,50.79 7.48,52.04 10.95,52.11 C13.97,52.17 20.32,48.5 23.05,49.01 C25.78,49.52 28.46,56.47 30.5,59.11 C33.23,62.65 36.87,65.21 39.6,65.94 C42.33,66.68 47.98,66.7 47.98,66.7 C47.98,66.7 47.91,64.19 47.46,63.09 C47.02,61.98 46.43,61.02 47.09,60.51 C47.75,59.99 49.23,62.35 49.23,64.42 C49.23,66.49 48.79,71.43 48.71,73.71 C48.64,76 48.12,80.42 51.07,81.53 C54.02,82.64 56.8,80.33 57.39,79.51 C57.98,78.7 59.26,77.47 59.04,76.88 C58.82,76.29 57.12,74.74 55.94,74.59 C54.76,74.44 53.51,74.69 53.51,74.69 C53.51,74.69 53.9,71.74 54.49,69.67 C55.08,67.6 55.94,62.79 55.72,59.84 C55.5,56.89 52.92,53.72 53.8,52.69 C54.68,51.66 55.94,52.54 56.9,55.05 C57.86,57.56 57.86,59.84 57.79,61.76 C57.72,63.68 57.35,65.45 57.35,65.45 C57.35,65.45 60.81,65.29 62.37,65.23 C64.14,65.16 67.02,64.71 67.02,64.71 C67.02,64.71 66.3,58.95 66.58,55.86 C66.95,51.73 69.65,47.48 71.72,45.48 C73.79,43.49 76.61,41.25 77.13,42.51 C77.65,43.76 73.2,46.47 71.38,49.59 C69.65,52.55 67.77,58.66 69.9,65.01 C72.04,71.35 76.17,76.44 78.6,78.29 C81.03,80.13 85.09,81.24 84.94,84.56 C84.79,87.88 78.01,96.07 76.02,99.09 C74.03,102.11 71.15,105.36 70.64,108.16 C70.12,110.96 69.75,113.99 73.44,112.36 C77.13,110.74 81.77,101.74 83.77,99.08 C85.76,96.42 89.23,90.89 91.44,88.02 C93.65,85.14 94.54,84.85 94.32,82.86 C94.1,80.87 89.53,78.88 88.49,75.93 C87.45,72.98 87.31,65.16 88.49,62.58 C89.67,60 90.92,58.15 90.92,58.15 C90.92,58.15 95.33,68.63 98.37,72.61 C102.45,77.95 109.65,82.05 118.36,83.23 C127.06,84.41 129.26,83.51 125.96,82.34 C124.71,81.9 121.32,80.59 117.9,78.87 C114.65,77.25 109.59,74.79 105.68,68.91 C101.35,62.4 99.56,50.18 91.89,40.96 C85.55,33.34 73.4,26.64 59.51,32.26 C49.85,36.17 46.46,46.35 40.63,45.31 C34.77,44.29 33.37,37.87 33.37,37.87 Z" fill="#D27856"/>
  <path d="M31.38,34.58 C32.91,35.67 36.89,31.07 38.71,28.68 C41.32,25.24 42.85,22.03 41.76,21.21 C40.19,20.03 36.89,24.06 35.02,26.86 C32.6,30.48 30.35,33.84 31.38,34.58 Z" fill="#FFD2AF"/>
  <path d="M21.58,39.28 C21.74,41.36 20.75,42.34 19.66,42.41 C18.57,42.48 17.57,41.16 17.48,39.74 C17.39,38.32 18.21,37.11 19.31,37.04 C20.4,36.97 21.47,37.86 21.58,39.28 Z" fill="#010102"/>
  <path d="M5.42,40.72 C6.41,41.38 6.57,43.96 6.21,45.1 C5.82,46.33 4.69,48.39 3.36,47.85 C2.62,47.55 0.7,43.87 1.1,42.88 C1.48,41.9 4.83,40.33 5.42,40.72 Z" fill="#2C302B"/>
  <path d="M6.01,50.31 C6.01,50.31 7.98,49.67 8.67,49.03 C9.36,48.39 10.34,47.55 11.08,47.85 C11.82,48.15 12.06,49.23 10.69,50.31 C9.65,51.13 8.28,51.54 8.28,51.54 C8.28,51.54 7.44,51.59 6.76,51.29 C6.36,51.13 5.91,50.56 6.01,50.31 Z" fill="#2C302B"/>
</svg>