<svg viewBox="0 0 128 128" xmlns="http://www.w3.org/2000/svg">
  <defs/>
  <path d="M65.12,17.55 C47.52,17.02 30.37,23.15 30.29,31.91 C30.25,37.11 31.66,50.51 33.91,80.59 C36.16,110.67 36.16,114.17 37.41,115.54 C38.66,116.91 47.43,124.34 63.16,124.34 C78.89,124.34 89.09,117.91 90.09,116.29 C90.57,115.51 91.92,98.4 93.59,79.22 C95.4,58.38 97.5,35.32 97.58,34.16 C97.82,30.66 94.2,18.43 65.12,17.55 Z" fill="#A6CFD6"/>
  <path d="M41.4,45.29 C41.28,45.91 42.63,69.45 43.72,73.23 C45.71,80.15 53.01,80.61 53.95,77.39 C54.85,74.32 53.57,48.1 53.57,48.1 C53.57,48.1 49.91,47.8 47.14,47.26 C44,46.63 41.4,45.29 41.4,45.29 Z" fill="#DCEDF6"/>
  <path d="M33.74,32.61 C33.48,41.44 53.76,44.89 63.93,44.83 C77.49,44.74 93.41,40.54 93.73,33.13 C94.05,25.72 79.53,21.1 63.35,21.1 C49.6,21.1 33.96,25.19 33.74,32.61 Z" fill="#6CA4AE"/>
  <path d="M84.85,13.1 C84.27,13.74 75.18,43.85 75.18,43.85 C75.18,43.85 77.19,43.52 79.18,43.06 C81.81,42.45 82.94,42 82.94,42 C82.94,42 90.13,19.81 90.58,18.91 C91.03,18.01 112.19,11.3 112.89,10.98 C113.59,10.66 114.28,10.58 114.35,10.2 C114.41,9.82 112.01,3.47 111.24,3.47 C110.47,3.47 86.08,11.74 84.85,13.1 Z" fill="#DC0D27"/>
  <path d="M110.55,7.79 C111.59,10.52 113.35,10.88 114.1,10.56 C114.55,10.37 115.35,8.72 114.11,6.09 C113.12,4 111.94,3.35 111.18,3.48 C110.42,3.6 109.69,5.53 110.55,7.79 Z" fill="#8A1F0F"/>
  <path d="M91.94,18.34 C91.72,18.34 91.5,18.23 91.36,18.04 L87.37,12.27 C87.15,11.95 87.23,11.52 87.55,11.3 C87.87,11.08 88.31,11.16 88.52,11.48 L92.51,17.25 C92.73,17.57 92.65,18 92.33,18.22 C92.21,18.3 92.07,18.34 91.94,18.34 Z" fill="#8A1F0F"/>
  <path d="M90.28,19.43 C90.1,19.43 89.93,19.36 89.79,19.23 L84.53,14.11 C84.25,13.84 84.25,13.4 84.52,13.12 C84.79,12.84 85.23,12.84 85.51,13.11 L90.77,18.23 C91.05,18.5 91.05,18.94 90.78,19.22 C90.64,19.36 90.46,19.43 90.28,19.43 Z" fill="#8A1F0F"/>
  <path d="M89.35,21.22 C89.23,21.22 89.1,21.19 88.99,21.12 L83.39,17.73 C83.06,17.53 82.95,17.1 83.15,16.77 C83.35,16.44 83.78,16.33 84.11,16.53 L89.71,19.92 C90.04,20.12 90.15,20.55 89.95,20.88 C89.82,21.1 89.59,21.22 89.35,21.22 Z" fill="#8A1F0F"/>
</svg>