<svg viewBox="0 0 128 128" xmlns="http://www.w3.org/2000/svg" xmlns:xlink="http://www.w3.org/1999/xlink">
  <g id="Layer_4">
    <radialGradient id="SVGID_1_" cx="64" cy="94.2286" gradientTransform="matrix(1 0 0 1.0998 0 -12.1452)" gradientUnits="userSpaceOnUse" r="46.8657">
      <stop offset="0" style="stop-color:#FFFFFF"/>
      <stop offset="0.4795" style="stop-color:#FAFAFA"/>
      <stop offset="1" style="stop-color:#EDEDED"/>
    </radialGradient>
    <ellipse cx="64" cy="91.48" fill="url(#SVGID_1_)" rx="60" ry="30.97"/>
    <g opacity="0.2">
      <ellipse cx="64" cy="88.07" fill="#424242" rx="45.14" ry="20.3"/>
    </g>
    <g opacity="0.2">
      <path d="M64,63.52c15.56,0,30.14,3.1,41.05,8.74C115.34,77.56,121,84.39,121,91.48s-5.66,13.92-15.95,19.23 c-10.92,5.63-25.49,8.74-41.05,8.74s-30.14-3.1-41.05-8.74C12.66,105.41,7,98.58,7,91.48s5.66-13.92,15.95-19.23 C33.86,66.62,48.44,63.52,64,63.52 M64,60.52c-33.14,0-60,13.86-60,30.97s26.86,30.97,60,30.97s60-13.86,60-30.97 S97.14,60.52,64,60.52L64,60.52z" fill="#424242"/>
    </g>
    <g>
      <g>
        <linearGradient id="SVGID_3_" gradientTransform="matrix(1 0 0 -1 0 128.0298)" gradientUnits="userSpaceOnUse" x1="15.2745" x2="110.5533" y1="38.7422" y2="38.7422">
          <stop offset="0" style="stop-color:#FFF1C0"/>
          <stop offset="0.2424" style="stop-color:#FDEDBB"/>
          <stop offset="0.5352" style="stop-color:#F5E1AC"/>
          <stop offset="0.8527" style="stop-color:#EACE94"/>
          <stop offset="1" style="stop-color:#E3C386"/>
        </linearGradient>
        <path d="M109.14,74c0,0,1.41,2.65,1.41,5.76c0,5.18-4.52,11-5.99,12.42c-7.44,7.15-23.34,12.4-41.8,12.4 c-19.84,0-36.79-5.96-43.34-13.92c-1.87-2.28-4.14-5.26-4.14-10.44c0-4.15,2.07-6.22,2.07-6.22" fill="url(#SVGID_3_)"/>
        <radialGradient id="SVGID_4_" cx="42.1825" cy="56.7122" gradientTransform="matrix(0.9996 0.0266 0.0195 -0.7315 -1.0891 111.68)" gradientUnits="userSpaceOnUse" r="74.8921">
          <stop offset="4.006410e-04" style="stop-color:#FFAD2E"/>
          <stop offset="0.2486" style="stop-color:#E7971C"/>
          <stop offset="1" style="stop-color:#A5551B"/>
        </radialGradient>
        <path id="SVGID_10_" d="M61.93,56.37c11.1,0,19.84,2.07,27.99,4.98c3.97,1.42,8.88,3.04,11.8,4.68 c5.83,3.29,7.77,6.82,7.28,10.67c-1.15,9.04-20.29,20.44-46.24,20.44c-18.45,0-33.56-6.3-37.17-8.46 c-5.7-3.42-9.07-7.59-9.07-11.97c0-5.16,3.94-10.37,11.94-13.67C36.95,59.52,45.34,56.37,61.93,56.37z" fill="url(#SVGID_4_)"/>
      </g>
      <g>
        <linearGradient id="SVGID_5_" gradientTransform="matrix(0.9998 0.0195 0.0195 -0.9998 -1.1534 126.869)" gradientUnits="userSpaceOnUse" x1="12.1605" x2="107.7829" y1="55.3274" y2="55.3274">
          <stop offset="0" style="stop-color:#FFF1C0"/>
          <stop offset="0.2424" style="stop-color:#FDEDBB"/>
          <stop offset="0.5352" style="stop-color:#F5E1AC"/>
          <stop offset="0.8527" style="stop-color:#EACE94"/>
          <stop offset="1" style="stop-color:#E3C386"/>
        </linearGradient>
        <path d="M105.72,57.97c0,0,1.73,3.65,2.08,6.74c0.6,5.21-5.09,11.45-6.59,12.84 c-7.58,7.01-23.58,11.94-42.04,11.58c-19.83-0.39-36.67-6.67-43.06-14.77c-1.83-2.31-3.95-6.48-3.85-11.66 c0.08-4.15,3.01-7.26,3.01-7.26" fill="url(#SVGID_5_)"/>
        <radialGradient id="SVGID_6_" cx="31.6044" cy="71.5958" gradientTransform="matrix(0.9998 0.0195 0.0129 -0.6609 -0.6721 102.168)" gradientUnits="userSpaceOnUse" r="64.3145">
          <stop offset="4.006410e-04" style="stop-color:#FFAD2E"/>
          <stop offset="0.2486" style="stop-color:#E7971C"/>
          <stop offset="1" style="stop-color:#A5551B"/>
        </radialGradient>
        <path id="SVGID_9_" d="M59.29,40.91c11.1,0.22,19.79,2.46,27.89,5.53c3.94,1.49,8.82,3.21,11.7,4.91 c5.76,3.41,8.23,7.11,7.07,10.81c-2.65,8.53-12.92,19.61-46.63,19.54c-22.68-0.05-33.43-6.95-36.99-9.19 c-5.63-3.53-8.92-7.77-8.84-12.15c0.1-5.16,4.14-10.29,12.2-13.44C34.26,43.57,42.7,40.58,59.29,40.91z" fill="url(#SVGID_6_)"/>
      </g>
      <linearGradient id="SVGID_7_" gradientTransform="matrix(1 0 0 1 0 -4121.9702)" gradientUnits="userSpaceOnUse" x1="67.1296" x2="90.9468" y1="4228.0049" y2="4194.542">
        <stop offset="0" style="stop-color:#DB7C34"/>
        <stop offset="0.2505" style="stop-color:#C45D12"/>
        <stop offset="0.4359" style="stop-color:#B4520F"/>
        <stop offset="0.6263" style="stop-color:#994105"/>
        <stop offset="0.8168" style="stop-color:#913B02"/>
      </linearGradient>
      <path d="M84.23,78.68c1.68-1.33,2.9-3.23,3.42-5.32 c0.24-0.97,0.33-2.02,0.03-2.97c-0.3-0.96-1.05-1.81-2.03-2.04c-0.62-0.14-1.26-0.03-1.89,0.08c-4.08,0.74-8.45,2.23-12.58,2.5 c-3.7,0.24-7.15-0.04-10.85,0.97c-0.65,0.18-1.32,0.39-1.8,0.87c-0.72,0.72-0.81,1.91-0.44,2.86c0.37,0.95,1.11,1.71,1.9,2.36 c0.87,0.72,1.82,1.35,2.82,1.87c0.82,0.43,1.68,0.79,2.56,1.07c1.93,0.62,3.98,0.88,5.8,1.78c1.82,0.9,3.42,2.68,3.26,4.7 c-0.3,3.81-4.12,2.41-5.73,5.1c-0.6,1-0.5,2.36,0.22,3.27c1.28,1.6,3.98,0.77,4.89,1.62c0.9,0.84,3.09,3.35,0.5,5.56 c-1.72,1.46-11.63,1.37-13.99,3.71c-2.36,2.34,3.74,4.13,5.64,4.42c9.78,1.46,20.11-0.51,27.78-3.83 c2.53-1.1,13.05-6.83,9.03-9.03c-1.41-0.77-3-0.56-7.9,0.97c-3.08,0.96-6.28,1.66-9.5,1.91c-1.91,0.15-4.4-1.83-3.98-3.23 c0.62-2.09,2.57-2.82,3.8-4.49c0.88-1.2,1.14-3.09-0.01-4.04c-0.72-0.6-1.74-0.62-2.68-0.72c-1.46-0.16-3-0.66-3.87-1.84 C75.71,82.86,82.03,80.43,84.23,78.68z" enable-background="new " fill="url(#SVGID_7_)" opacity="0.78"/>
      <g enable-background="new " opacity="0.78">
        <path d="M58.54,72.78c-0.66,0.68-0.76,1.74-0.49,2.61c0.28,0.89,0.91,1.61,1.6,2.22c1.4,1.22,3.02,2.18,4.74,2.85 c1.72,0.68,3.58,0.93,5.38,1.5c1.79,0.53,3.58,1.6,4.48,3.37c0.46,0.87,0.57,1.94,0.32,2.89c-0.13,0.48-0.33,0.96-0.68,1.35 c-0.35,0.38-0.78,0.66-1.22,0.87c-0.88,0.41-1.79,0.63-2.53,1.09c-0.38,0.22-0.7,0.51-0.95,0.85c-0.27,0.34-0.44,0.71-0.51,1.13 c-0.15,0.82,0.11,1.72,0.7,2.27c0.59,0.56,1.49,0.7,2.4,0.77c0.46,0.04,0.93,0.06,1.44,0.18c0.25,0.07,0.52,0.14,0.77,0.35 c0.22,0.18,0.37,0.34,0.54,0.53c0.64,0.72,1.23,1.58,1.37,2.64c0.07,0.52,0,1.08-0.21,1.57c-0.23,0.48-0.53,0.92-0.9,1.25 c-0.16,0.19-0.41,0.34-0.65,0.48c-0.24,0.11-0.47,0.2-0.71,0.29c-0.47,0.14-0.93,0.26-1.4,0.35c-1.86,0.38-3.7,0.59-5.53,0.9 c-0.91,0.16-1.82,0.32-2.71,0.54c-0.88,0.22-1.77,0.48-2.51,0.9c-0.37,0.2-0.67,0.47-0.89,0.76c-0.17,0.3-0.19,0.55-0.02,0.85 c0.39,0.6,1.23,1.07,2.04,1.42c0.82,0.36,1.7,0.64,2.58,0.85c0.87,0.24,1.78,0.29,2.7,0.42c1.83,0.18,3.68,0.28,5.52,0.26 c3.69-0.05,7.38-0.5,10.98-1.3c3.59-0.82,7.17-1.91,10.46-3.5c1.64-0.83,3.25-1.76,4.77-2.79c0.76-0.52,1.49-1.07,2.17-1.66 c0.65-0.59,1.31-1.28,1.56-1.99c0.11-0.35,0.08-0.63-0.13-0.88c-0.21-0.24-0.61-0.46-0.99-0.58c-0.76-0.25-1.66-0.16-2.54,0.01 c-1.79,0.34-3.55,0.93-5.35,1.47c-1.8,0.53-3.64,0.96-5.5,1.26c-0.93,0.15-1.86,0.26-2.8,0.34c-0.44,0.05-1.02,0.07-1.51-0.06 c-0.5-0.12-0.97-0.32-1.4-0.57c-0.83-0.53-1.66-1.2-1.94-2.33c-0.05-0.28-0.01-0.64,0.08-0.87c0.08-0.24,0.18-0.47,0.3-0.7 c0.24-0.45,0.55-0.84,0.89-1.2c0.68-0.7,1.44-1.25,2.07-1.89c0.64-0.63,1.11-1.37,1.25-2.23c0.16-0.84-0.07-1.73-0.76-2.18 c-0.68-0.46-1.63-0.46-2.57-0.58c-0.95-0.13-1.9-0.39-2.74-0.93c-0.85-0.53-1.47-1.38-1.74-2.34c-0.3-0.98,0.02-2.07,0.64-2.82 c0.6-0.77,1.35-1.36,2.13-1.89c1.53-1.09,3.28-1.83,4.57-3.16c1.29-1.31,2.22-2.99,2.6-4.8c0.19-0.9,0.22-1.86-0.1-2.73 c-0.32-0.86-1.02-1.62-1.93-1.85c0.92,0.21,1.64,0.96,1.99,1.83c0.35,0.88,0.34,1.86,0.17,2.78c-0.35,1.84-1.25,3.58-2.54,4.95 c-0.64,0.69-1.42,1.26-2.21,1.76c-0.79,0.51-1.58,0.99-2.33,1.53c-0.75,0.54-1.46,1.13-1.99,1.85c-0.55,0.71-0.78,1.61-0.51,2.43 c0.26,0.82,0.81,1.58,1.56,2.02c0.75,0.46,1.63,0.7,2.53,0.81c0.88,0.12,1.91,0.07,2.83,0.64c0.94,0.59,1.24,1.81,1.05,2.77 c-0.14,1-0.72,1.91-1.39,2.59c-0.67,0.7-1.43,1.26-2.04,1.9c-0.3,0.32-0.57,0.67-0.76,1.05c-0.09,0.19-0.18,0.39-0.24,0.59 c-0.08,0.21-0.07,0.32-0.05,0.51c0.17,0.71,0.87,1.38,1.6,1.8c0.38,0.21,0.78,0.38,1.19,0.47c0.42,0.1,0.78,0.08,1.27,0.03 c0.92-0.09,1.83-0.21,2.74-0.37c1.82-0.31,3.62-0.73,5.39-1.26c1.77-0.53,3.55-1.14,5.43-1.51c0.93-0.17,1.96-0.31,2.99,0.01 c0.5,0.17,0.97,0.39,1.39,0.84c0.43,0.45,0.52,1.22,0.32,1.74c-0.38,1.06-1.11,1.74-1.81,2.4c-0.72,0.64-1.48,1.21-2.26,1.75 c-1.56,1.07-3.19,2.01-4.87,2.87c-3.42,1.66-7.01,2.78-10.68,3.62c-3.67,0.8-7.43,1.24-11.19,1.28 c-1.88,0.01-3.76-0.09-5.64-0.29c-0.92-0.13-1.88-0.2-2.82-0.46c-0.93-0.24-1.83-0.53-2.72-0.92c-0.87-0.41-1.79-0.82-2.44-1.79 c-0.13-0.26-0.28-0.56-0.24-0.9c-0.01-0.17,0.01-0.33,0.08-0.47c0.06-0.14,0.11-0.3,0.19-0.41c0.32-0.47,0.76-0.81,1.2-1.05 c0.89-0.5,1.82-0.75,2.74-0.98c0.92-0.23,1.85-0.39,2.78-0.55c1.85-0.3,3.71-0.52,5.51-0.86c0.88-0.19,1.85-0.35,2.37-0.88 c0.64-0.57,1.02-1.34,0.91-2.15c-0.09-0.81-0.57-1.59-1.15-2.25c-0.14-0.16-0.31-0.34-0.45-0.46c-0.1-0.1-0.3-0.16-0.49-0.22 c-0.4-0.1-0.87-0.13-1.33-0.18c-0.92-0.09-1.99-0.23-2.79-0.99c-0.77-0.75-1.05-1.86-0.86-2.86c0.09-0.51,0.33-1,0.64-1.39 c0.31-0.4,0.7-0.74,1.13-0.99c0.86-0.51,1.79-0.72,2.6-1.09c1.72-0.6,2.17-2.84,1.38-4.38c-0.78-1.62-2.42-2.68-4.16-3.24 c-1.74-0.59-3.61-0.89-5.35-1.62c-1.74-0.71-3.35-1.72-4.73-2.98c-0.68-0.63-1.31-1.38-1.57-2.3 C57.73,74.51,57.86,73.45,58.54,72.78z" fill="#823315"/>
      </g>
      <g>
        <linearGradient id="SVGID_8_" gradientTransform="matrix(1 0 0 -1 0 128.0298)" gradientUnits="userSpaceOnUse" x1="15.5068" x2="110.8844" y1="69.3823" y2="69.3823">
          <stop offset="0" style="stop-color:#FFF1C0"/>
          <stop offset="0.2424" style="stop-color:#FDEDBB"/>
          <stop offset="0.5352" style="stop-color:#F5E1AC"/>
          <stop offset="0.8527" style="stop-color:#EACE94"/>
          <stop offset="1" style="stop-color:#E3C386"/>
        </linearGradient>
        <path d="M109.18,43.3c0,0,1.71,4.26,1.71,7.37c0,5.18-4.62,9.51-6.09,10.93C97.35,68.75,81.45,74,62.99,74 c-19.84,0-36.79-5.96-43.34-13.92c-1.87-2.28-4.14-5.26-4.14-10.44c0-4.15,2.07-6.22,2.07-6.22" fill="url(#SVGID_8_)"/>
        <radialGradient id="SVGID_11_" cx="37.1923" cy="89.0224" gradientTransform="matrix(1 0 0 -0.5569 0 88.5878)" gradientUnits="userSpaceOnUse" r="79.4216">
          <stop offset="4.006410e-04" style="stop-color:#FFAD2E"/>
          <stop offset="0.2486" style="stop-color:#E7971C"/>
          <stop offset="1" style="stop-color:#A5551B"/>
        </radialGradient>
        <path id="SVGID_16_" d="M62.16,25.79c11.1,0,19.84,2.07,27.99,4.98c3.97,1.42,8.88,3.03,11.8,4.68 c5.83,3.29,8.36,6.94,7.28,10.67c-2.49,8.57-15.68,14.4-19.08,15.55c-7.84,2.67-17.28,5.02-27.16,4.88 c-22.68-0.3-33.56-6.3-37.17-8.46c-5.7-3.42-9.07-7.59-9.07-11.97c0-5.16,3.94-10.37,11.94-13.67 C37.19,28.94,45.57,25.79,62.16,25.79z" fill="url(#SVGID_11_)"/>
      </g>
      <linearGradient id="SVGID_12_" gradientUnits="userSpaceOnUse" x1="25.5012" x2="94.3303" y1="49.5161" y2="49.5161">
        <stop offset="0" style="stop-color:#DB7C34"/>
        <stop offset="0.2505" style="stop-color:#C45D12"/>
        <stop offset="0.4359" style="stop-color:#B4520F"/>
        <stop offset="0.6263" style="stop-color:#994105"/>
        <stop offset="0.8168" style="stop-color:#913B02"/>
      </linearGradient>
      <path d="M42.25,34.25c-1.18,0.98-4.11,2.5-5.58,2.94 c-9.52,2.85-11.55,4.49-11.12,7.69c0.21,1.55,2.85,2.94,11.72,4.19c3.33,0.47,6.68,1.73,9.02,4.14c2.74,2.81,1.16,5.17,3.77,8.11 c4.26,4.81,11.25,3.74,19.13,9.7c3.36,2.54,7.61,0.54,9.22-0.77c1.55-1.26,4.3-5.14,6.92-6.72c10.89-6.57,4.56-13.95,3.7-14.8 c-1.43-1.42-4.67-2.64-6.12-4.03c-3.97-3.83,6.05-4.43,10.43-7.41c0.41-0.28,0.87-0.6,0.96-1.09c0.14-0.74-0.59-1.35-1.27-1.69 c-2.1-1.05-4.48-1.4-6.82-1.68c-6.15-0.75-12.35-1.19-18.54-1.3c-2.09-0.04-4.22-0.05-6.24-0.58c-2.87-0.76-5.38-2.54-8.23-3.32 c-2.02-0.55-7.19-1.51-9.04-0.18c-1.17,0.84-0.63,1.78-0.51,2.94C43.84,32.17,43.72,33.04,42.25,34.25z" enable-background="new " fill="url(#SVGID_12_)" opacity="0.78"/>
      <g>
        <path d=" M63.34,36.78" fill="none" stroke="#FDC27D" stroke-linecap="round" stroke-linejoin="round" stroke-miterlimit="10" stroke-width="2.2062"/>
        <path id="SVGID_20_" d="M63.47,40.53h-1.08l-9.56-6.15l-1.69,2.12c-1.57,1.89-1.3,2.95,0.03,3.66l9.5,5.26 c2.37,1.08,5.04,0.98,7.06-0.19l7.43-4.17c1.03-0.54,1.64-1.54,0.64-3.11c-0.82-1.27-2.12-3.36-2.12-3.36L63.47,40.53z" fill="#EDC23A"/>
        <path d="M62.39,40.53l-9.56-6.15l-1.69,2.12c-1.57,1.89-1.3,2.95,0.03,3.66l9.5,5.26 c1.27,0.58,2.63,0.81,3.93,0.73c-0.02-0.99-0.32-2.03-0.12-3.01c0.17-0.84,0.75-1.59,1.51-1.97l-1.05-1.49l-1.48,0.86H62.39z" fill="#FFD54F"/>
        <path d="M73.25,36.78l-6.85,4.13c-0.57,0.34-2.74,1.89-6.27-0.41l-6.85-4.28c-1.38-0.84-0.7-1.79,0.08-2.33 l7.81-4.63c1.07-0.64,2.57-0.71,3.48-0.15l8.71,5.23C74.61,35.08,73.82,36.55,73.25,36.78z" fill="#F9E295"/>
      </g>
      <g enable-background="new " opacity="0.78">
        <path d="M25.56,44.88c0.13,0.61,0.68,0.97,1.17,1.27c0.52,0.29,1.07,0.51,1.63,0.71 c1.13,0.38,2.29,0.67,3.45,0.93c2.34,0.52,4.68,0.8,7.1,1.2c2.39,0.46,4.78,1.32,6.78,2.87c0.97,0.77,1.94,1.7,2.52,2.92 c0.6,1.21,0.72,2.5,1.05,3.54c0.58,2.09,2.37,3.64,4.34,4.68c2.01,1.04,4.32,1.65,6.62,2.42c2.3,0.75,4.62,1.69,6.75,2.95 c0.54,0.31,1.06,0.64,1.58,0.99c0.26,0.17,0.51,0.35,0.76,0.53c0.25,0.18,0.52,0.38,0.71,0.5c0.83,0.57,1.81,0.87,2.84,0.86 c2.04-0.03,4.29-0.93,5.7-2.48c1.6-1.67,3.13-3.61,5.11-5.22c0.48-0.39,1.12-0.79,1.58-1.07c0.5-0.3,0.96-0.63,1.43-0.96 c0.91-0.68,1.76-1.44,2.45-2.3c1.4-1.7,2.03-3.88,1.52-6.01c-0.24-1.06-0.72-2.08-1.34-3.01c-0.32-0.46-0.65-0.9-1.04-1.23 c-0.41-0.35-0.88-0.67-1.37-0.98c-0.99-0.63-2.05-1.2-3.08-1.89c-0.51-0.35-1.03-0.74-1.48-1.24c-0.22-0.25-0.43-0.52-0.6-0.86 c-0.16-0.33-0.28-0.75-0.2-1.18c0.19-0.89,0.85-1.31,1.37-1.64c0.56-0.33,1.13-0.56,1.7-0.77c1.15-0.42,2.3-0.75,3.45-1.1 c1.14-0.35,2.28-0.71,3.38-1.16c0.55-0.22,1.1-0.47,1.61-0.76c0.49-0.31,1.1-0.58,1.26-1.19c-0.11,0.62-0.72,0.97-1.18,1.32 c-0.5,0.34-1.03,0.64-1.57,0.91c-1.09,0.53-2.21,0.97-3.34,1.39c-1.12,0.42-2.25,0.83-3.33,1.3c-0.54,0.24-1.06,0.5-1.52,0.81 c-0.45,0.3-0.84,0.7-0.86,1.04c-0.05,0.33,0.22,0.76,0.6,1.14c0.38,0.38,0.83,0.69,1.32,1c0.99,0.6,2.06,1.12,3.13,1.73 c0.54,0.31,1.07,0.63,1.59,1.05c0.54,0.43,0.96,0.95,1.34,1.46c0.75,1.03,1.35,2.2,1.69,3.47c0.33,1.27,0.39,2.65,0.07,3.96 c-0.31,1.31-0.95,2.5-1.74,3.53c-0.79,1.03-1.73,1.9-2.73,2.67c-0.5,0.37-1.01,0.75-1.54,1.08c-0.56,0.36-0.93,0.61-1.38,0.97 c-1.75,1.42-3.21,3.29-4.9,5.09c-0.42,0.44-0.94,0.94-1.51,1.31c-0.56,0.37-1.13,0.69-1.74,0.95c-1.2,0.52-2.52,0.86-3.89,0.84 c-1.37,0-2.78-0.43-3.93-1.22c-0.31-0.2-0.52-0.37-0.76-0.54c-0.23-0.18-0.47-0.34-0.71-0.5c-0.48-0.33-0.97-0.64-1.46-0.93 c-1.99-1.19-4.14-2.08-6.37-2.88c-2.22-0.81-4.58-1.45-6.82-2.67c-1.11-0.61-2.17-1.39-3.04-2.35c-0.89-0.93-1.6-2.16-1.91-3.43 c-0.33-1.26-0.41-2.41-0.86-3.38c-0.4-0.99-1.17-1.82-2.03-2.57c-1.74-1.48-3.94-2.41-6.21-3.02c-1.13-0.31-2.32-0.49-3.5-0.74 c-1.18-0.25-2.35-0.51-3.52-0.82c-1.16-0.31-2.32-0.66-3.44-1.12c-0.56-0.24-1.11-0.49-1.61-0.83 C26.18,45.92,25.64,45.5,25.56,44.88z" fill="#823315"/>
      </g>
      <path d="M65.74,66.09c2.7-0.26,5.33-0.5,7.98-0.82c2.65-0.3,5.27-0.68,7.97-0.99c-2.49,1.08-5.17,1.65-7.85,1.98 C71.15,66.56,68.41,66.61,65.74,66.09z" fill="#FEF6E0"/>
      <path d="M74.4,109.43c2.68-0.4,5.3-0.77,7.93-1.23c2.63-0.44,5.23-0.95,7.9-1.4c-2.44,1.21-5.07,1.92-7.74,2.39 C79.83,109.62,77.09,109.81,74.4,109.43z" fill="#FEF6E0"/>
      <g enable-background="new " opacity="0.36">
        <path d="M62.16,27.86c9.45,0,17.87,1.5,27.29,4.86c0.6,0.22,1.23,0.44,1.87,0.66c3.42,1.2,7.29,2.57,9.6,3.87 l0.06,0.03c4.54,2.56,9.02,8.52,7.2,15.77c-1.49,5.52-4.54,9.55-4.54,9.55c4.15,2.08,1.44,10.24,1.44,10.24 c1.02,1.07,3.81,2.3,3.39,6.9c0,4.11-3.78,9.41-5.36,10.92c-7.47,7.18-23.31,11.82-40.37,11.82c-18.2,0-35.36-5.41-41.74-13.17 c-4.99-4.27-3.57-10.23-3.09-11.03l0.78-1.29c0,0-5.22-4.23-4.38-14.24c0.25-4.81,2.76-6.41,2.76-6.41s-3.89-16.1,12.38-22 c9.39-3.92,18.56-5.54,18.56-5.54C52.32,28.18,56.94,27.86,62.16,27.86 M62.16,25.79c-15.52-0.45-27.38,4.02-33.47,6.66 c-16.43,6.68-13.5,20.69-13.18,21.86c-0.82,1.06-3.08,4.34-3.25,8.38c-0.35,8.59,3.71,14.34,3.89,14.54 c-0.6,0.99-2.26,7.82,3.26,13.42c6.55,7.97,23.51,13.92,43.34,13.92c18.46,0,34.37-5.25,41.8-12.4 c1.47-1.42,5.99-7.24,5.99-12.42c0.22-5.67-2.29-8.35-3.59-9.72c0.75-1.68,1.03-3.68,0.84-5.34c-0.19-1.67-0.53-2.72-1.04-4.05 c0,0,4.11-4.41,4.11-9.65c-0.33-10.39-4.19-12.86-8.93-15.54c-2.91-1.65-7.83-3.27-11.8-4.68 C81.99,27.86,73.26,25.79,62.16,25.79L62.16,25.79z" fill="#823315"/>
      </g>
    </g>
  </g>
</svg>