<svg viewBox="0 0 128 128" xmlns="http://www.w3.org/2000/svg">
  <defs>
    <linearGradient id="b" gradientTransform="matrix(-1 0 0 1 0 0)" gradientUnits="userSpaceOnUse" x1="-65.791" x2="-43.931" y1="59.964" y2="125.12">
      <stop offset=".3565" stop-color="#BA8D68"/>
      <stop offset="1" stop-color="#A47B62"/>
    </linearGradient>
    <linearGradient id="a" gradientTransform="matrix(-1 0 0 1 0 0)" gradientUnits="userSpaceOnUse" x1="-72.237" x2="-65.904" y1="70.202" y2="84.036">
      <stop offset=".1952" stop-color="#A47B62"/>
      <stop offset=".9987" stop-color="#A47B62" stop-opacity="0"/>
    </linearGradient>
  </defs>
  <path d="M18.33,61.39 C29.89,61.39 40.55,70.23 46.66,70.23 C52.7,70.23 61.52,67.18 56.23,55.74 C54.57,54.76 53.17,53.27 52.44,51.21 C48.66,47.5 42.77,43.21 42.77,43.21 C42.77,43.21 16.21,60.7 8.54,50.61 C4.34,45.08 8.95,40.47 14.19,38.23 C23.28,34.36 28.43,31.48 35.6,25.47 C40.46,20.72 47.69,22.33 51.42,24.66 C54.16,26.37 54.41,26.14 54.41,26.14 L53.88,32.91 C54.35,30.35 54.92,27.59 55.65,24.17 C56.6,19.7 63.42,12.43 73.27,18.04 C89.6,27.33 110.95,37.94 116.81,50.56 C122.75,63.36 124.11,81.49 117.73,94.14 C113.17,103.19 103.85,111.5 95.61,114.44 C81.18,119.59 55.24,115.8 44.75,102 C37.15,92 38.66,84.02 16.99,76.7 C16.99,76.7 8.66,74.27 8.23,70.35 C7.44,63.03 13.44,61.39 18.33,61.39 Z" fill="url(#b)"/>
  <path d="M64.98,56.42 C64.54,60.55 66.54,64.84 69.99,67.16 C73.44,69.47 78.17,69.7 81.82,67.72 C81.59,72.61 84.77,77.48 89.35,79.23 C81.52,82.66 74.58,88.09 69.36,94.85 C68.44,84.12 60.93,74.24 50.84,70.48 C53.55,70.23 55.92,68.27 57.11,65.83 C58.11,63.78 57.14,59.65 58.22,58.16 C59.02,57.07 64.83,57.82 64.98,56.42 Z" fill="url(#a)"/>
  <path d="M98.69,34.953 Q96.83,34.251 87.791,32.065 Q79.359,30.027 76.73,29.545 Q71.659,28.625 69.047,30.771 Q66.6,32.782 66.6,37.23 Q66.601,38.277 66.601,40.383 Q66.599,57.676 67.22,60.709 Q68.167,65.343 72.264,67.072 Q76.333,68.789 79.339,64.578 Q79.775,63.968 80.298,63.881 Q80.821,63.793 81.432,64.229 Q82.652,65.101 81.781,66.322 Q77.379,72.486 71.098,69.836 Q65.545,67.492 64.28,61.311 Q63.599,57.98 63.601,40.383 Q63.601,38.275 63.6,37.23 Q63.6,31.364 67.143,28.454 Q70.828,25.425 77.27,26.595 Q79.982,27.091 88.496,29.15 Q97.716,31.379 99.75,32.147 Q101.153,32.677 100.623,34.08 Q100.093,35.483 98.69,34.953 Z" fill="#91674D"/>
  <path d="M102.61,44.72 Q96.007,44.72 88.663,45.177 Q84.929,45.405 82.72,47.697 Q80.43,50.073 80.648,53.905 Q81.217,64.032 83.621,73.158 Q84.37,76.01 89.938,76.524 Q96.114,77.094 100.542,73.726 Q101.736,72.818 102.644,74.012 Q103.552,75.206 102.358,76.114 Q97,80.188 89.662,79.511 Q82.003,78.804 80.719,73.922 Q78.239,64.503 77.652,54.075 Q77.36,48.935 80.56,45.615 Q83.58,42.482 88.477,42.183 Q95.913,41.72 102.61,41.72 Q104.11,41.72 104.11,43.22 Q104.11,44.72 102.61,44.72 Z" fill="#91674D"/>
  <path d="M55.065,56.784 Q49.741,53.386 50.488,46.412 Q51.581,36.088 54.193,23.868 Q55.261,18.843 60.407,16.02 Q66.689,12.574 74.022,16.746 Q76.018,17.882 80.201,20.215 Q95.893,28.967 102.761,33.834 Q114.602,42.225 118.181,49.939 Q122.95,60.217 123.399,72.361 Q123.877,85.312 119.08,94.825 Q115.574,101.781 109.07,107.701 Q102.664,113.529 96.125,115.863 Q83.517,120.368 69.782,117.827 Q53.756,114.863 43.619,102.984 Q41.225,100.179 38.23,94.932 Q34.778,88.884 31.725,86.133 Q26.645,81.556 16.55,78.141 Q7.275,75.431 6.749,70.521 Q6.116,64.654 10.335,61.874 Q13.345,59.89 18.34,59.89 Q25.364,59.89 37.438,65.488 Q44.429,68.73 46.67,68.73 Q52.005,68.73 54.668,66.19 Q57.862,63.143 55.065,56.784 Z M57.301,54.622 Q60.85,56.571 64.161,55.186 Q65.545,54.607 66.124,55.991 Q66.413,56.683 66.212,57.174 Q66.011,57.664 65.319,57.954 Q62.126,59.289 58.86,58.462 Q60.6,64.678 56.739,68.36 Q53.206,71.73 46.67,71.73 Q43.767,71.73 36.176,68.21 Q24.703,62.89 18.34,62.89 Q14.244,62.89 11.985,64.379 Q9.295,66.152 9.731,70.199 Q10.044,73.121 17.42,75.27 Q17.45,75.279 17.48,75.289 Q28.186,78.905 33.733,83.904 Q37.144,86.978 40.835,93.445 Q43.69,98.446 45.901,101.036 Q55.348,112.107 70.328,114.878 Q83.268,117.271 95.115,113.037 Q101.09,110.906 107.05,105.482 Q113.145,99.936 116.4,93.475 Q120.851,84.651 120.401,72.472 Q119.975,60.931 115.459,51.201 Q112.216,44.211 101.027,36.282 Q94.291,31.508 78.74,22.835 Q74.545,20.495 72.538,19.354 Q66.662,16.011 61.85,18.65 Q57.909,20.812 57.127,24.492 Q54.548,36.561 53.472,46.728 Q52.931,51.771 56.588,54.194 Q56.999,54.261 57.301,54.622 Z" fill="#91674D"/>
  <path d="M101.23,66.54 C99.38,63.1 92.36,64.68 92.36,64.68 L94.38,59.59 C94.92,58.24 96.64,57.87 97.68,58.88 C99.72,60.87 102.93,63.67 106,65.03 C107.07,65.5 107.58,66.71 107.08,67.77 C105.77,70.59 103.72,75.77 104.11,79.93 C104.21,81.01 103.27,81.89 102.2,81.74 C82.16,79 73.16,97.17 73.16,97.17 C73.16,97.17 74.45,85.63 85.61,78.67 C89.58,76.19 91.23,77.25 92.31,77.29 C95.13,77.38 98.42,77.03 100.06,75.07 C101.16,73.73 103.08,69.98 101.23,66.54 Z" fill="#91674D"/>
  <path d="M36.66,68.5 C36.66,68.5 41.83,71.66 45.48,72.41 C49.13,73.16 53.58,73.06 60.12,79.83 C62.53,82.32 64.65,87.25 65.7,89.96 C65.79,90.2 66.16,90.12 66.14,89.86 C65.8,85.7 63.81,73.78 52.12,70.22" fill="#91674D"/>
  <path d="M55.448,27.223 Q54.367,28.259 50.628,25.934 Q47.593,24.038 43.882,23.909 Q39.499,23.757 36.648,26.543 Q36.607,26.583 36.564,26.62 Q27.556,34.17 14.778,39.61 Q10.679,41.354 9.109,43.954 Q7.454,46.695 9.735,49.704 Q13.832,55.098 27.963,49.314 Q35.427,46.26 41.945,41.967 Q42.812,41.396 43.652,42.007 Q49.643,46.363 53.492,50.151 Q54.561,51.203 53.509,52.272 Q52.457,53.341 51.388,52.289 Q47.965,48.921 42.718,45.042 Q36.334,49.13 29.099,52.091 Q12.836,58.747 7.345,51.516 Q3.834,46.886 6.541,42.403 Q8.612,38.974 13.602,36.85 Q25.94,31.597 34.594,24.356 Q38.352,20.715 43.986,20.911 Q48.5,21.068 52.212,23.386 Q53.594,24.245 54.287,24.558 Q54.365,24.548 54.444,24.549 Q54.974,24.561 55.493,25.102 Q56.531,26.185 55.448,27.223 Z" fill="#91674D"/>
  <path d="M38.6,43.92 C40.86,42.36 42.74,40.01 44.25,37.49 C44.5,37.07 45.15,37.17 45.25,37.65 C45.69,39.84 44.73,42.61 43.73,43.92" fill="#91674D"/>
</svg>