<svg viewBox="0 0 128 128" xmlns="http://www.w3.org/2000/svg">
  <defs>
    <linearGradient id="leg_2_" gradientTransform="matrix(0.9962 0.0876 0.0876 -0.9962 0 0)" gradientUnits="userSpaceOnUse" x1="100.213603" x2="78.185003" y1="-102.30507" y2="-84.35717">
      <stop offset="0.5979" stop-color="#F9DDBD"/>
      <stop offset="1" stop-color="#FFD29C"/>
    </linearGradient>
    <linearGradient id="leg_3_" gradientTransform="matrix(1 0 0 -1 0 0)" gradientUnits="userSpaceOnUse" x1="40.1253" x2="56.1253" y1="-101.3786" y2="-84.7536">
      <stop offset="0.5979" stop-color="#F9DDBD"/>
      <stop offset="1" stop-color="#FFD29C"/>
    </linearGradient>
    <linearGradient id="arm_2_" gradientTransform="matrix(1 0 0 -1 0 0)" gradientUnits="userSpaceOnUse" x1="32.3996" x2="50.6496" y1="-63.7037" y2="-58.8704">
      <stop offset="0.5979" stop-color="#F9DDBD"/>
      <stop offset="1" stop-color="#FFD29C"/>
    </linearGradient>
    <linearGradient id="arm_3_" gradientTransform="matrix(0.9858 0.1678 0.1678 -0.9858 0 0)" gradientUnits="userSpaceOnUse" x1="106.335574" x2="80.475174" y1="-7.089355" y2="-30.624155">
      <stop offset="0.5979" stop-color="#F9DDBD"/>
      <stop offset="1" stop-color="#FFD29C"/>
    </linearGradient>
    <linearGradient id="hand_2_" gradientTransform="matrix(1 0 0 -1 0 0)" gradientUnits="userSpaceOnUse" x1="31.0074" x2="35.8356" y1="-73.9267" y2="-78.8842">
      <stop offset="0.5979" stop-color="#F9DDBD"/>
      <stop offset="1" stop-color="#FFD29C"/>
    </linearGradient>
    <linearGradient id="hand_3_" gradientTransform="matrix(0.9964 -0.0843 -0.0843 -0.9964 0 0)" gradientUnits="userSpaceOnUse" x1="102.587585" x2="76.727085" y1="-24.595977" y2="-48.130777">
      <stop offset="0.5979" stop-color="#F9DDBD"/>
      <stop offset="1" stop-color="#FFD29C"/>
    </linearGradient>
    <radialGradient id="SVGID_1_" cx="91.386384" cy="4.229644" gradientTransform="matrix(0.987 0.161 0.161 -0.987 0 0)" gradientUnits="userSpaceOnUse" r="11.6795">
      <stop offset="0" stop-color="#CED7DB"/>
      <stop offset="0.3026" stop-color="#BFCBD0"/>
      <stop offset="0.8798" stop-color="#99ABB4"/>
      <stop offset="1" stop-color="#90A4AE"/>
    </radialGradient>
    <radialGradient id="SVGID_2_" cx="71.739043" cy="-25.156199" gradientTransform="matrix(0.9427 0.3337 0.3337 -0.9427 0 0)" gradientUnits="userSpaceOnUse" r="19.4216">
      <stop offset="0" stop-color="#F78C1F"/>
      <stop offset="1" stop-color="#ED6D23"/>
    </radialGradient>
    <radialGradient id="SVGID_3_" cx="71.388912" cy="-4.869282" gradientTransform="matrix(0.954 0.2999 0.4319 -1.3738 0 0)" gradientUnits="userSpaceOnUse" r="7.6264">
      <stop offset="0.45" stop-color="#454140" stop-opacity="0"/>
      <stop offset="1" stop-color="#454140"/>
    </radialGradient>
    <radialGradient id="SVGID_4_" cx="61.675567" cy="-25.512819" gradientTransform="matrix(0.9831 -0.1828 -0.2307 -1.2406 0 0)" gradientUnits="userSpaceOnUse" r="7.7303">
      <stop offset="0.45" stop-color="#454140" stop-opacity="0"/>
      <stop offset="1" stop-color="#454140"/>
    </radialGradient>
    <radialGradient id="SVGID_5_" cx="52.933529" cy="-39.130831" gradientTransform="matrix(0.9795 -0.2016 -0.1516 -0.7362 0 0)" gradientUnits="userSpaceOnUse" r="15.9104">
      <stop offset="0.45" stop-color="#454140" stop-opacity="0"/>
      <stop offset="1" stop-color="#454140"/>
    </radialGradient>
    <radialGradient id="SVGID_6_" cx="72.19493" cy="-23.19583" gradientTransform="matrix(0.9801 0.1985 0.1276 -0.6301 0 0)" gradientUnits="userSpaceOnUse" r="8.5653">
      <stop offset="0.45" stop-color="#454140" stop-opacity="0"/>
      <stop offset="1" stop-color="#454140"/>
    </radialGradient>
  </defs>
  <path id="leg_1_" d="M78.33,95.99 L74.32,80.58 L61.84,85.63 C61.84,85.63 64.66,93.88 65.77,97.65 C66.69,100.77 68.24,103.96 73.3,106.44 L95.54,115.7 L96.14,107.99 L78.33,95.99 Z" fill="url(#leg_2_)"/>
  <path d="M90.17,103.96 C87.04,108.25 87.81,112.5 87.81,112.5 L96.32,116.3 L97.38,108.05 L90.17,103.96 Z" fill="#E0E0E0"/>
  <path d="M101.75,105.24 C101.53,104.6 100.42,104 99.11,104.3 L96.87,104.94 C95.34,105.73 94.98,106.69 94.98,106.69 C94.54,111.84 95.55,115.69 95.55,115.69 L100.13,121.01 C101.26,122.34 103.09,122.85 104.75,122.3 L106.03,121.87 C106.59,121.68 107.18,120.69 106.9,119.58 L101.75,105.24 Z" fill="#4568AD"/>
  <path d="M60.78,83.29 C60.54,84.91 65,95.13 65,95.13 C72.18,94.59 79.7,87.8 79.7,87.8 C79.7,87.8 75.78,83.36 76.14,75.21 L60.78,83.29 Z" fill="#616161"/>
  <path id="leg" d="M44.11,108.6 L52.62,108.53 C52.62,108.53 49.78,92.99 49.03,90.16 L68.83,83.62 L64.48,70.09 L41.74,80.37 C38.86,81.67 35.97,85.24 37.57,91.22 C38.5,94.65 44.11,108.6 44.11,108.6 Z" fill="url(#leg_3_)"/>
  <path d="M51.46,101.64 C45.87,101.17 42.37,104.22 42.37,104.22 L45.37,113.22 L53.12,110.4 L51.46,101.64 Z" fill="#E0E0E0"/>
  <path d="M53.92,115.37 C54.56,115.16 55.18,114.06 54.89,112.75 L54.27,110.5 C53.75,108.86 52.1,107.39 52.1,107.39 C46.92,106.86 43.48,110.35 43.48,110.35 L38.17,113.55 C36.82,114.67 36.29,116.49 36.83,118.16 L37.25,119.45 C37.43,120.01 38.42,120.61 39.53,120.35 L53.92,115.37 Z" fill="#4568AD"/>
  <path d="M47.17,115.09 C42.78,116.8 39.71,118.12 38.44,119.12 C37.11,120.03 38.27,120.66 39.57,120.3 L51.87,116.6 C54.2,115.81 55.05,114.8 54.95,113.68 C54.85,112.57 51.29,113.48 47.17,115.09 Z" fill="#294B7C"/>
  <path d="M46.54,78.19 C51.8,79.24 58.19,89.81 58.19,89.81 C58.19,89.81 68.4,85.18 72.05,83.02 C78.77,79.05 76.92,71.23 74.77,67.4 L72.04,61.44 L52.68,66.37 L52.42,70.55 L53.22,74.73 L46.54,78.19 Z" fill="#7C7C7C"/>
  <path id="shadow_x5F_shirt" d="M53.23,74.74 C63.27,67.69 75.8,69.66 75.8,69.66 C74.26,65.46 71.32,60.07 71.32,60.07 C71.32,60.07 52.5,65.04 52.14,67.62 C51.77,70.2 53.23,74.74 53.23,74.74 Z" opacity="0.2"/>
  <path id="arm_1_" d="M58.47,54.82 L53.7,47.7 L33.12,69.57 C33.12,69.57 33.12,71.11 34.9,72.16 C36.68,73.21 38.44,72.44 38.44,72.44 L58.47,54.82 Z" fill="url(#arm_2_)"/>
  <path id="tone" d="M33.03,72 C33.03,72 31.49,74.53 30.97,77.75 C30.76,79.08 31.22,80.27 31.39,80.49 C31.94,81.2 32.92,81.36 33.24,80.77 C33.51,80.26 32.83,79.41 32.83,78.91 C32.84,78.31 33.18,77.83 33.18,77.83 C33.39,78.45 34.82,79.76 35.29,79.63 C36.62,79.25 34.56,77.59 34.65,76.49 C34.89,73.63 35.98,71.76 35.98,71.76 L33.03,72 Z" fill="#EDBD82"/>
  <path id="hand_1_" d="M39.37,70.45 C39.57,72.26 39.21,72.09 38.84,74.38 C38.62,75.79 39.33,76.33 39.29,77.34 C39.27,77.94 38.59,78.6 37.9,78.2 C36.37,77.31 37.06,73.7 34.18,74.52 C32.07,75.12 31.11,79.76 29.34,81.24 C27.61,82.69 26.17,81.5 26.61,80.96 C26.61,80.96 27.55,79.26 28.66,77.43 C29.99,75.23 30.46,71.15 34.28,68.59 L39.37,70.45 Z" fill="url(#hand_2_)"/>
  <path id="shirt_1_" d="M60.91,40.05 C53.21,46.43 48.19,52.81 48.19,52.81 C52.46,53.09 56.28,59.29 56.28,59.29 C56.28,59.29 66.7,35.25 60.91,40.05 Z" fill="#DB5200"/>
  <path id="head_1_" d="M69.35,15.85 C67.17,11.15 59.89,8.71 54.86,9.93 C49.23,11.3 46.46,15.64 46.04,20.91 C45.89,22.82 46.09,24.7 46.51,26.01 C46.56,26.17 46.96,27.31 47.01,27.67 C47.33,29.06 44.71,30.66 44.51,32.24 C44.36,33.42 46.85,33.98 47.06,34.18 C48.09,35.15 46.96,40.07 53.68,40.25 C56.02,40.31 56.47,40.03 56.47,40.03 L56.94,47.66 L68.12,39.42 C68.12,39.42 66.05,36.14 67.69,32.84 C69.81,28.54 72.13,21.84 69.35,15.85 Z" fill="#F9DDBD"/>
  <path id="mouth_1_" d="M47.95,36.91 C48.88,36.89 49.78,36.61 50.52,35.97 C51.33,35.27 50.69,34.6 49.74,35.1 C49.17,35.4 48.34,35.59 47.57,35.5 L47.95,36.91 Z" fill="#444444"/>
  <path id="eye_1_" d="M52.431,28.008 C52.541,29.041 52.083,29.936 51.408,30.008 C50.732,30.081 50.095,29.302 49.985,28.27 C49.875,27.237 50.333,26.342 51.008,26.27 C51.684,26.198 52.321,26.976 52.431,28.008 Z" fill="#312D2D"/>
  <path id="eyebrow_1_" d="M50.04,25.53 C48.92,26.08 48.51,25.36 48.79,24.66 C49,24.15 49.65,23.64 51.07,23.66 C52.41,23.69 53.08,24.34 53.51,24.73 C53.94,25.12 53.98,25.58 53.69,25.67 C53.28,25.81 51.42,24.85 50.04,25.53 Z" fill="#454140"/>
  <path d="M105.21,15.09 A11.66 11.66 0 1 1 81.89,15.09 A11.66 11.66 0 1 1 105.21,15.09 Z" fill="url(#SVGID_1_)"/>
  <path id="arm" d="M68.48,38.87 C62.91,41.52 67.86,48.05 67.86,48.05 C67.86,48.05 78.61,46.25 82.98,45.22 C89.19,43.78 90.13,41.64 91.64,39.76 C92.85,38.25 98.86,29.36 98.86,29.36 L98.52,26.21 L93.01,27.41 L83.73,35.93 C83.73,35.92 73.35,36.56 68.48,38.87 Z" fill="url(#arm_3_)"/>
  <path id="hand" d="M93.18,27.87 C93.04,25.04 96.64,23.6 96.64,23.6 C96.64,23.6 95.43,20.59 94.96,19.64 C94.5,18.69 94.82,18.03 95,17.93 C95.58,17.6 96.17,17.92 96.35,18.13 C97.12,19.06 98.28,20.68 98.28,20.68 C98.78,20.48 98,17.88 97.61,16.13 C97.38,15.1 98.6,13.98 99.48,15.81 C100.21,17.32 101.15,20.16 101.15,20.16 C101.32,19 101.11,17.18 100.88,14.89 C100.77,13.82 101.21,13.34 101.91,13.28 C102.43,13.23 102.88,13.37 103.24,15.51 C103.35,16.15 103.53,19.76 103.53,19.76 C104.54,19.24 104.79,16.45 104.87,14.65 C104.92,13.38 106.6,13.06 106.82,14.97 C107.27,18.85 105.26,22.16 104.34,23.71 C103.86,24.52 98.56,29.54 98.56,29.54 L93.18,27.87 Z" fill="url(#hand_3_)"/>
  <path d="M79,65.63 C70.24,57.34 74.36,50.2 74.36,50.2 C74.36,50.2 74.44,48.98 78.99,48.06 C78.99,48.06 78.35,42.81 80.97,35.83 C80.97,35.83 70.96,35.93 66.82,37.29 C64.34,38.1 60.33,38.65 56.56,42.85 C54.4,45.25 52.91,47.55 51.39,54.99 C49.7,63.28 53.24,74.75 53.24,74.75 C60.88,66.05 79,65.63 79,65.63 Z" fill="url(#SVGID_2_)"/>
  <path id="hair_2_" d="M73.15,16 C71.57,12.53 68.64,11.6 67.69,11.39 C67.19,10.12 64.73,5.37 56.76,7.09 C54.82,7.51 53.44,8.51 52.21,9.4 C51.68,9.78 51.19,10.14 50.72,10.39 C50.34,10.59 49.66,10.8 49.08,10.64 C47.76,10.27 48.08,8.29 48.08,8.29 C48.08,8.29 43.38,9.46 45.65,13.95 C44.09,14.73 43.44,16.46 43.23,18.06 C42.95,20.25 44.11,22.26 46.24,23.09 C46.24,23.09 45.65,19.62 50.7,19.58 C52.26,19.57 53.91,19.73 55.33,19.08 C55.87,18.83 56.37,18.45 56.89,18.16 C57.01,18.15 57.09,18.15 57.09,18.15 C59.05,19.08 56.76,23.69 59.01,26.22 C59.46,26.72 59.8,26.51 59.8,26.51 L60.59,25.22 C61.19,24.33 61.74,23.56 62.55,23.7 C64.95,24.1 64.73,28.36 61.96,29.43 C61.69,29.54 62.57,34.23 68.4,33.94 C71.41,33.79 72.35,31.24 72.35,31.24 C72.35,31.24 71.08,31.62 70.75,30.55 C70.58,29.99 71.06,29.2 71.96,28.31 C74.56,25.76 73.44,23.03 73,22.18 C73.38,21.36 74.39,18.71 73.15,16 Z" fill="#312D2D"/>
  <path d="M73,22.18 C73.04,22.08 72.27,24.37 68.39,24.19 C66.81,24.27 64.79,28.19 67.23,30.6 C69.39,32.73 72.35,31.24 72.35,31.24 C72.35,31.24 71.94,31.38 71.32,31.2 C70.92,31.08 70.75,30.57 70.75,30.55 C70.58,29.99 71.06,29.2 71.96,28.31 C74.56,25.75 73.44,23.02 73,22.18 Z" fill="url(#SVGID_3_)"/>
  <path d="M73.15,16 C72.32,14.17 70.88,12.67 69.04,11.85 C68.77,11.73 68.12,11.45 67.68,11.39 C67.93,12.21 67.95,13.09 67.64,14.02 C67.63,14.05 67.29,15.43 66.18,16.57 C67.09,17.7 67.58,19.11 68.05,20.48 C68.46,21.68 68.87,23.01 68.39,24.18 C69.13,24.1 70.31,24.25 71.58,23.6 C72.79,22.98 73.37,21.52 73.61,20.22 C73.88,18.81 73.76,17.32 73.15,16 Z" fill="url(#SVGID_4_)"/>
  <path d="M67.64,14.02 C68.45,11.58 67.03,9.45 64.98,8.08 C62.57,6.48 59.5,6.49 56.76,7.08 C54.82,7.5 53.44,8.5 52.21,9.39 C51.68,9.77 51.19,10.13 50.72,10.38 C50.34,10.58 49.66,10.79 49.08,10.63 C47.76,10.26 48.08,8.28 48.08,8.28 C48.08,8.28 43.38,9.45 45.65,13.94 C44.09,14.72 43.44,16.45 43.23,18.05 C42.95,20.24 44.11,22.25 46.24,23.08 C46.24,23.08 45.65,19.61 50.7,19.57 C52.26,19.56 53.91,19.72 55.33,19.07 C56.59,18.49 56.99,17.78 58.43,17.78 C59.98,17.79 62.08,18.28 63.66,17.96 C66.85,17.31 67.63,14.07 67.64,14.02 Z" fill="url(#SVGID_5_)"/>
  <path d="M67.23,30.6 C66.14,29.55 65.77,27.75 64.1,26.86 C63.85,27.93 63.14,28.97 61.96,29.43 C61.69,29.54 62.57,34.23 68.4,33.94 C71.41,33.79 72.35,31.24 72.35,31.24 C72.35,31.24 69.43,32.71 67.23,30.6 Z" fill="url(#SVGID_6_)"/>
</svg>