<svg viewBox="0 0 128 128" xmlns="http://www.w3.org/2000/svg">
  <defs>
    <linearGradient id="SVGID_1_" gradientTransform="matrix(1 0 0 -1 0 0)" gradientUnits="userSpaceOnUse" x1="85.1429" x2="85.701" y1="-96.8622" y2="-125.3272">
      <stop offset="0" stop-color="#00BFA5"/>
      <stop offset="0.4701" stop-color="#00B29A"/>
      <stop offset="1" stop-color="#009E89"/>
    </linearGradient>
    <linearGradient id="shadow_x5F_shirt_2_" gradientTransform="matrix(1 0 0 -1 0 0)" gradientUnits="userSpaceOnUse" x1="75.2228" x2="88.2075" y1="-111.6115" y2="-117.6467">
      <stop offset="0.1968" stop-color="#262626"/>
      <stop offset="1" stop-color="#262626" stop-opacity="0"/>
    </linearGradient>
    <linearGradient id="shadow_x5F_face_2_" gradientTransform="matrix(1 0 0 -1 0 0)" gradientUnits="userSpaceOnUse" x1="90.5908" x2="97.3638" y1="-75.7912" y2="-73.338">
      <stop offset="0.1968" stop-color="#262626"/>
      <stop offset="1" stop-color="#262626" stop-opacity="0"/>
    </linearGradient>
    <linearGradient id="SVGID_2_" gradientTransform="matrix(1 0 0 -1 0 0)" gradientUnits="userSpaceOnUse" x1="68.6415" x2="32.502" y1="-117.2056" y2="-115.5312">
      <stop offset="0" stop-color="#00BFA5"/>
      <stop offset="0.4701" stop-color="#00B29A"/>
      <stop offset="1" stop-color="#009E89"/>
    </linearGradient>
    <linearGradient id="hand_x5F_fill_2_" gradientTransform="matrix(1 0 0 -1 0 0)" gradientUnits="userSpaceOnUse" x1="87.379" x2="46.0767" y1="-67.0263" y2="-113.3518">
      <stop offset="0.5" stop-color="#70534A"/>
      <stop offset="1" stop-color="#5C4037"/>
    </linearGradient>
    <radialGradient id="hairHighlights_1_" cx="154.7199" cy="2.399742" gradientTransform="matrix(1 0 0 -1.1282 0 0)" gradientUnits="userSpaceOnUse" r="101.6437">
      <stop offset="0.8674" stop-color="#444140" stop-opacity="0"/>
      <stop offset="1" stop-color="#444140"/>
    </radialGradient>
    <linearGradient id="SVGID_3_" gradientTransform="matrix(1 0 0 -1 0 0)" gradientUnits="userSpaceOnUse" x1="64.6205" x2="79.0941" y1="-102.398" y2="-102.398">
      <stop offset="0.5" stop-color="#70534A"/>
      <stop offset="1" stop-color="#5C4037"/>
    </linearGradient>
  </defs>
  <path d="M121.39,95.11 C101.55,95.11 62.01,105.12 46.78,124 L48.68,124 L50.8,124 L124,124 L124,98.14 L124,96.63 L124,95.13 C123.13,95.12 122.26,95.11 121.39,95.11 Z" fill="url(#SVGID_1_)"/>
  <path id="shadow_x5F_shirt_1_" d="M95.92,98.57 C81.36,102.58 67.2,106.11 55.95,115.15 C54.93,118.3 53.89,121.51 53.1,124 L82.42,124 L95.92,98.57 Z" fill="url(#shadow_x5F_shirt_2_)" opacity="0.35"/>
  <path d="M104.38,75.85 L104.38,94.43 C104.38,102.67 111.05,109.37 119.24,109.37 C119.24,109.37 123.51,109.34 123.99,109.29 L123.99,75.85 L104.38,75.85 Z" fill="#3C2B24"/>
  <path d="M120.88,11.1 L83.94,11.1 L70.82,11.1 C60.33,11.1 51.74,20.25 51.74,31.42 C51.74,42.59 60.33,51.74 70.82,51.74 L83.94,51.74 L120.88,51.74 L120.88,11.1 Z" fill="#3C2B24"/>
  <path id="head" d="M61.29,11.85 C61.95,34.09 68.66,54.53 80.19,69.39 C90.96,83.28 105.28,91.24 119.49,91.24 C121,91.24 122.5,91.14 124,90.97 L124,4 L71.58,4 L61.36,5 C61.23,7.56 61.21,9.18 61.29,11.85 Z" fill="#70534A"/>
  <path id="mouth" d="M104.54,59.65 C101.28,57.71 97.95,60.68 99.3,63.64 C100.63,66.55 110.78,73.3 119.55,73.3 C121.01,73.3 122.51,73.1 124,72.77 L124,62.02 C116.67,62.55 108.08,61.76 104.54,59.65 Z" fill="#1A1717"/>
  <path id="nose" d="M113.19,45.1 C113,45.12 112.8,45.17 112.62,45.25 C111.48,45.71 110.85,46.9 111.39,48.16 C111.93,49.42 114.44,52.96 119.49,52.96 C121.32,52.96 122.81,52.49 124,51.84 L124,45.1 L113.19,45.1 L113.19,45.1 Z" fill="#33251F"/>
  <path id="eye" d="M98.99,28.78 A8.78 9.09 0 1 1 81.43,28.78 A8.78 9.09 0 1 1 98.99,28.78 Z" fill="#1A1717"/>
  <path id="eyebrow" d="M80.25,16.99 C84.4,15.22 88.5,14.23 93.06,14.84 C95.14,15.12 97.15,15.73 99.07,16.55 C100.56,17.18 102.23,17.71 103.47,16.27 C104.98,14.52 103.64,12.61 102.34,11.28 C100.77,9.67 98.8,8.46 96.71,7.65 C91.96,5.81 86.35,6.04 81.83,8.44 C79.87,9.48 77.71,10.96 76.62,12.97 C75.38,15.28 77.77,18 80.25,16.99 Z" fill="#1A1717"/>
  <path id="shadow_x5F_face_1_" d="M94.94,69.13 C91.63,63.57 87.48,65.33 85.12,66.51 C82.77,67.69 83.28,73.36 83.28,73.36 C87.53,78.03 92.2,81.89 97.13,84.82 C94.43,76.5 97.31,73.1 94.94,69.13 Z" fill="url(#shadow_x5F_face_2_)" opacity="0.35"/>
  <path d="M66.76,116.69 C63.36,113.63 41.22,107.51 41.22,107.51 C40.39,107.18 39.6,107.03 38.86,107.03 C35.62,107.03 33.29,109.85 31.68,112.1 L25.38,124 L27.08,124 L28.78,124 L64.56,124 L66.16,124 L67.73,124 C68.56,121.22 69.07,118.77 66.76,116.69 Z" fill="url(#SVGID_2_)"/>
  <path id="hand_x5F_fill_1_" d="M56.12,119.35 C70.71,119.91 76.02,109.35 77.11,99.38 C77.74,93.62 76.79,88.15 76.79,88.15 C76.79,88.15 84.16,84.18 89.48,74.53 C90.67,72.36 91.18,68.8 89.08,66.66 C86.88,64.42 82.79,63.71 79.1,67.86 C74.68,72.5 72.47,74.75 64.38,78.83 C57.79,82.16 48.5,83.07 42.25,89.07 C29.98,100.84 40.57,118.76 56.12,119.35 Z" fill="url(#hand_x5F_fill_2_)"/>
  <path id="tone_2_" d="M58.6,96.6 C57.48,91.62 54.77,88.69 50.71,87.52 C47.71,86.66 45.72,86.7 49.27,88.44 C53.11,90.32 55.32,93.41 56.16,97.15 C57.15,101.54 55.06,104.52 52.56,105.52 C51.14,106.09 49.06,106.15 48.03,104.35 C46.21,101.18 49.62,99.39 49.63,99.39 C50.26,99.11 50.55,98.37 50.27,97.74 C49.99,97.11 49.26,96.82 48.62,97.1 C48.51,97.15 46.13,98.41 45.1,100.84 C44.08,103.24 45.27,108.38 50.81,108.38 C51.68,108.38 52.61,108.26 53.49,107.84 C60.05,104.78 59.07,98.64 58.6,96.6 Z" fill="#4A2F27"/>
  <path id="tone_1_" d="M68.86,94.03 C67.74,89.05 65.03,86.12 60.97,84.95 C57.97,84.09 55.98,84.13 59.53,85.87 C63.37,87.75 65.58,90.84 66.42,94.58 C67.41,98.97 65.32,101.95 62.82,102.95 C61.4,103.52 59.32,103.58 58.29,101.78 C58.26,101.73 58.24,101.68 58.21,101.63 L56.61,104.11 C57.58,105.11 59.02,105.81 61.06,105.81 C61.93,105.81 62.86,105.69 63.74,105.27 C70.3,102.21 69.32,96.07 68.86,94.03 Z" fill="#4A2F27"/>
  <path id="tone" d="M77.52,90.72 C76.4,85.74 73.69,82.81 69.63,81.64 C66.63,80.78 64.63,80.82 68.19,82.56 C72.03,84.44 74.24,87.53 75.08,91.27 C76.07,95.66 73.98,98.64 71.48,99.64 C70.34,100.1 68.79,100.21 67.68,99.31 C67.35,99.95 66.87,100.88 66.46,101.71 C67.32,102.2 68.4,102.5 69.73,102.5 C70.6,102.5 71.53,102.38 72.41,101.96 C78.97,98.9 77.98,92.76 77.52,90.72 Z" fill="#4A2F27"/>
  <path d="M78.22,98.5 C80.1,101.45 79.01,105.86 74.3,107.85 C70.27,109.56 67.08,108.71 65.62,106.58 C63.65,103.69 64.58,99.4 68.42,97.31 C72.26,95.22 76.46,95.74 78.22,98.5 Z" fill="url(#SVGID_3_)"/>
  <path id="tone_3_" d="M78.89,102.8 C78.41,104.87 77.15,106.87 75.26,108.19 C74.32,108.85 73.24,109.32 72.1,109.61 C70.96,109.87 69.76,109.92 68.55,109.74 C67.36,109.52 66.11,109.07 65.11,108 C64.87,107.74 64.63,107.39 64.48,107.09 C64.36,106.83 64.23,106.57 64.12,106.3 C63.91,105.75 63.71,105.19 63.62,104.59 C63.4,103.41 63.51,102.09 64.04,100.99 C64.56,99.88 65.45,99.06 66.44,98.58 C65.99,99.6 65.64,100.55 65.56,101.46 C65.47,102.36 65.6,103.22 65.88,104.06 C66.02,104.48 66.19,104.9 66.38,105.32 C66.47,105.53 66.59,105.74 66.69,105.95 C66.77,106.12 66.84,106.2 66.94,106.34 C67.37,106.82 68.16,107.22 69,107.41 C69.85,107.62 70.79,107.67 71.7,107.54 C72.63,107.45 73.54,107.18 74.4,106.77 C76.18,105.97 77.68,104.55 78.89,102.8 Z" fill="#4A2F27"/>
  <path id="hair" d="M71.58,4 C71.48,4.37 71.38,4.75 71.28,5.13 C70.82,6.9 70.36,8.72 69.91,10.57 C69.78,11.07 69.66,11.57 69.53,12.08 C69.53,12.1 69.52,12.12 69.52,12.14 C69.01,14.21 68.51,16.29 68.03,18.3 C67.9,18.85 67.77,19.38 67.65,19.9 C67.48,20.62 67.31,21.33 67.15,22.02 C67.14,22.05 67.14,22.08 67.13,22.11 C67.03,22.56 66.92,23.01 66.82,23.44 C66.75,23.73 66.69,24.02 66.62,24.3 C66.53,24.7 66.44,25.09 66.35,25.48 C66.29,25.73 66.23,25.98 66.18,26.22 C66.09,26.61 66,27 65.91,27.37 C65.9,27.43 65.89,27.49 65.88,27.54 C65.8,27.89 65.72,28.22 65.65,28.55 C65.5,29.18 65.37,29.78 65.24,30.34 C65.09,31.01 64.95,31.62 64.83,32.17 C64.73,32.57 64.65,32.93 64.58,33.26 C64.58,33.28 64.57,33.3 64.57,33.32 C64.43,33.92 63.6,33.99 63.38,33.41 C62.3,30.68 60.36,25.59 59.24,22.65 L58.81,21.53 L58.37,20.38 C58.37,20.38 57.17,13.69 57.05,4 L71.58,4 L71.58,4 Z" fill="#232020"/>
  <path id="hairHighlights" d="M57.05,4 L71.57,4 C71.48,4.37 71.38,4.75 71.28,5.13 C70.82,6.9 70.36,8.72 69.91,10.57 C69.78,11.07 69.66,11.57 69.53,12.08 C69.53,12.1 69.52,12.12 69.52,12.14 C69.01,14.21 68.51,16.29 68.03,18.3 C67.9,18.85 67.77,19.38 67.65,19.9 C67.48,20.62 67.31,21.33 67.15,22.02 C67.14,22.05 67.14,22.08 67.13,22.11 C67.03,22.56 66.92,23.01 66.82,23.44 C66.75,23.73 66.69,24.02 66.62,24.3 C66.53,24.7 66.44,25.09 66.35,25.48 C66.29,25.73 66.23,25.98 66.18,26.22 C66.09,26.61 66,27 65.91,27.37 C65.9,27.43 65.89,27.49 65.88,27.54 C65.8,27.89 65.72,28.22 65.65,28.55 C65.5,29.18 65.37,29.78 65.24,30.34 C65.09,31.01 64.95,31.62 64.83,32.17 C64.73,32.57 64.65,32.93 64.58,33.26 C64.45,33.86 63.62,33.92 63.4,33.35 L58.81,21.53 L58.37,20.38 C58.37,20.38 57.17,13.69 57.05,4 Z" fill="url(#hairHighlights_1_)"/>
  <path d="M21.2,33.14 Q21.2,52.484 30.615,65.151 Q35.25,71.387 39.756,73.773 L37.884,77.307 Q32.58,74.498 27.405,67.537 Q17.2,53.808 17.2,33.14 Z" fill="#B0BEC5"/>
  <path d="M41.14,66.27 L30.91,77.86 L44.45,80.83 Z" fill="#B0BEC5"/>
</svg>