<svg viewBox="0 0 128 128" xmlns="http://www.w3.org/2000/svg">
  <defs>
    <linearGradient id="hat_x5F_back_2_" gradientTransform="matrix(1 0 0 -1 0 0)" gradientUnits="userSpaceOnUse" x1="55.843" x2="55.843" y1="-39.1748" y2="-73.8739">
      <stop offset="5.450581e-05" stop-color="#05080F"/>
      <stop offset="0.1125" stop-color="#070A15"/>
      <stop offset="0.2637" stop-color="#0B1026"/>
      <stop offset="0.4371" stop-color="#131A42"/>
      <stop offset="0.6268" stop-color="#1D286A"/>
      <stop offset="0.8276" stop-color="#2B399B"/>
      <stop offset="1" stop-color="#384ACC"/>
    </linearGradient>
    <linearGradient id="shirt_2_" gradientTransform="matrix(1 0 0 -1 0 0)" gradientUnits="userSpaceOnUse" x1="55.306" x2="55.306" y1="-95.9869" y2="-137.8038">
      <stop offset="0" stop-color="#384ACC"/>
      <stop offset="0.216" stop-color="#3548BF"/>
      <stop offset="0.6146" stop-color="#2F449D"/>
      <stop offset="0.9606" stop-color="#283F7A"/>
    </linearGradient>
    <linearGradient id="SVGID_6_" gradientTransform="matrix(1 0 0 -1 0 0)" gradientUnits="userSpaceOnUse" x1="55.8605" x2="55.8605" y1="-21.9135" y2="-58.7288">
      <stop offset="0.2075" stop-color="#384ACC"/>
      <stop offset="1" stop-color="#1D3678"/>
    </linearGradient>
    <linearGradient id="hand_2_" gradientTransform="matrix(1 0 0 -1 0 0)" gradientUnits="userSpaceOnUse" x1="89.2016" x2="112.7829" y1="-102.051" y2="-117.8184">
      <stop offset="0.5" stop-color="#A56C43"/>
      <stop offset="1" stop-color="#8D5738"/>
    </linearGradient>
    <linearGradient id="SVGID_1_" gradientTransform="matrix(1 0 0 -1 0 0)" gradientUnits="userSpaceOnUse" x1="18.9019" x2="55.583" y1="-75.8295" y2="-75.8295">
      <stop offset="0" stop-color="#BDBDBD"/>
      <stop offset="0.1386" stop-color="#FFFFFF" stop-opacity="0"/>
    </linearGradient>
    <linearGradient id="SVGID_2_" gradientTransform="matrix(1 0 0 -1 0 0)" gradientUnits="userSpaceOnUse" x1="55.652" x2="92.3331" y1="-75.8295" y2="-75.8295">
      <stop offset="0.8614" stop-color="#FFFFFF" stop-opacity="0"/>
      <stop offset="1" stop-color="#BDBDBD"/>
    </linearGradient>
    <linearGradient id="SVGID_3_" gradientTransform="matrix(1 0 0 -1 0 0)" gradientUnits="userSpaceOnUse" x1="96.2588" x2="120.7042" y1="-113.0725" y2="-113.0725">
      <stop offset="0" stop-color="#384ACC"/>
      <stop offset="0.216" stop-color="#3548BF"/>
      <stop offset="0.6146" stop-color="#2F449D"/>
      <stop offset="0.9606" stop-color="#283F7A"/>
    </linearGradient>
    <radialGradient id="SVGID_4_" cx="55.7895" cy="-3.855145" gradientTransform="matrix(1 0 0 -0.9637 0 0)" gradientUnits="userSpaceOnUse" r="33.9296">
      <stop offset="0" stop-color="#FFFFFF"/>
      <stop offset="0.4129" stop-color="#FAF9F8"/>
      <stop offset="0.9948" stop-color="#EBEAE6"/>
      <stop offset="0.9953" stop-color="#EBEAE6"/>
    </radialGradient>
    <linearGradient id="SVGID_5_" gradientTransform="matrix(1 0 0 -1 0 0)" gradientUnits="userSpaceOnUse" x1="58.1389" x2="57.7181" y1="-4.0125" y2="-22.5301">
      <stop offset="0.3696" stop-color="#3649BF"/>
      <stop offset="1" stop-color="#2C4585"/>
    </linearGradient>
  </defs>
  <path id="hat_x5F_back_1_" d="M105.69,56.69 A49.85 18.32 0 1 1 5.99,56.69 A49.85 18.32 0 1 1 105.69,56.69 Z" fill="url(#hat_x5F_back_2_)"/>
  <path d="M55.58,30.4 C55.58,30.4 32.62,31.49 19.83,35.37 C19.36,38.54 16,101.89 25.83,115.54 C29.73,120.95 39.02,121.25 39.02,121.25 L55.58,121.22 L55.58,30.4 Z" fill="#E7E7E7"/>
  <path d="M55.65,30.4 C55.65,30.4 78.61,31.49 91.4,35.37 C91.87,38.54 95.23,101.89 85.4,115.54 C81.5,120.95 72.21,121.25 72.21,121.25 L55.65,121.22 L55.65,30.4 Z" fill="#E7E7E7"/>
  <path d="M55.58,30.4 C55.58,30.4 32.62,31.49 19.83,35.37 C19.36,38.54 16,101.89 25.83,115.54 C29.73,120.95 39.02,121.25 39.02,121.25 L55.58,121.22 L55.58,30.4 Z" fill="url(#SVGID_1_)"/>
  <path d="M55.65,30.4 C55.65,30.4 78.61,31.49 91.4,35.37 C91.87,38.54 95.23,101.89 85.4,115.54 C81.5,120.95 72.21,121.25 72.21,121.25 L55.65,121.22 L55.65,30.4 Z" fill="url(#SVGID_2_)"/>
  <path id="shirt_1_" d="M104.62,124.03 L104.62,121.05 C104.62,104.26 79.63,95.96 55.31,95.99 C31.14,96.02 6,103.27 6,121.04 L6,124.02 L104.62,124.02 Z" fill="url(#shirt_2_)"/>
  <path d="M112.3,102.32 C111.71,102.01 110.99,102.21 110.65,102.78 C108.77,105.93 105.09,108.26 101.53,110.52 C99.89,111.56 98.21,112.63 96.75,113.75 C96.3,114.1 96.14,114.71 96.37,115.23 L100.2,123.96 L101.56,123.96 L104.05,123.96 L117.97,123.96 L119.27,123.96 L120.52,123.96 C121.03,118.84 121.16,107.03 112.3,102.32 Z" fill="url(#SVGID_3_)"/>
  <path d="M36.68,102.22 L38.73,104.54 L41.8,104.16 L40.24,106.82 L41.54,109.62 L38.53,108.96 L36.27,111.07 L35.96,108 L33.26,106.5 L36.09,105.26 Z" fill="#F9F722"/>
  <path d="M33.4,114.54 L33.9,117.2 L36.37,118.3 L33.99,119.59 L33.71,122.28 L31.75,120.43 L29.1,120.99 L30.26,118.55 L28.91,116.21 L31.59,116.56 Z" fill="#F9F722"/>
  <path d="M57.18,123.97 L64.03,123.97 L63.78,122.98 L66.8,119.52 L62.22,119.22 L59.86,115.28 L58.17,119.54 L53.69,120.56 L57.22,123.5 Z" fill="#F9F722"/>
  <path d="M17.12,109.56 L19.27,111.76 L22.3,111.25 L20.87,113.97 L22.3,116.69 L19.27,116.17 L17.12,118.38 L16.68,115.33 L13.92,113.97 L16.68,112.61 Z" fill="#F9F722"/>
  <path d="M79.25,107.19 L79.39,110.52 L82.21,112.29 L79.09,113.45 L78.27,116.68 L76.2,114.07 L72.88,114.3 L74.72,111.52 L73.48,108.43 L76.69,109.32 Z" fill="#F9F722"/>
  <path id="neck" d="M55.61,88.1 L46.53,88.1 L46.53,98.08 C46.53,102.59 50.23,106.25 54.79,106.25 L56.44,106.25 C61,106.25 64.7,102.59 64.7,98.08 L64.7,88.1 L55.61,88.1 Z" fill="#7A4C32"/>
  <path id="head_3_" d="M55.61,15.04 L55.61,15.04 L55.61,15.04 C38.41,15.04 22.48,27.83 22.48,54.95 C22.48,76.73 35.97,89.62 47.71,93.78 C50.51,94.77 53.21,95.27 55.61,95.27 C57.99,95.27 60.68,94.78 63.46,93.8 C75.22,89.66 88.74,76.77 88.74,54.96 C88.74,27.83 72.81,15.04 55.61,15.04 Z" fill="#A56C43"/>
  <path d="M89.88,40.78 L86.83,88.58 L83.05,88.6 L85.23,60.62 C85.29,56.79 85.72,47.78 82.68,45.59 C78.99,42.93 68.7,35.92 65.41,28.73 C65.41,28.73 52.76,40.59 30.4,45.62 C24.31,46.99 25.19,57.8 25.24,60.71 C25.38,67.99 26.13,80.04 26.72,88.83 L23.36,88.84 C21.53,74.55 21.34,39.06 22.17,35.17 C24.21,34.32 40.14,26.48 48.47,25.45 C60.68,23.94 82.03,36.02 89.88,40.78 Z" fill="url(#SVGID_4_)"/>
  <path id="mouth_2_" d="M64.14,76.15 C61.02,78.01 50.77,78.01 47.64,76.15 C45.85,75.08 44.01,76.72 44.76,78.35 C45.49,79.95 51.08,83.67 55.92,83.67 C60.76,83.67 66.27,79.95 67,78.35 C67.75,76.72 65.93,75.08 64.14,76.15 Z" fill="#473530"/>
  <path id="nose_2_" d="M59.67,68.38 C59.57,68.34 59.46,68.31 59.35,68.3 L52.41,68.3 C52.3,68.31 52.2,68.34 52.09,68.38 C51.46,68.63 51.12,69.29 51.41,69.98 C51.7,70.67 53.09,72.62 55.87,72.62 C58.65,72.62 60.04,70.67 60.33,69.98 C60.64,69.29 60.3,68.64 59.67,68.38 Z" fill="#875334"/>
  <path d="M44.52,59.26 A4.83 5.01 0 1 1 34.86,59.26 A4.83 5.01 0 1 1 44.52,59.26 Z" fill="#42312C"/>
  <path d="M77.15,59.26 A4.83 5.01 0 1 1 67.49,59.26 A4.83 5.01 0 1 1 77.15,59.26 Z" fill="#42312C"/>
  <path d="M46.4,51.12 C45.54,49.98 43.55,48.32 39.68,48.32 C35.81,48.32 33.82,49.98 32.96,51.12 C32.58,51.63 32.68,52.21 32.94,52.56 C33.18,52.89 33.91,53.19 34.71,52.92 C35.51,52.65 37.07,51.84 39.68,51.82 C42.29,51.84 43.85,52.65 44.65,52.92 C45.45,53.19 46.17,52.89 46.42,52.56 C46.69,52.21 46.78,51.63 46.4,51.12 Z" fill="#FFFFFF"/>
  <path d="M79.03,51.12 C78.17,49.98 76.18,48.32 72.31,48.32 C68.45,48.32 66.45,49.98 65.59,51.12 C65.21,51.63 65.31,52.21 65.57,52.56 C65.82,52.89 66.54,53.19 67.34,52.92 C68.14,52.65 69.7,51.84 72.31,51.82 C74.92,51.84 76.48,52.65 77.28,52.92 C78.08,53.19 78.8,52.89 79.05,52.56 C79.32,52.21 79.41,51.63 79.03,51.12 Z" fill="#FFFFFF"/>
  <path d="M74.15,17.45 C74.69,16.41 85.38,18.77 86.5,17.01 C87.67,15.16 81.85,7.37 69.3,4.92 C65.08,4.09 59.34,2.97 52.21,5.33 C48.01,6.72 29.34,13.43 25.21,38.08 C25.2,38.14 89.53,38.32 89.53,38.32 C86.95,29.75 73.61,18.49 74.15,17.45 Z" fill="url(#SVGID_5_)"/>
  <path d="M105.82,54.92 C99.12,26.47 59.29,14.61 32.66,26.51 C24.19,30.05 15.51,36.16 9.91,44.98 C8.07,47.57 1.07,62 11.46,58.06 C68.95,24.43 106.18,70.86 105.82,54.92 Z" fill="url(#SVGID_6_)"/>
  <path d="M112.17,81.48 L109.15,84.21 L111.57,90.24 L119.2,90.13 L123.34,78.45 L110.09,67.21 L95.5,78.62 L102.86,93.99 C102.31,96.17 99.2,108.44 98.37,111.73 C97.64,114.62 96.66,119.27 95.73,123.9 L96.7,123.9 L97.67,123.9 L101.49,123.9 L102.49,123.9 L103.49,123.9 L112.34,95.09 L104.48,80.9 L109.91,77.26 L115.32,79.65 L115.18,82.09 L112.17,81.48 Z" fill="#CF8900"/>
  <path id="hand_1_" d="M115.57,111.13 C115.43,109.72 114.94,108.37 114.47,107.24 C113.01,103.67 111.33,100.9 107.53,98.1 C103.67,95.25 99.42,94.68 97.5,94.99 C95.35,95.34 93.98,96.18 93.42,97.49 C92.99,98.49 93.17,99.52 93.43,100.28 C92.33,100.65 90.84,101.4 90.36,102.75 C89.8,104.33 90.26,105.62 90.92,106.49 C89.98,107.09 88.79,108.04 88.45,109.23 C88,110.81 89.47,112.58 90.45,113.54 C89.97,114.18 89.39,115.05 89.26,115.68 C88.58,119.01 92.92,120.89 95.59,121.47 C96,121.56 96.42,121.37 96.64,121.01 L97.57,119.39 C101,120.45 106.02,121.87 108.11,121.87 C108.39,121.87 108.62,121.84 108.79,121.79 C110.71,121.12 111.96,119.56 113.06,118.18 C113.23,117.97 113.4,117.75 113.57,117.54 C115.07,115.73 115.79,113.39 115.57,111.13 Z" fill="url(#hand_2_)"/>
</svg>