<svg viewBox="0 0 128 128" xmlns="http://www.w3.org/2000/svg">
  <defs>
    <linearGradient id="SVGID_1_" gradientUnits="userSpaceOnUse" x1="41.4412" x2="39.0662" y1="113.5068" y2="116.6735">
      <stop offset="0.0832" stop-color="#000000"/>
      <stop offset="1" stop-color="#000000" stop-opacity="0"/>
    </linearGradient>
    <linearGradient id="SVGID_2_" gradientUnits="userSpaceOnUse" x1="41.4412" x2="39.0662" y1="83.4652" y2="86.6318">
      <stop offset="0.0832" stop-color="#000000"/>
      <stop offset="1" stop-color="#000000" stop-opacity="0"/>
    </linearGradient>
    <linearGradient id="SVGID_3_" gradientUnits="userSpaceOnUse" x1="41.4412" x2="39.0662" y1="53.4235" y2="56.5902">
      <stop offset="0.0832" stop-color="#000000"/>
      <stop offset="1" stop-color="#000000" stop-opacity="0"/>
    </linearGradient>
    <linearGradient id="SVGID_4_" gradientUnits="userSpaceOnUse" x1="41.4412" x2="39.0662" y1="23.3818" y2="26.5485">
      <stop offset="0.0832" stop-color="#000000"/>
      <stop offset="1" stop-color="#000000" stop-opacity="0"/>
    </linearGradient>
  </defs>
  <path d="M35.54,113.91 L42.76,119.36 L42.76,113.36 L36.17,112.93 Z" fill="url(#SVGID_1_)" opacity="0.6"/>
  <path d="M35.54,83.87 L42.76,89.32 L42.76,83.32 L36.17,82.88 Z" fill="url(#SVGID_2_)" opacity="0.6"/>
  <path d="M35.54,53.83 L42.76,59.28 L42.76,53.28 L36.17,52.84 Z" fill="url(#SVGID_3_)" opacity="0.6"/>
  <path d="M35.54,23.79 L42.76,29.24 L42.76,23.24 L36.17,22.8 Z" fill="url(#SVGID_4_)" opacity="0.6"/>
  <path d="M95.207,124.011 L85.237,124.011 L85.237,3.991 L95.207,3.991 L95.207,124.011 Z" fill="#9E673C"/>
  <path d="M100.756,3.991 L100.756,123.991 L94.146,123.991 L94.146,3.991 L100.756,3.991 Z" fill="#E6A467"/>
  <path d="M92.46,113.91 L85.24,119.36 L85.24,113.36 L91.84,112.93 Z" fill="#784D30" opacity="0.6"/>
  <path d="M92.46,83.87 L85.24,89.32 L85.24,83.32 L91.84,82.88 Z" fill="#784D30" opacity="0.6"/>
  <path d="M92.46,53.83 L85.24,59.28 L85.24,53.28 L91.84,52.84 Z" fill="#784D30" opacity="0.6"/>
  <path d="M92.46,23.79 L85.24,29.24 L85.24,23.24 L91.84,22.8 Z" fill="#784D30" opacity="0.6"/>
  <path d="M92.63,19.25 L35.12,19.46 L35.74,17.92 L40.73,14.25 C40.94,14.09 41.2,14 41.46,14 L84.85,14.38 C85.13,14.38 85.41,14.48 85.63,14.66 L92.15,17.96 L92.63,19.25 Z" fill="#FFCC80"/>
  <path d="M91.61,24.03 L36.17,24.03 C35.59,24.03 35.13,23.56 35.13,22.99 L35.13,18.86 C35.13,18.28 35.6,17.82 36.17,17.82 L91.61,17.82 C92.19,17.82 92.65,18.29 92.65,18.86 L92.65,22.99 C92.65,23.57 92.18,24.03 91.61,24.03 Z" fill="#E6A467"/>
  <path d="M92.63,109.18 L35.12,109.39 L35.74,107.85 L40.73,104.18 C40.95,104.02 41.2,103.94 41.46,103.94 L84.85,104.32 C85.13,104.32 85.41,104.42 85.63,104.6 L92.15,107.9 L92.63,109.18 Z" fill="#FFCC80"/>
  <path d="M91.61,113.97 L36.17,113.97 C35.59,113.97 35.13,113.5 35.13,112.93 L35.13,108.8 C35.13,108.22 35.6,107.76 36.17,107.76 L91.61,107.76 C92.19,107.76 92.65,108.23 92.65,108.8 L92.65,112.93 C92.65,113.51 92.18,113.97 91.61,113.97 Z" fill="#E6A467"/>
  <path d="M92.63,79.21 L35.12,79.42 L35.74,77.88 L40.73,74.21 C40.95,74.05 41.2,73.97 41.46,73.97 L84.85,74.35 C85.13,74.35 85.41,74.45 85.63,74.63 L92.15,77.93 L92.63,79.21 Z" fill="#FFCC80"/>
  <path d="M91.61,83.99 L36.17,83.99 C35.59,83.99 35.13,83.52 35.13,82.95 L35.13,78.82 C35.13,78.24 35.6,77.78 36.17,77.78 L91.61,77.78 C92.19,77.78 92.65,78.25 92.65,78.82 L92.65,82.95 C92.65,83.53 92.18,83.99 91.61,83.99 Z" fill="#E6A467"/>
  <path d="M92.63,49.23 L35.12,49.44 L35.74,47.9 L40.73,44.23 C40.95,44.07 41.2,43.99 41.46,43.99 L84.85,44.37 C85.13,44.37 85.41,44.47 85.63,44.65 L92.15,47.95 L92.63,49.23 Z" fill="#FFCC80"/>
  <path d="M91.61,54.01 L36.17,54.01 C35.59,54.01 35.13,53.54 35.13,52.97 L35.13,48.84 C35.13,48.26 35.6,47.8 36.17,47.8 L91.61,47.8 C92.19,47.8 92.65,48.27 92.65,48.84 L92.65,52.97 C92.65,53.55 92.18,54.01 91.61,54.01 Z" fill="#E6A467"/>
  <path d="M37.207,124.011 L27.237,124.011 L27.237,3.991 L37.207,3.991 L37.207,124.011 Z" fill="#9E673C"/>
  <path d="M42.756,3.991 L42.756,123.991 L36.146,123.991 L36.146,3.991 L42.756,3.991 Z" fill="#E6A467"/>
</svg>