<svg viewBox="0 0 128 128" xmlns="http://www.w3.org/2000/svg">
  <defs>
    <radialGradient id="hand_1_" cx="67.8543" cy="71.3293" gradientUnits="userSpaceOnUse" r="93.0603">
      <stop offset="0.5949" stop-color="#70534A"/>
      <stop offset="0.8723" stop-color="#5C4037"/>
    </radialGradient>
    <linearGradient id="hand_5_" gradientUnits="userSpaceOnUse" x1="105.1191" x2="78.0423" y1="75.9202" y2="38.7747">
      <stop offset="0" stop-color="#5C4037" stop-opacity="0"/>
      <stop offset="1" stop-color="#5C4037"/>
    </linearGradient>
    <linearGradient id="hand_6_" gradientUnits="userSpaceOnUse" x1="79.956" x2="66.0026" y1="113.9802" y2="99.8407">
      <stop offset="0.3533" stop-color="#70534A"/>
      <stop offset="0.8723" stop-color="#5C4037"/>
    </linearGradient>
  </defs>
  <path id="hand_4_" d="M121.87,76.6 C115.03,53.63 93.88,50.64 88.52,33.82 C85.53,28.49 84.18,24.05 81.59,18.51 C75.72,1.4 54.56,3.74 50.01,18.05 C42.97,30.75 27.44,20.67 26.43,45.82 C26.31,46.13 24.44,49.04 23.03,49.57 C10.11,54.79 13.99,62.91 13.12,70.24 C11.1,73.31 7.63,75.23 6.07,79.65 C2.08,103.23 34.09,121.83 52.96,121.62 C59.47,121.67 63.49,111.83 63.49,111.83 C70.52,109.86 74.44,107.73 76.88,102.98 C77.9,101.22 79.64,101.37 80.41,103.27 C83.22,110.26 90.34,115.17 95.79,107.13 C104.31,94.54 126.82,93.25 121.87,76.6 Z" fill="url(#hand_1_)"/>
  <path id="hand_3_" d="M65.29,45.12 C63.4,43.6 78.96,40.93 81.49,25.63 C81.55,25.25 83.01,25.1 83.27,25.45 C87.8,31.61 89.97,39.31 94.85,45.2 C97.18,48.02 100.09,49.24 102.82,51.68 C105.55,54.12 109,56.65 110.68,59.89 C112.36,63.13 117.26,74 105.61,74.98 C102.49,75.24 100.1,73.17 91.45,77.37 C91.45,77.38 84.11,60.3 65.29,45.12 Z" fill="url(#hand_5_)"/>
  <path id="hand_2_" d="M52.94,108.42 C53.1,108.21 53.26,108 53.43,107.8 C53.64,107.54 53.87,107.26 54.18,107.13 C54.54,106.98 54.96,107.07 55.33,107.2 C56.42,107.59 57.34,108.41 58.47,108.67 C60.27,109.09 62.05,108.03 63.52,106.91 C65.93,105.07 68.15,102.93 69.76,100.36 C70.96,98.45 71.81,96.3 72.09,94.06 C72.19,93.3 71.85,92.06 72.41,91.42 C73.06,90.68 74.4,90.95 75.31,90.73 C77.21,90.29 78.85,89.09 80.33,87.82 C83.99,84.67 87.08,80.84 89.38,76.59 C90.32,78.77 90.94,81.16 91.79,83.4 C92.23,84.55 92.67,85.73 92.66,86.96 C92.64,88.51 91.89,89.96 90.99,91.21 C88.8,94.26 85.03,96.65 81.41,95.66 C80.55,95.42 79.53,95.04 78.87,95.63 C78.52,95.94 78.4,96.42 78.31,96.88 C77.87,99.14 77.68,101.47 76.97,103.66 C76.26,105.85 74.91,107.98 72.81,108.95 C69.79,110.35 65.6,109.27 63.47,111.82 C62.68,112.77 62.39,114.02 61.94,115.18 C60.41,119.13 57.08,122.08 52.86,122.77 C50.86,123.09 48.63,122.95 46.73,122.22 C44.26,121.28 41.6,120.8 39.19,119.6 C41.31,119.42 43.53,119.21 45.27,117.99 C46.06,117.44 46.7,116.7 47.32,115.97 C49.35,113.56 51.02,110.92 52.94,108.42 Z" fill="url(#hand_6_)"/>
  <path id="tone_5_" d="M73.19,17.46 C74.68,17.46 75.13,15.1 73.12,14.62 C60.87,11.64 55.52,21.53 54.16,25.05 C53.42,26.97 55.31,28.03 56.06,26.74 C56.8,25.45 60.31,21.37 63.91,19.56 C67.92,17.55 72.76,17.46 73.19,17.46 Z" fill="#4A2F27"/>
  <path id="tone_4_" d="M123.06,75.38 C120.56,67.43 117.22,62.16 112.7,57.45 L109.59,59.86 C112.08,62.43 114.3,65.24 116.02,68.44 C118.84,73.69 122.28,81.18 117.97,86.5 C117.62,86.93 117.24,87.34 116.84,87.72 C114.91,89.57 112.48,90.88 110.11,92.15 C106.72,93.97 103.72,96.17 100.85,98.68 C98.06,101.12 95.68,103.99 93.25,106.8 C92.24,107.97 91.1,109.35 89.42,109.35 C87.93,109.34 86.51,108.5 85.3,107.71 C83.76,106.71 83.11,104.27 83.08,102.54 C83.06,101.28 83.34,100.01 83.9,98.87 C84.58,97.49 85.15,97.3 86.44,96.67 C89.3,95.29 95.22,89.76 95.62,86.36 C95.88,84.19 95.35,81.62 93.96,79.94 C95.18,77.74 97.9,76.86 100.41,76.62 C102.92,76.38 105.52,76.56 107.87,75.66 C108.25,75.52 108.68,75.23 108.61,74.83 C108.57,74.6 108.37,74.44 108.18,74.31 C106.02,72.79 103.3,72.22 100.66,72.24 C98.02,72.26 95.41,72.82 92.83,73.37 C95.18,69.03 95.83,63.8 94.62,59.02 C94.44,58.29 93.96,57.41 93.23,57.54 C92.71,57.63 92.42,58.19 92.24,58.69 C91.22,61.55 91,64.77 89.25,67.26 C89.08,67.51 88.86,67.76 88.57,67.82 C87.7,67.98 86.98,64 81.84,57.91 C78.85,54.36 74.33,51.47 73.37,50.55 C71.08,48.32 72.16,44.88 73.8,42.41 C75.07,40.5 77.1,39.24 78.71,37.6 C81.05,35.21 82.37,31.75 83.2,28.58 C86.45,34.29 89.2,40.43 93.23,45.67 L93.31,45.61 C95.27,48 97.75,49.89 100.36,51.89 C101.63,52.86 102.94,53.86 104.29,54.98 C105.56,56.04 108.88,59.23 110.08,60.37 L113.19,57.97 C111.83,56.4 108.33,53.3 106.78,52.01 C105.37,50.83 104.02,49.81 102.72,48.81 C99.88,46.64 97.43,44.77 95.71,42.38 L95.66,42.42 C92.47,37.85 86.38,26.72 82.04,17.44 C76.67,5.99 68.24,2.36 57.65,6.93 C51.69,9.5 49.87,13.77 48.41,17.21 C47.75,18.77 47.15,20.12 46.3,21.07 C44.15,22.56 42.18,23.38 40.1,24.23 C37.76,25.19 35.33,26.19 32.62,28.17 C25.85,33.12 25.28,38.47 24.49,45.87 L24.36,47.05 C24.24,47.37 23.52,48.69 22.08,49.23 C11.2,53.36 11.72,61.19 12.06,66.37 C12.17,67.98 12.28,69.64 11.93,70.39 C11.59,71.13 10.73,71.98 9.75,72.97 C8.05,74.68 5.94,76.8 4.71,80.02 C2.27,86.39 6.7,95.77 9.09,99.07 C14.17,106.07 21.59,112.07 28.24,116.03 L30.54,112.87 C24.86,109.55 17.5,104.07 12.23,96.8 C9.93,93.63 6.66,85.78 8.33,81.42 C9.27,78.97 10.98,77.24 12.5,75.72 C13.69,74.52 14.82,73.39 15.45,72.04 C16.22,70.39 16.08,68.32 15.94,66.12 C15.61,61.13 15.27,55.98 23.46,52.87 C26.53,51.7 28.07,48.84 28.21,47.57 L28.35,46.29 C29.11,39.17 29.53,35.24 34.91,31.31 C37.24,29.61 39.35,28.74 41.57,27.82 C43.84,26.89 46.19,25.91 48.82,24.07 C48.85,24.04 48.88,24.01 48.91,23.98 C48.95,23.95 48.99,23.92 49.04,23.89 L49.02,23.86 C50.42,22.39 51.22,20.53 51.99,18.72 C53.36,15.49 54.66,12.45 59.19,10.49 C66.58,7.3 72.3,8.96 76.58,15.56 C79.88,21.78 80.42,26.94 78.23,31.32 C76.54,34.7 72.28,37.54 67.88,38.23 C64.09,38.82 61.1,38.94 58.65,35.63 C57.6,34.22 56.83,32.62 55.9,31.13 C55.57,30.6 55.09,30.02 54.47,30.09 C53.77,30.17 53.46,31.01 53.38,31.71 C52.92,35.9 56.13,39.66 58.82,42.61 C62.33,46.47 66.47,49.74 70.51,53.02 C73.98,55.84 77.25,58.51 78.94,60.45 C86.71,69.39 92.11,83.25 91.8,85.89 C91.61,87.28 87.31,91.94 84.78,93.16 C83.83,93.62 81.08,93.72 77.71,92.03 C73.54,89.94 69.7,86.58 66.19,83.58 C60.12,78.39 54.17,72.28 49.86,65.57 C49.47,64.96 48.93,64.28 48.21,64.35 C47.83,64.39 47.51,64.63 47.22,64.87 C46.73,65.26 46.25,65.65 45.76,66.04 C45.28,66.43 44.75,66.88 44.69,67.5 C44.61,68.24 45.22,68.86 45.78,69.35 C48.57,71.75 51.22,73.53 53.46,76.4 C55.9,79.53 58.97,82.32 61.92,84.95 C64.37,87.14 66.92,89.22 69.55,91.18 C70.33,91.76 74.64,93.96 74.83,94.84 C75.54,98.02 76.37,104.73 71.37,106.98 C67.24,108.83 59.29,108.53 57.43,107.61 C52.94,105.38 49.12,101.08 45.6,97.61 C41.01,93.09 35.5,88.66 32.1,83.2 C31.95,82.95 31.76,82.67 31.47,82.63 C31.22,82.6 30.99,82.75 30.79,82.9 C30.28,83.27 29.77,83.64 29.25,84.01 C28.76,84.37 28.23,84.77 28.09,85.37 C27.87,86.27 28.63,87.08 29.35,87.66 C31.87,89.68 34.02,91.2 36.24,93.57 C38.45,95.92 40.7,98.24 43,100.51 C46.78,104.24 50.86,108.69 55.69,111.09 C56.86,111.67 58.78,112.04 60.99,112.18 C59.39,117.18 55.26,119.11 52.72,119.11 C47.57,119.11 40.63,117.67 35.86,115.61 C34.9,115.2 31.21,113.19 29.95,112.51 L27.71,115.7 C29.15,116.48 33.02,118.6 34.32,119.16 C39.61,121.44 47,122.98 52.72,122.98 C58.75,122.98 62.23,118.58 64.59,113.66 C65.33,112.12 65.95,112.48 67.61,112.21 C69.15,111.96 70.63,111.42 72.02,110.71 C74.93,109.21 77.41,106.88 79.29,104.21 C80.45,108.7 84.53,112.29 89.13,112.87 C90.36,113.03 91.83,112.98 92.98,112.48 C94.15,111.97 95.1,111.04 95.95,110.11 C100.93,104.63 105.52,98.75 112.35,95.42 C114.84,94.2 117.54,93.32 119.68,91.56 C124.43,87.66 124.77,80.81 123.06,75.38 Z" fill="#4A2F27"/>
</svg>