<svg viewBox="0 0 128 128" xmlns="http://www.w3.org/2000/svg">
  <defs/>
  <path d="M94,21.1 C94,11.66 80.58,4 64.03,4 C47.48,4 33.03,10.95 34.05,21.09 L34.02,21.09 L34.02,109.66 C34.02,117.58 47.44,124 64,124 C80.56,124 93.98,117.58 93.98,109.66 L93.98,21.6 C93.99,21.43 94,21.27 94,21.1 Z" fill="#98ADB8"/>
  <path d="M87.84,18.29 A23.64 11.43 0 1 1 40.56,18.29 A23.64 11.43 0 1 1 87.84,18.29 Z" fill="#D9D9D9"/>
  <path d="M76.56,7.18 C76.56,7.18 76.56,7.43 76.56,7.84 C76.59,7.43 76.56,7.18 76.56,7.18 Z" fill="#9E9E9E"/>
  <path d="M76.99,52.28 C76.99,51.62 76.74,51.22 76.13,50.98 C75.56,50.75 74.73,50.99 73.88,51.21 C72.2,51.63 70.47,51.87 68.91,51.85 C68.28,51.84 68.34,51.24 68.34,50.69 C68.34,50.26 68.34,46.75 68.34,45.21 C68.34,44.61 68.27,43.85 67.16,43.85 C66.49,43.85 65.68,44.03 63.99,44.05 C62.3,44.04 61.49,43.85 60.82,43.85 C59.71,43.85 59.64,44.61 59.64,45.21 C59.64,46.75 59.64,50.26 59.64,50.69 C59.64,51.24 59.7,51.84 59.07,51.85 C57.51,51.87 55.78,51.63 54.1,51.21 C53.24,51 52.42,50.76 51.85,50.98 C51.24,51.23 50.99,51.62 50.99,52.28 L50.96,57.37 C51.24,58.16 51.53,58.73 51.85,58.9 C52.79,59.39 54.84,60.14 58.12,60.3 C58.77,60.33 59.5,60.11 59.65,60.82 C59.72,61.17 59.65,65.49 59.65,67.24 C59.65,68.83 61.95,69 63.19,69.1 C63.46,69.12 64.54,69.12 64.8,69.1 C66.03,68.99 68.34,68.83 68.34,67.24 C68.34,65.49 68.27,61.17 68.34,60.82 C68.49,60.11 69.21,60.33 69.87,60.3 C73.15,60.14 75.2,59.38 76.14,58.9 C76.45,58.74 76.75,58.17 77.03,57.37 L76.99,52.28 Z" fill="#FFFFFF"/>
  <path d="M58.59,28.55 C60.19,27.01 54.43,25.68 51.71,24.75 C48.29,23.58 44.71,21.52 43.62,17.49 C42.8,14.45 41.37,15.4 41.11,15.76 C40.74,16.27 39.31,19.25 42.06,22.56 C43.95,24.84 47.01,26.57 49.62,27.45 C53.19,28.66 57.53,29.57 58.59,28.55 Z" fill="#F5F5F5"/>
  <path d="M56,13.92 C56.33,12.8 59.23,12.11 60.99,12.09 C64,12.05 67.1,14.36 67.56,15.15 C68.85,17.35 65.91,18.13 60.77,17.68 C57.31,17.38 55.67,15.05 56,13.92 Z" fill="#F5F5F5"/>
  <path d="M73.11,15.75 C72.76,15.13 72.4,14.48 72.06,13.85 C71.7,13.2 71.71,13.9 71.63,14.17 C71.22,15.59 70.41,16.22 69.84,16.53 C68.12,17.45 66.06,17.89 64.01,17.86 C61.95,17.88 59.9,17.45 58.18,16.53 C57.6,16.22 56.8,15.59 56.39,14.17 C56.31,13.89 56.32,13.2 55.96,13.85 C55.61,14.48 55.26,15.13 54.91,15.75 C54.01,17.33 54.79,19.08 55.94,20.2 C57.95,22.15 61.07,23.05 64.02,23.05 L64.02,23.05 L64.02,23.05 C66.97,23.05 70.09,22.15 72.1,20.2 C73.23,19.07 74.01,17.32 73.11,15.75 Z" fill="#9E9E9E"/>
  <path d="M40.31,90.16 L40.31,111.91 L40.35,111.91 C41.11,116.66 53.11,119.67 64.02,119.67 C75.22,119.67 87.69,116.68 87.69,111.91 L87.69,90.16 L40.31,90.16 Z" fill="#C62828"/>
  <path d="M87.69,90.6 C87.69,95.37 75.23,98.36 64.02,98.36 C53.11,98.36 41.11,95.35 40.35,90.6 C39.53,85.48 50.95,81.97 64.02,81.97 C77.09,81.97 87.69,85.83 87.69,90.6 Z" fill="#F44336"/>
  <path d="M75.07,103.3 C75.07,103.3 71.22,104.47 64,104.47 C56.78,104.47 52.93,103.3 52.93,103.3 C51.56,103.1 50.98,104.17 50.98,105.25 L50.98,109.47 C50.98,110.47 51.63,111.4 52.79,111.97 C55.18,113.15 59.04,113.95 63.66,113.9 C63.78,113.9 63.89,113.89 64.01,113.89 C64.13,113.89 64.24,113.9 64.36,113.9 C68.99,113.95 72.84,113.15 75.23,111.97 C76.39,111.4 77.04,110.47 77.04,109.47 L77.04,105.25 C77.03,104.17 76.44,103.1 75.07,103.3 Z" fill="#FFFFFF"/>
</svg>