<svg viewBox="0 0 128 128" xmlns="http://www.w3.org/2000/svg">
  <defs>
    <linearGradient id="hand_1_" gradientUnits="userSpaceOnUse" x1="52.6222" x2="20.2502" y1="88.2334" y2="152.4193">
      <stop offset="0.5" stop-color="#A56C43"/>
      <stop offset="1" stop-color="#8D5738"/>
    </linearGradient>
  </defs>
  <path id="hand" d="M104.26,74.27 C102.23,72.85 96.61,72.79 96.61,72.79 C96.61,72.79 97.01,63.39 90.18,59.63 C83.83,56.42 78.27,60.67 78.27,60.67 C78.27,60.67 79.08,51.13 72.32,47.44 C68.65,45.43 60.22,48.2 60.22,48.2 C60.22,48.2 64.95,38 68.91,32.56 C73.9,25.7 77.63,20.03 77.9,14.54 C78.18,8.68 75.06,6.61 70.81,6.61 C68.53,6.61 66.13,7.33 63.4,9.74 C61.29,11.6 58.27,14.2 52.84,20.86 C52.69,20.46 52.51,20.05 52.26,19.64 C49.56,13.83 43.05,6.52 36.8,7.02 C35.32,7.14 28.03,8.18 31.86,19.37 C33.41,23.9 36.06,32.96 37.13,42.66 C31.25,52.12 25.15,64.12 21.58,73.99 C18.37,82.85 20.3,89 22.81,92.8 C29.2,102.48 47.76,118.7 81.45,121.81 C89,122.51 95.8,119.05 98.25,116.23 C101.69,112.28 103.7,106.59 106.25,97.3 C108.79,88 110.2,78.42 104.26,74.27 Z" fill="url(#hand_1_)"/>
  <path d="M54.05,20.33 C50.66,13.53 44.41,4.97 37.49,5.48 L36.48,9.69 C42.92,8.71 47.54,15.93 48.32,19.83 C48.6,21.21 48.97,22.48 45.85,27.24 C45.09,28.41 43.7,30.1 42.35,30.65 C40.04,31.59 38.33,30.65 37.62,28.26 C35.86,22.31 34.83,19.25 34.03,17.04 C33.1,14.47 32.97,12.45 33.69,11.34 C34.51,10.06 36.64,9.57 37.76,9.48 L37.49,5.48 C37.48,5.48 37.47,5.48 37.45,5.48 C35.8,5.61 26.06,6.84 30.27,18.4 C32.05,23.28 35.12,33.23 36.16,43.73 L54.05,20.33 Z" fill="#875334"/>
  <path d="M88.97,97.26 C85.01,96.2 86.84,92.89 87.7,90.23 C90.13,83.48 93.26,77.54 94.15,70.34 L98.14,70.67 C97.5,79.4 91.5,88.53 91.84,93.13 C92.18,97.55 90.51,97.67 88.97,97.26 Z" fill="#875334"/>
  <path d="M71.53,86.69 C70.24,86.65 68.56,86.27 67.64,85.38 C66.13,83.14 68.97,81.28 69.84,79.42 C72.32,72.52 74.88,65.61 77.81,58.87 C77.81,58.87 81.44,60.56 81.44,60.56 C78.37,67.39 75.87,75.14 72.96,82.09 C72.9,83.71 73.11,86.74 71.53,86.69 Z" fill="#875334"/>
  <path d="M106.81,73.54 C103.11,69.24 98.04,70.73 98.04,70.73 C98.04,70.73 98.11,61.75 90.98,57.82 C88.81,56.72 86.83,56.35 85.16,56.35 C81.71,56.35 79.53,57.92 79.53,57.92 C79.53,57.92 80.73,49.95 73.75,45.91 C68.92,43.11 64.99,45.06 64.99,45.06 C64.99,45.06 68.05,38.5 71.5,32.36 C75.9,24.55 80.12,19.62 80.55,13.88 C81.06,6.94 76.67,4 71.1,4 C71.1,4 71.1,4 71.09,4 C68.71,4 66.2,4.75 63.34,7.28 C59.89,10.33 54.1,15.23 39.99,35.4 C32.75,45.74 23.13,61.04 19.18,73.93 C17.8,78.44 17.09,84.81 18.8,89.25 C21.78,96.95 30.59,105.03 37.25,109.43 C39.96,111.22 46.39,114.54 50.3,116.44 L53.05,113.15 C49.24,111.33 42.14,107.78 39.34,105.95 C32.53,101.5 24.49,92.43 22.51,87.61 C21.02,84 22.09,78.29 23.06,75.14 C26.83,62.83 36.32,47.75 43.31,37.75 C56.78,18.5 66.02,10.34 66.02,10.34 C70.8,6.63 74.65,8.59 75.5,9.5 C76.29,10.35 76.62,11.73 76.48,13.59 C76.14,18.14 72.32,22.97 67.84,30.36 C54.74,51.98 49.73,65.64 48.68,67.96 C47.2,70.05 45.22,71.15 44.7,72.65 C43.83,75.17 47.45,76.34 48.77,75.81 C50.09,75.28 51.55,71.14 52.73,68.66 C55.38,63.09 59.47,55.6 61.28,52.26 C63.09,48.92 68.51,48.08 71.79,49.5 C76.12,51.87 76.38,55.68 76.31,58.28 C76.23,60.88 75.28,64.98 75.28,64.98 L79.98,64 C80.21,63.86 83.75,58.56 90.09,62.18 C95.45,65.65 93.79,75.59 93.79,75.59 L97.29,76.36 C97.29,76.36 101.12,74.3 103.72,76.21 C107.34,78.87 106.84,88.3 104.23,97.82 C101.74,106.89 99.81,112.48 96.72,116.03 C95.58,117.34 88.53,123.49 65.02,117.52 C61.56,116.64 56.97,114.92 52.39,112.88 L50.31,116.47 C55.18,118.68 60.18,120.57 64.03,121.47 C90.99,127.73 97.9,120.89 99.79,118.71 C103.39,114.58 105.49,108.63 108.16,98.9 C110.83,89.17 111.36,78.82 106.81,73.54 Z" fill="#875334"/>
</svg>