<svg viewBox="0 0 128 128" xmlns="http://www.w3.org/2000/svg">
  <defs>
    <linearGradient id="SVGID_1_" gradientUnits="userSpaceOnUse" x1="38.2845" x2="32.9385" y1="33.9454" y2="71.9838">
      <stop offset="0.2937" stop-color="#FEA8A7"/>
      <stop offset="0.5476" stop-color="#FEA4A2"/>
      <stop offset="0.8265" stop-color="#FE9895"/>
    </linearGradient>
    <linearGradient id="SVGID_2_" gradientUnits="userSpaceOnUse" x1="43.7349" x2="15.6008" y1="72.5915" y2="96.1988">
      <stop offset="0.4043" stop-color="#FEA8A7"/>
      <stop offset="0.6094" stop-color="#FEA3A1"/>
      <stop offset="0.8236" stop-color="#FE9895"/>
    </linearGradient>
    <linearGradient id="SVGID_3_" gradientUnits="userSpaceOnUse" x1="85.2991" x2="106.4858" y1="61.8074" y2="94.4321">
      <stop offset="0.3525" stop-color="#FEA8A7"/>
      <stop offset="0.7936" stop-color="#FE9B99"/>
      <stop offset="0.8931" stop-color="#FE9895"/>
    </linearGradient>
    <linearGradient id="SVGID_4_" gradientUnits="userSpaceOnUse" x1="63.0701" x2="63.0701" y1="7.5369" y2="69.6095">
      <stop offset="0.3101" stop-color="#FED3B3"/>
      <stop offset="0.6473" stop-color="#FED5B5"/>
      <stop offset="0.7686" stop-color="#FEDCBB"/>
      <stop offset="0.8413" stop-color="#FEE5C3"/>
    </linearGradient>
  </defs>
  <path d="M42.17,20.59 C33.54,20.62 13.64,33.83 6.7,64 C-0.24,94.17 7.03,112.53 29.22,114.25 C50.99,115.94 57.46,100.69 58.44,95.44 C61.32,80.09 58.69,54.56 55.69,40.67 C52.69,26.78 50.76,20.56 42.17,20.59 Z" fill="#FEA8A7"/>
  <path d="M73.29,92.99 C74.48,98.16 74.29,102.46 76.81,106.93 C79.91,112.42 84.7,113.26 84.7,113.26 L80.47,89.61 L70.76,79.47 L69.22,82.02 C69.21,82.03 72.21,88.31 73.29,92.99 Z" fill="#FED0B0"/>
  <path d="M86.49,21.46 C95.02,21.42 114.68,34.6 121.54,64.51 C128.4,94.43 121.22,112.64 99.29,114.34 C92.29,114.88 86.9,114.64 82.77,112.55 C78.88,109.17 80.29,101.49 78.48,93.25 C77.61,89.27 73.32,84.45 69.22,81.94 C68.98,67.91 70.96,51.51 73.15,41.36 C76.11,27.6 78.21,21.5 86.49,21.46 Z" fill="#FEA8A7"/>
  <path d="M8.04,58.89 C8.04,58.89 13.74,67.23 29.97,71.18 C46.2,75.13 59.55,72.87 59.55,72.87 C59.55,72.87 58.65,56.8 57.17,48.74 C55.69,40.68 40.86,34.01 37.95,33.91 C35.04,33.81 20.85,34.27 20.85,34.27 C20.85,34.27 16.5,39.45 13.76,44.76 C10.83,50.46 8.04,58.89 8.04,58.89 Z" fill="url(#SVGID_1_)"/>
  <path d="M4.56,76.53 C4.56,76.53 13.17,85.91 17.59,92.58 C22.01,99.25 30.8,114.31 30.8,114.31 C30.8,114.31 40.86,115.31 48.54,110.06 C53.42,106.71 56.88,104.63 58.63,94.4 C60.38,84.17 39.83,78.96 36.54,78.87 C33.26,78.78 17.63,70.12 15.56,67.83 C13.49,65.54 7.48,61.09 7.48,61.09 C7.48,61.09 6.17,66.23 5.85,67.93 C5.54,69.62 4.56,76.53 4.56,76.53 Z" fill="url(#SVGID_2_)"/>
  <path d="M80.45,108.47 C80.45,108.47 86.94,108.24 100.93,97.73 C114.92,87.22 122.7,70.17 122.7,70.17 C122.7,70.17 121.55,64.44 121.14,62.87 C120.74,61.3 100.36,63.84 95.11,65.63 C89.85,67.41 69.43,72.11 69.43,72.11 C69.43,72.11 69.19,81.6 69.21,82.03 C69.47,82.05 76.13,87.44 77.42,90.66 C79.2,95.1 79.31,100 79.45,102.19 C79.64,105.07 80.45,108.47 80.45,108.47 Z" fill="url(#SVGID_3_)"/>
  <path d="M21.24,54.84 C20.21,54.09 18.71,52.59 19.55,51.56 C20.39,50.53 22.65,51.94 23.77,52.78 C24.9,53.62 26.87,55.22 26.87,55.22 L35.41,54.19 C35.41,54.19 28.37,48.09 27.06,46.96 C25.75,45.83 22.93,43.58 24.15,42.27 C25.37,40.96 27.62,43.11 28.84,44.24 C30.06,45.37 38.23,51.56 38.23,51.56 C38.23,51.56 36.45,45.65 35.88,43.86 C35.32,42.08 33.72,38.51 35.41,37.85 C37.1,37.19 38.13,40.76 38.98,42.73 C39.82,44.7 44.8,56.15 44.8,56.15 C44.8,56.15 46.68,58.26 48.46,57.25 C50.24,56.24 59.68,46.01 59.68,46.01 L59.55,11.28 C59.55,11.28 61.22,10.62 63.57,10.53 C65.92,10.44 67.98,11.28 67.98,11.28 L68.36,46.19 C68.36,46.19 77.37,56.89 79.34,57.26 C81.31,57.63 82.91,58.01 83.84,57.26 C84.78,56.51 91.07,46.19 91.63,44.4 C92.19,42.62 90.32,37.36 91.63,36.61 C92.94,35.86 93.79,38.02 94.26,39.61 C94.73,41.21 95.29,42.89 95.29,42.89 C95.29,42.89 97.35,42.42 98.57,42.05 C99.79,41.67 101.39,41.67 101.57,42.61 C101.76,43.55 98.66,45.14 97.25,46.08 C95.84,47.02 93.59,47.77 93.97,49.27 C94.35,50.77 97.35,50.3 99.41,50.4 C101.47,50.49 102.79,50.78 102.79,51.9 C102.79,53.03 99.6,53.56 97.06,53.67 C94.53,53.78 91.15,53.67 91.15,53.67 C91.15,53.67 89.27,56.8 89.27,57.68 C89.27,58.56 94.53,59.22 97.62,59.78 C100.72,60.34 107.76,60.78 107.66,62.39 C107.57,64 105.16,63.82 103.53,63.96 C101.9,64.1 97.84,63.07 97.9,63.96 C97.96,64.85 101.65,68.32 100.15,69.26 C98.65,70.2 96.49,67.01 95.08,65.6 C93.67,64.19 92.73,63.35 92.73,63.35 C92.73,63.35 80.56,63.49 80.46,64 C80.37,64.51 88.16,74.65 89.56,75.12 C90.97,75.59 97.82,76.81 100.26,77.18 C102.7,77.56 105.14,78.31 104.95,79.48 C104.76,80.65 101.85,80.56 99.88,80.56 C97.91,80.56 94.53,80.56 94.53,80.56 C94.53,80.56 101.01,86.3 102.41,87.93 C103.81,89.56 109.45,94.16 107.67,95.48 C105.89,96.79 98.43,89.3 96.67,87.93 C94.91,86.56 90.68,83.37 90.31,83.74 C89.94,84.11 92.94,89.09 93.59,90.31 C94.24,91.53 97,95.47 94.97,96.36 C93.39,97.05 89,89 88.43,89 C87.87,89 87.59,97.26 86.18,96.88 C84.77,96.5 84.68,93.6 84.49,88.53 C84.3,83.46 85.33,80.65 84.21,79.47 C83.08,78.3 78.48,70.32 76.7,68.91 C74.92,67.5 64,57.28 64,57.28 C64,57.28 52.68,67.42 50.34,69.3 C47.99,71.18 43.49,74.84 43.02,75.78 C42.55,76.72 41.89,79.82 41.99,80.94 C42.08,82.07 45.09,89.11 45.65,90.23 C46.21,91.36 48.09,95.49 46.59,95.96 C45.09,96.43 43.21,92.39 42.46,91.17 C41.71,89.95 39.83,86.76 39.83,86.76 C39.83,86.76 38.14,94.26 37.39,96.38 C36.64,98.49 34.95,105.06 33.07,103.84 C31.19,102.62 32.13,99.61 33.07,96.38 C34.01,93.15 34.76,90.52 34.67,90.14 C34.58,89.76 28.19,93.33 26.97,94.18 C25.75,95.02 22.28,97.18 21.43,95.68 C20.59,94.18 24.43,91.74 25.84,90.8 C27.25,89.86 36.16,84.23 36.16,84.23 C36.16,84.23 36.25,83.2 36.82,80.57 C37.39,77.94 37.57,76.35 37.57,76.35 L31.74,76.63 C31.74,76.63 28.28,79.91 27.34,80.95 C26.4,81.98 24.24,84.7 23.4,83.3 C22.56,81.89 26.4,77.67 26.4,77.67 C26.4,77.67 23.58,77.48 22.18,77.58 C20.77,77.67 19.08,77.77 18.99,76.45 C18.9,75.14 24.06,74.07 26.59,73.52 C29.12,72.97 37.85,71.1 37.85,71.1 L45.45,64.02 C45.45,64.02 40.19,58.52 39.35,58.43 C38.51,58.34 28.37,58.99 28.37,58.99 C28.37,58.99 26.31,60.87 25.37,61.81 C24.43,62.75 22.84,65.11 21.62,64.02 C20.4,62.93 21.81,61.43 22.56,60.4 L24.16,57.69" fill="#FEE5C3"/>
  <path d="M48.46,57.26 C50.24,56.25 59.68,46.02 59.68,46.02 L59.55,8.29 C59.55,8.29 61.22,7.63 63.57,7.54 C65.92,7.45 67.98,8.29 67.98,8.29 L68.36,46.2 C68.36,46.2 77.37,56.9 79.34,57.27 C81.31,57.64 80.56,63.48 80.47,63.99 C80.38,64.5 78.5,70.32 76.72,68.91 C74.94,67.5 64,57.28 64,57.28 C64,57.28 52.68,67.42 50.34,69.3 C47.99,71.18 45.46,64 45.46,64 C45.46,64 46.68,58.27 48.46,57.26 Z" fill="url(#SVGID_4_)"/>
  <path d="M58.15,34.92 C58.16,37.17 60.2,36.96 64,36.96 C67.8,36.96 69.69,37.18 69.7,34.92 C69.71,32.32 67.45,32.81 63.93,32.81 C60.4,32.81 58.14,32.46 58.15,34.92 Z" fill="#F2A159"/>
  <path d="M58.23,28.24 C58.24,30.49 60.28,30.28 64.08,30.28 C67.88,30.28 69.77,30.5 69.78,28.24 C69.79,25.64 67.53,26.13 64.01,26.13 C60.48,26.12 58.22,25.77 58.23,28.24 Z" fill="#F2A159"/>
  <path d="M58.23,21.55 C58.24,23.8 60.28,23.59 64.08,23.59 C67.88,23.59 69.77,23.81 69.78,21.55 C69.79,18.95 67.53,19.44 64.01,19.44 C60.48,19.44 58.22,19.08 58.23,21.55 Z" fill="#F2A159"/>
  <path d="M58.23,15.07 C58.24,17.32 60.28,17.11 64.08,17.11 C67.88,17.11 69.77,17.33 69.78,15.07 C69.79,12.47 67.53,12.96 64.01,12.96 C60.48,12.96 58.22,12.61 58.23,15.07 Z" fill="#F2A159"/>
</svg>