<svg viewBox="0 0 128 128" xmlns="http://www.w3.org/2000/svg">
  <defs/>
  <path d="M68.35,83.58 L68.89,99.37 C68.9,100.56 69.68,101.35 71.5,101.35 C73.32,101.35 74.12,100.55 74.12,99.38 L74.71,82.35 L68.35,83.58 Z" fill="#9E5737"/>
  <path d="M73.76,23.16 L67.4,23.16 L67.34,50.72 L73.8,49.6 Z" fill="#9E5737"/>
  <path d="M70.3,5.23 C69.34,5.37 31.58,10.93 31.58,10.93 C30.03,11.23 28.77,12.64 28.76,14.45 L28.78,15.23 L32.97,20.17 C32.97,20.17 44.92,29.82 45.81,29.65 C46.7,29.48 77.32,7.36 77.32,7.36 C76.74,6.66 76.15,6.34 73.63,5.69 C72.44,5.38 71.26,5.09 70.3,5.23 Z" fill="#F0AA6B"/>
  <path d="M33.24,37.41 L32.81,16.84 C32.82,15.05 32.31,14.3 31.28,13.77 C30.16,13.14 28.77,13.95 28.78,15.24 L28.86,35.13 C28.86,35.74 28.78,37.41 30.04,37.82 L32.62,38.56 L32.62,57.11 L38.98,55.87 L38.98,37.41 L33.24,37.41 Z" fill="#9E5737"/>
  <path d="M60.03,77.09 L60.03,71.04 C57.61,71.34 56.45,70.96 56.45,70.96 L30.08,58.45 L30.08,61.77 C30.08,63.22 30.08,64.15 32.2,65.18 L32.54,65.35 L33.87,108.28 C33.88,109.47 34.78,110.26 36.59,110.26 C38.41,110.26 39.3,109.46 39.3,108.29 L40.34,77.46 L54.74,84.57 L54.38,76.83 C56.14,77.69 58.09,77.34 60.03,77.09 Z" fill="#9E5737"/>
  <path d="M100.83,64.13 L58.9,72.22 C57.97,72.43 57.3,73.26 57.3,74.21 L57.3,75.17 C57.3,76.21 58.07,77.03 59.04,77.18 C57.4,77.23 55.7,76.91 54.22,76.17 L55.7,122.02 C55.71,123.21 56.56,124 58.37,124 C60.19,124 61.06,123.2 61.06,122.03 L62.31,85.1 L92.43,79.3 L93.49,113.12 C93.5,114.31 94.38,115.1 96.19,115.1 C98.01,115.1 98.85,114.3 98.85,113.13 L100.36,69.4 C100.36,69.4 100.37,69.4 100.37,69.4 L101.11,69.26 C102.33,69.03 103.21,67.96 103.21,66.72 L103.21,62.85 L100.83,64.13 Z" fill="#BA793E"/>
  <path d="M102.07,64.01 L60.24,72.02 C58.34,72.38 56.37,72.12 54.63,71.25 L30.81,59.43 C29.69,58.87 29.89,57.04 31.54,56.8 L73.63,49.64 C75.3,49.32 77.06,49.28 78.59,50.03 L102.43,61.36 C103.64,61.96 103.4,63.75 102.07,64.01 Z" fill="#F0AA6B"/>
  <path d="M75.18,7.27 L34.82,13.26 C33.07,13.68 32.82,15.07 32.82,16.05 L32.9,37.11 C32.9,38.39 34.16,38.78 35.42,38.54 L75.96,32.03 C76.92,31.84 77.67,30.69 77.68,29.2 L77.6,8.14 C77.59,6.86 76.4,7.1 75.18,7.27 Z" fill="#BA793E"/>
  <path d="M62.3,76.68 L92.17,70.96 L92.27,73.8 L64.84,79.05 L64.1,84.75 L62.43,85.08 Z" fill="#9E5737"/>
  <path d="M54.22,76.16 L32.5,65.31 C32.5,65.31 35.09,67.77 37.5,71.34 C39.64,74.52 40.34,77.46 40.34,77.46 L41.74,78.15 L41.74,72.77 L54.29,79 L54.22,76.16 Z" fill="#77381F"/>
  <path d="M68.38,83.93 L68.57,89.66 C68.57,89.66 69.54,87.9 71.14,86.68 C72.69,85.49 74.62,85.22 74.62,85.22 L74.71,82.71 L68.38,83.93 Z" fill="#77381F"/>
</svg>