<svg viewBox="0 0 128 128" xmlns="http://www.w3.org/2000/svg">
  <defs>
    <radialGradient id="face_1_" cx="63.6" cy="-62.8999" gradientTransform="matrix(1 0 0 -1 0 0)" gradientUnits="userSpaceOnUse" r="56.9597">
      <stop offset="0.5" stop-color="#FDE030"/>
      <stop offset="0.9188" stop-color="#F7C02B"/>
      <stop offset="1" stop-color="#F4A223"/>
    </radialGradient>
  </defs>
  <path id="face_73_" d="M63.6,118.8 C35.7,118.8 5.6,101.3 5.6,62.9 C5.6,24.5 35.7,7 63.6,7 C79.1,7 93.4,12.1 104,21.4 C115.5,31.6 121.6,46 121.6,62.9 C121.6,79.8 115.5,94.1 104,104.3 C93.4,113.6 79,118.8 63.6,118.8 Z" fill="url(#face_1_)"/>
  <path d="M111.49,29.67 C116.82,38.27 119.6,48.51 119.6,59.9 C119.6,76.8 113.5,91.1 102,101.3 C91.4,110.6 77,115.8 61.6,115.8 C43.54,115.8 24.56,108.45 13.42,92.86 C24.18,110.52 44.41,118.8 63.6,118.8 C79,118.8 93.4,113.6 104,104.3 C115.5,94.1 121.6,79.8 121.6,62.9 C121.6,50.16 118.13,38.84 111.49,29.67 Z" fill="#EB8F00"/>
  <path d="M44.67,45.94 L44.67,45.94 C40.48,45.94 36.67,49.48 36.67,55.36 C36.67,61.24 40.48,64.78 44.67,64.78 L44.67,64.78 C48.86,64.78 52.67,61.24 52.67,55.36 C52.67,49.48 48.86,45.94 44.67,45.94 Z" fill="#422B0D"/>
  <path d="M44.28,49.87 L44.28,49.87 C43.25,49.15 41.7,49.38 40.7,50.82 C39.7,52.27 40.03,53.79 41.06,54.51 L41.06,54.51 C42.09,55.23 43.64,55 44.64,53.56 C45.64,52.11 45.31,50.59 44.28,49.87 Z" fill="#896024"/>
  <path d="M83.02,45.94 L83.02,45.94 C78.83,45.94 75.02,49.48 75.02,55.36 C75.02,61.24 78.83,64.78 83.02,64.78 L83.02,64.78 C87.21,64.78 91.02,61.24 91.02,55.36 C91.02,49.48 87.21,45.94 83.02,45.94 Z" fill="#422B0D"/>
  <path d="M82.63,49.87 L82.63,49.87 C81.6,49.15 80.05,49.38 79.05,50.82 C78.05,52.27 78.38,53.79 79.41,54.51 L79.41,54.51 C80.44,55.23 81.99,55 82.99,53.56 C84,52.11 83.67,50.59 82.63,49.87 Z" fill="#896024"/>
  <path d="M89.3,79.3 C86.47,81 79.84,84 67.79,89.16 C67.77,89.17 67.75,89.18 67.74,89.18 C67.72,89.19 67.7,89.19 67.68,89.2 C55.62,94.36 48.88,97.08 45.69,97.95 C43.75,98.48 42.09,96.5 43.76,93.97 C46.85,89.3 82.24,74.17 87.75,75.16 C90.75,75.7 91.03,78.27 89.3,79.3 Z" fill="#422B0D"/>
</svg>