<svg viewBox="0 0 128 128" xmlns="http://www.w3.org/2000/svg">
  <defs>
    <radialGradient id="SVGID_1_" cx="103.9406" cy="92.4258" gradientUnits="userSpaceOnUse" r="21.6269">
      <stop offset="0" stop-color="#FFFFFF"/>
      <stop offset="0.096" stop-color="#FEF8EF"/>
      <stop offset="0.2723" stop-color="#FDEED9"/>
      <stop offset="0.4633" stop-color="#FDE7C9"/>
      <stop offset="0.678" stop-color="#FCE3BF"/>
      <stop offset="0.9652" stop-color="#FCE2BC"/>
    </radialGradient>
    <linearGradient id="SVGID_2_" gradientUnits="userSpaceOnUse" x1="53.4144" x2="100.9897" y1="39.5635" y2="100.0606">
      <stop offset="0" stop-color="#AE7237"/>
      <stop offset="0.2085" stop-color="#B0753A"/>
      <stop offset="0.3733" stop-color="#B67D44"/>
      <stop offset="0.5231" stop-color="#BF8B55"/>
      <stop offset="0.664" stop-color="#CD9F6C"/>
      <stop offset="0.7988" stop-color="#DFB98B"/>
      <stop offset="0.9272" stop-color="#F5D8B0"/>
      <stop offset="0.9652" stop-color="#FCE2BC"/>
    </linearGradient>
    <linearGradient id="SVGID_3_" gradientUnits="userSpaceOnUse" x1="109.7661" x2="47.9729" y1="118.4661" y2="31.505">
      <stop offset="0.0737" stop-color="#CECECE"/>
      <stop offset="0.2846" stop-color="#A69C99"/>
      <stop offset="0.4968" stop-color="#84706B"/>
      <stop offset="0.6856" stop-color="#6B504A"/>
      <stop offset="0.8419" stop-color="#5C3D35"/>
      <stop offset="0.9464" stop-color="#56362E"/>
    </linearGradient>
  </defs>
  <path d="M112.75,105.48 C112.75,105.48 117.54,97.74 118.1,94.36 C118.66,90.98 119.37,85.35 118.66,85.35 C117.96,85.35 115.28,90.84 114.86,90.56 C114.44,90.28 117.11,81.69 116.83,78.59 C116.55,75.49 114.58,70.14 114.16,70.42 C113.74,70.7 111.06,79.15 109.94,81.12 C108.82,83.09 105.58,88.16 105.58,88.16 C105.58,88.16 96.99,88.86 92.07,91.26 C87.14,93.65 77.99,99.28 78.13,100.55 C78.27,101.82 92.21,102.24 96.43,101.96 C100.65,101.68 104.31,100.55 104.31,100.55 C104.31,100.55 97.69,104.49 97.97,105.34 C98.25,106.19 103.04,106.61 106.28,106.61 C109.51,106.6 112.75,105.48 112.75,105.48 Z" fill="url(#SVGID_1_)" opacity="0.8"/>
  <path d="M104.51,57.75 C99.03,50.43 87.7,36.03 60.34,18.5 C34.86,2.17 9.77,1.56 6.45,4.71 C4.83,6.24 4.04,8.97 4.65,14.65 C5.12,18.99 7.27,25.23 11.48,29.19 C12.55,30.19 14.9,31.48 17.61,32.52 C21.63,34.06 24.7,34.12 24.7,35.24 C24.7,36.36 21.74,37.21 18.93,36.79 C16.11,36.37 13.16,35.24 13.16,35.24 L20.2,43.41 C20.2,43.41 24.36,43.12 26.82,42.57 C29.14,42.05 32.45,40.29 33.01,41.55 C33.57,42.82 31.11,44.06 28.86,45.05 C26.61,46.04 23.44,46.65 23.44,46.65 C23.44,46.65 40.33,60.31 44.84,65.66 C49.35,71.01 64.41,87.62 68.49,90.16 C72.57,92.69 75.67,95.37 82.99,95.23 C90.31,95.09 110.69,95.31 110.69,95.31 C110.69,95.31 110.32,81 110.32,75.37 C110.32,69.72 107.3,61.49 104.51,57.75 Z" fill="url(#SVGID_2_)"/>
  <path d="M89.22,60.32 C89.22,60.32 87.22,54.56 88.07,51.6 C88.91,48.64 92.57,45.18 92.57,45.18 C92.57,45.18 98.21,51.78 99.4,55.96 C101.13,62.06 100.43,65.04 98.33,69.07 C95.85,73.81 84.69,75.01 78.78,73.84 C75.42,73.17 69.07,70.74 69.07,70.74 C69.07,70.74 74.7,62.57 79.77,60.89 C84.84,59.21 89.22,60.32 89.22,60.32 Z" fill="#6F4838"/>
  <path d="M71.45,27.18 C71.45,27.18 69.04,29.02 68.49,33.94 C68.14,37.11 69.33,41.33 69.33,41.33 C69.33,41.33 64.44,41.16 59.9,43.02 C53,45.84 49.76,51.61 49.76,51.61 C49.76,51.61 54.83,54 60.37,54.85 C64.14,55.42 70.46,55.27 76.23,51.61 C79.58,49.49 80.31,49.22 80.31,49.22 C80.31,49.22 81.24,39.59 78.62,34.65 C75.73,29.15 71.45,27.18 71.45,27.18 Z" fill="#6F4838"/>
  <path d="M57.87,31.08 C57.87,31.08 59,27.11 57.34,23.2 C55.69,19.3 50.51,14.09 50.51,14.09 C50.51,14.09 47.81,18.84 47.24,21.06 C46.4,24.3 48.93,28.38 48.93,28.38 C48.93,28.38 44.28,29.12 41.47,31.05 C35.13,35.41 34.29,41.47 34.29,41.47 C34.29,41.47 42.89,40.51 47.52,39.22 C54.09,37.39 58.08,34.01 58.08,34.01 L57.87,31.08 Z" fill="#734B42"/>
  <path d="M37.76,20.87 C37.76,20.87 35.28,24.07 29.67,24.95 C25.36,25.62 18.1,25.7 18.1,25.7 C18.1,25.7 20.92,21.76 23.17,19.22 C25.42,16.68 30.38,16.71 30.38,16.71 C30.38,16.71 27.26,12.18 27.4,10.92 C27.54,9.66 28.53,6.98 28.53,6.98 C28.53,6.98 32.75,8.53 35.15,12.89 C37.55,17.25 37.76,20.87 37.76,20.87 Z" fill="#734B42"/>
  <path d="M123.07,121.57 C124.08,121.2 124.06,119.61 124.06,118.41 C124.06,117.21 108.71,81.4 95.41,64.77 C82.93,49.16 64.73,36.46 55.83,29.78 C41.19,18.8 10.31,6.38 8.33,5.82 C6.35,5.26 5.22,6.13 7.26,7.4 C9.3,8.67 29.69,15.84 54.28,32.32 C74.31,45.74 83.75,56.16 90.98,66.58 C98.21,77 106.92,92.23 109.92,99.37 C112.92,106.51 117.34,116.88 117.9,118.23 C118.57,119.88 121.64,122.1 123.07,121.57 Z" fill="url(#SVGID_3_)"/>
</svg>