<svg viewBox="0 0 128 128" xmlns="http://www.w3.org/2000/svg">
  <defs/>
  <path d="M32.09,3.96 C32.09,3.96 19.77,7.32 13.85,25.08 C7.67,43.61 16.24,53.44 16.24,53.44 L86.33,86.02 L90.56,84.61 L99.3,79.09 L109.12,62.51 L114.48,39.55 L109.58,25.09 L32.09,3.96 Z" fill="#E0E0E0" opacity="0.7"/>
  <path d="M39.57,11.47 C33.34,9.42 23.74,18.4 21.22,29.73 C18.7,41.06 20.94,50.33 26.56,52.39 C32.18,54.45 40.7,45.65 43.7,35.25 C46.69,24.86 46.13,13.62 39.57,11.47 Z" fill="#CFCFCF"/>
  <path d="M24.34,17.5 C22.1,16.57 18.86,18.44 16.03,28.96 C14.13,36.03 14.65,42.73 18.29,42.86 C21.79,42.98 19.6,38.76 21.91,29.92 C24.24,20.99 27.78,18.92 24.34,17.5 Z" fill="#FFFFFF"/>
  <path d="M59.89,30.32 C60.49,32.89 64,34.3 71.83,37 C79.66,39.7 88.01,42.39 88.01,42.39 L95.52,31.6 C95.52,31.6 76.9,25.63 72.54,24.47 C68.17,23.31 65.22,23.46 62.65,24.92 C60.72,26.01 59.44,28.39 59.89,30.32 Z" fill="#FFFFFF"/>
  <path d="M109.54,25.06 L106.89,27.69 C106.89,27.69 111.22,27.83 112.11,35.31 C112.92,42.06 111.8,49.89 109.23,57.37 C106.37,65.71 101.4,74.17 95.74,79.29 C91.4,83.22 88.09,82.15 88.09,82.15 L86.33,86.03 C86.33,86.03 91.5,88.28 98.3,82.08 C105.03,75.95 109.85,66.95 112.6,58.55 C115.9,48.43 116.39,40.63 115.46,34.5 C114.55,28.49 112.46,26.09 109.54,25.06 Z" fill="#C8C8C8"/>
  <path d="M23.99,51.59 C23.66,52.24 24.74,52.53 30.54,55.32 C35.37,57.65 50.18,64.48 63.48,70.32 C74.46,75.14 85.97,80.5 86.77,81.08 C88.93,82.65 89.69,84.41 89.69,90.58 C89.69,98.18 89.16,115.14 89.16,117.86 C89.16,121.26 88.71,126.25 92.9,126.48 C97.1,126.71 96.87,121.49 96.87,118.77 C96.87,116.05 96.87,95.49 94.6,83.79 C94.06,81.03 93.14,77.32 87.92,74.18 C85.68,72.84 82.52,71.68 78.52,70.11 C62.24,63.69 40.95,54.56 32.44,51.5 C29.07,50.3 25.06,49.45 23.99,51.59 Z" fill="#865C50"/>
  <path d="M92.35,111.1 C91.52,111.06 91.18,112.02 91.13,116.65 C91.08,121.27 91.03,122.78 92.35,122.73 C93.66,122.68 93.57,120.83 93.52,116.6 C93.48,113.49 93.47,111.15 92.35,111.1 Z" fill="#FFFFFF"/>
  <path d="M83.36,49.85 C79.27,59.97 78.23,71.48 80.11,78.51 C81.93,85.31 86.32,86.03 86.32,86.03 L88.08,82.15 C88.08,82.15 85.65,82.44 84.19,78.36 C82.73,74.27 82.73,59.96 86.91,50.34 C92.7,37.04 99.73,31.23 102.96,29.55 C106.42,27.75 108.9,28.74 108.9,28.74 L109.57,25.09 C109.57,25.09 104.79,22.87 98.13,27.92 C91.81,32.73 86.99,40.86 83.36,49.85 Z" fill="#C8C8C8"/>
  <path d="M109.65,29.33 C109.27,30.09 107.78,29.34 104.45,30.71 C99.86,32.59 96.15,36.93 92.34,43.22 C89.06,48.63 85.33,56.97 84.88,66.96 C84.43,76.95 86.95,81.07 87.66,81.98 C88.38,82.89 88.8,82.93 88.52,83.65 C88.12,84.67 86.61,84.21 85.84,83.6 C84.43,82.48 81.28,78.26 81.94,67.85 C82.48,59.2 85.95,48.15 91.27,39.54 C96.21,31.54 100.57,28.52 105.58,27.61 C108.93,26.99 110.22,28.19 109.65,29.33 Z" fill="#FFFFFF"/>
</svg>