<svg viewBox="0 0 128 128" xmlns="http://www.w3.org/2000/svg">
  <defs/>
  <path d="M74.36,5.37 C74.36,5.37 92.84,4.18 108.95,26.5 C123.2,46.24 117.91,75.79 106.22,88.43 C95.41,100.12 85.95,103.54 75.72,104.45 C65.49,105.36 51.94,56.83 52.67,55.19 C53.4,53.55 74.36,5.37 74.36,5.37 Z" fill="#DB0D2A"/>
  <path d="M53.88,6.71 C53.99,6.27 59.73,4.76 59.73,4.76 C59.73,4.76 72.81,3.68 79.93,6.64 C87.07,9.61 101.93,18.6 107.05,39.1 C111.63,57.41 109.25,81.31 90.61,97.25 C74.88,110.69 49.25,104.2 49.25,104.2 L53.88,6.71 Z" fill="#871E0E"/>
  <path d="M98.74,51.37 C99.05,51.99 102.59,62.12 104.72,67.39 C107.09,73.27 109.72,78.12 111.27,80.8 C112.82,83.48 116.03,88.82 116.03,88.82 L117.54,83.02 C117.54,83.02 111.97,73.17 108.97,65.61 C106.6,59.62 105.05,55.79 103.9,52.32 C102.56,48.28 101.06,41.21 98.89,39.15 C96.72,37.07 98.74,51.37 98.74,51.37 Z" fill="#C0B3AE"/>
  <path d="M66,111.76 C66,111.76 71.1,112.22 71.86,112.7 C73.46,113.7 73.64,113.9 73.64,113.9 L80,115.36 C80,115.36 80.05,118.09 82.61,118.07 C84.68,118.05 85.54,116.29 85.54,116.29 C85.54,116.29 87.92,117.05 90.9,117.6 C93.87,118.14 95.71,116.39 95.71,116.39 C95.71,116.39 96.36,115.03 93.95,114.64 C91.54,114.25 89.25,113.63 89.25,113.63 C89.25,113.63 90.52,113.16 90.56,113.14 C91.43,112.73 92,110.9 91.83,110.55 C91.39,109.67 89.37,109.85 89.37,109.85 C89.37,109.85 87.81,110.48 86.86,110.62 C85.91,110.77 83.5,111.13 83.5,111.13 L82.04,111.35 L78.9,110.33 C78.9,110.33 73.86,108.94 71.01,108.8 C68.16,108.66 66,111.76 66,111.76 Z" fill="#C0B3AE"/>
  <path d="M89.38,109.84 C89.38,109.84 90.06,110.66 90.33,111.32 C90.6,111.98 90.56,113.12 90.56,113.12 C90.56,113.12 91.99,112.64 93.84,111.41 C95.18,110.51 96.64,109.32 96.68,108.17 C96.73,106.95 95.65,105.9 94.5,106.39 C93.88,106.66 93.38,107.57 92.05,108.37 C90.72,109.18 89.38,109.84 89.38,109.84 Z" fill="#D8CCC7"/>
  <path d="M93.96,114.63 C93.92,114.52 90.32,117.5 90.32,117.5 C90.32,117.5 99.18,119.38 107.91,117.38 C111.08,116.65 118.32,114.26 121.96,108.42 C123.93,105.25 124.84,99.67 123.5,94.56 C122.32,90.03 117.22,82.45 117.22,82.45 C117.22,82.45 116.7,82.97 115.88,83.95 C115.06,84.93 114.56,86.42 114.56,86.42 C114.56,86.42 123.24,99.03 118.32,106.14 C110.85,116.94 93.96,114.63 93.96,114.63 Z" fill="#D8CCC7"/>
  <path d="M81.44,111.15 C81.44,111.15 82.54,109.04 84.74,109.47 C85.68,109.65 85.98,110.69 85.96,110.74 C85.38,112.16 84.84,113.26 83.85,114.13 C82.34,115.46 79.94,115.36 79.94,115.36 C79.94,115.36 73.71,115.87 69.27,118.16 C64.83,120.45 49.9,129.92 46.89,120.86 C44.38,113.27 54.16,109.07 60.28,108.52 C66.41,107.97 71.75,108.84 71.75,108.84 C71.75,108.84 66.26,111.77 66.08,111.77 C65.9,111.77 56.71,111.54 52.64,114.92 C48.57,118.3 51.21,121.21 53.83,120.63 C59.04,119.49 67.9,113.62 73.07,112.26 C77.98,110.98 81.44,111.15 81.44,111.15 Z" fill="#D8CCC7"/>
  <path d="M55.1,4.36 C26.27,5.38 8.96,29.81 8.96,55.94 C8.96,80.38 26.94,103.73 52.05,104.97 C79.53,106.33 103.11,87.84 102.6,54.08 C102.11,21.45 79.18,3.52 55.1,4.36 Z" fill="#DB0D2A"/>
  <path d="M21.01,54.75 C21.01,81.21 39.84,90.95 50.68,91.53 C63.4,92.21 84.61,84.29 84.96,56.78 C85.27,31.95 65.45,20.94 53.58,20.65 C39.84,20.31 21.01,32.36 21.01,54.75 Z" fill="#FF5F5F"/>
  <path d="M30,19.47 C30.93,20.8 33.47,16.91 42.7,15.18 C50.32,13.75 57.94,14.39 64.26,16.37 C71.57,18.65 74.76,23.31 77.41,19.2 C79.91,15.32 74.42,12.01 66.36,9.97 C56.59,7.5 46.68,9.09 40.14,11.89 C34.38,14.35 29.36,18.55 30,19.47 Z" fill="#FFFFFF"/>
  <path d="M80.41,22.16 C79.21,23.83 79.93,25.83 81.62,27.07 C83.31,28.32 85.14,28.66 86.46,27.18 C87.85,25.63 86.89,23.22 85.17,21.96 C83.21,20.52 81.37,20.82 80.41,22.16 Z" fill="#FFFFFF"/>
</svg>