<svg viewBox="0 0 128 128" xmlns="http://www.w3.org/2000/svg">
  <defs/>
  <path d="M116,4 L12,4 C7.6,4 4,7.6 4,12 L4,116 C4,120.4 7.6,124 12,124 L116,124 C120.4,124 124,120.4 124,116 L124,12 C124,7.6 120.4,4 116,4 Z" fill="#427687"/>
  <path d="M109.7,4 L11.5,4 C7.4,4 4,7.4 4,11.5 L4,109.4 C4,113.6 7.4,116.9 11.5,116.9 L109.6,116.9 C113.8,116.9 117.1,113.5 117.1,109.4 L117.1,11.5 C117.3,7.4 113.8,4 109.7,4 Z" fill="#8CAFBF"/>
  <path d="M71.36,94.85 L37.42,94.85 C35.02,94.99 33.04,93.01 33.18,90.61 L33.18,56.66 C33.39,53.2 37.56,51.71 39.97,54.11 L49.87,64.01 C50.65,64.79 51.92,64.79 52.7,64.01 L85.23,31.48 C86.79,29.92 89.33,29.92 90.89,31.48 L96.55,37.14 C98.11,38.7 98.11,41.24 96.55,42.8 L64.01,75.33 C63.23,76.11 63.23,77.38 64.01,78.16 L73.91,88.06 C76.31,90.46 74.83,94.64 71.36,94.85 Z" fill="#FAFAFA"/>
  <path d="M39.7,12.9 C39.7,10.6 38.1,9.9 28.9,10.2 C21.2,10.5 17.4,11.4 15.1,14.2 C12.8,17 12.2,22.7 12.1,29.5 C12.1,34.3 12.1,38.8 14.6,38.8 C18,38.8 18,30.9 20.8,26.5 C26.2,17.8 39.7,15.9 39.7,12.9 Z" fill="#B4E1ED" opacity="0.5"/>
</svg>