<svg viewBox="0 0 128 128" xmlns="http://www.w3.org/2000/svg">
  <defs/>
  <path d="M116,4 L12,4 C7.6,4 4,7.6 4,12 L4,116 C4,120.4 7.6,124 12,124 L116,124 C120.4,124 124,120.4 124,116 L124,12 C124,7.6 120.4,4 116,4 Z" fill="#427687"/>
  <path d="M109.7,4 L11.5,4 C7.4,4 4,7.4 4,11.5 L4,109.4 C4,113.6 7.4,116.9 11.5,116.9 L109.6,116.9 C113.8,116.9 117.1,113.5 117.1,109.4 L117.1,11.5 C117.3,7.4 113.8,4 109.7,4 Z" fill="#8CAFBF"/>
  <path d="M44,22 L76,22 C78.2,22 80,23.8 80,26 L80,34 C80,36.2 78.2,38 76,38 L44,38 C37.5,38 32,45.3 32,54 C32,62.7 37.5,70 44,70 L78,70 C79.1,70 80,69.1 80,68 L80,54 C80,50.6 84.1,48.7 86.6,51 L110.6,75 C112.4,76.6 112.4,79.4 110.6,81 L86.6,105 C84,107.3 80,105.4 80,102 L80,88 C80,86.9 79.1,86 78,86 L44,86 C28.5,86 16,71.7 16,54 C16,36.3 28.5,22 44,22 Z" fill="#FAFAFA"/>
  <path d="M39.7,12.9 C39.7,10.6 38.1,9.9 28.9,10.2 C21.2,10.5 17.4,11.4 15.1,14.2 C12.8,17 12.2,22.7 12.1,29.5 C12.1,34.3 12.1,38.8 14.6,38.8 C18,38.8 18,30.9 20.8,26.5 C26.2,17.8 39.7,15.9 39.7,12.9 Z" fill="#B4E1ED" opacity="0.5"/>
</svg>