<svg viewBox="0 0 128 128" xmlns="http://www.w3.org/2000/svg">
  <defs/>
  <path d="M4.28,86.4 L4.01,90.77 C3.87,93.25 5.72,94.15 7.52,94.15 L120.47,94.15 C122.27,94.15 124.13,93.5 124,90.62 L123.73,86.4 L4.28,86.4 Z" fill="#2F7889"/>
  <path d="M120.47,90.79 L7.53,90.79 C5.73,90.79 4.21,89.27 4.21,87.47 L7.15,37.16 C7.15,35.26 8.67,33.84 10.47,33.84 L117.54,33.84 C119.34,33.84 120.86,35.36 120.86,37.16 L123.8,87.47 C123.8,89.27 122.28,90.79 120.47,90.79 Z" fill="#C3D2D9"/>
  <path d="M12.47,47.95 C12.47,48.93 13.16,49.62 14.04,49.62 L18.71,49.62 C19.59,49.62 20.28,48.84 20.28,47.95 L20.42,45.65 L12.68,45.65 L12.47,47.95 Z" fill="#2F7889"/>
  <path d="M24.23,47.95 C24.23,48.93 24.92,49.62 25.8,49.62 L30.4,49.62 C31.39,49.62 31.97,48.92 31.97,47.95 L31.97,45.65 L24.26,45.65 L24.23,47.95 Z" fill="#2F7889"/>
  <path d="M35.3,47.95 C35.3,48.93 36.08,49.62 36.97,49.62 L41.57,49.62 C42.45,49.62 43.24,48.97 43.24,47.95 L43.24,45.65 L35.3,45.65 L35.3,47.95 Z" fill="#2F7889"/>
  <path d="M46.56,47.95 C46.56,48.93 47.34,49.62 48.23,49.62 L52.83,49.62 C53.71,49.62 54.5,49.02 54.5,47.95 L54.5,45.65 L46.56,45.65 L46.56,47.95 Z" fill="#2F7889"/>
  <path d="M57.73,47.95 C57.73,48.93 58.38,49.62 59.4,49.62 L64,49.62 C64.88,49.62 65.67,49.11 65.67,47.95 L65.67,45.65 L57.73,45.65 L57.73,47.95 Z" fill="#2F7889"/>
  <path d="M69,47.95 C69,48.93 69.78,49.62 70.67,49.62 L75.27,49.62 C76.15,49.62 76.94,49.11 76.94,47.95 L76.94,45.65 L69,45.65 L69,47.95 Z" fill="#2F7889"/>
  <path d="M80.17,47.95 C80.17,48.93 80.95,49.62 81.84,49.62 L86.44,49.62 C87.32,49.62 88.06,49.2 88.11,47.95 L88.11,45.65 L80.17,45.65 L80.17,47.95 Z" fill="#2F7889"/>
  <path d="M91.33,47.95 C91.33,48.93 92.11,49.62 93,49.62 L97.81,49.62 C98.84,49.62 99.66,48.94 99.57,47.86 L99.44,45.65 L91.33,45.65 L91.33,47.95 Z" fill="#2F7889"/>
  <path d="M103.09,47.95 C103.09,48.93 103.87,49.62 104.76,49.62 L113.63,49.62 C114.51,49.62 115.3,48.93 115.3,47.95 L115.14,45.65 L103.1,45.65 L103.1,47.95 Z" fill="#2F7889"/>
  <path d="M107.23,59.7 C107.23,60.58 108.01,61.37 108.9,61.37 L114.34,61.37 C115.22,61.37 116.01,60.68 116.01,59.7 L115.91,58.21 L107.24,58.21 L107.24,59.7 Z" fill="#2F7889"/>
  <path d="M95.84,59.7 C95.84,60.58 96.53,61.37 97.51,61.37 L102.11,61.37 C102.99,61.37 103.78,60.68 103.78,59.7 L103.78,58.21 L95.84,58.21 L95.84,59.7 Z" fill="#2F7889"/>
  <path d="M84.57,59.7 C84.67,60.58 85.35,61.37 86.24,61.37 L90.84,61.37 C91.72,61.37 92.51,60.68 92.51,59.7 L92.51,58.21 L84.57,58.21 L84.57,59.7 Z" fill="#2F7889"/>
  <path d="M73.41,59.7 C73.41,60.58 74.19,61.37 75.08,61.37 L79.68,61.37 C80.56,61.37 81.35,60.68 81.35,59.7 L81.35,58.21 L73.41,58.21 L73.41,59.7 Z" fill="#2F7889"/>
  <path d="M62.14,59.7 C62.24,60.58 62.92,61.37 63.81,61.37 L68.41,61.37 C69.29,61.37 70.08,60.68 70.08,59.7 L70.08,58.21 L62.14,58.21 L62.14,59.7 Z" fill="#2F7889"/>
  <path d="M50.97,59.7 C50.97,60.58 51.75,61.37 52.64,61.37 L57.24,61.37 C58.12,61.37 58.91,60.68 58.91,59.7 L58.91,58.21 L50.97,58.21 L50.97,59.7 Z" fill="#2F7889"/>
  <path d="M39.8,59.7 C39.8,60.58 40.58,61.37 41.47,61.37 L46.07,61.37 C46.95,61.37 47.74,60.68 47.74,59.7 L47.74,58.21 L39.8,58.21 L39.8,59.7 Z" fill="#2F7889"/>
  <path d="M28.63,59.7 C28.63,60.58 29.32,61.37 30.2,61.37 L34.8,61.37 C35.68,61.37 36.47,60.68 36.47,59.7 L36.47,58.21 L28.63,58.21 L28.63,59.7 Z" fill="#2F7889"/>
  <path d="M11.82,59.7 C11.82,60.58 12.51,61.37 13.39,61.37 L23.05,61.37 C23.93,61.37 24.62,60.68 24.62,59.7 L24.62,58.21 L11.83,58.18 L11.82,59.7 Z" fill="#2F7889"/>
  <path d="M79.68,71.76 C79.68,72.57 80.37,73.38 81.25,73.38 L85.85,73.38 C86.73,73.38 87.42,72.67 87.42,71.76 L87.42,70.39 L79.68,70.39 L79.68,71.76 Z" fill="#2F7889"/>
  <path d="M67.92,71.76 C67.92,72.57 68.61,73.38 69.49,73.38 L74.09,73.38 C74.97,73.38 75.66,72.67 75.66,71.76 L75.65,70.39 L67.92,70.39 L67.92,71.76 Z" fill="#2F7889"/>
  <path d="M56.16,71.76 C56.16,72.57 56.85,73.38 57.73,73.38 L62.33,73.38 C63.21,73.38 63.9,72.67 63.9,71.76 L63.9,70.39 L56.16,70.39 L56.16,71.76 Z" fill="#2F7889"/>
  <path d="M44.41,71.76 C44.31,72.57 45.1,73.38 45.98,73.38 L50.58,73.38 C51.46,73.38 52.15,72.67 52.15,71.76 L52.15,70.39 L44.41,70.39 L44.41,71.76 Z" fill="#2F7889"/>
  <path d="M32.65,71.76 C32.55,72.57 33.34,73.38 34.22,73.38 L38.82,73.38 C39.7,73.38 40.39,72.67 40.39,71.76 L40.39,70.66 L32.65,70.66 L32.65,71.76 Z" fill="#2F7889"/>
  <path d="M11.39,71.66 C11.39,72.57 12.08,73.38 12.96,73.38 L26.45,73.38 C27.33,73.38 28.02,72.67 28.02,71.66 L28.14,70.35 L11.41,70.35 L11.39,71.66 Z" fill="#2F7889"/>
  <path d="M91.95,71.76 C92.05,72.77 92.73,73.48 93.62,73.48 L114.95,73.48 C115.83,73.48 116.62,72.77 116.62,71.76 L116.61,70.35 L91.93,70.4 L91.95,71.76 Z" fill="#2F7889"/>
  <path d="M109.38,85.23 L115.51,85.23 C116.39,85.23 117.18,84.51 117.18,83.49 L117.18,81.94 L107.71,81.94 L107.71,83.49 C107.71,84.42 108.5,85.23 109.38,85.23 Z" fill="#2F7889"/>
  <path d="M96.53,85.23 L101.73,85.23 C102.61,85.23 103.4,84.51 103.4,83.49 L103.4,81.86 L94.87,81.94 L94.87,83.49 C94.86,84.42 95.55,85.23 96.53,85.23 Z" fill="#2F7889"/>
  <path d="M38.92,85.23 L88.88,85.23 C89.76,85.23 90.55,84.51 90.55,83.49 L90.55,81.94 L37.25,81.94 L37.26,83.49 C37.26,84.68 38.04,85.23 38.92,85.23 Z" fill="#2F7889"/>
  <path d="M26.32,85.23 L31.38,85.23 C32.26,85.23 33.05,84.51 33.05,83.49 L33.05,81.94 L24.85,82.12 L24.86,83.49 C24.82,84.48 25.44,85.23 26.32,85.23 Z" fill="#2F7889"/>
  <path d="M12.18,85.23 L18.59,85.23 C19.47,85.23 20.16,84.51 20.16,83.49 L20.16,81.94 L10.62,81.94 L10.62,83.49 C10.61,84.42 11.29,85.23 12.18,85.23 Z" fill="#2F7889"/>
  <path d="M18.78,47.9 L14.18,47.9 C13.3,47.9 12.61,47.25 12.61,46.31 L13.06,41.92 C13.06,41.08 13.75,40.33 14.63,40.33 L19.23,40.33 C20.11,40.33 20.8,40.98 20.8,41.92 L20.35,46.31 C20.35,47.15 19.66,47.9 18.78,47.9 Z" fill="#FFFFFF"/>
  <path d="M30.4,47.9 L25.8,47.9 C24.92,47.9 24.23,47.25 24.23,46.31 L24.4,41.92 C24.4,41.08 25.09,40.33 25.97,40.33 L30.4,40.33 C31.28,40.33 31.97,40.98 31.97,41.92 L31.97,46.31 C31.97,47.29 31.38,47.9 30.4,47.9 Z" fill="#FFFFFF"/>
  <path d="M41.57,47.9 L36.97,47.9 C36.09,47.9 35.3,47.25 35.3,46.31 L35.3,41.92 C35.3,41.08 35.99,40.33 36.97,40.33 L41.57,40.33 C42.45,40.33 43.24,40.98 43.24,41.92 L43.24,46.31 C43.23,47.15 42.45,47.9 41.57,47.9 Z" fill="#FFFFFF"/>
  <path d="M52.83,47.9 L48.23,47.9 C47.35,47.9 46.56,47.25 46.56,46.31 L46.56,41.92 C46.56,41.08 47.25,40.33 48.23,40.33 L52.83,40.33 C53.71,40.33 54.5,40.98 54.5,41.92 L54.5,46.31 C54.5,47.26 53.71,47.9 52.83,47.9 Z" fill="#FFFFFF"/>
  <path d="M64,47.9 L59.4,47.9 C58.52,47.9 57.73,47.25 57.73,46.31 L57.73,41.92 C57.73,41.08 58.42,40.33 59.4,40.33 L64,40.33 C64.88,40.33 65.67,40.98 65.67,41.92 L65.67,46.31 C65.67,47.15 64.88,47.9 64,47.9 Z" fill="#FFFFFF"/>
  <path d="M75.27,47.9 L70.67,47.9 C69.79,47.9 69,47.25 69,46.31 L69,41.92 C69,41.08 69.69,40.33 70.67,40.33 L75.27,40.33 C76.15,40.33 76.94,40.98 76.94,41.92 L76.94,46.31 C76.93,47.3 76.15,47.9 75.27,47.9 Z" fill="#FFFFFF"/>
  <path d="M86.44,47.9 L81.84,47.9 C80.96,47.9 80.17,47.25 80.17,46.31 L80.17,41.92 C80.17,41.08 80.86,40.33 81.84,40.33 L86.44,40.33 C87.32,40.33 88.11,40.98 88.11,41.92 L88.11,46.31 C88.1,47.32 87.32,47.9 86.44,47.9 Z" fill="#FFFFFF"/>
  <path d="M97.81,47.9 L93,47.9 C92.12,47.9 91.33,47.25 91.33,46.31 L91.33,41.92 C91.33,41.08 92.02,40.33 93,40.33 L97.6,40.33 C98.48,40.33 99.27,40.98 99.27,41.92 L99.47,46.31 C99.47,47.15 98.69,47.9 97.81,47.9 Z" fill="#FFFFFF"/>
  <path d="M113.5,47.9 L104.76,47.9 C103.88,47.9 103.09,47.25 103.09,46.31 L103.09,41.92 C103.09,41.08 103.78,40.33 104.76,40.33 L113.28,40.33 C114.16,40.33 114.95,40.98 114.95,41.92 L115.17,46.31 C115.16,47.15 114.38,47.9 113.5,47.9 Z" fill="#FFFFFF"/>
  <path d="M108.89,59.78 L114.33,59.78 C115.21,59.78 116,59.13 116,58.19 L115.69,53.8 C115.69,52.96 115,52.21 114.02,52.21 L108.9,52.21 C108.02,52.21 107.23,52.86 107.23,53.8 L107.23,58.19 C107.23,59.03 108.01,59.78 108.89,59.78 Z" fill="#FFFFFF"/>
  <path d="M97.51,59.78 L102.11,59.78 C102.99,59.78 103.78,59.13 103.78,58.19 L103.78,53.8 C103.78,52.96 103.09,52.21 102.11,52.21 L97.51,52.21 C96.63,52.21 95.84,52.86 95.84,53.8 L95.84,58.19 C95.84,59.03 96.53,59.78 97.51,59.78 Z" fill="#FFFFFF"/>
  <path d="M86.24,59.78 L90.84,59.78 C91.72,59.78 92.51,59.13 92.51,58.19 L92.51,53.8 C92.51,52.96 91.82,52.21 90.84,52.21 L86.24,52.21 C85.36,52.21 84.57,52.86 84.57,53.8 L84.57,58.19 C84.67,59.03 85.36,59.78 86.24,59.78 Z" fill="#FFFFFF"/>
  <path d="M75.07,59.78 L79.67,59.78 C80.55,59.78 81.34,59.13 81.34,58.19 L81.34,53.8 C81.34,52.96 80.65,52.21 79.67,52.21 L75.07,52.21 C74.19,52.21 73.4,52.86 73.4,53.8 L73.4,58.19 C73.41,59.03 74.19,59.78 75.07,59.78 Z" fill="#FFFFFF"/>
  <path d="M63.81,59.78 L68.41,59.78 C69.29,59.78 70.08,59.13 70.08,58.19 L70.08,53.8 C70.08,52.96 69.39,52.21 68.41,52.21 L63.81,52.21 C62.93,52.21 62.14,52.86 62.14,53.8 L62.14,58.19 C62.24,59.03 62.92,59.78 63.81,59.78 Z" fill="#FFFFFF"/>
  <path d="M52.64,59.78 L57.24,59.78 C58.12,59.78 58.91,59.13 58.91,58.19 L58.91,53.8 C58.91,52.96 58.22,52.21 57.24,52.21 L52.64,52.21 C51.76,52.21 50.97,52.86 50.97,53.8 L50.97,58.19 C50.97,59.03 51.76,59.78 52.64,59.78 Z" fill="#FFFFFF"/>
  <path d="M41.47,59.78 L46.07,59.78 C46.95,59.78 47.74,59.13 47.74,58.19 L47.74,53.8 C47.74,52.96 47.05,52.21 46.07,52.21 L41.47,52.21 C40.59,52.21 39.8,52.86 39.8,53.8 L39.8,58.19 C39.8,59.03 40.59,59.78 41.47,59.78 Z" fill="#FFFFFF"/>
  <path d="M30.2,59.78 L34.8,59.78 C35.68,59.78 36.47,59.13 36.47,58.19 L36.47,53.8 C36.47,52.96 35.78,52.21 34.8,52.21 L30.2,52.21 C29.32,52.21 28.63,52.86 28.63,53.8 L28.63,58.19 C28.63,59.03 29.32,59.78 30.2,59.78 Z" fill="#FFFFFF"/>
  <path d="M13.39,59.78 L23.05,59.78 C23.93,59.78 24.62,59.13 24.62,58.19 L24.62,53.8 C24.62,52.96 23.93,52.21 23.05,52.21 L13.74,52.21 C12.86,52.21 12.17,52.86 12.17,53.8 L11.82,58.19 C11.82,59.03 12.51,59.78 13.39,59.78 Z" fill="#FFFFFF"/>
  <path d="M81.24,71.7 L85.84,71.7 C86.72,71.7 87.41,71.05 87.41,70.21 L87.41,65.82 C87.41,64.98 86.72,64.33 85.84,64.33 L81.24,64.33 C80.36,64.33 79.67,64.98 79.67,65.82 L79.67,70.21 C79.68,70.95 80.36,71.7 81.24,71.7 Z" fill="#FFFFFF"/>
  <path d="M69.49,71.7 L74.09,71.7 C74.97,71.7 75.66,71.05 75.66,70.21 L75.66,65.82 C75.66,64.98 74.97,64.33 74.09,64.33 L69.49,64.33 C68.61,64.33 67.92,64.98 67.92,65.82 L67.92,70.21 C67.92,70.95 68.61,71.7 69.49,71.7 Z" fill="#FFFFFF"/>
  <path d="M57.73,71.7 L62.33,71.7 C63.21,71.7 63.9,71.05 63.9,70.21 L63.9,65.82 C63.9,64.98 63.21,64.33 62.33,64.33 L57.73,64.33 C56.85,64.33 56.16,64.98 56.16,65.82 L56.16,70.21 C56.16,70.95 56.85,71.7 57.73,71.7 Z" fill="#FFFFFF"/>
  <path d="M45.97,71.7 L50.57,71.7 C51.45,71.7 52.14,71.05 52.14,70.21 L52.14,65.82 C52.14,64.98 51.45,64.33 50.57,64.33 L45.97,64.33 C45.09,64.33 44.4,64.98 44.4,65.82 L44.4,70.21 C44.41,70.99 45.09,71.7 45.97,71.7 Z" fill="#FFFFFF"/>
  <path d="M34.22,71.7 L38.82,71.7 C39.7,71.7 40.39,71.05 40.39,70.21 L40.39,65.82 C40.39,64.98 39.7,64.33 38.82,64.33 L34.22,64.33 C33.34,64.33 32.65,64.98 32.65,65.82 L32.65,70.21 C32.55,70.95 33.34,71.7 34.22,71.7 Z" fill="#FFFFFF"/>
  <path d="M12.96,71.7 L26.58,71.7 C27.46,71.7 28.15,71.05 28.15,70.11 L28.44,65.72 C28.44,64.88 27.75,64.13 26.87,64.13 L13.19,64.13 C12.31,64.13 11.62,64.78 11.62,65.72 L11.39,70.11 C11.39,70.95 12.08,71.7 12.96,71.7 Z" fill="#FFFFFF"/>
  <path d="M93.56,71.79 L114.94,71.79 C115.82,71.79 116.61,71.14 116.61,70.2 L116.27,65.53 C116.27,64.69 115.58,63.94 114.6,63.94 L93.31,63.94 C92.43,63.94 91.64,64.59 91.64,65.53 L91.89,70.2 C91.99,71.14 92.68,71.79 93.56,71.79 Z" fill="#FFFFFF"/>
  <path d="M109.38,83.53 L115.51,83.53 C116.39,83.53 117.18,82.88 117.18,81.94 L116.89,77.55 C116.89,76.71 116.2,75.96 115.22,75.96 L109.38,75.96 C108.5,75.96 107.71,76.61 107.71,77.55 L107.71,81.94 C107.71,82.78 108.5,83.53 109.38,83.53 Z" fill="#FFFFFF"/>
  <path d="M96.53,83.53 L101.73,83.53 C102.61,83.53 103.4,82.88 103.4,81.94 L103.4,77.55 C103.4,76.71 102.71,75.96 101.73,75.96 L96.53,75.96 C95.65,75.96 94.86,76.61 94.86,77.55 L94.86,81.94 C94.86,82.78 95.55,83.53 96.53,83.53 Z" fill="#FFFFFF"/>
  <path d="M38.92,83.53 L88.88,83.53 C89.76,83.53 90.55,82.88 90.55,81.94 L90.55,77.55 C90.55,76.71 89.86,75.96 88.88,75.96 L38.92,75.96 C38.04,75.96 37.25,76.61 37.25,77.55 L37.25,81.94 C37.17,82.96 38.04,83.53 38.92,83.53 Z" fill="#FFFFFF"/>
  <path d="M26.32,83.53 L31.38,83.53 C32.26,83.53 33.05,82.88 33.05,81.94 L33.05,77.55 C33.05,76.71 32.36,75.96 31.48,75.96 L26.39,75.98 C25.51,75.98 24.82,76.63 24.82,77.57 L24.85,81.94 C24.82,82.83 25.44,83.53 26.32,83.53 Z" fill="#FFFFFF"/>
  <path d="M12.18,83.53 L18.59,83.53 C19.47,83.53 20.16,82.88 20.16,81.94 L20.16,77.55 C20.16,76.71 19.47,75.96 18.59,75.96 L12.61,75.96 C11.73,75.96 11.04,76.61 11.04,77.55 L10.61,81.94 C10.61,82.78 11.29,83.53 12.18,83.53 Z" fill="#FFFFFF"/>
</svg>