<svg viewBox="0 0 128 128" xmlns="http://www.w3.org/2000/svg">
  <defs/>
  <path d="M116.46,4 L12.46,4 C8.04,4 4.46,7.58 4.46,12 L4.46,116 C4.46,120.42 8.04,124 12.46,124 L116.46,124 C120.88,124 124.46,120.42 124.46,116 L124.46,12 C124.46,7.58 120.88,4 116.46,4 Z" fill="#F77E00"/>
  <path d="M110.16,4 L11.96,4 C7.83,4.03 4.49,7.37 4.46,11.5 L4.46,109.4 C4.45,113.54 7.8,116.89 11.94,116.9 C11.95,116.9 11.95,116.9 11.96,116.9 L110.06,116.9 C114.2,116.91 117.55,113.56 117.56,109.42 C117.56,109.41 117.56,109.41 117.56,109.4 L117.56,11.5 C117.65,7.45 114.43,4.09 110.38,4 C110.31,4 110.23,4 110.16,4 Z" fill="#FF9800"/>
  <path d="M40.16,12.9 C40.16,10.6 38.56,9.9 29.36,10.2 C21.66,10.5 17.86,11.4 15.56,14.2 C13.26,17 12.66,22.7 12.56,29.5 C12.56,34.3 12.56,38.8 15.06,38.8 C18.46,38.8 18.46,30.9 21.26,26.5 C26.66,17.8 40.16,15.9 40.16,12.9 Z" fill="#FFBD52" opacity="0.75"/>
  <path d="M67.76,61.95 L90.06,61.95 C91.19,61.82 92.21,62.64 92.34,63.77 C92.39,64.22 92.29,64.67 92.06,65.05 L66.46,104.95 C65.7,106.05 64.18,106.33 63.08,105.57 C62.84,105.4 62.63,105.19 62.46,104.95 L36.76,65.05 C36.18,64.07 36.5,62.81 37.48,62.23 C37.87,62 38.32,61.9 38.76,61.95 L61.06,61.95 L36.66,24.95 C35.76,23.55 36.86,21.95 38.66,21.95 L90.16,21.95 C91.96,21.95 93.06,23.65 92.16,24.95 L67.76,61.95 Z" fill="#FAFAFA"/>
</svg>