<svg viewBox="0 0 128 128" xmlns="http://www.w3.org/2000/svg">
  <defs/>
  <path d="M116.46,3.96 L12.46,3.96 C8.04,3.96 4.46,7.54 4.46,11.96 L4.46,115.96 C4.46,120.38 8.04,123.96 12.46,123.96 L116.46,123.96 C120.88,123.96 124.46,120.38 124.46,115.96 L124.46,11.96 C124.46,7.54 120.88,3.96 116.46,3.96 Z" fill="#F77E00"/>
  <path d="M110.16,3.96 L11.96,3.96 C7.83,3.99 4.49,7.33 4.46,11.46 L4.46,109.36 C4.45,113.5 7.8,116.85 11.94,116.86 C11.95,116.86 11.95,116.86 11.96,116.86 L110.06,116.86 C114.2,116.87 117.55,113.52 117.56,109.38 C117.56,109.37 117.56,109.37 117.56,109.36 L117.56,11.46 C117.65,7.41 114.43,4.05 110.38,3.96 C110.31,3.96 110.23,3.96 110.16,3.96 Z" fill="#FF9800"/>
  <path d="M40.16,12.86 C40.16,10.56 38.56,9.86 29.36,10.16 C21.66,10.46 17.86,11.36 15.56,14.16 C13.26,16.96 12.66,22.66 12.56,29.46 C12.56,34.26 12.56,38.76 15.06,38.76 C18.46,38.76 18.46,30.86 21.26,26.46 C26.66,17.76 40.16,15.86 40.16,12.86 Z" fill="#FFBD52" opacity="0.75"/>
  <path d="M82.56,91.96 L72.36,91.96 C71.31,91.96 70.46,91.11 70.46,90.06 L70.46,90.06 L70.46,37.86 C70.46,36.81 71.31,35.96 72.36,35.96 L72.36,35.96 L82.66,35.96 C83.71,35.96 84.56,36.81 84.56,37.86 L84.56,37.86 L84.56,90.16 C84.46,91.19 83.59,91.97 82.56,91.96 Z" fill="#FAFAFA"/>
  <path d="M104.56,91.96 L94.36,91.96 C93.31,91.96 92.46,91.11 92.46,90.06 L92.46,90.06 L92.46,37.86 C92.46,36.81 93.31,35.96 94.36,35.96 L94.36,35.96 L104.66,35.96 C105.71,35.96 106.56,36.81 106.56,37.86 L106.56,37.86 L106.56,90.16 C106.46,91.19 105.59,91.97 104.56,91.96 Z" fill="#FAFAFA"/>
  <path d="M18.46,63.96 L18.46,38.26 C18.43,37.01 19.42,35.98 20.67,35.95 C21.09,35.94 21.5,36.05 21.86,36.26 L65.26,61.96 C66.39,62.68 66.73,64.18 66.01,65.31 C65.82,65.61 65.56,65.86 65.26,66.06 L21.86,91.66 C20.78,92.29 19.4,91.93 18.77,90.85 C18.56,90.49 18.45,90.08 18.46,89.66 L18.46,63.96 Z" fill="#FAFAFA"/>
</svg>