<svg viewBox="0 0 128 128" xmlns="http://www.w3.org/2000/svg">
  <defs/>
  <path d="M116.46,4 L12.46,4 C8.04,4 4.46,7.58 4.46,12 L4.46,116 C4.46,120.42 8.04,124 12.46,124 L116.46,124 C120.88,124 124.46,120.42 124.46,116 L124.46,12 C124.46,7.58 120.88,4 116.46,4 Z" fill="#F77E00"/>
  <path d="M110.16,4 L11.96,4 C7.83,4.03 4.49,7.37 4.46,11.5 L4.46,109.4 C4.45,113.54 7.8,116.89 11.94,116.9 C11.95,116.9 11.95,116.9 11.96,116.9 L110.06,116.9 C114.2,116.91 117.55,113.56 117.56,109.42 C117.56,109.41 117.56,109.41 117.56,109.4 L117.56,11.5 C117.65,7.45 114.43,4.09 110.38,4 C110.31,4 110.23,4 110.16,4 Z" fill="#FF9800"/>
  <path d="M40.16,12.9 C40.16,10.6 38.56,9.9 29.36,10.2 C21.66,10.5 17.86,11.4 15.56,14.2 C13.26,17 12.66,22.7 12.56,29.5 C12.56,34.3 12.56,38.8 15.06,38.8 C18.46,38.8 18.46,30.9 21.26,26.5 C26.66,17.8 40.16,15.9 40.16,12.9 Z" fill="#FFBD52" opacity="0.75"/>
  <path d="M104.46,64 L104.46,38.3 C104.46,36.5 102.76,35.4 101.46,36.3 L64.46,60.7 L64.46,38.3 C64.59,37.17 63.77,36.15 62.64,36.02 C62.19,35.97 61.74,36.07 61.36,36.3 L21.46,62 C20.33,62.82 20.07,64.4 20.89,65.53 C21.05,65.75 21.24,65.94 21.46,66.1 L61.26,91.8 C62.24,92.38 63.5,92.06 64.08,91.08 C64.31,90.69 64.41,90.24 64.36,89.8 L64.36,67.3 L101.36,91.7 C102.76,92.6 104.36,91.5 104.36,89.7 L104.46,64 Z" fill="#FAFAFA"/>
</svg>