<svg viewBox="0 0 128 128" xmlns="http://www.w3.org/2000/svg">
  <defs/>
  <path d="M22.75,20.03 L104.95,20.03 C106.55,20.03 107.85,21.33 107.85,22.93 L107.85,22.93 L107.85,105.13 C107.85,106.73 106.55,108.03 104.95,108.03 L104.95,108.03 L22.75,108.03 C21.15,108.03 19.85,106.73 19.85,105.13 L19.85,105.13 L19.85,23.03 C19.77,21.45 20.99,20.11 22.57,20.03 C22.63,20.03 22.69,20.03 22.75,20.03 Z" fill="#BDBDBD"/>
  <path d="M22.65,20.03 L97.55,20.03 C99.08,20.06 100.32,21.3 100.35,22.83 L100.35,97.73 C100.32,99.26 99.08,100.5 97.55,100.53 L22.65,100.53 C21.12,100.5 19.88,99.26 19.85,97.73 L19.85,22.93 C19.81,21.37 21.03,20.08 22.59,20.03 C22.61,20.03 22.63,20.03 22.65,20.03 Z" fill="#E0E0E0"/>
  <path d="M44.25,27.33 C44.25,25.83 43.25,25.43 37.35,25.63 C32.45,25.83 30.05,26.43 28.55,28.23 C27.05,30.03 26.65,33.63 26.65,38.03 C26.65,41.13 26.65,43.93 28.25,43.93 C30.45,43.93 30.45,38.93 32.25,36.03 C35.55,30.53 44.25,29.33 44.25,27.33 Z" fill="#FFFFFF"/>
</svg>