<svg viewBox="0 0 128 128" xmlns="http://www.w3.org/2000/svg">
  <defs/>
  <path d="M20.99,59.62 C20.99,59.62 19.41,61.28 19.49,63.55 C19.58,66.42 21.41,67.67 23.32,70.54 C25.24,73.41 57.96,119.64 59.38,121.12 C61.01,122.82 61.66,124.19 64.08,124.14 C66.48,124.1 67.72,122.43 68.58,121.38 C69.44,120.33 105.43,69.87 107.63,66.71 C109,64.74 108.78,63.16 108.68,62.3 C108.58,61.44 107.15,59.62 107.15,59.62 L20.99,59.62 Z" fill="#DB0A28"/>
  <path d="M20.93,59.68 L64.14,118.06 L107.15,59.62 C107.15,59.62 70.08,7.66 69.12,6.19 C68.17,4.72 66.52,2.89 64.26,2.89 C62.09,2.89 60.36,4.45 58.79,6.62 C57.79,8.04 20.93,59.68 20.93,59.68 Z" fill="#FF222D"/>
</svg>