<svg viewBox="0 0 128 128" xmlns="http://www.w3.org/2000/svg">
  <defs/>
  <path d="M38.25,74.8 L7.44,83.6 C7.44,83.6 13.41,101.12 34.73,100.68 C56.05,100.24 61.43,85.5 61.43,85.5 L72.21,89.95 C72.21,89.95 75.83,99.65 91.62,100.98 C109.12,102.45 117.6,88.5 117.6,88.5 C117.6,88.5 96.92,69.65 93.98,69.65 C91.04,69.65 38.25,74.8 38.25,74.8 Z" fill="#606265"/>
  <path d="M32.22,118.62 C32.22,118.62 31.93,120.09 31.93,121.27 C31.93,122.45 31.49,123.33 33.25,123.62 C35.01,123.91 94.12,123.91 95.59,123.91 C97.06,123.91 97.1,121.92 97.1,121.19 C97.1,119.75 96.62,118.62 96.62,118.62 L64.27,110.53 L32.22,118.62 Z" fill="#606265"/>
  <path d="M64.42,3.2 C45.01,3.2 36.22,20.11 36.48,31.58 C36.8,45.75 45.89,50.25 45.01,51.58 C44.13,52.9 39.05,45.7 25.31,48.79 C14.35,51.25 4.02,60.54 5.61,75.99 C6.88,88.31 14.63,97.71 33.84,96.13 C46.34,95.1 51.48,88.78 53.25,87.01 C55.02,85.24 57.62,81.29 58.54,83.19 C59.11,84.37 58.53,94.69 58.46,98.22 C58.4,101.14 56.58,104.21 54.13,106.23 C50.79,108.98 46.28,110.1 43.96,110.82 C39.62,112.15 36.33,112.55 34.63,114.25 C32.57,116.31 32.22,118.63 32.22,118.63 L96.62,118.63 C96.62,118.63 95.6,115.51 91.77,113.31 C86.84,110.48 81.51,109.71 78.28,107.95 C75.05,106.19 73.33,104.52 72.95,102.31 C72.57,100.1 72.5,85.94 72.49,83.5 C72.48,81.66 73.98,82.66 75.08,84.55 C75.88,85.92 83.39,97.61 99.12,97.17 C114.85,96.73 121.62,87.32 121.47,73.35 C121.32,59.38 112.24,52.72 102.8,51 C93.05,49.22 85.74,53.5 85.01,52.47 C84.27,51.44 92.85,45.22 92.8,31.89 C92.76,20.25 84.13,3.2 64.42,3.2 Z" fill="#464C4F"/>
</svg>