<svg viewBox="0 0 128 128" xmlns="http://www.w3.org/2000/svg">
  <defs/>
  <path d="M124,71.85 L124,56.15 C124,55.56 123.55,55.06 122.97,55 L105.14,53.11 C104.67,53.06 104.29,52.73 104.16,52.28 C103.3,49.33 102.13,46.52 100.68,43.89 C100.45,43.48 100.49,42.97 100.79,42.61 L112.07,28.67 C112.44,28.21 112.41,27.54 111.99,27.13 L100.89,16.03 C100.47,15.61 99.81,15.58 99.35,15.95 L85.39,27.22 C85.02,27.52 84.52,27.55 84.11,27.33 C81.47,25.88 78.66,24.71 75.72,23.85 C75.27,23.72 74.94,23.34 74.89,22.87 L73,5.03 C72.94,4.45 72.44,4 71.85,4 L56.15,4 C55.56,4 55.06,4.45 55,5.03 L53.11,22.86 C53.06,23.33 52.73,23.71 52.28,23.84 C49.33,24.7 46.52,25.87 43.89,27.32 C43.48,27.55 42.97,27.51 42.61,27.21 L28.67,15.94 C28.21,15.57 27.54,15.6 27.13,16.02 L16.03,27.12 C15.61,27.54 15.58,28.2 15.95,28.66 L27.23,42.6 C27.53,42.97 27.56,43.47 27.34,43.88 C25.89,46.52 24.72,49.33 23.86,52.27 C23.73,52.72 23.35,53.05 22.88,53.1 L5.03,55 C4.45,55.06 4,55.56 4,56.15 L4,71.85 C4,72.44 4.45,72.94 5.03,73 L22.86,74.89 C23.33,74.94 23.71,75.27 23.84,75.72 C24.7,78.67 25.87,81.48 27.32,84.11 C27.55,84.52 27.51,85.03 27.21,85.39 L15.94,99.33 C15.57,99.79 15.6,100.46 16.02,100.87 L27.12,111.97 C27.54,112.39 28.2,112.42 28.66,112.05 L42.6,100.77 C42.97,100.47 43.47,100.44 43.88,100.66 C46.52,102.11 49.33,103.28 52.27,104.14 C52.72,104.27 53.05,104.65 53.1,105.12 L55,122.97 C55.06,123.56 55.56,124 56.15,124 L71.85,124 C72.44,124 72.94,123.55 73,122.97 L74.89,105.14 C74.94,104.67 75.27,104.29 75.72,104.16 C78.67,103.3 81.48,102.13 84.11,100.68 C84.52,100.45 85.03,100.49 85.39,100.79 L99.33,112.07 C99.79,112.44 100.46,112.41 100.87,111.99 L111.97,100.89 C112.39,100.47 112.42,99.81 112.05,99.35 L100.77,85.41 C100.47,85.04 100.44,84.54 100.66,84.13 C102.11,81.49 103.28,78.68 104.14,75.74 C104.27,75.29 104.65,74.96 105.12,74.91 L122.97,73 C123.55,72.94 124,72.44 124,71.85 Z M64,75.28 C57.77,75.28 52.72,70.23 52.72,64 C52.72,57.77 57.77,52.72 64,52.72 C70.23,52.72 75.28,57.77 75.28,64 C75.28,70.23 70.23,75.28 64,75.28 Z" fill="#82AEC0"/>
  <path d="M80.56,49.48 C84.23,53.66 86.34,59.25 85.99,65.33 C85.34,76.49 76.16,85.52 64.99,86.01 C60.24,86.22 55.81,84.92 52.13,82.56 C51.85,82.38 51.55,82.76 51.79,83 C56.25,87.55 62.64,90.22 69.64,89.67 C80.42,88.82 89.2,80.17 90.19,69.4 C90.96,61.04 87.13,53.53 80.96,49.07 C80.67,48.87 80.34,49.22 80.56,49.48 Z" fill="#2F7889"/>
  <path d="M43.87,65.32 C43.2,52.17 51.7,42.53 63.88,42.53 C64.53,42.53 65.56,42.53 66.36,43.45 C67.37,44.63 67.46,46.05 66.36,47.22 C65.55,48.08 64.41,48.14 63.83,48.22 C51.53,49.81 48.65,57.57 48,64.99 C47.97,65.32 48.06,67.34 46.29,67.55 C44.14,67.8 43.88,65.64 43.87,65.32 Z" fill="#B9E4EA"/>
  <path d="M25.24,65.87 C25.23,43.84 41.14,25.68 63.37,24.82 C64.05,24.79 65.82,24.82 66.92,25.81 C67.93,26.72 68.3,28.32 67.71,29.63 C66.76,31.74 64.86,31.7 64.35,31.72 C45.84,32.38 30.17,47.45 30.16,65.67 C30.16,65.96 30.11,66.25 30.01,66.51 L29.91,66.76 C29.15,68.74 26.39,68.85 25.48,66.94 L25.48,66.94 C25.33,66.6 25.24,66.24 25.24,65.87 Z" fill="#94D1E0"/>
</svg>