<svg viewBox="0 0 128 128" xmlns="http://www.w3.org/2000/svg">
  <defs/>
  <path d="M123.93,64 A60 60 0 1 1 3.93,64 A60 60 0 1 1 123.93,64 Z" fill="#575757"/>
  <path d="M116.13,63.1 A56.1 56.1 0 1 1 3.93,63.1 A56.1 56.1 0 1 1 116.13,63.1 Z" fill="#424242"/>
  <path d="M23.93,29.7 C28.43,22.6 38.03,16.7 48.03,14.9 C50.53,14.5 53.03,14.3 55.13,15.1 C56.73,15.7 58.03,17.2 57.13,18.9 C56.43,20.3 54.53,20.9 53.03,21.4 C43.65,24.5 35.56,30.61 30.03,38.8 C28.03,41.8 25.03,50.1 21.33,48 C17.43,45.7 18.23,38.5 23.93,29.7 Z" fill="#787878"/>
</svg>