<svg viewBox="0 0 128 128" xmlns="http://www.w3.org/2000/svg">
  <g>
    <path d="M57.16,8.42l-52,104c-1.94,4.02-0.26,8.85,3.75,10.79c1.08,0.52,2.25,0.8,3.45,0.81h104 c4.46-0.04,8.05-3.69,8.01-8.15c-0.01-1.19-0.29-2.37-0.81-3.45l-52-104c-2.01-3.98-6.87-5.57-10.84-3.56 C59.18,5.64,57.94,6.89,57.16,8.42z" fill="#F2A600"/>
    <path d="M53.56,15.72l-48.8,97.4c-1.83,3.77-0.25,8.31,3.52,10.14c0.99,0.48,2.08,0.74,3.18,0.76h97.5 c4.17-0.04,7.52-3.45,7.48-7.62c-0.01-1.14-0.28-2.26-0.78-3.28l-48.7-97.4c-1.79-3.7-6.23-5.25-9.93-3.47 C55.51,12.99,54.29,14.21,53.56,15.72z" fill="#FFCC32"/>
    <g opacity="0.2">
      <path d="M64.36,34.02c4.6,0,8.3,3.7,8,8l-3.4,48c-0.38,2.54-2.74,4.3-5.28,3.92 c-2.03-0.3-3.62-1.89-3.92-3.92l-3.4-48C56.06,37.72,59.76,34.02,64.36,34.02" fill="#424242"/>
      <path d="M64.36,98.02c3.31,0,6,2.69,6,6s-2.69,6-6,6c-3.31,0-6-2.69-6-6S61.05,98.02,64.36,98.02" fill="#424242"/>
    </g>
    <linearGradient id="SVGID_1_" gradientTransform="matrix(1 0 0 -1 -3.64 -1776.0902)" gradientUnits="userSpaceOnUse" x1="68" x2="68" y1="-1808.3601" y2="-1887.05">
      <stop offset="0" stop-color="#424242"/>
      <stop offset="1" stop-color="#212121"/>
    </linearGradient>
    <path d="M64.36,34.02c4.6,0,8.3,3.7,8,8l-3.4,48c-0.38,2.54-2.74,4.3-5.28,3.92 c-2.03-0.3-3.62-1.89-3.92-3.92l-3.4-48C56.06,37.72,59.76,34.02,64.36,34.02z" fill="url(#SVGID_1_)"/>
    <linearGradient id="SVGID_2_" gradientTransform="matrix(1 0 0 -1 0 -1772.1102)" gradientUnits="userSpaceOnUse" x1="64.36" x2="64.36" y1="-1808.3602" y2="-1887.0502">
      <stop offset="0" stop-color="#424242"/>
      <stop offset="1" stop-color="#212121"/>
    </linearGradient>
    <circle cx="64.36" cy="104.02" r="6" fill="url(#SVGID_2_)"/>
    <path d="M53.56,23.02c-1.2,1.5-21.4,41-21.4,41s-1.8,3,0.7,4.7c2.3,1.6,4.4-0.3,5.3-1.8s19.2-36.9,19.9-38.6 c0.6-1.87,0.18-3.91-1.1-5.4C55.66,21.72,54.36,21.92,53.56,23.02z" fill="#FFF170"/>
    <circle cx="31.36" cy="75.33" r="3.3" fill="#FFF170"/>
  </g>
</svg>