<svg viewBox="0 0 128 128" xmlns="http://www.w3.org/2000/svg">
  <g>
    <circle cx="64" cy="64" r="60" fill="#CC3333"/>
    <circle cx="60.1" cy="63.1" r="56.1" fill="#F44336"/>
    <path d="M24,29.7c4.5-7.1,14.1-13,24.1-14.8c2.5-0.4,5-0.6,7.1,0.2c1.6,0.6,2.9,2.1,2,3.8 c-0.7,1.4-2.6,2-4.1,2.5c-9.38,3.1-17.47,9.21-23,17.4c-2,3-5,11.3-8.7,9.2C17.5,45.7,18.3,38.5,24,29.7z" fill="#FF8A80"/>
    <path d="M104,72H24c-2.21,0-4-1.79-4-4v-8c0-2.21,1.79-4,4-4h80c2.21,0,4,1.79,4,4v8 C108,70.21,106.21,72,104,72z" fill="#FAFAFA"/>
  </g>
</svg>