<svg viewBox="0 0 128 128" xmlns="http://www.w3.org/2000/svg">
  <defs>
    <linearGradient id="arm_2_" gradientTransform="matrix(1 0 0 -1 0 0)" gradientUnits="userSpaceOnUse" x1="32.5788" x2="47.509" y1="-63.4471" y2="-52.0053">
      <stop offset="0" stop-color="#BA8D68"/>
      <stop offset="1" stop-color="#A47B62"/>
    </linearGradient>
    <linearGradient id="hand_1_" gradientTransform="matrix(1 0 0 -1 0 0)" gradientUnits="userSpaceOnUse" x1="38.1879" x2="24.2345" y1="-63.4443" y2="-64.328">
      <stop offset="0" stop-color="#BA8D68"/>
      <stop offset="1" stop-color="#A47B62"/>
    </linearGradient>
    <linearGradient id="leg_1_" gradientTransform="matrix(1 0 0 -1 0 0)" gradientUnits="userSpaceOnUse" x1="59.1816" x2="53.6932" y1="-76.2021" y2="-108.3881">
      <stop offset="0" stop-color="#A47B62"/>
      <stop offset="1" stop-color="#BA8D68"/>
    </linearGradient>
    <linearGradient id="shirt_3_" gradientTransform="matrix(1 0 0 -1 0 0)" gradientUnits="userSpaceOnUse" x1="49.0846" x2="74.2173" y1="-50.54" y2="-50.54">
      <stop offset="0" stop-color="#651FFF"/>
      <stop offset="0.7047" stop-color="#5914F2"/>
      <stop offset="1" stop-color="#530EEB"/>
    </linearGradient>
    <radialGradient id="SVGID_4_" cx="19.3181" cy="76.9829" gradientUnits="userSpaceOnUse" r="12.7638">
      <stop offset="0.0169" stop-color="#FB8C00"/>
      <stop offset="0.4423" stop-color="#F47900"/>
      <stop offset="0.8381" stop-color="#D95A1E"/>
    </radialGradient>
    <linearGradient id="arm_3_" gradientTransform="matrix(1 0 0 -1 0 0)" gradientUnits="userSpaceOnUse" x1="62.7608" x2="96.9216" y1="-51.0405" y2="-51.0405">
      <stop offset="6.800000e-03" stop-color="#A47B62"/>
      <stop offset="1" stop-color="#BA8D68"/>
    </linearGradient>
    <radialGradient id="hairHighlights_2_" cx="48.767496" cy="-19.843151" gradientTransform="matrix(0.9976 -0.0698 -0.0698 -0.9976 0 0)" gradientUnits="userSpaceOnUse" r="12.5572">
      <stop offset="0.5264" stop-color="#6D4C41" stop-opacity="0"/>
      <stop offset="1" stop-color="#6D4C41"/>
    </radialGradient>
    <radialGradient id="SVGID_5_" cx="17.0331" cy="-72.6778" gradientTransform="matrix(1 0 0 -1 0 0)" gradientUnits="userSpaceOnUse" r="21.5485">
      <stop offset="0.0169" stop-color="#FFA726"/>
      <stop offset="0.4938" stop-color="#FC950D"/>
      <stop offset="0.8381" stop-color="#FB8C00"/>
    </radialGradient>
    <radialGradient id="SVGID_6_" cx="17.0331" cy="-72.6778" gradientTransform="matrix(1 0 0 -1 0 0)" gradientUnits="userSpaceOnUse" r="21.5485">
      <stop offset="0.0169" stop-color="#FFA726"/>
      <stop offset="0.4938" stop-color="#FC950D"/>
      <stop offset="0.8381" stop-color="#FB8C00"/>
    </radialGradient>
    <radialGradient id="SVGID_7_" cx="17.0331" cy="-72.6778" gradientTransform="matrix(1 0 0 -1 0 0)" gradientUnits="userSpaceOnUse" r="21.5485">
      <stop offset="0.0169" stop-color="#FFA726"/>
      <stop offset="0.4938" stop-color="#FC950D"/>
      <stop offset="0.8381" stop-color="#FB8C00"/>
    </radialGradient>
    <radialGradient id="SVGID_8_" cx="17.0331" cy="-72.6778" gradientTransform="matrix(1 0 0 -1 0 0)" gradientUnits="userSpaceOnUse" r="21.5485">
      <stop offset="0.0169" stop-color="#FFA726"/>
      <stop offset="0.4938" stop-color="#FC950D"/>
      <stop offset="0.8381" stop-color="#FB8C00"/>
    </radialGradient>
    <radialGradient id="SVGID_1_" cx="17.463578" cy="-53.944708" gradientTransform="matrix(0.8464 -0.9913 -0.9408 -0.6975 0 0)" gradientUnits="userSpaceOnUse" r="14.408">
      <stop offset="0.5264" stop-color="#6D4C41" stop-opacity="0"/>
      <stop offset="1" stop-color="#6D4C41"/>
    </radialGradient>
    <radialGradient id="SVGID_2_" cx="-24.710402" cy="64.409018" gradientTransform="matrix(-0.7995 1.0233 1.0193 0.639 0 0)" gradientUnits="userSpaceOnUse" r="15.4081">
      <stop offset="0" stop-color="#6D4C41"/>
      <stop offset="0.5264" stop-color="#6D4C41" stop-opacity="0"/>
    </radialGradient>
    <radialGradient id="SVGID_3_" cx="-19.577958" cy="21.579205" gradientTransform="matrix(-0.7967 1.025 2.6437 1.6413 0 0)" gradientUnits="userSpaceOnUse" r="8.8023">
      <stop offset="0.5264" stop-color="#6D4C41" stop-opacity="0"/>
      <stop offset="1" stop-color="#6D4C41"/>
    </radialGradient>
  </defs>
  <path id="head" d="M36.96,26.58 C36.81,27.65 39.05,28.16 39.24,28.34 C39.46,28.55 39.57,28.99 39.69,29.52 C39.77,29.9 39.87,30.34 40.02,30.78 L40.03,30.8 C40.53,32.27 41.51,34.14 45.02,34.16 C47.33,34.17 46.79,34.23 47.51,34.25 C48.96,34.29 49.94,36.64 49.94,36.64 C49.94,36.64 51.21,41.57 55.1,40.06 C59.53,38.35 60.52,35.78 60.52,35.78 C60.52,35.78 56.06,30.37 58.92,27.61 C59.13,27.41 59.09,27.07 59.19,26.8 C59.61,25.78 59.94,24.48 60.17,23.07 C60.23,22.7 60.29,22.32 60.34,21.94 L60.34,21.93 C60.57,20.07 60.62,18.1 60.49,16.38 C60.4,14.96 60.16,13.7 59.81,12.79 C59.81,12.78 59.8,12.78 59.8,12.77 C59.71,12.58 59.63,12.4 59.53,12.24 C59.48,12.14 59.42,12.06 59.37,11.98 C59.21,11.77 59.05,11.55 58.88,11.35 C56.34,8.31 51.88,6.14 47.92,6.36 C47.4,6.39 46.89,6.45 46.39,6.58 C46.04,6.67 45.7,6.76 45.37,6.87 C40.98,8.32 38.79,12 38.4,16.4 C38.39,16.46 38.39,16.52 38.39,16.58 C38.37,16.84 38.36,17.11 38.36,17.37 C38.36,17.47 38.35,17.56 38.35,17.65 C38.35,18.91 38.51,20.1 38.79,20.99 C38.84,21.13 39.19,22.16 39.23,22.49 C39.52,23.74 37.16,25.16 36.96,26.58 Z" fill="#BA8D68"/>
  <path id="mouth" d="M39.69,29.51 C39.77,29.89 39.87,30.33 40.02,30.77 L40.03,30.79 C40.87,30.78 41.68,30.53 42.35,29.96 C43.08,29.33 42.51,28.74 41.66,29.17 C41.19,29.41 40.36,29.55 39.69,29.51 Z" fill="#5D4037"/>
  <path id="eye" d="M44.105,22.82 C44.199,23.755 43.785,24.561 43.181,24.622 C42.576,24.683 42.01,23.975 41.916,23.04 C41.822,22.106 42.236,21.3 42.841,21.239 C43.445,21.178 44.011,21.886 44.105,22.82 Z" fill="#49362E"/>
  <path id="eyebrow" d="M41.98,20.49 C40.91,20.82 40.65,20.12 40.99,19.54 C41.25,19.11 41.89,18.76 43.15,18.99 C44.34,19.21 44.84,19.88 45.16,20.29 C45.49,20.7 45.45,21.12 45.18,21.16 C44.83,21.2 43.31,20.08 41.98,20.49 Z" fill="#613E31"/>
  <path id="hair_2_" d="M76.63,17.26 C71.56,11.64 72.58,4.18 63.8,4.65 C58,4.96 53,12.2 52.97,14.32 C52.9,18.42 58.28,16.73 60.11,16.93 C62.81,17.22 66.63,25.55 74.61,26.28 C85.41,27.27 89.57,21.31 89.57,21.31 C89.57,21.31 81.51,22.68 76.63,17.26 Z" fill="#543930"/>
  <path d="M74.54,14.37 C71.63,9.39 71.13,4.26 63.8,4.65 C58,4.96 53,12.2 52.97,14.32 C52.9,18.42 58.28,16.73 60.11,16.93 C62.8,17.22 74.54,14.37 74.54,14.37 Z" fill="url(#SVGID_1_)"/>
  <path d="M76.63,17.26 C75.36,15.86 74.39,14.2 73.53,12.48 C72.77,10.95 72.19,9.56 70.13,9.5 C66.87,9.41 62.95,11.85 61.05,15.15 C60.48,16.14 60.29,16.92 60.99,17.41 C61.49,17.76 62,18.03 62.45,18.47 C63.47,19.45 64.41,20.51 65.43,21.49 C67.88,23.84 70.79,25.93 74.61,26.28 C85.41,27.27 89.57,21.31 89.57,21.31 C89.57,21.31 81.51,22.68 76.63,17.26 Z" fill="url(#SVGID_2_)"/>
  <path d="M84.05,25.15 C84.05,25.15 75.77,28.32 69.53,24.65 C67.03,23.18 65.32,21.55 64.28,20.35 C63.37,19.31 59.32,15.51 57.14,15.51 C57.14,15.51 72.69,15.16 84.05,25.15 Z" fill="url(#SVGID_3_)"/>
  <path id="hair_3_" d="M60.35,8.66 C57.82,5.98 53.9,4.44 49.86,4.53 C46.34,4.6 41.61,5.8 38.86,8.92 C37.21,10.8 36.32,13.18 36.79,15.72 C37.07,17.25 38.4,17.95 38.4,17.95 C38.4,17.95 39.61,14.34 43.24,14.98 C47.06,15.65 48.65,14.77 48.65,14.77 C47.6,17.84 48.82,19.4 49.87,20.27 C50.47,20.77 51.03,21.36 51.35,21.71 C51.52,21.89 51.64,21.87 51.69,21.66 C51.8,21.17 52.02,20.28 52.2,19.86 C52.8,18.44 53.95,18.85 53.95,18.85 C55.5,19.28 56.26,22.35 53.9,24.36 C53.84,24.41 53.68,24.53 53.8,24.84 C55.01,27.93 58.75,27.78 58.97,27.65 C58.97,27.65 58.98,27.65 58.98,27.64 C59,27.63 59.01,27.62 59.03,27.61 C59.51,27.35 59.78,26.91 59.82,26.33 C59.99,24.21 60.86,23.54 61.45,22.58 C62.14,21.48 62.92,20.22 63.18,16.89 C63.43,13.72 62.45,10.88 60.35,8.66 Z" fill="#543930"/>
  <path id="hairHighlights_1_" d="M60.35,8.66 C57.82,5.98 53.9,4.44 49.86,4.53 C46.34,4.6 41.61,5.8 38.86,8.92 C37.21,10.8 36.32,13.18 36.79,15.72 C37.07,17.25 38.4,17.95 38.4,17.95 C38.4,17.95 39.61,14.34 43.24,14.98 C47.06,15.65 48.65,14.77 48.65,14.77 C47.6,17.84 48.82,19.4 49.87,20.27 C50.47,20.77 51.03,21.36 51.35,21.71 C51.52,21.89 51.64,21.87 51.69,21.66 C51.8,21.17 52.02,20.28 52.2,19.86 C52.8,18.44 53.95,18.85 53.95,18.85 C55.5,19.28 56.26,22.35 53.9,24.36 C53.84,24.41 53.68,24.53 53.8,24.84 C55.01,27.93 58.75,27.78 58.97,27.65 C58.97,27.65 58.98,27.65 58.98,27.64 C59,27.63 59.01,27.62 59.03,27.61 C59.51,27.35 59.78,26.91 59.82,26.33 C59.99,24.21 60.86,23.54 61.45,22.58 C62.14,21.48 62.92,20.22 63.18,16.89 C63.43,13.72 62.45,10.88 60.35,8.66 Z" fill="url(#hairHighlights_2_)"/>
  <path id="tone_1_" d="M37.61,61.87 L37.24,60.53 C37.17,60.29 36.94,60.13 36.69,60.17 C33.08,60.66 24.59,61.88 23.83,62.57 C23.4,62.96 23.25,63.47 23.4,63.97 C23.57,64.53 24.11,64.98 24.71,65.06 C25.07,65.12 25.54,65.14 25.94,65.16 C25.9,65.36 25.91,65.55 25.96,65.74 C26.07,66.12 26.36,66.39 26.74,66.47 C26.91,66.51 27.09,66.52 27.29,66.52 C30.26,66.52 36.62,62.88 37.37,62.44 C37.58,62.32 37.67,62.09 37.61,61.87 Z" fill="#91674D"/>
  <path id="arm_1_" d="M48.81,42.81 L42.56,54.62 C42.55,54.62 42.55,54.63 42.54,54.63 L31.8,60.34 C29.96,61.22 31.79,65.97 33.66,65.97 C33.82,65.97 33.98,65.93 34.14,65.86 L46.41,60.94 L46.4,60.92 C47.16,60.58 47.77,60.02 48.16,59.33 L48.19,59.35 L55.31,46.26 L48.81,42.81 Z" fill="url(#arm_2_)"/>
  <path id="hand" d="M36.71,60.51 C35.45,59.03 34.5,59.11 33.19,59.4 C32.89,59.47 32.58,59.55 32.24,59.64 C31.28,59.89 30.08,60.2 28.15,60.43 C25.58,60.73 22.45,60.61 22.42,60.61 C22.37,60.6 22.32,60.61 22.27,60.62 C21.71,60.76 21.29,61.15 21.14,61.65 C21,62.12 21.12,62.61 21.46,62.97 C22.42,63.99 25.92,64.18 28.04,64.05 C28.64,64.01 29.69,63.97 30.53,63.94 C30.65,63.91 30.74,64.03 30.76,64.08 C30.78,64.13 30.81,64.23 30.73,64.33 C30.34,64.78 29.84,65.19 29.25,65.53 C28.5,65.96 28.14,66.43 28.17,66.96 C28.19,67.49 28.61,67.94 29.36,68.28 C29.58,68.38 29.83,68.42 30.11,68.42 C31.86,68.42 34.54,66.7 35.45,65.81 C36.58,64.69 37.96,61.97 36.71,60.51 Z" fill="url(#hand_1_)"/>
  <path id="shirt" d="M55.53,38.9 L54.46,38.36 C53.71,37.97 52.91,37.79 52.13,37.79 C50.24,37.79 48.42,38.83 47.51,40.63 L42.6,50.32 L52.89,55.54 L57.8,45.85 C59.09,43.3 58.07,40.19 55.53,38.9 Z" fill="#4300D9"/>
  <path id="tone" d="M85.91,82.61 L71.26,60.95 L60.44,68.85 L77.84,90.97 L77.85,90.97 C78.8,92.27 80.2,93.04 81.68,93.24 L81.67,93.3 L108.48,96.66 L110.11,87.91 L85.91,82.61 Z" fill="#91674D"/>
  <path id="sock" d="M102.53,86.24 L100.77,95.68 L108.47,96.64 L110.1,87.89 Z" fill="#BDBDBD"/>
  <path id="leg" d="M60.54,61.51 L47.89,82.62 C45.95,85.86 45.12,89.65 45.54,93.4 L48.28,118.18 L55.89,118.2 L56.75,90.67 L71.85,68.7 L60.54,61.51 Z" fill="url(#leg_1_)"/>
  <path id="sock_1_" d="M47.21,108.22 L47.98,116.65 L55.88,116.67 L56.27,108.24 Z" fill="#E0E0E0"/>
  <path d="M72.21,60.08 C70.65,57.95 68.23,56.82 65.77,56.82 C64.14,56.82 62.5,57.32 61.08,58.35 C57.53,60.94 56.75,65.93 59.34,69.48 L68.31,81.14 L80.58,72.18 L72.21,60.08 Z" fill="#646464"/>
  <path d="M70.56,58.26 C69.22,57.42 67.74,57.02 66.28,57.02 C63.65,57.02 61.07,58.33 59.55,60.71 L51.98,73.32 L64.8,81.47 L73.01,69.26 C75.37,65.55 74.27,60.62 70.56,58.26 Z" fill="#7C7C7C"/>
  <path id="shirt_1_" d="M74.16,61.37 C72.21,53.5 68.79,45.63 65.27,37.76 C64.09,34.79 61.05,33.02 58.03,33.02 C57.17,33.02 56.32,33.16 55.51,33.46 C50.54,35.3 47.98,39.87 49.54,45.36 C51.84,53.48 52.98,58.3 53.83,66.29 C53.94,67.32 54.84,68.06 55.86,68.06 C56.04,68.06 56.22,68.04 56.41,67.99 C61.6,66.61 67.45,65.16 72.73,63.76 C73.77,63.48 74.42,62.42 74.16,61.37 Z" fill="url(#shirt_3_)"/>
  <path id="arm" d="M96.6,59.9 L96.6,59.9 C96.28,59.1 95.8,58.31 95.19,57.3 C94.72,56.53 91.2,52.52 89.74,51.82 C88.86,50.34 84.01,44.31 81.84,41.63 C81.33,41 80.65,40.53 79.87,40.27 L65.59,35.77 C65.46,35.73 65.33,35.74 65.21,35.8 C65.09,35.86 65,35.97 64.96,36.1 L62.78,43.18 C62.7,43.44 62.85,43.72 63.11,43.8 L76.16,47.83 C78.27,49.86 83.34,54.75 84.04,55.43 C84.39,56.6 84.31,58.08 84.25,59.39 C84.18,60.81 84.12,61.93 84.58,62.55 C85.02,63.14 85.52,63.17 85.78,63.14 C86.47,63.05 86.97,62.4 87.19,61.86 C87.48,61.16 87.47,60.44 87.46,59.91 C87.46,59.82 87.46,59.71 87.46,59.61 C88.08,60.03 88.31,61.66 88.49,62.98 C88.73,64.68 88.93,66.15 89.96,66.33 C90.01,66.34 90.06,66.34 90.11,66.34 C90.32,66.34 90.51,66.26 90.67,66.11 C91.18,65.63 91.22,64.37 91.18,63.46 C91.25,63.77 91.27,64.08 91.29,64.39 C91.35,65.16 91.43,66.2 92.52,66.24 C92.85,66.25 93.07,66.13 93.25,65.9 C93.56,65.52 93.62,64.87 93.58,64.21 C93.84,64.73 94.15,65.03 94.64,64.87 C94.82,64.81 95.08,64.66 95.25,64.28 C95.41,63.93 95.47,63.45 95.45,62.95 C95.51,63.01 95.57,63.06 95.65,63.09 C95.77,63.14 95.95,63.15 96.07,63.11 C96.27,63.04 96.54,62.88 96.72,62.48 C97.03,61.85 96.97,60.86 96.6,59.9 Z" fill="url(#arm_3_)"/>
  <path id="shirt_2_" d="M62.33,33.2 C61.86,33.06 61.37,32.99 60.9,32.99 C58.65,32.99 56.59,34.46 55.93,36.73 L55.57,37.96 C54.78,40.7 56.36,43.57 59.1,44.36 L69.64,47.4 L72.86,36.23 L62.33,33.2 Z" fill="#4300D9"/>
  <path id="shoe" d="M55.96,115.82 L48.03,115.82 L42.55,117.89 C41.01,118.49 40,119.95 39.98,121.58 L39.97,122.85 C39.97,123.4 40.42,123.85 40.98,123.85 L56.74,123.83 C57.38,123.83 57.9,123.32 57.9,122.68 L57.9,119.88 C57.91,117.99 55.96,115.82 55.96,115.82 Z" fill="#4568AD"/>
  <path id="shoe_1_" d="M116.29,87.43 L113.54,86.92 C113.33,86.88 113.13,86.87 112.92,86.87 C111.16,86.87 109.16,88.09 109.16,88.09 L107.7,95.89 L108.73,101.65 C109.03,103.27 110.28,104.54 111.89,104.85 L113.13,105.09 C113.19,105.1 113.26,105.11 113.32,105.11 C113.79,105.11 114.22,104.77 114.31,104.28 L117.2,88.78 C117.32,88.15 116.91,87.55 116.29,87.43 Z" fill="#325599"/>
  <path d="M35.35,80.96 C35.35,87.3 30.05,92.45 23.52,92.45 C16.99,92.45 11.7,87.3 11.7,80.96 C11.7,74.62 17,69.47 23.52,69.47 C30.06,69.47 35.35,74.61 35.35,80.96 Z" fill="url(#SVGID_4_)"/>
  <path d="M23.83,92.44 C23.73,92.45 23.62,92.45 23.52,92.45 C22.36,92.45 21.23,92.28 20.18,91.98 L20.17,91.98 C18.74,90 16.08,85.48 16.24,79.44 C16.25,78.98 16.28,78.5 16.33,78.02 C16.38,77.4 16.48,76.78 16.6,76.14 C16.67,75.76 16.76,75.38 16.86,74.99 C16.87,74.96 16.88,74.93 16.89,74.9 C17,74.44 17.15,74.02 17.32,73.64 L17.33,73.64 C17.47,73.29 17.62,72.98 17.79,72.69 L17.8,72.69 C18.6,71.28 19.65,70.4 20.44,69.88 C21.37,69.63 22.35,69.49 23.35,69.48 C22.34,69.85 20.55,70.72 19.31,72.66 C19.1,72.97 18.91,73.32 18.76,73.69 L18.75,73.69 C18.6,74.02 18.47,74.39 18.35,74.78 C18.26,75.07 18.18,75.39 18.12,75.72 C18.1,75.82 18.08,75.93 18.07,76.02 C17.97,76.65 17.9,77.25 17.87,77.85 C17.84,78.33 17.84,78.81 17.87,79.28 C18.11,85.58 22,90.47 23.83,92.44 Z" fill="url(#SVGID_5_)"/>
  <path d="M29.46,71.03 C26.02,70.98 23.18,73.45 18.77,73.68 L18.76,73.68 C18.54,73.69 18.33,73.7 18.1,73.7 C17.81,73.7 17.57,73.68 17.34,73.63 L17.33,73.63 C16.24,73.43 15.88,72.77 15.77,72.29 C16.07,72.03 16.39,71.79 16.71,71.57 C16.68,72.01 16.86,72.51 17.8,72.68 L17.81,72.68 C18.02,72.71 18.26,72.72 18.55,72.72 C18.79,72.72 19.05,72.69 19.32,72.65 C21.85,72.29 25.27,70.55 26.31,70.22 C26.61,70.13 26.93,70.07 27.22,70.05 C28.01,70.3 28.76,70.62 29.46,71.03 Z" fill="url(#SVGID_6_)"/>
  <path d="M32.81,88.07 C32.28,88.73 31.67,89.33 30.99,89.88 C30.07,88.23 28.29,85.58 24.96,82.49 C23.08,80.74 20.54,79.32 17.88,79.27 C17.58,79.25 17.27,79.26 16.97,79.29 C16.71,79.31 16.47,79.36 16.24,79.44 C13.59,80.23 12.99,83.75 12.88,85.95 C12.37,84.93 12,83.83 11.82,82.67 C12.46,80.97 13.78,78.62 16.33,78.02 C16.54,77.97 16.75,77.93 16.98,77.91 C17.28,77.88 17.59,77.86 17.88,77.85 C21.36,77.78 23.92,79.49 26.37,81.28 C29.7,83.68 31.81,86.55 32.81,88.07 Z" fill="url(#SVGID_7_)"/>
  <path d="M35.35,80.81 L35.35,80.96 C35.35,81.86 35.25,82.72 35.04,83.56 C31.9,80.65 25.51,75.76 18.08,76.01 C17.85,76.02 17.62,76.03 17.39,76.05 C17.12,76.07 16.86,76.1 16.61,76.13 C14.36,76.44 12.94,77.3 12.08,78.08 C12.26,77.39 12.51,76.73 12.81,76.1 C13.76,75.6 15.1,75.1 16.9,74.89 C17.09,74.86 17.28,74.85 17.47,74.83 C17.77,74.81 18.06,74.79 18.36,74.77 C26.62,74.39 32.88,78.76 35.35,80.81 Z" fill="url(#SVGID_8_)"/>
</svg>