<svg viewBox="0 0 128 128" xmlns="http://www.w3.org/2000/svg">
  <defs>
    <linearGradient id="ski_1_" gradientUnits="userSpaceOnUse" x1="28.5202" x2="116.1689" y1="89.5038" y2="89.5038">
      <stop offset="0.1712" stop-color="#FB8C00"/>
      <stop offset="0.5625" stop-color="#F67F00"/>
      <stop offset="0.9831" stop-color="#EF6C00"/>
    </linearGradient>
    <linearGradient id="hand_1_" gradientUnits="userSpaceOnUse" x1="31.1427" x2="41.2589" y1="72.1521" y2="66.2916">
      <stop offset="0.5" stop-color="#FFCA28"/>
      <stop offset="1" stop-color="#FFB300"/>
    </linearGradient>
    <radialGradient id="SVGID_1_" cx="36.808234" cy="494.65637" gradientTransform="matrix(0.878 -0.4786 0.0826 0.1516 0 0)" gradientUnits="userSpaceOnUse" r="70.5283">
      <stop offset="0.3342" stop-color="#E1F5FE"/>
      <stop offset="1" stop-color="#B3E5FC"/>
    </radialGradient>
    <radialGradient id="SVGID_2_" cx="4.609202" cy="-216.888882" gradientTransform="matrix(0.8866 -0.4625 -0.2243 -0.4299 0 0)" gradientUnits="userSpaceOnUse" r="157.91">
      <stop offset="0.2141" stop-color="#FFFFFF"/>
      <stop offset="1" stop-color="#B3E5FC"/>
    </radialGradient>
    <linearGradient id="SVGID_3_" gradientTransform="matrix(1 0 0 -1 0 0)" gradientUnits="userSpaceOnUse" x1="18.29" x2="31.1856" y1="-38.8115" y2="-38.8115">
      <stop offset="0.3652" stop-color="#90CAF9"/>
      <stop offset="0.9874" stop-color="#42A5F5"/>
    </linearGradient>
    <radialGradient id="SVGID_4_" cx="54.0502" cy="57.9021" gradientUnits="userSpaceOnUse" r="21.3888">
      <stop offset="0" stop-color="#616161"/>
      <stop offset="0.5695" stop-color="#6E6E6E"/>
      <stop offset="1" stop-color="#7B7B7B"/>
    </radialGradient>
    <linearGradient id="SVGID_5_" gradientTransform="matrix(1 0 0 -1 0 0)" gradientUnits="userSpaceOnUse" x1="50.0022" x2="109.0012" y1="-62.6996" y2="-35.0326">
      <stop offset="0.2671" stop-color="#EF6C00"/>
      <stop offset="0.5465" stop-color="#F67F00"/>
      <stop offset="0.8064" stop-color="#FB8C00"/>
    </linearGradient>
    <radialGradient id="SVGID_6_" cx="32.2921" cy="46.6949" gradientUnits="userSpaceOnUse" r="12.4633">
      <stop offset="0.3622" stop-color="#F78C1F"/>
      <stop offset="0.6776" stop-color="#F37F21"/>
      <stop offset="1" stop-color="#ED6D23"/>
    </radialGradient>
    <radialGradient id="SVGID_7_" cx="58.7074" cy="62.963917" gradientTransform="matrix(1 0 0 0.5815 0 0)" gradientUnits="userSpaceOnUse" r="19.7835">
      <stop offset="0.3628" stop-color="#F78C1F"/>
      <stop offset="0.6779" stop-color="#F37F21"/>
      <stop offset="1" stop-color="#ED6D23"/>
    </radialGradient>
    <radialGradient id="SVGID_8_" cx="48.6614" cy="45.0659" gradientUnits="userSpaceOnUse" r="16.9878">
      <stop offset="0.3657" stop-color="#F78C1F"/>
      <stop offset="0.6794" stop-color="#F37F21"/>
      <stop offset="1" stop-color="#ED6D23"/>
    </radialGradient>
  </defs>
  <path d="M101.76,50.94 C101.76,50.94 101.76,50.94 101.76,50.94 C88.2,65.1 83.1,68.35 47.2,85.71 C36.98,90.65 26.68,92.91 18.41,94.74 C12.33,96.08 7.53,97.14 4.93,98.82 C4.63,99.02 4.34,99.21 4.06,99.4 L4.06,100 L4.06,100.61 L4.06,117.84 C4.21,117.87 4.32,117.89 4.32,117.89 L50.7,117.89 L123.97,88.95 L123.97,26.41 L123.97,25.56 L123.97,24.73 C118.69,31.74 111.07,41.23 101.76,50.94 Z" fill="url(#SVGID_1_)"/>
  <path d="M123.96,88.41 L50.59,117.39 L4.39,117.4 C4.38,117.4 4.25,117.38 4.05,117.34 L4.05,118.35 C4.17,118.37 4.27,118.39 4.31,118.39 L50.69,118.39 C50.75,118.39 50.81,118.38 50.87,118.35 L123.96,89.48 L123.96,88.41 Z" fill="#B3E5FC"/>
  <path d="M123.96,42.87 C118.03,46.03 111.41,50.22 106.28,55.24 C75.66,85.27 48.01,87.05 29.28,98.05 C18.84,104.19 9.25,110.01 4.05,113.19 L4.05,123.96 L123.96,123.96 L123.96,42.87 Z" fill="url(#SVGID_2_)"/>
  <path id="drop_x5F_shadow" d="M123.96,69.26 L123.96,60.68 C99.54,74.16 75.11,87.66 50.69,101.14 C47.02,103.17 43.36,105.19 39.69,107.22 C35.46,109.56 39.24,116.04 43.48,113.7 L43.48,113.7 C69.31,99.44 95.14,85.17 120.97,70.91 C121.97,70.36 122.96,69.81 123.96,69.26 Z" fill="#B3E5FC"/>
  <path id="ski" d="M115.88,67.37 C115.26,66.24 113.84,65.83 112.71,66.45 L39.12,107.13 C38.42,107.52 36.52,106.58 35.13,105.89 C34.06,105.36 33.13,104.9 32.46,104.82 C30.61,104.58 28.91,105.75 28.58,107.48 C28.41,108.39 28.61,109.3 29.15,110.05 C29.68,110.79 30.46,111.26 31.36,111.4 C32.24,111.71 35.55,112.84 37.74,112.84 C38.33,112.84 38.83,112.76 39.19,112.56 L114.96,70.54 C116.09,69.93 116.5,68.5 115.88,67.37 Z" fill="url(#ski_1_)"/>
  <path d="M43.48,17.9 C40.81,15.72 37.58,14.74 34.32,14.74 C31.07,14.74 27.78,15.71 24.95,17.44 C16.45,22.63 17.77,31.43 17.77,31.43 C17.77,31.43 16.21,34.07 15.89,36.09 C15.72,37.22 16.1,37.98 16.65,37.98 C16.81,37.98 16.98,37.92 17.15,37.78 L27.14,30.56 C27.41,30.47 27.69,30.42 27.97,30.42 C31.59,30.42 36.33,37.42 39.27,37.42 C39.44,37.42 39.6,37.4 39.76,37.35 L37.91,32.02 C37.91,32.02 38.29,31.95 38.85,31.95 C40.18,31.95 42.51,32.36 42.84,35.17 C43.13,37.62 45.01,38.7 46.78,40 C49.75,32.98 49.8,23.06 43.48,17.9 Z" fill="#039BE5"/>
  <path d="M48.79,29.12 C48.58,28.24 48.36,25.63 47.43,25.17 C47.29,25.11 47.16,25.08 47.03,25.08 C46.24,25.08 45.52,26.19 44.9,26.62 C43.72,27.45 42.44,28.13 41.15,28.75 C38.63,29.97 35.99,30.97 33.62,32.48 C32.8,33 31.84,33.41 31.12,34.06 C30.45,34.66 29.89,35.41 29.24,36.03 C27.51,37.7 25.71,39.3 23.85,40.82 C23.06,41.46 21.09,43.05 21.09,43.05 C21.09,43.05 21.82,44.07 21.45,46.03 C21.27,46.99 21.87,47.95 22.72,48.13 C24.31,48.47 24.87,47.97 26.11,49.05 C27.21,50 28.28,50.85 29.8,50.93 C29.88,50.93 29.96,50.94 30.04,50.94 C31.48,50.94 32.85,50.27 34.19,49.7 C37.31,48.36 40.62,47.48 43.99,47.09 C43.91,47.09 43.95,41.71 44.11,41.19 C44.49,39.98 45.66,38.88 46.54,37.99 C47.59,36.92 49.89,36.08 50.48,34.66 C51.06,33.29 49.13,30.55 48.79,29.12 Z" fill="#4568AD"/>
  <path d="M38.82,33.76 L48,26.29 C48.47,25.93 48.65,25.3 48.44,24.75 C48.14,23.96 47.19,23.64 46.48,24.08 L36.7,30.25 L36.14,29.33 C35.36,28.05 33.73,27.59 32.4,28.27 L28.08,30.48 L35.05,43.29 L39.52,39.65 C40.62,38.75 40.89,37.18 40.16,35.96 L38.82,33.76 Z" fill="#444444"/>
  <path d="M17.15,37.78 C17.46,37.56 23.95,32.93 27.62,30.33 C28.94,29.39 30.77,29.8 31.57,31.2 L35.79,38.55 C36.71,40.15 36.17,42.19 34.59,43.14 L30.39,45.65 C27.7,46.89 24.37,44.76 24.37,44.76 C23.45,44.19 22.32,44.1 21.32,44.5 L21.14,44.57 L20.83,44.79 L19.66,42.98 L20.06,42.73 L18.31,39.74 L17.91,40 L16.68,38.11 C16.68,38.11 17.15,37.78 17.15,37.78 Z" fill="#E3F2FD"/>
  <path d="M18.29,39.76 C18.59,39.54 22.96,36.61 25.73,34.73 C26.79,34.01 28.23,34.34 28.88,35.44 L30.88,38.84 C31.49,39.88 31.16,41.22 30.13,41.85 L28.22,42.94 C27.58,43.33 26.79,43.38 26.11,43.09 C26.11,43.09 22.28,41.12 20.09,42.71 L18.29,39.76 Z" fill="url(#SVGID_3_)"/>
  <path d="M86.57,38.38 L85.56,36.98 L56.83,51.18 L56.86,51.22 C55.95,51.47 55.08,51.9 54.31,52.54 C51.4,54.95 50.99,59.27 53.4,62.18 C53.53,62.34 53.67,62.48 53.81,62.63 L52.86,63.14 L64.65,84.66 L76.92,77.97 L68.97,61.19 L83.02,55.45 C89.29,52.95 91.04,44.53 86.57,38.38 Z" fill="url(#SVGID_4_)"/>
  <path d="M37.85,70.2 C37.29,70.2 36.75,69.89 36.5,69.35 C36.14,68.6 36.46,67.71 37.21,67.35 L108.14,33.48 C108.89,33.12 109.78,33.44 110.14,34.19 C110.5,34.94 110.18,35.83 109.43,36.19 L38.5,70.05 C38.29,70.15 38.07,70.2 37.85,70.2 Z" fill="url(#SVGID_5_)"/>
  <path d="M105.07,43.13 L100.41,39.42 C100.15,39.21 100.01,38.88 100.04,38.55 L100.56,32.8 C100.65,31.77 102.06,31.54 102.47,32.49 L106.61,41.95 C107.03,42.9 105.89,43.78 105.07,43.13 Z" fill="#616161"/>
  <path id="hand" d="M44.35,70.41 L40.52,63.81 C40.41,63.62 40.2,63.52 39.98,63.57 L39.6,63.65 L35.41,62.24 C35.01,62.11 34.57,62.13 34.23,62.28 C34.2,62.29 34.15,62.31 34.12,62.32 C34.08,62.34 34.03,62.36 34.01,62.38 C33.63,62.56 33.34,62.84 33.18,63.16 L32.31,64.74 C32.17,65.04 32.04,65.65 32.07,66.14 C30.92,66.89 30.23,67.51 30.01,67.98 C29.59,68.88 29.5,69.54 29.74,70.01 C30.53,71.53 32.93,75.63 34.55,76.32 C35.07,76.54 35.6,76.65 36.13,76.65 C36.79,76.65 37.46,76.48 38.14,76.15 C40.35,75.32 44.13,71.18 44.29,71 C44.43,70.84 44.46,70.6 44.35,70.41 Z" fill="url(#hand_1_)"/>
  <path d="M53.25,32.09 C53.02,32.06 51.86,31.25 50.66,30.43 C49.47,29.62 50.31,27.26 48.87,27.26 L48.83,27.26 C47.73,27.29 40.62,32.8 38.08,34.68 C34.21,37.53 26.9,45.82 28.52,51.49 C28.54,51.57 28.63,51.61 28.78,51.61 C29.92,51.61 34.64,49.36 41,49.36 C42.16,49.36 43.37,49.43 44.62,49.61 C45.28,46.55 45.83,44.29 47.42,41.56 C49.22,38.48 55.65,32.36 53.25,32.09 Z" fill="url(#SVGID_6_)"/>
  <path d="M81.89,34.56 C81.89,34.57 72.39,31.73 60.43,31.73 L60.43,32.22 C60.43,32.22 60.43,32.22 60.43,32.22 L60.43,31.73 C55.1,31.73 49.29,32.29 43.6,33.92 C41.53,34.51 37.17,38.71 41.04,43.22 C44.91,47.73 57.23,53.24 57.23,53.24 L87.37,39.61 C86.6,37.79 84.32,35.43 81.89,34.56 Z" fill="url(#SVGID_7_)"/>
  <path d="M63,53.74 C62.71,53.18 52.88,34.49 43.99,34.49 C42.53,34.49 41.1,34.99 39.75,36.15 C32.16,42.63 43.86,52.84 49.25,56.93 L41.22,61.14 C39.14,62.51 38.65,66.3 40.02,68.39 C41.02,69.91 43.37,71.12 45.37,71.12 C46.1,71.12 46.79,70.96 47.35,70.59 L61.2,61.62 C61.58,61.37 61.87,61.05 62.07,60.7 C63.73,58.84 64.18,56.1 63,53.74 Z" fill="url(#SVGID_8_)"/>
  <path d="M81.22,82.95 L72.36,67.3 L58.57,75.1 L62.65,82.26 C63.04,82.94 62.84,83.8 62.19,84.24 L58.05,86.94 C54.93,89.45 56.96,92.59 56.96,92.59 L58.65,95.56 C59.02,96.21 59.69,96.57 60.39,96.57 C60.72,96.57 61.05,96.49 61.36,96.32 L80.46,85.68 C81.42,85.14 81.77,83.92 81.22,82.95 Z" fill="#4568AD"/>
  <path d="M104.48,77.78 C104.49,77.77 104.5,77.77 104.51,77.75 C105.74,76.67 104.9,74.55 103.2,74.82 C103.15,74.82 103.11,74.83 103.07,74.84 C102.09,75.08 101.44,75.92 101.16,76.85 C101.02,77.33 100.9,77.81 100.8,78.3 C100.75,78.54 100.69,78.79 100.67,79.03 C100.66,79.17 100.73,79.42 100.89,79.45 C101.12,79.5 101.54,79.31 101.76,79.23 C102.74,78.92 103.7,78.48 104.48,77.78 Z" fill="#FFFFFF"/>
  <path d="M116.51,65.88 C116.52,65.87 116.52,65.86 116.54,65.85 C117.64,64.63 119.75,65.5 119.45,67.2 C119.45,67.24 119.43,67.29 119.42,67.33 C119.17,68.31 118.32,68.95 117.38,69.22 C116.9,69.36 116.41,69.47 115.92,69.56 C115.68,69.61 115.43,69.66 115.19,69.68 C115.05,69.69 114.8,69.61 114.77,69.45 C114.72,69.22 114.92,68.8 115,68.59 C115.34,67.61 115.8,66.65 116.51,65.88 Z" fill="#FFFFFF"/>
  <path d="M98.54,65.13 C98.55,65.12 98.55,65.11 98.55,65.09 C99.23,63.4 97.33,61.71 95.78,62.84 L95.66,62.93 C94.81,63.65 94.57,64.82 94.76,65.89 C94.86,66.44 94.98,66.98 95.13,67.51 C95.21,67.77 95.27,68.05 95.37,68.3 C95.43,68.44 95.63,68.65 95.8,68.61 C96.06,68.55 96.37,68.15 96.55,67.96 C97.37,67.13 98.1,66.2 98.54,65.13 Z" fill="#FFFFFF"/>
  <path d="M111.88,55.83 C111.89,55.82 111.89,55.81 111.9,55.8 C113,54.64 112,52.66 110.37,53.07 C110.33,53.08 110.28,53.09 110.24,53.11 C109.31,53.42 108.75,54.3 108.56,55.22 C108.46,55.7 108.39,56.18 108.33,56.66 C108.31,56.9 108.27,57.14 108.27,57.38 C108.27,57.51 108.37,57.75 108.52,57.77 C108.75,57.8 109.13,57.58 109.34,57.49 C110.29,57.08 111.18,56.57 111.88,55.83 Z" fill="#FFFFFF"/>
  <path d="M110.62,64.96 L110.65,64.93 C112.02,63.45 110.72,60.97 108.68,61.52 C108.63,61.53 108.57,61.55 108.52,61.57 C107.36,61.98 106.66,63.1 106.44,64.27 C106.33,64.87 106.24,65.48 106.19,66.09 C106.16,66.39 106.12,66.7 106.12,67 C106.13,67.16 106.25,67.46 106.44,67.48 C106.73,67.52 107.22,67.23 107.47,67.11 C108.63,66.57 109.75,65.9 110.62,64.96 Z" fill="#FFFFFF"/>
</svg>