<svg viewBox="0 0 128 128" xmlns="http://www.w3.org/2000/svg">
  <defs/>
  <path d="M5.35,78.58 C5.64,87.48 19.66,88.27 26.77,93.58 C36.49,100.83 40.28,115.33 51.49,119.62 C62.7,123.91 78.52,126.05 96.64,121.93 C114.76,117.81 125.07,107.12 122.02,96.22 C118.23,82.71 101.26,69.52 67.64,65.9 C34.02,62.28 16.56,67.88 12.77,69.36 C8.98,70.84 5.19,73.48 5.35,78.58 Z" fill="#94A61D"/>
  <path d="M20.84,75.45 C21.62,79.68 31.06,80.39 37.32,88.47 C43.58,96.55 46.22,103.34 55.61,107.09 C62.2,109.73 74.76,112.89 94.5,106.76 C116.25,100 111.94,78.63 78.02,71.5 C45.89,64.74 19.69,69.19 20.84,75.45 Z" fill="#B7D118"/>
  <path d="M67.57,81.62 C61.44,81.35 57.2,83.22 57.2,87.66 C57.2,91.45 61.8,93.07 67.57,93.07 C74.52,93.07 76.41,90.09 76.32,87.48 C76.22,84.51 74.08,81.91 67.57,81.62 Z" fill="#4A4A29"/>
  <path d="M66.59,3.75 C64.88,3.75 64.15,4.83 64.15,6.1 C64.15,8 64.15,87.1 64.15,87.1 C64.15,87.1 64.86,88.15 66.76,88.15 C68.65,88.15 69.38,87.1 69.38,87.1 L69.02,5.38 C69.02,5.38 68.67,3.75 66.59,3.75 Z" fill="#F7C875"/>
  <path d="M117.29,16.92 C117.55,17.36 114.28,20.94 109.52,23.6 C103.39,27.03 92.56,31.81 87.15,33.88 C81.74,35.95 76.83,37.65 74.07,39.2 C72.01,40.36 69.56,43.89 69.02,43.44 C68.74,43.2 68.7,32.85 68.59,23.08 C68.49,14.15 68.76,6 68.93,5.83 C69.29,5.47 70.1,5.2 70.83,5.83 C71.56,6.46 77.63,9.22 86.11,11.74 C94.59,14.26 101.79,15.95 107.83,16.22 C113.87,16.49 117.02,16.47 117.29,16.92 Z" fill="#FF4F28"/>
</svg>