<svg viewBox="0 0 128 128" xmlns="http://www.w3.org/2000/svg">
  <defs/>
  <path d="M117.64,102.31 L10.36,102.31 C7.62,102.31 6.53,100.6 6.53,98.48 L6.53,29.52 C6.53,27.4 8.24,25.69 10.36,25.69 L117.63,25.69 C119.75,25.69 121.46,27.4 121.46,29.52 L121.46,98.48 C121.47,100.6 119.75,102.31 117.64,102.31 Z" fill="#FFFFFF"/>
  <path d="M89.01,56.73 L119.41,29.44 C120.02,28.93 121.21,28.66 121.21,28.66 C121.21,28.66 119.82,27.14 117.99,28.57 L70.26,66.44 C68.42,67.9 66.22,68.65 64,68.72 C61.78,68.65 59.58,67.9 57.74,66.44 L10.01,28.57 C8.18,27.14 6.79,28.66 6.79,28.66 C6.79,28.66 7.98,28.94 8.59,29.44 L38.63,56.41 L7.81,99.57 C7.28,100.16 8.73,101.12 9.4,100.47 L43.06,60.38 L55.43,71.48 C57.87,73.67 60.93,74.8 64.01,74.87 C67.09,74.8 70.14,73.67 72.59,71.48 L84.88,60.44 L117.88,100.46 C118.55,101.11 120,100.15 119.47,99.56 L89.01,56.73 Z" fill="#6FBFF0"/>
  <path d="M89.343,56.767 L119.666,99.404 Q119.95,99.731 119.768,100.142 Q119.627,100.461 119.255,100.688 Q118.336,101.251 117.706,100.639 L117.696,100.63 L84.853,60.8 L72.757,71.666 Q69.02,75.006 64.016,75.12 L64.01,75.12 L64.004,75.12 Q58.984,75.006 55.263,71.666 L43.085,60.739 L9.583,100.641 L9.574,100.649 Q8.944,101.261 8.025,100.698 Q7.653,100.471 7.512,100.152 Q7.33,99.741 7.614,99.414 L38.297,56.447 L8.427,29.63 Q7.862,29.169 6.733,28.903 L6.318,28.806 L6.606,28.491 Q8.152,26.801 10.165,28.374 L57.895,66.244 Q60.561,68.359 64,68.47 Q67.439,68.359 70.105,66.244 L117.836,28.373 Q119.848,26.801 121.394,28.491 L121.685,28.809 L121.265,28.904 Q120.137,29.16 119.574,29.629 L89.343,56.767 Z M88.843,56.544 L119.246,29.251 L119.25,29.248 Q119.783,28.802 120.709,28.531 Q119.585,27.641 118.144,28.767 L70.415,66.636 Q67.617,68.856 64.008,68.97 L64,68.97 L63.992,68.97 Q60.383,68.856 57.585,66.636 L9.855,28.766 Q8.414,27.64 7.288,28.534 Q8.215,28.809 8.748,29.247 L8.753,29.25 L38.963,56.373 L8.005,99.727 L7.996,99.737 Q7.915,99.827 7.969,99.95 Q8.047,100.126 8.285,100.272 Q8.867,100.628 9.217,100.299 L43.035,60.021 L55.597,71.294 Q59.178,74.508 64.01,74.62 Q68.827,74.509 72.423,71.294 L84.907,60.08 L118.063,100.289 Q118.414,100.617 118.995,100.262 Q119.233,100.116 119.311,99.94 Q119.365,99.817 119.284,99.727 L119.275,99.716 L88.677,56.693 Z" fill="#6FBFF0"/>
  <path d="M117.64,104.31 L10.36,104.31 Q7.513,104.31 5.922,102.518 Q4.53,100.951 4.53,98.48 L4.53,29.52 Q4.53,27.102 6.236,25.396 Q7.942,23.69 10.36,23.69 L117.63,23.69 Q120.048,23.69 121.754,25.396 Q123.46,27.102 123.46,29.52 L123.46,98.48 Q123.471,100.892 121.759,102.604 Q120.053,104.31 117.64,104.31 Z M117.64,100.31 Q118.397,100.31 118.931,99.776 Q119.464,99.243 119.46,98.48 L119.46,29.52 Q119.46,27.69 117.63,27.69 L10.36,27.69 Q8.53,27.69 8.53,29.52 L8.53,98.48 Q8.53,99.431 8.913,99.862 Q9.311,100.31 10.36,100.31 Z" fill="#6FBFF0"/>
</svg>