<svg viewBox="0 0 128 128" xmlns="http://www.w3.org/2000/svg">
  <linearGradient id="SVGID_1_" gradientTransform="matrix(1 0 0 1 0 -714)" gradientUnits="userSpaceOnUse" x1="64" x2="64" y1="750.8329" y2="818.33">
    <stop offset="0" stop-color="#FFC107"/>
    <stop offset="1" stop-color="#FFD54F"/>
  </linearGradient>
  <path d="M120,104H8c-2.2,0-4-1.8-4-4V28c0-2.2,1.8-4,4-4h112c2.2,0,4,1.8,4,4v72 C124,102.2,122.2,104,120,104z" fill="url(#SVGID_1_)"/>
  <linearGradient id="SVGID_2_" gradientTransform="matrix(1 0 0 1 0 -714)" gradientUnits="userSpaceOnUse" x1="64" x2="64" y1="722.4562" y2="786.154">
    <stop offset="0" stop-color="#FFE082"/>
    <stop offset="0.9931" stop-color="#FFCA28"/>
  </linearGradient>
  <path d="M124,30.2V28c0-2.2-1.8-4-4-4H8c-2.2,0-4,1.8-4,4v2l59.9,46.1L124,30.2z" fill="url(#SVGID_2_)"/>
  <g>
    <path d="M44.1,61.8L6,103.4c-0.9-0.5-1.6-1.4-1.8-2.5L42,59.7L44.1,61.8z" fill="#FFB300"/>
    <path d="M123.8,101.3c-0.3,1-1,1.8-2,2.3l-38-41.9l2.2-2L123.8,101.3z" fill="#FFB300"/>
  </g>
  <polygon fill="#FFB300" points="124,29 124,32.8 63.9,78 4,32.6 4,28.9 63.9,74.3 "/>
  <g opacity="0.2">
    <path d="M120,27c0.6,0,1,0.5,1,1v72c0,0.6-0.4,1-1,1H8c-0.6,0-1-0.4-1-1V28c0-0.5,0.4-1,1-1H120L120,27z M120,24H8c-2.2,0-4,1.8-4,4v72c0,2.2,1.8,4,4,4h112c2.2,0,4-1.8,4-4V28C124,25.8,122.2,24,120,24z" fill="#444444"/>
  </g>
</svg>