<svg viewBox="0 0 128 128" xmlns="http://www.w3.org/2000/svg">
  <defs/>
  <path d="M69.83,50.53 L69.43,32.1 C69.43,32.1 79.04,27.02 80.88,23.67 C82.72,20.32 81.96,14.7 79.91,14.49 C77.86,14.28 69,20.76 68.25,20 C67.49,19.24 71.92,13.84 71.71,11.79 C71.49,9.74 64.9,4.72 64.9,4.72 L57.45,13.19 C57.45,13.19 59.61,19.89 59.29,20.54 C58.97,21.19 48.81,14.92 46.65,15.35 C44.49,15.78 45.23,20.17 45.98,22.23 C46.74,24.28 60.58,30.69 60.58,30.69 L59.98,50.81 C59.98,50.81 57.45,50.77 56.8,51.1 C56.15,51.42 54.6,54.02 54.6,54.02 C54.6,54.02 40.05,46.14 39.94,44.52 C39.83,42.9 40.16,28.42 39.4,26.91 C38.64,25.4 35.4,23.64 33.78,23.64 C32.16,23.64 31.08,39.65 30.11,39.65 C29.14,39.65 25.46,30.25 24.38,30.25 C23.3,30.25 14.93,31.65 14.93,31.65 L18.12,44.4 L28.06,46.45 L15.89,60.21 C15.89,60.21 18.87,63.11 21.68,62.46 C24.49,61.81 32.59,53.71 33.45,53.71 C34.31,53.71 49.01,62.14 49.01,62.14 C49.01,62.14 48.36,63.65 48.79,64.52 C49.22,65.38 49.98,66.46 49.98,66.46 C49.98,66.46 35.4,75.32 34.42,75.1 C33.44,74.88 23.62,67.86 20.81,67.86 C18,67.86 16.27,71.53 16.27,71.53 L27.94,81.36 L18.11,86.22 L13.9,94.97 C13.9,94.97 23.41,98.32 24.7,97.99 C25.99,97.66 29.35,89.67 29.99,89.46 C30.64,89.24 30.88,91.28 30.88,91.28 C30.88,91.28 34.31,102 35.61,101.67 C36.91,101.34 40.15,99.29 40.58,97.67 C41.01,96.05 39.94,83.2 39.94,83.2 L55.28,74.87 C55.28,74.87 56.5,76.85 57.33,77.45 C57.98,77.92 61.21,78.23 61.21,78.23 L60.78,94.97 C60.78,94.97 44.78,101.87 44.24,103.81 C43.7,105.75 43.82,110.09 45.34,110.63 C46.85,111.17 58.65,105.77 59.19,106.2 C59.73,106.63 58.96,114.62 58.96,114.62 C58.96,114.62 65.3,123.58 66.7,122.72 C68.1,121.86 73.01,116.36 73.05,115.34 C73.14,113.41 68.33,106.76 68.42,106.37 C68.61,105.52 78.4,112.57 80.13,112.35 C81.86,112.13 83.15,110.3 83.15,108.24 C83.15,106.19 69.97,96.47 69.97,96.47 L69.76,77.9 C69.76,77.9 72.31,77.76 73.18,77.33 C74.04,76.9 75.76,72.99 75.76,72.99 L91.47,83.52 C91.47,83.52 90.82,101.24 92.44,102.32 C94.06,103.4 96.98,104.05 98.06,103.51 C99.14,102.97 99.25,87.85 99.25,87.85 L106.06,94.01 C106.06,94.01 115.84,93.14 115.84,91.84 C115.84,90.54 113.88,83.2 113.09,82.56 C111.68,81.42 105.46,81.98 104.73,81.59 C104.15,81.28 116.11,76.51 116.11,74.57 C116.11,72.63 112.2,69.56 111.12,69.45 C110.04,69.34 95.91,75.65 95.91,75.65 L79.49,65.93 C79.49,65.93 80.35,64.42 80.35,63.66 C80.35,62.9 79.28,61.63 79.28,61.63 L96.12,52.43 C96.12,52.43 110.92,57.72 112.32,57.08 C113.72,56.43 114.91,55.24 114.91,54.06 C114.91,52.88 102.41,47.13 103.35,46.61 C104.07,46.21 111.02,47.04 112.1,46.61 C113.18,46.18 116.62,37.42 116.51,36.99 C116.4,36.56 104.75,33.65 104.75,33.65 L99.56,39.81 C99.56,39.81 100.42,28.14 99.13,26.85 C97.84,25.56 94.35,26.2 92.95,27.17 C91.55,28.14 90.71,45.32 90.71,45.32 L74.87,53.91 C74.87,53.91 73.39,51.53 72.52,51.09 C71.67,50.62 69.83,50.53 69.83,50.53 Z" fill="#95C7EC"/>
  <path d="M76.44,56.05 L95,46.37 L94.72,26.4 C94.72,26.4 91.84,26.89 90.43,28.77 C89.02,30.65 89.49,43.28 89.49,43.28 L73.43,52.01 L76.44,56.05 Z" fill="#AFE3FF"/>
  <path d="M99.48,43.9 C99.48,43.9 105.56,36.34 106.73,35.96 C108.69,35.32 116.26,37.98 116.26,37.98 C116.26,37.98 117.1,35.89 116.76,35.08 C116.42,34.27 107.11,30.11 104.88,30.9 C103.14,31.52 99.6,38.24 99.6,38.24 L99.48,43.9 Z" fill="#AFE3FF"/>
  <path d="M98.96,50.74 C98.56,50.67 95.32,52.79 95.32,52.79 C95.32,52.79 104.94,58.62 107.76,58.75 C111.24,58.92 113.54,56.38 113.54,56.38 C113.54,56.38 111.05,56.45 109.24,55.78 C106.29,54.68 98.96,50.74 98.96,50.74 Z" fill="#AFE3FF"/>
  <path d="M77.19,70.09 L74.91,74.73 C74.91,74.73 88.62,83.26 88.68,83.67 C88.75,84.07 88.34,98.85 89.76,100.53 C91.17,102.21 93.86,103.08 93.86,103.08 C93.86,103.08 94.67,81.31 94.6,80.97 C94.52,80.63 77.19,70.09 77.19,70.09 Z" fill="#AFE3FF"/>
  <path d="M94.68,74.88 C94.68,74.88 104.34,68.34 106.96,68.34 C109.58,68.34 111.8,69.68 111.8,69.68 L99.02,77.41 L94.68,74.88 Z" fill="#AFE3FF"/>
  <path d="M99.7,84.71 C99.36,85.65 99.19,89.17 99.19,89.17 C99.19,89.17 102.33,96.56 104.54,97.36 C106.76,98.17 115.22,95.01 115.9,94.2 C116.57,93.39 115.58,90.11 115.58,90.11 C115.58,90.11 108.89,92.76 106.89,92.39 C104.33,91.92 99.7,84.71 99.7,84.71 Z" fill="#AFE3FF"/>
  <path d="M59.03,54.84 C58.06,55.81 53.83,62.02 53.75,63.22 C53.67,64.43 58.38,72.48 59.51,73.12 C60.64,73.76 69.74,73.12 69.74,73.12 L74.41,63.53 C74.41,63.53 70.3,54.75 69.66,54.59 C69.02,54.43 59.68,54.19 59.03,54.84 Z" fill="#AFE3FF"/>
  <path d="M63.18,22.06 C63.82,22.18 60.81,13.11 60.81,13.11 L67.47,6.82 C67.47,6.82 64.99,3.76 63.71,3.76 C62.42,3.76 55.41,10.28 55.41,11.82 C55.41,13.36 59.28,20.54 59.28,20.54 C59.28,20.54 61.96,21.83 63.18,22.06 Z" fill="#AFE3FF"/>
  <path d="M45.24,18.93 C45.24,18.93 45.25,23.46 46.7,25.07 C48.15,26.68 58.47,31.73 58.47,31.73 L58.73,50.84 L63.22,50.82 L63.22,28.58 C63.22,28.58 54.28,24.31 52.51,23.51 C50.74,22.7 46.53,20.62 45.24,18.93 Z" fill="#AFE3FF"/>
  <path d="M39.62,47.67 L53.15,56.21 L55.33,52.91 L39.94,43.89 Z" fill="#AFE3FF"/>
  <path d="M29.97,39.74 C29.97,39.74 32.83,42.55 33.45,42.53 C34.65,42.49 34.57,23.78 34.57,23.78 C34.57,23.78 32.26,22.91 31.05,24.04 C29.83,25.16 29.97,39.74 29.97,39.74 Z" fill="#AFE3FF"/>
  <path d="M28.51,44.29 C31.38,45.02 30.84,47.03 30.44,47.67 C30.04,48.31 16.91,61.04 16.91,61.04 C16.91,61.04 14.41,59.67 14.41,58.22 C14.41,56.77 25.8,47.4 25.2,47.26 C24.73,47.16 16.58,48.53 14.81,47.42 C13.67,46.71 10.51,34.82 11.11,33.22 C11.59,31.93 15.7,31.55 15.7,31.55 C15.7,31.55 17.15,42.18 18.28,42.75 C19.4,43.32 26.22,43.71 28.51,44.29 Z" fill="#AFE3FF"/>
  <path d="M49.7,65.97 L33.66,74.77 L37.69,78.04 L51.7,69.02 Z" fill="#AFE3FF"/>
  <path d="M31.41,80.78 C31.29,82.15 25.65,84.91 25.17,85.32 C24.69,85.72 19.41,84.49 19.08,84.97 C18.76,85.45 15.73,94.77 15.16,95.32 C15.08,95.4 11.87,94.4 11.63,93.87 C11.05,92.6 14.65,82.55 16.26,81.1 C17.87,79.65 24.96,81.5 25.2,81.02 C25.44,80.54 15.94,75.38 15.21,73.77 C14.49,72.16 17.55,69.58 17.55,69.58 C17.55,69.58 31.57,78.92 31.41,80.78 Z" fill="#AFE3FF"/>
  <path d="M33.49,86.1 C32.96,85.73 30.17,89.44 30.17,89.44 C30.17,89.44 31.15,101.43 32.06,102.2 C32.98,102.98 35.63,101.66 35.63,101.66 C35.63,101.66 34.29,86.66 33.49,86.1 Z" fill="#AFE3FF"/>
  <path d="M59.2,77.93 C59.2,77.93 59.35,92.86 59.03,93.42 C58.71,93.98 46.56,99.75 44.85,101.96 C43.69,103.46 43.99,107.41 43.99,107.41 C43.99,107.41 62.65,96.89 63.05,96.57 C63.45,96.25 63.14,77.98 63.14,77.98 L59.2,77.93 Z" fill="#AFE3FF"/>
  <path d="M83.13,108.57 C83.13,108.57 70.3,100.62 70.15,99.55 C70,98.53 69.92,94.11 69.92,94.11 C69.92,94.11 81.19,102.04 82.32,103.89 C83.45,105.74 83.13,108.57 83.13,108.57 Z" fill="#AFE3FF"/>
  <path d="M60.4,113.56 C60.6,115.65 68.02,121.61 68.02,121.61 C68.02,121.61 65.67,124.15 64.46,124.23 C63.25,124.31 55.32,116.7 55.16,115.42 C55,114.13 59.19,106 59.19,106 C59.19,106 61.07,105.1 62.49,104.8 C63.39,104.6 60.21,111.53 60.4,113.56 Z" fill="#AFE3FF"/>
  <path d="M71,62.49 C71,62.49 69.81,64.86 69.22,66.2 C68.63,67.54 67.89,69.83 67.89,69.83 C67.89,69.83 62.33,70.26 60.85,70.2 C58.92,70.13 57.81,73.61 60.63,73.68 C63.45,73.75 70.19,73.9 70.78,73.46 C71.37,73.02 75.74,65.01 75.74,63.23 C75.74,61.45 71.89,56.49 70.48,55.08 C68.84,53.44 65.96,55.08 67.59,57.75 C69.22,60.42 71,62.49 71,62.49 Z" fill="#FEFEFE"/>
  <path d="M93.43,29.63 C91.17,29.55 91.34,32.61 91.42,36.15 C91.5,39.69 91.74,42.03 93.59,42.03 C95.85,42.03 95.44,37.12 95.44,34.86 C95.44,32.61 95.77,29.71 93.43,29.63 Z" fill="#FEFEFE"/>
  <path d="M63.79,7.56 C65.1,8.87 63.31,11.1 62.58,11.75 C61.86,12.39 59.84,13.68 58.47,12.39 C57.1,11.1 58.71,9.25 60,8.28 C61.29,7.31 62.82,6.59 63.79,7.56 Z" fill="#FEFEFE"/>
  <path d="M63.3,27.86 C61.21,27.62 61.29,32.77 61.37,39.06 C61.47,47.12 61.37,50.9 63.06,50.82 C64.99,50.73 64.43,46.71 64.43,38.33 C64.43,33.73 64.91,28.04 63.3,27.86 Z" fill="#FEFEFE"/>
  <path d="M14.97,33.09 C12.24,33.94 13.44,37.28 14.16,39.7 C14.62,41.24 16.02,45.63 18.59,44.86 C21.16,44.09 19.64,40.43 19.07,38.09 C18.52,35.75 17.31,32.37 14.97,33.09 Z" fill="#FEFEFE"/>
  <path d="M92.3,89.56 C90.69,89.56 90.53,92.62 90.53,95.36 C90.53,98.1 90.53,100.11 92.38,100.11 C94.23,100.11 93.91,96.08 93.91,94.63 C93.91,93.18 94.16,89.56 92.3,89.56 Z" fill="#FEFEFE"/>
  <path d="M63.14,77.88 C61.77,77.94 61.61,81.02 61.61,87.06 C61.61,93.1 61.28,96.67 63.3,96.57 C64.91,96.49 64.59,90.45 64.59,86.34 C64.59,82.23 65.08,77.8 63.14,77.88 Z" fill="#FEFEFE"/>
  <path d="M37.21,77.94 C38.02,78.88 42.16,76.25 45.14,74.61 C48.72,72.64 52.69,70.75 51.85,69.08 C51.01,67.41 46.82,70.37 43.92,71.88 C41.02,73.4 35.84,76.35 37.21,77.94 Z" fill="#FEFEFE"/>
  <path d="M24.71,85.77 C23.84,86.42 21.41,86.01 20.36,86.82 C19.31,87.63 19.09,90.37 17.86,90.85 C16.01,91.57 14.56,90.29 15.52,87.79 C16.49,85.29 16.81,83.6 17.69,82.96 C18.58,82.32 21.8,82.48 23.09,82.48 C25.35,82.47 26,84.8 24.71,85.77 Z" fill="#FEFEFE"/>
</svg>