<svg viewBox="0 0 128 128" xmlns="http://www.w3.org/2000/svg">
  <defs>
    <radialGradient id="SVGID_1_" cx="56.143" cy="82.918356" gradientTransform="matrix(1 0 0 1.0168 0 0)" gradientUnits="userSpaceOnUse" r="87.4645">
      <stop offset="0.3903" stop-color="#FFD600"/>
      <stop offset="0.6895" stop-color="#FF9800"/>
      <stop offset="1" stop-color="#F44336"/>
    </radialGradient>
    <linearGradient id="SVGID_2_" gradientUnits="userSpaceOnUse" x1="66.376" x2="67.8643" y1="55.1768" y2="7.9211">
      <stop offset="0.1645" stop-color="#FFEB3B"/>
      <stop offset="1" stop-color="#FFD600"/>
    </linearGradient>
    <radialGradient id="SVGID_3_" cx="64.5538" cy="119.1121" gradientUnits="userSpaceOnUse" r="100.4351">
      <stop offset="0.1189" stop-color="#FF6D00"/>
      <stop offset="0.4848" stop-color="#F44336"/>
      <stop offset="0.8142" stop-color="#B71C1C"/>
    </radialGradient>
    <linearGradient id="SVGID_4_" gradientUnits="userSpaceOnUse" x1="44.8472" x2="59.7309" y1="96.121" y2="141.3302">
      <stop offset="0.0759" stop-color="#FFEB3B"/>
      <stop offset="1" stop-color="#FFD600" stop-opacity="0"/>
    </linearGradient>
    <linearGradient id="SVGID_5_" gradientUnits="userSpaceOnUse" x1="94.7209" x2="120.6082" y1="46.4721" y2="61.1415">
      <stop offset="0" stop-color="#FFD600"/>
      <stop offset="1" stop-color="#FFD600" stop-opacity="0"/>
    </linearGradient>
    <linearGradient id="SVGID_6_" gradientUnits="userSpaceOnUse" x1="87.6526" x2="94.9084" y1="65.354" y2="140.3306">
      <stop offset="0.1873" stop-color="#FFEB3B"/>
      <stop offset="0.9339" stop-color="#FFD600" stop-opacity="0"/>
    </linearGradient>
  </defs>
  <path d="M99.66,51.02 C97,35.69 90.52,30.95 84.8,26.77 C80.87,23.9 77.47,21.42 75.76,15.98 C73.93,10.18 78.56,4.14 78.61,4.08 C78.74,3.92 78.75,3.69 78.64,3.51 C78.53,3.33 78.34,3.24 78.12,3.28 C77.73,3.35 77.23,3.42 76.64,3.49 C70.54,4.3 54.35,6.43 50.09,28.14 C49.53,31 47.8,33.32 45.99,33.65 C44.83,33.86 43.74,33.22 42.86,31.79 C39.36,26.11 46.71,16.54 46.79,16.44 C46.92,16.28 46.93,16.05 46.82,15.87 C46.71,15.69 46.5,15.6 46.3,15.64 C46.09,15.68 25.6,19.95 17.28,40.9 C14.75,47.27 7.66,69.54 22.56,88.66 C37.5,107.83 46.57,109.14 46.77,109.25 C46.84,109.3 104.82,88.36 99.66,51.02 Z" fill="url(#SVGID_1_)"/>
  <path d="M70.75,36.89 C66.78,29.17 60.34,12.98 77.3,4.13 C64.55,6.42 55.18,15.49 55.94,30.8 C56.43,40.78 62.04,49.68 64.65,59.32 C68.16,72.35 65.51,80.49 63.98,86.64 C85.74,72.36 75.84,46.77 70.75,36.89 Z" fill="url(#SVGID_2_)" opacity="0.8"/>
  <path d="M87.31,41.09 C70.66,41.09 64.55,58.1 64.55,58.1 C64.55,58.1 60.17,41.09 41.75,41.09 C29.15,41.09 14.79,51.07 20.1,73.77 C25.41,96.46 64.59,124.74 64.59,124.74 C64.59,124.74 103.64,96.47 108.95,73.78 C114.26,51.07 100.92,41.09 87.31,41.09 Z" fill="url(#SVGID_3_)"/>
  <path d="M28.85,53.14 C31.7,49.58 36.79,46.65 41.1,50.03 C43.43,51.86 42.41,55.62 40.33,57.2 C37.29,59.51 34.64,60.9 32.8,64.52 C31.69,66.7 31.02,69.07 30.68,71.5 C30.55,72.46 29.29,72.69 28.82,71.85 C25.6,66.15 24.69,58.33 28.85,53.14 Z" fill="#FF7043"/>
  <path d="M74.53,60.61 C73.19,60.61 72.25,59.32 72.74,58.07 C73.65,55.78 74.81,53.55 76.22,51.58 C78.3,48.66 82.26,46.96 84.77,48.73 C87.34,50.54 87.01,54.16 85.2,55.9 C81.32,59.65 76.45,60.61 74.53,60.61 Z" fill="#FF7043"/>
  <path d="M62.56,123.22 C50.46,121.61 44.76,118.26 40.57,109.52 C38.43,105.05 38.42,97.41 38.34,92.68 C38.25,87.44 36.67,82.91 36.67,82.91 C39.83,83.47 45.56,89.02 48.2,99.28 C52.79,117.09 62.56,123.22 62.56,123.22 Z" fill="url(#SVGID_4_)"/>
  <path d="M104.82,82.91 C104.82,82.91 113.91,77.66 116.16,65.02 C117.63,56.77 115.88,48.53 107.97,40.44 C105.16,37.56 95.97,30.55 99.5,18.47 C99.5,18.47 90.86,25.8 93.79,39.02 C97.09,53.91 111.14,59.02 104.82,82.91 Z" fill="url(#SVGID_5_)"/>
  <path d="M97.88,66 C100.31,66.86 110.15,82.19 101,98.29 C92.86,112.61 76.95,114.83 76.95,114.83 C76.95,114.83 89.51,102.25 94.42,90.31 C98.86,79.54 97.88,66 97.88,66 Z" fill="url(#SVGID_6_)"/>
</svg>