<svg viewBox="0 0 128 128" xmlns="http://www.w3.org/2000/svg">
  <defs/>
  <path d="M3.93,71.05 C3.93,71.05 4.01,76.41 4.01,77.46 C4.01,78.51 4.38,80.12 6.98,80.12 C9.58,80.12 118.65,80.35 120.38,80.28 C122.75,80.18 123.32,77.9 123.38,75.92 C123.44,73.94 123.41,70.52 123.41,70.52 L96.33,61.63 L17.8,65.71 L3.93,71.05 Z" fill="#464C4F"/>
  <path d="M7.71,46.91 C5.24,46.85 4.2,47.76 4.01,49.93 C3.82,52.09 3.87,70.04 3.94,71.58 C4.01,73.12 4.99,75.35 8.02,75.35 C11.05,75.35 118.52,75.6 120.13,75.54 C121.74,75.48 123.28,73.99 123.41,71.09 C123.53,68.18 123.47,51.8 123.53,50.13 C123.59,48.46 122.85,47.1 119.76,47.04 C116.67,46.97 10.25,46.97 7.71,46.91 Z" fill="#616266"/>
  <path d="M10.71,63.36 C13.12,63.55 14.76,60.13 18.52,57.72 C22.28,55.31 26.91,55.79 27.01,52.99 C27.11,50.19 13.75,49.61 10.9,52.56 C8.06,55.5 7.87,63.14 10.71,63.36 Z" fill="#9A9A9A"/>
</svg>