<svg viewBox="0 0 128 128" xmlns="http://www.w3.org/2000/svg">
  <linearGradient id="SVGID_1_" gradientUnits="userSpaceOnUse" x1="64" x2="64" y1="6.0383" y2="121.8778">
    <stop offset="0" stop-color="#757575"/>
    <stop offset="0.3928" stop-color="#504F4F"/>
  </linearGradient>
  <path d="M124,56v16c0,2.2-1.8,4-4,4H78c-1.1,0-2,0.9-2,2v42c0,2.2-1.8,4-4,4H56c-2.2,0-4-1.8-4-4V78 c0-1.1-0.9-2-2-2H8c-2.2,0-4-1.8-4-4V56c0-2.2,1.8-4,4-4h42c1.1,0,2-0.9,2-2V8c0-2.2,1.8-4,4-4h16c2.2,0,4,1.8,4,4v42 c0,1.1,0.9,2,2,2h42C122.2,52,124,53.8,124,56z" fill="url(#SVGID_1_)"/>
</svg>