<svg viewBox="0 0 128 128" xmlns="http://www.w3.org/2000/svg" xmlns:xlink="http://www.w3.org/1999/xlink">
  <g>
    <linearGradient id="SVGID_1_" gradientTransform="matrix(1 0 0 -1 0 -1562.0303)" gradientUnits="userSpaceOnUse" x1="64.05" x2="64.05" y1="-1589.73" y2="-1662.33">
      <stop offset="0" style="stop-color:#757575"/>
      <stop offset="0.21" style="stop-color:#6C6C6C"/>
      <stop offset="0.5583" style="stop-color:#525252"/>
      <stop offset="0.7436" style="stop-color:#424242"/>
      <stop offset="1" style="stop-color:#424242"/>
    </linearGradient>
    <path d="M95.2,34.4c-0.2,0.1-0.5,0.1-0.8,0c-5.5-2.5-16.7-6.7-30.3-6.7s-24.8,4.2-30.3,6.7 c-0.2,0.1-0.5,0.1-0.8,0c-10.3-3.9-17.2-5.2-25-5.2c-2.2,0-4,1.8-4,4v6.4c0,2.2,1.8,4,3.9,4c2.2,0,4.1,0.3,7.2,0.8 c0.8,0.1,1.1,1.1,0.6,1.7C8,54.2,4.5,64.8,6.1,76.9c1.8,13.3,13.6,23.4,27.7,23.4c13.9,0,25.8-10.1,27.6-23.4 c1.7-12.6-2.1-23.5-10.5-31.8c-0.6-0.5-0.3-1.5,0.5-1.7c3.8-0.9,8.1-1.5,12.8-1.5c4.7,0,9,0.6,12.8,1.5c0.8,0.2,1,1.1,0.5,1.7 C69,53.4,65.2,64.4,66.9,76.9c1.8,13.3,13.6,23.4,27.7,23.4c13.9,0,25.8-10.1,27.6-23.4c1.6-12.1-1.8-22.8-9.6-30.9 c-0.6-0.6-0.2-1.5,0.6-1.7c3.5-0.6,5.3-0.9,7.9-0.8c1.7,0,3-1.3,3-3v-7.4c0-2.2-1.8-4-4-4C112.2,29.2,105.5,30.5,95.2,34.4z M47.2,75.1C46.3,81.9,39.7,86,33.7,86c-5.9,0-12.4-4.1-13.3-10.9C19,64.4,23.2,56.3,32.9,50.9c0.6-0.3,1.3-0.3,1.9,0 C44.4,56.3,48.6,64.4,47.2,75.1z M107.9,75.1C107,81.9,100.4,86,94.4,86c-5.8,0-12.4-4.1-13.3-10.9c-1.4-10.7,2.8-18.8,12.5-24.2 c0.6-0.3,1.3-0.3,1.9,0C105.2,56.3,109.3,64.4,107.9,75.1z" fill="url(#SVGID_1_)"/>
    <g opacity="0.2">
      <path d="M64.2,30.7c13.1,0,23.8,4,29.1,6.4c0.5,0.2,1.1,0.4,1.7,0.4c0.5,0,1-0.1,1.4-0.3c9.6-3.6,16-5,23.7-5 c0.6,0,1,0.5,1,1v7.4h-0.3c-2.7,0-4.7,0.3-8.1,0.9c-1.4,0.3-2.6,1.3-3.1,2.7c-0.4,1.4-0.1,2.9,0.9,4c7.2,7.5,10.2,17.3,8.8,28.4 c-1.6,11.8-12.1,20.8-24.6,20.8s-23.2-8.9-24.8-20.8c-1.5-11.5,1.8-21.6,9.6-29.2c1-1,1.4-2.5,1.1-3.9c-0.4-1.4-1.5-2.5-2.9-2.8 c-4.5-1-9.1-1.6-13.4-1.6s-8.9,0.5-13.4,1.6c-1.4,0.3-2.5,1.4-3,2.8c-0.4,1.4,0,2.9,1,3.9C56.7,55,60,65.1,58.5,76.6 c-1.6,11.8-12.1,20.8-24.6,20.8S10.7,88.5,9.1,76.6c-1.5-11.1,1.6-20.9,8.8-28.4c1-1.1,1.4-2.6,0.9-4s-1.6-2.4-3.1-2.7 c-3.1-0.5-5.2-0.9-7.7-0.9c-0.5,0-1-0.5-1-1v-3.2v-3.2c0-0.3,0.2-0.6,0.3-0.7c0.1-0.1,0.4-0.3,0.7-0.3c7.8,0,14.5,1.4,24,5 c0.5,0.2,0.9,0.3,1.4,0.3c0.6,0,1.1-0.1,1.6-0.4C40.3,34.7,51.1,30.7,64.2,30.7 M94.4,89c9.6,0,15.6-7,16.5-13.5 c1.6-11.8-3.3-21.2-14-27.2c-0.7-0.4-1.6-0.6-2.4-0.6s-1.7,0.2-2.4,0.6c-10.7,6-15.5,15.4-14,27.2C79.2,83.9,87.3,89,94.4,89 M33.7,89c9.5,0,15.6-7,16.5-13.5c1.6-11.8-3.3-21.2-14-27.2c-0.7-0.4-1.6-0.6-2.4-0.6s-1.7,0.2-2.4,0.6 c-10.7,6-15.5,15.4-14,27.2C18.5,83.9,26.6,89,33.7,89 M64.1,27.7c-13.7,0-24.8,4.2-30.3,6.7c-0.1,0.1-0.3,0.1-0.4,0.1 c-0.1,0-0.2,0-0.3-0.1c-10.3-3.9-17.2-5.2-25-5.2l0,0c-2.2,0-4,1.8-4,4v6.4c0,2.2,1.8,4,3.9,4c2.2,0,4.1,0.3,7.2,0.8 c0.8,0.1,1.1,1.1,0.6,1.7C7.9,54.2,4.5,64.8,6.1,76.9c1.8,13.3,13.6,23.4,27.7,23.4c13.9,0,25.8-10.1,27.6-23.4 c1.7-12.6-2.1-23.5-10.5-31.8c-0.6-0.5-0.3-1.5,0.5-1.7c3.8-0.9,8.1-1.5,12.7-1.5c4.7,0,9,0.6,12.8,1.5c0.8,0.2,1,1.1,0.5,1.7 C69,53.4,65.2,64.4,66.9,76.9c1.8,13.3,13.6,23.4,27.7,23.4c13.9,0,25.8-10.1,27.6-23.4c1.6-12.1-1.8-22.8-9.6-30.9 c-0.6-0.6-0.2-1.5,0.6-1.7c3.3-0.6,5.1-0.8,7.6-0.8h0.3l0,0c1.6,0,3-1.3,3-3v-7.4c0-2.2-1.8-4-4-4l0,0c-7.7,0-14.5,1.3-24.8,5.2 c-0.1,0-0.2,0.1-0.3,0.1c-0.1,0-0.3,0-0.4-0.1C89,31.9,77.8,27.7,64.1,27.7z M94.4,86c-5.8,0-12.4-4.1-13.3-11 c-1.4-10.7,2.8-18.8,12.5-24.2c0.3-0.2,0.6-0.2,1-0.2c0.3,0,0.7,0.1,1,0.2c9.7,5.4,13.9,13.5,12.5,24.2C107,81.9,100.4,86,94.4,86 z M33.7,86c-5.9,0-12.4-4.1-13.3-10.9C19,64.4,23.2,56.3,32.9,50.9c0.3-0.2,0.6-0.2,1-0.2c0.3,0,0.7,0.1,1,0.2 c9.7,5.4,13.9,13.5,12.5,24.2C46.3,81.9,39.7,86,33.7,86z" fill="#EEEEEE"/>
    </g>
  </g>
</svg>