<svg viewBox="0 0 128 128" xmlns="http://www.w3.org/2000/svg">
  <defs/>
  <path d="M64,28 C83.8,28 100,44.2 100,64 C100,83.8 83.8,100 64,100 C44.2,100 28,83.8 28,64 C28,44.2 44.2,28 64,28 M64,4 C30.9,4 4,30.9 4,64 C4,97.1 30.9,124 64,124 C97.1,124 124,97.1 124,64 C124,30.9 97.1,4 64,4 Z" fill="#F44336"/>
  <path d="M64,4 C40.1,4 19.4,18 9.8,38.3 C18.9,19.8 38,7 60.1,7 C91.1,7 116.2,32.1 116.2,63.1 C116.2,94.1 91.1,119.2 60.1,119.2 C29.3,119.2 4.3,94.3 4,63.5 C4,63.7 4,63.8 4,64 C4,97.1 30.9,124 64,124 C97.1,124 124,97.1 124,64 C124,30.9 97.1,4 64,4 Z" fill="#CC3333"/>
  <path d="M65.6,26.7 C50.6,26.7 37.6,35.5 31.6,48.2 C37.3,36.6 49.3,28.5 63.2,28.5 C82.6,28.5 98.4,44.3 98.4,63.7 C98.4,83.1 82.6,98.9 63.2,98.9 C43.9,98.9 28.2,83.3 28,64 C28,64.1 28,64.2 28,64.3 C28,85.1 44.9,101.9 65.6,101.9 C86.3,101.9 103.2,85 103.2,64.3 C103.2,43.6 86.4,26.7 65.6,26.7 Z" fill="#CC3333"/>
  <path d="M24,29.7 C28.5,22.6 38.1,16.7 48.1,14.9 C50.6,14.5 53.1,14.3 55.2,15.1 C56.8,15.7 58.1,17.2 57.2,18.9 C56.5,20.3 54.6,20.9 53.1,21.4 C43.8,24.4 35.3,30.9 30.1,38.8 C28.1,41.8 25.1,50.1 21.4,48 C17.5,45.7 18.3,38.5 24,29.7 Z" fill="#FFFFFF" opacity="0.2"/>
</svg>