<svg style="enable-background:new 0 0 128 128;" viewBox="0 0 128 128" xmlns="http://www.w3.org/2000/svg" xmlns:xlink="http://www.w3.org/1999/xlink">
  <g>
    <path d="M123.9,50.9c0.2-1.5-1.6-3.5-4.3-4.5c-2.8-1.1-5.5-0.8-6.3,0.6l0,0l0,0L109,57.4c-2.4,0.4-2.8,3.1-2.9,3.5l0,0l0,0l0,0 c0,0-3.6-0.5-4.9,0.7c-1.8,1.6-0.7,4.4-0.7,4.4s-2.5,0.4-3.4,2.5c-0.6,1.5,1.1,4.1,1.1,4.3l0,0l0,0l0,0c0,0-1.9,1.5-1.9,3 c0,2,2.5,4.1,2.5,4.1l0,0L82.6,96.4c0,0,0,0-0.1,0.1c-0.4,0.5-2.2,1.9-2.4,4c-3.1-1-6.5-1.9-10-2.5L70,97.6c0,0-2.7-0.5-8.6-0.9 v-1.5c9.6-2.8,18.1-10.3,22.1-22.5c4-1.7,6.9-5.8,6.9-10.6c0-2.4-0.7-4.6-1.9-6.4c0.6-3.9,3.4-26.9-8.9-40.8c-0.3-0.3-0.6-0.7-1-1 c-0.4-0.4-0.9-0.9-1.4-1.3c-0.2-0.1-0.3-0.3-0.5-0.4c-0.4-0.4-0.9-0.7-1.3-1.1c-0.6-0.5-1.3-1-2-1.4c-1.5-1-3.2-1.9-5.1-2.6 c-0.5-0.2-1-0.4-1.5-0.6C62.7,4.9,57.9,4.1,52.2,4l0,0l0,0h-0.1c-2,0-4,0.1-5.8,0.3h-0.1l0,0c-0.1,0-0.2,0-0.3,0s-0.1,0-0.2,0 c-3.4,0.4-6.4,1.2-9.2,2.3c-0.1,0-0.2,0.1-0.2,0.1c-0.4,0.1-0.7,0.3-1.1,0.5c-0.1,0-0.2,0.1-0.3,0.1c-0.3,0.2-0.7,0.3-1,0.5 C33.8,8,33.7,8,33.5,8.1c-0.3,0.2-0.6,0.3-0.9,0.5c-0.1,0.1-0.2,0.1-0.4,0.2c-0.3,0.2-0.6,0.3-0.9,0.5c-0.1,0.1-0.2,0.1-0.4,0.2 c-0.3,0.2-0.6,0.4-0.8,0.5c-0.1,0.1-0.2,0.2-0.3,0.2c-0.3,0.2-0.5,0.4-0.8,0.6c-0.1,0.1-0.2,0.2-0.3,0.2c-0.3,0.2-0.5,0.4-0.8,0.6 c-0.1,0.1-0.2,0.2-0.3,0.2c-0.2,0.2-0.5,0.4-0.7,0.6c-0.1,0.1-0.2,0.2-0.3,0.2c-0.2,0.2-0.5,0.4-0.7,0.7c-0.1,0.1-0.2,0.2-0.2,0.2 c-0.2,0.2-0.5,0.5-0.7,0.7c-0.1,0.1-0.1,0.1-0.2,0.2c-0.2,0.3-0.5,0.5-0.7,0.8c0,0.1-0.1,0.1-0.1,0.2c-0.2,0.3-0.4,0.6-0.7,0.8 l-0.1,0.1c-0.2,0.3-0.5,0.6-0.7,0.9l0,0c-2.6,3.8-4.4,8-5.5,12.2l0,0c-0.1,0.4-0.2,0.8-0.3,1.1l0,0c-0.1,0.4-0.2,0.8-0.3,1.1l0,0 c-0.1,0.4-0.2,0.7-0.2,1.1l0,0c-0.1,0.4-0.1,0.7-0.2,1.1l0,0c-1.1,6.5-1,12.6-0.7,16.7l0,0c0,0.2,0,0.4,0.1,0.7c0,0,0,0,0,0.1 c0,0.2,0,0.4,0.1,0.6V52c0,0.2,0,0.4,0.1,0.5v0.1c0,0.2,0,0.3,0.1,0.5v0.1c0,0.1,0,0.3,0,0.4v0.1c0,0.1,0,0.3,0,0.4v0.1 c0,0.1,0,0.2,0,0.3v0.1c0,0.1,0,0.2,0,0.3V55c0,0.1,0,0.1,0,0.2v0.1v0.1l0,0c-1.1,1.8-1.7,3.9-1.7,6.2c0,4.8,2.9,9,6.9,10.6 c4,12.2,12.4,19.6,22.1,22.5l0,0v1.6h-0.1v-0.1c-5.9,0.4-8.7,0.9-8.7,0.9l-0.1,0.2c-16.8,2.9-30.4,10.3-30.4,23.6v3h96.2l0,0h19.2 l4.1-36.2c0,0-0.3,0.1-0.9,0.2c0.2-2.6,0.5-7.2,0.2-11.7c-0.1-3-0.7-4.6-1.7-7.8c-0.5-1.7-1.3-3.2-2.1-4.5l4.7-12.9 c0.1-0.1,0.1-0.2,0.2-0.3C123.9,51.2,123.9,51.1,123.9,50.9L123.9,50.9L123.9,50.9z M105.3,97.4L99,94.8l0.8-1.8l6.3,2.6 L105.3,97.4z M104,101l-0.8,1.8l-6.3-2.6l0.8-1.8L104,101z M110.1,83.6c0,0.1,0,2.9,0,6.6l-2.1,0.1l-0.7,1.7l-3.5-1.5l-13.1,0.6 l10.8-10.9l0.3-0.3l0.2-0.4l0.4-1.1c1,0.5,2.9,2.6,7.7,4.7l0,0L110.1,83.6z M80.5,102.3L80.5,102.3L80.5,102.3z M80.3,101.9 c0-0.1,0-0.1-0.1-0.2C80.2,101.8,80.3,101.8,80.3,101.9z M80.1,101.4c0-0.2-0.1-0.3-0.1-0.5C80.1,101.1,80.1,101.2,80.1,101.4z M80.1,100.8L80.1,100.8L80.1,100.8L80.1,100.8z M84.3,70c0.5-2,0.9-4,1.2-6.2c0.6-1.4,1.5-3.8,2.2-5.6c0.5,1.2,0.8,2.5,0.8,3.8 C88.4,65.4,86.7,68.3,84.3,70z M25.1,42.2c0.3-1.1,0.6-2.1,0.9-2.8c1-2.8,3.9-4.4,6.8-3.8c4.5,0.8,11.5,1.8,19.4,1.8h0.2 c7.8,0,14.9-1,19.4-1.8c2.9-0.5,5.8,1.1,6.8,3.8c0.4,0.9,0.8,2.3,1.2,3.9C79,43.1,78.3,43,77.6,43c-1.4,0-3.2-0.1-4.3-0.2 c-0.5-0.1-1.1-0.1-1.5-0.1h-39c-0.5,0-1,0-1.6,0.1C30.1,42.9,28.4,43,27,43c-0.8,0-1.6,0.2-2.4,0.5C24.8,43,24.9,42.6,25.1,42.2z M25.9,59.2c0-2.1,0.1-4.3,0.2-6.6c0-0.7,0.1-1.5,0.1-2.2c0-0.5,0.1-2.1,2.2-3.4c1.6-1,3.4-1.3,4.5-1.3h39c1.1,0,2.9,0.3,4.5,1.3 c2.1,1.3,2.2,2.9,2.2,3.4c0,0.8,0.1,1.5,0.1,2.2c0.1,2.3,0.2,4.5,0.2,6.6c0,4.4-3.9,7.4-9.5,7.4c-4,0-8.4-3.3-10.5-5.6 c-1.6-1.8-4-2.8-6.5-2.8s-4.9,1-6.5,2.8c-2,2.2-6.5,5.6-10.5,5.6C29.8,66.6,25.9,63.6,25.9,59.2z M16.3,62c0-1.3,0.2-2.5,0.7-3.6 c0.7,1.7,1.6,4.1,2.1,5.4c0,0.1,0.1,0.2,0.2,0.2c0.3,2.1,0.6,4,1.1,5.9C17.9,68.3,16.3,65.4,16.3,62z M30.7,85.2 c-5.2-5.5-8.5-13.1-9.5-22.1l1,1.5c1.5,2.1,5.7,3.5,7.9,4.1c1.6,0.6,3.3,0.9,5.2,0.9c5,0,10.1-3.8,12.7-6.5 c1.1-1.2,2.7-1.8,4.3-1.8s3.2,0.6,4.3,1.8c2.5,2.8,7.7,6.5,12.7,6.5c1.9,0,3.6-0.3,5.1-0.8c2.2-0.6,6.5-2,8.1-4.1l1-1.5 c-1,9-4.3,16.5-9.5,22c-5.7,6-13.4,9.3-21.6,9.3C44,94.5,36.3,91.2,30.7,85.2z M52.3,96.5c2.4,0,4.8-0.3,7.1-0.8l0,0v6.8 c0,1.1-0.3,2.2-0.9,3.1H46.1c-0.6-0.9-0.9-2-0.9-3.1v-6.8C47.6,96.2,49.9,96.5,52.3,96.5z M5.9,122.5v-1c0-7.4,4.7-13.2,14-17.3 c3.9-1.7,8.4-3.1,13.5-4l-2.1,4.9l5.2,4.4l-4.9,6.1l5.5,7L5.9,122.5L5.9,122.5z M39.8,122.5l-5.5-7l3.9-4.9l1.2-1.5l-1.5-1.3 l-4.1-3.4l2.1-4.9c1-0.1,2.9-0.4,5.5-0.6l0.8,7l1.8,16.6C44,122.5,39.8,122.5,39.8,122.5z M60.5,122.5l1.8-16.6l0.8-7 c2.6,0.2,4.5,0.5,5.5,0.6l2.1,4.9l-4.1,3.4l-1.5,1.3l1.2,1.5l3.9,4.9l-5.5,7C64.7,122.5,60.5,122.5,60.5,122.5z M67.2,122.5l5.5-7 l-4.9-6.1L73,105l-2-4.8c3.5,0.7,6.7,1.6,9.6,2.6c1.4,2,4.4,3.7,4.8,3.9c0,0,3.4,1.9,7.9,3.7c0.5,0.5,1,1.1,1.5,1.7L91,124.6l0.6-2 L67.2,122.5L67.2,122.5z M117.6,122.5H93.9l3.3-10.9h-0.1c4,1.3,7.9,2.1,10.7,2.1c1.3,0,2.3-0.2,2.9-0.6c1.1-0.7,1.4-1.4,1.5-4.1 c0-1.3,0-12,0-19l0,0c0,0.1,0,0.2,0,0.4c2.4,0.3,4.7,0.4,6.6,0.4c0.7,0,1.3,0,1.9-0.1l0.6,0.1L117.6,122.5z M119.9,58.4l-0.7-0.3 l-1.3,3.6l0.8,0.3l-0.5,1.2c-2.6-3.5-5.8-5.3-7.1-5.7l3.1-7.5c0.8,0.8,1.9,1.6,3.2,2.1c1.3,0.5,2.6,0.7,3.7,0.7l-1.2,3.4l0.8,0.3 L119.9,58.4z"/>
    <path d="M52.2,72.6c2.8,0,4.2-2,4.5-2.7s0-1.4-0.7-1.6c-0.1,0-0.2-0.1-0.3-0.1h-7.1c-0.1,0-0.2,0-0.3,0.1c-0.6,0.3-1,0.9-0.7,1.6 C48,70.6,49.4,72.6,52.2,72.6z"/>
    <path d="M63.7,78.6c0.8-1.7-1.1-3.3-2.9-2.2c-3.2,1.9-13.6,1.9-16.8,0c-1.8-1.1-3.7,0.6-2.9,2.2S47.5,84,52.5,84 S62.9,80.2,63.7,78.6z"/>
    <path d="M36.7,51.8c1.2,0,2.2,0.1,3.6,0.5c0.8,0.2,1.5,0.6,2.2,0.8c1.2,0.3,2.4-0.7,2-2c-0.2-0.8-1.1-1.5-1.7-2 c-3.9-3.2-10.7-2.8-13.7,1.5c-0.6,0.8-0.2,2,0.7,2.4c0.8,0.3,1.4-0.1,2.1-0.4C33.7,52,34.9,51.8,36.7,51.8z"/>
    <path d="M61.2,53.2c0.9,0.3,1.9-0.4,2.7-0.7c1.3-0.5,2.3-0.7,4-0.7c1.9,0,2.9,0.2,4.7,0.9c0.3,0.1,0.6,0.3,0.9,0.4 c1.5,0.6,2.7-1.1,1.9-2.4c-0.5-0.9-1.5-1.6-2.4-2.2c-2.7-1.6-6.3-1.8-9.2-0.5c-1.3,0.5-2.4,1.4-3.3,2.4 C59.9,51.4,59.9,52.8,61.2,53.2z"/>
    <ellipse cx="36.8" cy="59" rx="4.9" ry="5.1"/>
    <ellipse cx="67.9" cy="59" rx="4.9" ry="5.1"/>
  </g>
</svg>