<svg viewBox="0 0 1200 1200" xmlns="http://www.w3.org/2000/svg">
  <path d="M941,222.9c-280.7,0-416.7-67.9-681.3-67.9c-84.1,0-169.9,22.8-258.6,67.3c-0.4-0.1-0.7-0.2-1.1-0.3v820.9 c89-44.9,175.2-63.6,259.7-63.6c268.9,0,398.5,65.7,680.3,65.7c80.2,0,161.8-19.8,246.1-60.1c4.6-2,9.3-4,13.9-6.1V155 C1110.8,200,1025.6,222.9,941,222.9z M1170,580.3c-76.7,32.5-155.4,52.5-240,52.6c-110.4,0.2-221.3-13.8-330-32.1 c-0.2,0.1-0.4,0.1-0.6,0.2c0.2-0.1,0.4-0.2,0.6-0.3C496.5,512.1,382.5,437,270,360.6c-72-49-147-93.7-228.4-124.4 c33.1-15,65.9-26.8,97.6-35.1c40.7-10.7,81.2-16.1,120.5-16.1c127.9,0,223.7,15.9,325.2,32.8C688.7,235,796.1,252.9,941,252.9 c44.4,0,90-6.1,135.4-18.1c30.5-8.1,61.9-19,93.6-32.7V580.3z"/>
</svg>