<svg viewBox="0 0 1200 1200" xmlns="http://www.w3.org/2000/svg">
  <g>
    <path d="M619.2,568.3c-6.5-28.1-12.9-56-19.2-84.1c0-0.1,0-0.2,0-0.3c0,0.1,0,0.1-0.1,0.2c0-0.1,0-0.1,0-0.2c0,0.2-0.1,0.5-0.1,0.7 c-6.3,25.8-12.8,51.4-19.3,77.2c-22.4-3.7-44.8-7.2-67.2-10.5l-0.1-0.1c18.5,19.3,36.8,38.8,54.7,58.5c0,0.1,0,0.1,0,0.2 c-6.8,26-13.7,52-20.7,78c0.8-0.9,1.6-1.8,2.4-2.8c-0.8,0.9-1.6,1.8-2.3,2.7c17.7-13.6,35.3-27.4,52.7-41.5 c16.9,19.9,34.3,39.4,52.1,58.6c-6.9-28.1-13.7-56.2-20.4-84.3c18-14.2,36.1-28.1,54.4-42l0.1-0.2c-22.3-3.1-44.6-6.5-66.9-10.1 C619.3,568.3,619.2,568.3,619.2,568.3z"/>
    <path d="M949,597.4c-6.3-27-12.6-53.9-19-80.9c-6.4,27-13,54-19.6,80.9c-22.6-0.5-45.1-1.5-67.6-2.9c0.1,0,0.1,0.1,0.2,0.2 c-0.1,0-0.1-0.1-0.2-0.2c18.4,17.5,36.8,35.1,55.1,52.7l0,0c0,0,0,0,0,0.1c-6.8,26.8-13.7,53.6-20.7,80.4c0.1-0.1,0.2-0.3,0.3-0.4 c17.9-15.8,35.4-31.9,52.5-48.6v0.1c16.2,16.2,32.4,32.4,48.6,48.5c0-0.1,0-0.1-0.1-0.2c0,0,0,0.1,0.1,0.1 c-6-26.7-12.1-53.4-18.2-80.1h0.1c16-17.5,31.5-35.4,46.6-53.7h-0.1l0,0C987.6,595.5,968.5,596.7,949,597.4z"/>
    <path d="M1144.7,180.3c-77.7,31.1-156.7,44.3-243.5,42.1c-59.9-1.5-119.8-6.5-179.4-13.9c-42.5-5.5-82.6-12.1-122.4-18.7 c-45.9-8.2-92.1-15.6-138.4-21.4c-41.3-5.4-84.6-9.6-131.7-11.8c-10.2-0.5-20.4-0.9-30.6-1.2c-6.8-0.2-13.6-0.3-20.4-0.3 c-6.1,0-12.3-0.1-18.6-0.1c-61.3,0-123.5,12.1-187,35.9c-24.4,9-48.5,19.6-72.7,32v820c9.5-4.8,18.9-9.3,28.4-13.5 c85.6-37.3,175.8-50,267.3-49.7c231.2,5.2,360.3,58.7,600.1,64.7c1.8,0.1,3.6,0.1,5.4,0.2c4.5,0.1,8.9,0.2,13.3,0.2 c8.3,0.1,16.8,0.2,25.5,0.2c53.9,0,108.4-8.9,164-27c32.5-10.2,64.4-23.4,96-39.9l0,0V155C1181.4,164.4,1163,172.8,1144.7,180.3z M1170,757.6c-68.7,31.5-140.1,49.8-216.8,52.1c-87.4,2.7-175.7-6.5-262.2-18c-177.8-23.6-361.2-70-540.8-37.2h-0.1c0,0,0,0,0-0.1 c37.2-64.3,76.5-127.1,119.9-187.3c-39.9-55-78.8-110.6-118.3-165.8c178.9-34,362.2,14.1,539.1,38c86.6,11.7,174.9,20.8,262.3,18.2 c77-2.4,148.1-21.1,216.9-52.7V757.6z"/>
  </g>
</svg>