<svg viewBox="0 0 1200 1200" xmlns="http://www.w3.org/2000/svg">
  <path d="M901.3,222.4c-76.9-2.1-153.6-9.9-229.8-21c-109.3-16.6-207.2-37.6-332-44.3c-19-1-38.6-1.7-58.9-2 c-6.9,0-13.9-0.1-20.9-0.1c-73,0-147.3,17.2-223.6,50.8c-0.3,0.1-0.6,0.3-0.9,0.4c-1.2,0.5-2.4,1-3.5,1.6 c-10.6,4.7-21.2,9.7-31.7,15.1v820c85.8-43.3,169.1-62.2,250.7-63.5c3,0,6-0.1,9-0.1c156.7,0,266,22.3,385.8,40.9 c14.2,2.2,28.5,4.4,43.1,6.4c1.3,0.2,2.5,0.4,3.8,0.5c0.6,0.1,1.3,0.2,1.9,0.3c60.5,8.4,125.4,15.1,201.3,17 c8.6,0.2,17.4,0.4,26.3,0.5c6,0.1,12,0.1,18.1,0.1c23.4,0,46.9-1.7,70.6-5.1c9.9-1.3,19.7-2.9,29.5-4.9c8.5-1.7,16.9-3.7,25.2-5.9 c44.2-11.1,89.1-28.1,134.7-51V154.5C1103.9,203,1008.8,225.2,901.3,222.4z M614.3,331.6L614.3,331.6c16.2,2.7,32.5,5.2,48.7,7.6 c-0.2,0-0.3,0-0.5,0l0,0c0.2,0,0.3,0,0.5,0l-0.1,0.1h0.1c-13.3,9.5-26.5,19.2-39.7,29c4.9,19.7,9.9,39.3,14.9,59.1 c0,0.1,0.1,0.2,0.1,0.3l-0.1-0.1v0.1c0-0.1,0-0.1-0.1-0.2c-8-8.5-15.9-17-23.8-25.5c-4.8-5.2-9.7-10.5-14.4-15.8 c-6.5,4.8-13,9.6-19.6,14.3s-13.1,9.5-19.7,14.2l0,0c5.1-18.1,10.1-36.1,15.2-54.2c-13.3-14.1-26.7-28-40.2-41.9h0.1l-0.1-0.1 c0.1,0,0.1,0.1,0.2,0.1h0.1c-0.1,0-0.1-0.1-0.2-0.1c16.5,2.6,33,5.3,49.3,8.1c5-18.1,10-36,14.9-54.1v0.1c0-0.1,0-0.2,0.1-0.2 c4.8,19.7,9.6,39.5,14.4,59.2H614.3L614.3,331.6z M320,567.9c15.9-5.5,32-10.7,48.1-15.6c0-19.9,0.1-39.8,0.1-59.7 c10.1,17,20.2,34,30.3,51c16.4-4.6,32.9-9,49.4-13.3l-0.1,0.2c0.1,0,0.2-0.1,0.3-0.1c-0.1,0.1-0.3,0.1-0.4,0.2c0,0,0,0,0,0.1 c0.2-0.1,0.4-0.2,0.5-0.3c-10.3,14.9-20.5,29.9-30.7,44.9v-0.1l0,0v0.1c10.3,17.2,20.5,34.4,30.7,51.7c-0.2-0.2-0.4-0.5-0.6-0.7 c0.2,0.3,0.3,0.6,0.5,0.8c-9.7-4.7-19.4-9.4-29.1-14.1c-6.8-3.2-13.6-6.5-20.4-9.7c-10.2,15.1-20.4,30.3-30.5,45.5 c0,0.1,0,0.1-0.1,0.2l0,0l-0.1,0.1V649l0,0l0,0c0-19.9,0.1-39.7,0.1-59.6c-15.8-7.2-31.7-14.3-47.5-21.3c-0.2,0-0.3-0.1-0.5-0.1h0.1 C320.1,567.9,320,567.9,320,567.9z M536.4,862.9L536.4,862.9h-0.1c13.3-9.5,26.7-19,39.9-28.7c0,0,0,0,0,0.1c0,0,0.1,0,0.1-0.1l0,0 c-5-19.8-10.1-39.5-15.2-59.3c0,0,0,0,0.1,0.1c0-0.1,0-0.1-0.1-0.2l0,0v-0.1c0,0.1,0,0.1,0.1,0.2c13.1,13.8,26,27.6,38.8,41.7 l0.1-0.1c12.5-9.7,25.2-19.3,38-28.7l0,0l0,0c-5,18.1-10,36.3-14.9,54.5l-0.1-0.1l0,0c13,14,26.2,27.8,39.5,41.4 c-0.1-0.1-0.2-0.2-0.4-0.3c0.1,0.1,0.2,0.3,0.4,0.4l0,0l0,0l0,0c-16.2-2.4-32.3-4.9-48.4-7.7l0,0c-2.4,9-4.8,18.1-7.1,27.1 c-2.4,9.1-4.7,18.1-7.1,27.2l0,0l0,0c-4.8-19.8-9.7-39.6-14.6-59.4l0,0l0,0C569.1,868.1,552.7,865.4,536.4,862.9z M832.3,648.6 L832.3,648.6h-0.1c0.1,19.8,0.1,39.7,0.1,59.6c0-0.1-0.1-0.1-0.1-0.2v0.1V708c0,0,0,0,0-0.1c0,0.1,0,0.2,0,0.3 c-10.2-16.9-20.5-33.8-30.7-50.7h0.1c0,0,0,0,0-0.1c-16.7,4.7-33.4,9.2-50.2,13.6l0.1-0.1c-0.1,0-0.2,0.1-0.3,0.1l0.1-0.1h-0.1h0.1 c10.3-15,20.7-30,31-45v-0.1c-10.4-17.2-20.8-34.3-31.1-51.5c0.2,0.2,0.3,0.4,0.5,0.6v-0.1c-0.1-0.2-0.3-0.3-0.4-0.5 c0,0,0.1,0,0.1,0.1c0,0,0,0,0-0.1c3.7,1.7,7.3,3.5,11,5.2c4.6,2.2,9.3,4.4,13.9,6.5c0,0,0,0,0.1,0c8.4,3.9,16.7,7.7,25.1,11.6 c10.3-15.2,20.6-30.5,30.7-45.9v0.2c0-0.1,0.1-0.1,0.1-0.2v0.1l0.1-0.1c0,0.1-0.1,0.1-0.1,0.2v59.4c16.1,7.1,32.2,14.2,48.3,21.2 C864.6,638.5,848.5,643.6,832.3,648.6z"/>
</svg>