<svg viewBox="0 0 1200 1200" xmlns="http://www.w3.org/2000/svg">
  <g>
    <path d="M1193.79,158.09c-35.6,17.6-70.61,31.6-105.21,42.1c-50.8,14.9-103.11,22.5-158.51,22.6c-2.5,0-5,0-7.6,0 c-133.71-1.4-234.52-18.3-334.03-34.8c-10.9-2.1-21.9-4-32.8-6c-0.3,0.1-0.6,0.3-0.9,0.4c-8-1.3-16-2.6-24-3.9 c0.3-0.2,0.6-0.3,1-0.4c-26.3-4-52.6-7.6-79.01-10.7c-36.7-4.6-75.11-8.3-116.41-10.4c-4.5-0.3-9.1-0.5-13.6-0.8v0.1 c-7.2-0.3-14.4-0.6-21.8-0.8v-0.2c-10.3-0.3-20.7-0.5-31-0.5c-6.5,0-13,0.1-19.5,0.3c-58.3,1.2-117.31,13.2-177.51,35.7 c-5.1,1.9-10.2,3.8-15.3,5.8c0.1,0,0.1,0.1,0.2,0.1c-19.1,7.7-38.4,16.4-57.8,26.2v820c33.4-16.8,66.41-30,99.01-39.9 c50.9-14.6,103.41-21.7,156.51-23.7c1.4,0,2.8,0,4.1,0c116.51,0,206.92,12.3,294.92,26.3c15.2,2.5,30.4,5,45.4,7.5 c26.4,4.4,52.9,8.5,79.51,12.2c44.2,6.4,90.61,12,141.71,15.6c26.6,2,53.3,3.4,80.01,4.1c12.5,0.3,24.8,0.3,37,0c0.6,0,1.2,0,1.8,0 c63.91,0,128.71-12.6,195.02-38c18-6.8,35.8-14.5,53.6-23.2c3.8-1.8,7.6-3.7,11.4-5.6v-823.3 C1197.99,155.99,1195.89,157.09,1193.79,158.09z M29.98,345.39c27.6-12.5,55.8-23.3,85.01-32.1c-27.8-13.4-56-25.1-85.01-35v-15.1 c36,12.3,70.71,27.3,104.71,44.8c13.3-3.3,26.6-6,40.1-8.3c-43.1-24.8-87.41-46.2-133.81-63.2c19-8.6,37.9-16.2,56.5-22.7 c42.8,19.8,83.81,43.1,123.81,68.5c0-31.9,0-63.7-0.1-95.6c6.4-0.6,12.8-1,19.2-1.3v134.7c-74.3,4.5-143.4,22.7-210.41,52.6 C29.98,372.69,29.98,345.39,29.98,345.39z M221.4,568.59L221.4,568.59L221.4,568.59c0-41.9,0-83.8-0.1-125.7 c-59.8,48.7-112.91,103.9-162.71,162.7l0,0l0,0c-7.8,3.1-11.7,4.8-19.3,8.1c53.9-65.8,111.31-127.9,177.11-182 c-13.8,1.3-27.6,2.8-41.3,5c-52.71,48.8-100.11,102.4-145.12,158.2v-45.8c27.4-34,55.6-67.3,85.41-99.3 c-29.4,8.7-57.7,19.4-85.41,32v-27.2c66.91-30,136.21-47.8,210.52-52.1v164.9l0,0l0,0C232.8,567.79,229,567.99,221.4,568.59z M600.03,464.39c-47.6-8.9-95.41-16-143.41-22c49.5,35.7,97.91,72.7,143.41,113.3v15.3c-53.5-47.6-110.91-90.3-169.41-131.5 c-17.2-1.9-34.5-3.5-51.8-5c76.31,52.2,151.81,105.6,221.12,167.1c-23.1-4.3-46.1-8-69.31-11.6l0,0 c-67.31-52.1-137.51-99.9-208.02-147.5c-0.1,41.9-0.1,83.8-0.1,125.7h-0.1c-8.7-0.4-13.1-0.6-21.5-0.8l0,0l0,0v-165 c100.31,3.6,200.42,16.1,299.02,34.5h0.1V464.39L600.03,464.39z M600.03,236.19c-46.9,24.6-95.21,46.4-143.01,68.9 c47.9,5.9,95.61,13.1,143.01,22.2v27.3h-0.1c-98.61-18.8-198.72-31.1-299.02-34.7v-134.3c7.4,0.2,14.6,0.5,21.8,0.8 c0,31.8,0,63.5-0.1,95.4c51.7-29.5,105.41-55,159.21-80.2c8.3,1.2,16.6,2.4,24.9,3.7c-60.11,28.2-120.31,56-178.31,88.5 c16.9,0.9,33.7,2.1,50.6,3.4c58-29.5,117.71-55.7,176.11-84.2c9.9,1.6,19.8,3.3,29.8,4.9c5,0.8,10.1,1.7,15.1,2.5L600.03,236.19 L600.03,236.19z M1076.38,780.69c0,0.1-0.1,0.2-0.1,0.3s-0.1,0.3-0.1,0.4c-0.3,1.4-0.7,4.3-1.2,7.4c-1.9,12.7-3.7,25.6-7.4,38 c-1.9,6.9-6.8,13.9-13,18.5c-2.8,2.1-7,4.5-12.2,5.5c-5.7,1.1-12.7,0.4-20.3-4.3c-22.1,29.9-52.9,55.9-92.01,55.5 c-41.5-0.4-78.01-24.6-106.01-53.4c-8.7,4.4-17.8,6.3-26.5,5.5c-6-0.5-11.6-2.3-17-5.1c-7.7-4.2-13.5-10.4-15.7-16.6 c-6.6-13.7-9-29.8-11.5-44.6c-3-11.3-0.5-18.3,7.4-20.9c11.5-2.7,18.7,11.5,21.3,20.2c0.6,1.7,1.3,3.7,2,5.8 c2.1,2.2,4.1,4.1,6.1,5.4c-2.2-4.4-4.4-9.2-6.4-14c-3.8-13.7-4.1-25.8,9.4-33.5c0.1-0.1,0.3-0.1,0.5-0.2c6.4-2.7,15.1-9.9,19.5-15 c0.2-0.3,0.5-0.5,0.7-0.8c0.1-0.1,0.1-0.1,0.2-0.3c0.3-0.4,0.7-0.8,1-1.2c6.3-7.1,12.8-9,18.2-8c-3.8-19.6-4.8-39.4-5.1-59.3 c0-42.7,0-85.5-0.1-128.2c0-3.7,2.4-6.4,5.4-6.2c11.4,0.7,22.8,1.4,34.3,1.9c-0.9-2.9-1.3-6.1-1-9.2c0.4-5.3,2.7-10,6-12.5 c1.1-0.8,2.2-1.7,3.3-2.5c-0.9-0.7-1.5-1.4-2.1-1.9c-0.1-0.1-0.2-0.3-0.3-0.4c-4.6-5.5-5.6-11.5-5.5-15.5c0.1-4.9,1.8-9.9,4.5-13.4 c-0.1-0.3-0.2-0.7-0.2-1c0-0.1,0-0.1-0.1-0.3c0-0.3-0.1-0.4-0.1-0.7c-1.1-1.1-3-1.8-5.3-1.9c-4.1,0.2-8.7-2.2-12.4-6.5 c-1-1.2-2.5-3.2-3.5-5.5c-0.8,0.1-1.6-0.1-2.3-0.5c-1.7-0.9-3-2.8-3.4-5c-0.8-5.1,0-9.7,2.2-12.9c1.8-2.5,4.2-4,6.9-4.1 c0.7-0.1,1.2-0.3,1.8-0.3c0.4-0.1,1-0.2,1.4-0.3c2.8-2.7,6.5-3.9,10.9-3.4c5.7,0.7,11.2,4.3,14.2,9.2c0.6,1.1,1.6,1.8,2.6,2.4 c1.4-0.8,3.3-1.5,5.3-1.6c-6.8-7.1-14-13.9-17.7-17c-2.1-1.7-3.1-4.9-2.3-7.9c0.5-1.8,1.5-3.1,2.8-3.7c-0.3-0.2-0.5-0.4-0.9-0.6 c-2.2-1.6-3.3-4.8-2.6-7.8s3-4.8,5.5-4.6c2.1,0.2,4.1,0.7,6.2,1.3c-2.2-2.3-4.2-4.1-6.1-5.4c-2.2-1.7-3.2-5.1-2.3-8 c0.9-3,3.3-4.7,5.8-4c4.5,1.1,8.8,2.9,13,5.7c-0.3-0.8-0.6-1.5-0.9-2.2c-1.2-2.8-0.6-6.2,1.3-8.2c1.6-1.7,3.8-1.8,5.6-0.5 c-0.5-1.1-1.1-2.1-1.6-3.1c-1.3-2.4-1.2-5.7,0.2-7.8c1.4-2.2,3.8-2.9,5.8-1.8c4.7,2.6,9.1,6.9,13.1,12.8c1.7-1.1,3.5-1.5,5.1-1.5 c0.4-2.9,1.1-5.3,1.8-7.3c0.4-1.2,0.8-2.3,0.9-3.3c0.5-2.5,2-4.4,3.8-4.9s3.8,0.7,4.8,2.9c0.2,0.4,0.3,0.8,0.5,1.2 c1.9-2.1,4-3.9,6.2-4.7c2.3-0.8,4.6,0.8,5.5,3.8c1.2-0.3,2.3-0.3,3.4-0.1c1.1,0.2,2,0.9,2.7,2c0.4-0.6,0.8-1.1,1.3-1.7 c1.6-2.2,4.1-2.6,5.9-0.7c1.8,1.9,2.4,5.3,1.4,8c-0.1,0.4-0.3,0.8-0.4,1.2c1.7-1.6,3.4-3,5.2-4.3c2-1.5,4.4-0.6,5.6,1.9 c1.2,2.5,1,6.1-0.5,8.4c-0.9,1.4-2,3.3-3,5.6c4.4-4.6,9.2-8.9,14.8-12.5c1.9-1.2,4.2-0.5,5.4,2.1c1.2,2.5,0.9,6-0.6,8.3 c-1.9,3-4.1,6.5-6.2,10.2c2.2-1.8,4.6-3.4,6.9-4.6c1.9-1.1,4.1-0.1,5.1,2.4c1.1,2.5,0.7,6-0.7,8.2c-2.9,4.5-6.8,10.5-11,16.9 c3.4-0.8,6.9-1.1,10.1-0.5c1.9,0.4,3.4,2.7,3.6,5.6s-1,5.7-2.8,7c-4.7,3-13,9.3-21,16.2c0.1,0,0.1,0.1,0.2,0.1 c0.2,0.1,0.5,0.4,0.7,0.5c0.4,0.4,0.8,0.6,1.1,1c0.2,0.1,0.4,0.4,0.6,0.5c0.4,0.4,0.8,0.8,1.1,1.2c0.2,0.1,0.4,0.4,0.6,0.5 c0.4,0.4,0.7,0.9,1.1,1.3c0.2,0.1,0.3,0.4,0.5,0.5c0.4,0.5,0.8,0.9,1.2,1.4c0.1,0.1,0.3,0.3,0.4,0.5c0.5,0.5,0.8,1,1.3,1.7 c0.1,0.1,0.2,0.3,0.3,0.3c1,1.3,2,2.7,3.1,4.2c0.2,0.3,0.4,0.5,0.6,0.8c0.5,0.8,1.1,1.7,1.6,1.8c1.9,0.3,3,1.1,3.9,2.2 c0.4-0.2,0.8-0.3,1.4-0.7c4.5-2,6,2.5,6.3,3.4c0.8,2.5,0.6,6.8-2.5,10.2c-0.1,0.1-0.3,0.3-0.4,0.4c-0.5,0.7-1.6,3.2-2.3,4.6 c-0.4,0.9-0.7,1.7-1.1,2.4c-0.1,0.3-0.3,0.6-0.4,0.7c-1.3,2-2.9,3.3-4.5,4.1c2.6,4.3,5.5,10.4,6.6,21.5c0.5,3,0.2,5.5-0.3,7.3 c0.8,3.6,0.8,7.6,0,11.7c9.7-0.9,14.4-1.4,23.8-2.7c2.4-0.3,4.3,2.3,4.3,6c0,42.7,0,85.5,0.1,128.2c-0.2,19.9-1.2,39.7-3.9,59.5 c5.6-1.7,11.2,2.4,14.3,7.2c0.4,0.5,0.7,1,1.1,1.5c4.1,5.6,10.6,12.3,15.2,14.5c0.1,0.1,0.3,0.1,0.4,0.2 c11.7,7.6,9.6,21.3,7.2,32.9c-1.6,5.1-3.3,10.2-5.1,14.9c1.7-1.6,3.4-3.7,5.1-6.4c0.5-2.2,1-4.2,1.5-5.9c1.9-9,5.7-20.9,16.1-21.9 C1078.78,763.59,1077.18,775.19,1076.38,780.69z"/>
    <path d="M920.77,851.29c-22.1-13.6-40.5-29.9-56.7-50.2c-2.6,6.2-5.5,11.6-8.4,16.5c4.3,4.5,8.7,8.7,13.5,12.4 C884.66,840.99,901.47,849.89,920.77,851.29z"/>
    <path d="M989.87,800.49c-13.5,20.7-29.6,37.5-50.5,50.8c17.3-2,34.1-9.4,46.5-21.8c4-3.9,7.6-8.1,11.2-12.7 C994.57,811.99,992.17,806.39,989.87,800.49z"/>
    <path d="M1069.68,766.59c-4.9-1.7-9.3,8.6-11.6,17.7c-0.5,2.2-1.2,4.7-1.9,7.4c0,0.1,0,0.2-0.1,0.3c-0.2,0.2-0.2,0.3-0.3,0.5 c-1.7,2.7-3.4,4.9-5.1,6.6c-2,2.1-3.8,3.5-5.7,4.4c-1.6,0.8-3.2,1.2-4.6,1.3c-0.3,0.7-0.6,1.5-0.9,2.1c4.7,0,9.9-3,15.7-11.1 c0-0.1,0.1-0.3,0.1-0.4l0,0c0,0.1-0.1,0.3-0.1,0.4c-1.7,6.8-3.9,15.4-6.3,24.8c-0.3,1.2-0.4,1.7-0.7,2.9c0.6-0.7,0.9-1.1,1.6-1.8 c5.8-6.5,10.2-6.8,12.2-4.8c1.5,1.4,2.1,4.3,1.6,7.7c0.5,0.2,0.7,0.3,1.1,0.6c3.6-11.9,5.3-24.3,7.1-36.6c0.5-3.4,0.9-6.1,1.2-7.9 c0-0.1,0.1-0.2,0.1-0.3C1073.88,774.39,1074.68,768.19,1069.68,766.59z M1056.38,795.89c0.3-1.5,0.7-2.9,1-4.2 C1057.08,792.99,1056.78,794.39,1056.38,795.89L1056.38,795.89L1056.38,795.89z M1050.68,818.39c2.7-2.6,5.1-4,7.1-4.4 C1055.78,814.49,1053.38,815.79,1050.68,818.39z M1057.88,813.99c0.5-0.1,1-0.2,1.4-0.2 C1058.78,813.79,1058.38,813.89,1057.88,813.99z M1062.78,815.19c1.1,1.1,1.9,2.8,2.1,4.8 C1064.58,817.89,1063.88,816.29,1062.78,815.19z M1069.18,768.59c-0.5-0.2-1-0.2-1.6,0 C1068.18,768.39,1068.68,768.39,1069.18,768.59c2.5,0.8,3.2,2.8,3.2,5.7C1072.38,771.39,1071.68,769.49,1069.18,768.59z"/>
    <path d="M1053.18,838.79c-9.1,6.9-21.2,6.7-30.5-0.2c-0.4,0.5-0.7,1.1-1,1.5c0.1,0.1,0.3,0.2,0.4,0.4c1.1,0.7,2,1.3,3.1,2 c6.6,3.6,12.5,4.2,17.4,3.3c4.7-0.9,8.5-3.1,11-5c3.5-2.7,6.4-6,8.5-9.5c1.1-1.9,2-3.9,2.5-5.9c-0.4-0.3-0.7-0.4-1.1-0.7 C1062.18,829.39,1058.18,834.99,1053.18,838.79z"/>
    <path d="M1031.68,745.29c0,0.2,0.1,0.3,0.1,0.3C1031.78,745.49,1031.78,745.49,1031.68,745.29z"/>
    <path d="M816.46,769.69c2.2,5.5,5,10.4,7.6,15.1c0.4,0.6,0.5,0.9,0.9,1.6c0-0.1,0-0.1,0-0.1c0.2-0.6,0.3-1,0.5-1.6 c0.1-0.3,0.1-0.4,0.2-0.7c1.4-4,4.1-6.3,6.1-5.9c1.2,0.2,2,1.2,2.4,2.9c0,0.1,0,0.1,0,0.1c0,0.1,0,0.1,0,0.2 c-1.1,1.5-2.1,2.9-3,4.2c-0.5,0.5-0.9,1-1.2,1.6c-0.5,0.7-1,1.2-1.5,1.7c0.3,0.6,0.7,1.1,1,1.7c8.6-9.6,15.2-21.8,16.1-35 c4.1,11.8,9.5,23.2,16,33.8c0.1,0.1,0.2,0.3,0.3,0.4c0,0,0,0.1,0.1,0.1c-3.5,9.2-8.1,18.7-13.6,27c0.4,0.4,0.8,0.9,1.2,1.4 c0.9-1.3,1.8-2.8,2.7-4.2c3.9-6.5,7.4-13.9,10.8-22.5c1.1,1.6,2.1,3,3.1,4.6c17.6,22.8,38.8,40.2,63.71,54.8 c0.1,0.1,0.2,0.1,0.3,0.1c0.1-0.1,0.2-0.1,0.3-0.1c23.9-14,42.6-32,57.6-55.3c0.9-1.6,1.8-3.2,2.7-4.8c0-0.1,0.1-0.1,0.1-0.2 c2.9,8.8,5.8,16,9,22.3c0.7,1.4,1.5,2.9,2.2,4.1c0.4-0.5,0.6-0.9,1-1.5c-4.7-8.3-8.4-17.5-11.3-26.5c0.1-0.1,0.1-0.3,0.2-0.5 c5.6-10.9,9.8-22.5,13.1-34.4c0.2,8.7,3.2,18.9,7.6,26.3c0.1,0.1,0.1,0.2,0.2,0.3c0.3,0.5,0.4,0.8,0.7,1.3c0-0.2,0-0.3,0.1-0.5 c1.4,2.7,2.9,5.2,4.4,7.4c-4.2,9.2-9.3,18.4-15,26.6c-0.4,0.5-0.6,0.9-1,1.5c-18.3,23.7-41.1,40-71.91,40.2 c-31.9,0.2-59.1-16.8-80.71-39.2c-0.4-0.4-0.8-0.9-1.2-1.4c-7.2-8.1-13.1-17.2-18.9-26.3c-0.3-0.6-0.7-1.1-1-1.7 c-0.9-1.6-1.8-3-2.6-4.6c-0.1,0.3-0.1,0.4-0.2,0.7c-0.2,0.6-0.3,1-0.5,1.6c23.3,38.6,57,72.9,105.11,72.9 c46.5,0.1,73.51-36.3,91.41-74.8c0,0.1,0,0.2,0.1,0.2c0,0.1,0,0.1,0,0.1c0.3-0.6,0.4-1,0.7-1.6c2.1-4.8,4.3-9.8,5.9-15.3 c3.4-8.4,5-15.1,3.4-21.8c0-0.1,0-0.1-0.1-0.3c-0.1-0.3-0.1-0.4-0.2-0.7c-0.7-2.5-1.9-5-3.7-7.5c-0.4-0.5-0.7-1-1.2-1.6 c-3.2-5.1-9.7-9.2-14.8-3.6c-0.4,0.3-0.7,0.8-1,1.2c-0.4,0.3-0.7,0.8-1.1,1.5v-0.1c0.4-0.5,0.7-1.1,1.2-1.7c0.4-0.5,0.7-0.9,1-1.2 c0-0.1-0.1-0.2-0.1-0.3c-0.7,1-1.3,1.8-2,2.7c0.5-2.6,0.9-5.1,1.3-7.7c0-0.1,0-0.1,0-0.1c2.8-20.4,4-40.6,4.3-61.2 c0-43.1,0-86.1-0.1-129.2c-10.3,1.4-15.5,2-26.1,2.9c-2.1,0.2-3.2,0.3-5.4,0.4c-4.1,0.3-6.1,0.5-10.3,0.7c-2.2,0.1-3.3,0.2-5.6,0.3 c-5,0.3-7.5,0.4-12.6,0.5c-14.4,0.4-28.8,0.4-43.2,0.3c-4.6-0.1-7-0.1-11.7-0.2c-2.1-0.1-3.1-0.1-5.2-0.1c-2.3-0.1-3.4-0.1-5.7-0.2 c-3.3-0.1-4.9-0.2-8.2-0.3c-1.5-0.1-2.3-0.1-3.8-0.1c-2.9-0.1-4.3-0.2-7.2-0.3c-12.6-0.6-25.3-1.3-37.9-2.1c0,43,0,86.1,0.1,129.1 c0.3,20.6,1.9,40.7,5.4,61c0,0.1,0,0.1,0,0.3c0.5,2.2,1,4.5,1.5,6.8c-0.5-0.6-1-1.1-1.5-1.8c-0.1,0.2-0.2,0.2-0.3,0.3l-0.1-0.1 c-2.7-2.6-6.2-3.4-9.9-2.2c-3.2,1-6.6,3.4-9.2,6.3c-0.3,0.4-0.7,0.9-1.1,1.3c-3,3.8-4.7,7.1-5.5,10.5 C810.16,755.79,812.36,762.19,816.46,769.69z M820.46,774.69c0.7,1.3,1.4,2.7,2.1,4C821.76,777.39,821.06,776.09,820.46,774.69z M826.96,778.29c0.9-1,2-1.6,3-1.9C828.96,776.69,827.96,777.39,826.96,778.29z M835.66,781.79c-0.5,0.6-0.7,0.9-1.1,1.6 c0-0.1,0-0.2,0-0.3c0.5-0.5,0.7-0.9,1-1.5c5.3-7.1,9.4-17.7,9.8-26.6l0,0c0,0.1,0.1,0.1,0.1,0.2 C845.16,764.09,840.96,774.69,835.66,781.79z M843.36,748.89C843.36,748.89,843.46,748.99,843.36,748.89c0.2,1.2,0.3,2.3,0.3,3.5 C843.66,751.19,843.56,750.09,843.36,748.89z M839.86,728.39c3.6,15,7.7,29.6,14.3,43.7C847.56,758.09,843.36,743.39,839.86,728.39 z M1018.87,787.09L1018.87,787.09c-0.2-0.1-0.4-0.4-0.5-0.8c-0.6-0.9-1.3-1.9-1.8-2.8c-0.8-1.4-1.7-2.8-2.4-4.3 c0,0.1-0.1,0.3-0.1,0.4c-0.1,0.8-0.2,1.3-0.3,2.1c0-0.1-0.1-0.2-0.1-0.2c0.1-0.5,0.2-1,0.2-1.6c0-0.1,0.1-0.3,0.1-0.4 c0.3-1.5,0.9-2.6,1.9-2.7c1.7-0.4,4,1.5,5.1,5.4C1020.28,783.89,1019.57,785.49,1018.87,787.09z M1015.87,774.49h0.3 c2.1-0.3,4.6,1.7,6,5.6c0,0.1,0,0.1-0.1,0.2c-1.3-4.1-3.9-6-6-5.7h-0.3c-0.9,0.2-1.7,0.9-2.2,1.9 C1014.07,775.39,1014.87,774.69,1015.87,774.49z M1012.97,777.69c-4.5-8-7.3-19.6-6.4-29.2c0.1-0.5,0.2-1.1,0.4-1.6 c-1.5,9.8,1.4,22.2,6.1,30.6C1012.97,777.59,1012.97,777.59,1012.97,777.69z M1011.57,734.59c0.3-0.5,0.7-0.9,1-1.3 C1012.27,733.69,1011.97,734.09,1011.57,734.59c-1.4,2.2-2.6,4.6-3.4,7.2c0-0.2,0.1-0.4,0.1-0.6 C1009.07,738.89,1010.07,736.69,1011.57,734.59z M994.97,561.29c0.2-0.9,0.3-1.3,0.5-2.2c0.3,0.8,0.4,1.3,0.7,2.1 c0.7,2.1,0.6,7.2-0.7,11c2.4-0.9,5.1-0.2,7.2,3.1c0.5,0.8,0.7,1.2,1.2,1.9c-0.7-0.1-1.1-0.1-1.8-0.2c-0.1-0.2-0.2-0.4-0.4-0.6 c-2-3.3-4.7-4-7.2-3.1c1.4-3.8,1.5-8.9,0.7-11c-0.1-0.3-0.2-0.5-0.3-0.8C994.97,561.49,994.97,561.39,994.97,561.29z M988.07,557.59v-1.6c0.4,0.2,0.6,0.4,0.9,0.6c2.2,1.5,3.7,4.7,3.9,8.4c-0.1,0.1-0.2,0.3-0.4,0.4c-0.2,0.2-0.5,0.5-0.6,0.7 c-0.3-3.6-1.6-6.8-3.8-8.3C988.07,557.79,988.07,557.69,988.07,557.59z M981.67,553.29c2.3,0.4,4.2,3,5.3,5.7 c-0.1,0.3-0.3,0.6-0.6,1c-0.1,0.1-0.2,0.3-0.4,0.4c-0.9-2.7-2.8-5.4-5-5.9c-0.1-0.5-0.2-0.8-0.4-1.4 C980.97,553.19,981.27,553.19,981.67,553.29z M978.77,563.29c-0.1,0.6-0.2,1.3-0.2,2c-2.5-3.4-6.9-4.3-10.6-4.1c0,0,0,0-0.1,0 c-0.3-0.3-0.6-0.6-0.9-1c0.8,0,1.2-0.1,2.1-0.1C972.37,559.89,976.27,560.79,978.77,563.29z M945.07,570.09c3.7-0.1,6.6-0.8,10-1.6 c3.7-0.9,7.6-2,13.2-2.4v1c-6.2,0.5-10.5,1.6-14.3,2.5c-3.4,0.8-6.3,1.6-10,1.6c-7.1,0.1-10.6-1.2-10.6-4.1c0-0.7,0.5-1.4,1.3-1.9 c-0.1,0.2-0.2,0.5-0.2,0.8C934.47,568.89,937.97,570.29,945.07,570.09z M959.67,563.59c-1.1,0-1.9-1.2-2.7-2.4 c-0.2-0.4-0.5-0.7-0.7-1.1c0.2-0.1,0.3-0.1,0.5-0.2c0.3-0.1,0.6-0.3,0.9-0.4c0.1,0.2,0.2,0.4,0.3,0.6c0.8,1.2,1.5,2.4,2.7,2.4 c0.8,0,1.1,0,1.9-0.1c-0.6,0.7-0.9,1.1-1.4,1.8c-0.2,0.3-0.5,0.5-0.7,0.7c0.4-0.5,0.7-0.9,1.1-1.4 C960.77,563.49,960.47,563.49,959.67,563.59z M948.67,548.49c1.7-1.4,4.1-1.5,6.4-1.7c2.4-0.2,4.9-0.3,6.4-2c0.4-0.5,0.6-0.7,1-1.1 v1.9c0,1.8-1,4.2-2.4,6c2.4-0.5,4.3-0.2,5.7,0.8c1.1,0.9,1.8,2.1,2.1,3.9c0.2,0.9,0.2,1.4,0.4,2.3c-0.6-0.5-0.9-0.7-1.4-1.2l0,0 c-0.3-1.8-1-3.1-2.1-3.9c-1.3-1-3.3-1.4-5.7-0.8c1.3-1.8,2.4-4.1,2.4-6v-1.9c-0.4,0.5-0.6,0.7-1,1.1c-1.5,1.6-4,1.8-6.4,2 c-2.3,0.2-4.7,0.3-6.4,1.7c-0.6,0.4-1.1,0.9-1.6,1.4C946.77,550.09,947.67,549.19,948.67,548.49z M939.07,556.49 c1.6,0,2.9-0.3,3.7-0.9c0,0.1-0.1,0.2-0.1,0.3c-0.8,1-2.5,1.7-4.6,1.7c-3.6,0-6.1,1.1-7.8,2.6 C931.87,558.19,934.67,556.59,939.07,556.49z M923.47,584.29c5.3,0,11.1-1.5,16.6-2.9c5.6-1.6,11.3-3.2,16.4-3.4 c5.6-0.2,9.8,1.1,13.6,2.1c2.7,0.8,5.1,1.5,7.3,1.3c1.2-0.1,2.2-0.7,3.1-1.5c-0.9,1.4-2.4,2.6-4.1,2.7c-2.2,0.1-4.6-0.5-7.3-1.3 c-3.8-1.2-7.9-2.3-13.6-2.1c-5.1,0.2-10.8,1.8-16.5,3.4c-5.5,1.6-11.3,2.9-16.6,2.9h-1.4v-0.5c-0.1,0-0.3-0.1-0.5-0.4 c-0.1,0.1-0.1,0.2-0.2,0.3c-0.7-0.1-1.3-0.3-1.9-0.5c-0.2-0.4-0.3-1-0.5-1.7c-0.2-0.6-0.4-1.2-0.7-1.9c-0.1-0.4,0-1.5,0.1-2.3 s0.2-1.8,0.1-2.5c0.2-0.1,0.5-0.4,0.8-0.7c0.1-0.1,0.2-0.2,0.3-0.3c0,0.7,0,1.5-0.1,2.3s-0.2,2.1-0.1,2.3c0.3,0.8,0.5,1.4,0.7,1.9 c0.4,1.4,0.6,2.1,1.3,2.8L923.47,584.29L923.47,584.29z M916.67,553.89v-2.2c0.4-0.8,0.7-1.3,1.1-2.3v3.3c0,1.8-0.4,3.6-0.9,4.9 h3.9c-0.5,0.7-0.7,1-1.2,1.6c-0.6,0.8-0.8,1.5-1,2.3c0,0.1-0.1,0.3-0.1,0.4c0.8-0.1,1.6,0,2.2,0.4c0.7,0.4,1.2,1.2,1.5,2.3 c1,2.5-0.4,5.8-1.5,8.2c0,0.1-0.1,0.2-0.1,0.3c-0.1,0.1-0.1,0.1-0.2,0.1c-0.2,0.2-0.5,0.4-0.7,0.6c1.2-2.3,2.4-5.5,1.4-8 c-0.2-1.1-0.7-1.9-1.5-2.3c-0.6-0.4-1.4-0.6-2.2-0.4c0-0.1,0.1-0.3,0.1-0.4c0.2-0.8,0.4-1.6,1-2.3c0.5-0.7,0.7-1,1.2-1.6h-3.9 C916.27,557.39,916.67,555.69,916.67,553.89z M915.27,559.89c0.2-0.3,1.1-0.3,2-0.4c-0.2,0.5-0.3,1-0.4,1.4c-0.2,0.8-0.4,1.5-1,2 c0.3,0.7,0.4,1,0.7,1.7c1.1-0.8,2.4-0.9,3.2-0.5c0.4,0.3,0.6,0.7,0.7,1.2c0,0.1,0.1,0.2,0.1,0.3c0.5,1.1,0.1,3-1.3,5.9 c-0.4,0.3-0.8,0.7-1.1,1.1c-0.3,0.3-0.6,0.7-0.8,0.7h-0.4c0.1-1.2,1-2.4,2-3.4c-0.2-0.7-0.4-1.1-0.6-1.8c-1.3,0.5-2.3,0.5-3.2,0.5 h-0.5c-0.1,0.3-0.1,0.4-0.2,0.7c-0.5,1.9-1.5,3.4-2.7,3.7c-0.7,0.3-1.5,0-2.1-0.9c-0.4-0.5-0.6-0.8-0.9-1.3c-0.1,0.7-0.2,1-0.3,1.6 c-0.4,2.2-2.6,4.9-4.1,4.4c-1.3-0.9-1.8-2-1.7-3.3c0-0.2,0-0.4,0.1-0.5l0.1,0.1c-0.1,0.3-0.1,0.5-0.1,0.7c0.3,0.1,0.6,0.2,0.9,0.2 c0.4,0,0.8-0.1,1.2-0.4c0.7-0.5,1.3-1.6,1.6-3.3v-0.3c0-0.2,0-0.5,0.1-0.8c0.7,0.6,1.9,1,3.2,1c0.8,0,1.7-0.1,2.5-0.6 c-0.2-0.8-0.2-1.2-0.4-1.9c-0.7,0.3-1.1-0.3-1.3-0.8c-0.2-0.7-0.1-1.4,0.4-1.9c0,0,0-0.1,0.1-0.1c0,0,0,0,0-0.1 c0.2,0.1,0.5,0.3,0.7,0.4c0.4,0.3,0.8,0.6,1.3,0.6c0.2,0,0.5,0,0.7-0.3c-0.2-0.7-0.4-1.1-0.6-1.8c-0.1,0.1-0.4,0-0.8-0.3 c-0.6-0.4-1.4-0.8-2.5-0.5c-0.2,0-0.4,0-0.6,0.1c-0.1,0-0.2,0-0.2,0c-0.2-0.1-0.7,0-0.9,0c-0.3,0.4-0.5,0.7-0.8,1.2 c-0.1-0.1-0.1-0.1-0.2-0.2c0.4-0.5,0.6-0.8,1-1.4c0.1,0.1,0.6,0,0.9-0.1v-1.5c-1.7,0-2.7,1.3-2.7,3.5c0,0.3-0.3,1-0.5,1.6 c-0.4,1.1-0.9,2.2-0.9,3.4c-0.2,1-0.5,1.6-0.8,1.9c-0.3,0.1-0.6,0.1-1.2,0c-1.1-1-1.1-1-1.1-2.4c0-0.8,0.4-1.4,1.1-2.2l0.1-0.1 c0.1-0.1,0.2-0.2,0.4-0.3c0,0,0,0,0,0.1c0.4-0.7,0.8-1.5,0.8-2.5c0.1-0.3,0.2-0.5,0.3-1c0.2-0.5,0.4-1.2,0.6-1.6 c0.1,0,0.1-0.1,0.2-0.1c0.9-0.7,1.4-1,2.3-1.7c-1.1,0-1.6,0-2.7-0.1c-0.3,0-0.5,0.1-0.7,0.4c-0.7,0.4-1.4,0.5-2.2,0.4v-0.2 c0-0.1,0-0.1,0-0.1h-0.4h-0.1h0.1c-0.2-0.1-0.4-0.1-0.6-0.3c-0.9-0.6-1.6-1.7-1.7-2.9c-0.6,0.1-0.9,0.1-1.5,0.2 c0.2,1.7,0.8,2.9,1.8,3.9c-0.3,0.3-0.6,0.7-0.8,1.1c-0.5,0.9-0.6,2-0.4,3.1c0.2,1,0.8,1.7,1.6,2.1c0.2,0.1,0.4,0.1,0.6,0.2 c-0.2,0.5-0.2,1-0.2,1.6c0,1.8,0.1,2.3,0.8,3.2c0,0,0,0.1-0.1,0.1c-0.6,0.8-1.3,1.2-2,1.2c-1.5,0-2.6-1.3-3-1.7 c0-0.1-0.1-0.6-0.1-1.1c0-0.4,0-0.8,0.1-1.4c0.1-1.2,0.4-2.9,1.1-5c-0.6-0.3-0.9-0.4-1.5-0.7c-0.1,0.5-0.2,1-0.3,1.4c0,0,0,0,0,0.1 c-0.1-0.1-0.2-0.4-0.3-0.6c-0.5-1.4-0.5-3.6,0.1-5.3c-0.6-0.3-0.8-0.4-1.4-0.7h-0.1l0,0c0-0.4-0.1-0.7-0.1-1 c-0.2-2.1,0.9-4,1.7-5.6c0.2-0.3,0.3-0.5,0.4-0.8c0.3,1.2,0.6,2.5,0.4,3.4c0,0.1,0,0.1-0.1,0.3c0.6,0.2,0.9,0.4,1.5,0.6 c0-0.1,0-0.1,0.1-0.3c0.4-1.8,2.7-4,4.9-5.5c0.1,1,0.5,1.9,0.9,2.8c0.4,1,0.8,2.1,0.7,2.5c0.5,0.3,0.8,0.4,1.4,0.7 c0.7-2.3,3.4-3.9,5.9-4.4c-0.4,1.5-0.4,3.1-0.4,4.1v1h0.7c1,0,2.6-0.2,3.9-1.2c-0.3,1.4-0.9,2.7-1.4,3.4 C914.67,559.09,914.87,559.29,915.27,559.89z M905.17,579.09c-1.1,4.6-2.4,6.4-4.3,6.9c0.9-2,1.8-4.3,3-7.1c0,0.1,0.1,0.1,0.1,0.1 c0.2,0.1,0.5,0.1,0.7,0.2C904.77,579.09,904.97,579.09,905.17,579.09z M909.17,567.39c0.1,0.1,0.1,0.3,0.2,0.6 c-0.9-0.2-1.7-0.6-2.1-0.7c-0.1,0-0.2-0.1-0.2-0.1c-0.3,0.4-0.5,0.6-0.7,1c0-0.1-0.1-0.1-0.1-0.2c0.4-0.5,0.6-0.8,1-1.4 c0,0,0.1,0.1,0.2,0.1c0.3-0.6,0.4-1.2,0.5-1.7l0,0c0.4,0.1,0.8,0.2,1.1,0C908.87,565.79,908.87,566.49,909.17,567.39z M910.57,563.79c0.2,0.3,0.3,0.5,0.5,0.9l-0.1,0.1C910.87,564.29,910.77,563.99,910.57,563.79z M901.87,561.89h0.1v0.1 c0.4,0.1,0.9,0.1,1.3,0.1c-0.1,0.4-0.2,0.7-0.3,1c0,0.1-0.1,0.2-0.1,0.3v0.3c0,0.4-0.1,0.8-0.2,1c-0.1,0-0.1,0.1-0.2,0.1 c-0.7,0.5-1.5,0.7-2.1,0.5c-0.3-0.1-0.5-0.4-0.6-0.8c-0.1-0.6,0-1.1,0.2-1.4c0.3-0.5,0.8-0.9,1.5-1.1c0.1,0,0.1,0,0.2,0 C901.77,561.99,901.87,561.99,901.87,561.89C901.97,561.99,901.87,561.99,901.87,561.89z M886.86,556.59c0.4-1.2,1.4-2,2.6-2.2 c0.9-0.1,1.7,0.1,2.6,0.4c0.2-2.1,1.2-3.7,2-5.2c0.5-0.8,1.1-1.8,1.1-2.3c0.6-0.1,0.9-0.1,1.5-0.2c0.1,0.4,0.2,0.8,0.3,1.2 c0.2,0.8,0.4,1.7,0.6,2.5c1.6-2.2,3.9-3.9,5.6-4.8c1-0.1,1.5-0.2,2.4-0.3c-0.5,1-0.8,1.5-1.4,2.6c-0.3,0.5,0.2,1.8,0.7,2.9 c0.2,0.4,0.4,0.8,0.5,1.4c1.8-2.3,4.9-3.6,7.6-3.6h1.8c-0.5,0.7-0.7,1-1.2,1.6c-0.6,0.8-0.7,2.3-0.7,3.6c0.8-0.1,1.7-0.4,2.5-0.9 l0,0c-0.6,1.4-2.3,1.9-3.6,2.1c0-1.2,0.2-2.7,0.7-3.6c0.5-0.7,0.7-1,1.2-1.6h-1.8c-2.7,0-5.8,1.3-7.6,3.6c-0.2-0.4-0.3-0.8-0.5-1.4 c-0.5-1.1-1-2.4-0.7-2.9c0.5-1,0.8-1.5,1.4-2.6c-0.9,0.5-1.3,0.7-2.2,1.2c-0.5-0.4-3,1.4-4.6,3.6c-0.2-0.8-0.4-1.7-0.6-2.5 c-0.1-0.4-0.2-0.8-0.3-1.2c-0.6,0.1-0.9,0.1-1.5,0.2c0,0.4-0.5,1.4-1.1,2.3c-0.9,1.5-1.8,3.1-2,5.2c-0.7-0.4-1.7-0.6-2.6-0.4 c-1.2,0.2-2,1-2.6,2.2c-0.3,0.8-0.5,1.6-0.4,2.5C886.36,558.79,886.36,557.69,886.86,556.59z M868.86,558.49l0.5,2.1 c-0.1-0.6-0.3-1.2-0.6-1.6C868.76,558.79,868.86,558.69,868.86,558.49z M868.26,568.29c3.4,6.9,9.1,12.5,13.7,13.7 c0.2-2.3,1.1-4.6,2.6-6.5c0.1-1.4,0.5-3.1,1.1-4.5c0.3-2.7,1.2-4.5,2.4-5.3c0.1-0.1,0.2-0.1,0.3-0.2c0.2,0.3,0.4,0.5,0.5,0.8 c-0.1-0.3-0.2-0.5-0.2-0.8h0.1c0-0.1,0-0.1,0-0.1c-0.1-0.1-0.1-0.1-0.2-0.2c-0.1-0.7,0-1.5,0.2-2.2c-0.6-1.5-1-3.2-0.5-4.4 c0.2-0.7,0.8-1.1,1.4-1.2c1-0.1,2,0.3,2.5,0.9c0.4,0.6,0.6,0.8,1.1,1.4c0.1-0.4,0.2-0.8,0.3-1.1h0.1c-0.1,0.3-0.2,0.6-0.3,1 c-0.2,1.1-0.2,2.5-0.1,3.6c0.3,0.7,0.4,1,0.6,1.7l-0.2-0.2c-0.2-0.6-0.3-0.9-0.5-1.5c-0.3-0.7-0.4-1.1-0.6-1.8 c-0.6-1.7-1.3-3.2-2.2-3.2v1.9c-0.1,0-0.1,0-0.1,0c0.1,0.1,0.2,0.3,0.3,0.6c-0.3,0.1-0.6,0.4-0.9,0.7c-0.3,0.4-0.5,0.8-0.6,1.4 c-0.3,1.1-0.3,2.4,0.2,3.5c-0.1,0.1-0.2,0.2-0.3,0.3c0-0.1-0.1-0.2-0.1-0.3c0,0.1,0,0.1,0,0.1c-0.3,0.1-0.5,0.1-0.8,0.2 c-1.2,0.8-2,2.5-2.4,5.3c-0.5,1.2-1,3-1.1,4.5c-1.4,1.9-2.3,4.2-2.6,6.5c-4.6-1.3-10.3-6.9-13.7-13.7c0-0.1-0.1-0.1-0.1-0.1 c-0.4-0.5-0.9-1.5-0.8-2.4c0.2,0.6,0.5,1.2,0.7,1.5C868.16,568.29,868.26,568.29,868.26,568.29z M867.36,554.39 c-0.8-1-2-1.7-3.7-1.4c-0.2-0.3-0.4-0.6-0.8-0.9C865.16,551.69,866.76,552.79,867.36,554.39z M862.96,556.49 c0.3-0.3,0.8-0.4,1.2-0.5c0-0.7,0-1.5-0.2-2.3c0.8,1,0.7,2.1,0.7,3.2v0.1c-0.4,0.1-0.8,0.2-1,0.5c-0.2,0.1-0.4,0.5-0.7,0.9 c-0.1-0.7-0.2-1.1-0.2-1.8C862.86,556.59,862.86,556.49,862.96,556.49z M859.96,550.29c-0.7-1-1.8-1.4-4.3-1.6 c-0.2-0.3-0.5-0.5-0.8-0.7C858.26,548.19,859.46,548.79,859.96,550.29z M854.66,553.69c0.3-1.2,0.9-1.9,1.4-2.3 c0.2-0.7,0.2-1.5-0.1-2.2c0.6,0.7,0.8,1.6,0.6,2.6c-0.6,0.4-1,1-1.3,2.2v2.5c-0.2-0.2-0.4-0.4-0.6-0.6L854.66,553.69L854.66,553.69 z M854.36,558.29c0.2,0.3,0.4,0.7,0.7,1.1c0.3,0.6,0.6,1.1,0.9,1.6c0.4-0.5,0.7-0.8,1.1-1.3c0,0.1,0.1,0.1,0.1,0.1 c-0.4-1.1-0.4-3.6-0.4-5.2c0.1-0.3,0.2-0.5,0.3-0.7c0.6,0.4,1.2,0.8,2,0.8c0.4,0,0.9-0.4,1.2-0.8c0.4-0.5,0.6-1.3,0.4-2 c0-0.1,0-0.3-0.1-0.3v-0.1c0.3,0.3,0.5,0.6,0.7,1c-0.1-0.1-0.2-0.2-0.3-0.2c0,0.2-0.2,1-0.6,1.7c0.4,0.6,0.7,1.4,0.7,2.2 c0,1.5,0.2,2.6,0.7,4.1c0.1,0.4,0.2,0.9,0.3,1.5c0,0,0,0.1-0.1,0.1c-0.3,0.5-0.4,0.8-0.4,1.6h1.5v-0.1c0.1-0.1,0.1-0.3,0.3-0.4 c-0.2-0.2-0.3-0.3-0.4-0.6c-0.3-0.3-0.4-0.5-0.6-0.8l0,0c0.3,0.3,0.4,0.5,0.7,0.9c0.3,0,0.4-0.1,0.7-0.1c0-0.1,0.1-0.7,0.2-0.9 c0.1-0.5,0.3-1.1,0.3-1.6s0.1-0.7,0.2-0.7c0.1-0.1,0.3-0.1,0.6-0.2c0.2,0.3,0.5,0.5,0.9,0.8c0.5,0.2,1,0.2,1.4,0.2 c0.2,0.3,0.3,0.7,0.4,1.2c0.1,1-0.1,2.3-1,3.2c0,0.1-0.1,0.1-0.1,0.1c-1.4,1.7-0.8,4.2,0.4,5.9c3.7,7.3,9.5,13.2,14.6,14.6 c0.5-1.1,1.3-2.1,2.2-2.9c0.3-1.4,1-2.8,1.9-4h-0.4v-1.9c0.1,0,0.3-0.1,0.4-0.3c0.1-0.1,0.3-0.3,0.5-0.3c0.2-0.8,0.4-1.8,0.8-2.4 c0,0-0.1,0-0.1,0.1c-0.4-0.6-0.6-0.8-1.1-1.4c0.1-0.1,0.1-0.2,0.2-0.3c0.4,0.6,0.6,0.8,1.1,1.4c0,0,0.1,0,0.1-0.1 c0.2-0.3,0.5-0.5,0.9-0.8c0.6-0.2,0.9-0.6,1.2-1c-0.4-0.6-0.6-0.8-1.1-1.4c0,0,0,0-0.1,0l-0.1,0.1c0.2-0.4,0.4-0.7,0.8-1 c0.4-0.3,0.9-0.2,1.4,0.2c0.3-0.6,0.5-1,0.9-1.6c-0.2-0.3-0.7-1-0.7-1.3c0-0.2,0-0.2,0-0.4v-0.1c0.1-0.1,0.2-0.1,0.2-0.2 c-0.5-0.8-0.3-1.9,0.1-2.4c0.3-0.4,0.6-0.3,0.7-0.1c0.8,0.7,1.2,1,2,1.7l0.1,0.1c0.1,0.3,0.1,0.5,0.2,0.7c0.3,0.8,0.7,1.4,1.3,1.8 c-0.3,1.5-0.4,2.6-0.4,3.5c0,1.4,0.2,1.9,0.3,2.2c0,0.1,0.1,0.2,0.1,0.3c0.1,0.1,0.4,0.6,0.8,1c0.7,0.7,2,1.6,3.4,1.6 c0.1-0.4,0.2-0.7,0.4-1.1c-0.1,0.4-0.2,0.7-0.4,1.1c-1.2,3.3-2.5,6.2-4,8c-0.4,0.5-0.9,0.8-1.2,1.2c-0.6,0.5-1.3,0.8-2,0.8 c-0.9,0.1-1.5,0.5-1.9,1c-0.1,0.2-0.3,0.4-0.4,0.6c0-0.2,0.1-0.5,0.3-0.7c0-0.3-0.1-0.6-0.2-1c-0.1-0.4-0.2-1-0.2-1.2 c0.4-1.1,0.9-2.9,0.6-4.4c0.5-0.8,0.9-1.9,1-2.4c0.2-1,0.2-1.9,0.1-2.6c1-0.8,1.9-2,1.9-3.1c-0.6-0.1-0.9-0.1-1.5-0.2 c-0.1,0.3-0.9,1.2-1.6,1.7c-0.3,0.2-0.4,0.2-0.6,0.4c0.1,0.3,0.2,0.5,0.3,0.8c0.1,0.4,0.2,1.2,0,2.2c-0.2,1.1-0.5,1.6-0.6,1.8 c-0.3,0.2-0.4,0.2-0.6,0.4c0.1,0.3,0.2,0.5,0.3,0.8c0.3,0.7,0.1,2.2-0.5,3.7c0,0.1-0.1,0.2-0.1,0.3v0.3c0,0.4,0.1,1,0.3,1.9 c0.1,0.4,0.2,1.2,0.2,1.4h0.9c0,0.1-0.1,0.1-0.1,0.2c-0.5,1.5,0.3,3.3,1.9,3.4c3.4,0.9,5.6,0.3,8-2.9c0-0.1,0.1-0.1,0.1-0.2h0.2 c3.3,0.1,5.4-2.3,7.2-9.9c0.1-0.1,0.2-0.1,0.3-0.2c0.9-0.9,1.7-2.2,2.2-3.4c0.8,0.6,1.7,0.9,2.6,0.5c1.6-0.4,2.8-2,3.5-4.3h0.6 c-0.4,0.7-0.7,1.5-0.7,2.3c-0.1,0.8,0.1,1.5,0.5,2.1c0.1,0.1,0.3,0.3,0.6,0.6c0.1,0,0.1,0,0.2,0c0,0.5-0.1,1-0.1,1.4 c-0.1,1.4-0.3,2.6,0.1,3.6c0.3,0.7,0.4,1.4,0.6,1.9c0.2,0.6,0.3,1.1,0.6,1.7c-1.2-0.4-1.7-1.3-1.7-1.9h0.1v-1.9h-1.5 c0,4.4-0.2,5.9-1.1,7.3c-0.1,0-0.2,0.1-0.4,0.2c0.1-0.1,0.2-0.2,0.3-0.3c0.1-1.4,0.2-2.9,0.2-4.7h-1.4c0,4.2-0.3,7-1.4,9.2v-0.9 h-1.5c0,1.3-0.1,2.3-0.3,3.2c0,0,0,0,0,0.1l0,0c-0.2,0.8-0.4,1.5-0.7,2.2v-0.8c-0.1,0-0.1,0-0.2,0h-0.1c0.1-0.5,0.2-1.1,0.2-1.7 h-1.5c0,1.5-0.3,2.5-0.8,3.3c-0.1-0.3-0.1-0.6-0.1-0.7c-0.6-0.1-0.9-0.1-1.5-0.2c-0.3,2.1-0.8,3.4-1.9,5.2v-0.9 c0-1,0.1-1.9,0.2-2.6c-0.5-0.3-0.8-0.4-1.4-0.7c-0.7,2.3-2,4.5-3.3,6.2c-0.2,0.2-0.3,0.3-0.5,0.5c0.2-0.3,0.5-0.5,0.7-0.8 c0.3-1,0.5-1.9,0.6-3.1c-0.6-0.1-0.9-0.2-1.5-0.3c-0.3,2.6-1.2,4.8-2.8,6.5c0.1-0.7,0.1-1.4,0.1-2.2c0-1,0.1-2.1,0.2-2.9 c0,0,0-0.1,0-0.2c0.5-0.9,1.2-2,1.8-3.4c-0.6-0.4-0.8-0.6-1.4-1c-0.4,1.1-1,2-1.4,2.7c0.5,0.3,0.7,0.5,1.2,0.9 c-0.5-0.3-0.7-0.5-1.2-0.9c-0.1-0.1-0.1-0.1-0.2-0.1c-0.1,0.3-0.2,0.5-0.2,1c-0.2,1.1-0.3,2.2-0.3,3.3c0,0.2,0,0.3,0,0.5 c-0.1,1.8-0.1,3.4-0.7,4.2c0.4,0.6,0.6,0.9,1,1.5c0.7-0.5,1.5-1.2,2.2-1.9v0.1c1.5-0.9,3.5-3.2,5.1-6c-0.1,0.8-0.2,1.5-0.5,2 c0.5,0.5,0.7,0.8,1.2,1.3c1.6-2,2.6-3.6,3.3-5.1v1.1c0.5-0.6,0.8-1,1.3-1.6c0.2-0.3,0.5-0.7,0.7-0.9v-3h0.1c-0.1,1-0.1,1.6-0.1,2.7 v2.2c0.5-0.5,0.8-0.7,1.3-1.2c1.2-1.2,1.9-2.6,2.4-4.1c1.6-1.5,2.5-3.4,2.8-5.8c-0.3-0.5-0.4-0.7-0.7-1.2l0,0 c0.3,0.5,0.4,0.7,0.7,1.1c0.1,0.2,0.1,0.2,0.2,0.4c1.4-1.5,2.2-2.7,2.6-5l0,0c1,1.1,2.6,1.9,4.8,1.9v-0.4h2.3 c5.4,0,11.3-1.5,16.9-3.1c5.5-1.6,11.1-3.1,16.1-3.3c5.4-0.2,9.6,1.1,13.2,2.2c2.8,0.8,5.3,1.6,7.6,1.5c3.4-0.2,6.4-4,6.4-8 c0-4.1-4-6-11.9-5.5c-5.7,0.3-10,1.6-14.3,2.7c-3.8,1.1-7.4,2-11.8,2.1c-15.2,0.3-15.9-8.4-15.9-9.3c0-2.6,2-6.8,9.2-6.9 c1.9,0,4.3-0.5,5.7-2.3c0-0.1,0.1-0.2,0.1-0.3c0.2-0.6,1.3-3.3,4.4-5.6c1.4-1.1,3.5-1.3,5.7-1.4c1.9-0.1,4-0.3,5.7-1.2 c-0.9,2-2.6,4.2-4.1,5.2c0.2,0.8,0.3,1.1,0.5,1.9c3.5-1.6,6.5-1.8,8.2-0.5c0.3,0.3,0.5,0.4,0.7,0.7c-2.5-0.6-5.4,0.8-6,1.1 c-1,0.3-1.6,0.7-2.4,1.1c-0.6,0.2-1.1,0.5-1.7,0.8v-0.1h-0.1c-1.5,0-2.2,0.1-3.7,0.1v2c1.4,0,2.2-0.1,3.5-0.1c0,0.1,0,0.2,0.1,0.3 c0.5-0.2,1,0.5,1.6,1.6c0.6,0.8,1.2,1.7,2,2.4c-2.5,1.9-6.1,1.7-10.1-0.4c-0.2-0.1-0.3-0.2-0.6-0.3c-1.8-0.8-4.9-2.2-7.1-2.2 c-6.8,0.1-8.3,2.8-8.3,5c0,4.4,3.7,6.3,12,6.2c3.8-0.1,6.9-0.8,10.2-1.6c3.9-1,8.5-2.2,15.1-2.6c0.5,0,0.7,0,1.2-0.1 c-0.3-0.6-0.4-0.9-0.7-1.5c-0.3-0.5-0.3-1.1-0.2-1.9c0-0.7,0-1.5-0.2-2.5c3.6,0.2,7.7,1.6,9.2,5.5c0.5-0.3,0.7-0.5,1.2-0.8 c-0.2-1.9,0.3-3.9,0.7-5.8c0.4-1.7,0.8-3.5,0.7-5.3c1.9,1,3.5,3.8,3.8,6.4c0.5-0.1,0.8-0.1,1.3-0.2c0-0.4,0.2-0.7,0.6-1.3 c0.3-0.3,0.6-0.7,0.8-1.3c1.8,1.8,2.8,5.2,2.5,8.7c0.5,0.2,0.7,0.3,1.2,0.6c0.5-1.3,1-1.9,1.6-2.3c0.4-0.4,0.8-0.8,1.2-1.5 c0.1,2.9-0.5,7.3-2.4,9.4c-0.1,0.1-0.2,0.2-0.3,0.3c0.3,0.6,0.4,0.9,0.7,1.6c0.1-0.1,0.2-0.2,0.4-0.3c1.9-1.8,4.7-2.4,6.7-0.3 c-1.2,0.3-2,1-2.7,1.7c-0.4,0.3-0.6,0.6-1,0.8c0,0.1-0.1,0.1-0.1,0.1c-5,4.9-13.6,8.4-20.4,8.1c-3.6,0-5.6-0.6-7.4-1.2 c-1.6-0.5-3-0.8-5.3-0.7c0,0.8-0.1,1.2-0.1,1.9c1,0.2,2.4,1.4,4,2.8c2.7,2.3,6,5.2,9.2,4.9s5.5-0.4,6.9-1.2c1-0.6,3.1-0.2,4.7,0.8 c1.3,1.7,3.4,3.1,5.1,3.1c-0.4,1.4-1,2.2-1.9,2.8c-0.6,0.3-0.8,0.5-1.4,0.8c0.5,0.4,0.7,0.6,1.2,1c0.9,0.7,1.1,1.3,1.3,2.2 c0.2,0.7,0.4,1.3,0.8,2.3c-0.5,0.3-1,0.6-1.6,0.4c-0.3,0.7-0.4,1-0.6,1.7c0.6,0.8,0.8,1.7,1.1,2.6c0.2,0.5,0.4,1.2,0.6,1.7 c-0.4,0-0.7,0.1-1,0c-0.3,0.6-0.5,1-0.8,1.6c0.6,1,0.6,2.3,0.6,3.5c0,1.4,0,2.9,0.8,3.8c0.2,0.5,0.2,1,0.1,1.3 c-0.2-0.1-0.4-0.1-0.6-0.1c-0.3,0-0.5,0.2-0.7,0.5c-0.4,0.6-0.6,1.3-0.5,2.2c-0.1,0.3-0.3,0.6-0.5,1c-0.3,0.3-0.6,0.8-0.9,1l0,0 c0.3-0.2,0.5-0.5,0.7-0.9c0.3-0.4,0.4-0.9,0.6-1.3c-0.1-0.6,0.1-1.4,0.5-2c-0.1-0.1-0.3-0.1-0.4-0.2v0.5c-0.5,0-0.8,0.1-1.3,0.1 l0,0c0.4,0,0.7-0.1,1.2-0.1v-0.5c0-1.5,0-2.2,0.4-3.7c-0.5-0.3-0.7-0.4-1.2-0.7c-0.3,1.2-0.4,2-0.5,2.8c-0.2-0.2-0.3-0.4-0.6-0.7 c0.3,1,0.4,1.7,0.6,2.7v0.2c0,0,0,0,0.1,0c0,0.1,0,0.1,0,0.2c0.1,0.4,0.1,1-0.1,1.2c0.1,0.3,0.1,0.6,0.1,0.9c0-0.2-0.1-0.4-0.1-0.6 c-0.3-0.7-0.7-1.3-1.5-1.5c-0.4-0.2-0.8-0.1-1.1,0.2c-0.4,0.4-0.6,1.2-0.6,1.8c0,0.1,0,0.2-0.1,0.2c0,0,0,0,0-0.1 c0-0.9,0.3-1.6,0.7-2c0-0.1,0-0.1,0-0.1v-0.1c0.1-0.1,0.2-0.4,0.4-0.7l-0.5-0.5h0.5c0.1-0.3,0.1-0.4,0.1-0.7 c0.1-1.1,0.3-2.5-0.3-3.3c-0.4,0.6-0.6,0.9-0.9,1.4c0.1,0.3,0,1.2-0.1,1.7c0,0.1,0,0.4-0.1,0.6v0.1c-0.1,0.1-0.1,0.2-0.2,0.5 c-0.2,0.3-0.5,0.4-0.7,0.6c0,0.5-0.1,1-0.3,1.5h-0.1c0.2-0.6,0.3-1.2,0.3-1.7c0-0.4-0.1-0.8-0.2-1.2c-0.7-1-1.5-0.7-2-0.5h-0.2 c0.1-0.1,0.1-0.1,0.2-0.2l0,0c0.1,0,0.1,0,0.1,0v-0.5c-0.1,0-0.2,0-0.3,0.1c-0.2-0.4-0.2-0.7-0.2-1.1c0-0.5,0.3-1.1,0.6-1.6 c0.5-0.4,0.8-0.7,1.2-1.2c0.1,0,0.1-0.1,0.2-0.2l0.7-0.7c0,0,0,0.1,0.1,0.1c-0.4,0.3-0.8,0.8-0.8,0.8s0.6-0.5,0.9-0.9 c1-0.9,1.6-2.5,1.6-4.2c0-1.2-0.4-3.7-1.8-5.5c-1-1.3-2.9-2.7-6-2.2c-6.4,1.1-17-0.8-22.7-3.4c-0.3-0.3-0.5-0.5-0.8-0.7 c-0.2-0.1-0.4-0.3-0.5-0.4c-0.5-0.6-0.7-1-1.2-1.6v0.8c0.3,0.3,0.7,0.4,1,0.7l0,0c-0.3-0.2-0.6-0.4-0.9-0.6c-2.5-1.7-4-3.5-5.2-5.1 c-2-2.4-3.6-4.3-7.3-3.8c0,0.8,0.1,1.2,0.1,1.9c2.8-0.3,3.9,0.6,5.4,2.5c0.2,0.3,0.5,0.5,0.8,0.9c0.1,0.1,0.3,0.3,0.4,0.5 c1.4,1.6,3,3.5,5.6,5.2c-0.1,0.7-0.4,1.4-0.8,2.2c-0.5,1.1-1.1,2.2-1.1,3.9c0,3.7,1.1,6.1,3.3,7.6c-0.4,0.6-0.9,0.9-1.3,0.9 c-0.6,0-1.3-0.4-1.6-1.2c-0.5-1.1-0.8-1.6-1.3-2.7v3.3c0,0.5-0.3,1.2-0.7,1.9c-0.2,0.4-0.5,1-0.7,1.5c-0.2-0.2-0.3-0.5-0.4-0.9 v-0.1c0-1.1,0-2.2,0.4-3.3c-0.5-0.3-0.7-0.5-1.2-0.8c-0.5,1.4-0.6,2.9-0.6,4.1v0.2h-0.1c0-0.1,0-0.1,0-0.3 c-0.8,2.3-2.2,4.3-3.9,5.2c-0.2,0.1-0.5,0.2-0.7,0.3c0.4-1,0.6-2.1,0.9-3.5c-0.6-0.2-0.8-0.3-1.3-0.4c-0.4,2.1-0.7,3.2-1.3,3.7 c-0.1,0.1-0.2,0.1-0.3,0.3c0.2,0.6,0.4,1,0.5,1.6l0,0c-0.2-0.7-0.4-1.1-0.6-1.8c0,0-0.1,0-0.1,0.1c-1.1,1.2-2.4,1.7-3.5,1.4 c-0.4-0.1-0.8-0.3-1.1-0.6c0,0,0,0,0.1-0.1c1.1-0.8,2.1-2.1,3.2-3.7c-0.4-0.5-0.6-0.7-1-1.3c-1.2,1.7-2,2.8-3,3.3 c-0.2,0.1-0.4,0.3-0.6,0.4c0.2,0.7,0.3,1.1,0.4,1.7l-0.1,0.1c-0.2-0.8-0.3-1.2-0.5-1.9c0.2-0.1,0.4-0.3,0.6-0.4 c0-0.1-0.1-0.1-0.1-0.1c-0.3,0.3-0.4,0.4-0.7,0.7c-1.1,1.1-2.7,1.1-3.4,0.1c-0.5-0.7-0.7-1-1.2-1.6v2.3c0,0.5-0.1,0.7-0.3,1.1 c-0.3,0.4-0.8,1.1-1.1,2.7v0.3c0,0-0.1,0.1-0.4,0.4c-0.1-0.4-0.2-0.8-0.5-1.1c-0.4-0.3-0.8-0.3-1.2-0.1c-0.5,0.1-1,0.7-1.1,1.5 c0,0.3-0.1,0.4-0.1,0.7c0,1-0.2,2.4-0.3,3.3c-0.1,0.1-0.3,0.3-0.4,0.5c0.5-0.7,0.5-2.6,0.5-4.7c0-0.3,0-0.5,0.1-0.7 c-0.1-0.4-0.3-0.8-0.3-1.2v-0.1c0.1,0,0.1,0,0.2,0v0.8c0.1,0.4,0.2,0.8,0.3,1.2c0.2-0.8,0.6-1.2,1.1-1.5c-0.1-0.7,0-1.2,0.2-1.5 l0,0l0,0c0.6-0.3,1.1-1,1.5-1.5c-0.4-0.6-0.6-0.9-1-1.3c-0.2,0.3-0.7,1-0.9,1v0.8c-0.2-0.3-0.2-0.4-0.4-0.7 c-0.4,0.4-0.8,0.5-1.1,0.7c-0.2,0.7-0.8,1.1-1.4,1.3c0.5-0.3,1.1-0.7,1.3-1.2c0.1-0.1,0.1-0.4,0.1-0.5c0-1.2-0.5-1.9-1.4-1.9 c-0.5,0-1.1,0.4-1.6,0.9c-0.6,0.6-1.1,1.5-1.4,2.5c-0.2,0.3-0.3,0.6-0.5,1c0-1.6,0.8-3.4,1.7-4.4c0-0.3,0-0.7,0.1-1 c0.1,0,0.2,0,0.4,0c-0.2,0.5-0.2,1.1-0.3,1.5c0.4-0.3,1-0.8,1.5-0.8c0.1-0.1,0.1-0.3,0.2-0.3h0.8v-0.1c0.8,0.2,1.4-0.6,1.5-0.8 c-0.4-0.6-0.6-0.8-1-1.4c-0.1,0.1-0.3,0.3-0.4,0.3c0,0,0,0-0.1,0v0.1c-1.1-0.5-2.2-0.2-2.9-0.4c-0.1-0.1-0.1-0.1-0.1-0.3 c-0.3,0.5-0.9,0.8-1.5,0.5l0,0c-0.1,0-0.2-0.1-0.3-0.1c-1,0-3,1.3-3.5,1.9c0-0.1,0.1-0.3,0.1-0.4c0.6-0.7,2.4-1.8,3.4-1.8 c0.1,0,0.2,0.1,0.3,0.1c0.5,0.5,1.1,0.3,1.4-0.3c0.1-0.3,0.2-0.5,0.2-1c0.5-0.7,0.5-1.2-0.3-1.4c0.5-0.4,1.3-0.9,1.7-0.3 c0.2,0.3,0.4,0.5,0.5,0.7c0.1-0.1,0.2-0.2,0.2-0.3c0,0.1-0.1,0.1-0.1,0.2c0.3,0.4,0.7,1,1.2,1.1c0.1,0,0.3,0.1,0.5,0.1 c0.3,0,0.6-0.2,1-0.4c-0.2-0.7-0.4-1.1-0.6-1.8c-0.4,0.3-0.6,0.1-0.9-0.1l-0.1-0.1c0-0.1,0-0.2,0-0.3c0.1-0.1,0.2-0.2,0.2-0.3 c0.2-0.3,0.2-0.4,0.3-0.5c0,0,0-0.1,0.1-0.1c0.5-0.3,1.7-0.7,2.9,1c1.2,2.5,2.7,2.3,5.4,1.6c2.7,0,6.5-3.6,9.4-6.9 c0.5-0.6,0.7-0.8,1.2-1.4c-0.6-0.2-0.9-0.2-1.5-0.4c-1.6-0.4-3.5-1.2-3.8-3c-0.4-1.8,1.1-4.5,2.7-6.5l0.1,0.1 c0.2,0.1,0.4,0.3,0.7,0.4c0.6,0.2,1.4,0.6,1.6,1c0.3,0.4,0.4,0.6,0.6,0.8c-0.1,0.1-0.2,0.2-0.2,0.3c-1,1.4,0.5,1.9,1.4,1.9 c-0.5,1.9-0.5,2.6,1.9,2.6c-1,1.9,1.8,2.6,1.4,5.2c1.4-2,1.4-4.7,1-6.6c-0.5-1.8-2.8-3-1.5-5.1c-1.3,1.3-2.5,0.3-3.8,1.6 c0.1-0.3,0.1-0.6,0.3-1c0.3-1,1.9-2.6,3.1-3.4c-0.1-0.1-0.3-0.3-0.4-0.5c-0.3-0.3-0.5-0.7-0.8-0.9c-1,0.7-2.1,2-2.8,3.1 c-0.4-0.3-0.8-0.5-1.3-0.8c-0.4-0.3-0.7-0.4-1-0.7c-0.2,0.6-0.3,0.9-0.5,1.4l0,0c0.2-0.7,0.4-1.1,0.6-1.8c0.3,0.3,0.7,0.4,1,0.7 c0.1-0.1,0.1-0.2,0.2-0.3c-0.5-0.2-0.8-0.3-1.4-0.5c-2-0.7-5-0.6-7.1,0.8c-1,0.7-2.1,1.5-3.1,2.3c-8.6,6.3-17.7,12.6-23.7,10.7 c0,0.1,0,0.4,0.1,0.6h-0.1c0-0.1,0-0.2-0.1-0.2c-0.1-2.1,0.7-4.5,3.1-5.4c-0.2-0.8-0.3-1.2-0.5-1.9c-3.3,1.5-4.5,5.1-4,8.2 c0,0.1,0,0.1,0,0.1h0.1c0.1,0.8,0.2,1.6,0.5,2.4c-1.4-0.2-3.1-0.5-3.7-1.6c-0.3-0.6-0.4-0.8-0.7-1.4c-0.3,0.6-0.4,0.9-0.6,1.5 c-0.4,1.1-1.1,3.1-1.1,5.5c-1.4-0.9-3.1-1.7-4.1-2.2c-0.3,0.7-0.4,1-0.7,1.6c0.3,0.4,0.2,1.4,0.2,2.3v0.7c-1.6-1.4-3.6-2-4.8-0.7 c-0.6,0.8-1.8,1.3-2.9,1.1c0.1-0.3,0.1-0.7,0.1-0.9c0.1-0.8,0.2-1.4,0.4-2c-0.6-0.3-0.8-0.5-1.4-0.9c-0.3,0.8-0.4,1.6-0.5,2.6 c-0.1,0.6-0.2,1.1-0.3,1.6l-0.1-0.1c-0.6,1.2-1.6,2.3-2.7,2.9c0-1.4-0.2-2.5-0.8-3.2c-0.3-0.5-0.5-0.7-0.9-1.1 c-0.2,0.6-0.3,0.9-0.4,1.5c-0.3,1.4-1.3,3.1-2.7,4.4c0-1.1-0.2-2.3-0.5-3.3c-0.6,0.1-0.9,0.2-1.5,0.3c0,1-1.2,1.9-2.2,2.7 c-0.1,0.1-0.3,0.3-0.4,0.4c0.1-1,0.1-1.8,0.1-2.5v-3.3c-0.6,1.1-0.9,1.6-1.4,2.7c-0.9,1.6-2,2.8-3.2,3.4c0.2-0.8,0.2-1.8-0.1-2.7 c-0.4-1-0.6-1.4-1-2.4c-0.2,1-0.3,1.5-0.5,2.6c-0.3,1.6-2.4,2.8-4.6,2.5c-0.1,0.3-0.2,0.5-0.2,0.8c-0.1,0-0.1,0-0.2,0 c0-0.2,0.1-0.4,0.2-0.6c0.1-0.4,0.3-0.8,0.6-1.2c0.3-0.6,0.6-1.1,0.8-1.5c-0.6-0.4-0.9-0.5-1.4-0.9c-0.1,0.4-0.3,0.8-0.6,1.2 c-0.3,0.6-0.6,1.2-0.8,1.8h-0.1v0.2c-0.1,0.4-0.2,0.7-0.2,1.1c0.1,0,0.1,0,0.2,0c0,0.2-0.2,0.5-0.6,0.7c-0.2,0.1-0.6,0.2-1.1,0.4 c0.1,0.6,0.1,1.2-0.2,1.9h0.1c0.4,0,0.7-0.1,1-0.1c-0.3,0.1-0.8,0.2-1.3,0.1c0.2-0.8,0.2-1.4,0.1-2s-0.3-1-0.7-1.1 c-0.3-0.4-1.6-0.6-2.2-0.3c-0.3,0.1-0.4,0.4-0.4,0.8c-0.1,0.3-0.2,0.5-0.3,0.9c-0.6,1.4-1.3,2.2-2.1,1.8c0.7,0.1,1.4-0.6,1.8-1.9 c-0.7-0.6-1.2-1.4-1.4-2.4c-0.1-0.4-0.1-0.7,0-1.1c-0.8-0.3-1.4-0.9-2-1.6h0.2c0.6,0.7,1.2,1.3,2,1.6v1.1c0.2,0.8,0.7,1.8,1.4,2.4 c0.1-0.3,0.2-0.5,0.3-0.9s0.3-0.7,0.6-0.8c-0.3-0.3-0.6-0.7-0.7-1.1c0-0.3,0-0.5,0.2-0.7c0.1-0.1,0.1-0.1,0.2-0.2h0.1 c0.1-0.1,0.1-0.1,0.2-0.1c0,0,0.1,0,0.1-0.1c1.2-0.9,2.7-2.2,3.3-3.5c-0.6-0.4-0.9-0.5-1.4-0.9c-0.3,0.9-1.7,2-2.7,2.6 c-0.3,0-0.7,0.2-0.8,0.5c-0.2,0.3-0.3,0.6-0.3,1c-0.1,0-0.1,0-0.2,0c0-0.4,0.1-0.7,0.3-1.1c-0.3-0.2-0.7-0.4-1-0.7l0,0 c0.1-0.3,0.1-0.5,0.1-1c0.4-1.1,0.1-1.8-0.7-2.4c0,0,0,0,0.1,0c0.1-0.1,0.1-0.4,0.2-0.5c-0.1,0-0.3,0-0.4,0.1 c-0.2-0.8-0.3-1.2-0.6-2h0.1c0.2,0.7,0.3,1.2,0.6,1.9c0.1,0,0.2-0.1,0.4-0.1c0.3-0.1,0.7-0.1,1.2,0c0.3,0,0.7,0.2,0.9,0.2 c0.7,0,1.3-0.1,1.9-0.9c-0.4-0.6-0.7-0.9-1.1-1.4c-0.3,0.4-0.8,0.4-1.6,0.2c-0.6-0.2-1.2-0.2-1.9-0.1c0,0-0.1,0-0.2,0 c-0.6-0.6-0.8-1.3-0.8-1.9c0-0.3,0-0.7,0.1-1c-0.4-0.2-1-0.3-1.4-1c-0.2,0.7-0.3,1.4-0.3,2.2c0.1,1.2,0.6,2.4,1.3,3.2 c0,0,0,0.1-0.1,0.1c-0.1,0.2-0.1,0.4-0.2,0.6c-1.9,0.5-3.1,3.4-3.4,6.1c-0.2,0.3-0.3,0.6-0.4,1c0-2.9,1.2-6.5,3.6-7.1 c0.1-0.3,0.1-0.5,0.2-0.8c0,0,0-0.1,0.1-0.1c-0.8-0.9-1.2-2-1.3-3.2c-0.1-0.7,0-1.5,0.3-2.2c0-0.1-0.1-0.1-0.1-0.3 c-0.5-1.1-2-1.8-3.1-1.7c1.1-0.3,2.9,0.5,3.4,1.7c0,0.1,0.1,0.1,0.1,0.3c0.4,0.8,1,1.1,1.4,1.1h0.6c0.3-0.4,1-0.9,1.1-1.6 c0-0.1,0.1-0.2,0.1-0.4c0,0.2,0,0.4,0,0.6c0.4,0,0.9,0,1.2,0.1c-0.1-0.1-0.2-0.1-0.2-0.3c0.1-0.1,0.1-0.2,0.2-0.3 c0.1,0.1,0.1,0.2,0.1,0.2c0.2,0.3,0.6,0.4,0.8,0.6c0.1,0.5,0.2,0.5,0.4,0.8c0,0.1,0.1,0.1,0.1,0.1c2.2,2,4.5,3,7.2,3.1 c1.2,0.1,2.5-0.2,4-0.5c0,0.1,0,0.1,0,0.2c0.6,0,1-0.2,1.3-0.3s0.7-0.2,1.1-0.2c0.1,0,0.1,0,0.2,0c2.7-1,7.7-3.4,11.5-6.5 c0.1-0.7,0.2-1.2,0.3-1.8c0.1-0.3,0.1-0.5,0.2-0.8h0.1c-0.1,0.3-0.1,0.5-0.2,0.8c-0.1,0.5-0.2,1.2-0.3,1.8 c-0.4,1.3-0.7,2.8-1.1,3.1c0.3,0.7,0.4,1.1,0.6,1.8c2.9-1.8,5.2-3.9,6.6-6.3c0.4-0.8,0.9-1.6,1.2-2.6c0.4-1.2,0.7-2.6,0.9-4.1 c-0.6-0.1-0.9-0.2-1.5-0.3c-0.3,3.8-2.1,7.1-5.4,9.8c0.2-0.8,0.4-1.8,0.5-2.7c0.1-0.3,0.1-0.5,0.2-0.8h-0.1c0.4-1.8,0.5-3,0.5-4.3 l0.1-0.1c1.3-1.1,2.9-3,4.1-5.8c-0.6-0.3-0.8-0.5-1.4-0.9c-1.1,2.7-2.7,4.4-3.9,5.3c0.3,0.7,0.5,1,0.9,1.7l0.1-0.1 c-0.1,0.1-0.1,0.2-0.2,0.2c-0.3-0.7-0.5-1-0.9-1.7c-1.3,0.7-2.6,1.6-3.6,2.5c0,0,0,0,0-0.1c0.5-3.8,1.9-6.6,5.3-10.1 c-0.4-0.6-0.6-0.9-1-1.5c-1.8,2-3.2,3.7-4.1,5.7c-0.5,1.1-1,2.3-1.3,3.5c-0.2,0.7-0.3,1.4-0.4,2c0,0.3-0.1,0.5-0.1,0.8 c0.5,0.1,0.8,0.2,1.2,0.3c0,0.1,0,0.2,0,0.3c-0.6-0.1-0.9-0.2-1.5-0.3c0-0.3,0.1-0.5,0.1-0.8c-0.8,0-1.5-0.3-2.4-0.4 c-0.3,0-0.7-0.2-1-0.2c0-0.1,0.1-0.3,0.1-0.4c0.2-0.8,0.7-2.2,1.1-2.4c-0.2-0.7-0.3-1.1-0.5-1.8c-2,0.5-4,0-5.9-0.5 c0.3-0.8,0.4-1.8,0.7-2.6c0.1-0.5,0.2-1.1,0.3-1.8c0.2-0.9,0.3-1.3,0.5-2.2c-0.7,0.4-1.1,0.6-1.8,1c-0.3,0.1-1.2-0.1-1.9-0.2 c-0.8-0.2-1.5-0.3-2.4-0.4c0.4-1.3,0.9-2.7,1.8-3.1c-0.2-0.8-0.3-1.2-0.4-1.9c-1.3,0.3-3,0.1-5-0.7l1-1c0.6-0.7,1.1-1.2,1.5-1.2v-2 c-2.8-0.1-4-1.3-5.2-2.6c0.2-0.1,0.3-0.3,0.6-0.2c0.6-0.2,1-0.6,1.5-0.6c0.1-0.8,0.1-1.1,0.2-1.9c-1-0.5-2.4-2.2-2.8-3.6 c-0.1-0.3-0.1-0.4-0.1-0.6h-0.6v-1.1c-0.2-0.2-0.3-0.3-0.6-0.6c-0.2,0.3-0.3,0.5-0.6,0.8c-0.3,0.5-0.8,1.2-1.3,1.6 c-0.4,0.3-1.2,0.1-2.1-0.5c0-0.1,0.1-0.2,0.1-0.3c0.4-0.8,0.4-1.8,0.1-2.6c-0.6-1-1.2-1.7-1.8-1.7c-0.1,0-0.1,0-0.2,0 c0.1,0,0.2,0,0.4,0c0-0.3,0.1-0.4,0.1-0.5c0.2-0.7,0.7-1.1,1.2-1.2h-0.1v-0.2c0.4,0.2,1.7,0.6,2.6,1.8c0.4-0.5,0.6-0.7,1.1-1.3 c-1.1-1.4-2.8-2.3-3.7-2.4l0,0h0.1c-0.8-0.2-1.3-0.8-1.6-1.6c0-0.1,0-0.3-0.1-0.5c0.1,0,0.1,0,0.2,0c0.4,0,0.9-0.2,1.4-0.9 c0.7-0.8,0.9-1.6,0.8-2.4c0.3,0,0.4,0,0.7,0.4C854.26,558.29,854.36,558.29,854.36,558.29z M909.57,594.09 c-0.1,0.1-0.1,0.1-0.2,0.2l0,0C909.47,594.29,909.47,594.19,909.57,594.09z M993.77,623.89c-0.2,0.3-0.4,0.4-0.5,0.7 c0,0.1-0.1,0.4-0.1,0.6l0,0v-0.1c0-0.2-0.1-0.4-0.1-0.6c0.6-1.3,0.6-2.9,0-4.2c-0.1-0.1-0.1-0.2-0.2-0.3c-0.4-0.2-0.4-0.9-0.4-2.3 c0-0.8,0-1.8-0.2-2.9c0.4,0,0.8-0.2,1.1-0.2l0,0c0.1,0.6,0.1,1.3,0.1,2c0,1.4,0,1.9,0.4,2.3c0.1,0.1,0.1,0.2,0.2,0.3 C994.77,620.59,994.67,622.39,993.77,623.89z M994.07,627.69c-0.2,0.1-0.3,0.2-0.5,0.2c-0.4-0.5-0.8-1.6-0.5-2.1 C993.07,626.59,993.77,627.79,994.07,627.69z M992.97,610.19c-0.2-0.5-0.3-0.9-0.5-1.5c0.4-0.2,0.6-0.3,0.9-0.5 c0.1-0.1,0.2-0.1,0.3-0.2c0.1,0.4,0.3,0.8,0.3,1.1c0.4,1.1,0.6,1.9,1.2,2.4c0.7,0.6,1.1,1,1.8,1.6c-0.8,0.1-1.3,0.1-2,0.2 c-0.2-0.2-0.5-0.4-0.8-0.7C993.67,612.09,993.37,611.19,992.97,610.19z M993.37,595.49c-1.5,0.7-3.9-0.7-5-2.6 c-0.1,0-0.1-0.1-0.2-0.1c-1.7-1.1-4.2-1.8-5.8-0.9c-1.2,0.6-3.4,0.8-6.5,1c-2.8,0.2-6-2.5-8.6-4.7c-0.3-0.3-0.6-0.5-0.9-0.8 c0.4,0.1,0.8,0.2,1.2,0.3c0.6,0.2,1.3,0.4,2.1,0.6c2.3,1.9,4.8,3.7,7.2,3.5c3.1-0.2,5.2-0.4,6.5-1c1.7-1,4.2-0.2,5.8,0.9 c0.1,0,0.1,0.1,0.2,0.1c1.3,1.8,3.7,3.2,5,2.6c0.4-0.2,0.7-0.3,1.1-0.5c-0.1,0.7-0.2,1-0.3,1.7c-0.4,2.2-1,3.7-2,4.7 c0.5,0.8,0.7,1.4,0.9,2.1c0.2,0.8,0.4,1.6,1.3,2.6c0.6,0.7,0.9,1,1.5,1.6c-0.7,0.1-1.1,0.1-1.8,0.2l0,0c-0.2-0.2-0.4-0.4-0.7-0.7 c-0.9-1-1.1-1.8-1.3-2.6c-0.2-0.7-0.4-1.5-0.9-2.1c1-1.1,1.6-2.6,2-4.7c0.1-0.7,0.2-1,0.3-1.7 C994.07,595.19,993.77,595.29,993.37,595.49z M986.27,622.89L986.27,622.89L986.27,622.89 C986.37,622.89,986.27,622.89,986.27,622.89z M985.67,622.99L985.67,622.99L985.67,622.99L985.67,622.99z M980.77,621.79 c0.1,0.4,0.3,0.7,0.5,1c-0.3-0.2-0.5-0.5-0.6-1c-0.3,0-0.5,0-0.7-0.1c0.2-0.8,0-1.7-0.4-2.3c-0.4-0.5-0.7-0.6-1.2-0.6 c-0.1,0-0.2,0-0.3,0.1c0.1-0.1,0.2-0.1,0.3-0.2c0-0.1,0-0.3,0-0.3c0.1-0.4,0.5-0.9,0.9-1.2c0.8-0.6,1.9-0.7,2.1-0.4 c0.1,0.1,0.3,0.1,0.4,0.2c0.5-0.4,0.7-0.7,1.1-1l0.2-0.2c-0.4,0.5-0.7,0.8-1.1,1.3c-0.8,0.9-1.3,2-1.4,3.1 C980.57,620.69,980.57,621.29,980.77,621.79z M977.47,616.89c0.3-0.7,0.8-1.3,1.5-1.8c1.1-0.8,2.5-1,3.3-0.5c0.6,0.4,1,0.6,1.3,0.6 c0.2-0.3,0.5-0.4,0.7-0.7c0.3-0.2,0.5-0.6,0.6-0.9c-0.1,0.6-0.3,1.1-0.6,1.4c0-0.1-0.1-0.2-0.1-0.3c-0.3,0.3-0.6,0.5-0.7,0.7 l-0.2,0.2c-0.3,0-0.7-0.1-1.3-0.6c-0.7-0.5-2.1-0.3-3.3,0.5C978.17,615.89,977.77,616.29,977.47,616.89z M956.17,613.29 c0.3,0.2,0.5,0.2,0.8,0.4c-0.1,0.3-0.2,0.5-0.3,0.7c-0.2-0.1-0.4-0.2-0.7-0.3c-2.2-1-3.2-2.9-3.2-6.2c0-0.5,0.1-1,0.3-1.4 c0,0.2-0.1,0.4-0.1,0.6C952.97,610.39,953.97,612.29,956.17,613.29z M922.27,613.79c-0.4-0.9-1-1.8-1.9-2c0.9,0,1.6,1,2.1,2 c0,0,0,0.1,0.1,0.1c-0.1,0.7,0.4,1.3,0.9,1.3c-0.5,0-1.1-0.5-1.1-1.3C922.37,613.89,922.37,613.79,922.27,613.79 c-1.1-0.3-2.2,0.5-2.9,1.3c0,0.1-0.1,0.2-0.1,0.3l0,0c0-0.1,0.1-0.2,0.1-0.3C919.97,614.29,921.17,613.29,922.27,613.79z M919.37,611.99c0.8-0.8,1.7-1,2.5-1c-0.7,0-1.5,0.3-2.2,0.9C919.57,611.89,919.47,611.89,919.37,611.99z M907.77,615.89h-0.5 c-1.3,0-3.4-0.1-4.8-1c0-0.1,0.1-0.2,0.1-0.3C904.07,615.89,906.47,615.89,907.77,615.89z M900.97,620.49c-0.1,0.1-0.2,0.2-0.3,0.3 c-0.5-0.7-2-1.6-3.3-2.2c0-0.1,0-0.1,0-0.2C898.66,618.99,900.16,619.79,900.97,620.49z M895.86,622.99c-0.1,0.1-0.2,0.1-0.3,0.2 c-1-1.3-2.3-2.1-3.2-2.2C893.16,620.79,894.76,621.59,895.86,622.99z M882.06,624.29v2.3c-0.1,0.1-0.3,0.1-0.5,0.2v-1.8 C881.76,624.79,881.86,624.49,882.06,624.29z M877.36,625.19v3.3c-0.2,0.1-0.3,0.1-0.5,0.2v-3 C877.06,625.49,877.16,625.39,877.36,625.19z M873.06,628.19c0.1,0,0.3,0.1,0.4,0.1c0,0.1-0.1,0.1-0.1,0.2 c-0.3-0.1-0.5-0.2-0.8-0.3s-0.5-0.2-0.8-0.3c0.1-0.5,0.2-0.9,0.3-1.4c0.2-0.2,0.4-0.4,0.5-0.6c-0.1,0.7-0.2,1.4-0.3,2 C872.56,627.99,872.76,628.09,873.06,628.19z M867.76,626.79c0,0.1-0.1,0.3-0.1,0.3c-0.3,0.7-0.5,1-0.8,1.6c-0.2,0-0.3,0.1-0.5,0.1 c0.3-0.7,0.5-1,0.8-1.6C867.36,626.99,867.56,626.89,867.76,626.79z M856.36,631.49c-1.1,0-2.2-0.5-2.8-2.1 c0.1,0.1,0.2,0.1,0.3,0.2C854.46,630.89,855.36,631.39,856.36,631.49z M856.36,623.89c0.1,0,0.1-0.1,0.2-0.2c0.1,0,0.1,0,0.2,0 c0,0,0,0.1-0.1,0.2c0,0,0,0-0.1,0C856.46,623.89,856.46,623.89,856.36,623.89z M849.46,565.19c0.2-0.5,0.4-0.9,0.8-1.3 c-0.6-0.6-1-1.3-1.1-2.1c-0.2-0.7-0.2-1.5,0-2.2c-0.1-0.1-0.1-0.3-0.2-0.6c-0.1-0.3-0.3-0.5-0.5-0.7c0.5,0.2,0.9,0.5,1.2,1.1 c0.1,0.1,0.1,0.3,0.2,0.6c0.1,0.2,0.1,0.3,0.3,0.5c-0.2-0.2-0.4-0.4-0.6-0.7c-0.1,0.7-0.1,1.5,0,2.2c0.2,0.8,0.6,1.5,1.1,2.1 c-0.3,0.4-0.6,0.8-0.8,1.3c-0.3,1.1-0.4,2.3-0.3,3.5c0.1-0.1,0.1-0.3,0.2-0.4c0.1-0.3,0.3-0.5,0.4-0.7c-0.1,0.2-0.2,0.5-0.3,0.8 c-0.1,0.1-0.1,0.3-0.2,0.4c-1.1,2-2.5,1.4-3.5,0.8c0.9,0.5,2.1,0.6,3-1.1C849.06,567.49,849.06,566.19,849.46,565.19z M848.06,572.19c-0.9-0.4-1.8-1.3-2.5-2.8c0.2,0.1,0.3,0.2,0.5,0.3C846.66,570.89,847.36,571.69,848.06,572.19z M850.76,607.99 c-1,0.2-2.1,0.7-3.2,1.6c-0.2,0-0.3,0.1-0.5,0.1C848.26,608.59,849.56,607.99,850.76,607.99z M861.36,608.09 c-0.8-1.4-1.9-2.3-2.9-2.4c0.1,0.1,0.1,0.4,0.1,0.9c0.2,0.3,0.2,0.6,0.1,1c0.7,0.3,1.3,1,1.9,2.4c0.6,1,1.7,2.5,3,3.6 c-2-0.3-3.7-1.1-5.5-2.7c-0.3-0.4-0.7-0.6-0.9-0.9c-0.1-0.1-0.2-0.1-0.3-0.3h-0.1c0-0.5,0.1-0.8,0.3-1.2c-0.3-0.2-0.7-0.5-1.1-1 c0.4,0.4,0.8,0.7,1,0.8s0.3,0.2,0.4,0.2c0.6-0.4,1-0.6,1.2-1c0.1-0.3,0.1-0.5-0.1-1c0-0.4-0.1-0.8-0.2-1.1c0-0.1-0.1-0.1-0.1-0.2 C859.36,605.39,860.66,606.39,861.36,608.09z M858.76,585.39c0.1-0.8,0.2-1.1,0.3-1.9c0.7,0,1.4-0.6,2-1.2c0.2,0.1,0.4,0.2,0.6,0.2 c0,0,0,0-0.1,0.1c-0.7,0.8-1.3,1.4-2.2,1.4c-0.1,0.7-0.2,1-0.3,1.6C858.96,585.49,858.86,585.49,858.76,585.39z M867.56,613.09 L867.56,613.09c0.5,0,0.8-0.1,1.2-0.2c0.4-0.1,0.9-0.4,1.4-0.3c2-0.7,5.1-2.2,8-4v0.5c0.2-0.3,0.3-0.6,0.4-0.8 c1.5-1,2.9-2.1,4.1-3.3c0.1-0.7,0.2-1.2,0.3-1.8c0.1-0.1,0.2-0.2,0.3-0.2c0,0.7-0.1,1.5-0.3,2.5c-3.6,3.6-9.4,6.5-12.5,7.6 c-0.5,0-1,0.2-1.4,0.3c-0.3,0.1-0.6,0.2-0.9,0.2c0-0.1,0-0.2-0.1-0.4c-0.5,0.1-1,0.2-1.5,0.3c-1.9-0.6-3.9-2.9-4.6-4.3 C863.06,610.99,865.66,613.59,867.56,613.09z M862.56,592.69c0.3-0.9,0.4-1.4,0.7-2.3c0.2-0.8,0.5-1.8,0.8-2.7 c0.2,0,0.3,0.1,0.5,0.1c-0.4,0.9-0.8,2-1,3.1c-0.2,0.7-0.3,1.1-0.5,1.7C862.86,592.59,862.76,592.69,862.56,592.69z M866.46,597.39 c0.4-0.5,0.6-0.7,1-1.2c0.5-0.7,0.8-1.7,1-2.9c0.1,0,0.3,0,0.4,0c0,0.1,0,0.3-0.1,0.4c-0.2,1.2-0.4,2.2-1,3 c-0.3,0.4-0.5,0.6-0.8,0.9C866.86,597.49,866.66,597.49,866.46,597.39z M871.46,603.29c0.5-0.6,0.8-1,1.3-1.6 c0.1-0.1,0.3-0.8,0.4-1.2c0.1-0.3,0.2-0.6,0.3-0.9c0.1,0,0.3,0,0.4,0c-0.2,0.4-0.3,0.9-0.4,1.4c-0.1,0.4-0.3,1.1-0.4,1.2 c-0.4,0.4-0.6,0.8-0.9,1.2C871.96,603.39,871.76,603.29,871.46,603.29z M877.86,608.59v-3.9c0.1,0,0.2,0,0.3,0.1v3.2 C878.06,608.19,877.96,608.39,877.86,608.59z M856.86,576.69c-0.2,0.6-0.3,1-0.5,1.5c-0.1-0.1-0.3-0.2-0.4-0.2 c0.2-0.7,0.3-1.1,0.6-1.8c0.6,0.3,1,0.1,1.8-0.5h0.1c0.1,0.1,0.3,0.3,0.4,0.4c-0.1,0-0.2,0.1-0.2,0.1 C857.86,576.59,857.46,576.79,856.86,576.69z M857.86,604.59c-1.1-1.6-3.4-1.8-5-1.1c-0.1,0-0.3-0.1-0.4-0.1 C854.16,602.49,856.76,602.79,857.86,604.59z M855.16,606.19c0-0.3-0.1-0.5-0.2-0.8c0.2,0.3,0.3,0.7,0.3,1c0.1,0.3,0.2,0.4,0.3,0.7 c0.1,0.1,0.1,0.1,0.2,0.2c-0.3,0.7-0.6,1.3-0.6,2.2c-0.3,0-0.7,0-1.1,0.1c-0.1-0.1-0.1-0.2-0.2-0.3c0.3,0,0.7-0.1,1-0.1 c0.1-1,0.3-1.6,0.6-2.3C855.36,606.79,855.26,606.49,855.16,606.19z M852.96,555.39c0.4,0,0.8,0.1,1.1,0.3c-0.2,0-0.4,0-0.5,0 c-0.3,0-0.6,0.1-0.9,0.2c-0.1-0.1-0.2-0.2-0.3-0.3c0,0-0.1,0-0.1-0.1C852.46,555.49,852.76,555.39,852.96,555.39z M851.66,555.19 c0.1,0.1,0.1,0.1,0.2,0.2c-1.6-0.5-4,0.1-5.6,2.4c-0.4,0.1-0.7,0.2-1.1,0.3C846.76,554.89,849.96,554.39,851.66,555.19z M835.56,697.99c-0.3-2.6-0.5-5.2-0.6-7.9c0.2,2.5,0.4,5,0.6,7.6c5.6,0.5,10,0.3,18.2,9.2c3.4,3.6,7.8,5.2,12.3,5.4 c0.4-1.6,0.6-2.4,1-3.9c-8.9-8.5-17.8-16.9-26.7-25.4c10.9,0.7,21.9,1.3,32.8,1.8c1.1-4.3,1.7-6.4,2.8-10.7 c-8.9,2.9-16.7,2.6-23.3-4.9c-7.2-8.6-10.9-11.6-18.5-10.5v-34.4h0.1c11.8,0.7,17.1,3.7,23.3,11.1c6.7,9.4,18,10.9,25.7,1.2 c8.6-9.6,22.4-10.2,29.9,0.8c5.5,8,12.3,13.3,17.1,13.3c4.3,0,10.9-5.3,16.6-13.3c6.2-10.6,19.1-10.3,26.6-1.1 c9.5,11.8,16.5,6.1,21.8-1.7c5.1-7.5,9.3-10.7,18.6-12v42.5c0,10.3-0.3,20.7-1,31c-0.6,10.2-1.8,20.4-3.4,30.5c0,0.1,0,0.1,0,0.2 c-5-0.7-7,4.4-9.6,7.2c-1.6,1.7-3.6,3-5.7,4c0.7,3.1,1,4.6,1.6,7.7c-2.6-2.5-3.8-3.8-6.4-6.4c-3.5,0.3-7.4-0.6-11.7-3.3 c-3.7-2.5-7.1-4.5-10.3-5.4c-6.6,7.2-9.9,10.8-16.6,17.8c1.3-5.9,2-8.8,3.3-14.6c-0.3,0.3-0.7,0.4-1,0.7c-5.5,4.6-11.6,8-17.2,9.4 c1.3,5.6,2,8.4,3.3,14c9.5-0.1,19.1-0.4,28.6-0.9c-2.6,2.9-3.9,4.3-6.6,7.2c4.9,0.9,10.1,3.2,14.8,6.1c9,5,13.9,4.9,21.8,1.2 c-2.1,5.5-4.4,10.7-6.9,15.7c-3.8,7.2-7.9,13.8-12.3,19.8c-3.1-1.2-5.1-0.2-7.9-3.1c-3-3-11.9-3.9-20.1,2.1 c1.3,5.5,1.9,8.3,3.2,13.8l-9.5-9.5c-5.4,3.1-8.8,4-13.9,4c-5.2,0-8.6-0.8-14.3-3.9c-4,3.8-6.1,5.8-10.2,9.6 c1.4-5.5,2.1-8.3,3.4-13.8c-8.7-5.9-18.8-4.9-22.2-1.8c-3.2,2.9-5.7,2-9.3,3.1c15.7,16.4,33,29.8,52.5,41.3l0,0 c-19.6-11.5-36.9-25-52.6-41.3c-5.2-5.8-10.3-12.4-14.8-19.5c-3.2-5-6-10.2-8.6-15.7c10,3.4,15.8,3.6,26.4-1.8 c5.3-2.9,11.2-5.3,16.7-6.3c-2.9-2.8-4.4-4.2-7.3-7.1c10.3,0.4,20.6,0.6,30.9,0.7c1.3-5.6,2-8.4,3.3-14c-5.8-1.4-12.1-4.8-18.1-9.3 c-0.4-0.3-0.7-0.6-1-0.7c1.4,5.8,2.1,8.8,3.5,14.6c-7.2-7-10.9-10.5-18.2-17.6c-3.7,1-7.7,3-12.4,5.6c-4.7,2.8-9.3,3.7-13.3,3.6 c-3.1,2.6-4.6,4-7.7,6.6c0.8-3,1.2-4.5,2-7.6c-2.5-0.8-4.9-2.2-6.8-3.8c-3.1-2.8-5.8-8-12.4-6.8l0,0 C837.76,718.39,836.36,708.09,835.56,697.99z M819.26,739.19c3-3.3,7.7-6.6,12.2-6.2c2,0.1,4,1.1,5.8,3c1.7,1.8,3.1,3.9,4.2,6.1 c0,0.1,0.1,0.3,0.1,0.4c-1-2.1-2.5-4.4-4.3-6.4c-1.7-2-3.6-2.8-5.8-3c-4.5-0.3-9.3,3-12.2,6.2c-5.7,5.7-7.1,12.6-5.7,19.4 C812.06,751.89,813.46,744.89,819.26,739.19z"/>
    <path d="M888.96,566.29L888.96,566.29L888.96,566.29L888.96,566.29z"/>
    <path d="M1022.68,838.49c6.3-10.4,11.6-20.6,16.7-31.6c0.3-0.7,0.6-1.5,0.9-2.1c3.7-8.5,6.9-17.4,9.6-26.3 c3.2-8.9,3.1-20.3-5.8-25.8c-2.6-1.3-5.5-3.6-8.4-6.3c-3-2.9-5.8-6.3-8-9.2c1.8,2.6,3,5,3.7,7.5c0-0.1-0.1-0.3-0.1-0.4 c3.9,4.3,8.4,8.4,12.2,10.3c7.2,4.6,8.8,11.8,5.2,23.2c-18.1,54-54.4,116.8-118.71,117c-65.91,0.3-115.71-57.7-140.91-113.2 c-4.7-11.1-2.6-18.4,6.8-23.7c5.2-2.2,11.5-6.7,16.4-11.2c-0.1,0.4-0.3,0.8-0.4,1.2c0.9-2.9,2.5-5.8,5.1-8.8 c-0.2,0.3-0.5,0.5-0.7,0.8c-2.3,2.8-5.8,6.1-9.6,9.1s-7.9,5.6-11.5,7.1c-10.3,5.1-12.3,16.5-7.5,26.3c3.7,8.7,8,17.5,12.8,25.7 c0,0,0,0.1,0.1,0.1c-1.9,0-4-0.3-6.2-1.2c-2.2-0.7-4.5-2-6.9-3.8c-2.2-1.6-4.4-3.6-6.7-6.1c-0.1-0.1-0.2-0.2-0.3-0.4 c0-0.1-0.1-0.2-0.1-0.2c-0.9-2.7-1.7-5.1-2.5-7.2c-3-8.9-8.9-18.7-15.4-16.5c-6.7,2.2-6.1,8.3-4.4,14.5 c2.4,14.4,4.7,30.2,11.1,43.5c0,0.1,0,0.1,0,0.1c0.1,0,0.1-0.1,0.2-0.1c0.6,1.7,1.7,3.6,3,5.3c2.4,3,5.9,5.8,9.9,7.9 c3,1.7,8.4,3.9,15.5,4.6c6.3,0.6,14.1-0.3,22.5-4.2c1.4-0.7,2.8-1.4,4.3-2.3c0.1,0,0.1,0,0.1-0.1c0,0,0,0,0.1,0.1 c27.5,29.2,63.81,54.1,105.31,54.5c39.3,0.3,69.91-26.4,91.41-56.7C1021.98,839.59,1022.38,839.09,1022.68,838.49z M764.25,774.39 c0.2,0,0.3,0,0.5,0c5.1,0.5,9.5,9.6,11.5,15.4c1,3,2.3,6.7,3.7,10.8c2.2,6.1,4.7,13.6,7.6,21.9l-0.1-0.1 c-2.8-8.3-5.4-15.7-7.6-21.8c-1.4-4.1-2.7-7.7-3.7-10.8c-2-5.8-6.5-14.9-11.5-15.4C764.55,774.39,764.35,774.39,764.25,774.39z M768.75,825.49c0-0.1,0-0.1-0.1-0.2c0.2-1.9,1.1-3.5,2.5-4.8c1.4-1.2,3.2-1.8,5.2-1.9c-2,0.1-3.7,0.7-5.1,1.9 C769.85,821.69,768.95,823.39,768.75,825.49z M823.46,840.79c-13.8,5.8-26.6,8.9-40.6,1.6c-6.1-3.3-10.8-8.2-12.2-12.6l0,0 c-0.9-3.4-0.3-6,1.6-7.7c2.9-2.5,9.1-2.4,16.5,3.5c0.8,0.7,1.2,1,2.1,1.7c-0.4-1.1-0.6-1.7-0.9-2.8c-3.1-9.1-6-17.3-8.3-24.1 c7.4,7.3,14,9.7,19.9,9.7c6.8,10.8,13.8,20.6,21.7,30.5c0.4,0.3,0.7,0.7,1,1C824.06,841.39,823.76,841.09,823.46,840.79z"/>
    <path d="M800.26,784.59c3.7-2,5.6-3.1,9.3-5.1c1.1-0.6,1.6,0.1,2.2,0.9c-0.9-2.4-1.3-3.6-2.2-6.1h-0.6c0,0.7,0.6,2-0.6,2.6 c-1.7,0.6-2.6,0.9-4.3,1.6c-0.6-1.6-1-2.5-1.6-4.1c1.6-0.9,2.3-1.4,3.9-2.3c1.1-0.6,1.6,0.1,2.2,0.9h0.6c-1.1-2.7-1.6-4.1-2.7-6.8 c-0.2,0.3-0.3,0.4-0.6,0.6c0.6,0.7,0.6,1.4-0.6,1.9c-3.7,2-5.6,3.1-9.3,5.1c-1.1,0.6-1.6-0.1-1.6-0.8c-0.3,0-0.4,0-0.7-0.1 c0.7,2.3,1.2,3.5,2.1,6c0.2,0,0.3,0,0.6,0.1c0-0.7,0-1.9,1.1-2.5c1.7-0.9,2.6-1.3,4.4-2.2c0.6,1.9,1,2.9,1.6,4.8 c-1.7,0.9-2.6,1.3-4.4,2.2c-1.1,0.6-1.6-0.1-2.2-0.9c-0.2,0.3-0.3,0.4-0.6,0.6c1.1,2.5,1.7,3.7,2.8,6.1c0.2-0.3,0.3-0.4,0.6-0.6 C799.06,785.79,799.06,785.09,800.26,784.59z"/>
    <path d="M807.26,794.89v0.7c2.4-1.9,3.6-2.8,6-4.7h-0.6c-2.7,1.7-3.3-0.3-3.9-1c0,0,3.3-2.3,3.9-3c1.1-1.3,1.1-0.6,1.6-0.6 c0,0.7,0.6,1.4,1.1,2c0.7,0.6,0.7,3.3-1.4,5.2v0.7c1.6-1.2,2.3-1.8,3.9-3c-2.2-4.1-3.3-6.2-5.5-10.3h-0.6c0.6,1.4,0.6,2-0.6,2.6 c-3.3,2.6-4.9,4-8.2,6.6c-1.1,0.6-1.6-0.1-2.2-0.9h-0.6l5.5,11c1.7-0.6,2.6-0.9,4.3-1.6c-0.2-0.3-0.3-0.4-0.6-0.7 c-2.7,1.1-4.3-0.4-4.9-1.8c-0.6-0.7-0.6-1.4-1.1-1.5c0-0.7,0-1.4,1.1-1.8c1.6-1.2,2.3-1.8,3.9-3 C808.96,790.49,809.96,792.49,807.26,794.89z"/>
    <path d="M828.06,811.49c1.1-1.3,1.6-0.6,2.1-0.5h0.6c-1.5-2.2-2.3-3.3-3.8-5.5c-0.2,0.3-0.3,0.4-0.6,0.6c0.6,0.7,1.1,1.5,0,2.6 c-1.3,1.2-2,1.8-3.3,3c-1.1-1.4-1.6-2.1-2.7-3.5c1.3-1.5,2-2.2,3.3-3.7c0.6-0.6,1.6-0.6,2.2,0.2c-1.5-2.2-2.3-3.3-3.9-5.5 c0.6,1.4,0.6,2-0.6,2.6c-2.8,3.2-4.2,4.8-7.1,8c-1.1,1.3-1.6,0.6-2.2-0.2c-0.2,0.3-0.3,0.4-0.6,0.6c1.6,2,2.3,3,3.9,5 c0.4,0.1,0.5,0.1,0.7,0.1c-0.6-0.7-0.6-2,0-2.6c1.5-1.5,2.3-2.2,3.9-3.7c1.1,1.4,1.6,2.1,2.7,3.5c-1.5,1.7-2.3,2.6-3.9,4.4 c-0.6,0.6-1.6-0.1-2.2-0.2c1.5,2.2,2.3,3.3,3.9,5.5v-0.7c-0.6-0.7-0.6-1.4,0.6-2.6C823.86,815.89,825.26,814.39,828.06,811.49z"/>
    <path d="M826.06,828.39c-0.2,0.3-0.3,0.4-0.6,0.6c1.7,2,2.6,3,4.3,5c0-1.3,0.4-1.9,0.4-3.2c4.9-12.8,5.4-13.5,5.4-13.5 c-0.2-0.3-0.3-0.4-0.6-0.7c0,0,0,0-10.9,6.5c-0.9,0.2-1.3,0.3-2.2,0.5h-0.6c1.1,1.4,1.6,2.1,2.7,3.5v-0.7c-0.6-0.7-1.1-1.5,0.6-2.6 c0.6-0.6,1.1-0.6,1.6-1.3c0.5,0.6,0.7,0.9,1.1,1.5c0.2-0.3,0.3-0.4,0.6-0.6c-0.2-0.6-0.3-0.8-0.6-1.4c2.7-1.7,4.3-2.3,4.3-2.3 s0,0-2.1,5.7c-0.6-0.8-1-1.2-1.6-2c-0.2,0.3-0.3,0.4-0.6,0.6c0.6,0.8,1,1.2,1.6,2c0,0.7-0.6,1.9-0.6,2.6 C827.66,829.89,826.66,829.89,826.06,828.39z"/>
    <path d="M849.46,850.59c2.1-4.1,3.2-6.1,5.3-10.2c0.6-1.3,1.6-1.3,2.1-0.6v-0.7l-4.2-4.2c-0.2,0.3-0.3,0.4-0.6,0.7 c0.6,0.7,1.1,1.4,0.6,2.6c-1.1,1.8-1.6,2.7-2.7,4.5c-1.2-1.1-1.9-1.7-3.1-2.8c1.1-1.8,1.6-2.7,2.7-4.5c0.6-1.3,1.1-1.3,2.1-0.6 v-0.7l-4-4c0,0,0.1-0.1,0.1-0.2c-3.2-3.1-4.8-4.7-8.1-7.8c-0.9,1.3-1.3,1.9-2.1,3.1v0.7c1.6-1.8,3.3-1.7,4.3-1.1 c0.2,0.3,0.3,0.4,0.6,0.7c-2.8,4.3-4.2,6.4-7,10.6c-1.1,0.6-1.6,0.6-2.1-0.1c-0.2,0.3-0.3,0.4-0.6,0.6c1.5,1.9,2.3,2.8,4,4.5h0.6 c-0.6-0.7-1.1-2,0-2.6c2.8-4.3,4.2-6.4,7-10.6v0.7c1.1,0.8,1.6,3.4,0,5.2h0.6c0.9-1.2,1.3-1.8,2.1-3c0.6,0.7,0.9,1.3,0.3,2.5 c-2.4,3.8-3.6,5.7-5.9,9.5c-0.6,1.3-1.1,1.3-2.1,0.5v0.7c1.7,1.7,2.6,2.6,4.3,4.2c0.2-0.3,0.3-0.4,0.6-0.6 c-0.6-0.7-1.1-1.4-0.6-2.6c1.1-1.8,1.6-2.7,2.7-4.5c1.3,1.1,1.9,1.7,3.2,2.8c-1.1,2-1.6,3-2.7,5c-0.6,0.7-1.1,0.6-1.6,0.6h-0.6 c1.9,1.7,2.9,2.6,4.8,4.3v-0.7C848.86,851.79,848.36,851.09,849.46,850.59z"/>
    <path d="M867.66,848.09c0.5,0,1.1,0.7,1.5,0.8c0.5,0.7,2.1,3.4,0.5,5.9c0.2,0.3,0.3,0.4,0.5,0.7c0.8-2,1.2-3.1,2.1-5.1 c-3.5-2.2-5.3-3.4-8.9-5.6c0.6,0.7,1.1,1.4,0.6,2.6c-1.7,4.4-2.5,6.5-4.2,10.9c-0.6,1.3-1.5,1.3-2.1,0.6c-0.2,0.3-0.3,0.4-0.6,0.7 c2.1,1.4,3.2,2.1,5.3,3.6v-0.7c-0.6,0-1.1-0.7-0.6-1.9c0.8-2,1.3-3.1,2.1-5.1c0.6,0,2.6,0.8,1.1,4.7c0.2,0.3,0.3,0.4,0.5,0.7 c1.3-3.1,1.9-4.7,3.2-7.8h-0.5c-2.1,3.2-3.2,1.8-3.7,1.2c0,0,1.5-3.9,2.1-4.6C867.06,848.09,867.06,848.09,867.66,848.09z"/>
    <path d="M871.76,869.39c3.7,2.1,6.3-0.4,7.8-4.9c1.5-3.9,1.1-8.5-2.1-10.6c-3.1-2.1-6.3,0.4-7.8,4.9 C868.16,863.29,868.66,867.89,871.76,869.39z M872.36,860.29c1.1-3.9,3.2-7.1,5.2-5.7c1.5,0.8,1.1,4.7,0,8.5 c-1.5,4.6-3.7,7.1-5.2,6.3C870.86,867.99,870.86,863.99,872.36,860.29z"/>
    <path d="M883.36,875.79c3.1,1.5,4.6-1.2,5.7-4.5c0.8-3.2,1.2-4.7,2-7.9c0.5-1.4,1.1-1.3,1.5-1.3v-0.7c-1-0.3-1.5-0.5-2.6-0.8 c0.5,0.7,1.1,1.4,0.5,2.6c-0.8,3.2-1.2,4.7-2,7.9c-1.1,3.3-2.6,4.6-4.1,3.8c-1.5-0.7-1.5-3.3-1.1-5.9c1-3.4,1.6-5,2.6-8.4 c0-1.4,1.1-1.3,1.5-0.6v-0.7c-1.8-1.1-2.8-1.7-4.6-2.8v0.7c0.5,0.7,1.1,1.4,0.5,2.6c-1,3.4-1.6,5-2.6,8.4 C879.66,871.69,881.16,874.99,883.36,875.79z"/>
    <path d="M892.96,862.49c-0.1-0.2-0.2-0.2-0.4-0.2C892.76,862.39,892.86,862.39,892.96,862.49z"/>
    <path d="M900.66,867.69c-0.6,3.2-0.9,4.7-1.5,7.9c-1.2-5-1.8-7.5-3.1-12.6c-1.2-0.3-1.8-0.4-3.1-0.6c0.1,0.1,0.1,0.3,0.1,0.6 c0.2,0.8,0.3,1.2,0.5,1.9c-1,4.7-1.5,7-2.6,11.7c0,1.4-1.1,1.9-1.5,1.3v0.7c1.2,0.6,1.9,0.9,3.1,1.5v-0.7c-0.5-0.7-1.1-0.7-1.1-2.6 c1-4.2,1.5-6.3,2.6-10.5c1.7,6.4,2.5,9.5,4.1,15.9h0.5c1-5.7,1.5-8.6,2.5-14.3c0.5-1.4,1.1-1.3,1.5-1.3c0.2-0.3,0.3-0.4,0.5-0.7 c-1.2-0.3-1.8-0.5-3-0.8C900.66,865.79,901.27,866.49,900.66,867.69z"/>
    <path d="M902.67,880.99c-0.5,1.4-1.1,1.9-1.5,1.9h-0.5c2,0.6,3,0.9,5,1.5c2.5,0.6,4.9,0,6-7.1c1-6.6-1-9.2-3.5-9.9 c-2-0.7-5-1.5-5-1.5v0.7c0.5,0.7,1.5,0.7,1,2.6C903.57,873.89,903.27,876.29,902.67,880.99z M905.17,882.39 c0.6-5.3,0.9-7.9,1.5-13.1c0.5-0.7,0.5-1.4,1-0.7h1c1,0,2,2.6,1.5,8c-1,5.9-3,7.2-4,7.2h-1 C905.17,883.79,904.67,883.09,905.17,882.39z"/>
    <path d="M917.47,870.09c0.5,0,1,0,1.4,0.7c1,0,2.4,1.4,2.4,4.7c0.2-2.1,0.3-3.1,0.5-5.2c-3.5-0.6-5.3-0.9-8.8-1.5v0.7 c0.5,0,1.4,0.7,1.4,1.9c-0.4,5-0.6,7.5-1,12.5c-0.5,1.4-1,1.9-2,1.9c3.8,0.6,5.6,0.9,9.3,1.5c0.4-2.1,0.6-3.1,1-5.2h-0.5 c-1,4-2.4,4.6-3.9,4.6c-0.4-0.3-0.6-0.4-1-0.7c-0.5,0-0.5,0-0.5-1.4c0.2-2.4,0.3-3.5,0.5-5.9c0.5,0,1.9,0,1.9,4h0.5 c0.2-3.4,0.3-5.1,0.5-8.5c-1,4-2.5,3.3-3,3.3c0,0,0.5-4.7,0.5-5.2C917.07,870.09,917.07,870.09,917.47,870.09z"/>
    <path d="M922.87,887.19v0.7h4.3c2.5,0,4.9-1.3,5.4-8.5c0-6.6-2.4-8.5-4.8-8.5c-1.9-0.7-4.8-0.7-4.8-0.7v0.7c0.5,0,1.4,0.7,1.4,1.9 c-0.2,5-0.3,7.5-0.5,12.5C923.87,886.69,923.37,887.19,922.87,887.19z M926.77,871.99c0-0.7,0-0.7,0.5-0.7h1c1,0,2.4,1.9,2.4,8 s-1.5,7.9-2.9,7.9c-0.5-0.7-0.5-0.7-1-0.7c-0.2-0.3-0.3-0.4-0.5-0.7C926.47,880.29,926.57,877.49,926.77,871.99z"/>
    <path d="M945.77,886.29v-0.7c-1,0-1.4,0-1.4-1.3c-0.4-5-0.6-7.5-1-12.5c-0.5-1.4,0.5-1.9,1-2.6c-2.1,0.3-3.1,0.5-5.2,0.8v0.7 c1,0,1.4,0,1.9,1.3c0.4,5,0.6,7.5,1,12.5c0,1.3-1,2-1.5,2.6C942.67,886.79,943.67,886.59,945.77,886.29z"/>
    <path d="M953.77,871.69h0.5c-0.2-1.9-0.3-2.8-0.5-4.6c-3.3,0.9-5,1.3-8.4,2.1c0.2,1.9,0.3,2.8,0.5,4.7h0.5c-0.5-2.6,0.5-4,1.4-4.7 h0.5c0.7,5.5,1.1,8.3,1.8,13.8c0,1.4-0.5,1.9-1,1.9v0.7c1.9-0.3,2.8-0.5,4.7-0.8v-0.7c-1,0-1.4-0.6-1.4-1.9 c-0.7-5.5-1.1-8.3-1.8-13.8h0.5C952.27,868.49,953.77,869.09,953.77,871.69z"/>
    <path d="M963.37,862.89c-1.8,0.9-2.7,1.3-4.6,2.1c0.2,0.3,0.3,0.4,0.5,0.7c0.5,0,1,0,1.3,1.3c0.7,3.4,1.1,5.1,1.8,8.4 c0.5,4,2.8,5.1,4.6,4.4c2.7-1.5,2.7-5.4,2.3-8.1c-0.7-3.4-1.1-5-1.8-8.4c0-1.4,0-1.4,0.5-1.9v-0.7c-0.9,0.6-1.4,0.9-2.3,1.5v0.7 c0.5,0,1.3-0.1,1.3,1.3c0.7,3.1,1.1,4.7,1.8,7.9c0.5,3.3,0,5.9-1.3,6.6c-1.3,0.1-2.8-1.2-3.2-3.8c-0.5-3.4-0.8-5.1-1.3-8.4 c-0.5-1.3,0-1.9,0.5-2.6C963.37,863.39,963.37,863.19,963.37,862.89z"/>
    <path d="M975.17,866.99c1.8-1.6,2.7-3.6,2.2-6.9c-0.9-2.5-2.7-3.1-4.5-2.3c-1.8,1.2-2.7,1.7-4.5,2.9v0.7c0.9-0.1,1.3-0.8,1.8,1.3 c1.3,4.4,1.9,6.6,3.2,10.9c0,1.4,0,1.9-0.9,2.7c0.2,0.3,0.3,0.4,0.5,0.7c1.6-1.1,2.4-1.7,4-2.9v-0.7c-0.5,0.7-1.3,0.8-1.8-0.6 c-0.4-2.1-0.6-3.1-0.9-5.1C974.27,867.69,974.77,866.99,975.17,866.99z M973.87,866.79c-0.5-2.6-0.8-3.9-1.3-6.5 c-0.5-0.7,0-1.4,0.5-1.4c0.9-0.7,1.8,0.6,2.3,2.5C975.67,863.59,975.97,865.49,973.87,866.79z"/>
    <path d="M987.17,857.49c-1.3-4-4-6.4-6.7-4.8c-2.7,2.1-3.5,6.8-2.2,10.7c1.3,4.6,4,7,6.7,4.7c-1.3,0.8-3.2-1.7-4.5-6.2 c-1.3-3.9-1.3-7.9,0-8.5s3.2,1.7,4.5,5.6c1.3,3.9,1.3,7.8,0,9.2C987.67,866.59,988.47,861.99,987.17,857.49z"/>
    <path d="M997.37,857.79c-1.8-5.1-2.6-7.6-4.4-12.7c-0.9-1.3-0.5-1.9,0-2.6c-0.9,0.6-1.3,0.9-2.2,1.6v0.7c0.5,0,1.3-0.1,1.7,1.2 c1.1,2.8,1.6,4.2,2.7,7c-3.2-2.3-4.7-3.5-7.9-5.9c-1.1,1.1-1.6,1.7-2.7,2.8h1l1.3,1.3c1.4,4.1,2.1,6.2,3.5,10.3 c0.5,1.3,0.5,1.9,0,2.6v0.7c0.9-0.8,1.3-1.3,2.2-2.1v-0.7c-0.5,0.7-1.3,0.8-1.7-0.5c-1.4-3.8-2.1-5.7-3.5-9.6 c3.9,2.9,5.8,4.3,9.7,7.1C997.07,858.39,997.17,858.19,997.37,857.79z"/>
    <path d="M1015.07,837.39c1.4-2.2,2.1-3.2,3.4-5.2c-0.2-0.2-0.3-0.4-0.4-0.6c-0.4,0.7-0.9,0.8-1.3,0.2c-2.1-3.7-3.1-5.5-5.2-9.2 c-0.5-1.3-0.5-1.9,0-2.6v-0.7c-1.4,2-2.1,3.1-3.4,5.1c0.5-0.1,1.3-0.8,1.7,0.5c0.9,1.8,1.3,2.6,2.2,4.4c-1,1.2-1.6,1.8-2.6,2.9 c-0.9-1.5-1.3-2.2-2.2-3.7c-0.5-1.3,0-1.9,0-2.6v-0.7c-1.4,1.9-2.1,2.9-3.3,4.9l0,0c-2.7,2.9-4,4.3-6.6,7.2c0.7,1.8,1,2.7,1.7,4.5 c0.2-0.3,0.3-0.4,0.5-0.7c-1.3-1.8-0.9-4.6,0-5.2h0.5c2.1,4.2,3.2,6.3,5.3,10.5c0.5,1.3,0,1.9,0,2.6v0.7c1.4-1.8,2.1-2.6,3.4-4.4 v-0.7c-0.5,0.7-1.3,0.8-1.7-0.5c-2.1-4.2-3.2-6.3-5.3-10.5c0.2-0.3,0.3-0.4,0.5-0.7c0.9-0.8,2.2-0.9,3.4,1c-0.7-1.4-1-2.2-1.6-3.6 c0.8-0.2,1.2-0.7,1.5,0.5c2.1,3.7,3.1,5.5,5.2,9.2c0.5,1.3,0.5,1.9,0,2.6v0.7c1.4-2,2.1-3.1,3.4-5.1v-0.7c-0.4,0.7-1.3,0.9-1.7,0.2 c-1-1.7-1.6-2.6-2.6-4.3c1-1.4,1.6-2.2,2.6-3.6c1,1.7,1.6,2.6,2.6,4.3c0.4,1.3,0,1.9-0.4,2.7 C1014.87,836.99,1014.97,837.19,1015.07,837.39z"/>
    <path d="M1019.77,830.49c2.2-3.7,3.3-5.5,5.6-9.2c-0.7-1.8-1-2.6-1.7-4.4c-0.2,0-0.3,0-0.4,0.1c0.9,3.8,0.4,5.8,0,6.6 s-0.9,1.5-1.2,2.1c0,0-0.4,0.1-0.9-1.2c-1-1.4-1.6-2.2-2.6-3.6c0.4-0.7,1.3-2.8,3.4,0.2v-0.7c-1.4-2.2-2-3.2-3.4-5.4 c-0.2,0-0.3,0-0.4,0.1c1.7,3,0.4,4.6,0,5.2c0,0-2.1-3-2.6-3.6c-0.4-1.3-0.4-1.9-0.4-1.9c0.4-0.7,0.9-0.8,0.9-1.5 c0.9-0.8,2.6-2.3,3.8,0.1c0.2,0,0.3,0,0.4-0.1c-1-1.4-1.6-2.2-2.6-3.6c-2.2,3.5-3.3,5.2-5.6,8.7v0.7c0.4-0.7,1.3-0.9,1.7-0.2 c2.2,3.4,3.3,5.1,5.6,8.4c0.9,1.2,0.4,1.9,0,2.6C1019.57,830.09,1019.67,830.29,1019.77,830.49z"/>
    <path d="M1027.98,808.29c-0.2,0-0.3,0-0.4,0.1c1.2,1.4,1.8,2.1,3,3.5v-0.7c0-0.7,0-0.7,0.4-0.8c0.4-0.8,1.2-1.6,1.7-2.2 c0.3-1.4,1.2-4.1-1-7c-1.2-1.7-3-0.9-3.8-0.1c-1.7,1.6-2.6,1.8-3.4,0.5c-0.9-0.5-0.9-1.8-0.4-2.5c0.4-1.4,1.7-2.2,3.8-1.3 c0.2,0,0.3,0,0.4-0.1c-1.2-1.1-1.8-1.7-3-2.8c0.4,1.3,0.4,1.3,0,1.4c-0.4,0.8-1.2,1.6-1.7,2.2c-0.9,2.1-0.9,4.1,0.9,6.4 c1.2,1.2,3,0.9,4.3,0c1.2-1.6,2.1-1.7,3-0.5c0.4,0.6,1.2,1.7,0.4,3.2C1031.28,809.69,1029.58,809.39,1027.98,808.29z"/>
    <path d="M1025.68,794.19c0.2,0,0.3,0,0.4-0.1c0.4-0.8,0.9-1.5,1.7-1c2.6,2.5,3.8,3.7,6.4,6.2c0.9,1.2,0.9,1.8,0.4,3.2 c0.2,0,0.3,0,0.4-0.1c1.7-4,2.6-6.1,4.3-10.4c-0.8-1.4-1.3-2.2-2.1-3.6c-0.2,0.3-0.3,0.5-0.4,0.8c1.7,2.3,1.2,4.4,0.9,5.7 c-0.4,0.8-0.9,1.5-0.9,2.1c0,0-0.4,0.1-1.2-0.5c-1.2-1.1-1.8-1.7-3-2.8c0.4-0.8,0.9-2.8,3.4-1.3c-1.7-1.8-2.5-2.7-4.2-4.5v0.7 c1.7,2.3,0.9,3.8,0.4,4.6c0,0-2.6-2.2-3-2.8c-0.9-0.5-0.9-1.2-0.4-1.3c0-0.7,0.4-1.4,0.4-2c0.4-0.8,2.1-2.3,3.8-0.6 c0.2-0.3,0.3-0.5,0.4-0.8c-1.2-1.1-1.8-1.7-3-2.8C1028.48,787.39,1027.58,789.69,1025.68,794.19z"/>
    <path d="M1032.98,776.19c2.7,4.2,4.1,6.4,6.8,10.6c0.4,0.6,0.4,1.8,0.4,2.5c0.2,0,0.3,0,0.4-0.1c0.5-1.4,0.7-2.1,1.2-3.5 c-0.2-0.2-0.3-0.4-0.4-0.6c-0.4,1.5-0.9,2.1-1.7,0.3c-0.4-0.6-0.9-1.2-0.9-1.2c0.5-2,0.7-2.9,1.2-4.9c0.4-0.1,1.2,0.5,1.7,0.4 c1.2,0.5,0.9,1.2,0.4,2.5c0.4-0.1,0.5,0,0.6,0c0.8-2.5,1.3-3.8,2.1-6.3c-0.9,1.5-1.2,0.9-2.1,1.1c-8.9-0.9-9.7-1.5-9.7-1.5V776.19z M1039.28,779.49c-0.5,1.4-0.7,2.1-1.2,3.5c-1.7-2.3-2.6-4.2-2.6-4.2C1036.98,779.09,1037.78,779.19,1039.28,779.49z"/>
    <path d="M1038.08,770.59c1.7,1.1,3,0.1,4.2-2.2c1.2-1.6,2.1-2.3,3-2c0.4,0.6,1.2,1.7,0.9,3.1c-0.4,2-2.1,3-4.2,2.7 c1.3,0.8,2,1.2,3.3,2v-1.4c0.4-0.8,0.9-2.1,1.2-2.8c0.4-1.5,0.9-4.8-1.7-6.2c-1.7-1-3,0.6-4.2,2.2c-1.2,1.6-1.7,2.2-3,1.9 c-1.2-0.3-1.2-1.7-0.8-2.4c0-1.4,1.2-2.8,3.3-2.5c0.2,0,0.3,0,0.4-0.1c-1.3-0.8-2-1.2-3.3-2v0.7c0.4,0.6,0.4,0.6,0.4,1.3 c-0.4,0.8-1.2,1.6-1.2,2.8C1035.48,767.79,1036.38,769.69,1038.08,770.59z"/>
    <path d="M877.56,540.19c1.6,0.1,2.3,0.1,3.9,0.2c-0.1-0.1-0.1-0.2-0.1-0.2c-2.1-0.9-4.1-2.5-6.4-5.2c-1.9-2.4-2.7-5.7-2.4-9.2 c0.3-3.1,1.5-5.7,3.3-7.1c3.8-3,6.7-4.8,10.1-4.7l0.1,0.1c0.3,0.3,0.5,1.3,0.8,2.2c0.1,0.6,0.2,1.1,0.4,1.8 c1.1,3.6,6.4,11.9,11.1,15.3c1.2,0.9,2.1,1.6,3.2,2c0.4,0.2,0.8,0.3,1.2,0.5c-0.5-0.2-1-0.3-1.5-0.6c-0.8,0.4-1.7,0.9-2.6,1.3 c-2.2,1.2-4.6,2.5-7,3.2c-0.7,0.3-1.5,0.4-2.2,0.6c2.3,0.1,3.4,0.1,5.7,0.2c0.8-0.4,1.7-0.8,2.7-1.3c0.5-0.2,1-0.5,1.4-0.7 c1.7-0.9,3.3-1.7,4.7-2.4c0.1,0,0.2,0.1,0.3,0.1c0.5,0.1,1,0.2,1.6,0.2c2.7,0.1,5.7-0.8,10-2.2c1.1-0.4,2.3-0.7,3.6-1.1 c0.1,0,0.1,0,0.2,0h0.1c1.1,0.5,2.5,0.8,3.9,0.9c0.8,0.2,1.6,0.3,2.4,0.3c2.1,0,4.3-0.3,6.3-0.7s3.8-1,4.8-1.7 c0.1,0.1,0.1,0.1,0.2,0.2c2.8,2.4,8.3,2.8,9.8,2.9h1.1c1.8,0,5-0.3,6.7-1.6c0.3,0.4,0.6,0.7,0.9,1c0.6,0.8,1.3,1.5,2.2,2 c2.5,1.6,5.7,2,8.6,1.8h0.3c1.7-0.1,3.1-0.4,4.1-0.9c0.1,0.1,0.1,0.2,0.2,0.4c0.3,0.7,0.7,1.2,1.1,1.6c0.3,0.3,0.7,0.5,1,0.8 c4.1-0.3,6.2-0.4,10.3-0.7c1.3-1.2,2.2-2.8,2.7-4.7c0.8-2.7,1.3-5.3,1.2-7.8c0-1.5-0.3-3-0.6-4.3c-0.1-0.4-0.3-0.8-0.5-1.2 c-0.1,0.1-0.1,0.1-0.2,0.3c-0.1,0-0.2,0.1-0.2,0.1c0.2-0.1,0.3-0.3,0.5-0.5c0.1,0,0.1-0.1,0.2-0.3c0.6-0.9,1.3-2.6,0.8-5.8 c-1.1-11.2-4.2-16.4-6.9-20.7c-0.3-0.5-0.7-1.1-0.9-1.6c-0.2-0.4-0.5-0.8-0.7-1.1c-0.7-1-1.3-2.2-1.5-3.5c-0.3,0.6-0.6,1.1-0.8,1.7 c0,0.1-0.1,0.1-0.1,0.1c0.7,2.2,1.8,4,3,6c2.5,4.1,5.6,9,6.6,19.8c0.2,1.4,0.3,3.1-0.5,4c-0.6,0.7-1.8,0.7-2.9-0.2 c-1.9-1.9-5.6-3.7-8.9-3.5h-0.2c-3,0.9-4.8-1.6-5.1-3.5c-0.5-3.3-1.3-6.7-2.8-11.2c4.8-3.3,8.4-7.2,10.4-11.1 c0-0.1,0.1-0.1,0.1-0.1c0.3-0.6,0.6-1.1,0.8-1.7c0.1-0.1,0.1-0.3,0.2-0.4c0.4-0.7,0.7-1.3,1-2c1.4-2.6,2.5-4.5,3.5-6.1 c0.6-0.7,1.1-1.4,1.7-1.9c0.3-0.3,0.6-0.6,0.9-0.9c0.4-0.4,0.7-0.7,0.9-1c0.1-0.1,0.1-0.2,0.2-0.3c1.5-0.3,2.4-0.8,3.4-1.3 c0.5-0.2,0.9-0.5,1.6-0.7c0.1,0,0.2,0,0.2,0s-0.1,0.1-0.2,0.2c-1.5,1.2-2.8,4.4-4.1,7.1c-0.4,0.7-0.6,1.4-0.9,2.1 c-1.3,1.9-3.4,2.5-6.7,2.4c-0.3,0.6-0.7,1.3-1,2c1.5,0,2.9,0.1,4-0.1c0.3,0,0.6-0.2,0.8-0.2c1.6-0.4,2.9-1.3,3.8-2.8 c0-0.1,0.1-0.1,0.1-0.1c0.3-0.7,0.6-1.4,1-2.3c1.1-2.4,2.4-5.4,3.7-6.5c1-1.1,1.5-2.2,1.2-3.1c-0.2-0.7-0.7-1.2-2.1-0.5 c-0.1,0-0.2,0-0.3,0.2c-0.5,0.2-0.9,0.4-1.3,0.7c-0.7,0.3-1.5,0.7-2.4,1c-0.1,0.3-0.3,0.8-0.5,1.2c0.2-0.4,0.2-0.8,0.3-1.1v-0.7 c-0.1-1-0.7-2.1-2.8-2.5c-0.3-0.1-0.5-0.1-0.7-0.2c-1.3-0.6-2.2-2-2.9-3.1c0-0.1-0.1-0.1-0.1-0.1c-0.1,0.3-0.2,0.4-0.3,0.7 c-0.2,0.4-0.3,0.7-0.5,1.1c0.9,1.3,2.2,3.3,4.3,3.7c1.4,0.2,1.8,0.8,1.8,1c0,0.1-0.1,0.8-1,1.7c-2.9,2.3-5.2,6-9.6,13.4 c-6.9,11.3-20.7,16.1-33.5,16.6c-12.5,0.5-25.5-2.7-34.5-11.8c-4.1-4.3-7.5-7-9.9-8.9c-0.3-0.2-0.4-0.3-0.7-0.6 c0-0.1-0.1-0.1-0.1-0.1c-1.6-0.7-3.8-3-4.9-5.8c-0.6-1.7-0.7-3.5-0.2-5.1c1-4.8-0.9-10.4-2.8-16.4c-0.2-0.7-0.4-1.2-0.6-1.9 c1.7-1.2,4.9-2.3,6.4-1.3c0.1,0.1,0.2,0.2,0.3,0.3v5.9c0.5-0.4,0.7-0.6,1.2-0.9c2.8-2.3,9.5-4.1,15.1-3.5c0.3,0.1,0.5,0.1,0.8,0.2 c0-0.2,0-0.2,0-0.4v-0.7c0-3.6,0.4-6.7,1-8.6c0.1-0.3,0.2-0.5,0.3-0.7c0.2-0.4,0.4-0.7,0.6-1.1c-0.1-0.1-0.1-0.1-0.2-0.1 c-0.3-0.1-0.5-0.2-0.8-0.3c-0.2-0.1-0.4-0.1-0.6-0.1h-0.2c-0.1,0-0.3-0.1-0.4-0.1c-0.2,0-0.4-0.1-0.6-0.1s-0.3,0-0.5-0.1h-2 c-0.2,0-0.4,0-0.6,0.1h-0.4c-0.2,0-0.4,0.1-0.6,0.1c-0.1,0-0.1,0-0.2,0c-0.1,0-0.2,0-0.3,0.1c-0.2,0-0.3,0.1-0.5,0.1 c-0.8,0.3-1.6,0.5-2.4,0.9c-0.2,0.1-0.5,0.3-0.7,0.4s-0.4,0.3-0.5,0.4c-0.1,0-0.2,0.1-0.3,0.1c-0.2,0.1-0.5,0.3-0.7,0.5 c-0.1,0.1-0.2,0.1-0.4,0.3c0,0,0,0-0.1,0c-0.2,0.1-0.4,0.3-0.6,0.4c-0.1,0.1-0.3,0.3-0.4,0.4c-0.2,0.1-0.4,0.4-0.6,0.5 c-0.2,0.1-0.3,0.3-0.5,0.4c-0.1,0.1-0.2,0.1-0.3,0.3c-0.1,0.1-0.2,0.1-0.2,0.3c-0.2,0.1-0.3,0.4-0.5,0.5s-0.3,0.4-0.5,0.5 c-0.2,0.3-0.4,0.4-0.5,0.7c-0.1,0.1-0.1,0.1-0.2,0.3c-0.1,0.1-0.2,0.3-0.2,0.3c-0.3-0.1-0.6-0.1-0.8-0.1c0-0.1,0.1-0.1,0.2-0.2 c-0.1,0.1-0.1,0.2-0.2,0.2c-0.4,0-0.5,0.2-0.6,0.4c-0.1,0.1-0.1,0.2-0.2,0.3v0.1l-0.1,0.1c-1.2-0.6-2.7-0.5-4.1,0 c-1.4,0.4-2.8,1.1-3.7,1.7c-0.2-0.3-0.3-0.1-0.4,0c-0.2,0.2-0.3,0.2-0.4,0.4h-0.1c0-0.1,0.1-0.2,0.2-0.2c-0.1,0-0.1,0.1-0.2,0.1 c0,0.1,0,0.1,0,0.1c0.1,0.3,0.1,0.4,0.2,0.7c0,0.1,0,0.1,0,0.1c0.3,1,0.5,1.8,0.9,2.8c0.9,2.5,1.6,5,2.1,7.3 c0.3,1.5,0.6,2.9,0.8,4.3v1.2c0,0.8,0,1.5-0.2,2.2c-0.1,0.3-0.1,0.4-0.2,0.7c-0.4,1.9-0.2,3.8,0.5,5.8c1.3,3.3,3.9,5.9,5.7,6.8 c0.3,0.2,0.4,0.3,0.7,0.6c2.4,2,5.7,4.5,9.8,8.7c9.3,9.4,22.5,12.7,35.4,12.3c5.7-0.2,11.6-1.3,17.1-3.4 c-5.5,2.2-11.6,3.3-17.5,3.5c-12.9,0.4-26.2-2.8-35.4-12.3c-4.1-4.2-7.4-6.9-9.8-8.7c-0.3-0.2-0.4-0.3-0.7-0.6 c-1.9-0.9-4.5-3.4-5.7-6.8c-0.8-1.9-0.9-4-0.5-5.8c0-1,0.2-1.9,0.3-2.9v-1.2c-0.4-0.3-0.6-0.4-1.1-0.7c0-0.1,0.1-0.1,0.1-0.2 c0.4,0.3,0.6,0.4,1.1,0.7c0.2-1.3-0.1-2.6-0.5-4.2c-0.1,0.9-0.3,1.7-0.6,2.5c0.3-0.7,0.4-1.5,0.5-2.3c-0.5-2.3-1.3-4.8-2.2-7.3 c-0.3-0.9-0.5-1.6-0.8-2.5c0.4,2.5,1,5,1.4,8c0.2,2.1-0.4,3.7-1.2,4.5c-0.6,0.7-1.4,1-1.9,0.8c-0.1,0-0.1,0-0.2,0 c-1.3,0-2.8,0.7-4.2,1.5c-1.2,0.6-2.7,1.4-3.2,1c-0.3,0.5-0.5,0.8-0.9,1.3l-0.1-0.1l0,0c0,0.1,0.1,0.1,0.1,0.1 c0,0.1-0.1,0.1-0.1,0.2c0.4,0.6,0.7,0.8,1.1,1.4c0,0,0,0.1,0.1,0.1c0.1,0.3,0.2,0.7,0.2,1c0,0,0,0,0,0.1s0,0.1,0,0.1 c0,0.3,0.1,0.6,0.2,1c0.1,0.3,0.1,0.6,0.2,0.8c0.2,0,0.3,0.2,0.3,0.4c0.1,0,0.2-0.1,0.2-0.1c0,0.1,0,0.2,0.1,0.2c0-0.1,0-0.2,0-0.3 c0.4-0.2,0.6-0.4,1.1-0.6c0-0.1-0.1-0.1-0.1-0.3c0-0.1,0-0.1,0-0.1c0.2-0.5,1.7-0.8,4.6-0.6c2.1,0.5,3.3-0.6,4.3-2 c-0.1,4.9,1.7,10.1,6.2,12.8c2.7,1.7,6.3,4.4,11,9.3c3.1,3.4,6.6,6,10.7,8.1c0,0,0,0,0.1,0c-11.5,10.2-27,8.3-37.3-1.8 c-2.4-2.8-3.6-6.2-3.5-9.6c0.1-4.2,1.9-7.6,3.5-9.3c1.3-1.2,2.1-2.2,2.1-3.5c0-1.1-0.5-2.1-1.4-3.1c0,0,0,0.1,0.1,0.2 c-0.6,0.3-0.8,0.5-1.4,0.8c0,0.1,0.1,0.1,0.1,0.1l0.1,0.1c0.5,0.7,1.1,1.4,1.1,1.7c0,0.3-0.3,0.8-1.5,2c-0.3,0.4-0.8,0.9-1.1,1.5 c-1.5,2.1-2.8,5.4-2.9,9.3c0,4.1,1.3,7.9,4.1,11.1c1.3,1.3,4.9,4.6,9.8,6.8l0.1,0.1c-0.3,0.4-0.6,0.9-0.8,1.6 c-0.1,0.3-0.1,0.7-0.1,1c0,0.2,0,0.2,0,0.4c-0.1,0.1-0.2,0.2-0.3,0.2l-0.1-0.1v-0.5c0-0.4,0-0.7,0.1-1c-1.8,0.1-3.5,0.6-5.1,1.3 c-1.9,0.9-3.8,2.3-5.5,3.8c-2.2,1.6-3.7,4.8-4,8.5c-0.3,4,0.7,8,2.8,10.8C875.16,538.09,876.36,539.19,877.56,540.19z M882.56,474.09L882.56,474.09c-2-0.1-4,0-5.1,0.6c-0.1-0.6-0.2-1-0.4-1.4c0.1,0,0.1,0,0.2-0.1c0.2,0.4,0.2,0.7,0.3,1.3 c1.2-0.6,3-0.7,5-0.6h0.1c1,0.2,1.8,0,2.4-0.7C884.36,473.99,883.66,474.39,882.56,474.09z M940.47,508.99c2.4,0,4.6-0.2,6.8-0.5 c0.7-0.2,1.4-0.2,1.9-0.3c5.7-1.1,10.8-3.2,15.1-5.7c0.1-0.1,0.2-0.2,0.4-0.2c0.5,1.4,0.9,2.7,1.1,3.9c0.1,0.4,0.2,0.7,0.3,1.1 c0.2,0.8,0.4,1.5,0.6,2.3c0.3,1.2,0.5,2.3,0.7,3.4c0,0.1,0,0.1,0,0.1s0,0,0,0.1c0.3,1.6,1.1,3,2.3,4c0.2,1.6,0.3,3.4,0.5,5.3 c0.2,5.9,0.6,12.3,3.1,15.1c1.7,1.7,5.5,2.5,8.5,0.9c1.2-0.6,2.8-2,3.4-4.7c0.7-2.1,1.3-5.1,1-8.1c0.3,3.1-0.3,6-1,8.2 c-0.6,2.7-2.2,4-3.4,4.7c-3,1.6-6.8,0.7-8.5-0.9c-2.4-2.7-2.9-9.2-3.3-14.9c-0.1-1.9-0.3-3.7-0.5-5.3c-1.2-0.9-2.1-2.5-2.4-4.1 c0,0,0,0,0-0.1l-0.3,0.3c0.2,0.3,0.3,0.5,0.5,0.8c0.8,1.3,1,4.9,1.3,8.7c0.1,1.6,0.2,3.3,0.4,5.1s0.4,3.6,0.8,5.2 c0-0.1-0.1-0.2-0.1-0.3c0.2,1,0.4,1.9,0.7,2.7c-3.3,1.1-10.8,1.1-13.5-2.7c0-0.1-0.1-0.1-0.1-0.1c-0.2-0.3-0.5-0.5-0.8-0.9 c0,0,0-0.1,0.1-0.1c-0.2-0.2-0.2-0.3-0.4-0.5c-0.2-0.4-0.4-0.7-0.6-1.1c-0.5-0.9-0.8-1.9-1.1-3c-0.6-2.3-1-4.9-1.4-7.5 c-0.4-2.7-0.8-5.7-1.5-8.3c-0.1-0.4-0.3-0.7-0.4-0.9c-0.3-0.5-0.6-1.1-0.9-1.6c-0.1-0.3-0.3-0.4-0.5-0.7c-0.7,0.2-1.2,0.3-1.8,0.3 l-0.1-0.1c-2.1,0.3-4.4,0.5-6.8,0.5c-3.8,0.1-7.4-0.2-10.6-0.6v-0.1C933.17,508.79,936.67,509.09,940.47,508.99z M888.56,511.49 c5.4,2.1,12.1,2.7,19.4-0.7c0.5-0.3,1-0.5,1.5-0.8c1.1-0.5,2.2-1.2,3.3-2l0.1-0.1c1.4-0.3,3.2-0.7,5.8-1c0.9-0.1,1.7-0.2,2.6-0.2 c0.1,0,0.2,0.1,0.4,0.1c1.8,0.6,3.8,1,5.7,1.3h0.1c0.9,0.7,1.6,1.8,2,3.6c0.4,1.4,0.7,2.7,1,4.1c0.4,1.8,0.9,3.6,1.4,5.2l0,0 c1,3.7,2.1,7.2,4,9.5c-3.6,1.5-13.3,2.9-17,0c-0.3-0.2-0.5-0.4-0.8-0.7c-0.1-0.2-0.3-0.3-0.4-0.5c-2-2.9-3.4-7.3-4.4-10.8 c-0.2-0.7-0.4-1.4-0.6-1.9c-1-3.2-2-5.2-2.9-6.6c-0.5,0.3-1,0.5-1.5,0.8c1.1,1.1,1.9,3.2,3,6.6c0.2,0.6,0.4,1.2,0.6,1.9 c1.2,4.1,2.9,9.5,5.7,12.6c-0.7,0.3-1.3,0.4-1.9,0.5c0.5-0.1,0.9-0.3,1.5-0.4c-2.8-3-4.4-8.4-5.7-12.6c-0.2-0.7-0.4-1.2-0.6-1.9 c-1.2-3.4-2-5.5-3-6.6C900.57,514.19,893.76,513.49,888.56,511.49L888.56,511.49z"/>
    <path d="M959.17,509.89c4.7,0.4,6.8,0.8,8,3.2c-0.2-1.1-0.4-2.2-0.7-3.4c-0.6-0.7-1.5-1-2.4-1.3c-0.6-0.1-1.1-0.2-1.7-0.3 c-1-0.1-2-0.2-3.2-0.3c-5-0.4-7.5-0.4-9.4,0.9c0.3,0.5,0.6,0.9,0.9,1.6C952.27,509.39,954.47,509.49,959.17,509.89z"/>
    <path d="M968.87,527.79c0.1,1.5,0.3,2.9,0.6,4.2C969.17,530.69,968.97,529.19,968.87,527.79z"/>
    <path d="M898.76,446.69c0.2-0.1,0.4-0.3,0.6-0.4c-7.2-7.6-14.5-15.2-22.3-22.1c9.8,2.6,17.7,9.2,25.4,15.3c1.1,1.4,2,2.6,2.9,4 c0.1,0,0.1,0,0.2,0c0.2,0,0.4-0.1,0.6-0.1c0,0,0-0.1-0.1-0.1h0.1c0,0,0,0-0.1,0c-8.8-11.6-18-22.6-29.5-31.6 c9.1,1.7,19,7.8,25.9,13.7c-0.4-0.7-0.7-1.3-1.2-1.9c-0.3-0.3-0.7-0.6-1.1-0.8c-3.4-2.5-6.9-4.8-10.3-6.7c-5-2.8-10-4.7-15-5.3 c-0.1,0.3-0.1,0.5-0.2,0.8c7.9,5.6,15.3,13.1,21.4,20.5c0.9,1,1.7,2.1,2.6,3.1c-1-0.8-2-1.5-2.9-2.2c-4.5-3.3-8.9-5.9-13-7.7 c-2.5-1.1-4.9-1.8-7.2-2.3c-0.1,0.3-0.1,0.5-0.2,0.8c7.5,6.3,14.2,13.3,21,20.3C897.06,444.99,897.96,445.79,898.76,446.69z"/>
    <path d="M967.97,408.89c0.2-0.4,0.4-0.7,0.6-1.1c4.5-8.2,9.3-16.3,14.3-24.2c-0.1-0.3-0.2-0.4-0.3-0.7c-3.5,2.3-11,7.2-20.1,19.1 c-2.7,3.4-5.4,7.5-8.2,12.1c-0.8,1.3-1.4,2.5-2.2,3.8c-0.4,0.4-0.8,0.9-1,1.4c0.2-0.6,0.4-1.3,0.5-1.9c0.1-0.3,0.1-0.6,0.2-0.7 c0.3-0.8,0.5-1.8,0.8-2.6c1.1-3.6,2.3-7.3,3.6-10.9c0.2-0.6,0.4-1,0.6-1.5c3.3-9,6.9-17.3,9.6-21.4c-0.2-0.3-0.2-0.4-0.4-0.7 c-6.1,4.4-11.2,9.9-15.4,17c-0.4,0.4-0.8,1-1.1,1.5c0.2-0.8,0.4-1.7,0.6-2.5c0.2-0.8,0.4-1.8,0.6-2.6c0.7-3.2,1.5-6.2,2.2-9.1 c0.9-3.5,1.7-6.6,2.7-9.3l-0.5-0.5c-1.3,1.8-2.6,3.6-3.8,5.3c-1.7,2.5-3.4,5.2-5.1,7.7c0.2-0.2,0.5-0.2,0.8-0.2 c2.2-3.5,4.6-7,7.2-10.6c-2,6.4-4,15.1-5.8,23.8c-0.1,0.1-0.1,0.3-0.2,0.4c-1.3,2.4-2.3,4.8-3.4,7.6c0.2,0.3,0.3,0.4,0.5,0.7 c4.1-10.6,10.5-20.6,19.5-27.6c-7,12.5-11.6,26.8-15.1,40.6c-0.1,0.1-0.1,0.2-0.2,0.3c-0.1,0.3-0.3,0.6-0.4,0.8 c0.1,0.3,0.2,0.5,0.3,0.8c7.9-15,18-29.2,32-39.1c-9.7,15.4-18.5,31.5-26.5,47.7c0.7-1,1.4-2.1,2.3-3.2 C960.27,422.99,963.97,415.89,967.97,408.89z"/>
    <path d="M974.17,428.99c-2,0.8-3.9,1.9-5.8,2.9c-0.9,0.4-1.5,0.7-2,1c-0.4,0.6-0.7,1-1,1.6c8-4.8,16.3-8.4,22.9-7.5 c-9.9,6.8-19.3,14.4-28,22.6c0.2,0,0.4,0.1,0.6,0.1c0.1,0,0.2,0.1,0.3,0.1c4.8-4.6,10.2-9,15-12.9c5.8-4.5,10.8-8.2,13.5-9.9 c0.4-0.3,0.6-0.4,1-0.6c-0.4-0.1-0.6-0.1-1-0.2c-4.2-0.9-9.3,0.2-14.6,2.5C974.77,428.89,974.37,428.89,974.17,428.99z"/>
    <path d="M908.07,392.79c1.4,3.2,2.6,6.5,3.8,10.1c0.7,2.1,1.6,4.4,2.3,6.6c0.4,1.1,0.7,2,0.9,2.8c0.5,1,1,1.9,1.5,2.9 c-4.1-13.1-8.8-25.7-15.1-38c4.6,2.8,8.9,7.9,12.8,14.6c0.2-0.3,0.3-0.4,0.5-0.7c-0.9-1.7-2-3.3-3-4.7c-3.4-5-7.2-8.5-11.1-10.8 c-0.4-0.2-0.6-0.3-1.1-0.6c0.3,0.5,0.4,0.7,0.6,1.2C902.67,381.09,905.37,386.59,908.07,392.79z"/>
    <path d="M900.77,421.79c0.3,0.4,0.5,0.8,0.8,1.4c0.1,0.8,0.6,1.5,0.9,2c2.5,4.3,4.8,8.9,6.7,13.4c0.1,0.2,0.2,0.3,0.4,0.5 c-0.1-0.1-0.2-0.2-0.3-0.3c-3.7-4.9-7.9-9.3-11-11.8c-0.1,0.3-0.2,0.5-0.3,0.8c3.8,3,8.6,8.4,12.5,13.8c0.5,0.7,1,1.5,1.5,2.2h0.9 c-0.6-1-1.2-1.9-1.9-2.8c-0.1-0.2-0.3-0.4-0.4-0.6c0.1,0.1,0.2,0.3,0.3,0.4c-6.6-16.6-17.2-33.8-31-45.4 c10.4,3.1,17.8,10.7,25.1,18.2c0,0.1,0,0.1,0.1,0.2c3,7.6,6.1,15.1,8.8,21.3c0,0.1,0,0.1-0.1,0.2c-0.5,2.1-0.6,5.2-0.4,8.1 c0.1-0.1,0.3-0.3,0.4-0.3c0.1,0,0.1-0.1,0.2-0.1c-0.2-3.2,0.1-6.7,0.8-8.5c0.2-0.5,0.5-1,0.8-0.9h0.3c0.8,0,2,1.1,3,2.9 c-0.3,1.4-0.6,2.8-0.6,4.4c0,0,0,0,0.1,0h0.3c0,0.1,0,0.1,0.1,0.2l0,0l0,0c0.1,0,0.1,0,0.2,0c0,0,0,0,0-0.1h0.4c0,0-0.2,0-0.4,0 c0.3-5.2,2.5-10.2,4.5-10.1c1.6,0,2.9,2.6,3.7,5.6l0,0c-0.7,1.5-1.2,3.4-1.4,5.5c0.1,0.1,0.2,0.1,0.3,0.1s0.1,0.1,0.2,0.2l0,0h0.1 c0.6-5.1,2.9-9.5,5.2-9.5c2.6,0,4.5,4.5,5.2,8.7c0.2,0,0.5,0,0.7,0.1c-0.2-1.4-0.5-2.9-1-4.1c0,0,0,0,0-0.1 c0.7-2.5,1.7-4.6,2.8-5.8c0.5-0.6,1-0.8,1.5-0.8h0.4c0.6,0,1.2,0.4,1.7,1.2c1.5,2.3,2.2,7.5,1.8,10.8c0,0.4-0.1,0.7-0.1,1.1 c0.2,0.1,0.4,0.3,0.6,0.3c0.1-0.4,0.1-0.8,0.1-1.4c0.1-0.7,0.1-1.4,0.1-2.2c0-0.2,0-0.5,0-0.7c0.9-3.3,2.2-5.9,3.2-6.9 c0.4-0.3,0.7-0.4,1-0.4h0.3c0.3,0.1,0.6,0.4,0.8,0.9c1,2.3,1.2,7.9,0.4,11.6c-0.1,1.2-0.3,2.5-0.6,3.4c0.1,0.1,0.1,0.1,0.2,0.1h0.5 c0.3-1.1,0.5-2.2,0.6-3.4c0.5-2.3,0.6-5.2,0.4-7.7l0,0c9.4-14,20.4-27.9,34.6-37.2c-10.5,16.1-21.1,32.2-31.7,48.3 c0.3,0,0.5,0,0.8,0.1c2.6-3.9,5.8-8.9,9.5-14.4c0.4-0.6,0.7-1,1-1.6c1.7-2.6,3.4-5.1,5.1-7.7c5.6-8.5,11.1-17.1,16.7-25.6 c-0.1-0.3-0.2-0.4-0.3-0.7c-7.8,4.6-15.4,11.6-21.2,18.6c-3.3,3.7-6.3,7.4-8.8,10.8c-0.2,0.4-0.4,0.7-0.7,1 c-0.9,1.1-1.6,2.3-2.3,3.2c-1.2,1.6-2,3-2.8,4.1c-0.3-1.3-0.5-2.5-0.9-3.3c0-0.1-0.1-0.1-0.1-0.2v-0.8c0-0.4,0-1-0.1-1.5 c0-0.4-0.1-0.8-0.1-1.2c-0.3-2-0.9-4.1-1.6-5.9c-0.1-0.3-0.2-0.5-0.3-0.8c-0.2-0.7-0.7-1.3-1.1-1.7c-0.2-0.3-0.5-0.5-0.7-0.7 c-0.3-0.1-0.6-0.3-1-0.3s-0.7,0.2-1.1,0.4c-1.2-3-2.8-5.5-4.5-5.4c-1,0-2.1,0.7-3.1,2c-0.4,0.4-0.7,1-1.1,1.7c-0.5,1-1,2-1.4,3.2 c-0.7-0.7-1.5-1.1-2.3-1.1c-0.7,0-1.4,0.3-2,0.8l-0.1,0.1c-0.4-2.1-1.1-4.1-2-5.8c-0.1-0.3-0.3-0.5-0.5-0.8c-0.9-1.5-2-2.6-3.2-2.6 c-1,0-2,0.7-3,1.8c-0.3,0.3-0.5,0.7-0.7,1c-0.3,0.4-0.6,1-0.8,1.4c-0.1,0.3-0.3,0.5-0.4,1c-0.3,0.8-0.6,1.6-0.9,2.5 c-0.1,0.3-0.2,0.6-0.3,0.9c-1,0.4-1.9,1.3-2.5,2.7c-0.1,0.3-0.3,0.5-0.4,1c0,0.1-0.1,0.1-0.1,0.3c-0.9,2.3-1.5,5.5-1.5,8.8v0.1 c0,0.1-0.1,0.1-0.1,0.2c0,0,0,0,0,0.1c0,0,0,0,0-0.1c-5.1-11.6-9.6-23.4-14.2-35.2c-1.3-3.3-2.4-6.2-3.4-8.7c0.6,0.6,1.3,1.3,2,1.8 c8.6,7.9,15.4,18.2,20.1,28.9c0.1-0.4,0.2-0.7,0.3-1c-0.8-1.7-1.5-3.2-2.4-4.7c-0.5-1-1-1.9-1.5-2.9c-0.4-0.7-0.8-1.5-1.2-2.2 c-0.7-1.1-1.3-2.2-2-3.3c-5.2-8.2-9.5-12.2-12.9-15.5c-1.2-1.1-2.2-2.1-3.2-3.1l-0.5,0.5c1.1,2.6,2.5,6.2,4.1,10.5 c1.5,3.8,3.2,7.9,4.7,12.1c-2.7-3-5.6-5.8-8.2-8c-5.8-4.8-11.8-7.9-17.6-9.4c-0.1,0.3-0.1,0.5-0.2,0.8 C887.26,402.19,894.66,411.89,900.77,421.79z M946.07,420.89c2,0,4.3,6.3,4.4,11c-0.2-0.1-0.3-0.2-0.5-0.3c-0.5-0.1-1.1,0-1.7,0.6 c-1.1,1-2.2,3.1-3,5.7c-0.2-2.6-0.9-5.1-2-6.6c-0.4-0.7-0.8-1.1-1.3-1.2c-0.1,0-0.1-0.1-0.2-0.1 C942.27,425.29,944.17,420.99,946.07,420.89z M940.57,415.79c1.5,0,2.9,2.2,3.9,5l0,0c-1.6,1.5-2.9,5.1-3.3,9.1h0.1 c0,0.1-0.1,0.1-0.1,0.1c-0.7-0.1-1.5,0.2-2.3,0.9c-0.1,0.1-0.2,0.2-0.3,0.4c-0.4-3-1.4-6.5-3-8.6c0,0,0,0,0-0.1 C936.67,418.69,938.77,415.79,940.57,415.79z M932.57,421.69c2.9,0,4.9,6.2,5.4,10.4c-0.1,0.1-0.1,0.2-0.2,0.2 c-0.7,1-1.3,2.5-1.7,4c-1.1-2.6-2.6-4.4-4.5-4.4c-1.5,0-2.9,1.4-4,3.6c-0.1-0.4-0.3-1-0.4-1.4l0,0v-0.3 C927.17,427.79,929.87,421.69,932.57,421.69z M919.47,420.79c1-4.1,3.4-7.6,5.4-7.6c2.1,0,4.3,4.9,5.1,9c-1.8,2.2-3.2,6.1-3.4,10.4 l0,0c-0.7-1.4-1.6-2.5-2.6-2.8c-0.6-4.3-2.2-8.8-4.3-8.9c-0.3,0-0.5,0.1-0.7,0.1h-0.1C919.07,420.79,919.27,420.79,919.47,420.79z M919.57,421.79c1.5,0,3,4,3.7,7.9l0,0c-1.5,0.1-3.1,2.3-4,5.3c0,0.1-0.1,0.3-0.1,0.4c-1.2-2.1-2.6-3.1-3.8-2.7 c-0.1,0-0.3,0.1-0.4,0.2C915.27,426.69,917.57,421.79,919.57,421.79z"/>
    <path d="M898.16,441.19c-0.1,0.1-0.1,0.2-0.2,0.3c1,1.1,2.2,2.3,3.6,3.4c0.2-0.1,0.5-0.3,0.7-0.4c-1.6-1.2-3-2.5-3.9-3.6 C898.26,440.99,898.26,441.09,898.16,441.19z"/>
    <path d="M965.57,427.09c1.5-2,2.8-3.8,3.9-5.1c-0.1-0.1-0.1-0.2-0.2-0.3c-0.1-0.1-0.1-0.2-0.2-0.3c-6.1,8-12,16.3-17,25.1l0.5,0.5 c0.6-1.1,1.4-2.4,2.1-3.8C957.87,437.79,962.17,431.69,965.57,427.09z"/>
    <path d="M951.87,429.19c2.2-3.7,4.7-8.2,6.9-12.4c2.6-4.5,5-8.6,6.6-11.3c-0.1-0.1-0.1-0.2-0.2-0.3c-0.1-0.1-0.1-0.2-0.2-0.3 c-4.8,8-9.4,16.2-13.9,24.4c0.1,0.4,0.1,0.8,0.1,1.2C951.37,430.09,951.67,429.69,951.87,429.19z"/>
    <path d="M915.27,401.59c1.2,4.4,2.9,10.2,4.6,15.8c0.1-0.3,0.3-0.7,0.4-1c-1.6-5.4-3.2-10.8-4.4-15.1 C915.67,401.39,915.47,401.49,915.27,401.59z"/>
    <path d="M912.87,417.09c0.9,2.3,2,4.9,3,7.5c0.1-0.3,0.3-0.7,0.4-1c-1.7-4.7-3.7-9.2-4.8-11.4l-0.6,0.6 C911.37,413.79,912.07,415.29,912.87,417.09z"/>
    <path d="M915.87,390.69c-0.3,0.3-0.6,0.6-0.9,0.9h0.1C915.37,391.29,915.67,390.99,915.87,390.69z"/>
    <path d="M926.27,390.19c0.3,0.1,0.4,0.2,0.7,0.3c-0.1-0.4-0.2-0.6-0.3-1c-1.7-4.9-0.5-8.8,0.7-12.3c0.4-1.1,0.7-2.3,1-3.4 c0.9,2.3,2,6.6,2,9.5c0,1.7,0,5.6-0.5,6.9c0.2,0.2,0.4,0.2,0.6,0.4c0.5-1.4,0.5-5.2,0.5-7.3l0,0c0,0.1,0,0.1,0,0.1 c1.2-2.7,4.6-8.1,7.9-10.2c-0.5,1.2-0.9,2.8-1.2,4.4s-0.6,3.2-1.2,4.6c-1,1.7-2.8,6.3-2.8,10.2h0.6c0-0.4,0-1,0.1-1.4 c0.3-2.6,1.2-5.4,2-7c0.2-0.4,0.4-0.8,0.6-1l0,0c2.6-3.6,5.8-6.1,8.4-6.6c-1.8,1.5-2.6,4.3-3.5,7.2c-0.7,2.2-1.4,4.5-2.5,6.6l0,0 c-1.3,1.1-2.8,3.1-3.3,6c0.2,0.1,0.4,0.2,0.6,0.3c0.3-1.4,0.8-2.7,1.6-3.7l0,0c0.4-0.4,0.7-0.9,1-1.4c0.2-0.2,0.5-0.5,0.7-0.6 c0,0,0-0.1-0.1-0.1c1.9-1.6,4.6-2.3,6.9-2.9c-1.7,1.7-3.5,4.5-5,6.5c-0.4,0.6-0.8,1.2-1.2,1.7c-0.2,0.3-0.4,0.5-0.6,0.8h0.8 c1.5,0,4,1.7,5.3,3.7c-2-0.5-6.1,0.1-7.3,0.7c0,0.3,0.1,0.5,0.1,0.8c1.5,0,2.6,2.2,3.7,4.3c0.6,1.1,1.2,2.3,1.9,3.1 c-2.8-0.2-4.2-1.9-5.7-3.3c-1.1-1.2-2.3-2.4-4.2-3.1c-0.3-0.1-0.4-0.2-0.7-0.3c0.2,0.3,0.2,0.5,0.4,0.8c0.7,1.5,0.3,3.4-0.2,5.9 c-0.4,2.1-0.9,4.3-0.9,6.9c0-0.1-0.1-0.1-0.1-0.1c-2.2-4.1-4.3-8.1-3.1-11.9c0.2-0.6,0.3-0.9,0.5-1.5c-0.4,0.4-0.6,0.6-1,1 c-0.8,0.8-1.8,1.1-3,1.5c-1.3,0.4-2.8,0.9-4.2,2.2c0.9-2.2,2.7-4.6,3.8-6.3c0.2-0.2,0.2-0.3,0.4-0.5c-0.2-0.1-0.3-0.2-0.5-0.3 c-1.4-0.7-4.4,0.4-7.8,1.6c1.2-3.3,3.3-4.6,6.2-4.1c0.3,0.1,0.4,0.1,0.7,0.1c-0.2-0.3-0.2-0.5-0.4-0.8c-1.8-3.8-5.4-5.8-9.6-5.6 c-0.1,0.1-0.2,0.3-0.3,0.4c0-0.5-0.2-0.3-0.4-0.1c-0.2,0.3-0.4,0.5-0.6,0.8c0.3-0.1,0.5-0.1,0.8-0.1c0.1,0,0.1,0,0.2,0h0.7 c3.6-0.2,6.8,1.4,8.6,4.5c-2.1-0.1-3.8,0.8-5,2.6c-1.1-2.5-2.3-5-3.5-7h-0.7c1.3,2.3,2.5,5,3.8,7.7l-0.1,0.1 c-0.3,0.7-0.6,1.4-0.9,2.2c-0.1,0.3-0.1,0.5-0.2,0.8c0.2-0.1,0.4-0.2,0.6-0.3c0.5-0.1,0.9-0.4,1.4-0.5h0.1c0.7,1.9,1.4,3.7,2.1,5.5 c0,0.1-0.1,0.3-0.1,0.3c-0.1,0.5-0.1,0.8-0.2,1.4c0.2-0.3,0.4-0.4,0.6-0.7c0-0.1,0.1-0.1,0.1-0.1l0.1-0.1c0,0.1-0.1,0.1-0.1,0.1 c0,0.1,0.1,0.3,0.1,0.3s0-0.1,0.1-0.1c0,0.1-0.1,0.2-0.1,0.2c-0.5,1.5-0.9,3.3-1,5.1v0.5c0.2-0.4,0.5-0.7,0.7-1 c0.2-2.3,0.8-4.5,1.7-6.2c1.2-0.8,2.3-1.2,3.4-1.6c0.9-0.3,1.7-0.5,2.5-1.1c-0.3,1.9,0,3.7,0.6,5.6v0.1c-0.8,1-1.5,2.4-2,4 c0.2,0.3,0.3,0.5,0.5,0.8c0.5-1.6,1.2-3.1,1.8-4c0.7,1.8,1.6,3.5,2.5,5.1l0.7,1.4c0.3,0.5,0.4,0.8,0.7,1.4c0-0.7-0.1-1-0.1-1.6 c-0.2-2.7,0.2-5.1,0.6-7.1c0.1-0.3,0.1-0.5,0.2-0.8c0.2-0.8,0.3-1.6,0.4-2.5c0.1-0.7,0.2-1.4,0.1-1.9c0-0.4-0.1-0.8-0.2-1.2 c0.3,0.1,0.5,0.3,0.7,0.4l0,0c-0.1,0.1-0.2,0.3-0.3,0.4c0,0.5,0,1.2-0.1,1.9c0.1-0.2,0.3-0.6,0.4-0.9c0.2-0.4,0.4-0.7,0.6-1 c0.7,0.5,1.3,1.2,2,1.9c0.9,1,1.7,1.8,2.8,2.4c-1.4,0.6-2.7,2.3-3.6,4.5c0,0,0,0,0,0.1c-0.7-1.9-1.6-3.4-2.6-4.4 c-0.1,0.3-0.1,0.5-0.2,0.8c1,1.1,1.8,2.7,2.4,4.5c-0.4,1-0.7,2.2-0.9,3.3c0.3-0.6,0.7-1.1,1.1-1.7c1-3.6,2.9-6.3,4.5-6.4 c2.6,0,4.6,5.5,5.2,9.9c0.2,0.1,0.5,0.4,0.7,0.7c-0.1-1.5-0.5-3.4-1-5.1c0-0.1,0-0.1-0.1-0.3c0-0.1-0.1-0.2-0.1-0.3 c1.7-3.8,3.3-7.8,4.7-10.9c0.8-1.7,1.4-3.1,2-4.2c-0.1-0.1-0.2-0.2-0.3-0.3l-0.3-0.3c-1.6,3.1-4.1,8.8-6.4,14.8 c-0.6-1.4-1.2-2.7-1.9-3.5c0.3,0,0.7,0.1,1,0.1h1.2c-0.4-0.3-0.6-0.5-1-0.8c-0.3-0.3-0.5-0.5-0.8-0.8c-0.2-0.3-0.3-0.4-0.5-0.7 c-0.4-0.7-0.9-1.5-1.3-2.3c-0.9-1.6-1.8-3.4-2.9-4.2c2.2-0.4,5.8-0.6,6.4,0.2c0.2-0.2,0.3-0.3,0.5-0.6c-0.9-2.4-3.7-4.9-5.7-5.2 c0.2-0.3,0.4-0.7,0.7-1c1.9-2.8,4.4-6.5,6.3-7.5c-0.1-0.3-0.1-0.5-0.2-0.8c-0.3,0.1-0.5,0.1-0.9,0.2c-0.2,0-0.5,0.1-0.7,0.2 c-0.3,0-0.6,0.1-1,0.2c-1.8,0.4-3.7,1-5.3,2c0.8-1.7,1.3-3.6,1.9-5.2c1.1-3.7,2.1-6.9,4.7-7.6v-0.8c-2.6-0.6-6.4,1.6-9.5,5.5 c0.3-1,0.5-2.1,0.7-3c0.5-2.5,0.9-4.7,2-5.4c-0.1-0.3-0.1-0.5-0.2-0.8c-3.5,1.3-7.3,6.8-9.1,10.3c-0.3-3.3-1.5-7.7-2.4-9.5 c-0.2-0.3-0.2-0.5-0.4-0.8c-0.1,0.4-0.1,0.6-0.2,1c-0.3,1.5-0.7,2.9-1.2,4.2c-1.2,3.6-2.3,7.3-1,12.2c-3.7-1.6-6.9-1.9-9.8,0.9 C919.17,387.89,922.37,388.29,926.27,390.19z M921.97,407.09c-0.6-1.6-1.2-3.3-1.8-4.7c2.2-0.8,4.1-1.5,5.4-1.3 C924.37,402.69,922.77,405.09,921.97,407.09z"/>
    <path d="M874.46,469.89c1.6-1,3.1-3.2,4.5-5.4c1.5-2.3,3-4.7,4.2-4.5c0.1-0.8,0.1-1.1,0.2-1.9c-2.1-0.5-3.8,2.3-5.6,5.1 c-2.4,3.6-4.2,6.1-6.1,5c-0.3,0.7-0.4,1.1-0.7,1.7c-0.1,0-0.2-0.1-0.2-0.1c0.3-0.7,0.4-1.1,0.7-1.8h-0.1c1.8-1.1,3-3.4,4.1-5.3 c1-1.7,1.7-3.4,2.7-3.5c-0.1-0.8-0.1-1.2-0.2-1.9c-1.6,0.2-2.6,2.2-3.7,4.2c-1.5,2.8-3.3,5.9-6.6,5.7v1.8h-0.1v-1.9 c-0.3,0-0.8,0-1.1-0.1h-0.2c1.5-1,3.1-2.6,4.1-4.6c-0.5-0.5-0.8-0.7-1.3-1.2c-1.9,3.5-5.3,5.6-6.9,4.6c0,0.1-0.1,0.1-0.1,0.1 c-0.3,0.5-0.4,0.9-0.6,1.4l-0.1-0.1v0.1c0.1,0,0.1,0,0.2,0.1c0,0,0,0.1-0.1,0.1c0.2,0.1,0.4,0.3,0.7,0.3c1.3,1.1,2.9,1.5,4.4,1.5 c1.5,0.1,3,0.4,4.3,0.7h0.1c0.2,0.1,0.3,0.1,0.5,0.2c0.1,0,0.2,0.1,0.2,0.1c1.2,0.5,2.3,1.3,3.1,2.2c0.4-0.6,0.6-0.9,1-1.5 C875.36,470.69,874.86,470.29,874.46,469.89z"/>
    <path d="M858.46,462.59c-1.6-1.9-2.3-3.5-2.3-4.4c0-0.3,0-0.7,0.1-1c0.1-0.5,0.1-1.1-0.1-1.5v1.8l0,0v-2.9c-0.7,0-1-0.1-1.7-0.1 v0.9c-0.2,0-0.6-0.2-0.8-0.3c-0.7-0.4-1.4-0.9-2.6-0.4c-0.2-2.8,0.4-4.4,1.1-5.3c0.8-1.2,1.9-1.8,3-1.8c0.1,0,0.1,0,0.2,0 c0.6-0.2,1.1-0.4,1.8-0.5c0.2,0,0.3-0.1,0.6-0.1c0.6-1.1,1.3-2.1,2.1-2.7c-0.8,0.5-1.8,0.8-2.8,0.9c-0.6,0.1-1.2,0.2-1.8,0.5 c-0.9,0-1.8,0.3-2.6,0.8c-0.6,0.4-1.1,0.9-1.7,1.6c-1.3,2-1.9,5-1.3,8.4c0.1,0.6,0.1,0.9,0.2,1.5c0.2-0.2,0.3-0.2,0.4-0.4 c0.2-0.2,0.3-0.3,0.6-0.5c1.2-0.8,1.5-0.7,2.2-0.2c0.3,0.3,0.9,0.5,1.4,0.6v0.4h0.1c0.1,0,0.1,0,0.2,0v0.2c0,1.6,1.1,3.9,2.9,5.9 c0.9,1,2.2,2.3,3.6,3.2c0.3-0.6,0.4-0.9,0.7-1.5C860.66,464.79,859.26,463.79,858.46,462.59z"/>
    <path d="M861.06,445.69c1.4-1.7,4-2.5,6.8-2.1c4,0.5,7.9,2.9,9.8,6.2c1.8,3,4.3,5,7.3,5.6c0,0.1,0,0.1,0,0.2l0,0v-0.1l0,0 c0-0.1-0.1-0.3-0.1-0.4c-0.1-0.3-0.1-0.4-0.2-0.7h0.1c0-0.1,0-0.1,0-0.1c0.2-0.2,0.3-0.2,0.5-0.4c0.1-0.1,0.2-0.1,0.3-0.3 c-0.6-0.2-1.3-0.3-1.8-0.6c-0.2-0.1-0.4-0.2-0.6-0.3c-0.6-0.4-1.3-0.9-1.9-1.4c-0.8-0.7-1.5-1.6-2.2-2.7c-2.2-3.6-6.5-6.4-10.9-6.9 c-3.3-0.4-6.2,0.5-7.9,2.5c0,0,0,0-0.1,0h-0.1c0.4,0.7,0.5,1,0.9,1.7C860.96,445.69,861.06,445.69,861.06,445.69z"/>
    <path d="M860.06,444.09c-0.1,0-0.1,0.1-0.2,0.2C859.96,444.19,860.06,444.19,860.06,444.09L860.06,444.09z"/>
    <path d="M878.36,476.79L878.36,476.79L878.36,476.79C878.36,476.69,878.36,476.69,878.36,476.79z"/>
    <path d="M888.86,470.59c-0.2,1-0.3,2.9-0.3,2.9s0.1-0.4,0.2-0.7C888.86,471.99,888.86,471.29,888.86,470.59z"/>
    <path d="M885.16,453.99c0.1-0.1,0.2-0.1,0.3-0.3C885.26,453.79,885.16,453.89,885.16,453.99z"/>
    <path d="M973.17,435.39c0.8-0.6,1.5-1.1,2.1-1.4c0-0.2-0.1-0.2-0.1-0.4s-0.1-0.2-0.1-0.4c-4.6,2.8-13.1,10.3-18,15.6 c0.1,0.1,0.2,0.1,0.4,0.2c-0.1,0-0.1,0-0.2,0c0.2,0.1,0.4,0.2,0.6,0.2h0.3c-0.2,0-0.3-0.1-0.5-0.1c0.1,0,0.1,0,0.2,0 C962.27,444.29,968.77,438.49,973.17,435.39z"/>
    <path d="M924.87,441.59c0.2,0.1,0.6,0.3,0.6,0.3S925.07,441.59,924.87,441.59z"/>
    <path d="M918.77,441.09h-0.2C918.57,441.09,918.67,441.09,918.77,441.09z"/>
    <path d="M926.97,442.49L926.97,442.49c0,0-0.2-0.2-0.4-0.3C926.67,442.39,926.87,442.39,926.97,442.49z"/>
    <path d="M968.17,454.39c-0.3-0.3-0.5-0.4-0.8-0.6c-0.3-0.3-0.6-0.4-0.9-0.6c-0.3-0.3-0.6-0.4-0.9-0.6c-0.3-0.1-0.5-0.3-0.8-0.5 c-0.3-0.3-0.6-0.4-0.9-0.6c-0.3-0.1-0.5-0.3-0.8-0.4c0-0.1,0-0.2-0.1-0.3c0.1,0,0.2,0.1,0.2,0.1c-0.1-0.1-0.3-0.1-0.4-0.2 c-0.1-0.1-0.2-0.1-0.3-0.2c-0.2-0.1-0.5-0.1-0.7-0.2c-0.3-0.1-0.5-0.2-0.8-0.3c-0.1-0.1-0.2-0.1-0.3-0.2c-0.2-0.1-0.4-0.1-0.6-0.1 h-0.1c-0.4-0.1-0.8-0.2-1.2-0.4c-0.2,0-0.5-0.1-0.7-0.1c-0.4-0.1-0.9-0.2-1.2-0.2c-0.2,0-0.5,0-0.7-0.1c-0.5,0-0.9-0.1-1.3-0.1 h-3.2c-0.3,0-0.7,0-1,0.1c-0.1-0.1-0.1-0.1-0.2-0.1c-0.2-0.2-0.4-0.4-0.6-0.6l0,0c-0.1-0.2-0.2-0.2-0.3-0.4 c-0.1-0.1-0.3-0.4-0.5-0.5c-0.1-0.1-0.2-0.3-0.4-0.4c-0.1-0.2-0.3-0.3-0.6-0.5c-0.1-0.1-0.3-0.3-0.4-0.4c-0.2-0.1-0.5-0.4-0.7-0.5 c-0.1-0.1-0.2-0.1-0.4-0.3c-0.1-0.1-0.1-0.1-0.2-0.2c0.1,0.1,0.2,0.1,0.4,0.3c-0.3-0.3-0.6-0.4-1-0.7c0.1,0.1,0.1,0.1,0.2,0.2 c-0.1-0.1-0.2-0.1-0.4-0.3c-0.1,0-0.2-0.1-0.2-0.1c-0.2-0.1-0.5-0.3-0.7-0.4c-0.1,0-0.1-0.1-0.2-0.1c-2.8-1.4-6.1-2.3-9.2-2.4 c-0.1,0-0.1,0-0.2,0h-1.6c-0.4,0-0.8,0-1.1,0.1h-0.4c-0.3,0-0.7,0.1-1,0.1c-0.2,0-0.3,0.1-0.5,0.1c-0.3,0-0.5,0.1-0.8,0.3 c-0.2,0-0.4,0.1-0.5,0.1l0,0c0,0-0.1,0-0.2,0.1c-0.2,0-0.3,0.1-0.5,0.2h-1.4c0.1,0.1,0.2,0.1,0.3,0.1c0,0.2,0.1,0.2,0.1,0.4 c0.1,0.4,0.1,0.8,0.1,1.2c0.2,0,0.2,0,0.4,0v0.3c0,2.5-0.1,5.6-0.9,7.8c-0.1,0.4-0.2,0.6-0.3,1c0.3,0.2,0.4,0.2,0.7,0.4 c3.2,1.9,6.1,6.4,8.8,10.9c0.1,0.2,0.2,0.2,0.3,0.4c0.2-0.1,0.2-0.1,0.4-0.1c0.7-0.3,1.7-0.7,2.9-1.1c2.1-0.8,4.6-1.9,6.1-2.3 c0.1-0.1,0.2-0.1,0.3-0.1c0.1-0.2,0.1-0.2,0.2-0.4c0.9-2.5,2.3-6.9,3-10.3c0,1.3-0.2,2.1-0.4,2.8c-0.2,0.4-0.2,0.6-0.4,1 c0.3,0.2,0.4,0.2,0.7,0.4c9.2,5.3,16.8,14,22.2,23.1c0.2,0.3,0.3,0.5,0.5,0.8c0.2-0.3,0.3-0.5,0.6-0.9c0.6-0.9,1.2-1.7,2-2.7 c1.4-1.9,2.9-3.9,3.9-6c0.2-0.4,0.4-0.7,0.5-1.1c0.1-0.3,0.2-0.4,0.3-0.7c-0.1-0.2-0.2-0.3-0.4-0.5c-0.6-0.8-1.1-1.6-1.7-2.4 c-0.3-0.4-0.7-0.8-0.9-1.3c-0.3-0.3-0.5-0.7-0.7-0.9c-0.4-0.4-0.7-0.8-1-1.3c-0.2-0.3-0.5-0.5-0.7-0.8c-0.4-0.4-0.7-0.8-1-1.2 c-0.1-0.2-0.2-0.3-0.3-0.4s-0.2-0.2-0.3-0.3c-0.4-0.4-0.7-0.8-1-1c-0.2-0.3-0.4-0.4-0.7-0.6c-0.3-0.4-0.7-0.6-0.9-0.9 s-0.5-0.4-0.7-0.6C968.77,454.89,968.47,454.69,968.17,454.39z"/>
    <path d="M917.67,459.59c3-1.3,7-3.9,8.5-6.1c0-0.1,0.1-0.1,0.1-0.1v-0.3c0.1-0.4,0.2-0.8,0.3-1.4c0.4-2.2,0.9-4.9,0.8-7.1 c0-0.4-0.1-0.8-0.1-1.2c0-0.2-0.1-0.2-0.1-0.4c-0.1-0.1-0.2-0.1-0.3-0.1c-0.2-0.1-0.4-0.3-0.5-0.3s-0.2-0.1-0.2-0.1h-0.1 c-0.2-0.1-0.4-0.1-0.5-0.3c-0.1,0-0.2-0.1-0.3-0.1c-0.2-0.1-0.4-0.1-0.6-0.3c-0.1,0-0.2,0-0.3-0.1c-0.2-0.1-0.5-0.1-0.7-0.1 c-0.1,0-0.1,0-0.2,0c-1-0.1-2-0.3-2.9-0.3h-1c-0.1,0-0.1,0-0.2,0c-0.3,0-0.5,0-0.8,0.1h-0.3c-0.2,0-0.5,0.1-0.7,0.1 c-0.1,0-0.2,0-0.3,0.1l0,0l0,0c0,0-0.4-0.1-0.6,0.1l0,0c-0.1,0-0.2,0.1-0.3,0.1c-0.2,0-0.4,0.1-0.5,0.3c-0.1,0-0.2,0.1-0.3,0.1 c-0.2,0.1-0.3,0.1-0.5,0.3c-0.1,0-0.2,0.1-0.3,0.1c-0.1,0.1-0.3,0.1-0.4,0.3h-0.1c-0.1,0-0.1,0.1-0.2,0.1c-0.1,0.1-0.3,0.1-0.4,0.3 c-0.1,0.1-0.2,0.1-0.3,0.3c-0.1,0.1-0.3,0.3-0.4,0.4h-0.1c0.1,0.1,0.1,0.1,0.2,0.1c-0.2,0.4-0.4,0.7-0.6,1.1 c-0.1,0.1-0.2,0.4-0.3,0.7c-0.7,2.9-1,7-1,9.3c0,0.2,0,0.2,0,0.4c-0.3,0.2-0.3,0.4-0.3,0.6h0.7c1.8,0,4.5,1.8,5.4,3.1 c0.1,0.2,0.2,0.2,0.3,0.4C917.47,459.59,917.47,459.59,917.67,459.59z"/>
    <path d="M958.47,489.09c0.2-0.2,0.3-0.3,0.6-0.4c0.4-0.2,8.2-5.2,12-9.2l0.6-0.6c-0.2-0.3-0.2-0.5-0.4-0.8 c-4.9-9.1-12.7-16.7-21.3-22.4c-0.4-0.3-0.6-0.4-1-0.7v1.5c0,0.3-0.4,1.4-0.6,2.2c-0.4,0.9-0.6,1.9-0.9,2.9c0,0.2-0.1,0.2-0.1,0.4 c0.1,0.2,0.1,0.2,0.2,0.4c2.9,6.1,8.3,19,10.6,25.9C958.27,488.59,958.37,488.79,958.47,489.09z"/>
    <path d="M937.17,495.19c5.8-0.1,14.1-3.1,19.2-5.1c0.3-0.1,0.5-0.2,0.9-0.3c-0.2-0.4-0.2-0.6-0.4-1.1c-2.4-6.8-8-20.3-10.3-25.4 c-0.1-0.2-0.2-0.3-0.3-0.5c-0.2,0.1-0.3,0.1-0.5,0.1c-0.7,0.3-1.7,0.7-2.8,1.1c-2.2,0.8-4.8,1.8-6.2,2.2c-0.2,0.1-0.4,0.1-0.6,0.1 v0.8c0,4.7-0.5,17.7-1.4,26.8c0,0.4-0.1,0.7-0.1,1.1c0.3,0.1,0.5,0.1,0.8,0.1C935.97,495.09,936.57,495.19,937.17,495.19z"/>
    <path d="M917.77,490.59c0.2,0.1,0.2,0.2,0.4,0.3c3.5,2.6,9.8,4.2,13.9,4.2h0.6c0.1-1,0.1-1.5,0.2-2.5c0.6-7.1,1.8-21.9,1.8-27.4 v-0.3c0-0.1-0.1-0.2-0.1-0.3c-1.5-2.9-5.5-7.5-7.3-9.5c-0.2-0.2-0.2-0.2-0.4-0.4c-0.2,0.2-0.2,0.2-0.4,0.4 c-2.3,2.7-5.7,5.2-8.2,6.6c-0.2,0.1-0.4,0.2-0.6,0.3c0,0.3,0.1,0.5,0.1,0.8c0.9,6.3,0.5,16.9,0,27.3V490.59z"/>
    <path d="M916.57,460.39c-7.6-5.4-17.9-2.6-22.5,0.9l-0.3,0.3v0.5c0,1.9-0.5,6.3-1,7.4c-0.2,0.4-0.3,0.7-0.4,1.1 c0.3,0.1,0.5,0.2,0.9,0.3c8.1,4.2,15.8,11.5,21.9,18c0.4,0.4,0.6,0.6,1,1c0.1-0.7,0.1-1,0.2-1.6c0.5-4.2,1-20.7,0.5-27.1v-0.5 C916.77,460.59,916.67,460.49,916.57,460.39z M894.56,469.29L894.56,469.29c0-0.1,0-0.2,0.1-0.3 C894.56,469.09,894.56,469.19,894.56,469.29z"/>
    <path d="M863.86,452.99c-0.6,0-2.1,0.6-2.7-0.1c0,1.4,0.6,2.6,1.1,3.4c0.6,1.9,5.3,0.9,5.3,0.9S866.06,453.19,863.86,452.99z"/>
    <path d="M867.76,451.99c-2.2-2.8-3.7-2.1-4.8-1.6c-0.3,0.3-0.7,0.4-1,0.4c-0.2,0.7-0.2,1.1-0.2,1.9c0.7,0,1.2-0.2,1.7-0.5 c1-0.5,1.5-0.7,3.1,1.1c1.2,1.6,3.1,2.3,4.3,2.4v-1.9C869.96,453.79,868.66,453.19,867.76,451.99z"/>
    <path d="M857.86,447.19c-0.3,0.5-0.7,1.2-0.9,1.7c-0.2,0.4-0.4,0.9-0.7,1.3c0.5,0.5,0.8,0.7,1.3,1.2c0.2-0.4,0.4-0.9,0.7-1.3 c0.8-1.6,1.7-3.2,2.8-4.1c-0.4-0.7-0.5-1-0.9-1.7C859.26,445.09,858.46,446.09,857.86,447.19z"/>
    <path d="M924.07,685.99c-0.1,0-0.1,0.1-0.1,0.1c-7.1,6.9-10.7,10.4-18,17.2c1.3,0.6,2.4,1.4,3.7,2.4c3,2,14.3,10.7,20.5,10.7 c5.8,0,17.1-8.7,19.8-10.8c1.2-1,2.3-1.8,3.5-2.4l-17.1-17.1c9.6-0.1,19.2-0.3,28.8-0.8c1.6-7,2.3-10.5,3.9-17.5 c-7.5-4.7-15-8.1-22.7,5c-2.8,4.7-9.4,11.3-16.1,11.3c-7.2,0-13.6-6.7-16.6-11.2c-7.3-7-14.9-13.4-24.9-4.9 c1.8,7,2.6,10.5,4.4,17.4C903.47,685.69,913.77,685.89,924.07,685.99z"/>
    <path d="M1009.37,681.79c-7.2,8.8-14.5,17.5-21.9,26.1c0.3,1.6,0.5,2.3,0.8,3.9c3.5-0.4,7-2.1,9.7-5.7c6.6-8.8,10.4-9.1,14.7-9.7 c0.7-10.3,1-20.7,1-31v-8.1c-5.3-0.9-8.4,2.2-14.6,11.1c-5.5,7.7-11.5,8.1-19.1,5.4c1,4.3,1.5,6.4,2.4,10.7 C993.37,683.69,998.77,683.09,1009.37,681.79z"/>
    <path d="M922.97,616.69c0-0.1-0.1-0.1-0.1-0.2l0,0C922.87,616.69,922.97,616.69,922.97,616.69z"/>
    <path d="M924.07,617.69c-0.4-0.3-0.8-0.6-1.1-1c0.3,0.5,0.6,0.9,1.1,1.5V617.69z"/>
    <path d="M868.26,615.29L868.26,615.29C868.26,615.29,868.16,615.29,868.26,615.29L868.26,615.29z"/>
    <path d="M940.57,623.19L940.57,623.19C940.57,623.19,940.67,623.19,940.57,623.19C940.67,623.19,940.57,623.19,940.57,623.19z"/>
    <path d="M940.87,622.89c-0.1,0.1-0.2,0.2-0.2,0.3C940.77,623.09,940.77,622.99,940.87,622.89z"/>
    <path d="M882.86,587.29c0.3-0.8,0.6-1.5,1.1-2.2l0,0l0,0h0.1c0-0.1,0-0.1,0-0.3l0,0l0,0c0.6-1.1,1.5-1.9,2.6-2.4 c-0.3-0.7-0.4-1.1-0.6-1.8c-0.6,0.4-1.2,0.8-1.7,1.2c-1,0.8-1.6,1.9-2.2,2.9c-1,2-1.4,4.1-1.7,5.3 C881.16,589.09,881.86,588.19,882.86,587.29z"/>
    <path d="M880.06,597.09c0.1-4.9,2.1-7.2,6.1-10.1c-0.3-0.7-0.5-1-0.8-1.7c-1,0.7-1.8,1.4-2.6,2.1c-1,0.9-1.7,1.9-2.4,2.8 c-1.6,2.5-2.3,5.7-1.6,10.4C879.06,599.39,879.56,598.19,880.06,597.09z"/>
    <path d="M889.86,604.19c-0.3,0.9-0.8,1.7-1.2,2.6c1.7-0.6,3.2-1.4,4.6-2.9c0-1.1,0.1-2.3,0.3-3.3 C892.26,602.49,891.06,603.49,889.86,604.19z"/>
    <path d="M901.97,561.99L901.97,561.99C901.97,562.09,901.97,562.09,901.97,561.99L901.97,561.99z"/>
    <path d="M900.27,592.09c0.8-0.1,1.7-0.6,2.2-1.2c2.1-0.1,3.7-2,4.3-4c0.8-0.5,1.4-2.2,1.8-3.7c0-0.1,0.1-0.4,0.1-0.5 c0.1,0,0.2,0,0.4-0.1c0.7-0.3,1.2-1.1,1.7-2.6c0.4,0.1,0.9,0,1.5-0.3c0.8-0.4,1.4-1.3,1.8-2.6c-0.6-0.3-0.9-0.4-1.4-0.7 c-0.2,0.7-0.5,1.1-0.9,1.4c-0.3,0.1-0.7,0.1-1,0c-0.3-0.2-0.5-0.3-0.8-0.6c-0.1,0.5-0.1,0.7-0.2,1.2c-0.3,1.4-0.6,1.9-0.8,2 c-0.2-0.3-0.4-0.5-0.6-0.8c-0.2,0.5-0.2,0.7-0.4,1.2c-0.2,0.4-0.3,1-0.4,1.5c-0.2,0.7-0.6,2.3-0.8,2.5h-0.5 c-0.1,0.3-0.1,0.4-0.2,0.7c-0.4,1.6-1.7,3.3-3.4,3.2h-0.3c-0.1,0.1-0.1,0.2-0.2,0.3c-0.4,0.5-1.2,0.9-2,0.9h-0.7v1 c0,0.3-0.3,1.4-0.7,1.9c0.4,0.6,0.6,0.8,1.1,1.4C899.46,593.79,900.07,592.89,900.27,592.09z"/>
    <path d="M895.06,583.39C895.06,583.59,895.16,583.59,895.06,583.39L895.06,583.39z"/>
    <path d="M893.56,583.99c0.1,0.3,0.2,0.6,0.3,0.7c0.3-0.2,0.8-0.6,1.2-1.3c-0.5-1.4-0.1-3.2,0.2-3.8c0-0.1,0-0.1,0-0.1 c0.3-1.2,0.4-3,0.5-5.1c0-0.1,0-0.1,0-0.3c-0.4-0.4-0.7-0.7-0.8-1c0-0.1-0.1-0.2-0.1-0.3c-0.1-0.3-0.3-0.8-0.3-2.2 c-0.1,1.1-0.2,2.3-0.3,3.4c-0.1,1.8-0.2,3.6-0.5,4.5C893.36,579.59,892.86,581.89,893.56,583.99z"/>
    <path d="M914.97,602.99h-1.4c-0.2,0.3-0.4,1.1-0.9,1.1v1.9C913.97,605.99,914.97,604.19,914.97,602.99z"/>
    <path d="M918.17,601.89h-1.4c0,0.9-0.8,2.7-1.2,3.2c0.4,0.6,0.6,0.8,1,1.4C917.17,605.69,918.17,603.49,918.17,601.89z"/>
    <path d="M921.67,600.69h-1.4c0,0.9,0,2.7-0.6,3c0.2,0.7,0.4,1.1,0.6,1.8C921.67,604.59,921.67,602.09,921.67,600.69z"/>
    <path d="M887.16,577.59c-0.1-0.2,0.1-0.3,0.2-0.3v-1.9c-0.2,0-0.4,0-0.5,0.1c-0.2,0.1-0.4,0.1-0.5,0.3c-0.1,0.1-0.3,0.3-0.4,0.3 v1.9h0.4C886.66,577.89,886.86,577.69,887.16,577.59z"/>
    <path d="M857.76,562.09v-1.9c-0.2,0-0.2,0-0.2,0s-0.2-0.1-0.3-0.3c0-0.1-0.1-0.1-0.1-0.1c-0.4,0.5-0.7,0.8-1.1,1.3 C856.76,561.99,856.96,562.09,857.76,562.09z"/>
    <path d="M859.06,569.49c-0.4,0-0.6,0-1-0.1v1.9h1V569.49z"/>
    <path d="M903.07,739.09c-2.5-10.3-5-20.6-7.5-30.9c8.1-7.4,12.1-11.2,20-18.8c-9.7-0.1-14.7-0.2-24.8-0.6 c-2.5-10.1-5-20.3-7.5-30.4c-2.6,10-5.3,19.9-7.9,29.9c-10.2-0.4-15.4-0.7-25.8-1.3c7,6.7,13.9,13.4,20.9,20.2 c-2.7,10.2-5.4,20.3-8.1,30.5c8.4-7.4,12.5-11,20.7-18.3C889.76,725.89,896.46,732.49,903.07,739.09z"/>
    <path d="M944.37,689.29c7.4,7.5,11,11.2,18.2,18.5c-2.3,10.4-4.7,20.8-7.1,31.1c7.3-7.9,10.9-11.9,18.1-19.9 c7.1,7.2,10.6,10.7,17.5,17.7c-2.2-10.1-4.4-20.1-6.6-30.2c7.1-8.2,10.6-12.4,17.5-20.9c-8.6,0.9-12.9,1.3-21.7,2 c-2.2-9.9-4.4-19.8-6.5-29.7c-2.3,10.2-4.6,20.4-6.9,30.6C958.07,688.99,953.57,689.09,944.37,689.29z"/>
    <path d="M922.87,760.99c-9.5-0.1-14.4-0.1-24.3-0.4c8,7.9,11.9,11.8,19.7,19.6c-2.5,10.3-5.1,20.5-7.6,30.7 c7.9-7.5,11.8-11.3,19.5-18.9c7.5,7.6,11.2,11.4,18.5,18.8c-2.3-10.2-4.7-20.5-7-30.7c7.5-7.8,11.3-11.7,18.6-19.7 c-9,0.4-13.6,0.5-22.9,0.6c-2.3-10-4.7-20.1-7.1-30.1C927.77,740.89,925.37,750.99,922.87,760.99z"/>
  </g>
</svg>