<svg viewBox="0 0 1200 1200" xmlns="http://www.w3.org/2000/svg">
  <g>
    <path d="M700.6,642.3c-0.1-0.2-0.3-0.4-0.4-0.6l0,0l-0.5-0.1c-2.8-0.4-4.4-0.6-7.3-1l0,0l0,0c-0.3,0.3-0.4,0.4-0.7,0.6 c-0.1,0.1-0.3,0.2-0.4,0.3l0,0v33.2h0.1c1.9,0.2,3.4,0.5,4.8,0.6c1.4,0.2,2.9,0.4,4.9,0.7h0.1v-33.2l0,0 C700.8,642.6,700.7,642.5,700.6,642.3z M698.9,675.5c-1.2-0.2-2.1-0.3-3-0.4c-0.7-0.1-1.5-0.2-2.4-0.3V643c1,0.1,1.9,0.3,2.7,0.4 c0.8,0.1,1.7,0.2,2.7,0.4V675.5z"/>
    <path d="M525.6,647.9h0.1v-33.2l0,0c-0.2-0.3-0.3-0.4-0.4-0.6c-0.1-0.2-0.2-0.3-0.4-0.6l0,0l0,0c-1.5-0.2-2.7-0.4-3.8-0.5 c-1.1-0.2-2.3-0.4-3.9-0.6l0,0l0,0c-0.3,0.3-0.4,0.4-0.7,0.6c-0.1,0.1-0.3,0.2-0.4,0.3l0,0v33.2h0.1 C519.9,647,521.8,647.3,525.6,647.9z M518.3,614.7c1,0.1,1.9,0.3,2.6,0.4c0.8,0.1,1.6,0.2,2.7,0.4v31.7c-1-0.1-1.9-0.3-2.6-0.4 c-0.8-0.1-1.6-0.2-2.7-0.4V614.7z"/>
    <path d="M668.5,637.9c-0.2-0.2-0.3-0.4-0.5-0.8l0,0l0,0c-1.4-0.2-2.4-0.4-3.4-0.5c-1.3-0.2-2.5-0.4-4.2-0.7l0,0l0,0 c-0.2,0.2-0.4,0.3-0.6,0.5c-0.1,0.1-0.3,0.3-0.5,0.4l0,0V670h0.2c3.8,0.6,5.6,0.9,9.4,1.4h0.1v-33.2l0,0 C668.7,638.1,668.6,638,668.5,637.9z M666.7,670.9c-1-0.1-1.9-0.3-2.6-0.4c-0.8-0.1-1.6-0.2-2.7-0.4v-31.7c1,0.1,1.9,0.3,2.6,0.4 c0.8,0.1,1.6,0.2,2.7,0.4V670.9z"/>
    <path d="M504.6,644.9c1.4,0.2,2.9,0.4,4.8,0.7h0.1v-33.2l0,0c-0.2-0.4-0.4-0.7-0.8-1.1l0,0l-0.5-0.1c-2.8-0.4-4.4-0.6-7.3-1h-0.1 l0,0c-0.3,0.3-0.4,0.4-0.7,0.6c-0.1,0.1-0.3,0.2-0.4,0.3l0,0v33.2h0.1C501.7,644.5,503.2,644.8,504.6,644.9z M502.2,612.5 c1,0.1,1.9,0.3,2.7,0.4c0.8,0.1,1.7,0.2,2.7,0.4V645c-1-0.1-1.9-0.3-2.7-0.4c-0.8-0.1-1.7-0.2-2.7-0.4V612.5z"/>
    <path d="M477.5,641.4c1.5,0.2,2.9,0.4,4.9,0.6h0.1v-33.3l0,0c-0.4-0.4-0.6-0.6-0.9-1.1l0,0l0,0c-1.6-0.2-2.7-0.3-3.9-0.5 c-1.2-0.2-2.4-0.3-4-0.5l0,0l0,0c-0.2,0.2-0.4,0.3-0.5,0.4c-0.2,0.1-0.4,0.3-0.6,0.5l0,0v33.2h0.1 C474.6,641,476.1,641.2,477.5,641.4z M474.9,609c1.1,0.1,1.9,0.2,2.7,0.3c0.8,0.1,1.7,0.2,2.8,0.3v31.7c-1.1-0.1-1.9-0.2-2.7-0.3 c-0.8-0.1-1.7-0.2-2.8-0.3V609z"/>
    <path d="M409.4,634.2c1.5,0.1,3,0.2,5,0.4h0.1v-33.3l0,0c-0.3-0.5-0.5-0.7-0.9-1.1l-0.1,0.1l0.1-0.1l0,0l0,0 c-1.6-0.1-2.8-0.3-4-0.4c-1.2-0.1-2.4-0.2-4-0.3l0,0l0,0c-0.3,0.3-0.6,0.5-0.9,0.7l-0.2,0.2v33.3h0.1 C406.4,634,407.9,634.1,409.4,634.2z M406.8,601.9c1.1,0.1,1.9,0.2,2.7,0.2c0.8,0.1,1.7,0.1,2.8,0.2V634l-1.6-0.1 c-1.3-0.1-2.3-0.2-3.9-0.3V601.9z"/>
    <path d="M941,222.9c-280.7,0-416.7-67.9-681.3-67.9C175.2,155,89.1,178,0,222.9v820c89-44.9,175.2-63.6,259.7-63.6 c268.9,0,398.5,65.7,680.3,65.7c84.6,0,170.8-22,260-66.9V155C1110.8,200,1025.6,222.9,941,222.9z M1170,959.3 c-36.8,17.4-73.5,30.8-109.2,40c-40.5,10.4-81.1,15.7-120.8,15.7c-140.1,0-243.6-16.8-343.7-33c-98.9-16.1-201.3-32.7-336.6-32.7 c-45.7,0-91.1,5.3-135.1,15.8C93,972.6,61.3,982.9,30,996V823.8c86.3-37.2,172.9-51.9,268.8-49.6c100.9,2.4,201.9,14.3,301.2,32.2 c99.4,17.9,200.3,30.4,301.3,32.8c95.7,2.3,183.2-13.7,268.7-52.8V959.3z M423.6,725.1v23.7c-33.9-3.1-66.8-5.5-97.8-7v-23.7 C356.8,719.6,389.7,722,423.6,725.1z M423.6,699.3v23.5c-30.1-2.8-57.7-4.9-84.3-6.4v-23.5C365.9,694.4,393.5,696.5,423.6,699.3z M365.9,672.6c19.3,1.4,38.8,3,57.7,4.8V697c-28.4-2.7-50.1-4.4-70.4-5.6v-19.8l3.1,0.2C359.5,672.1,361.9,672.3,365.9,672.6z M423.6,660.7v14.2c-20.4-1.9-38.9-3.5-56.6-4.7V656C384.2,657.3,402.7,658.8,423.6,660.7z M392.6,578.3v0.5h0.1 c0.6,0.1,1,0.1,1.5,0.1c0.4,0,0.9,0,1.4,0.1h0.1c0.3,0.5,0.5,0.9,0.8,1.3c0.3,0.5,0.6,1.1,1.1,1.8v51h0.1c0.4,0,0.7,0.1,1,0.1 s0.6,0,1,0.1h0.1v-51.4l0,0c-0.4-0.7-0.6-1.1-0.9-1.6c-0.2-0.4-0.5-0.9-0.8-1.4c0.6,0.1,1.2,0.1,1.7,0.1c3.2,0.3,5.8,0.5,9.8,0.9 c0,0,0,0,0.1,0c0.7,0.7,1.3,1.3,1.9,1.8c1.7,1.7,3.1,3,5.2,5.1v48h0.1c0.5,0.1,0.8,0.1,1.1,0.1c0.3,0,0.6,0,1.1,0.1h0.1v-49l0,0 c-2.4-2.3-3.7-3.5-6.2-5.8c1.3,0.1,2.3,0.2,3.3,0.3c1.1,0.1,2.2,0.2,3.6,0.3v2.5h-0.1v0.1c0,0.1,0,0.2,0.1,0.3v1.8h0.1 c0.5,0.1,0.8,0.1,1.3,0.1l0.8,1.1c1.4,1.9,2.3,3.2,3.9,5.4v43.6h0.1c0.5,0.1,0.8,0.1,1.1,0.1c0.3,0,0.6,0,1.1,0.1h0.1v-44.2l0,0 c-0.9-1.4-1.7-2.4-2.4-3.4c-0.5-0.7-1-1.4-1.7-2.3c1.4,0.1,2.6,0.3,3.7,0.4c1.1,0.1,2.3,0.2,3.8,0.4v49.6h0.1 c0.4,0,0.8,0.1,1.1,0.1c0.3,0,0.7,0,1.1,0.1h0.1V587c6.7,0.7,10.2,1.1,16.6,1.8l0.9,0.1v49.6h0.1c0.5,0.1,0.8,0.1,1.1,0.1 c0.3,0,0.6,0,1.1,0.1h0.1V589c2.9,0.3,4.4,0.5,7.1,0.8h0.3c-1.5,1.8-2.3,2.8-3.7,4.5l-0.5,0.6v44.2h0.1c0.4,0,0.8,0.1,1.1,0.1 c0.3,0,0.7,0.1,1.1,0.2h0.1V596c1.8-2.4,2.6-3.5,4.6-5.8l0.1-0.1c0.2,0,0.4,0.1,0.6,0.1s0.4,0,0.6,0.1h0.1v-2.1l0,0 c0.1,0,0.1-0.1,0.1-0.2l0,0l-0.1,0.1v-2.2c2.1,0.2,3.8,0.4,5.4,0.6c0.4,0.1,0.8,0.1,1.3,0.2c-1.1,0.8-1.9,1.4-2.7,2 c-0.9,0.7-1.9,1.4-3.1,2.3l0,0v49.1h0.1c0.4,0,0.7,0.1,1,0.1s0.6,0,1,0.1h0.1v-48.1c1.4-1.1,2.5-1.9,3.6-2.7c1-0.8,2-1.5,3.3-2.5 c0.3,0,0.6,0.1,0.9,0.1c0.2,0,0.3,0,0.3,0.1l0.1,0.1v-0.2c0,0,0,0,0-0.1c1.3,0.1,2.4,0.3,3.5,0.4c1.8,0.2,3.5,0.5,5.7,0.7 c0.2,0,0.4,0.1,0.7,0.1l0.8,0.1c0,0,0.1,0.1,0.2,0l0,0c0.4,0,0.7,0.1,1.1,0.1c0.2,0,0.5,0.1,0.8,0.1c-0.4,0.4-0.8,0.8-1.2,1.1 c-0.4,0.4-0.8,0.8-1.3,1.3l0,0v51.5h0.1c0.4,0,0.8,0.1,1.1,0.1c0.3,0,0.7,0.1,1.1,0.2l0,0v0.1h0.1c2,0.3,3,0.4,5,0.6h0.1v-33.3l0,0 c-0.5-0.5-0.7-0.7-1.1-1.2l0,0h-0.2c-1.5-0.2-2.3-0.3-3.7-0.5l0,0v-3.9c19.7,2.6,40,5.5,61.9,8.8v3.9c-0.7-0.1-1.2-0.2-1.7-0.3 c-0.6-0.1-1.1-0.2-1.9-0.3l0,0l0,0c-0.4,0.3-0.6,0.5-1,0.9l0,0v33.2h0.1c1,0.2,1.8,0.3,2.5,0.4c0.7,0.1,1.4,0.2,2.2,0.4l0,0h0.1 c0.4,0,0.6,0.1,0.9,0.1c0.3,0.1,0.7,0.1,1.2,0.2h0.1V603l0,0c-0.8-1.3-1.4-2.2-2.1-3.1c-0.6-0.9-1.2-1.8-2-3 c8.7,1.4,13.2,2.1,21.9,3.6v19.9c-0.9-0.1-1.7-0.3-2.4-0.4s-1.5-0.2-2.5-0.4l0,0l0,0c-0.4,0.3-0.6,0.5-1,0.9l0,0v33.2l6,1l0,0H572 l-6-1c-4.8-0.8-7.2-1.2-12-1.9c-0.4,0-0.6-0.1-0.9-0.1c-0.3-0.1-0.7-0.1-1.2-0.2c-1-0.2-1.8-0.3-2.5-0.4c-0.7-0.1-1.5-0.3-2.5-0.4 c-1-0.2-1.8-0.3-2.5-0.4c-0.7-0.1-1.5-0.2-2.5-0.4c-1.5-0.2-2.7-0.4-3.9-0.6c1.2,0.2,2.4,0.4,4,0.6h0.1v-33.2l0,0 c-0.3-0.5-0.5-0.8-0.8-1.2l0,0l0,0c-3-0.5-4.5-0.7-7.5-1.1l0,0l0,0c-0.2,0.2-0.4,0.3-0.6,0.5c-0.1,0.1-0.3,0.3-0.5,0.4l0,0v33.2 h0.1c0.8,0.1,1.5,0.2,2.1,0.3c-0.7-0.1-1.5-0.2-2.4-0.3c-1.2-0.2-2.1-0.3-3.1-0.5c-0.9-0.1-1.8-0.2-3-0.5c-2-0.3-3.5-0.5-4.9-0.7 c-1.5-0.2-2.9-0.4-4.9-0.7c-2.3-0.3-3.5-0.5-5.7-0.8l-0.5-0.1c-2-0.2-3.5-0.5-4.9-0.6c-1.5-0.2-3-0.4-4.9-0.6 c-1-0.1-1.8-0.2-2.5-0.3c-0.9-0.1-1.7-0.2-2.9-0.4c-2-0.3-3-0.4-5-0.6c-0.4,0-0.8-0.1-1.1-0.1c-0.3,0-0.7-0.1-1.1-0.2h-0.5 c-1.5-0.2-2.5-0.3-4.1-0.5c-1-0.1-1.9-0.2-2.7-0.3c-2.4-0.3-4.3-0.6-7.4-0.9c-0.9-0.1-1.5-0.2-2.1-0.2c-0.6-0.1-1.2-0.1-2.1-0.2 c-0.4,0-0.7-0.1-1-0.1s-0.6,0-1-0.1c-1.3-0.1-2.3-0.3-3.2-0.4c-1.2-0.1-2.3-0.3-3.9-0.4c-0.4,0-0.8-0.1-1.1-0.1 c-0.3,0-0.7-0.1-1.1-0.1c-0.7-0.1-1.2-0.2-1.8-0.2c-0.5,0-1-0.1-1.7-0.2c-0.4,0-0.7-0.1-1-0.1s-0.6,0-1-0.1 c-7.1-0.8-10.7-1.2-17.9-1.9c-0.4,0-0.7-0.1-1-0.1s-0.6,0-1-0.1c-1.4-0.1-2.1-0.2-3.5-0.4l0,0c-0.5-0.1-0.8-0.1-1.1-0.1 c-0.3,0-0.6,0-1.1-0.1c-1.4-0.2-2.5-0.3-3.6-0.4c-1-0.1-2-0.2-3.3-0.3c-0.4,0-0.8-0.1-1.1-0.1c-0.3,0-0.7,0-1.1-0.1 c-0.4,0-0.8-0.1-1.1-0.1c-0.3,0-0.7,0-1.1-0.1h-0.1c-4-0.4-6-0.6-9.9-0.9c-0.5,0-0.9-0.1-1.3-0.1c-0.5-0.1-1-0.1-1.6-0.2 c-0.5-0.1-0.8-0.1-1.1-0.1c-0.3,0-0.6,0-1.1-0.1c-0.4-0.1-0.7-0.1-1-0.1s-0.6,0-1-0.1c-0.2,0-0.4,0-0.6,0s-0.4,0-0.7,0 c-0.1,0-0.2,0-0.3,0c0.1,0,0.2,0,0.3,0h0.1v-41.5l0,0c-1.5-5.5-6.2-10.6-9.9-12.4v-37.5c3,1,4.9,4.2,5.7,5.6 c0.1,0.2,0.2,0.3,0.2,0.4v30.6L392.6,578.3L392.6,578.3z M403.8,544.3c1,0.1,2.1,0.2,3.4,0.3v26.7c-2-3.1-4.8-5.4-7-7 c-0.1,0-0.1-0.1-0.2-0.1V564h0.2v-20.1C401.6,544.1,402.7,544.2,403.8,544.3z M400.2,541.6v-4.3c1.4,0.1,2.5,0.2,3.5,0.3 s2.1,0.2,3.5,0.3v4.3c-1.3-0.1-2.4-0.2-3.4-0.3C402.7,541.9,401.6,541.8,400.2,541.6z M407.4,577.3c-5.1-0.4-7.7-0.6-12.8-1.1 v-13.1C400.2,566.3,405.6,570.3,407.4,577.3z M397.6,562.7c-1-0.6-2-1.2-3-1.7l0,0c-0.1,0-0.1,0-0.1-0.1c-0.1-0.1-0.1-0.1-0.2-0.1 l-1.6-1.1v-0.1l1.4,0.9l0,0c0.1,0,0.1,0,0.1,0.1c0.1,0.1,0.1,0.1,0.3,0.1h0.1v-28.2c0.8-0.4,1.9-0.3,3.1,0.3v29.9L397.6,562.7 L397.6,562.7z M420,521.4l-0.1-0.2c-1.1-1.9-2.7-4.8-1.5-9.3c1.7,2.6,4,4.1,5.5,3.7c0.5-0.1,0.9-0.3,1.2-0.7c0.2-0.4,0.4-1.1,0-2.2 c-0.4-1.9-1.3-3.4-2.2-4.8l-0.2-0.4c-1-1.8-1.9-3.4-1.4-6.3c0.7,1.3,1.7,2.3,2.8,3c1.2,0.4,2,0.3,2.5-0.2c0.9-0.7,1.2-1.9,0.7-3.7 c-0.2-0.6-0.4-1.2-0.6-1.7c-0.2-0.6-0.4-1.1-0.5-1.5l-0.1-0.2c-0.8-2.2-1.4-3.8-0.7-6.3c1.1,2.7,2.2,3.9,3.5,3.9l0,0 c0.4,0,0.9-0.1,1.2-0.4c0.7-0.6,1.1-1.9,1.1-3.8v-0.6c0-2,0-4,0.2-5.9l4.9-7.7c1-0.5,2.1-0.8,3.4-1.1c0.3-0.1,0.4-0.1,0.7-0.1h0.1 v-0.7c0-0.9,0.5-3.5,1.7-4.5c0.3-0.3,0.7-0.4,1.1-0.4c1.7,0.2,2.8,4,2.8,5.6v0.7h0.1c0.1,0,0.2,0.1,0.3,0.1 c0.1,0.1,0.2,0.1,0.4,0.2c8.5,3.4,8.5,9.8,8.5,16.5v0.6c0,4.1,1.8,4.6,2.3,4.7c1.4,0.4,2.6-0.7,3.5-3.1c0.8,2.8,0.1,4.3-0.8,6.3 l-0.1,0.3c-0.4,0.8-0.8,1.6-1,2.8c-0.4,1.7-0.2,3,0.7,3.9c0.8,0.8,1.7,0.8,2.5,0.7c1.1-0.3,2.1-1.2,2.8-2.3 c0.5,2.7-0.3,4.2-1.3,5.8c-0.1,0.1-0.2,0.3-0.3,0.4l-0.2,0.4c-0.6,1.1-1.4,2.3-2,4c-0.4,1.4,0,2.5,1.2,3.1c1.4,0.6,3.9-0.2,5.5-2.5 c1.2,5-0.5,7.6-1.5,9.2c-0.6,0.9-2.5,4-1.1,6.6c0.7,1.1,1.6,1.6,3.2,1.8c4.5,0.5,6.6-3.1,7.8-5.3c0.2-0.3,0.3-0.6,0.5-0.9v54.4 c-0.2,0.5-0.3,1-0.4,1.5h-0.3c-4.2-0.5-6.5-0.8-10.8-1.3v-10.1l-0.2,0.2c-0.2,0.3-0.5,0.3-0.9,0.4c-0.1,0-0.3,0.1-0.4,0.1 c-2.1,0.4-4.1,1.1-6.2,2.2c-0.2-0.8-0.4-1.5-0.6-2.1l0.4-0.4c2.5-2.3,7.1-6.5,8.3-8.9V552h-0.1c-0.4,0-0.7,0-1.1,0.1 c-0.3-0.1-0.5,0-0.8,0c-0.1,0-0.3,0-0.4,0c1.3-1.9,2.3-3.5,2.3-5v-12.4h-0.1c-0.4,0-0.7,0-1.1,0.1c-3.4,0-6.5,1.6-9,4.6 c-0.4-1.9-1.2-3.6-1.8-4.9c-0.1-0.3-0.2-0.6-0.4-0.9c-0.2-0.4-0.4-0.9-0.5-1.3c-2.2-5.1-5.3-9.2-9.5-12.4c-0.1-0.1-0.2-0.2-0.3-0.2 c-0.1-0.1-0.2-0.2-0.4-0.3l0,0l0,0c-0.2,0.1-0.3,0.1-0.4,0.2c-0.1,0-0.2,0.1-0.4,0.2c-4.3,2.4-7.2,5.6-9.4,10 c-1.7-1.8-4.3-4.8-4.9-6.6v-5.7c2.3,0.6,3.8,1.7,5.1,3.7c0.3,0.4,0.5,0.7,0.7,1s0.4,0.6,0.6,1l0.1,0.2l0.1-0.2 c0.1-0.5,0.2-0.8,0.4-1.1c0.1-0.3,0.2-0.6,0.4-1.1c1.6-5.1,3.9-6.4,8.1-8.5c4.8,3.2,6.8,5.1,8.1,10.3c0.1,0.4,0.2,0.8,0.3,1.1 c0.1,0.3,0.2,0.7,0.4,1.2l0.1,0.2l0.1-0.2c0.2-0.3,0.5-0.6,0.6-0.8c0.2-0.2,0.4-0.5,0.7-0.9c1.4-2,3.3-2.5,5.1-2.6v5.9 c-0.2,1.5-2.8,4.1-5.3,5.9h-0.1v0.1c0.1,0.2,0.2,0.5,0.3,0.8c0.2,0.4,0.4,0.9,0.6,1.4v0.2l0.1-0.1c4.2-3.3,6.3-5.9,6.6-7.8v-8.3 h-0.1c-0.4,0-0.7,0-1.1,0.1c-2.6-0.1-4.8,0.5-6.5,1.8l0,0c0-0.1-0.1-0.2-0.1-0.2c1.9-2,2.9-3,4.9-5l0,0v-8.3h-0.1 c-0.4,0-0.7,0-1.1,0.1c-2.1,0-3.3,0.4-4.6,1.6v-0.1c-0.1-0.3-0.3-0.5-0.4-0.7v-0.1c0.3-0.7,0.6-1.2,0.9-1.7s0.6-1.1,0.9-1.8v-6.9 h-0.1c-0.4,0-0.7,0-1.1,0.1c-1.1,0.1-2,0.2-2.8,0.7c0-0.1-0.1-0.1-0.1-0.1l-0.1-0.1l0,0l0,0l0,0l0.1-0.1c1.8-1.2,2.7-1.8,4.4-3l0,0 v-5.8h-0.1c-0.4,0-0.7,0-1.1,0.1c-1.2,0.1-2,0.2-2.8,0.7c-1-2.2-2.9-4.1-5.5-5.8c-0.2-0.1-0.3-0.2-0.4-0.3l-0.1-0.1h-0.1 c-0.1,0-0.1,0.1-0.2,0.1s-0.2,0.1-0.2,0.1c-2.6,1.1-4.4,2.5-5.5,4.2c-0.9-0.7-1.8-1-2.8-1.2c-0.2,0-0.4-0.1-0.5-0.1 c-0.2-0.1-0.4-0.1-0.6-0.2h-0.1v5.8l0,0c1.7,1.4,2.6,2.2,4.1,3.5l0,0c0,0.1,0.1,0.1,0.2,0.2c-0.1,0.2-0.3,0.3-0.4,0.5l0,0l0,0 c0,0.1,0,0.1-0.1,0.1l-0.1,0.1c-0.9-0.7-1.8-1-2.8-1.2c-0.2,0-0.4-0.1-0.5-0.1c-0.2-0.1-0.4-0.1-0.6-0.2h-0.1v6.5l0,0 c0.4,0.8,0.7,1.5,1,2.1c0.2,0.5,0.5,1,0.8,1.6c-0.1,0.1-0.2,0.2-0.2,0.3c-0.1,0.3-0.3,0.5-0.5,0.7c0,0.1-0.1,0.1-0.1,0.2 c-1.2-1.3-2.6-2-4.4-2.4c-0.2,0-0.4-0.1-0.5-0.1c-0.2-0.1-0.4-0.1-0.6-0.2h-0.1v8.4l0,0c1.4,1.6,2.2,2.7,3.2,4 c0.4,0.5,0.8,1.1,1.3,1.7c0,0.1,0,0.1-0.1,0.2c-2-2.2-4.5-2.8-6.5-3.2c-0.2,0-0.4-0.1-0.5-0.1c-0.2-0.1-0.4-0.1-0.6-0.2h-0.1v8.5 l0,0c0.6,2.2,3.7,5.8,6,8.2c-0.1,0.1-0.1,0.3-0.1,0.4c-0.4,0.8-0.6,1.6-0.9,2.4c-0.3,0.7-0.5,1.5-0.8,2.2c-2.5-3.5-5.6-5.8-9.1-6.6 c-0.2,0-0.4-0.1-0.5-0.1c-0.2-0.1-0.4-0.1-0.6-0.2h-0.1v12.5c0.2,1.4,1.2,3.2,2.7,5.6c-0.1,0-0.3-0.1-0.4-0.1 c-0.3-0.1-0.7-0.2-0.9-0.4l0,0c-0.2,0-0.4-0.1-0.5-0.1c-0.2-0.1-0.4-0.1-0.6-0.2h-0.1V560l0.2,0.2c1.2,1.9,4,5.2,6.2,7.9 c0.8,0.9,1.5,1.7,2,2.4l0.1,0.1l0.1-0.1c0.1-0.1,0.2-0.2,0.3-0.2l0,0c-0.4,0.8-0.7,1.8-0.9,2.6c-1.8-1.2-3.8-2.2-5.9-3.2 c-0.2-0.1-0.4-0.2-0.5-0.3c-0.3-0.2-0.6-0.3-1.1-0.5l-0.1-0.1v9.1c-2-0.2-3.5-0.3-5-0.5c-1.5-0.1-3-0.3-5-0.5 c0-0.2-0.1-0.3-0.1-0.4s-0.1-0.2-0.1-0.3v-54.7c0.1,0.3,0.3,0.6,0.5,0.9c1.6,3.4,3.6,6.6,7.8,7c1.2,0.1,2.4-0.3,3.2-1.1 C422.5,526,420.6,522.4,420,521.4z M427.5,489.9v-0.3l1.6-2.5c0,1,0,1.9,0,2.8v0.6c0,1.1-0.2,1.6-0.3,2 C428.5,492.1,428,491.4,427.5,489.9z M437.7,473.7l0.3-0.5c0.2-1.8,1.3-6.4,5.1-6c0.8,0.1,1.4,0.4,2,0.8c-0.4-0.2-0.9-0.4-1.5-0.5 c-3.8-0.5-4.8,4-5.2,5.9v0.1C438.1,473.6,437.9,473.7,437.7,473.7z M422.2,542.6v-9.8c2.8,1.1,5.4,3.6,7.3,7.2 c0.3,0.5,0.5,0.9,0.7,1.2s0.4,0.7,0.6,1.2l0.1,0.2l0.1-0.2c0.2-0.5,0.3-0.9,0.4-1.3c0.1-0.4,0.2-0.8,0.4-1.3 c2.1-8.7,5.6-14.2,11.2-17.9c5.6,4.8,9.1,11.1,11.2,20.3c0.1,0.5,0.3,1,0.3,1.4c0.1,0.4,0.2,0.9,0.4,1.4l0.1,0.2l0.1-0.2 c0.3-0.4,0.5-0.7,0.7-1.1c0.2-0.3,0.4-0.6,0.6-1c1.9-3.2,4.4-5.1,7.3-5.6v9.8c0,1.2-1.6,3.6-4.4,6.6l-0.2,0.2l0,0 c-1.2,0.8-2.4,1.6-3.4,2.9c-2.2-8.1-5.7-13.5-12.2-18.5c-0.1-0.1-0.2-0.2-0.3-0.2c-0.1-0.1-0.2-0.2-0.4-0.3l0,0l0,0 c-0.2,0.1-0.3,0.1-0.4,0.2s-0.2,0.1-0.4,0.2c-6.3,3.7-9.7,8.2-12.2,15.9c-0.9-1.3-2-2.4-3.2-3.5c-1.3-1.2-2.6-1.8-3.8-2.4 c1.9,0.6,3.1,1.3,4,2.3l0.2-0.1C425,547.8,422.5,544.2,422.2,542.6z M422.3,549.9c2.8,1.1,5.4,3.6,7.3,7.2c0.3,0.5,0.5,0.9,0.7,1.2 s0.4,0.7,0.6,1.2l0.1,0.2l0.1-0.2c0.2-0.5,0.3-0.9,0.4-1.3c0.1-0.4,0.2-0.8,0.4-1.3c1.9-8.2,5.1-12.8,11.2-16.6 c6.1,5.1,9.3,10.5,11.2,19.1c0.2,0.5,0.3,1,0.4,1.4s0.2,0.8,0.3,1.4l0.1,0.2l0.1-0.2c0.2-0.4,0.4-0.7,0.6-1s0.4-0.7,0.7-1.1 c1.9-3.2,4.4-5.1,7.3-5.6v9.6c-1.1,1.9-5.1,5.6-7.5,7.8c-2.5-5.9-6.5-10.6-12.8-15.4c-0.1-0.1-0.2-0.2-0.3-0.2 c-0.1-0.1-0.2-0.2-0.4-0.3l0,0l0,0c-0.2,0.1-0.3,0.1-0.4,0.2c-0.1,0-0.2,0.1-0.4,0.2c-6.1,3.2-10,6.9-12.6,11.9 c-2.6-2.9-5.7-6.8-6.9-8.7v-9.7L422.3,549.9L422.3,549.9z M455.8,577.5c-0.1,0.1-0.2,0.1-0.3,0.2c-0.8,0.5-1.5,1-2.1,1.6 c-1.9-6.1-4.9-9.6-9.3-14.3c-0.1-0.2-0.3-0.3-0.4-0.5c-0.4-0.5-0.7-0.8-1.2-1.3l-0.1-0.1l-0.1,0.1c-0.2,0.2-0.3,0.3-0.5,0.4 s-0.2,0.2-0.5,0.4c-4.4,4.1-7.3,7.1-9.3,13.1c-0.8-0.8-1.7-1.7-2.7-2.6c1.9-6.3,4.8-11.2,13.2-15.6 C451,565.2,453.9,570.7,455.8,577.5z M431.8,579.8l1.4,2.8l0.1-0.2c0.2-0.5,0.3-0.9,0.4-1.3s0.2-0.8,0.3-1.3 c1.8-7,4.6-9.9,8.5-13.6c3.8,4.2,7.4,8.1,9.2,15.5c0.2,0.6,0.3,1,0.4,1.4s0.2,0.8,0.3,1.4l0.1,0.2l0.1-0.2c0.2-0.4,0.4-0.8,0.6-1.1 c0.2-0.4,0.4-0.7,0.6-1.1c1.3-2.2,5-4.4,9.3-5.6V588c-1.8-0.2-3.3-0.4-4.6-0.5c-1.4-0.2-2.9-0.4-4.8-0.5l-2.4-0.3 c-7.2-0.8-11.5-1.3-19.5-2.1l-9.4-1v-11.2C427.3,574.5,430.8,577.4,431.8,579.8z M438.7,495c-1.4-1.2-2.1-1.8-3.5-3.1v-2.1 c0.4,0.3,0.8,0.7,1.4,1.3c0.1,0.2,0.3,0.3,0.4,0.5c0.3,0.3,0.5,0.6,0.9,1.1l0.1,0.1l0.1-0.2c0.2-0.4,0.3-0.6,0.4-0.9 s0.2-0.5,0.4-0.9c0.7-2.2,2.2-3.6,4.6-4.5c2.4,1.6,4,3.6,4.5,5.6c0.1,0.3,0.2,0.6,0.3,0.8c0.1,0.4,0.2,0.7,0.4,1.1l0.1,0.1l1.4-1.4 c0.3-0.2,0.5-0.4,0.6-0.5c0.2-0.2,0.4-0.4,0.7-0.5v2.1c-0.6,0.4-1.1,0.8-1.6,1.1c-0.5,0.4-1,0.7-1.6,1.1H448l0.1,0.1c0,0,0,0,0,0.1 c-1.1-1.4-2.4-2.5-4-3.3c-0.2-0.1-0.3-0.2-0.4-0.3l-0.1-0.1h-0.1c-0.1,0-0.1,0.1-0.2,0.1s-0.2,0.1-0.2,0.1c-1.6,0.7-2.9,1.5-4,2.5 c-0.2,0.3-0.4,0.5-0.6,0.7l-0.1,0.1l-0.2-0.2v-0.1c0-0.2,0.2-0.5,0.6-0.7l0.1-0.1L438.7,495z M438.3,500.1c0.1-0.3,0.2-0.5,0.4-0.9 c0.7-2.2,2.2-3.6,4.6-4.5c1.7,1.2,3.8,3.1,4.5,5.8c0.1,0.3,0.2,0.6,0.3,0.8c0.1,0.4,0.2,0.7,0.4,1.1l0.1,0.1l1.4-1.4 c0.3-0.2,0.5-0.4,0.6-0.5c0.2-0.2,0.4-0.4,0.7-0.5v3.5c-0.2,0.5-0.4,0.9-0.6,1.2c-0.2,0.4-0.4,0.8-0.7,1.3l0,0l0,0 c-1.3-1.4-2.9-2.4-4.6-3.4c-0.3-0.2-0.8-0.6-1.3-0.8l-0.3-0.2c-0.2-0.1-0.3-0.2-0.4-0.3l-0.1-0.1h-0.1c-0.1,0-0.1,0.1-0.2,0.1 s-0.2,0.1-0.2,0.1c-0.2,0.1-0.4,0.2-0.6,0.2c-0.5,0.2-0.9,0.3-1.2,0.6c-0.2,0.1-0.4,0.2-0.6,0.3c-1.4,0.6-2.7,1.2-3.8,2 c-0.1,0.1-0.3,0.3-0.5,0.5c-0.2,0.1-0.4,0.3-0.5,0.5c0-0.4,0.3-0.7,0.6-1c0.1-0.1,0.1-0.1,0.2-0.2l0.1-0.1l-1.3-2.6v-3.5 c0.4,0.3,0.8,0.7,1.4,1.3c0.1,0.2,0.3,0.3,0.4,0.5c0.3,0.3,0.5,0.6,0.9,1.1l0.1,0.1l0.1-0.2C438.1,500.7,438.2,500.4,438.3,500.1z M435.8,509.4c1.1-3.3,2.9-4.1,6.1-5.2c0.2-0.1,0.4-0.2,0.6-0.2c0.2-0.1,0.4-0.1,0.6-0.2c0.4,0.3,0.7,0.5,1.1,0.7 c3.2,2.1,5.3,3.6,6.4,7c0.1,0.3,0.2,0.6,0.3,0.8c0.1,0.4,0.2,0.8,0.4,1.3l0.1,0.2l0.1-0.2c0.2-0.3,0.5-0.6,0.6-0.8 c0.2-0.2,0.4-0.5,0.7-0.9c1-1.4,1.9-1.9,2.9-2.2v4.9c-0.7,0.7-1.3,1.3-1.9,1.8s-1.1,1.1-1.9,1.8c-1.7-3-4-4.9-8-7.6 c-0.1-0.1-0.2-0.2-0.3-0.2c-0.1-0.1-0.2-0.2-0.4-0.3l0,0l0,0c-0.2,0.1-0.3,0.1-0.4,0.2c-0.1,0-0.2,0.1-0.3,0.1 c-0.3,0.1-0.6,0.3-0.9,0.4c-3.1,1.6-5.4,2.7-7.1,5.3l0,0c-0.8-0.9-1.3-1.6-1.9-2.3s-1.1-1.3-1.9-2.2v-4.9c1,0.3,1.8,1.1,2.9,2.7 c0.3,0.4,0.5,0.7,0.7,1s0.4,0.6,0.6,1l0.1,0.2l0.1-0.2c0.1-0.4,0.3-0.7,0.4-1C435.5,510.1,435.6,509.8,435.8,509.4z M492.3,570.8 c0.1,0,0.2,0,0.3,0c0.1,0,0.2,0,0.3,0c-0.1,0-0.1,0.1-0.2,0.1C492.6,570.8,492.5,570.8,492.3,570.8c0,0.1-0.1,0.1-0.3,0.1l0,0 c-0.5,0.2-0.8,0.3-1.2,0.5c-0.2,0.1-0.5,0.2-0.8,0.3v-13.3c0.6-0.1,1.4,0,2.2,0.3v12.1L492.3,570.8L492.3,570.8z M544.3,573.4h0.1 v6.7h-0.1c-18.7-2.8-35.1-5.1-50-7.1v-2.8c0.1,0,0.1-0.1,0.2-0.1h0.1v-3.7C514.6,569,529.9,571.2,544.3,573.4z M494.6,564.3v-2.5 c20,2.6,35.3,4.8,49.7,7h0.1v2.5h-0.1C525.8,568.5,509.5,566.2,494.6,564.3z M544.3,582.2h0.1v3.3h-0.1c-18.7-2.8-35-5.1-50-7.1 v-3.3C514.5,577.8,529.9,580,544.3,582.2z M544.3,587.8h0.1v7.1c-16.6-2.6-33.6-4.9-50-7.2h-0.1v-7 C514.4,583.4,529.9,585.6,544.3,587.8z M547.3,597.4c0.3,0.5,0.6,0.9,0.9,1.3c0.4,0.5,0.7,1,1.1,1.7c-18.8-2.9-38.3-5.7-59.5-8.5 c0.4-0.5,0.8-0.9,1.1-1.3c0.3-0.4,0.7-0.8,1.1-1.3h0.1C512.1,592.2,530.2,594.8,547.3,597.4z M550.3,592c3.7,0.6,6.2,1,8.9,1.4 c1.7,0.3,3.4,0.6,5.6,0.9c0.2,0,0.3,0.1,0.4,0.1c1.9,1.3,3.5,2.5,4.8,3.9c-7.6-1.3-12.1-2-18.9-3.1c-1.4-0.2-2.8-0.4-4.4-0.7v-53.8 c1.2,1,2.7,2.6,3.5,4.9L550.3,592L550.3,592z M579.7,476.8c0.2,0,0.2,0,0.4,0.1l0,0c2.8,0.5,4.4,0.7,7.1,1.3v0.1l0,0 c1.4,1.3,2.5,2.3,3.5,3.2c1,0.9,1.9,1.7,3.2,2.9h0.1h0.1c0.2-0.1,0.4-0.2,0.5-0.3c-0.1,0.1-0.1,0.3-0.2,0.4 c-0.2,0.5-0.3,0.9-0.5,1.4c-0.1,0.5-0.3,0.9-0.5,1.3c-1.2-2-3.2-3-4.9-3.9c-0.2-0.1-0.3-0.2-0.5-0.3c-0.2,0-0.3-0.1-0.5-0.2 s-0.3-0.2-0.5-0.2c-0.2-0.1-0.4-0.2-0.6-0.3c-0.2-0.1-0.4-0.2-0.6-0.3l-0.1-0.1v7.4c-1.3-0.2-2.3-0.4-3.3-0.6 c-1.1-0.2-2.3-0.4-3.9-0.7l0,0c0.1-0.1,0.4-0.5,0.4-0.9c1.2-3.1-1.6-8.2-3-10.7c-0.1-0.1-0.1-0.2-0.2-0.3c-0.1-0.1-0.1-0.2-0.2-0.4 c-0.6-1.1,0.1-2.7,0.7-3.7c0.9,3,1.8,4.3,3.2,4.6v0.1h0.3V476.8z M583.8,466.5c1.5,0.2,2.6,0.5,3.8,0.6c1.2,0.2,2.3,0.4,3.8,0.7 h0.1v-1.7h-0.1c-2.4-0.4-3.6-0.6-5.9-1.1h0.1v-0.1c0-0.1,0-0.2,0.1-0.4c0.1-0.2,0.1-0.3,0.1-0.4v-0.2c-0.5-3.2-0.8-4.9-1.4-8.2 l31.3,5.7c-0.3,1.5-0.5,2.6-0.7,3.8c-0.2,1-0.4,2.1-0.7,3.5c-0.1,0.4-0.1,0.8,0,1.1c0,0.1,0,0.3,0,0.4v0.1h0.1 c0.5,0.1,1,0.2,1.4,0.2c0.4,0.1,0.8,0.1,1.4,0.2v0.1c-0.5-0.1-0.9-0.2-1.3-0.2c-0.4-0.1-0.9-0.2-1.4-0.3l-0.5-0.1 c-1.7-0.3-2.7-0.5-4.5-0.8v-5.3h-0.1c-0.4,0.1-0.6,0.1-0.9,0.2c-0.3,0-0.5,0.1-0.9,0.1c-0.8,0-2.3,0.1-3.2,1 c-0.5-1.2-1.1-1.9-1.7-2.7c-0.1-0.2-0.3-0.3-0.4-0.5l0,0c-0.2-0.1-0.3-0.3-0.5-0.5c-0.1-0.2-0.3-0.4-0.5-0.5 c-0.1-0.2-0.2-0.3-0.3-0.4s-0.2-0.2-0.3-0.3l-0.1-0.1l-0.1,0.1c-0.1,0.1-0.2,0.2-0.3,0.2c-0.1,0.1-0.2,0.2-0.3,0.3 c-0.2,0.2-0.4,0.3-0.6,0.4c-0.2,0.1-0.3,0.2-0.3,0.2h-0.1c-0.8,0.5-1.6,1.1-2,2.3c-1-1.2-2.2-1.7-3-2.1c-0.1-0.1-0.3-0.1-0.4-0.2 c-0.5-0.3-0.8-0.4-1.3-0.7l-0.1-0.1v9.4l0.6,0.5c0.7,0.5,1.2,0.9,1.8,1.3c-0.1,0.2-0.2,0.3-0.2,0.5c-0.1,0.1-0.2,0.3-0.2,0.4 s-0.1,0.2-0.1,0.3c-1.1-1.5-3-2.3-4.6-2.8c-0.6-0.2-0.9-0.4-1.3-0.6c-0.2-0.1-0.4-0.2-0.6-0.2l-0.1-0.1v6.6 c-1.6-0.3-2.6-0.5-4.3-0.7c0.2-0.2,0.2-0.4,0.2-0.8c0.4-1.8-0.6-4.7-2.5-7.1c-1.1-1.2-1.2-2.6-0.5-4.1c1.1,1.7,2.2,2.6,3.4,2.8v0.2 L583.8,466.5z M598,441c3,0.6,5.7,1,9.6,1.7c0,0.6-0.1,1.1-0.1,1.6s0,0.9-0.1,1.5c-2.1-0.4-3.8-0.7-5.4-1c-3-0.6-5.6-1-9.5-1.7 c0-0.6-0.1-1-0.1-1.5s-0.1-1-0.2-1.7C594.5,440.3,596.3,440.6,598,441z M596.5,438.4c0-1.4,0.4-4.1,1.7-5.3 c0.3-0.4,0.8-0.6,1.6-0.5l0,0c0.7,0.1,1.3,0.4,1.7,1.1c1.2,1.7,1.6,4.4,1.6,5.8c-0.9-0.2-1.6-0.3-2.3-0.4 C599.4,438.9,598.2,438.7,596.5,438.4z M601.1,447.1c3.2,0.6,6.6,1.2,11,2c-0.1,0.6-0.1,1.1-0.2,1.5c0,0.4-0.1,0.9-0.2,1.5 c-5.8-1-9.8-1.8-14-2.5c-2.8-0.5-5.8-1.1-9.5-1.7c-0.2-1.3-0.3-1.9-0.4-3.1C593.2,445.7,597,446.3,601.1,447.1z M601.4,452.6 c4.2,0.8,8.5,1.6,12.8,2.3c-0.1,0.9-0.2,1.5-0.3,2.1s-0.2,1.2-0.3,2.1c-4.8-0.8-9.7-1.7-14.4-2.6c-4.3-0.8-8.8-1.6-13.1-2.4 c-0.1-1.8-0.2-2.7-0.4-4.4C591,450.6,596.3,451.6,601.4,452.6z M617.2,472.5v-0.2c1,0,2-0.6,2.9-1.6c0.8,1.6,0.6,3.1-0.4,3.9 c-2,1.7-3,4.2-2.6,6.2c0,0.1,0,0.2,0.1,0.3c0.1,0.1,0.1,0.3,0.1,0.6l0,0c-0.8-0.2-1.5-0.3-2.1-0.4c-0.7-0.1-1.5-0.2-2.5-0.4h-0.1 v0.1c-0.1,0.6-0.1,1-0.1,1.6v0.1h0.1c2.8,0.5,4.3,0.7,7,1.3l0.8,0.1c0.1,0,0.2,0,0.3,0s0.2,0.1,0.3,0.1h0.1V484 c1.2-0.1,2-1.1,2.9-3.6c0.6,1.3,0.8,2.8,0.5,4.3c-0.1,0-0.1,0.1-0.2,0.1c0,0-0.1,0.1-0.2,0.1l0,0c-1.2,1.7-4.4,6.2-3.1,9.9 c0.1,0.2,0.1,0.3,0.2,0.4c0.1,0.2,0.1,0.3,0.2,0.4c-1.2-0.2-2.2-0.4-3.1-0.5c-1.1-0.2-2.2-0.4-3.7-0.6v-7.4h-0.1 c-0.2,0-0.4,0.1-0.6,0.1c-0.2,0-0.4,0.1-0.6,0.1c-0.4,0.1-0.6,0.1-1,0l0,0l-0.4,0.1c-1.9,0.3-3.8,0.5-5.1,2.1c-0.2-1-0.6-2.2-1-3.1 c0-0.1,0-0.2-0.1-0.2c1.2-0.6,2.1-1.1,3-1.6c1-0.5,2.1-1.1,3.5-1.9h0.1v-8.6H612c-0.8,0-1.2,0-2,0.1h-0.1c-1.5,0.1-3.4,0.2-4.6,1.1 c-0.1-0.1-0.1-0.2-0.1-0.3c-0.1-0.2-0.1-0.3-0.2-0.5c-0.2-0.8-0.4-1.3-0.8-2c-1.1-2.2-2.3-3.8-4-5.3c-0.2-0.2-0.3-0.3-0.6-0.5l0,0 h-0.1c-0.1,0-0.1,0.1-0.2,0.1c-0.1,0.1-0.2,0.1-0.4,0.2c-1.5,0.8-2.6,1.9-3.6,3.5c-0.3-0.2-0.5-0.4-0.7-0.5 c-0.4-0.3-0.7-0.5-1.2-0.9V464c1.4,0.7,1.9,1.4,2.1,3.2v0.1h0.1c0.4,0,0.7,0.1,0.9,0.1c0.3,0,0.6,0.1,1,0.2h0.1v-0.1 c0.4-3,1.1-3.5,2.1-4c0.1-0.1,0.2-0.1,0.3-0.1s0.2,0,0.3-0.1l0.1,0.1c0.2,0.2,0.3,0.3,0.5,0.4c1.2,1,1.7,1.8,2.1,4.8v0.1h0.1 c0.8,0.1,1.2,0.2,2,0.4h0.1V469c0.2-1.7,0.9-2,2.2-2.3v5.1c-0.5,0.2-0.9,0.3-1.2,0.5c-0.4,0.1-0.8,0.3-1.3,0.5h-0.1v0.1 c0.1,0.4,0.3,0.7,0.4,1c0.1,0.3,0.3,0.6,0.4,1v0.1h0.1c1.5-0.5,2.3-0.8,3.8-1.4h0.1v-2.2c1.3,0.2,2.3,0.4,3.3,0.6s2.1,0.4,3.5,0.6 c0.3,0.1,0.5,0.1,0.8,0.1h0.7L617.2,472.5z M625.2,512.6L625.2,512.6L625.2,512.6c0.9,0.2,1.4,0.3,2,0.4s1.1,0.2,1.9,0.3v0.2 c-0.5-0.1-0.8-0.2-1.2-0.2c-0.6-0.1-1.1-0.2-2-0.4c-1.4-0.2-2.6-0.5-3.6-0.6s-2.2-0.4-3.7-0.7h-0.1v1.9h0.1c2.3,0.4,3.9,0.7,5.6,1 c1.2,0.2,2.5,0.4,4.2,0.7c0.3,0.1,0.4,0.1,0.6,0.1c0.1,0,0.2,0,0.3,0.1c0.1,0,0.2,0,0.3,0h0.8l-0.5-0.1v-0.5c2.1-0.5,2.9-3,3.4-5.8 c0.7,3.3,0.8,6.8,0.1,7.9c-0.7,1.1-1.3,1.9-2.1,2.8c-0.1,0.2-0.3,0.3-0.4,0.5c-3.3,4.2-4.7,6.4-4.7,9.2c0,0.8,0.2,1.5,0.4,2.1l0,0 c-0.8-0.1-1.6-0.3-2.3-0.4c-1.2-0.2-2.3-0.4-3.9-0.7V526l-1.3-1.3l0,0c-3.4,0.2-6.1,1.4-7.7,3.5c-0.6-1.8-1.5-3.6-2.3-5.4v-0.1 c0.7-0.8,1.3-1.5,1.8-2.2c0.6-0.7,1.2-1.5,2-2.4l0.1-0.1l-0.6-0.1c-0.7-0.1-1.1-0.2-1.9-0.3v-0.3h0.1c0.7,0.1,1.1,0.2,2,0.3 s1.6,0.3,2.3,0.4s1.4,0.2,2.3,0.4l0,0l0,0c0.4-0.3,0.6-0.5,1-0.9l0,0V506l-1.3-1.3l0,0c-3,0.3-5.3,1.5-6.7,3.4 c-0.4-1.4-1.1-3.1-2-4.9c0.5-0.3,0.9-0.7,1.3-0.9c1.6-1.2,2.7-2,4.7-3.3l0,0v-2.5c2.2,0.4,3.7,0.7,5.4,0.9c1.3,0.2,2.7,0.5,4.5,0.8 c0.2,0,0.2,0,0.4,0.1l0.1,0.1V498c0.6,0,1-0.2,1.4-0.5c1.1-0.8,1.3-2.7,1.6-5.2c0-0.2,0-0.4,0.1-0.6c0-0.1,0-0.2,0.1-0.3 c1.2,2.4,1.4,5.5,0.4,8.1c-0.3,1-1,2-1.6,2.8l-0.2,0.3c-1,1.4-2.2,3.3-2.2,6.3C624.4,510.6,624.8,511.7,625.2,512.6z M648.1,595.7 c-0.7-0.1-1.3-0.2-1.8-0.3s-1.1-0.2-1.7-0.3v-27.3c0.6,0.1,1.2,0.2,1.7,0.3s1.1,0.2,1.8,0.3V595.7L648.1,595.7z M650,566.4 L650,566.4v-3.9c0,0,0.6-2.5,3.2-3.9c0,7.1-0.1,14.2-0.1,21.2c0,7.1-0.1,14.4-0.1,21.6v11.2c-5.8-0.9-9.9-1.6-14.3-2.3 c-2.6-0.4-5.4-0.9-8.8-1.4c0.8-0.6,1.9-1.1,2.9-1.5c0.3-0.1,0.5-0.2,0.8-0.3c0.2-0.1,0.4-0.1,0.5-0.2c0.1-0.1,0.3-0.1,0.5-0.2 l0.2-0.1c6,1,9.1,1.5,15.1,2.5h0.1L650,566.4L650,566.4z M707.6,599.8v3.6l-0.3-0.2v3.2c-17.6-2.3-35-4.8-51.8-7.4v-6.7 C672.9,595,690.5,597.5,707.6,599.8z M655.5,590.2v-2.4c17.4,2.7,35,5.2,52.1,7.5v2.4C689.9,595.3,672.4,592.8,655.5,590.2z M707.6,608.6v3.3c-17.7-2.3-35.2-4.9-52.1-7.5v-3.3C672.9,603.8,690.5,606.3,707.6,608.6z M707.6,614.2v6.9 c-17.1-2.3-34.6-4.8-52-7.5c0.1-0.1,0.2-0.2,0.3-0.3l0.2-0.2h-0.2c-0.2,0-0.2,0-0.3-0.1v-6.3C672.9,609.4,690.5,611.9,707.6,614.2z M709.8,623.4L709.8,623.4c0.7,1,1.2,1.6,1.8,2.4c0.2,0.3,0.5,0.6,0.7,0.9c-20.5-2.7-41-5.6-60.8-8.7l0,0c0.5-0.6,0.8-1,1.2-1.4 c0.3-0.4,0.7-0.8,1.1-1.3l0,0C672.3,618.3,691.1,621,709.8,623.4z M722.6,622.2c-2.5-0.3-4.4-0.5-6.3-0.8c-1.9-0.2-3.8-0.5-6.4-0.8 v-13.1C715.3,610.7,720.6,614.8,722.6,622.2z M710,604.8v-11.7c0.8-0.1,1.6,0,2.2,0.3v12.8c-0.1,0-0.1-0.1-0.2-0.1 c-0.4-0.2-0.8-0.5-1.2-0.7C710.6,605.2,710.3,605,710,604.8z M735.4,566.7c-1.1-2-2.7-5-1.6-9.5c1.6,2.6,3.9,4.2,5.5,3.7 c0.5-0.1,1-0.3,1.2-0.7c0.3-0.5,0.3-1.3,0-2.2c-0.4-1.9-1.3-3.4-2.2-4.8l-0.1-0.2c-1-1.8-2-3.5-1.4-6.4c0.7,1.4,1.7,2.5,2.7,3 c1.1,0.4,1.9,0.3,2.5-0.1c0.9-0.7,1.2-1.9,0.7-3.7c-0.2-0.6-0.4-1.2-0.6-1.7c-0.2-0.6-0.4-1.1-0.5-1.5c-0.8-2.2-1.5-3.9-0.8-6.6 c1.1,2.7,2.2,4,3.5,3.9c0.4,0,0.9-0.1,1.2-0.4c0.7-0.6,1.1-1.9,1.1-3.8V535c0-6.7,0-13,8.5-14.6c0.3-0.1,0.4-0.1,0.7-0.1h0.1v-0.7 c0.1-0.9,0.4-2.2,0.8-3.2c0.4-0.8,1-1.7,1.8-1.7h0.1c1.7,0.2,2.8,4,2.8,5.5v0.7h0.1c0.1,0,0.2,0.1,0.3,0.1c0.1,0.1,0.2,0.1,0.4,0.2 c8.5,3.4,8.5,9.7,8.5,16.4v0.6c0,3.4,1.2,4.6,2.3,4.6l0,0c1.4,0.3,2.6-0.8,3.5-3.2c0.7,2.7,0.1,4.1-0.7,6.1l-0.1,0.2 c-0.4,0.8-0.9,1.8-1.1,3c-0.4,1.7-0.2,3,0.7,3.9c0.7,0.7,1.4,0.9,2.5,0.6c1.1-0.3,2.1-1.2,2.7-2.4c0.5,2.7-0.3,4.2-1.3,5.9 l-0.4,0.7c-0.6,1.1-1.4,2.3-2,4c-0.4,1.4,0,2.5,1.2,3.1c1.4,0.6,3.8-0.2,5.5-2.7c1.2,5-0.5,7.6-1.5,9.2c-0.6,0.9-2.5,4-1.1,6.6 c0.7,1.2,1.6,1.6,3.2,1.7c4.3,0.4,6.3-2.9,7.7-5.3l0.1-0.2c0.2-0.3,0.3-0.6,0.5-0.9v54.1c-0.1,0.1-0.1,0.2-0.2,0.3l-0.2,0.6 c0,0.1-0.1,0.3-0.1,0.4c-0.1,0.2-0.1,0.5-0.2,0.7c-2-0.2-3.5-0.3-5.1-0.5c-1.5-0.1-3-0.3-4.9-0.5v-9.1h-0.1 c-0.7,0.2-1.1,0.3-1.8,0.4c-2,0.5-4,1.1-5.8,2c-0.1-0.3-0.2-0.6-0.3-1c-0.2-0.5-0.4-1.1-0.5-1.5s-0.3-0.8-0.5-1.2s-0.3-0.7-0.4-1.1 l0,0c-2.5-5.4-6.5-10-12.5-14.4c-0.1-0.1-0.2-0.2-0.3-0.2c-0.1-0.1-0.2-0.2-0.4-0.3l0,0l0,0c-0.2,0.1-0.3,0.1-0.4,0.2 c-0.1,0.1-0.2,0.1-0.4,0.2c-6.2,3.3-10,7.1-12.5,12.3l-0.7-0.8c-2.5-2.9-5.9-6.8-6.9-8.8v-9.5c2.9,1.2,5.4,3.8,7.3,7.3 c0.3,0.5,0.5,0.9,0.7,1.2s0.4,0.7,0.6,1.2l0.1,0.2l0.1-0.2c0.2-0.5,0.3-0.9,0.4-1.3c0.1-0.4,0.2-0.8,0.4-1.3 c1.9-8.1,5-12.8,11.1-16.6c6.1,5.2,9.2,10.5,11.1,19c0.1,0.5,0.2,0.9,0.3,1.3s0.2,0.8,0.4,1.4l0.1,0.2l0.1-0.2 c0.3-0.6,0.6-1,0.9-1.4c0.1-0.2,0.3-0.4,0.4-0.7c2-3.2,4.5-5.2,7.3-5.7v9.5c-1.2,1.7-4,4.5-6.1,6.6c-0.3,0.3-0.6,0.6-0.8,0.8l0,0 v0.1c0.1,0.3,0.3,0.7,0.5,1.1c0.2,0.4,0.3,0.7,0.4,1v0.1l0.1-0.1c1-1,6.3-5.9,8.1-8.7l0.2-0.2v-12.6h-0.1c-0.2,0-0.4,0-0.6,0.1 c-0.2,0-0.3,0-0.5,0c-0.4,0-1.1,0.1-1.5,0.3c0,0,0,0-0.1,0c1.2-1.8,2.6-3.9,2.8-5.1v-12.4h-0.1c-0.2,0-0.4,0-0.6,0.1 c-0.2,0-0.3,0-0.5,0c-3.5,0.1-6.5,1.7-8.9,4.8c-0.4-1.9-1.2-3.6-1.8-4.9c0-0.1-0.1-0.2-0.1-0.4l0,0c0.6-0.5,5.5-4.5,6.6-7.6v-8.5 h-0.1c-0.2,0-0.4,0-0.6,0.1c-0.2,0-0.3,0-0.5,0c-2.5,0-4.5,0.5-6.1,1.6c0.4-0.4,0.8-0.8,1.1-1.2c1.1-1.2,2-2.1,3.4-3.7l0,0v-8.3 h-0.1c-0.2,0-0.4,0-0.6,0.1c-0.2,0-0.3,0-0.5,0c-1.9,0-3.3,0.5-4.4,1.5c-0.2-0.4-0.4-0.6-0.6-1c0,0,0-0.1-0.1-0.1 c0.3-0.6,0.5-1,0.8-1.5s0.6-1.1,0.9-1.8v-6.9H769c-0.2,0-0.4,0-0.6,0.1c-0.2,0-0.3,0-0.5,0c-1,0.1-1.6,0.2-2.3,0.4 c0.5-0.3,1-0.6,1.4-0.9c0.6-0.4,1.3-0.8,2.2-1.4l0,0V535h-0.1c-0.2,0-0.4,0-0.6,0.1c-0.2,0-0.3,0-0.5,0c-1.3,0.1-2,0.2-2.8,0.7 c-1.1-2.2-3.1-4.2-5.5-5.5c-0.2-0.1-0.3-0.2-0.4-0.3l-0.1-0.1h-0.1c-0.1,0-0.1,0.1-0.2,0.1c-0.1,0-0.2,0.1-0.2,0.1 c-2.7,1.1-4.5,2.6-5.5,4.4c-1-0.8-1.9-1.2-2.8-1.2c-0.2,0-0.4-0.1-0.5-0.1s-0.3-0.1-0.5-0.2h-0.1v5.8l0,0c0.9,0.8,1.6,1.4,2.2,2 c0.2,0.2,0.5,0.4,0.7,0.7c-0.7-0.4-1.3-0.6-2-0.7c-0.2,0-0.4-0.1-0.5-0.1c-0.2-0.1-0.4-0.1-0.6-0.2H749v6.5l0,0 c0.4,0.8,0.7,1.5,1,2.1s0.6,1.3,1,2.1c0,0,0,0,0,0.1c-0.1,0.2-0.2,0.3-0.4,0.5c0,0.1-0.1,0.1-0.1,0.2c-1.2-1.5-2.5-2.2-4.6-2.7 c-0.2,0-0.4-0.1-0.5-0.1s-0.3-0.1-0.5-0.2h-0.1v8.4l0,0c0.9,1.2,1.7,2.1,2.4,3c0.6,0.8,1.3,1.6,2.1,2.6c-0.1,0.2-0.1,0.3-0.2,0.5 c-2-2.2-4.3-2.8-6.5-3.2c-0.2,0-0.4-0.1-0.5-0.1c-0.2-0.1-0.4-0.1-0.6-0.2h-0.1v8.5c0.4,2.6,4.1,6.8,6.4,9c0,0.1-0.1,0.2-0.1,0.3 c-0.4,0.9-0.7,1.7-1,2.5c-0.2,0.6-0.5,1.3-0.8,2c-2.4-3.6-5.5-5.9-9-6.7c-0.2,0-0.4-0.1-0.5-0.1c-0.2-0.1-0.4-0.1-0.6-0.2h-0.1V588 c0,1.3,0.9,3.1,2.1,5.1c-0.1,0-0.3-0.1-0.4-0.1c-0.1,0-0.2,0-0.3-0.1c-0.2,0-0.4-0.1-0.5-0.1c-0.2-0.1-0.4-0.1-0.6-0.2h-0.1v12.8 l0,0c1.3,2.8,6.5,8.7,8.7,11.2l0.2,0.2c0,0.1,0,0.1-0.1,0.2c-0.2,0.8-0.4,1.4-0.7,2.1l-0.2-0.1c-1.7-1.2-3.5-2.4-5.8-3.4 c-0.3-0.1-0.5-0.3-0.7-0.4s-0.5-0.3-0.8-0.4l-0.1-0.1v9.1c-4.6-0.5-7-0.8-11.4-1.4v-55.8c0.1,0.3,0.3,0.6,0.5,0.9 c1.1,2.3,3.1,6.6,7.8,7.2c1.2,0.2,2.4-0.2,3.2-1.1C737.9,571.3,736,567.7,735.4,566.7z M801.3,598v19.8c-2.7,1.6-4.8,3.3-6.5,5.4 v-25.7C797.3,597.7,798.7,597.8,801.3,598z M794.8,595.1v-4.3c2.5,0.2,3.9,0.4,6.5,0.5v4.3c-1.4-0.1-2.5-0.2-3.5-0.3 C796.9,595.3,796,595.2,794.8,595.1z M806.5,617.9V631H806c-4.7-0.4-7.3-0.6-12.2-1C795.6,623.3,800.9,620.2,806.5,617.9z M803.7,616.7v-29.6c1.5-0.5,2.5-0.1,3.1,0.3v28c-0.4,0.2-0.8,0.3-1.2,0.5C805,616.1,804.4,616.3,803.7,616.7z M799.1,632.5 c2.1,0.2,4.2,0.4,7,0.6c0.5,0,1,0.1,1.4,0.1s0.8,0,1.2,0.1v0.1h0.4v-30.8c0.8-1.7,2.8-4.4,5.7-4.8v37.4c-3.6,1.1-8.3,5.4-9.8,10.7 v41.4h0.1c0.3,0.1,0.5,0.1,0.8,0.1v0.1h-0.1c-0.2,0-0.4,0-0.6,0l0,0c-0.5-0.1-0.8-0.1-1.2-0.1v-50.9c0.7-1.3,1.1-2,2-3.3l0.1-0.1 h-0.2c-2.8-0.2-4.8-0.4-6.9-0.6c-2-0.2-4.1-0.3-6.9-0.6H792c-0.3,0-0.4,0-0.8-0.1c0-0.1,0-0.1,0.1-0.2l0,0v0.2h0.1 c0.3,0,0.4,0,0.7,0.1C794.9,632.1,797,632.3,799.1,632.5z M874.6,781.6v23.6c-31.3-1.4-63-3.7-96.9-7l0,0v-23.6 C811.6,777.9,843.4,780.2,874.6,781.6z M773.8,694.8c-1.1-0.1-2.2-0.2-3.6-0.4v-8.1c1.1,0.1,1.8,0.2,3,0.4l0,0l0,0 c0.2,2.7,2,5.6,5.5,8.7c-0.2,0-0.3,0-0.5,0s-0.4,0-0.6-0.1v-0.1h-0.1C776.1,695.1,774.9,694.9,773.8,694.8z M775,697.3v100.3 l-5.2-0.5V696.8L775,697.3z M791,688.4c1.9,0.2,3.8,0.3,6.3,0.6c1.7,0.1,2.5,0.2,4.1,0.4l0,0c0.2,2.7,2,5.5,5.4,8.5 c-2.7-0.2-4.9-0.4-6.9-0.6c-2.5-0.2-4.8-0.4-8.1-0.7l0,0c-3.2-2.2-6.7-5.8-7-8.8C787.4,688.1,789.2,688.2,791,688.4z M789,685.7 V654c1.2,0.1,2,0.2,2.9,0.3c0.8,0.1,1.6,0.1,2.6,0.2v31.7c-1.1-0.1-1.9-0.2-2.7-0.2C790.9,685.9,790.1,685.8,789,685.7z M811.7,698.3c-0.2,0-0.4,0-0.7-0.1l0,0c-4.5-2.9-6.7-6.3-6.9-8.6c0.3,0,0.5,0.1,0.8,0.1s0.6,0,1,0.1l0,0 C806.9,692.8,809,695.8,811.7,698.3z M806.5,689.7L806.5,689.7C806.5,689.6,806.5,689.6,806.5,689.7 C806.6,689.6,806.6,689.6,806.5,689.7C806.6,689.7,806.5,689.7,806.5,689.7z M825.4,701.5V712c-14.4-1.1-29.6-2.4-47.7-4.1v-10.5 C794.4,699.1,810.4,700.5,825.4,701.5z M787.9,696.3l-5.2-0.5l0,0c-3.1-2.3-6.5-6-7-8.9c1.3,0.1,2.3,0.2,3.3,0.3s2.1,0.2,3.5,0.4 l0,0C782.7,690.3,784.5,693.1,787.9,696.3z M861,755.2v23.4c-27.5-1.6-55.5-3.7-83.3-6.3v-23.4C808.2,751.8,835.5,753.8,861,755.2z M841.4,732.1c1.8,0.1,3.6,0.2,5.9,0.4v19.7c-20.1-1.2-41.6-2.9-69.6-5.6v-19.7c19.1,1.8,38.3,3.4,57.1,4.8 C837.5,731.9,839.5,732,841.4,732.1z M833.6,715.1v14.2c-17.3-1.2-35.6-2.7-55.9-4.7v-14.2C794.1,712,811.3,713.4,833.6,715.1z M748.1,625.7l1.4,2.8l0.1-0.2c0.2-0.5,0.3-0.9,0.4-1.3c0.1-0.4,0.2-0.8,0.3-1.3c1.7-6.5,4.8-9.4,8.6-13.1l0.5-0.4 c3.9,4.5,6.7,8.1,8.5,15.4c0.1,0.5,0.2,0.9,0.3,1.3c0.1,0.4,0.2,0.8,0.4,1.4l0.1,0.2l0.1-0.2c0.2-0.4,0.4-0.8,0.6-1.1 c0.2-0.4,0.4-0.7,0.7-1.2c1.2-2.2,4.6-4.3,9.2-5.8v11.3c-3.7-0.4-5.6-0.6-9.3-0.9c-2.2-0.2-4.2-0.4-6-0.6 c-5.2-0.5-9.3-0.9-15.7-1.7c-3.8-0.4-5.7-0.6-9.3-1.1V618C743.6,620.5,746.9,623.3,748.1,625.7z M746,620.6 c1.9-6.2,4.8-11,13.1-15.7c7.9,6,10.9,11.4,13,18.1c-1,0.7-2.1,1.3-2.8,2.1c-2.1-6.7-5-10.3-9.2-15l-1-1l-1.6,1.6l-0.6,0.5 c-3.5,3.3-6.5,6.1-8.6,11.7c-0.5-0.6-1.1-1.1-1.6-1.7C746.5,621.1,746.3,620.8,746,620.6z M753.5,546.9l0.1,0.1l0.1-0.1 c0.2-0.4,0.3-0.6,0.4-0.9c0.1-0.3,0.2-0.5,0.3-0.9c0.6-2,2.2-3.7,4.5-4.7c2.3,1.5,3.9,3.4,4.5,5.5c0.1,0.3,0.2,0.6,0.3,0.8 c0.1,0.4,0.2,0.7,0.4,1.1l0.1,0.1l1.4-1.4c0.3-0.5,0.7-0.8,1.3-1v3.5c-0.2,0.4-0.4,0.8-0.6,1.1c-0.1,0.3-0.3,0.5-0.5,0.8 c-1.2-1.2-2.4-1.9-4.1-2.8l-0.2-0.1c-0.5-0.2-0.8-0.5-1.2-0.8c-0.2-0.1-0.3-0.3-0.6-0.4c-0.2-0.1-0.3-0.2-0.4-0.3l-0.1-0.1h-0.1 c-0.1,0-0.1,0.1-0.2,0.1c-0.1,0-0.2,0.1-0.2,0.1c-0.2,0.1-0.5,0.2-0.7,0.3c-0.3,0.1-0.5,0.2-0.7,0.3c-2,0.7-3.5,1.4-4.6,2.4 c-0.1,0.1-0.3,0.3-0.4,0.4l-0.1,0.1l0,0c-0.2-0.5-0.4-1-0.6-1.4c-0.2-0.4-0.4-0.8-0.6-1.4V544c0.4,0.3,0.8,0.7,1.3,1.3 c0.2,0.3,0.4,0.5,0.6,0.8C753.1,546.3,753.3,546.6,753.5,546.9z M750.9,537.8v-2.1c0.4,0.3,0.8,0.7,1.3,1.3 c0.2,0.3,0.4,0.5,0.6,0.8c0.2,0.3,0.4,0.5,0.7,0.8l0.1,0.1l0.1-0.1c0.2-0.4,0.3-0.6,0.4-0.9c0.1-0.3,0.2-0.5,0.4-0.9 c0.6-1.9,2.1-3.4,4.5-4.5c2.5,1.6,4,3.4,4.5,5.5c0.1,0.3,0.2,0.6,0.3,0.8c0.1,0.4,0.2,0.7,0.4,1.1l0.1,0.1l1.4-1.4 c0.3-0.5,0.7-0.8,1.3-1v2.1c-0.6,0.4-1.1,0.8-1.6,1.1s-0.9,0.6-1.5,1l-0.1-0.1l-0.1-0.1c-1.3-1.5-2.6-2.6-4-3.3 c-0.2-0.1-0.3-0.2-0.4-0.3l-0.1-0.1h-0.1c-0.1,0-0.1,0.1-0.2,0.1c-0.1,0-0.2,0.1-0.2,0.1c-1.8,0.8-3,1.6-4,2.5 c-0.1,0.1-0.2,0.2-0.3,0.4C753,539.6,752.3,539,750.9,537.8z M751.7,555.4c1.1-3.4,3.1-4.4,6.4-5.6c0.2-0.1,0.4-0.2,0.5-0.2 c0.2-0.1,0.3-0.1,0.5-0.2c0.2,0.1,0.4,0.3,0.6,0.4c0.2,0.1,0.4,0.2,0.6,0.4l0.1,0.1c3.1,2,4.9,3.2,6,6.5c0.1,0.4,0.2,0.7,0.3,1 s0.2,0.7,0.4,1.1l0.1,0.2l0.1-0.2c0.2-0.3,0.5-0.6,0.6-0.8c0.2-0.2,0.4-0.5,0.7-0.9c1-1.4,1.9-2,2.9-2.1v4.9l-3.7,3.7v0.1 c0.4,0.7,0.7,1.3,0.9,2.1v0.1l0,0l0,0c-0.1-0.5-0.3-0.9-0.5-1.3c-0.1-0.3-0.3-0.5-0.4-0.8c-1.8-3.2-4-5.1-8.1-7.8 c-0.1-0.1-0.2-0.2-0.3-0.2c-0.1-0.1-0.2-0.2-0.4-0.3l0,0l0,0c-0.2,0.1-0.3,0.1-0.4,0.2c-0.1,0-0.2,0.1-0.4,0.2 c-0.4,0.2-0.8,0.4-1.1,0.6c-3.1,1.6-5.4,2.7-7,5.5c-0.6-0.8-1.1-1.4-1.6-2c-0.5-0.7-1.1-1.3-1.8-2.2V553c1,0.5,1.9,1.2,2.9,2.9 c0.3,0.4,0.5,0.7,0.7,1s0.4,0.6,0.6,1l0.1,0.2l0.1-0.2c0.2-0.4,0.3-0.7,0.4-1C751.4,556.1,751.5,555.8,751.7,555.4z M749.9,568.9 l0.1-0.2c0.2-0.5,0.2-0.8,0.3-1.1s0.2-0.6,0.4-1.1c1.5-5.1,3.8-6.4,8-8.5c4.5,3.1,6.7,4.9,8,10.2c0.1,0.4,0.3,0.8,0.3,1.1 c0.1,0.3,0.2,0.7,0.4,1.2l0.1,0.2l0.1-0.2c0.2-0.3,0.5-0.6,0.6-0.8c0.2-0.2,0.4-0.5,0.7-0.9c1.1-1.7,2.7-2.5,5.1-2.7v5.7 c-0.7,1.7-3.2,4.3-5.3,5.9c-2.1-4.7-5-8.4-9.2-11.8c-0.1-0.1-0.2-0.2-0.3-0.2c-0.1-0.1-0.2-0.2-0.4-0.3l0,0l0,0 c-0.2,0.1-0.3,0.1-0.4,0.2c-0.1,0-0.2,0.1-0.4,0.2c-4.2,2.4-7.2,5.7-9.4,10.2l0,0c-3.3-3.4-5-5.8-5.3-7.1V563 c2.2,0.7,3.6,1.8,5.1,3.8c0.2,0.4,0.5,0.7,0.7,1s0.4,0.6,0.7,1L749.9,568.9z M758.8,567.7c5.6,4.6,8.9,10.7,11.1,20.2 c0.1,0.5,0.2,0.9,0.3,1.3s0.2,0.8,0.4,1.4l0.1,0.2l0.1-0.2c0.3-0.6,0.6-1,0.9-1.4c0.1-0.2,0.3-0.4,0.4-0.7c2-3.2,4.5-5.2,7.3-5.7 v9.6c-0.2,1.4-1.9,3.9-4.8,7l-0.6,0.7l0.7-0.5c-1.1,0.7-2.1,1.8-3.1,2.8c-2.2-8.1-5.7-13.4-12.1-18.4c-0.1-0.1-0.2-0.2-0.3-0.2 c-0.1-0.1-0.2-0.2-0.4-0.3l0,0l0,0c-0.2,0.1-0.3,0.1-0.4,0.2c-0.1,0-0.2,0.1-0.4,0.2c-6.2,3.8-9.7,8.4-12.1,15.8 c-1.1-1.5-2.3-2.7-3.4-3.8c-2.8-3.9-4.2-6.4-4.4-7.6v-9.7c2.9,1.2,5.4,3.8,7.3,7.3c0.3,0.5,0.5,0.9,0.7,1.2s0.4,0.7,0.6,1.2 l0.1,0.2l0.1-0.2c0.2-0.5,0.3-0.9,0.4-1.3c0.1-0.4,0.2-0.8,0.3-1.3C749.8,576.8,753.3,571.3,758.8,567.7z M777.9,598.2 c-0.9,0.2-1.8,0.6-2.8,1.2C776,598.8,776.9,598.4,777.9,598.2z M726.2,625.1L726.2,625.1c1.5,1.5,2.6,2.5,3.6,3.6 c1.1,1,2.2,2.1,3.6,3.6v47.9h0.1c0.4,0,0.8,0.1,1.1,0.1s0.7,0.1,1.1,0.2h0.1v-49.1l0,0c-0.7-0.7-1.3-1.2-1.8-1.8 c-1.4-1.4-2.6-2.5-4.3-4.1c2.5,0.3,3.9,0.5,6.3,0.8l0.5,0.1v2.4h-0.3l0.2,0.2l0.1,0.1l0,0l0,0v2h0.1c0.3,0.1,0.5,0.1,0.7,0.1 s0.4,0,0.7,0.1h0.1c0.9,1.3,1.6,2.3,2.3,3.2c0.7,1,1.4,2,2.4,3.3v43.5h0.1c0.4,0,0.7,0.1,1,0.1s0.6,0,1,0.1h0.1v-44.1l0,0 c-0.8-1.2-1.5-2.1-2.1-3c-0.6-0.8-1.1-1.7-1.9-2.7c1.3,0.2,2.4,0.3,3.4,0.4c1.1,0.1,2.3,0.2,3.8,0.5l0,0V682h0.1 c0.5,0.1,0.8,0.1,1.1,0.1s0.6,0,1.1,0.1h0.1v-49.4c6.8,0.8,10.3,1.2,17.3,1.9V684h0.1c0.5,0,0.8,0.1,1.1,0.1s0.6,0,1.1,0.1h0.1 v-49.4c1.5,0.1,2.6,0.3,3.7,0.4c1,0.1,2,0.2,3.3,0.3l-0.2,0.2c-1.4,1.8-2.2,2.8-3.8,4.6l0,0v44.1h0.1c0.5,0,0.8,0.1,1.1,0.1 s0.6,0,1.1,0.1h0.1v-43.5c0.7-0.8,1.2-1.5,1.7-2.1c0.8-1,1.6-2,2.7-3.3c0.1,0,0.2,0,0.3,0c0.5,0.1,0.8,0.1,1.3,0.1h0.1v-2.3 l0.1-0.1h-0.1v-2.5c1.3,0.1,2.3,0.2,3.3,0.3s2,0.2,3.3,0.3c-1.6,1.3-2.8,2.1-4,3.2c-0.6,0.5-1.2,0.9-1.9,1.5l0,0v49h0.1 c0.4,0,0.7,0.1,1,0.1s0.6,0,1,0.1h0.1v-48c1.4-1.1,2.4-1.9,3.5-2.7c1.1-0.9,2.2-1.7,3.7-2.9h0.1c4.5,0.4,6.8,0.6,11.4,1 c-0.2,0.3-0.4,0.6-0.5,0.9c-0.3,0.6-0.6,1.1-1.1,1.8l0,0v51.3h0.1c0.4,0.1,0.7,0.1,1,0.1s0.6,0,1,0.1l0,0c-0.1,0-0.1,0-0.2,0 c-0.4,0-0.7-0.1-1-0.1s-0.6,0-1-0.1c-0.4,0-0.7-0.1-1-0.1s-0.6,0-1-0.1c-0.6,0-1-0.1-1.4-0.1s-0.8,0-1.4-0.1c-0.1,0-0.1,0-0.2,0 v-33.2l0,0c-0.2-0.5-0.4-0.7-0.8-1.1l-0.1,0.1l0.1-0.1l0,0l0,0c-1.6-0.2-2.9-0.3-4.1-0.4c-1.1-0.1-2.3-0.2-3.8-0.3l0,0l0,0 c-0.3,0.3-0.6,0.5-0.9,0.7l-0.2,0.2v33.2c-0.4,0-0.7-0.1-1-0.1s-0.7,0-1.1-0.1c-0.4,0-0.7-0.1-1-0.1s-0.6,0-1-0.1 c-1.4-0.1-2.5-0.3-3.5-0.3c-1-0.1-2.1-0.2-3.5-0.3c-0.5-0.1-0.8-0.1-1.1-0.1s-0.6,0-1.1-0.1c-1.4-0.1-2.1-0.2-3.5-0.4 c-0.4,0-0.7-0.1-1-0.1s-0.6,0-1-0.1c-6.6-0.7-10-1-16.3-1.8l-1.3-0.1c-0.5-0.1-0.8-0.1-1.1-0.1s-0.6,0-1.1-0.1 c-0.7-0.1-1.2-0.2-1.8-0.2c-0.5,0-1-0.1-1.7-0.2c-0.4,0-0.7-0.1-1-0.1s-0.6,0-1-0.1c-1.4-0.1-2.5-0.3-3.5-0.4s-2.1-0.2-3.5-0.4 c-0.4,0-0.8-0.1-1.1-0.1s-0.7-0.1-1.1-0.2c-0.8-0.1-1.5-0.2-2.1-0.2c-0.6-0.1-1.2-0.1-2.1-0.2l0,0v-33.2l0,0 c-0.1-0.1-0.2-0.3-0.3-0.4c-0.1-0.2-0.3-0.4-0.5-0.7l0,0l0,0c-1.6-0.2-2.7-0.3-3.9-0.5s-2.4-0.3-4-0.5l0,0l0,0 c-0.2,0.2-0.4,0.3-0.5,0.4c-0.2,0.1-0.4,0.3-0.6,0.5l0,0v33.2c-0.8-0.1-1.5-0.2-2.2-0.3c-0.6-0.1-1.3-0.2-2.1-0.3v-51.6l0,0 c-0.5-0.7-0.9-1.1-1.3-1.6c-0.4-0.4-0.7-0.9-1.1-1.4c0.3,0,0.6,0.1,0.9,0.1c0.3,0,0.6,0.1,0.9,0.1l0,0L726.2,625.1z M750.1,784.9 c-0.3,0-0.5-0.1-0.8-0.1c-0.2,0-0.4,0-0.7-0.1v-0.5c0.2,0,0.5,0.1,0.6,0.1c0.2,0,0.4,0,0.7,0.1c5,0.6,8.2,0.9,12.2,1.3 c1.5,0.2,3.2,0.3,5.1,0.5c0.3,0.1,0.5,0.1,0.8,0.1c0.2,0,0.4,0,0.7,0.1v0.5c-0.2,0-0.4-0.1-0.6-0.1c-0.2,0-0.5-0.1-0.8-0.1h-0.1 v10.9c-3.4-0.3-6-0.6-8.5-0.9c-2.6-0.3-5.2-0.5-8.6-0.9L750.1,784.9L750.1,784.9z M768.2,773.8c-0.2,0-0.5-0.1-0.8-0.1h-0.1v10.4 c-3.4-0.3-6-0.6-8.5-0.9c-2.6-0.3-5.2-0.5-8.6-0.9v-10.4h-0.1c-0.3,0-0.5-0.1-0.8-0.1c-0.2,0-0.4,0-0.7-0.1v-0.3 c0.2,0,0.5,0.1,0.6,0.1c0.2,0,0.4,0,0.7,0.1l0,0c5,0.6,8.1,0.9,12.1,1.3c1.6,0.2,3.2,0.3,5.2,0.5c0.3,0.1,0.5,0.1,0.8,0.1 c0.2,0,0.4,0,0.7,0.1v0.3C768.6,773.8,768.4,773.8,768.2,773.8z M767.3,719.7c-3.3-0.3-5.9-0.6-8.4-0.9c-2.6-0.3-5.2-0.5-8.6-0.9 c-0.3,0-0.5-0.1-0.8-0.1c-0.2,0-0.5-0.1-0.8-0.1l0,0v-0.3c0.2,0,0.4,0.1,0.6,0.1c0.2,0,0.4,0,0.7,0.1h0.1v-10.4 c5,0.6,8.1,0.9,12.1,1.3c1.5,0.1,3.1,0.3,5,0.5v10.7L767.3,719.7L767.3,719.7z M767.5,734.7c0.1,0,0.2,0,0.4,0.1 C767.7,734.7,767.6,734.7,767.5,734.7h-0.2v10.7c-3.3-0.3-5.9-0.6-8.4-0.9c-2.6-0.3-5.2-0.5-8.6-0.9l0,0v-10.7 c5,0.6,8.2,0.9,12.2,1.3C763.9,734.3,765.6,734.5,767.5,734.7z M749.3,730.5c0.2,0,0.4,0,0.7,0.1h0.1v-10.4c5,0.6,8.1,0.9,12.1,1.3 c1.5,0.1,3.1,0.3,5,0.5v10.6c-3.3-0.3-5.9-0.6-8.4-0.9c-2.6-0.3-5.2-0.6-8.7-0.9c-0.3-0.1-0.5-0.1-0.8-0.1c-0.2,0-0.4,0-0.7-0.1 l0,0v-0.2C748.9,730.5,749.1,730.5,749.3,730.5z M768.2,760.8c-0.2,0-0.5-0.1-0.8-0.1h-0.1v10.4c-3.4-0.3-6-0.6-8.5-0.9 c-2.6-0.3-5.2-0.5-8.6-0.9v-10.7c5,0.6,8.1,0.9,12.1,1.3c1.6,0.2,3.2,0.3,5.2,0.5c0.2,0,0.3,0.1,0.4,0.1c0.3,0.1,0.6,0.1,0.9,0.1 v0.3C768.6,760.8,768.4,760.8,768.2,760.8z M768.2,747.8c-0.2,0-0.5-0.1-0.8-0.1h-0.1v10.6c-3.3-0.3-5.9-0.6-8.4-0.9 c-2.6-0.3-5.2-0.5-8.6-0.9l0,0v-10.6c5,0.6,8.2,0.9,12.2,1.3c1.5,0.2,3.2,0.3,5.1,0.5C767.8,747.7,768,747.8,768.2,747.8 s0.4,0,0.6,0.1l0,0C768.6,747.8,768.4,747.8,768.2,747.8z M768.3,707c-0.2,0-0.4,0-0.7-0.1c-3.5-0.4-6.1-0.6-8.7-0.9 c-2.6-0.3-5.2-0.5-8.6-0.9c-0.3-0.1-0.5-0.1-0.8-0.1c-0.2,0-0.4,0-0.7-0.1l0,0v-0.1c0.2,0,0.4,0.1,0.6,0.1c0.2,0,0.5,0.1,0.8,0.1 h0.1v-10.7c4.9,0.6,8,0.9,12,1.3c1.5,0.2,3.2,0.3,5.1,0.5v10.7h0.1c0.3,0,0.5,0.1,0.8,0.1c0.2,0,0.4,0,0.7,0.1v0.1 C768.6,707,768.4,707,768.3,707z M750.5,692.3v-8.1c6.8,0.8,10.3,1.2,17.3,1.9l0,0v8.1c-6.6-0.7-10.1-1-16.4-1.8L750.5,692.3z M745.2,794.5c-0.8-0.1-1.6-0.2-2.7-0.3V693.9c2,0.3,3.1,0.4,5.1,0.6v100.3C746.7,794.7,745.9,794.6,745.2,794.5z M744.1,691.7 c-1.1-0.1-2.3-0.2-3.8-0.4v-0.1h-0.1c-0.3-0.1-0.6-0.1-0.9-0.1c3.3-2.3,5.1-4.7,5.3-7.4c0.6,0.1,1.1,0.1,1.6,0.2 c0.5,0,1,0.1,1.7,0.2h0.1v8.1C746.5,691.9,745.3,691.8,744.1,691.7z M457.6,649.2c-1.1-0.1-2.3-0.2-3.7-0.4v-7.9 c0.5,0.1,0.9,0.1,1.3,0.1c0.5,0,1,0.1,1.7,0.2c0,0,0,0,0.1,0c0.4,2.7,2.4,5.9,5.6,8.8c-0.1,0-0.2,0-0.3,0c-0.2,0-0.4,0-0.6-0.1l0,0 v-0.3h-0.1C460,649.4,458.8,649.3,457.6,649.2z M459,651.9v100.4c-1-0.1-1.9-0.2-2.6-0.3c-0.8-0.1-1.6-0.2-2.7-0.3V651.3 c1,0.1,1.9,0.2,2.6,0.3C457.1,651.7,457.9,651.8,459,651.9z M551.3,653.9c-0.2,2.5-2,5.6-6,7.2l-0.1,0.1c-17.8-2.8-35.2-5.1-49.8-7 l-0.1-0.1c-2.5-1.8-5.2-5.2-5.6-8.9C511.7,648,531.9,650.9,551.3,653.9z M534.2,648.7V617c1.2,0.2,2,0.3,2.9,0.4 c0.7,0.1,1.4,0.2,2.3,0.3v31.7c-1.2-0.2-2-0.3-2.9-0.4C535.8,648.9,535.1,648.8,534.2,648.7z M573.5,657.4c1.9,0.3,3.4,0.6,4.8,0.8 c1.9,0.3,3.6,0.6,6.1,1.1l0,0v0.1c-0.4,2.8-3.5,5.7-6.4,7.1c-1.8-0.3-3.3-0.6-4.7-0.8c-1.7-0.3-3.4-0.6-5.6-0.9 C571.4,662.4,573.3,660.1,573.5,657.4z M571.5,654.7c-0.7-0.1-1.3-0.2-1.9-0.3c-0.6-0.1-1.2-0.2-1.9-0.3v-31.7 c0.7,0.1,1.3,0.2,1.9,0.3c0.6,0.1,1.2,0.2,1.9,0.3V654.7z M580.8,605c0,0.1,0.1,0.1,0.1,0.2s0.1,0.1,0.1,0.2v1.6h0.1 c0.2,0.1,0.4,0.1,0.5,0.1c0.2,0,0.3,0,0.5,0.1l0,0l0,0c0.5,0.8,0.8,1.4,1.1,2.1c0.3,0.6,0.7,1.2,1.1,2v45.9h0.1 c0.5,0.1,0.8,0.1,1.1,0.2c0.2,0,0.5,0.1,0.8,0.1h0.1V611l0,0c-0.8-1.4-1.2-2.1-1.9-3.3c1.1,0.2,1.9,0.3,2.8,0.5 c0.8,0.1,1.6,0.3,2.7,0.5v49.6h0.1c0.3,0,0.6,0.1,0.8,0.1s0.5,0.1,0.9,0.2h0.1v-49.5c2.2,0.4,4,0.7,5.7,1c1.9,0.4,3.8,0.7,6,1.1 c1.1,0.2,2.3,0.4,3.6,0.7v49.5h0.1c0.8,0.1,1.2,0.2,2,0.4h0.1v-0.1c0.1-16.5,0.1-33.3,0.1-49.5c2.3,0.4,3.5,0.6,5.8,1.1 c-0.3,0.5-0.6,0.8-0.9,1.2c-0.3,0.4-0.6,0.8-1,1.3l0,0v46.6h0.1c0.4,0.1,0.6,0.1,0.9,0.2c0.3,0,0.5,0.1,0.9,0.1h0.1v-45.9 c1-1.3,1.5-2,2.4-3.2l0,0c0.3,0.1,0.4,0.1,0.6,0.1c0.2,0,0.3,0,0.6,0.1h0.1V612l0.4-0.7l-0.4,0.4V604c2.3,0.4,4,0.7,5.8,1 c1.7,0.3,3.5,0.6,5.7,1c-2.4,0.9-4,2.4-4.3,4.1v54.8h0.1c0.4,0,0.7,0.1,1,0.1c0.2,0,0.5,0.1,0.8,0.1v0.1c-0.1,0-0.2,0-0.3,0 c-0.3-0.1-0.6-0.1-0.9-0.2c-0.3,0-0.6-0.1-0.9-0.2l-1-0.2c-3.9-0.7-6.1-1.1-10.2-1.7c-0.3,0-0.6-0.1-0.9-0.1 c-0.3,0-0.6-0.1-0.9-0.2c-0.8-0.2-1.4-0.3-2-0.4s-1.2-0.2-2-0.3s-1.2-0.2-2-0.4c-2.4-0.4-4.3-0.8-6.1-1.1c-3-0.6-5.6-1-9.4-1.8 c-0.3,0-0.6-0.1-0.8-0.1s-0.5-0.1-0.9-0.2c-0.8-0.2-1.5-0.3-2.1-0.4c-0.5-0.1-1.1-0.2-1.8-0.3c-0.5-0.1-0.8-0.1-1.1-0.2 c-0.2,0-0.5-0.1-0.8-0.1c-4.2-0.8-6.4-1.2-10.5-1.8v-55l0,0c-0.7-2.1-2.2-3.7-4.1-5.3c2.2,0.4,3.9,0.7,5.7,1c1.7,0.3,3.5,0.6,5.8,1 l0,0v7.7v0.1h-0.4L580.8,605L580.8,605z M567.4,547.6c0.6,0.1,1,0.2,1.4,0.3s0.8,0.1,1.4,0.2c0.9,0.1,1.7,0.3,2.4,0.4 c0.6,0.1,1.3,0.2,2,0.3v5.1h0.1c0.2,0.1,0.2,0.1,0.3,0.1c0.2,0.2,0.3,0.4,0.5,0.6c0.1,0.2,0.3,0.3,0.5,0.6l0,0l0,0 c0.3,0,0.6,0.1,0.8,0.1s0.5,0.1,0.7,0.1c2.6,4.1,4,9.5,4.3,16.2c-0.7-0.8-1.6-1.4-2.4-1.9l0,0l0,0c-0.3,0.1-0.5,0.2-0.7,0.3 s-0.4,0.2-0.7,0.3h-0.1v6.9c-1.3-2.5-5.7-10.1-12.1-14V542v-0.7l0,0v-7.6c1.6,1.2,1.6,4.7,1.6,12.8V547.6L567.4,547.6z M568.9,528.6l-0.5-0.6c-1.1-1.2-1.9-2.2-1.9-3.7c-0.2-1-0.2-3.2,0-5.4c0.9,2.1,2.1,3.5,3.4,4v0.4h0.1c0.2,0.1,0.4,0.1,0.5,0.1 c0.2,0,0.3,0,0.5,0.1l2.5,0.4c2,0.3,3.6,0.6,6,1v5.7l0,0c0.2,0.2,0.4,0.4,0.5,0.6s0.3,0.3,0.5,0.6l0,0l0,0c0.3,0,0.6,0.1,0.9,0.1 c0.3,0,0.6,0.1,0.9,0.2l0,0c0,0.1,0,0.2,0.1,0.3l0,0l0,0c0.1,0,0.1,0,0.2,0c2.3,2.1,3.7,4.9,4.4,9.2c-0.1,0.2-0.2,0.3-0.2,0.5 c-0.8,1.6-1.5,3.3-1.9,5c-1.2-1.7-4.2-5.4-9.1-7.8l0,0l0,0c-0.3,0.2-0.4,0.3-0.6,0.4c-0.2,0.1-0.3,0.2-0.6,0.4l0,0v6.3l-2.5-0.4 v-10.3C572.1,532.5,570.3,530.3,568.9,528.6z M595.2,491.8L595.2,491.8c1-6.2,2.4-9.5,4.8-11.8c2.8,3.5,4.3,7.6,5,13.6v0.1h0.1 c0.8,0.1,1.2,0.2,2,0.4h0.1V494c0.2-3.5,2.1-4,5-4.3v7.8c-1,0.7-1.8,1.3-2.6,1.9c-0.7,0.5-1.4,1.1-2.3,1.7c0-0.1-0.1-0.1-0.1-0.2 c-2.5-4.2-4.8-7.4-6.9-9.5l0,0l0,0c-0.2,0-0.4-0.1-0.5-0.1c-0.2,0-0.3-0.1-0.6-0.1l0,0l0,0c-2,1.4-4,3.5-6.3,6.7c0,0,0,0-0.1,0.1 c-1-1.2-1.8-2.1-2.7-3c-0.5-0.6-1.1-1.1-1.7-1.9v-7.8c2.6,1.2,4.6,2.3,4.8,6v0.1h0.1c0.4,0,0.7,0.1,0.9,0.1 C594.4,491.7,594.7,491.7,595.2,491.8L595.2,491.8z M593.4,480.8c-1.1-1-2.1-1.9-3.5-3.2V473c2.3,1,3.6,1.6,3.8,3.9v0.1h0.1 c0.3,0.1,0.6,0.2,0.8,0.2c0.3,0.1,0.5,0.2,0.9,0.3h0.1v-0.1c0.8-3.8,2-6.1,4.1-7.6c2.4,2.4,3.6,5.1,4.2,9.1v0.1h0.1 c0.3,0,0.6,0,0.9,0c0.3,0,0.6,0.1,0.9,0.1h0.1V479c0.2-2.1,1.6-2.2,4-2.4v4.7l-1.1,0.6c-1.5,0.8-2.6,1.3-4.2,2.2 c-1-2.2-2.3-4.2-4-6.1c-0.1-0.2-0.2-0.3-0.3-0.4s-0.2-0.2-0.3-0.3l-0.1-0.1l-0.1,0.1c-0.2,0.2-0.3,0.3-0.6,0.5 c-1.7,1.3-2.9,2.8-3.9,4.9C594.6,481.9,594,481.4,593.4,480.8z M599.6,493.3c4.5,5,9.2,14,9.2,17.6v0.1h0.1 c0.4,0.2,0.6,0.3,0.9,0.4c0.3,0.1,0.5,0.2,0.9,0.3h0.1v-0.1c1-2.4,2.7-3.9,5.4-4.7v9.2c-0.4-0.1-0.7-0.1-1-0.2 c-0.3,0-0.6-0.1-1.1-0.2c-2.3-0.4-4-0.7-5.7-1c-1.6-0.3-3.3-0.6-5.5-1l0,0c-0.9-1.1-1.8-2-2.7-2.9l0,0l0,0c-0.2,0-0.4-0.1-0.5-0.1 c-0.2,0-0.3-0.1-0.6-0.1l0,0l0,0c-0.5,0.3-0.9,0.7-1.4,1c-0.4,0.3-0.8,0.6-1.3,1l-0.1,0.1l-0.6-0.1c-3.7-0.7-5.8-1.1-9.9-1.7 c-0.4-0.1-0.7-0.1-1-0.2c-0.3,0-0.6-0.1-1-0.2v-9.3c2.8,1.6,4.7,4,5.2,6.3v0.1h0.1c0.4,0,0.6,0,0.9-0.1c0.2,0,0.5,0,0.8,0h0.1v-0.1 C590.7,504,594.8,497.5,599.6,493.3z M610.5,517.4L610.5,517.4c-0.6,0.8-1.1,1.3-1.5,1.8c-0.4,0.4-0.7,0.9-1.2,1.4 c-1-1.7-1.9-3-2.9-4.1l-0.1-0.1c2.1,0.4,3.2,0.6,5.4,1L610.5,517.4z M591.9,514.3c0.7,0.1,1.5,0.3,2.4,0.4c-1,0.9-1.9,2.1-2.5,3 c-0.5-0.8-0.8-1.4-1.2-1.9c-0.4-0.6-0.7-1.2-1.2-2C590.3,514,591.1,514.2,591.9,514.3z M599.3,513.3c5,5.2,10.2,14.3,10.2,17.8v0.1 h0.1c0.4,0.2,0.6,0.3,0.9,0.4c0.3,0.1,0.5,0.2,0.9,0.3h0.1v-0.1c1-2.5,3.2-4.1,6.2-4.5v9.3c-0.2,0-0.3-0.1-0.5-0.1s-0.3,0-0.6-0.1 c-1.1-0.2-2.1-0.4-3-0.5c-3.1-0.5-5.3-0.9-8.8-1.6l0,0c-0.3-0.4-0.7-0.7-1-1.1c-1.2-1.3-2.4-2.6-3.6-3.4l0,0 c-0.2-0.1-0.4-0.1-0.5-0.1c-0.2,0-0.3,0-0.5-0.1l0,0l0,0c-1.5,0.7-3,1.7-4.3,2.9c-3-0.6-5.1-0.9-7.5-1.4c-1.3-0.2-2.7-0.5-4.5-0.8 c-0.3-0.1-0.4-0.1-0.6-0.1c-0.2,0-0.3,0-0.5-0.1v-9.3c3,1.6,5.3,4.2,6,6.8v0.1h0.1c0.4,0,0.6,0,0.9-0.1c0.2,0,0.5,0,0.8,0h0.1v-0.1 C589.5,523.8,594.1,517.2,599.3,513.3z M624,548.1L624,548.1c-3.4,0.2-6.6,1.7-9.5,4.6c-0.5-2.2-1.1-4.1-1.8-5.7c0,0,0-0.1-0.1-0.2 c0.7-4.4,2.3-7.1,4.9-8.1c0.3,0,0.6,0.1,0.9,0.1c0.3,0,0.6,0.1,0.9,0.2l0,0l0,0c0.4-0.3,0.6-0.5,1-0.9l0,0v-5.6 c3.7,0.6,5.5,0.9,9.1,1.6c0.1,0,0.2,0,0.3,0s0.2,0.1,0.3,0.1h0.1v-0.4c0.9-0.3,2-1,2.9-2.8c0.2,2,0.2,4.5,0,5.4 c0,1.4-1.1,2.3-2.3,3c-1.5,1.1-3.5,2.7-3.5,6.3V556c-0.7-0.1-1.2-0.2-2.1-0.4l0,0v-6.2L624,548.1z M621.2,593.5 c1.7,0.3,2.9,0.5,4.3,0.7c0.6,0.1,1.2,0.2,1.9,0.3c-0.3,0-0.5,0-0.8,0.1c-3.4,0.3-6.1,0.6-7.9,1.5v-3.3c0.9,0.2,1.5,0.3,2.4,0.5 l0,0l0,0c0,0,0.1,0,0.1-0.1l-0.1,0.1l-0.1,0.1L621.2,593.5z M622,592.5C622.1,592.5,622.1,592.5,622,592.5 C622.1,592.4,622.1,592.4,622,592.5C622.1,592.5,622.1,592.5,622,592.5z M620,590.8c-2.4-0.4-4.2-0.8-6-1.1c-1.7-0.3-3.4-0.6-5.6-1 c-0.1-0.1-0.1-0.2-0.2-0.3c-1.9-3.6-4.7-7.1-7.9-9.9l0,0c-0.1,0-0.1-0.1-0.2-0.1c-0.1-0.1-0.1-0.1-0.2-0.2l0,0l0,0 c-0.2,0.1-0.2,0.1-0.4,0.1l0,0c-3.1,1.7-5.8,4.2-7.6,7c-0.1,0.1-0.2,0.3-0.3,0.4c-4.4-0.8-6.8-1.2-11.6-2v-11c2.4,2,3.7,5,4.7,7.6 c0.2,0.7,0.4,1.1,0.8,1.8v0.1h0.1c0.4,0,0.7,0,0.9-0.1c0.3,0,0.5,0,0.8,0h0.1V582c-0.4-11.9,4.4-23.5,12.3-29.5 c8.1,8.6,12.9,21.4,12.8,34.1v0.1h0.1c0.4,0.2,0.6,0.3,0.9,0.4c0.3,0.1,0.5,0.2,0.9,0.3h0.1v-0.1c0.2-0.4,0.4-0.8,0.6-1.3l0.1-0.1 c1.1-2.4,2.3-4.9,5-6v10.9L620,590.8L620,590.8z M587.3,598.6v0.1c0.1,0.2,0.2,0.4,0.3,0.6c0.1,0.2,0.2,0.5,0.3,0.7v0.1h0.1 c0.4-0.1,0.6-0.1,0.9-0.2c0.2,0,0.5-0.1,0.8-0.1h0.1v-0.1c-0.6-8,4.7-15.8,10-18.6c5.5,4.9,11,15,10.4,22.4v0.1h0.1 c0.7,0.4,1.1,0.6,1.8,0.9h0.1v-0.1c0.2-0.4,0.4-0.8,0.6-0.9l0,0l0,0c1-2,1.5-2.9,4.2-3.4v11.5c-9.8-1.7-19.6-3.5-29.2-5.3l-4.7-0.9 V594C585.7,595.2,586.3,596.6,587.3,598.6z M583.4,591.2v-4.8c1.1,0.2,2,0.4,2.9,0.5c1.2,0.2,2.4,0.4,3.9,0.7 c-1.2,2.4-2,4.8-2.4,7.3C587.1,593.6,585.9,592.5,583.4,591.2L583.4,591.2z M609.7,591.3c1.6,0.3,2.9,0.5,4.2,0.7 c0.8,0.1,1.6,0.3,2.6,0.5v5.1c-2.1,0.4-3.3,1.1-4.2,2C611.8,596.9,610.9,593.9,609.7,591.3z M584.2,574.8 c-0.2-5.1-0.8-12.5-4.1-18.8c2.5,0.4,4.3,0.7,6.2,1.1c1.6,0.3,3.2,0.6,5.2,0.9c-3.4,5.2-5.7,12.1-6.3,18.9 c-0.1-0.3-0.3-0.6-0.4-0.9C584.6,575.6,584.4,575.2,584.2,574.8C584.3,574.9,584.2,574.9,584.2,574.8z M616.1,580.1v0.2 c-0.5,0.6-1,1.4-1.4,2.1c-0.6-7.1-2.9-14.8-6.4-21.1c3,0.5,5,0.9,7.3,1.3c1.4,0.2,2.8,0.5,4.6,0.8 C617.7,567.4,616.3,572.9,616.1,580.1z M616,560.3c-2.8-0.5-5.5-0.9-9.1-1.6l0,0c0,0,0,0,0-0.1c-2.2-3.7-4.6-6.8-6.5-8.4l0,0 c-0.2-0.1-0.4-0.1-0.5-0.1c-0.2,0-0.3,0-0.5-0.1l0,0l0,0c-2.1,1-4.4,3.2-6.3,6l0,0c-2.2-0.4-4.1-0.7-5.8-1c-3-0.5-5.8-1-9.9-1.7 v-10.8c4.2,2.3,6.7,6.1,8.2,8.4v0.1h0.1c0.4-0.1,0.7-0.1,1.1-0.2c0.2,0,0.4-0.1,0.7-0.1h0.1v-0.1c0-6.3,7-15.8,12.5-18.6 c5.9,5.2,13,16.9,13,23.3v0.1l0,0c0.7,0.4,1.1,0.6,1.8,0.9h0.1v-0.1c2.7-3.1,5.6-5,8.5-5.4v10.9C620.4,561.1,618.2,560.7,616,560.3 z M585.8,533L585.8,533l-0.5-0.1c-0.9-0.1-1.5-0.2-2.4-0.5l-0.1-0.1c1.1,0.2,1.7,0.3,2.8,0.5c1.5,0.3,2.6,0.5,3.7,0.7 c1.2,0.2,2.3,0.4,3.7,0.7c-1.5,1.5-2.9,3.3-4.1,5.1C588,536.6,587.1,534.6,585.8,533z M606.8,536.9c2.6,0.5,4.2,0.8,7,1.2 c0.1,0,0.2,0,0.3,0c-1.4,1.3-2.3,3.1-2.9,5.5C609.6,541,608.2,538.7,606.8,536.9z M565.7,565.9c6,4.3,10.5,12.7,10.6,13.2l0,0 c0,0.1,0.1,0.1,0.1,0.2c0,0.1,0.1,0.2,0.1,0.2l0,0l0,0c0.3,0.1,0.4,0.1,0.6,0.1c0.2,0,0.3,0,0.6,0.1l0,0v3.2 c-4.5-0.8-6.9-1.2-11.3-2l-0.8-0.1v-14.9H565.7L565.7,565.9z M574.9,585.1c1.1,0.2,2.3,0.4,3.8,0.7h0.3l-0.2-0.2 c-0.2-0.2-0.4-0.4-0.5-0.6s-0.3-0.3-0.5-0.6l0,0l0,0c0.2,0.3,0.4,0.4,0.5,0.6s0.3,0.3,0.5,0.6l0,0l0,0c0.9,0.2,1.5,0.3,2.4,0.4v3.3 c-1.8-1.6-4.6-2.8-7.5-4l0,0c-0.5-0.2-1-0.4-1.6-0.7C573.3,584.9,574.1,585,574.9,585.1z M727.6,681.6c1.6,0.2,3.4,0.4,5.4,0.6 c-0.3,3-3.6,5.8-6.9,7.2H726c-3.4-0.4-5.8-0.7-8.3-1.1c-2.2-0.3-4.4-0.6-7.2-0.9c2.4-2.1,3.8-4.6,4.1-7.5 C719.9,680.7,723.3,681.1,727.6,681.6z M721.7,678.4v-31.7c1.1,0.1,1.9,0.2,2.8,0.3c0.8,0.1,1.6,0.2,2.7,0.3V679 c-1.1-0.1-1.9-0.2-2.7-0.3C723.6,678.7,722.8,678.6,721.7,678.4z M735.5,682.6L735.5,682.6c1.4,0.2,2.4,0.3,3.4,0.4 c1,0.1,2,0.2,3.4,0.4c-0.3,2.9-3.9,5.9-7.1,7.3c-1.1-0.1-1.9-0.2-2.7-0.3c-0.7-0.1-1.5-0.2-2.4-0.3 C733.4,687.7,735.2,685.2,735.5,682.6z M628.6,667.3c7,1.2,10.6,1.8,18.3,3c0.4,2.7,2.7,6,6.1,9c-5.9-0.9-9-1.4-14.9-2.4 c-0.2,0-0.4-0.1-0.5-0.1C633.5,674,629.1,670.1,628.6,667.3z M633.2,676.1c-1.9-0.3-3.5-0.6-5-0.9c-1.8-0.3-3.5-0.6-5.9-1 c-0.1,0-0.3,0-0.4-0.1c-2.8-2.3-6-6-6.3-9.1l1.3,0.2c3.5,0.6,5.5,1,9.5,1.6l0,0l0,0C626.6,668.1,627.5,671.4,633.2,676.1z M628.6,664.9v-31.7c0.8,0.1,1.4,0.3,2,0.4s1.3,0.2,2.2,0.4v31.7c-0.8-0.1-1.5-0.3-2.1-0.4C630,665.2,629.4,665.1,628.6,664.9z M710.4,643c-0.7-0.1-1.4-0.2-2.4-0.3l0,0l0,0c-0.2,0.2-0.4,0.3-0.5,0.4c-0.2,0.1-0.4,0.3-0.6,0.5l0,0v33.2h0.1 c1.2,0.1,2,0.3,2.9,0.3c0.8,0.1,1.7,0.2,2.8,0.3l0,0h-0.1c-1.2-0.1-2-0.3-2.9-0.3c-0.8-0.1-1.7-0.2-2.8-0.4c-1-0.1-1.8-0.2-2.6-0.3 c-0.9-0.1-1.8-0.2-3-0.4c-4-0.5-6-0.8-10-1.4c-2.6-0.3-3.9-0.5-6.2-0.9l0,0v-33.1l0,0c-0.2-0.5-0.4-0.7-0.6-1 c-0.1-0.1-0.1-0.1-0.2-0.2l0,0l0,0c-1.6-0.2-2.7-0.4-3.9-0.6c-1.1-0.2-2.3-0.3-3.8-0.5l0,0l0,0c-0.2,0.2-0.4,0.3-0.6,0.5 c-0.1,0.1-0.3,0.3-0.5,0.4l0,0v33.2h-0.1c-1.3-0.2-2.2-0.3-3.1-0.5c-0.9-0.1-1.8-0.2-3.1-0.4c-2-0.3-3.5-0.5-5.1-0.8 c-1.4-0.2-2.9-0.4-4.7-0.7c-0.8-0.1-1.5-0.2-2.1-0.3c-0.7-0.1-1.3-0.2-2.1-0.3v-33.2l0,0c-0.2-0.3-0.4-0.4-0.5-0.6 c-0.2-0.2-0.3-0.4-0.6-0.7l0,0l0,0c-0.9-0.2-1.6-0.2-2.2-0.4c-0.6-0.1-1.3-0.2-2.1-0.3v-3.8c20,3.1,40.7,6.1,63.2,9.1v3.8 C711.6,643.2,711,643.1,710.4,643z M712.4,645.6v31.6c-1.3-0.1-2-0.2-3.3-0.4v-31.7L712.4,645.6z M682.7,641.5v31.7 c-0.9-0.1-1.7-0.2-2.4-0.3c-0.9-0.1-1.8-0.3-3-0.4v-31.7c0.9,0.1,1.7,0.2,2.4,0.3C680.6,641.2,681.5,641.3,682.7,641.5z M652.4,637 v31.7c-1.2-0.2-1.9-0.3-3.2-0.5l0,0v-31.7C650.4,636.7,651.1,636.8,652.4,637z M653,669.2c-1-0.1-1.8-0.3-2.7-0.4 C651.3,668.9,652.1,669.1,653,669.2z M649.2,670.7c20,3.1,40.6,6.1,63,9c-0.1,3.3-2.7,6-5.1,7.3h-0.3c-18.1-2.3-35.9-5-49.3-7 c-0.1,0-0.1,0-0.2,0C652.3,676.7,649.6,672.9,649.2,670.7z M712.4,637.2c-22.5-3-43.2-5.9-63.2-9.1v-7.9c0.2-0.2,0.3-0.3,0.4-0.5 h0.1c22.5,3.5,44.3,6.5,62.7,9V637.2z M649.8,616.3c-0.8,1-1.6,1.8-2.7,3l0,0v48.8h0.1c0.4,0,0.7,0.1,0.9,0.1s0.5,0.1,0.9,0.1l0,0 c-0.1,0-0.1,0-0.2,0c-0.4,0-0.7-0.1-0.9-0.1c-0.3,0-0.6-0.1-1-0.2c-2.4-0.4-4.3-0.7-6.1-1c-1.7-0.3-3.5-0.6-5.7-0.9V633l0,0 c-0.2-0.2-0.3-0.4-0.4-0.5c-0.2-0.3-0.4-0.5-0.7-0.8l0,0l0,0c-2.1-0.4-3.2-0.6-5.3-0.9v-20.1c7.4,1.3,11.7,2,18.3,3 c1.4,0.2,2.9,0.5,4.5,0.7C650.8,615.2,650.3,615.8,649.8,616.3z M609.7,674.3c1.9,0.3,2.8,0.5,4.7,0.9v100.3 c-1.8-0.3-2.8-0.5-4.7-0.9h-0.1V672.2l0,0L609.7,674.3L609.7,674.3z M607.8,751.1c-0.1,0-0.2-0.1-0.3-0.1h-0.1v10.5 c-4.1-0.7-6.8-1.2-9.9-1.8c-1.6-0.3-3.2-0.6-5.2-1v-10.6c2.5,0.5,4.5,0.8,6.4,1.2c2.7,0.5,5.2,1,8.8,1.6 C607.6,750.9,607.7,750.9,607.8,751.1C607.8,751,607.8,751,607.8,751.1l0.2-0.1v0.1C607.9,751.1,607.9,751.1,607.8,751.1z M608,763.7v0.4c-0.1,0-0.1,0-0.2,0c-0.1,0-0.2-0.1-0.3-0.1h-0.1v10.9c-4.1-0.7-6.7-1.2-9.8-1.8c-1.6-0.3-3.3-0.6-5.3-1v-11.3 c2.5,0.5,4.5,0.8,6.4,1.2c2.6,0.5,5.2,1,8.8,1.6C607.7,763.7,607.8,763.7,608,763.7L608,763.7z M607.8,738.1 c-0.1,0-0.2-0.1-0.3-0.1h-0.1v10.6c-4.1-0.7-6.7-1.2-9.8-1.8c-1.6-0.3-3.3-0.6-5.4-1c-0.2-0.1-0.4-0.1-0.5-0.1s-0.3,0-0.4-0.1v-0.1 c0.1,0,0.3,0.1,0.4,0.1c0.2,0,0.3,0,0.5,0.1h0.1v-10.6c2.5,0.5,4.5,0.8,6.4,1.2c2.6,0.5,5.2,1,8.8,1.6 C607.7,738,607.8,738,607.8,738.1l0.2-0.1v0.1C607.9,738.1,607.9,738.1,607.8,738.1z M591.7,719.8c0.1,0,0.3,0,0.5,0.1h0.1v-10.5 c2.5,0.4,4.4,0.8,6.3,1.2c2.6,0.5,5.1,1,8.8,1.6v10.7c-4.1-0.7-6.7-1.2-9.8-1.8c-1.6-0.3-3.3-0.6-5.4-1c-0.2-0.1-0.4-0.1-0.5-0.1 s-0.3,0-0.4-0.1v-0.2C591.4,719.8,591.6,719.8,591.7,719.8z M591.3,707.1v-0.4c0.1,0,0.3,0.1,0.4,0.1c0.1,0,0.3,0,0.5,0.1h0.1 v-10.2c2.5,0.5,4.5,0.8,6.4,1.2c2.6,0.5,5.1,1,8.7,1.6v10.6c-4.1-0.7-6.7-1.2-9.8-1.8c-1.6-0.3-3.3-0.6-5.4-1 c-0.2-0.1-0.4-0.1-0.5-0.1C591.6,707.2,591.5,707.2,591.3,707.1z M591.7,732.8c0.1,0,0.3,0,0.5,0.1h0.1v-10.5 c2.5,0.4,4.4,0.8,6.3,1.2c2.6,0.5,5.1,1,8.8,1.6v10.6c-4.1-0.7-6.8-1.2-9.9-1.8c-1.6-0.3-3.3-0.6-5.3-1c-0.2-0.1-0.4-0.1-0.5-0.1 s-0.3,0-0.4-0.1v-0.1C591.4,732.8,591.6,732.8,591.7,732.8z M607.9,710.2c-0.2,0-0.2,0-0.4-0.1l0,0c0.1,0,0.2,0,0.3,0 C607.8,710.2,607.9,710.2,607.9,710.2L607.9,710.2L607.9,710.2z M607.9,697.3c-0.2,0-0.2,0-0.4-0.1l0,0c-4.1-0.7-6.8-1.2-9.9-1.8 c-1.6-0.3-3.3-0.6-5.4-1c-0.2-0.1-0.4-0.1-0.5-0.1s-0.3,0-0.4-0.1v-0.5c0.1,0,0.3,0.1,0.4,0.1c0.1,0,0.3,0,0.5,0.1h0.1v-10.2 c2.5,0.5,4.5,0.8,6.4,1.2c2.6,0.5,5.1,1,8.7,1.6v10.6h0.1c0.1,0,0.2,0,0.3,0s0.1,0,0.2,0L607.9,697.3L607.9,697.3z M607.9,684.3 c-0.2,0-0.2,0-0.4-0.1l0,0c-4.1-0.7-6.8-1.2-9.9-1.8c-1.6-0.3-3.3-0.6-5.4-1c-0.2-0.1-0.4-0.1-0.5-0.1s-0.3,0-0.4-0.1v-0.1 c0.1,0,0.3,0.1,0.4,0.1c0.2,0,0.3,0,0.5,0.1h0.1v-10.5c2.5,0.5,4.5,0.8,6.4,1.2c2.6,0.5,5.1,1,8.7,1.6v10.5h0.1c0.1,0,0.2,0,0.3,0 s0.1,0,0.2,0L607.9,684.3L607.9,684.3z M592.3,668.7v-8.1c5,0.9,8,1.5,12.8,2.4l2.3,0.4l0,0v8.1c-2.3-0.4-4.1-0.8-5.8-1.1 C598.6,669.9,596,669.5,592.3,668.7z M571.3,657.1c-0.2,2.9-4,5.7-7.5,7c-5.9-1-8.9-1.5-14.9-2.4c3.7-2.5,4.6-5.4,4.7-7.5 c3.2,0.5,5.7,0.9,8.1,1.3C564.7,656,567.5,656.4,571.3,657.1L571.3,657.1z M491.6,653.7l-15.6-2l-0.1-0.1c-4.9-3.4-7-7-7.2-9.1 c4,0.5,7,0.8,10.1,1.2c2.5,0.3,5.1,0.6,8.5,1C487.6,648.5,490.1,651.9,491.6,653.7z M471.9,651.2c-0.9-0.1-1.7-0.2-2.4-0.3 c-0.8-0.1-1.6-0.2-2.7-0.3l-0.1-0.1c-3.4-2.2-6.8-5.8-7.2-8.9c1.2,0.1,2.1,0.2,3,0.3c1.2,0.1,2.3,0.3,3.8,0.4 C466.7,645.8,469.9,649.3,471.9,651.2z M461.7,729.2c42.6,5,82.3,10.7,121.4,17.4l0,0v23.5c-38.9-6.7-79.7-12.5-121.4-17.3 L461.7,729.2L461.7,729.2z M461.7,726.9v-23.5c42.6,5,82.3,10.7,121.4,17.4l0,0v23.5C544.3,737.7,504.6,732,461.7,726.9z M461.7,701.1v-19.5c41.1,4.7,81.9,10.5,121.4,17.2l0,0v19.7C544.3,711.9,504.6,706.2,461.7,701.1z M461.7,679.1v-14.4 c42.6,5,82.3,10.7,121.4,17.4l0,0v14.4C544,689.8,504.3,684.1,461.7,679.1z M461.7,662.4V652c43.5,5.1,83.2,10.8,121.4,17.5v10.3 C544.3,673.2,504.6,667.5,461.7,662.4z M582.2,667.3c-0.2,0-0.4-0.1-0.7-0.1c3.1-2.2,4.8-4.7,5-7.4v-0.1c0.7,0.1,1.2,0.2,1.7,0.3 c0.6,0.1,1.1,0.2,2,0.4l0,0v8.1c-1.3-0.2-2.4-0.4-3.4-0.6c-1.1-0.2-2.2-0.4-3.6-0.7h-0.1v0.3C582.8,667.3,582.5,667.3,582.2,667.3z M589.9,670.7V771c-1.8-0.3-2.7-0.5-4.6-0.8V669.9C587.1,670.3,588.2,670.5,589.9,670.7z M614.6,673c-1.6-0.3-2.9-0.5-4.8-0.9l0,0 h-0.1h-0.1v-8c0.7,0.1,1.3,0.2,1.8,0.3c0.6,0.1,1.2,0.2,2,0.4l0,0c0.3,3.4,3.2,7.1,4.9,8.9c-0.2,0-0.3-0.1-0.4-0.1 c-0.3,0-0.6-0.1-1.1-0.2h-0.1v0.1C615.9,673.2,615.2,673.1,614.6,673z M616.7,752.6c39.6,6.8,81.1,12.8,123.2,17.8V794 c-42.2-5-83.6-11-123.2-17.8V752.6z M616.7,750.3v-23.4c39.6,6.8,81,12.8,123.2,17.8v23.4C697.8,763.2,656.3,757.2,616.7,750.3z M616.7,724.6v-19.8c39.7,6.9,81.1,12.9,123.2,17.9v19.8C697.8,737.5,656.3,731.5,616.7,724.6z M616.7,702.5v-14.3 c39.6,6.8,81,12.8,123.2,17.8v14.3C697.6,715.3,656.1,709.3,616.7,702.5z M616.7,685.9v-10.6c39.7,6.9,81.1,12.9,123.2,17.9v10.6 C697.8,698.8,656.3,692.8,616.7,685.9z M722.9,617c-2-3.8-5.2-6.7-8.3-9.1v-11.7c1.5,0.2,2.8,0.3,3.9,0.5c1.3,0.2,2.6,0.4,4.4,0.6 l0,0L722.9,617L722.9,617z M644.8,552.1c-1.4,0-2.3,0.3-3.1,0.9c-1.7,1.4-2.5,3.9-2.5,7.5c0,4.5,2.3,6.1,3.1,6.6v27.1 c-1-0.2-1.9-0.3-2.7-0.4c-0.8-0.1-1.7-0.2-2.7-0.4v-38.7c0-7.4,4.3-9.7,7.9-10.3V552.1z M637.4,596.2c3.8,0.6,6.3,1,10.6,1.8v8.4 c-6.8-1.1-13.7-2.2-20.4-3.3c-2.8-0.5-5.6-1-8.4-1.4v-3.1c0.8-0.9,3.7-1.2,6.6-1.5c0.4,0,0.9-0.1,1.3-0.1l0,0 c0.4,0,0.7-0.1,1.1-0.1c2.3-0.2,4.5-0.5,6.5-1L637.4,596.2z M634.8,575.8c-2.2,0.5-7.5,2.6-12.5,10l0,0v2.2h0.1 c0.3,0.1,0.4,0.1,0.6,0.1c0.2,0,0.3,0,0.6,0.1h0.1l0.2-0.5c0,0,1.2-1.9,3.1-4c1.8-1.9,4.5-4.4,7.8-5.5v14.7c-2.2-0.4-4-0.7-5.7-1 c-2.1-0.4-4.1-0.7-6.9-1.2l0,0v-5.2c0.1-2.8,0.1-4.3,0.1-7.2v-0.1l0,0c-0.6-0.4-0.9-0.6-1.4-1.1l0,0h-0.1c-0.9,0.2-1.8,0.6-2.5,1.1 c0.3-4.8,1.2-10.7,4.4-14.6c0.1,0,0.2,0,0.3,0c0.3,0.1,0.4,0.1,0.6,0.1c0.2,0,0.3,0,0.6,0.1l0,0l0,0c0.4-0.3,0.6-0.5,1-0.9l0,0 v-5.1c1,0.2,1.9,0.3,2.6,0.4c0.8,0.1,1.6,0.2,2.6,0.5c0.6,0.1,1,0.2,1.5,0.3c0.4,0.1,0.8,0.1,1.4,0.2h0.1v-1.1 c0-7.6,0.4-11.1,1.2-12.1v29.8H634.8L634.8,575.8z M575.5,489.2v0.2h0.1c0.1,0,0.2,0,0.3,0s0.2,0.1,0.3,0.1l0,0 c2.4,0.4,4.1,0.7,6,1.1c1.1,0.2,2.3,0.4,3.6,0.6v2.4l0,0c1.7,1.9,2.8,3.1,4.1,4.6c0.4,0.5,0.8,0.9,1.3,1.5l0.1,0.1l0.1-0.1 c0.1-0.1,0.2-0.1,0.3-0.2c-1.1,1.5-1.8,3.3-2.4,4.8c-1.5-2.3-3.9-4.3-6.5-5.6l0,0l0,0c-0.3,0.2-0.4,0.3-0.6,0.4 c-0.2,0.1-0.3,0.2-0.6,0.4l0,0v5.4c-1.4-0.3-2.5-0.4-3.7-0.6c-0.9-0.2-1.9-0.3-3.1-0.5c-0.6-0.1-1.1-0.2-1.6-0.2 c-0.5-0.1-0.9-0.1-1.5-0.2v-0.2c0.6,0.1,1.1,0.2,1.5,0.2c0.5,0.1,0.9,0.1,1.6,0.2h0.1v-0.1c0.4-0.9,0.8-1.8,0.8-3.4 c0-2.5-0.9-4.4-1.8-6.2c-0.1-0.3-0.3-0.5-0.4-0.8c-0.4-0.8-0.9-1.8-1.3-2.8c-0.1-0.3-0.3-0.7-0.4-1c-1-2.9-0.8-6,0.4-8 c0,0.1,0,0.3,0.1,0.4c0,0.2,0.1,0.4,0.1,0.6C572.6,486,573,488.5,575.5,489.2z M571.3,504.8v0.4h0.1c0.1,0,0.2,0,0.3,0 s0.2,0.1,0.3,0.1l0,0c1.9,0.3,3.3,0.6,4.7,0.8c1.4,0.2,2.8,0.5,4.7,0.8v4.5l0,0c0.2,0.3,0.4,0.4,0.5,0.6c0.1,0.2,0.3,0.3,0.5,0.6 l0,0l0,0c0.9,0.1,1.6,0.3,2.2,0.4c0.6,0.1,1.2,0.2,2,0.4l0,0c0.8,1.2,1.4,2.2,1.9,3.1c0.5,0.8,1.1,1.7,1.8,2.8l0,0 c-1.1,1.7-1.9,3.1-2.2,4.3c-1.5-2.4-4.1-4.5-7.3-5.9h-0.1l-1.3,1.3v4.3c-1.2-0.2-2.2-0.4-3.1-0.6c-1-0.2-2-0.4-3.4-0.6l-1.4-0.2 c0.1,0,0.2-0.1,0.2-0.2l1.3,0.2v-0.1c0.2-0.6,0.4-1.2,0.4-2c0-2.7-1.6-5.4-4.4-10.2l-0.2-0.4c-0.5-1-1.4-2.5-2.4-3.9 c-0.7-1.3-0.8-5,0.1-8C567.3,501,568.2,504.2,571.3,504.8z M566,513c0.1,0.6,0.3,1.1,0.4,1.6l-0.1,0.1c-0.1,0.2-0.3,0.4-0.4,0.7 c-1.4,2.3-1.3,6.8-1,9.4c0,0.1,0,0.2,0,0.2c0,2.3,1.3,3.8,2.8,5.5c0.1,0.2,0.3,0.3,0.4,0.5c1.2,1.5,2.4,2.9,2.4,5.3v9.7 c-0.1,0-0.3,0-0.5-0.1s-0.4-0.1-0.6-0.1v-10.1c0-2.7-1.4-4.1-2.8-5.8c-1.4-1.5-2.8-3.1-2.8-5.4c0-0.2-0.8-6.7,1-9.5 C565.3,514.2,565.5,513.8,566,513z M563.7,542.1v38.8l-0.8-0.1c-1.5-0.2-2.8-0.5-4.5-0.7v-27.2c0.8-0.2,3.1-1,3.1-5.6 c0-3.6-0.8-6.4-2.4-8.3c-0.7-0.9-1.6-1.5-3.1-1.9v-7.8C557.6,529.9,563.7,533.1,563.7,542.1z M556.4,550.6v1.9l0,0l-0.1-0.1 L556.4,550.6C556.3,550.6,556.4,550.6,556.4,550.6z M556.2,552.6L556.2,552.6v27.2c-0.8-0.1-1.4-0.2-1.9-0.3s-1.1-0.2-1.9-0.3V552 c0.7,0.1,1.3,0.2,1.8,0.3C554.8,552.4,555.4,552.5,556.2,552.6z M559.6,582.7c1.7,0.3,3.5,0.6,5.7,0.9c0.3,0,0.5,0.1,0.8,0.1 c1.6,0.9,3.4,1.8,5.1,2.6c0.7,0.3,1.3,0.7,2,1l0.1,0.1c3.5,1.6,7.5,3.3,7.5,4.8l0,0c0,0.1,0.1,0.2,0.1,0.3s0.1,0.2,0.1,0.4l0.1,0.3 v1.6c-9.5-1.7-19.2-3.3-28.7-4.8v-8.5C555.3,582,557.4,582.3,559.6,582.7z M551,602.8c0.1,0.2,0.1,0.3,0.2,0.4 c0,0.1,0.1,0.2,0.2,0.4v7.6c-21.9-3.4-42.2-6.3-61.9-8.8V594C511.8,596.9,531.9,599.8,551,602.8z M492.2,573.4v13.1 c-5-0.7-7.6-1-12.7-1.6C481.1,578.6,485.8,575.7,492.2,573.4z M487.6,572.7c-0.1,0-0.2,0.1-0.2,0.1c-3.6,1.6-6.3,3.8-8.3,6.5v-19.5 c1.8,0.2,3.2,0.4,4.5,0.6c1.2,0.2,2.4,0.3,4,0.5V572.7z M489.5,610.9c0.6,0.1,1.1,0.2,1.6,0.2c0.4,0,0.9,0.1,1.4,0.2V643 c-0.6-0.1-1-0.1-1.5-0.2c-0.4,0-0.9-0.1-1.5-0.2l0,0C489.6,632.1,489.6,621.4,489.5,610.9z M551.4,619.8v31.7 c-1.1-0.2-1.6-0.3-2.6-0.4v-31.7c0.5,0.1,0.9,0.2,1.3,0.2S550.9,619.7,551.4,619.8z M434,739.5c-0.3-0.1-0.6-0.1-0.8-0.1 c-0.2,0-0.4,0-0.7-0.1v-0.5c0.3,0,0.5,0.1,0.7,0.1s0.5,0,0.8,0.1c3.5,0.4,6.2,0.6,8.8,0.9c2.6,0.3,5.2,0.5,8.7,0.9 c0.3,0,0.5,0.1,0.8,0.1c0.2,0,0.4,0,0.7,0.1v0.5c-0.2,0-0.4-0.1-0.6-0.1s-0.4,0-0.7-0.1h-0.1v10.9c-5.1-0.6-8.3-0.9-12.4-1.3 c-1.5-0.1-3.1-0.3-4.9-0.5L434,739.5L434,739.5z M452.3,728.4c-0.2,0-0.4,0-0.7-0.1h-0.1v10.4c-5-0.6-8.3-0.9-12.4-1.3 c-1.5-0.1-3.1-0.3-4.9-0.5v-10.4h-0.1c-0.3-0.1-0.6-0.1-0.8-0.1c-0.2,0-0.4,0-0.7-0.1v-0.4c0.1,0,0.2,0,0.3,0.1 c0.4,0.1,0.6,0.1,1.1,0.1c3.5,0.4,6.2,0.6,8.7,0.9c2.6,0.3,5.2,0.5,8.7,0.9c0.3,0.1,0.5,0.1,0.8,0.1c0.2,0,0.4,0,0.7,0.1l0,0v0.4 C452.7,728.4,452.5,728.4,452.3,728.4z M451.5,661.4c-3.5-0.4-6.1-0.7-8.7-0.9c-2.6-0.3-5.2-0.5-8.7-0.9v-10.7 c6.9,0.7,10.4,1.1,17.3,1.9L451.5,661.4L451.5,661.4z M434,646.6v-7.9c6.9,0.7,10.6,1.1,17.5,1.9l0,0v7.9 C444.5,647.7,440.9,647.3,434,646.6z M434.1,672.1v-10.5c7,0.7,10.5,1.1,17.3,1.9v10.7c-3.4-0.4-6.1-0.7-8.6-0.9 c-2.6-0.3-5.2-0.5-8.7-0.9c-0.3-0.1-0.6-0.1-0.8-0.1c-0.2,0-0.4,0-0.7-0.1V672c0.3,0,0.5,0.1,0.7,0.1s0.5,0,0.8,0.1L434.1,672.1z M433.2,685c0.2,0,0.5,0,0.8,0.1h0.1v-10.5c7,0.7,10.5,1.1,17.3,1.9v10.6c-3.4-0.4-6.1-0.7-8.6-0.9c-2.6-0.3-5.2-0.5-8.7-0.9 C433.7,685.1,433.4,685.1,433.2,685c-0.2,0.1-0.4,0-0.7,0v-0.1C432.8,685,433,685,433.2,685z M452.3,715.4c-0.2,0-0.4,0-0.7-0.1 h-0.1v10.3c-5.1-0.6-8.4-0.9-12.5-1.3c-1.4-0.1-3-0.3-4.8-0.5v-10.6c3.4,0.3,6.1,0.6,8.6,0.9c2.6,0.3,5.2,0.5,8.7,0.9 c0.3,0.1,0.5,0.1,0.8,0.1c0.2,0,0.4,0,0.6,0.1v0.3C452.7,715.4,452.5,715.4,452.3,715.4z M452.3,702.4c-0.2,0-0.4,0-0.7-0.1h-0.1 v10.6c-5-0.6-8.3-0.9-12.4-1.3c-1.5-0.1-3.1-0.3-4.9-0.5v-10.8c7,0.7,10.5,1.1,17.4,1.9C451.8,702.3,452,702.3,452.3,702.4 c0.2-0.1,0.4,0,0.6,0v0.1C452.7,702.4,452.5,702.4,452.3,702.4z M452.3,689.4c-0.2,0-0.4,0-0.7-0.1h-0.1v10.6 c-3.4-0.4-6.1-0.7-8.6-0.9c-2.6-0.3-5.2-0.5-8.7-0.9v-10.7c7,0.7,10.5,1.1,17.4,1.9c0.1,0,0.2,0,0.3,0.1c0.3,0.1,0.6,0.1,1.2,0.1 v0.1C452.7,689.4,452.5,689.4,452.3,689.4z M427.7,646c-1.2-0.1-2.4-0.2-4-0.4l0,0c-0.2,0-0.5-0.1-0.7-0.1c2-1.5,4.8-4.2,5.2-7.4 c1.3,0.1,2,0.2,3.3,0.4l0,0v7.9C430.1,646.2,428.9,646.1,427.7,646z M431.4,649v100.4l-5.1-0.5V648.4 C428.3,648.6,429.4,648.7,431.4,649z M395.9,635.4c0.5,0.1,0.8,0.1,1.3,0.1c-0.6,3-3.8,5.7-7,7.2c0,0,0,0-0.1,0H390 C392.9,640.7,394.9,638.1,395.9,635.4z M395.1,633L395.1,633c0.1,0,0.3,0,0.4,0C395.4,633,395.2,633,395.1,633z M399.7,635.4 c1.5,0.1,2.3,0.2,3.9,0.4h0.2c2.6,0.2,4.6,0.4,6.5,0.6c1.8,0.2,3.7,0.3,6.2,0.6c-0.5,3.1-3.8,5.8-6.8,7.4c-0.1,0-0.2,0-0.3,0 c-4.4-0.4-7.2-0.6-10.7-0.9c-1.3-0.1-2.7-0.2-4.4-0.3C396,641.7,399.4,638.8,399.7,635.4z M418.9,637.2c1.4,0.1,2.4,0.2,3.5,0.3 c1,0.1,2.1,0.2,3.5,0.3c-0.5,3.2-3.9,5.8-6.9,7.3c-0.1,0-0.2,0-0.4-0.1l-5-0.5C416.7,642.6,418.6,639.9,418.9,637.2z M423.6,647.7 v10.5c-15.9-1.6-32.1-3-48.3-4.2v-10.5C391.3,644.7,407.1,646.1,423.6,647.7z M1170,375c-85.8,38.6-172.7,55.5-268.7,53.1 c-101-2.5-201.9-14.9-301.3-32.8s-200.2-30.8-301.2-33.5c-95.2-2.6-183.3,13.6-268.8,51.9V241.6c37.1-17.6,73.8-31.2,109.2-40.5 c40.7-10.7,81.2-16.1,120.5-16.1c127.9,0,223.7,15.9,325.2,32.8C688.7,235,796.1,252.9,941,252.9c44.4,0,90-6.1,135.4-18.1 c30.5-8.1,61.9-19,93.6-32.7V375z"/>
  </g>
</svg>