<svg viewBox="0 0 1200 1200" xmlns="http://www.w3.org/2000/svg">
  <path d="M1199.9,703.69v-548.6l0,0l0,0c-73.49,36.5-149.88,62-232.26,66.8c-9,0.5-18,0.9-27,1.1c-54.49,0-103.48-2.6-149.08-6.7 c-20.9-2-41.79-4.4-62.49-6.9c-4.1-0.5-8.2-1-12.3-1.5c-95.18-12.6-178.67-30.2-273.35-41.6c-60.99-7.9-121.98-12.9-183.37-11.2 c-0.1,0-0.2,0-0.3,0c-84.49,0-170.57,23-259.66,67.9v722.6l-0.1,0.1v97.1h0.1v0.2c2-1,4-2,6-3c35.79-16.2,71.89-30.7,109.58-41.6 c32.39-8.7,64.39-14.2,96.18-17c0,0,0,0-0.1,0.1c17.3-1.2,34.59-1.9,51.79-2.1c33.89,0.1,65.59,1.2,95.68,3.1 c106.48,7.7,212.06,27.9,318.05,42.6c42.29,6.2,86.49,11.6,134.88,15.2c42.59,3.6,85.29,5.7,127.78,4.7c40.19,0,80.89-5,121.98-15 c45.79-11,90.09-27.8,132.88-49.3c1.7-0.8,3.4-1.7,5.1-2.5l0,0c0,0,0.1,0,0.1-0.1L1199.9,703.69 C1200,703.69,1199.9,703.69,1199.9,703.69z M30.09,911.09v-67.1c90.88-104.2,180.87-204.3,302.75-274.9 c-96.78-65.7-190.77-137.3-302.75-173v-67.3c61.59,19.6,118.18,49.3,172.77,84.7c81.99,53,162.37,109,242.06,165.3 c-85.69,41.5-169.47,86.2-241.66,149C139.88,782.89,85.09,847.39,30.09,911.09z M1169.91,718.09 c-70.09,31.5-143.18,50.3-221.06,52.5c-103.18,2.9-207.77-9.7-309.55-25.4c-129.48,63.3-269.16,118.9-386.34,204.2 c-28.9,0.3-57.59,2.8-85.89,7.3c53.89-51.4,112.18-95.6,178.27-132.3c82.79-46,170.27-82.8,254.56-125.9c8.8-4.2,13.3-6.5,22.3-10.9 l0,0c104.78,17.3,212.16,30.2,318.55,28.5c80.69-1.3,156.47-20.2,229.16-52.9V718.09z M1169.91,498.59 c-72.69,32.6-148.28,51.9-229.16,53.2c-106.38,1.7-213.76-11.3-318.55-28.7l0,0l0,0c-7.5-6.2-14.9-12.5-22.2-18.9 c-79.89-69.5-167.07-129.8-254.56-189.3c-59.59-40.5-118.48-83.4-181.17-119.6c29.6-6.2,58.99-9.6,87.79-10.1 c57.19,37.9,113.58,77,169.77,116.3c75.69,53,145.78,111.4,217.36,169.6c101.68,16,206.37,28.8,309.55,25.8 c77.99-2.3,150.97-21.6,221.16-53.1L1169.91,498.59L1169.91,498.59z"/>
</svg>