<svg viewBox="0 0 1200 1200" xmlns="http://www.w3.org/2000/svg">
  <path d="M1116.6,191c-35,12.5-69.6,21.3-103.9,26.5c-0.6,0.1-1.2,0.2-1.7,0.2c-0.1,0-0.2,0-0.3,0c-23.8,3.2-47.8,4.8-71.8,5.1 c-23.2,0-45.5-0.5-66.9-1.4c-16.6-0.8-33.2-2-49.6-3.2v0.4C632,205,505,162.4,310.2,155.8c-12.6-0.5-25.1-0.8-37.7-0.8 c-4.3,0-8.5,0-12.8,0c-20.4,0-40.8,1.4-61.4,4c-7.5,0.9-15,1.9-22.5,3.1c-62,10-120.1,32.4-175.8,60.8v820 c75.5-38.1,148.9-57.3,221-62.3c13.2-0.8,26.4-1.2,39.6-1.3c19.5,0,38.3,0.4,56.5,1c20.2,0.8,40.3,2.1,60.3,3.6c0-0.1,0-0.1,0-0.2 C573.2,998.4,702.6,1045,940,1045c82.5,0,166.5-20.9,253.4-63.6c2.2-1,4.4-2.1,6.6-3.2V155C1172.7,168.4,1145,180.7,1116.6,191z M821.8,1010.8c-84.3-6-155.8-17.6-225.5-28.8c-68.1-11.1-137.8-22.4-218.8-28.4c0.2-254.6,0.5-509.3,0.6-763.9 c73.8,6,139,16.8,206.7,28.1c73.4,12.2,148.6,24.6,237.5,30.9C822.2,502.8,822,756.8,821.8,1010.8z"/>
  <path d="M524.7,715.1c1.4,0.1,2.7,0.2,4.4,0.4h0.3l-0.2-0.2c0,0-0.1-0.1-0.2-0.2c-0.1-0.2-0.2-0.3-0.3-0.5c-0.1-0.1-0.2-0.3-0.4-0.4 c-0.4-0.4-0.7-0.9-1.3-1.4l0,0h-0.1c0,0,0,0-0.1-0.1s-0.2-0.3-0.5-0.4l0,0l0,0c-1.3-0.1-2.2-0.1-3.2-0.1c-0.9,0-1.9,0-3.1-0.1l0,0 c-0.7-1.7-1.9-3.3-3.2-3.9c-0.7-0.3-1.4-0.2-2,0.4c-0.9,0.8-1.1,1.7-0.7,2.8l0,0c-0.1,0-0.3,0-0.4-0.1c-0.1,0-0.2,0-0.2,0 c-1.1-0.2-2.2,0.1-2.8,0.7c-0.5,0.4-0.8,1-0.8,1.6c0,1.6,1.6,3.1,3.6,3.3c0.6,0.1,1.4,0,1.9-0.2c0.1,0,0.1,0,0.2-0.1 c0.3,0.8,0.7,1.6,2,2l0,0l0,0h0.1l0,0h0.1c0.1,0,0.1,0,0.2,0.1c0.2,0,0.3,0,0.5,0.1l0,0c0.1,0,0.2,0,0.3,0c0.3,0,0.5-0.1,0.7-0.1 c0.1,0,0.3,0,0.5-0.1l0,0l0.1-0.2l0,0v-0.1l0,0c0,0,0,0,0.1-0.1c0.8-0.9,0.8-2.4,0.6-3.5C522.4,715,523.6,715,524.7,715.1z"/>
  <path d="M761.2,612.8c-0.5-0.7-0.9-1.3-1-1.8c0-1,0-1.7,0-2.1v-0.5l-0.2,0.1c0,0-1.3,1.1-2.3,3.2c-0.2,0.3-0.4,1-0.5,1.8 c-0.2-1.2-0.7-3.6-1.7-6.8c-1.3-4.6-3.3-7.5-3.3-7.5l-0.1-0.2v0.2c0,0.2,0,0.8,0,2c0,0.2,0,0.5,0,0.7c0-0.6-0.1-1.3-0.1-2 c0-0.2,0-0.4,0-0.4v-0.2l-0.2,0.2c0,0-3.3,3.3-4.9,7.2c-1.4,3.4-2.1,8.8-2.4,12.3c-0.5-2.3-1.6-6.1-3.5-9.3 c-2.4-3.9-4.5-4.8-5.3-5.1c-0.1-0.1-0.2-0.2-0.2-0.2l-0.2,0.1l0,0l0,0h-0.4l0.3,0.2c0.1,0,0.2,0.2,0.5,0.4c0.7,1.2,2.4,4.4,2,7.8 c-0.1,0.9-0.3,1.8-0.4,2.9c-0.6,3.8-1.3,8-0.1,11.7c0.9,2.5,2,3.9,2.9,5c0.8,1,1.5,1.8,1.8,3.1c0.5,2,0.6,5.6,0.6,7.3v0.2 c-0.1,0.4-0.1,0.7-0.1,0.7s0,1-0.1,2.2c-0.8-0.7-1.5-1.2-2.2-1.8c-0.8-0.6-1.5-1.2-2.5-2l0.1-0.1h-0.1c0.1-0.3,0.1-0.6,0.1-0.9 s0-0.5-0.1-0.8v-0.3h-0.1l-0.1-0.6v0.3c-0.3-0.6-0.7-1.2-1.2-1.7l0,0c-0.5-0.4-1.1-0.7-1.7-0.8c-0.1,0-0.2,0-0.3,0l0,0l0,0l0,0l0,0 c-0.8-0.1-1.7,0.2-2.3,0.8s-1,1.4-1,2.3c0,1.9,1.5,3.7,3.4,3.9c0.5,0.1,1.1,0,1.6-0.3c2.2,2.6,3.5,4.1,5.8,6.7l0,0v0.2 c-0.3,2-1.1,3.3-1.5,3.8L740,655l0.3-0.1c0.5-0.2,0.9-0.3,1.2-0.4c0.1,0,0.3-0.1,0.4-0.1l0,0l0,0c0.2-0.2,0.4-0.6,0.6-1.2 c-0.1,0.4-0.2,0.7-0.3,1.1h-0.1l0,0l0,0c-0.1,0.1-0.2,0.3-0.3,0.5c-0.4,0.1-0.8,0.2-1.2,0.5c-0.4,0.1-0.8,0.3-1.1,0.6 c-1,0.6-1.9,1.4-3.1,2.7c-3.4,4.4-7.9,11.6-10.2,18.4c-1.6,4.6-2.2,10.3-2.4,13.2c0,0.1-0.1,0.2-0.1,0.3c0.1-2.8,0.6-8.9,2.5-14.3 c2.7-8,8-15.5,10.2-18.4c0-0.1,0.1-0.1,0.2-0.2l0.1-0.1l0,0c1.1-1.2,2-1.9,2.6-2.1h0.1v-0.1l0,0l0,0h0.1l0.5-0.2h-0.5l0,0h-0.1l0,0 c0,0-0.1,0-0.2,0.1l0,0c-0.9,0.4-1.8,1.2-2.7,2.3c-1.3,1.3-2.4,2.9-2.9,3.5c0-0.6,0-2,0.2-2.9s0.5-2.1,0.6-2.5l0.3-0.3h-0.2l0.1-0.3 l-0.3,0.3l0,0c-0.8,0.2-4.4,1-9.4,4.5c-5.1,3.7-8.1,9-7.7,14.1c0.1,2.2,0.8,4.6,1.4,6.9c0.6,2.4,1.3,5,1.4,7.3 c0.2,3.6,0.3,7.4,0.3,8.5l0,0l0,0l0,0c-0.2,0.5-0.7,1.3-1.5,2.4l-0.1,0.1c-2.1-2.8-3.4-4.6-5.3-7.2c-0.1-0.2-0.2-0.3-0.3-0.5 c-0.2-0.3-0.4-0.6-0.6-1l0.1-0.1v0.1l0.3-0.4h0.1l0,0l0.1-0.2l0.1-0.2l0,0c0.4-0.6,0.6-1.2,0.6-1.7c0-2-1.6-3.9-3.5-4.1 c-1.2-0.1-2.3,0.4-3,1.4c-0.1,0.1-0.2,0.1-0.3,0.3l0,0l0,0c0,0.3-0.1,0.5-0.1,0.7s-0.1,0.5-0.2,0.8l0,0l0,0c0,0.1,0.1,0.3,0.1,0.4 c0.2,1.9,1.7,3.6,3.5,3.8c0.1,0,0.1,0,0.2,0c0.2,0,0.4,0,0.6-0.1l0,0c0,0,0,0,0.1,0s0.1,0,0.2,0c0.7,1.3,1.2,2.2,1.7,3.1l1.7,3.1 V697c0.4,0.7,0.7,1.2,1,1.8c0.4,0.7,0.8,1.4,1.3,2.4c-0.1,0.1-0.1,0.1-0.2,0.1l0,0l0,0c-1,0.8-2.2,1.5-2.9,1.9l0,0 c-1.6-0.5-3.9-0.1-6.9,1.3l0,0l-0.1-0.1c-2.7,1.3-6,3.2-7,3.7c0.3-0.7,0.9-2.4,1.2-5.9c0.3-4.6-1.8-7.3-1.8-7.4l-0.2-0.2v0.5l0,0 c0.1,0.2,0.3,0.7,0.4,1.4c0,0.7-0.1,1.4-0.3,2.1c-0.1,0.2-0.2,0.5-0.2,0.7c0,0.1,0,0.2-0.1,0.3c0,0.1-0.1,0.2-0.1,0.3 c-0.2,0.5-0.5,1.1-0.9,1.6c-0.8,1-2.8,2.5-5,4.2c-4.1,3.1-9.3,7.1-10.2,10.1c-0.8,2.7-0.9,3.9-0.9,5c0,0.7-0.1,1.4-0.4,2.4 c-0.4,1.8-1,3.3-1.8,4.5c-0.7,0.5-1.3,0.9-1.8,1.1l0.2-0.2l-0.4,0.1c-0.3,0.1-0.7,0.4-1.4,0.8c-0.5,0.3-1,0.7-1.6,1 c-0.3-1.1-0.6-2-0.9-2.8c-0.3-1-0.7-2.1-1.1-3.5c0.1,0,0.2-0.1,0.3-0.2c0.7-0.8,1.1-1.6,1.1-2.5c0-1.9-1.4-3.7-3.2-4 c-1.3-0.1-2.5,0.6-3,1.8c-0.2,0.3-0.5,0.7-0.5,0.7l0,0v2.3l0,0c0.3,0.4,0.5,0.6,0.7,0.9c0.2,0.2,0.4,0.5,0.6,0.8l0,0 c0.2,0.1,0.4,0.2,0.6,0.3c0.2,0.1,0.3,0.1,0.6,0.3c0.2,0.1,0.4,0.1,0.5,0.1l0.5,8.6l0,0c-0.8,0.6-1.4,1.2-1.6,1.5 c-0.5,0.7-0.7,1.5-0.9,2.1c-0.1,0.2-0.1,0.4-0.2,0.5v0.1h0.1c0.6,0.4,1.1,0.8,1.3,1l0.2,0.2v-0.2c0-0.3,0-0.9,0.5-1.2l0,0 c0.6-0.8,6.2-5.5,9.2-6.6c2.8-1.1,6.6-1,6.7-1c0.7-0.1,1.2-0.1,1.8-0.1c2.6-0.1,4.4-0.1,12-3.7c6.8-3.1,9.7-7.2,11.5-9.6 c0.6-0.9,1.2-1.6,1.6-1.9c1.4-1,3.6-1.2,4.5-1.3c-0.1,0.1-0.3,0.4-0.5,0.6c-1.2,0.1-2.9,0.4-4,1.3c-0.5,0.4-1,1.1-1.7,2 c-1.8,2.4-4.7,6.4-11.4,9.5c-7.8,3.6-9.5,3.6-12,3.7c-0.5,0-1.1,0-1.7,0.1c0,0-3.9-0.2-6.7,1c-3,1.1-8.5,5.9-9.3,6.6 c-0.2,0.4-0.4,0.7-0.5,1c-0.3-0.2-0.8-0.6-1.2-0.9l0,0h-0.1c-0.4-0.4-0.6-0.4-0.6-0.4h-0.1c-0.1,0-0.1-0.1-0.2-0.1 c-1.5-0.9-3.6-1.9-5.6-2.2c-1.9-0.3-3.7-0.2-5.3-0.1h0.1c0.6-0.3,1.5-0.8,2.4-1.6c1.2-1,1.8-1.8,2-2.1c0,0,0.1,0,0.1,0.1l0,0h0.7 l-0.4-0.2c0,0-0.2-0.1-0.6-0.3c-1.8-1.1-5.3-3-8.4-3.4c-6.4-1-9.7,0.3-11.6,1.3c-1.8,0.9-3.2,2.5-4.6,4.1c-1.3,1.5-2.7,3.1-4.6,4.2 c-3.2,1.6-6.6,1.9-7.9,2c-0.2,0-0.3,0-0.4,0c-0.1,0-0.1,0-0.2-0.1l0,0c0,0-0.6-0.1-1-0.3c-1.4-0.5-2.5-1.1-3.6-1.7 c-1.3-0.7-2.7-1.5-4.8-2.1c-2.7-0.8-4.7-1.2-5.9-1.4c-0.2,0-0.4-0.1-0.6-0.1v-1.8c0-0.6-0.1-1.1-0.4-1.5c-0.4-0.6-3.3-1-3.7-1h-0.1 v0.1c0,0,0,0.1,0,0.3c0.3,5,0.3,9.2-0.1,11.9c-0.7,5-4.2,7.6-7.5,9.5c-3.9,2.3-6.2,6-6.3,6.7l0,0c0,0.3,0,0.5,0.1,0.8 c0.3,0.4,0.6,0.8,1,1.6c0.7,1.2,1.6,2.3,1.6,2.3l0.1,0.1l0.1-0.1c0,0,2.3-3.2,4.5-5.4c0.3-0.3,0.7-0.7,1.1-1.1c0.5-0.5,1-1,1.6-1.5 c0.1-0.1,0.1-0.1,0.2-0.2l0,0c0.5,0.9,1.5,2.8,2.6,4.2c1,1.3,2.7,2.3,4.3,3.1c0.9,0.5,1.8,1,2.3,1.5c1.6,1.3,2.9,3.1,2.9,3.1 l0.1,0.1l0.1-0.1c0,0,0.9-1.7,1.3-2.3c0.6-0.6,1.9-1.4,1.9-1.4l0.3-0.2H615c-0.1,0-0.1,0-0.4-0.3c-0.3-0.3-1-0.8-2.4-1.9 c-1.3-0.9-2.3-1.4-3.2-1.8c-1.1-0.5-2-0.9-3.1-2.1c-1.1-1.2-2.1-2.6-2.9-3.7c-0.2-0.3-0.4-0.5-0.6-0.8c0.4-0.3,0.7-0.6,1-0.9 c0.3-0.3,0.6-0.5,0.7-0.6c0.1-0.1,0.4-0.5,0.7-1.1V749v-0.1c-0.8-1.2-1.2-2.1-1.3-2.2c0.6-1.6,1-2.5,1.8-4.1c0,0,0,0.1,0.1,0.1 c-0.7,1.4-1.1,2.3-1.7,3.7l0,0l0,0c0,0,0.4,0.9,1.3,2.3c0.7,1.2,1.6,2.3,2.6,3.2c1.3,1.2,2.4,1.9,3.5,2.5c1,0.6,2,1.1,3.1,2.1 c2.3,2.1,3.8,4.6,3.8,4.6l0.1,0.1l0.1-0.1c0,0,0.4-0.4,2.8,0.2c2.5,0.5,3.3,1.6,3.3,1.6l0.2-0.1c0-0.1-3.8-5.5-5.4-7.3 c-0.9-1.1-2.6-2.3-4.5-3.6c-1.6-1.1-3.3-2.3-4.4-3.4c-1-1-1.8-2.3-2.6-3.4c-0.2-0.4-0.5-0.7-0.7-1l-0.3-0.5l0,0 c0-0.2,0.1-0.4,0.1-0.7c0-0.4,0.1-0.8,0.2-1.3v-0.7v-0.1l0,0c0.1,0.1,0.1,0.1,0.2,0.1l0,0c-0.1,0-0.1,0-0.2,0h-0.1v0.7h0.1 c1.3,0.7,4.6,2.7,6.9,4.3c2.5,1.8,4.8,5.1,5.1,5.7c0.1,0.6,1.1,2.2,3,2.3c0.2,0,0.4,0,0.6,0c0.7,0,1.2-0.3,1.5-0.5 c0.4-0.4,0.6-0.9,0.5-1.3V752l0,0c0-0.1-0.1-0.3-0.2-0.4l0,0c-0.5-1.1-2.3-4.2-7.3-7.9c-4.3-3.3-7.7-5-9.8-5.8l-0.1-0.1v-0.6 c0.3-0.4,0.3-0.7,0.3-1v0.9h0.1c0.8,0.2,8.2,1.7,11.6,3.2c3.2,1.6,5.7,4.3,8.2,6.9c0.3,0.3,0.5,0.5,0.8,0.8c1.8,1.7,3.7,3.5,6,4.6 c-2.4-1.1-4.3-2.9-6.2-4.7l-0.1,0.1c3.7,4.2,9,10,13.3,10.6c5.4,1,15.8-3.2,20.8-5.2c1-0.4,1.9-0.8,2.4-0.9c2.9-0.8,7.1-0.2,7.3-0.1 h0.1v-0.1c0.1,0.1,0.2,0.1,0.2,0.1h0.2l-0.2-0.2h0.1h0.3l-0.2-0.2c-0.6-0.5-2.3-1.7-4.4-2.7c-0.5-0.2-1.1-0.4-1.7-0.6l-0.3-0.2 c-0.6-0.4-1.2-0.7-1.4-0.9c-0.9-0.6-3.4-0.9-4.2-1c1-0.5,4.1-2.3,5.5-3.1c2.2-0.8,4.4-3.6,4.5-3.7v-0.1h0.2c0-0.2,1.1-1.4,2.9-3.2 c1.4,1.1,2.6,2,3.6,2.8c1.1,0.9,2.3,1.8,3.9,3c-0.1,0.9,0,1.8,0.5,2.7c0.1,0.2,0.2,0.3,0.4,0.5v0.1c0,0.1,0,0.1,0.1,0.2l0,0l0,0 c0.3,0.2,0.6,0.4,0.8,0.5c0.2,0.2,0.5,0.4,0.9,0.6l0,0h1.1l0,0c0.2-0.1,0.3-0.1,0.5-0.2c0.2-0.1,0.3-0.1,0.5-0.2l0,0 c0.1-0.1,0.2-0.2,0.2-0.2l0,0h0.1c1.5-1.1,1.8-3.3,0.8-5c-0.5-0.9-1.4-1.4-2.2-1.5c-0.9-0.3-1.7-0.2-2.5,0.3V740l-0.1,0.2l-0.1,0.1 c0,0,0,0-0.1,0h-0.1v0.1c-1.1-1.2-1.9-2.2-2.7-3.2c-0.8-0.9-1.6-1.9-2.6-3.1l0,0c1.2-0.7,2.8-1.5,5.3-1.8c0.1,0,0.2,0,0.3,0 c0.2,0,0.4,0,0.7,0l0,0l0,0v-0.1v0.1c0,0,0.2,0,0.4,0c0.9,0.1,3.4,0.2,6.3,0.1c6.2,0.5,14.4,0.6,18.9-1.9c6.6-3.6,7.3-10.2,7.6-13.5 c0-0.4,0.1-0.8,0.1-1c1.2-1.3,2-2.1,2-2.1l0.1-0.2h-0.2c0,0-0.3,0-0.7,0c0.4-0.4,0.6-0.6,0.6-0.6l0.2-0.2h-0.2l0.1-0.1h-0.2 c0,0-1.5-0.2-2.9-0.2c-1.2,0-2.2,0.4-2.6,0.6c0.2-0.7,0.9-2.8,1.4-4.9c0.3-1.2,0.5-2.6,0.5-3.7c0.1-0.1,0.2-0.2,0.3-0.3 s0.2-0.2,0.3-0.3l0.4-0.3l-0.3,0.1c0.1-0.1,0.3-0.2,0.4-0.3c0.2-0.1,0.4-0.2,0.6-0.2c0.2-0.1,0.4-0.1,0.6-0.3c0.2-0.2,0.5-0.5,1-0.9 l0,0c1.1-1.5,5.5-7.4,6.9-8.4c0.4-0.4,1.1-0.8,1.8-1.2c1.5-0.8,3.5-1.9,5.2-4.1c1-1.3,2.4-3.9,4-6.9c2.5-4.6,5.6-10.4,8-12.6 c0.1,0,0.3-0.1,0.3-0.3c0-0.1,0-0.3,0-0.6c0.1-1.6,0.3-5.7,0.2-8.8c0-1.7-0.2-3-0.5-4.2l0,0c0.1-0.1,0.2-0.1,0.3-0.1h0.1v-0.3 c0.1-0.2,0.2-0.4,0.3-0.8c0.1-0.4,0.2-0.9,0.4-1.4l0,0c0-0.1,0-0.2,0.1-0.3c0-0.1,0.1-0.3,0.1-0.4v-0.1l0,0l9.2-1.9h0.1 c0.6,0.7,1.3,1.1,1.9,1.3c0.1,0.1,0.2,0.1,0.2,0.2l0,0l0,0c0.3,0,0.5-0.1,0.7-0.1c0.1,0,0.2,0,0.3,0s0.3,0,0.5-0.1l0,0 c0.2-0.1,0.5-0.3,0.6-0.3c0.2-0.1,0.4-0.2,0.7-0.4l0,0c0.2-0.3,0.3-0.5,0.4-0.7c0.1-0.2,0.2-0.4,0.3-0.6l0,0v-1v-0.1l0,0 c0-1.9-1.5-3.7-3.4-3.9c-0.9-0.1-1.7,0.1-2.3,0.7c-0.6,0.5-0.9,1.4-0.9,2.3v0.2h-7.3v-0.1c0.1-0.4,0.3-0.7,0.4-1.1 c0.1-0.2,0.2-0.4,0.2-0.6c0.2-0.5,0.3-1,0.6-1.3l0,0c0-0.2,0.1-0.3,0.1-0.5c0.9-1,2.4-2.5,4.4-3.9c0.6-0.4,1.3-0.8,2-1.2 c4.5-2.7,10.6-6.4,11.2-13.7C764.9,618.4,762.7,615,761.2,612.8z"/>
  <path d="M754.1,664.5c-1.4-0.3-5.4-0.4-11,5H743c0,0-0.1,0.1-0.1,0.2c-2.3,2.3-5.3,7.8-8,12.6c-1.6,3-3.1,5.6-4,6.9 c-1.6,2.1-3.5,3.1-5,4c-0.8,0.5-1.5,0.8-2,1.3c-0.7,0.7-2.7,3.2-4.5,5.4c-1.1,1.3-2,2.4-2.4,3c-0.3,0.5-0.7,0.8-0.9,0.9l0,0 c-0.2,0.2-0.4,0.2-0.6,0.3c-0.1,0-0.3,0.1-0.5,0.2c-0.8,0.4-0.8,0.5-0.8,0.6s0.1,0.1,0.2,0.1c0.1,0,0.1,0,0.2,0c0.2,0,0.3,0,0.5-0.1 c1-0.2,1.5-0.7,2.8-2.1l0.5-0.5c0.2-0.2,0.2-0.2,0.3-0.3c0.5-0.5,0.8-0.9,1.1-1.4c1.9,1.1,2.8,1.6,4.7,2.6c0,0,0,0,0,0.1 c-0.9-0.5-1.5-0.8-2.2-1.2s-1.4-0.8-2.4-1.3h-0.1v0.1c-0.1,0.2-0.3,0.4-0.5,0.7c-0.2,0.2-0.4,0.4-0.6,0.7l-0.1,0.1l0,0h-0.1 l-0.7,0.7h0.2c1.5,0.5,2.7,0.8,3.8,1.2c1.1,0.3,2.2,0.7,3.7,1.1c0,0.5,0.2,1,0.4,1.5v0.1l0.1,0.1c0.6,1.2,1.7,2,2.9,2.1 c0.1,0,0.2,0,0.4,0c0.8,0,1.5-0.3,2-0.8c0.7-0.6,1-1.4,1-2.3c0-1.9-1.6-3.7-3.4-3.9l0,0c-1.2-0.1-2.3,0.5-2.9,1.4c0,0,0,0-0.1,0l0,0 h-0.1c-2.3-1.2-3.4-1.8-5.7-3.1H720l0,0l0,0l0.1-0.1c0.7-1,1.3-2,3.2-3.6c0.7-0.7,1.6-1.3,2.6-1.9c0.2-0.1,0.3-0.2,0.5-0.3h0.1 c0.5,0,0.9-0.1,1.5-0.1c2.1-0.1,4.8-0.2,8.4-1.7c5.9-2.7,9.3-12.3,11.2-17.5c0.1-0.3,0.2-0.7,0.4-1c1.8-4.8,6.3-9.1,6.4-9.2l0.2-0.2 L754.1,664.5C754.2,664.5,754.2,664.5,754.1,664.5z"/>
  <path d="M597.2,743.9c0.2-0.8,0.2-4.3,0.2-7.6c0-2.3,0-4.4,0.1-5.2c0.1-1.8,0.3-2.3,0.3-2.3l0.1-0.1h-0.1c-0.1,0-2.6-0.5-3-0.5l0,0 c-0.5-0.1-1.1,0-1.3,0.9v2.1c-1.2-0.8-3.6-2.1-5.5-2.4c-5.2-0.6-8.6-0.1-10.4,0.2c-0.5,0.1-0.9,0.1-1.2,0.2v0.1 c-0.3,0-0.6-0.1-1-0.4c-1.3-0.8-2.2-2.5-3-4c-0.7-1.3-1.4-2.5-2.1-2.7c-0.2-0.1-0.4,0-0.5,0.1c-0.5,0.4-0.5,1.7-0.5,2.9 c0,0.6,0,1.4-0.1,1.5c-0.9-0.1-1.8-1.8-2.8-3.8c-1.6-3.2-3.6-7.1-7.1-7.9c-2.4-0.6-3.8-0.6-4.5-0.1c-0.3,0.2-0.5,0.6-0.5,1 c-0.1,0.4,0.5,1.4,1.4,3.1c1.1,1.9,2.4,4.2,2.1,5c0,0.1-0.1,0.2-0.2,0.2c-0.7,0.2-2.2-1.9-3.8-4.1c-2.2-3-5-6.8-7.2-7.1 c-2-0.4-3.3-0.2-3.9,0.5c-0.5,0.6-0.4,1.3-0.3,1.6c0.1,0.3,0.6,0.7,1.2,1.2c1.2,1,2.9,2.3,2.2,4.3c-0.1,0.3-0.3,0.5-0.4,0.5 c-0.6,0.1-1.6-1-2.7-2.3c-1.6-1.7-3.5-3.9-5.3-3.9c-2-0.1-3.1,0-3.7,0.3c-0.5,0.3-0.6,0.4-0.6,1c-0.1,0.6,0.2,1.4,0.5,2v0.1 c-0.4-0.4-0.8-0.9-1.3-1.5l-0.1-0.1c-0.1-0.2-0.1-0.4,0-0.6l0,0c0-0.5,0.2-0.7,0.5-0.8h0.2l-0.1-0.1c-0.1-0.1-0.1-0.1-0.2-0.2 c-0.1-0.1-0.3-0.2-0.3-0.4c-0.3-2.1-0.6-3.7-0.8-5.2s-0.5-3.2-0.9-5.3V704l-0.1,0.1c-0.1,0-0.1,0-0.2,0c-0.1,0-0.1,0-0.2,0V704 c0.2-0.1,0.4-0.2,0.6-0.2c0.2-0.1,0.4-0.2,0.7-0.3l0,0c0.1-0.1,0.3-0.2,0.4-0.3c0.1-0.1,0.3-0.2,0.4-0.4c0.2-0.3,0.3-0.5,0.4-0.6 c0.1-0.1,0.1-0.2,0.2-0.3l0,0c0-0.2,0.1-0.4,0.1-0.6l0,0c0.3-0.8,0.2-1.6-0.3-2.2c-0.8-1.1-1.6-1.1-2.2-0.9c0-1.7-1.2-3.4-2.5-3.6 c-0.5-0.1-1,0.1-1.4,0.4c-0.6,0.5-0.9,1.4-0.9,2.5c0,0.4,0.1,0.9,0.2,1.4c-0.5,0-0.9,0.1-1.4,0.4c-0.3,0.3-0.5,0.7-0.5,1.4 c0,0.9,0.3,1.6,0.9,2.3c0.6,0.6,1.3,0.9,2.2,1.2l0.1,0.1c0.4,0.2,0.7,0.3,1.3,0.5c0.1,1.2,0.2,2.2,0.3,3.1c0.1,1,0.2,2,0.3,3.2 c-2.1-2.6-2.9-3.3-3.9-3.9l0,0c0,0-0.1,0-0.2-0.1c-0.6-0.5-3.5-2.9-4.3-5.9c-0.4-1.3-0.5-3.2-0.5-5.1c-0.1-2.6-0.2-4.9-1.2-5 c-0.7-0.1-1.3,0.9-1.9,1.9c-0.5,0.8-0.9,1.6-1.4,1.7c-0.2,0-0.3,0-0.5-0.2c-0.6-0.5-0.5-2.8-0.5-5.3c0.1-2.9,0.2-6.2-0.6-8.3 c-1.3-3.2-4.1-6-5.6-6.2c-0.4-0.1-0.7,0-0.9,0.3c-0.4,0.4-0.6,1.7-0.8,3.2c-0.3,1.9-0.6,4.1-1.4,4.4c-0.2,0.1-0.5,0-0.8-0.3 c-1.4-1.2-1-4.1-0.7-6.9c0.2-1.9,0.5-3.8,0.2-5.1c-0.4-2.4-1.6-4.5-2.9-5.2c-0.4-0.2-0.8-0.2-1.1-0.1c-0.8,0.4-0.7,1.8-0.6,3.4 c0,1.3,0.1,2.6-0.4,3.1c-0.1,0.1-0.3,0.2-0.5,0.2c-1.2-0.2-1.6-1.8-1.9-3.1c-0.2-0.9-0.4-1.6-0.8-1.9c-0.5-0.3-0.9-0.1-1.1,0 c-0.3,0.1-0.4,0.2-0.6-0.2c-0.2-0.3-0.2-0.9-0.3-1.5c-0.1-0.9-0.2-1.9-0.7-2.2c-0.2-0.1-0.3-0.2-0.6-0.1c-0.5,0.1-0.9,0.7-0.9,1.5 c0.1,0.4,0.1,0.7,0.2,1l0.1,0.4c-0.1,0.9-0.2,2.5-0.1,3.7c-0.8-0.6-1.8-1.5-3.2-2.8c-0.1-0.1-0.1-0.1-0.2-0.2l-0.1-0.1 c-0.1-3.2-0.1-5.2-0.1-8.4c0.7,0,1.3-0.2,1.9-0.4c0.2,0,0.4-0.1,0.6-0.1l0,0l0,0c0.2-0.2,0.3-0.3,0.5-0.5l0,0 c0.2-0.2,0.3-0.3,0.5-0.6l0,0v-0.1c0.2-0.4,0.3-0.9,0.2-1.5c-0.3-1.6-1.1-2.1-2-2.4c0.2-0.5,0.3-1.2,0.3-1.8c0-2-1.1-3.7-2.4-3.8 c-0.5,0-1,0.1-1.4,0.5c-0.6,0.6-1,1.6-1,2.7c0,0.4,0.1,0.8,0.2,1.1c0,0.1,0.1,0.2,0.1,0.4c0,0,0,0-0.1,0c-0.6-0.3-1.5-0.4-2.2-0.1 s-1.1,0.7-1.2,1.5c-0.3,1.8,0.8,3.5,2.9,4.4l0,0l0,0c0,0,0,0,0.1,0l0,0c0,1.3-0.1,2.4-0.1,3.4c0,0.8,0,1.6-0.1,2.6 c-1.8-1.9-2.9-3.3-3.8-4.4l-0.1-0.2h0.2l-0.3-0.2c0,0,0,0-0.1-0.1l-0.3-0.3v0.1c-0.3-0.2-0.7-0.6-1.2-1.2c-0.6-1.7-0.7-3.5-0.4-5.3 c0.3-1.7,0.9-3.8,1.5-5.9c1-3.7,1.9-6.9,1.3-7.7c-0.1-0.1-0.2-0.2-0.4-0.2l0,0c-0.6,0-1.4,0.8-2.2,1.7c-0.8,0.8-1.6,1.7-2.2,1.7l0,0 c-0.1,0-0.2-0.1-0.3-0.2c-0.3-0.6,0-2.4,0.3-4.5c0.4-2.8,1-6.4,0.2-8.5c-0.3-0.8-0.6-1.5-0.8-2.2c-0.8-2.3-1.3-3.6-3.5-3.8 c-1.6,0-2.6,2.8-3.5,5.1c-0.5,1.4-1,2.7-1.4,2.7l0,0c-0.1,0-0.2-0.1-0.3-0.2c-0.7-1-0.4-2.5-0.1-4.1c0.2-1.5,0.5-3,0.1-4.1 c-1-2.5-1.5-3.4-2.9-3.2c-0.9,0.1-1.4,1.5-1.9,2.6c-0.4,0.9-0.7,1.8-1.1,1.8c-0.3,0-0.8-0.9-1.3-1.8c-0.5-0.8-1-1.8-1.6-2.5 c-0.5-1.1-1-1.6-1.7-1.4l0,0c0-0.6,0.3-0.7,0.3-0.7c0.6-0.1,1,0.2,1.6,0.7l0.3,0.2v-0.2c0.2-1.5,0.3-4.2,0-6.9c0-0.1,0-0.1,0-0.2 c1.4-3.2,2.1-5.1,3.4-8.4l0.1-0.1c0,0,0,0,0.1,0.1l0,0l0,0c0.7,0.4,1.3,0.5,1.7,0.6h0.1c1.3,0.2,2.3-0.2,2.3-0.2 c0.4-0.1,0.8-0.5,1.1-1.2c0.2-0.7,0-1.5-0.5-2.4c-0.5-0.7-0.9-1-1.4-1.2c0.5-0.3,0.9-0.8,1.3-1.3c1-1.5,1-3.4,0-4.2 c-0.3-0.2-0.9-0.4-1.2-0.3c-0.8,0.1-1.6,0.7-2.4,1.6c-0.5,0.8-0.7,1.5-0.8,2.2l0,0c-0.3-0.4-0.5-0.6-0.5-0.6s-0.8-0.6-1.7-0.5 c-0.5,0.1-0.9,0.4-1.1,1c-0.3,0.5-0.4,1.1-0.3,1.7c0,0.4,0,0.9,0,1.4v0.1h0.1c0.1,0.1,0.3,0.1,0.5,0.2c0.1,0.1,0.2,0.3,0.3,0.4l0,0 l0.3,0.7l1,1c0,0,0,0,0,0.1c-0.1,0.2-0.2,0.3-0.3,0.4c-0.1,0.1-0.1,0.2-0.2,0.4l0,0v0.3l-0.1,0.1l0,0v-0.4c0.1-0.1,0.2-0.3,0.2-0.4 c0.1-0.1,0.1-0.2,0.2-0.4v-0.1l-0.3-0.3l-0.1,0.1c-1.4,1.8-2.1,2.8-3.1,4.2c-0.1-0.4-0.2-0.8-0.4-1.1c-0.9-2.7-1.5-4.7-1.3-7.3 c0.3-2,0.8-2.9,1.2-3.7c0.4-0.6,0.6-1.1,0.6-1.9c0-0.3-0.1-0.5-0.3-0.6c-0.3-0.2-0.7-0.1-1,0c-0.2,0.1-0.5,0.1-0.6,0 c0,0-0.1-0.2,0.1-0.7c0.3-0.8,1.5-1.8,2.8-2.9c2.3-2,4.9-4.3,3.9-6.2c-0.8-1.4-3-0.7-4.8-0.1c-1.1,0.4-2.1,0.7-2.4,0.4 c-0.2-0.2-0.1-0.6,0.2-1.4c0.7-1.8,2.3-2.7,4.1-3.7c2.3-1.2,4.6-2.5,4.9-6c0-0.6-0.1-1.1-0.5-1.3c-0.7-0.5-2.2,0-3.7,0.6 c-1.1,0.4-2.3,0.9-2.8,0.6c-0.1-0.1-0.2-0.2-0.3-0.3c-0.3-1,0.7-2.3,1.9-3.7c1.2-1.5,2.4-3,2.2-4.3c0-0.9,0.1-1.5,0.2-1.9 c0.1-0.9,0.2-1.4-0.7-2.3l-0.4-0.4l0.2,0.5c0.2,0.4,0,1.1-0.3,1.8c0.1-0.4,0.1-0.8,0-1.2c-0.1-0.3-0.6-1-2.1-0.5 c-1.5,0.4-2.1,1.3-2.6,2c-0.5,0.8-0.9,1.4-2.2,1.1c-0.2,0-0.6-0.7-0.9-1.3c-0.4-0.8-0.8-1.6-1.3-1.7c-0.1,0-0.3,0-0.4,0.1 c-0.3,0.2-3.1,2.2-3.5,5c-0.1,0.8-0.1,1.8,0,2.8c0.1,1.8,0.1,3.5-0.7,4c-0.1,0.1-0.2,0.1-0.3,0.1c-0.4-0.1-0.9-0.8-1.4-1.6 c-0.8-1.2-1.8-2.8-3.2-2.5c-0.8,0.1-1.5,0.6-2,1.5c-0.8,1.3-1,3.1-0.6,4.1c0.1,0.5,0.8,1.6,1.6,2.9c1.3,2.2,3.1,5.1,2.8,6.1 c0,0.1-0.1,0.2-0.3,0.3c-0.6,0.2-1.6-0.6-2.7-1.4c-1.3-1-2.7-2.2-4-2c-0.6,0.1-1.2,0.6-1.6,1.4c-1.9,3.5,4.1,7.8,7,9.9 c0.7,0.5,1.2,0.9,1.5,1.1c0.6,0.6,0.6,0.9,0.7,1.3c0.1,0.5,0.2,1.2,1.1,2.4c0.9,1.3,2,2.2,3,3c0.8,0.6,1.6,1.2,2.1,1.9 c0.7,1.1,2.9,5.5,4,9.5c-1.1-0.8-1.9-1.5-2.8-2.1c-0.9-0.7-1.8-1.4-3.1-2.3l0,0c0.8-1.6,0.4-3.4,0.3-4c0-0.1,0-0.2,0-0.2l0,0 c-0.2-0.5-0.5-0.9-1-1.4c-0.8-0.4-1.6-0.3-2.2-0.1c-0.6,0.3-0.8,0.7-1,1.1l0,0c0,0.1,0,0.1-0.1,0.2l0,0c-0.3-0.4-0.8-0.8-1.3-1.2 c-1-0.8-2.1-1.1-3.2-0.9c-0.4,0.1-0.7,0.3-1,0.6c-0.1,0.1-0.1,0.1-0.2,0.2l0,0c-0.7,1.1,0.2,3,2,4.3c0.2,0.1,0.4,0.2,0.6,0.3 c0.1,0.1,0.2,0.1,0.4,0.2c-0.2,0.3-0.3,0.8-0.2,1.3c0,0.1,0.1,0.1,0.1,0.2c0.2,0.4,0.3,0.8,0.8,1.1c0.5,0.4,1.1,0.6,1.9,0.7 c0.2,0,0.4,0,0.5,0l0,0h0.1h0.1l0,0c0.4-0.1,0.8-0.2,1.3-0.5l-0.1,0.2l0.3-0.3h0.1l0,0l0,0l0,0l0,0c0.1-0.1,0.3-0.2,0.4-0.3 c0,0,0,0.1,0.1,0.1l-0.1,0.1l0.1,0.1c1.6,1.6,2.8,2.9,4,4.1c1.2,1.2,2.4,2.4,4,4v0.3c0,1.9-0.1,3-0.2,3.7c0,0.3,0,0.5,0,0.7l0,0 c0,0.2,0,0.2,0,0.3l0.2,0.4V617c0-0.2,0.1-0.5,0.1-0.9c0.2-1.4,0.6-4,0.6-7c0-4.4-2.9-11.6-3.3-12.3c-0.4-0.6-0.7-1.2-0.8-1.4 c0.1-0.2,0.3-0.4,0.4-0.5c0.1,0.2,0.4,0.7,0.7,1.4c0.5,0.7,3.3,7.8,3.3,12.1c0,4-0.6,7.5-0.8,7.9l0,0v2.4c-0.4,0-0.9-0.3-1.4-0.6 c-0.6-0.4-1.2-0.7-1.6-0.6c-0.2,0-0.3,0.2-0.4,0.4c-0.4,0.6,0.5,1.9,1.4,3.2c0.7,1,1.5,2.1,1.2,2.4s-1.5,0-2.8-0.3 c-1.6-0.4-3.2-0.8-4-0.3c-0.2,0.1-0.3,0.3-0.4,0.5c-0.3,2.1,0.5,5,4,6.2c0.3,0.1,0.6,0.2,0.9,0.4c3.1,1.2,8.8,3.3,9.1,4.7 c0,0.2,0,0.3-0.1,0.4c-0.5,0.6-2.3-0.4-4.1-1.3c-2-1.1-4.2-2.2-5.1-1.5c-0.4,0.3-0.6,0.8-0.5,1.6c0.2,3.7,2.2,6.7,5.7,8.5 c0.9,0.4,2.6,0.7,4.4,1c2.5,0.4,5.4,0.8,6,1.7c0.1,0.2,0.1,0.3,0.1,0.5c-0.2,0.9-1.7,0.7-3.2,0.4c-1.9-0.3-4.1-0.6-4.5,1.1 c-0.2,0.7,0,1.3,0.4,1.9c1.3,1.8,4.8,2.4,5.4,2.5h0.1c1.1,0.1,4.6,0.4,5.9,1.8c0.7,0.6,2.3,2.4,4.1,4.5l0.2,0.3l0,0 c0,0,0.9,1.1,2.3,2.6l0,0c0.5,0.6,0.9,1.1,1.3,1.5c-2.1-2-3.7-3.6-3.8-3.6l-0.1,0.1c0,0,2.4,2.9,5.2,5.8c0.1,0.1,0.2,0.2,0.2,0.3 c0.1,0.1,0.1,0.2,0.2,0.2c-0.9,0-1.6-0.1-2.3-0.1c-0.7,0-1.5-0.1-2.5-0.1c0-1-0.4-2.1-1.1-3.2c-0.7-0.9-1.5-1.4-2.5-1.5 c-1.1-0.1-1.7,0-2.1,1c-0.1,0.2-0.1,0.6-0.1,1c0,0.2,0,0.3,0,0.5c-0.4-0.1-0.8-0.2-1.2-0.3c-1.4-0.2-2.8,0-3.5,0.6 c-0.3,0.2-0.4,0.5-0.4,0.9c0,1.1,1.7,2.2,3.9,2.4c0.1,0,0.2,0,0.4,0c0,0.1-0.1,0.1-0.1,0.2c0,0,0,0.1-0.1,0.1l0,0 c-0.2,2.4,1.5,3.1,2.1,3.3l0,0c0.2,0,0.3,0,0.5,0.1l0,0c0.8,0.1,1.4,0,2.1-0.4c0.8-0.6,1.4-1.5,1.8-2.3c3.4,0.6,5.2,0.9,8.7,1.4h0.1 V668c0,0,0,0,0-0.1c1.3,1.2,2.7,2.4,3.6,3.2c-2-0.3-3.1-0.2-3.4,0.5s1.5,2.1,4.5,4.3c2.5,1.8,5.4,3.9,5.2,4.8c0,0.2-0.2,0.4-0.6,0.4 c-1.7,0.5-3.6-0.7-5.2-1.7c-1.3-0.8-2.4-1.5-3.2-1.2c-0.4,0.1-0.7,0.5-0.8,1.1c-1.1,3.5,2.5,7.2,4.7,8.8c0.9,0.7,3.2,1.2,5.8,1.7 c2.8,0.6,6,1.3,6.3,2.2c0.1,0.2,0,0.4-0.3,0.7c-1.2,1.2-3.9,0.4-6.3-0.3c-2-0.6-3.7-1.1-4.4-0.5c-0.3,0.2-0.4,0.5-0.4,0.9 c-0.2,3.5,6,9.8,9,10c1.3,0.1,2.7-0.7,3.9-1.4c1.1-0.6,2.1-1.3,2.9-1c0.4,0.1,0.6,0.4,0.9,0.9c0.7,1.4,0.2,2.2-0.2,2.9 c-0.2,0.4-0.4,0.7-0.3,1.1c0.1,0.3,0.5,0.6,1.2,0.8c1.4,0.5,2.7-0.1,3.9-0.6c1.3-0.6,2.7-1.3,4.4-0.6c3,1,7.9,3.8,11,6.9 c0.1,0.1,0.1,0.1,0.2,0.2c0.1,0.1,0.2,0.3,0.4,0.4c0.1,0.1,0.2,0.3,0.4,0.4c0.4,0.4,0.7,0.9,1.2,1.4c0.1,0.1,0.1,0.1,0.2,0.2 c0.1,0.1,0.2,0.3,0.4,0.4c0.6,0.7,1.2,1.4,1.6,1.9c0.3,1,1.1,1.9,1.7,2c0.1,0.4,0.2,0.6,0.1,0.7c-0.1,0-0.2,0-0.3,0.1 c-0.2,0.1-0.6,0.1-1,0.1c-1,0-2.4,0.1-3.7,0.8c-0.4,0.2-0.8,0.6-1.3,1.1c-2.4,0.4-4.2,2.5-4.6,3l-0.2,0.1l0,0 c-0.1,0.2-0.3,0.6,0,0.8s2.9,0.6,3.9,0.4c0.4-0.1,0.7-0.4,0.9-0.6c0.2-0.2,0.3-0.3,0.4-0.3l0.1,0.1c0,0.1,0.1,0.3,0.1,0.5 c0.2,0.9,0.6,2.4,1.7,2.4c0.4,0,1-0.2,1.8-0.5c1.9-0.7,4.7-1.8,6.8-0.4c0.5,0.3,0.8,0.7,0.8,1c0,0.6-0.9,1.3-2,2 c-1.4,0.9-3,2-2.5,3.5c0.2,0.8,0.8,1.4,1.8,1.8c2.1,1,5.4,0.6,6.4,0.1c0.4-0.2,0.9-0.7,1.6-1.2c1.5-1.2,3.4-2.9,4.8-2.7 c0.4,0.1,0.7,0.3,1,0.6c1.3,1.8-0.1,2.9-1.6,4.1c-1.4,1.1-2.8,2.3-2.1,4.1c0.5,1.2,1.5,2.1,2.8,2.6c1.8,0.6,3.8,0.3,4.9-0.3 c0.8-0.4,1.9-1.7,3.2-3.1c1.6-1.7,3.3-3.7,4.2-3.6c0.1,0,0.3,0.1,0.3,0.3c0.9,1.8-0.2,3.1-1.3,4.4c-1,1.1-1.9,2.2-1.2,3.4 c0.4,0.7,0.9,1.1,1.6,1.3c1.6,0.4,3.8-0.9,5.3-1.9c0.9-0.6,1.6-1.7,2.3-2.8c0.9-1.5,1.9-3,3.6-3.8c2.2-1.1,2.6-0.8,3-0.6 c0.1,0.1,0.3,0.2,0.5,0.2l0,0l0,0c0.8-0.3,1.5-0.6,2-1c-0.4,0.3-0.9,0.7-1.5,1l-0.2,0.1l0.2,0.1c0.8,0.3,2.3-0.6,4-1.7 c2-1.6,4.7-1.8,7-1.8c1.6,0,2.6,0.9,3.4,1.7c0.1,0.1,0.2,0.2,0.3,0.3v0.1c-1.7,0.5-3.9,1.3-6,2c-1.4,0.5-2.9,1-4.2,1.5 c-3.1,1.3-4.6,2.5-5.3,3.3c-0.4,0.1-0.7,0.2-0.9,0.4c-0.2,0.1-0.4,0.3-0.4,0.6c0,0.8,0.9,2.1,2.8,2.4c2,0.3,3.2-0.5,3.4-0.8l0,0 c0.1-0.3,1.2-0.9,2.6-1.6c1-0.5,2.2-1.2,3.5-2c2-1.3,5.4-2.1,7.1-2.1c0,1.7-0.2,2.4-0.3,2.6c-0.2,0.2-0.6,0.4-1.2,0.7 c-1.4,0.6-3.7,1.6-7.3,4.7c-5.3,4.6-6.7,10.3-6.7,10.4l-0.1,0.5l0.3-0.4c0,0,0.9-1.2,2.9-1.7c1.9-0.5,3.1-0.5,3.1-0.5h0.1v-0.1 c0,0,0.3-2.4,3.6-5c1.7-1.6,4.2-2.8,6.2-3.7C595.8,745.1,597,744.5,597.2,743.9z M478.7,659.9c-0.3-0.3-0.6-0.7-0.9-1 c2.3,2.2,6.8,6.4,9.4,8.3c2.8,2.1,4.2,3,4.7,3.2c0.2,1,0.1,1.3,0.1,1.3l0,0c0-0.2-0.1-0.5-0.1-0.7l0,0l0,0c-0.1,0-0.1-0.1-0.3-0.2 c-0.6-0.3-1.9-1.1-4.4-3c-1.4-1.1-3.5-2.9-5.4-4.7l0,0C480.6,662.1,479.7,661,478.7,659.9z M449.8,583.9c-0.3-2.1-0.4-3.1-0.6-5.3 l0,0l0,0c-1-1.1-1.5-1.7-2.5-2.9c-1.5-2.1-2.6-4.8-3.1-6c0.4,0.5,0.9,1.2,1.5,1.9c0.7,1.4,1.3,2.6,1.9,3.6c1,1.1,1.5,1.7,2.5,2.9 c0.3,2.2,0.4,3.2,0.6,5.4v0.1h0.1c0,0,2,0.1,3.4-0.1c0.8-0.1,1.8-0.5,2.6-0.8c-0.4,0.3-0.9,0.5-1.4,0.8c-0.7,0.3-1.3,0.4-1.8,0.5 C451.8,584,450.2,583.9,449.8,583.9z M450.3,587.2c0.4,1.7,0.6,2.6,1,4.4c-0.1,0-0.2,0-0.5-0.1c-0.3-1.3-0.5-2.2-0.8-3.7l0,0l0,0 c0,0-1.3-0.7-4.1-2.7c-1.9-1.4-3.7-3.2-4.7-4.2c0.9,0.6,2.2,1.6,3.5,2.4c0.5,0.4,1.1,0.9,1.5,1.2C448.7,586.3,450.1,587,450.3,587.2 L450.3,587.2z M461.5,629.4c-0.7-0.3-1.4-0.5-2.1-0.8c-1-0.4-1.8-0.9-2.6-1.3c0.8,0.4,1.8,0.7,2.9,0.9c2.1,0.6,3.5,0.5,4.1,0.5 c0,0.3-0.1,0.5-0.1,0.7C463.5,629.4,462.7,629.5,461.5,629.4z M471,641.1c-0.1,0.3-0.1,0.6-0.1,0.7c-0.4-0.1-1.9-0.4-4-1.1 c-0.4-0.2-0.9-0.3-1.3-0.5c-2.4-1-4.9-2.2-6.4-3c1.6,0.6,4.2,1.6,6.3,2.3C468.3,640.5,470.3,641,471,641.1z M475.8,648.6 c-0.2,0.4-0.3,0.6-0.3,0.7c-0.3,0-2.1,0.3-3.7,0c-0.5-0.1-1.3-0.2-2.3-0.3c-1-0.4-1.8-0.8-2.3-1.1c1.1,0.1,3.5,0.4,4.9,0.6 C473.6,648.8,475.5,648.6,475.8,648.6z M574.6,731.1c-0.2,0-0.4,0-0.4,0c-0.2-0.2-0.9-1.3-2.1-2.4c-0.4-0.4-0.8-0.9-1.1-1.5 c-0.1-0.5-0.1-1-0.1-1.3c0.3,0.7,0.9,2.1,1.9,3C573.7,729.9,574.3,730.7,574.6,731.1z M568.2,731.7L568.2,731.7 c0.3,0.1,0.4,0.1,0.5,0.1h0.1c0,0,0.1,0.1,0.1,0.2c0.2,0.9-0.1,1.4-0.8,2.7c-0.2,0.3-0.4,0.7-0.6,1.1c-0.3,0.6-0.6,1.3-0.9,2 c-0.6,0.9-1,1.5-1.3,1.9c0.3-0.8,0.9-2.4,1.6-3.9c0.2-0.5,0.5-1,0.6-1.4c0.6-1.1,0.8-1.7,0.8-2.6 C568.2,731.8,568.2,731.7,568.2,731.7z M564.9,731.1c-0.1,0-0.5-0.7-0.8-1.4c-0.4-0.8-1-2-1.8-3.3c-0.4-0.7-0.8-1.4-1.2-2.3 c-0.2-1-0.4-2-0.5-2.7c0.4,1.2,1.3,3.4,2.4,5.2c0.7,1.2,1.2,2.2,1.6,3c0.4,0.8,0.6,1.3,0.8,1.5C565.2,731.1,565,731.1,564.9,731.1z M545,728.6c1.2-1.3,1.8-2.2,1.6-2.9c0-0.1-0.2-0.3-0.5-0.4c0.6,0.2,1.1,0.4,1.1,0.6c0.2,0.5-0.3,1.3-1.6,2.7l-0.1,0.1 c-0.3,0.3-1.6,1.3-2.7,2C543.5,730,544.3,729.3,545,728.6z M553.6,727.9c-0.4-0.1-0.6-0.5-0.8-1.3c-0.3-0.8-0.7-2-1.7-3.7 c-0.7-1.1-1.5-2.3-2.3-3.4c-0.3-0.6-0.5-1.1-0.7-1.5c0.7,0.9,2.2,2.8,3.6,5.1c1,1.7,1.4,2.9,1.7,3.7c0.2,0.6,0.4,1,0.6,1.2 C553.9,728,553.8,728,553.6,727.9z M555.8,732.5c1.1-1.7,1.5-2.9,1.3-3.4c0,0,0-0.1-0.1-0.1c0.1,0,0.2,0,0.3,0.1 c0.2,0,0.3,0.1,0.3,0.2c0.2,0.4,0,1.5-1.2,3.2l0,0c-0.5,0.8-1,1.8-1.5,3c-0.5,0.6-0.9,1.2-1.2,1.7 C554.1,736.1,554.8,734.1,555.8,732.5z"/>
  <path d="M511.6,595.8c0.2-1.7-1.8-4-1.9-4.1l-0.2-0.2v0.3c0,0,0.3,2.3,0.2,2.9c0,0.1,0,0.2,0,0.3c0,0.3-0.1,0.6,0,1l0,0l0,0 c0.4,0.2,1,0.6,1.4,1l0.4,0.3l-0.1-0.3c-0.1-0.2,0-0.5,0-0.8C511.6,596.1,511.6,595.9,511.6,595.8z"/>
  <path d="M511.4,632.4c0.4-0.4,0.7-1.1,0.8-1.4v-0.1h-0.1c-0.2-0.1-0.4-0.2-0.6-0.3s-0.4-0.1-0.5-0.2h-0.1h-0.1 c-0.5,0.3-0.5,0.7-0.5,0.9c-0.3,0.8-2.5,1.9-2.5,1.9l-0.4,0.2h0.4C508,633.3,510.8,633.2,511.4,632.4z"/>
  <path d="M484,577.5c-0.5-0.3-2,1.3-2.7,2.3c-0.4,0.6-0.8,1.3-0.5,1.6c0.3,0.4,0.6,0.3,0.8,0.2c0.2-0.1,0.2-0.1,0.3,0.1 c0.1,0.3,0.1,1.2,0,1.8c0,0.2,0,0.5,0,0.6c0,0.5,1.5,1.8,1.6,2l0,0c0.1,0,2,0.8,3.2,0.2l0,0c0.2-0.2,0.2-0.2,0.3-0.3 c0,1.8,0.5,3.9,1.4,6.1c1.2,2.8,3.1,5.2,5.4,6.7c-0.9,2.2-1.4,4.4-1.4,6.8c0,0.7,0,1.5,0.2,2.4v0.1c-0.9-0.2-2.3-0.6-2.3-0.6 l-0.2-0.1l0.1,0.2c0,0.1,0.8,1.8,2.4,2.5l0,0c0.2,0,0.3,0,0.4,0.1c1,4.1,3.3,8.1,6.7,11.9c0.1,0.1,0.1,0.1,0.1,0.2 c-0.1,0-0.1,0.1-0.1,0.1c-0.5,0.2-2.4-0.5-3.1-0.8l-0.3-0.2l0.2,0.3c0.1,0.1,1.3,1.9,3.2,2.3l0,0c0.2,0,0.4,0,0.6,0 c0.4,0,0.9-0.1,1.1-0.1h0.1c2.8,2.7,5.9,4.8,8.9,6.2c0.2,0.1,0.4,0.2,0.5,0.3c0.2,0.1,0.4,0.2,0.6,0.2c2,0.9,4,1.6,6.3,2h0.1 c0.2,0.1,0.5,0.2,0.8,0.3c0.6,0.1,1,0.2,1.4,0.2c0.3,0,0.6,0.1,1,0.1v1.9c0.2,1.7,1.2,4.5,3.6,7.1c-0.1,0-0.1,0.1-0.2,0.2 c-1.4,0.6-2.5,2.7-2.5,2.7l-0.1,0.2h0.2c0,0,2.5-0.5,3.6-0.7c0.1,0,0.1,0,0.2-0.1c0.3-0.1,0.6-0.2,0.8-0.4c2.6,2.4,6.4,4.5,10.9,6.2 c-0.5,0.8-0.9,2-0.9,2.1l-0.1,0.2l0.2-0.1c0.1,0,1.8-0.6,2.6-1.1c-0.5,1-1,3-1,3.1v0.2l0.2-0.1c0.1,0,1.6-0.6,2.7-1.6 c0.5-0.4,0.6-0.7,0.8-1.1c0-0.1,0-0.1,0.1-0.2h0.1c0.3,0,0.5,0.1,0.8,0.2s0.7,0.2,1.1,0.3c0.8,0.2,1.6,0.4,2.3,0.5 c0.3,0.1,0.6,0.1,0.9,0.2c5.5,0.8,9.8,0.2,12.9-1.8c0.5,3.7,2.3,6.9,3.8,8.8c1.3,1.6,2.8,3.1,4.4,4.3c0,0.1-0.1,0.2-0.1,0.3 c-0.1,0.2-0.1,0.4-0.4,0.5c-0.6,0.2-1.4,0.6-1.4,0.6l-0.2,0.1l0.2,0.1c0,0,1.2,0.7,2.4,0.5c0.5-0.2,0.9-0.5,1.3-0.8 c0.6,0.4,1.3,0.7,1.8,1c1.5,0.7,3.1,1.4,4.9,2c1.4,0.6,2.8,1,4.2,1.5c-0.5,1-1.3,2-1.3,2l-0.1,0.2h0.2c0.1,0,1.9,0,3.1-1.2 c0.1-0.1,0.2-0.2,0.3-0.3c0.1,0,0.3,0.1,0.4,0.1c1.2,0.4,2.5,0.6,3.8,0.8c1.4,0.3,2.7,0.4,4.1,0.5c-0.4,1.1-1.2,2.5-1.2,2.5 l-0.2,0.3l0.3-0.1c0,0,1.3-0.6,2.3-1.6c0.4-0.4,0.8-0.8,0.9-1.1c0,1-0.1,3.1-0.1,3.1v0.3l0.2-0.2c0.1-0.1,1.4-1.8,1.7-2.8 c0-0.1,0.1-0.3,0.1-0.4c0-0.1,0-0.2,0.1-0.4l0,0h0.1h0.1c2.4-0.6,4.1-1.7,5.6-2.9l0,0c-0.3,1.8-0.5,3.8-0.6,6.7v1 c-0.1,1.7-0.1,3.4-0.1,5.1c-0.1,0.2-0.1,0.3-0.2,0.5v-0.2h-0.1c-0.4-0.1-0.8-0.2-1.3-0.3c-1-0.2-2.1-0.5-2.9-0.5 c-1.7-0.3-4.5-0.7-5.8-0.8v-0.1h-0.1c0,0-0.1,0-0.3-0.2c-0.5-0.4-1.9-0.7-3-0.9c-0.4-0.1-0.8-0.2-1.1-0.2c-1.8-0.3-3.1-0.4-3.5-0.3 l-0.7,0.2c-0.6-0.2-1.4-0.3-2.4-0.4c-0.1-0.2-0.2-0.3-0.3-0.5c-0.7-1.4-2.2-2.5-4-3c-1.2-0.2-2.3,0.1-3.4,1 c-1.4,1.1-2.3,3.4-2.3,5.6v0.3c0,0,0,0,0,0.1c-0.1,0-0.2,0-0.3-0.1c-0.1,0-0.3,0-0.4-0.1c-5.6-1.4-9.8-10.4-11-13.2l0.3-0.2 l-0.1,0.1c0.8-1,1.2-2.3,1.2-3.6c0-3.3-2.3-6.3-5.3-6.8c-1.3-0.2-2.6,0.1-3.5,0.9c-1.1,0.9-1.8,2.5-1.9,4.2c0,2.7,1.7,5.5,4.1,6.4 h0.1l0,0c0.2,2-0.1,3.6-0.5,3.7c-8.3-2.7-15.8-8.5-23.1-14c-1.5-1.1-2.9-2.2-4.4-3.3l-0.2-0.1l0,0c0-0.1-0.1-0.2-0.1-0.3 c-0.1-0.3-0.2-0.5-0.4-0.6c-2-3.1-8.6-6.5-12.2-6.3c-1.1,0.1-1.8,0.5-2.2,1.2c-0.6,1.4,0,3.3,0.7,4.7c1.7,3.5,4.9,6.8,7.5,7.6 c2.2,0.7,3.6,0.9,4.6,0.5c0.2,0.1,0.4,0.1,0.5,0.1c-0.1,0-0.2,0.1-0.3,0.1h-0.2l0.2,0.1c6.9,5.1,14,11.5,13.9,13.1 c-0.2,1.3-1.4,1.9-3.5,1.9l0,0c-1-1.1-2.3-1.8-3.4-2c-1.4-0.2-2.8,0.2-3.8,1.1c-1.1,1-1.7,2.4-1.7,4c0,3.3,2.4,6.3,5.5,6.7 c2.6,0.4,4.9-1.3,5.5-4.1c1.2,0.4,2.5,0.7,3.7,1c7.7,2.1,15.6,4.2,20,11.4c0.2,2.2-3.5,3.2-5.1,3.5h-0.2l0,0c-1.7-1-3.7-1.4-5.5-1.2 c-2.3,0.3-4.6,1.8-5.5,3.7c-0.6,1.1-0.6,2.2-0.1,3.2c1.4,2.8,7.2,4.5,10,3.5c2.1-0.7,3.6-1.5,4.2-3c2.8,0.4,9.5,1.9,13.2,3.6h0.1 v-0.1c0-0.1,0-0.3,0-0.4c0,0.1,0.1,0.1,0.1,0.2c0.4,3.1,3.1,5.4,5.5,5.8c0.3,0.1,0.7,0.1,1,0c0.1,0.2,0.3,0.3,0.4,0.3 c-0.1,0-0.2,0-0.2,0l-0.3-0.1l0.2,0.3c1.5,1.8,3,3.6,5.2,5.4c2.7,2.3,14.3,4.6,19.1,5.5c7,1.3,13.9,2.1,17.4,2.1 c0.7,0,1.2,0,1.6-0.1c2.5-0.5,4.5-2,6.5-3.5l0.1-0.1c0.1,0,0.2,0,0.3,0l0,0l0,0c1.3-0.1,2.3-0.9,2.9-2.1c0.1-0.2,0.2-0.4,0.3-0.6 c2.1-1.2,4.2-2,6.5-2.3c4.4-0.8,8.1-1.2,10.7-1.2h0.1c0.9,1.8,2.5,3.1,4.5,3.4c1.4,0.2,2.7-0.2,3.7-1.1c1.1-1,1.8-2.5,1.8-4.2 c0-3.3-2.5-6.5-5.5-6.9c-2.1-0.4-4.2,0.9-5.1,3.1c-2.8-2.1-4.3-3.8-4.1-4.8c0.2-1.1,6.2-2.8,14.2-4.2c0,0.1,0.1,0.1,0.1,0.2 c0,0.1,0.1,0.1,0.1,0.2c0.9,1.4,2.1,2.2,3.5,2.3c2.2,0.1,4.4-1.4,5-2.2c0.3-0.3,0.7-0.7,1.2-1c1.6-1.3,3.5-2.8,2.3-4.9 c-1.5-2.4-3.9-2.8-5.6-3.1c-0.2,0-0.3,0-0.5-0.1c-1.3-0.2-3.7,1.2-4.9,2l0,0c-1.2-0.1-3.3-0.1-5.9,0.4c-6.4,1.3-12.1,1.6-17.1,0.7 c-2-0.3-3.5-0.7-4.7-1c0.2-0.7,0.3-1.5,0.3-2.4c0-3.8-3.3-7.5-5.5-7.9c-1.6-0.2-3.7,0.3-4.7,1.8c-0.1,0-0.2,0.1-0.3,0.2 c0,0,0-0.1,0.1-0.1l0.1-0.1l-0.1-0.1c-0.5-0.4-0.9-0.6-1.3-0.9c-0.2-0.1-0.4-0.3-0.6-0.4c0.4-0.9,0.9-1.6,1.4-2l0.1-0.1 c1.3-0.9,3.2-1.7,5.3-2.4c0.3-0.1,0.6-0.2,0.9-0.2c1.1-0.3,2.5-0.6,3.9-0.7c1.3-0.1,2.5-0.1,3.8,0.1c2.3,0.2,4.2,0,5.9-0.8 c1.9,1.4,4.8,3.3,7.9,5.2c0.1,0.1,0.2,0.1,0.3,0.2c0.1,0.1,0.1,0.3,0.2,0.4c0.3,0.6,0.6,1.4,0.8,2.1c0.9,1.9,2.6,2.8,2.6,2.8 l0.3,0.2l-0.2-0.3c0,0-1.4-2.6-1.6-4c4.5,2.3,8,3.5,11.2,3.9c0.1,0,0.3,0,0.4,0c0.1,0,0.3,0.1,0.4,0.1l0,0c3,0.3,6.6-0.1,10.2-1.1 h0.1c0.3,0.4,0.6,0.8,0.8,1.1c0.1,0.1,0.2,0.3,0.3,0.4c0.9,1,3.9,1.4,4.1,1.4l0.5,0.1l-0.4-0.2c0,0-2.2-1.3-2.7-1.8 c-0.1-0.1-0.4-0.6-0.7-1.1c-0.1-0.1-0.2-0.3-0.2-0.4l0,0c0.1,0,0.2,0,0.2-0.1c0.3,0.6,0.9,1.1,2,1.7c1.6,0.9,3.3,0,3.4,0l0.2-0.1 l-0.3-0.1c0,0-2.9-0.7-3.5-1.9l0,0c-0.1-0.1-0.2-0.2-0.2-0.2c5.3-2,9.2-4.6,9.9-5.8l0,0l0,0l0,0c0,0,0,0,0.1,0h0.1l0,0 c0.6,0.3,1.6,0.6,2.2,0.6l0,0c0.1,0,0.2,0,0.3,0c1.1,0,2.3-1,2.4-1l0.2-0.1h-0.2c0,0-2.1-0.5-2.6-0.7l0,0c-0.1,0-0.2,0-0.4,0 c-0.4-0.1-0.9-0.1-1.5-0.1c0.2-2,0-5.6-0.6-8.5l0,0c0.1,0,0.1-0.1,0.2-0.1h0.1v-0.1v-0.1c1.4-0.6,2.7-1.3,3.8-2.2 c1.5-1.2,2.8-2.8,3.7-4.5l0.1-0.1h-0.1c-0.1,0-0.1,0-0.1-0.1l0.1-0.2c0.1-0.2,0.2-0.4,0.2-0.6l0.1,0.1l0,0c-0.1,0.2-0.1,0.4-0.2,0.5 l-0.1,0.1l0.1,0.1c0.6,0.3,2.7,0.5,3,0.2c0.3-0.2,0.4-0.4,0.5-0.6c0.1-0.2,0.1-0.3,0.2-0.2c0.1,0,0.1,0.1,0.2,0.2 c0.1,0.2,0.3,0.4,0.6,0.4l0,0c0.1,0,0.1,0,0.2-0.1c0.3-0.5,0-3.5-0.4-4.2c-0.1-0.1-0.2-0.2-0.3-0.1l0,0c-0.3,0.2-0.4,0.6-0.4,0.8 c0,0.1,0,0.2,0,0.2c-0.1,0-0.3-0.2-0.4-0.4c0-0.1-0.1-0.1-0.2-0.2c0,0,0.1-0.1,0.1-0.2c0-0.5,0-0.6,0.1-0.7l0,0l0,0 c0.1-0.1,0.2-0.1,0.3-0.1c0.2,0,0.6,0,0.7-0.3c0.3-0.3,0-0.7-0.3-1l-0.1-0.1c0.6-0.8,1.1-1.4,1.6-2c0.5-0.7,1.1-1.4,1.8-2.3 c0-0.1,0.1-0.2,0.1-0.3c0.1,0,0.2,0.1,0.4,0.2c0.4,0.2,0.8,0.3,1.2,0.3l0,0c1.1,0.1,2.4-0.4,3.2-1.3c0.5-0.8,0.6-1.5,0.5-2.8 c-0.2-1-0.7-1.7-1.5-2.2c-0.8-0.6-1.9-0.8-2.8-0.5c-0.8,0.2-1.4,0.7-1.8,1.4c0,0.1-0.1,0.1-0.1,0.2v0.1c-0.1,0.1-0.2,0.3-0.4,0.4 l0,0v0.9c0,0.2,0,0.5,0,0.7s0,0.3,0,0.5c0,0.1,0,0.2,0.1,0.2c-0.1,0.1-0.1,0.1-0.1,0.2c-0.1-0.1-0.1-0.2-0.1-0.2l-0.1-0.1l-0.1,0.1 c-1.8,1.5-2.7,2.3-4.5,3.9l-0.2,0.2h0.3c0.2,0,0.2,0,0.2,0c-0.1,0.2-0.1,0.3,0.1,0.5v0.2c-0.1,0-0.1,0.1-0.1,0.1l0,0l0,0h-1.3 c-0.3-0.1-0.5-0.1-0.7-0.2l0,0c0-0.3-0.1-0.8-0.2-1.2c-0.1-0.3-0.1-0.5-0.1-0.7c0.1-0.1,0.1-0.1,0.2-0.1c0.1,0,0.2,0,0.3-0.1 s0.1-0.2,0.1-0.3c0-0.5-2.5-2.3-3.4-2.5c-0.2-0.1-0.4,0-0.5,0.1c-0.2,0.3-0.1,0.6,0.1,0.8c0.1,0.1,0.1,0.2,0.1,0.3 c-0.1,0.1-0.7,0.2-1.1,0.2c-0.3,0-0.5,0-0.7,0.1c-0.5,0.1-1,1.5-1.1,1.7l0,0c0,0.1,0,1.9,0.8,3c0.4,0.6,0.8,0.8,1.1,0.9h0.1 c-1.7,0.4-3.5,1.3-5.2,2.7l-0.1,0.1c-0.9,0.9-1.7,1.5-2.4,2.5v0.1l0,0c0,0-0.1,0-0.1,0.1c0.1-0.1,0.1-0.2,0.2-0.3l0.1-0.1l-0.1-0.1 c-3.3-3.1-6.2-5.2-7.9-5.4h-0.3c0.1-0.5,1-1.7,1.6-2.5l0.2-0.2l-0.3,0.1c-0.1,0-2.5,0.5-3.3,1.8c-0.2,0.4-0.4,0.8-0.5,1.2h-0.1 c-2.9,1.1-6.1,3.6-7.5,4.7c0.1-1,0.6-3,0.6-3l0.1-0.2l-0.2,0.1c-0.1,0-1.7,0.9-2.2,2.2c-0.3,0.7-0.6,2.1-0.4,2.9l-0.1,0.1 c-0.2,0.1-0.2,0.1-0.3,0.3c-0.9,0.8-1.6,1.7-2.2,2.5c-0.4,0.5-0.7,0.9-1.1,1.3l-0.1,0.2c-1.6,2.1-2.5,3.4-6.2,2.8 c-1.1-0.3-2-0.4-2.7-0.6c-0.2,0-0.3-0.1-0.5-0.1c0-0.1,0.1-0.2,0.1-0.4c0-0.1,0-0.2,0.1-0.3l0,0v-0.5c0.1-0.6,0.2-1.2,0.3-2 c0.4,0.2,1.1,0.4,1.8,0.6c0.2,0.1,0.7,0.2,1.3,0.2v0.1c0.1,0,1.3-0.1,1.7-0.3l-0.1-0.1c0,0,0.1,0,0.1-0.1c0.7-0.2,1.2-0.6,1.6-1.1 l0,0l0,0l0,0l0,0l0,0l0,0c0.2-0.1,0.2-0.2,0.3-0.4c0-0.1,0-0.1,0.1-0.2c0.2-0.2,0.2-0.4,0.2-0.6c0-0.1,0-0.2,0.1-0.2l0,0 c0-0.1,0-0.2,0.1-0.4c0.1-0.1,0.1-0.3,0.1-0.4c0.3-1.9,0.2-3.2-0.8-5.1v-0.2l0,0c-0.1-0.2-0.3-0.5-0.5-0.8c-0.1-0.2-0.2-0.4-0.3-0.5 c-0.9-1.5-1.8-2.1-2.3-2.2l0,0c0,0,0,0,0-0.1l0,0H651l-0.1-0.1l0.1,0.1h-0.4c0-0.3-0.2-0.8-0.9-1.1l0,0h-0.1v-0.1v-0.2v-0.1 c0.3-2.7-0.8-3.8-1.8-4.2c-2.1-1-3.9-0.6-4.5-0.5l0,0l-0.1,0.2l0,0h-0.1v-0.2l0,0c0,0,0,0,0.1,0l0,0c0.1,0,0.3-0.1,0.3-0.2l-0.1-0.2 c-0.2-0.4-0.5-1-1-1.6c-0.7-0.9-1.6-1.5-2.5-1.6h-0.1c0,0,0,0,0.1,0h0.4l-0.2-0.2c-0.2-0.2-0.8-1-1.5-2c-1-1.5-2.1-1.6-2.4-1.6h-0.3 l0,0c-0.3-0.6-1-1.4-1.7-2.3c-0.3-0.3-0.5-0.6-0.7-0.9c-0.2-0.3-0.4-0.5-0.7-0.8c0-0.1,0-0.2,0-0.2c0.2-1.2,0.2-3,0.2-4.5 c0.8,1,2.7,3.2,3.5,3c0.2,0,0.3-0.2,0.4-0.4c0.6-1.1,0.2-4.2-0.1-5.1c-0.1-0.1-0.2-0.3-0.3-0.4c0-0.6,0.1-1.6,0-2.5 c0-0.1,0-0.3-0.1-0.6c0-0.2-0.1-0.5-0.1-0.7c3.8,5.7,6,9,9.6,14.2l0.9,1.4c0,0.1,1,1.5,4.3,2.5c2.1,0.6,3.3-0.6,3.8-1.3 c1.6,2.1,3.5,3.6,5.6,4.4c2.9,1,5.1-1,6.2-2l0.1-0.1c0.7,0.9,1.3,1.2,1.5,1.4c5,2.4,11.8-1.7,12.7-2.3c0.1,0,0.2,0,0.2-0.1 c0,0,0,0,0.1,0.1l-0.2,0.1l0.2,0.1c0.3,0.1,0.6,0.3,0.8,0.5c0.1,0.1,0.2,0.1,0.3,0.2l0,0c5.9,2,11.3-1.3,12.9-3.6 c0.4-0.5,0.5-1,0.3-1.2c-0.4-0.5-2.9-2.7-3.7-3.4l-0.1-0.1c0.1-0.2,0.2-0.3,0.2-0.4v-0.1l0,0c-8.3-8.1-16.8-16.2-25-24l-0.1-0.1 c-10.6-10.2-19.9-19.3-28.2-27.8v-0.1c0-4.7-0.2-9.5-1.4-13.4c-1.5-5.1-2.8-7.8-3.7-9.3c1.6-1.1,2-3.3,2.3-5.6c0-0.1,0-0.3,0.1-0.4 c0.3,0.2,0.4,0.3,0.7,0.4c0.1,0,0.2,0.1,0.3,0.2c0.2,0.3,0.6,1,1.1,1.8c1.3,2.2,3.1,5.5,4.8,6.5c0.8,0.5,1.5,0.8,2.1,1.1 c1.2,0.5,2.1,0.9,3.6,2.4s5.8,9.1,8.1,13.1l0,0c0,0.1,0,0.2,0.1,0.3c0.2,1.1,0.8,2.6,1.7,4c0.7,1.3,1.5,2.4,1.8,3l0,0 c0.1,0.2,0.2,0.4,0.4,0.6l0.2-0.1c0,0-0.1-0.2-0.4-0.6c-0.3-0.5-0.4-1.2-0.5-1.9c0-0.6,0.1-0.9,0.1-1.3c0.1-0.4,0.1-0.7,0-1.2 c0.1,0.5,0.1,0.7,0.1,1.1c0,0.3,0,0.6,0,1.1c0.2,1.2,0.5,2.1,0.9,2.5c0.5,0.8,1.2,1,1.8,1.1c0.7,0.1,1.2,0,1.4-0.4 c0.1-0.2,0-0.5-0.2-0.7c-0.5-0.4-3-3.9-4.5-8.6c-0.4-1.2-0.9-2.8-1.4-4.5c-1.1-3.7-2.3-7.9-3.7-10.1c-0.1-0.1-0.2-0.2-0.2-0.3 l-0.1-0.1c0.2,0,0.5,0,0.8,0c0.4,0,1,0,1.6,0c1.7,0.1,8.3,7.9,8.9,10c0.2,0.6,0.2,1.1,0.3,1.6c0.2,1.3,0.5,3.2,2.5,8.4 c0.7,1.8,1.4,3.3,2,4.7l0,0v0.1c0.1,0.2,0.2,0.3,0.2,0.5c0,0.1,0.1,0.2,0.1,0.3c1.2,2.6,1.8,3.4,1.9,3.5l0,0h0.1v0.1 c-0.1,0-0.2,0-0.3-0.1l-0.2-0.1l0.1,0.2c0.9,2.5,1.8,3.8,3.1,4.3c0.2,0.1,0.3,0,0.4-0.1c0.2-0.3-0.1-1.1-0.7-2.4 c-0.2-0.5-0.5-1.1-0.7-1.5c-0.4-0.8-0.6-2.2-1-4c-0.4-2.1-0.9-4.8-1.8-7.9c-0.7-2.2-1.2-4.7-1.7-6.8c-0.8-3.4-1.4-6.2-2.2-7 c-0.1-0.2-0.3-0.3-0.5-0.5s-0.3-0.4-0.5-0.6l0,0c0.2,0.1,0.4,0.2,0.5,0.3l0.1,0.1l0,0l0,0c0.5,0.5,1.1,1,1.6,1.4l0,0 c0,0.1,0,0.2,0.1,0.3l0,0c0.1,0.1,0.2,0.2,0.3,0.4c0.1,0.1,0.2,0.2,0.3,0.4c1.5,1.5,4.2,7,5.4,10.7c0.8,3.2,2.3,9,3.9,14.6 c1.1,4.2,3.3,10.3,4.3,10.4c0.1,0,0.2,0,0.3-0.3c0.6-1.3,0-10.3-2.7-18.3c-2-6-2.6-13.7-2.8-16.9c0-0.4-0.1-0.7-0.1-1c0,0,0,0,0.1,0 l0,0v0.1h0.1c0.1,0,0.2,0.1,0.4,0.2c0.7,0.6,2.1,1.9,3.2,4.8c0.8,2.2,0.9,3.8,1,6.2c0.1,2.7,0.3,6.5,1.7,13 c1.7,8.3,3.2,11.4,4.4,13.9c0.6,1.2,1.1,2.2,1.5,3.5c0.5,1.8,0.5,4.7,0.4,7.5c-0.1,3.8-0.2,7.8,1.3,9.3c0,0,0.1,0.1,0.2,0 c0.7-0.3,0.4-19.2,0.2-23.2v-0.2c-0.3-5.2-0.3-5.5-1.4-18.5c-0.5-10.8-1-14.2-1.3-15.3c0.6,0.7,1.8,2.6,3,7.2 c1.2,4.5,1.7,10.5,2.2,15.8c0.4,4.8,0.8,8.9,1.5,10.6c0.6,1.7,1,2.4,1.3,3c0.4,0.8,0.7,1.5,1.6,4.1c0.7,2.4,0.9,9.3,1,14.8 c0.1,5.8,0.2,8.8,0.6,9c0.1,0,0.1,0,0.2,0c3.6-2,2.6-21.5,2.1-32l-0.1-1.1c-0.4-9.1-1-26-1.2-31c0,0,0,0,0.1,0 c0.1,0.1,0.2,0.2,0.2,0.3c1,1.3,3.5,5.2,4.2,7.1c0,0.1,0,0.2,0.2,0.4c0,0.1,0,0.2,0.1,0.4s0.1,0.4,0.1,0.6c0.2,4.3,0.4,8.7,0.5,12.9 c0.2,6,0.4,12.3,0.9,18.5c0.4,3.2,0.8,5.2,1.2,7c0.5,2.2,0.9,4,0.9,7.3c0,3.9-0.9,7.8-1.4,10.5c-0.3,1.4-0.6,2.5-0.6,3.1 c0,2.3,0.4,5.1,2.2,5.2c0.3,0,0.5,0,0.7-0.2c0.5-0.5,0.6-1.8,0.6-3.1c0-1.1,0-2.1,0.3-3c0.5-1.4,0.9-2,1.2-2.7 c0.2-0.3,0.4-0.6,0.6-1l0,0c0.9-5.9,1.2-11.9,1.5-17.8c0.3-6.1,0.6-12.4,1.6-18.5c0.7-4.2,1.4-6.5,2.1-8.6c1.1-3.2,1.9-5.7,1.8-13.4 c-0.2-11.5-2.9-20-4-22.4c0.9,0,1.8,0,2.5,0.1c1.4,0,1.9-0.9,2.2-1.9c0.1-0.6-0.5-1-1.6-1.8c-1-0.7-2.4-1.7-3.8-3.4 c-0.1-0.1-0.2-0.2-0.3-0.4c0.1,0.1,0.2,0.2,0.3,0.3l0.4,0.3l-0.2-0.4c-1.6-2.8-2.4-4.2-4.1-7.2l-0.1,0.1 c-4.2-11.3-9.3-22.3-15.5-33.8c-6.1-10.3-13.7-19.8-22.1-27.5c-1-1.1-1.9-1.9-2.8-2.8c-0.3-0.3-0.6-0.6-1-0.9 c0.1-0.1,0.2-0.2,0.3-0.3l0,0v-0.3h-0.1c-0.1,0-0.1-0.1-0.1-0.1v-0.1h-0.1c-0.3,0.1-0.6,0.1-0.8,0.2l0,0c0,0,0,0-0.1-0.1 c0.1-0.1,0.1-0.3,0.2-0.5c0.2-0.4,0.4-0.9,0.6-1.2c0.6-0.6,2.5-2.6,2.5-3.7c0-0.2-0.1-0.4-0.3-0.5c-0.3-0.2-0.7-0.4-1.4-0.4 c0-0.1,0-0.1,0-0.2s0-0.3,0-0.3c-0.2-0.2-0.7-0.2-2.1-0.2c-0.9,0-2.1,0.1-3.6,0.1c-0.5,0-1.1-0.1-1.7-0.3c-1.7-0.8-3.8-2.5-6.8-5.8 c-2.8-2.4-5.8-4.8-9-7c-6-4.5-13.2-8.4-21.4-11.7c-5.4-2.2-10.9-4.1-16.4-5.4c-0.2-0.1-0.5-0.1-0.7-0.1h-0.2l-0.5-0.1 c-0.3-0.1-0.7-0.2-1.1-0.3c-4.7-0.9-8.3-0.3-10.7,1.9l-0.1,0.1V441l-0.2,0.6c0,0.1-0.1,0.2-0.1,0.3c-0.1,0.2-0.2,0.5-0.3,0.8l0,0 l0,0c0.1,0.4,0.2,0.7,0.3,1c-0.3-0.1-0.6-0.2-1-0.3l0,0c-0.8-0.2-3.4-0.8-5.9-0.1c-0.1,0-0.2,0.1-0.3,0.1c-1,0.3-1.8,0.7-2.6,1.3 c-1.9,1.6-2.8,4.2-2.8,7.8c0.1,4.5,1,6.3,4,7.6c0.6,0.3,1.3,0.6,2,0.9c3.4,1.4,7.3,3.2,10.9,7.6c4.6,5.8,5,9.4,5,12.3 c0,1.7-0.4,3.1-0.7,4.2c-0.6-1.4-1.1-2.7-1.7-4.3c-0.2-0.4-0.3-0.8-0.5-1.3c-1.4-3.7-5-7.4-5.7-8.1l-0.1-0.1l-0.1,0.1 c-0.3,0.6-0.8,1.2-1.3,1.8c-0.2,0.2-0.3,0.3-0.3,0.3l0,0l0,0l0,0l0,0c0.1,0,0.2-0.1,0.3-0.2c0.7-0.6,1-1.2,1.3-2 c0.4-1.3,0.3-2.7,0.1-3.4l0,0v-0.1l-0.1-0.3v0.1l0,0l-0.2,0.1c0,0,0,0.1,0.1,0.3c-0.1,0.2-0.7,1.1-3.2,0.7c-1.4-0.2-2.7-1-4.8-2.4 c-0.7-0.5-1.6-1-2.6-1.6c-2.3-1.4-5-2.1-6.6-2.3v-0.9l-0.2,0.1c0,0-0.6,0.4-1.3,0.5c-0.2,0.1-0.5,0-0.8-0.1 c-0.2-0.1-0.4-0.1-0.5-0.1h-0.1v2.1h0.1c0,0.5-0.1,1.1-0.3,1.6v0.1l0,0c0.1,0.1,0.2,0.1,0.3,0.1h-0.1H577v0.1c-0.3,1-0.6,2-1.1,3.1 l0,0l-0.1-0.1l-0.1,0.1c-0.3,0.6-0.6,1.1-1,1.7l-0.2,0.2l0.2,0.1c0.1,0,0.1,0,0.2,0.1l0.1,0.1l0,0c-0.2,0-0.3,0-0.4-0.1h-0.1v0.1 c-0.5,0.9-1.2,1.7-2,2.7c-0.1,0-0.1-0.1-0.2-0.1c0.6-0.6,1.2-1.5,1.8-2.5l0.1-0.1c0.4-0.6,0.7-1.1,1-1.7c0.6-1,0.9-2,1.1-3l0.1-0.3 c0-0.2,0-0.4,0.1-0.5c0-0.4,0.1-0.8,0.2-1.1l0,0v-2.4c-0.2-3.8-1.6-6.8-2.4-8.2c-0.1-0.4-0.1-0.6-0.2-0.8c0-0.2,0-0.4,0-0.5v-0.1 h-0.2l0,0h-0.1l0.1,0.2c0,0,0,0.1,0,0.2c-0.2-0.3-0.4-0.5-0.5-0.5H573l0.4,0.2c0,0,0.2,0.3,0.5,0.8c-0.1,0.7-0.4,1.7-0.9,2.9 c-0.7,1.8-2.8,4-3.5,4.6l0,0v-0.1c0-1.3-0.2-2.7-0.4-4.1c0-1,0-1.7-0.1-2.4c-0.4-2.4-1.1-3.3-1.6-3.6c-0.4-0.2-0.7-0.2-0.8-0.1l0,0 h-0.1l-0.2-0.2l0,0l-0.2-0.3v0.1l-0.1-0.1l0.1,0.1v0.2c0,0.3,0,0.5,0.1,0.8c0,0.3,0,0.5,0,0.8c0.1,4.7-1.4,10.8-2.4,12.2l-2,0.7 c0.5-0.8,0.6-2.2,0.6-4.7c-0.1-4.8-2.6-5.8-2.7-5.8h-0.1c-0.1-0.1-0.1-0.2-0.1-0.2l-0.3-0.4l0.1,0.5c0,0,0.5,2.6-0.3,7 c-0.5,3-2,5.3-2.9,6.4c0.1-0.8,0.2-2,0.2-3.4c-0.1-4.6-1.6-5.4-2.1-5.5c0-0.1,0-0.1,0-0.1H554v0.2l0,0c0.1,0.2,0.1,0.4,0.2,0.6 c0,0,0,0,0,0.1h-0.1c0,0.9-0.3,2.3-1.1,4.5c-1.5,4.4-2.5,6-4.9,8.6c-1.8,1.9-3.2,3.1-4.3,3.9c-1.6,1.2-2.2,1.8-1.9,3.3 c0.1,0.1,0.1,0.3,0.2,0.4c0.1,0.2,0.1,0.4,0.2,0.5c-0.1,0.1-0.3,0.2-0.4,0.3c-0.2,0.1-0.4,0.3-0.6,0.4l-0.2,0.1h-0.2 c-0.2,0-0.3,0.1-0.3,0.1c-0.1,0-0.2,0.1-0.3,0.3c-0.2,0.3-0.5,0.6-0.8,0.9s-0.5,0.9-0.5,1.4v0.2c0,0.2,0,0.3,0.2,0.6 c0,0.1,0.1,0.2,0.1,0.3c-0.1,0-0.1,0-0.2,0.1c-0.5-0.4-1.4-0.4-4,2.1v-0.1h-0.2c-1.4,0.3-3.9,0.6-7.6-0.1c-1.7-0.3-2.8-0.9-3.2-1.9 c-0.5-1-0.3-2.1-0.2-2.6l0,0l0,0c1.1,0.2,2.5-0.4,4-1c0.5-0.2,1-0.4,1.5-0.6c0.4-0.1,0.8-0.3,1.2-0.4s0.8-0.3,1.3-0.5 c2.3-1,3.6-3.1,3.9-3.8l0.4-0.4l-0.4,0.2V475l-0.1,0.3c0-0.1,0-0.1,0-0.2c0-0.2-0.2-0.4-0.2-0.5c-0.3-0.2-0.6,0-1.1,0.4l-0.2,0.1 c-0.5,0.5-1.5,1.2-3.5,1.9c-3,0.9-6.2,0.8-6.9,0.3c-0.1-0.1-0.2-0.1-0.2-0.2c-0.1-0.3,0-0.6,0-0.9c0-0.2,0.1-0.4,0.2-0.6l0,0 c0-0.1,0-0.2,0.1-0.4c0.1-0.1,0.1-0.3,0.1-0.4l0,0c0.2-0.9,1-2.1,2.1-3.4c0.5-0.6,0.8-1.1,1.1-1.6l0,0c0.2-0.3,0.4-0.7,0.5-1.2l0,0 c0.1-0.3,0.1-0.5,0.2-0.8c0-0.1,0-0.2,0-0.2v-0.1v-0.1v-0.3c0-0.2,0.1-0.5,0.1-0.7c0-0.5,0-1,0.2-1.5c0.2-0.7,0.8-1.3,1.4-1.7 c0.5-0.4,0.9-0.7,1.4-1s0.8-0.6,0.9-0.7c0.2-0.1,0.2-0.1,0.3-0.3c0.2-0.4,0-1-0.3-1.5c-0.3-0.8-1-1.4-1.7-1.5 c-0.8-0.1-2.8,1.5-3.3,2.2c-0.1,0-0.2-0.1-0.4-0.2c-0.7-0.4-1.9-0.9-2.6-0.8c-1.6,0.3-11.9,7.8-12.5,11.3c-0.5,2.7,1.4,5.8,2.4,7.4 l0.1,0.2c0.2,0.2,0.3,0.5,0.3,0.5v1.5c0,4.3-0.1,14.5,4.7,16.3c2.1,0.7,5,1.3,7.5,1.6c3.3,0.5,6.1,0.7,6.1,0.7l0,0l0,0 c0.2-0.2,0.2-0.3,0.3-0.4c0.2,0.5,0.4,1,0.8,1.7c0.5,0.6,0.8,1.1,1.2,1.6c0.3,0.5,0.7,0.9,1.2,1.6c0.8,0.7,1.4,1.2,2,1.7 c0.5,0.4,1,0.8,1.7,1.4l0,0c0.9,0.4,1.4,0.6,2.2,1h0.1c0.1,0,0.1,0.1,0.1,0.1l0,0l0,0c0.5,0.2,1,0.4,1.5,0.5s1.1,0.1,1.6-0.1 c0,0.2,0,0.4,0,0.6v0.9c-2.4,5.5-7,8.2-11.9,11.1c-1.3,0.8-2.6,1.5-3.9,2.4c-3,2-5.9,4.1-7.9,7.6c-2.3,3.6-3.4,8.2-3.4,14.2v1 c0.1,12.1,4.7,18.7,8.5,22.1c5,4.4,10.3,5.2,10.8,5.2c0.5,0.1,0.8,0.1,0.8,0.1s1.3,0,3,0.1c1,0.1,3.5,0.2,6.1,0.6 c1.4,0.2,2.6,0.4,3.6,0.7c0.9,0.3,1.6,0.8,1.7,1.1l0,0c0.3,0.4,0.3,0.6,0.3,1.1c0,0.1,0,0.2,0,0.3c-0.4-0.1-0.8-0.2-1.1-0.3 c-0.5-0.1-0.9-0.1-1.3,0c-0.3,0.1-0.5,0.2-0.8,0.3l0,0c-1.1-0.7-2.2-1-3.2-1l0,0c-2.5-0.2-4.6,2.7-5.3,4.9h-0.1c-0.1,0-0.2,0-0.3,0 c-0.3,0-0.6-0.1-0.9,0c-1.8,0.5-3.1,2.1-3.2,4.1c-0.1,0.1-0.1,0.2-0.2,0.3l0,0c-0.5-0.1-0.9-0.1-1.5,0.1l0,0 c-0.5,0.5-0.8,1.6-0.8,3.1c-0.4,0.1-0.8,0.2-1.4,0.1c-0.9-0.2-2.3-0.6-3.5-2.3c-1.6-1.9-2-3.5-2.4-5.5l-0.1-0.6 c-0.3-1.9-0.6-4.2-1.8-7.2c-1.3-3.3-4.2-6.3-7.3-9.3c-2.9-3-5.6-5.8-6.2-8.4c-0.2-0.5-0.2-1.1-0.2-1.6c0-1.6,0.5-3.1,1.1-4.8 c0.2-0.7,0.5-1.4,0.7-2.1c0-0.1,0.1-0.2,0.1-0.3c0.2-0.4,0.4-0.9,0.5-1.5c0.5-1.5,1-3.4,1.1-5.5c0-0.2,0-0.5,0.1-0.7 c0.1-0.3,0.1-0.5,0.1-0.8c0-0.5,0-1.2-0.2-1.9c-0.4-3.7-2.6-7.3-6.7-11c-1.5-1.3-3.2-2.6-4.6-3.5c-0.2-1.2-1.5-2.9-2.8-3.6 c-0.6-0.3-1.4-0.3-2.2,1.1c-0.3-0.7-0.9-1.9-2.3-2.4c-1.1-0.3-1.6,0-2,0.4c-0.2,0.1-0.3,0.3-0.3,0.5c-0.2,0.1-0.3,0.5-0.3,0.6 c-0.1,0.1-0.1,0.2-0.2,0.3c-0.1,0.2-0.2,0.3-0.3,0.4c-0.1,0-0.2,0-0.3,0c-0.1,0-0.3,0.1-0.4,0.1c0.1,0,0.1,0,0.2-0.1 c0.2,0,0.3-0.2,0.4-0.5c0.1-0.1,0.1-0.2,0.2-0.3c0.2-0.1,0.3-0.5,0.3-0.6c0.1-0.1,0.2-0.2,0.2-0.4c0-0.1,0-0.1,0.1-0.2l0,0l0,0 c-0.3-0.6-1.2-2.2-2.8-2.7c-1.4-0.4-1.9,1-2.3,2c0,0.1-0.1,0.3-0.1,0.4c-0.1,0.2-0.2,0.3-0.2,0.5v0.1h-0.2c-2.3-0.3-3.5,0.4-3.7,2 c-0.2,1.9,1.1,2.7,1.8,3.1h0.1l0,0c0.1,0,0.1,0,0.1,0.1c0,0,0,0.1,0.1,0.1v0.2c0,0.1,0,0.2,0,0.4c0,0.7-0.1,1.6,0.5,2.9 c0.4,1.1,1.4,1.3,2.2,1.4c0.2,0,0.5,0,0.7,0c0.6,0,1-0.1,1.3-0.1l0,0l0,0c0.1-0.1,0.1-0.2,0.1-0.7l0,0c-0.1-0.5-0.1-0.9,0-1.3 c0-0.2,0-0.4,0-0.5s0-0.2,0-0.3c0-0.2,0.1-0.3,0-0.4l0.1,0.1c0.1,0.1,0.2,0.2,0.3,0.2c0,0.2,0,0.4,0,0.6c-0.2,0.8-0.3,1.8,0.3,3.1 c0,0.1,0.1,0.1,0.1,0.2l0,0l0,0c0,0,0,0,0,0.1c0.4,0.8,1.2,1.1,1.7,1.2c0.9,0.1,1.9-0.1,2.4-0.3c0.3,1.2,0.9,1.9,1.8,2.1 c0.1,0,0.3,0,0.4,0.1c0.1,0,0.2,0,0.2,0l0,0c1.6,0.2,2.3-0.8,2.6-1.2c0.2,0.2,0.4,0.4,0.7,0.6c0.3,0.2,0.6,0.5,0.8,0.7 c0.9,1,2.1,2.4,2.4,3.7c0,0.2,0,0.3,0.1,0.5s0.1,0.4,0.1,0.6c0,1.9-0.9,3.8-2,6.3c-0.1,0.3-0.3,0.6-0.4,0.9c-1,2.6-2.4,6.1-2.4,10.1 c0,0.7,0,1.2,0.2,1.9c0.1,0.3,0.1,0.7,0.2,1c0.1,0.8,0.2,1.6,0.4,2.3c0,0.1,0.1,0.2,0.1,0.2h-0.2c0.3,2.4,1,3.9,2.6,5.9l0.2-0.1 c-0.3-0.4-0.5-0.8-0.7-1.2c0.2,0.4,0.4,0.7,0.7,1.1c0.8,1.2,1.6,2.1,2.3,2.9l0,0c0.1,0.1,0.2,0.2,0.3,0.3c0.1,0.1,0.2,0.2,0.3,0.4 c0.4,0.5,0.9,1,1.4,1.4c0.3,0.2,0.5,0.5,0.8,0.8l0,0c0.2,0.2,0.5,0.4,0.7,0.6l0,0l0,0c0.1,0.1,0.1,0.1,0.2,0.2 c0.2,0.1,0.3,0.3,0.5,0.4l0,0c0.4,0.3,0.7,0.7,1,1l0,0l0.1,0.1l0,0l0.1,0.1l0,0l0.1-0.1l0.1,0.1c0,0,0,0,0.1,0c0.1,0,0.2,0,0.4-0.1 c0.8-0.3,2.6-1,4.7-0.7c0.1,0,0.3,0,0.4,0.1c0.1,0,0.2,0,0.2,0h0.1l0,0c0.2-0.3,0.3-0.5,0.3-0.8c1.3-2.3,2.2-2.7,2.6-2.8h0.2 l-0.1-0.1c-0.6-0.7-1.2-1.4-1.9-2c-0.4-0.4-0.9-0.9-1.3-1.4v-0.1h-0.1c-0.5,0.2-2.8,1.2-4.3,2.3c-1.2,1.1-1.8,3.2-2.2,4.3l-0.1,0.3 l0,0l0,0c-0.1-0.1-0.2-0.2-0.3-0.3l0,0l-0.1-0.1h-0.1l0,0c-0.2-0.2-0.4-0.4-0.6-0.5l-0.1-0.1l0,0l0,0l0,0l-0.1-0.1 c-0.1-0.1-0.2-0.2-0.3-0.3l0,0c0.1-1,1.1-4,2.2-5.1c0.8-0.7,2.5-1.2,3.6-1.5c0.4-0.1,0.7-0.2,0.9-0.3h0.1c0.1,0.1,0.2,0.2,0.4,0.4 c0.1,0.1,0.2,0.2,0.4,0.4c0.1,0.1,0.1,0.1,0.2,0.2c0.1,0.1,0.3,0.3,0.4,0.4l0,0c1,0.9,2.1,2,3.2,3.4c0.2,0.2,0.3,0.4,0.4,0.5 c0.1,0.1,0.2,0.3,0.4,0.5c0.1,0.1,0.2,0.2,0.3,0.3h-0.1l0,0h-0.1l0,0c-0.1,0-0.2,0-0.3,0.1c-0.1,0-0.1,0-0.2,0l0,0l0,0 c-0.4,0.4-1.6,1.3-2.3,2.8v0.1h0.1c1.8,0.6,4.4,1.5,5.4,1.9l0.4,0.1c0.1,0.4,0.3,0.8,0.4,1.2c0.1,0.3,0.2,0.6,0.3,0.9 c0.1,0.3,0.1,0.6,0.2,0.9c0.1,0.3,0.2,0.6,0.2,0.9c0,0.1,0,0.3,0.1,0.5v0.1l-0.1,0.2c-0.2,0.4-0.5,1-0.9,1.7 c-0.8,1.5-1.7,3.4-2.5,4.3l-0.1,0.2h0.2c0.3,0,0.8,0.1,1.1,0.2l0,0l0,0c1.9-0.1,3.2-0.9,3.6-1.2l0,0v-0.1c-0.4-0.9-0.7-1.9-0.8-2.8 c0.2,0.8,0.4,1.6,0.8,2.5c0.1,0.3,0.3,0.6,0.4,0.8c0.1,0.2,0.2,0.4,0.4,0.7l0,0v0.3c-0.1,0.9-0.4,3.2-1.5,5.3l-0.1,0.2h0.2 c1.1-0.3,2.4-1.2,4-2.7l0.2-0.2l-0.1-0.1c-0.4-0.3-0.7-0.6-0.9-0.8c0.2,0.1,0.3,0.3,0.5,0.4c0.1,0.1,0.2,0.2,0.3,0.3 c0.5,0.4,0.9,0.7,1.5,0.7c0.1,0,0.3,0.1,0.4,0.1c0.2,0.1,0.3,0.2,0.5,0.2l0,0c0.6,0.1,1.1,0,1.6-0.1c0,0.1,0,0.2,0,0.4l0,0 c0.1,0.3,0.1,0.5,0.2,0.8c0.1,0.4,0.2,0.8,0.3,1c0,0.4,0,0.7,0,1c-0.1-0.3-0.1-0.6-0.1-0.9v-0.2l0,0c-0.1-0.2-0.2-0.6-0.3-1 c-0.1-0.2-0.1-0.5-0.2-0.8v-0.1h-0.2c-0.4,0.1-0.8,0.2-1.5,0.1c-0.3,0-0.6-0.1-0.8-0.3l-0.2-0.1v0.2c0,1-0.7,4.5-1.5,6.7l-0.1,0.2 l0.2-0.1c2-0.6,3.5-1.8,4.8-3.4l0,0v0.1c0.1,0.2,0.2,0.4,0.2,0.6c0.1,0.2,0.1,0.4,0.2,0.6l-0.1,0.1c-1.2,1.8-3.2,2.9-5.6,3.3h-0.1 v0.1c-0.8,2.1-1.6,3.2-1.6,3.2l-0.1,0.1h0.2c0,0,3.1,0.4,5.7-0.3c1.5-0.5,2.5-1.5,2.9-2.2c0.1,0.1,0.1,0.2,0.2,0.3 c0.1,0.2,0.2,0.4,0.3,0.5c-0.6,0.5-1.5,1.3-3.2,1.9c-2.3,0.9-5.3,0.6-6.5,0.4h-0.3c-0.1,0-0.2-0.1-0.3-0.1l0,0 c0.1-0.1,0.2-0.3,0.3-0.5c0.4-0.6,1.1-1.6,1.9-3.1l0.1-0.2h-0.2c-3.1,0.4-5.4,0.3-6.6,0.3c-0.2,0-0.5,0-0.6,0l0,0c0,0,0,0-0.1,0 c-0.2-0.3-0.5-0.6-0.6-0.8c-0.2-0.3-0.4-0.6-0.6-0.8c-0.1-0.2-0.2-0.3-0.2-0.4c-0.2-0.4-0.4-0.7-0.6-1.3c-0.5-1.2-1-2.7-1.3-4.1 c-0.1-0.3-0.2-0.7-0.2-1.1c-0.1-0.4-0.2-0.8-0.3-1.2s-0.2-0.9-0.2-1.3c0-0.2-0.1-0.5-0.1-0.7c-0.1-0.3-0.1-0.7-0.2-1 c-0.1-0.9-0.3-1.8-0.4-2.6l0,0c0.2,0.1,0.4,0.3,0.7,0.5c1,0.7,2.4,1.8,3.6,2.4h0.1l0.1-0.1c0.1-0.2,0.2-0.3,0.4-0.4 c0.2-0.2,0.4-0.4,0.4-0.6c1.4-1.7,2.9-5,3.3-6l0,0l0,0c-0.1-0.3-0.2-0.7-0.2-1c-0.1-0.3-0.2-0.7-0.3-1.1l0,0l0,0 c-1.1-0.6-4.2-2-6.5-2.5h-0.1l-0.3,1c-0.7,2.4-1.5,4.8-1.6,5.5c-0.1-0.5-0.2-0.9-0.4-1.3l0.1-0.3c0.2-1,0.7-3.1,1.5-5v-0.1H518 c-1.7-0.3-3.3,0.1-4.1,0.4l-0.3,0.1c-0.1-0.1-0.1-0.2-0.2-0.2l0,0V574l0,0l0,0l0,0l0,0l-0.1-0.2c-0.1-0.1-0.2-0.2-0.3-0.3l-0.1,0.1 l0.1,0.1c0.1,0.1,0.2,0.3,0.4,0.4l0,0l0.1,0.1c0.7,0.9,1.5,1.9,2.1,3c0.2,0.4,0.3,0.7,0.4,1c0.1,0.2,0.1,0.3,0.2,0.5v0.2l0,0 c0.2,0.3,0.3,0.7,0.4,1.1c0.1,0.3,0.1,0.5,0.2,0.7c0.1,0.3,0.2,0.7,0.2,1c0.1,0.3,0.1,0.7,0.2,1c0,0.2,0.1,0.4,0.1,0.5 s0.1,0.2,0.1,0.3l0,0c0.1,0.4,0.2,0.8,0.3,1.2s0.1,0.7,0.2,1.1c0,0.1,0.1,0.3,0.1,0.4v0.2c0.1,0.7,0.2,1.4,0.4,2.2 c0.3,2.3,0.9,4.4,1.6,6.1c0.9,2.1,2.1,3.7,3.5,4.8c2.2,1.8,4.7,3,7.4,3.3c0.8,0.2,1.5,0.1,2.3,0.1c0.2,0,0.5,0,0.7,0 c1,0,1.9-0.2,2.8-0.4c0.3-0.1,0.5-0.1,0.8-0.1c1.3-0.3,2.4-0.8,3.1-1.2l0,0c0.4,0.7,1.4,2,3.1,2.2h0.3c0.7,0.1,1.3,0.1,2.1-0.2l0,0 c0.3-0.1,0.5-0.2,0.7-0.3c0.3-0.1,0.5-0.2,0.9-0.3c0.1-0.1,0.2-0.1,0.3-0.2c0.1,0,0.1-0.1,0.2-0.1l0.4-0.2h-0.2l0,0 c1.1-0.1,2.2-0.4,3.2-1h0.6c1.1-0.1,1.7-0.3,2.2-0.8c0.1,0.1,0.2,0.2,0.3,0.2c0,0,0.1,0,0.1,0.1l0,0l0,0c1.1,1.3,2.8,3,4,3.4l0,0 h0.2c0.5,0.1,0.9,0,1.2-0.3l0.1-0.1v-0.1c-0.1-0.1-0.1-0.2-0.1-0.3c1.6-0.8,3.6-2.9,4.6-4.1l0.1-0.1c0,0.1,0,0.1,0,0.2l0.1,0.3 c0.5,0.8,1.1,2,2.2,2.4c0,0,0,0.1,0.1,0.1c-2,0.2-3.1,1.4-3.3,1.8l-0.4-0.2l0.1,0.1l-0.1-0.1l0.5,0.6c0,0,2.1,2.2,6.8,4.6 c4.2,1.9,6.6,3.1,7.1,3.4c-0.8,1.3-0.7,2.7-0.4,3.2v0.1c0,0.1,0.2,0.3,0.5,0.4c-0.5-0.2-0.7-0.4-0.8-0.4l-0.1,0.1 c0.1,0.1,2.4,2.3,8.8,1.2c4.6-0.8,5.7-1.3,6.2-1.6c0.2-0.1,0.3-0.1,0.5-0.1h1.2l0,0c0.1,0,0.1-0.1,0.1-0.1l0,0c0,0,0.1,0.2,0.2,0.4 c0,0.1,2.1,5.8,3.6,5.9c0.3,0,0.6-0.1,0.8-0.3c1.6-1.5,1.7-8.2,1.6-11.4c3.8,5.9,7.8,11.7,7.8,11.8l0.2,0.3v-0.3 c0-0.1-0.1-0.2-0.3-0.8c-0.4-1.2-1.2-3.3-1.3-4.8c-0.1-1.9-0.5-3.1-0.8-3.9c-0.1-0.2-0.1-0.3-0.1-0.5c-0.1-0.4-3.1-6.4-6-11.9 c0.8,1.3,1.7,2.9,2.6,4.4c2,3.9,3.6,7.1,3.7,7.4c0,0.2,0.1,0.5,0.2,0.9c0.2,0.8,0.5,1.9,0.7,3.4c0.1,2.3,1.6,5.6,1.6,5.6 c0,0.1,1.2,1.8,2.1,2.2l0,0h-0.1v0.1c0,0,1.7,4.6,3.5,8.5l0.2,0.5c1.6,3.7,3.1,7.2,4.6,6.6c1.1-0.5,1.7-2,1.9-2.8 c0.1-0.2,0.1-0.4,0.2-0.4l0.3-0.3c0.1,0.1,0.1,0.2,0.2,0.3c0.7,1,1.5,2,2.4,3.1h-0.1c-0.8,0.5-2.2,1.3-2.9,1.5c-1,0.5-2.6,0.9-2.9,1 L616,642h0.8c0,0.2,0.1,0.4,0.2,0.5l0,0v0.1c0.3,0.5,0.5,1.3,0.6,2.1l-0.1,0.1c0-0.1-0.1-0.2-0.1-0.4c-0.1-0.8-0.4-1.5-0.6-1.8 c0-0.1,0-0.1-0.1-0.1c0-0.1-0.1-0.3-0.3-0.3h-0.1c0,0,0,0-0.1,0s-0.3-0.1-0.6,0.1h-0.1c-0.3,0.1-0.9,0.3-1.8,0.2 c-0.7-0.1-1-0.2-1.3-0.2v-0.5l-0.1-0.3c-0.6-0.8-1.5-1.3-2.7-1.3c-2-0.2-4,1.5-4.3,3.1c-0.4-0.1-1.4-0.3-2.4-0.1l-0.7,0.1l0.7,0.1 c0,0,0,0-0.1,0c-1.6,0.2-3.8,0.7-3.9,3.2c-1.2-0.6-2.2-1.6-3.5-2.8c-0.3-0.3-0.7-0.6-1.1-1c-0.6-0.5-1.3-1.2-2-1.8 c0.1-0.4,0-1.1-0.1-1.8c-0.1-1.1-1.6-3-1.6-3.1l-0.2-0.2v3.2c0,0.1,0,0.2,0,0.3c-0.4-0.3-0.8-0.5-1.2-0.6l-0.1-0.1c0,0,0,0-0.1,0 c0.1-0.5,0.1-1.1,0-1.8c-0.1-1.7-2-2.9-2-3l-0.2-0.1l0.1,0.2c0,0,0.4,1.6,0.6,2.5c0.1,0.6,0,0.8,0,1.1l0,0c-3-1.7-7.1-4-10-4.8l0,0 c-0.1,0-0.3,0-0.5,0c-0.1-0.2-0.2-0.4-0.3-0.6c-0.1-0.1-0.1-0.3-0.2-0.4c-0.4-0.9-2.6-3.3-2.7-3.4l-0.3-0.3l0.1,0.4 c0,0,0.3,1.3,0.6,2.3c-1.1-1.3-3-2.7-3.1-2.7l-0.3-0.2l0.1,0.3c0,0,1.2,2.8,1.3,3.5l0,0c0.1,0.2,0.3,0.5,0.5,0.9 c-2,0.3-3.8,1.3-5.6,2.9l0,0c-0.2-0.2-0.5-0.8-0.8-1.3c-0.5-0.8-3.1-2.4-3.2-2.4l-0.2-0.1l0.1,0.3c0,0,0.6,1.6,1.4,2.8 c0.4,0.6,0.7,0.9,0.9,1.2c0.2,0.2,0.3,0.5,0.6,0.9l0,0l0,0c-0.3,0.2-0.5,0.5-0.7,0.7l0,0l0,0l0,0l-0.1,0.1c-0.1,0.1-0.1,0.1-0.2,0.2 l-0.2,0.2l0,0l-0.1,0.1c-0.1,0.1-0.1,0.1-0.2,0.2l-0.1,0.1l0,0l0,0l-0.1,0.2l0.4-0.2c0.1-0.1,0.2-0.2,0.3-0.3l0,0l0,0l0.2-0.2h0.1 c0.1-0.1,0.2-0.2,0.3-0.3l0,0c0.2-0.3,0.5-0.5,0.7-0.7l0,0l0,0l0.1-0.1l0,0c0,0,0-0.1,0.1-0.1l0,0c1.1-1.1,2.2-2,3.4-2.6 c1.3-0.7,2.8-1.2,4.3-1.3c0.2,0.1,0.5,0,0.7,0c0.1,0,0.2,0,0.2,0l0,0l0,0c0,0,0,0.1,0,0.2v0.1h0.1c0.1,0,0.1,0,0.3,0.1l0,0h0.1 c0.1,0,0.2,0,0.3,0.1c0.3,0.1,0.7,0.2,1.2,0.3l0.2,0.1v-0.2c0-0.1,0-0.1,0-0.2c1.4,0.4,3.3,1.2,5.4,2.2c1.4,0.7,2.9,1.5,4.9,2.7v0.1 h0.1c0.5,0.3,1,0.6,1.3,0.9l0.1,0.1l0.1-0.1v-0.1c0.5,0.3,1.1,0.7,1.6,1l0,0v0.1c0,0.1,0.1,0.2,0.1,0.3l0,0l0,0 c0.3,0.1,0.5,0.3,0.8,0.6c0.1,0.1,0.2,0.2,0.4,0.3h0.1h0.1c0,0,0.1,0,0.1-0.1c1,0.8,1.8,1.6,2.6,2.3c0.2,0.2,0.4,0.4,0.6,0.6 c1.2,1.2,2.1,2,3.2,2.5l0,0l0.3,0.2c0,0,0,0,0,0.1s0,0.1,0,0.2v0.5c-0.4-0.4-0.7-0.7-1.3-1.2c-0.8-0.7-1.5-1.2-2.1-1.6 c-0.6-0.5-1.3-1-2.1-1.7c-1.4-1.1-2.1-1.7-3.5-2.9c-0.8-0.5-1.4-0.8-2-1.1s-1.2-0.6-2-1.1c-0.7-0.3-1.2-0.6-1.7-0.9 c-0.5-0.3-1-0.6-1.7-0.9c-1.5-0.7-2.3-1.1-3.8-1.9h-0.1c-0.6-0.1-1.1-0.2-1.5-0.3s-0.9-0.2-1.5-0.4h-3.1l0,0 c-1.1,0.5-1.8,0.8-2.7,1.1c-0.4,0.2-0.9,0.4-1.4,0.6l0,0l-0.5,0.6c-1.4,1-2.6,2.4-3.7,3.9l0,0l0,0c0,0,0,0,0,0.1 c-0.1,0-0.1,0.1-0.2,0.2c-0.1,0.1-0.2,0.3-0.3,0.4s-0.2,0.2-0.2,0.3c0,0,0,0,0-0.1v-0.1l-0.1-0.2l0,0c0.1-0.1,0.2-0.3,0.3-0.4 l0.2-0.3l0.1,0.1c0.2-0.2,0.6-0.8,0.6-0.8l-0.2-0.1c0,0-0.4,0.5-0.6,0.8l0,0l-0.3,0.1c-0.2,0.1-0.2,0.2-0.3,0.4l0,0 c-1.2-1.7-4.5-6.5-9.2-10.6v-0.1l0,0l0,0l-0.1-0.1v-0.1c0.2-0.4,0.4-1.2,0.5-1.9c0.2-2.1,0.1-4.4-0.4-6.2c0,0.1,0.1,0.1,0.1,0.2 c0.4,0.5,0.6,0.8,0.8,0.8c0.1,0,0.1,0,0.2,0.1c0.1,0.1,0.3,0.1,0.7,0c0.6-0.2,2.1-1.7,2.1-2.4c0-0.4-0.1-0.7-0.2-0.9 c-0.1-0.2-0.2-0.5-0.1-0.6c0.1,0,0.1,0,0.2,0.1c0.2,0.1,0.5,0.2,0.7-0.1c0.1-0.1,0-0.3,0-0.4c-0.4-0.8-2.6-3.3-3.1-3.3l0,0 c-0.1,0-0.1,0.1-0.2,0.2c-0.1,0.5,0.1,0.8,0.3,1l0.1,0.1c-0.1,0-0.3,0-0.5-0.1c-0.3-0.1-0.7-0.2-0.9,0c0,0,0,0-0.1,0 c-0.2-0.3-0.2-0.6-0.2-0.9c0-0.1,0.1-0.2,0.3-0.3s0.4-0.3,0.5-0.6l0,0c0-0.3-0.5-0.6-1.4-1.3c-0.1-0.1-0.3-0.2-0.4-0.3l0,0l0,0 c0,0,0,0-0.1,0l0.4-1.8h0.2c0.7,0.1,1.2,0,1.6-0.4c0.6-0.4,0.9-1.2,0.9-1.8c0.2-1.6-0.8-3.3-2.2-3.7c-0.6-0.3-1.1-0.1-1.6,0.1 c-0.1,0-0.2,0.1-0.3,0.1l0,0c-0.5,0.4-0.9,1-1.1,2c-0.2,0.8,0.2,1.7,0.6,2.5c-0.4,0.9-0.6,1.4-0.9,2.2l0,0c-0.1,0-0.1,0-0.1,0.1 c0,0-0.1,0.1-0.1,0.2c0,0.1,0,0.1,0,0.2v0.1c0,0.1-0.1,0.3-0.1,0.4c-0.1,0.1-0.1,0.3-0.2,0.4v0.1h0.1c0.4,0,0.6-0.2,0.6-0.5 c0.1,0.1,0.1,0.1,0.1,0.3c0,0.1-0.1,0.2-0.4,0.3l0,0c-0.1,0.1-0.3,0.3-0.5,0.4s-0.4,0.3-0.5,0.4c0,0,0,0-0.1,0 c-0.1-0.2-0.3-0.4-0.4-0.6c-0.2-0.3-0.5-0.6-0.5-0.8c0-0.1,0-0.1,0.2-0.2s0.4-0.2,0.3-0.7l0,0c-0.3-0.6-2.8-0.9-3.7-0.7 c-0.3,0.1-0.5,0.2-0.5,0.4c0,0.4,0.2,0.5,0.4,0.6c0.1,0.1,0.2,0.1,0.1,0.2c-0.1,0.2-0.5,0.5-0.9,0.8c-0.2,0.2-0.4,0.3-0.5,0.5 c-0.3,0.3-0.2,1.8-0.2,2.1l0,0c0,0.1,0.7,1.5,1.6,2.1c-1,1.2-1.6,2.7-2,4.4l0,0l-0.4-0.2c-1.5-0.6-2.9-1.1-4.3-1.3h-0.2 c-1.2-0.2-2.2-0.3-3.3-0.4c0,0,0,0,0-0.1c-0.2-0.9-2.4-2.9-2.5-3l-0.2-0.2v0.3c0,0.1,0.2,1.9,0.5,2.6c0,0.1,0.1,0.3,0.1,0.4v0.1l0,0 c-2.3,0.3-4.4,1.2-6.2,2.6c-0.2-2.8-0.7-6.2-2.2-10l0,0c0.8-0.5,1.4-2.8,1.4-2.9l0.1-0.2l-0.2,0.1c-0.1,0-1.4,0.6-1.9,0.9 c-0.2,0.1-0.3,0.1-0.3,0.1h-0.1c-1.4-3-3.4-5.9-5.6-8.4c-2.3-2.5-4.4-4.4-6.5-5.7c-0.3-0.2-0.5-0.4-0.8-0.6 c-0.3-0.2-0.5-0.3-0.8-0.6c-2.5-1.5-5-2.3-7.6-2.3l0,0h-0.1h-0.3l0,0c-2.6,0.3-4.5,1.6-5.5,2.3c0,0,0,0-0.1,0.1 c0.1-0.1,0.2-0.2,0.2-0.2c1.4-1.1,3.2-2.2,5.6-2.3h0.1v-0.1c0-1.9-0.5-4-1.4-6.2c-1.2-2.9-3.3-5.4-5.6-6.7c0.8,0.1,1.8,0.1,2,0h0.1 c0.3-0.1,0.5-0.1,0.8-0.7c0.3-0.8,0.2-3.5-0.3-4.1c-0.3-0.3-0.6-0.5-0.9-0.7c-0.2-0.1-0.5-0.2-0.6-0.4c0-0.1,0.1-0.1,0.2-0.2 c0.2-0.1,0.4-0.3,0.4-0.6c0-0.1-0.2-0.2-0.2-0.2c-0.8-0.3-4.5-0.4-5.1,0.2c-0.1,0.1-0.1,0.2-0.1,0.3c0.2,0.4,0.6,0.6,0.9,0.6 c0.3,0.1,0.4,0.1,0.4,0.2s-0.2,0.3-0.4,0.5c-0.2,0.2-0.4,0.3-0.5,0.5l0,0c-0.4-0.2-0.7-0.3-0.8-0.5c-0.1-0.1-0.1-0.3-0.1-0.6 s0.1-0.7-0.2-1.1c-0.2-0.2-0.6-0.2-1.1,0c-0.1,0-0.1,0-0.2,0c-0.7-1.1-1.1-1.9-1.6-2.8c-0.4-0.6-0.7-1.3-1.2-2.1l-0.1-0.2 c-0.1-0.2-0.2-0.4-0.4-0.7h0.1l0.2-0.2c1.2-1.2,1.3-3.1,0.2-4.7c-0.5-0.7-1.3-1.4-2.2-1.5c-0.9-0.1-1.7,0-2.2,0.4 c-0.3,0.2-0.5,0.5-0.7,0.8l-0.1,0.1l0,0c-0.1,0.2-0.2,0.4-0.2,0.6c-0.1,0.2-0.2,0.4-0.3,0.7l0,0l0,0c0,0.3,0.1,0.6,0.1,0.8 c0,0.3,0.1,0.5,0.1,0.8l0.1,0.2v0.1l0,0c0.2,0.3,0.3,0.5,0.4,0.8c0.1,0.2,0.2,0.4,0.4,0.7l0,0l0,0c0.3,0.2,0.5,0.3,0.7,0.4l0,0 c0.3,0.3,0.7,0.4,1.1,0.5h0.1c0.5,1.2,0.9,2.2,1.3,3.1c0.4,0.9,0.8,1.9,1.3,3.2l0,0c0,0,0,0-0.1,0.1c-0.7,0.3-1.1,0.7-1.2,1 c0,0.1,0,0.2,0.1,0.2c0.2,0.4,0.5,0.4,0.7,0.4s0.3,0,0.4,0.1c0.1,0.2,0,0.6,0,1.1s-0.1,1,0,1.3c-0.3-0.1-0.8-0.2-1.2-0.2 c-0.3,0-0.6-0.1-0.8-0.1c-0.1-0.1-0.1-0.3-0.1-0.4C484.3,578,484.4,577.7,484,577.5z M510,562.7c-0.9,0.7-2.1,2.3-3,3.5 c-0.4,0.5-0.7,0.9-0.9,1.1v0.1l-0.1-0.1c-0.2-0.3-0.5-0.6-0.7-0.8c-0.2-0.3-0.5-0.6-0.7-0.8c0.6-1,2.3-3.1,3.5-4.2 c1.4-1.2,3.7-1.3,4.4-1.3h0.2l-0.1-0.2c-0.1-0.1-0.1-0.2-0.2-0.3c-0.2-0.2-0.3-0.4-0.4-0.6V559h-0.2c-2.3-0.5-4.2-0.6-5.5-0.3 c-1.8,0.4-3.3,2.3-3.8,3.3c-0.1-0.2-0.2-0.3-0.2-0.5c-0.3-0.6-0.6-1.5-0.8-2.3c-0.3-1.1-0.5-2.3-0.6-3.7v-1.7c0-0.7,0-1.4,0.2-2 c0.2-2,0.6-3.6,1-4.7c0.1-0.2,0.1-0.4,0.2-0.6c0.1-0.4,0.2-0.7,0.4-1l0,0c0.1-0.2,0.1-0.3,0.2-0.5c0.2-0.3,0.3-0.7,0.4-1 c0.3-0.8,0.6-1.6,1-2.3c0.1-0.2,0.1-0.3,0.2-0.5c0.2-0.3,0.3-0.7,0.4-1c0.5-1.1,0.8-2.3,0.8-3.3v-0.3c0-0.3,0-0.7-0.2-1.2v-0.1 c1.6-1.1,3.1-1.6,4.1-1.5c1.8,0.2,3.5,1.4,4.1,2l0.1,0.1v0.1c0.1,0.2,0.1,0.4,0.1,0.6v1.4c-0.8-0.7-2.4-2-4.1-2.1 c-1.9-0.3-3.4,0.7-4,1.2l0,0l0,0c0,1-0.3,2.2-0.8,3.3l-0.2,0.5l0.4-0.4c0.4-0.4,2.8-1.4,4.7-0.6c1.5,0.7,2.6,2.3,3.2,3.4 c-0.1,0.2-0.1,0.4-0.2,0.6c-0.1,0.3-0.2,0.6-0.3,1c-0.5-0.9-1.4-2.4-2.7-3.3c-2-1.2-4.6-0.2-5.3,0V541l-0.2,0.5 c-0.3,0.8-0.6,1.5-1,2.3c-0.1,0.2-0.1,0.3-0.2,0.5c-0.2,0.3-0.3,0.7-0.4,1v0.2l0.2-0.1c0,0,0.1,0,0.1-0.1c1.7-1,3.1-1.4,4.1-1.2 c1.3,0.4,3.1,2.4,4,3.3c0.1,0.1,0.2,0.2,0.3,0.3c-0.1,0.2-0.1,0.4-0.2,0.5c-0.1,0.3-0.2,0.6-0.3,0.9c-0.8-1-2.6-2.6-4-3 c-1.6-0.2-3.3,0.3-4.3,0.6c-0.2,0-0.3,0.1-0.4,0.1h-0.1v0.1c-0.5,1.4-0.8,2.9-1,4.7v0.2l0.2-0.1c0.1-0.1,2.7-2,4.9-1.7 c1.4,0.2,2.8,1.8,3.6,2.8c0.1,0.1,0.2,0.2,0.3,0.3v0.4c0,0.3,0,0.7,0.2,0.9v0.2c-0.7-0.7-2.7-2.1-4.6-2.4l0,0 c-2.2-0.3-4.2,1.5-4.8,2.1l0,0v1.1c0.1,0.4,0.1,0.7,0.1,1c0.1,1,0.2,1.8,0.5,2.7v0.2l0.1-0.1c0.2-0.2,0.4-0.4,0.6-0.6 c0.8-0.8,2-1.9,3.3-2.5c1.8-0.7,4,0,5,0.6l0.3,0.2l-0.1-0.3c-0.2-0.4-0.3-0.6-0.3-1v0.1c0.1,0.2,0.1,0.4,0.2,0.6l0.1,0.2 c0.3,0.6,0.6,1.3,1,1.8c0.2,0.4,0.5,0.8,0.6,0.9c0.2,0.4,0.5,0.7,0.8,1.1c0.2,0.2,0.3,0.3,0.5,0.5l0.1,0.1l0,0 C512.9,561.4,511.1,561.8,510,562.7z M511.7,530.9c-1.2-0.6-2.5-0.6-4.1-0.2c-2,0.6-2.6,2.1-2.9,2.8c-0.1-0.2-0.3-0.5-0.5-0.7l0,0 c0.2-0.6,0.9-2.4,2.3-3.2s2.5-1,3.5-0.5C510.7,529.7,511.1,530.3,511.7,530.9L511.7,530.9L511.7,530.9z M503.7,527.5 c0.4-0.8,1.4-1.6,2-2c0.2-0.1,0.3-0.2,0.4-0.3c0.1,0.1,0.2,0.1,0.2,0.2c0.2,0.1,0.4,0.3,0.6,0.4c0,0,0.1,0,0.1,0.1 c-0.4,0.2-1.1,0.7-2.2,1.7c-1.1,1.2-1.1,3.2-1.1,4.2l0,0l0,0c-0.1-0.1-0.2-0.2-0.3-0.3v-0.1c0-0.1,0-0.2,0-0.2l0,0 C503,530.7,503,528.8,503.7,527.5z M501.1,525.2c0.7-1.7,1.7-2,1.7-2h0.2l-0.2-0.2l0,0l0,0l0,0l0,0c0.1,0,0.1,0.1,0.2,0.2 c0.3,0.2,0.7,0.4,1.1,0.7c0,0,0.1,0,0.1,0.1c-0.5,0.1-1.8,0.6-2.3,1.9c-0.5,1-0.5,2.8-0.5,3.6c0-0.1-0.1-0.1-0.1-0.2 c-0.1-0.1-0.1-0.1-0.1-0.2c-0.1-0.1-0.2-0.3-0.4-0.3l0,0c0,0,0-0.1-0.1-0.1c-0.1-0.1-0.1-0.3-0.2-0.4 C500.4,527.5,500.6,526.3,501.1,525.2z M531.8,496.8L531.8,496.8c-0.1-0.2-0.1-0.4-0.2-0.5l0,0h-0.1c-0.6-0.4-2-1.3-3.7-3.6 c0-0.1,0-0.1-0.1-0.1v-0.1V492l-0.2,0.4c-0.6,1.5-1,3.4-1,4.3v0.8c-0.4,0-0.7-0.1-1-0.1c-0.4-0.1-0.7-0.1-1.1-0.2h-0.1 c-1.4-2.4-2.1-3.7-3.4-6.1l-0.1-0.2l-2.3,4.6l-0.1-0.1c0.1-0.5,0.6-2,1.7-4.1l0,0l0,0c-1.1-3.8,1.4-6.4,1.4-6.4l0.1-0.1h-0.2 c-0.1,0-1.4-0.4-3.1,0.4c-1,0.4-2.1,1.4-2.9,2.1c-0.1,0.1-0.2,0.2-0.3,0.3c0-0.3-0.1-0.5-0.1-0.7c-0.1-0.2-0.1-0.4-0.1-0.7 c-0.2-1.7-0.2-3.7-0.1-6.4v-0.2c0,2.4,0,4.5,0.1,6.4l0,0l0,0c0.1,0.1,0.2,0,0.5-0.2c0.5-0.4,1.6-1.3,2.9-1.6 c1.3-0.3,2.8-0.4,3.8-0.4c0.4,0,0.7,0,0.9-0.1c0,0.1,0,0.2,0.1,0.4c0.1,0.2,0.1,0.4,0.1,0.6l0,0c-0.2,0.1-0.4,0.2-0.5,0.3 c-0.4,0.2-0.7,0.4-1.3,0.6l0,0l0,0c-0.5,1.6-0.7,2.4-1,4.1v0.1l0,0c0.1,0.1,0.2,0.2,0.2,0.3c0.1,0.1,0.2,0.2,0.3,0.3l0.1,0.1 l0.1-0.1c0.8-0.7,1.4-1.3,2-1.8c0.6-0.6,1.2-1.1,2-1.9l0,0c0.3,0.2,0.6,0.3,1,0.4c0.1,0,0.1,0,0.2,0c0.3,0.8,0.5,1.5,0.7,2.1 s0.4,1.3,0.7,2.2l0.1,0.2l0.1-0.1c0.1-0.2,0.3-0.3,0.4-0.4c-0.1,0.1-0.1,0.1-0.2,0.2v0.1l0.1,0.1c0,0,0.1,0.1,0.1,0.2s0,0.1,0.1,0.2 c0.8,1.3,2.1,2.6,2.8,3.4c0.1,0.1,0.2,0.2,0.3,0.3l0,0c0.1,0.3,0.2,0.6,0.4,0.9v0.3L531.8,496.8L531.8,496.8z M526.4,461.9l0.1,0.1 c0.1,0.1,0.2,0.2,0.2,0.2c-0.2,0.6-1.3,3.9-1.4,5.3c-0.2,1.4-0.9,2.4-1.5,3.3c-0.2,0.3-0.5,0.7-0.7,1c-0.5,0.9-2.2,4.6-2.1,6 c0,0.3,0.1,0.6,0.1,0.8c0.1,0.9,0.2,1.3,0.5,1.3c0.1,0,0.2,0,0.4-0.1s0.4-0.1,0.5-0.1c0,0,0.1,0.1,0.1,0.2c0,0.3-0.5,1-0.9,1.2 c-0.1,0-0.2,0.1-0.3,0l0,0c-0.4-0.2-1-1.6-0.8-3.8c0-1.9,1.2-4,2.1-5.4c0.1-0.2,0.2-0.4,0.3-0.6c0.3-0.5,0.5-0.8,0.8-1.1 c0.6-0.7,1.1-1.3,1.4-2.9v-0.6L525,467c0.3-1.5,0.8-2.9,1.2-3.8l0,0h0.3h-0.1l0,0h0.1v-0.1c-0.1-0.2,0-0.6,0.1-0.7l0.1-0.1h-0.4 c-0.1,0-0.2,0-0.2,0c-0.2,0-0.4,0-0.6-0.1l0,0h-0.4c-0.1,0-0.2,0-0.3,0c-0.3,0-0.6,0-0.9,0c0,0,0,0,0-0.1l0.1-0.1h-0.2 c-0.2,0-0.2,0-0.4,0.1l-0.1,0.1l0.1,0.1l0,0l0,0c-0.9,0.3-1.6,0.8-2.1,1.6l-0.1,0.1c0,0,0,0-0.1,0l0,0l0,0c-1.1,1.5-3.1,1.5-4,1.4 c0.6-0.2,2.7-0.9,3.4-2.1c0.8-1.3,2.7-2.2,3.9-2l0.6,0.2C525.5,461.6,526,461.8,526.4,461.9z M556.1,666.1c-0.6,0.5-1.3,0.7-2.1,0.5 c-1.7-0.3-3.1-2-3.1-4c0-1,0.4-1.9,1.1-2.5c0.5-0.4,1-0.6,1.6-0.6c0.1,0,0.3,0,0.4,0c1.7,0.3,3.1,2,3.1,4 C557.1,664.6,556.7,665.5,556.1,666.1z M531.5,522.4c0.1-0.1,0.2-0.1,0.3-0.3c0.1,0,0.1-0.1,0.2-0.1c0.1-0.1,0.2-0.1,0.2-0.1l0,0 c0.4-0.2,0.8-0.4,1.1-0.6s0.7-0.4,1.1-0.6l3.3-2.1c0.3-0.2,0.6-0.4,0.9-0.7c0.3-0.2,0.5-0.4,0.9-0.7c0.2-0.1,0.3-0.3,0.5-0.4 c1.1-0.9,2.2-1.8,3.2-3c0.2-0.3,0.4-0.6,0.6-0.8c0.1-0.1,0.2-0.2,0.3-0.4s0.3-0.4,0.4-0.6c0.4-0.5,0.7-1.1,1-1.7 c0.2-0.1,0.2-0.3,0.3-0.4c0-0.1,0-0.1,0.1-0.2c0,0,0,0,0.1-0.1c0,0,0,0,0.1,0h0.1v-1.8c0-0.1,0-0.1,0-0.2c0.2-0.1,0.4-0.3,0.6-0.4 l0.4-0.4l-0.1-0.1c-0.2-0.2-0.4-0.3-0.5-0.4l0.1-0.1c0.2-0.3,0.3-0.7,0.4-1.3l0.1-0.3c0.4-1.1,0.9-2.2,1.2-2.8l0.1-0.2 c0.1,0.1,0.2,0.3,0.3,0.4h-0.1c-0.2,0.1-0.2,0.4-0.3,0.7c0,0.1,0,0.2-0.1,0.3c-0.1,0.5-0.3,0.9-0.4,1.3c-0.1,0.4-0.2,0.8-0.4,1.3 c-0.1,0.3-0.1,0.5-0.2,0.8c-0.1,0.4-0.2,0.7-0.3,1v0.8h0.1c0.9,0.3,2,0.7,2.6,0.8c1,0.1,1.6,0.2,2.4,0.4l1.1,0.2l0,0l0,0 c0,0.1,0.1,0.2,0.1,0.3c0.2,0.4,0.3,0.8,0.4,1.1c0,0.1,0,0.1,0,0.1l0,0l-0.1-0.1l-0.1-0.1l-0.1,0.1c-0.2,0.1-0.4,0.3-0.7,0.6 c-0.6,0.5-1.5,1.4-2.5,2.1c-0.2,0.2-0.6,0.3-0.9,0.4c-0.1,0-0.1,0-0.2,0.1H549v0.1c0.1,0.3,0.3,0.7,0.4,1.1c0.2,0.5,0.3,1,0.5,1.3 c0.6,1.2,2.4,3.1,3.1,3.8c-0.1,0.1-0.1,0.3-0.1,0.4c-0.1,0.3-0.2,0.5-0.3,0.7c-0.2,0-0.5-0.1-0.8-0.1c-1.2-0.2-3.1-0.5-4.8-0.8 c-0.6-0.1-1.2-0.2-2-0.5l-0.1-0.1v0.3c0,2,1.4,5.6,1.9,6.6l-0.3,0.3c-0.1,0.1-0.3,0.2-0.4,0.3c-0.1,0.1-0.2,0.1-0.3,0.2 c-1-0.3-3.5-0.9-6.1-1.5h-0.1v0.1c0.1,1.6,0.5,3.3,0.7,4.3c0.1,0.5,0.2,0.9,0.2,1.2l0,0c-0.2,0.1-0.5,0.4-0.6,0.6 c-0.1,0-0.1,0.1-0.2,0.1l-0.5-0.2c-1-0.4-3.2-1.2-5.4-2.2l-0.2-0.1v0.2c0.4,2.1,1.2,4.2,1.7,5.2c0.1,0.2,0.2,0.4,0.2,0.6v0.1 l0.1-0.1c0.1-0.1,0.3-0.3,0.4-0.4c-0.2,0.2-0.5,0.5-0.7,0.8c-0.1,0.1-0.2,0.2-0.2,0.3c-0.1,0.1-0.1,0.1-0.2,0.2l0,0 c-0.9,0.2-3.6,0.5-5.7,0.7h-0.1l0.1,0.1c0.8,1.7,1.6,2.5,2,2.9c-0.4,0.7-0.9,1.4-1.2,2.3l-0.1,0.1c-0.6,0.6-1.4,1.3-3,2.1l-0.1,0.1 l0.1,0.1c0.5,0.4,1,0.8,1.5,1.1l0,0l0.3,0.3h0.2l-0.3,0.3l0.3-0.2c0,0,0,0.1,0.1,0.1l0,0c-0.2,0.7-0.2,1.3-0.2,1.9 c-0.1,0-0.1,0-0.2,0h-0.1v0.9h0.1c0,0.1,0,0.1,0,0.2c-0.1,0.2-0.3,0.4-0.5,0.7c-0.6,0.9-1.4,1.9-2,2.4l-0.1,0.1c0,0,0,0-0.1,0h-0.6 l0.6,0.2c0.2,0.1,0.5,0.2,0.7,0.2c0.9,0.3,1.7,0.6,2.2,0.7l0,0v0.2h0.1l0,0h-0.1v0.4h-0.1v0.3c-0.7-0.2-2.3-0.8-3.5-1.5h-0.1H525 c-1.1,0.7-3,2-3.5,2.2h-0.1v0.1c0.1,0.2,0.1,0.4,0.2,0.6c0.1,0.4,0.2,0.7,0.4,1l0,0c0.3,0.2,0.9,0.5,1.7,0.9c0.9,0.5,1.8,1,2.4,1.4 c0.1,0,0.1,0,0.1,0.1c0.1,0,0.2,0.1,0.3,0.2l0.1,0.1l0.1-0.2c0.4-1.1,1.6-2,2.1-2.4c0.1,0,0.1-0.1,0.1-0.1h0.1c0,0.1,0,0.1,0.1,0.2 c0,0.1,0,0.2,0.1,0.2h-0.1c-0.1,0.1-0.2,0.1-0.4,0.2h-0.1v0.4l0,0v0.1c-0.3,0.2-0.9,0.6-1.4,1.4l-0.1,0.1h0.2c0.4,0,0.9,0.1,1.6,0 c0,0.2,0.1,0.3,0.3,0.4l0,0c0.2,0,0.3,0,0.4,0c0,0.1,0.1,0.2,0.1,0.3v0.1l0,0l0,0l0,0c0,0.1,0.1,0.3,0.1,0.4c0,0.1,0.1,0.2,0.1,0.3 l0.1,0.3c0,0.2-0.2,0.6-0.4,1.2l-0.1,0.2c-0.5,1.8-0.8,2.6-0.8,2.6l-0.1,0.2h0.2c0,0,0.8-0.1,2.2,0.2c0.1,0,0.2,0,0.3,0.1 c0.3,0.1,0.5,0.1,0.5,0.2c0.1,0.1,0.2,0.3,0.3,0.4c0.1,0.2,0.2,0.4,0.4,0.5c-0.5-0.1-0.9-0.1-1.3-0.2c-0.6-0.1-1.1-0.2-1.8-0.3 L529,567l0.3,0.2c1.2,0.9,2.5,1.7,3.7,2.2c-1.3-0.6-2.6-1.3-4-2.3c-0.3-0.2-0.8-0.6-1.1-0.9l0,0l0,0c-0.1,0-0.1,0-0.1-0.1l-0.1-0.1 c-0.2-0.2-0.5-0.4-0.7-0.7c-0.4-0.4-0.9-0.8-1.3-1.3c-0.1-0.1-0.2-0.2-0.2-0.3c-0.1-0.1-0.2-0.2-0.3-0.3c-1.3-1.6-2.3-3.4-3-5.1 c-0.1-0.1-0.1-0.2-0.1-0.3c-0.1-0.3-0.2-0.5-0.4-0.6c-0.1-0.1-0.1-0.3-0.2-0.4c-0.2-0.4-0.3-0.8-0.4-1.2l0,0 c-0.1-0.2-0.2-0.4-0.2-0.6c-0.1-0.2-0.2-0.5-0.3-0.6c-0.5-1.6-0.8-3.3-1.1-5.3c-0.2-0.7-0.2-1.4-0.2-2.3c0-0.3,0-0.7-0.1-1.1 c-0.1-0.4-0.1-0.9-0.1-1.3v-1c0-3.4,0.3-6,1-8.3c0.2-0.4,0.3-0.9,0.4-1.3c0.1-0.4,0.2-0.9,0.4-1.3c0.5-1.1,1-2.1,1.4-2.9 c1.2-1.7,2.2-2.9,3.2-3.8c0.1-0.1,0.3-0.3,0.5-0.5s0.4-0.4,0.5-0.5c1.4-1.2,2.8-2.1,4.4-3L531.5,522.4 C531.5,522.5,531.5,522.5,531.5,522.4z M569.3,475.4L569.3,475.4c0.6-0.1,2.8-0.2,4.7,0.6c0.7,0.3,1.2,0.6,1.5,1 c-0.3-0.2-0.7-0.5-1.3-0.7c-1.3-0.5-2.8-0.7-3.8-0.7c-0.5,0-0.9,0-1.1,0.1l0,0l0,0c-0.6,0.5-1.1,0.9-1.7,1.2c-0.2,0-0.4,0-0.6,0.1 c0.5-0.2,1.1-0.6,1.9-1.3C569.1,475.6,569.2,475.5,569.3,475.4z M640.7,461.7l-0.5-0.5l0.3,0.6c0,0,1.1,2.1,2.3,4.3 c0.6,1.2,1,2.1,1.2,2.9l0,0c0,0.1,0,0.1-0.1,0.2c-0.1,0.2-0.3,0.4-0.5,0.6c0.3-1-0.1-2.5-1.3-4.5c-1.2-2.4-2.3-4.3-2.3-4.3 c-1.3-1.9-3-3.9-5.2-5.9c-1.6-1.7-3.3-3.3-4.4-4.3c-0.3-0.3-0.6-0.5-0.8-0.7c1.7,1.1,7.1,5.1,10.3,9.9c0.2,0.2,1.5,2,2.6,4.4 c0.1,0.2,0.2,0.5,0.3,0.7c0,0.1,0.1,0.2,0.1,0.3C641.9,463.5,640.9,461.9,640.7,461.7z M650.4,470.6c0,0.1,0,0.3,0.1,0.4 c0.5,3.8,0.5,6.4,0.5,7.4v0.1l0,0c0.8,0.4,1.4,0.5,1.6,0.2c0.2-0.4,0.3-1,0.4-1.8h0.1c0,0.9-0.2,1.7-0.3,2.1c-0.2,0.2-0.8,0-1.4-0.2 c-1.1-0.5-2.3-1.4-3.5-2.3s-4.3-3.2-4.4-3.5l0,0c-0.1-0.1,0.1-0.3,0.3-0.5c0,0,0.1,0,0.1-0.1c0.9,0.7,2,1.6,3.1,2.4 c1.3,1,2.7,1.8,3.5,2.3l0.1,0.1V477C650.8,476.1,650.8,473.8,650.4,470.6z M671.5,471.9L671.5,471.9c-0.1,0.4-0.5,1.1-0.9,1.8 c-0.4,0.6-0.8,1.2-0.9,1.6c-0.3,0.6-0.5,1.5-0.6,2l0,0c-0.3,0-0.6,0.1-0.8,0.2l0,0c0.1-0.3,0.2-0.7,0.3-1.2c0,0,0,0,0.1,0l0,0 c0.1-0.2,0.2-0.5,0.2-0.8c0.1-0.4,0.2-0.9,0.4-1.3c0.1-0.3,0.5-0.8,0.8-1.3c0.2-0.3,0.5-0.6,0.6-1 C671.1,471.8,671.4,471.8,671.5,471.9z M695.6,525.7h-0.2l0.1,0.2c0.9,1.9,1.8,3.6,2.4,5.1c-2.6-4.8-7-12.3-12-18.9 c-5-6.7-7.6-10-9-11c-0.2-0.4-0.1-0.5-0.1-0.5c0.1-0.1,0.1-0.1,0.2-0.1l0,0c0.8,0,3.6,3.3,9.6,11.3c2.6,3.5,5.3,7.6,8.1,12.2 L695.6,525.7L695.6,525.7z M632.1,477.1c0.3,0.7,0.5,1.5,0.5,2.2c0,1.3-0.5,2.4-1.4,3c-0.7,0.2-1.5,0.2-2.5,0 c-2-0.4-3.5-2.6-4.1-3.8c0.8,0.8,2.4,2.3,4.2,2.5c0.8,0.1,1.5-0.2,2.1-0.7c0.9-0.8,1.2-2.1,1.2-3 C632.1,477.2,632.1,477.2,632.1,477.1z M635.1,488.6c0.1,0.2,0.2,0.4,0.2,0.7c0.8,2.2,0.6,5.9,0.1,6.8c-0.4,0.7-0.8,1.2-1.3,1.4 c-0.8,0.1-2.3,0-3.6-0.7c-1.2-0.9-2-2.1-2.3-2.6c-0.3-0.6-0.5-1.1-0.6-1.5c0.6,0.9,1.9,2.6,3.6,3.1c1,0.3,1.9,0.3,2.6-0.1 c0.7-0.4,1.1-1.1,1.2-1.5C635.3,493.3,635.4,490.7,635.1,488.6z M618.5,537.6c-0.1,0-0.3,0.1-0.3,0.1h-0.1v0.1l0,0l-0.2-0.4 c-0.2-0.3-0.3-0.6-0.4-0.8c-0.1-0.2-0.1-0.3-0.2-0.5c0,0,0,0,0-0.1c0.7-0.1,2.9-2.2,3.7-3.7c0.4,0.4,0.8,0.6,0.9,0.7 C622,534,619.8,536.6,618.5,537.6z M628.1,507.7L628.1,507.7c-0.2-0.3-0.3-0.5-0.3-0.8c0.6,1,1.5,2.4,2.9,2.9c1.2,0.5,2.1,0.3,2.7,0 c0.9-0.4,1.5-1.2,1.8-2.1v-0.1c0.2-1.3,0.8-4.8,0.6-7.4c1.1,2.2,0.3,7,0,9.1c0,0.2-0.1,0.3-0.1,0.5c-0.1,0.8-0.6,1.5-1.3,1.9 c-0.8,0.5-1.9,0.5-2.9,0.1C629.4,510.7,628.1,507.7,628.1,507.7z M630.2,522.2c-0.3,0.4-1,0.5-1.8,0.3l0,0h-0.1c0,0-0.5-0.1-1.2-0.4 c-0.2-0.1-0.4-0.2-0.6-0.4c-1.6-1.1-2.7-3.6-2.7-3.7l-0.3-0.6l0.1,0.7c0,0,0,0.1,0,0.2c-0.2-0.6-0.3-1.1-0.4-1.5 c0.4,0.9,1.3,2.3,2.4,3c1.8,1.2,3.4,1.1,4,0.5l0,0c0.4-0.5,2.6-3.5,3.5-5.8c0.4,0.1,0.7,0.2,0.9,0.2c0.1,0.7-0.3,1.8-1.2,3.5 c-0.3,0.1-0.5,0.3-0.7,0.6l-0.2-0.4v0.4c0,0,0,0,0,0.1c-0.1,0-0.1,0.1-0.2,0.2c-0.1,0.2-0.3,0.6-0.5,1c-0.3,0.5-0.6,1.2-0.8,1.7 C630.4,522.1,630.3,522.2,630.2,522.2z M622.4,529.1c0,0,3.9-2.6,5.4-4.8c0.6,0.2,1,0.4,1.2,0.4c0.1,0.7-0.8,1.8-1.9,2.9v-0.2 l-0.1,0.2c-1,1-2.3,2-3.1,2.6c-0.4,0.3-0.8,0.6-0.9,0.7c-0.4,0.2-1.2,0.1-2.1-0.4c-0.3-0.2-1-0.7-1.6-1.4c-0.9-1.3-1.9-3.6-2-3.7 l-0.1-0.3c0.5,0.9,1.1,2,1.7,2.6C619.8,528.7,621.7,529.5,622.4,529.1z M628.4,465.5c0-0.2,0-0.3,0-0.5c0.4,0.9,0.5,1.7,0.5,2.5 c0,0.4-0.2,0.8-0.4,1.1c-0.8,0.6-1.8,0.6-3.1,0.1c-2.2-0.7-3.1-2.3-3.4-3.1c0.6,0.6,2.2,1.9,3.7,1.9c0.9,0.1,1.7-0.2,2.2-0.6 C628.2,466.6,628.4,466.1,628.4,465.5z M642,471.4c-2.4-0.6-6.4-3.3-6.6-3.7c0-0.2,0-0.5,0-0.9v-0.1c1.4,1,3.5,2.3,5.2,2.8 c0.1,0.4,0.2,0.9,0.3,1.3l0,0l0,0c0.8,0.4,1.4,0.3,1.6,0.1l-0.1,0.1l0.1-0.1c0,0,0,0.1,0,0.2l0,0c0,0.1,0.2,0.2,0.4,0.4 C642.8,471.5,642.4,471.5,642,471.4z M610.8,467.2c1.2,0.3,1.7,0.7,2.1,1l0.2,0.2c0.5,0.5,0.9,0.9,0.9,1c0,0-0.1,0-0.2-0.2 c-0.3-0.3-0.9-0.9-2.5-1.3c-0.5-0.1-0.9-0.2-1.4-0.2c-0.6,0-1.1,0.1-1.7,0.3c-0.5-0.2-0.8-0.3-1-0.4 C607.4,467.3,608.9,466.7,610.8,467.2z M540.5,559.5c-0.2,0-0.4,0-0.7-0.1c-0.8-0.3-1.6-0.6-2.3-1c-0.2-0.1-0.4-0.2-0.6-0.4 c-0.2-0.1-0.4-0.2-0.5-0.3c-0.5-0.4-1-0.9-1.4-1.4l0,0l0,0c-0.5-0.5-0.9-1.1-1.3-1.7c-1.5-2.5-2-5.4-2.2-7.4v-0.3 c0-3.1,1.4-6.2,4.1-9.1c2.3-2.5,5.3-4.8,8.5-7.2c1.9-1.4,3.9-2.9,5.7-4.5c6-5,9-9.8,9.7-15.4v-1c0-2.9-1.1-6.2-3.3-9.9 c-0.1-0.1-0.2-0.2-0.2-0.4c-0.1-0.2-0.2-0.3-0.3-0.4c-0.1-0.2-0.3-0.4-0.4-0.6c-0.1-0.2-0.2-0.4-0.4-0.6c0-0.1-0.1-0.2-0.1-0.2 l-0.1-0.1l0,0c-0.1-0.2-0.2-0.3-0.3-0.4s-0.2-0.3-0.3-0.4c0.1,0,0.1,0,0.2,0c0.1,0.1,0.2,0.2,0.3,0.4l0,0v0.1c0,0.1,0.1,0.2,0.1,0.3 l0.1,0.1l0,0l0,0c0.1,0.2,0.3,0.4,0.4,0.6c0.1,0.2,0.3,0.4,0.4,0.6v0.1l0,0c0.1,0.2,0.2,0.3,0.2,0.4c0.1,0.1,0.1,0.2,0.2,0.3v0.1 h0.1c1.2-0.3,11.4-2.7,12.8-5.7c0.2-0.5,0.2-0.8,0-1.3h0.1v-0.4c0-0.2,0-0.3-0.1-0.5c0.6,0.1,1.3,0.3,1.9,1c0.8,1,1,3.5,1,3.9l0,0 h-0.7l0.9,0.2c0,0,0,0,0.1,0l0,0l0,0c0,0,0,0,0.1,0c0.2,0.1,0.3,0.1,0.4,0.1h-0.1h0.3c-0.2,0.6-0.6,2.1-1.3,3.7 c-0.6,1.2-1.3,2.3-1.9,3.2c-0.7,1-0.9,1.4-0.8,1.6l0,0c0.1,0.1,0.2,0.2,0.3,0.3c0.1,0.1,0.1,0.1,0.2,0.2v0.1v0.1l0,0 c0,0.2,0.1,0.2,0.2,0.3c0.1,0,0.1,0.1,0.1,0.1l0,0l0,0c0.2,0.2,0.6,0.4,1,0.6c-0.9,1.3-2.5,3.9-3.6,5.8l-0.4,0.7 c-2,3.2-3.5,5.8-3.3,6.4c0,0.1,0.1,0.1,0.1,0.2c0.6,0.3,1.8,0.5,1.8,0.5l0,0l0,0c0.2,0,0.3-0.5,0.6-1.6c0.3-1.4,0.7-3.5,1.8-5.2 c0.6-0.8,1.2-1.6,1.7-2.3c1.1-1.4,2-2.6,2.2-3.1c0.1-0.1,0.2-0.2,0.3-0.2c-0.1,0.1-0.1,0.2-0.2,0.3c-0.1,0.2-0.4,0.6-0.8,1.1 c-0.8,1.1-1.9,2.7-3.1,4.5c-1.1,1.7-1.5,3.9-1.8,5.3c-0.1,0.6-0.3,1.4-0.4,1.4h-0.6l0.6,0.2h-0.1v0.1c0,0.1,0,0.2-0.1,0.3 c-0.1,0.3-0.1,0.7-0.1,1.2l0,0l0,0l0.1,0.1c-1.4,2.2-5.6,9.4-5.6,14.1c0.1,3.6,0.4,4.4,1,5.9c0.4,0.9,0.8,1.9,1.4,3.9 c1,3.7,1.7,8.8,2,11.6c0.1,1.1,0.2,1.8,0.3,2c0,0.1,0.1,0.2,0.1,0.2c0.2,0.1,0.6,0,0.8-0.2h0.1c0.6-0.1,1.5-0.5,2.6-1.1 c0.4,0.8,0.8,1.7,1.4,2.8c0.3,0.7,0.7,1.4,1.1,2.2c1.3,2.5,3,5.7,5.2,9.3c0,0.1,0.1,0.1,0.1,0.2c-0.1-0.1-0.2-0.2-0.3-0.2 c-1.7-2.6-3.1-5.2-4.3-7.6c-0.3-0.6-0.6-1.2-0.9-1.7l-0.2-0.4v0.4c0,0.2,0,0.5,0,0.8c0,2.3-0.1,6.5,1.2,10c1.4,3.7,4.7,8.7,6.8,11.6 c-0.3-0.3-0.7-0.7-1.1-1.1c-0.1-0.3-0.7-1.2-2.1-2.2c-1.7-1.2-2.9-1.2-3.4-0.9c-0.2,0.1-0.3,0.3-0.4,0.4c0,0.2,0,0.3,0,0.3v0.1 c0.3,1,1.3,4.3,2.2,5.7c0.8,1.1,3.9,3.5,5,4.3c-0.2,0-0.4,0-0.6,0c-0.3,0-0.6,0-1,0c-1.7,0-2.8,0.2-3.3,0.5c-0.3,0.3-0.6,0.6-1,1 l-0.2,0.2c-0.9-0.8-1.5-1.5-2-2.1l0.1-0.1c1-1.1,1.4-2.2,1.2-3c-0.1-1.1-0.6-1.8-1-2.3c-0.1-0.1-0.3-0.2-0.4-0.2 c-0.1,0-0.1,0-0.2-0.1l-0.1-0.1c-0.6-2.3-2.8-7-4.7-8.2c0-3.9-0.6-9.3-3.5-13.3c-0.3-0.4-0.6-0.9-1-1.3v-0.1v0.1 c-2.2-2.6-4.9-4.1-8.4-4.8c-2-0.3-4.1-0.3-6.1-0.2c-1.9,0-3.7,0.1-5.4-0.2C541,559.6,540.7,559.5,540.5,559.5z M547.8,501.7 c-0.3,0.2-1.2,0.6-2.4,0.3c-1-0.3-2.6-1.1-3.7-1.6l-0.2-0.4c0.3,0.1,0.6,0.3,0.9,0.4c1.1,0.5,2.5,1.2,3.5,1.1c0.8,0,1.3-0.1,1.6-0.4 l0.1-0.1c0.1,0.2,0.3,0.3,0.4,0.5L547.8,501.7z M689.2,526.2L689.2,526.2L689.2,526.2c-5.3-11-10.6-19.4-16.7-26.3 c-3-3.4-5.3-6.1-7-8.1c-3-3.5-4.4-5.1-5.2-5.6c0,0,0,0,0.1,0c0.8-0.2,1.6,0.8,5.6,5.3c1.8,2,4.2,4.8,7.5,8.5 c2.2,2.5,4.3,5.3,6.4,8.4l0.1,0.1c1.7,2.9,3.7,6.1,5.1,8.8C686.9,521,688.4,524.4,689.2,526.2z M664.2,472.5 c-1.7,0.2-3.6,1.9-5.4,3.5c-1.2,1.1-2.3,2-2.9,2.1c-0.8,0.2-1.7,0-2.2-0.3c0-0.2,0-0.5,0-0.8c0.6,0.2,1.2,0.2,1.8,0.1 c0.5-0.2,1.4-0.9,2.4-1.8c1.8-1.6,4.1-3.6,5.9-3.8c0.1,0,0.2,0,0.2,0h0.1c0.6,0.2,1.2,0.3,1.8,0.3c0.5,0,0.9,0,1.4,0 c0.1,0.1,0.2,0.2,0.2,0.4l0,0c0.1,0.1,0.1,0.3,0.2,0.5C667.2,472.4,666.3,472.4,664.2,472.5z M630.7,455.8c-0.4-0.5-0.6-0.8-0.7-0.9 l-0.2,0.1c0.3,0.4,3,4,4,6.4c0.2,0.4,0.3,0.8,0.5,1.3c0.1,1,0.1,1.7,0,2.3c0,0.3,0,0.5,0,0.7c0,0,0.1,0.2,0.4,0.5 c0,0.2-0.1,0.4-0.1,0.6c-0.1,0.2-0.2,0.3-0.3,0.3c-0.3,0.1-0.6,0.1-1.1-0.1c-1-0.2-2.2-0.8-2.3-0.9l0,0c0.5,0.2,0.9,0.3,1.3,0.4h0.1 v-0.1l0,0c0,0.1,0,0.1,0,0.2v0.1h0.2c0.8,0.1,1.4,0.2,1.5-0.4c0.5-1.4,0.3-3-0.8-5.5c-0.8-1.8-2.4-4.1-3.3-5.5l0,0 c-0.5-0.8-0.7-1-0.8-1c-4.8-5.6-13.5-9.1-19.5-10.4c-5-1-8.1-1.2-9,0.7c-0.1-0.9,0.1-1.6,0.6-2c1.2-1.1,4.2-0.8,8.3,0 c5.8,1.2,14.4,4.6,19.4,10.4l0,0l0,0c0,0,0.2,0.2,0.7,1c1,1.1,2.5,3.2,3.6,5.5C632.4,458,631.4,456.7,630.7,455.8z M601.4,467.3 c3.1,3.8,4.4,6.8,4.8,9.2c-0.8-2.6-2.2-5.3-4.6-8.3c-3.8-4.7-8-6.5-11-7.8l-0.3-0.1c-0.2-0.1-0.4-0.2-0.5-0.2 c-0.5-0.2-1.1-0.4-1.5-0.7c-1.7-0.9-2.7-1.7-3.1-3.7c0.5,1.3,1.4,2.1,2.9,2.9l0,0c0.6,0.3,1.3,0.6,2,0.9 C593.1,460.6,597.6,462.4,601.4,467.3z M555.1,474.3v0.1V474.3c0.2,0.5,0.3,1,0.3,1.6c-0.1,0-0.1,0-0.2,0h-0.1v0.1 c0,1.4-0.5,2.7-1.4,3.8c-1.4,1.6-3.8,1.9-5.9,0.6c0.1-0.1,0.2-0.1,0.2-0.2l0,0h0.1c0.9,0.4,1.8,0.6,2.6,0.6c1.2,0,2.2-0.4,3-1.2 c1.3-1.3,1.6-3.3,1.1-5.2L555.1,474.3z M566,452.5c0,1.3-0.1,3.2-0.6,6c-1.2,6.3-2.1,6.8-6.4,8.8c-1.5,0.8-3.4,2-5.2,4.3v0.1v0.1 c0.6,0.8,1,1.4,1.3,2.4l0,0l0,0l0,0l-0.4,0.2c-0.2-0.8-0.6-1.6-1.1-2.3l-0.1-0.1c0.1-0.1,0.2-0.2,0.2-0.4c2-2.7,4.1-3.8,5.1-4.2 c4.4-2,5.4-2.7,6.6-9C565.9,455.8,566,453.9,566,452.5z M518.7,657.3c0.3-0.3,0.6-0.6,0.5-0.9c-0.1-0.3-0.9-0.8-2.3-1.6 c-1.5-0.9-3.5-2-3.6-2.7c-0.1-0.2,0-0.4,0.1-0.5c0.2-0.2,0.7-0.3,1.3-0.3c0.7,0,1.5,0.1,2.3,0.2c2,0.3,5.3,2.7,5.3,5 c0,1.2-0.4,1.4-1.1,1.8c-0.1,0-0.2,0.1-0.3,0.1l0,0c-1.2,0.9-2,0.9-2.6,0.2c-0.2-0.2-0.3-0.3-0.3-0.5 C518.1,657.8,518.4,657.6,518.7,657.3z M532.8,681.8c0,1-0.4,1.9-1,2.5c-0.6,0.5-1.4,0.7-2.2,0.6c-1.8-0.3-3.2-2.1-3.2-4 c0-1,0.4-1.9,1-2.4s1.3-0.7,2.1-0.6C531.4,678.1,532.8,679.8,532.8,681.8z M648.5,714.3c0-1,0.4-1.9,1-2.5c0.4-0.4,1-0.6,1.6-0.6 c0.2,0,0.3,0,0.5,0l0,0c1.7,0.3,3.1,2,3.1,4c0,1-0.4,1.9-1.1,2.5c-0.6,0.5-1.3,0.7-2,0.5C649.9,718,648.5,716.3,648.5,714.3z M666.5,699.6c0.3-0.1,0.5-0.4,0.6-0.6c-0.1,0.5-0.2,1-0.6,1.5c-0.4,0.4-0.9,0.5-1.6,0.5c-1.3-0.1-1.7-0.5-2-0.9s-0.7-0.8-1.8-1.2 c-0.2-0.1-0.4-0.1-0.6-0.1c-1.2,0-2,1.1-2.4,1.7c0.1-0.7,0.4-1.8,1.2-2.4c0.6-0.5,1.4-0.7,2.3-0.6l0,0c1.5,0.1,1.9,0.4,2.6,1 c0.3,0.2,0.6,0.5,1.1,0.9C665.7,699.6,666.2,699.7,666.5,699.6z"/>
  <path d="M525.6,487.6v-0.1h-0.1c-0.1,0-2.9,0.8-4.1,2.7c-0.1,0.1-0.2,0.2-0.2,0.2l0,0H521l0.2,0.2c0.1,0.1,0.2,0.3,0.2,0.4 s0,0.2,0.1,0.3c1.9,3.2,4.1,5.1,4.1,5.1l0.1,0.1v-0.2c0,0,0.5-3,1.6-4.9v-0.1v-0.1C525.6,489.1,525.6,487.6,525.6,487.6z"/>
  <path d="M526.1,586.6v-0.2l-0.1,0.1c0,0-0.9,0.8-4-0.3h-0.3l0,0c-1.1,1.6-2.5,2.9-2.5,2.9l-0.1,0.1l0.1,0.1c0,0,3,2,5.4,2.5h0.1 v-0.1C526.7,588.7,526.1,586.7,526.1,586.6z"/>
  <path d="M525.6,597c1.1,0,2.3-0.1,3.7-0.4l0,0l0,0c1.4-3.2,1-6,1-6.1v-0.3l-0.1,0.2c0,0-1.7,2.4-4.8,2.2l0,0l0,0 c-0.1,0.1-0.2,0.2-0.3,0.3s-0.1,0.2-0.2,0.3l0,0c-0.8,1-1.3,1.5-2.1,2.3c-0.2,0.3-0.5,0.6-0.8,0.9l-0.1,0.1h0.2 C522,596.6,523.5,597,525.6,597z"/>
  <path d="M525.9,564.7L525.9,564.7c0.7,0.9,1.4,1.5,2.1,2l0,0l0,0c0.1,0,0.1,0,0.1,0.1c0,0,0.1,0.1,0.2,0.1h0.1l0,0 c0.1-0.2,0.2-0.6,0.4-1.4c0.1-0.6,0.3-1.3,0.4-1.7c0.2-0.9,0.3-1.7,0.3-1.7V562h-0.1c0,0-1.4-0.2-2.5-0.5h-0.1v0.1 C526.3,562.6,525.9,564,525.9,564.7L525.9,564.7z"/>
  <path d="M528.2,537.9L528.2,537.9c-0.9,0.1-1.5,0.1-2.2,0c-3.1-0.1-4.3-3-4.3-3l-0.2-0.4v0.5c-0.2,3,1.4,5.4,2.8,7.6 c0.3,0.5,0.7,1,1,1.5c0,0.6,0.4,1,0.6,1.2l0.2,0.2l0.1-0.1c2.9-2.3,4-3.7,4-3.7l0.1-0.1l-0.1-0.1 C530.2,541.5,528.9,540.3,528.2,537.9L528.2,537.9z"/>
  <path d="M527.4,527v0.2c0,0.1,0,5.6,0.9,9.1c0,0.1,0.1,0.2,0.1,0.3c0.1,0.2,0.2,0.4,0.3,0.7v0.1h0.1c2.7-0.1,5.5-0.7,5.5-0.7h0.1 v-0.1c0,0-0.6-1.8-1.4-6l0,0l0,0c-3.1-1.5-5.4-3.4-5.4-3.4L527.4,527z"/>
  <path d="M544.9,519.6c1.9,0.8,6.3,1,6.5,1h0.3l-0.2-0.2c0,0-1.4-1.4-2.3-3.1c-0.5-1-0.6-1.5-0.7-2c-0.1-0.3-0.1-0.7-0.4-1.1v-0.1 H548c-1.4,0-3.2-0.9-3.3-0.9l-0.1-0.1v0.2c0,0,0,3.6-0.2,6v0.1h0.1C544.7,519.6,544.8,519.6,544.9,519.6z"/>
  <path d="M526.1,546.2L526.1,546.2c-3.8,2.2-5.1,2.7-5.2,2.7h-0.1v0.1c0,0.1,0.6,1.6,2.9,3.5c0.3,0.2,0.6,0.4,0.9,0.7l0.1,0.1h0.1 c0.1-0.1,0.2-0.1,0.3-0.2s0.1-0.1,0.2-0.2l0,0c2-2.4,3-4.3,3-4.3v-0.1l-0.1-0.1C528.4,548.4,528.2,548.2,526.1,546.2L526.1,546.2z"/>
  <path d="M533.2,530L533.2,530c3.1,1,5.6,1.2,5.6,1.2h0.1v-0.1c0,0-0.3-1.6-0.5-4.7v-0.1h-0.1c-3-1-4.6-3-4.7-3.1l-0.1-0.2v0.2 C533.5,523.3,532.8,526.4,533.2,530L533.2,530z"/>
  <path d="M539.4,526L539.4,526L539.4,526c2.2,0.7,3.8,0.9,4.8,0.9c0.7,0,1.1-0.1,1.1-0.1h0.1v-0.1c0,0-0.9-2.7-1.2-6.2v-0.3h-0.1 c-1.8-0.8-3.8-1.9-4.5-2.4l-0.1-0.1v0.2c0,0-0.3,3-0.2,6.8C539.4,525.2,539.4,525.7,539.4,526z"/>
  <path d="M519.1,587.3c0.5-0.4,1-0.9,1.6-1.4l0.1-0.1l-0.1-0.1c-1.3-0.7-2.3-1.4-3-1.9c-0.3-0.2-0.6-0.4-0.7-0.5l-0.2-0.1l0.1,0.2 c0.1,0.3,0.2,0.8,0.2,1.1c0.1,0.4,0.1,0.8,0.3,1.2c0.1,0.4,0.2,0.8,0.2,1.2c0.1,0.5,0.2,0.9,0.3,1.3v0.1v0.1h0.2v-0.1 C518.1,588.1,518.6,587.7,519.1,587.3z"/>
  <path d="M519.4,594.5c0.2,0.5,0.5,1.1,0.8,1.7v0.1h0.1c0.4-0.1,2-1.4,3.8-3.9l0.1-0.1H524c-2.1-0.4-4.4-1.3-5.5-1.8 c-0.1-0.1-0.3-0.1-0.4-0.1l-0.2-0.1v0.2C518.4,591.8,518.7,593.2,519.4,594.5z"/>
  <path d="M523.8,553.1L523.8,553.1c-1.6-1.4-3-2.8-3.6-3.4l-0.2-0.2v0.3c0.3,2,0.6,3.7,1.1,5.3v0.1h0.1c0.6-0.1,2-0.6,3.2-1.4 l0.2-0.1l-0.2-0.1C524.1,553.4,523.9,553.3,523.8,553.1z"/>
  <path d="M525.3,564.1l0.1,0.1l0.1-0.2c0.1-0.2,0.2-0.6,0.3-1c0.2-0.6,0.4-1.3,0.7-1.8l0.1-0.1h-0.3c-0.6-0.3-3.2-1.8-3.8-2.3 l-0.3-0.3l0.2,0.4C523.2,560.9,524.2,562.7,525.3,564.1z"/>
  <path d="M520,547.9L520,547.9c0.2,0,0.3,0,0.4,0c1-0.1,3.4-0.3,5.4-1.9l0.1-0.1l-0.1-0.1c-0.1-0.1-0.2-0.2-0.2-0.2 c-0.3-0.3-0.5-0.4-0.5-0.7l0,0l0,0c-2.5-2.6-3.8-7.2-4.1-8.7l-0.1-0.4l-0.1,0.4c-0.7,2.6-1,5.3-1,8.3v1 C519.8,546.3,519.8,546.9,520,547.9L520,547.9z"/>
  <path d="M526.2,537.2L526.2,537.2c0.3,0.1,0.5,0.1,0.8,0.1c0.2,0,0.5,0,0.8,0.1h0.1v-0.1c0-0.2,0-0.3-0.1-0.4s-0.1-0.3-0.1-0.5 c-0.6-3-1.1-8.2-1.2-9.6v-0.2l-0.2,0.1c-1.3,1.2-2.2,2.5-3.2,3.8c-0.2,0.3-0.3,0.6-0.5,0.9c-0.4,0.7-0.7,1.3-0.9,2l0,0l0,0 C521.9,534.2,523.6,536.6,526.2,537.2z"/>
  <path d="M527.4,525.8L527.4,525.8c0.1,0.1,0.2,0.2,0.3,0.3c0.8,0.9,2.7,2.9,5,3.7l0.2,0.1v-0.2c-0.8-3.9-0.4-6.9-0.3-7.2l0.3-0.3 l-0.1-0.1c0,0-0.1,0-0.1,0.1c-0.1,0-0.2,0.1-0.2,0.2C530.5,523.3,528.7,524.5,527.4,525.8L527.4,525.8z"/>
  <path d="M533.3,522c1.3,1.6,3,2.8,4.8,3.6l0.1,0.1v-0.4c-0.2-3.3,0.3-6.1,0.6-6.8l0.1-0.3l-3.6,2.3c-0.4,0.2-0.8,0.4-1.1,0.6 s-0.7,0.4-1.1,0.6l-0.1,0.1l0.1,0.1C533.2,521.9,533.3,521.9,533.3,522z"/>
  <path d="M544,519.3l0.1,0.1v-5.6l-0.2,0.2c-1.3,1.5-2.5,2.5-3.6,3.4l-0.1,0.1l0.1,0.1C540.7,517.7,542.4,518.7,544,519.3z"/>
  <path d="M548.5,513.1L548.5,513.1L548.5,513.1c0.2,0.2,0.4,0.2,0.5,0.2c0.2,0,0.3-0.1,0.3-0.1c1.7-0.6,3.4-2.6,3.5-2.7l0.1-0.1h-0.2 c-0.1,0-2.5-0.6-3.4-0.7c-0.3,0-0.8-0.2-1.2-0.3c-0.5-0.1-1-0.3-1.3-0.3h-0.1v0.4l0,0c0,0,0,0-0.1,0l-0.3-0.2l0.2,0.3 C547.2,510.4,548.5,512.9,548.5,513.1z"/>
  <path d="M547.9,513.5h0.1l-0.1-0.1c-0.2-0.5-1.3-2.5-1.5-2.8V510l-0.2,0.3c-0.2,0.3-0.4,0.7-0.6,1.1c-0.3,0.5-0.5,0.9-0.8,1.3 l-0.1,0.1l0.1,0.1C545.3,513,546.8,513.5,547.9,513.5z"/>
</svg>