<svg viewBox="0 0 1200 1200" xmlns="http://www.w3.org/2000/svg">
  <g>
    <path d="M614.9,456.2c-5-10.1-10-20.2-14.9-30.3c-4.6,8.2-9.2,16.5-13.9,24.7c-9.5-1.8-19.1-3.5-28.6-5.1c4.9,10,9.8,20,14.6,30 c-4.8,8.3-9.7,16.6-14.6,24.9c9.6,1.6,19.1,3.3,28.6,5.1c4.7,10,9.3,20.1,13.9,30.1c4.9-8.2,9.9-16.4,14.9-24.6 c10,1.9,20,3.6,30,5.3c-5.1-10-10.1-20-15.2-30c5.1-8.3,10.2-16.5,15.3-24.8C634.9,459.8,624.9,458.1,614.9,456.2z"/>
    <path d="M716,652.5c-5.2-9.8-10.4-19.6-15.7-29.4c-5.3,8.4-10.5,16.8-15.8,25.3c-10.3-1.4-20.5-2.9-30.7-4.6 c5.1,9.9,10.2,19.9,15.3,29.8c-5.2,8.3-10.4,16.7-15.5,25c10.2,1.6,20.4,3.1,30.7,4.6c5.2,9.8,10.4,19.7,15.6,29.5 c5.3-8.5,10.6-16.9,15.9-25.4c10.5,1.3,20.9,2.5,31.4,3.6c-5.3-9.7-10.5-19.4-15.8-29.1c5.3-8.5,10.7-17.1,16-25.7 C736.9,655,726.4,653.8,716,652.5z"/>
    <path d="M518.3,620.4c-5.2-9.9-10.4-19.8-15.6-29.7c-5.2,8.4-10.5,16.9-15.8,25.3c-10.5-1.4-21.1-2.8-31.6-4 c5.3,9.8,10.7,19.6,16,29.4c-5.3,8.5-10.7,17-16,25.5c10.5,1.2,21.1,2.6,31.6,4c5.3,9.9,10.5,19.7,15.8,29.6 c5.2-8.4,10.4-16.8,15.6-25.2c10.1,1.5,20.2,3.1,30.2,4.7c-5-10-10-19.9-15.1-29.9c5.1-8.3,10.1-16.7,15.1-25 C538.5,623.4,528.4,621.9,518.3,620.4z"/>
    <path d="M1114.2,191.8c0.1-0.1,0.2-0.3,0.4-0.4c-84.8,29.1-170.1,32.7-258.9,28.7c-23.8-1.1-47.5-2.6-71.3-4.6 c-66.7-6.3-126.1-15.9-184.7-25.7c-77.3-15.2-155.9-25.7-234.7-31.1c-0.7,0-1.3-0.1-2-0.1c-3-0.2-6-0.4-8.9-0.6 c-3.3-0.2-6.6-0.4-9.9-0.6c-1.5-0.1-3-0.2-4.5-0.3c-9.3-0.5-18.5-0.9-27.7-1.2c-17-0.6-34.3-0.9-52.3-0.9c-37,0-74.3,4.4-112,13.1 c-20.9,4.3-41.7,10-62.5,17.1c0.5,0.2,1,0.4,1.5,0.7c-28.6,10-57.5,22.3-86.7,37v820c29.6-15,59-27,88-36.4 c-0.2,0.2-0.4,0.4-0.5,0.6c32.8-10.9,66.4-18.4,100.5-23.2c24-3.1,47.9-4.6,71.7-4.6c136.2,0,236.6,16.8,339.2,33.5 c0.4,0.1,0.8,0.1,1.2,0.2c110.8,20.3,229.8,38.4,345.3,32c82.9-0.9,167.3-22.9,254.6-66.9V155 C1171,169.6,1142.5,181.9,1114.2,191.8z M827.8,630c0,23.2-4,46.1-10.6,68.9C929.4,775.2,1040.3,861,1170,904.8v54.5 c-30.7,14.5-61.3,26.2-91.3,35c-42.6-21.6-83.3-47.2-123-73.8c-65.2-43.6-130.2-87.6-194.6-132.5C718,827.2,657.4,845.5,600,834.6 c-60.7-11.5-117.8-47.9-158.8-93.6c-68,33-135.9,67.8-196.5,113.5c-43.3,32.7-82.1,70.6-119,110.3c-0.4,0.1-0.7,0.2-1.1,0.3 C93,972.6,61.3,982.9,30,996v-51.5c48.4-56,96.5-112.6,150.3-163.3c60.9-57.3,130.1-101.1,204-139.7c-6.5-23.4-10.7-46.9-10.7-70.6 c0-23.1,4-46.1,10.7-68.9c-67.9-46.2-135.1-94-204.5-137.9c-47.4-29.9-96.5-54.7-149.8-70.6v-51.9c32.4-15.4,64.5-27.7,95.7-36.8 c41.4,22,80.4,48.3,119,74.7c65.5,44.7,131.7,88.7,196.6,134.3c42.4-38.2,102.4-56.9,158.7-45.6c61.6,12.4,120.4,45.7,162,93.1 c66.9-34.1,133.3-70.7,193.3-115.9c43.6-32.8,82.7-70.5,119.8-110.3c0.4-0.1,0.9-0.2,1.3-0.3c30.5-8.1,61.9-19,93.6-32.7v52.8 c-47.3,56.7-95.2,113-149.2,163.3c-61,56.9-130.4,101.5-203.3,141.5C823.8,583,827.8,606.5,827.8,630z"/>
  </g>
</svg>