<svg viewBox="0 0 1200 1200" xmlns="http://www.w3.org/2000/svg">
  <path d="M1199.9,429.3V155c-89.19,45-174.39,67.9-258.98,67.9c-280.68,0-416.67-67.9-681.24-67.9C175.19,155,89.09,178,0,222.9v820 c88.99-44.9,175.19-63.6,259.68-63.6c141.29,0,244.18,18.2,350.87,35.4c45.7,8,91.59,14.6,137.79,19.6 c57.1,6.4,119.39,10.7,191.58,10.7c84.59,0,170.79-22,259.98-66.9V703.7c0,0,0.1,0,0.1-0.1L1199.9,429.3 C1200,429.2,1199.9,429.2,1199.9,429.3z M1169.9,443.7c-69.59,31.7-140.59,50.9-218.68,52.9c-102.19,2.5-205.18-8.9-305.97-24.6 c8.1,25.5,16.4,50.9,24.8,76.3c79.59,11.4,159.59,19.1,239.98,20.8c-61.99,42.9-127.89,79.3-194.28,114.7 c8.7,25.2,17.4,50.2,26.1,75.3c-0.1,0-0.1,0-0.2,0c16.5,47.5,33.1,94.8,49.7,142c-66.09-48.8-131.09-99-191.38-154.9 c-63.19,35.6-128.09,67.9-191.48,103c16.5-44,33.2-88.2,49.9-132.1c8.7-22.9,17.5-46,26.3-69.1c-63.79-50-129.49-97.4-194.68-145.6 c80.59,2,160.79,10.6,240.58,22.5c8.4-22.8,16.6-45.7,24.8-68.5c-100.89-16.2-204.18-29-306.57-26.5c-77.99,2-149.19,20.4-218.78,52 V241.6c37.1-17.6,73.79-31.2,109.19-40.5c40.7-10.7,81.19-16.1,120.49-16.1c127.89,0,223.68,15.9,325.17,32.8 c103.79,17.2,211.18,35.1,356.07,35.1c44.4,0,89.99-6.1,135.39-18.1c30.5-8.1,61.89-19,93.59-32.7v241.6H1169.9z"/>
</svg>