<svg viewBox="0 0 1200 1200" xmlns="http://www.w3.org/2000/svg">
  <path d="M1108.3,193.9c-66,21.5-134.1,30-207,28.2c-62-1.5-124.1-6.6-185.7-14.5c-40.2-5.3-78.3-11.6-116.1-17.8 c-45.9-8.2-92.1-15.6-138.4-21.4c-41.3-5.4-84.6-9.6-131.7-11.8c-10.2-0.5-20.4-0.9-30.6-1.2c-6.9-0.2-13.8-0.3-20.6-0.3 c-6.1-0.1-12.2-0.1-18.5-0.1c-68.3,0-137.6,15-208.8,44.5c-17,6.8-33.9,14.4-50.9,22.8v820.6c18.8-9.5,37.4-17.8,55.9-25 c57.7-22.2,116.1-34.2,177.7-38c8.7-0.4,17.4-0.6,26.1-0.6c268.9,0,398.5,65.7,680.3,65.7c46.7,0,93.9-6.7,141.8-20.3 c32.3-8.7,63.9-20.4,95.2-35.5c7.7-3.5,15.3-7.2,23-11.1V155C1169,170.6,1138.5,183.6,1108.3,193.9z M1170,663.4 c-85.3,39.5-173.1,54.5-268.7,52.1c-101-2.4-202-14.3-301.3-32.2s-200.2-31.1-301.2-33.8c-96-2.6-182.7,13-268.8,50.9V536.6 c86.1-38,172.8-54.5,268.8-51.8c101,2.8,201.8,16.2,301.2,34.1c99.4,17.8,200.3,29.8,301.3,32.2c95.7,2.3,183.3-12.7,268.7-52.2 V663.4z"/>
</svg>