<svg viewBox="0 0 1200 1200" xmlns="http://www.w3.org/2000/svg">
  <path d="M901.2,222.4c-23.7-0.6-47.4-1.6-71.1-3.2c-98.3-6.6-179.6-21-261.4-34.5c-37.6-6.5-75.4-12.3-113.4-17 c-36.5-4.6-74.6-8.4-115.5-10.6c-13.7-0.8-27.4-1.4-41.1-1.7c-6.6-0.2-13.1-0.3-19.5-0.3s-12.9-0.1-19.5-0.1 c-77.8,0-156.9,19.5-238.5,57.6c-7.1,3.3-14.1,6.7-21.2,10.3v820c27.9-14.1,55.5-25.6,82.9-34.7c58.8-18.8,120.1-27.1,182.3-28.8 c117.8,0.4,209,13.4,298.4,27.8c12.2,2,24.3,4.1,36.3,6.1c39.8,6.8,79.8,12.7,119.9,17.6c45.7,5.8,94.4,10.5,148.6,12.7 c10.9,0.5,21.8,0.9,32.8,1.2c7,0.2,13.9,0.2,20.8,0.2c6,0,12,0,18,0c84.6,0,170.8-22,260-66.9V155 C1104.4,203.1,1008.1,224.9,901.2,222.4z M1170,615.2c-60.2,27.2-122.5,45.9-189.2,51.1c-71.7,5.6-144.7-0.3-216.1-7.4 c-165.6-16.6-327.4-56-494.7-57.1c4.3,23.7,8.7,47.4,13.2,71.2c12.8-17.4,25.8-34.6,39.1-51.6c-5.3,23.3-10.5,46.5-15.7,69.8 c18.6-6.2,37.4-11.8,56.3-17c-14.4,15.9-28.6,32-42.5,48.4c19.3,7,38.5,14.2,57.7,21.6c-19.3,4.3-38.6,8.9-57.7,14.2 c14.1,17.8,28.3,35.6,42.5,53.4c-18.7-7.8-37.5-15.6-56.3-23.1c5.2,23.7,10.4,47.3,15.7,71c-13.2-17.9-26.2-35.9-39.2-53.9 c-4.4,23.7-8.8,47.4-13.2,71.1c-4.3-23.7-8.6-47.4-12.9-71.1c-12.3,18-24.4,36.1-36.2,54.3c4.7-23.7,9.5-47.5,14.2-71.2 c-16.6,7.7-32.9,15.8-49.1,24.4c12-18.3,24.2-36.4,36.7-54.4c-16.2-4.6-32.5-8.9-49-12.5c16.1-8.2,32.4-16,49-23.2 c-12.1-15.8-24.2-31.5-36.3-47.3c16.4,4.8,32.6,10.1,48.7,15.7c-4.7-23.2-9.4-46.4-14-69.6c12,17.1,24,34.1,36,51.2 c4.3-23.8,8.6-47.6,12.9-71.4C185.7,602.5,106,618.5,30,652.5v-68.2c85.1-38,174.5-53.7,268.8-51c101,2.8,201.8,16.4,301.2,34.1 c99.3,17.7,200.3,29.4,301.2,31.8c95.8,2.3,182.9-14.7,268.8-52.8V615.2z"/>
</svg>