<svg viewBox="0 0 1200 1200" xmlns="http://www.w3.org/2000/svg">
  <path d="M1169.9,169.4c-85.69,38.4-172.99,55.4-268.68,53c-61.59-1.5-123.19-6.7-184.38-14.6c-37.4-4.9-72.99-10.7-108.09-16.5 c-2.9-0.5-5.9-1-8.8-1.6c-44-7.8-88.29-14.9-132.79-20.6c-43.3-5.6-88.59-10.2-138.09-12.5c-10.1-0.5-20.2-0.9-30.3-1.2 c-6.6-0.2-13.3-0.3-19.8-0.3c-6.4,0-12.8-0.1-19.3-0.1c-67.19,0-135.29,14.5-205.18,43C36.2,205.4,18,213.7,0,222.9v820 c19-9.6,38-18,56.8-25.3c74.39-28,152.49-38,231.48-38c50.5,0.9,96.19,4.1,139.09,8.6c58.2,6.6,115.99,16.1,172.69,25.4 c40.7,6.7,81.69,12.7,122.79,17.6c44.4,5.6,91.69,10.1,144.09,12.3c11.5,0.5,22.9,0.9,34.4,1.2c7.6,0.2,15.1,0.3,22.6,0.2 c5.3,0,10.7,0.1,16.1,0.1c84.59,0,170.79-22,259.98-66.9V155C1189.9,160.1,1179.9,164.8,1169.9,169.4z M30,754.9V481.8 c54-24.5,109.89-40.8,169.49-48.3c-16.3,45.5-24,92.2-24.6,140.5c0.6,45.9,7.3,91.4,24.8,134.1C139.99,714.8,83.99,730.5,30,754.9z M373.57,739.9v12.3h-0.1c-12.5-0.7-26.9,0.8-36.9,9.1c-15.8,15.1-29.5,32.7-42.6,50c-0.1,0.1-0.1,0.1-0.2,0.2 c-81.89-48.6-111.99-148.9-112.99-238.3c-1.2-111.9,54.9-274.8,192.68-266.9l0.1,58.7c0,0,0.1,0.3,0,0.5 c-12.2,5-24.1,12.6-26.6,26.5c-0.3,2-0.6,22-1,26.9c0,0,2.2,0.5,7.7-4.6c2.4-2.2,9.7-3.4,19.7-9.9c0.1,0,0.1-0.1,0.2-0.1v30.4 c-16.8,1.2-25.1,19.9-25.5,34.4c-0.4,16,9.6,33.7,25.5,38.2v7.5c-16.4-2.4-23.4-14.6-30-28.6c-4.4-10.9-10.6-21.3-16.9-31.2 c3.6,13.7,5.4,27.5,6.6,41.6c0.4,24.3,18.4,34.8,40.3,36.7c1.5,0.1,1.5,0.2,0,0.1v5.5c-11-0.9-22-1.6-32.9-2.4v11 c11,0.7,22,1.5,32.9,2.4v5.4c-12.1,0.2-25.7,8.4-25.5,21c0.2,12.4,13.1,22.9,25.5,24.8l0,0c0,0.1,0,0.1,0,0.2v5.5 c-11-0.9-21.9-1.7-32.9-2.4v11c11,0.7,22,1.5,32.9,2.4v5.6c-19.2-1-37.7,8-39,29c-2,22.9-4.5,45.8-8.6,68.5 c8.8-14.4,14.5-30.6,20.1-46.5c5.8-12.2,12.7-23.3,27.5-25.1v4v0.1l0,0c-15.9,4.7-20.3,27.9-20.3,41.7 C353.27,710.1,358.07,732.8,373.57,739.9C373.67,739.9,373.67,739.9,373.57,739.9z M461.96,827.2 C461.86,827.2,461.86,827.1,461.96,827.2c-14.6-20.3-29.2-40.6-45.7-59.2c-8.8-8.9-21.4-13.1-33.6-14.8v-12.3c0-0.1,0-0.1,0-0.2l0,0 c16.1-5.3,20.6-26.7,20.6-41.4c0-16-5-37.2-20.6-45.2v-4c13.4,4.1,24.2,16.4,28,29.8c5.9,17,11.9,34.3,21.1,49.9 c-4.3-23.1-7-46.5-9.1-69.9c-1.5-21.4-20.3-33.1-40-35.6l0,0v-0.1v-5.7c11.2,1,22.4,2.1,33.7,3.2v-11c-11.2-1.1-22.4-2.2-33.7-3.2 V602c12-0.1,26.2-7.8,26-20.5c-0.2-13.1-13.4-22.5-26-25.4v-5.4c11.2,1,22.4,2.1,33.7,3.2v-11c-11.2-1.1-22.4-2.2-33.7-3.2v-5.5l0,0 l0,0c21.1,1.7,41-5.2,41.4-29.9c1.2-13.7,3.1-27.3,6.9-40.5c-6.7,8.9-12.9,18.3-17.7,28.4c-7,13.3-14.1,24-30.6,23.5v-7.6 c15.9-2.4,26.4-18.5,26-33.9c-0.4-15.3-9.5-34.6-26-38.7V397c12.7-11.9,21.2-26.4,29.2-41.6c5.5-11.5,2.9-16.9,2.9-16.9 s0.3,0.8-3.8,4.7c-9,7.2-17.7,13.5-28.3,18.1c-0.1-0.1,0-0.4,0-0.4v-53.8c138.69,14.4,211.58,170.3,210.58,293.5 C592.55,692.7,555.95,792.8,461.96,827.2z M1169.9,717.9c-80.69,36.9-163.19,54-253.58,53c-115.49-1.3-229.98-17.6-343.67-36.3 c0,0.1-0.1,0.1-0.1,0.2c0-0.1,0.1-0.2,0.1-0.3c19.8-41.4,27.2-88.1,27.2-132.8c0-48.4-9.3-96.2-27.1-142.1l0,0l0,0 c113.69,19.2,228.08,35.8,343.57,37.2c90.19,1.1,172.89-16.5,253.58-53.1V717.9z"/>
</svg>