<svg viewBox="0 0 1200 1200" xmlns="http://www.w3.org/2000/svg">
  <path d="M1200,567.1V155.2c-0.1,0-0.1,0.1-0.2,0.1V155c-3.7,1.9-7.4,3.7-11.1,5.5c-92.78,42.6-184.37,63.4-287.45,60.5 c-101.08-3-201.67-16.6-301.35-31.8c-16.7-2.5-33.29-5.1-49.99-7.6c-77.09-12.5-155.77-23.6-250.76-26.1c-0.2,0-0.4,0-0.6,0 c-0.3,0-0.6,0-0.8,0c-1.2,0-2.5-0.1-3.7-0.1c-2.3-0.1-4.7-0.1-7-0.1c-9-0.2-18.1-0.3-27.4-0.3c-60.69,0-122.28,11.9-185.17,35.2 C49.39,199.1,24.6,209.6,0,221.8v821.1c25-12.6,49.79-23.2,74.39-31.8c56.49-19.4,114.28-29.4,174.67-31.7c3.5-0.1,7.1-0.1,10.6-0.1 c135.28,0,235.26,16.6,337.14,33.2c1,0.2,2,0.4,3.1,0.5c56.79,10,114.18,18.1,171.67,23.7c22.8,2.3,46.49,4.2,71.29,5.6 c2.3,0.1,4.5,0.2,6.8,0.4c1.4,0.1,2.8,0.1,4.2,0.2c15.7,0.8,31.49,1.4,47.19,1.8c7,0.2,13.9,0.2,20.8,0.2c5.9,0.1,11.9,0.1,18,0.1 c49.79,0,100.08-7.6,151.27-23.1c36.89-10.5,73.09-24.7,108.68-43.1V703.9h0.1v-68.6h-0.1v-68.2 C1199.9,567.2,1199.9,567.1,1200,567.1z M573.5,566.6c-7.4-7.1-14.8-14.1-22.2-21c-9,5.7-13.5,8.5-22.7,14.2 c2.9-9.1,5.8-18.1,8.8-27.2c-7.6-7-15.3-14-23-20.9c9.4,1.3,18.8,2.7,28.2,4.1c2.9-9.1,5.8-18.1,8.7-27.2c2.9,9.9,5.8,19.9,8.7,29.9 c11,1.7,16.5,2.6,27.2,4.3c-8.6,5.6-13,8.5-21.8,14.1C568.01,546.7,570.8,556.6,573.5,566.6z M458.02,510.7 c-7.9-6.8-15.8-13.6-23.8-20.3c-7.9,5-15.8,10-23.6,15c3-9.2,6-18.4,9.1-27.6c-7.9-6.7-15.7-13.3-23.6-19.9c9.8,0.9,19.5,1.9,29.2,3 c3-9.2,6-18.3,9.1-27.5c3.1,9.9,6.2,19.7,9.2,29.6c9.8,1.1,19.6,2.3,29.3,3.6c-9.4,5.8-14.1,8.7-23.6,14.6 C452.32,491,455.22,500.9,458.02,510.7z M340.64,539.1c-7.5-6.3-15-12.5-22.5-18.8c-8.9,6.6-13.3,10-21.9,16.8 c2.8-9.4,5.6-18.9,8.4-28.3c-7.2-6-14.4-12.1-21.5-18.1c10.5,0.2,15.9,0.3,26.8,0.7c2.8-9.4,5.7-18.8,8.5-28.2 c2.9,9.7,5.8,19.3,8.6,29c9.4,0.5,18.8,1.1,28.2,1.8c-9.2,6.4-13.8,9.6-22.8,16.1C335.14,519.7,337.84,529.4,340.64,539.1z M341.14,872.4c-7.6-6.2-15.1-12.5-22.7-18.8c-8.9,6.6-13.4,10-22,16.8c2.8-9.4,5.6-18.9,8.4-28.3c-7.2-6-14.4-12-21.6-18.1 c10.5,0.1,15.9,0.3,26.9,0.7c2.7-9.4,5.4-18.8,8.1-28.2c2.9,9.7,5.8,19.3,8.7,29c9.5,0.5,18.9,1,28.3,1.7 c-7.7,5.3-15.4,10.7-22.9,16.1C335.24,853,338.24,862.7,341.14,872.4z M459.32,922.5c-7.9-6.8-15.9-13.6-23.9-20.3 c-8,5-15.9,10-23.8,15.1c3-9.2,6.1-18.4,9.1-27.6c-7.9-6.6-15.9-13.3-23.8-19.9c9.8,0.9,19.7,1.9,29.5,2.9 c2.8-9.2,5.7-18.4,8.6-27.6c3.1,9.9,6.2,19.7,9.3,29.6c9.8,1.1,19.6,2.3,29.4,3.5c-9.4,5.8-14.2,8.8-23.7,14.7 C453.12,902.8,456.22,912.6,459.32,922.5z M573.9,899.7c-7.2-7.1-14.6-14.1-22-21.1c-8.9,5.6-13.4,8.4-22.5,14.1 c2.9-9.1,5.8-18.1,8.7-27.2c-7.6-7-15.2-14-22.9-20.9c9.3,1.3,18.7,2.7,28,4.2c3-9.1,5.8-18.2,8.5-27.3c2.9,10,5.8,19.9,8.6,29.9 c10.9,1.7,16.3,2.6,26.7,4.4c-8.4,5.6-12.7,8.4-21.5,14C568.31,879.8,571.1,889.7,573.9,899.7z M1169.81,787.1 c-85.59,37.9-173.57,54-268.76,51.7c-100.88-2.6-201.67-14.9-301.15-31.8s-200.17-30.9-301.25-33.8 C203.77,770.5,115.68,785.6,30,823v-68.5c69.89-30.7,141.48-47.5,219.16-50.3c1.3-4.8,1.9-7.1,3.2-11.9c1.3,4.7,1.9,7,3.2,11.7 c120.48-1.1,240.56,16.6,359.14,36.6c1.3-4.5,2-6.8,3.4-11.3c1.4,4.9,2,7.4,3.4,12.4c105.08,16.7,212.36,29.9,318.95,28.4 c80.89-1.1,156.57-19.5,229.36-51.9V787.1z M1169.81,649.5c-70.39,31.2-143.28,49.8-221.36,51.8C845.06,704,740.58,691,638.59,675.7 c0.3,2,0.6,2.8,1.1,4.5c-2-2-3-2.9-5-4.9c-11-1.7-21.9-3.5-32.89-5.3c-1.9,1.3-2.8,2-4.7,3.3c0.4-1.6,0.6-2.4,1-4 c-107.68-18-216.76-32.9-326.15-33.9c0.4,1.6,0.6,2.5,0.9,4.1c-1.9-1.7-2.8-2.5-4.7-4.1c-10.4,0-20.8,0.2-31.19,0.7 c-1.8,1.7-2.7,2.6-4.5,4.3c0.4-1.7,0.7-2.5,1.1-4.2c-71.99,4.3-138.68,21.4-203.57,50v-68c70.69-31.1,143.28-48.3,221.86-50.9 c0.2-0.8,0.3-1.2,0.5-1.9c0.2,0.8,0.3,1.1,0.5,1.9c122.28-1.8,244.16,17.2,364.54,36.9c0.2-0.7,0.3-1.1,0.5-1.8 c0.2,0.8,0.3,1.2,0.5,2c105.58,16.6,213.46,30.4,320.65,29c81.59-1.1,157.37-19.6,230.76-52v68.1H1169.81z"/>
</svg>