<svg viewBox="0 0 1200 1200" xmlns="http://www.w3.org/2000/svg">
  <path d="M1115.89,191.29c-32.8,11.6-65.21,20.1-97.41,25.29c-38.8,5.7-78.01,6.7-117.31,5.7c-35-0.8-70.11-2.8-105.11-5.7 c-71.51-6.3-134.51-16.5-196.52-26.79c-99.21-18.4-200.02-31.69-301.03-34.39c-6.3-0.2-12.6-0.3-18.8-0.3c-6.5,0.1-13.2,0-20,0 c-55.6,0-112.01,10-169.41,29.59c-30.4,10-60.3,22.7-90.3,38.19v819.92c7.9-4,15.8-7.7,23.6-11.3c0.8-0.4,1.7-0.8,2.5-1.2 c0.5-0.2,1.1-0.5,1.6-0.7c75.11-33.19,150.61-48.49,232.22-50.39c54,0,102.51,2.7,147.61,6.9c0.8,0.1,1.6,0.2,2.4,0.2 c2,0.2,4,0.4,6,0.6c1.5,0.2,3.1,0.3,4.6,0.5c66.21,6.8,125.71,16.8,186.22,26.59c33.2,5.7,66.61,10.8,100.11,15.1 c68.51,9.1,143.01,15.9,233.12,15.9c24,0,48.1-1.8,72.41-5.3c9.2-1.2,18.4-2.7,27.5-4.5c21.4-4.2,42.4-9.9,62.91-16.8 c32-10.4,64.41-23.79,97.21-40.29V155C1172.5,168.3,1144.6,180.89,1115.89,191.29z M1170.1,717.37 c-57.1,25.19-115.81,44.59-178.61,50.59c-66.21,6.3-133.61,1.7-199.72-4c-158.61-13.9-313.83-50.89-473.24-58.49 c63.01-43.19,129.41-80.58,195.92-118.07c-63.81-54.09-130.01-105.28-196.02-156.66c159.51,7.6,314.33,45.29,473.04,59.29 c66.21,5.9,133.81,10.4,200.12,4.1c62.81-6,121.51-25.49,178.51-50.89V717.37z"/>
</svg>