<svg viewBox="0 0 1200 1200" xmlns="http://www.w3.org/2000/svg">
  <path d="M1120.51,189.5c-66.59,23-135.48,32.2-205.07,33.2c-238.66-3.5-372.34-56.09-585.6-66.09c-18.8-1-37.49-1.6-56.29-1.6 c-2.1,0-4.3,0-6.4,0c-2.5,0-5,0-7.5,0C175.17,155,89.09,178,0,222.89v819.91c45.69-23.1,90.68-39.2,135.08-49.49 c32.29-7.1,64.99-11.4,98.08-13.5c8.9-0.4,17.7-0.6,26.6-0.6c91.18,0,166.37,7.6,236.86,17.6c24.3,3.5,48.39,7.3,72.39,11.1 c101.18,16.3,200.97,34,335.64,36.7c3.1,0.1,6.2,0.1,9.4,0.2l0,0c2.3,0,4.6,0.1,6.9,0.1c0.5,0,0.9,0,1.4,0 c5.8,0.1,11.7,0.1,17.7,0.1c67.69,0,136.38-14.1,206.77-42.7c17.8-7.1,35.59-15,53.19-23.7v-0.5l0,0V155 C1173,168.5,1146.71,180,1120.51,189.5z M313.65,238.39c16,0.7,31.99,1.7,47.99,3c-13.2,10.6-26.2,21.4-39.09,32.4 c4.9,19.2,9.8,38.5,14.8,57.69c-12.7-12.3-25.4-24.5-37.99-36.9c-12.3,11.2-24.3,22.9-35.99,34.8c4.4-19,8.9-37.9,13.5-56.89 c-11.6-11.5-23.2-23.1-34.79-34.7c14.3-0.3,28.7-0.4,43.09-0.3c4.2-17.3,8.6-34.7,13-51.99c0.8,0,1.5,0,2.3,0.1 C304.75,203.19,309.15,220.79,313.65,238.39z M337.14,610.45c-12.7-12.2-25.3-24.5-37.99-36.8c-12.3,11.2-24.3,22.8-35.99,34.6 c4.4-19,8.9-37.9,13.5-56.89c-11.6-11.5-23.1-23.1-34.59-34.8c14.4-0.4,28.7-0.5,42.99-0.3c4.6-18.8,9.3-37.7,14.1-56.49 c4.7,19.1,9.5,38.3,14.3,57.39c16,0.7,31.89,1.7,47.79,3c-13.2,10.7-26.2,21.6-38.99,32.7 C327.35,571.95,332.24,591.15,337.14,610.45z M217.56,470.76c-10.6-10.7-21.2-21.3-31.79-31.9c-10.5,13.2-20.7,26.7-30.79,40.2 c3.9-19.6,7.7-39.3,11.7-58.89c-10.1-9.8-20.2-19.5-30.49-29c12.5-3,25-5.5,37.69-7.5c3.9-19.5,7.9-39,11.9-58.49 c4,18.4,8,36.9,12.1,55.29c13.3-1.5,26.7-2.5,40.09-3.1c-11.2,12.2-22,24.8-32.59,37.5C209.37,433.37,213.46,452.07,217.56,470.76z M113.98,627.65c-9.9-8.6-20.1-17-30.49-25.1c-10.4,15.6-20.8,31.2-31.09,46.89c4-20.5,8-40.9,12-61.39 c-10.4-7.5-21-14.6-31.89-21.4c12.9-5.8,25.9-11.5,39.19-16.5c3.9-20.3,7.8-40.6,11.7-60.89c4,17.5,7.9,35,11.8,52.49 c12.4-4.1,24.9-7.7,37.49-10.8c-10.2,14.4-20.2,28.9-30.19,43.5C106.38,592.15,110.18,609.95,113.98,627.65z M94.68,264.29 c12.4-4.2,24.9-7.9,37.59-11.1c-10.3,14.4-20.4,28.9-30.29,43.6c3.9,17.7,7.8,35.4,11.7,53.09c-10-8.5-20.2-16.8-30.59-24.8 c-10.4,15.8-20.7,31.6-30.99,47.39c4-20.5,8-41.1,11.9-61.59c-10.3-7.4-20.9-14.6-31.69-21.3c12.9-5.9,25.8-11.6,38.99-16.8 c3.4-17.7,6.8-35.4,10.2-53.09c1-0.4,2.1-0.8,3.1-1.2C87.89,233.79,91.28,248.99,94.68,264.29z M921.25,475.56 c-91.08,60.69-192.67,102.99-290.35,151.48c-95.78,47.59-194.67,90.49-288.15,142.58C247.17,822.81,168.78,893.21,96.09,972.5 c-22.1,6.4-44.19,14.2-66.09,23.4v-30.3c74.49-88.49,151.77-175.38,248.56-239.87c90.88-60.59,192.77-101.69,290.35-149.78 c96.08-47.39,194.77-91.39,288.15-143.88c96.48-54.19,177.07-125.29,250.16-206.38c20.6-6.6,41.49-14.5,62.59-23.6v32.2 C1097.22,324.68,1018.23,410.97,921.25,475.56z"/>
</svg>