<svg viewBox="0 0 1200 1200" xmlns="http://www.w3.org/2000/svg">
  <path d="M1134.89,184.24c-67.41,25.7-136.11,38.1-210.22,38.6c-32-0.3-62.11-1.5-90.71-3.3c-21.6-1.4-43.2-3.3-64.71-5.5 c-0.8-0.1-1.5-0.2-2.3-0.2c-1.2-0.1-2.3-0.2-3.5-0.4c-58.4-6.3-111.61-14.9-164.01-23.6c-45.9-8.2-92.11-15.6-138.41-21.4 c-41.3-5.4-84.61-9.6-131.71-11.8c-10.2-0.5-20.4-0.9-30.6-1.2c-12-0.4-24.1-0.5-36.2-0.4c-0.9,0-1.8,0-2.8,0 c-13.3,0-26.7,0.6-40.1,1.7c-21.7,1.6-43.3,4.3-64.61,8.7c-41.1,8.5-80.21,23.1-118.41,40.2c-12.1,5.4-24.3,11.1-36.6,17.3V1043 c2.8-1.4,5.7-2.8,8.5-4.2c0.8-0.4,1.6-0.8,2.4-1.2c86.51-41.6,175.31-58.5,270.82-58.1c16.9,0.2,33.2,0.7,49,1.4 c37.9,1.8,75.61,4.9,113.31,9.2c53.4,6.2,102.91,14.3,152.81,22.4c1,0.2,2.1,0.4,3.1,0.5c56.5,10,113.51,18.1,170.71,23.6 c28,2.8,57.3,5,88.51,6.5c14,0.7,28,1.2,42,1.6c7.2,0.2,14.4,0.2,21.5,0.2c5.7,0.1,11.4,0.1,17.3,0.1c56.6,0,114.01-9.9,172.41-29.8 c29.6-9.8,58.7-22,87.61-37.1V155.04l0,0C1178.2,166.14,1156.4,175.84,1134.89,184.24z M780.67,686.57 c-26.6-10.3-53.1-20.9-79.31-32c-15.8,17.8-31.6,35.8-47.2,53.8v-74.81c-7.9-3.6-11.8-5.5-19.5-9.1l0,0c-17.3-8.6-34.5-17.4-51.6-26 c17.2-2.6,34.4-5.3,51.6-8l0,0c7.7-1.2,11.6-1.8,19.5-3v-74.81c15.5,22.6,31.2,44.9,47.2,67.2c26.5-4.4,52.9-9.1,79.31-14.2 c-16.4,18.5-32.8,36.8-49.2,55.2C747.76,642.87,764.16,664.77,780.67,686.57z M463.44,745.58c45.3,4.9,94.81-1.8,129.91-34.5 c-42.4,59.3-119.21,74.91-187.52,69.41c-114.01-9.2-206.82-91.51-206.62-210.02c0.2-116.41,86.11-213.82,207.22-202.01 c77.01,7.5,149.61,54.1,187.62,122.01c-31.2-41.2-78.81-68.1-130.01-74.41c-94.01-11.6-178.71,54.1-178.71,151.31 C285.32,665.77,372.33,735.78,463.44,745.58z"/>
</svg>