<svg viewBox="0 0 1200 1200" xmlns="http://www.w3.org/2000/svg">
  <g>
    <path d="M139.93,415C140.04,414.9,139.93,415,139.93,415L139.93,415z"/>
    <path d="M988.75,220.5l0.1-0.1c-15.2,1.2-30.41,2.1-45.51,2.5c-0.7,0-1.4,0-2.1,0c-58.61,0-111.03-3-159.54-7.7 c-99.42-10.9-198.15-30.4-297.17-43.6c-26.31-3.7-53.31-7-81.42-9.7c-48.11-5-96.72-8.2-144.94-6.8 c-43.11,0.1-86.62,6.3-130.73,18.2C83.52,184.8,41.01,201.7,0,222.9v820c44.01-22.2,87.42-38,130.23-48.3c1.2-0.3,2.4-0.6,3.5-0.8 c0.8-0.2,1.6-0.4,2.4-0.6c6.5-1.5,13-2.8,19.6-4.1c0,0,0,0,0.1,0c18.4-3.5,36.71-6,54.91-7.6c-0.2,0.1-0.3,0.2-0.5,0.4 c17.1-1.4,34.21-2.2,51.21-2.5c49.41,0.1,94.02,2.3,135.83,6c87.12,8.5,173.84,24.2,260.57,36.8c51.51,7.8,105.33,14.8,165.94,19 c38.41,3,76.92,4.7,115.23,3.9c0.3,0,0.6,0,1,0c31.81,0,63.82-3.1,96.12-9.4c57.01-10.8,111.33-30.7,163.84-57.5l0,0l0,0V155 C1127.78,191.6,1057.86,213.6,988.75,220.5z M158.74,447.9L158.74,447.9L158.74,447.9c0-0.1-0.1-0.1-0.2-0.1L158.74,447.9 L158.74,447.9c-17.9,7.1-35.51,14.8-52.91,23.2c11.2-18.8,22.51-37.6,34.11-56.2c-16.4-3.2-32.91-5.6-49.51-7.4 c16.2-12.2,32.61-24,49.61-35.1c-1.6,7.2-2.4,14.3-2.4,21.7c0,7.4,0.8,14.3,2.4,20.7c3,12.4,9.3,24,18.7,32.8 c0.1,0.1,0.1,0.1,0.2,0.2c9.1,8.5,20.81,13.9,33.11,16c6.3,1,12.7,1.2,19.6,0.6c6.9-0.7,13.5-2.1,19.9-4.3 c13.1-4.7,25.31-12.3,34.91-22.3c3.5,20.2,6.9,40.4,10.3,60.6c-15-12.8-30.11-25.6-45.41-38.1c-6.7,19.7-13.3,39.5-19.9,59.2 l-19.5-55.5c-14.5,15.2-28.71,30.6-42.61,46.4C152.44,489.6,155.54,468.9,158.74,447.9L158.74,447.9 C158.74,448,158.74,448,158.74,447.9z M327.98,312.2c-13.7,15.1-27.21,30.4-40.31,45.9c-3.8-13.7-11-26.6-20.91-36.8 c-0.1-0.1-0.1-0.1-0.1-0.1l-0.2-0.2c-9.5-9.8-21.71-17-35.11-20.1l0,0c14.8-13.9,29.91-27.4,45.41-40.5 c-3.4,20.2-6.8,40.5-10.2,60.7C286.97,317.3,307.48,314.7,327.98,312.2z M140.04,372.3C140.04,372.3,140.04,372.4,140.04,372.3 c-11.2-12.7-22.41-25.5-33.81-38.2c17.6-1.5,35.11-2.4,52.71-2.6c0,0,0,0.1-0.1,0.1C149.54,344,144.24,357.6,140.04,372.3z M211.55,313.5c36.51-4.1,65.22,31.8,65.22,65.9c0,35.7-29.71,68.3-65.32,71.4c-34.71,3-62.12-25.2-61.92-59.2 C149.74,357.3,175.14,317.6,211.55,313.5z M211.55,299.7c-6.8,0.7-13.4,2.4-19.5,5c-13.2,5.7-24.41,15.2-33.01,26.6 c-0.1,0.1-0.1,0.2-0.1,0.2c-3-19.6-6.1-39.2-9.1-58.8c14.2,10.5,28.31,21.1,42.21,32c6.5-20,13-40,19.5-59.9 c6.6,18.7,13.2,37.4,19.8,56.1C224.96,299.5,218.35,299.1,211.55,299.7z M266.67,437.6L266.67,437.6L266.67,437.6L266.67,437.6 L266.67,437.6c-0.1,0-0.1,0,0.1-0.1c9.9-10.3,17.2-22.8,20.91-36.6c13.4,16.3,26.91,32.5,40.31,48.7 C307.68,445.3,287.17,441.1,266.67,437.6z M287.67,400.8c1.8-6.8,2.8-13.8,2.8-21.2s-1-14.6-2.8-21.3c0,0,0,0,0-0.1 c20.01,7.8,39.91,15.7,59.91,23.8C327.38,387.8,307.58,393.9,287.67,400.8z M30.01,839.4C88.22,765,154.04,696.7,228.96,638.9 c73.82-56.9,156.64-99.5,240.46-139.4c80.42-38.3,160.54-77.2,240.96-115.5c81.62-38.8,162.44-78.9,235.86-131.1 c17.7-0.2,35.71-1.3,53.71-3.4C925.13,312,842.01,359.6,753.49,402.8c-83.62,40.7-167.24,81.3-251.26,120.9 C414.8,564.9,326.88,606.8,248.46,664C165.44,724.4,93.22,798,30.01,878.8V839.4z M1170.29,356.8 c-60.11,74.5-123.83,146.6-199.35,205.7c-73.42,57.5-157.14,99.6-240.86,140c-80.22,38.7-160.04,78.3-240.46,116.4 c-81.72,38.7-161.54,79-235.46,130.4c-18.6,0.2-37.21,1.2-55.61,3.2c76.02-61.4,159.04-109.7,247.86-152.7 c83.62-40.4,167.04-81.2,250.86-121.2c87.42-41.7,176.04-83.5,254.46-141c83.92-61.6,153.44-139.6,218.55-220.4v39.6H1170.29z"/>
  </g>
</svg>