<svg viewBox="0 0 1200 1200" xmlns="http://www.w3.org/2000/svg">
  <g>
    <path d="M189.6,228.6L189.6,228.6L189.6,228.6c-50.3,7-97.7,20.8-144.4,40.8c0.7,227.5,1.4,455,2.1,682.5 c46.4-19.2,93.4-31.7,143.3-37.5c0-0.1,0.1-0.2,0.1-0.3c0,0.1,0,0.1,0,0.2c54.8-5.1,109.8-3.8,164.7-0.6 c0.1-228.9,0.1-457.9,0.2-686.8C300.1,223.5,244.9,222.1,189.6,228.6z"/>
    <path d="M793.5,444.5c0.6,0.1,1.3,0.1,1.9,0c1.7-0.2,6.7-0.7,11-0.9c9-0.4,18.3-3.5,24.1-8.1c4.2-3.2,4.9-4.8,3-4.2 c-0.3-0.5-2.5,0.3-6.1,2.8c-6.6,5.2-17.1,7.8-25.7,7.2c-0.4,0-0.8-0.1-1.1-0.1c-0.1,0-0.3,0-0.4,0c-0.2,0-0.5,0-0.7-0.1 c-9.7-0.5-11.5-0.2-9.3,2.5C790.6,444.3,792,444.6,793.5,444.5z"/>
    <path d="M412.6,231.6c-0.2,228.9-0.3,457.7-0.4,686.6c244.6,23.8,513.1,115.2,750.5,10.1c-1.5-228.1-3.1-456.2-4.6-684.3 C921,347.9,656.6,256.2,412.6,231.6z M597.6,370.3c4.6-11.3,11.1-22.1,20.7-29.9c0.5-0.4,1-0.8,1.5-1.1c7.2-5.3,7.7-5.3,4.9,1.1 c-7.2,19-7.5,41.4-9,61.4c-3,40.1-4.1,80.4-4.7,120.7c-0.2,18.7,4.2,46-3.2,64c-2.9,4.4-3.1,8.6-0.4,12c1.2,1.6,1.5,3.1,0.8,3.9 c0,0-0.1,0-0.1,0.1c-3.1,3-21.4,0.3-24.1-3.5c-0.4-0.4,0-3.2,0.9-6.1c1.3-4.4,1.2-6-0.7-10.7c-6.1-17.8-2.3-41.4-2.2-59.7 C582.1,473.2,578.6,417,597.6,370.3z M488.4,830.6c-0.1,0.4-0.1,0.8-0.2,1.1c-0.7,3.5-1.5,7.4-2.4,11.4c-1.5,6.4-3,13-3.8,18.7 c0,0,0,0,0,0.1c-0.1,2.1-0.2,4.3-0.3,6.5c-0.7,16.8-1.6,46.1-25.6,44.3c-6.3-0.1-9.4-2.4-12.4-4.5c-1.8-1.3-3.5-2.5-5.8-3.2 c-3-0.8-9-1.7-11.6-2c0-0.2,0-0.4,0-0.7c0.2-3,0.3-4.8,0.5-7.8c0-0.2,0-0.4,0.1-0.6c0-0.1,0-0.1,0-0.2c0-0.1,0-0.1,0-0.1 c0-0.7-0.4-1.6-1.3-3.6c-2.6-5.6-5.2-12.7-5.3-19.5c0-5.2,1.4-10.2,5.3-14.2c6.2-6.3,17.5-9.1,25.9-10.1c8.9-1.6,18-3.4,24.1-8.1 c5.8-4.5,11.1-13.7,14-19.6C489.4,822.1,489,826.7,488.4,830.6z M476.1,326c-6.3-6.3-15.9-10.9-24.1-13.9c-1.4-0.5-2.8-1-4.3-1.6 c-3.2-1.3-6.5-2.8-9.7-4.6c-4.6-2.6-8.9-5.9-11.8-9.6c-7.8-10.8-5.6-22.9,0-34c1-1.8,1.3-2.5,1.3-3.3c-0.3-3.8-0.4-5.7-0.6-9.5 c2.1,0.2,5.9,0.4,9,0.4c1,0,2,0,2.7-0.1c2.2-0.2,4-1.1,5.8-2c2.2-1,4.5-2.2,8.1-2.2c1.2,0,2.6,0.2,4.1,0.5 c23.5,4.1,24.8,31.6,25.5,50.5c0.1,2.2,0.2,4.4,0.3,6.6c0,0.1,0,0.1,0,0.1c0.8,5.9,2.3,12.9,3.7,19.7c0.9,4.2,1.7,8.3,2.4,12 c0.8,4.2,1.2,9.5,1.5,13.7C486.9,342,481.8,331.8,476.1,326z M572.3,579.4c0.4-0.1,0.8-0.3,1.2-0.4c2.9-0.4,5.4,0,7.1,1.3 c1.6,1.1,2.6,2.9,3.2,5.2c0.4,1.9,0.4,4-0.1,5.7c0,0.1,0,0.2-0.1,0.2c0,0.1-0.1,0.2-0.1,0.3c-0.4,1.4-1.1,2.3-1.9,2.1 c-0.1-0.1-0.2-0.1-0.3-0.1l0,0c-1.2,0-1.2,1.7-0.5,3.6c0.1,0.3,0.2,0.5,0.4,0.8c0,0.1,0.1,0.1,0.1,0.2v0.1c0.2,0.3,0.3,0.6,0.5,0.9 c0.4,0.6,0.9,1.2,1.4,1.7c6.8,4.8,25.1,8.1,27.1,0.8c0-0.1,0.1-0.3,0.1-0.5c0-0.9-0.7-2.2-1.3-2.3c-1.4-0.3-2.2-3.5-2.2-6.5 c0-1.4,0.2-2.7,0.7-3.7c0.9-2.1,2.2-3.2,3.7-3.4c1.6-0.3,3.6,0.2,6.2,1.8c12.8,7,9.7,25.6-1.8,31.6c-0.3,0.1-0.7,0.2-1,0.4 c-13.1,4.3-30.3-1.4-40.9-8.9C565.2,603.7,559.1,584.4,572.3,579.4z M599.2,665.2c-0.9-0.4-1.8-0.9-2.8-1.6 c-0.1-0.1-0.2-0.2-0.4-0.2c-1.7-1.2-4.9-2.7-7.2-3.6c-0.8-0.3-1.5-0.6-2.2-1c-0.1,0-0.1-0.1-0.2-0.1c-0.2-0.1-0.4-0.3-0.6-0.4 c-4.1-2.8-5.4-7.4-2.1-10.3c0,0,0.1-0.1,0.2-0.1l0,0c0.2-0.1,0.6-0.2,0.9-0.3c0.1,0,0.2,0,0.3,0c3.4-0.2,10.7,3.2,16.8,8.3 c0.2,0.2,0.4,0.3,0.6,0.5c3,2.5,4,4.3,3.7,6.6C605.9,666.1,602.8,666.8,599.2,665.2z M606,676.5c0,0.5-0.1,0.9-0.3,1.2 c-0.1,0.3-0.3,0.5-0.5,0.8c-2.4,2.1-9.1,0.6-15.1-4.1c-4.6-3.5-5.6-5.1-5.6-8.8c0-1.8,0-2.8,0.4-3.4c0-0.1,0.1-0.1,0.1-0.1l0.1-0.1 c0.1-0.1,0.2-0.1,0.3-0.1c0.9-0.3,2.6,0.3,5.7,1.3c4.4,1.5,8.3,4,11,6.6c0.1,0.1,0.1,0.1,0.2,0.2c1,1.1,1.9,2.1,2.5,3.1 c0.3,0.5,0.6,1,0.8,1.5c0,0,0,0.1,0.1,0.1l0,0C605.9,675.2,606,676,606,676.5z M597,650.4c-2.2-1.4-6.5-3.4-9.8-4.7 c-4.4-1.7-6.4-3.4-7.5-6.6c-0.2-0.5-0.3-1-0.5-1.5c-0.9-3.1-0.7-5.1,0.4-6l0.1-0.1c0.1,0,0.1-0.1,0.2-0.1c0,0,0.1,0,0.2-0.1 c0.6-0.3,1.5-0.4,2.5-0.2c1.3,0.2,3,0.8,4.9,1.9c1.1,0.6,2.4,1.4,3.7,2.3c5.1,3.4,8.3,5.7,10.6,7.5c1,0.8,1.8,1.4,2.4,2.1 c1.9,1.8,2.2,3.1,2,4.8C605.9,653.6,602.7,653.9,597,650.4z M606.3,636c-0.2,2.1-0.9,3.1-2.6,3.1c-0.2,0-0.5,0-0.7-0.1 c-0.1,0-0.3,0-0.4-0.1c-0.1,0-0.3-0.1-0.4-0.1c-2-0.6-5-2.1-9.2-4.7c-0.4-0.2-0.7-0.4-1.1-0.7c-3.8-2.4-6.3-4.1-7.8-5.6 c-1.2-1.2-1.8-2.3-1.9-3.4c-0.2-2.1,0.3-3.4,1.5-3.9c0.6-0.2,1.5-0.3,2.5-0.1c0.1,0,0.1,0,0.2,0c0.1,0,0.3,0,0.4,0.1 c0.9,0.2,1.9,0.5,3,1c0.3,0.1,0.6,0.2,0.9,0.4c0.5,0.2,0.9,0.4,1.4,0.6l0,0c6.9,3.3,11.3,6.6,13.2,9.6 C606.1,633.5,606.4,634.8,606.3,636z M617.5,751.9c-0.5,1.9-2.4,4-4.7,5.6c-2.4,1.6-5.3,2.7-7.4,2.2c-1.1-0.2-1.9,0-2.3,0.4 c-1.1,1.2,0,4.5,3.3,8.8c1.4,1.9,2.2,2.9,3.7,4.8c0.1,0.1,0.1,0.1,0.2,0.2h-5.8c-2.7,0.1-4.2,0.3-5,1.1c-0.5,0.6-0.7,1.4-0.7,2.6 c0,2-0.9,5.1-2,7c-0.5,0.8-1.1,1.6-1.6,2.1c-0.7,0.7-1.3,1.1-1.7,1c-1.3-0.2-5.1-10.9-5.1-14.1c0-0.9-2.5-2.6-5.6-3.8 c-2.3-0.9-3.4-1.3-5.7-2.2c0.1-0.1,0.2-0.1,0.2-0.2c1.3-1.1,2-1.7,3.5-2.8c0.3-0.3,0.6-0.5,0.8-0.8c3.8-3.8,3.7-7.9-0.5-8.6 c-1.9-0.3-5.2-3.1-7.6-6.1c-3.4-4.5-4-6.2-3.3-9.8c0.4-1.8,1-2.9,1.9-3.5c1.8-1.1,4.3,0.4,6.3,4.2c0.9,1.7,1.3,2.5,2.2,4.2 c0.1-0.1,0.1-0.2,0.2-0.2c1.2-1.5,1.9-2.3,3.1-3.9c4.2-5.2,4.5-17.3,0.7-25.3c-1.1-2.2-1.6-3.2-2.6-5.4c1.3-1.8,2-2.7,3.3-4.4 c4.5-6.1,4.3-10.8-0.4-11.2c-6.1-0.5-9.7-3.5-9.7-8c0-1.9,0.5-3.3,1.3-4c1.3-1.2,3.3-1,5.5,1c2.7,2.7,4.6,3.3,5.6,2 c0.5-0.7,0.8-1.9,0.8-3.7s0-3,0.3-3.5c0-0.1,0.1-0.2,0.2-0.2c0.6-0.6,1.8,0,4.6,1.7c1.8,1,3.5,2.4,4.6,3.7c0.5,0.6,0.9,1.2,1,1.8 c0.4,2.1,1.6,2.9,4.5,2.9c6.9,0,11.8,6.8,7.6,10.8c-0.1,0-0.1,0.1-0.1,0.2c-1.4,1.3-2.8,1-6.4-1.3c-2.4-1.6-4.6-2.5-5.3-2.2 c0,0-0.1,0-0.1,0.1c-1.4,1.5,0.7,9.8,3.8,14.4c2.8,4.3,2.8,4.5,0.6,7.7c-5,8.1-4.6,19.1,0.2,27.1c2.2,3.3,3.6,4.5,4.5,3.5 c0.4-0.4,0.7-1.3,1-2.5c0.2-1,0.6-1.7,1.2-2.1c1.7-1.3,4.5-0.5,6.2,2.5C617.7,747.3,618,750.1,617.5,751.9z M607.9,677.7 L607.9,677.7L607.9,677.7c0-2.5,5.4-8.2,7.9-8.6c0.2,0,0.3,0,0.5,0c0.4,0.1,0.6,0.3,0.7,0.6c0,0.1,0.1,0.2,0.1,0.4s0,0.3,0,0.4 s0,0.3-0.1,0.5c-0.1,0.3-0.2,0.7-0.3,1.1c-0.2,0.6-0.5,1.3-0.9,1.9s-0.9,1.4-1.4,2.1c-0.2,0.2-0.4,0.5-0.6,0.7 c-0.2,0.2-0.4,0.4-0.6,0.7l-0.1,0.1c-0.2,0.2-0.5,0.5-0.7,0.7C608.9,682,607.9,681.8,607.9,677.7z M665.4,755.7 c-0.6-0.2-2.6-0.9-4.5-1.6c-1.9-0.7-8.5-8.4-14.8-17.2c-6.2-8.8-12-16-12.9-16.2c-3.2-0.6-6.9,2.2-6.9,5.1c0,2.7-0.2,2.6-2.4-0.5 c-2-2.8-2.4-6.4-2.4-20.1c0-0.1,0-0.1,0-0.2c0-0.5,0-1,0-1.5c0-15.2-0.2-15.7-3.8-19.9c-1.1-1.3-1.8-2.3-2.2-3.2 c0-0.1-0.1-0.1-0.1-0.2c-0.5-1-0.5-1.7,0.1-2c2.4-1.4,3.7-7.4,2.4-10.9c-0.2-0.4-0.3-0.9-0.4-1.3l0,0c0-0.1,0-0.1,0-0.2 c-0.2-1.4-0.1-3,0.4-4.1c1.4-2.7,0.5-8.8-1-8.3h-0.1c-0.5,0.3-0.7,2.2-0.3,4.2c0.4,2.2-1.4,5.8-3.5,8.6c-1.4,1.8-2.9,3.2-4.1,3.4 c-0.1,0-0.1,0-0.2,0c-0.1,0-0.3,0-0.4,0c-0.6-0.1-0.9-0.6-1.1-1.2l0,0c-0.2-0.8-0.1-1.9,0.2-3c0.2-0.5,0.4-1.1,0.6-1.7v-0.1 c0-0.1,0.1-0.2,0.1-0.3c0.2-0.5,0.5-1,0.8-1.4l0.1-0.1c0.8-1.2,1.7-2.2,2.8-2.7c1.4-0.7,2.4-1.6,2.8-2.4c0.2-0.4,0.3-0.9,0.2-1.2 c-0.3-0.9,0.1-2.6,1-4.3c0.2-0.4,0.5-0.9,0.8-1.3c0.2-0.2,0.3-0.5,0.5-0.8c1.9-3.7,1.9-10.6-0.3-9.2c-0.1,0-0.1,0.1-0.2,0.2 c-0.4,0.5-0.6,2.1-0.2,3.7c0.3,1.5-0.7,4.1-2.1,6.5c-1.9,3.1-4.5,5.9-6,5.6c-0.5-0.1-0.9-0.4-1.1-0.9c0,0,0,0,0-0.1 c-0.5-1.5,0.3-4.5,1.8-6.7l0.1-0.1c0.3-0.5,0.7-0.9,1-1.3c0.5-0.6,1.1-1.1,1.7-1.4c1.9-0.9,3.1-2.3,3.1-3.3c0-0.1,0-0.2-0.1-0.3 s-0.1-0.3-0.1-0.4c-0.1-1.1,0.7-3.3,1.9-5.1c1.5-2.2,2.3-5.2,1.9-7.2c-0.1-1-0.3-1.6-0.5-2c-0.1-0.3-0.3-0.4-0.6-0.5l0,0 c-0.7-0.1-2.2,0.6-5,2.3c-1.7,1-2.6,1.6-4.4,2.6c-0.4,0.2-0.6,0.3-0.9,0.5c0,0,0,0-0.1,0c-1.5-1.9-2.3-2.9-3.8-4.8 c-1.1-1.4-1.9-2.5-2.4-3.4c-0.1-0.1-0.1-0.2-0.2-0.3c0-0.1-0.1-0.1-0.1-0.1c-0.6-1,0-1,1.7-0.8c1.6,0.3,5.6,0.1,8.8-0.4 c2.4-0.4,3.6-0.6,6-1c0.2,0.2,0.3,0.3,0.5,0.6c0.1,0.1,0.2,0.2,0.3,0.4c6.7,10.1,13.6,19.9,20.5,29.8c8.1,11.5,19,23.9,23.6,37.5 c3.9,13.5,11.3,26.9,20,37.9c4,5.1,7.4,10,7.4,11v0.1c-0.3,3.2-12.2,13.9-17.6,15.8C668.9,755.3,666.1,755.9,665.4,755.7z M607.8,637.7c0.2-0.9,0.7-1.9,1.3-2.9c0,0,0-0.1,0.1-0.1c0,0,0-0.1,0.1-0.1c2.4-3.3,6.6-5.9,7.6-4.4c0.1,0.2,0.2,0.5,0.2,0.9 c0,1.3-1.8,4.4-3.9,6.9c-2.7,3.2-4.6,4.6-5.4,3.9c-0.1-0.1-0.2-0.2-0.2-0.3c0,0,0-0.1-0.1-0.1c0-0.1-0.1-0.1-0.1-0.2 C607.4,640.6,607.4,639.4,607.8,637.7z M946.2,883.2c-1.7-0.6-3.6-2-5.9-4.3c-1.9-1.7-2.8-2.5-4.5-4c0,0,0,0-0.1-0.1 c-0.8,1.6-1.3,2.5-2.1,4.1c-1.5,2.9-2.5,3.8-5.2,3.8c-0.6,0-1.4,0-2.2-0.1c-3.7-0.3-5.8-1.6-6.8-3.9c-0.7-1.9-1.5-3.7-1.7-4.1h-0.1 c-0.4,0-1.8,1.6-3.5,3.8c-2.4,3.1-5,4.5-7.6,4.1c-2.1-0.3-4.1-1.6-6.1-4.1c-1.4-1.7-2-2.5-3.4-4.2l0,0c-2,1.6-3,2.4-5,4 c-2.8,2.1-6.1,3.9-7.6,3.9l0,0c-2.1-0.1-2.5-0.9-1.7-4.7c1.3-6.5,2.5-9.1,6.7-13.6c3.1-3.5,5.4-4.1,15.9-4.7 c11-0.6,12.4-1.2,15.7-5.4c1.5-1.8,2.2-2.7,3.7-4.6c-0.2-9.5-0.2-14.3-0.4-23.8c-0.1-21-3.2-35.4-14.1-53.3 c-7.4-13.2-15.4-26.6-15.7-42.2v-9h0.1c3.6,0.5,5.4,0.8,9.1,1.3c14.3,2.2,25.9,11.4,33.6,23.5c4.5,6.5,11.1,14.6,14.7,17.9 c2.6,2.5,4,3.7,6.6,6.1c-1.5,2.7-2.2,4-3.7,6.7c-4.7,8.2-5,15.6-0.8,21.9c2.5,3.8,4,4.6,8.5,4.2c0.1,0,0.2,0,0.3,0 c1-0.1,1.8-0.1,2.5-0.1c2.8,0,3.2,0.7,3.2,3.2c0,1.9-3,8.9-6.8,15.4c-6.7,10.4-10.9,21.6-7.8,33.9 C955.6,860.9,956.4,886.8,946.2,883.2z M1152.5,903.5c-0.7,2.2-0.9,3-0.9,3.8c0.2,3.7,0.3,5.6,0.5,9.2c-0.9,0.4-2.2,1-3.6,1.7 c-1.1,0.5-2.2,1.1-3.2,1.7c-0.6,0.4-1.2,0.7-1.7,1c-1.6,1.1-2.9,2.6-4.1,4.1c-0.1,0.1-0.2,0.2-0.2,0.3c-1.2,1.4-2.4,2.9-4.1,4.2 c-0.1,0.1-0.2,0.1-0.3,0.2c-0.2,0.1-0.3,0.2-0.5,0.3c-1.2,0.8-2.6,1.4-4.3,1.9c-19.9,6.5-19.3-30.4-19.7-40.4 c-0.1-2.2-0.2-4.3-0.3-6.5c0-0.1,0-0.1,0-0.1c-0.7-5.5-1.9-12-3-18.2c-0.7-3.9-1.4-7.6-1.9-11c-0.6-3.8-1-9.1-1.3-13.2 c2.4,5.6,6.4,13.9,10.9,17.5c4.6,3.9,11.6,4.3,18.2,4.4c7.4,0.1,15,0,19.1,5.2C1159.2,879.7,1155.9,892.8,1152.5,903.5z M1100.8,361c0.1-1.1,0.2-2.3,0.4-3.5c0-0.4,0.1-0.7,0.1-1.1c0.2-1.8,0.5-3.7,0.8-5.7c0.1-0.6,0.2-1.1,0.3-1.7 c1.1-6.9,2.1-14.2,2.7-20.1c0,0,0,0,0-0.1c0.1-2.3,0.1-4.5,0.2-6.7c0.4-18-0.2-44.9,19-54.1c0.5-0.3,1-0.5,1.5-0.7 c3.8-1.5,6-0.7,8,0.1c1.3,0.6,2.6,1.1,4.4,0.8c2.3-0.4,6.9-2,9-2.9v0.1c-0.2,3.7-0.3,5.6-0.4,9.3v0.1l0,0c0,0,0,0,0,0.1 c0,0.7,0.3,1.4,1,3c2.9,6,4,11.4,3.8,16.8s-1.5,10.9-3.5,17c-4.1,8.2-12.4,15.7-19.7,21c-6.7,5.2-13.6,10.6-18.2,17.7 c-1.1,1.7-2.1,3.6-3.1,5.7c-3,6.2-5.6,13.6-7.3,19C1099.9,370.9,1100.2,365.4,1100.8,361z M944,401.5c22.3,9.1,40.6,27,56.7,44.4 c6.2,6.7,14.1,17.7,21.4,18.2c1.2,0.1,1.9-0.4,2.1-1.8c0.1-0.8,0.1-1.9-0.1-3.3c-0.4-2.2-0.3-4.2,0.4-6.4c0.3-1,0.7-1.9,1.2-3 c3.8-7.7,10.2-7.6,13.2,0.1c2,4.8,2.3,10.6,1,15.9c-1.7,7.2-6.3,13.6-13.4,15.4c-10.5,2.6-18.4-7.5-24.6-14.1 c-6.3-7.5-12.3-15.8-20.3-21.3c0,0-0.1,0-0.1-0.1c-1.3,1.9,3.1,20.6,5.5,23.1c0.7,0.7,1.2,1.3,1.4,1.7c0.9,1.7-2,1.1-7.4-1.8 c-6.3-3.5-11.5-9.6-14.3-16.6c-0.8-2-1.1-3-1.9-4.9c0,0,0,0,0-0.1c-0.7,2.7-1,4-1.7,6.7c0,0.1,0,0.2-0.1,0.3 c-0.9,3.6-2.7,8-3.7,9.7c-2.4,3.7-9.1,8.1-12.3,8.2c-1.1,0-1.5-0.3-1-1.6c0.3-0.7,0.7-1.7,1.5-3.2s1.7-4,2.5-6.6 c0.6-2,1.1-4.1,1.5-6c1.2-7,1.1-8.7-1.3-15.3c-2.6-7.3-6.2-11.5-13-15.4c-1.7-1-2.7-1.3-3.1-0.9c-0.6,0.5-0.1,2.6,1.5,6.5 c2.4,6,2.5,16.3,0.5,23.4c-0.3,1.2-0.8,2.4-1.2,3.4c-3,6.4-9,11.6-15.2,13.2c-1.7,0.4-2.6,0.6-4.3,1c0.2-0.4,0.3-0.7,0.5-1 c1-2.2,1.7-3.6,2.8-6.2c0.5-1.2,1-2.4,1.4-3.7c2.5-8.1,2.5-18.5-0.8-25.9c-3.3-6.7-14-15.7-19.1-15.8c-1.7,0-2.6,0-3.1,0.7 c-0.5,0.8-0.4,2.6,0,6.3c0.4,3.9-0.2,8-1.2,11.1c-1.6,5-4.3,7.3-5.5,1.8c-1.3-5.8-7.1-8.2-14-5.6c-5.7,1.9-9.1,5.9-10.7,10.7 c-2.5,7.6-0.5,17.2,4.1,23.5c2.7,3.3,5.1,6,5.5,6c0.5,0,1.9-2.1,3.2-4.8c4.5-8.6,15.8-13,24.1-6.9c1.2,0.9,1.9,1.5,3,2.4 c0.2,0.1,0.3,0.3,0.5,0.4c-2.4,1.5-3.5,2.2-5.9,3.6c-3.9,2.3-6.5,5.1-7.8,8.3c-1.3,3.1-1.4,6.7-0.4,10.9c0.8,3.5,2.5,7.8,3.7,9.6 c1.8,2.8,2.4,2.9,3,0.9c0-0.1,0-0.1,0.1-0.2c0.1-0.3,0.3-0.7,0.4-1.1c2.2-4.6,9.4-12.2,11-11.5c1,0.4,1.9,2.2,2.1,4 c1,8.7,2,10.5,7.2,14.2c5,3.6,7.3,4.3,19.8,4c7.9-0.2,19.2-1.9,25.8-3.9c6.4-2,17.7-4.1,24.9-4.9c12.1-1.3,13.7-1.1,20.5,2.4 c22.6,12.9,23.4,45,12.3,66.6c-1.3,2.6-2.8,5-4.5,7.3c-2.2,3-3.4,4.7-5.4,7.5c-0.2,0.3-0.4,0.5-0.6,0.8c1.9,3.5,2.9,5.3,4.8,8.8 c2.6,4.9,6.2,13.8,7.9,19.8c3.3,10.3,3.3,21.3,3.3,31.9c0,22.5-4,44-9,66.1c-5.2,23.9-11.2,49.9-3.6,74c2.8,8.7,7.1,13.7,11.3,13 c4.4-0.7,4.9,4.5,2.1,11.2c-1.5,3.6-3.8,7.6-6.9,11.4c-3.7,4.5-6,7.9-7.4,11.5s-1.9,7.2-1.8,12.1c0.1,7,2,12.8,7.8,24.8 c1.3,2.8,2.1,6.1,1.8,7.8c0,0.1,0,0.1,0,0.2c-1.1,4.2-11.1,3.3-15-1.1c-1.8-1.9-2.8-2.5-3.3-1.8c-0.1,0.1-0.2,0.3-0.3,0.6 c-0.1,0.4-0.2,0.8-0.3,1.2c-2.4,7.2-9.1,9-14.3,3.5c-1.4-1.5-2.1-2.2-3.5-3.7c-1.3,1.8-2,2.6-3.4,4.3c-4.5,5.7-10.1,6.1-12.7,0.9 l-2-4c-1.7,1.7-2.6,2.6-4.4,4.3c-4.3,4-6.7,5.2-7.4,3.5c-0.1-0.2-0.1-0.4-0.2-0.6c-0.1-0.7-0.1-1.8,0.2-3.2c0.3-2.2,1-4.4,1.9-6.4 c0.2-0.5,0.5-1.1,0.7-1.6l0,0c3.4-6.8,9.4-12.1,17.7-15.5c0.5-0.2,0.9-0.4,1.4-0.6c1.2-0.3,2.2-0.7,3.2-1.1 c12.9-5.4,10.8-19.4,10-32.4c-0.9-23.6-9.1-33.6-27.1-48.5c-0.9-0.6-1.6-1.3-2.4-2l0,0c-0.1-0.1-0.2-0.2-0.4-0.3 c-8.2-7.5-16.2-15-22.4-24.4c-9.8-14.8-22.1-24.5-40.3-25.1c-2.3-0.3-4.5-0.3-6.7-0.4c-0.1,0-0.3,0-0.4,0c-0.2,0-0.4,0-0.6,0 c-11.3-0.3-22,2-32.4,5.6c-11.9,4.1-23.4,9.9-34.8,15.2c-9.6,4.5-19.2,9.2-29.3,12.6c-0.3,0.1-0.6,0.2-0.8,0.3 c-1.7,0.3-2.6,0.4-4.3,0.7c1.8-3.8,2.7-5.7,4.4-9.5c8.3-18.3,19.2-45.2,14.1-65.7c0,0,0-0.1-0.1-0.1c-1-1.7-1.4,1.3-1.4,10.3 c0,29.3-15.3,58.3-29.1,83.2c-8.5,12.8-10,31,8.9,34.2c4.2,1,7.8,2.2,7.8,2.9c0,2.5-9,14.3-12.2,16.1c-1.9,1-7.2,3-11.7,4.5 c-8.2,2.7-8.3,2.6-8,9.4c0.3,3.6,0.7,9.8,1.3,13.7c0.8,5.8,0.3,8.2-3,13.8c-2.1,3.5-3.1,5.2-4.6,5.7c-1.3,0.4-3,0-6.2-0.8 c-3.7-0.9-7.9-3-9.4-4.7c-1.2-1.3-2-2-2.9-2s-2,0.7-3.8,2.1c-1.2,1-2.6,1.6-4.1,2.1c-4.8,1.3-10.4-0.2-13.7-4.2 c-1.2-1.5-1.9-2.3-3.1-3.7c-0.1-0.1-0.2-0.2-0.2-0.3c-1.6,1.3-2.4,1.9-4,3.1c-1.2,0.9-2.5,1.6-3.9,2c-4.6,1.3-9.6-0.1-11.8-3.9 c-0.8-1.4-1.2-2.1-2-3.5c0-0.1-0.1-0.1-0.1-0.2c-2,1.1-2.9,1.7-4.9,2.8c-1.5,0.9-2.8,1.6-4,2c-2.9,1.1-4.4,0.4-4.4-1.9 c0-5.9,5-17.7,8.9-21c1.6-1.4,2.8-2.2,4.5-2.6c2.5-0.5,6-0.1,13.5,0.9c9.3,1.3,13,1.4,16.3,0.2c0.9-0.3,1.7-0.7,2.6-1.3 c20.1-11.1,9.7-40.7,5.4-57.5c-6.5-24.5-13.4-49.3-8.3-74.7c0.8-3.7,1.2-6.6,1.1-7.8c-0.1-0.5-0.2-0.7-0.5-0.4 c-8.5,16.1-4.7,42.4-0.5,59.4c0,0.1,0.1,0.2,0.1,0.3c-8.9,0.1-20.6-12.8-27.6-19.4c-0.4-0.4-0.9-0.8-1.3-1.1 c-14.4-15.1-25.8-34.4-30.3-54.9c-0.1-0.7-0.2-1.5-0.4-2.2c-0.1-0.6-0.2-1.1-0.3-1.7c-1.7-10.4-2.2-19.5-1.4-30.4 c1.9-14.3,6.3-28.2,13.2-40.4c7.6-13.4,18.2-24.8,32.2-32.9c8.8-5.3,13.8-9.7,15.5-14c0.9-2.2,1-4.3,0.3-6.5c-2-6.4-5.5-8-10-4.7 c-1.2,0.9-2.4,2.2-3.3,3.5c-0.7,1-1.1,2.1-1.2,2.9c-0.1,0.6-0.2,1-0.3,1.4c-1.3,3.4-4.7-0.7-8.2-10c-2.6-7.1-4.3-10.1-5.4-9.2 c-0.6,0.5-1,2-1.2,4.6c-0.1,1.6-0.3,2.9-0.7,3.8c-1.2,3.1-3.5,1.8-6.3-4.1c-2.9-6.2-3.2-6.4-6.9-4.7c-2.1,0.9-5.9,1.9-8.4,2.2 c-1.8,0.1-2.7,0.2-4.5,0.4c1.1-2.4,1.6-3.5,2.7-5.9c1.5-3.2,2.5-6.2,2.3-6.5c-0.2-0.4-2.3-0.2-4.6,0.3c-2.3,0.6-7.4,0.9-11.3,0.7 c-2.9-0.1-4.3-0.2-7.1-0.3c0.7-3,1.1-4.5,1.9-7.5c1.1-4.2,2.7-10.4,3.6-13.8c0.7-2.6,1.3-4.3,2-5.4c0.6-0.8,1.3-1.2,2.3-1.2 c1.3,0.1,3.2,1.1,5.8,2.7c9.9,5.7,21.5,10.5,32.4,12.3c4.9,0.9,6.4,1.5,5.2,4c-0.3,0.6-0.8,1.4-1.5,2.3c-0.2,0.4-0.5,0.7-0.7,1 c-2.3,3.5-1.6,4.2,3.1,4c2.5-0.1,8.4,1.3,13.3,3.1c6.3,2.2,9.3,2.6,10.4,1.5c0.2-0.2,0.3-0.4,0.4-0.7c1.2-3.2-1.8-12.3-7.2-22.2 c-0.2-0.4-0.5-0.9-0.7-1.3c-1.1-2.1-2.4-4.2-3.8-6.3c-4.5-6.7-9.4-15.4-10.9-19.2c-1.1-2.6-1.6-4-2.6-6.6c0-0.1,0-0.1-0.1-0.2 c-0.7,1.8-1,2.8-1.6,4.6c-0.9,2.5-1.6,5.8-1.6,7.2c0,0.4,0,0.7-0.1,1c-0.2,1.1-1.1,0.6-3.9-2c-2.2-2-4.9-5.1-5.9-6.9 c-1.4-2.6-2.5-3.6-3.1-3.3c-0.6,0.4-0.8,2.3-0.4,5.8c0.3,2.2,0.4,3.4,0.5,5.4c0,0.3,0,0.5,0.1,0.8c-1.9-1.5-2.8-2.3-4.7-3.8 c-2.6-2.1-5.2-5.4-6.1-7.3c-0.9-1.9-5.9-9.5-11.2-17c-5.6-7.7-10-15.7-10.4-18.5c-0.4-2.9-1.3-7.4-2.1-10.4 c-1.4-4.7-2-12.7,0.2-18.2c1.6-4.1,4.8-6.9,10.4-6.1c7.5,1.1,12.6,8.3,11.6,17.1c-0.6,5.7-0.4,6.6,1.7,5.9c1.3-0.5,6-0.7,10.3-0.6 c4.4,0.1,9.8-0.7,11.9-1.6c2.1-0.9,7.3-1.3,11.4-0.8c8.8,1.1,14.7-1.3,19.2-7.9c0.5-0.8,1-1.5,1.3-2.1c1.5-2.8,1.5-4.4,0.5-7.7 c-0.6-2-1-3-1.6-4.9c0.2,0,0.3,0,0.5,0c3.1,0,4.9-0.1,8.1-0.1c11.3,0,16.1,1.7,22.1,8.5c5,5.7,8.6,6.9,10.5,3.8 c1-1.7,1.6-4.6,1.6-8.9c0-3.4,0.1-5.4,0.9-6.3c1.1-1.2,3.4-0.4,8.6,1.7c3.6,1.5,8.3,5.6,12.2,10.6c2.5,3.3,3.8,4.9,6.4,8.2 c0.1-0.2,0.2-0.4,0.3-0.6c1-2.3,1.7-3.6,2.8-6c1.7-3.7,3.1-7.8,3.1-9.3c0-0.8,0.1-1.3,0.4-1.5c0.5-0.4,1.4-0.3,2.9,0.3 c6.8,2.9,13.7,8.3,17.7,13.7c3.3,4.5,5.2,5.6,10.1,5.9c4.9,0.3,7-0.7,11.1-5.2c2-2.2,3-3.4,5.1-5.6c-0.4,2.7-0.6,4.1-1,6.9 c-1,6.2-2.6,11.2-5.8,16.3c-1.2,1.9-2.5,3.7-4.1,5.7c-1.7,2.2-2.6,3.3-4.3,5.3c-0.1,0.1-0.2,0.3-0.3,0.4c1.1,1.9,1.7,2.8,2.9,4.7 c6.2,9.6,6.4,22.2,6,33.2c0,2.3,0,4.8-0.1,7.5c0,1.2-0.1,2.4-0.1,3.8c-0.3,13-0.8,24.1-1.1,26.9c0,0.4-0.1,0.7-0.1,0.7 c-0.2,0.2-4.2-3.7-8.7-8.8c-7.6-8.6-8.4-10.3-10.1-20.3c-1.3-7.9-3-12.6-6.1-16.5c-2.1-2.8-3.2-4.1-3.6-4.2c-0.4-0.1-0.2,0.9,0.2,3 c1.6,8,2.5,19,1.8,22.4c0,0.2-0.1,0.4-0.1,0.5c-0.8,2.3-2.1,1.7-7.7-4c-2-2-4-3.9-5.5-4.9c-0.1-0.1-0.2-0.2-0.3-0.2 c-0.5-0.4-0.9-0.6-1.3-0.7c-0.2-0.1-0.4-0.1-0.4,0c-0.2,0.4,0.4,1.3,1.5,2.6c0.9,1,2.2,2.4,3.7,3.6c3.3,2.9,6.6,7.1,7.4,9.5 c0.6,1.8,0.9,2.7,1.4,4.4c0.7-1.9,1-2.9,1.7-4.9c0.2-0.5,0.3-1.1,0.5-1.8c0.7-3.3,1-8.5,0.8-12.9c-0.3-5.1-0.3-7.5,0.2-7.8 c0.2-0.2,0.6,0.2,1.1,1c0.9,1.5,2.1,6.4,2.7,10.7c1.4,10.5,3.7,15.3,10.8,22.4c4.9,4.8,6,6.9,6,11.6c0,3.1,0.7,7.8,1.6,10.5 c2.1,6.7,3.2,10.8,3.1,12.4c0,0.8-0.3,1-0.9,0.6c-10.1-7.6-22-17.8-27.7-29.3c-1.5-4.2-1.5-4.2-4.7,2.5c-1.3,2.7-1.9,4-3.2,6.7 c-1.9-2-2.8-2.9-4.7-4.9c-2.6-2.7-5.5-6.5-6.4-8.4c-0.5-1-0.9-1.7-1.1-1.9c-0.4-0.4-0.3,0.8,0.3,3.9c0.3,2.5,0.2,5.2-0.4,7.5 c-0.2,0.8-0.5,1.5-0.8,2.1c-0.8,1.7-1.2,2.5-2,4.1c-1.9-2.5-2.9-3.8-4.9-6.3c-2.5-3.4-5.4-6.2-6.3-6.5H779 c-0.8-0.1,0.5,2.1,2.8,4.9c2.5,2.8,5.3,6.9,6.6,9.2c0.9,1.7,1.4,2.5,2.3,4.2c1.2-2.6,1.7-4,2.9-6.6c1.6-3.5,3.3-6.5,3.8-6.5 s2.4,2.1,4.4,4.6s4,4.6,4.5,4.6c0.4,0,1.7-2.5,2.7-5.7c0.7-2.3,1.1-3.4,1.8-5.7c1.5,2.1,2.2,3.1,3.7,5.2c2,2.8,6.9,8.1,10.8,11.7 c6.6,5.8,7.1,7,7.8,14.6c0.4,4.7,2,10.6,3.9,13.7c1.1,1.9,1.8,2.9,2.9,4.7c0.1,0.2,0.3,0.5,0.4,0.7c-2.1-0.1-3.2-0.2-5.3-0.3 c-7-0.4-15.2-5.1-21-12c-1.1-1.1-2-2.1-2.7-2.8c-0.1-0.1-0.2-0.2-0.3-0.3c-0.5-0.5-1-0.8-1.3-1c-0.3-0.1-0.5-0.1-0.5,0.2 c0,0.9,0.5,2,1.4,3.3c4.1,5.6,15.9,13.7,23,14.9c3.3,0.7,6.1,2.2,6.9,3.9c0.8,1.6,4.1,5.3,7.2,8.1c2,1.8,3.1,2.8,4.9,4.4 c0.2,0.2,0.4,0.4,0.7,0.6l0.1,0.1c-0.2,0-0.3,0-0.4,0.1c-2.3,0.3-3.6,0.4-6.1,0.6c-3.6,0.5-8.4,0.2-10.7-0.5 c-1.7-0.6-2.5-0.9-4.1-1.4H832c-0.1,3.7-0.1,5.6-0.2,9.3c0,1.7-0.1,3.3-0.2,4.7c-0.2,3-0.4,5.2-0.7,5.5c-1.1,1.3-15.7-5-20-8.6 c-3.2-2.6-3.9-2.7-4.5-0.8c-0.4,1.3-3.5,4.9-6.8,8.2c-5.4,5.3-6.2,5.6-7.1,2.8c-0.5-1.8-3.1-9.3-5.6-16.8s-4.3-14.1-3.8-14.9 c0,0,0,0,0-0.1c0.2-0.3,0.2-0.6,0.2-0.9c-0.1-0.5-0.4-1.1-0.9-1.4c-2.1-1.7-5.4,4.9-7.5,14.8c-1,4.8-2.4,8.9-3.1,9.4 c-1.4,1-8.9-11.4-8.9-14.7c0-4.6-2.7-2.1-4.3,3.9c-1,3.5-3.3,8.2-5,10.6c-1.3,1.7-1.9,2.6-3.2,4.3c-0.9-3-1.3-4.6-2.1-7.6 c-1.1-4.2-2.2-8.6-2.4-9.7c-0.6-3.3-1.9-4.4-2.3-2.5c-0.1,0.4-0.1,0.8-0.1,1.4c0,0.7-0.1,1.4-0.1,2.1c-0.8,6.9-4.9,14.4-9.3,16.3 c-1.9,0.9-2.8,1.3-4.7,2.1c-0.7-3.3-1.1-4.9-1.8-8.2c-1-4.5-1.8-9.8-1.8-11.7v-3.6c-2.8,1.3-4.2,1.9-6.9,3.2 c-3.8,1.7-7.2,2.8-7.4,2.5c-0.1-0.2-0.1-0.7,0.1-1.3c0.3-1,0.8-2.4,1.6-4c1.3-2.4,2.3-5.7,2.3-7.1l0,0c0-0.3,0-0.6,0.1-0.9 c0.3-1.6,1.1-3.7,2.3-5.4c1.2-1.8,1.6-2.8,1.3-3.1c-0.1-0.2-0.5-0.2-1,0c-1.2,0.3-3.3,4.4-4.7,9.3c-1.5,4.7-4,9.9-5.6,11.2 c-1,0.8-1.6,1.5-1.9,2.1c-1,1.9,2.3,2.1,9.1,0.3c5.3-1.4,8-1.5,8.3-0.1c0.3,1.1,1.3,5,2.2,8.5c0.7,2.7,1.1,5.7,1.1,7.8 c0,0.8-0.1,1.5-0.3,2c-0.1,0.3-0.1,0.6-0.2,0.9c-0.5,3.1,1.5,3.5,3.9,0.4c1-1.2,2.8-2.1,3.8-2c2.5,0.2,9.7-8.5,9.7-11.7 c0-0.1,0-0.2,0-0.2c0-0.1,0-0.3,0.1-0.4c0.2-1,0.8-1.6,1.4-1.6c0.8,0.1,1.5,3.6,1.5,7.7c0,4.1,0.6,7.6,1.4,7.7 c2,0.3,10.5-10.9,11.5-15.2c0.4-2.2,1.1-3.7,1.6-3.7c1.2,0.1,4.8,5.9,7,11.5c0.8,2,1.2,3.1,2,5.1c1.2-2.2,1.9-3.3,3.1-5.5 c1.7-3,3.5-8.1,4-11.3c0.6-3.1,1.5-6.9,2.2-8.2c1-2,1.4-1.8,2.2,1c0.6,1.8,2.7,8.1,4.6,13.8s3.8,12.4,3.9,15 c0.1,2.6,0.5,4.7,0.8,4.7c1.9,0.1,14-9.7,15.3-12.3c1.5-2.9,1.9-3,5.8-0.4c2.3,1.5,7.1,3.7,10.7,4.9c3.5,1.2,7.7,2.7,9.2,3.5 c1.8,0.9,2.3,0.8,2.1-0.5c-0.1-0.3-0.2-0.8-0.4-1.3c-0.6-1.8-0.7-6.4-0.1-10.3v-0.1c0.4-2.9,0.5-4.3,0.9-7.2c2.8,0.1,4.2,0.2,7,0.4 c3.8,0.2,8.9-0.5,11.1-1.3c2.5-1.1,3.4-1.6,3-2.3c-0.2-0.4-0.8-0.8-1.7-1.5c-1.5-1.2-4.4-3.9-6.5-6.1c-1.5-1.7-2.3-2.5-3.8-4.1 c0.3,0,0.7,0.1,1,0.1c10.9,1,21.7,1.8,32.6,2.7c14,1,29.4,3.2,43.1-0.8c11.4-3.1,23.7-2.9,35.4-3c11.8-0.4,24-0.1,34.6-6 c12.7-6.2,16.4-9.3,20.2-16.4c2.3-4.3,4-9.4,4.7-14.5c1.4-10.5-1.3-21.4-10.9-27.2c-10.9-4.3-24.3-1.3-35,2.4 c-23.1,6.8-49.1,10.7-71.5-1c-16.4-8.8-19-9.8-22.7-8.3c-4,1.8-6.5,6.3-6.9,13.3c-0.2,2.7-0.8,5-1.2,5c-0.4-0.1-2.5-3-4.6-6.7 c-2.7-4.3-4-10.2-3.7-15.9c0.2-4,1.1-7.9,2.8-11c1.2-2.1,1.8-3.2,2.9-5.3c-0.1-0.2-0.2-0.3-0.3-0.5c-1.5-2.2-2.3-3.5-3.9-5.9 c-6.9-10.3-10.9-22.4-10.7-34.3c0.2-10.4,3.7-20.6,11.4-29.2c9.7-10.4,23-17.9,36.9-21.1C912.6,395.4,929.8,396.5,944,401.5z M702.1,514.7c-0.5-0.6-1.9-0.9-4.5-1.3c-12.9-1.9-26.9-7.8-37.9-14.9c-1.5-1.1-2.9-2.4-4.2-3.7c-5.7-5.8-8.7-13-6.3-15.8 c1.3-1.3,4.8,0.6,15.4,8.1c14.4,9.6,30.6,20.8,48.2,23.1c1.5,0.2,2.5,0.5,3.4,1.3c1.3,1.2,2.3,3.3,3.9,7.4c1.6,4.4,2.7,8.6,2.2,9.4 c-0.9,1.6-1,1.6-7.3-1c-2.4-1-7.3-2.3-10.8-2.9c-2.4-0.4-3.7-0.6-6.1-1c-0.1,0-0.2,0-0.3,0c1-1.5,1.5-2.3,2.4-3.8 C701.9,516.8,702.7,515.4,702.1,514.7z"/>
    <path d="M766.5,528c-0.1,0-0.3,0.1-0.5,0.3c-0.2-0.1-0.3-0.2-0.4-0.2c-0.4,0-1.3,1.9-1.8,4.5c-0.9,4.5-1.7,6.9-2.9,7.6 c-1-0.1-2.3-1.1-4-3c-2.2-2.6-5.3-7-6.8-9.9c-1.7-3.4-2.6-4.3-2.8-3.1c-0.7-0.8-0.9-0.5-0.9,0.8c0,2.7,11.5,19.2,13.6,19.4 c0.1,0,0.3-0.1,0.5-0.3c0.2,0.1,0.3,0.2,0.4,0.2c0.5,0,2.2-2.4,3.7-5.5c1.2-2.5,2.5-4.6,3.3-5.2c2.6,1.4,9.9,13,9.9,16 c0,2.7,1,3.8,2.2,3.2c0.9,0.2,2.1-0.7,3.2-3c0.5-1,0.9-1.7,1.3-2c0.8,0.4,1.8,1.6,3.8,3.9c3.7,4.3,4.4,6.2,4.4,13.5 c0,4.3-0.2,8.1-0.7,9.2c-1.1-0.6-3-2.5-5-4.8c-4.3-4.9-15.7-14.8-15.9-13.8c0,0,0,0.1,0,0.3c-0.5-0.3-0.8-0.4-0.9-0.2 c0,0.3-0.4,3.8-0.9,7.9c-0.4,3-0.8,5.8-1.1,7.2c-0.7-1-1.7-3.1-2.8-5.5c-1.6-3.7-4.4-8.4-6.2-10.5c-2.1-2.4-2.9-3.2-3.6-2.6 c-0.9-0.5-1.3,0.2-2.3,2c-0.9,1.7-3.3,5.1-5.5,7.6c-1.3,1.5-2,2.3-3.1,3.6c-0.3-2.9-0.5-4.6-0.9-7.8c-0.6-4.9-1.6-9.2-2.4-9.9 c-0.5-0.3-0.9-0.3-1.2-0.1c-0.7-0.3-1.2,0.2-1.2,1.3c0,1.3-1.6,5.1-3.6,8.4c-1.3,2.1-2,3.3-3,5.1c-1.1-3.8-1.7-6-2.9-10.1 c-1.7-6.1-2.7-8.4-2.3-5.2c0.1,0.4,0.1,0.8,0.2,1.2c-1-2.9-1.4-3.5-1.1-1.1c0.4,3.3,1.2,8.9,1.7,12.4c0.4,3.4,1.2,6.4,1.9,6.5 c0.2,0,0.4-0.1,0.7-0.3c0.1,0.1,0.2,0.2,0.2,0.2c1.5,0.2,8.8-8.9,8.8-11c0-0.3,0.1-0.5,0.2-0.6c0.2,0.1,0.3,0.2,0.5,0.3 c1,0.8,1.4,4,0.9,7.8c-0.5,3.5-0.4,6.4,0.2,6.5c0.3,0,0.6,0,0.9-0.1c2.3,0.2,7.6-4.6,10.7-9.8c1.1-2,1.7-3.1,2.7-4.9 c1.3,2.3,2.1,3.7,3.7,6.2c2.3,3.8,4.6,9,5.2,11.5c0.6,2.6,1.6,4.7,2.3,4.8c0.2,0,0.3-0.1,0.5-0.3c0.1,0.1,0.3,0.2,0.4,0.2 c1.3,0.1,4.4-10.1,4.4-14.2c0-0.9,0.1-1.5,0.4-1.7c0.8,0.3,2.2,1.3,4.3,3c6.1,4.8,12.2,12,12.2,14.5c0,2.1,0.8,2.7,1.7,2.2 c0.8,0.3,2.1-1,2.8-3.5c0.5-2,0.9-7.3,0.9-11.8v-7.2c1.6,1.5,2.6,2.5,4.4,4.1c2.9,2.7,5.5,4.7,5.7,4.4c0.1-0.1,0.2-0.2,0.2-0.3 c0.4,0.2,0.6,0.3,0.7,0.2c1.6-2.1,3.7-11.9,2.9-13.5c-0.2-0.3-0.4-0.2-0.8,0.3c-0.5-0.8-1.7,1-2.5,4.1c-0.5,2.1-0.9,3.3-1.4,5.2 c-2.7-2.3-4.2-3.6-7.2-6.1c-4.4-3.7-8.6-8.6-9.5-10.8c-1.3-3.2-2.3-4.5-3.2-3.8c-0.9-0.4-1.8,0.9-2.5,4.1c-0.3,1.2-0.4,2-0.6,2.9 c-0.3-0.9-0.5-1.7-0.9-2.8C778.4,541.7,768.4,528.2,766.5,528z"/>
    <path d="M796.6,483.7c-0.1-0.1-0.1-0.3-0.2-0.4c-0.9-1.8-1.4-0.6-1.4,3.9c0,3.6-0.8,7.9-1.6,9.6c-0.5,1.1-0.9,1.8-1.5,1.8 c-0.9-0.9-2.1-2.5-3.9-5.2c-2.1-3-3.1-4.5-5.2-7.5v1.1c-0.4-0.6-0.8-1.2-1.3-1.9v4.8c0,2.6-0.4,6.4-0.9,8.5 c-0.4,1.6-0.6,2.5-0.9,2.7c-0.3-0.4-0.6-0.8-1.1-1.4c-1.4-1.8-3.6-5.3-5.1-7.6c-1.5-2.4-2.3-3.3-2.5-2.6c-1.8-2.5-1.7-0.6-0.2,5.8 c0.6,2.8,0.8,6.8,0.3,8.9c-0.4,1.6-0.6,2.6-1.2,2.6c-0.9-0.8-2.2-2.3-4.2-4.5c-4-4.4-5.7-6.3-6.4-6.3c-1.5-1.4-1.7-0.8-1.8,1 c-0.2,1.1-1.7,4.1-3.5,6.4c-1.2,1.6-1.9,2.5-3.1,4c-1.5-1.6-2.5-2.7-4.3-4.6c-3.2-3.4-5.7-7.6-6.1-10.3c-0.2-1.8-0.3-2.8-0.6-4.6 c-0.1,1.9-0.1,2.9-0.2,4.8c0,0.3,0,0.6,0,0.9c-0.2-0.7-0.4-1.3-0.5-1.9c-0.3-1.8-0.4-2.8-0.6-4.6c-0.1,1.9-0.1,2.9-0.2,4.8 c-0.2,4.5,1.3,6.7,10.7,17.2c1.1,1.2,2,1.9,2.6,2.1c1.6,1.3,2.6,1,2.7-1c0-1.1,1.4-3.7,3-5.7c1.1-1.4,1.7-2.1,2.8-3.4 c2,2,3.3,3.3,5.5,5.6c2.7,2.7,4,4,6.6,6.7c0-0.2,0-0.3,0.1-0.4c0.4,0.4,0.8,0.8,1.2,1.2c0.4-3.1,0.6-4.7,1-7.8c0.4-3,0.7-4.8,1-5.6 c0.1,0.3,0.2,0.5,0.4,0.9c1.1,2.8,2,4,2.9,3.8c1.4,1.8,2.6,0.4,4.2-4.5c1.1-3.4,2-5.2,3.1-5.3c0.8,0.8,1.6,2.3,2.7,4.5 c1.2,2.2,1.8,3.3,2.9,5.5c0.2-0.3,0.3-0.6,0.4-0.8c0.3,0.5,0.6,1,0.9,1.6c0.9-1.8,1.3-2.8,2.2-4.6c3-6.5,4.1-14.3,2.5-17.3 C797.2,483.2,796.8,483,796.6,483.7z"/>
    <path d="M829.6,473.2l-0.1-0.1c-0.3-0.4-0.8-0.2-1.4,0.3s1.8,4.3,5.2,8.2c5.3,6.2,7.8,8.3,6.8,6.3c2.4,2.1,1.5,0-3.4-6.5 c-3.1-4-5.9-7.7-6.1-8.2C830.4,472.9,830,472.9,829.6,473.2z"/>
    <path d="M734.8,460.6c2.6-2.6,2.2-10.6-0.6-12.1c-1.4-0.7-2.3-1.2-2.8-1.2c-2.2-1-2-0.1,0.4,3.1c2,2.8,2.2,4.3,1.1,6.4 c-1.5,2.5-3.6,3.1-5.7,2.6c-3.5-1.6-6.4-6.3-4.8-11.1c0.8-2.5,3.1-4.7,5.4-5.2c1.3-0.3,2.5-0.4,4,0c3.2,1.3,8.1,4.7,18.7,12.2 c3.7,2.7,9.4,5.1,14.3,6.5c5.6,1.7,10.4,2.3,10.4,0.6c0-1.1-0.7-2-1.4-2.1c-0.8-0.1-2.1-1.6-2.9-3.4c-0.8-1.9-1-2.6,0.4-2.3 c1.1,0.3,2.6,0.9,4.8,1.8c0.7,0.3,1.4,0.5,2.1,0.8c4.8,1.7,10.3,2.5,15.5,2.5c13-0.4,13.3-0.9,7.2-7.7c-3.5-4-5.6-5.7-6-5.2 c-2-1.4-1.5,0.4,2.5,5.4c1.7,2.1,2.5,3.2,4.2,5.4c-2.9-0.2-4.4-0.3-7.3-0.4c-6.5-0.1-13.7-0.8-19.9-3.6c-2.4-1.2-4.6-2.8-6.4-4.8 c-2.5-2.7-3.9-3.9-4.2-3.5c-2.1-1.8-1.3,0.5,2.3,7.3c2,3.7,3.4,7,3.7,7.5c0,0.2-1.4,0-3.5-0.4c-0.9-0.2-1.8-0.5-2.8-0.7 c-4.7-1.2-10.7-4.5-16.5-9.1c-5.1-4.1-11.7-8-14.7-8.9c-0.2,0-0.3-0.1-0.5-0.1c-0.2-0.1-0.4-0.1-0.6-0.2c-4.8-1.4-6.1-1-8.8,2.6 c-3.8,5-4,8.3-0.9,13.7c1.2,2,3.2,3.5,5.4,4.2C729.7,462.5,733,462.5,734.8,460.6z"/>
    <path d="M941,222.9c-280.7,0-416.7-67.9-681.3-67.9C175.2,155,89.1,178,0,222.9v820c89-44.9,175.2-63.6,259.7-63.6 c268.9,0,398.5,65.7,680.3,65.7c84.6,0,170.8-22,260-66.9V155C1110.8,200,1025.6,222.9,941,222.9z M1170,959.3 c-36.8,17.4-73.5,30.8-109.2,40c-40.5,10.4-81.1,15.7-120.8,15.7c-140.1,0-243.6-16.8-343.7-33c-98.9-16.1-201.3-32.7-336.6-32.7 c-45.7,0-91.1,5.3-135.1,15.8C93,972.6,61.3,982.9,30,996V241.6c37.1-17.6,73.8-31.2,109.2-40.5c40.7-10.7,81.2-16.1,120.5-16.1 c127.9,0,223.7,15.9,325.2,32.8C688.7,235,796.1,252.9,941,252.9c44.4,0,90-6.1,135.4-18.1c30.5-8.1,61.9-19,93.6-32.7V959.3z"/>
  </g>
</svg>