<svg viewBox="0 0 1200 1200" xmlns="http://www.w3.org/2000/svg">
  <path d="M941,222.9c-280.7,0-416.7-67.9-681.3-67.9C175.2,155,89.1,178,0,222.9c0,82.8,0,176.4,0,273.5c0,91,0,181.9,0,272.9 c0,97.1,0,190.8,0,273.6c89-44.9,175.2-63.6,259.7-63.6c268.9,0,398.5,65.7,680.3,65.7c84.6,0,170.8-22,260-66.9 c0-82.8,0-176.8,0-274.4c0-91.5,0-182.9,0-274.4c0-97.5,0-191.5,0-274.3C1110.8,200,1025.6,222.9,941,222.9z M1170,959.3 c-36.8,17.4-73.5,30.8-109.2,40c-40.5,10.4-81.1,15.7-120.8,15.7c-140.1,0-243.6-16.8-343.7-33c-98.9-16.1-201.3-32.7-336.6-32.7 c-45.7,0-91.1,5.3-135.1,15.8C93,972.6,61.3,982.9,30,996V754.3c179.3-82.1,381.5-45.9,570.1-15.7c189.2,30.3,390.5,61,569.9-20.2 V959.3z M730.8,621.4c-8.9,3.2-17.8,6.4-26.8,9.4c4.1,12.4,8.2,24.7,12.3,37.1c-8.6-6.8-17.2-13.7-25.8-20.5 c-3.2,11.8-6.4,23.6-9.6,35.4c-3-12.1-6.1-24.1-9-36.3v-0.1c-0.2-0.7-0.3-1.1-0.5-1.9c-8.6,4.3-17.3,8.6-26,12.8 c4.1-11.1,8.3-22.3,12.4-33.4c-9.1-5.9-18.1-11.8-27.2-17.6c9.1-2.9,18.1-5.8,27.2-8.8c-4.1-12.4-8.3-24.9-12.4-37.3 c8.7,7,17.3,14,26,21c0.2-0.7,0.3-1,0.5-1.7c0-0.1,0-0.2-0.1-0.3c3-11.2,6.1-22.3,9.1-33.4c3.2,12.8,6.4,25.5,9.6,38.3 c8.6-4.3,17.2-8.7,25.7-13.1c-4.1,11.2-8.1,22.4-12.2,33.6C712.9,610.2,721.8,615.9,730.8,621.4z M652.9,536 c-12.3-18.2-30.7-33.5-52.8-37.3c-50.7-8.8-74.6,49.8-74.5,90.4c0,44.8,24.9,106.3,74.4,115.1c19.3,3.5,39.6-5.2,52.4-19.7 c-14.8,25.1-43.1,41.6-72.3,37c-59.7-9.5-90-84.2-89.6-138c0.4-48,29.1-120.3,89.7-108.9c32.4,6.1,58.4,32.4,72.6,61.2 c5,7.4,9.2,15.3,12.7,23.6C662,551.2,657.8,543.3,652.9,536z M30,481.2V241.6c37.1-17.6,73.8-31.2,109.2-40.5 c40.7-10.7,81.2-16.1,120.5-16.1c127.9,0,223.7,15.9,325.2,32.8C688.7,235,796.1,252.9,941,252.9c44.4,0,90-6.1,135.4-18.1 c30.5-8.1,61.9-19,93.6-32.7v242.1C805.8,611.9,391.7,311.6,30,481.2z"/>
</svg>