<svg viewBox="0 0 1200 1200" xmlns="http://www.w3.org/2000/svg">
  <path d="M941,222.9c-138,0-241-16.4-341.4-33.1c-108.4-19.5-219.3-35-329.6-34.8c-1,0-2,0-3,0c-2.4,0-4.9,0-7.3,0 c-54.5,0-109.6,9.6-165.7,28.4c-32,10.4-63.3,23.7-94,39.5v820c89-44.9,175.2-63.6,259.7-63.6c268.9,0,398.5,65.7,680.3,65.7 c84.6,0,170.8-22,260-66.9V155C1110.8,200,1025.6,222.9,941,222.9z M393.1,345.9c-7.3-7.1-14.7-14.1-22.1-21.2 c-7.3,5.8-14.6,11.7-21.8,17.7c2.7-10.2,5.5-20.4,8.3-30.6c-7.2-6.9-14.3-13.8-21.5-20.7c10.5,0.6,15.9,1,26.7,1.8 c2.8-10.2,5.6-20.4,8.3-30.5c2.8,10.6,5.6,21.2,8.4,31.9c10.9,0.9,16.4,1.4,27.4,2.5c-7.4,5.7-14.8,11.4-22.2,17.2 C387.4,324.6,390.3,335.2,393.1,345.9z M331.9,420c-5.7-5.5-8.5-8.2-14-13.6c-5.6,4.9-8.3,7.4-13.8,12.3c2.1-8.2,3.1-12.4,5.2-20.6 c-5.5-5.4-8.2-8-13.6-13.3c6.7,0.2,10.1,0.3,16.9,0.6c2.1-8.2,3.2-12.3,5.3-20.6c2.1,8.4,3.2,12.6,5.3,21c6.9,0.3,10.4,0.5,17.5,0.9 c-5.7,4.8-8.5,7.2-14.2,12.1C328.6,407.3,329.7,411.5,331.9,420z M296.4,550.2c-8.8-8.6-17.7-17.3-26.4-26.1 c-8.6,8.6-17,17.3-25.3,26.1c3.2-14,6.4-27.9,9.6-41.9c-8.3-8.2-16.6-16.5-24.9-24.7c10.3-0.6,20.6-1,30.9-1.1 c3.2-13.9,6.5-27.8,9.8-41.7c3.3,13.9,6.6,27.8,9.9,41.7c11.1,0.2,22.3,0.5,33.4,0.9c-9.2,8.2-18.2,16.5-27.1,24.9 C289.6,522.3,293,536.3,296.4,550.2z M201.6,365.8c-7.7-7.4-11.4-11-19-18.2c-6.3,7.8-12.5,15.6-18.6,23.5 c2.3-11.5,4.7-22.9,7.1-34.4c-7.5-6.9-11.2-10.4-18.6-17c9.1-1.9,13.7-2.7,22.9-4.2c2.4-11.4,4.7-22.9,7.1-34.3 c2.4,10.7,4.8,21.5,7.3,32.2c9.4-1.2,14.1-1.8,23.7-2.6c-6.5,7.4-12.9,15-19.2,22.6C196.8,344.2,199.2,355,201.6,365.8z M277.9,205.4c10.3,0.1,15.7,0.2,26.5,0.6c-7.3,6.6-14.4,13.2-21.5,20c2.7,11.1,5.4,22.3,8.1,33.4c-7-6.9-14.1-13.8-21.1-20.8 c-6.9,6.9-13.7,13.8-20.3,20.9c2.6-11.1,5.1-22.3,7.7-33.4c-6.7-6.6-13.4-13.2-20.1-19.8c9.8-0.5,14.8-0.7,24.9-0.8 c1.7-6.9,3.3-13.7,4.9-20.5c2,0,4.1,0,6.1,0C274.7,191.8,276.3,198.6,277.9,205.4z M1170,959.3c-36.8,17.4-73.5,30.8-109.2,40 c-40.5,10.4-81.1,15.7-120.8,15.7c-140.1,0-243.6-16.8-343.7-33c-98.9-16.1-201.3-32.7-336.6-32.7c-45.7,0-91.1,5.3-135.1,15.8 C93,972.6,61.3,982.9,30,996V618.5c76.1-34.1,155.5-51.3,240-51.4c110.4-0.1,221.5,15,330,34.4V220.3c99.2,16.4,203.1,32.6,341,32.6 c44.4,0,90-6.1,135.4-18.1c30.5-8.1,61.9-19,93.6-32.7V959.3z"/>
</svg>