<svg viewBox="0 0 1200 1200" xmlns="http://www.w3.org/2000/svg">
  <g>
    <path d="M830.23,384.5c2.3,2.9,3.7,4.6,6.1,7.6c0.1,0.1,0.2,0.2,0.3,0.3c-0.2-1.4-0.3-2.3-0.5-3.4c0-0.3-0.1-0.6-0.1-1 c0,0,0,0-0.1,0c0-0.1,0-0.1,0-0.2c-2-1.1-3.9-2.4-5.9-3.6C830.03,384.3,830.13,384.4,830.23,384.5z"/>
    <path d="M953.12,631.6c0.3-0.2,0.8-0.5,1.3-0.7c0-0.1-0.1-0.1-0.1-0.2l0,0c-0.1-0.1-0.1-0.2-0.2-0.3c-0.2-0.4-0.4-0.7-0.7-1.1 c-0.1-0.2-0.2-0.3-0.3-0.5c-0.1,0.9-0.2,1.4-0.3,2c-0.1,0.3-0.1,0.6-0.2,1c-1,6.5-1.5,9.8-2.5,16.3h0.5 C951.62,641.5,952.12,638.2,953.12,631.6z"/>
    <path d="M546.45,592.5c-5.9-0.9-11.9-1.8-17.8-2.7c-8.4-6.4-16.8-12.8-25.3-19.1s-17-12.6-25.5-18.8c-12.8-9.4-25.7-18.6-38.6-27.8 c-8.6-6.1-17.2-12.2-25.9-18.3c-13-9.1-26-18.1-39.1-27.1c-8.7-6-17.4-12-26.1-17.9c-8.7-6-17.5-11.9-26.2-17.9v125.5 c69.19,3.6,138.09,11.4,206.68,21.5C534.56,590.7,540.55,591.6,546.45,592.5z"/>
    <path d="M978.12,370.9c0.1-0.3,0.2-0.6,0.3-0.9c-0.4-4.6-0.6-7-1.1-11.7c-0.3,0.1-0.5,0.1-0.9,0.1c-0.1,0.2-0.1,0.4-0.2,0.6 c0.2,0.1,0.4,0.1,0.8,0.2C977.42,363.9,977.62,366.2,978.12,370.9z"/>
    <path d="M934.52,485.9c1.1-0.6,1.7-0.9,2.9-1.5c0.1-0.1,0.1-0.1,0.2-0.2l0,0c14.4-15,28.4-30.3,42-46.1c-1.5,0.8-2.8,1.6-4,2.2l0,0 c-0.1,0-0.1,0.1-0.2,0.1c-3.2,1.7-5.7,3.1-9.7,5.3c-0.2-0.4-0.3-0.6-0.6-1.1c7.7-8.7,15.3-17.5,22.8-26.4c0.1,0,0.1-0.1,0.2-0.1 c0.2-0.1,0.3-0.2,0.5-0.2l0,0c0.1,0,0.1-0.1,0.2-0.1v-0.3v-0.1l0,0l0,0c1.2-1.4,1.8-2.2,2.9-3.6c-5.4,3.2-8.2,4.8-13.7,7.8 c-0.2-0.4-0.2-0.6-0.4-1.1c4-4.7,8-9.4,11.9-14.2c2.7-3.2,5.3-6.5,8-9.8c0.8-1,1.6-1.9,2.3-2.9c0.2-0.2,0.4-0.3,0.6-0.5l0,0 l0.1-0.1c0-0.1,0-0.1-0.1-0.2c1-1.3,2.1-2.5,3.1-3.8c-5.3,3.3-8,4.9-13.5,8.1c-0.1-0.4-0.2-0.6-0.4-1.1c4.2-4.1,8.4-8.2,12.6-12.3 c4.2-4.2,8.4-8.5,12.5-12.8c-2.1,1-3.1,1.4-5.2,2.4v0.1l0,0v-0.2c-0.1,0-0.1,0.1-0.2,0.1v-0.1c-0.8,0.6-1.2,0.9-2,1.4 c-3.4,1.8-5.1,2.7-8.5,4.3c-0.1-0.4-0.2-0.7-0.4-1.2c8.9-8,17.6-16.2,26.1-24.6c-0.2,0.1-0.3,0.2-0.5,0.3c0.1-0.1,0.2-0.2,0.3-0.3 c-1.6,0.8-2.4,1.3-3.8,2.1c0-0.1,0-0.1-0.1-0.2c-0.1,0.1-0.2,0.1-0.3,0.2c0-0.1-0.1-0.2-0.1-0.3c-2.4,1.6-3.5,2.3-5.9,3.9 c-1.4,0.8-2.2,1.2-3.6,2c-0.1,0.1-0.2,0.1-0.3,0.2c-0.2-0.4-0.3-0.6-0.4-1c5.3-7.3,8.2-11.2,13.2-18.3c0.4-0.4,0.8-0.8,1.2-1.1 c0.1-0.1,0.2-0.1,0.2-0.2c0.2-0.1,0.3-0.2,0.5-0.4c-0.1-0.1-0.1-0.1-0.2-0.2c0-0.2-0.1-0.3-0.1-0.4c0,0,0,0,0-0.1 c0,0.1,0.1,0.1,0.1,0.2c1.5-2.1,2.3-3.2,3.9-5.3c-0.3,0.2-0.5,0.5-0.8,0.7c0.1-0.2,0.2-0.3,0.4-0.5c-5.8,5.5-8.8,8.2-14.7,13.4 c-0.2-0.3-0.3-0.5-0.4-0.9c4-8.6,5.9-12.9,9.9-21.6c-0.2,0.3-0.5,0.5-0.7,0.8c0.1-0.2,0.2-0.4,0.3-0.6c-7,8.5-10.5,12.8-17.5,20.9 c-1.3-8.1-2-12.3-3.3-20.5c-0.1,0.3-0.2,0.5-0.3,0.8c0-0.2-0.1-0.4-0.1-0.6c-3.7,10.2-7.6,20.5-11.4,30.7c-0.1,0.3-0.2,0.5-0.3,0.8 c-0.9-5.4-1.3-8.2-2.1-13.3c0-0.2-0.1-0.5-0.1-0.7c-3.2,10.3-6.4,20.5-9.6,30.8c-0.5-4.9-0.7-7.7-1.2-12.8 c-0.1,0.5-0.2,0.9-0.3,1.2c0-0.3-0.1-0.7-0.1-1c-0.3,1.6-0.5,2.3-0.9,3.9h-0.1l0,0h-0.1c0.1,0.2,0.1,0.3,0.2,0.5 c-2.6,10.7-3.9,16.1-6.5,26.8c-1.7-5.9-2.6-8.9-4.4-14.8c-2.6,13-5.3,26-8,39l0,0c-1.8-6.1-2.7-9.1-4.6-15.2l0,0 c-1.9,9.4-3.9,18.7-5.8,28.1l0,0c-0.5,0.5-0.7,0.7-1.2,1.3c0.2-1.2,0.4-1.8,0.6-3c0-0.1,0-0.2,0.1-0.3c-1.4,0.3-2.7,0.6-4.1,0.9 c-0.1-0.2-0.1-0.3-0.2-0.4c0,0.1,0,0.1-0.1,0.2c0-0.1,0-0.1-0.1-0.2c-0.2,0.7-0.2,1.1-0.4,1.9c-0.3,1.3-0.5,2-0.8,3.3 c-0.3,1.2-0.5,1.8-0.8,3l0.2-0.2c-0.1,0.2-0.1,0.4-0.2,0.7c0.4-0.3,0.6-0.5,1-0.8c0.7-0.7,1.1-1,1.8-1.7l0.8-0.8 c0.9-0.8,1.3-1.2,2.2-2c0.6-0.4,0.9-0.6,1.4-1.1c1.3-1.3,1.9-2,3.1-3.3c-2.5,9.9-5.1,19.8-7.7,29.7c0,0.5,0.1,1,0.1,1.5 c0,0.1-0.1,0.2-0.1,0.3c0-0.5-0.1-1.1-0.1-1.8c-0.2,1.1-0.4,1.6-0.6,2.7c0,0.1,0,0.2,0,0.4c-1.2,4.4-1.8,6.7-2.9,11.2 c0.2-0.4,0.4-0.8,0.6-1.1c0,0.1-0.1,0.2-0.1,0.3c-0.1,0.3-0.3,0.5-0.4,0.8c-0.5,1.5-0.7,2.4-1.1,3.9c0,0,0,0.1-0.1,0.1 c-1,4.1-1.5,6.1-2.6,10.2c0.1,0,0.1-0.1,0.2-0.1C934.62,485.8,934.52,485.9,934.52,485.9z"/>
    <path d="M994.82,574.7c0.2,1.3,0.4,2.4,0.6,3.4c0.5,3.2,1,5.7,1.6,9.7l0,0c1.2-1.1,2.4-2.1,3.6-3.2c-2.2-3.8-3.4-5.8-5.8-9.7 C994.82,574.8,994.82,574.7,994.82,574.7z"/>
    <path d="M795.43,484.6c-6.2-4.2-9.3-6.4-15.2-10.6c0,0,0,0.1-0.1,0.1C786.23,478.3,789.43,480.5,795.43,484.6L795.43,484.6z"/>
    <path d="M902.92,384.8c4.2,6.3,6.3,9.4,10.4,15.6c-0.1-0.3-0.2-0.6-0.3-0.9c-3.8-5.8-5.9-8.9-9.9-14.9L902.92,384.8z"/>
    <path d="M220.98,443.2c-59.3,48.4-110.99,104.2-160.59,162.3c52.3-20.2,104.89-32.4,160.79-36.9 C221.08,526.8,221.08,485,220.98,443.2z"/>
    <path d="M969.02,818c1.4-0.1,2.5-1.8,2.5-3.7c0-0.1,0-0.1,0-0.1c0-0.1,0-0.1,0-0.2c0-1.9-1.1-3.5-2.5-3.4c-1.3,0.1-2.5,1.8-2.5,3.7 c0,0.1,0,0.1,0,0.1c0,0.1,0,0.1,0,0.2C966.52,816.5,967.72,818.1,969.02,818z M967.52,814.4c0-1.3,0.8-2.1,1.5-2.2 c1-0.1,1.5,0.9,1.5,2v0.1c0.1,1.1-0.7,2.3-1.5,2.3c-1,0.1-1.5-1-1.5-2.1V814.4z"/>
    <path d="M983.22,829.6c-1.9,0.1-2.9,0.1-4.7,0.2c0.1-0.2,0.2-0.3,0.2-0.5c0.1-0.1,0.1-0.3,0.1-0.4c0-0.3,0-0.8-0.2-1.1 s-0.4-0.5-0.8-0.5c-0.5,0.1-1.3,0.7-1.3,1.5l0,0h-0.2c-0.5,0.1-1.3,0.7-1.3,1.5c0,0.1,0,0.1,0,0.2c0,0.1-0.1,0.2-0.1,0.3 c0,0.3,0,0.8,0.2,1.1c0.2,0.1,0.5,0.2,0.8,0.3c0,0.1-0.1,0.2-0.1,0.3v0.1c-0.1,0.1-0.1,0.2-0.1,0.2c0,0.3,0,0.8,0.2,1.1 s0.4,0.5,0.8,0.5c0.1,0,0.1,0,0.2,0c0.5,0,0.9-0.5,1.1-1.2c0.1-0.2,0.1-0.4,0.1-0.6c0-0.2-0.1-0.4-0.2-0.6c0.1,0,0.2,0.1,0.3,0.1 c1.9,1.2,2.9,1.7,4.8,2.9c0.2-0.5,0.2-0.7,0.4-1.1c-0.1-0.1-0.2-0.2-0.3-0.3l0,0c-0.3-0.3-0.5-0.5-0.8-0.7c0.1-0.4,0.1-0.7,0.2-1.1 c0.4,0,0.6-0.1,1-0.1v-1.4c-0.1,0-0.1,0-0.2,0C983.32,830.1,983.32,829.9,983.22,829.6z"/>
    <path d="M944.72,813.1c1.4-0.1,2.5-1.7,2.6-3.6c0-0.1,0-0.1,0-0.1c0-0.1,0-0.1,0-0.2c-0.1-1.9-1.2-3.5-2.6-3.5 c-1.4,0-2.6,1.7-2.6,3.6c0,0.1,0,0.1,0,0.1c0,0.1,0,0.1,0,0.2C942.12,811.5,943.32,813.1,944.72,813.1z M944.72,807.3 c0.8,0,1.6,1.1,1.6,2.1c0,1.1-0.8,2.1-1.6,2.1s-1.6-0.8-1.6-2.1S943.92,807.3,944.72,807.3z"/>
    <path d="M945.22,803.5L945.22,803.5C945.32,803.5,945.32,803.5,945.22,803.5c1.5,0,2.7-1.7,2.7-3.6c0-1-0.3-1.9-0.8-2.5 c-0.4-0.6-1-0.9-1.7-1h-0.1l0,0c0,0,0,0-0.1,0c-1.4,0-2.6,1.7-2.6,3.6S943.82,803.5,945.22,803.5z M944.52,798.1 c0.2-0.1,0.5-0.2,0.8-0.2c0.8-0.1,1.6,1,1.6,2.1c0,1.4-0.8,2.1-1.6,2.1c-1,0-1.6-1.1-1.6-2.2c0-0.1,0-0.1,0-0.2 C943.82,799.1,944.12,798.5,944.52,798.1z"/>
    <path d="M897.93,813.6c1,0.4,2.1,0.6,3.3,0.7h0.1h1.8c4.8-0.4,8.7-3.7,8.7-7.2c0-1.1-0.4-2.2-1-3c0,0,0,0-0.1-0.1 c0-0.1-0.1-0.2-0.1-0.2c-0.3-0.4-0.7-0.7-1.2-1l0,0c-1.7-1.1-4.1-1.7-6.5-1.3c-0.2,0-0.4,0.1-0.7,0.1c-0.1,0-0.1,0-0.2,0 c-0.1,0-0.2,0-0.3,0.1c-0.8,0.1-1.6,0.4-2.3,0.7c-0.2,0.1-0.3,0.1-0.5,0.2c-0.1,0-0.1,0.1-0.2,0.1c-2.8,1.3-4.7,3.6-4.7,6.1 c0,1.1,0.5,2.2,1.1,3C895.93,812.6,896.83,813.2,897.93,813.6z"/>
    <path d="M956.52,822.8c0-0.1,0-0.2,0-0.3l0,0c0-0.3,0-0.8-0.2-1.1s-0.4-0.5-0.8-0.5c-0.6,0-1.2,0.6-1.4,1.4c0,0.1,0,0.2,0,0.3l0,0 h-0.2c0-0.1,0-0.2,0-0.3c-0.1,0-0.1,0-0.2,0c-0.6,0-1.2,0.6-1.4,1.4c0,0.3,0,0.8,0.2,1.1c0,0,0.1,0,0.1,0.1s0.1,0.2,0.1,0.2 c0.2,0.2,0.4,0.5,0.8,0.5c0,0-0.2,0.3-0.2,0.6v0.1l0,0c0,0.3,0,0.8,0.2,1.1s0.4,0.5,0.8,0.5c0.1,0,0.1,0,0.2,0 c0.6-0.1,1.2-0.7,1.2-1.5v-1.1c2,1.2,2.9,1.8,4.9,3.1c0.2-0.4,0.2-0.7,0.4-1.1c0,0,0,0-0.1-0.1c0,0,0-0.1,0.1-0.1 c-0.5-0.4-0.7-0.6-1.2-1c0.1-0.3,0.1-0.6,0.2-0.9c0.4,0,0.6,0,1-0.1v-1.5h-4.9C956.32,823.4,956.52,823.1,956.52,822.8z"/>
    <path d="M1024.21,608C1024.21,608,1024.21,607.9,1024.21,608l-0.2,0.1C1024.11,608.1,1024.11,608,1024.21,608z"/>
    <path d="M1010.02,599.5l0.1-0.1c-0.1-0.1-0.2-0.3-0.3-0.4C1009.92,599.1,1010.02,599.3,1010.02,599.5z"/>
    <path d="M1023.31,608.4c0.1,0,0.1,0,0.2-0.1c-0.1-0.2-0.3-0.4-0.4-0.6C1023.21,607.9,1023.21,608.2,1023.31,608.4z"/>
    <path d="M1199.9,734.1V155c-0.2,0.1-0.4,0.2-0.6,0.3v-0.1c-85.49,40.5-171.59,67-266.58,67.7c-56-0.3-106.19-3.2-152.79-7.8 c-60.49-6.1-120.79-15.2-180.19-25.7c-15.6-2.8-31.3-5.5-47-8c-9.6-1.5-14.5-2.3-24.3-3.8c-17.7-2.6-35.4-5-53.1-7.3 c-47.8-6.5-97.89-11.7-153.39-14v-0.1c-8.6-0.4-12.9-0.6-21.3-0.8v0.1c-10.3-0.4-20.5-0.5-30.8-0.5c-1.5,0-3,0-4.4,0 c-1.9,0-3.8,0-5.8,0c-51.5,0-103.49,8.5-156.49,25.4c-14.6,4.6-29.2,9.7-43.6,15.4c0.1,0,0.2,0.1,0.2,0.1l0,0 c-0.1,0-0.2-0.1-0.2-0.1c-3.9,1.6-7.9,3.3-11.8,5C32,207.5,16,214.8,0,222.9v820c36.7-18,73.89-32.9,112.39-43.7 c34.9-9.6,69.49-15.5,103.79-18.2c12.3-0.8,24.5-1.4,36.8-1.6c2.2,0,4.5,0,6.7,0c28.7,0,55.9,0.8,81.79,2.1 c28.4,1.7,56.8,4.4,85.09,7.3c-0.4-0.1-0.8-0.1-1.1-0.2c0.4,0.1,0.8,0.1,1.2,0.2c0.6,0.1,1.1,0.1,1.6,0.2c-0.6,0-1.3-0.1-1.9-0.2 c85.69,9.5,170.09,25.6,255.38,37.5c21.4,2.9,42.8,5.5,64.29,7.8c57.8,6.6,120.69,11,193.88,11c84.59,0,170.79-22,259.98-66.9 V814.7c0-0.1,0.1-0.1,0.1-0.2v-80.6C1200,734,1199.9,734,1199.9,734.1z M522.46,946.7c1.8,0,3.6,0.2,5.4,0.4 c24.9,3.6,44.6,18.6,63.49,34.1c-35.7-5.8-71.89-11.6-109.99-16.7C493.96,955,506.86,946.5,522.46,946.7z M681.44,956 c-32.6-4.4-59.8-19.8-84.79-40.6c-20.5-17-41.5-34.7-68.79-38.5c-40-5.6-61.59,46.5-101.29,41.6c-32.7-4-60.59-16.3-88.29-34.8 c-21-14.1-42.1-29.4-68.29-29.5c-38.1-0.1-48.6,55.5-83.89,59.3c-24.8,2.7-45.3-2.9-67.99-14.2c-18.4-9.2-35.6-17-56.2-8.8 C46.6,896.6,38,909.4,30,922.4V856c6-9.6,12.3-19,21.3-25.7c3.1-2.2,6.5-4.2,10.3-5.7c20.5-8.3,37.6-0.6,56,8.5 c11.8,5.7,22.9,10,34.3,12.4c10.9,2.3,22,3,34.2,1.6c35.3-3.9,45.8-59.5,83.99-59.4c10.6,0,20.4,2.6,29.6,6.5 c13.5,5.8,26,14.6,38.4,22.9c22.5,15.1,45.1,26,70.49,31.7c5.9,1.3,11.9,2.4,18.1,3.2c39.7,4.9,61.29-47.2,101.29-41.6 c2.5,0.4,5,0.8,7.4,1.4c23.5,5.7,42.5,21.6,60.99,37c14.9,12.4,30.5,22.8,47.6,30.2c11.7,5.1,24,8.7,37.3,10.5 c40.4,5.5,60.69-46.8,100.99-43c4,0.4,7.9,1,11.7,1.9c41.9,9.8,72.39,46.6,114.49,56.8c3,0.7,6.1,1.3,9.3,1.8 c0.1-17.5,0.3-35.1,0.4-52.6c-10.7-0.8-20.9-1.8-31.3-4.5c-0.4-0.1-0.7-0.2-1-0.3c0.5,0.1,1,0.2,1.6,0.3 c10.3,2.7,20.6,3.8,31.2,4.5h1v0.2c-0.4,47.9-0.8,95.9-1.2,143.9c0,7.4,1.3,12.8,3.1,16.4c-0.4,0-0.9,0-1.3,0 c-1.7-3.7-2.8-9.1-2.8-16.3c0.1-10.1,0.1-15.1,0.2-25.1l0,0c-50.8-8.1-83.69-55.9-135.29-60.5 C741.94,909.3,721.94,961.5,681.44,956z M881.83,693.2c0,1.2-0.3,2.2-0.8,3.1c-0.8,1.4-2,2.2-3.3,2.2c-2.4-0.1-4.1-2.6-4.3-5.7 c-0.2-2.2,2.5-4,3.6-4.7c0.3-0.2,0.5-0.3,0.5-0.3C879.93,687.9,881.63,690.4,881.83,693.2z M901.12,692.5c0.1,0,0.3,0,0.4,0 c2.3,0.1,4,2.6,4.2,5.3l0,0c0,0.1,0,0.3,0,0.4c-0.2,2.8-2,5-4,5l0,0l0,0c-2.3-0.1-4-2.6-4.2-5.6l0,0l0,0c0-0.2,0-0.3,0-0.5l0.7-2.4 c0.1-0.2,0.2-0.3,0.3-0.5c0.3-0.5,0.7-0.9,1.1-1.2L901.12,692.5z M865.03,708.9c-2.6-0.7-4.5-3.4-4.5-6.7c0-1.3,0.3-2.6,0.8-3.6 c-0.3,0.9-0.5,2-0.5,3.1c0,3.4,2,6.4,4.6,6.8C865.33,708.6,865.13,708.8,865.03,708.9z M857.93,707.8c0.9,0.1,1.8,0.5,2.6,1.3 c0.2,0.2,0.4,0.3,0.5,0.5c0.9,1.1,1.3,2.5,1.3,3.9c0.2,3.2-1.7,5.3-4.2,5.2c-1.3-0.1-2.5-0.9-3.3-2.2l0,0c-0.1-0.1-0.1-0.2-0.1-0.3 c-0.5-0.9-0.9-2.1-0.9-3.3C853.73,710,855.73,707.6,857.93,707.8z M866.43,706.8c-0.2-0.1-3.4-2.1-4.2-4.6 c-0.1-0.4-0.1-0.7-0.1-1.1c0-0.9,0.1-1.7,0.4-2.5c0.6-1.4,1.6-2.4,2.7-2.7c0.3-0.1,0.6-0.1,0.9-0.1c1.1,0.1,2.2,0.7,3.1,1.8 s1.3,2.5,1.3,3.9s-0.4,2.7-1.3,3.8C868.63,706.3,867.53,706.8,866.43,706.8L866.43,706.8z M874.33,700c-1.6-1.3-2.7-3.3-2.7-5.8 c0-2.4,1-4.4,2.4-5.6c-1,1.2-1.7,3-1.7,5c0,2.5,1.1,4.9,2.9,5.9C874.93,699.8,874.63,699.7,874.33,700z M885.73,694.7 c-0.3-2.8,3.4-5,3.9-5.3h0.1c1.1,0,2.1,0.6,3,1.7c0.8,1.1,1.3,2.5,1.3,3.9c0,3-1.9,5.4-4,5.3l0,0 C887.73,700.2,885.93,697.7,885.73,694.7z M915.22,564.1c-0.8-0.1-1.7-0.3-2.5-0.5c-5.6-1.3-10.7-2.8-15.7-4.4 c-0.3-0.1-0.7-0.2-1-0.4c-0.1,0-0.1,0-0.2-0.1c-3.5,7.3-5.2,11-8.7,18.3c-0.4-0.1-0.6-0.2-1.1-0.3c0.3-6.1,0.5-9.2,0.8-15.2 c-0.3,5.7-0.4,8.8-0.6,14.3c0,0.2-0.1,0.4-0.1,0.6h0.1c0,0.1,0,0.1,0,0.2l0,0l0,0c0.3,0.1,0.5,0.2,0.9,0.3c0.4-1.8,0.6-2.8,1.1-4.6 c0-0.1,0-0.1,0-0.2c4.9-10.2,9.8-20.2,14.6-30.4c0.3,0.1,0.5,0.2,0.7,0.3c-0.2,4.6-0.2,6.9-0.4,11.4c-0.5,2.3-0.8,3.6-1.4,5.7l0,0 c0,0.2-0.1,0.4-0.1,0.6c0,0,0.1,0,0.1,0.1l0,0l0,0v0.1l0,0v0.1c0.4,0.1,0.6,0.2,1,0.4l0,0c0-0.1,0-0.2,0.1-0.3 c0.4-1.8,0.6-2.7,0.9-4.6c0-0.2,0.1-0.4,0.1-0.6c0-0.1,0.1-0.2,0.1-0.3c7.4-15.7,14.6-31.5,21.6-47.3v-0.8 c-2.4,0.5-3.7,0.7-6.1,1.3c-0.7,0.1-1.1,0.2-1.8,0.3c-0.6,0.7-1.2,1.2-1.7,1.8c0.5-0.6,1-1.2,1.7-1.9c-3.2,0.6-4.8,0.9-8,1.5 c-6.6,3.4-9.9,5-16.6,8.3c7.4-1.1,11.1-1.7,18.4-3l0,0c-7.3,1.3-11,1.9-18.5,3.1c-1.5,0.8-2.3,1.2-3.7,1.9c-0.1,0-0.3,0-0.4,0.1 c-1.4,0.7-2.1,1.1-3.3,1.8h-0.1c1.4,0.2,2.2,0.3,3.5,0.4c0.1,0.4,0.1,0.7,0.2,1c-8.9,4.5-17.9,9-26.9,13.3 c-1.5,0.1-2.3,0.2-3.7,0.3l0,0l0,0c-0.2,0-0.3,0-0.5,0v0.2c-0.1,0-0.1,0.1-0.2,0.1c0.1,0.3,0.1,0.5,0.1,0.8 c-12.6-8.3-24.9-17-38.3-23.9l0,0c-0.2-0.1-0.4-0.2-0.6-0.3c-3.2,1.2-4.8,1.8-7.9,2.9c-0.1-0.2-0.2-0.4-0.4-0.8 c1.3-1.5,1.9-2.4,3.2-3.8c-0.2-0.1-0.4-0.2-0.5-0.2c0.1-0.1,0.2-0.3,0.4-0.4c-1.3-0.6-2.8-1.2-4.2-1.7h-0.1 c-0.1,0.1-0.2,0.1-0.3,0.2c-6.4,3.6-9.6,5.4-16,9c-0.1-0.2-0.2-0.4-0.3-0.5h-0.1c-0.3-0.5-0.4-0.7-0.7-1.2 c3.6-4.2,5.3-6.3,8.9-10.4c-0.2,0-0.5,0-0.5,0c-8,6-12.1,9-20.1,14.9l0,0c-0.3-0.5-0.4-0.7-0.7-1.2c4.1-6.3,6.2-9.6,10.1-15.7 c0.1-0.2,0.3-0.4,0.4-0.6h-0.1c-1.9-0.4-3.6-0.6-5.6-0.9c-0.5-0.1-1-0.2-1.5-0.3c-0.1,0-0.3,0-0.4-0.1l0,0 c-0.9,0.3-1.7,0.6-2.6,0.9c-6,2.1-9.8,3.4-16.5,5.7l0,0c-0.2-0.4-0.3-0.6-0.4-0.9l0,0c2.5-1.8,4-2.9,6.1-4.4 c-0.2,0-0.4,0.1-0.6,0.1c0.6-0.4,1.2-0.9,2-1.4c-33.8,4.4-55.5,48.7-91.49,42.4c-30.2-5.3-55.3-17.5-78.79-37.2v-66 c16.3,13.8,33.4,24.1,52.3,30.8c8.7,3.1,17.7,5.4,27.2,6.9c39.5,6.3,61.99-47.4,101.39-42.5c1.6,0.2,3.2,0.4,4.8,0.7 c24.8,4.4,45.4,16.9,66.69,31.4c0.5,0.3,1,0.7,1.5,1c0.5,0.2,1,0.5,1.5,0.7c-0.5-0.3-1-0.7-1.5-1c0.3,0.1,0.6,0.3,0.9,0.4 c4.6,2.2,6.9,3.3,11.3,5.4c-2.9-4.8-4.5-7.5-7.5-12.6c-2.1-0.9-3.2-1.3-5.3-2.2c0.1-0.5,0.1-0.8,0.2-1.4l0,0 c-0.1,0.3-0.1,0.6-0.1,1.1h0.1v0.1c0.1,0,0.1,0,0.2,0c2,0.9,3.1,1.3,5.1,2.1c0.1,0,0.1,0,0.2,0.1c-0.3-0.3-0.4-0.5-0.7-0.9 c0.1-0.2,0.1-0.3,0.2-0.5c-0.2,0-0.3,0-0.5-0.1v-0.1c0.1,0,0.2,0,0.3,0h0.1c0.1,0,0.1,0.1,0.2,0h-0.1c0.2-0.2,0.2-0.3,0.3-0.5 c0.4,0.2,0.7,0.4,1.1,0.6h0.1c0.5,0.5,0.8,0.7,1.3,1.2l0,0c2.3,1.5,3.4,2.3,5.7,3.9c5.8,4,8.7,6,14.4,9.9l0,0c0.1,0,0.1,0,0.2,0 c1.4-0.2,2.2-0.2,3.6-0.4l0,0c0,0,0,0,0-0.1h0.1c-0.5-0.9-0.8-1.3-1.3-2.2c-0.4-0.8-0.6-1.2-1.1-2l0,0c-1.5-2.5-2.2-3.7-3.6-6.1 l-0.1-0.1c11,5.2,22,10.4,33,15.5c0.4,0.3,0.6,0.5,1,0.8c1.3,0.1,2,0.2,3.3,0.3l0.1,0.1l0,0l0,0c-1.3-0.1-2-0.2-3.3-0.3 c1,0.7,1.5,1,2.5,1.7c1,0.1,1.5,0.2,2.5,0.3h-0.1c-1-0.1-1.5-0.2-2.5-0.3c4.2,2.9,6.3,4.3,10.4,7.2l0,0l0,0 c0.5,0.4,0.7,0.7,1.2,1.1l0.8-0.8l0,0l0,0l0,0c0,0,0,0,0-0.1c-0.1-0.2-0.3-0.4-0.4-0.6h0.8v-0.2h0.3V489c0-0.1,0-0.1,0-0.1l0.1-0.1 c1.6-1.4,2.5-2.2,4.2-3.8c4.8-18.2,9.5-36.5,14.1-54.7c0-0.1,0-0.2,0.1-0.3c-4,3.9-6.2,6.1-10.1,9.9c3.3-12.6,6.6-25.3,9.7-38.1 c-0.2,0.2-0.3,0.3-0.5,0.5c0-0.1,0-0.2,0.1-0.3c-4,3.9-6.2,6.1-10.1,9.9c-0.2,0.2-0.3,0.3-0.5,0.4c3.2-12.6,6.5-25.1,9.6-37.6 c0.1-0.2,0.1-0.4,0.2-0.7c-4,4-6.1,6.1-10.1,10c-0.1,0.1-0.2,0.2-0.3,0.3c2.3-10.6,3.4-16,5.6-26.6c0.1-0.1,0.1-0.2,0.2-0.2 c0,0,0-0.1,0.1-0.1c0-0.1,0.1-0.1,0.1-0.2l-0.1-0.1c0-0.1,0-0.1,0-0.2c0,0,0,0.1,0.1,0.1c0.3-1.5,0.5-2.3,0.8-3.9 c0,0.1-0.1,0.1-0.1,0.2c0,0,0,0,0-0.1c-2.9,4.2-4.4,6.5-7.2,10.6c1.5-11.1,3-22.1,4.5-33.1l-0.1,0.1l0,0c-0.4,0.5-0.8,1-1.1,1.5 c-2.2,3-3.8,5-6.1,8.1c-0.3,0.3-0.5,0.7-0.8,1.1c0.7-11.2,1.5-22.5,2.2-33.7l-0.1,0.1l0,0c-4.9,6.2-7.5,9.4-12.4,15.3 c-0.2,0.2-0.3,0.4-0.5,0.6c-2.9-8.7-5.7-17.4-8.6-26.1c-0.3-0.9-0.6-1.7-0.9-2.6c0,0,0,0,0-0.1c0.2,8.8,0.4,14,0.7,21.5 c0,1,0.1,2.1,0.1,3.3c0,0.6,0,1.2,0.1,1.8c-2-4.1-3.6-7.2-5.1-10.3c-0.9-1.9-1.8-3.8-2.7-5.8h-0.1l0,0c0,0,0,0-0.1,0 c-0.5-1-1-2.1-1.6-3.2c-0.4-0.7-0.7-1.5-1.1-2.3c-0.2-0.4-0.4-0.8-0.6-1.2c0.8,2.9,1.1,4.3,1.9,7.2v0.3c2.2,9,3.5,14.1,5.5,22.2 c0.3,1,0.5,2.1,0.8,3.2l-0.3,0.3c-1.4-1.8-2.2-2.9-3.7-4.9c1.2,1.7,2.3,3.4,3.4,5.2l0,0c-1.1-1.7-2.3-3.4-3.4-5.1 c-1.5-2.2-2.3-3.3-3.8-5.6c-0.2,0.1-0.3,0.2-0.4,0.3l-0.1,0.1l0,0c0-0.1,0.1-0.1,0.1-0.2c-1.4-1.9-2.2-2.9-3.6-4.8 c0.4,0.8,0.7,1.5,1,2.3c-0.5-0.7-1-1.3-1.6-2.2c5.6,12.1,11.1,24.2,16.6,36.3l-0.5,0.5c-2.8-3.5-4.3-5.4-7.3-9 c0.4,0.7,0.8,1.3,1.2,2c-0.1-0.1-0.2-0.2-0.3-0.4c-0.3-0.5-0.6-1-1-1.5c-0.4-0.7-0.6-1-1-1.7c-0.1,0.1-0.1,0.2-0.2,0.3 c-0.1-0.2-0.2-0.3-0.3-0.6c-0.1,0.1-0.1,0.1-0.1,0.2c-1.6-1.9-2.4-3.1-4.1-5.2c0.1,0.1,0.1,0.3,0.2,0.4c-0.2-0.2-0.4-0.4-0.6-0.7 c4.9,12.1,9.8,24.3,14.6,36.5c-0.3,0.3-0.4,0.4-0.7,0.7c-3.8-5.8-5.9-8.9-9.9-14.9c0,0.2,0.1,0.3,0.1,0.5c-0.2-0.3-0.4-0.5-0.5-0.8 c4.1,14.2,8.1,28.3,12.1,42.5c-0.2,0.2-0.4,0.4-0.6,0.6c-3.9-5.9-6-8.9-10.2-14.9c0,0.1,0,0.1,0,0.2c-0.1-0.1-0.2-0.2-0.2-0.4 c0.6,2.1,0.9,3.1,1.5,5.2c0.1,0.1,0.1,0.2,0.2,0.3c3.5,12.3,7,24.6,10.4,36.9l-0.7,0.7c-4-6-6.1-9-10.3-15.2 c4.3,15.3,8.6,30.5,12.9,45.8c1.8,6.5,3.6,12.9,5.4,19.4c1.9,3,2.9,4.5,4.8,7.4c-0.1,0.7-0.1,1.1-0.2,1.8c0,0.1,0,0.1,0,0.2 c-2-3-3.2-4.9-5.4-8.3c0-0.1-0.1-0.2-0.1-0.4c-0.6-2-1.1-4-1.7-6c-2-7.2-4-14.4-6-21.7c-0.1-0.1-0.2-0.3-0.3-0.4c0,0,0,0,0-0.1 c-0.3-1.2-0.5-2-0.9-3.4c-0.1-0.3-0.2-0.7-0.3-1c0.1,0.1,0.1,0.2,0.2,0.4c0,0.1,0.1,0.1,0.1,0.1c-2.7-9.6-4.1-14.4-6.8-23.9 c0-0.1-0.1-0.2-0.1-0.3c-0.1,0-0.1,0-0.2,0c-7.4-2.1-14.4-4.5-21-7.8v0.1c0,0.1,0,0.1,0,0.2c-0.2-0.1-0.5-0.2-0.7-0.3 c-4.1-2.2-8.1-4.3-12.1-6.5c-0.2-0.1-0.4-0.2-0.6-0.4c0,0,0,0-0.1,0c4.8,7.8,9.5,15.7,14.2,23.6c0.4,0.7,0.8,1.3,1.2,2 c-0.6-6.2-1-9.8-1.5-15c0.5,1.5,0.8,2.6,1.3,4.3c0.6,6.1,0.9,9.1,1.5,15.2c-6.9-11.4-13.6-22.7-20.5-34c0-0.1,0-0.1-0.1-0.2 c-0.4-1.6-0.7-2.5-1.1-3.9c-0.1-0.2-0.1-0.4-0.2-0.6c-0.1,0-0.1,0-0.2,0.1c0-0.1-0.1-0.1-0.1-0.2c0,0,0,0,0-0.1l0,0 c-0.2,0.1-0.4,0.2-0.6,0.3c-0.1,0.1-0.2,0.1-0.4,0.2c0,0-0.1,0-0.1,0.1c0.1,0.2,0.1,0.4,0.2,0.6c0.2,0.6,0.4,1.2,0.6,1.7 c0.3,1,0.6,1.9,1,3.2c0.5,5.1,0.8,7.7,1.3,12.9c-0.4,0.2-0.5,0.3-0.9,0.5c-5-9.5-10.1-18.9-15.3-28.4v-0.1 c-0.4-1.6-0.5-2.3-0.9-3.9h-0.1c0-0.1,0-0.1-0.1-0.2c0.1,0,0.1-0.1,0.2-0.1c0-0.1-0.1-0.1-0.1-0.2c-0.3,0.1-0.5,0.2-0.8,0.3 c-0.1,0-0.1,0-0.2,0.1c0,0,0,0,0,0.1h-0.1c0.5,3.3,0.7,5,1.1,8.3c0.1,0,0.1,0.1,0.2,0.1c-0.3-2.1-0.4-3.5-0.6-5.2 c0.4,2.2,0.8,4.1,1.4,7c0.4,3.3,0.7,5,1.1,8.3c-0.4,0.2-0.6,0.3-1,0.5c-5.1-9.5-10.3-18.9-15.5-28.3c0-0.1,0-0.1,0-0.2 c-0.3-1.4-0.4-2.2-0.6-3.5c0-0.2-0.1-0.5-0.1-0.7c-0.1,0-0.2,0.1-0.2,0.1l0,0c0-0.1,0-0.2,0-0.3h-0.1l0,0c-0.4,0.1-0.5,0.1-0.9,0.2 c0,0.1,0,0.2,0,0.2s-0.1,0-0.1,0.1c0.1,0.4,0.2,0.7,0.2,1c0.1,0.5,0.2,1.1,0.4,1.6c0.6,2.5,1,4.4,1.7,7.4c0.4,4.2,0.6,6.3,1.1,10.5 c-6.6-8.4-13.2-16.9-19.9-25.3c0,0,0-0.1-0.1-0.1c-0.8-1.7-1.2-2.6-2-4.2c0,0,0-0.1-0.1-0.1c0,0-0.1,0-0.1,0.1 c0-0.1-0.1-0.1-0.1-0.2V366c-0.2,0.2-0.4,0.3-0.5,0.4c-0.1,0-0.1,0.1-0.2,0.1l0,0c-0.1,0-0.1,0.1-0.2,0.2c0.2,0.5,0.4,0.9,0.6,1.3 c1.1,3.5,1.7,5.5,2.9,9.4l0,0c0-0.1-0.1-0.2-0.1-0.3c-11.9-5.9-24.7-9.8-37.9-11.1c-40.6-4-61.99,48.7-101.49,42.4 c-30-4.8-55.5-17.8-79.09-37.9v-44.3l0,0v-22c3,2.5,5.9,4.9,9,7.2c21,16.1,43.9,26.6,70.09,30.8c39.5,6.4,60.99-46.3,101.59-42.3 c4.4,0.4,8.6,1.2,12.8,2.2c39.9,9.8,68.69,43.2,108.09,55.7c0-0.1,0-0.2-0.1-0.3l0.1-0.1c0.2,0,0.3,0.1,0.4,0.2 c-0.1-0.2-0.1-0.3-0.1-0.5l0.4-0.4c0.6,0.8,0.9,1.2,1.5,2c3.2,4.7,4.8,7,7.9,11.7c-0.1-0.2-0.1-0.4-0.2-0.5 c0.1,0.1,0.1,0.2,0.2,0.3c-1.7-4.3-2.5-6.5-4.3-10.8c-0.1,0-0.1,0-0.2,0c-0.1-0.2-0.2-0.4-0.3-0.6c-3.8-9-5.8-13.8-9.7-23.2 l0.7-0.7c0-0.1-0.1-0.2-0.1-0.3l0.8-0.8c4.3,5.3,6.8,8.4,10.4,12.9c-4.9-11-9.9-22-15-32.9c0.3-0.2,0.5-0.4,0.8-0.7l0.1-0.1 c5.4,6.9,8,10.3,13.3,17.1c-0.2-0.9-0.4-1.7-0.6-2.6c-2.7-10.8-5.4-21.7-8.2-32.5c0.3-0.2,0.5-0.3,0.7-0.5c0-0.2-0.1-0.4-0.1-0.5 c0.3-0.2,0.5-0.3,0.8-0.5c4.4,8.7,6.6,13.3,10.6,21.6c-0.3-8.7-0.5-13.8-0.7-23.1c0.3-0.1,0.4-0.1,0.6-0.2c0-0.3,0-0.5,0-0.8 c0.4-0.1,0.6-0.2,1-0.3c3.3,10.1,6.6,20.2,9.9,30.3c5.4-6.8,8-10.1,13.2-17c-0.8,11.2-1.6,22.5-2.4,33.7c3.4-4.5,5.1-6.8,8.5-11.3 c-1.5,10.9-3,21.8-4.5,32.7c2.5-3.9,3.8-5.8,6.3-9.7c0.3,0.2,0.5,0.3,0.8,0.5c-1,4.8-1.5,7.3-2.5,12.1c35.3-4.8,44-55,78.59-61 c21.2-3.7,38,6,56.5,14.8c23.6,11.3,44.2,12.8,68.09,3.7c9.8-3.7,18.1-9.2,25.4-15.7v64.6c-6.8,7.7-14.8,14.1-25.1,17.9 c-24.3,8.9-44.3,7.5-67.99-3.7c-18.6-8.8-35.3-18.2-56.7-14.7c-0.7,0.1-1.6,0.3-2.3,0.4c-0.1-0.2-0.1-0.3-0.2-0.5 c-1.2,0.7-1.8,1-3,1.6c-1.5,0.5-3.1,1.2-4.5,1.9c-1.5,0.7-2.9,1.5-4.3,2.4l0,0c-1.2,0.6-2,1-3.1,1.6c-0.2,0.2-0.4,0.4-0.6,0.5 c1.4-0.7,2.2-1.1,3.6-1.8c3.4-1.6,5-2.5,8.4-4.2c1.3-0.6,1.9-1,3.2-1.6c0.1,0.2,0.1,0.3,0.2,0.5c0.1,0.2,0.1,0.3,0.2,0.4 c-5.7,5.9-11.5,11.8-17.2,17.6c-2.3,2.3-4.6,4.5-6.8,6.8c1.2-0.8,2.3-1.4,3.2-2c2.2-1.4,4.1-2.5,6.3-4c0.8-0.5,1.5-1,2.4-1.5 c0.2,0.4,0.3,0.7,0.4,1.1c-8.4,10.5-16.9,20.9-25.6,31.2c0.1-0.1,0.3-0.1,0.4-0.2c-0.2,0.3-0.5,0.5-0.7,0.8 c5.6-3.2,8.3-4.9,13.7-8.2c0.2,0.4,0.4,0.7,0.5,1c-8.5,10.4-17.3,20.7-26.2,30.8c0.1-0.1,0.2-0.1,0.3-0.2c-0.1,0.2-0.3,0.3-0.4,0.5 c5.6-3,8.4-4.5,13.9-7.6c0.2,0.4,0.3,0.7,0.3,1c-0.6,0.7-0.9,1.1-1.5,1.9l0,0v0.2l-0.1,0.1l0,0c-0.1,0.1-0.2,0.1-0.4,0.2 c0,0.1-0.1,0.1-0.1,0.2c-0.6,0.7-0.9,1.1-1.6,2c-0.1,0.2-0.3,0.4-0.4,0.6c0.1-0.1,0.2-0.2,0.2-0.3c0.7-0.8,1-1.2,1.7-2.1l0,0 c-0.6,1.4-1,2.2-1.5,3.7l0,0c-0.1,0.1-0.2,0.2-0.2,0.3c0-0.1,0.1-0.2,0.1-0.3c-7.3,9.6-14.6,19.1-22.2,28.4 c-0.3-0.3-0.5-0.5-0.6-0.7c0.6-2.1,0.9-3.2,1.5-5.2c-0.1,0.1-0.1,0.1-0.2,0.2c0,0.1-0.1,0.1-0.1,0.1c0-0.1,0.1-0.3,0.1-0.4 c-1,1.1-1.5,1.7-2.5,2.8c-0.1,0.1-0.1,0.3-0.2,0.4c-0.8,0.8-1.3,1.3-2.2,2.3c0,0.1-0.1,0.1-0.1,0.2l0,0l-0.1,0.1 c-5.5,6-8.3,8.9-14,14.8c-2,0.9-3,1.3-5,2.2c0,0-0.1,0-0.1,0.1l0.1-0.1c0.1-0.1,0.2-0.2,0.4-0.3c-0.1,0-0.2,0.1-0.3,0.1l-0.1,0.1 c-0.1,0.1-0.2,0.2-0.3,0.3c-0.1,0.1-0.1,0.1-0.2,0.2c-1.5,1.8-2.5,2.9-4.2,4.8c1.5,2.7,2.3,4.1,3.8,6.8c0.1,0.1,0.1,0.2,0.2,0.3 l0,0c-0.2,0.2-0.4,0.4-0.6,0.6c0.2-0.5,0.2-0.7,0.3-1c-0.1,0-0.2,0-0.3-0.1v-0.3c-0.4,0-0.6,0-1,0c-1.4-2.6-2.2-3.9-3.5-6.5 c-1.2-0.8-2.2-1.6-3.2-2.2c-3.9-2.8-6.7-4.8-11.5-8.2c-9.9-4.7-19.9-9.3-29.8-14c3.4,5.7,5,8.6,8.4,14.3c-0.3,0.4-0.4,0.6-0.6,1.1 c-9.6-6.9-19.4-13.6-29.1-20.4c0,0.1,0.1,0.1,0.1,0.2c-0.1-0.1-0.3-0.2-0.4-0.3c3.5,6.1,5.3,9.3,8.7,15.2 c-10.7-5-21.4-10.1-32.1-15.2c0,0.1,0.1,0.1,0.1,0.2c3.9,6.5,5.9,9.8,9.8,16.3c-0.2-0.1-0.4-0.2-0.6-0.3c-9-4.8-18.1-9.5-27.1-14.3 c0.1,0.1,0.1,0.2,0.2,0.3c-0.3-0.1-0.5-0.3-0.8-0.4c3.8,6.5,5.8,9.7,9.6,16.1c-9-4.9-18.2-9.6-27.2-14.5c0.1,0.1,0.1,0.2,0.2,0.3 c-0.3-0.1-0.5-0.3-0.8-0.4c3.9,6.5,5.8,9.7,9.5,16.1c-10.3-3-15.6-4.6-26.1-7.7c0.1,0,0.1,0.1,0.2,0.1c2.7,1.9,4.7,3.4,6.7,4.8v0.1 l0,0c0.2,0.1,0.5,0.2,0.7,0.4c2,1.4,4,2.9,6.7,4.7c-7.1,5.3-14.3,10.5-21.5,15.8c-0.6,0.2-1.2,0.5-1.7,0.7 c-0.2,0.1-0.3,0.1-0.5,0.2c-0.5,0.2-0.7,0.3-1.1,0.4c0.1,0.1,0.1,0.2,0.2,0.3c0,0.1,0,0.1,0.1,0.2c0,0.1,0.1,0.2,0.1,0.3 c-2,1.5-3.2,2.4-5.2,3.8c9.3-3.3,18.6-6.5,27.9-10c-0.1,0.2-0.2,0.4-0.4,0.6c0.3-0.1,0.5-0.2,0.8-0.3c-4.1,6.4-6.7,10.4-10,15.5 c-0.2,0.2-0.3,0.4-0.5,0.6c0,0,0,0,0.1,0.1c-0.9,1.4-1.9,2.9-3,4.6c-0.2,0.3-0.3,0.5-0.5,0.8c7.7-5.7,15.5-11.6,23.3-17.4 c0.2,0.3,0.3,0.5,0.5,0.9c-4.5,5.4-6.8,8.1-11.4,13.5c0.2-0.1,0.4-0.2,0.5-0.3c1.2-0.6,1.9-1.1,3.3-1.8c0,0,0,0.1,0.1,0.1 c0.3-0.3,0.4-0.5,0.7-0.8l0.1-0.1c9.7-5.4,14.5-8.1,24.1-13.7c0.1,0.1,0.1,0.2,0.2,0.4c0,0,0.1,0,0.1-0.1c0.3,0.4,0.4,0.6,0.7,1.1 c-4.6,5.5-7,8.4-11.3,13.7c9.2-3.4,18.4-6.8,27.5-10.4c0.1,0.2,0.2,0.3,0.2,0.4s0.1,0.1,0.1,0.2c0.1,0.2,0.1,0.4,0.2,0.6 c-4,3-6.1,4.6-10.2,7.7c0.4-0.1,0.8-0.2,1.1-0.3c-0.3,0.2-0.6,0.5-0.9,0.7c11-3.2,21.8-6.5,32.8-9.8c0.1,0.2,0.2,0.3,0.3,0.4 c0.1,0.2,0.1,0.4,0.3,0.6c-4.3,3.4-6.5,5.1-10.9,8.6c0.1,0,0.2,0,0.3,0c-0.1,0-0.1,0.1-0.2,0.1c1.2-0.2,2.4-0.3,3.7-0.5 c0,0.1,0.1,0.1,0.1,0.2c0.1-0.1,0.2-0.1,0.3-0.2c0,0,0,0,0,0.1c0.1-0.1,0.2-0.1,0.3-0.2c8.3-1.1,16.5-2.2,24.8-3.4 c1.4-0.2,2.7-0.4,4.1-0.5c-1.9,4.8-2.9,7.2-4.9,11.9c0.1,0,0.2-0.1,0.2-0.1v0.1c8.7-4.2,17.3-8.5,25.8-12.9 c0.6-0.1,1.2-0.2,1.8-0.3c5.4-0.9,8.6-1.4,14.4-2.5c0.4-0.4,0.7-0.7,1.1-1c1.2-1.1,2.1-1.9,3.4-3.1h0.1h1.4 c-0.8,0.8-1.4,1.4-2.4,2.4c-0.5,0.4-0.7,0.7-1.2,1.1c0.1,0,0.1,0,0.2,0l-0.1,0.1c1.9-0.4,2.9-0.7,4.7-1.1c0.1,0,0.1,0,0.2,0 c5.2,1.5,7.8,2.2,13,3.6c-0.1,0-0.2-0.1-0.3-0.1c0.1,0,0.1,0,0.2,0h0.1c9.7-1.9,19.3-4.2,28.9-6.6c0.1,0,0.1,0,0.2,0 c1.5,0.2,2.3,0.3,3.6,0.5c0.1,0,0.2,0,0.3,0c0.1-0.4,0.1-0.6,0.1-0.9c0-0.2,0-0.3,0.1-0.5c-0.1,0-0.1,0-0.2,0v-0.1 c-0.8,0-1.4-0.1-2-0.1c-1-0.1-1.9-0.2-3.2-0.3c0,0,0,0-0.1,0c-3.6-1.4-5.4-2.1-9.1-3.5v-1.4c9.8-2.3,19.6-4.8,29.4-7.6 c0.1,0,0.2,0,0.2-0.1c1.6,0,2.4,0.1,3.9,0.1l0,0h0.1h0.1c0.1,0,0.1,0,0.2,0v-1.4c-0.1,0-0.2,0-0.4,0c-0.6,0-1.1,0-1.5-0.1 c-0.3,0-0.6,0-0.9-0.1c-0.5,0-1-0.1-1.6-0.1c-0.2,0-0.4,0-0.6-0.1c-0.2,0-0.3,0-0.5,0c-3.4-1-5.2-1.7-8.7-2.8 c-0.1,0-0.2-0.1-0.3-0.1c0.1-0.6,0.1-0.8,0.2-1.4c9.4-2.6,18.9-5.5,28.2-8.7c0.1,0,0.2-0.1,0.3-0.1c0.2,0,0.4,0,0.5,0h3.8 c0.1-0.6,0.1-0.8,0.2-1.4c-0.1,0-0.2,0-0.3,0v-0.1c-0.4,0-0.8,0-1.1,0c-0.4,0-0.9,0-1.3,0c-0.8,0-1.6,0-2.6,0 c-3.4-1-5.1-1.5-8.4-2.5V466c9.8-2.4,14.6-3.6,24.1-6.4c-0.2,0-0.5-0.1-0.7-0.1c0.1,0,0.1,0,0.2-0.1c0.1,0,0.2,0,0.3,0 c1.3,0.2,1.9,0.3,3,0.4c0.1,0,0.2,0,0.3,0c0,0,0,0,0.1,0c0.1-0.6,0.1-0.8,0.2-1.4h-0.1v-0.1c-0.1,0-0.1,0-0.1,0 c-0.7-0.1-1.3-0.1-1.8-0.2c-2.3-0.2-4-0.4-6.7-0.7c-2-0.7-3-1-4.9-1.7c0.1-0.3,0.1-0.6,0.2-0.9c9.6-2.6,14.4-4,23.8-7 c-0.2,0-0.4,0-0.6-0.1c0.1,0,0.1,0,0.2-0.1c0.1,0,0.2,0,0.2,0c1.1,0.1,1.7,0.1,2.6,0.2c0.2,0,0.4,0,0.6,0c0.1-0.5,0.1-0.8,0.2-1.2 c0-0.1,0-0.1,0-0.2l0,0v-0.1c-0.4,0-0.8,0-1.2-0.1c-0.1,0-0.3,0-0.4,0c-2.4-0.2-4.1-0.3-6.9-0.6l0,0c-0.7-0.2-1.3-0.3-1.8-0.5 c-1.6-0.4-2.8-0.8-4.7-1.3l0,0c9-4.8,13.6-7.4,22.4-12.7c0.1,0,0.3-0.1,0.4-0.1c0.9-0.2,1.6-0.4,2.3-0.5c0.4-0.1,0.7-0.2,1.2-0.3 c-5.3,3.1-8,4.7-13.3,7.8h0.1c14.8,3,27.5,11.5,41.2,17.5c1,0.4,2,0.9,2.9,1.3c20.4,8.3,38.9,7,58.6-0.5 c9.5-3.6,17.5-8.9,24.6-15.2v64.1c-6.6,7.3-14.3,13.5-24.4,17.4c-24.9,8.4-44.2,7-67.69-4.1c-18.8-9.1-35.9-18.7-57.2-14.8 c-13.2,2.4-23.7,12.4-32.3,22.3l0,0c0.1,0,0.2,0.1,0.4,0.1c5.6,1.2,8.5,1.8,14,2.9v1.4l0,0v-1.3h-0.1V529c-1.6,0.2-2.4,0.3-4,0.5 c-9.9-2-19.6-4.2-29.4-6.6v-1.3c3.9-1.3,5.9-1.9,9.8-3.2c2.2-0.2,3.4-0.3,5.6-0.5v-0.8h0.1v0.8h0.1v-1.4c-0.1,0-0.1,0-0.2,0v0.5 c-0.1,0-0.1,0-0.2,0c-0.7,0.1-1.3,0.1-1.9,0.2c-0.6,0-1.2,0.1-2,0.2c-0.1,0-0.2,0-0.3,0c-3.7-0.9-7.4-1.7-11-2.7 c-0.7-0.2-1.3-0.3-2-0.5c-2.1-0.5-4.2-1.1-6.3-1.6c-9.4-2.5-18.7-5.1-28-7.8l0,0l0,0l0,0c-2.4,0.6-3.6,0.8-6,1.4v0.5 c-0.1,0.4-0.1,0.7-0.2,1.1v0.3c-0.3,0.7-0.5,1-0.8,1.6c0,0.2,0.1,0.3,0.1,0.4c0.3,1.7,0.5,2.7,0.9,4.5l0,0c0,0.1,0,0.2,0.1,0.4 c10.5,15.1,20.9,30.2,31.3,45.3c0.6,1.6,0.9,2.4,1.5,4c0.3-0.2,0.5-0.4,0.7-0.6c0.1,0.7,0.3,1.6,0.4,2.5c0,0.1,0,0.2,0,0.3 c-1.8-2.6-2.8-4-4.6-6.6c-0.3,0.3-0.8,0.5-1.2,0.8c-0.1,0-0.1,0.1-0.2,0.1c0.1,0.1,0.2,0.3,0.3,0.4c-1-0.7-1.6-1.3-2.8-2.1 c0-0.1-0.1-0.1-0.1-0.2c0.1,0.1,0.1,0.1,0.2,0.2c-6.4-8.4-12.8-16.7-19.3-25.1c0.2-0.4,0.4-0.7,0.6-1c2.6,1.3,3.9,1.9,6.4,3.2 c0-0.1-0.1-0.1-0.1-0.2c0.1,0,0.1,0.1,0.2,0.1c-0.3-0.4-0.5-0.6-0.8-1.1c-0.1-0.1-0.2-0.2-0.3-0.2c-0.7-1-1.2-1.6-2.1-2.9 c-4.3-6.4-6.6-9.7-11-16.1c-0.1-0.1-0.1-0.2-0.2-0.3c-0.2-1-0.4-1.5-0.6-2.5c-0.2-0.3-0.4-0.5-0.6-0.8c-1.2,2.8-1.9,4.2-3.2,7.1 c-0.2,0.5-0.4,0.8-0.6,1.3l0,0c-0.7,1.5-1,2.3-1.6,3.8c0.8,1.9,1.4,3.5,2,5c-0.6-1.5-1.2-3.1-2-5c-0.2,0.5-0.4,0.8-0.6,1.4 c-3.1,6.9-4.7,10.3-7.8,17.1c-0.5,2.7-0.8,4.2-1.2,6.6c-0.1,0.3-0.1,0.6-0.2,1c1.7-4.6,2.6-7.1,4.3-11.6c1,11.7,2.1,23.3,3.1,35 c-0.2,1.4-0.4,2.3-0.5,3.6C916.02,572.8,915.72,569.6,915.22,564.1C915.22,564.2,915.22,564.2,915.22,564.1L915.22,564.1z M864.03,542.8c0.2-0.1,0.5-0.2,0.7-0.3c2.3-1.1,3.7-1.7,6.1-2.9c-4.6-0.6-7.2-0.8-11.5-1.4c0.7-0.1,1.3-0.1,1.9-0.2 c1-0.1,1.9-0.2,3.2-0.3c0.2,0,0.3,0,0.5-0.1c3.3,0.3,5.2,0.5,8.4,0.6c0.1,0.5,0.1,0.8,0.2,1.3c-9,4.4-18.1,8.7-27.3,12.8 c-1.6,0.2-2.5,0.3-3.9,0.4c0-0.1,0-0.1,0-0.2C850.93,548.9,855.33,546.8,864.03,542.8z M321.97,281.8 c50.9-29.5,103.59-55.5,156.79-80.7c8.3,1.2,16.6,2.4,24.8,3.6c-59.4,28-118.59,56.4-175.79,89.1h0.1c-0.1,0-0.1,0.1-0.2,0.1 c16.6,0.9,33.1,2,49.7,3.3h0.1c0,0,0.1-0.1,0.2-0.1c31.9-16.7,64.39-32.4,96.89-47.8c26-12.3,52-24.5,77.89-36.8 c10.8,1.8,21.6,3.6,32.4,5.4c5,0.8,9.9,1.6,14.9,2.5c45.9,7.6,92.89,15.1,143.69,21.1c-21,14-39.2,35.2-65.19,31 c-9.3-1.5-18.1-3.8-26.6-6.8c-18.7-6.7-35.7-17.1-51.7-31v0.1c-0.1-0.1-0.1-0.1-0.2-0.2v1.2c-48.2,23.8-97.09,46.1-145.59,69.3 c-0.1,0-0.1,0.1-0.2,0.1c48.8,6,97.39,13.2,145.79,21.8c0,10.9,0,16.4,0,27.4c-98.79-17.5-198.68-30.4-299.08-33.9V185.6 c7.2,0.2,14.3,0.4,21.3,0.7L321.97,281.8L321.97,281.8z M821.83,388.9C821.83,388.9,821.93,388.9,821.83,388.9 c-1.4-4.6-2.1-6.9-3.6-11.5c-1.1-3.5-1.7-5.5-2.6-8.5c1.1,2.4,1.8,4,3.1,6.8c1.9,6.3,2.9,9.4,4.8,15.7c-8.6-4.6-12.9-6.9-21.5-11.6 c-1.7-1.4-2.5-2.1-4.2-3.5c0,0,0-0.1,0.1-0.1c2.9,1.6,5.3,2.9,7.6,4.1c5.3,2.9,9.7,5.2,16.4,8.8 C821.93,389,821.83,388.9,821.83,388.9z M803.53,385.9c-1.8-2.4-3.6-5-5.9-8.2c1.4,1.1,2.1,1.9,3.6,3.2l0,0 c5.6,7.9,8.5,12,14.3,19.9c-5.7-1-8.6-1.5-14.4-2.6c-4-1.2-6.2-1.8-9.8-2.8c8.5,1.5,13.1,2.3,21.8,3.7c-0.8-1-1.5-2-2.1-2.9 C808.13,392.3,805.93,389.2,803.53,385.9z M836.33,427.2v1.3c-2.5,0-3.8,0.1-6.3,0.1c-4.3-0.3-6.8-0.5-10.6-0.9 c5.2-0.2,8.3-0.3,13.8-0.4c-10.4-4-20.8-8-31.2-12.1v-0.1c1.7,0.2,2.7,0.2,4.5,0.4c0.2,0.1,0.4,0.2,0.6,0.2c-0.1,0-0.3,0-0.4,0 C816.53,419.6,826.43,423.4,836.33,427.2z M790.23,396.6C790.23,396.5,790.23,396.5,790.23,396.6 C790.23,396.5,790.23,396.5,790.23,396.6c1.9,0.6,2.9,0.9,4.8,1.4l0,0c8.6,5.2,17.3,10.3,25.9,15.4c-0.1,0.6-0.1,0.9-0.2,1.4h-5 c-0.4,0-0.7-0.1-1.1-0.1c-4.3-0.3-6.7-0.5-10.6-0.9c5.4,0,8.8-0.1,14.7-0.2c-7.4-4.4-14.9-8.8-22.3-13.3 C794.33,399.1,792.33,397.8,790.23,396.6z M904.92,438.1c0.5,1.9,0.8,3,1.4,5.1c0.7,6.1,1,9.2,1.7,15.2 c-6.6-11.4-13.4-22.7-20.1-33.9c0,0.1,0.1,0.2,0.1,0.3c-0.1-0.1-0.1-0.2-0.2-0.3c-0.5-1.7-0.8-2.6-1.2-4.2 c6.6,11.1,13.3,22.3,19.9,33.4v-0.1l0,0C905.82,447.2,905.52,443.7,904.92,438.1z M833.13,442.6 C833.23,442.6,833.23,442.6,833.13,442.6c2,0.4,3,0.5,5.1,0.9c11.3,5,22.7,10,34,14.9c-0.1,0.6-0.1,0.9-0.2,1.4 c-4.3,0.2-6.7,0.3-10.9,0.5c-0.2,0-0.4-0.1-0.6-0.1c-2-0.3-3.3-0.5-4.8-0.7c-0.4,0-0.7-0.1-1.2-0.1c5.6-0.3,8.7-0.4,14.3-0.7 c-12-5.1-23.8-10.4-35.7-15.7C833.13,442.8,833.13,442.7,833.13,442.6z M1169.9,231.3c-6.5,7.6-14.1,14-23.8,18.1 c-0.7,0.3-1.4,0.6-2.2,0.9c-24.3,8.9-44.4,7.7-68.09-3.7c-5.6-2.6-11-5.2-16.4-7.6c5.6-1.3,11.3-2.7,16.9-4.2 c30.5-8.1,61.89-19,93.59-32.7V231.3z M1169.9,779.7c-5.8,6.1-12.7,11.2-21.4,14.6c-24.9,8.5-44.5,7.1-68.19-3.8 c-6.5-2.9-12.8-6-19.2-8.5c-9.5-3.8-19-6.6-29.4-6.6c-3.2,0-6.5,0.3-10,0.9c-14.3,2.6-24.2,13.4-33.9,23.6c0.3-3,0.5-4.6,0.9-7.7 c2.8-0.8,4.9-4.6,4.9-8.7c0-3.3-1.3-5.9-3-7.1l0,0l0,0l0,0c0.6-5,0.9-7.5,1.5-12.4c1.4-0.2,2.7-1.4,3.5-3.1c0-0.1,0.1-0.2,0.1-0.3 c0,0,0,0,0-0.1c0.6-1.2,0.9-2.7,0.9-4.2c0-1.6-0.5-3.5-1.3-4.5s-1.9-1.7-3.2-1.6c-0.2,0-0.6,0.1-0.8,0.1c0-0.2,0.1-0.4,0.1-0.6 c0.1-0.3,0.2-0.6,0.3-1c0.1-0.2,0.2-0.3,0.3-0.5c0.4-0.9,0.7-1.6,1-2.5c0.1,0.3,0.2,0.6,0.4,0.9c0.3,0.7,0.7,1.3,1.2,1.8 c0.7,0.6,1.5,0.9,2.4,0.8h0.1c2.6-0.3,4.6-3.6,4.6-7.4c0-1.7-0.4-3.2-1.3-4.5c-0.3-0.4-0.7-0.8-1.1-1c-0.7-0.5-1.5-0.6-2.2-0.5 c-0.1,0-0.1,0-0.2,0c-0.1,0-0.1,0-0.2,0c-0.4,0.1-0.7,0.3-1,0.5c0.2-1.4,0.2-2.5,0.4-3.8c0.7,0.5,1.5,0.7,2.2,0.6 c1.2-0.1,2.3-0.8,3.2-2.3c0.8-1.5,1.3-3.2,1.3-5.1c0-0.9-0.1-1.7-0.4-2.5c-0.2-0.9-0.5-1.6-1-2.2c-0.2-0.2-0.3-0.4-0.5-0.6 c4.6-3.7,9.3-6.8,14.5-8.7c0.2-0.1,0.3-0.1,0.5-0.2l0,0c1.8-0.6,3.5-1.1,5.4-1.4c21.8-3.6,39,5.5,58.1,14.4 c23.3,10.9,43.7,12.9,67.09,4.2c0.3-0.1,0.6-0.2,1-0.3c0.3-0.1,0.7-0.3,1-0.4c8.1-3.2,15-7.7,21.2-13v64.7L1169.9,779.7 L1169.9,779.7z M1028.81,981.9c17.6-1.3,32.5,5.5,48.4,12.8c-5.5,1.6-11,3.1-16.5,4.5c-25.9,6.7-51.9,11.2-77.59,13.6 c11.3-13.7,22.7-27.2,39.8-30.2C1024.91,982.3,1026.81,982.1,1028.81,981.9z M885.43,847.9c-0.2,0-0.3-0.1-0.5-0.1 c-6.4-1.6-11.2-3.7-13.3-6.1c4.2-1.4,10.1-3.6,17.2-5.8c13.6,3.9,27.8,6.2,41.2,6.1c12.9-0.1,26.5-2.4,39.3-6.9 c0.3-0.1,0.5-0.2,0.8-0.3c4.8,1.8,8.8,3.3,12,4.5c0.5,0.2,1,0.4,1.5,0.6c0.4,0.2,1,0.5,1.3,0.4c0.1,0,0.2,0.1,0.3,0.1 c-3.3,2-10.4,5-11.7,5.4c-1.2,0.4-2.3,0.7-3.5,1.1c-13.1,4.5-26.6,6.2-40,6.3c-13.9,0.1-28.5-0.8-42.3-4.8c-0.4-0.1-0.7-0.2-1-0.2 C886.33,848.1,885.93,848,885.43,847.9z M868.23,778.3c0.1,0,0.1,0,0.2,0c0.1,0,0.2,0,0.3,0.1c0.1,0,0.2,0,0.3,0.1 c0.1,0,0.2,0.1,0.2,0.1c0.1,0,0.2,0.1,0.3,0.1c0.1,0.1,0.2,0.1,0.3,0.2c0,0,0.1,0,0.1,0.1c2,1.2,3.4,3.8,3.4,6.7 c0,3.8-2.6,6.9-5.5,6.9c-3.1-0.1-5.7-3.6-5.7-7.4c0-3.9,2.6-6.9,5.6-6.9C868.03,778.3,868.13,778.3,868.23,778.3z M921.52,692.1h4 c-0.2,0.7-0.3,1.6-0.3,2.5v0.8l0,0c0,0.3,0,0.3,0,0.5c0,1.1,0.2,1.8,0.4,2.6c-0.1,0.3-0.2,0.7-0.2,0.9l-0.1-0.1l0,0 c-0.2-0.2-0.4-0.4-0.6-0.6C923.12,697.1,922.02,694.8,921.52,692.1z M939.02,658.4v16c-0.8-1.1-1.8-2.4-3-3.8 c-2.2-2.2-4.8-3.5-4.8-3.8c-0.2-0.1-0.4-0.2-0.6-0.4c0.2-0.1,0.3-0.1,0.6-0.2c0,0,0-0.1,0.1-0.1c0.3-0.1,1.6-1,3.1-2.4 c0.5-0.4,1.1-0.9,1.6-1.4c0.6-0.7,1.2-1.5,1.7-2.2c0.3-0.4,0.6-0.7,0.8-1.1C938.72,658.8,938.92,658.6,939.02,658.4z M933.02,712.5 c-0.8,1.1-1.8,1.6-2.8,1.6c-2.2,0-4-2.5-4-5.4v-0.1c0-0.2,0-0.5,0.1-0.7c0-0.2,0.1-0.3,0.1-0.5c0-0.1,0.1-0.2,0.1-0.3 c0.1-0.2,0.1-0.4,0.2-0.6c0-0.1,0.1-0.2,0.1-0.2c0.1-0.2,0.2-0.4,0.3-0.6c0-0.1,0.1-0.1,0.1-0.2c0.1-0.2,0.3-0.4,0.4-0.6 c0,0,0-0.1,0.1-0.1c0.7-0.7,1.6-1.1,2.5-1.1c2.2,0,4,2.2,4,5.2C934.22,710.1,933.82,711.4,933.02,712.5z M926.52,693.6v-0.1 c0-0.1,0-0.2,0.1-0.2c0-0.1,0.1-0.2,0.1-0.3l0,0c0.2-0.6,0.5-1.1,0.9-1.6c0.6-0.8,1.5-1.2,2.4-1.2c1,0,2,0.5,2.8,1.6 s1.2,2.4,1.2,3.8c0,0.4,0,0.7-0.2,1.2c-1-1.4-2.1-2.3-3.6-2.3c-1.6,0-2.8,1.1-3.8,2.5c0-0.5-0.2-0.8-0.2-1.4 C926.22,694.8,926.32,694.2,926.52,693.6z M930.42,702c-0.7,0-1.4,0.2-2,0.6c0,0-0.1,0-0.1,0.1c-0.1,0.1-0.2,0.1-0.3,0.2 c-0.1,0-0.1,0.1-0.2,0.1c-0.1,0.1-0.2,0.2-0.3,0.3c0,0,0,0-0.1,0.1s-0.2,0.3-0.4,0.4c-0.1,0.1-0.1,0.1-0.2,0.2c0,0,0,0-0.1,0.1 c-0.4-0.8-0.5-1.5-0.5-2.6c0-1.4,0.4-2.7,1.2-3.8c0.4-0.5,0.8-0.9,1.3-1.2c0.4-0.2,0.9-0.3,1.3-0.3c2.2,0,4,2.2,4,5.2 c0,1-0.2,1.7-0.5,2.5C932.92,702.7,931.72,702,930.42,702z M935.12,699c0-0.1-0.1-0.3-0.1-0.4c-0.1-0.2-0.3-0.4-0.4-0.6 c0.2-0.7,0.4-1.5,0.4-2.5v-0.1c0-0.2,0-0.2,0-0.5c0,0,0-0.2,0-0.5c0-0.1,0-0.2,0-0.3l0,0c0,0,0,0,0-0.1c0-0.6,0-1.2-0.2-1.7h3.8 C938.02,695.1,936.82,697.4,935.12,699z M934.02,690.1C934.02,690.1,934.02,690,934.02,690.1c-1-1.7-2.2-2.6-3.8-2.6 c-1,0-1.9,0.4-2.6,1.1c-0.5,0.4-0.9,0.9-1.2,1.4h-5.1c-0.1-1.1-0.1-1.6-0.2-2.7c0,0,0.2-0.5,0.4-1.8c1.8,0,5.3-0.2,5.5-0.2 s0.2,0,0.4,0v-0.7h0.2v-6.7h4.4v7.4h6c0.7,1.2,0.8,3.1,0.8,4.7C937.02,690.1,936.02,690.1,934.02,690.1z M931.42,582.7 c0,0.2,0,0.4,0,0.6c-1.7,4.5-2.7,7.1-4.4,11.7c0.1-0.4,0.1-0.8,0.2-1.2C928.82,589.7,929.72,587.2,931.42,582.7z M930.42,665 L930.42,665c-0.2,0.6-0.2,0.9-0.3,1.3c-0.1-0.5-0.1-0.8-0.3-1.2c0-0.3-1.2-3.6-2.8-6.6c-1-1.5-1.9-3.2-2.7-4h11.6 c-0.1,0.1-0.2,0.3-0.3,0.5c-0.3,0.4-0.7,1-1.1,1.5c-0.4,0.6-0.9,1.3-1.3,2c-0.4,0.7-0.8,1.5-1.1,2.3 C931.22,662.7,930.52,664.5,930.42,665z M926.52,678v5.5c-1,0-3,0.3-4.4,0.3C923.22,681,924.82,679.1,926.52,678z M924.22,670.8 c-1.2,1.4-2.2,2.7-3,3.8v-16.1c0.6,1.1,1.8,2.5,3,3.9c2.2,2.2,4.6,3.8,4.8,3.8c0.4,0.1,0.6,0.2,0.9,0.4c-0.3,0.2-0.5,0.3-0.9,0.4 C929.02,667.3,926.42,668.6,924.22,670.8z M918.32,572.8c1.7-4.6,2.6-7.1,4.3-11.6c1,11.7,2,23.2,3,34.9c-0.2,1.5-0.4,2.3-0.5,3.7 c-0.9-11.4-1.9-22.9-3-34.3c-0.1,0.3-0.1,0.5-0.1,0.8c0-0.2,0-0.4-0.1-0.6c-0.2,0.3-0.2,0.5-0.4,0.8c0,0.1,0,0.3,0,0.4 c-0.3,0.7-0.5,1.3-0.8,2.2c0,0.2,0,0.5,0,0.7c-1.2,3.3-2.1,5.4-3.2,8.2C917.82,576,918.02,574.9,918.32,572.8z M925.22,701.7 c0,1.4,0.2,2.5,0.8,3.6c-0.4,0.7-0.6,1.6-0.7,2.5c0,0,0,0,0,0.1c0,0.3-0.1,0.6-0.1,1c0,0.1,0,0.1,0,0.2l0,0c0,0,0,0,0,0.1 c0,1.7,0.4,3.3,1.4,4.7c0.2,0.2,0.3,0.2,0.5,0.4c-0.1,0.1-0.1,0.1-0.2,0.2l-0.1,0.1c-0.1,0.1-0.2,0.1-0.2,0.1c-1,1.4-1.4,3-1.4,4.9 v0.1c0,1.4,0.4,2.6,1,3.7c0.2,0.3,0.4,0.5,0.6,0.8c0,0,0,0,0.2,0.3c1,1.1,2,1.9,3.4,1.9c1.2,0,2.4-0.6,3.2-1.9l0,0 c0,0.2,0.1,0.4,0.1,0.6c0.1,0.8,0.3,1.4,0.3,2.3c0,1.4-0.4,2.7-1.2,3.8s-1.8,1.6-2.8,1.6c-1.1,0-2-0.6-2.7-1.5 c-0.7-1-1.2-2.4-1.3-4c0-1.1,0.2-1.9,0.6-2.7c0,0,0,0-0.2-0.3c-0.1-0.2-0.2-0.3-0.3-0.4c-0.1-0.1-0.2-0.2-0.3-0.4 c-0.6,1.1-1,2.5-1,4.1s0.4,3,1.2,4.1c0.1,0.1,0.2,0.2,0.3,0.3c0,0,0,0.1-0.1,0.1c-0.1-0.1-0.1-0.1-0.2-0.2 c-0.8,1.1-1.2,2.7-1.2,4.4c0,2.1,0.7,3.9,1.9,5.1c-0.2,0.1-0.3,0.2-0.5,0.3c-1,1.4-1.4,3-1.4,4.9s0.6,3.6,1.6,4.9l0.1,0.1h-5.4 v-49.9L925.22,701.7L925.22,701.7z M942.02,704.4c0.1,0.1,0.2,0.2,0.3,0.3c0.8,0.8,1.8,1.6,3,1.6c0.7,0,1.4-0.2,2-0.6 c0.5-0.2,0.9-0.5,1.4-0.9c1.6-0.3,2.8-0.4,4.2-1c0.1-0.2,0.2-0.3,0.4-0.4c0.1,0,0.1,0,0.2-0.1c0.1,0,0.2,0,0.3,0 c0.8,0.8,1.8,1.3,2.7,1.3c0.7,0,1.5-0.3,2.1-0.8c1-0.5,1.8-1.5,2.3-2.6c1.6-0.3,3.1-0.4,4.7-0.5c-0.1,0-0.2-0.1-0.3-0.1 c0.1,0,0.2,0,0.3,0c0.4,0.3,0.9,0.4,1.3,0.5c0.1,0,0.3,0.1,0.4,0.1h0.1h0.1c0.1,0,0.2,0,0.3,0c1-0.1,1.5-0.4,2.2-0.9 c0.9-0.1,1.7-0.4,2.6-0.5c0.1,0,0.2-0.1,0.4-0.1l0,0c1.1-0.3,2.2-0.4,3.3-0.5c0.2,0,0.4,0,0.5,0c0,0-0.1,0-0.1-0.1 c0.2,0,0.4,0,0.5,0c0.6,0.2,0.9,0.4,1.5,0.4c0.1,0,0.1,0,0.2,0c0.1,0,0.2,0,0.3,0c0.4,0.2,0.8,0.3,1.2,0.7c1.1,1,2.3,2,3.4,3.5 c0-0.1-0.1-0.2-0.1-0.4c0.1,0.1,0.1,0.2,0.2,0.2c0,0.1,0,0.2,0.1,0.2c0.2,0.5,0.4,1.1,0.8,1.6c0.5,0.6,0.9,1.1,1.5,1.3 c0.1,0.1,0.3,0.1,0.4,0.2c1.3,1.7,2.5,3.2,3.7,5c0-0.1,0-0.1,0-0.2c0.1,0.1,0.1,0.2,0.2,0.3v0.4c0,0.5,0,0.9,0.1,1.3 c0.2,2.7,1.5,4.5,3.2,5.1c0.2,1.1,0.5,2.1,0.7,3.3c0,0.2,0,0.3,0.1,0.5l0,0c0,0.1,0,0.1,0,0.2c0,0,0,0.1-0.1,0.1 c-0.6,1.2-0.9,2.6-0.9,4.2c0,1.8,0.4,3.4,1.2,4.4c0.1,0.1,0.1,0.2,0.2,0.3l0.1,0.1c-0.2,1.9-0.4,3.9-0.7,5.8 c-0.2,0.3-0.4,0.3-0.6,0.6c-0.9,1.5-1.3,3.2-1.3,4.8v0.8c0,0.1,0,0.2,0,0.4l0,0v-0.1c-0.4,1.1-0.9,2.6-1.5,3.7 c-0.6,1.2-0.9,2.3-1.3,3.4c-1.1,0.9-2,2.5-2.3,4.3c-0.1,0.6-0.2,1.1-0.3,1.7v0.3c0,1.1,0.1,2.1,0.5,3c-1.6-0.2-2.5-0.4-4.1-0.8 c4.2-9.6,9-19.9,8.8-30.5c0-1.6-0.1-3.2-0.4-4.8c-0.9-4.5-3-10.8-9.8-18.4c-4.8-5.3-8.6-4.2-12.4-3.1c-1.3,0.3-2.9,0.7-4.4,0.8 c-3.6,0.2-5.8,0.9-7.9,1.8c-1.4,0.6-3,1.2-4.3,1.2c-2.8,0.6-8.3,1.3-12.6,1.7v-3.7h1.6C942.22,704.7,942.12,704.6,942.02,704.4 L942.02,704.4z M927.62,733.1c0.8,1,1.7,1.4,2.8,1.4c0.9-0.3,2.1-0.8,2.9-1.6c0.5,0.8,0.7,1.8,0.7,3.2s-0.4,2.7-1.2,3.8 s-1.7,1.6-2.7,1.6c-2.2-0.1-3.9-2.4-3.5-5.3c0-1.1,0.2-2.5,0.8-3.3C927.42,733,927.52,733,927.62,733.1z M870.53,822 c0.9-0.3,1.7-0.5,2.4-0.7c3.9-1.1,6.6-1.8,11.2-3.1c-1-4.2-1.5-6.3-2.6-10.5l0,0c0-0.1,0-0.2-0.1-0.3c-4.4,1.1-6.6,1.7-11.1,2.8 v-4.4c11-4.2,22.7-7.5,34.3-9.6c0,0.1,0.1,0.1,0.1,0.2c4.6-0.7,9.3-1.5,14.2-2c0,0,0-0.1,0.1-0.1c3.8-0.3,7.6-0.5,11.3-0.5 c17.6,0,36.4,4.1,54.1,10.1c0.4,0.2,0.8,0.3,1.3,0.5v4.1c0.2,0,0.3,0.1,0.4,0.1l0,0c-3.6-0.9-5.4-1.3-9-2.2l0,0l0,0 c-0.9,4.1-1.4,6.3-2.2,10.4c0,0.1,0,0.1,0,0.2l0,0c4.5,1.4,6.8,2.1,11.2,3.4l0,0l0,0h-0.1v5.9c-3.6-1.9-10.6-4.8-11.9-4.9 c-2-0.4-3.9-1.1-6-1.8l0,0c-12-4.4-24.5-5.1-37.1-5.3l0,0c-13.7-0.3-27.5,2.1-40.6,6.2c-2.5,0.7-4.7,1.2-6.6,1.7l0,0 c-1.5,0.2-9.2,3.4-13.3,5.4c-0.1,0-0.1,0.1-0.2,0.1V822C870.43,822,870.43,822,870.53,822L870.53,822z M930.22,765.6 c0.7,0,1.4,0.2,2,0.6c0.3,0.2,0.6,0.4,0.9,0.7c0.4,0.4,0.8,0.9,1.1,1.4c0.2,0.4,0.4,0.7,0.6,1.1c0.1,0.2,0.2,0.4,0.2,0.6 c0.1,0.4,0.2,0.9,0.3,1.3s0.1,0.9,0.1,1.4c0,3.8-2.4,7.1-5.2,7.1s-5.2-3.3-5.2-7.1c0-0.2,0-0.5,0-0.7c0-0.5,0.1-0.9,0.2-1.4 l1.7-3.4c0.3-0.4,0.7-0.7,1.1-1C928.72,765.8,929.42,765.6,930.22,765.6z M991.62,730.1c-0.2,3.4-0.7,7.7-2.6,13.8 c-0.1,0.4-0.2,0.8-0.4,1.1l0,0c0,0,0,0,0-0.1v-0.1c-0.9-3.1-2.1-5.7-3.3-8c1.7-2,3.5-4,5.3-6 C990.92,730.6,991.22,730.3,991.62,730.1C991.62,730,991.62,730,991.62,730.1z M987.62,792.7 C987.62,792.7,987.72,792.7,987.62,792.7c-0.4,4.2-0.7,6.4-1.2,10.6c-0.9-0.5-3.5-1.3-7.2-2.5c1-1.1,2.1-2.5,3-3.8 c0.9-1.2,1.7-2.6,2.4-3.8c0.2-0.3,0.5-0.7,0.7-1C986.02,792.6,986.92,792.8,987.62,792.7z M872.73,779.7c1.1-1,2.2-2.4,3.2-3.7 c2.2-2.9,4.1-6.1,4.9-8c1.4,9.7,2.7,19.4,4.1,29.1c-0.4-0.4-1-0.9-1.6-1.5c-0.8-0.8-1.8-1.7-3-2.6c-0.6-0.5-1.3-1.1-1.9-1.6 c-1.5-0.9-2.8-1.8-4.1-2.4c0.2-1.1,0.4-2.2,0.4-3.3C874.63,783.2,873.83,781.3,872.73,779.7z M972.12,783.7c-1-3.2-2.5-4.7-4.2-5.2 c-1.9-0.1-3.7,2-4.9,3.9c-0.1-0.1-0.2-0.2-0.4-0.4l-0.1-0.1c0.1-0.5,0.2-1.1,0.5-1.9c0.3-1.4,0.6-3.1,0.8-3.7c0,0,0,0,0,0.1 c1-2,3.3-6.8,5.8-6.7c0.4,0,0.8,0.2,1,1c0.1,0.3,0.3,0.6,0.4,1C971.92,774.7,972.12,780.1,972.12,783.7z M964.62,766.8 c-0.5,3-1.5,6.1-1.9,7.5c0.2,0.1,0.3,0.2,0.3,0.3v0.1l0,0c-0.1,0-0.2-0.1-0.3-0.1c-0.2,0.3-0.2,0.3-0.2,0.6s-0.2,0.3-0.2,0.6 c0,0-0.2,0.8-0.4,1.9v0.5c0,0.3-0.2,0.8-0.5,1.3c-0.1,0.6-0.3,1-0.3,1.4c0,0,0,0-0.1,0h-0.3c0-0.5,0-1-0.2-1.7 c-0.2-0.9-0.2-2-0.2-2s0-0.5,0-1.1v-0.5c-0.1-0.4-0.1-0.7-0.2-1.1l0,0l0,0V774c-0.4-1.6-0.8-4.1-1-7.3c-0.4-4.8,2.8-18.3,4.1-20.1 C964.22,749.5,965.52,762.2,964.62,766.8z M960.72,782.6c0.1,0,0.2,0.1,0.2,0.1c0.5,0.2,1,0.6,1.4,0.9v1.1 c-0.3-0.2-0.7-0.5-1.1-0.5c-0.2-0.1-0.4-0.1-0.5-0.1c-0.2,0-0.2,0-0.4,0c-0.4,0-0.8,0.2-1.2,0.3h-0.1v-1.1 C959.32,782.9,960.12,782.6,960.72,782.6z M956.52,794.6c0.2-0.7,0.4-1.3,0.7-1.9c0.8-2.1,1.3-3.9,1.7-5.4c0.2-0.6,0.2-1.1,0.4-1.4 c0.4-0.2,0.8-0.3,1.4-0.3c0.2,0,0.2,0,0.4,0c0.1,0,0.2,0,0.2,0c0.2,0.1,0.4,0.2,0.6,0.2c0.1,0.1,0.2,0.1,0.2,0.2v0.1l-0.1-0.1 c0,0.5,0.2,0.8,0.2,1.4c0.1,1.2,0.3,2.6,0.6,4.4c0,0.3,0.1,0.6,0.2,0.8c0.2,0.8,0.4,1.7,0.6,2.7c0.1,0.4,0.3,0.8,0.4,1.1 c-2.5-0.6-5-1-7.6-1.6C956.52,794.8,956.52,794.7,956.52,794.6z M958.82,774.6v0.1c0.1,0,0.1-0.1,0.2-0.1c0,0.2,0.1,0.3,0.1,0.5 l0,0c0,0.7,0.2,2.5,0.4,3.8c0,0.8,0.1,1.5,0.2,2c-0.2,0-0.4,0.1-0.5,0.3l0,0h-0.1c-0.5-1.2-1.1-2.5-1.9-3.5c-0.8-1.1-1.7-1.9-2.7-2 c-1.8-0.2-3.3,0.7-4.6,3.1c0.5-3.9,1.6-9.4,2.9-11.1c0.4-0.6,0.8-0.9,1.2-0.6c0.7,0.1,1.4,0.6,2,1.3 C957.42,770.2,958.32,773,958.82,774.6z M894.73,774.9l0.8-0.8c-0.1-0.2-0.1-0.3-0.2-0.6c-0.6-1.4-1.5-3.9-2.3-6.9 c-0.2-0.7-0.3-1.6-0.3-2.6c-0.2-6.2,0.7-16.1,1.6-17.4c1.2,1.3,4.9,13.9,5.1,19.3c-0.2,3-0.6,6.3-0.8,7.6h0.1 c0.3,0.1,0.5,0.2,0.9,0.3c0.6-2.2,2.3-7.3,5.2-7.8c0.4,0,0.8,0.3,1.2,0.8c1.9,2.2,3.1,8.5,3.7,12.4c-0.1-0.1-0.1-0.2-0.2-0.3 c-1.6-2.8-3.2-3.9-5.2-3.9c-2.3,0.2-4,3.2-4.8,5.4c0.1,0,0.1,0.1,0.2,0.1c0,0.1-0.1,0.2-0.1,0.3l0,0h-0.2c0-0.5,0-1.4,0.2-2.4 c-0.3-0.6,0-1.4,0-1.9c0-0.3,0-0.3,0-0.5v-1.6c-0.4-0.1-0.6-0.2-0.9-0.3h-0.1c0,0.3,0,0.3,0,0.8c-0.1,0-0.1,0-0.2,0 c0,0,0,0.1,0,0.4c-0.1,0-0.2-0.1-0.3-0.1c0,0,0,0.3,0,0.8c-0.1,0-0.1,0-0.2,0c0,0,0,0.8,0,1.9c-0.1,0.3-0.1,0.5-0.2,0.8 c0.1,0,0.1,0,0.2,0v1.8h-0.1c0-0.3-0.2-0.8-0.4-1.4c-0.6-1.1-1-2.4-1-2.4c-0.1-0.4-0.1-0.7-0.2-1.1c-0.2-0.8-0.2-0.8-0.2-0.8 c0-0.3-0.2-0.3-0.2-0.6c-0.1,0-0.2,0.1-0.2,0.1l-0.1,0.1c-0.1,0.1-0.3,0.2-0.5,0.3c0,0.1,0,0.3,0.1,0.5l0,0l0,0l0,0v0.1l-0.3,0.3 c0.3,0.6,0.6,2.4,1,3.9c0.2,0.5,0.3,1,0.4,1.4c0,0-0.1,0.1-0.1,0.2c-1.3-2-3.4-4.6-5.6-4.2c-1.5,0.2-3.4,1.3-4.7,5 c-0.1-2.5-0.1-6.2,0.3-9.2c0.2-1.6,0.5-3,1-3.9c0.4-0.5,0.6-0.8,1.1-0.8C891.13,767.9,893.83,772.7,894.73,774.9z M888.03,778.7 c0.7-0.8,1.5-1.3,2.4-1.2c1-0.1,2,0.5,2.8,1.3c-0.9-0.7-1.9-1.1-2.8-1C889.73,777.8,888.83,778,888.03,778.7z M898.03,783.3 c-0.6,0-1.3,0.5-1.7,0.5c-0.1-0.3-0.1-0.6-0.2-0.9c0.4-0.6,1-0.8,1.7-1l0,0c0.6,0,1.5,0.3,1.9,0.6l0,0c0.1,0.2,0.1,0.4,0.1,0.5 c0,0.2,0,0.3,0.1,0.5C899.53,783.3,898.93,783,898.03,783.3L898.03,783.3z M895.03,794.4c0.9-3,1.3-5.7,1.5-7.6 c0-0.5,0.2-1.1,0.2-1.4c-0.1,0.1-0.2,0.2-0.2,0.2c0-0.1,0-0.2,0-0.2l0,0c0.4-0.3,0.8-0.5,1.5-0.8c0.6,0,1.3,0.3,1.7,0.3 c0,0.1,0.1,0.2,0.1,0.3s0.1,0.2,0.1,0.3s0,0.2,0.1,0.4c0,0.1,0.1,0.3,0.1,0.4l0,0c0.6,2,1.2,4.7,2.5,7.4c0.2,0.5,0.5,0.9,0.8,1.4 h-0.1c-3.5,0.6-6.6,1.4-9.7,2C894.13,796.4,894.73,795.5,895.03,794.4z M930.22,781.5c0.9,0,1.7-0.3,2.4-0.7c0.8,2.2,2,4.5,3.2,7 c0.8,1.3,1.6,2.6,2.5,3.8c0.2,0.4,0.5,0.7,0.7,1c-3-0.2-5.9-0.5-9.1-0.5c-2.7,0-5.4,0.2-8.4,0.4c0.6-0.8,1.2-1.8,1.8-2.8 c0.2-0.3,0.3-0.6,0.5-0.9c0.2-0.3,0.4-0.7,0.6-1c1.4-2.4,2.4-4.9,3.2-7.1c0.6,0.5,1.6,0.8,2.4,0.8 C930.02,781.5,930.12,781.5,930.22,781.5C930.12,781.5,930.22,781.5,930.22,781.5z M925.12,777.4c-1.5,1.1-3.2,2.5-4.8,4 c-2.4,2.5-4.5,5.5-5.7,7.1v-28.7c1.2,1.7,3.3,4.7,5.7,7.2c1.3,1.3,2.7,2.4,3.9,3.4c-0.1,0.6-0.2,1.2-0.2,2c0,1.1,0.2,2.2,0.5,3.1 C924.62,776.2,924.82,776.8,925.12,777.4z M936.42,773c0-1.1-0.2-1.8-0.4-2.6c1.2-1.1,2.5-2.1,3.9-3.5c2.4-2.5,4.3-5.5,5.5-7.2 v28.7c-1.2-1.6-3.2-4.5-5.4-6.9c-1.5-1.5-3.3-2.9-4.7-3.9c0.1-0.2,0.2-0.4,0.3-0.7C936.12,775.8,936.42,774.5,936.42,773z M982.42,788.2c-1.1,0.6-2.1,1.3-3.2,2.2c-2.7,1.9-4.8,4.5-6.1,6c1.2-9.7,2.4-19.3,3.6-29c0.8,1.9,2.5,4.9,4.3,7.7 c1,1.3,1.7,2.2,2.6,3.2c-1.1,1.8-1.8,3.9-1.8,6.4c0,0,0,0,0,0.1c0,0,0,0,0,0.1C981.82,786.2,982.02,787.1,982.42,788.2z M871.03,839.9c-0.5,0.2-0.7,0.3-1.1,0.5c-0.4-0.6-0.7-1.2-1-1.9c-0.6-2.3-0.2-5,0-6.8c0-0.8,0.2-1.4,0.2-1.6 c2.6-1.8,13.4-6,14.8-6.2c1.9-0.5,4.3-0.9,6.8-1.7c13-4.1,26.8-6.5,40.4-6.2c12.5,0.3,25,1,36.9,5.3c2.1,0.7,4,1.4,6,1.8 c1.5,0.2,10.8,4.3,13.2,5.7c0,0.1,0,0.2,0.1,0.3c0,0.2,0,0.5,0.1,0.9v0.1c0.2,2.4,0.8,6.5-0.9,9.1c-0.8-0.2-1.5-0.4-2.5-0.9 c-17.2-7.1-35.4-11.8-53-11.7C911.12,826.5,890.53,832.4,871.03,839.9z M987.72,791.2c-0.2,0-0.3,0-0.5,0l-1.8-0.6 c-0.1-0.1-0.3-0.2-0.4-0.3c-0.5-0.5-1-1.1-1.3-1.8c-0.2-0.4-0.3-0.8-0.5-1.2c-0.1-0.4-0.2-0.8-0.3-1.3c-0.1-0.4-0.1-0.9-0.1-1.4 c0-1.4,0.3-2.8,0.9-4c0.3-0.6,0.6-1.1,1-1.6c0.2-0.3,0.5-0.6,0.8-0.9c0.3-0.3,0.6-0.5,0.9-0.6c0.5-0.3,0.9-0.4,1.4-0.5 c2.6-0.3,4.9,2.8,4.9,6.6S990.32,790.9,987.72,791.2z M989.82,776c-0.6-0.2-1.3-0.4-2.1-0.3c-0.2,0-0.2,0-0.4,0c0,0,0,0-0.1,0 c0-0.1,0-0.2-0.1-0.3l0.1-0.1c-0.4-1.9-1-4-1.7-5.9c-1.1-3-2.5-5.8-3.4-7.6c2.7,0.4,4.2,0.6,7,1.1c0.1,0,0.1,0,0.2,0 c0.1,0.1,0.3,0.2,0.4,0.3c0.3,0.3,0.6,0.5,0.9,0.7c0,0,0,0,0.1,0c0,0,0.1,0,0.1,0.1c0.1,0,0.2,0.1,0.4,0.1h-0.1 C990.62,768.9,990.32,771.2,989.82,776z M935.72,760.6c-0.8,1.7-1.6,3.3-2.4,4.9c0,0.1,0.1,0.1,0.1,0.1s0,0,0,0.1l-0.1-0.1 c-0.9-0.9-2-1.3-3.1-1.3h-0.1h-0.1c-1.2,0-2.2,0.6-3.2,1.4c0,0,0,0,0-0.1l0,0c-0.6-1.6-1.4-3.3-2.2-4.9c-1.8-3.2-3.7-5.9-5.2-7.6h9 c0.4,0.2,1.2,0.5,1.8,0.5s1.2,0,1.9-0.4c3.5,0,5.2,0,8.7-0.1C939.52,754.8,937.42,757.4,935.72,760.6z M932.82,750.5 c-0.8,1.1-1.8,1.6-2.8,1.6c-0.5,0-1-0.1-1.4-0.4c-1.4-0.9-2.4-2.8-2.4-5c0-1.9,0.8-3.5,2.2-4.2c0.2,0.1,0.4,0.1,0.6,0.2 c0.4,0.2,0.9,0.3,1.5,0.3c0.8,0,1.4-0.3,2-0.6c1.1,0.8,1.6,2.5,1.6,4.3C934.02,748.1,933.62,749.4,932.82,750.5z M868.53,793.9 c0.8,0,1.5-0.4,2.2-0.8c0.1,0,0.2-0.1,0.3-0.1c1.1,1.7,2.1,3.4,3.4,4.9c1,1.3,2.3,2.6,3.3,3.6c-4.1,1.4-7,2.2-8.1,2.8 c-0.6-4-0.9-6.2-1.4-10.3C868.23,794,868.33,793.9,868.53,793.9z M992.12,762.3c-0.9,0.1-1.9-0.3-2.6-1.4c-0.8-1-1.1-2.2-1.1-3.6 c0-0.1,0-0.2,0-0.3v-0.1c0-0.1,0-0.1,0-0.2c0.3-2,2.4-4,3.3-4.7c0.1,0,0.3,0,0.4,0c1.9-0.2,3.5,2,3.6,4.9 C995.82,759.8,994.12,762.1,992.12,762.3z M967.62,699.7c-2.1,0.1-3.7-2.2-3.7-5.3c-0.1,0-0.1,0-0.2,0c0-1.1,0.2-2,0.5-2.7 c0,0,0-0.1,0.1-0.1l0,0c0.1-0.3,0.3-0.6,0.5-0.9c0.2-0.2,0.3-0.4,0.5-0.6c0.6-0.6,1.3-0.9,2-1c1,0,1.9,0.5,2.7,1.5 c0.8,0.8,1.2,2.2,1.2,3.8c0,1.7-0.6,3.3-1.6,4.3C969.02,699.3,968.32,699.6,967.62,699.7z M978.32,698c-1,0-1.9-0.4-2.5-1.5 c-0.7-1-1.1-2.3-1.1-3.7c0.2-2.7,1.7-5.3,3.8-5.5c1.9-0.1,3.6,2.2,3.6,5.2l0,0l0,0C982.12,695.2,980.42,697.8,978.32,698 L978.32,698z M994.92,706.5c0.9-0.1,1.9,0.3,2.6,1.3c0.7,0.7,1.1,2.1,1.1,3.7c0,2.3-1.3,4.6-2.9,5.3c-0.2,0.1-0.4,0.1-0.6,0.2 c-2.1,0.2-3.6-2.1-3.6-5.1c0-1.3,0.3-2.6,0.9-3.7C993.12,707.2,994.12,706.6,994.92,706.5z M991.62,700L991.62,700 c0,2.7-3.7,5.6-3.7,5.6l0,0c-0.9,0.1-1.9-0.4-2.6-1.4c-0.1-0.2-0.3-0.4-0.4-0.6c-0.3-0.6-0.5-1.3-0.6-2.1c0-0.2,0-0.5,0-0.7l0,0 l0,0c0-0.3,0-0.7,0.1-1c0.1-1,0.4-2,1-2.9l0,0c0.8-1.2,1.7-1.8,2.6-1.9l0,0l0,0c0.1,0,0.2,0,0.3,0 C990.12,695,991.62,697.2,991.62,700L991.62,700z M994.92,727c-0.2-3,1.5-5.7,3.6-5.9c1-0.1,2,0.4,2.6,1.3c0.5,0.9,0.9,2.1,0.9,3.4 c0,1.4-0.4,2.8-1.1,4c-0.7,1.2-1.7,1.9-2.6,2c-1.1,0.1-2.2-0.7-2.9-2C995.12,729,994.92,728.1,994.92,727z M1001.02,742.5 c0,0.3,0,0.5-0.1,0.8c0,0.1,0,0.3-0.1,0.4c0,0.2-0.1,0.4-0.1,0.6c0,0.1,0,0.2-0.1,0.3c-0.6,1.9-1.9,3.3-3.4,3.5 c-2.1,0.2-3.5-2-3.6-4.9c0-1.4,0.4-2.7,1.1-3.9c0.7-1.2,1.6-1.8,2.6-1.6C999.32,737.4,1000.92,739.6,1001.02,742.5z M920.12,722.1 c-0.1,0-0.1,0-0.1-0.2L920.12,722.1h-0.3h-0.1v-11.5h0.4L920.12,722.1L920.12,722.1z M952.72,697.6c0.2-2.8,1.8-5.3,3.9-5.4 c2-0.1,3.7,2.3,3.7,5.3l0,0c0,2.8-1.8,5.3-3.9,5.4l0,0c-0.6,0-1.2-0.2-1.8-0.6c-0.3-0.2-0.5-0.5-0.7-0.9 C953.12,700.3,952.72,699,952.72,697.6L952.72,697.6z M949.12,699.3c0,1.4-0.4,2.8-1.2,3.9c-0.7,1.1-1.7,1.7-2.7,1.7 c-1.3,0-2.6-1.2-3.2-2.9c-0.2-0.6-0.3-1.4-0.3-2.1c-0.1-0.1-0.1-0.1-0.2-0.1c0-0.1,0-0.1,0-0.2c0-3,1.8-5.2,3.9-5.3 c1,0,2,0.5,2.7,1.6c0.3,0.5,0.6,1,0.8,1.6C949.02,698.1,949.12,698.7,949.12,699.3z M939.02,750.6c-2.2,0.1-3.3,0.1-5.3,0.1 c0.4-0.6,0.6-1.3,0.8-1.9c0.3-0.9,0.5-1.9,0.5-3.1c0-2-0.6-3.7-1.7-4.8c0,0,0,0,0.1-0.1c0.6-0.8,0.9-1.7,1.2-2.7 c0.3-0.9,0.4-1.9,0.4-2.9c0-1.6-0.6-3-1.2-4.1c0.8-1.4,1.2-2.8,1.2-4.4c0-1.1-0.3-2.4-0.8-3.4l0,0c0.6-1.1,1-2.5,1-3.8 c0-1.4-0.3-2.7-0.9-3.8c-0.3-0.5-0.7-1-1.1-1.4c-0.4,0.1-0.8,0.4-1,0.7c1.2,0.8,2,2.7,2,4.6l0,0c0,1.4-0.4,2.7-1.2,3.8 s-1.8,1.6-2.8,1.6c-2.2,0-3.8-2.5-4-5.5l0,0c0-1.9,0.8-3.7,1.9-4.5c0,0,0,0,0.1,0c0.6,0.3,1.2,0.5,2,0.5c0.6,0,1.4-0.3,2-0.6 c0.4-0.3,0.6-0.5,1-0.8l0,0c0.2-0.3,0.4-0.5,0.6-0.6c1-1.4,1.4-3,1.4-4.7c0-1.4-0.4-2.7-0.8-3.8c-0.1-0.1-0.1-0.2-0.2-0.3l0,0 c0.1,0.1,0.1,0.2,0.2,0.3c0.6-1.1,0.8-2.2,0.8-3.3c0-0.3,0-0.3,0-0.3h0.2l0,0h3.6V750.6z M933.22,683.4v-5.6 c0.2,0.1,0.5,0.3,0.7,0.4c0.5,0.3,1,0.7,1.4,1.1c1.1,1,2,2.4,2.6,4h-4.7V683.4z M930.62,668.4c0,0,0.4,3,1.2,6.6 c0,0.3,0.2,0.5,0.2,0.8c-0.3-0.2-0.6-0.2-1-0.3c-0.3-0.1-0.6-0.2-1-0.5c-0.5,0-1.2,0-1.8,0.2c0-0.2,0-0.4,0-0.5 c0.6-3.6,1.4-6.3,1.4-6.3c0.2-0.5,0.2-0.8,0.4-1.4c-0.1,0-0.1,0.1-0.2,0.1c0-0.2,0.1-0.3,0.1-0.5c0,0,0,0,0.1,0c0,0,0,0,0,0.1h0.1 h0.1c0,0,0,0,0-0.1c0.1,0,0.2-0.1,0.3-0.1c0.1,0.3,0.1,0.6,0.2,0.9l0,0c-0.1,0-0.1-0.1-0.2-0.1 C930.52,667.7,930.52,668,930.62,668.4z M937.02,604.9c0-0.1,0-0.2,0-0.3V604.9c0,0.1-0.1,0.2-0.1,0.3c-0.4,1.1-0.6,1.6-1,2.7l0,0 l0,0c-1.2,3.3-2,5.5-3,8.1c0.8-3.1,1.2-5,2.1-8.4c0.2-0.7,0.3-1.3,0.5-2c0,0,0,0,0-0.1c-0.2,0.7-0.3,1.4-0.5,2.1 c1.1-3.1,1.7-4.7,2.8-7.7c0.3,10,0.7,19.8,1,29.7c-0.3,1.5-0.5,2.2-0.8,3.5c-0.3-9.5-0.6-19-0.9-28.5 C937.12,604.8,937.02,604.9,937.02,604.9z M970.42,600.1C970.42,600.1,970.42,600,970.42,600.1c0-0.1,0-0.2,0.1-0.3l-0.1-0.1l0,0 c-0.3-0.2-0.6-0.4-0.9-0.6c-0.1-0.1-0.3-0.2-0.4-0.3c-0.5-0.3-0.9-0.7-1.5-1.1c-0.1-0.1-0.3-0.2-0.5-0.3l0,0 c-0.2-0.1-0.4-0.3-0.6-0.4c-6.4-7.3-9.8-11.2-16.5-18.8c0.2-0.4,0.2-0.7,0.4-1.1c0,0,0.1,0,0.1,0.1c3.2,1.5,4.8,2.3,8,3.7 c-0.2-0.2-0.4-0.3-0.6-0.5c0.2,0.1,0.4,0.2,0.5,0.3l0.1,0.1c2.1,1.7,3.1,2.5,5.2,4.1l0,0c0,0,0,0.1-0.1,0.1c-4.1-2-6.3-3-10.2-4.8 c6.8,7.8,10.3,11.8,17,19.6C970.52,599.9,970.52,600,970.42,600.1z M963.72,583c-1-0.7-1.7-1.2-2.8-2c-6.4-8.3-12.7-16.5-19.1-24.8 c0.2-0.4,0.4-0.7,0.6-1.1c3.2,1.6,4.8,2.4,8,3.9c2,1.6,3,2.4,4.9,3.9c0.1,0.1,0.2,0.2,0.3,0.3c0-0.1,0.1-0.2,0.1-0.3 c0.1-0.2,0.2-0.4,0.3-0.6l0.1,0.1c-0.2,0.4-0.3,0.7-0.6,1.1c-1.2-0.6-1.7-0.9-2.9-1.5c-1.1,0.6-2.3,1.1-3.6,1.7 c6.1,7.9,9.2,12,15.1,19.6C964.02,583.2,963.82,583.1,963.72,583z M1046.31,558.8C1046.21,558.8,1046.21,558.8,1046.31,558.8 c-1.1,0.4-1.8,0.7-3.1,1.1c-0.2,0-0.3,0-0.5,0c-9.2-0.5-14.1-0.8-23.7-1.8v-1.4l0,0c2-0.7,3-1.1,5-1.9c3.3-0.9,5.2-1.4,8-2.3 c-2.4,1.1-4.3,1.9-6.4,2.9c-1.1,0.5-2.2,1-3.6,1.6C1031.81,558,1036.91,558.3,1046.31,558.8z M1053.21,572.8c-0.1,0-0.2,0-0.3,0 c-0.1,0-0.2,0-0.4,0c-7.9-2.2-12.2-3.5-20.5-6.1c0.1-0.6,0.1-0.8,0.2-1.4h0.1c1.8-0.8,2.8-1.2,4.7-2l0,0l0,0c3.9-1.3,5.8-2,9.6-3.3 l0,0v0.1c-2.9,1.5-5.1,2.5-7.3,3.6c-1.6,0.7-3.3,1.5-5.5,2.5c9,2.9,13.5,4.2,22,6.6C1055.11,572.7,1054.41,572.8,1053.21,572.8z M990.02,535.8c9.8,2.2,19.7,4.2,29.7,5.9c-1.2,0.2-2,0.3-3.3,0.6c-0.1,0-0.2,0-0.3,0c-0.2,0-0.5,0.1-0.7,0.1 c-9.3-1.7-18.7-3.6-27.9-5.7v-1.4h0.1c3.7-1.4,5.5-2.1,9.3-3.5c2.2-0.3,3.3-0.4,5.3-0.7C997.62,533,995.02,533.9,990.02,535.8z M1029.61,551.5c-9.3-0.7-14.2-1.2-23.9-2.4v-1.4h0.1c3.7-1.4,5.5-2.1,9.2-3.5c2.2-0.4,3.4-0.5,5.6-0.9c-4.8,1.9-7.2,2.9-12.1,4.8 l0,0l0,0c10.2,1.2,15.3,1.7,25.3,2.4v1.2h-0.1v-1.2c-1.4,0.4-2.1,0.6-3.6,0.9c-0.1,0-0.2,0.1-0.3,0.1 C1029.81,551.5,1029.71,551.5,1029.61,551.5z M997.32,429.4c-6.9,9.7-14.1,19.3-21.3,28.8l-0.8-0.8c1.4-4.9,2.1-7.5,3.4-12.3 c0.1-0.1,0.1-0.3,0.2-0.4c0.9-2,1.4-3.1,2.2-4.9c-0.8,2.9-1.4,5.1-2.1,7.4c-0.6,2.1-1.2,4.3-2,7c7.6-10,15-20.1,22.3-30.2l0.2,0.2 l0,0c-0.6,1.6-1,2.6-1.7,4.3c-0.1,0.2-0.2,0.3-0.2,0.5C997.52,429.1,997.42,429.3,997.32,429.4z M1013.22,413 c0.1,0,0.2,0.1,0.3,0.1l0,0c-0.6,1.6-0.9,2.5-1.4,4.2c0,0.1-0.1,0.2-0.1,0.2c0,0.1-0.1,0.2-0.1,0.4c-5.5,8.7-11,17.5-16.7,26.1 l-0.7-0.7c1.3-5.1,2-7.6,3.4-12.7c0.6-1.3,1-2.3,1.4-3.3c0.3-0.8,0.6-1.5,1-2.5l-0.1-0.1c0,0,0-0.1,0.1-0.1l-0.6-0.6c0,0,0,0,0-0.1 c0.3,0.3,0.4,0.4,0.7,0.7c-1.6,6-2.5,9.2-4.1,14.9C1002.02,430.7,1007.62,421.9,1013.22,413z M1055.81,429.2 c-0.1,0-0.2,0.1-0.3,0.1c-2.8,0.6-4.4,1-7.5,1.7c-4.2,0.2-6.5,0.3-10.7,0.4c-0.1,0-0.1,0-0.2,0c5.5-7.3,8.2-11,13.4-18.2 c0.1-0.1,0.3-0.2,0.4-0.4c1-0.9,1.6-1.5,2.4-2.3c-5.4,7.5-8.4,11.6-14.2,19.3c0.1,0,0.1,0,0.2,0 C1045.91,429.7,1049.31,429.6,1055.81,429.2L1055.81,429.2z M1053.41,408.6c-1.1,1.1-1.8,1.8-3,3c-6.9,3.6-10.4,5.4-17.3,8.8 c2.3-5.8,3.6-8.9,6-14.9c-0.1,0.2-0.2,0.4-0.3,0.7c0.1-0.1,0.1-0.3,0.2-0.4s0.1-0.2,0.2-0.3c0.8-1.6,1.5-2.9,2.1-4.1 c-2.2,5.6-3.9,9.7-6.7,16.5c0.2-0.1,0.3-0.1,0.4-0.2c7.5-3.7,11.3-5.6,18.9-9.6c0,0.1,0,0.1,0.1,0.2 C1053.71,408.3,1053.61,408.5,1053.41,408.6z M1043.01,395.6c-0.8,1.8-1.3,2.7-2.2,4.4c-6.2,7.8-12.6,15.5-19,23.2 c1-3.9,1.5-6,2.5-9.8c0-0.1,0.1-0.2,0.1-0.3c0.7-1.9,1.2-3.5,1.7-4.9c-0.9,3.4-1.7,6.4-2.8,10.8c0.1-0.2,0.3-0.3,0.4-0.5 c6.5-7.6,12.8-15.4,19.1-23.2c0,0.1,0.1,0.1,0.1,0.2C1043.01,395.5,1043.01,395.6,1043.01,395.6z M1027.21,401.7 c-0.6,1.7-0.8,2.5-1.4,4.1c-5.4,9.1-10.9,18.1-16.5,27h-0.1c-0.1-0.1-0.2-0.2-0.4-0.2c0,0-0.1,0-0.1-0.1c0,0-0.1,0-0.1-0.1 c0.7-2.7,1.1-4.3,1.7-6.7c0.1-0.4,0.2-0.8,0.3-1.2c0.7-2,1.2-3.5,1.7-4.9c-0.8,3-1.5,5.8-2.5,9.7c0.2-0.3,0.3-0.5,0.5-0.8 c5.6-9,11.2-18.1,16.7-27.1c0.2,0.2,0.3,0.3,0.4,0.4C1027.31,401.8,1027.31,401.7,1027.21,401.7z M1154.2,928.7 c-1.5,0.7-3.1,1.4-4.8,2c-2.7,1-5.3,1.8-7.9,2.5c-7.8,2.1-15.2,3.1-22.5,3c-12.3-0.2-24.4-3.5-37.6-9.5 c-19.4-8.9-36.9-18.1-58.9-14.2c-4,0.7-7.6,2-11,3.7c-23.1,11.4-35,42.8-57.7,54.2c-4.3,2.2-9,3.6-14.2,4.1l0,0 c0.1,9.7,0.1,14.5,0.2,24c-0.6,7.4-2.1,12.9-4.1,16.6c-0.3,0-0.6,0-0.9,0c2.1-3.5,3.7-8.9,4.2-16.5c-0.4-48-0.8-96-1.2-143.9h1 c0.1,0,0.3,0,0.4,0c0.1,17.8,0.3,35.7,0.4,53.5c1.1-0.1,2.1-0.3,3.1-0.4c31.8-5.7,42.8-47.4,71.29-59.1c2.5-1,5.1-1.7,7.9-2.2 c22-3.8,39.4,5.4,58.6,14.3c23.7,10.9,43.2,12.6,68.09,4.2c4-1.7,7.7-3.6,11.2-5.8c3.5-2.1,6.8-4.5,9.9-7.1V917 C1165.4,921.5,1160.3,925.6,1154.2,928.7z M1147.3,658.3c-24.3,8.9-44.4,7.2-67.99-3.8c-19-8.8-36.2-17.8-57.8-14.4 c-19.6,3.1-33.2,21.9-46.8,37.8c-0.2,0.2-0.3,0.4-0.5,0.6c-0.2,0.2-0.3,0.4-0.5,0.5c-4.4,5.1-8.8,9.8-13.4,13.5 c-0.8-1.3-2.1-2.1-3.5-2c-2.2,0.2-4,2.1-4.6,4.7c-0.3,0.8-0.5,1.8-0.6,2.7v0.1c-0.4,0.2-0.8,0.5-1.3,0.7c0-1.6-0.6-3.2-1.4-4.3 c-0.2-0.3-0.5-0.6-0.8-0.8l0,0c-0.1-0.1-0.2-0.1-0.3-0.2c-0.7-0.6-1.5-0.8-2.3-0.8l0,0c-2.7,0.1-4.9,3.1-4.9,6.7l0,0 c0,0.8,0,1.4,0.2,1.9h-0.6v-0.7h-1.4v-0.1h-2.2v-0.3h-0.8l0,0h0.8V699l0,0c0.3-0.2,0.5-0.6,0.7-1c0.1-0.1,0.2-0.2,0.3-0.4l0,0 c0.1-0.1,0.1-0.3,0.2-0.4c0.2-0.3,0.4-0.7,0.5-1c0.7-1.4,1.2-3.1,1.5-4.7c-0.2,0-0.3,0-0.4,0c0-0.8,0.1-3.9-0.6-6.1 c0.2-0.9,0.2-1.3,0-1.7l0,0c0.2,0.3,0.4,0.8,0.6,1.1c-0.4-1.6-1-3.3-2-4.6c0-0.1-0.1-0.2-0.1-0.2l0.1,0.1v-5.5 c-0.4-0.5-0.6-0.8-1-1.4c-0.4-0.3-0.6-0.8-1-1.1c-1.4-1.4-2.8-2.4-3.8-3c0.2,1,0.5,2.6,0.9,4.6c0-0.1,0-0.2-0.1-0.3 c-0.4-1.9-0.8-3.8-1-5.2c1,0.5,2.4,1.6,3.8,3c0.4,0.3,0.6,0.8,1,1.1c0.4,0.5,0.8,0.8,1,1.4c0.1,0.2,0.3,0.4,0.4,0.6 c0.8,1.1,1.4,1.8,1.4,1.8c0.3,0.5,0.5,0.8,0.8,1.4v-0.3c0.1,0.2,0.3,0.4,0.4,0.7v-23.5c-0.2,0.3-0.3,0.5-0.4,0.7V654 c-0.3,0.6-0.5,0.8-0.8,1.4c0,0-0.6,1-1.4,2.2v-3.4c0.2,0,0.4-0.3,0.4-0.3c0.4-0.4,0.6-0.7,1-1.1h-1.1c0.3-0.4,0.5-0.6,0.9-1h-1 c-0.1-6.2-0.1-9.6-0.2-16.1h0.4v-0.1h0.1c0,0.1,0,0.1,0,0.2v0.5c0.1-0.2,0.1-0.3,0.2-0.5c0-0.1,0-0.1,0.1-0.2l0,0v0.3 c0.1-0.1,0.1-0.1,0.1-0.2c2.1,0,4.2-0.4,6.4-1c0.1,0,0.2-0.1,0.3-0.1c0.4-0.1,0.8-0.2,1.2-0.4l0,0c1.1,5.6,1.6,8.3,2.7,13.9h1 c0-0.1,0-0.1,0-0.2h-0.5c0-0.1,0-0.1,0-0.2l0,0h0.1c0.1,0,0.1,0,0.2,0s0.2,0,0.2,0.1c0.2-3.5,0.2-5.3,0.4-8.8v-0.1 c0,0.1,0,0.2,0,0.3c0.9-5.3,1.3-7.9,2.1-13.2c4.4,6.6,6.6,9.9,11,16.4c-0.1-0.2-0.1-0.3-0.2-0.5c0.1,0.1,0.1,0.2,0.2,0.3 c0.5,1.3,0.8,2.2,1.1,3.3c-3.5-5.2-5.9-8.8-10-15c-0.1,0.1-0.2,0.1-0.3,0.2l0,0c4.5,6.7,6.9,10.4,11,16.4v0.1l0,0 c0.4,0.6,0.9,1.3,1.4,2c0-0.3-0.1-0.6-0.1-0.8c0.1,0.2,0.3,0.4,0.4,0.6c-1.5-9.7-2.2-14.6-3.6-24.2c5.5,4.3,8.5,6.5,14.1,10.7 c0-0.1,0.1-0.2,0.1-0.3c0.1,0,0.1,0.1,0.2,0.1c0.3-0.4,0.4-0.6,0.6-1.1c-3.7-6.2-5.6-9.4-9.3-15.7c1-1.1,2.1-2.2,3.2-3.3 c1.6,0.8,2.4,1.1,3.9,1.9c0-0.1,0.1-0.2,0.1-0.3c0.1,0,0.1,0.1,0.2,0.1c0.2-0.4,0.2-0.7,0.4-1.1c-1-1.1-1.5-1.7-2.4-2.7 c7-7.9,13.7-16.2,21.2-23.6l-0.1-0.1c-6.3-9.2-12.8-18.4-19.1-27.7c1.3,7.2,1.9,10.8,3.2,17.9c-2.9-4.2-5.7-8.3-8.6-12.4 c-2.9-4.2-5.8-8.3-8.7-12.5c-0.9,0.9-2,1.7-2.9,2.5c-0.1,0-0.1,0.1-0.2,0.1c0.4,2.4,0.7,4,1,5.8l0,0c-0.6-1.7-1-2.8-1.7-4.6 c0,0,0-0.1-0.1-0.2c-1-5.9-1.5-8.9-2.5-14.9c6.8,9.9,13.6,19.6,20.5,29.5c0,0.1,0,0.1,0.1,0.2c0.6,1.6,0.9,2.4,1.5,4l0,0l0,0 c0.5,0.7,0.9,1.3,1.4,2c-0.1-0.8-0.3-1.6-0.4-2.4l0,0l0,0c-0.8-2-1.1-3-1.9-5c-1-6-1.5-9-2.5-14.9c6.8,9.8,13.6,19.6,20.4,29.3 c0.4,1.3,0.7,2.1,1,3.2c0.1,0.1,0.2,0.2,0.2,0.3s0.1,0.2,0.1,0.3l0.1-0.1c0.1,0.1,0.1,0.2,0.2,0.2l0.7-0.7l0,0c0-0.1,0-0.2-0.1-0.3 l0.1-0.1c-0.1-0.2-0.1-0.3-0.2-0.5c-0.6-1.7-1-2.7-1.7-4.5v-0.1c-0.8-4.7-1.2-7.2-2-12c0-0.1,0-0.2,0-0.3c0.3-0.3,0.4-0.4,0.7-0.6 c4.9,8,9.9,16.1,14.8,24.1c-3.1-11.6-6.3-23.2-9.4-34.9l-0.1-0.1c0-0.1,0-0.2-0.1-0.3c0.1,0.1,0.1,0.2,0.2,0.4 c3.2,11.6,6.3,23.2,9.5,34.9c0.4,1.5,0.7,2.2,1.1,3.7c0.2-0.2,0.4-0.2,0.5-0.3c0,0.1,0,0.1,0.1,0.2c-0.3,0.2-0.4,0.2-0.6,0.3 c0,0.1,0.1,0.1,0.1,0.2c0.2-0.2,0.3-0.3,0.5-0.5c0-0.1,0-0.2,0-0.3l0,0c0-0.2-0.1-0.3-0.1-0.5c-0.9-3.5-1.3-5.4-2.3-9 c-0.2-0.6-0.3-1.2-0.5-1.8c-0.4-2-0.7-3.5-1.1-5.9c0.1,0,0.1-0.1,0.1-0.1c0-0.1,0-0.1,0-0.2c0.4-0.3,0.5-0.4,0.9-0.7 c5.9,9.6,8.8,14.3,14.7,23.8l0,0c0.4,1.5,0.6,2.2,0.9,3.7c0.3-0.2,0.5-0.3,0.7-0.3c0,0.1,0,0.1,0.1,0.2l0.1-0.1l0,0v-0.1l0,0 c0-0.1,0-0.1-0.1-0.2c0-0.1-0.1-0.2-0.1-0.4c-0.9-3.4-1.4-5.2-2.5-8.8c-0.1-0.5-0.3-1.1-0.4-1.6c-0.1-0.4-0.1-0.7-0.2-1.1 c0.2,0.9,0.5,1.7,0.7,2.6c-0.7-3.6-1-5.6-1.6-9c6.9,7.4,10.4,11.1,17.4,18.3c0.6,1.2,0.9,1.9,1.4,2.9c0.1,0.1,0.1,0.3,0.2,0.4 c0.1,0.1,0.1,0.3,0.2,0.4l0.1-0.1l0.1,0.1c0.3-0.4,0.4-0.6,0.7-1v-0.1c0-0.1-0.1-0.1-0.1-0.2l0,0c-0.1-0.1-0.1-0.2-0.2-0.3 c-1.4-2.8-2.2-4.3-3.6-7.2c-0.3-0.5-0.5-1.1-0.8-1.6c0-0.1-0.1-0.2-0.1-0.3c0.3,0.7,0.7,1.3,1,2c-2-5.3-2.9-8-4.8-13.2 c6.8,1.6,10.3,2.5,17.2,4c1.2,0.7,1.9,1.2,2.9,1.8c0.1,0.1,0.3,0.2,0.5,0.3c0.1,0,0.1,0.1,0.2,0.1V595c0.1,0,0.3,0.1,0.4,0.1 c0.1-0.5,0.2-0.7,0.3-1.2l0,0c-0.1-0.1-0.1-0.1-0.2-0.2c0,0,0,0,0-0.1l-0.1-0.1c-1.2-0.7-1.8-1.1-3.1-1.9c-0.1,0-0.1-0.1-0.2-0.1 c-0.3-0.2-0.5-0.3-0.8-0.5c-4.5-5.3-7.1-8.3-12-14c0.1,0,0.2,0,0.3-0.1c4.4-0.9,6.7-1.4,11.1-2.3c3.4-0.2,5.1-0.3,8.5-0.6 c0-0.1,0-0.1,0-0.2l0,0c0,0.1,0,0.2,0,0.3c-3,0.7-4.6,1-7.4,1.7c-0.2,0-0.4,0.1-0.6,0.1c0.1,0,0.1,0,0.2,0.1 c14.6,4.2,27.2,13.3,41.3,18.4c19.5,7.2,37.4,5.4,55.8-1.6c9.2-3.5,16.9-8.5,23.8-14.6v64.3 C1163.8,649.4,1156.5,654.9,1147.3,658.3z M940.92,252.9c16.3,0,32.8-0.8,49.3-2.5c-15.9,18-28.4,42.3-53.7,42.7 c-11.5,0.2-22.1-1.7-32.2-5c-25.4-8.3-47.2-25.1-70.39-38.6C867.43,251.7,902.82,252.9,940.92,252.9z M30,345.8 c28.1-12.7,56.7-23.9,86.49-32.9h0.1C88.39,299,59.7,287.2,30,277.7v-15.3c36.6,11.8,71.39,27.1,105.69,45.4 c12.9-3.2,26-5.9,39.2-8.1l-0.1-0.1h0.1c-42.7-25.4-86.19-47.4-132.59-63.7c19.2-8.7,38.3-16.3,57.1-22.7 c42,20,81.89,43.9,121.29,69.2l0,0l0,0c-0.1-31.9-0.1-63.8-0.2-95.6c6.5-0.6,12.9-1,19.3-1.3c0.1,45,0.1,90,0.2,135 c-74.6,4.2-142.9,23.1-209.99,52.7V345.8L30,345.8z M30,618.6c3.6-1.6,7.2-3.3,10.8-4.9C95,548.9,150.99,485.9,216.09,431.8 c-13.7,1.3-27.3,2.7-40.7,4.9c0,0,0,0-0.1,0l0,0c-8,7.5-15.8,15.2-23.6,23s-15.4,15.6-22.9,23.6s-15,16-22.4,24.1 c-11.1,12.2-21.9,24.5-32.7,37c-7.2,8.3-14.3,16.7-21.3,25.1c-3.5,4.2-7.1,8.4-10.6,12.6c-4,4.7-7.9,9.5-11.8,14.3v-45.9 c28.3-34.3,57-68.1,86.99-100.9c-30,8.9-58.7,20-86.99,32.8v-27.1c67.09-29.7,135.39-48.3,209.98-52.4c0,27.4,0.1,54.7,0.1,82.1 c0,0.1,0,0.2,0,0.3c0,27.4,0,54.8,0.1,82.1v0.1c20.2-0.8,40.3-0.6,60.49-0.1V402.8c100.39,3.5,200.18,16.5,298.98,33.9v4.7l0.1,0.1 v22.6c-48.4-8.5-96.99-15.8-145.79-21.7c49.8,35.9,98.59,72.8,145.39,112.6v15.2c-54.7-46.4-112.29-89.2-170.79-130.7l0,0 c-17-1.8-34.1-3.5-51.1-4.9l0,0h-0.1c46,31.7,91.59,63.9,136.09,97.7c7.3,5.5,14.6,11.1,21.8,16.8c21.7,16.9,43,34.1,63.89,51.9 v-0.1c0.2,0.2,0.4,0.3,0.6,0.5v-23.7c23.8,19.9,49.5,32.7,79.59,37.6c39.6,6.3,61.99-47.4,101.29-42.6c14.2,1.7,27.8,5.5,40.9,12.6 c3.4-2,5.3-3.2,8.4-5.1c-5-0.6-7.8-0.9-13.1-1.7v-0.7c0,0.2,0.1,0.4,0.1,0.7h10.6c2.8,0.4,4.1,0.6,6.8,1 c-8.8,5.5-13.2,8.3-22.1,13.7c-1,0.2-1.8,0.4-2.6,0.6c-0.5,0.1-1.1,0.2-1.7,0.4c0,0.1,0,0.2,0.1,0.3c0,0.1,0,0.2,0,0.3 c0,0.2,0.1,0.5,0.1,0.8c0.2,0,0.4-0.1,0.5-0.1l0,0c0,0.1,0,0.1,0,0.2c0.6-0.1,1.1-0.3,1.6-0.4c2.7-0.7,4.6-1.1,7.7-1.9 c0.2-0.1,0.5-0.1,0.7-0.2c3.9-0.4,6.2-0.7,10.1-1.1c0.2,0,0.4,0,0.6-0.1c-4.3,7.1-6.5,10.7-10.8,17.8c7.9-7.5,15.6-15,23.3-22.6 h0.1c-7.8,7.6-15.5,15.2-23.3,22.7c-1.4,1.4-2.2,2.1-3.6,3.6c0.2,0.3,0.3,0.4,0.4,0.6c-0.1,0.1-0.1,0.1-0.2,0.2l0,0 c0.1,0,0.1-0.1,0.2-0.1c0.1,0.1,0.2,0.3,0.3,0.4c0.5-0.5,0.9-0.9,1.3-1.3c0.7-0.7,1.4-1.4,2.3-2.3l0.1-0.1c6.5-3.5,9.9-5.4,16.2-9 c0.2-0.1,0.5-0.3,0.7-0.4c-1.2,5.4-1.9,8.1-3.1,13.5c-1.3,3.9-2,5.8-3.3,9.6c0.2,0.1,0.3,0.2,0.5,0.3l-0.1,0.1 c-0.3-0.2-0.5-0.3-0.7-0.5v0.1c0.3,0.1,0.5,0.2,0.8,0.5c0-0.1,0-0.1,0.1-0.2c0.1,0.1,0.2,0.1,0.4,0.2c0.1,0,0.1,0.1,0.2,0.1 c0.1-0.2,0.1-0.4,0.2-0.6c0.2-0.7,0.4-1.2,0.6-1.8c0.2-0.6,0.4-1.2,0.8-2l0.7-2c5.4-7.9,8.4-12.5,14.1-21.2c0,0.4,0,0.7,0,1.1 c0.2-0.3,0.4-0.6,0.6-1c-0.2,2.8-0.3,4.4-0.3,6.8c-0.1,0.6-0.2,1.1-0.3,1.7c-0.7,4.6-1.1,6.8-1.8,11.4c0.3,0.1,0.5,0.1,0.7,0.2l0,0 c-0.4-0.1-0.7-0.2-1.1-0.3c0-0.2,0-0.3,0-0.5c0,0.1,0,0.3-0.1,0.4c0,0,0,0,0,0.1l0,0v0.1l0,0c0.4,0.1,0.7,0.2,1.1,0.3v-0.1 c0.1,0,0.2,0.1,0.3,0.1l0,0l0,0c0.1-0.6,0.2-1,0.2-1.5c0.1-0.9,0.3-1.7,0.4-2.8c0.1-0.5,0.2-1,0.2-1.6c0-0.1,0.1-0.2,0.1-0.3 c3.6-8.1,7.2-16.3,10.7-24.4c0.2,0.1,0.3,0.1,0.5,0.2c0.1,0,0.2,0.1,0.4,0.1c-0.1,2.5-0.1,3.8-0.2,6.3c-0.4,2.8-0.7,4.7-1,6.8 c0.1-1.7,0.1-3.2,0.1-4.9c0.1-1.3,0.2-2.8,0.3-4.5c-0.1,0.3-0.2,0.5-0.4,0.8c-2.3,5.3-3.6,8.2-6,13.6c21.3,14.6,42,24.9,67.59,29.8 c-0.1,7.7-0.1,11.7-0.2,19.6c0.1,0.2,0.2,0.3,0.3,0.4v23.1c0,0,0,0,0-0.1c0,2.8,0,5.6-0.1,8.4c-0.1,0.5-0.1,0.8-0.1,0.9v1.1l0,0 v0.3l0,0l0,0c0,0.4,0,0.8,0.1,1.2c0,0.2,0.1,0.4,0.1,0.6c0,0.2,0,0.3,0,0.6l0,0c0,0.1,0,0.1,0,0.2c0,0.1,0,0.2,0,0.3l0,0 c0.1,0.7,0.3,1.3,0.5,2l0,0v6h-0.8v0.4l0,0v3.5c0,0.2,0,0.4,0,0.5v-1.3c-0.2,0.5-0.2,0.5,0,0.5h0.6V701c-0.2,0-0.4,0-0.7,0 s-0.5-0.1-0.7-0.3c0,0.1,0,0.2-0.1,0.3c-0.2,0.9-0.4,1.7-0.7,2.4c0.6,0,1.4,0.3,2.2,0.3h-2.2c-0.2,0.5-0.6,1.1-1,1.4h3.3v3.6 c-4.7-0.3-10.9-1-14.2-1.6c-2.1-0.3-3.8-0.9-5.2-1.5c-2.3-0.9-4.6-1.5-8.6-1.6c-1.7-0.1-3.4-0.4-4.9-0.7c-4.3-1-8.6-2-14,3.6 L873,707c-7.7,7.9-10.1,14.2-11.2,18.8c-2.3,12.6,4.9,25.1,10.5,35.8c0.3-0.1,0.6-0.1,0.8-0.1c0.1,0.2,0.2,0.3,0.3,0.4 c-0.4,0.1-0.7,0.1-1.2,0.2c-1,0.2-1.8,0.3-2.6,0.5s-1.6,0.3-2.7,0.5c-0.2,0-0.4,0.1-0.7,0.1c-0.1,0-0.1,0-0.2,0 c-0.2,0.3-0.2,0.5-0.4,0.8c-0.1,0.1-0.2,0.2-0.3,0.4c-0.2,0.2-0.5,0.5-0.8,0.6c4.1-0.7,6.2-1,10-1.6c-1.1,1.7-2.6,4.6-3.8,7.4 c-0.8,1.8-1.5,4-1.9,5.9h-0.9c-0.2,0-0.5,0-0.7,0.1c-0.5,0-0.9,0.1-1.3,0.2h-0.1c-0.7-4.8-1.1-7.2-1.8-12.1 c-0.4,0.3-0.7,0.2-1.1,0.5c0.7,4.9,1.1,7.3,1.8,12c0,0,0,0-0.1,0c-0.2,0-0.3,0.1-0.5,0.2c-2.2,1.3-3.7,4.2-3.7,7.5 c0,4.4,2.6,8.1,5.9,8.8c0.2,0,0.3-0.1,0.4-0.1c0.8,5.1,1.2,7.8,1.9,12.7v4c0.1-0.1,0.1-0.1,0.2-0.2v0.4c-1.6,1.9-2.3,2.8-3.9,4.7 c-27.2-17.2-51.5-35.6-83.39-39.4c-39.3-4.7-60.59,48.4-101.09,42.9c-32.5-4.5-59.3-19.9-84.09-40.6 c-20.5-17.1-41.7-34.7-68.89-38.5c-39.9-5.6-61.59,46.4-101.29,41.6c-32.7-4-60.59-16.2-88.19-34.8c-21-14.1-42-29.4-68.19-29.5 c-38.2-0.2-48.8,55.5-84.19,59.5c-24.7,2.8-45.4-2.5-68.19-13.7c-18.3-9-35.3-17-55.8-8.9c-15,6.3-23.6,18.7-31.6,31.6v-65.1 c7.9-12.7,16.4-24.9,31.3-31c20.4-8.6,37.5-1.2,56,7.7c22.9,11.1,43.5,16.4,68.29,13.5c35.4-4.1,46.1-59.8,84.29-59.7 c26.1,0.1,47.2,15.4,68.19,29.5c27.6,18.5,55.5,30.8,88.19,34.8c10.6,1.3,19.9-1.5,28.7-6.1c0.2-0.1,0.4-0.2,0.6-0.3 c0.3-0.1,0.5-0.3,0.8-0.4c12.2-6.8,23.3-17.1,35.2-24.8c10.9-7,22.4-11.8,36.1-9.9c27.2,3.8,48.4,21.4,68.89,38.5 c24.8,20.7,51.4,36.1,83.79,40.6c13.3,1.8,24.6-2.7,35.1-9.4c13-8.3,24.8-20,38-27.2c8.6-4.7,17.7-7.5,28.1-6.2 c26.2,3.2,47.3,15.2,69.49,30.5c0-0.1,0.1-0.1,0.1-0.2c0.9-1.5,2.6-2.7,4.3-2.6c0.7,0,1.3,0.3,1.8,0.6c-0.2-1.4-0.4-2.5-0.4-3.9 c-0.9,0.5-1.5,0.7-2.6,0.7c-1.3-0.1-2.9-0.7-3.8-2.1c-1.1-1.4-1.6-3.1-1.6-4.7c0-1.9,0.4-3.5,1.5-4.8c0.5-0.6,1-1,1.6-1.3 c-0.4,0.3-0.8,0.6-1.1,1c-1.1,1.3-1.5,2.9-1.5,4.8c0,1.9,0.7,3.6,1.6,4.7c1.1,1.4,2.4,2.1,3.8,2.1c0.8,0,1.5-0.2,2.2-0.5 c0.2,1.4,0.2,2.5,0.4,3.9c0.7,0.2,1.2,0.5,1.6,1.1c-0.4-1.9-0.9-3.9-0.9-5.8c0.1-0.1,0.1-0.2,0.2-0.3c1.1-1.3,1.5-2.9,1.5-4.6 c0-1.4-0.4-2.8-1.1-4.2c0,0,0,0,0-0.1c0,0.1,0.1,0.1,0.1,0.2c0.2-1.6,0.7-3,1.1-4.3c-0.4,0.3-0.9,0.2-1.3,0.2 c-0.2,1-0.6,1.8-0.8,2.7c0-0.1-0.1-0.1-0.1-0.2c0.2-0.9,0.4-1.7,0.8-2.4c-0.1,0-0.1,0-0.2,0c-2.9-0.2-5.3-3.3-5.5-6.9 c0-1.8,0.3-3.2,1.3-4.5c-0.5,1.1-0.8,2.3-0.8,3.7c0,3.6,2.4,6.7,5.5,6.9c0.1,0,0.1,0,0.2,0c0.1,0.3,0.5,0.3,1,0.1 c2.2-0.7,3.9-3.1,3.7-6.4c0-0.3,0-0.3,0-0.5c0-0.5-0.2-1-0.2-1.5l0.1-0.1c0.1,0.9,0.1,1.1,0.1,1.6c1.2-1.5,2.6-3.1,4-4.8 c0.2,0,0.3-0.1,0.5-0.1c0.9-0.2,1.5-0.8,2.2-1.5c0.4-0.5,0.7-1.1,0.9-1.6v-0.1c1.3-1.3,2.6-2.6,3.9-3.7c0.5-0.4,1.7-0.8,2.1-1 c0.1,0,0.2,0,0.3,0.1c0,0,1.3-0.2,1.9-0.2c0.2-0.1,0.4-0.2,0.6-0.3h0.4c1,0.1,2.3,0.4,3.8,0.4c1.1,0,2.1,0.4,3.2,0.4 c0.9,0.6,1.5,0.9,2.6,0.9c0.9,0,1.5-0.2,2.1-0.8c0.6-0.3,1.1-0.8,1.5-1.3c0.5-0.7,1-1.9,1.3-3c-0.2,1.3-0.7,2.5-1.4,3.3 c-0.4,0.5-0.8,1.1-1.5,1.3c1.9,0.1,3.8,0.4,5.5,0.4c-0.2-0.2-0.4-0.7-0.4-1.3c0.2,0.6,0.4,1.1,0.6,1.4c0.8,1.7,2.5,3.1,4.2,3.1 c1,0,2.1-0.5,2.9-1.3c0.4-0.3,0.6-0.8,0.8-1.1c0.5-1,0.9-2.1,1.1-3.3c0-0.2,0.1-0.3,0.1-0.5c0-0.3,0-0.3,0-0.5 c0-1.9-0.6-3.6-1.5-4.7c-1-1.4-2.3-2-3.6-2c-0.9,0-1.7,0.3-2.4,0.9c-1.1,0.6-2,1.6-2.6,2.9c-0.5-0.2-1.1-0.5-1.6-0.7 c-0.1-1.5-0.6-3.1-1.5-4.1c-1.1-1.4-2.3-2-3.6-2c-1,0-1.9,0.3-2.7,0.9c-0.6,0.3-1.3,0.7-1.8,1.4c-0.1,0-0.2,0.1-0.3,0.3 c-1.3-0.6-2.7-1.4-4-1.9c0.2,0.2,0.4,0.4,0.5,0.6c-0.1-0.1-0.2-0.1-0.3-0.2c-0.1-0.1-0.2-0.2-0.3-0.3c-0.8-0.9-1.8-1.5-2.8-1.7 c-0.3-0.1-0.7-0.2-1.1-0.2c-31.4-17.1-58.8-43.8-95.89-47c-40.2-3.5-60.69,48.3-101.19,42.7c-32.4-4.5-58.8-19.9-83.49-40.6 c-20.4-17.1-41.7-34.7-68.89-38.5c-39.9-5.7-61.59,46.4-101.29,41.6c-32.7-4-60.59-16.3-88.19-34.8c-21-14.1-42.1-29.4-68.19-29.5 c-38.3-0.1-49,55.6-84.49,59.8c-24.8,2.9-45.4-2.3-68.29-13.4c-18.5-8.9-35.6-16.5-56-8c-14.8,6-23.3,18.2-31.1,30.8v-31.6 L30,618.6L30,618.6z M858.83,728c-0.1,0.9-0.2,1.8-0.5,2.5c-0.8,2-2.3,3.2-3.9,3.1c0,0-2.2-0.7-3.1-1.8c-0.9-1.1-1.3-2.5-1.3-3.9 c0-1.2,0.3-2.4,1-3.4c0.1-0.1,0.2-0.3,0.3-0.4c0.9-1,2-1.5,3.1-1.5C856.83,722.7,858.63,725.3,858.83,728z M30,996v-3.6 c7.6-12.2,15.7-24.1,29.3-30.6c0.9-0.4,1.7-0.8,2.7-1.2c19.2-7.6,35.4-1.3,52.4,7C86.19,974.9,57.9,984.3,30,996z M229.28,950.1 c11.1-13.4,22.9-25.7,40.7-25.7c24.4,0.1,44.4,13.4,63.99,26.6c-23.7-1.1-48.4-1.7-74.29-1.7 C249.58,949.3,239.38,949.6,229.28,950.1z M736.14,1002.6c13-10.2,26.3-19.7,43-19.7c1.2,0,2.4,0,3.6,0.1 c26.7,2.2,48.8,15.9,70.79,29.8C811.53,1010.6,772.84,1007,736.14,1002.6z"/>
    <path d="M906.52,698.9c0,1.4-1.2,3.8-1.2,3.8l0.4-0.3h0.1c-0.2,0.5-0.6,0.8-0.8,1.1c0.4,0,0.6,0.3,0.8,0.3c1.2,0.3,2.5,0.6,4.2,0.9 l0,0c1,1.1,2.1,1.7,3.5,1.7c1.2,0,2.3-0.5,3.1-1.6c0.4-0.3,0.6-0.8,1-1.4c0.4-0.7,0.5-1.6,0.7-2.4c0-0.1,0.1-0.2,0.1-0.3v-1.1 c0-3.6-2.2-6.6-5.1-6.6c-0.7,0-1.4,0.2-2,0.5s-1.1,0.8-1.5,1.4c-0.8,1.1-1.2,2.4-1.4,3.8v0.8c0,1.3,0.2,2.4,0.6,3.5 c0,0.1,0.1,0.2,0.1,0.3h-0.1c-0.4-1.1-0.8-2.2-0.8-3.2v-0.8C907.62,699.2,907.02,698.9,906.52,698.9z M909.52,699.5 c-0.1-2.8,1.6-5.2,3.8-5.2c1.1,0.1,2.1,0.6,2.8,1.5c0,0,0,0,0.1,0.1s0.2,0.3,0.3,0.5s0.2,0.4,0.3,0.6c0,0.1,0.1,0.2,0.1,0.2 c0,0.1,0.1,0.2,0.1,0.4c0.2,0.6,0.3,1.3,0.3,2c0,3-1.6,5.4-3.9,5.4C911.32,704.9,909.72,702.5,909.52,699.5z"/>
    <path d="M800.23,514.2c0.2-0.2,0.3-0.3,0.4-0.5c-0.2,0.1-0.4,0.2-0.6,0.3C800.13,514.1,800.13,514.1,800.23,514.2z"/>
    <path d="M847.23,395.1c-0.3-0.2-0.6-0.4-1-0.6c2.2,4,3.4,6.3,5.5,10.1c-0.2-2.6-0.4-4.1-0.6-6.9c0,0,0,0,0-0.1l0,0 c-0.3-0.1-0.5-0.3-0.8-0.4C849.23,396.4,848.23,395.7,847.23,395.1z"/>
    <path d="M599.25,606.8c0.2,0,0.3,0.1,0.5,0.1v-5.5c-0.2-0.1-0.3-0.3-0.5-0.4V606.8z"/>
    <path d="M321.97,568.4v-0.1c-8.6-0.4-12.9-0.6-21.3-0.8v0.1C309.07,567.9,313.37,568,321.97,568.4z"/>
    <path d="M453.96,442.4c-1.3-0.2-2.5-0.3-3.6-0.4L453.96,442.4z"/>
    <path d="M909.22,546.4c-0.5,1-0.7,1.5-1.2,2.5c0.1,1.1,0.1,1.6,0.2,2.7C908.62,549.5,908.82,548.5,909.22,546.4z"/>
    <path d="M907.52,555.7L907.52,555.7v-0.1V555.7z"/>
    <path d="M936.62,535.7L936.62,535.7L936.62,535.7c-0.1,0-0.2-0.1-0.3-0.1c-0.2-0.1-0.4-0.1-0.7-0.2l0,0c0.4,0.4,0.6,0.7,1,1.1 c0-0.2,0-0.3,0.1-0.6c2.1,1.1,3.2,1.6,5.2,2.7c-0.1-0.1-0.1-0.2-0.2-0.2C939.72,537.3,938.62,536.8,936.62,535.7L936.62,535.7z"/>
    <path d="M910.82,543c-0.6,1.4-0.9,2.1-1.6,3.5c-0.4,2.1-0.6,3.1-1,5.2c-0.2,1.6-0.4,2.5-0.6,4h-0.1c0.1,0.7,0.1,1.5,0.2,2.5 c0.3-0.8,0.5-1.5,0.8-2.1c0,0,0,0,0.1,0l0,0c0-0.1,0-0.1,0-0.2c0-0.1,0-0.2,0-0.3c0.3-1.9,0.5-3,0.7-5c0.1-0.3,0.1-0.5,0.1-0.8 C910.12,547.2,910.32,545.7,910.82,543z"/>
    <path d="M858.63,402.9c3.4,6.3,5.1,9.5,8.4,15.8c0-0.2,0-0.3,0-0.5c0,0.1,0.1,0.2,0.1,0.3c-0.3-2.8-0.6-4.7-0.8-6.8 c-0.1-1.2-0.2-2.4-0.4-4c0,0-0.1,0-0.1-0.1C863.43,406.2,861.03,404.7,858.63,402.9L858.63,402.9z"/>
    <path d="M1023.61,608.5c0.2-0.2,0.3-0.3,0.4-0.4c-0.2,0.1-0.3,0.2-0.5,0.2C1023.51,608.4,1023.61,608.4,1023.61,608.5z"/>
    <path d="M995.92,589.4c0.2,0.2,0.3,0.5,0.4,0.7c0-0.2-0.1-0.3-0.1-0.5c-0.1-0.1-0.1-0.2-0.2-0.3 C996.02,589.3,995.92,589.4,995.92,589.4z"/>
    <path d="M941.72,538.3c0.1,0,0.1,0.1,0.2,0.1c-0.6-0.9-0.9-1.3-1.6-2.2h-0.1c0.1,0.1,0.2,0.3,0.3,0.4 C941.02,537.3,941.32,537.7,941.72,538.3z"/>
    <path d="M976.22,359h-0.1c-2.3,9.9-4.7,19.8-7.1,29.8c0,0.1,0.1,0.2,0.1,0.3C971.42,379.1,973.92,369.1,976.22,359z"/>
    <path d="M978.52,441c-6.5,7.6-13.1,15.2-19.9,22.6l0,0v0.1c-0.5,1.9-0.8,2.9-1.3,4.9l0,0l0,0c7-8.9,13.9-17.9,20.8-27l0,0 C978.22,441.4,978.42,441.2,978.52,441z"/>
    <path d="M913.02,399.5c0.1,0.1,0.2,0.3,0.3,0.4c-3.9-13.9-7.9-27.8-11.9-41.6h-0.1c0,0.2,0.1,0.3,0.1,0.5 C905.32,372.4,909.22,386,913.02,399.5z"/>
    <path d="M884.53,478.4L884.53,478.4c0.9,0.7,1.4,1,2.3,1.7c0.2,0.1,0.4,0.1,0.6,0.2c0.1,0,0.1,0.1,0.2,0.1s0.2,0.1,0.3,0.1 c0,0.1,0.1,0.1,0.1,0.2c0.1,0.1,0.2,0.2,0.4,0.3c-0.2-0.4-0.3-0.7-0.6-1.1c-0.3-0.5-0.5-0.7-0.7-1.1l0,0c-0.1-0.1-0.1-0.2-0.2-0.3 l0,0l0,0c-0.2-0.4-0.3-0.7-0.6-1.1c0,0,0,0,0-0.1c0,0.1,0.1,0.2,0.1,0.3c-1.1,0.1-1.7,0.1-2.7,0.2c0.1,0,0.1,0.1,0.2,0.1 c-0.1,0-0.3,0-0.4,0C883.83,478,884.03,478.2,884.53,478.4z"/>
    <path d="M860.63,747.5c0.2-0.9,0.2-1.4,0.4-1.8v-0.8h-0.2c0-1.9-0.7-3.5-1.5-4.6c-0.2-0.3-0.4-0.3-0.7-0.6 c-0.4-0.3-0.9-0.9-1.3-0.9c-0.7-0.3-1.1-0.6-1.8-0.6c-1.8-0.1-3.3,0.9-4.4,2.8c-0.2,0.3-0.4,0.7-0.5,1c-0.4,0.9-0.5,1.9-0.4,3.1 c0,3.6,2.4,6.7,5.5,6.9c1.5,0.1,2.9-0.7,3.7-1.7c0.4-0.5,0.9-1.3,1.1-2.1c0-0.2,0.1-0.3,0.1-0.4c0.4,0.8,0.8,1.6,1.2,2.3 c0.2,0.7,0.5,1.2,0.7,1.6l0,0h-0.9c-1.5-0.1-2.8,0.7-3.7,1.7s-1.5,2.9-1.5,4.8c0,1.2,0.3,2.3,0.7,3.3c0.2,0.5,0.5,1,0.8,1.4 c1.1,1.4,2.4,2,3.7,2.1c0.4,0,0.9,0,1.1-0.2c0.8,0.5,1,0.2,1.4-0.1c0.2,0,0.4-0.3,0.4-0.3c0.4-0.3,0.7-0.5,1.1-1 c0.2-0.3,0.2-0.5,0.4-0.8c0,0,0-0.3,0.2-0.3c0.7-1.1,0.9-2.4,0.9-3.8c0-1.5-0.5-3-1.2-4.2c-0.4-0.6-0.8-1.1-1.3-1.6 c-0.1-0.1-0.2-0.2-0.3-0.3c-0.4-1-0.8-2-1.4-3.2c-0.7-1.1-1.3-2.5-1.8-3.6C861.03,746.2,860.83,747,860.63,747.5z M851.63,742.2 c0-0.1,0.1-0.2,0.1-0.3c0.7-1.6,2.1-2.7,3.6-2.5c1.1,0.1,2.2,0.7,3.1,1.8c0.9,1.1,1.3,2.5,1.3,3.9h0.2c0,1-0.2,1.9-0.7,2.8 c-0.1,0.2-0.3,0.5-0.5,0.7c-0.9,1.1-2,1.6-3.1,1.5c-2.4-0.1-4.4-2.7-4.4-5.7C851.33,743.6,851.43,742.8,851.63,742.2L851.63,742.2z M857.53,758.4c0-3,2-5.4,4.2-5.3c1,0,1.8,0.5,2.6,1.2c1,1,1.7,2.6,1.8,4.2c0,1.4-0.4,2.7-1.3,3.8c-0.7,1.3-1.8,1.8-2.9,1.8 c-1.7-0.1-3.1-1.4-3.9-3.3C857.73,760.1,857.63,759.3,857.53,758.4z"/>
    <path d="M939.92,810.4v-11.8c-4.2,0.1-7.1,0.2-10.3,0.2c-2.4,0-5,0-8.3-0.1v11.8C928.82,810.6,932.52,810.6,939.92,810.4z"/>
    <path d="M957.52,813.7c0.6,0,1,0,1.6-0.1c2.3-0.1,4.5-1.1,5.6-2.8c0.1-0.1,0.2-0.2,0.3-0.3c0.4-0.5,0.6-1.2,0.6-2.4 c0-3.6-3.7-6.6-8.1-7c-2.9-0.4-5.9,0.8-7.2,2.5c-0.3,0.4-0.6,1-0.8,1.6c-0.1,0.5-0.2,1-0.2,1.4 C949.32,810.2,953.02,813.3,957.52,813.7z"/>
    <path d="M915.72,803.6L915.72,803.6c0.1,0,0.1,0,0.1,0c1.5,0,2.7-1.6,2.7-3.5s-1.3-3.6-2.7-3.6c0,0,0,0-0.1,0l0,0 c-1.5,0-2.7,1.6-2.7,3.5S914.22,803.6,915.72,803.6z M915.82,797.8c0.8,0,1.6,1.1,1.6,2.2s-0.8,2.2-1.6,2.2c-0.2,0-0.5-0.1-0.7-0.2 c-0.2-0.1-0.4-0.3-0.5-0.5c-0.3-0.4-0.4-1-0.4-1.5c0-0.6,0.1-1.1,0.4-1.5c0.1-0.2,0.3-0.4,0.5-0.5S915.62,797.8,915.82,797.8z"/>
    <path d="M916.42,805.8c-1.4,0-2.7,1.6-2.7,3.5c0,0.6,0.1,1.1,0.3,1.6c0.4,1.1,1.3,2,2.4,2c1.4,0,2.7-1.6,2.7-3.5 c0-0.4-0.1-0.8-0.2-1.1C918.62,806.9,917.62,805.8,916.42,805.8z M914.92,809.4c0-1.1,0.8-2.2,1.6-2.2c0.2,0,0.4,0,0.5,0.1 c0.5,0.4,1,1.2,1,2c0,1.4-0.8,2.2-1.6,2.2c-0.3,0-0.6-0.1-0.9-0.3C915.22,810.8,914.92,810.2,914.92,809.4z"/>
    <path d="M887.43,809.8c1.5,0,2.8-1.6,2.8-3.5v-0.1v-0.1c0-2-1.3-3.7-2.8-3.7c-1.2,0-2.1,1-2.6,2.3v0.1c-0.1,0.2-0.1,0.4-0.1,0.5 s0,0.2,0,0.2c0,0.1,0,0.2,0,0.4v0.1v0.1C884.63,808.1,885.93,809.7,887.43,809.8z M889.13,806.2c-0.1,1.3-0.8,2-1.7,1.9 s-1.6-1.1-1.7-2.1v-0.1c0-1.1,0.9-2.2,1.7-2.1c1.1,0,1.7,1.2,1.7,2.2C889.13,806.1,889.13,806.1,889.13,806.2z"/>
    <path d="M887.63,815.1c0,0.2,0,0.5,0.1,0.7c0.1,0.5,0.2,0.9,0.4,1.3c0.2,0.4,0.5,0.7,0.8,1c0.4,0.4,1,0.6,1.5,0.6 c1.5,0,2.8-1.6,2.8-3.5c0-0.2,0-0.5-0.1-0.7c-0.1-0.5-0.2-0.9-0.4-1.3c-0.2-0.4-0.5-0.7-0.8-1c-0.4-0.4-1-0.6-1.5-0.6 C888.93,811.6,887.63,813.2,887.63,815.1z M890.43,813c0.8,0,1.7,1.1,1.7,2.2c0,1.1-0.8,2.1-1.7,2c-0.8,0-1.7-0.8-1.7-2.2 c0-0.1,0-0.2,0-0.3c0.1-0.7,0.5-1.3,1.1-1.6C890.03,813,890.23,813,890.43,813z"/>
    <path d="M971.52,808.8c1.4-0.1,2.5-1.8,2.5-3.7s-1.2-3.5-2.5-3.4s-2.5,1.8-2.5,3.7S970.22,808.9,971.52,808.8z M970.02,805.4 c0.1-1.3,0.8-2.1,1.5-2.1c0.8-0.1,1.4,0.9,1.5,2c0,0.1,0,0.1,0,0.1c0.3,1.1-0.5,2.2-1.5,2.3s-1.5-1-1.5-2.1 C970.02,805.5,970.02,805.5,970.02,805.4z"/>
    <path d="M881.73,829.4c-0.1,0-0.1,0.1-0.2,0.1l0,0c-0.5,0.3-1,0.6-1.4,0.8c-0.3,0.2-0.6,0.3-0.9,0.5c-0.9,0.5-1.8,1-3.1,1.7 c0.2-0.3,0.2-0.5,0.2-0.8c0-0.1-0.1-0.2-0.1-0.3c0.1-0.2,0.1-0.3,0.1-0.5c0-0.8-0.9-1.4-1.5-1.4c-0.4,0-0.6,0.2-0.9,0.5 c-0.2,0.3-0.2,0.8-0.2,1.1c0,0.1,0,0.2,0,0.3s0,0.3,0,0.5s0.1,0.3,0.1,0.3c-0.2,0.1-0.4,0.2-0.6,0.5v0.1c-0.1,0.1-0.1,0.1-0.2,0.2 c-0.2,0.3-0.2,0.6-0.2,1.1c0,0.8,0.7,1.4,1.3,1.4c0.1,0,0.1,0,0.2,0c0.1,0,0.1,0,0.2,0c0,0.8,0.7,1.4,1.3,1.4c0.1,0,0.1,0,0.2,0 c0.5,0,0.7-0.2,0.9-0.5c0.1-0.2,0.2-0.4,0.2-0.7c0.1-0.3,0.1-0.7,0.1-0.9h-0.1v-0.1c2,0,3,0,5.1-0.1v-2.1h-1.1 c-0.1-0.4-0.1-0.7-0.2-1.1c0.5-0.4,0.8-0.6,1.3-1C881.93,830.1,881.83,829.8,881.73,829.4z"/>
    <path d="M905.82,821.3c-0.1,0-0.1,0.1-0.2,0.1c0-0.2-0.1-0.3-0.2-0.5c-2.1,1.3-3.1,1.9-5.2,3.2c0,0,0,0,0-0.1l0.3-0.1 c0-0.3,0.2-0.5,0.2-0.8c0-0.8-0.6-1.4-1.5-1.4c-0.2,0-0.4,0.1-0.5,0.2c-0.3,0.1-0.4,0.2-0.6,0.5c-0.2,0.3-0.2,0.6-0.2,1.1 c0,0.3,0.2,0.3,0.2,0.6c-0.4,0-0.6,0.2-0.8,0.5s-0.2,0.6-0.2,1.1c0,0.8,0.7,1.4,1.3,1.4c0.1,0,0.1,0,0.2,0c0.1,0,0.1,0,0.2,0 c0,0.2,0.1,0.3,0.2,0.4c0.1,0.6,0.6,1.1,1.2,1.1c0.1,0,0.1,0,0.2,0c0.4,0,0.6-0.3,0.8-0.5c0.2-0.4,0.4-0.9,0.2-1.2 c0-0.3-0.2-0.8-0.4-0.8h-0.1l0,0h0.1c2.1-0.1,3.1-0.1,5.2-0.2v-1.3h-0.4v-0.4h-0.7c0-0.2-0.1-0.4-0.1-0.7c0.5-0.4,0.7-0.6,1.2-1.1 C906.02,822,906.02,821.7,905.82,821.3z"/>
    <path d="M935.02,818.4c-2,0.6-3.2,0.8-5.2,1.4c0-0.1,0-0.3,0-0.5h0.2c0-0.8-0.4-1.6-1-1.6c-0.4,0-0.6,0-0.9,0.2 c-0.2,0-0.4,0.1-0.5,0.3c-0.2,0.3-0.4,0.6-0.4,1.1c0,0,0,0.1,0,0.3c-0.1,0-0.2,0.1-0.3,0.2c-0.2,0-0.3,0.1-0.5,0.3 c-0.2,0.3-0.4,0.6-0.4,1.1c-0.2,0.8,0.4,1.6,1,1.6c0.2,0,0.2,0,0.2,0c-0.2,0.7,0.3,1.4,0.8,1.6c0.1,0.1,0.3,0.1,0.4,0.1 c0,0,0,0,0.2,0s0.6,0,0.8-0.3s0.4-0.5,0.4-1.1h0.2c0-0.3,0-0.8-0.2-1.1c-0.1,0-0.1,0-0.2,0v-0.1c2,0.6,3,0.9,5,1.4v-1.1 c-0.3-0.2-0.5-0.2-0.8-0.2v-1.1c0.3-0.2,0.6-0.4,1-0.6c0-0.1,0-0.2,0-0.3c0.1-0.1,0.3-0.2,0.4-0.2 C935.12,819.3,935.12,819,935.02,818.4z"/>
  </g>
</svg>