<svg viewBox="0 0 1200 1200" xmlns="http://www.w3.org/2000/svg">
  <g>
    <path d="M1200,246.3L1200,246.3V155c-89.2,45-174.4,67.9-259,67.9c-280.7,0-416.7-67.9-681.3-67.9C175.2,155,89.1,178,0,222.9v820 c89-44.9,175.2-63.6,259.7-63.6c268.9,0,398.5,65.7,680.3,65.7c84.6,0,170.8-22,260-66.9V337.8l0,0V246.3z M1170,959.3 c-36.8,17.4-73.5,30.8-109.2,40c-40.5,10.4-81.1,15.7-120.8,15.7c-140.1,0-243.6-16.8-343.7-33c-98.9-16.1-201.3-32.7-336.6-32.7 c-45.7,0-91.1,5.3-135.1,15.8C93,972.6,61.3,982.9,30,996v-58.3c85.5-36.9,174.6-51.8,268.8-49.2c101,2.8,201.7,16.2,301.2,32.9 s200.3,29.5,301.3,32c95.3,2.4,182.9-15.2,268.7-52.7V959.3z M1170,809.2c-85.8,37.5-173.3,55.2-268.7,52.8 c-101-2.5-201.8-15.3-301.3-32.1s-200.2-30.2-301.2-33c-94.5-2.5-183.2,12.9-268.8,49.8v-91.1c85.8-37,174-53,268.8-50.3 c101,2.8,201.7,16.3,301.2,33.2s200.3,29.6,301.3,32.2c95.4,2.4,182.8-15.4,268.7-52.9V809.2z M1170,443.4 c-49.1,22.1-100,39.4-153.7,47.4c-55.9,8.3-112.7,6.8-169,3.3C706.6,485.3,569,455,429.1,439.5c0,30.5,0,61.1-0.1,91.8 c140,15.4,277.5,45.5,418.3,54.3c56.3,3.5,113.1,5.1,169.1-3.3c53.6-8.1,104.5-25.3,153.6-47.3v91.3 c-85.9,37.6-173.2,55.5-268.7,53.1c-101-2.6-201.8-15.3-301.3-32.4c-99.5-17.1-200.2-30.6-301.2-33.4c-95-2.7-183,14-268.8,51v-423 c37.1-17.6,73.8-31.2,109.2-40.5c40.7-10.7,81.2-16.1,120.5-16.1c127.9,0,223.7,15.9,325.2,32.8C688.7,235,796.1,252.9,941,252.9 c44.4,0,90-6.1,135.4-18.1c30.5-8.1,61.9-19,93.6-32.7v58.4c-49.2,22.2-100,39.6-153.8,47.6c-55.9,8.4-112.7,6.8-168.9,3.3 c-140.8-8.8-278.3-39.4-418.2-55V348c140,15.5,277.5,46,418.3,54.8c56.2,3.5,113,5.1,168.9-3.3c53.7-8.1,104.5-25.4,153.7-47.6 V443.4z"/>
    <path d="M214.7,438C214.9,437.9,214.7,437.9,214.7,438L214.7,438z"/>
    <path d="M203.5,507.7c3.7-23.1,7.5-46.2,11.2-69.2c0.3-0.1,0.2-0.4,0-0.5c-5.8,3-12,5.2-18.4,5.9h-0.4 c-0.1,35.3-0.2,70.6-0.3,105.9c-5.7-35.8-11.4-71.5-17.1-107.3c-0.2-0.1-0.5-0.2-0.8-0.3c0,0-0.1,0-0.1-0.1c0,0.1-0.1,0.1-0.1,0.1 c-0.1,0-0.2-0.1-0.3-0.1c-5.7-1.9-10.7-5.1-15-9.2c-0.1-0.1-0.1-0.1-0.2-0.2c-21.8,29.8-42.9,60.2-63.5,90.9 c17.7-35.4,35.6-70.7,53.9-105.7c-0.1-0.3-0.2-0.5-0.3-0.8l0,0c0,0,0,0-0.1,0h-0.7c-0.5,0.2-1,0.5-1.5,0.7 c-19.9,11.6-35.5,25.8-50.2,43.4c-8.5,9.7-17.2,22.1-31.4,23.2h-2.1c-0.1,0.3-0.1,0.4-0.1,0.6l0,0c0,0,0,0,0,0.1l0,0 c0,0.1,0,0.1,0,0.2c0.4,0,0.9,0,1.3,0c0.6,0.1,1.3,0.3,1.9,0.3c1-0.2,1.5-0.3,2.6-0.5c-0.3-0.1-0.6-0.1-0.8-0.1 c1.6-0.3,3.2-0.6,4.5-1.2c10.2-3.9,17.7-14.3,24.6-22.3c14.6-17.6,30.8-33.3,51.4-43.8c0.1,0,0.3-0.2,0.4-0.2c0,0,0,0,0,0.1 s-0.1,0.2-0.1,0.3c0,0,0,0,0,0.1c-20.5,10.5-36.7,26.2-51.3,43.7c-0.3,0.4-0.5,0.6-0.8,0.9c-5.3,6.4-10.4,12.6-15.9,16.8 c-3.6,2.8-7.1,4.6-10.9,5.5c-0.4,0.1-0.6,0.1-0.9,0.2c-1,0.3-1.5,0.4-2.4,0.7c-0.7,0.1-1,0.2-1.6,0.3c1.9,0,2.9,0.1,4.8,0.1 c3.8,0.2,7.1-0.4,10-1.4c6.6-2.3,11.6-7.4,17.4-13.2c9.8-10.1,21.5-19.3,35.5-22.8c0,0.1-0.1,0.1-0.1,0.2 c-13.8,26.9-27.4,53.9-40.8,81c20.2-23,41-45.5,62.5-67.3l0,0c-5.5,18.2-9.7,35.9-6.9,54.9c2,12.7-1.7,22.8-9.4,33.2 c-0.4,0.6-0.6,0.9-1.1,1.5c0.6-0.3,0.8-0.5,1.4-0.9c0,0,0,0,0,0.1c0,0,0,0,0.1-0.1c0,0,0,0,0,0.1c0.3-0.2,0.5-0.4,0.8-0.6 c-0.2,0.1-0.3,0.2-0.5,0.3c1.2-1,2.4-2.1,3.5-3c9.8-10,12.2-23.7,13.5-37.1c2.9-24,9.1-45.7,18.9-67.9c0.1-0.2,0.1-0.3,0.2-0.6v0.3 c0,0.2,0,0.2,0,0.4v0.1c-9.7,22-15.9,43.6-18.8,67.5c0,0.5-0.1,0.8-0.1,1.3c-1,8-2.1,15.6-4.6,22.3c-1.7,4.5-3.9,8.2-6.8,11.6 c-0.3,0.3-0.4,0.5-0.7,0.8c-0.2,0.2-0.3,0.3-0.4,0.5c-0.4,0.3-0.7,0.5-1.1,0.8c-1,0.9-2,1.8-3.1,2.7c0.9-0.6,1.8-1.2,2.6-1.8 c0.2-0.2,0.5-0.4,0.7-0.6c-0.2,0.2-0.4,0.5-0.7,0.8c-0.5,0.5-0.7,0.8-1.2,1.4c1.8-1.5,2.7-2.2,4.6-3.6c10-7.3,14.5-18.1,16.6-29.9 c3.4-15.6,9.3-28.4,18-41.6c4.3,27,8.6,54,12.9,81c0.1-0.8,0.3-1.7,0.4-2.5c0,0.1,0,0.2,0,0.3C198.5,538.8,201,523.3,203.5,507.7z M77,484.9c0.4,0,0.8-0.1,1.2-0.2C77.8,484.8,77.3,484.8,77,484.9C76.9,484.9,77,484.9,77,484.9z M78.9,484.6 c-0.1,0-0.3,0.1-0.4,0.1C78.6,484.6,78.7,484.6,78.9,484.6z M99,470.7c-4.2,4.2-7.8,7.8-11.8,10.4c3.9-2.6,7.5-6.3,11.6-10.4 c10.3-10.5,22.5-20,37.2-23.4c4.6-9,9.3-18.1,14-27c0.2-0.1,0.3-0.2,0.5-0.3c-4.8,9.2-9.5,18.2-14.3,27.4c-0.1,0.3-0.3,0.5-0.4,0.8 c0-0.3,0.2-0.5,0.3-0.9C121.5,450.7,109.3,460.1,99,470.7z M158,511c-1.4,14-4.1,28.1-14.9,38c6.3-10.6,10.2-19,8-31.6 c-2.8-18.9,1.4-36.4,6.8-54.5c0-0.2,0.1-0.3,0.1-0.4h-0.1c-0.1-0.1-0.2-0.1-0.4-0.1c6.4-6.4,12.8-12.8,19.3-19.2 c-0.2,0.4-0.4,0.9-0.6,1.3C166.8,466.2,160.9,487.6,158,511z M178,445.4c0,0.1,0,0.3,0.1,0.4c-9.3,21.3-15.1,42.2-17.9,65.2 c0,0.5-0.1,0.8-0.3,1.2c0-0.4,0.1-0.7,0.1-1.2C162.9,487.9,168.7,466.9,178,445.4z M151.4,542.8c0-0.1,0.1-0.2,0.1-0.2 c4.2-3.8,7.4-9.4,9.4-15.3C159,533.1,156.1,538.5,151.4,542.8z M163.5,517.2c0,0.2-0.1,0.3-0.1,0.5c0-0.2,0.1-0.4,0.1-0.6 c0.4-1.7,0.8-3.4,1.2-5C164.3,513.8,163.9,515.5,163.5,517.2z"/>
    <path d="M68.2,484.2c11.5-4.6,18.2-12.3,23.5-23.1c9-17.5,21.1-30.5,36.3-42.9c0.1-0.1,0.2-0.1,0.3-0.2c0-0.1,0-0.1,0-0.1 c-0.1-0.3-0.1-0.4-0.2-0.6c7.8-0.4,15.6-0.7,23.5-0.7h0.7c-0.3-0.1-0.4-0.2-0.4-0.3c-0.2,0-0.4,0-0.6,0c0.2,0,0.3,0,0.5,0 c-2.1-6-3.3-12.7-3.3-20v-0.4c-30.5,7.1-59.9,16.5-89,27.9c29.9-18,60.4-34.4,92.4-48.5c0.1-0.3,0.2-0.6,0.4-1 c-0.1,0-0.2,0-0.3,0.1c-0.1,0-0.1,0-0.2,0s-0.2,0-0.3,0.1c-0.7,0.3-1,0.5-1.7,0.8c-0.9,0.4-1.8,0.8-2.7,1.2 c0.8-0.3,1.6-0.7,2.4-1.1c-17.7-7.2-33.5-9.4-52.3-6.3h-0.9c-6.7,1-12.9,2.1-18.4,1.2c-2.2-0.4-4.1-1.2-5.8-2.2 c0-0.1-0.1-0.1-0.1-0.2c1.7,1.1,3.7,1.9,5.9,2.3c5.4,1,11.7-0.1,18.4-1.2c0.4-0.1,0.6-0.1,1-0.2c18.9-2.9,34.5-0.9,52.3,6.3 c0.7-0.3,1-0.5,1.7-0.8c-18-7.6-34.5-10.4-53.8-7c-0.4,0.1-0.6,0.1-1,0.2c-6.6,1.1-12.8,2.1-18,1.1c-3.5-0.6-6.3-2.2-8.6-4.7 c-0.2-0.2-0.3-0.4-0.6-0.6c-0.1-0.1-0.2-0.2-0.3-0.3c-0.2-0.3-0.3-0.7-0.4-1c-0.7-1.1-1.5-2.3-2.1-3.7c0.2-0.3,0.4-0.4,0.6-0.6 c0,0,0,0-0.1,0c-0.4-0.3-0.6-0.5-1-0.8c0.2,0.6,0.3,0.9,0.5,1.5c0.2,1.1,0.6,2.2,1,3c-0.3-0.3-0.5-0.5-0.7-0.8 c0.9,1.8,1.3,2.7,2.2,4.5c5.5,11.8,13.1,11.3,22.4,11c13.1-0.8,22.1,3.6,32.6,10.9c0.5-0.2,0.8-0.3,1.1-0.5c0,0,0.1,0,0.1,0.1 c3.8-1.8,6.9-3.3,9.8-4.7c-2.8,1.3-5.8,2.8-9.5,4.6c-0.6,0.3-0.8,0.4-1.4,0.6c-24.1,12.1-47.3,25.2-70.2,39.2 c24.7-4.6,49.3-7.7,74.2-9c-0.1,0.1-0.2,0.1-0.3,0.2c-15.3,12.5-27.6,25.6-36.6,43.2c-5.6,11.5-13,18.9-25.3,23.4 c-0.6,0.2-0.9,0.4-1.5,0.6c0.5,0.1,0.8,0.2,1.3,0.3c0.1,0,0.1,0,0.2,0c0.1-0.3,0.1-0.5,0.2-0.8H68.2L68.2,484.2z M77,372.9 c-0.1,0-0.1-0.1-0.2-0.1C76.9,372.8,77,372.8,77,372.9z M76,372.2c-0.2-0.2-0.5-0.4-0.7-0.6C75.5,371.8,75.8,372,76,372.2z M75,371.4c-0.1-0.1-0.2-0.2-0.4-0.3C74.7,371.1,74.8,371.3,75,371.4z M124.1,402.5c-23.1,6.4-45.8,14.2-68.2,23.1 c-0.1,0-0.2,0-0.3,0.1C78.2,416.7,100.9,409,124.1,402.5z M124.9,402.3L124.9,402.3L124.9,402.3z"/>
    <path d="M66.6,358.2c0.7,1.4,1.4,2.6,2.1,3.7c6.5,9.5,19.3,7.2,28.9,5.2c19.3-3.4,35.9-0.5,53.9,6.9c0.1,0.1,0.2,0.1,0.5,0.2 c0.1,0,0.2,0,0.3-0.1c0,0,0-0.1,0.1-0.1l0,0c0-0.2,0.1-0.4,0.1-0.5c-17.9-27-36.1-53.9-54.8-80.4c0.1,0.1,0.2,0.2,0.3,0.2 c18.6,26.4,36.7,53.2,54.6,80.2c2.4-7.1,5.7-13.7,10-19.6c0,0,0,0-0.1-0.1c0.1-0.1,0.1-0.1,0.2-0.2c-20.2-20-40.8-39.7-62.1-58.6 c26.3,13.6,51.6,28.7,76.5,44.6c0.2-0.2,0.4-0.4,0.6-0.5l0.1,0.1c0,0,0.1,0,0.1-0.2c0-0.3,0.1-0.5,0.1-0.8 c-0.1-0.5-0.2-1.2-0.3-1.7c-5.4-20.3-12.9-37.8-25.1-54.8c-7.8-10.1-13.6-21.6-10-34.7c-0.7,10.4,2.9,19.7,12.1,24.9 c14,9,20.7,23,27.1,38c0,0.2,0.1,0.2,0.1,0.4h0.1c0.2-0.1,0.4-0.2,0.6-0.4c0-0.2-0.1-0.2-0.1-0.4c-6.4-15.1-13.1-29.3-27.2-38.4 c-10.2-5.5-12.1-16.3-11.8-27.1v-1.8c-0.3,0.7-0.4,1-0.7,1.7c0,0.1-0.1,0.2-0.1,0.3c0.2,0,0.4,0.1,0.6,0.1v0.1 c-0.3,0-0.4-0.1-0.6-0.1v-0.1c0,0,0,0-0.1,0c-0.1,0.2-0.1,0.4-0.2,0.6c0-0.1,0.1-0.2,0.1-0.2c-0.5,1.7-0.8,3.3-1.1,4.9 c-2.5,12.5,3.4,23.3,10.8,32.9c12.6,17.4,20,35.3,25.3,56.1c0,0.1,0.1,0.3,0.1,0.4l-0.1-0.1c-0.1,0-0.1-0.1-0.2-0.1h-0.1 c-5.3-20.7-12.7-38.5-25.2-55.9c-0.2-0.3-0.3-0.5-0.6-0.8c-3.9-5.5-7.6-10.6-9.5-16.6c-1.2-4-1.7-8-1.2-12.6c0-0.5,0.1-0.7,0.1-1.1 c0-0.2,0-0.5,0-0.7c0.2-0.5,0.4-1,0.6-1.6c0.2-1.4,0.6-2.9,1-4.6c-0.5,1.2-0.9,2.4-1.2,3.5c-0.1,0.8-0.2,1.3-0.3,1.9 c0-0.5,0.1-1,0.1-1.6c0.1-0.7,0.1-1.1,0.1-1.8c-0.7,2.4-1,3.6-1.6,6c-3.5,11-1.7,21.6,4.2,31.3c7.3,12.9,9.5,25.4,10.5,40.1 c0,0-0.1,0-0.1-0.1c-18.9-11.4-38.1-22.2-57.8-32.1c19,26.8,37.3,53.9,55.5,81.2c-0.5-0.2-0.8-0.5-1.3-0.6 c-17.9-7.2-33.9-9.3-52.9-6.4c-10,2.3-23.3,4.3-29.2-6.4c10.3,7.5,16.3,4.4,25.1-0.1c14-7.4,28.8-9.3,44.4-5.3c0.1,0,0.2,0,0.3,0.1 c0-0.1,0-0.1,0-0.1c0.1-0.3,0.1-0.4,0.2-0.7c-0.1,0-0.2,0-0.3-0.1c-15.7-4.2-30.6-2.2-44.8,5.3c-8.6,5.3-18,6.3-25.9-0.8 c-0.1-0.2-0.1-0.3-0.2-0.5l-0.1,0.1l0,0l0,0l0,0C66.9,357.9,66.8,358,66.6,358.2z M172.7,327.2c0-0.1-0.1-0.2-0.1-0.4 C172.7,326.9,172.7,327.1,172.7,327.2z M171.8,324.4c-0.1-0.4-0.3-0.8-0.4-1.2C171.5,323.6,171.7,324,171.8,324.4z M170.5,320.6 c-0.1-0.3-0.2-0.6-0.3-0.9C170.3,320,170.4,320.3,170.5,320.6z M142.5,270.3c-0.1-0.3-0.3-0.6-0.4-0.9 C142.3,269.7,142.4,270,142.5,270.3z M140.8,265.9c0-0.1-0.1-0.1-0.1-0.2c-0.7-2.4-1.1-4.7-1.3-7.3c0-0.1,0-0.2,0-0.3 C139.5,260.8,140.1,263.4,140.8,265.9z M141.6,268.2c-0.2-0.4-0.3-0.9-0.5-1.4C141.3,267.3,141.4,267.7,141.6,268.2z M139.4,270.8 c1,4.2,3,7.8,5.2,11.9c2.4,4.3,4.2,8.5,5.7,12.8c-1.4-4.2-3.2-8.3-5.6-12.5C142.4,278.7,140.4,275.1,139.4,270.8z M155.3,324.6 c8.1,5,12.2,7.6,20.4,12.8c0,0.1,0.1,0.2,0.1,0.3c-8.3-5.3-12.4-7.9-20.4-12.9C155.3,324.7,155.3,324.6,155.3,324.6z"/>
    <path d="M338.6,319.8c0.7,0.3,1.3,0.6,2.1,0.9c1.4,0.3,2.9,0.8,4.5,1.4c-1.1-0.6-2.2-1.2-3.2-1.6 C340.6,320.2,339.9,320.1,338.6,319.8z"/>
    <path d="M243,362.9c0.3,0,0.5,0.1,0.8,0.1c0.5-0.2,1.2-0.3,1.7-0.5c21.2-7.5,39.9-17.1,58.4-29.8c11.9-7.8,23.8-15.9,39-10.5 c-12.4-1.4-22.1,3.5-29.4,13.2c-11.4,15-26.5,23.4-43.4,31.2c-0.2,0.1-0.2,0.1-0.4,0.1c0,0.1,0,0.1,0,0.1c0.1,0.3,0.2,0.4,0.3,0.7 c0.2-0.1,0.2-0.1,0.4-0.1c17-7.8,32.3-16.3,43.9-31.3c7.8-10.5,18.6-14.6,31.7-12.6c0.8,0,1.2,0.1,1.9,0.1c-0.7-0.4-1-0.6-1.6-0.9 c-0.1-0.1-0.2-0.1-0.3-0.2c-0.1,0.2-0.2,0.4-0.3,0.7h-0.1c0.1-0.3,0.2-0.4,0.3-0.7h0.1v-0.1c-0.3-0.1-0.5-0.2-0.8-0.3 c0.1,0,0.1,0.1,0.2,0.1c-1.6-0.6-3.2-1.1-4.7-1.5c-14.5-3.9-25.8,3.9-37.3,11.4c-18.8,13.1-37.8,22.8-59.6,30.2 c-0.1,0-0.4,0.2-0.5,0.2C243.1,362.6,243,362.7,243,362.9C242.9,362.8,242.9,362.9,243,362.9z"/>
    <path d="M305.8,268.6c-25.9,24.5-50.5,49.9-74,76.7c0.1,0.1,0.1,0.1,0.3,0.3c23.1-26.3,47.2-51.3,72.6-75.4 c-21.7,29.9-42.3,60.4-62.1,91.6c0.1,0.3,0.3,0.5,0.4,0.8c0.1-0.1,0.2-0.2,0.3-0.3s0.1-0.1,0.1-0.1c0.1-0.1,0.1-0.2,0.1-0.3 c0-0.1,0.1-0.1,0.1-0.2c21.6-7.4,40.4-17,59.1-30c0.4-0.3,0.6-0.4,1-0.7c6.5-4.5,12.8-8.7,19.6-10.7c4.5-1.3,8.9-1.6,13.7-0.8 c0.5,0.1,0.7,0.1,1.2,0.2c1.3,0.2,1.9,0.3,3.2,0.5c0.8,0.1,1.2,0.2,1.9,0.3c-2.4-0.9-3.6-1.4-6.1-2.3c-11.8-5.2-23.5-2.7-34.1,3.7 c-13.4,7.4-26.6,10.7-41.8,12.2l0.1-0.1c15.4-23.3,31.4-46.2,48-68.8c-32.7,20.9-63.5,43.6-93.1,68.6c-0.2,0.2-0.4,0.4-0.6,0.6 c-0.1,0.2,0,0.3,0.2,0.3c29.1-24.7,59.5-47.1,91.7-67.8l-0.1,0.1c-32.1,20.6-62.5,43.1-91.7,67.8c6,2.3,11.3,5.9,15.9,10.6 C255.2,318.6,279.8,293,305.8,268.6z M304.2,323.1c7.4-4.9,18.8-8.2,27.5-5.4h-0.1c-8.7-2.7-20,0.6-27.2,5.5 c-14,7.8-28,11.1-43.9,12.4c-5.3,8.1-10.4,16.1-15.5,24.3c-0.1,0-0.1,0-0.2,0.1c5.1-8.2,10.4-16.4,15.6-24.4 C276.3,334.2,290.3,331,304.2,323.1z"/>
    <path d="M346.2,450c0,0,0-0.1-0.1-0.1L346.2,450L346.2,450z"/>
    <path d="M243.8,363.2c-0.3,0-0.5-0.1-0.8-0.1c0,0.1,0.1,0.3,0.1,0.4c39.1,6.3,77.8,14.7,116.4,23.8c-0.2,0-0.4,0-0.6,0 c-38.4-9-76.9-17.4-115.8-23.7c2.3,6.3,3.7,13.2,3.7,20.6v0.3c35.9-0.9,71.8,0.5,107.6,2.8c-37.4,3.9-74.5,9-111.2,17.3 c-0.1,0.2-0.2,0.5-0.3,0.8h-0.1c0.1-0.3,0.3-0.5,0.4-0.9c2.3-6.3,3.6-13.1,3.6-20.1V384c0-7.4-1.4-14.4-3.7-20.6 c0-0.1-0.1-0.3-0.1-0.4s0-0.1,0-0.2c-0.1-0.3-0.3-0.5-0.4-0.8c-2.5-6.2-6.1-11.7-10.5-16.2c-0.1-0.1-0.1-0.1-0.3-0.3 c-4.5-4.7-10-8.4-15.9-10.7c-0.1,0-0.2-0.1-0.4-0.1c0,0-0.1,0-0.1-0.1c-0.2-0.1-0.5-0.2-0.9-0.3c-5.5-2-11.4-2.7-17.6-2h-0.4 c-3.2,0.4-6.4,1.2-9.3,2.3c3-1.2,6.2-2,9.5-2.4l0,0h0.2c0.1-35.2,0.2-70.5,0.3-105.7c5.7,35.9,11.5,71.8,17.3,107.7 c0.2,0.1,0.5,0.2,0.9,0.3v-0.1c0,0,0.1,0,0.1,0.1c0.2-0.2,0.4-0.4,0.6-0.6c0.2-0.6,0.6-1.2,0.9-1.7c9.8-21.1,16-41.6,19-64.6 c1.5-12.6,3.7-28.7,16.3-35.6c0.6-0.4,1.4-0.9,2.2-1.3c-0.2-0.3-0.2-0.4-0.4-0.7h0.1c0.2,0.3,0.2,0.4,0.4,0.7 c-0.8,0.4-1.4,0.9-2.2,1.3c-8.3,8.5-11,18.9-8.7,30.3c3.1,18.7-1.2,35.7-7.1,53.5c-0.1,0.2-0.1,0.3-0.1,0.4c0.1,0,0.1,0,0.1,0 c0.3,0.1,0.4,0.1,0.6,0.2c0.1-0.2,0.1-0.3,0.1-0.4c6.1-17.9,10.4-35,7.3-53.9c-2-12.1,0.9-22.8,10.2-31.5c0.5-0.5,0.7-0.8,1.2-1.3 c-0.6,0.2-0.9,0.3-1.6,0.6c-1.3,0.4-2.6,0.9-3.7,1.5c0.4-0.4,0.7-0.6,1.2-1c-2,1.1-3,1.7-5,2.8c-10.9,5.5-15.6,16.1-17.7,27.5 c-3.5,15.3-9.9,27.8-18.9,40.7c0,0.1,0,0.2,0,0.3c0-0.1,0-0.3-0.1-0.5c-4.4-27.2-8.7-54.4-13.1-81.6 c-6.2,39.5-12.4,79.1-18.6,118.6c0,0.3-0.1,0.5-0.1,0.7c-0.1,0-0.1,0.1-0.2,0.1c0,0-0.1,0-0.1,0.2c-0.2,0.2-0.5,0.4-0.7,0.5 c-5.4,3.6-10.2,8.3-14.3,13.9c-0.1,0.2-0.1,0.2-0.2,0.3c-4.2,5.7-7.7,12.5-10.1,19.6c0,0.1-0.1,0.3-0.1,0.4c0,0,0,0.1-0.1,0.2 c-0.1,0.3-0.2,0.6-0.4,1c-2.1,6.6-3.3,13.6-3.3,20.6v0.4c0,7.4,1.2,14.1,3.3,20c0,0.1,0.1,0.3,0.1,0.4c0,0,0,0.1,0.1,0.1 c0.1,0.3,0.2,0.5,0.3,0.8c2.3,5.8,5.5,10.8,9.6,14.8c0.1,0.1,0.1,0.1,0.2,0.2c4.2,4.1,9.3,7.4,15,9.2c0.1,0,0.2,0.1,0.4,0.1 c0,0,0.1,0,0.1,0.1c0.2,0.1,0.5,0.2,0.8,0.3c5.3,1.6,11.2,2.2,17.3,1.5h0.4c6.5-0.8,12.7-2.9,18.4-5.9h0.1c0.1-0.1,0.4-0.2,0.5-0.3 c0.2-0.2,0.5-0.3,0.7-0.5c5.7-3.2,10.8-7.4,15.2-12.5c0.1-0.1,0.1-0.1,0.3-0.3c4.5-5.2,8.4-11.4,10.9-18.1c0-0.1,0.1-0.3,0.1-0.4 c0,0,0,0,0-0.1c0.2,0.3,0.3,0.4,0.5,0.7c0.5,0.3,1,0.6,1.5,0.9c20.1,10.9,39.8,17.3,62.2,21.1c13.8,2.5,30.3,6,37.2,19.6v0.1 c-10.2-8.2-18.2-13.1-31.7-10.9c-18.8,2.5-35.5-1.9-53.1-8.5c-0.2-0.1-0.2-0.1-0.4-0.1c0,0.1,0,0.1,0,0.1c-0.1,0.3-0.2,0.4-0.3,0.7 c0.2,0.1,0.2,0.1,0.4,0.1c17.8,6.8,34.5,11.1,53.5,8.6c13.1-1.7,24.3,2.4,33.1,12.6l1.3,1.3c-0.2-0.7-0.4-1-0.6-1.7V450 c-0.3,0.1-0.4,0.2-0.7,0.4c0-0.1-0.1-0.2-0.1-0.2c0.2-0.1,0.3-0.2,0.6-0.4c-0.9-1.7-1.8-3.3-2.7-4.7c-7.4-12.3-23.4-15.3-36.3-17.5 c-22.9-3.9-42.9-10.6-63.4-21.9c0,0-0.1-0.1-0.2-0.1h0.1c0.2,0,0.2,0,0.4,0c0.1,0,0.2-0.1,0.3-0.1c20.3,11.2,40,17.8,62.8,21.7 c0.5,0.1,0.8,0.1,1.3,0.2c8.1,1.4,15.9,2.9,22.5,6.2c4.4,2.2,7.9,5,10.9,8.6c0.3,0.3,0.4,0.5,0.7,0.9c0.1,0.1,0.2,0.2,0.3,0.3 c0.3,0.6,0.6,1.2,0.8,1.9c0.9,1.4,1.8,2.9,2.6,4.6c-0.4-1.4-1-2.8-1.5-4c-0.8-0.9-1.2-1.4-1.8-2.3c0.6,0.7,1,1.2,1.7,2 c0.5,0.6,0.7,0.9,1.2,1.5c-1.1-2.2-1.7-3.3-2.8-5.5c-5.1-12-16.5-17.5-28.3-20.7c-15.3-4.1-27.5-11.5-39.5-21.8 c28.8-4.9,57.8-8.6,86.9-11.4C322.8,378.4,283.5,369.7,243.8,363.2z M251.5,231.4c0.6-0.4,1.2-0.7,1.8-1 C252.7,230.7,252.1,231.1,251.5,231.4z M247.5,234.2c0.3-0.3,0.5-0.4,0.8-0.7c0.2-0.1,0.3-0.3,0.4-0.4c0.3-0.1,0.6-0.3,0.8-0.4 c-10.6,8.2-12.8,21.4-14.3,34c0-0.1,0-0.2,0-0.3c1-7.9,2.1-15.4,4.8-21.7C241.9,240.5,244.3,237.1,247.5,234.2z M238.8,244.1 c-2.8,6.6-3.8,14.1-4.8,22.1c-0.1,0.5-0.1,0.7-0.1,1.2c-3,22.8-9.1,43.1-18.8,64c0.1,0.8,0.2,1.2,0.4,2c-0.1,0.1-0.1,0.3-0.2,0.6 v-0.2c0-0.2,0-0.2,0-0.4c-0.1-0.8-0.2-1.2-0.4-2c0-0.2-0.1-0.3-0.1-0.5c9.6-20.7,15.8-40.9,18.6-63.5c0.2-0.5,0.3-0.7,0.4-1.1 c1.1-8,2.1-15.5,4.8-22.1c1.1-2.6,2.5-5,4.1-7.1c0.1-0.1,0.2-0.1,0.3-0.2C241.3,239,240,241.4,238.8,244.1z M196.7,223.1 c-6,38.5-12.1,77-18.1,115.6c0,0-0.1,0-0.1,0.1c6.1-39,12.1-77.8,18.2-116.8C196.7,222.4,196.7,222.7,196.7,223.1z M196.4,443.1 c-28,4.2-47.2-21.7-47-47c0.2-26.1,17.8-60,47.2-62.9c28.2-3.1,49.5,24.9,49.5,51.1C246.1,411.8,223.9,439,196.4,443.1z M331.5,432.6c-6.9-3.4-14.7-4.9-23-6.3c-0.5-0.1-0.8-0.1-1.3-0.2c-22.2-3.9-41.7-10.2-61.5-21h0.1c0.1,0,0.3-0.1,0.4-0.1 c19.8,10.7,39.1,17.1,61.2,20.8c0.4,0.2,0.7,0.3,1.1,0.4C316.8,427.7,324.6,429.2,331.5,432.6c2.7,1.3,5.2,2.8,7.3,4.8 c0,0.1,0.1,0.1,0.2,0.2C336.8,435.7,334.3,434,331.5,432.6z M336.2,433.9c-2.2-2.5-4.8-4.5-7.6-6.1 C331.4,429.4,334,431.4,336.2,433.9z"/>
    <path d="M242.7,405.9c0,0.1,0,0.2-0.1,0.4c0,0,0,0,0,0.1c-2.7,6.7-6.5,12.8-10.9,18c25,25.8,49.9,51.7,75.3,77.1 c0.2,0.2,0.3,0.4,0.5,0.7c-25.5-25.7-50.7-51.7-75.9-77.7c-0.1,0.1-0.1,0.1-0.3,0.3c24.1,24.9,48.2,49.8,72.6,74.4 c-29.2-20.7-58.3-41.6-87.8-61.9c-0.1,0.1-0.3,0.2-0.5,0.3l0,0c-0.1,0.1-0.4,0.2-0.5,0.3c0,0.3,0.1,0.5,0.1,0.7 c0.1,0.5,0.2,1.2,0.4,1.8c6,21.5,14.5,39.8,27.4,58c8,10.4,15.5,22.8,11.6,36.7c-0.3,0.8-0.5,1.7-0.8,2.5c-0.1,0-0.1-0.1-0.2-0.1 c0.3-0.8,0.5-1.7,0.8-2.5c0.6-11.4-4.4-21.2-13.8-27.3c-14.6-10.5-22.3-24.8-29.3-41.1c0-0.2-0.1-0.2-0.1-0.4h-0.1 c-0.2,0.1-0.4,0.2-0.6,0.3c0,0.2,0.1,0.2,0.1,0.4c7,16.4,14.7,30.9,29.4,41.4c10,7,14.4,17,13.4,29.4v1.8c0.3-0.6,0.5-0.9,0.8-1.5 c0-0.1,0.1-0.1,0.1-0.2c0.1,0,0.2,0.1,0.3,0.1c0.2-0.7,0.4-1.3,0.6-2c0.3-0.7,0.6-1.3,0.8-1.9c0.2-1.2,0.3-1.8,0.5-3.1 c-0.2,0.4-0.3,0.7-0.4,1c2.2-12.9-5.1-24.3-12.6-34.1c-13.3-18.5-21.7-37.3-27.6-59.4v-0.1l0,0c0.2,0.1,0.3,0.2,0.4,0.3 c5.9,21.9,14.3,40.4,27.5,58.9c0.3,0.4,0.4,0.6,0.6,0.9c4.4,6.2,8.7,12.1,10.9,18.5c1.4,4.2,2,8.4,1.4,12.9 c-0.1,0.4-0.1,0.7-0.1,1.1c-0.1,1.2-0.2,1.8-0.3,3c-0.1,0.7-0.1,1.1-0.1,1.8c0.7-2.3,1.1-3.4,1.8-5.7c4.3-11.4,1.3-22.4-5-32.4 c-7.6-13.4-10.8-26.6-12-41.9c22.8,16,45.4,32.3,68.2,48.3c-22.4-32.2-44.4-64.7-66-97.4C243,406.3,242.9,406.2,242.7,405.9z M228.5,447c1.3,0.9,2.5,1.7,3.8,2.7c0.9,0.6,1.8,1.2,2.7,1.9c-1-0.7-1.9-1.3-2.7-1.9C231,448.7,229.7,447.9,228.5,447 c-0.8-0.6-1.7-1.2-2.5-1.7c-2.4-1.7-5-3.4-8-5.5l0,0c3.1,2.1,5.6,3.9,8,5.5C226.8,445.8,227.7,446.4,228.5,447z M258.2,524.7 c0-0.1,0-0.2,0-0.3c2.2-10.7-1.6-17.3-6.4-25.7c-7.9-14-11-27.8-12.1-43.9l0.1,0.1c1.1,16,4.2,29.7,12.1,43.7 C256.7,507.3,260.4,513.8,258.2,524.7z"/>
    <path d="M214.7,356c-3.6,0.9-14.7,11.1-12.9,12.4s3.4-6.5,14.8-7.5c11.3-1,13.1,6,16.4,1.9C228.8,358.3,218.3,355.1,214.7,356z"/>
    <path d="M216.9,365.6c-7.3,0.6-11.6,2.1-12.1,8.2v0.5c2.6-2.9,3.8-4.2,5.4-4.9c1.4-0.6,3.3-0.8,6.7-1.1c1.1-0.1,2.1,0,3,0 c1,0.2,1.9,0.4,2.6,0.6c0.1,0.1,0.1,0.1,0.2,0.2c0.9,1.4,1.6,3.6,0.6,5.7c-0.3,0.6-0.8,1.2-1.4,1.9c-0.2,0.1-0.3,0.3-0.5,0.4 c0.9-0.8,1.4-1.5,1.7-2.2c-1.2,0.9-2.6,1.6-4.2,2c2-1.9,3-6.2,1-8.5c-0.9-0.1-1.9-0.1-3,0c-3.6,0.3-5.3,0.5-6.7,1.2 c-1,3.2,2,6.7,4.8,8c-4.8,0.3-7-5.5-8.8-2.3c-1.3,2.2,5.3,4.5,10.3,4.1c4.9-0.4,12.8-9.5,9.5-6.8c-0.5,0.5-1.1,0.9-1.7,1.3 c0.8-1.6,0.5-3.1-0.2-4.3c2.5,1.2,4.2,2.8,5.9,2.6C227.3,370.9,224.1,365,216.9,365.6z M216,377.5c0.9-0.2,1.8-0.4,2.6-0.6 C217.8,377.2,217,377.4,216,377.5z M222.7,368.2c-0.4-0.3-0.8-0.5-1.1-0.7c-0.1-0.1-0.2-0.2-0.2-0.3 C221.8,367.5,222.2,367.8,222.7,368.2z"/>
    <path d="M214.6,402.3c0.5,0.5-1.4-3.9-4.9-4.1s-2.2-6.8-6.2-7.5c0,2.1,1.3,1.4,1.8,4.3c0,2.5-4,2.9-4.8,0.5c0.8,3.9-1.8,4.2-4,4.5 v3c2.9-0.1,3.9-2.9,7.4-3.2C207.4,399.4,212.4,400.5,214.6,402.3z"/>
    <path d="M217.4,406.6c1.1,1.7,1.8,2.7,2.5,3.5l0,0l-0.1,0.1l0,0c-4.6,2.4-6.2,2.9-8.4,2.9c1.9-0.8,3.9-1.8,6.5-2.5 c-4.9,0.4-11.5-2.9-14.6-2.6c-3.5,0.4-4.5,1.5-7,1.8c0,0,0-0.1-0.1-0.1c-2.6,0.3-3.5-0.5-7.1,0c-3,0.4-9.4,5.3-14.1,6.1 c2.8,0.1,4.9,0.4,6.8,0.8c2.4-0.6,5.8-1.9,14.4-2.9c0.9-0.1,1.3-0.2,2.2-0.3c0,0.1,0.1,0.1,0.1,0.2c-0.9,0.1-1.3,0.2-2.2,0.3 c8.1-0.9,11.7-0.7,14.2-0.6c-3.7,1.7-6.9,3.4-12.5,4.3c0.1,0,0.3,0,0.5-0.1l0,0c-0.2,0-0.3,0-0.5,0.1l0,0c-0.2,0-0.4,0.1-0.6,0.1 c-0.1,0-0.2,0-0.3,0.1c-0.3,0-0.5,0.1-0.8,0.1c-6.9,0.8-10.3-0.2-14.3-1.2c-2.5,0.6-3.9,0.4-8.5-0.8c13.5,4.6,12.1,7.2,23,5.9l0,0 c10.5-1.3,9.2-3.7,23.3-11.5c0.1,0,0.1-0.1,0.2-0.1c0.2-0.1,0.4-0.2,0.5-0.2c-0.2,0.2-0.4,0.2-0.6,0.3c1,1.4,1.2,1.8,2.5,4.1 C221.9,410.8,220.9,409.3,217.4,406.6z"/>
    <path d="M217.9,410.5c0.8,0,1.3-0.2,1.9-0.4C219.2,410.1,218.6,410.3,217.9,410.5z"/>
    <path d="M191.2,369.5c1.8-1.7-9.1-9.3-12.5-9.3c-3.6,0.2-13.4,5.9-17.3,11.2c3,3.4,4.6-4,15.5-5.8 C187.8,363.8,189.4,371.3,191.2,369.5z"/>
    <path d="M176.6,384.4c4.7-0.8,11.3-4.7,10-6.6c-1.8-2.8-3.9,3.6-8.7,4.3c-1.2,0.2-2.4,0.2-3.4,0.3c-1.4-0.2-2.7-0.5-4-0.9 c0-0.1-0.1-0.2-0.1-0.2c-0.9-1.9-0.2-4.2,0.6-5.9c0.4-0.7,0.7-1.3,1-1.7c0.1,0,0.1-0.1,0.2-0.1c-0.2,0.3-0.7,1.1-1.2,1.9 c0.8-0.6,1.5-1,2.4-1.2c-1.8,2.8-0.8,6.5,1.1,7.9c1.1,0.1,2.2,0,3.7-0.2c2.6-1.7,5.6-5.8,5-8.9c1.4,0.4,2.6,1.6,4.9,3.5v-0.5 c-0.5-6-4.8-6.4-11.7-5.2c-6.9,1-9.9,7.6-12.5,9.6c1.8-0.3,3.4-2.4,5.8-4.1c-0.7,1.4-1,3-0.2,4.4c0.3,0.6,0.9,1.3,1.7,1.8 c0.2,0.2,0.5,0.4,0.8,0.7c-1.3-0.6-2.1-1.4-2.6-2.3c-0.6-0.3-1.2-0.6-1.8-1.1C164.6,378,171.9,385.2,176.6,384.4z M171.6,374 c-0.5,0.4-1,1-1.5,1.7C170.5,375.1,171,374.5,171.6,374z"/>
    <path d="M175.2,415.7c-0.5-0.1-1.1-0.1-1.7,0c0,0,0,0,0,0.1c-0.1,0-0.2-0.1-0.4-0.1c0.1,0,0.2,0,0.4,0.1c0.5-0.9,1.2-2.1,2.4-4.1 c-3.4,3.6-4.4,5.3-4.7,8.9c1.2-2.5,1.3-3,2.4-4.7l0,0C174.1,415.8,174.6,415.8,175.2,415.7z"/>
    <path d="M187.6,397.3c0.5-3.1,1.8-2.7,1.8-4.8c-3.9,1.5-2.7,7.9-6.1,9c-3.4,1.1-5.2,5.9-4.8,5.3c2.1-2.4,7-4.6,10.5-5.1 c3.6-0.5,4.3,1.9,7.4,1.5v-3c-2.2,0.3-4.8,0.6-4-3.5C191.6,399.3,187.6,399.8,187.6,397.3z"/>
    <path d="M196.4,426.3c-2.2,0.3-8,2.5,0,1.5S198.5,426.1,196.4,426.3z"/>
  </g>
</svg>