<svg viewBox="0 0 1200 1200" xmlns="http://www.w3.org/2000/svg">
  <path d="M1109.62,193.4c-54.49,18.1-110.08,27.7-169.07,29.5c-140.08,0-244.16-17-346.24-33.9c-97.48-18-196.37-31-295.55-33.6 c-5.8-0.2-11.6-0.2-17.3-0.2c-7.2-0.1-14.4-0.2-21.7-0.2c-78.69,0-158.77,20-241.46,58.99c-0.1,0.1-0.2,0.1-0.4,0.2 c-2,0.9-4,1.9-6,2.9c-1.2,0.6-2.3,1.1-3.5,1.7c-2.8,1.4-5.6,2.8-8.4,4.2v819.91c30.59-15.4,60.89-27.8,90.88-37.3 c54.19-16.8,109.78-24.9,167.77-26.3c0.4,0,0.7,0,1.1,0c49.29,0,93.88,2.2,135.68,5.8c18.3,1.6,36.59,3.5,54.79,5.7 c54.79,6.5,105.68,15.1,157.37,23.4c30.29,5.2,60.69,9.8,91.18,13.9c59.49,8.2,123.38,14.6,197.87,16.4c1.5,0,3,0.1,4.6,0.1 c3.7,0.1,7.3,0.1,11,0.2c9.1,0.1,18.4,0.2,27.8,0.2c84.59,0,170.77-22,259.96-66.89V155C1169.41,170.4,1139.31,183.2,1109.62,193.4z M1169.91,592.05c-80.79,66.99-165.97,122.99-268.36,153.78c-98.28,29.6-200.47,44.59-301.55,61.29 c-100.98,16.7-203.27,30.4-301.55,59.89C218.36,890.91,147.28,929.2,81.39,977c-13.2,4.2-26.3,8.9-39.49,14 c16.7-20.1,33.69-40,51.19-59.59c68.39-75.09,143.58-141.68,231.56-192.98c88.69-51.69,183.67-91.19,275.25-137.18 c-86.39-74.69-180.97-139.08-275.25-203.18c-74.39-50.49-147.58-107.29-229.86-144.68c-16.4-7.2-32.89-13.4-49.59-18.7 c13-5.8,26-11.1,38.89-16c73.19,3.3,142.98,23.9,214.46,49.19c102.88,36.4,204.57,77.19,301.45,127.79 c96.68,50.39,198.57,89.99,301.35,125.99c88.99,31.2,175.17,55.59,268.56,48.29L1169.91,592.05L1169.91,592.05z"/>
</svg>