<svg viewBox="0 0 1200 1200" xmlns="http://www.w3.org/2000/svg">
  <g>
    <path d="M650.3,436.93c-0.7-2.9-1.2-5.8-1.9-8.8c-0.2-1.3-0.5-2.7-0.9-4.1c-2.9,0.4-8.9-2.9-2.9,4.8 C645.5,430.13,647.7,433.13,650.3,436.93z"/>
    <path d="M612.5,496.94c2.4,1.9,5,2.5,6.1,1.5c0.2-0.1,0.2-0.1,0.3-0.3c0,0,0,0,0-0.2c0,0,0,0,0-0.2c0-0.1,0-0.1,0-0.2 c0.1-0.1,0.1-0.1,0.2-0.1c0-0.1,0-0.1,0-0.2c0.2-1.5-1.3-3.7-3.6-5.5c-1.6-1.3-3.2-1.9-4.5-2.1c-0.6-0.1-1.1,0.1-1.4,0.2 c-0.2,0-0.2,0.1-0.3,0.3c0,0,0,0.2-0.2,0.1c-0.2,0.1-0.2,0.3-0.2,0.5c0,0.1,0,0.1,0,0.2C608.8,492.84,610.2,495.24,612.5,496.94z"/>
    <path d="M566.5,562.55c1.7,1.1,3.9,3,5.4,2.9c0.2,0,0.2,0,0.3,0.1c0.2,0,0.2-0.1,0.3-0.1s0.1,0,0.2,0c0,0,0.2-0.1,0.2-0.3 c0.7-1,0.8-3.3,0-7.9c0-9.1,6.3-9.8,12.6-10.9c6.9-1.2,3.6-7.2-3.4-8.9c-8.5-2.3-18.5-4.1-25.3-7c0,0,0,0-0.2,0s-0.3-0.1-0.5-0.1 c-4.1-0.3-6.8,2.1-6.6,5.4C551.2,546.84,557.9,555.75,566.5,562.55z"/>
    <path d="M372.3,471.04c-0.2,0-0.5,0-0.7-0.1c-1.3,0.1-2.3,0.5-3.1,1.1c-0.2,0.2-0.4,0.3-0.4,0.3c-0.9,1.3-2.9,3.1-2.2,4.9 c1.4,1.8,2.5,2.2,4.7,2.5c1.8,0.1,4.5,0.7,5.2-0.1c0,0,0,0,0-0.2c1.1-0.9,2-3,1.1-5.2C375.9,472.14,374.1,471.34,372.3,471.04z"/>
    <path d="M468.7,388.73c1.8-0.1,2.4-2.2,1.3-4.5c-1.1-2.1-3.1-3.9-4.9-3.9c-0.2,0-0.2,0-0.4,0c-1.8,0.1-2.4,2.2-1.3,4.6 C464.6,387.03,467,388.83,468.7,388.73z"/>
    <path d="M790.2,825.98c0-0.2,0-0.3,0-0.3c0-0.2,0-0.3,0-0.3s0-0.2,0.2-0.3c0,0,0-0.2,0.2-0.1c0,0,0-0.2,0.2-0.1 c2.2-2.4,11.7-1.9,12.9,1.6c0,0.2,0.2,0.5,0.2,0.7c5.5,0.6,8.7,0.9,14.2,1.5c0.1,0,0.1,0,0.2,0s0.1,0,0.2,0c0,0,0.2,0,0.4-0.1 c1.7-0.7,3.1-5.2,0.4-7.5c-16.7-1.8-33.2-3.2-49.8-5.3c-2.6,0.7-3,5.1-0.8,7.7C776.1,824.38,782.8,826.18,790.2,825.98z"/>
    <path d="M1145,180.1c-73.6,29.5-148.9,43.1-230.3,42.6c-12.3-0.2-24.3-0.5-36.1-0.9c-47.4-1.9-94.9-5.9-142.1-11.4 c-48-5.9-92.8-13.2-137.1-20.5c-45.2-8-90.7-15.3-136.4-21.1c-39.4-5.3-80.6-9.4-125.1-11.8c-13.1-0.7-26.1-1.3-39.2-1.6 c-6.6-0.2-13.1-0.3-19.7-0.3c-6.3,0-12.8-0.1-19.3-0.1c-75.3,0-151.9,18.3-230.7,54.01c-1.3,0.6-2.5,1.1-3.8,1.7 c-0.3,0.1-0.6,0.3-0.8,0.4c-8.1,3.8-16.3,7.7-24.4,11.8V1043c22.2-11.2,44.2-20.8,66.1-28.8c65.4-23.3,133.9-33.1,203.5-34.7 c129,0.8,226,16.7,324.4,32.6c2,0.3,4,0.7,6.1,1c25.3,4.3,50.7,8.2,76.1,11.8c66.2,9.7,136.9,17.6,221.3,19.6 c1.3,0,2.5,0.1,3.8,0.1c4.2,0.1,8.3,0.2,12.5,0.2c8.6,0.1,17.4,0.2,26.3,0.2c81.5,0,164.4-20.4,250.1-62.01 c0.4-0.2,0.8-0.4,1.1-0.5c2.9-1.4,5.8-2.9,8.7-4.3l0,0V155C1181.5,164.3,1163.2,172.7,1145,180.1z M417.1,766.17 c-23.2-2.5-47.3-8.1-61.6-28.3c29.6,2.9,59.1,7,88.5,10.4c105,12.2,208.6,35.3,313.9,46.31c-7-5.2-7.4-15.4,3.5-16.7 c0.1,0,0.1,0,0.2,0c0.6,0.7,0.9,3.4,1.8,4.6c0,0,0.2,0,0.2,0.2s0.2,0.2,0.4,0.4c0.1,0,0.1,0,0.2,0c0,0,0,0,0.2,0 c1.9,0,3.2,0.5,3.9,1.2c3.3,2.8,0.5,9.6-0.9,11.1c14.1,1.8,28.2,3.5,42.2,6.2c0,0,12.7-0.2,17.1-0.5c13.7-0.4,19,14.3,19.6,25.7 c0,15.4-6.4,15.8-14.6,16.9c-4.7,0.2-7.3-3.2-9.7-6.6c-17.1,0.6-35-1.8-51.9-4.6c-1.5,2-3.5,4.6-8,3.3c-0.1,0-0.1,0-0.2,0 c-0.2,0-0.4-0.2-0.4-0.2s-0.2-0.2-0.4-0.2c-3.7-2.7-9.1-15.4-4.2-22.5C643.1,800.87,531,777.67,417.1,766.17z M292.1,372.72 c-1.2-3.7-7.8-10.4-6.9-12.3c-1.4-3.6,1.9-5.4,4.8-5.2c0.5,0,0.8,0,1.3,0.2c7.8,2.5,8.4,14.1,7.9,17.3c-1,6.1-3.9,12.6-5.9,11.7 C291.1,383.53,293.1,375.32,292.1,372.72z M291.6,418.63c0.8-6.6,2.7-14,2.7-14c2.3-14.5,10.4-23,13.6-22.5c4.1-0.5,6,0.6,7.7,4.9 c3.1,9.8,2.4,21.3,0.3,31.2c-0.5,8.1,9.8,17.8,9.3,1.4c-1.6-11.9-3.5-23.1-6.4-34.8c-0.9-6.8-0.9-14.2-0.5-21.5 c0.9-2.1,2.8-3.5,4.8-3.6c1.6-0.1,3.1,0.6,4.5,2.4c6.1,7.4,6.2,18.5,7.2,27.6c-0.1,9.3,0.9,19.5,3.7,28.4c2.1,4.4,5.1,5.4,6.5,1.9 c1.8,0.1-1.9-4.2-4.4-11c-3.8-9.4-5.4-21.3-0.9-30.7c1.8-2.5,5.3-2.3,7.8,0.5c2.7,4.5,5.9,6.7,6.9,13.2c1.6,4.7,3.7,6.7,0.9,23.1 c0,1.6,10.6,9.7,10.6,9.7c3.2,3.4,7,4.5,11,2.8c0.9-5-1.3-11-2.7-14.7c-5.7-8.9-12-18.5-11-29.7c2.5-7.7,9.3-8,14.2-3.8 c5.8,3.3,9.2,10.2,11.6,17.3c-0.9,3.1-4.5,3.1-6.9-0.6c-0.5,1.6,2.5,6,2,7.6c3.8,8.1,5.7,18.3,6.2,27.3 c-0.4,11.1-12.5,15.6-21.7,16.8c-8.8,1.1-11.3-3.5-16.8-7.5c-3.6-2.1-8.5-2.2-8.7,1.4c-3,12,1.7,26.9,1.4,39.2 c0.1,9.4-0.7,28-13.4,28.4c-0.9-17.4-1.7-34.7-2.6-52.11c-2.1-5.2-5.7-5.4-11.2-5.3c-5.2-2.2-11.8-5.4-11.6-15.1v-30 c-0.2-4-2.7-4-4.2-1c-6.5,10.1,3.1,41.1-16.2,39.5c-19.2-6.3-14-41.7-12.9-56.81c7.2,0.2,8,22.9,9.6,28.9 C285.4,431.33,290.4,426.03,291.6,418.63z M348,359.92c0.7,0.2,1.4,0.6,1.8,1.1s0.5,1.8,0.5,2.7c0,0.8,0.5,1,1.1,1.6 c0.7,0.5,0.5,0.4,1.4,0.4c0.9-0.1,1.2-0.4,1.4-1.6c0-1,0.4-1.6,0.5-2.4c0.5-0.8,0.5-1,1.6-1c0.9,0.1,1.1,0.1,1.6,0.4 c0.5,0.7,1.3,1.7,1.3,2.7c-0.2,3,2.3,3.6,2.9,3c1.1-0.4,0.2-2.3,0.5-3.4c0.5-1.6,1.8-2.5,3.1-2.7c1.3-0.1,2.7,0.5,3.4,2.2 c0.2,0.8,0.4,4.1,0.4,5.1c0.5,10.9-13.3,11.4-20.6,7.6c-5.5-2.5-5.3-9.9-5-10.2C343.8,364.02,344.1,359.72,348,359.92z M277.2,543.64c0.3,4.8,2.1,10.9,6.4,2.2c2-2.6,3.6-2.1,5.6,1.1c1.5,4.5-1.2,16.8-7.2,19.4c-3.4,0.9-8-0.4-10.8-3.7 c-7-13.4-2.1-33.2,5.2-45.41c1.1-1.3,1.9-2.6,2.3-2.6c0.3,0,0.5,1.2-0.2,4.6C277.5,526.04,276.7,534.44,277.2,543.64z M274.7,492.34c2.5-16.7,25.5-31.6,41.2-32c11,0.8,8.3,4.5,11.2,8.8C309.5,476.54,292,484.14,274.7,492.34z M300.5,520.34 c0.8-9.4,4.6-14.7,7.4-12.5c1.2,1,2.4,3.4,2.9,7.7c0.3,6.9,1.2,18.4,4.1,23.8c9,15,32.6,15,47.3,10.8 c26.1-7.3,40.3-30.8,41.1-57.11c-0.2-1.7-0.9-2.6-1.5-2.8c-1.6-0.7-3.8,1.3-4.6,3.4c-3.9,27.2-25.6,53.41-55.5,49.31 c-29.4-4.1-34.2-34.1-24.3-57.81c9.3-2.3,7.6,22.9,9.3,28.6c7,12.3,22.3,10.1,33.5,5.7c10.2-5.3,26.6-13.6,25.1-27.7 c-1.8-1.3-6.3,3.1-11.6,4.6c-6.5,1-13.8,1.2-19.9-6.1c-2-5.9-1.4-13.1,0-19.8c1.2-8.3,11.2-16.4,19.9-15.8 c12.1,0.6,13.9,9.7,21.2,14.7c4.2,0.9,7.5-3.4,6.8-7.1c-5-28.3-9.6-56.61-14.5-84.91c-1.5-7.2,2.9-10.5,7.6-11.3 c1.5-0.2,2.6-0.6,3.6-0.7c0.4,0,0.7,0.1,1.3,0.3c0.2,0,0.4,0.2,0.5,0.2c0,0,0.2,0.2,0.4,0.2c0,0,0.2,0.2,0.4,0.2 c0.2,0.2,0.4,0.4,0.5,0.5c0,0,0,0,0.2,0c8.3,8.6,12.1,23.8,15.9,34.9c-3.5,3.4-6.8,0.6-10.6,0.4c2.9,19.7,5.7,39.4,8.6,59.11 c9-3.7,13.4-1.9,12.5,7.9c0.7,4.4,7.9,4.7,11.9,2.1c5.9-14.2,15.4-11.7,17.8-1.9c0.2,2.3,3.1,3.2,4.9,2.6c0.4-0.1,0.7-0.4,0.9-0.7 c0.2-0.1,0.2-0.3,0.2-0.5c0.4-2.4,0.9-4.8,1.3-7.3c0-0.5,0.4-0.8,0.7-1.2c1.6-1.3,5.5-1.8,10.4-2.6c-0.4,9-1.7,17.4-3.3,25.6 c-2.7,8.2-15.9,8.9-23.4,3.2c-2.2-2.4-5.5-1.6-6.8-0.3c-7.7,6.3-19.1,6.6-26.2-0.9c-0.2,0-0.2,0-0.4,0c0,0,0,0-0.2,0c0,0,0,0-0.2,0 c-0.1,0-0.1,0-0.2,0c-1.4,14.8,1.3,28-2.4,43.1c-14.1,39.2-110.1,64.91-113.4,6.9C299.7,529.84,299.4,527.74,300.5,520.34z M457.4,387.43c-3.8-4.8-2.7-11.5,2.2-15.2c2-0.7,4.2-1.1,7-0.8c2.6,0.2,5.5,1,8.6,2.6c3.6,4.3,6,12.6-1.1,15.5 c-1.5,1.1-1.6,2.3,0,3.6c1.5,1.3,2.9,2.4,4.4,3.7c-10.8,9.6-21.8,20.9-34.8,27.4c-2,0.6-19.6-1.3-21.1-2.3 c-0.6-0.4-0.6-0.4-0.7-0.5c0-0.2,0-0.2,0-0.2c12.3-10.4,27.9-16.3,40.6-26.3C465.1,393.23,461.2,389.33,457.4,387.43z M506.1,384.43c0.7,5.2,7-0.6,6.1,3.8c-0.9,2.7-1.6,3.6-4,4.9c-4.1,1.4-6.3,1.4-8.5-1.7c-2.7-2.9-1.9-2.8-1.8-6.9 c0.2-7.1,6.7-12.4,10.1-13.9c1.4-0.6,2.5-0.8,3.2-0.7c1.6,0.2,1.4,2,1.4,4.2C508.8,378.23,504.9,379.63,506.1,384.43z M498.8,427.93c2.3,4.1,5.6,7.2,8.8-1.6c3.5-13,9-26.5,20-35c2.3-1.5,7.6-2.8,10.9,3.6c3,10.6,1.6,22.9,1.2,33.8 c1.6,7.3,4.4,8.9,7.9,11.6c3.7,2.2,8.5,4.2,13,0.4c3.1-3,3.8-4.2,6.2-7.2c0.5-10.5,1.2-21.1-3.2-31c-4.3-11.6,1.7-15.9,3.1-19.1 c1.9-3,3.2-4.1,4.4-4c1.9,0.1,2.9,3.4,4.2,6.8c6,12.5,3.6,27.3,5.2,40.7c2.3,17.7,6.8,19.6,9.4,20.6c6.4,2,10.1-3.3,10.1-3.3 c1.6-10.7-2.9-20.3-7.6-29.5c-3.9-5.8-4.1-10.8-3.3-14.4c0.7-3.3,0.2-6.9,3.6-9.6c4.9-3.2,9.8-1.9,13.5,2.7 c4.1,5.5,10.3,15.9,8.3,19.1c-0.6,3.3-4.7,1.5-6.4,0.9c-3.7-0.2,0.3,8.9,0.3,9.4c2.2,6,2.2,13.7,5.3,19.8c2.9,5.1,8.9,4.2,12.1,4.2 c2.5-1.1,2.6-1.5,5.1-2.6c1.8-0.7,4.8-0.7,4.7,4.4c0,0-4.9,13-11.3,14.9c-1.8,0.2-2.5,1.6-5.6-1.3c-1.8-3.8,0.8-5.1,1.3-7 c0-1.2-4.4-3.4-6.8-0.3c-1.6,2-2.4,4-5.9,9.5c-2.5,4.2-13.7,3.8-19.2,0.7c-6.4-4.4-6.1-9-9.1-12.3c-3.2-2.5-6-2.8-8.2-1.1 c0,0-9.2,7.4-10.1,8.1c-0.9,0.7-11.7,7.3-25-4.3c-8.2-9.3-8.2-23-7.8-34.6c-1.2-2.5-3-2.3-5.5,2c-2,7.4-5,29.6-17.6,25.8 c-23.8-0.2-24.7-44.71-19-59.31C496,392.73,493,418.43,498.8,427.93z M547,382.93c1.6-3.5,3.5-5.2,5.4-5.1c1.7,0.1,3.3,2,4,5.6 c-0.3,4.4-0.3,8.8-4.3,18.7c-2.8,5.3-8.7,2.4-7.6-1.9C543.9,400.23,545.6,385.53,547,382.93z M647.9,401.43 c4.5-5.1,4.5-4.2,7.4,0.1c8,11.7,16.7,23.3,19.5,37.6c1,7.9-6.9-8.1-4.8,5.6c0.9,3.4,2.1,14.3,3.3,27.1 c6.3,9.8,11.9,18.3,13.5,21.3c9.7,17.1,20,33.7,28.8,51.31c3.3,8.2,4.3,21.8-1,29.1c-12.4-23.6-25.3-46.91-39.1-69.71 c0.3,4.8,0.5,9.4,0.7,13.4c0.6,19.1,2.6,38.3,0.8,57.41c-2.8,10.9-10.9,17.7-16,16.8c1.3-27.7,1-55.31-0.6-83.01 c-1-11.8-2.2-23.5-3.8-35.3c-11-17.3-22.3-34.5-33.5-51.71c-2.3-3.7-7.2-9.9-7.8-13.3c-1-5.5-1.3-8.8-0.7-14.6 c0.5-2.4,1.8-3.3,3.6-3c2.8,0.1,6.5,3.1,8.5,4.7c6.3,6.3,6.8,6.7,14.5,14.4c2,2.8,3.6,5,4.8,6.8 C645.2,411.73,645.2,406.73,647.9,401.43z M689.1,428.83c-1.4-4.6-10.5-14-9.4-16.1c-1.8-4.8,2.4-6.5,6.2-5.8 c0.5,0.1,1.1,0.1,1.6,0.4c6.6,3.4,11.3,16.3,9.7,22.2c-1.3,7.2-4.9,14.8-7.4,13.5C687.1,441.63,691.8,435.93,689.1,428.83z M683.2,454.23c0.7,0.3,1.4,0.5,1.8,1.1c0.4,0.5,0.5,1.9,0.5,2.7c0,0.8,0.5,1.1,1.1,1.6c0.7,0.6,0.5,0.4,1.6,0.5 c0.9,0,1.3-0.3,1.4-1.4c0-1,0.4-1.6,0.5-2.4c0.5-0.7,0.5-0.9,1.6-0.9c0.9,0.1,1.1,0.1,1.6,0.5c0.5,0.7,1.3,1.8,1.3,2.8 c-0.2,2.9,2.3,3.6,2.9,3.2c1.1-0.4,0.2-2.3,0.5-3.4c0.5-1.6,1.8-2.6,3.1-2.6s2.7,0.7,3.4,2.4c0.2,0.8,0.4,4.2,0.4,5.1 c0.5,10.9-13.4,10.6-20.7,6.3c-5.5-2.9-5.1-10.4-5-10.7C678.9,457.93,679.1,453.73,683.2,454.23z M725.1,454.63 c8.7,38.6,10.9,77.91,10.3,117.31c-0.2,7.9-6.1,17.4-9.6,21.7c-9.4,14.6-23.4,24.9-41.1,24.7c-8.9-1.2-15.7-10.9-13.8-12.8 c17.7-5.2,33.4-13.5,47.6-25.4c3.3-2.2,4-8.6,3.7-13c-4.4-44.5-7.7-89.11-14.2-133.31c-0.3-8.2,2-16.6,5.5-21.1 c1.5-2.4,2.4-3.5,3.1-3.4c0.9-0.1,1.6,1.7,2.7,3.8c5.4,8.9,12.9,20.8,12.4,31.6c-1.8,2.4-5.1,0.9-6.2,1.9 C724.9,447.53,724.6,451.33,725.1,454.63z M578.4,478.14c1-0.3,0.2-2.3,0.5-3.4c0.5-1.6,1.7-2.3,2.8-2.5c1.2,0,2.5,0.8,3.2,2.5 c0.2,0.9,0.3,4.2,0.3,5.2c4,11.1-12.4,10.2-19.3,5.8c-5.3-3-5-10.5-4.8-10.8c0-1.5,0.2-5.6,4.1-4.9c0.7,0.3,1.4,0.6,1.7,1.1 c0.3,0.6,0.3,1.9,0.3,2.7s0.5,1.1,1,1.7c0.7,0.6,0.5,0.4,1.4,0.6c0.8,0,1.2-0.3,1.4-1.4c0-1,0.3-1.6,0.5-2.4 c0.5-0.7,0.5-0.9,1.5-0.9c0.8,0.1,1,0.2,1.5,0.6c0.5,0.7,1.2,1.8,1.2,2.8C575.5,477.74,577.9,478.54,578.4,478.14z M498.7,497.84 c-4.9-12.2-12-14.1-14.5-20.2c-2.4-7.9-1.3-16.5,3.5-18.3c4.4-2.9,9.3-1.9,13.9,2.7c5.2,5,9.9,14.2,11.3,20.7 c-0.9,2.3-6.6-2.4-8.8-1.7c3.6,4,5.2,8.3,6.6,13.5c3.4,13.7,2.3,18.6-1.1,26.7c-9,16.5-23.6,24.3-39.7,32.1 c-0.4,0.8-0.2,5.7,4.4,9.1c1.8,1.9,8.8,3.4,16.6,2.2c15.4-6,31.3-16.9,39.1-32c0.8-13.4-0.8-23.2-4.1-36.2c-4-9.2-7.7-18.5-11-28 c-0.2-6.8,0.4-9,3.6-11.8c2-1,2.7-1.9,3.4-2.5c0,0,0.2,0,0.2-0.1c0,0,0.2-0.1,0.4-0.1c0.1,0,0.1,0,0.2,0c0,0,0,0,0.2,0 c0.9,0.3,2.3,1.7,5.7,5.3c8.4,16.5,15,34.1,15.8,52.81c-0.4,3.2,1.6,5.8,3.1,6.4c0.1,0,0.1,0,0.2,0c0,0,0,0,0.2,0c0,0,0,0,0.2,0 c0.1,0,0.1,0,0.2,0s0.1,0,0.2,0c0.1,0,0.1,0,0.2,0c5.7-15.8,33.5-18.3,47.1-17.3c3.3-0.1,1.6-6.8,2.1-9.8 c-1.2-10.6,5.7-21.7,17.3-20.6c12.5,4.1,20.4,13,20.7,26.3c-1,21-23.5,24.1-40,23.1c-0.8,0.2-1.6,0.4-1.8,0.8c0,0,0,0,0,0.2 c0,0.1,0,0.1,0,0.2c0,0,0,0,0.2,0.2c0.3,0.4,0.8,0.6,1.6,1.1c19.5,3.6,39.1,6.9,58.7,10c1.2,0.9,1.9,1.4,3.1,2.3v0.5 c0,0.1,0,0.1,0,0.2c-0.3,0.3-1.6,0.4-3.1,2.8c-2.2,4-5.8,12.2-6,18.1c-18,2-35.5,2.2-53.6,1.4c-6.4,2.2-9.5,5.9-8.2,10.9 c2.2,5.6,15.3,13.2,16.1,13.9c2.5,2.1,5.6,6.6-0.8,13.5c-23.2-5.2-49.6-18-60-40.8c-2.4-2.2-5.1-0.8-6.8,1.3 c-12.1,13.1-26.8,25-45,28c-11.9,0.9-24.2-4-31.7-13.3c-3.8-4.6-4-9.1-5.3-10.5c-0.1-0.1-0.1-0.1-0.2-0.2 c-8.4,2.3-56.7,17.5-58.3,8.7c16.9-14.8,41.2-21.7,61.2-31.1c1.7-4.4,4.4-19.4,13.2-23.4c0.2,1.3-1.5,9-1.3,12.5v3.6 c0,0.1,0,0.1,0,0.2c0.1-0.1,0.1-0.1,0.2-0.1c10.2-5.8,22.6-12.2,29.9-21.5C500.5,506.84,498.9,498.74,498.7,497.84z M621.7,585.25 c-2.1,0.8-3.9,1.2-4.9-1.3c-0.3-1.9-0.5-2.7,0.8-3.5c2.1-2.8,8.8-6.3,9-6.2c0.8-0.2,1.5-0.3,2.3-0.1c2.2,0.5,3.8,2.3,3.6,2.1 c0.5,3.2-2,5.8-1.3,10c0.7,1.8,1.2,3.6,4.3,3.5c5-3.1,9.8-2.6,14.9-2.1c3.9,0.8,4.1,7.4,1.5,7c-9.6,0.5-13.8,2.3-20.4,3.7 c-3.2,1.3-5.8-1.4-5.8-1.6c0-0.2-1.8-2.1-0.5-6C625.8,587.45,624.4,585.45,621.7,585.25z M445.7,517.64c-0.5-6.2-8.6-10.2-8.6-12.8 c-1.1-3.7,1.5-4.8,4.2-4.6c1.1,0.1,2,0.2,2.9,0.4c5.9,2.7,9.4,14.4,8.8,17.7c-1.1,5.8-4.2,11.7-6.6,10.6 C444,527.84,447,520.24,445.7,517.64z M462.4,434.63c0.7,1.7,1.3,2.8,4.6,2.7c7.7-5.3,7.5-2,7.5-2s-3.8,11.2-10.4,9.7 c-0.7-0.1-7,1-10.8-4.4c-4.2-6.1-1.6-15.5,5.1-17.8c1.5-0.6,2.6-0.7,3.5-0.6c1.6,0.1,2.3,1.5,1.6,3.3 C461.9,428.43,461.8,431.43,462.4,434.63z M757.7,455.93c6.6,28.1,10.8,58.21,13,86.81c0.9,10.8,2.4,21.5,1.4,32.5 c-2.6,10.4-8.7,20.7-14.1,20.1c0.9-51.31-10.1-100.81-20.5-150.72c-1.9-10.3,1.4-20.6,4.2-30.5c1.8-1.9,2.8-2.6,3.3-2.6 c1.1,0,1.3,2,2.6,4.2c5.5,11.3,13.3,21.1,19,32.3C768.1,455.43,755.1,443.23,757.7,455.93z M838,606.75c-8.3,4.7-16.9,2.9-24.1-3.3 c-4.4-2.5-8.1-5.3-11-9.5c-3.1-3.2-9.6-4.9-12.2,1.6c-4.7,9.1-4.2,20.3-11.5,28.2c-3.3,3.3-9.5,5.8-17-0.1 c-8.5-4.7-12-10.2-16.4-18.4c-5.5-12.3-6.2-29.6,4.5-39.5c0-0.2,0.2-0.3,0.2-0.5c-3.1,14.3,1,26.4,7.9,38.7 c5.9,5.7,11.1,3.9,13,1.5c7-11.8,11.6-27.2,22.8-36c3.9-2.8,7.6-3.8,12.9,1.1c0,0,10.5,15.6,13.2,16.8c3.7,3.4,8.9,1,8.9,1 c3.5-1.1,7.3-15.4,7.6-26.3c-1.9-24.9-3-49.91-5-74.81c-10.2-12.9-20.6-25.7-31.1-38.3c-2.8-3.4-6.1-8.9-6.1-11.7 c-0.4-5.2,0.1-12.1,0.5-18c1.1-6.6,3.3-2.5,7,0c7.2,5.6,9.7,8.4,18.1,17.4c9.9,11.9-12.4-1.9,2.9,13.7c0.4,0.4,1.1,1.2,2,2.3 c-0.2-1-0.4-1.8-0.5-2.8c-0.5-7.1-2-14.5-2.4-21.5c0-3.9,2.2-6.9,4.4-8.5c1.1-1.4,2.2-1.8,3.1-1.6c0.9,0.2,1.8,1,2.4,1.6 c5.9,10.3,11.8,20.6,17.7,30.9c1.1,2.9-0.5,5.6-2.3,5.1c-1.3-0.6-1.4-0.6-3.2-2.2c-1.8-0.3-1.4,0.2-1.3,1.7 c0.7,3.8,1.6,20,1.6,20.3c0,0,0.7,3.2,0.9,4c6.3,8.7,12.5,17.4,18.6,26.2c-3-20.5-6.6-40.9-10.8-61.31c-1.6-8-3.2-16.3,1.1-19.7 c4.5-5.2,8.2-6.3,10.1-2.7c6.3,9.5,14.7,25.4,14,37.2c-1.6,2.6-4.9,0.1-5.8,2.4c-0.5,1,1.2,11.4,1.7,14.7 c2.1,8.5,3.5,19.1,4.9,26.2c1.8,10.5,3.1,21.1,4.3,31.7c8.3,11.5,16.4,23,23.8,35.1c3.5,8.2,4.4,21.3-0.2,29.1 c-6.9-12.3-14.2-24.4-21.9-36.3v19.1c0.2,7.9-15.9,24-15.4,19.7c0.4-22-0.6-43.6-2.4-65.51c-5.1-7.3-10.3-14.7-15.6-21.9 c0.7,25,5.7,55.41-1.1,79.81C847.4,600.65,843.8,604.35,838,606.75z M798.3,484.14c0.2-2.4-1.1-4-1.1-6.7c1.1-4.5,5-6.3,8.7-5.8 c2.2,0.4,4.4,1.4,5.7,3.3c2.6,3,3.5,9.2,3.8,13.1c0,2.1-3.7-0.6-5.9-0.3c-2.2,0.3-2.6,2.4-2.8,4.4c-0.4,5.2-1.1,13.5-1.3,19.9 c-10.6-3.1-20.1-12.6-26-21.6c-1.4-4.2-0.4-8.1,1-10.2c2.6-1.2,6.7-2.7,9.6-0.7c0,0,3.1,4.2,2.4,4.7 C796.3,486.24,797.7,485.34,798.3,484.14z M819.2,559.25c-1.3-4.9-6.6-14.2-5.7-16.7c-1.5-4.6,1.7-6.9,5-7c0.7-0.1,1.5,0.1,2.2,0.3 c6.2,3.3,8.6,19.5,7.8,23.9c0.2,8.6-6,14.8-8.2,13.7C817.8,572.05,820.5,562.75,819.2,559.25z M825.8,524.64 c-8.8,9.1-24.9,17.3-37.1,19.9c-1.7,1-3.5-8.9,0-11.3c11.9-6.8,23.9-13.3,35.9-20h0.5C828,513.84,827.3,524.94,825.8,524.64z M887.4,466.03c-1.2-4.8-9.2-13.8-8.3-16.4c-1.4-4.9,2.3-7,5.5-6.7c0.5,0,1,0.2,1.4,0.2c5.9,3,9.1,18.4,8.6,22.8 c-1.2,8-4.3,16.6-6.5,15.4C885.7,480.24,888.6,469.34,887.4,466.03z M850.2,627.35c2.3-1.8,4.1-2.9,6.4-4.7 c2.5-2.7,1.6-4.2,0.2-6.1c-2.5-1.6-5-1.6-5.2-5.2c0.4-2.4,1.3-3.2,3.4-3.6c2-0.1,3.4-0.1,4.8-0.1c1.2,0.1,2.5,0.1,4.4,0.6 c3.5,1.3,4.4,2.7,3.4,4.6c-0.9,2.1-1.4,3.1-2.7,4.6c-1.6,2.5,1.8,3.2,2.6,3.3c2.1,0.3,5.1-0.4,6.5,1.1c0.2,0,1.1,3.2-1.4,4.7 c0.2,0.1-14.3,8.2-20.8,6.2C848.4,631.75,849.1,628.95,850.2,627.35z M877.8,625.25c3.3-2.3,13.3-5.2,18.1-8.4 c4.6-3.1,9.5-10.1,14-15.6c2-5.2,2.2-7.5,2.8-11.6c-1.7-47.71-7.2-94.91-14.2-142.02c-1.2-7.9-0.2-16.8,3-21.8 c1.3-2.6,2.2-3.7,2.9-3.7c0.8-0.1,1.5,1.5,2.5,3.5c5.7,8.5,15,18,16.6,28.3c-1.6,2.6-6,0.1-7,2.4c-0.5,1,0.8,8.6,1.3,11.9 c8.3,41,8,83.81,7.4,125.51c-0.2,7.9-3.7,20.8-6.7,25.6c-9.6,14.8-26.4,18.1-42.8,18.5C867.1,637.35,867.2,630.55,877.8,625.25z"/>
  </g>
</svg>