<svg viewBox="0 0 1200 1200" xmlns="http://www.w3.org/2000/svg">
  <g>
    <path d="M839.2,716.7c-0.4-0.1-0.6-0.1-1-0.1C838.6,716.7,838.8,716.7,839.2,716.7z"/>
    <path d="M930,221.8c-110.4,0.1-221.4-13.7-330-32.3h-0.1v-0.1c0,0-0.1,0-0.1,0.1c-15.7-2.8-31.5-5.4-47.3-7.9 c-9.8-1.5-14.7-2.3-24.7-3.8c-0.2,0.1-0.3,0.1-0.5,0.2c-0.1,0-0.1,0-0.2,0c0.2-0.1,0.4-0.2,0.6-0.3c-11.7-1.7-23.5-3.4-35.2-4.9 c-53.6-7.8-109.8-14.1-173-16.6c-6.9-0.3-11.2-0.5-18.7-0.7v0.1l0,0v-0.1c-10.3-0.3-20.6-0.5-30.8-0.5c-1.5,0-3,0-4.5,0 c-1.9,0-3.9,0-5.8,0c-22.3,0-44.7,1.6-67.3,4.8c-0.6,0.1-1.1,0.2-1.7,0.2c-1.7,0.2-3.5,0.5-5.2,0.8c-41.5,6.3-81.3,17.4-121.2,32.7 c0.3,0.1,0.5,0.2,0.8,0.3l0,0c-0.3-0.1-0.5-0.2-0.8-0.3c-21.7,8.6-43.1,18.3-64.3,28.3v823c67.7-35.6,135.2-55.4,207-63 c17.7-1.7,35.2-2.5,52.7-2.5c151.8,0,259.1,20.9,374.6,39.2c34.4,5.7,69,10.6,103.7,14.6c60,7.1,125.4,11.9,202,11.9 c84.6,0,170.8-22,260-66.9V155C1112.7,194.7,1026.5,221.6,930,221.8z M240.9,567.1c-7.6,0.3-11.3,0.4-18.6,0.9V442.5l-0.1,0.1 C168,487.6,120.2,539,74.1,592c-3.5,4.1-7,8.1-10.6,12.2c-8,3.2-12.1,4.9-20.4,8.6c54.5-64,110-127.3,174.4-181.7 c-13.2,1-26.3,2.4-39.4,4.4l-0.1,0.1C125.1,486.3,77.2,541.8,30,597.7v-45.8c29.8-35.2,59.9-70.2,91-104.2l0,0 c-10.5,3.1-20.9,6.4-31.1,10.1C69.6,465,49.7,473.2,30,482v-27c67.6-29.7,135.6-48.9,210.9-52.4V567.1z M599.8,463.8 c-48.6-8.6-97.4-15.9-146.3-21.9C503.6,478,552.8,515.3,600,555v15.3c-55.3-46.5-113.2-89.5-172.1-131.3c-12.7-1.3-25.4-2.6-38-3.7 c-4.2-0.4-8.4-0.7-12.7-1.1c4.8,3.3,9.5,6.6,14.3,9.9c71.4,49.6,141.8,100.7,208.4,156.8c-23.9-4.2-47.8-8.2-71.8-11.9 c-62.8-47.9-127.7-93.1-193-137.8c-4.3-3-8.6-5.9-12.9-8.9v125.4h-0.1c-8.5-0.4-12.8-0.6-21.2-0.8V402.4 c50.2,1.8,100.3,5.9,150.2,11.8c18.7,2.2,37.4,4.7,56,7.3c6.2,0.9,12.4,1.8,18.6,2.7c18.6,2.8,37.2,5.8,55.8,9 c6.2,1.1,12.4,2.1,18.6,3.2v27.4C599.9,463.8,599.9,463.8,599.8,463.8z M930.6,839.1L930.6,839.1c-28.1-20.8-49.7-47.8-71.1-75.3 c-25.7-33.3-39.2-72.8-46.6-113.8c-13.2-73.2-12.7-149-12.9-223.1h0.1c24.3,11.8,44.8,19.6,72.1,20.3l0,0c0.4,0,0.8,0,1.1-0.1 c17.4-0.9,32.6-4.3,46.3-13.7c2.6-1.8,5.2-3.8,7.7-6c0,0,0,0,0.1,0c14.1,8.9,33.4,21.4,51.1,21c1.8,0,3.6-0.2,5.4-0.6 c22.6-1.7,38.6-14.3,55.2-28.5c0,0.1,0,0.1,0,0.2c0.1,77.5,0.3,156.3-11,233.2c-5.7,38.9-15,78-35.9,111.8 c-5.9,9.4-11.9,18.8-18.3,27.8c-9.8,13.9-20.5,27-33.2,38.2c-0.2,0.2-0.4,0.4-0.7,0.6l0,0C937.1,834.1,933.9,836.6,930.6,839.1z M322.1,186.3v95.4c4.1-2.4,8.3-4.8,12.4-7.1c46.9-26.7,95.2-50.5,143.9-73.6c8.3,1.2,16.6,2.4,24.9,3.6 c-59.4,27.9-118.6,56.3-175.5,89.1c0.1,0,0.1,0,0.2,0c16.4,0.9,32.8,1.9,49.2,3.3c4.6-2.4,9.2-4.8,13.8-7.1 c53.1-27.2,107.4-52,161.3-77.5c10.9,1.8,21.8,3.6,32.7,5.4c5,0.8,10,1.7,15,2.5h0.1v15.1c-48.6,23.7-97.8,46.1-146.5,69.4 c49,6,97.8,13.3,146.5,21.8v27.5c-6.2-1.1-12.4-2.2-18.6-3.2c-15.5-2.6-31-5.2-46.5-7.5c-9.3-1.4-18.6-2.8-28-4.1 c-15.5-2.2-31.1-4.3-46.7-6.2c-3.1-0.4-6.2-0.8-9.4-1.1c-6.2-0.7-12.5-1.4-18.7-2.1c-12.5-1.4-25-2.6-37.5-3.7 c-6.3-0.6-12.5-1.1-18.8-1.6c-25-2-50.1-3.5-75.2-4.3c0-27.5,0-54.9,0-82.3c0-17.4,0-34.8,0-52.2C308,185.8,315.1,186,322.1,186.3z M105.1,211.3L105.1,211.3c41.1,20,79.3,44.9,117.3,70.7v-95.4c6.2-0.5,12.4-0.9,18.5-1.2v134.7c-75.3,3.7-143.3,23-210.9,52.6V345 c29.7-13.2,59.9-25,91.3-34.2c-29.7-15.2-59.7-27.1-91.3-35.9v-15.1c38.6,10.8,74.7,26.3,110.2,46.1c12.6-3,25.3-5.5,38-7.4 c-42.3-26.9-85.3-49.2-131.9-64.4C66.1,225.3,85.7,217.7,105.1,211.3z"/>
    <path d="M1009.5,713.6h-0.1c-10.4,1.4-20.8,2.5-31.2,3.2c-17.5,1.1-35,1.5-52.4,1.5c-29,0-57.9-1.3-86.9-3l0,0c-0.1,0-0.2,0-0.3,0 c0.2,0.4,0.4,1,0.6,1.4c18.5,41.6,56.8,83.9,91.6,112.9l0,0c0,0,0,0,0.1,0C964.9,801.1,993.8,754.7,1009.5,713.6z"/>
    <path d="M972.8,552.4c-12.4-3-11.6,1.7-19.8-5.7c-4.3-4.4-16.4-12.3-18.6-9.9c-0.4,0.5-0.5,1.3-0.1,2.7 c5.5,16.4,18.2,28.6,26.6,43.4c-5.8,9.3-6.9,8.4-6.2,25.1l0.1-0.1c5-7.3,7.5-11.4,9.6-13.3c2.1-2,3.7-1.9,6.8-1 c12.2,18.7,7.1,55.1-8.9,70.6c-7.1,7.2-19.3,6.7-27.6,12.5l0,0c0,0-0.1,0-0.1,0.1c8.3,9.4,17.8-1.7,25.4,0.9 c3,8.9,0.6,21.3,1.2,30.5c1.9-1.3,3.3-3.1,4.2-5.3c0.1-0.2,0.2-0.5,0.3-0.7c0.1-0.3,0.2-0.5,0.3-0.8c2.2-6.2,1.8-14.3,2.7-20 c5.7-24.9,33-41.9,34.4-67.9c5.8-4.6,11.5-2.6,18.5,2.1c0-0.1,0-0.1,0-0.2c-1.1-13.6-10.4-16.5-18.2-25 C997.3,576.7,989.7,555.7,972.8,552.4z M969,561L969,561C968.9,561,968.9,561,969,561c-0.1,0-0.2,0-0.2,0c-0.5,0-0.9-0.2-1.3-0.5 c-0.7-0.6-1.2-1.7-1.2-3c0-1.8,0.9-3.3,2.2-3.7c0.1,0,0.1,0,0.2,0c0.1,0,0.2-0.1,0.3-0.1c0,0,0,0,0.1,0l0,0 c1.4-0.1,2.6,1.5,2.6,3.5C971.6,559.2,970.4,560.9,969,561z"/>
    <path d="M879.6,555.5c2.2,9.4,7.6,18,5.8,27.9c-0.9,8.2-2.6,23.3,4,25.8c0.1,0,0.1,0.1,0.2,0.1c9.8-15.7,11.6-34.5,17.7-51.6 c0-0.1,0.1-0.2,0.1-0.3c6,2,8.1,3.4,11.7,1.9c2-0.9,4.6-2.6,8.6-5.8c-14.8-5.5-16.1-5.1-17.9-14c2.5-9.1,9.9-17.3,19-22.2 c10.3-5.5,22.7-6.7,32.4,0c8.8,6.9,10.8,18.6,19.6,26c0.1,0.1,0.2,0.2,0.2,0.2c1.7-12.2-7.5-19.3-10.3-30.3 c0.5-1.8,1.3-3.1,2.4-4.3c2.9-3,7.5-4.3,11.5-7.7c1.6-1.3,3.1-3,4.4-5.2c-2.3-4.9-7.9-2-12.9,1c-1.7,1-3.4,2.1-4.9,2.9 c-0.7,0.3-1.3,0.6-1.8,0.8c-21.5,6.1-39.5-20.4-60.6-12.5c-6.4-6.1-7.9-18.5-7-26.6c-0.1,0.1-0.3,0.3-0.4,0.4 c-10.5,10.6-6.2,23.2-9.2,36.1c-2.6,5.5-5.4,11.1-7.7,16.9c-4.8,11.9-8.1,24.3-5.7,37C879,553.2,879.3,554.3,879.6,555.5z M883.6,555.3c0.4-0.2,0.8-0.3,1.2-0.4c1.2-0.1,2.4,0.6,3,2.1c0.8,1.8,0.1,3.9-1.3,4.9c-0.6,0.4-1.2,0.5-1.8,0.3h-0.1 c-0.1,0-0.3-0.1-0.4-0.1c-0.8-0.3-1.4-1-1.9-1.9C881.6,558.4,882.1,556.2,883.6,555.3z"/>
    <path d="M844.4,584.1c1,1.4,1.9,2.8,2.7,4.3c10.7,19.9,6,48.1,17.9,66.8c1.3,2.1,2.9,4.1,4.7,5.9c-0.7,9.3-6.4,15-15.1,20.4 c0.1,0,0.2,0.1,0.3,0.1c-0.1,0-0.1,0.1-0.2,0.1c13,5.2,20.4-2.7,31.4-7.4c17,0.2,34.9-0.4,45.6-15.9c9.4-13.6,5.7-14.9,15-20.9 c5.7-3.1,18.3-14.8,15.4-17.7c-0.3-0.3-0.7-0.5-1.2-0.5c-14.5-1.5-28.4,6.5-42.3,8.8V628c-1.5-6-1.8-9.1-3.6-11.9 c0-0.1-0.1-0.1-0.1-0.2c0-0.1-0.1-0.1-0.1-0.2c-1.6-2.2-4.2-4.4-9.4-7.8c1.9,7.9,6.5,19.7,0,26.8c-6.3,1.4-12.3,0.1-17.8-3.1 c-15-8.7-25.8-30.9-26.2-45.4c-0.5-13,7.2-24.3,7.5-37.6c0,0-0.1,0-0.1,0.1c-10.9,5.3-9.5,18.9-15.9,27.8 c-9.6-1.2-14.2-12.2-23.2-15.7c-0.5,3.1,0.1,5.9,1.5,8.5C834.1,575,840.4,579.7,844.4,584.1z M928.2,648.9c0.6-1.4,1.7-2,2.8-1.7 c0.4,0.1,0.8,0.2,1.2,0.5c1.3,1,1.7,3.3,1,5.1c-0.3,0.7-0.8,1.1-1.3,1.4c-0.8,0.5-1.8,0.5-2.7-0.2 C927.9,652.9,927.4,650.7,928.2,648.9z"/>
  </g>
</svg>