<svg viewBox="0 0 1200 1200" xmlns="http://www.w3.org/2000/svg">
  <path d="M941,222.9c-141.7,0-246.5-17.3-349.7-34.4c-105.8-18.8-213.5-33.6-321.1-33.5c-1.1,0-2.2,0-3.3,0c-2.4,0-4.8,0-7.2,0 c-58.3,0-117.4,11-177.8,32.5c-27.5,9.8-54.7,21.6-81.9,35.4v820c21.7-11,43.3-20.4,64.7-28.3c66-23.7,135-33.6,205.1-35.3 c121,0.7,213.8,14.8,306.1,29.7c8.1,1.3,16.1,2.7,24.1,4.1v-0.1c99.6,16.2,201.4,32,340,32c84.6,0,170.8-22,260-66.9V155 C1110.8,200,1025.6,222.9,941,222.9z M1170,959.3c-36.8,17.4-73.5,30.8-109.2,40c-40.5,10.4-81.1,15.7-120.8,15.7 c-138.4,0-241-16.4-340-32.4V807.3c-2.4-0.4-4.7-0.9-7.1-1.4c2.4,0.5,4.7,0.9,7.1,1.4c37,5.3,71.9,1.1,107-11.6 c33.4-13.6,63.8-36,84.2-66.1C742.9,779,660.9,790.2,600,758.5c-0.9-0.5-1.7-0.9-2.5-1.4c0.9,0.5,1.8,1,2.7,1.4v-96.6 c24-4,48.2-7.8,72.2-11.7c15.8,22.3,31.9,44.5,48.1,66.5v-74.5c26.2-4.5,52.3-9.3,78.3-14.5c-26.2-10-52.4-20.3-78.3-30.9v-74.5 c-16.1,17.9-32.2,35.8-48.1,53.8c-24.3-11-48.5-22.4-72.2-34.6v-96.9c-1.7,0.2-3.3,0.5-5,0.8c1.5-0.3,3-0.6,4.7-0.8 c58.1-8.8,117.2,16.2,162.4,51.1c10.5,8.5,20.2,18,28.8,28.4C750.7,458.2,676.1,409,600,395.7V220.3c99.2,16.4,203.1,32.6,341,32.6 c44.4,0,90-6.1,135.4-18.1c30.5-8.1,61.9-19,93.6-32.7V959.3z M600.2,661.7v-120c14.1,22.7,28.7,45.1,43.6,67.3 C629.1,626.2,614.4,643.8,600.2,661.7z"/>
</svg>