<svg viewBox="0 0 1200 1200" xmlns="http://www.w3.org/2000/svg">
  <path d="M941,222.9c-280.7,0-416.7-67.9-681.3-67.9C175.2,155,89.1,178,0,222.9v820c89-44.9,175.2-63.6,259.7-63.6 c268.9,0,398.5,65.7,680.3,65.7c84.6,0,170.8-22,260-66.9V155C1110.8,200,1025.6,222.9,941,222.9z M1170,959.3 c-36.8,17.4-73.5,30.8-109.2,40c-40.5,10.4-81.1,15.7-120.8,15.7c-140.1,0-243.6-16.8-343.7-33c-98.9-16.1-201.3-32.7-336.6-32.7 c-45.7,0-91.1,5.3-135.1,15.8C93,972.6,61.3,982.9,30,996V755.4c87-33.7,173-53.7,268.4-51.3c101.3,2.6,201.9,17,301.6,34.5 c99.3,17.4,200.4,29.2,301.2,31.7c96.1,2.3,182.4-15.8,268.8-53V959.3z M901.2,495.8c-100.9-2.6-201.7-15-301.2-31.6 c-99.7-16.7-200.3-31.7-301.5-34.5c-95.4-2.6-181.1,19.2-268.5,51.8V241.6c37.1-17.6,73.8-31.2,109.2-40.5 c40.7-10.7,81.2-16.1,120.5-16.1c127.9,0,223.7,15.9,325.2,32.8C688.7,235,796.1,252.9,941,252.9c44.4,0,90-6.1,135.4-18.1 c30.5-8.1,61.9-19,93.6-32.7v240.8C1083.7,480.1,997.1,498.3,901.2,495.8z"/>
</svg>