<svg viewBox="0 0 1200 1200" xmlns="http://www.w3.org/2000/svg">
  <path d="M941.06,222.9c-280.63,0-416.6-67.9-681.13-67.9c-84.48,0-170.56,23-259.64,67.9v409.6c-0.1,0-0.2,0.1-0.3,0.1v410.2 c0.1,0,0.2-0.1,0.3-0.1v0.2c9.7-4.9,19.5-9.5,29.09-13.8c81.38-35.3,164.16-50.2,253.64-49.6c16.6,0.2,32.69,0.7,48.29,1.4 c0.9,0,1.9,0.1,2.8,0.1c1.3,0.1,2.6,0.1,3.9,0.2c21.49,1.1,43.09,2.6,64.58,4.5c71.18,6.5,134.17,16.9,198.05,27.3 c58.39,10.4,117.27,18.7,176.46,24.2c32.59,3.1,66.98,5.5,103.97,6.8c1.1,0,2.2,0.1,3.3,0.1c2.9,0.1,5.7,0.2,8.6,0.3 c2.7,0.1,5.3,0.2,8,0.2c4,0.1,8,0.2,12,0.2c8.9,0.1,17.9,0.2,27.09,0.2c50.59,0,101.67-7.9,153.66-23.8 c31.89-9.4,63.38-21.7,94.58-37.4c3.9-1.9,7.8-3.8,11.7-5.7V155C1110.82,200,1025.64,222.9,941.06,222.9z M492.88,532.7 c-3.7-1.8-7-4.4-9.7-8.6c2.3-2.9,5.6-4.8,8.4-5c1.6,0,2.9,0.4,4.1,1.4c1.1,1,2,2.5,2.4,5c0,0.1,0.2,0.1,0.3,0.4c0,0.3,0.1,0.7,0.5,1 c0.1,0.1,0.2-0.1,0.3-0.1C497.18,528.7,495.28,530.6,492.88,532.7z M1170.01,580.9c-67.38,30.3-136.27,48.6-211.35,52.5 c9.3-18.2,15.8-37.1,15.8-57.7c0.1-19.9-7.2-40.6-20.89-55.2c-0.2-5.4,1.2-12.5,3.2-18.6c1.2-3.5,2.4-6.7,3.5-8.9 c0.5-0.9,0.9-1.7,1.1-2.2c0.3,1.3,0.6,2.5,1.3,4.5c1,2.7,2.5,6.1,4,9.3c3.1,6.5,6.9,13.2,10,15.8c0.3,0.2,0.7,0.3,0.9,0 c0.3-0.2,0.6-0.6,0.6-0.9c3.5-47.4,20.39-91.2,45.09-131.4c0,0,0,0,0.1-0.1c0,0,0,0,0-0.1c0.1-0.1,0.2-0.1,0.4-0.3 c0.4-0.3,0.5-0.8,0.4-1.3c-0.2-0.5-0.5-0.7-1-0.6c-0.1,0-0.1,0-0.2,0.1h-0.1c-7.3,5.1-13.9,9.9-19.9,14.4 c-34.69,25.4-63.18,57.6-97.58,83c-0.4,0.3-0.5,0.8-0.4,1.2c0.2,0.4,0.6,0.7,1.2,0.6c15.1-1.2,28.99-3.4,42.39-11 c-3.1,5.4-6.6,12-10.2,17.8c-2.1,3.4-4.1,6.4-5.8,8.4c-0.8,0.9-1.5,1.8-2.1,2.1c-0.3,0.2-0.3,0.1-0.4,0.1 c-8.6-4.2-17.9-6.6-26.89-6.9c-27.69-1.4-58.49,15.5-59.39,45.8c0.2,24.3,20.39,51.7,46.79,50.7c8.9,0.1,19.8-2.7,27.19-7.6 c6.6-4.2,12.1-10.9,15.4-20.2c0.1,0.7,0.2,1.4,0.2,2.3c0.1,12.5-4.7,25.2-15,32.6c-11.6,8.4-25.19,9.5-39.09,10 c-19.4-0.8-38.19-11.8-55.49-19.5c-31.69-14-64.58-22.7-98.88-27.8c-11.8-1.1-24.09-2.6-35.69,1.3c-0.7,0.2-1.2,0.7-1.9,0.9 c5.5-5.3,12.1-9.8,19.99-12.8c21.49-8.3,44.39-4.5,65.28,3.4c2.3,1.3,5.1,2.8,7.2,3.7c1.7,0.8,2.7,0.9,4,1.4 c0.3,2.4,0.3,4.2-0.1,5.1c-0.2,0.5-0.6,0.6-0.9,0.7c-0.2,0.1-0.5,0.1-0.8,0.1c-0.5,0.1-0.9,0.1-1.7-0.1c-0.3-0.1-0.8-0.1-1,0.2 s-0.3,0.7-0.2,1c-0.1,0.4,0.2,0.9,0.7,1.2c0.3,0.1,0.6,0.2,0.8,0.3c1.7,1.7,3.7,2.6,5.5,2.5c2.3-0.3,4.1-1.7,5.6-3.5 c1.5-1.7,2.7-3.9,3.2-5.9c0-0.2,0-0.4,0.1-0.6c1.8-1.7,3.2-4.2,2.5-7.4c-0.7-3.4-3.7-7-9.3-10.3c-0.1-0.1-0.1-0.2-0.2-0.3 c-0.2-0.1-1.4-1.4-2.3-3.2s-2-4.5-2.6-7.4c-1.4-5.9-1.8-13.3,0-20.5c5.7-22.4,28.59-26.8,48.49-28.3c0.1,0,0.2-0.2,0.3-0.2 c6.2,1.6,11.8,2.7,16.1,2.9c0.7,0,1.2,0,1.8-0.1c0.3,0.3,0.6,0.5,0.8,1c0.4,0.7,0.8,1.7,0.7,2.7c-0.1,0.8-0.9,1.9-1.8,2.9 c-0.1,0-0.1,0-0.1,0.1c-0.3,0.1-0.7,0.3-0.8,0.6c-0.1,0.3-0.1,0.7,0.1,0.9v0.2h0.1v0.1c0.1,0.4,0.4,0.6,0.8,0.8 c0.4,0.1,0.9-0.1,1.3,0c1.9,0.6,3.9,0.7,5.6-0.3c2.2-1.3,4.1-3.6,5.1-6.2c1.1-2.6,1.5-5.5,0.6-8.1c-0.7-1.7-2.2-3-4.2-3.9 c-20.19-23.5-26.29-50.3-14.3-79.6c4.7-11.3,11.4-21.9,19.5-31.1c7.2-8.1,15-13.8,18.8-14.9c0.2-0.1-0.1,0.2,0.1,0.1 c1.5,0.2,3.1,0.3,4.5,0c2.2-0.5,4.1-1.5,5.8-2.7c0.1,0.1,0,0.3,0.1,0.3c0.5,0.2,1.1-0.1,1.3-0.6l0.1-0.1c0.2-0.1,0.5-0.2,1-0.4 c0.7-0.2,1.8-0.4,2.4-0.2c0.3,0,0.6,0.2,0.7,0.2c0.1,0.1,0.2,0.1,0.2,0.4c0.1,0.5-0.1,1.8-1.4,3.8c0,0,0,0-0.1,0.1v0.2 c-0.1,0.2-0.2,0.5-0.1,0.8c0,0,0,0,0.1,0.1v0.1c0,0,0,0,0.1,0c0,0,0,0.1,0.1,0.1c0,0,0,0,0.1,0.1s0,0,0.1,0.1s0.2,0.1,0.2,0.1 s0.1,0,0.1,0.1h0.3c0.1,0,0.2,0,0.3-0.1c0.1,0,0.1-0.1,0.2-0.1c0,0,0,0,0.1-0.1c1.9-0.3,3.8-1.3,5.4-3.1c1.8-1.8,3.3-4.2,4-6.7 s0.6-5.2-1.3-7.1c-1.6-1.6-4.3-2.4-8-2.4c-0.6-1.5-1.8-2.7-3.5-3.5c-1.5-0.7-3.5-0.8-5.8-0.9c-0.6-0.2-0.9-0.3-1.5-0.5 c-3.9-2.5-7.3-4.1-10.7-4.7s-6.8-0.2-10.6,1.3c-11.7,4.9-22.19,12.9-32.89,19.7c-38.79,24.3-85.88,21.3-129.57,16.8 c-50.29-5.1-124.47-15.6-161.96,28.3c-20.49,24-19.1,57.9-21.79,87.5c-1.3,18.5-7.9,33-19.6,47.2c3.8-8.1,5.1-14.3,4.2-19.2 c-1-5.2-4.2-8.9-7.8-12.1c-3.6-3.2-7.7-6-10.9-9.4c-2.5-2.7-4.1-6-5-10.1c4.1-1.8,9.1-1.3,13,1.4c4.9,3.3,8.1,9.9,5.8,18.7 c-0.1,0.4,0.3,0.8,0.7,1c0.1,0.1-0.1,0.3,0.1,0.4c0.5,0.4,1,0.4,1.4,0.2l0.1-0.1c0,0,0,0,0-0.1c9.9-8.2,14.1-15.5,14.8-22.2 s-2.1-12.7-6-18.1c-3.9-5.4-9-10.2-12.5-14.7c-3.4-4.4-5.4-8.4-4.8-12.5c1.6-1.2,3.2-2,4.5-2.4c2.9-0.7,5.3,0.3,7.4,2.5 s3.9,5.4,4.9,8.7c1,3.3,1.5,6.9,1,9.4c0,0.1,0.1,0.1,0.1,0.1c-0.1,0.5,0.1,0.9,0.6,1.2c0.4,0.3,1,0.2,1.3,0c0-0.1,0.1-0.1,0.1-0.2 c0,0,0-0.1,0.1-0.1c6.5-8.2,9.1-15.7,9.3-22.4c0.1-6.9-2.3-13-5.9-18.5c-3.6-5.4-8.2-10.1-12.3-14.2c-4-4-7.6-7.2-9.4-9.9v-2.3 c3.1-1.6,7.2-2.2,11.1-0.9c4.2,1.4,7.8,4.7,9.5,11c0,0,0.1,0,0.1,0.1c0.1,0.5,0.4,1,1,1.1s1.1-0.4,1.1-0.9v-0.1 c-0.5-10.8-1-21.6-7-31.1c-4.6-7.6-11.6-13.2-19.99-16.9c0.3-0.5,0.7-0.8,1.1-1.3c2.8-3,6.8-6.5,10.5-10.5c8.6-9,14.4-20.5,13-33.1 c0-0.1-0.1-0.2-0.2-0.3s0-0.3-0.1-0.4c-0.2-0.2-0.6-0.4-0.9-0.3c-0.2,0-0.2,0.2-0.3,0.3c-0.2,0.1-0.3,0.1-0.4,0.1 c-8.6,8.1-21.99,8.2-32.99,7.8c1.5-2.3,3.5-5.4,5.2-9.3c1.9-4.3,3.5-8.8,2.7-12.3V283c-0.1-0.3-0.2-0.5-0.5-0.7 c-0.2-0.1-0.6-0.3-0.9-0.2c-0.1,0-0.1,0.1-0.2,0.2c-0.2,0-0.3,0.1-0.5,0.1c-10.5,7.9-24.59,10.1-37.39,11.6 c-6.8,0.8-13.1,1.5-18,2.3c-2.4,0.4-4.4,0.9-5.9,1.4c-0.9,0.3-1.7,0.8-2.3,1.4c-9.5-2.9-18.4-5-26.49-6.1c-11.1-1.6-22.89-2-33.79,1 c-3.9,1.2-7,2.8-8.9,4.7c-1.9,2-2.7,4.5-2.1,7.1c0.6,2.4,2.7,4.9,5.6,7.4c-16.3-6.7-32.69-12.7-50.39-13.4c-5.5-0.2-10.6,0.1-15,0.8 c-9,1.3-15.7,4.1-20.69,7c-3.9,2.3-6.2,4.4-7.8,6.1c-0.2,0.2-0.4,0.2-0.6,0.4c0,0-0.1,0-0.1,0.1c-0.1,0.1,0,0.2,0,0.2l-0.4,0.4 c0,0-0.1,0-0.1,0.1v0.1c-0.1,0.1-0.2,0.2-0.3,0.2c-0.3,0.4-0.2,0.9,0.1,1.2c0.3,0.3,0.8,0.4,1.2,0.2c2.3-1.5,4.8-2.6,7.6-3.8 c0.1,0,0.3,0.1,0.4,0.1c2.2,0,4.6,0.5,6.9,1.5c2.4,0.9,4.7,2.2,6.4,3.3c1.7,1.1,2.9,2.1,3.1,2.3l0.1,0.1c1.2,0.8,2.9,1.6,4.7,2.4 c-4.5,9.4-5,20.4-4.8,30.6c-0.6,0.1-1.1,0.3-1.9,0.4c-3.8,0.6-8.7,0.8-13.9,0.5c-7.5-0.5-15.7-2.3-23.09-6.1 c1.2,0.2,2.4,0.5,3.6,0.6c5.5,0.2,10.3-1,14-3.2c0.5-0.1,1.2-0.1,1.7-0.3c0.4-0.1,0.6-0.5,0.6-0.9c0-0.3-0.2-0.4-0.4-0.6 c-0.1-0.1-0.1-0.3-0.2-0.3c-22.59-9.7-40.99-26.3-56.59-45c0,0,0,0-0.1-0.1c0,0,0,0-0.1-0.1c-0.2-0.3-0.6-0.4-0.8-0.3 c-0.5,0.1-0.7,0.7-0.7,1.2c0,0.1,0,0.3,0.1,0.4c2.2,30.5,13.2,56.9,33.69,79.7c0.3,0.3,0.8,0.4,1.2,0.2c0.4-0.2,0.6-0.6,0.5-1.2 c-0.7-3.9-1.1-6.6-1.7-10.6c0-0.1-0.1-0.1-0.1-0.1c0.1-5.2-0.3-8.6-0.9-11.6c6.4,6.6,17.3,12,26.59,12.8c9.4,1.3,19.5,0,28.79-1.6 c0.3-0.1,0.7-0.1,1.2-0.2c0.1,6.6-2.4,14.9-6.6,21.7c-2.4,3.9-5.1,7.2-8,9.5s-5.8,3.5-8.7,3.3h-0.1c-0.5,0.1-0.8,0.5-0.8,0.9 c-0.2,0.2-0.5,0.2-0.4,0.5c0,0.5,0.4,1,1,1c11.6,0.1,23.19,0.4,34.79,0.4h0.1c1.5-0.1,2.1,0.1,2.1,0.1c0,0.1-0.1,0.2-0.2,0.4 c-0.8,1.2-3.3,3.6-6.2,6.2c-0.3,0.3-0.4,0.7-0.2,1.1c0.2,0.4,0.6,0.7,1.1,0.7c0.1,0,0.1-0.1,0.2-0.1c0.2,0.2,0.6,0.3,1,0.2 c0.1,0,0.2-0.1,0.3-0.1c0.4-0.1,0.7-0.2,1.2-0.4c7.7-0.5,17.4-1.5,24.79-6.2c-0.1,0.7-0.4,1.7-0.7,2.3s-0.8,1.3-1.8,2.1 c-0.1,0.1-0.4,0.3-0.5,0.4c-1.3,0.9-2.2,1.6-3.8,2.6c-0.1,0-0.1,0.1-0.2,0.1c-0.3,0.2-0.5,0.7-0.4,1.1s0.4,0.7,0.9,0.8h0.4 c0.1,0,0.1-0.1,0.2-0.1c12.3-1.1,24.29-7,33.59-15c5.5,1.1,9.2,3.9,11.5,6.5c1.4,1.4,2.3,2.8,3.4,3.8c0.5,0.3,0.9,0.6,1.5,0.8 c0,0.4-0.5,0.9-0.3,1.3c0.2,0.9,0.9,1.7,1.8,2.3c-4,6.4-5.2,11-4.7,14.1c0.3,1.8,1.3,3,2.2,3.9c-5.4,3.2-9.9,6.6-12,9.9 c-1.1,1.8-1.7,3.6-1.2,5.3c0.1,0.5,0.6,0.9,0.8,1.3c-0.5,0-0.8-0.2-1.2,0h-0.1c-5.3,2-10.4,6.3-13.1,10.6c-1.3,2.2-2.1,4.4-1.9,6.5 c0.1,0.9,0.6,1.7,1,2.4c-6.6,2.7-12.8,9.3-16.1,15.3c-1.7,3.1-2.7,6-2.4,8.4c0.1,1.2,0.7,2.3,1.6,3.1c-0.2,0.2-0.3,0.4-0.7,0.6 c-0.1,0.1-0.2,0.1-0.3,0.2c-6.6,2.9-10.8,10-12.7,16.5c-1,3.3-1.3,6.3-0.8,8.7c0.2,0.8,0.8,1.5,1.3,2.1c-0.3,0.2-0.8,0.4-1.1,0.6 c-1.9,1.6-3.3,3.4-3.8,4l-0.1,0.1c-3.8,4.4-5.4,11.9-5.2,18.2c0.1,3.1,0.7,6,1.9,8.1c0.4,0.7,1.1,1.2,1.7,1.7 c-0.1,0.1-0.3,0.2-0.4,0.3l-0.1,0.1c-2.4,2.8-3.9,6.8-4.6,10.9c0,0.1,0,0.3-0.1,0.4c-4.9-0.2-8.9-0.3-13.8-0.4 c-0.1-0.2-0.2-0.3-0.2-0.5c-8.1-17.2-12.5-35.5-16.4-54c-7.5-18.5-19.1-31.3-23.29-52.1c0.6-9.3,7.6-22.9-4.8-27.4h-0.1 c-6.1-13.2-23.59-15.7-31.99-3.9c-0.3,0.3-0.3,0.8-0.1,1.2c0.2,0.4,0.6,0.5,1,0.3c2.4-0.9,9.9,1.3,9.9,6.3 c-4.2,10.9,1,19.4-1.7,18.7c-0.5-16.6-16.8-15-17.4-14.8v0.1c-2.9-0.1-4.4-0.1-7.3-0.2c-14.3,0.9-21.19,13.2-15.6,25.7 c0.3,0.3,0.7,0.4,1.3,0.2c0.6-0.2,0.9-0.4,1-0.9c-1.1-7.3,4.2-8.3,9.6-6c3.5,14.5,10.9,14.4,11.9,14.3v0.1h0.1 c10.1,1.3,13.3,8.6,13.4,13.1c-3.3-1.1-7.2-1.5-12.7,0.1c-3.6-3.8-10.6-4.6-13-4.8c-1.1-0.1-8.6,1.9-11.5,7.1c-0.4,0-0.7,0-1.1-0.1 c-10,4.9-12.7,20.1-3.6,27c0.2,0.3,0.5,0.3,0.8,0.2s0.4-0.5,0.4-0.9c-2.2-5.5,0.9-9.1,4.7-7.7c7.3,9.1,19.7,4,26.99-2.1 c0.2,0.1,5.1,2.1,10.4,3.8c0.8,9.2,6.5,19.2,11.2,26.8c-1.5,7-4,13.9-5.4,16.6l-0.1,0.1c-3.4,3.1-6.5,8.4-8.1,14.4l0,0 c-0.1,0-0.3,0-0.4,0.1c-67.78,5.4-130.67,22.8-191.85,49.8V241.6c37.09-17.6,73.78-31.2,109.17-40.5 c40.69-10.7,81.18-16.1,120.47-16.1c127.87,0,223.64,15.9,325.12,32.8c103.77,17.2,211.15,35.1,356.01,35.1 c44.39,0,89.98-6.1,135.37-18.1c30.49-8.1,61.88-19,93.58-32.7v378.8H1170.01z M916.67,538.8c-0.3,0.3-0.5,0.8-0.6,1.2 c-3.7,13-10.6,16.7-16.1,16.5c-5.7-0.2-10.5-4.5-10.5-10.1c0-6.9,2.5-10,6.2-11.6c1.8-0.8,4.1-1.2,6.8-1.2c2.5,0.2,5.3,0.7,8.3,1.8 C912.67,536.2,914.77,537.6,916.67,538.8z M345.31,370.6c-1.4,1-3.3,1.8-5.6,2.1c-4.3,0.7-9.6,0.1-14.7-1c-5-1.2-9.8-3-13-4.7 c-1-0.6-1.4-1-2-1.4c4.5-0.4,9.1-0.6,13.7-0.3C331.02,365.6,338.42,367.3,345.31,370.6z"/>
</svg>