<svg viewBox="0 0 128 128" xmlns="http://www.w3.org/2000/svg">
  <g>
    <rect height="41.2" transform="matrix(0.9287 -0.3707 0.3707 0.9287 -6.4912 38.8441)" width="13" x="91.3" y="15.7"/>
    <rect height="41.2" transform="matrix(0.9287 -0.3707 0.3707 0.9287 -21.2849 15.6913)" width="13.2" x="23.6" y="42.6"/>
    <path d="M124.1,51.2l-3.1-7.7c-0.6,0.2-1.2,0.3-1.8,0.3c-2.2,0-4.4-1.3-5.2-3.5c-1.1-2.8,0.4-6,2.9-7.1l-3.1-7.7 c-0.6,0.2-1.2,0.3-1.8,0.3c-2.2,0-4.4-1.3-5.2-3.5c-1.1-2.8,0.4-6,2.9-7.1l-3.1-7.7c-0.6,0.2-1.2,0.3-1.8,0.3 c-2.2,0-4.4-1.2-5.3-3.4c-0.1-0.2-0.3-0.5-0.2-0.5L7.7,40.5c0,0,0.1,0.3,0.2,0.4C9,43.8,7.5,47,4.7,48.2c-0.2,0.1-0.7,0.3-0.8,0.3 L7,56.2c0,0,0.5-0.3,0.7-0.3c0.7-0.3,1.4-0.4,2.1-0.4c2.2,0,4.3,1.3,5.2,3.5c1,2.4,0,5.2-2.1,6.6l-3.6,0.7c0,0,0.1,0.3,0.1,0.5 c0.6,3-1.5,5.9-4.5,6.5c-0.2,0-0.7,0.1-0.8,0.1l1.6,8.2c0,0,0.6-0.2,0.8-0.2c0.4-0.1,0.7-0.1,1.1-0.1c2.6,0,4.9,1.8,5.5,4.5 c0.6,3-1.4,5.9-4.4,6.5c-0.2,0-0.6,0.1-0.8,0.1l1.6,8.2c0,0,0.6-0.2,0.8-0.2c0.4-0.1,0.7-0.1,1.1-0.1c2.6,0,5,1.8,5.5,4.4 c0.6,3-1.4,5.9-4.4,6.5c-0.2,0-0.6,0.1-0.8,0.1l1.6,8.2c0,0,0.6-0.2,0.8-0.2c0.4-0.1,0.7-0.1,1.1-0.1c2.6,0,5,1.8,5.5,4.5 c0,0.1,0.1,0.4,0.1,0.4l96.8-19.1c0,0,0-0.3,0-0.5c-0.6-2.9,1.6-5.8,4.3-6.5l-1.6-8.2c-0.3,0-0.5,0.1-0.8,0.1c-2.5,0-5-1.8-5.5-4.5 c-0.6-2.9,1.5-5.8,4.2-6.5l-1.6-8.2c-0.3,0-0.5,0.1-0.8,0.1c-2.5,0-5-1.8-5.5-4.5c-0.3-1.3,0-2.6,0.6-3.7l10.4-4.2 c0,0,0-0.3-0.1-0.5C120,55.5,121.5,52.3,124.1,51.2z M114,73.9l0.7,3.5c-2.8,1.9-4.4,5.3-3.7,8.8c0.7,3.4,3.4,6,6.8,6.7l0.7,3.5 c-2.1,1.4-3.6,3.7-3.9,6.2l-91.8,18.1c-1.4-2.5-4-4.3-7-4.4l-0.5-2.8c1.3-0.6,2.5-1.6,3.3-2.9c1.3-1.9,1.8-4.2,1.3-6.4 c-0.8-3.8-4-6.6-7.9-6.9l-0.6-2.8c1.3-0.6,2.5-1.6,3.4-2.9c1.3-1.9,1.8-4.2,1.3-6.4c-0.8-3.8-4-6.6-7.9-6.9l-0.5-2.8 c1.4-0.7,2.5-1.6,3.4-2.9c0.6-0.9,1.1-2,1.3-3.1l1.9,4.7c0,0,0.5-0.3,0.7-0.3c0.7-0.3,1.4-0.4,2.1-0.4c0.4,0,0.8,0.1,1.2,0.1 L17,73.9l2,10.3c0,0-0.5,0.2-0.6,0.2l1.4,3.5l5.2,26.4l12.9-2.5l-3.6-18.3l3.2-1.3l3.7,18.9L93,100.9l-5.6-28.6l3.2-1.3l5.8,29.3 l12.8-2.5L103,66.1l4.3-1.7c-0.3,0.9-0.3,1.9-0.1,2.8C107.9,70.6,110.6,73.2,114,73.9z M73.1,88.1c1.8-0.3,3.5,0.8,3.8,2.6 c0.3,1.8-0.8,3.5-2.6,3.8l-18.5,3.6c-1.8,0.3-3.5-0.8-3.8-2.6c-0.3-1.7,0.8-3.5,2.6-3.8L73.1,88.1z M61,82.8l20.4-8.2 c0.1,0.2,0.2,0.5,0.2,0.7c0.4,1.8-0.8,3.6-2.7,4L61,82.8z M117.7,56.9L30.8,91.6c-1.6-2-4-3.1-6.7-3.1c-0.3,0-0.7,0-1,0.1L22,85.9 c1.2-0.9,2.1-2.1,2.8-3.5c0.9-2.1,1-4.5,0.1-6.6c-1.3-3.2-4.4-5.3-8-5.3c-0.3,0-0.7,0-1,0.1l-1.1-2.7c1.2-0.9,2.1-2.1,2.8-3.5 c0.9-2.1,1-4.4,0.1-6.6c-1.3-3.2-4.4-5.4-8-5.4c-0.4,0-0.7,0-1,0.1l-1.1-2.6c1.2-0.9,2.2-2.1,2.8-3.5c0.6-1.3,0.8-2.7,0.7-4.1 l87-34.7c1.6,1.9,4,3.1,6.6,3.1L106,14c-2.4,2.3-3.3,6-2,9.3c1.2,3.1,4.4,5.3,7.9,5.3l1.3,3.4c-2.4,2.3-3.3,6-2,9.3 c1.2,3.1,4.4,5.3,7.9,5.3l1.3,3.3C118.6,51.8,117.6,54.4,117.7,56.9z"/>
    <path d="M31.8,40.4l15.3,38.3l49.1-19.6L81,20.8L31.8,40.4z M76.4,56.7l-17.5,7c-1.7,0.7-3.6-0.2-4.2-1.8 c-0.7-1.7,0.2-3.6,1.8-4.2l17.5-7c1.7-0.7,3.6,0.2,4.2,1.8C78.9,54.1,78.1,56,76.4,56.7z M78.1,40.8L47.9,52.9 c-1.7,0.7-3.7-0.2-4.4-1.9s0.1-3.7,1.9-4.4l30.2-12.1c1.7-0.7,3.7,0.1,4.4,1.9C80.7,38.2,79.8,40.2,78.1,40.8z"/>
  </g>
</svg>