<svg viewBox="0 0 128 128" xmlns="http://www.w3.org/2000/svg">
  <g>
    <path d="M41.1,37.7c6.5-7.7,9-15.8,5.7-19.2c-3.7-3.7-13.4-0.1-21.7,8c-1.4,0.9-2.8,2-4.1,3.3c0,0-7.6,7.1-17,15.9v4.1 c5.1-4.8,10.3-9.7,15.1-14.2c-0.3,2.8,1.6,4.7,3.7,6.9c2.6,2.6,4.9,4.8,8.9,3.2L4,75.9v4.4l32.3-35.1 C38.6,42.8,40.3,40.3,41.1,37.7z"/>
    <path d="M68.8,94.9c-0.5,0.5-1,0.9-1.4,1.3c-1.3,0.8-2.5,1.9-3.7,3l-27,23.8L76,77c2.6-2.6,4.4-5.4,5.1-8.2 c5.7-7.1,7.9-14.4,4.8-17.4c-3.3-3.3-11.4-0.5-18.9,6.1c0.1-0.1,0.3-0.3,0.4-0.4c-2,0.7-3.9,2-5.7,3.6l8.2-7.8 c1.8-1.8,3.3-3.8,4.2-5.7c8.4-8.4,12.1-18.3,8.3-22.1c-3.8-3.8-13.6-0.1-22,8.3c-2,0.9-4,2.4-5.8,4.2L4,81.2v4l50.9-44 c-0.8,3.3,1.2,5.5,3.5,7.8c2.2,2.2,4.3,4.2,7.3,3.6l-6,5.7c-0.4,0.3-0.8,0.7-1.1,1.1c-0.4,0.4-0.6,0.8-0.7,1.2L9.3,106.2 c-0.6,0.6-0.6,1.5-0.1,2.1c0.3,0.3,0.7,0.5,1.1,0.5c0.4,0,0.7-0.1,1-0.4l47.9-44.2c0.4,0.2,0.9,0.4,1.4,0.4c0,0,0,0,0,0 c-2.3,4.3-0.1,6.7,2.5,9.4c2.6,2.6,4.9,4.7,9,2.7l-37.8,44.3c-0.7,0.8-0.9,2-0.5,2.9h6.2l22.8-20.1c0,2.3,1.6,4.1,3.3,6.1 c2,2.3,3.9,4.2,6.8,4c-2.3,2.2-6,5.8-10.6,10h4.3c6.6-6.3,11-10.5,11-10.5c1.6-1.6,2.9-3.1,4-4.7c8.5-7.8,12.7-17.2,9.2-21.1 C87.6,83.8,77.6,87,68.8,94.9z"/>
    <path d="M105.3,4l-6.2,14.9c-1.2,3,0.2,6.3,3.1,7.5l6.4,2.6l-11,26.5l0,0c0,0-3.7,0.4-6.4,4.5c-5,7.3-1.2,12.2-4.7,15.9 c-2.4,2.5-6.3,4.3-6.3,4.3s11.2,5.5,19.8-4.6c9.2-10.8,3.5-17.6,3.5-17.6l-0.4-0.2l11-26.6l6.4,2.6c1.1,0.5,2.3,0.5,3.5,0.3V4 H105.3z"/>
  </g>
</svg>