<svg viewBox="0 0 128 128" xmlns="http://www.w3.org/2000/svg">
  <path d="M120.8,90.5L84.9,54.6l30.1-37c0.6,0.2,1.3,0.3,2,0.3c3.8,0,6.9-3.1,6.9-6.9s-3.1-6.9-6.9-6.9s-6.9,3.1-6.9,6.9 c0,0.7,0.1,1.4,0.3,2.1l-37,30L37.5,7.2l-1.8-1.8c-0.7-0.7-1.9-0.7-2.6,0l-0.4,0.4c-1.8,1.8-1.8,4.8,0,6.6l1.7,1.7 c-5.8,15.9-5.2,33.5,1.9,48.6l-4.2,12.9l-7.8,7.8c-0.8,0.8-0.9,2.2-0.1,3.1c-0.3,0.6-0.5,1.3-0.5,2v13.8l-18.1,12 c-1,0.7-1.6,1.6-1.6,2.5v7.2h19.8h19.8h19.8v-7.2c0-0.9-0.6-1.8-1.8-2.4l-16.9-11.2l7.5-7.5l12.9-4.2c15.1,7.1,32.7,7.8,48.6,1.9 l1.7,1.7c1.8,1.8,4.8,1.8,6.6,0l0.4-0.4c0.7-0.7,0.7-1.9,0-2.6L120.8,90.5z"/>
</svg>