<svg viewBox="0 0 128 128" xmlns="http://www.w3.org/2000/svg">
  <path d="M121.5,27.2c-0.4-0.4-0.5-0.5-0.7-1.1c-0.3-0.7-0.7-1.6-1.5-2.7c-1.2-1.5-3-2.4-5-3.4c-1.1-0.5-2.2-1.1-3.3-1.8 c-1.4-0.8-3.9-0.4-4.5,1.2c0.3,0.3-3.4-7-5.9-10.2c-3-4-7.8-5.2-10.1-5.2c-4.4,0-7.6,1.5-10.7,6.6c-0.3,0.5-3.6,7.5-8.1,17.1 c0,0,0,0-0.1,0c-2-0.9-4.8,0.8-6.1,3.8c-1.4,3-0.9,6.2,1.1,7.1c-0.6,1.2-1.1,2.4-1.7,3.6c-2-0.9-4.7,0.8-6.1,3.8 c-1.4,3-0.9,6.1,1,7.1c-0.6,1.2-1.1,2.4-1.7,3.6c-2-0.8-4.7,0.9-6,3.8c-1.3,2.9-0.9,6,1,7c-2.8,6-5.3,11.3-7.1,15.3 c-0.3,0.7-0.8,0.3-1.1-0.4c-2.5-5.7,2.2-17.1,3.7-21c1.1-2.9,5-7.2,5-9.3c0-7-11.1-8-25.4-8C5.7,44.1,4,47.9,4,51.9 c0,4.1,6.6,5.2,7.5,12.3c0.4,3-1.9,13-3,18.5c-4,19.3,2.8,35,16.3,39.6c13.8,4.7,29.8,0.4,37.1-16.5c5.1-11.7,19-63.5,21.5-70 c2.2-5.9,5.4-17.6,8.2-17.9c1.7-0.2,3.6,7,11.1,9.2h0.1c-0.1,0.4-0.1,0.9-0.1,1.3c0,0.4,0.2,0.9,0.4,1.3c0.4,0.8,1.2,1.4,2.1,1.6 c2,0.5,4,1,6,1.4c2,0.5,4,1,6,1.5l1.9,0.5c0.3,0.1,0.8,0.2,1.5,0.2c1.5,0,2.8-0.9,3.4-2.3C124.7,30,122.5,28.1,121.5,27.2z"/>
</svg>