<svg viewBox="0 0 128 128" xmlns="http://www.w3.org/2000/svg">
  <path d="M116,4H12c-4.4,0-8,3.6-8,8v104c0,4.4,3.6,8,8,8h104c4.4,0,8-3.6,8-8V12C124,7.6,120.4,4,116,4z M101.2,94.3 C92.4,105.1,79,112,64,112c-27.1,0-49-22.5-48-49.9C17,37.3,37.2,17,62,16c15.8-0.6,30,6.4,39.2,17.6c0.7,0.9-0.5,2.1-1.3,1.3 c-7.3-6.9-17.1-11.1-28-11.1c-22.4,0-40.6,18-40.6,40.2s18.2,40.2,40.6,40.2c10.9,0,20.7-4.2,28-11.1 C100.7,92.3,101.9,93.5,101.2,94.3z M111.5,61.6l-8.1,5.8c-0.5,0.3-0.7,0.9-0.5,1.4l3.2,9.5c0.4,1.2-1,2.2-2,1.4l-8-5.9 c-0.5-0.3-1.1-0.3-1.5,0l-8,5.9c-1,0.7-2.4-0.2-2-1.4l3.2-9.5c0.2-0.5,0-1.1-0.5-1.4L79,61.6c-1-0.7-0.5-2.3,0.8-2.3l10,0.1 c0.6,0,1.1-0.4,1.2-0.9l3-9.5c0.4-1.2,2.1-1.2,2.5,0l3,9.5c0.2,0.5,0.7,0.9,1.2,0.9l10-0.1C112,59.2,112.5,60.8,111.5,61.6z"/>
</svg>