<svg viewBox="0 0 128 128" xmlns="http://www.w3.org/2000/svg">
  <g>
    <path d="M106.2,99.6c-3.3-0.3-6.5-0.7-9.6-1.2C95.6,92.6,82.2,74,62,65.9c-8.2-3.6-15.4-5-22.5-6.1c-12.3-1.6-25.2-4.3-25.3-4.4 c0.6-1.1-16.7,25.8,15.3,48.8c9.3,6.1,20,9,29.5,9.5c20.2,1,33.3-8.2,36.2-11c3.4,0.1,6.8,0.1,10.3,0c0.5,0,1.4-0.1,2.3-0.3 c0.7-0.2,1.3-0.6,1.5-1.1C109.5,100.1,107.1,99.6,106.2,99.6z M60.9,68.7c19.2,8,30.2,25.7,30.9,30.4c-2.7-0.3-5.4-0.7-8.1-1.1 c-6.6-8.4-12.1-16.9-16.6-25.5c3.7,8.4,8.2,16.7,13.6,24.9C74,96,67.7,94.2,61.9,92c-4-8.7-7-17.4-9-26c1.7,8.4,4.1,16.8,7.4,25.3 c-6.2-2.4-12-5.2-17.1-8.3c-1.3-6.8-2-13.5-2.2-20.1C48.3,64.2,54.6,65.8,60.9,68.7z M91.3,100.8c-1.7,1.5-13.6,10.6-32.5,9.7 c-9.5-0.4-18.8-3.4-26.4-8.2c-9.6-6.2-14.5-13.8-16.8-20.5c-0.1,0-0.1,0-0.2,0c-1.3-3.9-1.8-7.5-1.8-10.4 c0.2-5.9,1.6-10.4,2.6-12.9c4.6,1.1,13.5,2.7,22.5,4.1c0.8,0.1,1.5,0.3,2.2,0.4c-0.1,6.3,0.2,12.8,1,19.3 C36.7,79.1,32,75.5,28,71.9c0.2-3.5,0.5-6.9,1-10.2c-0.6,3.2-1.1,6.5-1.5,9.8c-4.1-3.8-7.7-7.8-10.6-11.8 c2.8,4.1,6.2,8.1,10.2,12.1C23,71.6,18.7,71,14.4,70c4.4,1.1,8.8,1.8,13.1,2.2c4,3.8,8.7,7.5,13.9,10.9c-7.8,0.8-16,0.4-24.4-1 c8.8,1.8,17.6,2.3,25.8,1.7c5,3.2,10.7,6.1,16.8,8.7c-11.1,2.8-23.4,3.7-36.1,2.3c13.2,1.8,26,1.1,37.8-1.6 c5.8,2.3,12.1,4.2,18.8,5.7c-11.5,4.6-24.3,7.4-37.8,7.8c14.5,0,28.3-2.5,40.9-7.2c2.7,0.5,5.5,0.9,8.3,1.2 C91.4,100.7,91.4,100.8,91.3,100.8z M91.7,100.5c0.1-0.3,0.1-0.6,0.2-0.9c0.1,0.2,0.2,0.4,0.3,0.5C92,100.2,91.8,100.3,91.7,100.5z "/>
    <path d="M15.6,81.8C15.6,81.8,15.6,81.8,15.6,81.8c0.5,0.1,0.9,0.2,1.4,0.3C16.5,82,16.1,81.9,15.6,81.8z"/>
    <path d="M121.8,55c-0.1-0.7-0.1-1.3-0.2-2c-0.1-0.4-0.1-0.7-0.2-1.1c-0.1-0.4-0.1-0.8-0.2-1L121,50l-0.1-0.4l-0.1-0.3v-0.1 c0,0.1-0.1-0.2-0.1-0.2c-0.9-2.8-2.3-5.5-4.2-8.1c-1.9-2.5-4.3-4.8-7.1-6.7c-2.7-1.9-5.8-3.4-9.2-4.4c-0.3-0.6-0.6-1.3-1-1.9 c-0.3-0.5-0.6-1-1-1.5c-0.2-0.2-0.4-0.5-0.5-0.7L97,24.6l-0.1-0.1l-0.2-0.3l-0.1-0.1l-0.2-0.3c-0.3-0.4-0.7-0.8-1-1.1 c-2.8-2.9-6.1-5.1-9.4-6.7c-6.7-3.3-13.5-4.2-19.8-4.1c-0.8,0-1.6,0-2.3,0.1c-0.8,0.1-1.5,0.1-2.3,0.2c-0.8,0.1-1.5,0.1-2.2,0.3 c-0.7,0.1-1.5,0.2-2.2,0.4c-1.4,0.3-2.8,0.7-4.2,1c-1.3,0.4-2.7,0.8-3.9,1.3c-2.5,1-4.8,2-6.9,3.2c-2.1,1.2-4,2.5-5.7,3.7 c-3.5,2.5-6,5.2-7.9,7.5c-0.5,0.6-0.9,1.1-1.3,1.6c-0.4,0.5-0.8,1.1-1.1,1.6c-0.7,1-1.2,1.8-1.6,2.5c-0.8,1.4-1.2,2.1-1.2,2.1 l0.6,0.5c0,0,0.5-0.7,1.5-1.9c0.5-0.6,1.1-1.3,1.9-2.1c0.4-0.4,0.8-0.9,1.2-1.3c0.5-0.4,1-0.9,1.5-1.4c2.1-1.9,4.8-4.2,8.2-6.2 c3.4-2,7.5-4,12.2-5.3c4.7-1.4,10-2.2,15.6-2c5.6,0.2,11.5,1.4,16.9,4.2c2.7,1.4,5.2,3.2,7.3,5.5c0.3,0.3,0.6,0.7,0.9,1h-0.8h-0.1 h-0.1c0,0-0.1,0-0.3,0l-1.1,0.1c-3.9,0.5-7.9,1.8-11.7,4.5c-0.9,0.7-1.8,1.5-2.6,2.4c-0.4,0.4-0.9,1-1.3,1.6L73,37.3l-0.3,0.5 l-0.1,0.1l-0.2,0.3l-0.1,0.1c-1.4,2.4-2,5.1-2.1,7.7c0,2.6,0.4,5.3,1.7,7.8c0.6,1.3,1.5,2.5,2.6,3.7c0.3,0.3,0.6,0.5,0.8,0.8 c0.3,0.3,0.8,0.6,1.2,0.9L77,60l0.3,0.2l0.5,0.3c-0.1,0,0.5,0.3,0.6,0.3l0,0l0.3,0.1l0.6,0.2c0.4,0.1,0.7,0.3,1.1,0.4 c0.8,0.2,1.5,0.4,2.3,0.5c1.5,0.2,3,0.1,4.4-0.1c2.8-0.5,5.2-1.6,7.2-3.1c0.5-0.3,1-0.8,1.5-1.2c0.5-0.4,0.9-0.8,1.4-1.4 c0.6-0.7,0.8-0.9,1-1.2l0.2-0.3l0.1-0.1l0.1-0.2l0.8-1.1c1.3-2.1,2.2-4.3,2.7-6.5c0.8-3.3,0.8-6.6,0.3-9.7c1.4,0.6,2.7,1.2,3.9,2 c4.7,2.9,8.2,7.2,10,11.6c0.9,2.3,1.4,4.5,1.6,6.7c0.2,2.2,0.1,4.3-0.2,6.3c-0.6,3.9-2,7.1-3.4,9.6c-1.5,2.4-3,4.1-4.1,5.2 c-0.5,0.5-1,0.9-1.3,1.1l-0.5,0.4l0.5,0.6c0,0,0.2-0.1,0.5-0.3c0.3-0.2,0.9-0.5,1.6-1c1.3-1,3.2-2.4,5.1-4.9 c1.9-2.4,3.9-5.8,4.9-10.1c0.6-2.2,0.9-4.5,0.9-7.1C121.9,56.3,121.9,55.6,121.8,55z M95,44.9c-0.8,3-2.5,5.9-5,7.7 c-1.2,0.9-2.7,1.6-4.2,1.9c-0.8,0.1-1.5,0.2-2.2,0.1c-0.7-0.1-1.5-0.3-2.1-0.6c-2.8-1.3-4.2-4.5-4.1-7.5c0-1.5,0.4-3,1.1-4.3 c0.2-0.3,0.4-0.7,0.6-1c0.2-0.3,0.4-0.6,0.7-0.9c0.5-0.6,1.1-1.1,1.6-1.6c2.4-1.9,5.3-3,8.3-3.4c1.6-0.2,3.3-0.3,4.9-0.2 c0.1,0.2,0.1,0.3,0.2,0.5C95.5,38.6,95.7,41.9,95,44.9z"/>
  </g>
</svg>