<svg viewBox="0 0 128 128" xmlns="http://www.w3.org/2000/svg">
  <g>
    <ellipse cx="47.56" cy="58.81" fill="#231F20" rx="4.93" ry="5.1"/>
    <ellipse cx="80.44" cy="58.81" fill="#231F20" rx="4.93" ry="5.1"/>
    <path d="M53.11,51.75c0.86,0.29,1.64-0.03,1.9-0.39c0.28-0.38,0.39-1-0.02-1.55c-0.93-1.23-3.07-3.01-7.23-3.01 s-6.31,1.79-7.23,3.01c-0.41,0.54-0.31,1.17-0.02,1.55c0.26,0.35,1.04,0.68,1.9,0.39c0.86-0.29,2.54-1.16,5.35-1.18 C50.57,50.59,52.25,51.46,53.11,51.75z" fill="#231F20"/>
    <path d="M80.25,46.8c-4.16,0-6.31,1.79-7.23,3.01c-0.41,0.54-0.31,1.17-0.02,1.55c0.26,0.35,1.04,0.68,1.9,0.39 c0.86-0.29,2.54-1.16,5.35-1.18c2.81,0.02,4.49,0.89,5.35,1.18c0.86,0.29,1.64-0.03,1.9-0.39c0.28-0.38,0.39-1-0.02-1.55 C86.55,48.59,84.41,46.8,80.25,46.8z" fill="#231F20"/>
    <path d="M64,72.38c2.84,0,4.25-1.99,4.55-2.69c0.3-0.71-0.05-1.37-0.69-1.63c-0.11-0.04-0.21-0.07-0.32-0.08h-7.07 c-0.11,0.01-0.22,0.04-0.32,0.08c-0.64,0.26-0.99,0.92-0.69,1.63C59.75,70.39,61.16,72.38,64,72.38z" fill="#231F20"/>
    <path d="M72.42,76.14c-3.19,1.89-13.63,1.89-16.81,0c-1.83-1.09-3.7,0.58-2.94,2.24 c0.75,1.63,6.45,5.42,11.37,5.42s10.55-3.79,11.3-5.42C76.09,76.72,74.25,75.05,72.42,76.14z" fill="#231F20"/>
    <path d="M78.69,95.63c8.11-0.82,11.59-2.84,15.8-7.51c0.39-0.44,0.65-0.63,0.83-0.64 c1.58-0.04,3.76-0.47,5.7-1.43c1.5-0.74,2.83-3.48,2.83-3.48s-3.79-0.25-4.83-2.57v0c-1.04-2.01-0.2-4.01,3.07-7.39 c4.05-4.18,9.28-14.94,3.97-25.89c0,0,0-0.02,0.01-0.05c0.05-0.23,0.27-1.14,0.35-1.46c2.24-8.93-0.56-17.42-2.32-20.09 c-2.44-3.7-7.91-8.64-12.82-8.97c-0.79-4.72-5.84-8.72-10.73-10.27C67.32,1.68,58.71,6.38,54.08,8.91 c-0.96,0.53-1.82,0.93-2.36,1.18c-4.51,2.1-8.2,0.54-9.39-1.77c-1.37-2.67-0.69-4.38-0.69-4.38s-8.12,2.25-6.56,12.69 c-2.93,0.12-7.56,1.69-9.6,5.8c-2.42,4.9-1.56,8.99-0.86,10.95c-2.52,2.14-5.54,6.64-3.52,12.6c0.08,0.22,0.17,0.45,0.27,0.68 c0.02,0.06,0.04,0.11,0.07,0.17c-4.35,10.69-0.38,20.95,3.93,25.49c2.71,2.86,3.8,5.12,2.33,7.46c-1.06,1.69-3.37,2.78-3.37,2.78 s0.75,2.09,2.83,3.48c1.81,1.2,4.13,1.39,5.7,1.43c0.18,0,0.44,0.2,0.83,0.64c4.15,4.6,7.58,6.64,15.42,7.48 c-19.72,2.47-36.26,10.09-36.26,24.37V124h102.27v-4.04C115.13,106.42,98.56,98.26,78.69,95.63z M54.92,94.96v0.02 c-0.34-0.1-0.71-0.23-1.1-0.37C54.18,94.73,54.55,94.85,54.92,94.96C54.92,94.96,54.92,94.96,54.92,94.96z M71.08,95.48v4.58 c0,3.4-2.81,6.17-6.26,6.17h-1.65c-3.45,0-6.26-2.77-6.26-6.17v-4.58c2.32,0.52,4.7,0.79,7.08,0.79 C66.38,96.27,68.76,96,71.08,95.48C71.08,95.48,71.08,95.48,71.08,95.48z M100.27,55.61c-0.13,1.14-0.36,2.27-0.64,3.37 c0.27,0.91,0.42,1.87,0.42,2.87c0,3.37-1.65,6.32-4.12,7.98c0.25-0.98,0.47-1.99,0.67-3.02c-0.27,0.58-0.44,0.96-0.43,1.07 c-0.26-2.21-0.49-5-0.76-7.89c-0.62,10.27-3.95,18.87-9.76,25c-5.67,5.99-13.36,9.29-21.65,9.29c-8.29,0-15.98-3.3-21.65-9.29 c-5.01-5.29-8.17-12.41-9.35-20.85c-0.55,2.53-0.95,4.31-0.95,4.31s-0.25-0.5-0.61-1.49c0.19,0.98,0.4,1.94,0.64,2.88 c-2.47-1.66-4.12-4.61-4.12-7.98c0-1.67,0.41-3.24,1.12-4.6c-0.1-0.67-0.2-1.35-0.29-2.08c0,0-0.16-0.16-0.43-0.46 c-1.49,1.96-2.4,4.44-2.4,7.14c0,4.84,2.88,9,6.89,10.64c3.13,9.61,9.08,16.3,16.19,20.08c0,0,0,0,0,0 c-0.01,0-0.02-0.01-0.02-0.01c-7.12-0.82-9.69-2.68-13.09-6.45c-0.43-0.48-1.43-1.59-2.99-1.63c-0.76-0.02-2.86,0.73-4.86-0.81 c0,0,7.46-4.33-0.04-12.33c-3.61-3.85-7.33-13.23-4.17-22.32l0.88-2.25l-0.32-0.63c-0.21-0.42-0.36-0.77-0.48-1.11 c-2.13-6.26,3.11-9.73,3.33-9.88l1.18-0.76l-0.68-1.23c-0.09-0.17-2.21-4.12,0.4-9.38c2.33-4.71,9.91-3.57,9.91-3.57 s-1.72-7,1.5-11c0.55,1.01,3.12,7.75,13.14,3.73c0.78-0.31,1.68-0.76,2.8-1.38c4.53-2.47,12.22-6.93,24.12-2.81 c8.1,2.81,8.65,10.76,8.65,10.76s7.5-1.2,13.31,7.27c1.25,1.82,3.98,9.5,1.92,17.71c-0.11,0.45-0.26,0.94-0.46,1.5l-0.22,0.62 l0.04,0.08l0.6,1.04c-0.01,0.03-0.02,0.06-0.03,0.08c4.86,10.18-0.91,20.06-3.5,22.73c-2.96,3.05-5.7,6.73-3.58,10.85v0 c0.55,1.07,1.27,1.93,2.13,2.56c-1.18,0.42-2.47,0.52-3.24,0.54c-1.56,0.04-2.56,1.15-2.99,1.63c-3.4,3.77-5.97,5.63-13.09,6.45 c0,0-0.32,0.13-0.83,0.32c7.38-3.72,13.58-10.5,16.8-20.39c4.02-1.65,6.89-5.8,6.89-10.64C102.04,59.54,101.38,57.4,100.27,55.61 z" fill="#231F20"/>
  </g>
</svg>