<svg viewBox="0 0 128 128" xmlns="http://www.w3.org/2000/svg">
  <g>
    <path d="M54.7,48.2c-0.1-0.1-0.2-0.2-0.3-0.3c-0.1-0.1-0.2-0.2-0.3-0.3c-0.1-0.1-0.3-0.2-0.4-0.4s-0.3-0.2-0.5-0.3 c-0.2-0.1-0.3-0.2-0.5-0.4c-0.2-0.1-0.4-0.2-0.6-0.3c-0.2-0.1-0.4-0.2-0.7-0.3c-0.2-0.1-0.5-0.2-0.7-0.3c-0.5-0.1-1-0.3-1.5-0.4 c-0.5-0.1-1.1-0.1-1.6-0.1c-0.5,0-1.1,0-1.6,0.1c-0.5,0.1-1,0.2-1.5,0.4c-0.2,0.1-0.5,0.2-0.7,0.3c-0.2,0.1-0.4,0.2-0.7,0.3 c-0.2,0.1-0.4,0.2-0.6,0.3c-0.2,0.1-0.4,0.2-0.5,0.4c-0.2,0.1-0.3,0.2-0.5,0.3c-0.2,0.1-0.3,0.3-0.4,0.4c-0.1,0.1-0.3,0.2-0.4,0.3 c-0.1,0.1-0.2,0.2-0.2,0.3c-0.2,0.3-0.4,0.5-0.4,0.5c-0.3,0.4-0.4,1-0.1,1.5c0.3,0.8,1.3,1.2,2.1,0.9c0,0,0.2-0.1,0.6-0.3 c0.1,0,0.2-0.1,0.3-0.1c0.1,0,0.2-0.1,0.3-0.1c0.1,0,0.2-0.1,0.3-0.1c0.1,0,0.2-0.1,0.4-0.1s0.3-0.1,0.4-0.1c0.1,0,0.3-0.1,0.4-0.1 c0.1,0,0.2,0,0.2-0.1c0.1,0,0.2,0,0.2,0c0.2,0,0.3-0.1,0.5-0.1c0.3,0,0.7-0.1,1-0.1c0.3,0,0.7,0,1,0c0.3,0,0.7,0,1,0 c0.3,0,0.7,0.1,1,0.1c0.2,0,0.3,0.1,0.5,0.1c0.1,0,0.2,0,0.2,0c0.1,0,0.1,0,0.2,0.1c0.2,0,0.3,0.1,0.4,0.1c0.1,0,0.3,0.1,0.4,0.1 c0.3,0.1,0.5,0.2,0.7,0.2c0.1,0,0.2,0.1,0.3,0.1c0.1,0,0.2,0.1,0.2,0.1c0.3,0.1,0.5,0.2,0.5,0.2l0.3,0.1c0.5,0.2,1,0.1,1.4-0.2 c0.7-0.5,0.9-1.5,0.4-2.2C55.1,48.8,55,48.5,54.7,48.2z"/>
    <ellipse cx="47.6" cy="58.8" rx="4.9" ry="5.1"/>
    <path d="M87.7,48.2c-0.1-0.1-0.1-0.2-0.2-0.3c-0.1-0.1-0.2-0.2-0.4-0.3c-0.1-0.1-0.3-0.2-0.4-0.4c-0.2-0.1-0.3-0.2-0.5-0.4 c-0.2-0.1-0.3-0.2-0.5-0.3c-0.2-0.1-0.4-0.2-0.6-0.3c-0.2-0.1-0.4-0.2-0.7-0.3c-0.2-0.1-0.5-0.2-0.7-0.3c-0.5-0.1-1-0.3-1.5-0.4 c-0.5-0.1-1.1-0.1-1.6-0.1c-0.5,0-1.1,0-1.6,0.1c-0.5,0.1-1,0.2-1.5,0.4c-0.2,0.1-0.5,0.2-0.7,0.3c-0.2,0.1-0.5,0.2-0.7,0.3 c-0.2,0.1-0.4,0.2-0.6,0.3c-0.2,0.1-0.4,0.2-0.5,0.3c-0.2,0.1-0.3,0.2-0.5,0.3c-0.1,0.1-0.3,0.2-0.4,0.3s-0.2,0.2-0.3,0.3 c-0.1,0.1-0.2,0.2-0.3,0.3c-0.3,0.3-0.5,0.6-0.5,0.6c-0.3,0.4-0.4,0.9-0.2,1.4c0.3,0.8,1.2,1.3,2,1l0.3-0.1c0,0,0.2-0.1,0.5-0.2 c0.1,0,0.2-0.1,0.2-0.1c0.1,0,0.2-0.1,0.3-0.1c0.2-0.1,0.4-0.2,0.7-0.2c0.1,0,0.3-0.1,0.4-0.1c0.1,0,0.3-0.1,0.4-0.1 c0.1,0,0.2,0,0.2-0.1c0.1,0,0.2,0,0.2,0c0.2,0,0.3-0.1,0.5-0.1c0.3,0,0.7-0.1,1-0.1c0.3,0,0.7,0,1,0c0.3,0,0.7,0,1,0 c0.3,0,0.7,0.1,1,0.1c0.2,0,0.3,0.1,0.5,0.1c0.1,0,0.2,0,0.2,0c0.1,0,0.1,0,0.2,0.1c0.2,0,0.3,0.1,0.4,0.1c0.1,0,0.3,0.1,0.4,0.1 c0.1,0,0.2,0.1,0.4,0.1c0.1,0,0.2,0.1,0.3,0.1c0.1,0,0.2,0.1,0.3,0.1c0.1,0,0.2,0.1,0.3,0.1c0.4,0.2,0.6,0.3,0.6,0.3 c0.5,0.2,1.1,0.2,1.6-0.1c0.7-0.5,0.9-1.5,0.4-2.2C88,48.8,87.9,48.6,87.7,48.2z"/>
    <ellipse cx="80.4" cy="58.8" rx="4.9" ry="5.1"/>
    <path d="M67.9,68.1c-0.1,0-0.2-0.1-0.3-0.1h-7.1c-0.1,0-0.2,0-0.3,0.1c-0.6,0.3-1,0.9-0.7,1.6c0.3,0.7,1.7,2.7,4.5,2.7 s4.2-2,4.5-2.7C68.9,69,68.5,68.3,67.9,68.1z"/>
    <path d="M123.9,55.6c-0.2-1.6-2.3-3-3.9-3c-0.6,0-1.1,0.2-1.5,0.6c-1.5,1.8-4.4,5.7-7,7.9c-2.2,1.9-7.8,5.6-12.9,8.9 c2.1-2.1,3.3-5,3.3-8.2c0-2.3-0.7-4.5-1.8-6.3C101.1,49.8,106.6,4.3,64,4h0c0,0,0,0,0,0C21.4,4.3,26.9,49.8,27.8,55.6 c-1.1,1.8-1.8,3.9-1.8,6.3c0,3.1,1.2,5.8,3,7.9c-4.9-3.2-10.2-6.8-12.3-8.6c-2.6-2.2-5.5-6-7-7.9c-0.4-0.4-0.9-0.6-1.5-0.6 c-1.6,0-3.7,1.4-3.9,3c-0.1,1.2,0.1,2.8,1.1,4.6c0,0,2.1,5,5.3,10.3c-1.1,0.2-2,0.9-2.4,1.9l-0.1,0.2C7.5,74.3,8.3,76.3,10,77 l9.3,4c0.3,0.2,0.6,0.5,0.9,0.7l7.6,3.3l-0.2,0.3c-0.5,0.8-0.2,1.9,0.6,2.4l13.7,9l-16.1,7.6c-7.5,4-12.5,11.4-13.5,19.7h103.5 c-1-8.3-6-15.7-13.5-19.7l-16.1-7.6l13.7-9c0.8-0.5,1.1-1.6,0.6-2.4l-0.1-0.2l7.7-3.4c0.3-0.2,0.6-0.4,0.9-0.7l9.2-3.9 c1.7-0.7,2.4-2.6,1.7-4.3l-0.1-0.2c-0.4-1-1.4-1.7-2.4-1.9c3.2-5.3,5.3-10.3,5.3-10.3C123.8,58.4,124,56.9,123.9,55.6z M97.3,61.1 c0.7-1.1,1.3-2.3,1.8-3.2c0.5,1.2,0.8,2.6,0.8,4c0,3.4-1.6,6.3-4.1,8C96.6,67.1,97.1,64.2,97.3,61.1z M28,61.8c0-1.4,0.3-2.8,0.8-4 c0.5,0.9,1.2,2.1,1.9,3.2c0.2,3.1,0.7,6,1.4,8.7C29.6,68.2,28,65.2,28,61.8z M10.8,75.1c-0.3-0.1-0.5-0.4-0.7-0.7s-0.1-0.7,0-1 l0.1-0.2c0.2-0.5,0.7-0.8,1.2-0.8c0.2,0,0.3,0,0.5,0.1l0.3,0.1c1,1.5,2.1,3,3.2,4.4L10.8,75.1z M28.7,83.2l-7.6-3.3 C13.8,74.7,7.3,59.6,7.3,59.4c0-0.1-0.1-0.2-0.1-0.2c-0.7-1.2-1-2.4-0.9-3.4c0.1-0.4,1.1-1.2,1.9-1.2h0c0.2,0.3,0.5,0.6,0.7,0.9 c1.6,2.1,4.1,5.1,6.4,7.1c3.1,2.6,12.3,8.7,18,12.3L28.7,83.2z M92.4,72.9c-0.2,0-0.5,0-0.8,0.2L70.3,83.2C70.3,79.9,67.5,78,64,78 c-3.5,0-6.3,2-6.3,5.2L36.4,73.1c-0.2-0.1-0.5-0.2-0.8-0.2c-0.2,0-0.3,0-0.5,0.1c-1-2.9-1.7-5.9-2.2-9.2c0.1-7.4,2.8-19.2,4.8-24.3 c1-2.8,3.9-4.4,6.8-3.8c4.5,0.8,11.5,1.8,19.4,1.8H64h0.1c7.8,0,14.9-1,19.4-1.8c2.9-0.5,5.8,1.1,6.8,3.8c2,5.2,4.7,17,4.8,24.4 c-0.4,3.2-1.2,6.3-2.2,9.1C92.7,72.9,92.6,72.9,92.4,72.9z M118,73.3l0.1,0.2c0.3,0.6,0,1.4-0.7,1.7l-4.6,2 c1.1-1.4,2.2-2.9,3.2-4.4l0.3-0.1c0.2-0.1,0.3-0.1,0.5-0.1C117.3,72.5,117.8,72.8,118,73.3z M121,59.2c0,0.1-0.1,0.1-0.1,0.2 c-0.1,0.2-6.5,15.3-13.8,20.4l-7.7,3.4L94.7,75c5.7-3.6,15.1-9.8,18.2-12.4c2.3-2,4.8-5.1,6.4-7.1c0.3-0.3,0.5-0.6,0.7-0.9 c0,0,0,0,0,0c0.8,0,1.8,0.8,1.9,1.2C122,56.9,121.7,58,121,59.2z"/>
  </g>
</svg>