<svg viewBox="0 0 128 128" xmlns="http://www.w3.org/2000/svg">
  <g>
    <path d="M123.2,4c-1,1.6-2,3.3-3.1,4.9c-1.8,2.6-3.7,5.1-5.7,7.6c-4,4.9-8.2,9.6-12.8,14c-2.9,2.8-5.9,5.5-8.9,8.1 c-0.5,0-0.9,0-1.2,0c-0.1,0-0.5-0.1-1-0.2c-1.7-0.3-6.2-1-7-1.3C83.2,36.9,82.2,36,81,35c0.3-0.7,0.4-1.1,0.4-1.1s-4.1-3.7-8.5-4.3 c-1-0.1-1.8-0.2-2.6-0.3c0.2-0.7,0.4-1.3,0.6-1.8c0.4,0.1,0.9,0.2,1.3,0.2c0,0,0.1,0,0.1,0c3-0.1,3.2-2.2,3.2-2.2s-1.2-0.1-0.9-1.5 c0.1-0.5,0.4-0.8,1.2-1.6c2.2-2.1,1.6-4,1.2-4.8c0,0,1.7-2.2,0.6-5c-1.1-3-3.8-3.7-4.6-3.8c-0.3-0.9-1.9-3.9-6.4-3.9 c-0.8,0-1.7,0.1-2.7,0.3c-1.6,0.4-2.8,1.2-3.8,1.9c-0.4,0.3-0.9,0.6-1.2,0.8c-0.2,0.1-0.6,0.3-1,0.3c-0.1,0-0.3,0-0.4-0.1 c-0.5-0.2-0.6-0.9-0.7-1.4l-0.1-0.6l-0.5,0.3c-1.7,1-2.2,2.5-1.5,4.4c-1.3,0.6-1.8,2.1-2,3.4c-0.2,1.8,0.7,3.5,2.5,4.2 c0,0.7,0.2,1.4,0.3,1.9c0,0.1,0.3,1.1,0.4,1.4c0.2,1.1-2,2.4-2.2,3.7c-0.1,1,1.9,1.5,2.1,1.7c0.4,0.4,0.3,1.6,0.8,2.8c0,0,0,0,0,0 c-0.4,0.1-0.8,0.2-1.3,0.3c-3.7,0.8-9.5,2.6-9.5,2.6c-0.1,0.7-0.1,1.5-0.1,2.2c-2.6,1.8-5.7,3.9-5.9,4.1c-0.1,0-1.8,1.2-2.9,3.7 c-0.4,1-0.9,2.2-1.3,3.4c-1,2.6-2,5.2-2.4,6c-0.5,1-1.1,1.8-1.7,2.7c-0.6,0.8-1.2,1.7-1.7,2.6c-1,1.8-0.9,3.3-0.9,3.6 c0,0.2-0.1,1-0.1,1.5c0.1,1,0.8,1.5,1.1,1.7c0.2,0.4,0.4,0.7,0.8,0.8c0.2,0.1,0.3,0.1,0.5,0.1c0.2,0,0.5-0.1,0.8-0.2 c0.6-0.3,0.8-1.2,1.1-2.2c0.2-0.6,0.4-1.3,0.6-1.7l0.1-0.1c0.5-0.7,1.1-1.4,2-2.4c0,0.2,0,0.4-0.1,0.5c-0.1,0.4-0.1,0.9-0.1,1.3 c0,0.4,0.3,0.8,0.7,1c0.3,0.2,0.6,0.3,0.9,0.2c0.6-0.2,1.6-2.6,1.5-3.9c0-0.4-0.1-0.9-0.2-1.2c-0.1-0.7-0.2-1.5-0.1-1.8 c0.3-0.6,1.3-2.3,2.4-4.1c1.2-1.9,2.4-3.8,3-5l6.2-2.6l3.2-0.8c0.3,3.8-1.4,10-2.5,13.3c0,0,0.1,0.1,0.3,0.2 c-0.2,1-0.3,2.2-0.3,3.4c0,0.8,0.1,1.6,0.2,2.5c0.1,0.8,0.4,2.2,0.8,3.8c-4.6,2.2-9.2,4.4-13.9,6.3C26.9,76,15.5,79.7,4,82.8v0.1 V124h120V4H123.2z M43.4,44.5c-0.1,0-0.2,0.1-0.2,0.2c-0.5,1.1-1.9,3.2-3,5.1c-1.2,1.9-2.2,3.6-2.5,4.3c-0.2,0.6-0.1,1.4,0,2.3 c0.1,0.4,0.1,0.8,0.2,1.2c0.1,1-0.6,2.4-0.9,2.8c-0.1-0.1-0.3-0.2-0.3-0.3c0-0.3,0-0.7,0.1-1c0.1-0.7,0.2-1.4-0.1-1.9 c-0.1-0.1-0.2-0.2-0.3-0.2c-0.1,0-0.3,0-0.4,0.1c-1.4,1.3-2.1,2.3-2.8,3.1L33,60.4c-0.3,0.5-0.5,1.2-0.8,2 c-0.2,0.6-0.4,1.5-0.6,1.6c-0.2,0.1-0.4,0.1-0.5,0.1c0,0-0.1,0-0.1-0.1c0-0.6,0.1-3.4,1.9-5.7c0.1-0.2,0.1-0.4-0.1-0.5 c-0.2-0.1-0.4-0.1-0.5,0.1c-1.5,2-1.9,4.1-2,5.4c-0.2-0.1-0.4-0.4-0.5-0.9c0-0.2,0-0.5,0-0.8c0,0,0,0,0,0c0,0,0.4-2.5,1.7-3.7 c0.1-0.1,0.2-0.4,0-0.5c-0.1-0.1-0.3-0.1-0.5,0c0.4-0.6,0.8-1.3,1.3-1.9c0.6-0.9,1.3-1.8,1.8-2.8c0.4-0.8,1.4-3.5,2.4-6 c0.5-1.2,0.9-2.4,1.3-3.4c0.9-2.2,2.5-3.2,2.5-3.3c0,0,3-2.1,5.6-3.8c0.6,2.7,2.3,4.9,3.2,6.1L43.4,44.5z M55.8,97.9 c-0.1-0.2-0.4-0.4-0.6-0.3c-0.2,0.1-0.4,0.4-0.3,0.6c0,0,0,0.1,0,0.1c0.1,0.3,0.1,0.7,0,1c-0.1,0.1-0.1,0.2-0.3,0.2 c-0.1,0-0.1,0-0.1,0c-0.1-0.1-0.3-0.4-0.4-0.7c0-0.4-0.1-0.7-0.2-0.7c-0.1-0.2-0.3-0.4-0.6-0.3c-0.2,0.1-0.4,0.3-0.4,0.5 c0,0.1,0.1,0.4,0.2,0.7c0,0.2,0,0.4-0.1,0.6c0,0-0.1,0.1-0.1,0.1c-0.1-0.1-0.3-0.6-0.5-1c0-0.1-0.1-0.2-0.1-0.3c0,0,0,0,0-0.1 c-0.1-0.3-0.3-0.4-0.6-0.3c-0.3,0.1-0.4,0.3-0.4,0.6c0,0,0,0,0,0c0,0.1,0.1,0.3,0.2,0.5c0,0.2,0.1,0.4,0,0.5c0,0,0,0.1-0.3,0.1 c-0.1,0-0.2-0.2-0.2-0.5c0-0.1,0-0.3-0.1-0.4c-0.1-0.2-0.3-0.4-0.5-0.4c-0.3,0-0.4,0.3-0.4,0.5c0,0.1,0,0.2,0,0.4 c0,0.2,0,0.4-0.1,0.4c-0.1,0-0.3,0.1-0.5-0.4c-0.1-0.4-0.5-5-0.5-7.5c0-0.8,0.3-1.9,0.6-2.7c0,0,0,0,0.1-0.1c1.2-2.2,1.6-4.1,2-5.9 c0.5-2.2,1-4.5,3.1-7.6c0.1-0.1,0.1-0.2,0.1-0.3l-0.3-2c1.9-0.1,6.3-0.6,9.7-2.3l0.1,1.6c0.2,2.4,0,4.2-1.9,6.6 c-0.3,0.3-7.1,7.8-7.4,10.9c0,0,0,0,0,0c-0.3,1.2,0.1,2.5,0.6,4c0.2,0.6,0.4,1.3,0.6,2c0.2,0.6,0.4,1.2,0.6,1.7 c0.2,0.5,0.4,0.9,0.4,1.1c0,0.2-0.3,0.5-0.6,0.6c-0.2,0.1-0.3,0-0.4-0.1c-0.1-0.1-0.4-0.9-0.6-1.5C55.9,97.9,55.8,97.9,55.8,97.9z M72.5,75c-0.3,0.8-0.3,1.6-0.1,2.3c-3.7,1.8-7.6,3.7-11.5,5.6c1-1.2,1.9-2.3,2.6-3c1.1-1.4,1.6-2.6,1.9-3.8 c2.7-1.2,5.5-2.3,8.1-3.3L72.5,75z M74.1,70.9c-2.7,1-5.7,2.2-8.6,3.3c0-0.5,0-1,0-1.5c0.1,0,0.2,0,0.4,0c1.1-0.2,2.2-0.5,3.1-1.1 c2-1.2,2.8-2.3,4-4.3c0.4-0.7,1.2-2.1,2.1-3.2l1.5,0.5L74.1,70.9z M56.7,94c0-0.1,0-0.1-0.1-0.2c-0.6-1.9-1-3.1-0.2-4.4 c0.1-0.1,0.1-0.3,0-0.4c0.3-0.6,0.6-1.2,1.1-1.9c5.5-2.8,11-5.7,16.1-8.4c0,0,0.1,0,0.1,0c1.5,0.3,2.9,0.4,4.2,0.5 c0.8,0.1,1.6,0.2,2.3,0.3C73,84.1,64.7,89.2,56.7,94z M84.5,77.1c-0.1-0.1-0.2-0.2-0.3-0.3c0-0.1,0-0.2,0-0.3 c0-0.3-0.3-0.7-2.9-1.7c8.1-4.2,14.7-7.6,17.9-9.4c1,0.2,1.7,0.7,2,1.4C98.6,68.5,92.4,72.3,84.5,77.1z M79,74 c-0.1,0-0.2-0.1-0.4-0.1c0.6-1.1,1.6-2.4,2.6-3.8c0.1-0.2,0.3-0.4,0.4-0.6c3.2-1.2,5.7-2.2,7.1-2.6c3.5-1,5.1-1.5,6.8-1.6 c0.4,0,0.8,0,1.2,0C92.9,67.2,86.6,70.3,79,74z M80.7,69.6c-1.1,1.6-2.2,3.1-2.9,4.2c-0.1,0.1-0.1,0.2,0,0.3c0,0.1,0.1,0.2,0.2,0.2 c4,1.5,5.2,2.2,5.5,2.4c-0.1,0.1-0.2,0.2-0.2,0.4c0,0.2,0.2,0.3,0.3,0.3c0.1,0,0.4,0.1,0.5,0.5c0,0-0.1,0.1-0.2,0.1 c-0.2,0-0.3,0.2-0.3,0.4c0,0.2,0.1,0.4,0.3,0.4c0.1,0,0.4,0.1,0.4,0.5c-0.1,0.1-0.7,0.2-2.7-0.2c-1.2-0.2-2.3-0.3-3.4-0.4 c-1.3-0.1-2.7-0.2-4.1-0.5c-0.3-0.1-0.5-0.3-0.7-0.6c-0.3-0.6-0.4-1.5-0.1-2.3l4.3-10.7c0-0.1,0-0.2,0-0.3s-0.1-0.2-0.2-0.2 l-2.6-0.9c1.1-1.2,3.5-4.3,3.9-7.7c2,0.7,3.7,1.3,4.2,1.5c1,0.5,1.8,1.4,2.2,2.5c0.5,1.3,0.3,2.9-0.5,4.5 C83.7,65.5,82.1,67.6,80.7,69.6z M74.7,52.1c-1.5-0.5-3.2-1.4-4.5-2.8c0.6-0.7,1.2-1.4,1.6-2c1-1.5,1.9-3,2.7-4.8c0,0,0,0,0.1-0.1 c0.3-0.6,0.5-1.3,0.7-1.9c1.3,0.7,2.8,1.4,4.2,2c2.2,1,3.5,0.9,5.4,0.8c0.4,0,1.2-0.1,2.2-0.2C83,46.3,78.9,49.3,74.7,52.1z M83,37.7C83,37.8,83,37.8,83,37.7c0.7,0.4,4,0.9,7.4,1.4c0.5,0.1,0.9,0.1,1,0.2c0.8,0.1,2.3-0.1,3.8-0.2c1.1-0.1,2.2-0.3,2.7-0.2 c1,0.1,2.7,0.5,3.7,0.9c0.1,0,0,0.1,0,0.1c0,0.2-0.1,0.3-0.7,0.2c-0.6,0-2.3,0-2.5,0L96,40.7c-0.2,0-0.3,0.2-0.3,0.4 c0,0.2,0.1,0.3,0.3,0.4c0,0,1,0.3,2.1,0.5c0.1,0,0.2,0,0.2,0.1c0,0.1-0.1,0.3-0.3,0.3c-0.6,0.1-3.5,0.5-3.9,0.4 c-1.4-0.2-1.8-0.7-1.8-0.7c-0.1-0.1-0.2-0.2-0.4-0.2c-2.7,0.4-6.2,0.7-7.2,0.8c-2,0.1-3,0.2-5.1-0.7c-1.4-0.6-3-1.4-4.3-2.1 c0,0,0-0.1,0-0.1c2.8-0.6,4.4-2.6,5.3-4.1C81.9,36.8,83,37.7,83,37.7z M55.8,26.2c-0.6-0.2-1-0.4-1.1-0.6c0.1-0.3,0.5-0.8,0.9-1.2 c0.7-0.8,1.4-1.6,1.2-2.7c0-0.3-0.2-0.8-0.4-1.4l0-0.1c-0.3-0.9-0.4-2.2-0.3-3.5c0.7-0.7,1.8-1.1,2.8-1.2c1.3-0.1,2.7,0.1,3.8-0.4 c0.5-0.2,0.9-0.5,1.3-0.8c0.1,0,0.2,0,0.2,0c1.6,0.8-0.3,4.6,1.6,6.7c0.4,0.4,0.7,0.2,0.7,0.2l0.7-1.1c0.5-0.7,1-1.4,1.6-1.3 c2,0.3,1.8,3.9-0.5,4.8c-0.2,0.1,0.1,1.5,0.8,2.5c0.2,0.3,0.4,0.5,0.7,0.6c-0.1,0-0.1,0-0.1,0c0.1,0.1,0.2,0.2,0.3,0.2 c-0.5,1.1-0.8,2.3-1.1,3.8c-0.2,1-0.7,2.3-0.7,2.3s0,0,0.1-0.1c-0.4,0.5-0.9,0.9-1.6,1.1c-1.3,0.4-2.2,0.3-2.9,0 c-0.7-0.9-0.8-1.9-0.8-1.9c1.5-0.4,3-1.3,4-2.5c0.2-0.2,0.1-0.5,0-0.6c-0.2-0.2-0.5-0.2-0.6,0c-1.2,1.3-3.6,2.5-5.5,2.3 c-2.5-0.3-3.3-1.3-3.6-2.3c0.5-0.1,0.9-0.3,1.3-0.6c0.7-0.6,0.2-1.1-0.6-0.7c-0.3,0.1-0.6,0.2-0.9,0.3c0,0,0,0,0,0 c-0.1-0.6-0.2-1.2-0.6-1.7C56.3,26.4,56.1,26.3,55.8,26.2z M43.4,84c3.3-4,6.5-7.5,8.3-7.5c0.3,0,1,0.1,1.5,0.2 c-0.7,1.2-1.1,2.3-1.5,3.3c-2.6,1.1-4.9,2.3-6.9,3.3c-0.7,0.4-1.4,0.8-2.1,1.1C43,84.2,43.2,84.1,43.4,84z M45.8,85 c1.5-0.8,3.3-1.7,5.3-2.6c0,0.2-0.1,0.4-0.1,0.6c-0.3,1.5-0.7,2.9-1.4,4.5c-0.1,0-0.1,0.1-0.2,0.2c0,0.1-0.2,0.4-0.4,0.9 c-10.3,5-20,9.6-26.9,12.8C26.8,96.2,35.2,90.5,45.8,85z M22.8,114.8C22.7,114.8,22.7,114.8,22.8,114.8c-0.4-0.2-0.7-0.3-0.9-0.4 c-1.5-0.8-2.5-1.8-3.2-2.8c-0.7-1.1-1-2.2-0.6-3.6c0.4-0.3,0.8-0.6,1.1-0.8c6.4-3.3,17.2-9,29-15.1c0,1.9,0.3,5.5,0.4,6.9 c-14,8.5-25.3,15.4-25.6,15.6C22.9,114.6,22.9,114.7,22.8,114.8z M56.6,106.5c-1.1,0.6-2.2,1.2-3.3,1.7c-0.1,0-0.1,0.1-0.2,0.1 c-0.9,0.5-1.9,0.9-2.8,1.4c-0.3,0.1-0.7,0.3-1,0.4c-0.7,0.3-1.3,0.6-1.9,0.8c-0.7,0.3-1.4,0.6-2.1,0.8c0,0-0.1,0-0.1,0 c-5,1.9-9.6,3.1-13.7,3.6c1-0.6,10.8-7.1,22.8-15c0.2,0.1,0.5,0.1,0.7,0c0.3-0.1,0.5-0.2,0.6-0.4c0,0,0,0.1,0.1,0.1 c0.3,0.4,0.9,0.6,1.4,0.4c0.6-0.2,1.2-0.8,1.2-1.5c0-0.3-0.1-0.7-0.3-1.1c17.1-11.3,37.3-24.6,43.2-28.6c-0.3,1-1.1,2.4-2.6,4.5 c-0.1,0.1-0.1,0.2-0.2,0.3c-2.9,3.3-18.8,17.6-33.7,27.4C61.9,103.4,59.2,105.1,56.6,106.5z M98.7,85.7c-1.6,4.1-7.2,1.3-9.6,3.7 c-1.1,1.1,1.1,1.8-4.7,3.9c-3,1.1-6.1,2.2-9.2,3.3c12.3-9.2,23.2-19.1,25-21.6c0.1-0.2,0.2-0.3,0.3-0.5c0.1-0.1,0.2-0.3,0.3-0.4 c0.2-0.3,0.3-0.5,0.4-0.7c0.1-0.2,0.2-0.4,0.4-0.7c0.1-0.2,0.2-0.3,0.2-0.5c0.1-0.3,0.3-0.6,0.4-0.9c0-0.1,0.1-0.2,0.1-0.4 c0.1-0.3,0.2-0.6,0.3-0.9c0-0.1,0-0.2,0.1-0.3c0.1-0.3,0.1-0.6,0.2-0.9c0,0,0-0.1,0-0.1c0-0.3,0.1-0.5,0.1-0.8c0,0,0-0.1,0-0.1 c0-0.3,0-0.5,0-0.7c0,0,0-0.1,0-0.1c0-0.2-0.1-0.4-0.2-0.6c0,0,0,0,0,0c0,0,0,0,0,0c0,0,0,0,0,0c-0.1-0.1-0.1-0.2-0.2-0.3 c-0.1-0.1-0.2-0.2-0.4-0.4c0,0,0.1,0.1,0.1,0.1c-0.1-0.1-0.2-0.1-0.2-0.2c-0.1-0.1-0.3-0.2-0.4-0.3c0,0,0,0,0,0c0,0,0,0,0,0 c-0.1-0.1-0.3-0.2-0.5-0.2c0,0-0.1,0-0.1,0c0,0,0,0,0.1,0c0,0-0.1,0-0.1,0c0,0,0,0,0.1,0c0,0-0.1,0-0.1-0.1 c-0.2-0.1-0.3-0.1-0.5-0.2c0,0,0,0,0,0c0,0,0,0,0,0c0,0,0,0,0,0c-0.1,0-0.2-0.1-0.3-0.1c-0.2-0.1-0.3-0.1-0.5-0.1 c-0.1,0-0.3-0.1-0.4-0.1c-0.2,0-0.4-0.1-0.6-0.1c0,0-0.1,0-0.1,0c0,0,0,0,0,0c-0.9-0.1-2-0.2-3.1-0.2c-1.6,0-4,0.6-6,1.2 c-1.2,0.4-3.5,1.2-6.4,2.2c0.8-1.2,1.6-2.4,2.1-3.4c0.6-1.3,0.9-2.5,0.8-3.7c2.8-3.1,5.8-6.4,7.7-7.9c1.8-1.5,2.8-0.5,2.6,0.8 c-0.3,1.8-2.8,7.3-2.8,7.3s5.7-6.1,7.5-7.9c7.1-7.3,11.4-6.5,9.3-1.5c-2.2,5.3-5.7,11.2-5.7,11.2s4.7-2.2,7.7-3.4 c1.9-0.7,3.4,0,3.8,0.2c0.8,0.5,0.8,2.5-1.3,5.1c-3.3,4-10.3,9.5-10.3,9.5s4.6-0.5,5.8-0.5c4.3,0.1,6,2.9-4.1,6.5 c-2.2,0.8-7.2,2.2-8.1,3.4C97.5,84.5,99.1,84.7,98.7,85.7z M113.8,86c-4.5,0.5-10.3-1-10.3-1s10-3.7,13.2-2.9 C119.8,82.8,118.3,85.5,113.8,86z M111.8,55.4c0,0,2.9-9.5,6.8-9.7C126.5,45.3,111.8,55.4,111.8,55.4z"/>
    <path d="M59.3,20.7c-0.6,0-1,0.8-0.9,1.6c0.1,0.9,0.6,1.5,1.1,1.5s1-0.8,0.9-1.6S59.8,20.7,59.3,20.7z"/>
    <path d="M58.6,20.2c1.1-0.6,2.7,0.2,3,0.1c0.2-0.1,0.2-0.5-0.2-0.8c-0.4-0.3-0.9-0.9-2-0.9c-1.2,0-1.7,0.4-1.9,0.8 C57.3,20.1,57.7,20.7,58.6,20.2z"/>
  </g>
</svg>