<svg viewBox="0 0 128 128" xmlns="http://www.w3.org/2000/svg">
  <g>
    <path d="M101.2,70.3c1.8,0.6,3.8,1,5.8,1c9.5,0,17.1-7.5,17.1-16.7c0-9.2-7.7-16.7-17.1-16.7c-0.7,0-1.4,0-2,0.1 c0.5-1.7,0.8-3.5,0.8-5.4c0-10.4-8.7-18.9-19.3-18.9c-4.5,0-8.7,1.5-12,4.1C70,9.6,61.1,4,50.9,4C36.3,4,24.4,15.6,24.4,29.9 c0,0.5,0,1,0,1.5C13.4,32.7,4.9,41.9,4.9,53c0,11.9,9.8,21.6,21.9,21.8c4.1,6.9,12.2,11.6,21.5,11.7c9.1,0.1,17-4.2,21.3-10.7 c3.5,3.7,8.4,6,14,6C91.6,81.8,98.3,77.1,101.2,70.3z"/>
    <path d="M31.8,98.2c0.4-1,0-2.2-0.8-2.6l-6.2-3.3l5.9-3.6c0.9-0.5,1.2-1.7,0.7-2.7s-1.6-1.3-2.5-0.7l-6.3,3.9l-0.2-7.3 c0-0.8-0.7-1.5-1.5-1.4h-0.6c-0.8,0-1.5,0.7-1.5,1.6l0.2,7.3l-6.6-3.5c-0.9-0.5-2-0.1-2.4,0.9s-0.1,2.2,0.8,2.6l6.2,3.2l-5.9,3.6 c-0.9,0.5-1.2,1.7-0.7,2.7s1.6,1.3,2.5,0.7l6.3-3.9l0.2,7.3c0,0.8,0.7,1.5,1.5,1.5h0.6c0.8,0,1.5-0.7,1.5-1.5l-0.2-7.3l6.5,3.5 C30.3,99.6,31.4,99.1,31.8,98.2z"/>
    <path d="M116.5,83.3l-6.3,2.9l0.7-6.9c0.1-1-0.7-2-1.7-2.2c-1-0.2-2,0.5-2.1,1.5l-0.7,7.4l-6-4.3c-0.7-0.5-1.6-0.3-2.1,0.4 l-0.4,0.5c-0.5,0.7-0.3,1.6,0.3,2.1l6,4.3l-6.7,3.1c-0.9,0.4-1.3,1.5-0.8,2.5c0.5,0.9,1.7,1.3,2.6,0.9l6.3-2.9l-0.7,6.9 c-0.1,1,0.7,2,1.7,2.2c1.1,0.2,2-0.5,2.1-1.5l0.7-7.4l6,4.3c0.7,0.5,1.6,0.3,2.1-0.3l0.4-0.5c0.5-0.7,0.3-1.6-0.3-2.1l-6-4.2 l6.7-3.1c0.9-0.4,1.3-1.5,0.8-2.5S117.4,82.9,116.5,83.3z"/>
    <path d="M73.9,95.4l-7.1,2.2l1.5-7.2c0.2-0.8-0.3-1.6-1.1-1.8l-0.6-0.1c-0.8-0.2-1.6,0.3-1.8,1.2l-1.5,7.2L57.8,92 c-0.8-0.7-1.9-0.5-2.6,0.3s-0.6,2.1,0.2,2.8l5.2,4.6l-6.6,2.1c-1,0.3-1.5,1.4-1.3,2.4s1.2,1.6,2.2,1.3l7.1-2.2l-1.5,7.2 c-0.2,0.8,0.3,1.6,1.2,1.8l0.6,0.1c0.8,0.2,1.6-0.3,1.8-1.2l1.5-7.2l5.5,4.9c0.8,0.7,1.9,0.5,2.6-0.3c0.7-0.8,0.6-2.1-0.2-2.8 l-5.2-4.7l6.6-2.1c1-0.3,1.6-1.4,1.3-2.4C75.9,95.7,74.9,95.1,73.9,95.4z"/>
    <path d="M44.5,112.7l-4.5-1.2l3.2-3.2c0.4-0.4,0.4-1.2,0-1.6c-0.5-0.4-1.2-0.4-1.6,0l-3.2,3.2l-1.2-4.5c-0.2-0.6-0.8-1-1.5-0.7 c-0.6,0.2-1,0.9-0.9,1.5l1.2,4.3l-4.3-1.2c-0.6-0.2-1.3,0.2-1.5,0.9c-0.2,0.6,0.1,1.3,0.7,1.5l4.5,1.2l-3.2,3.2 c-0.4,0.4-0.4,1.2,0,1.6c0.5,0.4,1.2,0.4,1.6,0l3.2-3.2l1.2,4.5c0.2,0.6,0.8,1,1.5,0.7c0.6-0.2,1-0.9,0.8-1.5l-1.2-4.3l4.3,1.2 c0.6,0.2,1.3-0.2,1.5-0.8C45.4,113.5,45.1,112.8,44.5,112.7z"/>
    <path d="M98.8,108.3l-4.7,0.4l1.9-4c0.3-0.6,0-1.3-0.6-1.5c-0.6-0.2-1.3,0-1.5,0.6l-1.9,4.1l-2.7-3.8c-0.4-0.5-1.1-0.6-1.6-0.2 c-0.5,0.4-0.7,1.2-0.3,1.7l2.6,3.6l-4.4,0.4c-0.7,0.1-1.2,0.7-1.1,1.3c0,0.7,0.5,1.2,1.2,1.1l4.7-0.4l-1.9,4 c-0.3,0.6,0,1.3,0.6,1.5c0.6,0.2,1.3,0,1.5-0.6l1.9-4l2.7,3.8c0.4,0.5,1.1,0.6,1.6,0.2s0.6-1.2,0.3-1.7l-2.6-3.6l4.4-0.4 c0.7-0.1,1.2-0.7,1.1-1.3C99.9,108.7,99.4,108.2,98.8,108.3z"/>
  </g>
</svg>