<svg viewBox="0 0 128 128" xmlns="http://www.w3.org/2000/svg">
  <g>
    <path d="M73.7,56.6l15.7-3.5l-15.7-3.5c-10.9-2.4-19.1-11.4-20.5-22.5L49.9,4.5l-3.3,22.6C45.3,38.2,37,47.2,26.1,49.5L10.4,53 l15.7,3.5C37,58.9,45.3,68,46.6,79.1l3.3,26.8l3.3-26.8C54.6,68,62.8,58.9,73.7,56.6z"/>
    <path d="M95.4,51l1.7,15.5L98.8,51c0.7-6.4,4.9-11.6,10.6-13l8.2-2l-8.2-2c-5.6-1.4-9.9-6.6-10.6-13L97.1,9l-1.7,12 c-0.7,6.4-4.9,11.6-10.6,13l-8.2,2l8.2,2C90.4,39.4,94.7,44.6,95.4,51z"/>
    <path d="M87.6,73.8l-2.1-12.9l-2.1,12.9c-0.8,7.1-6.1,12.9-13.1,14.4l-10.1,2.2l10.1,2.2c7,1.5,12.2,7.3,13.1,14.4l2.1,17.1 l2.1-17.1c0.8-7.1,6.1-12.9,13.1-14.4l10.1-2.2l-10.1-2.2C93.7,86.7,88.5,80.9,87.6,73.8z"/>
  </g>
</svg>