<svg viewBox="0 0 128 128" xmlns="http://www.w3.org/2000/svg">
  <g>
    <path d="M124,90.8V8.5H85.4c-5.3-2.7-12.1-4.4-20.8-4.4c-8.7,0-15.6,1.7-20.9,4.4H4v82.2h23.2 c0.6,3.7,1.4,7.2,2.3,10.4c-6.2,2.4-11.5,5.6-14.6,10.4c-1.8,2.7-2.8,5.7-2.8,9.2c0,0,0,0,0,0v0v3.2h3h20.4h3h3.1h3 c0-1.1,0.1-2.1,0.1-3.1c0.1-1.1,0.1-2.1,0.2-3c0.4-6,1-10.6,1.6-13.9l1.2,7.3l8.9-3.7l-0.1,0.5c-0.1,0.2-0.1,0.4-0.2,0.6l-2.7,9.5 l-0.9,3L52,124h0h0h0h2.1h1.7h46h2.1h9h0.4h3v-3.3c-0.5-10.4-8-16.1-17.8-19.7c0.9-3.2,1.6-6.6,2.2-10.3H124z M23.9,42.6 c0,13.2,0.5,29.2,2.6,43.4H8.7V13.3h27.9C23.7,24.5,23.9,42.2,23.9,42.6z M119.3,13.3v72.8h-17.7c2-14.2,2.6-30.3,2.6-43.4 c0-0.4,0.7-18.1-11.8-29.4H119.3z M102,116.9l-39.8-11.4c-1.1-0.3-1.7-1.6-1.3-2.8l0.1-0.2c0.4-1.2,1.5-2,2.6-1.7l39.8,11.4 c0,0-0.9,1-1.3,2.5C101.7,116,102,116.9,102,116.9z M73.1,98.2l1.6-2l0.3-0.4l0.9,0.5l3.7,2.1l-0.2,1.4l-0.4,2.5l-5.8-1.7l-1.5-0.4 L73.1,98.2z M76.3,90.8c-1.1,0.6-2.2,1.1-3.2,1.6c-0.5,0.2-1,0.4-1.5,0.6c-2.5,0.9-5,1.4-7.2,1.4c-2.2,0-4.7-0.5-7.2-1.4 c-0.5-0.2-1-0.4-1.5-0.6c-1.1-0.4-2.2-1-3.2-1.6c-1.2-0.7-2.5-1.5-3.7-2.4c-1-0.7-2-1.5-2.9-2.3c-5-4.5-9.3-10.9-11.3-19.2 c-0.1-2.3-0.2-4.4-0.2-6.2c0-1.1-0.1-3.1,0-5.4c0.2,0.3,0.4,0.5,0.8,0.6c0.9,0.3,1.1,1.3,1.6,4.1c0.1,0.6,0.2,1.4,0.4,2.2 c0.8,4.5,3,7.6,10.8,8.2l0.1,0c0.3,0,0.6,0,0.9,0c0,0,0,0,0,0c0.1,0,0.2,0,0.2,0c7,0,9.5-4.7,10.3-6.2c0.5-0.9,0.7-1.8,1-2.7 c0.6-2.1,1.1-3.9,3.7-4c0,0,0,0,0,0c2.6,0,3.2,1.8,3.8,3.9c0.3,0.9,0.6,1.8,1,2.6l0,0.1c0.8,1.5,3.3,6.2,10.2,6.2 c0.1,0,0.2,0,0.2,0c0.3,0,0.7,0,1,0c7.8-0.6,10-3.7,10.8-8.3c0.1-0.8,0.3-1.5,0.4-2.2c0.5-2.8,0.7-3.9,1.5-4.2c1-0.3,1.2-1.3,1.2-2 c0.2,2.6,0.1,5.3,0,6.9L93.6,69c-2.2,7.3-6.2,13-10.7,17.1c-0.9,0.8-1.9,1.6-2.9,2.3C78.7,89.3,77.5,90.1,76.3,90.8z M81.1,51.9 c3.3,0,6.1,0.4,6.9,0.9c2.4,1.4,2,8.5,0,12.1c-1.4,2.6-5.5,3.7-8.8,3.7c0,0-0.1,0-0.1,0c-1.7,0-3.2-0.3-4.3-0.8 c-2.3-1.1-4.9-4.7-5.8-8.2c-0.5-2-0.4-3.7,0.4-4.7c1.3-1.7,4.8-2.8,9.8-3C79.9,51.9,80.5,51.9,81.1,51.9z M59,59.7 c-0.8,3.4-3.4,7.1-5.7,8.2c-1.1,0.5-2.7,0.8-4.4,0.8c0,0-0.1,0-0.1,0c-3.3,0-7.3-1.1-8.8-3.7C38,61.5,37.6,54.4,40,53 c0.9-0.5,3.7-1,7.1-1c0.5,0,1.1,0,1.7,0c4.9,0.2,8.5,1.3,9.7,3C59.3,56,59.5,57.7,59,59.7z M92.3,50.9c-0.5-0.2-2.1-0.4-4.1-0.5 c0-0.2-0.1-0.4-0.2-0.5c-0.9-1.2-3.1-3-7.2-3c-4.2,0-6.3,1.8-7.2,3c-0.3,0.4-0.3,0.8-0.2,1.2c-0.7,0.1-1.3,0.3-2,0.4 c-2.7,0.6-5.2,1.1-7.4,1.2c-0.8,0-2.7-0.4-4.9-0.8c-1.1-0.2-2.2-0.4-3.4-0.6c0.2-0.4,0.2-0.9-0.1-1.3c-0.9-1.2-3.1-3-7.2-3 c-4.2,0-6.3,1.8-7.2,3c-0.1,0.2-0.2,0.4-0.2,0.6c-2.5,0.2-4.5,0.4-5.2,0.6c-0.4,0.1-0.7,0.2-0.9,0.3c0.7-2.7,2-5.1,4.6-5.7 c22.4-5,35-16.9,35-16.9c3.3,7.2,13.6,14.2,17.3,16.9c1.4,1,2.1,3.6,2.4,6.4C93.9,51.4,93.5,51.2,92.3,50.9z M56.9,94.9 c2.6,0.9,5.1,1.3,7.4,1.3c2.1,0,4.4-0.4,6.8-1.1v0.8l-2.6,3.3l-2.7-0.8c-0.1,0-0.1,0-0.2,0c-2-0.5-4,0-5.5,1.3l-3.2-4V94.9z M57.2,104.2l-1.8,0.8l-5.3,2.2l-1.2-7.5l-0.2-1.3l3.8-2.1c0.4,0,0.7-0.1,1.1-0.1l1.4,1.8l2,2.6l1.4,1.7c-0.1,0.1-0.1,0.3-0.2,0.4 l-0.4,1.3L57.2,104.2z"/>
    <path d="M64.5,72.3c2.8,0,4.2-2,4.5-2.7c0.3-0.7,0-1.3-0.7-1.6C68.3,68,68.2,68,68,68h-7c-0.1,0-0.2,0-0.3,0.1 c-0.6,0.3-1,0.9-0.7,1.6C60.4,70.4,61.8,72.3,64.5,72.3z"/>
    <ellipse cx="49.3" cy="58.9" rx="4.9" ry="5"/>
    <ellipse cx="79.8" cy="58.9" rx="4.9" ry="5"/>
    <path d="M72.6,76.1C69.5,78,59.2,78,56,76.1c-1.8-1.1-3.7,0.6-2.9,2.2c0.7,1.6,6.4,5.4,11.2,5.4 c4.9,0,10.4-3.8,11.2-5.4C76.2,76.7,74.4,75.1,72.6,76.1z"/>
  </g>
</svg>