<svg viewBox="0 0 128 128" xmlns="http://www.w3.org/2000/svg">
  <g>
    <path d="M101.8,50.9C101.8,50.9,101.8,50.9,101.8,50.9c-8.9,9.3-14.1,13.9-26.9,20.8l-2.5-4.5L72,67.5l-3-6.3l14-5.7 c3.9-1.6,6-5.4,6-9.5l12.2-5.8l3.8,3c0.8,0.6,2-0.2,1.5-1.2l-1.6-3.7l4.4-2.1c0.8-0.4,1.1-1.2,0.7-2s-1.2-1.1-2-0.7l-4.3,2.1 l-1.3-3.1c-0.4-1-1.8-0.7-1.9,0.3l-0.4,4.5l-11.5,5.5c-0.3-1.1-0.7-2.2-1.3-3.2l0,0c-0.3-0.7-0.9-1.6-1.6-2.4L85.6,37l0,0 c-1-1-2.3-2-3.6-2.4c0,0-9.5-2.8-21.5-2.8c-2.3,0-4.7,0.1-7.2,0.4c0,0,0,0,0,0c-0.2,0-1.4-0.8-2.6-1.7c-1.2-0.8-0.3-3.2-1.8-3.2 c0,0,0,0,0,0c-0.1,0-0.2,0-0.3,0.1c-0.1-0.4-0.1-0.9-0.2-1.3c0.3-0.4,0.4-0.8,0.2-1.3c-0.1-0.4-0.4-0.6-0.8-0.8 c-0.8-2.3-2.2-4.4-4.2-6.1c-2.7-2.2-5.9-3.2-9.2-3.2c-3.2,0-6.5,1-9.4,2.7c-8.5,5.2-7.2,14-7.2,14s-1.6,2.6-1.9,4.7 c-0.2,1.1,0.2,1.9,0.8,1.9c0.2,0,0.3-0.1,0.5-0.2c0.3-0.2,6.5-4.7,10.2-7.3c0.1-0.1,0.2-0.1,0.2-0.2c0.5-0.4,1.1-0.5,1.7-0.5 c0.9,0,1.7,0.5,2.2,1.4l3.5,6.1c-2.3,2.3-4.7,5.5-6,8.7c-2.4,0.3-4.7-1.2-4.7-1.2c-0.6-0.4-1.2-0.5-1.9-0.5c-0.3,0-0.7,0.1-1,0.2 c0,0.4,0,1-0.1,1.6c-0.2,1,0.4,1.9,1.3,2.1c1.6,0.3,2.1-0.2,3.4,0.9c0.7,0.6,1.4,1.2,2.2,1.5c0,0.3,0.1,0.6,0.2,0.9 c0,0.1,0.1,0.1,0.3,0.1c1.1,0,5.9-2.2,12.2-2.2c0,0,0.1,0,0.1,0c2.6,3.1,5.9,5.9,8.2,7.6l-8,4.2c-0.8,0.5-1.4,1.5-1.7,2.5l-4.1-1.4 c-0.4-0.1-0.8-0.1-1.2,0c0,0-0.1,0-0.1,0c0,0-0.1,0-0.1,0.1c-0.4,0.2-0.7,0.5-0.8,0.8l-0.9,1.6c-0.1,0.3-0.3,0.9-0.2,1.4 c-1.2,0.8-1.8,1.4-2.1,1.8c-0.4,0.9-0.5,1.6-0.3,2c0.8,1.5,3.2,5.6,4.8,6.3c0.5,0.2,1,0.3,1.6,0.3c0.7,0,1.3-0.2,2-0.5 c2.2-0.8,6-5,6.1-5.1c0.4,0.1,0.7,0.1,1.1,0.1c0.7,0,1.4-0.2,2-0.5l7.1-4.6l4.8,8.7l-0.6,0.4l2.3,4c-4,2-8.5,4.2-13.6,6.7 c-10.2,4.9-20.5,7.2-28.8,9c-6.1,1.3-10.9,2.4-13.5,4.1C4.6,99,4.3,99.2,4,99.4v1.2v12.6c5.2-3.2,14.8-9,25.3-15.2 c9.1-5.3,20.3-8.5,32.8-13.8L58,86.9c-3.1,2.5-1.1,5.7-1.1,5.7l1.7,3c0.1,0.2,0.3,0.4,0.5,0.5l-20,11c-0.7,0.4-2.6-0.6-4-1.2 c-1.1-0.5-2-1-2.7-1.1c-1.8-0.2-3.6,0.9-3.9,2.7c-0.2,0.9,0,1.8,0.6,2.6c0.5,0.7,1.3,1.2,2.2,1.3c0.9,0.3,4.2,1.4,6.4,1.4 c0.4,0,0.7-0.1,1-0.1c0.2,0,0.3-0.1,0.4-0.1l61.6-34.2c0,0.2-0.1,0.4-0.1,0.6c0,0.1,0.1,0.4,0.2,0.4c0.2,0,0.7-0.1,0.9-0.2 c1-0.3,1.9-0.8,2.7-1.5c0,0,0,0,0,0c0.5-0.5,0.7-1.1,0.5-1.7l9.9-5.5c0.4-0.2,0.7-0.6,1-1c0,0,0,0,0,0c0.5-0.1,1-0.2,1.5-0.3 c0.9-0.3,1.8-0.9,2-1.9c0,0,0-0.1,0-0.1c0.3-1.7-1.8-2.6-2.9-1.4c0,0,0,0,0,0c-0.3,0.4-0.6,0.8-0.8,1.2c-0.3-0.4-0.7-0.7-1.2-0.8 c-0.2,0-0.3-0.1-0.5-0.1c-0.5,0-0.9,0.1-1.3,0.3L81.5,83.7c0-0.3-0.1-0.5-0.2-0.8l-3.5-6.2c5.5-3.1,11.2-6.7,17-11.3 c0,0.2,0,0.3,0.1,0.5c0.1,0.5,0.2,1.1,0.4,1.6c0.1,0.3,0.1,0.5,0.2,0.8c0.1,0.1,0.3,0.4,0.4,0.3c0.3-0.1,0.6-0.5,0.8-0.6 c0.8-0.8,1.5-1.8,2-2.8c0,0,0,0,0,0c0.4-0.9,0-1.8-0.6-2.3c2.8-2.3,5.6-4.8,8.4-7.6c5.1-5,11.8-9.2,17.7-12.4V26.4v-1.7 C118.7,31.7,111.1,41.2,101.8,50.9z M87.7,43.2L63.4,54.8c-0.1-0.4-0.2-0.7-0.4-1.1c-0.1-0.1-0.6-1.1-1.4-2.5L86.4,40 C87,41,87.5,42.1,87.7,43.2z M37.7,75.2c-1,0.5-1.9,0.5-2.8,0.2c-1.1-0.5-3.2-3.8-4.3-5.8c0-0.1,0-0.5,0.3-1.2 c0.1-0.2,0.8-0.8,2-1.6c0.2-0.1,0.3-0.4,0.2-0.6c0-0.2,0-0.8,0.1-1l0.9-1.6c0.1-0.1,0.2-0.3,0.4-0.4c0,0,0.1,0,0.1,0 c0.1,0,0.2-0.1,0.3-0.1c0.1,0,0.1,0,0.2,0l4.3,1.4c-0.1,0.6-0.1,1.1,0,1.7c0.1,0.8,0.3,1.5,0.7,2c0.2,0.2,0.3,0.5,0.6,0.7 c0.7,0.7,1.6,1.3,2.6,1.6C42.2,71.7,39.4,74.6,37.7,75.2z M55.3,65.5l5.9-3.8c0.4-0.2,0.7-0.6,0.9-0.9c0.7-0.7,1.1-1.6,1.4-2.6 L88,46.4c0,0.8-0.2,1.6-0.4,2.4c-0.8,2.7-2.6,4.7-5,5.7l-14.1,5.7c-0.2,0.1-0.4,0.3-0.5,0.6c-0.1,0.3-0.1,0.5,0,0.8l3,6.4l-11,6.2 L55.3,65.5z M80.3,83.4c0.1,0.2,0.2,0.5,0.1,0.8s-0.2,0.5-0.5,0.6L60.8,95.4c-0.1,0.1-0.3,0.1-0.5,0.1c-0.4,0-0.7-0.2-0.9-0.5 l-1.7-3c0,0,0,0,0,0c-0.2-0.2-1.4-2.4,0.8-4.3l4.1-2.7c1.1-0.7,1.4-2.2,0.8-3.3l-3.6-6.3L72,68.7L80.3,83.4z"/>
    <path d="M20.1,42.7c2.2-1.6,6,0.4,6,0.4c0.7,0.3,1.5,0.2,2.1-0.1l1.9-1.1c1-0.6,1.4-2,0.8-3l-2-3.4 c-0.7-1.1-2.1-1.4-3.2-0.7c-2.7,1.9-7,4.7-7.4,5c0,0,0,0,0,0l0.8,1.3L20.1,42.7z"/>
    <path d="M111.9,55.8c1.1-1.2,0.1-3.1-1.5-2.7c0,0-0.1,0-0.1,0c-0.9,0.3-1.5,1.2-1.7,2.1c-0.1,0.5-0.2,1-0.2,1.4 c0,0.2-0.1,0.5-0.1,0.7c0,0.1,0.1,0.4,0.2,0.4c0.2,0,0.6-0.2,0.8-0.3C110.3,57.1,111.2,56.6,111.9,55.8 C111.9,55.8,111.9,55.8,111.9,55.8z"/>
    <path d="M108.7,61.5c0,0-0.1,0-0.2,0c-1.2,0.4-1.9,1.5-2.1,2.7c-0.1,0.6-0.2,1.2-0.2,1.8c0,0.3-0.1,0.6-0.1,0.9 c0,0.2,0.1,0.5,0.3,0.5c0.3,0,0.8-0.2,1-0.4c1.2-0.5,2.3-1.2,3.2-2.1c0,0,0,0,0,0C112,63.5,110.7,61,108.7,61.5z"/>
  </g>
</svg>