<svg viewBox="0 0 128 128" xmlns="http://www.w3.org/2000/svg">
  <g>
    <path d="M79.1,67.8c-2.3-1.6-5.8-3.5-8.1-7.4c-0.1-0.1-0.1-0.2-0.2-0.3c2.8-1.6,5.3-3.8,7.3-6.6l1.6-2.2L76.9,53 c-1.8,1-3.7,1.7-5.6,2.2c1.9-5.2,6.4-12.7,4.6-22.7c-3.2-17.8-19.6-27-29.1-27C28,5.5,20.9,7.2,7.5,4H4v120h6.8 c14.1-5,14.7-12.9,22.7-13c12.2-0.1,29.9,10.4,38.3-2.8c2.2-3.4-0.1-6.7,0.6-9.5c0.5-1.9,4.1,0.3,6-3.3c1.2-2.3-1.9-3.2-1.5-5.6 c0.2-1,5.4-2.1,4.1-6.3c-1-3-3.3-0.4-3-3.5c0.3-2.8,3.3-1.8,4.8-6C83.8,71.6,81.8,69.9,79.1,67.8z M56.4,68.1 c-5.6,1.8-15.6-3.4-15.6-3.4S50,65,54.9,63.6c6-1.8,11-7.1,11-7.1S62,66.3,56.4,68.1z"/>
    <path d="M85.7,85.2c7.9,0,17.1-1.1,22.7-7.3c3.6-4,5.5-8.7,4.6-14.1c-0.8-4.5-3.7-8.2-8.6-7.4c-6,1-7.5,7.9-3.5,12.1 c1.4,1.4,3.5-0.7,2.1-2.1c-4.9-5,4.3-10.4,6.7-3.8c0.8,2.2,0.9,5.3,0.1,7.6c-3.4,10-14.9,12-24.1,11.9 C83.8,82.2,83.8,85.2,85.7,85.2z"/>
    <path d="M84.5,92.2c-1.9-0.1-1.9,2.9,0,3c8.7,0.4,22.2,2.5,25.4,12.3c0.7,2.1,0.5,4.9-0.1,6.9c-2.1,7-11.8,1.8-6.8-3.4 c1.4-1.4-0.8-3.5-2.1-2.1c-3.8,3.9-2.8,10.7,3,11.9c5,1.1,8.2-2.2,9.1-6.8C116.1,98.3,96.6,92.8,84.5,92.2z"/>
    <path d="M119.9,90.4c-2-3.3-7.5-3.6-10.9-3.9c-7.9-0.5-15.9,0.2-23.8,0.9c-1.9,0.2-1.9,3.2,0,3 c7.5-0.7,15.3-1.3,22.8-1c2.1,0.1,6.1,0.1,7.9,1.5c4.1,3.2-3.6,5.9-5.6,2.5c-1-1.7-3.5-0.2-2.6,1.5 C111.2,100.9,124.2,97.6,119.9,90.4z"/>
  </g>
</svg>