<svg viewBox="0 0 128 128" xmlns="http://www.w3.org/2000/svg">
  <path d="M124.3,75.5c-2.4-7.3-11.7-11.3-22-13.1c9.7-2.6,19-7.2,20.8-14.9c0.7-3-0.2-5-1.1-6.1c-0.9-1.2-2.3-2-4.1-2.4 c0.8-1.5,1-2.9,0.8-4.3c-0.2-1.5-1.1-3.6-4.1-5.2c-1.7-0.9-3.7-1.3-5.9-1.3c-5.8,0-12.7,3.3-18.9,7.7c0.4-0.6,0.7-1.2,1-1.8 c5.4-10,6.5-18.1,3.1-23.5C92,7.6,89.7,7,88.1,7c-1.3,0-2.6,0.4-3.9,1.2c-0.4-1.2-1-2.2-1.7-3C81.3,4,79.8,3.3,78,3.3 c-0.9,0-1.8,0.2-2.7,0.5c-6,2-10.4,8.9-12.7,20c-0.1,0.7-0.3,1.3-0.4,2c-0.2-0.7-0.4-1.3-0.6-2c-3-10.9-8-17.4-14.2-18.9 c-0.7-0.2-1.4-0.2-2.1-0.2c-2,0-3.6,0.7-4.8,2.1c-0.8,0.9-1.3,2-1.6,3.3c-1.2-0.6-2.4-0.9-3.5-0.9c-1.4,0-4.1,0.5-5.9,4.1 C26.6,19,28.4,27,34.6,36.4c0.4,0.6,0.8,1.1,1.1,1.7c-6.1-3.5-12.6-6-18-6c-2.8,0-5.2,0.7-7.3,1.9c-2.8,1.8-3.5,4-3.6,5.5 c-0.1,1.4,0.3,2.8,1.2,4.2c-1.6,0.5-2.9,1.4-3.7,2.5c-0.9,1.2-1.7,3.3-0.7,6.4c2.4,7.3,11.7,11.3,22,13.1c-9.8,2.6-19,7.2-20.8,14.9 c-0.7,3,0.2,5,1.1,6.1c0.9,1.2,2.3,2,4.1,2.4c-0.8,1.5-1,2.9-0.9,4.3c0.2,1.5,1.1,3.6,4,5.2c1.8,0.9,3.8,1.3,5.9,1.3 c5.9,0,12.7-3.3,18.9-7.7c-0.4,0.6-0.7,1.2-1,1.9c-5.4,10-6.5,18.1-3.1,23.5c1.9,3,4.2,3.6,5.8,3.6c1.3,0,2.6-0.4,3.9-1.2 c0.4,1.2,1,2.2,1.7,3c1.2,1.2,2.7,1.9,4.5,1.9c0.9,0,1.8-0.2,2.7-0.5c6-2,10.4-8.9,12.7-20c0.1-0.7,0.3-1.4,0.4-2.1 c0.2,0.7,0.4,1.4,0.6,2c3.2,10.9,8.2,17.4,14.4,18.8c0.7,0.2,1.4,0.2,2.1,0.2c1.9,0,3.6-0.7,4.8-2.1c0.8-0.9,1.3-2,1.6-3.3 c1.2,0.6,2.4,0.9,3.5,0.9c1.4,0,4.1-0.5,5.9-4.1c2.9-5.7,1.1-13.6-5.2-23.1c-0.4-0.6-0.7-1.1-1.1-1.6c6.1,3.5,12.5,6,18,6 c2.8,0,5.2-0.7,7.3-1.9c2.9-1.8,3.5-4,3.6-5.5c0.1-1.4-0.3-2.8-1.2-4.2c1.6-0.5,2.9-1.4,3.7-2.5C124.5,80.7,125.3,78.6,124.3,75.5z M108.8,31.1c1.7,0,3.2,0.3,4.6,1c4.2,2.2,2.7,5.8-1.7,9.7c1.1-0.2,2.2-0.2,3.1-0.2c3.9,0,6.2,1.4,5.4,5.2 c-1.9,8.3-15.9,12.9-28,14.6c-1.2,0-2.3-0.1-3.4-0.1c-3,0-5.8,0.2-8.2,0.5c-0.5-3.4-1.9-6.5-4.1-8.9c2.3-2.1,5.1-5.1,7.8-8.6 C91.6,37.5,101.3,31.1,108.8,31.1z M32.1,14.7c0.9-1.7,2-2.5,3.3-2.5c1.9,0,4.1,1.6,6.4,4.1c-0.7-5.1,0.1-8.7,3.5-8.7 c0.4,0,0.9,0.1,1.4,0.2c8.3,1.9,13,16,14.6,28.1c-0.2,4.4,0,8.5,0.4,11.5c-3.4,0.5-6.5,1.9-8.9,4.1c-2.2-2.5-5.2-5.3-8.7-7.9 C36,34.7,28.3,22.2,32.1,14.7z M6.6,51.7C5.2,47.5,8.2,46,13.2,46c0.5,0,0.9,0,1.4,0c-4.7-3.5-6.5-7-2.5-9.5c1.6-1,3.6-1.5,5.7-1.5 c7.3,0,17,5.3,24.5,11.1c3,3.3,6,6,8.4,7.8c-2,2.6-3.2,5.8-3.4,9.3c-0.8,0-1.6-0.1-2.5-0.1c-2.5,0-5.6,0.2-9,0.6 C23.7,63.2,9.2,59.8,6.6,51.7z M19.2,96.9c-1.7,0-3.2-0.3-4.6-1c-4.2-2.2-2.7-5.8,1.7-9.7c-1.1,0.2-2.2,0.2-3.1,0.2 c-3.9,0-6.2-1.4-5.4-5.2c1.9-8.3,16-13,28.1-14.6c1.1,0,2.2,0.1,3.3,0.1c3,0,5.8-0.2,8.2-0.5c0.5,3.4,1.9,6.5,4.1,8.9 c-2.3,2.1-5.1,5.1-7.8,8.6C36.5,90.5,26.7,96.9,19.2,96.9z M51.6,121.5c-0.7,0.2-1.3,0.3-1.8,0.3c-3.1,0-4.1-3.4-3.8-8.4 c-2.2,2.9-4.3,4.7-6.3,4.7c-1.2,0-2.3-0.7-3.2-2.2c-4.5-7.2,2.2-20.6,9.6-30.2c3.2-2.9,5.9-5.9,7.8-8.4c2.6,2,5.8,3.2,9.3,3.4 c-0.2,3.1,0,7.1,0.6,11.5C63.2,104.4,59.7,118.8,51.6,121.5z M64.9,47.3c0.2-3.1,0-7.2-0.6-11.6c0.6-12.1,4-26.5,12.1-29.1 c0.7-0.2,1.3-0.3,1.8-0.3c3.1,0,4.1,3.4,3.8,8.3c2.2-2.9,4.3-4.7,6.3-4.7c1.2,0,2.3,0.7,3.2,2.2c4.5,7.2-2.2,20.5-9.6,30.2 c-3.2,3-5.9,5.9-7.8,8.4C71.5,48.7,68.3,47.5,64.9,47.3z M95.9,113.4c-0.9,1.7-2,2.5-3.3,2.5c-1.9,0-4.1-1.6-6.4-4.1 c0.7,5.1-0.1,8.7-3.5,8.7c-0.4,0-0.9-0.1-1.4-0.2c-8.3-1.9-13-16-14.6-28.1c0.2-4.4,0-8.5-0.4-11.5c3.4-0.5,6.5-1.9,8.9-4.1 c2.2,2.5,5.3,5.3,8.7,7.9C92.1,93.3,99.7,105.9,95.9,113.4z M114.8,82.1c-0.4,0-0.9,0-1.4,0c4.6,3.5,6.5,7,2.5,9.5 c-1.6,1-3.6,1.5-5.7,1.5c-7.3,0-16.9-5.3-24.4-11c-3-3.3-6-6-8.5-7.9c2-2.6,3.2-5.8,3.4-9.2c0.8,0,1.6,0.1,2.5,0.1 c2.5,0,5.7-0.2,9.1-0.6c12.2,0.5,26.6,4,29.2,12.1C122.8,80.5,119.8,82.1,114.8,82.1z"/>
</svg>