<svg viewBox="0 0 128 128" xmlns="http://www.w3.org/2000/svg">
  <path d="M106.1,77.6c0.3-6.4-0.6-14.5-5-19.5c-8.6-9.9-25-12.2-32.8-12.7c3.6-9.8,9.6-16.3,8.2-27.3V18c-1.4-7.1-6.6-11.4-11-13.7 c-0.5-0.3-1,0.4-0.6,0.9c2.6,2.9,4.2,7.3,3.9,13.3c-0.2,5.7-1.6,10.6-4.4,15.9c-2.3,4.2-4.1,7.8-5.1,11c-2.3,0.2-5.4,0.5-8.7,1.1 c2.4-7.5,7.3-11.7,6.5-19.6c-0.8-4.6-4.1-7.5-6.9-9.1c-0.3-0.2-0.7,0.2-0.4,0.6c1.7,1.9,2.6,4.8,2.3,8.7c-0.3,3.7-1.2,6.9-3.1,10.3 c-2.5,4.3-4.1,7.7-4.2,10.6c-6.4,1.9-13.1,5-17.7,10.2c-4.6,5-5.4,13.1-5.1,19.4C10.9,82.5,4,89.4,4,96.9c0,15,26.9,27.1,60,27.1 s60-12.1,60-27.1C124,89.4,117.1,82.5,106.1,77.6z M22,78.6c0,0.7,0.1,1.3,0.2,2C22.1,80,22.1,79.3,22,78.6z M104.3,80.5 c-0.4,4-2.7,17.7-13.8,24.3c-5,3-15.4,6.2-26.5,6.2s-21.4-3.2-26.5-6.2c-11-6.5-13.3-20.2-13.7-24.3c-0.5-4.5-1-15.3,4.3-21.3 c4.2-4.9,10.5-7.8,16.6-9.6c0.1,0.3,0.1,0.7,0.2,1c2,6,7.4,7.5,10.5,8.3c0.3,0.1,0.6-0.4,0.3-0.6c-2.2-2-5.7-6.1-5.5-10 c3.2-0.6,6.2-1,8.5-1.1C58,50,57.9,52.6,58.8,55c0.8,2.3,1.9,4.1,3.2,5.6C45.5,61,32.5,65.4,32.5,70.9V71c5.2,4.8,16,8.2,31.1,8.2 c16.4,0,27.2-3.5,32.1-8.4c-0.2-4.9-10.9-8.9-25.1-9.9c-2.6-3.5-4.5-7.7-3.4-11.7c0.2-0.7,0.4-1.4,0.6-2.1 c7.4,0.4,23.7,2.5,32.2,12.2C105.4,65.5,104.7,77.1,104.3,80.5z"/>
</svg>