<?xml version="1.0" encoding="utf-8"?>
<!-- Generator: Adobe Illustrator 25.0.0, SVG Export Plug-In . SVG Version: 6.00 Build 0)  -->
<svg version="1.1" id="Layer_4" xmlns="http://www.w3.org/2000/svg" xmlns:xlink="http://www.w3.org/1999/xlink" x="0px" y="0px"
	 viewBox="0 0 128 128" style="enable-background:new 0 0 128 128;" xml:space="preserve">
<g>
	<path d="M122.3,86.3h1.8v-3.4c0-2.4-0.4-2.8-3-2.8l-47.9-0.3l-0.3-14.6c0-4-1.6-5.9-4.2-5.9l-19.7,0c-2.5,0-4.8,1.3-6.2,3.4L32,80
		l-19,3c-4,1-5,3-6,7c-0.2,1-0.5,2.2-0.8,3.6h4.1c1.1,0,2,0.9,2,2l-1,4.2c0,1.1-0.9,2-2,2H4.4c-0.2,0.9-0.3,1.4-0.3,1.4
		c-1,5.8,2,6.8,6.3,6.8h5.8c-0.1,0.7-0.2,1.3-0.2,2c0,5.5,4.5,10,10,10c5.5,0,10-4.5,10-10c0-0.7-0.1-1.4-0.2-2h60.5
		c-0.1,0.7-0.2,1.3-0.2,2c0,5.5,4.5,10,10,10s10-4.5,10-10c0-0.7-0.1-1.4-0.2-2h2.2c3.3,0,6-0.9,6-6.8V92.7h-1.8
		c-0.9,0-1.6-0.7-1.6-1.6v-3.2C120.7,87,121.5,86.3,122.3,86.3z M26,117.7c-3.1,0-5.7-2.5-5.7-5.6s2.5-5.7,5.7-5.7
		c3.1,0,5.6,2.5,5.6,5.7S29.1,117.7,26,117.7z M39.2,77l7.6-12.2c0.3-0.5,0.9-0.8,1.5-0.8H67c1,0,1.8,0.8,1.8,1.8V78
		c0,1-0.8,1.8-1.8,1.8H40.7C39.3,79.8,38.5,78.2,39.2,77z M68.7,89.9c0,0.5-0.4,0.9-0.9,0.9h-4.7c-0.5,0-0.9-0.4-0.9-0.9v-0.6
		c0-0.5,0.4-0.9,0.9-0.9h4.7c0.5,0,0.9,0.4,0.9,0.9V89.9z M72.8,102.2c-0.2,2.2-0.4,4.5-0.8,6.8c-0.4-2.2-0.6-4.5-0.8-6.8
		c-0.2-2.2-0.2-4.5-0.2-6.8c0-2.2,0.1-4.5,0.2-6.8c0.1-2.2,0.4-4.5,0.8-6.8c0.4,2.2,0.6,4.5,0.8,6.8C73,91,73,93.2,73,95.5
		C73,97.8,73,100,72.8,102.2z M106.1,117.7c-3.1,0-5.7-2.5-5.7-5.6s2.5-5.7,5.7-5.7s5.7,2.5,5.7,5.7S109.3,117.7,106.1,117.7z"/>
</g>
</svg>
