<svg viewBox="0 0 128 128" xmlns="http://www.w3.org/2000/svg">
  <g>
    <path d="M66.3,23.4c0.5,0.2,1.2-0.2,1.5-1c0.3-0.8,0.2-1.6-0.3-1.8c-0.5-0.2-1.2,0.2-1.5,1S65.8,23.2,66.3,23.4z"/>
    <path d="M67.2,19.8c1.3,0,2.3,1.4,2.6,1.5c0.2,0.1,0.4-0.3,0.2-0.8c-0.2-0.4-0.4-1.2-1.4-1.7c-1-0.6-1.7-0.4-2-0.1 C66.2,19.1,66.2,19.8,67.2,19.8z"/>
    <path d="M87.8,20c-0.8-4.7-4.3-8.5-8.8-10.1c-0.7-0.2-2.5-0.7-4.5-0.7c-1.6,0-3.3,0.2-4.8,1c-1.5,0.7-2.9,1.6-4,2.8 c-0.6,0.7-1.6,1.9-1.5,3c0.1,0.6,0.4,1,0.8,1.2c-0.2,0.5-0.4,1-0.5,1.4c0,0.1-0.2,1.1-0.3,1.4c-0.3,1.1-2.9,1.2-3.6,2.2 c-0.6,0.8,0.9,2.2,1,2.4c0.1,0.3,0,0.7-0.1,1.2l0,0l0,0l-0.2,0.9L61.1,27c0,0,0,0,0,0c0,0.2,0,0.5,0,0.8l-4.7-7.6l-1.3-5.5 c-0.1-0.6-0.4-1.1-0.7-1.6l-1.7-2.4c-0.2-0.3-0.5-0.6-0.8-0.9c-0.5-0.4-1.4-1.1-2-1.5c0-1.5,0-3,0-4.4h-1.6c0,1.2,0,2.6,0,4 c0,0,0,0,0,0C48,8,47.8,8.1,47.6,8.3L45.3,4H31.9h-1H18.7h-4.6H4v61.4V124h0.1H20h1.7H31h5.3H43l-2.8-9.4l-2.6-16.2l-1.3-8.2l0-0.1 l2.5,3c0.2,0.2,0.5,0.4,0.8,0.4c0.2,0,0.5-0.1,0.6-0.2l1.8-1.5c1.1-0.9,1.5-2.8,1.6-3.4l0.1,0l2-4.9l6.8-16l4.5,1L56.7,70l6.2,1.1 l-2.5,4.1l0.9,0.6C59,79.7,57,83.2,56.5,84c-1.1,1.9-0.5,4.5-0.5,4.5l5.1,17.6l-0.1,0l0.7,2.1l0.1,0.4l0,0l1.6,4.5l-2.5,1.4 l-2.7,2.9c-1.1,1.2-1.3,2.8-0.7,4.2l0.5,1.1c0.2,0.3,0.5,0.5,0.9,0.5c0.1,0,0.3,0,0.4-0.1l13.4-6.6c0.5-0.3,0.8-0.9,0.5-1.5 l-1.2-2.4c-0.5-1-1.6-1.7-2.4-2.2l-0.9-4.6l-3.2-18.7l4.1-5.7l1.5,1l8.8-13.1c1.2-1.8,1.4-3.9,0.8-5.8c0,0,0,0,0,0 c0.9-1.2,0-4.8-0.2-4.1c0,0,0,0.1,0,0.1C80,54,78.7,47,76.9,41c0-1.1-0.5-2.2-1.4-3.1c-0.2-0.3-0.5-0.7-0.7-1 c-0.1-1.1,0.2-2.9,2-4.6c1.1,0.5,2.5,0,3.7-0.4c0.8-0.2,1.4-0.7,1.9-1.3C85,29.3,88.7,25.6,87.8,20z M44.4,44.4 C44.4,44.4,44.4,44.4,44.4,44.4c-0.1-0.1-0.3-0.4-0.3-0.4s-0.7-0.7-0.9-1.4c0,0,0-0.1,0-0.1c0-0.1,0-0.1,0-0.1l0,0l-4.2-1.8 c-0.3-0.1-0.6-0.3-0.5-0.8c0.1-0.2,0.2-0.3,0.3-0.3c0.2-0.1,0.4,0,0.5,0c0,0,0,0,0,0c0,0,4,1.2,4.4,1.4c0,0,0,0,0,0 c0.1-0.3,0-0.1,0.1-0.3c0-0.2-0.1-0.3-0.3-0.4l-1.6-0.5c-0.1-0.2-0.2-0.3-0.3-0.5c-0.1-0.3-0.3-0.5-0.5-0.6L39.4,37 c-0.2-0.2-0.6-0.3-0.9-0.2c-0.1,0-0.2,0-0.3,0l-0.8-0.9c0,0,0,0,0,0c0.1-0.2,0.2-0.2,0.4-0.2c0.4,0,1.2,0,2.2,0.2 c0.2,0,0.4,0.1,0.6,0.2l2,1c0.3,0.2,0.5,0.4,0.7,0.7l2.3,3.5l0.2,0.6c0,0,0,0,0,0c0,0,0,0,0,0l0,0c0,0,0.2,0,0.2,0l8.2,1.9l2,0.5 l1.3,0.3c0,0,0,0,0,0c0.1,0,0.2,0,0.3,0l2.5-0.9l1.9,4.8l-3.1,1.1l-0.6,0.2c0,0,0,0,0,0c0,0-0.1,0-0.1,0c-0.3,0.1-0.6,0.2-0.9,0.1 c-0.3,0-0.5,0-0.8-0.1c0,0-0.1,0-0.1,0L45.2,45C44.9,44.8,44.7,44.7,44.4,44.4z M50.2,15.5c0.1,0,0.1-0.1,0.1-0.1 c0.1,0,0.2,0.1,0.4,0.3c0,0,0,0,0,0l0.2,0.4c0.1,0.4,0.2,0.9,0.2,1.4l-0.8-1.5C50.2,15.8,50.2,15.6,50.2,15.5L50.2,15.5 C50.2,15.5,50.2,15.5,50.2,15.5z M51.2,19.7c0,1.5,0.4,2.5,0.6,2.9c0,0.1,0,0.2,0.1,0.2l6,13.5c0,0,0,0,0,0.1 c0.3,0.6,0.7,1.2,1.3,1.5l2.9,1.9l-0.5,0.9L62,41c0,0.1,0,0.2,0,0.3l-2.1,0.8l0.2,0.5l-2.4,0.9l-1.9-0.4c-1.2-2.8-2.4-6.2-3.4-10.2 c-1.2-5-1.9-10.1-2.3-15L51.2,19.7z M62,27.3c0.5,0.1,0.9,0.2,1.4,0.1c0.9-0.2,0.7-0.9-0.2-0.9c-0.3,0-0.7-0.1-1-0.3 c0,0,0-0.1,0-0.1c0.2-0.7,0.3-1.2,0.1-1.8c-0.1-0.2-0.2-0.4-0.4-0.6c-0.4-0.5-0.6-0.9-0.7-1.1c0.3-0.2,0.9-0.5,1.4-0.6 c1-0.3,2-0.7,2.4-1.7c0.1-0.3,0.2-0.7,0.3-1.4l0-0.1c0.1-0.4,0.2-0.8,0.4-1.2c1.1,0.4,2.9,0.9,3.4,1.2c1.4,0.9,1.6,2.6,1.8,3 c0.2,0.6,0.4,1.1,0.7,1.5c0,2-0.1,6-0.5,6.5c-0.6,0.9-2.6,1.5-3.8,1.8c-0.1-0.2-0.3-0.3-0.5-0.5c-0.1-0.1-0.2-0.1-0.4-0.1 c-1.2-0.2-2.7-0.6-3.1-0.9C62.2,29.1,62,28.2,62,27.3z M75,24.7c0.5-0.5,1.2-0.8,1.9-0.2c0,0,0,0,0,0c1,0.8,0.8,1.8,0.1,2.7 c-0.3,0.4-0.7,0.8-1.2,1.1c-1.5,1-1.9,0-2,0.6c0,0,0,0,0,0c0,0,0,0,0,0c0,0.1,0,0.3,0,0.4c0,0,0,0,0,0.1c0,0.1,0.1,0.3,0.2,0.5 c0,0,0,0,0,0c0,0.1,0.1,0.2,0.2,0.3c-0.5,0.2-1,0.2-1.3,0C72.1,29.3,73.8,26.5,75,24.7z M66.4,31.8C66.4,31.8,66.4,31.8,66.4,31.8 C66.4,31.8,66.4,31.8,66.4,31.8C66.4,31.8,66.4,31.8,66.4,31.8c-0.2,0.1,0.1,0.4,0.5,0.6L66,33.7l-1.9-1.2l-1-1.6l0,0 C64.1,31.4,66.4,31.8,66.4,31.8z M62.7,49.3l0.1,0.2c0.3,1.7,0.6,3.3,0.8,5c-0.8-0.6-2.1-1.9-3.7-4.2L62.7,49.3z M70.7,34.7 L67.9,33c0,0,0-0.1,0-0.1c0,0,0,0,0,0c0.5-0.1,3.7,0.3,7.4-1.4c0.1,0,0.1-0.1,0.2-0.1c0.2,0.2,0.4,0.4,0.6,0.5 c-1.4,1.4-2,2.9-2.1,4.2C73,35.3,71.9,34.8,70.7,34.7z M48.2,9.2C48.2,9,48.3,9,48.5,8.9c0.2,0,0.2,0,0.5,0.1 c0.4,0.2,1.2,0.8,2.2,1.7c0.2,0.2,0.5,0.4,0.7,0.7l1.7,2.4c0.3,0.4,0.5,0.8,0.6,1.2l1.2,5.2c0.1,0.1,0.1,0.2,0.2,0.4c0,0,0,0,0,0 l0,0l7.8,12.6c0,0.1,0.1,0.1,0.2,0.2l2,1.3l-1.8,2.8c-0.4,0.5-0.8,1.1-1.1,1.7l-2.9-1.9c-0.4-0.3-0.8-0.7-1-1.2c0,0,0,0,0-0.1 l-6-13.4c0,0,0-0.1,0-0.1c0,0,0,0,0-0.1c-0.1-0.4-0.6-1.9-0.6-2.9c0.1-1.8-0.1-2.9-0.3-3.7c-0.1-0.3-0.1-0.5-0.1-0.8 c0-0.3-0.1-0.6-0.2-0.9l-1.3-2.7c-0.2-0.3-0.4-0.6-0.7-0.7c-0.6-0.3-1.1-0.6-1.2-0.9C48.1,9.6,48.1,9.4,48.2,9.2z M43.2,25.5 l5.4-7.7c0.4,5,1.1,10.3,2.3,15.4c0.9,3.7,1.9,6.8,3,9.4l-7.1-1.6l-2.6-3.9c-0.3-0.4-0.6-0.8-1.1-1l-2-1c-0.3-0.2-0.6-0.3-1-0.3 c-0.8-0.1-1.8-0.2-2.4-0.2c-0.1,0-0.2,0-0.2,0L43.2,25.5z M32.1,66.8l5.2-9.3l0,0l-3.5-11l4.5-8.7c0.1,0,0.2,0,0.3,0 c0,0,0.1,0,0.1,0l1.6,1.3l-0.8-0.2c-0.4-0.2-0.8-0.2-1.1,0s-0.6,0.4-0.7,0.7c-0.3,0.7,0.1,1.3,0.9,1.6l3.5,1.5c0,0,0,0.1,0,0.1 c0.5,1.9,1.3,2.3,2.1,2.9l0.3,0.2c0,0,0,0,0,0l11.7,4.9c0.1,0,0.1,0,0.2,0c0.3,0.1,0.7,0.1,1,0.1c0.2,0,0.4,0,0.6-0.1 c2.7,4,5,5.4,5.1,5.5c0,0,0,0,0.1,0c-0.1,0.4-0.1,1-0.1,1.4c0,0,0,0,0,0l-4.5-0.6l-0.2,1.2l-7.8-1c-0.2,0-0.4,0-0.7,0 c-2.2,0-4.4,1.4-5.1,3.6c-0.2,0.6-4.1,12.8-5.7,18.2L39.1,79l-0.8,3.3l-3.4-1.9c-0.5-0.3-1.1-0.4-1.7-0.4c-0.5,0-1,0.1-1.4,0.3 L32.1,66.8z M43.2,87.1l-0.6-0.2l-3.3-3.9l-0.1-0.1l0.6-2.5l5.3,1.9L43.2,87.1z M52.7,66.4c-0.1,0-0.1,0-0.2,0 c-0.4,0-0.8,0.2-0.9,0.6l-6,14.3l-5.3-1.9c1.7-5.4,5.5-17.6,5.8-18.2c0.5-1.7,2.3-2.9,4.2-2.9c0.2,0,0.4,0,0.5,0l7.8,1l-1.4,8 L52.7,66.4z M62.3,106.8l5.5-1.3l0.9,4.6l-4.3,2.5L62.3,106.8z M64.8,86.5c-0.2,0.2-0.2,0.5-0.2,0.8l3,17.3l-5.5,1.3L57,88.3 c0,0-0.5-2.2,0.4-3.8l4.7-8.1l6.8,4.4L64.8,86.5z"/>
  </g>
</svg>