<svg viewBox="0 0 128 128" xmlns="http://www.w3.org/2000/svg">
  <path d="M93.2,66.2c5.7-5.4,9.2-12.7,9.2-20.7c0-16.6-15-30.1-33.5-30.1H31.1c-1.2,0-2.2,1-2.2,2.2v101c0,1.2,1,2.2,2.2,2.2h42.6 c18.5,0,33.5-13.5,33.5-30.2C107.2,80.5,101.7,71.6,93.2,66.2z M52.9,36c0-0.1,0-0.1,0.1-0.2c0.1-0.2,0.2-0.3,0.4-0.3h14 c5.6,0,10.2,4.8,10.2,10.7c0,5.8-4.6,10.6-10.2,10.6h-14c-0.2,0-0.4-0.1-0.4-0.3c0-0.1-0.1-0.1-0.1-0.2V36z M69.2,101.2 c-0.4,0.1-0.7,0.1-1,0.1H53.5c0,0-0.1,0-0.1-0.1c-0.2-0.1-0.4-0.2-0.4-0.5V77.1c0-0.2,0.2-0.4,0.4-0.5l0.1-0.1h14.8 c0.3,0,0.6,0,0.8,0.1c5.8,0.5,10.5,5.8,10.5,12.3S75,100.7,69.2,101.2z"/>
</svg>