<svg viewBox="0 0 128 128" xmlns="http://www.w3.org/2000/svg">
  <g>
    <path d="M64,6.1C32.8,6.1,4,26.1,4,64c0,37.7,28.8,57.9,60,57.9s60-20.7,60-57.9C124,26.6,95.2,6.1,64,6.1z M103,103.9 c-10.2,9-24.1,14-39,14c-15,0-28.9-4.9-39-13.8C13.9,94.3,8,80.5,8,64c0-16.5,5.9-30.4,17-40.2c10.1-8.9,24-13.7,39-13.7 c15,0,28.9,5,39,13.9c11.1,9.8,17,23.6,17,40C120,80.3,114.1,94.1,103,103.9z"/>
    <path d="M44.1,36.9c0,0,0.1,0,0.1,0c1.5-0.1,2.3-1.3,2.3-2.4c0-1-0.6-2.1-2.1-2.3c-2-0.2-4-0.2-6,0.2 c-5.4,1-10.2,4-13.3,8.3c-0.9,1.2-0.5,2.4,0.3,3.1c0.4,0.4,1,0.6,1.6,0.6c0.6,0,1.2-0.2,1.7-0.7C32.8,39.9,38.4,37.4,44.1,36.9z"/>
    <path d="M88.6,32.4c-2-0.4-4-0.4-6-0.2c-1.5,0.2-2.1,1.3-2.1,2.3c0,1.1,0.8,2.3,2.4,2.4l0.1,0c5.7,0.5,11.3,3,15.3,6.8 c0.5,0.5,1.1,0.7,1.7,0.7c0.6,0,1.2-0.2,1.6-0.6c0.8-0.7,1.2-1.9,0.3-3.1C98.8,36.5,93.9,33.4,88.6,32.4z M82.9,36.4L82.9,36.4 L82.9,36.4L82.9,36.4z"/>
    <path d="M98.2,53.6c-1.3-0.5-2.8-0.1-3.7,0.8c0,0-0.1,0.1-0.2,0.2c-0.1,0.1-0.4,0.4-0.5,0.5c-0.2,0.2-0.4,0.3-0.7,0.6 c-0.3,0.2-0.6,0.5-1,0.7c-0.4,0.2-0.8,0.5-1.2,0.7c-0.4,0.2-0.9,0.4-1.4,0.6c-0.5,0.2-1,0.3-1.5,0.4c-0.5,0.1-1,0.1-1.6,0.1h0h-0.2 l-0.3,0c-0.3,0-0.3,0-0.4,0c-0.2,0-0.4,0-0.7-0.1c-0.5-0.1-1-0.2-1.5-0.4c-0.5-0.2-1-0.3-1.4-0.6c-0.4-0.2-0.8-0.4-1.2-0.7 c-0.7-0.5-1.3-1-1.7-1.3c-0.4-0.4-0.6-0.6-0.6-0.6l-0.2-0.2C77,53,75,53,73.7,54c-1,0.9-1.3,2.2-0.8,3.2c0,0,0,0.1,0.1,0.3 c0.1,0.2,0.2,0.5,0.4,0.8c0.4,0.7,1.1,1.7,2.2,2.8c0.5,0.5,1.2,1.1,1.9,1.6c0.7,0.5,1.6,1,2.5,1.4c0.9,0.4,2,0.8,3,1 c0.5,0.1,1.1,0.2,1.7,0.3c0.3,0,0.7,0.1,0.8,0.1l0.8,0c1.1,0,2.2-0.1,3.3-0.3c1.1-0.2,2.1-0.6,3-1c0.9-0.4,1.8-0.9,2.5-1.4 c0.8-0.5,1.4-1,1.9-1.6c0.5-0.5,1-1,1.3-1.5c0.2-0.2,0.3-0.5,0.5-0.7c0.1-0.2,0.3-0.4,0.4-0.6c0.3-0.4,0.3-0.6,0.4-0.8 c0.1-0.2,0.1-0.2,0.1-0.2C100.7,55.9,99.9,54.2,98.2,53.6z"/>
    <path d="M50.4,62.8c0.8-0.5,1.4-1,1.9-1.6c0.5-0.5,1-1,1.3-1.5c0.2-0.2,0.3-0.5,0.5-0.7c0.1-0.2,0.3-0.4,0.4-0.6 c0.3-0.4,0.3-0.6,0.4-0.8c0.1-0.2,0.1-0.2,0.1-0.2c0.7-1.5-0.1-3.2-1.8-3.8c-1.3-0.5-2.8-0.1-3.7,0.8c0,0-0.1,0.1-0.2,0.2 c-0.1,0.1-0.4,0.4-0.5,0.5c-0.2,0.2-0.4,0.3-0.7,0.6c-0.3,0.2-0.6,0.5-1,0.7c-0.4,0.2-0.8,0.5-1.2,0.7c-0.4,0.2-0.9,0.4-1.4,0.6 c-0.5,0.2-1,0.3-1.5,0.4c-0.5,0.1-1,0.1-1.6,0.1h0h-0.2l-0.3,0c-0.3,0-0.3,0-0.4,0c-0.2,0-0.4,0-0.7-0.1c-0.5-0.1-1-0.2-1.5-0.4 c-0.5-0.2-1-0.3-1.4-0.6c-0.4-0.2-0.8-0.4-1.2-0.7c-0.7-0.5-1.3-1-1.7-1.3c-0.4-0.4-0.6-0.6-0.6-0.6l-0.2-0.2C32,53,30,53,28.7,54 c-1,0.9-1.3,2.2-0.8,3.2c0,0,0.1,0.1,0.2,0.3c0.1,0.2,0.2,0.5,0.4,0.8c0.4,0.7,1.1,1.7,2.2,2.8c0.5,0.5,1.2,1.1,1.9,1.6 c0.7,0.5,1.6,1,2.5,1.4c0.9,0.4,2,0.8,3,1c0.5,0.1,1.1,0.2,1.7,0.3c0.3,0,0.7,0.1,0.8,0.1l0.8,0c1.1,0,2.2-0.1,3.3-0.3 c1.1-0.2,2.1-0.6,3-1C48.8,63.7,49.7,63.3,50.4,62.8z"/>
    <path d="M79,86c-0.3,0-0.5,0-0.8,0.2c-4.3,1.7-8,4.1-14.2,4.1c-6.2,0-9.9-2.5-14.2-4.1C49.5,86.1,49.2,86,49,86 c-0.8,0-1.4,0.5-1.8,1.3c-0.5,1.1-0.3,2.6,0.4,3.9c1.8,3.5,7.9,9.8,16.5,9.8s14.6-6.3,16.5-9.8c0.7-1.3,0.9-2.8,0.4-3.9 C80.5,86.5,79.8,86,79,86z"/>
  </g>
</svg>