<svg viewBox="0 0 128 128" xmlns="http://www.w3.org/2000/svg">
  <g>
    <path d="M68.1,58.3V38.6c0-2.1-1.7-3.8-3.8-3.8h-0.4c-2.1,0-3.8,1.7-3.8,3.8v19.6C58.2,59.4,57,61.6,57,64s1.2,4.5,3,5.7v30.6 c0,2.1,1.7,3.8,3.8,3.8h0.4c2.1,0,3.8-1.7,3.8-3.8V69.7c1.8-1.3,3-3.4,3-5.7S69.9,59.6,68.1,58.3z M64,67c-1.7,0-3-1.3-3-3 s1.3-3,3-3s3,1.3,3,3S65.7,67,64,67z"/>
    <circle cx="15.9" cy="64.1" r="4"/>
    <circle cx="63.9" cy="16.1" r="4"/>
    <circle cx="63.9" cy="112.1" r="4"/>
    <circle cx="111.9" cy="64.1" r="4"/>
    <path d="M64,4C30.9,4,4,30.9,4,64s26.9,60,60,60s60-26.9,60-60S97.1,4,64,4z M64,120C33.1,120,8,94.9,8,64S33.1,8,64,8 s56,25.1,56,56S94.9,120,64,120z"/>
  </g>
</svg>