<svg viewBox="0 0 128 128" xmlns="http://www.w3.org/2000/svg">
  <g>
    <path d="M83.1,55.5c0-0.1-0.1-0.2-0.1-0.2v-0.4c0-2.7-1.9-4.9-4.5-4.9h-1l19.3-28.2L81.6,4.5h-8.3h-9h-0.1H51.8h-4.9 h-0.1v0.1L31.7,21.8l2.2,3.2l17,25h-0.6c-2.7,0-5.2,2.2-5.2,4.9v0.2c-11,6.4-18.3,18.4-18.3,32.1c0,20.5,16.7,37.1,37.2,37.1 s37-16.6,37-37.1C101,73.8,93.8,62,83.1,55.5z M80.6,8l12.1,13.8H78.9h-1h-0.7l-0.1-0.1L80.6,8z M64.1,4.6L77,21.7v0.1h-0.3H51.3 L64.1,4.6z M35.7,21.8l12-13.7l3.5,13.7H51H35.7z M63.9,121.3c-18.9,0-34.2-15.3-34.2-34.1c0-12.1,6.4-23.4,16.8-29.5 c0.9-0.5,1.5-1.5,1.5-2.6v-0.2c0-0.9,1.2-1.9,2.2-1.9h28.2c1,0,1.5,0.9,1.5,1.9v0.4c0,0.6,0.2,1.1,0.4,1.6s0.6,0.9,1.1,1.2 C91.8,64.3,98,75.2,98,87.2C98,106,82.7,121.3,63.9,121.3z"/>
    <path d="M64,58.9c-16.3,0-29.6,13-29.6,29s13.3,29,29.6,29s29.6-13,29.6-29S80.3,58.9,64,58.9z M64,113.9 c-14.7,0-26.6-11.6-26.6-26c0-14.4,11.9-26,26.6-26s26.6,11.6,26.6,26C90.6,102.3,78.7,113.9,64,113.9z"/>
  </g>
</svg>