<svg viewBox="0 0 128 128" xmlns="http://www.w3.org/2000/svg">
  <path d="M115.8,61.9c-1.5-1.6-4.4-2.6-7.8-2.6c-1.8,0-3.8,0.3-5.7,0.8c-2.9,0.8-7,7.4-10.6,11.4l0,0c-0.2,0.3-0.5,0.5-0.7,0.7 c0,0-0.1,0.1-0.1,0.1c-0.2,0.2-0.4,0.4-0.6,0.6c0,0-0.1,0.1-0.1,0.1c-0.1,0.1-0.3,0.3-0.4,0.4c-0.3,0.2-0.7,0.4-1,0.4 c-1,0-1.9-0.8-1.8-1.9c0-0.5,0.1-1.2,0.2-1.8c0,0,0,0,0,0c1.1-12.9,4-49,4-49c0.5-5.3-2.3-9.9-7.5-9.9h-0.2 c-4.2,0.1-6.9,3.9-7.4,8.4l-4.4,35.8c0,0.5-0.4,0.8-0.8,0.8h0h0c-0.5,0-0.8-0.4-0.8-0.9l-1-41.9c0-4.5-2-8.5-6.1-9.2 c-0.4-0.1-0.8-0.1-1.2-0.1c-4.5,0-7.4,4-7.4,9l-1,41.5c0,1-0.7,1.8-1.7,1.9h0h-0.1c-0.9,0-1.7-0.8-1.8-1.8c0,0-2.5-29.9-2.8-34.2 c-0.3-4.2-2.4-9-7.4-9c-0.1,0-0.3,0-0.4,0c-5.3,0.3-6.7,4.5-6.7,9.3c0,4.1,1.3,26.9,1.6,33.5c0.1,1-0.7,1.8-1.7,1.9c0,0-0.1,0-0.2,0 c-0.9,0-1.6-0.6-1.8-1.4l-4-18.8c-1-4.6-3-7.8-7.1-7.8h-0.2c-5.2,0.1-7.9,4.5-7.1,9.8l3.9,32c0,0,2.1,20.5,3,29 c0.9,8.5,7.7,24.8,34.9,24.8c35.1,0,36.6-20.9,40.7-28.8c3.8-7.4,13.6-20.7,19.4-22.6C117.8,71.3,117.8,64,115.8,61.9z M113.8,68.5 c-0.2,0.7-0.5,1.1-0.8,1.2c-7.4,2.3-17.6,17-21.2,24c-0.7,1.4-1.3,3-1.9,4.7c-1.7,4.5-3.8,10.1-8.8,14.6c-6,5.4-15,7.9-27.3,7.9 c-11.1,0-19.6-2.8-25.2-8.3c-5.3-5.2-6.5-11.4-6.7-13.8c-0.9-8.4-3-28.8-3-29c0,0,0,0,0-0.1l-3.9-32c0,0,0-0.1,0-0.1 c-0.3-2,0-3.8,1-5c0.7-0.9,1.8-1.3,3.2-1.4h0.1c0.9,0,3,0,4.1,5.4l4,18.8c0.5,2.2,2.5,3.8,4.7,3.8c0.1,0,0.3,0,0.4,0 c2.6-0.2,4.6-2.5,4.4-5.1c-0.8-14-1.6-30.1-1.6-33.3c0-6.1,2.4-6.3,3.8-6.3c0.1,0,0.2,0,0.3,0c3.8,0,4.3,5.2,4.4,6.2 c0.3,4.2,2.7,32.5,2.8,34.2c0.2,2.6,2.2,4.6,4.8,4.6c0.1,0,0.2,0,0.3,0c2.5-0.1,4.5-2.3,4.5-4.8l1-41.5V13c0-1.8,0.5-3.4,1.4-4.5 c0.8-1,1.8-1.5,3-1.5c0.2,0,0.5,0,0.8,0.1c3.4,0.5,3.6,5.3,3.6,6.2v0.1l1,41.8c0,2.1,1.7,3.8,3.8,3.9h0.1c2,0,3.6-1.5,3.8-3.5 l4.4-35.7c0,0,0,0,0-0.1c0.3-2.8,1.8-5.6,4.5-5.7h0.1c1.3,0,2.3,0.4,3.1,1.3c1.1,1.2,1.6,3.1,1.4,5.3v0.1c0,0.4-3.1,39-4.2,50.3 c-10.4,4.3-17.1,15-20.5,26.4c-0.5,1.9,1.3,2.4,1.8,0.6c3.1-10.4,11-18.5,21-21.9c0.7,0.4,1.6,0.7,2.5,0.7c1.1,0,2.3-0.4,3.1-1.2 c0.5-0.4,1-0.9,1.4-1.4c0,0,0.1-0.1,0.1-0.1c1.3-1.4,2.6-3.1,4-4.9c1.7-2.2,4.5-5.8,5.7-6.2c1.6-0.5,3.3-0.7,4.9-0.7 c3,0,4.9,0.9,5.5,1.6C114,64.4,114.5,66.6,113.8,68.5z"/>
</svg>