<svg viewBox="0 0 128 128" xmlns="http://www.w3.org/2000/svg">
  <g>
    <path d="M108.4,112.5h1.3l3.7-0.1c-1.5-2.3-3.7-4.4-6.4-6.3l0,0c0,0-0.1-0.1-0.3-0.2c-2.2-1.5-4.7-2.8-7.4-3.9 c1.2-5.9,1.1-12.4-0.1-19.3c-0.6-3.5-1.4-7.7-2.6-12.2c5.5-5.9,8.8-13.6,8.8-22.5c0-1.9-0.2-3.7-0.4-5.6c0.8-1.4,2-4,3-7.8 c0.4-1.4,0.5-2.8,0.5-4.2C108.3,17.2,89.7,4,64.1,4C39.7,4,21.5,16.1,19.6,28.6c-0.1,0.6-0.2,1.2-0.2,1.8c0,1.4,0.1,2.7,0.5,4.1 c1.2,4.4,2.4,7.1,3,8.3c-0.2,1.7-0.4,3.4-0.4,5.1c0,8.9,3.3,16.6,8.8,22.5c-1.2,4.5-2,8.8-2.6,12.2c-1.2,6.9-1.3,13.2-0.2,19 c-3,1.2-5.7,2.6-8,4.3l0,0l0,0c-2.6,1.9-4.7,4-6.2,6.4l3.6,0.1h1.6l3,5.5l-4.2,5.9h91.3l-4.2-5.9L108.4,112.5z M79.4,108.4 c-0.2-0.1-0.4-0.1-0.6-0.1c-0.4,0-0.9,0.2-1.2,0.4l-9.4,7.4l6.3-17.7l5.1,0.6l5.5,11.1L79.4,108.4z M51.3,108.6 c-0.4-0.3-0.8-0.5-1.3-0.5c-0.2,0-0.4,0-0.6,0.1l-6.5,1.9L48.4,99l5.1-0.6l6.1,17.2L51.3,108.6z M64.1,29.5H64 c-12.5,0-23.1,1.7-31.5,5c-1.7,0.7-3.2,1.4-4.4,2c0-0.3,0-0.6,0.1-0.9v-0.1c0.2-1.1,0.8-2.1,1.7-2.8c1.9-1.5,5.8-4.2,11.9-6.4 c0.8-0.3,1.6-0.6,2.5-0.8c3.6-1.1,7.8-2,12.7-2.5c1,2.7,4.4,6.3,7.3,6.3c2.9,0,6.3-3.6,7.3-6.2c4.8,0.5,9.1,1.4,12.6,2.6 c0.6,0.2,1.1,0.4,1.6,0.5c6.4,2.3,10.7,5.1,12.7,6.6c0.9,0.7,1.5,1.7,1.7,2.8c0.1,0.4,0.1,0.8,0.1,1.2c-1.3-0.7-2.9-1.5-4.7-2.2 C87.1,31.2,76.6,29.5,64.1,29.5z M56.6,15.1c-0.1-0.2-0.1-0.4,0-0.6l0.1-0.2c0.8,1.1,1.9,1.6,3.4,1.6c1.9,0,3.1-1.6,3.7-2.5 c0,0,0,0,0.1,0l0,0c0.6,0.8,1.9,2.5,3.8,2.5c1.5,0,2.6-0.5,3.4-1.6l0.1,0.2c0.1,0.2,0.2,0.4,0.1,0.6c-0.5,0.9-0.8,2-0.8,3v3.5 c0,2.1-3.8,6.7-6.7,6.7c-2.8,0-6.6-4.6-6.6-6.7v-3.5C57.4,17.1,57.1,16,56.6,15.1z M33,58.9c0.4-4.9,0.3-11.9,6.4-13.2 c2.2-0.5,4.3-1.1,6.3-1.7c0.6,0.1,1.2,0.2,1.9,0.3c1.5,0.3,3.1,0.5,4.9,0.7c3.4,0.4,7.2,0.6,11.4,0.6c4.3,0,8.2-0.3,11.7-0.7 c1.7-0.2,3.3-0.4,4.8-0.7c2.7-0.5,5.1-1,7.2-1.6c1.7,1.3,3.2,2.3,4.2,3.1c1.5,1.1,2.7,6.6,3.4,11.9c-0.1,2.2-0.3,4.3-0.6,6.2 c-0.3,1.9-0.8,3.8-1.3,5.5c-0.1,0.2-0.1,0.4-0.2,0.6c-0.7,2.1-1.5,4-2.4,5.8C86.3,84,79.5,89.4,73.1,92.2c-0.6,0.3-1.3,0.5-1.9,0.7 h-0.1c-2.5,0.9-4.9,1.3-7.1,1.3c-2.1,0-4.6-0.5-7.1-1.3h-0.1c-0.6-0.2-1.2-0.5-1.9-0.7c-6.4-2.8-13.2-8.2-17.5-16.5 c-0.9-1.8-1.8-3.7-2.4-5.8c-0.1-0.2-0.1-0.4-0.2-0.6c-0.5-1.7-1-3.6-1.3-5.5c-0.2-1.5-0.4-3-0.5-4.7C33,59,33,59,33,58.9z M56.9,102v-7c2.5,0.8,4.9,1.2,7.1,1.2s4.6-0.4,7.1-1.2v7l-2.5,6.9c-1.1,0.8-2.4,1.3-3.8,1.3h-1.7c-1.4,0-2.7-0.5-3.8-1.3L56.9,102 z M33.7,117.5c0-0.6,0.5-1.2,1.2-1.2h10.9c0.6,0,1.2,0.5,1.2,1.2c0,0.6-0.5,1.2-1.2,1.2h-11C34.2,118.7,33.7,118.2,33.7,117.5z"/>
    <path d="M115.4,116.5h-0.1h-0.1l-3,0.1h-0.4l-0.9,1.3l2.1,3.1l1.9,2.9h1.1h0.4l0,0C116.5,120.7,116,118.3,115.4,116.5z"/>
    <path d="M109.7,118l1.6-2.3h0.5l3.2-0.1h0.1c-0.3-0.8-0.6-1.4-0.8-1.8l0,0c-0.1,0.1-0.2,0.1-0.3,0.1l-3.1,0.1h-1.5l-2.2,4l4.3,6.1 h1.5h0.7l-0.7-1L109.7,118z"/>
    <path d="M18.6,114h-1.7l-2.9-0.1c-0.1,0-0.3-0.1-0.4-0.1l0,0c-0.1,0.1-0.1,0.2-0.2,0.4c-0.2,0.4-0.4,0.8-0.6,1.4h0.1l3.2,0.1h0.6 l1.6,2.3l-3.2,4.9l-0.7,1.1H15h1.5l4.3-6.1L18.6,114z"/>
    <path d="M17,118l-0.9-1.3h-0.4l-3-0.1h-0.1h-0.1c-0.6,1.8-1,4.3-0.9,7.5l0,0H12h1.1l1.9-2.9L17,118z"/>
    <path d="M64,72.3c2.8,0,4.2-2,4.5-2.7s0-1.3-0.7-1.6c-0.1,0-0.2-0.1-0.3-0.1h-7c-0.1,0-0.2,0-0.3,0.1c-0.6,0.3-1,0.9-0.7,1.6 C59.8,70.4,61.2,72.3,64,72.3z"/>
    <ellipse cx="47.8" cy="58.9" rx="4.9" ry="5"/>
    <ellipse cx="80.2" cy="58.9" rx="4.9" ry="5"/>
    <path d="M40.5,51.4c0.3,0.3,1,0.7,1.9,0.4c0.4-0.1,1.1-0.4,1.9-0.7c0.9-0.3,2-0.5,3.4-0.5c2.8,0,4.5,0.9,5.3,1.2 c0.9,0.3,1.6,0,1.9-0.4c0.3-0.4,0.4-1,0-1.5c-0.8-1.1-2.6-2.6-5.8-2.9c-0.4,0-0.9-0.1-1.4-0.1c-1.7,0-3.1,0.3-4.2,0.8 c-1.6,0.6-2.5,1.5-3.1,2.3c-0.3,0.4-0.3,0.9-0.2,1.3C40.4,51.2,40.4,51.3,40.5,51.4z"/>
    <path d="M74.9,51.8c0.9-0.3,2.5-1.2,5.3-1.2c1.4,0,2.5,0.2,3.4,0.5s1.5,0.5,1.9,0.7c0.9,0.3,1.6,0,1.9-0.4c0.1-0.1,0.1-0.2,0.1-0.3 c0.2-0.4,0.2-0.9-0.2-1.3c-0.5-0.7-1.5-1.6-3.1-2.3c-1.1-0.4-2.4-0.8-4.2-0.8c-0.5,0-1,0-1.4,0.1c-3.2,0.4-5,1.9-5.8,2.9 c-0.4,0.5-0.3,1.2,0,1.5C73.3,51.7,74,52,74.9,51.8z"/>
    <path d="M52.8,78.3c0.1,0.3,0.4,0.6,0.7,0.9c1.4,1.4,4.4,3.2,7.5,4c1,0.3,2,0.4,3,0.4s2-0.2,3-0.4c3.1-0.8,6.1-2.6,7.4-4 c0.3-0.3,0.6-0.7,0.7-0.9c0.8-1.6-1.1-3.3-2.9-2.2C69,78,58.7,78,55.6,76.1C53.9,75.1,52.1,76.7,52.8,78.3z"/>
  </g>
</svg>