<svg viewBox="0 0 128 128" xmlns="http://www.w3.org/2000/svg">
  <g>
    <path d="M121.8,58.3l-52.2-52C68.1,4.8,66,4,64,4s-4.1,0.8-5.7,2.3l-52.2,52c-3,3.1-2.9,8.1,0.2,11.1l52,52.2 c1.6,1.6,3.6,2.3,5.7,2.3c2.1,0,4.1-0.8,5.7-2.3l52-52.2C124.7,66.4,124.8,61.5,121.8,58.3z M119.5,67.4l-52,52.2 c-0.9,0.9-2.2,1.5-3.5,1.5s-2.6-0.5-3.5-1.5l-52-52.2c-1.9-1.9-2-5-0.1-6.9l52.1-52C61.4,7.5,62.7,7,64,7s2.6,0.5,3.5,1.5l52.1,52 C121.5,62.4,121.5,65.5,119.5,67.4z"/>
    <circle cx="74.7" cy="32.4" r="6.5"/>
    <path d="M96.4,59l-8.7-7c-0.3-0.2-0.5-0.5-0.6-0.8L82.5,43c-0.8-1.4-2-2.4-3.4-2.9c-3.4-1-8.3-0.4-10.7,2.2l-7.7,8.4 c-0.8,0.7-1.1,1.7-0.7,2.7l2.5,6.2l-3.2,0.6c-0.4,0.1-0.8-0.1-1-0.4c-1.1-1.5-3.4-5.9-5.1-6.5c-3.3-1.3-6.8-1.1-9.9,0.5 C42.9,54,36,59.4,36,59.4l-0.1,0.1c-0.1,0.1-0.2,0.2-0.3,0.3c-0.1,0.1-0.2,0.3-0.2,0.4l-3.3,7.3c-0.5,1-0.2,2.2,0.6,2.9 c1.3,1.1,3.1,0.5,3.8-0.9l3-6.7c0.1-0.2,0.2-0.3,0.3-0.4l1.3-1c0.7-0.5,1.6,0,1.6,0.8v9.4c0,0.2-0.1,0.4-0.1,0.6l0.1,7.1 c0,0.2-0.1,0.4-0.2,0.6L36.7,88c-0.8,1.1-0.5,2.6,0.6,3.4c1.1,0.8,2.6,0.5,3.4-0.6l6.5-9c0.4-0.5,0.5-1.2,0.4-1.8v-3.2 c0-1,0.8-1.8,1.8-1.8c0.8,0,1.4,0.5,1.7,1.2l5.1,14.1c0.5,1.2,1.8,1.9,3.1,1.5c0.8-0.3,1.3-0.9,1.5-1.7c0.3,0.7,0.8,1.4,1.5,1.7 c1.5,0.8,3.4,0.2,4.2-1.3L73,77.7c0.2-0.3,0.3-0.7,0.3-1.1c0.1-0.3,0.2-0.6,0.2-1l0.1-7.4c0-0.9,0.7-1.6,1.6-1.6 c0.7,0,1.3,0.4,1.5,1L85.3,90c0.6,1.6,2.4,2.4,4,1.8c1.6-0.6,2.4-2.4,1.8-4l-8.5-22.3c-0.4-0.9-0.5-1.9-0.5-2.9V52.2l1.2,2.2 c0.1,0.1,0.1,0.2,0.2,0.3c0.1,0.2,0.3,0.4,0.4,0.5l9.5,7.7c1,0.8,2.6,0.7,3.4-0.4S97.5,59.9,96.4,59z M65.3,52.8l1.7-1.9 c0.2-0.2,0.4-0.1,0.4,0.2v8.4l-2.3-5.8C65.1,53.3,65.1,53,65.3,52.8z M67.5,65.6c0,0,0,0,0,0.1l-0.2,9.7L61,87.6 c-0.1,0.3-0.2,0.6-0.3,0.9L54.4,72c0-0.1-0.1-0.1-0.1-0.2v-9l1.3,1.7c0.4,0.5,0.9,0.8,1.5,0.9c0,0,0,0,0.1,0c0.1,0,0.2,0,0.2,0 c0.2,0,0.5,0,0.7,0l6.6-1.3c0.6,0.4,1.4,0.4,2.1,0.2c0.3-0.1,0.5-0.2,0.7-0.4V65.6z"/>
    <circle cx="48.4" cy="45.2" r="6.5"/>
  </g>
</svg>