<svg viewBox="0 0 128 128" xmlns="http://www.w3.org/2000/svg">
  <g>
    <ellipse cx="47.6" cy="58.8" rx="4.9" ry="5.1"/>
    <ellipse cx="80.4" cy="58.8" rx="4.9" ry="5.1"/>
    <path d="M64,72.4c2.8,0,4.2-2,4.5-2.7c0.3-0.7-0.1-1.4-0.7-1.6c-0.1,0-0.2-0.1-0.3-0.1h-7.1c-0.1,0-0.2,0-0.3,0.1 c-0.6,0.3-1,0.9-0.7,1.6C59.8,70.4,61.2,72.4,64,72.4z"/>
    <path d="M72.4,76.1c-3.2,1.9-13.6,1.9-16.8,0c-1.8-1.1-3.7,0.6-2.9,2.2c0.8,1.6,6.5,5.4,11.4,5.4c4.9,0,10.6-3.8,11.3-5.4 C76.1,76.7,74.2,75,72.4,76.1z"/>
    <path d="M88.6,98.6c9-2.1,16.5-5.7,20.8-10.9c2.6-3.1,4-6.9,4-11.3c0-2.9-2.4-17.3-2.4-17.3s0,0,0-0.1c-0.1-0.4-0.6-3.8-4.1-7.8 c0-9.3-2.5-37.2-32.2-42.5C74.6,6.1,72.4,4,69.6,4H59c-2.8,0-5,2.2-5.1,4.9C25.2,14.1,21.5,41,21.2,51.3c-0.3,0.3-0.5,0.6-0.7,0.9 c-0.1,0.1-0.1,0.1-0.2,0.2c-0.2,0.3-0.4,0.5-0.6,0.8c-0.1,0.1-0.1,0.2-0.2,0.2c-0.2,0.3-0.4,0.6-0.5,0.8c0,0.1-0.1,0.2-0.1,0.2 c-0.1,0.2-0.2,0.4-0.4,0.6c0,0.1-0.1,0.2-0.1,0.2c-0.1,0.3-0.2,0.5-0.4,0.7c0,0.1,0,0.1-0.1,0.2c-0.1,0.2-0.2,0.4-0.2,0.6 c0,0.1,0,0.1-0.1,0.2c-0.1,0.2-0.2,0.4-0.2,0.6c0,0,0,0,0,0c-0.1,0.2-0.1,0.4-0.2,0.5c0,0,0,0,0,0c-0.1,0.5-0.2,0.8-0.2,0.9 c0,0,0,0.1,0,0.1s-2.3,13.5-2.4,17c0,0.1,0,0.2,0,0.3c0,11.6,10.2,18.7,24.4,22.1C23.7,102,12,109.1,12,121v3h22v-6.1 c0-1.4,1.1-2.5,2.5-2.5h25v-5l-13.3-6.1c-3.1-1.4-5.2-4.5-5.6-8.1l-0.9-9c6.2,6,14.2,9.1,22.2,9.1c8,0,16-3,22.2-9l-1.3,9.3 c-0.5,3.4-2.6,6.2-5.5,7.6L66,110.3v5.1h25.5c1.4,0,2.5,1.1,2.5,2.5v6.1h22v-3C116,109.6,104.2,102.3,88.6,98.6z M95.9,69.8 c0.7-2.6,1.1-5.4,1.4-8.4c0.7-1.2,1.5-2.4,2-3.2c0.4,1.1,0.7,2.4,0.7,3.7C100,65.2,98.4,68.2,95.9,69.8z M78,26.5 c1.6,2.8,1.9,5.4,0.8,7.5c-1.1,2.3-3.9,3.8-7.9,4.4c-2-0.1-4.1-0.2-6.3-0.2c-0.2,0-0.4,0-0.5,0c0,0,0,0,0,0c0,0-0.1,0-0.1,0 s-0.1,0-0.1,0c0,0,0,0,0,0c-0.2,0-0.4,0-0.5,0c-2.3,0-4.4,0.1-6.5,0.2c-4-0.6-6.7-2.2-7.9-4.4c-1-2.1-0.7-4.8,0.9-7.5 c3.1-5.4,1.5-8.9-0.1-10.8l2.2-2.8c1,0.2,2.4,0.4,3.9,0.4c0.8,0,1.6-0.1,2.3-0.2c2.4-0.4,4.4-1.7,5.7-2.7c1.3,1.1,3.3,2.3,5.7,2.7 c0.7,0.1,1.5,0.2,2.3,0.2c1.5,0,2.9-0.2,3.9-0.4l2.2,2.8C76.5,17.6,74.9,21.1,78,26.5z M28,61.8c0-1.3,0.3-2.5,0.7-3.6 c0.5,0.9,1.3,2.1,2,3.3c0.2,3,0.7,5.8,1.4,8.4C29.6,68.2,28,65.2,28,61.8z M85.7,85C80,91,72.3,94.3,64,94.3S48,91,42.3,85 c-5.1-5.4-8.3-12.6-9.4-21.2c0.1-3.9,1-9,2.2-13.6c2.8-1,6-1.9,9.7-2.6c-0.1,0-0.3,0.1-0.4,0.1c-0.2,0.1-0.5,0.2-0.7,0.3 c-0.2,0.1-0.4,0.2-0.7,0.3c-0.2,0.1-0.4,0.2-0.6,0.3c-0.2,0.1-0.4,0.2-0.5,0.4c-0.2,0.1-0.3,0.2-0.5,0.3c-0.2,0.1-0.3,0.3-0.4,0.4 c-0.1,0.1-0.3,0.2-0.4,0.3c-0.1,0.1-0.2,0.2-0.2,0.3c-0.2,0.3-0.4,0.5-0.4,0.5c-0.3,0.4-0.4,1-0.1,1.5c0.3,0.8,1.3,1.2,2.1,0.9 c0,0,0.2-0.1,0.6-0.3c0.1,0,0.2-0.1,0.3-0.1c0.1,0,0.2-0.1,0.3-0.1c0.1,0,0.2-0.1,0.3-0.1c0.1,0,0.2-0.1,0.4-0.1s0.3-0.1,0.4-0.1 c0.1,0,0.3-0.1,0.4-0.1c0.1,0,0.2,0,0.2-0.1c0.1,0,0.2,0,0.2,0c0.2,0,0.3-0.1,0.5-0.1c0.3,0,0.7-0.1,1-0.1c0.3,0,0.7,0,1,0 c0.3,0,0.7,0,1,0c0.3,0,0.7,0.1,1,0.1c0.2,0,0.3,0.1,0.5,0.1c0.1,0,0.2,0,0.2,0c0.1,0,0.1,0,0.2,0.1c0.2,0,0.3,0.1,0.4,0.1 c0.1,0,0.3,0.1,0.4,0.1c0.3,0.1,0.5,0.2,0.7,0.2c0.1,0,0.2,0.1,0.3,0.1c0.1,0,0.2,0.1,0.2,0.1c0.3,0.1,0.5,0.2,0.5,0.2l0.3,0.1 c0.5,0.2,1,0.1,1.4-0.2c0.7-0.5,0.9-1.5,0.4-2.2c0,0-0.2-0.2-0.5-0.6c-0.1-0.1-0.2-0.2-0.3-0.3c-0.1-0.1-0.2-0.2-0.3-0.3 c-0.1-0.1-0.3-0.2-0.4-0.4s-0.3-0.2-0.5-0.3c-0.2-0.1-0.3-0.2-0.5-0.4c-0.2-0.1-0.4-0.2-0.6-0.3c-0.2-0.1-0.4-0.2-0.7-0.3 c-0.2-0.1-0.5-0.2-0.7-0.3c-0.5-0.1-1-0.3-1.5-0.4c-0.5-0.1-1.1-0.1-1.6-0.1c-0.3,0-0.7,0-1,0.1c4.8-0.8,10.3-1.4,16.9-1.4 c0.2,0,0.4,0,0.6,0c0.2,0,0.4,0,0.6,0c6.8,0,12.5,0.6,17.4,1.5c-0.5-0.1-1.1-0.1-1.6-0.1c-0.5,0-1.1,0-1.6,0.1 c-0.5,0.1-1,0.2-1.5,0.4c-0.2,0.1-0.5,0.2-0.7,0.3c-0.2,0.1-0.5,0.2-0.7,0.3c-0.2,0.1-0.4,0.2-0.6,0.3c-0.2,0.1-0.4,0.2-0.5,0.3 c-0.2,0.1-0.3,0.2-0.5,0.3c-0.1,0.1-0.3,0.2-0.4,0.3s-0.2,0.2-0.3,0.3c-0.1,0.1-0.2,0.2-0.3,0.3c-0.3,0.3-0.5,0.6-0.5,0.6 c-0.3,0.4-0.4,0.9-0.2,1.4c0.3,0.8,1.2,1.3,2,1l0.3-0.1c0,0,0.2-0.1,0.5-0.2c0.1,0,0.2-0.1,0.2-0.1c0.1,0,0.2-0.1,0.3-0.1 c0.2-0.1,0.4-0.2,0.7-0.2c0.1,0,0.3-0.1,0.4-0.1c0.1,0,0.3-0.1,0.4-0.1c0.1,0,0.2,0,0.2-0.1c0.1,0,0.2,0,0.2,0 c0.2,0,0.3-0.1,0.5-0.1c0.3,0,0.7-0.1,1-0.1c0.3,0,0.7,0,1,0c0.3,0,0.7,0,1,0c0.3,0,0.7,0.1,1,0.1c0.2,0,0.3,0.1,0.5,0.1 c0.1,0,0.2,0,0.2,0c0.1,0,0.1,0,0.2,0.1c0.2,0,0.3,0.1,0.4,0.1c0.1,0,0.3,0.1,0.4,0.1c0.1,0,0.2,0.1,0.4,0.1c0.1,0,0.2,0.1,0.3,0.1 c0.1,0,0.2,0.1,0.3,0.1c0.1,0,0.2,0.1,0.3,0.1c0.4,0.2,0.6,0.3,0.6,0.3c0.5,0.2,1.1,0.2,1.6-0.1c0.7-0.5,0.9-1.5,0.4-2.2 c0,0-0.1-0.2-0.4-0.5c-0.1-0.1-0.1-0.2-0.2-0.3c-0.1-0.1-0.2-0.2-0.4-0.3c-0.1-0.1-0.3-0.2-0.4-0.4c-0.2-0.1-0.3-0.2-0.5-0.4 c-0.2-0.1-0.3-0.2-0.5-0.3c-0.2-0.1-0.4-0.2-0.6-0.3c-0.2-0.1-0.4-0.2-0.7-0.3c-0.2-0.1-0.5-0.2-0.7-0.3c-0.5-0.1-1-0.3-1.5-0.3 c4.1,0.8,7.6,1.7,10.7,2.8C94,54.8,94.9,60,95,63.9C93.9,72.5,90.7,79.7,85.7,85z"/>
    <path d="M64,13.8c-6.9,0-12.5,5.3-12.5,11.8c0,6.5,5.6,11.8,12.5,11.8s12.5-5.3,12.5-11.8C76.5,19,70.9,13.8,64,13.8z M61.5,18.5 c0-0.4,0.2-1,0.6-1.4c-0.1,0.7,0.2,1.5,0.8,2c-0.9-1.8,0.9-2.6,0.9-3.4c0-0.8-0.4-1.1-0.4-1.1s1.3,0.4,1.5,1.3 c0.2,0.8-0.1,1.6-0.4,1.8c0.8,0,1.5-0.6,1.5-1.3c0.4,0.9,0.7,1.9,0.5,2.8s-1,1.8-2,1.9c0.1-0.1,0.3-0.4,0.2-0.6 c-0.1-0.2-0.4-0.2-0.7-0.5c-0.2-0.2,0.1-0.8,0.1-0.8s-0.7,0.4-0.4,1.1c0.2,0.5,0,0.7,0,0.8C63.5,21.1,61.3,20.5,61.5,18.5z M74.2,24c0.5,0.1,0.9,0.6,0.7,1.1c-0.1,0.5-0.5,1.2-1.2,1.7c-0.7,0.5-1.9,0.8-1.9,0.8c-0.5,0-1-0.2-1.1-0.7 c-0.1-0.3,0.1-0.4-0.2-0.8c0,0-0.5-0.4-1-0.9l-4,3.8l3.8,3.7c0.1,0.1,0.2,0.2,0.1,0.4c0,0.3-0.2,0.6-0.5,0.8 c-0.2,0.2-0.5,0.2-0.7,0.2c-0.2,0-0.5-0.1-0.6-0.2L64,30.5l-3.5,3.4c-0.1,0.1-0.4,0.2-0.6,0.2c-0.3,0-0.5-0.1-0.7-0.2 c-0.3-0.2-0.5-0.5-0.5-0.8c0-0.2,0.1-0.3,0.1-0.4l3.8-3.7l-4-3.8c-0.6,0.5-1,0.9-1,0.9c-0.3,0.4-0.1,0.5-0.2,0.8 c-0.1,0.5-0.6,0.7-1.1,0.7c0,0-1.3-0.3-1.9-0.8c-0.7-0.5-1-1.2-1.2-1.7c-0.1-0.5,0.2-1,0.7-1.1c0.1,0,0.2-0.1,0.2-0.1 c0.9-0.9,2.7-2.5,2.9-2.7c1.2-1.1,2.7-1.1,3.4-0.9c0.3,0.1,0.4,0.5,0.1,0.6c-0.4,0.1-0.7,0.8-0.8,0.8c0.2,0,0.4,0,0.6,0.1h0 c0.5,0.4,0.8,0.8,0.5,1.2c-0.1,0.1-0.3,0.3-0.6,0.6l3.9,3.8l3.9-3.8c-0.3-0.3-0.5-0.5-0.6-0.6c-0.3-0.4,0-0.8,0.5-1.2 c0.1-0.1,0.4-0.1,0.6-0.1c0-0.1-0.3-0.7-0.8-0.8c-0.3-0.1-0.3-0.5,0.1-0.6c0.7-0.2,2.2-0.2,3.4,0.9c0.1,0.1,2,1.8,2.9,2.7 C74,23.9,74.1,24,74.2,24z"/>
    <polygon points="64,38.2 64,38.2 64,38.2 "/>
  </g>
</svg>