<svg viewBox="0 0 128 128" xmlns="http://www.w3.org/2000/svg">
  <g>
    <path d="M64,68c-3.6,0-6.5,1.1-8.6,3.4c-2.2,2.2-3.2,5.2-3.2,8.9c0,3.6,1.1,6.5,3.2,8.7c2.1,2.2,5,3.2,8.8,3.2 c3.7,0,6.6-1.1,8.7-3.2c2.1-2.1,3.1-5,3.1-8.8c0-3.7-1.1-6.6-3.3-8.9S67.5,68,64,68z"/>
    <path d="M64,58.1c3.2,0,5.7-1,7.5-3c1.9-2,2.8-4.7,2.8-8.1c0-3.2-0.9-5.9-2.8-8s-4.4-3.1-7.5-3.1s-5.6,1-7.5,3 c-1.8,2-2.7,4.7-2.7,8.1s0.9,6.1,2.8,8.1C58.5,57.1,60.9,58.1,64,58.1z"/>
    <path d="M116,4H12c-4.4,0-8,3.6-8,8v104c0,4.4,3.6,8,8,8h104c4.4,0,8-3.6,8-8V12C124,7.6,120.4,4,116,4z M81.6,96.3 c-4.4,3.8-10.3,5.7-17.6,5.7s-13.2-1.9-17.7-5.7c-4.4-3.8-6.6-9-6.6-15.4c0-4,1.1-7.5,3.2-10.7c2.1-3.1,5-5.6,8.8-7.3 c-3.2-1.6-5.7-3.9-7.5-6.7s-2.8-6.1-2.8-9.7c0-6.3,2-11.3,6.1-15c4-3.7,9.5-5.5,16.4-5.5c6.9,0,12.5,1.8,16.5,5.5s6.1,8.7,6.1,15 c0,3.6-0.9,6.8-2.8,9.7c-1.9,2.9-4.4,5-7.6,6.7c3.9,1.8,6.8,4.2,8.9,7.4c2.1,3.1,3.1,6.6,3.1,10.6C88.2,87.3,86,92.5,81.6,96.3z"/>
  </g>
</svg>