<svg viewBox="0 0 128 128" xmlns="http://www.w3.org/2000/svg">
  <path d="M122.3,108.7L50.7,37.1l2.1-2.1c0.9-0.9,0.8-2.7-0.1-3.7l-6-6c-4-4,17.8-16.2,17.8-16.2c1.6-0.7,1.8-2.5,1.4-3.4 c-0.5-0.9-1.5-2-3.7-1.6c-16.5,3-24.9,10.2-27.3,12.2c-0.2,0.1-0.3,0.2-0.4,0.3l-17,17c-0.9,0.9-1,2.5,0,3.4l1.7,1.7 c0.7,0.7,1.1,2,0.2,3c-1,1-2.3,0.5-3.1-0.3l0.1,0.1c-1.9-1.8-4.9-1.8-6.8,0.1l-4.8,4.8c-0.9,0.9-1,2.5,0,3.4l14.8,14.8 c0.9,0.9,2.7,1.1,3.6,0.2l4.9-4.9c1.8-1.8,1.6-4.9-0.2-6.7L27.8,53c-0.7-0.8-0.8-2.1,0-2.8c0.7-0.7,2-0.7,2.8,0l1.6,1.6 c0.9,0.9,2.7,1.1,3.6,0.2l1.3-1.3l71.6,71.6c2.3,2.3,6.2,2.3,8.5,0l5.1-5.1C124.6,114.8,124.6,111,122.3,108.7z"/>
</svg>