<svg viewBox="0 0 128 128" xmlns="http://www.w3.org/2000/svg">
  <g>
    <path d="M116,4H12c-4.4,0-8,3.6-8,8v104c0,4.4,3.6,8,8,8h104c4.4,0,8-3.6,8-8V12C124,7.6,120.4,4,116,4z M61.2,65.5 c0,5.3-0.9,10-2.7,14c-1.9,4-4.5,7.1-7.9,9.3C47.2,91,43.2,92,38.7,92c-4.4,0-8.3-1.1-11.8-3.2c-3.5-2.2-6.1-5.2-8-9.2 c-1.9-4-2.8-8.6-2.9-13.8v-3.1c0-5.3,0.9-10,2.8-14.1c1.9-4.1,4.5-7.2,8-9.3c3.4-2.2,7.4-3.2,11.8-3.2c4.4,0,8.4,1.1,11.8,3.2 c3.4,2.1,6.1,5.2,8,9.2c1.9,4,2.8,8.7,2.8,14V65.5z M109.9,92h-6.5c-0.7,0-1.3-0.3-1.7-0.9L87,69.9c-0.8-1.1-2.3-1.2-3.2-0.2 l-4,4.3c-0.4,0.4-0.6,0.9-0.6,1.4V90c0,1.1-0.9,2-2,2h-5.6c-1.1,0-2-0.9-2-2V38c0-1.1,0.9-2,2-2h5.6c1.1,0,2,0.9,2,2v18.4 c0,1.9,2.4,2.8,3.7,1.3l1.7-2.1l15.8-18.9c0.4-0.5,1-0.7,1.6-0.7h6.4c1.8,0,2.7,2,1.6,3.4L92.9,59.6c-0.6,0.7-0.6,1.7-0.1,2.5 l18.8,26.7C112.6,90.1,111.6,92,109.9,92z"/>
    <path d="M38.6,43.9c-4.1,0-7.3,1.6-9.6,4.8s-3.5,7.7-3.5,13.6v3.1c0,6,1.2,10.6,3.5,13.9s5.6,4.9,9.7,4.9c4.2,0,7.4-1.6,9.7-4.8 c2.3-3.2,3.4-7.9,3.4-14v-2.8c0-6-1.1-10.7-3.4-13.9C46,45.5,42.8,43.9,38.6,43.9z"/>
  </g>
</svg>