<svg viewBox="0 0 128 128" xmlns="http://www.w3.org/2000/svg">
  <g>
    <path d="M109.1,107.7c1.2-0.6,2.2-1.5,3-2.7c2.2-3.4,0.1-10.5-7.3-10.5c-0.2,0-0.3,0-0.5,0c-0.2,0-0.4,0-0.5,0 c-4.7,0-15-2.1-20.1-3.3c-0.8-0.2-1.6-0.3-2.3-0.3c-0.7,0-1.3,0.1-1.9,0.2c2.8-1.8,5.4-4.1,7.9-6.9c3.4-1.1,6.2-2.2,8.4-3.5 c6.2-3.2,8.6-7.2,9.3-14.8c0.5-5.5-0.5-33.5-2.9-43.6C98.1,5.8,75,4.2,65,4v0h-1h-1v0C53,4.2,30.2,5.8,26.2,22.2 c-2.4,10.1-3.5,38.1-3,43.6c0.7,7.8,3.3,11.9,10,15.1c2,1.1,4.5,2.1,7.4,3.1c2.4,2.9,5.2,5.2,8,7.1c-0.6-0.2-1.2-0.3-1.9-0.3l0,0v0 c-0.7,0-1.5,0.1-2.3,0.3c-5.1,1.3-15.5,3.3-20.1,3.3c-0.2,0-0.4,0-0.6,0c-0.2,0-0.3,0-0.5,0c-7.4,0-9.5,7.1-7.3,10.5 c0.7,1.1,1.7,2,2.7,2.6c-4.2,3.6-6.6,8-6.6,13.5v3h50v-16.5c0.7,0,1.3,0,2,0c0.7,0,1.4,0,2,0V124h50v-3 C116,115.7,113.4,111.3,109.1,107.7z M43,66c0.7,2,2.5,3.5,4.7,3.5c2.5,0,4.6-2,4.9-4.6c3.7-0.4,7.6-0.6,11.5-0.6 c3.9,0,7.9,0.3,11.6,0.6c0.3,2.6,2.3,4.6,4.9,4.6c2.2,0,4-1.5,4.6-3.5c1.6,0.2,3.2,0.4,4.7,0.6C87.4,73.6,79.7,91.9,64,91.9 c-15.7,0-23.4-18.2-25.8-25.3C39.7,66.4,41.3,66.2,43,66z M81.1,87.3c2.1-2.1,4.2-4.7,6-7.7c3-5,4.8-9.9,5.7-12.7 c0.3,0,0.7,0.1,1,0.1C91.6,76,86.7,82.7,81.1,87.3z M95.1,69.7c0.3-0.8,0.5-1.7,0.7-2.6c0.6,0,1.1,0,1.6,0 C96.9,68.1,96.1,69,95.1,69.7z M30.5,67.1c0.5,0,1.1,0,1.6,0c0.2,0.9,0.5,1.8,0.7,2.6C31.9,69,31.1,68.1,30.5,67.1z M34.2,67 c0.3,0,0.6-0.1,1-0.1c0.9,2.8,2.7,7.7,5.7,12.7c1.8,3,3.8,5.6,6,7.7C41.3,82.7,36.4,76,34.2,67z M51.5,92.7c0.1,0,0.1,0.1,0.2,0.1 c0,0-0.1,0-0.1,0C51.6,92.8,51.5,92.8,51.5,92.7z M74.1,121.2c-1.7,0-3-1.3-3-3s1.3-3,3-3c1.7,0,3,1.3,3,3S75.8,121.2,74.1,121.2z"/>
    <path d="M64,78.3c2.8,0,4.2-2,4.5-2.7c0.3-0.7,0-1.3-0.7-1.6c-0.1,0-0.2-0.1-0.3-0.1h-7c-0.1,0-0.2,0-0.3,0.1 c-0.6,0.3-1,0.9-0.7,1.6C59.8,76.4,61.2,78.3,64,78.3z"/>
    <path d="M64,88.7c4.9,0,10.4-3.8,11.2-5.4c0.8-1.6-1.1-3.3-2.9-2.2c-3.2,1.9-13.5,1.9-16.6,0c-1.8-1.1-3.7,0.6-2.9,2.2 C53.5,85,59.2,88.7,64,88.7z"/>
  </g>
</svg>