<svg viewBox="0 0 128 128" xmlns="http://www.w3.org/2000/svg">
  <g>
    <path d="M46.6,76.1c0,0-0.1,0.1-0.1,0.1l-1.8,2.9c0,0,0,0.1-0.1,0.2c-0.1,0.3,0.1,0.6,0.5,0.7s1.5,0,2.3-1.2 c0.7-1.2,0.3-2.3,0.1-2.6C47.2,75.9,46.9,75.9,46.6,76.1z"/>
    <path d="M112,82C112,82,112,82,112,82C112,82,112,82,112,82c-0.8,0-1.6,0.1-2.4,0.3L89.6,70.8 c-6.5-3.9-9.8-6.2-13.2-10.5L59.6,38.9c-1-1.7-2.6-2.8-4.5-3.3c-0.1,0-0.2,0-0.3-0.1v-0.1l-34.2-3c-1.1-0.1-2.1,0-3.2,0.3l-5.3,1.7 c-0.7,0.2-1.4,0.5-2,0.9c-2.3,1.5-3.7,2.5-4.5,3.2c-0.5,0.4-0.9,0.9-0.9,1.9c0,0.7,0.3,1.4,0.9,1.9c0.6,0.5,1.5,0.7,2.4,0.5 c1.1-0.2,2.3-1.3,3.2-2.1c0.2-0.2,0.5-0.4,0.9-0.4l5.6-0.7c0.1,0,0.2,0,0.3,0c-0.2,0.4-0.2,0.9-0.1,1.4c0.3,1.2,1.2,1.7,2.4,1.7 c0.3,0,0.7,0,1-0.1l6.5-1.2c4.8,1.4,19,6,19.2,6c1.2,0.4,2.3,1.2,3,2.3l6.7,10.1c2,3,2.4,6.6,1.3,9.8c-0.9-2-2.3-4-4.4-6 c0.8-1.7,0.7-3.7-1.4-5C51.3,58.2,50.6,58,50,58c-0.2,0-0.3,0-0.4,0c-0.4-0.3-3.7-3-8.6-5.6c-1.6-0.9-4.3-1.8-7.5-1.8 c-4.6,0-10.3,1.9-15.3,8.5c0,0-0.1,0.2-0.2,0.3c-0.1,0.1-0.2,0.3-0.2,0.3c-6.9,11.5-1.6,19.8,2.5,23.3c-0.2-0.1-0.5-0.2-0.7-0.3 c0,0-0.1,0-0.1,0c-1-0.4-2.1-0.7-3.4-0.7c-5,0-8.1,4.1-12,6.1v0v1.1c1.5-0.7,2.9-1.7,4.3-2.8C10.7,84.7,13,83,16,83 c3,0,5.3,1.7,7.7,3.5c2.4,1.8,5,3.7,8.3,3.7c3.3,0,5.8-1.9,8.3-3.7C42.7,84.7,45,83,48,83c3,0,5.3,1.7,7.7,3.5 c2.4,1.8,5,3.7,8.3,3.7c3.3,0,5.8-1.9,8.3-3.7C74.7,84.7,77,83,80,83c3,0,5.3,1.7,7.7,3.5c2.4,1.8,5,3.7,8.3,3.7 c3.3,0,5.8-1.9,8.3-3.7c2.4-1.8,4.7-3.5,7.7-3.5c3,0,5.3,1.7,7.7,3.5c1.4,1,2.7,2,4.3,2.7v-1.1v0C120.1,86.1,117,82,112,82z M21,41.6c-0.3,0.1-0.6,0.1-0.8,0.1c-1.2,0-1.4-0.7-1.4-0.9c-0.1-0.4,0-0.8,0.2-1.1c0,0,0,0,0,0c0.7,0.2,1.5,0.3,2.5,0.5 c1.1,0.2,2.3,0.4,3.8,0.7L21,41.6z M59.8,88c-1.4-0.8-2.8-1.8-4.2-2.9c0.2-0.2,0.3-0.4,0.4-0.6c0.9-1.4,1.7-2.9,2.2-4.7l0.5,0.4 c1.2,0.8,1.9,1.9,2.2,3.3c0.3,1.4,0,2.7-0.8,3.9C60.2,87.6,60,87.8,59.8,88z M57.3,71c0.2,0.4,0.3,0.9,0.4,1.3 c0.1,0.4,0.2,0.8,0.3,1.3c0.2,1.6,0.1,3.2-0.2,4.6c-0.1,0.4-0.2,0.7-0.3,1c-0.6,2-1.5,3.7-2.2,4.7c-0.1,0.2-0.3,0.4-0.4,0.6 c-0.1-0.1-0.2-0.1-0.3-0.2c-0.2-0.1-0.4-0.3-0.6-0.4c-0.2-0.1-0.5-0.3-0.7-0.4c-0.3-0.2-0.7-0.4-1.1-0.6c-0.1,0-0.1-0.1-0.2-0.1 c-0.1-0.1-0.3-0.1-0.4-0.2c0.2-0.2,0.3-0.4,0.5-0.6c0.7-0.9,1-1.9,0.9-2.6c0-0.2-0.1-0.5-0.2-0.7c-0.1-0.2-0.2-0.3-0.3-0.4 c-0.9-0.6-2.4,0-3.5,1.4c-0.5,0.7-0.8,1.5-0.9,2.2c0,0,0,0,0,0c-0.4,0-0.8,0-1.2,0.1c0,0,0,0,0,0c-0.4,0.1-0.7,0.1-1.1,0.2 c0,0-0.1,0-0.1,0c-0.3,0.1-0.6,0.2-0.9,0.3c0,0-0.1,0-0.1,0c-2.9,1.2-5.3,3.6-7.9,5.1c0,0,0,0,0,0c-0.5,0.3-1,0.6-1.6,0.8 c-0.1,0-0.1,0-0.2,0.1c-0.8-0.4-1.7-0.9-2.5-1.5c0,0,0,0-0.1,0c0.2,0,0.3,0,0.5-0.1c0.7-0.2,1.5-0.5,2.2-1c1.7,0.5,3.7-0.3,5.5-2.9 c1.7-2.5,1.7-4.6,0.8-6l2.2-3.2c1.7,0.4,3.6-0.5,5.3-3c1.8-2.6,1.7-4.8,0.6-6.2c0.2-0.9,0.2-1.8,0-2.7c0-0.2-0.1-0.3-0.1-0.5 c0,0,0,0,0,0c1.3,0.8,2.4,1.7,3.4,2.7C54.9,66.4,56.4,68.6,57.3,71z M32.7,89.1c-0.2,0-0.5,0-0.7,0c-0.6,0-1.2-0.1-1.7-0.2 c-0.4-0.8-0.2-1.6-0.1-2c0.1,0,0.2,0,0.3,0.1c0.4,0.3,0.9,0.6,1.4,0.9c0.6,0.4,1.1,0.7,1.7,1C33.2,89,33,89.1,32.7,89.1 C32.8,89.1,32.7,89.1,32.7,89.1z M34.8,84.1c-1.3-0.9-1.4-3.1-0.2-4.9c0.3-0.4,0.6-0.8,1-1c0.6-0.5,1.2-0.8,1.8-0.9 c0.7-0.1,1.3,0,1.9,0.3c1.1,0.8,1.4,2.5,0.7,4c-0.1,0.3-0.3,0.6-0.5,0.9c-0.2,0.4-0.5,0.7-0.8,0.9C37.5,84.5,35.9,84.9,34.8,84.1z M39.3,75.7c-1.1-0.4-2.4-0.3-3.6,0.4c-0.1-0.1-0.3-0.2-0.5-0.2c0,0-0.1,0-0.4,0c-0.1,0-0.1,0-0.2,0c-0.1,0-0.1,0-0.2,0 c-0.1,0-0.2,0-0.2,0.1c-0.1,0-0.2,0.1-0.3,0.1c-0.1,0-0.2,0.1-0.3,0.1c-0.1,0-0.2,0.1-0.3,0.2c-0.1,0.1-0.2,0.1-0.3,0.2 c-0.1,0.1-0.2,0.1-0.3,0.2c-0.2,0.2-0.4,0.3-0.6,0.5c-0.2,0.2-0.3,0.4-0.5,0.6c-0.1,0.2-0.3,0.5-0.4,0.7c-0.1,0.2-0.2,0.5-0.3,0.7 c0,0.1-0.1,0.2-0.1,0.4c0,0.1,0,0.2-0.1,0.3s0,0.2,0,0.3c0,0.1,0,0.2,0,0.3c0,0.1,0,0.2,0,0.3c0,0.1,0,0.2,0,0.3c0,0.1,0,0.2,0,0.2 c0,0.1,0,0.1,0,0.2c0.1,0.2,0.1,0.3,0.1,0.3c0.1,0.2,0.3,0.4,0.6,0.5c0.1,0,0.3,0,0.4,0c0.1,0.9,0.5,1.8,1,2.4 c-0.5,0.4-1,0.7-1.6,0.9c-0.2,0-0.3,0.1-0.5,0.1c-0.1,0-0.3,0.1-0.4,0.1c-0.2-0.2-0.4-0.3-0.7-0.5c-0.5-0.4-1-0.7-1.5-1.1 c-0.2-1.2-0.4-2.8-0.4-4.4c0-0.2,0-0.3,0-0.5c0-0.9,0.1-1.8,0.2-2.7c0.7-4.7,5.8-12.2,9.3-14.4c1.1-0.7,2.1-1.3,3-1.7 c0.1-0.1,0.2-0.1,0.3-0.1c1.4-0.7,2.7-1.1,4.2-1.4c0.6,0.3,1.1,0.6,1.7,1c0.2,0.1,0.5,0.3,0.7,0.5c0.1,0.1,0.1,0.3,0.1,0.4 c0,0.2,0.1,0.3,0.1,0.5c0.1,0.7,0,1.4-0.2,2.1c-0.8-0.3-1.7-0.3-2.6,0c0,0,0,0,0-0.1c0-0.4-0.4-0.8-0.8-0.8c0,0-0.1,0-0.3,0 c0,0-0.1,0-0.2,0c-0.1,0-0.2,0-0.2,0.1c-0.1,0-0.2,0-0.3,0.1c-0.1,0-0.2,0.1-0.3,0.1c-0.1,0-0.2,0.1-0.3,0.1 c-0.1,0-0.2,0.1-0.3,0.2c-0.1,0.1-0.2,0.1-0.3,0.2c-0.1,0.1-0.2,0.1-0.3,0.2c-0.2,0.2-0.4,0.3-0.6,0.5c-0.2,0.2-0.3,0.4-0.5,0.6 c-0.1,0.2-0.3,0.5-0.4,0.7c-0.1,0.2-0.2,0.5-0.3,0.7c0,0.1-0.1,0.2-0.1,0.4c0,0.1,0,0.2-0.1,0.3s0,0.2,0,0.3c0,0.1,0,0.2,0,0.3 c0,0.1,0,0.2,0,0.3c0,0.1,0,0.2,0,0.2c0,0.1,0,0.2,0,0.2c0,0.1,0,0.1,0.1,0.2c0.1,0.2,0.1,0.3,0.1,0.3c0,0.1,0.1,0.2,0.2,0.3 c-0.2,1.5,0.3,2.7,1.1,3.6L39.3,75.7z M43.1,71.9c-1.3-0.9-1.4-3.1-0.2-4.9c0.3-0.4,0.6-0.8,1-1c0.6-0.5,1.2-0.8,1.8-0.9 c0.7-0.1,1.3,0,1.9,0.3c1.1,0.8,1.4,2.5,0.7,4c-0.1,0.3-0.3,0.6-0.5,0.9c-0.2,0.4-0.5,0.7-0.8,0.9C45.7,72.4,44.1,72.7,43.1,71.9z M51.5,59.5c0.8,0.5,1.3,1.2,1.3,2.1c0,0.4-0.1,0.9-0.2,1.4c-0.9-0.7-1.8-1.5-2.9-2.2c-0.5-0.4-1.1-0.7-1.6-1 C48.3,59.6,49,59,50,59C50.5,59,51,59.2,51.5,59.5z M104.1,85.4c-2.5,1.9-4.9,3.8-8.1,3.8c-6.1,0-9.4-7.2-16-7.2 c-0.3,0-0.6,0-0.9,0.1c-0.1,0-0.2,0-0.3,0c-0.3,0-0.5,0.1-0.7,0.1c-0.2,0-0.3,0.1-0.5,0.1c-0.2,0.1-0.5,0.1-0.7,0.2 c-0.2,0.1-0.3,0.1-0.5,0.2c-0.2,0.1-0.4,0.2-0.6,0.3c-0.1,0.1-0.3,0.1-0.4,0.2c-0.2,0.1-0.4,0.2-0.6,0.4c-0.1,0.1-0.2,0.1-0.3,0.2 c-1.3,0.8-2.5,1.7-3.7,2.6c-0.7,0.5-1.5,1-2.3,1.5c0,0-0.1,0-0.1,0c-0.2,0.1-0.4,0.2-0.6,0.3c-0.1,0-0.2,0.1-0.3,0.1 c-0.2,0.1-0.4,0.2-0.6,0.2c-0.1,0-0.2,0.1-0.3,0.1c-0.2,0.1-0.4,0.1-0.6,0.2c-0.1,0-0.2,0-0.3,0.1c-0.2,0-0.4,0.1-0.7,0.1 c0,0-0.1,0-0.1,0c-0.3,0-0.5,0.1-0.8,0.1c-0.2,0-0.5,0-0.7,0c-0.1,0-0.1,0-0.2,0c-0.2,0-0.5-0.1-0.7-0.1c0,0-0.1,0-0.1,0 c-0.5-0.1-1-0.3-1.5-0.5c0.1-0.2,0.3-0.3,0.4-0.5c1.9-2.8,1.1-6.7-1.7-8.6l-0.8-0.5c0.6-2.4,0.6-5-0.2-7.8c1.7-3.7,1.4-8.2-1-11.8 l-6.7-10.1c-0.8-1.3-2.1-2.2-3.5-2.7c-0.6-0.2-11.5-3.7-17.3-5.4c-0.8-0.3-1.6-0.5-2.2-0.6c-0.5-0.1-0.9-0.2-1.1-0.3 c-2-0.4-3.6-0.7-5-1c-0.4-0.1-0.8-0.1-1.1-0.2c-0.5-0.1-1-0.2-1.4-0.3c-0.1,0-0.2,0-0.4,0c-0.2,0-0.4-0.1-0.6-0.1 c-0.2,0-0.4,0-0.6,0l-5.6,0.7c-0.6,0.1-1.1,0.3-1.4,0.7c-1,1.1-2,1.7-2.6,1.8c-0.6,0.1-1.1,0-1.5-0.3c-0.3-0.3-0.5-0.7-0.5-1.1 c0-0.5,0.1-0.8,0.6-1.2c0.7-0.6,2.2-1.6,4.4-3.1c0.5-0.3,1.1-0.6,1.8-0.8l5.3-1.7c0.9-0.3,1.8-0.4,2.8-0.3l33.3,2.9l0.4,0.1 c0.2,0,0.4,0.1,0.6,0.1c1.6,0.4,3,1.4,3.9,2.9l16.8,21.5c3.4,4.4,7.1,6.9,12.1,9.9c0.5,0.3,0.9,0.6,1.4,0.8l19.3,11.1 C106.8,83.4,105.5,84.4,104.1,85.4z"/>
    <path d="M96,98.5c-6.1,0-9.4,7.2-16,7.2c-6.6,0-9.9-7.2-16-7.2c-6.1,0-9.4,7.2-16,7.2c-6.6,0-9.9-7.2-16-7.2 c-6.1,0-9.4,7.2-16,7.2c-5,0-8.1-4.1-12-6.1v1.1V124h120v-23.3v-1.1c-3.9,2-7,6.1-12,6.1C105.4,105.7,102,98.5,96,98.5z"/>
  </g>
</svg>