<svg viewBox="0 0 128 128" xmlns="http://www.w3.org/2000/svg">
  <path d="M122.2,7.7l-1.4-1.5c-0.1-0.1-0.2-0.2-0.3-0.3c0,0-0.1,0-0.1-0.1c-0.1-0.1-0.2-0.1-0.3-0.1 c-0.3-0.1-0.6-0.2-0.8-0.2c-0.6,0-1.1,0.2-1.5,0.6l-4.3,4.3l-0.1-0.1L97.7,25.9l-6.5,6.4l0,0L39.5,83.8l0,0L13,110.2 c-0.5-0.1-1-0.2-1.5-0.2c-2.6,0-5,1.6-5.9,4.2c-1.1,3.3,0.6,6.8,3.9,7.9c0.7,0.2,1.3,0.3,2,0.3c2.6,0,5-1.6,5.9-4.2 c0.4-1.2,0.4-2.4,0.2-3.5l2.8-2.8L112.9,20c-2.7,8.3-1.7,20.4,2.5,20.4c3.3,0,4.7-5.6,5.5-11.6c0.8-5.8-0.2-12.4-1-15.9l2.2-2.1 C123.1,9.9,123.1,8.5,122.2,7.7z M92.7,33.7l1.8,1.8L42.7,87l-1.7-1.8l0,0L92.7,33.7z M15.5,115.2c0.1,0.8,0.2,1.8,0,2.4 c-0.6,1.7-2.2,2.9-4,2.9c-0.5,0-0.9-0.1-1.4-0.2c-1.1-0.4-1.9-1.1-2.4-2.1c-0.5-1-0.6-2.2-0.2-3.2c0.6-1.7,2.2-2.9,4-2.9 c0.4,0,0.8,0,1.1,0.1c0.7,0.1,1.5-0.1,2-0.6l0.4-0.4c0.7,0.5,1.3,1,1.7,1.7l-0.5,0.5C15.6,113.8,15.4,114.5,15.5,115.2z M119,28.5 c-0.5,4.3-1.6,9.5-3.7,9.5c-2.1,0-2.6-13.2,0.3-20.8l2.6-2.6C118.9,18.2,119.6,23.8,119,28.5z"/>
</svg>