<svg viewBox="0 0 128 128" xmlns="http://www.w3.org/2000/svg">
  <path d="M107.8,46.9c6.6-0.9,12-5.7,12-5.7s-5.4-9.2-13.7-10.5c-0.5-0.1-1.1-0.1-1.6-0.1c0.7-5.1-0.8-9.8-0.8-9.8s-5.1,0.6-9.5,3.4 c3.1-7.8,4.1-14.3,4.1-17.6c0-1.2-0.8-2.3-1.8-2.3h-6.1c-0.7,0-1.3,0.7-1.3,1.6C88.8,11.2,88,16,86.8,20.5c-1.1-0.2-2.3-0.4-3.5-0.4 c0.1-0.5,0.1-1.1,0.1-1.6C83.3,10,75,3.2,75,3.2s-8.2,6.8-8.2,15.2c0,1,0.1,2,0.3,2.9c-1.5-2-3.4-3.9-5.8-4.9 C53.7,13.3,44,19.6,44,19.6s0.2,0.9,0.7,2.4c-5.7,1.1-10.9,4.9-13.5,10.7c-1.3,3-1.8,6.2-1.6,9.3c-6.8,0.3-13,4.7-15.4,11.5 c-2.6,7.5,0.3,15.6,6.7,19.9c-2.5,1.8-4.5,4.4-5.6,7.6c-2.5,7.2,0.4,14.9,6.6,18.8c-2.7,1.5-4.8,3.9-5.9,7c-2.3,6.8,1.2,14.1,8,16.5 c1.4,0.5,2.8,0.7,4.2,0.7c3.9,0,7.6-1.8,10-4.8c0.8,0.5,1.6,0.9,2.5,1.2c1.5,0.5,3,0.8,4.5,0.8c5.6,0,10.8-3.5,12.8-9 c1.2,0.9,2.5,1.6,4,2.1c1.6,0.6,3.3,0.8,4.9,0.8c6.2,0,11.9-3.9,14.1-10c0.6-1.7,0.8-3.4,0.8-5.2c0.9,0.2,1.9,0.2,2.8,0.2 c6.7,0,13-4.2,15.3-10.9c0.7-2.1,1-4.2,0.9-6.3c6.9-1.1,12.9-5.8,15.4-12.9C119.2,61.2,115.5,51.5,107.8,46.9z M81.7,52.4 c-0.6,0.9-1.2,1.8-1.7,2.8c-0.5-0.7-1.1-1.3-1.8-1.9C79.4,53.1,80.5,52.8,81.7,52.4z M80.4,72.7c-2.2,6.4-8.3,10.7-15.1,10.7 c-1.8,0-3.6-0.3-5.3-0.9C51.6,79.6,47.1,70.4,50,62c2.3-6.5,8.4-10.8,15.2-10.8c0.7,0,1.4,0.1,2.1,0.2c-0.1,0.7-0.2,1.2-0.2,1.2 s2.8,0.8,6.4,1C79.9,57.5,82.9,65.4,80.4,72.7z M47.4,74.2c-1.2-0.1-2.3-0.3-3.4-0.7c-3.6-1.2-6.4-3.8-8.1-7.2 c-1.6-3.4-1.8-7.2-0.6-10.8c2-5.7,7.3-9.5,13.3-9.5c1.6,0,3.1,0.3,4.7,0.8c1.8,0.6,3.4,1.6,4.7,2.8c-4.9,2-9,6-10.9,11.4 C45.5,65.5,45.8,70.1,47.4,74.2z M43.7,76.6c1.6,0.5,3.3,0.7,4.9,0.7c0.1,0,0.2,0,0.3,0c2.2,3.6,5.7,6.6,10,8.1 c0.5,0.2,1,0.3,1.6,0.5c0.6,2.3,0.6,4.9-0.3,7.4c-1.8,5.3-6.8,8.8-12.4,8.8c-1.5,0-2.9-0.2-4.3-0.7c-3.3-1.2-6-3.5-7.5-6.7 s-1.7-6.7-0.6-10C36.8,80.8,39.9,77.8,43.7,76.6z M72,28c0.5,0,1.1,0,1.6,0.1c0.3,1.6,1.1,5.2,3.1,8.4c-0.5,0.2-1,0.5-1.4,0.8 c-4.2,2.7-6.2,7.6-7.3,11.1c-0.9-0.1-1.9-0.2-2.8-0.2c-1.3,0-2.7,0.2-4,0.4c-0.7-0.8-1.5-1.5-2.4-2.2c-0.9-2.9-0.9-6.1,0.1-9.1 C60.8,31.8,66.1,28,72,28z M33.9,33.9c2.5-5.6,8.2-9.3,14.3-9.3c2.2,0,4.4,0.5,6.4,1.4c2.2,1,4.1,2.5,5.6,4.2 c-1.7,1.7-3.1,3.8-3.9,6.2c-0.9,2.7-1.1,5.4-0.7,8.1c-0.5-0.2-0.9-0.4-1.4-0.6c-1.9-0.7-3.8-1-5.6-1c-5.1,0-10,2.3-13.3,6.3 C32.4,45,31.6,39.1,33.9,33.9z M17.7,65.2c-1.6-3.4-1.9-7.2-0.6-10.8c2-5.6,7.2-9.4,13.1-9.5c0.6,2.5,1.8,4.9,3.5,7 c-0.4,0.8-0.8,1.7-1.1,2.6c-2,5.8-0.7,12,2.9,16.4c-1.7-0.5-3.3-0.8-5-0.8c-2.3,0-4.5,0.5-6.6,1.4C21.2,70.2,19,68,17.7,65.2z M18.7,91.8c-1.5-3.1-1.7-6.6-0.6-9.9c1.8-5.2,6.7-8.7,12.3-8.7c1.4,0,2.9,0.2,4.3,0.7c1.4,0.5,2.6,1.2,3.8,2.1 c-2.6,1.9-4.7,4.5-5.8,7.8c-1.8,5.1-0.8,10.5,2.1,14.6c-1.4,0.5-2.8,0.8-4.4,0.8c-1.5,0-2.9-0.2-4.3-0.7 C22.8,97.2,20.2,94.9,18.7,91.8z M28.3,120.9c-1.1,0-2.2-0.2-3.3-0.6c-2.5-0.9-4.5-2.7-5.7-5.1c-1.2-2.4-1.3-5.1-0.4-7.6 c1.1-3.1,3.7-5.5,6.8-6.3c1.6,0.5,3.2,0.7,4.8,0.7c0.8,0,1.7-0.1,2.5-0.2c-0.2,0.3-0.3,0.7-0.4,1.1c-1.8,5.2-0.3,10.7,3.5,14.3 C34.1,119.5,31.3,120.9,28.3,120.9z M55.2,110.9c-1.6,4.1-5.5,6.9-9.9,6.9c-1.2,0-2.3-0.2-3.4-0.6c-5.4-1.9-8.3-7.8-6.4-13.2 c0.4-1.1,1-2.1,1.7-3c1.5,1.4,3.4,2.5,5.4,3.2c1.8,0.6,3.5,0.9,5.3,0.9c1.6,0,3.3-0.3,4.8-0.7c0.6,1.9,1.5,3.6,2.8,5.2 C55.4,110,55.3,110.5,55.2,110.9z M78.2,104c-1.7,4.8-6.2,8-11.2,8c-1.3,0-2.6-0.2-3.9-0.7c-3-1-5.4-3.2-6.8-6.1 c-0.3-0.7-0.6-1.4-0.8-2.1c3.4-1.8,6.2-4.9,7.6-8.9c0.9-2.6,1.1-5.4,0.7-7.9c0.5,0,1,0.1,1.5,0.1c1.1,0,2.2-0.1,3.3-0.3 c0.8,5.6,4.6,10.6,10.2,12.8C78.9,100.7,78.7,102.4,78.2,104z M97.1,88.2c-1.8,5.3-6.9,8.9-12.5,8.9c-1.5,0-2.9-0.2-4.3-0.7 c-3.3-1.2-6-3.5-7.5-6.7c-0.7-1.3-1-2.8-1.2-4.2c5.4-1.8,9.8-6,11.9-11.8c0.3-1,0.6-2,0.7-2.9c0.2,0,0.3,0,0.5,0 c1.5,0,2.9,0.3,4.3,0.7c3.3,1.2,6,3.5,7.5,6.7C98,81.3,98.2,84.9,97.1,88.2z M113.3,69.1c-2,5.8-7.1,9.9-13,10.9 c-1.3-5.1-5-9.5-10.4-11.4c-1.8-0.6-3.6-0.9-5.3-0.9c-0.1,0-0.1,0-0.2,0c0.1-3.4-0.8-6.6-2.3-9.5c0.8-2.3,2.1-4.3,3.7-6 c-0.3,1.5-0.3,3,0,4.5C87.3,64.8,98,69.5,98,69.5s8.1-8.4,6.5-16.5c-0.4-2-1.4-3.8-2.6-5.4c0.4,0.1,0.8,0.2,1.3,0.4 C111.7,51,116.3,60.5,113.3,69.1z"/>
</svg>