<svg viewBox="0 0 128 128" xmlns="http://www.w3.org/2000/svg">
  <g>
    <path d="M105.3,99.8c0,0,0-0.1,0-0.1c0-0.1,0-0.2,0-0.3c0,0.1,0,0.1,0,0.2c-0.1,1.3-0.9,2.4-1.9,3.3c-1,0.9-2.2,1.6-3.4,2.3 c-2.4,1.2-5,2.1-7.7,2.8c-5.3,1.4-10.7,2.3-16.1,2.8c-5.4,0.5-10.9,0.8-16.4,0.8c-5.5,0-10.9-0.2-16.4-0.7 c-5.4-0.5-10.8-1.3-16.1-2.5c-2.6-0.6-5.3-1.3-7.8-2.3c-2.5-1-5-2.1-6.8-3.9c-0.9-0.9-1.5-2-1.4-3.1c0.1-1.1,0.8-2.2,1.7-3.1 c0.9-0.9,2-1.7,3.2-2.3c0.6-0.3,1.2-0.6,1.8-0.9c0.3-0.1,0.6-0.3,1-0.4c0.3-0.2,0.7-0.3,1-0.7c0.2-0.2,0.3-0.7,0.1-1 c-0.2-0.3-0.3-0.4-0.5-0.5c-0.3-0.2-0.7-0.3-1-0.4c-0.7-0.2-1.3-0.4-2-0.6l-4-0.9c-0.5-0.1-0.9-0.2-1.4-0.4c-1.5-0.4-2.9-0.9-4-1.4 c-0.6-0.3-1.2-0.6-1.6-1.1c-0.1-0.1-0.2-0.2-0.3-0.3c0,0,0,0-0.1-0.1c0,0,0,0,0.1,0.1c0,0,0,0,0,0c0.1,0.2,0.3,0.5,0.6,0.7 c0.8,0.7,1.7,1.2,2.7,1.6c1.3,0.5,2.6,1,3.9,1.4l4,1.1c0.7,0.2,1.3,0.4,1.9,0.6c0.3,0.1,0.6,0.3,0.8,0.4c0.1,0.1,0.2,0.1,0.2,0.2 c0,0,0,0,0,0c-0.1,0.1-0.4,0.3-0.7,0.4c-0.3,0.1-0.6,0.2-0.9,0.4c-0.6,0.3-1.3,0.6-1.9,0.9c-1.3,0.6-2.5,1.4-3.6,2.4 c-1.1,1-2.1,2.3-2.2,3.9c-0.1,0.8,0.1,1.6,0.4,2.4c0.3,0.7,0.8,1.4,1.3,1.9c1,1.1,2.2,1.9,3.5,2.6c1.2,0.7,2.5,1.3,3.8,1.8 c2.6,1.1,5.3,1.9,8,2.5c5.4,1.3,10.9,2.1,16.4,2.6c0.3,0,0.6,0,0.8,0.1c4.4,0.4,9,0.6,13.8,0.6C84.1,113.6,105.3,107.4,105.3,99.8z "/>
    <path d="M109.9,22.8L67.5,11.9c-1.9-0.5-3.8-0.7-5.8-0.7c-2.8,0-5.5,0.5-8.1,1.5L26.9,22.7c-3,1.2-5.1,4.2-5.1,7.5v6.4v46.2 c0,3,1.9,5.5,4.7,6.2L72.8,101c1.5,0.4,3,0.6,4.5,0.6c2.2,0,4.4-0.4,6.4-1.2l27.4-10.3c3.4-1.3,5.6-4.6,5.6-8.3V36.7v-4.6 C116.8,27.7,114,23.9,109.9,22.8z M113.2,36.7v45.1c0,2.1-1.3,4-3.2,4.7L82.5,96.8c-1.7,0.6-3.4,0.9-5.2,0.9 c-1.2,0-2.4-0.1-3.6-0.5L27.4,85.4c-1.1-0.3-1.9-1.3-1.9-2.5V36.7v-6.4c0-1.7,1.1-3.3,2.6-3.9l26.7-10.1c2.2-0.8,4.5-1.3,6.9-1.3 c1.6,0,3.3,0.2,4.9,0.6L109,26.6c2.4,0.6,4.1,2.9,4.1,5.5V36.7z"/>
    <path d="M99.3,26.5c-0.1,0-13.7-3.6-21.9-5.8c-1-0.3-1.9-0.5-2.8-0.8c-7.6-2-13.5-3.6-21.8,0c-13.5,5.8-18.1,7.7-18.2,7.7 c0,0,7.1,1.6,20.1-3.3c6.9-2.6,11.2-1.7,18.7,0.3C88.5,28.6,99.3,26.5,99.3,26.5z"/>
    <path d="M77.7,57.8c0,16.5,0.9,33,0.9,33.1c0,0,3.7-10.7,3.9-33.1c0-9,2.8-14.2,8.8-16.7c11.2-4.6,17.3-9.8,17.3-9.8 c-0.5,0.1-11.8,2.9-19.1,5.3C76.4,41,77.7,46.1,77.7,57.8z"/>
    <path d="M116.6,117.7c-0.3,1.2-1,2-1.9,2.6c-0.9,0.6-2,1.1-3,1.4c-2.2,0.7-4.4,0.9-6.7,0.9c-2.3,0-4.5-0.3-6.7-0.9 c-1.1-0.3-2.1-0.8-3-1.4c-0.9-0.6-1.7-1.5-2-2.7c0,0,0,0,0,0.1c-0.1,0.6,0,1.2,0.2,1.8c0.2,0.6,0.6,1.1,1.1,1.6 c0.9,0.9,2,1.6,3.1,2.1c1.1,0.5,2.3,0.9,3.6,1.1c1.2,0.2,2.5,0.3,3.7,0.4c1.2,0,2.5-0.1,3.7-0.4c1.2-0.2,2.4-0.6,3.6-1.1 c1.2-0.5,2.2-1.2,3.1-2.1c0.4-0.5,0.8-1,1.1-1.6C116.6,118.9,116.7,118.3,116.6,117.7C116.6,117.7,116.6,117.7,116.6,117.7z"/>
  </g>
</svg>