<svg viewBox="0 0 128 128" xmlns="http://www.w3.org/2000/svg">
  <g>
    <path d="M102.4,64.4c0-1.4-0.7-2.7-1.9-3.5l-30.8-21c-0.1-0.2-0.1-0.5-0.2-0.7c-0.4-2.3-1.1-4.1-2.1-5.6c1.9-0.7,3.8-2.2,5.1-4.8 c0.2-0.1,0.3-0.2,0.5-0.3c0,0,0,0,0,0c1,0,1.9-0.5,2.2-1.7c0.1-0.4,0.1-0.7,0.1-1c0,0,0-0.1,0.1-0.1c0.1-0.1,0.2-0.2,0.3-0.3 c0,0,0-0.1,0.1-0.3c1.6-2.7,2.3-5.7,1.7-8.7c-0.1-0.5-0.2-1.1-0.4-1.7c0.1-0.4,0.2-0.9,0.2-1.4c0.3-4.8-4.2-9-10-9.4 c-0.3,0-0.6,0-0.9,0c-4.9,0-9,2.7-10,6.5c-2.6,2.7-3.8,6.3-3,9.7c-0.1,0.1-0.1,0.3-0.2,0.4C53,20.9,53,21.1,53,21.2 c-0.1,1.1,0.6,1.8,1.4,2.2c-0.4,3.5,0.7,6,2.3,7.6l-9.9-6.8c0.1-0.1,0.1-0.2,0.1-0.4c0-0.1-0.1-0.2-0.2-0.3l-0.3-0.2 c0.2-0.2,0.3-0.4,0.3-0.4c0.2-0.3,0.2-0.8-0.1-1.2c-0.3-0.5-0.9-0.7-1.5-0.6c-0.2,0-0.3,0.1-0.5,0.2c0.1-0.4,0.2-0.8,0-1.2 c-0.1-0.1-0.2-0.3-0.4-0.4c0.3-0.7,0.3-1.5-0.4-2.2c0,0,0,0,0,0c-0.7-0.6-1.2-0.5-1.6-0.3c-0.2,0.1-0.2,0.1-0.2,0 c-0.1-0.1-0.1-0.1-0.2-0.2c-0.1-0.2-0.2-0.5-0.7-0.7c-0.7-0.3-1.1-0.1-1.4,0c-0.1,0-0.2,0.1-0.2,0.1c0,0,0,0-0.1-0.1 c-0.1-0.2-0.3-0.5-0.9-0.6c-0.5-0.1-0.9,0-1.1,0.1C37.3,16,37.3,16,37.2,16c-0.2-0.1-0.2-0.1-0.3-0.2c-0.2-0.2-0.4-0.3-0.8-0.4 c-0.5-0.1-0.9,0-1.2,0.2l-3.4-2.3c-0.8-0.5-1.8-0.5-2.5,0.1c-0.5,0.4-0.7,1-0.7,1.7c0,0.6,0.4,1.2,0.9,1.5l3.6,2.5 c-0.4,1.1-0.7,2.3-0.9,3.1c-0.1,0-0.2,0-0.3,0c-0.1,0-0.2,0.2-0.3,0.3l-5.5,16.9c-0.6,1.7-0.1,3.6,1.3,4.8c0.9,0.8,2,1.2,3.2,1.1 l1.4,0c0.8,0.4,1.6,0.8,2.4,0.9l10.5,2c-1.8,4.7-3.6,10.3-5.3,16.5c-0.4,1.3-0.3,2.6,0.4,3.8l-3.4,16.1c-0.8,3.6-0.9,7.3-0.4,11 l2.6,19.6l-6.5,2.2c-1.7,0.7-2.8,2.3-2.9,4.2l0,1.4c0,0.6,0.5,1.1,1.1,1.1l17.5,0c0.7,0,1.3-0.6,1.3-1.3v-3.2 c0-2.1-2.2-4.6-2.2-4.6h-0.5c0.5-6.4,1.7-22,1.7-22l1-3l1.3,4c0.2,0.8,0.6,1.6,1.2,2.3c0.8,1,1.8,1.7,2.9,2.1l18,9.5l-1.4,4.9 c-0.4,1.7,0.3,3.4,1.7,4.3l1.1,0.7c0.2,0.1,0.4,0.2,0.6,0.2c0.3,0,0.7-0.2,0.9-0.5l9.1-13.5c0.4-0.5,0.2-1.3-0.3-1.7l-2.4-1.6 c-1-0.7-2.4-0.8-3.4-0.8v0c-0.7,0-1.2,0.1-1.2,0.1l-0.2,0.3L63.3,88.8c-1-0.9-1.7-2.1-1.9-3.5l-1.6-11.2c0.2-0.6,0.4-1.5,0.4-2.5 c0.2-0.1,0.3-0.2,0.4-0.2c0.7-0.5,1.2-1.1,1.3-1.9c0.8-8,2-14.9,4.4-21.7c5.1,3.3,10.7,3.6,11,3.7c0,0,0,0,0,0 c0.2,0,0.4-0.1,0.5-0.3c0.1-0.2,0-0.4-0.2-0.6c0,0-2.6-1.7-4.8-4.6l23.9,16.5c0.1,0,0.2,0.1,0.1,0.2c-1,1.2-1.7,2.9-1.9,4 c-0.2,1,0.1,3.6,0.2,3.8c0,0.1,0.1,0.9,0.7,1.4c0.3,0.3,0.7,0.4,1.2,0.4c0.1,0,0.3,0,0.4,0c1.8-0.3,3.4-1.4,3.4-1.4 c0.1,0,1.2-0.6,1.4-2.7C102.4,67.3,102.5,66,102.4,64.4z M75,117.3L75,117.3l0.4,0.3L75,117.3C75,117.3,75,117.3,75,117.3z M67.3,32.7c-0.1,0.1-0.3,0.1-0.5,0.1c0,0,0-0.1-0.1-0.1C66.9,32.7,67.1,32.7,67.3,32.7z M69.4,31.4c0.4-0.6,0.9-1.2,1.5-1.8 c0,0,0,0,0.1,0C70.5,30.3,69.9,30.9,69.4,31.4z M66.3,5c0.3,0,0.5,0,0.8,0c2.6,0.2,5,1.2,6.7,2.8c1.6,1.5,2.4,3.4,2.4,5.3 c-0.2-0.4-0.5-0.8-0.8-1.2c-0.3-0.4-0.6-0.9-1-1.3c-2.3-2.6-5.7-3.9-9.1-3.9c-2.6,0-5.2,0.7-7.2,2.2C59.7,6.6,62.8,5,66.3,5z M57.8,10.4c2-1.7,4.7-2.7,7.6-2.7c3.3,0,6.3,1.3,8.3,3.5c5.4,6.1,2.2,12.2-0.1,15.2c-1.3,1.7-3.6,2.6-6.4,2.6 c-4,0-8.2-1.8-10.6-4.6C52.8,20.2,53.3,14.3,57.8,10.4z M55.4,24.7c0.1,0.1,0.1,0.2,0.2,0.2c0.1,0.7,0.2,1.4,0.2,2.3 c0,0,0,0.1,0,0.1C55.5,26.6,55.4,25.7,55.4,24.7z M58.2,31.1c-0.5-0.4-1-0.9-1.3-1.4c1.2,1.1,2.9,1.8,4,2.2 c-0.2,0.4-0.3,0.9-0.5,1.6l-0.6-0.2l-1.3-0.9l0-0.2C58.6,31.7,58.5,31.3,58.2,31.1z M46.2,22.7c0,0-0.1,0.1-0.3,0.4l0,0 c0,0.1-0.1,0.1-0.1,0.2c0,0.1-0.1,0.1-0.1,0.2c-0.1,0.1-0.1,0.2-0.2,0.3c0,0.1-0.1,0.1-0.1,0.2l0,0c0,0.1-0.1,0.2-0.1,0.3 c0,0.1-0.1,0.2-0.1,0.3c0,0.1-0.1,0.3-0.1,0.4c0,0.1-0.1,0.2-0.1,0.2c0,0.1-0.1,0.1-0.2,0.1c0,0-0.7,0.1-1.5,0.5c0,0,0,0,0,0 c-0.1,0.1-0.3,0.1-0.4,0.2l0,0c-0.1,0-0.1,0.1-0.2,0.1c-0.3,0.2-1.2,2.6-1.3,2.7c-0.4,0.2-2.1-1-2.3-1.5l0-0.3 c0.2-0.2,1.1-1.4,2.2-2.7l1-0.4c0.3-0.1,1-0.2,1.5-0.3c0-0.1,0.1-0.3,0.2-0.4l0,0c0.1-0.3,0.3-0.4,0.3-0.4c0.1-0.1,0.2-0.2,0.3-0.4 c0.2-0.2,0.4-0.4,0.6-0.4C45.9,21.5,46.4,22.4,46.2,22.7z M43.5,21.4l-0.2-0.1c0.1-0.2,0.2-0.3,0.3-0.4c0-0.1,0.1-0.1,0.1-0.2 C43.8,20.8,43.7,21.2,43.5,21.4z M33.7,19.6c0.3-1,0.7-1.9,1.2-2.6c0.5-0.7,0.8-0.7,1-0.6c0.2,0,0.2,0.1,0.3,0.2 c0.1,0.1,0.3,0.2,0.5,0.3c0,0,0,0,0,0c0.4,0.2,0.8,0,1-0.1c0.2-0.1,0.3-0.1,0.5-0.1c0.2,0,0.2,0,0.2,0.1c0.1,0.1,0.2,0.4,0.6,0.5 c0.4,0.1,0.7,0,0.9,0c0.2-0.1,0.4-0.1,0.7,0c0.1,0,0.1,0,0.1,0.1c0.1,0.2,0.2,0.5,0.7,0.7c0.4,0.2,0.8,0.1,1,0 c0.2-0.1,0.3-0.1,0.6,0.1c0.5,0.4,0.3,1-0.3,2c-0.1,0.1-0.2,0.2-0.3,0.4c-0.5,0.7-1.5,2-2.5,3.2c-0.6,0.7-1.1,1.4-1.6,2L32.8,23 C32.9,22.4,33.3,21,33.7,19.6z M51.3,35.3L38.8,36l3.4-6.6c0.1-0.2,0-0.5-0.2-0.7l0,0c0.1-0.2,0.2-0.4,0.4-0.8 c0.2-0.5,0.6-1.3,0.6-1.4c0.1-0.1,0.2-0.1,0.4-0.2l1,0.7c0.2,0.2,0.5,0.1,0.7-0.1l9.2,6.3C53.2,33.7,52.2,34.4,51.3,35.3z M95.4,60.3L45.2,25.7l0.6-0.9c0,0,0,0,0,0l50.3,34.3L95.4,60.3z"/>
    <path d="M66.3,14.5c0.8,0.1,1.5-0.3,1.6-0.9c0.1-0.7-0.4-1.3-1.2-1.4s-1.5,0.3-1.6,0.9C65,13.7,65.6,14.3,66.3,14.5z"/>
  </g>
</svg>