<svg viewBox="0 0 128 128" xmlns="http://www.w3.org/2000/svg">
  <g>
    <path d="M45.6,53.2c0.5,0.2,1,0.1,1.4-0.2c0.7-0.5,0.9-1.5,0.4-2.2c0,0-0.1-0.2-0.5-0.6c-0.1-0.1-0.2-0.2-0.3-0.3 c-0.1-0.1-0.2-0.2-0.3-0.3c-0.1-0.1-0.3-0.2-0.4-0.4c-0.1-0.1-0.3-0.2-0.5-0.3c-0.2-0.1-0.3-0.2-0.5-0.4c-0.2-0.1-0.4-0.2-0.6-0.3 c-0.2-0.1-0.4-0.2-0.7-0.3c-0.2-0.1-0.5-0.2-0.7-0.3c-0.5-0.1-1-0.3-1.5-0.4c-0.5-0.1-1.1-0.1-1.6-0.1s-1.1,0-1.6,0.1 c-0.5,0.1-1,0.2-1.5,0.4c-0.2,0.1-0.5,0.2-0.7,0.3c-0.2,0.1-0.5,0.2-0.7,0.3c-0.2,0.1-0.4,0.2-0.6,0.3s-0.4,0.2-0.5,0.4 c-0.2,0.1-0.3,0.2-0.5,0.3c-0.1,0.1-0.3,0.3-0.4,0.4c-0.1,0.1-0.3,0.2-0.4,0.3c-0.1,0.1-0.2,0.2-0.2,0.3c-0.2,0.3-0.4,0.5-0.4,0.5 c-0.3,0.4-0.4,1-0.1,1.5c0.3,0.8,1.3,1.2,2.1,0.9c0,0,0.2-0.1,0.6-0.3c0.1,0,0.2-0.1,0.3-0.1c0.1,0,0.2-0.1,0.3-0.1 s0.2-0.1,0.3-0.1c0.1,0,0.2-0.1,0.4-0.1s0.3-0.1,0.4-0.1c0.1,0,0.3-0.1,0.4-0.1s0.2,0,0.2-0.1c0.1,0,0.2,0,0.2,0 c0.2,0,0.3-0.1,0.5-0.1c0.3,0,0.7-0.1,1-0.1c0.3,0,0.7,0,1,0c0.3,0,0.7,0,1,0c0.3,0,0.7,0.1,1,0.1c0.2,0,0.3,0.1,0.5,0.1 c0.1,0,0.1,0,0.2,0c0.1,0,0.2,0,0.2,0.1c0.1,0,0.3,0.1,0.4,0.1c0.1,0,0.3,0.1,0.4,0.1c0.3,0.1,0.5,0.2,0.7,0.2 c0.1,0,0.2,0.1,0.3,0.1c0.1,0,0.2,0.1,0.2,0.1c0.3,0.1,0.5,0.2,0.5,0.2L45.6,53.2z"/>
    <ellipse cx="39.8" cy="58.8" rx="4.9" ry="5.1"/>
    <path d="M79.8,53c0.7-0.5,0.9-1.5,0.4-2.2c0,0-0.1-0.2-0.4-0.5c-0.1-0.1-0.1-0.2-0.2-0.3c-0.1-0.1-0.2-0.2-0.4-0.3 c-0.1-0.1-0.3-0.2-0.4-0.4c-0.2-0.1-0.3-0.2-0.5-0.4c-0.2-0.1-0.3-0.2-0.5-0.3c-0.2-0.1-0.4-0.2-0.6-0.3C77,48.1,76.8,48,76.6,48 c-0.2-0.1-0.5-0.2-0.7-0.3c-0.5-0.1-1-0.3-1.5-0.4c-0.5-0.1-1.1-0.1-1.6-0.1s-1.1,0-1.6,0.1c-0.5,0.1-1.1,0.2-1.5,0.4 c-0.2,0.1-0.5,0.2-0.7,0.3s-0.5,0.2-0.7,0.3c-0.2,0.1-0.4,0.2-0.6,0.3c-0.2,0.1-0.4,0.2-0.5,0.3c-0.2,0.1-0.3,0.2-0.5,0.3 c-0.1,0.1-0.3,0.2-0.4,0.3c-0.1,0.1-0.2,0.2-0.3,0.3c-0.1,0.1-0.2,0.2-0.3,0.3c-0.3,0.3-0.5,0.6-0.5,0.6c-0.3,0.4-0.4,0.9-0.2,1.4 c0.3,0.8,1.2,1.3,2,1l0.3-0.1c0,0,0.2-0.1,0.5-0.2c0.1,0,0.2-0.1,0.2-0.1c0.1,0,0.2-0.1,0.3-0.1c0.2-0.1,0.4-0.2,0.7-0.2 c0.1,0,0.3-0.1,0.4-0.1c0.1,0,0.3-0.1,0.4-0.1c0.1,0,0.1,0,0.2-0.1c0.1,0,0.2,0,0.2,0c0.2,0,0.3-0.1,0.5-0.1c0.3,0,0.7-0.1,1-0.1 s0.7,0,1,0s0.7,0,1,0s0.7,0.1,1,0.1c0.2,0,0.3,0.1,0.5,0.1c0.1,0,0.1,0,0.2,0c0.1,0,0.2,0,0.2,0.1c0.1,0,0.3,0.1,0.4,0.1 s0.3,0.1,0.4,0.1c0.1,0,0.2,0.1,0.4,0.1c0.1,0,0.2,0.1,0.3,0.1c0.1,0,0.2,0.1,0.3,0.1c0.1,0,0.2,0.1,0.3,0.1 c0.3,0.2,0.6,0.3,0.6,0.3C78.8,53.3,79.3,53.3,79.8,53z"/>
    <ellipse cx="72.7" cy="58.8" rx="4.9" ry="5.1"/>
    <path d="M56.2,72.4c2.8,0,4.2-2,4.6-2.7c0.3-0.7-0.1-1.4-0.7-1.6C60,68,59.9,68,59.8,68h-7.1c-0.1,0-0.2,0-0.3,0.1 c-0.6,0.3-1,0.9-0.7,1.6S53.4,72.4,56.2,72.4z"/>
    <path d="M64.8,76.1C61.6,78,51.2,78,48,76.1c-1.8-1.1-3.7,0.6-2.9,2.2c0.8,1.6,6.5,5.4,11.4,5.4s10.5-3.8,11.3-5.4 C68.4,76.7,66.6,75,64.8,76.1z"/>
    <path d="M109.9,89.6l2.7-8.8l2.3-7.6c1.6-0.6,3.1-1.7,4-3.3c0.3-0.6,0.6-1.1,0.7-1.7c2.1-7.2-2.2-12.4-4.7-15.6 c-0.4-0.4-0.9-0.6-1.5-0.5c-0.5,0.1-1,0.5-1.2,1c-0.5,1.5-1.6,4.2-2,4.9c-0.4,0.8-0.9,1.5-1.4,2.3c-0.7,1-1.4,2.1-1.9,3.3 c-0.6,1.4-0.9,2.6-0.8,3.8c0.1,1.8,0.9,3.4,2.2,4.5l-1.9,6.7l-3,10.6c-2.4,0.2-5,0.9-7.8,2c-4.4,1.8-7.9,4.7-10.7,8.2 c-3.9-1.2-8.2-2-12.6-2.7c-0.2-0.6-0.4-1.2-0.7-1.6c-0.4-0.6-1.5-1.2-2.7-1.6C77,90,83.8,82.9,87.3,72.4c4-1.7,6.9-5.8,6.9-10.6 c0-2.3-0.7-4.5-1.8-6.3c0.8-5.2,5.3-42.6-24.8-50.2c-0.1,0-0.1,0-0.2,0c-0.8-0.2-1.5-0.4-2.4-0.5c-0.8-0.2-1.6-0.3-2.5-0.4 c-0.2,0-0.3,0-0.5-0.1C60.2,4.2,58.3,4,56.2,4C13.6,4.3,19.1,49.8,20,55.6c-1.1,1.8-1.8,4-1.8,6.3c0,4.8,2.9,9,6.9,10.6 C28.6,83.4,35.8,90.6,44.3,94c-1.9,0.3-4,0.8-4.8,1.2c-0.7,0.4-1.3,1-1.7,1.9c-18.4,2.8-33.5,10.3-33.5,23.7v3.2h3v-3.2 c0-11.2,13.3-17.8,30-20.6c0.2,2,1.4,4.4,4.2,6.4c4.5,3.3,10,4.8,15.5,4c0.1,0,0.3,0.1,0.4,0.1c-0.3,1.2-0.4,2.2-0.4,2.8 c0.2,4.4,2.5,5.9,1.1,9.4c2.2-1.4,3.8-3.8,4.4-6.4c0.4-1.6,0.5-3.2,0.3-4.8c1,1,2.1,1.9,3.2,2.3c4.4,1.9,6.7,0.4,9.6,5 c0.2-3.2-1-6.5-3.1-9c-1.1-1.3-2.5-2.4-4-3.3c0.2-0.1,0.3-0.2,0.5-0.4c2.2-2.1,3.2-4.4,3.5-6.5c3.7,0.6,7.2,1.3,10.5,2.2 c-1.4,2.1-2.7,4.4-3.7,6.7c-1.7,3.8-2.5,7.5-2.9,11.5c-0.1,1.2-0.1,2.5,0,3.8h2c-0.1-1.1-0.1-2.3,0-3.6c0.4-4.1,1.3-7.5,2.8-10.8 c3.8-8.3,8.9-13.9,15.3-16.5c3.2-1.3,6.3-2,9.3-2c6.6,0,11.9,3.4,14.7,9.3c2.6,5.7,2.9,14.6-3.3,23.7h2.3 C128.8,108.8,123,92.5,109.9,89.6z M20.2,61.8c0-1.4,0.3-2.8,0.8-4c0.5,0.9,1.2,2.1,1.8,3.2c0.2,3.1,0.7,6,1.4,8.7 C21.8,68.1,20.2,65.2,20.2,61.8z M89.6,61.1c0.7-1.1,1.3-2.3,1.9-3.2c0.5,1.2,0.8,2.6,0.8,4c0,3.4-1.7,6.3-4.1,8 C88.8,67.1,89.3,64.2,89.6,61.1z M63.3,100.1c0,1.5-0.6,2.9-1.5,4c-0.9-0.2-1.9-0.2-3,0.1c-1.2,0.2-2.2,0.7-3,1.3 c-2.2-0.7-4.3-2-5.7-3.6c-0.4-0.5-0.7-0.9-1-1.4c0-0.1,0-0.3,0-0.4v-4.6c2.3,0.5,4.7,0.8,7.1,0.8c2.4,0,4.8-0.3,7.1-0.8V100.1z M65.2,92.9c-0.1,0-0.3,0-0.3,0.1c-2.8,0.8-5.7,1.3-8.6,1.3c-8.3,0-16-3.3-21.6-9.3c-5.1-5.3-8.2-12.6-9.4-21.1v-0.1 c0-0.3,0-0.6,0-0.9c0-0.1,0-0.2,0-0.3c0-0.8,0.1-1.7,0.2-2.6c0.7-7.2,2.9-16.2,4.5-20.5c1-2.8,3.9-4.4,6.8-3.8 c4.5,0.8,11.5,1.8,19.4,1.8h0.1h0.1c7.8,0,14.9-1,19.4-1.8c2.9-0.5,5.8,1.1,6.8,3.8c2,5.2,4.7,17,4.8,24.4 C86.3,72.5,83.1,79.7,78,85C74.3,88.7,70,91.4,65.2,92.9z M108.2,67.5c3.1,0.2,3.5-3.5,6.1-4.8c4.3-1.1,3.3,2.4,3.4,5 c-0.1,0.4-0.3,0.8-0.5,1.2c-1.2,2.2-3.7,3.2-5.8,2.5C109.5,70.8,108.3,69.4,108.2,67.5z M109.2,72.6c0.5,0.3,1,0.5,1.5,0.7 c0.7,0.2,1.3,0.3,2,0.3c0.4,0,0.7,0,1.1-0.1l-2.4,7.9c-1.3-0.5-2.6-1.2-4.2-1.6L109.2,72.6z"/>
    <path d="M95.4,95.6c-2.1-0.1-3.2,1.7-3.7,3.4c-0.5,1.8-0.6,3.8,0.6,5.2c1.3,1.6,3.7,1.6,5,0c0.5-0.6,0.8-1.3,1-2.1 c0.6-0.9,0.9-2,0.6-3.1C98.7,97.3,97.2,95.7,95.4,95.6z"/>
    <path d="M107.9,102.3c1.7-0.7,3.7-2.6,3.6-4.5c0.5-1.4,0.3-2.9-1.1-3.8c-1.7-1.1-4.3-0.1-5.8,1c-1.7,1.2-3,3.5-2,5.5 C103.5,102.5,106,103.1,107.9,102.3z"/>
    <path d="M118.4,107.5c0.1-0.3,0.2-0.6,0.3-1c0.2-1.9-1.3-3.2-3.1-3.3c-1.7-0.1-3.5,0.7-4.8,1.7c-1.4,1.1-2.4,2.8-1.5,4.6 c0.8,1.6,2.8,2.2,4.5,2c1.6-0.1,3.2-1,4-2.4C118.1,108.6,118.3,108,118.4,107.5z"/>
    <path d="M108.2,114.6c-1.6-0.3-3.5-0.2-4.8,1c-1.5,1.4-1.2,3.6,0.5,4.7c0.3,0.2,0.7,0.4,1.2,0.6c1.5,1.1,3.4,0.8,5,0.2 c1.2-0.5,2.3-1.6,2.3-2.8c0.1-0.7-0.1-1.2-0.5-1.6C111.2,115.3,109.6,114.8,108.2,114.6z"/>
  </g>
</svg>