<svg viewBox="0 0 128 128" xmlns="http://www.w3.org/2000/svg">
  <g>
    <path d="M124,52c-0.5-8.8-2.6-15.1-5.4-19.7c0,0,0,0,0,0c-0.3-0.5-0.6-1-0.9-1.4c0,0,0,0,0,0c-0.3-0.5-0.6-0.9-1-1.3c0,0,0,0,0,0 c-0.3-0.4-0.7-0.8-1-1.2c0,0,0,0,0,0c-2.7-3.1-5.7-5-8.5-6.2c-0.1,0-0.2-0.1-0.2-0.1c-0.2-0.1-0.4-0.2-0.7-0.3 c-0.1-0.1-0.3-0.1-0.4-0.2c-0.2-0.1-0.3-0.1-0.5-0.2c-0.2-0.1-0.4-0.1-0.6-0.2c-0.1,0-0.3-0.1-0.4-0.1c-0.2-0.1-0.4-0.1-0.6-0.2 c-0.1,0-0.2,0-0.3-0.1c-0.2-0.1-0.5-0.1-0.7-0.2c-0.1,0-0.1,0-0.2,0c-0.3-0.1-0.5-0.1-0.8-0.2c0,0,0,0,0,0C100,20,98.7,20,98.2,20 c-0.1,0-0.2,0-0.2,0c0-0.1-1.4-3.6-5.2-7.2c-4.1-4-11.2-8.2-22.6-8.7c-0.7,0-1.4,0-2.2,0c-28,0-36.1,9.5-40,11 c-0.6,0.2-1.3,0.5-1.9,0.7c-0.2,0.1-0.3,0.1-0.5,0.1c-0.4,0.1-0.9,0.3-1.3,0.4c-0.2,0-0.3,0.1-0.5,0.1c-0.4,0.1-0.8,0.2-1.2,0.3 c-0.2,0-0.3,0.1-0.5,0.1c-0.5,0.1-1,0.2-1.4,0.2c-0.2,0-0.3,0-0.5,0.1c-0.3,0-0.6,0.1-0.8,0.1c-0.2,0-0.4,0-0.6,0 c-0.2,0-0.4,0-0.5,0c-0.2,0-0.4,0-0.6,0c-0.1,0-0.2,0-0.3,0c-0.4,0-0.7,0-1.1,0c-0.1,0-0.2,0-0.2,0c-0.3,0-0.6-0.1-0.9-0.1 c0,0-0.1,0-0.2,0c-0.7-0.1-1.2-0.2-1.7-0.4c0,0-0.1,0-0.1,0c-0.2-0.1-0.3-0.1-0.5-0.2c0,0-0.1,0-0.1-0.1c-0.1,0-0.2-0.1-0.3-0.1 c0,0-0.1,0-0.1,0c-0.1,0-0.1-0.1-0.2-0.1c0,0,0,0,0,0c0,0-0.1,0-0.1,0c0,11,5,11,5,11S4,37.9,4,56c0,0.6,0,1.2,0,1.8 c0,0.2,0,0.3,0,0.5c0,0.4,0,0.8,0.1,1.3c0,0.2,0,0.3,0,0.5c0,0.5,0.1,0.9,0.1,1.4c0,0.1,0,0.2,0,0.3C4.9,67.9,6.6,74,10,79.2 c0.1,0.2,0.3,0.4,0.4,0.6c0.1,0.1,0.1,0.2,0.2,0.3c0.3,0.4,0.6,0.8,1,1.3c0,0.3,0,0.5,0,0.8c0,3,1,5.7,2.6,8 c-0.1,1.9,0.4,4.1,0.9,5.8c0.1,0.4,0.2,0.9,0.3,1.2c0.9,3.7,2.8,7,5.6,9.9c5.2,5.2,11.2,6.3,14.8,7c0,0,0.1,0,0.1,0 c8,6.6,17.9,9.9,27.9,9.9c9.9,0,19.8-3.3,27.8-9.8c6.6-1.4,12.3-4.4,16.8-9c2.8-2.8,5.9-9.6,5.9-15.4c1.5-2.2,2.3-4.8,2.3-7.6 c0-1-0.1-1.9-0.3-2.9c1.1-1.8,2.1-3.6,3-5.5c0.1-0.2,0.2-0.5,0.3-0.7c0-0.1,0.1-0.2,0.1-0.3C122.3,67.1,124.5,59.9,124,52z M14.5,82.1c0-2.8,1.1-5.3,2.9-7.3C18.1,80.9,19,85,19,85c0.1-0.1,0.1-0.2,0.2-0.3c0.5,2.6,1.2,5.1,2,7.5 C17.3,90.4,14.5,86.6,14.5,82.1z M34.2,108.5c-6.8-7-11-16.4-12.7-27.6c3.9-7.5,2.4-14,2.4-14c9-12,35.8-21.6,36-22 c0,0-5.4,10.8-5.4,10.8c-0.7,1.3,0.5,3,2,2.6C82,53,93.2,43.2,93.2,43.2S94,58,105,68c0,0,0,4.5,1.3,10.6 c-1.4,12.2-5.8,22.4-13,29.9c-7.7,8-18.2,12.4-29.5,12.4S42,116.5,34.2,108.5z M106.3,92.5c1.4-4,2.4-8.3,2.9-13.1 c0.3-1.5,0.6-3.3,0.8-5.3c2.2,2,3.6,4.9,3.6,8C113.6,86.8,110.5,90.8,106.3,92.5z"/>
    <path d="M63.8,92.8c3.7,0,5.6-2.6,6-3.5c0.4-0.9-0.1-1.8-0.9-2.1c-0.1-0.1-0.3-0.1-0.4-0.1h-9.3c-0.1,0-0.3,0.1-0.4,0.1 c-0.8,0.3-1.3,1.2-0.9,2.1C58.2,90.2,60.1,92.8,63.8,92.8z"/>
    <path d="M49.7,71.5l0.4,0.1c0.6,0.2,1.3,0.1,1.9-0.3c0.9-0.7,1.1-2,0.5-2.9c0,0-0.2-0.3-0.6-0.8c-0.1-0.1-0.2-0.2-0.3-0.4 c-0.1-0.1-0.3-0.3-0.5-0.4c-0.2-0.1-0.3-0.3-0.5-0.5c-0.2-0.2-0.4-0.3-0.6-0.4c-0.2-0.2-0.4-0.3-0.7-0.5c-0.2-0.1-0.5-0.3-0.8-0.4 c-0.3-0.2-0.6-0.3-0.9-0.4s-0.6-0.2-0.9-0.3c-0.6-0.2-1.3-0.4-2-0.5c-0.7-0.1-1.4-0.1-2.1-0.2c-0.7,0-1.4,0-2.1,0.2 c-0.7,0.1-1.4,0.3-2,0.5c-0.3,0.1-0.6,0.2-0.9,0.3c-0.3,0.1-0.6,0.2-0.9,0.4c-0.3,0.1-0.5,0.3-0.8,0.4c-0.2,0.2-0.5,0.3-0.7,0.5 c-0.2,0.2-0.4,0.3-0.6,0.5c-0.2,0.2-0.4,0.3-0.6,0.5c-0.2,0.2-0.3,0.3-0.5,0.4c-0.1,0.1-0.2,0.2-0.3,0.3c-0.3,0.4-0.5,0.7-0.5,0.7 c-0.4,0.6-0.5,1.3-0.2,2c0.5,1.1,1.7,1.6,2.8,1.1c0,0,0.3-0.1,0.8-0.4c0.1-0.1,0.2-0.1,0.4-0.2c0.1,0,0.2-0.1,0.4-0.1 s0.2-0.1,0.4-0.1c0.1,0,0.3-0.1,0.5-0.2c0.2,0,0.3-0.1,0.5-0.2c0.2,0,0.4-0.1,0.6-0.1c0.1,0,0.2,0,0.3-0.1c0.1,0,0.2,0,0.3-0.1 c0.2,0,0.4-0.1,0.6-0.1c0.4,0,0.9-0.1,1.3-0.2c0.5-0.1,0.9,0,1.4-0.1c0.5,0,0.9,0,1.4,0.1c0.5,0,0.9,0.1,1.3,0.2 c0.2,0,0.4,0.1,0.6,0.1c0.1,0,0.2,0,0.3,0.1c0.1,0,0.2,0,0.3,0.1c0.2,0.1,0.4,0.1,0.6,0.1c0.2,0,0.4,0.1,0.5,0.2 c0.3,0.1,0.6,0.2,0.9,0.3c0.1,0.1,0.3,0.1,0.4,0.1c0.1,0,0.2,0.1,0.3,0.1C49.4,71.4,49.7,71.5,49.7,71.5z"/>
    <path d="M94.6,71.4c1-0.7,1.2-2,0.6-3c0,0-0.2-0.3-0.5-0.7c-0.1-0.1-0.2-0.2-0.3-0.3c-0.1-0.1-0.3-0.3-0.5-0.4 c-0.2-0.2-0.4-0.3-0.6-0.5c-0.2-0.2-0.4-0.3-0.6-0.5c-0.2-0.2-0.4-0.3-0.7-0.5c-0.2-0.1-0.5-0.3-0.8-0.4c-0.3-0.2-0.6-0.3-0.9-0.4 s-0.6-0.2-0.9-0.3c-0.6-0.2-1.3-0.4-2-0.5c-0.7-0.1-1.4-0.1-2.1-0.2c-0.7,0-1.4,0-2.1,0.2c-0.7,0.1-1.4,0.3-2,0.5 c-0.3,0.1-0.6,0.2-0.9,0.3c-0.3,0.1-0.6,0.2-0.9,0.4c-0.3,0.1-0.5,0.3-0.8,0.4c-0.2,0.2-0.5,0.3-0.7,0.5c-0.2,0.2-0.4,0.3-0.6,0.5 c-0.2,0.2-0.4,0.3-0.5,0.5c-0.2,0.2-0.3,0.3-0.5,0.4c-0.1,0.1-0.2,0.3-0.3,0.4c-0.4,0.5-0.6,0.8-0.6,0.8c-0.4,0.5-0.5,1.2-0.3,1.9 c0.4,1.1,1.5,1.7,2.6,1.3l0.4-0.1c0,0,0.2-0.1,0.6-0.3c0.1,0,0.2-0.1,0.3-0.1c0.1,0,0.2-0.1,0.4-0.1c0.3-0.1,0.6-0.2,0.9-0.3 c0.2-0.1,0.3-0.1,0.5-0.2c0.2,0,0.4-0.1,0.6-0.1c0.1,0,0.2-0.1,0.3-0.1c0.1,0,0.2,0,0.3-0.1c0.2,0,0.4-0.1,0.6-0.1 c0.4,0,0.9-0.1,1.3-0.2c0.5-0.1,0.9,0,1.4-0.1c0.5,0,0.9,0,1.4,0.1c0.5,0,0.9,0.1,1.3,0.2c0.2,0,0.4,0.1,0.6,0.1 c0.1,0,0.2,0,0.3,0.1c0.1,0,0.2,0,0.3,0.1c0.2,0,0.4,0.1,0.6,0.1s0.4,0.1,0.5,0.2c0.2,0,0.3,0.1,0.5,0.1c0.1,0,0.3,0.1,0.4,0.1 c0.1,0,0.2,0.1,0.4,0.1c0.1,0.1,0.3,0.1,0.4,0.2c0.5,0.2,0.8,0.4,0.8,0.4C93.2,71.8,94,71.8,94.6,71.4z"/>
    <ellipse cx="42" cy="80.3" rx="6.5" ry="6.7"/>
    <ellipse cx="85.7" cy="80.3" rx="6.5" ry="6.7"/>
    <path d="M75,98c-4.2,2.5-17.9,2.5-22.1,0c-2.4-1.4-4.9,0.8-3.9,2.9c1,2.2,8.5,7.1,15,7.1c6.5,0,13.9-5,14.8-7.1 C79.8,98.7,77.4,96.5,75,98z"/>
  </g>
</svg>