<svg viewBox="0 0 128 128" xmlns="http://www.w3.org/2000/svg">
  <g>
    <path d="M98.41,101.64c4.63-16.66,5.69-40.64,5.69-58.99c0-0.6,1.47-38.52-39.53-38.52S23.89,42.04,23.89,42.65 c0,18.25,1.05,42.06,5.62,58.71C19.1,105.34,12,111.71,12,120.99V124h3v-3.01c0-5.98,3.63-10.91,10.78-14.68 c-0.58,0.59-1,1.33-1.15,2.31c-0.42,2.84,1.14,4.86,2.34,5.77c0.98,0.75,1.92,1.11,2.83,1.17c1.41,0.09,2.35-0.83,2.35-2.25 s-1.4-2.13-2.37-1.96c-0.49,0.08-1.02,0.29-1.54-0.21c-0.34-0.33-0.77-1.27-0.65-2.08c0.12-0.82,1.03-1.16,2.96-1.99 c1.07-0.46,2.09-0.92,3.05-1.46l0.02,0.04c1.67-0.88,3.58-2.12,4.54-2.95l0.31-0.27c0.37-0.32,0.74-0.64,1.11-0.94 c1.69-0.38,3.44-0.71,5.25-1l-1.73,3.99l2.31,1.92c-0.31,0.49-0.64,0.99-0.98,1.48l-0.18,0.26c-0.57,0.82-1.07,1.75-1.54,2.86 l-0.06-0.03c-0.66,1.37-1.1,2.84-1.52,4.43c-0.54,2.03-0.75,2.98-1.54,3.22c-0.78,0.23-1.77-0.05-2.15-0.35 c-0.57-0.44-0.44-1-0.43-1.49c0.02-0.99-0.88-2.27-2.28-2.07c-1.4,0.2-2.18,1.27-1.89,2.65c0.19,0.9,0.68,1.77,1.56,2.64 c1.07,1.06,3.3,2.32,6.05,1.49c2.56-0.77,3.12-3.25,3.61-5.43c0.21-0.92,0.75-2.43,1.02-3.15l0.08,0.03 c0.49-1.28,0.99-2.25,1.56-3.08l0.17-0.25c0.24-0.34,0.53-0.77,0.85-1.26l0.6,0.5l-2.87,6.11l5.58,9.04h2.35l-5.66-9.17l2.41-5.13 l0.66-1.4l-1.19-0.99l-0.86-0.71c1.2-2.33,2.05-5.31,0.37-7.82c0.15-0.11,0.31-0.22,0.49-0.34c0.92-0.11,2.07-0.23,3.47-0.35 L55.94,124h16.12l2.83-25.91c2.25,0.19,3.86,0.38,4.9,0.52c0.21,0.17,0.41,0.35,0.62,0.55l2.05,4.74l-4.1,3.4l-1.19,0.99l0.66,1.4 l2.41,5.13L74.59,124h2.35l5.58-9.04l-2.87-6.11l4.51-3.74c0.66,1.48,1.17,2.65,1.58,3.56c-1.54,1.28-2.53,3.22-2.53,5.38 c0,3.87,3.13,7,7,7c3.87,0,7-3.13,7-7c0-3.87-3.13-7-7-7c-0.62,0-1.22,0.09-1.8,0.24c-0.52-1.17-1.21-2.73-2.13-4.82 c-0.22-0.51-0.46-0.97-0.71-1.42c15.48,3.14,27.45,9.86,27.45,19.93V124h3v-3.01C116,112.18,108.88,105.77,98.41,101.64z M90.2,110.06c2.21,0,4,1.79,4,4c0,2.21-1.79,4-4,4c-2.21,0-4-1.79-4-4C86.2,111.85,87.99,110.06,90.2,110.06z M46.41,104.63 l-0.87-0.72l1.32-3.05C47.32,101.94,47.05,103.24,46.41,104.63z M71.08,102H56.92v-6.96c-0.27-0.09,4.69,1.24,7.08,1.24 c2.16,0,4.58-0.43,7.08-1.23V102z M94.23,60.62l-0.54,6.86C90.05,81.48,80.03,89.8,71.19,92.91c-2.53,0.89-5.01,1.36-7.19,1.36 c-2.19,0-4.69-0.48-7.23-1.38c-8.66-3.06-18.45-11.13-22.26-24.64c-0.13-2.79-0.22-5.38-0.27-7.54 c-0.06-2.92-0.94-13.73,5.16-15.09c22.36-5.02,35.01-16.89,35.01-16.89c3.29,7.19,13.58,14.19,17.27,16.86 C94.72,47.78,94.29,56.79,94.23,60.62z"/>
    <path d="M52.92,51.75c0.86,0.29,1.64-0.03,1.9-0.39c0.28-0.38,0.39-1-0.02-1.55c-0.93-1.23-3.07-3.01-7.23-3.01 c-4.16,0-6.31,1.79-7.23,3.01c-0.41,0.54-0.31,1.17-0.02,1.55c0.26,0.35,1.04,0.68,1.9,0.39c0.86-0.29,2.54-1.16,5.35-1.18 C50.38,50.59,52.06,51.46,52.92,51.75z"/>
    <path d="M80.44,46.8c-4.16,0-6.31,1.79-7.23,3.01c-0.41,0.54-0.31,1.17-0.02,1.55c0.26,0.35,1.04,0.68,1.9,0.39 s2.54-1.16,5.35-1.18c2.81,0.02,4.49,0.89,5.35,1.18s1.64-0.03,1.9-0.39c0.28-0.38,0.39-1-0.02-1.55 C86.74,48.59,84.6,46.8,80.44,46.8z"/>
    <ellipse cx="47.56" cy="58.81" rx="4.93" ry="5.1"/>
    <ellipse cx="80.44" cy="58.81" rx="4.93" ry="5.1"/>
    <path d="M72.42,76.14c-3.19,1.89-13.63,1.89-16.81,0c-1.83-1.09-3.7,0.58-2.94,2.24c0.75,1.63,6.45,5.42,11.37,5.42 s10.55-3.79,11.3-5.42C76.09,76.72,74.25,75.05,72.42,76.14z"/>
    <path d="M64,72.38c2.84,0,4.25-1.99,4.55-2.69c0.3-0.71-0.05-1.37-0.69-1.63c-0.11-0.04-0.21-0.07-0.32-0.08h-7.07 c-0.11,0.01-0.22,0.04-0.32,0.08c-0.64,0.26-0.99,0.92-0.69,1.63C59.75,70.39,61.16,72.38,64,72.38z"/>
  </g>
</svg>