<svg viewBox="0 0 128 128" xmlns="http://www.w3.org/2000/svg">
  <path d="M122.7,81C115,22,75.1,18.6,65.9,18.6c-1.2,0-1.9,0.1-1.9,0.1s-0.7-0.1-1.9-0.1C52.9,18.6,13,22,5.3,81 C4.5,87.3,4,94.3,4,102v1.1v0.4c0,0.7,0,1.4,0,2.1c0,2.2,2,3.9,4.3,3.9c0.2,0,0.4,0,0.6,0c8.7-1.1,28.6-3.2,55.1-3.2 s46.5,2.1,55.1,3.2c0.2,0,0.4,0,0.6,0c2.3,0,4.2-1.7,4.3-3.9c0-0.7,0-1.4,0-2.1V103v-1C124,94.3,123.6,87.3,122.7,81z M86,102.6 c-0.2,0.2-0.5,0.4-0.9,0.4H64H42.8c-0.4,0-0.7-0.2-0.9-0.4c-0.3-0.3-0.5-0.8-0.4-1.2c0.4-5.9,1.1-11.6,2.1-17.2 c0.1-0.4,0.1-0.8,0.2-1.1C50,82,56.9,81.3,64,81.3s14,0.6,20.2,1.8c0.1,0.4,0.1,0.7,0.2,1.1c1,5.6,1.7,11.4,2,17.2 C86.4,101.9,86.3,102.3,86,102.6z M121,103v0.2v0.1v0.4c0,0.6,0,1.1,0,1.7c0,0.5-0.6,0.9-1.3,0.9c-0.1,0-0.2,0-0.2,0 c-6.2-0.8-16.7-2-30.6-2.7c0.4-0.7,0.6-1.6,0.6-2.6c-0.4-6.6-1.2-12.4-2-17.5c-1-5.9-2.2-10.8-3.3-14.6c2.7,0.9,6.3,1.7,10.1,1.7 c0,0,4.3-7,1.1-11.2c0,0-6.4-2.1-14.7-0.9c-0.4-0.6-1.5-0.4-1.5-0.4c-2.2-1-8-3.2-13.8-0.8C64.8,56.4,64,57,64,57 c-2.3-0.7-7.9-1.7-13.5,1.2c0,0-1.1-0.2-1.5,0.4c-3-0.2-12.9-1.3-16.9,1.4c0,0-2.5,7.2,3.3,11.1c0,0,3.8,0.1,8.2-1.1 c-0.1,0.4-0.2,0.9-0.4,1.3c-0.9,3.4-1.9,7.5-2.7,12.4c-0.9,5.1-1.6,11-2,17.5c-0.1,0.9,0.2,1.8,0.6,2.6c-13.9,0.7-24.5,1.9-30.7,2.7 c-0.1,0-0.2,0-0.2,0c-0.7,0-1.3-0.4-1.3-0.9c0-0.6,0-1.1,0-1.7v-0.4v-0.1v-0.1V103v-0.2V102c0-7.3,0.4-14.2,1.2-20.5 c0.4-2.9,0.8-5.7,1.4-8.3C27.3,38.9,47,26.4,57.1,22c2-0.2,3.7-0.3,4.8-0.3c1,0,1.6,0.1,1.6,0.1h0.3h0.3c0,0,0.6,0,1.6,0 c1.2,0,2.8,0.1,4.8,0.3c10.1,4.4,29.8,16.9,47.6,51.2c0.5,2.7,1,5.5,1.4,8.3c0.8,6.3,1.2,13.2,1.2,20.6v0.6h0.3V103z"/>
</svg>