<svg viewBox="0 0 128 128" xmlns="http://www.w3.org/2000/svg">
  <g>
    <path d="M107.8,75.8c-1.6-2.8-3.5-5.5-5.5-8.1c-2.9-3.8-6-7.5-8.7-11.4c-2.7-4-4.7-8.1-8.1-11.6c-3.1-3.2-6.9-5.4-11-6.3 c-1.1-0.4-2.2-1-3.1-1.7c1.4-0.1,2.5-1.2,2.5-2.7c0-0.9-0.5-1.7-1.2-2.2c-0.3-0.2-0.6-0.3-1-0.4c-0.2,0-0.4-0.1-0.5-0.1h-1 c0-0.6,0.1-0.9,0.3-1.3c1.5-4.4,3-8.9,4.5-13.3c0.4-1.1,0.7-2.1,1.4-2.9c0.8-1.1,2.1-1.8,3.1-2.9c1-1.1,1.3-2.9,0.1-3.9 c-0.6-0.1-1.2-0.2-1.9-0.2c-1.4,0-2.9,0.3-4.2,0.9c0.6-1.1-0.1-2.5-1.2-3.1C71.4,4,70.1,4,68.9,4c-2.9,0-5.8,0.1-8.7,0.1 c-1.3,0-2.9,0.1-3.7,1.1c-0.5,0.5-0.6,1.1-1.1,1.6c-0.7,0.8-1.6,1-2.6,1c-0.9,0-1.9-0.2-2.9-0.4c-0.5-0.1-1-0.1-1.5-0.1 c-1.5,0-3.1,0.5-3.5,1.9c-0.1,0.7,0,1.3,0.1,2c1.5,6.2,4.4,13.2,8.2,18.4c0.5,0.8,0.6,1.1,0.8,1.7h-0.6c-0.2,0-0.4,0-0.5,0.1 c-0.3,0.1-0.7,0.2-1,0.4c-0.7,0.5-1.2,1.3-1.2,2.2c0,1.2,0.8,2.2,1.8,2.5c-0.5,0.3-1.1,0.5-1.2,0.6c-4.7,2.6-9,6.9-12.8,10.6 c-4,4-7.6,8.3-10.9,12.9c-5.4,7.6-11.1,16.5-11.7,25.9c-0.3,5,0.8,10.3,3.3,14.7c2.9,5,7.5,9.2,11.9,12.9c4.5,3.7,9.7,6.4,15.2,8.1 c0.1,0,0.1,0,0.2,0c4.1,1.2,8.4,1.7,12.7,1.7c8.2,0,16.6-1.9,24-4.8c7.6-2.9,14.4-7.4,20.2-13.1c3-2.9,5.5-6.3,7-10.2 C113.1,89.1,111.3,82,107.8,75.8z M48,10.6c0-0.1,0-0.2,0-0.3c0.1,0,0.3,0,0.5,0c0.3,0,0.6,0,0.9,0.1h0.2c1,0.2,2.1,0.4,3.2,0.4 c2,0,3.6-0.6,4.8-1.9c0.5-0.5,0.8-1,1-1.4c0,0,0.1-0.1,0.1-0.2c0.2,0,0.5-0.2,1.5-0.2c1.5,0,3,0,4.4-0.1c1.5,0,2.9,0,4.3,0 c0.6,0,1.4,0,1.8,0.1C70.5,8,70.8,9,71.4,9.7c0.6,0.6,1.4,1,2.2,1c0.4,0,0.8-0.1,1.2-0.3c0.4-0.2,0.8-0.3,1.1-0.4 c-0.6,0.5-1.3,1.1-1.8,1.8c-1,1.2-1.5,2.5-1.9,3.8c-0.8,2.2-1.5,4.5-2.3,6.7c-0.7,2.2-1.5,4.4-2.2,6.6c-0.3,0.8-0.5,1.4-0.5,2.3 h-3.8c0-1,0.3-2-0.2-3.7c-1-3-2.8-5.8-5.7-8.6c-0.1,0.3,0.4,1.6,0.4,1.9c0.7,3-0.6,6,0.7,9.1c0.2,0.5,0.5,0.9,0.8,1.3h-2.2 c0,0,0-0.2-0.1-0.3c-0.1-0.2-0.1-0.3-0.2-0.5c-0.3-0.8-0.5-1.3-1.1-2.4c0-0.1-0.1-0.2-0.1-0.2C52.5,23.4,49.7,17.2,48,10.6z M107.8,95c-1.1,3.1-3.2,6.1-6.2,9c-5.7,5.5-12.2,9.7-19.2,12.4c-7.7,3-15.6,4.5-22.9,4.5c-4.2,0-8.2-0.5-11.9-1.6h-0.2 c-5.1-1.5-10-4.1-14.1-7.5c-4-3.3-8.5-7.3-11.2-12.1c-2.2-3.7-3.2-8.3-2.9-13c0.6-8.4,5.7-16.7,11.2-24.4 c3.2-4.4,6.7-8.6,10.6-12.5l0.1-0.1c3.6-3.6,7.7-7.7,12-10c0,0,0.1-0.1,0.2-0.1c1.4-0.7,3-1.5,3.6-3h10.9c0.1,0.5,0.4,1,0.8,1.4 c1.4,1.4,3.2,2.5,5.1,3.2c0.1,0,0.2,0.1,0.3,0.1c3.6,0.8,6.9,2.7,9.6,5.5c2.2,2.2,3.7,4.8,5.4,7.5c0.7,1.2,1.5,2.5,2.3,3.7 c1.9,2.8,4,5.5,6.1,8.1c0.9,1.1,1.8,2.3,2.7,3.5c2.3,3,4,5.4,5.2,7.7C108.8,83.8,109.7,89.7,107.8,95z"/>
    <path d="M72,82.3c-1.7-1.1-3.9-2.2-6.7-3.2l0.2-16.3c1.4,0.4,2.5,1.2,3.4,2.3c1.2,1.5,1.9,3.3,2.1,5.8c0,0.7,0.6,1,1.3,1h3.3 c0.7,0,1.3-0.4,1.3-1.1c-0.2-3.8-1-6.7-2.8-9c-2-2.5-5.2-3.9-8.2-4.4v-5.6c0-0.8-1.1-1.9-2-1.9h-1.8c-0.8,0-1.2,1.1-1.2,1.9V56 l-0.2,1.5c-3.6,0.4-6.5,1.8-8.5,4s-3.1,5.1-3.1,8.7c0,3.5,1,6.3,3.1,8.6c1.8,1.9,4.5,3.5,8.1,4.8l-0.2,16.7 c-1.9-0.3-3.4-1.1-4.5-2.2c-1.4-1.4-2.1-3.3-2.3-5.8c-0.1-0.7-0.6-1.2-1.3-1.2h-3.3c-0.7,0-1.3,0.7-1.3,1.4 c0.2,3.6,1.2,6.6,3.3,8.8c2.3,2.5,5.3,3.9,9.3,4.3v4.7c0,0.8,0.9,1.9,1.7,1.9h1.8c0.8,0,1.5-1.1,1.5-1.9V107v-1.4 c3.9-0.4,7-1.7,9.1-3.9c2.2-2.2,3.2-5.1,3.2-8.8c0-2.3-0.4-4.3-1.3-6C75.2,85.1,73.9,83.6,72,82.3z M60.5,77.3 c-1.3-0.6-2.4-1.3-3.2-2c-1.4-1.3-2.1-3-2.1-5.2c0-2.4,0.7-4.2,2-5.5c0.9-0.9,2-1.5,3.5-1.8L60.5,77.3z M69,98.4 c-1.1,0.9-2.4,1.5-4,1.8l0.2-14.9c1.8,0.8,3.2,1.7,4.1,2.6c1.4,1.4,2.1,3,2.1,5C71.4,95.2,70.6,97,69,98.4z"/>
  </g>
</svg>