<svg style="enable-background:new 0 0 128 128;" viewBox="0 0 128 128" xmlns="http://www.w3.org/2000/svg" xmlns:xlink="http://www.w3.org/1999/xlink">
  <g>
    <path d="M118.1,102.9c-1-4.3-3.3-7.8-4.6-9.5c0,0-0.1-0.1-0.1-0.1c-0.1-0.1-0.2-0.2-0.3-0.3c0,0-0.1-0.1-0.1-0.1 c-0.1-0.1-0.1-0.2-0.2-0.2c0,0,0-0.1-0.1-0.1c-0.1-0.1-0.1-0.2-0.2-0.2c0,0,0,0,0,0c0.1-0.9,1.6-11.4,0.5-18.7 c-1.2-7.7-5.3-14.8-8.9-16.9c-2.4-1.4-3.7-1-6.9-2.1c-2.7-0.9-6.7-2.8-9.6-4.8c-2.3-1.8-4.9-3.6-5.7-4.2L82,45.5 c-1-6.2-4.2-10.8-8.7-14.9c-0.3-0.3-0.7-0.6-1-0.8c-0.1-0.1-0.2-0.2-0.3-0.2c-0.2-0.2-0.5-0.3-0.7-0.5c-0.1-0.1-0.2-0.2-0.3-0.2 c-0.2-0.2-0.5-0.3-0.7-0.4c-0.1-0.1-0.2-0.1-0.3-0.2c-0.3-0.2-0.6-0.4-0.9-0.5c0,0,0,0,0,0c-0.3-0.2-0.6-0.3-0.9-0.4 c-0.1,0-0.2-0.1-0.3-0.1c-0.2-0.1-0.4-0.2-0.6-0.2c-0.1,0-0.2-0.1-0.3-0.1c-0.2-0.1-0.4-0.1-0.6-0.2c-0.1,0-0.2-0.1-0.3-0.1 c-0.3-0.1-0.5-0.1-0.8-0.2c0,0,0,0,0,0c-0.3-0.1-0.5-0.1-0.7-0.2c-0.1,0-0.2,0-0.2,0c-0.2,0-0.3-0.1-0.5-0.1c-0.1,0-0.2,0-0.2,0 c-0.2,0-0.3,0-0.4,0c-0.1,0-0.1,0-0.2,0c-0.2,0-0.4,0-0.6,0c0,0,0,0,0,0c-0.2,0-0.3,0-0.4,0c0,0,0,0-0.1,0c-0.1,0-0.1,0-0.1,0 c-0.1,0-0.2,0-0.3,0c0,0-0.1,0-0.1,0c-0.1,0-0.2,0-0.2,0c0,0-0.1,0-0.1,0c-0.1,0-0.2,0-0.2,0c0.5-0.8,0.8-1.8,0.8-3.3 c0-1.7-0.5-3.4-1-4.6c0,0,0,0,0,0c-0.1-0.3-0.2-0.5-0.3-0.8c0-0.1,0-0.1-0.1-0.2c-0.6-1.5-1.6-3.2-3.4-5.1C53,7.8,48.1,4,41.8,4 S32,8.1,31.3,10.1c-0.8,1.9-0.5,4.8-0.5,4.8s-2.7,1.7-5.7,4.1s-4.1,3.9-3.9,7.1c0.2,3.2,2.6,4.6,2.6,4.6l-0.1,2.1 c0,0-1.6,0.8-2.8,3c-0.4,0.7-0.7,1.5-0.9,2.5c-0.8,0.7-1.7,1.6-2.5,2.7c0,0,0,0-0.1,0.1c-0.2,0.3-0.4,0.7-0.7,1 c0,0.1-0.1,0.1-0.1,0.2c-0.2,0.4-0.4,0.8-0.6,1.2c0,0,0,0.1,0,0.1c-0.2,0.4-0.3,0.8-0.5,1.3c0,0,0,0.1,0,0.1 c-0.2,0.5-0.3,0.9-0.4,1.4c0,0.1,0,0.2-0.1,0.3c-0.1,0.5-0.2,1-0.3,1.6c0,0.1,0,0.2,0,0.3c-0.1,0.6-0.1,1.2-0.2,1.8 c0,0.7,0,1.3,0,2c0,0.6,0,1.3,0,1.9c0.1,2.4,0.3,4.6,0.6,6.5c0.2,1.5,0.4,2.8,0.7,4c0.2,0.8,0.3,1.6,0.4,2.3 c0.3,1.8,0.5,3.4,0.4,4.7s-0.5,2.7-1.1,4.2c-0.2,0.6-0.5,1.2-0.7,1.8c-0.1,0.3-0.2,0.6-0.4,0.9c-0.2,0.6-0.5,1.3-0.7,1.9 c-0.1,0.3-0.2,0.7-0.3,1c-0.2,0.7-0.4,1.4-0.5,2.2c-0.2,1.1-0.3,2.4-0.3,3.7c0.1,1.8,0.4,3.7,0.8,5.7c0.5,2.5,1.2,5,1.8,7.1 c0.2,0.9,0.5,1.7,0.7,2.4c0.5,1.8,0.9,3.2,0.9,3.8c0,0.1,0,0.2,0,0.4c0,0.7-0.1,2-0.1,3.4c0,0.3,0,0.7,0,1c0,0.5,0,1.1,0,1.6 c0,0.6,0.1,1.1,0.1,1.7c0,0.4,0.1,0.9,0.1,1.3c0,0,0,0.1,0,0.1c0.1,0.6,0.2,1.1,0.3,1.6c0.1,0.5,0.3,0.9,0.4,1.3c0,0,0,0.1,0,0.1 c0,0,0,0,0,0c0,0,0,0,0,0c0.2,0.5,0.4,0.9,0.7,1.1c1.5,1.4,4.5,2,7.6,2.1c-0.1-0.1-0.2-0.2-0.3-0.2c0.3,0,0.6,0,0.8,0 c0.1,0,0.2,0,0.3,0c0.7,0,1.4,0,2.1-0.1c4-0.3,8.4-1.1,8.4-4.3s-5.3-2.7-5.7-4.4c-0.2-0.8,0.6-1.2,1.1-3.2c0.3-1.1,0-2.8,0-2.8 s7.2-9.9,8.7-16.8c1.5-6.9-2.5-13.6-2.8-15.8c0-0.7,0.2-2.5,0.6-4.5c0.5,0.8,1.8,2.8,4.1,5.7c0.9,1.2,2.5,2.5,4.4,3.8 c-0.4,1.8-0.7,4.8-0.4,9.4c0.5,9.1,4.6,15.2,4.8,21s-3.3,6.6-2.8,11.4c0.3,2.8,6.9,2.6,13.1,2.5c4.5-0.1,6.8-1.2,7.3-2.9 c2.2,0.3,4.9,0.2,7.6-0.1c5.9-0.8,6.9-2.8,7-6c0.1-3.2-2.1-8.8-1.8-10.4c0.3-1.5,2.7-4.9,2.9-8.7c0.1-1.3,0-3.4,0-5.4 c0.8-0.2,1.2-0.4,1.2-0.4s0.9,6.1,4.5,10.3c3.6,4.4,6.5,4.8,8.1,5.7c1.6,0.9,1.7,7.5,1.2,8.2s-4.8,4.8-5,6.3 c-0.2,1.2-0.3,2.7,6.4,3c8.6,0.4,13.3-2.3,15.4-3.8C119.5,118.2,119.4,109.1,118.1,102.9z M20,118.7c0,0-0.1-0.1-0.2-0.4l0,0l0,0 c-1.1-2.3-0.9-8.5-0.8-10.6c0-0.5,0-0.8,0-1c0-0.8-0.4-2.1-1.2-5c-1.1-3.9-2.8-9.8-2.9-14.1c-0.1-3.7,1-6.6,2.1-9.3 c0.8-2.1,1.6-4.1,1.8-6.2c0.1-2-0.3-4.3-0.8-6.9c-0.7-3.7-1.6-8.3-1.3-14.5c0-0.1,0-0.2,0-0.3c0.1,0.4,0.1,0.7,0.2,1 c1,3.7,3,7.1,4.3,10.8c1.9,5.3,2.4,11.1,1.3,16.6c-0.8-1.6-1.5-3.1-2.3-4.7c1.1,3.3-0.4,6.9-1.5,10.3c-1.7,5.2-2.5,10.7,0.1,15.8 c0.9,1.8,2.2,3.6,3,5.5c1.4,3.5-0.8,6.2-0.4,9.7c0.2,1.5,1.2,3.2,2.5,4.7l-0.6,0C21.7,119.6,20.6,119.2,20,118.7z M35.3,49.7 c-1,0.3-6.6-0.1-10.2-3c-2.9-2.3-4-5.2-3.4-8.6c0.3-1.7,1.3-2.9,1.8-3.3c0.3-0.4,2.1,1.9,3.2,1.5c1.1-0.4,0.9-1.1,0.5-1.6 C26.8,34.2,25,33,25,33s0.9-1.3,2.1-0.8c1.1,0.5,2.1,2.1,2.1,2.1s2-2.1,2.8-2.2c1.4-0.2,2.4,1.1,2.4,1.1s-3,1-3.3,1.8 c-0.3,0.8,0.3,2,2.3,1.2c2.1-0.8,3-1.2,3-1.2s0.1-3.2-3-4.1c-2.2-0.6-4.1,1.6-4.1,1.6s-1.4-1.4-2.1-1.6c-0.8-0.2-1.4-0.1-1.4-0.1 s-1-2.2-1.4-3.2c-0.4-1-0.8-2.6-0.8-2.6s2.2-0.9,4.3-0.1c2,1,2.7,2.7,3.6,2.9s1.9-4.3,8-4.1s7.4,3.9,7.4,3.9s-4.9,7-6.8,11.5 C38.2,43.7,36.3,49.4,35.3,49.7z M54.2,46.3c-0.1,0.1-0.1,0.1-0.1,0.2c-1.1,3.2-2,6.6-1.5,10c0.2,2.1,0.8,4.2,1,6.3 c0.2,2.1-0.1,4.2-0.9,6.2c-0.4,1-1,1.9-1.5,2.9c-0.2,0.3-0.7,1.8-1,1.8c-0.9,0-0.2-2.7-0.1-3.1c0.3-1.9,0.5-3.9-0.2-5.8 c-0.3-0.8-0.7-1.7-1-2.6c-0.9-2.2-1.7-4.7-1.1-6.7c-5.3,0.9-11.5-0.3-10.4-1.6c0.2-0.2,0.5-0.3,0.8-0.3c3.1-0.4,6.6-1.2,9.3-2.9 c1.6-1,2.8-2.4,3.9-3.9c0.8-1.1,1.1-2.6,2.3-3.3c0.2-0.1,0.4-0.2,0.6-0.1c0.1,0.1,0.2,0.2,0.3,0.3c0,0.1,0,0.1,0,0.2 C54.8,44.7,54.5,45.5,54.2,46.3z M57.4,30.6c-0.3,0.6-0.5,1.3-0.6,2c-0.3,1.8-0.4,3.7-1.1,5.3c-0.7-2.8-1.8-5.3-3.6-7.5 c-1.7-2.1-4.2-5-0.1-5.1c2-0.1,3.9-0.5,5.5-1.9c0.7-0.6,1.2-2.1,1.6-3.5c0.3,1,0.4,1.9,0.4,2.7c0,0.9-0.2,1.6-0.6,2.3l-2,3.5 l1.9-0.2c-0.1,0.2-0.3,0.3-0.4,0.5C58.1,29,57.8,29.7,57.4,30.6z M68.6,112.6c-0.2,0.7-1.3,1.7-2.2,2.9c-1.1-1-2-2-1.9-3.7 c0.1-1.4,1.5-4.6,3.3-8.2c0,0.1,0,0.1,0,0.2C68.6,107.8,68.9,111.3,68.6,112.6z M83.2,61.3c-0.5,6.7-4.7,10.8-4.9,12.5 c0,0.1,0,0.3,0,0.4c0,0.1,0,0.2,0,0.3c0,0,0,0.1,0,0.1c0,0.1,0,0.3-0.1,0.5c0,0,0,0,0,0c0,0.4-0.1,0.7-0.1,1.2c0,0,0,0.1,0,0.1 c0,0.2,0,0.4-0.1,0.6c0,0,0,0.1,0,0.1c-0.1,0.7-0.2,1.5-0.3,2.3c0,0,0,0,0,0c0,0.3-0.1,0.5-0.1,0.8c0,0,0,0,0,0.1 c-0.1,0.8-0.3,1.7-0.4,2.6c0,0,0,0,0,0.1c-0.1,0.3-0.1,0.5-0.2,0.8c0,0,0,0,0,0.1c-0.7,3.3-1.6,6.3-2.7,7.2 c-0.2,0.1-0.3,0.2-0.5,0.3c0,0-0.1,0-0.1,0c0.4-1,0.8-2,1-2.8c0.3-0.9,0.5-1.8,0.6-2.7c0.1-0.6,0.2-1.3,0.3-2c0-0.1,0-0.3,0.1-0.4 c0-0.3,0.1-0.5,0.1-0.8c0-0.1,0-0.3,0-0.4c0-0.3,0-0.5,0.1-0.8c0-0.1,0-0.3,0-0.4c0-0.3,0-0.5,0.1-0.8c0-0.1,0-0.3,0-0.4 c0-0.3,0-0.5,0-0.7c0-0.1,0-0.2,0-0.4c0-0.3,0-0.5,0-0.7c0-0.1,0-0.1,0-0.2c0-0.9,0-1.6,0-2.3c0-0.1,0-0.2,0-0.3c0-0.2,0-0.3,0-0.5 c0-0.1,0-0.2,0-0.3c0-0.1,0-0.3,0-0.4c0-0.1,0-0.2,0-0.3c0-0.1,0-0.2,0-0.3c0-0.1,0-0.1,0-0.2c0-0.1,0-0.2,0-0.2c0-0.1,0-0.1,0-0.2 c0,0,0-0.1,0-0.1c0,0,0-0.1,0-0.1s4.7-6.7,6.2-17.9c0.3-2.3,0.4-4.5,0.3-6.5c0.1,0.1,0.3,0.2,0.4,0.3C83,51.7,83.5,57.1,83.2,61.3z M100.4,95.2c-6.2-4-4.7-13.2-4.1-16.5c0.6-3.3,3.3-6.6,3.3-6.6s-1.6-0.2-3.3,0.7c-1.7,0.8-2.1,1.8-4.3,2.4c-2.2,0.6-5.3-2.4-6.6-5 c-1.2-2.4-0.9-8.4-0.8-11.8c0.1-2.9-0.7-6.8-1.5-9.6c1,0.8,2.3,1.7,3.4,2.6l0,0l0,0c3.2,2.2,7.5,4.2,10.1,5 c1.5,0.5,2.6,0.7,3.5,0.9c1.2,0.2,1.9,0.4,3.1,1c2.9,1.7,6.8,8.1,7.9,15.5c1.1,7.1-0.4,17.7-0.5,18.1l-0.1,0.9l0.6,0.7 c0,0,0,0.1,0.1,0.1C109.1,95.5,104.8,98.1,100.4,95.2z"/>
    <path d="M39.8,27.3c-0.6-0.7-2-0.8-3.1,0.3c-0.9,0.9-1.1,2.5-0.2,3.2s2.3,0.4,3.1-0.5C40.5,29.3,40.6,27.8,39.8,27.3z"/>
    <path d="M26,27.1c-0.3,0.5-0.1,1.8,0.5,2.6c0.4,0.5,1.6,1.3,2.5,0.5c0.8-0.7,0.4-2.2-0.5-3S26.3,26.6,26,27.1z"/>
    <path d="M36.5,41c-1-0.6-1.9,0-2.3,0c-0.9,0.1-2.2,0.2-5.7,0.1c-3-0.1-4-0.7-5-1.1s-2,0.3-1.7,1.5s1.9,0.5,1.9,0.5s1.2,0.8,4.7,1.1 c3.7,0.4,5.8-0.1,5.8-0.1s0.3,0.2,1.7,0.2C37.3,43.2,37.5,41.6,36.5,41z"/>
  </g>
</svg>