<svg viewBox="0 0 128 128" xmlns="http://www.w3.org/2000/svg">
  <path d="M122.8,66.9l-11.1-9.6c-0.8-0.7-0.8-1.8,0-2.5l11.1-9.6c1-0.9,0.6-2.6-0.8-2.8l-14.4-2.8c-1-0.2-1.5-1.2-1.2-2.1l4.8-13.9 c0.4-1.1-0.5-2.1-1.5-2.1c-0.2,0-0.4,0-0.5,0.1l-13.9,4.8c-0.2,0.1-0.4,0.1-0.5,0.1c-0.8,0-1.4-0.5-1.6-1.3l-2.8-14.4 c-0.2-0.8-0.9-1.3-1.6-1.3c-0.4,0-0.9,0.2-1.2,0.6l-9.6,11c-0.3,0.4-0.8,0.6-1.2,0.6c-0.4,0-0.9-0.2-1.2-0.6L65.9,10 c-0.3-0.4-0.8-0.6-1.2-0.6c-0.7,0-1.4,0.5-1.6,1.3l-2.8,14.4c-0.2,0.8-0.8,1.3-1.6,1.3c-0.2,0-0.4,0-0.5-0.1l-13.9-4.8 c-0.2-0.1-0.4-0.1-0.5-0.1c-1.1,0-1.9,1.1-1.5,2.2l4.8,13.9c0.3,0.9-0.3,1.9-1.2,2.1l-14.4,2.8c-1.3,0.2-1.8,1.9-0.8,2.8l11.1,9.6 c0.8,0.6,0.8,1.8,0,2.5l-3.1,2.6c-0.7-0.1-1.3-0.1-2-0.1c-10.2,0-18.5,8.3-18.5,18.5c0,0.4,0,0.7,0,1.1c-7.7,0.9-13.6,7.5-13.6,15.4 c0,8.5,6.8,15.4,15.3,15.5c2.8,4.9,8.5,8.3,15,8.3c6.3,0,11.8-3,14.8-7.6c2.4,2.6,5.9,4.3,9.7,4.3c5.5,0,10.2-3.4,12.2-8.2 c1.3,0.5,2.6,0.7,4,0.7c4.8,0,8.9-2.8,10.8-6.9l1.1,1.2c0.3,0.4,0.8,0.6,1.2,0.6c0.7,0,1.4-0.5,1.6-1.3L93.1,87 c0.2-0.8,0.8-1.3,1.6-1.3c0.2,0,0.4,0,0.5,0.1l13.9,4.8c0.2,0.1,0.4,0.1,0.5,0.1c1.1,0,1.9-1.1,1.5-2.1l-4.8-13.9 c-0.3-0.9,0.3-1.9,1.2-2.1l14.4-2.8C123.4,69.4,123.9,67.8,122.8,66.9z M107.1,69.5c-1.3,0.2-2.5,1.1-3.1,2.2 c-0.7,1.2-0.8,2.6-0.4,3.8l3.9,11.2l-11.2-3.9c-0.5-0.2-1-0.3-1.5-0.3c-2.2,0-4.1,1.6-4.5,3.8L88,98l-0.5-0.6 c0.1-0.5,0.1-1.1,0.1-1.6c0-6.6-5.3-11.9-11.9-11.9c-0.5,0-0.9,0-1.4,0.1c0.4-1.2,0.6-2.5,0.6-3.8c0-7.4-6-13.5-13.5-13.5 c-3.2,0-6.1,1.1-8.4,2.9c-2.2-4.2-6.1-7.5-10.7-9l1.3-1.2c1-0.9,1.6-2.2,1.6-3.5c0-1.3-0.6-2.6-1.6-3.5l-9-7.8l11.6-2.2 c1.3-0.2,2.5-1.1,3.1-2.2c0.7-1.2,0.8-2.6,0.4-3.8L46,25.3l11.2,3.9c0.5,0.2,1,0.3,1.5,0.3c2.2,0,4.1-1.6,4.5-3.8L65.4,14l7.8,9 c0.9,1,2.2,1.6,3.5,1.6s2.6-0.6,3.5-1.6l7.8-9l2.2,11.6c0.4,2.2,2.3,3.8,4.5,3.8c0.5,0,1-0.1,1.5-0.3l11.2-3.9l-3.9,11.2 c-0.4,1.3-0.3,2.7,0.4,3.8c0.7,1.2,1.8,2,3.1,2.2l11.6,2.2l-9,7.8c-1,0.9-1.6,2.2-1.6,3.5c0,1.3,0.6,2.6,1.6,3.5l9,7.8L107.1,69.5z"/>
</svg>