<svg viewBox="0 0 128 128" xmlns="http://www.w3.org/2000/svg">
  <g>
    <path d="M46.9,43.1l3.5-4.8c0.1-0.1,0.2,0,0.2,0.2l-0.4,4.6l2.8-7.5c0.1-0.3,0.1-0.7,0-1.1l-0.2-5.4c0-0.3-0.2-0.4-0.3-0.2 l-6.3,13.3C46.6,43,46.8,43.3,46.9,43.1z"/>
    <path d="M83.1,55.4l3.9-4.6c0.1-0.1,0.3-0.1,0.3,0.1l0.3,3.5L90,48c0.1-0.3,0-0.6-0.1-0.8l-1.3-3.9c-0.1-0.2-0.4-0.2-0.5,0l-6,11.8 C82.6,55.4,82.9,55.6,83.1,55.4z"/>
    <path d="M123.9,92.1c0-0.3,0-0.6,0-0.9C123.5,85,122,79,119,73.5c-1.3-2.5-2.8-4.6-4.3-6c-0.1-0.1-0.2-0.2-0.3-0.3 c-0.1-0.1-0.1-0.1-0.2-0.2c-0.1-0.1-0.3-0.2-0.4-0.3c-0.2-0.2-0.5-0.3-0.7-0.5c-0.4-0.3-0.9-0.5-1.3-0.8c-0.1-0.1-0.2-0.2-0.3-0.3 C104.4,60,99,49.3,95,42.4c-1.8-3.8-3.7-6.5-5.4-6.5c-0.4,0-0.8,0.2-1.3,0.5c-1.1,0.6-2.4,1.9-3.9,3.8c-5.3-3.3-5.4-21-10.1-21 c-2.3,0-4.1-6.2-6.4-10.7c-0.3-0.6-0.6-1.2-1-1.8c-0.7-1.1-1.4-1.9-2.2-2.4C64.3,4.1,63.9,4,63.5,4c-0.1,0-0.2,0-0.3,0 c-0.7,0.1-1.5,0.6-2.4,1.4C60,6.1,59.2,7,58.3,8.1c-0.6,0.7-1.1,1.5-1.7,2.4c-0.3,0.4-0.6,0.9-0.9,1.4c-0.6,0.9-1.2,1.9-1.8,3 c-6,10.3-12.1,24.4-13.9,26.3c-0.5,0.5-1,0.9-1.6,1.3c-1.6,1-3.2,1.1-4.8,1.2c-0.7,0.1-1.4,0.1-2,0.2c-1,0.2-2,0.6-2.9,1.2 c-0.5,0.3-0.9,0.7-1.3,1c-0.2,0.2-0.4,0.4-0.6,0.6s-0.4,0.5-0.6,0.7c-0.2,0.3-0.4,0.5-0.6,0.8c0,0.1-0.8,1.1-0.8,1.1 c-0.2,0.2-0.6,0.9-0.6,1c-0.2,0.3-0.4,0.6-0.6,0.9c0,0-0.4,0.7-0.6,1C18.9,60,13.6,71.9,8.8,83.3c-1.7,4.1-3,8.4-3.8,12.8 c-0.6,0.4-1,1.1-1,1.9v26h120V92.6C124,92.4,124,92.2,123.9,92.1z M110.9,76.3l4,4.9c0.3,0.3,0.6,0.7,0.7,1l3.2,8.6l-3-4.5 c-0.1-0.2-0.3-0.3-0.3-0.1c0,0,0.8,6.6,0.7,6.6c0.3-0.3,0.3-0.2,0,0c0,0,0,0,0,0c-0.1,0-0.5-0.2-1-0.4l-4.8-16.1 C110.4,76,110.6,76,110.9,76.3z M86.7,42.1c1.5-1.8,2.4-2.6,2.9-2.9c0.4,0.5,1.3,1.6,2.6,4.1c0,0.1,0.1,0.2,0.1,0.3 c0.1,0.4,0.2,0.7,0.3,1.1l0.1,0.5c0.1,0.3,0.1,0.6,0.1,0.8c0.1,0.6,0.2,1.2,0.2,1.8c0,0.3,0,0.6,0,0.9c0,0.6,0,1.3,0,2 c-0.1,1-0.2,2.1-0.5,3.2c-0.1,0.4-0.2,0.9-0.3,1.3c-0.1,0.3-0.2,0.6-0.3,0.9c-0.2,0.8-0.5,1.6-0.8,2.4c-0.5,1.2-1.1,2.5-1.7,3.8 c-0.5,0.9-1,1.8-1.5,2.7c-1.2,2-2,3.7-2.3,5.1c-0.2,0.9-0.3,1.8-0.2,2.5c0,0.2,0.1,0.4,0.1,0.5c0.1,0.3,0.2,0.7,0.4,1 c0.2,0.3,0.3,0.6,0.5,0.8c0.3,0.4,0.7,0.8,1.1,1.1c1,0.8,2.2,1.4,3.5,2c-3.6,2.4-8.8-1.4-10.9-2.8c-1.8-1.3-7.4-2.8-13.2-1.7 c0.1-0.4,0.3-0.8,0.5-1.1C74.2,59,85.7,43.5,86.7,42.1z M64.5,86.1l-3.9,4.4c-0.2,0.2-0.4-0.1-0.9-0.7l6.8-12.3 c0.1-0.2,0.4-0.1,0.4,0.2l0.4,4.9c0.1,0.3,0.1,0.7,0,1l-3,6.9l0.4-4.2C64.7,86.1,64.6,86,64.5,86.1z M43.6,85.2 c0.2-0.3,0.5-0.5,0.8-0.6l4.1-0.6c0.3-0.1,0.5,0.4,0.2,0.6L37,93.7c-0.3,0.3-0.8,0-0.6-0.4L43.6,85.2z M37.4,69.5l2.9-11.4 c0.1-0.4,0.3-0.7,0.5-1l3.7-2.6c0.3-0.2,0.7,0.1,0.5,0.5l-6.8,14.7C38.1,70.1,37.4,70,37.4,69.5z M61.1,78.9c0.2-0.3,0.7,0,0.6,0.3 l-3.3,7.1c-0.4,0.8-0.9,1.5-1.6,2.1l-3.5,2.9c-0.2,0.2-0.3,0.3-0.5,0.5c-0.9,0.9-3.6,3.6-4.1,4.7c-0.2,0.4-1.5,1.3-2.9,2.2 l-2.2-0.8C48.5,92.5,58.4,82.6,61.1,78.9z M63,74.7c0.4-0.2,0.8-0.3,1.2-0.4C63.8,74.4,63.4,74.6,63,74.7z M66.3,42.2l-1.8-3 c-0.3-0.6-0.6-1.2-0.6-1.9l-0.7-6.1c0-0.3,0.4-0.4,0.5-0.1c1.2,3.7,6.7,14.9,8.6,19.6c0.2,0.5-0.4,0.8-0.7,0.5 c-1.1-1-3.1-3.4-3.2-4.1c-0.1-0.9-1.4-3.6-1.8-4.5C66.5,42.5,66.4,42.3,66.3,42.2z M65.8,19.9l4,4.9c0.3,0.3,0.6,0.7,0.7,1l3.3,8.7 l-3-4.6c-0.1-0.2-0.3-0.3-0.3-0.1l0.8,6.6c0,0.3-0.4,0-1.1-0.3l-4.8-16.2C65.3,19.6,65.6,19.6,65.8,19.9z M29.6,48.3 c0.3-0.3,0.6-0.5,0.9-0.7c0.6-0.4,1.2-0.6,1.8-0.7c0.5-0.1,1-0.1,1.6-0.2H34c1.6-0.1,3.9-0.3,6.1-1.7c0.8-0.5,1.5-1.1,2.1-1.8 c1.1-1.2,2.6-4.1,5.8-10.6c2.5-4.9,5.5-11.1,8.4-16.2c0.6-1,1.2-2,1.7-2.9c0.3-0.5,0.6-0.9,0.8-1.3c0.6-0.8,1.1-1.6,1.6-2.3 c0.8-1,1.4-1.8,2-2.3c0.3-0.3,0.5-0.4,0.6-0.5c0.2,0.2,0.5,0.5,1,1.2c0.1,0.2,0.3,0.5,0.4,0.7c0,0.4,0.2,0.7,0.3,0.9l0.7,1.4 c-10.2,14.5-6,29-2,39.9c3.5,9.5,0.5,19.6-0.9,23.5c-0.1,0-0.2,0.1-0.3,0.1C55.5,78,51,68,51.5,57s-5.4-9.9-9.1-7.1 c-2.3,1.7-10.1,2.4-15.7,2.5C27.2,51.1,29.1,48.8,29.6,48.3z M17.6,87.6c4-7.1,15.1-23.6,17.8-29.2c0.2-0.4,0.8-0.2,0.8,0.2 L33.8,68c-0.2,1.1-0.7,2.1-1.4,2.9l-3.5,4.4c-0.2,0.2-0.3,0.5-0.5,0.7c-0.8,1.3-3.5,5.3-3.8,6.7c-0.2,1-4,4.3-5.9,5.8 C18,89,17.2,88.3,17.6,87.6z M121.2,121H121H7V98.8c4.2,0.2,8.2,2,11.1,5.2c0.7,0.8,1.8,1.3,2.9,1.3s2.2-0.5,3-1.3 c0.3-0.4,0.8-0.8,1.4-0.8c0.4,0,0.8,0.2,1.2,0.6c0.8,0.7,1.8,1.2,2.8,1.2c1.1,0,2.1-0.4,2.8-1.2c2.1-2.2,4.9-3.3,7.8-3.3 c2.1,0,4.1,0.6,5.9,1.8c0.7,0.4,1.4,0.7,2.2,0.7c0.9,0,1.8-0.3,2.6-0.9c0.4-0.3,0.7-0.5,1.1-0.5c0.4,0,0.7,0.2,1.1,0.5 c0.7,0.6,1.7,1,2.6,1c1,0,1.9-0.4,2.7-1c3-2.6,6.7-4,10.6-4c5.2,0,10,2.5,13.1,6.8c1,1.3,2.5,2.1,4.1,2.1c0.8,0,1.6-0.2,2.3-0.6 c1.4-0.8,3-1.2,4.6-1.2c2.1,0,4.2,0.7,5.9,2c0.9,0.7,2,1.1,3.2,1.1c1.4,0,2.7-0.6,3.6-1.6c0.3-0.3,0.8-0.8,1.4-0.8 c0.1,0,0.2,0,0.3,0c0.3,0.1,0.6,0.1,1,0.1c1.7,0,3.3-1.1,3.8-2.7l0.1-0.2c0.2-0.6,0.5-1.1,0.9-1.6l0.2-0.2l0.2-0.3 c1.8-3.2,4.4-5.9,7.7-7.6V121z"/>
    <path d="M56.8,106.3c-0.4,0-0.8,0.2-1.1,0.4c-1.2-1.4-2.7-2.5-4.6-3c-2-0.6-3,2.6-0.9,3.2c3,0.9,4.5,3.6,4.1,6.6 c-0.3,2.1,3.1,2.2,3.3,0.1c0.2-1.4,0-2.8-0.4-4c4.7,0,8.8,2.5,10.9,6.9c0.9,2,3.9,0.4,3-1.6C68.5,109.4,62.8,106,56.8,106.3z"/>
    <path d="M109.9,111.4c-0.8-1-1.9-1.8-3.1-2.2c-1.4-0.5-2.1,1.7-0.7,2.2c2.1,0.7,3.1,2.6,2.8,4.7c-0.2,1.5,2.1,1.6,2.3,0.1 c0.2-1,0.1-1.9-0.2-2.8c3.3,0.1,6.1,1.9,7.5,5c0.6,1.4,2.7,0.3,2.1-1.1c-1.7-3.9-5.6-6.4-9.9-6.3 C110.3,111.1,110.1,111.2,109.9,111.4z"/>
    <path d="M24,106.8c-5.9,0.1-10.5,3.9-12,9.6c-0.5,1.8,2.4,2.5,2.9,0.7c1.1-4.4,4.6-7.3,9.2-7.4C25.9,109.7,25.8,106.8,24,106.8z"/>
  </g>
</svg>