<svg viewBox="0 0 128 128" xmlns="http://www.w3.org/2000/svg">
  <g>
    <path d="M41.5,70H36v5c0,1.8-1,3.3-2.5,4.1c6.1-0.8,11-5.5,12.1-11.5C44.8,69,43.3,70,41.5,70z"/>
    <path d="M17.9,63.6c0.7-1.5,2.3-2.6,4.1-2.6h5v-5.5c0-1.8,1-3.3,2.5-4.1C23.4,52.5,18.6,57.4,17.9,63.6z"/>
    <path d="M27,75v-5h-5c-1.7,0-3.2-1-4-2.4C19,73.4,23.5,78,29.3,79C27.9,78.2,27,76.8,27,75z"/>
    <path d="M36,55.5V61h5.5c1.8,0,3.4,1.1,4.1,2.6c-0.8-6.4-5.9-11.5-12.3-12.3C34.9,52.1,36,53.7,36,55.5z"/>
    <path d="M119.9,55.8C116.6,42.9,98,36.3,85.3,42.5c-7.7,3.8-11.3,5.4-19,5.7c-0.3-5.3,1.3-14.9,5.3-18.3c4.1-3.4,9.5-4.8,14.1-7.3 C92.3,18.9,97.9,12,95,4h-6.2c0,0,0.1,0.7,0.2,1c4.7,11.1-13.5,14.5-19.8,19c-9.2,6.7-9.6,16.4-9,24c-6.6-0.4-10.1-2-17.2-5.4 c-12.8-6.1-31.3,0.6-34.5,13.6c-3.7,14.9-4.3,34-4.3,51.8c0,15.9,16.8,21.8,28.1,8.5c7.1-8.3,19.7-11.7,31.3-11.7 c11.6,0,25.1,3.1,32.5,11.7c11.5,13.3,28.4,7.5,28.4-8.5C124.6,90,123.8,70.7,119.9,55.8z M31.8,81.2c-8.8,0-16-7.2-16-16 s7.2-16,16-16s16,7.2,16,16C47.8,74.1,40.6,81.2,31.8,81.2z M48.1,102c-5,0-9.1-4.1-9.1-9.1s4.1-9.1,9.1-9.1s9.1,4.1,9.1,9.1 S53.1,102,48.1,102z M80.1,102c-5,0-9.1-4.1-9.1-9.1s4.1-9.1,9.1-9.1s9.1,4.1,9.1,9.1S85.1,102,80.1,102z M85.1,72.1 c-3.3,0-6-2.7-6-6c0-3.3,2.7-6,6-6c3.3,0,6,2.7,6,6S88.4,72.1,85.1,72.1z M97.3,84.8c-3.3,0-6-2.7-6-6s2.7-6,6-6c3.3,0,6,2.7,6,6 S100.6,84.8,97.3,84.8z M97.3,59.4c-3.3,0-6-2.7-6-6c0-3.3,2.7-6,6-6c3.3,0,6,2.7,6,6C103.3,56.7,100.6,59.4,97.3,59.4z M109.5,72.1c-3.3,0-6-2.7-6-6c0-3.3,2.7-6,6-6s6,2.7,6,6S112.8,72.1,109.5,72.1z"/>
  </g>
</svg>