<svg viewBox="0 0 128 128" xmlns="http://www.w3.org/2000/svg">
  <g>
    <path d="M119,52.2c0-0.1,0-0.1,0-0.2c0-1.8-1.3-3.3-3-3.8V13c0,0,0,0,0,0c0-0.1,0-0.1,0-0.2V12h0C85.2,4.2,64,4,64,4 s-21.2,0.2-52,8v0.8c0,1.3,0.9,2.5,2.1,2.9c3.7,1.1,11.5,3.3,16.5,4.4c0,0-0.9,1.4-1.8,3c-5.1,9.6-5,19.3-5,19.6 c0,18.2,1,42.1,5.6,58.7C19.1,105.3,12,111.7,12,121v3h104v-3c0-8.8-7.1-15.2-17.6-19.3c4.6-16.7,5.7-40.7,5.7-59 c0-0.3,0.4-12.2-6.2-22.7c4.5-0.7,12.3-3.1,16-4.3c0,0,0.1,0,0.1,0v32.6c-1.7,0.4-3,2-3,3.8c0,0.1,0,0.1,0,0.2 c-1.2,0.6-2,1.8-2,3.2v9.2c0,1.6,1.1,3,2.6,3.5c0.6,1.3,1.9,2.2,3.4,2.2c1.5,0,2.8-0.9,3.4-2.2c1.5-0.5,2.6-1.8,2.6-3.5v-9.2 C121,54.1,120.2,52.9,119,52.2z M64,108l-7.1-9.1V95c2.5,0.8,4.9,1.2,7.1,1.2c2.2,0,4.6-0.4,7.1-1.2v3.9L64,108z M71.2,92.9 c-2.5,0.9-5,1.4-7.2,1.4c-2.2,0-4.7-0.5-7.2-1.4c-8.7-3.1-18.4-11.1-22.3-24.6c-0.1-2.8-0.2-5.4-0.3-7.6 c-0.1-2.9-0.9-13.7,5.2-15.1C55.6,42,66.6,34.8,71.5,31.1c1.3-0.2,2.6-0.4,3.8-0.6c4,6.5,12.9,12.6,16.3,15.1 c3,2.2,2.6,11.2,2.5,15l-0.5,6.8C90.1,81.5,80,89.8,71.2,92.9z M118.9,54c-0.1-0.1-0.2-0.2-0.3-0.2C118.7,53.8,118.8,53.9,118.9,54 z M118.4,53.6c-0.1,0-0.1-0.1-0.2-0.1C118.3,53.6,118.4,53.6,118.4,53.6z M118,53.4c0,0-0.1,0-0.1,0 C117.9,53.4,117.9,53.4,118,53.4z M112.1,53.4c0,0-0.1,0-0.1,0C112.1,53.4,112.1,53.4,112.1,53.4z M111.8,53.5 c-0.1,0-0.1,0.1-0.2,0.1C111.6,53.6,111.7,53.6,111.8,53.5z M111.4,53.7c-0.1,0.1-0.2,0.2-0.3,0.2 C111.2,53.9,111.3,53.8,111.4,53.7z M111.1,54c-0.4,0.4-0.6,0.9-0.6,1.5C110.5,54.9,110.7,54.4,111.1,54z M117.2,66.8 c-0.1,1.1-1.1,2-2.2,2s-2.1-0.9-2.2-2h0c0,0,0,0,0,0c0,0,0-0.1,0-0.1V55.4c0-0.5,0.2-1,0.5-1.3c-0.3-0.2-0.5-0.5-0.7-0.8 c-0.1,0-0.1,0-0.1,0c0,0,0.1,0,0.1,0c0-0.2-0.1-0.4-0.1-0.6c0-0.1,0-0.2,0-0.3c0-0.1,0-0.2,0-0.3c0-1,0.6-1.9,1.5-2.2V51 c0,0.6,0.5,1,1,1s1-0.4,1-1v-1.2c0.9,0.4,1.5,1.2,1.5,2.2c0,0.1,0,0.2,0,0.3c0,0.1,0,0.2,0,0.3c0,0.2,0,0.4-0.1,0.6 c0,0,0.1,0,0.1,0c0,0-0.1,0-0.1,0c-0.2,0.3-0.4,0.6-0.7,0.8c0.3,0.4,0.5,0.8,0.5,1.3v11.2C117.2,66.7,117.2,66.7,117.2,66.8 C117.2,66.8,117.2,66.8,117.2,66.8L117.2,66.8z M118.9,54c0.4,0.4,0.6,0.9,0.6,1.5C119.5,54.9,119.3,54.4,118.9,54z"/>
    <path d="M64,72.3c2.8,0,4.2-2,4.5-2.7c0.3-0.7,0-1.3-0.7-1.6c-0.1,0-0.2-0.1-0.3-0.1h-7c-0.1,0-0.2,0-0.3,0.1 c-0.6,0.3-1,0.9-0.7,1.6C59.8,70.4,61.2,72.3,64,72.3z"/>
    <ellipse cx="47.8" cy="58.9" rx="4.9" ry="5"/>
    <ellipse cx="80.2" cy="58.9" rx="4.9" ry="5"/>
    <path d="M53.1,51.8c0.9,0.3,1.6,0,1.9-0.4c0.3-0.4,0.4-1,0-1.5c-0.9-1.2-3.1-3-7.2-3s-6.3,1.8-7.2,3c-0.4,0.5-0.3,1.2,0,1.5 c0.3,0.3,1,0.7,1.9,0.4c0.9-0.3,2.5-1.2,5.3-1.2C50.6,50.6,52.2,51.5,53.1,51.8z"/>
    <path d="M80.2,46.8c-4.2,0-6.3,1.8-7.2,3c-0.4,0.5-0.3,1.2,0,1.5c0.3,0.3,1,0.7,1.9,0.4c0.9-0.3,2.5-1.2,5.3-1.2 c2.8,0,4.5,0.9,5.3,1.2c0.9,0.3,1.6,0,1.9-0.4c0.3-0.4,0.4-1,0-1.5C86.5,48.6,84.4,46.8,80.2,46.8z"/>
    <path d="M72.3,76.1c-3.2,1.9-13.5,1.9-16.6,0c-1.8-1.1-3.7,0.6-2.9,2.2c0.7,1.6,6.4,5.4,11.2,5.4c4.9,0,10.4-3.8,11.2-5.4 C76,76.7,74.1,75.1,72.3,76.1z"/>
  </g>
</svg>