<svg viewBox="0 0 128 128" xmlns="http://www.w3.org/2000/svg">
  <g>
    <path d="M121,41.8H41.5c-2.1,0-4.4,1.7-5.1,3.8v0.1l-0.7,2.2L19.4,96c-0.7,2.1,0.4,3.9,2.6,3.9h79.5c2.1,0,4.4-1.7,5.2-3.9l17-50.4 C124.2,43.5,123.1,41.8,121,41.8z M38,50.2l17.6,18L23.2,94L38,50.2z M101.4,96.9H23.1l34-27.1L68.2,81L87,69.8l15.3,26.8 C102,96.8,101.7,96.9,101.4,96.9z M103.8,94.8l-15-26.2l29.8-17.9L103.8,94.8z M119.7,47.6L68.6,78.3L38.7,47.9l0.5-1.3 c0.3-1,1.5-1.8,2.3-1.8h79.1L119.7,47.6z"/>
    <path d="M5.8,47.5h24.4c1.4,0,2.5-1.1,2.5-2.5s-1.1-2.5-2.5-2.5H5.8c-1.4,0-2.5,1.1-2.5,2.5S4.5,47.5,5.8,47.5z"/>
    <path d="M5.8,59H20h3.3c1.4,0,2.5-1.1,2.5-2.5S24.7,54,23.3,54H20H5.8c-1.4,0-2.5,1.1-2.5,2.5S4.5,59,5.8,59z"/>
    <path d="M12.9,64.5H5.8c-1.4,0-2.5,1.1-2.5,2.5s1.1,2.5,2.5,2.5h7.1c1.4,0,2.5-1.1,2.5-2.5S14.3,64.5,12.9,64.5z"/>
  </g>
</svg>