<svg viewBox="0 0 128 128" xmlns="http://www.w3.org/2000/svg">
  <g>
    <path d="M71.7,21.4c-0.6,0-1.2,0.8-1.2,1.8c0,1,0.5,1.8,1.1,1.8c0.6,0,1.2-0.8,1.2-1.8C72.8,22.2,72.3,21.4,71.7,21.4z "/>
    <path d="M74.2,20.7c-0.3-0.5-0.7-1.2-1.9-1.6c-1.3-0.4-2-0.1-2.3,0.3c-0.4,0.5-0.2,1.3,0.9,1.1 c1.4-0.3,2.9,1.1,3.2,1.1C74.4,21.6,74.5,21.2,74.2,20.7z"/>
    <path d="M98.6,109.6V99.3h0h0c-0.1-0.4-0.9-0.6-1.9-0.6c-0.9,0-1.7,0.3-1.9,0.6h0v0.1c0,0,0,0,0,0s0,0,0,0v2.1h-9.1 l1.6-10.9c1-0.5,1.7-1.5,1.6-2.7l-0.2-4.4c0.2-0.3,0.4-0.7,0.4-1.2c1.1-8.1,4.4-32.5,5-40.1c0.2-2.3-0.6-4.1-1.9-5.1l0.5-2.3l0.2,0 c0.2,0,0.3,0,0.5,0c1.6,0,2.9-1.1,3.2-2.7l1.9-12c0.3-1.8-0.9-3.4-2.7-3.7L93,16.1c-0.2-1.9-0.9-3.8-2.1-5.4c-2.2-3-6-5.1-10.2-5.5 c-3.6-0.4-8.5,0.3-11.7,3.1c-1.9,1.7-3.1,4-2.9,6.7c0.1,1.6,1.2,2.4,1.2,2.4l0.1-0.1c0,0,0,0,0,0c-0.1,1.3-0.1,2.5,0.1,3.4 c0,0.2,0.3,1.3,0.3,1.6c0.1,1.3-2.5,2.5-2.8,4c-0.3,1.1,2,1.9,2.1,2.1c0.9,1-1.4,5.3,4.9,6c0.3,0,0.5,0.1,0.7,0.1c0,0,0,0,0,0 c0.2,0,0.4,0,0.5,0c0,0,0.1,0,0.1,0c0.1,0,0.1,0,0.2,0c0,0,0.1,0,0.1,0c0,0,0.1,0,0.1,0c0.3,0,0.5,0,0.6,0c0.1,0,0.2,0,0.3,0.1 c0.2,0.1-0.3,1.2-0.8,2.1c-0.4,0.2-0.7,0.3-1,0.5c-2.5,1.5-4.3,3.6-7.1,8.9c-1.6,3-2.8,6.5-3.8,9.8l-2,0.5c0,0-1.7,0.2-2.7,0.3 c0,0-0.1,0-0.2,0c-1.2,0-5.1-0.9-5.1-0.9c-0.1,0-0.3,0-0.4,0c-0.6,0-1.2,0.2-1.6,0.5c0,0-1.9,1.5-4.6,3.3c-1.3,0.9-0.6,2.4,0.5,2.4 c0.2,0,0.4,0,0.6-0.1c0.5-0.2,1.2-0.5,1.9-0.8c0,0.2-0.1,0.3-0.1,0.5c0,0.7,0.3,1.4,0.9,1.8c0.6,0.4,0.8,0.9,1.1,1.7l0,0h-2.6 l-6.5-3.4c-0.4-0.2-1.2,0-1.5,0.5c-0.3,0.4-0.3,1,0.4,1.6l7.6,5.4c0.5,0.4,1.2,0.6,1.8,0.6h2.5c1.7,0,2.7-1,3.6-2.4 c0-0.1,0.1-0.1,0.1-0.2c0.5,0.8,1.5,1.1,3.3,1.2C59,68.8,59,69.1,59,69.1s0.1,0,0.2,0.1l-11.7,2c-4.3,0.8-7.9,1.3-11.1,8.8l-6.8,17 l0.6,0.3l-5.6,0c-1.6,0.1-3,1.2-3.5,2.7l-0.4,1.2c-0.1,0.4,0,0.7,0.2,1l-0.2-0.1c-0.2-0.1-0.5-0.1-0.7-0.1c-0.9,0-1.8,0.6-2.1,1.5 c-0.4,1.2,0.3,2.4,1.4,2.8l18.3,6.1c0.2,0.1,0.5,0.1,0.7,0.2c-0.8,1.2-1.3,2.6-1.3,4.2c0,4,3.3,7.3,7.3,7.3c4,0,7.3-3.3,7.3-7.3 c0-3.4-2.3-6.2-5.4-7.1v-2.1c0,0,0,0,0-0.1h4.2h1.3c0.4,1.3,1.1,2.2,2.6,2.4c0,0.1,0,0.2,0,0.3c0,7.6,6.2,13.8,13.8,13.8 s13.8-6.2,13.8-13.8c0-0.1,0-0.2,0-0.3c1.6-0.2,2.3-1.2,2.7-2.7h10v2.5c-3.1,0.8-5.5,3.7-5.5,7.1c0,4,3.3,7.3,7.3,7.3 c4,0,7.3-3.3,7.3-7.3C104.1,113.3,101.8,110.4,98.6,109.6z M97.6,115.5c0,0.5-0.4,0.9-0.9,0.9s-0.9-0.4-0.9-0.9v-15.1h1.8V115.5z M79.6,82.1l-4.9,0c1.2-0.5,2.2-1.4,2.9-2.4C78.2,80.7,78.9,81.5,79.6,82.1z M85.7,29.8C85.7,29.8,85.7,29.8,85.7,29.8 C85.7,29.8,85.8,29.8,85.7,29.8c0.3,0.7,0.9,3-1.8,3.8c0,0,0,0,0,0C84.3,32.6,84.9,31.2,85.7,29.8z M68,71.3 c-0.1,0.3-0.2,0.6-0.2,1c-0.2,1.1-0.3,2.4-0.3,3.8c0,2.6,0.5,4.6,1,6c-0.2,0-0.5,0-0.7,0.1l-3.6,0c-0.4-1.5-0.7-3.5-0.7-6.1 c0-2,0.2-3.6,0.5-5c0.1-0.4,0.2-0.7,0.2-1c0.1-0.6,0.3-1.1,0.5-1.5l4.2,0.2C68.5,69.5,68.2,70.3,68,71.3z M73.5,33.5 c-0.4,0-0.9,0-1.4-0.1c-2.7-0.3-3.5-1.3-3.7-2.4c0.6-0.1,1.2-0.2,1.7-0.6c0.8-0.6,0.3-1.2-0.6-0.9c-0.3,0.1-0.7,0.2-1.2,0.2 c0-0.8,0-1.5-0.5-2c-0.2-0.2-0.4-0.3-0.7-0.5c-0.7-0.4-1.1-0.6-1.2-0.8c0.1-0.4,0.7-0.9,1.1-1.3c0.8-0.8,1.8-1.7,1.7-2.9 c0-0.3-0.1-0.9-0.3-1.6l0-0.1c-0.2-1.2-0.2-2.8,0.1-4.4c0-0.1,0.1-0.2,0.1-0.4c0.9-0.7,2.2-1.2,4.1-0.6c3.8,1.2,5.5,0.5,5.5,0.5 c-1.5,3-0.1,4.7,0.9,5.7c0.6,0.6,1.1,1.2,1.3,1.6c0.1,0.2,0.3,0.2,0.3,0c0.2-0.5,0.5-1.4,0.7-1.8c0.8-1.4,1.9-0.8,1.9-0.8 c1.5,0.6,1.9,3.8-0.7,5.6c-0.1,0-0.2,0.1-0.2,0.5c0.1,0.7,0.5,2.3,2.1,3.1c-0.9,1.6-1.6,3.3-2.1,4.4c-0.1,0-0.1,0-0.2,0 c-0.3,0-0.7,0-1,0c-0.4,0-0.7,0-1.1,0c-1.5,0-3.1,0.1-4.7,1.2c0.1-0.5,0.1-0.7,0-0.9c-0.1-0.3-0.3-0.5-0.5-0.7 c-0.2-0.1-0.5-0.2-0.7-0.2c-0.1,0-0.2,0-0.3,0C74,33.5,73.8,33.5,73.5,33.5z M46.1,60.9c-0.1,0-0.1,0-0.2,0c-0.1,0-0.2-0.1-0.2-0.2 c-0.1-0.2,0.1-0.3,0.2-0.4c2.7-1.8,4.7-3.4,4.7-3.4c0,0,0,0,0.1,0c0.1-0.1,0.5-0.3,1-0.3c0.1,0,0.2,0,0.2,0c0.5,0.1,4,0.9,5.3,0.9 c0.1,0,0.2,0,0.2,0c0.9-0.1,2.4-0.3,2.7-0.3c0,0,0.1,0,0.1,0l1.4-0.3l1.1-0.3l6.4-1.6c0.3-0.1,0.6-0.3,0.7-0.6l1.6-3.8l6.7,2.7 c-0.7,1.8-1.4,3.5-1.8,4.2c-0.9,1.8-1.5,3-6.2,3l-8.5,0.2l-1.1,0L58,60.9c-0.1,0-0.2,0-0.2,0c-0.9,0.2-1.3,0.3-1.5,0.3h0 c-1.9-0.1-2.7-1.2-2.7-1.2c-0.1-0.2-0.4-0.4-0.6-0.4L50.7,59c-0.1,0-0.2,0-0.2,0c-0.1,0-0.3,0-0.4,0.1C50,59.1,47.3,60.4,46.1,60.9 z M56.3,65.5l0-0.2c-0.1-2,0.9-2.3,3.3-2.6l0.5,0c0,0,0.1,0,0.1,0c0.3,0,0.7-0.1,1.1-0.1c1.1-0.1,2.7-0.1,4.5-0.1 c4.4,0,9.7,0.2,12,0.3c0.5,0,0.8,0,1,0c0.1,0,0.1,0,0.2,0c0.4,0,0.8,0,1.1,0.1c0.4,0,0.7,0.1,1,0.2c0.4,0.1,0.8,0.3,1,0.6 c0.5,0.5,0.6,1.2,0.5,2.3c-0.1,1.1-1,1.9-2.7,2.2c-0.3,0.1-0.7,0.1-1,0.1c-0.1,0-0.1,0-0.2,0c-0.3,0-0.5,0-0.8,0c0,0-0.1,0-0.1,0 l-0.9,0l-6.3-0.3l-2.2-0.1L65,67.7l-1.1-0.1l-2.7-0.1l-0.9,0l-0.6,0c-0.2,0-0.3,0-0.4,0C56.7,67.2,56.4,66.8,56.3,65.5z M36.1,107.1c0.1,0,0.2,0,0.3,0c0.5,0,0.9-0.3,1.1-0.8l0.8-2.6c0.3-1,0.1-2.3-0.2-3.2l0.9,0.4l9.1-17.6c0,0,0.1,0,0.3,0 c-0.2,0.3-0.3,0.6-0.3,1L48,88.8c0,0.9,0.6,1.8,1.5,1.9l0.3,1.9l-7.9,7.6c-0.7,0.6-1,1.5-1,2.4v1.4c0,0.3,0.1,0.7,0.2,1l-2.5,2.9 l-4.3-1.4L36.1,107.1z M50.9,116.7c0,3.5-2.8,6.3-6.3,6.3s-6.3-2.8-6.3-6.3c0-1.5,0.6-3,1.5-4.1c0.4-0.4,0.8-0.8,1.2-1.1 c0.4-0.3,0.9-0.5,1.4-0.7c0.1,0,0.2-0.1,0.3-0.1v1.2v2c-0.9,0.6-1.5,1.7-1.5,2.9c0,1.9,1.5,3.4,3.4,3.4s3.4-1.5,3.4-3.4 c0-1.2-0.6-2.2-1.5-2.8v-3.2C49,111.5,50.9,113.9,50.9,116.7z M47.3,106.4h-0.9h-1h-1.2c-0.2,0-0.4,0-0.6-0.1 c-0.4-0.1-0.7-0.3-1-0.5c-0.2-0.2-0.3-0.4-0.5-0.6c-0.2-0.3-0.3-0.7-0.3-1.1c0,0,0,0,0,0v-1.4c0-0.6,0.3-1.3,0.7-1.7l5.3-5l0.3,1 l0.5,2.2l0.8,3.2l0.3,1.2l0.7,2.9H47.3z M68.4,122c-6.5,0-11.8-5.3-11.8-11.8c0-0.1,0-0.2,0-0.2c0-0.3,0-0.7,0.1-1 c0.1-1.3,0.5-2.6,1.1-3.8c1.6-3.3,4.6-5.8,8.2-6.6c0.8-0.2,1.6-0.3,2.5-0.3c0.7,0,1.3,0.1,2,0.2c3.9,0.6,7.1,3.2,8.7,6.6 c0.5,1.2,0.9,2.4,1.1,3.8c0,0.3,0,0.7,0.1,1c0,0.1,0,0.2,0,0.2C80.3,116.7,75,122,68.4,122z M84.7,101.5l-0.1,1l-0.4,2.5 c0,0.4-0.1,0.8-0.2,1.1c-0.1,0.4-0.1,0.7-0.2,1c-0.3,1.1-0.8,1.6-1.7,1.7c-0.1-0.6-0.2-1.2-0.3-1.7c0-0.1-0.1-0.2-0.1-0.3 c-0.1-0.6-0.3-1.1-0.5-1.6c-1.8-4.6-5.9-7.9-10.9-8.7c-0.3,0-0.7-0.1-1-0.1c-0.3,0-0.6,0-1,0c-0.5,0-1,0-1.5,0.1 c-0.3,0-0.7,0.1-1,0.2c-4.8,0.9-8.7,4.2-10.4,8.6c-0.5,1.2-0.8,2.4-0.9,3.7c-0.8-0.1-1.3-0.5-1.6-1.5c-0.1-0.3-0.2-0.6-0.3-1h0.1 l-0.3-1.6l-1.8-12.7h0.4h0H66h1h2.4h1h15.7L84.7,101.5z M96.7,123c-3.5,0-6.3-2.8-6.3-6.3c0-2.8,1.9-5.2,4.5-6v3.2 c-0.9,0.6-1.5,1.7-1.5,2.9c0,1.9,1.5,3.4,3.4,3.4s3.4-1.5,3.4-3.4c0-1.2-0.6-2.2-1.5-2.8v-3.2c2.6,0.8,4.4,3.2,4.4,6 C103.1,120.2,100.2,123,96.7,123z"/>
    <path d="M73.2,105.2c-1.2-1.2-2.9-2-4.7-2s-3.5,0.8-4.7,2c-1,1-1.7,2.3-1.9,3.8c0,0.3-0.1,0.6-0.1,1c0,0,0,0,0,0 c0,3.7,3,6.7,6.7,6.7s6.7-3,6.7-6.7c0,0,0,0,0,0c0-0.3,0-0.7-0.1-1C74.8,107.5,74.2,106.2,73.2,105.2z M68.4,115.6 c-3.1,0-5.7-2.6-5.7-5.7c0-3.1,2.6-5.7,5.7-5.7c3.2,0,5.7,2.6,5.7,5.7C74.1,113,71.6,115.6,68.4,115.6z"/>
    <path d="M68.4,107.4c-1.4,0-2.5,1.1-2.5,2.5c0,1.4,1.1,2.5,2.5,2.5s2.5-1.1,2.5-2.5C70.9,108.5,69.8,107.4,68.4,107.4z "/>
  </g>
</svg>