<svg viewBox="0 0 128 128" xmlns="http://www.w3.org/2000/svg">
  <polygon points="66.8,113.5 67.8,109.2 64,106 63.9,106 60.2,109.2 61.2,113.5 61.2,113.5 60,124 68,124 "/>
  <path d="M43.1,52.6c0.1,0,0.2-0.1,0.3-0.1s0.2-0.1,0.4-0.1s0.3-0.1,0.4-0.1c0.1,0,0.3-0.1,0.4-0.1c0.1,0,0.2,0,0.2-0.1 c0.1,0,0.2,0,0.2,0c0.2,0,0.3-0.1,0.5-0.1c0.3,0,0.7-0.1,1-0.1s0.7,0,1,0s0.7,0,1,0s0.7,0.1,1,0.1c0.2,0,0.3,0.1,0.5,0.1 c0.1,0,0.2,0,0.2,0c0.1,0,0.1,0,0.2,0.1c0.2,0,0.3,0.1,0.4,0.1c0.1,0,0.3,0.1,0.4,0.1c0.3,0.1,0.5,0.2,0.7,0.2 c0.1,0,0.2,0.1,0.3,0.1s0.2,0.1,0.2,0.1c0.3,0.1,0.5,0.2,0.5,0.2l0.3,0.1c0.5,0.2,1,0.1,1.4-0.2c0.7-0.5,0.9-1.5,0.4-2.2 c0,0-0.2-0.2-0.5-0.6c-0.1-0.1-0.2-0.2-0.3-0.3s-0.2-0.2-0.3-0.3s-0.3-0.2-0.4-0.4s-0.3-0.2-0.5-0.3s-0.3-0.2-0.5-0.4 c-0.2-0.1-0.4-0.2-0.6-0.3c-0.2-0.1-0.4-0.2-0.7-0.3c-0.2-0.1-0.5-0.2-0.7-0.3c-0.5-0.1-1-0.3-1.5-0.4C48.5,47,47.9,47,47.4,47 s-1.1,0-1.6,0.1s-1,0.2-1.5,0.4c-0.2,0.1-0.5,0.2-0.7,0.3s-0.4,0.2-0.7,0.3c-0.2,0.1-0.4,0.2-0.6,0.3c-0.2,0.1-0.4,0.2-0.5,0.4 c-0.2,0.1-0.3,0.2-0.5,0.3s-0.3,0.3-0.4,0.4c-0.1,0.1-0.3,0.2-0.4,0.3c-0.1,0.1-0.2,0.2-0.2,0.3c-0.2,0.3-0.4,0.5-0.4,0.5 c-0.3,0.4-0.4,1-0.1,1.5c0.3,0.8,1.3,1.2,2.1,0.9c0,0,0.2-0.1,0.6-0.3c0.1,0,0.2-0.1,0.3-0.1C42.9,52.7,43,52.6,43.1,52.6z"/>
  <ellipse cx="47.6" cy="58.8" rx="4.9" ry="5.1"/>
  <path d="M88,50.8c0,0-0.1-0.2-0.4-0.5c-0.1-0.1-0.1-0.2-0.2-0.3s-0.2-0.2-0.4-0.3c-0.1-0.1-0.3-0.2-0.4-0.4 c-0.2-0.1-0.3-0.2-0.5-0.4c-0.2-0.1-0.3-0.2-0.5-0.3s-0.4-0.2-0.6-0.3s-0.4-0.2-0.7-0.3c-0.2-0.1-0.5-0.2-0.7-0.3 c-0.5-0.1-1-0.3-1.5-0.4c-0.5-0.1-1.1-0.1-1.6-0.1s-1.1,0-1.6,0.1s-1,0.2-1.5,0.4c-0.2,0.1-0.5,0.2-0.7,0.3s-0.5,0.2-0.7,0.3 s-0.4,0.2-0.6,0.3s-0.4,0.2-0.5,0.3c-0.2,0.1-0.3,0.2-0.5,0.3c-0.1,0.1-0.3,0.2-0.4,0.3s-0.2,0.2-0.3,0.3c-0.1,0.1-0.2,0.2-0.3,0.3 c-0.3,0.3-0.5,0.6-0.5,0.6c-0.3,0.4-0.4,0.9-0.2,1.4c0.3,0.8,1.2,1.3,2,1L75,53c0,0,0.2-0.1,0.5-0.2c0.1,0,0.2-0.1,0.2-0.1 c0.1,0,0.2-0.1,0.3-0.1c0.2-0.1,0.4-0.2,0.7-0.2c0.1,0,0.3-0.1,0.4-0.1s0.3-0.1,0.4-0.1s0.2,0,0.2-0.1c0.1,0,0.2,0,0.2,0 c0.2,0,0.3-0.1,0.5-0.1c0.3,0,0.7-0.1,1-0.1s0.7,0,1,0s0.7,0,1,0s0.7,0.1,1,0.1c0.2,0,0.3,0.1,0.5,0.1c0.1,0,0.2,0,0.2,0 c0.1,0,0.1,0,0.2,0.1c0.2,0,0.3,0.1,0.4,0.1s0.3,0.1,0.4,0.1s0.2,0.1,0.4,0.1c0.1,0,0.2,0.1,0.3,0.1c0.1,0,0.2,0.1,0.3,0.1 c0.1,0,0.2,0.1,0.3,0.1c0.4,0.2,0.6,0.3,0.6,0.3c0.5,0.2,1.1,0.2,1.6-0.1C88.3,52.5,88.5,51.5,88,50.8z"/>
  <ellipse cx="80.4" cy="58.8" rx="4.9" ry="5.1"/>
  <path d="M64,72.4c2.8,0,4.2-2,4.5-2.7s-0.1-1.4-0.7-1.6c-0.1,0-0.2-0.1-0.3-0.1h-7.1c-0.1,0-0.2,0-0.3,0.1c-0.6,0.3-1,0.9-0.7,1.6 C59.8,70.4,61.2,72.4,64,72.4z"/>
  <path d="M72.4,76.1c-3.2,1.9-13.6,1.9-16.8,0c-1.8-1.1-3.7,0.6-2.9,2.2s6.5,5.4,11.4,5.4s10.6-3.8,11.3-5.4 C76.1,76.7,74.2,75,72.4,76.1z"/>
  <path d="M87.1,98.3L87.1,98.3c-0.4-0.1-0.8-0.2-1.2-0.2c-0.3-0.1-0.5-0.1-0.8-0.2c-0.5-0.1-1-0.2-1.4-0.3c-0.2,0-0.4-0.1-0.6-0.1 c-1.7-0.3-3.4-0.5-5.1-0.7c-0.1,0-0.1,0-0.2,0l0,0c-0.5-0.1-1-0.1-1.5-0.2l-6,27.4h1.6h7.4H116v-3C116,109.3,103.4,101.8,87.1,98.3z M86.2,118.8c0,0-0.1-0.1-0.2-0.1c-0.1-0.1,0-0.2,0.1-0.2h5.3c0.2,0.2,0.4,0.5,0.6,1l0,0h-4.2C87.2,119.4,86.6,119.2,86.2,118.8z M88.2,120.3c-0.1-0.1-0.2-0.1-0.3-0.2c-0.1-0.1-0.1-0.3,0.1-0.3h4.1h0.1c0.1,0.3,0.2,0.6,0.3,0.9h-3.2 C88.9,120.6,88.5,120.5,88.2,120.3z M92.5,122.1c0,0-1,0.1-2.7-0.8c-0.1,0,0-0.2,0-0.2h2.8c0.1,0.3,0.1,0.6,0.1,1H92.5z M96.4,122 c-0.3,0.1-0.8,0.4-1.1,0.7c-0.2,0.1-0.4,0.1-0.5,0c-0.4-0.3-0.8-0.5-1.1-0.7c-0.1-0.1-0.2-0.2-0.2-0.3c0-1.3-0.8-2.4-1-2.8 c-0.1-0.1-0.1-0.2,0-0.5l0.3-0.8c0.1-0.2,0.3-0.3,0.5-0.2c0.3,0.2,0.7,0.2,1,0.3c0.5,0.1,1,0.1,1.5,0c0.3-0.1,0.7-0.1,1-0.3 c0.2-0.1,0.4,0,0.5,0.2c0.1,0.3,0.3,0.7,0.4,0.9c0.1,0.1,0,0.3,0,0.4c-0.3,0.4-1,1.5-1,2.8C96.6,121.8,96.5,121.9,96.4,122z M100.2,121.3c-1.7,0.9-2.7,0.8-2.7,0.8h-0.3c0-0.3,0.1-0.7,0.2-1h2.8C100.3,121.1,100.3,121.2,100.2,121.3z M102.1,120.1 c-0.1,0.1-0.2,0.1-0.3,0.2c-0.3,0.2-0.7,0.3-1.1,0.3h-3.2c0.1-0.3,0.2-0.6,0.3-0.9h0.1h4.1C102.2,119.8,102.2,120,102.1,120.1z M104,118.6c0,0-0.1,0.1-0.2,0.1c-0.4,0.4-1,0.6-1.6,0.6H98c0.2-0.4,0.4-0.7,0.6-1h5.3C104,118.4,104,118.5,104,118.6z"/>
  <path d="M50.2,96.7L50.2,96.7c-0.1,0-0.1,0-0.2,0c-0.6,0.1-1.2,0.1-1.7,0.2h-0.1c-1.1,0.1-2.1,0.3-3.2,0.4c-0.3,0-0.5,0.1-0.8,0.1 c-0.5,0.1-0.9,0.2-1.3,0.2c-0.3,0.1-0.6,0.1-1,0.2c-0.3,0.1-0.7,0.1-1,0.2l0,0c-16.3,3.3-29,10.5-29,22.9v3h36.7h7.8h1.2l-6-27.4 C51.2,96.6,50.7,96.7,50.2,96.7z"/>
  <path d="M64,4C38.2,4,20,20.2,23.6,34.5c1.6,6.2,3.1,8.8,3.1,8.8c0.1-0.1,0.3-0.3,0.5-0.5C27,49,27.6,54,27.8,55.6 c-1.1,1.8-1.8,3.9-1.8,6.3c0,4.8,2.9,9,6.9,10.6C36.9,84.7,45.3,92.2,55,95v0.3c0.1,1.4,0.5,2.9,2,5.3c0-0.2,0-0.3,0-0.5v-4.6 c2.3,0.5,4.7,0.8,7.1,0.8c2.4,0,4.8-0.3,7.1-0.8v4.6c0,0.2,0,0.3,0,0.5c1.7-2.6,2-4.1,2-5.6c9.6-2.8,18.1-10.3,22.1-22.5 c4-1.7,6.9-5.8,6.9-10.6c0-2.3-0.7-4.5-1.8-6.3c0.2-1.6,0.8-6.3,0.7-12.3c0,0,1.9-2.8,3.5-9C108,20,90,4,64,4z M28,61.8 c0-1.4,0.3-2.8,0.8-4c0.5,0.9,1.2,2.1,1.9,3.2c0.2,3.1,0.7,6,1.4,8.7C29.6,68.2,28,65.2,28,61.8z M72.6,17.2h12.6 c0.3,0,0.4,0.3,0.2,0.5c-0.1,0.1-0.2,0.2-0.4,0.3c-1.1,1-2.4,1.5-3.9,1.5h-10C71.7,18.5,72.2,17.7,72.6,17.2z M71,20.6h9.8 c0.4,0,0.5,0.5,0.2,0.7c-0.2,0.2-0.5,0.3-0.7,0.5c-0.8,0.5-1.8,0.8-2.7,0.8h-7.7c0.2-0.7,0.5-1.4,0.8-2.1 C70.8,20.5,70.9,20.6,71,20.6z M76.5,24c-4.1,2-6.4,1.9-6.4,1.9h-0.8c0.1-0.8,0.2-1.6,0.3-2.3h6.8C76.6,23.6,76.7,23.9,76.5,24z M57.7,17l0.8-2c0.2-0.5,0.8-0.7,1.2-0.5c0.8,0.3,1.7,0.6,2.5,0.7c1.2,0.2,2.4,0.2,3.5,0c0.8-0.1,1.7-0.3,2.5-0.7 c0.5-0.2,1,0,1.2,0.5c0.3,0.7,0.7,1.7,0.9,2.2c0.1,0.3,0.1,0.6-0.1,0.9c-0.7,1-2.4,3.6-2.5,6.8c0,0.4-0.2,0.7-0.5,0.8 c-0.6,0.3-1.8,0.9-2.6,1.6c-0.4,0.3-0.9,0.3-1.2,0c-0.8-0.7-2-1.3-2.6-1.6c-0.3-0.2-0.5-0.5-0.5-0.8c-0.1-3.2-1.8-5.8-2.5-6.8 C57.5,17.9,57.5,17.5,57.7,17z M58.7,25.9h-0.8c0,0-2.3,0.1-6.4-1.9c-0.2-0.1-0.1-0.4,0.1-0.4h6.8C58.6,24.3,58.7,25.1,58.7,25.9z M57.3,20.5c0.3,0.6,0.5,1.3,0.8,2.1h-7.7c-1,0-1.9-0.3-2.7-0.8c-0.2-0.1-0.5-0.3-0.7-0.5c-0.3-0.2-0.2-0.7,0.2-0.7H57 C57.1,20.6,57.2,20.5,57.3,20.5z M42.8,17.2h12.6c0.4,0.5,0.9,1.3,1.4,2.3h-10C45.4,19.5,44,19,43,18c-0.1-0.1-0.2-0.2-0.4-0.3 C42.4,17.5,42.5,17.2,42.8,17.2z M85.7,85C80,91,72.3,94.3,64,94.3S48,91,42.3,85c-5.1-5.4-8.3-12.6-9.4-21.2 c0.1-6.4,2.2-16.2,4-22.1c6.1,2.1,14.8,3.9,26.8,4c12.1-0.1,21-2,27.2-4.3c1.9,5.8,4,15.9,4.1,22.4C93.9,72.4,90.7,79.6,85.7,85z M95.9,69.8c0.7-2.7,1.2-5.6,1.4-8.8c0.7-1.1,1.3-2.3,1.8-3.2c0.5,1.2,0.8,2.6,0.8,4C100,65.2,98.4,68.2,95.9,69.8z"/>
</svg>