<svg viewBox="0 0 128 128" xmlns="http://www.w3.org/2000/svg">
  <path d="M106.7,16.4h-5.8h-1h-3.3v-5.2c0-2.2-1.8-4-4-4H79c-0.1-1.5-1.4-2.7-3-2.7H58.7c-1.6,0-2.8,1.2-3,2.7H35.5c-2.2,0-4,1.8-4,4 v5.2H28h-1.7h-5.1L5.5,50.7l6.8,73.3h103.4l6.8-73.3L106.7,16.4z M88.6,92.4H39.1l-1.2-24.8h52L88.6,92.4z M110.6,50.7H17.1v-18 c0-2.2,1.8-4,4-4h3.2V22c0-2.2,1.8-4,4-4h9.2v-0.2c0-3.3,2.7-6,6-6h17.4c3.3,0,6,2.7,6,6V18h32.5c2.2,0,4,1.8,4,4v6.8h3.2 c2.2,0,4,1.8,4,4V50.7z M48.5,25.59c1.66,0,3,1.34,3,3v4.36c0,1.66-1.34,3-3,3H30.33c-1.66,0-3-1.34-3-3v-4.36c0-1.66,1.34-3,3-3 H48.5 M63.83,17.73v4.36c0,1.66-1.34,3-3,3h-7.47c-1.09-1.51-2.86-2.5-4.86-2.5h-7.98c-0.03-0.16-0.05-0.33-0.05-0.5v-4.36 c0-1.66,1.34-3,3-3h17.36C62.49,14.73,63.83,16.07,63.83,17.73z"/>
</svg>