<svg viewBox="0 0 128 128" xmlns="http://www.w3.org/2000/svg">
  <g>
    <path d="M29.8,52.2c0.1,0,0.3-0.1,0.4-0.1c0.1,0,0.3-0.1,0.4-0.1c0.1,0,0.1,0,0.2-0.1c0.1,0,0.2,0,0.2,0c0.2,0,0.3-0.1,0.5-0.1 c0.3,0,0.7-0.1,1-0.1c0.3,0,0.7,0,1,0c0.3,0,0.7,0,1,0c0.3,0,0.7,0.1,1,0.1c0.2,0,0.3,0.1,0.5,0.1c0.1,0,0.2,0,0.2,0 c0.1,0,0.1,0,0.2,0.1c0.2,0,0.3,0.1,0.4,0.1c0.1,0,0.3,0.1,0.4,0.1c0.3,0.1,0.5,0.2,0.7,0.2c0.1,0,0.2,0.1,0.3,0.1 c0.1,0,0.2,0.1,0.2,0.1c0.3,0.1,0.5,0.2,0.5,0.2l0.3,0.1c0.5,0.2,1,0.1,1.4-0.2c0.7-0.5,0.9-1.5,0.4-2.2c0,0-0.2-0.2-0.5-0.6 c-0.1-0.1-0.2-0.2-0.3-0.3c-0.1-0.1-0.2-0.2-0.3-0.3c-0.1-0.1-0.3-0.2-0.4-0.3s-0.3-0.2-0.5-0.3c-0.2-0.1-0.3-0.2-0.5-0.3 c-0.2-0.1-0.4-0.2-0.6-0.3c-0.2-0.1-0.4-0.2-0.7-0.3c-0.2-0.1-0.5-0.2-0.7-0.3c-0.5-0.1-1-0.3-1.5-0.4C34.6,47,34.1,47,33.5,47 c-0.5,0-1.1,0-1.6,0.1c-0.5,0.1-1,0.2-1.5,0.4c-0.2,0.1-0.5,0.2-0.7,0.3c-0.2,0.1-0.4,0.2-0.7,0.3c-0.2,0.1-0.4,0.2-0.6,0.3 c-0.2,0.1-0.4,0.2-0.5,0.3c-0.2,0.1-0.3,0.2-0.5,0.4c-0.2,0.1-0.3,0.3-0.4,0.4c-0.1,0.1-0.3,0.2-0.4,0.3c-0.1,0.1-0.2,0.2-0.2,0.3 c-0.2,0.3-0.4,0.5-0.4,0.5c-0.3,0.4-0.4,1-0.1,1.5c0.3,0.8,1.3,1.2,2.1,0.9c0,0,0.2-0.1,0.6-0.3c0.1,0,0.2-0.1,0.3-0.1 c0.1,0,0.2-0.1,0.3-0.1c0.1,0,0.2-0.1,0.3-0.1C29.5,52.3,29.6,52.3,29.8,52.2z"/>
    <ellipse cx="34.2" cy="58.7" rx="4.9" ry="5.1"/>
    <ellipse cx="65.8" cy="60.1" rx="6" ry="6.2"/>
    <path d="M66.8,46.8c-5,0-7.6,2.1-8.7,3.6c-0.5,0.7-0.4,1.4,0,1.9c0.3,0.4,1.2,0.8,2.3,0.5c1-0.3,3-1.4,6.4-1.4 c3.4,0,5.4,1.1,6.4,1.4c1,0.3,2,0,2.3-0.5c0.3-0.5,0.5-1.2,0-1.9C74.4,48.9,71.8,46.8,66.8,46.8z"/>
    <path d="M11.3,103.3c-1.2,0-2.2,1-2.2,2.2s1,2.2,2.2,2.2s2.2-1,2.2-2.2S12.5,103.3,11.3,103.3z M10.4,105.9c-0.3,0-0.5-0.2-0.5-0.5 s0.2-0.5,0.5-0.5s0.5,0.2,0.5,0.5S10.7,105.9,10.4,105.9z M12.2,106.1c-0.3,0-0.5-0.2-0.5-0.6c0-0.3,0.2-0.5,0.5-0.5 c0.3,0,0.6,0.2,0.6,0.5C12.8,105.9,12.5,106.1,12.2,106.1z"/>
    <path d="M77.6,75.9C77.6,75.9,77.6,75.9,77.6,75.9c0.8-0.2,1.7-0.4,2.5-0.7c0,0,0,0,0,0l0,0c2-0.7,3.9-1.8,5.7-3.2 c8.5-6.8,9.9-19.3,3.1-27.9c-6.8-8.6-19.2-9.9-27.7-3.1S51.2,60.4,58,68.9C62.9,75,70.5,77.4,77.6,75.9L77.6,75.9z M87.7,45.1 c6.3,7.9,5,19.5-2.9,25.8c-1.3,1-2.6,1.8-4.1,2.5c0.1-0.3,0.3-0.7,0.4-1c4-1.6,6.9-5.8,6.9-10.6c0-2.3-0.7-4.5-1.8-6.3 c0.2-1.5,0.8-5.8,0.7-11.3C87.2,44.4,87.5,44.7,87.7,45.1z M86,61.7c0,3.4-1.7,6.3-4.1,8c0.7-2.7,1.2-5.6,1.4-8.8 c0.7-1.1,1.3-2.3,1.8-3.2C85.7,58.9,86,60.3,86,61.7z M71.4,74.8c-4.8-0.5-9.2-2.9-12.2-6.8c-5.4-6.8-5.2-16.4,0-22.9 c0.1,0,0.3,0,0.4,0c2.9,0.3,5.8,0.7,8.4,0.7c0.7,0,1.3,0,1.9-0.1c3.1-0.3,5.6-1,7.8-1.8c1.6,5.9,3.2,14.1,3.3,19.8 c-0.5,3.8-1.4,7.3-2.7,10.5C76.1,74.9,73.8,75.1,71.4,74.8z"/>
    <path d="M121.6,105.3c-0.1-0.1-0.2-0.2-0.3-0.3c-0.1-0.3-0.2-0.5-0.3-0.8c0.4-1.3,0.3-2.8-0.6-3.9c-0.4-0.6-1-1-1.6-1.3 c0.1-1.1-0.1-2.3-0.9-3.2c-0.7-0.8-1.7-1.4-2.8-1.4c-0.2,0-0.5,0-0.7,0c0-1.1-0.3-2.2-1.1-3c-0.7-0.7-1.6-1.2-2.6-1.3 c0-0.1,0-0.2,0-0.2c-0.1-1.4-0.8-2.5-1.8-3c-0.8-0.4-1.7-0.4-2.7,0c-2.5-2.9-5.2-5.1-7.7-6.4c0.5-1,0.4-2.2-0.4-3.1l-0.4-0.5 c-0.5-0.6-1.2-1-2-1.1c-0.4,0-0.8,0-1.2,0.1l-1.6-2c8.3-9.4,8.7-23.5,0.9-33.4c-0.3-0.4-0.7-0.8-1.1-1.2c2.9-1.3,4.9-3.1,4.9-5.5 c0-3.6-4.8-7-12.8-9c-0.3-0.6-0.5-1.1-0.8-1.6l-0.5-1c-0.1-0.1-0.1-0.3-0.2-0.4c-4.4-8.9-8.9-16.3-18.2-18.7c-3-0.7-7.7-0.5-10.9,0 c-5,0.8-5.7,0.7-8.3,0.4c-1-0.1-2.3-0.3-4.1-0.5c-2.9-0.3-6.6-0.5-9.4,0.4c-8.4,2.5-11.1,8.8-14.8,17.4c-0.7,1.6-1.4,3.2-2.2,4.9 c-0.1,0-0.2,0-0.3,0.1C8.5,27,2.5,29.1,2.5,33.6c0,3.7,4,5.2,10.7,6.9c-0.5,7.2,0.2,13.1,0.5,15c-1.1,1.8-1.8,4-1.8,6.3 c0,4.8,2.9,9,6.9,10.6c1.2,3.7,2.8,7,4.8,9.9c-2.7,1.4-4.2,3.1-4.2,4.8c0,0.3,0,0.5,0.1,0.7c0,0-0.1-0.1-0.1-0.1l3.2,9.4 c-3.5-0.1-11.9,0.4-17.2,6.7l0,0c-0.8,0.9-0.9,2.1-0.4,3c-0.3,0.3-0.7,0.6-1,0.8V124h27.6h10.3h5.7l-3.2-27.7 c-0.1-0.3-0.1-0.5-0.2-0.7c1.9,0.4,3.9,0.5,5.9,0.5c2,0,3.9-0.2,5.9-0.5c-0.1,0.2-0.2,0.5-0.3,0.7L52.3,124h6.1h10h48.5l-1.5-8.3 l3.2-3.1l2.2-1.6C122.5,109.6,122.9,107.1,121.6,105.3z M11.3,108.7c-1.8,0-3.2-1.4-3.2-3.2s1.4-3.2,3.2-3.2s3.2,1.4,3.2,3.2 S13,108.7,11.3,108.7z M118,100.8c0.3,0.1,0.6,0.4,0.8,0.6c0.8,1,0.6,2.4-0.4,3.1l-4.7,3.6c-0.5,0.4-1.1,0.5-1.6,0.4 c-0.6-0.1-1.1-0.4-1.5-0.8c-0.2-0.2-0.3-0.4-0.3-0.7c0.6-0.2,1.2-0.4,1.6-0.8l5.4-4.6C117.6,101.3,117.8,101.1,118,100.8z M113.5,96.6c0.3-0.2,0.7-0.4,1.2-0.4c0.1,0,0.1,0,0.2,0c0.6,0,1.1,0.3,1.5,0.8c0.8,0.9,0.6,2.3-0.2,3l-5.4,4.7 c-0.4,0.4-1,0.6-1.6,0.5c-0.6,0-1.1-0.3-1.5-0.8c-0.4-0.5-0.6-1.2-0.5-1.8c0.3-0.2,0.5-0.3,0.7-0.5l5.2-4.9 C113.2,97,113.3,96.8,113.5,96.6z M109.8,92.1c0.1,0,0.3,0,0.4,0h0c0.6,0,1.1,0.2,1.5,0.7c0.8,0.9,0.8,2.2-0.1,3l-5.2,4.9 c-0.4,0.4-1,0.6-1.5,0.6c-0.6,0-1.1-0.2-1.5-0.7c-0.8-0.9-0.8-2.2,0.1-3l3.1-2.9c0,0,0.1,0,0.1-0.1 C107.6,94.1,108.9,93.2,109.8,92.1z M107.8,88.7c0.4,0.2,1,0.8,1.1,1.5c0.1,0.8-1.3,2.4-2.5,3.1c-1.7,0.9-3.7,1.8-4.7,3.5 c-0.8,1.3-1.3,3.2-0.7,4.6c0.5,1.3,3.1,3.2,3.4,5.9c0,0.2,0,0.4,0,0.5c0,1.2-0.8,3.7-0.8,3.7s2.2-1.5,2.5-3c0.2-0.9,0.2-1.7,0-2.6 c0.6,0.6,1.3,1,2.1,1.2c0.1,0.7,0.4,1.3,0.8,1.9c0.5,0.6,1.1,1,1.7,1.3c0,0.9,0.2,1.9,0.8,2.6c0.6,0.8,1.5,1.3,2.4,1.5l-0.3,0.2 c-2.8,2.4-5.7,3.5-8.4,3.3c-2.7-0.2-5.2-1.7-7.5-4.5c-1.8-2.2-2.8-4.2-3.3-6c0,0,0,0,0-0.1c-0.7-3.1-0.6-5.2,0.9-8.5 c1-2.4,2-3.7,3.4-5c0.4-0.4,1.8-1.5,2.4-1.9c1-0.7,2.5-1.5,3.5-2.1c0.6-0.3,1-0.6,1.3-0.8C106.7,88.6,107.4,88.5,107.8,88.7z M38.8,10c3.2,2.2,7.1,3.3,11,2.8c3.5-0.4,6.9-1.7,10.1-3.2c0.5-0.3,1.1,0.3,0.9,0.9c-0.5,1.3-5.5,6.2-11.4,6.2 c-5.5,0-9.2-2.3-11.1-5.6C37.9,10.6,38.1,9.5,38.8,10z M14,61.7c0-1.4,0.3-2.8,0.8-4c0.5,0.9,1.2,2.1,1.9,3.2 c0.2,3.1,0.7,6,1.4,8.7C15.6,68,14,65.1,14,61.7z M71.7,84.8c-5.7,6-13.4,9.3-21.7,9.3s-16-3.3-21.7-9.3 c-5.1-5.4-8.3-12.6-9.4-21.2c0.1-5.8,1.8-14.3,3.5-20.2c2.4,0.9,5.3,1.7,9.4,2.2c3.1,0.4,7.3-0.1,11.3-0.5c2.6-0.3,5.3-0.6,7.6-0.6 c-3.8,7.2-4.1,15.9-0.5,23.4h-3.7c-0.1,0-0.2,0-0.3,0.1c-0.6,0.3-1,0.9-0.7,1.6c0.3,0.7,1.7,2.7,4.5,2.7c1,0,1.8-0.2,2.5-0.6 c0.3,0.4,0.6,0.8,0.9,1.2c1.1,1.4,2.4,2.7,3.7,3.8c-4.2,1.3-12.5,1.1-15.3-0.6c-1.8-1.1-3.7,0.6-2.9,2.2c0.8,1.6,6.4,5.4,11.4,5.4 c4.2,0,8.8-2.7,10.6-4.5c3.9,2.2,8.4,3.4,12.9,3.4C73,83.3,72.3,84.1,71.7,84.8z M76,81c-0.4,0-0.8,0.1-1.3,0.1 c-4.6,0.2-9.2-0.9-13.2-3.2c-1-0.6-2-1.2-2.9-1.9c0,0,0,0,0,0c-1.5-1.2-2.9-2.5-4.1-4.1c-0.3-0.4-0.6-0.9-1-1.3 c-0.2-0.3-0.3-0.5-0.5-0.8c-0.2-0.2-0.3-0.5-0.5-0.7c-0.2-0.3-0.3-0.5-0.4-0.8c-4.1-7.5-3.8-16.5,0.3-23.8h0 c0.1-0.2,0.3-0.4,0.4-0.7c1.4-2.4,3.3-4.5,5.6-6.3c10-8,24.3-6.9,32.9,2.3c0.5,0.5,0.9,1,1.3,1.5c8.4,10.6,6.7,26-3.8,34.4 c-3.4,2.8-7.4,4.4-11.5,5.1C76.8,80.9,76.4,80.9,76,81C76,81,76,81,76,81z M80.5,87.8c0.1-0.2,0.1-0.5,0.1-0.7c0-1.7-1.5-3.3-4-4.7 c3.1-0.4,6.2-1.3,9-2.8l1.5,1.9c-0.9,1.1-0.9,2.6,0,3.7l0.4,0.5c0.5,0.6,1.2,1,2,1.1c0.4,0,0.7,0,1.1-0.1c0.7,2.6,2.2,5.7,4.4,8.6 c-2,2.9-2.7,5.7-2.9,7.9c-4.5-4.8-10.8-5.9-14.7-6.1L80.5,87.8C80.6,87.7,80.5,87.8,80.5,87.8z M86.7,108.7c-1.8,0-3.2-1.4-3.2-3.2 s1.4-3.2,3.2-3.2c1.8,0,3.2,1.4,3.2,3.2S88.5,108.7,86.7,108.7z M119.7,109.6l-3.6,2.7c-0.5,0.4-1.1,0.5-1.7,0.4 c-0.6-0.1-1.2-0.4-1.5-0.9c-0.3-0.4-0.4-0.8-0.5-1.3c0.9,0,1.7-0.3,2.5-0.9l4.7-3.6c0.1-0.1,0.1-0.1,0.2-0.2 c0.1,0.1,0.3,0.3,0.4,0.4C121,107.4,120.8,108.8,119.7,109.6z"/>
    <path d="M86.7,103.3c-1.2,0-2.2,1-2.2,2.2s1,2.2,2.2,2.2c1.2,0,2.2-1,2.2-2.2S87.9,103.3,86.7,103.3z M85.8,106.1 c-0.3,0-0.5-0.2-0.5-0.6c0-0.3,0.2-0.5,0.5-0.5s0.6,0.2,0.6,0.5C86.4,105.9,86.1,106.1,85.8,106.1z M87.7,105.9 c-0.3,0-0.5-0.2-0.5-0.5c0-0.3,0.2-0.5,0.5-0.5c0.3,0,0.6,0.2,0.6,0.5C88.3,105.7,88,105.9,87.7,105.9z"/>
  </g>
</svg>