<svg style="enable-background:new 0 0 128 128;" viewBox="0 0 128 128" xmlns="http://www.w3.org/2000/svg" xmlns:xlink="http://www.w3.org/1999/xlink">
  <style type="text/css">
.st0{fill:#231F20;}
  </style>
  <g>
    <path class="st0" d="M116,4H12c-4.4,0-8,3.6-8,8v104c0,4.4,3.6,8,8,8h104c4.4,0,8-3.6,8-8V12C124,7.6,120.4,4,116,4z M71.9,25.9 h5.9l0-12.1c0-1.7,1.3-3,3-3c1.7,0,3,1.3,3,3l0,12.2h6c2.1,0,3.2,2.4,1.9,4l-7.7,9.2c-0.1,0.2-0.3,0.3-0.4,0.4 c-0.4,0.4-0.9,0.8-1.5,1c-1.6,0.5-3.3,0-4.2-1.3c0,0-0.1-0.1-0.1-0.2L70,29.9C68.7,28.3,69.9,25.9,71.9,25.9z M37.9,21.6l7.6-9.2 c0.1-0.1,0.1-0.1,0.2-0.2c0.9-1.2,2.6-1.8,4.2-1.3c0.6,0.2,1.1,0.5,1.5,1c0.2,0.1,0.3,0.2,0.4,0.4l7.7,9.2c1.3,1.6,0.2,4-1.9,4h-6 l0,12.2c0,1.6-1.4,3-3,3c-1.7,0-3-1.3-3-3l0-12.1h-5.9C37.8,25.5,36.6,23.2,37.9,21.6z M111.3,108.6c0,4.4-3.5,7.9-7.9,7.9h-77 c-4.4,0-7.9-3.5-7.9-7.9V53.9c0-4.4,3.5-7.9,7.9-7.9h77c4.4,0,7.9,3.5,7.9,7.9V108.6z"/>
    <path class="st0" d="M27.6,107.6h74.8V55.1H27.6V107.6z M84.9,58.7L84.9,58.7c1.7-1,3.9-0.4,4.9,1.3s0.4,4-1.3,5.1 c-1.7,1-3.9,0.4-4.9-1.3C82.6,62,83.2,59.8,84.9,58.7z M78.5,68.8c0-1.2,1-2.2,2.2-2.2h11.9c1.2,0,2.2,1,2.2,2.2v13.8 c0,1.2-1,2.2-2.2,2.2h-0.9v18.1c0,1.3-1,2.4-2.4,2.4c-1.3,0-2.3-1.1-2.3-2.4V84.7h-0.8v18c0,1.3-1,2.3-2.3,2.3s-2.4-1-2.4-2.3v-18 h-0.9c-1.2,0-2.2-1-2.2-2.2V68.8z M63,58.7L63,58.7c1.7-1,3.9-0.4,4.9,1.3s0.4,4-1.3,5.1c-1.7,1-3.9,0.4-4.9-1.3S61.3,59.8,63,58.7 z M56.7,68.8c0-1.2,1-2.2,2.2-2.2h11.9c1.2,0,2.2,1,2.2,2.2v13.8c0,1.2-1,2.2-2.2,2.2h-1v18.1c0,1.3-1,2.4-2.3,2.4 s-2.3-1.1-2.3-2.4V84.7h-0.8v18.1c0,1.3-1.1,2.4-2.4,2.4s-2.3-1.1-2.3-2.4V84.7h-0.8c-1.2,0-2.2-1-2.2-2.2V68.8z M41.1,58.8 L41.1,58.8c1.7-1,3.9-0.4,4.9,1.3c1,1.8,0.4,4-1.3,5.1c-1.7,1-3.9,0.4-4.9-1.3C38.8,62,39.4,59.8,41.1,58.8z M34.8,68.8 c0-1.2,1-2.2,2.2-2.2h11.9c1.2,0,2.2,1,2.2,2.2v13.8c0,1.2-1,2.2-2.2,2.2H48v18.1c0,1.3-1,2.4-2.3,2.4s-2.4-1.1-2.4-2.4V84.8h-0.8 v18.1c0,1.3-1,2.3-2.3,2.3c-1.3,0-2.4-1-2.4-2.3V84.8h-0.9c-1.2,0-2.2-1-2.2-2.2V68.8z"/>
  </g>
</svg>