<svg viewBox="0 0 128 128" xmlns="http://www.w3.org/2000/svg">
  <path d="M123.8,64.8L123.8,64.8L123.8,64.8c0,0-0.1-0.2-0.1-0.3c0-5.2-9.2-9.5-23.6-12.1c9.5-8.6,18.2-14.7,20.7-17.9 c4.2-5.4,2.2-9.2-2.6-10.8c-1.1-0.3-2.3-0.5-3.5-0.4c-4.6,0.4-9.8,3.8-14.2,9c-3.1,3.7-8.3,10.5-13.8,18.2c-7-0.7-14.7-1.1-22.7-1.1 c-32.6,0-59.1,6-59.8,14.7l-0.1,0c0,0-4.4,59.8,59.6,59.8c0,0,0,0,0,0s0,0,0,0C128.4,124,123.8,64.8,123.8,64.8z M4.2,64.6 C4.2,64.6,4.2,64.5,4.2,64.6c0-0.2,0-0.3,0-0.4C4.2,64.2,4.2,64.4,4.2,64.6z M120.9,69.5c-7.8,6.7-30.3,12-56.9,12 c-26.4,0-48.8-5.2-56.7-11.8c-0.2-3.2,0-5.2,0-5.3c0.1-1.6,3.5-5,15.6-7.9c10.8-2.6,25.4-4,41.2-4c7.7,0,14.6,0.3,20.7,0.9 c-0.5,0.7-1,1.4-1.5,2.1c-6-0.4-12.4-0.6-19.2-0.6c-28.9,0-52.3,4-52.3,9s24.4,9.9,53.3,9.9c2.9,0,5.8-0.1,8.5-0.1l0,0 c3.9-6.1,8.8-13.2,13.6-19.9c0.7-0.9,1.3-1.9,2-2.8c5.3-7.2,10.1-13.6,13-17c4.1-4.9,8.9-8,12.8-8.3c5.9-0.5,4.9,4.7,3.1,6.4 c-1.3,1.4-4.6,4.3-8.6,7.5c-4.1,3.3-9,7.4-14,12.2c0,0,0,0,0,0c-6.2,6-12.7,13.2-17.8,21.6l0,0.1c22.6-1.2,38.7-5.3,38.7-9.5 c0-2.9-8.1-5.5-20.6-7.1l1.7-1.7c15.5,2.6,23.4,6.8,23.4,9.5c0,0.2,0,0.5,0.1,0.8C120.9,65.9,121,67.4,120.9,69.5z"/>
</svg>