<svg viewBox="0 0 128 128" xmlns="http://www.w3.org/2000/svg">
  <path d="M106.3,39.8c-1.7,0.1-4.5,0.1-7.1,0c6.9-2.3,20.8-8.4,20.8-8.4l-1.4-2.5c0,0-2.9,1-4.5,1.8c-1.6,0.7-11.1,4.1-15.8,5.3 c-1.9,0.5-4.2,1.1-6.3,1.7c0.9-0.9,7.5-6.7,13.1-12.1c5.9-5.7,6.5-7,6.5-7s-2.3-1.4-2.7-1.8c-0.1-0.1-0.2-0.3-0.2-0.5 c0-0.3,0.2-0.7,0.2-0.7l-2.5-1.7c0,0-8.5,9.1-11.5,12c-2.1,2-3.9,4-5.4,5.6c0.3-1.4,0.6-2.8,1-4.1c0.4-1.2,0.8-2.5,1.4-3.7 c2.2-4.8,5.9-13.4,6.6-14.8C99.2,7.5,99,7.6,99,7.6S98.1,7,97.1,6.7c-0.6-0.2-1,0-1.4,0.1c-0.3,0.1-0.6,0.2-1,0.1 c-0.9-0.3-2.8-1-2.8-1s-1.5,2-3,7.4c-1.3,4.3-2.8,10-4.1,13.9c0.4-2.3,0.7-4.4,0.7-5.3C85.6,19.7,88,6,88,6s0.3-1.2-0.6-1.5 c-0.9-0.3-1.5,0.2-1.5,0.2s-0.8,2-1.2,6.1c-0.4,4.2-2.9,15.1-3.8,19.9c-0.2,1.2-0.5,2.3-0.8,3.3c-7.7-4-15.3-0.4-19.8,4.5 c-3.7,4-5.8,7-9.7,11.9c-3.9,4.9-4.9,8-8.8,12.1c-3.9,4-8.3,9.4-12.1,14.3c-3.7,4.9-6.1,10.7-9.8,15.6c-3.7,4.9-6.1,8.3-8.5,13.4 c-2.4,5.1-4.6,9.8-5.5,12.2c-0.9,2.4-0.2,5,2.4,5c2.6,0,4.9-2.1,11.3-6.1c2.4-1.5,5-3.2,7.5-4.9H27c0,0-0.2-0.4-0.6-0.9 c-0.4-0.6-0.9-1.3-1.5-1.9c-1.2-1.3-2.8-2.1-2.8-2.1V107c0,0,0.2,0,0.4-0.1c0.2,0,0.6-0.1,1,0c0.2,0,0.4,0.1,0.6,0.1 c0.2,0.1,0.4,0.1,0.6,0.3c0.2,0.1,0.4,0.2,0.6,0.4s0.4,0.3,0.6,0.5c0.2,0.2,0.3,0.4,0.5,0.6c0.2,0.2,0.3,0.4,0.4,0.6 c0.2,0.4,0.4,0.8,0.4,1.2c0.1,0.8-0.1,1.4-0.1,1.4c3.9-2.8,7.4-5.5,8.7-7.4c2.2-3.1,8.5-7.3,10.7-8.5c2.2-1.2,11.8-9.2,14-11.9 S68.1,76,72,73s11.8-10.6,13.2-12.3c1.5-1.8,5.1-5.7,5.4-8c0.2-1.6,1-5-1.2-9.3c0.1-0.1,0.3-0.1,0.4-0.2c2.6,0.3,11.1-0.9,16.1-1.2 c5.5-0.2,4.4-0.3,4.4-0.3l0.6-1.8C110.9,39.9,109.7,39.6,106.3,39.8z M15.1,119L15.1,119c-0.1,0-0.3-0.3-0.6-0.8s-0.8-1.1-1.4-1.6 c-1.1-1.1-2.5-1.8-2.5-1.8l0.1-0.1c0,0,0.1,0,0.3-0.1c0.2-0.1,0.6-0.1,0.9,0c0.4,0,0.8,0.1,1.2,0.3c0.2,0.1,0.4,0.2,0.6,0.3 c0.2,0.1,0.4,0.3,0.5,0.4c0.2,0.2,0.3,0.3,0.4,0.5c0.2,0.2,0.2,0.4,0.3,0.6c0.2,0.4,0.3,0.8,0.3,1.1C15.3,118.4,15.1,119,15.1,119z M34.7,98.8l-0.1,0.1c0,0-0.3-0.6-0.9-1.6c-0.6-0.9-1.5-2.1-2.5-3.1s-2.2-1.9-3.1-2.5c-0.9-0.6-1.6-0.9-1.6-0.9l0.1-0.2 c0,0,0.2,0,0.6,0c0.3,0,0.9,0.1,1.4,0.2c0.3,0.1,0.6,0.2,0.9,0.3c0.3,0.1,0.6,0.3,1,0.5c0.4,0.2,0.7,0.4,0.9,0.6 c0.3,0.2,0.6,0.5,0.9,0.8s0.5,0.6,0.8,0.9c0.3,0.3,0.4,0.6,0.6,0.9c0.4,0.6,0.7,1.3,0.8,1.8c0.2,0.6,0.2,1.1,0.3,1.4 C34.7,98.6,34.7,98.8,34.7,98.8z M47.7,55.7c0,0,0.7-0.2,1.6-0.2c0.2,0,0.5,0,0.8,0.1c0.3,0.1,0.5,0.1,0.8,0.2 c0.3,0.1,0.6,0.2,0.9,0.4s0.6,0.3,0.8,0.5c0.3,0.2,0.5,0.4,0.8,0.7c0.2,0.2,0.4,0.5,0.6,0.8s0.3,0.5,0.4,0.8 c0.1,0.3,0.2,0.5,0.2,0.8c0.1,0.2,0.1,0.5,0.1,0.7s0,0.4-0.1,0.5c0,0.3-0.1,0.5-0.1,0.5h-0.1c0,0,0-0.1-0.1-0.4 c0-0.1-0.1-0.3-0.2-0.4c-0.1-0.2-0.1-0.3-0.3-0.5c-0.4-0.8-1.1-1.6-2.1-2.3c-0.9-0.7-2-1.2-2.8-1.5c-0.8-0.3-1.3-0.5-1.3-0.5 L47.7,55.7z M48.9,80.6c0,0-0.4-0.5-1.1-1.2c-0.7-0.7-1.6-1.6-2.7-2.4c-1-0.8-2.2-1.4-3.1-1.8c-0.9-0.4-1.5-0.6-1.5-0.6v-0.1 c0,0,0.2-0.1,0.5-0.1c0.3-0.1,0.8-0.1,1.3,0c0.3,0,0.6,0.1,0.9,0.1s0.6,0.2,0.9,0.3c0.3,0.1,0.7,0.2,1,0.4c0.3,0.2,0.6,0.4,0.9,0.6 s0.6,0.5,0.8,0.7c0.3,0.2,0.5,0.5,0.7,0.8c0.4,0.5,0.8,1,1,1.5s0.4,0.9,0.4,1.2S49,80.5,48.9,80.6L48.9,80.6z M56.7,79.4l-0.1,0.1 c0,0-0.3-0.6-0.8-1.3c-0.5-0.8-1.2-1.8-2.1-2.6c-0.8-0.9-1.8-1.6-2.6-2.1c-0.8-0.5-1.3-0.8-1.3-0.8l0.1-0.1c0,0,0.2,0,0.5,0 s0.8,0,1.3,0.1c0.3,0,0.5,0.1,0.8,0.2c0.3,0.1,0.6,0.2,0.8,0.4s0.6,0.3,0.8,0.5c0.3,0.2,0.5,0.4,0.8,0.7c0.2,0.2,0.4,0.5,0.6,0.8 c0.2,0.2,0.4,0.6,0.5,0.8c0.3,0.6,0.5,1.1,0.6,1.6c0.1,0.5,0.2,0.9,0.2,1.2C56.8,79.2,56.7,79.4,56.7,79.4z M63.8,37.2 c0,0,0.2-0.1,0.4-0.1c0.2-0.1,0.7-0.1,1.1-0.1c0.4,0,0.9,0.1,1.5,0.3c0.2,0.1,0.5,0.2,0.8,0.3c0.2,0.1,0.5,0.3,0.7,0.4 c0.2,0.2,0.5,0.4,0.7,0.5c0.2,0.2,0.4,0.4,0.6,0.6c0.2,0.2,0.3,0.4,0.4,0.7c0.1,0.2,0.2,0.4,0.3,0.6c0.3,0.8,0.3,1.5,0.3,1.5 L70.5,42c0,0-0.3-0.4-0.8-1s-1.3-1.3-2.1-1.9c-0.8-0.6-1.7-1.1-2.5-1.4c-0.7-0.3-1.2-0.5-1.2-0.5H63.8z M71.6,69.4L71.6,69.4 c-0.1,0.1-0.4-0.4-0.9-1.2c-0.5-0.8-1.2-1.8-2.1-2.6c-0.9-0.9-1.8-1.6-2.6-2.1s-1.3-0.8-1.3-0.8l0.1-0.2c0,0,0.2,0,0.5,0 s0.8,0,1.3,0.2c0.3,0,0.5,0.1,0.8,0.2c0.3,0.1,0.6,0.2,0.8,0.4c0.3,0.2,0.6,0.3,0.8,0.5c0.3,0.2,0.5,0.4,0.8,0.7 c0.2,0.2,0.4,0.5,0.6,0.8c0.2,0.2,0.4,0.5,0.5,0.8c0.3,0.5,0.5,1.1,0.6,1.6c0.1,0.5,0.2,0.9,0.2,1.2C71.7,69.2,71.6,69.4,71.6,69.4z M75.1,58.8L75,58.9c0,0-0.1-0.2-0.2-0.5c-0.1-0.3-0.3-0.7-0.6-1.2c-0.5-1-1.5-2.1-2.6-3c-1.1-0.9-2.5-1.6-3.5-1.9 c-0.5-0.2-1-0.3-1.3-0.3c-0.3-0.1-0.5-0.1-0.5-0.1v-0.2c0,0,0.2-0.1,0.5-0.2c0.2,0,0.4-0.1,0.6-0.1c0.3,0,0.5,0,0.9,0 c0.3,0,0.6,0,1,0.1c0.3,0.1,0.7,0.2,1.1,0.3c0.3,0.1,0.8,0.3,1.1,0.5c0.4,0.2,0.7,0.5,1,0.7c0.3,0.3,0.6,0.6,0.9,0.9 c0.3,0.3,0.5,0.7,0.7,1c0.2,0.3,0.4,0.7,0.5,1c0.2,0.3,0.2,0.6,0.3,0.9c0.2,0.6,0.2,1.1,0.2,1.5C75.1,58.6,75.1,58.8,75.1,58.8z M83,60.1l-0.1,0.1c0,0-0.2-0.6-0.7-1.4s-1.1-1.9-2-2.8c-0.8-0.9-1.8-1.8-2.5-2.3c-0.8-0.5-1.3-0.9-1.3-0.9l0.1-0.1c0,0,0.2,0,0.5,0 s0.8,0.1,1.2,0.2c0.5,0.2,1,0.4,1.6,0.8c0.2,0.2,0.5,0.4,0.8,0.6c0.2,0.2,0.5,0.5,0.7,0.7c0.2,0.3,0.4,0.5,0.6,0.8 c0.2,0.3,0.3,0.6,0.5,0.9c0.3,0.6,0.5,1.2,0.6,1.7s0.1,1,0.1,1.3C83,59.9,83,60.1,83,60.1z M87.5,50.5c0,0-0.4-0.6-1.1-1.4 c-0.7-0.9-1.7-1.9-2.8-2.8c-1.1-0.9-2.3-1.7-3.3-2.1c-0.9-0.5-1.6-0.7-1.6-0.7l0.1-0.1c0,0,0.2,0,0.6-0.1c0.3,0,0.9,0,1.4,0.1 c0.6,0.1,1.2,0.3,1.9,0.6c0.3,0.2,0.7,0.3,1,0.5s0.6,0.4,1,0.7c0.3,0.3,0.6,0.5,0.8,0.8c0.3,0.3,0.5,0.6,0.7,0.9 c0.4,0.6,0.8,1.2,1,1.7s0.3,1,0.4,1.4c0,0.3,0.1,0.6,0.1,0.6L87.5,50.5z"/>
</svg>