<svg viewBox="0 0 128 128" xmlns="http://www.w3.org/2000/svg">
  <g>
    <path d="M80,83.2C78.2,83,77.9,85,78,86.4c0,0.2,0.1,0.5,0.2,0.7c0.3,0.4,0.8,0.5,1.3,0.4c0.5-0.1,0.8-0.4,1.2-0.8 c0.4-0.4,0.9-0.8,1.1-1.5c0.1-0.5,0-1-0.3-1.3C81.1,83.6,80.6,83.3,80,83.2z"/>
    <path d="M60.1,71.2c0.1,0,0.2,0.1,0.3,0.1h7.1c0.1,0,0.2,0,0.3-0.1c0.6-0.3,1-0.9,0.7-1.6c-0.3-0.7-1.7-2.7-4.5-2.7 c-2.8,0-4.2,2-4.5,2.7C59.2,70.3,59.5,70.9,60.1,71.2z"/>
    <path d="M53.9,50.7c-1.7-2-4.1-3.2-6.8-3.2c-1.4,0-2.8,0.3-3.9,1c-3.7,1.7-6.4,5.8-6.4,10.6c0,6.3,4.5,11.4,10.2,11.4 c5.6,0,10.2-5.1,10.2-11.4C57.1,55.8,55.9,52.8,53.9,50.7z M46.9,67.8c-3,0-5.6-2.1-6.8-5.1c1.7,2.1,4.2,3.4,7,3.4 c2.5,0,4.7-1,6.4-2.7C52.2,66,49.7,67.8,46.9,67.8z M47.1,63.9c-3.7,0-6.8-3.2-6.8-7.1c0-1.2,0.3-2.4,0.8-3.4 c1.4-1.9,3.5-3.2,5.8-3.2c2.9,0,5.4,1.9,6.7,4.7c0.1,0.6,0.2,1.2,0.2,1.8C53.8,60.7,50.8,63.9,47.1,63.9z"/>
    <path d="M84.9,48.4c-1.2-0.6-2.5-1-4-1c-2.7,0-5.1,1.2-6.8,3.2c-2,2.1-3.2,5-3.2,8.3c0,6.3,4.5,11.4,10.2,11.4 c5.6,0,10.2-5.1,10.2-11.4C91.2,54.2,88.6,50.1,84.9,48.4z M74.4,55c1.3-2.8,3.8-4.7,6.7-4.7c2.3,0,4.4,1.2,5.8,3.2 c0.5,1,0.8,2.2,0.8,3.4c0,3.9-3,7.1-6.8,7.1c-3.7,0-6.8-3.2-6.8-7.1C74.2,56.2,74.2,55.6,74.4,55z M81.1,67.8 c-2.8,0-5.2-1.8-6.5-4.4c1.6,1.7,3.9,2.7,6.4,2.7c2.8,0,5.3-1.3,7-3.4C86.7,65.7,84.1,67.8,81.1,67.8z"/>
    <path d="M87.1,74.5c-0.6-0.4-1.4-0.4-2.1-0.3c-1.9,0.2-3.6,1-5.3,1.9c-0.9,0.4-1.8,1-1.9,2c0,0.6,0.4,1.2,0.8,1.6 c2.7,2.7,5.9,2.3,8.3-0.5c0.6-0.7,1-1.5,1.1-2.3C88.2,75.9,87.8,75,87.1,74.5z"/>
    <path d="M42,73.6c-0.2-0.1-0.5-0.2-0.7-0.2c-0.5,0-0.9,0.5-1,0.9c-0.1,0.5,0,1,0.1,1.4c0.1,0.6,0.3,1.2,0.8,1.6 c0.4,0.4,0.9,0.5,1.3,0.4c0.5-0.1,1-0.4,1.3-0.9C44.9,75.5,43.2,74.2,42,73.6z"/>
    <path d="M55.5,85.7C55.5,85.7,55.5,85.7,55.5,85.7C55.4,85.7,55.4,85.7,55.5,85.7C55.4,85.7,55.5,85.7,55.5,85.7z"/>
    <path d="M72.6,85.7C72.6,85.7,72.6,85.7,72.6,85.7C72.5,85.7,72.5,85.7,72.6,85.7C72.5,85.7,72.6,85.7,72.6,85.7z"/>
    <path d="M64,75.2c-5.8,0-10.5,4.6-10.5,7.8c0,1.3,0.7,2.1,1.9,2.7c0.2-2.9,4-5.2,8.6-5.2s8.3,2.3,8.6,5.2c1.2-0.6,1.9-1.4,1.9-2.7 C74.5,79.8,69.8,75.2,64,75.2z"/>
    <path d="M120.4,104.6c-0.8-2.7-2.5-4.3-3.5-4.9c1.1-2.7,1.2-5,0.3-7c-1.2-2.5-3.5-3.7-4.8-4.2c0.3-4.8-0.9-7.8-3.6-8.4 c-0.7-0.2-1.5-0.1-2.2,0.1c-1.3,0.4-2.1,1.1-2.4,2.2c-0.5,1.8,0.6,3.7,1.1,4.4c0.1,1,0.8,6.1,0.7,7.6c-0.2,0.9-0.5,1.1-0.6,1.2 c-0.2,0.1-0.5,0-0.9-0.2c-0.1-6.1-1-10.5-2.5-13.1c0.4-3,0.7-6.1,1-9.2c3-1,5.7-2.9,7.4-5.6c-1.2,0.4-2.5,0.6-3.8,0.6 c-1.1,0-2.2-0.1-3.2-0.4c0.5-8.7,0.7-17.3,0.7-24.9c0-0.2,0.1-2.5-0.4-6c0.2,0,0.4,0,0.7,0c0.2,0,0.4,0,0.6,0 c2.3,0.2,4.5,1.5,5.8,3.4c-0.1-3.3-2.6-6.1-5.6-7.4c-0.9-0.4-1.7-0.6-2.4-0.8c-0.2-1-0.5-2.1-0.9-3.2c3.2-3.4,5.5-9.8,4.7-13 c0,0-0.8,1.9-2.3,3.9c-1.2,1.7-3,2.4-5.1,2.5c-5-9.2-14.8-18-34.6-18h0c-5.6,0-11.2,0.7-16.5,2.5c-1.8,0.6-3.6,1.4-5.3,2.3 c-1.6,0.8-3,2-4.5,2.9c-1.4-1.6-2.4-3.6-2.9-5.6c0.1,0.3-0.3,0.9-0.4,1.2c-0.2,0.5-0.4,1.1-0.5,1.7c-0.4,2-0.1,4,0.2,6 c-1.4,1.4-2.5,2.9-3.6,4.4c0,0,0,0,0,0c-0.2,0-0.4,0-0.6,0c-2.8,0-5.5-1.1-8.2-2.2c1.9,2.3,4.2,4.2,6.8,5.6 c-5.2,9.7-5.1,19.5-5.1,19.8c0,0.9,0,1.9,0,2.9c-2-0.2-3.9-0.7-5.6-1.7c0.8,2.7,3,4.8,5.6,5.8c0.2,10.4,0.7,21.9,2,32.6 c-1.5,2.6-2.4,7-2.5,13c-0.4,0.2-0.7,0.3-0.9,0.2c-0.1,0-0.4-0.2-0.6-1.1c-0.1-1.6,0.6-6.5,0.7-7.7c0.5-0.7,1.7-2.6,1.1-4.4 c-0.3-1-1.1-1.8-2.4-2.2c-0.8-0.2-1.5-0.3-2.2-0.1c-2.7,0.6-4,3.6-3.6,8.4c-1.2,0.5-3.6,1.7-4.8,4.2c-0.9,2-0.8,4.4,0.3,7 c-1,0.7-2.7,2.2-3.5,4.9c-1.1,3.8,0.1,8.5,3.5,13.8L10,124h1.5l0.8-4l0.1-0.7c0.4,0.3,1,0.6,1.9,0.8c0,0,0.1,0,0.1,0 c0.2,0,0.5-0.2,0.5-0.4c0.1-0.3-0.1-0.6-0.4-0.6c-1.5-0.3-1.9-1-2-1c0,0,0,0,0,0c0,0,0,0,0,0c-3.3-5.1-4.5-9.5-3.5-13 c0.8-2.9,3-4.2,3.4-4.5c0.1,0,0.2,0,0.3,0c0.7,0,1.8,0.1,2.4,0.7c0.4,0.4,0.5,0.9,0.4,1.5c-0.1,0.9-0.5,1.5-1.1,1.7 c-0.2,0.1-0.4,0.1-0.6,0.1c-0.8,0-1.8-0.4-2.4-1.1c-0.1-0.1-0.2-0.2-0.4-0.2c-0.1,0-0.3,0-0.4,0.1c-0.2,0.2-0.2,0.5,0,0.7 c0.5,0.5,1.1,0.9,1.8,1.2c0,0,0,0,0,0c-0.2,0.6-0.1,1.6,0.7,2.5c0.1,0.1,0.2,0.2,0.3,0.2c0,0,0.1,0,0.1,0c0.1,0,0.2,0,0.3-0.1 c0.2-0.2,0.2-0.5,0.1-0.7c-0.6-0.7-0.5-1.3-0.4-1.6c0.1,0,0.2,0,0.3,0c0.3,0,0.6,0,0.9-0.1c0.6-0.2,1.6-0.8,1.8-2.6 c0.1-1-0.1-1.8-0.7-2.4c-0.9-0.9-2.4-1-3.1-1h-0.1c0,0,0,0,0,0c-1.1-2.4-1.3-4.5-0.5-6.2c1.2-2.5,4-3.5,4.5-3.7 c0.2,0,1,0.1,1.5,0.6c0.3,0.4,0.5,0.9,0.4,1.6c-0.1,1.2-0.8,2.3-1.9,2.8c-0.3,0.1-0.6,0.2-0.9,0.2c-0.5,0-1-0.2-1.5-0.5 c-0.1-0.1-0.2-0.1-0.3-0.1c-0.2,0-0.3,0.1-0.4,0.2c-0.2,0.2-0.1,0.5,0.1,0.7c0.5,0.4,1,0.6,1.5,0.7c0,0,0,0,0,0l0.6,2 c0.3,0.6,0.7,1,0.8,1.1c0.1,0.1,0.2,0.1,0.4,0.1c0.1,0,0.2,0,0.3,0c0.3,0,0.5-0.1,0.8-0.2c0.6-0.4,0.8-1.1,0.6-1.8L18,95.1v0 c0.9-0.7,1.5-1.9,1.6-3.1c0.1-1-0.2-1.8-0.7-2.3c-0.6-0.6-1.3-0.8-1.8-0.9c0,0,0,0,0,0c-0.2-2.2-0.2-6.6,2.5-7.2 c0.2,0,0.3-0.1,0.5-0.1c0.3,0,0.6,0,0.9,0.2c0.8,0.3,1.3,0.7,1.5,1.2c0.3,1.1-0.6,2.6-1,3.2c-0.1,0.1-0.6,0.3-1.4,0.3 c-0.4,0-0.9-0.1-1.5-0.2c0,0-0.1,0-0.1,0c-0.2,0-0.4,0.1-0.5,0.4c-0.1,0.3,0.1,0.6,0.4,0.6c0.2,0,0.4,0.1,0.6,0.1 c0.5,0.1,0.9,0.1,1.2,0.1c0.5,0,0.8-0.1,1.1-0.1c0,0,0,0,0,0c-0.2,1.8-0.7,5.8-0.6,7.3c0,0,0,0,0,0.1c0.2,1.2,0.7,2,1.5,2.3 c0.2,0.1,0.4,0.1,0.7,0.1c1,0,1.8-0.7,1.9-0.8c0.1-0.1,0.2-0.2,0.2-0.4c0.2-9.9,2.1-13.3,3.8-14.4c0.5-0.4,1-0.6,1.6-0.6 c0.4,0,0.8,0.1,1.2,0.2c0.6,0.2,1,0.6,1.1,1c0.3,1.2-0.9,2.9-1.5,3.7h0c-0.2,0.1-0.5,0.1-0.9,0.1c-0.5,0-1-0.1-1.4-0.6 c-0.1-0.1-0.3-0.2-0.4-0.2c-0.1,0-0.2,0-0.3,0.1c-0.2,0.2-0.3,0.5-0.1,0.7c0.4,0.6,1,0.8,1.5,0.9c0.2,0,0.4,0.1,0.6,0.1 c0.2,0,0.3,0,0.5,0l-1.1,4c-0.1,0.4-0.7,2.5-0.6,2.5c-1.6,7.5-0.5,11.7,0.8,13.9c1,1.7,2.3,2.5,3,2.8c0,0,0,0,0,0 c-0.3,1-0.8,1.9-1.8,2.8c-0.2,0.2-0.2,0.5,0,0.7c0.1,0.1,0.2,0.1,0.4,0.1s0.3,0,0.4-0.1c1.1-0.7,2.7-5.4,3.2-7.2 c0,0,0.2-0.6,1.3-1.1c0.5-0.2,0.9-0.3,1.3-0.3c0.7,0,1.2,0.3,1.7,0.9c1.1,1.2,1.2,3.1,0.3,4.5c-5.2,8.1-13.6,11.4-14,11.6 c-0.1,0-0.5,0.1-1.2,0.1c-0.8,0-1.8-0.2-2.7-0.9c-0.1-0.1-0.2-0.1-0.3-0.1c-0.1,0-0.3,0.1-0.4,0.2c-0.2,0.2-0.2,0.5,0.1,0.7 c0.7,0.6,1.5,0.9,2.2,1c0.4,0.1,0.8,0.1,1.1,0.1c0.2,0,0.5,0,0.7,0c0,0,0,0,0,0l-0.1,0.7h78.4l-0.2-0.8c0,0,0,0,0,0 c0.2,0,0.4,0,0.7,0c0.3,0,0.7,0,1.1-0.1c0.7-0.1,1.5-0.5,2.2-1c0.2-0.2,0.3-0.5,0.1-0.7c-0.1-0.1-0.2-0.2-0.4-0.2 c-0.1,0-0.2,0-0.3,0.1c-0.9,0.7-1.9,0.9-2.7,0.9c-0.6,0-1.1-0.1-1.2-0.1c-0.4-0.1-8.8-3.4-14-11.6c-0.9-1.4-0.8-3.3,0.3-4.5 c0.5-0.6,1.1-0.9,1.7-0.9c0.4,0,0.8,0.1,1.3,0.3c1.1,0.5,1.3,1.1,1.3,1.1c0.6,1.8,2.2,6.4,3.2,7.1c0.1,0.1,0.2,0.2,0.4,0.2 c0.1,0,0.3,0,0.4-0.2c0.2-0.2,0.2-0.5,0-0.7c-1-0.9-1.4-1.9-1.8-2.8c0,0,0,0,0,0c0.7-0.3,1.9-1.1,3-2.8c1.3-2.2,2.4-6.4,0.8-13.9 c0.1,0-0.5-2.2-0.6-2.5l-1.2-4c0.2,0,0.3,0,0.5,0c0.2,0,0.4,0,0.6-0.1c0.5-0.1,1.1-0.4,1.5-0.9c0.2-0.2,0.1-0.5-0.1-0.7 c-0.1-0.1-0.2-0.1-0.3-0.1c-0.2,0-0.3,0.1-0.4,0.2c-0.4,0.5-0.9,0.6-1.4,0.6c-0.4,0-0.7-0.1-0.9-0.1h0c-0.6-0.7-1.8-2.5-1.5-3.7 c0.1-0.5,0.5-0.8,1.1-1c0.4-0.1,0.8-0.2,1.1-0.2v0c0.6,0,1.1,0.2,1.6,0.5c1.6,1.1,3.6,4.5,3.8,14.4c0,0.1,0.1,0.3,0.2,0.4 c0.1,0.1,1,0.8,1.9,0.8c0.2,0,0.4,0,0.7-0.1c0.8-0.3,1.3-1.1,1.5-2.3c0,0,0,0,0-0.1c0.1-1.4-0.4-5.4-0.6-7.3c0,0,0,0,0,0 c0.3,0.1,0.7,0.1,1.1,0.1c0.4,0,0.8,0,1.2-0.1c0.2,0,0.4-0.1,0.6-0.1c0.3-0.1,0.4-0.4,0.4-0.6c-0.1-0.2-0.3-0.4-0.5-0.4 c0,0-0.1,0-0.1,0c-0.6,0.2-1.1,0.2-1.5,0.2c-0.8,0-1.3-0.2-1.4-0.3c-0.4-0.6-1.3-2.1-1-3.2c0.2-0.6,0.7-1,1.5-1.2 c0.3-0.1,0.6-0.2,0.9-0.2c0.2,0,0.4,0,0.5,0.1c2.6,0.6,2.7,4.9,2.5,7.2c0,0,0,0,0,0c-0.5,0.1-1.3,0.3-1.8,0.9 c-0.5,0.6-0.8,1.4-0.7,2.4c0.1,1.2,0.7,2.4,1.6,3.1c0,0,0,0,0,0l-0.6,1.9c-0.2,0.6,0,1.4,0.6,1.8c0.2,0.2,0.5,0.2,0.8,0.2 c0.1,0,0.2,0,0.3,0c0.1,0,0.3-0.1,0.4-0.1c0.1,0,0.5-0.4,0.8-1.1l0.6-2c0,0,0,0,0,0c0.5-0.1,1.1-0.3,1.5-0.7 c0.2-0.2,0.2-0.5,0.1-0.7c-0.1-0.1-0.2-0.2-0.4-0.2c-0.1,0-0.2,0-0.3,0.1c-0.4,0.4-0.9,0.5-1.5,0.5c-0.3,0-0.6-0.1-0.9-0.2 c-1-0.5-1.8-1.5-1.9-2.8c0-0.7,0.1-1.2,0.4-1.6c0.5-0.5,1.3-0.6,1.5-0.6c0.5,0.1,3.3,1.1,4.5,3.6c0.8,1.7,0.6,3.8-0.5,6.2l0,0h-0.1 c-0.8,0-2.2,0.1-3.1,1c-0.6,0.6-0.8,1.4-0.7,2.3c0.2,1.8,1.2,2.4,1.8,2.6c0.3,0.1,0.6,0.2,0.9,0.2c0.1,0,0.2,0,0.3,0 c0.1,0.3,0.2,0.9-0.4,1.6c-0.2,0.2-0.2,0.6,0,0.7c0.1,0.1,0.2,0.1,0.3,0.1c0,0,0.1,0,0.1,0c0.1,0,0.2-0.1,0.3-0.2 c0.8-0.9,0.8-1.8,0.7-2.5c0,0,0,0,0,0c0.7-0.2,1.4-0.7,1.8-1.2c0.2-0.2,0.2-0.5,0-0.7c-0.1-0.1-0.2-0.1-0.4-0.1 c-0.1,0-0.3,0-0.4,0.2c-0.6,0.6-1.6,1.1-2.4,1.1c-0.2,0-0.4,0-0.6-0.1c-0.6-0.2-1-0.8-1.1-1.7c-0.1-0.7,0.1-1.2,0.4-1.5 c0.6-0.6,1.7-0.7,2.4-0.7c0.1,0,0.2,0,0.3,0c0.4,0.2,2.6,1.6,3.4,4.5c1,3.5-0.2,7.8-3.5,13c0,0,0,0,0,0l0,0c0,0-0.5,0.7-2,1 c-0.3,0.1-0.5,0.3-0.4,0.6c0,0.2,0.3,0.4,0.5,0.4c0,0,0.1,0,0.1,0c0.9-0.2,1.5-0.5,1.9-0.8l0.1,0.7l0.8,4h1.5l-1.1-5.5 C120.3,113.1,121.5,108.4,120.4,104.6z M17.6,98.1c-0.1,0.1-0.2,0.1-0.4,0.1c0,0-0.1,0-0.1,0l-0.1,0c-0.1-0.1-0.3-0.3-0.5-0.7 l-0.6-1.9c0.4,0,0.7-0.1,1.1-0.2c0.1,0,0.1-0.1,0.2-0.1l0,0.1l0.6,1.9C18,97.6,17.9,97.9,17.6,98.1z M71.1,100.1 c0,3.4-2.8,6.2-6.3,6.2h-1.7c-3.5,0-6.3-2.8-6.3-6.2v-5c2.5,0.8,4.9,1.2,7.1,1.2c2.2,0,4.6-0.4,7.1-1.2V100.1z M94.2,60.6l-0.5,6.8 c-3.6,14-13.7,22.3-22.5,25.5c-2.5,0.9-5,1.4-7.2,1.4c-2.2,0-4.7-0.5-7.2-1.4c-8.7-3.1-18.4-11.1-22.3-24.6 c-0.1-2.8-0.2-5.4-0.3-7.6c-0.1-2.9-0.9-13.7,5.2-15.1c1.4-0.3,2.7-0.6,4-1c0.4,0.6,1,1.1,1.7,1.3c0.6,0.1,1.3,0,1.9-0.2 c1-0.3,2.1-0.8,2.7-1.7c0.3-0.4,0.5-1,0.5-1.5c15.6-5.6,24.2-13.7,24.2-13.7c3.3,7.2,13.6,14.2,17.3,16.9 C94.7,47.8,94.3,56.8,94.2,60.6z M110.2,97.2l0.6-1.9l0-0.1c0.1,0,0.2,0.1,0.2,0.1c0.3,0.1,0.7,0.2,1.1,0.2l-0.6,1.9 c-0.2,0.4-0.4,0.6-0.5,0.7c0,0-0.1,0-0.1,0c0,0-0.1,0-0.1,0c-0.1,0-0.3,0-0.4-0.1C110.1,97.9,110,97.6,110.2,97.2z"/>
    <path d="M111.2,109.8c-0.2,0-4.6,1.2-4.7,8.2c0,0.3,0.3,0.6,0.6,0.6h0c0.3,0,0.6-0.3,0.6-0.6c0.1-6,3.8-7,3.8-7 c0.3-0.1,0.5-0.4,0.4-0.7C111.9,109.9,111.6,109.7,111.2,109.8z"/>
    <path d="M20.9,118.5c0.3,0,0.6-0.3,0.6-0.6c-0.1-7-4.5-8.1-4.7-8.2c-0.3-0.1-0.6,0.1-0.7,0.4c-0.1,0.3,0.1,0.6,0.4,0.7 c0,0,3.8,1,3.8,7C20.3,118.3,20.6,118.5,20.9,118.5L20.9,118.5z"/>
  </g>
</svg>