<svg viewBox="0 0 128 128" xmlns="http://www.w3.org/2000/svg">
  <g>
    <path d="M36.1,94.7c-1.1,1-2,2.3-2.6,3.9c-1.5,4.4,0.3,9.2,4.1,10.7c0.8,0.3,1.5,0.5,2.3,0.5c3.1,0,6-2.2,7.2-5.7 c0.3-1,0.5-1.9,0.5-2.9c0.6,0.5,1.2,0.9,2,1.2c0.9,0.3,1.8,0.5,2.7,0.5c3.5,0,7-2.6,8.4-6.7c0.7-2.1,0.8-4.2,0.3-6.1 c0.8,0.3,1.6,0.4,2.5,0.4c3.8,0,7.5-2.8,9-7.2c1.2-3.6,0.7-7.3-1.1-10c3.2-0.3,6-2.3,6-2.3s-1-3.4-3.3-5.7 c-0.8-0.8-1.6-1.4-2.7-1.8c-0.3-0.1-0.5-0.2-0.8-0.2c0.9-3,0.6-6,0.6-6s0,0,0,0c0,0,0,0,0,0s0,0-0.1,0c-0.3,0-1.3,0-2.6,0.3 c-0.1,0-0.1,0-0.2,0c-0.1,0-0.2,0.1-0.3,0.1c-0.1,0-0.2,0-0.3,0.1c-0.1,0-0.2,0.1-0.3,0.1c-0.1,0-0.2,0.1-0.3,0.1 c-0.1,0-0.2,0.1-0.3,0.1c-0.1,0-0.3,0.1-0.4,0.2c-0.1,0-0.2,0.1-0.2,0.1c-0.1,0.1-0.3,0.1-0.4,0.2c-0.1,0-0.1,0.1-0.2,0.1 c-0.2,0.1-0.3,0.2-0.5,0.3c0,0-0.1,0.1-0.1,0.1c-0.2,0.1-0.4,0.3-0.5,0.4c0,0,0,0-0.1,0c-0.4,0.3-0.8,0.7-1.2,1.1 c0,0.1-0.1,0.1-0.1,0.2c0,0-0.1-0.1-0.1-0.2c0,0,0,0,0,0c3.1-5.7,4.5-10.6,4.7-13c0.1-0.7-0.3-1.4-0.7-1.4l-3.1-0.3c0,0,0,0-0.1,0 c0,0,0,0,0,0c0,0,0,0,0,0c-0.1,0-0.2,0-0.2,0.1c0,0-0.1,0-0.1,0.1c0,0-0.1,0.1-0.1,0.1C63.1,45.9,63,46,63,46.1c0,0,0,0,0,0 c-0.1,0.1-0.1,0.2-0.1,0.4c-0.5,3.1-1.3,5.9-2.2,8.5c-0.6-0.2-1.2-0.3-1.8-0.4c0.1-0.3,0.1-0.6,0.2-1c0.6-4.9-3.2-9.3-3.2-9.3 s0,0,0,0c0,0,0,0,0,0S51.2,48,50.7,53c-0.1,0.6-0.1,1.1,0,1.7c-0.6-1.3-1.5-2.4-2.6-3.1c-0.9-0.5-2-0.8-3-0.8c-0.2,0-0.5,0-0.7,0 c-0.1,0-0.2,0-0.3,0c-0.1,0-0.2,0-0.4,0c-0.1,0-0.2,0-0.4,0.1c-0.1,0-0.1,0-0.2,0c-2.3,0.5-4.3,1.6-4.3,1.6s0.2,2.7,1.3,5.2 c0.1,0,0.1,0,0.2,0c-3,0.9-5.7,3.4-6.9,7c-1.7,4.9-0.2,10,3.3,12.6c-2,1.1-3.6,3-4.5,5.5C30.6,87.7,32.4,92.7,36.1,94.7z M44.3,103 c-0.7,2.2-2.5,3.7-4.4,3.7c-0.4,0-0.8-0.1-1.2-0.2c-2.2-0.9-3.3-4.1-2.3-6.9c0.7-2.2,2.5-3.7,4.4-3.7c0.4,0,0.8,0.1,1.2,0.2 C44.2,97,45.2,100.1,44.3,103z M44.2,93.9C44.2,93.9,44.2,93.9,44.2,93.9C44.3,93.9,44.3,93.9,44.2,93.9 C44.2,94,44.2,93.9,44.2,93.9z M57.8,95.1c-1,2.8-3.2,4.6-5.5,4.6c-0.5,0-1.1-0.1-1.6-0.3c-2.8-1.1-4.2-5.1-3-8.7 c1-2.8,3.2-4.6,5.5-4.6c0.5,0,1.1,0.1,1.6,0.3C57.7,87.6,59,91.6,57.8,95.1z M59.2,81.4c0.8,1.5,1.9,2.7,2.7,3.5 c0.7,0.7,1.2,1,1.2,1s5.1-4.3,5.1-9.4c0-1.2-0.3-2.3-0.7-3.4c2.4,1.8,3.4,5.5,2.2,9c-1,3.1-3.5,5.2-6.2,5.2c-0.6,0-1.2-0.1-1.8-0.3 c-1.7-0.7-3-2.3-3.5-4.3C58.5,82.3,58.8,81.9,59.2,81.4z M52.3,65.8c0.2,0,0.4,0,0.6,0.1c-2.8,2.7-4,7-4,7s0,0,0,0c0,0,0,0,0,0 s3.9,2.2,7.6,1.2c-0.4,0.7-0.8,1.5-1.1,2.3c-0.6,1.7-0.8,3.4-0.6,5.1c-1.1,0.8-2.4,1.2-3.7,1.2c-0.7,0-1.4-0.1-2-0.4 c-0.6-0.3-1.2-0.6-1.7-1.1c-0.5-1-1.1-2-1.9-2.7c0-0.1-0.1-0.1-0.1-0.2c-0.8-2.1-0.8-4.5,0-6.7C46.5,68.2,49.3,65.8,52.3,65.8z M36.3,65.8c1.1-3.2,3.7-5.3,6.4-5.3c0.6,0,1.3,0.1,1.9,0.4c1.4,0.6,2.5,1.8,3.2,3.3c0.1-0.1,0.3-0.1,0.5-0.2 c-2.5,1.2-4.7,3.6-5.8,6.8c-0.6,1.8-0.8,3.7-0.7,5.5c0,0,0-0.1,0-0.1c-0.1,0-0.1,0-0.2,0c-0.6,0-1.3-0.1-1.9-0.4 C36.5,74.4,34.9,69.8,36.3,65.8z M35.1,83.9c0.9-2.7,3-4.5,5.3-4.5c0.5,0,1,0.1,1.5,0.3c0.4,0.2,0.7,0.4,1.1,0.6 c0.5,1,1.1,1.9,1.8,2.6c0.5,1.5,0.6,3.4,0,5.1c-0.9,2.7-3.1,4.5-5.3,4.5c-0.5,0-1-0.1-1.5-0.3C35.2,91.2,33.9,87.4,35.1,83.9z"/>
    <path d="M103.8,5L89.9,5.1c-0.2,0-0.5,0-0.7,0c-0.3-0.5-0.8-0.8-1.4-0.8c-0.1,0-0.1,0-0.2,0c-1.1,0-2.5,0.2-4,0.8 c-1.7,0.7-2.9,1.9-3.7,2.8c-0.2,0.3-0.4,0.7-0.3,1c0,0,0,0,0,0C79,9.5,78.4,10.2,78,11c0,0.1-0.1,0.1-0.1,0.2l-8.6,25.4 c0,0,1.2,0.5,3.3,0.5c0.5,0,1.2,0,1.8-0.1l0.6-1.9c0.6,0.4,0.9,0.9,0.9,1.4c-0.1,1.2-2.2,2.1-4.8,1.9s-4.6-1.2-4.5-2.5 c0.1-1,1.6-1.8,3.6-1.9l0.4-1.1l-31.3-5.3l3.7-1.4L71.1,31l1.6-4.8l-24.2-3.9c-0.7-0.1-1.3,0-2,0.2l-7.6,3l0,0l-0.5,0.2l0.3-0.1 l-11.5,4.5c-0.6,0.2-1,0.4-1.5,0.6l-1.2,0.5c-1.1,0.4-1.9,1.3-2.3,2.4c-0.5,1-0.2,1.9-0.2,2l0.9,76.2c0,1.9,1.4,3.5,3.3,3.8L80,124 c0.2,0,0.4,0,0.6,0c0.1,0,0.3,0,0.4,0c0,0,0,0,0,0c0.4,0,1-0.2,1.9-0.6l20.9-8.9c0.5-0.2,0.8-0.7,0.8-1.2l0,0l0,0l-1-79.5 c0,0,0,0,0,0l0-0.3l-4.1,20.3c-0.2,0.9-0.9,1.6-1.7,1.9c-0.2,0.1-0.5,0.1-0.8,0.1c-0.6,0-1.2-0.2-1.7-0.7 c-0.1-0.1-8.1-8.3-10.4-10.8c-2.1-2.3-3.7-2.1-3.8-2.1c-0.3,0-0.5-0.2-0.6-0.4c0-0.3,0.2-0.5,0.4-0.6c0.1,0,2.2-0.3,4.7,2.4 c2.3,2.5,10.2,10.7,10.3,10.8c0.3,0.3,0.8,0.4,1.3,0.4l-3.7-16.4c-0.2-0.9-1-1.6-2-1.8l-16.1-2.7l0.6-1.9l15.8,2.7 c1.7,0.3,3.2,1.6,3.6,3.3l3.3,14.5l4-19.6c0-0.2,0.3-0.4,0.5-0.4c-0.1-0.1-0.1-0.1-0.2-0.2c-0.5-0.7-1.1-1.1-1.9-1.3l-23.4-3.7 l4.5-13.6c0.2-0.3,0.5-0.7,0.7-0.9c0,0,0,0,0,0c0.1,0,0.3,0.1,0.4,0.1c0.4,0,0.8-0.2,1.2-0.5c0.4-0.4,1-0.9,1.8-1.2 c0.7-0.3,1.4-0.4,1.9-0.5c0.4,0,0.7-0.2,0.9-0.5c0.1,0,0.2,0,0.2,0l13.9-0.1c0.1,0,0.2,0,0.3,0c1.2,0,2.3-0.9,2.4-2.2 C106.1,6.4,105.1,5.2,103.8,5z M80.1,42.1C80.1,42.1,80.1,42.1,80.1,42.1L80,121.9l-53.3-8.3c-0.9-0.1-1.6-0.9-1.6-1.9l-0.9-76.9 c0-0.8,0.5-1.5,1.2-1.8l0.7-0.3l54.1,8.4L80.1,42.1z M82.1,12.1L82.1,12.1c-0.3,0.2-0.6,0.5-0.8,0.9c0,0.1-0.1,0.1-0.1,0.2l-7.6,23 c-0.4,0-0.7,0-1.1,0c-0.9,0-1.6-0.1-2.1-0.2l8.2-24.3c0,0,0,0,0-0.1c0.4-0.6,0.8-1.2,1.2-1.7c0,0,0,0,0,0c0,0,0,0.1,0.1,0.1 L82.1,12.1c0,0,0.1,0.1,0.1,0.1C82.2,12.1,82.2,12.1,82.1,12.1z M88,9.4c-0.7,0.1-1.4,0.3-2.1,0.5c-0.8,0.3-1.5,0.8-2.1,1.4 c-0.1,0.1-0.3,0.2-0.5,0.2c-0.2,0-0.3-0.1-0.4-0.2l-2-2.1c-0.2-0.2-0.2-0.6,0-0.8C81.4,7.7,82.5,6.6,84,6c1.4-0.6,2.8-0.7,3.7-0.7 h0.2c0.3,0,0.6,0.3,0.6,0.6l0.1,2.9C88.6,9.1,88.4,9.4,88,9.4z M105,7.6c-0.1,0.7-0.7,1.3-1.4,1.3c-0.1,0-0.1,0-0.2,0 c0,0-0.1,0-0.1,0h0L89.6,9c0-0.1,0-0.2,0-0.2l-0.1-2.6c0.1,0,0.2,0,0.3,0c0,0,0.1,0,0.1,0h0L103.7,6C104.5,6.1,105,6.8,105,7.6z"/>
    <path d="M87.6,5.4c-0.3,0-0.5,0.3-0.5,0.5l0.3,2.8c0,0.3,0.2,0.5,0.5,0.5c0,0,0,0,0,0c0.3,0,0.5-0.3,0.5-0.5l-0.3-2.8 C88.1,5.6,87.8,5.4,87.6,5.4z"/>
    <path d="M85.8,6.3C85.7,6,85.4,5.9,85.2,6c-0.3,0.1-0.4,0.4-0.3,0.6l0.8,2.7c0.1,0.2,0.3,0.4,0.5,0.4c0,0,0.1,0,0.1,0 c0.3-0.1,0.4-0.4,0.3-0.6L85.8,6.3z"/>
    <path d="M83.5,7.2c-0.2-0.2-0.5-0.3-0.7-0.1c-0.2,0.2-0.3,0.5-0.1,0.7l1.5,2.3c0.1,0.1,0.3,0.2,0.4,0.2c0.1,0,0.2,0,0.3-0.1 c0.2-0.2,0.3-0.5,0.1-0.7L83.5,7.2z"/>
    <path d="M82,8.5c-0.2-0.2-0.5-0.2-0.7,0c-0.2,0.2-0.2,0.5,0,0.7l1.8,1.9c0.1,0.1,0.2,0.2,0.4,0.2c0.1,0,0.2,0,0.3-0.1 c0.2-0.2,0.2-0.5,0-0.7L82,8.5z"/>
  </g>
</svg>