<svg viewBox="0 0 128 128" xmlns="http://www.w3.org/2000/svg">
  <path d="M112,12L112,12c0,0-12,0-12,0H80c-2.2,0-4,1.8-4,4v8c0,2.2,1.8,4,4,4h6.3c0.9,0,1.3,1.1,0.7,1.7l-9.5,9.5 c-0.8-0.6-1.7-1.1-2.5-1.6c-0.1-0.1-0.2-0.1-0.3-0.2c-0.8-0.5-1.7-0.9-2.5-1.3c-0.1-0.1-0.3-0.1-0.4-0.2c-0.8-0.4-1.7-0.8-2.6-1.1 c-0.1,0-0.2-0.1-0.4-0.1c-0.7-0.3-1.4-0.5-2.1-0.7c-0.3-0.1-0.6-0.2-0.9-0.3c-0.7-0.2-1.4-0.4-2.1-0.6c-0.4-0.1-0.9-0.2-1.3-0.3 c-0.4-0.1-0.7-0.1-1.1-0.2c-0.8-0.1-1.7-0.3-2.5-0.4c-0.2,0-0.4,0-0.6-0.1C56.8,32.1,55.4,32,54,32c-4,0-8,0.6-11.8,1.7 c0,0-0.1,0-0.1,0c-0.5,0.1-1,0.3-1.5,0.5c-0.2,0.1-0.3,0.1-0.5,0.2c-0.4,0.1-0.8,0.3-1.2,0.4c-0.3,0.1-0.5,0.2-0.8,0.3 c-0.3,0.1-0.7,0.3-1,0.4c-0.4,0.2-0.8,0.4-1.2,0.5c-0.2,0.1-0.4,0.2-0.6,0.3c-1.2,0.6-2.5,1.3-3.6,2c-0.1,0.1-0.2,0.1-0.3,0.2 c-0.5,0.3-1,0.6-1.5,1c-0.1,0.1-0.3,0.2-0.4,0.3c-0.4,0.3-0.9,0.6-1.3,1c-0.1,0.1-0.3,0.2-0.4,0.3c-0.4,0.3-0.8,0.7-1.2,1 c-0.1,0.1-0.3,0.2-0.4,0.4c-0.4,0.4-0.8,0.8-1.2,1.1c-0.1,0.1-0.2,0.2-0.4,0.3c-0.5,0.5-1,1-1.5,1.6C8.2,61.8,8.4,86.9,23.3,102.8 c7.8,8.3,18.1,12.6,28.6,13.1c0.1,0,0.1,0,0.2,0c0.6,0,1.2,0,1.8,0c0.1,0,0.1,0,0.2,0c0.2,0,0.4,0,0.6,0c0.4,0,0.7,0,1.1,0 c0.5,0,1-0.1,1.5-0.1c0.1,0,0.3,0,0.4,0c9.6-0.8,18.9-4.8,26.2-12.1c14.5-14.5,16.2-36.9,5.1-53.2l9.5-9.5c0.2-0.2,0.3-0.2,0.6-0.3 c0.5,0,1,0.4,1,1V48c0,2.2,1.8,4,4,4h0.1h7.9h0.1c2.2,0,4-1.8,4-4V16C116,13.8,114.2,12,112,12z M42.8,96.5 c-2.4-1.2-4.6-2.8-6.6-4.7c-9.8-9.8-9.8-25.8,0-35.6c3.1-3.1,6.7-5.2,10.6-6.3c8.6-2.5,18.2-0.4,25,6.3c9.8,9.8,9.8,25.8,0,35.6 C64,99.6,52.2,101.2,42.8,96.5z"/>
</svg>