<svg viewBox="0 0 128 128" xmlns="http://www.w3.org/2000/svg">
  <path d="M123.2,59.7c-0.2-2.8-0.4-5.5-1-8.2c-0.5-2.1-1.9-3.4-4.1-3.7c-3-0.4-6-0.8-9-1.2c-0.3,0-0.5-0.2-0.6-0.5 c-0.2-0.5-0.4-1-0.6-1.5c-0.1-0.2-0.1-0.4,0.1-0.6c1.9-2.4,3.7-4.8,5.6-7.3c1.4-1.8,1.4-3.7,0.2-5.5c-2.2-3.4-4.9-6.4-7.7-9.3 c-2.9-2.9-6-5.6-9.4-7.9c-1.9-1.3-3.8-1.2-5.6,0.2c-2.4,1.8-4.8,3.7-7.2,5.5C83.5,20,83.3,20,83,19.9c-0.5-0.2-1-0.4-1.5-0.6 c-0.2-0.1-0.4-0.2-0.4-0.5c-0.4-3.1-0.8-6.2-1.2-9.3c-0.2-1.8-1.7-3.4-3.4-3.8c-8-1.7-16.6-1.4-24.8-0.1c-2.2,0.4-3.4,2-3.7,4 c-0.4,3.1-0.8,6.2-1.2,9.2c0,0.1-0.1,0.3-0.2,0.3c-0.6,0.3-1.2,0.5-1.8,0.8c-0.1,0-0.4,0-0.5-0.1c-2.4-1.9-4.9-3.7-7.3-5.6 c-1.7-1.3-3.6-1.4-5.4-0.2c-3.4,2.2-6.5,4.9-9.4,7.7c-2.9,2.9-5.6,6-7.9,9.5c-1.2,1.9-1.1,3.8,0.2,5.6c1.9,2.4,3.7,4.8,5.6,7.2 c0.2,0.2,0.2,0.4,0.1,0.6c-0.2,0.5-0.5,1.1-0.7,1.6c-0.1,0.2-0.2,0.3-0.5,0.4c-1.8,0.2-3.7,0.5-5.5,0.7c-1.4,0.2-2.7,0.3-4.1,0.5 c-1.7,0.3-3.2,1.6-3.6,3.4c-0.5,2.4-0.8,4.8-1,7.2c-0.1,1.6,0,3.2-0.1,4.8c0,0.1,0.1,0.2,0.1,0.3v0.2c0,0.4-0.1,0.8-0.1,1.2 c0.1,3.6,0.3,7.2,1,10.7c0.5,2.4,1.8,3.6,4.2,3.9c3,0.4,6,0.8,9,1.2c0.2,0,0.3,0.1,0.4,0.3c0.2,0.5,0.4,1.1,0.6,1.6 c0.2,0.3,0.1,0.5-0.1,0.8c-1.9,2.4-3.7,4.8-5.6,7.2c-1.3,1.7-1.4,3.6-0.2,5.4c2.2,3.4,4.9,6.5,7.8,9.4c2.9,2.9,6,5.6,9.5,7.9 c1.9,1.2,3.8,1.2,5.6-0.2c2.4-1.9,4.8-3.7,7.2-5.6c0.2-0.2,0.4-0.2,0.7-0.1c0.5,0.2,1.1,0.4,1.7,0.7c0.1,0.1,0.3,0.2,0.3,0.4 c0.4,3.1,0.8,6.3,1.2,9.4c0.3,2,1.7,3.4,3.7,3.8c3.2,0.7,6.3,0.9,9.6,1.1c0.3,0,0.7,0.1,1,0.1h3.3c0.9,0,1.8-0.1,2.8-0.1 c2.7-0.2,5.4-0.4,8.1-1.1c1.8-0.4,3.2-1.9,3.4-3.8c0.4-3.1,0.8-6.3,1.2-9.4c0-0.1,0.1-0.3,0.2-0.3c0.6-0.3,1.2-0.5,1.8-0.8 c0.1-0.1,0.3,0,0.5,0.1c2.4,1.9,4.9,3.7,7.3,5.6c1.8,1.4,3.7,1.5,5.6,0.2c3.5-2.3,6.6-5,9.5-7.9c2.8-2.8,5.4-5.8,7.6-9.2 c1.3-2,1.2-3.8-0.2-5.7c-1.8-2.4-3.7-4.8-5.5-7.2c-0.2-0.2-0.2-0.4-0.1-0.7c0.2-0.5,0.5-1.1,0.7-1.6c0.1-0.2,0.2-0.3,0.4-0.4 c3.1-0.4,6.2-0.8,9.3-1.2c1.9-0.2,3.4-1.6,3.8-3.4c0.5-2.3,0.8-4.7,1-7.1C123.3,65.9,123.3,62.8,123.2,59.7z M64,83.2 c-10.7,0-19.4-8.7-19.4-19.5c0-10.7,8.7-19.4,19.4-19.4S83.4,53,83.4,63.7C83.4,74.5,74.7,83.2,64,83.2z"/>
</svg>