<svg viewBox="0 0 1200 890" xmlns="http://www.w3.org/2000/svg" xmlns:xlink="http://www.w3.org/1999/xlink">
  <g>
    <g>
      <path d="M529.8,23C461,12.7,391.9,4.9,322.3,1.3c0,41.8,0,83.7,0,125.5C389.5,88.2,459.8,55.9,529.8,23z" fill="#00247D"/>
      <path d="M600,172.1c0-30.4,0-60.8,0-91.2c-47.7,24.1-96.4,46.3-144.7,69.2C503.8,156.1,552,163.3,600,172.1z" fill="#00247D"/>
      <path d="M0,113.9c0,30.3,0,60.7,0,91c37.5-18.4,75.6-34.1,115.6-46.2C78.2,140.5,40,125.4,0,113.9z" fill="#00247D"/>
      <path d="M58.2,452c53-20.3,106.6-33.2,163.2-38.4c0-41.8,0-83.6,0-125.4C161.4,337.2,108.3,393,58.2,452z" fill="#00247D"/>
      <path d="M600,34.9L600,34.9L600,34.9z" fill="#00247D"/>
      <path d="M322.3,413c69.5,3.7,138.6,11.6,207.4,21.9c-67.2-51.8-137.2-99.7-207.4-147.4 C322.3,329.3,322.3,371.1,322.3,413z" fill="#00247D"/>
      <path d="M0,341.5c0,30.2,0,60.5,0,90.7c36.9-46.8,74.9-92.7,115.5-136.5C75.5,307.6,37.5,323.2,0,341.5z" fill="#00247D"/>
      <path d="M600,446.5L600,446.5L600,446.5z" fill="#00247D"/>
      <path d="M600,400.5c0-30.4,0-60.8,0-91.2c-48-8.7-96.3-15.9-144.7-21.9C505,323.2,553.7,360.2,600,400.5z" fill="#00247D"/>
      <path d="M221.4,2C164.9,7.3,111.5,20.6,58.7,41.3c57.3,23,110.7,53.1,162.8,86.2C221.4,85.6,221.4,43.8,221.4,2z" fill="#00247D"/>
      <path d="M322.3,138.5c2.3,0.1,3.4,0.2,5.8,0.3c73.2-41.5,150-75.8,225.9-112c15.3,2.5,30.7,5.2,46,8.1 c-23.3-4.4-46.8-8.2-70.2-11.9c-70,32.9-140.3,65.2-207.4,103.8C322.3,131.5,322.3,133.8,322.3,138.5z" fill="#FFFFFF"/>
      <path d="M378.1,142.2c25.8,2.2,51.5,4.9,77.2,7.9c48.3-22.9,97-45.1,144.7-69.2c0-15.3,0-30.7,0-46l0,0 C526.7,71.9,451.2,104.6,378.1,142.2z" fill="#FFFFFF"/>
      <path d="M221.4,139.2c0-4.7,0-7,0-11.7C169.4,94.4,116,64.3,58.7,41.3C38.8,49.5,19.3,58.4,0,67.9 c62,17.7,119.5,44.9,175.2,77.1C190.6,142.6,205.9,140.7,221.4,139.2z" fill="#FFFFFF"/>
      <path d="M135.2,153.4C91.7,130.8,47.2,112.1,0,98.6c0-10.2,0-20.4,0-30.7c0,15.3,0,30.7,0,46 c40,11.5,78.2,26.6,115.6,44.8C123.4,156.4,127.4,155.3,135.2,153.4z" fill="#FFFFFF"/>
      <path d="M115.5,295.7C74.9,339.4,36.9,385.3,0,432.2c0,15.2,0,30.5,0,45.7C54.3,409,110.9,342.1,175.1,282.1 C154.9,285.7,135.2,290.2,115.5,295.7z" fill="#FFFFFF"/>
      <path d="M429.5,284.4c58.6,41.4,116.3,84.2,170.5,131.4c0-6.1,0-9.2,0-15.3c-46.3-40.2-95-77.3-144.7-113.1 C445,286.1,439.8,285.5,429.5,284.4z" fill="#FFFFFF"/>
      <path d="M378.1,279.5c-18.6-1.5-37.2-2.7-55.8-3.7c0,4.7,0,7,0,11.7c70.2,47.6,140.2,95.6,207.4,147.4 c23.5,3.6,46.9,7.4,70.3,11.7l0,0C530,385.7,454.5,331.9,378.1,279.5z" fill="#FFFFFF"/>
      <path d="M221.4,276.4c-2,0.2-3,0.2-5,0.4C150.7,331.4,93.2,394.2,38.9,459.9c7.7-3.3,11.6-4.9,19.3-8 C108.3,393,161.4,337.1,221.4,288C221.4,283.4,221.4,281.1,221.4,276.4z" fill="#FFFFFF"/>
      <path d="M328.1,138.8c16.7,0.9,33.4,2,50.1,3.4c73-37.6,148.5-70.3,221.8-107.3l0,0c-15.3-2.9-30.6-5.5-46-8.1 C478.1,63,401.3,97.3,328.1,138.8z" fill="#CF142B"/>
      <path d="M135.2,153.4c13.2-3.3,26.5-6.1,39.9-8.4C119.5,112.8,62,85.6,0,67.9c0,10.2,0,20.4,0,30.7 C47.2,112.1,91.7,130.8,135.2,153.4z" fill="#CF142B"/>
      <path d="M216.4,276.8c-13.8,1.4-27.6,3-41.3,5.3C110.9,342.1,54.3,409,0,477.9c12.9-6.2,25.8-12.2,38.9-18 C93.2,394.2,150.7,331.4,216.4,276.8z" fill="#CF142B"/>
      <path d="M378.1,279.5C454.4,332,530,385.7,600,446.5l0,0c0-10.2,0-20.5,0-30.7c-54.2-47.1-111.8-90-170.5-131.4 C412.4,282.6,395.3,280.9,378.1,279.5z" fill="#CF142B"/>
      <path d="M300.9,247.5c0,54.9,0,109.8,0,164.7c8.5,0.3,12.8,0.4,21.5,0.8c0-45.7,0-91.5,0-137.2 c93.2,4.9,185.9,17,277.7,33.5c0-11,0-16.5,0-27.4C501.2,264,401.3,251.1,300.9,247.5z" fill="#FFFFFF"/>
      <path d="M221.4,276.4c0,45.7,0,91.4,0,137.2c7.6-0.6,11.4-0.9,19.1-1.2c0-54.9,0-109.7,0-164.6 c-85.3,5.1-163.9,29-240.5,66.4c0,10.9,0,16.4,0,27.3C70.6,307.1,143,283.8,221.4,276.4z" fill="#FFFFFF"/>
      <path d="M240.5,165.4c0-54.9,0-109.8,0-164.7C232.8,1.1,229,1.3,221.4,2c0,45.7,0,91.5,0,137.2 C142.9,146.7,70.6,170.3,0,204.9c0,10.9,0,16.4,0,27.3C76.6,194.7,155.1,170.6,240.5,165.4z" fill="#FFFFFF"/>
      <path d="M300.9,165.1c100.4,3.6,200.4,16.4,299.1,34.4c0-11,0-16.5,0-27.4c-91.8-16.7-184.5-28.7-277.7-33.5 c0-45.7,0-91.5,0-137.2c-8.7-0.4-13-0.6-21.5-0.8C300.9,55.4,300.9,110.3,300.9,165.1z" fill="#FFFFFF"/>
      <path d="M240.5,247.7c0,54.9,0,109.7,0,164.6c20.1-1,40.3-0.7,60.4-0.2c0-54.9,0-109.8,0-164.7 c100.4,3.6,200.3,16.5,299.1,34.4c0-27.4,0-54.9,0-82.3c-98.8-17.9-198.7-30.8-299.1-34.4c0-54.9,0-109.8,0-164.7 c-20.1-0.5-40.2-0.8-60.4,0.2c0,54.9,0,109.8,0,164.7C155.1,170.6,76.6,194.7,0,232.2c0,27.3,0,54.6,0,82 C76.6,276.8,155.2,252.9,240.5,247.7z" fill="#CF142B"/>
      <path d="M600,34.9c0,137.2,0,274.4,0,411.6c-108.5-19.3-219.5-35-330-34.8C174.6,411.9,85.5,436.5,0,478 c0,136.7,0,273.3,0,410c95.1-45.5,193.4-67.3,298.8-64.2c101,3,201.7,17.4,301.2,34.4c99.4,17,200.3,29,301.2,31.5 c106.2,2.6,204.3-16.8,298.8-66.4c0-274.4,0-548.8,0-823.3c-85.2,43.2-174.3,67.4-270,67.7C819.6,67.9,708.4,54.7,600,34.9z" fill="#00247D"/>
    </g>
    <path d="M823.1,499.4c-14.6,14-28.5,33.2-31.9,53.6c-3.4,17.4-12.4,74.6-42.4,51.4c-0.5,17.1,18.4,41,31.3,17.7 c-0.1,27.6,9.4,53.9,27.4,74.9c8,9.3,9,3.3,5.7-6.4c-6.4-18.5-4-40.1-11.3-59.2c17.3,17.1,29.8-5.7,28.4-22 c-17.2,11.6-32.2,2.5-32.5-18C795.6,562,802.1,521.8,823.1,499.4z" fill="#F7E017"/>
    <path d="M813.4,702.1c-1.4-0.1-3.5-1.7-6.2-4.8c-17.8-20.7-27.3-46.6-27.5-73.9c-4.9,7.6-12.6,10.5-19.5,7.4 c-3.5-1.6-6.4-4.7-8.4-8.9c-2.3-4.7-3.5-10.6-3.5-17.5c0-0.3,0-0.4,0-0.7c0.2,0.1,0.3,0.2,0.5,0.4c7.6,5.4,14.2,6.8,19.2,4.2 c16.5-8.7,19.7-38.7,22.8-55.4c3.7-20.2,17.4-39.7,32.1-53.8c5.7-5.4,8.6-8.2,14.2-13.6c-5.5,5.7-8.2,8.6-13.8,14.3 c-20.9,22.2-27.2,62.5-25.3,91.6c0.7,10.3,3.4,17.3,8.3,20.8c5.7,4.1,14.2,3,23.7-3.1c0.2-0.1,0.3-0.2,0.5-0.3c0,0.3,0,0.4,0,0.7 c0.7,9.2-0.8,21.2-9.1,26.4c-5.3,3.3-12.6,2.1-18.7-3.2c4.3,12,5.8,24.9,7.3,37.4c1,8.8,2,16.4,3.5,20.4c2.2,5.7,2.6,10.1,1.1,11.3 C814.3,702.1,813.9,702.2,813.4,702.1z M780.4,620.9c0,0.5,0,0.8,0,1.4c-0.1,27.5,9.4,53.7,27.3,74.5c4.4,5.1,6,4.7,6.5,4.3 c1-0.8,1-4.3-1.3-10.3c-1.6-4.1-2.5-11.8-3.6-20.6c-1.5-13-3.1-26.3-7.8-38.6c-0.3-0.6-0.4-0.9-0.6-1.6c0.5,0.4,0.7,0.7,1.2,1.1 c6.2,5.8,13.5,7.3,19.1,4c6.2-3.7,9.3-12.6,8.8-25c-9.5,6-18,6.9-23.9,2.8c-5.1-3.6-8.1-10.9-8.7-21.5 c-1.6-28.1,3.8-62.2,20.3-85.9c-12.4,13.2-22.6,29.9-26.2,47.6c-3.4,16.9-6.3,47.1-23.1,56c-5.1,2.7-11.7,1.3-19.3-3.9 c-0.1,9.2,2.6,20.6,11.4,24.9c6.7,3.2,14.6-0.1,19.3-8.1C780,621.5,780.1,621.3,780.4,620.9z"/>
    <path d="M804.8,278.5c1.4-9.5-1.1-22.5-7.6-29.9c-11.5-9.4-23.4-14.9-35-1.5c-13.7-10.5-22.4,20-37.6,13.6 c2.6,10.8,6.8,15.8,14.8,13.1c-7.5,9.1-1.7,20.8-9.9,29.8c17.3,11.2,27.8-7.2,26.7-22.6c6.9,8,17.5,8.6,23.3,1 c-9.5-4.6-9.6-14.5-5.7-23.4C784.8,237.3,806.5,263.1,804.8,278.5z" fill="#F7E017"/>
    <path d="M738.9,307.1c-2.9-0.3-6.1-1.4-9.5-3.1c-0.2-0.1-0.3-0.2-0.6-0.3c0.2-0.2,0.3-0.3,0.4-0.4c5-5,5.2-10.5,5.4-15.9 c0.2-4.6,0.3-9,3.4-12.8c-2.8,0.7-5.2,0.3-7.3-1.1c-2.9-2-5-6.1-6.6-12.7c-0.1-0.3-0.1-0.4-0.2-0.7c0.2,0.1,0.4,0.2,0.6,0.3 c7.6,3.5,13.4-2.2,18.9-7.7c5.8-5.8,11.3-11.3,18.6-6c11.2-11.7,25.6-9.6,35.3,1.7c7,8.1,8.8,19.8,7.7,30.3 c-0.6,5.9-0.9,8.9-1.4,14.9c0.3-6,0.5-9,0.8-15c0.7-9.8-2.6-21.3-12.3-25.5c-7.1-3-15.4-0.3-18.1,5.9c-2.4,5.6-3,11-1.6,15.1 c1.1,3.3,3.5,5.9,7.1,7.6c0.2,0.1,0.3,0.1,0.5,0.2c-0.1,0.2-0.2,0.3-0.3,0.4c-2.7,3.6-6.6,5.6-10.9,5.5c-4.4,0-8.8-2.2-12.2-5.8 c0.2,10.5-2.3,18.4-7.2,22.3C746.5,306.7,743,307.6,738.9,307.1z M730.1,303.6c7.8,3.8,14.3,3.8,18.8,0.1 c4.8-3.9,7.3-11.9,6.9-22.6c0-0.4,0-0.6,0-1c0.2,0.3,0.4,0.4,0.6,0.7c3.4,3.9,7.9,6.2,12.3,6.3c4,0,7.6-1.7,10.1-4.9 c-3.5-1.8-5.9-4.5-7.1-7.9c-1.5-4.4-0.9-10,1.6-15.8c2.9-6.7,11.3-9.4,18.9-6.3c6.4,2.6,10.7,8.7,12.2,16.9 c-0.6-8.2-3.2-16-7.6-20.2c-10.1-9.9-22.6-13.9-34.6-1.4c-0.1,0.1-0.1,0.1-0.2,0.2c-0.1-0.1-0.1-0.1-0.2-0.2 c-7-5.2-12.3,0.2-18,5.8c-5.5,5.5-11.2,11.2-18.9,8c1.5,5.9,3.5,9.7,6.1,11.5c2.2,1.5,4.8,1.7,8.1,0.6c0.7-0.2,1-0.3,1.7-0.6 c-0.5,0.5-0.8,0.8-1.3,1.3c-3.9,3.8-4.1,8.5-4.3,13.4C735.1,292.9,734.9,298.5,730.1,303.6z"/>
    <path d="M845.5,440c-22.8,13.1-57.7-1.2-60-28.8c-1.7-21.4,10.3-38,28.9-47.2c12.7-6.3,18,10.1,15.4,19.4 c11.7-5.3,13.8-19.8,8.6-30.4c17.9,3.4,30.9-16.5,34.9-30.9c-8.5,6.4-22.3,1.1-31.5-0.6c3.7-4.8,3.7-14.5,2.6-19.6 c-6.2,7.4-15.4,9.7-23.4,14.5c-14.6,8.8-23.6,21.5-32.4,35.9c5.5-22.4,10.6-44.9,15.3-67.5c0.4-2,0.7-4.1,1-6.2 c1.7-15.5-20-41.2-31-19.7c6.5,9.8,2.7,22.8,0.7,33.3c-3.6,23.6-5.8,48.4-13.4,71.1c-0.7-15.2-11.1-21.9-15.6-34.9 c-3.4,2.4-5.3,9.4-4.6,14.5c-4.2-6-18.7-0.8-23.9-9.7c-5,13.1,2.4,26.9,12.9,34.8c-5.5-0.2-6.9,7.6-12.9,6.9c6,9.6,15,17.8,26.2,20 c11.3,2.2,19.1,11.2,22.9,21.8C778.8,445.8,818.6,456.2,845.5,440z" fill="#337321"/>
    <path d="M811.9,448c-7.2-0.6-14.3-2.5-21-5.7c-11-5.3-20.9-14.3-25.2-25.5c-3.9-10.1-11.4-19.3-22.6-21.5 c-11.4-2.2-20.4-10.4-26.5-20.1c-0.2-0.3-0.3-0.4-0.5-0.7c0.3,0,0.4,0.1,0.7,0.1c3,0.4,4.8-1.5,6.6-3.4c1.5-1.5,3-3.1,5.2-3.4 c-10.1-8.1-17.1-21.8-12.1-34.7c0.1-0.2,0.1-0.3,0.2-0.6c0.1,0.2,0.2,0.3,0.3,0.6c2.8,4.7,8.3,5.3,13.5,5.9 c3.8,0.4,7.5,0.8,9.7,2.9c-0.3-4.9,1.4-11.4,4.9-13.8c0.2-0.1,0.2-0.2,0.4-0.3c0,0.2,0.1,0.3,0.1,0.6c0.9,4,3.1,6.9,5.7,10.2 c4.1,5.1,8.6,10.9,9.8,23.2c6.4-20.4,8.8-42.5,12-63.6c0.3-2.2,0.6-4.2,0.9-6c0.4-2.5,0.8-4.9,1.2-7.2c1.9-10.7,3.3-18.5-1.8-25.8 c-0.1-0.1-0.1-0.1-0.2-0.2c0-0.1,0.1-0.1,0.1-0.2c2.9-6.7,11.4-9.5,18.9-6.3c10,4.2,13.5,16.1,12.8,26.3c-0.2,2.1-0.5,4.2-1,6.3 c-4.4,21.7-9.4,43.4-14.6,65c10.5-16.5,21.8-30,39.6-38.1c5.7-2.6,10.7-5.1,15-10.2c0.2-0.2,0.2-0.3,0.4-0.5 c0.1,0.3,0.1,0.4,0.2,0.7c1.1,5.2,1.1,14.4-2.2,19.4c2.7,0.4,5.6,1,8.3,1.5c9.1,1.8,18.5,3.5,22.3-0.9c0.4-0.5,0.6-0.7,1-1.2 c-0.2,0.6-0.3,1-0.5,1.6c-4.4,15.6-16.5,32.6-34.6,31.3c2.6,5,3.2,11.6,1.7,17.4c-1.7,6.3-5.5,10.9-10.8,12.8 c-0.3,0.1-0.4,0.1-0.6,0.2c0.1-0.3,0.1-0.5,0.2-0.8c1.7-6.5,0.5-13.2-3.1-17.1c-3.1-3.4-7.5-4.1-11.9-1.8c-0.2,0.1-0.3,0.2-0.5,0.3 c-18.3,9.1-30.3,25.4-28.2,46.5c1,10.3,6.4,20,14.9,25.7c11.6,7.9,29,10.7,42.2,4c0.8-0.4,1.6-0.8,2.4-1.3 c11.6-6.5,23.1-13.2,34.4-20c-11.3,7.1-22.7,14-34.1,20.8c-0.8,0.5-1.6,0.9-2.4,1.3C834.5,446.1,821.9,449,811.9,448z M717.6,375.3 c5.9,9.2,14.6,17,25.5,19.1c11.5,2.2,19.2,11.7,23.2,22c4.3,11,14,19.8,24.8,25c13,6.3,28.1,7.6,42,3.4 c-13.6,0.5-21.8-0.7-32.7-7.2c-8.5-5.1-14.2-15.8-15.3-26.4c-2.1-21.5,9.9-38,28.6-47.3c0.2-0.1,0.3-0.2,0.5-0.3 c4.7-2.5,9.3-1.8,12.6,1.9c3.6,4,5,10.7,3.5,17.2c4.8-2,8.3-6.2,9.8-12.1s0.8-12.6-2-17.4c-0.2-0.3-0.3-0.4-0.4-0.7 c0.3,0,0.4,0.1,0.7,0.1c18.7,1.7,28-14.6,34.2-29.3c-4.4,3.5-12.9,2-21.9,0.2c-3-0.6-6-1.2-8.9-1.6c-0.3,0-0.4-0.1-0.7-0.1 c0.2-0.2,0.3-0.4,0.5-0.6c3.4-4.4,3.6-13.3,2.6-18.5c-4.3,4.9-9.2,7.4-14.8,9.9c-18.5,8.4-29.9,22.7-40.6,39.9 c-0.5,0.9-0.8,1.3-1.3,2.2c0.3-1,0.4-1.6,0.6-2.6c5.5-22.4,10.7-44.9,15.3-67.5c0.4-2.1,0.7-4.1,1-6.2c0.7-9.8-2.6-21.3-12.3-25.4 c-7.1-3-15.1-0.5-18,5.7c5.1,7.6,3.8,15.5,1.8,26.3c-0.4,2.3-0.8,4.6-1.2,7.1c-0.3,1.8-0.6,3.8-0.9,6c-3.2,21.6-5.3,44.5-12.5,65.2 c-0.2,0.6-0.3,0.9-0.5,1.4c0-0.7-0.1-1-0.1-1.6c-0.9-13.1-5.6-19-9.8-24.3c-2.4-3.1-4.7-6-5.7-10c-3.1,2.6-4.7,9.2-4.1,13.8 c0.1,0.6,0.1,0.8,0.2,1.4c-0.3-0.4-0.5-0.7-0.8-1.1c-1.8-2.5-5.7-3-9.9-3.4c-5-0.6-10.6-1.2-13.7-5.8c-4.5,12.8,2.8,26.1,13,33.7 c0.4,0.3,0.7,0.5,1.1,0.8c-0.5,0-0.7,0-1.2,0c-2.5-0.1-4.1,1.6-5.8,3.3C722.2,373.5,720.4,375.3,717.6,375.3z"/>
    <path d="M893.4,414.4c-7.3,25.6-27.1,57.8-54.2,66.2c-28.6,7-63.9,22.4-85.7,42.7c-2.1-0.8-4-1.9-5.4-3.2 c-9.3-11-8.9-27-0.3-38.3c16.5-14.3,32.3-20.9,53.7-24.6c16-2.8,32.6-4.3,44.2-17.1c-22.8,13.1-58.1-0.7-60-28.8 c34.9,13.7,66.9,0.8,90.4-26.6C882.3,394,888.9,403.8,893.4,414.4z" fill="#F7E017"/>
    <path d="M753.5,523.7c-0.1,0-0.1,0-0.2-0.1c-2.2-0.8-4.2-2-5.5-3.3c-3.7-3.5-6.5-10.2-7.1-17c-0.5-5.7,0.2-14.2,6.7-22 c17.7-15.4,35.6-22.5,58.7-25.5c13.3-1.7,27.3-4.7,37.4-14.4c-13.4,7-31.2,4.1-43-3.9c-8.7-5.9-14.2-15.8-15.3-26.4 c0-0.2,0-0.4-0.1-0.6c0.2,0.1,0.3,0.1,0.5,0.2c34.8,13.8,66.6,0.9,90-26.5c0.1-0.1,0.1-0.2,0.2-0.3c0.1,0.1,0.1,0.2,0.2,0.3 c6.5,9.5,13,19.3,17.5,30c0,0.1,0,0.1,0,0.2s0,0.1,0,0.2c-7.3,25.7-27.6,59.1-54.5,66.5c-27.6,7.6-63.8,22.4-85.6,42.6 C753.6,523.6,753.5,523.6,753.5,523.7z M847.5,438.3c-0.7,0.8-1.1,1.2-1.8,1.9c-12.1,10.2-23.9,14.4-39.5,16.4 c-22.9,3-40.7,10.1-58.3,25.3c-6.3,7.5-7,15.8-6.5,21.3c0.6,6.6,3.3,13,6.8,16.4c1.3,1.2,3,2.3,5.1,3.1c22-20.1,58.1-35,85.8-42.6 c26.5-7.3,46.7-40.3,54-65.8c-4.4-10.4-10.8-20-17.1-29.2c-11.6,15.3-29.1,27.7-48,31.1c-13.6,2.4-28.9,0.6-42-4.5 c1.2,10.1,6.6,19.5,14.8,25.1c12.3,8.3,31.1,11,44.6,2.7C846.2,439.1,846.6,438.8,847.5,438.3z"/>
    <path d="M823.1,499.4c-21.8,21.6-27.4,62.9-25.5,92c0.5,8.5,2.5,14.5,5.5,18.2c2.6-27.9,13.4-61.9,36.7-79.3 c30.7-23,54.8-58.1,64.7-95.1c-2.1-7.8-5.6-13.3-12.3-19C881.6,453.9,850,473.9,823.1,499.4z" fill="#337321"/>
    <path d="M803.4,610.5c-0.2-0.3-0.3-0.4-0.5-0.6c-3.2-4-5.2-10.3-5.6-18.5c-1-17,0.9-34.7,5.3-51.3c3.7-14.2,9.2-30.6,20.3-41l0,0 c6.5-6.2,13.5-12.1,20.3-17.7c22.1-18.5,39.3-37.7,48.9-65.4c0.1-0.2,0.1-0.3,0.1-0.5c0.1,0.1,0.2,0.2,0.3,0.3 c6.7,5.7,10.2,11.2,12.4,19.2c0,0.1,0,0.1,0,0.1c0,0.1,0,0.1,0,0.1c-9.9,37-34.1,72.5-64.9,95.3c-23.3,17.2-33.9,51.2-36.6,79 C803.5,610,803.5,610.2,803.4,610.5z M892.5,416.8c-9.7,27.6-27,46.7-49,65.3c-6.7,5.7-13.7,11.5-20.2,17.7l0,0 c-21.6,21.4-27.2,62.8-25.3,91.6c0.5,7.6,2.1,13.4,4.9,17.3c3-27.8,13.5-61.5,36.8-78.7c30.6-22.7,54.7-58,64.6-94.8 C902.2,427.5,898.8,422.2,892.5,416.8z"/>
    <path d="M882.5,396.5c-7.2,13.6-19.8,25.9-33.7,32.3c2.9-3.9,3.9-9.1,4-13.4c-20,7.7-48.3,5.3-67.4-4.1 c34.9,13.7,66.9,0.8,90.4-26.6C878.8,388.8,881.3,392.5,882.5,396.5z" fill="#316D3A"/>
    <path d="M847.7,429.7c0.4-0.5,0.5-0.7,0.9-1.2c2.3-3.1,3.6-7.3,3.9-12.5c-20.1,7.4-48.1,5.1-67.2-4.3c-2.7-1.5-4.1-2.2-6.9-3.7 c2.8,1.2,4.2,1.7,7.1,2.9c34.8,13.8,66.6,0.9,90.1-26.5c0.1-0.1,0.1-0.2,0.2-0.3c0.1,0.1,0.1,0.2,0.2,0.3c3.1,4.3,5.5,8,6.8,12 c0,0.1,0,0.1,0.1,0.2c0,0.1-0.1,0.1-0.1,0.2c-7.2,13.7-19.9,26-33.9,32.5C848.4,429.4,848.2,429.5,847.7,429.7z M853.2,414.8 c0,0.3,0,0.4,0,0.6c-0.2,5.1-1.3,9.2-3.3,12.5c13.3-6.6,25.3-18.3,32.3-31.5c-1.2-3.7-3.5-7.1-6.3-11.2 c-11.6,15.3-28.9,27.9-48,31.1c-9.4,1.6-18.2,1.3-25.6,0.1c15.8,3.1,35.1,4.8,50.5-1.4C852.9,414.9,853,414.9,853.2,414.8z"/>
    <path d="M747.6,481.7c-16.9,20.3-22.5,49.6,1.5,67.6c-3,17.6,15.1,24.4,14.5,40.7c8.4-6.2,9.1-18.5,8.1-27.9 c10.3,12.8,33.7,3.2,37.3,23.8c2.3-19.3-8.6-48.7-32-48.8c7.3-8.1,4.5-20.9-4.2-26.8c-0.5,14-15.4,17.5-24.9,9.8 C738.7,509.1,739.1,493,747.6,481.7z" fill="#337321"/>
    <path d="M763.2,590.7c0-0.3,0-0.4,0-0.7c0.2-8.7-3.4-13-7.3-17.7c-4.3-5.3-8.8-10.7-7.3-22.8c-9.1-6.9-15.2-18.1-16.5-29.2 c-1.7-14.3,4.6-28.9,15.1-39c2.5-2.5,3.7-3.8,6.2-6.3c-2.3,2.8-3.4,4.1-5.7,6.9c-6.3,7.6-7,15.8-6.5,21.4c0.6,6.6,3.3,13,6.8,16.4 c3.7,3.5,11,5.6,16.8,3.1c3.1-1.4,6.9-4.7,7.6-12.6c0-0.2,0-0.3,0-0.5c0.2,0.1,0.3,0.1,0.4,0.2c4.2,2.4,7.5,7.9,8.4,13.6 c0.8,5.1-0.5,9.8-3.4,13.1c8.2,0.2,16,4.8,22.1,13c7.6,10.3,10.8,23.6,9.3,36.3c-0.1,0.8-0.1,1.1-0.2,1.9c-0.2-0.8-0.3-1.2-0.4-1.9 c-1.9-10.5-11.3-14.4-20.5-15.8c-5.8-0.9-12.1-2.2-16-6.9c0.9,9.3-0.1,21.2-8.3,27.1C763.6,590.5,763.5,590.6,763.2,590.7z M744.2,486c-8.2,9.4-12.9,21.8-11.3,34.3c1.5,11,7.3,22,16.3,28.6c0.1,0.1,0.1,0.1,0.2,0.2c0,0.1,0,0.2,0,0.3 c-1.6,11.8,2.6,17,7,22.3c3.7,4.4,7.4,9,7.5,17.6c7.7-6.3,8.4-18,7.4-27.2c-0.1-0.5-0.1-0.8-0.1-1.3c0.3,0.4,0.4,0.6,0.7,1 c3.7,5.2,9.8,6.3,16.3,7.5c8.5,1.6,17.3,3.1,20.7,14.6c1-11.9-2.2-24.2-9.3-33.8c-6.1-8.4-14.2-12.9-22.5-12.7c-0.4,0-0.6,0-1,0 c0.3-0.3,0.5-0.5,0.8-0.8c3.3-3.2,4.7-7.9,3.9-13.1c-0.8-5.3-3.8-10.4-7.6-12.7c-0.8,7.9-4.7,11.3-7.9,12.7 c-6,2.7-13.6,0.4-17.5-3.2c-3.7-3.5-6.5-10.2-7.1-17C740.3,498.7,740.7,492.4,744.2,486z"/>
    <path d="M810.7,695c-3.1,1.9-2.9,6.8-1,10.2c2.7,8.7-1,20.9,10,24.7c3.8,1.2,6.7-1.4,8.1-6.5 c3.9-14.1-8.6-16.6-9.8-23.5C816.9,693,813.3,693.4,810.7,695z" fill="#F7E017"/>
    <path d="M821.1,730.6c-0.5,0-1-0.1-1.5-0.3c-8.5-2.7-8.7-9.8-8.8-16.1c-0.1-3.4-0.1-6.6-1.4-8.8c-1.3-2.1-1.8-4.7-1.4-6.9 c0.3-1.7,1.2-3.1,2.5-3.9l0,0c1.4-0.8,3.3-1.6,5.1-0.5c1.4,0.9,2.3,2.8,2.8,5.7c0.4,2.4,2.3,4.3,4.3,6.3c3.6,3.6,8.1,8.2,5.5,17.4 C826.8,728.4,824.3,730.8,821.1,730.6z M810.8,695.4c-1.1,0.7-1.9,1.9-2.1,3.4c-0.3,1.9,0.1,4.3,1.3,6.2c1.5,2.5,1.5,5.8,1.6,9.3 c0.1,6.2,0.2,12.7,8.2,15.2c3.5,1.1,6.3-1.2,7.7-6.2c2.5-8.7-1.6-12.9-5.3-16.5c-2.1-2.1-4.1-4.1-4.5-6.8c-0.4-2.6-1.3-4.3-2.4-5.1 C813.8,694,812,694.6,810.8,695.4z"/>
    <path d="M821.4,722.7c-4.2,2-8,5.1-6.2,21.6c0.7,6.9,0.4,23.3-4.6,23.1c3,2,9.5,4.5,12.1,0.5 c2.5,5.3,8.3,4.3,10.5-2c3,3.2,7.1-1.6,7.1-5.9c2.6,2.2,7.8-0.5,6.5-10.3c3.2,1.6,7.2-1,8.7-3.4c-4.6-1.4-16.3-9.9-19.1-16.2 C833.6,723.8,826.3,720.4,821.4,722.7z" fill="#F7E017"/>
    <path d="M827,771.8c-1.7-0.1-3.3-1.2-4.3-3.1c-2.8,3.5-8.9,1.4-12.2-0.8c-0.5-0.3-0.7-0.5-1.2-0.8c0.5,0,0.8,0,1.3,0 c0.7,0,1.3-0.3,1.8-1.1c2.8-3.8,3-16,2.4-21.6c-1.7-16.6,2.1-19.9,6.4-22l0,0c5.1-2.5,12.6,1.2,15.4,7.7c2.8,6.3,14.4,14.6,18.9,16 c0.2,0.1,0.3,0.1,0.5,0.2c-0.1,0.2-0.2,0.3-0.3,0.5c-1.5,2.4-5.3,4.9-8.5,3.7c0.7,6.7-1.6,9.2-2.7,10c-1.2,0.9-2.7,1.1-3.9,0.3 c-0.2,2.6-1.8,5.3-3.7,6.3c-1.3,0.6-2.5,0.5-3.6-0.4c-1.3,3.2-3.6,5.2-6,5.2C827.2,771.8,827.1,771.8,827,771.8z M822.8,767.2 c0.1,0.2,0.2,0.3,0.3,0.5c1,2.1,2.5,3.2,4.3,3.2c2.3,0,4.5-2,5.6-5.2c0.1-0.2,0.1-0.3,0.2-0.5c0.1,0.1,0.2,0.2,0.3,0.4 c1.2,1.2,2.4,1,3.2,0.6c1.9-0.9,3.4-3.7,3.4-6.2c0-0.3,0-0.4,0-0.7c0.2,0.2,0.3,0.3,0.5,0.4c1,0.9,2.5,0.9,3.7,0 c1-0.7,3.2-3.2,2.3-9.9c0-0.3-0.1-0.4-0.1-0.7c0.2,0.1,0.3,0.2,0.5,0.3c2.8,1.4,6.4-0.6,8-2.8c-4.9-1.8-16.1-10-18.8-16.2 c-2.7-6.1-9.7-9.6-14.6-7.3l0,0c-4.3,2.1-7.7,5.1-6,21.2c0.6,5.8,0.4,18.3-2.5,22.2c-0.4,0.5-0.8,0.9-1.3,1.1 c3.1,1.7,8.5,3.5,10.8,0C822.6,767.5,822.6,767.4,822.8,767.2z"/>
    <path d="M755.9,256.1c-0.2-0.2-0.3-0.3-0.6-0.5c2-3.4,4.2-6.3,6.5-8.8c0.2,0.3,0.3,0.4,0.5,0.6 C760.1,249.9,757.9,252.8,755.9,256.1z"/>
    <path d="M828.1,323c-0.1-0.3-0.2-0.4-0.3-0.7c2.9-1.8,7.3-2.2,14.1-1.2c0,0.3,0,0.5,0,0.8C835.3,320.9,830.9,321.2,828.1,323z"/>
    <path d="M822.5,768.2c-1.4-2.5-1.9-12.3-0.9-18c0.3,0.1,0.4,0.1,0.7,0.2c-1,5.9-0.4,15.3,0.8,17.4 C822.8,767.9,822.7,768,822.5,768.2z"/>
    <path d="M833.1,766.3c-2-2-6.1-8.9-6.8-15.1c0.3,0,0.4,0,0.7-0.1c0.7,5.9,4.7,12.7,6.5,14.5C833.3,765.9,833.2,766,833.1,766.3z"/>
    <path d="M840.2,760.4c-2.6-1.7-9.1-12.1-10.6-19c0.3-0.1,0.4-0.1,0.7-0.2c1.4,6.5,7.7,16.8,10.2,18.4 C840.4,760,840.3,760.1,840.2,760.4z"/>
    <path d="M846.8,750.1c-3.3-1.1-12.8-9.4-16.6-17.5c0.2-0.2,0.3-0.2,0.6-0.4c3.8,8,13,16.1,16.2,17.1 C846.9,749.6,846.8,749.8,846.8,750.1z"/>
    <path d="M1002.3,489.4c23.7,28.2,43.2,63.2,33.9,101.3c-3.2-19.9-14.8-47-34.6-55.6 C1001.8,519.8,1002,504.6,1002.3,489.4z" fill="#F7E017"/>
    <path d="M1036.1,592.1c-0.1-0.5-0.1-0.8-0.2-1.3c-3.2-19.6-15-46.6-34.4-55.3c-0.1,0-0.1,0-0.2-0.1c0-0.1,0-0.2,0-0.3 c0.2-15.5,0.4-31,0.6-46.5c0.2,0.2,0.3,0.3,0.4,0.5c24.5,27.4,43.2,64.2,34,101.7C1036.3,591.3,1036.2,591.6,1036.1,592.1z M1001.9,534.7c19.2,8.8,30.8,35.1,34.3,54.5c8.4-37.3-10.5-71.3-33.7-99C1002.3,505,1002.1,519.9,1001.9,534.7z"/>
    <path d="M932.1,466.9c24.3-0.3,48.4-1.6,72.6-4.3c0,41,0.3,82.4,0,123.1c-0.6,73.5-19.7,157.2-82.7,203.8 c-63.9-48.3-92-126.2-92.7-203.4c-0.4-40.6,0-82,0-123c19.5,1.4,39.1,2.4,58.7,3.1c0.1,6.4,0.6,16,6.4,25.7 C909.4,489.4,922.5,478.1,932.1,466.9z" fill="#337321"/>
    <path d="M922.1,790c-0.1,0-0.1-0.1-0.1-0.1c-26.7-19.8-47.5-46.3-63-75c-21.3-39.3-29.1-84-29.9-128.9c0-41.1,0-82.3,0-123.4 c19.8,1.3,39.5,2.5,59.3,3.1c0,0.2,0,0.2,0,0.4c0.1,4.9,0.2,15.1,6.2,25.3c14.9-2.7,27.7-13.7,37.4-24.9c0,0,0-0.1,0.1-0.1 c24.5-0.3,48.7-1.6,73-4.3c0,41.2,0,82.3,0,123.5c-0.6,44.2-6.9,89.1-25,129.5c-12.9,28.8-32.3,55.6-57.8,74.7 C922.1,789.9,922.1,789.9,922.1,790z M829.7,463.5c0,40.9,0,81.7,0,122.6c0.8,44.7,8.5,89.2,29.7,128.4 c15.4,28.5,36.1,54.8,62.6,74.6c25.3-19,44.7-45.7,57.5-74.3c18-40.2,24.2-85,24.9-129c0-40.9,0-81.8,0-122.7 c-24.1,2.6-48,4-72.2,4.3c-9.8,11.3-22.7,22.4-37.8,25c-0.1,0-0.1,0-0.2,0c0-0.1-0.1-0.1-0.1-0.2c-6.1-10.2-6.4-20.4-6.5-25.6 C868.4,465.8,849,464.8,829.7,463.5z"/>
    <path d="M1004.7,462.6c0,41,0.3,82.3,0,123.1c-0.2,28.4-2.8,56.9-9.7,84.7c-23.9-62.2-48.1-124.4-72.9-186.2 c-25.5,62.7-52.7,124.7-80.9,186.3c-8.2-27.5-11.5-56-11.8-84.4c-0.3-40.6,0-82,0-123C887.9,466.9,946.4,469,1004.7,462.6 L1004.7,462.6z" fill="#006EC7"/>
    <path d="M841.1,671.4c-0.1-0.3-0.2-0.5-0.3-0.9c-7.7-28-11.2-55.5-11.8-84.5c0-41.1,0-82.3,0-123.4c58.7,3.9,117.3,6,175.9-0.5 c0,41.2,0,82.3,0,123.5c-0.4,28.9-3.3,56.7-9.7,84.8c-0.1,0.3-0.1,0.5-0.2,0.9c-0.1-0.3-0.2-0.5-0.3-0.8 c-23.9-62-47.9-123.9-72.7-185.6C896.5,547.8,869.3,609.8,841.1,671.4z M922.1,483.3c0.1,0.3,0.2,0.4,0.3,0.7 c24.7,61.6,48.8,123.5,72.6,185.5c6.2-27.8,9-55.2,9.5-83.7c0-40.9,0-81.8,0-122.7c-58.2,6.3-116.3,4.3-174.6,0.5 c0,40.9,0,81.7,0,122.6c0.5,28.6,4,55.7,11.5,83.3C869.4,607.9,896.6,545.9,922.1,483.3z"/>
    <path d="M997.1,661.1c-1.2,5.7-3.5,15-5.2,20.8c-22.9-60.3-46.1-120.6-69.8-180.6c-24.4,60.8-50.3,120.9-77.2,180.6 c-2.1-5.7-4.8-14.9-6.3-20.6c29.1-64.1,57.2-128.7,83.5-194C947.7,531.7,972.5,596.3,997.1,661.1z" fill="#F7E017"/>
    <path d="M956,731.5c1.9,1.3,5.5,3.7,7.1,4.5c4.1-12.9,4.5-26.9,3.2-40.3c-2.8,12.8-16.3,14.4-22.3,24.5 c2.4,1.7,4.6,3.8,6.5,5.7c-6.1,8.3-13.8,16.6-23.1,21.3c0-32.6,0-65.2,0-97.8c0-6.9-1.7-12.6-1.7-18.3c0,0,0-15.7,0-20.2 s-0.7-11.2-3.7-11.2s-3.7,6.6-3.7,11.1s0,20.2,0,20.2c0,5.7-1.7,12.3-1.7,18.2c0,32.6,0,65.2,0,97.8c-3.8-12.7-19.6-13.5-25.8-24.8 c2.8-0.8,5.7-1,8.5-0.2c-3.3-16.2-14-21-22.8-32.7c-0.5,13-3.7,29.1,1.8,41.6c1.1-1.7,2.8-3.4,4.9-4.9c8.5,19.6,34.7,22,38.8,45.6 C930.9,756.7,946.3,746.2,956,731.5z" fill="#F7E017"/>
    <path d="M922,772.8c-0.1-0.3-0.1-0.5-0.2-0.9c-2.7-13.1-12.2-22.1-22.8-29c-6.7-4.4-13.2-9-15.9-16.1c-1.8,1.3-3.4,2.9-4.5,4.5 c-0.1,0.2-0.2,0.2-0.3,0.4c-0.1-0.2-0.1-0.3-0.2-0.5c-4.2-10.2-3-22.2-2.3-32.9c0.2-3.5,0.4-6.6,0.4-9c0-0.7,0-1,0-1.7 c0.2,0.6,0.4,0.9,0.6,1.5c0.9,2.2,3.1,4,5.8,6.2c8.5,6.6,14.7,15.7,16.9,26.6c0.1,0.3,0.1,0.4,0.1,0.7c-0.2-0.1-0.3-0.1-0.5-0.1 c-2.4-0.7-5.1-0.7-7.9,0.1c3.4,6.7,8.5,9.2,13.3,11.6c4.8,2.4,9.4,4.6,11.6,10.8c0-31.9,0-63.8,0-95.7c0-3,0.4-6.2,0.9-9.4 c0.4-3.1,0.8-6.1,0.8-8.9c0-8.1,0-12.1,0-20.2c0-3.5,0.4-11.6,4-11.6c3.7,0,4,8.9,4,11.6c0,8.1,0,12.1,0,20.2 c0,2.7,0.4,5.4,0.8,8.2c0.4,3.2,0.9,6.4,0.9,10c0,32.4,0,64.8,0,97.2c8.9-4.8,16.3-12.7,22.3-20.7c-1.9-1.9-4-3.8-6.2-5.4 c-0.1-0.1-0.2-0.1-0.3-0.2c0.1-0.2,0.1-0.2,0.2-0.4c1.7-4,5.3-6.3,9.1-8.7c5.1-3.3,10.8-7,13.1-15.7c0.2-0.6,0.2-0.9,0.4-1.5 c0.1,0.6,0.1,0.9,0.1,1.6c0.7,13.7,1,27.3-3.2,40.5c0,0.1-0.1,0.2-0.1,0.3c-0.1-0.1-0.1-0.1-0.2-0.1c-1.5-0.8-4.9-3.1-6.9-4.4 c-5.4,8.4-12.6,16.3-19.6,23.2c-6.3,6.3-11.8,11.8-14.1,16.8C922.2,772.3,922.1,772.5,922,772.8z M883.4,725.6 c0.1,0.2,0.1,0.3,0.1,0.4c2.5,7.2,9.1,11.8,15.8,16.2c10.5,6.9,19.9,15.8,22.9,28.7c2.6-4.9,7.9-10.3,13.9-16.3 c7-7,14.3-14.9,19.6-23.4c0.1-0.1,0.1-0.1,0.1-0.2c0.1,0.1,0.1,0.1,0.2,0.1c1.8,1.2,5.1,3.4,6.8,4.4c3.9-12.2,4.3-25.5,3.2-38.2 c-2.6,8-8.1,11.6-13,14.8c-3.6,2.3-7,4.5-8.7,8c2.3,1.6,4.3,3.6,6.3,5.5c0.1,0.1,0.2,0.2,0.3,0.3c-0.1,0.1-0.1,0.2-0.2,0.3 c-6.1,8.4-13.8,16.6-23.2,21.4c-0.2,0.1-0.2,0.1-0.4,0.2c0-32.8,0-65.6,0-98.3c0-3.5-0.5-6.8-0.9-9.9c-0.4-2.9-0.8-5.6-0.8-8.4 c0-8.1,0-12.1,0-20.2c0-5.2-0.9-10.8-3.4-10.8c-3.1,0-3.4,8.2-3.4,10.7c0,8.1,0,12.1,0,20.2c0,2.9-0.4,6-0.9,9 c-0.4,3.1-0.9,6.3-0.9,9.2c0,33.4,0,66.8,0,100.3c-0.2-0.9-0.4-1.4-0.6-2.3c-1.9-7.4-6.7-9.7-11.9-12.3 c-5.1-2.5-10.4-5.1-13.9-12.4c-0.1-0.2-0.1-0.3-0.2-0.5c0.2,0,0.3-0.1,0.4-0.1c2.9-0.8,5.6-0.9,8.1-0.3 c-2.2-10.4-8.3-19.1-16.5-25.5c-2.4-1.8-4.3-3.5-5.5-5.3c-0.1,2.2-0.2,4.8-0.4,7.7c-0.7,10.4-1.8,21.9,2,31.9 c1.2-1.6,2.8-3.2,4.7-4.5C883.2,725.7,883.2,725.7,883.4,725.6z"/>
    <path d="M922.1,650.5c9.6,0.1,20.1-2.3,29.9-2.8c1.6-0.1,3-3.6,3-7.8s-1.4-7.6-3-7.6c-9.8,0.1-20.4-2.1-29.9-2.2 c-10-0.1-21.1,2-31.4,1.9c-1.8,0-3.3,3.3-3.3,7.6s1.5,7.7,3.3,7.8C901,647.9,912,650.5,922.1,650.5z" fill="#F7E017"/>
    <path d="M922.1,651c-2.8,0-8.4-0.7-14.5-1.4c-6.5-0.8-13.3-1.6-16.9-1.8c-2-0.1-3.6-3.7-3.6-8.3c0-4.5,1.6-8.1,3.6-8 c3.6,0.1,10.4-0.4,16.9-0.9c6.1-0.5,11.7-1,14.5-1s8.4,0.6,14.2,1.2c6.1,0.6,12.4,1.1,15.7,1c1.8-0.1,3.3,3.5,3.3,8 s-1.5,8.2-3.3,8.2c-3.3,0.1-9.6,0.9-15.8,1.6C930.4,650.4,924.8,651,922.1,651z M922.1,630.5c-2.7,0-8.4,0.5-14.5,1 c-6.5,0.5-13.3,1-16.9,0.9c-1.6-0.1-3,3.3-3,7.2c0,4,1.3,7.4,3,7.4c3.6,0.1,10.4,1,16.9,1.8c6.1,0.7,11.7,1.4,14.5,1.4 c2.7,0,8.3-0.5,14.1-1.2c6.2-0.7,12.5-1.5,15.8-1.6c1.5,0,2.7-3.4,2.7-7.4s-1.2-7.3-2.7-7.2c-3.3,0.1-9.6-0.4-15.7-1 C930.4,631.1,924.8,630.5,922.1,630.5z"/>
    <path d="M918.4,610.4c-1.2-1.3-2.8-2.2-4.6-2.2c-3.9-0.1-7.1,3.7-7.1,8.4s3.2,8.6,7.1,8.7c3.9,0.1,7-3.8,7-8.5 c0-3.7,3.9-3.6,3.9,0c0,7.4-4.8,13.4-10.9,13.3c-6.1-0.1-11.1-6.2-11.1-13.6c0-7.4,5-13.2,11.1-13.2c1.8,0,3.5,0.6,5,1.5 C918.6,606.2,918.4,608.5,918.4,610.4z" fill="#F7E017"/>
    <path d="M913.7,630.6c-6.2-0.1-11.4-6.4-11.4-14s5.2-13.7,11.4-13.6c1.8,0,3.6,0.6,5.2,1.6c0.1,0.1,0.1,0.1,0.2,0.1 c0,0.4-0.1,0.6-0.1,0.9c-0.1,1.3-0.3,3.2-0.3,4.8c0,0.3,0,0.5,0,0.9c-0.2-0.2-0.3-0.3-0.5-0.5c-1.3-1.4-2.8-2.1-4.4-2.1 c-3.7-0.1-6.8,3.5-6.8,8s3.1,8.2,6.8,8.3s6.7-3.6,6.7-8.1c0-4.2,4.5-4.1,4.5,0C924.9,624.5,920,630.7,913.7,630.6z M913.7,603.8 c-5.9-0.1-10.8,5.6-10.8,12.8c0,7.1,4.9,13.1,10.8,13.2c5.9,0.1,10.6-5.7,10.6-12.9c0-0.7-0.2-1.3-0.5-1.8 c-0.3-0.4-0.7-0.6-1.1-0.6c-0.8,0-1.7,0.7-1.7,2.3c0,4.9-3.2,8.9-7.3,8.9c-4.1-0.1-7.4-4.1-7.4-9.1c0-4.9,3.3-8.9,7.4-8.8 c1.6,0,3.1,0.6,4.3,1.8c0-1.5,0.2-3,0.3-4.1c0-0.1,0-0.2,0-0.3C916.9,604.3,915.3,603.9,913.7,603.8z"/>
    <path d="M890.7,647.4c1.8,0.1,3.2-3.4,3.2-7.6c0-4.3-1.4-7.8-3.2-7.8" fill="#F7E017"/>
    <path d="M890.7,647.8c0-0.3,0-0.5,0-0.8c1.6,0.1,2.9-3.3,2.9-7.2c0-4-1.3-7.4-2.9-7.4c0-0.3,0-0.5,0-0.8c2,0.1,3.6,3.7,3.6,8.2 S892.7,647.9,890.7,647.8z"/>
    <path d="M893.4,647.5c1.8,0.1,3.2-3.4,3.2-7.6s-1.4-7.8-3.2-7.8" fill="#F7E017"/>
    <path d="M893.4,647.9c0-0.3,0-0.5,0-0.8c1.6,0,2.9-3.3,2.9-7.2c0-4-1.3-7.4-2.9-7.4c0-0.3,0-0.5,0-0.8c2,0.1,3.5,3.7,3.5,8.2 S895.4,647.9,893.4,647.9z"/>
    <path d="M910.6,649.5c2.1,0,3.8-4.1,3.8-9.3s-1.7-9.3-3.8-9.4" fill="#F7E017"/>
    <path d="M910.6,649.9c0-0.3,0-0.5,0-0.8c1.9,0,3.5-3.9,3.5-8.9s-1.6-8.9-3.5-9c0-0.3,0-0.5,0-0.8c2.3,0,4.1,4.3,4.1,9.8 C914.7,645.7,912.9,649.9,910.6,649.9z"/>
    <path d="M914.5,649.9c2.2,0,3.9-4.3,3.9-9.7s-1.8-9.8-3.9-9.8" fill="#F7E017"/>
    <path d="M914.5,650.3c0-0.3,0-0.5,0-0.8c2,0,3.6-4.2,3.6-9.3s-1.7-9.4-3.6-9.4c0-0.3,0-0.5,0-0.8c2.3,0,4.2,4.6,4.2,10.2 C918.8,645.8,916.9,650.4,914.5,650.3z"/>
    <path d="M927.6,650.1c2.2,0,3.9-4.4,3.9-9.9c0-5.4-1.8-9.9-3.9-9.9" fill="#F7E017"/>
    <path d="M927.6,650.5c0-0.3,0-0.5,0-0.8c2,0,3.6-4.2,3.6-9.5c0-5.1-1.6-9.5-3.6-9.5c0-0.3,0-0.5,0-0.8c2.3,0,4.2,4.6,4.2,10.3 C931.7,646,929.9,650.5,927.6,650.5z"/>
    <path d="M931.6,649.9c2.1,0,3.8-4.3,3.8-9.6s-1.7-9.5-3.8-9.5" fill="#F7E017"/>
    <path d="M931.6,650.3c0-0.3,0-0.5,0-0.8c1.9,0,3.5-4.2,3.5-9.1s-1.6-9.1-3.5-9.1c0-0.3,0-0.5,0-0.8c2.3,0,4.1,4.4,4.1,9.9 C935.7,645.8,933.8,650.3,931.6,650.3z"/>
    <path d="M949.2,647.9c1.7,0,3-3.6,3-8s-1.4-7.8-3-7.8" fill="#F7E017"/>
    <path d="M949.2,648.3c0-0.3,0-0.5,0-0.8c1.5,0,2.8-3.5,2.8-7.6s-1.3-7.4-2.8-7.4c0-0.3,0-0.5,0-0.8c1.9-0.1,3.3,3.5,3.3,8.2 S951.1,648.3,949.2,648.3z"/>
    <path d="M883.2,726.2c2.2-1.6,4.9-3.1,7.6-3.8" fill="#F7E017"/>
    <path d="M883.4,726.5c-0.1-0.3-0.2-0.4-0.3-0.7c1.7-1.3,4.5-3,7.7-3.8c0.1,0.3,0.1,0.5,0.1,0.8 C887.8,723.6,885.1,725.3,883.4,726.5z"/>
    <path d="M952.4,727.7c-0.6-0.6-1.2-1.2-1.9-1.9" fill="#F7E017"/>
    <path d="M952.2,728c-0.2-0.2-0.5-0.5-0.7-0.7c-0.4-0.4-0.8-0.7-1.2-1.1c0.1-0.3,0.2-0.4,0.4-0.7c0.4,0.4,0.8,0.8,1.1,1.1 c0.3,0.2,0.5,0.5,0.8,0.7C952.5,727.6,952.4,727.7,952.2,728z"/>
    <path d="M956,731.5c4.5-7,8.2-14.9,10.3-23.9" fill="#F7E017"/>
    <path d="M956.2,731.7c-0.2-0.2-0.3-0.3-0.4-0.5c5-7.9,8.4-15.7,10.2-23.8c0.2,0.1,0.3,0.1,0.5,0.2 C964.6,715.9,961.3,723.8,956.2,731.7z"/>
    <path d="M906.4,553.7c0-2.2,1.4-3.1,3-4.7c2-1.9,2.7-2.8,4.5-2.8c9,0.1,13.4,0.2,22.1,0.1c1.6,0,2,0.5,2,2.6 c0,13.5,0,27.1,0,40.6c0,2-0.4,2.6-2,2.6c-9.8,0.1-19.7,0-29.5-0.2c0-12.9,0-25.8,0-38.7" fill="#FFFFFF"/>
    <path d="M935.9,592.5c-9.9,0.1-19.9,0-29.8-0.2c0-13,0-26.1,0-39.1c0.1-1.9,1.2-2.8,2.5-4c0.2-0.2,0.4-0.4,0.7-0.6 c0.2-0.2,0.3-0.3,0.4-0.4c1.7-1.6,2.5-2.4,4.2-2.4c9,0.1,13.4,0.2,22.1,0.1c1.8,0,2.3,0.7,2.3,3c0,13.5,0,27.1,0,40.6 C938.2,591.8,937.6,592.5,935.9,592.5z M906.7,591.5c9.7,0.2,19.5,0.3,29.2,0.2c1.5,0,1.7-0.5,1.7-2.2c0-13.5,0-27.1,0-40.6 c0-1.9-0.3-2.2-1.7-2.2c-8.7,0.1-13.1,0-22.1-0.1c-1.5,0-2.2,0.7-3.8,2.3c-0.2,0.2-0.3,0.3-0.4,0.4c-0.2,0.2-0.5,0.4-0.7,0.6 c-1.3,1.2-2.2,2-2.2,3.8C906.7,566.3,906.7,578.9,906.7,591.5z"/>
    <path d="M930.5,595.7c2.9,0,2.4-0.1,4.3-2.9c2.1-2.9,1.9-2.6,1.9-5.3c0-12.4,0-24.8,0-37.2c0-1.9-0.4-2.5-1.8-2.5 c-8,0.1-12.1,0-20.4-0.1c-1.6,0-2.3,0.8-4.1,2.6c-1.5,1.5-2.7,2.4-2.7,4.4c0,13.5,0,27.1,0,40.6C917,595.7,921.6,595.7,930.5,595.7 L930.5,595.7z" fill="#E5E5E5"/>
    <path d="M930.5,596.1c-9.1,0-13.7,0-23.2-0.2c0-13.7,0-27.3,0-41c0-2,1.1-3.1,2.4-4.3c0.4-0.4,0.6-0.5,0.9-0.9 c1.5-1.5,2.3-2.3,3.9-2.3c8.3,0.1,12.4,0.1,20.4,0.1c1.6,0,2.1,0.7,2.1,2.9c0,12.6,0,25.2,0,37.8c0,2.1-0.1,2.3-2,5 c-0.3,0.5-0.6,0.9-0.8,1.2C933.1,596,932.9,596.1,930.5,596.1z M908,595.1c9.2,0.2,13.7,0.2,22.5,0.2c2.3,0,2.3,0,3.3-1.5 c0.2-0.3,0.5-0.7,0.8-1.2c1.8-2.5,1.8-2.5,1.8-4.4c0-0.2,0-0.4,0-0.6c0-12.4,0-24.8,0-37.2c0-1.7-0.2-2.1-1.5-2 c-8,0.1-12.1,0-20.4-0.1c-1.4,0-2.1,0.6-3.5,2.1c-0.4,0.4-0.6,0.6-0.9,0.9c-1.2,1.2-2.1,2-2.1,3.6C908,568.3,908,581.7,908,595.1z"/>
    <path d="M932.7,594.8c0,2-0.4,2.6-2,2.6c-8.7,0-13.2,0-22.3-0.2c-1.7,0-2-0.6-2-2.7c0-13.6,0-27.1,0-40.7 c0-2,0.4-2.6,2-2.6c9.1,0.2,13.5,0.2,22.3,0.2c1.6,0,2,0.5,2,2.6C932.7,567.7,932.7,581.3,932.7,594.8z" fill="#FFFFFF"/>
    <path d="M930.7,597.9c-8.7,0-13.2,0-22.3-0.2c-1.8,0-2.4-0.7-2.4-3.1c0-13.6,0-27.1,0-40.7c0-2.3,0.6-3,2.4-3 c9.1,0.2,13.5,0.2,22.3,0.2c1.8,0,2.3,0.7,2.3,3c0,13.6,0,27.1,0,40.7C933,597.2,932.4,597.9,930.7,597.9z M908.4,551.8 c-1.5,0-1.7,0.4-1.7,2.2c0,13.6,0,27.1,0,40.7c0,1.8,0.2,2.2,1.7,2.3c9.1,0.2,13.5,0.2,22.3,0.2c1.5,0,1.7-0.5,1.7-2.2 c0-13.6,0-27.1,0-40.7c0-1.9-0.3-2.2-1.7-2.2C922,552,917.5,551.9,908.4,551.8z"/>
    <path d="M973.9,441.6c4,6.3,5.4,14.9,3.2,23.6c-2.4,0.2-3.6,0.3-6,0.4c2.3-8.5,1.6-21.5-9.9-22.2 c-26.3,1.5-37.5,44.7-66.7,48.4c-9.2-15.3-9.2-39.9,3-53.7c-5.5-20.4-14.7-42-27.9-58.7c-5.9-1.5-12.9-2.5-17.4-2.4 c5.5-12.6,16.6-24.4,29.2-30.3c1.7-3.2,3.6-6.2,5.3-9c5.2-21.2,64.1-6.3,75.8,1.6C962.8,372.5,964.2,409.8,973.9,441.6z" fill="#96877D"/>
    <path d="M894.3,492.3c0-0.1-0.1-0.1-0.1-0.2c-9.4-15.4-9.3-40.1,2.8-54.1c-6.3-20.2-14.2-41.5-27.7-58.2 c-5.9-1.5-12.8-2.4-17.2-2.3c-0.2,0-0.3,0-0.6,0c0.1-0.2,0.1-0.4,0.2-0.6c5.5-12.6,16.7-24.5,29.3-30.4c1.7-3,3.5-6,5.2-8.8 c0.2-2.4,1.6-4.6,4-5.9c17-9.5,55.6-4.1,72.2,7.4c0.1,0,0.1,0.1,0.1,0.1c0,0.1,0,0.1,0,0.2c0.4,33.1,1.8,70.2,11.4,102 c4.2,6.6,5.4,15.3,3.2,23.9c0,0.1,0,0.2-0.1,0.3c-2.6,0.2-4,0.3-6.6,0.4c0-0.2,0.1-0.3,0.1-0.5c1-4.6,1.8-11.1-0.4-15.8 c-1.7-3.5-5.1-5.9-9.3-5.8c-9.7,0-19.3,12.8-25.4,19.6c-11,12.3-24.2,25.5-41.2,28.8C894.4,492.2,894.3,492.2,894.3,492.3z M854.7,376.6c4.3,0.2,9.9,1.1,14.8,2.3h0.1c0,0,0,0.1,0.1,0.1c13.3,16.8,22.4,38.4,28,58.9c0,0.1,0,0.2,0.1,0.3 c-0.1,0.1-0.1,0.1-0.2,0.2c-12,13.7-12.1,37.8-3,53c16.9-3.3,29.9-16.5,40.8-28.6c6.2-6.9,15.9-19.8,25.8-19.8 c4.3,0,7.9,2.4,9.7,6.2c1.8,3.8,2,9.4,0.6,16c2.2-0.1,3.3-0.2,5.4-0.4c2-8.3,0.9-16.6-3.2-22.9v-0.1c-9.7-31.9-11-69.1-11.5-102.2 c-16.6-11.2-54.6-16.7-71.5-7.2c-2.2,1.3-3.5,3.2-3.7,5.4v0.1c0,0,0,0.1-0.1,0.1c-1.8,2.8-3.6,5.8-5.3,8.9c0,0,0,0.1-0.1,0.1h-0.1 c-12.3,6.3-23.1,16.8-28.7,29.5C853.3,376.6,854,376.6,854.7,376.6z"/>
    <path d="M900.5,454.7c-1.3-25.9-8.5-52.5-24.6-73.3c9.5,3.4,20.7,1.8,28.4-5c11.7-9.7,34.3-26.6,50.3-20.2 c0.8,2.5,1.3,8.2,0.7,11.8c-8.2-8.2-29.6,5.5-37.7,9.7c-9.2,5.1-10.8,15.9-8.4,25.4c-4.5-5.1-2.9-9.9-7.6-13.6 c1.9,6,3.4,16.7,4,25.4c-2.5-9.7-5.4-19.5-11.7-27.4c7.9,21.5,11.2,47.8,8.7,70.5c4.7,0.1,14.9-5.8,19-10.1 c-3.5,6.8-13.9,11.4-20.7,13.1c-3.1,4.7-5.2,17-5,23.8C895.4,475.3,895.3,463,900.5,454.7z"/>
    <path d="M973.9,441.6c-6.1-9.5-18.1-11.1-27.9-6.8c2-1.4,6.2-3.8,9.9-4.9c-1.2-10.1-2.8-20.1-4-30.2c1.4-0.9,2.2-1.3,3.6-2.2 c1.5,10.7,3.1,21.4,5.5,31.9c1.1,0.4,3.7,1,5.9,2.4c-2.5-14-5.2-28.3-6.2-42.5c1.9-1.6,2.9-2.3,4.8-3.9 C967.2,404.1,968.4,423.7,973.9,441.6z"/>
    <path d="M971,465.7c2.3-8.5,1.6-21.5-9.9-22.2c-12.4,1.1-21.4,15.1-28.9,23.4C945.2,466.9,958.1,466.5,971,465.7z" fill="#96877D"/>
    <path d="M971.2,466.1c-13.3,0.8-26.6,1.2-39.9,1.3c0.3-0.3,0.4-0.4,0.7-0.7c1.2-1.3,2.4-2.6,3.6-3.9c6.3-6.9,15.8-19.6,25.6-19.6 c4.3,0,7.9,2.4,9.7,6.2c1.9,3.9,2,9.7,0.5,16.5C971.3,465.9,971.3,465.9,971.2,466.1z M933.1,466.5c12.6-0.1,25.2-0.4,37.8-1.2 c1-4.6,1.7-10.9-0.5-15.6c-1.7-3.5-5.1-5.9-9.3-5.8c-9.6,0-19,12.7-25.2,19.4C935,464.3,934,465.4,933.1,466.5z"/>
    <path d="M897.6,368.2c-5.3,0.8-17.2-1-23.4-3.8c0.3-2.1,1-4.1,1.8-6.4c-3.8,3-11,8.9-13.8,13.1 C873.6,374.4,887.4,375.4,897.6,368.2z" fill="#96877D"/>
    <path d="M876.6,374c-5.4-0.2-10.6-1.2-14.4-2.4c-0.2-0.1-0.3-0.1-0.5-0.2c0.1-0.2,0.2-0.3,0.3-0.5c2-3.1,6.7-7.5,13.9-13.2 c0.4-0.3,0.5-0.4,0.9-0.7c-0.2,0.5-0.3,0.8-0.4,1.3c-0.8,2.2-1.4,4.1-1.7,6c5.9,2.6,17.6,4.4,22.9,3.6c0.5-0.1,0.8-0.1,1.3-0.2 c-0.4,0.4-0.7,0.6-1.1,1C892.6,373,884.4,374.3,876.6,374z M862.8,370.9c10.8,3.1,23.5,3.9,33.5-2.1c-6,0.4-16.6-1.4-22.1-4 c-0.1-0.1-0.2-0.1-0.3-0.1c0-0.1,0-0.2,0.1-0.4c0.3-1.7,0.8-3.3,1.4-5.2C869.1,364.2,864.9,368.1,862.8,370.9z"/>
    <path d="M900.5,458.8c-0.2-5.8-1.3-12.7-3.4-20.5c0.2-0.1,0.4-0.2,0.6-0.3c2.1,7.9,3.2,14.9,3.4,20.8 C900.8,458.8,900.7,458.8,900.5,458.8z"/>
    <path d="M893.5,368.8c-6.1-0.2-14.6-1.9-19.3-4c-0.1-0.1-0.2-0.1-0.3-0.1c0-0.1,0-0.2,0.1-0.4c0.8-4.8,3.2-10.8,7.1-17.8 c0.2,0.2,0.3,0.3,0.5,0.5c-3.7,6.8-6.1,12.6-6.9,17.2c5.9,2.6,17.6,4.4,22.9,3.6c0,0.3,0.1,0.5,0.1,0.8 C896.5,368.8,895.1,368.9,893.5,368.8z"/>
    <path d="M884.7,383.5c-3.5-0.1-6.6-0.8-8.9-1.7c-1.7-0.7-3.8-1.3-6.4-2c0-0.3,0.1-0.5,0.1-0.8c2.6,0.7,4.8,1.4,6.4,2 c9.2,3.4,20.7,1.7,28.1-4.9c0.8-0.7,1.8-1.7,2.9-2.7c15-14.5,32.5-30.4,53.9-34.2c0,0.3,0,0.5,0,0.8c-21.2,3.8-38.6,19.7-53.6,34.1 c-1.1,1-2,2-2.9,2.7C898.6,382.1,891,383.7,884.7,383.5z"/>
    <path d="M876.6,374c-5.4-0.2-10.6-1.2-14.4-2.4c0.1-0.3,0.1-0.5,0.1-0.8c11.3,3.3,25.5,4.4,35.1-2.9c16.8-12.7,35-27.2,57.3-29.9 c0,0.3,0,0.5,0,0.8c-22.1,2.7-40.6,16.2-56.9,29.8C892.6,372.9,884.4,374.3,876.6,374z"/>
    <path d="M1002.3,489.4c26.5,24.1,43.2,49.4,49.4,85c1.2,7.5,10.4,60,27.6,34.4c-1.2,16-18,35.3-31.1,15.6 c1.3,25.6-3.7,59.1-24.5,76.4c-0.5-14.5,6-29.1,3.9-43.5c-0.9-5.8-1.2-19.4,3.9-26.6c-14.8,9.7-27.3-10.3-27.3-23 c15.1,8.7,28.8-0.5,32.1-17.1C1045.5,552.5,1025.9,517.5,1002.3,489.4z" fill="#337321"/>
    <path d="M1023.4,701.4c0-0.2,0-0.3,0-0.5c-0.6-8.1,0.8-15.5,2.2-22.7c1.4-7.3,2.7-14.2,1.7-20.8c-1-6.4-0.9-18.5,3.2-25.7 c-5.3,2.9-11.9,2.1-17.1-2.3c-5.4-4.5-8.8-12.3-9.4-21.7c0-0.3,0-0.4,0-0.7c0.2,0.1,0.3,0.2,0.4,0.3c8.2,4.8,16.2,4.9,22,0.5 c4.4-3.4,7.7-9.2,9.7-17.3c9.1-37.1-9.7-73.6-33.9-100.7c-1.8-2.1-2.8-3.1-4.6-5.2c2,1.8,3,2.7,4.9,4.5 c26,23.2,44.4,50.6,49.5,85.2c1.8,12.3,3.2,33.5,14.4,39.9c3.3,1.9,8.1-0.1,12.8-5.7c0.2-0.2,0.3-0.3,0.5-0.6 c0,0.4-0.1,0.5-0.1,0.9c-1.2,10.2-4.6,17.9-9.6,21.8c-6.3,4.9-14.3,2.9-21.4-5.3c1.1,25.5-4,58.7-24.7,75.9 C1023.6,701.3,1023.5,701.3,1023.4,701.4z M1032.7,629.3c-0.4,0.6-0.7,1-1.1,1.6c-4.7,6.7-4.8,19.6-3.8,26.2 c1.1,6.8-0.3,13.8-1.7,21.2c-1.3,7-2.7,14.1-2.2,21.8c20.3-17.4,25.4-50.4,24-75.7c0-0.4,0-0.6,0-1c0.2,0.2,0.3,0.4,0.5,0.6 c7.1,8.5,15.1,10.7,21.4,5.8c4.7-3.6,7.9-10.8,9.2-20.2c-4.7,5.3-9.5,7.2-12.8,5.3c-11.4-6.6-13-28-14.7-40.5 c-4.5-31.9-21.2-58.5-44.7-80.6c21.7,27.6,38.6,60.9,29.8,96.7c-2,8.3-5.4,14.4-10,17.8c-5.9,4.5-13.9,4.4-22-0.2 c0.7,8.9,4,16.1,9.1,20.4c5.4,4.5,12.4,5.2,17.7,1.6C1031.9,629.9,1032.2,629.7,1032.7,629.3z"/>
    <path d="M1034.4,271.2c3.4-10.6,21-44.4,34.6-22.1c14.9-21.6,23.5,14.4,38.6,2.8c-0.3,7.4-5.8,16.1-11.9,17.5 c5.2,8.8-1.3,23.3,11,27.5c-13.6,16.5-30.6-0.2-32.2-16c-2.8,9.7-15.5,17.9-23.2,7.8c9.4-6.8,12.9-21.2,4.4-30.2 C1046.2,252.3,1036.1,261.7,1034.4,271.2z" fill="#337321"/>
    <path d="M1097.5,303.7c-3.1,1-6.3,0.9-9.4-0.4c-6.6-2.7-11.4-10.3-13.6-21.3c-1.7,4.8-4.9,8.7-9.1,10.6c-5.5,2.5-11.2,1.1-14.3-3.5 c-0.1-0.2-0.2-0.3-0.3-0.4c0.2-0.1,0.3-0.2,0.4-0.3c7-4.4,8.7-11.3,9-15c0.6-5.9-1.3-11.7-4.7-14.4c-3.9-3-9.6-2.7-14.3,0.9 c-2.7,2.1-4.8,5-6,8.5c-0.3,0.9-0.5,1.9-0.8,2.9c-1,4-1.4,6-2.4,10.1c0.8-4.1,1.1-6.1,1.9-10.2c0.2-1,0.5-2,0.8-3 c3.7-9.9,7.2-19.8,16.8-24.6c6.4-3.2,13.6-1.1,17.3,5c10.8-12.1,16.5-6.2,22-0.5c4.7,4.8,9.2,9.4,16.5,3.5c0.1-0.1,0.2-0.2,0.4-0.3 c0,0.2,0,0.4,0,0.6c-0.3,7.7-5.6,15.9-11.5,17.8c2.2,3,2.3,7.3,2.3,11.5c0.1,6.5,0.2,13.2,8.1,15.4c0.2,0.1,0.3,0.1,0.6,0.1 c-0.2,0.2-0.3,0.4-0.5,0.6C1104,300.5,1100.8,302.7,1097.5,303.7z M1074.6,279.8c0.1,0.4,0.1,0.6,0.2,1c2.1,11.2,6.9,19,13.5,21.8 c5.9,2.4,12.3,0.5,17.8-5.3c-7.7-2.4-7.8-9.3-7.9-15.8c-0.1-4.5-0.1-8.7-2.6-11.6c-0.2-0.2-0.3-0.4-0.5-0.6 c0.3-0.1,0.4-0.1,0.7-0.2c5.5-1.2,11-9.2,11.5-16.4c-7.4,5.7-12.1,0.9-16.6-3.8c-5.7-5.8-11-11.4-21.6,0.6 c-0.1,0.1-0.1,0.1-0.2,0.2c-0.1-0.1-0.1-0.1-0.1-0.2c-3.5-6-10.5-8-17-5.1c-3.8,1.7-10.4,6.5-15.1,19.8c1.2-2,2.7-3.7,4.5-5 c4.8-3.7,10.8-4,14.8-0.9c3.6,2.8,5.6,8.9,4.9,15.2c-0.7,6.5-3.9,12.1-9,15.5c3,4.1,8.4,5.3,13.5,2.9c4.2-1.9,7.5-6,9-11 C1074.5,280.4,1074.5,280.2,1074.6,279.8z"/>
    <path d="M972,347c6.2,24.2,15.1,47.8,30.8,67.5c15.5,20.4,39.1,5.4,48.5-12.1c1,20.6-15.8,52.4-40.2,36.1 c-6.5-4.4-11.8-1-5.5,6.6c12.3,15.1,35.8,18.3,53.7,20.8c26.7,2.2,39.8,46.9,14.4,60.4c3.4-1,6.2-7.3,1.3-13 c-17.6-20.2-45.9-22.6-68.4-34.7c-34.4-18.6-41.7-53.4-42.3-90c-8.2,31.4-42.2,12.3-26.9-16c5.3,5.9,14.4,6.1,17-3.1 c2.6-10.5-1.4-21.8-8.4-29.8c1.5-0.2,4.7-0.1,4.4-5.4c0.4,3.1,2.4,7.6,7.5,5.8c1.4,3.2,3,5.2,5,4c0.4-0.2,1.6-1.2,1.1-4.4 C964.4,345.7,969.4,347.6,972,347z" fill="#337321"/>
    <path d="M1073.9,526.7c-0.1,0-0.1,0-0.2,0c-4.5,1-6.8,1.4-11.3,2.3c4.5-1.2,6.8-1.8,11.3-3.1c1.6-0.5,3.1-2.2,3.5-4.3 c0.6-2.6-0.3-5.5-2.4-7.9c-11.4-13.3-29.6-19.7-45.6-25.1c-16.6-5.6-33.3-13.5-44.9-26.7c-17-19.3-19.7-46.2-20.3-71.2 c-3,8.9-8.7,14.7-15.6,15.6c-6.1,0.8-11.5-2.5-14.1-8.5c-2.8-6.6-1.8-15.6,2.8-25.3c0.1-0.2,0.1-0.2,0.2-0.4 c0.1,0.1,0.2,0.2,0.3,0.3c3.1,3.5,7.7,4.9,11.3,3.5c1.8-0.7,4.2-2.4,5.3-6.5c2.7-10.2-1.4-21.5-8.3-29.3c-0.2-0.3-0.3-0.4-0.6-0.6 c0.4-0.1,0.7-0.1,1.1-0.1c1-0.1,2.4-0.3,3.2-1.6c0.5-0.8,0.6-1.9,0.5-3.3c-0.3-3.9-0.4-5.9-0.7-9.8c0.5,3.9,0.7,5.8,1.2,9.7 c0.3,2,1.1,3.8,2.2,4.8c1.3,1.2,2.9,1.4,4.9,0.7c0.1,0,0.1,0,0.2-0.1c0,0.1,0.1,0.1,0.1,0.2c1.7,3.7,3.1,4.8,4.7,3.8 c0.5-0.3,1.1-1,1-3c0-0.3-0.1-0.7-0.1-1c-0.2-2.5-0.2-3.8-0.4-6.4c0.4,2.5,0.6,3.7,1,6.2c0.1,0.4,0.1,0.7,0.1,1 c0.2,1.6,0.9,2.9,1.8,3.9c1.7,1.9,4.2,2.5,5.8,2.1c0.1,0,0.1,0,0.2-0.1c0,0.1,0,0.2,0.1,0.3c5.3,23.9,15.5,48.1,30.8,67.3 c16.6,20.9,37.2,4,48.1-12c0.2-0.3,0.3-0.5,0.5-0.8c0,0.4,0,0.6,0,1c0.2,11.4-2.2,23.7-9.8,32.4c-7.8,8.9-21,10.7-30.8,4.1 c-3.8-2.5-7-2.3-7.7-0.7c-0.6,1.4,0.3,3.9,2.5,6.6c12.5,15,35.6,18.5,53.5,20.7c10.1,1.2,17.8,5,22.3,12c4.8,7.3,5.2,16.1,4.7,22.2 C1085.8,508.8,1083,522.1,1073.9,526.7z M964.7,386.3c0,0.9,0,1.3,0,2.2c0.4,25.4,2.8,53,20.1,72.6c11.6,13.2,28.2,20.9,44.7,26.6 c16.1,5.5,34.4,11.9,45.8,25.2c3.1,3.6,2.9,7,2.5,8.8c-0.2,0.9-0.5,1.7-0.9,2.4c4.4-4.1,8.4-14.2,9.1-24.3c0.4-6,0-14.6-4.6-21.6 c-4.5-6.9-12.1-10.6-22-11.8c-18-2.2-41.2-5.7-53.8-20.8c-3.4-4.1-3.1-6.6-2.6-7.7c1.1-2.4,4.7-2.2,8.4,0.3 c9.6,6.4,22.7,4.7,30.3-4c7.2-8.2,9.6-19.9,9.5-30.7c-9.7,17.3-33,31.2-48.4,11.4c-14.9-19.3-25.5-43.4-30.9-67.4 c-1.7,0.3-4.2-0.3-6-2.3c-0.7-0.8-1.2-1.7-1.6-2.7c-0.3,1.2-0.9,1.7-1.3,2c-2.4,1.5-4-1.3-5.3-3.9c-2.1,0.7-3.8,0.4-5.2-0.9 c-1-0.9-1.6-2.1-1.9-3.2c-0.1,0.7-0.3,1.2-0.6,1.7c-0.8,1.4-2.2,1.7-3.2,1.8c6.8,8,10.6,19.4,7.9,29.6c-0.9,3.5-2.9,5.9-5.7,7 c-3.7,1.4-8.3,0.1-11.5-3.4c-4.3,9.3-5.3,17.9-2.6,24.1c2.4,5.7,7.7,8.9,13.5,8.2c7.2-0.9,13-7.3,15.7-16.9 C964.3,387.6,964.4,387.2,964.7,386.3z"/>
    <path d="M1011.1,438.5c24.2,21.5,43.6-4.5,54.9-24.9c4.6-9.4,11.1-19.8,20.4-25.1c6.1-2.7,5.8-11.7,10.4-15 c-2.9-0.5-4-5.6-8.4-3.6c9-8.4,7.8-20,13-30.2c-4.3,3.9-11.1-4.3-17.4,10.5c1.6-6.4-0.6-12.8-2.2-15.1c-1.5,10-9.1,17.7-10.3,28.3 c-1,10-4.4,10.2-5-4.7c-0.9-18.3-3.2-37.4-7.9-55.1c-3-11.6-7-29.3,0.5-40.1c-0.8-2-2-3.7-3.5-4.8c-9.6-6.3-19.7,3.1-21.4,12.6 c-6.5,28.6,14.3,51.9,12.2,80.2c-3.3-21.4-29.2-28.5-29.7-50.9c-8,6.6-8.1,17.3-4.2,26.2c-8.1-9.4-19.8,7-29-5.9 c-1.8,14.6,7.5,30.6,23.5,29.9c-4.1,10.5-1.8,24.4,9.1,29.7c-0.4-10.7,7.6-17.5,17.6-14.3c13.9,4.3,17.5,24.9,17.4,36.8 C1052.3,423.3,1035,454.6,1011.1,438.5z" fill="#F7E017"/>
    <path d="M1034.3,446.9c-7.6,1.4-15.5-1.3-23.4-8c-2.4-2.1-3.7-3.1-6.1-5.2c2.6,1.8,3.8,2.7,6.4,4.4c9.8,6.5,22.7,4.6,30.4-4.2 c7.3-8.3,9.5-20.2,9.5-30.9c-0.1-13.6-6.5-39.6-24.3-37.5l0,0c-6.2,1-10.1,6.7-10.2,14.9c0,0.2,0,0.3,0,0.6 c-0.1-0.1-0.2-0.1-0.4-0.1c-3.8-1.6-8.6-6-10.5-13.4c-1.3-5-0.9-10.7,1-16.3c-4.1,0.1-13.3-0.9-19-10c-3.3-5.2-4.8-12.1-4.3-20.3 c0-0.4,0-0.6,0.1-0.9c0.2,0.3,0.3,0.4,0.4,0.7c5.9,8.8,12.2,6.2,17.7,4c3.9-1.6,7.3-3.1,9.9-0.4c-1.2-3.8-2.1-8.6-1.1-13.4 c0.9-4.2,3.1-7.7,6.5-10.5c0.2-0.1,0.2-0.2,0.4-0.3c0,0.3,0,0.4,0,0.7c-0.6,9.9,7.4,20.4,14.3,26.2c6.3,5.3,12.8,11.8,15,22.1 c0.2-12.1-3-23.8-7.4-35c-5.8-14.6-7.1-27.1-4.9-42.7c0.9-5,3.5-9.2,7.1-12c4.8-3.6,10.7-3.9,14.7-0.9c1.4,1.1,2.6,2.8,3.6,4.9 c0.1,0.2,0.1,0.2,0.2,0.4c-0.1,0.1-0.2,0.1-0.3,0.2c-1.1,0.9-2.1,2.6-2.6,4.9c-2.6,11-0.7,23.6,2.3,34.6c4.8,17.7,7.1,37,7.9,55.3 c0.4,8,1.5,11.6,2.5,11.4l0,0c0.7-0.2,1.5-2.3,2-6.6c1-10.5,4.7-16.3,7.3-20.5c1.9-3,3.2-5.1,3-7.7c0-0.5-0.1-0.8-0.1-1.3 c0.2,0.3,0.3,0.5,0.6,0.8c1.3,1.9,3.4,7.4,2.6,13.4c4-8.1,8.2-7.8,11.6-7.7c1.9,0.1,3.6,0.1,5-1.1c0.6-0.6,0.9-0.8,1.6-1.4 c-0.5,0.8-0.8,1.2-1.3,2c-2,3.1-2.8,7-3.6,11.1c-1.2,5.9-2.5,12.6-8.1,18.1c1.9-0.3,3.1,1,4.3,2.2c0.9,0.9,1.7,1.7,2.7,1.9 c0.4,0.1,0.5,0.1,0.9,0.1c-0.4,0.3-0.6,0.4-0.9,0.6c-2,1.4-3,3.9-4.1,6.6c-1.4,3.4-3.1,6.8-6.3,8.4c-9,4.5-15.6,15.9-20.2,24.9 c-6.4,12.3-14,26.3-27.6,31.8C1037.2,446.3,1035.8,446.7,1034.3,446.9z M1015.3,441.2c23.4,16.4,41.2-9.9,50.5-27.8 c4.8-9.1,11.4-20.6,20.6-25.2c3-1.5,4.6-4.8,6-8c1-2.4,2-4.8,3.7-6.4c-0.8-0.4-1.5-1.1-2.2-1.8c-1.4-1.4-2.8-2.8-5.4-1.7 c-0.9,0.4-1.4,0.6-2.3,1c0.9-0.7,1.3-1.1,2.1-1.8c6.5-5.4,7.9-12.2,9.2-18.6c0.7-3.6,1.4-7.1,3-10.2c-1.3,0.7-2.8,0.6-4.3,0.5 c-3.7-0.2-7.9-0.4-11.9,9.1c-0.5,1.2-0.8,1.8-1.3,3c0.3-1.3,0.5-2,0.8-3.3c1.4-5.7-0.3-11.4-1.7-13.9c-0.2,2.5-1.5,4.6-3.2,7.3 c-2.6,4.1-6.2,9.7-7.2,20c-0.4,4.5-1.4,7.3-2.5,7.5c-1.5,0.3-2.6-4.3-3-12.1c-0.8-18.2-3.1-37.4-7.9-55c-3-11.2-4.9-24.1-2.3-35.3 c0.6-2.3,1.5-4.1,2.6-5.2c-0.9-1.9-2-3.4-3.2-4.3c-3.9-3-9.6-2.7-14.2,0.9c-3.5,2.6-5.9,6.6-6.8,11.4c-2.1,15.3-0.8,27.6,4.9,42 c4.8,12.1,8,24.9,7.3,38.1c-0.1,1.2-0.1,1.8-0.2,3c-0.1-1.1-0.2-1.7-0.4-2.8c-0.9-9.2-8.1-18.8-15.2-24.2 c-7.4-5.7-14.9-16.3-14.5-26.2c-3.1,2.6-5,5.9-5.8,9.7c-1.2,5.8,0.5,11.6,2.1,15.6c2.5,6,3.7,9,6.2,15c-2.6-5.8-4-8.7-6.6-14.5 c-2.4-5.3-6.3-3.6-10.8-1.7c-5.5,2.3-11.8,4.8-17.8-3.5c-0.3,7.6,1.1,14,4.2,18.8c5.8,9.2,15.3,9.9,19.1,9.7c0.2,0,0.3,0,0.4,0 c-0.1,0.2-0.1,0.4-0.2,0.6c-2.1,5.7-2.4,11.1-1.2,16.2c1.8,7,6.2,11.2,9.8,12.8c0.3-8.4,4.4-14.1,10.7-15.2l0,0 c18.9-2.3,24.1,24.6,24.8,38.2c0.5,10.8-2.6,23.1-9.7,31.7C1036.2,441.5,1023.7,445.1,1015.3,441.2z"/>
    <path d="M1059.3,465.9c26.7,2.2,39.8,46.9,14.4,60.4c-7.6,1.7-14.9-6.6-15.4-15.2c-6.9,7.5-8.4,20.6,0.3,27.3 c-20.6,0.8-26.8,25.1-27,41.6c3.5-10.2,13.9-12.8,17.7-11.6c3.8,1.2,13.7,0.2,17.7-7.6c-3.2,5.1,2,13.9-2.5,22.7 c14.2-4.8,21.7-24.3,19.4-38.1C1100.2,517.4,1102.8,467.5,1059.3,465.9z" fill="#F7E017"/>
    <path d="M1063.8,584.1c0.2-0.3,0.3-0.5,0.4-0.8c2.4-4.7,2-9.3,1.6-13.5c-0.2-2.3-0.4-4.6-0.1-6.6c-4.7,6.2-13.3,6.6-16.6,5.6 c-3.6-1.2-14,1.2-17.4,11.3c-0.2,0.6-0.3,1-0.5,1.6c0-0.7,0-1,0-1.7c0.2-10.6,2.3-21.8,8.1-30.8c4.5-6.8,10.7-10.6,18.1-11.2 c-3.2-2.6-5.2-7.4-5.2-12.7c0-5.5,2.1-10.6,5.9-14.6c0.1-0.2,0.2-0.2,0.4-0.4c0,0.2,0,0.4,0,0.6c0.5,9.6,8.8,16.3,15.2,14.9 c0.1,0,0.1,0,0.2,0c8.1-3.1,11.4-17.3,12-26.1c0.4-6,0-14.6-4.6-21.6c-4.5-6.9-11.9-10.7-22-11.8c-6.3-0.7-9.5-1-16-1.9 c6.5,0.5,9.7,0.7,16.1,1.1c17.5,0,32.1,11.9,35.4,29c3.3,17.5-2.8,35.3-10.6,50.9c1.2,4.5,0.3,11.8-2.3,18.9 c-3.7,10.2-10.1,17.4-17.4,19.6C1064.2,584,1064.1,584,1063.8,584.1z M1066.7,561.7c-0.9,2.1-0.7,4.8-0.4,7.8 c0.4,4.1,0.8,8.6-1.3,13.3c6.9-2.4,12.9-9.3,16.4-18.9c2.5-6.9,3.4-14.1,2.2-18.3c0-0.1,0-0.1-0.1-0.2c0.1-0.1,0.1-0.1,0.1-0.2 c7.7-15.4,13.6-33.2,10.6-50.2c-2.2-12.9-12-23.6-24.7-27.1c5.2,2,9.2,5.2,12.1,9.6c4.8,7.3,5.2,16.1,4.7,22.2 c-0.7,9.1-4,23.8-12.6,26.9c-0.1,0-0.1,0-0.2,0c-7.9,1.7-14.9-6.7-15.6-14.9c-3.4,3.7-5.3,8.5-5.3,13.4c0,5.5,2.3,10.6,5.9,12.8 c0.5,0.3,0.7,0.4,1.2,0.7c-0.5,0-0.8,0-1.4,0.1c-7.8,0.3-14.1,4-18.8,11c-5.2,7.8-7.8,19.4-7.9,28.6c4-9.3,13.9-11.5,17.5-10.4 c4,1.3,13.1,0,17-6.8c0.1-0.3,0.3-0.5,0.4-0.7c1.2-1.9,1.8-2.9,3.1-4.9c-1.1,2.1-1.6,3.2-2.7,5.4 C1067,561.3,1066.9,561.5,1066.7,561.7z"/>
    <path d="M1027.6,688.8c2.7,2.1,2.4,7.7,0.5,11.4c-2.9,9.3,0.8,22.4-9.6,27.7c-3.4,1.3-6-1.6-7.1-7.4 c-2.2-11.6,5.7-16.7,9.5-26.3C1022.2,686.6,1025.3,687,1027.6,688.8z" fill="#F7E017"/>
    <path d="M1017.5,728.6c-3,0.4-5.2-2.4-6.3-7.9c-2.1-10.4,2.1-15.3,5.4-19.4c1.9-2.3,3.6-4.4,4-7.1c0.5-3.3,1.4-5.4,2.7-6.4 c1.6-1.2,3.3-0.3,4.4,0.6l0,0c1.1,0.9,1.8,2.3,2,4.3c0.3,2.4-0.3,5.4-1.4,7.8c-1.3,2.6-1.4,6.2-1.6,10c-0.3,7-0.6,14.9-8.2,17.9 C1018.2,728.5,1017.9,728.6,1017.5,728.6z M1024.6,688.2c-0.4,0.1-0.7,0.2-1.1,0.5c-1.1,0.8-1.9,2.8-2.4,5.8s-2.3,5.2-4.2,7.6 c-3.4,4.1-7.2,8.7-5.2,18.5c1.1,5.7,3.6,8.3,6.8,7.1c7.2-2.8,7.5-10.1,7.8-17c0.2-4,0.3-7.7,1.7-10.5c1.1-2.2,1.6-4.9,1.3-7.1 c-0.2-1.7-0.8-3-1.8-3.7l0,0C1026.7,688.6,1025.6,688,1024.6,688.2z"/>
    <path d="M1017.2,719.9c3.7,2.3,6.9,5.8,5,24.3c-0.8,7.7-1,26.1,3.4,25.9c-2.8,2.3-8.5,4.9-10.8,0.4 c-2.5,5.9-7.6,4.6-9.5-2.4c-2.8,3.5-6.5-2-6.3-6.8c-2.5,2.4-7.2-0.7-5.7-11.7c-3,1.7-6.7-1.3-8.1-4c4.4-1.4,15.5-10.5,18.3-17.6 C1006.2,720.9,1012.9,717.2,1017.2,719.9z" fill="#F7E017"/>
    <path d="M1011,774.6c-0.2,0-0.3,0-0.5,0c-2.2-0.1-4.2-2.3-5.3-5.9c-1,1-2.2,1.2-3.3,0.4c-1.7-1.2-3.1-4.2-3.2-7.1 c-1.1,0.8-2.5,0.6-3.6-0.4c-1-0.9-3.1-3.8-2.2-11.3c-3,1.2-6.6-1.6-7.9-4.4c-0.1-0.2-0.1-0.3-0.2-0.5c0.2-0.1,0.3-0.1,0.4-0.1 c4.3-1.4,15.3-10.3,18.1-17.4c2.8-7,9.7-11.1,14.2-8.3l0,0c3.8,2.4,7.1,6.1,5.1,24.7c-0.7,6.1-0.9,20,1.5,24.3 c0.5,0.8,1,1.3,1.7,1.2c0.4,0,0.6,0,1.1,0c-0.4,0.3-0.6,0.5-1,0.8c-3,2.5-8.5,4.8-10.9,0.8C1013.8,773.2,1012.5,774.5,1011,774.6z M1005.4,767.4c0.1,0.2,0.1,0.3,0.1,0.5c1,3.6,2.9,5.9,5,5.9c1.6,0.1,3.1-1.2,4-3.5c0.1-0.2,0.1-0.3,0.2-0.5 c0.1,0.2,0.1,0.3,0.2,0.5c1.9,3.9,6.7,2.3,9.7,0.1c-0.4-0.2-0.8-0.7-1.2-1.3c-2.5-4.5-2.3-18.4-1.6-24.9c1.9-18.1-1-21.5-4.8-23.9 l0,0c-4.3-2.6-10.8,1.2-13.4,7.9c-2.7,7-13.4,15.8-18,17.7c1.5,2.5,4.8,4.9,7.5,3.4c0.2-0.1,0.3-0.2,0.5-0.3c0,0.3-0.1,0.4-0.1,0.7 c-1,7.5,1,10.3,1.9,11.2c1.1,1,2.4,1.1,3.4,0.1c0.2-0.2,0.3-0.3,0.4-0.4c0,0.3,0,0.5,0,0.8c-0.1,2.8,1.2,5.9,2.9,7.1 c0.7,0.5,1.9,0.8,3-0.6C1005.2,767.6,1005.3,767.6,1005.4,767.4z"/>
    <path d="M1014.9,770.8c-0.2-0.2-0.3-0.3-0.4-0.4c1.1-2.4,1.9-12.9,1.2-19.6c0.2-0.1,0.3-0.1,0.5-0.2 C1017,757.1,1016.2,768,1014.9,770.8z"/>
    <path d="M1005.4,768.5c-0.1-0.3-0.2-0.4-0.3-0.6c1.8-2,5.6-9.6,6.4-16.2c0.2,0,0.3,0,0.5,0.1 C1011.2,758.6,1007.3,766.3,1005.4,768.5z"/>
    <path d="M999,761.7c-0.1-0.3-0.1-0.4-0.2-0.7c2.4-1.7,8.4-13.2,9.9-20.5c0.2,0.1,0.3,0.1,0.5,0.2 C1007.7,748.4,1001.5,759.9,999,761.7z"/>
    <path d="M993.2,750c0-0.3-0.1-0.5-0.1-0.8c3-1,11.7-9.9,15.4-18.8c0.2,0.2,0.3,0.2,0.5,0.4C1005.3,739.9,996.3,749,993.2,750z"/>
    <path d="M964.3,388.6c0.5,30.6,4.9,63.8,31.4,83.3c-7.4-9.5-3.8-23.4-13.1-31.9c2.2-0.4,5.7,3.9,11.1,1.5 c-2.5-9-6.7-20.3-17.2-22.2c2.7-0.6,8.5,0.3,12.2-2.2C981.6,404.7,966.3,406.3,964.3,388.6z" fill="#F7E017"/>
    <path d="M1018.1,488.5c-8.9-6.3-13.4-9.6-22.5-16.3c-26.1-19.1-32.3-53.2-31.6-83.6c0-1.1,0-1.6,0-2.7c0.2,1,0.3,1.5,0.5,2.6 c3,14.3,9.4,17.6,15.1,20.3c3.7,1.8,7.2,3.5,9.3,8.1c0.1,0.2,0.1,0.2,0.2,0.4c-0.1,0.1-0.2,0.1-0.3,0.2c-2.5,1.7-6,1.8-8.8,1.9 c-0.3,0-0.6,0-0.9,0c8.8,2.9,12.6,15,14.8,21.9c0.1,0.2,0.1,0.3,0.1,0.4c-0.1,0.1-0.2,0.1-0.3,0.1c-3.6,1.6-6.4,0.3-8.4-0.7 c-0.4-0.2-0.8-0.4-1.2-0.5c4,3.6,5.3,10.4,6.5,17c1.1,5.9,2.2,11.5,5.2,13.9C1004.9,478.5,1009.3,481.9,1018.1,488.5z M964.6,391.1 c0.1,28.1,5.2,60.2,28.9,78.6c-1.6-3-2.5-7.3-3.3-11.7c-1.3-7.1-2.7-14.4-7.6-17.5c-0.4-0.2-0.6-0.4-0.9-0.6c0.4-0.1,0.6-0.1,1-0.2 c0.8-0.2,1.8,0.3,2.9,0.8c2,0.9,4.5,2.1,7.7,0.8c-2.5-8.8-6.6-19.6-16.8-21.5c-1-0.1-1.4-0.2-2.4-0.3c1-0.2,1.4-0.3,2.4-0.6 c0.9-0.2,2.1-0.3,3.6-0.3c2.6-0.1,5.8-0.2,8.2-1.6c-2-4.1-5.3-5.7-8.9-7.4C974,406.9,967.9,403.8,964.6,391.1z"/>
    <path d="M960.9,344.3c-1.2-0.5-2.1-2.1-3.1-4.2c-5.1,1.7-7.1-2.8-7.5-5.8c0.3,5.3-2.9,5.1-4.4,5.3 c7.1,8,11,19.2,8.4,29.8c-2.6,9.2-11.7,9-17,3.1c-1.5,22,19.9,20,23.7,0.7c0,4.1,3.7,3.5,4.7,8.9 C970.4,369.7,966.6,355.7,960.9,344.3z" fill="#F7E017"/>
    <path d="M948,390c-0.7,0-1.5-0.1-2.1-0.2c-4.6-1.2-9.1-7-8.8-17.2c0-0.3,0-0.5,0-0.8c0.2,0.2,0.3,0.3,0.5,0.5 c3.2,3.5,7.7,4.9,11.3,3.5c2.5-1,4.4-3.3,5.2-6.5c2.7-10.2-1.4-21.5-8.4-29.3c-0.2-0.3-0.3-0.4-0.6-0.6c0.3,0,0.4-0.1,0.7-0.1 c0.1,0,0.3,0,0.4,0c1-0.1,2.4-0.3,3.2-1.5c0.5-0.8,0.7-1.9,0.6-3.3c-0.2-3.5-0.3-5.2-0.5-8.7c0.4,3.4,0.7,5.2,1.1,8.6 c0.3,2,1.1,3.8,2.2,4.8c1.3,1.2,2.9,1.4,4.9,0.7c0.1,0,0.1,0,0.2-0.1c0,0.1,0.1,0.1,0.1,0.2c1.1,2.4,2,3.6,2.9,4h0.1 c0,0,0,0.1,0.1,0.1c4.9,12.3,9.7,25,4.9,38.2c-0.1,0.3-0.2,0.5-0.4,0.8c-0.1-0.4-0.1-0.6-0.2-0.9c-0.5-2.6-1.6-3.7-2.6-4.7 c-0.8-0.8-1.5-1.5-1.8-2.7C957.8,385.9,952.5,389.9,948,390z M937.7,373.4c-0.1,9.2,4.1,14.4,8.3,15.6c4.7,1.2,11.3-2.2,14.9-15.8 c0.2-0.9,0.3-1.3,0.6-2.2c0,0.9,0,1.4,0,2.3c0,1.8,0.8,2.6,1.8,3.6s2.1,2,2.7,4.3c3.9-12,0.3-25.5-5.1-36.4c-1.3-0.6-2.2-2.4-3-4.1 c-2.1,0.7-3.8,0.4-5.2-0.9c-1-0.9-1.6-2.1-2-3.2c-0.1,0.7-0.3,1.2-0.6,1.7c-0.8,1.4-2.2,1.6-3.3,1.8c6.8,8,10.7,19.4,8,29.6 c-0.9,3.5-2.9,5.9-5.6,7C945.5,377.9,941,376.7,937.7,373.4z"/>
    <path d="M932.3,252.5c-8.2-10.3-11.9-25.2-11.9-38.1c0.3-10,3.5-20.9,14-16.4c-3.3,0-1,9.1-4.5,10 c2.8,1.4,6.6-1.8,7.1-3.9c0.7,3.2,4.9,2.2,5.3,5.8c1.7-1.8-0.2-10.7-2.6-12.5c1.8-1.4,2.8-8.5,2-11.9c-1.7,0.5-4.1,3.7-4.6,8.3 c0.8-3.7-0.1-12.8-4.8-14.1c-1.3,2.5-1.7,8.7,0.2,12.1c-4.3-1.4-10.7,2.5-12.2,7.5c0.3-6,1-14.6,3.7-20c0.9-1.8-1.3-5-3.1-0.7 c-3.3-8.7-12.2-13.4-16.2-9.1s-9.4-2.3-12.8,4.4c-3.4,6.7-14.9,7-14.3,14.3c0.3,4.3-0.5,11-2.2,13.3c-4.2,5.7,2,10.3,3.1,15.6 c0.6-18.2,20.1-49.9,41.6-36.8c-1.9,4.3-3.5,13-4.1,23.4c-1.2,16.8,0.9,36.8,12,50.3C929.7,253.5,930.6,253.2,932.3,252.5z" fill="#337321"/>
    <path d="M927.9,254.6c0-0.1-0.1-0.1-0.1-0.1c-11.5-14.1-12.6-33.7-12.1-50.6c0.3-9.5,2-18.5,4-23.2c-9.6-6-18.6-1.6-24.2,3.2 c-9.4,8.1-16.5,20.6-16.7,33.4c0.1,1.6,0.1,2.4,0.2,4.1c-0.3-1.6-0.5-2.4-0.8-4c-0.3-1.7-1.3-3.4-2.1-5c-1.9-3.4-3.8-7-0.9-11 c1.6-2.2,2.4-8.7,2.1-13c-0.4-4.3,3.2-6.3,7-8.3c2.9-1.6,5.9-3.3,7.4-6.2c1.9-3.9,4.6-3.6,7.1-3.2c2.1,0.3,4,0.5,5.7-1.3 c1.5-1.6,3.8-2.1,6.4-1.3c4.1,1.2,8,5.1,10.1,10c0.8-1.5,1.6-1.8,2-1.7c0.6,0,1.1,0.5,1.4,1.3c0.3,0.7,0.2,1.6-0.1,2.2 c-2.3,4.6-3.2,11.5-3.6,18c2.2-4.1,7.3-7,11.2-6.2c-1.5-3.7-1-9.4,0.2-11.7c0-0.1,0.1-0.1,0.1-0.2c0.1,0,0.1,0,0.2,0.1 c1.6,0.5,3,1.9,3.9,4.1c0.9,2,1.3,4.5,1.4,6.7c1-2.8,2.8-4.6,4-5c0.1,0,0.2,0,0.3-0.1c0,0.1,0,0.2,0.1,0.3c0.8,3.3,0,9.9-1.7,12 c1.6,1.6,2.8,5.8,3,9c0.1,1.3,0,3-0.7,3.9c-0.2,0.2-0.2,0.3-0.4,0.5c0-0.3,0-0.4-0.1-0.7c-0.1-1.6-1.3-2.2-2.5-2.8 c-1-0.5-2-1-2.5-2.1c-0.5,0.9-1.4,1.9-2.5,2.7c-1.7,1.1-3.4,1.4-4.8,0.7c-0.4-0.2-0.6-0.3-1-0.5c0.4-0.1,0.7-0.2,1.1-0.3 c1.5-0.4,1.8-2.7,2.1-5.1c0.2-1.9,0.4-3.8,1.4-4.6c-3.3-1.2-6-0.8-8.1,1.2c-3.4,3.2-4.5,10.1-4.5,15.2 c-0.2,12.5,3.7,27.6,11.8,37.8c0.2,0.2,0.2,0.3,0.4,0.5C930.9,253.5,929.9,253.8,927.9,254.6z M910.4,176.9 c3.4,0.1,6.7,1.1,9.8,3.1c0.1,0.1,0.2,0.1,0.3,0.2c-0.1,0.2-0.1,0.2-0.2,0.4c-2,4.5-3.7,13.6-4,23.2c-0.5,16.6,0.5,35.8,11.7,49.8 c1.4-0.5,2.2-0.8,3.6-1.3c-7.9-10.3-11.8-25.3-11.6-37.9c0.1-5.2,1.2-12.4,4.8-15.8c2.4-2.3,5.7-2.6,9.6-0.9 c0.7,0.3,1.1,0.5,1.8,0.8c0.2-1.8,0.3-2.8,0.5-4.6c0-0.5,0.1-0.9,0.2-1.4c0.2-2.4-0.1-5.9-1.3-8.6c-0.8-2-2-3.2-3.3-3.7 c-1.1,2.4-1.5,8.1,0.3,11.4c0.2,0.4,0.3,0.5,0.5,0.9c-0.3-0.1-0.5-0.1-0.8-0.2c-4.2-1.3-10.4,2.5-11.9,7.2 c-0.3,0.9-0.4,1.4-0.7,2.3c0.1-1,0.1-1.5,0.1-2.5c0.4-7.1,1.1-15.1,3.8-20.2c0.2-0.4,0.2-0.9,0-1.4s-0.5-0.8-0.9-0.8l0,0 c-0.6,0-1.2,0.7-1.7,1.9c-0.1,0.3-0.2,0.4-0.3,0.7c-0.1-0.3-0.2-0.4-0.3-0.7c-1.9-4.9-5.8-9-9.9-10.2c-2.4-0.7-4.5-0.3-5.8,1.2 c-1.9,2-4.1,1.7-6.2,1.5c-2.5-0.3-4.8-0.6-6.6,2.9c-1.5,3.1-4.6,4.8-7.7,6.5c-3.7,2-6.9,3.8-6.6,7.5c0.4,4.5-0.5,11.2-2.2,13.7 c-2.6,3.6-0.9,6.7,0.9,10c0.6,1.1,1.2,2.1,1.6,3.3c1.1-12.3,7.8-24.1,17-32C900.1,178.9,905.4,176.8,910.4,176.9z M937.1,202.8 c0.1,0.5,0.2,0.7,0.3,1.2c0.3,1.3,1.3,1.8,2.4,2.4c1.1,0.5,2.2,1.1,2.7,2.6c0.2-0.6,0.3-1.5,0.2-2.5c-0.2-3.2-1.5-7.5-3.1-8.7 c-0.2-0.1-0.3-0.2-0.5-0.4c0.2-0.1,0.3-0.2,0.5-0.4c1.7-1.3,2.5-7.7,1.9-11c-1.3,0.6-3.2,3-3.9,6.5c0,0.5-0.1,1-0.2,1.4 c-0.4,2-0.7,2.9-1.1,4.9c0-0.2,0-0.3,0.1-0.5c-0.8,0-1.2,0-1.9,0c-1.3,0-1.6,1.6-1.9,4.3c-0.2,2-0.5,4.2-1.6,5.2 c1,0.1,2.2-0.2,3.4-1s2.2-2,2.5-3C936.9,203.6,937,203.3,937.1,202.8z"/>
    <path d="M938.2,198.2c-0.1-4.1,5-9.5,11.8-9.6c8.2-0.1,14.4,10,20.8,8.6c6.4-1.5,3.2,3.9,1.9,5.4s-2.1,3.5-1.7,6 c0.5,2.5-0.3,4.2-2.9,2c-5.7-4.8-11.5,2.7-19.2-1.1C942.3,206.2,938.4,204.3,938.2,198.2z" fill="#CF142B"/>
    <path d="M970.2,212c-0.6,0-1.3-0.3-2.2-1.1c-2.9-2.4-5.7-1.7-9-0.8c-3,0.8-6.4,1.6-10.2-0.2c-0.2-0.1-0.3-0.1-0.4-0.2 c-6.4-3.2-10.3-5.2-10.5-11.5l0,0c0-1.4,0.5-3,1.5-4.5c1.8-2.6,5.5-5.3,10.4-5.5c0.1,0,0.1,0,0.2,0c4.2-0.1,7.8,2.4,11.3,4.8 c3.3,2.3,6.5,4.5,9.5,3.8c2.4-0.5,3.8-0.2,4.1,1c0.4,1.7-1.2,4.1-2,5s-2.1,2.8-1.6,5.6c0.3,1.5,0.1,2.6-0.4,3.2 C970.8,211.9,970.5,212,970.2,212z M963.2,208.5c1.7-0.1,3.5,0.3,5.2,1.7c1.1,0.9,1.9,1.2,2.3,0.8c0.3-0.3,0.4-1.2,0.2-2.3 c-0.4-2.4,0.2-4.7,1.8-6.5c0.8-0.9,2.1-3,1.8-4.1c-0.1-0.5-0.8-1.2-3.5-0.6c-3.3,0.7-6.5-1.5-9.9-3.8c-3.4-2.4-7-4.8-11-4.8 c-4.9,0.1-8.4,2.7-10.2,5.2c-0.9,1.3-1.4,2.7-1.4,3.9l0,0c0.2,5.7,3.8,7.6,10.1,10.8c0.2,0.1,0.3,0.1,0.4,0.2 c3.7,1.8,6.8,1,9.9,0.2C960.4,209,961.8,208.6,963.2,208.5z"/>
    <path d="M903.4,305.5c-3.1-12.9-12.7-26.8-23.5-34.4c-0.1-3.1-0.2-4.6-0.3-7.7c3.6-1.7,12.1-10,16-14.7 c27.9,17.1,60.6-7.5,74.6-31.7c2.3,1.9,3.4,2.8,5.7,4.6c-1.1,2.3-1.7,3.4-2.9,5.7c-1.2-0.8-1.8-1.3-3-2.1 c-6.1,10.5-13.5,20.7-21.7,29.6c5.7,1.9,13.4,2.9,15.5,2.6c8.8-9.7,17.2-22.2,28.6-29.1c1.7,3.1,2.5,4.7,4.2,7.8 c-1.5,1.7-2.2,2.6-3.7,4.3c-1.2-0.9-1.8-1.3-3-2.2c-17.6,23-29.3,53-36.8,80.8C938.2,316.6,913.1,319.7,903.4,305.5z" fill="#96877D"/>
    <path d="M953.2,319.4c-0.1,0-0.1,0-0.2-0.1c-2.6-0.7-7.1-1-12.4-1.4c-12-0.8-29.4-1.7-37.5-12.2v-0.1 c-3.1-12.9-12.6-26.6-23.4-34.2c-0.1,0-0.1-0.1-0.2-0.1c-0.1-3.3-0.2-5-0.4-8.3c0.1,0,0.1-0.1,0.2-0.1c3.5-1.6,12.1-10,15.9-14.7 c0.1-0.1,0.1-0.1,0.2-0.2c0.1,0.1,0.1,0.1,0.2,0.1c13.9,8.7,28.3,6.2,41.5,0.2c13.7-6.3,23.8-18.8,32.7-31.7 c0.1-0.1,0.1-0.2,0.2-0.3c2.5,2,3.7,3,6.2,5c-1.3,2.5-1.9,3.8-3.2,6.4c-1.2-0.8-1.8-1.3-3-2.1c-6.2,10.1-13.2,20.1-21.1,28.9 c5.5,1.7,12.6,2.6,14.7,2.4c2.9-3.1,5.7-6.2,8.3-9.1c6.3-7,12.3-14.9,20.4-20c0.1,0,0.1,0,0.2,0c1.8,3.3,2.7,5,4.4,8.3 c-1.6,1.9-2.5,2.8-4.1,4.7c-1.2-0.9-1.8-1.3-2.9-2.2c-17.4,23-29.1,52.8-36.6,80.4C953.3,319.2,953.3,319.2,953.2,319.4z M903.7,305.3c8,10.1,25.2,11,37,11.8c5.1,0.3,9.6,0.7,12.2,1.3c7.6-27.7,19.2-57.6,36.8-80.6c0.1-0.1,0.1-0.1,0.2-0.2 c1.2,0.9,1.8,1.3,3,2.2c1.3-1.5,2-2.3,3.3-3.8c-1.6-2.9-2.3-4.4-3.9-7.3c-7.9,5.2-13.8,12.8-20,19.8c-2.7,3-5.4,6.1-8.4,9.2 c0,0,0,0-0.1,0.1h-0.1c-2.1,0.3-9.7-0.7-15.6-2.6c-0.3-0.1-0.4-0.1-0.6-0.2c0.2-0.2,0.3-0.3,0.6-0.5c8.2-9,15.5-19.1,21.6-29.6 c0.1-0.1,0.1-0.2,0.1-0.3c1.2,0.8,1.8,1.3,3,2.1c1-2,1.5-3,2.5-5c-2.1-1.7-3.1-2.5-5.2-4.2c-9,12.9-19.1,25.4-32.8,31.7 c-13.3,6.1-27.8,8.5-41.8-0.1c-3.8,4.6-12,12.7-15.7,14.5c0.1,2.9,0.2,4.3,0.3,7.2C891,278.6,900.5,292.3,903.7,305.3z"/>
    <path d="M925.5,259.8c0-0.3,0-0.5,0-0.8c7.9-0.4,14.7-3.2,17.5-6.9c0.1-0.1,0.1-0.1,0.2-0.2c0.1,0.1,0.1,0.1,0.2,0.1 c1,0.8,2.7,1.5,5,2.3c-0.1,0.3-0.1,0.5-0.1,0.8c-2.2-0.8-3.9-1.5-4.9-2.3C940.2,256.6,933.4,259.3,925.5,259.8z"/>
    <path d="M904.4,300.6c-1.6-13.5-1.3-30.8,8.1-41.8c0.1-0.1,0.1-0.1,0.2-0.1c0.1,0.1,0.1,0.1,0.2,0.2c13.8,13.2,37.8,11.8,50.7-1.9 c0.1,0.3,0.2,0.4,0.3,0.7c-13,13.8-37.1,15.3-51.2,2c-9,10.8-9.2,27.6-7.6,40.8C904.8,300.5,904.7,300.5,904.4,300.6z"/>
    <path d="M958.3,302.9c-0.2-0.1-0.3-0.2-0.5-0.3c0.1-0.4,0.1-0.8,0-1.2c-1-2.7-7.6-5-13.2-6c-12.8-2.2-26.5-3.2-39.8-3.3 c0-0.3,0-0.5,0-0.8c13.3,0.1,27,1.2,39.9,3.3c4.4,0.7,12.3,3,13.6,6.4C958.5,301.6,958.5,302.2,958.3,302.9z"/>
    <path d="M909.9,289.9c-1.4-1.9-2.2-2.9-3.6-4.9c1.4-1.8,2.2-2.8,3.6-4.6c1.5,1.9,2.2,2.9,3.6,4.8 C912.1,287.1,911.3,288,909.9,289.9z M907.2,285.1c1.1,1.5,1.6,2.2,2.7,3.7c1.1-1.4,1.6-2.1,2.7-3.5c-1.1-1.5-1.6-2.2-2.7-3.6 C908.8,283,908.2,283.7,907.2,285.1z"/>
    <path d="M917.3,204.6c-3.9-7.3-14.9-9.9-17.3-0.1c-1.1,4.3-2.6,8.8-5.3,10.8c-2.6,2-2,8.2-0.9,10.9 c2.8,6.7,0.4,13,5.8,17.5c0-5.3,5.9-10.5,10.9-11.8s12.4-7.1,13.4-13.8C925.1,211.4,926.9,206,917.3,204.6z" fill="#337321"/>
    <path d="M900,244.5c-0.2-0.2-0.3-0.2-0.5-0.4c-3.4-2.8-3.9-6.4-4.3-10.2c-0.3-2.4-0.6-4.9-1.6-7.5c-1.2-2.8-1.9-9.3,1-11.5 c2.1-1.6,3.8-5,5.1-10.6c0.9-3.6,3.1-6,6.1-6.5c4.2-0.8,9.2,1.9,11.6,6.4c3.7,0.6,5.9,1.8,6.9,3.8c1.2,2.3,0.7,5.5,0.2,8.8 c-0.1,0.5-0.2,1-0.2,1.5c-1.1,7-8.7,12.8-13.7,14.1c-4.9,1.3-10.7,6.5-10.7,11.4C900,244,900,244.2,900,244.5z M907.5,198.5 c-0.5,0-1.1,0-1.6,0.1c-2.8,0.5-4.8,2.6-5.6,6c-1.4,5.8-3.1,9.3-5.4,11c-2.4,1.8-1.9,7.8-0.8,10.4c1.1,2.7,1.4,5.3,1.7,7.7 c0.4,3.6,0.8,6.7,3.5,9.2c0.5-5.2,6.2-10.2,11.2-11.5c4.9-1.3,12.2-7,13.2-13.5c0.1-0.5,0.2-1,0.2-1.5c0.5-3.3,1-6.1-0.1-8.1 c-0.9-1.8-3.1-2.9-6.6-3.4c-0.1,0-0.1,0-0.1,0c0-0.1,0-0.1-0.1-0.2C915.1,201.1,911.2,198.6,907.5,198.5z"/>
    <path d="M892.3,269.7c0.6,0,0.8,0,1.4,0c0,5,0,7.5,0,12.4c0.3,0.1,0.6,0.3,0.8,0.6c3.3-2.4,5-3.6,8.3-6 c0.3,0.6,0.4,1,0.7,1.6c-3.3,2.4-5,3.6-8.3,6c0,0.4,0.1,0.8,0,1.2c3.3,2.6,5,3.9,8.3,6.4c-0.3,0.6-0.4,0.9-0.7,1.6 c-3.3-2.5-5-3.8-8.3-6.4c-0.2,0.3-0.5,0.5-0.8,0.6c0,5,0,7.4,0,12.4c-0.6,0-0.8,0-1.4,0c0-5,0-7.5,0-12.4c-0.3-0.1-0.6-0.3-0.9-0.6 c-3.3,2.4-5,3.6-8.4,5.9c-0.3-0.6-0.4-1-0.7-1.6c3.4-2.4,5.1-3.6,8.4-6c0-0.4-0.1-0.8,0-1.2c-3.3-2.6-5-3.9-8.4-6.5 c0.3-0.6,0.4-0.9,0.7-1.6c3.4,2.6,5.1,3.9,8.4,6.5c0.2-0.3,0.5-0.5,0.8-0.6C892.3,277.1,892.3,274.6,892.3,269.7L892.3,269.7z" fill="#96877D"/>
    <path d="M894,300.7c-0.8,0-1.2,0-2-0.1c0-5,0-7.5,0-12.6c-0.2-0.1-0.3-0.2-0.5-0.4c-3.4,2.4-5.1,3.6-8.5,6 c-0.4-0.9-0.6-1.4-1.1-2.3c3.4-2.4,5.1-3.6,8.5-6c0-0.2,0-0.5,0-0.8c-3.4-2.6-5.1-3.9-8.5-6.6c0.4-0.9,0.6-1.4,1.1-2.3 c3.4,2.6,5.1,3.9,8.5,6.5c0.1-0.1,0.3-0.3,0.5-0.4c0-5,0-7.5,0-12.6c0.8,0,1.2,0,2,0.1c0,5,0,7.5,0,12.6c0.2,0.1,0.3,0.2,0.5,0.4 c3.4-2.4,5-3.6,8.4-6.1c0.4,0.9,0.6,1.4,1,2.3c-3.3,2.5-5,3.7-8.4,6.1c0,0.3,0,0.5,0,0.8c3.4,2.6,5,3.9,8.3,6.5 c-0.4,0.9-0.6,1.4-1,2.3c-3.3-2.6-5-3.8-8.4-6.4c-0.1,0.1-0.3,0.3-0.5,0.4C894,293.1,894,295.6,894,300.7z M892.6,299.8 c0.3,0,0.5,0,0.8,0c0-4.9,0-7.4,0-12.3c0.1,0,0.1,0,0.2-0.1c0.2-0.1,0.5-0.3,0.7-0.5c0.1-0.1,0.1-0.1,0.2-0.2 c3.3,2.5,5,3.8,8.3,6.3c0.2-0.3,0.2-0.5,0.4-0.9c-3.2-2.5-4.9-3.8-8.2-6.3c0-0.1,0-0.2,0-0.3c0-0.3,0-0.7,0-1.1c0-0.1,0-0.2,0-0.3 c3.3-2.4,4.9-3.6,8.2-6c-0.2-0.4-0.2-0.5-0.4-0.9c-3.2,2.4-4.9,3.6-8.2,5.9c-0.1-0.1-0.1-0.1-0.2-0.1c-0.3-0.3-0.5-0.4-0.8-0.5 c-0.1,0-0.1-0.1-0.2-0.1c0-4.9,0-7.4,0-12.3c-0.3,0-0.5,0-0.8,0c0,4.9,0,7.4,0,12.3c-0.1,0-0.1,0-0.2,0.1c-0.2,0.1-0.5,0.3-0.7,0.5 c-0.1,0.1-0.1,0.1-0.2,0.2c-3.3-2.6-5-3.9-8.4-6.4c-0.2,0.3-0.2,0.5-0.4,0.9c3.3,2.6,5,3.9,8.3,6.4c0,0.1,0,0.2,0,0.3 c0,0.3,0,0.7,0,1.1c0,0.1,0,0.2,0,0.3c-3.3,2.4-5,3.5-8.3,5.9c0.2,0.4,0.2,0.5,0.4,0.9c3.3-2.3,5-3.5,8.3-5.8 c0.1,0.1,0.1,0.1,0.2,0.1c0.3,0.3,0.5,0.4,0.8,0.5c0.1,0,0.1,0.1,0.2,0.1C892.6,292.4,892.6,294.9,892.6,299.8z"/>
    <path d="M904.8,300.5c-3,3.9-7.3,6.3-11.8,6c-10.7-0.6-16.9-12.2-16.9-22.2c0-9.8,6.2-21.1,16.9-21 c5.3,0,10.2,3.6,13.2,8.8c-0.8,2.7-1.8,8.8-1.9,11.5c-0.6-7.5-5.3-13.4-11.3-13.6c-6.3-0.2-11.5,6.2-11.5,14.3 c0,8.2,5.2,15,11.5,15.1c5.3,0.2,9.8-4.5,11.1-10.8C904.1,291.7,904.2,298.2,904.8,300.5z" fill="#96877D"/>
    <path d="M893,306.9c-11.2-1-17.2-12.4-17.2-22.6c0-10,6.4-21.4,17.2-21.4c5.2,0,10.2,3.4,13.4,9c0,0.1,0.1,0.1,0.1,0.2 s0,0.1-0.1,0.2c-0.8,2.6-1.8,8.7-1.9,11.4c-0.1,2.3-0.1,3.5-0.2,5.8c0-0.2,0-0.2,0-0.4c0,2.8,0.1,9.1,0.7,11.3c0,0.1,0,0.1,0.1,0.2 c-0.1,0.1-0.1,0.1-0.1,0.2C901.9,304.9,897.6,307.1,893,306.9z M893,263.7c-10.7,0.2-16.6,11-16.6,20.6c0,9.8,6.1,21.2,16.6,21.8 c4.3,0.3,8.4-1.9,11.4-5.8c-0.5-2-0.6-6.2-0.7-9.3c-1.8,5.4-6.1,9.1-10.8,8.9c-6.5-0.2-11.8-7.2-11.8-15.6s5.4-14.9,11.8-14.7 c5.3,0.2,9.8,4.8,11.2,11.3c0.4-2.9,1-6.7,1.6-8.7C902.7,267,898.1,263.9,893,263.7z M893,270.5c-6.1-0.2-11.2,6-11.2,13.9 s5.1,14.5,11.2,14.7c5,0.2,9.5-4.3,10.8-10.5c0.2-0.8,0.3-1.2,0.4-2.1c-0.1-1.2-0.1-1.8-0.2-2.9C903.4,276.4,898.7,270.7,893,270.5 z"/>
    <path d="M885.9,320.5c-1.1-1.6-3-6-2.8-9.2c1.6-0.2,4.6,1.3,6,3.2c-0.2-2.3-0.9-7.3-0.5-9.6c2,1,6,4.1,7.4,7.5 c-0.3-2.3-1.1-8.3-0.3-11.8c2.1,1.7,5.6,6.1,6.3,9c0.2-4.5,1.4-12,2.4-13.9c1.5,2.1,4,4,5.5,6.7c0.3-3.7,1.7-8,3.8-9 c1.5,2.3,3.9,7.6,4.4,13.5c1.5-0.6,3.5-4.1,4.4-5.9c0.9,1.8,1.7,5,1.2,8.9c1.9-2.3,4-5.5,4.5-8.2c1.3,1.4,3.8,4.8,4.5,8.4 c-0.3-3-0.2-8.2-0.8-11.2c2.5,1.8,4.5,5,5,8.4c0.7-3.2,2.1-8.9,3.4-10.3c1.3,3.7,2.6,8,2.4,11.6c0.8-2.3,2.1-6.4,3.4-7.4 c1.1,2.5,1,8,0.7,10.9c1.1-2.3,3.2-5.1,4.5-6c0.2,1.4,0.3,4.1,0,6.1c1.4-1.2,3.9-7.4,4.7-10.6c2.3,1.5,4.5,6.9,4.7,9.6 c1.6-1,4.8-5.2,5.8-7.6c0,1.6,0.5,5.9-0.2,9.3c1-1.4,1.9-4.2,2.4-5.4c0.7,2.3,0.2,7.7-0.5,10.7c1.4-1.9,3.5-3.2,4.8-3.3 c0.2,3.9-1.8,10.8-3.5,16C943.2,322.8,913.2,323.2,885.9,320.5z" fill="#337321"/>
    <path d="M969.7,331.5c-0.1,0-0.1,0-0.2-0.1c-25-7.8-53.5-7.5-79.4-10.1c-1.7-0.2-2.6-0.3-4.3-0.5c0-0.1-0.1-0.1-0.1-0.1 c-1-1.5-3.1-6.1-2.9-9.5c0-0.1,0-0.2,0-0.3c0.1,0,0.2,0,0.3,0c1.6-0.2,4.1,1.1,5.7,2.6c0-0.3-0.1-0.7-0.1-1.1 c-0.3-2.6-0.6-5.8-0.3-7.6c0-0.2,0-0.3,0.1-0.5c0.1,0.1,0.2,0.1,0.3,0.2c1.6,0.8,4.9,3.2,6.8,6.1c-0.3-2.7-0.7-7.2-0.1-10.2 c0-0.2,0.1-0.3,0.1-0.5c0.1,0.1,0.2,0.2,0.4,0.3c1.8,1.4,4.6,4.8,5.9,7.8c0.3-4.6,1.4-10.7,2.4-12.5c0.1-0.2,0.1-0.2,0.2-0.4 c0.1,0.1,0.2,0.2,0.3,0.3c0.6,0.8,1.3,1.5,2,2.3c1.1,1.1,2.2,2.3,3.1,3.7c0.5-3.6,1.9-7.4,3.8-8.4c0.1,0,0.1-0.1,0.2-0.1 c0.1,0.1,0.1,0.1,0.1,0.2c1.4,2.1,3.8,7.2,4.5,13.2c1.3-0.9,3-3.7,3.9-5.5c0.1-0.2,0.2-0.3,0.3-0.5c0.1,0.2,0.2,0.3,0.3,0.5 c0.5,1.1,1.6,4,1.3,8c1.6-2.1,3.4-4.8,3.8-7.2c0-0.2,0.1-0.4,0.1-0.6c0.1,0.2,0.2,0.2,0.4,0.4c1.1,1.1,2.8,3.3,3.8,6 c0-0.4,0-0.9,0-1.3c-0.1-2.4-0.2-5.2-0.6-7c-0.1-0.4-0.1-0.6-0.2-1c0.3,0.2,0.4,0.3,0.6,0.5c2.3,1.7,4.1,4.4,4.8,7.3 c0.6-2.5,1.9-7.8,3.3-9.2c0.1-0.1,0.2-0.2,0.3-0.3c0.1,0.2,0.1,0.3,0.2,0.4c1.1,3.2,2.3,6.8,2.5,10c0.8-2.3,1.9-5.2,3-6 c0.1-0.1,0.1-0.1,0.2-0.2c0.1,0.1,0.1,0.2,0.1,0.3c1,2.3,1,6.7,0.8,9.7c1.2-2,2.8-4.1,4-5c0.1-0.1,0.2-0.2,0.4-0.3 c0,0.2,0,0.3,0.1,0.6c0.1,1.1,0.3,3.3,0.1,5.2c1.4-2,3.3-6.9,4-9.8c0-0.2,0.1-0.3,0.1-0.4c0.1,0.1,0.2,0.1,0.3,0.2 c2.3,1.5,4.4,6.5,4.8,9.4c1.6-1.3,4.4-5,5.3-7.2c0.2-0.5,0.3-0.8,0.5-1.3c0,0.6,0,0.9,0,1.5c0,0.4,0,0.9,0.1,1.6 c0.1,1.7,0.2,4,0,6.2c0.5-1.1,1-2.3,1.3-3.3c0.1-0.3,0.2-0.5,0.3-0.7c0.1-0.3,0.2-0.5,0.3-0.8c0.1,0.3,0.1,0.5,0.2,0.8 c0.6,2.1,0.3,6.7-0.3,9.8c1.5-1.6,3.2-2.5,4.3-2.5c0.1,0,0.2,0,0.3,0c0,0.2,0,0.2,0,0.4c0.2,4.8-2.7,13.6-3.5,16.2 C969.8,331.3,969.7,331.4,969.7,331.5z M886.1,320.1c1.6,0.2,2.4,0.3,4.1,0.4c25.9,2.6,54.2,2.3,79.3,10.1c0.9-2.8,3.4-10.5,3.4-15 c-1.2,0.2-3,1.4-4.3,3.1c-0.3,0.4-0.5,0.6-0.8,1c0.1-0.6,0.2-0.9,0.3-1.4c0.6-2.6,1-7,0.7-9.5c-0.5,1.4-1.3,3.4-2.1,4.6 c-0.3,0.5-0.5,0.7-0.8,1.1c0.1-0.6,0.2-0.9,0.3-1.5c0.5-2.5,0.3-5.6,0.2-7.6c0-0.1,0-0.3,0-0.4c-1.3,2.5-4,5.8-5.4,6.7 c-0.1,0.1-0.2,0.1-0.4,0.2c0-0.2,0-0.3,0-0.5c-0.2-2.4-2.1-7.4-4.2-9.1c-0.9,3.1-3.2,9.1-4.7,10.4c-0.2,0.2-0.3,0.3-0.6,0.5 c0.1-0.4,0.1-0.5,0.1-0.9c0.3-1.7,0.2-4,0.1-5.4c-1.3,1.2-3.1,3.6-4.1,5.6c-0.3,0.6-0.4,0.9-0.7,1.5c0.1-0.7,0.1-1.1,0.2-1.8 c0.3-2.5,0.5-7.7-0.5-10.3c-1,1.1-2,4.1-2.7,6.1c-0.4,1.1-0.6,1.7-1,2.8c0-0.8,0.1-1.3,0.1-2.1c0.2-3.4-1-7.3-2.2-10.9 c-1.2,1.8-2.5,6.8-3.1,9.7c-0.1,0.6-0.2,1-0.3,1.6c-0.1-0.6-0.1-1-0.2-1.6c-0.4-2.9-2-5.8-4.2-7.6c0.3,1.8,0.4,4,0.4,6.2 c0.1,1.5,0.1,3,0.2,4.1c0.4,3.7,0.6,5.6,1,9.3c-0.6-3.6-1-5.5-1.6-9.1c-0.6-3.2-2.7-6.3-4-7.8c-0.7,2.7-2.8,5.7-4.5,7.8 c-0.3,0.3-0.4,0.5-0.7,0.8c0.1-0.5,0.1-0.7,0.2-1.2c0.5-3.8-0.3-6.6-0.9-8c-0.9,1.7-2.7,4.8-4.3,5.5c-0.1,0.1-0.2,0.1-0.4,0.2 c0-0.2,0-0.3,0-0.5c-0.5-5.8-2.8-10.8-4.2-13c-1.8,1.2-3.1,5.2-3.4,8.6c0,0.4-0.1,0.6-0.1,1c-0.2-0.3-0.3-0.5-0.5-0.8 c-0.9-1.7-2.2-3-3.4-4.3c-0.6-0.7-1.3-1.3-1.8-2c-0.9,2.2-2,8.8-2.2,13.2c0,0.9-0.1,1.4-0.1,2.3c-0.2-0.9-0.3-1.3-0.5-2.2 c-0.6-2.7-3.8-6.7-5.8-8.5c-0.6,3.7,0.2,9.4,0.4,11.1c0.2,1,0.2,1.5,0.4,2.6c-0.4-0.9-0.6-1.4-1-2.3c-1.2-3-4.7-5.9-6.9-7.1 c-0.2,1.7,0.1,4.7,0.4,6.8c0.1,0.8,0.2,1.6,0.2,2.2c0,0.5,0,0.7,0.1,1.1c-0.3-0.3-0.4-0.5-0.6-0.8c-1.3-1.7-4-3.1-5.5-3.1 C883.3,314.6,885,318.4,886.1,320.1z"/>
    <path d="M943.1,200.5c-0.1-1.7,2.6-5.5,7.4-5.6c5.7-0.1,11,5.6,15.5,4.9c4.5-0.7,2.3,1.6,1.3,2.2 c-1,0.6-1.5,1.5-1.2,2.5s-0.2,1.7-2.1,0.9c-4-1.9-8.1,1.2-13.5-0.2C945.9,203.7,943.2,203,943.1,200.5z" fill="#F7E017"/>
    <path d="M891.4,334.4c-5.3,8.1-10.7,6.5-11.8,1.2s2.9-7.6,1.4-12.3c-1.4-4.6,2.3-6.5,4.1-4.4s7.5-4.3,9.9,2.6 c2.5,6.9,4.4,11.7,3,14.4C896.7,338.6,892.5,337.1,891.4,334.4z" fill="#F7E017"/>
    <path d="M883.9,340.4c-0.4,0-0.8-0.1-1.1-0.2c-1.7-0.6-3-2.2-3.4-4.6c-0.6-2.8,0.2-4.8,0.9-6.6c0.7-1.8,1.3-3.4,0.6-5.6 s-0.3-4.1,0.9-5.2c1.2-1,2.7-0.8,3.7,0.3c0.5,0.6,1.6,0.3,2.9-0.2c2.3-0.7,5.4-1.8,7.1,2.9c0.2,0.7,0.4,1,0.6,1.7 c2.2,6.1,3.7,10.5,2.4,13.1c-0.6,1.2-1.8,1.7-3.1,1.6c-1.6-0.2-3.1-1.3-3.9-2.7C888.9,338.6,886.3,340.5,883.9,340.4z M883.5,318.4 c-0.5,0-1,0.1-1.4,0.5c-1,0.8-1.2,2.4-0.7,4.2c0.8,2.5,0.1,4.4-0.6,6.3c-0.6,1.8-1.3,3.6-0.8,6c0.4,2,1.5,3.5,3,3.9 c2.4,0.8,5.5-1.2,8.2-5.3c0.1-0.2,0.2-0.3,0.3-0.5c0.1,0.2,0.1,0.3,0.2,0.6c0.5,1.4,2.1,2.6,3.6,2.7c0.7,0.1,1.9,0,2.6-1.2 c1.2-2.3-0.3-6.5-2.4-12.3c-0.2-0.7-0.4-1-0.6-1.7c-1.4-4-4-3.2-6.3-2.4c-1.5,0.5-2.7,0.9-3.5,0 C884.6,318.7,884.1,318.4,883.5,318.4z"/>
    <path d="M913.9,322.6c-0.9-3,4.4-8.7,7.1-4.6c2.7,4.1,6.9-4.4,9.2,2.1s3.1,9.9,4.2,13.5c1.2,3.7-6.3,5.6-8.6,2.4 c0.3,2.1-6.6,3.8-8.5-2.4C916.3,330.4,915.2,326.6,913.9,322.6z" fill="#F7E017"/>
    <path d="M922.6,338.3c-2.1,0-4.5-1.3-5.5-4.6c-0.4-1.2-0.8-2.6-1.2-4c-0.7-2.3-1.4-4.6-2.2-7.1l0,0c-0.6-1.9,0.7-4.2,2.3-5.5 s3.8-1.9,5.3,0.5c1.1,1.7,2.5,1,4,0.3c1.8-0.9,3.9-1.9,5.3,1.9c1.5,4.3,2.4,7.2,3.1,9.8c0.4,1.3,0.7,2.5,1.1,3.7 c0.4,1.1,0.1,2.3-0.9,3.1c-1.9,1.8-5.9,2.1-7.9,0.2c-0.2,0.5-0.7,0.9-1.4,1.2C924,338.2,923.3,338.3,922.6,338.3z M914.2,322.4 c0.8,2.5,1.5,4.8,2.2,7.1c0.4,1.4,0.8,2.7,1.2,4c1.2,3.9,4.7,4.6,6.7,3.7c0.7-0.3,1.2-0.8,1.1-1.1c-0.1-0.5-0.1-0.8-0.2-1.3 c0.3,0.4,0.4,0.6,0.7,1c1.5,2.1,5.7,1.8,7.5,0.1c0.7-0.6,0.9-1.3,0.7-2.1c-0.4-1.2-0.7-2.4-1.1-3.7c-0.7-2.6-1.6-5.5-3.1-9.8 c-1.1-3.2-2.7-2.4-4.5-1.5c-1.5,0.8-3.3,1.6-4.7-0.5c-1.3-1.9-3.2-1.4-4.5-0.3C914.7,319.2,913.8,321.2,914.2,322.4z"/>
    <path d="M948.5,326.2c-1.2-3.1,4.7-7.9,7.8-2.2c0.8-2.4,6.6-3.1,7,3.8s0.6,11,0.7,13.8c0.2,2.7-3.5,5.4-6.2-1.4 c-4.8,1.6-7-2.2-7.5-6.1C949.8,330.1,949.2,328.1,948.5,326.2z" fill="#F7E017"/>
    <path d="M961.9,344.9c-1.3,0.1-2.8-1-4.2-4.3c-2.1,0.6-3.8,0.3-5.1-0.9c-1.3-1.2-2.2-3.1-2.5-5.6c-0.6-4.1-1.2-6.1-1.8-7.8 c-0.5-1.3,0-3,1.3-4.2c2-1.8,4.8-1.9,6.7,1.1c0.7-1.1,2.2-1.7,3.7-1.4c1,0.2,3.4,1.2,3.6,5.8c0.2,4.1,0.4,7.2,0.5,9.6 c0.1,1.7,0.2,3,0.2,4.1c0.1,1.3-0.6,2.7-1.7,3.2C962.4,344.8,962.1,344.9,961.9,344.9z M958,339.7c0,0.1,0.1,0.2,0.1,0.3 c1.5,3.7,3.2,4.5,4.4,3.9c0.8-0.4,1.3-1.3,1.3-2.3c-0.1-1.1-0.1-2.5-0.2-4.1c-0.1-2.4-0.3-5.5-0.5-9.6c-0.2-4-2.3-4.9-3.2-5.1 c-1.5-0.3-3,0.5-3.3,1.4c-0.1,0.2-0.1,0.4-0.2,0.6c-0.1-0.2-0.2-0.3-0.3-0.5c-1.9-3.5-4.7-2.7-6.2-1.4c-0.8,0.7-1.5,2-1.1,3.1l0,0 c0.6,1.8,1.3,3.8,1.9,8c0.3,2.2,1.1,4,2.2,5c1.3,1.1,2.9,1.4,4.9,0.7C957.9,339.8,957.9,339.7,958,339.7z"/>
    <path d="M894.9,321.4c-0.8-2.3,4.5-6.7,8-3.2c3.6,3.5,8.5-2.8,10.6,3.4c4.2,12.5,4.4,13.4,3.2,15.8 s-6.8,1.4-8.2-1.9c-0.2,2.3-5,1.8-7.6-0.1C898,333.2,896,325.5,894.9,321.4z" fill="#337321"/>
    <path d="M913.8,339.1c-0.1,0-0.3,0-0.4,0c-1.7-0.1-3.8-1.1-4.9-2.8c-0.1,0.2-0.3,0.4-0.6,0.6c-1.5,1-5,0.4-7.2-1.2 c-2.9-2.1-4.9-9.4-6.1-13.8c0-0.2-0.1-0.3-0.1-0.4c-0.3-1,0.1-2.2,1.2-3.2c1.5-1.6,4.8-3,7.4-0.4c1.5,1.4,3.2,1.1,4.9,0.7 c2.2-0.4,4.5-0.9,5.7,2.8c4.2,12.6,4.5,13.6,3.1,16.2C916.4,338.5,915.3,339.1,913.8,339.1z M908.3,334.1c0.2,0.4,0.3,0.6,0.5,1.1 c0.8,1.9,3,2.9,4.7,3c1.4,0.1,2.5-0.3,2.9-1.1c1.2-2.2,1.1-2.8-3.2-15.4c-1.1-3.1-2.9-2.8-5.1-2.3c-1.7,0.4-3.7,0.8-5.4-0.9 c-2.3-2.3-5.2-1-6.6,0.4c-0.8,0.8-1.2,1.7-1,2.3c0.1,0.2,0.1,0.3,0.1,0.5c1.2,4.2,3.1,11.3,5.8,13.3c1.9,1.4,5.2,2,6.6,1.1 c0.3-0.2,0.5-0.5,0.5-0.8C908.2,334.9,908.2,334.6,908.3,334.1z"/>
    <path d="M930.9,322.5c-1.2-3.5,6.6-6.7,10-0.5c1.7-2.2,5.5-2.4,7.6,4.3c2.1,6.7,2.4,10.4,0.9,12.1 c-1.1,1.2-5.1,2.3-6.4-0.8c-1.8,1.6-7.4,0.3-8.6-4C933.2,329.3,932.1,325.5,930.9,322.5z" fill="#337321"/>
    <path d="M946.3,340c-0.4,0-0.8,0-1.1-0.1c-1-0.2-1.8-0.8-2.2-1.8c-1.1,0.8-3.1,0.7-4.9-0.1c-1.1-0.5-3.1-1.7-3.9-4.3 c-0.1-0.3-0.1-0.4-0.2-0.6c-1.2-4-2.2-7.5-3.3-10.4l0,0c-0.4-1.2,0-2.4,1.1-3.3c2.2-1.8,6.7-2.1,9.2,2.1c0.9-1,2.2-1.4,3.4-1.1 c1.8,0.5,3.4,2.5,4.4,5.8c2.2,7,2.5,10.8,0.8,12.6C949,339.4,947.7,339.9,946.3,340z M943.2,337c0.1,0.1,0.1,0.2,0.2,0.4 c0.4,0.9,1.1,1.5,2,1.7c1.5,0.4,3.3-0.3,3.9-1c1.4-1.6,1.1-5.2-1-11.7c-1.2-3.8-2.8-5-4-5.3s-2.3,0.1-3.2,1.2 c-0.1,0.1-0.1,0.2-0.2,0.3c-0.1-0.1-0.1-0.2-0.2-0.4c-2.2-4-6.5-3.9-8.6-2.2c-0.5,0.4-1.2,1.2-0.9,2.3c1.1,2.9,2.2,6.4,3.3,10.5 c0.1,0.3,0.1,0.4,0.2,0.6c0.6,2.3,2.5,3.4,3.5,3.8c1.8,0.8,3.8,0.8,4.7,0C943,337.1,943.1,337.1,943.2,337z"/>
    <path d="M963.4,328.4c-0.2-3.2,3.9-4.9,5.4-0.3s6.3,0,6.7,7.8c0.1,1.5-0.6,7.2-2.1,10.1c-1.5,2.8-8.9,0.5-9.4-5.3 C963.6,334.8,963.5,331.5,963.4,328.4z" fill="#337321"/>
    <path d="M971.3,347.5c-0.7,0-1.5-0.1-2.3-0.4c-2.2-0.8-4.9-2.9-5.2-6.5c-0.5-5.8-0.6-9.2-0.7-12.3c-0.1-1.5,0.7-2.8,1.9-3.4 c1.4-0.6,3.2,0.1,4.1,2.8c0.6,1.8,1.7,2,2.9,2.3c1.7,0.4,3.6,0.8,3.8,5.6c0.1,1.4-0.6,7.4-2.1,10.4 C973.3,347,972.4,347.5,971.3,347.5z M965.8,325.7c-0.2,0-0.5,0.1-0.7,0.2c-0.8,0.3-1.5,1.2-1.5,2.5l0,0c0.1,3.1,0.2,6.4,0.7,12.3 c0.3,3.1,2.7,5.1,4.7,5.8c1.9,0.6,3.6,0.4,4.1-0.7c1.4-2.8,2.1-8.5,2-9.8c-0.2-4.1-1.7-4.5-3.4-4.9c-1.3-0.3-2.6-0.6-3.3-2.8 C967.9,326.4,966.8,325.6,965.8,325.7z"/>
    <path d="M891.2,334.6c-0.2-0.3-0.2-0.4-0.4-0.7c-1.2-2.1-2.7-4.8-4.3-4.9l0,0c-0.9,0-1.8,0.8-2.8,2.4c-0.2-0.2-0.3-0.3-0.5-0.5 c1.1-1.8,2.2-2.7,3.3-2.7l0,0c2,0.1,3.6,2.9,4.8,5.2c0.2,0.3,0.2,0.4,0.4,0.7C891.5,334.3,891.4,334.4,891.2,334.6z"/>
    <path d="M908.3,335.6c-1.1-2-2.6-5.2-3.2-7.8c0.2-0.1,0.4-0.1,0.6-0.2c0.5,2.4,1.9,5.6,3.1,7.5 C908.6,335.3,908.5,335.4,908.3,335.6z"/>
    <path d="M925.6,336.4c-1.2-1.2-3-3.5-4-6c0.2-0.2,0.3-0.2,0.5-0.4c0.9,2.3,2.6,4.5,3.8,5.7C925.8,336,925.7,336.1,925.6,336.4z"/>
    <path d="M934.3,335.5c-1.8-0.4-3.9-4.2-4.5-5.3c-0.8-1.6-2.8-5.3-5.6-5.8c0-0.3,0-0.5,0.1-0.8c3.1,0.5,5.2,4.6,6,6.1 c1.1,2.1,2.9,4.7,4.1,5C934.4,335,934.4,335.2,934.3,335.5z"/>
    <path d="M942.8,337.8c-0.2-0.4-0.3-0.7-0.5-1.1c-0.8-1.8-1.5-3.3-1.7-4.7c0.2-0.1,0.3-0.1,0.6-0.2c0.2,1.2,0.9,2.7,1.7,4.4 c0.2,0.4,0.3,0.7,0.5,1.1C943.1,337.6,943,337.7,942.8,337.8z"/>
    <path d="M942.9,327.4c-0.5-1.8-1.2-3.3-2.3-5.2c0.2-0.2,0.3-0.3,0.5-0.5c1,2,1.8,3.6,2.3,5.4C943.3,327.2,943.2,327.3,942.9,327.4z "/>
    <path d="M957.6,340.3c-1.3-3.5-3.3-6.5-4.9-7.5c0.1-0.3,0.1-0.5,0.2-0.8c1.7,1,3.7,4.2,5.1,7.8 C957.9,340.1,957.8,340.2,957.6,340.3z"/>
    <path d="M963.7,339.3c-0.1-2-1.4-3.1-2.8-4.4c-1.8-1.6-3.8-3.4-3.9-7.3c0.2,0,0.3,0,0.6-0.1c0.1,3.5,1.9,5.1,3.7,6.7 c1.5,1.3,2.9,2.6,3.1,5C964,339.2,963.9,339.2,963.7,339.3z"/>
    <path d="M969.5,334.3c-0.1-2.9-0.3-4.5-0.9-6c0.2-0.2,0.3-0.3,0.5-0.4c0.6,1.7,0.9,3.3,1,6.4C969.8,334.2,969.7,334.3,969.5,334.3z "/>
  </g>
  <g opacity="0.3">
    <path d="M259.7,30c127.9,0,223.7,15.9,325.2,32.8C688.7,80,796.1,97.9,941,97.9c44.4,0,90-6.1,135.4-18.1 c30.5-8.1,61.9-19,93.6-32.7v757.2c-36.8,17.4-73.5,30.8-109.2,40C1020.3,854.7,979.7,860,940,860c-140.1,0-243.6-16.8-343.7-33 c-98.9-16.1-201.3-32.7-336.6-32.7c-45.7,0-91.1,5.3-135.1,15.8C93,817.6,61.3,827.9,30,841V86.6C67.1,69,103.8,55.4,139.2,46.1 C179.9,35.4,220.4,30,259.7,30 M1200,0c-89.2,45-174.4,67.9-259,67.9C660.3,67.9,524.3,0,259.7,0C175.2,0,89.1,23,0,67.9 c0,242.4,0,577.6,0,820c89-44.9,175.2-63.6,259.7-63.6c268.9,0,398.5,65.7,680.3,65.7c84.6,0,170.8-22,260-66.9 C1200,580.7,1200,242.4,1200,0L1200,0z" fill="#212121"/>
  </g>
</svg>