<svg viewBox="0 0 1200 890" xmlns="http://www.w3.org/2000/svg" xmlns:xlink="http://www.w3.org/1999/xlink">
  <g>
    <path d="M341.1,2.2C427.7,84.1,516,165.3,593,256.6c65.2,77.3,137.7,147.8,211.1,217.2 c66.1,62.6,131.1,126.2,196.6,189.4c61.3,59.1,125.1,116.9,199.3,159.4c0-274.2,0-548.4,0-822.6c-64.3,32-130.9,56.7-202.7,64.6 c-64.2,7-129.7,3.1-193.8-2.1C648.1,49.9,496.9,11.7,341.1,2.2z" fill="#DA1A35"/>
    <path d="M0,887.8c63.2-30.8,128.2-53.5,198.5-60.3c65.8-6.4,132.8-2.8,198.6,2.6c155.4,12.8,306.4,50.8,462.6,58.3 c-86.2-81.7-174-162.5-252.2-252.1C540.7,559.9,470.7,488,397.1,418.2c-66.5-63-131.9-126.9-197.3-191 C138.7,167.5,74.9,109.9,0,67.9C0,341.2,0,614.5,0,887.8z" fill="#DA1A35"/>
    <path d="M275.9,0c82.5,80.6,168.6,157.5,248.3,240.8c71.2,74.5,136.1,154.1,210,226.3 c68.9,67.3,140.1,132.2,208.7,199.9c64.3,63.5,128.7,128.3,202.5,180.9c18.6-7.6,36.7-16.3,54.6-25.3 c-74.2-42.5-138.1-100.3-199.3-159.4C935.1,600,870.2,536.4,804.1,473.8c-73.4-69.4-146-139.9-211.1-217.2 C516,165.3,427.7,84.1,341.1,2.2C319.4,1,297.7,0.3,275.9,0z" fill="#FFFFFF"/>
    <path d="M0,67.9c74.9,42,138.7,99.6,199.8,159.3c65.5,64.1,130.8,128,197.3,191c73.7,69.8,143.6,141.7,210.3,218.1 c78.2,89.6,166,170.3,252.2,252.1c21.5,0.9,43,1.4,64.5,1.6c-83-81.2-169.7-158.8-250.5-242.3c-70.3-72.7-133.8-151.2-206-222.2 c-70.6-69.4-144-136-214.3-205.8c-62.7-62.3-125.1-125.9-197.6-177C36.8,50.5,18.4,59,0,67.9z" fill="#FFFFFF"/>
    <path d="M55.7,42.7c72.5,51,134.9,114.7,197.7,176.9c70.3,69.8,143.7,136.4,214.3,205.8c72.2,71,135.7,149.5,206,222.2 c80.8,83.5,167.4,161.1,250.5,242.3c77.1-0.2,149.7-13.3,221.3-42.1c-73.8-52.6-138.2-117.4-202.5-180.9 C874.4,599.2,803.2,534.4,734.3,467c-73.9-72.2-138.7-151.7-210-226.3C444.5,157.5,358.4,80.6,275.9,0 C198.9,0.2,127.1,14.2,55.7,42.7z"/>
  </g>
  <g opacity="0.3">
    <path d="M259.7,30c127.9,0,223.7,15.9,325.2,32.8C688.7,80,796.1,97.9,941,97.9c44.4,0,90-6.1,135.4-18.1 c30.5-8.1,61.9-19,93.6-32.7v757.2c-36.8,17.4-73.5,30.8-109.2,40C1020.3,854.7,979.7,860,940,860c-140.1,0-243.6-16.8-343.7-33 c-98.9-16.1-201.3-32.7-336.6-32.7c-45.7,0-91.1,5.3-135.1,15.8C93,817.6,61.3,827.9,30,841V86.6C67.1,69,103.8,55.4,139.2,46.1 C179.9,35.4,220.4,30,259.7,30 M1200,0c-89.2,45-174.4,67.9-259,67.9C660.3,67.9,524.3,0,259.7,0C175.2,0,89.1,23,0,67.9 c0,242.4,0,577.6,0,820c89-44.9,175.2-63.6,259.7-63.6c268.9,0,398.5,65.7,680.3,65.7c84.6,0,170.8-22,260-66.9 C1200,580.7,1200,242.4,1200,0L1200,0z" fill="#212121"/>
  </g>
</svg>