<svg viewBox="0 0 1200 1200" xmlns="http://www.w3.org/2000/svg" xmlns:xlink="http://www.w3.org/1999/xlink">
  <g>
    <path d="M0,837.5c186.4-97.7,401-63,600-29.9c99.5,16.6,200.3,28.9,301.2,31.4c106.5,2.7,203.7-18.2,298.8-66.6 c0,68.6,0,137.2,0,205.8c-95.2,47.9-192.4,69.1-298.8,66.4c-100.9-2.6-201.7-14.8-301.2-31.2C402.2,981,185.1,944.2,0,1042.7 C0,974.4,0,906,0,837.5z" fill="#CE1126"/>
    <path d="M0,222.9c94.8-48,192.6-70.4,298.8-67.3c101,2.9,201.8,17,301.2,34.4s200.3,30.1,301.3,32.7 c106.9,2.6,203.9-17.5,298.7-67.7c0,68.6,0,137.2,0,205.8c-94.9,49.7-192,70.2-298.7,67.4c-101-2.6-201.8-15.3-301.3-32.5 s-200.2-31.3-301.2-34.3c-105.9-3-204.5,18.3-298.8,66.8C0,359.7,0,291.3,0,222.9z" fill="#CE1126"/>
    <path d="M0,837.5c186.4-97.7,401-63,600-29.9c99.5,16.6,200.3,28.9,301.2,31.4c106.5,2.7,203.7-18.2,298.8-66.6 c0-137.2,0-274.4,0-411.6c-94.9,49.7-192,70.2-298.7,67.4c-101-2.6-201.8-15.3-301.3-32.5s-200.2-31.3-301.2-34.3 c-105.9-3-204.5,18.3-298.8,66.8C0,564.6,0,701.1,0,837.5z M500.3,435.7c17.9,27.9,35.5,56,52.7,84.3c-0.1,9.7-0.1,19.3-0.2,29 c-9.9-10.7-19.8-21.2-29.9-31.7c0,0-4.4-0.9-4.4-3.7c0-3.5,4.2-1.9,4.2-6.4s-5.8-5-5.8-8.5s3.8-2.1,3.8-7.1c0-4.9-6-4.8-13.6-6.5 c-7.6-1.5-15.1-2.1-16,0.9c-8.4-9.5-16.8-19-25.3-28.4C476.3,448.9,487.8,441.4,500.3,435.7z M641.7,434c3.9,1.6,7.5,3.2,11.2,5 c7,3.3,14.2,6.6,21.1,10.5c3.8,2.2,7.3,4.3,11.1,6.7c-15,22.3-29.9,44.6-44.6,67.1c0-10.5,0-21,0-31.5c-0.2-2.3,3.2-5.7-1.3-6.8 c-4.9-0.6-9.6-1.3-14.4-2.7c5-16.2,10.1-32.4,15.3-48.6C640.8,433.7,641.3,433.9,641.7,434z M785,656.3L785,656.3L785,656.3 c-24.7-2.4-49.4-5.1-74-8.1c-0.1-12.7-0.3-25.4-0.4-38.1c26.3,1.4,52.5,2.5,78.8,3.3c0.2,3.7,0.4,7.6,0.7,11.4 C788.4,635.3,786.7,645.8,785,656.3L785,656.3z M770,706.5c-0.9,1.6-1.8,3.3-2.8,4.9c-0.7,1.2-1.6,2.5-2.3,3.7 c-29.6-3.1-59.2-6.7-88.7-10.7c2.8-1.1,4.1-1.7,6.9-2.8c3.3-1.4,12.3-5.6,14.8-9.8c0.4-0.7,0.5-1,0.9-1.7c0.8,0.5,1.2,0.8,2,1.3 c2.3,1.3,3.4,2.5,4.5,3.7c2,1.9,3.6,3.3,11.3,4.7c5.7,0.9,11.6-1.5,17.4-3.9c6.2-2.6,12.4-5.2,19.1-4c6.2,0.9,13.3,6.1,18.8,11.2 C771.2,703.9,770.7,705.3,770,706.5z M747.2,737c-0.5,0.6-1.2,1.1-1.6,1.7c-1.2,1.1-2.3,2.4-3.7,3.5 c-95.3-11.2-189.4-29.8-284.5-42c-1.1-1.4-2.3-3-3.7-4.4c-1.6-2-3-3.9-4.6-5.9c-0.9-1.1-1.8-2.3-2.5-3.6c1.6-0.6,3.2-1.3,4.6-1.9 c8.2-4.2,19.7-8.9,28.9-7.9c7.4,0.8,14.3,6,20.9,10.8c5.9,4.3,12.1,8.9,18.1,10.2c5.8,1.2,10.4-1.2,15.9-3.8 c6.1-3.2,13.1-6.7,22.7-5.2c9.6,1.5,16.9,7,23.2,11.8c5.3,4.2,10.4,7.9,15.8,8.8c6,1,12.4-1.4,18.8-3.6c6.6-2.2,13.5-4.6,20.5-3.9 c7.4,0.7,14.7,6,21.9,10.7c6.3,4.2,12.3,8.3,17.8,8.9c5.3,0.5,10.7-1.8,16.3-4.4c6.7-3,14-6.2,22.6-5.3c0.1,0,0.1,0,0.2,0 c0.1,0,0.1,0,0.2,0c13.5,3.3,27.1,10.7,35.5,22C749.3,734.9,748.3,735.9,747.2,737z M716,762.3L716,762.3c-2.1,1.2-3.9,2.2-5.7,3.4 c-74.2-9.7-147.7-23.7-221.8-34c-1.8-1.5-3.6-3.2-5.5-4.6c-1.8-1.5-3.4-3.1-5.2-4.8c-1.1-1.2-2.5-2.4-3.7-3.4 c14.5-3.4,30.1-8,45.2-7.6c5.3,0.6,12,4.2,18.7,8.3c7.4,4.4,15.2,8.9,21.3,9.7c5.5,0.7,10.8-0.8,15.9-2.2 c6.4-1.6,13.6-3.7,22.5-2.4c8.1,1.2,13.4,5,18.8,8.5c5.6,3.8,10.9,7.5,20.1,8.1c7.6,0.6,10.7-1.3,13.9-3c4.3-2.4,8.6-5.1,23.2-2.8 c17,2.5,32.9,13.3,45.2,24.8C718.5,760.8,717.2,761.5,716,762.3z M600,785.4c-26.5-4-51.6-15.3-75.4-28.4c10.2-6,21.9-9.9,33.9-8.9 c0.4,0.1,0.9,0.1,1.3,0.2c0.3,0,0.4,0.1,0.6,0.1c11,1.7,17.6,7.6,23.1,12.6c4.3,3.8,7.7,7.1,12.5,8.3c5.4,1.5,10.5-1.1,16.3-3.6 c6.1-2.7,13.2-5.9,21.6-4.8c13.7,1.8,27.2,10.1,38.1,18.4c0.9,0.6,1.3,0.9,2.2,1.5C649.1,787.2,625,789.2,600,785.4z M494.8,523 c-1.6-1.5-3.6-3.6-3.9-6.7c-0.2-2.7,2.3-3.4,4.1-4c0.7-0.1,1.8-0.6,1.8-0.8c0-0.6-1.6-1.9-2.5-2.8c-1.8-1.5-3.9-3.4-3.6-5.6 c0.2-1.8,1.6-3.1,2.7-4.2c0.9-0.9,1.8-1.6,2-2.4c0-1-1.1-2.2-2-3.2c-0.9-0.9-2.3-2.2-1.6-3.7c0.7-1.6,3.2-1.4,5.7-1.1 c4.8,0.6,7.2,0.9,11.9,1.5c0.1,0,0.1,0,0.2,0c0.4,0.1,4.3,0.8,4.9,0.7c0.9,0.1,1.8,0.7,2,1.5c0.4,0.9,0.2,1.7-0.4,2.2 c-0.4,0.3-1.1,0.7-2,1.2c-1.1,0.7-4.2,2.1-4.2,3.1c0,0.6,1.1,1.2,2.7,2c2.2,1.1,5.1,2.8,5.6,6.2c0.2,3.1-2.4,4-4.5,4.5 c-1.8,0.6-2.5,0.9-2.5,1.5c0,0.4,0.2,0.6,2,1.7c1.8,0.9,4.7,2.3,4.7,5.6c0,3.1-2.7,4.4-4.5,5.1c-0.7,0.3-1.8,0.8-1.8,1.2 c0,1.4,2.5,3.2,3.6,3.8c0.7,0.5,1.3,1.2,1.3,2c-0.6,32.5-3.8,67.2,0.7,99.4c0.1,0.1,0.1,0.1,0.2,0.2c6.6,10.5,19.1,16.4,30.9,18.4 c10.6,2,23,0.2,29.5-9.3c0.4-0.8,1.6-1,2.5-0.4c0.8,0.5,1.4,1.7,1.2,2.5c-5.1,21-20,43.5-44.5,39.7c-0.2,0-0.7-0.1-0.9-0.1 c-24.2-4.3-41-27.4-45.8-50.2c0-0.2,0-0.2,0-0.4c-0.1-34.1-0.1-68.5-0.9-102.8c0-2.3,2.3-3.2,4.3-3.7c0.9-0.3,2.5-0.9,2.5-1.3 C496.4,524.4,495.5,523.7,494.8,523z M556,589.1c-1.1-1.4-0.6-3.2,0.6-4c1.3-0.8,3.2-0.1,4.3,1.3c1.9,2.8,2.8,4.2,4.6,6.9 c0.1-2.4,0.1-3.6,0.2-5.9c0-1.6,1.5-2.6,2.9-2.2c1.7,0.3,2.9,1.9,2.7,3.3c-0.1,2-0.1,2.9-0.2,4.9c1.7-1.7,2.5-2.6,4.2-4.3 c1-1.1,2.9-1,4.1,0.3c1.2,1.2,1.4,3.1,0.4,4.2c-3.4,3.4-5.1,5.1-8.5,8.5c2.8,4.2,4.2,6.3,7,10.4c1,1.4,0.6,3.2-0.6,4 c-0.6,0.3-1,0.4-1.7,0.3c-0.8-0.1-1.7-0.7-2.3-1.6c-2.5-3.6-3.7-5.4-6.3-9.1c-2.8,2.8-4.2,4.3-7,7.1c-0.6,0.5-1.5,0.8-2.3,0.7 c-0.6-0.1-1.3-0.4-1.9-0.9c-1.3-1.2-1.5-3.1-0.4-4.2c3.2-3.2,4.9-4.8,8.1-8C560.8,596.1,559.2,593.8,556,589.1z M673.3,638.9 c1.8,0.2,3.1,1.7,3.1,3.3s-1.3,2.7-3.1,2.4l0,0c-50.8-7.4-101.2-16.7-152-24.4c-1.8-0.3-3.1-1.7-3.1-3.3s1.3-2.7,3.1-2.4l0,0 C572.1,622.1,622.5,631.5,673.3,638.9z M584.8,593.8c-1-1.4-0.6-3.2,0.6-4s3-0.1,4.1,1.3c1.8,2.8,2.7,4.2,4.4,6.9 c0.1-2.4,0.1-3.6,0.2-5.9c0-1.6,1.4-2.6,2.8-2.2c1.6,0.3,2.8,1.9,2.6,3.3c-0.1,2-0.1,2.9-0.2,4.9c1.6-1.7,2.4-2.6,4-4.2 c1-1.1,2.8-1,4,0.3c1.2,1.2,1.4,3.1,0.4,4.2c-3.3,3.4-5,5.1-8.3,8.5c2.7,4.2,4.1,6.3,6.8,10.4c1,1.4,0.6,3.2-0.6,4 c-0.6,0.3-1,0.4-1.6,0.3c-0.8-0.1-1.6-0.7-2.2-1.6c-2.4-3.6-3.6-5.4-6-9.1c-2.6,2.8-4,4.3-6.6,7.1c-0.6,0.5-1.4,0.8-2.2,0.7 c-0.6-0.1-1.2-0.4-1.8-0.9c-1.2-1.2-1.4-3.1-0.4-4.2c3.1-3.2,4.6-4.8,7.7-8C589.4,600.8,587.9,598.5,584.8,593.8z M613.8,598.7 c-1-1.4-0.6-3.2,0.6-4c1.2-0.8,3.1-0.1,4.1,1.3c1.8,2.8,2.7,4.2,4.6,6.9c0.1-2.4,0.1-3.6,0.2-5.9c0-1.6,1.5-2.6,2.9-2.2 c1.7,0.3,2.9,1.9,2.7,3.3c-0.1,2-0.1,2.9-0.2,4.9c1.7-1.7,2.5-2.6,4.2-4.3c1.1-1.1,3-1,4.2,0.3c1.3,1.2,1.5,3.1,0.4,4.2 c-3.5,3.4-5.2,5.1-8.7,8.5c2.9,4.2,4.3,6.2,7.2,10.4c1.1,1.4,0.6,3.2-0.6,4c-0.6,0.3-1.1,0.5-1.7,0.4c-0.8-0.1-1.7-0.7-2.3-1.6 c-2.5-3.6-3.8-5.4-6.3-9c-2.8,2.8-4.1,4.3-6.9,7.1c-0.6,0.5-1.4,0.8-2.3,0.7c-0.6-0.1-1.2-0.4-1.9-0.9c-1.2-1.2-1.4-3.1-0.4-4.2 c3.1-3.2,4.7-4.8,7.9-8C618.5,605.8,616.9,603.4,613.8,598.7z M666.2,626.8c1.1,1.4,0.7,3.2-0.7,4c-0.7,0.3-1.1,0.5-1.8,0.4 c-0.9-0.1-1.8-0.7-2.4-1.6c-2.6-3.6-3.9-5.4-6.5-9c-2.9,2.9-4.3,4.3-7.2,7.2c-0.6,0.5-1.5,0.8-2.4,0.7c-0.6-0.1-1.3-0.4-1.9-0.9 c-1.3-1.2-1.5-3.1-0.4-4.2c3.3-3.2,4.9-4.8,8.2-8c-3.3-4.6-4.9-6.9-8.2-11.5c-1.1-1.4-0.6-3.2,0.6-4c1.3-0.8,3.2-0.1,4.3,1.3 c1.9,2.8,2.8,4.1,4.8,6.9c0.1-2.4,0.1-3.6,0.2-5.9c0-1.6,1.5-2.7,3-2.2c1.7,0.3,3.1,1.9,2.8,3.3c-0.1,2-0.1,2.9-0.2,4.9 c1.7-1.7,2.6-2.6,4.4-4.3c1.1-1.1,3.1-1,4.4,0.2c1.3,1.2,1.5,3.1,0.4,4.2c-3.6,3.4-5.4,5.1-9,8.6 C661.8,620.7,663.3,622.7,666.2,626.8z M640.7,590.7L640.7,590.7c10.2-2.7,20.5-5.3,30.7-8c-0.2,4.5-0.3,6.7-0.5,11.2 C660.8,592.9,650.7,591.8,640.7,590.7z M640.7,584.5L640.7,584.5c-0.1-5.1-0.1-7.7-0.2-12.8c11.4-8,22.9-16.1,34.7-23.5 c0,4.9-3.3,8.4-3.3,8.4c0,7.5,0,11.2,0,18.7C661.4,578.4,651.1,581.4,640.7,584.5z M679.6,558.3c0-0.8,0.4-1.4,1.3-1.7 c1.1-0.3,3.6-1.4,3.6-2.8c0-0.4-0.9-0.9-1.8-1.7c-1.6-1.2-4.2-3.3-4.2-6.3c0-3.3,2.7-3.9,4.5-4.3s1.8-0.6,1.8-1.2s-0.4-1.1-2.2-2.2 s-4.2-2.8-4-5.9c0.2-2.8,2.5-4,4-4.6c1.3-0.6,1.8-1,1.8-1.6c0.2-1.4-1.3-2.9-3.1-4.3c-0.4-0.3-0.7-0.7-1.1-1 c-0.7-0.7-0.9-1.6-0.4-2.3c0.4-0.8,1.1-1.1,2-1s4.2,0.6,4.7,0.6c0.1,0,0.1,0,0.2,0c4.7,0.7,7.1,1.1,11.9,1.8c2.5,0.3,5,0.6,5.6,2.6 c0.7,1.5-0.7,2.6-1.6,3.3c-0.9,0.7-2,1.6-2,2.6c0,0.8,0.9,2,1.8,2.9c1.1,1.4,2.5,2.8,2.7,4.7c0.2,2.5-1.8,3.7-3.6,4.7 c-1.1,0.7-2.5,1.5-2.5,2.1c0.2,0.2,1.4,1,1.8,1.3c1.6,1,4.3,2.6,4.1,5.1c-0.2,3.1-2.5,4.6-3.9,5.7c-0.7,0.3-1.4,1.1-1.4,1.3 c0.2,0.4,1.8,1.3,2.5,1.8c2,1.3,4.3,2.6,4.3,4.9c-0.8,34.1-0.9,68.3-1.1,102.3c0,0.2,0,0.2,0,0.4c-4.6,21.2-22.5,40.3-45.7,37.4 c-0.2,0-0.7-0.1-0.9-0.1c-25.6-4-39.1-30.3-44.5-53.6c-0.2-1.1,0.2-1.8,1.2-2.1c0.8-0.3,1.9,0.3,2.5,1.2 c6,10.8,17.4,17.3,29.6,18.6c10.6,1.5,23.9-0.2,30.9-9.3c0.1-0.1,0.1-0.1,0.2-0.2C683.5,625.4,680,590.5,679.6,558.3z M708.2,661.2 c0-0.6,0-0.9,0-1.4c0.5-0.1,0.8-0.1,1.4-0.2c10.4-1.8,22.8,4.2,30.8,10.3c5.5,3.5,10.6,6.7,14.9,7.4c11.7,1.7,24.4-9,24.6-9.2 c1.5,1,2.2,1.4,3.7,2.4c-3.1,7.5-4.7,11.3-7.8,18.8c-24.7-2.3-49.3-4.9-73.9-7.8c0.6-1.1,1-1.6,1.6-2.7 C703.5,678.5,707.5,670.8,708.2,661.2z M597.2,669.4c13.9,1.3,26.9,14.9,33.4,26.5c0.6,1.5,0,2.3-0.4,2.4c-0.3,0.2-0.4,0.3-0.6,0.5 c-21.4-3.4-42.7-7.1-64-10.6c-0.8-0.1-1.3-0.2-2.1-0.3c0-0.8,0-1.2,0-2.1C569.8,674.6,584.5,667.7,597.2,669.4z M577,658.2 c1.2,0.2,1.9,0.3,3.1,0.5c1.8-8.3,10.2-8.8,16.8-7.7c6.8,1.2,11.8,3.7,14.9,7.5c2.9,3.6,2.9,6.7,2.7,7c0,0.7,0,1.1,0,1.9 c-10.8-1.5-21.5-3-32.3-4.4c-0.4,0.1-0.6,0.1-1,0.2C579.4,661.2,578.6,660.2,577,658.2z M612.8,636.8c10.7,2,16.2,3,27.4,5 c0.3,0.2,0.4,0.3,0.6,0.5c0.4,0.3,10.9,8,16.6,15.5c1.6,2.1,2.4,3.2,3.9,5.3c-10.1-1.5-20.2-3-30.3-4.6c-0.3-0.2-0.4-0.3-0.6-0.5 c-6.3-4.3-11.5-8.4-15.4-16.5C614.1,639.6,613.7,638.7,612.8,636.8z M581.5,631.5c-0.9,1.6-1.4,2.4-2.3,4 c-3.7,6.8-9.1,9.2-15.4,11.5c-0.3,0.1-0.4,0.2-0.6,0.3c-10.1-1.6-20.2-3.2-30.4-4.7c1.6-1.7,2.4-2.5,3.9-4.1 c5.7-5.9,16.2-10.3,16.7-10.4c0.3-0.1,0.4-0.2,0.6-0.3C565.2,629.2,570.8,630,581.5,631.5z M549.7,608.1c1.1,1.4,0.6,3.2-0.6,4 c-0.6,0.3-1.1,0.5-1.7,0.4c-0.9-0.1-1.7-0.7-2.4-1.6c-2.6-3.6-3.9-5.4-6.5-9c-2.9,2.9-4.3,4.3-7.2,7.2c-0.7,0.5-1.5,0.8-2.4,0.7 c-0.7-0.1-1.3-0.4-2-0.9c-1.3-1.2-1.5-3.1-0.4-4.2c3.4-3.2,5-4.8,8.4-8c-3.3-4.6-5-6.9-8.4-11.6c-1.1-1.4-0.7-3.2,0.7-4 c1.3-0.8,3.3-0.1,4.4,1.3c1.9,2.8,2.9,4.1,4.8,6.9c0.1-2.4,0.1-3.6,0.2-5.9c0-1.6,1.5-2.7,3.1-2.2c1.7,0.3,3,1.9,2.8,3.3 c-0.1,2-0.1,2.9-0.2,4.9c1.7-1.7,2.6-2.6,4.3-4.3c1.1-1.1,3-1,4.3,0.3c1.3,1.2,1.5,3.1,0.4,4.2c-3.5,3.4-5.3,5.1-8.9,8.5 C545.4,602,546.8,604,549.7,608.1z M521.3,569.8c0-4.8,0-7.2,0-12c10.7,5.8,21.3,11.6,31.9,17.6l0,0 C542.6,573.5,531.9,571.6,521.3,569.8z M553,571.9L553,571.9L553,571.9L553,571.9c-10.5-6.8-21-13.5-31.7-20c0-7.9,0-11.9,0-19.8 c0,0-3.8-0.1-3.3-4c10.1-2.3,26.9,20.9,35.2,28C553.1,562.4,553.1,565.6,553,571.9z M491.2,646.4c0.6,1.2,1,1.9,1.6,3.1 c-23.5-3.3-46.9-6.3-70.5-9c-2.5-6.9-4.8-14.1-6.7-21.3c3.5,3.5,13.8,12.4,23.3,13.1c4.6,0.3,9.7-1.8,15-4 c10.7-5.5,19.6-5.1,30.9-2.7c0.5,0.2,0.8,0.4,1.4,0.6c0,0.6,0,0.9,0,1.4C486.9,637.5,491,646.3,491.2,646.4z M433.4,664.8 c-1.6-3.3-3.5-6.4-4.8-9.6c-0.7-1.3-1.2-2.6-1.8-3.9c4.4-2.4,9-4.2,13.6-3.8c6.7,0.4,12.9,4.6,19.1,8.5c5.7,3.8,11.7,7.6,17.4,8.2 c7.8,0.6,9.3-0.4,11.4-1.8c1.1-0.9,2.5-1.7,4.5-2.5c0.8-0.3,1.2-0.5,2-0.8c0.4,0.8,0.5,1.2,0.9,2c2.5,4.9,11.5,11.7,14.9,13.8 c2.8,1.9,4.2,2.8,6.9,4.7c-27.2-3.9-54.5-7.4-81.8-10.6C434.8,667.4,434.1,666.1,433.4,664.8z M711.1,573.2 c21.1-5.4,42.2-11,63.2-16.7c0.2,0.6,0.7,1.1,0.9,1.7c3.2,8.1,6,16.4,8.2,24.6c1.6,6.1,2.5,12.4,3.4,18.6l0,0l0,0l0,0 c-25.1,0.3-50.1,0.2-75.2-0.2C711.5,591.9,711.3,582.5,711.1,573.2z M712.3,564.5c-0.7-3.6-2.5-7.3-6.1-9.6 c2.9-1.1,5.2-4.7,2.5-7.7c-1.1-1.4-5-3.1-3.2-4.9c2-2,5.7-4.6,3.9-8.1c-0.7-2.3-3.4-4.8-3.4-7.2c12.3-6.9,24.7-13.8,37-20.8 c9.7,12.2,18.2,24.7,25.9,38.3C750.1,551.3,731.2,557.9,712.3,564.5z M713.2,511.4c-3.4,1.2-6.8,8.6-10.2,5.1 c-6.3-2.5-13.1-1.7-19.6-3c-4.7-1.3-12,0.6-8.2,6.3c4.7,1.9,4,8.6-0.5,9.2c-4.9,3,4.9,6,2.7,8.8c-12.3,9.1-24.6,18.2-36.7,27.5 c0-10.2,0-20.4,0-30.7c18.1-23.9,36.6-47.5,55.2-71c13.4,10,25.6,20.5,37.4,32.2C726.7,500.9,719.8,506.2,713.2,511.4z M628.7,430.1c1.1,0.4,1.7,1.3,1.7,2.3s-0.8,1.7-1.9,1.5c-14.2-2.4-29.9,4-29.1,20.2c0.8,16.2,14.6,34.1,30.9,36.5 c0.6,0.1,1.1,0.4,1.5,0.9s0.6,0.9,0.6,1.5c0,30.8-0.1,61.6-0.1,92.4c0,0.6-0.2,1.2-0.8,1.5c-0.4,0.1-0.8,0.3-1.3,0.2 c-0.2,0-0.4-0.1-0.4-0.1c-21.8-9.2-43.4-19-65.2-28.2c-0.8-0.3-1.5-1.3-1.5-2.1c-0.1-38.4-0.3-76.8-0.4-115.2c0-0.2,0-0.6,0.2-0.8 C573.9,412.5,606.2,423.7,628.7,430.1z M558.9,430.7c-12.2,18.3-7.2,55.3-7.5,76.7c-12.4-25.9-25.1-51.6-37.7-77.4 c12.9-4.8,26.4-7.9,40.1-9.4C555.9,424.6,556.9,426.7,558.9,430.7z M487.4,495.8c0,0-5,2.8-4.6,6.2c0,3.1,5.9,4.1,5.9,7.2 c0,3.3-5.2,3-5.5,6.1c-0.2,2.9,5,6.8,5,6.8c-3.3,2.6-4.9,3.9-8.2,6.5c-16.7-9.4-33.5-18.6-50.3-27.7c6.9-12.4,15.5-23.8,25.6-33.7 C466,476.7,476.7,486.2,487.4,495.8z M481.9,538.1c0.2,11.1,0.3,16.6,0.5,27.7c-23.3-5-46.5-9.8-69.9-14.2 c2.2-14,6.3-27.7,12.2-40.6C443.8,519.9,462.9,528.9,481.9,538.1z M411.1,563.4c23.5,3.5,47,7.3,70.4,11.3c0,13.1,0,26.1,0,39.2 c-22.8-3.1-45.7-5.9-68.5-8.5c-1.4-9.2-2.3-18.4-2.3-27.9C410.6,572.7,410.6,567.9,411.1,563.4z" fill="#FFFFFF"/>
    <path d="M553.2,575.4c-10.6-6-21.2-11.8-31.9-17.6c0,4.8,0,7.2,0,12C531.9,571.6,542.6,573.5,553.2,575.4z" fill="#FF9C10"/>
    <path d="M518.2,528.3c-0.4,3.9,3.3,4,3.3,4c0,7.9,0,11.9,0,19.8c10.6,6.6,21.2,13.3,31.6,20 c0.1-6.3,0.1-9.5,0.2-15.8C545.1,549.3,528.1,526,518.2,528.3z" fill="#FF9C10"/>
    <path d="M553,571.9L553,571.9L553,571.9z" fill="#FF9C10"/>
    <path d="M481.4,613.7c0-13.1,0-26.1,0-39.2c-23.4-4.1-46.9-7.8-70.4-11.3c-0.5,4.5-0.7,9.2-0.7,13.9 c0,9.3,0.7,18.6,2.3,27.9C435.6,607.7,458.5,610.6,481.4,613.7z" fill="#FF9C10"/>
    <path d="M482.6,565.8c-0.2-11.1-0.3-16.6-0.5-27.7c-19-9.2-38.1-18.2-57.2-27.1c-5.9,12.9-10,26.6-12.2,40.6 C436,556.1,459.3,560.8,482.6,565.8z" fill="#FF9C10"/>
    <path d="M480.3,528.4c3.3-2.6,4.9-3.9,8.2-6.5c0,0-5.2-4-5-6.9c0-3.1,5.2-2.8,5.5-6.1c0-3.1-5.9-4.1-5.9-7.2 c-0.5-3.4,4.6-6.2,4.6-6.2c-10.6-9.7-21.3-19.3-32-28.8c-10.1,9.9-18.7,21.3-25.6,33.7C446.8,509.7,463.6,519,480.3,528.4z" fill="#FF9C10"/>
    <path d="M789.2,613.6c-26.3-0.7-52.6-1.8-78.8-3.3c0.1,12.7,0.3,25.4,0.4,38.1c24.6,3,49.3,5.7,74,8.1 c1.6-10.5,3.2-20.9,4.9-31.4C789.9,621,789.7,617.3,789.2,613.6z" fill="#FF9C10"/>
    <path d="M785,656.3L785,656.3L785,656.3z" fill="#FF9C10"/>
    <path d="M786.9,601.7L786.9,601.7L786.9,601.7z" fill="#FF9C10"/>
    <path d="M783.3,583c-2.1-8.2-4.8-16.5-8.2-24.6c-0.2-0.6-0.7-1.1-0.9-1.7c-21,5.8-42.1,11.3-63.2,16.7 c0.1,9.4,0.3,18.8,0.4,28.2c25.1,0.4,50.1,0.5,75.2,0.2C786,595.4,784.9,589.1,783.3,583z" fill="#FF9C10"/>
    <path d="M706,527.1c0,2.5,2.7,4.7,3.4,7.2c1.8,3.5-1.8,5.9-3.9,8.1c-1.8,1.8,2,3.6,3.2,4.9c2.7,2.8,0.4,6.6-2.5,7.7 c3.4,2.3,5.2,6,6.1,9.6c18.9-6.6,37.8-13.1,56.6-19.9c-7.7-13.6-16.2-26.1-25.9-38.3C730.6,513.3,718.3,520.2,706,527.1z" fill="#FF9C10"/>
    <path d="M671.2,582.6c-10.2,2.7-20.3,5.3-30.5,8l0,0c10,1.1,20,2.2,30,3.2C670.9,589.4,671,587.1,671.2,582.6z" fill="#FF9C10"/>
    <path d="M671.9,556.6c0,0,3.3-3.4,3.3-8.4c-11.8,7.4-23.3,15.4-34.7,23.5c0.1,5.1,0.1,7.7,0.2,12.8l0,0 c10.4-3.1,20.8-6.1,31.1-9.2C671.8,567.8,671.8,564.1,671.9,556.6z" fill="#FF9C10"/>
    <path d="M507.2,485.1c7.6,1.5,13.6,1.5,13.6,6.5c0,4.9-3.8,3.8-3.8,7.1c0,3.5,5.8,3.9,5.8,8.5 c0,4.5-4.2,2.9-4.2,6.4c0,2.9,4.4,3.7,4.4,3.7c10.1,10.5,20.1,21.1,30.1,31.8c0.1-9.7,0.1-19.3,0.2-29 c-17.4-28.3-35.1-56.4-53.1-84.3c-12.4,5.9-24.1,13.2-34.6,22c8.5,9.4,17,18.9,25.3,28.4C492.1,483,499.6,483.6,507.2,485.1z" fill="#FF9C10"/>
    <path d="M551.5,507.4c0.2-21.2-4.9-58.7,7.5-76.7c-2-4-3.1-5.9-5.1-9.9c-13.7,1.5-27.2,4.7-40.1,9.4 C526.4,455.9,539.1,481.6,551.5,507.4z" fill="#FF9C10"/>
    <path d="M639.5,484.9c4.3,1.1,0.9,4.5,1.3,6.8c0,10.5,0,21,0,31.5c14.8-22.4,29.6-44.8,44.6-67.1 c-3.6-2.3-7.4-4.5-11.1-6.7c-6.9-3.7-14.1-7.2-21.1-10.5c-3.7-1.8-7.6-3.4-11.2-5c-0.4-0.1-0.9-0.3-1.1-0.4 c-5.1,16.2-10.2,32.4-15.3,48.6C629.9,483.6,634.6,484.3,639.5,484.9z" fill="#FF9C10"/>
    <path d="M695.9,463.3c-18.5,23.6-37,47.2-55.2,71c0,10.2,0,20.4,0,30.7c12.2-9.2,24.5-18.3,36.7-27.5 c2.4-2.7-7.5-5.6-2.7-8.8c4.4-0.6,5.1-7.3,0.5-9.2c-3.8-5.7,3.6-7.5,8.2-6.3c6.5,1.1,13.2,0.6,19.6,3c3.6,3.6,6.8-3.9,10.2-5.1 c6.6-5.1,13.5-10.5,20.1-15.9C721.5,483.7,709.2,473.2,695.9,463.3z" fill="#FF9C10"/>
    <path d="M634.3,765.2c-7.4-0.9-13.6,2-19.6,4.5c-6.4,2.9-12.1,5.6-18.9,3.8c-5.8-1.6-10-5.4-14.5-9.4 c-5.3-4.8-10.9-9.8-20.6-11.4c-0.3,0-0.4-0.1-0.6-0.1c-0.4-0.1-0.6-0.1-1.1-0.2l0,0c-9.3-0.9-20.5,2.4-28.6,7 c10.5,5.2,20.8,9.8,31.7,14.1c18.6,5.4,37.4,9.2,56.5,12.4c0.1,0,0.1,0,0.2,0c3.1,0.1,6,0.1,8.9,0.2c12.6-2.2,25.2-4.3,37.8-6.5 C656.2,773.1,645.8,767.1,634.3,765.2z" fill="#083D9C"/>
    <path d="M672.2,779.2c-10.9-8.2-24.4-16.4-38.1-18.4c-8.5-1.1-15.5,2.1-21.6,4.8c-5.7,2.6-10.9,5-16.3,3.6 c-4.8-1.2-8.4-4.5-12.5-8.3c-5.7-5.1-12.1-10.9-23.1-12.6c-0.3,0-0.4-0.1-0.6-0.1c-0.4-0.1-0.8-0.1-1.3-0.2 c-11.9-0.8-23.7,3-33.9,8.9c23.8,13.1,48.9,24.4,75.3,28.4c25.1,3.8,49.3,1.8,74.4-4.4C673.6,780.3,673.2,780,672.2,779.2z M618.9,785.8c-0.1,0-0.1,0-0.2,0c-19.1-3.2-37.9-7-56.5-12.4c-10.9-4.3-21.3-8.9-31.7-14.1c8-4.6,19.3-7.9,28.6-7l0,0 c0.4,0.1,0.6,0.1,1.1,0.2c0.3,0,0.4,0.1,0.6,0.1c9.7,1.5,15.3,6.6,20.6,11.4c4.5,4,8.8,8,14.5,9.4c6.8,1.8,12.6-1,18.9-3.8 c5.9-2.7,12.2-5.4,19.6-4.5c11.5,1.9,21.9,8,31.5,14.3c-12.6,2.2-25.2,4.3-37.8,6.5C625.1,786,621.9,786.1,618.9,785.8z" fill="#083D9C"/>
    <path d="M653.6,741.6c-3.5,2.2-7.2,4.3-16.1,3.5c-10.4-0.8-16.4-4.8-22.1-8.9c-5.1-3.5-9.8-6.8-17-7.8 c-8.1-1.2-14.6,0.6-21,2.2c-5.6,1.6-11,2.9-17.4,2.1c-7.4-0.8-15.4-5.7-23.3-10.2c-6.3-3.6-12.5-7.2-16.7-7.6 c-13.9-0.3-28.3,3.8-41.7,7c1.6,1.7,3.4,3.1,5.2,4.8c77.8,10.8,154.9,25.6,232.8,35.6c0,0,0,0,0.2,0c-11.7-11-26.2-19.9-42-23.2 C661,737.2,657.5,739.3,653.6,741.6z" fill="#083D9C"/>
    <path d="M651,738.1c-3.2,1.8-6.1,3.6-13.9,3c-9.1-0.6-14.5-4.3-20.1-8.1c-5.4-3.8-10.7-7.3-18.8-8.5 c-8.9-1.3-16.1,0.8-22.5,2.4c-5.4,1.4-10.4,2.8-15.9,2.2c-6.4-0.8-13.9-5.3-21.3-9.7c-7-3.9-13.4-7.8-18.7-8.3 c-15-0.4-30.7,4.1-45.2,7.6c1.1,1.2,2.3,2.4,3.7,3.4c13.4-3.1,27.8-7.3,41.7-7c4.2,0.4,10.4,4,16.8,7.6c7.9,4.7,16.1,9.5,23.3,10.2 c6.4,0.8,11.8-0.6,17.4-2.1c6.4-1.6,12.9-3.4,21-2.2c7.1,1,11.8,4.3,17,7.8c5.7,4,11.9,8.1,22.1,8.9c8.9,0.8,12.6-1.6,16.1-3.5 c3.9-2.3,7.5-4.4,20.6-2.4c15.8,3.2,30.3,12.2,42,23.2c1.1-0.7,2.3-1.4,3.4-2.3c-12.3-11.5-28.2-22.2-45.2-24.8 C659.6,732.9,655.4,735.5,651,738.1z" fill="#083D9C"/>
    <path d="M488.7,731.6c74.1,10.4,147.6,24.4,221.8,34c1.8-1,3.6-2.2,5.5-3.2c-77.9-10-155-24.9-232.8-35.6 C484.9,728.4,486.7,730,488.7,731.6z" fill="#083D9C"/>
    <path d="M714.7,715.9c-7.5-0.7-14.1,2.4-20.4,5c-6.1,2.7-11.9,5.4-18.3,4.7c-6.7-0.7-13.2-5.1-20-9.6 c-6.5-4.5-13.4-9.2-19.6-9.9c-6.2-0.7-12.7,1.5-18.8,3.6c-6.8,2.4-13.9,4.9-20.6,3.7c-6.4-1.1-11.8-5.3-17.8-9.8 c-6.2-4.7-12.8-9.7-21.1-11s-14.4,1.9-20.3,4.7c-5.9,3-11.4,5.7-18.5,4.3c-7.1-1.6-13.8-6.5-20.2-11.3c-6.3-4.8-12.5-9.1-18.6-9.9 c-7.3-1-18.3,4-26.6,7.6c-1.6,0.8-3,1.3-4.4,2c1.4,2,3,4.1,4.6,5.9c97.5,12.4,194,31.5,291.6,42.8c0.5-0.6,1.2-1.1,1.6-1.7 c0-0.2,0-0.4-0.2-0.4C740.1,725.7,727.1,718.7,714.7,715.9z" fill="#083D9C"/>
    <path d="M715,711.8L715,711.8c-0.1,0-0.1,0-0.2,0c-8.6-0.9-15.9,2.3-22.6,5.3c-5.6,2.5-11,4.9-16.3,4.4 s-11.5-4.5-17.8-8.9c-7.2-5-14.3-9.9-21.9-10.7c-7-0.9-13.9,1.5-20.5,3.9c-6.4,2.2-13,4.6-18.8,3.6c-5.4-0.9-10.4-4.9-15.7-8.8 c-6.4-4.8-13.6-10.3-23.2-11.8s-16.5,2-22.7,5.2c-5.5,2.7-10.1,5.1-15.9,3.8c-6-1.3-12.1-5.8-18.1-10.2 c-6.5-4.8-13.8-10.1-20.9-10.8c-9.2-0.9-20.6,3.7-28.9,7.9c-1.4,0.7-3,1.3-4.6,1.9c0.9,1.1,1.6,2.5,2.5,3.6c1.4-0.5,2.8-1.1,4.4-2 c8.1-3.6,19.3-8.5,26.6-7.6c6.2,0.8,12.3,5.3,18.6,9.9c6.3,4.8,13.1,9.6,20.2,11.3c7.3,1.7,12.8-1.2,18.5-4.3c5.9-3,12-6,20.3-4.7 c8.5,1.3,15,6.3,21.1,11c6,4.5,11.4,8.7,17.8,9.8c7,1.2,13.8-1.4,20.6-3.7c6.2-2.1,12.7-4.3,18.8-3.6c6.4,0.8,13,5.5,19.5,9.9 c6.7,4.7,13.3,9.1,20,9.6c6.4,0.7,12.2-2,18.3-4.7c6.3-2.9,12.9-5.7,20.4-5c12.3,2.8,25.5,9.7,32.5,20.6c0,0.2,0.2,0.4,0.2,0.4 c0.9-1.1,2.1-2,3-3.2C742.1,722.7,728.4,715.2,715,711.8z" fill="#083D9C"/>
    <path d="M457.6,700.4c95.1,12.2,189.2,30.8,284.5,42c1.1-1.1,2.5-2.4,3.7-3.5c-97.8-11.4-194.3-30.7-291.9-43.1 C455.1,697.4,456.2,698.8,457.6,700.4z" fill="#083D9C"/>
    <path d="M569.3,684.9c18.7,3.1,37.4,6.3,56.1,9.3c-6.4-9.2-15.3-18.3-26.1-20.6c-0.6-0.1-1-0.2-1.6-0.3 C586.8,672.1,576.4,677,569.3,684.9z" fill="#083D9C"/>
    <path d="M563.6,685.9c0,0.8,0,1.2,0,2.1c0.8,0.1,1.3,0.2,2.1,0.3c21.4,3.5,42.7,7.2,64,10.6 c0.3-0.2,0.4-0.3,0.6-0.5c0.4-0.3,1.1-1.1,0.4-2.4c-6.3-11.7-19.5-25.2-33.4-26.5C584.8,667.7,569.7,674.5,563.6,685.9z M625.3,694.3c-18.7-3-37.4-6.3-56.1-9.3c7.3-7.8,17.5-12.9,28.3-11.6c0.6,0.1,1,0.2,1.6,0.3C610.5,676.2,619,685.1,625.3,694.3z" fill="#083D9C"/>
    <path d="M736.2,699.4c-6.4,2.6-12.8,5.3-19.9,4c-8.6-1.5-11.1-3.2-14.1-6.1c-0.7-0.5-1.1-1.2-2-1.7 c-2.3,2.6-6.1,5-9.2,6.6c25.3,3.3,50.6,6.3,76,8.9c0.9-1.6,1.8-3.1,2.8-4.9c-6.9-6.4-12.6-10.3-17-10.8 C747.7,694.7,742.2,697,736.2,699.4z" fill="#083D9C"/>
    <path d="M734.2,695.6c-5.7,2.4-11.7,4.8-17.4,3.9c-7.7-1.4-9.3-2.8-11.3-4.7c-1.1-1.2-2.5-2.4-4.5-3.7 c-0.8-0.5-1.2-0.8-2-1.3c-0.4,0.7-0.5,1-0.9,1.7c-2.5,4.2-11.5,8.6-14.8,9.8c-2.8,1.1-4.1,1.7-6.9,2.8c29.5,4,59,7.6,88.7,10.7 c0.7-1.2,1.6-2.5,2.3-3.7c-25.4-2.6-50.7-5.6-76-8.9c3.1-1.6,7-4,9.2-6.6c0.7,0.5,1.4,1.2,2,1.7c2.9,2.8,5.4,4.6,14.1,6.1 c6.8,1.2,13.5-1.5,19.9-4c5.7-2.4,11.3-4.7,16.8-3.9c4.4,0.7,10.1,4.4,17,10.8c0.7-1.2,1.4-2.3,2.1-3.7 c-5.5-5.1-12.4-10.3-18.8-11.2C746.6,690.5,740.1,693.2,734.2,695.6z" fill="#083D9C"/>
    <path d="M493,664.1c-0.7,0.3-1.4,0.8-2,1.2c-2.9,2.1-5.4,3.2-14.1,2.5c-7.1-0.5-13.5-4.8-20-8.9 c-5.8-3.8-11.5-7.4-16.8-7.8c-3.2-0.2-7.2,1-12,3.8c1.6,3.3,3.2,6.5,4.8,9.6c23,2.6,46,5.5,68.9,8.7 C499.2,670.7,495.3,667.3,493,664.1z" fill="#083D9C"/>
    <path d="M517.5,679.5c-2.8-1.9-4.1-2.8-6.9-4.7c-3.4-2.3-12.4-8.9-14.9-13.8c-0.4-0.8-0.5-1.2-0.9-2 c-0.8,0.3-1.2,0.5-2,0.8c-2.3,0.7-3.4,1.6-4.5,2.5c-2,1.4-3.6,2.4-11.4,1.8c-5.7-0.5-11.7-4.4-17.4-8.2c-6.2-4.1-12.7-8.1-19.1-8.5 c-4.4-0.3-9.2,1.4-13.6,3.8c0.7,1.3,1.2,2.6,1.8,3.9c4.6-2.8,8.5-4,12-3.8c5.3,0.4,10.8,3.9,16.8,7.8c6.4,4.1,12.9,8.4,19.9,8.9 c8.7,0.7,11.2-0.4,14.1-2.5c0.7-0.3,1.1-0.9,2-1.2c2.3,3.2,6.1,6.6,9.3,9.1c-22.9-3.1-45.9-6-68.9-8.7c0.7,1.3,1.6,2.9,2.3,4.2 C463.4,672.1,490.5,675.6,517.5,679.5L517.5,679.5z" fill="#083D9C"/>
    <path d="M485.8,644.4c-1.4-3.5-3.2-9.3-3.9-15.8c-9.1-3.5-17.6,0-25.9,3.3c-6,2.4-11.5,4.6-17,4.2 c-8.1-0.7-15.9-5.7-21.4-10c1.6,4,2.4,6.1,3.9,10.1C442.9,638.7,464.4,641.5,485.8,644.4z" fill="#083D9C"/>
    <path d="M486.2,626.3c-0.5-0.2-0.8-0.4-1.4-0.6c-11.4-2.4-20.2-2.9-30.9,2.7c-5.5,2.2-10.6,4.3-15,4 c-9.5-0.7-19.8-9.8-23.3-13.1c1.8,7.2,3.9,14.2,6.7,21.3c23.5,2.7,47,5.7,70.5,9c-0.6-1.2-1-1.9-1.6-3.1c0,0-4.3-8.8-4.8-18.8 C486.4,627.2,486.3,626.9,486.2,626.3z M439.2,636.4c5.5,0.4,11.3-1.8,17-4.2c8.3-3.3,16.5-6.6,25.9-3.3c0.5,6.7,2.5,12.5,3.9,15.8 c-21.4-2.9-42.9-5.7-64.3-8.1c-1.6-4-2.4-6.1-3.9-10.1C423,630.4,431.1,635.6,439.2,636.4z" fill="#083D9C"/>
    <path d="M708.7,678c21.4,2.5,42.7,4.8,64.1,6.8c1.6-3.7,2.4-5.6,3.9-9.3c-5.3,3.2-13.4,6.7-21.4,5.4 c-5.5-0.8-11.3-4.3-17-8c-6.8-5-17-10.4-25.8-9.6C711.9,669.7,710,675,708.7,678z" fill="#083D9C"/>
    <path d="M701.9,681.2c24.6,2.9,49.2,5.5,73.9,7.8c3.1-7.5,4.7-11.3,7.8-18.8c-1.5-1-2.2-1.4-3.7-2.4 c-0.2,0.2-12.9,10.9-24.6,9.2c-4.6-0.7-9.6-3.9-14.9-7.4c-8-6.1-20.4-12-30.8-10.3c-0.5,0.1-0.8,0.1-1.4,0.2c0,0.6,0,0.9,0,1.4 c-0.5,9.8-4.8,17.3-4.8,17.5C702.8,679.6,702.5,680.1,701.9,681.2z M738.1,672.8c6,3.8,11.5,7.2,17,8c8,1.1,15.9-2.3,21.4-5.4 c-1.6,3.7-2.4,5.6-3.9,9.3c-21.4-2-42.8-4.3-64.1-6.8c1.4-3.1,3.2-8.4,3.9-14.7C721.1,662.4,731.4,667.7,738.1,672.8z" fill="#083D9C"/>
    <path d="M608.9,660.7c-2.2-2.6-6.5-4.6-12-5.6c-9.1-1.6-11.9,1.7-12.7,4.2c10.5,1.4,15.4,2.1,25.9,3.6 C609.9,662.1,609.5,661.4,608.9,660.7z" fill="#083D9C"/>
    <path d="M614.4,667.4c0-0.7,0-1.1,0-1.9c0-0.4,0.2-3.7-2.7-7c-3.1-3.8-8.1-6.3-14.9-7.5c-6.6-1.1-14.9-0.7-16.8,7.7 c-1.2-0.2-1.9-0.3-3.1-0.5c1.7,1.9,2.5,2.9,4.1,4.8c0.4-0.1,0.6-0.1,1-0.2C592.9,664.3,603.6,665.8,614.4,667.4z M596.8,654.9 c5.6,1,9.8,2.9,12,5.6c0.6,0.7,1,1.6,1.2,2.1c-10.5-1.4-15.4-2.2-25.9-3.6C585,656.8,587.7,653.3,596.8,654.9z" fill="#083D9C"/>
    <path d="M567,555.6c20.5,8.7,40.7,17.8,61.2,26.5c0-29.3,0-58.6,0.1-87.9c-17.6-3.9-31.9-22.8-32.8-40.6 c-1.2-12.4,7.2-22.1,19.5-23.4c-17.9-4-40.1-9.1-48.4,11.9C566.7,480,566.8,517.8,567,555.6z" fill="#CE1126"/>
    <path d="M562.5,440.3c0,0.2-0.2,0.4-0.2,0.8c0.1,38.4,0.3,76.8,0.4,115.2c0,0.8,0.6,1.8,1.5,2.1 c21.8,9.2,43.4,19,65.2,28.2c0.2,0,0.4,0.1,0.4,0.1c0.4,0.1,0.8-0.1,1.3-0.2c0.4-0.3,0.8-0.9,0.8-1.5c0-30.8,0.1-61.6,0.1-92.4 c0-0.6-0.2-1.1-0.6-1.5c-0.4-0.5-1.1-0.8-1.5-0.9c-16.4-2.4-30-20.4-30.9-36.5c-0.8-16.1,15-22.6,29.1-20.2 c1.1,0.2,1.9-0.5,1.9-1.5s-0.6-2-1.7-2.3C606.1,423.5,573.7,412.5,562.5,440.3z M614.9,430.1c-12.2,1.3-20.7,11-19.5,23.4 c0.9,17.8,15.2,36.7,32.8,40.6c0,29.3,0,58.6-0.1,87.9c-20.5-8.7-40.7-17.8-61.2-26.5c-0.1-37.8-0.3-75.6-0.4-113.4 C575.3,421.2,596.7,426.1,614.9,430.1z" fill="#630810"/>
    <path d="M497.8,520.5c1.4,1.2,2.9,2.9,2.9,4.9c0,2.5-2.7,3.5-5,4.3c-0.7,0.3-1.6,0.6-2,0.8 c0.7,34.1,0.8,68.2,0.9,102.4c4.3,20.7,19.5,42.2,41.5,46.3c18.9,4.3,33.4-12.7,38.8-28.7c-6.6,4.7-15.9,6.3-26.9,4.4 c-13.2-2.5-26.7-9.1-34.3-20.6c-4.8-16-2.3-35.9-2.2-52.3c0-16.2,0.3-32.5,0.4-48.8c-1.8-1.3-4.7-3.8-4.9-6.7 c-0.2-2.7,2-3.6,3.8-4.4c1.8-0.8,2.5-1.3,2.5-2.1c0-0.4,0-0.6-2-1.7c-1.8-0.9-4.7-2.3-4.7-5.6s2.9-4.1,4.7-4.7c1.3-0.4,2-0.7,2-0.9 c0-0.8-0.9-1.4-2.9-2.5c-2-1.1-4.9-2.8-5.2-5.7c-0.2-2.1,1.1-3.6,2.7-4.6c-4-0.5-6.1-0.7-10.1-1.2c0.9,1.2,1.8,2.7,1.6,4.3 c0,2.3-1.8,3.7-2.9,5c-0.7,0.5-1.4,1.3-1.6,1.8c0.2,0.4,1.4,1.4,2,2.1c1.8,1.7,4.1,3.7,4.1,6.1c0,2.7-2.5,3.6-4.3,4.1 c-0.5,0.1-1.4,0.4-1.6,0.6C495.5,518.3,496.7,519.3,497.8,520.5z" fill="#CE1126"/>
    <path d="M493.7,525.9c-2,0.8-4.3,1.5-4.3,3.7c0.8,34.2,0.8,68.6,0.9,102.8c0,0.2,0,0.2,0,0.4 c4.8,22.9,21.6,45.9,45.8,50.2c0.2,0,0.7,0.1,0.9,0.1c24.6,3.8,39.6-18.6,44.5-39.7c0.2-1-0.2-1.9-1.2-2.5 c-0.8-0.5-1.9-0.3-2.5,0.4c-6.6,9.5-18.9,11.5-29.6,9.3c-11.9-2.1-24.3-7.9-30.9-18.4c-0.1-0.1-0.1-0.1-0.2-0.2 c-5.1-32.1-1.3-67.1-0.7-99.4c0-0.8-0.4-1.5-1.3-2c-1.1-0.6-3.6-2.4-3.6-3.8c0-0.2,1.1-0.9,1.8-1.2c1.8-0.8,4.5-2,4.5-5.1 c0-3.3-2.9-4.7-4.7-5.6c-1.8-0.9-2-1.1-2-1.7c0-0.6,0.7-0.9,2.5-1.5s4.7-1.4,4.5-4.5c-0.2-3.3-3.3-5-5.6-6.2 c-1.6-0.8-2.7-1.4-2.7-2c0-1,3.1-2.6,4.3-3.1c0.9-0.3,1.6-0.8,2-1.2c0.7-0.5,0.9-1.3,0.4-2.2c-0.4-0.9-1.1-1.4-2-1.5 s-4.5-0.6-4.9-0.7c-0.1,0-0.1,0-0.2,0c-4.8-0.6-7.1-0.9-11.9-1.5c-2.5-0.3-5-0.7-5.7,1.1c-0.7,1.4,0.7,2.8,1.6,3.7 c0.9,0.9,2,2.1,2,3.2c0,0.8-0.9,1.7-2,2.4c-1.1,1.1-2.5,2.1-2.7,4.2c-0.2,2.2,1.8,4,3.6,5.6c1.1,1,2.5,2.2,2.5,2.8 c-0.2,0.2-1.4,0.6-1.8,0.8c-1.6,0.6-4.3,1.5-4.1,4c0.2,3.1,2.5,5.3,3.9,6.7c0.7,0.5,1.4,1.4,1.4,1.6 C496.2,525,494.6,525.6,493.7,525.9z M496.9,516c1.8-0.6,4.3-1.5,4.3-4.1c0-2.5-2.3-4.4-4.1-6.1c-0.7-0.7-1.8-1.7-2-2.1 c0.2-0.6,0.9-1.3,1.6-1.8c1.4-1.3,2.9-2.7,2.9-5c0-1.6-0.7-3.2-1.6-4.3c4.1,0.5,6.1,0.7,10.1,1.2c-1.6,1.2-2.9,2.5-2.7,4.6 c0.2,2.9,3.1,4.6,5.2,5.7c2,1.1,2.9,1.7,2.9,2.5c0,0.4-0.7,0.5-2,0.9c-1.8,0.6-4.7,1.4-4.7,4.7s3.1,4.8,4.7,5.6 c1.8,0.9,2,1.1,2,1.7c0,0.8-0.9,1.3-2.5,2.1c-1.8,0.8-4,1.7-3.8,4.4c0.2,3.1,3.1,5.6,4.9,6.7c-0.1,16.3-0.4,32.5-0.4,48.8 c0,16.4-2.7,36.3,2.2,52.3c7.5,11.6,21,18.2,34.3,20.6c10.8,1.9,20.2,0.3,26.9-4.4c-5.5,15.9-19.9,33-38.8,28.7 c-22-4.1-37.2-25.6-41.4-46.3c-0.1-34.1-0.2-68.2-0.9-102.4c0.5-0.1,1.4-0.6,2-0.8c2-0.8,4.7-1.6,5-4.3c0-2.1-1.6-3.7-2.9-4.9 c-1.4-1.2-2.3-2.2-2.5-3.8C495.5,516.5,496.4,516.2,496.9,516z" fill="#630810"/>
    <path d="M647.7,670.8c-9.2-0.8-20.5-5.9-26.9-12.9c5.7,18.1,18.2,38.1,38.8,40.7c21.2,2.6,37.3-15.4,41.4-34.6 c0.2-33.9,0.3-67.9,1.1-101.9c-0.5-0.3-1.4-1-2-1.3c-2-1.3-4.7-2.9-5-5.6c0-2.1,1.6-3.3,2.9-4.1c1.4-0.9,2.3-1.6,2.5-3.2 c-0.2-0.2-1.1-0.8-1.6-1c-1.8-1.1-4.3-2.6-4.3-5.3c0-2.5,2.3-3.8,4.1-5c0.7-0.5,1.8-1.2,2-1.6c-0.2-0.6-0.9-1.6-1.6-2.3 c-1.4-1.6-2.9-3.5-2.9-5.7c0-1.6,0.7-3,1.6-3.9c-4.4-0.7-6.6-1-11-1.7c0.9,1.4,1.8,2.9,1.6,4.7c-0.2,2.6-2.2,3.8-3.8,4.4 c-1.3,0.6-2,1-2,2c0,0.4,0.2,0.6,1.8,1.7c1.8,1.1,4.2,2.8,4.2,5.9c0,3.3-2.9,3.9-4.5,4.5c-1.8,0.4-1.8,0.6-1.8,1.2 c0,1,0.7,1.5,2.2,2.8c1.6,1.2,3.8,3,3.6,5.4c-0.2,3.1-3.1,4.7-4.9,5.3c0.1,16.3,0.4,32.6,0.4,48.8c0,15.5,3.2,36.5-2.3,51.5 C674.2,670.5,659.3,672.4,647.7,670.8z" fill="#CE1126"/>
    <path d="M678.6,657.5c-7,9.1-20.3,10.8-30.9,9.3c-12.1-1.5-23.5-7.8-29.6-18.6c-0.4-0.9-1.7-1.5-2.5-1.2 s-1.4,1.2-1.2,2.1c5.6,23.2,18.9,49.6,44.5,53.6c0.2,0,0.7,0.1,0.9,0.1c23.2,2.9,41.1-16.1,45.7-37.4c0-0.2,0-0.2,0-0.4 c0.2-34,0.3-68.2,1.1-102.3c0-2.3-2.3-3.6-4.3-4.9c-0.9-0.5-2.5-1.6-2.5-1.8s0.9-0.9,1.4-1.3c1.6-1,3.6-2.6,3.9-5.7 c0.2-2.6-2.3-4-4.1-5.1c-0.7-0.3-1.8-1.1-1.8-1.3c0-0.6,1.4-1.7,2.5-2.1c1.8-1,3.8-2.4,3.6-4.7c-0.2-1.9-1.6-3.3-2.7-4.7 c-0.9-1.1-1.8-2.1-1.8-2.9c0-1,1.1-1.9,2-2.6c0.9-0.7,2.3-1.6,1.6-3.3s-3.2-2.3-5.6-2.6c-4.8-0.7-7.2-1.1-11.9-1.8 c-0.1,0-0.1,0-0.2,0c-0.4-0.1-3.8-0.3-4.7-0.6c-0.9-0.1-1.8,0.2-2,1s-0.2,1.6,0.4,2.3c0.2,0.2,0.7,0.5,1.1,1 c1.8,1.7,3.1,2.9,3.1,4.3c0,0.8-0.4,1-1.8,1.6c-1.6,0.8-3.6,1.8-4,4.6c-0.2,3.1,2.2,4.6,4,5.9c1.6,1,2.2,1.5,2.2,2.2 c0,0.6-0.2,0.8-1.8,1.2s-4.5,1-4.5,4.3c0,3.1,2.4,5.1,4.2,6.3c0.9,0.5,1.8,1.3,1.8,1.7c0,1.4-2.5,2.5-3.6,2.8 c-0.9,0.3-1.3,0.8-1.3,1.7c0.5,32.3,3.6,66.9-0.8,99C678.6,657.3,678.6,657.3,678.6,657.5z M684.2,608.7c0-16.3-0.3-32.5-0.4-48.8 c1.8-0.8,4.7-2.4,4.9-5.3c0.2-2.6-2-4.2-3.6-5.4s-2.2-2-2.2-2.8c0-0.6,0-0.6,1.8-1.2c1.6-0.4,4.5-1,4.5-4.5c0-3.1-2.7-4.9-4.2-5.9 c-1.6-1-2-1.3-1.8-1.7c0-1,0.7-1.3,2-2c1.6-0.6,3.6-1.8,3.8-4.4c0.2-1.8-0.7-3.4-1.6-4.7c4.4,0.7,6.6,1,11,1.7 c-0.9,0.9-1.8,2.2-1.6,3.9c0,2.3,1.8,4.1,2.9,5.7c0.7,0.7,1.4,1.6,1.6,2.3c-0.2,0.4-1.4,1.1-2,1.6c-1.8,1.2-4.1,2.5-4.1,5 c0,2.7,2.5,4.2,4.3,5.3c0.5,0.3,1.4,0.8,1.6,1c-0.2,1.4-1.4,2.3-2.5,3.2c-1.4,0.9-2.9,2.1-2.9,4.1c0,2.5,2.7,4.3,5,5.6 c0.7,0.5,1.6,1,2,1.3c-0.7,33.9-0.9,67.9-1.1,101.9c-4.2,19.2-20.3,37.2-41.4,34.6c-20.6-2.6-33.2-22.6-38.8-40.7 c6.4,6.9,17.6,12,26.9,12.8c11.9,1.5,26.3-0.7,34.3-10.5C686.2,644.2,684.3,625.5,684.2,608.7z" fill="#630810"/>
    <path d="M561.7,641.3c3.8-1.5,7-2.8,9.5-5.5c-6.2-0.8-9.3-1.3-15.6-2.1c-1.5,0.8-5.6,2.6-9.5,5.1 C552.4,639.8,555.5,640.3,561.7,641.3z" fill="#630810"/>
    <path d="M536.5,638.6c-1.6,1.7-2.4,2.5-3.9,4.1c10.1,1.5,20.3,3.1,30.4,4.7c0.3-0.1,0.4-0.2,0.6-0.3 c6.3-2.3,11.5-4.7,15.4-11.5c0.9-1.6,1.4-2.4,2.3-4c-10.7-1.5-16.2-2.3-27.5-3.8c-0.3,0.1-0.4,0.2-0.6,0.3 C552.8,628.1,542.2,632.7,536.5,638.6z M571.4,635.8c-2.5,2.7-5.6,4-9.5,5.5c-6.3-1-9.4-1.5-15.8-2.5c3.7-2.5,8-4.5,9.5-5.1 C561.9,634.6,565.1,635,571.4,635.8z" fill="#630810"/>
    <path d="M622.9,644.5c2.5,3.5,5.6,5.8,9.6,8.5c6.2,1,9.3,1.5,15.6,2.4c-3.7-3.6-7.9-7-9.4-8 C632.3,646.2,629.1,645.6,622.9,644.5z" fill="#630810"/>
    <path d="M630.4,658.2c0.3,0.2,0.4,0.3,0.6,0.5c10.1,1.6,20.2,3.1,30.3,4.6c-1.6-2.1-2.4-3.2-3.9-5.3 c-5.7-7.6-16.2-15.2-16.6-15.5c-0.3-0.2-0.4-0.3-0.6-0.5c-11.2-2-16.7-3-27.4-5c0.9,1.9,1.4,2.8,2.3,4.7 C618.7,649.8,624.1,653.9,630.4,658.2z M632.5,653c-3.8-2.7-6.9-5-9.6-8.5c6.2,1.2,9.3,1.7,15.6,2.9c1.5,1.3,5.5,4.4,9.4,8 C641.7,654.4,638.6,654,632.5,653z" fill="#630810"/>
    <path d="M521.3,614.5c-1.8-0.3-3.1,0.8-3.1,2.4c0,1.6,1.3,3.1,3.1,3.3c50.7,7.6,101.2,17,152,24.4l0,0 c1.8,0.2,3.1-0.8,3.1-2.4c0-1.6-1.3-3.1-3.1-3.3C622.5,631.5,572.1,622.1,521.3,614.5L521.3,614.5z" fill="#630810"/>
    <path d="M542,598.2c0,1.2-1.1,2.1-2.4,2.3c-0.4,0.4-0.7,0.6-1.1,1.1c2.6,3.6,3.9,5.4,6.5,9c0.6,0.9,1.5,1.5,2.4,1.6 c0.6,0.1,1.3,0,1.7-0.4c1.3-0.8,1.5-2.4,0.6-4c-2.9-4.2-4.4-6.2-7.3-10.4C542.2,597.8,542.1,597.9,542,598.2L542,598.2z" fill="#630810"/>
    <path d="M536.3,588.9c-1.9-2.8-2.9-4.1-4.8-6.9c-1.1-1.4-2.9-1.9-4.4-1.3c-1.3,0.8-1.5,2.5-0.7,4 c3.4,4.6,5,6.9,8.4,11.6c0.5-0.5,0.8-0.7,1.3-1.2C536.2,592.6,536.2,591.4,536.3,588.9z" fill="#630810"/>
    <path d="M550.8,585c-1.3-1.2-3.2-1.3-4.3-0.3c-1.7,1.7-2.6,2.6-4.3,4.3c-0.2,3.7-0.3,5.5-0.4,9.2 c0.2-0.2,0.3-0.3,0.4-0.6c3.6-3.4,5.3-5.1,8.9-8.5C552.3,588.1,552.1,586.2,550.8,585z" fill="#630810"/>
    <path d="M538.9,600.4L538.9,600.4c-1.7-0.3-3.1-1.9-3.1-3.3c0-0.8,0-1.2,0-2.1c-0.5,0.5-0.8,0.7-1.3,1.2 c-3.2,3.2-4.9,4.8-8.1,8.1c-1.1,1.1-0.9,3,0.4,4.2c0.7,0.5,1.3,0.8,2,0.9c0.9,0.1,1.8-0.2,2.4-0.7c2.9-2.9,4.3-4.3,7.2-7.2 c0.4-0.4,0.7-0.6,1.1-1.1C539.4,600.5,539.1,600.5,538.9,600.4z" fill="#630810"/>
    <path d="M536.1,595.1c0,0.8,0,1.2,0,2.1c0,1.6,1.3,3.1,2.8,3.3l0,0c0.2,0,0.4,0.1,0.7-0.1c1.3,0,2.4-0.9,2.4-2.3 l0,0c0.2-3.7,0.3-5.5,0.4-9.2c0.1-2,0.1-2.9,0.2-4.9c0-1.6-1.3-3.1-2.8-3.3c-1.7-0.3-3.1,0.8-3.1,2.2c-0.1,2.4-0.1,3.6-0.2,5.9 C536.3,591.3,536.3,592.5,536.1,595.1z" fill="#630810"/>
    <path d="M570.9,602.8c0,1.2-1,2.1-2.3,2.3c-0.4,0.4-0.6,0.6-1,1.1c2.5,3.6,3.8,5.4,6.3,9.1c0.6,0.9,1.5,1.5,2.3,1.6 c0.6,0.1,1.2,0,1.7-0.3c1.2-0.8,1.4-2.4,0.6-4c-2.8-4.2-4.2-6.3-7-10.4C571.2,602.3,571.1,602.5,570.9,602.8L570.9,602.8z" fill="#630810"/>
    <path d="M565.5,593.5c-1.9-2.8-2.8-4.2-4.6-6.9c-1.1-1.4-2.8-1.9-4.3-1.3c-1.3,0.8-1.5,2.4-0.6,4 c3.2,4.6,4.9,7,8.1,11.6c0.5-0.5,0.8-0.7,1.3-1.2C565.4,597.2,565.4,595.9,565.5,593.5z" fill="#630810"/>
    <path d="M570.9,602.8c0.2-0.2,0.3-0.3,0.4-0.6c3.4-3.4,5.1-5.1,8.5-8.5c1-1.1,0.8-3-0.4-4.2s-3.1-1.3-4.1-0.3 c-1.7,1.7-2.5,2.6-4.2,4.3C571.1,597.3,571,599.1,570.9,602.8z" fill="#630810"/>
    <path d="M556.4,613c0.6,0.5,1.3,0.8,1.9,0.9c0.9,0.1,1.7-0.1,2.3-0.7c2.8-2.9,4.2-4.3,7-7.1c0.4-0.4,0.6-0.6,1-1.1 c-0.2,0-0.4,0.1-0.6,0.1l0,0c-1.7-0.3-2.9-1.9-2.7-3.3c0-0.8,0-1.2,0-2.1c-0.5,0.5-0.8,0.7-1.3,1.2c-3.2,3.2-4.8,4.8-8.1,8 C554.9,609.9,555.1,611.8,556.4,613z" fill="#630810"/>
    <path d="M565.3,599.6c0,0.8,0,1.2,0,2.1c0,1.6,1.3,3.1,2.7,3.3l0,0c0.2,0,0.4,0.1,0.6-0.1c1.3,0,2.3-0.9,2.3-2.3 l0,0c0.2-3.7,0.3-5.5,0.4-9.2c0.1-2,0.1-2.9,0.2-4.9c0-1.6-1.3-3.1-2.7-3.3c-1.7-0.3-2.9,0.8-2.9,2.2c-0.1,2.4-0.1,3.6-0.2,5.9 C565.5,595.8,565.5,597.1,565.3,599.6z" fill="#630810"/>
    <path d="M599.2,607.5c0,1.2-1,2.1-2.2,2.3c-0.4,0.4-0.6,0.6-1,1.1c2.4,3.6,3.6,5.4,6,9.1c0.6,0.9,1.4,1.5,2.2,1.6 c0.6,0.1,1.2,0,1.6-0.3c1.2-0.8,1.4-2.4,0.6-4c-2.8-4.2-4.2-6.3-6.8-10.4C599.4,607.1,599.4,607.2,599.2,607.5L599.2,607.5z" fill="#630810"/>
    <path d="M593.8,598.2c-1.8-2.8-2.6-4.2-4.4-6.9c-1-1.4-2.6-1.9-4.1-1.3c-1.2,0.8-1.4,2.4-0.6,4 c3.1,4.6,4.6,7,7.7,11.6c0.5-0.5,0.7-0.7,1.2-1.2C593.7,601.9,593.8,600.6,593.8,598.2z" fill="#630810"/>
    <path d="M599.2,607.5c0.2-0.2,0.2-0.3,0.4-0.5c3.2-3.4,4.9-5.1,8.3-8.5c1-1.1,0.8-3-0.4-4.2s-3-1.3-4-0.3 c-1.6,1.7-2.4,2.5-4,4.2C599.3,602,599.3,603.9,599.2,607.5z" fill="#630810"/>
    <path d="M585.4,617.8c0.6,0.5,1.2,0.8,1.8,0.9c0.8,0.1,1.6-0.1,2.2-0.7c2.7-2.8,4-4.3,6.6-7.1 c0.4-0.4,0.6-0.6,1-1.1c-0.2,0-0.4,0.1-0.6,0.1l0,0c-1.6-0.3-2.8-1.9-2.6-3.3c0-0.8,0-1.2,0-2.1c-0.5,0.5-0.7,0.7-1.2,1.2 c-3,3.2-4.6,4.8-7.7,8C583.9,614.6,584.1,616.5,585.4,617.8z" fill="#630810"/>
    <path d="M593.6,604.3c0,0.8,0,1.2,0,2.1c0,1.6,1.2,3.1,2.6,3.3l0,0c0.2,0,0.4,0.1,0.6-0.1c1.2,0,2.2-0.9,2.2-2.3 l0,0c0.2-3.7,0.2-5.5,0.4-9.2c0.1-2,0.1-2.9,0.2-4.9c0-1.6-1.2-3.1-2.6-3.3c-1.6-0.3-2.8,0.8-2.8,2.2c-0.1,2.4-0.1,3.6-0.2,5.9 C593.9,600.5,593.8,601.8,593.6,604.3z" fill="#630810"/>
    <path d="M623.1,603.1c-1.8-2.8-2.7-4.2-4.6-6.9c-1-1.4-2.7-1.9-4.1-1.3c-1.2,0.8-1.4,2.4-0.6,4 c3.1,4.6,4.7,7,7.9,11.6c0.5-0.5,0.8-0.7,1.3-1.2C623,606.8,623,605.6,623.1,603.1z" fill="#630810"/>
    <path d="M628.6,612.4c0,1.2-1.1,2.1-2.3,2.3c-0.4,0.4-0.6,0.6-1,1.1c2.5,3.6,3.8,5.4,6.3,9c0.6,0.9,1.5,1.5,2.3,1.6 c0.6,0.1,1.3,0,1.7-0.4c1.3-0.8,1.5-2.4,0.6-4c-2.9-4.2-4.3-6.2-7.2-10.4C628.8,612,628.7,612.1,628.6,612.4L628.6,612.4z" fill="#630810"/>
    <path d="M628.6,612.4c0.2-0.2,0.3-0.3,0.4-0.6c3.5-3.4,5.2-5.1,8.7-8.5c1.1-1.1,0.9-3-0.4-4.2s-3.2-1.3-4.2-0.3 c-1.7,1.7-2.5,2.6-4.2,4.3C628.7,606.9,628.6,608.7,628.6,612.4z" fill="#630810"/>
    <path d="M614.2,622.7c0.6,0.5,1.2,0.8,1.9,0.9c0.8,0.1,1.7-0.1,2.3-0.7c2.7-2.8,4.1-4.3,6.9-7.1 c0.4-0.4,0.6-0.6,1-1.1c-0.2,0-0.4,0.1-0.6,0.1l0,0c-1.7-0.3-2.9-1.9-2.7-3.3c0-0.8,0-1.2,0-2.1c-0.5,0.5-0.8,0.7-1.3,1.2 c-3.2,3.2-4.7,4.8-7.9,8C612.8,619.5,613,621.4,614.2,622.7z" fill="#630810"/>
    <path d="M622.7,609.2c0,0.8,0,1.2,0,2.1c0,1.6,1.2,3.1,2.7,3.3l0,0c0.2,0,0.4,0.1,0.6-0.1c1.3,0,2.3-0.9,2.3-2.3 l0,0c0.2-3.7,0.3-5.5,0.4-9.2c0.1-2,0.1-2.9,0.2-4.9c0-1.6-1.3-3.1-2.7-3.3c-1.7-0.3-2.9,0.8-2.9,2.2c-0.1,2.4-0.1,3.6-0.2,5.9 C623,605.4,622.9,606.7,622.7,609.2z" fill="#630810"/>
    <path d="M658.4,617c0,1.2-1.1,2.1-2.4,2.3c-0.4,0.4-0.7,0.6-1.1,1.1c2.6,3.6,3.9,5.4,6.5,9c0.7,0.9,1.5,1.5,2.4,1.6 c0.7,0.1,1.3,0,1.8-0.4c1.3-0.8,1.5-2.5,0.7-4c-3-4.1-4.5-6.2-7.4-10.3C658.6,616.6,658.5,616.7,658.4,617L658.4,617z" fill="#630810"/>
    <path d="M652.5,607.7c-1.9-2.8-2.9-4.1-4.8-6.9c-1.1-1.4-2.8-1.9-4.3-1.3c-1.3,0.8-1.5,2.4-0.6,4 c3.3,4.6,4.9,6.9,8.2,11.5c0.5-0.5,0.8-0.7,1.3-1.2C652.4,611.4,652.4,610.2,652.5,607.7z" fill="#630810"/>
    <path d="M667.4,603.7c-1.3-1.2-3.3-1.3-4.4-0.2c-1.8,1.7-2.6,2.6-4.4,4.3c-0.2,3.7-0.3,5.5-0.4,9.2 c0.2-0.2,0.3-0.3,0.4-0.6c3.6-3.4,5.4-5.1,9-8.6C668.7,606.8,668.7,604.9,667.4,603.7z" fill="#630810"/>
    <path d="M655.3,619.2C655.1,619.2,655.3,619.2,655.3,619.2s-3-1.9-3-3.3c0-0.8,0-1.2,0-2.1 c-0.5,0.5-0.8,0.7-1.3,1.2c-3.3,3.2-4.9,4.8-8.2,8c-1.1,1.1-0.9,3,0.4,4.2c0.6,0.5,1.3,0.8,1.9,0.9c0.9,0.1,1.7-0.1,2.4-0.7 c2.8-2.9,4.3-4.3,7.2-7.2c0.4-0.4,0.7-0.6,1.1-1.1C655.7,619.3,655.5,619.3,655.3,619.2z" fill="#630810"/>
    <path d="M652.3,613.8c0,0.8,0,1.2,0,2.1c0,1.6,1.3,3.1,2.8,3.3l0,0c0.2,0,0.4,0.1,0.7-0.1c1.3,0,2.4-0.9,2.4-2.3 l0,0c0.2-3.7,0.3-5.5,0.4-9.2c0.1-2,0.1-2.9,0.2-4.9c0-1.6-1.3-3.1-2.8-3.3c-1.7-0.3-3,0.8-3,2.2c-0.1,2.4-0.1,3.6-0.2,5.9 C652.5,610.1,652.5,611.3,652.3,613.8z" fill="#630810"/>
  </g>
  <g opacity="0.3">
    <path d="M259.7,185c127.9,0,223.7,15.9,325.2,32.8C688.7,235,796.1,252.9,941,252.9c44.4,0,90-6.1,135.4-18.1 c30.5-8.1,61.9-19,93.6-32.7v757.2c-36.8,17.4-73.5,30.8-109.2,40c-40.5,10.4-81.1,15.7-120.8,15.7c-140.1,0-243.6-16.8-343.7-33 c-98.9-16.1-201.3-32.7-336.6-32.7c-45.7,0-91.1,5.3-135.1,15.8C93,972.6,61.3,982.9,30,996V241.6c37.1-17.6,73.8-31.2,109.2-40.5 C179.9,190.4,220.4,185,259.7,185 M1200,155c-89.2,45-174.4,67.9-259,67.9c-280.7,0-416.7-67.9-681.3-67.9 C175.2,155,89.1,178,0,222.9c0,242.4,0,577.6,0,820c89-44.9,175.2-63.6,259.7-63.6c268.9,0,398.5,65.7,680.3,65.7 c84.6,0,170.8-22,260-66.9C1200,735.7,1200,397.4,1200,155L1200,155z" fill="#212121"/>
  </g>
</svg>