<svg viewBox="0 0 1200 890" xmlns="http://www.w3.org/2000/svg" xmlns:xlink="http://www.w3.org/1999/xlink">
  <g>
    <path d="M267.7,151.2c0,0.1,0,0.3,0,0.3c0,1.9-0.6,3.8-1.7,5.2c1.8-0.6,3.6-1,5.5-1.5 C269.9,154.5,268.5,152.9,267.7,151.2z" fill="#002B7F"/>
    <path d="M150.5,167.6c0.1,0.7,0.2,1.3,0.2,2c0,0.8-0.1,1.5-0.2,2.4c1-1.3,2.1-2.6,3.2-3.8 C152.5,168.4,151.5,168.2,150.5,167.6z" fill="#002B7F"/>
    <path d="M144.5,179.2c-0.5,0.1-1.1,0.1-1.5,0.1c0.6,1.1,1,2.5,1,4c0.7-1.7,1.5-3.3,2.4-5.1 C145.9,178.7,145.1,179,144.5,179.2z" fill="#002B7F"/>
    <path d="M171.2,154.4c-0.3,1.4-1,2.9-1.8,4c1.3-0.4,2.7-0.7,4.1-0.9C172.4,156.7,171.7,155.7,171.2,154.4z" fill="#002B7F"/>
    <path d="M207.5,154.3c0-0.1,0-0.3,0-0.3c-0.8,1.9-2,3.5-3.5,4.5c1.7,0.4,3.4,0.6,5.1,1 C208.1,158.1,207.5,156.4,207.5,154.3z" fill="#002B7F"/>
    <path d="M138.3,193.1c0.9,0.6,1.7,1.7,2.1,2.9c0.3-1.7,0.7-3.6,1.2-5.3C140.6,191.8,139.5,192.8,138.3,193.1z" fill="#002B7F"/>
    <path d="M258,159.1c-1.4-0.7-2.7-1.9-3.4-3.5c-0.1,1.9-0.7,3.7-1.8,5.1c1.5-0.4,3.2-1,4.8-1.5 C257.8,159.2,257.9,159.1,258,159.1z" fill="#002B7F"/>
    <path d="M182.9,152.5c-0.5,1.7-1.4,3.1-2.6,4.2c1.5-0.1,3-0.2,4.5-0.1C183.9,155.5,183.2,154.1,182.9,152.5z" fill="#002B7F"/>
    <path d="M195.1,152.7c-0.7,1.7-1.6,3.2-3,4.2c1.6,0.1,3.3,0.3,4.8,0.5C195.9,156.1,195.3,154.6,195.1,152.7z" fill="#002B7F"/>
    <path d="M160.2,159c0,1.5-0.4,3.1-1,4.4c1.2-0.9,2.4-1.7,3.8-2.4C161.9,160.7,160.9,160.1,160.2,159z" fill="#002B7F"/>
    <path d="M234.2,163.3c0.1-0.1,0.3-0.2,0.5-0.3c-1-0.6-1.7-1.7-2.2-2.9c-0.3,0.8-0.9,1.7-1.5,2.3 c1,0.2,1.4,0.2,2.4,0.4C233.7,162.8,234,163.1,234.2,163.3z" fill="#002B7F"/>
    <path d="M344.1,221.4c-0.4,1.1-0.7,2.3-1.1,3.4c1.2,0.1,2.5,0.2,3.7,0.4C345.6,224.3,344.6,223,344.1,221.4z" fill="#002B7F"/>
    <path d="M139.7,204.3c-0.7,1.4-1.7,2.6-2.8,3.4c1.2,0.3,2.1,1,2.8,2.1c-0.1-1.5-0.1-3.1-0.1-4.6 C139.7,204.8,139.7,204.5,139.7,204.3z" fill="#002B7F"/>
    <path d="M239.5,162.8c0.1,0.1,0.3,0.1,0.5,0.3c0.1-0.3,0.5-0.6,0.8-0.7c1-0.3,1.5-0.4,2.4-0.6 c-0.6-0.7-1.2-1.3-1.5-2.1C241.2,161,240.4,162.1,239.5,162.8z" fill="#002B7F"/>
    <path d="M221.6,162.2c-1-1.3-1.6-3-1.7-5c-0.8,1.7-1.9,3-3.3,3.8c0.1,0,0.2,0.1,0.3,0.1 C218.6,161.5,220,161.9,221.6,162.2z" fill="#002B7F"/>
    <path d="M240.9,154.1c0.1-0.4,0.2-1,0.3-1.4c-0.3,0.2-0.7,0.3-1.2,0.5C240.4,153.4,240.6,153.8,240.9,154.1z" fill="#002B7F"/>
    <path d="M140.6,236c0.9-0.4,2-0.6,2.9-0.8c-0.3-1-0.5-2.2-0.8-3.2C142.4,233.5,141.5,235,140.6,236z" fill="#002B7F"/>
    <path d="M234,153.5c-0.3-0.1-0.8-0.2-1.1-0.4c0.1,0.4,0.2,0.8,0.3,1.4C233.4,154.2,233.7,153.8,234,153.5z" fill="#002B7F"/>
    <path d="M138,222.1c1.2,0,2.2,0.3,3,1.1c-0.2-1.6-0.5-3.3-0.7-5C139.7,219.6,139,221,138,222.1z" fill="#002B7F"/>
    <path d="M0,67.9c0,136.7,0,273.3,0,410c94.8-48.4,192.5-68.3,298.7-65.3c101.1,2.8,201.9,16.7,301.4,33.9 c99.4,17.2,200.2,29.5,301.1,32.1c107.5,2.7,203-17.3,298.8-67.1c0-137.2,0-274.4,0-411.5c-95.5,49.4-191.5,70.2-298.8,67.5 C800.4,65,699.5,52.6,600.3,35C500.7,17.4,399.8,3.5,298.7,0.6C192-2.5,95.1,19.2,0,67.9z" fill="#002B7F"/>
    <path d="M295.2,147c-0.3,1.6-1.1,3.1-2.3,4.3c1.8-0.2,3.5-0.3,5.3-0.4C297,149.9,295.9,148.5,295.2,147z" fill="#002B7F"/>
    <path d="M348,198.7c0.9-1.2,2.1-2.1,3.6-2.5c-1.5-0.6-2.7-1.7-3.6-3c0,0.3,0,0.5,0,0.8 C348.1,195.6,348.1,197.2,348,198.7z" fill="#002B7F"/>
    <path d="M322.4,150.7c-0.9,1.1-2.1,2-3.4,2.5c1.6,0.5,3.1,1.2,4.7,1.9C322.9,153.8,322.4,152.4,322.4,150.7z" fill="#002B7F"/>
    <path d="M281.3,148.5c-0.1,1.9-1,3.7-2.1,4.9c1.8-0.4,3.6-0.8,5.4-1C283.2,151.5,282.1,150.1,281.3,148.5z" fill="#002B7F"/>
    <path d="M349.9,181.8c-1.6-0.2-2.9-0.9-4.1-1.9c0.5,1.7,1.1,3.4,1.5,5.2C347.7,183.8,348.7,182.7,349.9,181.8z" fill="#002B7F"/>
    <path d="M350.1,210.8c-1.2-0.9-2.3-2.1-2.9-3.5c-0.3,1.8-0.5,3.4-0.9,5.2C347.3,211.5,348.6,210.9,350.1,210.8z" fill="#002B7F"/>
    <path d="M343.9,168.7c-0.7,0.1-1.2,0.2-1.9,0.2c-0.9-0.1-1.7-0.2-2.5-0.6c1.1,1.4,2.1,3,3.1,4.7 C342.5,171.3,343.1,169.9,343.9,168.7z" fill="#002B7F"/>
    <path d="M334.1,160.3c0-0.7,0.1-1.4,0.3-2c-1.2,0.8-2.5,1.1-4,1c1.4,1,2.8,2.2,4,3.4 C334.2,161.8,334.1,161.1,334.1,160.3z" fill="#002B7F"/>
    <path d="M309.1,147.5c-0.5,1.4-1.4,2.4-2.6,3.3c1.7,0.1,3.3,0.3,4.9,0.5C310.3,150.3,309.6,148.9,309.1,147.5z" fill="#002B7F"/>
    <path d="M0,477.9c94.8-48.4,192.5-68.3,298.7-65.3c101.1,2.8,201.9,16.7,301.4,33.9 c99.4,17.2,200.2,29.5,301.1,32.1c107.5,2.7,203-17.3,298.8-67.1c0,137.2,0,274.4,0,411.5c-96,50.1-191,69.4-298.8,66.6 C800.3,887.1,699.5,874.8,600,858c-99.6-16.8-200.3-30.6-301.3-33.4c-105.6-2.9-204.2,15-298.7,63.2C0,751.2,0,614.5,0,477.9z" fill="#CE1126"/>
    <path d="M152.8,187.4c0,11.6,0,23.1,0,34.7c0.8,3.7,1.9,7.3,3.1,10.8c0.1,0,0.1,0.1,0.2,0.1 c0.2,0.2,0.4,0.5,0.5,0.7c0-17.7,0-35.5,0-53.2C155.2,182.6,153.9,184.9,152.8,187.4z" fill="#FFD83D"/>
    <path d="M177.8,168.9c-1,0.1-2.2,0.3-3.2,0.6c0,17.4,0,34.8,0,52.1c1.3-1.2,2.6-2.2,3.9-2.8c0-16.7,0-33.4,0-50.1 C178.2,168.8,178,168.8,177.8,168.9z" fill="#FFD83D"/>
    <path d="M158.2,178.7c0,18.8,0,37.6,0,56.4c0.7,0.3,1.5,0.4,2.3,0.4c0.5-0.1,1.1-0.2,1.5-0.4c0-19.9,0-39.9,0-59.8 C160.7,176.2,159.4,177.4,158.2,178.7z" fill="#FFD83D"/>
    <path d="M185.6,217.8c1.3,0.1,2.6,0.3,3.9,0.6c0-16.5,0-33,0-49.5c-1-0.1-2-0.3-2.8-0.4c-0.3,0-0.8,0-1.1,0 C185.6,184.9,185.6,201.4,185.6,217.8z" fill="#FFD83D"/>
    <path d="M180.1,168.7c0,16.6,0,33.1,0,49.7c1.3-0.3,2.6-0.5,3.9-0.6c0-16.5,0-32.9,0-49.4 C182.7,168.4,181.4,168.5,180.1,168.7z" fill="#FFD83D"/>
    <path d="M200.5,220.5c0-15.9,0-31.8,0-47.8c-1.3-0.7-2.6-1.2-4-1.8c0,16.2,0,32.5,0,48.7 C198,220,199.3,220.3,200.5,220.5z" fill="#FFD83D"/>
    <path d="M206.2,221.1c0-15,0-30,0-45c-1.3-0.8-2.7-1.7-4-2.5c0,15.7,0,31.5,0,47.2C203.6,221,205,221,206.2,221.1z " fill="#FFD83D"/>
    <path d="M211.8,220c0-13.1,0-26.3,0-39.4c-1.2-1.3-2.6-2.4-4-3.3c0,14.6,0,29.2,0,43.8 C209.3,220.9,210.6,220.5,211.8,220z" fill="#FFD83D"/>
    <path d="M213.8,218.6c1.5-1.2,2.7-3.1,3.8-5.7c0-10.1,0-15.2,0-25.3c-0.1-0.1-0.1-0.3-0.2-0.4 c-1.1-1.7-2.4-3.4-3.8-4.9c0,12.2,0,24.3,0,36.5C213.6,218.7,213.7,218.7,213.8,218.6z" fill="#FFD83D"/>
    <path d="M195.1,219.4c0-16.3,0-32.7,0-49c-1.3-0.5-2.6-0.9-3.9-1.2c0,16.5,0,32.9,0,49.4 C192.4,218.9,193.7,219.1,195.1,219.4z" fill="#FFD83D"/>
    <path d="M169.1,171.2c0,19.2,0,38.4,0,57.6c0.4-0.5,0.9-1.1,1.2-1.6c0.9-1.4,1.7-2.6,2.7-3.7c0-17.8,0-35.7,0-53.5 C171.7,170.2,170.4,170.7,169.1,171.2z" fill="#FFD83D"/>
    <path d="M220.5,201.7c0.6-3.6,0.1-7.2-1.1-10.5c0,6.6,0,10,0,16.6C219.7,206,220.1,203.9,220.5,201.7z" fill="#FFD83D"/>
    <path d="M150.4,201.5c0,4.1,0.3,8.2,0.8,12c0-8.3,0-12.4,0-20.7C150.7,195.5,150.4,198.3,150.4,201.5z" fill="#FFD83D"/>
    <path d="M163.7,174.1c0,20,0,40.1,0,60.1c1.4-0.9,2.7-2.1,3.8-3.4c0-19.6,0-39.1,0-58.7 C166.2,172.5,165,173.3,163.7,174.1z" fill="#FFD83D"/>
    <path d="M151.3,192.8c0,8.3,0,12.4,0,20.7c0.4,2.9,0.9,5.8,1.6,8.6c0-11.6,0-23.1,0-34.7C152.2,189.1,151.7,191,151.3,192.8z"/>
    <path d="M156.7,180.6c0,17.7,0,35.5,0,53.2c0.5,0.6,1.1,1,1.6,1.2c0-18.8,0-37.6,0-56.4C157.7,179.2,157.2,179.8,156.7,180.6z"/>
    <path d="M162.1,175.2c0,19.9,0,39.9,0,59.8c0.5-0.2,1.1-0.5,1.6-0.8c0-20,0-40.1,0-60.1C163.1,174.5,162.6,174.8,162.1,175.2z"/>
    <path d="M167.5,171.9c0,19.6,0,39.1,0,58.7c0.5-0.6,1.1-1.3,1.6-1.9c0-19.2,0-38.4,0-57.6C168.6,171.5,168,171.7,167.5,171.9z"/>
    <path d="M173,169.9c0,17.8,0,35.7,0,53.5c0.5-0.6,1.1-1.3,1.6-1.8c0-17.4,0-34.8,0-52.1C174,169.7,173.5,169.8,173,169.9z"/>
    <path d="M178.5,168.8c0,16.7,0,33.4,0,50.1c0.2-0.2,0.4-0.2,0.8-0.4c0.3-0.2,0.6-0.2,0.9-0.3c0-16.6,0-33.1,0-49.7 C179.5,168.7,179,168.7,178.5,168.8z"/>
    <path d="M185.6,217.8c0-16.5,0-32.9,0-49.4c-0.5-0.1-1.1,0-1.6,0c0,16.5,0,32.9,0,49.4c0.3,0,0.8,0,1.1,0.1c0.1,0,0.2,0,0.3,0 C185.5,217.7,185.5,217.8,185.6,217.8z"/>
    <path d="M191.1,218.6c0-16.5,0-32.9,0-49.4c-0.5-0.2-1.1-0.3-1.6-0.3c0,16.5,0,33,0,49.5C190,218.5,190.6,218.5,191.1,218.6z"/>
    <path d="M195.2,219.5c0.4,0.1,1,0.2,1.4,0.2c0-16.2,0-32.5,0-48.7c-0.5-0.2-1.1-0.4-1.6-0.6c0,16.3,0,32.7,0,49 C195.1,219.4,195.2,219.4,195.2,219.5z"/>
    <path d="M202.2,220.8c0-15.7,0-31.5,0-47.2c-0.6-0.4-1.1-0.6-1.7-0.9c0,16,0,31.9,0,47.9C201.2,220.6,201.8,220.7,202.2,220.8z"/>
    <path d="M207.8,221c0-14.6,0-29.2,0-43.8c-0.6-0.4-1.1-0.9-1.7-1.2c0,15,0,30,0,45C206.8,221.1,207.4,221.1,207.8,221z"/>
    <path d="M213.5,218.9c0-12.2,0-24.4,0-36.7c-0.6-0.6-1.1-1.1-1.7-1.6c0,13.1,0,26.3,0,39.4C212.5,219.6,213.1,219.2,213.5,218.9z"/>
    <path d="M219.2,207.8c0-6.6,0-10,0-16.6c-0.4-1.2-1-2.4-1.7-3.6c0,10.1,0,15.2,0,25.3C218.2,211.5,218.8,209.8,219.2,207.8z"/>
    <path d="M234.3,185.4c-0.7-0.4-1.1-0.9-1.6-1.6c-0.1,1.1-0.2,2.2-0.2,3.4C232.9,186.5,233.6,185.9,234.3,185.4z"/>
    <path d="M230.3,206.8c-0.2,2.1-0.6,4.2-0.9,6.2c1-0.3,2.2-0.5,3.3-0.7C231.3,211,230.5,209,230.3,206.8z"/>
    <path d="M231.7,195.9c-0.2,2.3-0.6,4.8-0.8,7.3c0.7-2,1.8-3.5,3.4-4.4C233.2,198.1,232.3,197.1,231.7,195.9z"/>
    <path d="M233.5,173c0,0.5-0.1,1.1-0.1,1.7c0.3-0.3,0.7-0.7,1-0.9C234.2,173.5,233.9,173.3,233.5,173z"/>
    <path d="M214.7,220.3c-5.1,4.4-12,2.9-19.9,1.2c-0.4-0.1-0.9-0.2-1.3-0.3c7.2,4.9,13.4,13.6,16.8,19.2c0.6-6.1,2.1-11.3,4.6-15.5 c0.9-2.4,1.7-4.8,2.4-7.3C216.3,218.6,215.5,219.5,214.7,220.3z"/>
    <path d="M160.4,237.5c-1.2,0.1-2.1,0-3.2-0.6c0.3,0.8,0.5,1.4,0.8,2c2.4,2.1,4.6,5.2,6.3,8.9c0.3-5.3,1.4-10.3,3-14.7 C165.3,235.4,162.9,237.2,160.4,237.5z"/>
    <path d="M211.5,172.2c-4.2-1-8.7-1.9-13.2-2.6c7.6,3.3,15.7,8.9,20.3,16.5c1.5,2.5,2.5,5,3,7.6c0.8-6.2,1.4-12.5,1.8-18.7 C219.8,174.1,215.7,173.1,211.5,172.2z"/>
    <path d="M167.5,230.8c-1.2,1.3-2.5,2.5-3.8,3.4c-0.5,0.4-1.1,0.6-1.6,0.8s-1.1,0.3-1.5,0.4c-0.9,0.2-1.6,0-2.3-0.4 c-0.5-0.3-1.1-0.8-1.6-1.2c-0.2-0.2-0.4-0.5-0.5-0.7c0-0.1-0.1-0.1-0.2-0.1c0.4,1.3,1,2.7,1.4,4c1,0.5,2,0.7,3.2,0.6 c2.4-0.3,4.9-2.1,7-4.3c0.9-2.2,1.8-4.2,2.9-6c-0.3,0.5-0.8,1.1-1.2,1.6C168.5,229.5,168,230.1,167.5,230.8z"/>
    <path d="M214.7,220.3c0.9-0.8,1.7-1.6,2.4-2.7c2.1-7.6,3.6-15.7,4.7-24.1c-0.6-2.6-1.6-5.1-3-7.6c-4.6-7.6-12.7-13.2-20.3-16.5 c-4-0.7-7.9-1-11.8-1.1c0.9,0,1.7,0.2,2.8,0.4c0.5,0.1,1.1,0.3,1.6,0.3c1.2,0.3,2.6,0.8,3.9,1.2c0.5,0.2,1.1,0.4,1.6,0.6 c1.3,0.5,2.6,1.1,4,1.8c0.6,0.2,1.1,0.6,1.7,0.9c1.3,0.7,2.6,1.5,4,2.5c0.6,0.4,1.1,0.7,1.7,1.2c1.4,1.1,2.8,2.2,4,3.3 c0.6,0.5,1.1,1.1,1.7,1.6c1.5,1.5,2.7,3.2,3.8,4.9c0.1,0.1,0.1,0.3,0.2,0.4c0.7,1.2,1.2,2.4,1.7,3.6c1.2,3.3,1.7,6.9,1.1,10.5 c-0.3,2.2-0.7,4.3-1.1,6.1c-0.4,2-1,3.6-1.7,5.2c-1,2.6-2.2,4.4-3.8,5.7c-0.1,0-0.2,0.2-0.2,0.2c-0.6,0.5-1.1,0.8-1.7,1.1 c-1.2,0.7-2.6,0.9-4,1.1c-0.6,0.1-1.1,0.1-1.7,0c-1.2,0-2.5-0.2-4-0.3c-0.6-0.1-1.1-0.2-1.7-0.2c-1.3-0.3-2.6-0.5-4-0.8 c-0.4-0.1-1-0.2-1.4-0.2c-0.1,0-0.1,0-0.2,0c-1.3-0.3-2.6-0.5-3.9-0.8c-0.5-0.1-1.1-0.1-1.6-0.3c-1.3-0.2-2.6-0.3-3.9-0.6 c-0.1,0-0.1,0-0.2,0s-0.2,0-0.3,0c2.9,0.3,5.8,1.6,8.5,3.3c0.4,0.1,0.9,0.2,1.3,0.3C202.7,223.1,209.6,224.7,214.7,220.3z"/>
    <path d="M226.9,161.8c2.3-0.3,4.2-2.7,4.2-5.6c0-3-2.1-5.2-4.4-5.1s-4.4,2.8-4.4,5.7c0,2.3,1.4,4.3,3,4.9 c0.1,0,0.2,0,0.3,0C226.2,161.7,226.4,161.8,226.9,161.8z" fill="#FFD83D"/>
    <path d="M219.9,157.3c0.1,1.9,0.7,3.7,1.7,5c0.9,0.2,1.8,0.4,2.7,0.6c0-0.3,0.2-0.7,0.3-0.8s0.3-0.3,0.6-0.3c-1.8-0.6-3-2.5-3-4.9 c0-3,2-5.5,4.4-5.7s4.4,2.2,4.4,5.1c0,2.9-1.8,5.3-4.2,5.6c1.6,0.2,2.5,0.3,4.1,0.6c0.6-0.7,1.1-1.4,1.5-2.3 c-0.2-0.7-0.3-1.2-0.3-2c0-1.4,0.5-2.6,1-3.6c-0.1-0.4-0.2-0.9-0.3-1.4c-2.5-0.8-4.6-2.6-6.1-4.9h-0.1c-2.5,0.2-4.7,2-5.9,4.5 c0,0.1,0,0.3,0,0.3C220.8,154.7,220.5,156.1,219.9,157.3z"/>
    <path d="M218.6,153.4c0-3-2-5.2-4.4-5c-2.5,0.2-4.3,2.9-4.3,5.7c0,2.9,2,5.2,4.3,5 C216.5,159,218.6,156.4,218.6,153.4z" fill="#FFD83D"/>
    <path d="M207.5,154.3c0,1.9,0.6,3.8,1.6,5.1c2.6,0.6,5.1,1,7.6,1.7c1.3-0.8,2.6-2.1,3.3-3.8c0.6-1.3,0.9-2.7,0.9-4 c0-0.1,0-0.3,0-0.3c-0.1-4.4-3-7.6-6.6-7.3c-2.6,0.2-4.9,2.4-5.9,5.1c0,1.1-0.2,2.2-0.7,3.4C207.5,154.2,207.5,154.2,207.5,154.3z M209.7,154.1c0-3,2-5.5,4.3-5.7c2.5-0.2,4.4,2.1,4.4,5s-2,5.5-4.4,5.7C211.6,159.4,209.7,157.1,209.7,154.1z"/>
    <path d="M201.6,156.5c2.4-0.3,4.3-2.9,4.3-5.8c0-3-2-5.2-4.3-4.9c-2.3,0.2-4.3,2.9-4.3,5.8 C197.3,154.6,199.2,156.7,201.6,156.5z" fill="#FFD83D"/>
    <path d="M195.1,152.7c0.1,1.9,0.9,3.6,1.9,4.7c2.3,0.3,4.6,0.7,6.9,1c1.5-0.8,2.9-2.5,3.5-4.5c0.4-1,0.7-2.1,0.7-3.4 c0-0.1,0-0.3,0-0.3c0-4.5-3-7.8-6.5-7.4c-2.6,0.3-4.9,2.5-5.9,5.5c0,0.3,0,0.5,0,0.8C195.7,150.4,195.5,151.5,195.1,152.7z M201.6,145.6c2.4-0.3,4.3,2,4.3,4.9c0,3-2,5.6-4.3,5.8s-4.3-2-4.3-4.9C197.3,148.6,199.2,145.9,201.6,145.6z"/>
    <path d="M193.5,149.4c0-3-2-5.1-4.2-4.8c-2.4,0.3-4.2,3-4.2,5.9c0,3,1.9,5.1,4.2,4.8 C191.6,155,193.5,152.4,193.5,149.4z" fill="#FFD83D"/>
    <path d="M182.9,152.5c0.2,1.6,1,3,1.9,4.1c2.5,0.1,4.9,0.2,7.3,0.3c1.3-1,2.3-2.5,3-4.2c0.3-1.1,0.5-2.3,0.5-3.5 c0-0.3,0-0.5,0-0.8c-0.3-4.1-3.1-7-6.4-6.6c-2.7,0.4-5,2.7-6,5.9c0.1,0.5,0.1,1.1,0.1,1.6C183.4,150.3,183.2,151.5,182.9,152.5z M185,150.5c0-3,2-5.6,4.2-5.9c2.4-0.3,4.3,1.9,4.2,4.8c0,3-2,5.6-4.3,5.9C186.9,155.6,184.9,153.6,185,150.5z"/>
    <path d="M181.3,149.6c0-3-1.9-5.1-4.2-4.7c-2.4,0.4-4.2,3.1-4.2,6c0,3,1.9,5,4.2,4.7 C179.3,155.2,181.3,152.6,181.3,149.6z" fill="#FFD83D"/>
    <path d="M171.2,154.4c0.4,1.3,1.2,2.3,2.1,3.1c0.2,0,0.3-0.1,0.5-0.1c2.1-0.3,4.3-0.5,6.5-0.7c1.2-1.1,2.1-2.5,2.6-4.2 c0.3-1,0.5-2.1,0.5-3.2c0-0.5,0-1.1-0.1-1.6c-0.5-3.6-3.1-6.1-6.3-5.7c-2.9,0.4-5.3,3.2-6.1,6.7c0.3,0.9,0.5,2.1,0.5,3.2 C171.5,152.7,171.4,153.6,171.2,154.4z M172.8,150.9c0-3,1.9-5.7,4.2-6c2.4-0.4,4.2,1.8,4.2,4.7c0,3-1.9,5.6-4.2,6 S172.8,153.9,172.8,150.9z"/>
    <path d="M160.9,153.8c0,3,1.9,5,4.1,4.6c2.3-0.4,4.2-3.2,4.2-6.1c0-3-1.9-5-4.2-4.6 C162.8,148.1,160.9,150.7,160.9,153.8z" fill="#FFD83D"/>
    <path d="M160.2,159c0.7,1,1.7,1.7,2.8,2.1c2-1.1,4-2,6.3-2.6c0.9-1.1,1.5-2.4,1.8-4c0.2-0.9,0.3-1.7,0.3-2.5 c0-1.2-0.2-2.3-0.5-3.2c-1-2.7-3.2-4.3-5.8-3.8c-3.4,0.6-6.3,4.7-6.3,9.3C159.6,155.2,160.2,156.9,160.2,159L160.2,159z M169.3,152.3c0,3-1.9,5.7-4.2,6.1c-2.3,0.4-4.1-1.7-4.1-4.6c0-3,1.9-5.7,4.2-6.1C167.4,147.2,169.3,149.2,169.3,152.3z"/>
    <path d="M149.7,160.9c0,3,1.9,4.9,4.1,4.5c2.3-0.5,4.1-3.3,4.1-6.2c0-3-1.9-5-4.1-4.5 C151.6,155.2,149.7,158,149.7,160.9z" fill="#FFD83D"/>
    <path d="M150.5,167.6c0.9,0.6,2,0.8,3.2,0.6c1.7-1.8,3.5-3.4,5.5-4.8c0.6-1.4,1-2.9,1-4.4c0-0.1,0-0.1,0-0.1 c0-1.9-0.5-3.6-1.4-4.8c-1.2-1.7-3-2.4-4.9-2.1c-3.5,0.7-6.2,5-6.2,9.4c0,0.7,0.1,1.3,0.2,2C149.2,164.3,150.1,165.8,150.5,167.6z M158.1,159.2c0,3-1.9,5.7-4.1,6.2c-2.3,0.5-4.1-1.6-4.1-4.5c0-3,1.9-5.7,4.1-6.2C156.3,154.2,158.1,156.4,158.1,159.2z"/>
    <path d="M144.5,176.4c2.3-0.5,4.1-3.4,4.1-6.2c0-2.9-1.9-4.9-4.1-4.5c-2.3,0.5-4.1,3.4-4.1,6.3 S142.2,176.9,144.5,176.4z" fill="#FFD83D"/>
    <path d="M142.9,179.3c0.5,0,0.9,0.1,1.5-0.1c0.7-0.2,1.4-0.4,2-0.8c1.2-2.2,2.5-4.4,4-6.3c0.2-0.7,0.2-1.6,0.2-2.4 c0-0.7-0.1-1.3-0.2-2c-0.4-2-1.4-3.4-2.7-4.2c-0.9-0.6-2.1-0.8-3.4-0.5c-3.5,0.8-6.2,5.1-6.2,9.5c0,1.8,0.4,3.2,1.1,4.4 C140.8,177,142.1,177.9,142.9,179.3z M144.5,165.6c2.3-0.5,4.1,1.6,4.1,4.5s-1.9,5.7-4.1,6.2c-2.3,0.5-4.1-1.5-4.1-4.4 C140.4,169,142.2,166.1,144.5,165.6z"/>
    <path d="M137.9,179.7c2.3-0.5,4.1,1.4,4.1,4.4s-1.8,5.8-4.1,6.3s-4.1-1.4-4.1-4.4 C133.8,183.1,135.6,180.3,137.9,179.7z" fill="#FFD83D"/>
    <path d="M138.3,193.1c1.3-0.4,2.3-1.2,3.3-2.4c0.6-2.5,1.5-5,2.5-7.4c0-1.6-0.4-2.9-1-4c-0.8-1.5-2.1-2.3-3.6-2.5 c-0.5,0-0.9-0.1-1.5,0.1c-3.5,0.8-6.2,5.2-6.2,9.6c0,2.7,1,4.8,2.6,5.9c0.1,0,0.3-0.1,0.4-0.1C136,192.1,137.3,192.4,138.3,193.1z M137.9,179.7c2.3-0.5,4.1,1.5,4.1,4.4s-1.9,5.8-4.1,6.3c-2.2,0.5-4.1-1.5-4.1-4.4C133.8,183.2,135.6,180.3,137.9,179.7z"/>
    <path d="M134.6,206c2.3-0.6,4.1-3.4,4.1-6.3c0-2.9-1.9-4.9-4.1-4.4c-2.3,0.6-4.1,3.5-4.1,6.4 C130.5,204.5,132.3,206.6,134.6,206z" fill="#FFD83D"/>
    <path d="M136.8,207.7c1.2-0.8,2.1-2,2.8-3.4c0-2.6,0.3-5.4,0.7-8.1c-0.4-1.3-1.2-2.3-2.1-2.9c-1-0.7-2.3-1-3.7-0.6 c-0.1,0-0.3,0.1-0.4,0.1c-3.2,1.1-5.8,5.3-5.8,9.5c0,3.6,1.8,6.1,4.2,6.6c0.7-0.5,1.5-0.9,2.2-1.1 C135.5,207.6,136.2,207.5,136.8,207.7z M134.6,195.2c2.3-0.6,4.1,1.5,4.1,4.4s-1.9,5.8-4.1,6.3c-2.3,0.6-4.1-1.5-4.1-4.3 C130.5,198.6,132.3,195.7,134.6,195.2z"/>
    <path d="M138.9,214.9c0-3-1.9-4.9-4.1-4.4c-2.2,0.5-4.1,3.5-4.1,6.3c0,3,1.9,4.9,4.1,4.3 C137,220.6,138.9,217.9,138.9,214.9z" fill="#FFD83D"/>
    <path d="M138,222.1c0.9-1,1.8-2.3,2.3-3.8c-0.3-2.7-0.5-5.5-0.6-8.4c-0.7-1.1-1.7-1.8-2.8-2.1c-0.6-0.1-1.4-0.1-2.1,0.1 c-0.7,0.2-1.5,0.5-2.2,1.1c-2.3,1.7-4,5.1-4,8.7c0,4,2.3,6.8,5.2,6.8c0.9-1.1,2.1-1.7,3.3-2C137.3,222.1,137.6,222,138,222.1z M130.6,216.9c0-3,1.9-5.8,4.1-6.3c2.2-0.5,4.1,1.5,4.1,4.4c0,3-1.9,5.8-4.1,6.3C132.5,221.7,130.6,219.9,130.6,216.9z"/>
    <path d="M137,235.7c2.3-0.5,4.1-3.4,4.1-6.3c0-3-1.9-4.9-4.1-4.4c-2.2,0.5-4.1,3.4-4.1,6.3 C132.8,234.3,134.7,236.3,137,235.7z" fill="#FFD83D"/>
    <path d="M142.8,231.9c-0.7-2.9-1.3-5.7-1.8-8.8c-0.8-0.8-1.9-1.2-3-1.1c-0.3-0.1-0.6,0-1,0.1c-1.2,0.3-2.3,1-3.3,2 c-1.8,1.8-2.9,4.7-2.9,7.7c0,3.8,2.1,6.6,4.9,6.8c1.7-1.1,3.3-1.9,4.9-2.5C141.5,235,142.4,233.5,142.8,231.9z M137,224.9 c2.3-0.5,4.1,1.5,4.1,4.4c0,3-1.9,5.8-4.1,6.3s-4.1-1.5-4.1-4.4C132.8,228.2,134.7,225.4,137,224.9z"/>
    <path d="M148.3,201.9c-0.7-17.6,12-34.1,29.5-35.7c11.7-1.1,22.2,0.8,34.4,3.3c4,0.9,7.9,1.8,11.7,2.5 c0.1-2.2,0.2-4.3,0.3-6.3c-2.5-0.5-5.1-1.1-7.8-1.8c-13.8-3.2-28.5-6-42.6-3.8c-20.4,3.2-31.8,25.5-32.1,44.6 c-0.1,9.8,1.4,20.8,4.2,30.2c1.4-0.2,2.7,0,4.1,0.1c1.7,0.3,3.3,0.8,4.8,1.6C151,224.6,148.8,214.2,148.3,201.9z" fill="#FFD83D"/>
    <path d="M157.2,236.9c-0.5-1.3-1-2.7-1.4-4c-1.2-3.5-2.2-7-3.1-10.8c-0.6-2.8-1.2-5.7-1.6-8.6c-0.5-3.9-0.8-7.9-0.8-12 c0-3.2,0.3-6,0.9-8.5c0.4-2,1-3.8,1.6-5.4c1.1-2.7,2.3-4.9,3.8-6.9c0.5-0.7,1.1-1.3,1.6-2c1.2-1.3,2.4-2.4,3.8-3.5 c0.5-0.4,1.1-0.7,1.6-1.1c1.3-0.8,2.6-1.6,3.8-2.1c0.5-0.2,1.1-0.5,1.6-0.7c1.3-0.5,2.6-1,3.9-1.3c0.5-0.1,1.1-0.3,1.6-0.4 c1.1-0.3,2.3-0.5,3.2-0.6c0.2,0,0.4-0.1,0.6-0.1c0.5-0.1,1.1-0.2,1.6-0.2c1.3-0.2,2.6-0.2,3.9-0.3c0.5-0.1,1.1,0,1.6,0 c0.3,0,0.8,0,1.1,0c3.9,0,7.8,0.5,11.8,1.1c4.5,0.7,8.9,1.7,13.2,2.7c4.2,1,8.3,1.9,12,2.6c0.1-1,0.1-1.8,0.2-2.8 c-3.6-0.7-7.5-1.6-11.7-2.5c-12.1-2.5-22.6-4.4-34.4-3.3c-17.5,1.6-30.2,18.1-29.5,35.7c0.5,12.3,2.6,22.7,6.4,34.7 c1.2,0.6,2.3,1.5,3.4,2.4C157.8,238.3,157.6,237.6,157.2,236.9z"/>
    <path d="M173.8,160c14.1-2.2,28.7,0.4,42.6,3.8c2.7,0.6,5.2,1.2,7.8,1.8c0-0.8,0.1-1.8,0.1-2.6c0-0.1,0-0.1,0-0.1 c-0.9-0.2-1.8-0.4-2.7-0.6c-1.5-0.3-3-0.7-4.6-1c-0.1,0-0.2-0.1-0.3-0.1c-2.5-0.6-5-1.1-7.6-1.7c-1.7-0.4-3.3-0.6-5.1-1 c-2.3-0.4-4.6-0.7-6.9-1c-1.6-0.2-3.2-0.4-4.8-0.5c-2.4-0.2-4.9-0.3-7.3-0.3c-1.5-0.1-3,0-4.5,0.1c-2.2,0.2-4.3,0.4-6.5,0.7 c-0.2,0-0.3,0.1-0.5,0.1c-1.4,0.2-2.8,0.6-4.1,0.9c-2.2,0.7-4.4,1.6-6.3,2.6c-1.3,0.6-2.6,1.6-3.8,2.4c-2,1.5-3.8,3.1-5.5,4.8 c-1.2,1.2-2.2,2.5-3.2,3.8c-1.5,2-2.9,4.2-4,6.3c-0.8,1.6-1.7,3.2-2.4,5.1c-1.1,2.4-1.9,4.9-2.5,7.4c-0.4,1.7-0.8,3.5-1.2,5.3 c-0.4,2.7-0.7,5.5-0.7,8.1c0,0.3,0,0.5,0,0.8c0,1.6,0,3.2,0.1,4.6c0.1,2.9,0.3,5.7,0.6,8.4c0.2,1.7,0.4,3.3,0.7,5 c0.5,3,1,5.9,1.8,8.8c0.3,1,0.5,2.2,0.8,3.2c0.7-0.2,1.5-0.2,2.3-0.4c-2.8-9.4-4.4-20.4-4.2-30.2 C141.9,185.4,153.5,163.2,173.8,160z"/>
    <path d="M327.5,224.5c0-0.1,0.1-0.1,0.3-0.1c1.4-3.6,2.8-7.3,3.8-11.2c0-11.6,0-23.2,0-34.7 c-1.3-2.5-2.9-4.6-4.7-6.4c0,17.8,0,35.5,0,53.3C326.9,225,327.2,224.7,327.5,224.5z" fill="#FFD83D"/>
    <path d="M311.6,164.1c-1.5-0.3-3.1-0.7-4.6-0.9c0,17.9,0,35.7,0,53.6c1,1,2,2.1,3.1,3.4c0.5,0.4,1,1,1.5,1.6 C311.6,202.6,311.6,183.4,311.6,164.1z" fill="#FFD83D"/>
    <path d="M281.4,166.2c0,16.3,0,32.7,0,49c1.5-0.4,3-0.8,4.4-1.2c0-16.5,0-33,0-49.4 C284.4,165,282.9,165.5,281.4,166.2z" fill="#FFD83D"/>
    <path d="M287.7,213.6c1.5-0.4,3-0.6,4.5-1c0-16.5,0-33,0-49.4c-0.4,0-0.9,0.1-1.2,0.1c-1,0.1-2,0.4-3.2,0.8 C287.7,180.5,287.7,197,287.7,213.6z" fill="#FFD83D"/>
    <path d="M334.4,192c0-3.2-0.4-5.9-1.1-8.4c0,8.3,0,12.4,0,20.7C334,200.2,334.4,196.1,334.4,192z" fill="#FFD83D"/>
    <path d="M263,178.1c0,13.1,0,26.3,0,39.4c1.3,0.5,2.7,0.7,4.3,0.7c0-14.6,0-29.2,0-43.8 C265.7,175.5,264.3,176.7,263,178.1z" fill="#FFD83D"/>
    <path d="M322,227.3c1,0,2-0.2,2.9-0.7c0-18.8,0-37.6,0-56.5c-1.4-1.2-3-2.1-4.7-3c0,20,0,39.9,0,59.9 C320.7,227.3,321.3,227.3,322,227.3z" fill="#FFD83D"/>
    <path d="M318.1,226.5c0-20.1,0-40.1,0-60.2c-1.6-0.6-3.1-1.2-4.7-1.6c0,19.6,0,39.2,0,58.8 C315,224.7,316.5,225.7,318.1,226.5z" fill="#FFD83D"/>
    <path d="M257.2,185.3c-0.1,0.1-0.1,0.3-0.2,0.4c0,10.1,0,15.2,0,25.3c1.1,2.5,2.4,4.2,4,5.3c0.1,0,0.2,0.1,0.2,0.1 c0-12.2,0-24.4,0-36.5C259.7,181.7,258.4,183.4,257.2,185.3z" fill="#FFD83D"/>
    <path d="M301.3,162.8c-0.3,0-0.5,0-0.8,0c0,16.7,0,33.4,0,50.1c1.5,0.5,3,1.3,4.6,2.3c0-17.4,0-34.9,0-52.3 C303.7,163,302.4,162.8,301.3,162.8z" fill="#FFD83D"/>
    <path d="M254,200.1c0.4,2.2,0.7,4.2,1.2,6c0-6.6,0-10,0-16.6C253.9,193,253.4,196.5,254,200.1z" fill="#FFD83D"/>
    <path d="M269.1,173c0,15,0,30,0,45.1c1.3-0.1,2.8-0.4,4.3-0.7c0-15.8,0-31.5,0-47.3C272,171.1,270.5,172,269.1,173 z" fill="#FFD83D"/>
    <path d="M275.2,169.2c0,15.9,0,31.9,0,47.8c1.5-0.4,2.9-0.8,4.4-1.2c0-16.3,0-32.5,0-48.8 C278.1,167.7,276.7,168.3,275.2,169.2z" fill="#FFD83D"/>
    <path d="M294.1,163c0,16.5,0,33,0,49.4c1.5-0.1,3-0.2,4.5,0.1c0-16.6,0-33.1,0-49.7 C297.1,162.8,295.6,162.9,294.1,163z" fill="#FFD83D"/>
    <path d="M333.4,204.2c0-8.3,0-12.4,0-20.7c-0.5-2-1.2-3.6-2-5.2c0,11.6,0,23.2,0,34.7C332.2,210.1,333,207.2,333.4,204.2z"/>
    <path d="M326.7,225.2c0-17.8,0-35.5,0-53.3c-0.7-0.6-1.3-1.2-2-1.7c0,18.8,0,37.6,0,56.5C325.5,226.3,326.1,225.8,326.7,225.2z"/>
    <path d="M320,227.1c0-20,0-39.9,0-59.9c-0.6-0.3-1.3-0.6-1.9-0.9c0,20.1,0,40.1,0,60.2C318.7,226.6,319.4,226.9,320,227.1z"/>
    <path d="M313.6,223.5c0-19.6,0-39.2,0-58.8c-0.6-0.2-1.3-0.3-1.9-0.5c0,19.2,0,38.5,0,57.7C312.1,222.4,312.8,223,313.6,223.5z"/>
    <path d="M305.1,163.1c0,17.4,0,34.9,0,52.3c0.6,0.4,1.3,1,1.9,1.6c0-17.9,0-35.7,0-53.6C306.4,163.2,305.6,163.2,305.1,163.1z"/>
    <path d="M298.6,162.9c0,16.6,0,33.1,0,49.7c0.4,0,0.6,0.2,1,0.2c0.3,0,0.6,0.2,0.9,0.3c0-16.7,0-33.4,0-50.1 C299.9,162.8,299.3,162.9,298.6,162.9z"/>
    <path d="M292.2,163.1c0,16.5,0,33,0,49.4c0.1,0,0.1,0,0.3,0c0.1,0,0.3,0,0.4,0c0.4-0.1,0.9-0.1,1.3-0.2c0-16.5,0-33,0-49.4 C293.5,163,292.8,163.1,292.2,163.1z"/>
    <path d="M285.9,164.6c0,16.5,0,33,0,49.4c0.6-0.1,1.2-0.3,1.9-0.5c0-16.5,0-33.1,0-49.6C287.1,164.2,286.5,164.4,285.9,164.6z"/>
    <path d="M279.6,167c0,16.3,0,32.5,0,48.8c0.5-0.1,1.1-0.3,1.6-0.4c0.1,0,0.1,0,0.2,0c0-16.4,0-32.8,0-49.2 C280.8,166.5,280.2,166.7,279.6,167z"/>
    <path d="M273.4,170.1c0,15.8,0,31.5,0,47.3c0.6-0.1,1.2-0.3,1.8-0.4c0-15.9,0-31.9,0-47.8C274.6,169.4,274,169.8,273.4,170.1z"/>
    <path d="M267.3,174.4c0,14.6,0,29.2,0,43.8c0.6,0,1.2,0,1.8-0.1c0-15,0-30,0-45.1C268.5,173.4,267.9,174,267.3,174.4z"/>
    <path d="M261.2,179.9c0,12.2,0,24.4,0,36.5c0.6,0.4,1.2,0.7,1.8,0.9c0-13.1,0-26.3,0-39.4C262.4,178.7,261.8,179.4,261.2,179.9z"/>
    <path d="M255.2,189.5c0,6.6,0,10,0,16.6c0.5,1.9,1.1,3.5,1.8,5c0-10.1,0-15.2,0-25.3C256.2,187,255.7,188.3,255.2,189.5z"/>
    <path d="M243.7,206.2c-0.1,2.2-1,4.3-2.4,5.7c1.2,0.1,2.3,0.2,3.4,0.4C244.3,210.3,244.1,208.2,243.7,206.2z"/>
    <path d="M239.7,185.2c0.7,0.4,1.4,0.9,2,1.7c-0.1-1.1-0.2-2.3-0.2-3.4C240.9,184.2,240.4,184.7,239.7,185.2z"/>
    <path d="M240.6,174.3c0-0.5-0.1-1.1-0.1-1.6c-0.3,0.3-0.6,0.6-0.9,0.9C239.9,173.8,240.3,174,240.6,174.3z"/>
    <path d="M239.8,198.5c1.5,0.8,2.8,2.2,3.5,4.1c-0.3-2.5-0.6-4.8-0.8-7.2C241.9,196.6,241,197.8,239.8,198.5z"/>
    <path d="M260,218.1c-0.9-0.7-1.8-1.5-2.5-2.4c0.7,2.5,1.5,4.9,2.5,7.1c2.5,4.1,4.2,9,4.8,15.1c4.3-7.7,11-16,18.4-20.9 c-0.5,0.1-1,0.3-1.5,0.4C272.9,219.8,265.5,222,260,218.1z"/>
    <path d="M255.8,184.1c4.6-7.8,13.7-14.9,21.9-18.5c-5,1.2-9.8,2.6-14.3,4s-8.8,2.7-12.6,3.8c0.5,6.2,1.1,12.5,1.9,18.5 C253.2,189.4,254.2,186.8,255.8,184.1z"/>
    <path d="M325.9,228.4c-1.2,0.6-2.5,1-3.9,1c-3,0-6-1.5-8.5-3.4c1.9,4.1,3.4,8.9,3.7,14.3c2.1-3.9,4.7-7.2,7.7-9.7 C325.2,229.8,325.6,229.2,325.9,228.4z"/>
    <path d="M292.2,212.7c-1.5,0.2-3,0.6-4.5,1c-0.6,0.1-1.2,0.3-1.9,0.5c-1.5,0.4-3,0.8-4.4,1.2c-0.1,0-0.1,0-0.2,0 c-0.5,0.1-1.1,0.3-1.6,0.4c-1.5,0.4-2.9,0.8-4.4,1.2c-0.6,0.1-1.2,0.3-1.8,0.4c-1.6,0.3-3,0.5-4.3,0.7c-0.6,0-1.2,0.1-1.8,0.1 c-1.6,0-3-0.3-4.3-0.7c-0.6-0.3-1.2-0.5-1.8-0.9c-0.1,0-0.2-0.1-0.2-0.1c-1.5-1.1-2.8-2.8-4-5.3c-0.7-1.5-1.3-3.1-1.8-5 c-0.5-1.8-0.8-3.8-1.2-6c-0.6-3.6-0.1-7.1,1.2-10.6c0.5-1.2,1.1-2.5,1.8-3.7c0.1-0.1,0.1-0.3,0.2-0.4c1.2-1.8,2.5-3.6,4-5.3 c0.6-0.7,1.2-1.3,1.8-1.8c1.3-1.4,2.7-2.6,4.3-3.7c0.6-0.4,1.2-1,1.8-1.4c1.4-1,2.9-1.9,4.3-2.9c0.6-0.4,1.2-0.7,1.8-1.1 c1.5-0.8,2.9-1.5,4.4-2.2c0.6-0.3,1.2-0.5,1.8-0.8c1.5-0.7,3-1.2,4.4-1.6c0.6-0.3,1.2-0.4,1.9-0.5c1.1-0.3,2.2-0.5,3.2-0.8 c-4.5,0.5-8.9,1.3-13.3,2.4c-8.2,3.6-17.3,10.7-21.9,18.5c-1.5,2.6-2.6,5.3-3.2,7.9c1.2,8.2,2.7,16.3,4.9,23.7 c0.7,0.9,1.5,1.8,2.5,2.4c5.4,3.9,12.8,1.7,21.7-0.8c0.5-0.1,1-0.3,1.5-0.4c3.1-2.2,6.3-3.6,9.7-4.2c-0.1,0-0.3,0-0.4,0 C292.3,212.5,292.2,212.7,292.2,212.7z"/>
    <path d="M322,229.4c1.4-0.1,2.6-0.3,3.9-1c0.7-1.3,1.2-2.8,1.7-4.2c-0.1,0-0.1,0.1-0.3,0.1c-0.3,0.3-0.5,0.5-0.7,0.8 c-0.7,0.7-1.3,1.2-2,1.4c-0.9,0.4-1.8,0.6-2.9,0.7c-0.7,0-1.3-0.1-1.8-0.2c-0.6-0.2-1.3-0.3-1.9-0.6c-1.7-0.8-3.2-1.8-4.7-2.9 c-0.6-0.6-1.3-1.2-1.9-1.7c-0.5-0.6-1-1-1.5-1.6c1.3,1.7,2.4,3.7,3.5,5.8C316.1,227.9,319.1,229.4,322,229.4z"/>
    <path d="M249,160.5c1.9-0.7,3.2-2.8,3.2-5.2c0-3-2.1-5.3-4.6-5.2c-2.4,0.1-4.5,2.6-4.5,5.5s1.8,5.1,4.3,5.2 c0.6-0.1,0.8-0.2,1.4-0.3C248.7,160.6,248.9,160.5,249,160.5z" fill="#FFD83D"/>
    <path d="M241.2,152.9c-0.1,0.4-0.2,0.8-0.3,1.4c0.7,0.9,1,2.2,1,3.5c0,0.7-0.1,1.4-0.3,2.1c0.3,0.8,0.9,1.6,1.5,2.1 c1.7-0.4,2.5-0.6,4.2-1c-2.3-0.1-4.3-2.3-4.3-5.2c0-3,2.1-5.4,4.5-5.5s4.6,2.3,4.6,5.2c0,2.5-1.4,4.4-3.2,5.2 c0.2,0,0.3,0.1,0.6,0.3c0.2,0.3,0.4,0.5,0.4,0.8c0.9-0.3,1.9-0.6,2.8-0.9c1.1-1.4,1.6-3.2,1.8-5.1c-0.6-1.2-0.9-2.6-0.9-4 c0-0.1,0-0.3,0-0.3c-1.2-2.4-3.5-4-6.1-3.9h-0.1C245.8,149.8,243.6,151.7,241.2,152.9z"/>
    <path d="M265.4,151.5c0-3-2.1-5.3-4.6-5.3c-2.6,0-4.6,2.5-4.6,5.4s2.1,5.3,4.6,5.3 C263.2,157,265.4,154.5,265.4,151.5z" fill="#FFD83D"/>
    <path d="M254.6,155.6c0.8,1.6,2,2.8,3.4,3.5c2.6-0.9,5.3-1.6,8.1-2.4c1.1-1.4,1.7-3.3,1.7-5.2c0-0.1,0-0.3,0-0.3 c-0.5-1-0.7-2.1-0.7-3.3c-1.2-2.7-3.6-4.5-6.3-4.5c-3.8,0.1-6.8,3.6-7,8c0,0.1,0,0.3,0,0.3C253.7,153.1,254,154.5,254.6,155.6z M256,151.6c0-3,2.1-5.4,4.6-5.4c2.6,0,4.6,2.4,4.6,5.3c0,2.9-2.1,5.4-4.6,5.4C258.1,157,256,154.6,256,151.6z"/>
    <path d="M274.1,153c2.7,0,4.7-2.4,4.7-5.3c0-3-2.2-5.4-4.7-5.4s-4.7,2.5-4.7,5.3 C269.3,150.6,271.5,152.9,274.1,153z" fill="#FFD83D"/>
    <path d="M271.6,155.1c2.5-0.7,5.1-1.2,7.6-1.7c1.2-1.2,2-3,2.1-4.9c-0.4-1.1-0.6-2.2-0.6-3.4c0-0.3,0-0.5,0-0.8 c-1.1-2.8-3.7-4.8-6.6-4.9c-4,0-7.1,3.7-7.1,8.1c0,0.1,0,0.3,0,0.3c0,1.1,0.2,2.2,0.7,3.3C268.5,152.9,269.9,154.5,271.6,155.1z M274.1,142.1c2.7,0,4.7,2.5,4.7,5.4c0,3-2.2,5.3-4.7,5.3s-4.7-2.5-4.7-5.4C269.3,144.6,271.5,142.1,274.1,142.1z"/>
    <path d="M292.8,145.3c0-3-2.3-5.4-4.9-5.5c-2.7-0.1-4.8,2.4-4.8,5.3c0,3,2.2,5.4,4.8,5.4 C290.7,150.6,292.8,148.3,292.8,145.3z" fill="#FFD83D"/>
    <path d="M281.3,148.5c0.7,1.7,1.8,3,3.3,3.9c2.7-0.5,5.6-0.9,8.3-1.1c1.1-1.1,1.9-2.6,2.3-4.3c-0.4-1-0.6-2.1-0.6-3.2 c0-0.5,0-1.1,0.1-1.6c-1.1-2.9-3.8-5.2-6.9-5.2c-3.8-0.1-6.9,3.2-7.3,7.3c0,0.3,0,0.5,0,0.8C280.7,146.3,280.9,147.4,281.3,148.5z M283.2,145.1c0-3,2.2-5.3,4.8-5.3c2.7,0.1,4.9,2.6,4.9,5.5c0,3-2.3,5.3-4.9,5.3C285.3,150.5,283.2,148.1,283.2,145.1z"/>
    <path d="M307.1,144.2c0-3-2.3-5.4-5-5.5c-2.8-0.1-4.9,2.3-4.9,5.2c0,3,2.3,5.4,4.9,5.5 C305,149.5,307.1,147.2,307.1,144.2z" fill="#FFD83D"/>
    <path d="M295.2,147c0.6,1.7,1.6,2.9,3,3.9c2.5-0.1,5.1-0.1,7.6,0c0.3,0,0.4,0,0.6,0c1.1-0.8,2-2,2.6-3.3c-0.3-0.8-0.4-1.7-0.4-2.5 c0-1.2,0.3-2.3,0.6-3.3c-1-3.3-3.8-5.9-7.3-6c-3.7-0.1-6.7,2.7-7.3,6.4c-0.1,0.5-0.1,1.1-0.1,1.6C294.7,144.9,294.8,146,295.2,147 z M297.2,143.9c0-3,2.3-5.3,4.9-5.2c2.8,0.1,5,2.6,5,5.5c0,3-2.3,5.3-5,5.2C299.4,149.3,297.2,146.9,297.2,143.9z"/>
    <path d="M316.4,150.9c2.8,0.1,5.1-2.2,5.1-5.1c0-3-2.3-5.5-5.1-5.6c-2.8-0.1-5,2.3-5,5.1 C311.2,148.2,313.6,150.7,316.4,150.9z" fill="#FFD83D"/>
    <path d="M309.1,147.5c0.4,1.4,1.2,2.8,2.2,3.8c2.7,0.4,5.3,1,7.6,1.8c1.3-0.5,2.5-1.3,3.4-2.5c0-0.1,0-0.1,0-0.1 c0-1.9,0.7-3.7,1.7-5c0-4.4-3.5-8.3-7.7-8.5c-3.1-0.1-5.8,1.8-7,4.5c-0.4,0.9-0.6,2.2-0.6,3.3 C308.7,145.9,308.8,146.7,309.1,147.5z M316.4,140c2.8,0.1,5.1,2.7,5.1,5.6c0,3-2.3,5.2-5.1,5.1c-2.8-0.1-5-2.7-5-5.6 C311.2,142.1,313.6,139.9,316.4,140z"/>
    <path d="M330.2,156.5c2.9,0.2,5.1-2.2,5.1-5.1c0-3-2.4-5.5-5.1-5.6c-2.9-0.2-5.1,2.2-5.1,5.1 C325,153.7,327.3,156.3,330.2,156.5z" fill="#FFD83D"/>
    <path d="M322.4,150.7c0,1.5,0.5,3,1.2,4.3c2.5,1.2,4.7,2.6,6.8,4.1c1.4,0.1,2.8-0.4,4-1c0.5-2,1.7-3.6,3.4-4.6 c0.1-0.7,0.3-1.4,0.3-2c0-4.5-3.6-8.3-7.8-8.5c-2.5-0.1-4.6,1-6,2.7C323,146.9,322.4,148.7,322.4,150.7L322.4,150.7z M330.2,145.6 c2.9,0.2,5.1,2.8,5.1,5.6c0,3-2.4,5.2-5.1,5.1c-2.9-0.2-5.1-2.7-5.1-5.6C325,147.8,327.3,145.5,330.2,145.6z"/>
    <path d="M336.7,160.4c0,3,2.4,5.5,5.2,5.7c2.9,0.2,5.2-2.1,5.2-5s-2.4-5.5-5.2-5.7 C339.1,155.1,336.7,157.4,336.7,160.4z" fill="#FFD83D"/>
    <path d="M334.3,158.1c-0.1,0.7-0.3,1.4-0.3,2c0,0.8,0.1,1.5,0.3,2.3c1.8,1.8,3.6,3.8,5,5.8c0.8,0.3,1.6,0.5,2.5,0.6 c0.7,0,1.3-0.1,1.9-0.2c1.1-1.6,2.7-2.6,4.5-3c0.9-1.3,1.5-2.8,1.5-4.6c0-4.5-3.6-8.3-7.9-8.6c-1.6-0.1-3.1,0.2-4.2,1 C336,154.6,334.8,156.2,334.3,158.1z M347.2,161.1c0,3-2.4,5.2-5.2,5c-2.9-0.2-5.2-2.8-5.2-5.7s2.4-5.2,5.2-5 C344.8,155.4,347.2,158,347.2,161.1z"/>
    <path d="M350.4,168.4c2.9,0.2,5.2,2.8,5.2,5.7c0,3-2.4,5.2-5.2,5c-2.9-0.2-5.2-2.7-5.2-5.7 C345.2,170.5,347.5,168.2,350.4,168.4z" fill="#FFD83D"/>
    <path d="M343.9,168.7c-0.8,1.2-1.3,2.7-1.3,4.2c1.3,2.3,2.4,4.7,3.2,7.1c1.2,1,2.7,1.7,4.1,1.9c1.3-0.9,2.9-1.3,4.7-1.2 c0.1,0,0.4,0,0.5,0c2-1.4,3.4-3.6,3.4-6.4c0-4.5-3.6-8.4-7.9-8.7c-0.7,0-1.3,0-1.9,0.1C346.5,166.1,344.9,167.2,343.9,168.7z M350.4,179.3c-2.9-0.2-5.2-2.8-5.2-5.7s2.4-5.2,5.2-5c2.8,0.2,5.2,2.8,5.2,5.7C355.6,177.1,353.4,179.5,350.4,179.3z"/>
    <path d="M359.8,189.3c0-3-2.4-5.5-5.2-5.7c-3-0.2-5.2,2.1-5.2,5s2.4,5.5,5.2,5.7 C357.4,194.4,359.8,192.1,359.8,189.3z" fill="#FFD83D"/>
    <path d="M349.9,181.8c-1.2,0.7-2.1,1.9-2.7,3.3c0.5,2.6,0.9,5.4,0.9,8c0.9,1.3,2.1,2.3,3.6,3c0.8-0.2,1.7-0.3,2.7-0.2 c0.9,0.1,1.9,0.3,2.8,0.7c3.1-0.9,5.4-3.7,5.4-7.3c0-4.3-3.2-8.1-7.4-8.6c-0.1,0-0.4,0-0.5,0C352.7,180.5,351.1,181,349.9,181.8z M349.2,188.5c0-3,2.4-5.2,5.2-5c3,0.2,5.2,2.8,5.2,5.7s-2.4,5.2-5.3,5S349.2,191.4,349.2,188.5z"/>
    <path d="M354.3,198.8c-3-0.2-5.2,2.1-5.2,5c0,3,2.4,5.5,5.2,5.7c2.8,0.2,5.2-2.1,5.3-5 C359.7,201.5,357.2,199,354.3,198.8z" fill="#FFD83D"/>
    <path d="M351.6,196.2c-1.5,0.4-2.7,1.3-3.6,2.5c-0.1,2.9-0.4,5.7-0.8,8.5c0.7,1.4,1.7,2.6,2.9,3.5c0.4-0.1,0.8-0.1,1.3,0 c1.5,0.1,3,0.6,4.2,1.5c3.8-0.4,6.7-3.5,6.7-7.6c0-3.4-2.2-6.6-5.1-8.1c-0.9-0.3-1.9-0.7-2.8-0.7 C353.3,195.9,352.4,196,351.6,196.2z M354.3,209.5c-3-0.2-5.2-2.8-5.2-5.7c0-3,2.4-5.2,5.2-5c2.8,0.2,5.2,2.8,5.2,5.7 C359.7,207.5,357.2,209.7,354.3,209.5z"/>
    <path d="M351.4,213.5c-2.9-0.2-5.2,2.1-5.2,5c0,3,2.4,5.5,5.2,5.7c2.8,0.2,5.2-2.1,5.2-5 C356.7,216.2,354.4,213.7,351.4,213.5z" fill="#FFD83D"/>
    <path d="M350.1,210.8c-1.5,0.2-2.8,0.6-3.9,1.5c-0.7,3.1-1.3,6.1-2.3,9.1c0.5,1.5,1.5,2.8,2.8,3.7c2.1,0.4,4.3,1,6.3,1.8 c3.6-0.6,6.3-3.7,6.3-7.5c0-2.9-1.5-5.6-3.8-7.3c-1.2-0.9-2.7-1.4-4.2-1.5C351,210.8,350.5,210.7,350.1,210.8z M351.4,224.4 c-2.9-0.2-5.2-2.8-5.2-5.7c0-3,2.4-5.2,5.2-5s5.2,2.8,5.2,5.7C356.7,222.3,354.4,224.6,351.4,224.4z"/>
    <path d="M305.9,153.5c-16.2,0-31.7,3.6-47.7,8.4c-2.8,0.9-5.4,1.8-8.1,2.5c0.1,2.1,0.2,4.3,0.4,6.3 c3.7-1.1,7.9-2.4,12.2-3.7c12.5-4,25.4-7.2,38.5-6.9c18.8,0.3,36.9,12.3,35.9,32c-0.6,12.9-3.4,23.2-8.1,35.7 c1.8-1,3.8-1.9,5.9-2.3c1.7-0.5,3.4-0.6,5.2-0.7c3.4-9.4,5.5-20.8,5.3-30.8C345.3,172.2,326.9,153.4,305.9,153.5z" fill="#FFD83D"/>
    <path d="M346.2,212.4c0.3-1.6,0.7-3.4,0.9-5.2c0.4-2.7,0.7-5.6,0.8-8.5c0.1-1.5,0.1-3.1,0.1-4.7c0-0.3,0-0.5,0-0.8 c0-2.6-0.4-5.4-0.9-8c-0.4-1.7-0.9-3.5-1.5-5.2c-0.8-2.4-1.9-4.8-3.2-7.1c-0.9-1.6-1.9-3.1-3.1-4.7c-1.5-2-3.2-4-5-5.8 c-1.2-1.2-2.6-2.3-4-3.4c-2.1-1.6-4.3-3-6.8-4.1c-1.4-0.8-3-1.4-4.7-1.9c-2.5-0.8-4.9-1.5-7.6-1.8c-1.5-0.2-3.2-0.4-4.9-0.5 c-0.3,0-0.4,0-0.6,0c-2.6-0.1-5.1,0-7.6,0c-1.8,0.1-3.5,0.2-5.3,0.4c-2.9,0.3-5.6,0.7-8.3,1.1c-1.9,0.2-3.7,0.6-5.4,1 c-2.6,0.5-5.1,1.2-7.6,1.7c-1.8,0.5-3.7,1-5.5,1.5c-2.7,0.8-5.5,1.6-8.1,2.4c-0.1,0-0.2,0.1-0.4,0.1c-1.7,0.6-3.3,1-4.8,1.5 c-0.9,0.3-1.9,0.6-2.8,0.9c0,0.1,0,0.1,0,0.1c0,0.8,0.1,1.8,0.1,2.6c2.6-0.8,5.3-1.7,8.1-2.5c15.9-4.8,31.5-8.3,47.7-8.4 c21,0,39.2,18.9,39.5,40.4c0.1,10-1.9,21.4-5.3,30.8c0.9-0.1,1.9,0,2.9,0c0.4-1.1,0.7-2.3,1.1-3.4 C344.9,218.5,345.7,215.5,346.2,212.4z"/>
    <path d="M337.1,192.2c1-19.8-17-31.6-35.9-32c-13.2-0.2-26.1,3-38.5,6.9c-4.3,1.3-8.4,2.6-12.2,3.7c0.1,1,0.1,1.8,0.2,2.7 c3.9-1.1,8.2-2.4,12.6-3.8c4.5-1.4,9.3-2.8,14.3-4c4.4-1.1,8.8-1.8,13.3-2.4c0.4,0,0.9-0.1,1.2-0.1c0.6-0.1,1.3-0.1,1.9-0.2 c1.5-0.1,3-0.2,4.5-0.2c0.6,0,1.3,0,1.9,0.1c0.3,0,0.5,0,0.8,0c1.1,0,2.5,0.1,3.8,0.3c0.6,0,1.3,0.2,1.9,0.2 c1.5,0.2,3.1,0.5,4.6,0.9c0.6,0.2,1.3,0.3,1.9,0.5c1.5,0.5,3.1,1,4.7,1.6c0.6,0.3,1.3,0.6,1.9,0.9c1.7,0.9,3.3,1.8,4.7,3 c0.7,0.6,1.3,1.2,2,1.7c1.8,1.7,3.4,3.9,4.7,6.4c0.8,1.6,1.4,3.4,2,5.2c0.7,2.5,1.1,5.3,1.1,8.4c0,4.1-0.4,8.2-1.1,12.2 c-0.5,3-1.2,6-2,8.8c-1.1,3.8-2.4,7.6-3.8,11.2c-0.5,1.3-1.2,2.8-1.7,4.2c-0.4,0.8-0.7,1.5-1,2.1c1.3-1,2.7-1.9,4.2-2.8 C333.7,215.2,336.4,205,337.1,192.2z"/>
    <path d="M237.3,110.6c-0.1,0-0.1,0-0.2,0s-0.1,0-0.2,0c-1.7,4-2.6,6.1-4.3,10.1c0.5,1,0.7,1.4,1.1,2.4 c1.1-0.5,2.3-0.7,3.4-0.7c1.1-0.1,2.4,0.2,3.5,0.4c0.5-1,0.7-1.5,1.2-2.5C239.9,116.4,239,114.5,237.3,110.6z" fill="#FFD83D"/>
    <path d="M237.1,76.6c-1.8,4.2-2.8,6.3-4.6,10.5c1.8,4,2.7,5.9,4.6,9.9c0,0,0,0,0.1,0s0,0,0.1,0 c1.8-4.1,2.8-6.2,4.6-10.4C240,82.6,239,80.6,237.1,76.6z" fill="#FFD83D"/>
    <path d="M236.9,97.2c-1.8-4-2.8-6-4.6-9.9c1.8-4.2,2.7-6.3,4.6-10.5c1.8,4,2.8,6,4.6,10.1C239.7,91,238.8,93,236.9,97.2 c0.8,0,1.6,0.2,2.3,0.6c1.8-4.1,2.8-6.2,4.6-10.3c0.2-0.4,0.2-0.8,0-1.2c-2.4-5.2-3.6-7.8-6-13.1c-0.3-0.9-1.6-0.9-2.1,0.1 c-2.4,5.4-3.6,8.2-5.9,13.6c-0.2,0.4-0.2,0.8,0,1.2c1.8,4,2.7,5.9,4.6,9.9C235.3,97.5,236.1,97.2,236.9,97.2z"/>
    <path d="M237.3,110.6c1.7,3.9,2.6,5.8,4.4,9.7c-0.5,1-0.7,1.5-1.2,2.5c0.8,0.2,1.5,0.5,2.2,0.9c0.5-1.2,0.8-1.8,1.3-2.9 c0.2-0.4,0.2-0.8,0-1.2c-1.8-3.9-2.7-5.8-4.5-9.7C238.8,110.1,238.1,110.4,237.3,110.6z"/>
    <path d="M233.5,123.2c-0.5-1-0.7-1.4-1.1-2.4c1.7-4,2.6-6.1,4.3-10.1c-0.8,0-1.6-0.2-2.3-0.6c-1.8,4-2.7,6.1-4.4,10.1 c-0.2,0.4-0.2,0.8,0,1.2c0.5,1.1,0.8,1.7,1.3,2.8C232,123.8,232.8,123.3,233.5,123.2z"/>
    <path d="M256.2,103.1c-3-2.1-4.4-3.2-7.4-5.3c-2.5,1.9-3.8,2.9-6.3,4.9c0,0.3,0.1,0.5,0.1,0.8c0,0.1,0,0.4,0,0.5 c2.5,1.8,3.8,2.7,6.3,4.4C251.9,106.3,253.3,105.3,256.2,103.1z" fill="#FFD83D"/>
    <path d="M218.3,104.9c2.8,2,4.2,3,7.1,5c2.4-2,3.7-3,6.1-5c0-0.1,0-0.4,0-0.5c0-0.3,0-0.5,0.1-0.8 c-2.5-1.7-3.7-2.6-6.1-4.3C222.7,101.5,221.2,102.6,218.3,104.9z" fill="#FFD83D"/>
    <path d="M242.6,102.7c2.5-2,3.8-2.9,6.3-4.9c2.9,2.1,4.4,3.2,7.4,5.3c-3,2.3-4.4,3.4-7.4,5.7c-2.5-1.8-3.8-2.7-6.3-4.4 c-0.1,1-0.3,1.9-0.7,2.8c2.5,1.8,3.8,2.7,6.4,4.6c0.2,0.1,0.5,0.3,0.6,0.3c0.2,0,0.5-0.2,0.6-0.3c3.8-3,5.7-4.4,9.5-7.4 c0.4-0.3,0.6-0.7,0.6-1.1s-0.2-1-0.6-1.1c-3.8-2.8-5.7-4.2-9.5-6.9c-0.3-0.3-0.8-0.3-1.3,0c-2.6,2-3.9,3-6.5,5 C242.2,100.9,242.5,101.7,242.6,102.7z"/>
    <path d="M231.5,104.7c-2.5,2-3.7,3-6.1,5c-2.9-2-4.3-3-7.1-5c2.8-2.4,4.2-3.6,7.1-6c2.4,1.7,3.7,2.6,6.1,4.3 c0.1-1,0.3-1.9,0.8-2.7c-2.6-1.8-3.8-2.7-6.4-4.4c-0.3-0.3-0.8-0.2-1.2,0.1c-3.7,3.1-5.5,4.7-9.1,7.8c-0.3,0.3-0.6,0.7-0.6,1.1 s0.2,0.9,0.6,1.1c3.6,2.6,5.4,3.8,9.1,6.4c0.2,0.1,0.3,0.3,0.6,0.2c0.2,0,0.5-0.2,0.6-0.3c2.5-2.1,3.7-3.1,6.2-5.2 C231.8,106.6,231.6,105.7,231.5,104.7z"/>
    <path d="M237.1,99.9c1.8-0.1,3.3,1.6,3.3,3.8c0,2.2-1.5,4-3.3,4.1s-3.3-1.6-3.3-3.8 C233.7,101.9,235.2,100,237.1,99.9z" fill="#FFD83D"/>
    <path d="M236.8,110.6c0.1,0,0.1,0,0.2,0s0.1,0,0.2,0c0.8,0,1.6-0.3,2.3-0.8c1-0.6,1.8-1.6,2.4-2.8c0.3-0.8,0.7-1.8,0.7-2.8 c0-0.1,0-0.4,0-0.5c0-0.3,0-0.5-0.1-0.8c-0.1-1-0.3-1.9-0.8-2.6c-0.6-1.1-1.4-1.9-2.4-2.4c-0.7-0.4-1.5-0.6-2.3-0.6c0,0,0,0-0.1,0 s0,0-0.1,0c-0.8,0-1.6,0.4-2.3,0.8c-1,0.6-1.8,1.5-2.4,2.6c-0.5,0.8-0.7,1.7-0.8,2.7c0,0.3-0.1,0.6-0.1,0.8c0,0.1,0,0.4,0,0.5 c0.1,1,0.3,1.9,0.7,2.7c0.6,1.1,1.4,2,2.4,2.6C235.2,110.3,236,110.5,236.8,110.6z M233.7,104.1c0-2.2,1.5-4.1,3.3-4.1 c1.8-0.1,3.3,1.6,3.3,3.8c0,2.2-1.5,4-3.3,4.1S233.7,106.3,233.7,104.1z"/>
    <path d="M226.9,142.9c1.5,5,5.4,8.3,10.2,8.1c4.7-0.2,8.8-3.9,10.3-9.1C240.5,141,233.6,141.4,226.9,142.9z" fill="#FFD83D"/>
    <path d="M247.8,140c0.1-0.7,0.2-1.5,0.2-2.3c0-1-0.1-1.9-0.2-2.9c-2.6-0.3-5.1-0.6-7.6-0.7c-0.5,0-0.8-0.4-0.8-0.9 c0-3.2,0-4.8,0-8c-0.7-0.1-1.5-0.2-2.2-0.2s-1.5,0.2-2.2,0.4c0,2.5,0,4.4,0,5.9c0,0.8,0,1.2,0,1.9c0,0.5-0.3,1-0.8,1 c-2.5,0.3-5,0.7-7.5,1.4c-0.2,1-0.2,1.9-0.2,2.9c0,0.8,0.1,1.5,0.2,2.3C233.4,139.3,240.6,139,247.8,140z" fill="#FFD83D"/>
    <path d="M241,132.1c2.1,0.1,4,0.3,6.1,0.5c-1.2-3.3-3.4-5.7-6.1-6.8C241,128.3,241,129.6,241,132.1z" fill="#FFD83D"/>
    <path d="M233.2,131.4c0-1.5,0-3.2,0-5.4c-2.7,1.4-4.9,4.1-6,7.5c2-0.4,4-0.8,6-1 C233.2,132.1,233.2,131.9,233.2,131.4z" fill="#FFD83D"/>
    <path d="M232.9,153.3c0.3,0.1,0.7,0.2,1.1,0.4c0.8-0.9,1.8-1.3,3-1.4c1.1-0.1,2.2,0.4,3,1.1c0.3-0.2,0.8-0.3,1.2-0.5 c2.5-1.1,4.6-3.1,6.3-5.4c1.7-2.7,2.8-6.1,2.8-9.7c0-6.3-3.2-11.6-7.6-13.9c-0.7-0.4-1.4-0.6-2.2-0.9c-1.2-0.4-2.3-0.4-3.5-0.4 c-1.1,0.1-2.4,0.4-3.4,0.7c-0.8,0.3-1.5,0.6-2.2,1.1c-4.4,2.7-7.4,8.4-7.4,14.6c0,3.7,1,6.9,2.7,9.4 C228.3,150.6,230.4,152.3,232.9,153.3z M224.6,142.5c-0.1-0.5,0.2-1.1,0.7-1.3c0.3-0.2,0.7-0.2,1.1-0.2c-0.1-0.7-0.2-1.5-0.2-2.3 c0-1,0.1-1.9,0.2-2.9c-0.3,0-0.6,0.2-0.9,0.2h-0.1c-0.5,0-0.8-0.4-0.8-0.8c-0.1-0.5,0.2-1.1,0.7-1.3c0.6-0.2,1.1-0.2,1.7-0.4 c1.1-3.4,3.3-6,6-7.5c0-0.5,0-1.1,0-1.8c0-0.5,0.3-1.1,0.9-1.1c0.6,0,0.9,0.4,0.9,1.1c0,0.4,0,0.8,0,1.2c0.7-0.2,1.4-0.3,2.2-0.4 c0.8,0,1.5,0.1,2.2,0.2c0-0.5,0-0.7,0-1.2s0.3-1.1,0.9-1.1c0.6,0,0.9,0.4,0.9,1.1s0,1.1,0,1.8c2.8,1.1,5,3.7,6.1,6.8 c0.6,0.1,1.2,0.1,1.7,0.2c0.5,0.1,0.8,0.7,0.7,1.2c-0.1,0.6-0.5,0.8-0.8,0.8h-0.1c-0.2,0-0.6-0.1-0.9-0.1c0.2,1,0.2,1.9,0.2,2.9 c0,0.8-0.1,1.5-0.2,2.3c0.3,0,0.7,0.1,1.2,0.1c0.5,0.1,0.8,0.7,0.7,1.2c-0.1,0.6-0.5,0.8-0.8,0.8h-0.1c-0.5-0.1-0.8-0.1-1.3-0.2 c-1.5,5.1-5.6,8.8-10.3,9.1c-4.7,0.2-8.7-3.1-10.2-8.1c-0.5,0.2-0.8,0.2-1.2,0.4C225.2,143.4,224.8,143,224.6,142.5z"/>
    <path d="M234.9,133.4c0-0.8,0-1.2,0-1.9c0-1.6,0-3.4,0-5.9c0-0.4,0-0.8,0-1.2c0-0.5-0.3-1.1-0.9-1.1c-0.6,0-0.9,0.5-0.9,1.1 c0,0.7,0,1.2,0,1.8c0,2.2,0,3.8,0,5.4c0,0.4,0,0.6,0,1c-2.1,0.2-4,0.6-6,1c-0.6,0.2-1.1,0.2-1.7,0.4c-0.5,0.2-0.8,0.7-0.7,1.3 c0.1,0.5,0.5,0.8,0.8,0.8h0.1c0.2,0,0.6-0.2,0.9-0.2c2.5-0.6,5-1.1,7.5-1.4C234.4,134.4,234.9,133.9,234.9,133.4z"/>
    <path d="M239.2,133.2c0,0.5,0.3,0.9,0.8,0.9c2.5,0,5.1,0.2,7.6,0.7c0.3,0,0.6,0.1,0.9,0.1h0.1c0.5,0,0.8-0.4,0.8-0.8 c0.1-0.6-0.2-1.1-0.7-1.2c-0.6-0.1-1.2-0.1-1.7-0.2c-2.1-0.2-4.1-0.4-6.1-0.5c0-2.5,0-3.8,0-6.3c0-0.7,0-1.1,0-1.8 c0-0.5-0.3-1.1-0.9-1.1c-0.6,0-0.9,0.5-0.9,1.1c0,0.5,0,0.7,0,1.2c0,3.1,0,4.7,0,7.8C239.2,133.2,239.2,133.2,239.2,133.2z"/>
    <path d="M226.9,142.9c6.7-1.7,13.6-2,20.4-1c0.5,0.1,0.8,0.1,1.3,0.2h0.1c0.5,0,0.8-0.4,0.8-0.8c0.1-0.6-0.2-1.1-0.7-1.2 c-0.3-0.1-0.7-0.1-1.2-0.1c-7.2-1-14.3-0.7-21.4,1c-0.3,0-0.7,0.2-1.1,0.2c-0.5,0.2-0.8,0.7-0.7,1.3c0.1,0.5,0.6,0.9,1,0.8 C226,143.1,226.5,143.1,226.9,142.9z"/>
    <path d="M231,176.6c0.3-4.3,0.6-8.1,0.9-11.2c-2.2-0.3-3.3-0.5-5.5-0.8c-0.8,18.3-2.6,36.9-7.5,54.6 c2.2-2.2,5-4.1,8-5.4C229,201.5,230.1,189,231,176.6z" fill="#FFD83D"/>
    <path d="M247.8,163.6c-2.2,0.5-3.3,0.8-5.6,1.3c0.3,3,0.6,6.8,0.9,11.1c0.9,12.4,2.1,24.8,4.1,37.1 c3.1,1,6,2.4,8.3,4.6C250,200.3,248.7,181.6,247.8,163.6z" fill="#FFD83D"/>
    <path d="M230.3,206.8c0-0.1,0-0.4,0-0.5c0-1.1,0.2-2.1,0.5-3c0.3-2.5,0.6-4.8,0.8-7.3c-0.5-1.1-0.8-2.3-0.8-3.5 c0-1.9,0.6-3.6,1.6-5c0.1-1.1,0.2-2.3,0.2-3.4c-0.8-1.1-1.3-2.5-1.3-4c0-2.1,0.8-3.8,1.9-5.1c0-0.5,0.1-1.1,0.1-1.7 c-1-1-1.7-2.7-1.7-4.4c0-2.1,0.9-4,2.3-5.2c-0.1-0.3-0.5-0.5-0.8-0.6c-1-0.2-1.4-0.3-2.4-0.4c-1.6-0.2-2.5-0.3-4.1-0.6 c-0.5-0.1-0.8-0.1-1.4-0.2c-0.1,0-0.2,0-0.3,0c-0.2,0-0.3,0.2-0.6,0.3c-0.2,0.3-0.3,0.6-0.3,0.8c0,0.1,0,0.1,0,0.1 c0,0.8-0.1,1.8-0.1,2.6c-0.1,2.1-0.2,4.3-0.3,6.3c-0.1,1-0.1,1.8-0.2,2.8c-0.5,6.2-1,12.6-1.8,18.7c-1.1,8.3-2.6,16.5-4.7,24.1 c-0.7,2.5-1.5,4.9-2.4,7.3c1.2-2.2,2.6-4.1,4.3-5.7c4.9-17.7,6.8-36.3,7.4-54.6c2.2,0.3,3.3,0.5,5.5,0.8c-0.3,3-0.6,6.9-0.9,11.2 c-0.9,12.5-2,25-4,37.5c0.8-0.3,1.6-0.6,2.4-0.8C229.7,211,230.1,208.9,230.3,206.8z"/>
    <path d="M252.6,192c-0.8-6.2-1.4-12.3-1.9-18.5c-0.1-1-0.1-1.8-0.2-2.7c-0.1-2.2-0.2-4.3-0.4-6.3c0-0.8-0.1-1.8-0.1-2.6 c0-0.1,0-0.1,0-0.1c0-0.3-0.2-0.7-0.4-0.8c-0.1-0.1-0.4-0.3-0.6-0.3c-0.1,0-0.2,0-0.3,0c-0.6,0.1-0.8,0.2-1.4,0.3 c-1.7,0.4-2.5,0.6-4.2,1c-1,0.3-1.5,0.4-2.4,0.6c-0.3,0-0.6,0.3-0.8,0.7c1.4,1,2.3,2.9,2.3,5c0,1.8-0.7,3.5-1.7,4.6 c0,0.5,0.1,1.1,0.1,1.6c1.2,1.2,2,2.9,2,4.9c0,1.5-0.5,3-1.3,4.2c0.1,1.1,0.2,2.2,0.2,3.4c1,1.3,1.6,3,1.6,4.9 c0,1.4-0.3,2.6-0.8,3.6c0.2,2.3,0.6,4.8,0.8,7.2c0.3,0.9,0.5,1.9,0.5,3c0,0.1,0,0.4,0,0.5c0.2,2.1,0.6,4.1,0.9,6.1 c0.8,0.1,1.7,0.4,2.4,0.6c-2.1-12.3-3.2-24.7-4.1-37.1c-0.3-4.2-0.6-8.1-0.9-11.1c2.2-0.5,3.3-0.8,5.6-1.3 c0.9,18,2.3,36.7,7.7,54.1c1.6,1.5,3.2,3.2,4.5,5.3c-0.9-2.3-1.8-4.6-2.5-7.1C255.2,208.3,253.7,200.2,252.6,192z"/>
    <path d="M158,305.7c-0.3-1.4-0.5-2-0.8-3.4c-0.1-0.5,0.1-1.1,0.5-1.3c0.4-0.2,0.9,0,1,0.5c0.3,1.3,0.5,2,0.8,3.3 c0.9-0.4,1.7-1,2.7-1.4c-0.3-1.4-0.4-2.1-0.7-3.4c-0.1-0.5,0.1-1.1,0.5-1.3c0.4-0.2,0.9,0,1,0.5c0.3,1.4,0.4,2.1,0.7,3.4 c0.9-0.4,1.8-0.9,2.8-1.2c-0.2-1.3-0.3-2-0.5-3.3c-0.1-0.5,0.2-1.1,0.6-1.3c0.4-0.2,0.9,0.1,1,0.7c0.2,1.3,0.3,2,0.5,3.3 c0.9-0.3,1.8-0.7,2.8-1c-0.2-1.4-0.3-2.1-0.5-3.5c-0.1-0.5,0.2-1.1,0.6-1.3c0.4-0.2,0.9,0.1,1,0.7c0.2,1.4,0.3,2.2,0.5,3.6 c1.2-0.5,2.5-0.8,3.8-1.1c-0.2-1.3-0.3-2-0.4-3.4c-0.1-0.5,0.2-1.1,0.6-1.3c0.4-0.2,0.9,0.1,1,0.7c0.2,1.4,0.3,2.1,0.4,3.5 c1.4-0.3,2.8-0.8,4.2-1.2c-0.1-1.1-0.2-1.6-0.3-2.7c-0.1-0.5,0.2-1.1,0.7-1.3c0.4-0.2,0.9,0.2,1,0.7c0.2,1.1,0.3,1.7,0.4,2.8 c1.4-0.3,2.8-0.7,4.2-1c-0.2-1.8-0.3-2.8-0.4-4.6c-0.1-0.5,0.2-1.1,0.8-1.2c0.4-0.1,0.9,0.2,0.9,0.8c0.2,1.9,0.3,2.8,0.4,4.7 c1.2-0.3,2.5-0.6,3.8-0.7c-0.1-1.5-0.2-2.2-0.3-3.7c-0.1-0.5,0.2-1.1,0.8-1.2c0.4-0.1,0.9,0.2,0.9,0.9c0.2,1.5,0.3,2.3,0.4,3.8 c1.2-0.3,2.5-0.4,3.7-0.7c-0.2-1.7-0.3-2.5-0.4-4.2c-0.1-0.5,0.2-1.1,0.8-1.2c0.4,0,0.9,0.2,0.9,0.9c0.2,1.7,0.3,2.6,0.4,4.3 c1.2-0.1,2.4-0.4,3.5-0.5c-0.1-1.9-0.1-2.9-0.2-4.8c0-0.5,0.3-1.1,0.8-1.2c0.4,0,0.9,0.3,0.9,0.9c0.1,1.9,0.1,2.9,0.2,4.8 c1.3-0.1,2.8-0.4,4.1-0.5c-0.1-1.8-0.1-2.7-0.2-4.5c0-0.5,0.3-1.1,0.8-1.2c0.4,0,0.9,0.3,0.9,0.9c0.1,1.8,0.1,2.7,0.2,4.5 c1.2-0.1,2.5-0.3,3.6-0.4c-0.1-1.9-0.1-2.9-0.2-4.8c0-0.5,0.3-1.1,0.8-1.2c0.4,0,0.9,0.3,0.9,0.9c0.1,1.9,0.1,2.9,0.2,4.8 c1.5-0.1,2.8-0.4,4.2-0.4c-0.1-2-0.1-3-0.2-5.1c0-0.5,0.3-1.1,0.8-1.2c0.5,0,0.9,0.3,0.9,0.9c0.1,2,0.1,3,0.2,5.1 c1.8-0.1,3.5-0.2,5.1-0.5c-0.1-2.1-0.1-3.1-0.2-5.2c0-0.5,0.3-1.1,0.8-1.1s0.9,0.4,0.9,0.9c0.1,2.1,0.1,3.1,0.2,5.2 c2.5-0.1,4.8-0.3,6.6-0.4c0-2.3,0-3.5,0-5.8c0-0.5,0.3-1.1,0.9-1.1c0.6,0,0.9,0.4,0.9,1.1c0,2.3,0,3.5,0,5.8 c2-0.1,4.1-0.2,6.7-0.3c0.1-2.1,0.1-3.1,0.2-5.2c0-0.5,0.5-1,0.9-1c0.5,0,0.8,0.5,0.8,1.1c-0.1,2.1-0.1,3.1-0.2,5.2 c1.6-0.1,3.4-0.1,5.3,0c0.1-2,0.1-3.1,0.2-5.1c0-0.5,0.5-1,0.9-1c0.5,0,0.8,0.5,0.8,1.1c-0.1,2-0.1,3.1-0.2,5.1 c1.4,0,2.8-0.1,4.4,0.1c0.1-1.9,0.1-2.9,0.2-4.8c0-0.5,0.5-1,0.9-1s0.8,0.5,0.8,1.1c-0.1,1.9-0.1,2.9-0.2,4.8 c1.3,0,2.5,0.1,3.8,0.1c0.1-1.8,0.1-2.7,0.2-4.5c0-0.5,0.5-1,1-1s0.8,0.5,0.8,1.1c-0.1,1.8-0.1,2.7-0.2,4.5c1.4,0,2.9,0.1,4.4,0.1 c0.1-1.9,0.1-2.9,0.2-4.8c0-0.5,0.5-1,1-1s0.8,0.6,0.8,1.1c-0.1,1.9-0.1,2.9-0.2,4.8c1.3,0,2.7,0.1,3.9,0.2 c0.2-1.8,0.3-2.6,0.5-4.4c0.1-0.5,0.5-1,1-1c0.5,0.1,0.9,0.6,0.9,1.1c-0.2,1.7-0.3,2.6-0.5,4.3c1.3,0.1,2.8,0.2,4.2,0.3 c0.2-1.5,0.3-2.3,0.5-3.8c0.1-0.5,0.5-1,1-0.9s0.9,0.6,0.9,1.1c-0.1,1.5-0.2,2.2-0.4,3.7c1.5,0.2,2.8,0.2,4.3,0.3 c0.2-1.9,0.3-2.9,0.5-4.8c0.1-0.5,0.5-1,1-0.9s0.9,0.6,0.9,1.1c-0.2,1.9-0.3,2.8-0.5,4.7c1.6,0.2,3.2,0.3,4.9,0.5 c0.2-1.1,0.3-1.7,0.5-2.9c0.1-0.5,0.6-0.9,1.1-0.8c0.5,0.2,0.9,0.7,0.8,1.3c-0.2,1.1-0.2,1.6-0.4,2.7c1.6,0.2,3.3,0.4,4.9,0.7 c0.2-1.4,0.3-2.1,0.5-3.6c0.1-0.5,0.6-0.9,1.1-0.8c0.5,0.2,0.9,0.7,0.8,1.3c-0.2,1.4-0.3,2.1-0.5,3.4c1.5,0.2,3.1,0.5,4.5,0.7 c0.3-1.5,0.4-2.2,0.6-3.7c0.1-0.5,0.6-0.9,1.2-0.8c0.5,0.2,0.9,0.7,0.8,1.3c-0.3,1.4-0.4,2.1-0.6,3.5c1.2,0.2,2.3,0.5,3.3,0.7 c0.3-1.4,0.4-2,0.6-3.4c0.1-0.5,0.6-0.9,1.2-0.8c0.5,0.2,0.9,0.7,0.8,1.3c-0.3,1.4-0.4,2-0.6,3.4c1.2,0.3,2.3,0.5,3.4,0.8 c0.4-1.4,0.5-2.1,0.9-3.5c0.1-0.5,0.6-0.8,1.2-0.6c0.5,0.2,0.8,0.7,0.6,1.3c-0.4,1.4-0.5,2.1-0.9,3.5c1.2,0.3,2.2,0.8,3.2,1.1 c0.4-1.4,0.6-2,1-3.4c0.1-0.5,0.7-0.8,1.2-0.6c0.5,0.2,0.8,0.7,0.7,1.3c-0.4,1.4-0.6,2.1-1,3.5c2.1,0.9,3.7,2,4.6,3.1 c6.1-8.7,9.8-19,13.7-28.8c5.1-12.6,9.9-26.2,19.9-35.9c-6.5-6.1-18.4-10.1-27.3-7.7c-8.6,1.8-16.6,11-18.7,19.2 c-0.3,0.7-0.9,1.1-1.6,0.8c-0.6-0.2-1-0.9-1-1.6c-0.7-12-2.2-26.4-15.4-31.3c-15.3-2.6-28.2,15.7-34.2,27.3 c-0.2,0.6-0.8,0.8-1.3,0.7s-0.8-0.7-1-1.2c0.1-16-9.5-28.1-25.7-27.6c-15.9,0.6-25.4,14.8-24.9,30c0,0.5-0.3,1.1-0.9,1.3 c-0.4,0.2-1,0-1.2-0.6c-1.4-3.2-5.9-10.6-11.9-16.8c-4.7-4.8-11.8-10-18.6-7.3c-11.7,6.5-12.4,21.1-12.9,32.8 c0,0.7-0.3,1.4-0.9,1.7c-0.5,0.2-1.1-0.1-1.3-0.6c-2.8-9.8-8.2-16.1-15.2-17.2c-7.1-1.1-14.7,2.7-21.4,10.9 c8.2,9.1,11.8,21.9,15.4,33.3c2.7,9.1,6,19,11,27.2C155.1,308.1,156.3,306.9,158,305.7z M340.7,261.2c-8.1,5.6-16.1,12-19.2,17.9 c-1.3,2.4-3,3.3-2.1,1c3-7.1,3.6-13.4,3-17.2c-0.6-3.7-1.6-6.4-1.4-8.6c0.1-2.2,1.3-2,1.7,0.1c0.3,1.4,0.9,3.2,1.4,3.9 c0.4,0.7,2.2,1.2,3.8-1c1.7-2.2,5.9-6.6,7.2-7.6c0.5-0.4,1.1-0.6,1.5-0.6c0.7,0,0.9,0.5,0,1.6c-2,2.6-4.1,6.8-4.2,8.7 c-0.1,1.8,0.7,1.8,1.6,1.9c2.4,0.1,3.6-1.6,5.8-2C341.9,258.9,342.3,260.1,340.7,261.2z M296.9,224.6c-0.8,1.8-1.6,3-2.4,4.9 c-0.8,1.8-1.8,0.6-1.4-0.6c0.4-1.2,0.8-2.6,1.8-5.2c0.4-1,0.9-1.4,1.3-1.3C296.9,222.4,297.4,223.4,296.9,224.6z M305.3,231.3 c-0.8,1.6-2.2,3.5-2.8,4.6c-0.6,1.1-1.8,0.4-1-1.1s1-3.1,1.9-5.2c0.4-0.8,0.9-1.1,1.3-1.1C305.6,228.9,306.1,230,305.3,231.3z M298.4,230c0.3-1.1,0.6-2.3,1-3.8c0.3-1.1,0.6-1.5,1.1-1.3c0.8,0.2,1.4,1.4,0.9,2.4c-0.8,1.5-1.1,2-1.8,3.7 C298.9,232.4,298.1,231.1,298.4,230z M335.9,242.9c0.8-2,0.9-3.1,1.7-5.1c0.4-0.9,1.3-1.4,2-1.4s1.2,0.6,0.7,1.8 c-0.8,1.7-1.9,3.7-2.5,5.1C337.1,244.6,335.1,244.9,335.9,242.9z M351.2,238c0.5-0.2,0.9-0.3,1.3-0.3c1.1,0.1,1.1,1.2,0.3,1.8 c-1.2,0.9-2.7,1.7-4.2,2.7c-1.6,1.3-2.3,0-1.5-1.2C348.1,240.1,349,239.1,351.2,238z M344.8,236.7c0.7-0.9,1.2-1.3,1.6-1.3 c0.9,0.1,1.2,1.7,0.3,2.8c-1.2,1.6-2,2.3-3.5,3.5c-1.1,0.9-1.5-0.4-0.9-1.4C342.8,239.3,343.6,238.3,344.8,236.7z M332.4,238 c0.7,0,1.3,0.6,1.1,1.7c-0.5,1.8-1.6,3.8-2,4.8c-0.4,1.1-1.6,0.5-1.3-1c0.3-1.6,0.3-2.6,0.7-4.2C330.9,238.5,331.8,238,332.4,238z M327.6,242.3c-0.3,1.5-0.8,2.7-1,4.2c-0.4,1.5-1.3,1.2-1.3-0.2s0.3-2.9,0.4-4.4c0.1-0.7,0.7-1.2,1.2-1.2 C327.3,240.8,327.7,241.2,327.6,242.3z M309.8,242.1c0.8,0.2,1.5,1,0.5,2.2c-1.5,2-3.1,3.3-3.7,4.1c-0.5,0.8-2,0.3-1-1.1 c0.9-1.6,2.3-3.5,2.9-4.7c0.1-0.3,0.5-0.5,0.9-0.5C309.7,241.9,309.7,241.9,309.8,242.1z M308,234.6c0.8-0.1,0.9,2.1,0.3,3 c-0.9,1.2-2.2,2.7-3.4,4.3c-1,1.3-1.7,0.1-1-1c0.6-1.1,1.5-2.3,3.3-5.1C307.4,235,307.8,234.6,308,234.6z M288.2,228.9 c0.4-1.5,0.5-2.3,1.4-5.1c0.2-1,0.9-1.5,1.2-1.6c0.1,0,0.2,0,0.4,0c0.5,0.1,0.9,0.8,0.5,1.7c-0.6,1.6-1.5,3.4-2.1,5.2 C289,230.7,287.7,230.3,288.2,228.9z M282.2,231.5c0.2-1.2,0.6-3.3,1.5-6.3c0.4-1.4,1-1.8,1.5-1.6c0.6,0.1,1.1,1.3,0.7,2.5 c-0.5,1.6-1.4,3.3-2,5.2C283,233.1,281.8,232.7,282.2,231.5z M283.2,243.7c1,2.5,2.7,3.5,4,1.4c1.4-2.2,4.1-7.9,5-10.5 c0.2-1,0.7-1.4,1-1.5c0.1,0,0.1,0,0.3,0c0.4,0.1,0.6,1,0.4,2.3c-1.8,7-2.2,10.5-2,12.3c0.2,1.7,1.1,1.9,2.3,1.4s2.5-1.3,3.5-2.1 s2.1,0.2,0.6,1.5c-6.9,5.4-13.3,15.1-14.8,23.9c-0.4,1.9-1.5,2.2-1.2,0c1-9,2.6-19.1-0.5-27.9C280.6,242.2,281.6,240,283.2,243.7z M249.4,223.8c-0.3,1.8-0.6,3.7-0.6,5.5c0,1.5-1,1-1.2-0.1c-0.1-1.1-0.2-3.3-0.2-5.4c0-1.1,0.3-1.7,0.7-1.8c0.1,0,0.2,0,0.3,0 C249.1,222.2,249.7,223,249.4,223.8z M255.7,237c0.1-0.8,0.5-1.2,0.9-1.3c0.1,0,0.1,0,0.2,0c0.5,0.1,0.9,0.8,0.7,1.6 c-0.4,1.7-0.8,3.3-1.1,5c-0.2,1.7-1.9,1.7-1.5,0.2C255.1,241,255.2,239.2,255.7,237z M252.6,229.8c0.1-1,0.6-1.4,0.9-1.4 c0.7,0,1.4,1.1,1.2,2c-0.4,1.7-0.9,3-1.4,5.1c-0.4,1.8-1.5,1-1.4-0.2C251.9,234.1,252.1,232.4,252.6,229.8z M276.6,233.7 c0.4-1.8,0.4-2.3,0.7-4.3c0.2-1.1,0.9-1.8,1.5-1.8c0.1,0,0.1,0,0.2,0c0.4,0.1,0.5,0.6,0.4,1.4c-0.2,1.4-1.1,4.1-1.5,5.3 C277.5,235.7,276.2,235.4,276.6,233.7z M242.6,221.2c0-0.8,0.3-1.2,0.8-1.4c0.1,0,0.1,0,0.2,0c0.6,0.1,1.2,0.8,1.2,1.5 c-0.1,1.4-0.3,3-0.5,5.1c-0.1,2.1-1.4,1.3-1.5,0.2C242.6,225.5,242.4,223.7,242.6,221.2z M239.4,219.3c0.7,0,1.3,0.6,1,1.7 c-0.2,1.4-0.5,4.1-0.7,5.9c-0.2,2.1-1.3,1.6-1.5,0.1c-0.2-1.6-0.1-2.6-0.2-5.6C238,220,238.7,219.3,239.4,219.3z M234.7,219.5 c0.7,0,1.4,0.6,1.3,2.1c-0.1,3,0,4-0.2,5.6c-0.2,1.7-1.3,2.1-1.5,0.1c-0.2-1.8-0.5-4.5-0.7-5.9 C233.5,220.2,234.1,219.5,234.7,219.5z M230.5,220.5c0.1,0,0.1,0,0.2,0c0.3,0,0.7,0.4,0.8,1.3c0.1,2.3,0,4.1-0.1,5.4 c-0.1,1.2-1.4,2.1-1.5-0.1c-0.1-2.1-0.5-3.7-0.5-5.1C229.4,221.3,230,220.6,230.5,220.5z M229.7,242.4c1.4,0.9,3,1.2,4-0.5 s2.3-5.2,2.4-8.8c0-1.1,0.1-2.5,0.9-2.5s0.9,1.3,0.9,2.4c0.1,3.6,1.3,6.9,2.4,8.5c1,1.6,2.7,1.1,4,0.1c1.4-1,2.3-1.7,3.8-3.2 c1.5-1.4,2.7-0.6,0.9,2.4c-6.2,9.8-11.2,20-11.1,31.9c0,1.9-0.3,2.5-1,2.5s-0.9-0.5-0.9-2.4c0.1-11.5-4.7-21.4-10.9-30.8 c-1.8-3-0.7-3.8,0.9-2.5C227.5,240.9,228.3,241.6,229.7,242.4z M226.7,224.9c0,2.1-0.1,4.3-0.2,5.4c-0.1,1.1-1.1,1.7-1.1,0.2 c0-1.8-0.3-3.7-0.6-5.5c-0.1-0.8,0.3-1.7,0.9-1.8C226.1,223,226.7,223.4,226.7,224.9z M222.5,236.7c0.1,1.2-1,2.1-1.4,0.4 c-0.5-2-1-3.4-1.4-5c-0.2-0.9,0.4-2.1,1.1-2.1c0.5,0,0.8,0.4,0.9,1.3C222.2,233.8,222.4,235.5,222.5,236.7z M217.8,237.6 c0.1,0,0.1,0,0.2,0c0.3,0,0.7,0.4,0.9,1.2c0.4,2.2,0.6,3.9,0.8,5.4s-1.2,1.5-1.5,0c-0.2-1.6-0.7-3.2-1-4.9 C216.9,238.4,217.2,237.7,217.8,237.6z M197.2,231.6c0.1,0,0.1,0,0.2,0c0.4,0,1.1,0.6,1.3,1.6c0.3,1.9,0.3,2.4,0.7,4.2 c0.3,1.7-1,2.2-1.3,0.8c-0.3-1.2-1.1-3.9-1.3-5.2C196.8,232.2,196.9,231.8,197.2,231.6z M191.9,228c0.4-0.2,1,0.3,1.3,1.5 c0.8,2.9,1,5,1.3,6.2c0.2,1.2-0.8,1.7-1.3-0.1c-0.7-1.8-1.3-3.3-1.7-5C190.9,229.4,191.2,228.2,191.9,228z M186.4,227.5 c0.4-0.2,1.1,0.1,1.4,1.5c0.8,2.6,0.9,3.5,1.2,4.9c0.3,1.5-0.8,2-1.2,0.4c-0.5-1.7-1.3-3.4-1.8-5 C185.7,228.4,186,227.7,186.4,227.5z M189.9,249.8c1.2,2,2.6,0.9,3.5-1.8c1.3-3.9,2.2-1.8,1.3,0.7c-2.7,8.4-1.9,19.5-0.4,27.9 c0.2,2.2-0.7,2-1.1,0.1c-1.7-9.3-6.3-16.5-12.9-22.4c-1.3-1.2-0.3-2.3,0.5-1.6c0.9,0.7,2.1,1.4,3,1.8c1,0.4,1.7,0,2-1.6 c0.2-1.7-0.2-5.3-1.7-12.1c-0.3-1.2-0.1-2.2,0.3-2.4c0,0,0.1,0,0.2,0c0.3,0,0.7,0.5,0.9,1.4C186.3,242.3,188.7,247.7,189.9,249.8z M174.7,235.2c0.3-0.1,0.9,0.1,1.1,0.9c0.8,1.9,1,3.6,1.6,5s-0.3,2.2-0.9,1.2c-0.5-1-1.7-2.9-2.4-4.3 C173.6,236.5,174,235.3,174.7,235.2z M184.7,234c0.3,1.2-0.7,2.4-1.2,0.7c-0.6-1.8-1.4-3-2.1-4.6c-0.4-1,0-2.2,0.6-2.3 c0.3,0,0.8,0.3,1.1,1.2C184,231.6,184.4,233,184.7,234z M178.4,230.8c0.3,0,0.8,0.2,1,1.2c0.3,1.5,0.6,2.6,0.9,3.7s-0.4,2.4-1,0.8 c-0.5-1.6-1-2.1-1.5-3.5C177.2,232.3,177.8,231,178.4,230.8z M172,241.3c0.2,0,0.5,0.3,0.9,1c1.4,2.7,2.3,3.8,2.8,4.8 s0,2.3-0.9,1.1c-1.1-1.5-2.1-2.8-2.9-3.9C171.2,243.4,171.3,241.2,172,241.3z M170.5,248.9c0.4-0.2,0.9,0,1,0.4 c0.5,1.1,1.7,2.9,2.5,4.4s-0.4,2-0.9,1.2c-0.4-0.8-1.8-1.9-3.1-3.7C169.2,250,169.8,249.2,170.5,248.9z M149.3,252.5 c0.6,1.9-1,1.8-1.5,0.6c-0.5-1.3-1.4-3.1-2-4.8c-0.4-1.1-0.1-1.8,0.5-1.9c0.6-0.1,1.4,0.3,1.6,1.2 C148.5,249.3,148.7,250.4,149.3,252.5z M156.5,249.4c0.4-0.1,1,0.4,1,1.1c0.2,1.5,0.3,3,0.3,4.3c0,1.4-0.7,1.8-1.1,0.3 c-0.3-1.4-0.6-2.6-0.8-4.1C155.8,249.9,156.1,249.5,156.5,249.4z M153.3,248.3c0.2,1.7,0.3,2.7,0.5,4.1c0.2,1.6-0.7,2.2-1.1,1.2 c-0.3-1-1.2-2.9-1.6-4.6c-0.2-1.1,0.2-1.7,0.8-1.8C152.7,247.1,153.2,247.5,153.3,248.3z M139.1,253.3c-1.2-1-2.2-1.7-3.3-2.3 c-0.7-0.5-0.6-1.6,0.2-1.8c0.3-0.1,0.6,0,1,0.2c1.8,0.7,2.4,1.8,3.1,2.7C140.9,253.1,140.4,254.4,139.1,253.3z M143.5,252.1 c-1.1-1-1.8-1.8-2.7-3.1c-0.6-1-0.4-2.6,0.2-2.8c0.3-0.1,0.7,0.2,1.3,1.1c0.8,1.5,1.5,2.4,1.9,3.4 C144.6,251.6,144.3,253,143.5,252.1z M146.1,269.2c1.8,0.2,2.7,1.7,4.6,1.4c0.6-0.1,1.4-0.3,1.3-2c-0.1-1.8-1.9-5.6-3.4-8.2 c-0.7-1.1-0.5-1.7,0-1.6c0.3-0.1,0.7,0.1,1.2,0.4c1.2,0.9,4.5,4.7,5.8,6.8c1.4,2.1,2.8,1.4,3.1,0.6c0.3-0.7,0.9-2.6,1.2-4.1 c0.4-2.1,1.4-2.5,1.4-0.3c0.1,2.2-0.6,4.8-1.2,8.7c-0.5,3.8,0.1,10,2.4,16.8c0.7,2.2-0.6,1.6-1.7-0.8c-2.6-5.7-9-11.2-15.4-15.8 C144.1,270.3,144.3,269.2,146.1,269.2z" fill="#FFD83D"/>
    <path d="M353,227c-2.1-0.8-4.2-1.4-6.3-1.8c-1.2-0.2-2.5-0.3-3.7-0.4c-0.9-0.1-1.9,0-2.9,0c-1.7,0-3.4,0.3-5.2,0.7 c-2.1,0.6-4.1,1.3-5.9,2.3c-1.4,0.7-2.9,1.8-4.2,2.8c-3,2.5-5.6,5.8-7.7,9.7c-0.4-5.2-1.7-10.1-3.7-14.3c-1-2.1-2.2-4.1-3.5-5.8 c-1-1.3-2-2.4-3.1-3.4c-0.6-0.6-1.3-1.1-1.9-1.6c-1.5-1-3.1-1.9-4.6-2.3c-0.3-0.1-0.6-0.2-0.9-0.3c-0.4-0.1-0.6-0.2-1-0.2 c-1.5-0.3-3-0.2-4.5-0.1c-0.4,0-0.9,0.1-1.3,0.2c-3.4,0.6-6.6,2.2-9.7,4.2c-7.3,5.1-13.9,13.2-18.4,20.9c-0.6-6-2.3-11.1-4.8-15.1 c-1.3-2-2.7-3.8-4.5-5.3c-2.4-2-5.2-3.6-8.3-4.6c-0.8-0.2-1.6-0.5-2.4-0.6c-1-0.2-2.2-0.3-3.4-0.4c-1.2,1.1-2.7,1.9-4.3,2 s-3.1-0.5-4.2-1.6c-1.1,0.2-2.3,0.4-3.3,0.7c-0.8,0.2-1.7,0.5-2.4,0.8c-3.1,1.3-5.8,3-8,5.4c-1.6,1.6-3,3.5-4.3,5.7 c-2.3,4.3-3.9,9.4-4.6,15.5c-3.2-5.6-9.4-14.5-16.8-19.2c-2.7-1.9-5.6-3-8.5-3.3c-0.3-0.1-0.8,0-1.1-0.1c-1.3,0-2.6,0.1-3.9,0.6 c-0.3,0-0.6,0.2-0.9,0.3s-0.4,0.2-0.8,0.4c-1.3,0.6-2.6,1.5-3.9,2.8c-0.5,0.5-1.1,1.1-1.6,1.8c-1,1.1-1.8,2.4-2.7,3.7 c-1.1,1.8-2,3.8-2.9,6c-1.6,4.3-2.8,9.3-3,14.7c-1.7-3.7-3.8-6.7-6.3-8.9c-1.1-0.9-2.2-1.6-3.4-2.4c-1.5-0.8-3.1-1.4-4.8-1.6 c-1.4-0.3-2.7-0.2-4.1-0.1c-0.7,0-1.5,0.2-2.3,0.4c-0.9,0.2-2,0.4-2.9,0.8c-1.7,0.7-3.4,1.5-4.9,2.5c-3.5,2.2-6.9,5.4-10.1,9.5 c-0.2,0.3-0.4,0.8-0.4,1.2s0.1,0.8,0.4,1c8.7,8.6,12.3,22,15.8,33.3c3.3,9.7,6.4,20.1,12,28.9c0.1,0.3,0.3,0.3,0.6,0.3 c-0.2-0.4-0.3-0.8-0.3-1.3c0-0.7,0.2-1.4,0.6-2.2c-4.9-8.2-8.2-18.1-11-27.2c-3.6-11.4-7.2-24.3-15.4-33.4 c6.7-8.1,14.4-12,21.4-10.9c7,1.2,12.4,7.3,15.2,17.2c0.2,0.6,0.7,1,1.3,0.6c0.5-0.2,0.9-1,0.9-1.7c0.6-11.8,1.3-26.1,12.9-32.8 c6.8-2.7,13.9,2.5,18.6,7.3c6,6,10.5,13.6,11.9,16.8c0.2,0.5,0.8,0.8,1.2,0.6s0.8-0.8,0.9-1.3c-0.6-15.3,9-29.4,24.9-30 c16.1-0.6,25.8,11.7,25.7,27.6c0,0.5,0.4,1.1,1,1.2c0.5,0.1,1.1-0.1,1.3-0.7c6.1-11.6,18.9-30,34.2-27.3 c13.4,4.7,14.8,19.4,15.5,31.3c0,0.7,0.4,1.4,1,1.6c0.6,0.2,1.3-0.2,1.6-0.8c2.1-8.3,10.1-17.4,18.7-19.2 c8.8-2.3,20.8,1.7,27.3,7.7c-10,9.7-14.7,23.3-19.9,35.9c-3.9,9.8-7.7,20.1-13.8,28.8c0.5,0.7,0.8,1.4,0.8,2.1 c0,0.4-0.1,0.8-0.4,1.2c0.3-0.1,0.5-0.2,0.7-0.4c6.9-9,10.9-20.2,15.1-30.6c5.1-12.6,9.7-26.6,20.3-35.8c0.3-0.3,0.5-0.6,0.5-1.1 c0-0.4-0.1-0.8-0.5-1.1C361.9,231.4,357.6,228.6,353,227z"/>
    <path d="M323.4,302.3c-0.1,0.4-0.5,0.7-0.9,0.6c-0.1,0-0.3,0-0.3,0c-0.5-0.2-0.8-0.7-0.6-1.3c0.4-1.2,0.5-1.9,0.9-3.1 c-0.9-0.3-2-0.6-3.2-1c-0.3,1.3-0.5,1.9-0.8,3.1c-0.1,0.4-0.5,0.7-0.9,0.6c-0.1,0-0.1,0-0.3,0c-0.5-0.2-0.8-0.7-0.6-1.3 c0.3-1.2,0.5-1.8,0.8-3c-1-0.3-2.1-0.5-3.2-0.8c-0.3,1.3-0.4,2-0.6,3.3c-0.1,0.5-0.5,0.8-0.9,0.8c-0.1,0-0.1,0-0.1,0 c-0.5-0.2-0.9-0.7-0.8-1.3c0.2-1.3,0.3-2,0.5-3.3c-1-0.2-2.2-0.5-3.3-0.7c-0.3,1.3-0.4,1.9-0.6,3.1c-0.1,0.5-0.5,0.8-0.9,0.8 c-0.1,0-0.1,0-0.1,0c-0.5-0.2-0.9-0.7-0.8-1.3c0.2-1.2,0.3-1.8,0.5-3c-1.4-0.2-2.9-0.5-4.5-0.7c-0.2,1.3-0.3,1.9-0.5,3.1 c-0.1,0.5-0.5,0.8-0.9,0.8c-0.1,0-0.1,0-0.1,0c-0.5-0.2-0.9-0.7-0.8-1.3c0.2-1.3,0.3-1.9,0.5-3.1c-1.6-0.2-3.3-0.5-4.9-0.7 c-0.3,1.6-0.4,2.4-0.6,4c-0.1,0.5-0.5,0.8-0.9,0.8c-0.1,0-0.1,0-0.1,0c-0.5-0.1-0.9-0.7-0.8-1.3c0.3-1.5,0.4-2.3,0.6-3.8 c-1.5-0.2-3.1-0.3-4.9-0.5c-0.1,0.9-0.1,1.3-0.2,2.2c0,0.5-0.5,1-0.9,0.9h-0.1c-0.5-0.1-0.9-0.6-0.9-1.1c0.1-0.8,0.1-1.2,0.2-2.1 c-1.4-0.2-2.8-0.3-4.3-0.3c-0.1,1.2-0.2,1.8-0.4,3c0,0.5-0.5,1-0.9,1h-0.1c-0.5-0.1-0.9-0.6-0.9-1.1c0.1-1.2,0.2-1.7,0.4-2.9 c-1.3-0.2-2.8-0.2-4.2-0.3c-0.1,1-0.1,1.5-0.2,2.5c0,0.5-0.5,1-0.9,1h-0.1c-0.5-0.1-0.8-0.6-0.8-1.1c0.1-0.9,0.1-1.4,0.2-2.3 c-1.2,0-2.5-0.2-3.7-0.2c0,0.8-0.1,1.2-0.1,2.1c0,0.5-0.5,1-0.8,1c0,0,0,0-0.1,0c-0.5,0-0.8-0.5-0.8-1.1c0-0.8,0.1-1.2,0.1-2.1 c-1.4,0-2.9-0.1-4.4-0.1c0,0.9-0.1,1.4-0.1,2.3c0,0.5-0.5,1-0.8,1l0,0c-0.5,0-0.8-0.5-0.8-1.1c0-0.9,0.1-1.4,0.1-2.3 c-1.3,0-2.5-0.1-3.8-0.1c0,0.8-0.1,1.2-0.1,2.1c0,0.5-0.5,1-0.8,1l0,0c-0.5,0-0.8-0.5-0.8-1.1c0-0.8,0.1-1.2,0.1-2.1 c-1.4,0-2.8,0-4.4-0.1c0,0.7-0.1,1.1-0.1,1.8c0,0.5-0.4,1-0.8,1l0,0c-0.5,0-0.8-0.5-0.8-1.1c0-0.7,0.1-1,0.1-1.7 c-1.8,0-3.5,0.1-5.3,0c0,0.7-0.1,1-0.1,1.7c0,0.5-0.3,1-0.8,1l0,0c-0.5,0-0.8-0.5-0.8-1.1s0-0.9,0-1.5c-2.2,0.1-4.4,0.2-6.7,0.3 c0,0.8,0,1.2,0,1.9c0,0.5-0.3,1.1-0.9,1.1s-0.9-0.4-0.9-1.1c0-0.8,0-1.2,0-1.9c-2.3,0.1-4.5,0.2-6.6,0.3c0,0.6,0,0.9,0,1.5 c0,0.5-0.3,1.1-0.8,1.1l0,0c-0.5,0-0.8-0.4-0.8-0.9c0-0.7-0.1-1-0.1-1.6c-1.7,0.1-3.4,0.2-5.1,0.5c0,0.7,0.1,1,0.1,1.6 c0,0.5-0.3,1.1-0.8,1.2l0,0c-0.5,0-0.8-0.4-0.8-0.9c0-0.7-0.1-1.1-0.1-1.8c-1.4,0.1-2.8,0.2-4.2,0.4c0,0.8,0.1,1.2,0.1,2.1 c0,0.5-0.3,1.1-0.8,1.2l0,0c-0.4,0-0.8-0.3-0.8-0.9c0-0.8-0.1-1.2-0.1-2.1c-1.2,0.1-2.5,0.3-3.6,0.4c0,0.9,0.1,1.4,0.1,2.3 c0,0.5-0.3,1.1-0.8,1.2l0,0c-0.4,0-0.8-0.3-0.8-0.9c0-0.9-0.1-1.4-0.1-2.3c-1.3,0.1-2.8,0.4-4.1,0.5c0,0.8,0.1,1.2,0.1,2 c0,0.5-0.3,1.1-0.8,1.2c0,0,0,0-0.1,0c-0.4,0-0.8-0.3-0.8-0.9c0-0.8-0.1-1.2-0.1-2c-1.2,0.1-2.3,0.4-3.4,0.5 c0.1,0.9,0.1,1.4,0.2,2.3c0.1,0.5-0.2,1.1-0.8,1.2H201c-0.4,0-0.8-0.3-0.8-0.9c-0.1-1-0.1-1.5-0.2-2.4c-1.3,0.3-2.5,0.4-3.7,0.7 c0.1,1.1,0.2,1.7,0.3,2.8c0.1,0.5-0.2,1.1-0.8,1.2h-0.1c-0.4,0.1-0.8-0.3-0.8-0.9c-0.1-1.2-0.2-1.8-0.3-3 c-1.3,0.3-2.5,0.4-3.8,0.7c0.1,0.8,0.1,1.2,0.2,2c0.1,0.5-0.2,1.1-0.8,1.2h-0.1c-0.4,0.1-0.8-0.3-0.8-0.9 c-0.1-0.9-0.1-1.3-0.2-2.2c-1.4,0.3-2.8,0.6-4.2,1c0.2,1.5,0.3,2.3,0.5,3.8c0.1,0.5-0.2,1.1-0.7,1.3h-0.1 c-0.4,0.1-0.8-0.3-0.8-0.7c-0.5-1.5-0.8-2.3-1.3-3.8c-1.5,0.3-2.9,0.7-4.2,1.2c0.2,1.2,0.3,1.9,0.4,3.1c0.1,0.5-0.2,1.1-0.6,1.3 H178c-0.4,0.1-0.8-0.3-0.8-0.7c-0.2-1.3-0.3-1.9-0.4-3.2c-1.3,0.3-2.6,0.8-3.8,1.1c0.2,1.2,0.3,1.8,0.4,3c0.1,0.5-0.2,1.1-0.6,1.3 h-0.1c-0.4,0.1-0.8-0.2-0.8-0.7c-0.2-1.2-0.3-1.8-0.5-3.1c-1,0.3-1.9,0.7-2.8,1c0.2,1.3,0.3,1.9,0.4,3.2c0.1,0.5-0.2,1.1-0.6,1.3 h-0.1c-0.4,0.1-0.7-0.3-0.7-0.7c-0.2-1.3-0.3-1.9-0.5-3.2c-1,0.4-1.8,0.7-2.7,1.1c0.3,1.2,0.4,1.7,0.6,2.9 c0.1,0.5-0.1,1.1-0.5,1.3c-0.1,0-0.1,0-0.2,0c-0.3,0.1-0.6-0.2-0.7-0.6c-0.3-1.2-0.4-1.8-0.6-3c-1,0.4-1.8,0.9-2.7,1.3 c0.3,1.2,0.4,1.8,0.7,3c0.1,0.5-0.1,1.1-0.5,1.3c-0.1,0-0.2,0-0.2,0c-0.3,0.1-0.6-0.2-0.7-0.5c-0.3-1.2-0.4-1.8-0.7-3 c-2.1,1.4-3.5,3.1-3.3,3.8c4.5,12.1,65.5,6.4,81.8,5.6c21.3-1,43-2.2,64.2-5.5c8.9-1.4,24.9-3.3,27.1-8.7c0.3-0.6-1.3-2.1-4-3.4 C324,300.4,323.8,301,323.4,302.3z"/>
    <path d="M329.4,300.4c-0.9-1.1-2.5-2.2-4.6-3.1c-0.2,0.7-0.3,1.1-0.5,1.8c2.6,1.1,4.3,2.7,4,3.4c-2.2,5.5-18.1,7.3-27.1,8.7 c-21.2,3.3-42.9,4.6-64.2,5.5c-16.3,0.7-77.3,6.4-81.8-5.6c-0.2-0.7,1.1-2.3,3.3-3.8c-0.2-0.7-0.3-1-0.4-1.7 c-1.7,1.1-3,2.4-3.7,3.6c-0.4,0.8-0.6,1.5-0.6,2.2c0,0.4,0.1,0.8,0.3,1.3c15.2,15.7,64.3,6.9,83.1,6.1 c23.2-1.1,74.5,3.4,92.9-14.8c0.3-0.4,0.4-0.8,0.4-1.2C330.3,301.8,329.9,301.1,329.4,300.4z"/>
    <path d="M271.2,290.9c1.3,0,2.5,0.1,3.7,0.2c0.1-0.8,0.1-1.2,0.2-2.1c-1.3,0-2.7-0.2-3.9-0.2C271.3,289.6,271.3,290.1,271.2,290.9 z"/>
    <path d="M282.8,291.7c1.5,0.2,2.8,0.2,4.3,0.3c0.1-0.8,0.1-1.2,0.2-2.1c-1.4-0.2-2.8-0.3-4.3-0.3 C283,290.4,282.9,290.8,282.8,291.7z"/>
    <path d="M276.8,291.2c1.5,0.1,2.8,0.2,4.2,0.3c0.1-0.8,0.1-1.2,0.2-2.1c-1.3-0.2-2.8-0.2-4.2-0.3C277,290,276.9,290.4,276.8,291.2 z"/>
    <path d="M178.2,299.4c1.4-0.3,2.8-0.8,4.2-1.2c-0.1-0.8-0.2-1.2-0.3-2c-1.4,0.3-2.8,0.7-4.2,1.2C178,298.2,178,298.6,178.2,299.4z "/>
    <path d="M302.5,293.9c1.5,0.2,3,0.5,4.5,0.7c0.2-0.8,0.2-1.2,0.4-2c-1.4-0.3-2.9-0.5-4.5-0.7C302.8,292.7,302.7,293.1,302.5,293.9 z"/>
    <path d="M168.4,302.6c0.9-0.3,1.8-0.7,2.8-1c-0.1-0.8-0.2-1.2-0.3-2c-1,0.3-1.9,0.7-2.8,1C168.2,301.4,168.3,301.8,168.4,302.6z"/>
    <path d="M308.9,294.9c1.2,0.2,2.3,0.5,3.3,0.7c0.2-0.8,0.2-1.1,0.4-1.9c-1-0.2-2.2-0.5-3.3-0.7 C309.1,293.8,309.1,294.2,308.9,294.9z"/>
    <path d="M164.2,304.3c0.9-0.4,1.7-0.7,2.7-1.1c-0.1-0.7-0.2-1.1-0.3-1.9c-1,0.4-1.9,0.7-2.8,1.2 C164,303.2,164.1,303.6,164.2,304.3z"/>
    <path d="M314.2,296c1.2,0.3,2.2,0.5,3.2,0.8c0.2-0.8,0.3-1.1,0.5-1.9c-1-0.3-2.2-0.6-3.4-0.8C314.4,294.8,314.3,295.2,314.2,296z"/>
    <path d="M160.1,306.4c0.7-0.4,1.6-0.8,2.7-1.3c-0.2-0.7-0.3-1.1-0.4-1.8c-1,0.4-1.8,1-2.7,1.4 C159.8,305.4,159.9,305.8,160.1,306.4z"/>
    <path d="M289,292.2c1.6,0.2,3.2,0.3,4.9,0.5c0.2-0.8,0.2-1.2,0.4-2.1c-1.6-0.2-3.3-0.4-4.9-0.5C289.2,290.9,289.1,291.4,289,292.2 z"/>
    <path d="M295.6,292.9c1.8,0.2,3.4,0.4,4.9,0.7c0.1-0.8,0.2-1.2,0.3-2.1c-1.6-0.2-3.3-0.5-4.9-0.7 C295.8,291.6,295.7,292.1,295.6,292.9z"/>
    <path d="M184.1,297.9c1.3-0.3,2.7-0.6,4.2-1c-0.1-0.8-0.1-1.2-0.2-2c-1.4,0.3-2.8,0.6-4.2,1C184,296.7,184,297.1,184.1,297.9z"/>
    <path d="M172.9,301.1c1.2-0.3,2.5-0.8,3.8-1.1c-0.1-0.8-0.1-1.2-0.2-2c-1.3,0.3-2.6,0.8-3.8,1.1 C172.8,299.9,172.8,300.3,172.9,301.1z"/>
    <path d="M265,290.6c1.4,0,3,0.1,4.4,0.1c0-0.8,0.1-1.2,0.1-2.1c-1.4,0-3-0.1-4.4-0.1C265.1,289.4,265.1,289.8,265,290.6z"/>
    <path d="M319.2,297.3c1.2,0.3,2.2,0.7,3.2,1c0.2-0.7,0.3-1.1,0.5-1.8c-1-0.3-2.1-0.8-3.2-1.1C319.5,296.2,319.4,296.5,319.2,297.3 z"/>
    <path d="M205.9,293.9c1.3-0.1,2.7-0.4,4.1-0.5c0-0.8-0.1-1.2-0.1-2.1c-1.3,0.1-2.7,0.4-4.1,0.5C205.9,292.6,205.9,293,205.9,293.9 z"/>
    <path d="M217,292.5c1.3-0.1,2.7-0.2,4.2-0.4c0-0.8-0.1-1.2-0.1-2.1c-1.4,0.1-2.7,0.2-4.2,0.4C216.9,291.2,216.9,291.7,217,292.5z"/>
    <path d="M211.7,293c1.2-0.1,2.3-0.3,3.6-0.4c0-0.8-0.1-1.2-0.1-2.1c-1.2,0.1-2.3,0.3-3.6,0.4C211.7,291.8,211.7,292.2,211.7,293z"/>
    <path d="M229.6,291.3c2.2-0.1,4.3-0.2,6.6-0.3c0-0.8,0-1.2,0-2.1c-2,0.1-4.1,0.2-6.6,0.3C229.6,290.1,229.6,290.5,229.6,291.3z"/>
    <path d="M222.8,291.9c1.7-0.1,3.4-0.2,5.1-0.5c0-0.8-0.1-1.2-0.1-2.1c-1.6,0.1-3.3,0.2-5.1,0.5 C222.8,290.7,222.8,291.1,222.8,291.9z"/>
    <path d="M253.3,290.5c1.4,0,2.9-0.1,4.4,0.1c0-0.8,0.1-1.2,0.1-2.1c-1.5,0-2.9-0.1-4.4-0.1C253.4,289.3,253.4,289.7,253.3,290.5z"/>
    <path d="M237.9,290.9c2.3-0.1,4.5-0.2,6.7-0.3c0-0.8,0.1-1.2,0.1-2.1c-2.6,0.1-4.9,0.2-6.7,0.3c0,0.8,0,1.2,0,2.1 C237.9,290.9,237.9,290.9,237.9,290.9z"/>
    <path d="M246.3,290.6c1.7-0.1,3.5-0.1,5.2,0c0-0.8,0.1-1.2,0.1-2.1c-1.9,0-3.6,0.1-5.3,0C246.4,289.3,246.4,289.8,246.3,290.6z"/>
    <path d="M259.4,290.6c1.3,0,2.6,0.1,3.8,0.1c0-0.8,0.1-1.2,0.1-2.1c-1.3,0-2.6-0.1-3.8-0.1C259.5,289.3,259.5,289.7,259.4,290.6z"/>
    <path d="M189.9,296.6c1.2-0.3,2.5-0.6,3.8-0.7c-0.1-0.8-0.1-1.2-0.2-2c-1.3,0.3-2.5,0.4-3.8,0.7 C189.8,295.4,189.8,295.8,189.9,296.6z"/>
    <path d="M195.4,295.5c1.2-0.3,2.5-0.4,3.7-0.7c-0.1-0.8-0.1-1.2-0.2-2c-1.2,0.3-2.5,0.4-3.7,0.7 C195.2,294.3,195.3,294.7,195.4,295.5z"/>
    <path d="M200.7,294.5c1.1-0.1,2.3-0.4,3.4-0.5c0-0.8-0.1-1.2-0.1-2c-1.2,0.1-2.4,0.4-3.5,0.5C200.6,293.3,200.7,293.7,200.7,294.5 z"/>
    <path d="M240.2,157.7c0-2.1-1.4-3.8-3.2-3.7s-3.2,1.8-3.2,4s1.4,3.8,3.2,3.7C238.8,161.6,240.2,159.9,240.2,157.7z " fill="#FFD83D"/>
    <path d="M234.5,163.1c0.7-0.4,1.6-0.9,2.4-0.9c0.8,0,1.7,0.2,2.4,0.7c1-0.7,1.7-1.9,2.2-3.1c0.2-0.7,0.3-1.2,0.3-2.1 c0-1.4-0.5-2.6-1-3.5c-0.2-0.4-0.5-0.7-0.8-0.9c-0.8-0.8-1.8-1.2-3-1.1c-1.1,0.1-2.2,0.7-3,1.4c-0.3,0.3-0.6,0.6-0.8,1 c-0.7,1-1,2.3-1,3.6c0,0.7,0.1,1.4,0.3,2C232.8,161.4,233.6,162.4,234.5,163.1z M233.9,158c0-2.1,1.4-3.9,3.2-4s3.2,1.5,3.2,3.7 s-1.4,3.9-3.2,4C235.2,161.8,233.9,160.2,233.9,158z"/>
    <path d="M237.1,164.2c1.9-0.1,3.5,1.7,3.5,4s-1.5,4.2-3.5,4.3c-1.9,0.1-3.4-1.7-3.4-3.9 C233.6,166.2,235.2,164.3,237.1,164.2z" fill="#FFD83D"/>
    <path d="M237.1,162.1c-0.9,0-1.7,0.4-2.4,0.9c-0.1,0.1-0.3,0.2-0.5,0.3c-1.4,1.2-2.3,3.1-2.3,5.2c0,1.8,0.7,3.4,1.7,4.4 c0.3,0.3,0.6,0.5,0.9,0.8c0.8-0.5,1.6-0.9,2.5-0.9s1.7,0.2,2.5,0.7c0.3-0.3,0.7-0.6,0.9-0.9c1-1.1,1.7-2.8,1.7-4.6 c0-2.1-0.9-3.9-2.3-5c-0.1-0.1-0.3-0.1-0.5-0.3C238.8,162.4,237.9,162.1,237.1,162.1z M237.1,172.4c-1.8,0.1-3.4-1.6-3.4-3.9 c0-2.3,1.5-4.2,3.4-4.3c2-0.1,3.5,1.6,3.5,4S238.9,172.3,237.1,172.4z"/>
    <path d="M237.1,175c2.1-0.1,3.8,1.9,3.8,4.4s-1.7,4.6-3.8,4.7s-3.8-1.8-3.8-4.3C233.3,177.2,235,175.1,237.1,175z" fill="#FFD83D"/>
    <path d="M237.1,173c-0.9,0-1.7,0.4-2.5,0.9c-0.3,0.3-0.8,0.6-1,0.9c-1.1,1.3-1.9,3.1-1.9,5c0,1.5,0.5,3,1.3,4.1 c0.5,0.7,1,1.2,1.6,1.6c0.8-0.5,1.7-0.8,2.6-0.8c0.9,0,1.8,0.2,2.6,0.6c0.7-0.4,1.2-1,1.6-1.7c0.8-1.1,1.3-2.7,1.3-4.2 c0-2.1-0.8-3.7-2-4.9c-0.3-0.3-0.7-0.7-1-0.8C238.8,173.1,238,172.9,237.1,173z M237.1,184.1c-2.1,0.1-3.8-1.9-3.8-4.3 s1.7-4.6,3.8-4.7s3.8,1.9,3.8,4.4C240.9,181.8,239.1,184,237.1,184.1z"/>
    <path d="M237.1,186.7c2.5-0.1,4.5,2.2,4.5,5.2s-2,5.4-4.5,5.6c-2.5,0.1-4.5-2.2-4.5-5.1S234.6,186.8,237.1,186.7z" fill="#FFD83D"/>
    <path d="M239.7,185.2c-0.8-0.4-1.7-0.6-2.6-0.6c-0.9,0-1.8,0.4-2.6,0.8c-0.7,0.4-1.4,1-1.9,1.9c-1,1.4-1.6,3.1-1.6,5 c0,1.4,0.3,2.6,0.8,3.5c0.6,1.2,1.5,2.3,2.5,2.9c0.9-0.6,1.8-0.9,2.9-1c1,0,2,0.2,2.9,0.7c1-0.7,2-1.7,2.5-3.1 c0.5-1.1,0.8-2.4,0.8-3.6c0-1.9-0.6-3.5-1.6-4.9C241.1,186.1,240.4,185.6,239.7,185.2z M237.1,197.4c-2.5,0.1-4.5-2.2-4.5-5.1 s2.1-5.5,4.5-5.6s4.5,2.3,4.5,5.2C241.6,194.7,239.5,197.3,237.1,197.4z"/>
    <path d="M242,205.7c0-3.3-2.3-6-5.1-5.8c-2.8,0.1-5,3-5,6.3s2.3,5.9,5,5.8C239.7,211.8,242,209,242,205.7z" fill="#FFD83D"/>
    <path d="M243.7,206.2c0-0.1,0-0.4,0-0.5c0-1.1-0.2-2.1-0.5-3c-0.7-1.9-1.9-3.4-3.5-4.1c-0.9-0.5-1.8-0.7-2.9-0.7 c-1,0-1.9,0.4-2.9,1c-1.5,0.9-2.7,2.5-3.4,4.4c-0.3,1-0.5,1.9-0.5,3c0,0.1,0,0.4,0,0.5c0.1,2.2,1,4.2,2.4,5.5 c1.1,1,2.6,1.6,4.2,1.6c1.6-0.1,3.1-0.8,4.3-2C242.7,210.5,243.6,208.4,243.7,206.2z M237.1,211.8c-2.8,0.1-5-2.5-5-5.8 s2.3-6.2,5-6.3c2.8-0.1,5.1,2.5,5.1,5.8C242,209,239.8,211.7,237.1,211.8z"/>
    <path d="M142.2,247.3c-0.5-0.8-0.9-1.2-1.3-1.1c-0.7,0.2-0.9,1.9-0.2,2.8c0.9,1.4,1.6,2.1,2.7,3.1c0.8,0.8,1.2-0.5,0.7-1.5 C143.7,249.7,143.1,248.7,142.2,247.3z"/>
    <path d="M137.1,249.3c-0.4-0.2-0.7-0.2-1-0.2c-0.8,0.2-0.8,1.3-0.2,1.8c0.9,0.7,2.1,1.4,3.3,2.3c1.3,1.1,1.8-0.3,1.2-1.4 C139.5,251,138.9,250.1,137.1,249.3z"/>
    <path d="M343.2,241.7c1.3-1.2,2.3-2.1,3.5-3.5c0.8-1,0.5-2.7-0.3-2.8c-0.4,0-0.9,0.4-1.6,1.3c-1.1,1.6-1.9,2.6-2.4,3.7 C341.7,241.3,342,242.7,343.2,241.7z"/>
    <path d="M339.8,259.2c-2.3,0.4-3.4,2.1-5.8,2c-0.8,0-1.7-0.1-1.6-1.9s2.4-5.9,4.2-8.7c0.9-1.2,0.7-1.7,0-1.6 c-0.4,0-0.9,0.2-1.5,0.6c-1.5,1-5.7,5.3-7.2,7.6c-1.7,2.2-3.4,1.8-3.8,1c-0.4-0.7-1-2.5-1.4-3.9c-0.5-2.1-1.7-2.3-1.7-0.1 c-0.1,2.2,0.8,4.7,1.4,8.6c0.6,3.7-0.1,10-3,17.2c-0.9,2.3,0.8,1.5,2.1-1c3.1-6,11.1-12.4,19.2-17.9 C342.3,260.1,341.9,258.9,339.8,259.2z"/>
    <path d="M348.6,242.3c1.5-1.1,2.8-2,4.2-2.7c0.9-0.6,0.8-1.7-0.3-1.8c-0.4,0-0.8,0.1-1.3,0.3c-2.3,0.9-3.1,2.1-4,3.2 C346.3,242.3,347,243.6,348.6,242.3z"/>
    <path d="M230,227.2c0.1,2.1,1.4,1.2,1.5,0.1c0.1-1.2,0.2-3,0.1-5.4c0-0.8-0.3-1.2-0.8-1.3c-0.1,0-0.1,0-0.2,0 c-0.6,0.2-1.1,0.9-1.1,1.6C229.5,223.5,229.7,225.1,230,227.2z"/>
    <path d="M234.3,227.3c0.2,2,1.3,1.4,1.5-0.1c0.2-1.7,0.1-2.6,0.2-5.6c0-1.5-0.7-2.2-1.3-2.1c-0.7,0-1.3,0.8-1,1.8 C233.9,222.8,234.1,225.4,234.3,227.3z"/>
    <path d="M173,255c0.4,0.8,1.7,0.1,0.9-1.2c-0.8-1.5-1.9-3.3-2.5-4.4c-0.2-0.4-0.6-0.6-1-0.4c-0.6,0.2-1.3,1.2-0.4,2.3 C171.2,253.1,172.6,254.2,173,255z"/>
    <path d="M174.8,248.1c0.9,1.2,1.4-0.1,0.9-1.1s-1.3-2.1-2.8-4.8c-0.3-0.6-0.6-1-0.9-1c-0.6,0-0.8,2.2-0.2,3.1 C172.6,245.4,173.6,246.6,174.8,248.1z"/>
    <path d="M193,235.5c0.7,1.8,1.6,1.3,1.3,0.1c-0.2-1.2-0.5-3.2-1.3-6.2c-0.3-1.3-0.9-1.7-1.3-1.5c-0.5,0.2-1,1.4-0.7,2.6 C191.7,232.3,192.4,233.7,193,235.5z"/>
    <path d="M220.8,230c-0.7,0-1.4,1.2-1.1,2.1c0.3,1.6,0.9,3,1.4,5c0.3,1.8,1.5,0.9,1.4-0.4c-0.1-1.2-0.2-2.9-0.7-5.4 C221.6,230.3,221.3,229.9,220.8,230z"/>
    <path d="M184.7,238.4c-0.1,0-0.1,0-0.2,0c-0.3,0.2-0.5,1-0.3,2.4c1.5,6.8,1.9,10.3,1.7,12.1c-0.2,1.7-1,2.1-2,1.6 c-1-0.4-2.2-1.1-3-1.8c-0.9-0.7-1.8,0.4-0.5,1.6c6.6,5.9,11.2,13.2,12.9,22.4c0.3,1.9,1.3,2,1.1-0.1c-1.4-8.5-2.1-19.5,0.4-27.9 c0.9-2.4,0-4.5-1.3-0.7c-0.9,2.6-2.4,3.7-3.5,1.8c-1.2-2-3.6-7.5-4.3-10C185.3,238.9,185,238.4,184.7,238.4z"/>
    <path d="M225.1,242.3c6.2,9.4,11,19.3,10.9,30.8c0,1.9,0.2,2.5,0.9,2.4c0.7,0,1-0.6,1-2.5c-0.1-11.8,4.9-22.1,11.1-31.9 c1.9-3.2,0.7-3.9-0.9-2.4c-1.5,1.4-2.4,2.1-3.8,3.2c-1.4,1-3,1.5-4-0.1s-2.3-5-2.4-8.5c0-1.1-0.1-2.5-0.9-2.4 c-0.8,0-0.9,1.4-0.9,2.5c-0.1,3.6-1.3,7.1-2.4,8.8c-1,1.7-2.6,1.4-4,0.5s-2.3-1.5-3.7-2.8C224.4,238.5,223.3,239.3,225.1,242.3z"/>
    <path d="M177.7,233.2c0.6,1.4,1,1.9,1.5,3.5c0.6,1.6,1.3,0.2,1-0.8c-0.2-1.1-0.5-2.3-0.9-3.7c-0.2-1.1-0.5-1.4-1-1.2 C177.8,231,177.2,232.3,177.7,233.2z"/>
    <path d="M176.6,242.2c0.5,1,1.5,0.2,0.9-1.2s-0.9-3-1.6-5c-0.3-0.8-0.8-1-1.1-0.9c-0.6,0.1-1.1,1.3-0.4,2.5 C174.9,239.3,176,241,176.6,242.2z"/>
    <path d="M182.1,227.9c-0.6,0.1-1,1.1-0.6,2.3c0.6,1.7,1.4,2.8,2.1,4.6c0.6,1.7,1.5,0.5,1.2-0.7s-0.6-2.5-1.5-5 C182.9,228.2,182.4,227.9,182.1,227.9z"/>
    <path d="M187.8,234.1c0.4,1.6,1.5,0.9,1.2-0.4c-0.3-1.5-0.4-2.3-1.2-4.9c-0.3-1.3-1-1.7-1.4-1.5s-0.8,0.9-0.4,1.7 C186.5,230.7,187.3,232.4,187.8,234.1z"/>
    <path d="M218.1,244.2c0.2,1.6,1.8,1.5,1.5,0c-0.2-1.5-0.3-3.3-0.8-5.4c-0.1-0.8-0.4-1.2-0.9-1.2c-0.1,0-0.1,0-0.2,0 c-0.4,0.2-0.9,0.9-0.7,1.7C217.4,240.8,217.9,242.5,218.1,244.2z"/>
    <path d="M198.1,238.2c0.3,1.2,1.5,0.8,1.3-0.8c-0.3-1.7-0.3-2.3-0.7-4.2c-0.2-1.1-0.8-1.7-1.3-1.6c-0.1,0-0.1,0-0.2,0 c-0.3,0.2-0.4,0.6-0.3,1.4C197,234.4,197.8,236.9,198.1,238.2z"/>
    <path d="M160.8,287.1c1.1,2.3,2.4,3,1.7,0.8c-2.4-6.8-3-13-2.4-16.8c0.5-3.8,1.3-6.5,1.2-8.7s-1.1-1.9-1.4,0.3 c-0.2,1.4-0.7,3.3-1.2,4.1c-0.3,0.7-1.8,1.4-3.1-0.6c-1.4-2.1-4.8-5.9-5.8-6.8c-0.4-0.3-0.8-0.5-1.2-0.4c-0.5,0.1-0.7,0.6,0,1.6 c1.6,2.4,3.3,6.3,3.4,8.2c0.1,1.8-0.5,1.9-1.3,2c-1.9,0.4-2.9-1.2-4.6-1.4s-2,1.1-0.7,1.9C151.7,275.9,158.2,281.4,160.8,287.1z"/>
    <path d="M151.2,249.1c0.4,1.7,1.3,3.6,1.6,4.6s1.3,0.3,1.1-1.2c-0.2-1.6-0.2-2.6-0.5-4.1c-0.1-0.8-0.7-1.2-1.4-1.1 C151.3,247.4,150.9,248,151.2,249.1z"/>
    <path d="M156.8,255.1c0.3,1.4,1.1,1,1.1-0.3c0-1.4-0.2-2.8-0.3-4.3c-0.1-0.7-0.5-1.1-1-1.1c-0.4,0.1-0.7,0.6-0.6,1.6 C156.2,252.4,156.5,253.8,156.8,255.1z"/>
    <path d="M147.9,247.5c-0.3-0.9-1.1-1.3-1.6-1.2s-0.9,0.8-0.5,1.9c0.6,1.6,1.5,3.5,2,4.8s2.1,1.3,1.5-0.6 C148.7,250.4,148.5,249.3,147.9,247.5z"/>
    <path d="M337.7,243.3c0.7-1.3,1.7-3.3,2.5-5.1c0.5-1.2,0.1-1.8-0.7-1.8c-0.8,0-1.7,0.4-2,1.4c-0.8,1.9-0.9,3-1.7,5.1 C335.1,244.9,337.1,244.6,337.7,243.3z"/>
    <path d="M238.3,227c0.2,1.6,1.3,2,1.5-0.1c0.2-1.8,0.5-4.6,0.7-5.9c0.1-1.2-0.5-1.9-1-1.7c-0.7,0-1.4,0.7-1.3,2.3 C238.1,224.4,238,225.5,238.3,227z"/>
    <path d="M244.2,226.5c0.1-2.1,0.5-3.7,0.5-5.1c0-0.7-0.6-1.5-1.2-1.5c-0.1,0-0.1,0-0.2,0c-0.3,0-0.7,0.4-0.8,1.4 c-0.1,2.3,0,4.1,0.1,5.4C242.8,227.8,244.1,228.6,244.2,226.5z"/>
    <path d="M289.6,229.3c0.6-1.8,1.5-3.5,2.1-5.2c0.2-0.8,0-1.5-0.5-1.7c-0.1,0-0.2,0-0.4,0c-0.4,0.1-1,0.5-1.2,1.6 c-0.9,2.7-1,3.6-1.4,5.1C287.7,230.3,289,230.7,289.6,229.3z"/>
    <path d="M294.9,223.7c-1,2.6-1.4,4-1.8,5.2s0.8,2.4,1.4,0.6c0.8-1.9,1.6-3.1,2.4-4.9c0.5-1.1,0-2.2-0.8-2.2 C295.7,222.4,295.4,222.8,294.9,223.7z"/>
    <path d="M281.6,244.5c3.2,8.8,1.5,19,0.5,27.9c-0.2,2.2,0.7,1.9,1.2,0c1.5-8.7,7.9-18.5,14.8-23.9c1.5-1.3,0.4-2.3-0.6-1.5 s-2.4,1.6-3.5,2.1s-2,0.2-2.3-1.4c-0.2-1.7,0.2-5.4,2-12.3c0.4-1.2,0.1-2.2-0.4-2.3c0,0-0.1,0-0.3,0c-0.4,0-0.8,0.5-1,1.5 c-0.9,2.6-3.6,8.3-5,10.5s-3,1.2-4-1.4C281.6,240,280.6,242.2,281.6,244.5z"/>
    <path d="M253.3,235.6c0.5-2.1,1.1-3.5,1.4-5.1c0.2-1-0.5-2.1-1.2-2c-0.5,0-0.8,0.4-0.9,1.4c-0.5,2.6-0.6,4.3-0.7,5.5 C251.8,236.6,253,237.4,253.3,235.6z"/>
    <path d="M277.9,234.4c0.4-1.2,1.2-4,1.5-5.3c0.1-0.8-0.1-1.2-0.4-1.4c-0.1,0-0.1,0-0.2,0c-0.5,0-1.2,0.7-1.5,1.8 c-0.4,1.9-0.4,2.5-0.7,4.3C276.2,235.4,277.5,235.7,277.9,234.4z"/>
    <path d="M256.5,242.4c0.2-1.7,0.7-3.3,1.1-5c0.2-0.8-0.2-1.5-0.7-1.6c-0.1,0-0.1,0-0.2,0c-0.4,0-0.7,0.4-0.9,1.3 c-0.5,2.2-0.6,4-0.8,5.5C254.6,243.9,256.1,243.9,256.5,242.4z"/>
    <path d="M305.6,247.3c-0.9,1.6,0.5,1.9,1,1.1c0.5-0.8,2.2-2.1,3.7-4.1c0.9-1.2,0.3-2.1-0.5-2.2c-0.1,0-0.3,0-0.3,0 c-0.4,0-0.6,0.3-0.9,0.5C308,243.7,306.6,245.7,305.6,247.3z"/>
    <path d="M283.7,231.2c0.7-1.9,1.5-3.4,2-5.2c0.4-1.4,0-2.3-0.7-2.5c-0.5-0.1-1.1,0.4-1.5,1.6c-0.9,3-1.1,5.1-1.5,6.3 C281.8,232.7,283,233.1,283.7,231.2z"/>
    <path d="M303.6,229.8c-0.9,2-1.1,3.7-1.9,5.2s0.4,2.2,1,1.1c0.6-1.1,2-3.1,2.8-4.6s0.3-2.5-0.5-2.5 C304.5,228.8,303.9,229.1,303.6,229.8z"/>
    <path d="M304.8,241.8c1.3-1.6,2.6-3.1,3.4-4.3c0.6-0.9,0.5-3.1-0.3-3c-0.3,0-0.6,0.4-1,1.1c-1.7,2.8-2.7,4-3.3,5.1 C303.1,241.8,303.8,243.1,304.8,241.8z"/>
    <path d="M299.5,230.7c0.6-1.6,1.1-2.2,1.8-3.7c0.4-0.9-0.3-2.2-0.9-2.4c-0.4,0-0.9,0.2-1.1,1.3c-0.4,1.5-0.8,2.7-1,3.8 C298.1,231.1,298.9,232.4,299.5,230.7z"/>
    <path d="M330.2,243.6c-0.3,1.6,0.9,2.1,1.3,1s1.4-3.1,2-4.8c0.3-1.1-0.3-1.7-1.1-1.7s-1.6,0.3-1.7,1.3 C330.5,241.1,330.3,242.1,330.2,243.6z"/>
    <path d="M325.6,241.9c-0.3,1.5-0.4,3-0.4,4.4s0.9,1.7,1.3,0.2s0.8-2.7,1-4.2c0.3-1.1-0.3-1.5-0.8-1.6 C326.3,240.9,325.7,241.3,325.6,241.9z"/>
    <path d="M225.7,223.2c-0.6,0.2-1,1-0.9,1.8c0.3,1.8,0.6,3.7,0.6,5.5c0,1.5,1,0.9,1.1-0.2c0.1-1.1,0.2-3.3,0.2-5.4 C226.7,223.4,226.1,223,225.7,223.2z"/>
    <path d="M248.6,222.1c-0.1,0-0.2,0-0.3,0c-0.3,0.1-0.7,0.7-0.7,1.8c0,2.1,0.1,4.3,0.2,5.4c0.1,1.1,1.2,1.6,1.2,0.1 c0-1.8,0.3-3.7,0.6-5.5C249.7,223,249.1,222.2,248.6,222.1z"/>
    <path d="M325.2,292.5c-0.5-0.2-1,0.1-1.2,0.6c-0.4,1.4-0.6,2-1,3.4c-0.2,0.7-0.3,1.1-0.5,1.8c-0.4,1.2-0.5,1.9-0.9,3.1 c-0.1,0.5,0.1,1.1,0.6,1.3c0.1,0,0.3,0,0.3,0c0.4,0,0.8-0.2,0.9-0.6c0.4-1.2,0.5-1.9,0.9-3.1c0.2-0.7,0.3-1.1,0.5-1.8 c0.4-1.4,0.6-2.1,1-3.5C326.1,293.4,325.7,292.8,325.2,292.5z"/>
    <path d="M159.3,310.4c0.1,0.4,0.4,0.6,0.7,0.5c0.1,0,0.2,0,0.2,0c0.4-0.2,0.6-0.8,0.5-1.3c-0.3-1.2-0.4-1.8-0.7-3 c-0.2-0.7-0.3-1-0.4-1.7c-0.3-1.3-0.5-2-0.8-3.3c-0.1-0.5-0.5-0.7-1-0.5c-0.4,0.2-0.6,0.8-0.5,1.3c0.3,1.4,0.5,2,0.8,3.4 c0.2,0.7,0.3,1,0.4,1.7C158.9,308.7,159,309.3,159.3,310.4z"/>
    <path d="M251.6,290.6c0,0.7-0.1,1-0.1,1.7c0,0.5,0.4,1.1,0.8,1.1l0,0c0.5,0,0.8-0.4,0.8-1c0-0.7,0.1-1.1,0.1-1.8 c0-0.8,0.1-1.2,0.1-2.1c0.1-2,0.1-3.1,0.2-5.1c0-0.5-0.4-1.1-0.8-1.1s-0.9,0.4-0.9,1c-0.1,2-0.1,3.1-0.2,5.1 C251.6,289.3,251.6,289.7,251.6,290.6z"/>
    <path d="M236.1,291c0,0.8,0,1.2,0,1.9c0,0.5,0.3,1.1,0.9,1.1c0.6,0,0.9-0.5,0.9-1.1c0-0.8,0-1.2,0-1.9c0-0.8,0-1.2,0-2.1 c0-2.3,0-3.5,0-5.8c0-0.5-0.3-1.1-0.9-1.1c-0.6,0-0.9,0.5-0.9,1.1c0,2.3,0,3.5,0,5.8C236.1,289.8,236.1,290.2,236.1,291z"/>
    <path d="M287.1,292c-0.1,0.8-0.1,1.2-0.2,2.1c-0.1,0.5,0.2,1.1,0.9,1.1h0.1c0.5,0,0.9-0.4,0.9-0.9c0.1-0.9,0.1-1.3,0.2-2.2 c0.1-0.8,0.1-1.2,0.2-2.1c0.2-1.9,0.3-2.8,0.5-4.7c0.1-0.5-0.2-1.1-0.9-1.1c-0.5,0-1,0.3-1,0.9c-0.2,1.9-0.3,2.9-0.5,4.8 C287.3,290.8,287.2,291.2,287.1,292z"/>
    <path d="M244.6,290.6c0,0.6,0,0.9,0,1.5c0,0.5,0.3,1.1,0.8,1.1l0,0c0.5,0,0.8-0.4,0.8-1c0-0.7,0.1-1,0.1-1.7 c0-0.8,0.1-1.2,0.1-2.1c0.1-2.1,0.1-3.1,0.2-5.2c0-0.5-0.3-1.1-0.8-1.1s-0.9,0.4-0.9,1c-0.1,2.1-0.1,3.1-0.2,5.2 C244.6,289.3,244.6,289.8,244.6,290.6z"/>
    <path d="M307,294.6c-0.2,1.2-0.3,1.8-0.5,3c-0.1,0.5,0.3,1.1,0.8,1.3c0.1,0,0.1,0,0.1,0c0.5,0,0.9-0.2,0.9-0.8 c0.3-1.3,0.4-1.9,0.6-3.1c0.2-0.8,0.2-1.2,0.4-2c0.3-1.4,0.4-2.1,0.6-3.5c0.1-0.5-0.3-1.1-0.8-1.3c-0.5-0.2-1,0.2-1.2,0.8 c-0.3,1.5-0.4,2.2-0.6,3.7C307.2,293.4,307.2,293.8,307,294.6z"/>
    <path d="M275,291c-0.1,0.9-0.1,1.4-0.2,2.3c-0.1,0.5,0.2,1.1,0.8,1.1h0.1c0.5,0,0.9-0.4,0.9-1c0.1-1,0.1-1.5,0.2-2.5 c0.1-0.8,0.1-1.2,0.2-2.1c0.2-1.7,0.3-2.6,0.5-4.3c0.1-0.5-0.2-1.1-0.9-1.1c-0.5,0-1,0.3-1,1c-0.2,1.8-0.3,2.6-0.5,4.4 C275.1,289.8,275.1,290.2,275,291z"/>
    <path d="M257.7,290.6c0,0.8-0.1,1.2-0.1,2.1c0,0.5,0.4,1.1,0.8,1.1l0,0c0.5,0,0.8-0.4,0.8-1c0-0.8,0.1-1.2,0.1-2.1 c0-0.8,0.1-1.2,0.1-2.1c0.1-1.9,0.1-2.9,0.2-4.8c0-0.5-0.4-1.1-0.8-1.1c-0.5,0-0.9,0.4-0.9,1c-0.1,1.9-0.1,2.9-0.2,4.8 C257.7,289.3,257.7,289.8,257.7,290.6z"/>
    <path d="M269.4,290.9c0,0.8-0.1,1.2-0.1,2.1c0,0.5,0.4,1.1,0.8,1.1c0,0,0,0,0.1,0c0.5,0,0.8-0.4,0.8-1c0-0.8,0.1-1.2,0.1-2.1 c0-0.8,0.1-1.2,0.1-2.1c0.1-1.9,0.1-2.9,0.2-4.8c0-0.5-0.4-1.1-0.8-1.1c-0.5,0-1,0.4-1,1c-0.1,1.9-0.1,2.9-0.2,4.8 C269.5,289.6,269.5,290.1,269.4,290.9z"/>
    <path d="M263.2,290.6c0,0.9-0.1,1.4-0.1,2.3c0,0.5,0.4,1.1,0.8,1.1l0,0c0.5,0,0.8-0.4,0.8-1c0-0.9,0.1-1.4,0.1-2.3 c0-0.8,0.1-1.2,0.1-2.1c0.1-1.8,0.1-2.7,0.2-4.5c0-0.5-0.4-1.1-0.8-1.1c-0.5,0-1,0.4-1,1c-0.1,1.8-0.1,2.7-0.2,4.5 C263.2,289.4,263.2,289.8,263.2,290.6z"/>
    <path d="M312.3,295.6c-0.2,1.3-0.3,2-0.5,3.3c-0.1,0.5,0.3,1.1,0.8,1.3c0.1,0,0.1,0,0.1,0c0.5,0,0.9-0.4,0.9-0.8 c0.3-1.3,0.4-2,0.6-3.3c0.2-0.8,0.2-1.1,0.4-1.9c0.3-1.4,0.4-2,0.6-3.4c0.1-0.5-0.3-1.1-0.8-1.3c-0.5-0.2-1,0.2-1.2,0.8 c-0.3,1.4-0.4,2-0.6,3.4C312.5,294.5,312.4,294.9,312.3,295.6z"/>
    <path d="M317.4,296.8c-0.3,1.2-0.5,1.8-0.8,3c-0.1,0.5,0.1,1.1,0.6,1.3c0.1,0,0.1,0,0.3,0c0.4,0,0.8-0.2,0.9-0.6 c0.3-1.3,0.5-1.9,0.8-3.1c0.2-0.8,0.3-1.1,0.5-1.9c0.4-1.4,0.5-2.1,0.9-3.5c0.1-0.5-0.1-1.1-0.6-1.3c-0.5-0.2-1,0.1-1.2,0.6 c-0.4,1.4-0.5,2.1-0.9,3.5C317.7,295.6,317.6,296,317.4,296.8z"/>
    <path d="M221.1,292c0,0.7,0.1,1.1,0.1,1.8c0,0.5,0.3,0.9,0.8,0.9l0,0c0.5,0,0.8-0.6,0.8-1.2c0-0.7-0.1-1-0.1-1.6 c0-0.8-0.1-1.2-0.1-2.1c-0.1-2-0.1-3-0.2-5.1c0-0.5-0.5-0.9-0.9-0.9c-0.5,0-0.8,0.6-0.8,1.2c0.1,2,0.1,3,0.2,5.1 C221,290.9,221,291.3,221.1,292z"/>
    <path d="M171.3,301.6c0.2,1.2,0.3,1.8,0.5,3.1c0.1,0.5,0.4,0.8,0.8,0.7h0.1c0.4-0.2,0.8-0.8,0.6-1.3c-0.2-1.2-0.3-1.8-0.4-3 c-0.1-0.8-0.2-1.2-0.3-2c-0.2-1.4-0.3-2.2-0.5-3.6c-0.1-0.5-0.5-0.9-1-0.7c-0.4,0.2-0.8,0.8-0.6,1.3c0.2,1.4,0.3,2.1,0.5,3.5 C171.1,300.4,171.2,300.8,171.3,301.6z"/>
    <path d="M176.7,299.9c0.2,1.3,0.3,1.9,0.4,3.2c0.1,0.5,0.4,0.8,0.8,0.7h0.1c0.4-0.2,0.8-0.8,0.6-1.3c-0.2-1.2-0.3-1.9-0.4-3.1 c-0.1-0.8-0.1-1.2-0.2-2c-0.2-1.4-0.3-2.1-0.4-3.5c-0.1-0.5-0.5-0.9-1-0.7c-0.4,0.2-0.8,0.8-0.6,1.3c0.2,1.3,0.3,2,0.4,3.4 C176.5,298.7,176.5,299.1,176.7,299.9z"/>
    <path d="M182.5,298.3c0.2,1.6,0.3,2.3,0.5,3.9c0.1,0.5,0.4,0.8,0.8,0.7h0.1c0.4-0.2,0.8-0.8,0.7-1.3c-0.2-1.5-0.3-2.3-0.5-3.8 c-0.1-0.8-0.2-1.2-0.3-2c-0.2-1.1-0.3-1.7-0.4-2.8c-0.1-0.5-0.5-0.9-1-0.7c-0.4,0.2-0.8,0.8-0.7,1.3c0.1,1.1,0.2,1.6,0.3,2.7 C182.2,297.1,182.3,297.5,182.5,298.3z"/>
    <path d="M227.9,291.4c0,0.7,0.1,1,0.1,1.6c0,0.5,0.3,0.9,0.8,0.9l0,0c0.5,0,0.8-0.6,0.8-1.1c0-0.6,0-0.9,0-1.5 c0-0.8-0.1-1.2-0.1-2.1c-0.1-2.1-0.1-3.1-0.2-5.2c0-0.5-0.5-0.9-0.9-0.9c-0.5,0-0.8,0.6-0.8,1.1c0.1,2.1,0.1,3.1,0.2,5.2 C227.9,290.3,227.9,290.7,227.9,291.4z"/>
    <path d="M166.9,303.2c0.2,1.3,0.3,1.9,0.5,3.2c0.1,0.5,0.4,0.8,0.7,0.7h0.1c0.4-0.2,0.8-0.8,0.6-1.3c-0.2-1.3-0.3-1.9-0.4-3.2 c-0.1-0.7-0.2-1.1-0.3-1.9c-0.2-1.3-0.3-2-0.5-3.3c-0.1-0.5-0.5-0.9-1-0.7c-0.4,0.2-0.7,0.8-0.6,1.3c0.2,1.3,0.3,2,0.5,3.3 C166.7,302,166.8,302.4,166.9,303.2z"/>
    <path d="M300.6,293.6c-0.2,1.3-0.3,1.9-0.5,3.1c-0.1,0.5,0.3,1.1,0.8,1.3c0.1,0,0.1,0,0.1,0c0.5,0,0.9-0.4,0.9-0.8 c0.2-1.3,0.3-2,0.5-3.3c0.1-0.8,0.2-1.2,0.3-2.1c0.2-1.4,0.3-2.1,0.5-3.4c0.1-0.5-0.3-1.1-0.8-1.3c-0.5-0.2-1,0.2-1.1,0.8 c-0.2,1.4-0.3,2.1-0.5,3.6C300.7,292.3,300.7,292.7,300.6,293.6z"/>
    <path d="M162.6,305c0.3,1.2,0.4,1.8,0.6,3c0.1,0.4,0.4,0.6,0.7,0.6c0.1,0,0.1,0,0.2,0c0.4-0.2,0.6-0.8,0.5-1.3 c-0.3-1.2-0.4-1.7-0.6-2.9c-0.2-0.7-0.3-1.1-0.4-1.8c-0.3-1.4-0.4-2.1-0.7-3.4c-0.1-0.5-0.5-0.7-1-0.5c-0.4,0.2-0.6,0.8-0.5,1.3 c0.3,1.4,0.4,2.1,0.7,3.4C162.4,304,162.5,304.3,162.6,305z"/>
    <path d="M188.3,297c0.1,0.9,0.1,1.3,0.2,2.2c0,0.5,0.4,0.9,0.8,0.9h0.1c0.4-0.2,0.8-0.6,0.8-1.2c-0.1-0.8-0.1-1.2-0.2-2 c-0.1-0.8-0.1-1.2-0.2-2c-0.2-1.9-0.3-2.8-0.4-4.7c-0.1-0.5-0.4-0.9-0.9-0.8c-0.4,0.2-0.8,0.6-0.8,1.2c0.2,1.8,0.3,2.8,0.4,4.6 C188.1,295.7,188.2,296.1,188.3,297z"/>
    <path d="M193.7,295.9c0.1,1.2,0.2,1.8,0.3,3c0,0.5,0.4,0.9,0.8,0.9h0.1c0.4-0.2,0.8-0.6,0.8-1.2c-0.1-1.1-0.2-1.7-0.3-2.8 c-0.1-0.8-0.1-1.2-0.2-2c-0.2-1.5-0.3-2.3-0.4-3.8c-0.1-0.5-0.4-0.9-0.9-0.9c-0.4,0.2-0.8,0.6-0.8,1.2c0.1,1.5,0.2,2.2,0.3,3.7 C193.5,294.6,193.6,295.1,193.7,295.9z"/>
    <path d="M215.3,292.6c0,0.8,0.1,1.2,0.1,2.1c0,0.5,0.4,0.9,0.8,0.9l0,0c0.4,0,0.8-0.6,0.8-1.2c0-0.8-0.1-1.2-0.1-2.1 c0-0.8-0.1-1.2-0.1-2.1c-0.1-1.9-0.1-2.9-0.2-4.8c0-0.5-0.4-0.9-0.9-0.9c-0.4,0-0.8,0.6-0.8,1.2c0.1,1.9,0.1,2.9,0.2,4.8 C215.2,291.4,215.2,291.8,215.3,292.6z"/>
    <path d="M293.7,292.7c-0.3,1.5-0.4,2.3-0.6,3.8c-0.1,0.5,0.3,1.1,0.8,1.3c0.1,0,0.1,0,0.1,0c0.5,0,0.9-0.4,0.9-0.8 c0.3-1.6,0.4-2.4,0.6-4c0.2-0.8,0.2-1.2,0.4-2.1c0.2-1.1,0.2-1.6,0.4-2.7c0.1-0.5-0.3-1.1-0.8-1.3s-1,0.2-1.1,0.8 c-0.2,1.1-0.3,1.7-0.5,2.9C293.8,291.5,293.8,291.9,293.7,292.7z"/>
    <path d="M210,293.2c0,0.9,0.1,1.4,0.1,2.3c0,0.5,0.4,0.9,0.8,0.9l0,0c0.4,0,0.8-0.6,0.8-1.2c0-0.9-0.1-1.4-0.1-2.3 c0-0.8-0.1-1.2-0.1-2.1c-0.1-1.8-0.1-2.7-0.2-4.5c0-0.5-0.4-0.9-0.9-0.9s-0.8,0.6-0.8,1.2c0.1,1.8,0.1,2.7,0.2,4.5 C209.9,292,210,292.4,210,293.2z"/>
    <path d="M204.3,294c0,0.8,0.1,1.2,0.1,2c0,0.5,0.4,0.9,0.8,0.9c0,0,0,0,0.1,0c0.4,0,0.8-0.6,0.8-1.2c0-0.8-0.1-1.2-0.1-2 s-0.1-1.2-0.1-2c-0.1-1.9-0.1-2.9-0.2-4.8c0-0.5-0.4-0.9-0.9-0.9c-0.4,0-0.8,0.6-0.8,1.2c0.1,1.9,0.1,2.9,0.2,4.8 C204.2,292.8,204.2,293.2,204.3,294z"/>
    <path d="M281,291.5c-0.1,1.2-0.2,1.7-0.4,2.9c-0.1,0.5,0.2,1.1,0.9,1.1h0.1c0.5,0,0.9-0.4,0.9-1c0.1-1.2,0.2-1.8,0.4-3 c0.1-0.8,0.1-1.2,0.2-2.1c0.1-1.5,0.2-2.2,0.4-3.7c0.1-0.5-0.2-1.1-0.9-1.1c-0.5,0-1,0.3-1,0.9c-0.2,1.5-0.3,2.3-0.5,3.8 C281,290.3,281,290.7,281,291.5z"/>
    <path d="M199.1,294.8c0.1,1,0.1,1.5,0.2,2.4c0,0.5,0.4,0.9,0.8,0.9h0.1c0.4-0.2,0.8-0.6,0.8-1.2c-0.1-0.9-0.1-1.4-0.2-2.3 c-0.1-0.8-0.1-1.2-0.2-2c-0.2-1.7-0.3-2.6-0.4-4.3c-0.1-0.5-0.4-0.9-0.9-0.9c-0.4,0.2-0.8,0.6-0.8,1.2c0.2,1.7,0.3,2.5,0.4,4.2 C199,293.6,199,294,199.1,294.8z"/>
  </g>
  <g opacity="0.3">
    <path d="M259.7,30c127.9,0,223.7,15.9,325.2,32.8C688.7,80,796.1,97.9,941,97.9c44.4,0,90-6.1,135.4-18.1 c30.5-8.1,61.9-19,93.6-32.7v757.2c-36.8,17.4-73.5,30.8-109.2,40C1020.3,854.7,979.7,860,940,860c-140.1,0-243.6-16.8-343.7-33 c-98.9-16.1-201.3-32.7-336.6-32.7c-45.7,0-91.1,5.3-135.1,15.8C93,817.6,61.3,827.9,30,841V86.6C67.1,69,103.8,55.4,139.2,46.1 C179.9,35.4,220.4,30,259.7,30 M1200,0c-89.2,45-174.4,67.9-259,67.9C660.3,67.9,524.3,0,259.7,0C175.2,0,89.1,23,0,67.9 c0,242.4,0,577.6,0,820c89-44.9,175.2-63.6,259.7-63.6c268.9,0,398.5,65.7,680.3,65.7c84.6,0,170.8-22,260-66.9 C1200,580.7,1200,242.4,1200,0L1200,0z" fill="#212121"/>
  </g>
</svg>