<svg viewBox="0 0 1200 890" xmlns="http://www.w3.org/2000/svg" xmlns:xlink="http://www.w3.org/1999/xlink">
  <g>
    <path d="M377.8,416.9c149,12.8,295,46.4,444.2,57.4c61.6,4.5,124.1,7.6,185.6,0c68.1-8.4,131.4-32.2,192.5-62.8 c0,137.2,0,274.4,0,411.5c-60.7,30.9-124,53.9-191.8,62.3c-61.6,7.7-124.3,4.7-186,0.1c-149-11.2-295.2-43.5-444-56.4 C378,691.7,377.9,554.3,377.8,416.9z" fill="#007E3A"/>
    <path d="M377.4,4.8c149.2,12.7,295,47.5,444.4,58.4c61.4,4.5,123.8,7.5,185.1,0c68.4-8.4,131.7-32.9,193.1-63.2 c0,137.2,0,274.4,0,411.5c-61.1,30.6-124.3,54.3-192.5,62.8c-61.4,7.6-124,4.6-185.6,0c-149.2-11-295.2-44.6-444.2-57.4 C377.6,279.5,377.5,142.2,377.4,4.8z" fill="#FC3D32"/>
    <path d="M377.4,4.8C310.8-0.3,243.2-3.8,177,7.3C114.9,17.8,56.7,41.1,0,67.9c0,136.7,0,273.3,0,410s0,273.3,0,410 c56.4-27.1,114.7-48.7,176.9-57.7c66.6-9.6,134.4-6.3,201.2-1.1c-0.1-137.4-0.2-274.8-0.3-412.1 C377.6,279.5,377.5,142.2,377.4,4.8z" fill="#FFFFFF"/>
  </g>
  <g opacity="0.3">
    <path d="M259.7,30c127.9,0,223.7,15.9,325.2,32.8C688.7,80,796.1,97.9,941,97.9c44.4,0,90-6.1,135.4-18.1 c30.5-8.1,61.9-19,93.6-32.7v757.2c-36.8,17.4-73.5,30.8-109.2,40C1020.3,854.7,979.7,860,940,860c-140.1,0-243.6-16.8-343.7-33 c-98.9-16.1-201.3-32.7-336.6-32.7c-45.7,0-91.1,5.3-135.1,15.8C93,817.6,61.3,827.9,30,841V86.6C67.1,69,103.8,55.4,139.2,46.1 C179.9,35.4,220.4,30,259.7,30 M1200,0c-89.2,45-174.4,67.9-259,67.9C660.3,67.9,524.3,0,259.7,0C175.2,0,89.1,23,0,67.9 c0,242.4,0,577.6,0,820c89-44.9,175.2-63.6,259.7-63.6c268.9,0,398.5,65.7,680.3,65.7c84.6,0,170.8-22,260-66.9 C1200,580.7,1200,242.4,1200,0L1200,0z" fill="#212121"/>
  </g>
</svg>