<svg viewBox="0 0 1200 1200" xmlns="http://www.w3.org/2000/svg" xmlns:xlink="http://www.w3.org/1999/xlink">
  <g>
    <path d="M600,601.3L600,601.3L600,601.3z" fill="#00247D"/>
    <path d="M600,601.3L600,601.3L600,601.3z" fill="#00247D"/>
    <path d="M60.2,605.5c52.5-20.2,105.4-32.1,161.5-36.5c0-41.9-0.1-83.8-0.1-125.7 C162.2,491.8,109.9,547.2,60.2,605.5z" fill="#00247D"/>
    <path d="M322.1,568.7c69.1,3.6,137.9,11.5,206.4,21.3c-67.3-51.1-136.8-99.2-206.4-147.1 C322.1,484.8,322.1,526.7,322.1,568.7z" fill="#00247D"/>
    <path d="M0,496.7c0,30.2,0,60.3,0,90.5c37.6-47,75.7-93.4,116.6-137.6C76,461.5,37.7,477.5,0,496.7z" fill="#00247D"/>
    <path d="M527.1,178.7c-68.1-9.9-136.4-18.4-205.2-22.3c0,41.8,0,83.6,0.1,125.4C388.2,243.3,457.7,211,527.1,178.7z " fill="#00247D"/>
    <path d="M221.2,156.9c-56.8,5.2-110.7,18.2-163.7,39.4c57.9,22.6,111.6,52.5,163.9,85.9 C221.3,240.5,221.3,198.7,221.2,156.9z" fill="#00247D"/>
    <path d="M600,555.2c0-30.4,0-60.7,0-91.1c-48.8-8.1-97.6-15.3-146.6-21.4C503.3,478.8,552.6,515.8,600,555.2z" fill="#00247D"/>
    <path d="M0,269.5c0,30.2,0,60.5,0,90.7C37.3,341,75.4,325,115.7,312.9C78.2,294.9,40.1,280.3,0,269.5z" fill="#00247D"/>
    <path d="M600,327c0-30.3,0-60.7,0-91c-48.7,23.8-98.1,46.2-147.1,69.5C502.1,311.7,551.1,319,600,327z" fill="#00247D"/>
    <path d="M175.7,436.7c-19.9,3.3-39.6,7.3-59.1,12.9C75.7,493.7,37.6,540.2,0,587.2c0,15.3,0,30.5,0,45.8l0,0 C55.1,564.4,111.3,496.8,175.7,436.7z" fill="#FFFFFF"/>
    <path d="M321.9,293.6c2.2,0.1,3.4,0.2,5.6,0.3c72.5-41.6,148.6-76,224.2-111.5c16.1,2.5,32.2,5,48.3,7.6l0,0l0,0 c-24.3-3.9-48.6-7.6-72.9-11.2c-69.4,32.2-138.9,64.5-205.2,103C321.9,286.5,321.9,288.9,321.9,293.6z" fill="#FFFFFF"/>
    <path d="M600,601.3L600,601.3L600,601.3z" fill="#FFFFFF"/>
    <path d="M600,601.3c-71.2-59.5-146.8-113.5-222.9-166.5c-18.4-1.5-36.7-2.8-55.1-3.8c0,4.7,0,7.1,0,11.8 c69.6,47.9,139.1,96,206.4,147.1C552.4,593.6,576.2,597.3,600,601.3z" fill="#FFFFFF"/>
    <path d="M135.2,307.7C91.7,285.2,47.2,267,0,254.2c0-10.2,0-20.4,0-30.6c0,15.3,0,30.7,0,46 c40.1,10.8,78.2,25.4,115.7,43.3C123.4,310.7,127.3,309.6,135.2,307.7z" fill="#FFFFFF"/>
    <path d="M221.6,431.4c-2,0.1-2.9,0.2-4.9,0.4C151.4,486,94.8,548.5,40.6,613.6c7.9-3.5,11.8-5.1,19.6-8.2 c49.7-58.3,101.9-113.7,161.3-162.2C221.6,438.5,221.6,436.2,221.6,431.4z" fill="#FFFFFF"/>
    <path d="M428,439.8c58.7,41.8,116.7,84.6,172,130.8c0-6.1,0-9.2,0-15.4c-47.4-39.4-96.7-76.4-146.6-112.5 C443.2,441.5,438.1,440.9,428,439.8z" fill="#FFFFFF"/>
    <path d="M221.4,294.1c0-4.7,0-7.1,0-11.8c-52.3-33.4-106-63.4-163.9-85.9c-19.6,8.2-38.6,17.3-57.5,27.2 c62.1,17.1,119.6,43.7,175.2,76C190.6,297.3,205.9,295.4,221.4,294.1z" fill="#FFFFFF"/>
    <path d="M376.9,297.4c25.4,2.3,50.7,5,76,8.1c49-23.3,98.4-45.7,147.1-69.5c0-15.3,0-30.7,0-46l0,0 C525.8,226.2,450.1,259.3,376.9,297.4z" fill="#FFFFFF"/>
    <line fill="none" x1="600" x2="600" y1="601.3" y2="601.3"/>
    <line fill="none" x1="600" x2="600" y1="601.3" y2="601.3"/>
    <path d="M377.1,434.8c76.1,53.1,151.7,107,222.9,166.5l0,0c0-10.2,0-20.5,0-30.7c-55.3-46.2-113.3-89-172-130.8 C411,438,394.1,436.3,377.1,434.8z" fill="#CF142B"/>
    <path d="M40.6,613.6C94.8,548.5,151.4,486,216.7,431.8c-13.7,1.3-27.4,2.7-41,4.9C111.3,496.8,55.1,564.4,0,632.9 l0,0C13.4,626.2,26.9,619.8,40.6,613.6z" fill="#CF142B"/>
    <path d="M600,190c-16.1-2.6-32.2-5.1-48.3-7.6c-75.6,35.5-151.7,69.9-224.2,111.5c16.5,0.9,32.9,2.1,49.3,3.6 C450.1,259.3,525.8,226.2,600,190z" fill="#CF142B"/>
    <path d="M135.2,307.7c13.2-3.2,26.6-5.9,40-8.1c-55.6-32.4-113-59-175.2-76c0,10.2,0,20.4,0,30.6 C47.2,267,91.7,285.2,135.2,307.7z" fill="#CF142B"/>
    <path d="M300.7,320.2c100.5,3.8,200.2,18.1,299.3,34.2c0-11,0-16.5,0-27.4c-48.9-8-97.9-15.3-147.1-21.5 c-25.3-3.1-50.6-5.8-76-8.1c-16.4-1.5-32.9-2.6-49.3-3.6c-2.2-0.1-3.4-0.2-5.6-0.3c0-4.7,0-7.1,0-11.8c0-41.8,0-83.6-0.1-125.4 c-8.6-0.4-12.8-0.6-21.2-0.9C300.7,210.4,300.7,265.3,300.7,320.2z" fill="#FFFFFF"/>
    <path d="M175.7,436.7c13.6-2.1,27.3-3.6,41-4.9c1.9-0.2,2.9-0.2,4.9-0.4c0,4.7,0,7.1,0,11.8 c0,41.9,0.1,83.8,0.1,125.7c7.5-0.5,11.3-0.7,18.9-1c0-55,0-110.1-0.1-165.1C154.8,407.5,76.4,430.5,0,469.4c0,10.9,0,16.4,0,27.3 c37.7-19.1,76-35.2,116.6-47.1C136,444,155.8,440,175.7,436.7z" fill="#FFFFFF"/>
    <path d="M240.5,320.3c0-54.9,0-109.8-0.1-164.7c-7.8,0.4-11.6,0.6-19.2,1.2c0,41.8,0.1,83.6,0.1,125.4 c0,4.7,0,7.1,0,11.8c-15.5,1.4-30.9,3.2-46.2,5.5c-13.4,2.2-26.8,4.9-40,8.1c-7.8,1.9-11.7,3-19.5,5.2C75.4,325,37.3,341,0,360.3 c0,10.9,0,16.4,0,27.3C76.3,348.4,154.8,325.2,240.5,320.3z" fill="#FFFFFF"/>
    <path d="M300.8,402.7c0,55.1,0,110.1,0,165.2c8.4,0.3,12.7,0.4,21.3,0.8c0-41.9,0-83.9-0.1-125.8 c0-4.7,0-7.1,0-11.8c18.4,1,36.8,2.3,55.1,3.8c17,1.5,33.9,3.2,50.8,5c10.1,1.1,15.2,1.7,25.4,2.9c49,6.1,97.9,13.3,146.6,21.4 c0-11,0-16.5,0-27.4C500.9,420.4,401.2,406.4,300.8,402.7z" fill="#FFFFFF"/>
    <path d="M240.6,402.8c0,55,0,110.1,0.1,165.1c20-0.8,40.1-0.6,60.1-0.1c0-55.1,0-110.1,0-165.2 c100.4,3.8,200.2,17.7,299.2,34c0-27.4,0-54.9,0-82.3c-99.1-16.2-198.8-30.4-299.3-34.2c0-54.9,0-109.8,0-164.7 c-10.2-0.2-20.5-0.4-30.7-0.4c-9.8,0-19.7,0.2-29.5,0.7c0,54.9,0,109.8,0.1,164.7c-85.8,4.8-164.3,28-240.6,67.2 c0,13.6,0,27.3,0,40.9s0,27.3,0,40.9C76.4,430.5,154.8,407.5,240.6,402.8z" fill="#CF142B"/>
    <path d="M600,190c0,15.3,0,30.7,0,46c0,30.3,0,60.7,0,91c0,11,0,16.5,0,27.4c0,27.4,0,54.9,0,82.3 c0,11,0,16.5,0,27.4c0,30.4,0,60.7,0,91.1c0,6.1,0,9.2,0,15.4c0,10.2,0,20.5,0,30.7l0,0l0,0l0,0c-23.8-4-47.6-7.8-71.5-11.3 c-68.5-9.9-137.2-17.7-206.4-21.3c-8.6-0.4-12.9-0.6-21.3-0.8c-20-0.5-40.1-0.8-60.1,0.1c-7.7,0.3-11.4,0.5-18.9,1 c-56.1,4.4-109,16.3-161.5,36.5c-7.8,3.1-11.7,4.7-19.6,8.2C27,619.8,13.5,626.3,0.1,633c0,45.4,0,90.8,0,136.2 c0,91,0,182.1,0,273.1c96.5-46.4,192.1-64.9,298.8-62.2c101,2.6,201.8,15.2,301.2,32.6s200.3,29.9,301.3,32.4 c106.1,2.6,203.8-19.1,298.7-66.9c0-274.2,0-548.5,0-822.7c-87.2,38.8-173.7,68-270,68.2C819.4,223.9,708.9,207.2,600,190z M1142.1,486.6c-7.6,11.8-15.3,23.5-23,35.2c3.1,13.1,6.1,26.1,9.2,39.2c-7.8-5.9-15.5-11.9-23.1-18.1c-7.5,11.2-15,22.4-22.6,33.5 c2.8-15.1,5.7-30.1,8.5-45.2c-7.7-6.5-15.4-13-22.9-19.7c9.4-2.5,18.7-5.2,27.9-8.2c2.8-15.1,5.6-30.2,8.3-45.4 c3,13.1,6.1,26.3,9.1,39.4C1123.1,494,1132.7,490.4,1142.1,486.6z M1096.1,380.3c-4.6,14.4-9.2,28.9-13.8,43.3 c6.3,9.1,12.7,18.2,19.2,27.2c-11.1,0-16.6-0.2-27.6-0.9c-4.6,14.2-9.2,28.4-13.9,42.7c-1.1-14.6-2.1-29.3-3.2-43.9 c-11-1-16.6-1.7-27.8-3.3c8.7-7.8,17.2-15.6,25.7-23.6c-1.1-14.7-2.1-29.3-3.2-44c6.3,9.5,12.6,18.9,18.9,28.4 C1079.1,397.6,1087.6,389,1096.1,380.3z M977.5,336.3c8.9,5.2,17.9,10.2,27,15.1c6.5-12,12.8-24.1,19.1-36.2 c-0.9,15.1-1.9,30.1-2.8,45.2c8.6,4.5,17.2,8.8,25.9,12.9c-9.1,5.2-18.4,10.1-27.8,14.8c-0.9,15-1.9,30.1-2.8,45.1 c-4.8-12.3-9.7-24.5-14.5-36.8c-9.6,4.4-19.3,8.5-29.2,12.3c6.8-11.6,13.4-23.3,20-35C987.4,361.2,982.5,348.8,977.5,336.3z M930,293.5c3.4,14.1,6.8,28.2,10.1,42.4c10.4-0.1,20.8-0.6,31.1-1.3c-8.2,9.3-16.5,18.5-25.1,27.5c3.3,14,6.6,28.1,9.8,42.1 c-8.7-8.5-17.3-17-26-25.5c-8.8,8.8-17.8,17.4-26.9,25.9c3.5-14.1,7-28.1,10.5-42.2c-9.2-9.1-18.4-18.3-27.6-27.4 c11.3,0.4,22.5,0.7,33.7,0.9C923.2,321.8,926.6,307.7,930,293.5z M822.8,318.2c8,11.7,15.9,23.3,23.9,35 c10.8-5.3,21.5-10.7,32.1-16.2c-5.8,12.7-11.7,25.3-17.6,38c7.8,11.4,15.7,22.9,23.5,34.3c-11.5-3.6-22.9-7.4-34.4-11.2 c-6,12.6-12,25.1-18,37.6c-1.2-15-2.4-30-3.7-45c-11.9-4.1-23.8-8.2-35.6-12.5c11.1-4.9,22.2-10,33.2-15.1 C825.1,348.2,824,333.2,822.8,318.2z M728.3,391.6c11.2,7.4,22.4,14.8,33.7,22.1c8.3-10.2,16.5-20.3,24.7-30.6 c-1.3,14.8-2.6,29.5-4,44.3c11.1,7.1,22.2,14.2,33.3,21.2c-12,2.1-23.9,4.1-35.9,5.9c-1.3,14.8-2.7,29.5-4,44.3 c-6.1-13.7-12.3-27.3-18.4-41c-12.1,1.7-24.2,3.4-36.4,5c8.3-10,16.6-20.1,24.9-30.2C740.3,419,734.3,405.3,728.3,391.6z M728.9,514.6c12.3,1.5,24.7,3,37,4.3c-10,7.7-20,15.3-30.1,22.9c3.8,14.6,7.6,29.3,11.4,43.9c-10-10-20-20-29.9-30 c-10,7.5-20,14.9-30,22.4c3.9-13.7,7.8-27.3,11.7-41c-9.9-10.1-19.8-20.3-29.6-30.5c12.2,1.8,24.5,3.5,36.7,5.1 c3.8-13.7,7.7-27.4,11.5-41C721.5,485.3,725.2,500,728.9,514.6z M686.5,587.5c8.1,12.2,16.3,24.4,24.5,36.5 c11.3-4.6,22.6-9.2,33.9-13.9c-6.3,12.2-12.5,24.5-18.8,36.7c8.2,12.1,16.4,24.1,24.7,36.1c-12.2-4.5-24.3-9.1-36.4-13.7 c-6.2,12.2-12.5,24.3-18.7,36.5c-1.2-15.1-2.4-30.2-3.7-45.3c-11.9-4.7-23.9-9.6-35.7-14.5c11.1-4.4,22.3-8.9,33.4-13.3 C688.6,617.7,687.5,602.6,686.5,587.5z M692,786.2c8.3-10,16.5-20,24.8-30c-6.2-13.8-12.3-27.6-18.4-41.4 c11.2,7.5,22.4,15,33.7,22.4c8.3-10.1,16.7-20.2,25-30.3c-1.3,14.8-2.7,29.5-4,44.3c11.2,7.3,22.5,14.5,33.9,21.6 c-12.1,2-24.3,3.8-36.5,5.5c-1.3,14.8-2.7,29.5-4,44.3c-6.2-13.7-12.4-27.4-18.5-41.1C715.9,783.2,703.9,784.7,692,786.2z M770.3,901.2c3.9-13.8,7.9-27.6,11.8-41.3c-10-9.8-20-19.6-30-29.5c12.4,1.4,24.8,2.6,37.1,3.8c3.8-13.9,7.6-27.8,11.5-41.7 c3.8,14.5,7.6,29,11.4,43.5c12.1,1,24.2,1.9,36.4,2.6c-9.7,8.2-19.6,16.3-29.5,24.2c3.8,14.4,7.6,28.9,11.3,43.3 c-9.9-9.5-19.8-19.1-29.7-28.7C790.6,885.5,780.5,893.4,770.3,901.2z M876,966.9c-1.2-14.9-2.4-29.9-3.6-44.8 c-11.7-3.7-23.5-7.5-35.1-11.3c11-5.2,21.9-10.6,32.8-16.2c-1.2-14.9-2.4-29.9-3.7-44.8c7.8,11.4,15.6,22.7,23.4,34.1 c10.4-5.6,20.8-11.4,31-17.4c-5.6,12.9-11.2,25.8-16.9,38.6c7.5,11.1,15,22.3,22.3,33.4c-11-3.3-22-6.6-33.1-9.9 C887.5,941.5,881.8,954.2,876,966.9z M980.3,966.2c-5.2-12.6-10.4-25.2-15.6-37.8c-10.4,3.6-20.8,7-31.3,10.2 c7.3-11.1,14.4-22.3,21.4-33.6c-5.3-12.8-10.7-25.7-16.1-38.5c9.6,5.7,19.3,11.4,28.9,17c7-11.5,13.8-23.1,20.5-34.8 c-1,15-2.1,30-3.1,45c9.1,5.1,18.3,10,27.6,14.9c-9.8,4.4-19.6,8.7-29.6,12.7C982.2,936.2,981.2,951.2,980.3,966.2z M1066,894.3 c-7.9-6.9-15.7-13.9-23.5-21c-7.7,10.3-15.6,20.5-23.6,30.5c3-14.7,6.1-29.3,9.1-44c-8-7.5-16.1-15.1-24-22.7 c9.9-1.2,19.7-2.8,29.5-4.6c2.9-14.8,5.8-29.6,8.7-44.5c3.1,13.5,6.1,27,9.2,40.6c9.6-2.1,19.1-4.5,28.6-7.2 c-7.5,10.8-15.2,21.6-23,32.2C1059.9,867.2,1063,880.7,1066,894.3z M1083.8,813.4c-1.1-14.6-2.2-29.2-3.3-43.8 c-9.3-0.5-18.7-1.2-28-2.2c8.8-8.1,17.4-16.3,25.9-24.7c-1.1-14.6-2.2-29.2-3.2-43.9c6.3,9.2,12.7,18.4,19.1,27.6 c8.7-8.8,17.2-17.8,25.7-26.8c-4.6,14.6-9.3,29.3-13.9,43.9c6.3,8.9,12.7,17.7,19.1,26.5c-11.1,0.4-16.7,0.5-27.8,0.2 C1092.9,784.7,1088.4,799,1083.8,813.4z M1121.9,690.2c-4.9-11.3-9.7-22.6-14.5-33.9c-9.1,6.1-18.3,12.1-27.6,18 c6.2-13,12.5-25.9,18.6-38.9c-4.8-11.5-9.7-23-14.4-34.5c10.3,4.2,15.5,6.2,25.9,9.8c6.3-13.3,12.5-26.7,18.7-40.1 c-0.9,15.3-1.8,30.5-2.7,45.8c10.4,3.3,15.7,4.9,26.3,7.7c-9.3,6.9-18.6,13.7-28,20.4C1123.4,659.7,1122.7,674.9,1121.9,690.2z" fill="#00247D"/>
    <g>
      <path d="M946.2,362.4c8.5-9.1,16.9-18.4,25.1-27.8c-10.3,0.8-20.8,1.2-31.1,1.3c-3.4-14.1-6.7-28.3-10.1-42.4 c-3.4,14.1-6.8,28.3-10.3,42.4c-11.3-0.2-22.5-0.5-33.7-0.9c9.2,9.1,18.3,18.2,27.4,27.4c-3.4,14.1-6.8,28.2-10.3,42.2 c9.1-8.5,18.1-17.1,26.9-25.9c8.6,8.6,17.2,17.2,25.8,25.8C952.6,390.4,949.4,376.4,946.2,362.4z" fill="#FFFFFF"/>
      <path d="M1001.6,396.5c4.9,12.2,9.8,24.3,14.7,36.5c1-15,1.9-29.9,2.8-44.9c9.4-4.6,18.7-9.6,27.8-14.8 c-8.8-4.2-17.5-8.6-26.1-13.2c0.9-15,1.9-29.9,2.8-44.9c-6.3,12.1-12.6,24.2-19.1,36.2c-9.1-4.9-18.1-10-27-15.1 c5,12.4,9.9,24.8,14.8,37.2c-6.5,11.8-13.2,23.6-20,35.3C982.2,405,992,400.9,1001.6,396.5z" fill="#FFFFFF"/>
      <path d="M1029,445.3c11.2,1.6,16.7,2.3,27.8,3.3c1.1,14.6,2.1,29.3,3.2,43.9c4.6-14.2,9.3-28.4,13.9-42.7 c11,0.6,16.5,0.8,27.6,0.9c-6.4-9-12.8-18.1-19.2-27.2c4.6-14.4,9.2-28.9,13.8-43.3c-8.4,8.7-16.9,17.3-25.4,25.8 c-6.4-9.4-12.7-18.9-19.1-28.3c1.1,14.6,2.2,29.3,3.3,43.9C1046.4,429.7,1037.8,437.6,1029,445.3z" fill="#FFFFFF"/>
      <path d="M1067.8,511.7c7.5,6.7,15.2,13.3,22.9,19.7c-2.8,15.1-5.5,30.3-8.3,45.4c7.6-11.1,15.1-22.3,22.6-33.5 c7.6,6.2,15.3,12.2,23.1,18.1c-3-13.2-6-26.4-9-39.5c7.7-11.7,15.3-23.5,23-35.2c-9.4,3.8-19,7.4-28.6,10.8 c-3.1-13.1-6.1-26.3-9.1-39.4c-2.8,15.1-5.5,30.2-8.3,45.4C1086.8,506.4,1077.3,509.2,1067.8,511.7z" fill="#FFFFFF"/>
      <path d="M1126.3,616.2c0.9-15.3,1.8-30.5,2.7-45.8c-6.2,13.5-12.5,26.9-18.7,40.4c-10.5-3.7-15.7-5.8-26.1-10 c4.8,11.5,9.6,23,14.4,34.5c-6.2,13-12.4,26-18.6,38.9c9.2-5.9,18.4-11.8,27.5-17.9c4.8,11.3,9.6,22.6,14.5,33.9 c0.9-15.3,1.8-30.5,2.6-45.8c9.4-6.7,18.7-13.5,28-20.4C1142,621.1,1136.7,619.6,1126.3,616.2z" fill="#FFFFFF"/>
      <path d="M1120.2,699.6c-8.5,9.2-17.1,18.2-25.9,27.2c-6.4-9.3-12.8-18.6-19.1-27.9c1.1,14.6,2.2,29.2,3.2,43.9 c-8.5,8.5-17.1,16.8-25.9,25c11.2,1.2,16.8,1.6,27.8,2.2c1.1,14.5,2.3,29,3.4,43.5c4.6-14.3,9.2-28.6,13.8-42.9 c11.1,0.1,16.7,0,27.8-0.5c-6.4-8.8-12.8-17.6-19.1-26.5C1111,728.8,1115.6,714.2,1120.2,699.6z" fill="#FFFFFF"/>
      <path d="M1051.1,828.9c-3-13.6-6-27.2-9.1-40.9c-2.9,14.8-5.9,29.7-8.9,44.5c-9.8,1.8-19.6,3.4-29.5,4.6 c8,7.6,16,15.2,24,22.7c-3,14.7-6,29.3-9.1,44c8.1-10.1,16-20.3,23.8-30.6c7.8,7.1,15.6,14.1,23.5,21c-3.1-13.4-6.2-26.9-9.2-40.3 c7.8-10.7,15.5-21.4,23.1-32.3C1070.4,824.4,1060.8,826.8,1051.1,828.9z" fill="#FFFFFF"/>
      <path d="M988.6,848.7c-6.8,11.8-13.7,23.5-20.7,35.1c-9.7-5.7-19.3-11.5-28.9-17.3c5.4,12.8,10.7,25.6,16.1,38.5 c-7.1,11.3-14.3,22.5-21.6,33.6c10.5-3.2,20.9-6.6,31.3-10.2c5.2,12.6,10.4,25.2,15.6,37.8c1.1-15,2.1-29.9,3.1-44.9 c10-4.1,19.8-8.3,29.6-12.7c-9.3-4.8-18.6-9.7-27.8-14.8C986.4,878.7,987.5,863.7,988.6,848.7z" fill="#FFFFFF"/>
      <path d="M920.9,866.5c-10.2,6.1-20.5,12-31,17.7c-7.8-11.5-15.7-23-23.6-34.4c1.3,14.9,2.6,29.9,3.9,44.8 c-10.9,5.6-21.9,10.9-33,16.2c11.7,3.9,23.4,7.6,35.1,11.3c1.2,14.9,2.4,29.9,3.6,44.8c5.9-12.7,11.7-25.5,17.5-38.2 c11,3.3,22,6.6,33,9.9c-7.5-11.2-15-22.3-22.5-33.4C909.7,892.3,915.4,879.4,920.9,866.5z" fill="#FFFFFF"/>
      <path d="M848.4,838.9c-12.1-0.8-24.3-1.6-36.4-2.6c-3.8-14.6-7.6-29.2-11.4-43.7c-3.8,13.9-7.6,27.8-11.5,41.7 c-12.5-1.2-24.9-2.4-37.4-3.8c10.1,9.9,20.1,19.7,30.2,29.5c-3.9,13.8-7.8,27.6-11.8,41.3c10.1-7.8,20.1-15.6,30.1-23.5 c10,9.6,19.9,19.1,29.9,28.7c-3.8-14.4-7.6-28.9-11.3-43.3C828.9,855.2,838.7,847.1,848.4,838.9z" fill="#FFFFFF"/>
      <path d="M753.2,751.3c1.3-14.8,2.7-29.5,4-44.3c-8.3,10.2-16.6,20.4-25,30.6c-11.4-7.5-22.7-15.1-34-22.7 c6.1,13.8,12.3,27.6,18.4,41.4c-8.3,10-16.5,20-24.8,30c12.1-1.4,24.2-2.8,36.3-4.4c6.1,13.6,12.2,27.2,18.3,40.8 c1.4-14.7,2.9-29.3,4.3-44c12.1-1.8,24.2-3.6,36.2-5.6C775.8,765.9,764.5,758.7,753.2,751.3z" fill="#FFFFFF"/>
      <path d="M714.9,669.3c12,4.6,24.1,9.2,36.1,13.7c-8.2-12-16.5-24.1-24.7-36.1c6.3-12.2,12.5-24.5,18.8-36.7 c-11.4,4.8-22.8,9.5-34.2,14.2c-8.2-12.2-16.4-24.5-24.5-36.8c1.2,15.1,2.4,30.2,3.6,45.3c-11.1,4.5-22.2,8.9-33.4,13.3 c11.9,4.9,23.8,9.7,35.7,14.5c1.2,15.1,2.4,30.2,3.7,45.3C702.4,693.6,708.6,681.5,714.9,669.3z" fill="#FFFFFF"/>
      <path d="M687.4,578.3c10-7.4,20-14.9,30-22.4c9.9,10,19.9,20,29.9,30c-3.7-14.7-7.5-29.4-11.2-44.1 c10.1-7.6,20.1-15.2,30.1-22.9c-12.4-1.3-24.8-2.8-37.2-4.3c-3.7-14.7-7.5-29.3-11.2-44c-3.9,13.7-7.8,27.3-11.7,41 c-12.3-1.6-24.5-3.3-36.7-5.1c9.8,10.2,19.7,20.4,29.6,30.5C695,550.8,691.2,564.6,687.4,578.3z" fill="#FFFFFF"/>
      <path d="M758,457.9c6.1,13.7,12.3,27.3,18.4,41c1.3-14.8,2.7-29.5,4-44.3c12-1.9,24-3.8,35.9-5.9 c-11.2-7-22.4-14.1-33.6-21.2c1.4-14.8,2.8-29.5,4.2-44.3c-8.3,10.2-16.6,20.4-24.9,30.5c-11.3-7.3-22.5-14.7-33.7-22.1 c6.1,13.7,12.3,27.5,18.5,41.2c-8.3,10.1-16.7,20.1-25.1,30.1C733.7,461.3,745.9,459.7,758,457.9z" fill="#FFFFFF"/>
      <path d="M828.6,390.7c1.2,14.9,2.4,29.8,3.7,44.7c6.1-12.4,12.1-24.9,18-37.4c11.4,3.8,22.9,7.5,34.4,11.2 c-7.7-11.5-15.5-23.1-23.3-34.6c5.8-12.5,11.6-25.1,17.4-37.7c-10.6,5.6-21.3,11-32.1,16.2c-8-11.7-15.9-23.3-23.9-35 c1.2,14.9,2.4,29.8,3.7,44.7c-11.1,5.2-22.3,10.4-33.5,15.4C804.9,382.5,816.7,386.7,828.6,390.7z" fill="#FFFFFF"/>
    </g>
  </g>
  <g opacity="0.3">
    <path d="M259.7,185c127.9,0,223.7,15.9,325.2,32.8C688.7,235,796.1,252.9,941,252.9c44.4,0,90-6.1,135.4-18.1 c30.5-8.1,61.9-19,93.6-32.7v757.2c-36.8,17.4-73.5,30.8-109.2,40c-40.5,10.4-81.1,15.7-120.8,15.7c-140.1,0-243.6-16.8-343.7-33 c-98.9-16.1-201.3-32.7-336.6-32.7c-45.7,0-91.1,5.3-135.1,15.8C93,972.6,61.3,982.9,30,996V241.6c37.1-17.6,73.8-31.2,109.2-40.5 C179.9,190.4,220.4,185,259.7,185 M1200,155c-89.2,45-174.4,67.9-259,67.9c-280.7,0-416.7-67.9-681.3-67.9 C175.2,155,89.1,178,0,222.9c0,242.4,0,577.6,0,820c89-44.9,175.2-63.6,259.7-63.6c268.9,0,398.5,65.7,680.3,65.7 c84.6,0,170.8-22,260-66.9C1200,735.7,1200,397.4,1200,155L1200,155z" fill="#212121"/>
  </g>
</svg>