<svg viewBox="0 0 1200 1200" xmlns="http://www.w3.org/2000/svg" xmlns:xlink="http://www.w3.org/1999/xlink">
  <g>
    <path d="M0,769.3C94.7,720.5,192.7,702,298.8,705c101,2.8,201.8,16.6,301.2,33.7c99.5,17.1,200.3,29.3,301.3,31.7 c106.7,2.6,203.8-17.5,298.7-67c0,91.4,0,182.8,0,274.2c-94.8,49.2-192.3,69.4-298.7,66.8c-101-2.4-201.8-14.7-301.3-31.4 c-199.1-33.4-413.3-66.5-600,29.9C0,951.7,0,860.5,0,769.3z" fill="#0038A8"/>
    <path d="M0,769.3C94.7,720.5,192.7,702,298.8,705c101,2.8,201.8,16.6,301.2,33.7c99.5,17.1,200.3,29.3,301.3,31.7 c106.7,2.6,203.8-17.5,298.7-67c0-91.4,0-182.8,0-274.2c-95,49.8-191.8,69.9-298.7,67.3c-101-2.4-201.9-14.4-301.3-32.1 c-99.4-17.6-200.2-31.5-301.2-34.4c-106.4-3-204,17.2-298.8,66.3C0,587.4,0,678.3,0,769.3z M600,495.2 c53.7,10.1,92.7,67.9,92.4,120.8C692,665.2,654,717.3,600,708.1s-90.8-69.6-91-121C508.9,538.5,546.3,485.1,600,495.2z" fill="#FFFFFF"/>
    <path d="M0,222.9c95-49,192-70.3,298.8-67.3c101,2.9,201.9,16.6,301.2,34.7c99.4,18.1,200.3,30,301.3,32.3 C1008.4,225,1104.8,205,1200,155c0,91.4,0,182.8,0,274.2c-95,49.8-191.8,69.9-298.7,67.3c-101-2.4-201.9-14.4-301.3-32.1 c-99.4-17.6-200.2-31.5-301.2-34.4c-106.4-3-204,17.2-298.8,66.3C0,405.2,0,314.1,0,222.9z" fill="#D52B1E"/>
    <path d="M641.3,621.5L641.3,621.5L641.3,621.5z" fill="#FFFFFF"/>
    <path d="M634,542.6c0.4,0.1,0.6-0.1,0.9-0.4c0.2-0.2,0.2-0.7,0.2-1c0-0.5-0.4-0.8-0.9-1.4c-0.3-0.4-0.5-0.5-0.9-0.9 c-0.5,0.9-0.8,1.4-1.3,2.3c0.3,0.2,0.4,0.4,0.6,0.6C633.2,542.2,633.6,542.6,634,542.6z" fill="#FFFFFF"/>
    <path d="M617.6,645.3L617.6,645.3L617.6,645.3z" fill="#FFFFFF"/>
    <path d="M654.9,568.6c0.2,0.3,0.4,0.3,0.7,0.3c0.2,0,0.4,0.1,0.7-0.1c0.2-0.2,0.4-0.4,0.4-0.7 c0-0.2-0.2-0.8-0.4-1.6c-0.4-0.7-0.5-1-0.9-1.6c-0.8,0.5-1.2,0.7-2,1.2c0.3,0.7,0.5,1,0.9,1.6C654.4,567.7,654.4,568,654.9,568.6z" fill="#FFFFFF"/>
    <path d="M535.4,599.2c-0.2-0.3-0.7-0.6-0.9-0.4c-0.4-0.1-0.7,0.1-0.9,0.4c-0.2,0.2-0.2,0.7-0.2,1.5 c0,0.5,0,0.7,0,1.2c1.1,0.1,1.6,0.1,2.6,0.2c-0.1-0.4-0.1-0.6-0.2-1C535.9,600.2,535.7,599.4,535.4,599.2z" fill="#FFFFFF"/>
    <path d="M660.3,633.4c-0.4,1-0.5,1.6-0.9,2.6c1.8,0.3,2.6,0.4,4.4,0.7C662.4,635.3,661.7,634.7,660.3,633.4z" fill="#FFFFFF"/>
    <path d="M645.9,552.2c-1.5,0.7-2.2,1-3.7,1.7c0.7,0.9,1,1.4,1.7,2.3C644.7,554.6,645.1,553.8,645.9,552.2z" fill="#FFFFFF"/>
    <path d="M543.9,631.6c-0.2-0.3-0.4-0.3-0.7-0.4c-0.2,0-0.4-0.1-0.7,0.1c-0.2,0.2-0.4,0.4-0.4,0.7s0,0.7,0.4,1.6 c0.3,0.7,0.5,1,0.9,1.6c0.8-0.5,1.2-0.7,2-1.2c-0.3-0.7-0.5-1-0.9-1.6C544.6,632.5,544.3,632.2,543.9,631.6z" fill="#FFFFFF"/>
    <path d="M600,537.3c-31.9-6-53,27.3-53.5,55.1c-0.5,31,21.8,67.6,53.5,73c31.5,5.4,55-25.3,54.6-55.1 C654.2,579.7,631.8,543.3,600,537.3z M600,576.7c1.8,6.9,2.8,10.4,4.7,17.3c5.7,1.2,8.6,1.8,14.4,3c-4.6,3.4-6.9,5.1-11.5,8.5 c1.7,7,2.5,10.5,4.2,17.4c-4.8-4.8-7.3-7.2-11.8-12c-4.5,3.2-6.8,4.8-11.4,8c1.6-6.4,2.4-9.6,4-16c-4.4-5-6.7-7.5-11.2-12.4 c5.8,0.8,8.6,1.2,14.2,2C597.4,586.1,598.3,582.9,600,576.7z M642.4,616.7c0.4,0.1,0.9,0.6,1.1,1.4c0.2,0.5,0.2,1.5-0.4,2.4 c-0.2,0.2-0.7,0.6-0.9,0.9c1.1-0.1,1.5-0.3,2.4-0.6c0.2,0,0.4-0.2,0.7-0.4c0.7-0.4,1.1-0.6,1.3-0.3c0.1,0.1,0.1,0.2,0.2,0.3 c0,0.1,0,0.1,0,0.2c-0.2,1.5-0.4,2.4-2.4,4.9c-0.2,0.5-0.4,0.9-0.7,1.9c-0.2,0.5-0.2,1.2-0.4,2.2c0.7-0.6,1.5-1,2.6-1.3 c0.2-0.2,0.7-0.4,1.5-0.5c0.4-0.2,0.4,0.1,0.7,0.3c0.2,0.3,0.2,0.8-0.9,2.6c-0.2,0.3-0.3,0.4-0.4,0.7c-0.7,1.4-1.5,3-2.2,3.6 c-0.2,0.2-0.4,0.4-0.7,0.6c-0.9,1.1-2.2,2.2-4.1,2.8c-2.6,0.8-4.7,0.2-5.4,0.1c0,0.2,0.2,0.3,0.2,0.5c0.2,0.8,0.2,1.5-0.2,2 c-0.6,0.9-0.9,0.9-1.3,1c-0.4,0.2-0.9,0.1-1.1,0.1l0,0c-0.2,0-0.4-0.1-0.6-0.4c0,0.1,0,0.1,0,0.2c0,0.2-0.2,0.2-0.4,0.2l0,0 c-0.5,0.1-0.8,0.2-1.3,0.3c1.3,0.2,2.1,0.6,2.8,0.7c0.2,0,0.4,0.1,0.4,0.1c0.2,0,2.4,0.6,3,0.7c0.2,0,0.6,0.1,0.9,0.4 c0.2,0.5,0,1,0,1.2c-0.6,1.1-1.1,1.3-1.3,1.5c0,0-1.1,0.6-1.9,0.7c-0.1,0-0.1,0-0.2,0c-0.9,0.1-1.7,0.2-3.6,0.9 c-0.6,0.1-1.1,0.3-1.7,0.2l0,0c1.1,0.4,1.9,0.8,1.9,0.8l0,0c0.2,0,0.4,0.3,0.4,0.8s-0.4,0.7-0.9,0.9c-1.1,0.3-2.8,1-2.8,1 c-0.2,0-1.7,0.7-2.3,0.9c-0.6,0.1-1.7,0-2.7-0.5c-0.6-0.4-1.9-0.6-2.7-0.5c-0.4,0.2-0.6,0.1-1.1,0.1c-0.6-0.1-1.5-0.5-2.3-0.9 c-1.3-0.7-2.5-1.4-3.1-1.5l0,0c-0.2,0-1.3,0.3-1.9,0.4c-0.1,0-0.1,0-0.2,0c1.9,1.3,4.6,3.5,5.6,4.5l0,0c0.4,0.3,0.6,0.6,0.8,1.1 c0,0.2,0,0.5,0,0.7c-0.4,0.4-1.3,1-2.7,0.8c-1-0.2-1.7-0.3-2.1-0.6c-0.4-0.3-0.6-0.4-0.8-0.4l0,0l0,0c-0.1-0.1-0.1-0.2-0.2-0.3 c0,0-0.2,0-0.2-0.3c-0.4-0.5-0.6-0.7-1-1.2c-2.4-1.7-3.6-2.6-6-4.3c0,0,0,0-0.2,0.2c-0.4,0.2-1,0.1-1.6,0s-1-0.2-1.4-0.5 s-1.2-1-1.4-1c-3.1,1.2-4.7,1.9-7.8,3.1c-0.1,0-0.1,0-0.2,0l0,0l0,0c-0.4,0.2-1.2,0.3-2.2,0.1c-0.4-0.1-0.8-0.1-1.2-0.2 c-1.6-0.5-1.8-0.6-2.2-1.1c-0.1,0-0.1,0-0.2,0c-0.2,0-0.2-0.3-0.2-0.5s0-0.5,0.2-0.5s0.2-0.2,0.4-0.2l0,0c0.9-0.2,1.3-0.4,2.2-0.6 c0.2,0,5.3-1.6,7.5-2.2c-0.2,0-0.2,0-0.4-0.3c-0.6-0.4-1.4-1-2.2-1.6s-1.4-1.2-2-1.6c-0.8-0.4-4.3-1.2-6.7-1.7 c-1-0.2-1.6-0.3-2.3-0.4c-1.6-0.3-6.6-2.1-10-4.7c-2.9-2-4.6-4.8-5.7-6.7c-0.2-0.3-0.2-0.5-0.4-0.8c-0.4-0.6-0.6-1.1-0.4-1.3 c0.2-0.2,0.4-0.2,1.1,0.4c3.4,2.8,9,4.2,11.9,5c-0.4-0.6-1.2-1-1.9-1.6c-0.4-0.3-0.8-0.6-1.2-1c-1.5-1.2-8.4-6.1-8.4-6.1 c-6.1-4.7-9.3-16-9.3-18c0,0,0-0.5,0.2-0.5c0.6-0.4,1.1,0.7,2.1,2.8c3.2,5.5,7.4,9.2,9.7,11.1c0.2,0,0.2,0.3,0.4,0.3 c-0.2-0.3-0.6-0.9-1-1.4c-0.4-0.8-4-6.6-4.6-7.5c-0.2-0.3-0.6-0.9-1.1-1.7c-1.1-1.4-2.3-3.6-3.4-5c-0.9-1.6-4.5-9.5-4.7-10 c-0.2-0.4-0.3-0.6-0.4-1.1c0.3,0.3,0.5,0.4,0.9,0.6c0.2,0,2.6,1.7,4.7,3.5c-0.3-1.2-0.5-1.7-0.8-2.9c0,0-1.9-6.3-2.6-8.4 c-0.4-1.3-1.3-3.7-2.8-6.4c-0.2-0.3-0.2-0.5-0.4-1.1c-0.4-1.1-1.3-2.7-1.7-3.5c-0.4-0.6-0.6-1.1-0.4-1.3c0.2-0.2,0.4-0.2,1.1,0.4 c0,0,2.4,2.1,3.2,3c1.7,2,3.6,7.1,3.6,7.3c0,0.1,0,0.1,0,0.2c0,0.1,0,0.1,0,0.2c-0.6-2.3-0.8-4.1-0.8-4.4 c-0.6-4.3,0.6-8.6,1.3-10.8c0.2-0.5,0.2-1,0.2-1.2s0-0.5,0-0.5c0.2-1.5,0.6-4.1,0.4-6.2c-0.2-1.3-0.4-2.3-0.6-3.1 c-0.2-0.8-0.2-1,0-1c0.1-0.1,0.1-0.1,0.2-0.2c0.1,0.1,0.1,0.2,0.2,0.3c1.9,2.8,2.5,6.9,2.8,9.9c0-1.2,0-2,0-2 c1.5-9.5,5.1-12.6,5.5-12.8c0.4-0.7,0.8-1.1,1.1-1.6c0.8-1.1,1.5-1.8,2.1-3.4c0.4-1.2,0.6-1.4,0.8-1.1c0,0,0.2,0.3,0.2,0.5 c-0.2,1.7-0.6,3.4-1.5,5c-0.2,0.2-0.4,0.7-0.8,1.4c-0.8,1.1-1.9,2.9-2.3,4.6c-0.8,2.6-0.6,7.6-0.6,7.6l0,0l0,0c0,0-0.4,1.4-1.1,3.3 c-0.2,1-0.6,3.1-1.1,5.1c0-0.2,0.2-0.7,0.2-1c0.6-3.6,1.1-5.1,2.5-7.1c1.1-1.8,1.9-3.2,1.9-4.7c0-9.2,8.1-15.1,8.5-15.3l0,0l0,0 c0,0,0,0,0.2,0c0.4-0.2,0.6-0.4,0.8-0.1c0.2,0.3,0,0.5,0,0.7s-0.4,0.4-0.8,0.9c-0.4,0.4-0.8,0.9-0.8,1.1c-2.1,3.1-3.1,8.2-3.1,8.2 c0.4,0.8,0.6,1.2,1,1.9c5.6-6.8,12.7-8,12.7-8c1.8-0.7,2-0.4,2-0.4c0.1,0,0.1,0,0.2,0c0,0.1,0,0.1,0,0.2c0,0.2-0.2,0.5-0.4,0.7 s-0.2,0.2-0.4,0.4c-0.2,0.5-1.2,1.5-2,2.4c-0.1,0.1-0.1,0.1-0.2,0.2c-0.2,0.2-0.4,0.4-0.6,0.9c-1.4,1.7-4.1,4.5-5.5,5.8 c-1.4,1-3.5,2.1-6.8,3.8c-2.5,1.1-5.6,8.5-6.1,9.2c0,0,0-0.2,0.2-0.2c0,0,2.1-4.4,4.6-7.5c1.7-2,3.3-1.9,5-1.7 c0.8,0.1,1.7,0.3,2.5-0.1c2.3-0.6,3.9-3.1,3.9-3.3s0.2-0.7,0.6-0.6l0,0c0.2,0,0.2,0,0.4,0.3c0.2,0.5-0.6,2.4-0.6,2.4 c-1.4,2.7-2.7,3.8-3.9,4.3c-0.6,0.4-0.8,0.6-1.2,0.8c-0.8,0.4-1.6,1-6,3.2c-2.1,1.1-3.6,3.1-4.6,5c3.1-5,7.7-6.2,10.4-6.5 c0.1,0,0.1,0,0.2,0c0.2,0,0.4,0.1,0.4,0.3c0.2,0.3,0,0.7-0.2,1c-0.8,0.9-5.4,4.6-5.6,4.8c0,0-5.6,5.5-8,11.9 c-2.1,6.4,1.3,15.4,1.5,15.5c0.2,0.3,0.2,0.8,0.4,1.1c0-0.2-0.2-0.8-0.2-1.3c0-0.1,0-0.1,0-0.2c-0.4-1.6-0.6-2.6-1-6.9 c-0.2-3,0.8-5.1,1.5-6.2c0.2-0.5,0.4-0.9,0.6-1.1c0.2-0.5,0.4-0.9,0.6-1.6c0.2-0.5,0.4-0.9,0.6-1.4c0.2-0.5,0.4-1.4,0.6-2.1 c0.2-1,0.4-1.2,0.4-1.4c0.2-0.2,0.4-0.2,0.4-0.2c0.4,0.1,0.4,0.6,0.6,1.9c0,0.2,0,0.2,0,0.2c0.8,5.6-1.3,11.3-1.9,12.9 c-0.2,0.5-0.4,1.2-0.4,1.9c0.2-0.5,0.2-0.7,0.4-0.9s0.4-0.2,0.6-0.1c0.6,0.1,0.8,0.9,0.8,1.4c0,0.1,0,0.1,0,0.2 c0,0.2,0.2,0.5,0.2,0.5s0-1.2,0-1.5s0.2-0.2,0.4-0.2l0,0c0.6,0.1,1.7,2.5,1.7,2.5c2.1,6.1,2.3,6.6,2.9,11.7c0.2,1,0.2,1.8,0.2,2.5 c0,1.7,0,3.7,1,7.7c2.1,7.8,7.2,11,7.2,11c0.1,0,0.1,0,0.2,0c-0.2-1-0.8-2.4-1.6-3.8c-0.6-1.1-1.2-2.2-1.6-3.3 c-0.4-0.8-1-2.2-1.8-3.6c-0.6-1.1-1-1.9-1.4-2.5c-0.2-0.5-0.4-1.1-0.2-1.8c0-0.2,0.2-0.2,0.4-0.4c0.2,0,0.4,0.3,0.8,0.6 c0,0,0.2,0.3,0.4,0.3c0.8,0.9,3.9,4.9,7.4,11.5c2.6,5.2,6.5,8.6,9.9,11.5c0.2,0,0.4,0.3,0.4,0.3l0,0c0,0,1.8-0.2,3-0.2 c0.4,0.1,1.8,0.3,2.9,1c0.6,0.4,1.7,1,2.5,1.7c0.2-0.2,0.4-0.2,0.6-0.1c1.4-0.2,5-0.9,5.2-2.6c0.2-1.2,0.8-5.3,2.5-6.3 c0.4-0.2,1.3-0.8,1.5-1.5c0.2-0.5,0.8-2.8,1.9-3.9c0.4-0.4,4.6-2,5.1-1.4c0.2,0.5,0.2,1.3-0.2,2.2c0.2-0.2,0.2-0.5,0.2-0.5l0,0 c0.6-0.5,0.9-0.7,1.5-1.2c0,0,1.3-0.8,2.1-1.6c0.9-0.6,1.1-1.3,1.1-1.3c0.2-0.3,0.3-0.4,0.4-0.7c0.2,0.3,0.3,0.5,0.4,0.8 c0.2,0.8,0.6,1.4,0.9,1.9c0-0.2,0.2-0.5,0.2-0.5c0-0.2,0.2-0.2,0.2-0.5c0-0.1,0-0.1,0-0.2c0,0-0.6-2.1-0.6-2.8c0-0.1,0-0.1,0-0.2 c-0.2-0.8-0.9-2.6-0.2-4.5c0.6-1.9,0.6-2.4,0.9-2.9c0.2-1.2,0-2.2,0-3c0-0.2,0-0.7,0-0.7c0-0.7,0.4-2.7,2.1-3.4 c0.1-0.1,0.1-0.1,0.2-0.2c0.1,0.1,0.1,0.2,0.2,0.3c0,0,0.9,1.6,1.5,2.5c0.2,0.3,0.2,0.5,0.2,0.5s0-0.2,0.2-0.5l0,0 c0,0,0.9-1.1,1.9-0.7c0.1,0,0.1,0,0.2,0c-0.4-0.8-0.9-2.1-1.7-3.8c-0.2-0.5-0.6-1.3-0.9-2.1c-0.4-0.8-0.6-1.8-1.3-3.2 c-0.9-2.4-1.3-3.2-1.3-4.2c0-0.5,0-0.7,0.2-1c0-0.2,0-0.5,0-0.7c0-1.7,0-2.7,0-2.7c-0.1-0.4-0.1-0.6-0.2-1c0.3,0.2,0.4,0.4,0.6,0.6 c0.6,0.4,1.7,1.3,2.4,1.9c0-0.5,0-0.7,0-1.2s0-1.2,0-1.5c0-1.2-0.2-3-0.2-3c0-0.3,0-0.4,0-0.7c0.3,0.1,0.4,0.2,0.6,0.4 c0,0,0.9,0.4,1.7,1.8l0,0c0.2,0.3,0.4,0.6,0.4,0.8c-0.2-0.4-0.3-0.6-0.4-1.1c0,0,0-0.2-0.2-0.3l0,0c0,0-2.2-2.1-3.9-3.1 c-0.1,0-0.1,0-0.2,0c-1.3-0.7-3-1.5-4.5-3.5c-1.3-1.7-1.7-2.5-1.9-3.3c-0.1-0.1-0.1-0.2-0.2-0.3c-0.2-0.5-1.1-2.2-1.5-2.7 c-0.3-0.4-0.4-0.7-0.6-1.1c0.4,0.2,0.6,0.3,1.1,0.4c0,0,1.3,0.5,2.1,1.1c0.2,0.3,0.4,0.6,0.6,0.6c-1.3-3.2-0.8-6.1-0.8-6.1 c0.1-0.3,0.1-0.4,0.2-0.7c0.1,0.1,0.1,0.2,0.2,0.3c-0.4-0.6-0.6-1.1-0.6-1.1c-0.1-0.2-0.1-0.3-0.2-0.5l0,0 c-0.2,1.2-1.1,1.3-1.7,1.2c-0.1,0-0.1,0-0.2,0c-0.4-0.1-0.6-0.4-0.6-0.4s-1.1-0.7-1.5-1.7c0-0.1,0-0.1,0-0.2 c-0.6-0.1-2.3-0.6-2.5-0.9c-1.5-0.5-3.4-1.8-5.7-4c-0.8-0.6-1.5-1.5-2.3-2.4c-0.4-0.6-1-1.4-0.8-1.9s0.8-0.4,1-0.3 c1.3,0.3,2,0.5,3.3,0.8c0.1,0.1,0.1,0.2,0.2,0.3c0,0,0.8,1.1,1.7,2.3c0,0-0.2,0-0.2-0.3c-0.2-0.2-0.3-0.3-0.4-0.6 c-1.1-1.4-1.9-2.8-2.5-4.2c-0.1-0.1-0.1-0.2-0.2-0.3c-0.8-1.6-1-3.9-1.3-4.7c0-0.1,0-0.1,0-0.2c0.1-0.1,0.1-0.1,0.2-0.2 c0.4-0.2,0.8,0.1,1.9,1.1c0.8,0.6,1.9,1.6,2.5,1.9c1.9,0.8,3.8,1.4,3.8,1.4c0.1,0,0.1,0,0.2,0c-0.2-0.3-0.2-0.5-0.2-0.8l0,0 c0-0.7-0.6-2.1-1.1-3.4c0-0.2-0.2-0.5-0.4-0.8c-0.4-0.8-0.6-1.4-0.4-1.8c0.2-0.5,0.8-0.1,1.1-0.1c0.8,0.4,1.5,0.7,2.1,1.4 c0.4,0.3,0.6,0.4,1.1,0.7c1.1,0.7,2.3,1.9,3,3.2c0,0.1,0,0.1,0,0.2c0.4,0.8,1.1,2.4,1.5,6c0,0.1,0,0.1,0,0.2 c0.1-0.1,0.1-0.1,0.2-0.2c0.4-0.4,1.1-0.3,1.7,0c0.4,0.3,1.3,1.2,1.1,2.4c0.2,0.1,0.3,0.2,0.4,0.3c1.7,2.2,2.6,3.3,4.3,5.4 c0-0.2,0.2-0.7,0.2-1c0.2-0.5,0.2-0.7,0.4-1.2c0-0.5,0.4-2.2,0.4-2.2c0.4-1.7,0.6-1.9,0.9-1.9c0.6,0.1,0.9,1.1,0.9,1.9 c0,0.1,0,0.1,0,0.2c0.1,0.2,0.1,0.3,0.2,0.5c0.2,0.8,0.4,1.1,0.6,2.1c0,0.1,0,0.1,0,0.2c0.6,2.8,1.1,5.2,1.3,6.7 c0,0.5,0.2,1.5,0.2,1.5s0-0.7,0-1c0.4-3.2,1.5-3.7,1.5-4c0.3-0.2,0.4-0.2,0.7-0.4c0,0.4,0,0.6,0,1c0,0.7,0.2,2.8,0.2,3.5 c0.9,4.1,0.2,7,0,7.7c-0.2,1-0.9,4.3-0.9,4.8c0,0.2,0,1-0.2,1.7c0.1,0,0.1,0,0.2,0c0.2-0.5,0.7-1.1,1.3-1.8 c0.5-0.3,0.8-0.5,1.3-0.8c0,0.3,0,0.4,0,0.7c0,0,0.2,2.8,0.2,3.5c0,0.2,0,0.7,0,1c0,0.5,0.2,0.8,0.2,1.3c0,0.2,0,0.7-0.2,1.2 c1.1-0.8,2.2-1.9,2.4-1.9c0.2-0.2,0.7-0.9,0.9-1.4c0.3-0.6,0.4-0.8,0.7-1.4c0,0.7,0,1,0,1.7c0,0.2,0,6.7-0.2,7.9 c-0.2,1.5-0.9,4.6-2.2,6.6c-0.2,0.3-0.3,0.4-0.4,0.7c-1.3,1.8-2.8,4.3-4.1,5.3l0,0c0,0,0,0-0.2,0.2c-0.1,0.1-0.1,0.1-0.2,0.2 c0,0.1,0,0.1,0,0.2c-0.4,0.4-0.6,0.9-0.9,1.4C641.1,616.3,642,616.4,642.4,616.7z" fill="#FFFFFF"/>
    <path d="M662.8,582.9c-1.7-0.1-2.5-0.2-4.2-0.4c0.4,1.1,0.5,1.7,0.9,2.9C660.8,584.4,661.4,583.9,662.8,582.9z" fill="#FFFFFF"/>
    <path d="M624.4,569.4L624.4,569.4L624.4,569.4C624.4,569.2,624.4,569.2,624.4,569.4z" fill="#FFFFFF"/>
    <path d="M635.3,581C635.3,581,635.1,580.9,635.3,581L635.3,581C635.1,580.9,635.3,581,635.3,581z" fill="#FFFFFF"/>
    <path d="M542.7,566.6c-0.4-0.3-0.7-0.1-0.9-0.1c-0.2,0.2-0.4,0.7-0.7,1.1c-0.3,0.8-0.4,1.1-0.7,1.9 c0.9,0.5,1.3,0.8,2.2,1.3c0.3-0.8,0.4-1.1,0.7-1.9c0.2-0.7,0.2-1.2,0.2-1.5C543.1,567.1,542.9,566.9,542.7,566.6z" fill="#FFFFFF"/>
    <path d="M600,687.9c44,7.9,74.3-34.7,74.2-74.6c0-42.8-30.1-90.1-74.2-98.2c-43.5-8-72.9,35.2-72.9,74.3 C527.1,631.5,556.1,679.9,600,687.9z M530.8,599.2c-0.2-1.5,0-2.5,0.7-3.4c0.4-0.7,1.3-1,2.4-1.1s2.2,0.3,2.8,1.2 c0.7,0.8,1.1,2.2,1.3,3.7c0.1,0.9,0.1,1.4,0.2,2.3c1.7,0.1,2.5,0.1,4.1,0.1c0.2,1.6,0.3,2.4,0.4,4.1c-4.6-0.1-6.9-0.2-11.6-0.3 C531.1,603.1,531,601.8,530.8,599.2z M532.6,612.2c1-0.3,1.5-0.4,2.4-0.6c0.8,2.7,1.2,4.1,2,6.8c0.7-0.2,1.1-0.3,1.7-0.5 c-0.7-2.5-1-3.8-1.7-6.3c0.9-0.2,1.3-0.2,2.2-0.4c0.7,2.5,1,3.8,1.7,6.3c0.9-0.2,1.3-0.2,2.2-0.4c-0.8-2.8-1.2-4.2-2-7 c1-0.3,1.4-0.4,2.4-0.6c1.2,4.4,1.8,6.6,3,11c-4.3,1-6.5,1.5-10.9,2.6C534.4,618.6,533.8,616.5,532.6,612.2z M543.3,640 c-1.2-2.5-1.8-3.7-3-6.2c-0.7-1.1-0.9-2.1-1.1-2.9c-0.2-0.8,0-1.2,0.2-2c0.2-0.7,0.7-1.1,1.3-1.5c0.4-0.2,1.1-0.3,1.5-0.3 c0.7,0.1,1.1,0.4,1.5,0.7c0.2,0.3,0.7,0.6,1.1,1.2c0-0.5-0.2-0.8-0.2-1.3c0-0.2,0-0.5,0.2-1s0.2-0.7,0.4-0.9c0.8-1.4,1.2-2.1,2-3.4 c0.8,1.7,1.2,2.6,1.9,4.3c-0.8,1.5-1.2,2.2-1.9,3.7c-0.2,0.5-0.4,0.9-0.4,1.2c0,0.2,0,0.7,0.2,1c0.1,0.1,0.1,0.2,0.2,0.3 c1.6-0.9,2.3-1.3,3.9-2.1c0.7,1.5,1,2.3,1.7,3.8C549,636.7,547.1,637.8,543.3,640z M600,667.2c-32.5-5.5-55.5-43.2-55-75 c0.5-28.5,22.3-62.8,55-56.6s55.7,43.6,56.1,75.1C656.5,641.2,632.3,672.7,600,667.2z M661.1,652c-1.8-0.3-2.8-0.4-4.6-0.7 c0.9,1.9,1.3,2.9,2.2,4.8c-0.8,1.4-1.2,2.1-2,3.4c-1.4-3.5-2.1-5.2-3.5-8.7c-1.7-1.3-2.5-2-4.1-3.4c0.7-1.3,1-1.9,1.7-3.2 c1.7,1.3,2.5,2,4.2,3.4c3.2,0.3,4.9,0.4,8.1,0.7C662.3,649.7,661.9,650.5,661.1,652z M666,640.2c-5-0.6-7.4-0.9-12.3-1.6 c0.5-1.5,0.8-2.3,1.3-3.8c0.8,0.1,1.2,0.2,2,0.3c0.5-1.7,0.8-2.6,1.3-4.3c-0.6-0.6-0.9-0.9-1.5-1.5c0.4-1.5,0.7-2.3,1.1-3.8 c3.8,4.2,5.7,6.2,9.5,10.4C666.8,637.6,666.5,638.5,666,640.2z M670.7,618.2c-2.8-0.8-4.3-1.2-7.1-2c-0.7-0.1-1.1-0.2-1.5,0.3 c-0.4,0.2-0.7,0.9-0.7,1.4c0,0.7,0,1.2,0.4,1.8c0.2,0.5,0.9,0.9,1.3,0.9c2.8,0.8,4.2,1.2,7.1,2c-0.2,1.6-0.3,2.4-0.4,3.9 c-2.7-0.8-4.1-1.2-6.9-2c-0.7-0.1-1.3-0.4-2-0.8c-0.7-0.4-1.1-0.9-1.5-1.5s-0.7-1.3-0.9-1.9c-0.2-0.8-0.2-1.8,0-3 c0-0.7,0.2-1.2,0.2-2c0.2-0.7,0.4-1.2,0.7-1.6c0.2-0.5,0.7-0.9,1.1-1.1c0.4-0.2,0.9-0.4,1.5-0.5c0.7-0.2,1.3-0.1,2,0.3 c2.7,0.8,4.1,1.2,6.9,2C670.8,616,670.8,616.7,670.7,618.2z M669.4,598.1c0.4,0.8,0.9,2.1,0.9,3.6c0.2,1.5,0.2,2.5,0,3.2 s-0.4,1.4-0.9,1.9c-0.4,0.4-0.9,0.9-1.8,1c-0.4-1.6-0.7-2.3-1.1-3.9c0.4-0.2,0.7-0.4,0.9-0.9s0.2-1,0.2-1.5c-0.2-1-0.4-1.6-1.1-2.2 c-0.7-0.6-1.5-0.7-2.7-0.9c-1.3,0.1-2.2,0.2-2.6,0.9c-0.4,0.4-0.7,1.4-0.4,2.2c0,0.5,0.2,0.8,0.2,1.3c0.2,0.5,0.4,0.8,0.7,1.3 c0.4,0,0.7-0.1,1.1-0.1c-0.1-1.1-0.1-1.7-0.2-2.8c1,0,1.5,0.1,2.4,0.1c0.3,2.5,0.4,3.8,0.7,6.3c-1.9,0-2.9,0-4.9,0 c-0.9-1.1-1.5-2.2-1.8-3.3c-0.4-1.1-0.7-2.1-0.7-3.3c-0.2-1.5,0-2.7,0.2-4c0.4-0.9,0.9-1.9,1.8-2.2c0.9-0.6,2-0.7,3.1-0.8 c1.3-0.1,2.4,0.4,3.3,1C668,595.9,668.7,596.8,669.4,598.1z M666.3,584.5c-3.8,3.1-5.7,4.7-9.5,7.8c-0.5-1.7-0.8-2.5-1.3-4.2 c0.6-0.4,0.9-0.6,1.5-1c-0.5-1.8-0.8-2.7-1.3-4.4c-0.8,0-1.2,0-2,0c-0.5-1.7-0.8-2.5-1.3-4.2c4.9,0.8,7.4,1.3,12.3,2.1 C665.4,582.1,665.7,582.9,666.3,584.5z M655.5,559.9c1.3,2.5,2,3.7,3.3,6.2c0.7,1.1,0.9,2.1,1.1,2.7c0.2,0.8,0,1.2-0.2,2 c-0.2,0.7-0.7,1.1-1.3,1.5c-0.7,0.4-1.1,0.6-1.5,0.5s-1.1-0.2-1.5-0.5c-0.2-0.3-0.7-0.6-1.1-1.2c0,0.5,0.2,1,0.2,1.3 c0,0.2,0,0.5-0.2,1s-0.2,0.7-0.4,0.9c-0.8,1.4-1.2,2.1-2,3.4c-0.9-1.7-1.3-2.6-2.2-4.3c0.8-1.5,1.2-2.2,2-3.7 c0.2-0.5,0.4-0.9,0.4-1.2s0-0.7-0.2-1c-0.1-0.1-0.1-0.2-0.2-0.3c-1.6,1-2.4,1.4-3.9,2.4c-0.8-1.5-1.2-2.3-2-3.8 C649.6,563.5,651.6,562.3,655.5,559.9z M646.8,548.4c1.1,1.4,1.7,2.1,2.8,3.4c-2,4.9-3,7.3-5,12.2c-1-1.4-1.6-2-2.6-3.4 c0.3-0.7,0.5-1.1,0.9-1.9c-1.1-1.5-1.7-2.2-2.8-3.7c-0.7,0.3-1,0.4-1.7,0.7c-1-1.4-1.6-2-2.6-3.4c2.1-0.8,3.1-1.1,5.2-1.9 C643.3,549.6,644.4,549.2,646.8,548.4z M631.7,534.3c2,1.8,3,2.7,4.9,4.5c1.1,0.9,1.7,2,1.9,3.1c0.2,1,0,2-0.6,2.9 s-1.5,1.5-2.4,1.6s-1.9-0.6-3.2-1.5c-0.6-0.6-0.9-0.9-1.5-1.5c-0.9,1.4-1.4,2.2-2.4,3.6c-1.2-1.1-1.8-1.6-3-2.7 C628,540.2,629.2,538.2,631.7,534.3z M613.1,523.4c1.3,0.6,2,0.9,3.4,1.6c-0.9,3.6-1.4,5.4-2.3,9.1c2.1,1.1,3.1,1.6,5.3,2.6 c-0.3,1.1-0.5,1.7-0.8,2.8c-3.4-1.7-5-2.5-8.4-4.2C611.3,530.6,611.9,528.2,613.1,523.4z M599,519.4c3.5,0.9,5.4,1.4,9,2.4 c-0.1,1.1-0.1,1.6-0.2,2.7c-2.2-0.6-3.4-0.9-5.6-1.5c-0.1,0.8-0.1,1.2-0.2,2c2.1,0.6,3.1,0.9,5.2,1.4c-0.1,1.1-0.1,1.6-0.2,2.7 c-2.1-0.6-3.1-0.9-5.2-1.4c-0.1,1-0.1,1.5-0.2,2.5c2.3,0.6,3.5,0.9,5.8,1.5c-0.1,1.2-0.1,1.8-0.2,3c-3.7-0.9-5.5-1.4-9-2.4 C598.5,527.1,598.7,524.5,599,519.4z M589.6,519.2c1-0.1,1.8,0.1,2.4,0.4c0.6,0.4,1.2,0.7,1.6,1.3c0.4,0.6,0.8,1.4,1,2.2 s0.4,1.6,0.6,2.6c0.2,1.5,0.2,2.5,0,3.2s-0.4,1.4-0.8,2.1c-0.4,0.4-0.8,0.9-1.4,1c-0.6,0.4-1.4,0.2-1.8,0.4c-1.9,0-2.9-0.1-4.9-0.1 c-0.6-5.3-0.9-7.9-1.4-13.2C586.8,519.2,587.7,519.2,589.6,519.2z M570.9,523.2c3.5,4.4,5.3,6.6,8.7,11c-1.2,0.6-1.9,0.9-3.1,1.5 c-0.5-0.8-0.7-1.2-1.2-2c-1.4,0.6-2.1,0.8-3.5,1.4c0.2,0.9,0.2,1.4,0.4,2.3c-1.3,0.6-1.9,0.9-3.1,1.5c-0.5-5.7-0.8-8.5-1.3-14.2 C569,524.1,569.6,523.8,570.9,523.2z M556.1,531.8c1.1-0.8,2.1-1.4,3.2-1.2c1.1,0.2,2.1,0.6,3,1.5c-0.8,1.1-1.1,1.6-1.9,2.7 c-0.2-0.3-0.6-0.6-0.8-0.6s-0.6-0.1-0.9-0.1c-0.2,0-0.6,0.1-0.9,0.4c-0.6,0.4-0.9,1.1-0.9,2.1c0,0.7,0.4,1.6,1.1,2.4 c0.9,1.1,1.5,2,2.1,2.3c0.6,0.4,1.1,0.2,1.7-0.2c0.4-0.4,0.8-0.9,0.8-1.6c0-0.5-0.2-1.3-0.4-2.1c1.2-0.4,1.8-0.6,3-1 c0.4,1.1,0.6,1.9,0.6,2.8c0,0.7-0.2,1.7-0.4,2.4c-0.4,0.7-0.8,1.4-1.7,2c-0.8,0.9-1.9,1.2-2.5,1.3c-0.8,0.1-1.7,0-2.8-0.7 s-1.9-1.6-2.8-2.9c-1.3-2-1.7-3.5-1.7-5.3C553.9,534.4,554.6,533,556.1,531.8z M548.5,539c3.4,3.9,5.2,5.9,8.6,9.9 c-0.9,1.1-1.4,1.7-2.4,2.9c-3.4-3.9-5.1-5.9-8.6-9.9C547.1,540.8,547.6,540.2,548.5,539z M540.7,550.6c3,2.6,4.4,3.8,7.4,6.4 c1.1-2,1.7-3,2.8-5c0.9,0.8,1.4,1.3,2.4,2.1c-1.9,3.3-2.8,4.9-4.7,8.2c-3.9-3.3-5.8-5-9.8-8.3C539.5,552.6,539.9,551.9,540.7,550.6 z M535,562.9c0.4-1.2,0.9-1.9,1.8-2.2c0.7-0.4,1.5-0.3,2.2,0.1s1.1,0.9,1.5,1.5c0.2,0.5,0.2,1,0.2,1.8c0.4-0.7,0.9-1.1,1.5-1.3 c0.7-0.1,1.3,0,2,0.3c0.7,0.4,1.1,0.7,1.3,1.2c0.4,0.6,0.6,1.1,0.6,1.8c0,0.5,0,1,0,1.5c-0.2,1-0.2,1.5-0.4,1.7 c-0.8,2.6-1.2,3.9-2,6.4c-4.3-2.4-6.5-3.6-10.9-5.9C533.7,567,534.1,565.7,535,562.9z M539.6,583.1c-0.2-0.5-0.9-0.9-1.3-0.9 c-2.8-0.7-4.2-1.1-7-1.8c0.2-1.6,0.3-2.4,0.4-3.9c2.7,0.7,4.1,1.1,6.8,1.8c0.7,0.1,1.3,0.5,2,0.8c0.7,0.4,1.1,0.9,1.5,1.5 s0.7,1.3,0.9,1.9c0.2,0.8,0.2,1.8,0.2,3c0,0.5-0.2,1.2-0.2,2c-0.2,0.7-0.4,1.2-0.7,1.6c-0.2,0.5-0.7,0.9-1.1,1.1 c-0.4,0.2-0.9,0.4-1.3,0.5c-0.7,0.1-1.3,0-2-0.1c-2.7-0.7-4.1-1.1-6.8-1.8c0.2-1.6,0.3-2.4,0.4-3.9c2.8,0.7,4.2,1.1,7,1.8 c0.7,0.1,1.1,0.2,1.5-0.3c0.4-0.2,0.7-0.9,0.7-1.4C540,584.1,539.8,583.6,539.6,583.1z" fill="#FFFFFF"/>
    <path d="M513.1,587.6c0.2,49.2,35.2,107.1,86.9,116c51.7,8.8,88-41.1,88.3-88.1c0.4-50.7-37-106.2-88.3-115.8 C548.7,490,512.9,541.3,513.1,587.6z M600,513.4c45.1,8.3,76,56.6,76,100.4c0,40.8-31.1,84.2-76,76.1 c-44.8-8.1-74.7-57.5-74.7-100.5C525.3,549.4,555.6,505.2,600,513.4z" fill="#FFFFFF"/>
    <path d="M630.6,635.2L630.6,635.2L630.6,635.2L630.6,635.2z" fill="#FFFFFF"/>
    <path d="M589.8,529.5c0.6,0.1,1.2,0,1.4-0.2s0.4-0.4,0.6-0.9c0.2-0.5,0.2-1.2,0-2.2c-0.2-1.5-0.4-2.3-0.8-2.9 c-0.4-0.6-1-0.7-1.8-0.8c-0.3,0-0.5,0.1-0.8,0.1c0.3,2.9,0.5,4.4,0.8,7.4C589.4,529.7,589.5,529.6,589.8,529.5z" fill="#FFFFFF"/>
    <path d="M573.4,531.4c-1.2-1.6-1.7-2.4-2.9-4c0.3,1.9,0.4,2.9,0.6,4.8C572,531.9,572.4,531.7,573.4,531.4z" fill="#FFFFFF"/>
    <path d="M538.3,564.7c-0.2-0.3-0.7-0.1-0.9-0.1c-0.2,0.2-0.4,0.4-0.7,0.9c-0.2,0.7-0.3,1-0.4,1.7 c0.8,0.4,1.2,0.6,2,1.1c0.2-0.7,0.3-1,0.4-1.7c0.2-0.5,0.2-1,0-1.5C538.7,565.2,538.5,564.9,538.3,564.7z" fill="#FFFFFF"/>
    <path d="M600,708.1c54,9.2,92-42.9,92.4-92.1c0.4-53-38.7-110.8-92.4-120.8c-53.6-10-91.1,43.4-91,91.9 C509.2,638.5,546,698.8,600,708.1z M688.3,615.5c-0.3,47.1-36.5,97-88.3,88.1c-51.7-8.8-86.7-66.8-86.9-116 c-0.2-46.3,35.6-97.6,86.9-88C651.4,509.3,688.7,564.8,688.3,615.5z"/>
    <path d="M642.6,593.1L642.6,593.1c-0.4-0.1-0.9-0.1-1.1,0.3c-0.4,0.4-0.4,0.9-0.4,1.2c0,0.2,0,0.2,0,0.5 c0,0.7,0.2,2.5,1.5,3c0.4,0.1,0.6,0.1,0.9-0.1c0.7-0.4,0.9-1.6,0.9-2.1S644.1,593.6,642.6,593.1z" fill="#009B3A"/>
    <path d="M644.4,595.8c-0.2-1.3-0.4-2.3-0.9-2.6c-0.6-0.4-0.9-0.4-0.9-0.4c-0.3,0-0.4-0.1-0.6-0.1l0,0c-0.1,0-0.1,0-0.2,0 c-0.6-0.1-1.1,0.6-1.1,0.6c-0.2,0.4-0.3,0.6-0.4,0.9c0,0.2,0,0.3,0,0.5c-0.2,3.2,1.5,4,1.5,4c0.3,0.2,0.5,0.2,0.9,0.4 c0.2-0.2,0.4-0.4,0.9-0.6c0.2,0,0.9-0.6,1.7-1.5c0-0.5,0.2-1,0.2-1.2s0-0.7-0.2-1.3c0,0.5,0,1,0,1 C644.9,595.6,644.7,595.7,644.4,595.8z M643.5,597.9c-0.2,0.2-0.7,0.4-0.9,0.1c-1.3-0.5-1.5-2.2-1.5-3c0-0.2,0-0.2,0-0.5 c0-0.2,0.2-1,0.4-1.2s0.6-0.4,1.1-0.3l0,0c1.5,0.2,1.5,2.2,1.5,2.5C644.1,596.3,643.9,597.5,643.5,597.9z"/>
    <path d="M642,592.5c0,0.1,0,0.1,0,0.2c0.1-0.3,0.1-0.4,0.2-0.7c0,0,0,0,0-0.2c-0.1,0-0.1,0-0.2,0C642,592.2,642,592.5,642,592.5z"/>
    <path d="M547.2,633.2c-0.1-0.1-0.1-0.2-0.2-0.3c-0.2-0.3-0.2-0.8-0.2-1s0.2-0.7,0.4-1.2c0.8-1.5,1.2-2.2,1.9-3.7 c-0.8-1.7-1.2-2.6-1.9-4.3c-0.8,1.4-1.2,2.1-2,3.4c0,0.2-0.2,0.5-0.4,0.9c-0.2,0.5-0.2,0.7-0.2,1s0,0.7,0.2,1.3 c-0.4-0.6-0.7-0.8-1.1-1.2c-0.4-0.3-1.1-0.7-1.5-0.7c-0.4-0.1-1.1,0.1-1.5,0.3c-0.7,0.4-1.1,0.8-1.3,1.5s-0.2,1.2-0.2,2 c0.2,0.8,0.4,1.6,1.1,2.9c1.2,2.5,1.8,3.7,3,6.2c3.9-2.1,5.9-3.1,9.7-5.2c-0.7-1.5-1-2.3-1.7-3.8 C549.6,632,548.8,632.4,547.2,633.2z M543.3,635.3c-0.3-0.7-0.5-1-0.9-1.6c-0.4-0.8-0.4-1.3-0.4-1.6c0-0.2,0.2-0.7,0.4-0.7 c0.2-0.2,0.4-0.2,0.7-0.1c0.2,0,0.4,0.3,0.7,0.4c0.2,0.5,0.4,0.8,0.7,0.8c0.3,0.7,0.5,1,0.9,1.6C544.4,634.6,544,634.8,543.3,635.3 z"/>
    <path d="M543.5,609.4c-1,0.3-1.4,0.4-2.4,0.6c0.8,2.8,1.2,4.2,2,7c-0.9,0.2-1.3,0.2-2.2,0.4c-0.7-2.5-1-3.8-1.7-6.3 c-1,0.2-1.4,0.2-2.4,0.4c0.8,2.5,1.2,3.8,2,6.3c-0.7,0.2-1,0.3-1.7,0.5c-0.8-2.7-1.2-4.1-2-6.8c-1,0.3-1.4,0.4-2.4,0.6 c1.2,4.3,1.8,6.4,3.1,10.7c4.4-1,6.6-1.5,10.9-2.6C545.3,615.9,544.7,613.8,543.5,609.4z"/>
    <path d="M542.4,602c-1.7-0.1-2.5-0.1-4.1-0.1c-0.1-0.9-0.1-1.4-0.2-2.3c-0.2-1.8-0.7-2.8-1.3-3.7c-0.7-0.8-1.8-1.3-2.8-1.2 c-1.1,0.1-2,0.4-2.4,1.1s-0.7,1.9-0.7,3.4c0.3,2.7,0.4,4.1,0.7,6.8c4.7,0.1,7,0.2,11.6,0.3C542.8,604.6,542.7,603.7,542.4,602z M533.5,601.8c0-0.5,0-0.7,0-1.2c0-0.7,0-1.2,0.2-1.5s0.4-0.4,0.9-0.4c0.4,0.1,0.7,0.1,0.9,0.4s0.4,0.8,0.4,1.6 c0.1,0.4,0.1,0.6,0.2,1C535,601.8,534.5,601.8,533.5,601.8z"/>
    <path d="M537.6,586.5c-2.8-0.7-4.2-1.1-7-1.8c-0.2,1.6-0.3,2.4-0.4,3.9c2.7,0.7,4.1,1.1,6.8,1.8c0.7,0.1,1.3,0.2,2,0.1 c0.4,0.1,0.9-0.1,1.3-0.5c0.4-0.2,0.9-0.6,1.1-1.1c0.2-0.5,0.4-0.9,0.7-1.6c0.2-0.7,0.2-1.5,0.2-2c0.2-1,0-2-0.2-3 c-0.2-0.5-0.4-1.3-0.9-1.9c-0.4-0.6-0.9-1.1-1.5-1.5c-0.7-0.4-1.1-0.7-2-0.8c-2.7-0.7-4.1-1.1-6.8-1.8c-0.2,1.6-0.3,2.4-0.4,3.9 c2.8,0.7,4.2,1.1,7,1.8c0.7,0.1,1.1,0.4,1.3,0.9s0.4,1.1,0.4,1.8s-0.2,1.2-0.7,1.4C538.7,586.7,538.3,586.6,537.6,586.5z"/>
    <path d="M545.7,569.5c0-0.2,0.2-0.7,0.4-1.7c0.2-0.7,0.2-1.2,0-1.5c-0.2-0.5-0.4-1.3-0.6-1.8c-0.4-0.6-0.9-0.9-1.3-1.2 c-0.7-0.4-1.3-0.5-2-0.3s-1.1,0.6-1.5,1.3c0-0.7-0.2-1.3-0.2-1.8c-0.4-0.8-0.9-1.1-1.5-1.5c-0.9-0.4-1.5-0.5-2.2-0.1 s-1.3,1-1.8,2.2c-0.9,2.8-1.3,4.1-2.2,6.9c4.4,2.4,6.6,3.5,10.9,5.9C544.5,573.4,544.9,572.1,545.7,569.5z M538.7,566.7 c-0.2,0.7-0.3,1-0.4,1.7c-0.8-0.4-1.2-0.6-2-1.1c0.2-0.7,0.3-1,0.4-1.7c0.2-0.5,0.4-0.9,0.7-0.9c0.2-0.2,0.4-0.2,0.9,0.1 c0.4,0.1,0.7,0.4,0.7,0.8C539,565.8,539,566.3,538.7,566.7z M543.1,568.9c-0.3,0.8-0.4,1.1-0.7,1.9c-0.9-0.5-1.3-0.8-2.2-1.3 c0.3-0.8,0.4-1.1,0.7-1.9c0.2-0.7,0.4-0.9,0.7-1.1c0.2-0.2,0.7-0.1,0.9,0.1c0.4,0.3,0.7,0.6,0.7,0.8 C543.5,567.7,543.3,568.2,543.1,568.9z"/>
    <path d="M553.3,554c-0.9-0.8-1.4-1.3-2.4-2.1c-1.1,2-1.7,3-2.8,5c-2.9-2.6-4.4-3.8-7.4-6.4c-0.8,1.3-1.2,1.9-2,3.2 c3.9,3.3,5.9,5,9.8,8.3C550.4,558.8,551.4,557.2,553.3,554z"/>
    <path d="M557.3,549.2c-3.5-4.1-5.3-6.1-8.8-10.1c-0.9,1.2-1.3,1.7-2.2,2.9c3.5,3.9,5.2,5.9,8.6,9.9 C555.9,550.8,556.4,550.2,557.3,549.2z"/>
    <path d="M558.2,544.1c1.1,0.7,1.9,0.8,2.8,0.7c0.8-0.1,1.7-0.5,2.5-1.3c0.8-0.6,1.3-1.3,1.7-2c0.2-0.7,0.4-1.4,0.4-2.4 c0-0.7-0.2-1.8-0.6-2.8c-1.2,0.4-1.8,0.6-3,1c0.4,0.8,0.4,1.6,0.4,2.1s-0.2,1-0.8,1.6c-0.4,0.4-1.1,0.6-1.7,0.2 c-0.6-0.4-1.3-1-2.1-2.3c-0.6-1.1-1.1-1.9-1.1-2.4c0-1,0.2-1.7,0.9-2.1c0.2-0.2,0.6-0.4,0.9-0.4c0.2,0,0.6,0.1,0.9,0.1 c0.2,0,0.4,0.3,0.9,0.6c0.8-1.1,1.1-1.6,1.9-2.7c-1.1-0.9-2.1-1.3-3-1.5c-1.1-0.2-2.1,0.4-3.2,1.2c-1.5,1-2.1,2.4-2.4,4.1 c-0.2,1.7,0.4,3.3,1.7,5.3C556.3,542.8,557.1,543.7,558.2,544.1z"/>
    <path d="M571.9,537.6c-0.2-0.9-0.2-1.4-0.4-2.3c1.4-0.6,2.1-0.8,3.5-1.4c0.5,0.8,0.7,1.2,1.2,2c1.2-0.6,1.9-0.9,3.1-1.5 c-3.5-4.4-5.2-6.6-8.7-11c-1.3,0.6-2,0.9-3.4,1.4c0.5,5.7,0.8,8.5,1.3,14.2C569.9,538.5,570.6,538.2,571.9,537.6z M573.4,531.4 c-0.8,0.4-1.3,0.5-2.1,0.9c-0.2-2-0.4-3.1-0.6-5.1C571.7,528.9,572.3,529.7,573.4,531.4z"/>
    <path d="M591,532.7c0.6,0.1,1.2,0,1.8-0.4c0.4-0.2,1-0.6,1.4-1s0.6-1.1,0.8-2.1c0.2-0.7,0.2-2,0-3.2c0-1-0.2-1.8-0.6-2.6 c-0.2-0.8-0.6-1.6-1-2.2c-0.4-0.6-1-1.2-1.6-1.3c-0.6-0.4-1.4-0.5-2.4-0.4c-1.9,0-2.9-0.1-4.9-0.1c0.6,5.3,0.9,7.9,1.4,13.2 C588,532.6,589,532.6,591,532.7z M589,522.4c0.8-0.1,1.4,0.2,1.8,0.8c0.4,0.6,0.8,1.4,0.8,2.9c0.2,1,0.2,1.8,0,2.2 c-0.2,0.5-0.2,0.7-0.6,0.9c-0.2,0.2-0.8,0.4-1.4,0.2c-0.3,0-0.5,0.1-0.8,0.1c-0.3-2.9-0.5-4.4-0.8-7.4 C588.4,522.2,588.6,522.3,589,522.4z"/>
    <path d="M607.6,531.9c-2.3-0.7-3.5-1.1-5.8-1.8c0.1-1,0.1-1.5,0.2-2.5c2.1,0.6,3.1,0.9,5.2,1.4c0.1-1.1,0.1-1.6,0.2-2.7 c-2.2-0.6-3.2-0.9-5.4-1.5c0.1-0.8,0.1-1.2,0.2-2c2.2,0.6,3.3,0.9,5.6,1.5c0.1-1.1,0.1-1.6,0.2-2.7c-3.7-0.9-5.6-1.4-9-2.4 c-0.2,5.1-0.4,7.7-0.6,12.9c3.5,1,5.4,1.6,9,2.6C607.5,533.7,607.6,533.1,607.6,531.9z"/>
    <path d="M619.1,536.7c-2-0.9-3-1.4-5-2.4c0.8-3.7,1.3-5.6,2.1-9.4c-1.3-0.6-1.9-0.9-3.1-1.5c-1.3,4.8-1.9,7.1-3.1,11.9 c3.4,1.8,5.1,2.7,8.6,4.5C618.8,538.5,618.9,537.9,619.1,536.7z"/>
    <path d="M630.6,543.1c0.6,0.6,0.9,0.9,1.5,1.5c1.3,1.2,2.1,1.6,3.2,1.5c0.9-0.1,1.7-0.5,2.4-1.6c0.6-0.9,0.9-2.1,0.6-2.9 c-0.2-1-0.9-2.1-1.9-3.1c-2-1.8-3-2.7-4.9-4.5c-2.5,4-3.7,6-6.2,9.9c1.2,1.1,1.8,1.6,3,2.7C629.2,545.2,629.7,544.5,630.6,543.1z M633.2,539c0.3,0.4,0.5,0.5,0.9,0.9c0.6,0.6,0.9,0.9,0.9,1.4s0,0.7-0.2,1c-0.2,0.2-0.4,0.4-0.9,0.4c-0.4-0.1-0.9-0.4-1.3-0.7 c-0.3-0.2-0.4-0.4-0.6-0.6C632.4,540.4,632.7,539.9,633.2,539z"/>
    <path d="M638.1,555.7c0.7-0.3,1-0.4,1.7-0.7c1.1,1.5,1.7,2.2,2.8,3.7c-0.3,0.7-0.5,1.1-0.9,1.9c1,1.4,1.6,2,2.6,3.4 c2-4.9,3-7.3,5-12.2c-1.1-1.4-1.7-2.1-2.8-3.4c-2.3,0.8-3.5,1.2-5.9,2.1c-2.1,0.8-3.1,1.1-5.2,1.9 C636.6,553.7,637.1,554.4,638.1,555.7z M645.9,552.2c-0.8,1.7-1.2,2.5-2,4.2c-0.7-1-1-1.5-1.7-2.5 C643.7,553.2,644.4,552.9,645.9,552.2z"/>
    <path d="M647.6,569.4c1.6-1,2.4-1.4,3.9-2.4c0.1,0.1,0.1,0.2,0.2,0.3c0.2,0.3,0.2,0.8,0.2,1s-0.2,0.7-0.4,1.2 c-0.8,1.5-1.2,2.2-2,3.7c0.9,1.7,1.3,2.6,2.2,4.3c0.8-1.4,1.2-2.1,2-3.4c0-0.2,0.2-0.5,0.4-0.9c0-0.5,0.2-0.7,0.2-1 c0-0.2,0-0.7-0.2-1.3c0.4,0.6,0.7,0.8,1.1,1.2c0.4,0.3,1.1,0.7,1.5,0.5c0.4,0.1,1.1-0.1,1.5-0.5c0.7-0.4,1.1-0.8,1.3-1.5 s0.2-1.2,0.2-2c-0.2-0.8-0.7-1.6-1.1-2.7c-1.3-2.5-2-3.7-3.3-6.2c-3.9,2.2-5.9,3.3-9.8,5.5C646.5,566.9,646.9,567.7,647.6,569.4z M655.5,564.9c0.4,0.7,0.5,1,0.9,1.6s0.4,1.3,0.4,1.6c0,0.2-0.2,0.7-0.4,0.7c-0.2,0.2-0.4,0.2-0.7,0.1s-0.4-0.3-0.7-0.3 c-0.4-0.6-0.4-0.8-0.7-0.8c-0.3-0.7-0.5-1-0.9-1.6C654.3,565.6,654.7,565.4,655.5,564.9z"/>
    <path d="M654,582.1c0.8,0,1.2,0,2,0c0.5,1.8,0.8,2.7,1.3,4.4c-0.6,0.4-0.9,0.6-1.5,1c0.5,1.7,0.8,2.5,1.3,4.2 c3.8-3.1,5.7-4.7,9.5-7.8c-0.5-1.8-0.8-2.7-1.3-4.4c-5-0.8-7.4-1.2-12.3-2.1C653.3,579.3,653.5,580.3,654,582.1z M662.8,582.9 c-1.4,1-2.1,1.5-3.5,2.5c-0.4-1.1-0.5-1.7-0.9-2.9C660.1,582.7,661,582.8,662.8,582.9z"/>
    <path d="M663.6,594.5c-1.1,0.1-2.2,0.2-3.1,0.8c-0.9,0.6-1.5,1.3-1.8,2.2c-0.4,0.9-0.4,2.2-0.2,4c0.2,1.3,0.4,2.3,0.7,3.3 c0.4,1.1,0.9,1.9,1.8,3.3c1.9,0,2.9,0,4.9,0c-0.3-2.5-0.4-3.8-0.7-6.3c-1,0-1.5-0.1-2.4-0.1c0.1,1.1,0.1,1.7,0.2,2.8 c-0.4,0-0.7,0.1-1.1,0.1c-0.4-0.6-0.7-1.1-0.7-1.3c-0.2-0.5-0.2-0.8-0.2-1.3c0-1,0-1.7,0.4-2.2c0.4-0.4,1.3-0.8,2.6-0.9 c1.1-0.1,2,0.3,2.7,0.9s0.9,1.1,1.1,2.2c0,0.5,0,1-0.2,1.5s-0.4,0.7-0.9,0.9c0.4,1.6,0.7,2.3,1.1,3.9c0.7-0.2,1.3-0.6,1.8-1 c0.4-0.4,0.7-1.1,0.9-1.9c0.2-0.7,0.2-1.7,0-3.2s-0.4-2.8-0.9-3.6c-0.7-1.1-1.3-1.9-2.4-2.6C666.1,594.9,664.9,594.5,663.6,594.5z"/>
    <path d="M662.1,612c-0.4-0.1-0.9,0.1-1.5,0.5c-0.4,0.4-0.9,0.6-1.1,1.1c-0.2,0.5-0.4,0.9-0.7,1.6c-0.2,0.7-0.2,1.5-0.2,2 c-0.2,1,0,2,0,3c0.2,0.5,0.4,1.3,0.9,1.9c0.4,0.6,0.9,1.1,1.5,1.5s1.3,0.7,2,0.8c2.7,0.8,4.1,1.2,6.9,2c0.2-1.6,0.3-2.4,0.4-3.9 c-2.8-0.8-4.3-1.2-7.1-2c-0.7-0.1-1.1-0.4-1.3-0.9s-0.4-1.1-0.4-1.8s0.2-1.2,0.7-1.4c0.4-0.2,0.9-0.4,1.5-0.3 c2.8,0.8,4.2,1.2,7.1,2c0.2-1.6,0.3-2.4,0.4-3.9c-2.8-0.8-4.1-1.2-6.9-2C663.6,612,662.9,612.1,662.1,612z"/>
    <path d="M656.5,629.6c0.6,0.6,0.9,0.9,1.5,1.5c-0.5,1.7-0.8,2.6-1.3,4.3c-0.8-0.1-1.2-0.2-2-0.3c-0.5,1.5-0.8,2.3-1.3,3.8 c4.9,0.6,7.4,1,12.3,1.6c0.5-1.6,0.8-2.4,1.3-4c-3.8-4.1-5.7-6.2-9.5-10.4C657.2,627.5,657,628.2,656.5,629.6z M660.3,633.4 c1.4,1.4,2.1,2.1,3.5,3.5c-1.8-0.4-2.6-0.5-4.4-0.9C659.8,635,659.9,634.4,660.3,633.4z"/>
    <path d="M651.1,644.5c-0.8,1.3-1.2,1.9-2,3.2c1.7,1.4,2.5,2,4.1,3.4c1.4,3.5,2.1,5.2,3.5,8.7c0.8-1.4,1.2-2.1,2-3.4 c-0.9-2-1.3-3-2.2-5.1c1.8,0.3,2.8,0.4,4.6,0.7c0.8-1.4,1.2-2.1,2-3.4c-3.2-0.3-4.8-0.4-7.9-0.7 C653.6,646.5,652.7,645.8,651.1,644.5z"/>
    <path d="M600,689.9c44.9,8.1,76-35.3,76-76.1c0-43.8-30.9-92.1-76-100.4c-44.4-8.2-74.7,36.1-74.7,76 C525.3,632.4,555.2,681.8,600,689.9z M600,515.3c44.1,8.1,74.2,55.3,74.2,98.2c0,39.9-30.3,82.5-74.2,74.6s-72.9-56.4-72.9-98.5 C527.1,550.6,556.5,507.4,600,515.3z"/>
    <path d="M600,535.5c-32.8-6.2-54.5,28-55,56.6c-0.5,31.8,22.5,69.5,55,75c32.3,5.5,56.5-26,56.1-56.6 C655.7,579.1,632.7,541.7,600,535.5z M600,665.4c-31.7-5.4-54-42.1-53.5-73c0.5-27.8,21.6-61.1,53.5-55.1 c31.8,6,54.2,42.4,54.6,73.1C655,640.1,631.4,670.8,600,665.4z"/>
    <path d="M593.2,602.6c0,0.1,0,0.1,0,0.2c-1.4,5.6-2.2,8.4-3.6,14.1c4.2-2.9,6.3-4.3,10.4-7.1 c4.1,4.3,6.4,6.5,10.7,10.9c-1.5-6.2-2.2-9.4-3.7-15.6c4.1-3.2,6.2-4.7,10.4-7.9c-5.3-1-7.9-1.5-13.1-2.5c0-0.1,0-0.1,0-0.2 c-1.7-6.1-2.7-9.1-4.3-15.2c-1.7,5.6-2.5,8.4-4.2,14c-0.1,0-0.1,0-0.2,0c-5-0.8-7.5-1.2-12.6-1.9 C587.2,595.7,589.2,598,593.2,602.6z" fill="#FEDF00"/>
    <path d="M592.6,602.8c-1.6,6.4-2.4,9.6-4,16c4.6-3.2,6.9-4.8,11.4-8c4.5,4.8,7,7.2,11.8,12c-1.7-7-2.5-10.5-4.2-17.4 c4.6-3.4,6.9-5.1,11.5-8.5c-5.8-1.2-8.7-1.8-14.4-3c-1.9-6.9-2.9-10.4-4.7-17.3c-1.8,6.3-2.7,9.4-4.6,15.6c-5.6-0.8-8.5-1.2-14.2-2 C585.8,595.3,588.1,597.8,592.6,602.8z M595.8,593.1c1.7-5.7,2.5-8.5,4.2-14.2c1.6,6.2,2.5,9.3,4.1,15.4c0,0.1,0,0.1,0,0.2 c5.2,1,7.8,1.5,13.1,2.5c-4.2,3.1-6.3,4.6-10.4,7.7c1.5,6.2,2.2,9.4,3.7,15.6c-4.3-4.3-6.6-6.5-10.7-10.9 c-4.1,2.8-6.2,4.3-10.4,7.1c1.5-5.6,2.2-8.4,3.6-14.1c0-0.1,0-0.1,0-0.2c-4-4.5-6.1-6.7-10.2-11.2c5.1,0.8,7.6,1.2,12.6,1.9 C595.6,593.1,595.7,593.1,595.8,593.1z"/>
    <path d="M614.7,648.6C614.7,648.6,614.7,648.3,614.7,648.6c-0.4-0.1-0.6-0.1-0.8-0.4c0-0.2,0-0.5,0.4-0.7 c0.2-0.2,1.3-0.8,1.7-1.2c0.4-0.6,0.6-0.9,1-1.6c0.6-0.6,4.8-6.7,4.4-8.2c0-0.1,0-0.1,0-0.2c0-0.1,0-0.1,0-0.2 c0.6-1.1,1.3-2.8,1.3-3.5c-0.8,0.1-3.4,0.9-4,1.3c-0.8,0.6-1.5,2.2-1.7,3.5c-0.2,1.2-1.7,2-1.9,1.9c-1,0.6-1.7,3.5-2.1,5.9 c-0.4,2.4-4.8,3.2-5.6,3.3c0,0,0,0,0.2,0c0.4,0.3,0.8,0.6,1,0.7c0,0,0.4,0.3,0.8,0.6c0.4,0.1,0.6-0.1,1-0.3 c1.2-0.3,1.7-0.5,2.1-0.4c0,0,0,0,0.2,0c0.6,0.4,2.1,0.9,3.1,1.5c1,0.7,2.1,1.1,2.7,0.7c1.1-0.3,2.3,0.1,3.2,0.5 c0.8,0.4,1.9,0.3,2.3,0.4c0.4-0.2,1.7-0.7,2.1-0.9c0,0,1.9-0.7,2.8-1l0,0c-0.6-0.4-1.7-0.8-2.6-1.2c-1.3-0.7-3-1.2-4.4-1.5 c-1.5-0.2-3,0-4.2,0.5c-1.3,0.3-2.5,0.1-2.9,0.2l0,0C614.8,648.4,614.8,648.5,614.7,648.6z M613.4,646.3c0-0.2,0.2-0.2,0.2-0.5 c0.2-0.2,0.4-0.9,0.6-1.1c0.2-0.2,0.4-0.9,0.6-1.6c0.4-1.2,1-2.6,1.3-3c0.2-0.2,0.4-0.7,0.6-1.4c0.4-0.9,1.1-2.3,1.7-3 c0,0,1.3-1.8,2.1-1.6l0,0c0.2,0,0.4,0.3,0.6,0.6c0.1,0.1,0.1,0.2,0.2,0.3c-0.1,0.1-0.1,0.1-0.2,0.2c-2.5,2.3-4.4,6.7-5.1,8.1 c-0.2,0.2-0.8,1.9-1.3,2c0,0,0,0.2-0.2,0.5c0,0.2-0.2,0.7-0.6,0.9c-0.1,0.1-0.1,0.1-0.2,0.2c-0.2,0-0.3,0-0.4-0.1 C613.4,646.6,613.4,646.3,613.4,646.3z M619.5,649.6c2.1,0.4,4.9,0.6,5.5,0.4c0.2,0.3,0.3,0.5,0.4,0.8c-0.4,0.4-1.7,0.5-2.8,0.3 c-0.1,0-0.1,0-0.2,0c-0.4-0.1-1.5-0.2-2.3-0.4c-0.4-0.1-0.6-0.1-1.1-0.2c-0.2,0-0.4-0.1-0.6-0.1c-0.4-0.1-0.8-0.1-1.3-0.2 c-0.8-0.1-1.3-0.5-1.3-1C615.9,649.3,615.9,649.3,619.5,649.6z" fill="#009B3A"/>
    <path d="M621.2,647.2L621.2,647.2c-1.5,0.3-5,1.1-6.3,1.4c0.4,0.1,1.9,0.1,2.9-0.2c1.3-0.3,2.7-0.8,4.2-0.5s3.4,0.8,4.4,1.5 c0.8,0.4,1.9,0.8,2.6,1.2l0,0c-1.1,0.3-2.8,1-2.8,1c-0.4,0.2-1.7,0.7-2.1,0.9c-0.4,0.2-1.5,0-2.3-0.4s-2.3-0.9-3.2-0.5 c-0.8,0.1-1.9-0.3-2.7-0.7c-1.3-0.7-2.5-1.4-3.1-1.5c0,0,0,0-0.2,0c-0.4-0.1-1,0.1-2.1,0.4c-0.2,0-0.6,0.1-1,0.3 c0.2,0.3,0.6,0.4,1,0.7c0.1,0,0.1,0,0.2,0c0.6-0.1,1.7-0.5,1.9-0.4l0,0c0.6,0.4,1.9,0.8,3.1,1.5c0.8,0.4,1.7,0.8,2.3,0.9 c0.4,0.1,0.6,0.1,1.1-0.1c0.8-0.1,2.1,0.1,2.7,0.5c1.1,0.4,2.1,0.6,2.8,0.5s2.1-0.9,2.3-0.9c0,0,1.7-0.7,2.8-1 c0.4-0.2,0.9-0.4,0.9-0.9c0-0.2-0.2-0.5-0.4-0.8l0,0c0,0-1.1-0.4-1.9-0.8c-0.4-0.1-0.6-0.1-0.9-0.4 C626.7,648.3,623.3,647.5,621.2,647.2z"/>
    <path d="M614.3,646.7c0.4-0.2,0.4-0.7,0.6-0.9c0-0.2,0-0.2,0.2-0.5c0.2-0.5,1-1.8,1.3-2c0.4-1.4,2.3-5.8,5.1-8.1 c0.1-0.1,0.1-0.1,0.2-0.2c-0.1-0.1-0.1-0.2-0.2-0.3c-0.2-0.3-0.2-0.5-0.6-0.6l0,0c-0.8-0.1-2.1,1.6-2.1,1.6c-0.4,0.7-1.1,2.1-1.7,3 c-0.2,0.5-0.4,0.9-0.6,1.4c-0.2,0.5-0.8,1.9-1.3,3c-0.4,0.7-0.6,1.4-0.6,1.6c-0.2,0.5-0.4,0.9-0.6,1.1c-0.2,0-0.2,0.2-0.2,0.5 c0,0,0,0.5,0.4,0.6c0.2,0,0.3,0,0.4,0.1C614.4,646.9,614.4,646.8,614.3,646.7z"/>
    <path d="M617.2,650.7c0.2,0,0.8,0.1,1.3,0.2c0.2,0,0.4,0.1,0.6,0.1c0.2,0,0.6,0.1,1.1,0.2c0.8,0.1,1.9,0.3,2.3,0.4 c0.1,0,0.1,0,0.2,0c1.1-0.1,2.3-0.1,2.8-0.3c-0.2-0.3-0.3-0.5-0.4-0.8c-0.6,0.1-3.4-0.1-5.5-0.4c-3.6-0.4-3.8-0.4-3.8,0.1 C615.7,650.2,616.4,650.6,617.2,650.7z"/>
    <path d="M607.4,648.3c0.8-0.1,5.2-0.6,5.6-3.3c0.4-2.2,1-5.1,2.1-5.9c0.2,0,1.5-0.7,1.9-1.9c0.2-1.2,0.8-2.8,1.7-3.5 c0.6-0.6,3.2-1.2,4-1.3c0,0.7-0.6,2.4-1.3,3.5c0,0.1,0,0.1,0,0.2s0,0.1,0,0.2c0.4,1.6-3.6,7.6-4.4,8.2c-0.4,0.6-0.6,0.9-1,1.6 c-0.6,0.4-1.5,1-1.7,1.2c-0.4,0.2-0.4,0.4-0.4,0.7c0,0.5,0.4,0.6,0.8,0.4c-0.2,0-0.2,0-0.4-0.3c-0.2-0.5,0.2-0.7,2.1-1.9 c0.4-0.4,1.3-0.8,1.3-0.8l0,0c0.6-1.6,4.6-9.4,5.5-11.3c0.2-1,0.4-1.9,0.2-2.2c-0.6-0.9-4.6,1-5.1,1.4c-1.3,1-1.9,3.4-1.9,3.9 c-0.2,0.7-1,1.3-1.5,1.5c-1.5,1-2.3,5.1-2.5,6.3c-0.2,1.7-3.7,2.3-5.2,2.6c-0.2,0-0.4,0.2-0.6,0.1C607,647.7,607.2,648,607.4,648.3 z"/>
    <path d="M613.4,653.8c0,0,0.2,0,0.4,0.1c-2.3-1.9-5-3.9-5.2-4.1c0,0-0.2,0-1-0.9c-1-0.7-2.5-1.9-3.3-2.3 c-0.8-0.4-2.3-0.9-2.7-1c-0.6-0.1-1.4,0-2,0.1c0.3,0.3,0.5,0.4,0.8,0.6c0,0,1.6,1.3,2.5,1.9c0.8,0.6,1.2,1.5,1.2,2 c2.4,1.7,3.6,2.6,6,4.3c0.2,0.2,0.4,0.4,0.6,0.6c0,0,0-0.2,0.2-0.2C611.4,654,613,653.7,613.4,653.8z" fill="#009B3A"/>
    <path d="M611.1,656.4L611.1,656.4L611.1,656.4L611.1,656.4z"/>
    <path d="M609.5,649.6c-0.4-0.3-0.6-0.6-0.8-0.6c0,0-0.6-0.4-1-0.7c0,0,0,0-0.2,0c-0.2-0.3-0.6-0.4-0.8-0.6 c-0.8-0.6-1.9-1.3-2.5-1.7c-1-0.7-2.5-0.9-2.9-1c-1.2-0.2-2.8,0.2-3,0.2l0,0c2.2,1.9,4.7,3.6,4.7,3.6l0,0c0.2,0.3,1,1.2,0.8,1.9 c-0.1,0.1-0.1,0.1-0.2,0.2c2.4,1.7,3.6,2.6,6,4.3c0.4,0.5,0.6,0.7,1,1.2c0,0-0.2-0.3-0.2-0.5s0-0.5,0-0.7c-0.2-0.2-0.4-0.4-0.6-0.6 c-2.4-1.7-3.6-2.6-6-4.3c0-0.2-0.4-1.1-1.2-2c-0.8-0.6-2.5-1.9-2.5-1.9c-0.3-0.3-0.5-0.4-0.8-0.6c0.6-0.1,1.4,0,2-0.1 c0.4,0.1,1.8,0.3,2.7,1c0.8,0.4,2.3,1.6,3.3,2.3c0.8,0.6,1,0.9,1,0.9c0.2,0,2.9,2.2,5.2,4.1c0.4,0.1,1,0.4,1.5,0.5 c0.2,0,0.4,0.3,0.8,0.6l0,0c-1-0.9-3.8-2.9-5.6-4.5C610.1,650,609.7,649.9,609.5,649.6z"/>
    <path d="M629.7,634.6L629.7,634.6L629.7,634.6c-0.6-0.6-0.6-1.4-0.4-2.3c-0.2-0.5-0.4-1.3-0.6-2.1 c-0.2,0.2-0.4,0.7-0.9,1.1c-0.9,0.9-2.1,1.6-2.1,1.6c-0.5,0.5-0.8,0.8-1.3,1.3c-0.4,0.9-5.1,10.1-5.7,11.8c0,0.2-0.2,0.5-1.7,1.2 c1.7-0.5,3.6-0.9,4.4-1.2s1.7-1.2,2.3-1.9c0.2-0.2,0.6-0.6,0.8-0.9c0.2-0.2,0.3-0.3,0.4-0.4c0.4-0.4,1.1-1.1,1.7-1.7 c1.1-1.6,2.6-3.6,3.2-4.5C629.7,635.9,629.7,635.4,629.7,634.6z M628.4,634.2c-0.2,0.5-0.4,0.7-0.9,0.9c-0.2,0.2-0.2,0.2-0.2,0.2 c-0.2,0.2-0.4,0.7-0.9,0.9c-0.4,0.4-0.9,0.9-1.1,1.1c-0.2,0.7-0.6,1.6-1.7,2c-0.4,0.2-0.4,0.9-0.4,1.4c0,0.2,0,0.2,0,0.5 c0,0.2-0.4,0.7-0.8,1.1c-0.4,0.4-1.1,1.1-1.5,1.7c0,1-0.2,1.5-0.8,1.4c-0.2,0-0.2,0-0.4,0.2c-0.3-0.3-0.4-0.5-0.6-0.9 c1.5-2.5,2.3-4.1,3.4-6.2c0-0.1,0-0.1,0-0.2c1.1-1.1,1.9-2.2,2.8-3.5c0.8-1.1,1.5-2.2,2.3-3.1c0.1-0.1,0.1-0.1,0.2-0.2 c0.1,0.1,0.1,0.2,0.2,0.3C629.1,632.8,628.6,633.9,628.4,634.2z" fill="#009B3A"/>
    <path d="M629.7,634.6c0,0.7,0,1.2,0,1.7c0.2-0.2,0.2-0.5,0.4-0.4c0.2-0.2,0.4-0.4,0.6-0.4l0,0C630.1,635.2,629.9,634.9,629.7,634.6 z"/>
    <path d="M617.6,645.3L617.6,645.3L617.6,645.3c-0.2,0.2-0.8,0.6-1.5,0.7c-1.9,1.2-2.3,1.4-2.1,1.9c0,0.2,0.2,0.3,0.4,0.3l0,0 c0.2,0,0.2,0,0.2,0l0,0c1.3-0.3,4.8-1.2,6.3-1.4c0-0.3,0-0.4,0-0.7c0.2,0,0.6-0.1,1.3-0.3l0,0c0,0,1.7-1.7,2.3-2.4 c0.1-0.1,0.1-0.1,0.2-0.2c-0.1,0-0.1,0-0.2,0c0.3-0.4,0.4-0.5,0.6-0.9c0,0,0.4-0.7,1.1-1.6c-0.6,0.6-1.3,1.3-1.7,1.7 c-0.2,0.2-0.3,0.3-0.4,0.4c-0.2,0.2-0.6,0.6-0.8,0.9c-0.6,0.9-1.5,1.5-2.3,1.9s-2.7,0.8-4.4,1.2c1.3-0.8,1.5-1,1.7-1.2 c0.6-1.4,5.3-10.8,5.7-11.8c0.5-0.5,0.8-0.8,1.3-1.3c0,0,1.3-0.8,2.1-1.6c0.4-0.4,0.6-0.6,0.9-1.1c0.4,0.8,0.6,2.1,0.6,2.1 s0.2-1,0.4-1.2c-0.2-0.5-0.4-1.3-0.9-1.9c-0.2-0.3-0.3-0.5-0.4-0.8c-0.2,0.3-0.3,0.4-0.4,0.7c0,0-0.4,0.7-1.1,1.3 c-0.9,0.6-2.1,1.4-2.1,1.6c-0.6,0.5-0.9,0.7-1.5,1.2l0,0c0,0,0,0.2-0.2,0.5C622.3,635.9,618.3,643.7,617.6,645.3z"/>
    <path d="M628,631.8c-0.1,0.1-0.1,0.1-0.2,0.2c-0.9,0.9-1.7,2-2.3,3.1c-0.8,1.4-1.7,2.5-2.8,3.5c0,0.1,0,0.1,0,0.2 c-1.1,2.1-1.9,3.7-3.4,6.2c0.3,0.3,0.4,0.5,0.6,0.9c0.2-0.2,0.4-0.2,0.4-0.2c0.6-0.1,0.6-0.4,0.8-1.4c0.4-0.7,1.1-1.3,1.5-1.7 s0.8-0.9,0.8-1.1s0-0.2,0-0.5c0-0.5,0-1,0.4-1.4c1.1-0.6,1.5-1.5,1.7-2c0.2-0.2,0.6-0.6,1.1-1.1c0.2-0.2,0.6-0.6,0.9-0.9 c0.1-0.1,0.1-0.1,0.2-0.2c0.2-0.2,0.4-0.4,0.9-0.9c0.2-0.2,0.6-1.4,0-2C628.4,632.3,628.3,632.2,628,631.8z"/>
    <path d="M628.6,643.4c-2.1-0.3-2.8,0.5-3.4,0.9c-0.2,0.2-0.6,0.6-0.8,0.9c1.5-0.8,2.8-0.3,3.4-0.2 c0.2,0,0.4,0.1,0.4,0.1c0.1,0,0.1,0,0.2,0c0.6,0.1,1.5,0.2,3.4-0.2c1.7-0.5,2.1-0.2,2.4,0.1c0.2,0.3,0.2,0.5,0.2,0.8 s-0.2,0.5-0.4,0.4c0,0-1.7,0.5-3.4,0.2c-0.9-0.1-1.7,0-2.6-0.2c-0.6-0.1-1.1,0.1-1.3,0c-0.2,0-1.5,0-3,0.3l0,0l0,0 c1.5,0.2,3.2,0.8,3.4,1.1c0.4,0.3,1.3,0.2,1.9,0.1c1.9-0.7,3-0.8,3.8-0.9c0.1,0,0.1,0,0.2,0c0.9-0.1,1.7-0.5,1.7-0.5 s0.4-0.2,0.9-1.1l0,0l0,0c-1.1-0.2-2.8-0.7-3-0.7c0,0-0.2,0-0.4-0.1C631.6,644.1,630.3,643.7,628.6,643.4z" fill="#009B3A"/>
    <path d="M625,643.6C624.8,643.5,624.8,643.5,625,643.6c-0.8,0.9-2.5,2.6-2.5,2.6l0,0c-0.6,0.1-1.1,0.1-1.3,0.3c0,0.3,0,0.4,0,0.7 c0,0.1,0,0.1,0,0.2c2.1,0.6,5.5,1.4,5.7,1.4s0.6,0.4,0.9,0.4l0,0c0.4,0.1,1.1-0.1,1.7-0.2c1.9-0.7,2.8-0.8,3.6-0.9 c0.1,0,0.1,0,0.2,0c0.9-0.1,1.9-0.7,1.9-0.7s0.6-0.4,1.3-1.5c0-0.2,0.4-0.7,0-1.2c-0.2-0.3-0.4-0.3-0.9-0.4c-0.6-0.1-2.8-0.7-3-0.7 c0,0-0.2,0-0.4-0.1c-0.6-0.1-1.5-0.5-2.8-0.7C627.7,643.1,626.8,643.3,625,643.6z M635.7,645L635.7,645L635.7,645 c-0.4,0.9-0.9,1.4-0.9,1.4s-1.1,0.6-1.7,0.5c-0.1,0-0.1,0-0.2,0c-0.9,0.1-1.7,0.2-3.8,0.9c-0.6,0.1-1.5,0.3-1.9-0.1 c-0.4-0.3-1.9-0.6-3.4-1.1l0,0l0,0c1.3-0.3,2.5-0.3,3-0.3c0.4,0.1,0.9,0.1,1.3,0c0.6,0.1,1.5,0,2.6,0.2c1.9,0.3,3.4-0.2,3.4-0.2 c0.2,0,0.4-0.2,0.4-0.4s0-0.5-0.2-0.8s-0.6-0.6-2.4-0.1c-1.9,0.4-2.8,0.3-3.4,0.2c-0.1,0-0.1,0-0.2,0c-0.2,0-0.2,0-0.4-0.1 c-0.6-0.1-1.9-0.6-3.4,0.2c0.4-0.4,0.6-0.6,0.8-0.9c0.4-0.4,1.3-1.3,3.4-0.9c1.7,0.3,3,0.7,3.6,0.8c0.2,0,0.4,0.1,0.4,0.1 C632.9,644.3,634.6,644.9,635.7,645z"/>
    <path d="M639.1,624.2c0,0.2-0.2,0.5-0.2,0.5c-0.2,0.2-1.1,1.6-1.5,1.8c-0.2,0.2-1.3,1.5-1.7,2.5 c-0.4,0.9-1.1,1.3-1.7,1.2c-0.1,0-0.1,0-0.2,0c-0.1-0.1-0.1-0.2-0.2-0.3c-0.4-0.8,1.1-6.6,1.1-6.6c0.2-0.7,0.4-2.4,0.4-2.9 s0-1.7-0.4-1.8s-0.9-0.6-1.1-1.2c-0.9,1.4-0.4,3.4-0.2,5.2c0,0.5,0.2,1,0.2,1.3c0.2,1.8-0.2,4.7-0.4,5.7c0.6,0.6,0.9,1.1,0.9,1.4 c0.4,1.6-0.9,3.1-1.1,3.8c-0.4,0.4-0.9,0.6-1.5,1c-0.4,0.2-0.9,0.4-1.1,0.6c-0.4,0.4-2.8,4-3.8,5.6c1.4-0.3,2-0.4,3.4-0.7 c-0.2-0.3-0.4-0.6-0.4-1.1c0-1.2,0.6-2.6,1.3-3c0.4-0.4,1.1-0.6,1.5-0.5l0,0c-0.2-0.3-0.2-0.5,0-0.7c0.2-0.5,0.4-0.7,0.6-0.9 c0.1-0.1,0.1-0.1,0.2-0.2c0.6-0.6,1.7-1,2.6-1.3c0.2,0,0.4-0.2,0.6-0.1c0.4-0.2,0.6-0.4,1.1-0.3c0.2,0,0.4-0.2,0.6-0.1 c1.1-0.6,2.2-1.4,2.8-2c0.9-0.9,1.1-1.1,1.1-2.1c0.2-0.7,0.4-1.4,0.4-2.2c0.2-1,0.4-1.7,0.9-2.4c1.5-1.8,2-2.7,2.2-3.4 c0,0,0,0-0.2,0c-0.2,0.2-0.4,0.4-0.7,0.4c-0.9,0.4-1.3,0.5-2.6,0.6c-0.2,0-0.6,0.1-1.1,0.1l0,0c-0.2,0-0.4-0.1-0.6,0.1 C639.6,623,639.4,623.7,639.1,624.2z M642,622.9c0.2,0,0.4-0.2,0.4-0.2s0.9-0.1,1.3,0.2c0.1,0.1,0.1,0.2,0.2,0.3c0,0.1,0,0.1,0,0.2 c0,0.2-0.2,0.5-1.3,0.5c-0.4-0.1-1.7,0.2-2.2,1.2c-0.6,2.1-1.3,3.8-2.6,5.1c-0.9,0.9-1.5,2.3-1.5,2.3c0,0.1,0,0.1,0,0.2 c-0.4,0.1-0.6,0.2-1.1,0.3c-0.2-0.3-0.3-0.5-0.4-0.8c1.3-0.8,2.2-2.4,2.8-3.8c0.2-0.5,0.4-0.7,0.4-0.9c0.4-1.4,1.3-3.3,2.2-3.9 C640.9,623.2,641.5,623.1,642,622.9z" fill="#009B3A"/>
    <path d="M642.4,631.7c-0.2,0.2-0.2,0.2-0.4,0.4c-0.4,0.7-1.3,1-3.2,1.7c-0.2,0.2-0.6,0.4-1.1,0.3 c-0.2,0.2-0.4,0.2-0.6,0.1c-1.1,0.6-1.9,1.2-2.6,1.6c1.3,0,4.3-0.3,5.8-1.1c1.1-0.6,1.7-1.2,3-3c0.2-0.2,0.2-0.5,0.4-0.9 c0.4-0.7,0.7-1.1,1.1-1.1c0.4,0.1,0.4,0.6,0.4,0.8c0,0.5-0.2,1.2-0.2,1.2s0.7-1.1,0.9-1.6c0.2-0.3,0.3-0.4,0.4-0.7 c0.2-0.5,0.4-0.9,0.7-1.1c-0.4,0.2-0.7,0.4-0.7,0.4c-0.1,0-0.1,0-0.2,0C644.1,629.4,643.2,630.5,642.4,631.7z" fill="#009B3A"/>
    <path d="M639.4,637.2c-0.9,0.4-1.9,0.2-3.2,0.2c-0.3,0-0.4-0.1-0.6-0.1c-0.4-0.1-0.6,0.1-1.1,0.1l0,0l0,0 C634.4,637.4,636.8,638,639.4,637.2c1.5-0.5,2.6-1.3,3.2-2.2C641.3,636.2,640,637,639.4,637.2z" fill="#009B3A"/>
    <path d="M641.3,621.5L641.3,621.5c0,0.4,0,0.6,0,1c0.4,0.1,0.9-0.1,1.1-0.1c1.3,0,1.7-0.2,2.6-0.6c0.2,0,0.4-0.2,0.7-0.4 c0,0,0,0,0.2,0c-0.2,0.7-0.7,1.6-2.2,3.4c-0.4,0.4-0.7,1.4-0.9,2.4c-0.2,0.5-0.2,1.2-0.4,2.2c-0.2,0.7-0.4,0.9-1.1,2.1 c-0.6,0.6-1.5,1.5-2.8,2c-0.2,0-0.4,0.2-0.6,0.1c-0.4,0.2-0.6,0.1-1.1,0.3c-0.2,0-0.4,0.2-0.6,0.1c-1.1,0.3-2.1,0.4-2.6,1.3 c0,0.2-0.2,0.2-0.2,0.2c-0.2,0.2-0.4,0.4-0.6,0.9c0,0.2,0,0.5,0,0.7l0,0c-0.4-0.1-1.1,0.1-1.5,0.5c-0.6,0.4-1.3,2-1.3,3 c0,0.5,0.2,0.8,0.4,1.1c-1.4,0.3-2,0.4-3.4,0.7c1.3-1.8,3.4-5.2,3.8-5.6c0.2-0.2,0.6-0.4,1.1-0.6s1.1-0.3,1.5-1 c0.4-0.4,1.5-2,1.1-3.8c0-0.5-0.2-1-0.9-1.4c0.2-1,0.6-3.9,0.4-5.7c0-0.5-0.2-0.8-0.2-1.3c-0.2-1.8-0.6-3.8,0.2-5.2 c0.2,0.5,0.4,1.1,1.1,1.2c0.4,0.1,0.4,1.3,0.4,1.8s0,2.2-0.4,2.9c0,0-1.5,5.5-1.1,6.6c0.1,0.1,0.1,0.2,0.2,0.3c0.1,0,0.1,0,0.2,0 c0.6,0.1,1.3-0.3,1.7-1.2s1.3-2.3,1.7-2.5s1.5-1.5,1.5-1.8c0-0.2,0.2-0.5,0.2-0.5c0.2-0.7,0.4-1.4,1.5-1.8 c-0.9,0.1-1.9,0.7-2.2,1.7c-0.2,1.7-0.9,2.4-1.5,2.7c-0.4,0.4-0.9,0.9-1.3,1.8c-0.2,0.7-0.6,1.1-1.1,1.1c0,0,0,0-0.2,0 s-0.4-0.6-0.4-0.8c0-0.1,0-0.1,0-0.2c0.2-0.5,0.3-0.7,0.4-1.2c0,0,1.1-3.1,1.1-4.8c0-0.5,0-1,0-1.5c0-0.7-0.2-1.8,0.4-2.4 c-0.4-0.1-1.1-0.7-1.5-1.2c-0.2-0.5-0.2-0.8-0.2-1.3c-0.4,0.4-0.9,0.9-1.1,1.8c-0.2,1.5-0.2,2,0,5c0.2,1.8,0.4,3.1,0.4,4.1 s-0.9,2.4-0.9,2.9c0.2,0,0.2,0,0.4,0.3c0.6,0.4,0.9,0.9,1.1,1.4c0.2,0.8-0.2,1.7-0.6,2.4c-0.6,1.1-1.9,1.7-2.6,1.6l0,0 c0,0,0,0-0.2,0c-0.2,0.2-0.4,0.2-0.6,0.4c0,0-0.2,0.2-0.4,0.4c-0.6,0.9-2.1,3.1-3.2,4.5c-0.6,0.9-1.1,1.6-1.1,1.6 c-0.3,0.4-0.4,0.5-0.6,0.9c0.1,0,0.1,0,0.2,0c1.9-0.3,2.8-0.4,4.7-0.7c0.5-0.1,0.8-0.2,1.3-0.3l0,0c0.2,0,0.4,0.1,0.4-0.2 c0-0.1,0-0.1,0-0.2c-0.4-0.3-0.9-0.6-1.1-1.2c-0.2-0.5-0.2-1,0.2-2c1.1-1.3,1.7-1.5,2.4-1.4c0.1,0,0.1,0,0.2,0 c0.4,0.1,1.1,0.4,1.3,1c0.6,0.1,2.8,0.7,5.4-0.1c1.9-0.7,3.2-1.7,4.1-2.8c0.2-0.2,0.4-0.4,0.7-0.6c0.7-0.6,1.5-2.3,2.2-3.6 c0.2-0.3,0.3-0.4,0.4-0.7c1.1-1.8,1.1-2.3,0.9-2.6c0,0-0.2-0.3-0.7-0.3c-0.9,0.1-1.3,0.5-1.5,0.5c-1.1,0.3-2,0.7-2.6,1.3 c0.2-0.7,0.4-1.4,0.4-2.2c0.2-1,0.4-1.7,0.7-1.9c2-2.4,2.4-3.4,2.4-4.9c0-0.1,0-0.1,0-0.2c-0.1-0.1-0.1-0.2-0.2-0.3 c-0.2-0.3-0.7-0.1-1.3,0.3c-0.2,0.2-0.4,0.2-0.7,0.4c-0.9,0.4-1.1,0.6-2.4,0.6l0,0C642,621.4,641.7,621.6,641.3,621.5z M646.3,629 c0,0,0.2-0.2,0.7-0.4c-0.2,0.2-0.4,0.7-0.7,1.1c-0.2,0.3-0.3,0.4-0.4,0.7c-0.2,0.5-0.7,0.9-0.9,1.6c0.2-0.5,0.2-0.7,0.2-1.2 c0-0.2,0-0.7-0.4-0.8s-0.7,0.1-1.1,1.1c-0.2,0.2-0.2,0.7-0.4,0.9c-1.1,1.8-1.7,2.5-3,3c-1.5,0.8-4.5,1-5.8,1.1 c0.4-0.4,1.5-1,2.6-1.6c0.2,0,0.4-0.2,0.6-0.1c0.4-0.2,0.6-0.1,1.1-0.3c1.9-0.7,2.6-1.1,3.2-1.7c0.2-0.2,0.2-0.2,0.4-0.4 C643.2,630.5,644.1,629.4,646.3,629L646.3,629z M634.4,637.6L634.4,637.6L634.4,637.6c0.2,0,0.6,0.1,1.1-0.1c0.3,0,0.4,0.1,0.6,0.1 c1.3,0,2.4-0.1,3.2-0.2c0.6-0.1,3.2-2,3.2-2s-1.7,1.7-3.2,2.2C636.8,638.2,634.4,637.6,634.4,637.6z"/>
    <path d="M637.6,628.7c-0.6,1.4-1.5,3-2.8,3.8c0.2,0.3,0.3,0.5,0.4,0.8c0.4-0.1,0.6-0.2,1.1-0.3c0-0.1,0-0.1,0-0.2 c0,0,0.6-1.4,1.5-2.3c1.3-1.3,1.9-3.2,2.6-5.1c0.4-0.9,1.7-1.2,2.2-1.2c0.9-0.1,1.3-0.3,1.3-0.5c0-0.1,0-0.1,0-0.2 c-0.1-0.1-0.1-0.2-0.2-0.3c-0.2-0.3-1.1-0.2-1.3-0.2s-0.2,0.2-0.4,0.2c-0.4,0.2-1.3,0.3-1.7,0.7c-0.9,0.6-1.7,2.5-2.2,3.9 C637.9,627.9,637.9,628.2,637.6,628.7z"/>
    <path d="M633.5,640.2c0.2-0.2,0.2-0.7,0.2-1c0-0.2-0.4-0.6-0.6-0.6l0,0c-0.1,0-0.1,0-0.2,0c-0.4-0.1-0.9-0.1-1.7,1 c-0.2,0.2-0.2,0.5-0.2,0.7c0.2,0.3,0.6,0.6,0.9,0.6l0,0c0.2,0,0.6-0.1,0.6-0.1l0,0C632.9,640.9,632.9,640.9,633.5,640.2z" fill="#009B3A"/>
    <path d="M633.1,637.7L633.1,637.7c-0.9-0.1-1.5,0-2.4,1.4c-0.4,0.7-0.4,1.4-0.2,2c0.2,0.5,0.6,0.9,1.1,1.2c0.2,0,0.4,0.3,0.6,0.4 l0,0c0.2,0,0.6,0.1,1.1-0.1c0.4-0.2,0.6-0.4,1.3-1c0.4-0.4,0.6-1.4,0.2-2c0-0.2-0.2-0.3-0.2-0.5C634,638,633.5,637.7,633.1,637.7z M632.7,641.1c-0.2,0-0.4,0.2-0.6,0.1l0,0c-0.2,0-0.9-0.4-0.9-0.6c0-0.2,0-0.5,0.2-0.7c0.9-1.1,1.3-1,1.7-1c0.1,0,0.1,0,0.2,0l0,0 c0.4,0.1,0.6,0.4,0.6,0.6s0.2,0.8-0.2,1C632.9,640.9,632.9,640.9,632.7,641.1L632.7,641.1z"/>
    <path d="M630.1,633.7c0.2,0,0.4,0.3,0.6,0.4c0.2,0,1.3-0.3,1.7-1.2c0.2-0.5,0.6-1.1,0.6-1.6c0-0.2-0.2-0.5-0.4-0.6 c-0.2-0.3-1.1-0.9-1.9,0.4l0,0C629.9,632.4,629.9,633.4,630.1,633.7L630.1,633.7z" fill="#009B3A"/>
    <path d="M629.3,632.3c-0.2,0.7-0.2,1.7,0.4,2.1c0.1,0,0.1,0,0.2,0l0,0c0.2,0.3,0.4,0.6,0.9,0.6c0,0,0,0,0.2,0l0,0 c0.6,0.1,1.7-0.5,2.6-1.6c0.4-0.7,0.9-1.6,0.6-2.4c-0.2-0.5-0.4-1.1-1.1-1.4c-0.2,0-0.2,0-0.4-0.3l0,0c-0.1,0.1-0.1,0.1-0.2,0.2 c-0.1,0-0.1,0-0.2,0c-0.4-0.1-0.6-0.1-0.9-0.1c0,0-0.4,0.2-0.6,0.4c-0.2,0.1-0.3,0.1-0.4,0.2c0-0.1,0-0.1,0-0.2 c-0.2,0.2-0.2,0.2-0.2,0.5s-0.2,0.2-0.2,0.5C629.5,631.6,629.3,632,629.3,632.3z M630.8,631.3L630.8,631.3c0.6-1.4,1.5-0.8,1.9-0.4 c0.2,0.3,0.4,0.3,0.4,0.6c0,0.5-0.2,1.2-0.6,1.6c-0.6,0.9-1.5,1.3-1.7,1.2c-0.2,0-0.4-0.3-0.6-0.4c0,0,0,0-0.2,0 C629.9,633.4,629.9,632.4,630.8,631.3z"/>
    <path d="M630.1,627c0,0.5,0.4,1.6,0.4,2.1c0.2,0,0.2-0.2,0.4-0.2s0.4,0.1,0.9,0.1c0.2-0.5,0.6-1.6,0.6-2.1 s0-1.7-0.4-3.8c-0.4-2.8-0.4-3.6,0-5.2c0.2-1.2,1.1-2.1,1.5-2.5c0,0,0-0.2-0.2-0.3c-0.4-0.6-1.1-1.7-1.3-2.2 c-1.1,0.6-1.3,2-1.3,2.5c0,0.2,0,0.5,0,0.7c0,0.7,0.2,2,0,3.2c0,0.5-0.2,1.2-0.9,3.1c-0.6,1.4,0,3,0.2,3.8 C630.1,626.7,630.1,626.7,630.1,627z" fill="#009B3A"/>
    <path d="M630.8,630c0.2-0.2,0.4-0.2,0.6-0.4c0,0,0.4,0.1,0.9,0.1c0.1,0,0.1,0,0.2,0c0.1-0.1,0.1-0.1,0.2-0.2l0,0 c0.2-0.2,0.9-1.9,0.9-2.9c0-0.7-0.2-2.3-0.4-4.1c-0.4-2.8-0.4-3.6,0-5c0.2-1,0.6-1.4,1.1-1.8c0-0.5,0.2-1,0.2-1.5 c0,0-0.2-0.3-0.2-0.5c-0.6-0.9-1.5-2.5-1.5-2.5c-0.1-0.1-0.1-0.2-0.2-0.3c-0.1,0.1-0.1,0.1-0.2,0.2c-1.5,0.8-2.1,2.6-2.1,3.4 c0,0.2,0,0.5,0,0.7c0,0.7,0.2,2,0,3c0,0.5-0.2,1.2-0.9,2.9c-0.6,1.6-0.2,3.5,0.2,4.5c0,0.2,0,0.2,0,0.2c0.2,0.8,0.6,2.6,0.6,2.8 c0,0.1,0,0.1,0,0.2s0,0.1,0,0.2C630.4,629.7,630.5,629.8,630.8,630z M629.9,622.7c0.6-1.9,0.9-2.6,0.9-3.1c0.2-1.2,0-2.5,0-3.2 c0-0.2,0-0.5,0-0.7c0-0.5,0.4-1.9,1.3-2.5c0.2,0.5,0.9,1.6,1.3,2.2c0.1,0.1,0.1,0.2,0.2,0.3c-0.4,0.4-1.3,1-1.5,2.5s-0.2,2.5,0,5.2 c0.4,2.1,0.4,3.3,0.4,3.8s-0.4,1.7-0.6,2.1c-0.2,0-0.6-0.1-0.9-0.1c-0.2,0-0.2,0-0.4,0.2c-0.2-0.8-0.4-1.8-0.4-2.1 c0,0,0-0.2-0.2-0.5C629.9,625.7,629.3,624.1,629.9,622.7z"/>
    <path d="M636.4,614.8c-0.4-0.1-0.9,0.4-1.1,0.3c-0.2,0.7-0.4,1.4-0.2,2.2c0.2,0.5,0.9,0.9,1.1,0.9 c0.2,0,0.6-0.1,0.9-0.6c0.4-0.7,0.4-1.4,0.4-1.7C637,615.1,636.8,614.8,636.4,614.8z" fill="#009B3A"/>
    <path d="M634,616.4c0,0.5,0,1,0.2,1.3c0.4,0.8,1.1,1.2,1.5,1.2c0.2-0.2,0.2-0.2,0.4-0.4c0.9-0.4,1.1-1.1,1.1-1.1 c0-0.2,0.2-1,0.6-1.9c-0.2-0.3-0.6-0.6-1.1-1.9c-0.1,0-0.1,0-0.2,0c-1.1-0.4-1.9,0.7-1.9,0.7l0,0c0,0.2,0,0.2-0.2,0.5 C634.2,615.4,634,615.9,634,616.4z M637,617.6c-0.2,0.5-0.6,0.6-0.9,0.6c-0.2,0-0.9-0.4-1.1-0.9c-0.2-0.5,0-1.5,0.2-2.2 c0.2-0.2,0.6-0.6,1.1-0.3c0.4,0.1,0.6,0.6,0.9,1.1C637.4,616.2,637.4,616.9,637,617.6z"/>
    <path d="M638.1,618c0,0-0.4,1.2-1.5,1.8c-0.4,0.2-0.4,0.4-0.2,1.5c0,0.5,0.2,1,0.2,1.5c0,1-0.2,2.2-0.6,3.4 c0.2,0,0.2-0.2,0.4-0.2c0.6-0.4,0.9-0.9,1.1-2.1s1.3-2,2.2-2.4c-0.4-0.6-0.9-1.1-1.1-1.9c-0.4-1.8,0.9-3.6,1.7-4.7 c-0.3,0-0.4-0.1-0.6-0.1C638.9,615.9,638.3,617.3,638.1,618z" fill="#009B3A"/>
    <path d="M641.5,615.6c0.2-0.2,0.2-0.2,0.2-0.2s0,0,0.2-0.2l0,0c-0.7,0-1,0-1.7,0c-0.6,0.9-1.9,2.7-1.7,4.7c0.2,0.8,0.4,1.3,1.1,1.9 c-0.9,0.4-1.9,0.9-2.2,2.4c-0.2,1.2-0.6,1.6-1.1,2.1c0,0-0.2,0.2-0.4,0.2c0.2-1,0.6-2.4,0.6-3.4c0-0.5,0-1.2-0.2-1.5 c-0.2-1-0.2-1.3,0.2-1.5c1.1-0.6,1.5-1.8,1.5-1.8c0.2-0.7,0.6-2.1,1.5-2.7c-0.1,0-0.1,0-0.2,0l0,0c-0.3,0-0.4-0.1-0.6-0.1 c0,0.2-0.2,0.5-0.4,0.4c-0.1,0-0.1,0-0.2,0c-0.1,0-0.1,0-0.2,0c-0.4,0.9-0.6,1.6-0.6,1.9c0,0-0.2,0.7-1.1,1.1 c-0.2,0-0.2,0.2-0.4,0.4c-0.6,0.6-0.4,1.4-0.4,2.4c0,0.5,0,1,0,1.5c0,1.7-1.1,4.8-1.1,4.8c-0.2,0.5-0.3,0.7-0.4,1.2 c0,0.1,0,0.1,0,0.2c0,0.5,0.2,0.8,0.4,0.8c0,0,0,0,0.2,0c0.4,0.1,0.9-0.6,1.1-1.1c0.4-0.9,0.9-1.4,1.3-1.8c0.6-0.4,1.3-1,1.5-2.7 c0.2-1,1.3-1.5,2.2-1.7c0.2,0,0.4-0.2,0.6-0.1l0,0c0-0.4,0-0.6,0-1l0,0c0,0,0,0-0.2,0c-0.6-0.1-1.1-0.4-1.5-0.7 c-0.2-0.3-0.6-1.1-0.2-2.3c0.2-0.7,0.6-1.1,1.1-1.6C640.7,616.4,641.1,616,641.5,615.6L641.5,615.6z"/>
    <path d="M640.2,618.9c-0.2,0.7,0,0.7,0,1c0.4,0.6,1.3,0.5,1.5,0.5c0,0,0.4-0.4,0.6-0.6c0.2-0.5,0.4-0.9,0.2-1.5 c-0.2-0.3-0.4-0.6-0.4-0.6c-0.2,0-0.2,0-0.4-0.1C641.3,617.5,640.7,617.9,640.2,618.9L640.2,618.9z" fill="#009B3A"/>
    <path d="M639.4,618.5c-0.4,1.2,0,1.7,0.2,2.3c0.4,0.6,1.1,0.7,1.5,0.7c0,0,0,0,0.2,0l0,0c0.4,0.1,0.6,0.1,0.9-0.1l0,0 c0.2-0.2,0.6-0.6,0.9-0.9c0.7-0.9,0.7-1.9,0.4-2.4c-0.2-0.8-0.6-1.1-1.1-1.4c-0.4-0.3-1.3-0.5-1.9,0.2 C640,617.3,639.8,617.8,639.4,618.5z M641.7,617.6c0.2,0,0.2,0,0.4,0.1c0,0,0.4,0.3,0.4,0.6c0.2,0.5,0,1-0.2,1.5 c-0.2,0.2-0.4,0.7-0.6,0.6c-0.2,0-1.1,0.1-1.5-0.5c0,0-0.2-0.3,0-1l0,0C640.7,617.9,641.3,617.5,641.7,617.6z"/>
    <path d="M634.2,598.7L634.2,598.7c-0.2-0.5-0.9-1.1-1.7-1.8c0,0.5,0,1.2,0,2c0,0.2,0,0.5,0,0.7s0,0.5,0,1 s0.4,1.6,1.3,3.7c0.4,1.3,0.9,2.4,1.3,3.2s0.6,1.6,0.9,2.1l0,0c1.1,2.4,1.7,3.8,2.1,4.3c0-0.2-0.2-1.3-0.2-2c0-0.5-0.2-1-0.2-1.5 c0-0.7-0.2-1.8-0.4-2.3c-0.2-0.3-0.4-0.8-0.9-1.4c-0.6-0.9-1.3-2-1.7-3C634,602.4,634,600.4,634.2,598.7z" fill="#009B3A"/>
    <path d="M637.9,615.7L637.9,615.7l0.4,0.1c0.2-0.2,0.2-0.2,0.4-0.4l0,0c0-0.2,0-0.3,0-0.5c0,0,0,0,0-0.2c-0.2,0-0.3,0-0.4-0.1 c-0.4-2.3-1.1-5.9-1.3-6.7c-0.2-0.3-0.4-0.8-0.6-1.1c-0.4-0.8-0.9-1.6-1.3-2.7c-0.6-1.6-0.4-3.1-0.2-4c0-0.2,0-0.5,0-0.7 c0-0.5,0-1,0-1.5c-0.6-0.6-1.7-1.5-2.4-1.9c-0.3-0.2-0.4-0.4-0.6-0.6c0.1,0.4,0.1,0.6,0.2,1c0,0,0.2,1,0,2.7c0,0.2,0,0.5,0,0.7 s0,0.7-0.2,1c0,0.7,0.4,1.8,1.3,4.2c0.4,1.3,0.9,2.4,1.3,3.2c0.4,0.8,0.6,1.6,0.9,2.1c0.6,1.6,1.3,2.9,1.7,3.8 C637.2,614.9,637.6,615.5,637.9,615.7z M635.9,607c0.2,0.5,0.6,0.9,0.9,1.4c0.2,0.5,0.4,1.6,0.4,2.3c0,0.5,0.2,1,0.2,1.5 c0.2,1,0.2,1.8,0.2,2c-0.4-0.6-1.1-1.9-2.1-4.3l0,0c-0.2-0.5-0.4-1.3-0.9-2.1c-0.4-0.8-0.6-1.8-1.3-3.2c-0.9-2.1-1.3-2.9-1.3-3.7 c0-0.5,0-0.7,0-1s0-0.5,0-0.7c0-0.7,0-1.5,0-2c0.9,0.6,1.5,1.2,1.7,1.5c0,0,0,0,0,0.2c-0.2,1.5-0.4,3.7,0,5.2 C634.6,605,635.3,606.1,635.9,607z"/>
    <path d="M639.4,614.2L639.4,614.2c0.1-0.1,0.1-0.1,0.2-0.2c0,0,0.2-1.7,0.4-2.9s1.3-2.5,2.2-3.9 c0.2-0.3,0.3-0.4,0.4-0.7c0.9-1.1,1.5-3,1.5-3c0.4-0.9,0.7-1.6,0.9-2.4c0.4-1.2,0.9-2.4,1.5-3.3c0.3-0.5,0.4-0.7,0.7-1.1 c0,0.6,0,0.9,0,1.5c0,1-1.1,3.3-2.8,7c-1.5,3-3.3,6.5-3.7,8.6c0.4,0,0.6,0,1.1-0.1c1.3-1,2.8-3.5,4.1-5.1c0.2-0.3,0.3-0.4,0.4-0.7 c1.3-1.8,1.7-5.2,2-6.4c0.2-1,0.2-4.2,0.2-6.2c-0.1,0.1-0.1,0.1-0.2,0.2c-0.2,0.2-3.9,3.4-4.1,3.3c0,0,0,0-0.2,0 c-1.7,0.7-2.8,3.3-3.5,5.4C638.9,608.7,639.2,613,639.4,614.2z" fill="#009B3A"/>
    <path d="M643.5,598.4c-0.2,0.2-0.7,0.4-0.9,0.6l0,0c-0.3,0.3-0.4,0.4-0.6,0.6c-0.6,0.6-2.2,6.4-3,10c-0.1,0-0.1,0-0.2,0 c0,2.5,0.2,5,0.2,5c-0.2,0-0.3,0-0.4-0.1c0,0.1,0,0.1,0,0.2c0,0.2,0,0.3,0,0.5l0,0c0.3,0,0.4,0.1,0.6,0.1l0,0c0.1,0,0.1,0,0.2,0 c0.3,0,0.4,0.1,0.6,0.1c0.7,0,1,0,1.7,0l0,0l0,0c1.3-1.3,2.8-3.5,4.1-5.3c0.2-0.3,0.3-0.4,0.4-0.7c1.3-2,2-5.2,2.2-6.6 c0.2-1.5,0.2-7.7,0.2-7.9c0-0.7,0-1,0-1.7c-0.3,0.6-0.4,0.8-0.7,1.4c-0.2,0.5-0.7,1.1-0.9,1.4c-0.2,0.2-1.3,1-2.4,1.9 C644.4,597.8,643.5,598.4,643.5,598.4z M640.2,604.7c0.6-2.1,1.9-4.7,3.5-5.4c0.1,0,0.1,0,0.2,0c0.2-0.2,3.9-3.4,4.1-3.3 c0,0,0-0.2,0.2-0.2c0,2,0,5.5-0.2,6.2c-0.2,1.2-0.7,4.4-2,6.4c-0.2,0.3-0.3,0.4-0.4,0.7c-1.1,1.8-2.8,4-4.1,5.1 c-0.4,0-0.6,0-1.1,0.1c0.6-2.1,2.2-5.6,3.7-8.6c1.7-3.7,3-6,2.8-7c0-0.6,0-0.9,0-1.5c-0.3,0.5-0.4,0.7-0.7,1.1 c-0.7,0.9-1.1,2.1-1.5,3.3c-0.2,0.7-0.7,1.6-0.9,2.4c0,0-0.7,1.9-1.5,3c-0.2,0.3-0.3,0.4-0.4,0.7c-0.9,1.1-1.7,2.7-2.2,3.9 c-0.2,1.2-0.4,2.9-0.4,2.9c0,0.1,0,0.1,0,0.2c-0.1,0-0.1,0-0.2,0C639.2,613,638.9,608.7,640.2,604.7z"/>
    <path d="M636.2,593.5c-0.4-0.3-0.6-0.6-0.9-0.9c0,0.7,0.2,1.5,0.2,2.3c0,0.5,0,1,0,1.5c0,1,0,2,0,2.7 c0,0.2,0,0.5,0,1c-0.2,1-0.2,2.2,0.2,3.5c0.4,1.1,0.9,1.9,1.3,2.7c0.2,0.5,0.4,0.8,0.6,1.3c0.2,0.3,0.2,1,0.4,1.6 c0-1.7,0-3.5,0-4.5c0.2-2,0.4-5.2,0-6.7C637.4,596.2,636.8,594.6,636.2,593.5z" fill="#009B3A"/>
    <path d="M634.6,599.3c0,0.2,0,0.5,0,0.7c-0.2,1-0.2,2.5,0.2,4c0.4,1.1,0.9,2.1,1.3,2.7c0.2,0.5,0.4,0.8,0.6,1.1 c0.4,0.8,1.1,4.4,1.3,6.7c0.2,0,0.3,0,0.4,0.1c0.2,0,0.3,0,0.4,0.1c0,0-0.2-2.5-0.2-5c-0.2,0-0.3,0-0.4-0.1c0-0.4,0-0.6,0-1 c0.2-4,0.4-10.4,0.2-10.9c0-0.5-0.4-1.6-1.1-3.2c-0.1-0.1-0.1-0.2-0.2-0.3c-0.2-0.3-0.4-0.6-0.4-0.8l0,0c-1.1-1.2-1.7-1.8-1.7-1.8 c-0.3-0.1-0.4-0.2-0.6-0.4c0,0.3,0,0.4,0,0.7c0,0,0.2,2,0.2,3c0,0.5,0,1,0,1.5s0,0.7,0,1.2S634.6,598.8,634.6,599.3z M638.1,604.8 c-0.2,1-0.2,2.7,0,4.5c-0.2-0.8-0.4-1.3-0.4-1.6c-0.2-0.5-0.4-0.8-0.6-1.3c-0.4-0.8-0.9-1.6-1.3-2.7c-0.4-1.3-0.2-2.5-0.2-3.5 c0-0.2,0-0.7,0-1c0-0.7,0-1.7,0-2.7c0-0.5,0-1.2,0-1.5c0-0.7,0-1.7-0.2-2.3c0.2,0.3,0.6,0.6,0.9,0.9c0.6,0.9,1.3,2.4,1.9,4.5 C638.3,599.9,638.3,602.9,638.1,604.8z"/>
    <path d="M642.4,582.1c0,1,0,1.7-0.4,3.2c-0.2,0.5-0.2,1.2-0.2,1.7s0,1-0.2,1.2s-0.4,1.2-0.6,1.6c0,0-0.2,1-0.2,1.7 c0,0.2,0,0.7,0,1c0.2-0.2,0.4-0.2,0.6-0.1c0-0.5,0.2-1.5,0.2-1.7c0-0.7,0.7-4.1,0.9-5.1c0.2-0.7,0.7-3.1,0.2-6.4l0,0 c0,0.2,0,0.5,0,0.7s0,0.5,0,1C642.4,580.8,642.4,581.3,642.4,582.1z" fill="#009B3A"/>
    <path d="M642.2,575.6c-0.2,0.5-0.4,1.4-0.7,2.4c0,0.5,0,1.2,0,2c0,0.5,0,1.5,0,1.5s0-1.2,0-1.7c0-0.2,0-0.5,0-0.5 c0-0.7-0.2-1.5,0.4-1.7c0.1,0,0.1,0,0.2,0c0.1,0.1,0.1,0.2,0.2,0.3l0,0l0,0C642.2,577.3,642.2,576.6,642.2,575.6z" fill="#009B3A"/>
    <path d="M640.9,581.3c0.2,2-0.2,4.2-0.4,5.4c0.2,0.1,0.3,0.2,0.4,0.3c0,0.2-0.2,0.2-0.2,0.2c-0.2-0.1-0.3-0.2-0.4-0.3 c0,0.5-0.2,0.7-0.2,0.7c-0.6,1.6-0.4,4.4-0.4,4.4c0.1,0.8,0.1,1.2,0.2,2c0.2-0.4,0.3-0.6,0.4-0.9c0,0,0.4-0.7,1.1-0.6 c0.1,0,0.1,0,0.2,0l0,0l0,0l0,0c0-0.1,0-0.1,0-0.2c0,0,0-0.2,0-0.7s0.2-1.2,0.2-1.7s0.7-3.6,0.9-4.8c0.2-0.7,0.9-3.6,0-7.7 c-0.2-0.8-0.2-2.8-0.2-3.5c0-0.4,0-0.6,0-1c-0.1,0.4-0.1,0.6-0.2,1c0,0-1.1,0.8-1.5,4c0,0.2,0,0.7,0,1c0,0.2,0,0.5,0,0.7 C640.8,580.3,640.8,580.6,640.9,581.3z M642.4,579.3c0-0.5,0-0.7,0-0.7l0,0c0.6,3.3,0,6-0.2,6.4c-0.2,1-0.9,4.3-0.9,5.1 c0,0.2,0,1.2-0.2,1.7c-0.2,0-0.4,0.2-0.6,0.1c0-0.2,0-0.7,0-1c0-0.7,0.2-1.7,0.2-1.7c0.2-0.5,0.6-1.4,0.6-1.6 c0.2-0.2,0.2-0.7,0.2-1.2s0-1.2,0.2-1.7c0.4-1.2,0.4-1.9,0.4-3.2c0-0.5,0-1,0.2-1.5C642.6,580.1,642.6,579.6,642.4,579.3z M642.2,577.8c-0.1-0.1-0.1-0.2-0.2-0.3c-0.1,0-0.1,0-0.2,0c-0.4,0.2-0.4,0.7-0.4,1.7c0,0.2,0,0.5,0,0.5c0,0.5,0,1.7,0,1.7 s0-1,0-1.5c0-1,0-1.7,0-2c0.2-1.2,0.4-1.9,0.7-2.4C642.2,576.6,642.2,577.3,642.2,577.8C642.4,577.9,642.4,578.1,642.2,577.8 C642.4,577.9,642.4,577.9,642.2,577.8z"/>
    <path d="M640.9,587.3c0.1-0.1,0.1-0.1,0.2-0.2c-0.2-0.1-0.3-0.2-0.4-0.3c0,0.1,0,0.1,0,0.2C640.8,587.2,640.8,587.2,640.9,587.3z"/>
    <path d="M639.2,597.3c0,0.5,0,5.5-0.2,8.7c0.6-2.4,1.5-5.2,2.2-6.6c-0.6-0.6-1.7-1.8-1.7-4.5 c-0.2-0.9-0.3-1.4-0.4-2.3c0,0-0.2-2.5,0.2-4.2c-0.2,0.2-0.4,0.4-0.6,0.4c-0.4-0.1-0.6-0.9-0.6-1.1c0-0.2,0-0.3,0-0.5 c-0.2-1.3-0.2-2-0.4-2.6c-0.4-1.6-0.9-3.9-0.2-5.5c0-0.2,0.2-0.7,0.2-1.5c0-0.2-0.2-1-0.2-1.5s-0.2-1-0.2-1.3c0-0.5,0-1.2,0-2 c0-0.2,0-0.3,0-0.5c0.1,0,0.1,0,0.2,0c0-0.2,0-0.2,0-0.2c0-0.2,0-0.5,0-0.5c0-0.4,0-0.6,0-1c0.4,0.1,0.4,0.3,0.6,0.4 c0.2,0.3,0.2,1,0.2,1.3c0,0.2,0,1,0,1.2s0.2,1.5,0.4,2.1c0,0.2,0,0.2,0.2,0.5c0.2,0.5,0.2,1,0.2,2c0,0.2-0.2,0.7-0.2,1 c-0.2,0.7-0.4,1.2-0.2,2c0,0.5,0.2,1,0.4,1.3s0.2,0.5,0.4,0.8s0.2,1,0.2,1.8c0,0.2,0,0.7,0,1c0,0.7,0.4,1.3,0.4,1.3 c0,0.1,0,0.1,0,0.2c0-0.1,0-0.1,0-0.2l0,0c0,0,0.9-3.1,0.7-5.9c-0.1-0.7-0.1-1.1-0.2-1.8c0-0.7-0.2-1.3-0.2-2.3 c-0.2-1.5-0.6-3.8-1.3-6.7c0-0.1,0-0.1,0-0.2c-0.2-1-0.4-1.3-0.6-2.1c-0.1-0.2-0.1-0.3-0.2-0.5c0-0.1,0-0.1,0-0.2 c0,0,0-0.2-0.2-0.5c0,0.2,0,0.5-0.2,0.7c0,0-0.4,1.7-0.4,2.2s-0.2,1-0.4,1.2c-0.2,1-0.6,2.1-0.9,4.1c0,0.2,0,0.5,0,1 c0,1,0,1.2-0.2,1.5c0,0,0,1,0,1.2l0,0c0,0.7,0.2,1.3,1.1,3.2c0.1,0.1,0.1,0.2,0.2,0.3c0.2,0.5,0.9,2.6,1.1,3.2 c0,0.5,0.2,1.3,0.2,1.5s0,1.5,0,1.5c0,0.6,0,0.9,0,1.5c-0.3-0.2-0.4-0.4-0.6-0.6c0,0-2.6-2.2-3.7-3.1c-0.9-0.9-1.7-1.8-2.6-2.7 c-0.3-0.2-0.4-0.4-0.6-0.6c-0.9-0.9-3-4.2-3.2-6.8c-0.1-0.1-0.1-0.2-0.2-0.3c0,1.5,0.2,4.8,2.6,7.6c1.1,1.2,2.1,2.3,4.3,3.9 c1.9,1.3,2.1,2.3,2.6,3.9c0.2,0.5,0.2,1,0.6,1.6c0.3,0.6,0.4,1,0.6,1.6C638.7,595.7,639.2,596.8,639.2,597.3z" fill="#009B3A"/>
    <path d="M638.3,597.4c0,0.5-0.2,6.9-0.2,10.9c0,0.4,0,0.6,0,1c0.2,0,0.3,0,0.4,0.1c0.1,0,0.1,0,0.2,0c0.9-3.6,2.4-9.3,3-10 c0.3-0.3,0.4-0.4,0.6-0.6l0,0c-0.3-0.2-0.5-0.2-0.9-0.4c0,0-1.7-0.8-1.5-4c0-0.2,0-0.3,0-0.5c-0.1-0.8-0.1-1.2-0.2-2 c0,0-0.4-2.8,0.4-4.4c0,0,0-0.2,0.2-0.7c0-0.1,0-0.1,0-0.2c0.2-1.2,0.7-3.4,0.4-5.4c-0.1-0.7-0.1-1.1-0.2-1.8c0-0.2,0-0.5,0-0.7 c0-0.5,0-0.7-0.2-1.5c-0.2-1.5-0.6-3.8-1.3-6.7c0-0.1,0-0.1,0-0.2c-0.2-1-0.4-1.6-0.6-2.1c-0.1-0.2-0.1-0.3-0.2-0.5 c0-0.1,0-0.1,0-0.2c-0.2-0.8-0.4-1.6-0.9-1.9c-0.2,0-0.6-0.1-0.9,1.9c0,0-0.4,1.7-0.4,2.2s-0.2,0.7-0.4,1.2c0,0.2-0.2,0.7-0.2,1 l0,0c-0.3,1.4-0.4,2-0.6,3.4c0.2,1,0.4,2.1,0,3c-0.1,0.2-0.1,0.3-0.2,0.5c0.6,1.1,1.1,1.7,1.1,1.7c-0.2,0.2-0.3,0.3-0.4,0.4 c0,0,0,0,0,0.2c0.2,0.3,0.2,0.5,0.4,0.8c0.6,1.1,1.3,3.7,1.7,6c0.1,0.4,0.1,0.6,0.2,1c-0.3-0.2-0.4-0.4-0.6-0.6 c-0.2,0-4.5-3.2-6.9-7.1c-1.3-2.2-1.9-4.6-2.3-5.9l0,0l0,0l0,0c0,0-0.2-0.3,0-0.5c-0.2-0.3-0.4-0.6-0.6-1.1 c-0.1-0.1-0.1-0.2-0.2-0.3c-0.1,0.3-0.1,0.4-0.2,0.7c0,0.2-0.4,2.9,0.8,6.1c0.4,0.6,0.6,0.9,1.1,1.4c0.9,1.4,1.7,2.8,3.2,4 c3,2.2,3.9,3.1,4.7,4.3c0.4,0.6,0.9,1.6,0.9,1.6c0.3,0.6,0.4,1,0.6,1.6c-0.4-0.5-0.6-0.7-1.1-1.2c0,0,0,0.2,0.2,0.3 c0.2,0.4,0.3,0.6,0.4,1.1c0.1,0.1,0.1,0.2,0.2,0.3C637.9,595.8,638.3,596.9,638.3,597.4z M637.4,592.5c-0.2-0.5-0.4-1.1-0.6-1.6 c-0.4-1.6-0.9-2.6-2.6-3.9c-2.4-1.6-3.2-2.8-4.3-3.9c-2.3-2.6-2.6-5.9-2.6-7.6c0.1,0.1,0.1,0.2,0.2,0.3c0.2,2.5,2.3,5.9,3.2,6.8 c0.3,0.2,0.4,0.4,0.6,0.6c0.6,0.9,1.7,2,2.6,2.7c1.1,1.2,3.4,3,3.7,3.1c0.3,0.2,0.4,0.4,0.6,0.6c0-0.6,0-0.9,0-1.5c0,0,0-1.2,0-1.5 s-0.2-1-0.2-1.5c-0.2-0.5-0.9-2.4-1.1-3.2c-0.1-0.1-0.1-0.2-0.2-0.3c-0.9-1.9-1.1-2.4-1.1-3.2l0,0c0-0.2,0-1,0-1.2s0-0.5,0.2-1.5 c0-0.2,0-0.7,0-1c0.2-2,0.6-3.1,0.9-4.1c0.2-0.5,0.2-1,0.4-1.2c0-0.5,0.4-2.2,0.4-2.2c0-0.2,0-0.5,0.2-0.7c0,0.2,0,0.2,0.2,0.5 c0,0.2,0,0.2,0,0.2c0.1,0.2,0.1,0.3,0.2,0.5c0.2,0.8,0.4,1.1,0.6,2.1c0,0.1,0,0.1,0,0.2c0.6,2.8,1.1,5.2,1.3,6.7 c0,1,0.2,1.5,0.2,2.3c0.1,0.7,0.1,1.1,0.2,1.8c0.2,2.8-0.7,5.9-0.7,5.9l0,0c0,0.1,0,0.1,0,0.2c0-0.1,0-0.1,0-0.2 c0,0-0.4-0.6-0.4-1.3c0-0.2,0-0.7,0-1c0-0.7,0-1.2-0.2-1.8c0-0.2-0.2-0.5-0.4-0.8c-0.2-0.5-0.4-1.1-0.4-1.3c-0.2-0.8,0-1.5,0.2-2 c0.2-0.2,0.2-0.7,0.2-1c0-1.2,0-1.5-0.2-2c0,0,0-0.2-0.2-0.5c-0.2-0.8-0.4-1.8-0.4-2.1c0-0.2,0-1,0-1.2c0-0.5,0.2-1-0.2-1.3 c0-0.2-0.2-0.3-0.6-0.4c0,0.4,0,0.6,0,1c0,0,0,0.2,0,0.5c0,0.1,0,0.1,0,0.2c-0.1,0-0.1,0-0.2,0c0,0.2,0,0.3,0,0.5c0,0.5,0,1.5,0,2 c0,0.2,0.2,0.8,0.2,1.3c0.2,0.5,0.2,1,0.2,1.5c0,0.7,0,1.2-0.2,1.5c-0.6,1.6-0.4,3.9,0.2,5.5c0.2,0.5,0.2,1.3,0.4,2.6 c0,0.2,0,0.3,0,0.5s0.2,1,0.6,1.1c0.2,0,0.6-0.1,0.6-0.4c-0.4,1.9-0.2,4.2-0.2,4.2c0.2,0.9,0.3,1.4,0.4,2.3 c-0.2,2.7,0.9,4.1,1.7,4.5c-0.6,1.1-1.5,4.2-2.2,6.6c0-3.2,0.2-7.9,0.2-8.7c0-0.5-0.4-1.6-1.1-3.4 C637.8,593,637.7,592.8,637.4,592.5z"/>
    <path d="M635.3,590.2c-0.6-0.9-1.7-1.8-3.9-3.4c-1.7-1.3-2.8-2.9-3.6-4.3c-0.4-0.8-0.9-1.4-1.5-2 c-0.2-0.3-0.6-0.6-0.6-0.6s0.8,1.4,0.8,1.9c0.1,0.2,0.1,0.3,0.2,0.5c0.2,0.8,0.4,1.3,1.7,2.8c1.3,1.7,3,2.5,4.3,3.2 c0.1,0,0.1,0,0.2,0C633.6,588.9,634.4,589.5,635.3,590.2z" fill="#009B3A"/>
    <path d="M637.7,593.5c-0.3-0.6-0.4-1-0.6-1.6c0,0-0.4-1.1-0.9-1.6c-0.6-1.1-1.7-2.3-4.7-4.3c-1.7-1.3-2.6-2.7-3.2-4 c-0.4-0.6-0.6-1.1-1.1-1.4c-0.2-0.3-0.4-0.6-0.6-0.6c-0.6-0.6-1.9-1.1-2.1-1.1c-0.4-0.2-0.6-0.3-1.1-0.4c0.3,0.4,0.4,0.7,0.6,1.1 c0.4,0.6,1.3,2.2,1.5,2.7c0.1,0.1,0.1,0.2,0.2,0.3c0.2,0.8,0.6,1.6,1.9,3.3c1.5,2,3.4,2.8,4.5,3.5c0.1,0,0.1,0,0.2,0 c1.7,0.8,3.9,3.1,3.9,3.1l0,0C636.8,592.9,637.1,593.1,637.7,593.5z M628.5,585.1c-1.3-1.5-1.5-2.2-1.7-2.8 c-0.1-0.2-0.1-0.3-0.2-0.5c-0.2-0.3-0.6-1.1-0.8-1.9c0.2,0,0.4,0.3,0.6,0.6c0.4,0.6,0.9,1.1,1.5,2c0.9,1.4,1.7,3,3.6,4.3 c2.1,1.6,3.2,2.5,3.9,3.4c-0.6-0.6-1.5-1.2-2.4-1.6c-0.1,0-0.1,0-0.2,0C631.4,587.8,629.9,586.8,628.5,585.1z"/>
    <path d="M636.4,586.9c-0.4-1.8-1.1-3.9-1.5-4.7c-1.5-3-4.9-5.3-6.4-6.3c0.4,1.3,1.1,3.2,1.9,4.8 C632.3,583.5,635.1,585.7,636.4,586.9z" fill="#009B3A"/>
    <path d="M635.1,580.9c0,0-2.6-2.9-3.9-3.9c-0.9-0.6-1.7-1-2.1-1.1c-0.2,0-0.4-0.3-0.4-0.3c-0.2,0-0.6-0.4-0.9-0.9 c0,0.2,0,0.5,0,0.5l0,0l0,0l0,0c0.4,1.3,1.1,3.7,2.3,5.9c2.3,3.9,6.6,6.8,6.9,7.1c0.3,0.2,0.4,0.4,0.6,0.6c-0.1-0.4-0.1-0.6-0.2-1 c-0.4-2.3-1.3-4.9-1.7-6C635.5,581.5,635.3,581.2,635.1,580.9C635.3,581,635.1,580.9,635.1,580.9L635.1,580.9z M634.9,582.1 c0.4,0.8,1.1,2.9,1.5,4.7c-1.3-1-4.1-3.4-5.8-6.2c-1.1-1.7-1.7-3.5-1.9-4.8C630.2,576.9,633.6,579.2,634.9,582.1z"/>
    <path d="M634.2,577c0.2-1.7-1.1-3.7-2.1-5.3c-0.6-0.9-1.1-1.7-1.3-2.2c-0.1-0.1-0.1-0.2-0.2-0.3 c0.1-0.1,0.1-0.1,0.2-0.2c0.2-0.2,0.4-0.2,0.4-0.2c0.4,0.1,0.6,0.6,1.1,1.2c0.1,0.1,0.1,0.2,0.2,0.3c0.4,0.6,1.1,1.9,1.7,3 c0.1-0.6,0.1-0.9,0.2-1.5c-1.5-1.8-2.2-2.7-3.6-4.6c-0.2,0.2-0.9,0.6-1.1,0.6c0,0.2,0,0.5,0,0.7c0.1,0.5,0.1,0.8,0.2,1.3 c0.4,1.1,0.9,2.1,1.5,3.2C632.5,575,633.6,576.2,634.2,577z" fill="#009B3A"/>
    <path d="M629.5,567.8c0.1,0.3,0.1,0.5,0.2,0.8C629.7,568.6,629.7,568.3,629.5,567.8c0.4,0.1,0.9-0.1,1.3-0.5 c1.5,1.8,2.2,2.7,3.6,4.6c-0.1,0.6-0.1,0.9-0.2,1.5c-0.4-0.8-1.3-2.2-1.7-3c-0.1-0.1-0.1-0.2-0.2-0.3c-0.4-0.6-0.6-1.1-1.1-1.2 c-0.2,0-0.4-0.1-0.4,0.2c-0.1,0.1-0.1,0.1-0.2,0.2c0.1,0.1,0.1,0.2,0.2,0.3c0.2,0.8,0.9,1.4,1.3,2.2c1.1,1.7,2.4,3.6,2.1,5.3 c-0.6-0.6-1.7-2-2.6-3.7c1.1,1.9,2.1,3.8,3,5.2c0.1-0.2,0.1-0.3,0.2-0.5c0.4-0.9,0.4-1.9,0-3c0.3-1.4,0.4-2,0.6-3.4l0,0 c-1.7-2.2-2.6-3.3-4.3-5.4c-0.2-0.1-0.3-0.2-0.4-0.3c0,0.2,0,0.2,0,0.5C630.4,566.7,630.2,567.7,629.5,567.8z"/>
    <path d="M628.7,568.2c-0.3,0-0.4-0.1-0.6-0.1c0,0.7,0,1.7-0.9,2.1l0,0c-0.4,0.2-0.9,0.1-1.1,0.3 c0.2,0.5,0.3,0.8,0.4,1.3c0.1,0.2,0.1,0.3,0.2,0.5c0.6,1.1,1.5,2.5,1.9,2.6c0,0,0.2,0,0.4,0.3c0.4,0.3,1.5,0.7,2.3,1.1 c0.4,0.3,0.9,0.6,1.3,1c-1.3-2.2-2.8-4.9-3.6-7.1C628.9,569.4,628.8,569,628.7,568.2L628.7,568.2L628.7,568.2z" fill="#009B3A"/>
    <path d="M627.6,574.7c0.2,0.3,0.6,0.6,0.9,0.9c0,0,0.2,0,0.4,0.3c0.6,0.4,1.3,0.7,2.1,1.1c1.5,1,3.9,3.9,3.9,3.9l0,0l0,0 c0.2-0.2,0.3-0.3,0.4-0.4c0,0-0.4-0.8-1.1-1.7c-0.9-1.4-1.9-3.3-3-5.2c-0.6-1.1-1.1-2.2-1.5-3.2c-0.1-0.5-0.1-0.8-0.2-1.3 c-0.1-0.3-0.1-0.5-0.2-0.8c0,0,0,0-0.2,0s-0.2,0-0.2,0l0,0l0,0c-0.1,0-0.1,0-0.2,0c0.2,0.8,0.3,1.2,0.4,2.1 c0.9,2.4,2.3,4.9,3.6,7.1c-0.4-0.3-0.9-0.9-1.3-1c-0.9-0.6-1.7-1-2.3-1.1c-0.2,0-0.4-0.1-0.4-0.3c-0.4-0.3-1.3-1.7-1.9-2.6 c-0.1-0.2-0.1-0.3-0.2-0.5c-0.2-0.5-0.3-0.8-0.4-1.3c0.2,0,0.6-0.1,1.1-0.3l0,0c0.9-0.4,1.1-1.3,0.9-2.1c0.3,0,0.4,0.1,0.6,0.1l0,0 c-0.2,0-0.6-0.1-1.1-0.7l0,0c0,0.1,0,0.1,0,0.2c0.2,1.5-0.2,2-0.2,2c-0.2,0.1-0.3,0.1-0.4,0.2c-0.2,0-0.6,0.1-1.3,0 c-0.2,0-0.4-0.1-0.6-0.1c0.6,0.6,0.8,1.4,0.6,2.1c0.1,0.2,0.1,0.3,0.2,0.5c0,0.2,0.4,0.6,0.6,1.1 C627.2,574.1,627.4,574.4,627.6,574.7z"/>
    <path d="M617.4,566.3c1.1,0.7,2.1,1.4,2.9,1.7c0.3,0,0.4,0.1,0.6,0.1c0.2,0,0.2,0,0.4,0.1c1.3,0,2.5,0.2,2.5,0.2 s-0.8-0.1-1.3-0.5c-0.4-0.1-0.8-0.1-1.7-0.5C619.3,567.1,618.1,566.6,617.4,566.3z" fill="#009B3A"/>
    <path d="M620.4,569c-0.2,0-0.3,0-0.4-0.1c-2.7-0.7-5-2.4-6.7-5.1c0.2-0.3,0.3-0.4,0.4-0.7c0.3,0.2,0.4,0.4,0.6,0.6 c0.6,0.6,1.3,1.2,2.1,1.9c-0.8-0.9-1.5-1.7-1.7-2.3c-1.2-0.3-1.8-0.5-2.9-0.8c-0.1,0-0.1,0-0.2,0c0,0,0.2,0.3,0.6,0.9l0,0 c0.6,0.9,1.5,1.7,2.1,2.4c2.7,2.5,4.4,3.5,5.3,3.6c0.4,0.1,1.9,0.6,2.5,0.9c0-0.2,0.2-0.5,0.2-0.5c-0.5-0.2-0.8-0.3-1.3-0.5 C620.6,569.1,620.6,569.1,620.4,569z" fill="#009B3A"/>
    <path d="M621.9,570c0.4-1.2,1.5-1.2,2.3-0.9l0,0l0,0c-0.2-0.3-0.4-0.6-0.4-1.1c0-0.2,0-0.2,0-0.5c-0.2,0.2-0.4,0.2-0.4,0.2 s0,0-0.4-0.1c-0.1,0-0.1,0-0.2,0c0.4,0.1,0.8,0.1,1.3,0.5c-0.6-0.1-1.3,0-2.5-0.2c-0.2,0-0.2,0-0.4-0.1c-0.3,0-0.4-0.1-0.6-0.1 c-1.1-0.4-2.1-1.1-2.9-1.7c0.6,0.4,3.8,1.1,3.8,1.1s-0.4-0.1-0.6-0.1c-2.1-0.6-3-1.5-3.8-2.6c-1.1-0.9-1.7-2.3-1.7-2.3 c-0.1-0.1-0.1-0.2-0.2-0.3c-1.3-0.3-2-0.5-3.3-0.8c-0.2,0-0.8-0.1-1,0.3s0.4,1.3,0.8,1.9c0.6,0.9,1.5,1.7,2.3,2.4 c2.3,2.1,4.2,3.5,5.7,4c0.4,0.1,1.9,0.6,2.5,0.9C621.9,570.8,621.9,570.5,621.9,570z M621.9,570c-0.6-0.1-2.1-0.6-2.5-0.9 c-0.8-0.4-2.5-1.2-5.3-3.6c-0.8-0.6-1.5-1.5-2.1-2.4l0,0c-0.4-0.3-0.4-0.6-0.6-0.9c0.1,0,0.1,0,0.2,0c1.2,0.3,1.8,0.5,2.9,0.8 c0.2,0.3,0.8,1.4,1.7,2.3c-0.6-0.6-1.5-1.2-2.1-1.9c-0.3-0.2-0.4-0.4-0.6-0.6c-0.2,0.3-0.3,0.4-0.4,0.7c1.9,2.8,4,4.4,6.7,5.1 c0.2,0,0.3,0,0.4,0.1c0.2,0,0.4,0.1,0.4,0.1c0.5,0.2,0.8,0.3,1.3,0.5C622.1,569.6,621.9,569.8,621.9,570z"/>
    <path d="M624.2,570.2c-0.2,0-0.2,0-0.4-0.1c-0.4-0.1-0.8,0.1-1.1,0.6c0,0.2,0,0.2,0,0.5c0.2,0.5,0.8,0.9,1.1,1.2 c0,0,0.2,0,0.4,0.1l0,0c0.6,0.1,0.8-0.1,1.1-0.6C625.3,571.1,624.8,570.5,624.2,570.2z" fill="#009B3A"/>
    <path d="M625.3,569.8c-0.2,0-0.4-0.3-0.6-0.4l0,0l0,0l0,0c-0.8-0.4-1.9-0.3-2.3,0.9c0,0.2-0.2,0.5,0,0.7c0,0.1,0,0.1,0,0.2 c0.2,1,1.3,1.7,1.5,1.7c0,0,0.4,0.3,0.6,0.4c0.1,0,0.1,0,0.2,0c0.6,0.1,1.5,0,1.7-1.2l0,0C625.9,571.2,625.7,570.4,625.3,569.8z M625.1,571.8c0,0.5-0.2,0.7-1.1,0.6l0,0c-0.2,0-0.4-0.1-0.4-0.1c-0.2,0-0.8-0.6-1.1-1.2c0-0.2,0-0.2,0-0.5 c0.2-0.5,0.6-0.6,1.1-0.6c0.2,0,0.4,0.1,0.4,0.1C624.8,570.5,625.3,571.1,625.1,571.8z"/>
    <path d="M624.6,568.2c0,0.2,0.2,0.5,0.2,0.5c0.4,0.3,1.5,0.5,1.7,0.3c0.1-0.1,0.1-0.1,0.2-0.2c0,0,0.2-0.5,0-1.2 c0-0.2,0-0.2-0.2-0.5l0,0c-0.1-0.1-0.1-0.2-0.2-0.3c0,0.2,0,0.2,0,0.5c-0.2,0.5-0.6,0.4-0.6,0.4c-0.1,0-0.1,0-0.2,0 c-0.1-0.1-0.1-0.2-0.2-0.3c0-0.2-0.2-0.5-0.4-1.1c-0.1,0-0.1,0-0.2,0C624.6,566.5,624.6,567,624.6,568.2z" fill="#009B3A"/>
    <path d="M626.5,566.6L626.5,566.6l0.2,0.5C626.8,567.1,626.5,566.8,626.5,566.6z"/>
    <path d="M627,567.6l-0.2-0.3L627,567.6c0,1,0,1.2,0,1.5c-0.1,0.1-0.1,0.1-0.2,0.2c-0.2,0-1.3,0-1.7-0.3c-0.2,0-0.2-0.3-0.2-0.5 c-0.2-1.3,0-1.7,0.2-1.7c0,0,0,0,0.2,0c0-0.2-0.2-0.5-0.4-0.8c-0.1,0-0.1,0-0.2,0c0,0-0.2,0.2-0.2,0.5c0,0.1,0,0.1,0,0.2 c0.2,0.3,0.2,0.5,0.2,0.8c0,0.5-0.2,0.7-0.6,0.9c0,0.2,0,0.2,0,0.5c0,0.5,0.2,0.8,0.4,1.1l0,0l0,0c0.2,0.3,0.4,0.3,0.6,0.4 c0.2,0,0.4,0.1,0.6,0.1c0.6,0.1,1.1-0.1,1.3,0c0.2-0.1,0.3-0.1,0.4-0.2c0.2-0.2,0.4-0.4,0.2-2c0-0.1,0-0.1,0-0.2 C627.4,567.8,627.2,567.8,627,567.6z"/>
    <path d="M628.9,567.9C628.9,567.9,628.7,567.9,628.9,567.9L628.9,567.9L628.9,567.9L628.9,567.9L628.9,567.9L628.9,567.9 L628.9,567.9L628.9,567.9z"/>
    <path d="M627.8,565c0,0.5-0.2,1.2,0,1.5s0.6,0.6,0.9,0.6c0.1,0,0.1,0,0.2,0c0.2,0,0.4-0.7,0.6-1.1 c0.2-1.2-0.4-1.6-0.6-1.6c-0.2,0-0.2,0-0.4-0.1c-0.2,0-0.4-0.1-0.6,0.1C627.8,564.7,627.8,564.8,627.8,565z" fill="#009B3A"/>
    <path d="M627.6,567.5L627.6,567.5c0.4,0.3,0.6,0.4,1.1,0.7c0.1,0,0.1,0,0.2,0l0,0l0,0l0,0c0,0,0,0,0.2,0c0,0,0,0,0.2,0 c0.4-0.2,0.9-1.1,1.1-1.6c0-0.2,0-0.2,0-0.5c0-1.5-0.6-2.3-1.1-2.4c-0.6-0.4-1.3-0.2-1.7,0c-0.2,0-0.2,0.2-0.2,0.2 C627.6,565.2,627.6,567.2,627.6,567.5z M629.3,564.3c0,0,0.9,0.6,0.6,1.6c-0.2,0.5-0.6,1.1-0.6,1.1c-0.2,0-0.2,0-0.2,0 c-0.2,0-0.6-0.1-0.9-0.6c-0.2-0.3-0.2-1,0-1.5c0,0,0-0.5,0.4-0.7c0.2-0.2,0.4-0.2,0.6-0.1C628.9,564.2,629.1,564.2,629.3,564.3z"/>
    <path d="M621.2,558c0,0.2,0.2,0.8,1.1,1.9l0,0c0.2,0.3,1.5,2,1.9,2.8c0.2,0.5,1.3,3,1.3,3s-0.4-1.6-0.4-2.1 c-1.3-2.5-2.8-5.4-3.6-6.6c0.3-0.2,0.4-0.2,0.6-0.4c0.1,0.1,0.1,0.2,0.2,0.3c0.4,0.6,0.8,1.6,1.1,1.7c0.1,0.1,0.1,0.2,0.2,0.3 c0.6,0.9,1.3,2,1.9,3.3c0,0,0.2,0.5,0.4,1.3c0.4,0.6,0.6,1.4,1.1,1.9c0-0.7,0-1.2-0.2-1.8c-0.4-3.6-1.1-4.9-1.5-5.7 c-0.1-0.1-0.1-0.2-0.2-0.3c-0.4-1.1-1.7-2.3-2.5-2.7c-0.4-0.3-0.6-0.4-1.1-0.7c-0.6-0.4-1.3-0.7-2.1-1.4c0,0.2,0.2,0.3,0.2,0.5 c0.2,0.3,0.2,0.5,0.4,0.8C620.6,555.6,621.2,557,621.2,558z" fill="#009B3A"/>
    <path d="M620.8,558.9c0,0,0.8,1.6,2.1,3.1c1.1,1.2,1.9,2.6,1.9,3.3c0,0.1,0,0.1,0,0.2c-0.1,0-0.1,0-0.2,0c0.2,0.3,0.2,0.5,0.4,0.8 s0.2,0.8,0.4,1.1c0.1,0.1,0.1,0.2,0.2,0.3c0.1,0,0.1,0,0.2,0c0,0,0.4,0.1,0.6-0.4c0,0,0-0.2,0-0.5v-0.2c0,0,0.2,0.3,0.2,0.5l0,0 c0,0,0,0.2,0.2,0.3c0.3-0.1,0.4-0.1,0.6-0.1l0,0l0,0c0,0,0-2.2-0.2-3.8c0-0.1,0-0.1,0-0.2c-0.4-3.8-1.1-5.4-1.5-6 c0-0.1,0-0.1,0-0.2c-0.6-1.4-1.9-2.6-3-3.2c-0.2-0.3-0.6-0.4-1.1-0.7c-0.6-0.4-1.5-1-2.1-1.4c-0.2,0-0.6-0.4-1.1,0.1 c-0.2,0.5,0,1,0.4,1.8c0.2,0.3,0.2,0.5,0.4,0.8c0.4,1.1,1.1,2.4,1.1,3.4l0,0C620.6,558.1,620.6,558.3,620.8,558.9L620.8,558.9 L620.8,558.9z M619.6,552.9c0.6,0.4,1.5,0.7,2.1,1.4c0.4,0.3,0.6,0.4,1.1,0.7c0.8,0.4,2.1,1.6,2.5,2.7c0.1,0.1,0.1,0.2,0.2,0.3 c0.4,0.8,1.1,2.2,1.5,5.7c0,0.5,0.2,1.8,0.2,1.8s-0.6-1.4-1.1-1.9c-0.2-0.8-0.4-1.3-0.4-1.3c-0.4-1.3-1.1-2.2-1.9-3.3 c-0.1-0.1-0.1-0.2-0.2-0.3c-0.2,0-0.6-1.1-1.1-1.7c-0.1-0.1-0.1-0.2-0.2-0.3c-0.3,0.2-0.4,0.2-0.6,0.4c0.6,1.1,2.3,4.1,3.6,6.6 c0.2,0.8,0.4,1.6,0.4,2.1c-0.4-1.1-1.1-2.4-1.3-3c-0.4-0.8-1.7-2.5-1.9-2.8l0,0c-0.8-1.1-1.1-1.7-1.1-1.9c-0.2-1-0.6-2.3-1.1-3.7 c-0.2-0.3-0.2-0.5-0.4-0.8C619.8,553.2,619.6,553.2,619.6,552.9z"/>
    <path d="M617,564c0.8,1.1,1.5,1.7,3.6,2.6c1.9,0.6,2.3,0.6,2.5,0.7c0.2-0.2,0.4-0.4,0.6-0.4c-4.5-3-7.4-5.7-8.9-8.2 c-0.1-0.1-0.1-0.2-0.2-0.3c0.1-0.1,0.1-0.1,0.2-0.2c0.4-0.4,1,0.2,2.1,1.6c0.6,0.9,1.1,1.4,1.5,2c1.1,1.2,1.7,1.5,2.5,2.2 c0.3,0.2,0.4,0.4,0.6,0.6c0.4,0.3,1.5,1,2.1,1.1c0-0.2,0.2-0.2,0.2-0.5c-0.2-0.3-0.6-1.1-1.5-2.2c-1.1-1.2-1.9-2.6-2.1-3.1 c-0.4-0.1-1.9-0.8-3.6-1.4c-0.8-0.4-1.9-1.3-2.7-2c-0.2-0.3-0.6-0.4-0.8-0.6c0.2,1,0.4,2.6,1,3.7c0.1,0.1,0.1,0.2,0.2,0.3 c0.6,1.4,1.3,2.7,2.3,3.9C616.9,563.8,616.9,563.8,617,564z" fill="#009B3A"/>
    <path d="M620.6,567.3c0.2,0,0.4,0.1,0.6,0.1c0.8,0.4,1.3,0.5,1.7,0.5c0.1,0,0.1,0,0.2,0c0.4,0.1,0.4,0.1,0.4,0.1s0.2-0.2,0.4-0.2 c0.2-0.2,0.4-0.4,0.6-0.9c0-0.2,0-0.5-0.2-0.8c0-0.1,0-0.1,0-0.2c0-0.2,0.2-0.5,0.2-0.5c0.1,0,0.1,0,0.2,0c0.1,0,0.1,0,0.2,0 c0-0.1,0-0.1,0-0.2c0.2-0.7-0.8-2.1-1.9-3.3c-1.3-1.5-2.1-3.1-2.1-3.1c0-0.1,0-0.1,0-0.2l0,0c-0.1,0-0.1,0-0.2,0 c0,0-1.9-0.8-3.8-1.4c-0.6-0.4-1.7-1-2.5-1.9c-1-0.9-1.5-1.3-1.9-1.1c-0.1,0.1-0.1,0.1-0.2,0.2c0,0.1,0,0.1,0,0.2 c0,0.7,0.4,3.1,1.3,4.7c0.1,0.1,0.1,0.2,0.2,0.3c0.6,1.4,1.5,2.7,2.5,4.2c0.2,0.2,0.3,0.3,0.4,0.6c0,0,0.2,0,0.2,0.3 C617.7,565.8,618.5,566.7,620.6,567.3z M614.3,559.5c-0.1-0.1-0.1-0.2-0.2-0.3c-0.6-1.1-0.8-2.6-1-3.7c0.2,0.3,0.6,0.4,0.8,0.6 c0.8,0.6,1.9,1.6,2.7,2c1.7,0.5,3.2,1.3,3.6,1.4c0.2,0.5,1.1,1.9,2.1,3.1c1.1,1.2,1.3,1.7,1.5,2.2c-0.2,0-0.2,0.2-0.2,0.5 c-0.6-0.4-1.7-0.8-2.1-1.1c-0.3-0.2-0.4-0.4-0.6-0.6c-0.8-0.6-1.5-1.2-2.5-2.2c-0.4-0.6-0.8-0.9-1.5-2c-1.1-1.4-1.7-1.8-2.1-1.6 c-0.1,0.1-0.1,0.1-0.2,0.2c0.1,0.1,0.1,0.2,0.2,0.3c1.5,2.5,4.4,5.2,8.8,8.2c0,0-0.2,0.2-0.6,0.4c0,0-0.4-0.1-2.5-0.7 c-2.1-0.6-2.7-1.5-3.6-2.6c-0.2-0.2-0.3-0.3-0.4-0.6C615.8,562.3,615.1,560.9,614.3,559.5z"/>
    <path d="M587.9,649.8L587.9,649.8c1.6,0.3,3.4,1.1,3.6,1.6c2.7-1,4-1.5,6.6-2.6c-0.6-0.4-1.2-0.7-2-1.4 C594.4,648,588.1,649.9,587.9,649.8L587.9,649.8z" fill="#009B3A"/>
    <path d="M591,652.4L591,652.4C591.2,652.4,591,652.4,591,652.4L591,652.4z"/>
    <path d="M598.2,648.7c-2.6,1-4,1.5-6.6,2.6l0,0c0.2,0.3,0.2,0.5,0,0.7c0,0-0.2,0.2-0.4,0.2c3.2-1.2,4.7-1.9,7.8-3.1l0,0 C599,649.3,598.6,649,598.2,648.7z"/>
    <path d="M587.9,649.8L587.9,649.8L587.9,649.8c0.2-0.2,6.5-1.9,8.5-2.5c-0.4-0.3-0.6-0.4-1-0.7c-2.4,0.6-7.3,2-7.5,2.2 c-0.9,0.2-1.3,0.4-2.2,0.6l0,0C586.3,649.6,587.1,649.7,587.9,649.8z"/>
    <path d="M590.8,651.6c-1-0.7-4.1-1.5-4.9-1.1c0.2,0.3,0.4,0.3,2,0.9C589.4,651.8,590.4,651.8,590.8,651.6z" fill="#009B3A"/>
    <path d="M591.6,651.5L591.6,651.5c-0.4-0.6-2-1.1-3.6-1.6c-0.8-0.1-1.6-0.3-2.2-0.1c-0.2,0-0.4,0.2-0.4,0.2 c-0.2,0.2-0.2,0.5-0.2,0.5c0,0.2,0.2,0.3,0.2,0.5c0.1,0,0.1,0,0.2,0c0.4,0.3,0.6,0.6,2.2,1.1c0.4,0.1,0.8,0.1,1.2,0.2 c1,0.2,1.6,0,2.2-0.1l0,0c0.1,0,0.1,0,0.2,0c0.2,0,0.2-0.2,0.4-0.2C591.8,652,591.8,651.5,591.6,651.5z M587.9,651.3 c-1.6-0.5-1.6-0.5-2-0.9c1-0.3,3.9,0.4,4.9,1.1C590.4,651.8,589.4,651.8,587.9,651.3z"/>
    <path d="M571,601.6c0-0.2-0.2-0.5-0.2-0.5s0-0.2,0-0.5c-0.4,0.4-0.4,2.2-0.4,3.7c0,0.3,0,0.4,0,0.7 c-0.6,4.9,0.4,9.8,2.1,13.6c0.8,1.9,1.7,3.3,2.5,4.4c0-0.1,0-0.1,0-0.2c-1.7-2.8-2.9-6-2.5-8.9c0,0,0,0,0-0.2c0,0,0-0.7,0-1.2 c-0.1-0.3-0.1-0.5-0.2-0.8C572.1,608,571.7,602.9,571,601.6z" fill="#009B3A"/>
    <path d="M570.8,613.8c0.4,1.8,0.8,3.4,1.5,4.7c-1.5-3.7-2.7-8.4-2.1-13.6c0-0.3,0-0.4,0-0.7c0-1.2,0.2-3.2,0.4-3.7c0,0,0,0.2,0,0.5 c0,0.2,0,0.2,0.2,0.5c0.4,1.1,1,6.4,1.2,9.7c0.1,0.3,0.1,0.5,0.2,0.8c0-2,0.2-5.2,0.2-5.5c-0.1-1.1-0.1-1.7-0.2-2.8 c0-0.2-0.2-1-0.2-2c0-0.2-0.2-0.5-0.2-0.5c0-0.1,0-0.1,0-0.2c0-0.5-0.2-1.3-0.8-1.4c-0.2,0-0.4-0.1-0.6,0.1 c-0.2,0.2-0.4,0.4-0.4,0.9C569.4,603.8,569.8,608.9,570.8,613.8z"/>
    <path d="M575.8,624.1c-0.4-0.6-0.6-1.1-1-1.7c0,0.1,0,0.1,0,0.2C575.2,623.5,575.4,623.8,575.8,624.1z"/>
    <path d="M615.1,655.4c-0.6-0.4-1.5-0.5-1.7-0.5s-1.7,0.2-2.1,0.6c0,0.1,0,0.1,0,0.2l0,0c0,0,0,0,0.2,0l0,0 c0,0,0.4,0.3,0.8,0.4c0.4,0.1,0.8,0.4,1.9,0.6s1.7-0.2,1.9-0.4C615.9,656,615.5,655.4,615.1,655.4z" fill="#009B3A"/>
    <path d="M613.6,653.9c-0.2,0-0.2,0-0.4-0.1c-0.4-0.1-2.1,0.1-2.5,0.8c-0.1,0.1-0.1,0.1-0.2,0.2c-0.2,0.2,0,0.5,0,0.7 s0.2,0.3,0.2,0.5c0.1,0.1,0.1,0.2,0.2,0.3c0.1,0,0.1,0,0.2,0l0,0c0,0,0.4,0.3,0.8,0.4c0.4,0.3,1,0.4,2.1,0.6 c1.3,0.2,2.3-0.4,2.7-0.8c0.2-0.2,0.2-0.5,0-0.7c-0.2-0.3-0.4-0.8-0.8-1.1c-0.2-0.3-0.6-0.4-0.8-0.6 C614.7,654,614.1,653.9,613.6,653.9z M614.1,656.4c-1-0.2-1.5-0.3-1.9-0.6s-0.8-0.4-0.8-0.4l0,0c-0.1,0-0.1,0-0.2,0l0,0 c0,0,0,0,0-0.2c0.4-0.4,1.7-0.7,2.1-0.6c0.2,0,1,0.2,1.7,0.5c0.4,0.3,0.8,0.6,1,0.9C615.7,656.5,615.1,656.6,614.1,656.4z"/>
    <path d="M558.2,586.7c0.9,2.1,2.5,8.1,2.5,8.4c0.4,1.6,0.6,2.3,1.1,3.9c0.4,0.3,2.1,1.8,3,3.2 c1.7,2.5,3.2,5.5,4.2,9.2c0.2,1,0.8,1.9,1,2.7c0,0,0,0,0-0.2c-1.3-6.4-1.5-12.7-0.4-15.3c0.6-1.6,2.7-7.3,1.9-12.4c0,0,0-0.2,0-0.5 c0-0.1,0-0.1,0-0.2c0,0.2,0,0.2-0.2,0.5c-0.2,0.7-0.4,1.7-0.6,2.1s-0.4,0.9-0.6,1.4c-0.2,0.5-0.4,1.2-0.6,1.4 c-0.2,0.5-0.4,0.7-0.6,1.4c-0.6,1.1-1.7,3-1.5,5.7c0.4,4.3,0.6,5.3,1,6.7c0,0.1,0,0.1,0,0.2c0.6,2.1,0.4,2.6,0.2,2.8 c-0.1,0-0.1,0-0.2,0c-0.1,0-0.1,0-0.2,0c0,0-0.4-0.3-1.3-2.2c-0.2-0.3-3.8-9.4-1.5-16s8-12.1,8.2-12.4c0,0,4.4-3.5,5.4-4.6 c-3.7,0.6-9.8,3.1-12.3,12.6c0,0.2-0.2,0.5-0.4,0.7c-0.2,0-0.2,0-0.4-0.1c-0.2,0-0.2-0.3-0.2-0.3c0-0.2,0-0.7,0.2-0.7 c0.2-0.7,2.1-8.9,7.6-12c4.2-2.5,5.2-2.9,6-3.2c0.4-0.2,0.6-0.4,1.2-0.8c1-0.6,2.1-1.6,3.7-4.1c0,0,0-0.2,0.2-0.2 c-0.6,0.9-2,2.4-3.7,2.9c-0.8,0.4-1.6,0.2-2.5,0.1c-1.4-0.2-2.9-0.2-4.4,1.5c-2.5,2.8-4.6,7.2-4.6,7.2c-0.8,1.4-1.1,1.3-1.3,1.3 s-0.2-0.3-0.2-0.3c-0.2-0.5,0-1,0.2-1.5s3.6-8.1,6.3-9.7c3.3-1.4,5.4-2.8,6.6-3.9c1.6-1.2,4.1-4,5.5-5.8c0.2-0.2,0.4-0.7,0.6-0.9 c0.1-0.1,0.1-0.1,0.2-0.2c0.6-0.6,1.8-1.9,2-2.4c0.1-0.1,0.1-0.1,0.2-0.2c-0.2,0.2-0.6,0.1-1,0.3c-0.2,0-9,1.4-14.4,10.5 c-0.2,0.5-0.8,1.4-1.3,1.8c-0.1,0.1-0.1,0.1-0.2,0.2c0,0.2-0.2,0.2-0.2,0.5c-0.2,0.5-0.4,1.2-0.4,1.2c-0.1,0.2-0.1,0.3-0.2,0.5 c-0.2-0.1-0.3-0.2-0.4-0.3c-0.2-0.3-0.4-0.3,0.4-1.7c0.1-0.1,0.1-0.1,0.2-0.2c0.4-0.9,1.3-2,2.5-3.6c0.3-1.3,0.4-1.9,0.6-3.1 c0-0.2,1-4.8,3.1-8.2c-2.5,2.3-6.7,6.9-6.7,13.3c0,1.7-0.8,3.4-2.1,5.1c-1.3,2-1.9,3.4-2.3,6.8c-0.4,2.2-0.6,3.9-0.8,4.4 c0,0.5,0,1.2-0.2,1.5c-0.2,0-0.2,0.2-0.4-0.1c-0.6-0.4-0.4-1.3-0.4-1.6c0-0.2,0.8-6.8,1.5-8.7c0.4-1.7,0.8-2.9,1.1-3.1 c0-0.7-0.2-5.3,0.6-7.9c0.6-1.6,1.7-3.5,2.5-4.6c0.4-0.7,0.6-1.1,0.8-1.4c0.4-0.9,0.6-1.9,1-2.8c-0.6,1.1-1,1.8-1.9,2.7 c-0.4,0.4-0.6,0.9-1,1.6l0,0c0,0-3.8,2.9-5.3,12.3c0,0,0,3.7-0.6,9.6c-0.4,4.2,0,8.2,0.4,10.8c0,0.2,0,0.5,0.2,0.5 c0,0.2,0,0.2,0.2,0.5c0,0.2,0.2,0.3,0.2,0.3c0,0.2,0.2,0.3,0.2,0.5s-0.2,0.2-0.2,0.2c-0.1,0-0.1,0-0.2,0s-0.1,0-0.2,0 c-0.1,0-0.1,0-0.2,0c0-0.1,0-0.1,0-0.2c0-0.2,0-0.2,0-0.5c0,0,0-0.2-0.2-0.5l0,0c-0.4-1.3-1.1-3.4-1.1-6.7c0-5.2,0.4-9.4,0.4-9.4 s0.2-6-1.5-10.2c0,0.5,0.2,1,0.2,1.3c0.4,2.3-0.2,5-0.4,6.4c0,0.2,0,0.5,0,0.5c0,0.2-0.2,0.7-0.4,1.2c-0.6,2.1-1.7,6.5-1.1,10.6 c0,0,1.5,8,3.4,12.8c0.2,0.5,0.4,0.8,0.6,1.1c0.6,1.1,0.6,1.1,0.4,1.3c-0.2,0.2-0.2,0.2-1.1-1.2c-0.2-0.3-0.2-0.8-0.4-1.1 c-1.1-2.2-2.3-6.1-3.2-8.8c0-0.1,0-0.1,0-0.2c-0.2-0.8-1.9-5.3-3.6-7.1c-0.6-0.9-2.1-2.1-2.8-2.7c0.4,1.1,1.1,2.2,1.5,3.2 c0.2,0.3,0.4,0.8,0.4,1.1C556.7,583,557.7,585.4,558.2,586.7z" fill="#009B3A"/>
    <path d="M603.3,650.1c0,0-0.2-0.5-0.6-0.9c-0.2-0.3-2.9-2-5.1-3.9c-3.4-2.6-7.2-6.3-10.1-11.7 c-3.3-6.5-6.3-10.6-7.2-11.5c-0.2,0-0.2-0.3-0.4-0.3s-0.2-0.3-0.4-0.3l0,0c-0.2,0.2,0,0.2,0.2,0.8s0.8,1.6,1.2,2.5 c0.6,1.4,1.4,2.7,1.8,3.6c0.4,1.1,1,2.2,1.6,3.3c1,1.9,1.8,3.3,1.8,4.6c0,0.1,0,0.1,0,0.2c-0.1,0.1-0.1,0.1-0.2,0.2 c0,0-0.2,0.2-1-0.4c-0.2,0-5.3-3.2-7.6-11.5c-1-4.2-1-6.2-1.2-7.9c0-0.7,0-1.5-0.2-2.5c-0.6-5.1-0.6-5.3-2.7-11.4 c0-0.2-0.6-1.1-0.8-1.6c0,0.7,0.2,1.8,0.2,2.5c0.1,1.2,0.1,1.8,0.2,3c0,2.2-0.2,6.4-0.2,6.7c0,0.1,0,0.1,0,0.2 c-0.6,3.6,2.1,8.3,4.4,11.5l0,0c0,0.1,0,0.1,0,0.2c0,0.2,0,0.7-0.4,0.9s-0.8-0.4-0.8-0.6c0,0-0.2-0.3-0.4-0.6c-1-1.4-3.5-4.6-5-9.1 l0,0c-0.2,0-0.6-0.4-1.7-2.3c-0.4-0.8-0.6-1.9-1-2.9c-0.8-2.6-2.1-5.8-4-8.6c-1.7-2.3-5.3-5.1-7-6.1c1.1,2.2,3.4,7.5,4.3,8.7 c1.1,1.7,2.3,3.6,3.4,5c0.4,0.8,0.8,1.4,1.1,1.7c0.6,0.9,4,6.6,4.6,7.5c0.6,1.1,1,1.7,1.5,2.2c0.1,0.1,0.1,0.2,0.2,0.3 c0.6,0.9,1.7,2,2.7,2.9c0.8,0.9,1,1.2,1.2,1.5c0,0.1,0,0.1,0,0.2c0,0.1,0,0.1,0,0.2c0,0.1,0,0.1,0,0.2c-0.1,0-0.1,0-0.2,0 c-0.2,0-0.2-0.3-0.2-0.3c-0.6-0.6-1.5-1.5-2.3-2.1c-0.6-0.6-1.3-1.2-1.9-1.8c-0.2-0.3-0.6-0.6-1.3-1c-2.3-1.9-6.7-5.6-10.1-11.4 c-0.2-0.5-0.9-1.6-1.1-2.2c0.2,2.3,3.4,12.5,8.9,16.7c0.2,0.3,6.9,4.9,8.6,6.2c0.2,0.3,0.6,0.6,1,0.9c0.8,0.6,1.7,1.3,2.3,1.9 c0.2,0.3,0.2,0.5,0.2,0.8c-0.2,0.5-0.8,0.1-0.8,0.1c-2.9-0.7-8.5-2.2-11.9-5c0.1,0.1,0.1,0.2,0.2,0.3c1.1,1.7,2.7,4.4,5.5,6.4 c3.1,2.3,8.1,4.1,9.7,4.4c0.4,0.1,1.2,0.2,2.3,0.4c3.3,0.6,6.1,1.3,6.9,1.7c0.6,0.4,1.4,1,2,1.6c0.8,0.6,1.6,1.3,2,1.6 c1,0.7,3.8,2.4,4,2.5c0,0,1,0.7,1.4,1C601.2,649.9,603.1,650.3,603.3,650.1z" fill="#009B3A"/>
    <path d="M603.1,648.8L603.1,648.8c0,0-2.5-1.7-4.7-3.6c-0.2,0-0.4-0.3-0.4-0.3c-3.4-2.6-7.2-6-9.9-11.5c-3.5-6.6-6.3-10.6-7.4-11.5 c-0.2,0-0.2-0.3-0.4-0.3c-0.4-0.3-0.6-0.6-0.8-0.6s-0.4,0.2-0.4,0.4c-0.4,0.4-0.2,1.2,0.2,1.8s0.8,1.6,1.4,2.5 c0.6,1.4,1.4,2.5,1.8,3.6c0.4,1.1,1,2.2,1.6,3.3c0.6,1.4,1.4,2.7,1.6,3.8c-0.1,0-0.1,0-0.2,0c0,0-5.1-3.1-7.2-11 c-1-3.9-1-5.9-1-7.7c0-0.7,0-1.7-0.2-2.5c-0.6-5.1-0.6-5.6-2.9-11.7c0,0-1-2.4-1.7-2.5l0,0c-0.2,0-0.2,0.2-0.4,0.2 c0,0.2,0,0.7,0,1.5s0.2,1.8,0.2,2c0.1,1.1,0.1,1.7,0.2,2.8c0,0.2,0,3.5-0.2,5.5c0,0.7,0,1.2,0,1.2s0,0,0,0.2 c-0.4,2.9,0.8,6.1,2.5,8.9c0.4,0.6,1,1.7,1,1.7s-0.6-0.9-0.8-1.1c-0.8-1.1-1.7-2.5-2.5-4.4c-0.6-1.4-1.3-3-1.5-4.7 c-1-4.9-1.3-9.9-1-12.9c0-0.7,0.2-1.5,0.4-1.9c0.6-1.6,2.7-7.3,1.9-12.9c0-0.1,0-0.1,0-0.2c-0.2-1-0.2-1.5-0.6-1.9 c0,0-0.2,0-0.4,0.2c0,0.2-0.2,0.5-0.4,1.4c-0.2,0.7-0.4,1.7-0.6,2.1c-0.2,0.4-0.4,0.9-0.6,1.4c-0.2,0.5-0.6,1.1-0.6,1.6 c0,0.2-0.2,0.7-0.6,1.1c-0.6,1.1-1.7,3.2-1.5,6.2c0.4,4.6,0.6,5.3,1,6.9c0,0.1,0,0.1,0,0.2c0.2,0.5,0.2,0.8,0.2,1.3 c-0.2-0.3-0.2-0.8-0.4-1.1c0,0-3.6-9.1-1.5-15.5c2.3-6.4,8-11.9,8-11.9c0.2-0.2,4.6-3.7,5.6-4.8c0.4-0.4,0.4-0.7,0.2-1 c0-0.2-0.2-0.3-0.4-0.3c-0.1,0-0.1,0-0.2,0c-2.7,0.3-7.3,1.8-10.4,6.5c1.1-2.1,2.7-3.8,4.6-5c4.2-2.5,5.2-2.9,6-3.2 c0.4-0.2,0.6-0.4,1.2-0.8c1-0.6,2.3-1.6,3.9-4.3c0,0,0.8-1.9,0.6-2.4c0-0.2-0.2-0.3-0.4-0.3l0,0c-0.4-0.1-0.6,0.6-0.6,0.6 c-0.2,0.2-1.8,2.7-3.9,3.3c-0.8,0.1-1.6,0.2-2.5,0.1c-1.4-0.2-3.1-0.3-5,1.7c-2.5,3.1-4.6,7.5-4.6,7.5s0,0.2-0.2,0.2 c0.2-0.7,3.6-8.1,6.1-9.2c3.3-1.4,5.4-2.8,6.8-3.8c1.6-1.2,4.1-4,5.5-5.8c0.2-0.2,0.4-0.7,0.6-0.9c0.1-0.1,0.1-0.1,0.2-0.2 c1-1.1,1.8-1.9,2-2.4c0-0.2,0.2-0.2,0.4-0.4s0.4-0.4,0.4-0.7c0-0.1,0-0.1,0-0.2c-0.1,0-0.1,0-0.2,0c-0.2,0-0.4-0.3-2,0.4 c0,0-7.1,1.3-12.7,8c0.2-0.8,0.2-1.2,0.4-1.9c0,0,1-5.1,3.1-8.2c0-0.2,0.4-0.7,0.8-1.1c0.4-0.4,0.8-0.9,0.8-0.9s0.2-0.5,0-0.7 c-0.2-0.3-0.4-0.1-0.8,0.1c-0.1,0-0.1,0-0.2,0l0,0l0,0c-0.4,0.2-8.5,6-8.5,15.3c0,1.5-0.8,2.9-1.9,4.7c-1.5,2.2-1.9,3.4-2.5,7.1 c0,0.2-0.2,0.7-0.2,1c0.2-2,0.6-4.1,1.1-5.1c0.6-1.9,1.1-3.3,1.1-3.3l0,0l0,0c0,0-0.4-5.1,0.6-7.6c0.6-1.4,1.7-3.5,2.3-4.6 c0.4-0.7,0.6-1.1,0.8-1.4c0.6-1.6,1.3-3.5,1.5-5c0-0.5-0.2-0.5-0.2-0.5c-0.2,0-0.4-0.1-0.8,1.1c-0.6,1.6-1.3,2.3-2.1,3.4 c-0.4,0.4-0.6,0.9-1,1.6c-0.4,0.4-4,3.3-5.5,12.8c0,0,0,0.7,0,2c-0.2-3-0.8-7.1-2.7-9.9c-0.1-0.1-0.1-0.2-0.2-0.3 c-0.1,0.1-0.1,0.1-0.2,0.2c-0.2,0.2-0.2,0.2,0,1s0.4,1.8,0.6,3.1c0.2,2-0.2,4.7-0.4,6.2c0,0.2,0,0.5,0,0.5c0,0.2-0.2,0.7-0.2,1.2 c-0.6,2.1-1.7,6.5-1.3,10.8c0,0.2,0.4,2.1,0.8,4.4c0-0.1,0-0.1,0-0.2c0-0.1,0-0.1,0-0.2c-0.2-0.5-1.9-5.3-3.6-7.3 c-0.9-1.1-3.2-3-3.2-3c-0.6-0.6-0.9-0.6-1.1-0.4c-0.2,0.2,0,0.7,0.4,1.3c0.6,1.1,1.3,2.5,1.7,3.5c0.2,0.3,0.4,0.8,0.4,1.1 c1.3,2.7,2.3,5.1,2.8,6.4c0.9,2.1,2.5,8.4,2.5,8.4c0.3,1.2,0.5,1.7,0.8,2.9c-2.3-1.9-4.7-3.5-4.7-3.5c-0.3-0.3-0.5-0.4-0.9-0.6 c0.2,0.4,0.3,0.6,0.4,1.1c0.2,0.3,3.8,8.4,4.7,10c1.1,1.7,2.3,3.6,3.4,5c0.4,0.8,0.8,1.4,1.1,1.7c0.6,0.9,4,6.6,4.6,7.5 c0.4,0.6,0.6,1.1,1,1.4c-0.2,0-0.2-0.3-0.4-0.3c-2.3-1.9-6.7-5.6-9.7-11.1c-1.1-2.2-1.5-3.2-2.1-2.8c-0.2,0.2-0.2,0.5-0.2,0.5 c0,1.7,3.2,13.2,9.3,18c0,0,6.9,4.9,8.4,6.1c0.2,0.3,0.6,0.6,1.2,1c0.6,0.6,1.2,1,1.9,1.6c-3.1-0.8-8.7-2.2-11.9-5 c-0.6-0.6-0.8-0.6-1.1-0.4c-0.2,0.2,0,0.7,0.4,1.3c0.2,0.3,0.2,0.5,0.4,0.8c1.1,1.7,2.7,4.4,5.7,6.7c3.5,2.3,8.3,4.1,9.9,4.7 c0.4,0.1,1.2,0.2,2.3,0.4c2.2,0.4,5.9,1.3,6.7,1.7c0.6,0.4,1.2,1,2,1.6s1.6,1.3,2.2,1.6c0,0,0.2,0,0.4,0.3c0.2,0,0.6,0.4,1,0.7 c0.6,0.4,1.4,1,2,1.4c0.4,0.3,0.8,0.4,0.8,0.4l0,0c0.2,0,1,0.7,1.4,1c0.2,0.3,0.8,0.4,1.4,0.5c0.6,0.1,1.4,0.3,1.6,0 c0,0,0,0,0.2-0.2c0.1-0.1,0.1-0.1,0.2-0.2C604.1,649.7,603.3,648.8,603.1,648.8z M600.6,649.6c-0.4-0.3-1.4-1-1.4-1 c-0.2,0-3-2-4-2.5c-0.6-0.4-1.2-1-2-1.6s-1.4-1.2-2-1.6c-0.8-0.4-3.6-1.1-6.9-1.7c-1-0.2-1.6-0.3-2.3-0.4c-1.9-0.3-6.6-2.4-9.7-4.4 c-2.7-1.9-4.4-4.7-5.5-6.4c-0.1-0.1-0.1-0.2-0.2-0.3c3.6,2.8,9,4.2,11.9,5c0,0,0.8,0.1,0.8-0.1c0-0.2,0-0.5-0.2-0.8 c-0.6-0.6-1.4-1.2-2.3-1.9c-0.4-0.3-0.8-0.6-1-0.9c-1.5-1.2-8.2-6.1-8.6-6.2c-5.5-4.1-8.5-14.4-8.9-16.7c0.4,0.6,0.9,1.6,1.1,2.2 c3.2,5.8,7.6,9.5,10.1,11.4c0.4,0.3,0.8,0.6,1.3,1c0.6,0.6,1.3,1.2,1.9,1.8c0.8,0.9,1.5,1.5,2.3,2.1c0,0.2,0.2,0.3,0.2,0.3 c0.1,0,0.1,0,0.2,0c0-0.1,0-0.1,0-0.2c0-0.1,0-0.1,0-0.2c0-0.1,0-0.1,0-0.2c0-0.2-0.4-0.6-1.2-1.5s-2.1-2.1-2.7-2.9 c-0.1-0.1-0.1-0.2-0.2-0.3c-0.4-0.6-0.8-1.1-1.5-2.2c-0.4-0.8-4-6.6-4.6-7.5c-0.2-0.3-0.6-0.9-1.1-1.7c-1.1-1.4-2.3-3.6-3.4-5 c-0.6-1.1-3.2-6.5-4.3-8.7c1.7,1.3,5.5,3.9,7,6.1c1.9,2.8,3.2,6,4,8.6c0.4,1.1,0.6,2.1,1,2.9c0.8,1.9,1.3,2.2,1.7,2.3l0,0 c1.5,4.5,4,7.9,5,9.1c0.2,0.3,0.2,0.3,0.4,0.6s0.6,0.9,0.8,0.6c0.4-0.2,0.4-0.7,0.4-0.9c0-0.1,0-0.1,0-0.2l0,0 c-2.3-3.1-5-7.6-4.4-11.5c0-0.2,0-0.2,0-0.2c0-0.2,0.2-4.5,0.2-6.7c-0.1-1.2-0.1-1.8-0.2-3c-0.2-0.8-0.2-2-0.2-2.5 c0.4,0.6,0.8,1.4,0.8,1.6c2.1,6.1,2.3,6.4,2.7,11.4c0.2,0.8,0.2,1.8,0.2,2.5c0,1.7,0,3.7,1.2,7.9c2.3,8.4,7.4,11.5,7.6,11.5 c0.6,0.6,0.8,0.4,1,0.4c0.1-0.1,0.1-0.1,0.2-0.2c0-0.1,0-0.1,0-0.2c0-1.2-0.8-2.6-1.8-4.6c-0.6-1.1-1.2-2.2-1.6-3.3 c-0.4-0.8-1-2.2-1.8-3.6c-0.6-1.1-1-1.9-1.2-2.5c-0.2-0.5-0.2-0.5-0.2-0.8l0,0c0,0,0.2,0.3,0.4,0.3c0,0,0.2,0.3,0.4,0.3 c0.8,0.9,3.9,4.9,7.2,11.5c2.8,5.5,6.7,8.9,10.1,11.7c2.4,1.9,4.8,3.6,5,3.9s0.6,0.9,0.6,0.9S601.2,649.9,600.6,649.6z M553.2,576 c0.6,0.6,2.1,1.8,2.8,2.7c1.5,2,3.2,6.3,3.6,7.1c0,0.1,0,0.1,0,0.2c0.8,2.4,2.1,6.3,3.2,8.8c0.2,0.3,0.2,0.8,0.4,1.1 c0.8,1.1,0.8,1.4,1.1,1.2c0.2-0.2,0.2-0.2-0.4-1.3c-0.2-0.3-0.4-0.6-0.6-1.1c-1.9-4.8-3.4-12.5-3.4-12.8c-0.6-4.1,0.6-8.4,1.1-10.6 c0.2-0.7,0.2-1,0.4-1.2c0-0.2,0-0.2,0-0.5c0.2-1.5,0.6-4.1,0.4-6.4c0-0.5-0.2-1-0.2-1.3c1.7,4.3,1.5,10.2,1.5,10.2 s-0.4,4.2-0.4,9.4c0,3.2,0.6,5.3,1.1,6.7l0,0c0,0.2,0,0.2,0.2,0.5c0,0.2,0,0.2,0,0.5c0,0.1,0,0.1,0,0.2c0.1,0,0.1,0,0.2,0 s0.1,0,0.2,0c0.1,0,0.1,0,0.2,0c0.1-0.1,0.1-0.1,0.2-0.2c0-0.2,0-0.2-0.2-0.5c0,0,0-0.2-0.2-0.3c0,0,0-0.2-0.2-0.5 c0-0.2,0-0.2-0.2-0.5c-0.4-2.3-0.6-6.6-0.4-10.8c0.4-5.7,0.6-9.6,0.6-9.6c1.5-9.5,5.3-12.3,5.3-12.3l0,0c0.4-0.7,0.8-1.1,1-1.6 c0.6-0.9,1.3-1.5,1.9-2.7c-0.2,1-0.6,1.9-1,2.8c0,0.2-0.4,0.7-0.8,1.4c-0.8,1.1-1.9,3.2-2.5,4.6c-0.8,2.6-0.6,7.1-0.6,7.9 c0,0.2-0.4,1.4-1.1,3.1c-0.6,1.9-1.5,8.5-1.5,8.7s-0.2,1.5,0.4,1.6c0.2,0,0.2,0,0.4,0.1c0.2-0.2,0.2-1,0.2-1.5 c0-0.2,0.4-1.9,0.8-4.4c0.6-3.4,1.1-4.8,2.3-6.8c1.3-1.8,2.1-3.1,2.1-5.1c0-6.2,4.2-11,6.7-13.3c-2.1,3.4-3.1,8-3.1,8.2 c-0.3,1.3-0.4,1.9-0.6,3.1c-1.2,1.8-2.1,2.9-2.5,3.6c-0.1,0.1-0.1,0.1-0.2,0.2c-0.8,1.4-0.6,1.6-0.4,1.7c0.2,0.1,0.3,0.2,0.4,0.3 c0.1-0.2,0.1-0.3,0.2-0.5c0,0,0.2-0.5,0.4-1.2c0-0.2,0.2-0.2,0.2-0.5c0.1-0.1,0.1-0.1,0.2-0.2c0.4-0.4,1-1.3,1.3-1.8 c5.4-9.1,14.2-10.5,14.4-10.5c0.4-0.2,0.6-0.1,1-0.3c-0.1,0.1-0.1,0.1-0.2,0.2c-0.2,0.5-1.4,1.7-2,2.4c-0.1,0.1-0.1,0.1-0.2,0.2 c-0.2,0.2-0.4,0.4-0.6,0.9c-1.4,1.7-3.9,4.6-5.5,5.8c-1.2,1-3.5,2.1-6.6,3.9c-2.7,1.3-6.3,9.2-6.3,9.7c-0.2,0.5-0.4,1.2-0.2,1.5 c0,0.2,0.2,0.3,0.2,0.3c0.2,0,0.4,0.1,1.3-1.3c0,0,2.1-4.4,4.6-7.2c1.7-1.7,2.9-1.8,4.4-1.5c0.8,0.1,1.7,0,2.5-0.1 c1.6-0.5,3.1-1.7,3.7-2.9c0,0,0,0.2-0.2,0.2c-1.4,2.7-2.7,3.5-3.7,4.1c-0.6,0.4-0.8,0.6-1.2,0.8c-0.8,0.4-1.6,1-6,3.2 c-5.4,3.1-7.4,11.3-7.6,12c0,0.2-0.2,0.5-0.2,0.7s0.2,0.3,0.2,0.3c0.2,0,0.2,0,0.4,0.1c0.2-0.2,0.4-0.4,0.4-0.7 c2.5-9.6,8.6-12,12.3-12.7c-1.2,1-5.4,4.6-5.4,4.6s-5.9,5.8-8.2,12.4c-2.3,6.6,1.3,15.7,1.5,16c0.8,1.9,1.1,2.2,1.3,2.2 c0.1,0,0.1,0,0.2,0c0.1,0,0.1,0,0.2,0c0.4-0.2,0.4-0.7-0.2-2.8c0-0.1,0-0.1,0-0.2c-0.4-1.6-0.6-2.3-1-6.7c-0.2-2.8,0.6-4.6,1.5-5.7 c0.2-0.5,0.4-0.9,0.6-1.4c0.2-0.5,0.4-0.9,0.6-1.4c0.2-0.5,0.4-0.9,0.6-1.4c0.2-0.5,0.4-1.4,0.6-2.1c0-0.2,0-0.2,0.2-0.5 c0,0.2,0,0.2,0,0.2c0,0.2,0,0.2,0,0.5c0.8,5.4-1.3,11-1.9,12.4c-1.1,2.6-0.8,8.8,0.4,15.3c0,0,0,0,0,0.2c-0.4-0.8-0.8-1.6-1-2.7 c-1-3.4-2.5-6.7-4.2-9.2c-1.1-1.4-2.5-2.9-3-3.2c-0.4-1.6-0.6-2.3-1.1-3.9c0-0.2-1.9-6.3-2.6-8.4c-0.4-1.3-1.3-3.7-2.8-6.4 c-0.2-0.3-0.2-0.5-0.4-1.1C554.5,578.2,553.9,577.1,553.2,576z"/>
    <path d="M643.9,592.3L643.9,592.3c0.2,0,0.2,0.3,0.4,0.3c0-0.5-0.2-1.3-0.2-1.8l0,0c-0.4,0.2-0.7,0.6-0.9,1.1 C643.5,592.2,643.7,592.3,643.9,592.3z" fill="#009B3A"/>
    <path d="M642,593L642,593L642,593c0.3,0,0.4,0.1,0.6,0.1c0,0,0.4,0.1,0.9,0.4c0.2,0,0.6,1.3,0.9,2.6c0.3,0.1,0.5,0.1,0.9,0.1 c0,0,0-0.5,0-1c0-0.2,0-0.7,0-1c0-0.7-0.2-3.3-0.2-3.5c0-0.3,0-0.4,0-0.7c-0.5,0.3-0.8,0.5-1.3,0.8c-0.7,0.4-1.1,1.3-1.3,1.8 c0,0.2,0,0.2,0,0.2C642.2,592.9,642.2,592.9,642,593z M644.1,591.1c0,0.5,0.2,1.3,0.2,1.8c-0.2-0.3-0.2-0.3-0.4-0.3l0,0 c-0.2,0-0.4-0.3-0.6-0.4C643.5,591.7,643.7,591.3,644.1,591.1L644.1,591.1z"/>
  </g>
  <g opacity="0.3">
    <path d="M259.7,185c127.9,0,223.7,15.9,325.2,32.8C688.7,235,796.1,252.9,941,252.9c44.4,0,90-6.1,135.4-18.1 c30.5-8.1,61.9-19,93.6-32.7v757.2c-36.8,17.4-73.5,30.8-109.2,40c-40.5,10.4-81.1,15.7-120.8,15.7c-140.1,0-243.6-16.8-343.7-33 c-98.9-16.1-201.3-32.7-336.6-32.7c-45.7,0-91.1,5.3-135.1,15.8C93,972.6,61.3,982.9,30,996V241.6c37.1-17.6,73.8-31.2,109.2-40.5 C179.9,190.4,220.4,185,259.7,185 M1200,155c-89.2,45-174.4,67.9-259,67.9c-280.7,0-416.7-67.9-681.3-67.9 C175.2,155,89.1,178,0,222.9c0,242.4,0,577.6,0,820c89-44.9,175.2-63.6,259.7-63.6c268.9,0,398.5,65.7,680.3,65.7 c84.6,0,170.8-22,260-66.9C1200,735.7,1200,397.4,1200,155L1200,155z" fill="#212121"/>
  </g>
</svg>