<svg viewBox="0 0 1200 1200" xmlns="http://www.w3.org/2000/svg" xmlns:xlink="http://www.w3.org/1999/xlink">
  <g>
    <path d="M598.9,805.5c8.1-4.9,16.3-9.8,24.5-14.7c-4.8-4.4-7.1-6.6-11.8-11c-2.1,4.9-6.3,7.7-10.9,6.9 c-0.4-0.1-0.7-0.1-1.1-0.2c-4.8-0.8-9.3-6.2-11-12.6c-5.8,3.4-8.7,5.2-14.5,8.6C582.4,790.2,590.7,797.8,598.9,805.5z" fill="#DA000C"/>
    <path d="M607.1,759.8c0-6.8,0-10.2,0-17c-5.3-0.9-7.9-1.4-13.2-2.3c0,4.6,0,9.2,0,13.8c0,0.2,0,0.5,0,0.7 c2-1.2,3-1.8,4.9-2.9C602.2,755.2,603.8,756.8,607.1,759.8z" fill="#DA000C"/>
    <path d="M594.2,770.6c0.2,1.5,0.9,3.1,1.6,4.4c1.2,1.9,2.7,3.1,4.3,3.2c2.6,0.8,5.1-0.6,6.3-3.4 c-3-2.9-4.5-4.3-7.5-7.2C597,768.8,596.1,769.4,594.2,770.6z" fill="#DA000C"/>
    <path d="M613.3,754.3c0,3.8,0,7.6,0,11.4c8.1,7.5,12.3,11.3,20.6,18.8c3,0.5,4.5,0.7,7.5,1.2c0,6.4,0,9.6,0,16 c-3.1-0.5-4.6-0.7-7.6-1.2c-9.5,5.6-18.9,11.3-28.3,17c0,4.7,0,7,0,11.7c0,54.2,0,108.4,0,162.6c0,3.9,0,5.8,0,9.7 c-5.3-0.9-7.9-1.3-13.3-2.2c0-3.9,0-5.8,0-9.7c0-2.6,0-3.9,0-6.6c-14.5-2.4-29-4.7-43.6-7c0-11,0-16.5,0.1-27.5 c5.7,0.9,8.5,1.3,14.1,2.2c0,5.2,0,7.8,0,13c6.4,1,9.6,1.5,16,2.6c0-5.2,0-7.8,0-13c5.4,0.9,8,1.3,13.3,2.2c0-3.2,0-4.8,0-8.1 c-5.3-0.9-7.9-1.3-13.3-2.2c0-5.2,0-7.8,0-13c-6.3-1-9.5-1.6-16-2.6c0,5.2,0,7.8,0,13c-5.6-0.9-8.4-1.3-14.1-2.2 c0-11,0-16.5,0.1-27.5c14.5,2.3,28.9,4.6,43.3,7c0-31,0-61.9,0-92.9c0-4.7,0-7,0-11.7c-9.4-8.9-18.9-17.6-28.5-26.3 c-3-0.5-4.5-0.7-7.5-1.2c0-6.4,0-9.6,0-16c3,0.5,4.5,0.7,7.5,1.2c8.1-4.7,16.1-9.4,24.2-14.1c0-4.1,0-8.2,0-12.2c0-2.3,0-4.6,0-6.9 c-106.7-17.8-215.3-32.9-323.7-32.2c-94.3,0.5-178.8,25-264.1,64.5c0,90.2,0,180.5,0,270.7c50.7-23,102.3-44.3,157.3-54.6 c46.5-8.7,94.2-9.8,141.3-8.5c101.1,2.8,201.7,17.2,301.3,33.7c99.5,16.5,200.3,28.7,301.3,31.1c107.8,2.6,202.9-16.1,298.7-66.9 c0-90.5,0-181.1,0-271.6c-84.1,43.3-168.9,66.5-263.6,67.3c-108,0.9-216.7-12.1-323.1-29.5C613.3,747.4,613.3,750.8,613.3,754.3z" fill="#DA000C"/>
    <path d="M607.1,738.1c-0.1,0-0.4,0.1-0.5,0.1c-1.2,0.3-2.6,0.4-3.9,0.1c-2.5-0.4-5-1.9-7-3.8 c-0.9-0.5-1.4-1.1-1.7-1.8c0,2.6,0,5.3,0,7.9c5.3,0.9,7.9,1.4,13.2,2.3C607.1,740.9,607.1,740,607.1,738.1z" fill="#FFFFFF"/>
    <path d="M0,222.9c0,183,0,366,0,549.1c85.3-39.5,169.8-64,264.2-64.6c108.4-0.6,217,14.4,323.7,32.2 c0-2.3,0-4.4,0-6.8c0-0.7,0-1.3,0-2c-0.2,0-0.4-0.1-0.6-0.1c-27.4-4.6-54.7-8.8-82.2-12.7c0-3.8,0-5.7,0-9.6 c-32.6-4.5-65.3-8.5-98.1-11.8c0-7.8,0-11.7,0-19.5c0-0.5,0-0.8,0-1.3c0-0.1,0-0.2,0-0.3c0.2,0,0.3,0,0.5,0.1 c9.1-6.3,13.7-9.4,22.8-15.6c0.1-59.7,0.3-119.4,0.4-179.1c-4.2-0.5-6.3-0.7-10.5-1.1c0-5.8,0-8.7,0-14.5 c-5.2-0.5-7.8-0.8-13.1-1.3c0-11.8,0-23.5,0.1-35.3c5.7,0.6,8.6,0.9,14.3,1.5c0,7.4,0,11.1,0,18.5c8.1,0.9,12.2,1.3,20.3,2.2 c0-7.4,0-11.1,0-18.5c6.3,0.7,9.4,1.1,15.7,1.9c0.1-37.3,0.2-74.6,0.3-111.9c-2.4-0.3-3.6-0.4-5.9-0.7c0-6.1,0-9.2,0-15.3 c-4-0.5-6-0.7-10.1-1.2c0-10.4,0.1-20.8,0.1-31.1c7.7,0.9,11.6,1.4,19.3,2.3c0,6,0,9,0,15c6.5,0.8,9.7,1.2,16.2,2.1c0-6,0-9,0-15 c9.3,1.2,18.6,2.5,27.9,3.8c0,6,0,9,0,15c6.4,0.9,9.5,1.4,15.8,2.3c0-6,0-9,0-15c6.2,0.9,9.3,1.4,15.3,2.3 c0,10.4-0.1,20.8-0.1,31.1c-2.2-0.3-3.2-0.5-5.4-0.8c0,6.1,0,9.2,0,15.3c-2-0.3-3-0.5-5-0.8c-0.1,37.3-0.2,74.6-0.3,111.9 c1.1,0.2,1.6,0.2,2.7,0.4c0,7.4,0,11.1-0.1,18.5c8.9,1.3,13.3,2,21.9,3.4c0-7.4,0-11.1,0-18.5c2.9,0.5,4.4,0.7,7.2,1.2 c0.1-47.3,0.2-94.6,0.3-141.8c-3.2-0.5-4.8-0.8-8-1.3c0-8.2,0-12.3,0-20.4c-3.9-0.6-5.8-0.9-9.7-1.5c0-10.1,0-15.2,0.1-25.4 c6.6,1,9.9,1.6,16.4,2.6c0,5.2,0,7.8,0,13c6.4,1,9.5,1.6,15.7,2.6c0-5.2,0-7.8,0-13c8.2,1.4,12.2,2.1,20,3.5c0,5.2,0,7.8,0,13 c6,1.1,8.9,1.6,15.1,2.7c0-5.2,0-7.8,0-13c8.1,1.5,12.3,2.2,20.6,3.6c0,5.2,0,7.8,0,13c6.5,1.1,9.7,1.6,16.3,2.7c0-5.2,0-7.8,0-13 c6.7,1.1,10.1,1.6,16.9,2.6c0,10.1,0,15.2,0,25.3c-4-0.6-5.9-0.9-9.9-1.5c0,8.2,0,12.2,0,20.4c-3.3-0.5-4.9-0.8-8.1-1.3 c0,47.2-0.1,94.5-0.1,141.7c2.9,0.5,4.4,0.7,7.3,1.1c0,7.4,0,11.1,0,18.4c8.7,1.3,13.2,2,22.1,3.3c0-7.4,0-11.1,0-18.4 c1.1,0.2,1.6,0.2,2.7,0.4c0-37.2,0.1-74.5,0.1-111.7c-2-0.3-3-0.4-5.1-0.7c0-6.1,0-9.2,0-15.3c-2.2-0.3-3.3-0.5-5.4-0.8 c0-10.4,0-20.7,0-31.1c6.2,0.9,9.3,1.4,15.5,2.2c0,6,0,9,0,15c6.3,0.9,9.5,1.3,15.9,2.2c0-6,0-9,0-15c9.3,1.3,18.6,2.4,27.9,3.6 c0,6,0,9,0,15c6.5,0.8,9.7,1.2,16.2,1.9c0-6,0-9,0-15c7.7,0.9,11.5,1.3,19.2,2.1c0,10.4,0,20.7,0,31.1c-4-0.4-6-0.6-10-1.1 c0,6.1,0,9.2,0,15.3c-2.4-0.3-3.5-0.4-5.9-0.7c0,37.2-0.1,74.4-0.1,111.7c6.3,0.7,9.4,1,15.6,1.7c0,7.4,0,11.1,0,18.4 c8.1,0.8,12.1,1.3,20.2,2c0-7.4,0-11,0-18.4c5.6,0.5,8.4,0.8,14,1.3c0,11.7,0,23.5,0,35.2c-5.1-0.5-7.7-0.7-12.9-1.2 c0,5.8,0,8.7,0,14.5c-4.2-0.4-6.3-0.6-10.4-1c0,59.5-0.1,119.1-0.1,178.6c7.6,6.7,15.2,13.4,22.8,20.1c0.2,0,0.3,0,0.5,0 c0,0.1,0,0.2,0,0.3c0,0.5,0,0.8,0,1.3c0,7.8,0,11.6,0,19.4c-32.8-3-65.5-6.6-98.1-10.8c0,3.8,0,5.7,0,9.5 c-27.3-3.6-54.5-7.7-81.6-12.1c0,3,0,5.8,0,8.6c106.4,17.4,215.1,30.5,323.1,29.5c94.7-0.8,179.5-24,263.6-67.3 c0-183.7,0-367.3,0-551c-96.3,46.7-191.5,69.9-298.7,67.3c-101-2.4-201.9-14.7-301.3-32.5c-99.4-17.9-200.2-31.7-301.2-34.6 C192.3,152.4,95.5,176.3,0,222.9z" fill="#FFFFFF"/>
    <path d="M589.1,584c-17.8,2.9-24.4,23.1-23.7,38.9c0,15.7-0.1,31.4-0.1,47.1c8.4,5.8,16.4,12.6,23.7,19.6 C589.1,654.4,589.1,619.2,589.1,584z"/>
    <path d="M492,587.6c-16.4-3-26.3,15.7-26.7,29.4c0,15.6-0.1,31.2-0.1,46.8c17.6,2.2,35.2,4.6,52.8,7.1c0-15.6,0.1-31.2,0.1-46.8 C518.2,608,508.6,590.6,492,587.6z"/>
    <path d="M565.1,687.7c2.5,0.4,3.8,0.6,6.3,1c-2-1.7-4.2-3.3-6.3-4.8C565.1,685.4,565.1,686.1,565.1,687.7z"/>
    <path d="M408.4,677.3c0,7.1,0,10.7,0,17.8c32.3,3.3,64.6,7.2,96.8,11.7c0-5.1,0-7.6,0-12.7c3.4-1.6,5.1-2.3,8.5-3.9 C478.6,685.3,443.5,680.9,408.4,677.3z" fill="#DA000C"/>
    <path d="M431.2,661.4c-8.5,5.7-12.7,8.6-21.2,14.4c35.6,3.7,71,8.1,106.4,13.1c5.9-2.6,8.9-3.9,14.7-6.4 c0-3.2,0-4.8,0-8.1C497.9,669.6,464.6,665.2,431.2,661.4z" fill="#DA000C"/>
    <path d="M505.1,706.8c-32.2-4.4-64.4-8.4-96.8-11.7c0-7.1,0-10.7,0-17.8c-0.5-0.1-0.8-0.1-1.4-0.1c0,7.8,0,11.7,0,19.5 c32.8,3.3,65.5,7.3,98.1,11.8C505.1,707.8,505.1,707.5,505.1,706.8z"/>
    <path d="M410,675.8c8.5-5.8,12.7-8.7,21.2-14.4c33.4,3.8,66.7,8.1,100,13l0,0c-5.2-0.8-7.8-1.2-13.1-1.9c0-0.7,0-1,0-1.6 c-17.6-2.5-35.2-4.9-52.8-7.1c0,0.7,0,1,0,1.6c-11.6-1.4-23.3-2.8-34.9-4.1c0-0.5,0-0.8,0-1.3c-9.1,6.2-13.7,9.3-22.8,15.6 C408.5,675.7,409,675.7,410,675.8z"/>
    <path d="M531.6,508.9c-6.1-0.9-9.2-1.4-15.5-2.3c0-5.9,0-8.9,0-14.8c-0.4-0.1-0.6-0.1-1.1-0.2 c-2.4-0.3-3.6-0.5-6-0.9c-25.6-3.6-51.2-6.8-76.9-9.8c-0.1,59.6-0.3,119.2-0.4,178.8c10.7,1.2,21.4,2.5,32.2,3.8 c0-15.6,0.1-31.2,0.1-46.8c0.4-14.4,11.1-33.3,28.1-30.8c17,2.4,27.6,22.7,27.6,38.4c0,15.6-0.1,31.2-0.1,46.8 c4.7,0.7,7.1,1,11.7,1.7c0.1-54.6,0.3-109.2,0.4-163.9C531.7,509,531.7,509,531.6,508.9z" fill="#DA000C"/>
    <path d="M430.4,661.3c11.6,1.3,23.3,2.6,34.9,4.1c0-0.7,0-1,0-1.6c0-15.6,0.1-31.2,0.1-46.8c0.4-13.7,10.3-32.4,26.7-29.3 c16.5,3,26.2,20.5,26.2,36.5c0,15.6-0.1,31.2-0.1,46.8c0,0.7,0,1,0,1.6c5.3,0.8,7.9,1.1,13.1,1.9c0-0.7,0-1,0-1.6 c-4.7-0.7-7-1-11.7-1.7c0-15.6,0.1-31.2,0.1-46.8s-10.6-35.9-27.6-38.4c-16.9-2.4-27.7,16.5-28.1,30.8c0,15.6-0.1,31.2-0.1,46.8 c-10.7-1.3-21.4-2.6-32.2-3.8c0.1-59.6,0.3-119.2,0.4-178.8c-0.6-0.1-0.8-0.1-1.4-0.2c-0.1,59.7-0.3,119.4-0.4,179.1 C430.4,660.5,430.4,660.8,430.4,661.3z"/>
    <path d="M509.1,459.6c0-7.4,0-11.1,0.1-18.5c0.1,0,0.1,0,0.1,0c0-10.2,0.1-20.3,0.1-30.5c0-10.4-6.3-21.3-17.1-23.3 c-0.1,0-0.2,0-0.3,0c-0.1,0-0.4-0.1-0.5-0.1c-9-0.7-15.7,7.5-15.8,18.9c0,10.1-0.1,20.2-0.1,30.3c0,0.7,0,1,0,1.6 c0,6.7,0,10.1-0.1,16.8c11.2,1.5,22.4,3,33.6,4.6C509.1,459.5,509.1,459.6,509.1,459.6z"/>
    <path d="M474,456.5c0-7.5,0-11.2,0.1-18.6c-6.5-0.8-9.8-1.2-16.3-2c-5.7-0.7-8.5-1-14.2-1.7c0,7.5,0,11.2,0,18.6 c-9.3-1.1-13.9-1.6-23.2-2.6c0-7.5,0-11.2,0-18.6c-4.6-0.5-6.9-0.7-11.6-1.2c0,10.7,0,21.3-0.1,32c4.6,0.5,6.9,0.7,11.6,1.2 c0-0.1,0-0.1,0-0.2c29.7,3.2,59.2,6.9,88.8,11c0-5.3,0-7.9,0-13.2C497.4,459.6,485.7,458,474,456.5z" fill="#DA000C"/>
    <path d="M509,476.3c-29.1-4.1-58.2-7.7-87.4-10.9c0,5.1,0,7.7,0,12.9c3.7,0.4,5.5,0.6,9.2,1 c26.1,2.9,52.1,6.2,78.2,9.9C509,484,509,481.4,509,476.3z" fill="#DA000C"/>
    <path d="M432.2,481c25.6,2.9,51.2,6.2,76.8,9.7c0-0.7,0-1,0-1.6c-26-3.6-52.1-6.9-78.2-9.9c-3.7-0.4-5.5-0.6-9.2-1 c0-5.1,0-7.7,0-12.9c29.2,3.2,58.3,6.8,87.4,10.9c0-0.7,0-1.1,0-1.8c-29.5-4.1-59.1-7.8-88.8-11c0,0.1,0,0.1,0,0.2 c-4.6-0.5-6.9-0.7-11.6-1.2c0-10.7,0-21.3,0.1-32c4.6,0.5,6.9,0.7,11.6,1.2c0,7.5,0,11.2,0,18.6c9.3,1,13.9,1.5,23.2,2.6 c0-7.5,0-11.2,0-18.6c5.7,0.7,8.5,1,14.2,1.7c0-0.7,0-1,0-1.6c-6.2-0.8-9.3-1.1-15.6-1.8c0,7.5,0,11.2,0,18.6 c-8.2-0.9-12.2-1.4-20.4-2.3c0-7.5,0-11.2,0-18.6c-5.7-0.6-8.6-0.9-14.3-1.5c0,11.8,0,23.5-0.1,35.3c5.2,0.5,7.8,0.8,12.9,1.3 c0,5.8,0,8.7,0,14.5c4.2,0.4,6.4,0.7,10.6,1.1C431.4,480.9,431.6,481,432.2,481z"/>
    <path d="M509.1,461.3c0-0.7,0-1,0-1.6c-11.2-1.6-22.5-3.1-33.7-4.6c0-6.8,0-10.2,0.1-17c-0.5-0.1-0.8-0.1-1.4-0.2 c0,7.5,0,11.2-0.1,18.6C485.7,458,497.4,459.6,509.1,461.3z"/>
    <path d="M524.4,443.2c0.1-37.3,0.2-74.6,0.3-111.9c-21.7-3.2-43.5-6.2-65.3-8.9c-0.1,37.3-0.2,74.6-0.3,111.9 c6,0.7,9,1.1,15,1.9c0-10.1,0.1-20.2,0.1-30.3c-0.2-9.9,6-21,17.1-20.3c0.3,0,0.4,0.1,0.7,0.1c0.1,0,0.2,0,0.3,0 c11.7,2.2,18.4,13.9,18.5,25.2c0,10.1-0.1,20.2-0.1,30.3C516.1,442,518.9,442.4,524.4,443.2z" fill="#DA000C"/>
    <path d="M457.7,435.8c6.6,0.8,9.8,1.2,16.3,2c0.5,0.1,0.8,0.1,1.4,0.2c0-0.7,0-1,0-1.6c0-10.1,0.1-20.2,0.1-30.3 c0-11.4,6.9-19.6,15.8-18.9c0.1,0,0.4,0.1,0.5,0.1s0.2,0,0.3,0c10.9,2,17.1,12.9,17.1,23.3c0,10.1-0.1,20.2-0.1,30.3 c0.5,0.1,0.8,0.1,1.3,0.2c0-10.1,0.1-20.2,0.1-30.3c0-11.2-6.8-23-18.5-25.2c-0.1,0-0.2,0-0.3,0c-0.3,0-0.4-0.1-0.7-0.1 c-11.1-0.5-17.3,10.4-17.1,20.3c0,10.1-0.1,20.2-0.1,30.3c-6-0.8-9-1.1-15-1.9c0.1-37.3,0.2-74.6,0.3-111.9 c-0.6-0.1-0.8-0.1-1.4-0.2c-0.1,37.3-0.2,74.6-0.3,111.9c0,0.7,0,1,0,1.6C457.6,435.8,457.6,435.8,457.7,435.8z"/>
    <path d="M524.7,331.3c0.5,0.1,0.8,0.1,1.3,0.2c-0.1,37.3-0.2,74.6-0.3,111.9c-0.5-0.1-0.8-0.1-1.3-0.2 C524.5,405.9,524.6,368.6,524.7,331.3z"/>
    <path d="M453.6,320.1c1.8,0.2,2.6,0.3,4.4,0.5c22.7,2.8,45.4,5.9,68,9.3c1.5,0.2,2.2,0.3,3.7,0.6 c0-5.5,0-8.2,0-13.7c-25.3-3.8-50.7-7.2-76.1-10.4C453.6,311.9,453.6,314.6,453.6,320.1z" fill="#DA000C"/>
    <path d="M459.4,322.4c21.8,2.7,43.6,5.7,65.3,8.9c0.5,0.1,0.8,0.1,1.3,0.2c2,0.3,3,0.5,5,0.8c0-6.1,0-9.2,0-15.3 c-0.5-0.1-0.8-0.1-1.3-0.2c0,5.5,0,8.2,0,13.7c-1.5-0.2-2.2-0.3-3.7-0.6c-22.6-3.3-45.3-6.4-68-9.3c-1.8-0.2-2.6-0.3-4.4-0.5 c0-5.5,0-8.2,0-13.7c-0.6-0.1-0.8-0.1-1.4-0.2c0,6.1,0,9.2,0,15.3c2.3,0.3,3.5,0.4,5.8,0.7C458.6,322.3,458.8,322.4,459.4,322.4z"/>
    <path d="M531.1,315.3c1.6,0.2,2.5,0.4,4.1,0.6c0-11.1,0-16.7,0.1-27.8c-5-0.8-7.6-1.2-12.7-1.9c0,6,0,9,0,15 c-7.3-1.1-11-1.6-18.4-2.7c0-6,0-9,0-15c-10-1.4-15-2.1-25.2-3.4c0,6,0,9,0,15c-7.6-1-11.4-1.5-19-2.4c0-6,0-9,0-15 c-6.6-0.8-9.9-1.2-16.6-2c0,11.1,0,16.7-0.1,27.8c3.5,0.4,5.3,0.6,8.8,1C478.6,307.8,504.9,311.4,531.1,315.3z" fill="#DA000C"/>
    <path d="M453.6,306.4c25.4,3.1,50.8,6.6,76.1,10.4c0.5,0.1,0.8,0.1,1.3,0.2c2.2,0.3,3.2,0.5,5.4,0.8c0-10.4,0.1-20.8,0.1-31.1 c-6.1-0.9-9.2-1.4-15.3-2.3c0,6,0,9,0,15c-6.3-0.9-9.5-1.4-15.8-2.3c0-6,0-9,0-15c-9.3-1.3-18.6-2.6-27.9-3.8c0,6,0,9,0,15 c-6.5-0.8-9.7-1.3-16.2-2.1c0-6,0-9,0-15c-7.7-1-11.6-1.4-19.3-2.3c0,10.4-0.1,20.8-0.1,31.1c4,0.5,6.1,0.7,10.1,1.2 C452.6,306.3,453,306.3,453.6,306.4z M443.5,275.7c6.6,0.8,9.9,1.2,16.6,2c0,6,0,9,0,15c7.6,0.9,11.4,1.4,19,2.4c0-6,0-9,0-15 c10.1,1.3,15.2,2,25.2,3.4c0,6,0,9,0,15c7.5,1.1,11.2,1.6,18.5,2.7c0-6,0-9,0-15c5.1,0.8,7.7,1.1,12.7,1.9c0,11.1,0,16.7-0.1,27.8 c-1.6-0.3-2.4-0.4-4.1-0.6c-26.2-3.9-52.5-7.5-78.8-10.7c-3.5-0.4-5.2-0.6-8.7-1c0-11.1,0-16.7,0.1-27.8 C443.7,275.7,443.6,275.7,443.5,275.7z"/>
    <path d="M408.4,677.3c35.2,3.6,70.2,7.9,105.3,12.9c1.1-0.5,1.7-0.7,2.8-1.2c-35.4-5-70.9-9.4-106.4-13.1c-1-0.1-1.5-0.1-2.5-0.2 c-0.2,0-0.3,0-0.5-0.1c0,0.2,0,0.3,0,0.5c0,0.5,0,0.7,0,1.2C407.5,677.2,407.8,677.3,408.4,677.3z"/>
    <path d="M585.5,706.2c1,0.2,1.5,0.3,2.5,0.4c0-1.3,0-2,0-3.3c-4.6-4.4-9.3-8.6-14-12.6c-14.1-2.3-28.2-4.5-42.4-6.7 c-9,4.1-13.6,6.1-22.8,10.2C534.5,698,560,701.9,585.5,706.2z" fill="#DA000C"/>
    <path d="M585.5,707.8c-26.3-4.4-52.7-8.5-79.1-12.2c0,8.4,0,12.6-0.1,20.9c27,3.8,54,8,80.9,12.5 c0.2,0,0.4,0.1,0.6,0.1c0-8.4,0-12.6,0-20.9C587,708.1,586.5,708,585.5,707.8z" fill="#DA000C"/>
    <path d="M587.3,729.1c-26.9-4.6-53.9-8.7-80.9-12.5c0-8.4,0-12.6,0.1-20.9c-0.3,0-0.4-0.1-0.7-0.1c0-0.7,0-1,0-1.6 c1.2,0.2,1.9,0.3,3.1,0.4c9.2-4.1,13.7-6.2,22.8-10.2c14.1,2.1,28.3,4.4,42.4,6.7c-0.9-0.6-1.7-1.4-2.5-2.1c-2.5-0.4-3.7-0.6-6.3-1 c0,0.3,0,0.4,0,0.7c0,0.5-0.3,0.8-0.6,0.7c-10.9-1.7-21.9-3.4-32.8-5.1c-0.4-0.1-0.7-0.4-0.7-0.9c0-0.2,0-0.3,0-0.5 c-5.9,2.6-8.8,3.9-14.7,6.6c-1.1,0.5-1.7,0.7-2.8,1.2c-3.4,1.5-5.1,2.2-8.5,3.7c0,5.1,0,7.7,0,12.9c0,0.7,0,1,0,1.6 c0,3.8,0,5.7,0,9.6c27.5,3.9,54.9,8.1,82.2,12.7C587.3,730.2,587.3,729.8,587.3,729.1z"/>
    <path d="M585.5,707.8c0-0.7,0-1,0-1.6c-25.5-4.3-51.1-8.2-76.8-11.9c-1.2-0.2-1.8-0.3-3-0.4c0,0.7,0,1,0,1.6c0.3,0,0.4,0.1,0.7,0.1 C532.9,699.4,559.2,703.5,585.5,707.8z"/>
    <path d="M734.9,656.6c-0.1-15.9-10.2-33-26.6-35.9c-16.5-3-26,15.6-26.4,29.3c0,15.6,0,31.2,0,46.7c17.6,2.4,35.2,4.6,52.8,6.6 c0-15.6,0-31.1,0-46.7C734.8,656.6,734.8,656.6,734.9,656.6z"/>
    <path d="M630.3,698.6c1.8,0.3,2.8,0.4,4.6,0.7c0-1.3,0-2,0-3.3C633.2,696.9,631.7,697.7,630.3,698.6z"/>
    <path d="M591.5,692.1c8.3,1.4,12.3,2.2,20.7,3.6c1.2-0.9,2.5-1.7,3.8-2.7c0.1-0.1,0.3-0.3,0.4-0.3c1.8-1.2,3.6-2.4,5.5-3.5 c0.1-0.1,0.3-0.3,0.4-0.3c0.4-0.3,0.9-0.5,1.3-0.8c0.9-0.6,1.4-0.9,2.3-1.4c0.6-0.4,1.3-0.8,1.8-1c0-0.3,0.3-0.6,0.6-0.6 c0.1,0,0.1,0,0.3,0c2-1.2,4.1-2.3,6.1-3.3c0-15.8,0-31.5,0-47.3c0.7-22.4-12.2-45.9-34.9-50.3c-3.8-0.7-7.6-0.8-10.9-0.3 c0,35.2,0,70.4-0.1,105.6C589.9,690.5,590.6,691.2,591.5,692.1z"/>
    <path d="M694.9,723.4c0,5.1,0,7.6,0,12.7c32.2,4.1,64.4,7.7,96.8,10.7c0-7.1,0-10.7,0-17.8 c-35.2-3.2-70.2-7.2-105.3-11.8C689.8,719.7,691.5,720.9,694.9,723.4z" fill="#DA000C"/>
    <path d="M683.6,715.2c35.4,4.7,70.9,8.8,106.4,12c-7.1-6.2-14.1-12.4-21.1-18.6c-33.4-3.4-66.7-7.5-100-12.1 c0,3.2,0,4.7,0,7.9C674.7,708.7,677.7,710.9,683.6,715.2z" fill="#DA000C"/>
    <path d="M791.6,729c0,7.1,0,10.7,0,17.8c-32.3-3-64.6-6.5-96.8-10.7c0,0.7,0,1,0,1.6c32.7,4.2,65.4,7.8,98.1,10.8 c0-7.8,0-11.6,0-19.4C792.5,729.1,792.2,729.1,791.6,729z"/>
    <path d="M769.7,708.7c-11.6-1.2-23.3-2.4-34.9-3.7c0-0.7,0-1,0-1.6c-17.6-2.1-35.2-4.3-52.8-6.6c0,0.7,0,1,0,1.6 c-5.3-0.7-7.9-1.1-13.1-1.8l0,0c33.3,4.6,66.6,8.7,100,12.1c7,6.2,14.1,12.4,21.1,18.6c1,0.1,1.5,0.1,2.5,0.2 c-7.6-6.7-15.2-13.4-22.8-20.1C769.7,707.9,769.7,708.2,769.7,708.7z"/>
    <path d="M669,531.3c0,54.5-0.1,109.1-0.1,163.6c4.7,0.7,7,1,11.7,1.6c0-15.6,0-31.2,0-46.7 c0.4-14.4,10.7-33.1,27.7-30.7c16.7,2.3,27.9,22.2,28,37.7c0,15.6,0,31.1,0,46.7c10.7,1.2,21.4,2.3,32.1,3.4 c0-59.4,0.1-118.8,0.1-178.2c-25.6-2.6-51.2-5.7-76.8-9c-2.4-0.3-3.6-0.5-6.1-0.8c-0.4-0.1-0.6-0.1-1.1-0.1c0,5.9,0,8.9,0,14.8 C678.4,532.6,675.2,532.2,669,531.3z" fill="#DA000C"/>
    <path d="M768.5,528.7c0,59.4-0.1,118.8-0.1,178.2c-10.7-1.1-21.4-2.2-32.1-3.4c0-15.6,0-31.1,0-46.7c-0.1-15.6-11.3-35.4-28-37.7 c-17-2.4-27.4,16.3-27.7,30.7c0,15.6,0,31.2,0,46.7c-4.7-0.6-7.1-1-11.7-1.6c0,0.7,0,1,0,1.6c5.2,0.7,7.8,1.1,13.1,1.8 c0-0.7,0-1,0-1.6c0-15.6,0-31.2,0-46.7c0.3-13.7,9.8-32.3,26.4-29.3c16.3,3,26.5,20,26.6,35.9c0,15.6,0,31.1,0,46.7 c0,0.7,0,1,0,1.6c11.6,1.3,23.3,2.6,34.9,3.7c0-0.5,0-0.7,0-1.2c0-59.6,0.1-119.2,0.1-178.7C769.3,528.7,769,528.7,768.5,528.7z"/>
    <path d="M725.6,475.9c0-0.7,0-1,0-1.6c0-10.1,0-20.2,0-30.3c0-9.9-5.4-20.4-15.7-22.8c-0.1,0-0.4-0.1-0.5-0.1s-0.2,0-0.3,0 c-10.7-1.1-17.4,8.9-17.2,18.6c0,10.1,0,20.2,0,30.3c0.1,0,0.1,0,0.1,0c0,7.4,0,11.1,0,18.4c11.3,1.5,22.6,2.9,33.9,4.3 c0-6.7,0-10.1,0-16.8C725.7,475.9,725.7,475.9,725.6,475.9z"/>
    <path d="M780.4,513.6c0,0.1,0,0.1,0,0.2c4.6,0.4,6.9,0.6,11.5,1.1c0-10.6,0-21.3,0-31.9c-4.6-0.4-6.9-0.6-11.5-1.1 c0,7.4,0,11.1,0,18.6c-9.2-0.9-13.8-1.3-23.1-2.3c0-7.4,0-11.1,0-18.6c-5.7-0.6-8.5-0.9-14.1-1.5c-6.5-0.7-9.8-1.1-16.3-1.9 c0,7.4,0,11.2,0,18.6c-11.7-1.4-23.4-2.9-35.1-4.5c0,5.3,0,7.9,0,13.2C721.3,507.3,750.8,510.7,780.4,513.6z" fill="#DA000C"/>
    <path d="M779,528.1c0-5.1,0-7.7,0-12.8c-29.1-2.9-58.2-6.2-87.2-10.1c0,5.1,0,7.7,0,12.8c26,3.4,52,6.5,78,9.2 C773.5,527.5,775.4,527.7,779,528.1z" fill="#DA000C"/>
    <path d="M743.2,478c5.7,0.6,8.5,0.9,14.1,1.5c0,7.4,0,11.1,0,18.6c9.2,1,13.8,1.4,23.1,2.3c0-7.4,0-11.1,0-18.6 c4.6,0.4,6.9,0.7,11.5,1.1c0,10.6,0,21.3,0,31.9c-4.6-0.4-6.9-0.6-11.5-1.1c0-0.1,0-0.1,0-0.2c-29.6-2.9-59.1-6.3-88.6-10.2 c0,0.7,0,1.1,0,1.8c29,3.8,58.1,7.2,87.2,10.1c0,5.1,0,7.7,0,12.8c-3.7-0.4-5.5-0.5-9.2-0.9c-26.1-2.7-52.1-5.7-78-9.2 c0,0.7,0,1,0,1.6c25.5,3.4,51.1,6.4,76.7,9c0.5,0.1,0.8,0.1,1.4,0.1c4.2,0.4,6.3,0.6,10.6,1c0-5.8,0-8.7,0-14.5 c5.2,0.5,7.7,0.7,12.9,1.2c0-11.7,0-23.5,0-35.2c-5.7-0.5-8.5-0.8-14.2-1.3c0,7.4,0,11.1,0,18.6c-8.1-0.8-12.2-1.2-20.3-2 c0-7.4,0-11.1,0-18.6c-6.2-0.7-9.3-1-15.5-1.7C743.2,477,743.2,477.3,743.2,478z"/>
    <path d="M726.9,476.1c-0.5-0.1-0.8-0.1-1.4-0.2c0,6.8,0,10.2,0,16.9c-11.2-1.4-22.5-2.8-33.7-4.3c0,0.7,0,1,0,1.6 c11.7,1.6,23.4,3.1,35.1,4.5C726.9,487.2,726.9,483.5,726.9,476.1z"/>
    <path d="M709,419.4c0.1,0,0.2,0,0.3,0c0.3,0,0.4,0.1,0.7,0.1c11,2.6,17,13.9,17,24.6c0,10.1,0,20.2,0,30.3 c6,0.7,9,1.1,14.9,1.7c0-37.2,0.1-74.4,0.1-111.7c-21.8-2.5-43.6-5.3-65.3-8.4c0,37.2-0.1,74.5-0.1,111.7c5.5,0.8,8.3,1.2,13.8,1.9 c0-10.1,0-20.2,0-30.3C690.3,429,697.5,418.2,709,419.4z" fill="#DA000C"/>
    <path d="M675.3,356c0.5,0.1,0.8,0.1,1.3,0.2c0,37.2-0.1,74.5-0.1,111.7c-0.5-0.1-0.8-0.1-1.3-0.2 C675.2,430.4,675.3,393.2,675.3,356z"/>
    <path d="M742,364.5c0,37.2-0.1,74.4-0.1,111.7c-6-0.7-9-1-14.9-1.7c0-10.1,0-20.2,0-30.3c0-10.7-5.9-22.1-17-24.6 c-0.3,0-0.4-0.1-0.7-0.1c-0.1,0-0.2,0-0.3,0c-11.5-1.2-18.7,9.6-18.6,20.1c0,10.1,0,20.2,0,30.3c0.5,0.1,0.8,0.1,1.3,0.2 c0-10.1,0-20.2,0-30.3c-0.1-9.7,6.5-19.7,17.2-18.6c0.1,0,0.2,0,0.3,0s0.4,0.1,0.5,0.1c10.3,2.3,15.7,12.9,15.7,22.8 c0,10.1,0,20.2,0,30.3c0,0.7,0,1,0,1.6c0.5,0.1,0.8,0.1,1.4,0.2c6.5,0.8,9.8,1.2,16.3,1.9c0-0.7,0-1,0-1.6 c0-37.2,0.1-74.4,0.1-111.7C742.7,364.6,742.5,364.6,742,364.5z"/>
    <path d="M671.6,353.8c1.5,0.2,2.2,0.3,3.7,0.5c22.6,3.2,45.3,6.1,68,8.7c1.8,0.2,2.6,0.3,4.4,0.5 c0-5.5,0-8.2,0-13.6c-25.4-2.9-50.8-6.1-76.2-9.7C671.6,345.6,671.6,348.3,671.6,353.8z" fill="#DA000C"/>
    <path d="M676.6,356.1c21.7,3,43.5,5.8,65.3,8.4c0.5,0.1,0.8,0.1,1.4,0.2c2.3,0.3,3.5,0.4,5.8,0.6c0-6.1,0-9.2,0-15.3 c-0.5-0.1-0.8-0.1-1.4-0.2c0,5.5,0,8.2,0,13.6c-1.8-0.2-2.6-0.3-4.4-0.5c-22.7-2.6-45.4-5.5-68-8.7c-1.5-0.2-2.2-0.3-3.7-0.5 c0-5.5,0-8.2,0-13.7c-0.5-0.1-0.8-0.1-1.3-0.2c0,6.1,0,9.2,0,15.3c2,0.3,3,0.4,5.1,0.7C675.8,356,676.1,356.1,676.6,356.1z"/>
    <path d="M749.1,348.4c3.5,0.4,5.3,0.6,8.8,0.9c0-11.1,0-16.7,0-27.8c-6.6-0.7-9.9-1.1-16.5-1.8c0,6,0,9,0,15 c-7.6-0.9-11.3-1.3-18.9-2.2c0-6,0-9,0-15c-10.1-1.2-15.1-1.9-25.2-3.2c0,6,0,9,0,15c-7.4-1-11.1-1.5-18.4-2.5c0-6,0-9,0-15 c-5.1-0.7-7.7-1.1-12.8-1.9c0,11.1,0,16.7,0,27.8c1.6,0.2,2.5,0.4,4.1,0.6C696.5,342,722.8,345.4,749.1,348.4z" fill="#DA000C"/>
    <path d="M671.6,340.1c25.3,3.6,50.7,6.9,76.2,9.7c0.5,0.1,0.8,0.1,1.4,0.2c4,0.4,6,0.7,10,1.1c0-10.4,0-20.7,0-31.1 c-7.7-0.8-11.5-1.2-19.2-2.1c0,6,0,9,0,15c-6.5-0.7-9.7-1.1-16.2-1.9c0-6,0-9,0-15c-9.3-1.1-18.6-2.3-27.9-3.6c0,6,0,9,0,15 c-6.4-0.9-9.6-1.3-15.9-2.2c0-6,0-9,0-15c-6.2-0.9-9.3-1.3-15.5-2.2c0,10.4,0,20.7,0,31.1c2.2,0.3,3.3,0.5,5.4,0.8 C670.6,340,670.9,340,671.6,340.1z M666.2,309.9c5.1,0.8,7.7,1.1,12.8,1.9c0,6,0,9,0,15c7.4,1.1,11.1,1.6,18.6,2.6c0-6,0-9,0-15 c10,1.3,15.1,2,25.2,3.2c0,6,0,9,0,15c7.5,0.9,11.3,1.4,18.9,2.2c0-6,0-9,0-15c6.6,0.7,9.9,1.1,16.5,1.8c0,11.1,0,16.7,0,27.8 c-3.5-0.4-5.2-0.6-8.6-0.9c-26.3-3-52.6-6.3-78.9-10.1c-1.7-0.2-2.5-0.4-4.1-0.6c0-11.1,0-16.7,0-27.8 C666.3,309.9,666.3,309.9,666.2,309.9z"/>
    <path d="M790,727.2c-35.6-3.3-71-7.3-106.4-12c1.1,0.8,1.7,1.2,2.8,2c35,4.6,70.1,8.6,105.3,11.8c0.5,0,0.8,0.1,1.4,0.1 c0-0.5,0-0.7,0-1.2c0-0.2,0-0.3,0-0.5c-0.2,0-0.3,0-0.5,0C791.5,727.3,791,727.3,790,727.2z"/>
    <path d="M614.5,712.8c-1.5-0.2-2.2-0.4-3.6-0.6c-0.2,0.1-0.5,0.4-0.7,0.5c0.7,1.1,1.6,2.4,2.4,3.5 c3.1,4.6,2.6,11,1.4,14.9c-0.2,0.6-0.5,1.2-0.7,1.9c0,0.2,0.1,0.4,0.1,0.5c26.8,4.4,53.5,8.4,80.4,12c0-8.4,0-12.5,0-20.9 C667.2,721,640.8,717.1,614.5,712.8z" fill="#DA000C"/>
    <path d="M613,710.4c-0.1,0.1-0.2,0.3-0.4,0.4c0.8,0.1,1.2,0.2,2,0.3c25.5,4.2,51,8,76.6,11.4 c-7.6-5.5-15.2-11-22.7-16.6c-13.4-1.9-26.9-3.9-40.2-6.1C622.2,703.4,617.3,706.9,613,710.4z" fill="#DA000C"/>
    <path d="M587.9,706.6c1.6,0.3,2.5,0.4,4.1,0.7c-1.4-1.4-2.7-2.8-4.1-4C587.9,704.6,587.9,705.3,587.9,706.6z" fill="#DA000C"/>
    <path d="M595.2,710.5c0,0-0.1,0-0.1-0.2c-0.4-0.5-0.6-0.7-1-1.2c-2.4-0.4-3.6-0.6-6.1-1c0,8.4,0,12.7,0,21.1h0.1 c0.4-2.9,1.4-5.5,2.7-7.4c0-0.2-0.1-0.4-0.1-0.5C590.3,716.2,593,712.7,595.2,710.5z" fill="#DA000C"/>
    <path d="M593.6,694.1c0.2,0.2,0.6,0.6,0.9,0.8c0.5,0.6,0.8,0.8,1.4,1.4c2.2,2.4,4.5,4.7,6.7,7.1 c2.5-2.2,5-4.4,7.8-6.4C603.6,695.8,600.3,695.2,593.6,694.1z" fill="#DA000C"/>
    <path d="M694.9,736.1c0-5.1,0-7.7,0-12.8c-3.4-2.4-5.1-3.6-8.5-6.1c-1.1-0.8-1.7-1.2-2.8-2c-5.9-4.3-8.8-6.4-14.7-10.8 c0,0.3,0,0.4,0,0.7c0,0.5-0.3,0.8-0.7,0.7c-10.9-1.6-21.9-3.2-32.8-4.9c-0.4-0.1-0.6-0.4-0.6-0.9c0-0.3,0-0.4,0-0.7 c-1.8-0.3-2.8-0.4-4.6-0.7c-0.8,0.4-1.4,0.9-2.2,1.3c13.4,2.2,26.8,4.2,40.2,6.1c7.5,5.6,15.1,11.1,22.7,16.6 c1.2,0.2,1.9,0.2,3.1,0.4c0,0.7,0,1,0,1.6c-0.3,0-0.4-0.1-0.7-0.1c0,8.4,0,12.6,0,21.1c-26.9-3.6-53.7-7.6-80.4-12 c0,0.3,0.1,0.7,0.1,1c0,0.2,0,0.3,0,0.5c0,0,0,0,0,0.2c27.2,4.5,54.4,8.5,81.6,12.1c0-3.8,0-5.7,0-9.5c0-0.7,0-1.1,0-1.8 C694.8,736.1,694.8,736.1,694.9,736.1z"/>
    <path d="M588.1,729.2L588.1,729.2c-0.3,0-0.5-0.1-0.7-0.1c0,0.7,0,1,0,1.6c0.2,0,0.4,0.1,0.6,0.1C588,730.3,588,729.9,588.1,729.2z "/>
    <path d="M612.2,695.6c-8.4-1.4-12.4-2.1-20.7-3.6c0.7,0.6,1.4,1.4,2.1,2c6.8,1.2,10.1,1.8,16.9,2.9 C611,696.4,611.6,696,612.2,695.6z"/>
    <path d="M585.5,706.2c0,0.7,0,1,0,1.6c1,0.2,1.5,0.3,2.5,0.4c2.4,0.4,3.7,0.6,6.1,1c-0.1-0.1-0.1-0.2-0.2-0.4 c-0.5-0.6-1.1-1.2-1.6-1.6c-1.6-0.3-2.5-0.4-4.1-0.7C587.1,706.5,586.6,706.4,585.5,706.2z"/>
    <path d="M614.5,711.2c-0.8-0.1-1.2-0.2-2-0.3c-0.5,0.4-1,1-1.6,1.4c1.4,0.2,2.2,0.4,3.6,0.6c26.3,4.3,52.6,8.2,79.1,11.8 c0.3,0,0.4,0.1,0.7,0.1c0-0.7,0-1,0-1.6c-1.2-0.2-1.9-0.2-3.1-0.4C665.5,719.1,640,715.3,614.5,711.2z"/>
    <path d="M629.1,697.9c1.8-1,3.7-2.2,5.8-3.2c0-4.6,0-6.9,0-11.5c-1.9,1-3.8,2-5.8,3 C629.1,690.9,629.1,693.2,629.1,697.9z" fill="#F8D80E"/>
    <path d="M591.7,720.8c1.9-2.2,4.1-3.4,6.7-3.5l0,0l0,0c0.6,0.1,1.1,0.2,1.7,0.3c0.5,0.1,0.9,0.1,1.3,0.2 c-1.7-2.3-3.7-4.4-5.5-6.4C594,713.4,591.5,716.4,591.7,720.8z" fill="#F8D80E"/>
    <path d="M615.9,694.6c-1.6,1-3.1,2.3-4.6,3.3c0,0.1,0,0.1,0,0.2c0,4.9,0,7.3,0,12.2c0.4-0.3,0.7-0.7,1.1-1 c1.1-1,2.4-1.9,3.6-2.9c-0.1-0.2-0.1-0.4-0.1-0.5C615.8,701.4,615.9,699.1,615.9,694.6z" fill="#F8D80E"/>
    <path d="M621.8,690.6c-1.6,1-3.2,2-4.7,3c0,4.8,0,7.2,0,12c1.5-1.1,3.1-2.3,4.8-3.3c0-0.2-0.1-0.2-0.1-0.4 C621.8,697.4,621.8,695.2,621.8,690.6z" fill="#F8D80E"/>
    <path d="M627.9,687c-0.4,0.3-0.9,0.5-1.3,0.8c-0.9,0.6-1.4,0.9-2.3,1.4c-0.4,0.3-0.8,0.4-1.1,0.6c0,4.7,0,7,0,11.7 c1.5-0.9,3-2,4.7-3l0,0C627.9,693.9,627.9,691.6,627.9,687z" fill="#F8D80E"/>
    <path d="M610,710.4c0-4.6,0-6.9,0-11.5c-2.4,1.7-4.5,3.5-6.6,5.5c2.1,2.3,4.1,4.8,6.1,7.5c0.2-0.1,0.5-0.4,0.7-0.5 C610.1,710.9,610,710.7,610,710.4z" fill="#F8D80E"/>
    <path d="M634.9,694.5c-2.1,1.2-4,2.2-5.8,3.2c0,0.4,0,0.6,0,1c0,0.5-0.3,0.8-0.6,0.7c-0.4-0.1-0.6-0.4-0.6-0.9 c-1.7,1.1-3.2,2-4.7,3c0,0.3,0,0.4,0,0.7c0,0.5-0.3,0.8-0.6,0.7c-0.3,0-0.5-0.2-0.5-0.6c-1.6,1-3.3,2.3-4.8,3.3c0,0.2,0,0.3,0,0.5 c0,0.5-0.3,0.8-0.6,0.7c-0.1,0-0.4-0.2-0.5-0.4c-1.3,0.9-2.5,1.9-3.6,2.9c-0.4,0.3-0.7,0.7-1.1,1c0,0.1,0,0.2,0,0.3 c0,0.5-0.2,0.8-0.6,0.7c-0.1,0-0.2,0-0.4-0.2c-0.2,0.3-0.5,0.4-0.7,0.5c0.2,0.4,0.5,0.7,0.7,0.9c0.2-0.1,0.5-0.4,0.7-0.5 c0.5-0.4,1.1-1,1.6-1.4c0.1-0.1,0.2-0.3,0.4-0.4c4.4-3.5,9.4-7,15.3-10.5c0.6-0.4,1.4-0.8,2.2-1.3c1.4-0.9,2.9-1.7,4.6-2.6 c0-0.5,0-0.8,0-1.3C635,694.6,635,694.6,634.9,694.5z"/>
    <path d="M617.1,693.6L617.1,693.6c1.5-0.9,3-2,4.7-3c0-0.5,0-0.7,0-1.2c0-0.2,0-0.3,0.1-0.5c-1.9,1.2-3.8,2.3-5.5,3.5 c0.1,0,0.1,0,0.1,0C616.9,692.8,617.1,693.1,617.1,693.6z"/>
    <path d="M623,689.7L623,689.7c0.4-0.1,0.8-0.4,1.1-0.5c0.9-0.6,1.4-0.9,2.3-1.4c0.4-0.3,0.9-0.5,1.3-0.8c0-0.5,0-0.8,0-1.3 c0-0.1,0-0.1,0-0.2c-0.6,0.4-1.3,0.8-1.8,1c-0.9,0.6-1.4,0.9-2.3,1.4c-0.4,0.3-0.9,0.5-1.3,0.8c0,0,0,0,0.1,0 C622.8,688.8,623,689.3,623,689.7z"/>
    <path d="M629.1,685.9c0,0.1,0,0.2,0,0.3c1.9-1,3.8-2.2,5.8-3c0-0.6,0-0.9,0-1.5c-2.1,1-4.1,2.1-6.1,3.3 C628.9,685.2,629.1,685.6,629.1,685.9z"/>
    <path d="M596,711.3c-0.2-0.2-0.5-0.6-0.9-0.8c-2.2,2.3-5,5.6-4.5,10.8c0,0.2,0,0.3,0.1,0.5c0.2-0.5,0.5-0.7,0.9-1 C591.5,716.4,594,713.4,596,711.3z"/>
    <path d="M610,697.9c0-0.5,0.2-0.8,0.6-0.7c0.2,0,0.5,0.4,0.6,0.8c1.5-1.1,3.1-2.3,4.6-3.3c0-0.5,0-0.7,0-1.2c0-0.2,0-0.3,0.1-0.5 c-1.3,0.9-2.5,1.7-3.8,2.7c-0.6,0.4-1.2,0.9-1.7,1.4c-2.7,2.2-5.3,4.2-7.8,6.4c0.2,0.4,0.5,0.6,0.9,1c2.1-1.8,4.2-3.7,6.6-5.5 c0-0.4,0-0.6,0-1C610.1,697.9,610,697.9,610,697.9z"/>
    <path d="M611.2,698.1c0-0.1,0-0.1,0-0.2c-0.1-0.4-0.2-0.7-0.6-0.8c-0.4-0.1-0.6,0.2-0.6,0.7c0,0.4,0,0.6,0,1c0,4.7,0,7,0,11.7 c0,0.3,0.1,0.5,0.2,0.7c0.1,0.2,0.2,0.2,0.4,0.2c0.4,0.1,0.6-0.2,0.6-0.7c0-0.1,0-0.2,0-0.3C611.2,705.5,611.2,703,611.2,698.1z"/>
    <path d="M617.1,693.6L617.1,693.6c0-0.5-0.3-1-0.6-1.1c-0.1,0-0.1,0-0.1,0c-0.1,0-0.3,0.1-0.4,0.3c-0.1,0.1-0.1,0.3-0.1,0.5 c0,0.5,0,0.7,0,1.2c0,4.5,0,6.8,0,11.4c0,0.2,0.1,0.4,0.1,0.5c0.1,0.2,0.3,0.4,0.5,0.4c0.4,0.1,0.6-0.2,0.6-0.7c0-0.2,0-0.3,0-0.5 C617.1,700.8,617.1,698.4,617.1,693.6L617.1,693.6z"/>
    <path d="M623,689.8L623,689.8c0-0.5-0.3-1-0.6-1.1c0,0,0,0-0.1,0s-0.4,0.1-0.4,0.3c-0.1,0.1-0.1,0.3-0.1,0.5c0,0.5,0,0.7,0,1.2 c0,4.5,0,6.8,0,11.4c0,0.2,0,0.3,0.1,0.4c0.1,0.4,0.3,0.5,0.5,0.6c0.4,0.1,0.6-0.2,0.6-0.7c0-0.3,0-0.4,0-0.7 C623,696.9,623,694.5,623,689.8L623,689.8z"/>
    <path d="M629.1,685.9c0-0.3-0.1-0.7-0.4-0.9c-0.1,0-0.1,0-0.3,0c-0.3,0-0.5,0.2-0.6,0.6c0,0.1,0,0.1,0,0.2c0,0.5,0,0.8,0,1.3 c0,4.6,0,6.9,0,11.5l0,0c0,0.5,0.3,0.9,0.6,0.9c0.4,0.1,0.6-0.2,0.6-0.7c0-0.4,0-0.6,0-1c0-4.6,0-6.9,0-11.5 C629.1,686.1,629.1,686,629.1,685.9z"/>
    <path d="M571.8,677c0-0.2,0.1-0.5,0.3-0.6c-2.3-1.7-4.6-3.4-6.8-5.1c0,4.4,0,6.6,0,11c2.3,1.7,4.5,3.4,6.8,5.2 c-0.1-0.2-0.1-0.4-0.1-0.5c0-4,0-6,0-10.1C571.9,677.1,571.9,677.1,571.8,677z" fill="#F8D80E"/>
    <path d="M587.3,690.3c0-0.3,0.1-0.5,0.2-0.6c-2.2-2-4.5-4.1-6.8-5.9c0,0.1,0,0.1,0,0.2c0,4.3,0,6.4,0,10.7 c0,0.2,0,0.3-0.1,0.5c2.1,2,4.4,4,6.5,6c0-4.4,0-6.5,0-10.9C587.2,690.3,587.2,690.3,587.3,690.3z" fill="#F8D80E"/>
    <path d="M579.5,683.6c0-0.3,0.1-0.6,0.4-0.8c-2.3-2-4.7-3.9-6.8-5.6c0,4,0,5.9,0,9.9c0,0.5-0.3,0.8-0.6,0.7l0,0 c2.4,1.9,4.8,3.9,7.2,6c0-4.1,0-6.1,0-10.2C579.6,683.6,579.6,683.6,579.5,683.6z" fill="#F8D80E"/>
    <path d="M613.3,723.5c0.2,0,0.4,0.2,0.5,0.4c-0.1-2.3-0.7-4.7-2-6.8c-0.7-1.3-1.5-2.4-2.2-3.5 c-1.7,2.8-2.5,4.2-4.2,7c0,0.1-0.1,0.1-0.1,0.1c0.5,0.7,0.9,1.6,1.1,2.5C609.2,723.4,610.5,723.4,613.3,723.5z" fill="#F8D80E"/>
    <path d="M611.8,732.5c0.1-0.4,0.2-0.6,0.4-0.9c0,0.1,0.1,0.2,0.1,0.4c0.1-0.5,0.4-0.8,0.5-1.2 c0.5-1.6,0.9-3.5,0.9-5.6c-0.1,0.1-0.2,0.3-0.4,0.3c-2.9-0.2-4.3-0.2-7.2-0.4c-0.1,0.5-0.2,0.9-0.5,1.4c-0.1,0.1-0.2,0.5-0.2,0.6 c2.5,2.2,3.7,3.3,6.2,5.5C611.7,732.3,611.8,732.3,611.8,732.5z" fill="#F8D80E"/>
    <path d="M594.7,697.2c0-0.2,0.1-0.3,0.2-0.5c-0.4-0.4-0.6-0.6-1-1c-1.9-1.8-3.7-3.6-5.4-5.2c0,4.5,0,6.7,0,11.2 c0,0.2,0,0.2,0,0.3c1.9,1.8,3.7,3.6,5.6,5.6C594.4,703.5,594.5,701.4,594.7,697.2z" fill="#F8D80E"/>
    <path d="M608.5,712.1c-1.9-2.6-4-5.1-6-7.5c-0.8,3.9-1.2,5.8-2,9.7c0,0.2-0.1,0.1-0.1,0.1c0.9,1.1,1.8,2.3,2.7,3.4 h0.1c0.2,0.3,0.4,0.5,0.6,0.8c0.1,0.2,0.4,0.4,0.5,0.6c0,0,0,0,0-0.2C606,716.3,606.8,714.9,608.5,712.1z" fill="#F8D80E"/>
    <path d="M596.2,733.2L596.2,733.2c2.2,2.4,4.8,3.6,7.4,3.9c-0.1-0.2-0.1-0.4-0.1-0.5c-0.2-3.4-0.3-5.1-0.5-8.5 c0-0.5,0.2-0.8,0.6-0.7c0.4,0.1,0.6,0.4,0.6,0.9c0.2,3.4,0.3,5.1,0.5,8.5c0,0.2,0,0.3-0.1,0.3c0.6-0.1,1.2-0.1,1.8-0.2 c0.4-0.1,0.6-0.2,1-0.3c0.1-0.1,0.2-0.2,0.4-0.3c1.1-0.8,2.5-1.6,3.4-2.7h-0.1c-2.5-2.2-3.8-3.3-6.3-5.5c-0.2-0.2-0.2-0.4-0.4-0.7 c-0.1,0-0.2,0-0.5-0.1c-0.6,0.1-1.2,0-1.8-0.3c-0.1-0.1-0.1-0.1-0.2-0.2l0,0c0,0.2-0.1,0.5-0.2,0.6c-2.4,2-3.5,2.9-5.9,4.9 c-0.1,0.1-0.2,0.1-0.4,0.1s-0.4-0.2-0.5-0.4c-0.2-0.4-0.1-0.8,0.1-1.1c2.3-1.8,3.5-2.8,5.8-4.6c-0.1,0-0.2-0.2-0.4-0.2 c-1.5-0.4-2.9,0.1-4.2,1.3c-0.9,0.8-1.6,2.2-2,3.4C594.3,731.6,595,732.5,596.2,733.2z" fill="#F8D80E"/>
    <path d="M601.3,703.8C601.5,703.7,601.5,703.7,601.3,703.8c-1.7-2.1-3.7-4.1-5.5-5.9c-0.3,4.2-0.4,6.3-0.7,10.4 c0,0.2-0.1,0.3-0.2,0.5c0.2,0.2,0.4,0.4,0.6,0.6c1.2,1.4,2.6,2.8,3.8,4.1C600.1,709.6,600.5,707.7,601.3,703.8z" fill="#F8D80E"/>
    <path d="M595.8,734.3c2,2.2,4.4,3.4,7,3.8c1.4,0.2,2.7,0.1,3.9-0.1c0.1,0,0.4-0.1,0.5-0.1c0-0.5,0-0.8,0-1.3c0.1,0,0.1-0.1,0.2-0.1 c-0.4,0.1-0.6,0.2-1,0.3c-0.6,0.2-1.2,0.3-1.8,0.2c-0.1,0.3-0.2,0.5-0.5,0.4l0,0c-0.2,0-0.4-0.2-0.5-0.4c-2.6-0.3-5.1-1.6-7.2-3.7 h-0.1c-1.1-0.7-1.7-1.6-1.8-2.8c-0.1,0.6-0.2,1.1-0.2,1.8c0,0.2,0,0.3,0,0.3C594.5,733.3,595,733.8,595.8,734.3z"/>
    <path d="M612.5,716.3c-0.7-1.3-1.5-2.4-2.4-3.5c-0.2-0.4-0.5-0.7-0.7-0.9c-1.9-2.6-4-5.1-6.1-7.5c-0.2-0.4-0.5-0.6-0.9-1 c-2.2-2.5-4.5-4.7-6.7-7.1c-0.5-0.6-0.8-0.8-1.4-1.4c-0.2-0.2-0.6-0.6-0.9-0.8c-0.7-0.6-1.4-1.4-2.1-2c-0.9-0.8-1.7-1.6-2.6-2.4 c-7.4-7-15.4-13.7-23.7-19.6c0,0.5,0,0.8,0,1.3c2.2,1.5,4.5,3.2,6.8,5.1c0.1-0.1,0.3-0.1,0.4-0.1c0.4,0.1,0.6,0.4,0.6,0.9l0,0 c2.3,1.9,4.6,3.7,6.8,5.6c0.1,0,0.1,0,0.3,0c0.3,0,0.5,0.4,0.6,0.8c2.3,1.9,4.4,3.9,6.8,5.9c0.1-0.1,0.2-0.1,0.4-0.1 c0.4,0.1,0.6,0.4,0.6,0.9c0,0.1,0,0.1,0,0.2c1.9,1.6,3.6,3.4,5.5,5.2c0.4,0.4,0.6,0.6,1,1c0.1-0.1,0.2-0.3,0.5-0.1 c0.4,0.1,0.6,0.6,0.6,0.9c0,0.1,0,0.1,0,0.2c1.8,2,3.7,3.8,5.5,5.7c0.1-0.3,0.4-0.4,0.7-0.4c0.4,0.2,0.5,0.6,0.5,1.1 c0,0.1-0.1,0.2-0.1,0.3c2.1,2.3,4.2,4.8,6,7.5c0-0.1,0.1-0.1,0.1-0.1c0.2-0.3,0.6-0.4,0.9,0c0.2,0.4,0.4,0.9,0.1,1.2 c-0.1,0.1-0.1,0.2-0.2,0.3c0.7,1.1,1.6,2.2,2.2,3.5c1.4,2,2,4.5,2,6.8c0.1,0.2,0.1,0.4,0.1,0.5c0,0.2,0,0.5-0.1,0.6 c0,2.1-0.4,4.1-0.9,5.6c-0.1,0.5-0.2,0.8-0.5,1.2c0.2,0.4,0.3,0.5,0.5,0.9c0,0.2,0.1,0.2,0.1,0.4c0.2-0.6,0.5-1.2,0.7-1.9 C615.1,727.2,615.5,720.9,612.5,716.3z"/>
    <path d="M601,725.8L601,725.8L601,725.8h-0.2c-0.1,0-0.2,0-0.2,0c0.1,0,0.2,0,0.4,0.2C600.9,725.9,600.9,725.9,601,725.8z"/>
    <path d="M602,726.7L602,726.7c0.1,0.1,0.1,0.1,0.2,0.2c0.6,0.3,1.2,0.4,1.8,0.3c-0.5-0.1-1.1-0.5-1.5-0.7c-0.2-0.2-0.5-0.2-0.7-0.5 l0,0C602,726.3,602,726.5,602,726.7z"/>
    <path d="M600.4,714.7c-0.1,0.1-0.2,0.3-0.5,0.2h-0.1c-0.4-0.2-0.5-0.6-0.5-1.1c0-0.1,0.1-0.2,0.1-0.3c-1.2-1.4-2.6-2.9-3.8-4.1 c-0.2-0.2-0.4-0.4-0.6-0.6c-0.1,0.1-0.2,0.1-0.4,0.1l0,0c-0.4-0.1-0.6-0.6-0.6-0.9c0-0.1,0-0.1,0-0.2c-1.9-1.8-3.7-3.8-5.6-5.6 c-0.1,0.3-0.4,0.4-0.6,0.4c-0.4-0.1-0.6-0.4-0.6-0.9c0-0.3,0-0.4,0-0.7c-2.1-2-4.4-4-6.5-6c-0.1,0.1-0.3,0.3-0.5,0.2 c-0.4-0.1-0.6-0.4-0.6-0.9c0-0.1,0-0.2,0-0.3c-2.4-2-4.8-4.1-7.2-6c-0.1,0-0.4-0.2-0.4-0.4c-2.3-1.9-4.5-3.5-6.8-5.2 c0,0.5,0,0.8,0,1.3c2.1,1.5,4.1,3.1,6.3,4.8c0.9,0.6,1.7,1.4,2.5,2.1c4.7,3.9,9.3,8,14,12.6c1.4,1.4,2.7,2.6,4.1,4 c0.5,0.6,1.1,1.2,1.6,1.6c0.1,0.1,0.1,0.2,0.2,0.4c0.4,0.5,0.6,0.7,1,1.2c0,0,0.1,0,0.1,0.2c0.2,0.2,0.5,0.6,0.9,0.8 c1.8,2,3.8,4.1,5.5,6.4c0.5,0.1,1,0.2,1.5,0.4l0,0C602.2,717,601.3,715.8,600.4,714.7z"/>
    <path d="M595.2,708.2c0.3-4.2,0.4-6.3,0.7-10.4c0-0.1,0-0.1,0-0.2c0-0.5-0.2-0.9-0.6-0.9c-0.1,0-0.4-0.1-0.5,0.1s-0.1,0.3-0.2,0.5 c-0.3,4.2-0.4,6.3-0.7,10.4c0,0.1,0,0.1,0,0.2c0,0.5,0.2,0.9,0.6,0.9l0,0c0.1,0,0.2,0,0.4-0.1C595.1,708.7,595.2,708.5,595.2,708.2 z"/>
    <path d="M602.2,703.3c-0.2-0.2-0.6,0.1-0.7,0.4c0,0.1,0,0.1,0,0.2c-0.8,3.9-1.2,5.9-2,9.9c0,0.1-0.1,0.2-0.1,0.3 c-0.1,0.5,0.1,0.8,0.5,1.1h0.1c0.2,0,0.4-0.1,0.5-0.2c0-0.1,0.1-0.1,0.1-0.1c0.8-3.9,1.2-5.8,2-9.7c0-0.1,0.1-0.2,0.1-0.3 C602.7,704,602.5,703.5,602.2,703.3z"/>
    <path d="M609.5,713.4c0.1-0.1,0.1-0.2,0.2-0.3c0.2-0.3,0.1-0.8-0.1-1.2c-0.2-0.4-0.6-0.3-0.9,0c0,0.1-0.1,0.1-0.1,0.1 c-1.7,2.9-2.6,4.3-4.3,7.2c0,0,0,0,0,0.2c0.2,0.4,0.6,0.8,0.9,1.1c0-0.1,0.1-0.1,0.1-0.1C607,717.7,607.8,716.3,609.5,713.4z"/>
    <path d="M604.8,728c2.5,2.2,3.8,3.3,6.3,5.5h0.1c0.2-0.3,0.5-0.6,0.6-1c0-0.1,0-0.1,0-0.2c0-0.2-0.1-0.2-0.2-0.2 c-2.5-2.2-3.7-3.3-6.2-5.5c-0.2,0.5-0.6,0.6-1,0.5C604.4,727.4,604.5,727.8,604.8,728z"/>
    <path d="M613.3,725.1c0.1,0,0.4-0.1,0.4-0.3c0.1-0.1,0.1-0.3,0.1-0.6c0-0.2-0.1-0.4-0.1-0.5c-0.1-0.2-0.2-0.4-0.5-0.4 c-2.8-0.1-4.3-0.2-7.1-0.4c0.1,0.5,0.1,1,0,1.6C609,724.8,610.4,724.9,613.3,725.1z"/>
    <path d="M604,728.2c0-0.5-0.4-0.9-0.6-0.9c-0.4-0.1-0.6,0.4-0.6,0.7c0.2,3.4,0.3,5.1,0.5,8.5c0,0.2,0,0.3,0.1,0.5s0.2,0.4,0.5,0.4 l0,0c0.2,0,0.4-0.1,0.5-0.4c0-0.2,0.1-0.3,0.1-0.3C604.3,733.3,604.2,731.6,604,728.2z"/>
    <path d="M595.1,730.7c-0.2,0.3-0.4,0.8-0.1,1.1c0.1,0.2,0.2,0.4,0.5,0.4c0.1,0,0.2,0,0.4-0.1c2.4-2,3.5-2.9,5.9-4.9 c0.1-0.1,0.2-0.3,0.2-0.6c0-0.2,0-0.3-0.1-0.5l0,0c-0.4-0.2-0.6-0.3-0.9-0.1c0,0.1-0.1,0.1-0.1,0.1 C598.6,728,597.4,728.9,595.1,730.7z"/>
    <path d="M573.1,687.3c0-4,0-5.9,0-9.9l0,0c0-0.5-0.3-0.9-0.6-0.9c-0.1,0-0.4,0.1-0.4,0.1c-0.1,0.1-0.3,0.3-0.3,0.6c0,4,0,6,0,10.1 c0,0.2,0.1,0.4,0.1,0.5c0.1,0.2,0.3,0.4,0.4,0.4l0,0C572.8,688.1,573.1,687.8,573.1,687.3z"/>
    <path d="M588.5,690.6L588.5,690.6c0-0.5-0.2-1-0.6-1.1c-0.1,0-0.2,0-0.4,0.1c-0.1,0.1-0.2,0.3-0.2,0.6c0,4.3,0,6.4,0,10.7 c0,0.3,0,0.4,0,0.7c0,0.5,0.2,0.9,0.6,0.9c0.2,0,0.5-0.1,0.6-0.4c0-0.2,0-0.2,0-0.3C588.5,697.3,588.5,695,588.5,690.6z"/>
    <path d="M580.8,683.8c0-0.1,0-0.1,0-0.2c0-0.3-0.3-0.7-0.6-0.8c-0.1,0-0.1,0-0.3,0c-0.3,0.1-0.4,0.4-0.4,0.8c0,4.2,0,6.2,0,10.4 c0,0.1,0,0.2,0,0.3c0,0.5,0.3,0.9,0.6,0.9s0.4-0.1,0.5-0.2c0.1-0.1,0.1-0.3,0.1-0.5C580.8,690.2,580.8,688.1,580.8,683.8z"/>
    <path d="M580.1,967.9c-7.3-1.2-11.1-1.8-18.6-3c0-5.1,0-7.7,0-12.8c-4.6-0.7-6.9-1.1-11.5-1.8 c0,9.7,0,14.5-0.1,24.2c14.1,2.2,28.1,4.4,42.1,6.8c0-9.7,0-14.5,0-24.2c-4.8-0.8-7.2-1.2-12-2 C580.1,960.2,580.1,962.7,580.1,967.9z" fill="#F8D80E"/>
    <path d="M550.1,938.7c4.6,0.7,6.9,1.1,11.5,1.8c0-5.1,0-7.7,0-12.8c7.5,1.2,11.2,1.8,18.5,3c0,5.1,0,7.7,0,12.8 c4.8,0.8,7.2,1.2,12,2c0-9.6,0-14.4,0-24c-14-2.3-28-4.6-42-6.8C550.1,924.3,550.1,929.1,550.1,938.7z" fill="#F8D80E"/>
    <path d="M592.1,945.5c-4.8-0.8-7.2-1.2-12-2c0-5.1,0-7.7,0-12.8c-7.3-1.2-11-1.8-18.5-3c0,5.1,0,7.7,0,12.8 c-4.6-0.7-6.9-1.1-11.5-1.8c0-9.6,0-14.4,0.1-24c14,2.2,28,4.5,42,6.8c0-0.7,0-1,0-1.6c-14.4-2.4-28.9-4.7-43.3-7 c0,10.9,0,16.4-0.1,27.3c5.7,0.9,8.5,1.3,14.1,2.2c0-5.1,0-7.7,0-12.8c6.4,1,9.6,1.5,16,2.6c0,5.1,0,7.7,0,12.8 c5.4,0.9,8,1.3,13.3,2.2C592.1,946.5,592.1,946.2,592.1,945.5z"/>
    <path d="M592.1,981.2c-14-2.3-28.1-4.6-42.1-6.8c0-9.7,0-14.5,0.1-24.2c4.6,0.7,6.9,1.1,11.5,1.8c0,5.1,0,7.7,0,12.8 c7.5,1.2,11.2,1.8,18.6,3c0-5.1,0-7.7,0-12.8c4.8,0.8,7.3,1.2,12,2c0-0.7,0-1,0-1.6c-5.3-0.9-7.9-1.3-13.3-2.2c0,5.1,0,7.7,0,12.8 c-6.3-1-9.5-1.5-16-2.6c0-5.1,0-7.7,0-12.8c-5.6-0.9-8.4-1.3-14.1-2.2c0,11,0,16.5-0.1,27.5c14.5,2.3,29,4.6,43.4,7 C592.1,982.2,592.1,981.9,592.1,981.2z"/>
    <path d="M593.4,989.7c4.4,0.7,6.5,1.1,10.8,1.8c0,3.2,0,4.8,0,8.1c-4.3-0.7-6.4-1.1-10.8-1.8 C593.4,994.5,593.4,992.9,593.4,989.7z" fill="#F8D80E"/>
    <path d="M604.3,828.8c0-4.3,0-6.4,0-10.7c-2.2,1.3-3.2,1.9-5.4,3.2c-2.2-2-3.3-3-5.4-5c0,4.3,0,6.4,0,10.7 C597.8,827.7,600,828.1,604.3,828.8z" fill="#F8D80E"/>
    <path d="M593.4,827c0-4.3,0-6.4,0-10.7c-0.5-0.5-0.7-0.7-1.2-1.2c0,4.7,0,7,0,11.7C592.7,826.9,592.9,826.9,593.4,827z"/>
    <path d="M604.3,818.1c0,4.3,0,6.4,0,10.7c0.5,0.1,0.7,0.1,1.2,0.2c0-4.7,0-7,0-11.7C605,817.7,604.8,817.8,604.3,818.1z"/>
    <path d="M604.3,991.5c0,3.2,0,4.8,0,8.1c-4.3-0.7-6.5-1.1-10.9-1.8c0-3.2,0-4.8,0-8.1c-0.5-0.1-0.8-0.1-1.3-0.2c0,3.9,0,5.8,0,9.7 c5.4,0.9,8.1,1.4,13.4,2.2c0-3.9,0-5.8,0-9.7C605,991.6,604.8,991.6,604.3,991.5z"/>
    <path d="M593.4,828.6c4.3,0.7,6.5,1.1,10.7,1.8c0,53.1,0,106.2,0,159.3c-4.3-0.7-6.4-1.1-10.8-1.8 C593.4,934.9,593.4,881.8,593.4,828.6z" fill="#F8D80E"/>
    <path d="M604.3,828.8c-4.3-0.7-6.4-1.1-10.7-1.8c-0.5-0.1-0.7-0.1-1.2-0.2c0,31,0,62,0,93c0,0.7,0,1,0,1.6c0,9.7,0,14.5,0,24.2 c0,0.7,0,1,0,1.6c0,3.2,0,4.8,0,8.1c0,0.7,0,1,0,1.6c0,9.7,0,14.5,0,24.2c0,0.7,0,1,0,1.6c0,2.6,0,3.9,0,6.6 c0.5,0.1,0.8,0.1,1.3,0.2c4.4,0.7,6.5,1.1,10.8,1.8c0.5,0.1,0.7,0.1,1.2,0.2c0-54.2,0-108.4,0-162.6 C605,829,604.8,828.9,604.3,828.8z M604.3,989.8c-4.3-0.7-6.4-1.1-10.8-1.8c0-53.1,0-106.2,0.1-159.4c4.3,0.7,6.4,1.1,10.7,1.8 C604.3,883.6,604.3,936.7,604.3,989.8z"/>
    <path d="M557.5,773.6c0,5,0,7.5,0,12.5c2.6,0.4,4,0.6,6.6,1.1c11.7,10.6,23.4,21.3,34.8,32.1 c11.5-7,23-13.9,34.5-20.7c2.6,0.4,3.9,0.6,6.6,1c0-5,0-7.5,0-12.5c-2.6-0.4-3.9-0.6-6.6-1c-8.2-7.4-12.2-11.1-20.2-18.6l0,0 c-2.4-2.3-3.7-3.5-6.1-5.8l0,0c-3.3-3.1-4.9-4.7-8.2-7.8c-2,1.2-3,1.8-4.9,2.9c0,3.6,0,7.4,0,11c0,0.3,0,0.5,0,0.8 c2-1.2,3-1.8,4.9-2.9c3.2,3.1,4.8,4.6,8,7.6c0-0.1,0-0.1,0-0.2c1.9,1.8,2.8,2.8,4.7,4.6c5.7,5.3,8.5,7.9,14.3,13.2 c-9.1,5.3-18.1,10.8-27.1,16.2c-9-8.5-18.2-17-27.4-25.3c6.8-4,10.1-6,16.7-9.9c-0.2-1-0.4-2.2-0.4-3.4c0-2.8,0-5.4,0-8.2 c-9.4,5.6-14.1,8.4-23.8,14c-2.6-0.4-3.9-0.6-6.5-1C557.5,773.5,557.5,773.6,557.5,773.6z" fill="#F8D80E"/>
    <path d="M613.3,767.6c8,7.5,12,11.2,20.2,18.6c2.6,0.4,3.9,0.6,6.6,1c0,5,0,7.5,0,12.5c-2.6-0.4-3.9-0.6-6.6-1 c-11.6,6.8-23.1,13.7-34.5,20.7c-11.5-10.9-23.1-21.6-34.8-32.1c-2.6-0.4-4-0.6-6.6-1.1c0-5,0-7.5,0-12.5c2.6,0.4,4,0.6,6.6,1.1 c9.7-5.6,14.4-8.4,23.8-14c0-0.7,0-1.3,0-2c-9.5,5.6-14.3,8.5-24.2,14.1c-3-0.5-4.5-0.7-7.5-1.2c0,6.4,0,9.6,0,16 c3,0.5,4.5,0.7,7.5,1.2c9.6,8.7,19.1,17.4,28.5,26.3c0.5,0.5,0.7,0.7,1.2,1.2c2.2,2,3.3,3,5.4,5c2.2-1.3,3.2-1.9,5.4-3.2 c0.5-0.3,0.7-0.5,1.2-0.8c9.4-5.7,18.8-11.3,28.3-17c3,0.5,4.5,0.7,7.5,1.2c0-6.4,0-9.6,0-16c-3.1-0.5-4.6-0.7-7.6-1.2 c-8.4-7.5-12.5-11.3-20.6-18.8c0,0.2,0,0.3,0,0.5C613.3,766.7,613.3,767,613.3,767.6z"/>
    <path d="M598.9,807.5c9-5.5,18.1-10.9,27.1-16.2c-5.8-5.3-8.7-7.9-14.3-13.2c0.2,0.2,0.4,0.4,0.6,0.6c-0.1,0.2-0.1,0.4-0.2,0.6 c-0.1,0.3-0.2,0.5-0.4,0.8c4.7,4.4,7,6.6,11.8,11c-8.2,4.8-16.4,9.7-24.5,14.7c-8.2-7.7-16.4-15.3-24.7-22.9 c5.9-3.5,8.8-5.2,14.5-8.6c-0.1-0.5-0.2-1.2-0.4-1.7c-6.6,4-9.9,5.9-16.7,9.9C580.9,790.7,589.9,799,598.9,807.5z"/>
    <path d="M594,768.8c0,0.7,0,1.2,0.1,1.8c1.9-1.1,2.9-1.7,4.8-2.8c3,2.9,4.5,4.3,7.5,7.2c0.1-0.1,0.2-0.5,0.2-0.6 c0.1-0.3,0.1-0.5,0.2-0.8c-3.2-3-4.8-4.6-8-7.6C596.9,767.1,595.9,767.7,594,768.8z"/>
    <path d="M607.1,761.8c0-0.8,0-1.2,0-2c-3.3-3.1-4.9-4.7-8.2-7.8c-2,1.2-3,1.8-4.9,2.9c0,0.7,0,1.3,0,2c2-1.2,3-1.8,4.9-2.9 C602.2,757.1,603.8,758.7,607.1,761.8z"/>
    <path d="M608.5,738L608.5,738c0,9.3,0,13.9,0,23.2c1.4,1.4,2.2,2,3.6,3.4c0-3.5,0-6.9,0-10.4c0-6.3,0-12.7,0-18.9 C611,736.4,609.6,737.2,608.5,738z" fill="#F8D80E"/>
    <path d="M589.2,769.1c0.2,7.5,5.2,14.7,10.6,15.8c4.3,1.2,8.7-1.1,10.7-5.9c-1.2-1.2-1.9-1.8-3.1-3 c-1.4,3.4-4.4,5-7.5,4c-1.8-0.2-3.8-1.6-5.2-4c-1.5-2.4-2.4-5.5-2.1-8.3c0-4.4,0-9.1,0-13.7c0-7.2,0-14.8,0-22.1 c0.1-2.6,1.1-4.9,2.6-6.5c1.5-1.4,3.4-2,5.3-1.4c0.7,0,1.5,0.4,2.2,0.9c1.2,0.7,1.5,0.7,1.7,0.1c0.9-1.5,0.1-2.8-1.7-5.1 c-0.1-0.1-0.1-0.2-0.2-0.4c-0.9-0.3-1.6-0.4-2.4-0.4c-0.6-0.1-1.1-0.2-1.7-0.3c-5.3,0.1-9.6,6.6-9.3,14.1c0,4.6,0,9.2,0,13.7 C589.1,753.9,589.1,761.5,589.2,769.1z" fill="#F8D80E"/>
    <path d="M587.9,758.7c0,0.7,0,1.3,0,2c0,2.8,0,5.6,0,8.2c0,1.2,0.1,2.2,0.4,3.4c0.1,0.5,0.2,1.2,0.4,1.7c1.7,6.4,6.2,11.6,11,12.6 c0.4,0.1,0.7,0.1,1.1,0.2c4.4,0.8,8.6-2,10.9-6.9c0.1-0.3,0.2-0.5,0.4-0.8c0.1-0.2,0.1-0.4,0.2-0.6c-0.2-0.2-0.4-0.4-0.6-0.6 c-1.9-1.8-2.8-2.7-4.7-4.6c0,0.1,0,0.1,0,0.2c-0.1,0.3-0.1,0.5-0.2,0.8c-0.1,0.1-0.1,0.5-0.2,0.6c-1.1,2.8-3.7,4.1-6.3,3.4 c-1.6-0.3-3.2-1.4-4.3-3.2c-0.9-1.3-1.4-2.9-1.6-4.4c-0.1-0.7-0.1-1.2-0.1-1.8c0-0.3,0-0.5,0-0.8c0-3.6,0-7.4,0-11c0-0.7,0-1.3,0-2 c0-0.2,0-0.5,0-0.7c0-4.6,0-9.2,0-13.8c0-2.6,0-5.3,0-7.9c0-0.2,0-0.3,0-0.3c0-0.7,0.1-1.1,0.2-1.8c0.4-1.4,1-2.6,2-3.4 c1.2-1.1,2.7-1.5,4.2-1.3c0.1,0,0.2,0,0.2,0h0.1h0.1l0,0c0.2,0,0.5,0.1,0.9,0.1c0.2,0,0.5,0.2,0.7,0.5c0.5,0.2,1,0.5,1.5,0.7 c0.1,0,0.2,0,0.5,0.1c0.4,0.1,0.7-0.2,1-0.5c0.1-0.1,0.2-0.3,0.2-0.6c0.2-0.5,0.4-0.9,0.5-1.4c0.1-0.6,0.1-1.1,0-1.6 c-0.2-0.9-0.6-1.8-1.1-2.5c-0.2-0.4-0.6-0.8-0.9-1.1c-0.1-0.2-0.4-0.4-0.5-0.6c-0.2-0.3-0.4-0.5-0.6-0.8h-0.1l0,0 c-0.5-0.2-1-0.3-1.5-0.4s-0.9-0.1-1.3-0.2c-0.6-0.1-1.1-0.2-1.7-0.3l0,0l0,0c-2.6,0-4.8,1.3-6.7,3.5c-0.2,0.3-0.5,0.7-0.9,1 c-1.4,2.1-2.4,4.7-2.7,7.4c-0.1,0.5-0.1,1.1-0.1,1.6c0,0.7,0,1.3,0,2c0,2.3,0,4.4,0,6.8c0,2.3,0,4.6,0,6.9 C587.9,750.4,587.9,754.5,587.9,758.7z M589.1,746.7c0-4.6,0-9.1,0-13.7c-0.2-7.5,4-14,9.3-14.1c0.6,0.1,1.1,0.2,1.7,0.3 c0.9,0.1,1.7,0.3,2.4,0.4c0.1,0.1,0.1,0.2,0.2,0.4c1.8,2.3,2.6,3.6,1.7,5.1c-0.2,0.6-0.5,0.6-1.7-0.1c-0.7-0.5-1.5-0.9-2.2-0.9 c-1.8-0.5-3.8,0-5.3,1.4c-1.6,1.5-2.5,3.9-2.6,6.5c0,7.4,0,14.8,0,22.1c0,4.6,0,9.2,0,13.7c-0.2,2.8,0.6,5.9,2.1,8.3 c1.5,2.2,3.3,3.7,5.2,4c3.1,1,6.1-0.8,7.5-4c1.2,1.2,1.9,1.8,3.1,3c-2,4.8-6.4,7.3-10.7,5.9c-5.4-0.9-10.4-8.2-10.6-15.8 C589.1,761.5,589.1,753.9,589.1,746.7z"/>
    <path d="M613.2,734.5c0-0.3,0-0.7-0.1-1c0-0.2-0.1-0.4-0.1-0.5c0-0.2-0.1-0.2-0.1-0.4c-0.2-0.4-0.3-0.5-0.5-0.9 c0-0.1-0.1-0.2-0.1-0.4c-0.1,0.4-0.2,0.6-0.4,0.9c0,0.1,0,0.1,0,0.2c-0.1,0.3-0.4,0.8-0.6,1c-0.9,1.2-2.2,2.1-3.4,2.7 c-0.1,0.1-0.2,0.2-0.4,0.3c-0.1,0-0.1,0.1-0.2,0.1c0,0.5,0,0.8,0,1.3c0,1.9,0,2.9,0,4.8c0,6.9,0,10.3,0,17.1c0,0.8,0,1.2,0,2l0,0 c2.4,2.3,3.6,3.5,6.1,5.8l0,0c0-0.6,0-0.9,0-1.5c0-0.2,0-0.3,0-0.5c0-3.8,0-7.6,0-11.4c0-3.5,0-6.9,0-10.4c0-2.8,0-5.8,0-8.6 c0,0,0,0,0-0.2C613.2,735,613.2,734.7,613.2,734.5z M612,754.1c0,3.5,0,6.9,0,10.4c-1.4-1.4-2.2-2-3.6-3.4c0-9.3,0-13.9,0-23.2l0,0 c1.1-0.6,2.5-1.6,3.5-2.9C612.1,741.4,612,747.8,612,754.1z"/>
    <path d="M600,391.4c-11.8-2.4-18.1,8.8-18.3,19.3c0,13.9,0,27.8,0,41.7c0,0.7,0,1.1,0,1.8c0,6.7,0,10.1,0,16.8 c12.4,2.1,24.7,4.4,37,6.5c0-6.7,0-10.1,0-16.8c0-0.7,0-1.1,0-1.8c0-13.9,0-27.8,0-41.7C618.3,405.4,612,393.8,600,391.4z"/>
    <path d="M577.6,335.8c2.3,0.4,3.5,0.6,5.8,1c0,11.4,0,22.8,0,34.3c-2.3-0.4-3.5-0.6-5.8-1C577.5,358.7,577.6,347.3,577.6,335.8z"/>
    <path d="M597.3,329.6c2.2,0.4,3.3,0.6,5.6,1c0,15.8,0,31.6,0,47.4c-2.3-0.4-3.4-0.6-5.6-1C597.2,361.2,597.2,345.4,597.3,329.6z"/>
    <path d="M617.1,342.8c2.4,0.4,3.6,0.6,6,1c0,11.4,0,22.8,0,34.2c-2.4-0.4-3.6-0.6-6-1C617.1,365.7,617.1,354.2,617.1,342.8z"/>
    <path d="M559,307c-0.1,47.2-0.2,94.5-0.3,141.7c8.8,1.4,13.2,2.2,21.8,3.6c0-13.9,0-27.8,0-41.7 c0.2-11.3,6.8-23.2,19.5-20.8c12.6,2.4,20.1,15.2,20,27.7c0,13.9,0,27.8,0,41.7c8.7,1.5,13.1,2.2,22,3.6c0-47.2,0.1-94.4,0.1-141.5 C614.3,316.8,586.7,311.6,559,307z M584.6,373c-3.3-0.6-5-0.9-8.3-1.4c0-12.5,0-25,0.1-37.6c3.3,0.6,5,0.9,8.3,1.4 C584.6,347.9,584.6,360.5,584.6,373z M604.1,379.9c-3.3-0.6-4.9-0.9-8-1.4c0-16.9,0-33.8,0-50.7c3.2,0.6,4.8,0.9,8,1.5 C604.1,346.1,604.1,363,604.1,379.9z M624.3,379.9c-3.4-0.6-5.1-0.9-8.5-1.4c0-12.5,0-25,0-37.5c3.4,0.6,5.1,0.9,8.5,1.4 C624.3,354.9,624.3,367.4,624.3,379.9z" fill="#DA000C"/>
    <path d="M558.7,448.5c0.1-47.2,0.2-94.3,0.3-141.5c27.7,4.6,55.4,9.8,83.1,14.3c0,47.1-0.1,94.2-0.1,141.4c0.5,0.1,0.8,0.1,1.3,0.2 c0-47.2,0.1-94.5,0.1-141.7c-28.6-4.6-57.1-9.9-85.7-14.7c-0.1,47.3-0.2,94.6-0.3,141.8C557.9,448.4,558.2,448.5,558.7,448.5z"/>
    <path d="M600,389.7c-12.7-2.4-19.3,9.5-19.5,20.8c0,13.9,0,27.8,0,41.7c0.5,0.1,0.7,0.1,1.2,0.2c0-13.9,0-27.8,0-41.7 c0.2-10.5,6.5-21.7,18.3-19.3c12,2.4,18.3,14,18.7,25.8c0,13.9,0,27.8,0,41.7c0.5,0.1,0.8,0.1,1.3,0.2c0-13.9,0-27.8,0-41.7 C620.1,404.9,612.6,392.1,600,389.7z"/>
    <path d="M615.8,378.5c3.4,0.6,5.1,0.9,8.5,1.4c0-12.5,0-25,0-37.5c-3.4-0.6-5.1-0.9-8.5-1.4C615.8,353.5,615.8,366,615.8,378.5z M617.1,342.8c2.4,0.4,3.6,0.6,6,1c0,11.4,0,22.8,0,34.2c-2.4-0.4-3.6-0.6-6-1C617.1,365.7,617.1,354.2,617.1,342.8z"/>
    <path d="M596,378.5c3.2,0.6,4.8,0.9,8,1.4c0-16.9,0-33.8,0-50.7c-3.3-0.6-4.9-0.9-8-1.5C596,344.6,596,361.5,596,378.5z M597.3,329.6c2.2,0.4,3.3,0.6,5.6,1c0,15.8,0,31.6,0,47.4c-2.3-0.4-3.4-0.6-5.6-1C597.2,361.2,597.2,345.4,597.3,329.6z"/>
    <path d="M576.3,371.5c3.3,0.6,5,0.9,8.3,1.4c0-12.5,0-25,0-37.6c-3.3-0.6-5-0.9-8.3-1.4C576.3,346.5,576.3,359,576.3,371.5z M577.6,335.8c2.3,0.4,3.5,0.6,5.8,1c0,11.4,0,22.8,0,34.3c-2.3-0.4-3.5-0.6-5.8-1C577.5,358.7,577.6,347.3,577.6,335.8z"/>
    <path d="M551,285c33,5.4,66,11.6,99,16.8c0,7.5,0,11.3,0,18.8c-33.1-5.3-66-11.4-99.1-16.8 C551,296.3,551,292.5,551,285z" fill="#DA000C"/>
    <path d="M643.4,321.2c3.2,0.5,4.8,0.8,8.1,1.3c0-8.2,0-12.2,0-20.4c-0.5-0.1-0.8-0.1-1.3-0.2c0,7.5,0,11.3,0,18.8 c-33.1-5.3-66.1-11.4-99.2-16.8c0-7.5,0-11.3,0-18.8c-0.5-0.1-0.8-0.1-1.3-0.2c0,8.2,0,12.3,0,20.4c3.2,0.5,4.8,0.8,8,1.3 C586.3,311.2,614.8,316.5,643.4,321.2z"/>
    <path d="M651.5,300.4c3.4,0.5,5.1,0.8,8.6,1.3c0-8.8,0-13.2,0-22c-5.8-0.9-8.6-1.3-14.3-2.2c0,5.3,0,7.9,0,13.2 c-7.6-1.2-11.3-1.8-18.7-3.1c0-5.3,0-7.9,0-13.2c-7.3-1.2-10.9-1.9-18.1-3.1c0,5.3,0,7.9,0,13.2c-7.2-1.3-10.6-1.9-17.6-3.2 c0-5.3,0-7.9,0-13.2c-6.9-1.2-10.4-1.8-17.6-3.1c0,5.3,0,7.9,0,13.2c-7.2-1.2-10.9-1.8-18.4-3.1c0-5.3,0-7.9,0-13.2 c-5.6-0.9-8.4-1.4-14.1-2.3c0,8.8,0,13.2-0.1,22.1c3.4,0.5,5.1,0.8,8.4,1.3C583.7,288.7,617.5,295,651.5,300.4z" fill="#DA000C"/>
    <path d="M551,285c33,5.4,66,11.6,99,16.8c0.5,0.1,0.8,0.1,1.3,0.2c3.9,0.6,5.9,0.9,9.9,1.5c0-10.1,0-15.2,0-25.3 c-6.8-1-10.1-1.5-16.8-2.6c0,5.2,0,7.8,0,13c-6.5-1-9.7-1.6-16-2.6c0-5.2,0-7.8,0-13c-8.4-1.4-12.5-2.1-20.6-3.6c0,5.2,0,7.8,0,13 c-6.2-1.1-9.1-1.7-15.1-2.7c0-5.2,0-7.8,0-13c-7.9-1.4-11.9-2.1-20-3.5c0,5.2,0,7.8,0,13c-6.3-1.1-9.5-1.6-15.9-2.7 c0-5.2,0-7.8,0-13c-6.6-1.1-9.9-1.6-16.7-2.7c0,10.1,0,15.2-0.1,25.4c3.9,0.6,5.9,0.9,9.8,1.5C550.3,284.9,550.5,284.9,551,285z M541.4,259.7c5.7,0.9,8.5,1.3,14.1,2.3c0,5.2,0,7.8,0,13c7.4,1.2,11,1.8,18.2,3c0-5.2,0-7.8,0-13c7.1,1.2,10.7,1.8,17.6,3.1 c0,5.2,0,7.8,0,13c7,1.2,10.4,1.9,17.6,3.2c0-5.2,0-7.8,0-13c7.1,1.3,10.8,1.9,18.1,3.1c0,5.2,0,7.8,0,13 c7.5,1.3,11.2,1.9,18.9,3.1c0-5.2,0-7.8,0-13c5.7,0.9,8.6,1.3,14.3,2.2c0,8.8,0,13.2,0,22c-3.4-0.5-5.1-0.8-8.6-1.3 c-33.9-5.4-67.7-11.7-101.6-17.3c-3.4-0.5-5-0.8-8.4-1.3c0-8.8,0-13.2,0.1-22.1C541.4,259.7,541.4,259.7,541.4,259.7z"/>
    <path d="M532.3,507.4c45.4,7,90.6,15.4,136.1,22.1c5.9,0.9,8.9,1.3,14.8,2.1c0-5.3,0-7.9,0-13.2 c-8.1-1.1-12.1-1.7-20.1-2.9c-41.9-6.3-83.6-14.1-125.5-20.6c-7.9-1.2-12-1.8-20-3c0,5.3,0,7.9,0,13.2 C523.5,506.1,526.4,506.5,532.3,507.4z" fill="#DA000C"/>
    <path d="M531.6,508.9c0-0.3,0-0.5,0-0.8c0-0.5,0.3-0.8,0.7-0.7c-5.9-0.9-8.8-1.3-14.8-2.2c0-5.3,0-7.9,0-13.2 c-0.5-0.1-0.8-0.1-1.3-0.2c0,5.9,0,8.9,0,14.8C522.4,507.6,525.5,508,531.6,508.9z"/>
    <path d="M668.4,529.5c0.4,0.1,0.7,0.4,0.7,0.9c0,0.3,0,0.5,0,0.8c6.2,0.9,9.3,1.3,15.5,2.2c0-5.9,0-8.9,0-14.8 c-0.5-0.1-0.8-0.1-1.3-0.2c0,5.3,0,7.9,0,13.2C677.2,530.8,674.3,530.4,668.4,529.5z"/>
    <path d="M525.7,445.1c-6.1-0.9-9.1-1.4-15.2-2.2c0,15.5-0.1,31-0.1,46.5c1.3,0.2,2,0.3,3.4,0.5 c1,0.1,1.5,0.2,2.5,0.4c9.2,1.3,13.7,2,22.7,3.4c41,6.4,81.8,14,122.8,20.2c9,1.3,13.6,2,22.8,3.3c1,0.1,1.5,0.2,2.6,0.4 c1.3,0.2,2,0.3,3.4,0.5c0-15.5,0-30.9,0-46.4c-6.1-0.8-9.2-1.3-15.3-2.1c-0.5-0.1-0.8-0.1-1.3-0.2c0,7.4,0,11.2,0,18.6 c-10-1.4-14.9-2.2-24.7-3.7c0-7.4,0-11.2,0-18.6c-9.7-1.5-19.5-3.1-29.2-4.7c0,7.4,0,11.2,0,18.6c-13.2-2.2-26.4-4.6-39.6-6.9 c0-7.4,0-11.2,0-18.6c-9.6-1.6-19.2-3.2-28.8-4.8c0,7.4,0,11.2,0,18.6c-9.7-1.5-14.6-2.3-24.5-3.8c0-7.5,0-11.2,0.1-18.6 C526.5,445.2,526.2,445.1,525.7,445.1z" fill="#DA000C"/>
    <path d="M524.4,443.2c-5.5-0.8-8.2-1.2-13.8-2c-0.5-0.1-0.8-0.1-1.3-0.2c-0.1,0-0.1,0-0.1,0c0,7.4,0,11.1-0.1,18.5c0,0.7,0,1,0,1.6 c0,5.3,0,8,0,13.4c0,0.7,0,1.1,0,1.8c0,5.1,0,7.7,0,12.9c0,0.7,0,1,0,1.6c2.4,0.3,3.6,0.5,6,0.9c0.4,0.1,0.6,0.1,1.1,0.2 s0.8,0.1,1.3,0.2c8.1,1.2,12.2,1.8,20.2,3c41.8,6.5,83.5,14.3,125.3,20.6c8,1.2,12.1,1.8,20.3,2.9c0.5,0.1,0.8,0.1,1.3,0.2 c0.4,0.1,0.6,0.1,1.1,0.1c2.4,0.3,3.6,0.5,6.1,0.8c0-0.7,0-1,0-1.6c0-5.1,0-7.7,0-12.8c0-0.7,0-1.1,0-1.8c0-5.3,0-8,0-13.3 c0-0.7,0-1,0-1.6c0-7.4,0-11.1,0-18.4c-0.1,0-0.1,0-0.1,0c-0.5-0.1-0.8-0.1-1.3-0.2c-5.6-0.8-8.3-1.1-13.8-1.9 c-0.5-0.1-0.8-0.1-1.3-0.2c-1.1-0.2-1.6-0.2-2.7-0.4c0,7.4,0,11.1,0,18.4c-8.9-1.3-13.3-1.9-22.1-3.3c0-7.4,0-11.1,0-18.4 c-2.9-0.5-4.4-0.7-7.3-1.1c-0.5-0.1-0.8-0.1-1.3-0.2c-8.8-1.4-13.2-2.1-21.8-3.6c-0.5-0.1-0.8-0.1-1.3-0.2c0,0.7,0,1.1,0,1.8 c0,6.7,0,10.1,0,16.8c-12.4-2.1-24.7-4.4-37-6.5c0-6.7,0-10.1,0-16.8c0-0.7,0-1.1,0-1.8c-0.5-0.1-0.7-0.1-1.2-0.2 c-8.6-1.5-12.9-2.2-21.8-3.6c-0.5-0.1-0.8-0.1-1.3-0.2c-2.9-0.5-4.3-0.7-7.2-1.2c0,7.4,0,11.1,0,18.5c-8.7-1.4-13.1-2.1-21.9-3.4 c0-7.4,0-11.1,0.1-18.5c-1.1-0.2-1.6-0.2-2.7-0.4C525.1,443.3,524.9,443.3,524.4,443.2z M551.5,467.7c0-7.4,0-11.1,0-18.5 c9.6,1.5,19.2,3.1,28.8,4.8c0,7.4,0,11.1,0,18.5c13.2,2.3,26.4,4.7,39.6,6.9c0-7.4,0-11.1,0-18.4c9.7,1.6,19.5,3.2,29.2,4.7 c0,7.4,0,11.1,0,18.4c9.8,1.5,14.7,2.2,24.7,3.7c0-7.4,0-11.1,0-18.4c0.5,0.1,0.8,0.1,1.3,0.2c6.1,0.9,9.2,1.3,15.3,2.1 c0,15.5,0,30.9,0,46.4c-1.3-0.2-2-0.3-3.4-0.5c-1-0.1-1.5-0.2-2.4-0.3c-9.2-1.3-13.8-1.9-22.9-3.3c-41-6.2-81.7-13.8-122.7-20.2 c-9-1.4-13.6-2.1-22.8-3.4c-1-0.1-1.4-0.2-2.4-0.3c-1.3-0.2-2-0.3-3.4-0.5c0-15.5,0.1-31,0.1-46.5c6.1,0.9,9.2,1.3,15.2,2.2 c0.5,0.1,0.8,0.1,1.3,0.2c0,7.4,0,11.1-0.1,18.5C537,465.4,541.9,466.1,551.5,467.7z"/>
    <path d="M564,622.7c-0.3-21.2,11.4-45,36-40c23.8,4.8,37,28.9,36.2,52.2c0,21.5,0,43,0,64.5 c10.5,1.7,21,3.2,31.5,4.7c0-57.7,0.1-115.3,0.1-173c-45.1-6.7-89.9-15-134.9-22c-0.2,57.8-0.3,115.5-0.5,173.3 c10.5,1.6,21,3.2,31.5,4.9C563.9,665.8,564,644.2,564,622.7C564.1,622.7,564,622.7,564,622.7z" fill="#DA000C"/>
    <path d="M565.2,682.4c0-4.4,0-6.5,0-10.9c0-0.5,0-0.8,0-1.3c0-15.7,0.1-31.4,0.1-47.1c-0.6-15.8,5.9-36,23.7-38.9 c3.3-0.6,7.1-0.5,10.9,0.3c22.7,4.4,35.7,27.9,34.9,50.3c0,15.8,0,31.5,0,47.3c0,0.6,0,0.9,0,1.5c0,4.5,0,6.8,0,11.4 c0,0.6,0,0.9,0,1.5c0,1.3,0,2,0,3.3c0,0.3,0,0.4,0,0.7c0,0.5,0.3,0.9,0.6,0.9c10.9,1.7,21.9,3.3,32.8,4.9c0.4,0.1,0.7-0.2,0.7-0.7 c0-0.3,0-0.4,0-0.7c0-3.3,0-4.9,0-8.2l0,0c0-0.7,0-1,0-1.6c0-54.5,0.1-109.1,0.1-163.6c0-0.3,0-0.5,0-0.8c0-0.5-0.3-0.9-0.7-0.9 c-45.5-6.7-90.6-15.2-136.1-22.1c-0.4-0.1-0.7,0.2-0.7,0.7c0,0.3,0,0.5,0,0.8c-0.1,54.6-0.3,109.2-0.4,163.9c0,0.7,0,1,0,1.6l0,0 c0,3.2,0,4.8,0,8.1c0,0.2,0,0.3,0,0.5c0,0.5,0.3,0.9,0.7,0.9c10.9,1.7,21.9,3.4,32.8,5.1c0.4,0.1,0.6-0.2,0.6-0.7 c0-0.3,0-0.4,0-0.7c0-1.5,0-2.3,0-3.8c0-0.6,0-0.9,0-1.5C565.2,682.4,565.2,682.4,565.2,682.4z M532.5,682.4 c0.2-57.8,0.3-115.5,0.5-173.3c45,6.9,89.8,15.3,134.9,22c0,57.7-0.1,115.3-0.1,173c-10.5-1.5-21-3.1-31.5-4.7c0-21.5,0-43,0-64.5 c0.8-23.3-12.4-47.4-36.2-52.2c-24.5-4.9-36.3,18.9-36,40c0,21.5-0.1,43.1-0.1,64.6C553.4,685.6,543,684,532.5,682.4z"/>
  </g>
  <g opacity="0.3">
    <path d="M259.7,185c127.9,0,223.7,15.9,325.2,32.8C688.7,235,796.1,252.9,941,252.9c44.4,0,90-6.1,135.4-18.1 c30.5-8.1,61.9-19,93.6-32.7v757.2c-36.8,17.4-73.5,30.8-109.2,40c-40.5,10.4-81.1,15.7-120.8,15.7c-140.1,0-243.6-16.8-343.7-33 c-98.9-16.1-201.3-32.7-336.6-32.7c-45.7,0-91.1,5.3-135.1,15.8C93,972.6,61.3,982.9,30,996V241.6c37.1-17.6,73.8-31.2,109.2-40.5 C179.9,190.4,220.4,185,259.7,185 M1200,155c-89.2,45-174.4,67.9-259,67.9c-280.7,0-416.7-67.9-681.3-67.9 C175.2,155,89.1,178,0,222.9c0,242.4,0,577.6,0,820c89-44.9,175.2-63.6,259.7-63.6c268.9,0,398.5,65.7,680.3,65.7 c84.6,0,170.8-22,260-66.9C1200,735.7,1200,397.4,1200,155L1200,155z" fill="#212121"/>
  </g>
</svg>