<svg viewBox="0 0 1200 890" xmlns="http://www.w3.org/2000/svg" xmlns:xlink="http://www.w3.org/1999/xlink">
  <g>
    <path d="M1185.6,557.9c-13.9,7-28,13.5-42.4,19.6c0-0.9,0-1.4,0-2.3c-1.9,0.8-2.8,1.2-4.7,1.9c0,0.9,0,1.4,0,2.3 c-13.8,5.4-27.6,10.4-41.7,14.9c0-0.9,0-1.4,0-2.3c-1.8,0.6-2.8,0.9-4.6,1.4c0,0.9,0,1.4,0,2.3c-13.9,4-27.8,7.5-41.9,10.6 c0-0.9,0-1.4,0-2.3c-1.9,0.4-2.8,0.6-4.7,1c0,0.9,0,1.4,0,2.3c-14.3,2.7-28.6,4.9-43.1,6.7c0-0.9,0-1.4,0-2.3 c-2,0.2-2.9,0.3-4.9,0.5c0,0.9,0,1.4,0,2.3c-15.1,1.4-30.2,2.4-45.3,3c0-0.9,0-1.4,0-2.3c-2.1,0.1-3.1,0.1-5.2,0.1 c0,0.9,0,1.4,0,2.3c-16.2,0.4-32.5,0.2-48.7-0.2c0-0.9,0-1.4,0-2.3c-2.3-0.1-3.4-0.1-5.7-0.1c0,0.9,0,1.4,0,2.3 c-17.6-0.6-35.1-1.4-52.6-2.4c0-0.9,0-1.4,0-2.3c-2.4-0.1-3.6-0.2-6-0.4c0,0.9,0,1.4,0,2.3c-18.3-1.2-36.5-2.6-54.8-4.2 c0-0.9,0-1.4,0-2.3c-2.5-0.2-3.7-0.3-6.1-0.6c0,0.9,0,1.4,0,2.3c-18.4-1.8-36.8-3.7-55.1-5.9c0-0.9,0-1.4,0-2.3 c-2.4-0.3-3.6-0.4-6.1-0.7c0,0.9,0,1.4,0,2.3c-17.9-2.3-35.7-4.7-53.5-7.4c0-0.9,0-1.4,0-2.3c-2.3-0.4-3.5-0.5-5.8-0.9 c0,0.9,0,1.4,0,2.3c-16.7-2.7-33.4-5.5-50.1-8.6c0-0.9,0-1.4,0-2.3c-2.1-0.4-3.2-0.6-5.3-1c0,0.9,0,1.4,0,2.3 c-16.5-3.2-33.1-6-49.7-8.7c0-0.9,0-1.4,0-2.3c-2.3-0.4-3.5-0.6-5.8-0.9c0,0.9,0,1.4,0,2.3c-17.8-2.8-35.6-5.3-53.4-7.7 c0-0.9,0-1.4,0-2.3c-2.4-0.3-3.6-0.5-6.1-0.8c0,0.9,0,1.4,0,2.3c-18.4-2.3-36.8-4.4-55.2-6.4c0-0.9,0-1.4,0-2.3 c-2.5-0.3-3.7-0.4-6.2-0.6c0,0.9,0,1.4,0,2.3c-18.3-1.8-36.6-3.3-55-4.7c0-0.9,0-1.4,0-2.3c-2.4-0.2-3.6-0.3-6-0.4 c0,0.9,0,1.4,0,2.3c-17.6-1.1-35.2-2-52.8-2.7c0-0.9,0-1.4,0-2.3c-2.3-0.1-3.4-0.1-5.7-0.2c0,0.9,0,1.4,0,2.3 c-16.2-0.5-32.4-0.6-48.6-0.3c0-0.9,0-1.4,0-2.3c-2.1,0-3.1,0.1-5.1,0.1c0,0.9,0,1.4,0,2.3c-14.8,0.5-29.6,1.3-44.4,2.4 c0-0.9,0-1.4,0-2.3c-1.9,0.2-2.9,0.3-4.8,0.5c0,0.9,0,1.4,0,2.3c-14,1.5-27.9,3.5-41.8,5.9c0-0.9,0-1.4,0-2.3 c-1.8,0.3-2.7,0.5-4.6,0.9c0,0.9,0,1.4,0,2.3c-13.8,2.9-27.4,6.1-41,9.9c0-0.9,0-1.4,0-2.3c-1.8,0.5-2.7,0.8-4.6,1.3 c0,0.9,0,1.4,0,2.3c-14.1,4.4-28,9.3-41.9,14.5c0-0.9,0-1.4,0-2.3c-1.9,0.7-2.9,1.1-4.8,1.9c0,0.9,0,1.4,0,2.3 c-15.1,6-29.9,12.8-44.5,19.8c0-0.9,0-1.4,0-2.3c-6.2,3-9.3,4.5-15.6,7.8c0,91.2,0,182.3,0,273.5c49.7-24.1,100.6-44.9,155.1-55.1 c47.3-8.8,95.7-10,143.7-8.8c101,2.6,202,15,301.2,33.5s200.3,29.6,301.2,31.8c107,2.4,203.7-17.1,298.8-67.1 c0-91.4,0-182.7,0-274.1c-5.8,3.1-8.7,4.6-14.4,7.5C1185.6,556.5,1185.6,557,1185.6,557.9z M15.7,620.2 c20.9-9.9,41.9-19,63.5-27.1c0,1.8,0,2.7,0,4.6c-21.6,8.1-42.6,17.2-63.5,27.1C15.7,623,15.7,622.1,15.7,620.2z M31,643.1 c-2,0.9-3,1.4-5,2.3c0-1.8,0-2.7,0-4.6c2-0.9,3-1.4,5-2.3C31,640.4,31,641.3,31,643.1z M59.7,630.8c-9,3.6-13.6,5.6-23,9.8 c0-5.1,0-7.6,0-12.7c-6.5,2.9-9.8,4.4-16.5,7.6c0,5.5,0,8.2,0,13.7c-1.5,0.7-2.2,1-3.7,1.8c0-7.3,0-10.9,0-18.2 c9.7-4.7,14.4-6.9,23.7-11c0,5.1,0,7.6,0,12.7c6.5-2.9,9.7-4.2,16-6.8c0-3.3,0-4.9,0-8.2c-4.1,1.7-6.2,2.6-10.4,4.4 c0-1.8,0-2.7,0-4.6c5.6-2.4,8.4-3.6,13.8-5.8C59.6,620.4,59.7,623.8,59.7,630.8z M106.4,614.3c-8.6,2.6-13,4-21.7,7.1 c0-5.1,0-7.7-0.1-12.8c-6.1,2.1-9.2,3.3-15.4,5.7c0,3.3,0,4.9,0,8.2c4.1-1.6,6.1-2.3,10.1-3.8c0,1.8,0,2.7,0,4.6 c-5.3,1.9-8,2.9-13.5,5.1c0-6.9-0.1-10.4-0.1-17.3c7.6-3,11.4-4.4,18.8-7c0-5.5,0-8.2-0.1-13.7c1.3-0.5,2-0.7,3.3-1.2 c0.1,10.6,0.1,15.9,0.1,26.4c2.4-0.8,3.6-1.2,5.9-2c-0.1-10.6-0.1-15.9-0.1-26.4c1.3-0.4,2-0.6,3.3-1.1C97,596.7,97,602,97,612.5 c2.4-0.8,3.5-1.1,5.9-1.9c-0.1-10.6-0.1-15.9-0.1-26.4c1.3-0.4,2-0.6,3.3-1C106.3,593.6,106.3,604,106.4,614.3z M111.4,582.7 c19.6-5.4,39.2-9.7,59.3-13.1c0,1.8,0,2.7,0,4.6c-20.1,3.1-39.7,7.6-59.3,13C111.5,585.4,111.5,584.5,111.4,582.7z M125.2,609 c-1.8,0.5-2.7,0.7-4.5,1.2c0-1.8,0-2.7,0-4.6c1.8-0.5,2.7-0.7,4.5-1.2C125.2,606.3,125.2,607.2,125.2,609z M151.8,603 c-8.6,1.7-12.9,2.6-21.4,4.7c0-5.1,0-7.7-0.1-12.8c-6,1.5-8.9,2.2-14.9,3.9c0,5.5,0,8.2,0.1,13.7c-1.3,0.4-2,0.5-3.3,0.9 c0-7.3-0.1-10.9-0.1-18.2c8.6-2.5,12.9-3.6,21.4-5.6c0,5.1,0,7.7,0.1,12.8c6-1.4,8.9-2.1,14.9-3.3c0-3.3,0-4.9,0-8.2 c-3.9,0.8-5.8,1.2-9.7,2.1c0-1.8,0-2.7,0-4.6c5.2-1.2,7.8-1.7,13-2.7C151.8,592.6,151.8,596.1,151.8,603z M198.1,596.3 c-8.9,0.9-13.3,1.4-22,2.7c0-5.1,0-7.7,0-12.8c-6.1,0.9-9.1,1.3-15.1,2.4c0,3.3,0,4.9,0,8.2c3.9-0.7,5.9-1,9.8-1.6 c0,1.8,0,2.7,0,4.6c-5.3,0.8-7.9,1.2-13.1,2.2c0-6.9,0-10.4-0.1-17.3c7.3-1.3,11-1.9,18.4-3c0-5.5,0-8.2,0-13.7 c1.3-0.2,2-0.3,3.3-0.5c0,10.6,0,15.9,0.1,26.5c2.4-0.3,3.6-0.5,6-0.8c0-10.6,0-15.9-0.1-26.5c1.3-0.2,2-0.2,3.3-0.4 c0,10.6,0,15.9,0.1,26.5c2.4-0.3,3.6-0.4,6-0.7c0-10.6,0-15.9,0-26.5c1.3-0.1,2-0.2,3.4-0.3C198,575.6,198.1,586,198.1,596.3z M203.5,565.6c21.7-1.7,43.4-2.5,65.2-2.7c0,1.8,0,2.7,0,4.6c-21.8,0.2-43.5,0.9-65.2,2.7C203.5,568.4,203.5,567.5,203.5,565.6z M217.9,594.7c-1.9,0.1-2.9,0.2-4.8,0.3c0-1.8,0-2.7,0-4.6c1.9-0.1,2.9-0.2,4.8-0.3C217.9,592,217.9,592.9,217.9,594.7z M247.1,593.4c-9.6,0.2-14.3,0.4-23.6,0.9c0-5.1,0-7.7,0-12.8c-6.4,0.4-9.6,0.6-15.9,1.1c0,5.5,0,8.2,0,13.7 c-1.4,0.1-2.1,0.2-3.4,0.3c0-7.3,0-11,0-18.3c9-0.8,13.6-1.1,22.9-1.6c0,5.1,0,7.7,0,12.8c6.5-0.3,9.8-0.5,16.4-0.7 c0-3.3,0-4.9,0-8.2c-4.3,0.1-6.5,0.2-10.8,0.4c0-1.8,0-2.7,0-4.6c5.7-0.2,8.6-0.3,14.4-0.5C247.1,583,247.1,586.5,247.1,593.4z M300.8,593.6c-10.6-0.3-15.8-0.4-26-0.4c0-5.1,0-7.7,0-12.8c-7.1,0-10.6,0-17.4,0.1c0,3.3,0,4.9,0,8.2c4.5-0.1,6.7-0.1,11.3-0.1 c0,1.8,0,2.7,0,4.6c-6.1,0-9.1,0-15,0.1c0-7,0-10.4,0-17.4c8.3-0.1,12.5-0.2,21.1-0.1c0-5.5,0-8.2,0-13.7c1.5,0,2.3,0,3.9,0 c0,10.6,0,15.9,0,26.5c2.8,0,4.2,0,7,0.1c0-10.6,0-15.9,0-26.5c1.6,0,2.4,0,3.9,0.1c0,10.6,0,15.9,0,26.5c2.8,0.1,4.3,0.1,7.2,0.2 c0-10.6,0-15.9,0-26.5c1.6,0,2.4,0.1,4,0.1C300.8,572.9,300.8,583.2,300.8,593.6L300.8,593.6z M307.3,563.6 c25.7,0.9,51.4,2.5,77,4.5c0,1.8,0,2.7,0,4.6c-25.7-2-51.3-3.5-77-4.5C307.3,566.3,307.3,565.4,307.3,563.6z M324.5,594.5 c-2.3-0.1-3.5-0.2-5.8-0.2c0-1.8,0-2.7,0-4.6c2.3,0.1,3.5,0.1,5.8,0.2C324.5,591.7,324.5,592.6,324.5,594.5z M359.2,596.4 c-9.3-0.6-18.7-1.2-28-1.6c0-5.1,0-7.7,0-12.8c-7.7-0.4-11.5-0.5-19-0.8c0,5.5,0,8.2,0,13.7c-1.6-0.1-2.5-0.1-4.1-0.1 c0-7.3,0-11,0-18.3c10.7,0.4,16.2,0.6,27.3,1.2c0,5.1,0,7.7,0,12.8c7.7,0.4,11.6,0.6,19.5,1.1c0-3.3,0-4.9,0-8.2 c-5.1-0.3-7.7-0.5-12.8-0.8c0-1.8,0-2.7,0-4.6c6.8,0.4,10.2,0.6,17,1.1C359.2,586,359.2,589.4,359.2,596.4z M420.2,601.5 c-9.6-1-19.3-1.8-28.9-2.7c0-5.1,0-7.7,0-12.8c-8-0.7-12-1-20-1.6c0,3.3,0,4.9,0,8.2c5.2,0.4,7.8,0.6,13,1c0,1.8,0,2.7,0,4.6 c-7-0.6-10.4-0.8-17.3-1.3c0-7,0-10.4,0-17.4c9.7,0.7,14.5,1.1,24.3,1.9c0-5.5,0-8.2,0-13.7c1.7,0.1,2.6,0.2,4.4,0.4 c0,10.6,0,15.9,0,26.5c3.1,0.3,4.7,0.4,7.9,0.7c0-10.6,0-15.9,0-26.5c1.8,0.2,2.6,0.2,4.4,0.4c0,10.6,0,15.9,0,26.5 c3.2,0.3,4.7,0.4,7.9,0.8c0-10.6,0-15.9,0-26.5c1.8,0.2,2.6,0.3,4.4,0.4C420.2,580.8,420.2,591.1,420.2,601.5L420.2,601.5z M427.2,572c26.5,2.8,52.9,6,79.4,9.6c0,1.8,0,2.7,0,4.6c-26.4-3.6-52.8-6.8-79.4-9.6C427.2,574.8,427.2,573.8,427.2,572z M445.7,604.2c-2.5-0.3-3.7-0.4-6.2-0.7c0-1.8,0-2.7,0-4.6c2.5,0.3,3.7,0.4,6.2,0.7C445.7,601.4,445.7,602.3,445.7,604.2z M481.5,608.5c-9.6-1.2-19.2-2.4-28.8-3.5c0-5.1,0-7.7,0-12.8c-8.1-0.9-12.1-1.4-20.2-2.2c0,5.5,0,8.2,0,13.7 c-1.8-0.2-2.6-0.3-4.4-0.5c0-7.3,0-11,0-18.3c9.7,1,19.3,2.1,29,3.2c0,5.1,0,7.7,0,12.8c8.1,0.9,12.1,1.4,20.1,2.4 c0-3.3,0-4.9,0-8.2c-5.2-0.7-7.8-1-13.1-1.6c0-1.8,0-2.7,0-4.6c7,0.8,10.5,1.3,17.4,2.2C481.5,598,481.5,601.5,481.5,608.5z M541.1,616.9c-9.2-1.5-18.5-2.8-27.7-4.2c0-5.1,0-7.7,0-12.8c-7.8-1.1-11.8-1.7-19.7-2.7c0,3.3,0,4.9,0,8.2 c5.2,0.7,7.8,1,12.9,1.8c0,1.8,0,2.7,0,4.6c-6.8-1-10.3-1.4-17.2-2.3c0-6.9,0-10.4,0-17.4c9.7,1.3,14.5,1.9,24,3.3 c0-5.5,0-8.2,0-13.7c1.7,0.2,2.6,0.4,4.2,0.6c0,10.6,0,15.9,0,26.5c3.1,0.4,4.6,0.7,7.6,1.1c0-10.6,0-15.9,0-26.5 c1.7,0.3,2.5,0.4,4.2,0.6c0,10.6,0,15.9,0,26.5c3,0.5,4.5,0.7,7.5,1.2c0-10.6,0-15.9,0-26.5c1.7,0.3,2.5,0.4,4.1,0.6 C541.1,596.2,541.1,606.6,541.1,616.9z M547.7,587.8c23.8,3.9,47.5,8.4,71.2,12.7c0,1.8,0,2.7,0,4.6c-23.7-4.3-47.4-8.8-71.2-12.7 C547.7,590.6,547.7,589.7,547.7,587.8z M564.7,620.8c-2.2-0.4-3.4-0.6-5.6-1c0-1.8,0-2.7,0-4.6c2.3,0.4,3.4,0.6,5.6,1 C564.7,618.1,564.7,619,564.7,620.8z M596.6,626.6c-10-1.9-15.1-2.8-25.5-4.6c0-5.1,0-7.7,0-12.8c-7.3-1.3-11-1.9-18.5-3.1 c0,5.5,0,8.2,0,13.7c-1.6-0.3-2.4-0.4-4.1-0.7c0-7.3,0-11,0-18.3c10.8,1.7,16.1,2.6,26.5,4.5c0,5.1,0,7.7,0,12.8 c7.2,1.3,10.8,1.9,17.8,3.2c0-3.3,0-4.9,0-8.2c-4.6-0.9-6.9-1.3-11.5-2.1c0-1.8,0-2.7,0-4.6c6.2,1.1,9.3,1.7,15.3,2.8 C596.6,616.2,596.6,619.6,596.6,626.6z M651.9,636.2c-10.9-1.7-16.2-2.6-26.7-4.4c0-5.1,0-7.7,0-12.8c-7.3-1.3-10.9-1.9-18-3.2 c0,3.3,0,4.9,0,8.2c4.6,0.9,6.9,1.3,11.6,2.1c0,1.8,0,2.7,0,4.6c-6.3-1.1-9.4-1.7-15.5-2.9c0-6.9,0-10.4,0-17.4 c8.5,1.6,12.9,2.4,21.8,4c0-5.5,0-8.2,0-13.7c1.6,0.3,2.4,0.4,4,0.7c0,10.6,0,15.9,0,26.5c2.9,0.5,4.3,0.7,7.2,1.2 c0-10.6,0-15.9,0-26.5c1.6,0.3,2.4,0.4,4,0.7c0,10.6,0,15.9,0,26.5c2.9,0.5,4.4,0.7,7.3,1.2c0-10.6,0-15.9,0-26.5 c1.6,0.3,2.5,0.4,4.1,0.6C651.9,615.5,651.9,625.9,651.9,636.2z M658.5,607.1c25.9,3.9,51.9,7.3,77.9,10.3c0,1.8,0,2.7,0,4.6 c-26-3-52-6.4-77.9-10.3C658.5,609.9,658.5,608.9,658.5,607.1z M676.1,639.9c-2.4-0.3-3.5-0.5-5.9-0.9c0-1.8,0-2.7,0-4.6 c2.4,0.3,3.5,0.5,5.9,0.9C676.1,637.1,676.1,638,676.1,639.9z M711.2,644.5c-9.4-1.2-18.9-2.4-28.3-3.7c0-5.1,0-7.7,0-12.8 c-7.8-1.1-11.7-1.6-19.4-2.8c0,5.5,0,8.2,0,13.7c-1.7-0.2-2.5-0.4-4.2-0.6c0-7.3,0-11,0-18.3c9.2,1.4,18.5,2.8,27.8,4 c0,5.1,0,7.7,0,12.8c7.8,1.1,11.8,1.6,19.7,2.6c0-3.3,0-4.9,0-8.2c-5.2-0.7-7.8-1-12.9-1.7c0-1.8,0-2.7,0-4.6 c6.8,0.9,10.3,1.4,17.2,2.2C711.2,634.1,711.2,637.6,711.2,644.5z M772.3,651.2c-9.7-0.9-19.3-1.9-28.9-2.9c0-5.1,0-7.7,0-12.8 c-8.1-0.9-12.1-1.3-20.1-2.3c0,3.3,0,4.9,0,8.2c5.2,0.6,7.8,0.9,13.1,1.5c0,1.8,0,2.7,0,4.6c-7-0.8-10.5-1.2-17.4-2 c0-6.9,0-10.4,0-17.4c9.7,1.2,14.6,1.7,24.4,2.8c0-5.5,0-8.2,0-13.7c1.8,0.2,2.6,0.3,4.4,0.5c0,10.6,0,15.9,0,26.5 c3.2,0.3,4.7,0.5,7.9,0.8c0-10.6,0-15.9,0-26.5c1.8,0.2,2.6,0.3,4.4,0.4c0,10.6,0,15.9,0,26.5c3.2,0.3,4.7,0.5,7.9,0.8 c0-10.6,0-15.9,0-26.5c1.8,0.2,2.6,0.3,4.4,0.4C772.3,630.5,772.3,640.9,772.3,651.2z M779.3,621.7c26.2,2.3,52.4,4.2,78.7,5.6 c0,1.8,0,2.7,0,4.6c-26.3-1.4-52.5-3.3-78.7-5.6C779.3,624.5,779.3,623.5,779.3,621.7z M797.7,653.5c-2.4-0.2-3.7-0.3-6.1-0.5 c0-1.8,0-2.7,0-4.6c2.4,0.2,3.7,0.3,6.1,0.5C797.7,650.7,797.7,651.6,797.7,653.5z M833.3,656c-9.5-0.6-19.1-1.3-28.6-2 c0-5.1,0-7.7,0-12.8c-8-0.6-12-1-20.1-1.7c0,5.5,0,8.2,0,13.7c-1.8-0.2-2.6-0.2-4.4-0.4c0-7.3,0-11,0-18.3 c9.6,0.9,19.2,1.7,28.8,2.4c0,5.1,0,7.7,0,12.8c8,0.6,12,0.9,19.9,1.4c0-3.3,0-4.9,0-8.2c-5.2-0.3-7.8-0.5-13-0.9 c0-1.8,0-2.7,0-4.6c6.9,0.5,10.4,0.7,17.3,1.2C833.3,645.6,833.3,649.1,833.3,656z M892,658.8c-10.7-0.3-16.2-0.5-27.2-1 c0-5.1,0-7.7,0-12.8c-7.7-0.4-11.6-0.6-19.4-1c0,3.3,0,4.9,0,8.2c5.1,0.3,7.7,0.4,12.7,0.7c0,1.8,0,2.7,0,4.6 c-6.7-0.3-10.1-0.5-17-0.9c0-6.9,0-10.4,0-17.4c9.6,0.6,14.3,0.8,23.7,1.3c0-5.5,0-8.2,0-13.7c1.7,0.1,2.5,0.1,4.2,0.2 c0,10.6,0,15.9,0,26.5c3,0.1,4.5,0.2,7.5,0.3c0-10.6,0-15.9,0-26.5c1.7,0.1,2.5,0.1,4.1,0.2c0,10.6,0,15.9,0,26.5 c3,0.1,4.4,0.2,7.4,0.3c0-10.6,0-15.9,0-26.5c1.6,0.1,2.4,0.1,4.1,0.1C892,638.1,892,648.5,892,658.8z M898.4,628.8 c23.1,0.5,46.1,0.4,69.3-0.6c0,1.8,0,2.7,0,4.6c-23.1,1-46.1,1-69.3,0.6C898.4,631.6,898.4,630.7,898.4,628.8z M915.1,659.3 c-2.2,0-3.3,0-5.5-0.1c0-1.8,0-2.7,0-4.6c2.2,0,3.3,0.1,5.5,0.1C915.1,656.5,915.1,657.5,915.1,659.3z M946.4,659.2 c-9.8,0.2-14.8,0.2-25,0.1c0-5.1,0-7.7,0-12.8c-7.1-0.1-10.8-0.1-18.1-0.3c0,5.5,0,8.2,0,13.7c-1.6,0-2.4-0.1-4-0.1 c0-7.3,0-11,0-18.3c10.6,0.3,15.8,0.3,26,0.4c0,5.1,0,7.7,0,12.8c7.1,0,10.5,0,17.4-0.1c0-3.3,0-4.9,0-8.2 c-4.5,0.1-6.8,0.1-11.3,0.1c0-1.8,0-2.7,0-4.6c6.1,0,9.1,0,15.1-0.2C946.4,648.8,946.4,652.3,946.4,659.2z M996.9,656.2 c-9.3,0.9-13.9,1.3-23.4,1.9c0-5.1,0-7.7,0-12.8c-6.6,0.4-10,0.6-16.7,0.8c0,3.3,0,4.9,0,8.2c4.4-0.2,6.6-0.3,10.9-0.5 c0,1.8,0,2.7,0,4.6c-5.8,0.3-8.7,0.4-14.6,0.6c0-6.9,0-10.4,0-17.4c8.3-0.3,12.4-0.4,20.4-1c0-5.5,0-8.2,0-13.7 c1.4-0.1,2.2-0.1,3.6-0.2c0,10.6,0,15.9,0,26.5c2.6-0.2,3.9-0.3,6.4-0.5c0-10.6,0-15.9,0-26.5c1.4-0.1,2.1-0.2,3.6-0.3 c0,10.6,0,15.9,0,26.5c2.6-0.2,3.8-0.3,6.4-0.6c0-10.6,0-15.9,0-26.5c1.4-0.1,2.1-0.2,3.5-0.3 C996.9,635.4,996.9,645.8,996.9,656.2z M1002.5,625.4c20.9-2.6,41.3-6.1,61.9-10.7c0,1.8,0,2.7,0,4.6c-20.5,4.6-41,8.2-61.8,10.7 C1002.5,628.1,1002.5,627.2,1002.5,625.4z M1017,653.7c-1.9,0.3-2.9,0.4-4.8,0.7c0-1.8,0-2.7,0-4.6c1.9-0.3,2.9-0.4,4.8-0.7 C1017,651,1017,651.9,1017,653.7z M1044.9,649.1c-8.9,1.7-13.4,2.5-22.4,3.9c0-5.1,0-7.7,0-12.8c-6.3,0.9-9.5,1.4-15.9,2.1 c0,5.5,0,8.2,0,13.7c-1.4,0.2-2.1,0.2-3.5,0.4c0-7.3,0-11,0-18.3c9.2-1,13.7-1.7,22.8-3.1c0,5.1,0,7.7,0,12.8 c6.3-1,9.4-1.5,15.6-2.7c0-3.3,0-4.9,0-8.2c-4,0.8-6.1,1.1-10.2,1.8c0-1.8,0-2.7,0-4.6c5.4-0.9,8.1-1.4,13.5-2.5 C1044.9,638.6,1044.9,642.1,1044.9,649.1z M1091.5,637.5c-8.7,2.6-13.1,3.8-21.9,6c0-5.1,0-7.7,0-12.8c-6.1,1.5-9.2,2.2-15.3,3.6 c0,3.3,0,4.9,0,8.2c4-0.9,6-1.3,10-2.3c0,1.8,0,2.7,0,4.6c-5.3,1.3-8,1.9-13.4,3c0-7,0-10.4,0-17.4c7.5-1.6,11.2-2.4,18.7-4.3 c0-5.5,0-8.2,0-13.7c1.3-0.3,2-0.5,3.3-0.8c0,10.6,0,15.9-0.1,26.5c2.4-0.6,3.6-0.9,6-1.6c0-10.6,0-15.9,0.1-26.5 c1.3-0.4,2-0.5,3.3-0.9c0,10.6,0,15.9-0.1,26.5c2.4-0.7,3.6-1,6-1.7c0-10.6,0-15.9,0.1-26.5c1.3-0.4,2-0.6,3.3-1 C1091.5,616.8,1091.5,627.2,1091.5,637.5L1091.5,637.5z M1096.8,605.7c20.5-6.7,40.5-14.3,60.3-22.9c0,1.8,0,2.7,0,4.6 c-19.8,8.6-39.8,16.2-60.3,22.9C1096.8,608.5,1096.8,607.6,1096.8,605.7z M1110.6,631.4c-1.8,0.6-2.8,0.9-4.6,1.6 c0-1.8,0-2.7,0-4.6c1.8-0.6,2.8-0.9,4.6-1.6C1110.7,628.7,1110.6,629.6,1110.6,631.4z M1137.8,621.3c-8.8,3.5-13.1,5.2-21.9,8.3 c0-5.1,0-7.7,0-12.8c-6.1,2.2-9.1,3.2-15.2,5.1c0,5.5,0,8.2,0,13.7c-1.3,0.4-2,0.6-3.3,1c0-7.3,0-11,0-18.3 c8.7-2.7,13.1-4.2,21.8-7.4c0,5.1,0,7.7,0,12.8c6.1-2.2,9.1-3.4,15.2-5.8c0-3.3,0-4.9,0-8.2c-4,1.6-6,2.3-9.9,3.8 c0-1.8,0-2.7,0-4.6c5.3-2,7.9-3,13.3-5.2C1137.8,610.8,1137.8,614.3,1137.8,621.3z M1184.9,599.8c-9,4.6-13.5,6.7-22.4,10.8 c0-5.1,0-7.7,0-12.8c-6.2,2.8-9.3,4.2-15.4,6.8c0,3.3,0,4.9,0,8.2c4-1.7,6-2.6,10-4.4c0,1.8,0,2.7,0,4.6c-5.4,2.4-8,3.6-13.4,5.8 c0-7,0-10.4,0-17.4c7.5-3.1,11.2-4.8,18.7-8.2c0-5.5,0-8.2,0-13.7c1.3-0.6,2-0.9,3.4-1.6c0,10.6,0,15.9,0,26.5 c2.4-1.1,3.6-1.7,6.1-2.9c0-10.6,0-15.9,0-26.5c1.4-0.6,2-1,3.4-1.6c0,10.6,0,15.9,0,26.5c2.4-1.2,3.7-1.8,6.1-3 c0-10.6,0-15.9,0-26.5c1.4-0.7,2-1,3.4-1.7C1184.9,579.1,1184.9,589.5,1184.9,599.8L1184.9,599.8z" fill="#DA0000"/>
    <path d="M1185.8,283.6c-13.9,6.8-27.8,13.2-42,19.2c0-0.9,0-1.4,0-2.3c-1.9,0.8-2.8,1.1-4.6,1.9c0,0.9,0,1.4,0,2.3 c-13.8,5.4-27.6,10.3-41.6,14.9c0-0.9,0-1.4,0-2.3c-1.9,0.6-2.8,0.9-4.6,1.4c0,0.9,0,1.4,0,2.3c-13.9,4-27.9,7.6-42.1,10.8 c0-0.9,0-1.4,0-2.3c-1.9,0.4-2.8,0.6-4.7,1c0,0.9,0,1.4,0,2.3c-14.4,2.7-28.8,5-43.3,6.9c0-0.9,0-1.4,0-2.3 c-2,0.2-2.9,0.3-4.9,0.6c0,0.9,0,1.4,0,2.3c-15.2,1.5-30.3,2.5-45.5,3.1c0-0.9,0-1.4,0-2.3c-2.1,0.1-3.1,0.1-5.2,0.1 c0,0.9,0,1.4,0,2.3c-16.2,0.4-32.5,0.2-48.7-0.2c0-0.9,0-1.4,0-2.3c-2.3-0.1-3.4-0.1-5.7-0.1c0,0.9,0,1.4,0,2.3 c-17.5-0.6-35.1-1.4-52.6-2.4c0-0.9,0-1.4,0-2.3c-2.4-0.1-3.6-0.2-6-0.4c0,0.9,0,1.4,0,2.3c-18.3-1.2-36.5-2.6-54.8-4.2 c0-0.9,0-1.4,0-2.3c-2.5-0.2-3.7-0.3-6.1-0.6c0,0.9,0,1.4,0,2.3c-18.4-1.8-36.7-3.7-55.1-5.9c0-0.9,0-1.4,0-2.3 c-2.4-0.3-3.6-0.4-6.1-0.7c0,0.9,0,1.4,0,2.3c-17.9-2.3-35.7-4.7-53.5-7.4c0-0.9,0-1.4,0-2.3c-2.3-0.4-3.5-0.5-5.8-0.9 c0,0.9,0,1.4,0,2.3c-16.7-2.7-33.5-5.5-50.1-8.6c0-0.9,0-1.4,0-2.3c-2.1-0.4-3.2-0.6-5.3-1c0,0.9,0,1.4,0,2.3 c-16.5-3.2-33.1-6-49.7-8.8c0-0.9,0-1.4,0-2.3c-2.3-0.4-3.5-0.6-5.8-0.9c0,0.9,0,1.4,0,2.3c-17.8-2.8-35.6-5.4-53.4-7.8 c0-0.9,0-1.4,0-2.3c-2.4-0.3-3.6-0.5-6.1-0.8c0,0.9,0,1.4,0,2.3c-18.4-2.4-36.8-4.5-55.2-6.5c0-0.9,0-1.4,0-2.3 c-2.5-0.3-3.7-0.4-6.2-0.6c0,0.9,0,1.4,0,2.3c-18.3-1.8-36.6-3.4-55-4.8c0-0.9,0-1.4,0-2.3c-2.4-0.2-3.6-0.3-6-0.4 c0,0.9,0,1.4,0,2.3c-17.6-1.2-35.2-2.1-52.8-2.8c0-0.9,0-1.4,0-2.3c-2.3-0.1-3.4-0.1-5.7-0.2c0,0.9,0,1.4,0,2.3 c-16.2-0.5-32.5-0.6-48.7-0.3c0-0.9,0-1.4,0-2.3c-2.1,0-3.1,0.1-5.2,0.1c0,0.9,0,1.4,0,2.3c-15,0.5-29.8,1.4-44.7,2.7 c0-0.9,0-1.4,0-2.3c-1.9,0.2-2.9,0.3-4.8,0.5c0,0.9,0,1.4,0,2.3c-14.2,1.6-28.2,3.7-42.3,6.2c0-0.9,0-1.4,0-2.3 c-1.9,0.4-2.8,0.5-4.6,0.9c0,0.9,0,1.4,0,2.3c-13.9,3-27.6,6.4-41.3,10.2c0-0.9,0-1.4,0-2.3c-1.8,0.5-2.8,0.8-4.6,1.4 c0,0.9,0,1.4,0,2.3c-14.1,4.5-28,9.4-41.8,14.8c0-0.9,0-1.4,0-2.3c-1.9,0.8-2.8,1.1-4.7,1.9c0,0.9,0,1.4,0,2.3 c-14.8,6.1-29.4,12.8-43.7,19.9c0-0.9,0-1.4,0-2.3c-6,3-9,4.5-15.2,7.8c0,91,0,182,0,273c6.3-3.2,9.5-4.8,15.6-7.8 c0-0.9,0-1.4,0-2.3c14.6-7.1,29.4-13.8,44.5-19.8c0,0.9,0,1.4,0,2.3c1.9-0.8,2.9-1.2,4.8-1.9c0-0.9,0-1.4,0-2.3 c13.8-5.3,27.7-10.1,41.9-14.5c0,0.9,0,1.4,0,2.3c1.8-0.5,2.7-0.8,4.6-1.3c0-0.9,0-1.4,0-2.3c13.6-3.8,27.2-7,41-9.9 c0,0.9,0,1.4,0,2.3c1.8-0.4,2.7-0.5,4.6-0.9c0-0.9,0-1.4,0-2.3c13.9-2.4,27.8-4.3,41.8-5.9c0,0.9,0,1.4,0,2.3 c1.9-0.2,2.8-0.3,4.8-0.5c0-0.9,0-1.4,0-2.3c14.8-1.2,29.5-2,44.4-2.5c0,0.9,0,1.4,0,2.3c2,0,3.1-0.1,5.1-0.1c0-0.9,0-1.4,0-2.3 c16.2-0.3,32.4-0.2,48.6,0.3c0,0.9,0,1.4,0,2.3c2.3,0.1,3.4,0.1,5.7,0.2c0-0.9,0-1.4,0-2.3c17.6,0.6,35.2,1.6,52.8,2.7 c0,0.9,0,1.4,0,2.3c2.4,0.2,3.6,0.2,6,0.4c0-0.9,0-1.4,0-2.3c18.4,1.4,36.7,2.9,55,4.7c0,0.9,0,1.4,0,2.3c2.5,0.2,3.7,0.4,6.2,0.6 c0-0.9,0-1.4,0-2.3c18.4,1.9,36.8,4.1,55.2,6.4c0,0.9,0,1.4,0,2.3c2.4,0.3,3.6,0.5,6.1,0.8c0-0.9,0-1.4,0-2.3 c17.8,2.4,35.6,5,53.4,7.7c0,0.9,0,1.4,0,2.3c2.3,0.4,3.5,0.5,5.8,0.9c0-0.9,0-1.4,0-2.3c16.6,2.7,33.2,5.5,49.7,8.7 c0,0.9,0,1.4,0,2.3c2.1,0.4,3.2,0.6,5.3,1c0-0.9,0-1.4,0-2.3c16.6,3.2,33.3,6,50.1,8.6c0,0.9,0,1.4,0,2.3c2.3,0.4,3.5,0.5,5.8,0.9 c0-0.9,0-1.4,0-2.3c17.8,2.7,35.7,5.1,53.5,7.4c0,0.9,0,1.4,0,2.3c2.4,0.3,3.6,0.4,6.1,0.7c0-0.9,0-1.4,0-2.3 c18.4,2.2,36.7,4.1,55.1,5.9c0,0.9,0,1.4,0,2.3c2.5,0.2,3.7,0.3,6.1,0.6c0-0.9,0-1.4,0-2.3c18.3,1.6,36.5,3,54.8,4.2 c0,0.9,0,1.4,0,2.3c2.4,0.2,3.6,0.2,6,0.4c0-0.9,0-1.4,0-2.3c17.5,1,35.1,1.8,52.6,2.4c0,0.9,0,1.4,0,2.3c2.3,0.1,3.4,0.1,5.7,0.1 c0-0.9,0-1.4,0-2.3c16.2,0.4,32.5,0.6,48.7,0.2c0,0.9,0,1.4,0,2.3c2.1,0,3.1-0.1,5.2-0.1c0-0.9,0-1.4,0-2.3 c15.2-0.6,30.2-1.6,45.3-3c0,0.9,0,1.4,0,2.3c2-0.2,2.9-0.3,4.9-0.5c0-0.9,0-1.4,0-2.3c14.5-1.8,28.8-4,43.1-6.7 c0,0.9,0,1.4,0,2.3c1.9-0.4,2.8-0.6,4.7-1c0-0.9,0-1.4,0-2.3c14.1-3.1,28-6.6,41.9-10.7c0,0.9,0,1.4,0,2.3 c1.9-0.6,2.8-0.8,4.6-1.4c0-0.9,0-1.4,0-2.3c14.1-4.6,27.9-9.5,41.7-14.9c0,0.9,0,1.4,0,2.3c1.9-0.8,2.8-1.1,4.7-1.9 c0-0.9,0-1.4,0-2.3c14.4-6,28.5-12.5,42.4-19.5c0,0.9,0,1.4,0,2.3c5.7-2.9,8.6-4.4,14.4-7.5c0-91.4,0-182.7,0-274.1 c-5.7,3-8.6,4.5-14.2,7.3C1185.8,282.3,1185.8,282.7,1185.8,283.6L1185.8,283.6z M578.4,343c1.2,7.7,7.4,13.9,13.9,13.7 c3.4,0,6.2-2,7.9-5.3c1.7,3.8,4.6,6.8,8,8.4c6.4,2.6,12.7-1.4,14.1-8.6c2.2,6.8,0.4,13.8-4.5,16.8c-5.7,3.8-13.6,0.7-17.4-6.9 c-4,5.9-11.5,6-17.1,0.4C578,356.4,576,348.7,578.4,343z M518.9,393.4c8.8-16.1,26-27.8,44.2-29.8c-46.6,30.7-44,98-18.1,140.9 c0.1,0.1,0.1,0.2,0.2,0.3C513.3,479.2,497.4,430.4,518.9,393.4z M613.6,528.8c12.2,6.3,21.7,9.7,35.2,12.2 c-14.1,2.9-28.9,1.2-42-4.7c-0.1,1.3-0.1,1.9-0.2,3.2c-2.7,3.9-4.1,5.8-6.7,9.7c-2.6-4.9-3.9-7.3-6.6-12.2 c-0.1-1.3-0.1-1.9-0.2-3.2c-15.1,0.8-28.1-3.7-41.6-9.8c12.9,1.9,22.1,2,34.9-0.1c-19.3-15.5-33.2-37.2-39.9-61 c-7.5-33.4-4.4-73,24.8-95.9c-28.7,45.1-14.7,107.4,21,144.5c-0.9-25.7-1.8-51.5-2.7-77.2c0-20.2,0-40.3,0-60.5 c4-1.5,7.4-4.3,10-8.4c2.6,4.8,6.1,8.9,10.1,12.2c0,20.2,0,40.3,0,60.5c-0.9,25.4-1.8,50.8-2.7,76.2 c44.2-30.1,44.4-93.8,21.2-136.9c24.3,27.5,35.8,68.6,24.9,104.1C647.4,501.8,633.4,520.1,613.6,528.8z M655.2,523.9 c0.1-0.1,0.1-0.1,0.2-0.2c34.5-44.1,18.1-109.5-18.2-146.8c19.1,8.3,35.2,25,44.4,43.5C699.1,455.3,693.5,505.4,655.2,523.9z" fill="#FFFFFF"/>
    <path d="M0,67.9C0,159,0,250.2,0,341.4c6.1-3.2,9.2-4.8,15.2-7.8c0-0.9,0-1.4,0-2.3c14.3-7.1,28.9-13.9,43.7-19.9 c0,0.9,0,1.4,0,2.3c1.9-0.8,2.8-1.2,4.7-1.9c0-0.9,0-1.4,0-2.3c13.8-5.4,27.7-10.3,41.8-14.8c0,0.9,0,1.4,0,2.3 c1.8-0.6,2.8-0.8,4.6-1.4c0-0.9,0-1.4,0-2.3c13.7-3.9,27.4-7.3,41.3-10.2c0,0.9,0,1.4,0,2.3c1.8-0.4,2.8-0.6,4.6-0.9 c0-0.9,0-1.4,0-2.3c14.1-2.5,28.1-4.6,42.3-6.2c0,0.9,0,1.4,0,2.3c1.9-0.2,2.9-0.3,4.8-0.5c0-0.9,0-1.4,0-2.3 c14.9-1.3,29.8-2.2,44.7-2.7c0,0.9,0,1.4,0,2.3c2.1-0.1,3.1-0.1,5.2-0.1c0-0.9,0-1.4,0-2.3c16.2-0.3,32.5-0.2,48.7,0.3 c0,0.9,0,1.4,0,2.3c2.3,0.1,3.4,0.1,5.7,0.2c0-0.9,0-1.4,0-2.3c17.6,0.7,35.2,1.6,52.8,2.8c0,0.9,0,1.4,0,2.3 c2.4,0.2,3.6,0.3,6,0.4c0-0.9,0-1.4,0-2.3c18.4,1.4,36.7,3,55,4.8c0,0.9,0,1.4,0,2.3c2.5,0.3,3.7,0.4,6.2,0.6c0-0.9,0-1.4,0-2.3 c18.4,2,36.8,4.2,55.2,6.5c0,0.9,0,1.4,0,2.3c2.4,0.3,3.6,0.5,6.1,0.8c0-0.9,0-1.4,0-2.3c17.8,2.4,35.6,5,53.4,7.8 c0,0.9,0,1.4,0,2.3c2.3,0.4,3.5,0.6,5.8,0.9c0-0.9,0-1.4,0-2.3c16.6,2.7,33.2,5.6,49.7,8.8c0,0.9,0,1.4,0,2.3 c2.1,0.4,3.2,0.6,5.3,1c0-0.9,0-1.4,0-2.3c16.7,3.2,33.4,6,50.1,8.6c0,0.9,0,1.4,0,2.3c2.3,0.4,3.5,0.5,5.8,0.9c0-0.9,0-1.4,0-2.3 c17.8,2.7,35.7,5.1,53.5,7.4c0,0.9,0,1.4,0,2.3c2.4,0.3,3.6,0.4,6.1,0.7c0-0.9,0-1.4,0-2.3c18.3,2.2,36.7,4.1,55.1,5.9 c0,0.9,0,1.4,0,2.3c2.5,0.2,3.7,0.3,6.1,0.6c0-0.9,0-1.4,0-2.3c18.2,1.6,36.5,3,54.8,4.2c0,0.9,0,1.4,0,2.3c2.4,0.2,3.6,0.2,6,0.4 c0-0.9,0-1.4,0-2.3c17.5,1,35.1,1.8,52.6,2.4c0,0.9,0,1.4,0,2.3c2.3,0.1,3.4,0.1,5.7,0.1c0-0.9,0-1.4,0-2.3 c16.2,0.4,32.5,0.6,48.7,0.2c0,0.9,0,1.4,0,2.3c2.1-0.1,3.1-0.1,5.2-0.1c0-0.9,0-1.4,0-2.3c15.2-0.6,30.3-1.7,45.5-3.1 c0,0.9,0,1.4,0,2.3c2-0.2,3-0.3,4.9-0.6c0-0.9,0-1.4,0-2.3c14.6-1.9,28.9-4.1,43.3-6.9c0,0.9,0,1.4,0,2.3c1.9-0.4,2.8-0.6,4.7-1 c0-0.9,0-1.4,0-2.3c14.2-3.2,28.1-6.7,42.1-10.8c0,0.9,0,1.4,0,2.3c1.9-0.6,2.8-0.8,4.6-1.4c0-0.9,0-1.4,0-2.3 c14.1-4.6,27.9-9.5,41.6-14.9c0,0.9,0,1.4,0,2.3c1.9-0.7,2.8-1.1,4.6-1.9c0-0.9,0-1.4,0-2.3c14.2-6,28.2-12.4,42-19.2 c0,0.9,0,1.4,0,2.3c5.7-2.8,8.5-4.3,14.2-7.3c0-91.4,0-182.7,0-274.1c-95,48.5-192.4,69.5-298.8,67.1 c-100.9-2.3-202-13.4-301.2-31.8C500.7,16.8,399.8,3.5,298.8,0.8C191.9-2.1,94.9,17.9,0,67.9z M30,312.8c-2,0.9-2.9,1.4-4.9,2.3 c0-1.8,0-2.7,0-4.6c2-0.9,2.9-1.4,4.9-2.3C30,310,30,310.9,30,312.8z M58.1,300.3c-8.9,3.7-13.4,5.7-22.6,9.9c0-5.1,0-7.6,0-12.7 c-6.4,2.9-9.6,4.5-16.1,7.7c0,5.5,0,8.2,0,13.7c-1.4,0.7-2.1,1-3.6,1.8c0-7.3,0-10.9,0-18.2c9.4-4.7,14-6.9,23.1-11 c0,5.1,0,7.6,0,12.7c6.4-2.9,9.5-4.3,15.7-6.9c0-3.3,0-4.9,0-8.2c-4.1,1.7-6.1,2.6-10.2,4.4c0-1.8,0-2.7,0-4.6 c5.5-2.4,8.2-3.6,13.6-5.8C58.1,289.9,58.1,293.4,58.1,300.3z M15.1,294.5c0-1.8,0-2.7,0-4.6c20.4-10,41.1-19.2,62.3-27.3 c0,1.8,0,2.7,0,4.6C56.2,275.3,35.6,284.5,15.1,294.5z M104.7,283.4c-8.7,2.7-13,4.1-21.8,7.3c0-5.1,0-7.7-0.1-12.8 c-6.1,2.2-9.2,3.3-15.3,5.8c0,3.3,0,4.9,0,8.2c4-1.6,6-2.3,10-3.8c0,1.8,0,2.7,0,4.6c-5.3,2-8,3-13.4,5.2c0-6.9-0.1-10.4-0.1-17.3 c7.5-3,11.3-4.4,18.7-7.1c0-5.5,0-8.2-0.1-13.7c1.3-0.5,2-0.7,3.3-1.2C86,269.2,86,274.5,86,285c2.4-0.8,3.6-1.2,5.9-2 c-0.1-10.6-0.1-15.9-0.1-26.4c1.3-0.4,2-0.7,3.3-1.1c0.1,10.6,0.1,15.9,0.1,26.4c2.4-0.8,3.6-1.2,5.9-1.9 c-0.1-10.6-0.1-15.9-0.1-26.4c1.3-0.4,2-0.6,3.3-1C104.6,262.8,104.6,273.1,104.7,283.4z M123.7,278c-1.8,0.5-2.8,0.7-4.6,1.2 c0-1.8,0-2.7,0-4.6c1.8-0.5,2.8-0.8,4.6-1.2C123.7,275.3,123.7,276.2,123.7,278z M150.6,271.7c-8.7,1.8-13,2.7-21.7,4.9 c0-5.1,0-7.7-0.1-12.8c-6,1.5-9,2.3-15.1,4.1c0,5.5,0,8.2,0.1,13.7c-1.3,0.4-2,0.6-3.3,1c0-7.3-0.1-10.9-0.1-18.2 c8.7-2.6,13-3.7,21.6-5.8c0,5.1,0,7.7,0.1,12.8c6-1.5,9-2.2,15.1-3.4c0-3.3,0-4.9,0-8.2c-4,0.8-5.9,1.3-9.9,2.2c0-1.8,0-2.7,0-4.6 c5.3-1.2,7.9-1.8,13.2-2.9C150.6,261.3,150.6,264.8,150.6,271.7z M109.8,256.3c0-1.8,0-2.7,0-4.6c19.8-5.6,39.7-10.1,60-13.7 c0,1.8,0,2.7,0,4.6C149.4,246.2,129.6,250.7,109.8,256.3z M197.5,264.5c-9,1-13.5,1.5-22.3,2.9c0-5.1,0-7.7,0-12.8 c-6.2,0.9-9.2,1.4-15.3,2.5c0,3.3,0,4.9,0,8.2c4-0.7,6-1.1,10-1.7c0,1.8,0,2.7,0,4.6c-5.3,0.9-8,1.3-13.3,2.3 c0-6.9,0-10.4-0.1-17.3c7.4-1.4,11.1-2,18.6-3.2c0-5.5,0-8.2,0-13.7c1.3-0.2,2-0.3,3.4-0.5c0,10.6,0,15.9,0.1,26.5 c2.4-0.3,3.6-0.5,6.1-0.8c0-10.6,0-15.9-0.1-26.5c1.4-0.2,2-0.3,3.4-0.4c0,10.6,0,15.9,0.1,26.5c2.4-0.3,3.7-0.4,6.1-0.7 c0-10.6,0-15.9,0-26.5c1.4-0.2,2.1-0.2,3.4-0.4C197.5,243.8,197.5,254.2,197.5,264.5z M217.6,262.8c-2,0.1-2.9,0.2-4.9,0.4 c0-1.8,0-2.7,0-4.6c2-0.2,2.9-0.2,4.9-0.4C217.6,260,217.6,260.9,217.6,262.8z M247,261.3c-9.7,0.3-14.4,0.5-23.8,1.1 c0-5.1,0-7.7,0-12.8c-6.5,0.4-9.7,0.7-16.1,1.2c0,5.5,0,8.2,0,13.7c-1.4,0.1-2.1,0.2-3.5,0.3c0-7.3,0-11,0-18.3 c9.1-0.9,13.7-1.2,23.1-1.8c0,5.1,0,7.7,0,12.8c6.5-0.4,9.9-0.5,16.6-0.7c0-3.3,0-4.9,0-8.2c-4.4,0.1-6.5,0.2-10.9,0.4 c0-1.8,0-2.7,0-4.6c5.7-0.3,8.6-0.4,14.5-0.6C247,250.9,247,254.4,247,261.3z M203,238.4c0-1.8,0-2.7,0-4.6 c21.9-1.9,43.7-2.8,65.7-3c0,1.8,0,2.7,0,4.6C246.7,235.6,224.9,236.5,203,238.4z M300.8,261.4c-10.6-0.3-15.8-0.4-26-0.4 c0-5.1,0-7.7,0-12.8c-7.1,0-10.5,0-17.4,0.1c0,3.3,0,4.9,0,8.2c4.5-0.1,6.7-0.1,11.3-0.1c0,1.8,0,2.7,0,4.6c-6.1,0-9.1,0-15,0.2 c0-7,0-10.4,0-17.4c8.3-0.2,12.5-0.2,21.1-0.2c0-5.5,0-8.2,0-13.7c1.5,0,2.3,0,3.9,0c0,10.6,0,15.9,0,26.5c2.8,0,4.2,0,7,0.1 c0-10.6,0-15.9,0-26.5c1.6,0,2.4,0,3.9,0.1c0,10.6,0,15.9,0,26.5c2.8,0.1,4.3,0.1,7.2,0.2c0-10.6,0-15.9,0-26.5 c1.6,0,2.4,0.1,4,0.1C300.8,240.7,300.8,251.1,300.8,261.4L300.8,261.4z M324.5,262.3c-2.3-0.1-3.5-0.2-5.8-0.3c0-1.8,0-2.7,0-4.6 c2.3,0.1,3.5,0.1,5.8,0.3C324.5,259.6,324.5,260.5,324.5,262.3z M359.2,264.3c-9.3-0.7-18.7-1.2-28-1.7c0-5.1,0-7.7,0-12.8 c-7.7-0.4-11.5-0.6-19-0.8c0,5.5,0,8.2,0,13.7c-1.6-0.1-2.5-0.1-4.1-0.1c0-7.3,0-11,0-18.3c10.7,0.4,16.2,0.6,27.3,1.2 c0,5.1,0,7.7,0,12.8c7.7,0.4,11.6,0.7,19.5,1.2c0-3.3,0-4.9,0-8.2c-5.1-0.3-7.7-0.5-12.8-0.8c0-1.8,0-2.7,0-4.6 c6.8,0.4,10.2,0.6,17,1.1C359.2,253.9,359.2,257.4,359.2,264.3z M307.3,236c0-1.8,0-2.7,0-4.6c25.7,1,51.4,2.6,77,4.6 c0,1.8,0,2.7,0,4.6C358.6,238.6,333,237,307.3,236z M420.2,269.6c-9.6-1-19.3-1.9-28.9-2.7c0-5.1,0-7.7,0-12.8c-8-0.7-12-1-20-1.6 c0,3.3,0,4.9,0,8.2c5.2,0.4,7.8,0.6,13,1c0,1.8,0,2.7,0,4.6c-7-0.6-10.4-0.8-17.3-1.4c0-7,0-10.4,0-17.4 c9.7,0.7,14.5,1.1,24.3,1.9c0-5.5,0-8.2,0-13.7c1.7,0.2,2.6,0.2,4.4,0.4c0,10.6,0,15.9,0,26.5c3.1,0.3,4.7,0.4,7.9,0.7 c0-10.6,0-15.9,0-26.5c1.8,0.2,2.6,0.2,4.4,0.4c0,10.6,0,15.9,0,26.5c3.2,0.3,4.7,0.5,7.9,0.8c0-10.6,0-15.9,0-26.5 c1.8,0.2,2.6,0.3,4.4,0.4C420.2,248.8,420.2,259.2,420.2,269.6L420.2,269.6z M445.7,272.3c-2.5-0.3-3.7-0.4-6.2-0.7 c0-1.8,0-2.7,0-4.6c2.5,0.3,3.7,0.4,6.2,0.7C445.7,269.6,445.7,270.5,445.7,272.3z M481.5,276.7c-9.6-1.3-19.2-2.4-28.8-3.6 c0-5.1,0-7.7,0-12.8c-8.1-0.9-12.1-1.4-20.2-2.3c0,5.5,0,8.2,0,13.7c-1.8-0.2-2.6-0.3-4.4-0.5c0-7.3,0-11,0-18.3 c9.7,1,19.3,2.1,29,3.3c0,5.1,0,7.7,0,12.8c8.1,1,12.1,1.5,20.1,2.5c0-3.3,0-4.9,0-8.2c-5.2-0.7-7.8-1-13.1-1.6c0-1.8,0-2.7,0-4.6 c7,0.9,10.5,1.3,17.4,2.2C481.5,266.3,481.5,269.7,481.5,276.7z M427.2,244.7c0-1.8,0-2.7,0-4.6c26.5,2.9,52.9,6.1,79.4,9.8 c0,1.8,0,2.7,0,4.6C480.2,250.8,453.7,247.6,427.2,244.7z M541.1,285.3c-9.2-1.5-18.5-2.9-27.7-4.2c0-5.1,0-7.7,0-12.8 c-7.8-1.1-11.8-1.7-19.7-2.8c0,3.3,0,4.9,0,8.2c5.2,0.7,7.8,1.1,12.9,1.8c0,1.8,0,2.7,0,4.6c-6.8-1-10.3-1.4-17.2-2.4 c0-6.9,0-10.4,0-17.4c9.7,1.3,14.5,2,24,3.4c0-5.5,0-8.2,0-13.7c1.7,0.2,2.6,0.4,4.2,0.6c0,10.6,0,15.9,0,26.5 c3.1,0.4,4.6,0.7,7.6,1.1c0-10.6,0-15.9,0-26.5c1.7,0.3,2.5,0.4,4.2,0.6c0,10.6,0,15.9,0,26.5c3,0.5,4.5,0.7,7.5,1.2 c0-10.6,0-15.9,0-26.5c1.7,0.3,2.5,0.4,4.1,0.7C541.1,264.6,541.1,274.9,541.1,285.3z M564.7,289.2c-2.2-0.4-3.4-0.6-5.6-1 c0-1.8,0-2.7,0-4.6c2.3,0.4,3.4,0.6,5.6,1C564.7,286.4,564.7,287.4,564.7,289.2z M596.6,295c-10-1.9-15.1-2.8-25.5-4.7 c0-5.1,0-7.7,0-12.8c-7.3-1.3-11-1.9-18.5-3.1c0,5.5,0,8.2,0,13.7c-1.6-0.3-2.4-0.4-4.1-0.7c0-7.3,0-11,0-18.3 c10.8,1.8,16.1,2.7,26.5,4.5c0,5.1,0,7.7,0,12.8c7.2,1.3,10.8,1.9,17.8,3.3c0-3.3,0-4.9,0-8.2c-4.6-0.9-6.9-1.3-11.5-2.1 c0-1.8,0-2.7,0-4.6c6.2,1.1,9.3,1.7,15.3,2.8C596.6,284.5,596.6,288,596.6,295z M547.7,260.8c0-1.8,0-2.7,0-4.6 c23.8,3.9,47.5,8.4,71.2,12.8c0,1.8,0,2.7,0,4.6C595.2,269.2,571.5,264.7,547.7,260.8z M652,304.6c-10.9-1.7-16.2-2.6-26.7-4.4 c0-5.1,0-7.7,0-12.8c-7.3-1.3-10.9-1.9-18-3.2c0,3.3,0,4.9,0,8.2c4.6,0.9,7,1.3,11.7,2.1c0,1.8,0,2.7,0,4.6 c-6.3-1.1-9.4-1.7-15.5-2.9c0-6.9,0-10.4,0-17.4c8.6,1.6,12.9,2.4,21.8,4c0-5.5,0-8.2,0-13.7c1.6,0.3,2.4,0.4,4,0.7 c0,10.6,0,15.9,0,26.5c2.9,0.5,4.3,0.7,7.2,1.2c0-10.6,0-15.9,0-26.5c1.6,0.3,2.4,0.4,4,0.7c0,10.6,0,15.9,0,26.5 c2.9,0.5,4.4,0.7,7.3,1.2c0-10.6,0-15.9,0-26.5c1.6,0.3,2.5,0.4,4.1,0.6C652,283.9,652,294.3,652,304.6z M676.2,308.3 c-2.4-0.3-3.5-0.5-5.9-0.9c0-1.8,0-2.7,0-4.6c2.4,0.3,3.5,0.5,5.9,0.9C676.2,305.5,676.2,306.4,676.2,308.3z M711.3,312.9 c-9.4-1.2-18.9-2.4-28.3-3.7c0-5.1,0-7.7,0-12.8c-7.8-1.1-11.7-1.6-19.4-2.8c0,5.5,0,8.2,0,13.7c-1.7-0.2-2.5-0.4-4.2-0.6 c0-7.3,0-11,0-18.3c9.3,1.4,18.5,2.8,27.8,4c0,5.1,0,7.7,0,12.8c7.8,1.1,11.8,1.6,19.7,2.6c0-3.3,0-4.9,0-8.2 c-5.2-0.7-7.8-1-12.9-1.7c0-1.8,0-2.7,0-4.6c6.9,0.9,10.3,1.4,17.2,2.2C711.3,302.5,711.3,306,711.3,312.9z M658.6,280.1 c0-1.8,0-2.7,0-4.6c25.9,3.9,51.9,7.3,77.9,10.3c0,1.8,0,2.7,0,4.6C710.5,287.3,684.5,283.9,658.6,280.1z M772.4,319.6 c-9.6-0.9-19.3-1.9-28.9-2.9c0-5.1,0-7.7,0-12.8c-8.1-0.9-12.1-1.3-20.1-2.3c0,3.3,0,4.9,0,8.2c5.2,0.6,7.8,0.9,13.1,1.5 c0,1.8,0,2.7,0,4.6c-7-0.8-10.5-1.2-17.4-2c0-6.9,0-10.4,0-17.4c9.7,1.2,14.6,1.7,24.4,2.8c0-5.5,0-8.2,0-13.7 c1.8,0.2,2.6,0.3,4.4,0.5c0,10.6,0,15.9,0,26.5c3.2,0.3,4.7,0.5,7.9,0.8c0-10.6,0-15.9,0-26.5c1.8,0.2,2.6,0.3,4.4,0.4 c0,10.6,0,15.9,0,26.5c3.2,0.3,4.7,0.5,7.9,0.8c0-10.6,0-15.9,0-26.5c1.8,0.2,2.6,0.3,4.4,0.4 C772.4,298.9,772.4,309.3,772.4,319.6z M797.8,321.9c-2.4-0.2-3.7-0.3-6.1-0.5c0-1.8,0-2.7,0-4.6c2.4,0.2,3.7,0.3,6.1,0.5 C797.8,319.1,797.8,320,797.8,321.9z M833.3,324.4c-9.5-0.6-19.1-1.3-28.6-2c0-5.1,0-7.7,0-12.8c-8-0.6-12-1-20.1-1.7 c0,5.5,0,8.2,0,13.7c-1.8-0.2-2.6-0.2-4.4-0.4c0-7.3,0-11,0-18.3c9.6,0.9,19.2,1.7,28.8,2.4c0,5.1,0,7.7,0,12.8 c8,0.6,12,0.9,19.9,1.4c0-3.3,0-4.9,0-8.2c-5.2-0.3-7.8-0.5-13-0.9c0-1.8,0-2.7,0-4.6c6.9,0.5,10.4,0.7,17.3,1.2 C833.3,314,833.3,317.5,833.3,324.4z M779.4,294.7c0-1.8,0-2.7,0-4.6c26.2,2.3,52.4,4.2,78.6,5.6c0,1.8,0,2.7,0,4.6 C831.8,298.9,805.6,297,779.4,294.7z M892,327.2c-10.7-0.3-16.2-0.5-27.2-1c0-5.1,0-7.7,0-12.8c-7.7-0.4-11.6-0.6-19.4-1 c0,3.3,0,4.9,0,8.2c5.1,0.3,7.7,0.4,12.7,0.7c0,1.8,0,2.7,0,4.6c-6.7-0.3-10.1-0.5-17-0.9c0-6.9,0-10.4,0-17.4 c9.6,0.6,14.3,0.8,23.7,1.3c0-5.5,0-8.2,0-13.7c1.7,0.1,2.5,0.1,4.2,0.2c0,10.6,0,15.9,0,26.5c3,0.1,4.5,0.2,7.5,0.3 c0-10.6,0-15.9,0-26.5c1.7,0.1,2.5,0.1,4.1,0.2c0,10.6,0,15.9,0,26.5c3,0.1,4.4,0.2,7.4,0.3c0-10.6,0-15.9,0-26.5 c1.6,0.1,2.4,0.1,4.1,0.1C892,306.5,892,316.8,892,327.2z M915.1,327.7c-2.2,0-3.3,0-5.5-0.1c0-1.8,0-2.7,0-4.6 c2.2,0,3.3,0.1,5.5,0.1C915.1,324.9,915.1,325.9,915.1,327.7z M946.4,327.6c-9.9,0.2-14.8,0.2-25,0.2c0-5.1,0-7.7,0-12.8 c-7.1-0.1-10.8-0.1-18.1-0.3c0,5.5,0,8.2,0,13.7c-1.6,0-2.4-0.1-4-0.1c0-7.3,0-11,0-18.3c10.6,0.3,15.8,0.3,26,0.4 c0,5.1,0,7.7,0,12.8c7.1,0,10.5,0,17.4-0.1c0-3.3,0-4.9,0-8.2c-4.5,0.1-6.8,0.1-11.3,0.1c0-1.8,0-2.7,0-4.6c6.1,0,9.1,0,15.1-0.2 C946.4,317.2,946.4,320.6,946.4,327.6z M898.4,301.8c0-1.8,0-2.7,0-4.6c23.2,0.5,46.2,0.4,69.3-0.6c0,1.8,0,2.7,0,4.6 C944.6,302.2,921.6,302.2,898.4,301.8z M997.1,324.4c-9.3,1-14,1.4-23.6,2c0-5.1,0-7.7,0-12.8c-6.7,0.4-10,0.6-16.8,0.9 c0,3.3,0,4.9,0,8.2c4.4-0.2,6.6-0.3,11-0.5c0,1.8,0,2.7,0,4.6c-5.8,0.3-8.8,0.5-14.7,0.7c0-6.9,0-10.4,0-17.4 c8.3-0.3,12.4-0.5,20.5-1c0-5.5,0-8.2,0-13.7c1.4-0.1,2.2-0.1,3.6-0.2c0,10.6,0,15.9,0,26.5c2.6-0.2,3.9-0.3,6.5-0.5 c0-10.6,0-15.9,0-26.5c1.4-0.1,2.1-0.2,3.6-0.3c0,10.6,0,15.9,0,26.5c2.6-0.2,3.8-0.3,6.4-0.6c0-10.6,0-15.9,0-26.5 c1.4-0.1,2.1-0.2,3.5-0.4C997.1,303.6,997.1,314,997.1,324.4z M1017.4,321.8c-1.9,0.3-2.9,0.4-4.9,0.7c0-1.8,0-2.7,0-4.6 c1.9-0.3,2.9-0.4,4.9-0.7C1017.4,319.1,1017.4,320,1017.4,321.8z M1045.4,317c-8.9,1.8-13.4,2.6-22.5,4c0-5.1,0-7.7,0-12.8 c-6.3,1-9.5,1.4-16,2.2c0,5.5,0,8.2,0,13.7c-1.4,0.2-2.1,0.3-3.5,0.4c0-7.3,0-11,0-18.3c9.3-1.1,13.8-1.7,22.9-3.2 c0,5.1,0,7.7,0,12.8c6.3-1,9.5-1.6,15.7-2.8c0-3.3,0-4.9,0-8.2c-4.1,0.8-6.1,1.2-10.2,1.9c0-1.8,0-2.7,0-4.6 c5.5-0.9,8.2-1.5,13.6-2.5C1045.4,306.6,1045.4,310.1,1045.4,317z M1002.8,298.1c0-1.8,0-2.7,0-4.6c21-2.7,41.6-6.3,62.2-11.1 c0,1.8,0,2.7,0,4.6C1044.4,291.8,1023.8,295.5,1002.8,298.1z M1092.2,305.3c-8.7,2.6-13.1,3.8-21.9,6.1c0-5.1,0-7.7,0-12.8 c-6.1,1.6-9.2,2.3-15.4,3.7c0,3.3,0,4.9,0,8.2c4-0.9,6.1-1.4,10.1-2.3c0,1.8,0,2.7,0,4.6c-5.4,1.3-8,1.9-13.4,3.1 c0-7,0-10.4,0-17.4c7.6-1.6,11.3-2.5,18.8-4.4c0-5.5,0-8.2,0-13.7c1.3-0.3,2-0.5,3.3-0.9c0,10.6,0,15.9-0.1,26.5 c2.4-0.6,3.6-0.9,6-1.6c0-10.6,0-15.9,0.1-26.5c1.3-0.4,2-0.5,3.3-0.9c0,10.6,0,15.9-0.1,26.5c2.4-0.7,3.6-1,6-1.7 c0-10.6,0-15.9,0.1-26.5c1.3-0.4,2-0.6,3.3-1C1092.3,284.5,1092.3,294.9,1092.2,305.3L1092.2,305.3z M1111.4,299.1 c-1.8,0.6-2.8,0.9-4.6,1.6c0-1.8,0-2.7,0-4.6c1.8-0.6,2.8-0.9,4.6-1.6C1111.4,296.4,1111.4,297.3,1111.4,299.1z M1138.5,289 c-8.7,3.5-13.1,5.2-21.8,8.3c0-5.1,0-7.7,0-12.8c-6.1,2.2-9.1,3.2-15.2,5.1c0,5.5,0,8.2,0,13.7c-1.3,0.4-2,0.6-3.3,1.1 c0-7.3,0-11,0-18.3c8.7-2.7,13.1-4.2,21.8-7.4c0,5.1,0,7.7,0,12.8c6.1-2.2,9.1-3.3,15.2-5.8c0-3.3,0-4.9,0-8.2 c-4,1.6-5.9,2.3-9.9,3.8c0-1.8,0-2.7,0-4.6c5.3-2,7.9-3,13.2-5.1C1138.5,278.6,1138.5,282.1,1138.5,289z M1097.6,278 c0-1.8,0-2.7,0-4.6c20.5-6.7,40.4-14.2,60.2-22.8c0,1.8,0,2.7,0,4.6C1138,263.8,1118.1,271.4,1097.6,278z M1185.1,268 c-8.9,4.4-13.3,6.5-22.1,10.5c0-5.1,0-7.7,0-12.8c-6.1,2.8-9.2,4.1-15.3,6.7c0,3.3,0,4.9,0,8.2c4-1.7,6-2.5,10-4.3 c0,1.8,0,2.7,0,4.6c-5.3,2.4-8,3.5-13.3,5.7c0-7,0-10.4,0-17.4c7.4-3.1,11.1-4.7,18.6-8.1c0-5.5,0-8.2,0-13.7 c1.3-0.6,2-0.9,3.3-1.5c0,10.6,0,15.9,0,26.5c2.4-1.1,3.6-1.7,6-2.8c0-10.6,0-15.9,0-26.5c1.3-0.6,2-0.9,3.3-1.6 c0,10.6,0,15.9,0,26.5c2.4-1.2,3.6-1.7,6-2.9c0-10.6,0-15.9,0-26.5c1.3-0.7,2-1,3.4-1.7C1185.1,247.3,1185.1,257.6,1185.1,268 L1185.1,268z" fill="#239F40"/>
    <path d="M15.1,289.9c20.4-10,41.1-19.2,62.3-27.3c0,1.8,0,2.7,0,4.6c-21.3,8.2-41.9,17.3-62.4,27.3 C15.1,292.6,15.1,291.7,15.1,289.9z" fill="#FFFFFF"/>
    <path d="M101.4,279.9c-2.4,0.7-3.6,1.1-5.9,1.9c-0.1-10.6-0.1-15.9-0.1-26.4c-1.3,0.4-2,0.7-3.3,1.1 c0.1,10.6,0.1,15.9,0.1,26.4c-2.4,0.8-3.6,1.2-5.9,2c-0.1-10.6-0.1-15.9-0.1-26.4c-1.3,0.5-2,0.7-3.3,1.2c0,5.5,0,8.2,0.1,13.7 c-7.4,2.7-11.2,4.1-18.7,7.1c0,6.9,0.1,10.4,0.1,17.3c5.4-2.2,8.1-3.2,13.4-5.2c0-1.8,0-2.7,0-4.6c-4,1.5-6,2.2-10,3.8 c0-3.3,0-4.9,0-8.2c6.2-2.4,9.2-3.6,15.3-5.8c0,5.1,0,7.7,0.1,12.8c8.8-3.1,13.1-4.6,21.8-7.3c-0.1-10.3-0.1-20.7-0.2-31 c-1.3,0.4-2,0.6-3.3,1C101.3,264,101.3,269.3,101.4,279.9z" fill="#FFFFFF"/>
    <path d="M44.5,293.4c4.1-1.8,6.2-2.7,10.2-4.4c0,3.3,0,4.9,0,8.2c-6.2,2.6-9.4,4-15.7,6.9c0-5.1,0-7.6,0-12.7 c-9.1,4.1-13.7,6.3-23.1,11c0,7.3,0,10.9,0,18.2c1.4-0.7,2.1-1.1,3.6-1.8c0-5.5,0-8.2,0-13.7c6.5-3.2,9.7-4.7,16.1-7.7 c0,5.1,0,7.6,0,12.7c9.2-4.2,13.7-6.2,22.6-9.9c0-6.9,0-10.4-0.1-17.3c-5.4,2.2-8.1,3.4-13.6,5.8 C44.5,290.6,44.5,291.5,44.5,293.4z" fill="#FFFFFF"/>
    <path d="M25.1,310.5c2-0.9,2.9-1.4,4.9-2.3c0,1.8,0,2.7,0,4.6c-2,0.9-2.9,1.4-4.9,2.3 C25.1,313.3,25.1,312.4,25.1,310.5z" fill="#FFFFFF"/>
    <path d="M105.4,299.2c0-0.9,0-1.4,0-2.3s0-1.4,0-2.3c-14.1,4.5-28,9.5-41.8,14.8c0,0.9,0,1.4,0,2.3s0,1.4,0,2.3 C77.4,308.6,91.3,303.7,105.4,299.2z" fill="#FFFFFF"/>
    <path d="M58.9,315.9c0-0.9,0-1.4,0-2.3s0-1.4,0-2.3c-14.8,6.1-29.4,12.8-43.7,19.9c0,0.9,0,1.4,0,2.3s0,1.4,0,2.3 C29.5,328.8,44.1,322,58.9,315.9z" fill="#FFFFFF"/>
    <path d="M60.2,589.1c0-0.9,0-1.4,0-2.3s0-1.4,0-2.3c-15.1,6-29.9,12.8-44.5,19.8c0,0.9,0,1.4,0,2.3 c0,0.9,0,1.4,0,2.3C30.3,601.8,45.1,595.1,60.2,589.1z" fill="#FFFFFF"/>
    <path d="M106.8,572.6c0-0.9,0-1.4,0-2.3s0-1.4,0-2.3c-14.1,4.4-28,9.3-41.9,14.5c0,0.9,0,1.4,0,2.3 c0,0.9,0,1.4,0,2.3C78.8,581.9,92.7,577,106.8,572.6z" fill="#FFFFFF"/>
    <path d="M25.9,640.9c2-0.9,3-1.4,5-2.3c0,1.8,0,2.7,0,4.6c-2,0.9-3,1.4-5,2.3C25.9,643.6,25.9,642.7,25.9,640.9z" fill="#FFFFFF"/>
    <path d="M45.8,623.8c4.2-1.8,6.3-2.7,10.4-4.4c0,3.3,0,4.9,0,8.2c-6.3,2.6-9.5,4-16,6.8c0-5.1,0-7.6,0-12.7 c-9.3,4.1-14,6.3-23.7,11c0,7.3,0,10.9,0,18.2c1.5-0.7,2.2-1.1,3.7-1.8c0-5.5,0-8.2,0-13.7c6.7-3.2,10-4.7,16.5-7.6 c0,5.1,0,7.6,0,12.7c9.4-4.2,14-6.1,23-9.8c0-6.9,0-10.4-0.1-17.3c-5.5,2.2-8.2,3.4-13.8,5.8C45.8,621.1,45.8,622,45.8,623.8z" fill="#FFFFFF"/>
    <path d="M15.7,620.2c20.9-9.9,41.9-19,63.5-27.1c0,1.8,0,2.7,0,4.6c-21.6,8.1-42.6,17.2-63.5,27.1 C15.7,623,15.7,622.1,15.7,620.2z" fill="#FFFFFF"/>
    <path d="M103.1,610.7c-2.4,0.7-3.5,1.1-5.9,1.9c-0.1-10.6-0.1-15.9-0.1-26.4c-1.3,0.4-2,0.6-3.3,1.1 c0.1,10.6,0.1,15.9,0.1,26.4c-2.4,0.8-3.6,1.2-5.9,2c-0.1-10.6-0.1-15.9-0.1-26.4c-1.3,0.5-2,0.7-3.3,1.2c0,5.5,0,8.2,0.1,13.7 c-7.4,2.6-11.2,4-18.8,7c0,6.9,0.1,10.4,0.1,17.3c5.4-2.1,8.1-3.1,13.5-5.1c0-1.8,0-2.7,0-4.6c-4,1.5-6,2.2-10.1,3.8 c0-3.3,0-4.9,0-8.2c6.2-2.4,9.3-3.5,15.4-5.7c0,5.1,0,7.7,0.1,12.8c8.8-3.1,13.1-4.5,21.7-7.1c-0.1-10.3-0.1-20.7-0.2-31 c-1.3,0.4-2,0.6-3.3,1C103,594.9,103,600.2,103.1,610.7z" fill="#FFFFFF"/>
    <path d="M119.1,274.7c1.8-0.5,2.8-0.8,4.6-1.2c0,1.8,0,2.7,0,4.6c-1.8,0.5-2.8,0.7-4.6,1.2 C119.1,277.4,119.1,276.5,119.1,274.7z" fill="#FFFFFF"/>
    <path d="M194.1,260.3c-2.5,0.3-3.7,0.4-6.1,0.7c0-10.6,0-15.9-0.1-26.5c-1.4,0.2-2,0.3-3.4,0.4 c0,10.6,0,15.9,0.1,26.5c-2.4,0.3-3.6,0.5-6.1,0.8c0-10.6,0-15.9-0.1-26.5c-1.3,0.2-2,0.3-3.4,0.5c0,5.5,0,8.2,0,13.7 c-7.5,1.1-11.2,1.8-18.6,3.2c0,6.9,0,10.4,0.1,17.3c5.3-1,7.9-1.5,13.3-2.3c0-1.8,0-2.7,0-4.6c-4,0.6-6,1-10,1.7 c0-3.3,0-4.9,0-8.2c6.1-1.1,9.2-1.6,15.3-2.5c0,5.1,0,7.7,0,12.8c8.8-1.3,13.3-1.9,22.3-2.9c0-10.4,0-20.7-0.1-31.1 c-1.4,0.1-2.1,0.2-3.4,0.4C194.1,244.4,194.1,249.7,194.1,260.3z" fill="#FFFFFF"/>
    <path d="M109.8,251.8c19.8-5.6,39.7-10.1,60-13.7c0,1.8,0,2.7,0,4.6c-20.3,3.5-40.1,8-60,13.7 C109.8,254.5,109.8,253.6,109.8,251.8z" fill="#FFFFFF"/>
    <path d="M137.4,261.8c3.9-0.9,5.9-1.4,9.9-2.2c0,3.3,0,4.9,0,8.2c-6.1,1.3-9.1,2-15.1,3.4c0-5.1,0-7.7-0.1-12.8 c-8.7,2.1-13,3.3-21.6,5.8c0,7.3,0.1,10.9,0.1,18.2c1.3-0.4,2-0.6,3.3-1c0-5.5,0-8.2-0.1-13.7c6-1.7,9-2.5,15.1-4.1 c0,5.1,0,7.7,0.1,12.8c8.6-2.2,13-3.2,21.7-4.9c0-6.9,0-10.4-0.1-17.3c-5.3,1.1-7.9,1.6-13.2,2.9 C137.4,259.1,137.4,260,137.4,261.8z" fill="#FFFFFF"/>
    <path d="M151.3,287.6c0-0.9,0-1.4,0-2.3s0-1.4,0-2.3c-13.9,3-27.6,6.4-41.3,10.2c0,0.9,0,1.4,0,2.3s0,1.4,0,2.3 C123.7,293.9,137.4,290.5,151.3,287.6z" fill="#FFFFFF"/>
    <path d="M198.2,280.5c0-0.9,0-1.4,0-2.3s0-1.4,0-2.3c-14.2,1.6-28.2,3.7-42.3,6.2c0,0.9,0,1.4,0,2.3s0,1.4,0,2.3 C170,284.2,184,282.1,198.2,280.5z" fill="#FFFFFF"/>
    <path d="M152.3,561.4c0-0.9,0-1.4,0-2.3s0-1.4,0-2.3c-13.8,2.9-27.4,6.1-41,9.9c0,0.9,0,1.4,0,2.3 c0,0.9,0,1.4,0,2.3C125,567.5,138.5,564.2,152.3,561.4z" fill="#FFFFFF"/>
    <path d="M198.7,554.7c0-0.9,0-1.4,0-2.3c0-0.9,0-1.4,0-2.3c-14,1.5-27.9,3.5-41.8,5.9c0,0.9,0,1.4,0,2.3 c0,0.9,0,1.4,0,2.3C170.8,558.1,184.7,556.2,198.7,554.7z" fill="#FFFFFF"/>
    <path d="M138.8,593c3.9-0.9,5.8-1.3,9.7-2.1c0,3.3,0,4.9,0,8.2c-6,1.2-9,1.9-14.9,3.3c0-5.1,0-7.7-0.1-12.8 c-8.6,2-12.8,3.1-21.4,5.6c0,7.3,0.1,10.9,0.1,18.2c1.3-0.4,2-0.6,3.3-0.9c0-5.5,0-8.2-0.1-13.7c6-1.7,9-2.5,14.9-3.9 c0,5.1,0,7.7,0.1,12.8c8.6-2.1,12.8-3,21.4-4.7c0-6.9,0-10.4-0.1-17.3c-5.2,1-7.8,1.6-13,2.7C138.8,590.3,138.8,591.2,138.8,593z" fill="#FFFFFF"/>
    <path d="M194.7,592.1c-2.4,0.3-3.6,0.4-6,0.7c0-10.6,0-15.9-0.1-26.5c-1.3,0.2-2,0.2-3.3,0.4 c0,10.6,0,15.9,0.1,26.5c-2.4,0.3-3.6,0.5-6,0.8c0-10.6,0-15.9-0.1-26.5c-1.3,0.2-2,0.3-3.3,0.5c0,5.5,0,8.2,0,13.7 c-7.4,1.1-11.1,1.6-18.4,3c0,6.9,0,10.4,0.1,17.3c5.2-0.9,7.8-1.4,13.1-2.2c0-1.8,0-2.7,0-4.6c-3.9,0.6-5.9,0.9-9.8,1.6 c0-3.3,0-4.9,0-8.2c6-1.1,9-1.5,15.1-2.4c0,5.1,0,7.7,0,12.8c8.7-1.2,13.1-1.8,22-2.7c0-10.4,0-20.7-0.1-31.1 c-1.4,0.1-2,0.2-3.4,0.3C194.7,576.2,194.7,581.5,194.7,592.1z" fill="#FFFFFF"/>
    <path d="M120.7,605.7c1.8-0.5,2.7-0.7,4.5-1.2c0,1.8,0,2.7,0,4.6c-1.8,0.5-2.7,0.7-4.5,1.2 C120.7,608.4,120.7,607.5,120.7,605.7z" fill="#FFFFFF"/>
    <path d="M111.4,582.7c19.6-5.4,39.2-9.7,59.3-13.1c0,1.8,0,2.7,0,4.6c-20.1,3.1-39.7,7.6-59.3,13 C111.5,585.4,111.5,584.5,111.4,582.7z" fill="#FFFFFF"/>
    <path d="M296.8,256.8c-2.9-0.1-4.3-0.1-7.2-0.2c0-10.6,0-15.9,0-26.5c-1.6,0-2.4,0-3.9-0.1c0,10.6,0,15.9,0,26.5 c-2.8,0-4.2-0.1-7-0.1c0-10.6,0-15.9,0-26.5c-1.6,0-2.3,0-3.9,0c0,5.5,0,8.2,0,13.7c-8.6,0-12.8,0-21.1,0.2c0,7,0,10.4,0,17.4 c5.9-0.1,8.9-0.2,15-0.2c0-1.8,0-2.7,0-4.6c-4.6,0-6.8,0-11.3,0.1c0-3.3,0-4.9,0-8.2c6.9-0.1,10.3-0.1,17.4-0.1 c0,5.1,0,7.7,0,12.8c10.2,0.1,15.4,0.1,26,0.4c0-10.4,0-20.7,0-31.1c-1.6,0-2.4-0.1-4-0.1C296.8,240.8,296.8,246.1,296.8,256.8z" fill="#FFFFFF"/>
    <path d="M212.7,258.6c2-0.2,2.9-0.2,4.9-0.4c0,1.8,0,2.7,0,4.6c-2,0.1-2.9,0.2-4.9,0.4 C212.7,261.3,212.7,260.4,212.7,258.6z" fill="#FFFFFF"/>
    <path d="M232.5,249.1c4.3-0.2,6.5-0.3,10.9-0.4c0,3.3,0,4.9,0,8.2c-6.7,0.2-10,0.4-16.6,0.7c0-5.1,0-7.7,0-12.8 c-9.4,0.5-14,0.9-23.1,1.8c0,7.3,0,11,0,18.3c1.4-0.1,2.1-0.2,3.5-0.3c0-5.5,0-8.2,0-13.7c6.4-0.6,9.6-0.8,16.1-1.2 c0,5.1,0,7.7,0,12.8c9.3-0.6,14.1-0.8,23.8-1.1c0-7,0-10.4,0-17.4c-5.9,0.2-8.8,0.3-14.5,0.6C232.5,246.3,232.5,247.2,232.5,249.1 z" fill="#FFFFFF"/>
    <path d="M203,233.8c21.9-1.9,43.7-2.8,65.7-3c0,1.8,0,2.7,0,4.6c-22,0.2-43.8,1.1-65.7,3 C203,236.6,203,235.6,203,233.8z" fill="#FFFFFF"/>
    <path d="M247.8,277.3c0-0.9,0-1.4,0-2.3s0-1.4,0-2.3c-15,0.5-29.8,1.4-44.7,2.7c0,0.9,0,1.4,0,2.3s0,1.4,0,2.3 C217.9,278.7,232.8,277.8,247.8,277.3z" fill="#FFFFFF"/>
    <path d="M301.6,277.5c0-0.9,0-1.4,0-2.3s0-1.4,0-2.3c-16.2-0.5-32.5-0.6-48.7-0.3c0,0.9,0,1.4,0,2.3s0,1.4,0,2.3 C269.1,276.9,285.4,277,301.6,277.5z" fill="#FFFFFF"/>
    <path d="M301.6,552c0-0.9,0-1.4,0-2.3s0-1.4,0-2.3c-16.2-0.5-32.4-0.6-48.6-0.3c0,0.9,0,1.4,0,2.3 c0,0.9,0,1.4,0,2.3C269.2,551.4,285.4,551.5,301.6,552z" fill="#FFFFFF"/>
    <path d="M247.8,551.8c0-0.9,0-1.4,0-2.3c0-0.9,0-1.4,0-2.3c-14.8,0.5-29.6,1.3-44.4,2.5c0,0.9,0,1.4,0,2.3 c0,0.9,0,1.4,0,2.3C218.2,553,233,552.2,247.8,551.8z" fill="#FFFFFF"/>
    <path d="M296.8,588.9c-2.9-0.1-4.3-0.1-7.2-0.2c0-10.6,0-15.9,0-26.5c-1.6,0-2.4,0-3.9-0.1c0,10.6,0,15.9,0,26.5 c-2.8,0-4.2-0.1-7-0.1c0-10.6,0-15.9,0-26.5c-1.6,0-2.3,0-3.9,0c0,5.5,0,8.2,0,13.7c-8.6,0-12.8,0-21.1,0.1c0,7,0,10.4,0,17.4 c5.9-0.1,8.9-0.1,15-0.1c0-1.8,0-2.7,0-4.6c-4.6,0-6.8,0-11.3,0.1c0-3.3,0-4.9,0-8.2c6.8-0.1,10.3-0.1,17.4-0.1 c0,5.1,0,7.7,0,12.8c10.2,0,15.4,0.1,26,0.4c0-10.4,0-20.7,0-31.1c-1.6,0-2.4-0.1-4-0.1C296.8,573,296.8,578.3,296.8,588.9z" fill="#FFFFFF"/>
    <path d="M203.5,565.6c21.7-1.7,43.4-2.5,65.2-2.7c0,1.8,0,2.7,0,4.6c-21.8,0.2-43.5,0.9-65.2,2.7 C203.5,568.4,203.5,567.5,203.5,565.6z" fill="#FFFFFF"/>
    <path d="M232.7,581.1c4.3-0.2,6.4-0.3,10.8-0.4c0,3.3,0,4.9,0,8.2c-6.7,0.2-9.9,0.3-16.4,0.7c0-5.1,0-7.7,0-12.8 c-9.3,0.5-13.9,0.8-22.9,1.6c0,7.3,0,11,0,18.3c1.4-0.1,2-0.2,3.4-0.3c0-5.5,0-8.2,0-13.7c6.3-0.5,9.5-0.7,15.9-1.1 c0,5.1,0,7.7,0,12.8c9.2-0.5,13.9-0.7,23.6-0.9c0-7,0-10.4,0-17.4c-5.8,0.1-8.7,0.2-14.4,0.5C232.7,578.4,232.7,579.3,232.7,581.1 z" fill="#FFFFFF"/>
    <path d="M213.1,590.5c1.9-0.1,2.9-0.2,4.8-0.3c0,1.8,0,2.7,0,4.6c-1.9,0.1-2.9,0.2-4.8,0.3 C213.1,593.2,213.1,592.3,213.1,590.5z" fill="#FFFFFF"/>
    <path d="M307.3,231.5c25.7,1,51.4,2.6,77,4.6c0,1.8,0,2.7,0,4.6c-25.7-2-51.3-3.6-77-4.6 C307.3,234.2,307.3,233.3,307.3,231.5z" fill="#FFFFFF"/>
    <path d="M318.7,257.5c2.3,0.1,3.5,0.1,5.8,0.3c0,1.8,0,2.7,0,4.6c-2.3-0.1-3.5-0.2-5.8-0.3 C318.7,260.3,318.7,259.3,318.7,257.5z" fill="#FFFFFF"/>
    <path d="M415.8,264.6c-3.2-0.3-4.7-0.5-7.9-0.8c0-10.6,0-15.9,0-26.5c-1.8-0.2-2.6-0.3-4.4-0.4 c0,10.6,0,15.9,0,26.5c-3.2-0.3-4.7-0.4-7.9-0.7c0-10.6,0-15.9,0-26.5c-1.7-0.2-2.6-0.2-4.4-0.4c0,5.5,0,8.2,0,13.7 c-9.8-0.8-14.7-1.2-24.3-1.9c0,7,0,10.4,0,17.4c6.9,0.5,10.4,0.8,17.3,1.4c0-1.8,0-2.7,0-4.6c-5.2-0.4-7.8-0.6-13-1 c0-3.3,0-4.9,0-8.2c8,0.6,12,0.9,20,1.6c0,5.1,0,7.7,0,12.8c9.7,0.8,19.3,1.7,28.9,2.7c0-10.4,0-20.7,0-31.1 c-1.8-0.2-2.6-0.3-4.4-0.4C415.8,248.6,415.8,253.9,415.8,264.6z" fill="#FFFFFF"/>
    <path d="M342.1,250.5c5.1,0.3,7.6,0.5,12.8,0.8c0,3.3,0,4.9,0,8.2c-7.9-0.5-11.8-0.8-19.5-1.2c0-5.1,0-7.7,0-12.8 c-11.1-0.6-16.6-0.8-27.3-1.2c0,7.3,0,11,0,18.3c1.6,0.1,2.4,0.1,4.1,0.1c0-5.5,0-8.2,0-13.7c7.5,0.3,11.3,0.5,19,0.8 c0,5.1,0,7.7,0,12.8c9.3,0.5,18.7,1,28,1.7c0-7,0-10.4,0-17.4c-6.9-0.5-10.3-0.7-17-1.1C342.1,247.7,342.1,248.6,342.1,250.5z" fill="#FFFFFF"/>
    <path d="M360,280.4c0-0.9,0-1.4,0-2.3s0-1.4,0-2.3c-17.6-1.2-35.2-2.1-52.8-2.8c0,0.9,0,1.4,0,2.3s0,1.4,0,2.3 C324.9,278.3,342.5,279.3,360,280.4z" fill="#FFFFFF"/>
    <path d="M421.1,285.7c0-0.9,0-1.4,0-2.3s0-1.4,0-2.3c-18.3-1.8-36.6-3.4-55-4.8c0,0.9,0,1.4,0,2.3s0,1.4,0,2.3 C384.4,282.2,402.7,283.8,421.1,285.7z" fill="#FFFFFF"/>
    <path d="M421.1,560c0-0.9,0-1.4,0-2.3s0-1.4,0-2.3c-18.3-1.8-36.6-3.4-55-4.7c0,0.9,0,1.4,0,2.3c0,0.9,0,1.4,0,2.3 C384.4,556.6,402.7,558.2,421.1,560z" fill="#FFFFFF"/>
    <path d="M360,554.8c0-0.9,0-1.4,0-2.3c0-0.9,0-1.4,0-2.3c-17.6-1.1-35.2-2-52.8-2.7c0,0.9,0,1.4,0,2.3s0,1.4,0,2.3 C324.9,552.8,342.5,553.7,360,554.8z" fill="#FFFFFF"/>
    <path d="M318.7,589.6c2.3,0.1,3.5,0.1,5.8,0.2c0,1.8,0,2.7,0,4.6c-2.3-0.1-3.5-0.2-5.8-0.2 C318.7,592.4,318.7,591.5,318.7,589.6z" fill="#FFFFFF"/>
    <path d="M342.1,582.5c5.1,0.3,7.6,0.4,12.8,0.8c0,3.3,0,4.9,0,8.2c-7.9-0.5-11.8-0.7-19.5-1.1c0-5.1,0-7.7,0-12.8 c-11.1-0.6-16.6-0.8-27.3-1.2c0,7.3,0,11,0,18.3c1.6,0.1,2.4,0.1,4.1,0.1c0-5.5,0-8.2,0-13.7c7.5,0.3,11.3,0.4,19,0.8 c0,5.1,0,7.7,0,12.8c9.3,0.5,18.7,1,28,1.6c0-7,0-10.4,0-17.4c-6.9-0.5-10.3-0.7-17-1.1C342.1,579.8,342.1,580.7,342.1,582.5z" fill="#FFFFFF"/>
    <path d="M307.3,563.6c25.7,0.9,51.4,2.5,77,4.5c0,1.8,0,2.7,0,4.6c-25.7-2-51.3-3.5-77-4.5 C307.3,566.3,307.3,565.4,307.3,563.6z" fill="#FFFFFF"/>
    <path d="M415.8,596.5c-3.2-0.3-4.7-0.5-7.9-0.8c0-10.6,0-15.9,0-26.5c-1.8-0.2-2.6-0.2-4.4-0.4 c0,10.6,0,15.9,0,26.5c-3.2-0.3-4.7-0.4-7.9-0.7c0-10.6,0-15.9,0-26.5c-1.7-0.2-2.6-0.2-4.4-0.4c0,5.5,0,8.2,0,13.7 c-9.8-0.8-14.7-1.2-24.3-1.9c0,7,0,10.4,0,17.4c6.9,0.5,10.4,0.8,17.3,1.3c0-1.8,0-2.7,0-4.6c-5.2-0.4-7.8-0.6-13-1 c0-3.3,0-4.9,0-8.2c8,0.6,12,0.9,20,1.6c0,5.1,0,7.7,0,12.8c9.7,0.8,19.3,1.7,28.9,2.7c0-10.4,0-20.7,0-31.1 c-1.8-0.2-2.6-0.3-4.4-0.4C415.8,580.6,415.8,585.9,415.8,596.5z" fill="#FFFFFF"/>
    <path d="M464.1,261.7c5.3,0.6,7.9,1,13.1,1.6c0,3.3,0,4.9,0,8.2c-8-1-12-1.5-20.1-2.5c0-5.1,0-7.7,0-12.8 c-9.7-1.2-19.3-2.2-29-3.3c0,7.3,0,11,0,18.3c1.8,0.2,2.6,0.3,4.4,0.5c0-5.5,0-8.2,0-13.7c8.1,0.9,12.1,1.3,20.2,2.3 c0,5.1,0,7.7,0,12.8c9.6,1.1,19.2,2.3,28.8,3.6c0-6.9,0-10.4,0-17.4c-7-0.9-10.4-1.3-17.4-2.2 C464.1,258.9,464.1,259.9,464.1,261.7z" fill="#FFFFFF"/>
    <path d="M427.2,240.1c26.5,2.9,52.9,6.1,79.4,9.8c0,1.8,0,2.7,0,4.6c-26.4-3.7-52.8-6.9-79.4-9.8 C427.2,242.9,427.2,242,427.2,240.1z" fill="#FFFFFF"/>
    <path d="M537,280.1c-3-0.5-4.5-0.7-7.5-1.2c0-10.6,0-15.9,0-26.5c-1.7-0.3-2.5-0.4-4.2-0.6c0,10.6,0,15.9,0,26.5 c-3-0.5-4.6-0.7-7.6-1.1c0-10.6,0-15.9,0-26.5c-1.7-0.3-2.5-0.4-4.2-0.6c0,5.5,0,8.2,0,13.7c-9.5-1.4-14.3-2.1-24-3.4 c0,6.9,0,10.4,0,17.4c6.9,0.9,10.4,1.4,17.2,2.4c0-1.8,0-2.7,0-4.6c-5.1-0.7-7.7-1.1-12.9-1.8c0-3.3,0-4.9,0-8.2 c7.9,1.1,11.9,1.6,19.7,2.8c0,5.1,0,7.7,0,12.8c9.2,1.3,18.5,2.7,27.7,4.2c0-10.4,0-20.7,0-31.1c-1.7-0.3-2.5-0.4-4.1-0.7 C537,264.2,537,269.5,537,280.1z" fill="#FFFFFF"/>
    <path d="M439.5,267c2.5,0.3,3.7,0.4,6.2,0.7c0,1.8,0,2.7,0,4.6c-2.5-0.3-3.7-0.4-6.2-0.7 C439.5,269.8,439.5,268.9,439.5,267z" fill="#FFFFFF"/>
    <path d="M482.4,292.8c0-0.9,0-1.4,0-2.3s0-1.4,0-2.3c-18.4-2.4-36.8-4.5-55.2-6.5c0,0.9,0,1.4,0,2.3s0,1.4,0,2.3 C445.6,288.3,464,290.4,482.4,292.8z" fill="#FFFFFF"/>
    <path d="M541.9,301.4c0-0.9,0-1.4,0-2.3s0-1.4,0-2.3c-17.8-2.8-35.6-5.4-53.4-7.8c0,0.9,0,1.4,0,2.3s0,1.4,0,2.3 C506.3,296,524.1,298.6,541.9,301.4z" fill="#FFFFFF"/>
    <path d="M482.4,567c0-0.9,0-1.4,0-2.3s0-1.4,0-2.3c-18.4-2.3-36.8-4.5-55.2-6.4c0,0.9,0,1.4,0,2.3 c0,0.9,0,1.4,0,2.3C445.6,562.5,464,564.7,482.4,567z" fill="#FFFFFF"/>
    <path d="M541.9,575.5c0-0.9,0-1.4,0-2.3c0-0.9,0-1.4,0-2.3c-17.8-2.8-35.6-5.3-53.4-7.7c0,0.9,0,1.4,0,2.3 c0,0.9,0,1.4,0,2.3C506.3,570.2,524.1,572.8,541.9,575.5z" fill="#FFFFFF"/>
    <path d="M537,611.7c-3-0.5-4.5-0.7-7.5-1.2c0-10.6,0-15.9,0-26.5c-1.7-0.3-2.5-0.4-4.2-0.6c0,10.6,0,15.9,0,26.5 c-3-0.5-4.6-0.7-7.6-1.1c0-10.6,0-15.9,0-26.5c-1.7-0.2-2.5-0.4-4.2-0.6c0,5.5,0,8.2,0,13.7c-9.5-1.4-14.3-2-24-3.3 c0,6.9,0,10.4,0,17.4c6.9,0.9,10.4,1.4,17.2,2.3c0-1.8,0-2.7,0-4.6c-5.1-0.7-7.7-1.1-12.9-1.8c0-3.3,0-4.9,0-8.2 c7.9,1.1,11.9,1.6,19.7,2.7c0,5.1,0,7.7,0,12.8c9.2,1.3,18.5,2.7,27.7,4.2c0-10.4,0-20.7,0-31.1c-1.7-0.3-2.5-0.4-4.1-0.6 C537,595.8,537,601.1,537,611.7z" fill="#FFFFFF"/>
    <path d="M427.2,572c26.5,2.8,52.9,6,79.4,9.6c0,1.8,0,2.7,0,4.6c-26.4-3.6-52.8-6.8-79.4-9.6 C427.2,574.8,427.2,573.8,427.2,572z" fill="#FFFFFF"/>
    <path d="M464.1,593.5c5.3,0.6,7.9,1,13.1,1.6c0,3.3,0,4.9,0,8.2c-8-1-12-1.5-20.1-2.4c0-5.1,0-7.7,0-12.8 c-9.7-1.1-19.3-2.2-29-3.2c0,7.3,0,11,0,18.3c1.8,0.2,2.6,0.3,4.4,0.5c0-5.5,0-8.2,0-13.7c8.1,0.9,12.1,1.3,20.2,2.2 c0,5.1,0,7.7,0,12.8c9.6,1.1,19.2,2.3,28.8,3.5c0-6.9,0-10.4,0-17.4c-7-0.9-10.4-1.3-17.4-2.2 C464.1,590.8,464.1,591.7,464.1,593.5z" fill="#FFFFFF"/>
    <path d="M439.5,598.9c2.5,0.3,3.7,0.4,6.2,0.7c0,1.8,0,2.7,0,4.6c-2.5-0.3-3.7-0.4-6.2-0.7 C439.5,601.7,439.5,600.7,439.5,598.9z" fill="#FFFFFF"/>
    <path d="M581.3,279.3c4.7,0.8,7,1.3,11.5,2.1c0,3.3,0,4.9,0,8.2c-7-1.3-10.6-2-17.8-3.3c0-5.1,0-7.7,0-12.8 c-10.4-1.8-15.7-2.7-26.5-4.5c0,7.3,0,11,0,18.3c1.6,0.3,2.5,0.4,4.1,0.7c0-5.5,0-8.2,0-13.7c7.5,1.2,11.2,1.9,18.5,3.1 c0,5.1,0,7.7,0,12.8c10.5,1.8,15.6,2.8,25.5,4.7c0-6.9,0-10.4,0-17.4c-6-1.2-9.1-1.7-15.3-2.8 C581.3,276.6,581.3,277.5,581.3,279.3z" fill="#FFFFFF"/>
    <path d="M647.9,299.4c-3-0.5-4.4-0.7-7.3-1.2c0-10.6,0-15.9,0-26.5c-1.6-0.3-2.4-0.4-4-0.7c0,10.6,0,15.9,0,26.5 c-2.9-0.5-4.4-0.7-7.2-1.2c0-10.6,0-15.9,0-26.5c-1.6-0.3-2.4-0.4-4-0.7c0,5.5,0,8.2,0,13.7c-8.9-1.5-13.3-2.3-21.8-4 c0,6.9,0,10.4,0,17.4c6.1,1.2,9.2,1.7,15.5,2.9c0-1.8,0-2.7,0-4.6c-4.7-0.8-7.1-1.3-11.7-2.1c0-3.3,0-4.9,0-8.2 c7.1,1.3,10.7,2,18,3.2c0,5.1,0,7.7,0,12.8c10.5,1.8,15.8,2.7,26.7,4.4c0-10.4,0-20.7,0-31.1c-1.6-0.3-2.5-0.4-4.1-0.6 C647.9,283.5,647.9,288.8,647.9,299.4z" fill="#FFFFFF"/>
    <path d="M547.7,256.2c23.8,3.9,47.5,8.4,71.2,12.8c0,1.8,0,2.7,0,4.6c-23.7-4.3-47.4-8.8-71.2-12.8 C547.7,258.9,547.7,258,547.7,256.2z" fill="#FFFFFF"/>
    <path d="M559.1,283.7c2.3,0.4,3.4,0.6,5.6,1c0,1.8,0,2.7,0,4.6c-2.2-0.4-3.4-0.6-5.6-1 C559.1,286.4,559.1,285.5,559.1,283.7z" fill="#FFFFFF"/>
    <path d="M597.4,311.1c0-0.9,0-1.4,0-2.3s0-1.4,0-2.3c-16.5-3.2-33.1-6-49.7-8.8c0,0.9,0,1.4,0,2.3s0,1.4,0,2.3 C564.3,305.1,580.9,307.9,597.4,311.1z" fill="#FFFFFF"/>
    <path d="M652.8,320.8c0-0.9,0-1.4,0-2.3s0-1.4,0-2.3c-16.7-2.7-33.5-5.5-50.1-8.6c0,0.9,0,1.4,0,2.3s0,1.4,0,2.3 C619.3,315.3,636,318.1,652.8,320.8z" fill="#FFFFFF"/>
    <path d="M652.7,594.8c0-0.9,0-1.4,0-2.3s0-1.4,0-2.3c-16.7-2.7-33.4-5.5-50.1-8.6c0,0.9,0,1.4,0,2.3 c0,0.9,0,1.4,0,2.3C619.3,589.3,636,592.1,652.7,594.8z" fill="#FFFFFF"/>
    <path d="M597.4,585.1c0-0.9,0-1.4,0-2.3c0-0.9,0-1.4,0-2.3c-16.5-3.2-33.1-6-49.7-8.7c0,0.9,0,1.4,0,2.3 s0,1.4,0,2.3C564.3,579.2,580.9,582,597.4,585.1z" fill="#FFFFFF"/>
    <path d="M547.7,587.8c23.8,3.9,47.5,8.4,71.2,12.7c0,1.8,0,2.7,0,4.6c-23.7-4.3-47.4-8.8-71.2-12.7 C547.7,590.6,547.7,589.7,547.7,587.8z" fill="#FFFFFF"/>
    <path d="M581.3,610.9c4.7,0.8,7,1.3,11.5,2.1c0,3.3,0,4.9,0,8.2c-7-1.3-10.6-2-17.8-3.2c0-5.1,0-7.7,0-12.8 c-10.4-1.8-15.7-2.7-26.5-4.5c0,7.3,0,11,0,18.3c1.6,0.3,2.5,0.4,4.1,0.7c0-5.5,0-8.2,0-13.7c7.5,1.2,11.2,1.9,18.5,3.1 c0,5.1,0,7.7,0,12.8c10.5,1.8,15.6,2.8,25.5,4.6c0-6.9,0-10.4,0-17.4c-6-1.1-9.1-1.7-15.3-2.8 C581.3,608.2,581.3,609.1,581.3,610.9z" fill="#FFFFFF"/>
    <path d="M559.1,615.3c2.3,0.4,3.4,0.6,5.6,1c0,1.8,0,2.7,0,4.6c-2.2-0.4-3.4-0.6-5.6-1 C559.1,618,559.1,617.1,559.1,615.3z" fill="#FFFFFF"/>
    <path d="M647.8,631c-2.9-0.5-4.4-0.7-7.3-1.2c0-10.6,0-15.9,0-26.5c-1.6-0.3-2.4-0.4-4-0.7c0,10.6,0,15.9,0,26.5 c-2.9-0.5-4.3-0.7-7.2-1.2c0-10.6,0-15.9,0-26.5c-1.6-0.3-2.4-0.4-4-0.7c0,5.5,0,8.2,0,13.7c-8.9-1.5-13.2-2.3-21.8-4 c0,6.9,0,10.4,0,17.4c6.1,1.2,9.2,1.7,15.5,2.9c0-1.8,0-2.7,0-4.6c-4.7-0.8-7-1.3-11.6-2.1c0-3.3,0-4.9,0-8.2 c7.1,1.3,10.7,2,18,3.2c0,5.1,0,7.7,0,12.8c10.5,1.8,15.8,2.7,26.7,4.4c0-10.4,0-20.7,0-31.1c-1.6-0.3-2.5-0.4-4.1-0.6 C647.8,615.1,647.8,620.4,647.8,631z" fill="#FFFFFF"/>
    <path d="M670.3,302.8c2.4,0.3,3.5,0.5,5.9,0.9c0,1.8,0,2.7,0,4.6c-2.4-0.3-3.5-0.5-5.9-0.9 C670.3,305.6,670.3,304.7,670.3,302.8z" fill="#FFFFFF"/>
    <path d="M658.6,275.5c25.9,3.9,51.9,7.3,77.9,10.3c0,1.8,0,2.7,0,4.6c-26-3-52-6.4-77.9-10.3 C658.6,278.3,658.6,277.3,658.6,275.5z" fill="#FFFFFF"/>
    <path d="M768,314.6c-3.2-0.3-4.7-0.5-7.9-0.8c0-10.6,0-15.9,0-26.5c-1.8-0.2-2.6-0.3-4.4-0.4c0,10.6,0,15.9,0,26.5 c-3.2-0.3-4.7-0.5-7.9-0.8c0-10.6,0-15.9,0-26.5c-1.8-0.2-2.6-0.3-4.4-0.5c0,5.5,0,8.2,0,13.7c-9.8-1.1-14.7-1.6-24.4-2.8 c0,6.9,0,10.4,0,17.4c6.9,0.8,10.4,1.2,17.4,2c0-1.8,0-2.7,0-4.6c-5.2-0.6-7.9-0.9-13.1-1.5c0-3.3,0-4.9,0-8.2 c8,0.9,12,1.4,20.1,2.3c0,5.1,0,7.7,0,12.8c9.6,1.1,19.3,2,28.9,2.9c0-10.4,0-20.7,0-31.1c-1.8-0.2-2.6-0.2-4.4-0.4 C768,298.7,768,304,768,314.6z" fill="#FFFFFF"/>
    <path d="M694,297.9c5.1,0.7,7.7,1,12.9,1.7c0,3.3,0,4.9,0,8.2c-7.9-1-11.9-1.5-19.7-2.6c0-5.1,0-7.7,0-12.8 c-9.3-1.3-18.5-2.6-27.8-4c0,7.3,0,11,0,18.3c1.7,0.3,2.5,0.4,4.2,0.6c0-5.5,0-8.2,0-13.7c7.7,1.1,11.6,1.7,19.4,2.8 c0,5.1,0,7.7,0,12.8c9.4,1.3,18.9,2.6,28.3,3.7c0-6.9,0-10.4,0-17.4c-6.9-0.9-10.4-1.3-17.2-2.2C694,295.2,694,296.1,694,297.9z" fill="#FFFFFF"/>
    <path d="M712.1,329c0-0.9,0-1.4,0-2.3s0-1.4,0-2.3c-17.9-2.3-35.7-4.7-53.5-7.4c0,0.9,0,1.4,0,2.3s0,1.4,0,2.3 C676.4,324.3,694.2,326.8,712.1,329z" fill="#FFFFFF"/>
    <path d="M773.3,335.7c0-0.9,0-1.4,0-2.3s0-1.4,0-2.3c-18.4-1.8-36.7-3.7-55.1-5.9c0,0.9,0,1.4,0,2.3s0,1.4,0,2.3 C736.5,331.9,754.9,333.9,773.3,335.7z" fill="#FFFFFF"/>
    <path d="M712,603.1c0-0.9,0-1.4,0-2.3s0-1.4,0-2.3c-17.9-2.3-35.7-4.7-53.5-7.4c0,0.9,0,1.4,0,2.3 c0,0.9,0,1.4,0,2.3C676.3,598.4,694.2,600.8,712,603.1z" fill="#FFFFFF"/>
    <path d="M773.2,609.7c0-0.9,0-1.4,0-2.3c0-0.9,0-1.4,0-2.3c-18.4-1.8-36.8-3.7-55.1-5.9c0,0.9,0,1.4,0,2.3 c0,0.9,0,1.4,0,2.3C736.5,606,754.8,608,773.2,609.7z" fill="#FFFFFF"/>
    <path d="M693.9,629.5c5.1,0.7,7.7,1,12.9,1.7c0,3.3,0,4.9,0,8.2c-7.9-1-11.9-1.5-19.7-2.6c0-5.1,0-7.7,0-12.8 c-9.3-1.3-18.5-2.6-27.8-4c0,7.3,0,11,0,18.3c1.7,0.3,2.5,0.4,4.2,0.6c0-5.5,0-8.2,0-13.7c7.7,1.1,11.6,1.7,19.4,2.8 c0,5.1,0,7.7,0,12.8c9.4,1.3,18.9,2.6,28.3,3.7c0-6.9,0-10.4,0-17.4c-6.9-0.9-10.4-1.3-17.2-2.2 C693.9,626.8,693.9,627.7,693.9,629.5z" fill="#FFFFFF"/>
    <path d="M658.5,607.1c25.9,3.9,51.9,7.3,77.9,10.3c0,1.8,0,2.7,0,4.6c-26-3-52-6.4-77.9-10.3 C658.5,609.9,658.5,608.9,658.5,607.1z" fill="#FFFFFF"/>
    <path d="M767.9,646.2c-3.2-0.3-4.7-0.5-7.9-0.8c0-10.6,0-15.9,0-26.5c-1.8-0.2-2.6-0.3-4.4-0.4 c0,10.6,0,15.9,0,26.5c-3.2-0.3-4.7-0.5-7.9-0.8c0-10.6,0-15.9,0-26.5c-1.8-0.2-2.6-0.3-4.4-0.5c0,5.5,0,8.2,0,13.7 c-9.8-1.1-14.7-1.6-24.4-2.8c0,6.9,0,10.4,0,17.4c6.9,0.8,10.4,1.2,17.4,2c0-1.8,0-2.7,0-4.6c-5.2-0.6-7.9-0.9-13.1-1.5 c0-3.3,0-4.9,0-8.2c8,0.9,12,1.4,20.1,2.3c0,5.1,0,7.7,0,12.8c9.6,1.1,19.3,2,28.9,2.9c0-10.4,0-20.7,0-31.1 c-1.8-0.2-2.6-0.2-4.4-0.4C767.9,630.3,767.9,635.6,767.9,646.2z" fill="#FFFFFF"/>
    <path d="M670.2,634.4c2.4,0.3,3.5,0.5,5.9,0.9c0,1.8,0,2.7,0,4.6c-2.4-0.3-3.5-0.5-5.9-0.9 C670.2,637.2,670.2,636.3,670.2,634.4z" fill="#FFFFFF"/>
    <path d="M791.7,316.8c2.4,0.2,3.7,0.3,6.1,0.5c0,1.8,0,2.7,0,4.6c-2.4-0.2-3.7-0.3-6.1-0.5 C791.7,319.5,791.7,318.6,791.7,316.8z" fill="#FFFFFF"/>
    <path d="M887.9,322.5c-2.9-0.1-4.4-0.1-7.4-0.3c0-10.6,0-15.9,0-26.5c-1.6-0.1-2.5-0.1-4.1-0.2 c0,10.6,0,15.9,0,26.5c-3-0.1-4.5-0.2-7.5-0.3c0-10.6,0-15.9,0-26.5c-1.7-0.1-2.5-0.1-4.2-0.2c0,5.5,0,8.2,0,13.7 c-9.4-0.4-14.1-0.7-23.7-1.3c0,6.9,0,10.4,0,17.4c6.8,0.4,10.2,0.6,17,0.9c0-1.8,0-2.7,0-4.6c-5.1-0.3-7.6-0.4-12.7-0.7 c0-3.3,0-4.9,0-8.2c7.8,0.4,11.7,0.6,19.4,1c0,5.1,0,7.7,0,12.8c11.1,0.5,16.5,0.7,27.2,1c0-10.4,0-20.7,0-31.1 c-1.6,0-2.4-0.1-4.1-0.1C887.9,306.6,887.9,311.9,887.9,322.5z" fill="#FFFFFF"/>
    <path d="M816.1,310.5c5.2,0.4,7.8,0.6,13,0.9c0,3.3,0,4.9,0,8.2c-7.9-0.5-11.9-0.8-19.9-1.4c0-5.1,0-7.7,0-12.8 c-9.6-0.7-19.2-1.5-28.8-2.4c0,7.3,0,11,0,18.3c1.8,0.2,2.6,0.2,4.4,0.4c0-5.5,0-8.2,0-13.7c8.1,0.7,12.1,1,20.1,1.7 c0,5.1,0,7.7,0,12.8c9.5,0.8,19,1.4,28.6,2c0-6.9,0-10.4,0-17.4c-6.9-0.4-10.3-0.7-17.3-1.2C816.1,307.7,816.1,308.6,816.1,310.5z " fill="#FFFFFF"/>
    <path d="M779.4,290.1c26.2,2.3,52.4,4.2,78.6,5.6c0,1.8,0,2.7,0,4.6c-26.2-1.4-52.4-3.3-78.6-5.6 C779.4,292.9,779.4,291.9,779.4,290.1z" fill="#FFFFFF"/>
    <path d="M834.2,340.5c0-0.9,0-1.4,0-2.3s0-1.4,0-2.3c-18.3-1.2-36.5-2.6-54.8-4.2c0,0.9,0,1.4,0,2.3s0,1.4,0,2.3 C797.7,337.9,815.9,339.3,834.2,340.5z" fill="#FFFFFF"/>
    <path d="M892.8,343.2c0-0.9,0-1.4,0-2.3s0-1.4,0-2.3c-17.5-0.6-35.1-1.4-52.6-2.4c0,0.9,0,1.4,0,2.3s0,1.4,0,2.3 C857.7,341.8,875.2,342.6,892.8,343.2z" fill="#FFFFFF"/>
    <path d="M834.2,614.5c0-0.9,0-1.4,0-2.3s0-1.4,0-2.3c-18.3-1.2-36.5-2.6-54.8-4.2c0,0.9,0,1.4,0,2.3s0,1.4,0,2.3 C797.6,611.9,815.9,613.3,834.2,614.5z" fill="#FFFFFF"/>
    <path d="M892.8,617.3c0-0.9,0-1.4,0-2.3c0-0.9,0-1.4,0-2.3c-17.6-0.6-35.1-1.4-52.6-2.4c0,0.9,0,1.4,0,2.3 s0,1.4,0,2.3C857.7,615.9,875.2,616.7,892.8,617.3z" fill="#FFFFFF"/>
    <path d="M791.6,648.4c2.4,0.2,3.7,0.3,6.1,0.5c0,1.8,0,2.7,0,4.6c-2.4-0.2-3.7-0.3-6.1-0.5 C791.6,651.1,791.6,650.2,791.6,648.4z" fill="#FFFFFF"/>
    <path d="M779.3,621.7c26.2,2.3,52.4,4.2,78.7,5.6c0,1.8,0,2.7,0,4.6c-26.3-1.4-52.5-3.3-78.7-5.6 C779.3,624.5,779.3,623.5,779.3,621.7z" fill="#FFFFFF"/>
    <path d="M816,642.1c5.2,0.4,7.8,0.6,13,0.9c0,3.3,0,4.9,0,8.2c-7.9-0.5-11.9-0.8-19.9-1.4c0-5.1,0-7.7,0-12.8 c-9.6-0.7-19.2-1.5-28.8-2.4c0,7.3,0,11,0,18.3c1.8,0.2,2.6,0.2,4.4,0.4c0-5.5,0-8.2,0-13.7c8.1,0.7,12.1,1,20.1,1.7 c0,5.1,0,7.7,0,12.8c9.5,0.8,19.1,1.4,28.6,2c0-6.9,0-10.4,0-17.4c-6.9-0.4-10.3-0.7-17.3-1.2C816,639.3,816,640.3,816,642.1z" fill="#FFFFFF"/>
    <path d="M887.9,654.1c-2.9-0.1-4.4-0.1-7.4-0.3c0-10.6,0-15.9,0-26.5c-1.6-0.1-2.5-0.1-4.1-0.2 c0,10.6,0,15.9,0,26.5c-3-0.1-4.5-0.2-7.5-0.3c0-10.6,0-15.9,0-26.5c-1.7-0.1-2.5-0.1-4.2-0.2c0,5.5,0,8.2,0,13.7 c-9.4-0.4-14.1-0.7-23.7-1.3c0,6.9,0,10.4,0,17.4c6.8,0.4,10.2,0.6,17,0.9c0-1.8,0-2.7,0-4.6c-5.1-0.3-7.6-0.4-12.7-0.7 c0-3.3,0-4.9,0-8.2c7.8,0.4,11.7,0.6,19.4,1c0,5.1,0,7.7,0,12.8c11.1,0.5,16.5,0.7,27.2,1c0-10.4,0-20.7,0-31.1 c-1.6,0-2.4-0.1-4.1-0.1C887.9,638.2,887.9,643.5,887.9,654.1z" fill="#FFFFFF"/>
    <path d="M931.3,315c4.6,0,6.8,0,11.3-0.1c0,3.3,0,4.9,0,8.2c-6.9,0.1-10.4,0.1-17.4,0.1c0-5.1,0-7.7,0-12.8 c-10.2,0-15.4-0.1-26-0.4c0,7.3,0,11,0,18.3c1.6,0,2.4,0.1,4,0.1c0-5.5,0-8.2,0-13.7c7.3,0.2,11,0.2,18.1,0.3c0,5.1,0,7.7,0,12.8 c10.2,0.1,15.2,0.1,25-0.2c0-6.9,0-10.4,0-17.4c-6,0.1-9,0.2-15.1,0.2C931.3,312.2,931.3,313.2,931.3,315z" fill="#FFFFFF"/>
    <path d="M993.6,320.2c-2.5,0.3-3.8,0.4-6.4,0.6c0-10.6,0-15.9,0-26.5c-1.4,0.1-2.1,0.2-3.6,0.3 c0,10.6,0,15.9,0,26.5c-2.6,0.2-3.9,0.3-6.5,0.5c0-10.6,0-15.9,0-26.5c-1.4,0.1-2.2,0.2-3.6,0.2c0,5.5,0,8.2,0,13.7 c-8.1,0.5-12.2,0.7-20.5,1c0,6.9,0,10.4,0,17.4c5.9-0.2,8.9-0.3,14.7-0.7c0-1.8,0-2.7,0-4.6c-4.4,0.2-6.6,0.3-11,0.5 c0-3.3,0-4.9,0-8.2c6.8-0.3,10.1-0.4,16.8-0.9c0,5.1,0,7.7,0,12.8c9.5-0.6,14.2-1,23.6-2c0-10.4,0-20.7,0-31.1 c-1.4,0.2-2.1,0.2-3.5,0.4C993.6,304.3,993.6,309.6,993.6,320.2z" fill="#FFFFFF"/>
    <path d="M909.6,323c2.2,0,3.3,0.1,5.5,0.1c0,1.8,0,2.7,0,4.6c-2.2,0-3.3,0-5.5-0.1 C909.6,325.8,909.6,324.9,909.6,323z" fill="#FFFFFF"/>
    <path d="M898.4,297.2c23.2,0.5,46.2,0.4,69.3-0.6c0,1.8,0,2.7,0,4.6c-23.1,1.1-46.2,1.1-69.3,0.6 C898.4,300,898.4,299.1,898.4,297.2z" fill="#FFFFFF"/>
    <path d="M947.1,343.6c0-0.9,0-1.4,0-2.3s0-1.4,0-2.3c-16.2,0.4-32.5,0.2-48.7-0.2c0,0.9,0,1.4,0,2.3s0,1.4,0,2.3 C914.7,343.7,930.9,344,947.1,343.6z" fill="#FFFFFF"/>
    <path d="M997.8,340.3c0-0.9,0-1.4,0-2.3s0-1.4,0-2.3c-15.2,1.5-30.3,2.5-45.5,3.1c0,0.9,0,1.4,0,2.3s0,1.4,0,2.3 C967.6,342.8,982.7,341.8,997.8,340.3z" fill="#FFFFFF"/>
    <path d="M947.1,617.6c0-0.9,0-1.4,0-2.3c0-0.9,0-1.4,0-2.3c-16.2,0.4-32.5,0.2-48.7-0.2c0,0.9,0,1.4,0,2.3 c0,0.9,0,1.4,0,2.3C914.7,617.8,930.9,618,947.1,617.6z" fill="#FFFFFF"/>
    <path d="M997.6,614.5c0-0.9,0-1.4,0-2.3c0-0.9,0-1.4,0-2.3c-15.1,1.4-30.2,2.4-45.3,3c0,0.9,0,1.4,0,2.3 s0,1.4,0,2.3C967.5,616.9,982.5,615.9,997.6,614.5z" fill="#FFFFFF"/>
    <path d="M909.6,654.6c2.2,0,3.3,0.1,5.5,0.1c0,1.8,0,2.7,0,4.6c-2.2,0-3.3,0-5.5-0.1 C909.6,657.4,909.6,656.5,909.6,654.6z" fill="#FFFFFF"/>
    <path d="M898.4,628.8c23.1,0.5,46.1,0.4,69.3-0.6c0,1.8,0,2.7,0,4.6c-23.1,1-46.1,1-69.3,0.6 C898.4,631.6,898.4,630.7,898.4,628.8z" fill="#FFFFFF"/>
    <path d="M931.3,646.6c4.6,0,6.8,0,11.3-0.1c0,3.3,0,4.9,0,8.2c-6.9,0.1-10.4,0.1-17.4,0.1c0-5.1,0-7.7,0-12.8 c-10.2,0-15.4-0.1-26-0.4c0,7.3,0,11,0,18.3c1.6,0,2.4,0.1,4,0.1c0-5.5,0-8.2,0-13.7c7.4,0.2,11,0.2,18.1,0.3c0,5.1,0,7.7,0,12.8 c10.2,0.1,15.2,0.1,25-0.1c0-6.9,0-10.4,0-17.4c-6,0.1-9,0.2-15.1,0.2C931.3,643.8,931.3,644.8,931.3,646.6z" fill="#FFFFFF"/>
    <path d="M993.4,651.9c-2.5,0.2-3.8,0.4-6.4,0.6c0-10.6,0-15.9,0-26.5c-1.4,0.1-2.1,0.2-3.6,0.3 c0,10.6,0,15.9,0,26.5c-2.6,0.2-3.8,0.3-6.4,0.5c0-10.6,0-15.9,0-26.5c-1.4,0.1-2.2,0.1-3.6,0.2c0,5.5,0,8.2,0,13.7 c-8.1,0.5-12.1,0.7-20.4,1c0,6.9,0,10.4,0,17.4c5.9-0.2,8.8-0.3,14.6-0.6c0-1.8,0-2.7,0-4.6c-4.3,0.2-6.5,0.3-10.9,0.5 c0-3.3,0-4.9,0-8.2c6.8-0.2,10.1-0.4,16.7-0.8c0,5.1,0,7.7,0,12.8c9.5-0.6,14.2-1,23.4-1.9c0-10.4,0-20.7,0-31.1 c-1.4,0.1-2.1,0.2-3.5,0.3C993.4,636,993.4,641.3,993.4,651.9z" fill="#FFFFFF"/>
    <path d="M1088.9,301.7c-2.4,0.7-3.6,1-6,1.7c0-10.6,0-15.9,0.1-26.5c-1.3,0.4-2,0.6-3.3,0.9 c0,10.6,0,15.9-0.1,26.5c-2.4,0.7-3.6,1-6,1.6c0-10.6,0-15.9,0.1-26.5c-1.3,0.3-2,0.5-3.3,0.9c0,5.5,0,8.2,0,13.7 c-7.5,1.9-11.2,2.8-18.8,4.4c0,7,0,10.4,0,17.4c5.4-1.2,8.1-1.8,13.4-3.1c0-1.8,0-2.7,0-4.6c-4,1-6,1.4-10.1,2.3 c0-3.3,0-4.9,0-8.2c6.2-1.4,9.3-2.1,15.4-3.7c0,5.1,0,7.7,0,12.8c8.8-2.2,13.2-3.4,21.9-6.1c0-10.4,0-20.7,0.1-31.1 c-1.3,0.4-2,0.6-3.3,1C1089,285.8,1089,291.1,1088.9,301.7z" fill="#FFFFFF"/>
    <path d="M1031.8,306.7c4.1-0.7,6.1-1.1,10.2-1.9c0,3.3,0,4.9,0,8.2c-6.2,1.2-9.4,1.8-15.7,2.8c0-5.1,0-7.7,0-12.8 c-9.1,1.5-13.6,2.1-22.9,3.2c0,7.3,0,11,0,18.3c1.4-0.2,2.1-0.3,3.5-0.4c0-5.5,0-8.2,0-13.7c6.4-0.8,9.6-1.2,16-2.2 c0,5.1,0,7.7,0,12.8c9.1-1.4,13.6-2.2,22.5-4c0-7,0-10.4,0-17.4c-5.4,1.1-8.1,1.6-13.6,2.5C1031.8,304,1031.8,304.9,1031.8,306.7z " fill="#FFFFFF"/>
    <path d="M1012.5,317.9c1.9-0.3,2.9-0.4,4.9-0.7c0,1.8,0,2.7,0,4.6c-1.9,0.3-2.9,0.4-4.9,0.7 C1012.5,320.7,1012.5,319.8,1012.5,317.9z" fill="#FFFFFF"/>
    <path d="M1002.8,293.6c21-2.7,41.6-6.3,62.2-11.1c0,1.8,0,2.7,0,4.6c-20.6,4.7-41.2,8.4-62.2,11.1 C1002.8,296.3,1002.8,295.4,1002.8,293.6z" fill="#FFFFFF"/>
    <path d="M1046.1,332.9c0-0.9,0-1.4,0-2.3s0-1.4,0-2.3c-14.4,2.7-28.8,5-43.3,6.9c0,0.9,0,1.4,0,2.3s0,1.4,0,2.3 C1017.3,337.9,1031.7,335.6,1046.1,332.9z" fill="#FFFFFF"/>
    <path d="M1092.9,321.1c0-0.9,0-1.4,0-2.3s0-1.4,0-2.3c-13.9,4-27.9,7.6-42.1,10.8c0,0.9,0,1.4,0,2.3s0,1.4,0,2.3 C1065,328.7,1078.9,325.2,1092.9,321.1z" fill="#FFFFFF"/>
    <path d="M1092.3,595.7c0-0.9,0-1.4,0-2.3c0-0.9,0-1.4,0-2.3c-13.9,4-27.8,7.5-41.9,10.7c0,0.9,0,1.4,0,2.3 s0,1.4,0,2.3C1064.5,603.2,1078.4,599.7,1092.3,595.7z" fill="#FFFFFF"/>
    <path d="M1045.6,607.3c0-0.9,0-1.4,0-2.3c0-0.9,0-1.4,0-2.3c-14.3,2.7-28.6,4.9-43.1,6.7c0,0.9,0,1.4,0,2.3 c0,0.9,0,1.4,0,2.3C1017,612.2,1031.3,610,1045.6,607.3z" fill="#FFFFFF"/>
    <path d="M1002.5,625.4c20.9-2.6,41.3-6.1,61.9-10.7c0,1.8,0,2.7,0,4.6c-20.5,4.6-41,8.2-61.8,10.7 C1002.5,628.1,1002.5,627.2,1002.5,625.4z" fill="#FFFFFF"/>
    <path d="M1088.2,633.9c-2.4,0.7-3.6,1-6,1.7c0-10.6,0-15.9,0.1-26.5c-1.3,0.4-2,0.6-3.3,0.9 c0,10.6,0,15.9-0.1,26.5c-2.4,0.6-3.6,1-6,1.6c0-10.6,0-15.9,0.1-26.5c-1.3,0.3-2,0.5-3.3,0.8c0,5.5,0,8.2,0,13.7 c-7.4,1.9-11.2,2.7-18.7,4.3c0,7,0,10.4,0,17.4c5.4-1.1,8-1.7,13.4-3c0-1.8,0-2.7,0-4.6c-4,1-6,1.4-10,2.3c0-3.3,0-4.9,0-8.2 c6.2-1.3,9.2-2,15.3-3.6c0,5.1,0,7.7,0,12.8c8.8-2.2,13.1-3.4,21.9-6c0-10.4,0-20.7,0.1-31.1c-1.3,0.4-2,0.6-3.3,1 C1088.2,618,1088.2,623.3,1088.2,633.9z" fill="#FFFFFF"/>
    <path d="M1012.2,649.8c1.9-0.3,2.9-0.4,4.8-0.7c0,1.8,0,2.7,0,4.6c-1.9,0.3-2.9,0.4-4.8,0.7 C1012.2,652.6,1012.2,651.6,1012.2,649.8z" fill="#FFFFFF"/>
    <path d="M1031.4,638.7c4.1-0.7,6.1-1,10.2-1.8c0,3.3,0,4.9,0,8.2c-6.2,1.2-9.3,1.7-15.6,2.7c0-5.1,0-7.7,0-12.8 c-9,1.4-13.6,2-22.8,3.1c0,7.3,0,11,0,18.3c1.4-0.2,2.1-0.2,3.5-0.4c0-5.5,0-8.2,0-13.7c6.4-0.8,9.6-1.2,15.9-2.1 c0,5.1,0,7.7,0,12.8c9-1.4,13.5-2.1,22.4-3.9c0-7,0-10.4,0-17.4c-5.4,1.1-8.1,1.6-13.5,2.5C1031.4,636,1031.4,636.9,1031.4,638.7z " fill="#FFFFFF"/>
    <path d="M1181.8,265.1c-2.4,1.2-3.6,1.8-6,2.9c0-10.6,0-15.9,0-26.5c-1.3,0.6-2,1-3.3,1.6c0,10.6,0,15.9,0,26.5 c-2.4,1.1-3.6,1.7-6,2.8c0-10.6,0-15.9,0-26.5c-1.3,0.6-2,0.9-3.3,1.5c0,5.5,0,8.2,0,13.7c-7.5,3.4-11.2,5-18.6,8.1 c0,7,0,10.4,0,17.4c5.3-2.2,7.9-3.3,13.3-5.7c0-1.8,0-2.7,0-4.6c-4,1.8-6,2.6-10,4.3c0-3.3,0-4.9,0-8.2c6.1-2.6,9.1-3.9,15.3-6.7 c0,5.1,0,7.7,0,12.8c8.8-4,13.2-6.1,22.1-10.5c0-10.4,0-20.7,0-31.1c-1.3,0.7-2,1-3.4,1.7C1181.8,249.2,1181.8,254.5,1181.8,265.1 z" fill="#FFFFFF"/>
    <path d="M1106.8,296.1c1.8-0.6,2.8-0.9,4.6-1.6c0,1.8,0,2.7,0,4.6c-1.8,0.6-2.8,0.9-4.6,1.6 C1106.8,298.8,1106.8,297.9,1106.8,296.1z" fill="#FFFFFF"/>
    <path d="M1097.6,273.5c20.5-6.7,40.4-14.2,60.2-22.8c0,1.8,0,2.7,0,4.6c-19.8,8.5-39.7,16.1-60.2,22.8 C1097.6,276.2,1097.6,275.3,1097.6,273.5z" fill="#FFFFFF"/>
    <path d="M1125.3,281.3c4-1.5,5.9-2.2,9.9-3.8c0,3.3,0,4.9,0,8.2c-6.1,2.4-9.1,3.6-15.2,5.8c0-5.1,0-7.7,0-12.8 c-8.7,3.2-13.1,4.6-21.8,7.4c0,7.3,0,11,0,18.3c1.3-0.4,2-0.6,3.3-1.1c0-5.5,0-8.2,0-13.7c6.1-2,9.1-3,15.2-5.1 c0,5.1,0,7.7,0,12.8c8.7-3.1,13.1-4.7,21.8-8.3c0-7,0-10.4,0-17.4c-5.3,2.1-7.9,3.2-13.2,5.1 C1125.3,278.6,1125.3,279.5,1125.3,281.3z" fill="#FFFFFF"/>
    <path d="M1185.8,283.6c0-0.9,0-1.4,0-2.3s0-1.4,0-2.3c-13.9,6.8-27.8,13.2-42,19.2c0,0.9,0,1.4,0,2.3s0,1.4,0,2.3 C1158,296.8,1171.9,290.4,1185.8,283.6z" fill="#FFFFFF"/>
    <path d="M1139.1,304.8c0-0.9,0-1.4,0-2.3s0-1.4,0-2.3c-13.8,5.4-27.6,10.3-41.6,14.9c0,0.9,0,1.4,0,2.3 s0,1.4,0,2.3C1111.6,315.1,1125.4,310.2,1139.1,304.8z" fill="#FFFFFF"/>
    <path d="M1138.5,579.3c0-0.9,0-1.4,0-2.3c0-0.9,0-1.4,0-2.3c-13.8,5.4-27.6,10.4-41.7,14.9c0,0.9,0,1.4,0,2.3 c0,0.9,0,1.4,0,2.3C1110.9,589.7,1124.8,584.8,1138.5,579.3z" fill="#FFFFFF"/>
    <path d="M1185.6,557.9c0-0.9,0-1.4,0-2.3c0-0.9,0-1.4,0-2.3c-13.9,7-28,13.5-42.4,19.5c0,0.9,0,1.4,0,2.3 c0,0.9,0,1.4,0,2.3C1157.5,571.4,1171.7,564.9,1185.6,557.9z" fill="#FFFFFF"/>
    <path d="M1181.5,597c-2.5,1.2-3.7,1.8-6.1,3c0-10.6,0-15.9,0-26.5c-1.4,0.7-2,1-3.4,1.6c0,10.6,0,15.9,0,26.5 c-2.4,1.2-3.7,1.7-6.1,2.9c0-10.6,0-15.9,0-26.5c-1.3,0.6-2,0.9-3.4,1.6c0,5.5,0,8.2,0,13.7c-7.5,3.4-11.3,5.1-18.7,8.2 c0,7,0,10.4,0,17.4c5.3-2.2,8-3.4,13.4-5.8c0-1.8,0-2.7,0-4.6c-4,1.8-6,2.7-10,4.4c0-3.3,0-4.9,0-8.2c6.1-2.6,9.2-4,15.4-6.8 c0,5.1,0,7.7,0,12.8c8.9-4.1,13.3-6.2,22.4-10.8c0-10.4,0-20.7,0-31.1c-1.4,0.7-2,1-3.4,1.7C1181.5,581,1181.5,586.3,1181.5,597z" fill="#FFFFFF"/>
    <path d="M1124.6,613.6c4-1.5,6-2.3,9.9-3.8c0,3.3,0,4.9,0,8.2c-6.1,2.4-9.1,3.6-15.2,5.8c0-5.1,0-7.7,0-12.8 c-8.7,3.2-13.1,4.6-21.8,7.4c0,7.3,0,11,0,18.3c1.3-0.4,2-0.6,3.3-1c0-5.5,0-8.2,0-13.7c6.1-1.9,9.1-3,15.2-5.1 c0,5.1,0,7.7,0,12.8c8.7-3.1,13.1-4.8,21.9-8.3c0-7,0-10.4,0-17.4c-5.3,2.1-8,3.2-13.3,5.2 C1124.6,610.9,1124.6,611.8,1124.6,613.6z" fill="#FFFFFF"/>
    <path d="M1106,628.4c1.8-0.6,2.8-0.9,4.6-1.6c0,1.8,0,2.7,0,4.6c-1.8,0.6-2.8,0.9-4.6,1.6 C1106,631.1,1106,630.2,1106,628.4z" fill="#FFFFFF"/>
    <path d="M1096.8,605.7c20.5-6.7,40.5-14.3,60.3-22.9c0,1.8,0,2.7,0,4.6c-19.8,8.6-39.8,16.2-60.3,22.9 C1096.8,608.5,1096.8,607.6,1096.8,605.7z" fill="#FFFFFF"/>
    <path d="M586.5,523.7c-12.7,2-22.1,1.9-34.9,0.1c13.5,6.1,26.5,10.9,41.6,9.8c-0.1-2-0.1-3-0.2-5.1 C590.9,527.1,588.8,525.3,586.5,523.7z" fill="#DA0000"/>
    <path d="M628.8,377.4c23.1,43.1,23,106.8-21.2,136.9c-0.2,4.1-0.2,6.1-0.4,10.2c2.1,1.5,4.2,2.8,6.4,4.4 c19.9-8.6,33.9-26.9,40.2-47.4C664.6,445.9,653.2,404.8,628.8,377.4z" fill="#DA0000"/>
    <path d="M637.3,376.9c36.4,37.3,52.9,102.7,18.2,146.8c-0.1,0.1-0.1,0.1-0.2,0.2c38.2-18.6,43.8-68.6,26.4-103.5 C672.4,402,656.5,385.1,637.3,376.9z" fill="#DA0000"/>
    <path d="M600,549.1c2.6-3.9,4-5.8,6.7-9.7c0.1-1.3,0.1-1.9,0.2-3.2c-2.1-0.9-4.2-1.9-6.1-3 C600.5,539.6,600.3,542.8,600,549.1z" fill="#DA0000"/>
    <path d="M601.1,519.6c1.9,1.7,4,3.3,5.9,4.8c0.2-4.1,0.2-6.1,0.4-10.2c0.9-25.4,1.8-50.8,2.7-76.2 c0-20.2,0-40.3,0-60.5c-4.1-3-7.5-7.1-10.1-12.2c1.4,27.2,2.8,54.4,4.2,81.6C603.2,471.2,602.2,495.4,601.1,519.6z" fill="#DA0000"/>
    <path d="M600,360.9c3.9,7.4,11.7,10.4,17.4,6.9c4.9-3,6.7-10,4.5-16.8c-1.2,7.3-7.5,11.2-14,8.6 c-3.5-1.3-6.3-4.4-8-8.4c0.7,3.2,1,4.9,1.7,8.1C600.9,360,600.6,360.3,600,360.9z" fill="#DA0000"/>
    <path d="M592.5,511.4c-35.7-37.1-49.9-99.5-21-144.5c-29,22.9-32.3,62.5-24.8,95.9c6.7,23.7,20.6,45.5,39.9,61 c2.1,1.8,4.2,3.3,6.5,4.9C592.8,521.7,592.7,518.3,592.5,511.4z" fill="#DA0000"/>
    <path d="M601.1,519.6c-0.2,5.3-0.3,8-0.6,13.4c2.1,1.1,4,2.1,6.1,3c13.2,5.7,27.8,7.6,42,4.7 c-13.6-2.5-23-5.8-35.2-12.2c-2.1-1.3-4.3-2.8-6.4-4.4C605.1,522.9,603.2,521.4,601.1,519.6z" fill="#DA0000"/>
    <path d="M563.1,363.6c-18.1,2.2-35.4,13.7-44.2,29.8c-21.5,37.1-5.6,85.8,26.3,111.4c-0.1-0.1-0.1-0.2-0.2-0.3 C519.3,461.6,516.7,394.3,563.1,363.6z" fill="#DA0000"/>
    <path d="M601.1,519.6c1-24.2,2-48.3,3-72.5c-1.4-27.2-2.8-54.4-4.2-81.6c-2.6,3.8-6,6.6-10,8.4 c0,20.2,0,40.3,0,60.5c0.9,25.7,1.8,51.5,2.7,77.2c0.2,6.9,0.3,10.3,0.6,17.2c0.1,2,0.1,3,0.2,5.1c0.1,1.3,0.1,1.9,0.2,3.2 c2.7,4.9,4,7.3,6.6,12.2c0.3-6.3,0.5-9.5,0.8-15.8C601,528,601.1,525.2,601.1,519.6z" fill="#DA0000"/>
    <path d="M582.9,361.4c5.6,5.8,13.4,5.7,17.1-0.4c0.7-0.6,1-0.9,1.7-1.5c-0.7-3.2-1-4.9-1.7-8.1 c-1.7,3.1-4.5,5.1-7.9,5.3c-6.3,0.2-12.5-6-13.9-13.7C576,348.7,578,356.4,582.9,361.4z" fill="#DA0000"/>
  </g>
  <g opacity="0.3">
    <path d="M259.7,30c127.9,0,223.7,15.9,325.2,32.8C688.7,80,796.1,97.9,941,97.9c44.4,0,90-6.1,135.4-18.1 c30.5-8.1,61.9-19,93.6-32.7v757.2c-36.8,17.4-73.5,30.8-109.2,40C1020.3,854.7,979.7,860,940,860c-140.1,0-243.6-16.8-343.7-33 c-98.9-16.1-201.3-32.7-336.6-32.7c-45.7,0-91.1,5.3-135.1,15.8C93,817.6,61.3,827.9,30,841V86.6C67.1,69,103.8,55.4,139.2,46.1 C179.9,35.4,220.4,30,259.7,30 M1200,0c-89.2,45-174.4,67.9-259,67.9C660.3,67.9,524.3,0,259.7,0C175.2,0,89.1,23,0,67.9 c0,242.4,0,577.6,0,820c89-44.9,175.2-63.6,259.7-63.6c268.9,0,398.5,65.7,680.3,65.7c84.6,0,170.8-22,260-66.9 C1200,580.7,1200,242.4,1200,0L1200,0z" fill="#212121"/>
  </g>
</svg>