<svg viewBox="0 0 1200 1200" xmlns="http://www.w3.org/2000/svg" xmlns:xlink="http://www.w3.org/1999/xlink">
  <g>
    <path d="M0,222.9C0,428,0,633.1,0,838.2c65.1-80.6,131.8-161.4,211.7-227.9c66.9-55.7,143.1-98.1,220.7-136.8 C597,391.3,773.6,325.1,927.1,222.7c-91.9-0.8-184-9.3-274.8-23.7c-73.7-11.7-146.5-26.1-220.9-33.7 c-71.8-7.2-145.2-12.4-217.4-6.8C137.9,164.5,68,189.1,0,222.9z" fill="#009E49"/>
    <path d="M1200,978.1c0-205.1,0-410.2,0-615.3c-64.9,83.5-133,165.3-215.2,232.4c-66.2,54-141,95.7-217.2,133.7 c-75.7,37.7-152.4,73.6-228.7,110.1c-90.5,43.3-182.3,84.8-266,140.5c167.6,1.6,329.7,39.9,495.6,57c70.6,7.2,142.7,13,213.6,7.3 C1059.3,1037.6,1131.7,1014.2,1200,978.1z" fill="#CE1126"/>
    <path d="M927.1,222.7C773.6,325.1,597,391.3,432.4,473.4c-77.6,38.7-153.8,81.1-220.7,136.8 C131.8,676.8,65.1,757.6,0,838.2c0,19.8,0,39.6,0,59.4c72.4-89.9,147.2-180,239.7-250.3C313.9,591,398.1,549,481.9,508.9 c80.8-38.7,161.9-76.7,242.6-115.5c101.4-48.8,199.7-101.2,285-175.4C982,221.2,954.7,222.6,927.1,222.7z" fill="#FCD116"/>
    <path d="M272.9,979.5c83.7-55.7,175.5-97.2,266-140.5c76.3-36.5,153-72.4,228.7-110.1c76.3-38,151-79.7,217.2-133.7 c82.2-67.1,150.4-148.9,215.2-232.4c0-19.8,0-39.6,0-59.4c-71.3,91.4-146.5,181.2-239.5,251.5C886,611.1,801.9,653.3,718,693.6 c-80.8,38.8-161.7,77.3-242.6,116.1C374.2,858.1,276.1,909.9,190.9,984C218.1,980.7,245.5,979.6,272.9,979.5z" fill="#FCD116"/>
    <path d="M235.1,756.3c21.9-16.6,44.4-32.1,67.6-46.7c-7.7-27-15.3-53.9-22.8-80.9c22.6,18.2,45.4,36.3,68.2,54.3 c25.2-14,50.8-27.3,76.5-40.3c-7.8,18.2-15.6,36.4-23.3,54.6c131-66.7,266.1-125.2,397.1-192.1c-22.6-2.8-45.1-5.9-67.5-9.4 c26-12.6,51.8-25.4,77.5-38.7c-8.4-27.6-16.9-55.1-25.3-82.7c24.1,19.2,48.3,38.2,72.5,57.2c24.5-14,48.4-28.6,71.8-44.2 c-6.9,18.9-13.8,37.8-21,56.6c117.4-76,208-179.8,293.6-289c-60.6,31.3-122.8,53.4-190.5,62.9c-85.3,74.2-183.6,126.7-285,175.4 c-80.7,38.8-161.8,76.9-242.6,115.5c-83.8,40.1-168,82.1-242.3,138.5C147.2,717.6,72.4,807.7,0,897.6c0,49.4,0,98.9,0,148.3 c86.3-108,176.6-212,293.5-287.7C274.1,757.1,254.6,756.2,235.1,756.3z"/>
    <path d="M906.5,444c-3.3,8.6-4.9,12.9-8.2,21.5c21.4,17.1,42.6,34.4,64,51.6c-27.6,0.1-55.1-1.7-82.7-3.8 c-10.1,25.7-20.4,51.4-30.8,77c-8.2-27.4-16.5-54.8-24.9-82.1c-10.1-1.1-15.2-1.7-25.5-3c-130.9,66.9-266,125.4-397.1,192.1 c-3.6,8.4-5.3,12.6-8.9,21c24.6,19.6,49.1,39.4,73.3,59.4c-30.9-4.8-61.9-9-93-12.6c-10.6,25.5-21,50.9-31.4,76.5 c-8.1-27.2-16.2-54.4-24.2-81.7c-9.6-0.8-14.4-1.1-23.7-1.7C176.6,833.9,86.3,938,0,1045.9c60.8-31,123-52.9,190.9-62 c85.2-74,183.3-125.8,284.5-174.3c80.8-38.7,161.8-77.3,242.6-116.1c83.9-40.3,168-82.5,242.5-138.8c93-70.3,168.2-160,239.5-251.5 c0-49.4,0-98.9,0-148.3C1114.4,264.2,1023.8,368,906.5,444z"/>
    <path d="M855.6,431.7c-24.2-19-48.4-38.1-72.5-57.2c8.5,27.5,16.9,55.1,25.3,82.7c-25.6,13.3-51.5,26.1-77.5,38.7 c22.5,3.4,45,6.5,67.5,9.4c36.8-19.1,72.9-39.1,108-61.2c7.1-18.8,14.1-37.7,21-56.6C904,403.2,880,417.8,855.6,431.7z" fill="#FFFFFF"/>
    <path d="M824,508.2c8.3,27.4,16.6,54.7,24.9,82.1c10.4-25.6,20.7-51.3,30.8-77c27.5,2.1,55.1,3.8,82.7,3.8 c-21.4-17.1-42.6-34.5-64-51.6c3.3-8.6,5-12.9,8.2-21.5c-35.1,22.1-71.2,42.1-108,61.2C808.7,506.5,813.8,507.1,824,508.2z" fill="#FFFFFF"/>
    <path d="M348.2,683c-22.8-18-45.5-36.1-68.2-54.3c7.5,27,15.1,54,22.8,80.9c-23.2,14.6-45.7,30.1-67.6,46.7 c19.5-0.1,38.9,0.8,58.4,2c35-22,71.2-41.9,107.9-60.9c7.7-18.2,15.5-36.4,23.3-54.6C399,655.7,373.4,669,348.2,683z" fill="#FFFFFF"/>
    <path d="M317.3,760c8,27.3,16,54.5,24.2,81.7c10.4-25.5,20.8-51,31.4-76.5c31.1,3.6,62.1,7.8,93,12.6 c-24.3-20-48.8-39.8-73.3-59.4c3.6-8.4,5.3-12.6,8.9-21c-36.7,19-72.8,38.9-107.9,60.9C302.9,758.8,307.6,759.2,317.3,760z" fill="#FFFFFF"/>
  </g>
  <g opacity="0.3">
    <path d="M259.7,185c127.9,0,223.7,15.9,325.2,32.8C688.7,235,796.1,252.9,941,252.9c44.4,0,90-6.1,135.4-18.1 c30.5-8.1,61.9-19,93.6-32.7v757.2c-36.8,17.4-73.5,30.8-109.2,40c-40.5,10.4-81.1,15.7-120.8,15.7c-140.1,0-243.6-16.8-343.7-33 c-98.9-16.1-201.3-32.7-336.6-32.7c-45.7,0-91.1,5.3-135.1,15.8C93,972.6,61.3,982.9,30,996V241.6c37.1-17.6,73.8-31.2,109.2-40.5 C179.9,190.4,220.4,185,259.7,185 M1200,155c-89.2,45-174.4,67.9-259,67.9c-280.7,0-416.7-67.9-681.3-67.9 C175.2,155,89.1,178,0,222.9c0,242.4,0,577.6,0,820c89-44.9,175.2-63.6,259.7-63.6c268.9,0,398.5,65.7,680.3,65.7 c84.6,0,170.8-22,260-66.9C1200,735.7,1200,397.4,1200,155L1200,155z" fill="#212121"/>
  </g>
</svg>