<svg viewBox="0 0 1200 1200" xmlns="http://www.w3.org/2000/svg" xmlns:xlink="http://www.w3.org/1999/xlink">
  <g>
    <path d="M930,222.7c96.5-0.9,184.1-23.7,270-67.4c0,274.4,0,548.7,0,823.1c-85.8,45.4-173.2,65.9-270,66.6 C930,770.9,930,496.8,930,222.7z" fill="#009E60"/>
    <path d="M270,155c0,274.8,0,549.6,0,824.3c222.4,1.3,437.4,64.4,660,65.6c0-274.1,0-548.2,0-822.3 C707.5,221.4,492.2,156.4,270,155z M434.3,577.1c25-42.6,50.1-85.1,75.2-127.6c25.2,49.3,49.8,98.8,73.4,148.9 c-23.6,42.1-47.7,83.8-72,125.5C485.7,674.7,460,625.9,434.3,577.1z M600,910.1c-22.3-50.3-46-100-70.6-149.2 c24-41.4,47.6-83.1,70.6-125c21.9,50.1,45,99.6,69.1,148.7C645.2,825.9,622,867.6,600,910.1z M687.5,752.8 c-24.6-49-48.4-98.3-71.1-148.2c23-42.5,47-84.4,71.5-126.1c24.8,49,50.2,97.6,75.9,146.1C738.3,667.3,712.7,709.9,687.5,752.8z" fill="#FCD116"/>
    <path d="M0,222.9C84.7,179,174.6,156.1,270,155c0,274.8,0,549.6,0,824.3c-97,0.7-183,20.8-270,63.8 C0,769.7,0,496.3,0,222.9z" fill="#0072C6"/>
    <path d="M529.4,760.9c24.6,49.2,48.3,98.9,70.6,149.2c22-42.4,45.2-84.1,69.1-125.5C645,735.5,621.9,686,600,635.9 C577,677.8,553.4,719.4,529.4,760.9z" fill="#009E60"/>
    <path d="M509.5,449.5c-25,42.6-50.2,85.1-75.2,127.6c25.8,48.8,51.4,97.6,76.6,146.7c24.3-41.6,48.4-83.4,72-125.5 C559.3,548.3,534.6,498.8,509.5,449.5z" fill="#009E60"/>
    <path d="M616.4,604.5c22.6,49.9,46.5,99.3,71.1,148.2c25.2-42.9,50.9-85.5,76.4-128.2 c-25.7-48.5-51.2-97.1-75.9-146.1C663.4,520.1,639.4,562.1,616.4,604.5z" fill="#009E60"/>
  </g>
  <g opacity="0.3">
    <path d="M259.7,185c127.9,0,223.7,15.9,325.2,32.8C688.7,235,796.1,252.9,941,252.9c44.4,0,90-6.1,135.4-18.1 c30.5-8.1,61.9-19,93.6-32.7v757.2c-36.8,17.4-73.5,30.8-109.2,40c-40.5,10.4-81.1,15.7-120.8,15.7c-140.1,0-243.6-16.8-343.7-33 c-98.9-16.1-201.3-32.7-336.6-32.7c-45.7,0-91.1,5.3-135.1,15.8C93,972.6,61.3,982.9,30,996V241.6c37.1-17.6,73.8-31.2,109.2-40.5 C179.9,190.4,220.4,185,259.7,185 M1200,155c-89.2,45-174.4,67.9-259,67.9c-280.7,0-416.7-67.9-681.3-67.9 C175.2,155,89.1,178,0,222.9c0,242.4,0,577.6,0,820c89-44.9,175.2-63.6,259.7-63.6c268.9,0,398.5,65.7,680.3,65.7 c84.6,0,170.8-22,260-66.9C1200,735.7,1200,397.4,1200,155L1200,155z" fill="#212121"/>
  </g>
</svg>