<svg viewBox="0 0 1200 1200" xmlns="http://www.w3.org/2000/svg" xmlns:xlink="http://www.w3.org/1999/xlink">
  <g>
    <path d="M0,268.8c0,30.3,0,60.7,0,91c37.3-18.8,75.2-34.6,115.2-46.5C77.9,295.2,39.8,280.3,0,268.8z" fill="#00247D"/>
    <path d="M221.3,157c-56.8,5.3-110.6,18.5-163.6,39.3c57.7,23,111.4,52.8,163.7,86.1 C221.3,240.6,221.3,198.8,221.3,157z" fill="#00247D"/>
    <path d="M600,327.4c0-30.4,0-60.8,0-91.2c-47.8,24.2-96.6,46.2-145,69.1C503.6,311.4,551.9,318.7,600,327.4z" fill="#00247D"/>
    <path d="M529.7,178.4c-68.8-10.4-137.9-18.4-207.4-22c0,41.8,0,83.7,0,125.5C389.4,243.3,459.7,211.2,529.7,178.4z" fill="#00247D"/>
    <path d="M59.1,605.8c52.7-20.3,106.1-32.4,162.4-37c0-41.9,0-83.8-0.1-125.7C161.7,491.8,108.9,547.1,59.1,605.8z" fill="#00247D"/>
    <path d="M322.2,568.4c69.3,3.6,138.1,11.6,206.7,21.7c-67.1-51.6-136.7-99.8-206.6-147.5 C322.2,484.6,322.2,526.5,322.2,568.4z" fill="#00247D"/>
    <path d="M600,601.9L600,601.9L600,601.9z" fill="#00247D"/>
    <path d="M600,555.9c0-30.4,0-60.9,0-91.3c-48.2-8.6-96.6-15.9-145.3-22C504.5,478.7,553.3,515.9,600,555.9z" fill="#00247D"/>
    <path d="M0,496.4c0,30.3,0,60.5,0,90.8c37-47.1,74.9-93.3,115.7-137.3C75.5,461.7,37.4,477.5,0,496.4z" fill="#00247D"/>
    <path d="M429,439.6c58.7,41.7,116.3,84.7,171,131.5c0-6.1,0-9.1,0-15.2c-46.7-40-95.5-77.2-145.3-113.3 C444.4,441.4,439.3,440.8,429,439.6z" fill="#FFFFFF"/>
    <path d="M115.7,449.9C74.9,493.8,37,540,0,587.1c0,15.2,0,30.5,0,45.7c54.3-69,110.8-136.1,175.2-196 C155.1,440.2,135.4,444.6,115.7,449.9z" fill="#FFFFFF"/>
    <path d="M322.3,293.6c2.3,0.1,3.5,0.2,5.8,0.3c73.2-41.5,150-75.6,226-111.6c15.3,2.6,30.7,5.2,46,8 c-23.4-4.3-46.8-8.2-70.3-11.9c-70,32.8-140.4,64.9-207.5,103.5C322.3,286.6,322.3,288.9,322.3,293.6z" fill="#FFFFFF"/>
    <path d="M134.9,308C91.5,285.6,47,267.1,0,253.6c0-10.2,0-20.5,0-30.7c0,15.3,0,30.6,0,45.9 c39.8,11.5,77.9,26.4,115.2,44.5C123.1,311,127,309.9,134.9,308z" fill="#FFFFFF"/>
    <path d="M221.3,294.1c0-4.7,0-7,0-11.7c-52.3-33.2-106-63.1-163.6-86.1c-19.6,8.2-38.8,17-57.7,26.6 c61.8,18.1,119.3,44.7,175,76.9C190.3,297.3,205.8,295.3,221.3,294.1z" fill="#FFFFFF"/>
    <path d="M221.4,431.4c-2,0.2-3,0.2-5,0.4C150.8,486.1,93.6,548.4,39.6,614c7.8-3.4,11.7-5.1,19.5-8.2 c49.8-58.7,102.6-114,162.3-162.7C221.4,438.4,221.4,436.1,221.4,431.4z" fill="#FFFFFF"/>
    <path d="M377.8,434.7c-18.5-1.5-37-2.7-55.6-3.7c0,4.7,0,7,0,11.7c69.9,47.8,139.5,95.9,206.6,147.5 c23.8,3.6,47.5,7.5,71.2,11.7l0,0C529.4,541.6,454.1,487.4,377.8,434.7z" fill="#FFFFFF"/>
    <path d="M378,297.3c25.7,2.3,51.4,4.9,77.1,8c48.4-22.9,97.2-45,145-69.1c0-15.3,0-30.6,0-45.9l0,0 C526.7,227.4,451.1,259.7,378,297.3z" fill="#FFFFFF"/>
    <path d="M328.1,293.8c16.7,0.9,33.3,2,49.9,3.4c73.1-37.6,148.7-69.9,222-107l0,0l0,0c-15.3-2.8-30.6-5.5-46-8 C478.1,218.3,401.2,252.3,328.1,293.8z" fill="#CF142B"/>
    <path d="M377.8,434.7c76.3,52.8,151.6,107,222.2,167.2l0,0c0-10.3,0-20.5,0-30.8c-54.7-46.8-112.3-89.8-171-131.5 C411.9,437.8,394.9,436.1,377.8,434.7z" fill="#CF142B"/>
    <path d="M134.9,308c13.2-3.2,26.6-6,40-8.2C119.3,267.6,61.8,241,0,222.9c0,10.2,0,20.5,0,30.7 C47,267.1,91.5,285.6,134.9,308z" fill="#CF142B"/>
    <path d="M216.4,431.8c-13.8,1.3-27.5,2.8-41.2,5c-64.4,59.9-120.9,127-175.2,196c13.1-6.6,26.2-12.9,39.6-18.9 C93.6,548.4,150.8,486.1,216.4,431.8z" fill="#CF142B"/>
    <path d="M300.9,320.2c100.4,3.7,200.3,16.8,299.1,34.6c0-11,0-16.5,0-27.4c-48.1-8.7-96.4-16-145-22.1 c-25.7-3.1-51.3-5.7-77.1-8c-16.6-1.4-33.3-2.6-49.9-3.4c-2.3-0.1-3.5-0.2-5.8-0.3c0-4.7,0-7,0-11.7c0-41.8,0-83.7,0-125.5 c-8.7-0.4-13-0.6-21.5-0.8C300.9,210.4,300.9,265.3,300.9,320.2z" fill="#FFFFFF"/>
    <path d="M240.5,320.4c0-54.9,0-109.8,0-164.6c-7.8,0.4-11.6,0.6-19.2,1.3c0,41.8,0,83.7,0.1,125.5c0,4.7,0,7,0,11.7 c-15.5,1.2-31,3.1-46.4,5.6c-13.4,2.2-26.8,5-40,8.2c-7.9,1.9-11.9,3-19.7,5.2c-40,12-78,27.7-115.2,46.5c0,10.9,0,16.4,0,27.3 C76.3,348.6,155,325.4,240.5,320.4z" fill="#FFFFFF"/>
    <path d="M300.8,402.6c0,55,0,110,0,165c8.4,0.3,12.7,0.4,21.4,0.8c0-41.9,0-83.9,0-125.8c0-4.7,0-7,0-11.7 c18.6,1,37.1,2.2,55.6,3.7c17.1,1.4,34.1,3.2,51.2,5c10.3,1.1,15.5,1.7,25.8,3c48.6,6,97,13.4,145.3,22c0-11,0-16.5,0-27.5 C501.2,419.5,401.3,406.2,300.8,402.6z" fill="#FFFFFF"/>
    <path d="M175.2,436.8c13.7-2.2,27.4-3.7,41.2-5c2-0.2,3-0.2,5-0.4c0,4.7,0,7,0,11.7c0,41.9,0,83.8,0.1,125.7 c7.5-0.5,11.3-0.8,19.1-1.1c0-55,0-109.9,0-164.9C155,407.6,76.4,430.5,0,469c0,10.9,0,16.4,0,27.3c37.4-18.9,75.5-34.7,115.7-46.5 C135.4,444.6,155.1,440.2,175.2,436.8z" fill="#FFFFFF"/>
    <path d="M240.5,402.8c0,55,0,109.9,0,164.9c20.1-0.9,40.2-0.6,60.3-0.1c0-55,0-110,0-165 c100.4,3.6,200.3,16.9,299.2,34.5c0-27.4,0-54.9,0-82.3c-98.8-17.8-198.7-31-299.1-34.6c0-54.9,0-109.8,0-164.6 c-10.3-0.4-20.6-0.6-30.9-0.6c-9.8,0-19.7,0.2-29.5,0.7c0,54.9,0,109.8,0,164.6C155,325.4,76.3,348.6,0,387.1c0,13.7,0,27.3,0,41 s0,27.3,0,41C76.4,430.5,155,407.6,240.5,402.8z" fill="#CF142B"/>
    <path d="M600,190.3L600,190.3c0,15.3,0,30.6,0,45.9c0,30.4,0,60.8,0,91.2c0,11,0,16.5,0,27.4c0,27.4,0,54.9,0,82.3 c0,11,0,16.5,0,27.5c0,30.4,0,60.9,0,91.3c0,6.2,0,9.2,0,15.4c0,10.2,0,20.4,0,30.6l0,0c-23.7-4.2-47.4-8.1-71.2-11.7 c-68.6-10.2-137.4-18.1-206.7-21.7c-8.7-0.4-12.9-0.6-21.4-0.8c-20.1-0.5-40.2-0.8-60.3,0.1c-7.7,0.3-11.5,0.5-19.1,1.1 c-56.3,4.6-109.7,16.7-162.4,37c-7.8,3.1-11.7,4.7-19.5,8.2c-13.3,6-26.5,12.3-39.6,18.9c0,22.7,0,45.5,0,68.2 C0,815,0,928.9,0,1042.8c95.1-48.1,192.6-66.3,298.7-63.3c101.1,2.9,201.7,17.2,301.3,33.9c198.3,33.4,416.2,63.8,600-36.3 c0-274.1,0-548.1,0-822.2c-86.2,44.2-173,67.6-270,67.7C819.6,222.8,708.5,209.9,600,190.3z M928.1,866.6 C838.7,836.1,788.9,765.5,787,671c0.2-84.4,0.4-168.9,0.6-253.3l0,0l0,0c86,7.4,173.4,12.7,258.8-3.3c0.3,83.4,0.5,166.8,0.8,250.3 C1049.3,750.4,1015.4,837.8,928.1,866.6z" fill="#00247D"/>
    <line fill="none" x1="787.7" x2="787.7" y1="417.7" y2="417.7"/>
    <path d="M787.7,417.7c-0.2,84.4-0.4,168.9-0.6,253.3c1.8,94.4,51.6,165.2,141.1,195.5 c87.2-28.9,121.2-116.1,119.1-201.9c-0.3-83.4-0.5-166.8-0.8-250.3C961.1,430.4,873.7,425.1,787.7,417.7L787.7,417.7z M1042.3,422.7c0.2,80,0.5,159.9,0.7,239.9c1.9,82.7-30.8,166.5-114.8,194.4c-0.1,0.1-0.1,0.1-0.2,0.1c-0.1-0.1-0.1-0.1-0.2-0.1 c-86-29.2-133.5-97.7-135.3-188.5c0.2-80.9,0.4-161.9,0.6-242.8c0.4,0,0.6,0.1,1,0.1l0,0l0,0l0,0c0-0.5,0-0.7,0-1.2 c82.5,6.9,166.2,11.6,248.1-3.1C1042.3,422,1042.3,422.2,1042.3,422.7z" fill="#FFFFFF"/>
    <line fill="none" x1="794.2" x2="794.2" y1="425.8" y2="425.8"/>
    <path d="M895.5,677.9c-1.2,0.9-2.5,1.8-3.9,2.8c0,7.9,0,11.8,0,19.7c1.6,0.1,2.4,0.1,4,0.1 C895.5,691.5,895.5,687,895.5,677.9z" fill="#00A2BD"/>
    <path d="M935.6,688.7c0-23.4,0-46.9,0-70.3h-0.1c0,23.2-0.1,46.3-0.1,69.5C935.5,688.2,935.5,688.4,935.6,688.7z" fill="#00A2BD"/>
    <path d="M935.5,597C935.5,597,935.6,597,935.5,597c0-15.4,0.1-30.9,0.1-46.3C935.5,566.2,935.5,581.6,935.5,597z" fill="#00A2BD"/>
    <path d="M880.5,687.6c-6.2,3.7-12,7.6-12.1,10.6c0,0.5,0.1,1,0.4,1.5c0.4,0,0.7,0,1.1,0c1.3-1.6,3.3-2.9,5.2-2.5 c1,0.2,2.2,0.9,3.3,2.9c0.8,0,1.2,0,2.1,0.1C880.5,695.1,880.5,692.6,880.5,687.6L880.5,687.6z" fill="#00A2BD"/>
    <path d="M918,626.2c-1.5,1.2-2,2.4-2.6,3.5c-0.3,0.8-0.7,1.6-1.4,2.3c-1.4,1.4-2.3,3.8-3.1,5.8 c-0.1,0.3-0.2,0.7-0.3,1s-0.2,0.5-0.3,1c2.7,1.7,5.3,4.2,7.8,7.2C918,638.7,918,634.5,918,626.2z" fill="#00A2BD"/>
    <path d="M900.2,700.7c0-11.2-0.1-16.8-0.1-28c-1.1,1.8-2.2,3.2-3.4,4.2c-0.1,0-0.1,0.1-0.2,0.1 c0,9.4,0.1,14.1,0.1,23.4C898.1,700.5,898.8,700.6,900.2,700.7z" fill="#00A2BD"/>
    <path d="M857.8,699.1c1-10.4,14.1-18.4,14.3-18.5c0.1,0,0.2-0.1,0.4-0.3c10.9-4.1,20.4-13.7,21.6-25.8 c1.7-9,3.4-13.6,5-15.9c0-1,0-1.6,0-1.9c-0.2-1.8,0.1-3.3,1.1-4.5c0.8-1.2,1.8-3.2,2.9-6.2c0.9-2.6,1.8-3.2,5.4-5.8 c0.4-0.3,0.9-0.7,1.5-1.1c2-1.3,4.8-3.5,7.9-6.2c0-17.7,0-35.4,0-53.2c-0.9,0.3-2,0.4-3.2,0.4c-1.5,0-3.2-0.2-5-0.5 c-2.6-0.3-5.3-0.6-7.7-0.4c-1.4,0.2-2.5-0.3-3.3-1.3c-0.6-0.8-0.8-1.9-0.7-3.3c0.4-4.5,0.5-8.3,0.1-11.6c-0.7-7,2.1-16.8,5-25.4 c2.9-8.7,4.4-13.6,4.8-17.6c-13.5-0.2-27.1-0.6-40.6-1.2c0-9.6,0-14.4,0-24c16.9,0.8,33.8,1.5,50.8,1.8 c-0.1-10.1-0.2-20.2-0.3-30.3c7.2,0.2,10.7,0.3,17.6,0.3c0.1,10,0.1,20,0.2,30c15.3-0.2,30.4-0.8,45.7-1.7c0.1,9.4,0.1,14,0.2,23.4 c-4.9,0.4-7.4,0.5-12.4,0.8c0.6,0.5,1,1.2,1.3,2.1c0.2,0.8,0.3,2-0.5,3.6c2.1,1.8,3.5,6.2,2.5,9.5c-0.6,1.5-1.7,2.7-3,2.9 c-0.1,0-0.2,0-0.3,0c-1,0.1-2.1-0.6-2.6-1.6c-1.6,1-4,1.1-5.4-0.9c-0.7,1-1.8,1.3-2.7,1.2c-0.2,5.8,2,8.4,3.8,10.4 c0.2,0.3,0.5,0.5,0.7,0.8c1.5,0.2,3.2,1.5,5.4,4c2.1,2.4,6.3,7.3,5,23.1c-0.7,9.1-0.8,15-1,20.2c-0.1,3.2-0.2,6.2-0.4,9.3 c-0.7,9.5-2,21.6-5.1,25.3c-0.6,0.7-1.2,1-2,1.1c3,7.5,4.5,14.4,5.8,20.7c1,4.9,2.1,9.5,3.6,13.5c5.3,15.9,4.9,33.1,4.4,49.6 c-0.1,1-0.1,2.1-0.2,3.2c0,0.5-0.1,1-0.1,1.5c21-1.7,41.7-4.3,62.4-7.9c0.6-9.4,0.8-19,0.6-28.5c-0.2-79.6-0.5-159.1-0.7-238.7 c-81.1,14.2-163.8,9.6-245.5,2.9c-0.2,80.5-0.4,160.9-0.6,241.4c0,9.2,0.4,18,1.3,26.3C816.6,696.1,837.2,697.8,857.8,699.1z" fill="#00A2BD"/>
    <path d="M890.6,700.5c0-7.6,0-11.4,0-19c-1.4,0.9-2.9,1.8-4.4,2.7c0,6.5,0,9.7,0,16.2 C887.9,700.5,888.8,700.5,890.6,700.5z" fill="#00A2BD"/>
    <path d="M905.8,700.8c0-13.7-0.1-27.4-0.1-41.1c-1.4,4.1-2.9,8-4.6,11.3c0,9.9,0.1,19.8,0.1,29.7 C903,700.7,903.9,700.8,905.8,700.8z" fill="#00A2BD"/>
    <path d="M881.6,700.2c1.5,0.1,2.2,0.1,3.7,0.1c0-6.2,0-9.4,0-15.6c-0.2,0.1-0.5,0.3-0.8,0.5c-1,0.7-2,1.2-3,1.8 c0.1,0,0.1,0,0.2,0c0,5.3,0,7.9,0,13.2C881.6,700.2,881.6,700.2,881.6,700.2z" fill="#00A2BD"/>
    <path d="M913.9,505.4c0.1,9.7,0,20.1-2.1,29.7c-0.4,1.8-0.7,3.1-0.7,5.5c0,0.3,0,0.5,0,0.8c0,1,0,1.8,0.2,2.1 c0.1,0.1,0.4,0.1,0.7,0h0.1c1.5-0.5,3.5-1.3,5.7-1.3c0-13.9,0-27.8,0-41.7c-0.7,0-1.1,0-1.8,0c-0.3,0.3-0.6,0.4-0.8,0.5 C914,501.7,913.8,502.7,913.9,505.4z" fill="#00A2BD"/>
    <path d="M796.4,699.9c11.2,75.4,58,128.7,129.3,153.7C854,826.8,809.1,776.4,796.4,699.9z" fill="#00A2BD"/>
    <path d="M936.6,533.9c2.5-2.9,3.9-4.7,5.6-4.3c1.3,0.3,2.7,0.2,4.1-0.1c0.5-3.3,0.1-6.6-0.4-8.9 c-1.7,0.2-4.5-0.6-5.2-1.1c-0.9-0.7-1.4-1.4-1.6-2.2c-0.2-1.1,0.2-2.2,0.6-3.2c0-0.1,0.1-0.1,0.1-0.1c0.3-0.8,0.3-1.2,0.1-1.8 c-0.1-0.5-0.2-1.2,0-2.3c-0.4-0.5-0.5-1.2-0.1-1.9c0.3-0.6,0.6-1.2,0.9-2.1c-0.1,0-0.1,0-0.2-0.1c-0.4-0.1-0.8-0.3-1-0.7 c-0.3-0.5-0.4-1-0.4-1.5s0.3-1.1,0.8-1.7c0.3-0.3,0.7-0.7,1-1.1c-2,0-3.1,0-5.1,0.1c0,11.4,0,22.8,0,34.3l0,0 C936,534.5,936.3,534.3,936.6,533.9z" fill="#00A2BD"/>
    <path d="M918.1,701c0-11.3,0-22.6,0-33.8c-1.9-4.5-4-8.4-6.3-11.5c0,15.1,0.1,30.1,0.1,45.2 C914.4,700.9,915.6,701,918.1,701z" fill="#00A2BD"/>
    <path d="M931.1,853.4c67.6-23,102.9-87,109.2-155.1C1031.7,767.3,999.4,828.7,931.1,853.4z" fill="#00A2BD"/>
    <path d="M910.8,654.4c-0.9-1.1-1.9-2.1-2.7-2.8c-0.4,1.6-0.8,3.3-1.4,4.9c0,14.8,0.1,29.6,0.1,44.4 c1.6,0,2.4,0,4.1,0.1C910.8,685.5,910.8,670,910.8,654.4z" fill="#00A2BD"/>
    <path d="M794.2,425.8L794.2,425.8c-0.4,0-0.6-0.1-1-0.1c-0.2,80.9-0.4,161.9-0.6,242.8c1.8,90.7,49.3,159.2,135.3,188.5 c0.1,0.1,0.1,0.1,0.2,0.1c0.1-0.1,0.1-0.1,0.2-0.1c84.1-27.8,116.7-111.8,114.8-194.4c-0.2-80-0.5-159.9-0.7-239.9 c0-0.5,0-0.7,0-1.2c-82,14.6-165.6,9.9-248.1,3.1C794.2,425.1,794.2,425.3,794.2,425.8z M795.2,427.1 c81.7,6.7,164.4,11.4,245.5-2.9c0.2,79.6,0.5,159.1,0.7,238.7c0.3,9.5,0.1,19-0.6,28.5h0.1l0,0l0,0l0,0c-0.2,2.4-0.4,4.6-0.7,6.8 c-6.2,68.2-41.6,132-109.2,155.1c-1,0.4-2,0.7-3,1.1c-0.8-0.3-1.6-0.6-2.4-1c-71.3-24.9-118-78.4-129.3-153.7 c-0.2-1.7-0.5-3.3-0.7-5h0.1c-0.8-8.3-1.2-17.1-1.3-26.3C794.7,588,795,507.6,795.2,427.1z"/>
    <path d="M910.9,700.9c-1.6,0-2.4,0-4.1-0.1c0.1,16.5,0.1,33.1,0.1,49.6c1.6,2.3,2.4,3.4,4.1,5.7 C910.9,737.7,910.9,719.3,910.9,700.9z" fill="#A53D08"/>
    <path d="M985,793.5c0,0.1,0.1,0.2,0.1,0.3s-0.1,0.1-0.1,0.1c-1.8,2.1-5.9,0.9-9.8-4.2c0.3,1.1,0.6,1.7,0.9,2.3 s0.6,1.2,0.8,2.3c0.5,2.7-0.7,5.5-1.3,7.1c-0.6,1.5-1.1,3.6-1,4.7c0,1-0.1,2.3-0.4,3.2c-0.3,0.6-0.5,1.5-0.5,1.9 c0,1.5-0.4,2.6-0.9,3.2c-0.4,0.3-0.8,0.5-1.2,0.2c-0.3,0.6-0.8,1.3-1.3,1.6c-0.2,0-0.4,0-0.6,0c-0.5,0.8-1,1.4-1.5,1.6 c-0.3,0-0.6,0-0.8-0.2c-0.3,0.7-0.8,1.1-1.3,1.3c-0.4,0.2-0.8,0-1.1-0.2c-0.2,0.6-0.7,1.1-1.2,1.4c-0.3,0.2-0.7,0.3-1,0.3 s-0.5-0.1-0.7-0.2c-1.3-1.3-1.5-2.5-1-4.2c0.1-0.3,0.2-0.6,0.4-0.8c0.5-1.3,1.2-2.9,1.3-4.6c0.3-4,1.9-11,3.2-15.2 c0.1-0.1,0.2-0.4,0.2-0.6c0.2-0.6,0.5-1,0.3-2.1c-0.1-0.7-0.4-1.6-0.6-2.6c-0.3-0.9-0.6-2-0.8-3.1c-0.9,1-1.6,1.9-2.5,2.9 c-2.4,2.7-4.7,5.5-7.2,7.8c-0.2,0.1-0.3,0.4-0.5,0.6l0,0c-1.8,1.7-3.8,3.3-5.7,4.4c-0.1,0.1-0.2,0.1-0.4,0.3l0,0 c-2.1,1.1-4.5,1.9-6.9,1.9c-2.3,0-4.6-0.5-7.1-1.8c-1.6,2.3-3.7,3.7-5.9,3.7h-0.1c-1.6,0-3-0.7-4-2.1c-0.1-0.1-0.1-0.2-0.2-0.3 c0.1-0.1,0.2-0.1,0.3-0.1c1.4-0.7,3.1-2.9,4.7-5.1l0,0c-0.3-0.3-0.7-0.7-1-1c-0.2,0.3-0.4,0.5-0.6,0.7c-0.1,0-0.2,0.2-0.3,0.1 c-9.4-3.7-19.7-27.8-28.2-41c-9.1-14.2-18.1-28.4-27.4-42.5c0-0.1-0.1-0.1-0.1-0.1c-1.7,0.5-3.2,0.4-3.3,0.4 c-0.2,0-9-1.9-10.6-13.3c-0.1-1-0.1-1.9,0-3c-20.6-1.1-41.3-2.5-61.9-4.2h-0.1c0.2,1.7,0.5,3.3,0.7,5 C809.5,776.8,854.3,827.2,926,854c0.8,0.3,1.6,0.6,2.4,1c1-0.4,2-0.7,3-1.1c68.3-24.8,100.6-86.2,109.1-155.2 c0.3-2.2,0.4-4.6,0.7-6.8h-0.1c-20.9,3.5-41.8,5.9-62.9,7.3C976.3,729.9,974,764.2,985,793.5z" fill="#A53D08"/>
    <path d="M869.5,700.4c0.1-0.3,0.3-0.4,0.4-0.7c-0.4,0-0.7,0-1.1,0C869.1,699.8,869.3,700.1,869.5,700.4z" fill="#A53D08"/>
    <path d="M895.6,700.7c-1.6,0-2.4-0.1-3.9-0.1c0,9.6,0,19.2,0,28.8c1.7,2.3,2.5,3.4,4.1,5.7 C895.7,723.6,895.6,712.2,895.6,700.7z" fill="#A53D08"/>
    <path d="M896.7,736.5c1.4,2,2.2,2.9,3.6,4.9c0-13.6-0.1-27.1-0.1-40.7c-1.4,0-2.1-0.1-3.6-0.1 C896.7,712.5,896.7,724.5,896.7,736.5z" fill="#A53D08"/>
    <path d="M885.2,700.4c-1.5-0.1-2.2-0.1-3.7-0.1c0,6.2,0,9.3,0,15.5c1.5,2,2.2,3,3.7,4.9 C885.2,712.5,885.2,708.5,885.2,700.4z" fill="#A53D08"/>
    <path d="M890.6,700.5c-1.7-0.1-2.6-0.1-4.4-0.1c0,8.7,0,13,0,21.7c1.8,2.4,2.6,3.5,4.4,5.9 C890.6,717,890.6,711.5,890.6,700.5z" fill="#A53D08"/>
    <path d="M878.4,700.1c0.3,0.6,0.6,1.4,1,2.4c0.8,3.2,0.5,5.8-0.7,7.9c-0.2,0.3-0.3,0.5-0.5,0.8 c0.9,1.2,1.4,1.9,2.3,3.1c0-5.6,0-8.5,0-14.1C879.7,700.1,879.2,700.1,878.4,700.1z" fill="#A53D08"/>
    <path d="M911.9,700.9c0,18.9,0.1,37.7,0.1,56.6c2.4,3.4,3.7,5.1,6.1,8.4c0-21.7,0-43.3,0-65 C915.6,701,914.4,700.9,911.9,700.9z" fill="#A53D08"/>
    <path d="M901.4,742.8c1.8,2.5,2.7,3.8,4.5,6.3c0-16.1-0.1-32.2-0.1-48.2c-1.8,0-2.8-0.1-4.6-0.1 C901.2,714.7,901.3,728.7,901.4,742.8z" fill="#A53D08"/>
    <path d="M1040.9,691.4L1040.9,691.4L1040.9,691.4z" fill="#A53D08"/>
    <path d="M935.5,597c0-15.4,0.1-30.9,0.1-46.3c0-6.2,0-9.4,0-15.6l0,0c0-11.4,0-22.8,0-34.3c2.1,0,3.1,0,5.1-0.1 c0.6-0.7,1.1-1.4,1.6-2.2c0.6-1,0.6-2.5,0.7-3.7c0-0.8,0-1.6,0.2-2.2c0.3-0.8,0.8-1.8,1.5-2.9c0.3-2.6,1-4.5,2.1-5.5 c1.2-1.1,2.7-1.4,4.6-0.8c1,0.2,3.2,0.5,5.1-0.3c2.5-1,4.5-0.7,5.7,0.7c1,1.2,1.4,3,1.2,5.3c1.1,1.3,2.3,4,2,6.3 c-0.2,2.3,0.1,3.1,1.5,3.2c0.6,0.1,1.3,0.5,2,1.1c5-0.3,7.5-0.4,12.4-0.8c-0.1-9.4-0.1-14-0.2-23.4c-15.2,1-30.4,1.5-45.7,1.7 c-0.1-10-0.1-20-0.2-30c-6.9-0.1-10.5-0.1-17.6-0.3c0.1,10.1,0.2,20.2,0.3,30.3c-16.9-0.3-33.9-1-50.8-1.8c0,9.6,0,14.4,0,24 c13.5,0.6,27.1,1,40.6,1.2c0.1-0.8,0.1-1.5,0.1-2.3c0-3.4,0.3-6.7,2.4-8.5c1.1-0.9,1.6-1.9,2-2.8c0.1-0.3,0.2-0.5,0.3-0.7 c0.9-1.8,1.8-2.6,2.4-2.4c0.2,0,0.5,0.3,0.5,1c0.1,0.7,0,1.2-0.2,1.8c0.8-0.8,1.7-1.6,2.5-2.2c0.4-0.3,0.7-0.5,0.8-0.7 c1-0.9,2.3-2,3.1-1.5c0.2,0.1,0.4,0.4,0.4,0.7c0.6-0.4,1.1-0.4,1.5-0.3c0.2,0.1,0.4,0.3,0.5,0.7c0.3,0.8,0.2,1.2-0.1,1.6 c0.2,0.1,0.4,0.4,0.5,0.7c0.2,0.5,0.2,1.4-0.4,2.3c0.2,0.1,0.4,0.3,0.5,0.6c0.3,0.7,0.3,1.8-0.6,2.9c-0.5,0.5-1,1.1-1.5,1.6 c-0.8,0.8-1.6,1.6-1.9,2.3c-0.5,1.1-3.1,3.8-4.7,5.2c0.7,0,1.1,0,1.8,0c0,13.9,0,27.8,0,41.7c0,0,0,0,0.1,0s0.1,0,0.2,0 c0,7.1,0,10.6,0,17.7c-0.1,0-0.1,0-0.2,0h-0.1c0,17.7,0,35.4,0,53.2c3.3-2.7,6.8-5.8,10.2-9.4C931.3,600.6,933.3,598.6,935.5,597z"/>
    <path d="M930.7,672c1.7,5.1,3.3,10.4,4.7,16c0-23.2,0.1-46.3,0.1-69.5c-0.5,0.1-1,0.3-1.5,0.4c-4.1,1.3-9.8,3-15,6.5 c-0.4,0.3-0.7,0.5-1,0.7c0,8.3,0,12.4,0,20.7C923.6,653.9,928,663.5,930.7,672z"/>
    <path d="M918.1,765.9c2.1,3,3.2,4.5,5.3,7.4c10.1-17.4,7-42.4,5.3-61.2c-2.2-15.4-4.7-30.5-10.6-45c0,11.3,0,22.6,0,33.8 C918.1,722.6,918.1,744.3,918.1,765.9z"/>
    <path d="M927.2,781.9c3.6-15.5,6-30.9,7.7-46.7c-0.9-20.3-3.2-40.4-9.4-59.9c-0.2-0.7,0-1.4,0.4-1.6 c0.5-0.3,1,0,1.2,0.6c4.5,14.5,6.8,29.4,8.6,44.4c0.1-3.6,0-6.7-0.2-9.5c0-6.4,0-9.5,0-15.9c-4.3-17.2-9.5-41.9-25.7-52.5 c-0.2,0.7-0.3,1.4-0.4,2c-0.1,0.5-0.2,1-0.3,1.5c-0.2,0.7-1.2,1.5-1.9,1.3c-0.2,0-0.3-0.1-0.4-0.3c-0.4,1.2-1.4,2-2.1,2 c-0.3,0-0.6-0.3-0.7-0.7c-0.2,0.4-0.5,0.7-0.8,0.8c-0.5,0.3-1,0.3-1.4-0.2c-0.1,0-0.1-0.1-0.2-0.3c-0.4,1.5-1.2,1.6-1.6,1.6 c-0.1,0-0.1,0-0.2,0c-0.8-0.2-1.2-1-1.1-2.9c0-0.5,0.1-1.6,0.1-2.7c0-0.7,0.1-1.4,0.1-2.1c-1.2,2.3-2.5,6.5-3.9,13.7 c-2.2,12.6-10.3,22.1-22.4,26.7c-0.2,0.1-0.3,0.1-0.3,0.1c-3.2,1.8-14.8,10.7-13.6,20c1.4,10.4,9.5,12,9.6,12.1c0,0,2.7,0,5.5-1.3 c1.2-0.8,1.8-1.2,2.9-2.1c0.3-0.4,0.7-0.8,1-1.3c1-1.7,1.2-4.1,0.5-6.7c-0.8-2.5-1.9-3.9-3.4-4.2c-1.8-0.4-3.9,1.3-5,3.1 c-0.1,0.2-0.2,0.3-0.3,0.5c-0.2-0.1-0.3-0.2-0.4-0.3c-1.3-1.2-2-2.4-2-3.8c0.2-4.5,8.2-9.1,16.6-14.1c2.3-1.3,4.5-2.7,6.6-4 c0-0.3,0-0.4,0-0.7c0.3,0,0.5,0,0.9,0c1.8-1.2,3.4-2.4,4.7-3.4c3.6-2.9,7.1-11.3,9.5-19.6l0,0l0,0c0.6-1.9,1.1-4,1.6-5.7 c0.1-0.3,0.1-0.5,0.2-0.8c0.2,0.2,0.3,0.3,0.5,0.4c16.1,13.8,19,42.7,21.7,61.9c2.1,19.1,4.6,45.6-5.9,62.9 c-0.1,0.2-0.2,0.3-0.3,0.5c-4.5-6.3-6.8-9.5-11.4-15.9c0,2.8,0,4.2,0,7c-0.4,0-0.6,0-1,0c0-3.3,0-5,0-8.4c-1.6-2.3-2.4-3.4-4.1-5.7 c0,3.6,0,5.6,0,5.8c-0.4,0-0.6,0-1,0c0-0.5,0-3.2,0-7.1c-1.8-2.5-2.7-3.8-4.5-6.3c0,2.9,0,4.3,0,7.1c-0.2,0-0.3,0-0.5,0l0,0l0,0 c-0.2,0-0.3,0-0.5,0c0-3.4,0-5.1,0-8.5c-1.4-2-2.2-2.9-3.6-4.9c0,2,0,3,0,5.1c-0.4,0-0.6,0-1.1,0c0-2.6,0-3.9,0-6.6 c-1.7-2.3-2.5-3.4-4.1-5.7c0,1.9,0,2.8,0,4.7c-0.2,0-0.3,0-0.5,0l0,0l0,0c-0.2,0-0.3,0-0.5,0c0-2.4,0-3.6,0-6 c-1.8-2.4-2.6-3.5-4.4-5.9c0,1.8,0,2.7,0,4.5c-0.4,0-0.6,0-1.1,0c0-2.4,0-3.5,0-5.9c-1.5-2-2.2-3-3.7-4.9c0,1.5,0,2.3,0,3.8l0,0 l0,0l0,0c-0.2,0-0.3,0-0.5,0c0-2.1,0-3.1,0-5.2c-1.3-1.7-1.9-2.5-3.1-4.2c-0.9,0.9-2,1.6-3,2.1c-0.5,0.4-0.8,0.5-1.3,0.9 c17.2,27,32.8,58.5,54.3,82.3c0.1,0,0.1-0.1,0.2-0.3C925.5,794.1,925,790.1,927.2,781.9z M870,704.5c0.2-0.7,1.2-3.8,3.1-4.2 c0.5-0.1,1.3-0.1,2.2,0.8c0.4,0.4,0.4,1.3,0.1,1.8c-0.3,0.5-1,0.5-1.4,0.1c-0.2-0.3-0.4-0.3-0.4-0.3c-0.5,0.1-1.3,1.7-1.6,2.8 c-0.1,0.5-0.5,0.8-0.9,0.8c-0.1,0-0.2,0-0.3-0.2C870,705.9,869.8,705.2,870,704.5z M867.7,690.2c0,0-5.1,5.4-5.2,10.3 c0,1.5,0.3,2.8,1.2,3.9c0.3,0.6,0.3,1.2,0,1.8c-0.2,0.3-0.4,0.4-0.7,0.4c-0.2,0-0.6-0.2-0.8-0.4c-1.2-1.7-1.9-3.5-1.8-5.7 c0.2-6,5.6-11.8,5.8-12c0.4-0.4,1-0.4,1.4,0.2C868.2,689,868.2,689.8,867.7,690.2z M924.4,790.5c-0.1,0.1-0.2,0.1-0.3,0.1 s-0.3-0.1-0.4-0.3c-15.6-24.1-31.4-48-47.4-71.9c-0.2-0.3-0.2-0.7,0-1s0.5-0.3,0.8,0c16,23.8,31.8,47.7,47.4,71.8 C924.6,789.8,924.6,790.2,924.4,790.5z" fill="#FF9A08"/>
    <path d="M906.7,656.3c0,0,0,0.1,0,0.3c0.5-1.6,0.9-3.3,1.4-4.9c0.9,0.8,1.9,1.7,2.7,2.8c0-0.1,0-0.2,0-0.3c0.4,0,0.6,0,1,0 c0,0.6,0,0.9,0,1.5c2.2,2.9,4.3,6.8,6.3,11.5c6,14.5,8.5,29.6,10.6,45c1.7,18.8,4.7,43.9-5.3,61.2c-2.1-3-3.2-4.5-5.3-7.4 c-2.4-3.4-3.6-5.1-6.1-8.4c0,0.8,0,1.2,0,1.9c4.6,6.4,6.9,9.6,11.4,15.9c0.1-0.2,0.2-0.3,0.3-0.5c10.5-17.3,8.1-43.8,5.9-62.9 c-2.7-19.5-5.6-48-21.6-62c-0.2-0.2-0.3-0.3-0.5-0.4c-0.1,0.3-0.1,0.5-0.2,0.8c-0.4,1.9-1,3.8-1.6,5.7 C906.1,656.2,906.3,656.2,906.7,656.3L906.7,656.3z"/>
    <path d="M905.9,749c-1.8-2.5-2.7-3.8-4.5-6.3c0,0.8,0,1.2,0,1.9c1.8,2.5,2.7,3.8,4.5,6.3C905.9,750.3,905.9,749.7,905.9,749z"/>
    <path d="M911,756.1c-1.6-2.3-2.4-3.4-4.1-5.7c0,0.7,0,1.4,0,1.9c1.6,2.3,2.4,3.4,4.1,5.7C911,757.3,911,756.9,911,756.1z"/>
    <path d="M857.8,702.2c1.5,11.3,10.5,13.1,10.6,13.3c0.1,0,1.5-0.1,3.3-0.4c0,0.1,0.1,0.1,0.1,0.1c9,14.2,18.2,28.4,27.4,42.5 c8.5,13.1,18.9,37.3,28.2,41c0.1,0,0.2,0,0.3-0.1s0.3-0.3,0.6-0.7c-0.2-0.3-0.5-0.5-0.7-0.8c-0.1,0.1-0.2,0.1-0.2,0.3 c-21.3-24.1-37-55.3-54.3-82.3c0.5-0.4,0.8-0.5,1.3-0.9c1.1-0.5,2.2-1.1,3-2.1c1.3,1.7,1.9,2.5,3.1,4.2c0-0.8,0-1.2,0-1.9 c-0.9-1.2-1.4-1.9-2.3-3.1c0.2-0.3,0.4-0.5,0.5-0.8c1.2-2.1,1.4-4.7,0.7-7.9c-0.3-1-0.6-1.7-1-2.4c-1.1-2-2.3-2.6-3.3-2.9 c-2-0.4-3.9,0.9-5.2,2.5c-0.2,0.3-0.3,0.4-0.4,0.7c-0.2-0.3-0.4-0.4-0.5-0.7c-0.3-0.6-0.5-1-0.4-1.5c0.1-3,5.9-6.9,12.1-10.6 c0-0.2,0-0.3,0-0.5c0.2,0,0.3,0,0.5,0l0,0l0,0c0.1,0,0.2,0,0.3,0c1.1-0.6,2-1.3,3-1.8c0.2-0.1,0.5-0.3,0.8-0.5c0-0.4,0-0.7,0-1.1 c0.2,0,0.3,0,0.5,0l0,0l0,0c0.2,0,0.3,0,0.5,0c0,0.2,0,0.2,0,0.4c1.5-0.9,3-1.8,4.4-2.7c0-0.6,0-0.9,0-1.5c-2.1,1.3-4.4,2.7-6.6,4 c-8.4,4.9-16.4,9.6-16.6,14.1c0,1.4,0.7,2.6,2,3.8c0.2,0.1,0.3,0.2,0.4,0.3c0.1-0.2,0.2-0.3,0.3-0.5c1.1-1.9,3.2-3.4,5-3.1 c1.4,0.3,2.6,1.8,3.4,4.2c0.6,2.6,0.4,5-0.5,6.7c-0.3,0.5-0.7,0.9-1,1.3c-1.2,0.8-1.8,1.2-2.9,2.1c-2.7,1.1-5.5,1.3-5.5,1.3 c-0.1,0-8.1-1.8-9.6-12.1c-1.3-9.4,10.5-18.3,13.6-20c0.1,0,0.2-0.1,0.3-0.1c12-4.6,20.2-14.1,22.4-26.7c1.4-7.2,2.8-11.3,3.9-13.7 c0-0.8,0.1-1.6,0.1-2.5c-1.6,2.3-3.3,6.8-5,15.9c-1.2,12.1-10.7,21.7-21.6,25.8c-0.2,0.1-0.3,0.1-0.4,0.3 c-0.1,0.1-13.3,8.1-14.3,18.5C857.7,700.1,857.7,701.1,857.8,702.2z"/>
    <path d="M900.3,741.4c-1.4-2-2.1-2.9-3.6-4.9c0,0.8,0,1.2,0,1.9c1.4,2,2.2,2.9,3.6,4.9C900.3,742.5,900.3,742.1,900.3,741.4z"/>
    <path d="M885.2,720.6c-1.5-2-2.2-3-3.7-4.9c0,0.8,0,1.2,0,1.9c1.5,2,2.2,3,3.7,4.9C885.2,721.8,885.2,721.4,885.2,720.6z"/>
    <path d="M895.8,735.1c-1.7-2.3-2.5-3.4-4.1-5.7c0,0.8,0,1.2,0,1.9c1.7,2.3,2.5,3.4,4.1,5.7C895.8,736.2,895.8,735.9,895.8,735.1z"/>
    <path d="M890.6,727.9c-1.7-2.4-2.6-3.5-4.4-5.9c0,0.8,0,1.2,0,1.9c1.8,2.4,2.6,3.5,4.4,5.9C890.6,729.1,890.6,728.7,890.6,727.9z"/>
    <path d="M891.6,680.7c1.4-0.9,2.8-1.8,3.9-2.8c0-0.6,0-0.9,0-1.5c0.2,0,0.3,0,0.5,0l0,0l0,0c0.2,0,0.3,0,0.5,0c0,0.3,0,0.4,0,0.7 c0.1,0,0.1-0.1,0.2-0.1c1.2-0.9,2.3-2.4,3.4-4.2c0-0.8,0-1.2,0-1.9c0.2,0,0.3,0,0.5,0l0,0l0,0c0.2,0,0.3,0,0.5,0c0,0.1,0,0.1,0,0.1 c1.7-3.2,3.3-7.2,4.6-11.3c0-2.1,0-3.3,0-3.4c-2.5,8.3-5.9,16.6-9.5,19.6c-1.4,1.2-3,2.2-4.7,3.4h0.1c0,0.5,0,0.7,0,1.2 C891.8,680.7,891.7,680.7,891.6,680.7z"/>
    <path d="M935.6,693.4c0-1.9,0-2.8,0-4.7c-0.1-0.3-0.1-0.5-0.2-0.8c-1.4-5.6-2.9-10.9-4.7-16c-2.7-8.5-7.1-18-12.7-25 c-2.5-3.2-5.1-5.5-7.8-7.2c-0.1,0.4-0.2,0.8-0.3,1.2C926,651.5,931.3,676.2,935.6,693.4z"/>
    <path d="M912,757.5c0-18.9-0.1-37.7-0.1-56.6c0-15.1-0.1-30.1-0.1-45.2c0-0.5,0-0.8,0-1.4c-0.4,0-0.6,0-1,0c0,0.1,0,0.1,0,0.1 c0,15.5,0.1,31,0.1,46.5c0,18.4,0.1,36.8,0.1,55.2c0,0.8,0,1.2,0,1.9c0,3.3,0.1,5,0.1,8.4c0.4,0,0.6,0,0.9,0c0-2.8,0-4.2,0-7 C912,758.7,912,758.3,912,757.5z"/>
    <path d="M905.7,659.7c0,13.7,0.1,27.4,0.1,41.1c0,16.1,0.1,32.2,0.1,48.2c0,0.7,0,1.4,0,1.9c0,4,0,6.6,0,7.1c0.4,0,0.6,0,1,0 c0-0.1,0-2.2,0-5.8c0-0.5,0-1.2,0-1.9c0-16.5-0.1-33.1-0.1-49.6c-0.1-14.8-0.1-29.6-0.1-44.4c0-0.1,0-0.3,0-0.3c-0.4,0-0.6,0-1,0 l0,0l0,0C905.7,656.5,905.7,657.8,905.7,659.7z"/>
    <line fill="none" x1="900.8" x2="900.8" y1="751.8" y2="751.8"/>
    <line fill="none" x1="900.6" x2="900.6" y1="670.8" y2="670.8"/>
    <path d="M901.4,742.8c-0.1-14-0.1-28-0.2-42.1c0-9.9-0.1-19.8-0.1-29.7c0-0.1,0-0.1,0-0.1c-0.2,0-0.3,0-0.4,0c-0.2,0-0.3,0-0.5,0 c0,0.8,0,1.2,0,1.9c0,11.2,0.1,16.8,0.1,28c0,13.6,0.1,27.1,0.1,40.7c0,0.8,0,1.2,0,1.9c0,3.4,0,5.1,0,8.5c0.2,0,0.3,0,0.5,0 s0.3,0,0.5,0c0-2.9,0-4.3,0-7.1C901.4,743.9,901.4,743.5,901.4,742.8z"/>
    <line fill="none" x1="896" x2="896" y1="676.4" y2="676.4"/>
    <path d="M896.7,736.5c0-12-0.1-23.9-0.1-35.9c0-9.4-0.1-14.1-0.1-23.4c0-0.3,0-0.4,0-0.7c-0.2,0-0.3,0-0.5,0s-0.3,0-0.5,0 c0,0.6,0,0.9,0,1.5c0,9.1,0.1,13.7,0.1,22.8c0.1,11.5,0.1,22.9,0.2,34.4c0,0.8,0,1.2,0,1.9c0,2.6,0,3.9,0,6.4c0.4,0,0.6,0,1.1,0 c0-2-0.1-3-0.1-5.1C896.7,737.6,896.7,737.2,896.7,736.5z"/>
    <line fill="none" x1="891.1" x2="891.1" y1="735.9" y2="735.9"/>
    <path d="M890.6,727.9c0,0.8,0,1.2,0,1.9c0,2.4,0,3.6,0,6c0.2,0,0.3,0,0.5,0s0.3,0,0.5,0c0-1.9,0-2.8,0-4.7c0-0.8,0-1.2,0-1.9 c0-9.6,0-19.2,0-28.8c0-7.9,0-11.9,0-19.9c0-0.5,0-0.8,0-1.4c-0.1,0-0.1,0-0.2,0c-0.3,0-0.5,0-0.9,0c0,0.3,0,0.4,0,0.7 c0,0.6,0,0.9,0,1.5c0,7.6,0,11.4,0,19C890.6,711.5,890.6,717,890.6,727.9z"/>
    <line fill="none" x1="885.6" x2="885.6" y1="683.7" y2="683.7"/>
    <path d="M885.2,720.6c0,0.8,0,1.2,0,1.9c0,2.4,0,3.5,0,5.9c0.4,0,0.6,0,1,0c0-1.8,0-2.7,0-4.5c0-0.8,0-1.2,0-1.9c0-8.7,0-13,0-21.7 c0-6.5,0-9.8,0-16.3c0-0.2,0-0.2,0-0.4c-0.2,0-0.3,0-0.5,0s-0.3,0-0.4,0c0,0.4,0,0.7,0,1.1c0,6.2,0,9.4,0,15.6 C885.2,708.5,885.2,712.5,885.2,720.6z"/>
    <line fill="none" x1="881" x2="881" y1="721.3" y2="721.3"/>
    <line fill="none" x1="881" x2="881" y1="687" y2="687"/>
    <path d="M881,721.3c0.2,0,0.3,0,0.5,0c0-1.5,0-2.2,0-3.7c0-0.8,0-1.2,0-1.9c0-6.2,0-9.3,0-15.5c0-5.3,0-7.9,0-13.2 c-0.1,0-0.1,0-0.2,0c-0.1,0-0.2,0-0.3,0c-0.2,0-0.3,0-0.5,0c0,0.2,0,0.3,0,0.5c0,5,0,7.6,0,12.6c0,5.6,0,8.5,0,14.1 c0,0.8,0,1.2,0,1.9c0,2,0,3,0,5.1C880.7,721.3,880.8,721.3,881,721.3z"/>
    <path d="M877.1,717.7c-0.2-0.3-0.5-0.3-0.8,0s-0.2,0.7,0,1c16,23.8,31.8,47.8,47.4,71.9c0.1,0.1,0.2,0.3,0.4,0.3 c0.1,0,0.2,0,0.3-0.1c0.2-0.3,0.2-0.7,0-1C908.9,765.6,893.1,741.6,877.1,717.7z" fill="#FFDF00"/>
    <path d="M927.1,674.2c-0.2-0.7-0.8-1-1.2-0.6c-0.5,0.3-0.7,1-0.4,1.6c6,19.5,8.5,39.5,9.4,59.9 c0.5-6,0.8-11.5,0.9-16.4C933.9,703.6,931.6,688.7,927.1,674.2z" fill="#FFDF00"/>
    <path d="M870.6,706.2c0.1,0,0.2,0.1,0.3,0.2c0.4,0,0.8-0.2,0.9-0.8c0.3-1.1,1.1-2.7,1.6-2.8c0.1,0,0.2,0,0.4,0.3 c0.4,0.4,1.1,0.5,1.4-0.1s0.3-1.4-0.1-1.8c-0.9-1-1.7-1-2.2-0.8c-1.9,0.5-2.8,3.7-3.1,4.2C869.8,705.2,870,705.9,870.6,706.2z" fill="#FFDF00"/>
    <path d="M866.4,688.2c-0.2,0.3-5.7,6-5.8,12c-0.1,2.2,0.6,4.1,1.8,5.7c0.2,0.3,0.4,0.4,0.8,0.4 c0.2,0,0.6-0.1,0.7-0.4c0.4-0.4,0.4-1.2,0-1.8c-0.9-1.1-1.2-2.4-1.2-3.9c0.1-5.1,5.2-10.3,5.2-10.3c0.4-0.4,0.4-1.2,0.1-1.8 C867.4,687.8,866.9,687.8,866.4,688.2z" fill="#FFDF00"/>
    <path d="M943.6,566.9c0-0.3-0.1-0.5-0.1-0.8c-1-7.7,0-14.4,2.7-19.9c-1.9-5-2.1-9.8-0.5-14.5 c0.2-0.6,0.3-1.2,0.5-1.8c-1.4,0.3-2.8,0.3-4,0.1c-1.6-0.3-2.9,1.4-5.3,4.3c-0.3,0.3-0.5,0.7-0.8,1c0,20.5,0,41,0,61.5 c1.7-1.1,3.5-1.9,5.9-2.9l0,0C946.3,588,944.7,575.8,943.6,566.9z" fill="#008021"/>
    <path d="M946.4,614L946.4,614c1.6,0.7,3.2,0.6,4.8,0c0.4-0.1,0.7-0.3,1.1-0.4c0.1,0,0.1,0,0.2,0 c0.6-0.3,1.2-0.7,1.6-1.3c2.5-2.7,7-2.9,10.4-2l0,0c0.8,0.1,1.4-0.2,2-0.9c2.4-2.7,4.2-11.6,5-24.9c0.2-3.2,0.3-6.2,0.4-9.3 c0.1-5.2,0.3-11.1,1-20.2c1.3-15.6-2.9-20.4-4.9-22.7c-2.2-2.5-3.8-3.8-5.2-3.9c-1.1,0.5-1.7,1.9-2.7,3.8c-0.7,1.4-1.4,3.1-2.6,4.8 c-1.2,1.7-2.7,2.6-4.3,3.3c-2.2,1.2-4.6,2.3-6.5,6.2l0,0c-2.8,5.4-3.7,12-2.7,19.6c0,0.3,0.1,0.5,0.1,0.8 c1.1,8.8,2.7,20.5-1.5,26.6c0.8-0.3,1.6-0.6,2.5-0.9c0.3-0.1,0.7-0.2,1-0.3c1.5-0.4,2.5-0.7,2.8-2.4c0.1-0.7,0.4-1.4,0.7-2.2 c0.8-2.1,2-5.7,3.4-13.4c1.3-7.2,6-17.5,10.5-23c1.5-1.8,2.8-2.5,3.8-1.8c2.1,1.3,2.4,7.4,2.4,10.8c-0.1,13.2-4.2,25.6-8.2,38.1 c-1.2,3.5-3.4,5.1-4.7,5.7c-0.9,0.4-1.9,1.4-3.2,2.7c-1.1,1.1-2.4,2.3-3.8,3.4c-0.6,0.4-2.4,1.8-4.7,3.4c0.4,0.3,0.7,0.4,1.1,0.5 C946.3,613.9,946.4,613.9,946.4,614z" fill="#008021"/>
    <path d="M936,709.3c1.2,24.1-2.3,49.5-8.4,72.8c-2.6,9.9-1.3,13.3,1.9,16.3c0,0,0.1,0,0.1,0.1l0,0 c0,0.1,0.1,0.1,0.1,0.1c3.4,3,6.5,4.6,9.4,5.3c0-0.1,0-0.1,0-0.1c0.7,0,1.6-0.3,2.7-3.9c2.8-12.5,4.2-26.6,3-39.4 c0.2-0.1,0.2-0.1,0.4-0.1c1.2,12.9-0.2,27-3,39.7c-0.7,2.2-1.3,3.4-2.1,4c3,0.4,5.7-0.4,8.3-1.8l0,0c1.6-0.6,1.1-7,0.8-11.3 c-0.1-1.2-0.2-2.2-0.2-3c0.2,0,0.2,0,0.4,0c0,0.8,0.1,1.8,0.2,3c0.3,4,0.6,8.8-0.2,10.8c1.9-1.1,3.7-2.7,5.4-4.4 c1.8-2.1,1.6-7.3,1.6-11c0-1.1,0-2.2,0-3c0.8-21.2-5.9-40.7-12.9-60.4c-0.5-1.4-0.9-2.5-1.4-3.5c-1.7-4.2-2.9-7.4-2.7-12.7 c0.2-3.7-0.1-8.2-0.4-12.5c-0.2-3.4-0.4-6.7-0.4-9.7c0.2,0,0.2,0,0.4,0c0,2.9,0.2,6.2,0.4,9.6c0.3,4.2,0.6,8.8,0.4,12.5 c-0.2,5.2,1,8.2,2.6,12.4c0.4,1.1,0.9,2.3,1.4,3.5c7,19.7,13.8,39.4,13,60.6c0,0.8,0,1.9,0,3c0.1,3.1,0.2,7.4-0.9,10 c2-2.1,4.2-4.4,6.2-6.8c0.9-1,1.7-2,2.6-3l0,0c0-0.1,0.1-0.1,0.1-0.1l0,0c0.1-0.1,0.2-0.1,0.3-0.3c0.1,0,0.1-0.1,0.2-0.3 c0.7-0.9,1.7-2,3.1-2.2c1.1-0.3,2.2,0.2,3.2,1.3c-1.8-4.1-3.6-11.7-5.5-19.6c-2.1-8.8-4.3-17.9-6.7-23.3c0.1-0.1,0.2-0.2,0.3-0.3 c2.5,5.4,4.6,14.6,6.7,23.4c2.2,9.3,4.3,18.1,6.5,21.3c0.2,0.3,0.3,0.4,0.5,0.7c0.5,0.7,0.9,1.2,1.3,1.8c0,0.1,0.1,0.1,0.1,0.1l0,0 c3.9,5.2,7.9,6.7,9.7,4.9c-10.8-30.1-8.5-64.4-6.5-95.8c0.1-1.1,0.2-2.2,0.2-3.2c0.5-16.4,0.9-33.6-4.4-49.3 c-1.6-4-2.6-8.8-3.6-13.6c-1.3-6.2-2.8-13.4-5.9-20.9c-0.7-0.1-1.4-0.3-2.2-0.3c1.6,1,2.8,4.5,3.5,15.5c0.6,8.3,1.7,12.8,3,17.9 c0.5,1.9,1,3.9,1.4,6.2c3,15.3,3.3,31.1,3.5,46.7c0.2,10.7,0.4,19.8,1.4,25c-0.2,0.1-0.2,0.1-0.4,0.2c-1-5.1-1.2-14.4-1.4-25.1 c-0.4-15.6-0.6-31.2-3.5-46.5c-0.5-2.3-1-4.3-1.4-6.2c-1.2-5.1-2.4-9.6-3-18.1c-0.9-11.3-2-14.3-3.5-15.2c0,0,0,0,0.1,0.1 c1.1,1.6,1.7,5.3,1.6,11.2c-0.2,0-0.2,0-0.4,0c0.1-5.6-0.4-9.3-1.5-10.8c-0.4-0.5-0.8-0.7-1.2-0.8c-0.1,0-0.2,0-0.4,0 c0-0.1,0-0.1,0-0.1c-0.8,0-1.5,0.2-2.2,0.4l0,0c-2.8,0.8-4,3.8-3.9,10.7c0,2.3-0.1,5.1-0.2,8c-0.3,6.3-0.6,13.4,0.1,20.5 c-0.2,0.1-0.2,0.1-0.4,0.1c-0.7-7.1-0.4-14.2-0.1-20.5c0.1-2.9,0.2-5.6,0.2-7.8c0-4.8,0.6-7.8,1.8-9.5c-0.4,0.3-0.7,0.6-1.1,0.9 c-0.5,0.6-1.1,0.9-1.6,1.3l0,0c-0.1,0-0.2,0.1-0.3,0.1c-0.4,0.1-0.7,0.3-1.1,0.4c-1.2,0.7-2,2-1.8,6.9c-0.2,0-0.2,0-0.4,0 c-0.2-3.8,0.3-5.6,1.1-6.6c-0.4,0-0.9,0.2-1.3,0.2c-1,0-1.9-0.2-2.9-0.5c-0.4-0.1-0.8,0-1.1,0.4c-0.9,1-1.6,3.6-1.6,6.9 c-0.2,0-0.2,0-0.4,0c0.1-3.4,0.7-6.2,1.8-7.3c0.2-0.1,0.3-0.3,0.5-0.4c-0.2-0.1-0.4-0.3-0.6-0.4l0,0c-2.5,1.7-5.5,3.5-7.9,4.4 c-0.3,0.1-0.6,0.3-0.9,0.3c0,30.1,0,60.1,0,90.2C935.9,709.3,935.9,709.3,936,709.3L936,709.3z M952.2,762.9 c1.2,8.9,1.2,17.9,0.1,24.7c-0.2-0.1-0.2-0.1-0.4-0.1c1.1-6.7,1-15.5-0.1-24.4C951.9,763,952,763,952.2,762.9z M946.8,776.8 c0.4,4,0.5,13.7-1.7,21.3c-0.2-0.1-0.2-0.2-0.4-0.3c2.2-7.6,2.1-17,1.7-21C946.6,776.8,946.7,776.8,946.8,776.8z M962.7,772.7 c1.2,1.9,1.4,6,1.5,9.2c0,0.2,0,0.2,0,0.4c-0.2,0-0.2,0-0.4,0c0-0.2,0-0.2,0-0.4c-0.1-3-0.3-7.1-1.4-8.8 C962.5,772.9,962.6,772.9,962.7,772.7z M959.8,624.8c6.8,28.4,5,56.2-0.5,84.7c2.3,9.1,4.6,17.1,6.7,24.2c3,10.4,5.3,18.5,6,24.2 c-0.2,0.1-0.2,0.1-0.4,0.2c-0.7-5.6-3-13.7-5.9-24.1c-2-7-4.4-15.1-6.7-24.2c0-0.1,0-0.1,0-0.1c0-0.1,0-0.1,0-0.1 c5.6-28.5,7.4-56.1,0.5-84.4C959.6,625,959.6,625,959.8,624.8z M943.2,653.8c1.3-7.4,1.6-11.9,0.7-14.3c0.2-0.1,0.2-0.2,0.4-0.3 c0.7,1.9,0.7,5.3,0,10.4l0,0c-0.5,3.3,0.2,7.8,0.9,12.7c1,6.4,2.1,13.8,0.5,19.9c-0.2-0.1-0.2-0.1-0.4-0.1 c1.5-5.9,0.4-13.2-0.6-19.6c-0.5-3.4-1-6.7-1.1-9.4c-0.1,0.3-0.1,0.5-0.1,0.8c-2,11.1-1.3,15.5-0.7,18.2c0.3,1.6,0.5,2.9,0.2,4.7 c-0.2-0.1-0.2-0.1-0.4-0.1c0.3-1.6,0.1-2.9-0.2-4.4C941.9,669.4,941.1,665.1,943.2,653.8z" fill="#008021"/>
    <path d="M963.2,528.1c-0.2,0.1-0.2,0.1-0.4,0.2l0,0c1.4,0.2,3.1,1.4,5.2,3.9c2,2.4,6.1,7.2,4.9,22.7c-0.7,9.2-0.8,15-1,20.2 c-0.1,3.2-0.2,6-0.4,9.3c-0.8,13.3-2.6,22.2-5,24.9c-0.7,0.7-1.3,1-2,0.9l0,0l0,0c0,0.2-0.1,0.3-0.1,0.6h-0.1 c3.1,7.5,4.6,14.7,5.9,20.9c1,4.9,2.1,9.6,3.6,13.6c5.3,15.8,4.9,32.9,4.4,49.3c-0.1,1-0.1,2.1-0.2,3.2 c-2.1,31.4-4.3,65.7,6.5,95.8c-1.8,1.8-5.8,0.3-9.7-4.9l0,0c0.1,0.4,0.1,0.7,0.2,0.9c4,5.1,8,6.2,9.8,4.2c0-0.1,0.1-0.1,0.1-0.1 c0-0.1-0.1-0.2-0.1-0.3c-11-29.3-8.6-63.6-6.6-94.2c0-0.5,0.1-1.1,0.1-1.5c0.1-1.1,0.2-2.2,0.2-3.2c0.5-16.5,0.9-33.7-4.4-49.6 c-1.5-4-2.6-8.6-3.6-13.5c-1.3-6.2-2.8-13.1-5.8-20.7c0.7,0,1.3-0.3,2-1.1c3.1-3.6,4.5-15.7,5.1-25.3c0.2-3.2,0.3-6.2,0.4-9.3 c0.1-5.2,0.3-11,1-20.2c1.3-15.8-3-20.8-5-23.1c-2.2-2.6-4-3.9-5.4-4l0,0C962.9,527.9,963,528,963.2,528.1z"/>
    <path d="M936.8,534.3c2.4-2.9,3.8-4.6,5.3-4.3c1.3,0.3,2.7,0.2,4-0.1c0-0.1,0.1-0.4,0.1-0.6c-1.4,0.3-2.8,0.3-4.1,0.1 c-1.8-0.4-3.2,1.4-5.6,4.3c-0.3,0.4-0.6,0.7-0.9,1.1l0,0l0,0c0,6.2,0,9.4,0,15.6c0,15.4,0,30.9,0,46.3c0.1-0.1,0.3-0.1,0.4-0.3 c0-20.5,0-40.9,0-61.4C936.3,535,936.6,534.5,936.8,534.3z"/>
    <path d="M973.1,786.1c0.1,0.1,0.3,0.3,0.4,0.5c-0.2-0.3-0.4-0.5-0.5-0.7C973,786,973.1,786.1,973.1,786.1z"/>
    <path d="M968.4,783.2c0.2,0,0.4,0,0.6,0c1,0.1,1.9,0.6,2.8,1.5c0-0.1-0.1-0.1-0.1-0.1C970.6,783.4,969.6,782.9,968.4,783.2z"/>
    <path d="M965.1,785.7c-0.1,0.1-0.3,0.3-0.3,0.3S965,785.7,965.1,785.7z"/>
    <path d="M929.4,798.5C929.4,798.4,929.5,798.4,929.4,798.5c0.1-0.1,0-0.1,0-0.2c-3.3-3-4.5-6.4-1.9-16.3c6-23.3,9.7-48.7,8.4-72.8 c0-30.3,0-60.6,0-90.8c-0.1,0-0.3,0.1-0.4,0.1c0,23.4,0,46.9,0,70.3c0,1.9,0,2.8,0,4.7c0,6.4,0,9.5,0,15.9c0.2,2.7,0.2,5.9,0.2,9.5 c-0.1,4.9-0.4,10.6-0.9,16.4c-1.6,15.8-4,31.2-7.7,46.7c-2.2,8.2-1.6,12.2,0.4,15.1c0.2,0.3,0.5,0.5,0.7,0.8c0.3,0.3,0.6,0.7,1,1 l0,0C929.3,798.8,929.4,798.6,929.4,798.5z"/>
    <path d="M948.4,802.1c-2.6,1.4-5.4,2.2-8.3,1.8c-0.3,0.1-0.6,0.3-0.9,0.3c-0.1,0-0.1,0-0.2,0c0-0.2,0-0.2,0-0.4 c-2.9-0.5-6-2.3-9.4-5.3h0.1c1.1,1.2,3.5,2.7,4.8,3.6c0.1,0.1,0.2,0.1,0.3,0.1c-0.1,0.1-0.1,0.2-0.2,0.3c0,0,0,0-0.1,0.1 c2.5,1.4,4.9,1.9,7.1,1.8c2.4,0,4.7-0.8,6.9-1.9C948.4,802.3,948.4,802.3,948.4,802.1z"/>
    <path d="M964.7,786.3C964.7,786.2,964.7,786.2,964.7,786.3c-0.9,0.9-1.7,1.9-2.6,2.9c-2.1,2.4-4.1,4.7-6.2,6.8 c-0.2,0.6-0.5,1-0.8,1.4c2.5-2.4,4.8-5.1,7.2-7.8c0.9-1,1.6-1.9,2.5-2.9C964.8,786.6,964.7,786.4,964.7,786.3z"/>
    <path d="M954.4,797.5c0.1-0.1,0.3-0.3,0.4-0.4c-1.7,1.7-3.6,3.3-5.4,4.4c-0.1,0.3-0.3,0.6-0.5,0.8c2-1.1,3.9-2.6,5.7-4.4 C954.5,797.8,954.5,797.7,954.4,797.5z"/>
    <path d="M943.7,492.8c-0.2,0.4-0.2,1.2-0.2,1.9c0,1.4-0.1,2.9-0.8,4c-0.8,1.4-1.7,2.5-2.6,3.5 c-0.3,0.3-0.6,0.7-0.6,1.2c0,0.4,0.1,0.7,0.3,1.1c0.2,0.3,0.5,0.4,0.8,0.5c0.1,0,0.3,0.1,0.4,0.1c0.1,0.1,0.1,0.1,0.2,0.1l0,0 c0.3,0.1,0.7,0.4,1.1,0.9c-0.1,0.2-0.2,0.2-0.3,0.4c-0.3-0.4-0.7-0.7-0.9-0.8c-0.3,1-0.7,1.7-1,2.2c-0.2,0.3-0.3,0.7,0.2,1.2l0,0 c0.2,0.1,0.4,0.4,0.6,0.5c0.5,0.3,1,0.4,1.5,0.5c0.1,0,0.1,0,0.2,0c0,0.2,0,0.3,0,0.5c-0.1,0-0.1,0-0.2,0c-0.5-0.1-1.1-0.1-1.6-0.5 c-0.2-0.1-0.3-0.3-0.5-0.4c-0.1,0.8-0.1,1.4,0,1.9c0.1,0.7,0.2,1.2-0.2,2.2c0,0.1-0.1,0.1-0.1,0.1c-0.4,0.8-0.7,1.8-0.5,2.7 c0.1,0.7,0.6,1.4,1.4,1.9c0.6,0.4,3.5,1.3,5.1,1c1.3-0.3,2.2-1,3-1.6c0.9-0.7,1.6-1.3,2.7-1.2c0,0.2,0,0.3,0,0.5 c-1-0.1-1.6,0.5-2.5,1.2c-0.8,0.6-1.7,1.3-2.9,1.6c0.7,3,1.2,7.5-0.1,11.5c-1.5,4.4-1.3,8.9,0.4,13.8c2-3.7,4.4-4.9,6.5-6.1 c1.5-0.9,3.1-1.6,4.1-3.1c1.2-1.7,1.9-3.4,2.6-4.8c0.9-1.8,1.5-3.2,2.6-3.9c-0.1-0.1-0.3-0.3-0.4-0.5c-1.9-2.2-4.3-4.9-4-10.9 c-0.6-0.3-1.1-0.6-1.2-1.2c-0.4-1.4-1.2-2.2-2.1-2.7c-0.7-0.3-1-1.6-1-2.8c0-1.2,0.4-2.5,1.3-2.9c-0.2-1.2-0.1-2.6,0.4-3.4 c0.1-0.1,0.1-0.4,0.1-0.7c0-0.7-0.4-1.4-1-2c-1-1.1-1.7-4.9-1.1-7.2c-1.9,0.5-5.2-1.6-5.9-3.1c-0.4-0.7-0.8-1.1-1.2-1.1l0,0 c-0.2,0-0.4,0.1-0.6,0.3C944.6,490.6,943.9,491.8,943.7,492.8z M945.8,500.7c-0.3-0.1-1.2-0.1-1.7-0.1s-1.1-0.8-0.7-0.9 c0.4-0.1,0.3-0.3,0.3-0.7c-0.1-0.4,0.2-1,0.4-1.1s0.1-0.1-0.1-0.5c-0.2-0.5-0.3-1.6-0.1-1.2l0,0c1,1.9,2.1,1.6,2.2,2.8 c0.2,1.2,0.3,1.2,0.5,1.6C946.8,500.8,946.1,500.8,945.8,500.7z M948.6,496.9c0.9,1.3,0.2,1-0.3,1c-0.4,0-1.3-0.4-1.7-1.1 s-1.7-1.6-2.3-1.9c-0.4-0.1-0.8-0.8,0.1-0.7C945.6,494.5,947.6,495.3,948.6,496.9z" fill="#FFE1CF"/>
    <path d="M957.9,516.4c-0.3,6,2.1,8.8,4,10.9c0.2,0.1,0.3,0.4,0.4,0.5c-1,0.6-1.7,2.1-2.6,3.9c-0.7,1.4-1.4,3.1-2.6,4.8 c-1.2,1.7-2.6,2.4-4.1,3.1c-2.1,1.2-4.6,2.3-6.5,6.1c-1.7-4.8-1.9-9.3-0.4-13.8c1.3-4.1,0.8-8.5,0.1-11.5c-0.1,0-0.1,0-0.2,0 c0-0.2-0.1-0.3-0.1-0.5c-1.6,0.3-4.5-0.6-5.1-1c-0.8-0.5-1.3-1.2-1.4-1.9c-0.2-1,0.2-1.8,0.5-2.7c0-0.1,0.1-0.1,0.1-0.1 c0.4-1,0.3-1.6,0.2-2.2c-0.1-0.5-0.2-1,0-1.9c-0.1-0.1-0.2-0.1-0.3-0.3c0.1-0.2,0.2-0.2,0.3-0.4l0,0l0,0c-0.5-0.5-0.3-1-0.2-1.2 c0.3-0.6,0.6-1.4,1-2.2c-0.1,0-0.1,0-0.2-0.1c0-0.2,0.1-0.3,0.1-0.5c0.1,0,0.1,0.1,0.2,0.1l0,0c-0.1-0.1-0.1-0.1-0.2-0.1 c-0.1-0.1-0.3-0.1-0.4-0.1c-0.4-0.1-0.7-0.3-0.8-0.5c-0.2-0.4-0.3-0.7-0.3-1.1c0-0.5,0.4-1,0.6-1.2c0.9-1,1.8-2.1,2.6-3.5 c0.7-1.1,0.7-2.6,0.8-4c0-0.8,0-1.5,0.2-1.9c0.3-1,1-2.2,1.9-3.5c-0.2,0.1-0.3,0.3-0.4,0.6c-0.2-0.1-0.2-0.1-0.4-0.1c0,0,0,0,0-0.1 c-0.7,1.1-1.3,2.2-1.5,2.9c-0.2,0.6-0.2,1.2-0.2,2.2c0,1.2-0.1,2.7-0.7,3.7c-0.5,0.8-1,1.5-1.6,2.2c-0.3,0.4-0.6,0.8-1,1.1 c-0.5,0.4-0.7,1-0.8,1.7c0,0.5,0.1,1,0.4,1.5c0.2,0.4,0.6,0.5,1,0.7c0.1,0,0.1,0,0.2,0.1c-0.3,0.8-0.6,1.7-0.9,2.1 c-0.4,0.7-0.3,1.4,0.1,1.9c-0.2,1.1-0.1,1.8,0,2.3s0.2,1-0.1,1.8c0,0.1-0.1,0.1-0.1,0.1c-0.4,1-0.8,1.9-0.6,3.2 c0.2,0.8,0.7,1.6,1.6,2.2c0.7,0.5,3.5,1.5,5.2,1.1c0.5,2.5,1,5.6,0.4,8.9c0,0.1-0.1,0.4-0.1,0.6c-0.1,0.6-0.3,1.2-0.5,1.8 c-1.5,4.7-1.4,9.5,0.5,14.5c0,0,0-0.1,0.1-0.1c0.1,0.1,0.2,0.2,0.3,0.3l0,0l0,0c2-3.9,4.3-5,6.5-6.2c1.6-0.9,3.2-1.6,4.3-3.3 c1.2-1.7,1.9-3.4,2.6-4.8c0.9-2,1.5-3.3,2.7-3.8l0,0c0.2-0.1,0.2-0.1,0.4-0.2c-0.1-0.1-0.2-0.2-0.3-0.3l0,0 c-0.2-0.3-0.4-0.5-0.7-0.8c-1.8-2.1-4.1-4.6-3.8-10.4l0,0C958.2,516.5,958,516.4,957.9,516.4z"/>
    <path d="M912.2,544.1c-0.5,0.1-0.8,0.1-1.1-0.2c-0.4-0.4-0.4-1.4-0.4-2.5c0-0.3,0-0.5,0-0.8c0-2.5,0.3-3.8,0.7-5.6 c2.1-9.6,2.1-19.9,2.1-29.6c0-2.7,0.1-4,1.6-4.9c1.4-0.8,4.8-4.3,5.3-5.6c0.3-0.8,1.1-1.6,2-2.5c0.5-0.5,1-1,1.5-1.6 c0.7-0.8,0.8-1.6,0.6-2.2c-0.1-0.3-0.3-0.4-0.5-0.4c-0.6,0.4-1.6,1.5-2.6,2.6c-0.8,1-1.7,1.9-2.5,2.7c-0.1-0.2-0.1-0.2-0.2-0.4 c0.8-0.8,1.7-1.8,2.5-2.7c1.1-1.2,2-2.3,2.7-2.7c0.9-1,0.7-1.8,0.6-2.1c-0.1-0.4-0.4-0.6-0.6-0.6l0,0c-0.5,0.1-2.1,1.8-4.7,4.3 c-0.6,0.7-0.9,1-1.5,1.6c-0.1-0.2-0.1-0.2-0.2-0.4c0.6-0.7,0.9-1,1.5-1.6c2.7-2.7,4.1-4.2,4.8-4.5c0.4-0.5,0.5-0.7,0.3-1.4 c-0.1-0.1-0.2-0.3-0.3-0.4c-0.2-0.1-0.6-0.1-1.4,0.4c-0.6,0.5-4.3,4.2-5.8,5.8c-0.1-0.2-0.1-0.2-0.2-0.4c1.4-1.5,4.9-4.9,5.7-5.7 c-0.1-0.4-0.2-0.5-0.2-0.5c-0.4-0.3-1.4,0.3-2.6,1.5c-0.1,0.1-0.5,0.4-0.8,0.7c-0.9,0.8-2.4,1.9-3.3,3l0,0l0,0 c-0.3,0.3-0.7,0.8-1.1,1.4c-0.4,0.5-0.7,0.9-1,1.2c-0.1-0.2-0.1-0.2-0.2-0.4c0.2-0.3,0.6-0.7,0.9-1.2c0.4-0.5,0.8-1.1,1.1-1.4 c0.6-1.2,0.8-1.9,0.7-2.6c0-0.3-0.1-0.5-0.2-0.6c-0.3-0.1-1.1,0.5-2,2.2c-0.1,0.3-0.2,0.4-0.3,0.7c-0.4,1-0.8,1.9-2.1,3 c-2,1.6-2.2,4.8-2.2,8c0,4.5-1.4,9.7-5,20c-2.8,8.4-5.8,18.1-4.9,25c0.3,3.3,0.3,7.3-0.1,11.8c-0.1,1.1,0.1,2.1,0.6,2.8 c0.6,0.8,1.7,1.3,2.9,1.2c0.7-0.1,1.6-0.1,2.4-0.1c1.8,0,3.5,0.3,5.3,0.5c3,0.5,5.9,0.8,8,0.1c0-6.7,0-10,0-16.7 c-2,0-4,0.8-5.4,1.3C912.5,543.9,912.4,544,912.2,544.1z" fill="#FFE1CF"/>
    <path d="M918.2,559.8c0-7.1,0-10.6,0-17.7c-0.1,0-0.1,0-0.2,0c0,0,0,0-0.1,0c-2.1,0-4.2,0.8-5.7,1.3h-0.1c-0.3,0.1-0.6,0.1-0.7,0 c-0.2-0.3-0.2-1.1-0.2-2.1c0-0.3,0-0.5,0-0.8c0-2.3,0.3-3.7,0.7-5.5c2.1-9.6,2.1-20,2.1-29.7c0-2.7,0.1-3.7,1.3-4.4 c0.2-0.1,0.5-0.3,0.8-0.5c1.6-1.3,4.2-4.1,4.7-5.2c0.3-0.8,1-1.5,1.9-2.3c0.5-0.5,1-1,1.5-1.6c0.9-1.1,0.9-2.2,0.6-2.9 c-0.1-0.3-0.3-0.4-0.5-0.6c0.6-0.8,0.6-1.6,0.4-2.3c-0.1-0.4-0.3-0.7-0.5-0.7c0.3-0.4,0.4-0.8,0.1-1.6c-0.1-0.3-0.3-0.5-0.5-0.7 c-0.4-0.1-0.9-0.1-1.5,0.3c-0.1-0.4-0.2-0.5-0.4-0.7c-0.7-0.4-2.1,0.5-3.1,1.5c-0.1,0.1-0.4,0.4-0.8,0.7c-0.7,0.5-1.6,1.4-2.5,2.2 c0.2-0.7,0.3-1.2,0.2-1.8c-0.1-0.8-0.4-1-0.5-1c-0.6-0.1-1.5,0.7-2.4,2.4c-0.1,0.3-0.2,0.5-0.3,0.7c-0.4,1-0.8,1.8-2,2.8 c-2.1,1.7-2.4,5.2-2.4,8.5c0,0.7,0,1.5-0.1,2.3c-0.4,4-1.9,8.9-4.8,17.6c-2.9,8.6-5.8,18.2-5,25.4c0.3,3.2,0.3,7.1-0.1,11.6 c-0.1,1.4,0.1,2.5,0.7,3.3c0.7,1,1.9,1.4,3.3,1.3c2.3-0.4,5.1,0.1,7.7,0.4c1.8,0.2,3.4,0.5,5,0.5c1.1,0,2.3-0.1,3.2-0.4h0.1 C918.2,560.1,918.2,560,918.2,559.8z M917.8,559.4c-2.1,0.7-5,0.2-8-0.1c-1.8-0.2-3.6-0.5-5.3-0.5c-0.8,0-1.7,0-2.4,0.1 c-1.3,0.1-2.3-0.2-2.9-1.2c-0.5-0.7-0.7-1.7-0.6-2.8c0.4-4.5,0.5-8.5,0.1-11.8c-0.7-6.9,2.1-16.5,4.9-25c3.6-10.5,5-15.5,5-20 c0-3.2,0.3-6.4,2.2-8c1.2-1.1,1.7-2,2.1-3c0.1-0.3,0.2-0.5,0.3-0.7c0.8-1.6,1.6-2.3,2-2.2c0.1,0,0.2,0.3,0.2,0.6 c0.1,0.7-0.1,1.5-0.7,2.6l0,0c0.1,0.2,0.1,0.2,0.2,0.4l0,0c0.9-1.1,2.4-2.2,3.3-3c0.4-0.3,0.7-0.5,0.8-0.7c1.2-1.2,2.2-1.8,2.6-1.5 c0,0,0.2,0.1,0.2,0.5c0-0.1,0.1-0.1,0.1-0.1c0.1,0.2,0.1,0.2,0.2,0.4l0,0c0.8-0.5,1.2-0.5,1.4-0.4c0.1,0,0.2,0.1,0.3,0.4 c0.2,0.7,0.1,0.8-0.3,1.4h0.1c0,0.2,0.1,0.3,0.1,0.5l0,0l0,0c0.2,0,0.5,0.1,0.6,0.6c0.1,0.3,0.3,1.1-0.6,2.1l0,0 c0.1,0.2,0.1,0.3,0.2,0.5l0,0c0.2-0.1,0.4,0,0.5,0.4c0.2,0.4,0.2,1.2-0.6,2.2c-0.5,0.5-1,1.1-1.5,1.6c-0.9,0.8-1.7,1.6-2,2.4 c-0.5,1.2-3.9,4.8-5.3,5.6c-1.5,0.8-1.7,2.2-1.6,4.9c0.1,9.7,0,20-2.1,29.6c-0.4,1.8-0.7,3.1-0.7,5.6c0,0.3,0,0.5,0,0.8 c0,1.1,0,2.1,0.4,2.5c0.2,0.3,0.6,0.3,1.1,0.2h0.1c1.4-0.5,3.4-1.3,5.4-1.3c0,6.5,0,9.8,0,16.3 C917.6,559.4,917.6,559.4,917.8,559.4z"/>
    <path d="M928.5,604.2c-6.9,7-14.4,12.8-18.3,15.6c-0.5,0.4-1,0.7-1.5,1.1c-3.5,2.5-4.3,3.1-5.2,5.5 c-1.2,3-2.1,5.2-2.9,6.4c-0.8,1.1-1.2,2.4-0.9,4.1c0.1,1-0.1,4-0.2,6.6c-0.1,1.1-0.1,2.1-0.1,2.7c-0.1,2.1,0.3,2.2,0.7,2.3 c0.7,0.2,1.3-0.7,1.5-2.4c0-1.2,0-2.3,0-3.2c0-3.2-0.1-4.9,1.3-7.6c0.1,0.1,0.2,0.2,0.3,0.3c-1.3,2.6-1.3,4.2-1.2,7.4 c0,1,0,1.9,0,3.3c-0.1,0-0.1,0-0.2,0c0.1,0,0.1,0,0.2,0c0,0.3,0,0.8,0.2,1c0.2,0.1,0.5,0.3,0.9,0c0.3-0.1,0.7-0.7,0.8-1.2 c0-0.5,0-0.7,0-1.2c0.2-6.4,0.2-7.3,1.9-9.3c0.1,0.2,0.2,0.3,0.3,0.4c-1.5,1.9-1.6,2.6-1.7,8.9c0,0.5,0,0.7,0,1.2 c0,0.4,0.1,1,0.5,1.1c0.6,0.2,1.7-0.9,1.8-2.3c0-0.3,0-0.7,0-1c0-1.9,0-3.8,1.6-6.8c0.1,0.1,0.2,0.2,0.3,0.3 c-1.5,2.7-1.5,4.6-1.6,6.4c0,0.3,0,0.7,0,1c0,0.4,0.2,0.6,0.3,0.6c0.5,0.1,1.4-0.5,1.5-0.9c0.1-0.5,0.2-1,0.3-1.5 c0.3-1.5,0.6-3,1.1-4.2c0.1-0.3,0.2-0.5,0.3-1c0.8-2.2,1.7-4.6,3.2-6c0.7-0.7,1-1.4,1.3-2.2c0.5-1.2,1.2-2.7,3.7-4.3 c5.3-3.5,11-5.3,15.1-6.5c1.1-0.4,2.1-0.7,2.9-1c3.5-1.3,9.1-5.1,12.8-7.9c1.4-1,2.6-2.3,3.7-3.4c1.3-1.3,2.4-2.3,3.3-2.8 c1.2-0.6,3.3-2,4.4-5.4c4-12.4,8.1-24.7,8.2-37.8c0-5.7-0.8-9.5-2.2-10.3c-0.2-0.1-0.5-0.3-0.8-0.2c-0.8,0-1.6,0.6-2.7,1.9 c-4.5,5.5-9.2,15.7-10.4,22.7c-1.4,7.9-2.6,11.4-3.4,13.5c-0.3,0.8-0.6,1.5-0.7,2.2c-0.4,1.9-1.7,2.4-3.1,2.8 c-0.3,0.1-0.6,0.1-1,0.3C936.7,596,934.8,597.7,928.5,604.2z" fill="#FFE1CF"/>
    <path d="M899.1,641.3c0,0.7-0.1,1.4-0.1,2.1c-0.1,1.1-0.1,2.1-0.1,2.7c-0.1,1.9,0.2,2.7,1.1,2.9c0.1,0,0.1,0,0.2,0 c0.4,0,1.2-0.2,1.6-1.6c0,0.1,0.1,0.1,0.2,0.3c0.3,0.3,0.8,0.4,1.4,0.2c0.3-0.1,0.6-0.4,0.8-0.8c0.1,0.4,0.4,0.7,0.7,0.7 c0.7,0,1.7-0.8,2.1-2c0.1,0.1,0.2,0.3,0.4,0.3c0.7,0.2,1.8-0.7,1.9-1.3c0.1-0.5,0.2-1,0.3-1.5c0.1-0.7,0.3-1.4,0.4-2 c0.1-0.4,0.2-0.8,0.3-1.2c0.1-0.3,0.2-0.7,0.3-1s0.2-0.5,0.3-1c0.8-2,1.7-4.5,3.1-5.8c0.8-0.8,1.1-1.5,1.4-2.3 c0.5-1.1,0.9-2.2,2.6-3.5c0.3-0.3,0.6-0.4,1-0.7c5.2-3.5,10.9-5.1,15-6.5c0.5-0.1,1-0.3,1.5-0.4h0.1c0.1,0,0.3-0.1,0.4-0.1 c0.3-0.1,0.6-0.3,0.9-0.3c2.3-0.8,5.3-2.7,7.9-4.4c0.1-0.2,0.1-0.2,0.2-0.4c0.1,0,0.2,0.1,0.3,0.1c2.2-1.6,4-2.8,4.7-3.4 c1.4-1,2.6-2.3,3.8-3.4c1.3-1.3,2.3-2.3,3.2-2.7c1.3-0.6,3.5-2.2,4.7-5.7c4-12.5,8.2-24.9,8.2-38.1c0-3.4-0.3-9.6-2.4-10.8 c-1-0.6-2.3,0-3.8,1.8c-4.6,5.5-9.3,16-10.5,23c-1.4,7.9-2.6,11.3-3.4,13.4c-0.3,1-0.6,1.7-0.7,2.2c-0.3,1.7-1.4,2-2.8,2.4 c-0.3,0.1-0.6,0.1-1,0.3c-0.9,0.3-1.8,0.6-2.5,0.9c-0.1,0.3-0.3,0.4-0.4,0.7c-0.1-0.2-0.2-0.2-0.3-0.4c-2.4,0.9-4.2,1.8-5.9,2.9 c-0.1,0.1-0.3,0.1-0.4,0.3c0,0,0,0-0.1,0c-2.2,1.5-4.3,3.6-7.3,6.7c-3.4,3.6-7.1,6.7-10.2,9.4c-3.2,2.7-6.1,4.9-7.9,6.2 c-0.5,0.4-1,0.7-1.5,1.1c-3.5,2.5-4.4,3.2-5.4,5.8c-1.2,3-2.1,5-2.9,6.2c-0.9,1.2-1.3,2.7-1.1,4.5c0,0.4,0,1.1,0,1.9 C899.2,639.5,899.2,640.4,899.1,641.3z M945.1,593.2c0.3-0.1,0.7-0.2,1-0.3c1.5-0.4,2.7-0.7,3.1-2.8c0.1-0.7,0.4-1.2,0.7-2.2 c0.8-2.1,2-5.7,3.4-13.5c1.3-7,6-17.2,10.4-22.7c1-1.3,1.9-1.9,2.7-1.9c0.3,0,0.5,0.1,0.8,0.2c1.4,0.9,2.2,4.7,2.2,10.3 c-0.1,13-4.2,25.4-8.2,37.8c-1.1,3.3-3.3,4.8-4.4,5.4c-0.9,0.4-2,1.6-3.3,2.8c-1.1,1.1-2.3,2.3-3.7,3.4c-3.8,2.8-9.4,6.6-12.8,7.9 c-0.8,0.3-1.8,0.6-2.9,1c-4.2,1.3-9.9,3-15.1,6.5c-2.5,1.6-3.2,3.1-3.7,4.3c-0.3,0.8-0.6,1.5-1.3,2.2c-1.5,1.5-2.4,3.9-3.2,6 c-0.1,0.3-0.2,0.7-0.3,1c-0.4,1.2-0.8,2.7-1.1,4.2c-0.1,0.5-0.2,1-0.3,1.5c-0.1,0.4-0.9,1.1-1.5,0.9c-0.1,0-0.3-0.1-0.3-0.6l0,0 c-0.2,0-0.2,0-0.4,0l0,0c-0.1,1.4-1.1,2.4-1.8,2.3c-0.4,0-0.5-0.6-0.5-1.1c-0.2,0-0.3,0-0.4,0l0,0c-0.1,0.7-0.5,1.1-0.8,1.2 c-0.3,0.1-0.7,0.1-0.9,0c-0.2-0.3-0.2-0.7-0.2-1c-0.1,0-0.1,0-0.2,0c-0.1,0-0.1,0-0.2,0l0,0c-0.2,1.6-0.7,2.6-1.5,2.4 c-0.4,0-0.8-0.3-0.7-2.3c0-0.5,0.1-1.6,0.1-2.7c0.1-2.5,0.3-5.6,0.2-6.6c-0.2-1.6,0.1-3,0.9-4.1c0.8-1.2,1.9-3.2,2.9-6.4 c0.9-2.4,1.7-3,5.2-5.5c0.4-0.3,0.9-0.7,1.5-1.1c3.8-2.8,11.3-8.6,18.3-15.6C934.8,597.7,936.7,596,945.1,593.2z"/>
    <path d="M972.8,786.5c-1.1-1.4-2.5-2.7-3.8-2.8c-1.6,0-2.7,1.2-3.4,2.1c-0.2,0.1-0.3,0.3-0.4,0.4 c0.2,1.1,0.5,2.3,0.8,3.3c0.3,0.9,0.5,1.9,0.6,2.6c0.2,1.2,0,1.9-0.3,2.5c-0.1,0.1-0.1,0.3-0.2,0.6c-1.5,4.6-3,11.5-3.2,15.1 c-0.1,1.8-0.9,3.6-1.3,4.9c-0.1,0.3-0.2,0.6-0.3,0.8c-0.4,1.1-0.5,2.1,0.9,3.5c0.2,0.3,0.8,0.2,1.3-0.2c0.6-0.3,1-0.9,1.1-1.3 c-0.3-0.8-0.2-2.6,0.3-4.3c0.2,0.1,0.2,0.2,0.4,0.3c-0.6,1.9-0.5,3.4-0.3,3.9c0.3,0.4,0.6,0.5,1,0.4c0.5-0.2,0.9-0.6,1.1-1.2 c-0.4-1.1,0.4-4.4,0.5-4.5c0.2,0,0.2,0.1,0.4,0.1c-0.5,1.9-0.7,3.9-0.4,4.1c0.2,0.3,0.4,0.4,0.7,0.2c0.5,0,0.9-0.6,1.2-1.3 c-0.1-0.1-0.2-0.3-0.2-0.5c-0.2-0.8-0.1-1.9,0.4-3.3c0.2,0.1,0.2,0.2,0.4,0.3c-0.4,1.1-0.5,2.2-0.4,2.8c0,0.1,0.1,0.3,0.2,0.4l0,0 c0.1,0.1,0.3,0.1,0.4,0.1c0.4-0.2,0.8-0.7,1-1.3c0,0-0.1-0.1-0.1-0.3c-0.2-0.5-0.1-1.5,0.3-3c0.2,0,0.2,0.1,0.4,0.1 c-0.5,1.8-0.4,2.4-0.3,2.6c0,0,0,0.1,0.1,0.1h0.1c0.4,0.3,0.8,0.2,1-0.1c0.5-0.4,0.7-1.4,0.8-2.6c0-0.5,0.3-1.5,0.6-2.4 c0.2-0.6,0.4-1.7,0.3-2.8c0-1.2,0.5-3.5,1.1-5c0.6-1.4,1.7-4.2,1.2-6.7c-0.2-1.1-0.5-1.5-0.7-2.1c-0.4-0.7-0.8-1.5-1-3.4 c0-0.1,0-0.1,0-0.1C974,788.1,973.5,787.3,972.8,786.5L972.8,786.5C972.9,786.5,972.9,786.5,972.8,786.5z" fill="#FFE1CF"/>
    <path d="M974.9,788.7L974.9,788.7L974.9,788.7c0-0.1-0.1-0.2-0.1-0.3c-0.4-0.5-0.9-1.2-1.3-1.8c-0.1-0.1-0.3-0.3-0.4-0.5l0,0 c-0.1,0.2-0.2,0.3-0.3,0.4c0.6,0.8,1.1,1.6,1.6,2.2c0,0.1,0,0.1,0,0.1c0.4,1.9,0.8,2.7,1,3.4c0.3,0.5,0.5,1.1,0.7,2.1 c0.5,2.4-0.7,5.2-1.2,6.7c-0.7,1.5-1.1,3.9-1.1,5c0,1.2-0.1,2.3-0.3,2.8c-0.3,0.7-0.6,1.7-0.6,2.4c0,1.4-0.3,2.2-0.8,2.6 c-0.3,0.3-0.7,0.3-1,0.1H971l0,0c0,0.2-0.1,0.3-0.1,0.6c-0.1,0-0.2-0.1-0.2-0.1c-0.3,0.6-0.7,1.1-1,1.3c-0.2,0-0.3,0-0.4-0.1l0,0 l0,0c-0.1,0.2-0.1,0.3-0.2,0.6c-0.1,0-0.1-0.1-0.2-0.3c-0.4,0.7-0.9,1.3-1.2,1.3s-0.5-0.1-0.7-0.2l0,0c-0.1,0.2-0.2,0.3-0.3,0.4 c0-0.1-0.1-0.1-0.1-0.1c-0.3,0.6-0.7,1.1-1.1,1.2c-0.4,0.2-0.8-0.1-1-0.4l0,0c-0.1,0.2-0.2,0.3-0.3,0.4c0,0,0-0.1-0.1-0.1 c-0.1,0.6-0.5,1-1.1,1.3s-1.1,0.3-1.3,0.2c-1.3-1.3-1.3-2.3-0.9-3.5c0.1-0.3,0.2-0.6,0.3-0.8c0.5-1.3,1.2-3.1,1.3-4.9 c0.2-3.6,1.7-10.5,3.3-15.1c0.1-0.1,0.1-0.4,0.2-0.6c0.3-0.6,0.5-1.3,0.3-2.5c-0.1-0.7-0.4-1.6-0.6-2.6c-0.3-1.1-0.6-2.2-0.8-3.3 c0.1-0.1,0.3-0.3,0.4-0.4c0.8-0.9,1.8-2.1,3.4-2.1c1.3,0.1,2.7,1.4,3.8,2.8c-0.4-0.5-0.7-1.1-1-1.9c-0.9-0.9-1.8-1.4-2.8-1.5 c-0.2,0-0.4,0-0.6,0c-1.4,0.2-2.5,1.4-3.2,2.2c-0.1,0.1-0.1,0.1-0.2,0.3c-0.1,0.1-0.2,0.3-0.3,0.3l0,0c0,0.1-0.1,0.1-0.1,0.1l0,0 c0,0.1,0,0.1,0,0.1c0,0.1,0.1,0.3,0.1,0.4c0.2,1.1,0.5,2.2,0.8,3.1c0.3,0.9,0.5,1.9,0.6,2.6c0.2,0.9,0,1.5-0.3,2.1 c-0.1,0.1-0.2,0.4-0.2,0.6c-1.3,4.2-3,11.2-3.3,15.2c-0.1,1.6-0.8,3.5-1.3,4.6c-0.1,0.3-0.3,0.6-0.4,0.8c-0.6,1.7-0.3,2.8,1,4.2 c0.2,0.1,0.5,0.3,0.7,0.2c0.3,0,0.7-0.2,1-0.3c0.6-0.3,1.1-0.9,1.2-1.4c0.3,0.3,0.7,0.4,1.1,0.2c0.6-0.2,1.1-0.6,1.3-1.3 c0.2,0.3,0.5,0.2,0.8,0.2c0.6-0.2,1.1-0.7,1.5-1.6c0.2,0.1,0.4,0.1,0.6,0c0.6-0.2,1-0.9,1.3-1.6c0.5,0.2,0.9,0.2,1.2-0.2 c0.6-0.6,0.9-1.7,0.9-3.2c0-0.5,0.2-1.4,0.5-1.9c0.3-0.7,0.4-2.1,0.4-3.2c0-1.1,0.5-3.2,1-4.7c0.7-1.5,1.8-4.4,1.3-7.1 c-0.2-1.1-0.5-1.6-0.8-2.3c-0.3-0.5-0.6-1.2-0.9-2.3C975.1,789.4,975,789,974.9,788.7z"/>
    <path d="M925.1,804.2c0.9,1,2.2,1.7,3.6,1.5c2,0,3.9-1.2,5.5-3.3c-1.3-0.8-3.4-2.2-4.5-3.3 C928.1,801.1,926.5,803.3,925.1,804.2z" fill="#FFE1CF"/>
    <path d="M934.8,802.2c-0.1-0.1-0.2-0.1-0.3-0.1c-1.3-0.8-3.7-2.3-4.8-3.6h-0.1c0-0.1-0.1-0.1-0.1-0.1l0,0c0,0.1-0.1,0.1-0.1,0.1 c-0.1,0.1-0.1,0.1-0.2,0.3c-1.5,2.1-3.2,4.4-4.7,5.1c-0.1,0.1-0.2,0.1-0.3,0.1c0.1,0.1,0.1,0.2,0.2,0.3c0.9,1.2,2.4,2.1,4,2.1h0.1 c2.2,0,4.2-1.4,5.9-3.7c0,0,0,0,0.1-0.1C934.6,802.3,934.7,802.3,934.8,802.2z M928.6,805.7c-1.4,0-2.7-0.6-3.6-1.5 c1.4-0.8,3.1-3,4.5-5.1c1.1,1.1,3.2,2.5,4.5,3.3C932.5,804.5,930.6,805.7,928.6,805.7z"/>
    <path d="M965.7,510.2c0.2,0,0.2,0.1,0.4,0.1c-0.2,2.1-0.4,3.6,0.6,5.3l0,0c0.6,1.2,1.6,1.7,2.7,1.5 c1.1-0.2,2.2-1.2,2.7-2.6c1-2.9-0.5-7.1-2.4-8.8c-0.5,0.7-1,1-1.5,1c-0.1,0-0.2,0-0.3,0c-1.3-0.2-2.7-2.3-4.2-6.2 c-0.7-1.9-1.4-2.3-2.2-2.6c-0.8-0.4-1.4-0.6-1.9-2.4c-1-3.8-4.8-2.7-5.8-2.3c-0.9,2.2-0.1,6,0.8,7c0.7,0.7,1.1,1.6,1.2,2.4 c0,0.4,0,0.8-0.2,1.1c-0.4,0.6-0.5,1.9-0.2,3.2c0,0.1,0,0.2,0,0.3l0,0c0.2,1.1,1.2,2.8,2.7,3.2c0,0.2-0.1,0.3-0.1,0.6 c-1.6-0.4-2.8-2.2-3-3.6c-0.7,0.4-1,1.4-1,2.4c0,1.1,0.3,2.2,0.7,2.3c1.2,0.5,1.9,1.4,2.4,2.9c0.2,0.5,0.7,0.9,1.3,1 c0.8,0.1,1.8-0.2,2.4-1.1c-0.6-1.3-0.8-3.7-0.5-5.5c-0.7-1.3-0.6-3.7-0.1-5.2c-1.1-0.8-1.6-2-1.9-2.7c-1.3-0.8-2.1-3.2-2-5.1 c0.2,0,0.2,0,0.4,0c-0.1,1.6,0.7,4,1.9,4.6h0.1c0,0.1,0,0.1,0,0.1c0.2,0.5,0.8,1.8,1.7,2.4l0,0c0.2,0.1,0.2,0.2,0.4,0.3l0,0 c0.6,0.4,1.3,0.5,2.2,0.3c0,0.2,0,0.3,0,0.5c-0.2,0-0.4,0-0.6,0c-0.7,0-1.3-0.2-1.8-0.5c-0.4,1.5-0.5,3.7,0.1,4.8 c0,0.1,0.1,0.1,0.1,0.1c0,0.1,0,0.1,0,0.1c-0.4,1.8-0.1,4.3,0.5,5.2c1.4,2.1,3.7,1.8,5,0.9C965.3,513.9,965.5,512.2,965.7,510.2z" fill="#870F00"/>
    <path d="M959.9,495.4c0.4,1.5,1,1.7,1.7,2.1c0.8,0.4,1.6,0.8,2.5,2.9c1.3,3.6,2.8,5.8,3.9,6c0.6,0.1,1.1-0.2,1.6-1 c0.7-1.1,0.8-2.2,0.6-3.3c-0.5-1.6-2.1-2.8-3-2.9c-1.8-0.3-2-1.7-1.8-3.9c0.2-2.2-0.9-4.9-2-5.9c0-0.1-0.1-0.1-0.1-0.1l0,0 c-1.7-1.8-3.6-3.5-6.1-3.9c0-0.2,0.1-0.3,0.1-0.6c2.5,0.3,4.4,2,6,3.7c0.1-1.9-0.3-3.4-1.1-4.5c-1.1-1.3-3.1-1.5-5.4-0.6 c-2.2,0.9-4.4,0.7-5.3,0.3c-1.8-0.5-3.3-0.3-4.3,0.8c-0.9,0.8-1.6,2.4-1.9,4.4c0.3-0.3,0.6-0.4,0.9-0.4l0,0c0.2,0,0.5,0.1,0.7,0.3 c0-0.1,0-0.3,0-0.5c0.2-1,0.9-1.8,1.8-2.2c1.8-0.7,4.2,0.3,6.1,3c0.8,1.1,2.8,1,3.4,0.7c0,0.2,0.1,0.3,0.1,0.5 c-0.2,0.1-0.6,0.2-1.1,0.2c-1,0-2.1-0.2-2.7-1c-1.8-2.5-4-3.6-5.7-2.9c-0.8,0.3-1.4,1-1.6,1.8c-0.1,0.4,0,0.8,0.3,1.1l0,0 c0.1,0.1,0.1,0.1,0.2,0.3c0.7,1.5,4.4,3.6,5.9,2.9c0.2-0.1,0.3-0.2,0.5-0.3c0,0.1-0.1,0.1-0.1,0.1 C956.4,491.8,959,492.2,959.9,495.4z" fill="#870F00"/>
    <path d="M965.6,495.2c0.2-2.3-0.9-5.2-2-6.3c0.2-2.3-0.3-4.1-1.2-5.3c-1.2-1.5-3.3-1.8-5.7-0.7c-1.9,0.8-4.1,0.7-5.1,0.3 c-1.9-0.6-3.5-0.3-4.6,0.8c-1.1,1.1-1.9,2.9-2.1,5.5c0,0,0,0,0,0.1c0.2,0.1,0.2,0.1,0.4,0.1c0.1-0.3,0.3-0.4,0.4-0.6 c0.2-0.1,0.4-0.3,0.6-0.3l0,0c0.4,0,0.9,0.4,1.2,1.1c0.8,1.5,4.1,3.6,5.9,3.1c-0.7,2.5,0.1,6.3,1.1,7.2c0.6,0.7,1,1.3,1,2 c0,0.3,0,0.4-0.1,0.7c-0.5,0.8-0.5,2.3-0.4,3.4c-0.9,0.4-1.3,1.8-1.3,2.9c0,1.2,0.2,2.6,1,2.8c1.1,0.4,1.7,1.3,2.1,2.7 c0.2,0.5,0.7,0.9,1.2,1.2c0.1,0,0.2,0.1,0.4,0.1l0,0c0.9,0.1,2-0.2,2.7-1.2c1.4,1.9,3.8,1.9,5.4,0.9c0.6,1.1,1.6,1.7,2.6,1.6 c0.1,0,0.2,0,0.3,0c1.3-0.2,2.4-1.4,3-2.9c1.1-3.2-0.4-7.6-2.5-9.5c0.8-1.5,0.7-2.8,0.5-3.6c-0.3-0.9-0.8-1.6-1.3-2.1 c-0.7-0.7-1.4-1-2-1.1C965.8,498.4,965.4,497.6,965.6,495.2z M966.3,515.9c-0.1-0.1-0.1-0.1-0.1-0.3c-1.3,0.9-3.6,1.3-5-0.9l0,0 c-0.1,0.1-0.2,0.2-0.3,0.3c0,0-0.1-0.1-0.1-0.3c-0.6,1-1.6,1.2-2.4,1.1c-0.7-0.1-1.2-0.5-1.3-1c-0.5-1.5-1.2-2.4-2.4-2.9 c-0.4-0.1-0.7-1.2-0.7-2.3c0-1,0.3-2.1,1-2.4c0-0.1,0-0.3-0.1-0.3c0.2,0,0.2,0,0.4,0c0,0.1,0,0.1,0,0.3l0,0c0-0.1,0-0.2,0-0.3 c-0.2-1.2-0.1-2.6,0.2-3.2c0.2-0.3,0.2-0.7,0.2-1.1c-0.1-0.8-0.5-1.6-1.2-2.4c-1-0.9-1.6-4.9-0.8-7h-0.1c0-0.2-0.1-0.3-0.1-0.5 c0.1,0,0.3-0.1,0.4-0.1c0-0.1,0.1-0.1,0.1-0.1c-0.2,0.1-0.3,0.2-0.5,0.3c-1.5,0.7-5.2-1.4-5.9-2.9c-0.1-0.1-0.1-0.3-0.2-0.3 c-0.1,0.2-0.2,0.3-0.3,0.4c-0.3-0.3-0.4-0.7-0.4-1.1c-0.2-0.1-0.5-0.3-0.7-0.3l0,0c-0.3,0-0.6,0.1-0.9,0.4c0.3-2.1,1-3.6,1.9-4.4 c1.1-1,2.5-1.3,4.3-0.8c0.9,0.3,3.1,0.6,5.3-0.3c2.3-0.9,4.3-0.7,5.5,0.6c0.9,0.9,1.1,2.6,1.1,4.5c0.1,0.1,0.2,0.3,0.3,0.3 c-0.1,0.2-0.1,0.3-0.2,0.4c0,0-0.1,0-0.1-0.1l0,0c0,0.1,0.1,0.1,0.1,0.1c1.1,1.2,2.2,3.7,2,5.9c-0.2,2.2,0,3.6,1.8,3.9 c0.9,0.1,2.6,1.2,3,2.9c0.3,0.9,0.1,2.1-0.6,3.3l0,0c0.1,0.2,0.2,0.2,0.3,0.4c0,0.1-0.1,0.1-0.1,0.1c1.9,1.7,3.4,5.8,2.4,8.8 c-0.5,1.4-1.5,2.4-2.7,2.6c-1.1,0.2-2.1-0.4-2.7-1.5l0,0l0,0C966.5,515.8,966.4,515.8,966.3,515.9z"/>
    <path d="M951.6,517.7c0-0.2,0-0.3,0-0.5c-1.1-0.1-1.8,0.6-2.7,1.2c-0.8,0.6-1.7,1.3-3,1.6c0,0.2,0.1,0.3,0.1,0.5c0.1,0,0.1,0,0.2,0 c1.3-0.3,2.1-1,2.9-1.6C949.9,518.1,950.7,517.6,951.6,517.7z"/>
    <path d="M942.3,510.9c0.1,0,0.1,0,0.2,0c0-0.2,0-0.3,0-0.5c-0.1,0-0.1,0-0.2,0c-0.5-0.1-1-0.1-1.5-0.5c-0.3-0.1-0.5-0.4-0.6-0.5 l0,0c-0.1,0.2-0.2,0.2-0.3,0.4c0.1,0.1,0.2,0.1,0.3,0.3c0.1,0.1,0.3,0.3,0.5,0.4C941.2,510.8,941.8,510.9,942.3,510.9z"/>
    <path d="M942.2,506.2c-0.4-0.5-0.7-0.8-1.1-0.9c-0.1,0-0.1-0.1-0.2-0.1c0,0.2-0.1,0.3-0.1,0.5c0.1,0,0.1,0,0.2,0.1 c0.3,0.1,0.6,0.4,0.9,0.8C942,506.5,942.1,506.4,942.2,506.2z"/>
    <path d="M947.2,488.5c0.1-0.7,0.8-1.4,1.6-1.8c1.7-0.7,3.9,0.3,5.7,2.9c0.6,0.8,1.8,1,2.7,1c0.5,0,0.9-0.2,1.1-0.2 c0-0.2-0.1-0.3-0.1-0.5c-0.7,0.3-2.7,0.4-3.4-0.7c-1.9-2.7-4.2-3.7-6.1-3c-1,0.4-1.7,1.3-1.8,2.2c0,0.1,0,0.4,0,0.5 c0,0.4,0.2,0.8,0.4,1.1c0.1-0.2,0.2-0.3,0.3-0.4l0,0C947.2,489.2,947.1,488.9,947.2,488.5z"/>
    <path d="M959.5,495.5c0.5,1.8,1.1,2,1.9,2.4c0.8,0.4,1.5,0.8,2.2,2.6c1.4,3.9,2.9,6,4.2,6.2c0.1,0,0.2,0,0.3,0c0.6,0,1-0.3,1.5-1 c0-0.1,0.1-0.1,0.1-0.1c-0.1-0.2-0.2-0.2-0.3-0.4l0,0c-0.6,0.7-1,1.2-1.6,1c-1.2-0.2-2.6-2.3-3.9-6c-0.8-2-1.6-2.5-2.5-2.9 c-0.8-0.4-1.2-0.6-1.7-2.1c-0.9-3.1-3.5-3.4-5.9-2.8c-0.1,0-0.3,0-0.4,0.1c0,0.2,0.1,0.3,0.1,0.5h0.1 C954.7,492.8,958.5,491.7,959.5,495.5z"/>
    <path d="M960.7,509.4c0-0.1,0-0.1,0-0.1c0-0.1-0.1-0.1-0.1-0.1c-0.7-1.1-0.5-3.3-0.1-4.8c-0.1-0.1-0.2-0.1-0.4-0.3 c-0.4,1.7-0.6,4,0.1,5.2c-0.4,1.7-0.1,4.1,0.5,5.5c0,0.1,0.1,0.1,0.1,0.3c0.1-0.1,0.2-0.2,0.3-0.3l0,0 C960.6,513.7,960.3,511.2,960.7,509.4z"/>
    <path d="M960.7,503.8c-0.2-0.1-0.2-0.2-0.4-0.3l0,0C960.5,503.8,960.6,503.8,960.7,503.8C960.7,504,960.7,503.8,960.7,503.8z"/>
    <path d="M957.9,510.8c0-0.2,0.1-0.3,0.1-0.6c-1.5-0.4-2.5-2.1-2.7-3.2c0-0.1,0-0.1,0-0.3c-0.2,0-0.2,0-0.4,0c0,0.1,0,0.3,0.1,0.3 C955.1,508.7,956.3,510.6,957.9,510.8z"/>
    <path d="M966.7,515.6L966.7,515.6c-0.9-1.7-0.8-3.3-0.6-5.3c-0.2,0-0.2-0.1-0.4-0.1c-0.2,2.1-0.4,3.7,0.5,5.5 c0.1,0.1,0.1,0.1,0.1,0.3C966.4,515.8,966.5,515.7,966.7,515.6z"/>
    <path d="M962.3,504.8c0.2,0,0.4,0,0.6,0c0-0.2,0-0.3,0-0.5c-0.9,0.2-1.5-0.1-2.2-0.3c-0.1-0.1-0.2-0.1-0.4-0.3 c-1-0.8-1.5-1.9-1.7-2.4c0-0.1,0-0.1,0-0.1h-0.1c-1.2-0.6-1.9-2.9-1.9-4.6c-0.2,0-0.2,0-0.4,0c-0.1,1.8,0.7,4.2,2,5.1 c0.2,0.7,0.9,1.9,1.9,2.7c0.1,0.1,0.2,0.1,0.4,0.3C961,504.8,961.6,504.9,962.3,504.8z"/>
    <path d="M957.1,485.3c2.5,0.3,4.4,2,6.1,3.9c0,0,0.1,0,0.1,0.1c0.1-0.2,0.1-0.3,0.2-0.4c-0.1-0.1-0.2-0.3-0.3-0.3 c-1.7-1.7-3.6-3.4-6-3.7C957.2,485.1,957.2,485.2,957.1,485.3z"/>
    <path d="M944,566.9c0-0.3-0.1-0.5-0.1-0.8c-1-7.7,0-14.2,2.7-19.6l0,0c-0.1-0.1-0.2-0.2-0.3-0.3c0,0,0,0.1-0.1,0.1 c-2.8,5.5-3.8,12.1-2.7,19.9c0,0.3,0.1,0.5,0.1,0.8c1.2,8.9,2.8,21.1-1.8,26.7l0,0c0.1,0.2,0.2,0.2,0.3,0.4 c0.2-0.1,0.3-0.4,0.4-0.7C946.6,587.4,945,575.5,944,566.9z"/>
    <path d="M954.2,612.2c-0.5,0.6-1.1,1-1.6,1.3c0.1,0,0.2,0,0.2-0.1c0,0.2,0.1,0.3,0.1,0.5c0.6-0.3,1.2-0.7,1.6-1.3 c0.3-0.3,0.7-0.6,1.1-0.9c0.6-0.8,1.4-1.3,2.4-1.6c0,0.2,0.1,0.3,0.1,0.5c0.8-0.2,1.4-0.3,2.2-0.4c0-0.2,0-0.2,0-0.4 c0.1,0,0.3,0,0.4,0c0.7,0,1.1,0.1,1.7,0.5c0.8,0.1,1.5,0.2,2.2,0.3h0.1c0-0.2,0.1-0.3,0.1-0.6l0,0 C961.2,609.3,956.7,609.6,954.2,612.2z"/>
    <path d="M945.3,614c0.3-0.1,0.6-0.1,0.9-0.2c-0.4-0.1-0.7-0.4-1.1-0.5c-0.1,0-0.2-0.1-0.3-0.1c-0.1,0.2-0.1,0.2-0.2,0.4l0,0 C944.9,613.9,945.1,613.9,945.3,614z"/>
    <path d="M951.5,614.6c0.4-0.1,0.7-0.3,1.1-0.4h-0.1C952,614.3,951.8,614.3,951.5,614.6z"/>
    <path d="M946.4,614c0,0.2-0.1,0.3-0.1,0.6c-0.1,0-0.1,0-0.2,0c1,0.4,2,0.5,2.9,0.5c0.4,0,0.9,0,1.3-0.2c0.3-0.4,0.6-0.6,1-0.8 C949.7,614.6,948,614.5,946.4,614z"/>
    <path d="M955.4,611.8c-1.3,1.7-1.8,4.7-1.8,9.5c0,2.3-0.1,5.1-0.2,7.8c-0.3,6.3-0.6,13.4,0.1,20.5c0.2-0.1,0.2-0.1,0.4-0.1 c-0.7-7.1-0.4-14.2-0.1-20.5c0.1-2.9,0.2-5.6,0.2-8c0-6.9,1.1-9.8,3.9-10.7l0,0c0-0.2-0.1-0.3-0.1-0.5 C956.9,610.4,956.1,611,955.4,611.8z"/>
    <path d="M952.5,613.4c-0.1,0-0.1,0-0.2,0c-0.4,0.1-0.7,0.3-1.1,0.4c-0.3,0.1-0.7,0.4-1,0.8c-0.8,1-1.3,2.8-1.1,6.6 c0.2,0,0.2,0,0.4,0c-0.3-4.9,0.6-6.3,1.8-6.9c0.3-0.1,0.6-0.3,1-0.4h0.1c0.1,0,0.2-0.1,0.3-0.1l0,0c0-0.2-0.1-0.3-0.1-0.5 C952.6,613.4,952.6,613.4,952.5,613.4z"/>
    <path d="M946.4,614L946.4,614c-0.1,0-0.1,0-0.2-0.1c-0.3,0-0.6,0-0.9,0.2c-0.2,0.1-0.3,0.1-0.5,0.4c-1,1.1-1.7,3.9-1.8,7.3 c0.2,0,0.2,0,0.4,0c0.1-3.3,0.7-5.9,1.6-6.9c0.3-0.4,0.7-0.4,1.1-0.4c0.1,0,0.1,0,0.2,0C946.3,614.3,946.4,614.2,946.4,614z"/>
    <path d="M960.1,609.9c0,0.2,0,0.2,0,0.4c0,0.1,0,0.1,0,0.1c0.1,0,0.2,0,0.4,0c0.5,0.1,0.9,0.2,1.2,0.8c1.1,1.5,1.5,5.1,1.5,10.8 c0.2,0,0.2,0,0.4,0c0.1-5.9-0.5-9.6-1.6-11.2c0,0,0,0-0.1-0.1c1.5,0.8,2.8,3.8,3.5,15.2c0.6,8.5,1.7,12.9,3,18.1 c0.5,1.9,1,3.9,1.4,6.2c2.9,15.3,3.2,31,3.5,46.5c0.2,10.7,0.4,19.8,1.4,25.1c0.2-0.1,0.2-0.1,0.4-0.2c-1-5.1-1.2-14.3-1.4-25 c-0.4-15.6-0.6-31.3-3.5-46.7c-0.5-2.3-1-4.3-1.4-6.2c-1.2-5.1-2.3-9.6-3-17.9c-0.8-10.9-1.9-14.3-3.5-15.5 c-0.5-0.4-1.1-0.5-1.7-0.5C960.4,609.9,960.2,609.9,960.1,609.9z"/>
    <path d="M958.9,709.4L958.9,709.4C958.9,709.5,958.9,709.5,958.9,709.4c2.3,9.2,4.7,17.3,6.7,24.3c3,10.3,5.3,18.5,5.9,24.1 c0.2-0.1,0.2-0.1,0.4-0.2c-0.7-5.7-3-13.8-6-24.2c-2-7-4.3-15.1-6.7-24.2c5.6-28.5,7.4-56.3,0.5-84.7c-0.2,0.2-0.2,0.3-0.4,0.4 C966.4,653.3,964.4,681,958.9,709.4z"/>
    <path d="M942.6,676.7c0.2,0.1,0.2,0.1,0.4,0.1c0.4-1.8,0.1-3.2-0.2-4.7c-0.5-2.9-1.3-7.1,0.7-18.2c0.1-0.3,0.1-0.5,0.1-0.8 c0-1.2,0-2.3,0.2-3.4c0.1,0.1,0.2,0.1,0.3,0.1c0.7-5.1,0.7-8.5,0-10.4c-0.2,0.1-0.2,0.2-0.4,0.3c0.8,2.3,0.6,6.8-0.7,14.3 c-2.1,11.3-1.3,15.6-0.7,18.5C942.8,673.8,943,674.9,942.6,676.7z"/>
    <path d="M943.7,653c0.1,2.9,0.6,6.2,1.1,9.4c1,6.4,2.1,13.7,0.6,19.6c0.2,0.1,0.2,0.1,0.4,0.1c1.6-6.1,0.5-13.4-0.5-19.9 c-0.7-4.8-1.4-9.4-0.9-12.7l0,0c-0.1-0.1-0.2-0.1-0.3-0.1C943.8,650.6,943.7,651.7,943.7,653z"/>
    <path d="M955.9,796c1.1-2.6,1-6.7,0.9-10c0-1.1,0-2.2,0-3c0.8-21.3-5.9-40.9-13-60.6c-0.5-1.4-0.9-2.5-1.4-3.5 c-1.7-4.2-2.9-7.2-2.6-12.4c0.2-3.8-0.1-8.2-0.4-12.5c-0.2-3.4-0.4-6.7-0.4-9.6c-0.2,0-0.2,0-0.4,0c0,3,0.2,6.2,0.4,9.7 c0.3,4.2,0.6,8.6,0.4,12.5c-0.2,5.5,1,8.5,2.7,12.7c0.4,1.1,0.9,2.3,1.4,3.5c7,19.7,13.7,39.2,12.9,60.4c0,0.8,0,1.9,0,3 c0.1,3.8,0.2,8.9-1.6,11c-0.1,0.1-0.3,0.3-0.4,0.4c0.1,0.2,0.1,0.2,0.2,0.4l0,0c0.2-0.1,0.4-0.3,0.5-0.6 C955.4,797.1,955.7,796.5,955.9,796z"/>
    <path d="M942.1,799.9c2.9-12.6,4.2-26.7,3-39.7c-0.2,0.1-0.2,0.1-0.4,0.1c1.2,12.8-0.2,26.8-3,39.4c-1.1,3.6-2,4-2.7,3.9 c0,0.1,0,0.1,0,0.1c0,0.2,0,0.2,0,0.4c0.1,0,0.1,0,0.2,0c0.3,0,0.6-0.1,0.9-0.3C940.8,803.3,941.4,802.1,942.1,799.9z"/>
    <path d="M944.8,797.9c0.2,0.1,0.2,0.2,0.4,0.3c2.2-7.7,2.1-17.3,1.7-21.3c-0.2,0.1-0.2,0.1-0.4,0.1 C946.8,780.9,946.9,790.3,944.8,797.9z"/>
    <path d="M951.9,787.5c0.2,0.1,0.2,0.1,0.4,0.1c1.1-6.7,1.1-15.7-0.1-24.7c-0.2,0.1-0.2,0.1-0.4,0.1C953,772,953,780.9,951.9,787.5z "/>
    <path d="M949.4,801.5c0.8-2.1,0.5-6.9,0.2-10.8c-0.1-1.2-0.2-2.2-0.2-3c-0.2,0-0.2,0-0.4,0c0,0.8,0.1,1.8,0.2,3 c0.3,4.2,0.8,10.7-0.8,11.3l0,0c0,0.2,0.1,0.2,0.1,0.4l0,0c0.1,0,0.3-0.1,0.4-0.3C949.1,802.1,949.3,801.8,949.4,801.5z"/>
    <path d="M966.5,764.7c-2.1-8.8-4.3-18-6.7-23.4c-0.1,0.1-0.2,0.2-0.3,0.3c2.4,5.4,4.6,14.5,6.7,23.3c1.9,8,3.7,15.6,5.5,19.6 c0,0.1,0.1,0.1,0.1,0.1c0.4,0.8,0.7,1.5,1,1.9l0,0l0,0c0.1-0.2,0.2-0.3,0.3-0.4l0,0c0-0.1-0.1-0.1-0.1-0.1 C970.8,782.8,968.7,774,966.5,764.7z"/>
    <path d="M963.9,782.4c0.2,0,0.2,0,0.4,0c0-0.2,0-0.2,0-0.4c-0.1-3.3-0.3-7.2-1.5-9.2c-0.1,0.2-0.2,0.3-0.3,0.4 c1.2,1.7,1.3,5.8,1.4,8.8C963.9,782.1,963.9,782.2,963.9,782.4z"/>
    <path d="M908.5,637.1c-0.1-0.1-0.2-0.2-0.3-0.3c-1.6,2.8-1.6,4.9-1.6,6.8c0,0.3,0,0.7,0,1l0,0c0.2,0,0.3,0,0.4,0l0,0 c0-0.3,0-0.7,0-1C907,641.8,907,640,908.5,637.1z"/>
    <path d="M906,635.7c-0.1-0.2-0.2-0.3-0.3-0.4c-1.7,2-1.7,2.8-1.9,9.3c0,0.5,0,0.7,0,1.2l0,0c0.2,0,0.3,0,0.4,0c0-0.5,0-0.7,0-1.2 C904.5,638.1,904.5,637.5,906,635.7z"/>
    <path d="M901.9,642.7c0-3.2-0.1-4.8,1.2-7.4c-0.1-0.1-0.2-0.2-0.3-0.3c-1.4,2.7-1.3,4.5-1.3,7.6c0,1,0,1.9,0,3.2l0,0 c0.1,0,0.1,0,0.2,0s0.1,0,0.2,0C901.9,644.7,901.9,643.7,901.9,642.7z"/>
    <path d="M916.5,489.3c1.5-1.6,5.2-5.3,5.8-5.8l0,0c-0.1-0.2-0.1-0.2-0.2-0.4c0,0-0.1,0-0.1,0.1c-0.8,0.8-4.3,4.2-5.7,5.7 C916.4,489,916.4,489.1,916.5,489.3z"/>
    <path d="M917.4,490.9c0.1,0.2,0.1,0.2,0.2,0.4c0.6-0.7,0.9-1,1.5-1.6c2.4-2.6,4.1-4.2,4.7-4.3l0,0c0-0.2-0.1-0.3-0.1-0.5h-0.1 c-0.7,0.3-2.1,1.8-4.8,4.5C918.2,489.9,917.9,490.3,917.4,490.9z"/>
    <path d="M918.6,493.3c0.1,0.2,0.1,0.2,0.2,0.4c0.8-0.8,1.7-1.8,2.5-2.7c1-1.1,2-2.3,2.6-2.6l0,0c-0.1-0.2-0.1-0.3-0.2-0.5l0,0 c-0.7,0.4-1.6,1.5-2.7,2.7C920.2,491.5,919.4,492.4,918.6,493.3z"/>
    <path d="M912.6,490c0.1,0.2,0.1,0.2,0.2,0.4c0.2-0.3,0.6-0.7,1-1.2s0.8-1.1,1.1-1.4l0,0c-0.1-0.2-0.1-0.2-0.2-0.4l0,0 c-0.3,0.3-0.7,0.8-1.1,1.4C913.2,489.2,912.8,489.8,912.6,490z"/>
    <path d="M965,814c-0.2-0.1-0.2-0.2-0.4-0.3c-0.5,1.7-0.6,3.6-0.3,4.3c0,0,0,0.1,0.1,0.1c0.1-0.2,0.2-0.3,0.3-0.4l0,0 C964.4,817.4,964.4,815.9,965,814z"/>
    <path d="M967.6,812.6c-0.2,0-0.2-0.1-0.4-0.1c0,0.1-0.9,3.5-0.5,4.5c0,0.1,0.1,0.1,0.1,0.1c0.1-0.2,0.2-0.3,0.3-0.4l0,0 C966.9,816.5,967.1,814.5,967.6,812.6z"/>
    <path d="M969.3,815c-0.2-0.7,0-1.6,0.4-2.8c-0.2-0.1-0.2-0.2-0.4-0.3c-0.5,1.3-0.6,2.5-0.4,3.3c0.1,0.3,0.1,0.4,0.2,0.5 s0.1,0.1,0.2,0.3c0.1-0.2,0.1-0.3,0.2-0.6l0,0C969.4,815.4,969.3,815.2,969.3,815z"/>
    <path d="M971.2,813.8c-0.1-0.3-0.1-0.8,0.3-2.6c-0.2,0-0.2-0.1-0.4-0.1c-0.4,1.5-0.5,2.5-0.3,3c0,0.1,0.1,0.1,0.1,0.3 c0.1,0.1,0.1,0.1,0.2,0.1C971.2,814.2,971.2,814,971.2,813.8C971.3,813.9,971.3,813.9,971.2,813.8 C971.2,813.9,971.2,813.8,971.2,813.8z"/>
    <path d="M946.1,498.9c-0.2-1.2-1.3-0.9-2.2-2.8l0,0c-0.2-0.4,0,0.8,0.1,1.2c0.1,0.5,0.3,0.4,0.1,0.5s-0.4,0.7-0.4,1.1 c0.1,0.4,0.1,0.5-0.3,0.7s0.2,1,0.7,0.9c0.5,0,1.4,0,1.7,0.1s1,0.3,0.8-0.2C946.4,500.1,946.3,500.1,946.1,498.9z"/>
    <path d="M944.3,495c0.7,0.3,1.9,1.2,2.3,1.9c0.4,0.7,1.3,1.2,1.7,1.1c0.4,0,1.1,0.2,0.3-1c-1.1-1.6-3-2.4-4.2-2.7 C943.6,494.2,943.9,494.8,944.3,495z"/>
  </g>
  <g opacity="0.3">
    <path d="M259.7,185c127.9,0,223.7,15.9,325.2,32.8C688.7,235,796.1,252.9,941,252.9c44.4,0,90-6.1,135.4-18.1 c30.5-8.1,61.9-19,93.6-32.7v757.2c-36.8,17.4-73.5,30.8-109.2,40c-40.5,10.4-81.1,15.7-120.8,15.7c-140.1,0-243.6-16.8-343.7-33 c-98.9-16.1-201.3-32.7-336.6-32.7c-45.7,0-91.1,5.3-135.1,15.8C93,972.6,61.3,982.9,30,996V241.6c37.1-17.6,73.8-31.2,109.2-40.5 C179.9,190.4,220.4,185,259.7,185 M1200,155c-89.2,45-174.4,67.9-259,67.9c-280.7,0-416.7-67.9-681.3-67.9 C175.2,155,89.1,178,0,222.9c0,242.4,0,577.6,0,820c89-44.9,175.2-63.6,259.7-63.6c268.9,0,398.5,65.7,680.3,65.7 c84.6,0,170.8-22,260-66.9C1200,735.7,1200,397.4,1200,155L1200,155z" fill="#212121"/>
  </g>
</svg>