<svg viewBox="0 0 1200 1200" xmlns="http://www.w3.org/2000/svg" xmlns:xlink="http://www.w3.org/1999/xlink">
  <g>
    <path d="M222.2,692.3c0-2.7-0.2-5.5-0.4-8.3C222,686.8,222.2,689.6,222.2,692.3L222.2,692.3z" fill="none"/>
    <path d="M221.1,678.3c0.3,1.9,0.5,3.8,0.7,5.7C221.6,682.1,221.4,680.2,221.1,678.3z" fill="none"/>
    <path d="M212.9,418.3c0.1-19.2-10.6-55.1-35.6-50.5C202.3,363.3,212.9,399.2,212.9,418.3z" fill="none"/>
    <path d="M130.2,714.9c-0.2-2.9-0.3-5.6-0.4-8.1C129.8,709.5,129.9,712.2,130.2,714.9z" fill="none"/>
    <path d="M220.1,672.5c0.4,1.9,0.7,3.8,1,5.7C220.9,676.4,220.5,674.4,220.1,672.5z" fill="none"/>
    <path d="M179.7,628.3c-0.7-0.1-1.4-0.1-2.1-0.1l0,0c-0.5,0.1-1,0.2-1.5,0.3c0.5-0.1,0.9-0.1,1.4-0.2 C178.2,628.3,179,628.3,179.7,628.3z" fill="none"/>
    <path d="M188.5,632.3c3.6,3.4,6.2,8.5,7.8,13.8C194.8,640.9,192.2,635.7,188.5,632.3z" fill="none"/>
    <path d="M134.7,705c-0.1-17,5.3-43,17.4-60C139.6,662,134.6,687.7,134.7,705z" fill="none"/>
    <path d="M222.2,694.4c-0.4,16.8-6.2,38.4-17.3,53.4C216.4,732.9,221.9,711.6,222.2,694.4z" fill="none"/>
    <path d="M83.4,884.1c-0.2-109.2-0.3-218.5-0.5-327.7C83,665.6,83.2,774.9,83.4,884.1z" fill="none"/>
    <path d="M221.9,527.6c-15.2,14.9-29.9,30.2-44.4,45.8c-14.1-11.1-28.3-21.9-42.9-32.5h-0.1 c14.5,10.5,28.8,21.5,43,32.6c14.5-15.8,29.3-31.1,44.7-45.9C222.1,527.6,222,527.6,221.9,527.6z" fill="none"/>
    <path d="M134.5,595.6v27.3l0,0C134.6,612,134.5,606.5,134.5,595.6z" fill="none"/>
    <path d="M222.1,582.4c-29.6,2.3-58.6,6.5-87.6,13.1v0.1C163.5,589,192.5,584.8,222.1,582.4L222.1,582.4z" fill="none"/>
    <path d="M177.3,367.8c-25,4.5-34.3,39.3-34.5,61.5C143,407.1,152.4,372.3,177.3,367.8z" fill="none"/>
    <path d="M222.1,816L222.1,816c-29.5,2-58.4,5.9-87.3,12.2c14.6,10.8,28.8,21.9,42.9,33.2 c-14.1-11.3-28.3-22.4-42.8-33.2C163.8,821.9,192.6,818,222.1,816z" fill="none"/>
    <path d="M129.9,451.6v1.3c0.3,11.3,3,28,9.4,41.8c-6.3-13.7-9-30.3-9.3-41.7L129.9,451.6c7.3,19.2,19.9,40.5,42.4,40.1 c-22.4,0.4-35.1-20.9-42.2-40.1c-3.2-10.4-4.1-21.2-4.3-31.7c-0.6-27.1,7.9-61.6,29.4-81.4c-21.4,19.9-30,54.3-29.6,81.4 C125.8,430.4,126.7,441.2,129.9,451.6z" fill="none"/>
    <path d="M134.8,814.5L134.8,814.5c0-2.1,0-3.9,0-5.7V814.5z" fill="none"/>
    <path d="M210.8,827.1c-11.3,11.2-22.3,22.7-33.1,34.3C188.6,849.8,199.6,838.3,210.8,827.1z" fill="none"/>
    <path d="M126.2,707.1c-0.1-54.7-0.2-109.4-0.2-164.1c-14.5,4-28.8,8.5-43,13.4c14.2-4.9,28.5-9.4,43-13.4 C126,597.7,126.1,652.4,126.2,707.1z" fill="none"/>
    <path d="M177.4,620.1L177.4,620.1c0.4-0.1,0.7-0.2,1.1-0.2c-0.3,0-0.6,0.1-0.9,0.1c-15.3,2-27.1,16.1-34,28.7 c-8.8,16.1-13.9,35.6-13.9,53.9c0.1-18.3,5.1-37.6,13.9-53.8C150.6,636.3,162.1,622.1,177.4,620.1z" fill="none"/>
    <path d="M211.6,749.1c0.4-0.6,0.7-1.1,1.1-1.7c0.4-0.7,0.8-1.4,1.2-2.1c-0.4,0.7-0.8,1.4-1.2,2 C212.4,747.9,212,748.5,211.6,749.1z" fill="none"/>
    <path d="M172.9,313.7c0-6.9-3.3-8-3.3-18.3c0-10.2,4.3-16.2,4.3-24.7c0-8.4-3.2-21.5,3.1-26.1c0,0,0-0.1,0.1-0.1 c-6.6,4.5-3.3,17.7-3.3,26.2s-4.3,14.4-4.3,24.7S172.8,306.8,172.9,313.7c-0.1,3.8-2,7.2-4.4,7.6c-0.1,0-0.3,0-0.4,0 c0.2,0,0.3,0,0.5,0C170.9,320.9,172.9,317.5,172.9,313.7z" fill="none"/>
    <path d="M226.6,436.9L226.6,436.9c-2,5.7-4.4,11.6-7.2,17.4C222.2,448.5,224.6,442.6,226.6,436.9z" fill="none"/>
    <path d="M267.9,525.9c-12.2,0-24.4,0.4-36.6,1c0.1,110,0.1,219.9,0.1,329.8V526.9C243.5,526.3,255.7,526,267.9,525.9z" fill="none"/>
    <path d="M190.4,311c0-6.8-2.2-6.5-2.2-15.1c0-8.5,5.4-11.1,2.3-19c-0.1-0.1-0.1-0.1-0.2-0.2c3.3,8.2-2.2,10.6-2.2,19.2 C188.1,304.4,190.3,304.1,190.4,311c-0.1,3.8-2.1,7.2-4.5,7.5h-0.1c0.1,0,0.2,0,0.2,0C188.4,318.1,190.4,314.8,190.4,311z" fill="none"/>
    <path d="M191.7,768.5c0.3-0.2,0.7-0.4,1-0.6C192.4,768.1,192,768.3,191.7,768.5L191.7,768.5z" fill="none"/>
    <path d="M177.6,719.5c0.3,0,0.6-0.1,0.8-0.1C178.1,719.4,177.8,719.4,177.6,719.5c-4.9,0.7-8.7,7.4-8.7,15 C168.9,726.9,172.8,720.2,177.6,719.5z" fill="none"/>
    <path d="M177.6,767.5C177.6,767.5,177.7,767.5,177.6,767.5l0.1-2.1h-0.1C177.6,766.2,177.6,766.9,177.6,767.5z" fill="none"/>
    <path d="M177.6,746.9c3.7-0.5,6.8-4.5,8.1-9.7C184.4,742.4,181.3,746.4,177.6,746.9z" fill="none"/>
    <path d="M177.3,354.1c-9.4,1.7-18.6-8.9-19.9-17.5c-1.1-3.8-1.7-8.1-1.7-12.8c0-13.7,5.4-16.5,5.4-21.6 s-3.2-11.3,3-20.9c0-0.1,0.1-0.2,0.1-0.3c-6.5,9.8-3.2,16.1-3.2,21.2s-5.4,7.9-5.4,21.6c0,4.6,0.6,9,1.7,12.8 C158.7,345.2,167.9,355.9,177.3,354.1z" fill="none"/>
    <path d="M198.3,633.9c3.3,6.4,5.2,14.5,5.2,23.5c0,16.8-7.9,39.1-26,43.6c-14.6,3.6-20.2,22.1-20.2,35.5 c0,9,3.1,21.5,11.2,26.6c-7.6-5.2-11.1-17.8-11.1-26.6c0-13.4,5.5-31.9,20.2-35.5c18.1-4.5,26-26.8,26-43.6 C203.6,648.4,201.6,640.3,198.3,633.9c2.5,1.8,4.6,3.8,6.6,6C202.9,637.7,200.8,635.7,198.3,633.9c-0.2-0.6-0.5-1.2-0.9-1.7 C197.1,632.7,198,633.3,198.3,633.9z" fill="none"/>
    <path d="M1023.5,215.6c-66.3,11-134,7.6-200.7,3c0,1.1,0,2.1,0,3.2c0.1,273.1,0.2,546.3,0.4,819.4 c66.4,4.2,133.9,7.4,200-2.9c62.2-9.7,120.5-32.5,176.8-60.2V155C1143.7,182.4,1085.5,205.4,1023.5,215.6z" fill="#C4272F"/>
    <path d="M177.2,162.1C114.9,172.5,56.7,195.9,0,222.9v820c56.7-27.6,115.1-49.7,177.8-58.1 c66.3-8.9,133.9-5.6,200.4-1V159.9C311.4,154.7,243.6,151.1,177.2,162.1z M155.2,338.5c0.7-0.6,1.4-1.3,2.1-1.9 c-1.1-3.8-1.7-8.2-1.7-12.8c0-13.7,5.4-16.5,5.4-21.6s-3.3-11.4,3.2-21.2c0,0.1-0.1,0.2-0.1,0.3c0.1-0.1,0.1-0.2,0.2-0.3 c-3.2,9.1,2.2,9.8,2.2,18.4c0,8.5-2.2,8.9-2.2,15.8c0,3.5,1.6,6.1,3.8,6.1c0.1,0,0.3,0,0.4,0c2.4-0.4,4.3-3.8,4.3-7.6 c0-6.9-3.3-8-3.3-18.3s4.3-16.2,4.3-24.7s-3.3-21.7,3.3-26.2c0,0,0,0.1-0.1,0.1c0.1,0,0.1-0.1,0.2-0.1c-4.4,7.6,1.1,13.5,4.4,21.6 c3.3,8,4.4,11.3,4.4,21.6c0,10.2-4.4,17.7-4.4,24.6c0,3.7,1.9,6.3,4.2,6.2h0.1c2.4-0.3,4.4-3.7,4.4-7.5c0-6.9-2.2-6.6-2.2-15.1 c0-8.6,5.5-11,2.2-19.2c0.1,0.1,0.1,0.1,0.2,0.2c0-0.1,0-0.1-0.1-0.2c6.6,7.6,3.3,15,3.3,20.1s5.6,6.2,5.6,19.9 c0,4.7-0.6,9.2-1.7,13.4c25.6,14.1,33.7,47.6,33.7,73.1c0,10.8-1.3,22.4-4.6,33.3c0,0.1-0.1,0.2-0.1,0.3v0.1c0-0.1,0.1-0.2,0.1-0.3 v1.3c-0.8,30-13.7,73.9-49.3,80.7c-18.9,3.6-30.9-8.3-38.1-23.9c-6.4-13.8-9.1-30.4-9.4-41.8v-1.3c-3.2-10.4-4.1-21.2-4.3-31.7 C125.2,392.8,133.7,358.3,155.2,338.5z M134.5,622.9v-27.4c29-6.6,58-10.8,87.6-13.1V610C192.5,612.3,163.5,616.4,134.5,622.9 L134.5,622.9L134.5,622.9z M177.5,573.5c-14.2-11.1-28.5-22.1-43-32.6h0.1l-0.1-0.1c29-6.7,57.9-11,87.6-13.4 c-0.1,0.1-0.2,0.2-0.2,0.2c0.1,0,0.2,0,0.3,0C206.8,542.4,192,557.7,177.5,573.5z M83.4,884.1c-0.2-109.2-0.4-218.5-0.5-327.7 c14.2-4.9,28.5-9.4,43-13.4c0.1,54.7,0.2,109.4,0.2,164.1c0.1,54.7,0.2,109.4,0.2,164.2C111.9,875.1,97.6,879.4,83.4,884.1z M210.8,827.1c-11.2,11.2-22.3,22.7-33.1,34.3c-14.1-11.3-28.3-22.4-42.9-33.2c28.9-6.3,57.8-10.2,87.3-12.2l0,0h0.1 C218.4,819.7,214.6,823.4,210.8,827.1z M222.2,802.3c-9.2,0.7-18.4,1.5-27.5,2.5c-7.3,0.8-14.6,1.7-21.8,2.8 c-1.8,0.3-3.6,0.5-5.4,0.8c-10.9,1.7-21.7,3.7-32.6,6.1l0,0v-27.4c12.6-2.8,25.3-5.1,38-7c3.6-0.5,7.3-1,10.9-1.5 c3.6-0.5,7.3-0.9,10.9-1.3c5.5-0.6,11-1.1,16.5-1.6c3.7-0.3,7.4-0.6,11.1-0.8L222.2,802.3L222.2,802.3z M227.7,691.9 c0,18.2-4.2,37.6-13.8,53.4c-0.4,0.7-0.8,1.4-1.2,2.1c-0.3,0.6-0.7,1.1-1.1,1.7c-4.7,7.5-11.2,14.2-18.9,18.8 c-0.3,0.2-0.7,0.4-1,0.6c3.9,0.2,6.8,0.5,7.6,1.1c-6,3.2-31.4,7.3-41.9,6.1c-1.9-0.2-3.4-0.4-4.7-0.6c1.8,4.6-0.5,2.7-3.5-0.6 c-3.2-0.6-2.4-0.9-0.9-1c-2.9-3.4-6.1-7.6-6.4-8.1c-7.5-11.9-10.6-34.2-11.8-50.5c-0.2-2.7-0.4-5.4-0.4-8.1c0-0.2,0-0.4,0-0.5 c0-1.2-0.1-2.4,0-3.7c0.1-18.3,5.1-37.8,13.9-53.9c6.9-12.6,18.7-26.7,34-28.7c0.3,0,0.6-0.1,0.9-0.1c5.3-1.1,11.3-4.2,15.2-0.2 c1,1,3.8,1.9,5,4.2c5.9,0.8,12.1,7.2,13.9,14.5l0,0c1.3,1.9,2.6,3.9,3.7,5.9s2.2,4.1,3.2,6.3c1.9,4.3,3.4,8.8,4.6,13.4 c0.3,1.1,0.6,2.3,0.8,3.5C226.9,675.6,227.7,683.9,227.7,691.9L227.7,691.9z M280.1,856c-16.2-0.2-32.4,0-48.7,0.7 c0-109.9,0-219.8-0.1-329.8c12.2-0.6,24.4-0.9,36.6-1c4.1,0,8.1,0,12.2,0.1V856z" fill="#C4272F"/>
    <path d="M822.8,218.5c-149.4-11.5-295.4-45.8-444.6-58.6v412c0,137.3,0,274.6,0,411.8 c149.5,11.7,295.3,46.8,444.9,57.4c-0.1-273.1-0.2-546.2-0.3-819.3C822.8,220.7,822.8,219.7,822.8,218.5 C822.8,218.6,822.8,218.5,822.8,218.5z" fill="#015197"/>
    <path d="M177.4,491.2c-1.8,0.3-3.5,0.4-5.1,0.5c-22.5,0.5-35.1-20.9-42.3-40v1.3c0.3,11.3,3,27.9,9.3,41.7 c7.2,15.6,19.2,27.6,38.1,23.9c35.6-6.8,48.5-50.7,49.3-80.7v-1.3c0,0.1-0.1,0.2-0.1,0.3c-2,5.7-4.4,11.7-7.2,17.4 C210.7,472,197.7,488,177.4,491.2z" fill="#F9CF02"/>
    <path d="M125.8,419.9c0.2,10.5,1.1,21.3,4.3,31.7c7.1,19.2,19.8,40.5,42.2,40.1c1.7,0,3.4-0.2,5.1-0.5 c20.2-3.2,33.3-19.2,42-36.9c2.8-5.8,5.2-11.8,7.2-17.5c0-0.1,0.1-0.2,0.1-0.3c3.3-10.9,4.6-22.5,4.6-33.3c0-25.5-8.1-59-33.7-73.1 c-2.5,10.4-9.4,21.9-20.3,24c-9.4,1.8-18.6-8.9-20-17.5c-0.7,0.6-1.4,1.2-2.1,1.9C133.7,358.3,125.2,392.8,125.8,419.9z M177.3,367.8c25-4.6,35.7,31.3,35.6,50.5c0,22-10.4,55-35.5,59.2c-25.1,4.1-34.7-29.1-34.6-48.2 C143,407.1,152.3,372.3,177.3,367.8z" fill="#C4272F"/>
    <path d="M142.8,429.3c-0.1,19.1,9.5,52.3,34.6,48.2c25.1-4.2,35.5-37.2,35.5-59.2c0-19.1-10.6-55-35.6-50.5 C152.4,372.3,143,407.1,142.8,429.3z" fill="#F9CF02"/>
    <path d="M161.1,302.2c0,5.1-5.4,7.9-5.4,21.6c0,4.7,0.6,9,1.7,12.8c1.3,8.6,10.5,19.2,19.9,17.5 c10.9-2.1,17.8-13.6,20.3-24c1.1-4.2,1.7-8.7,1.7-13.4c0-13.7-5.6-14.8-5.6-19.9s3.3-12.5-3.3-20.1c0,0.1,0,0.1,0.1,0.2 c3.1,7.9-2.3,10.5-2.3,19c0,8.6,2.2,8.3,2.2,15.1c0,3.8-2,7.1-4.4,7.5c-0.1,0-0.2,0-0.2,0c-2.3,0.1-4.2-2.5-4.2-6.2 c0-6.9,4.4-14.4,4.4-24.6c0-10.3-1.1-13.6-4.4-21.6c-3.3-8.1-8.8-14-4.4-21.6c-0.1,0-0.1,0.1-0.2,0.1c-6.4,4.6-3.1,17.6-3.1,26.1 s-4.3,14.5-4.3,24.7c0,10.3,3.3,11.4,3.3,18.3c0,3.8-2,7.2-4.3,7.6c-0.2,0-0.3,0-0.5,0c-2.2,0-3.8-2.6-3.8-6.1 c0-6.9,2.2-7.3,2.2-15.8c0-8.6-5.4-9.3-2.2-18.4c-0.1,0.1-0.1,0.2-0.2,0.3C157.9,290.9,161.1,297.1,161.1,302.2z" fill="#F9CF02"/>
    <path d="M231.4,526.9v329.8c16.3-0.7,32.5-0.9,48.7-0.7V526c-4.1-0.1-8.1-0.1-12.2-0.1 C255.7,526,243.5,526.3,231.4,526.9z" fill="#F9CF02"/>
    <path d="M194.6,777.2c-3.7,0.4-7.3,0.8-10.9,1.3c-3.6,0.5-7.3,1-10.9,1.5c-12.7,1.9-25.3,4.2-38,7v21.7 c0,1.7,0,3.6,0,5.7c10.9-2.4,21.7-4.4,32.6-6.1c1.8-0.3,3.6-0.6,5.4-0.8c7.3-1.1,14.5-2,21.8-2.8c9.1-1,18.3-1.8,27.5-2.5v-27.5 c-3.7,0.2-7.4,0.5-11.1,0.8C205.6,776.1,200.1,776.6,194.6,777.2z" fill="#F9CF02"/>
    <path d="M134.9,828.2c14.5,10.8,28.7,21.9,42.8,33.2c10.9-11.6,21.9-23.1,33.1-34.3c3.8-3.7,7.5-7.4,11.4-11.1h-0.1 C192.6,818,163.8,821.9,134.9,828.2z" fill="#F9CF02"/>
    <path d="M125.9,543c-14.5,4-28.8,8.5-43,13.4c0.2,109.2,0.3,218.5,0.5,327.7c14.2-4.7,28.5-9,43-12.8 c-0.1-54.8-0.2-109.5-0.2-164.2C126.1,652.4,126,597.7,125.9,543z" fill="#F9CF02"/>
    <path d="M222.1,610v-27.5c-29.6,2.3-58.6,6.5-87.6,13.1c0,10.9,0.1,16.4,0,27.3v0.1 C163.5,616.4,192.5,612.3,222.1,610z" fill="#F9CF02"/>
    <path d="M221.9,527.6c0.1-0.1,0.2-0.2,0.2-0.2c-29.7,2.4-58.6,6.7-87.6,13.4l0.1,0.1c14.6,10.6,28.8,21.4,42.9,32.5 C191.9,557.8,206.7,542.6,221.9,527.6z" fill="#F9CF02"/>
    <path d="M198.4,633.9c3.2,6.4,5.2,14.5,5.2,23.5c0,16.8-7.9,39.1-26,43.6c-14.7,3.6-20.2,22.1-20.2,35.5 c0,8.8,3.5,21.4,11.1,26.6c2.5,1.6,5.5,2.5,9.1,2.3l0,0h0.1l0,0c11.4-2,20.4-8.7,27.2-17.6c11.1-15,16.9-36.6,17.3-53.4 c0-0.7,0-1.4,0-2.1c0-2.7-0.2-5.5-0.4-8.3c-0.2-1.9-0.4-3.8-0.7-5.7s-0.6-3.8-1-5.7s-0.8-3.8-1.3-5.7c-1-3.8-2.3-7.5-3.9-11 c-1.2-2.7-2.5-5.3-4-7.7c-0.3-0.4-0.5-0.9-0.8-1.3c-0.9-1.4-1.8-2.7-2.8-4c-0.2-0.2-0.3-0.4-0.5-0.7c-0.6-0.8-1.2-1.5-1.9-2.2 C202.9,637.7,200.8,635.7,198.4,633.9z M185.7,737.2c-1.2,5.2-4.4,9.2-8.1,9.7c-4.8,0.7-8.7-4.8-8.7-12.4c0-7.6,3.8-14.3,8.6-15 c0.3,0,0.6-0.1,0.9-0.1c4.4,0,7.9,5.5,7.9,12.6C186.3,733.8,186.1,735.6,185.7,737.2z" fill="#F9CF02"/>
    <path d="M152.1,737.4c-0.2-15.8,7.6-40.8,25.4-44.7c13.9-3.1,20.5-22,20.6-34.8c0-3.5-0.6-7.7-1.8-11.8 c-1.6-5.2-4.2-10.4-7.8-13.8c-2.4-2.2-5.4-3.7-8.8-4c-0.7,0-1.4,0-2.2,0.1c-0.5,0-1,0.1-1.4,0.2c-9.9,2.1-17.8,8.2-23.9,16.5 c-12.1,16.9-17.6,43-17.4,60c0.1,19.4,5.4,43.4,22.4,55.4l0,0C154,754.3,152.2,746.3,152.1,737.4z M177.6,646.8 c4.8-0.7,8.7,4.9,8.7,12.5s-3.9,14.2-8.7,14.9s-8.7-4.8-8.7-12.4C168.9,654.3,172.7,647.5,177.6,646.8z" fill="#F9CF02"/>
    <path d="M224.2,664c-1.2-4.6-2.7-9.1-4.6-13.4c-1-2.1-2-4.2-3.2-6.3s-2.4-4-3.7-5.9l0,0 c-1.8-7.4-8.1-13.7-13.9-14.5c0.9,1.7,0.9,4.3-1.4,8.2c0.4,0.6,0.7,1.1,1,1.7c2.4,1.8,4.5,3.8,6.5,6c0.7,0.7,1.3,1.5,1.9,2.2 c0.2,0.2,0.3,0.4,0.5,0.7c1,1.3,1.9,2.6,2.8,4c0.3,0.4,0.5,0.9,0.8,1.3c1.5,2.5,2.8,5,4,7.7c1.6,3.6,2.8,7.3,3.9,11 c0.5,1.9,1,3.8,1.3,5.7c0.4,1.9,0.7,3.8,1,5.7s0.5,3.8,0.7,5.7c0.2,2.8,0.4,5.6,0.4,8.3l0,0c0,0.7,0,1.4,0,2.1 c-0.3,17.1-5.8,38.5-17.3,53.4c-6.9,8.9-15.9,15.5-27.2,17.6v2.1c5,0.5,10,0.7,13.9,0.9c0.4-0.2,0.7-0.4,1.1-0.6 c7.7-4.6,14.2-11.3,18.9-18.8c0.4-0.6,0.7-1.2,1.1-1.8c0.4-0.7,0.8-1.3,1.2-2c9.5-15.8,13.8-35.2,13.8-53.4l0,0 c0-8-0.8-16.3-2.6-24.4C224.8,666.3,224.5,665.2,224.2,664z" fill="#C4272F"/>
    <path d="M177.4,628.3c0.1,0,0.1,0,0.2,0c0.7,0,1.4,0,2.1,0.1c3.5,0.3,6.4,1.8,8.8,4c3.7,3.4,6.3,8.5,7.8,13.8 c1.2,4.1,1.8,8.3,1.8,11.8c-0.1,12.8-6.7,31.7-20.6,34.8c-17.8,3.9-25.6,28.9-25.4,44.7c0.1,8.9,1.9,16.9,5,23l0,0 c3.5,4.4,12,6.2,20.5,7.1c0-0.6,0-1.3,0-2.1l0,0c-3.6,0.2-6.6-0.7-9.1-2.3c-8.1-5.1-11.2-17.6-11.2-26.6c0-13.4,5.6-31.9,20.2-35.5 c18.1-4.5,26-26.8,26-43.6c0-9-1.9-17.1-5.2-23.5c-0.3-0.6-1.2-1.2-0.9-1.7c2.3-4,2.3-6.5,1.4-8.2c-1.2-2.3-4-3.2-5-4.2 c-4-4-9.9-0.9-15.2,0.2c-0.4,0.1-0.7,0.1-1.1,0.2v8H177.4L177.4,628.3z" fill="#C4272F"/>
    <path d="M177.6,674.2c4.8-0.7,8.7-7.3,8.7-14.9c0-7.6-3.9-13.2-8.7-12.5c-4.9,0.7-8.7,7.5-8.7,15 C168.9,669.4,172.8,674.9,177.6,674.2z" fill="#C4272F"/>
    <path d="M178.4,719.4c-0.3,0-0.5,0-0.8,0.1c-4.8,0.7-8.7,7.4-8.7,15s3.9,13.1,8.7,12.4c3.7-0.5,6.8-4.5,8.1-9.7 c0.4-1.6,0.6-3.4,0.6-5.2C186.3,724.9,182.8,719.5,178.4,719.4z" fill="#C4272F"/>
    <path d="M177.7,767.5C177.7,767.5,177.6,767.5,177.7,767.5c-8.6-0.9-17.1-2.7-20.6-7.1c-17-12-22.3-36.1-22.4-55.4 c-0.1-17.3,4.9-43,17.4-60c6.1-8.2,14-14.4,23.9-16.5c0.5-0.1,1-0.2,1.5-0.3l0,0c-0.1,0-0.1,0-0.2,0V620 c-15.3,2-26.8,16.1-33.8,28.7c-8.8,16.2-13.8,35.6-13.9,53.8c0,1.2,0,2.5,0,3.7c0,0.2,0,0.4,0,0.5c0.1,2.4,0.2,5.2,0.4,8.1 c1.1,16.3,4.2,38.6,11.8,50.5c0.3,0.4,3.4,4.6,6.4,8.1c-1.5,0.1-2.2,0.4,0.9,1c2.9,3.3,5.2,5.1,3.5,0.6c1.3,0.2,2.8,0.4,4.7,0.6 c10.5,1.2,35.9-2.9,41.9-6.1c-0.8-0.6-3.7-0.9-7.6-1.1l0,0C187.7,768.3,182.7,768.1,177.7,767.5z" fill="#C4272F"/>
  </g>
  <g opacity="0.3">
    <path d="M259.7,185c127.9,0,223.7,15.9,325.2,32.8C688.7,235,796.1,252.9,941,252.9c44.4,0,90-6.1,135.4-18.1 c30.5-8.1,61.9-19,93.6-32.7v757.2c-36.8,17.4-73.5,30.8-109.2,40c-40.5,10.4-81.1,15.7-120.8,15.7c-140.1,0-243.6-16.8-343.7-33 c-98.9-16.1-201.3-32.7-336.6-32.7c-45.7,0-91.1,5.3-135.1,15.8C93,972.6,61.3,982.9,30,996V241.6c37.1-17.6,73.8-31.2,109.2-40.5 C179.9,190.4,220.4,185,259.7,185 M1200,155c-89.2,45-174.4,67.9-259,67.9c-280.7,0-416.7-67.9-681.3-67.9 C175.2,155,89.1,178,0,222.9c0,242.4,0,577.6,0,820c89-44.9,175.2-63.6,259.7-63.6c268.9,0,398.5,65.7,680.3,65.7 c84.6,0,170.8-22,260-66.9C1200,735.7,1200,397.4,1200,155L1200,155z" fill="#212121"/>
  </g>
</svg>