<svg viewBox="0 0 1200 1200" xmlns="http://www.w3.org/2000/svg" xmlns:xlink="http://www.w3.org/1999/xlink">
  <g>
    <path d="M0,222.9c0,273.3,0,546.6,0,820c95.7-49.1,191.9-66.2,298.8-63.3c101,2.7,201.8,16,301.2,33.3 c99.4,17.3,200.3,29.2,301.2,31.7c45.9,1.1,92,0,137.1-8.7c56.7-10.9,109.7-33.5,161.7-57.8c0-274.4,0-548.7,0-823.1 c-95.2,49.5-191.8,70.2-298.8,67.4c-100.9-2.6-201.8-15.3-301.2-32.5c-99.5-17.3-200.2-31.6-301.3-34.5 C191.3,152.4,95.9,174.3,0,222.9z M722,779.8c-42-32.7-83-66.4-122-102.7c-40.3,22.9-81.4,44.3-122.5,66 c16.3-43.4,32.5-86.8,48.4-130.3c-42.2-34.5-85.4-67.7-129.1-100.4c52.9,5.1,105.6,11.9,158.1,20.2c15.3-43,30.3-86.1,44.9-129.3 c14.3,48.3,29.1,96.3,44.4,144.3c52.5,8,105.2,14.4,158.1,19.1c-42.6,23.9-85.8,46.7-128.9,69.8C689.4,684.3,705.6,732.1,722,779.8 z" fill="#4189DD"/>
    <path d="M600,403.3c-14.6,43.2-29.6,86.3-44.9,129.3c10,1.6,14.9,2.4,24.5,4C586.5,492.2,593.3,447.8,600,403.3z" fill="#FFFFFF"/>
    <path d="M590.4,538.5c7.7,1.3,11.4,2,19,3.3c11.6,2,23.3,3.9,35,5.7c-15.3-47.9-30.1-96-44.4-144.3 c-6.7,44.5-13.5,88.9-20.4,133.4C584,537.4,586.2,537.8,590.4,538.5z" fill="#FFFFFF"/>
    <path d="M609.4,541.9c0,9.9,0,19.8,0,29.6c0.5,0,0.8,0,1.3,0c1.3-1.6,1.9-2.4,3.2-4c0.8,1.6,1.1,2.4,1.9,4 c62.3,0,124.6-1.1,186.8-4.8c-53-4.7-105.7-11.1-158.3-19.1C632.7,545.8,621,543.9,609.4,541.9z" fill="#FFFFFF"/>
    <path d="M615.9,571.5c1.2,2.6,1.8,3.8,3,6.4c4.3,1.4,6.4,2.1,10.7,3.6c-1.9,2.3-2.8,3.5-4.7,5.8 c10.3-1.6,20.5-3.3,30.8-4.9c5.9,18,11.8,36,17.8,54c43.2-23,86.5-45.8,129.2-69.7C740.4,570.4,678.2,571.6,615.9,571.5z" fill="#FFFFFF"/>
    <path d="M609.4,571.5c0,0.7,0,1,0,1.6c0.5-0.7,0.8-1,1.3-1.7C610.2,571.5,609.9,571.5,609.4,571.5z" fill="#FFFFFF"/>
    <path d="M396.9,512.4c43.6,32.6,86.9,65.8,129.1,100.2c3.2-8.6,4.8-12.9,7.9-21.5 C489,563.6,443.2,537.6,396.9,512.4z" fill="#FFFFFF"/>
    <path d="M624.9,587.3c1.9-2.3,2.8-3.5,4.7-5.8c-4.3-1.4-6.5-2.1-10.7-3.6c1.8,3.8,2.7,5.7,4.5,9.5 C624,587.4,624.3,587.4,624.9,587.3z" fill="#FFFFFF"/>
    <path d="M543.8,563.9c10.9,5,21.8,10.2,32.5,15.4c3.8-6.7,5.7-10.1,9.5-16.8c5.7,8.9,8.6,13.4,14.2,22.4 c3.7-4.7,5.6-7.1,9.4-11.8c0-0.7,0-1,0-1.6c0-9.9,0-19.8,0-29.6c-7.6-1.3-11.2-2-19-3.3c-4.3-0.7-6.5-1.1-10.8-1.9 c-9.6-1.6-14.5-2.4-24.5-4c-52.6-8.3-105.3-15.1-158.2-20.2c46.3,25.2,92.1,51.2,137,78.8C537.2,582.1,540.5,573,543.8,563.9z" fill="#FFFFFF"/>
    <path d="M655.7,582.4c-10.3,1.6-20.5,3.3-30.8,4.9c-0.6,0.1-0.9,0.1-1.5,0.2c3.9,8.1,5.9,12.2,9.8,20.3 c2.2,1.1,3.3,1.6,5.5,2.7c-1.2,1-1.8,1.5-3,2.5c27.6,56.2,56.6,111.7,86.3,166.9c-16.4-47.7-32.7-95.5-48.6-143.4 C667.5,618.4,661.6,600.4,655.7,582.4z" fill="#FFFFFF"/>
    <path d="M610.7,571.5c-0.5,0.7-0.8,1-1.3,1.7c-3.8,4.7-5.7,7.1-9.4,11.8c2.3,3.7,3.5,5.6,5.8,9.3 c9.1,4.6,18.2,9.1,27.4,13.5c-4-8.1-5.9-12.2-9.8-20.3c-1.8-3.8-2.7-5.7-4.5-9.5c-1.2-2.6-1.8-3.8-3-6.4c-0.8-1.6-1.1-2.4-1.9-4 C612.7,569.1,612,569.9,610.7,571.5z" fill="#FFFFFF"/>
    <path d="M635.7,612.9c-4.8,3.9-7.1,5.9-11.8,9.7c6.5,10,13.2,20,19.9,29.9c-14.7,8-29.3,16.2-43.8,24.5 c39,36.2,80,70,122,102.7C692.4,724.6,663.4,669.1,635.7,612.9z" fill="#FFFFFF"/>
    <path d="M600,584.9c-5.6-9-8.4-13.4-14.2-22.4c-3.8,6.7-5.7,10.1-9.5,16.8c9.9,4.9,19.7,9.8,29.5,14.9 C603.5,590.5,602.3,588.6,600,584.9z" fill="#FFFFFF"/>
    <path d="M643.8,652.6c-6.7-9.9-13.3-19.9-19.9-29.9c-48.1,41.1-96.7,81.2-146.4,120.4c41-21.6,82.1-43.1,122.5-66 C614.5,668.7,629.1,660.6,643.8,652.6z" fill="#FFFFFF"/>
    <path d="M623.9,622.7c4.7-3.9,7-5.8,11.8-9.7c1.2-1,1.8-1.5,3-2.5c-2.2-1.1-3.3-1.6-5.5-2.7 c-9.2-4.4-18.3-8.9-27.4-13.5c-9.8-5-19.6-10-29.5-14.9c-10.8-5.3-21.6-10.4-32.5-15.4c-3.3,9.1-6.6,18.2-9.9,27.3 c-3.2,8.6-4.7,12.9-7.9,21.5c-16,43.5-32.2,87-48.4,130.4C527.2,703.9,575.8,663.8,623.9,622.7z" fill="#FFFFFF"/>
  </g>
  <g opacity="0.3">
    <path d="M259.7,185c127.9,0,223.7,15.9,325.2,32.8C688.7,235,796.1,252.9,941,252.9c44.4,0,90-6.1,135.4-18.1 c30.5-8.1,61.9-19,93.6-32.7v757.2c-36.8,17.4-73.5,30.8-109.2,40c-40.5,10.4-81.1,15.7-120.8,15.7c-140.1,0-243.6-16.8-343.7-33 c-98.9-16.1-201.3-32.7-336.6-32.7c-45.7,0-91.1,5.3-135.1,15.8C93,972.6,61.3,982.9,30,996V241.6c37.1-17.6,73.8-31.2,109.2-40.5 C179.9,190.4,220.4,185,259.7,185 M1200,155c-89.2,45-174.4,67.9-259,67.9c-280.7,0-416.7-67.9-681.3-67.9 C175.2,155,89.1,178,0,222.9c0,242.4,0,577.6,0,820c89-44.9,175.2-63.6,259.7-63.6c268.9,0,398.5,65.7,680.3,65.7 c84.6,0,170.8-22,260-66.9C1200,735.7,1200,397.4,1200,155L1200,155z" fill="#212121"/>
  </g>
</svg>