<svg viewBox="0 0 1200 890" xmlns="http://www.w3.org/2000/svg" xmlns:xlink="http://www.w3.org/1999/xlink">
  <g>
    <path d="M0,887.8c95.1-49.3,192.2-66.3,298.7-63.4c101.1,2.7,201.8,16.4,301.3,33.5 c99.4,17.1,200.3,29.2,301.2,31.7c106.5,2.6,203.9-17.4,298.8-66.5c0-91.5,0-182.9,0-274.4c-77.4,40.1-157.3,63.9-244.7,66.8 c-82.6,2.7-166-5.2-247.8-15.6c-175.8-22.4-352.3-67.1-530.7-45C113.2,663.2,56.7,775.7,0,887.8z" fill="#E32118"/>
    <path d="M270,412c-33.3,46.2-64,93.9-93.1,142.8c178.4-22.1,354.9,22.6,530.7,45c81.8,10.4,165.2,18.4,247.8,15.6 c87.3-2.9,167.3-26.6,244.7-66.8c0-91.4,0-182.8,0-274.2c-77.8,40.4-156.9,64.6-244.7,67.3c-82.4,2.6-165.6-5.3-247.2-15.8 c-175.7-22.8-352.6-68.7-530.9-45.3C207.9,324.5,238.5,368.6,270,412z M684.2,356.2c3.6-1.6,5.4-2.4,9.1-4.1 c0.2,3.9,0.3,5.8,0.4,9.7c3.8,2.2,5.7,3.4,9.5,5.6c-3.5,1.7-5.2,2.5-8.7,4.2c0.2,3.9,0.3,5.8,0.4,9.7c-3.8-2.2-5.7-3.3-9.4-5.5 c-3.6,1.6-5.4,2.4-9,4.1c-0.2-3.9-0.3-5.8-0.4-9.7c-3.8-2.3-5.6-3.4-9.4-5.7c3.5-1.6,5.3-2.4,8.8-4.1c-0.4-3.9-0.6-5.9-1-9.8 C678.4,352.8,680.3,354,684.2,356.2z M638.6,338.1c3.8,1.5,5.8,2.3,9.7,3.8c2.9-2.3,4.4-3.4,7.4-5.7c1.1,3.9,1.6,5.8,2.7,9.7 c4.1,1.6,6.1,2.3,10.2,3.9c-3,2.4-4.5,3.5-7.5,5.9c1.1,3.9,1.6,5.8,2.7,9.7c-4-1.5-5.9-2.2-9.8-3.8c-2.9,2.3-4.4,3.5-7.3,5.8 c-1.1-3.9-1.6-5.8-2.7-9.7c-3.8-1.6-5.7-2.3-9.5-3.9c2.7-2.4,4-3.5,6.7-5.9C640.2,343.9,639.7,342,638.6,338.1z M602.8,329.5 c3.8,0.9,5.7,1.3,9.5,2.1c2.1-2.9,3.1-4.3,5.2-7.2c1.9,3.7,2.9,5.6,4.8,9.4c3.9,0.8,5.9,1.3,9.9,2.1c-2.2,2.9-3.2,4.4-5.4,7.3 c1.8,3.8,2.6,5.6,4.4,9.4c-3.9-0.8-5.9-1.2-9.8-2.1c-2.1,2.9-3.2,4.4-5.3,7.3c-1.8-3.8-2.7-5.7-4.4-9.4c-3.8-0.8-5.6-1.3-9.4-2.1 c1.9-2.9,2.8-4.4,4.7-7.3C605.3,335.2,604.5,333.3,602.8,329.5z M578.9,326c1.8-3.1,2.7-4.7,4.4-7.9c2.1,3.7,3.1,5.5,5.2,9.2 c3.8,0.5,5.7,0.8,9.4,1.3c-1.7,3.1-2.5,4.7-4.2,7.9c2.1,3.7,3.1,5.5,5.1,9.2c-3.8-0.5-5.7-0.8-9.5-1.3c-1.9,3.1-2.8,4.6-4.7,7.7 c-2.1-3.6-3.1-5.4-5.1-9c-3.9-0.5-5.8-0.8-9.7-1.3c1.8-3.2,2.7-4.7,4.4-7.9c-2.1-3.7-3.2-5.5-5.3-9.1 C572.9,325.3,574.9,325.5,578.9,326z M542.8,326.3c1.1-3.5,1.6-5.3,2.7-8.8c2.9,3.3,4.4,4.9,7.3,8.2c4-0.3,6.1-0.4,10-0.6 c-1.3,3.5-1.9,5.3-3.2,8.8c2.9,3.3,4.3,4.9,7.2,8.2c-3.9,0.3-5.9,0.4-9.9,0.7c-1.1,3.5-1.6,5.3-2.7,8.8c-2.9-3.2-4.3-4.8-7.2-8.1 c-3.9,0.3-5.9,0.4-9.8,0.7c1.1-3.6,1.7-5.4,2.9-8.9c-2.7-3.2-4.1-4.8-6.9-8.1C537.1,326.9,539,326.7,542.8,326.3z M507.4,331.9 c0.4-3.8,0.6-5.7,0.9-9.6c3.4,2.6,5.1,3.9,8.5,6.6c3.8-1.1,5.6-1.7,9.3-2.8c-0.2,3.8-0.3,5.8-0.5,9.6c3.4,2.7,5.1,4,8.5,6.7 c-3.7,1.2-5.5,1.8-9.3,2.9c-0.2,3.8-0.3,5.8-0.5,9.6c-3.6-2.7-5.4-4-9-6.7c-3.8,1.2-5.8,1.8-9.6,3c0.4-3.8,0.6-5.7,1-9.5 c-3.6-2.6-5.4-4-9-6.6C501.6,333.8,503.6,333.2,507.4,331.9z M493.9,470.5c1.6-5.2,3.6-11.9,4.2-20.5c1.6,0.1,2.4,0.2,3.9,0.3 c1.2,7.5,6.5,13.5,11.2,18.9c4.7,5.3,9,10.4,8.2,15.8c0.2,0.2,0.3,0.4,0.6,0.6c-0.4,0.4-0.5,0.6-0.9,1c0,0.2-0.1,0.3-0.1,0.5 c-0.1,0-0.2,0-0.3,0c-3.4,3.9-5.2,5.8-8.6,9.7c5.7,8.2,13.7,13.2,22,18.4c12.6,5.1,24.8,8.3,38.4,9c-0.3-0.1-0.7-0.1-1.1-0.2 c-11.8-1.5-24.6-3.7-33.3-12.6c-5.5-5.9-8.1-13.8-8.1-24.4c0.1-45,0-90-0.1-135c0-1,0-1.5,0-2.5c46.8,7.2,93.2,16.2,140,23.2 c-0.1,46.6-0.1,93.3-0.2,139.9c0,9.4-2.6,15.9-7.6,19.8c-7.2,5.1-19.1,5-27.3,3.1c9.7,2.4,21.7,3.4,31.5,1.4 c10.6-2.6,17.2-7.3,21.1-11.8c-3.4-4.9-5.1-7.4-8.5-12.4c-0.1,0-0.2,0-0.3,0c0-0.2-0.1-0.3-0.1-0.5c-0.4-0.5-0.5-0.8-0.9-1.4 c0.2-0.1,0.3-0.2,0.6-0.3c-0.8-5.6,3.6-9.4,8.2-13.4c4.6-4,9.8-8.6,11-15.8c1.6,0.3,2.4,0.4,3.9,0.7c0.5,9.1,2.7,16.3,4.5,22.1 c3,9.7,5.2,16.9-5.9,21.6c1.1,3.7,2.7,7.8,4.5,10.7c0.2,0.3,0.3,0.4,0.5,0.7c0,0.3-0.1,0.4-0.1,0.7c-3.5,16.4-23.2,23-37.9,24.1 c-9.8,0.6-19.5,1-29.3-0.2c0,1.6,0,2.5,0,4.1c-5.4,10.8-27.6,5.9-37.2,4.2c-9.1-1.6-18-4-24.7-6.6c-8.5-3.3-12.8-6.7-12.8-10.5 c0-1.6,0-2.5,0-4.1c-10.1-2-19.7-5.4-29.4-9c-15.9-7.3-33.5-16.4-38.2-34.8c0-0.3-0.1-0.4-0.1-0.7c0.2-0.2,0.3-0.3,0.5-0.6 c1.8-2.4,3.3-6.1,4.3-9.6C488.9,486.5,491,480.1,493.9,470.5z" fill="#FFFFFF"/>
    <path d="M621.6,549.5c0.1,0,0.2,0,0.4,0.1c-0.2-4.1-0.3-6.2-0.5-10.3c-1.3-2.5-0.2-5.6,0.1-6.3 c0-0.1,0.1-0.1,0.1-0.2c-11.2-2-17.8-2-19.2,4.5c-0.7,3.3-1.1,5-1.8,8.3c-1.2-3.5-1.7-5.3-2.9-8.9c-2.4-7.5-9.6-10.2-18.8-11.8 c0.1,0.3,0.1,0.4,0.2,0.7c0.2,0.7,0.9,3.5,0.1,5.5c-0.3,4.1-0.4,6.2-0.6,10.3C592.6,545.5,607,548.6,621.6,549.5z" fill="#FFFFFF"/>
    <path d="M0,67.9c69.5,61.7,123.9,137,177.1,212.7c178.3-23.3,355.2,22.6,530.9,45.3 c81.7,10.6,164.8,18.4,247.2,15.8c87.8-2.7,167-26.9,244.7-67.3c0-91.5,0-182.9,0-274.4c-50.5,26.2-102.6,48.8-158.8,59.2 c-45.1,8.4-91.2,9.5-137,8.5c-101.9-2.3-203.8-14.7-304-33.1C499.8,16.1,397.9,2.8,295.9,0.3C189.3-2.3,94.8,18.5,0,67.9z" fill="#3E9A00"/>
    <path d="M270,412c-31.5-43.4-62.1-87.5-92.9-131.4C123.9,204.9,69.5,129.6,0,67.9c0,91.2,0,182.4,0,273.6 c0,90.9,0,181.8,0,272.7c0,91.2,0,182.4,0,273.6c56.7-112.1,113.2-224.6,176.9-333C206,505.9,236.7,458.2,270,412z" fill="#0073CE"/>
    <path d="M611.1,419.2c-0.3-0.4-0.5-0.8-0.8-1.2c-0.2-0.3-0.4-0.7-0.7-1.1c-1.8,0.5-3.4,0.7-4.7,0.9 c-0.2,1.8-0.3,3.5-0.5,5.3C607.3,421.1,609.6,419.9,611.1,419.2z" fill="#FFFFFF"/>
    <path d="M598.1,422.3c0-2.5,0.1-3.8,0.1-6.4c-0.7-0.5-1.5-1.1-2.4-1.8c-0.2,1.4-0.5,2.2-1.1,2.6 c-0.4,0.2-0.9,0.2-1.4,0.2C595.3,418.6,597,420.8,598.1,422.3z" fill="#FFFFFF"/>
    <path d="M577.2,519.8c9.2,1.6,17.7,4,22.4,10.9c7-6.9,19.5-3.1,27.6-1.7c9.7,1.6,22,4.9,31.1-0.8 c4-3.1,6-8.5,6-16.5c0.1-45,0.1-90.1,0.2-135.1c-43.3-6.6-86.2-14.9-129.4-21.6c0.2,44.2,0.2,88.4,0.1,132.6 c0,9.2,2.1,16,6.4,20.7c7.6,7.7,19.5,8.9,29.5,10.6C573.3,519.2,575.3,519.5,577.2,519.8z M564.1,421.5c-0.2-0.2-0.4-0.4-0.6-0.6 c-1.2,2.7-3.5,4.1-6.4,3.7c-2.5-0.3-4.8-1.9-5.7-3.9c-5.6-1.7-7.5-4-7.5-5.5c0.1-1.8,2.7-2.8,6.6-2.5c0.3-1.5,1-2.6,2.1-3.2 c1.9-1,4.8,0,6.9,0.7c0.2-1.1,0.6-1.7,1.3-2s1.7,0,2.6,0.3c-0.2-0.9-0.2-1.6,0.1-2.1c0.4-0.8,1.3-1.1,2.7-1.3 c-1.7-2.5-2.2-4.5-1.9-6c0.4-1.8,2.2-2.6,4.9-3.4c-0.7-1.9-0.7-3.1-0.2-3.9c0.8-1.2,2.8-1.1,4.7-1c0.2,0,0.3,0.1,0.5,0.1 c-0.2-5.6,1.7-6.5,7.5-6.2c-0.2-1,0-1.7,0.4-2.3c0.4-0.5,1.3-1.1,3.3-0.9c-0.7-2.5-0.6-4.1,0.3-5.1c1.1-1.1,3.3-1.1,6.8,0.1 c0.7-3,3.8-4.2,7.8-2.9c5.6,1.8,11,7.2,10.6,13.7c4.4,1.4,6.5,2.8,7.8,6.6c1.6-1.5,2.1-1.6,5.3-1c0.5-2.2,2.6-3.3,5.1-2.8 c2.5,0.4,5.3,2.4,5.9,5.9c4.1,0,5.9,1.7,6.5,2.7c0.9,1.5,0.9,3.3-0.2,5c4-0.2,7.3,0.9,9.1,2.9c1.6,1.7,2.1,3.9,1.5,6.7 c6.5,2.8,7.6,6.1,7.7,7.9c0.1,3.2-2.7,5.7-5.7,6.2c-0.3,2-1.4,3.4-3,4.2c-2.4,1.1-5.9,0.6-9.9-1.2c-4.2,2.1-7.6,2.6-10.6,1.6 c-2.6-1-4.9-3.1-7-6.5c-3.2-0.1-5.4-0.4-7.2-1.1c-14.3,5.1-12.5,21.4-11.4,33.7c0,0.8,0.1,1.2,0.1,2c0.1,1.5,0.1,2.9,0.2,4.5 c0.2,6.5,0.5,13.9,1.8,21.2c1,5.2,2.6,10.2,4,14.7c1.7,5.8,3.3,10.7,3.5,14.8c0.1,1.3-0.2,2.1-1,2.6c-1.4,0.8-3.7-0.4-4.5-0.9 c-0.4,0.2-1.3,0.6-2.5,0.4c-0.2,0-0.3-0.1-0.5-0.1c-1.6,1.4-3.1,1.9-4.6,1.6c-0.2,0-0.4-0.1-0.7-0.2c-1.6-0.6-2.7-2-3.4-3.1 c-1.5,1.2-2.9,1.6-4.3,1.4c-0.2,0-0.4-0.1-0.6-0.2c-1.6-0.6-2.7-2.1-3.4-3.5c-3,0.8-4.6-0.3-5.6-1.3c-1.2-1.5-1.4-3.5-1.1-4.1 c10-18.3,23.4-68.2,7.1-86.4c-0.3,0.4-0.6,0.7-1,1c-1.2,0.7-2.9,0.5-5-0.4c1.4,4.1-0.1,6.5-2.3,7.3c-1,0.4-2.3,0.5-3.5,0.3 c-2.4-0.4-5.1-2-7.2-5C566.7,424.1,565.7,423,564.1,421.5z" fill="#FFFFFF"/>
    <path d="M578.7,524.1c0.1,0.4,0.2,0.5,0.3,0.9c9.2,1.7,16.2,4.3,18.8,11.8c1.2,3.5,1.8,5.3,2.9,8.9c0.7-3.3,1.1-5,1.8-8.3 c1.4-6.5,8-6.5,19.2-4.5c0.2-0.5,0.2-0.7,0.4-1.2c0.6,0.2,0.9,0.3,1.5,0.6c0.1,0,4.7,1.6,11.3,3.1c8.1,1.9,20.1,2.1,27.3-3.1 c5.1-3.9,7.6-10.4,7.6-19.8c0.1-46.7,0.1-93.3,0.2-140c-46.8-7-93.2-16-140-23.2c0,1,0,1.5,0,2.5c0.1,45,0.2,90,0.1,135 c0,10.6,2.6,18.6,8.1,24.4c8.8,8.8,21.5,11.2,33.3,12.6c0.3,0.1,0.7,0.1,1.1,0.2c2.8,0.2,4.6,0.2,4.6,0.2 C577.8,524.1,578.1,524.1,578.7,524.1z M541.9,508.3c-4.4-4.7-6.4-11.5-6.4-20.7c0.1-44.2-0.1-88.4-0.1-132.6 c43.2,6.7,86.2,15,129.4,21.6c-0.1,45-0.1,90-0.2,135c0,8-2,13.4-6,16.5c-9.1,5.8-21.5,2.5-31.1,0.8c-8.1-1.4-20.6-5.1-27.6,1.7 c-4.7-6.9-13.3-9.4-22.4-10.9c-2-0.3-3.9-0.7-5.9-0.9C561.4,517.2,549.5,516.1,541.9,508.3z"/>
    <path d="M603.9,495.5c0.3,5.6,0.6,10.1,0.6,13.6c0,3.5,1.5,5.5,2,6.2c0.2,0.2,0.3,0.5,0.3,0.7 c0.9,0.1,1.4-0.2,1.7-0.3c0.6-6.7-0.6-14.2-3.7-23.6c0.4-0.1,0.5-0.1,0.9-0.1c3.1,9.4,4.4,17,3.7,23.8c0.9,0.5,2.6,1.3,3.5,0.8 c0.4-0.2,0.6-0.8,0.6-1.7c-0.2-3.9-1.7-8.8-3.5-14.5c-1.4-4.5-2.9-9.6-4-14.8c-1.4-7.5-1.6-14.9-1.8-21.4c-0.1-1.6-0.1-3-0.2-4.5 c0-0.8-0.1-1.2-0.1-2c-1.1-12.4-2.9-28.6,11.1-34.3c-1.3-0.7-2.3-1.8-3.4-3.3c-1.6,0.6-4.3,2-7.4,4.5 C602.7,448.4,602.5,471.8,603.9,495.5z" fill="#73452B"/>
    <path d="M604.3,424.7c3.1-2.5,5.9-3.9,7.4-4.5c-0.2-0.2-0.4-0.6-0.6-0.9c-1.5,0.7-3.9,1.9-6.7,3.9 C604.4,423.7,604.4,424.2,604.3,424.7z"/>
    <path d="M615.1,423.4c-14,5.6-12.2,21.9-11.1,34.3c0,0.8,0.1,1.2,0.1,2c0.1,1.5,0.1,2.9,0.2,4.5c0.2,6.5,0.5,13.9,1.8,21.4 c1,5.2,2.6,10.3,4,14.8c1.7,5.7,3.3,10.6,3.5,14.5c0.1,0.9-0.1,1.5-0.6,1.7c-0.8,0.5-2.6-0.2-3.5-0.8c0,0.1,0,0.3,0,0.4 c-0.4-0.1-0.6-0.2-1-0.3c0-0.1,0-0.1,0-0.2c-0.2,0.2-0.8,0.4-1.7,0.3c0,0.1,0,0.1,0,0.2c0,0.1-0.1,0.2-0.1,0.3h-0.1 c-0.2,0.2-0.3,0.3-0.5,0.4c0.2,0,0.3,0.1,0.5,0.1c1.3,0.2,2.1-0.1,2.5-0.4c0.8,0.5,3.2,1.6,4.5,0.9c0.7-0.4,1.1-1.2,1-2.6 c-0.2-4-1.7-9-3.5-14.8c-1.4-4.5-2.9-9.6-4-14.7c-1.3-7.3-1.6-14.7-1.8-21.2c-0.1-1.6-0.1-3-0.2-4.5c0-0.8-0.1-1.2-0.1-2 c-1.2-12.4-3-28.6,11.4-33.7C616,423.9,615.5,423.7,615.1,423.4z"/>
    <path d="M599.1,423.8l0.1,0.1c0,0.1,0,0.1,0,0.2c0.7,29.2,4.1,61.5-1,90.5c0.5,0.9,1.4,2.3,2.8,2.8 c1.4,0.5,3-0.1,4.7-1.6c-0.7-0.8-2.2-3.2-2.2-6.9c0-3.5-0.3-8-0.6-13.6c-1.6-25.9-1.1-51.6,1-77.4c-1.7,0-3.1-0.5-4.8-1.5 C599.1,419.4,599.1,420.9,599.1,423.8C599.1,423.7,599.1,423.8,599.1,423.8z" fill="#73452B"/>
    <path d="M599,423.7c0-2.9,0.1-4.3,0.1-7.2c-0.3-0.2-0.7-0.4-1-0.7c0,2.5-0.1,3.8-0.1,6.4C598.6,423,598.9,423.6,599,423.7z"/>
    <path d="M606.6,516.6h0.1c0-0.1,0.1-0.2,0.1-0.3s0-0.1,0-0.2c0-0.2-0.1-0.4-0.3-0.7c-0.6-0.7-2-2.7-2-6.2c0-3.6-0.3-8-0.6-13.6 c-1.4-23.7-1.3-47.1,0.4-70.8c0-0.5,0.1-1,0.1-1.5c0.1-1.7,0.3-3.4,0.5-5.3c-0.4,0-0.7,0.1-1,0c-2.2,25.9-2.6,51.5-1,77.4 c0.3,5.6,0.6,10,0.6,13.6c0,3.7,1.5,5.9,2.2,6.9c-1.7,1.5-3.3,2.1-4.7,1.6s-2.3-1.9-2.8-2.8c0,0.1-0.1,0.2-0.1,0.2 c-0.2,0.2-0.4,0.3-0.6,0.5c0.6,1,1.7,2.5,3.4,3.1c0.2,0,0.4,0.2,0.7,0.2c1.5,0.3,3-0.3,4.6-1.6 C606.2,516.8,606.4,516.7,606.6,516.6z"/>
    <path d="M595.9,458.8c-2,17-4.6,34.1-12.4,49.6c-0.1,0.3,0,1.9,1,3c0.9,1,2.4,1.2,4.2,0.7 c-0.1-0.2-0.2-0.4-0.2-0.6l0,0h-0.1c-0.4-2.4,1-6,2.9-10.4c2.6-6.2,5.7-13.9,5.3-22.5c0.4,0.1,0.6,0.1,1,0.2 c0.4,8.8-2.8,16.7-5.4,22.9c-1.6,3.8-3,7.2-2.8,9.4c0,0.1,0.1,0.1,0.1,0.3c0.3,0.9,1.4,3.6,3.3,4.3c1.3,0.4,2.8-0.1,4.6-1.7 c4.5-29.2,1.6-60.6,0.9-89.9c-0.6-0.9-3.8-5.8-7.4-7.9c0,1.9-0.2,3.3-0.7,4.3l0,0C598.2,429.8,597.1,447.5,595.9,458.8z" fill="#A36629"/>
    <path d="M598,514.8c0,0,0.1-0.1,0.1-0.2c5.1-29,1.7-61.3,1-90.5c0-0.1,0-0.1,0-0.2l-0.1-0.1l0,0c-0.1-0.1-0.4-0.7-1-1.5 c-1-1.4-2.8-3.7-4.8-5.5c-0.5-0.1-1-0.3-1.6-0.5c-0.3-0.2-0.6-0.2-0.9-0.4c0,0.1,0,0.1,0,0.2c3.6,2.2,6.8,7.1,7.4,7.9 c0.7,29.3,3.6,60.7-0.9,89.9c-1.7,1.5-3.2,2.1-4.6,1.7c-1.9-0.7-3-3.4-3.3-4.3c0-0.1-0.1-0.3-0.1-0.3s0,0.3,0,0.4 c-0.4,0-0.6,0-0.9,0l0,0c0.1,0.1,0.1,0.3,0.2,0.6c-1.8,0.5-3.3,0.2-4.2-0.7c-1-1.1-1.1-2.8-1-3c7.8-15.5,10.4-32.6,12.4-49.6 c1.2-11.3,2.3-29-5.8-38.3l0,0c-0.1,0.3-0.3,0.6-0.5,0.8c16.2,18.3,3,68-7.1,86.4c-0.3,0.6-0.1,2.7,1.1,4.1 c0.9,1.1,2.6,2.1,5.6,1.3c0.6,1.2,1.7,2.9,3.4,3.5c0.2,0,0.4,0.2,0.6,0.2c1.3,0.2,2.7-0.2,4.3-1.4 C597.6,515.2,597.8,515,598,514.8z"/>
    <path d="M592.1,501.6c2.5-6.2,5.8-14.1,5.4-22.9c-0.4-0.1-0.6-0.1-1-0.2c0.4,8.6-2.7,16.4-5.3,22.5c-1.8,4.4-3.3,7.9-2.9,10.4h0.1 c0.4,0,0.6,0,0.9,0c0-0.1,0-0.3,0-0.4C589.2,508.8,590.5,505.5,592.1,501.6z"/>
    <path d="M605.8,492.1c-0.4,0.1-0.5,0.1-0.9,0.1c3.1,9.4,4.2,16.9,3.7,23.6c0,0.1,0,0.1,0,0.2c0.4,0.1,0.6,0.2,1,0.3 c0-0.1,0-0.3,0-0.4C610.2,509.1,609,501.5,605.8,492.1z"/>
    <path d="M572.8,419.2c-0.2-1.4-0.9-2.5-2.1-3.1c-1.3-0.6-2.8-0.4-4.4,0.9c-0.3-0.3-0.4-0.5-0.7-0.8 c2.5-2,4.5-1.5,5.5-0.9c1.3,0.6,2.3,1.9,2.6,3.4c2.1-0.2,4.1,0.6,4.9,1.9c-0.3,0.2-0.5,0.3-0.8,0.5c-0.4-0.8-2.1-1.4-3.9-1.3 c0,0.7-0.5,1.1-1,1.6c-0.5,0.4-1.3,1-1.7,2.3c0,0.1,0.1,0.1,0.1,0.2c2.7,4.2,7,5.5,9.5,4.4c1.9-0.8,3.2-3,1.3-7.2 c-0.2-0.5-0.3-0.7-0.5-1.2c0.5,0.3,0.7,0.4,1.2,0.6c2.3,1.2,4,1.5,5.1,0.9c1.3-0.7,1.9-2.8,1.7-6.1c0-0.2,0-0.4,0-0.6 c0.2,0.1,0.4,0.1,0.6,0.2c0.5,0.2,1.1,0.4,1.5,0.5c1,0.4,1.7,0.6,2.1,0.4c0.4-0.2,0.7-1.1,0.8-2.7c0-0.3,0.1-0.5,0.1-0.8 c0.3,0.2,0.4,0.3,0.7,0.5c5.6,4.5,6.9,5,13.3,3.3c0-0.2,0-0.5-0.1-0.7c-0.2-1.5-0.5-3.8,1.7-4.3c0.2,0.4,0.2,0.6,0.4,1 c-1.4,0.4-1.3,1.7-1.1,3.4c0,0.2,0,0.3,0.1,0.5l0,0c0.1,0.1,0.1,0.2,0.2,0.3c0.3,0.5,0.6,0.9,0.9,1.4c3.3,4.7,4.4,6.3,12.3,6.7 c0.2-1.1,1.3-2.3,2.5-2.7c1.3-0.4,2.7-0.1,3.9,1.1c-0.3,0.3-0.4,0.4-0.6,0.7c-1.2-1-2.1-1-2.8-0.8c-1,0.3-1.9,1.4-2,2.1 c2,3.3,4,5.3,6.4,6.1c2.7,1,5.9,0.5,9.8-1.5c0-3.1-0.6-4.1-1.3-5.1c0.3-0.2,0.5-0.3,0.9-0.5c0.7,1.1,1.5,2.4,1.5,5.6 c3.6,1.6,6.9,2,8.9,1.1c1.4-0.6,2.2-1.8,2.5-3.4c-1.8-1.2-3.9-2.3-5.4-0.4c-0.4,0.4-0.6,0.6-1,1.1c0-0.6,0-0.9,0-1.5 c0-2.2-0.4-4.7-3.4-5.2c0-0.4,0-0.6,0-1c2.6,0.4,4.1,2.2,4.4,5.1c2.2-1.3,4.6,0.3,5.9,1.1l0.1,0.1c2.5-0.5,5.1-2.6,5-5.4 c-0.1-2.6-2.7-5-7.4-7c-0.2-0.1-0.3-0.1-0.5-0.2c0-0.2,0.1-0.3,0.1-0.5c0.7-2.6,0.3-4.7-1.1-6.1c-1.7-1.9-5.1-2.7-9.1-2.5 c-0.1,0.1-0.4,0.1-1,0.1c-0.3,0-0.4,0.1-0.6,0.1l0.1-0.1l0,0c-1.6-0.2-4.5-0.4-6,0.5c-0.3-0.4-0.4-0.6-0.6-0.9 c1.8-0.9,4.8-0.7,6.5-0.6c0.3,0.1,0.6,0.1,0.9,0c1.3-1.7,1.6-3.4,0.8-4.8c-0.9-1.4-3-2.1-6-2c-0.2,0-0.3,0-0.5,0 c0-0.2-0.1-0.3-0.1-0.5c-0.3-3.2-2.8-5.1-5-5.5c0,0,0,0-0.1,0c-1.9-0.3-3.8,0.4-4.1,2.6c0,0.2-0.1,0.2-0.1,0.4h-0.1 c-3.6-0.6-3.5-0.6-5.4,1.1c0,1.5-0.4,5.5-1.8,7.3c-0.3-0.3-0.5-0.5-0.8-0.8c1.2-1.6,1.7-5.3,1.7-6.9c-1.2-3.8-2.7-5.2-7.5-6.7 c-0.5,0.5-1.3,0.8-2.1,1.2c-1.8,0.7-3.8,1.4-3.4,4.9c-0.4,0.1-0.5,0.1-0.9,0.2c-0.9-1.4-2.3-2.5-3.5-2.6c-0.6-0.1-1.4,0.1-2,0.9 c-0.4-0.3-0.5-0.4-0.9-0.7c0.6-0.9,1.6-1.4,2.8-1.2c1.2,0.1,2.4,0.9,3.4,2c0.2-2.9,2.3-3.7,4-4.3c0.8-0.3,1.5-0.6,1.9-1 c0.7-6.6-5.3-11.3-9.7-12.7c-2.9-0.8-6.4-0.7-6.8,2.8c0,0.2-0.1,0.3-0.1,0.5c-0.2-0.1-0.3-0.1-0.5-0.2c-3.4-1.1-5.5-1.3-6.3-0.4 c-0.7,0.7-0.7,2.3,0.1,4.8c0.1,0.3,0.1,0.5,0.2,0.8c-0.3-0.1-0.4-0.1-0.7-0.1c-1.5-0.3-2.7-0.1-3.2,0.5c-0.4,0.5-0.3,1.2-0.2,1.8 c0.2,0.1,0.4,0.2,0.7,0.3c1.2,0.5,2.2,1.1,2.6,3c1.3-1.5,2.7-1.3,3.4-0.9c1.8,0.8,3,3.5,3,6.9c-0.4-0.1-0.6-0.1-1-0.2 c0-3.1-1.1-5.2-2.2-5.8c-0.9-0.4-1.9,0.2-3,1.6c-0.3,0.5-0.5,0.8-0.8,1.3c0-0.7-0.1-1-0.1-1.7c-0.2-2.6-1-3-2.1-3.3 c-0.3-0.2-0.6-0.3-0.9-0.5c-5.9-0.4-7.4,0.2-7.1,5.8c0,0.2,0,0.3,0,0.5c-0.2,0-0.3,0-0.5,0c-0.3-0.1-0.7,0-1-0.1 c-1.7-0.2-3.4-0.3-3.9,0.6c-0.4,0.6-0.2,1.8,0.4,3.6c0.1,0.2,0.1,0.3,0.2,0.4c-0.2,0.1-0.3,0.1-0.4,0.1c-2.5,0.7-4.3,1.5-4.8,3 c-0.3,1.3,0.3,3,2,5.5c1.8-1.1,5.4,0,7.4,1.3c-0.2,0.3-0.3,0.5-0.4,0.9c-1.9-1.2-5-2.1-6.3-1.3v0.1c-0.3,0-0.5,0-0.8,0.1 c-1.5,0.1-2.3,0.4-2.6,1c-0.3,0.5-0.2,1.3,0.2,2.4c0.2,0.5,0.3,0.7,0.5,1.2c-0.5-0.2-0.7-0.4-1.2-0.6c-1-0.6-2-1.1-2.7-0.9 c-0.4,0.2-0.7,0.8-0.9,1.8c0,0.2-0.1,0.4-0.1,0.6c-0.2-0.1-0.3-0.1-0.5-0.2c-1.9-0.7-4.8-1.8-6.6-1c-1,0.5-1.5,1.4-1.6,2.9 c0,0.2-0.1,0.2-0.1,0.4c-0.2,0-0.3,0-0.4-0.1c-3.9-0.4-6,0.5-6.1,1.6s2.1,3,6.8,4.4c0.1,0,0.2,0,0.3,0.1c0,0.1,0.1,0.2,0.1,0.3 c0.6,1.6,2.6,3.1,4.7,3.4c2.7,0.3,4.7-1.1,5.7-3.7c0.1-0.3,0.1-0.4,0.2-0.7c0.3,0.2,0.4,0.3,0.6,0.5c0.5,0.4,1,0.9,1.3,1.2 c1.4,1.4,2.2,2.2,5.4,2.5c0.4-1.7,1.4-2.3,2-3C572.7,420,572.9,419.8,572.8,419.2z M631.6,415.9c2.1-2.1,4-1.8,6-1.5 c0,0.4,0,0.6,0,1c-2.1-0.3-3.6-0.6-5.6,1.7c-0.2,0.2-0.3,0.3-0.4,0.4c-0.3-0.4-0.4-0.6-0.7-1c-1.5-2.1-4-5.6-7.8-4.5 c-0.2-0.4-0.2-0.6-0.4-1C627.1,409.7,630.1,413.8,631.6,415.9z M604.3,407.1c1.2-2.3,2.8-2.1,4.4-1.9c0.4,0.1,0.7,0,1.1,0.1 c0.1,0.4,0.1,0.6,0.2,1.1c-0.4,0-0.8,0-1.2-0.1c-1.6-0.2-2.8-0.3-3.9,2.3c-0.2,0.4-0.2,0.6-0.4,1c-0.2-0.4-0.3-0.6-0.5-1 c-2.7-5.3-7.1-8.5-9.4-8c-0.2-0.4-0.2-0.6-0.4-1C597,398.9,601.5,402.3,604.3,407.1z M590.1,408.6c-0.2,0.3-0.2,0.5-0.4,0.9 c-0.4-0.3-0.9-0.3-1.3,0c-0.8,0.4-1.1,1.6-1,2.9c0,0.4,0.1,0.6,0.1,1c-0.4-0.3-0.6-0.4-0.9-0.7c-0.7-0.5-1.6-0.9-2.5-0.8 c-0.8,0.1-1.5,0.3-2,1c-0.4-0.3-0.6-0.4-0.9-0.7c0.5-0.8,1.6-1.3,2.7-1.3c0.8,0,1.6,0.2,2.4,0.6c0-1.3,0.6-2.5,1.4-2.9 C588.5,408,589.4,408.2,590.1,408.6z M574.4,399c0-0.4,0-0.6,0-1c0.2,0,0.5,0.1,0.8,0.1c1.7,0.2,4,0.5,5.2,2.7 c2.5-3.1,4.4-3.4,5.7-3.2c0.8,0.1,1.5,0.8,1.9,1.6c-0.4,0.1-0.6,0.1-0.9,0.2c-0.1-0.2-0.4-0.7-1-0.8c-0.7-0.1-2.6-0.1-5.3,3.6 c-0.2,0.3-0.4,0.5-0.6,0.8c-0.1-0.4-0.2-0.6-0.3-1.1c-0.7-2.2-2.4-2.6-4.6-2.8C575,399.1,574.6,399,574.4,399z" fill="#009A3B"/>
    <path d="M577.8,429.4c1.4,0.2,2.6,0.1,3.5-0.3c2.1-0.9,3.6-3.2,2.3-7.3c2.1,1,3.8,1.1,5,0.4c0.4-0.2,0.7-0.5,1-1 c0.2-0.3,0.3-0.6,0.5-0.8c0.5-1,0.7-2.5,0.7-4.3c0-0.1,0-0.1,0-0.2c0.3,0.1,0.6,0.2,0.9,0.4c0.6,0.2,1.1,0.4,1.6,0.5 s1,0.1,1.4-0.2c0.6-0.4,0.9-1.2,1.1-2.6c0.9,0.7,1.7,1.3,2.4,1.8c0.3,0.3,0.7,0.4,1,0.7c1.7,1,3.1,1.5,4.8,1.5c0.3,0,0.7,0,1,0 c1.3-0.1,2.7-0.4,4.7-0.9c0.2,0.3,0.5,0.7,0.7,1.1c0.3,0.5,0.5,0.8,0.8,1.2c0.2,0.3,0.4,0.6,0.6,0.9c1,1.4,2,2.5,3.4,3.3 c0.4,0.3,0.8,0.5,1.3,0.6c1.7,0.7,3.9,1,7.2,1.1c2.1,3.4,4.4,5.6,7,6.5c3.1,1,6.5,0.5,10.6-1.6c4.1,1.8,7.5,2.2,9.9,1.1 c1.6-0.8,2.7-2.2,3-4.2c2.9-0.6,5.8-3,5.7-6.2c-0.1-1.8-1.2-5.1-7.7-7.9c0.5-2.8,0.1-5-1.5-6.7c-1.8-2-5.2-3.1-9.2-2.9 c1.1-1.8,1.1-3.6,0.2-5c-0.6-1-2.4-2.6-6.5-2.7c-0.6-3.5-3.4-5.5-5.9-5.9c-2.6-0.4-4.6,0.7-5.1,2.8c-3.2-0.5-3.7-0.5-5.3,1 c-1.4-3.9-3.4-5.2-7.8-6.6c0.5-6.4-5-11.9-10.6-13.7c-4.1-1.3-7.1-0.1-7.8,2.9c-3.5-1.2-5.7-1.1-6.8-0.1c-0.9,1-1,2.6-0.3,5.1 c-1.9-0.2-2.9,0.3-3.3,0.9c-0.5,0.5-0.6,1.3-0.4,2.3c-5.8-0.3-7.7,0.6-7.5,6.2c-0.2,0-0.3-0.1-0.5-0.1c-1.9-0.1-3.9-0.3-4.7,0.9 c-0.5,0.8-0.5,2.2,0.2,3.9c-2.6,0.8-4.4,1.7-4.9,3.4c-0.4,1.5,0.2,3.4,1.9,6c-1.4,0.2-2.2,0.6-2.7,1.3c-0.3,0.6-0.3,1.3-0.1,2.1 c-1-0.5-1.8-0.7-2.6-0.3c-0.6,0.3-1.1,1-1.3,2c-2.1-0.8-4.9-1.7-6.9-0.7c-1.1,0.5-1.7,1.6-2.1,3.2c-3.9-0.4-6.5,0.5-6.6,2.5 c-0.1,1.5,1.9,3.8,7.5,5.5c0.9,2,3.1,3.6,5.7,3.9c2.9,0.4,5.2-1,6.4-3.7c0.2,0.2,0.4,0.5,0.6,0.6c1.5,1.5,2.7,2.6,6.5,2.9 C572.7,427.4,575.5,429,577.8,429.4z M570,423.7c0-0.1,0.1-0.2,0.1-0.4c-3.1-0.4-4-1.3-5.4-2.5c-0.4-0.4-0.8-0.8-1.3-1.2 c-0.3-0.2-0.4-0.3-0.6-0.5c-0.1,0.3-0.1,0.4-0.2,0.7c-0.9,2.7-3,4.1-5.7,3.7c-2.1-0.2-4.2-1.7-4.7-3.4c0-0.1-0.1-0.2-0.1-0.3 c-0.1,0-0.2,0-0.3-0.1c-4.7-1.4-6.8-3.2-6.8-4.4c0.1-1.1,2.2-2,6.1-1.6c0.2,0,0.3,0,0.4,0.1c0-0.2,0.1-0.2,0.1-0.4 c0.2-1.5,0.8-2.5,1.6-2.9c1.7-1,4.7,0.2,6.6,1c0.2,0.1,0.3,0.1,0.5,0.2c0-0.2,0.1-0.4,0.1-0.6c0.1-1,0.4-1.7,0.9-1.8 c0.6-0.3,1.7,0.3,2.7,0.9c0.5,0.2,0.7,0.4,1.2,0.6c-0.2-0.5-0.3-0.7-0.5-1.2c-0.4-1.1-0.5-1.8-0.2-2.4s1.2-0.9,2.6-1 c0.3,0,0.5,0,0.8-0.1V406l-0.1,0.1c-0.3-0.3-0.4-0.5-0.7-0.8c0.1-0.1,0.2-0.1,0.2-0.2c-1.7-2.4-2.3-4.2-2-5.5 c0.4-1.5,2.2-2.3,4.8-3c0.2-0.1,0.3-0.1,0.4-0.1c-0.1-0.2-0.1-0.3-0.2-0.4c-0.7-1.8-0.8-2.9-0.4-3.6c0.5-0.8,2.2-0.7,3.9-0.6 c0.3,0.1,0.7,0,1,0.1c0.2,0,0.3,0,0.5,0c0-0.2,0-0.3,0-0.5c-0.3-5.6,1.2-6.2,7.1-5.8c-0.1,0-0.1,0-0.2-0.1 c0.2-0.3,0.2-0.5,0.4-0.9c0.1,0,0.1,0.1,0.2,0.1c-0.1-0.5-0.2-1.3,0.2-1.8c0.5-0.6,1.5-0.8,3.2-0.5c0.3,0.1,0.4,0.1,0.7,0.1 c-0.1-0.3-0.1-0.5-0.2-0.8c-0.8-2.4-0.8-4.1-0.1-4.8c0.8-0.9,3-0.7,6.3,0.4c0.2,0.1,0.3,0.1,0.5,0.2c0-0.2,0.1-0.3,0.1-0.5 c0.4-3.4,3.9-3.6,6.8-2.8c4.4,1.3,10.4,6.2,9.7,12.7l0.1-0.1c0.3,0.3,0.5,0.5,0.8,0.8c-0.1,0.1-0.1,0.2-0.2,0.3 c4.8,1.6,6.3,2.9,7.5,6.7v-0.1c0.4,0.1,0.6,0.1,1,0.2c0,0.1,0,0.1,0,0.2c1.8-1.8,1.9-1.7,5.4-1.1c0.2,0,0.3,0,0.4,0.1 c0-0.2,0.1-0.2,0.1-0.4c0.3-2.2,2.3-2.9,4.1-2.6c0,0,0,0,0.1,0c2.2,0.4,4.5,2.2,5,5.5c0,0.2,0.1,0.3,0.1,0.5c0.2,0,0.3,0,0.5,0 c3-0.1,5.1,0.6,6,2c0.9,1.3,0.5,3.1-0.8,4.8c0.1,0,0.1,0,0.1,0c0,0.2,0.1,0.3,0.1,0.5c0.2-0.1,0.3-0.2,0.4-0.3 c0,0.3,0.1,0.4,0.1,0.6c0,0.1-0.1,0.2-0.1,0.2c4.1-0.4,7.4,0.6,9.1,2.5c1.4,1.5,1.7,3.6,1.1,6.1c0,0.2-0.1,0.3-0.1,0.5 c0.2,0.1,0.3,0.1,0.5,0.2c4.7,1.9,7.3,4.4,7.4,7c0.1,2.7-2.5,4.9-5,5.4c0.1,0.1,0.1,0.1,0.2,0.1c-0.2,0.3-0.3,0.5-0.4,0.9 c-0.1-0.1-0.2-0.2-0.3-0.3l0,0c-0.3,1.7-1.2,2.8-2.5,3.4c-2.1,0.9-5.2,0.5-8.9-1.1c0,0.1,0,0.2,0,0.4c-0.4-0.1-0.6-0.1-1.1-0.2 c0-0.1,0-0.2,0-0.3c-3.9,2-7,2.5-9.8,1.5c-2.4-0.8-4.4-2.8-6.4-6.1v0.1c-0.4-0.1-0.6-0.1-1-0.2c0-0.1,0-0.3,0-0.4 c-7.9-0.2-9-1.9-12.3-6.7c-0.3-0.5-0.6-0.9-0.9-1.4c-0.1-0.1-0.1-0.2-0.2-0.3l0,0c0,0.2,0,0.4,0,0.6c-0.4-0.1-0.6-0.1-1-0.2 c0-0.1,0-0.1,0-0.2c-6.4,1.6-7.7,1.2-13.3-3.3c-0.3-0.2-0.4-0.3-0.7-0.5c0,0.3-0.1,0.5-0.1,0.8c-0.1,1.5-0.4,2.4-0.8,2.7 c-0.4,0.2-1.1,0-2.1-0.4c-0.5-0.2-1-0.4-1.5-0.5c-0.2-0.1-0.4-0.1-0.6-0.2c0,0.2,0,0.4,0,0.6c0.2,3.2-0.4,5.4-1.7,6.1 c-1.1,0.6-2.9,0.3-5.1-0.9c-0.5-0.3-0.7-0.4-1.2-0.6c0.2,0.5,0.3,0.7,0.5,1.2c1.9,4.1,0.5,6.5-1.3,7.2c-2.6,1.1-6.9-0.3-9.5-4.4 c0-0.1-0.1-0.1-0.1-0.2c-0.1,0.2-0.1,0.4-0.1,0.5C570.8,423.8,570.5,423.8,570,423.7z"/>
    <path d="M640,404.4c0.1-0.1,0.2-0.2,0.3-0.3c-0.2-0.1-0.3-0.2-0.4-0.3C639.9,404.1,639.9,404.3,640,404.4z"/>
    <path d="M639.3,404.8c0.3,0,0.4-0.1,0.6-0.1c-0.2,0-0.3-0.1-0.5-0.1C639.3,404.7,639.3,404.8,639.3,404.8z"/>
    <path d="M585.3,389.5c0,0.7,0.1,1,0.1,1.7c0.3-0.5,0.5-0.8,0.8-1.3c0.9-1.5,1.9-2.1,3-1.6s2.2,2.7,2.2,5.8c0.4,0.1,0.6,0.1,1,0.2 c0-3.3-1.2-6.1-3-6.9c-0.7-0.3-1.9-0.6-3.4,0.9c-0.4-1.9-1.4-2.5-2.6-3c-0.2-0.1-0.5-0.2-0.7-0.3c-0.1,0-0.1,0-0.2-0.1 c-0.2,0.3-0.2,0.5-0.4,0.9c0.1,0,0.1,0,0.2,0.1c0.3,0.2,0.6,0.3,0.9,0.5C584.3,386.5,585.1,386.9,585.3,389.5z"/>
    <path d="M608.1,388.1c-1.6,0.6-3.8,1.4-4,4.3c-1-1.1-2.2-1.7-3.4-2c-1.2-0.1-2.2,0.3-2.8,1.2c0.4,0.3,0.5,0.4,0.9,0.7 c0.5-0.8,1.4-1,2-0.9c1.2,0.1,2.7,1.2,3.5,2.6c0.4-0.1,0.5-0.1,0.9-0.2c-0.4-3.5,1.5-4.2,3.4-4.9c0.8-0.3,1.6-0.6,2.1-1.2 c0.1-0.1,0.2-0.2,0.2-0.3c-0.3-0.3-0.5-0.5-0.8-0.8l-0.1,0.1C609.6,387.6,608.8,387.8,608.1,388.1z"/>
    <path d="M617.4,402.3c1.4-1.9,1.8-5.9,1.8-7.3c0-0.1,0-0.1,0-0.2c-0.4-0.1-0.6-0.1-1-0.2v0.1c0,1.6-0.4,5.3-1.7,6.9 C616.9,401.9,617,402,617.4,402.3z"/>
    <path d="M632.7,404.2c0.3,0.4,0.4,0.6,0.6,0.9c1.6-0.8,4.5-0.6,6-0.5l0,0c0.2,0,0.4,0.1,0.5,0.1c0.5,0.1,0.7,0,1-0.1 c0.1-0.1,0.1-0.1,0.1-0.2c0-0.3-0.1-0.4-0.1-0.6c-0.2,0.1-0.3,0.2-0.4,0.3c0-0.2-0.1-0.3-0.1-0.5h-0.1c-0.2,0-0.5,0-0.9,0 C637.5,403.5,634.5,403.2,632.7,404.2z M640.3,404.2c-0.1,0.1-0.2,0.2-0.3,0.3c-0.1-0.1-0.2-0.3-0.1-0.4 C640.1,404.1,640.2,404.1,640.3,404.2z"/>
    <path d="M647.7,425c-0.3-3-1.8-4.7-4.4-5.1c0,0.4,0,0.6,0,1c3,0.5,3.4,3,3.4,5.2c0,0.6,0,0.9,0,1.5c0.4-0.4,0.6-0.6,1-1.1 c1.6-1.8,3.6-0.8,5.4,0.4l0,0c0.1,0.1,0.2,0.2,0.3,0.3c0.2-0.3,0.3-0.5,0.4-0.9c-0.1-0.1-0.1-0.1-0.2-0.1l-0.1-0.1 C652.4,425.3,649.8,423.7,647.7,425z"/>
    <path d="M639.3,424.1c0.6,1,1.3,2.1,1.3,5.1c0,0.1,0,0.2,0,0.3c0.4,0.1,0.6,0.1,1.1,0.2c0-0.1,0-0.3,0-0.4 c-0.1-3.3-0.7-4.4-1.5-5.6C639.8,423.8,639.6,423.9,639.3,424.1z"/>
    <path d="M626.4,422.5c0.6-0.2,1.7-0.2,2.8,0.8c0.3-0.3,0.4-0.4,0.6-0.7c-1.3-1.1-2.6-1.5-3.9-1.1c-1.3,0.4-2.3,1.6-2.5,2.7 c0,0.2,0,0.3,0,0.4c0.4,0.1,0.6,0.1,1,0.2v-0.1C624.5,423.9,625.3,422.9,626.4,422.5z"/>
    <path d="M611,412c-0.2-0.4-0.2-0.6-0.4-1c-2.2,0.5-1.9,2.8-1.7,4.3c0,0.3,0.1,0.5,0.1,0.7c0,0.1,0,0.1,0,0.2 c0.4,0.1,0.6,0.1,1,0.2c0-0.2,0-0.4,0-0.6c0-0.1,0-0.3-0.1-0.5C609.6,413.7,609.6,412.4,611,412z"/>
    <path d="M571.1,424.1c0-0.2,0.1-0.4,0.1-0.5c0.4-1.3,1.1-1.8,1.7-2.3c0.5-0.4,1-0.9,1-1.6c-0.1,0-0.2,0.1-0.4,0 c-0.1-0.4-0.2-0.6-0.3-1c0.2-0.1,0.4,0,0.5,0c-0.3-1.5-1.4-2.8-2.6-3.4c-0.9-0.5-3-1-5.5,0.9c0.3,0.3,0.4,0.5,0.7,0.8 c1.6-1.3,3.1-1.5,4.4-0.9c1.1,0.6,1.9,1.8,2.1,3.1c0.1,0.5-0.1,0.7-0.7,1.2c-0.6,0.5-1.6,1.3-2,3c0,0.1-0.1,0.2-0.1,0.4 C570.4,424,570.6,424,571.1,424.1z"/>
    <path d="M577.9,421c0.3-0.2,0.5-0.3,0.8-0.5c-0.7-1.3-2.8-2-4.9-1.9c-0.2,0-0.4,0-0.5,0c0.1,0.4,0.2,0.6,0.3,1 c0.1,0,0.2-0.1,0.4,0C575.8,419.5,577.3,420.2,577.9,421z"/>
    <path d="M574.2,407.1c0.2-0.3,0.3-0.5,0.4-0.9c-2-1.4-5.6-2.5-7.4-1.3c-0.1,0.1-0.2,0.1-0.2,0.2c0.3,0.3,0.4,0.5,0.7,0.8l0.1-0.1 C569.2,405.1,572.2,405.8,574.2,407.1z"/>
    <path d="M579.8,402c0.1,0.4,0.2,0.6,0.3,1.1c0.2-0.3,0.4-0.5,0.6-0.8c2.7-3.7,4.5-3.7,5.3-3.6c0.7,0.1,1,0.7,1,0.8 c0.4-0.1,0.6-0.1,0.9-0.2c-0.4-0.8-1.1-1.3-1.9-1.6c-1.2-0.3-3.2,0.1-5.7,3.2c-1.2-2.3-3.5-2.6-5.2-2.7c-0.3-0.1-0.5-0.1-0.8-0.1 c0,0.4,0,0.6,0,1c0.2,0,0.5,0.1,0.8,0.1C577.5,399.4,579.1,399.7,579.8,402z"/>
    <path d="M603.9,408.5c0.2,0.4,0.3,0.6,0.5,1c0.2-0.4,0.2-0.6,0.4-1c1-2.6,2.2-2.5,3.9-2.3c0.4,0.1,0.8,0,1.2,0.1 c-0.1-0.4-0.1-0.6-0.2-1.1c-0.4,0-0.7,0-1.1-0.1c-1.5-0.2-3.1-0.4-4.4,1.9c-2.8-4.8-7.2-8.3-10.2-7.7c0.2,0.4,0.2,0.6,0.4,1 C596.8,400,601.2,403.1,603.9,408.5z"/>
    <path d="M630.9,416.5c0.3,0.4,0.4,0.6,0.7,1c0.2-0.2,0.3-0.3,0.4-0.4c1.9-2.3,3.5-2,5.6-1.7c0-0.4,0-0.6,0-1c-2-0.3-3.9-0.6-6,1.5 c-1.5-2.1-4.4-6.2-8.9-4.9c0.2,0.4,0.2,0.6,0.4,1C626.9,410.9,629.4,414.4,630.9,416.5z"/>
    <path d="M586.3,411.4c-0.7-0.4-1.5-0.6-2.4-0.6c-1.1,0-2.1,0.5-2.7,1.3c0.4,0.3,0.6,0.4,0.9,0.7c0.4-0.6,1.1-0.9,2-1 c0.8,0,1.7,0.3,2.5,0.8c0.4,0.3,0.6,0.4,0.9,0.7c0-0.4-0.1-0.6-0.1-1c-0.2-1.5,0.2-2.5,1-2.9c0.4-0.2,0.9-0.2,1.3,0 c0.2-0.3,0.2-0.5,0.4-0.9c-0.7-0.5-1.6-0.6-2.3-0.2C586.8,409,586.3,410,586.3,411.4z"/>
    <path d="M575.3,329.1c1.2,2.1,1.8,3.2,3,5.3c-1,1.8-1.6,2.7-2.6,4.5c2.2,0.3,3.4,0.5,5.6,0.8 c1.2,2.2,1.9,3.2,3.1,5.4c1.1-1.8,1.7-2.7,2.8-4.6c2.2,0.3,3.2,0.5,5.4,0.8c-1.2-2.1-1.8-3.2-2.9-5.3c1-1.8,1.5-2.7,2.4-4.5 c-2.2-0.3-3.3-0.5-5.5-0.8c-1.2-2.1-1.8-3.1-3-5.2c-1,1.8-1.5,2.6-2.5,4.4C578.8,329.6,577.7,329.5,575.3,329.1z" fill="#FFD700"/>
    <path d="M569.7,341.8c3.9,0.5,5.9,0.7,9.7,1.3c2.1,3.6,3.1,5.4,5.1,9c1.9-3.1,2.8-4.6,4.7-7.7c3.8,0.5,5.7,0.8,9.5,1.3 c-2-3.7-3.1-5.5-5.1-9.2c1.7-3.2,2.5-4.7,4.2-7.9c-3.7-0.5-5.6-0.8-9.4-1.3c-2.1-3.7-3.1-5.5-5.2-9.2c-1.8,3.1-2.7,4.7-4.4,7.9 c-4-0.5-6-0.8-10.1-1.3c2.1,3.7,3.2,5.5,5.3,9.1C572.3,337,571.4,338.6,569.7,341.8z M586.6,330.7c2.2,0.3,3.3,0.5,5.5,0.8 c-1,1.8-1.5,2.7-2.4,4.5c1.2,2.1,1.8,3.2,2.9,5.3c-2.1-0.3-3.2-0.5-5.4-0.8c-1.1,1.8-1.7,2.7-2.8,4.6c-1.2-2.1-1.8-3.2-3.1-5.3 c-2.2-0.3-3.3-0.5-5.6-0.8c1-1.8,1.5-2.7,2.5-4.5c-1.2-2.1-1.8-3.1-3-5.2c2.4,0.3,3.6,0.5,5.9,0.8c1-1.8,1.5-2.6,2.5-4.4 C584.8,327.7,585.4,328.7,586.6,330.7z"/>
    <path d="M540.3,330.2c1.6,1.9,2.4,2.8,3.9,4.6c-0.6,2-0.9,3.1-1.5,5.1c2.2-0.2,3.3-0.3,5.4-0.5 c1.7,1.9,2.5,2.9,4.2,4.8c0.6-2.1,1-3.1,1.6-5.2c2.3-0.2,3.4-0.3,5.7-0.4c-1.7-1.9-2.5-2.8-4.2-4.7c0.7-2,1.1-3,1.8-5.1 c-2.2,0.2-3.3,0.3-5.6,0.4c-1.7-1.9-2.6-2.8-4.3-4.7c-0.6,2-0.9,3.1-1.5,5.1C543.6,329.9,542.5,330,540.3,330.2z" fill="#FFD700"/>
    <path d="M537.2,344c3.9-0.3,5.9-0.4,9.8-0.7c2.9,3.2,4.3,4.8,7.2,8.1c1.1-3.5,1.6-5.3,2.7-8.8c4-0.3,6-0.4,9.9-0.7 c-2.9-3.3-4.3-4.9-7.2-8.2c1.3-3.5,1.9-5.3,3.2-8.8c-4,0.2-6,0.4-10,0.6c-2.9-3.3-4.4-4.9-7.3-8.2c-1.1,3.5-1.6,5.3-2.7,8.8 c-3.9,0.3-5.8,0.5-9.7,0.8c2.8,3.2,4.1,4.8,6.9,8.1C538.8,338.5,538.3,340.4,537.2,344z M551.7,329.3c2.2-0.1,3.4-0.2,5.6-0.3 c-0.7,2-1.1,3-1.8,5.1c1.7,1.9,2.5,2.8,4.2,4.7c-2.3,0.2-3.4,0.2-5.7,0.4c-0.6,2-1,3.1-1.6,5.1c-1.7-1.9-2.5-2.8-4.2-4.7 c-2.2,0.2-3.2,0.2-5.4,0.4c0.6-2,0.9-3,1.5-5c-1.6-1.9-2.4-2.8-4-4.7c2.2-0.2,3.3-0.3,5.5-0.5c0.7-2,1-3.1,1.6-5.1 C549.1,326.5,550,327.4,551.7,329.3z"/>
    <path d="M511,340.3c-0.2,2.2-0.3,3.3-0.6,5.5c2.2-0.6,3.2-1,5.4-1.6c2.1,1.5,3.1,2.2,5.1,3.7 c0.1-2.2,0.1-3.3,0.2-5.5c2.2-0.7,3.3-1,5.5-1.6c-1.9-1.5-2.9-2.3-4.9-3.8c0.1-2.2,0.2-3.3,0.3-5.5c-2.2,0.7-3.3,1-5.6,1.7 c-2-1.5-2.9-2.3-4.9-3.8c-0.2,2.2-0.3,3.3-0.5,5.5c-2.2,0.7-3.2,1-5.4,1.7C507.9,338,508.9,338.7,511,340.3z" fill="#FFD700"/>
    <path d="M505.9,351.2c3.9-1.2,5.8-1.8,9.6-3c3.6,2.7,5.4,4,9,6.7c0.2-3.8,0.3-5.8,0.5-9.6c3.7-1.2,5.6-1.8,9.3-2.9 c-3.4-2.7-5.1-4-8.5-6.7c0.2-3.8,0.3-5.8,0.5-9.6c-3.7,1.1-5.6,1.7-9.3,2.8c-3.4-2.6-5.1-3.9-8.5-6.6c-0.4,3.8-0.5,5.7-0.9,9.6 c-3.8,1.2-5.7,1.9-9.6,3.1c3.6,2.6,5.4,4,9,6.6C506.5,345.4,506.3,347.3,505.9,351.2z M511.7,329.2c2,1.5,3,2.3,4.9,3.8 c2.2-0.7,3.3-1,5.5-1.7c-0.1,2.2-0.1,3.3-0.2,5.5c1.9,1.5,2.9,2.3,4.8,3.8c-2.2,0.7-3.3,1-5.4,1.7c-0.1,2.2-0.1,3.3-0.2,5.5 c-2-1.5-3.1-2.3-5.1-3.8c-2.1,0.6-3.2,1-5.4,1.6c0.2-2.2,0.3-3.3,0.6-5.5c-2.1-1.5-3.1-2.3-5.2-3.8c2.2-0.7,3.2-1,5.4-1.7 C511.4,332.5,511.5,331.4,511.7,329.2z"/>
    <path d="M611.2,339.9c-1.1,1.7-1.7,2.5-2.8,4.1c2.2,0.5,3.4,0.8,5.6,1.3c1,2.1,1.5,3.2,2.5,5.3 c1.2-1.6,1.8-2.5,3-4.1c2.2,0.5,3.3,0.7,5.5,1.2c-1-2.1-1.5-3.2-2.5-5.4c1.2-1.7,1.8-2.5,3-4.2c-2.2-0.5-3.3-0.7-5.5-1.2 c-1.1-2.2-1.7-3.3-2.8-5.5c-1.2,1.7-1.9,2.6-3.1,4.3c-2.2-0.5-3.3-0.7-5.4-1.2C609.7,336.7,610.2,337.7,611.2,339.9z" fill="#FFD700"/>
    <path d="M611.8,348.4c1.8,3.8,2.6,5.7,4.4,9.4c2.1-2.9,3.2-4.4,5.3-7.3c3.9,0.8,5.8,1.2,9.8,2.1c-1.8-3.8-2.7-5.6-4.4-9.4 c2.1-2.9,3.2-4.4,5.4-7.3c-4-0.8-6-1.2-9.9-2.1c-1.9-3.7-2.9-5.6-4.8-9.4c-2.1,2.9-3.1,4.3-5.2,7.2c-3.8-0.8-5.7-1.3-9.5-2.1 c1.7,3.8,2.5,5.7,4.3,9.4c-1.9,2.9-2.8,4.4-4.7,7.3C606.2,347.1,608,347.6,611.8,348.4z M617.2,331.4c1.1,2.2,1.7,3.3,2.8,5.5 c2.2,0.5,3.3,0.7,5.5,1.2c-1.2,1.7-1.8,2.5-3,4.2c1,2.1,1.5,3.2,2.5,5.4c-2.3-0.5-3.4-0.7-5.6-1.2c-1.2,1.6-1.8,2.5-3,4.1 c-1-2.1-1.5-3.2-2.5-5.3c-2.3-0.5-3.4-0.7-5.6-1.2c1.1-1.7,1.7-2.5,2.8-4.2c-1-2.2-1.5-3.2-2.5-5.4c2.2,0.5,3.3,0.7,5.5,1.2 C615.4,334,616,333.1,617.2,331.4z"/>
    <path d="M645.5,349.5c-1.6,1.4-2.3,2-3.9,3.4c2.2,0.9,3.3,1.4,5.5,2.3c0.6,2.2,0.9,3.4,1.5,5.6 c1.7-1.4,2.6-2.1,4.3-3.4c2.2,0.9,3.3,1.3,5.4,2.2c-0.7-2.2-1-3.4-1.6-5.6c1.7-1.3,2.6-2,4.3-3.4c-2.3-0.9-3.5-1.3-5.8-2.2 c-0.7-2.2-1-3.4-1.6-5.6c-1.7,1.3-2.5,2-4.2,3.3c-2.2-0.9-3.2-1.3-5.4-2.2C644.6,346.1,644.9,347.2,645.5,349.5z" fill="#FFD700"/>
    <path d="M644,357.6c1.1,3.9,1.6,5.8,2.7,9.7c2.9-2.3,4.3-3.4,7.3-5.8c3.9,1.5,5.9,2.3,9.8,3.8c-1.1-3.9-1.6-5.8-2.7-9.7 c3-2.4,4.5-3.6,7.5-6c-4.1-1.6-6.1-2.3-10.2-3.9c-1.1-3.9-1.6-5.8-2.7-9.7c-3,2.3-4.4,3.4-7.4,5.7c-3.9-1.5-5.8-2.3-9.7-3.8 c1.1,3.9,1.6,5.9,2.7,9.8c-2.7,2.4-4,3.5-6.7,5.9C638.3,355.2,640.2,356,644,357.6z M653.6,342.7c0.6,2.2,1,3.4,1.6,5.6 c2.3,0.9,3.5,1.3,5.8,2.2c-1.7,1.3-2.6,2-4.3,3.4c0.7,2.2,1,3.4,1.6,5.6c-2.2-0.8-3.3-1.2-5.4-2.1c-1.7,1.3-2.5,2-4.2,3.3 c-0.6-2.2-1-3.4-1.6-5.6c-2.2-0.9-3.3-1.3-5.5-2.2c1.6-1.3,2.4-2,4-3.4c-0.6-2.2-1-3.4-1.6-5.6c2.1,0.8,3.2,1.3,5.4,2.1 C651,344.7,651.9,344.1,653.6,342.7z"/>
    <path d="M679.6,362.7c-2,0.9-3.1,1.4-5.1,2.4c2.1,1.3,3.2,1.9,5.3,3.2c0.1,2.2,0.2,3.4,0.3,5.6 c2.1-0.9,3.1-1.4,5.1-2.3c2.2,1.3,3.3,1.9,5.5,3.2c-0.1-2.3-0.2-3.4-0.3-5.7c2-0.9,3-1.4,4.9-2.3c-2.2-1.3-3.3-2-5.5-3.3 c-0.1-2.2-0.2-3.4-0.3-5.6c-2.1,0.9-3.1,1.4-5.2,2.4c-2.1-1.3-3.1-1.9-5.2-3.2C679.4,359.4,679.5,360.5,679.6,362.7z" fill="#FFD700"/>
    <path d="M666.7,364.3c3.7,2.3,5.6,3.4,9.4,5.7c0.2,3.9,0.3,5.8,0.4,9.7c3.6-1.6,5.4-2.4,9-4.1c3.8,2.2,5.6,3.3,9.4,5.5 c-0.2-3.9-0.3-5.8-0.4-9.7c3.5-1.7,5.2-2.5,8.7-4.2c-3.8-2.2-5.7-3.3-9.5-5.6c-0.2-3.9-0.3-5.8-0.4-9.7c-3.6,1.6-5.5,2.5-9.1,4.1 c-3.8-2.3-5.8-3.4-9.6-5.7c0.4,3.9,0.6,5.9,1,9.8C672,361.9,670.2,362.7,666.7,364.3z M689.6,358c0.1,2.2,0.1,3.3,0.2,5.6 c2.2,1.3,3.3,2,5.5,3.3c-1.9,1-2.9,1.5-4.8,2.4c0.1,2.2,0.1,3.3,0.2,5.6c-2.2-1.3-3.3-1.9-5.5-3.2c-2.1,0.9-3.1,1.4-5.1,2.4 c-0.1-2.2-0.1-3.3-0.2-5.6c-2.1-1.3-3.2-1.9-5.3-3.2c2-0.9,3.1-1.4,5.1-2.4c-0.2-2.3-0.3-3.4-0.5-5.6c2.1,1.3,3.2,1.9,5.3,3.1 C686.5,359.4,687.5,358.9,689.6,358z"/>
    <path d="M691.1,509.9c-0.4-0.2-1.9,0.6-2.7,1c-1.3,0.7-3,1.5-4.9,1.8c2.4,3.6,3.7,5.4,6.1,9c0.4-0.5,0.6-0.7,1-1.2 c1.8-2.9,2.5-5.4,2.6-6.3C692.1,510.4,691.2,510,691.1,509.9z" fill="#FFFFFF"/>
    <path d="M678.3,510.2c-0.2,0.1-0.3,0.2-0.6,0.3c0.4,0.5,0.5,0.8,0.9,1.4c-0.1-0.3-0.1-0.5-0.2-0.9 C678.4,510.7,678.4,510.5,678.3,510.2z"/>
    <path d="M690.7,520.5c-0.4,0.5-0.6,0.7-1,1.2c-2.5-3.6-3.7-5.4-6.1-9c-1,0.2-2.1,0.2-3.2,0c-0.5-0.1-0.7-0.2-1.2-0.3 c3.4,5,5.1,7.4,8.5,12.4C688.8,523.3,689.9,521.9,690.7,520.5z"/>
    <path d="M629.8,549.2c1.6-0.4,3.2-1.1,4-1.6c0-0.7-0.1-1.1-0.1-1.8c-1.2-1.3-5.1-2.8-8.6-3.9 c0.2,2.9,0.2,4.4,0.4,7.3C626.7,549.4,628.3,549.4,629.8,549.2z" fill="#FFFFFF"/>
    <path d="M633.8,548.4c0-0.1,0-0.1,0-0.2c0-0.1,0.1-0.1,0.1-0.2c0.3-1.3,0.1-1.7,0-2c0-0.1-0.1-0.1-0.2-0.2c0,0.7,0.1,1.1,0.1,1.8 c-0.8,0.5-2.3,1.3-4,1.6c-1.5,0.3-3.1,0.2-4.3,0.1c-0.2-2.9-0.2-4.4-0.4-7.3c-0.2,0-0.3-0.2-0.5-0.2c-1.7-0.4-2.6-1.6-3.1-2.4 c0-0.1-0.1-0.1-0.1-0.2c0.2,4.1,0.3,6.2,0.5,10.3C632,550.1,633.7,548.6,633.8,548.4z"/>
    <path d="M570.9,539c1.5,0.6,3.1,1,4.1,1.2c0.2-2.8,0.3-4.2,0.4-6.9c-2.2-0.1-8.1-0.1-9,1.1c-0.1,0.1-0.2,0.4,0,1.3 c0.1,0.2,0.1,0.3,0.2,0.5C567.4,536.9,569.1,538.1,570.9,539z" fill="#FFFFFF"/>
    <path d="M578.6,541.5c0.3-4.1,0.4-6.2,0.6-10.3c-0.1,0.3-0.2,0.6-0.4,0.8c-0.5,0.6-1.5,1.4-3.2,1.3h-0.1c-0.2,2.8-0.3,4.2-0.4,6.9 c-1.2-0.3-2.6-0.6-4.1-1.2c-1.8-0.7-3.5-2-4.2-2.6c-0.1-0.2-0.1-0.3-0.2-0.5c0,0.1,0.1,0.3,0.1,0.5c0,0.1,0.1,0.2,0.1,0.3l0,0 C567.8,537.9,572.3,539.7,578.6,541.5z"/>
    <path d="M509.9,493c2.5-2.9,3.8-4.3,6.3-7.1c-2-0.8-3.7-2.2-5.1-3.2c-0.9-0.6-2.4-1.8-2.8-1.7c0,0-0.9,0.2-2.1,3.6 c0.2,1.1,1.1,4.1,3.4,7.9C509.6,492.6,509.7,492.7,509.9,493z" fill="#FFFFFF"/>
    <path d="M516.2,485.8c-2.5,2.9-3.8,4.3-6.3,7.1c-0.1-0.2-0.2-0.3-0.3-0.6c0.8,1.3,1.6,2.7,2.7,4.1c3.5-3.9,5.2-5.8,8.6-9.7 c-0.5,0-0.7,0-1.2-0.1C518.3,486.5,517.2,486.3,516.2,485.8z"/>
    <path d="M521.2,486.3c0.4-0.4,0.5-0.6,0.9-1c-0.2-0.2-0.3-0.4-0.6-0.6c0,0.2-0.1,0.5-0.1,0.7C521.3,485.8,521.3,486,521.2,486.3z"/>
    <path d="M589.1,555.1c1,0.2,1.5,0.3,2.5,0.4c1.5,0.3,1.9-2.7-0.1-3.1c-0.9-0.2-1.4-0.2-2.4-0.4 C589.1,553.3,589.1,553.9,589.1,555.1L589.1,555.1z" fill="#FFFFFF"/>
    <path d="M601.7,559c-0.7-1.8-1-2.7-1.7-4.4c-0.5,1.6-0.8,2.3-1.3,3.9C599.9,558.7,600.5,558.8,601.7,559z" fill="#FFFFFF"/>
    <path d="M600.3,566.1c9.5,1.7,25,5.6,33.5-1.3c0-1.6,0-2.4,0-4c0-3.3,0-5,0-8.3c-9.9,2.2-21,0-30.7-1.7 c-9.3-1.7-18.9-4-26.2-6.2c-4.6-1.4-8.1-2.7-10.3-4c0,3.5,0,5.2,0,8.6c0,1.6,0,2.4,0,4C572.8,562.1,591.3,564.5,600.3,566.1z M605.7,562.2c2.3-2.5,3.5-3.7,5.8-6.2c-2-0.4-3.1-0.5-5.1-0.9c0-0.7,0-1,0-1.7c3.2,0.6,4.9,0.9,8.1,1.4c0,0.7,0,1,0,1.7 c-2.5,2.5-3.7,3.7-6.1,6.1c2.4,0.4,3.7,0.6,6.1,1.1c0,0.8,0,1.2,0,2.1c-3.6-0.6-5.3-0.9-8.8-1.5 C605.7,563.5,605.7,563.1,605.7,562.2z M601.3,552.5c1.7,4.7,2.6,7.1,4.3,11.8c-0.9-0.2-1.4-0.2-2.3-0.4c-0.4-1.2-0.6-1.8-1-3 c-1.7-0.3-2.6-0.5-4.3-0.8c-0.4,1-0.6,1.6-1,2.6c-0.9-0.2-1.4-0.3-2.3-0.4c1.7-4.1,2.6-6.1,4.4-10.2l0,0 C599.9,552.2,600.4,552.3,601.3,552.5z M586.8,549.9c2.1,0.4,3.1,0.6,5.2,0.9c2,0.4,3.3,1.7,3.3,3.8c0,2.2-0.9,2.8-2.2,2.9 c-1.7,0.1-3.8-0.4-3.8-0.4c0,1.6,0,2.5,0,4.1c-1-0.2-1.5-0.3-2.5-0.4C586.8,556.4,586.8,554.3,586.8,549.9L586.8,549.9 L586.8,549.9z" fill="#FFFFFF"/>
    <path d="M633.8,560.9c0,1.6,0,2.4,0,4c-8.6,6.7-23.9,3-33.5,1.3c-8.9-1.6-27.7-3.9-33.7-12.8c0-1.6,0-2.4,0-4 c-0.8-0.1-1.1-0.2-1.9-0.3c-0.1,0-0.7-0.1-1.8-0.4c0,1.6,0,2.5,0,4.1c0,3.7,4.3,7.2,12.8,10.5c6.6,2.6,15.6,4.9,24.7,6.6 c9.6,1.7,31.7,6.6,37.2-4.2c0-1.6,0-2.5,0-4.1c-1.1-0.2-1.7-0.2-1.8-0.2C634.9,561.2,634.6,561.1,633.8,560.9z"/>
    <path d="M577,544.6c7.3,2.3,16.9,4.5,26.2,6.2c9.7,1.8,20.9,3.9,30.7,1.7c0-1.7,0-2.5,0-4.2c-0.1,0.2-1.8,1.7-11.9,1.2 c-0.1,0-0.2,0-0.4-0.1c-14.5-1-28.9-4-42.9-8c-6.4-1.8-10.9-3.6-12-4.9c0,1.6,0,2.4,0,4C568.9,541.9,572.3,543.2,577,544.6z"/>
    <path d="M536,529.5c1-2.3,0.8-3.7-3-5.5c-1,2.4-1.5,3.7-2.5,6.1C534,532.4,535,531.7,536,529.5z" fill="#FFFFFF"/>
    <path d="M562.9,545c0-3.4,0-5.1,0-8.4c-0.5-1.9-0.4-3.5,0.3-4.6c1.5-2.2,5.4-2.5,11.8-2.3c0.5,0.1,0.6-0.1,0.7-0.2 c0.2-0.3,0.3-1,0.2-1.7c-14.9-0.5-29.7-3.3-43.2-9.7c-11.5-5.7-22-15.3-27.9-26.8c-0.1,0.7-0.3,1.4-0.5,2.1 c-0.3,1.2-0.4,1.9-0.7,3.1c-0.1-0.1-0.1-0.1-0.2-0.1c-1,3.3-2.4,6.6-4.1,9.1C505.7,530.5,540.9,540.2,562.9,545z M549.8,528.8 L549.8,528.8c1.6,0.3,2.3,0.5,3.9,0.8c4,0.8,5.3,3,5.2,6.2s-1.2,5-5.2,4.3c-1.7-0.3-2.5-0.5-4.2-0.8 C549.6,535.1,549.6,533,549.8,528.8z M545.8,527.7c1,4.6,1.5,6.8,2.5,11.4c-1-0.3-1.5-0.4-2.5-0.7c-0.1-1-0.2-1.5-0.3-2.5 c-1.7-0.7-2.6-1-4.4-1.7c-0.6,0.9-0.9,1.3-1.4,2.1c-1-0.4-1.5-0.7-2.5-1.1c2.6-3.3,4-5,6.6-8.3 C544.5,527.2,544.9,527.4,545.8,527.7z M535.3,523.3c3.7,2,4.3,4.3,3.1,7.2c-1.2,2.8-3,4.1-6.7,2.3c-1.6-0.8-2.4-1.2-4.1-2 c1.6-3.8,2.5-5.6,4.1-9.4C533.1,522.1,533.8,522.5,535.3,523.3z M530.4,520.9c-1.9,3.4-2.9,5.1-4.8,8.6c-0.9-0.4-1.3-0.6-2.2-1 c2.1-3.5,3.1-5.3,5.2-8.8C529.4,520.1,529.7,520.4,530.4,520.9z M522,514.8c-0.1,3.3-0.2,4.9-0.3,8.2c1.7-2.1,2.5-3.2,4.1-5.3 c0.8,0.5,1.1,0.8,1.9,1.3c-2.4,3.2-3.5,4.9-5.9,8.1c-0.9-0.5-1.3-0.8-2.2-1.4c0.1-3.3,0.2-4.9,0.3-8.2c-1.7,2.1-2.5,3.2-4.1,5.3 c-0.8-0.5-1.1-0.8-1.9-1.3c2.6-3.2,3.8-4.8,6.4-8C520.9,514,521.3,514.3,522,514.8z M508.2,510.6c1.8-1.6,2.7-2.4,4.5-4l0,0 c0.8,0.6,1.1,1,1.9,1.6c-1.7,1.4-2.5,2.1-4.2,3.5c-1.7,1.4-2,2.5-0.9,3.6c1.5,1.4,2.5,1.2,3.9-0.1c1.8-1.5,2.7-2.3,4.5-3.8 c0.6,0.6,0.9,0.9,1.4,1.5c-1.8,1.7-2.7,2.5-4.5,4.2c-2.5,2.2-4.7,1.4-6.6-0.5C506.7,515,505.7,512.8,508.2,510.6z" fill="#FFFFFF"/>
    <path d="M556.5,535.6c0.1-2.7-0.5-3.9-4.5-4.5l0,0c0,2.8-0.1,4.1-0.1,6.9C555.7,539.1,556.3,538.1,556.5,535.6z" fill="#FFFFFF"/>
    <path d="M544.3,529.5c-0.9,1.4-1.3,2.1-2.2,3.5c1.2,0.3,1.8,0.5,2.9,0.8C544.8,532,544.6,531.2,544.3,529.5z" fill="#FFFFFF"/>
    <path d="M509.5,492.4c-2.2-3.9-3.1-6.9-3.4-7.9c0,0.1-0.1,0.2-0.1,0.3c-0.7,3.4-1,5.1-1.7,8.5c0.2-0.7,0.3-1.4,0.5-2.1 c5.9,11.5,16.4,21.1,27.9,26.8c13.5,6.4,28.4,9.2,43.2,9.7c0.1,0.7,0,1.3-0.2,1.7c0,0.1-0.1,0.2-0.7,0.2 c-6.4-0.2-10.2,0.1-11.8,2.3c-0.7,1.1-0.9,2.6-0.3,4.6c0,3.4,0,5.1,0,8.4c-22-4.6-57.3-14.6-63.5-39.6c1.7-2.5,3.1-5.9,4.1-9.1 c-0.9-0.6-1.3-0.9-2.1-1.4c-0.5-0.3-0.9-0.6-1.4-0.9c-1,3.5-2.4,7.2-4.3,9.6c-0.2,0.2-0.3,0.3-0.5,0.6c0,0.3,0.1,0.4,0.1,0.7 c4.7,18.4,22.2,27.5,38.2,34.8c9.7,3.5,19.3,6.9,29.4,9c1.1,0.2,1.7,0.4,1.8,0.4c0.8,0.1,1.1,0.2,1.9,0.3c0-3.5,0-5.2,0-8.6 c0-1.6,0-2.4,0-4l0,0c0-0.1-0.1-0.2-0.1-0.3c-0.1-0.2-0.1-0.3-0.1-0.5c-0.2-1-0.1-1.3,0-1.3c1-1.3,6.8-1.1,9-1.1h0.1 c1.8,0.1,2.8-0.7,3.2-1.3c0.2-0.3,0.3-0.5,0.4-0.8c0.9-2,0.1-4.9-0.1-5.5c-0.1-0.3-0.1-0.4-0.2-0.7c-0.1-0.4-0.2-0.5-0.3-0.9 c-0.6,0-0.9,0-1.6,0c-0.1,0-1.8,0-4.6-0.2c-13.6-0.7-25.8-3.9-38.4-9c-8.2-5.2-16.3-10.2-22-18.4 C511.1,495.1,510.2,493.6,509.5,492.4z"/>
    <path d="M695.9,525.1c-0.4-1.4-0.8-2.7-1.1-3.8c-5.9,10.9-15.9,15.1-27.1,19c-14.1,3.1-29.8,0.1-43.3-4 c-0.1,0.7-0.1,1.5,0.1,1.9c0,0,0.1,0.1,0.5,0.3c6.5,2,10.3,3.5,12,6.3c0.8,1.4,1.1,2.8,0.6,4.6c0,1.6,0,2.5,0,4.1 c0.5,0,0.8,0,1.3,0c0.4,1.8,1.2,2.1,2,2c0.6-0.1,1.1-1.1,0.9-2.2c-0.4-2.5-0.6-3.8-1.1-6.3c0.9,0,1.3,0,2.1,0 c0.4,2.5,0.6,3.8,1.1,6.3c0.4,2.2-0.6,3.6-2.3,3.9c-1.5,0.3-3.2-0.3-4-2c0,1.1,0,1.7,0,2.8c19,2.1,57.1,3.2,63.1-20.9 c-1.7-2.9-3.1-6.6-4.3-10.1c-0.2,0.1-0.3,0.1-0.6,0.2C695.9,526.4,695.9,526,695.9,525.1L695.9,525.1z M650.5,557.1 c-2.2,0.1-4.4-0.8-5.2-4.2c-0.5-2.5-0.7-3.7-1.2-6.1c0.9,0,1.3,0,2.1-0.1c0.4,2.1,0.6,3.2,1,5.3c0.4,2.2,1.2,3.3,2.7,3.3 c1.8,0,2.1-1,1.6-3c-0.5-2.3-0.8-3.4-1.3-5.6c0.9,0,1.3,0,2.2,0c0.6,2.3,0.8,3.5,1.4,5.9C654.8,556,653,557,650.5,557.1z M661.1,555.9c-2.8,0.6-5.3-0.9-5.8-2.7l0,0c0.7-0.2,1.1-0.3,1.8-0.4c0.9,1.7,2.3,1.8,3.4,1.5c1.5-0.4,1.6-1.6,1-2.1 c-1.1-0.8-3.6-0.3-4.9-0.9c-1.6-0.8-2.3-1.8-2.3-3.1c0.1-1.6,1.6-2.2,3.2-2.5c1.9-0.2,3.6,0.2,4.8,2.5c-0.9,0.2-1.3,0.2-2.2,0.4 c-0.8-1.2-1.6-1.3-2.4-1.1c-0.7,0.2-1.7,0.6-1.2,1.6c0.4,0.8,3.2,0.8,4.6,1c1.4,0.3,2.6,1.3,2.8,2.7 C664.1,554.5,663.4,555.4,661.1,555.9z M668.8,554.5c-1.4-3.4-2.2-5.1-3.6-8.4c-1.2,0.4-1.8,0.5-3,0.9c-0.3-0.7-0.5-1.1-0.8-1.9 c3.2-0.8,4.8-1.1,8-1.9c0.3,0.6,0.5,0.9,0.8,1.4c-1.1,0.5-1.7,0.7-2.9,1.1c1.3,3.2,2,4.8,3.3,8C669.9,554,669.6,554.2,668.8,554.5 z M675.1,552.7c-2.1-3.9-3.1-5.8-5.2-9.7c0.8-0.3,1.1-0.5,1.9-0.8c2.1,3.9,3.1,5.8,5.2,9.7C676.2,552.2,675.9,552.4,675.1,552.7z M680.3,550.1c-5.7-0.9-6.2-6.7-5.3-8.5c1.4-3,5.7-2.3,7.4-0.3c-0.7,0.4-1.1,0.7-1.8,1.1c-1.2-1.6-3.8-1-4,0.2 c-0.3,2,0.7,4.1,2.8,5.3c1.7,1.1,4.3-0.6,3.1-2.5l0,0c0.9-0.2,1.3-0.2,2.2-0.4C685.8,547.3,684.2,550.8,680.3,550.1z M688.2,547.3 c-2.7-3.7-4-5.5-6.7-9.1c0.8-0.4,1.1-0.6,1.9-1.1c2.7,3.7,4,5.5,6.7,9.1C689.3,546.7,688.9,546.9,688.2,547.3z M699,540.1 c-0.8,0.4-1.2,0.7-1.9,1.1c-0.9-0.5-1.4-0.8-2.2-1.3c-1.4,0.9-2,1.4-3.4,2.3c0.4,0.9,0.7,1.3,1.1,2.2c-0.7,0.6-1.1,0.9-1.8,1.5 c-1.7-4.3-2.5-6.5-4.1-10.8c0.8-0.4,1.1-0.6,1.9-1.1C692.7,536.5,694.8,537.7,699,540.1z" fill="#FFFFFF"/>
    <path d="M693,538.7c-1.5-0.9-2.2-1.3-3.7-2.2c0.6,1.6,0.9,2.4,1.5,4C691.6,539.8,692.1,539.4,693,538.7z" fill="#FFFFFF"/>
    <path d="M621.9,531.8c-0.2,0.5-0.2,0.7-0.4,1.2c0,0.1-0.1,0.1-0.1,0.2c-0.2,0.6-1.4,3.7-0.1,6.3c0,0.1,0.1,0.1,0.1,0.2 c0.5,0.8,1.4,1.9,3.1,2.4c0.2,0,0.3,0.2,0.5,0.2c3.5,1.1,7.4,2.5,8.6,3.9c0.1,0.1,0.1,0.1,0.2,0.2c0.1,0.1,0.4,0.6,0,2 c0,0.1-0.1,0.1-0.1,0.2c0,0.1,0,0.1,0,0.2c0,1.7,0,2.5,0,4.2c0,3.3,0,5,0,8.3c0.8,0.1,1.1,0.2,1.9,0.3c0.1,0,0.7,0.1,1.8,0.2 c9.8,1.2,19.4,0.8,29.3,0.2c14.8-1.1,34.3-7.7,37.9-24.1c0-0.3,0.1-0.4,0.1-0.7c-0.2-0.3-0.3-0.4-0.5-0.7 c-1.8-2.9-3.3-6.9-4.5-10.7c-0.3,0.2-0.7,0.3-1.1,0.5c-0.9,0.4-1.4,0.6-2.4,0.9c1.1,3.5,2.5,7.1,4.3,10.1 c-6.1,24-44.2,23-63.1,20.9c0-1.1,0-1.7,0-2.8c-0.2-0.4-0.4-1-0.4-1.6c0.2,0,0.3,0,0.4,0c0-1.6,0-2.5,0-4.1 c0.4-1.8,0.2-3.4-0.6-4.6c-1.7-2.6-5.5-4.3-12-6.3c-0.4-0.1-0.4-0.2-0.5-0.3c-0.2-0.3-0.2-1.1-0.1-1.9c13.5,4.2,29.3,7.1,43.3,4 c11.2-3.9,21.2-8,27.1-19c0.3,1.2,0.7,2.6,1.1,3.8c0-0.5,0-0.7,0-1.2c-1-3.8-1.5-5.6-2.6-9.4c0-0.1-0.1-0.2-0.1-0.3 c-0.2,0.9-0.9,3.3-2.6,6.3c-0.8,1.3-1.8,2.8-3.1,4.4c-3.9,4.5-10.5,9.4-21.1,11.8c-9.9,2-21.8,1-31.5-1.4 c-6.7-1.5-11.2-3-11.3-3.1C622.8,532.2,622.5,532.1,621.9,531.8z"/>
    <path d="M500.8,490.4c0.6-2.8,0.9-4.2,1.5-7c1.2-3.8,2.7-5.7,4.7-6c2.2-0.4,4.4,1.1,6.3,2.6c1.5,1,2.8,2.2,4.5,2.8 c-0.2-3.4-3.4-7.1-7.4-11.6c-3.2-3.7-6.7-7.7-9.3-12.4c-0.9,5.2-2.3,9.5-3.4,13.2C494.9,480.8,493.7,485.1,500.8,490.4z" fill="#FFFFFF"/>
    <path d="M499.9,493.9c0.5,0.3,0.9,0.6,1.4,0.9c0.9,0.6,1.3,0.9,2.1,1.4c0.1,0.1,0.1,0.1,0.2,0.1c0.3-1.2,0.4-1.9,0.7-3.1 c0.7-3.4,1-5.1,1.7-8.5c0-0.1,0.1-0.2,0.1-0.3c1.1-3.3,2-3.6,2.1-3.6c0.4,0,1.9,1.1,2.8,1.7c1.5,1.1,3.1,2.4,5.1,3.2 c1,0.5,2.1,0.7,3.3,0.9c0.5,0,0.7,0,1.2,0.1c0.1,0,0.2,0,0.3,0c0-0.2,0.1-0.3,0.1-0.5c0.1-0.3,0.1-0.5,0.2-0.8 c0-0.2,0.1-0.5,0.1-0.7c0.8-5.3-3.5-10.4-8.2-15.8c-4.7-5.3-10-11.4-11.2-18.9c-1.6-0.1-2.4-0.2-3.9-0.3 c-0.6,8.8-2.6,15.3-4.2,20.5C491,480.1,488.9,486.5,499.9,493.9z M497.6,471.9c1.1-3.7,2.5-8,3.4-13.2c2.5,4.7,6.1,8.7,9.3,12.4 c3.9,4.5,7.1,8.1,7.4,11.6c-1.6-0.5-3-1.7-4.5-2.8c-2-1.5-4-3-6.3-2.6c-2,0.4-3.4,2.2-4.7,6c-0.6,2.8-0.9,4.2-1.5,7 C493.7,485.1,494.9,480.8,497.6,471.9z"/>
    <path d="M682.2,509.2c1.4-0.2,2.8-0.8,4.1-1.5c1.6-0.8,3.1-1.6,4.9-1.4c0.4,0.1,0.9,0.2,1.3,0.4 c2,0.9,3.4,3.1,4.7,7.3c0.8,3,1.2,4.5,2,7.5c7.1-3.5,5.8-7.9,2.9-17.2c-1.2-4.1-2.7-8.9-3.7-14.5c-2.5,4-5.9,7-9.1,9.8 C685.5,503.1,682.3,505.8,682.2,509.2z" fill="#FFFFFF"/>
    <path d="M683.5,512.8c1.9-0.3,3.6-1,4.9-1.8c0.8-0.4,2.4-1.1,2.7-1c0,0,0.9,0.4,2.1,4.2c0,0.1,0.1,0.2,0.1,0.3 c1,3.8,1.5,5.6,2.6,9.4c0,0.5,0,0.7,0,1.2c0,0.8,0,1.2,0,2c0.2-0.1,0.3-0.1,0.6-0.2c0.9-0.4,1.4-0.6,2.4-0.9 c0.3-0.2,0.8-0.3,1.1-0.5c11.1-4.7,9-11.9,5.9-21.6c-1.8-5.8-3.9-12.9-4.5-22.1c-1.6-0.3-2.4-0.4-3.9-0.7 c-1.3,7.1-6.4,11.7-11,15.8c-4.6,4-8.8,7.8-8.2,13.4c0,0.3,0.1,0.5,0.1,0.8c0.1,0.3,0.1,0.5,0.2,0.9c0,0.2,0.1,0.3,0.1,0.5 c0.1,0,0.2,0,0.3,0c0.5,0.1,0.7,0.2,1.2,0.3C681.4,512.9,682.5,512.9,683.5,512.8z M698.5,489.8c1,5.7,2.5,10.4,3.7,14.5 c2.9,9.4,4.1,13.7-2.9,17.2c-0.8-3-1.2-4.5-2-7.5c-1.2-4.2-2.7-6.4-4.7-7.3c-0.4-0.2-0.9-0.3-1.3-0.4c-1.8-0.2-3.4,0.6-4.9,1.4 c-1.3,0.6-2.7,1.3-4.1,1.5c0.2-3.4,3.4-6.1,7.2-9.6C692.5,496.8,696,493.8,698.5,489.8z"/>
    <path d="M508.4,516.6c1.9,1.9,4.1,2.9,6.6,0.5c1.8-1.7,2.7-2.5,4.5-4.2c-0.6-0.6-0.9-0.9-1.4-1.5c-1.8,1.5-2.7,2.3-4.5,3.8 c-1.5,1.2-2.5,1.5-3.9,0.1c-1.1-1.2-0.8-2.2,0.9-3.6c1.7-1.4,2.5-2.1,4.2-3.5c-0.8-0.6-1.1-1-1.9-1.6l0,0c-1.8,1.6-2.7,2.4-4.5,4 C505.7,512.8,506.7,515,508.4,516.6z"/>
    <path d="M515.6,522.8c1.7-2.1,2.5-3.2,4.1-5.3c-0.2,3.3-0.3,4.9-0.5,8.2c0.9,0.5,1.3,0.8,2.2,1.4c2.4-3.2,3.6-4.8,6-8.1 c-0.8-0.5-1.1-0.8-1.9-1.3c-1.6,2.1-2.5,3.2-4.1,5.3c0.2-3.3,0.3-4.9,0.5-8.2c-0.8-0.5-1.1-0.8-1.9-1.3c-2.5,3.2-3.8,4.8-6.4,8 C514.5,522.1,514.9,522.3,515.6,522.8z"/>
    <path d="M525.7,529.4c1.9-3.4,2.9-5.1,4.8-8.6c-0.7-0.5-1.1-0.8-1.8-1.3c-2.1,3.5-3.1,5.3-5.2,8.8 C524.3,528.8,524.8,529,525.7,529.4z"/>
    <path d="M531.5,532.7c3.7,1.8,5.5,0.5,6.7-2.3c1.2-2.9,0.7-5.2-3.1-7.2c-1.4-0.8-2.2-1.1-3.6-1.9c-1.6,3.7-2.5,5.6-4.1,9.4 C529.1,531.5,529.9,531.9,531.5,532.7z M533.1,524c3.9,1.8,4.1,3.2,3,5.5c-1,2.1-2,2.9-5.5,0.6C531.5,527.6,532,526.4,533.1,524z"/>
    <path d="M539.6,536.3c0.6-0.9,0.9-1.3,1.4-2.1c1.7,0.7,2.6,1,4.4,1.7c0.1,1,0.2,1.5,0.3,2.4c1,0.3,1.5,0.4,2.5,0.7 c-1-4.6-1.5-6.8-2.5-11.4c-0.9-0.3-1.3-0.4-2.2-0.6c-2.6,3.3-3.9,5-6.6,8.3C538.1,535.6,538.6,535.8,539.6,536.3z M544.3,529.5 c0.3,1.7,0.5,2.5,0.8,4.2c-1.2-0.3-1.8-0.5-2.9-0.8C543,531.6,543.5,530.9,544.3,529.5z"/>
    <path d="M558.8,535.9c0.1-3.3-1.2-5.4-5.2-6.2c-1.6-0.3-2.3-0.5-3.9-0.8l0,0c-0.2,4.2-0.3,6.3-0.4,10.5c1.7,0.3,2.5,0.5,4.2,0.8 C557.5,540.9,558.7,539.1,558.8,535.9z M551.9,531L551.9,531c4,0.6,4.6,2,4.5,4.5s-0.7,3.5-4.6,2.3 C551.9,535.1,551.9,533.8,551.9,531z"/>
    <line fill="none" x1="586.8" x2="586.8" y1="549.9" y2="549.9"/>
    <path d="M589.1,561.3c0-1.6,0-2.5,0-4.1c0,0,2.1,0.5,3.8,0.4c1.3-0.1,2.2-0.8,2.2-2.9s-1.1-3.4-3.3-3.8c-2-0.4-3.1-0.5-5.1-0.9 c0,4.4,0,6.6,0,11c0.9,0.2,1.4,0.2,2.4,0.4C589.1,561.4,589.1,561.4,589.1,561.3z M591.7,555.6c-1-0.2-1.5-0.3-2.5-0.4 c0-1.2,0-1.9,0-3.1c0.9,0.2,1.4,0.2,2.4,0.4C593.6,552.9,593.2,555.9,591.7,555.6z"/>
    <path d="M594.6,562.3c0.9,0.2,1.4,0.3,2.3,0.4c0.4-1,0.6-1.6,1-2.6c1.7,0.3,2.6,0.5,4.3,0.8c0.4,1.2,0.6,1.8,1,3 c0.9,0.2,1.4,0.2,2.3,0.4c-1.7-4.7-2.6-7.1-4.3-11.8c-0.9-0.2-1.4-0.2-2.3-0.4l0,0C597.3,556.2,596.4,558.2,594.6,562.3z M601.7,559c-1.2-0.2-1.8-0.3-3-0.5c0.5-1.6,0.8-2.3,1.3-3.9C600.7,556.4,601,557.3,601.7,559z"/>
    <path d="M614.4,563.8c-2.5-0.4-3.7-0.6-6.1-1.1c2.4-2.5,3.7-3.7,6.1-6.1c0-0.7,0-1,0-1.7c-3.3-0.6-4.9-0.9-8.1-1.4 c0,0.7,0,1,0,1.7c2,0.4,3,0.5,5.1,0.9c-2.3,2.5-3.4,3.7-5.7,6.2c0,0.8,0,1.2,0,2.1c3.5,0.6,5.2,0.9,8.7,1.5 C614.4,565,614.4,564.6,614.4,563.8z"/>
    <path d="M641.6,557c1.6-0.4,2.7-1.6,2.3-3.9c-0.4-2.5-0.6-3.8-1.1-6.3c-0.9,0-1.3,0-2.1,0c0.4,2.5,0.6,3.8,1.1,6.3 c0.2,1.2-0.2,2.1-0.9,2.2c-0.9,0.2-1.6-0.2-2-2c-0.5,0-0.8,0-1.3,0c-0.2,0-0.3,0-0.4,0c0.1,0.6,0.2,1.2,0.4,1.6 C638.4,556.7,640.1,557.3,641.6,557z"/>
    <path d="M652.4,546.6c-0.9,0-1.3,0-2.2,0c0.5,2.3,0.8,3.4,1.3,5.6c0.4,2,0.2,3-1.6,3c-1.5,0-2.3-1.1-2.7-3.3 c-0.4-2.1-0.6-3.2-1-5.3c-0.9,0-1.3,0-2.1,0.1c0.5,2.5,0.7,3.7,1.2,6.1c0.7,3.4,3,4.3,5.2,4.2c2.5,0,4.3-1.1,3.5-4.6 C653.3,550.1,653,548.9,652.4,546.6z"/>
    <path d="M661,549.9c-1.4-0.3-4-0.2-4.6-1c-0.5-1,0.5-1.4,1.2-1.6c0.8-0.3,1.7-0.1,2.4,1.1c0.9-0.2,1.3-0.2,2.2-0.4 c-1.2-2.2-2.9-2.7-4.8-2.5c-1.6,0.3-3.2,0.9-3.2,2.5c-0.1,1.3,0.6,2.3,2.3,3.1c1.3,0.7,3.9,0.2,4.9,0.9c0.8,0.5,0.5,1.7-1,2.1 c-1.1,0.2-2.5,0.1-3.4-1.5c-0.7,0.2-1,0.3-1.7,0.5l0,0c0.4,1.8,3,3.3,5.8,2.7c2.3-0.5,3-1.4,2.7-3.3 C663.7,551.4,662.4,550.2,661,549.9z"/>
    <path d="M670.4,544.8c-0.3-0.6-0.5-0.9-0.8-1.6c-3.2,0.8-4.8,1.1-8,1.9c0.3,0.7,0.4,1.1,0.7,1.8c1.2-0.4,1.8-0.5,3-0.9 c1.4,3.3,2.2,5,3.6,8.3c0.7-0.3,1.1-0.5,1.9-0.8c-1.3-3.2-2-4.8-3.3-8C668.6,545.4,669.2,545.2,670.4,544.8z"/>
    <path d="M669.9,543c2.1,3.9,3.1,5.8,5.2,9.7c0.8-0.3,1.1-0.5,1.9-0.8c-2.1-3.9-3.1-5.8-5.2-9.7C671.1,542.6,670.7,542.7,669.9,543 z"/>
    <path d="M682.6,545.5L682.6,545.5c1.2,2-1.3,3.6-3.1,2.5c-2-1.2-3-3.3-2.8-5.3c0.2-1.2,2.8-1.8,4-0.2c0.8-0.4,1.1-0.6,1.9-1.1 c-1.9-2-6-2.7-7.4,0.3c-0.9,1.7-0.2,7.6,5.3,8.5c3.9,0.6,5.5-2.8,4.4-5C683.9,545.3,683.5,545.4,682.6,545.5z"/>
    <path d="M681.5,538.2c2.7,3.7,4,5.5,6.7,9.1c0.7-0.5,1.1-0.7,1.8-1.2c-2.7-3.7-4-5.5-6.7-9.1C682.5,537.5,682.2,537.7,681.5,538.2 z"/>
    <path d="M686.6,535.1c1.6,4.3,2.5,6.5,4.1,10.8c0.8-0.6,1.1-0.9,1.9-1.5c-0.4-0.9-0.7-1.3-1.1-2.2c1.3-0.9,2-1.4,3.4-2.3 c0.9,0.5,1.3,0.8,2.2,1.3c0.8-0.4,1.2-0.6,1.9-1.1c-4.2-2.5-6.3-3.7-10.4-6.2C687.8,534.4,687.4,534.6,686.6,535.1z M693,538.7 c-0.9,0.7-1.3,1.1-2.2,1.8c-0.6-1.6-0.9-2.4-1.5-4C690.8,537.4,691.5,537.8,693,538.7z"/>
  </g>
  <g opacity="0.3">
    <path d="M259.7,30c127.9,0,223.7,15.9,325.2,32.8C688.7,80,796.1,97.9,941,97.9c44.4,0,90-6.1,135.4-18.1 c30.5-8.1,61.9-19,93.6-32.7v757.2c-36.8,17.4-73.5,30.8-109.2,40C1020.3,854.7,979.7,860,940,860c-140.1,0-243.6-16.8-343.7-33 c-98.9-16.1-201.3-32.7-336.6-32.7c-45.7,0-91.1,5.3-135.1,15.8C93,817.6,61.3,827.9,30,841V86.6C67.1,69,103.8,55.4,139.2,46.1 C179.9,35.4,220.4,30,259.7,30 M1200,0c-89.2,45-174.4,67.9-259,67.9C660.3,67.9,524.3,0,259.7,0C175.2,0,89.1,23,0,67.9 c0,242.4,0,577.6,0,820c89-44.9,175.2-63.6,259.7-63.6c268.9,0,398.5,65.7,680.3,65.7c84.6,0,170.8-22,260-66.9 C1200,580.7,1200,242.4,1200,0L1200,0z" fill="#212121"/>
  </g>
</svg>