<svg viewBox="0 0 1200 890" xmlns="http://www.w3.org/2000/svg" xmlns:xlink="http://www.w3.org/1999/xlink">
  <g>
    <path d="M0,559.5c96.1-48.1,191.6-67.9,298.8-65c101,2.7,201.9,15.9,301.2,33.8c99.3,17.9,200.3,29.8,301.3,32.2 c106.9,2.6,204-16.3,298.7-67.1c0,109.7,0,219.3,0,329c-94.5,51.3-192,69.7-298.8,67.1c-100.9-2.4-201.9-14.2-301.2-32.2 c-99.3-18.1-200.2-30.8-301.2-33.5C191.7,821.1,96,839.3,0,887.8C0,778.4,0,669,0,559.5z" fill="#9E3039"/>
    <path d="M0,67.3c96.2-47.5,191.5-70,298.8-66.9c101,2.9,201.8,16.7,301.2,34.5c99.4,17.7,200.3,29.8,301.3,32.2 c107,2.6,203.6-17,298.7-67.1c0,109.7,0,219.3,0,329c-94.9,50.6-191.8,69.7-298.7,67.1c-101-2.4-201.9-14.4-301.3-32.2 c-99.4-17.9-200.2-31.3-301.2-34.1c-107.2-3-202.7,17.9-298.8,65.9C0,286.2,0,176.8,0,67.3z" fill="#9E3039"/>
    <path d="M0,395.6c96.1-47.9,191.6-68.8,298.8-65.9c101,2.8,201.8,16.2,301.2,34.1s200.3,29.8,301.3,32.2 c106.9,2.6,203.9-16.5,298.7-67.1c0,54.8,0,109.7,0,164.5c-94.7,50.9-191.9,69.7-298.7,67.1c-101-2.4-201.9-14.3-301.3-32.2 c-99.4-17.9-200.2-31.1-301.2-33.8c-107.2-2.9-202.7,16.9-298.8,65C0,504.9,0,450.3,0,395.6z" fill="#FFFFFF"/>
  </g>
  <g opacity="0.3">
    <path d="M259.7,30c127.9,0,223.7,15.9,325.2,32.8C688.7,80,796.1,97.9,941,97.9c44.4,0,90-6.1,135.4-18.1 c30.5-8.1,61.9-19,93.6-32.7v757.2c-36.8,17.4-73.5,30.8-109.2,40C1020.3,854.7,979.7,860,940,860c-140.1,0-243.6-16.8-343.7-33 c-98.9-16.1-201.3-32.7-336.6-32.7c-45.7,0-91.1,5.3-135.1,15.8C93,817.6,61.3,827.9,30,841V86.6C67.1,69,103.8,55.4,139.2,46.1 C179.9,35.4,220.4,30,259.7,30 M1200,0c-89.2,45-174.4,67.9-259,67.9C660.3,67.9,524.3,0,259.7,0C175.2,0,89.1,23,0,67.9 c0,242.4,0,577.6,0,820c89-44.9,175.2-63.6,259.7-63.6c268.9,0,398.5,65.7,680.3,65.7c84.6,0,170.8-22,260-66.9 C1200,580.7,1200,242.4,1200,0L1200,0z" fill="#212121"/>
  </g>
</svg>