<svg viewBox="0 0 1200 1200" xmlns="http://www.w3.org/2000/svg" xmlns:xlink="http://www.w3.org/1999/xlink">
  <g>
    <path d="M0,1042.8c94.9-49.1,192.6-66,298.8-63c101,2.8,201.7,16.5,301.2,33.5c99.4,16.9,200.3,28.8,301.2,31.3 c106,2.6,204.1-18.4,298.8-66.7c0-82.3,0-164.6,0-246.9c-66.9,34.7-137.8,57.9-213.1,64.7c-71.5,6.5-144.3,0.7-215.5-6.2 c-163.9-16-324.2-54.1-489.5-57.2C170,819.1,82.9,929.1,0,1042.8z" fill="#078930"/>
    <path d="M337.3,445.6C620,463.7,931.9,585,1200,443c0-13.7,0-27.4,0-41.1c-66.7,35.4-137.6,58.4-213,65.2 c-71.6,6.4-144.4,0.6-215.7-6.5c-163.8-16.3-324.1-55-489.4-58.3C300.3,416.8,318.8,431.2,337.3,445.6z" fill="#FFFFFF"/>
    <path d="M281.9,732.3c165.3,3.1,325.6,41.3,489.5,57.2c71.2,6.9,144.1,12.7,215.5,6.2c75.3-6.8,146.1-30,213.1-64.7 c0-13.7,0-27.4,0-41.1c-63.6,33.1-130.9,55.9-202.4,63.7c-65.1,7.1-131.3,3-196.3-2.5c-155.6-13.1-308-48.2-463.9-58 C318.5,705.7,300,718.7,281.9,732.3z" fill="#FFFFFF"/>
    <path d="M0,222.9c104.4,43.2,193.8,109.7,281.9,179.4c165.3,3.3,325.5,41.9,489.4,58.3c71.3,7.1,144.2,12.9,215.7,6.5 c75.4-6.8,146.3-29.7,213-65.2c0-82.3,0-164.6,0-246.9c-184.9,99.7-401.1,69.8-600,35c-99.5-17.3-200.2-31.6-301.2-34.6 C192.9,152.3,94.4,174.6,0,222.9z"/>
    <path d="M514.9,588C455,621.9,395,655.4,337.4,693c156,9.8,308.4,44.9,463.9,58c65,5.5,131.2,9.6,196.3,2.5 c71.5-7.8,138.8-30.6,202.4-63.7c0-82.3,0-164.6,0-246.9c-268.1,142-580,20.7-862.7,2.6C397.2,492.2,457,538.9,514.9,588z" fill="#DA121A"/>
    <path d="M337.4,693.1C395,655.4,455,621.9,514.9,588c-57.8-49.1-117.6-95.8-177.5-142.4 c-18.5-14.4-37-28.8-55.4-43.3C193.8,332.6,104.4,266.1,0,222.9C0,305,0,387,0,469.1c0,13.7,0,27.3,0,41C0,592,0,673.8,0,755.7 c0,13.7,0,27.3,0,41c0,82.1,0,164.2,0,246.2c82.9-113.8,170-223.8,281.9-310.6C300,718.7,318.5,705.7,337.4,693.1z M67.8,602 c18.7-16.5,37.8-32.5,57.5-47.8c-0.1-31.8-0.2-63.5-0.4-95.3c12.3,23,24.5,46.1,36.6,69.2c19.8-13.2,40-25.6,60.8-37.1 c-13,26.9-25.6,54-37.9,81.2c12.7,24.6,25.3,49.1,38,73.7c-20-8.1-40.2-15.7-60.7-22.5c-12.2,28.1-24.1,56.4-35.9,84.7 c-0.1-31.6-0.2-63.3-0.4-94.9C106.5,608.4,87.2,604.5,67.8,602z" fill="#0F47AF"/>
    <path d="M125.9,708.5c11.7-28.3,23.7-56.6,35.9-84.7c20.5,6.8,40.6,14.3,60.7,22.4c-12.7-24.6-25.3-49.1-38-73.7 c12.3-27.2,25-54.3,37.9-81.2c-20.8,11.5-41,23.8-60.8,36.9C149.5,505.1,137.3,482,125,459c0.1,31.8,0.2,63.5,0.4,95.3 c-19.7,15.3-38.8,31.2-57.5,47.8c19.5,2.5,38.8,6.4,57.7,11.3C125.6,645,125.8,676.8,125.9,708.5z" fill="#FCDD09"/>
  </g>
  <g opacity="0.3">
    <path d="M259.7,185c127.9,0,223.7,15.9,325.2,32.8C688.7,235,796.1,252.9,941,252.9c44.4,0,90-6.1,135.4-18.1 c30.5-8.1,61.9-19,93.6-32.7v757.2c-36.8,17.4-73.5,30.8-109.2,40c-40.5,10.4-81.1,15.7-120.8,15.7c-140.1,0-243.6-16.8-343.7-33 c-98.9-16.1-201.3-32.7-336.6-32.7c-45.7,0-91.1,5.3-135.1,15.8C93,972.6,61.3,982.9,30,996V241.6c37.1-17.6,73.8-31.2,109.2-40.5 C179.9,190.4,220.4,185,259.7,185 M1200,155c-89.2,45-174.4,67.9-259,67.9c-280.7,0-416.7-67.9-681.3-67.9 C175.2,155,89.1,178,0,222.9c0,242.4,0,577.6,0,820c89-44.9,175.2-63.6,259.7-63.6c268.9,0,398.5,65.7,680.3,65.7 c84.6,0,170.8-22,260-66.9C1200,735.7,1200,397.4,1200,155L1200,155z" fill="#212121"/>
  </g>
</svg>