<svg viewBox="0 0 1200 1200" xmlns="http://www.w3.org/2000/svg" xmlns:xlink="http://www.w3.org/1999/xlink">
  <g>
    <path d="M525.4,650.1c-7.7-12.4-15.4-24.8-23.1-37.1c-6.3-10-12.6-20-19-30l0,0c6.4,10,12.7,20,19,30 C510,625.4,517.7,637.7,525.4,650.1z" fill="none"/>
    <path d="M639.2,669.5c-6,8.1-11.9,16.3-17.8,24.4c-7.2,9.9-14.3,19.9-21.4,29.9c7.1-10,14.3-20,21.6-29.9 c5.9-8.2,11.8-16.3,17.8-24.5c13.6-18.4,27.3-36.7,41-55c6.2-8.3,12.5-16.6,18.8-24.9c-6.3,8.3-12.7,16.6-19,24.9 C666.4,632.8,652.7,651.1,639.2,669.5z" fill="none"/>
    <path d="M420.7,664.5L420.7,664.5c7.7-10,15.4-20,23.1-30C436.1,644.5,428.4,654.5,420.7,664.5z" fill="none"/>
    <path d="M699.2,644.5c-7.8,10.2-15.5,20.4-23.2,30.6c15.6,2.2,31.1,4.2,46.7,6.1C714.8,669,707,656.7,699.2,644.5z" fill="#FFFFFF"/>
    <path d="M525.4,527.6c-15.5-2.3-31.1-4.5-46.7-6.5c7.9,12.2,15.7,24.5,23.5,36.8C510,547.8,517.7,537.7,525.4,527.6 z" fill="#FFFFFF"/>
    <path d="M478.7,643.7c15.6,2,31.1,4.1,46.7,6.5c-7.7-12.4-15.4-24.8-23.1-37.1C494.4,623.2,486.6,633.5,478.7,643.7 z" fill="#FFFFFF"/>
    <path d="M579.2,509c14.1,2.5,28.1,5.2,42.2,7.7c-7.2-12.5-14.3-25.1-21.4-37.7C593.2,489.1,586.2,499,579.2,509z" fill="#FFFFFF"/>
    <path d="M0,837.6c95.7-46.3,192.6-66.8,298.8-64c101,2.7,201.9,15.7,301.2,33.6c99.4,18,200.3,29.4,301.3,31.7 c106.3,2.4,203.6-18.5,298.7-66.6c0-137.2,0-274.4,0-411.5c-95.8,48-191.8,69-298.7,66.6c-101-2.2-202-13.4-301.3-31.7 c-99.3-18.3-200.2-31.6-301.2-34.3C192.3,358.5,95.8,382,0,428.2C0,564.6,0,701.1,0,837.6z M420.7,664.5c7.7-10,15.4-20,23.1-30 c13.1-17.2,26.3-34.3,39.5-51.5l0,0l0,0c-20.6-32.2-41.5-64.1-62.5-96c41.1,4.3,82.1,9.7,122.9,16c19.2-26,38.1-52.2,56.3-78.9 c18.5,33.2,37.7,65.9,57.4,98.4c40.8,6.1,81.8,11,122.8,14.8c-20.6,27.4-41.4,54.7-62.2,82c20.6,31.9,41.4,63.6,62.2,95.2 c-41.1-3.9-82-8.8-122.8-14.8c-19.5,26.1-38.7,52.4-57.5,78.9c-18.1-33.2-36.9-65.9-56.3-98.3C502.8,674.1,461.9,668.8,420.7,664.5 L420.7,664.5L420.7,664.5z" fill="#FFFFFF"/>
    <path d="M0,222.9c96-45.9,192.1-70.4,298.8-67.5c101,2.7,201.9,16,301.2,34.5s200.3,29.5,301.3,31.7 C1008.5,224,1103.8,203,1200,155c0,25.7,0,51.4,0,77.2c-96,48-191.6,68.9-298.7,66.6c-101-2.2-202-13.3-301.3-31.7 c-99.3-18.4-200.2-31.7-301.2-34.4C192.2,229.7,95.9,253.9,0,300C0,274.3,0,248.6,0,222.9z" fill="#FFFFFF"/>
    <path d="M0,965.8c95.7-46.4,192.7-66.3,298.8-63.5c101,2.7,201.9,15.7,301.2,33.5c99.4,17.8,200.3,29.4,301.3,31.7 c106.1,2.4,203.8-18.5,298.7-66.6c0,25.7,0,51.4,0,77.2c-94.7,48.1-192.7,69-298.7,66.6c-101-2.3-201.9-13.9-301.3-31.7 s-200.2-30.8-301.2-33.5C192.7,976.7,95.6,996.3,0,1042.8C0,1017.1,0,991.4,0,965.8z" fill="#FFFFFF"/>
    <path d="M579.2,686.3c7,12.5,14,25,20.8,37.6c7.1-10,14.2-20,21.4-29.9C607.3,691.4,593.3,688.8,579.2,686.3z" fill="#FFFFFF"/>
    <path d="M561.8,655.9L561.8,655.9c25.8,4.4,51.6,9.3,77.4,13.6c13.6-18.4,27.3-36.7,41-55 c-13.9-22.3-27.6-44.8-41.1-67.4c-25.8-4.3-51.6-9.3-77.4-13.7c-13.4,18.4-26.9,36.7-40.6,54.9 C534.9,610.7,548.5,633.2,561.8,655.9z" fill="#FFFFFF"/>
    <path d="M722.6,558.8c-15.6-1.8-31.2-3.9-46.7-6.1c7.7,12.3,15.4,24.6,23.2,36.9C707,579.3,714.8,569.1,722.6,558.8 z" fill="#FFFFFF"/>
    <path d="M0,300c95.9-46.1,192.2-70.3,298.8-67.4c101,2.8,201.9,16,301.2,34.4s200.3,29.5,301.3,31.7 c107.1,2.3,202.7-18.6,298.7-66.6c0,42.9,0,85.7,0,128.6c-95.8,48-191.8,69-298.7,66.6c-101-2.2-202-13.4-301.3-31.7 c-99.3-18.3-200.2-31.6-301.2-34.3C192.3,358.5,95.8,382,0,428.2C0,385.4,0,342.7,0,300z" fill="#0038B8"/>
    <path d="M0,837.6c95.7-46.3,192.6-66.8,298.8-64c101,2.7,201.9,15.7,301.2,33.6c99.4,18,200.3,29.4,301.3,31.7 c106.3,2.4,203.6-18.5,298.7-66.6c0,42.9,0,85.7,0,128.6c-94.9,48.1-192.6,69-298.7,66.6c-101-2.3-201.9-13.9-301.3-31.7 S399.8,905,298.8,902.3C192.7,899.5,95.7,919.4,0,965.8C0,923,0,880.3,0,837.6z" fill="#0038B8"/>
    <path d="M639.2,669.5c-25.8-4.3-51.6-9.2-77.4-13.6c5.9,10.1,11.7,20.2,17.4,30.4l0,0c14.1,2.5,28.1,5.1,42.2,7.6 C627.3,685.8,633.2,677.6,639.2,669.5z" fill="#0038B8"/>
    <path d="M600,479c7,12.6,14.2,25.2,21.4,37.7c12,2.1,24,4.1,36.1,5.9c-19.7-32.5-38.9-65.3-57.4-98.4 c-18.3,26.7-37.1,52.9-56.3,78.9c11.9,1.9,23.7,3.9,35.5,6C586.2,499,593.2,489.1,600,479z" fill="#0038B8"/>
    <path d="M543.7,680.4c-6-10.1-12.1-20.2-18.3-30.3c-15.5-2.3-31.1-4.5-46.7-6.5c7.9-10.2,15.7-20.4,23.5-30.7 c-6.3-10-12.6-20-19-30l0,0c-13.1,17.2-26.3,34.3-39.5,51.5c-7.7,10-15.4,20-23.1,30l0,0C461.9,668.8,502.8,674.1,543.7,680.4z" fill="#0038B8"/>
    <path d="M502.4,558.1c6.3,10,12.5,20.1,18.7,30.1c13.7-18.2,27.2-36.5,40.6-54.9c-12.1-2-24.2-4-36.4-5.8 c-7.7,10.1-15.4,20.2-23.1,30.3C502.3,558,502.4,558,502.4,558.1z" fill="#0038B8"/>
    <path d="M699.1,589.6c-7.8-12.3-15.5-24.6-23.2-36.9c-12.3-1.7-24.5-3.6-36.8-5.6c13.5,22.6,27.2,45.1,41.1,67.4 C686.5,606.2,692.8,597.9,699.1,589.6z" fill="#0038B8"/>
    <path d="M722.7,681.2c-15.6-1.8-31.2-3.9-46.7-6.1c-6.2,8.2-12.3,16.5-18.4,24.7c40.8,6.1,81.8,11,122.8,14.8 c-20.9-31.6-41.7-63.4-62.2-95.2c-6.3,8.3-12.6,16.7-18.9,25C707,656.7,714.8,669,722.7,681.2z" fill="#0038B8"/>
    <path d="M525.4,650.1c6.2,10.1,12.3,20.1,18.3,30.3c19.4,32.4,38.2,65.2,56.3,98.3c18.8-26.6,38-52.8,57.5-78.9 c6.1-8.3,12.3-16.5,18.4-24.7c7.7-10.2,15.5-20.4,23.2-30.6c6.3-8.4,12.6-16.7,18.9-25c20.8-27.3,41.6-54.6,62.2-82 c-41.1-3.9-82-8.8-122.8-14.8c-12-1.8-24.1-3.8-36.1-5.9c-14.1-2.5-28.1-5.2-42.2-7.7c-11.8-2.1-23.7-4.1-35.5-6 c-40.9-6.4-81.8-11.7-122.9-16c21,31.9,41.9,63.9,62.5,96c6.4,10,12.7,20,19,30C510,625.4,517.7,637.7,525.4,650.1z M525.4,527.6 c12.1,1.8,24.3,3.7,36.4,5.8c25.8,4.4,51.5,9.4,77.4,13.7c12.2,2,24.5,3.9,36.8,5.6c15.6,2.2,31.1,4.3,46.7,6.1 c-7.8,10.3-15.7,20.6-23.5,30.8c-6.3,8.3-12.5,16.6-18.8,24.9c-13.8,18.3-27.4,36.6-41,55c-6,8.1-11.9,16.3-17.8,24.5 c-7.3,9.9-14.5,19.9-21.6,29.9c-6.9-12.6-13.8-25.1-20.8-37.6l0,0c-5.7-10.2-11.5-20.3-17.4-30.4l0,0 c-13.3-22.7-26.8-45.2-40.6-67.6c-6.2-10.1-12.4-20.1-18.7-30.1c-0.1-0.1-0.1-0.1-0.2-0.2c-7.8-12.3-15.6-24.6-23.5-36.8 C494.3,523.1,509.8,525.3,525.4,527.6L525.4,527.6z" fill="#0038B8"/>
  </g>
  <g opacity="0.3">
    <path d="M259.7,185c127.9,0,223.7,15.9,325.2,32.8C688.7,235,796.1,252.9,941,252.9c44.4,0,90-6.1,135.4-18.1 c30.5-8.1,61.9-19,93.6-32.7v757.2c-36.8,17.4-73.5,30.8-109.2,40c-40.5,10.4-81.1,15.7-120.8,15.7c-140.1,0-243.6-16.8-343.7-33 c-98.9-16.1-201.3-32.7-336.6-32.7c-45.7,0-91.1,5.3-135.1,15.8C93,972.6,61.3,982.9,30,996V241.6c37.1-17.6,73.8-31.2,109.2-40.5 C179.9,190.4,220.4,185,259.7,185 M1200,155c-89.2,45-174.4,67.9-259,67.9c-280.7,0-416.7-67.9-681.3-67.9 C175.2,155,89.1,178,0,222.9c0,242.4,0,577.6,0,820c89-44.9,175.2-63.6,259.7-63.6c268.9,0,398.5,65.7,680.3,65.7 c84.6,0,170.8-22,260-66.9C1200,735.7,1200,397.4,1200,155L1200,155z" fill="#212121"/>
  </g>
</svg>