<svg viewBox="0 0 1200 1200" xmlns="http://www.w3.org/2000/svg" xmlns:xlink="http://www.w3.org/1999/xlink">
  <g>
    <path d="M0,1042.8c95.8-48.3,192-66.3,298.8-63.4c101,2.8,201.8,16.1,301.2,33.5s200.3,29.3,301.3,31.7 c106.9,2.5,203.7-16.5,298.7-66.6c0-162.4,0-324.8,0-487.2c-89.5,81.1-180.6,154.5-295.6,195.5c-98.7,35.2-202.1,54.8-304.3,76.4 c-102,21.6-205.8,40.3-304.4,75C181.6,878,88.5,948.8,0,1029.7C0,1034.9,0,1037.6,0,1042.8z" fill="#003893"/>
    <path d="M0,222.9C0,483,0,743.2,0,1003.3c87.7-102.3,178.2-203,295.4-272c96.8-57,202.7-96.7,304.6-143.1 c102.2-46.4,207.7-86.6,304.6-144c118.3-70.1,204.9-174.8,295.4-276.1c0-5.3,0-7.9,0-13.2c-51.4,25-104.1,47.4-160.4,58.5 c-45.6,9-92,10.3-138.3,9.2c-101-2.4-202-14.4-301.3-32.8S399.8,159,298.8,156.4c-48-1.2-96.4,0-143.7,9.2 C100.4,176.3,49.5,198,0,222.9z M340,506c-27.3-6.6-54.6-12.9-82.1-18.5c22,20.8,44.2,41.3,66.6,61.6 c-24.8-14.4-49.6-28.9-74.3-43.4c16.5,27,33.4,53.8,50.6,80.3c-20.7-21.5-41.2-43.2-61.4-65.2c10.3,31.3,20.8,62.5,31.5,93.6 c-15.1-27.4-29.9-54.9-44.4-82.6c3.9,33.8,7.8,67.7,11.7,101.5c-8.8-31.7-17.4-63.4-26-95.1c-2.4,58.6-4.9,117.2-7.3,175.8 c-2.3-58.2-4.7-116.4-7-174.5c-8.4,33.1-16.6,66.3-24.8,99.5c3.7-34.5,7.4-69,11.1-103.4c-13.6,29.9-26.9,60-39.9,90.2 c9.2-33,18.5-66,27.9-99c-18,25-35.5,50.5-52.6,76.1c14.1-29.9,28.3-59.7,42.8-89.4c-21.2,18.3-41.6,37.5-61.6,57.1 c17.9-25,36.1-49.7,54.8-74c-23,10.3-45.1,21.7-66.9,34.2c20.6-18.6,41.6-36.6,63.4-53.8c-40.7,4.8-79.2,14.8-117.7,28.8 c38-20.1,76.6-37.2,117.8-49.6c-21-7.8-41.9-14.4-63.7-19.6c22.4-2.1,44.4-2.5,66.8-1.6c-17.7-16-35.6-31.7-54.5-46.3 c21,7.9,41.3,17,61.3,27c-13.8-23.6-27.8-47.2-42.2-70.5c17.8,17.6,35.1,35.7,52.1,54.1c-9.2-29.7-18.4-59.4-27.6-89.2 c13.2,25.5,26.3,51.2,39.4,76.8c-3.6-33.5-7.2-67-10.8-100.5c8.1,31.2,16.2,62.3,24.4,93.4c2.4-58.7,4.8-117.3,7.2-176 c2.3,58.2,4.7,116.5,7,174.7c8.5-32.7,17.1-65.4,25.9-98c-4,34.2-7.9,68.4-11.8,102.6c14.2-28.6,29-56.8,44.3-84.8 c-10.8,31.4-21.2,63-31.4,94.6c19.6-22.6,40-44.3,61.3-65.4c-17.5,26.2-34.4,52.8-50.5,79.9c24.1-15,48.9-28.5,74.2-41.2 c-22.9,18.9-45.1,38.5-66.5,59.2c27.1-6.2,54.5-10.6,82-14.5c-26.5,10.6-52.4,21.9-77.9,34.7c49.1,3.7,97.8,10,146.4,17.6 c-48.9-1.1-97.7-0.7-146.4,3.2C287.7,479.7,313.9,492.8,340,506z" fill="#003893"/>
    <path d="M0,1029.7C88.5,948.8,181.6,878,295.7,837.8c98.6-34.8,202.4-53.4,304.4-75 c102.2-21.7,205.6-41.3,304.3-76.4c115-41,206.1-114.4,295.6-195.5c0-53.8,0-107.5,0-161.3c-89.7,91.1-178.6,180.3-295.5,235.8 c-97.7,46.4-202.1,76.1-304.4,110.2c-103.8,34.6-210.7,64-309.6,111.4C176.8,841.5,86.5,926.5,0,1016.5C0,1021.8,0,1024.4,0,1029.7 z" fill="#FFFFFF"/>
    <path d="M0,1009.9c0,2.6,0,3.9,0,6.6c86.5-90,176.8-175,290.5-229.6c98.9-47.5,205.8-76.9,309.6-111.4 c102.4-34.1,206.7-63.8,304.4-110.2c116.9-55.5,205.8-144.7,295.5-235.8c0-26.2,0-52.3,0-78.5c0-27.6,0-55.2,0-82.9 c-90.5,101.3-177.1,206-295.4,276.1c-96.9,57.4-202.4,97.6-304.6,144c-102,46.3-207.9,86.1-304.6,143.1 c-117.2,69-207.7,169.8-295.4,272C0,1006,0,1007.3,0,1009.9z" fill="#DD7500"/>
    <path d="M212.1,378.6c-2.4-58.2-4.8-116.5-7.2-174.7c-2.4,58.7-4.8,117.3-7.2,176c2.8,10.8,4.2,16.2,7.1,27 C207.2,397.5,209.6,388.1,212.1,378.6z" fill="#FFFFFF"/>
    <path d="M208.3,420.1c5.9-12.3,11.9-24.6,18-36.9c3.9-34.2,7.8-68.4,11.8-102.6c-8.8,32.6-17.5,65.3-25.9,98 c-2.5,9.4-4.9,18.9-7.4,28.3C206.2,412.2,206.9,414.8,208.3,420.1z" fill="#FFFFFF"/>
    <path d="M208.3,420.1c0.8,3.1,1.2,4.7,2.1,7.8c9.4-11.7,19-23.3,28.8-34.8c10.2-31.6,20.7-63.2,31.4-94.6 c-15.4,28-30.1,56.2-44.4,84.8C220.2,395.4,214.2,407.7,208.3,420.1z" fill="#FFFFFF"/>
    <path d="M210.4,427.8c0.6,2.3,0.9,3.4,1.5,5.6c12.6-9,25.3-17.6,38.3-26c16.1-27,32.9-53.5,50.4-79.6 c-21.3,21-41.7,42.6-61.4,65.1C229.4,404.5,219.8,416.1,210.4,427.8z" fill="#FFFFFF"/>
    <path d="M211.9,433.5c0.5,1.7,0.7,2.6,1.1,4.3c14.9-4.4,29.8-8.4,44.9-12c21.4-20.7,43.6-40.4,66.6-59.4 c-25.4,12.7-50.2,26.2-74.3,41.1C237.2,415.9,224.5,424.5,211.9,433.5z" fill="#FFFFFF"/>
    <path d="M213,437.8c0.7,2.5,1,3.7,1.7,6.2c15.8,0.2,31.6,0.9,47.3,2.1c25.5-12.8,51.5-24.1,78-34.7 c-27.5,3.8-55,8.2-82.1,14.4C242.8,429.4,227.9,433.4,213,437.8z" fill="#FFFFFF"/>
    <path d="M262.1,446c-15.8-1.1-31.6-1.8-47.3-2.1l0,0c15.9,7.6,31.6,15.4,47.3,23.2c48.7-4,97.4-4.5,146.3-3.5 C359.8,456,311.1,449.7,262.1,446z" fill="#FFFFFF"/>
    <path d="M214.7,444c0.3,1,0.5,1.4,0.8,2.4c14.1,13.8,28.2,27.5,42.5,41.1c27.5,5.6,54.8,11.9,82.1,18.5 c-25.9-13-51.9-25.9-78-38.8C246.3,459.4,230.6,451.6,214.7,444z" fill="#FFFFFF"/>
    <path d="M215.5,446.4c0.2,1,0.3,1.5,0.6,2.4c11.3,19,22.6,38,34.1,56.9c24.7,14.5,49.5,28.9,74.3,43.4 c-22.4-20.3-44.6-40.8-66.6-61.6C243.7,473.9,229.6,460.1,215.5,446.4z" fill="#FFFFFF"/>
    <path d="M216,448.8c0.2,0.9,0.3,1.3,0.6,2.2c7.4,23.4,14.9,46.8,22.5,70.2c20.2,21.9,40.7,43.5,61.4,65 c-17.1-26.6-33.9-53.3-50.4-80.3C238.7,486.8,227.3,467.8,216,448.8z" fill="#FFFFFF"/>
    <path d="M216.6,451c0.2,1,0.3,1.5,0.6,2.4c3,26.2,6,52.5,9,78.7c14.5,27.7,29.3,55.2,44.4,82.6 c-10.7-31.1-21.2-62.3-31.5-93.6C231.6,497.8,224,474.4,216.6,451z" fill="#FFFFFF"/>
    <path d="M217.2,453.4c-5,2.2-7.5,3.3-12.5,5.6l0,0c4.2-0.4,6.3-0.5,10.6-0.8c-0.1,1.7-0.1,2.5-0.2,4.1 c0.8,0.3,1.3,0.4,2.1,0.7c-1,3.9-1.5,5.9-2.5,9.8c-0.9,21.9-1.8,43.8-2.7,65.7c8.5,31.7,17.2,63.4,25.9,95.1 c-3.9-33.8-7.9-67.7-11.7-101.5C223.2,505.9,220.2,479.6,217.2,453.4z" fill="#FFFFFF"/>
    <path d="M214.7,472.8c-5.8,22.3-11.5,44.6-17.2,67c2.3,58.1,4.6,116.2,7,174.3c2.5-58.5,5-117,7.5-175.5 C212.9,516.6,213.8,494.7,214.7,472.8z" fill="#FFFFFF"/>
    <path d="M215.1,462.3c0.1-1.7,0.1-2.5,0.2-4.1c-4.3,0.3-6.4,0.5-10.6,0.8l0,0C208.8,460.3,210.9,461,215.1,462.3z" fill="#FFFFFF"/>
    <path d="M214.7,472.8c1-3.9,1.5-5.9,2.5-9.8c-0.8-0.3-1.3-0.4-2.1-0.7c-4.2-1.3-6.3-2-10.4-3.3l0,0 c4.4,3.3,6.7,5,11.2,8.4c-10.9,22.7-21.5,45.4-32,68.3c-3.7,34.5-7.4,69-11.1,103.4c8.1-33.2,16.4-66.4,24.7-99.5 C203.2,517.4,208.9,495.1,214.7,472.8z" fill="#FFFFFF"/>
    <path d="M215.8,467.5c-4.5-3.4-6.7-5.1-11.2-8.4c3.7,5,5.5,7.6,9.2,12.7c-14.5,18.2-28.5,36.6-42.3,55.4 c-9.4,33-18.7,66-27.9,99c13.1-30.2,26.4-60.3,40.1-90.3C194.3,512.9,204.9,490.1,215.8,467.5z" fill="#FFFFFF"/>
    <path d="M213.9,471.7c-3.7-5.1-5.6-7.6-9.2-12.7c2.5,6.2,3.8,9.4,6.4,15.6c-16.8,12.5-33.2,25.4-49.2,38.9 c-14.5,29.7-28.6,59.5-42.6,89.4c17-25.6,34.4-50.9,52.4-75.9C185.4,508.3,199.5,489.9,213.9,471.7z" fill="#FFFFFF"/>
    <path d="M211.1,474.7c-2.6-6.3-3.9-9.4-6.4-15.6l0,0l0,0l0,0l0,0c1.3,7.1,2,10.7,3.4,17.8 c-18,5.9-35.5,12.5-52.9,19.9c-18.8,24.3-37,49.1-54.8,74c20-19.7,40.4-38.8,61.6-57.2C177.9,500.1,194.3,487.1,211.1,474.7z" fill="#FFFFFF"/>
    <path d="M208.1,476.8c-1.4-7.1-2-10.7-3.4-17.8c0,6.1,0,9.2,0,15.4c-1.1,0-1.6,0-2.6,0c-0.2,1.2-0.3,1.8-0.6,3.1 c-2.6-1.2-3.9-1.8-6.5-2.9c-14.5,0.4-28.9,1.3-43.4,2.7c-21.8,17.2-42.8,35.3-63.4,53.9c21.8-12.6,43.9-24,66.9-34.3 C172.6,489.4,190.1,482.8,208.1,476.8z" fill="#FFFFFF"/>
    <path d="M195,474.5c-14.3-6.6-28.7-12.7-43.4-18.4c-41.2,12.5-79.8,29.6-117.8,49.8c38.5-14,77.1-23.9,117.8-28.7 C166.1,475.8,180.5,474.9,195,474.5z" fill="#FFFFFF"/>
    <path d="M202.1,474.3c1,0,1.6,0,2.6,0c0-6.1,0-9.2,0-15.4C203.6,465.1,203.1,468.2,202.1,474.3z" fill="#FFFFFF"/>
    <path d="M195,474.5c2.6,1.2,3.9,1.7,6.5,2.9c0.2-1.2,0.3-1.8,0.6-3.1c1.1-6.1,1.6-9.2,2.6-15.3l0,0 c-2.6,6.7-3.8,10-6.4,16.8c-14.2-13.7-28.5-27.4-43.1-40.7c-22.4-1-44.4-0.5-66.8,1.6c21.6,5.1,42.4,11.7,63.2,19.4 C166.3,461.8,180.7,467.9,195,474.5z" fill="#FFFFFF"/>
    <path d="M198.3,475.8c2.5-6.7,3.8-10.1,6.4-16.8c-3.6,5.7-5.4,8.6-9,14.3c-11.2-19.3-22.4-38.6-33.6-57.8 c-20.1-10-40.3-19.1-61.3-27c18.8,14.9,36.8,30.5,54.5,46.6C169.8,448.4,184.1,462.1,198.3,475.8z" fill="#FFFFFF"/>
    <path d="M195.7,473.3c3.6-5.7,5.4-8.6,9-14.3l0,0l0,0c-4.4,4.1-6.6,6.2-11,10.4c-7.3-23.4-14.6-46.9-21.8-70.3 c-17-18.3-34.2-36.3-51.9-53.8c14.3,23.2,28.3,46.7,42.2,70.2C173.3,434.7,184.5,454,195.7,473.3z" fill="#FFFFFF"/>
    <path d="M193.7,469.4c4.4-4.2,6.6-6.3,11-10.4c-5,2.4-7.4,3.6-12.3,6.2c-2.8-26.1-5.6-52.1-8.4-78.2 c-13.2-25.6-26.3-51.2-39.6-76.8c9.2,29.6,18.3,59.3,27.4,88.9C179.1,422.5,186.4,446,193.7,469.4z" fill="#FFFFFF"/>
    <path d="M192.4,465.2c4.9-2.5,7.3-3.7,12.3-6.2l0,0l0,0c5-2.3,7.5-3.4,12.5-5.6c-0.2-1-0.3-1.5-0.6-2.4 c-0.2-0.9-0.3-1.3-0.6-2.2c-0.2-1-0.3-1.5-0.6-2.4c-0.3-1-0.5-1.4-0.8-2.4l0,0c-0.7-2.5-1-3.7-1.7-6.2c-0.5-1.7-0.7-2.6-1.1-4.3 c-0.6-2.3-0.9-3.4-1.5-5.6c-0.8-3.1-1.2-4.7-2.1-7.8c-1.4-5.3-2.1-7.9-3.6-13.1c-2.8-10.8-4.3-16.2-7.1-27 c-8.2-31.1-16.3-62.3-24.4-93.4c3.6,33.5,7.2,67,10.8,100.5C186.8,413,189.6,439.1,192.4,465.2z" fill="#FFFFFF"/>
  </g>
  <g opacity="0.3">
    <path d="M259.7,185c127.9,0,223.7,15.9,325.2,32.8C688.7,235,796.1,252.9,941,252.9c44.4,0,90-6.1,135.4-18.1 c30.5-8.1,61.9-19,93.6-32.7v757.2c-36.8,17.4-73.5,30.8-109.2,40c-40.5,10.4-81.1,15.7-120.8,15.7c-140.1,0-243.6-16.8-343.7-33 c-98.9-16.1-201.3-32.7-336.6-32.7c-45.7,0-91.1,5.3-135.1,15.8C93,972.6,61.3,982.9,30,996V241.6c37.1-17.6,73.8-31.2,109.2-40.5 C179.9,190.4,220.4,185,259.7,185 M1200,155c-89.2,45-174.4,67.9-259,67.9c-280.7,0-416.7-67.9-681.3-67.9 C175.2,155,89.1,178,0,222.9c0,242.4,0,577.6,0,820c89-44.9,175.2-63.6,259.7-63.6c268.9,0,398.5,65.7,680.3,65.7 c84.6,0,170.8-22,260-66.9C1200,735.7,1200,397.4,1200,155L1200,155z" fill="#212121"/>
  </g>
</svg>