<svg viewBox="0 0 1200 890" xmlns="http://www.w3.org/2000/svg" xmlns:xlink="http://www.w3.org/1999/xlink">
  <g>
    <path d="M0,615.2c184.3-101.6,402.7-62.9,600.1-31c100.5,16.2,202.3,29.2,304.1,31.5 c106.4,2.5,200.5-19.3,295.8-67c0,91.5,0,183.1,0,274.6c-95.1,47.3-189.6,69-295.8,66.7c-101.8-2.2-203.6-14.4-304.1-30.7 c-195.5-31.9-418-71.9-600.1,30.1C0,798,0,706.6,0,615.2z" fill="#0073CF"/>
    <path d="M0,67.4C188.8-33.9,398.6,1.8,600,34.1C700.5,50.2,802.2,65,904.1,67.8C1011,70.8,1104.5,48.4,1200,0 c0,91.5,0,183.1,0,274.6c-95.3,48-189.2,70.3-295.8,67.5c-101.9-2.7-203.6-16.7-304.1-32.9c-199.5-32.3-413.5-69.3-600,32.5 C0,250.3,0,158.9,0,67.4z" fill="#0073CF"/>
    <path d="M0,615.2c184.3-101.6,402.7-62.9,600.1-31c100.5,16.2,202.3,29.2,304.1,31.5 c106.4,2.5,200.5-19.3,295.8-67c0-91.4,0-182.7,0-274.1c-95.3,48-189.2,70.3-295.8,67.5c-101.9-2.7-203.6-16.7-304.1-32.9 c-199.5-32.3-413.5-69.3-600,32.5C0,432.8,0,524,0,615.2z M784.3,352.1c2.9,10.8,5.7,21.6,8.6,32.4c11.1,1.1,16.6,1.6,27.6,2.5 c-7.4,5.9-14.8,11.7-22.2,17.5c2.8,10.8,5.7,21.6,8.5,32.4c-7.5-7.2-14.9-14.4-22.4-21.7c-7.4,5.8-14.9,11.5-22.4,17.3 c2.8-10.2,5.7-20.5,8.5-30.7c-7.5-7.3-15-14.6-22.5-21.9c9.3,1.1,18.6,2.1,27.8,3C778.6,372.6,781.5,362.4,784.3,352.1z M776.1,520c2.8-10.3,5.6-20.5,8.5-30.8c2.9,10.8,5.7,21.6,8.6,32.4c11.1,1,16.6,1.5,27.6,2.4c-7.4,5.9-14.8,11.8-22.2,17.7 c2.8,10.8,5.7,21.6,8.5,32.3c-7.5-7.2-14.9-14.4-22.3-21.6c-7.4,5.8-14.9,11.6-22.4,17.3c2.8-10.2,5.6-20.5,8.5-30.7 c-7.5-7.3-15-14.6-22.5-22C759.4,518.3,764.9,518.9,776.1,520L776.1,520z M600,400.7c2.5,11,5,21.9,7.6,32.9 c9.9,1.6,15,2.4,25.3,3.9c-8.3,6.6-12.4,9.9-20.5,16.5c2.6,11,5.2,21.9,7.8,32.9c-6.8-7.5-13.5-15.2-20.1-22.8 c-7.8,6.6-11.7,9.9-19.4,16.5c2.5-10.2,4.9-20.3,7.4-30.5c-6.5-7.6-13-15.2-19.5-22.8c9.7,1.6,14.5,2.4,24.1,4 C595.1,421.1,597.5,410.9,600,400.7z M433.5,302c2.5,10.9,5,21.8,7.5,32.6c9.7,1.2,14.6,1.9,24.3,3.2c-7.8,6.8-11.7,10.2-19.6,17 c2.5,10.9,5,21.8,7.5,32.7c-6.5-7.4-13-14.8-19.6-22.2c-7.8,6.8-11.8,10.3-19.6,17.2c2.5-10.3,5-20.6,7.4-30.9 c-6.5-7.2-13-14.4-19.6-21.6c9.7,1,14.6,1.5,24.3,2.7C428.5,322.5,431,312.3,433.5,302z M426.1,470.5c2.5-10.3,5-20.6,7.4-30.8 c2.5,10.9,5,21.8,7.5,32.6c9.7,1.2,14.6,1.9,24.3,3.2c-7.8,6.8-11.7,10.2-19.6,17c2.5,10.9,5,21.8,7.5,32.7 c-6.5-7.4-13.1-14.8-19.6-22.1c-7.8,6.9-11.8,10.4-19.6,17.4c2.5-10.3,5-20.6,7.4-30.9c-6.5-7.3-13.1-14.5-19.6-21.8 C411.5,468.8,416.4,469.3,426.1,470.5z" fill="#FFFFFF"/>
    <path d="M600,400.7c-2.5,10.2-4.9,20.3-7.4,30.5c1.6,0.3,2.4,0.4,3.9,0.6C597.7,421.5,598.8,411.1,600,400.7z" fill="#0073CF"/>
    <path d="M598.3,432.2c1.3,0.2,2,0.3,3.4,0.5c2.3,0.4,3.5,0.6,5.9,0.9c-2.5-11-5.1-21.9-7.6-32.9 c-1.2,10.4-2.3,20.8-3.5,31.1C597.3,432,597.6,432,598.3,432.2z" fill="#0073CF"/>
    <path d="M601.7,432.7c0,2.8,0,4.2,0,6.9c0.1-0.1,0.1-0.1,0.2-0.1c0.2-0.4,0.3-0.5,0.5-0.9c0.1,0.4,0.2,0.5,0.4,0.9 c10-0.6,20-1.3,30-1.9c-10.3-1.6-15.4-2.4-25.3-3.9C605.2,433.3,604,433.1,601.7,432.7z" fill="#0073CF"/>
    <path d="M602.8,439.5c0.2,0.6,0.3,0.9,0.5,1.6c0.7,0.2,1.1,0.4,1.8,0.6c-0.3,0.5-0.4,0.8-0.7,1.4 c2-0.5,3-0.8,5-1.3c1.2,4.9,1.8,7.4,3,12.4c8.1-6.6,12.2-9.9,20.5-16.5C622.8,438.2,612.8,438.9,602.8,439.5z" fill="#0073CF"/>
    <path d="M601.7,439.6c0,0.1,0,0.2,0,0.3c0.1-0.2,0.1-0.3,0.2-0.5C601.8,439.6,601.8,439.6,601.7,439.6z" fill="#0073CF"/>
    <path d="M568.5,427.3c6.5,7.6,13,15.2,19.5,22.8c0.5-2,0.7-3.1,1.2-5.1C580.9,437.9,576.8,434.4,568.5,427.3z" fill="#0073CF"/>
    <path d="M604.4,443c0.3-0.5,0.4-0.8,0.7-1.4c-0.7-0.2-1.1-0.4-1.8-0.6c0.3,0.8,0.5,1.3,0.9,2.1 C604.2,443.1,604.3,443.1,604.4,443z" fill="#0073CF"/>
    <path d="M589.2,445c0.7-2.5,1-3.8,1.7-6.3c2.1,1.3,3.1,1.9,5.1,3.1c0.7-1.6,1-2.4,1.7-4c1,2,1.4,3,2.4,5 c0.7-1.1,1-1.7,1.7-2.9c0-0.1,0-0.2,0-0.3c0-2.8,0-4.2,0-6.9c-1.4-0.2-2-0.3-3.4-0.5c-0.7-0.1-1.1-0.2-1.8-0.3 c-1.6-0.3-2.4-0.4-3.9-0.6c-9.6-1.6-14.5-2.4-24.1-4C576.8,434.4,580.9,437.9,589.2,445z" fill="#0073CF"/>
    <path d="M609.4,441.7c-2,0.5-3,0.8-5,1.3c-0.1,0.1-0.1,0.1-0.2,0.1c0.6,1.8,1,2.7,1.6,4.5c0.4,0.2,0.6,0.3,1,0.5 c-0.2,0.3-0.3,0.4-0.5,0.7c4.6,12.7,9.2,25.4,13.9,38c-2.6-11-5.2-21.9-7.8-32.9C611.2,449.1,610.6,446.6,609.4,441.7z" fill="#0073CF"/>
    <path d="M606.2,449c-0.8,0.9-1.2,1.4-2.1,2.3c1.3,2.7,2,4,3.3,6.6c-3,2.5-4.5,3.7-7.4,6.2 c6.6,7.7,13.3,15.3,20.1,22.8C615.4,474.3,610.8,461.6,606.2,449z" fill="#0073CF"/>
    <path d="M601,444.8c1.9,1.2,2.8,1.7,4.8,2.9c-0.6-1.8-1-2.7-1.6-4.5c-0.3-0.8-0.5-1.3-0.9-2.1 c-0.2-0.6-0.3-0.9-0.5-1.6c-0.1-0.4-0.2-0.5-0.4-0.9c-0.2,0.4-0.3,0.5-0.5,0.9c-0.1,0.2-0.1,0.3-0.2,0.5c-0.7,1.1-1,1.7-1.7,2.9 C600.4,443.6,600.6,444,601,444.8z" fill="#0073CF"/>
    <path d="M601,444.8c-0.4-0.8-0.6-1.2-1-2c-1-2-1.4-3-2.4-5c-0.7,1.6-1,2.4-1.7,4C598,443,598.9,443.6,601,444.8z" fill="#0073CF"/>
    <path d="M607.4,457.9c-1.3-2.7-2-4-3.3-6.6c-7.9,9.7-15.7,19.5-23.6,29.3c7.8-6.6,11.7-9.9,19.4-16.5 C603,461.6,604.4,460.4,607.4,457.9z" fill="#0073CF"/>
    <path d="M604.1,451.3c0.8-0.9,1.2-1.4,2.1-2.3c0.2-0.3,0.3-0.4,0.5-0.7c-0.4-0.2-0.6-0.3-1-0.5 c-1.9-1.2-2.9-1.7-4.8-2.9c-2-1.2-3-1.8-5-3c-2-1.3-3.1-1.9-5.1-3.1c-0.7,2.5-1,3.8-1.7,6.3c-0.5,2-0.7,3.1-1.2,5.1 c-2.5,10.2-4.9,20.3-7.4,30.5C588.4,470.8,596.2,461,604.1,451.3z" fill="#0073CF"/>
    <path d="M784.3,352.1c-2.8,10.2-5.7,20.5-8.5,30.7c1.8,0.2,2.7,0.3,4.5,0.5C781.7,373,783,362.6,784.3,352.1z" fill="#0073CF"/>
    <path d="M782.4,383.6c1.5,0.1,2.2,0.2,3.7,0.4c2.7,0.3,4,0.4,6.7,0.7c-2.9-10.8-5.7-21.6-8.6-32.4 c-1.3,10.4-2.6,20.8-3.9,31.2C781.2,383.4,781.6,383.5,782.4,383.6z" fill="#0073CF"/>
    <path d="M786.1,383.9c0,2.7,0,4,0,6.7c0.1,0,0.2,0,0.3,0c0.3-0.4,0.4-0.6,0.7-0.9c0.2,0.3,0.2,0.5,0.4,0.9 c11-1.1,22-2.3,33-3.6c-11-0.9-16.5-1.4-27.6-2.5C790.2,384.3,788.8,384.2,786.1,383.9z" fill="#0073CF"/>
    <path d="M787.5,390.7c0.2,0.5,0.3,0.8,0.6,1.4c0.8,0.3,1.2,0.4,2.1,0.7c-0.4,0.6-0.6,0.8-1,1.4 c2.3-0.7,3.5-1,5.8-1.7c1.3,4.9,2,7.3,3.3,12.2c7.4-5.8,14.9-11.6,22.2-17.5C809.5,388.3,798.5,389.5,787.5,390.7z" fill="#0073CF"/>
    <path d="M786.1,390.7c0,0.2,0,0.3,0,0.5c0.1-0.2,0.2-0.3,0.3-0.5C786.3,390.7,786.2,390.7,786.1,390.7z" fill="#0073CF"/>
    <path d="M748,379.8c7.5,7.3,15,14.6,22.5,21.9c0.5-2,0.8-3,1.4-5C763.8,391.2,755.9,385.5,748,379.8z" fill="#0073CF"/>
    <path d="M789.2,394.1c0.4-0.6,0.6-0.8,1-1.4c-0.8-0.3-1.2-0.4-2.1-0.7c0.3,0.8,0.5,1.2,0.8,2.1 C789,394.1,789.1,394.1,789.2,394.1z" fill="#0073CF"/>
    <path d="M771.8,396.8c0.7-2.6,1.1-3.9,1.8-6.6c2.4,1.2,3.6,1.8,6.1,2.9c0.8-1.6,1.2-2.4,1.9-3.9 c1.1,1.9,1.7,2.8,2.8,4.7c0.7-1.1,1.1-1.7,1.8-2.8c0-0.2,0-0.3,0-0.5c0-2.7,0-4,0-6.7c-1.5-0.1-2.2-0.2-3.7-0.4 c-0.8-0.1-1.2-0.1-2.1-0.2c-1.8-0.2-2.7-0.3-4.5-0.5c-9.3-1-18.6-2-27.8-3C755.9,385.5,763.8,391.2,771.8,396.8z" fill="#0073CF"/>
    <path d="M794.9,392.4c-2.3,0.7-3.5,1.1-5.8,1.7c-0.1,0-0.2,0-0.3,0c0.8,1.9,1.2,2.8,1.9,4.6 c0.4,0.2,0.7,0.3,1.1,0.4c-0.3,0.2-0.4,0.4-0.7,0.6c5.2,12.4,10.4,24.8,15.5,37.1c-2.8-10.8-5.7-21.6-8.5-32.4 C796.9,399.7,796.3,397.2,794.9,392.4z" fill="#0073CF"/>
    <path d="M791.2,399.7c-0.9,1-1.3,1.6-2.2,2.6c1.5,2.6,2.2,3.9,3.7,6.4c-3.3,2.6-5,4-8.4,6.6 c7.5,7.2,14.9,14.4,22.4,21.5C801.6,424.5,796.4,412.1,791.2,399.7z" fill="#0073CF"/>
    <path d="M785.5,396.1c2.1,1.1,3.2,1.6,5.4,2.7c-0.8-1.9-1.2-2.8-1.9-4.6c-0.3-0.8-0.5-1.2-0.8-2.1 c-0.2-0.5-0.3-0.8-0.6-1.4c-0.2-0.3-0.2-0.5-0.4-0.9c-0.3,0.4-0.4,0.6-0.7,0.9c-0.1,0.2-0.2,0.3-0.3,0.5c-0.7,1.1-1.1,1.7-1.8,2.8 C784.8,394.8,785,395.2,785.5,396.1z" fill="#0073CF"/>
    <path d="M785.5,396.1c-0.4-0.8-0.7-1.3-1.1-2.1c-1.1-1.9-1.7-2.8-2.8-4.7c-0.8,1.6-1.2,2.4-1.9,3.9 C782,394.3,783.1,394.9,785.5,396.1z" fill="#0073CF"/>
    <path d="M792.8,408.8c-1.5-2.6-2.2-3.9-3.7-6.4c-9,10.1-18,20.1-27.1,30.1c7.5-5.7,15-11.4,22.4-17.1 C787.7,412.7,789.4,411.4,792.8,408.8z" fill="#0073CF"/>
    <path d="M789,402.3c0.9-1,1.3-1.6,2.2-2.6c0.3-0.2,0.4-0.4,0.7-0.6c-0.4-0.2-0.7-0.3-1.1-0.4 c-2.1-1.1-3.2-1.6-5.4-2.7c-2.3-1.2-3.5-1.7-5.8-2.9c-2.4-1.2-3.6-1.8-6.1-2.9c-0.7,2.6-1.1,3.9-1.8,6.6c-0.5,2-0.8,3-1.4,5 c-2.8,10.2-5.7,20.5-8.5,30.7C771,422.4,780.1,412.4,789,402.3z" fill="#0073CF"/>
    <path d="M784.5,489.3c-2.8,10.3-5.6,20.5-8.5,30.8c1.8,0.2,2.7,0.3,4.5,0.5C781.9,510.1,783.2,499.7,784.5,489.3z" fill="#0073CF"/>
    <path d="M782.7,520.7c1.5,0.1,2.2,0.2,3.7,0.4c2.7,0.3,4,0.4,6.7,0.6c-2.9-10.8-5.7-21.6-8.6-32.4 c-1.3,10.4-2.6,20.8-3.9,31.2C781.4,520.6,781.8,520.6,782.7,520.7z" fill="#0073CF"/>
    <path d="M786.4,521.1c0,2.8,0,4.1,0,6.9c0.1-0.1,0.2-0.1,0.3-0.1c0.3-0.4,0.4-0.6,0.7-0.9c0.2,0.3,0.2,0.5,0.4,0.9 c11-1.2,21.9-2.4,32.9-3.7c-11-0.9-16.5-1.4-27.6-2.4C790.4,521.4,789.1,521.3,786.4,521.1z" fill="#0073CF"/>
    <path d="M787.7,527.8c0.2,0.5,0.3,0.8,0.6,1.4c0.8,0.3,1.2,0.4,2.1,0.7c-0.4,0.6-0.6,0.8-1,1.4 c2.3-0.7,3.5-1.1,5.8-1.8c1.3,4.9,2,7.4,3.3,12.3c7.4-5.9,14.8-11.8,22.2-17.7C809.7,525.4,798.7,526.6,787.7,527.8z" fill="#0073CF"/>
    <path d="M786.4,528c0,0.1,0,0.2,0,0.3c0.1-0.2,0.2-0.3,0.3-0.5C786.5,527.9,786.5,527.9,786.4,528z" fill="#0073CF"/>
    <path d="M772.1,534c-8-5.6-15.9-11.2-23.8-16.9c7.5,7.4,15,14.7,22.5,22C771.3,537,771.5,536,772.1,534z" fill="#0073CF"/>
    <path d="M789.4,531.2c0.4-0.6,0.6-0.8,1-1.4c-0.8-0.3-1.2-0.4-2.1-0.7c0.3,0.9,0.5,1.3,0.8,2.2 C789.2,531.3,789.3,531.3,789.4,531.2z" fill="#0073CF"/>
    <path d="M773.9,527.4c2.4,1.2,3.6,1.8,6.1,3.1c0.8-1.6,1.1-2.5,1.9-4.1c1.1,2,1.7,2.9,2.8,4.9 c0.7-1.2,1.1-1.8,1.8-3c0-0.1,0-0.2,0-0.3c0-2.8,0-4.1,0-6.9c-1.5-0.1-2.2-0.2-3.7-0.4c-0.8-0.1-1.2-0.1-2.1-0.2 c-1.8-0.2-2.7-0.3-4.5-0.5c-11.1-1.1-16.7-1.7-27.8-3c7.9,5.7,15.9,11.3,23.8,16.9C772.8,531.3,773.2,530,773.9,527.4z" fill="#0073CF"/>
    <path d="M795.2,529.5c-2.3,0.7-3.5,1.1-5.8,1.8c-0.1,0.1-0.2,0.1-0.3,0.1c0.8,1.8,1.2,2.7,1.9,4.5 c0.4,0.2,0.7,0.3,1.1,0.4c-0.3,0.3-0.4,0.5-0.7,0.8c5.2,12.4,10.3,24.7,15.5,37.1c-2.8-10.8-5.7-21.6-8.5-32.3 C797.1,536.8,796.5,534.4,795.2,529.5z" fill="#0073CF"/>
    <path d="M791.5,537c-0.9,1-1.3,1.5-2.2,2.4c1.5,2.6,2.2,3.9,3.7,6.4c-3.3,2.7-5,4-8.4,6.6 c7.4,7.2,14.9,14.4,22.3,21.6C801.8,561.7,796.6,549.4,791.5,537z" fill="#0073CF"/>
    <path d="M785.7,533.2c2.1,1.1,3.2,1.6,5.4,2.6c-0.8-1.8-1.2-2.7-1.9-4.5c-0.3-0.9-0.5-1.3-0.8-2.2 c-0.2-0.5-0.3-0.8-0.6-1.4c-0.2-0.3-0.2-0.5-0.4-0.9c-0.3,0.4-0.4,0.6-0.7,0.9c-0.1,0.2-0.2,0.3-0.3,0.5c-0.7,1.2-1.1,1.8-1.8,3 C785,532,785.3,532.4,785.7,533.2z" fill="#0073CF"/>
    <path d="M785.7,533.2c-0.4-0.8-0.7-1.1-1.1-1.9c-1.1-1.9-1.7-2.9-2.8-4.9c-0.8,1.6-1.1,2.5-1.9,4.1 C782.2,531.6,783.4,532.1,785.7,533.2z" fill="#0073CF"/>
    <path d="M793,545.9c-1.5-2.6-2.2-3.9-3.7-6.4c-9,10.2-18,20.3-27,30.4c7.5-5.8,14.9-11.5,22.4-17.3 C788,549.9,789.6,548.5,793,545.9z" fill="#0073CF"/>
    <path d="M789.3,539.4c0.9-1,1.3-1.5,2.2-2.4c0.3-0.3,0.4-0.5,0.7-0.8c-0.4-0.2-0.7-0.3-1.1-0.4 c-2.1-1.1-3.2-1.6-5.4-2.6c-2.3-1.1-3.5-1.6-5.8-2.7c-2.4-1.2-3.6-1.8-6.1-3.1c-0.7,2.6-1.1,3.9-1.8,6.6c-0.5,2.1-0.8,3.1-1.4,5.1 c-2.8,10.2-5.6,20.5-8.5,30.7C771.3,559.7,780.3,549.6,789.3,539.4z" fill="#0073CF"/>
    <path d="M433.5,302c-2.5,10.3-5,20.5-7.4,30.8c1.6,0.2,2.4,0.3,4,0.5C431.2,322.9,432.3,312.4,433.5,302z" fill="#0073CF"/>
    <path d="M432,333.5c1.3,0.2,1.9,0.2,3.2,0.4c2.3,0.3,3.5,0.4,5.8,0.7c-2.5-10.9-5-21.8-7.5-32.6 c-1.2,10.4-2.3,20.9-3.5,31.3C430.8,333.4,431.2,333.4,432,333.5z" fill="#0073CF"/>
    <path d="M435.2,333.9c0,2.7,0,4.1,0,6.8c0.1,0,0.1,0,0.2,0c0.2-0.4,0.3-0.6,0.5-0.9c0.1,0.3,0.2,0.5,0.4,0.9 c9.6-1,19.3-1.9,29-2.8c-9.7-1.4-14.6-2-24.3-3.2C438.7,334.3,437.5,334.2,435.2,333.9z" fill="#0073CF"/>
    <path d="M436.3,340.7c0.2,0.6,0.3,0.8,0.5,1.4c0.7,0.3,1.1,0.4,1.8,0.7c-0.3,0.6-0.4,0.8-0.7,1.4c2-0.7,3-1,5-1.7 c1.1,4.9,1.7,7.3,2.8,12.3c7.8-6.8,11.7-10.2,19.6-16.9C455.6,338.7,445.9,339.7,436.3,340.7z" fill="#0073CF"/>
    <path d="M435.2,340.7c0,0.2,0,0.3,0,0.5c0.1-0.2,0.1-0.3,0.2-0.5C435.3,340.7,435.3,340.7,435.2,340.7z" fill="#0073CF"/>
    <path d="M401.8,330.2c6.6,7.2,13.1,14.4,19.6,21.6c0.5-2,0.8-3,1.3-5C414.3,340.1,410.1,336.7,401.8,330.2z" fill="#0073CF"/>
    <path d="M437.8,344.2c0.3-0.6,0.4-0.8,0.7-1.4c-0.7-0.3-1.1-0.4-1.8-0.7c0.3,0.8,0.5,1.3,0.8,2.1 C437.7,344.1,437.8,344.1,437.8,344.2z" fill="#0073CF"/>
    <path d="M422.7,346.8c0.6-2.6,0.9-4,1.6-6.6c2.1,1.2,3.2,1.8,5.3,2.9c0.6-1.6,0.9-2.4,1.6-3.9 c1,1.9,1.4,2.9,2.4,4.8c0.7-1.1,1-1.7,1.7-2.8c0-0.2,0-0.3,0-0.5c0-2.7,0-4.1,0-6.8c-1.3-0.2-1.9-0.2-3.2-0.4 c-0.8-0.1-1.2-0.1-1.9-0.2c-1.6-0.2-2.4-0.3-4-0.5c-9.7-1.1-14.6-1.7-24.3-2.7C410.1,336.7,414.3,340.1,422.7,346.8z" fill="#0073CF"/>
    <path d="M442.9,342.5c-2,0.7-3,1-5,1.7c-0.1,0-0.1,0-0.2,0c0.6,1.9,0.9,2.8,1.6,4.7c0.4,0.2,0.6,0.3,1,0.5 c-0.2,0.2-0.3,0.4-0.5,0.6c4.5,12.5,9,25.1,13.5,37.6c-2.5-10.9-5-21.8-7.5-32.7C444.6,349.8,444,347.4,442.9,342.5z" fill="#0073CF"/>
    <path d="M439.7,349.8c-0.8,1-1.2,1.5-2,2.6c1.3,2.6,2,3.9,3.4,6.5c-3,2.6-4.5,3.9-7.5,6.5 c6.6,7.3,13.1,14.7,19.6,22C448.6,374.9,444.2,362.4,439.7,349.8z" fill="#0073CF"/>
    <path d="M434.6,346.1c1.8,1.1,2.7,1.6,4.6,2.7c-0.6-1.9-0.9-2.8-1.6-4.7c-0.3-0.8-0.5-1.3-0.8-2.1 c-0.2-0.6-0.3-0.8-0.5-1.4c-0.1-0.3-0.2-0.5-0.4-0.9c-0.2,0.4-0.3,0.6-0.5,0.9c-0.1,0.2-0.1,0.3-0.2,0.5c-0.7,1.1-1,1.7-1.7,2.8 C434,344.8,434.2,345.2,434.6,346.1z" fill="#0073CF"/>
    <path d="M434.6,346.1c-0.4-0.8-0.6-1.3-1.1-2.1c-1-1.9-1.4-2.9-2.4-4.8c-0.6,1.6-0.9,2.4-1.6,3.9 C431.6,344.3,432.6,344.9,434.6,346.1z" fill="#0073CF"/>
    <path d="M441,358.9c-1.3-2.6-2-3.9-3.4-6.5c-7.9,10.1-15.8,20.2-23.7,30.3c7.8-6.9,11.8-10.4,19.6-17.2 C436.5,362.8,438,361.5,441,358.9z" fill="#0073CF"/>
    <path d="M437.6,352.4c0.8-1,1.2-1.5,2-2.6c0.2-0.2,0.3-0.4,0.5-0.6c-0.4-0.2-0.6-0.3-1-0.5 c-1.8-1.1-2.7-1.6-4.6-2.7c-2-1.2-3-1.8-5.1-2.9c-2.1-1.2-3.2-1.8-5.3-2.9c-0.6,2.6-0.9,4-1.6,6.6c-0.5,2-0.8,3-1.3,5 c-2.5,10.3-5,20.6-7.4,30.9C421.8,372.5,429.7,362.5,437.6,352.4z" fill="#0073CF"/>
    <path d="M433.6,439.6c-2.5,10.3-5,20.6-7.4,30.8c1.6,0.2,2.4,0.3,4,0.5C431.3,460.5,432.4,450.1,433.6,439.6z" fill="#0073CF"/>
    <path d="M432,471.2c1.3,0.2,1.9,0.2,3.2,0.4c2.3,0.3,3.5,0.4,5.8,0.7c-2.5-10.9-5-21.8-7.5-32.6 c-1.2,10.4-2.3,20.9-3.5,31.3C430.9,471,431.2,471.1,432,471.2z" fill="#0073CF"/>
    <path d="M435.3,471.5c0,2.8,0,4.2,0,6.9c0.1-0.1,0.1-0.1,0.2-0.1c0.2-0.4,0.3-0.6,0.5-0.9c0.1,0.3,0.2,0.5,0.4,0.9 c9.6-1,19.3-2,29-2.8c-9.7-1.3-14.6-2-24.3-3.2C438.7,472,437.6,471.8,435.3,471.5z" fill="#0073CF"/>
    <path d="M436.4,478.3c0.2,0.6,0.3,0.8,0.5,1.4c0.7,0.3,1.1,0.4,1.8,0.7c-0.3,0.6-0.4,0.8-0.7,1.4 c2-0.7,3-1,5.1-1.7c1.1,5,1.7,7.4,2.8,12.4c7.8-6.9,11.8-10.3,19.6-17C455.7,476.3,446,477.3,436.4,478.3z" fill="#0073CF"/>
    <path d="M435.3,478.5c0,0.1,0,0.2,0,0.3c0.1-0.2,0.1-0.3,0.2-0.5C435.4,478.4,435.4,478.4,435.3,478.5z" fill="#0073CF"/>
    <path d="M422.8,484.4c-8.4-6.7-12.6-10-20.9-16.6c6.6,7.2,13.1,14.5,19.6,21.8C422,487.5,422.2,486.5,422.8,484.4z " fill="#0073CF"/>
    <path d="M437.9,481.8c0.3-0.6,0.4-0.8,0.7-1.4c-0.7-0.3-1.1-0.4-1.8-0.7c0.3,0.9,0.5,1.4,0.8,2.3 C437.8,481.9,437.8,481.8,437.9,481.8z" fill="#0073CF"/>
    <path d="M424.3,477.8c2.1,1.2,3.2,1.9,5.3,3.1c0.6-1.6,0.9-2.5,1.6-4.1c1,2,1.4,2.9,2.4,4.9c0.7-1.2,1-1.8,1.7-2.9 c0-0.1,0-0.2,0-0.3c0-2.8,0-4.2,0-6.9c-1.3-0.2-1.9-0.2-3.2-0.4c-0.8-0.1-1.2-0.1-1.9-0.2c-1.6-0.2-2.4-0.3-4-0.5 c-9.7-1.1-14.6-1.7-24.3-2.6c8.4,6.6,12.6,9.9,20.9,16.6C423.4,481.8,423.7,480.5,424.3,477.8z" fill="#0073CF"/>
    <path d="M443,480.1c-2,0.7-3,1-5.1,1.7c-0.1,0.1-0.1,0.1-0.2,0.1c0.6,1.8,0.9,2.7,1.6,4.5c0.4,0.2,0.6,0.3,1,0.5 c-0.2,0.3-0.3,0.5-0.5,0.8c4.5,12.5,9,25.1,13.5,37.6c-2.5-10.9-5-21.8-7.5-32.7C444.6,487.6,444.1,485.1,443,480.1z" fill="#0073CF"/>
    <path d="M439.7,487.6c-0.8,1-1.2,1.4-2,2.4c1.3,2.6,2,3.9,3.4,6.5c-3,2.6-4.5,3.9-7.5,6.5 c6.6,7.4,13.1,14.7,19.6,22.1C448.7,512.7,444.2,500.1,439.7,487.6z" fill="#0073CF"/>
    <path d="M434.7,483.7c1.8,1.1,2.7,1.6,4.6,2.7c-0.6-1.8-0.9-2.7-1.6-4.5c-0.3-0.9-0.5-1.4-0.8-2.3 c-0.2-0.6-0.3-0.8-0.5-1.4c-0.1-0.3-0.2-0.5-0.4-0.9c-0.2,0.4-0.3,0.6-0.5,0.9c-0.1,0.2-0.1,0.3-0.2,0.5c-0.7,1.2-1,1.8-1.7,2.9 C434,482.5,434.2,482.9,434.7,483.7z" fill="#0073CF"/>
    <path d="M434.7,483.7c-0.4-0.8-0.7-1.2-1.1-1.9c-1-2-1.4-3-2.4-4.9c-0.6,1.6-0.9,2.5-1.6,4.1 C431.6,482,432.6,482.6,434.7,483.7z" fill="#0073CF"/>
    <path d="M441.1,496.5c-1.3-2.6-2-3.9-3.4-6.5c-7.9,10.1-15.8,20.3-23.7,30.5c7.8-7,11.8-10.5,19.6-17.4 C436.6,500.4,438.1,499.1,441.1,496.5z" fill="#0073CF"/>
    <path d="M437.7,490c0.8-1,1.2-1.4,2-2.4c0.2-0.3,0.3-0.5,0.5-0.8c-0.4-0.2-0.6-0.3-1-0.5c-1.8-1.1-2.7-1.6-4.6-2.7 c-2-1.1-3-1.7-5.1-2.8c-2.1-1.2-3.2-1.9-5.3-3.1c-0.6,2.6-0.9,4-1.6,6.6c-0.5,2.1-0.8,3.1-1.3,5.1c-2.5,10.3-5,20.6-7.4,30.9 C421.9,510.3,429.8,500.1,437.7,490z" fill="#0073CF"/>
  </g>
  <g opacity="0.3">
    <path d="M259.7,30c127.9,0,223.7,15.9,325.2,32.8C688.7,80,796.1,97.9,941,97.9c44.4,0,90-6.1,135.4-18.1 c30.5-8.1,61.9-19,93.6-32.7v757.2c-36.8,17.4-73.5,30.8-109.2,40C1020.3,854.7,979.7,860,940,860c-140.1,0-243.6-16.8-343.7-33 c-98.9-16.1-201.3-32.7-336.6-32.7c-45.7,0-91.1,5.3-135.1,15.8C93,817.6,61.3,827.9,30,841V86.6C67.1,69,103.8,55.4,139.2,46.1 C179.9,35.4,220.4,30,259.7,30 M1200,0c-89.2,45-174.4,67.9-259,67.9C660.3,67.9,524.3,0,259.7,0C175.2,0,89.1,23,0,67.9 c0,242.4,0,577.6,0,820c89-44.9,175.2-63.6,259.7-63.6c268.9,0,398.5,65.7,680.3,65.7c84.6,0,170.8-22,260-66.9 C1200,580.7,1200,242.4,1200,0L1200,0z" fill="#212121"/>
  </g>
</svg>