<svg viewBox="0 0 1200 1200" xmlns="http://www.w3.org/2000/svg" xmlns:xlink="http://www.w3.org/1999/xlink">
  <g>
    <path d="M0,769.3c95.2-49.3,192.2-67,298.8-64.1c101,2.8,201.8,16.2,301.2,33.4s200.3,29.5,301.3,31.9 c106.2,2.6,203.8-18.6,298.7-66.9c0,91.4,0,182.9,0,274.3c-94.4,49-192.8,69.1-298.7,66.6c-101-2.4-201.8-14.5-301.3-31.7 c-99.5-17.1-200.2-30.3-301.2-33C192,977.1,95.1,992.1,0,1042.8C0,951.7,0,860.5,0,769.3z" fill="#ED1C24"/>
    <path d="M345.8,446.7c-2.6,49.1-28.6,100.8-75.8,120.6c-47.2-19.7-64.5-73.1-68-119.9c-0.3-5.7-0.4-8.5-0.7-14.2 C129.8,441.6,64.2,464,0,496.5c0,91,0,181.9,0,272.9c95.2-49.3,192.2-67,298.8-64.1c101,2.8,201.8,16.2,301.2,33.4 s200.3,29.5,301.3,31.9c106.2,2.6,203.8-18.6,298.7-66.9c0-91.5,0-182.9,0-274.4c-62.8,31.4-128.4,55-198.4,63.6 c-64.6,7.9-130.5,3.8-195.1-1.6c-154.3-12.8-305.3-48.2-459.9-58.9C346.2,438.1,346.1,441,345.8,446.7z" fill="#005DA4"/>
    <path d="M0,223c0,91.2,0,182.3,0,273.5c64.2-32.4,129.8-54.8,201.4-63.3c-1.7-37.5-3.5-75-5.2-112.6l0,0l0,0 c0.1-0.1,0.3-0.2,0.4-0.3c1.4-1.1,2.8-2.3,4.2-3.4c0.1-0.1,0.3-0.2,0.4-0.3l0,0c47.3-32.9,96.7-28.1,145.6-1l0,0 c0.1,0.1,0.3,0.2,0.4,0.3c1.8,1.1,3.5,2.2,5.1,3.2c0.1,0.1,0.3,0.2,0.4,0.3l0,0l0,0c-2.1,37.7-4.1,75.3-6.1,113 c154.6,10.7,305.6,46.1,459.9,58.9c64.6,5.4,130.6,9.5,195.1,1.6c70-8.6,135.5-32.2,198.4-63.6c0-91.4,0-182.9,0-274.3 c-95.8,46.8-192,70.4-298.7,67.7c-101-2.6-201.9-15.1-301.3-32.7c-99.4-17.5-200.2-31.6-301.2-34.6C192.2,152.3,95.5,176.3,0,223z" fill="#FFFFFF"/>
    <path d="M270,567.3c47.2-19.7,73.1-71.6,75.8-120.6c0.3-5.7,0.5-8.5,0.8-14.2c2.1-37.7,4.2-75.3,6.3-113l0,0 c-2.4,42.4-4.7,84.9-7,127.3C343.1,495.8,317.1,547.6,270,567.3c-47.2-19.7-64.5-73.1-68-119.9c-2-42.3-3.9-84.6-5.9-126.9l0,0 c1.7,37.6,3.5,75.1,5.2,112.7c0.3,5.7,0.4,8.5,0.7,14.2C205.5,494.2,222.8,547.6,270,567.3z" fill="#005DA4"/>
    <path d="M196.5,320.3c1.5-1.1,2.8-2.3,4.2-3.4C199.3,317.9,197.9,319,196.5,320.3z" fill="#005DA4"/>
    <path d="M347.2,315.9c1.7,1.1,3.5,2.2,5.1,3.2C350.7,317.9,348.9,316.9,347.2,315.9z" fill="#005DA4"/>
    <path d="M241.5,500.5L241.5,500.5c5.8-5,12.9-5.2,18.9-0.5c5.9,4.7,13.3,4.7,19.4,0s13.8-4.6,20.1,0.4 c5.6,4.4,12.2,4.9,18.1,2.3c1.8-3.6,3.4-7.4,5-11.2c-6.5,6.2-15.6,7-22.9,1.2l0,0c-6.3-5-14-5.2-20.1-0.4s-13.5,4.7-19.4,0 s-13.1-4.6-18.9,0.5c-6.8,5.9-14.8,5.1-20.4-1c1.3,3.9,2.8,7.6,4.5,11.1C230.6,505.5,236.4,504.8,241.5,500.5z" fill="#FFFFFF"/>
    <path d="M241.5,485L241.5,485c5.8-5,12.9-5.2,18.9-0.5s13.3,4.7,19.4,0s13.8-4.6,20.1,0.4c9.9,7.9,23,2.8,28.2-7.9 c1.3-4.5,2.3-9.1,3.2-13.9c-10.5-18.2-21-36.4-31.4-54.7c-4.9,8.4-7.3,12.6-12.1,21c-6-16-11.9-32.1-17.8-48.2 c-5.8,16-11.6,32.1-17.3,48.2c-4.5-8.4-6.8-12.6-11.2-20.9c-9.3,18.2-18.4,36.6-27.4,55c0.7,4.7,1.7,9.3,2.7,13.8 C220.8,487.5,232.6,493.1,241.5,485z" fill="#FFFFFF"/>
    <path d="M270,551c17.6-8.1,32.4-22.9,42.7-39.1c-4.3,0.5-8.8-0.7-12.8-3.7l0,0c-6.3-5-14-5.2-20.1-0.4 c-6.1,4.8-13.5,4.7-19.4,0s-13.1-4.6-18.9,0.5c-3.6,3.2-7.6,4.3-11.4,3.8C239,528.5,253,543,270,551z" fill="#FFFFFF"/>
    <path d="M346.5,315.7c-48.9-27.1-98.3-31.9-145.6,1c2.1,43.2,4.2,86.5,6.3,129.7c0.9,16.7,3.6,33.8,9.4,49.6 c0-0.1,0-0.1,0-0.1c1.4,3.9,2.9,7.6,4.5,11.2c9.8,22.1,26.5,42,49,52c24-10.7,40.3-30,53.2-52.3l0,0c1.9-3.6,3.7-7.4,5.2-11.3 c0-0.2,0-0.3,0-0.4c6.2-15.6,10.2-32.4,10.9-49.2C341.7,402.6,344.1,359.1,346.5,315.7z M285.7,309.8c2,0.6,3,1,5,1.6 c0.6-2.6,0.9-3.9,1.6-6.6c0.6,2.7,0.9,4,1.6,6.6c2-0.6,3-0.8,5-1.4c-1.4,1.9-2.1,2.9-3.6,4.8c1.4,2,2.1,3,3.6,5c-2-0.7-3-1-5-1.6 c-0.6,2.6-0.9,3.9-1.6,6.6c-0.6-2.7-0.9-4-1.6-6.6c-2,0.6-3,0.8-5,1.4c1.4-2,2.1-2.9,3.5-4.9C287.8,312.8,287.1,311.8,285.7,309.8z M263.7,349.7c1.9,0.6,2.9,0.9,4.8,1.5c0.6-2.6,0.9-4,1.5-6.6c0.6,2.6,0.9,4,1.5,6.6c1.9-0.6,2.9-0.9,4.8-1.5c-1.4,2-2.1,3-3.4,4.9 c1.4,2,2.1,3,3.4,5c-1.9-0.6-2.9-0.9-4.8-1.5c-0.6,2.6-0.9,4-1.5,6.6c-0.6-2.6-0.9-4-1.5-6.6c-1.9,0.6-2.9,0.9-4.8,1.5 c1.3-2,2-3,3.4-5C265.8,352.7,265.1,351.7,263.7,349.7z M242.4,310.3c1.8,0.5,2.8,0.8,4.6,1.3c0.6-2.7,0.9-4,1.5-6.6 c0.6,2.6,0.9,3.9,1.5,6.5c1.9-0.7,2.8-1,4.7-1.6c-1.3,2-2,3-3.3,5c1.3,1.9,2,2.9,3.3,4.9c-1.9-0.6-2.8-0.8-4.7-1.4 c-0.6,2.7-0.9,4-1.5,6.6c-0.6-2.6-0.9-3.9-1.5-6.5c-1.9,0.7-2.8,1-4.6,1.7c1.3-2,2-3,3.3-5.1C244.4,313.2,243.7,312.2,242.4,310.3z M216.4,477.6c0-0.3,0-0.5,0-0.8c0,0.1,0,0.1,0.1,0.2C216.5,477.2,216.4,477.3,216.4,477.6z M225.4,502.8c-1.6-3.6-3-7.2-4.4-10.9 c-0.3-0.3-0.5-0.6-0.8-0.9c0.3,0.2,0.6,0.5,0.9,0.8c5.6,6.2,13.7,6.9,20.4,1c5.8-5,12.9-5.2,18.9-0.5c5.9,4.7,13.3,4.7,19.4,0 s13.8-4.6,20.1,0.4c7.5,5.9,16.6,5,23.2-1.2c0.1-0.1,0.2-0.2,0.2-0.2s-0.2,0.2-0.3,0.3c-1.5,3.9-3.2,7.7-5.2,11.1 c-5.7,2.5-12.3,2-17.9-2.4c-6.3-5-14-5.2-20.1-0.4c-6.1,4.7-13.5,4.7-19.4,0s-13.1-4.6-18.9,0.5 C236.4,504.8,230.6,505.4,225.4,502.8C225.5,502.8,225.4,502.8,225.4,502.8z M319.6,501.8L319.6,501.8L319.6,501.8z M270,551 c-16.9-8.1-31-22.6-39.9-39c3.8,0.5,7.9-0.8,11.4-3.8c5.7-4.9,12.9-5.2,18.9-0.5c5.9,4.7,13.3,4.7,19.4,0s13.8-4.6,20.1,0.4 c4,3.1,8.5,4.3,12.8,3.7C302.4,528.1,287.7,543.1,270,551z M328,477.1c0.1-0.3,0.2-0.4,0.3-0.7v0.1c-0.1,0.1-0.1,0.3-0.2,0.4 c-5.2,10.7-18.2,15.8-28.2,7.9c-6.3-5-14-5.2-20.1-0.4c-6.1,4.7-13.5,4.7-19.4,0s-13.2-4.6-18.9,0.5c-8.9,7.9-20.8,2.5-24.7-7.7 c-0.1-0.3-0.2-0.4-0.3-0.7l0,0c-1-4.2-1.8-8.5-2.5-13c9-18.4,18.1-36.7,27.4-55c4.5,8.3,6.7,12.5,11.2,20.9 c5.7-16.1,11.4-32.2,17.3-48.2c5.9,16.1,11.8,32.1,17.8,48.2c4.8-8.4,7.2-12.6,12.1-21c10.4,18.3,20.8,36.5,31.4,54.7 C330.3,468,329.2,472.6,328,477.1z" fill="#005DA4"/>
    <path d="M268.5,358.1c0.6,2.6,0.9,4,1.5,6.6c0.6-2.6,0.9-4,1.5-6.6c1.9,0.7,2.9,1,4.8,1.7c-1.4-2-2.1-3.1-3.4-5.1 c1.4-2,2.1-3,3.4-4.9c-1.9,0.6-2.9,0.9-4.8,1.5c-0.6-2.6-0.9-4-1.5-6.6c-0.6,2.6-0.9,4-1.5,6.6c-1.9-0.6-2.9-0.9-4.8-1.5 c1.3,2,2,3,3.4,4.9c-1.4,2-2,3.1-3.4,5.1C265.6,359.1,266.6,358.7,268.5,358.1z" fill="#FFDD00"/>
    <path d="M247.1,318.5c0.6,2.6,0.9,3.9,1.5,6.5c0.5-2.7,0.8-4,1.4-6.6c1.9,0.6,2.9,0.9,4.8,1.5c-1.3-2-2-3-3.3-5 c1.3-2,2-3,3.3-5c-1.9,0.6-2.9,1-4.8,1.6c-0.5-2.6-0.8-3.9-1.4-6.6c-0.6,2.7-0.9,4-1.5,6.6c-1.9-0.5-2.8-0.8-4.6-1.3 c1.3,1.9,2,2.9,3.3,4.8c-1.3,2.1-2,3.1-3.3,5.2C244.3,319.6,245.2,319.2,247.1,318.5z" fill="#FFDD00"/>
    <path d="M290.8,318.3c0.6,2.7,0.9,4,1.5,6.6c0.6-2.6,0.9-3.9,1.6-6.6c2,0.7,3,1.1,5,1.8c-1.4-2.1-2.1-3.1-3.6-5.2 c1.4-1.9,2.1-2.9,3.6-4.8c-2,0.5-3,0.8-5,1.4c-0.6-2.7-0.9-4-1.6-6.6c-0.6,2.6-0.9,3.9-1.5,6.6c-2-0.6-3.1-1-5.1-1.6 c1.4,2,2.1,3,3.5,5c-1.4,2-2.1,3-3.5,5C287.8,319.2,288.8,318.9,290.8,318.3z" fill="#FFDD00"/>
    <path d="M202,447.4c3.5,46.9,20.8,100.1,68,119.9c47.2-19.7,73.1-71.6,75.8-120.6c2.3-42.4,4.7-84.9,7-127.3l0,0 c-0.1-0.1-0.3-0.2-0.4-0.3c-1.8-1.1-3.5-2.2-5.1-3.2c-0.1-0.1-0.3-0.2-0.4-0.3l0,0c-2.4,43.4-4.7,86.8-7.1,130.3 c-0.8,17-4.7,34-11.1,49.7c-1.6,3.9-3.4,7.7-5.2,11.3c-12.9,22.2-29.2,41.6-53.2,52.3c-22.5-10-39-29.9-49-52.1 c-1.6-3.6-3.2-7.3-4.5-11.2c-5.8-15.8-8.5-32.8-9.4-49.6c-2-43.3-4-86.6-6-129.8l0,0c-0.1,0.1-0.3,0.2-0.4,0.3 c-1.4,1.1-2.8,2.2-4.2,3.4c-0.1,0.1-0.3,0.2-0.4,0.3l0,0C198.2,362.7,200.1,405,202,447.4z" fill="#ED1C24"/>
  </g>
  <g opacity="0.3">
    <path d="M259.7,185c127.9,0,223.7,15.9,325.2,32.8C688.7,235,796.1,252.9,941,252.9c44.4,0,90-6.1,135.4-18.1 c30.5-8.1,61.9-19,93.6-32.7v757.2c-36.8,17.4-73.5,30.8-109.2,40c-40.5,10.4-81.1,15.7-120.8,15.7c-140.1,0-243.6-16.8-343.7-33 c-98.9-16.1-201.3-32.7-336.6-32.7c-45.7,0-91.1,5.3-135.1,15.8C93,972.6,61.3,982.9,30,996V241.6c37.1-17.6,73.8-31.2,109.2-40.5 C179.9,190.4,220.4,185,259.7,185 M1200,155c-89.2,45-174.4,67.9-259,67.9c-280.7,0-416.7-67.9-681.3-67.9 C175.2,155,89.1,178,0,222.9c0,242.4,0,577.6,0,820c89-44.9,175.2-63.6,259.7-63.6c268.9,0,398.5,65.7,680.3,65.7 c84.6,0,170.8-22,260-66.9C1200,735.7,1200,397.4,1200,155L1200,155z" fill="#212121"/>
  </g>
</svg>