<svg viewBox="0 0 1200 1200" xmlns="http://www.w3.org/2000/svg" xmlns:xlink="http://www.w3.org/1999/xlink">
  <g>
    <path d="M519.9,410.3c0.3-77.8,0.5-155.6,0.8-233.3c-94.5-13.7-191.8-26.5-287.4-20.9 C150.7,160.9,73.5,185.4,0,222.9C0,325.4,0,428,0,530.5c65.5-33.2,133.7-56.6,207-63.6c83.2-7.9,167.8,0.6,250.4,10.4 C471.5,450.1,492.6,425.2,519.9,410.3z" fill="#006B3F"/>
    <path d="M456.7,683.3c-82.6-9.7-166.9-17.7-250-10.4C133.4,679.4,65.5,702.2,0,735.2c0,102.6,0,205.1,0,307.7 c74-37.1,149.5-59.1,232.3-62.7c95.3-4.1,191.3,6.8,285.6,20.1c0.3-77.8,0.5-155.6,0.8-233.3C491.9,744.5,471.1,715,456.7,683.3z" fill="#006B3F"/>
    <path d="M679,202.3c0.1,77.8,0.1,155.6,0.2,233.4c26.3,22.7,48,51.3,62.3,83.1c82.9,8.9,168.3,17.4,251.6,8.7 c72.9-7.7,141.8-30.6,206.9-63.9c0-102.9,0-205.7,0-308.6c-73.1,37.4-151,61.2-233.1,66C871.2,226.7,773.6,215.1,679,202.3z" fill="#006B3F"/>
    <path d="M679.5,792.2c0.1,77.8,0.1,155.6,0.2,233.4c94.4,12.5,191.8,24,287.2,18.3c82.2-4.9,159.9-28.9,233.2-66 c0-102.9,0-205.7,0-308.6c-65.2,33.1-134,56.2-207,63.9c-83.2,8.8-168.6,0.3-251.4-8.6C727.9,752.3,706.2,776.6,679.5,792.2z" fill="#006B3F"/>
    <path d="M518.7,766.9c-0.3,77.8-0.5,155.6-0.8,233.3c18.5,2.7,36.9,5.5,55.3,8.5c0.1-69.5,0.2-139.1,0.3-208.6 C553.6,792.5,534.7,781,518.7,766.9z" fill="#FCD116"/>
    <path d="M574.2,394.1c0.1-69.5,0.2-139.1,0.3-208.6c-18-3-35.9-5.8-53.9-8.5c-0.3,77.8-0.5,155.6-0.8,233.3 C537.6,401.3,554.4,396.1,574.2,394.1z" fill="#FCD116"/>
    <path d="M457.4,477.3c-82.6-9.8-167.2-18.3-250.4-10.4c-73.3,7-141.5,30.4-207,63.6c0,22.7,0,45.5,0,68.2 C62.9,567,128.3,544,198.6,536.4c79-8.5,159.3-1.4,238,7.1C440.5,520.5,446.6,498.3,457.4,477.3z" fill="#FCD116"/>
    <path d="M762.2,589.6c79,7.8,160.1,15,239.3,5.5c69.9-8.4,135.9-31,198.5-62.9c0-22.9,0-45.7,0-68.6 c-65.1,33.2-134,56.2-206.9,63.9c-83.3,8.8-168.7,0.2-251.6-8.7C751.4,541.8,758.2,564.8,762.2,589.6z" fill="#FCD116"/>
    <path d="M625.5,808.9c0,69.6,0,139.1,0.1,208.7c18,2.8,36,5.5,54.1,8c-0.1-77.8-0.1-155.6-0.2-233.4 C661.9,801.4,645.2,806.7,625.5,808.9z" fill="#FFFFFF"/>
    <path d="M679.2,435.7c-0.1-77.8-0.1-155.6-0.2-233.4c-18-2.5-35.9-5.2-53.8-8.1c0,69.6,0,139.1,0.1,208.7 C645,410.3,663.3,422.1,679.2,435.7z" fill="#FFFFFF"/>
    <path d="M741.6,724.6c82.8,8.9,168.2,17.3,251.4,8.6c72.9-7.7,141.8-30.7,207-63.9c0-22.9,0-45.7,0-68.6 c-62.6,31.8-128.6,54.5-198.5,62.9c-79.2,9.5-160.2,2.3-239.2-5.5C758.4,681.2,752.5,703.8,741.6,724.6z" fill="#FFFFFF"/>
    <path d="M436.4,612.2c-78.6-8.5-158.9-15.5-237.9-7.2C128.2,612.5,62.9,635.3,0,667c0,22.7,0,45.5,0,68.2 c65.5-33,133.4-55.8,206.7-62.3c83.1-7.3,167.4,0.7,250,10.4C446.9,660.1,440.3,637,436.4,612.2z" fill="#FFFFFF"/>
    <path d="M600,395.7c8.4,1.5,16.9,3.9,25.3,7.2c0-69.6,0-139.1-0.1-208.7c-10.4-1.7-15.4-2.6-25.3-4.3c-9.9-1.8-15-2.7-25.4-4.4 c-0.1,69.5-0.2,139.1-0.3,208.6C582.7,393.6,591.4,394.2,600,395.7z"/>
    <path d="M600,807.5c-8.9-1.5-17.8-4-26.5-7.4c-0.1,69.5-0.2,139.1-0.3,208.6c10.9,1.8,16.2,2.7,26.8,4.5c10,1.7,15.1,2.6,25.6,4.3 c0-69.6,0-139.1-0.1-208.7C617,809.5,608.5,809,600,807.5z"/>
    <path d="M764.7,624.1c0,11.2-0.7,22.7-2.4,34.1c79,7.8,160.1,15,239.2,5.5c69.9-8.4,135.9-31.1,198.5-62.9c0-11.4,0-22.9,0-34.3 c0-11.4,0-22.9,0-34.3c-62.6,31.9-128.6,54.5-198.5,62.9c-79.2,9.5-160.3,2.3-239.3-5.5C763.6,601.2,764.7,612.7,764.7,624.1z"/>
    <path d="M434.1,577.6c0-11.2,0.7-22.8,2.5-34.1c-78.7-8.6-159-15.6-238-7.1C128.3,544,62.9,567,0,598.8c0,11.4,0,22.7,0,34.1 c0,11.4,0,22.7,0,34.1c62.9-31.7,128.2-54.5,198.5-61.9c79-8.3,159.2-1.3,237.9,7.2C435,600.6,434,589.1,434.1,577.6z"/>
    <path d="M600,395.7c-8.6-1.5-17.3-2.1-25.8-1.6c-19.8,2-36.6,7.1-54.4,16.2c-27.1,15-48.3,39.8-62.5,67 c-10.8,20.9-16.9,43.2-20.8,66.3c-1.8,11.3-2.5,22.9-2.5,34.1c0,11.4,1,23,2.3,34.6c4,24.8,10.6,47.9,20.3,71.1 c14.5,31.6,35.2,61.1,61.9,83.6c16.1,14,34.9,25.6,54.9,33.2c8.7,3.4,17.6,5.8,26.5,7.4c8.5,1.5,17,2,25.5,1.4 c19.8-2.2,36.4-7.5,54-16.7c26.7-15.7,48.4-40,62.2-67.6c10.9-20.8,16.8-43.4,20.7-66.4c1.7-11.3,2.4-22.9,2.4-34.1 c0-11.4-1.1-22.9-2.4-34.5c-4.1-24.8-10.8-47.8-20.8-70.8c-14.3-31.7-35.9-60.4-62.3-83.1c-15.9-13.6-34.2-25.4-53.9-32.8 C616.9,399.6,608.4,397.2,600,395.7z M594.7,437.4c2.1-7.8,3.2-11.6,5.3-19.4c1.9,8.3,2.8,12.5,4.7,20.9c6.3,1.2,9.5,1.8,15.9,3 c-5.1,4.4-7.6,6.6-12.6,10.9c2.3,9.3,3.4,13.9,5.8,23.2c-5.6-6.4-8.3-9.7-13.7-16.1c-5.4,4.3-8.2,6.4-13.8,10.6 c2.2-8.2,3.2-12.4,5.4-20.6c-5-6-7.5-9-12.6-14.9C585.4,436,588.5,436.5,594.7,437.4z M515.7,439.5c5.5,5.7,8.3,8.6,13.8,14.4 c5.7-4.1,8.6-6.2,14.2-10.3c-2,7.9-3,11.9-5,19.8c6.2,6.3,9.2,9.5,15.3,15.9c-7.4-1.2-11.1-1.8-18.6-3c-2.3,8.2-3.5,12.3-5.8,20.5 c-2.2-9-3.3-13.5-5.6-22.5c-6.8-1.2-10.3-1.8-17.2-2.9c5.5-4.3,8.2-6.4,13.7-10.7C518.6,452.2,517.7,448,515.7,439.5z M460.4,524 c7,0.9,10.5,1.3,17.5,2.2c2.4-7.9,3.5-11.8,5.9-19.7c2.3,8.4,3.5,12.7,5.8,21.1c7.8,0.8,11.7,1.3,19.4,2.1 c-6.2,4.6-9.3,6.8-15.6,11.4c2.2,8.9,3.3,13.4,5.5,22.3c-6-6.2-9-9.3-15-15.5c-5.7,4.1-8.6,6.1-14.4,10.2 c2.1-7.8,3.1-11.6,5.2-19.4C469,532.9,466.1,529.9,460.4,524z M469,605.5c5.9,5.6,8.8,8.5,14.6,14.1c6.2-4.9,9.4-7.3,15.6-12.2 c-2.4,8.5-3.6,12.8-6.1,21.3c6,6.2,8.9,9.3,14.9,15.5c-7.4-1.1-11.2-1.6-18.6-2.7c-2.3,7.7-3.5,11.5-5.9,19.1 c-2.2-8.3-3.4-12.4-5.6-20.7c-7.1-1.1-10.7-1.7-17.9-2.8c5.7-4.3,8.5-6.4,14.2-10.6C472.1,618.2,471,614,469,605.5z M543,740.5 c-5.5-5.7-8.3-8.5-13.8-14.2c-5.8,4-8.6,6.1-14.5,10.1c2.1-7.7,3.2-11.6,5.3-19.3c-5.6-6-8.4-9-14.1-14.9c7.1,0.8,10.6,1.2,17.6,2 c2.3-8.7,3.4-13.1,5.6-21.8c2.3,9.2,3.4,13.9,5.7,23.1c7.3,1.2,10.9,1.8,18,3.1c-5.9,4.4-8.8,6.6-14.8,11 C540.1,727.9,541.1,732.1,543,740.5z M605.2,765.7c-2.1,7.8-3.1,11.6-5.2,19.4c-2-8.4-2.9-12.5-4.9-20.9c-6.6-1.2-9.9-1.9-16.6-3.1 c5.3-4.3,7.9-6.5,13.1-10.8c-2.4-9.3-3.6-14-6-23.3c5.8,6.5,8.6,9.7,14.3,16.2c5.3-4.3,8-6.4,13.5-10.7c-2.1,8.3-3.2,12.4-5.3,20.7 c4.9,5.9,7.4,8.9,12.5,14.8C614.4,767.1,611.3,766.7,605.2,765.7z M629.3,732.7c-0.1,0-0.2,0-0.3-0.1c-0.5-0.1-1.3-0.5-2-1.4 c-1.3-1.6-2.4-4.8-3.5-9.1c-0.7-0.3-1.5-0.8-2.2-1.7c-1-1.4-2.2-3.7-3.2-6.8c-0.1,0-0.1,0-0.2,0h-0.1c-0.9-0.2-2-0.6-3-1.3 c-0.5,0.3-1.2,0.5-2.1,0.3h-0.1c-0.9-0.2-1.9-0.6-2.9-1.3c-0.5,0.6-1.4,0.9-2.4,0.7h-0.1c-0.9-0.2-1.9-0.6-2.9-1.3 c-0.5,0.3-1.2,0.5-2.1,0.3h-0.1c-2.3-0.4-5.3-2.7-7.7-5.7c-0.9-1.1-1.8-2.5-2.4-3.7c-0.5-0.1-1-0.2-1.5-0.3 c-10.4-1.8-21.1-3.3-31.1-6.8c-2.7-2.9-6.8-14.3-6.8-15.2c0-0.2,0-0.2,0-0.4c0.1,0,0.2,0,0.3,0.1c4.9,0.5,5.4-1.3,6.1-3.6 c0.4-1.4,1-3,2.7-4.1c4.4-2.4,10.4,0.6,12.3,4.9c0.9,1.9,1,3.6,1.1,5c0.2,1.8,0.3,2.5,1.2,2.7c0.4,0.1,2.7,0.3,6,0.7 c3.4,0.4,6.6,0.9,9.8,1.3c1.1-2,2.7-3.5,4.4-4.5c-1.3-2.6-2.3-6.3-2.7-10.5c-0.5-0.2-0.9-0.7-1.5-1.2c-2.1-2.4-3.7-7.5-4.1-13.3 c-0.2-2.8-0.2-5.3,0.1-7.4c-0.6-2-1.1-4.5-1.5-7c-9.6-15.9-15.7-34.6-16.2-53.2c-0.1-16.6,0.4-33.5,6.3-49.2c0.4-1,0.8-2.1,1.3-2.9 c-0.1-0.6-0.1-1.1-0.1-1.7c0-2.1,0.7-3.9,1.8-5.1c0.1-2,1-3.8,2.1-4.9c0-0.8,0.2-1.6,0.4-2.4c-0.7,0.4-1.5,0.8-2.3,1.1 c-1.3,0.3-2.5,0.5-3.8,0.3c-0.5-0.1-1.1-0.2-1.6-0.4c-1-0.4-1.8-1-2.4-1.8c-0.6,1.4-1.2,3.1-1.6,5c-0.1,0.5-0.2,0.8-0.3,1.3 c-0.2-0.5-0.3-0.8-0.4-1.3c-2.8-8.8-3.4-15.2-1.7-19.2c1.1-2.4,3-3.9,5.5-4.3c0.8-0.3,1.7-0.4,2.3-0.4c0.5-4.2,2.1-8,4.5-10.1l0,0 c5-4.1,14.8-4.6,22.6,2.3c2.7,2.3,6.2,7.1,10,12.3c4.8,6.6,9.8,13.4,14.2,16.4c0.5,0.3,0.7,0.4,1.1,0.7c-0.5,0-0.7,0.1-1.1,0.1 c-2.9,0.2-5.3-0.2-7.4-0.9c3.1,3.4,6.1,6.1,8.4,6.5c0.3,0,0.4,0.1,0.6,0.1c-0.2,0.2-0.3,0.4-0.4,0.6c-1.3,1.9-2.7,3.3-4.2,4.3 c3.3,3.7,6.6,6.6,9,7.1c0.3,0,0.4,0.1,0.6,0.1c-0.2,0.2-0.3,0.4-0.4,0.6c-1.5,2.2-3,3.6-4.8,4.6c2.6,2.6,5,4.5,6.9,4.8 c0.3,0,0.4,0.1,0.6,0.1c-0.2,0.2-0.3,0.4-0.4,0.6c-1.6,2.4-3.5,4-5.5,4.9c2.6,2.6,5,4.5,7.1,4.8c0.3,0,0.4,0.1,0.6,0.1 c-0.2,0.2-0.3,0.4-0.4,0.6c-2.6,3.8-5.8,5.7-9.3,5.5c-0.3-0.1-0.6-0.1-0.8-0.1c-1.7-0.3-3.3-1-5-2c5.6,10.8,9.6,22.3,13.6,33.8 c5.3,18.6,13.1,41.8,7.4,61.3l0,0c1,5.1,1,9.5,0.8,13.6c1.7,8.8,1,15.7,0.3,21.7c0,0.5-0.1,0.8-0.1,1.4c-0.2-0.5-0.3-0.8-0.4-1.3 c-0.3-0.8-0.4-1.2-0.6-2c-0.7-2.4-1.5-4.8-2.4-7.1c-0.1,2.6-0.2,5.2-0.3,7.6c1,2.1,1.5,4.6,1.4,6.9c-0.1,2-0.7,3.6-1.7,4.4 c-0.1,0.1-0.4,0.2-0.7,0.3c-1.3,9.5-3.5,15.8-6.7,16.1C632.8,729.2,631.4,732.7,629.3,732.7z M683.4,763 c-5.5-5.7-8.3-8.5-13.8-14.2c-5.7,4.2-8.5,6.3-14.1,10.5c1.9-7.9,2.9-11.9,4.9-19.9c-6.2-6.3-9.2-9.4-15.3-15.7 c7.3,1.2,11,1.7,18.4,2.9c2.3-8.2,3.4-12.4,5.7-20.6c2.3,9,3.4,13.5,5.6,22.5c6.8,1.1,10.3,1.7,17.2,2.7 c-5.5,4.3-8.2,6.5-13.6,10.8C680.5,750.3,681.5,754.5,683.4,763z M738.4,678c-7-0.8-10.5-1.2-17.5-2c-2.3,7.9-3.5,11.8-5.8,19.7 c-2.4-8.4-3.6-12.6-5.9-21c-7.8-0.8-11.7-1.1-19.4-1.9c6.2-4.6,9.3-6.9,15.5-11.6c-2.2-8.9-3.3-13.3-5.6-22.3 c6,6.2,9,9.2,15.1,15.3c5.7-4.1,8.6-6.2,14.4-10.4c-2.1,7.8-3.1,11.7-5.1,19.4C729.8,669.2,732.6,672.1,738.4,678z M729.5,596.6 c-5.9-5.6-8.9-8.4-14.7-14c-6.2,4.9-9.3,7.4-15.5,12.3c2.4-8.5,3.6-12.8,6-21.3c-6-6.1-9-9.2-14.9-15.4c7.4,1,11.1,1.5,18.6,2.5 c2.3-7.7,3.5-11.5,5.8-19.2c2.3,8.2,3.4,12.4,5.7,20.6c7.2,1.1,10.8,1.6,18,2.6c-5.7,4.3-8.5,6.4-14.2,10.7 C726.3,583.9,727.4,588.1,729.5,596.6z M655.3,462.3c5.4,5.6,8.2,8.4,13.7,14.1c5.7-4.1,8.5-6.1,14.3-10.2 c-2.1,7.7-3.1,11.6-5.2,19.3c5.6,5.9,8.4,8.9,14.1,14.8c-7-0.7-10.5-1.1-17.5-1.8c-2.2,8.7-3.3,13.1-5.5,21.9 c-2.3-9.2-3.4-13.8-5.7-23.1c-7.2-1.1-10.7-1.7-17.7-2.9c5.7-4.4,8.6-6.7,14.5-11.1C658.2,474.8,657.2,470.7,655.3,462.3z" fill="#D41C30"/>
    <path d="M592.8,449.7c-1.8,7.1-2.7,10.6-4.5,17.7c4.8-3.7,7.1-5.5,11.8-9.2c4.6,5.5,7,8.2,11.7,13.7 c-2-7.9-3-11.9-4.9-19.8c4.3-3.8,6.5-5.6,10.9-9.4c-5.6-1-8.3-1.6-13.8-2.6c-1.6-7.1-2.4-10.7-4-17.9c-1.8,6.7-2.7,10-4.6,16.6 c-5.3-0.8-8.1-1.2-13.5-2.1C586.3,442,588.5,444.6,592.8,449.7z" fill="#006B3F"/>
    <path d="M586.2,470.6c5.6-4.3,8.3-6.4,13.8-10.6c5.4,6.4,8.2,9.7,13.7,16.1c-2.3-9.3-3.5-13.9-5.8-23.2c5-4.4,7.5-6.5,12.6-10.9 c-6.5-1.2-9.7-1.8-15.9-3c-1.9-8.3-2.8-12.5-4.7-20.9c-2.1,7.8-3.2,11.6-5.3,19.4c-6.3-1-9.4-1.5-15.8-2.4c5.1,6,7.6,9,12.6,14.9 C589.4,458.2,588.4,462.3,586.2,470.6z M600,422.3c1.6,7.1,2.4,10.6,4,17.7c5.4,1.1,8.2,1.6,13.8,2.6c-4.4,3.8-6.6,5.7-10.8,9.4 c1.9,8,2.9,11.9,4.8,19.9c-4.7-5.5-7-8.3-11.7-13.8c-4.7,3.7-7,5.5-11.8,9.2c1.8-7.1,2.7-10.6,4.5-17.7c-4.3-5.1-6.5-7.7-10.8-12.8 c5.5,0.8,8.2,1.2,13.5,2.1C597.3,432.2,598.2,428.9,600,422.3z"/>
    <path d="M607.1,753.4c1.8-7.1,2.7-10.7,4.5-17.8c-4.7,3.7-7,5.6-11.6,9.3c-4.9-5.5-7.3-8.3-12.2-13.8 c2.1,7.9,3.1,11.9,5.1,19.8c-4.5,3.7-6.8,5.6-11.4,9.3c5.8,1.1,8.6,1.6,14.3,2.7c1.7,7.2,2.5,10.7,4.2,17.9 c1.8-6.7,2.7-10,4.5-16.7c5.3,0.8,7.9,1.2,13.3,2C613.5,761.1,611.3,758.5,607.1,753.4z" fill="#006B3F"/>
    <path d="M613.5,732.5c-5.5,4.3-8.2,6.4-13.5,10.7c-5.7-6.5-8.5-9.7-14.3-16.2c2.4,9.3,3.6,14,6,23.3c-5.2,4.3-7.8,6.5-13.1,10.8 c6.7,1.2,10,1.8,16.6,3.1c2,8.4,2.9,12.5,4.9,20.9c2.1-7.8,3.1-11.6,5.2-19.4c6.2,0.9,9.3,1.4,15.6,2.3c-5-5.9-7.5-8.9-12.5-14.8 C610.4,744.9,611.4,740.8,613.5,732.5z M600,780.9c-1.7-7.1-2.5-10.6-4.2-17.7c-5.7-1.1-8.5-1.6-14.3-2.7c4.6-3.7,6.8-5.6,11.3-9.3 c-2-8-3-12-5-19.9c4.9,5.6,7.4,8.3,12.2,13.9c4.6-3.7,6.9-5.6,11.6-9.3c-1.8,7.1-2.7,10.7-4.5,17.8c4.2,5.1,6.4,7.7,10.7,12.8 c-5.4-0.8-8.1-1.2-13.3-2C602.7,771,601.8,774.3,600,780.9z"/>
    <path d="M649,493.5c6.1,1,9.1,1.5,15.3,2.4c1.9,7.9,2.9,11.8,4.8,19.6c1.8-7.5,2.8-11.2,4.6-18.7c6,0.7,9,1,15,1.6 c-4.8-5.1-7.2-7.6-12-12.8c1.8-6.6,2.7-9.8,4.4-16.4c-4.9,3.5-7.3,5.2-12.2,8.7c-4.7-4.8-7.1-7.3-11.7-12.1 c1.7,7.2,2.5,10.8,4.1,18C656.4,487.8,653.9,489.7,649,493.5z" fill="#006B3F"/>
    <path d="M663.4,497.1c2.3,9.2,3.4,13.8,5.7,23.1c2.2-8.7,3.3-13.1,5.5-21.9c6.9,0.8,10.4,1.1,17.5,1.8c-5.7-5.9-8.5-8.9-14.1-14.8 c2.1-7.7,3.1-11.6,5.2-19.3c-5.7,4.1-8.6,6.1-14.3,10.2c-5.5-5.6-8.2-8.4-13.7-14.1c1.9,8.4,2.9,12.5,4.8,20.9 c-5.8,4.5-8.7,6.7-14.5,11.1C652.6,495.4,656.2,496,663.4,497.1z M669,478c4.8-3.5,7.3-5.2,12.2-8.7c-1.8,6.6-2.7,9.8-4.4,16.4 c4.8,5.1,7.3,7.7,12.1,12.8c-6-0.6-9.1-1-15-1.6c-1.9,7.5-2.8,11.2-4.6,18.7c-1.9-7.9-2.9-11.8-4.8-19.6c-6.2-1-9.2-1.5-15.3-2.5 c4.9-3.8,7.4-5.7,12.5-9.5c-1.7-7.2-2.5-10.7-4.1-17.9C662,470.8,664.3,473.2,669,478z"/>
    <path d="M549.5,709.4c-6.2-1-9.3-1.5-15.5-2.5c-1.9-7.9-2.9-11.8-4.8-19.7c-1.9,7.5-2.8,11.2-4.7,18.7 c-6-0.7-9-1.1-15.1-1.8c4.8,5.1,7.3,7.7,12.1,12.9c-1.8,6.5-2.7,9.8-4.5,16.4c4.9-3.5,7.4-5.2,12.3-8.6c4.7,4.9,7.1,7.3,11.8,12.2 c-1.7-7.2-2.5-10.8-4.1-18.1C542,715,544.5,713.1,549.5,709.4z" fill="#006B3F"/>
    <path d="M534.9,705.6c-2.3-9.2-3.4-13.9-5.7-23.1c-2.3,8.7-3.4,13.1-5.6,21.8c-7-0.8-10.5-1.2-17.6-2c5.7,6,8.5,8.9,14.1,14.9 c-2.1,7.7-3.2,11.6-5.3,19.3c5.8-4.1,8.7-6.1,14.5-10.1c5.5,5.7,8.3,8.5,13.8,14.2c-1.9-8.4-2.9-12.6-4.8-20.9 c5.9-4.4,8.9-6.6,14.8-11C545.8,707.4,542.2,706.8,534.9,705.6z M529.2,724.7c-4.9,3.4-7.4,5.2-12.3,8.6c1.9-6.5,2.8-9.8,4.6-16.4 c-4.9-5.2-7.3-7.7-12.2-12.9c6.1,0.7,9.1,1,15.1,1.8c1.9-7.5,2.8-11.2,4.7-18.7c1.9,7.9,2.9,11.8,4.8,19.7 c6.2,1.1,9.4,1.6,15.5,2.7c-5,3.8-7.6,5.7-12.7,9.4c1.7,7.2,2.5,10.8,4.1,17.9C536.3,732,533.9,729.5,529.2,724.7z"/>
    <path d="M701.5,591.5c5.3-4.2,7.9-6.3,13.3-10.6c5.1,4.8,7.6,7.3,12.7,12.1c-1.8-7.3-2.8-11-4.6-18.4 c4.8-3.7,7.3-5.5,12.1-9.2c-6.1-0.9-9.2-1.3-15.3-2.2c-2-7-2.9-10.6-4.9-17.6c-2,6.6-2.9,9.9-4.9,16.5c-6.4-0.9-9.7-1.3-16-2.2 c5.1,5.3,7.6,7.9,12.8,13.2C704.5,580.5,703.5,584.2,701.5,591.5z" fill="#006B3F"/>
    <path d="M738.4,564.7c-7.2-1-10.8-1.6-18-2.6c-2.3-8.2-3.4-12.4-5.7-20.6c-2.3,7.7-3.5,11.5-5.8,19.2c-7.5-1-11.2-1.5-18.6-2.5 c5.9,6.2,8.9,9.2,14.9,15.4c-2.4,8.5-3.6,12.8-6,21.3c6.2-4.9,9.3-7.4,15.5-12.3c5.9,5.6,8.8,8.4,14.7,14 c-2.1-8.5-3.2-12.7-5.3-21.2C729.9,571,732.7,568.9,738.4,564.7z M693.8,560c6.4,0.9,9.6,1.3,16,2.2c1.9-6.6,2.9-9.8,4.9-16.4 c1.9,7,2.9,10.6,4.8,17.6c6.1,0.9,9.2,1.3,15.3,2.2c-4.9,3.7-7.3,5.5-12.1,9.2c1.8,7.4,2.7,11,4.6,18.4c-5.1-4.8-7.6-7.2-12.7-12.1 c-5.3,4.2-8,6.3-13.3,10.6c2-7.3,3-10.9,5.1-18.2C701.4,568.1,698.9,565.4,693.8,560z"/>
    <path d="M496.9,610.9c-5.3,4.2-8,6.2-13.3,10.4c-5-4.9-7.6-7.3-12.6-12.2c1.8,7.4,2.7,11.1,4.5,18.4 c-4.8,3.6-7.3,5.4-12.1,9.1c6.1,0.9,9.2,1.4,15.3,2.3c1.9,7.1,2.9,10.6,4.8,17.7c2-6.6,3-9.9,4.9-16.5c6.4,0.9,9.7,1.4,16.1,2.3 c-5.1-5.3-7.6-8-12.7-13.3C493.8,621.8,494.8,618.2,496.9,610.9z" fill="#006B3F"/>
    <path d="M459.9,637.4c7.2,1.1,10.8,1.7,17.9,2.8c2.2,8.3,3.4,12.4,5.6,20.7c2.3-7.7,3.5-11.5,5.9-19.1c7.5,1.1,11.2,1.6,18.6,2.7 c-5.9-6.2-8.9-9.3-14.9-15.5c2.4-8.5,3.6-12.8,6.1-21.3c-6.2,4.9-9.3,7.3-15.6,12.2c-5.8-5.7-8.8-8.5-14.6-14.1 c2.1,8.5,3.1,12.8,5.2,21.3C468.5,631.1,465.6,633.2,459.9,637.4z M504.5,642.4c-6.4-1-9.6-1.4-16.1-2.3c-2,6.5-3,9.8-4.9,16.4 c-1.9-7.1-2.8-10.6-4.7-17.6c-6.1-1-9.2-1.4-15.3-2.3c4.9-3.6,7.3-5.4,12.1-9c-1.8-7.4-2.7-11.1-4.5-18.4c5,4.9,7.6,7.3,12.6,12.2 c5.3-4.2,8-6.3,13.3-10.4c-2.1,7.2-3.1,10.9-5.2,18.1C496.9,634.3,499.4,637,504.5,642.4z"/>
    <path d="M735,676.2c-4.9-5-7.4-7.5-12.3-12.5c1.8-6.6,2.7-10,4.4-16.6c-4.9,3.5-7.4,5.3-12.3,8.8 c-5.2-5.2-7.8-7.9-13-13.2c1.9,7.7,2.9,11.5,4.8,19.1c-5.3,3.9-7.9,5.9-13.2,9.8c6.6,0.7,9.9,1,16.6,1.7c2,7.3,3,10.9,5,18.2 c2-6.8,3-10.3,5-17.1C726,675.2,729,675.6,735,676.2z" fill="#006B3F"/>
    <path d="M729.3,643.9c-5.8,4.2-8.6,6.2-14.4,10.4c-6.1-6.1-9.1-9.2-15.1-15.3c2.2,8.9,3.3,13.4,5.6,22.3c-6.2,4.6-9.4,7-15.5,11.6 c7.7,0.8,11.6,1.2,19.4,1.9c2.4,8.4,3.6,12.6,5.9,21c2.3-7.9,3.5-11.8,5.8-19.7c7,0.8,10.5,1.2,17.5,2c-5.7-5.9-8.6-8.8-14.3-14.7 C726.2,655.5,727.2,651.7,729.3,643.9z M710.1,673.4c-6.7-0.7-10-1-16.6-1.7c5.3-4,7.9-6,13.2-10c-1.9-7.6-2.9-11.5-4.8-19.1 c5.2,5.3,7.8,7.9,13,13.2c4.9-3.5,7.4-5.3,12.3-8.8c-1.8,6.7-2.7,10-4.4,16.6c4.9,5,7.3,7.5,12.3,12.5c-6-0.7-9-1-15-1.7 c-2,6.8-3,10.2-5,17C713.1,684.2,712.1,680.6,710.1,673.4z"/>
    <path d="M463.8,525.8c4.9,5.1,7.3,7.6,12.2,12.7c-1.8,6.6-2.7,10-4.5,16.6c4.9-3.5,7.4-5.2,12.3-8.7 c5.2,5.3,7.8,8,13,13.3c-1.9-7.7-2.8-11.5-4.7-19.2c5.3-3.9,8-5.8,13.3-9.7c-6.6-0.8-9.9-1.1-16.6-1.9c-2-7.3-3-10.9-4.9-18.2 c-2,6.8-3,10.2-5.1,17.1C472.7,526.9,469.7,526.5,463.8,525.8z" fill="#006B3F"/>
    <path d="M469.4,558.2c5.8-4.1,8.6-6.2,14.4-10.2c6,6.2,9,9.3,15,15.5c-2.2-8.9-3.3-13.4-5.5-22.3c6.3-4.6,9.4-6.9,15.6-11.4 c-7.7-0.9-11.6-1.3-19.4-2.1c-2.3-8.4-3.5-12.7-5.8-21.1c-2.3,7.9-3.5,11.8-5.9,19.7c-7-0.9-10.5-1.3-17.5-2.2 c5.7,5.9,8.5,8.9,14.2,14.8C472.5,546.6,471.4,550.4,469.4,558.2z M488.7,528.8c6.7,0.7,10,1.1,16.6,1.9c-5.3,3.9-7.9,5.9-13.3,9.8 c1.9,7.7,2.8,11.5,4.7,19.2c-5.2-5.3-7.8-8-13-13.3c-4.9,3.5-7.4,5.2-12.3,8.7c1.8-6.6,2.7-10,4.5-16.6c-4.9-5.1-7.3-7.6-12.2-12.7 c6,0.7,9,1.1,14.9,1.9c2-6.8,3-10.2,5.1-16.9C485.7,518.1,486.7,521.7,488.7,528.8z"/>
    <path d="M681.4,759.2c-1.7-7.3-2.6-10.9-4.3-18.2c4.7-3.7,7-5.5,11.7-9.3c-5.9-1-8.9-1.4-14.7-2.4 c-1.9-7.7-2.9-11.5-4.8-19.2c-2,7.1-3,10.6-4.9,17.7c-6.4-1-9.5-1.5-15.7-2.5c5.2,5.4,7.8,8.1,13.1,13.5 c-1.7,6.8-2.5,10.3-4.2,17.1c4.8-3.6,7.3-5.4,12.1-9C674.4,751.8,676.7,754.3,681.4,759.2z" fill="#006B3F"/>
    <path d="M692,730.9c-6.9-1.1-10.4-1.6-17.2-2.7c-2.3-9-3.4-13.5-5.6-22.5c-2.3,8.2-3.4,12.4-5.7,20.6c-7.4-1.1-11.1-1.7-18.4-2.9 c6,6.3,9.1,9.4,15.3,15.7c-2,7.9-2.9,11.9-4.9,19.9c5.6-4.2,8.4-6.3,14.1-10.5c5.5,5.7,8.2,8.6,13.8,14.2c-2-8.5-3-12.8-5-21.3 C683.8,737.3,686.5,735.2,692,730.9z M661.8,738.8c-5.3-5.4-7.9-8.1-13.1-13.5c6.2,1,9.4,1.5,15.7,2.5c2-7.1,3-10.6,4.9-17.7 c1.9,7.7,2.9,11.5,4.8,19.2c5.8,1,8.8,1.5,14.7,2.4c-4.7,3.7-7,5.6-11.7,9.3c1.7,7.3,2.5,10.9,4.2,18.1c-4.7-4.9-7.1-7.3-11.7-12.2 c-4.9,3.6-7.3,5.4-12.1,9C659.2,749.1,660,745.7,661.8,738.8z"/>
    <path d="M517.7,443.4c1.7,7.3,2.6,10.9,4.3,18.2c-4.7,3.6-7,5.5-11.8,9.1c5.9,1,8.9,1.5,14.7,2.6 c1.9,7.7,2.8,11.5,4.7,19.2c2-7.1,3-10.6,5-17.6c6.4,1,9.6,1.5,15.9,2.6c-5.2-5.4-7.9-8.2-13.2-13.6c1.7-6.8,2.6-10.2,4.3-17 c-4.9,3.5-7.3,5.3-12.3,8.8C524.8,450.7,522.5,448.3,517.7,443.4z" fill="#006B3F"/>
    <path d="M507,471.5c6.9,1.1,10.4,1.7,17.2,2.9c2.2,9,3.4,13.5,5.6,22.5c2.3-8.2,3.5-12.3,5.8-20.5c7.5,1.2,11.2,1.8,18.6,3 c-6.1-6.4-9.2-9.5-15.3-15.9c2-7.9,3-11.9,5-19.8c-5.7,4.1-8.5,6.2-14.2,10.3c-5.5-5.8-8.2-8.6-13.8-14.4c2,8.5,3,12.8,5,21.3 C515.3,465.2,512.5,467.3,507,471.5z M537.4,463.9c5.3,5.4,7.9,8.1,13.2,13.6c-6.3-1.1-9.5-1.6-15.9-2.6c-2,7.1-3,10.6-5,17.6 c-1.9-7.7-2.8-11.5-4.7-19.2c-5.9-1-8.8-1.5-14.7-2.6c4.7-3.7,7.1-5.5,11.8-9.1c-1.7-7.3-2.5-10.9-4.2-18.2 c4.7,4.9,7.1,7.4,11.8,12.3c4.9-3.5,7.4-5.3,12.3-8.8C540.1,453.7,539.2,457.1,537.4,463.9z"/>
    <path d="M620.6,713c0.6,1.9,1.2,3.4,1.9,4.3c-0.4-2.3-0.9-4.5-1.2-7.1c0,0.3,0.1,0.6,0.1,0.8 C621.2,711.9,621,712.5,620.6,713z" fill="#006B3F"/>
    <path d="M621.1,709.6c-0.2-1.1-0.4-2.4-0.5-3.5c-0.6-0.1-1.2-0.2-1.9-0.2C619.7,706.8,620.7,707.9,621.1,709.6z" fill="#006B3F"/>
    <path d="M622.4,717.4c-0.6-1.1-1.2-2.5-1.9-4.3c-0.5,0.6-1.3,0.9-2.4,0.8c1,3.1,2.1,5.4,3.2,6.8c0.7,0.9,1.5,1.5,2.2,1.7 C623.2,720.7,622.9,719.1,622.4,717.4z"/>
    <path d="M635.6,692.9c0.4,0.1,0.8,0.1,1.2,0.3c0.1,0,0.2,0,0.4,0.1c0,0,0,0,0.1,0c0.5,0.1,1,0.3,1.4,0.5 c0.1,0,0.1,0,0.2,0c0.2-3.8,0.3-8,0.3-12.6c-1.1-2.8-2.3-5.7-3.9-9C635.5,678.6,635.6,685.8,635.6,692.9z" fill="#006B3F"/>
    <path d="M634.4,719.5c1.3-1.6,2.4-5.7,3.3-11.8c-0.7,0-1.5-0.1-2.3-0.1C635.1,711.9,634.8,716,634.4,719.5z" fill="#006B3F"/>
    <path d="M640.4,707.5c-0.6,0-1.6,0.2-2.8,0.1c-0.8,6.2-2,10.3-3.3,11.8c-0.2,1.5-0.4,3-0.6,4.2 C636.9,723.4,639.1,717.1,640.4,707.5z"/>
    <path d="M639.2,681.2c0,4.5-0.1,8.8-0.3,12.6c1.2,0.5,1.8,0.7,2,1.1c0.2,0.3,0.3,0.6,0.5,0.9c0.1-2.5,0.2-5,0.3-7.6 C640.9,685.9,640.2,683.6,639.2,681.2z"/>
    <path d="M623.2,706.4c2.2,14.6,4.6,22.4,5.9,22.9c1.3-0.2,2.8-7.6,3.6-21.9C629.9,707.1,626.7,706.7,623.2,706.4z" fill="#006B3F"/>
    <path d="M631.3,665.7c-0.4,7.5-2.7,14.5-6.4,13.9h-0.1c-0.2,0-0.5-0.1-0.7-0.3c-0.5,4.3-1.6,7.7-3.1,9.7 c0,0.4,0.1,0.8,0.1,1.3c4.9,0.8,8.8,1.4,11.9,2.1c0-7.5-0.1-16.1-0.6-25.8c-0.3-0.5-0.5-1-0.8-1.5c-0.1,0-0.2-0.2-0.2-0.2 C631.3,665,631.3,665.4,631.3,665.7z" fill="#006B3F"/>
    <path d="M634.4,719.5c0.4-3.5,0.7-7.6,0.9-11.9c-0.8,0-1.7-0.1-2.6-0.1c-0.7,14.2-2.3,21.7-3.6,21.9c-1.4-0.4-3.8-8.3-5.9-22.9 c-0.8-0.1-1.8-0.2-2.7-0.3c0.2,1.3,0.3,2.4,0.5,3.5c0,0.1,0.1,0.4,0.1,0.6c0.4,2.5,0.8,4.9,1.2,7.1c0.3,1.7,0.7,3.4,1.1,4.9 c1.1,4.3,2.3,7.5,3.5,9.1c0.7,0.9,1.5,1.3,2,1.4c0.1,0,0.2,0,0.3,0.1c2,0,3.5-3.4,4.4-9C634,722.4,634.2,720.9,634.4,719.5z"/>
    <path d="M620.1,690.1c0.4,0.1,0.7,0.1,1.1,0.2c0-0.4-0.1-0.8-0.1-1.3C620.7,689.5,620.4,689.9,620.1,690.1z"/>
    <path d="M633,692.3c0.9,0.1,1.8,0.4,2.6,0.6c0-7.1-0.1-14.2-0.3-20.6c-0.8-1.8-1.8-3.7-2.8-5.7C632.9,676.3,633.1,684.8,633,692.3z "/>
    <path d="M640,706.8c0.4-0.1,0.7,0,0.9-0.1c0.5-0.5,1-1.2,1.2-2.3C641.5,705.3,640.8,706.2,640,706.8z" fill="#9C4A00"/>
    <path d="M576.3,685c-1.6-0.3-1.7-1.9-1.9-3.6c-0.1-1.3-0.3-2.9-1.1-4.6c-1.7-3.9-7.3-6.7-11.4-4.5 c-1.5,0.9-2,2.2-2.4,3.6c-0.7,2.2-1.3,4.5-6.3,4.1c0.6,2.3,4.1,11.4,6.4,13.9c10.3,3.3,21.1,4.8,31.8,6.6c-1-2.4-1.6-4.8-1.7-7.3 c0.1-2.5,0.7-4.5,1.7-6.4c-2.9-0.4-6-0.7-9.2-1.2C578.9,685.4,576.7,685.1,576.3,685z" fill="#9C4A00"/>
    <path d="M635.3,706.6c-0.7-0.5-1.4-1.2-2-2c-1.1-1.5-1.6-3.4-1.5-5.3c0-2.7,1.3-4.9,3.1-5.7c-3.6-0.8-9-1.7-16-2.7 c-0.5,0.3-1.1,0.5-1.6,0.7c-2.3,0.9-4.6,1.8-4.7,5.7c-0.1,3.8,2,5.4,4.4,7.2c0.1,0,0.2,0.2,0.3,0.2 C624.7,705.6,631.1,706.3,635.3,706.6z" fill="#9C4A00"/>
    <path d="M638.9,693.8c-0.1,0-0.1,0-0.2,0c0.8,0.4,1.7,1.2,2.3,2.1c1.1,1.5,1.6,3.4,1.5,5.3c0,1.1-0.2,2.2-0.6,3.1 c-0.2,1.1-0.6,1.8-1.2,2.3c-0.1,0.1-0.4,0.1-0.9,0.1c-0.9,0.6-1.8,0.8-2.9,0.7c0,0,0,0-0.1,0c-0.6-0.1-1.2-0.3-1.8-0.7 c-4.2-0.3-10.6-1-18.1-2c0.5,0.4,1,0.7,1.4,1.2c0.6,0.1,1.2,0.2,1.9,0.2c0.9,0.2,1.8,0.2,2.7,0.3c3.5,0.4,6.8,0.7,9.5,1 c0.9,0,1.8,0.1,2.6,0.1s1.7,0.1,2.3,0.1c1.2,0,2.1,0.1,2.8-0.1c0.4-0.1,0.6-0.2,0.7-0.3c1-0.8,1.6-2.4,1.7-4.4 c0.1-2.3-0.4-5-1.4-6.9c-0.2-0.3-0.3-0.6-0.5-0.9C640.7,694.5,640.1,694.1,638.9,693.8z"/>
    <path d="M591.6,700.8c-10.6-1.9-21.5-3.3-31.8-6.6c-2.4-2.6-5.7-11.6-6.4-13.9c4.9,0.4,5.6-1.9,6.3-4.1c0.4-1.4,0.9-2.7,2.4-3.6 c4-2.2,9.7,0.6,11.4,4.5c0.7,1.6,0.8,3.3,1.1,4.6c0.2,1.7,0.3,3.3,1.9,3.6c0.4,0.1,2.6,0.3,6,0.7c3.3,0.4,6.3,0.8,9.2,1.2 c0.1-0.3,0.3-0.6,0.5-0.9c-3-0.4-6.3-0.8-9.8-1.3c-3.4-0.4-5.6-0.7-6-0.7c-1-0.2-1.1-0.9-1.2-2.7c-0.1-1.4-0.3-3.1-1.1-5 c-1.8-4.3-7.9-7.3-12.3-4.9c-1.7,1-2.3,2.7-2.7,4.1c-0.7,2.2-1.2,4.1-6.1,3.6c-0.1,0-0.2,0-0.3-0.1c0,0.2,0,0.2,0,0.4 c0,1,4.1,12.2,6.8,15.2c10,3.5,20.7,5,31.1,6.8c0.5,0.1,0.9,0.2,1.5,0.3C591.9,701.4,591.8,701.1,591.6,700.8z"/>
    <path d="M634.8,693.6c0.6-0.3,2-0.4,2-0.4s-0.7-0.3-1.2-0.3c-0.7-0.1-1.7-0.4-2.6-0.6c-3.1-0.6-7-1.3-11.9-2.1 c-0.4-0.1-0.7-0.1-1.1-0.2c-0.2,0.1-0.4,0.2-0.5,0.3c-0.2,0.1-0.4,0.2-0.6,0.3C625.8,691.9,631.2,692.7,634.8,693.6z"/>
    <path d="M596.9,682.5c-3.1,1.9-5.9,5.6-6.3,11.1c0.1,9.1,7.7,16,11.5,16.8c0.4,0.1,0.9,0.2,1.3,0 c-1.3-1-2.6-2.2-3.8-3.8c-2.8-3.6-4.5-7.9-4.5-12.2c0.2-4.1,1.8-7.2,3.7-9.5c-0.4-0.2-0.8-0.7-1.1-1 C597.5,683.4,597.2,682.9,596.9,682.5z" fill="#FCD116"/>
    <path d="M603.5,710.4c-0.5,0.1-0.9,0.1-1.3,0c-3.9-0.8-11.4-7.8-11.5-16.8c0.3-5.4,3.1-9.2,6.3-11.1c-0.1-0.3-0.3-0.5-0.4-0.8 c-1.7,0.9-3.1,2.5-4.4,4.5c-0.2,0.2-0.3,0.5-0.5,0.9c-0.9,1.8-1.6,3.8-1.7,6.4c0,2.5,0.6,4.9,1.7,7.3c0.1,0.3,0.3,0.7,0.5,1.1 c0.6,1.3,1.5,2.6,2.4,3.7c2.4,3,5.4,5.2,7.7,5.7h0.1c0.8,0.1,1.5,0,2.1-0.3C604.1,710.8,603.8,710.6,603.5,710.4z"/>
    <path d="M603.6,682.9c-0.7,1.5-1.7,2.5-2.9,2.5c-0.2,0-0.3-0.1-0.5-0.1s-0.3-0.1-0.5-0.1c-2.1,2.1-3.6,5.1-3.8,9.2 c0.1,9.1,7.4,16,11.3,16.8c0.5,0.1,1.3,0.1,1.8-0.2c-1.4-1.1-2.7-2.4-3.9-3.8c-2.8-3.6-4.3-7.9-4.3-12.1c0.2-4.4,1.8-7.6,4-9.9 C604.3,684.6,603.9,683.8,603.6,682.9z" fill="#FCD116"/>
    <path d="M609.1,711.1c-0.6,0.3-1.3,0.3-1.8,0.2c-3.9-0.8-11.2-7.7-11.3-16.8c0.2-4.1,1.8-7.1,3.8-9.2c-0.2,0-0.5-0.2-0.7-0.4 c-2,2.3-3.5,5.3-3.7,9.5c0,4.3,1.7,8.5,4.5,12.2c1.1,1.4,2.5,2.8,3.8,3.8c0.3,0.2,0.6,0.4,0.8,0.6c1,0.6,2,1,2.9,1.3h0.1 c1.1,0.2,1.9-0.1,2.4-0.7C609.5,711.4,609.3,711.2,609.1,711.1z"/>
    <path d="M607.6,687.5c-0.8-0.1-1.6-0.7-2.3-1.6l0,0c-2,2.1-3.6,5.1-3.8,9.4c0.1,9.1,7.3,16,11.3,16.8 c0.4,0.1,0.9,0.2,1.3-0.1c-1.3-1-2.7-2.2-3.9-3.8c-2.7-3.6-4.3-7.9-4.3-12.1c0.2-3.7,1.3-6.5,2.9-8.7c-0.2,0.1-0.5,0.2-0.7,0.2 C607.9,687.5,607.7,687.5,607.6,687.5z" fill="#FCD116"/>
    <path d="M614.1,711.9c-0.5,0.1-0.9,0.1-1.3,0.1c-4-0.8-11.2-7.7-11.3-16.8c0.2-4.1,1.8-7.2,3.8-9.4c-0.2-0.2-0.3-0.5-0.5-0.6 c-2.1,2.2-3.8,5.5-4,9.9c0,4.3,1.6,8.5,4.3,12.1c1.2,1.6,2.6,2.9,3.9,3.8c0.2,0.2,0.5,0.4,0.7,0.5c1,0.6,2,1,2.9,1.3h0.1 c0.8,0.1,1.5,0,2.1-0.3C614.6,712.3,614.4,712.1,614.1,711.9z"/>
    <path d="M615,688.5c-0.5-0.9-0.9-1.9-1.3-3.2c-0.9,1.2-2,1.9-3.2,1.7h-0.1c-0.1,0-0.1,0-0.2,0 c-2,2.1-3.5,5.2-3.7,9.2c0.1,9.1,7.4,15.9,11.4,16.7c1,0.2,2.6,0.2,2.7-2c-0.1-2.9-1.9-4.1-3.9-5.7c-2.3-1.7-4.9-3.6-4.8-8.1 c0.1-4.5,2.7-5.4,5.1-6.4c0.1,0,0.2-0.1,0.3-0.1C616.5,690.2,615.6,689.5,615,688.5z" fill="#FCD116"/>
    <path d="M620.6,713c0.4-0.5,0.6-1.1,0.6-2c0-0.3,0-0.5-0.1-0.8c0-0.3-0.1-0.4-0.1-0.6c-0.4-1.7-1.3-2.8-2.4-3.8 c-0.5-0.4-0.9-0.8-1.4-1.2c-0.1,0-0.2-0.2-0.3-0.2c-2.3-1.7-4.5-3.4-4.4-7.2c0.1-4,2.4-4.8,4.7-5.7c0.6-0.2,1.1-0.5,1.6-0.7 c0.2-0.1,0.4-0.2,0.6-0.3c-0.5,0.3-1.1,0.4-1.6,0.3h-0.1c-0.2,0-0.3-0.1-0.4-0.2c-0.1,0-0.2,0.1-0.3,0.1c-2.4,1-5,1.9-5.1,6.4 c-0.1,4.4,2.4,6.3,4.8,8.1c2.1,1.6,3.9,2.8,3.9,5.7c-0.1,2.2-1.8,2.2-2.7,2c-4-0.8-11.3-7.7-11.4-16.7c0.2-4.1,1.7-7.1,3.7-9.2 c-0.1,0-0.3-0.1-0.4-0.2c-0.3,0.4-0.6,0.6-1,0.7c-1.6,2.2-2.8,5-2.9,8.7c0,4.3,1.6,8.5,4.3,12.1c1.1,1.4,2.5,2.8,3.9,3.8 c0.3,0.2,0.6,0.4,0.8,0.5c1,0.6,2,1,3,1.3h0.1c0.1,0,0.1,0,0.2,0C619.2,713.9,620.1,713.6,620.6,713z"/>
    <path d="M637.3,693.7C637.2,693.7,637.3,693.7,637.3,693.7s-5,2.1-5.1,5.7c0,1.8,0.4,3.5,1.4,4.9 c0.9,1.4,2.1,2.3,3.5,2.5c0,0,0,0,0.1,0c2.6,0.4,5-2.1,5-5.7c0-1.8-0.4-3.5-1.4-4.9C639.8,694.9,638.6,694,637.3,693.7z" fill="#9C4A00"/>
    <path d="M637.2,693.1c-0.1,0-0.2,0-0.4-0.1c-0.7-0.1-1.4,0.1-2,0.4c-1.8,0.8-2.9,3-3.1,5.7c0,1.9,0.5,3.8,1.5,5.3 c0.5,0.9,1.3,1.6,2,2c0.5,0.4,1.2,0.6,1.8,0.7h0.1c1.1,0.2,2-0.1,2.9-0.7c0.9-0.6,1.5-1.4,2-2.4c0.4-0.9,0.6-2,0.6-3.1 c0-1.9-0.5-3.8-1.5-5.3c-0.6-0.9-1.5-1.7-2.3-2.1C638.2,693.4,637.7,693.2,637.2,693.1L637.2,693.1z M640.7,696.3 c1,1.4,1.5,3.1,1.4,4.9c-0.1,3.6-2.3,6.1-5,5.7c0,0,0,0-0.1,0c-1.3-0.2-2.5-1.1-3.5-2.5c-0.9-1.4-1.5-3.1-1.4-4.9 c0.1-3.6,2.3-6.1,5-5.7c0,0,0,0,0.1,0C638.6,694,639.8,694.9,640.7,696.3z"/>
    <path d="M606.8,683.5c0.2,0.3,0.5,0.5,0.7,0.5c-1.4-2.8-2.1-7.4-1.9-12.4c-0.1,0.3-0.2,0.4-0.3,0.6 c0.1,2.5,0,4.7-0.4,6.5C605.4,681.1,606.1,682.7,606.8,683.5z" fill="#006B3F"/>
    <path d="M607.8,684.6c-0.1-0.2-0.2-0.4-0.3-0.6c-0.2,0-0.4-0.2-0.7-0.5c-0.7-0.8-1.4-2.4-2-4.6c-0.3,1.6-0.7,3-1.2,4.2 c0.4,0.9,0.8,1.6,1.2,2.3c0.1,0.2,0.3,0.5,0.5,0.6l0,0c0.7,0.9,1.5,1.5,2.3,1.6c0.2,0,0.3,0.1,0.5,0.1c0.3,0.1,0.5-0.1,0.7-0.2 c0.4-0.1,0.7-0.3,1-0.7C609.1,686.4,608.4,685.7,607.8,684.6z"/>
    <path d="M602.5,673.7c-0.6-0.1-1.3-0.5-2.1-1.5c-0.7-0.8-1.3-2.2-1.9-3.6c-0.5,1.3-1.2,2.3-2.1,2.7 c0.5,5,1.9,8.7,3,10.1c0.3,0.5,0.7,0.7,0.9,0.6C601.4,681.9,602.6,678.8,602.5,673.7C602.6,673.7,602.6,673.7,602.5,673.7z" fill="#006B3F"/>
    <path d="M596.9,682.5c0.3,0.5,0.6,1.1,0.9,1.4c0.4,0.5,0.8,0.8,1.1,1c0.2,0.2,0.5,0.2,0.7,0.4c0.2,0,0.3,0.1,0.5,0.1 s0.3,0.1,0.5,0.1c1.1-0.1,2.1-1,2.9-2.5c0.5-1.1,0.9-2.5,1.2-4.2c0.3-1.9,0.4-4.2,0.4-6.5c-0.6,0.9-1.3,1.4-2.2,1.4 c-0.1,0-0.2,0-0.3-0.1c-0.1,5.1-1.3,8.3-2.3,8.2c-0.3-0.1-0.6-0.2-0.9-0.6c-1.1-1.4-2.5-5.1-3-10.1c-0.3,0.2-0.7,0.3-1.1,0.4 c-0.2,0-0.3-0.1-0.5-0.1c-0.3-0.1-0.6-0.2-0.9-0.4c0.4,4.2,1.3,7.9,2.7,10.5C596.6,682,596.7,682.2,596.9,682.5z"/>
    <path d="M596.2,657.5c0-0.1,0-0.4,0-0.5c-0.3-0.6-0.5-1.2-0.7-1.9c-0.5,0.5-1.1,0.8-1.8,0.8c-0.2,0-0.3-0.1-0.5-0.1 c-0.7-0.1-1.6-0.7-2.3-1.5c0-0.1-0.1-0.1-0.1-0.2c0,0.8,0,1.8,0.1,2.6c0.4,5.4,1.9,9.2,3.1,10.7c0.3,0.5,0.7,0.7,0.9,0.6 c0.8,0,1.7-1.8,2.2-4.6C596.7,661.7,596.4,659.6,596.2,657.5z" fill="#006B3F"/>
    <path d="M595.2,671.6c0.4-0.1,0.7-0.1,1.1-0.4c0.8-0.4,1.6-1.4,2.1-2.7c-0.6-1.5-1-3.2-1.4-5.1c-0.4,2.9-1.3,4.6-2.2,4.6 c-0.3-0.1-0.6-0.2-0.9-0.6c-1.2-1.5-2.7-5.4-3.1-10.7c-0.1-1-0.1-1.8-0.1-2.6c-0.9-1.1-1.7-2.8-2.4-4.8c-0.3,2.1-0.3,4.8-0.1,7.4 c0.4,5.7,2.1,10.8,4.1,13.3c0.4,0.5,0.9,1,1.5,1.2c0.3,0.2,0.6,0.4,0.9,0.4C594.9,671.6,595.1,671.6,595.2,671.6z"/>
    <path d="M600.4,661.1c-0.2,0-0.3-0.1-0.5-0.1c-0.3-0.1-0.6-0.2-0.8-0.3c0.7,4.7,1.8,7.9,2.8,9 c0.2,0.2,0.4,0.5,0.7,0.5c0.3-0.1,0.7-0.4,1.1-1.5c-0.7-1.6-1.2-3.8-1.5-6.3c-0.4-0.5-0.9-1-1.5-1.6 C600.6,661,600.5,661.1,600.4,661.1z" fill="#006B3F"/>
    <path d="M605.5,671.6c-0.4-0.3-0.9-0.8-1.2-1.6c-0.2-0.3-0.4-0.8-0.6-1.2c-0.4,0.9-0.7,1.4-1.1,1.5c-0.2,0-0.5-0.2-0.7-0.5 c-1-1.3-2.2-4.5-2.8-9c-0.5-0.2-0.9-0.6-1.4-1.2s-1.1-1.6-1.6-2.6c0,0.1,0,0.4,0,0.5c0.2,2.1,0.5,4.2,0.8,6 c0.4,1.9,0.9,3.6,1.4,5.1c0.6,1.5,1.3,2.8,1.9,3.6c0.8,1,1.5,1.4,2.1,1.5h0.1c0.1,0,0.2,0,0.3,0.1c0.9,0,1.6-0.5,2.2-1.4 C605.3,672.1,605.4,671.9,605.5,671.6L605.5,671.6z"/>
    <path d="M596.2,656.9c0.5,1.1,1,2,1.6,2.6c0.4,0.5,0.9,1,1.4,1.2c0.3,0.2,0.6,0.2,0.8,0.3c0.2,0,0.3,0.1,0.5,0.1 c0.1,0,0.2-0.1,0.3-0.1c-1.4-1.6-3.2-3.7-5.2-6.1l-0.1,0.1C595.7,655.8,595.9,656.3,596.2,656.9z"/>
    <path d="M590.8,648.3c0.5,1.6,1.1,2.9,1.7,3.6c0.3,0.3,0.5,0.5,0.7,0.5c0.1,0,0.2-0.1,0.3-0.1 C592.7,651,591.7,649.7,590.8,648.3z" fill="#006B3F"/>
    <path d="M590.7,654.1c0,0.1,0.1,0.1,0.1,0.2c0.7,0.8,1.5,1.3,2.3,1.5c0.2,0,0.3,0.1,0.5,0.1c0.6,0,1.2-0.3,1.8-0.8l0.1-0.1 c-0.6-0.8-1.3-1.7-2-2.7c-0.1,0.1-0.2,0.1-0.3,0.1c-0.2,0-0.5-0.2-0.7-0.5c-0.5-0.6-1.1-1.8-1.7-3.6c-1.3-1.9-2.6-3.9-3.9-6 c0.3,2.5,0.8,4.9,1.5,7C589,651.3,589.8,653,590.7,654.1z"/>
    <path d="M602,656.3c0.1-2.7,0.5-5.1,1.1-7.1c-0.5-2.6-0.6-5.6-0.5-8.9c0.3-6.3,2-12.4,4.6-13.8c-1-2.9-2-6-2.9-9 c-3.5-12-6.3-24.4-7.3-36.8c-1.7-11.3-2.2-21-1-27.5c-0.8-0.6-1.5-1.2-2.2-2.2c-1-1.7-1.7-3.7-1.6-5.6c0-0.1,0-0.4,0-0.5 c-0.3-0.1-0.6,0-0.9,0h-0.1c-1.2-0.2-2.5-1-3.5-2c-1,0.9-2.3,1.4-3.8,1.1h-0.1c-1.6-0.3-3-1.3-4.1-3c-0.5-0.9-1.1-1.8-1.3-2.8 c-6.7,16.2-7.3,33.8-7.2,51.1c0.7,26.8,12.9,53,30.9,72.5C602,659.9,601.9,658.2,602,656.3z" fill="#9461C9"/>
    <path d="M590.8,648.3c0.9,1.4,1.9,2.7,2.8,3.9c0.7,0.9,1.3,1.7,2,2.7c2,2.5,3.7,4.6,5.2,6.1c0.5,0.6,1,1.1,1.5,1.6 c0-0.3-0.1-0.7-0.1-1c-17.9-19.6-30.2-45.7-30.8-72.5c-0.1-17.3,0.6-34.8,7.2-51.1c-0.1-0.4-0.2-0.9-0.2-1.3 c-0.4,0.9-0.8,1.9-1.3,2.9c-5.9,15.8-6.5,32.6-6.3,49.2c0.5,18.6,6.7,37.4,16.2,53.2C588.2,644.4,589.5,646.5,590.8,648.3z"/>
    <path d="M620.6,672.9c-0.3,0.1-0.5,0.1-0.8,0h-0.1c-0.4-0.1-0.7-0.3-1.1-0.5c-0.5,1.3-1.1,2.3-1.8,3 c-0.2,2.4-0.7,4.5-1.2,6.2c0.3,2.2,0.8,4,1.4,4.9c0.3,0.5,0.6,0.8,0.9,0.8l0,0c1.3,0.2,3.5-3.8,3.9-10.7c0,0,0,0,0-0.1 C621.2,675.5,620.9,674.3,620.6,672.9z" fill="#006B3F"/>
    <path d="M620.1,690.1c0.3-0.2,0.7-0.6,1-1.1c1.4-2,2.6-5.3,3.1-9.7c-0.7-0.4-1.3-1-1.9-1.8c-0.2-0.3-0.4-0.6-0.5-1c0,0,0,0,0,0.1 c-0.4,6.9-2.6,11-3.9,10.7l0,0c-0.3-0.1-0.6-0.4-0.9-0.8c-0.6-0.9-1.1-2.7-1.4-4.9c-0.5,1.6-1.1,2.7-1.8,3.7 c0.4,1.3,0.8,2.3,1.3,3.2c0.6,1.1,1.4,1.7,2.3,2.2c0.1,0,0.3,0.2,0.4,0.2h0.1c0.6,0.1,1.1,0,1.6-0.3 C619.6,690.3,619.8,690.2,620.1,690.1z"/>
    <path d="M611.9,674.2c-0.6-1.1-1.1-2.4-1.5-4c-0.7,1.1-1.5,1.8-2.4,2.1c-0.2,4.9,0.7,8.8,1.6,10.4 c0.3,0.5,0.6,0.8,0.9,0.8c1.1,0.2,2.7-2.6,3.5-7.4C613.4,676,612.7,675.4,611.9,674.2z" fill="#006B3F"/>
    <path d="M610.4,687L610.4,687c0,0,2.3-0.4,3.3-1.6c0.7-0.8,1.3-2.1,1.8-3.7c0.6-1.8,1-3.8,1.2-6.2c-0.7,0.7-1.5,1-2.4,0.8 c0,0,0,0-0.1,0s-0.2,0-0.3-0.1c-0.7,4.8-2.4,7.6-3.5,7.4c-0.3-0.1-0.6-0.4-0.9-0.8c-1-1.7-1.8-5.4-1.6-10.4c-0.3,0.1-0.7,0.2-1,0.1 h-0.1c-0.5-0.1-0.9-0.3-1.4-0.8c0,0,0,0,0,0.1c-0.2,4.9,0.5,9.6,1.9,12.4c0.1,0.2,0.2,0.4,0.3,0.6c0.6,1.1,1.3,1.7,2,2 c0.1,0,0.3,0.1,0.4,0.2C610.3,686.8,610.3,687,610.4,687z"/>
    <path d="M609.6,659c0-0.1,0-0.4,0-0.5c-0.2-0.6-0.3-1.3-0.5-2c-0.5,0.3-1.1,0.5-1.7,0.4h-0.1 c-0.9-0.2-1.8-1-2.5-2.1c0-0.1-0.1-0.1-0.1-0.2c-0.1,0.8-0.2,1.6-0.2,2.6c-0.3,5.3,0.6,9.4,1.6,11.1c0.3,0.5,0.6,0.8,0.9,0.8l0,0 c0.8,0.1,1.8-1.3,2.6-3.9C609.5,663.1,609.5,661,609.6,659z" fill="#006B3F"/>
    <path d="M603.7,668.8c0.2,0.4,0.4,0.9,0.6,1.2c0.4,0.6,0.8,1.1,1.2,1.6c0.4,0.3,0.9,0.6,1.4,0.8h0.1c0.3,0.1,0.7,0,1-0.1 c0.9-0.3,1.7-0.9,2.4-2.1c-0.4-1.6-0.6-3.3-0.8-5.2c-0.8,2.6-1.9,4.1-2.6,3.9l0,0c-0.3-0.1-0.6-0.4-0.9-0.8 c-1-1.7-1.9-5.8-1.6-11.1c0-1,0.1-1.8,0.2-2.6c-0.7-1.4-1.3-3.1-1.7-5.2c-0.6,2-0.9,4.4-1.1,7.1c-0.1,1.8-0.1,3.6,0.1,5.2 c0,0.4,0.1,0.7,0.1,1C602.5,665,603,667.2,603.7,668.8z"/>
    <path d="M615,663.2c-0.5,0.2-1,0.4-1.5,0.3h-0.1c-0.4-0.1-0.9-0.3-1.3-0.6c0.1,4.5,0.8,8,1.7,9.4 c0.2,0.3,0.4,0.6,0.6,0.7l0,0c0.5,0.1,1.4-1,2.1-3.1C615.8,668,615.3,665.7,615,663.2z" fill="#006B3F"/>
    <path d="M618.6,672.3c-0.5-0.4-1-0.9-1.4-1.6c-0.2-0.3-0.4-0.8-0.5-1c-0.8,2.2-1.6,3.2-2.1,3.1l0,0c-0.2,0-0.4-0.3-0.6-0.7 c-0.8-1.4-1.6-4.8-1.7-9.4c-0.4-0.3-0.8-0.8-1.2-1.4c-0.5-0.8-0.9-1.8-1.2-3c0,0.1,0,0.4,0,0.5c-0.1,2.2-0.1,4.1,0,6 s0.4,3.6,0.8,5.2c0.4,1.6,0.9,2.9,1.5,4c0.7,1.2,1.5,1.8,2.1,2c0.1,0,0.2,0,0.3,0.1c0,0,0,0,0.1,0c0.8,0.1,1.6-0.1,2.4-0.8 C617.5,674.7,618.1,673.6,618.6,672.3z"/>
    <path d="M622.8,671.2c0.3,2,0.8,3.6,1.4,4.3c0.2,0.4,0.5,0.6,0.7,0.7l0,0c1.2,0.2,3.3-4.1,3.8-11.2 c0-0.4,0-0.7,0-1.1c-0.9-0.4-1.9-1.1-2.9-2.1C625.3,665.9,624.3,669.3,622.8,671.2z" fill="#006B3F"/>
    <path d="M624.9,679.7c3.6,0.6,6-6.6,6.4-13.9c0-0.3,0-0.5,0-1c-0.1,0-0.2-0.2-0.3-0.2c-0.2,0-0.4,0.1-0.6,0c-0.5-0.1-1-0.3-1.7-0.5 c0,0.4,0,0.7,0,1.1c-0.4,7.1-2.5,11.4-3.8,11.2l0,0c-0.2,0-0.4-0.2-0.7-0.7c-0.5-0.8-1-2.4-1.4-4.3c-0.6,0.9-1.4,1.5-2.3,1.7 c0.3,1.4,0.6,2.6,1.1,3.6c0.2,0.4,0.3,0.7,0.5,1c0.5,0.9,1.1,1.6,1.9,1.8C624.3,679.6,624.9,679.7,624.9,679.7L624.9,679.7z"/>
    <path d="M617.4,660.4c0.1,4,0.8,7.1,1.6,8.4c0.2,0.4,0.5,0.6,0.7,0.7l0,0c1.1,0.2,3.1-3.7,3.6-10.1 c-1.3-1.6-2.7-3.6-4.1-5.9C618.9,656.2,618.3,658.5,617.4,660.4z" fill="#006B3F"/>
    <path d="M625.8,662c-0.7-0.7-1.6-1.6-2.4-2.6c-0.5,6.4-2.5,10.3-3.6,10.1l0,0c-0.2,0-0.4-0.2-0.7-0.7c-0.8-1.4-1.5-4.4-1.6-8.4 c-0.6,1.4-1.4,2.4-2.4,2.8c0.3,2.5,0.8,4.8,1.5,6.6c0.2,0.4,0.3,0.7,0.5,1c0.4,0.8,0.9,1.3,1.4,1.6c0.3,0.2,0.7,0.4,1.1,0.5h0.1 c0.3,0.1,0.5,0.1,0.8,0c0.8-0.1,1.7-0.7,2.3-1.7C624.3,669.3,625.3,665.9,625.8,662z"/>
    <path d="M612.8,659.4c0.2,0.4,0.5,0.6,0.7,0.7l0,0c1.1,0.2,3.2-3.7,3.7-10.4c-1.1-2.1-2.4-4.5-3.5-7c0,0,0,0,0,0.1 c-0.2,4.2-1,8.2-2.3,10.9C611.5,656.3,612.2,658.3,612.8,659.4z" fill="#006B3F"/>
    <path d="M613.4,663.5L613.4,663.5c0,0,1.1,0.1,1.6-0.3c0.9-0.4,1.7-1.5,2.4-2.8c0.8-1.8,1.5-4.1,2-6.8c-0.7-1.2-1.4-2.4-2.2-3.8 c-0.5,6.5-2.5,10.6-3.7,10.4l0,0c-0.2,0-0.4-0.2-0.7-0.7c-0.6-0.9-1.1-2.9-1.4-5.6c-0.6,1.3-1.3,2.2-2.1,2.7c0.1,0.7,0.3,1.4,0.5,2 c0.3,1.1,0.7,2.2,1.2,3c0.4,0.6,0.8,1.1,1.2,1.4C612.5,663.2,613,663.4,613.4,663.5z"/>
    <path d="M608.4,630c-1.2,0.6-2.9,4.7-3.3,11.1c-0.3,5.6,0.6,10,1.6,11.7c0.2,0.4,0.5,0.6,0.7,0.7l0,0 c1.2,0.2,3.2-4.1,3.6-11.2c0.1-2,0.1-3.8-0.1-5.5C610.1,634.5,609.2,632.3,608.4,630z" fill="#006B3F"/>
    <path d="M607.3,656.8C607.4,656.8,607.3,656.8,607.3,656.8s1.3-0.1,1.8-0.4c0.8-0.5,1.5-1.4,2.1-2.7c1.3-2.7,2.1-6.8,2.3-10.9 c0,0,0,0,0-0.1c-0.9-1.9-1.7-4-2.6-6.1c0.2,1.7,0.2,3.5,0.1,5.5c-0.4,7.1-2.4,11.4-3.6,11.2l0,0c-0.2,0-0.4-0.2-0.7-0.7 c-1-1.7-1.9-6-1.6-11.7c0.3-6.4,2-10.5,3.3-11.1c-0.4-1-0.8-2.2-1.1-3.2c-2.6,1.3-4.3,7.4-4.6,13.8c-0.2,3.3,0,6.3,0.5,8.9 c0.4,2.1,0.9,3.9,1.7,5.2c0,0.1,0.1,0.1,0.1,0.2C605.6,655.8,606.4,656.5,607.3,656.8z"/>
    <path d="M605.3,617.2c4.9,14.8,10.2,36.1,23.8,45.6C616,648.7,609.8,628.9,604,611c-1.4-4.6-2.6-9.2-3.6-13.7 C601.6,603.5,603.2,610.3,605.3,617.2z" fill="#D41C30"/>
    <path d="M608.4,630c0.8,2.3,1.7,4.5,2.6,6.8c0.9,2.1,1.7,4.1,2.6,6.1c1.1,2.5,2.3,4.8,3.5,7c0.7,1.4,1.4,2.6,2.2,3.8 c1.4,2.3,2.8,4.2,4.1,5.9c0.8,1,1.7,1.8,2.4,2.6c1,1,2,1.6,2.9,2.1c0.5,0.2,1.2,0.5,1.7,0.5c0.2,0,0.4,0.1,0.6,0 c-0.6-0.5-1.3-1.2-1.9-1.8c-13.7-9.5-19-30.7-23.8-45.6c-2.1-7-3.7-13.7-4.9-19.9c-1.3-5.7-2.4-11.3-3.3-16.5 c1,12.5,3.7,24.8,7.3,36.8c0.9,3.2,1.9,6.1,2.9,9C607.6,627.8,608,628.8,608.4,630z"/>
    <path d="M605.2,539.5c0,1.4-0.3,2.7-0.9,3.7c0.3,0.2,0.5,0.2,0.8,0.3c0.6,0.1,1.1,0.1,1.6-0.1 c0-1.1,0.1-2.2,0.5-3.1c-1-1.7-1.8-3.9-2.1-6c-0.3,0.2-0.6,0.4-1,0.6C604.9,536.4,605.2,538,605.2,539.5z" fill="#006B3F"/>
    <path d="M604.3,543.3c-0.1,0.3-0.2,0.4-0.3,0.6c0.9,0.2,1.9,0.6,3,1.2c-0.1-0.4-0.1-0.8-0.1-1.3c0-0.1,0-0.1,0-0.3 c-0.5,0.2-1.1,0.2-1.6,0.1C604.9,543.4,604.6,543.4,604.3,543.3z"/>
    <path d="M595.1,549.8c0.4,0.6,0.9,1.1,1.4,1.5c0.1-0.7,0.3-1.2,0.5-1.7c0.5-1.6,1.2-2.9,2-3.8 c-1.2-0.4-2.4-1.2-3.3-2.4c0,0,0,0-0.1,0.1c-0.5,0.5-1,0.8-1.6,1.1c-0.1,0.4-0.1,0.8-0.1,1.2C593.9,547.1,594.4,548.6,595.1,549.8z " fill="#006B3F"/>
    <path d="M596.5,551.3c-0.5-0.4-1-0.9-1.4-1.5c-0.8-1.2-1.2-2.7-1.1-4c0-0.4,0.1-0.8,0.1-1.2c-0.5,0.2-1.1,0.4-1.8,0.4 c0,0.1,0,0.4,0,0.5c0,2.1,0.5,4.1,1.6,5.6c0.6,0.9,1.3,1.6,2.2,2.2C596.2,552.6,596.3,551.9,596.5,551.3z"/>
    <path d="M603.7,539.2c0-1.4-0.4-2.7-1-3.9c-0.3,0.1-0.7,0-1,0h-0.1c-1-0.2-1.8-0.6-2.6-1.3c0,0-0.1,0.1-0.1,0.3 c-0.4,0.5-0.9,0.8-1.4,1c0.3,1,0.5,2.1,0.5,3.2c0,1.2-0.3,2.4-0.8,3.4c0.7,0.9,1.6,1.7,2.7,1.8 C601.8,544.3,603.6,542.2,603.7,539.2z" fill="#006B3F"/>
    <path d="M601.7,544c0.7-0.3,1.5-0.3,2.3-0.1c0.1-0.1,0.2-0.4,0.3-0.6c0.5-1,0.9-2.3,0.9-3.7c0-1.6-0.4-3.2-1-4.6 c-0.5,0.2-1,0.4-1.6,0.4c0.7,1.1,1.1,2.4,1,3.9c0,2.9-1.7,5.1-4.1,4.5c-1-0.2-1.9-0.9-2.7-1.8c-0.3,0.5-0.6,1-1,1.5 c0.9,1.3,2.1,2,3.3,2.4C599.8,544.9,600.7,544.2,601.7,544z"/>
    <path d="M594.8,541.8c0.9-0.8,1.4-2.1,1.4-3.6c0-0.8-0.2-1.7-0.5-2.6c-0.3,0.1-0.7,0-1,0h-0.1 c-1.1-0.2-2.2-0.8-3-1.8c-0.2,1.6-0.7,3-1.7,4c-0.1,1.4-0.4,2.7-1,3.7c0.7,0.7,1.6,1.1,2.5,1.3 C592.6,542.9,593.8,542.6,594.8,541.8z" fill="#006B3F"/>
    <path d="M591.4,544.8c0.3,0.1,0.6,0.1,0.9,0c0.6,0,1.1-0.1,1.8-0.4c0.6-0.2,1.1-0.6,1.6-1.1c0,0,0,0,0.1-0.1c0.4-0.5,0.7-0.8,1-1.5 c0.5-1,0.8-2.2,0.8-3.4c0-1.1-0.2-2.2-0.5-3.2c-0.5,0.2-0.9,0.4-1.4,0.4c0.3,0.9,0.5,1.6,0.5,2.6c0,1.5-0.5,2.8-1.4,3.6 c-0.9,0.9-2.2,1.3-3.5,1c-0.9-0.2-1.8-0.6-2.5-1.3c-0.3,0.5-0.6,1-1,1.3c1,1,2.3,1.8,3.5,2C591.4,544.8,591.4,544.8,591.4,544.8z"/>
    <path d="M599.8,532.4c0.5,0.4,1.1,0.6,1.7,0.8c1.2,0.2,2.3-0.1,3.1-1c0.2-0.2,0.4-0.5,0.6-0.7 c0-0.3,0.1-0.5,0.2-0.8c-0.7-1.1-1.3-2.6-1.8-4c-1,0.1-2.1,0.2-3.4,0.2c0.2,0.7,0.3,1.6,0.3,2.4 C600.4,530.4,600.1,531.5,599.8,532.4z" fill="#006B3F"/>
    <path d="M601.5,533.2c-0.6-0.1-1.2-0.3-1.7-0.8c-0.2,0.7-0.6,1.1-0.9,1.6c0.8,0.7,1.7,1.1,2.6,1.3h0.1c0.4,0.1,0.7,0.1,1,0 c0.6,0,1.1-0.2,1.6-0.4c0.3-0.2,0.7-0.3,1-0.6c-0.1-0.4-0.1-0.7-0.1-1.1c0-0.7,0-1.2,0.1-1.8c-0.2,0.2-0.4,0.6-0.6,0.7 C603.7,533.1,602.6,533.4,601.5,533.2z"/>
    <path d="M594.6,533.4c1.1,0.2,2.2-0.2,3-1s1.2-2.1,1.2-3.5c0-0.7-0.1-1.4-0.3-2.1c-1.6,0-3.2-0.1-4.6-0.4 c-0.1,0-0.1,0-0.2,0c0.1,0.4,0.1,1,0.1,1.4c0,1.8-0.5,3.2-1.3,4.3C593,532.8,593.9,533.3,594.6,533.4z" fill="#006B3F"/>
    <path d="M594.6,535.6L594.6,535.6c0.4,0.1,0.8,0.1,1.1,0c0.5,0,1-0.2,1.4-0.4c0.5-0.2,1-0.5,1.4-1c0.1,0,0.1-0.1,0.1-0.3 c0.4-0.5,0.7-1,0.9-1.6c0.4-0.9,0.6-2,0.6-3.2c0-0.8-0.1-1.7-0.3-2.4c-0.3-0.1-0.6,0-0.9,0c-0.2,0-0.4-0.1-0.6,0 c0.2,0.7,0.3,1.4,0.3,2.1c0,1.4-0.5,2.7-1.2,3.5c-0.8,0.8-1.8,1.2-3,1c-0.8-0.1-1.5-0.5-2.2-1.2c-0.2,0.4-0.5,0.7-0.8,1 c0,0.3,0,0.4-0.1,0.7C592.4,534.8,593.4,535.4,594.6,535.6z"/>
    <path d="M585.8,539.1L585.8,539.1c-2.6-0.4-4.7-3-5.5-6c-0.3,0.6-0.4,1.4-0.4,2.3c0,1.5,0.4,3,1.2,4 c0.8,1.2,1.9,2,3,2.2c1.9,0.3,3.3-0.8,4-2.8C587.2,539.2,586.5,539.3,585.8,539.1z" fill="#006B3F"/>
    <path d="M578.5,538c0.3,1,0.7,2,1.3,2.8c1,1.7,2.5,2.8,4.1,3h0.1c1.5,0.2,2.7-0.2,3.8-1.1c0.4-0.3,0.7-0.8,1-1.3 c0.6-1,0.9-2.2,1-3.7l0,0c-0.5,0.6-1.1,1-1.9,1.2c-0.6,2-2.2,3.1-4,2.8c-1.2-0.2-2.2-1.1-3-2.2c-0.8-1.2-1.3-2.7-1.2-4 c0-0.8,0.2-1.6,0.4-2.3c-0.2-0.9-0.3-1.7-0.3-2.7c0-0.1,0-0.3,0-0.4c-1.1,1.2-1.8,2.9-1.8,5.1c0,0.5,0,1.1,0.1,1.7 C578.3,537.2,578.4,537.6,578.5,538z"/>
    <path d="M588,534.2L588,534.2c-2.7-0.4-4.8-3-5.5-6.1c-0.5,0.7-0.7,1.8-0.8,2.9c0,2.9,1.8,5.7,4.2,6.2 c1.1,0.2,2.2-0.2,3-1c0.5-0.5,0.8-1.2,1-1.9C589.2,534.2,588.6,534.3,588,534.2z" fill="#006B3F"/>
    <path d="M580.2,533.2c0.8,3,2.9,5.4,5.4,6h0.1c0.7,0.1,1.5,0.1,2.2-0.2s1.4-0.6,1.9-1.2l0,0c0.9-0.9,1.5-2.4,1.7-4 c0-0.3,0.1-0.4,0.1-0.7c-0.5,0.5-1.1,0.8-1.9,0.9c-0.2,0.8-0.5,1.4-1,1.9c-0.8,0.8-1.9,1.2-3,1c-2.3-0.4-4.2-3.2-4.2-6.2 c0-1.1,0.3-2.1,0.8-2.9c-0.2-0.9-0.3-1.6-0.3-2.5c0-0.1,0-0.1,0-0.3c-1.3,1-2,2.8-2.1,4.9c0,0.1,0,0.3,0,0.4 C579.9,531.5,580,532.4,580.2,533.2z"/>
    <path d="M584.6,522.9c-0.5,0.7-0.9,1.8-0.9,3c0,2.9,1.8,5.7,4.2,6.2c2.4,0.4,4.2-1.6,4.3-4.5c0-0.5-0.1-1-0.1-1.4 C589.2,525.4,586.8,524.3,584.6,522.9z" fill="#006B3F"/>
    <path d="M582.3,528c0.7,3.1,2.9,5.6,5.4,6.1h0.1c0.6,0.1,1.2,0.1,1.9-0.1c0.6-0.2,1.2-0.5,1.9-0.9c0.3-0.2,0.6-0.6,0.8-1 c0.8-1.1,1.2-2.7,1.3-4.3c0-0.4,0-1-0.1-1.4c-0.6-0.1-1.1-0.2-1.6-0.4c0.1,0.4,0.2,1,0.1,1.4c0,2.9-2,5-4.3,4.5 c-2.3-0.4-4.2-3.2-4.2-6.2c0-1.2,0.3-2.3,0.9-3c-0.4-0.2-0.7-0.5-1-0.7c-0.3,0.4-0.6,0.6-1,0.9c-0.2,0.7-0.4,1.4-0.4,2.4 c0,0.1,0,0.1,0,0.3C582,526.4,582.1,527.3,582.3,528z"/>
    <path d="M613.2,629.7c3.5,8.7,7.2,15.9,10.6,21.5c-3.8-6.7-6-12.5-7.2-17.7C615.5,632.8,614.3,631.5,613.2,629.7z" fill="#006B3F"/>
    <path d="M605.3,597.2c-1.3-3.4-2.6-7.5-3.9-11.8c0.1,0,0.2-0.1,0.3-0.1c0.4-0.2,0.5-0.3,0.9-0.5 c-0.7-1.9-1.4-4-1.9-6c-0.6-2.4-1.1-4.7-1.3-6.8c-0.4-0.8-0.7-1.6-1.1-2.4c1.1,12.5,3.6,24.9,7,36.9 C604.8,602.6,604.8,599.1,605.3,597.2z" fill="#006B3F"/>
    <path d="M604.1,547.3c-0.6-0.1-1.1-0.1-1.6,0.1c-1.3,0.5-2.4,1.8-3.1,4c-1.2,3.5-1.6,8.6-1.3,15 c0.6-0.5,0.9-0.8,1.4-1.3c0.1-0.3,0.2-0.7,0.3-0.8c0.2-0.4,0.4-0.6,0.6-0.9c-0.2-0.6-0.4-1-0.7-1.6c0.1,0,0.1-0.1,0.2-0.1l0,0 c1.6-1.3,2.3-2,3.8-3.3c0-0.1-0.1-0.3-0.1-0.4c0.1,0,0.2-0.1,0.3-0.1c1.7-1.7,2.6-2.5,4.3-4.2c0,0,0,0,0-0.1 c0.2-0.1,0.3-0.2,0.5-0.3c1.2,3.2,2.2,6.6,3.1,9.6c0.2,0.3,0.5,0.6,0.7,1.1c1.3-1.1,2-1.7,3.4-2.9l0,0c0.1,0,0.1-0.1,0.2-0.1l0,0 l0,0c0.1,0,0.1-0.1,0.2-0.1c2.2,5.2,4.1,10.8,5.5,15.5c3.1,4.1,6.4,11.5,8.8,18.7c1.4,4.2,2.3,8.2,2.9,11.7 c1.7,2.5,3.2,6.1,4.2,9.3c2,6.1,3.1,12.8,1.4,15.2c2,5.1,3.3,9.8,3.9,13.9c-0.9-15-4.6-29.3-8.7-43.6c-4.6-13.6-9.5-27-16.8-39.5 c-3.1-3.3-5.5-6.7-6.8-8.7c-0.3-0.3-0.5-0.6-0.6-0.9c-0.5-0.6-1.1-1.4-1.6-2.5C606.9,548.4,605.4,547.5,604.1,547.3z" fill="#006B3F"/>
    <path d="M604,543.8c-0.8-0.1-1.6-0.1-2.3,0.1c-1,0.2-1.8,0.9-2.6,1.7c-0.8,1-1.5,2.2-2,3.8c-0.2,0.5-0.3,1.2-0.5,1.7 c-0.2,0.7-0.3,1.3-0.4,2c-1.1,6.5-0.8,16.2,1,27.5c0.8,5.2,2,10.8,3.3,16.5c1.1,4.4,2.3,9,3.6,13.7c5.8,17.9,12.1,37.7,25.1,51.8 c0.6,0.6,1.3,1.3,1.9,1.8c0.1,0.2,0.2,0.2,0.3,0.2s0.2,0.2,0.2,0.2c-2.1-3.9-4.5-8.3-7.5-13.4c-0.1-0.2-0.1-0.3-0.2-0.4 c-3.5-5.7-7.1-12.8-10.6-21.5c-2.3-3.7-4.6-9.4-6.1-14.9c-0.8-2.9-1.4-5.7-1.7-8.3c-3.4-12-6-24.4-7-36.9c-0.3-0.7-0.7-1.6-1-2.4 c0.1,0,0.1-0.1,0.2-0.1c0.2-0.2,0.4-0.3,0.6-0.4c-0.3-6.4,0.1-11.7,1.3-15c0.8-2.2,1.8-3.5,3.1-4c0.5-0.2,1-0.2,1.6-0.1 c1.3,0.2,2.8,1.2,4.5,2.7c-0.7-1.5-1.3-3.2-1.6-4.9C605.9,544.4,604.9,544,604,543.8z"/>
    <path d="M617.7,562.1c7.2,12.5,12.1,25.9,16.8,39.5c4.1,14.4,7.9,28.6,8.7,43.6c0.9,5.2,0.9,9.9,0.5,13.9c0.2,1,0.4,1.8,0.5,2.7 l0,0c5.7-19.4-2.1-42.6-7.4-61.3c-3.9-11.5-8-22.9-13.6-33.8C621.3,565.5,619.3,563.8,617.7,562.1z"/>
    <path d="M634.1,613.7c0,1.5-0.2,2.8-0.6,3.7c-0.1,0.4-0.3,0.6-0.5,0.9c1.7,3,3.1,5.8,4.3,8.5c0-1.9-0.5-5.3-2-9.8 C635,615.9,634.5,614.8,634.1,613.7z" fill="#006B3F"/>
    <path d="M634.1,613.7c0.4,1,0.8,2.1,1.2,3.3c1.5,4.5,1.9,7.8,2,9.8c0.6,1.5,1.3,2.9,1.9,4.4c1.7-2.5,0.6-9.1-1.4-15.2 c-1.1-3.2-2.5-6.8-4.2-9.3C634,609.5,634.2,611.8,634.1,613.7z"/>
    <path d="M632.5,619c-0.3,0.2-0.6,0.4-0.9,0.5c-0.2,0.1-0.5,0.1-0.7,0c-1.2-0.2-2.4-1.2-3.8-2.8 c0.3,2.2,0.3,4.3,0.2,5.9c1.7,3.7,3.8,7.9,6.4,12.4c5,8.6,7.8,15.9,9.6,22.2C643.7,643.6,639.2,630.9,632.5,619z" fill="#006B3F"/>
    <path d="M639.2,631.3c-0.5-1.5-1.2-2.9-1.9-4.4c-1.3-2.7-2.6-5.5-4.3-8.5c-0.1,0.3-0.3,0.4-0.4,0.5c6.6,11.8,11.2,24.5,10.6,38.2 c0.2,0.7,0.3,1.3,0.5,2c0.3-4.1,0.3-8.6-0.5-13.9C642.5,641.1,641.2,636.5,639.2,631.3z"/>
    <path d="M624.6,626.8c-0.2,0-0.3-0.1-0.5-0.1c-0.3-0.1-0.5-0.1-0.8-0.3c2.1,6.1,5.4,13.5,10.7,22.4 c5.7,9.5,8.8,17.4,10.4,24.1c0.3-13.6-4.7-26.1-11.4-37.7c-2.4-4.2-4.4-8.1-6.1-11.8c-0.1,0.5-0.2,1.1-0.4,1.6 C626.1,626.2,625.5,626.8,624.6,626.8z" fill="#006B3F"/>
    <path d="M643.1,657.1c-1.7-6.3-4.6-13.6-9.6-22.2c-2.6-4.5-4.7-8.7-6.4-12.4c0,0.4-0.1,0.8-0.1,1.1c1.7,3.6,3.7,7.5,6.1,11.8 c6.6,11.7,11.5,24.2,11.4,37.7c0.2,0.9,0.3,1.6,0.5,2.3c0.2-3.9,0.1-8.5-0.8-13.6c-0.1-0.8-0.3-1.8-0.5-2.7 C643.6,658.6,643.4,657.9,643.1,657.1z"/>
    <path d="M620.7,624.1c0.4,3.6,0.2,6.6-0.5,8.3c-0.5,1-1.1,1.6-2.1,1.6c-0.1,0-0.3-0.1-0.4-0.1c-0.1,0-0.2,0-0.4-0.1 c1.2,5.1,3.4,10.9,7.2,17.4c8.1,14.2,15.3,28.2,20.2,43.8c0.1,0.2,0.1,0.3,0.2,0.6c2.1-17.3-3.3-31.2-11.3-46.2 c-5.6-9.4-8.9-17.1-11.1-23.3C621.9,625.5,621.3,624.8,620.7,624.1z" fill="#006B3F"/>
    <path d="M644.5,673.1c-1.6-6.8-4.8-14.7-10.4-24.1c-5.4-8.9-8.6-16.3-10.7-22.4c-0.3-0.2-0.5-0.4-0.8-0.5 c2.2,6.3,5.4,13.9,11.1,23.3c8,15,13.4,28.9,11.3,46.2c-0.1-0.2-0.1-0.3-0.2-0.6c-4.9-15.6-12.1-29.6-20.2-43.8 c-3.8-6.5-6-12.2-7.2-17.4c-0.2,0-0.4-0.2-0.7-0.3c1.2,5.1,3.4,11.1,7.2,17.7c0.1,0.2,0.1,0.3,0.2,0.4c3,5.2,5.4,9.5,7.5,13.4 c0.3,0.6,0.5,1,0.8,1.5c1.1,2.1,2,3.9,2.8,5.7c1.6,3.3,2.9,6.2,3.9,9c1,2.3,1.8,4.7,2.6,7c0.7,2.3,1.5,4.6,2.4,7.1 c0.3,0.8,0.4,1.2,0.6,2c0.2,0.5,0.3,0.8,0.4,1.3c0-0.5,0.1-0.8,0.1-1.4c0.6-6.1,1.4-13-0.3-21.7 C644.9,674.7,644.7,673.8,644.5,673.1z"/>
    <path d="M631.2,617.5c0.4-0.1,0.7-0.4,0.9-1.1c1.3-3.2,0.1-11.8-2.9-21.1c-2-6.2-4.3-11.4-6.5-14.9 c0.4,2.3,0.6,4.1,0.3,5.1c2,6.1,2.6,11.3,1.6,13.8c-0.4,0.9-1,1.5-1.8,1.6c0.7,1.8,1.3,3.7,1.9,5.5c0.7,2.3,1.2,4.5,1.7,6.6 C628.4,616.1,630.1,617.8,631.2,617.5z" fill="#006B3F"/>
    <path d="M622.8,580.6c2.1,3.6,4.5,8.8,6.5,14.9c2.9,9.3,4.1,17.8,2.9,21.1c-0.2,0.7-0.5,1-0.9,1.1c-1,0.2-2.8-1.4-4.7-4.3 c0.2,1.1,0.4,2.3,0.5,3.4c1.4,1.6,2.6,2.6,3.8,2.8c0.2,0,0.5,0.1,0.7,0c0.3-0.1,0.7-0.3,0.9-0.5c0.1-0.1,0.3-0.4,0.4-0.5 c0.2-0.2,0.3-0.5,0.5-0.9c0.4-0.9,0.6-2.2,0.6-3.7c0.1-1.9-0.1-4.4-0.6-7.1c-0.5-3.5-1.6-7.5-2.9-11.7c-2.3-7.2-5.6-14.6-8.8-18.7 C622.3,577.8,622.6,579.2,622.8,580.6z"/>
    <path d="M619.4,599.3c0.1,2.2-0.1,4.1-0.6,5.3c-0.4,1-1.1,1.5-2,1.5c-0.1,0-0.2,0-0.4-0.1c-0.2,0-0.4-0.1-0.7-0.3 c1,2.6,2.1,5.4,2.8,8.1c0.6,2.2,1.1,4.3,1.4,6.1c1.6,2.9,3.3,4.5,4.3,4.6c0.2,0,0.5-0.1,0.8-0.7c0.9-2,0.7-8-1.9-16.6 c-0.7-2.5-1.6-4.6-2.4-6.7C620.4,600.3,619.9,599.8,619.4,599.3z" fill="#006B3F"/>
    <path d="M627.1,616.6c-0.1-1.1-0.3-2.2-0.5-3.4c-0.4-2.1-0.9-4.3-1.7-6.6c-0.5-1.9-1.1-3.8-1.9-5.5h-0.1c-0.2,0-0.3-0.1-0.5-0.1 c-0.4-0.1-0.9-0.3-1.3-0.6c0.8,2.1,1.7,4.3,2.4,6.7c2.6,8.5,2.7,14.6,1.9,16.6c-0.3,0.6-0.6,0.7-0.8,0.7c-1,0.1-2.6-1.7-4.3-4.6 c0.3,1.4,0.4,2.8,0.6,4.1c0.6,0.8,1.2,1.4,1.9,2c0.3,0.2,0.5,0.4,0.8,0.5s0.5,0.2,0.8,0.3c0.2,0,0.3,0.1,0.5,0.1 c0.8,0,1.6-0.6,2-1.6c0.2-0.4,0.3-0.9,0.4-1.6c0.1-0.4,0.1-0.7,0.1-1.1C627.4,620.9,627.3,618.8,627.1,616.6z"/>
    <path d="M612.3,608c-0.2,0.1-0.3,0.1-0.5,0.1s-0.4-0.1-0.6-0.2c-1.2-0.8-2.8-3.5-4.5-7.5c-0.2,3,0.3,7.7,2,13.9 c2.8,10.4,7.1,17.5,9.2,17.5c0.2,0,0.5-0.1,0.8-0.7c0.9-1.9,0.8-8-1.5-16.6c-1.1-4-2.5-7.7-3.8-10.5 C613.3,606.1,613,607.5,612.3,608z" fill="#006B3F"/>
    <path d="M618.1,633.9c0.8,0,1.5-0.6,2.1-1.6c0.8-1.6,0.9-4.7,0.5-8.3c-0.1-1.3-0.3-2.7-0.6-4.1c-0.4-2-0.8-4-1.4-6.1 c-0.8-2.7-1.7-5.6-2.8-8.1c-0.8-0.4-1.7-1.3-2.7-2.4c0,0.3,0,0.4,0,0.7c1.3,2.8,2.7,6.3,3.8,10.5c2.4,8.6,2.5,14.5,1.5,16.6 c-0.3,0.6-0.6,0.7-0.8,0.7c-2.1,0.1-6.3-7.1-9.2-17.5c-1.7-6.2-2.2-11.1-2-13.9c-0.4-0.9-0.8-1.9-1.2-3.1c-0.6,2.1-0.6,5.4,0,9.3 c0.4,2.5,0.9,5.4,1.7,8.3c1.5,5.5,3.7,11.2,6.1,14.9c1.1,1.8,2.2,3.1,3.4,3.7c0.2,0.2,0.4,0.2,0.7,0.3c0.1,0,0.2,0,0.4,0.1 C617.8,634,618,633.9,618.1,633.9z"/>
    <path d="M618.2,589.5c-0.1,0.3-0.3,0.5-0.4,0.8c0.4,1.6,0.8,3,1,4.4c1.5,2.5,2.9,3.8,3.6,3.8c0.1,0,0.2,0,0.4-0.3 c0.6-1.4,0.2-5.7-1.6-11.1c-0.7-0.4-1.5-1.2-2.5-2.5C618.9,586.4,618.7,588.3,618.2,589.5z" fill="#006B3F"/>
    <path d="M624.8,599.5c1-2.4,0.4-7.8-1.6-13.8c-0.1,0.5-0.3,0.9-0.5,1.2c-0.2,0.2-0.5,0.2-0.7,0.2c-0.1,0-0.2,0-0.4-0.1 c-0.1,0-0.2,0-0.2-0.2c1.8,5.5,2.2,9.7,1.6,11.1c-0.1,0.4-0.3,0.4-0.4,0.3c-0.7,0-2.1-1.3-3.6-3.8c0.3,1.7,0.5,3.2,0.6,4.8 c0.5,0.5,1,1,1.4,1.3s0.9,0.6,1.3,0.6c0.2,0,0.3,0.1,0.5,0.1h0.1C623.7,601,624.4,600.5,624.8,599.5z"/>
    <path d="M612.2,587.8c0,1.9-0.1,3.4-0.6,4.6c0.4,2,0.8,4,1,5.8c1.6,3.2,3.1,4.9,3.9,4.9c0.1,0,0.2,0,0.4-0.3 c0.7-1.4,0.5-6-1.2-11.9C614.6,590.7,613.4,589.5,612.2,587.8z" fill="#006B3F"/>
    <path d="M616.5,605.9c0.1,0,0.2,0,0.4,0.1c0.8,0,1.5-0.6,2-1.5c0.5-1.2,0.7-3,0.6-5.3c-0.1-1.4-0.3-3.1-0.6-4.8 c-0.3-1.4-0.6-2.8-1-4.4c-0.4,0.5-0.9,0.8-1.5,0.8c-0.1,0-0.2,0-0.4-0.1c0,0,0,0-0.1,0c1.6,5.9,1.8,10.3,1.2,11.9 c-0.2,0.4-0.3,0.4-0.4,0.3c-0.8,0-2.4-1.8-3.9-4.9c0.3,2,0.5,3.8,0.5,5.2c0.9,1.1,1.7,1.9,2.7,2.4 C616,605.9,616.2,605.9,616.5,605.9z"/>
    <path d="M611.3,607c0.3,0.2,0.5,0.2,0.6,0.1c1.1-0.6,0.8-6-0.7-14c-0.4,0.6-1,0.9-1.7,0.9c-0.1,0-0.2,0-0.3-0.1 c-2.2-0.4-4.7-4.4-6.6-9.2c-0.4,0.2-0.5,0.3-0.9,0.5c0.1,0,0.2-0.1,0.3-0.1C605.2,596.3,609.1,605.6,611.3,607z" fill="#006B3F"/>
    <path d="M612.7,598c-0.3-1.8-0.6-3.7-1-5.8c0,0.1-0.1,0.3-0.1,0.3c-0.1,0.1-0.2,0.4-0.3,0.5c1.6,8,1.8,13.5,0.7,14 c-0.2,0.1-0.4,0.1-0.6-0.1c-2.2-1.5-6.2-10.7-9.3-21.9c-0.1,0-0.2,0.1-0.3,0.1s-0.2,0.1-0.3,0.1c1.2,4.3,2.6,8.4,3.9,11.8 c0.4,1,0.8,2.1,1.2,3.1c1.7,4,3.3,6.7,4.5,7.5c0.2,0.2,0.4,0.2,0.6,0.2c0.2,0,0.4,0.1,0.5-0.1c0.7-0.4,1-1.9,1-3.9 c0-0.3,0-0.4,0-0.7C613.2,601.8,613,600,612.7,598z"/>
    <path d="M610.6,578.3c0.3,1.3,0.6,2.4,0.8,3.7c1.7,3.9,3.6,6.1,4.4,6.1c0.1,0,0.2,0,0.4-0.3c0.5-1,0.5-3.8-0.2-7.4 c-1-1.7-2-3.6-3.1-5.9c-0.1,0.1-0.3,0.2-0.5,0.2c-0.1,0-0.2,0-0.2,0c-0.8-0.4-2-2-3.4-4.6c0.5,2,0.8,3.7,0.8,4.9 C610,576,610.3,577.2,610.6,578.3z" fill="#006B3F"/>
    <path d="M612.5,564c-0.2-0.3-0.4-0.8-0.7-1.1c0.1,0.4,0.2,0.9,0.4,1.3C612.4,564.1,612.4,564,612.5,564z"/>
    <path d="M616.3,587.6c-0.2,0.4-0.3,0.4-0.4,0.3c-0.9,0-2.7-2.2-4.4-6.1c0.4,2.1,0.6,4.1,0.7,5.7c1.2,1.7,2.4,2.9,3.6,3.1 c0,0,0,0,0.1,0s0.2,0,0.4,0.1c0.6,0,1.1-0.2,1.5-0.8c0.2-0.2,0.3-0.4,0.4-0.8c0.5-1.2,0.7-2.9,0.6-5.1c-0.8-1.1-1.6-2.5-2.7-4 C616.8,583.9,616.8,586.6,616.3,587.6z"/>
    <path d="M609.3,591.1c0.1,0,0.2,0,0.4-0.3c0.7-1.4,0.6-5.9-1-11.8c-0.2-0.7-0.4-1.6-0.6-2.3c-0.5-0.4-1.2-1-1.9-2.1 c1,3.7,1.3,6.7,0.5,7.5c-0.2,0.1-0.4,0.2-0.6,0.2c-0.1,0-0.2,0-0.3-0.1c-0.7-0.3-1.8-1.7-3-3.5C604.9,586.3,608,591.2,609.3,591.1z " fill="#006B3F"/>
    <path d="M600.8,564.1c-0.1-0.2-0.2-0.4-0.3-0.6c-0.2,0.2-0.5,0.5-0.6,0.9c-0.1,0.3-0.2,0.5-0.3,0.8 C600.1,564.7,600.3,564.5,600.8,564.1z"/>
    <path d="M609.2,594c0.1,0,0.2,0,0.3,0.1c0.7,0,1.2-0.3,1.7-0.9c0.1-0.1,0.2-0.2,0.3-0.5c0-0.1,0.1-0.3,0.1-0.3 c0.4-1,0.6-2.6,0.6-4.6c0-1.6-0.3-3.6-0.7-5.7c-0.2-1.1-0.5-2.4-0.8-3.7c-0.3-1.1-0.6-2.3-1-3.3c0,1-0.1,1.6-0.5,2 c-0.2,0.1-0.4,0.2-0.6,0.2c-0.1,0-0.2,0-0.3-0.1c-0.1,0-0.2-0.2-0.3-0.2c0.2,0.7,0.4,1.4,0.6,2.3c1.6,5.9,1.7,10.5,1,11.8 c-0.2,0.4-0.3,0.4-0.4,0.3c-1.2-0.1-4.4-5-6.5-12.7c-1.1-1.7-2.2-3.9-3.4-6.6c0.2,2.1,0.7,4.4,1.3,6.8c0.5,2,1.2,4.1,1.9,6 C604.5,589.6,607,593.6,609.2,594z"/>
    <path d="M597.7,566.7c3.6,8.7,6.8,14,8.1,14.6c0.2,0,0.3,0.1,0.4-0.1c0.6-0.6,0.2-3.7-1.1-8.3 c-1.3-2.3-2.9-5.3-4.4-8.9c-0.5,0.4-0.7,0.6-1.2,1c-0.6,0.5-0.9,0.8-1.4,1.3c-0.2,0.2-0.4,0.3-0.6,0.4 C597.6,566.8,597.7,566.8,597.7,566.7z" fill="#006B3F"/>
    <path d="M599.4,572c1.2,2.7,2.4,5,3.4,6.6c1.2,2,2.2,3.3,3,3.5c0.1,0,0.2,0,0.3,0.1c0.2,0,0.4-0.1,0.6-0.2c0.8-0.7,0.5-3.6-0.5-7.5 c-0.3-0.5-0.7-0.9-1-1.5c1.3,4.6,1.7,7.8,1.1,8.3c-0.1,0.1-0.2,0.1-0.4,0.1c-1.3-0.6-4.5-5.9-8.1-14.6c-0.1,0-0.1,0.1-0.2,0.1 c-0.1,0-0.1,0.1-0.2,0.1c0.3,0.9,0.7,1.6,1,2.4C598.6,570.3,599,571.2,599.4,572z"/>
    <path d="M608.4,576.1c0.2,0,0.3,0.1,0.4-0.1c0.6-0.6,0.2-3.8-1.2-8.7c-1.2-2.5-2.5-5.6-3.8-9 c-1.5,1.3-2.3,2-3.8,3.3l0,0c0.1,0,0.1-0.1,0.2-0.1C603.8,570.3,607.1,575.5,608.4,576.1z" fill="#006B3F"/>
    <path d="M600.8,564.1c1.5,3.6,3,6.7,4.4,8.9c0.3,0.6,0.7,1.1,1,1.5c0.7,1.1,1.3,1.7,1.9,2.1c0.1,0,0.2,0.2,0.3,0.2s0.2,0,0.3,0.1 c0.2,0,0.4-0.1,0.6-0.2c0.3-0.4,0.5-1,0.5-2c0-1.2-0.3-2.9-0.8-4.9c-0.4-0.8-0.8-1.5-1.2-2.4c1.4,4.8,1.8,8.1,1.2,8.7 c-0.1,0.1-0.2,0.1-0.4,0.1c-1.3-0.6-4.6-5.9-8.1-14.6c-0.1,0-0.1,0.1-0.2,0.1c-0.1,0-0.1,0.1-0.2,0.1c0.2,0.6,0.4,1,0.7,1.6 C600.6,563.7,600.7,564,600.8,564.1z"/>
    <path d="M616.1,561L616.1,561L616.1,561z" fill="#006B3F"/>
    <path d="M612.1,564.3c1.1,4.4,1.7,8,1.2,9.5c3.3,6.7,6.5,11.6,8.2,12.3c0.3,0.2,0.5,0.1,0.6,0 c1.4-1.1-0.9-11.7-6.4-24.9c-1.3,1.1-2,1.7-3.4,2.9C612.3,564.2,612.3,564.2,612.1,564.3z" fill="#006B3F"/>
    <path d="M622.3,586.2c-0.2,0.1-0.4,0.1-0.6,0c-1.8-0.7-4.8-5.6-8.2-12.3c-0.1,0.3-0.2,0.4-0.3,0.5c0,0,0,0-0.1,0 c1,2.2,2.1,4.2,3.1,5.9c0.9,1.5,1.8,2.9,2.7,4c0.9,1.3,1.8,2.1,2.5,2.5c0.1,0,0.2,0.2,0.2,0.2c0.1,0,0.2,0,0.4,0.1 c0.3,0.1,0.5-0.1,0.7-0.2c0.3-0.2,0.4-0.6,0.5-1.2c0.2-1.2,0.1-2.9-0.3-5.1c-0.2-1.3-0.6-2.7-1-4.3c-1.2-4.6-3.3-10.3-5.5-15.5 c-0.1,0-0.1,0.1-0.2,0.1l0,0c-0.1,0-0.1,0.1-0.2,0.1l0,0C621.4,574.4,623.7,584.9,622.3,586.2z"/>
    <path d="M604.2,557.7c3.5,9.5,6.8,15.5,8.2,16c0.2,0,0.3,0.1,0.4-0.1c1-0.9-0.6-9.4-4.6-20 c-1.7,1.7-2.6,2.5-4.3,4.2C604,557.8,604.1,557.7,604.2,557.7z" fill="#006B3F"/>
    <path d="M607.6,567.5c0.4,0.9,0.8,1.6,1.2,2.4c1.4,2.6,2.6,4.3,3.4,4.6c0.1,0,0.2,0,0.2,0c0.2,0,0.4-0.1,0.5-0.2h0.1 c0.1-0.1,0.2-0.4,0.3-0.5c0.5-1.6-0.1-5.1-1.2-9.5c-0.1-0.4-0.2-0.9-0.4-1.3c-0.8-3-1.9-6.4-3.1-9.6c-0.2,0.1-0.3,0.2-0.5,0.3 c0,0,0,0,0,0.1c3.9,10.6,5.6,19.1,4.6,20c-0.1,0-0.2,0.1-0.4,0.1c-1.3-0.6-4.7-6.4-8.2-16c-0.1,0-0.2,0.1-0.3,0.1s-0.2,0.1-0.3,0.1 c0,0.1,0.1,0.3,0.1,0.4C605.1,561.8,606.4,565,607.6,567.5z"/>
    <path d="M607.4,543.7c0.2,2.9,1.7,6.5,3.1,8.1c0.2,0.3,0.4,0.6,0.7,0.9c2.7,4,10.2,14.8,17.8,15.3 c3.1,0.2,6-1.4,8.4-4.7c-2.1-0.6-4.5-2.6-7.2-5.3c-0.9,0.3-2,0.5-3.1,0.3c-0.3-0.1-0.6-0.1-0.8-0.1c-7.6-1.2-14.7-11.5-17.3-15.5 c-0.3-0.3-0.5-0.6-0.6-0.9c-0.2-0.3-0.4-0.5-0.6-0.8C607.5,541.8,607.3,542.7,607.4,543.7z" fill="#9461C9"/>
    <path d="M630.3,558.1c2.6,2.6,5,4.6,7.2,5.3c-2.4,3.3-5.3,4.9-8.4,4.7c-7.6-0.5-15.1-11.3-17.8-15.3c-0.3-0.3-0.5-0.6-0.7-0.9 c-1.4-1.6-2.9-5.2-3.1-8.1c-0.1-1,0.1-1.9,0.3-2.7c-0.1-0.2-0.3-0.5-0.4-0.8c-0.4,0.9-0.5,1.8-0.5,3.1c0,0.1,0,0.1,0,0.3 c0,0.4,0.1,0.8,0.1,1.3c0.3,1.7,0.9,3.5,1.6,4.9c0.5,1,1,1.8,1.6,2.5c0.2,0.2,0.4,0.5,0.6,0.9c1.3,2,3.8,5.4,6.8,8.7 c1.7,1.8,3.6,3.5,5.7,4.8c1.7,1,3.3,1.8,5,2c0.3,0.1,0.6,0.1,0.8,0.1c3.5,0.3,6.6-1.6,9.3-5.5c0.2-0.2,0.3-0.4,0.4-0.6 c-0.3,0-0.4-0.1-0.6-0.1c-2-0.3-4.4-2.3-7.1-4.8C630.8,557.9,630.6,558,630.3,558.1z"/>
    <path d="M605.6,533.2c0.2,2.9,1.7,6.5,3.1,8.1c0.2,0.3,0.4,0.6,0.7,0.9c2.7,4,10.2,14.8,17.8,15.3 c3.1,0.2,6-1.4,8.4-4.7c-2-0.6-4.4-2.6-7-5.2c-1.1,0.5-2.4,0.7-3.7,0.6c-0.3-0.1-0.6-0.1-0.8-0.1c-7.6-1.2-14.6-11.5-17.4-15.5 c-0.3-0.3-0.5-0.6-0.6-0.9c-0.1-0.2-0.2-0.3-0.4-0.5C605.7,532,605.6,532.6,605.6,533.2z" fill="#9461C9"/>
    <path d="M628.6,547.8c2.5,2.6,4.9,4.5,7,5.2c-2.4,3.3-5.3,4.9-8.4,4.7c-7.6-0.5-15-11.3-17.8-15.3c-0.3-0.3-0.5-0.6-0.7-0.9 c-1.4-1.6-2.9-5.2-3.1-8.1c0-0.7,0-1.4,0.1-1.9c-0.2-0.2-0.3-0.5-0.5-0.8c-0.1,0.3-0.1,0.5-0.2,0.8c-0.1,0.5-0.1,1.1-0.1,1.8 c0,0.4,0.1,0.7,0.1,1.1c0.3,2.2,1.2,4.5,2.1,6c0.1,0.3,0.3,0.5,0.4,0.8c0.2,0.3,0.4,0.6,0.6,0.8c0.2,0.2,0.4,0.5,0.6,0.9 c2.7,3.9,9.8,14.3,17.3,15.5c0.3,0.1,0.6,0.1,0.8,0.1c1,0,2.1-0.1,3.1-0.3c0.2-0.1,0.5-0.2,0.7-0.3c2-0.8,3.8-2.4,5.5-4.9 c0.2-0.2,0.3-0.4,0.4-0.6c-0.3,0-0.4-0.1-0.6-0.1c-2-0.3-4.4-2.2-6.9-4.8C629,547.6,628.8,547.7,628.6,547.8z"/>
    <path d="M606.5,531.3c0.2,0.3,0.4,0.6,0.7,0.9c2.7,4,10.1,14.8,17.7,15.3c3.1,0.2,5.9-1.4,8.4-4.7 c-2.6-0.8-5.8-3.8-9-7.3c-1.3,0.7-2.8,1.1-4.3,0.9c-0.3-0.1-0.6-0.1-0.8-0.1c-5-0.8-9.8-5.8-13.2-10.1c-0.6,0.2-1.1,0.2-1.7,0.4 C604.7,528.6,605.6,530.2,606.5,531.3z" fill="#9461C9"/>
    <path d="M624.2,535.4c3.2,3.5,6.5,6.5,9,7.3c-2.4,3.3-5.2,4.9-8.4,4.7c-7.6-0.5-15-11.3-17.7-15.3c-0.3-0.3-0.5-0.6-0.7-0.9 c-0.9-1.1-1.8-2.8-2.4-4.7c-0.2,0-0.4,0.1-0.6,0c0.5,1.5,1.1,2.9,1.8,4c0.2,0.3,0.3,0.5,0.5,0.8c0.1,0.2,0.2,0.3,0.4,0.5 s0.4,0.5,0.6,0.9c2.7,3.9,9.8,14.3,17.4,15.5c0.3,0.1,0.6,0.1,0.8,0.1c1.2,0.1,2.5-0.1,3.7-0.6c0.2-0.1,0.4-0.2,0.6-0.3 c1.8-0.9,3.4-2.3,4.8-4.6c0.2-0.2,0.3-0.4,0.4-0.6c-0.3,0-0.4-0.1-0.6-0.1c-2.5-0.4-5.7-3.4-9-7.1 C624.7,535.4,624.5,535.3,624.2,535.4z"/>
    <path d="M619.8,535.7c3.1,0.2,5.9-1.4,8.3-4.7c-2.7-0.8-6-4.1-9.4-7.9c-1.2-0.6-2.4-1.4-3.5-2.4 c-3.8,3.1-6.2,4.6-8.8,5.4C610,530.4,614.9,535.2,619.8,535.7z" fill="#9461C9"/>
    <path d="M618.8,523c3.4,3.7,6.7,7,9.4,7.9c-2.4,3.3-5.2,4.9-8.3,4.7c-4.9-0.4-9.8-5.1-13.3-9.5c-0.2,0.1-0.4,0.1-0.7,0.2 c3.4,4.3,8.2,9.2,13.2,10.1c0.3,0.1,0.6,0.1,0.8,0.1c1.5,0.1,3-0.2,4.3-0.9c0.2-0.1,0.4-0.2,0.6-0.3c1.5-0.9,2.9-2.3,4.2-4.3 c0.2-0.2,0.3-0.4,0.4-0.6c-0.3,0-0.4-0.1-0.6-0.1c-2.3-0.4-5.3-3.1-8.4-6.4C619.8,523.6,619.3,523.4,618.8,523z"/>
    <path d="M599.1,526.1c7-0.1,9.2-0.7,16-6.2c0.1,0,0.1-0.1,0.2-0.1c0.1,0.1,0.1,0.1,0.2,0.2c3.2,2.6,6.2,4.2,11,4 c-4.2-3.3-8.9-9.6-13.4-15.8c-3.8-5.2-7.2-9.9-9.8-12.1c-7.4-6.4-16.9-6.3-22-2.2c-2.3,1.9-3.8,5.4-4.3,9.3c1.7,0,2.8,0.3,3.8,1.2 c0.9,0.8,1.6,2.3,1.9,4.3c0.1,0.8,0.1,1.7-0.1,2.6c1.5,0.8,2.6,2.2,3,3.9c0.6,2.3,0,4.7-1.6,6.5C588,524.4,593.3,526.1,599.1,526.1 z M596.1,510.3c-1,0.5-2.4,0.7-3.7,0.5c-0.1,0-0.1,0-0.2,0c-3.3-0.7-5.8-3.3-5.8-6.4c0-1.5,0.7-2.9,2.1-3.5c1-0.6,2.5-0.8,3.8-0.4 c3.3,0.7,5.7,3.3,5.7,6.4C598.1,508.3,597.3,509.7,596.1,510.3z" fill="#9461C9"/>
    <path d="M577,503.1c0.5-3.9,2-7.4,4.3-9.3c4.9-4,14.6-4.2,22,2.2c2.6,2.2,6.1,7.1,9.8,12.1c4.5,6.1,9.2,12.5,13.4,15.8 c-4.9,0.2-7.9-1.4-11-4c-0.1-0.1-0.1-0.1-0.2-0.2c-0.1,0-0.1,0.1-0.2,0.1c-6.8,5.4-9,6.2-16,6.2c-5.8,0.1-11.1-1.5-15-4.5 c-0.2,0.2-0.3,0.4-0.5,0.6c0.3,0.3,0.7,0.5,1,0.7c2.2,1.5,4.7,2.6,7.4,3.2c0.5,0.1,1.1,0.3,1.6,0.4c0.1,0,0.1,0,0.2,0 c1.5,0.3,3.1,0.4,4.6,0.4c0.2,0,0.4,0.1,0.6,0c0.3,0.1,0.6,0,0.9,0c1.2-0.1,2.3-0.1,3.4-0.2c0.2,0,0.4-0.1,0.6,0 c0.6,0,1.2-0.2,1.7-0.4c0.2-0.1,0.5-0.1,0.7-0.2c2.6-0.8,5-2.3,8.8-5.4c1.1,0.9,2.2,1.7,3.5,2.4c0.5,0.2,1,0.4,1.5,0.7 c2.1,0.8,4.4,1.1,7.4,0.9c0.5,0,0.7-0.1,1.1-0.1c-0.5-0.3-0.7-0.4-1.1-0.7c-4.4-2.9-9.4-9.8-14.2-16.4c-3.8-5.2-7.3-10-10-12.3 c-7.9-6.9-17.6-6.4-22.6-2.3l0,0c-2.4,2.1-4,5.9-4.5,10.1C576.6,503.1,576.8,503,577,503.1z"/>
    <path d="M593.1,504.2c0.4,0.5,0.6,0.9,0.6,1.6c0,1.1-0.7,1.7-1.6,1.5c-0.9-0.2-1.7-1.1-1.5-2.2 c0-0.5,0.2-0.9,0.5-1.3c-0.4,0.1-0.8,0.1-1.2,0.3c-0.5,0.3-0.7,0.6-0.7,0.8c0,0.5,1.2,2,3.2,2.3c0.9,0.2,1.9,0,2.6-0.2 c0.5-0.3,0.7-0.6,0.7-0.8C595.5,505.8,594.6,504.7,593.1,504.2z" fill="#D41C30"/>
    <path d="M592.4,500.5c-1.4-0.3-2.8-0.1-3.8,0.4c-1.2,0.7-2,2-2.1,3.5c0,3,2.5,5.6,5.8,6.4c0.1,0,0.1,0,0.2,0 c1.3,0.2,2.7,0.1,3.7-0.5c1.2-0.7,1.9-2,2-3.5C598.2,503.8,595.7,501.2,592.4,500.5z M594.9,507.1c-0.6,0.4-1.5,0.6-2.6,0.2 c-2-0.3-3.2-1.8-3.2-2.3c0-0.3,0.2-0.5,0.7-0.8c0.3-0.2,0.7-0.3,1.2-0.3c0.3-0.2,0.7-0.4,1.1-0.4c0.4,0.1,0.7,0.3,0.9,0.6 c1.5,0.5,2.5,1.7,2.5,2.2C595.5,506.5,595.3,506.9,594.9,507.1z"/>
    <path d="M578,516c-1.6,0.6-3,1.8-4.1,3.6c0.3,0.5,0.8,1,1.5,1.2c1.2,0.5,2.6,0.6,3.9,0.1c2.7-0.9,4.3-3.3,3.9-4.8 c-0.2-0.7-0.8-1.4-1.8-1.7c-0.1,0-0.2,0-0.3-0.1C580.3,514.9,579.4,515.7,578,516z" fill="#FCD116"/>
    <path d="M584.1,521.6c1.6-1.8,2.2-4.2,1.6-6.5c-0.4-1.7-1.6-3.1-3-3.9c-0.2,1.1-0.7,2.1-1.4,2.9c0.1,0,0.2,0,0.3,0.1 c0.9,0.4,1.6,1.1,1.8,1.7c0.4,1.6-1.2,3.9-3.9,4.8c-1.4,0.5-2.8,0.3-3.9-0.1c-0.6-0.2-1.2-0.7-1.5-1.2c-0.5,0.7-1,1.8-1.5,2.6 c0.6,0.8,1.5,1.3,2.4,1.8c0.5,0.2,1.1,0.3,1.6,0.4c1.3,0.2,2.5,0.2,3.8-0.3c0.8-0.3,1.6-0.7,2.3-1.1c0.4-0.2,0.7-0.6,1-0.9 C583.7,521.9,583.9,521.8,584.1,521.6z"/>
    <path d="M590.5,505.1c0,1.1,0.7,2,1.5,2.2c0.9,0.2,1.6-0.5,1.6-1.5c0-0.5-0.2-1.1-0.6-1.6c-0.3-0.3-0.6-0.5-0.9-0.6 c-0.4-0.1-0.8,0-1.1,0.4C590.7,504.1,590.5,504.5,590.5,505.1z"/>
    <path d="M577.8,515c3.1-0.7,4.5-3.8,4.2-6.3l0,0c-0.2-1.7-0.7-2.9-1.5-3.5c-0.5-0.5-1.2-0.7-1.9-0.9 c-1.1-0.2-2.5,0-4.3,0.4c-2.4,0.3-4.1,1.5-5.1,3.8c-1.5,3.6-1.1,9.3,1.2,17.1C571.9,519.6,574.4,516.2,577.8,515z M578.6,509.1 c0,0.8-0.4,1.6-1.1,1.5c-0.6-0.1-1.2-0.9-1.3-1.7c0-0.8,0.4-1.6,1.1-1.5C577.9,507.5,578.6,508.1,578.6,509.1z" fill="#FCD116"/>
    <path d="M573.9,519.4c1.2-1.7,2.5-2.9,4.1-3.6c1.4-0.3,2.4-1,3.2-1.9c0.7-0.8,1.2-1.9,1.4-2.9c0.2-0.8,0.2-1.7,0.1-2.6 c-0.3-2-0.9-3.5-1.9-4.3c-0.9-0.8-2.1-1.2-3.8-1.2c-0.2,0-0.4,0.1-0.6,0c-0.7,0-1.5,0.2-2.3,0.4c-2.5,0.3-4.5,1.7-5.5,4.3 c-1.7,4-1.2,10.5,1.7,19.2c0.2,0.5,0.3,0.8,0.4,1.3c0.1-0.5,0.2-0.8,0.3-1.3c0.4-1.9,1-3.5,1.6-5 C572.8,521.2,573.4,520.3,573.9,519.4z M570.4,525.4c-2.3-7.8-2.7-13.5-1.2-17.1c1-2.2,2.7-3.5,5.1-3.8c1.8-0.4,3.2-0.6,4.3-0.4 c0.8,0.1,1.5,0.4,1.9,0.9c0.7,0.7,1.3,1.9,1.5,3.5l0,0c0.4,2.5-1,5.6-4.2,6.3C574.4,516.2,571.9,519.6,570.4,525.4z"/>
    <path d="M576.3,508.8c0,0.8,0.6,1.6,1.3,1.7c0.6,0.1,1.2-0.6,1.1-1.5c0-0.8-0.6-1.6-1.3-1.7C576.7,507.3,576.1,508,576.3,508.8z"/>
  </g>
  <g opacity="0.3">
    <path d="M259.7,185c127.9,0,223.7,15.9,325.2,32.8C688.7,235,796.1,252.9,941,252.9c44.4,0,90-6.1,135.4-18.1 c30.5-8.1,61.9-19,93.6-32.7v757.2c-36.8,17.4-73.5,30.8-109.2,40c-40.5,10.4-81.1,15.7-120.8,15.7c-140.1,0-243.6-16.8-343.7-33 c-98.9-16.1-201.3-32.7-336.6-32.7c-45.7,0-91.1,5.3-135.1,15.8C93,972.6,61.3,982.9,30,996V241.6c37.1-17.6,73.8-31.2,109.2-40.5 C179.9,190.4,220.4,185,259.7,185 M1200,155c-89.2,45-174.4,67.9-259,67.9c-280.7,0-416.7-67.9-681.3-67.9 C175.2,155,89.1,178,0,222.9c0,242.4,0,577.6,0,820c89-44.9,175.2-63.6,259.7-63.6c268.9,0,398.5,65.7,680.3,65.7 c84.6,0,170.8-22,260-66.9C1200,735.7,1200,397.4,1200,155L1200,155z" fill="#212121"/>
  </g>
</svg>