<svg viewBox="0 0 1200 1200" xmlns="http://www.w3.org/2000/svg" xmlns:xlink="http://www.w3.org/1999/xlink">
  <g>
    <path d="M0,222.9c0,273.3,0,546.6,0,820c94.7-47,193.3-66,298.7-63.2c101.1,2.7,201.8,15.9,301.3,33.5 c99.3,17.6,200.3,29.1,301.2,31.5c106.2,2.5,203.4-19.8,298.8-66.6c0-274.4,0-548.8,0-823.2c-96.6,47-191.3,70.2-298.8,67.5 c-100.9-2.5-201.9-14.5-301.2-32.5c-99.4-18-200.2-31.6-301.2-34.5C192,152.4,95.9,176.5,0,222.9z M892.2,329.2 c37.2,55.2,72.8,111.5,108.4,167.7c-5,4.4-7.5,6.5-12.6,10.8l0,0l0,0c-5.1,4.3-7.7,6.4-12.8,10.5c-36.7-57.7-74.2-114.9-113-171.2 C872.2,341.2,882.2,335.3,892.2,329.2z M831,364.2L831,364.2c6.3-3.3,9.4-5,15.6-8.4c18.7,26.9,37.3,53.9,55.6,81.1 c2.9-1.8,4.4-2.8,7.2-4.6c3.7,5.5,5.6,8.3,9.2,13.8c-2.8,1.9-4.3,2.8-7.1,4.7c17.1,25.8,33.9,51.9,50.6,78 c-8.9,6.7-17.8,13.3-26.9,19.8c-17.4-26.7-35.1-53.2-53-79.6c-6,3.6-9,5.3-15.1,8.8c-1.9-2.8-2.9-4.3-4.9-7.1l0,0l0,0 c-1.9-2.8-2.9-4.3-4.9-7.1c6.2-3.4,9.2-5.2,15.3-8.7c-19-27.5-38.1-54.9-57.2-82.2C821.6,369.3,824.7,367.6,831,364.2L831,364.2z M384.7,315.4c-42.2,53.7-82.8,108.6-119.8,166c-9-6.1-18-12.3-27.1-18.3c35.5-58.5,74.1-114.6,115.5-169.2 C363.8,301,374.3,308.2,384.7,315.4z M322.7,273.2L322.7,273.2c6,4.1,9.1,6.1,15.2,10.3c-40.8,55.1-78.4,111.9-113.3,170.9 c-8.5-5.6-17.1-11.2-25.8-16.6c33.6-60,69.4-118.5,108.9-174.8C313.7,267,316.7,269,322.7,273.2L322.7,273.2z M265,233.7 c9.4,6.5,18.8,12.9,28.2,19.3c-38.8,57.1-73.9,116.4-106.9,176.9c-8.2-5.1-16.5-10.1-24.9-14.9C193.6,353.3,227.6,292.5,265,233.7z M264.9,900.6c-34.8-54-69.3-108.3-104.1-162.3c5-4.7,7.5-7,12.5-11.6l0,0l0,0c5-4.6,7.5-6.8,12.6-11.3 c35.6,55.5,70.8,111.3,107.2,166.3C283.6,887.9,274.3,894.2,264.9,900.6z M322.6,863.7L322.6,863.7c-6,3.5-9,5.3-14.9,8.9 c-17.6-26.3-35-52.8-52.1-79.4c-2.7,2-4.1,3-6.8,5c-1.7-2.7-2.6-4-4.3-6.7l0,0l0,0c-1.7-2.7-2.6-4-4.3-6.7c2.7-2,4-3,6.7-5 c-16.1-25.1-32.2-50.3-48.3-75.5c8.6-7.2,17.2-14.4,25.9-21.4c16.5,25.8,33.1,51.7,49.8,77.4c2.8-1.9,4.2-2.9,7-4.8 c3.7,5.5,5.5,8.3,9.2,13.9c-2.9,1.9-4.3,2.8-7.2,4.7c17.9,27.1,36.1,54,54.4,80.8C331.7,858.3,328.7,860.1,322.6,863.7L322.6,863.7 z M353.1,846.4c-39.4-57.3-77.7-115.2-115.3-173.7c5.3-4,8-6,13.4-10l0,0l0,0c5.4-3.9,8.2-5.9,13.7-9.7 c38.6,59.7,78.9,118.3,119.4,176.7C373.9,835.2,363.4,840.7,353.1,846.4z M479.7,754.1c-91.3-66-140.4-197.6-63.3-292.9 c77-95.4,212.5-78.9,303.1-12.8c90,65.7,140.9,196.1,63.8,291.9C706,836.4,570.4,820.1,479.7,754.1z M1005.2,878.8 c-3.3,5.9-4.9,8.8-8.2,14.7c-5.1-3.2-7.7-4.8-12.9-8.2c-15.9,27.3-32.2,54.3-49.2,81c-9.4-6.4-18.7-12.9-28.1-19.3 c17.7-25.9,34.6-52.3,51.1-79c-5.4-3.5-8-5.4-13.5-9c-16.8,26.5-34.2,52.6-52.2,78.2c-10-6.8-20.1-13.5-30.2-20.3 c18.7-25.3,37-50.9,54.6-76.9c-5.7-3.8-8.6-5.8-14.4-9.7c-18,25.8-36.6,51.2-55.6,76.3c-10.5-7-21-14.1-31.4-21.2 c19.4-24.8,38.6-49.8,57.3-75.2c-6.1-4-9.1-6.1-15.3-10.2c2-2.6,2.9-4,4.9-6.6l0,0l0,0c1.9-2.6,2.9-4,4.9-6.6c6,4.2,9,6.2,15,10.2 c18.3-25.5,36-51.4,53-77.7c5.5,3.7,8.2,5.6,13.6,9.2l0,0l0,0c5.4,3.6,8.1,5.4,13.4,8.9c-16.3,26.8-33.1,53.2-50.7,79.3 c5.7,3.9,8.6,5.8,14.2,9.6c17.2-26.4,33.7-53.1,49.7-80.2c5.2,3.4,7.8,5.1,13,8.4l0,0l0,0c5.2,3.3,7.7,4.9,12.8,8.1 c-15.5,27.8-31.4,55.2-48,82.3c5.4,3.6,8.1,5.4,13.3,8.8c16.3-27.5,32.1-55.3,47.3-83.3c5,3.1,7.5,4.6,12.5,7.5l0,0l0,0 c5,2.9,7.5,4.4,12.4,7.2c-14.9,28.7-30.2,57.2-46.1,85.4C997.6,873.9,1000.1,875.5,1005.2,878.8z M1013,485.9 c-15.7-24.7-31.2-49.4-46.9-74.1c-2.6,2.1-3.9,3.1-6.6,5.1c-1.7-2.7-2.5-4-4.2-6.7l0,0l0,0c-1.7-2.7-2.5-4-4.2-6.7c2.7-2,4-3,6.7-5 c-16.8-26.3-33.7-52.4-50.9-78.4c9.5-6.2,18.9-12.4,28.2-18.8c16.4,25.4,32.6,50.9,48.7,76.5c2.5-2.1,3.8-3.2,6.3-5.4 c1.6,2.6,2.4,3.9,4,6.4l0,0l0,0c1.6,2.6,2.4,3.9,4,6.4c-2.5,2.2-3.8,3.3-6.3,5.5c15.1,24,30.3,48.1,45.7,72 C1029.4,470.6,1021.2,478.3,1013,485.9z" fill="#FFFFFF"/>
    <line fill="none" x1="322.7" x2="322.7" y1="273.2" y2="273.2"/>
    <path d="M161.4,415c32.3-61.8,66.3-122.5,103.6-181.4c9.4,6.4,18.8,12.9,28.2,19.3c-38.8,57.1-73.9,116.4-107,176.9 C178.1,424.8,169.8,419.9,161.4,415z"/>
    <path d="M237.9,463.1c35.5-58.5,74.1-114.6,115.5-169.2c10.5,7.1,20.9,14.3,31.4,21.5C342.6,369.1,302,424,265,481.4 C256,475.2,247,469.1,237.9,463.1z"/>
    <path d="M198.9,437.7c8.7,5.5,17.3,11,25.8,16.6c34.8-59,72.4-115.9,113.3-170.9c-6.1-4.1-9.2-6.2-15.2-10.3 c-6-4.1-9-6.2-14.9-10.2C268.3,319.2,232.5,377.7,198.9,437.7z"/>
    <line fill="none" x1="988.2" x2="988.2" y1="754.6" y2="754.6"/>
    <line fill="none" x1="948.7" x2="948.7" y1="728.5" y2="728.5"/>
    <line fill="none" x1="1026.1" x2="1026.1" y1="778.1" y2="778.1"/>
    <path d="M906.8,947.1c17.7-25.9,34.6-52.3,51-79.1c8.7,5.8,17.5,11.6,26.4,17.3c-15.8,27.3-32.2,54.4-49.2,81 C925.6,959.9,916.2,953.5,906.8,947.1z"/>
    <path d="M1026.1,778.1c-5-2.9-7.5-4.4-12.5-7.5c-15.3,28.1-31,55.9-47.3,83.3c8.6,5.7,17.3,11.4,26.1,16.9 c15.9-28.2,31.2-56.7,46.1-85.4C1033.6,782.6,1031.1,781.1,1026.1,778.1z"/>
    <path d="M953,845.1c16.6-27.1,32.5-54.5,48-82.3c-5.1-3.2-7.6-4.9-12.8-8.2s-7.7-5-13-8.4c-16,27.1-32.5,53.8-49.7,80.2 C934.7,832.7,943.8,838.9,953,845.1z"/>
    <path d="M911.4,816.8c17.6-26,34.4-52.4,50.7-79.3c-5.3-3.6-8-5.4-13.4-9.1c-5.4-3.6-8.1-5.5-13.6-9.2c-17,26.3-34.8,52.2-53,77.7 C891.8,803.6,901.6,810.2,911.4,816.8z"/>
    <path d="M815.1,885.5c19.4-24.8,38.5-49.9,57.2-75.2c9.9,6.7,19.9,13.3,29.8,20c-18,25.8-36.6,51.2-55.6,76.4 C836.1,899.6,825.6,892.6,815.1,885.5z"/>
    <path d="M862,917c18.7-25.3,36.9-50.9,54.6-77c9.3,6.3,18.5,12.6,27.8,18.9c-16.8,26.5-34.2,52.6-52.2,78.2 C882.1,930.5,872,923.7,862,917z"/>
    <path d="M719.5,448.4c-90.6-66.3-225.4-82.8-303.1,12.8c-37.8,47.8-14.6,113.9,31.8,146.3 c42.4,29.6,117,42.5,151.8-6c34.3-47.7,108.4-37.6,151.3-6.9c45,32.2,71.5,98.2,32,145.7C861.9,644.4,809.8,514,719.5,448.4z" fill="#CD2E3A"/>
    <path d="M751.3,594.6c-42.9-30.7-117-40.8-151.3,6.9c-34.9,48.4-109.5,35.5-151.8,6 c-46.3-32.3-69.6-98.5-31.8-146.3c-76.9,96.1-27.8,227,63.3,292.9c90.6,65.6,226.6,83.9,303.6-13.8 C822.9,692.8,796.3,626.8,751.3,594.6z" fill="#0047A0"/>
    <line fill="none" x1="173.3" x2="173.3" y1="726.7" y2="726.7"/>
    <line fill="none" x1="251.3" x2="251.3" y1="662.6" y2="662.6"/>
    <line fill="none" x1="322.6" x2="322.6" y1="863.7" y2="863.7"/>
    <path d="M173.3,726.7c-5,4.6-7.5,7-12.5,11.7c34.8,54,69.2,108.3,104.1,162.3c9.3-6.4,18.7-12.7,28.2-18.8 c-36.4-55-71.6-110.8-107.2-166.4C180.9,719.8,178.4,722.1,173.3,726.7z"/>
    <path d="M198.6,704.3c8.6-7.2,17.2-14.3,25.9-21.3c16.5,25.9,33.1,51.7,49.8,77.4c-9.2,6.4-18.4,12.8-27.4,19.4 C230.8,754.6,214.7,729.5,198.6,704.3z"/>
    <path d="M251.3,662.6c-5.4,4-8.1,6-13.4,10.1c37.5,58.5,75.9,116.4,115.3,173.7c10.3-5.7,20.8-11.3,31.2-16.8 c-40.5-58.5-80.8-117-119.4-176.7C259.4,656.7,256.7,658.7,251.3,662.6z"/>
    <path d="M283.4,774.2c-9.4,6.3-18.6,12.6-27.8,19.1c17.2,26.6,34.5,53.1,52.1,79.4c5.9-3.6,8.9-5.5,14.9-9s9-5.3,15.1-8.7 C319.4,828.2,301.3,801.3,283.4,774.2z"/>
    <line fill="none" x1="987.9" x2="987.9" y1="507.9" y2="507.9"/>
    <line fill="none" x1="831" x2="831" y1="364.2" y2="364.2"/>
    <path d="M907,320.1c9.5-6.1,18.9-12.4,28.2-18.8c16.4,25.4,32.5,51,48.6,76.5c-8.6,7-17.2,13.9-26,20.6 C941.1,372.2,924.2,346.1,907,320.1z"/>
    <path d="M872.4,454.7c10-5.9,19.9-11.9,29.8-18c-18.3-27.2-36.9-54.2-55.6-81.1c-6.2,3.5-9.3,5.2-15.6,8.6c-6.3,3.3-9.4,5-15.8,8.3 C834.3,399.8,853.5,427.2,872.4,454.7z"/>
    <path d="M882.2,468.8c9.9-6,19.7-12,29.4-18.2c17.1,25.9,33.9,51.9,50.5,78c-8.9,6.7-17.8,13.3-26.9,19.7 C917.8,521.7,900.1,495.2,882.2,468.8z"/>
    <path d="M987.9,507.9c5.1-4.3,7.6-6.5,12.6-10.9c-35.6-56.3-71.1-112.5-108.4-167.7c-10,6.1-20,12-30.2,17.8 c38.9,56.4,76.3,113.6,113,171.4C980.3,514.2,982.8,512.1,987.9,507.9z"/>
    <path d="M966.3,411.8c8.7-6.9,17.2-13.9,25.7-21c15.1,24,30.3,48.1,45.6,72c-8.1,7.8-16.2,15.5-24.4,23.1 C997.5,461.2,981.9,436.5,966.3,411.8z"/>
    <line fill="none" x1="862" x2="862" y1="793.5" y2="793.5"/>
    <path d="M966.3,853.9c-5.3-3.5-8-5.2-13.3-8.8c-9.2-6.2-18.3-12.4-27.4-18.7c-5.6-3.8-8.4-5.7-14.2-9.6 c-9.8-6.6-19.6-13.2-29.4-19.8c-6-4-9-6-15.1-10.1c-1.9,2.6-2.9,4-4.9,6.6c-1.9,2.6-2.9,4-4.9,6.6c6.2,4.1,9.2,6.1,15.3,10.2 c9.9,6.7,19.9,13.3,29.8,20c5.8,3.9,8.7,5.9,14.4,9.7c9.3,6.3,18.5,12.7,27.8,19c5.4,3.7,8.1,5.5,13.5,9 c8.7,5.8,17.5,11.6,26.4,17.3c5.2,3.3,7.8,4.9,12.9,8.2c3.2-5.8,4.9-8.8,8.1-14.7c-5.1-3.1-7.6-4.7-12.8-8 C983.7,865.3,975,859.7,966.3,853.9z" fill="#FFFFFF"/>
    <line fill="none" x1="955.3" x2="955.3" y1="410.2" y2="410.2"/>
    <line fill="none" x1="244.5" x2="244.5" y1="791.4" y2="791.4"/>
    <line fill="none" x1="862" x2="862" y1="470.5" y2="470.5"/>
    <line fill="none" x1="994.1" x2="994.1" y1="379" y2="379"/>
    <path d="M283.4,774.2c2.8-1.9,4.3-2.8,7.1-4.7c-3.7-5.6-5.5-8.3-9.1-13.9c-2.8,1.9-4.2,2.8-7,4.8 c-9.2,6.4-18.4,12.8-27.4,19.4c-2.7,2-4,3-6.7,5c1.7,2.6,2.6,3.9,4.3,6.6c1.7,2.7,2.6,4,4.3,6.7c2.7-1.9,4.1-2.9,6.8-4.8 C264.8,786.8,274,780.5,283.4,774.2z" fill="#FFFFFF"/>
    <path d="M991.8,390.8c2.5-2.2,3.8-3.3,6.3-5.5c-1.6-2.5-2.4-3.8-4-6.3c-1.6-2.6-2.4-3.9-4-6.4 c-2.5,2.1-3.8,3.2-6.3,5.2c-8.6,7-17.2,13.9-26,20.7c-2.6,2-4,3-6.7,5c1.7,2.7,2.5,4,4.2,6.7c1.7,2.6,2.5,3.9,4.2,6.5 c2.6-2,4-3,6.6-5C974.8,404.9,983.3,397.9,991.8,390.8z" fill="#FFFFFF"/>
    <path d="M872.4,454.7c-6.1,3.5-9.1,5.2-15.3,8.7c2,2.8,2.9,4.3,4.9,7.1s2.9,4.3,4.9,7.1c6.1-3.5,9.1-5.2,15.1-8.8 c9.9-6,19.7-12,29.4-18.2c2.9-1.8,4.3-2.7,7.1-4.6c-3.6-5.5-5.4-8.3-9.1-13.8c-2.9,1.8-4.3,2.7-7.2,4.5 C892.3,442.8,882.4,448.8,872.4,454.7z" fill="#FFFFFF"/>
  </g>
  <g opacity="0.3">
    <path d="M259.7,185c127.9,0,223.7,15.9,325.2,32.8C688.7,235,796.1,252.9,941,252.9c44.4,0,90-6.1,135.4-18.1 c30.5-8.1,61.9-19,93.6-32.7v757.2c-36.8,17.4-73.5,30.8-109.2,40c-40.5,10.4-81.1,15.7-120.8,15.7c-140.1,0-243.6-16.8-343.7-33 c-98.9-16.1-201.3-32.7-336.6-32.7c-45.7,0-91.1,5.3-135.1,15.8C93,972.6,61.3,982.9,30,996V241.6c37.1-17.6,73.8-31.2,109.2-40.5 C179.9,190.4,220.4,185,259.7,185 M1200,155c-89.2,45-174.4,67.9-259,67.9c-280.7,0-416.7-67.9-681.3-67.9 C175.2,155,89.1,178,0,222.9c0,242.4,0,577.6,0,820c89-44.9,175.2-63.6,259.7-63.6c268.9,0,398.5,65.7,680.3,65.7 c84.6,0,170.8-22,260-66.9C1200,735.7,1200,397.4,1200,155L1200,155z" fill="#212121"/>
  </g>
</svg>