<svg viewBox="0 0 1200 1200" xmlns="http://www.w3.org/2000/svg" xmlns:xlink="http://www.w3.org/1999/xlink">
  <g>
    <path d="M600,189.6c-108.5-19-219.5-34.8-330-34.6c-95.9,0.2-184.1,26.5-270,67.9c0,136.7,0,273.3,0,410 c85.6-42.2,174.4-65.6,270-65.7c110.5-0.1,221.3,16,330,34.1C600,464.1,600,326.8,600,189.6z M331.8,446.1 c-20.6-15.2-41.2-30.5-61.8-45.8c-19.5,14.8-38.2,30.3-56.6,46.5c7-24.3,14-48.5,21.1-72.7c-17.9-13-36-25.8-54.3-38.2 c22.5-3.3,44.9-5.3,67.6-6.4c7.2-23.9,14.6-47.7,22.1-71.6c7.5,23.8,15.2,47.7,22.9,71.4c26.5,0.8,53,2.3,79.4,4.4 c-21.9,12.8-43.6,26.1-64.8,40.1C315.5,398,323.6,422.1,331.8,446.1z" fill="#FFFFFF"/>
    <path d="M600,1012.9c108.8,17.1,219.6,32.2,330,32c95.4-0.2,184.5-25.1,270-66.6c0-137.2,0-274.4,0-411.7 c-85.3,42.8-174.3,67-270,67.2c-110.4,0.2-221.3-14.5-330-32.5C600,738.5,600,875.7,600,1012.9z M930,736.6 c7.4,23.5,14.8,47,22.1,70.6c22.9-1,45.5-3.1,68.1-6.3c-17.7,17.1-35.9,33.6-54.7,49.6c7.1,23.1,14.2,46.2,21.3,69.4 c-19.2-13.5-38-27.3-56.8-41.3c-20.1,14.8-40.8,28.7-61.9,42.1c8.2-23.3,16.3-46.6,24.3-69.9c-21.6-15.8-43.3-31.6-64.9-47.5 c26.5,1.9,53,3.3,79.5,4.1C914.9,783.7,922.5,760.2,930,736.6z" fill="#FFFFFF"/>
    <path d="M270,258c-7.5,23.8-14.8,47.7-22.1,71.6c4.7-0.2,7-0.2,11.7-0.3C263.1,305.5,266.5,281.7,270,258z" fill="#005293"/>
    <path d="M265.2,329.1c3.8,0,5.7,0,9.6,0c7.1,0,10.7,0.1,18.1,0.3c-7.7-23.8-15.4-47.6-22.9-71.4 c-3.5,23.7-6.9,47.5-10.3,71.2C261.9,329.2,263,329.2,265.2,329.1z" fill="#005293"/>
    <path d="M274.8,329.1c0,6.2,0,9.2,0,15.4c0.3,0,0.5,0,0.8,0c0.6-1,1-1.5,1.6-2.5c0.4,0.8,0.6,1.2,1.1,1.9 c31.3-4.7,62.7-7.9,94.3-10.2c-26.6-2.1-53.1-3.6-79.7-4.4C285.6,329.2,281.9,329.2,274.8,329.1z" fill="#005293"/>
    <path d="M278.3,344c0.7,1.2,1,1.8,1.6,3c2.2,0.5,3.3,0.7,5.5,1.2c-1,1.3-1.5,2-2.5,3.3c6.2-1.9,9.4-2.8,15.8-4.6 c2.9,9,5.8,18,8.8,26.9c21.3-14,43.1-27.2,65.1-40C341.1,336.1,309.6,339.3,278.3,344z" fill="#005293"/>
    <path d="M274.8,344.5c0,0.4,0,0.7,0,1.1c0.3-0.4,0.5-0.7,0.8-1.1C275.3,344.5,275.1,344.5,274.8,344.5z" fill="#005293"/>
    <path d="M298.8,346.9c-6.4,1.8-9.6,2.7-15.8,4.6c-0.2,0.3-0.3,0.5-0.5,0.8c2,3.7,3,5.5,4.9,9.1 c1.1,0.5,1.7,0.7,2.8,1.2c-0.7,0.5-1,0.8-1.7,1.3c14.2,27.5,28.7,54.9,43.3,82.2c-8.1-24.1-16.2-48.2-24.3-72.3 C304.6,364.8,301.7,355.9,298.8,346.9z" fill="#005293"/>
    <path d="M275.6,344.5c-0.3,0.4-0.5,0.7-0.8,1.1c0,0.2,0,0.3,0,0.5c2,0.3,3.1,0.5,5.1,0.9c-0.7-1.2-1-1.8-1.6-3 c-0.4-0.8-0.7-1.2-1.1-1.9C276.6,343,276.3,343.5,275.6,344.5z" fill="#005293"/>
    <path d="M288.5,363.9c-2.4,2.5-3.6,3.7-6,6.2c4,5.6,6.1,8.3,10.2,13.9c-9.2,6.4-13.8,9.6-22.6,16.2 c20.5,15.4,41.2,30.6,61.8,45.8C317.2,418.8,302.7,391.4,288.5,363.9z" fill="#005293"/>
    <path d="M287.4,361.4c-2-3.7-3-5.5-4.9-9.1c-1.7,2.4-2.6,3.6-4.4,6C281.8,359.5,283.6,360.2,287.4,361.4z" fill="#005293"/>
    <path d="M292.6,384.1c-4.1-5.6-6.2-8.4-10.2-13.9c-3.1,3-4.6,4.6-7.6,7.6c0,1.2,0,1.8,0,3c-0.8-0.4-1.1-0.7-1.9-1.1 c-20.6,21.7-40.4,44.1-59.5,67.1c18.3-16.2,37.1-31.7,56.6-46.5C278.9,393.7,283.4,390.5,292.6,384.1z" fill="#005293"/>
    <path d="M278.1,358.3c-1.3,1.7-1.9,2.6-3.2,4.4c0,6,0,9.1,0,15.1c3-3.1,4.5-4.6,7.6-7.6c2.4-2.5,3.6-3.7,6-6.2 c0.7-0.5,1-0.8,1.7-1.3c-1.1-0.5-1.7-0.7-2.8-1.2C283.6,360.2,281.8,359.5,278.1,358.3z" fill="#005293"/>
    <path d="M272.9,379.7c-3-1.6-4.5-2.3-7.5-3.8c-3.8,5.6-5.7,8.5-9.5,14.2c-8.7-6.5-13-9.7-21.4-15.9 c-7.1,24.2-14.2,48.4-21.1,72.7C232.6,423.8,252.3,401.4,272.9,379.7z" fill="#005293"/>
    <path d="M274.8,362.7c1.3-1.8,1.9-2.6,3.2-4.4c1.7-2.4,2.6-3.6,4.4-6c0.2-0.3,0.3-0.5,0.5-0.8c1-1.3,1.5-2,2.5-3.3 c-2.2-0.5-3.3-0.7-5.5-1.2c-2.1-0.4-3.1-0.5-5.1-0.9C274.8,352.8,274.8,356.1,274.8,362.7z" fill="#005293"/>
    <path d="M256,390c3.8-5.7,5.7-8.5,9.5-14.2c-28.1-14.2-56.4-27.7-85.4-39.9c18.4,12.4,36.5,25.2,54.5,38.2 C243,380.3,247.3,383.5,256,390z" fill="#005293"/>
    <path d="M265.5,375.9c3,1.5,4.5,2.3,7.5,3.8c0.8,0.4,1.1,0.7,1.9,1.1c0-1.2,0-1.8,0-3c0-6,0-9.1,0-15.1 c0-6.6,0-9.9,0-16.5c0-0.2,0-0.3,0-0.5c0-0.4,0-0.7,0-1.1c0-6.2,0-9.2,0-15.4c-3.9,0-5.8,0-9.6,0c-2.2,0-3.3,0-5.5,0.1 c-4.7,0.1-7.1,0.1-11.7,0.3c-22.8,1-45.3,3.1-67.9,6.4C209.1,348.1,237.4,361.6,265.5,375.9z" fill="#005293"/>
    <path d="M0,632.9c85.6-42.2,174.4-65.6,270-65.7c110.5-0.1,221.3,16,330,34.1c0,137.2,0,274.4,0,411.7 c-108.9-17.2-219.5-33.6-330-33.6c-95.3,0-184.9,20.5-270,63.5C0,906.2,0,769.5,0,632.9z" fill="#005293"/>
    <path d="M600,189.6c108.6,19,219.6,33.3,330,33.1c96-0.2,184.9-23.7,270-67.7c0,137.2,0,274.4,0,411.7 c-85.3,42.8-174.3,67-270,67.2c-110.4,0.2-221.3-14.5-330-32.5C600,464.1,600,326.8,600,189.6z" fill="#D21034"/>
    <path d="M930,736.6c-7.5,23.6-15.1,47.2-22.9,70.7c5,0.1,7.5,0.2,12.4,0.2C923,783.8,926.5,760.2,930,736.6z" fill="#D21034"/>
    <path d="M925.2,807.5c3.9,0,5.8,0,9.6,0c7,0,10.5-0.1,17.3-0.4c-7.3-23.5-14.7-47.1-22.1-70.6 c-3.5,23.6-7,47.3-10.5,70.9C921.8,807.5,922.9,807.5,925.2,807.5z" fill="#D21034"/>
    <path d="M934.8,807.5c0,6.1,0,9.2,0,15.3c0.3,0,0.5,0,0.8,0c0.6-1,1-1.5,1.6-2.5c0.4,0.8,0.6,1.1,1.1,1.9 c28-5.4,55.2-12.5,82.3-21.5c-22.8,3.3-45.4,5.3-68.4,6.4C945.2,807.4,941.8,807.5,934.8,807.5z" fill="#D21034"/>
    <path d="M938.2,822.3c0.6,1.2,1,1.8,1.6,3c2.1,0.4,3.2,0.6,5.3,1c-0.9,1.3-1.4,2-2.4,3.3c6-2.1,9-3.2,14.8-5.4 c3.2,10.5,4.8,15.7,8,26.2c18.9-15.9,37.2-32.5,55-49.6C993.4,809.7,966.2,816.8,938.2,822.3z" fill="#D21034"/>
    <path d="M934.8,822.8c0,0.4,0,0.7,0,1.1c0.3-0.4,0.5-0.7,0.8-1.1C935.3,822.8,935.1,822.8,934.8,822.8z" fill="#D21034"/>
    <path d="M957.5,824.2c-5.9,2.2-8.9,3.3-14.8,5.4c-0.2,0.3-0.3,0.5-0.5,0.8c1.9,3.6,2.8,5.4,4.7,8.9 c1,0.4,1.6,0.6,2.6,1c-0.6,0.6-0.9,0.8-1.6,1.4c13,26,25.9,52,38.8,78c-7.1-23.1-14.1-46.3-21.3-69.4 C962.3,839.9,960.7,834.7,957.5,824.2z" fill="#D21034"/>
    <path d="M938.2,822.3c-0.4-0.8-0.6-1.1-1.1-1.9c-0.6,1-1,1.5-1.6,2.5c-0.3,0.4-0.5,0.7-0.8,1.1c0,0.2,0,0.3,0,0.5 c2,0.3,3,0.5,5,0.8C939.2,824.1,938.9,823.5,938.2,822.3z" fill="#D21034"/>
    <path d="M947.9,841.8c-2.3,2.6-3.4,3.9-5.8,6.4c3.9,5.4,5.8,8.1,9.7,13.5c-8.6,6.9-13,10.2-21.8,16.8 c18.8,14,37.6,27.8,56.8,41.3C973.9,893.8,960.9,867.8,947.9,841.8z" fill="#D21034"/>
    <path d="M946.9,839.4c-1.9-3.6-2.8-5.4-4.7-8.9c-1.7,2.4-2.5,3.7-4.2,6.1C941.6,837.7,943.3,838.3,946.9,839.4z" fill="#D21034"/>
    <path d="M951.8,861.7c-3.8-5.4-5.8-8-9.7-13.5c-2.9,3.1-4.4,4.7-7.4,7.8c0,1.2,0,1.8,0,3c-0.7-0.4-1.1-0.7-1.9-1.1 c-20.9,21.7-42.5,42.5-64.8,62.7c21.1-13.4,41.7-27.3,61.9-42.1C938.9,871.9,943.2,868.6,951.8,861.7z" fill="#D21034"/>
    <path d="M932.9,857.9c-3-1.5-4.5-2.3-7.5-3.8c-3.9,5.6-5.8,8.4-9.8,13.9c-7.7-5.8-15.5-11.5-23.2-17.3 c-8,23.4-16.1,46.7-24.3,69.9C890.4,900.4,912.1,879.6,932.9,857.9z" fill="#D21034"/>
    <path d="M942.2,848.2c2.3-2.6,3.5-3.9,5.8-6.4c0.6-0.6,0.9-0.8,1.6-1.4c-1-0.4-1.6-0.6-2.6-1 c-3.6-1.1-5.3-1.7-8.9-2.8c-1.3,1.8-1.9,2.7-3.2,4.4c0,6,0,9,0,15.1C937.8,852.9,939.2,851.4,942.2,848.2z" fill="#D21034"/>
    <path d="M938,836.5c1.7-2.4,2.5-3.7,4.2-6.1c0.2-0.3,0.3-0.5,0.5-0.8c0.9-1.3,1.4-2,2.4-3.3c-2.1-0.4-3.1-0.6-5.3-1 c-2-0.3-3-0.5-5-0.8c0,6.6,0,9.9,0,16.4C936.1,839.2,936.7,838.3,938,836.5z" fill="#D21034"/>
    <path d="M915.7,868c4-5.5,5.9-8.3,9.8-13.9c-32.8-16.8-65.6-33.7-98.2-50.9c21.7,15.8,43.5,31.7,65.2,47.5 C900.2,856.4,907.9,862.2,915.7,868z" fill="#D21034"/>
    <path d="M925.4,854.1c3,1.5,4.5,2.3,7.5,3.8c0.7,0.4,1.1,0.7,1.9,1.1c0-1.2,0-1.8,0-3c0-6,0-9,0-15.1 c0-6.6,0-9.9,0-16.4c0-0.2,0-0.3,0-0.5c0-0.4,0-0.7,0-1.1c0-6.1,0-9.2,0-15.3c-3.8,0-5.7,0-9.6,0c-2.3,0-3.4,0-5.7,0 c-4.9-0.1-7.4-0.1-12.4-0.2c-26.7-0.7-53.2-2.2-79.8-4.1C859.9,820.4,892.7,837.3,925.4,854.1z" fill="#D21034"/>
  </g>
  <g opacity="0.3">
    <path d="M259.7,185c127.9,0,223.7,15.9,325.2,32.8C688.7,235,796.1,252.9,941,252.9c44.4,0,90-6.1,135.4-18.1 c30.5-8.1,61.9-19,93.6-32.7v757.2c-36.8,17.4-73.5,30.8-109.2,40c-40.5,10.4-81.1,15.7-120.8,15.7c-140.1,0-243.6-16.8-343.7-33 c-98.9-16.1-201.3-32.7-336.6-32.7c-45.7,0-91.1,5.3-135.1,15.8C93,972.6,61.3,982.9,30,996V241.6c37.1-17.6,73.8-31.2,109.2-40.5 C179.9,190.4,220.4,185,259.7,185 M1200,155c-89.2,45-174.4,67.9-259,67.9c-280.7,0-416.7-67.9-681.3-67.9 C175.2,155,89.1,178,0,222.9c0,242.4,0,577.6,0,820c89-44.9,175.2-63.6,259.7-63.6c268.9,0,398.5,65.7,680.3,65.7 c84.6,0,170.8-22,260-66.9C1200,735.7,1200,397.4,1200,155L1200,155z" fill="#212121"/>
  </g>
</svg>