<svg viewBox="0 0 1200 890" xmlns="http://www.w3.org/2000/svg" xmlns:xlink="http://www.w3.org/1999/xlink">
  <g>
    <path d="M0,67.6c95.4-48,192-70.1,298.7-67.2C399.8,3.2,500.6,16.8,600,34.9C699.3,53,800.3,65,901.2,67.5 C1008.2,70.2,1105,50.2,1200,0c0,45.7,0,91.4,0,137.1c-94.9,50.2-191.9,70.2-298.8,67.5c-101-2.5-201.9-14.7-301.2-32.6 c-99.4-17.9-200.2-31.6-301.3-34.4C192,134.6,95.3,156.3,0,204.4C0,158.8,0,113.2,0,67.6z"/>
    <path d="M600,574.5c-68.8-12.6-136.1-75.4-136.1-148.6c-83.7-9.9-169.3-18.4-253.5-11.3c-74.6,6.3-143.7,29.5-210.4,63 c0,45.5,0,91,0,136.5c95.5-47.8,192.3-66.8,298.7-63.9c101,2.7,201.8,16.2,301.3,33.3s200.3,29.9,301.3,32.5 c106.7,2.7,204.1-17.4,298.7-67.6c0-45.7,0-91.4,0-137c-66,35-135.4,58.8-210.1,65.4c-84.2,7.5-170.1-0.9-253.8-10.4 C736.4,536.9,667.6,586.9,600,574.5z"/>
    <path d="M0,204.5c95.3-48.1,192.1-69.8,298.7-66.8c101.1,2.8,201.8,16.5,301.3,34.4 c99.3,17.8,200.3,30.1,301.2,32.6c106.9,2.7,203.9-17.3,298.8-67.5c0,45.7,0,91.4,0,137.1c-94.8,50.2-191.9,70.2-298.8,67.5 c-101-2.5-201.9-15-301.2-32.5c-99.4-17.6-200.2-31.3-301.3-34.1c-106.6-3-203.4,18-298.7,66C0,295.5,0,250,0,204.5z" fill="#FCDC04"/>
    <path d="M0,477.5c66.6-33.4,135.8-56.6,210.4-63c84.3-7.2,169.9,1.3,253.5,11.3c-1-71.3,68.9-120,136.1-107.8 c68.9,12.6,135.9,75,136.1,148.2c83.7,9.5,169.6,17.9,253.8,10.4c74.7-6.7,144.1-30.4,210.1-65.4c0-45.7,0-91.4,0-137 c-94.8,50.2-191.9,70.2-298.8,67.5c-101-2.5-201.9-15-301.2-32.5c-99.4-17.6-200.2-31.3-301.3-34.1c-106.6-3-203.4,18-298.7,66 C0,386.6,0,432.1,0,477.5z" fill="#D90000"/>
    <path d="M0,614c95.5-47.8,192.3-66.8,298.7-63.9c101,2.7,201.8,16.2,301.3,33.3s200.3,29.9,301.3,32.5 c106.7,2.7,204.1-17.4,298.7-67.6c0,45.7,0,91.4,0,137.1c-94.5,50.3-192.1,70.4-298.7,67.6c-101-2.6-201.8-15.6-301.3-32.4 c-99.5-16.8-200.3-30.3-301.3-33c-106.3-3-203.2,15.3-298.7,63C0,705.1,0,659.5,0,614z" fill="#FCDC04"/>
    <path d="M0,750.6c95.5-47.7,192.4-66,298.7-63.1c101,2.7,201.7,16.2,301.3,33c99.5,16.8,200.3,29.8,301.3,32.4 c106.6,2.7,204.2-17.4,298.7-67.6c0,45.7,0,91.4,0,137.1c-94.4,50.3-192.2,70.4-298.7,67.6c-101-2.6-201.7-15.8-301.3-32.4 c-99.6-16.6-200.3-30.1-301.3-32.9c-106.3-2.9-203.3,15-298.7,62.8C0,841.9,0,796.2,0,750.6z" fill="#D90000"/>
    <path d="M600,574.5c67.6,12.4,136.4-37.6,136.1-108.2c-0.2-73.1-67.2-135.6-136.1-148.2 c-67.2-12.3-136.6,37-136.1,107.8C464.4,498.6,531.2,561.9,600,574.5z M551.2,419.3c0.2-15.1,11-29.8,22.6-38.7c0-0.2,0-0.2,0-0.4 c-2.2-1.3-3.5-2.9-3.9-4.8c-0.6-3.2,2.3-6.3,4.1-8.1c-5.5-0.1-15.4-0.4-18.6-2.1c-0.1,0-0.3,0-0.3,0.1c-0.1-0.1-0.1-0.2-0.1-0.3 c-0.1,0-0.3-0.2-0.3-0.2c-0.3-0.3-0.4-0.9-0.3-1.3c0.7-3,14.8-4.9,19.4-5.3c-1-2.2-2.9-8.3,2.8-14.2c-3.4-6.7-5.1-10.1-8.6-16.8 c0.2-0.1,0.3-0.2,0.4-0.3c3.9-3.2,10.3-4.2,18-2.8c0.1,0,0.2,0,0.3,0c10,1.7,20.8,6.6,26.8,15.2c0.1,0.2,0.3,0.2,0.1,0.4 c5.3,6.7,7.6,11.3,8.6,17.6c0.1,0.1,0.2,0.2,0.3,0.3c-0.1,0.1-0.2,0.2-0.3,0.4c-0.4,0.6-9.9,1-13.2,1c0.5,2.2,0.5,12.6-11,20.2 c-8,9.2-6.9,23.8-5,35c1.6-0.3,3.9,0.6,7,2.6c1.7,1.1,5,3.4,8.9,6c12.9,8.7,26.1,17.9,40.2,24.6c0.9,0.3,1.4,1,1.9,2.5 c17.7,8.9,36.9,24.3,35.1,46.4c-0.6,9.2-6,20-12.6,26.3c-6.5,6.7-14.1,10.7-19.9,10.3c-0.1,0-0.1,0-0.1,0c-0.1,0-0.1,0-0.1,0 c-0.2-0.1-0.3-0.1-0.6-0.2c0-0.5,0-0.7,0-1.2c0.1,0,0.2,0,0.3,0c1.2-1.7,2.8-3.7,4.8-5.9c-2.2,1-3.9,1.2-5.1,0.7 c-0.9-0.4-1.2-1-1.2-1.1s0-0.1,0-0.1c0-0.1,0-0.1,0-0.1c0-0.1,0.3-1.2,1.6-2.6c-8.8,2.5-9.5,1.5-10,1.1c-0.3-0.5-0.3-0.9-0.1-1.3 c0.1,0,0.1-0.1,0.1-0.1c1-0.8,1.5-1.2,2.6-2.1c-0.7-0.4-1.6-0.9-2.7-1.9c-0.3-0.3-0.5-0.5-0.9-0.8c0.3-0.1,0.5-0.2,0.9-0.3 c10-3.1,15.3-12.4,14.1-22.5c-0.6,3.7-2.6,8.1-8,10.6c-0.4-0.4-0.6-0.7-1-1.1c1.3-1.9,2.2-4.3,2-7.5c-0.1,0.5-0.3,0.9-0.4,0.9 c-0.2,0-0.3,0-0.6,0c-0.2-0.2-0.3-0.4-0.4-0.6c0-0.1-1.2-2.8-3.6-6.9c-0.3-0.1-0.5-0.2-0.9-0.3c-7.6-2.8-19.4-6.6-21.7-5.1 c-0.3,0.2-0.4,0.5-0.6,1c-0.4,3.9,5.8,15.2,8.4,18.9c1.4,2,1.6,4.6,0.4,6.9c-0.8,1.5-2.3,2.9-3.8,2.7c-4.5-1.3-16.1-4.4-19-3.5 c-3.6,10.6,0.2,25.4,1.4,36.2c3,0.4,15.5,2.6,20.1,10.3c0.3,0.5,0.4,0.8,0.7,1.3c-0.6-0.1-0.8-0.2-1.4-0.4 c-11.8-2.5-23-4.4-34.7-0.3c-7.6,2.7-11.5,6.4-11.6,6.5c-0.3,0.2-0.4,0.3-0.7,0.6c-0.2-0.4-0.3-0.5-0.6-0.9 c-2.8-5,3.5-10.8,6.1-12.8c-2.3-0.8-7.7-2.3-16.7-3.2c-0.4-0.1-0.6-0.1-1-0.2c0.1-0.4,0.2-0.5,0.3-0.9c7.2-7.1,22.4-4.1,31.2-1.4 c0.2-12.1-1.5-24.4-2.8-36.4c-2.2-0.4-10-1.6-20.2-4.6c-7.8-2.3-10.4,4.9-11.9,9c-0.7,2.1-1.1,3.1-2,3.2c-0.3,0.1-0.7-0.1-1-0.3 c-1.8-1.5-2.7-6.7-3.1-10.1c-1.1,2.3-2.7,6.6-2.3,12.4c0.1,0.7,0.1,1,0.1,1.7c-0.5-0.5-0.8-0.8-1.3-1.3c-2.4-2.4-3.2-6.7-3.4-9.6 c-1,2.2-2.6,5.2-4.2,8.5c-0.4,0.8-0.6,1.2-1,2c-0.2-1-0.3-1.4-0.4-2.4c-2.8-10.6,1.5-23.4,14.1-22.3c0.7,0,1.4,0,1.8-0.1 c11.8,0.1,24.1,2.8,35.4,6.1c1.2-3.2,0.1-15.2-0.4-20.2c-1.1-0.9-3.5-3.8-9.6-11.2c-9.3-4.6-16.6-12.2-23-20.2 c-0.4,0.6-0.7,0.7-0.8,0.8c-0.2,0.1-0.3,0.1-0.4,0.2c-0.2-0.2-0.3-0.3-0.4-0.5C556.4,441.8,551,430.9,551.2,419.3z" fill="#FFFFFF"/>
    <path d="M569.9,327.6c3.2,6.2,4.7,9.3,7.8,15.5c2.2-1.4,4.7-2.2,7.2-2.5c0.3-5.6,0.7-13,0.8-15.5 C578.9,324.2,573.4,324.9,569.9,327.6z" fill="#D90000"/>
    <path d="M577.7,343.1c-3.1-6.2-4.7-9.3-7.8-15.5c3.5-2.7,9.1-3.5,15.9-2.4c-0.1,2.3-0.5,9.9-0.8,15.5l0,0c0.4-6.7,0.7-10,1.1-16.7 c0.2,0,0.3,0.1,0.5,0.1l0,0c-0.1,0-0.1,0-0.1,0c-7.7-1.3-14-0.4-18,2.8c-0.2,0.1-0.3,0.2-0.4,0.3c3.4,6.7,5.2,10.1,8.6,16.8 c0.1,0,0.1-0.1,0.1-0.1C577,343.5,577.4,343.3,577.7,343.1z"/>
    <path d="M611.7,339.1c-6.1-7.4-15-12-24.3-13.7c-0.4,6-0.7,9-1.1,15c3.4-0.1,7,0.8,10.5,2.7c3,1.6,5.5,3.7,7.5,6.2 c0.4-0.6,0.9-1.2,1.3-1.7C608.1,344.2,609.3,342.5,611.7,339.1z" fill="#FCDC04"/>
    <path d="M586.2,324c-0.4,6.7-0.7,10-1.1,16.7c0.4-0.1,1-0.1,1.4,0c0.4-6,0.7-9,1.1-15c9.4,1.6,18.3,6.2,24.3,13.7 c0.3-0.3,0.4-0.5,0.7-0.8c0.2,0.3,0.3,0.5,0.5,0.8c0.1,0.3,0.4,0.5,0.5,0.8c0.1-0.3,0-0.4-0.1-0.4c-6-8.5-16.8-13.6-26.8-15.2l0,0 C586.5,324.2,586.4,324.1,586.2,324z"/>
    <path d="M604.3,349.4L604.3,349.4c0.5-0.7,0.8-1,1.3-1.7C605.2,348.2,604.7,348.8,604.3,349.4z"/>
    <path d="M612.5,340.4c-2.9,4.1-4.4,6.1-7.3,10.2c1.6,2.2,2.8,4.6,3.4,7c2.3,0,10-0.6,12.1-0.8 C619.8,351.2,617.6,346.8,612.5,340.4z" fill="#D90000"/>
    <path d="M612.4,338.2c-0.3,0.3-0.4,0.5-0.7,0.8c-2.5,3.4-3.7,5.1-6.1,8.5c-0.5,0.7-0.8,1.1-1.3,1.8c0.3,0.3,0.7,0.8,0.9,1.3 c2.9-4.1,4.4-6.1,7.3-10.2c5.1,6.4,7.1,10.7,8.1,16.5c-2.1,0.2-9.8,0.8-12.1,0.8c0.1,0.3,0.1,0.6,0.1,1l0,0c0,0,0,0.1,0.1,0.3 c3.3-0.1,12.8-0.5,13.2-1c0.1-0.1,0.2-0.2,0.3-0.4c-0.1-0.1-0.2-0.2-0.3-0.3c-0.8-6.3-3.1-10.9-8.6-17.6c-0.1-0.3-0.4-0.5-0.5-0.8 C612.7,338.6,612.6,338.5,612.4,338.2z"/>
    <path d="M588.6,433.6c-1.6-7.4-0.7-14.4,0.7-15.7c0.1-0.1,0.1-0.3,0.3-0.5c0.4-0.9,1-2,2-2.7l0,0c0-0.1,0-0.1,0-0.1 c-2.2-11.7-3.1-26.9,5.3-36.4c10.4-6.9,11-16,10.8-18.5c-0.1,0-0.1,0-0.1,0c-0.1-0.3-0.1-0.5-0.1-0.8c-0.8-5.5-5.1-11.1-11.2-14.3 c-6.5-3.5-13.4-3.5-18.5,0.3c-6.7,6.8-2.4,13.5-2.2,13.6c0.2,0.4,0.3,0.6,0.6,0.9c-0.4,0-0.6,0.1-1,0.1 c-8.7,0.9-18.1,2.6-19.1,4.3c4.6-0.2,16.9-1.1,18.8-0.2c-0.1,0.3-0.1,0.4-0.1,0.7l0,0l0,0c-0.1,0.3-0.1,0.4-0.1,0.7 c-1-0.4-8-0.4-15.1,0.1c3.9,0.6,10.5,0.9,16.7,1c0.1-0.1,0.2-0.1,0.3-0.2c0.1,0.1,0.1,0.1,0.1,0.2c0.1,0,0.1,0,0.1,0 c0.4,0,0.6,0,1,0c-0.1,0.4-0.1,0.6-0.1,1.1c0.6,0.6,1.3,1.2,1.9,1.8c1.9,1.7,4.2,3.6,4.2,6.6c0,0.1,0,0.2,0,0.3 c-0.1,0-0.1,0.1-0.1,0.1c-0.4,0.3-0.6,0.7-0.8,1.2c-0.7,1.5-1.5,2.6-6.9,3.3c-0.1,0.5-0.1,0.7-0.1,1.2c-0.1,0-0.1,0.1-0.1,0.1 c-11.8,8.9-21.5,22.9-22.3,37.9c-0.7,11.5,5.5,20.5,11.7,29.5c0.1-0.3,0.3-0.5,0.4-0.8c0.2-0.3,0.3-0.4,0.6-0.7 c0.3,0.4,0.4,0.6,0.7,0.9c6,7.9,13.8,16.4,22.9,20.6c0.1,0,0.1,0,0.1,0c0.1,0.1,0.1,0.1,0.1,0.2c8.1,9.8,9.5,11.1,9.7,11.3 c-0.1,0.1-0.2,0.2-0.3,0.4c0.2,0,0.3,0,0.5,0c0.1,0.2,0.2,0.4,0.3,0.6c-0.1,0-0.1,0.1-0.1,0.1c0.4,3.2,2,18.5,0,21.4 c-0.1,0.1-0.2,0.2-0.3,0.4c-0.2-0.1-0.3-0.1-0.5-0.2c-11-3.4-23.6-6.1-35.1-6.2c-0.6,0-1.3,0.1-2,0.1c-5.4,0.1-15.4,0.3-13.2,18.5 c2.5-5.1,4.5-9.2,4.5-9.2c0.6,0.2,0.9,0.3,1.4,0.5c0,0.1-0.3,6,1.7,9.9c0-8,3.6-12.7,3.7-12.9c0.5-0.6,0.7-1,1.1-1.6 c0.1,0.8,0.1,1.2,0.1,2.1c0.3,3.9,1.3,9.7,2.6,11.1c0.3-0.4,0.7-1.5,1-2.4c1.6-4.3,4.6-12.3,13.5-9.7c12.1,3.4,20.6,4.5,20.6,4.5 c0.3,0,0.4,0.1,0.7,0.1c0.1,0.3,0.1,0.4,0.1,0.7c1.4,12.5,3.7,25.8,2.7,38.3c-0.1,0.2-0.2,0.3-0.3,0.5c-0.2-0.1-0.3-0.1-0.5-0.2 c-8.8-3-21-4.8-29.6-0.4c2.1,0.2,3.9,0.5,5.6,0.8c7.8,1.3,11.3,2.9,11.6,2.9c0.5,0.2,0.7,0.3,1.2,0.5c-0.4,0.3-0.6,0.4-1,0.7 c-2.5,1.8-8.1,6.9-7.1,10.9c1.5-1.3,5.3-4.1,11.2-6c10.9-3.7,22.9-3.2,33.9-0.1c-5.4-6.8-18.2-8.3-18.3-8.3 c-0.3,0-0.4-0.1-0.7-0.1c-0.1-0.3-0.1-0.4-0.1-0.7c-1.4-10.7-5.5-27.8-0.7-38c3.8-1.1,19,3.2,19.7,3.5c0.6,0.1,1.7-0.7,2.4-2.1 c0.4-0.8,1.4-3.2-0.1-5.5c-2-2.7-9.3-15.1-8.7-19.9c0.1-0.8,0.4-1.4,1-1.9c3.1-1.8,15.8,2.4,20.9,4.4c-3.7-5.1-5.6-7.7-9.3-12.9 c-5.8-5.9-13.3-11.8-22.6-15.6C599.6,455.5,591.3,445,588.6,433.6z M602.4,362.5c-0.9,5.2-5.1,9.5-9.1,9.5c-0.1,0-0.2,0.1-0.3,0.1 c-0.8,0.1-1.6,0.1-2.3,0c-0.5-0.1-1.1-0.3-1.5-0.7c-0.7-0.5-1.2-1.5-1.5-2.9c-0.5-2.4,2.1-3.3,3.7-3.9c0.4-0.1,0.7-0.3,1-0.4 c5.8-2.1,4.3-13.4,4.3-13.5c-0.1-0.6-0.1-0.8-0.1-1.4c0.5,0.4,0.7,0.5,1.2,0.9C601.5,353.4,603.2,357.9,602.4,362.5z M581.2,357.9 c0-1.4,1.1-2.3,2.5-2s2.5,1.5,2.5,2.9s-1.1,2.3-2.5,2S581.2,359.3,581.2,357.9z M586.2,377c0.5,0.4,0.7,0.5,1.2,0.9 c-0.8,2.7-1.8,5.3-2.7,7.9c-6,11.7-4.3,21.1-0.7,33.1c0.3,0.5,0.4,0.7,0.7,1.2c-0.5-0.1-0.7-0.2-1.2-0.4c-1-0.3-3-0.8-4.2-1 c0.1,1,0.8,3,1.4,4.8c0.2,0.5,0.2,0.7,0.4,1.2c-2.3-0.7-3.4-1-5.7-1.7c1,2,1.5,3.1,2.5,5.1c-1.8-0.7-2.7-1.1-4.5-1.8 c0.4,1.4,1,3.6,1,4.8c0.1,0.2,0.1,0.3,0.1,0.4c-0.2,0.1-0.3,0.2-0.6,0.3c-0.7,0.3-2.4-1.2-3.5-2.4c0,0.1,0,0.1,0,0.1 c0,1-0.1,2.4-0.6,4.3c-0.2,0.7-0.3,1.1-0.4,1.9c-0.4-0.8-0.6-1.2-1-1.9C559.4,413.3,571.6,391.6,586.2,377z M595.2,467.6 c-0.2,0.1-0.3,0.1-0.5,0.2c-0.1-0.2-0.2-0.4-0.3-0.6c-2.6-5.8-0.9-12.1-0.4-14.5c0.2-0.7,0.2-1,0.4-1.7c0.3,0.6,0.5,0.8,0.8,1.4 c5,7.7,7.2,10.1,13.1,15.9c-0.3,0.4-0.5,0.6-0.8,1C605.1,467.3,602.2,465.8,595.2,467.6z M617.3,504.3c-0.1,1.6-1,2-1.4,2.1 c-1,0.2-2.3,0.1-3.6-0.1c-2.5-0.4-4.9-1.3-5.1-1.3c-0.2-0.1-0.3-0.1-0.5-0.2c-0.2-7.3-0.3-10.9-0.6-18.2c0.4,0.3,0.7,0.4,1.1,0.7 C614.1,492.5,617.6,500.6,617.3,504.3z"/>
    <path d="M564.4,450.9c0.2-0.1,0.3-0.1,0.4-0.2c0.1,0,0.3-0.1,0.9-0.8c6.2,8.1,13.7,15.6,23,20.2c6.3,7.5,8.6,10.3,9.6,11.2 c0.5,5,1.6,17,0.4,20.2c-11.3-3.3-23.6-6-35.4-6.1c-0.4,0.1-1.1,0.1-1.8,0.1c-12.6-1.1-16.9,11.7-14.1,22.3c0.2,1,0.3,1.4,0.4,2.4 c0.4-0.8,0.6-1.2,1-2c1.6-3.3,3.2-6.5,4.2-8.5c0.3,2.9,1,7.2,3.4,9.6c0.5,0.5,0.8,0.8,1.3,1.3c-0.1-0.7-0.1-1-0.1-1.7 c-0.4-5.8,1.1-10.1,2.3-12.4c0.4,3.2,1.3,8.6,3.1,10.1c0.3,0.3,0.7,0.4,1,0.3c0.9-0.1,1.3-1.3,2-3.2c1.6-4.3,4.1-11.3,11.9-9 c10.3,3,18.1,4.2,20.3,4.6c1.3,12,3,24.3,2.8,36.4c-8.8-2.6-24-5.7-31.2,1.4c-0.1,0.4-0.2,0.5-0.3,0.9c0.4,0.1,0.6,0.1,1,0.2 c9,0.9,14.3,2.5,16.7,3.2c-2.5,2-8.8,7.7-6.1,12.8c0.2,0.4,0.3,0.5,0.6,0.9c0.3-0.2,0.4-0.3,0.7-0.6c0,0,4-3.9,11.6-6.5 c11.7-4,22.9-2.1,34.6,0.3c0.6,0.1,0.8,0.2,1.4,0.4c-0.3-0.5-0.4-0.8-0.7-1.3c-4.5-7.7-17-10-20-10.3c-1.2-10.8-5-25.5-1.4-36.2 c2.9-0.9,14.6,2.2,19,3.5c1.4,0.2,3-1.2,3.8-2.7c1.3-2.3,1.1-4.9-0.4-6.9c-2.7-3.7-8.8-14.9-8.4-18.9c0-0.5,0.3-0.8,0.6-1 c2.4-1.4,14.2,2.3,21.7,5.1c0.3,0.1,0.5,0.2,0.9,0.3c-2.4-4.2-6.3-9.8-11.7-15.2c3.7,5.1,5.5,7.7,9.3,12.9 c-5.2-1.8-18-6.2-20.9-4.4c-0.6,0.3-1,0.9-1,1.9c-0.6,4.8,6.7,17.2,8.7,19.9c1.7,2.3,0.6,4.8,0.1,5.5c-0.7,1.4-1.8,2.2-2.4,2.1 c-0.7-0.3-16-4.6-19.7-3.5c-4.9,10-0.7,27.4,0.7,38c0.1,0.3,0.1,0.4,0.1,0.7c0.3,0,0.4,0.1,0.7,0.1c0.1,0,13,1.5,18.3,8.3 c-11-3.1-23-3.6-33.9,0.1c-6,2.1-9.7,4.8-11.2,6c-1-4,4.7-9.2,7.1-10.9c0.4-0.3,0.6-0.4,1-0.7c-0.5-0.2-0.7-0.3-1.2-0.5 c-0.1,0-3.8-1.6-11.6-2.9c-1.7-0.3-3.5-0.6-5.6-0.8c8.6-4.5,20.8-2.7,29.6,0.4c0.2,0.1,0.3,0.1,0.5,0.2c0.1-0.2,0.2-0.3,0.3-0.5 c1-12.6-1.3-25.8-2.7-38.3c-0.1-0.3-0.1-0.4-0.1-0.7c-0.3,0-0.4-0.1-0.7-0.1c-0.1,0-8.5-1.1-20.7-4.5c-8.9-2.6-11.9,5.4-13.5,9.7 c-0.3,0.9-0.7,2.1-1,2.4c-1.3-1.4-2.3-7.2-2.6-11.1c-0.1-0.8-0.1-1.2-0.1-2.1c-0.5,0.6-0.7,1-1.1,1.6c-0.1,0.3-3.6,4.9-3.7,12.9 c-2-3.9-1.7-9.7-1.7-9.9c-0.6-0.2-0.9-0.3-1.4-0.5c0,0-2,4.1-4.5,9.2c-2-18.3,7.9-18.4,13.2-18.5c0.7,0,1.4,0,2-0.1 c11.5,0.1,24.1,2.8,35.1,6.2c0.2,0.1,0.3,0.1,0.5,0.2c0.1-0.1,0.2-0.2,0.3-0.4c1.9-3.1,0.4-18.2,0-21.4c0.1,0,0.1-0.1,0.1-0.1 c-0.1-0.2-0.2-0.4-0.3-0.6c-0.2,0-0.3,0-0.5,0c0.1-0.1,0.2-0.2,0.3-0.4c-0.3-0.2-1.6-1.5-9.7-11.3c-0.1-0.1-0.1-0.1-0.1-0.2 c-0.1,0-0.1,0-0.1,0c-9.1-4.2-17.1-12.6-23-20.6c-0.3-0.4-0.4-0.6-0.7-0.9c-0.2,0.3-0.3,0.4-0.6,0.7c-0.1,0.3-0.3,0.5-0.4,0.8 c-6.2-8.9-12.5-18-11.7-29.5c0.7-15.2,10.6-28.8,22.3-37.9c0.1,0,0.1-0.1,0.1-0.1c0.1-0.5,0.1-0.7,0.1-1.2c-0.3,0.1-0.6,0-0.8,0.1 c-0.1,0-0.2,0-0.3,0c-0.1-0.1-0.2-0.1-0.3-0.2c0,0-0.1,0-0.1-0.2c0,0.2,0,0.2,0,0.4c-11.6,8.9-22.4,23.6-22.6,38.7 c-0.2,11.7,5.1,22.7,12.7,31.3C564,450.7,564.2,450.7,564.4,450.9z"/>
    <path d="M556,363.8c1-1.6,10.4-3.5,19.1-4.3c0.4,0,0.6-0.1,1-0.1c-0.2-0.4-0.3-0.6-0.6-0.9c0,0-4.3-6.8,2.2-13.6 c5.3-3.8,12-4,18.5-0.3c5.9,3.3,10.3,8.8,11.2,14.3c0.1,0.3,0.1,0.5,0.1,0.8c0.1,0,0.1,0,0.1,0c0.3,2.5-0.5,11.6-10.8,18.5 c-8.4,9.5-7.5,24.7-5.3,36.4c0,0.1,0,0.1,0,0.1l0,0c0.3-0.2,0.7-0.3,1.1-0.4c0,0,0.1,0,0.3,0c-1.9-11.2-3-25.9,5-35 c11.7-7.8,11.6-18.1,11-20.2c0-0.1-0.1-0.3-0.1-0.3l0,0c0-0.3-0.1-0.6-0.1-1c-0.5-2.4-1.8-4.8-3.4-7c-0.3-0.5-0.7-0.8-0.9-1.3 c0,0,0,0-0.1-0.2c-2-2.4-4.5-4.5-7.5-6.2c-3.5-1.9-7-2.8-10.5-2.7c-0.4,0.1-1,0.1-1.4,0l0,0c-2.6,0.2-5,1.1-7.2,2.5 c-0.3,0.2-0.6,0.5-0.8,0.5c-0.1,0-0.1,0.1-0.1,0.1c-5.7,5.9-3.8,12-2.8,14.2c-4.5,0.5-18.6,2.2-19.4,5.3c-0.1,0.4,0,0.8,0.3,1.3 c0.1,0.2,0.1,0.2,0.3,0.2c-0.1-0.5-0.2-0.7-0.3-1.1C555.1,363.7,555.5,363.7,556,363.8z"/>
    <path d="M575.6,366c0.1,0,0.2-0.1,0.3-0.1c-6.1,0.1-12.8-0.4-16.7-1c-1.3,0.1-2.4,0.2-3.7,0.2c3.2,1.7,13.1,2,18.6,2.1 C574.8,366.7,575.4,366.3,575.6,366z"/>
    <path d="M576.5,365.9C576.5,365.9,576.3,365.9,576.5,365.9c0.1,0.2,0.1,0.3,0.1,0.4c0.1,0.2,0.4,0.5,0.6,0.6 c0.1-0.4,0.1-0.6,0.1-1.1C577,365.9,576.8,365.9,576.5,365.9z"/>
    <path d="M569,429.4c0-0.5,0-1,0.1-1.2c-0.1-0.1-0.1-0.1-0.1-0.2c0.3-0.3,0.4-0.5,0.7-0.8c0.2,0.1,0.3,0.2,0.6,0.4 c-0.1,0.1-0.1,0.2-0.1,0.3c0.1,0,0.2-0.1,0.3-0.1c0.1,0.2,1.4,1.3,2.2,2c-0.3-1.6-1-3.7-1.3-4.6c-0.2-0.5-0.3-0.8-0.4-1.3 c1.6,0.6,2.4,1,3.9,1.6c-1-1.9-1.4-2.8-2.4-4.7c2.5,0.7,3.7,1,6.1,1.7c-1.5-4.5-1.3-5-1-5.2c0.1-0.1,0.1-0.2,0.1-0.3 c0.2,0,0.3,0,0.4,0.1c0.4,0.1,2.4,0.5,3.6,0.9c-3.2-11.9-4.6-21.4,1.2-33c0.6-1.6,1.2-3.2,1.8-4.8c-12.3,13.1-23.2,32.6-16.2,50.9 C568.9,430.6,569,430,569,429.4z" fill="#9CA69C"/>
    <path d="M569.5,435.9c0.2-0.7,0.3-1.1,0.4-1.9c0.4-1.7,0.4-3.2,0.6-4.3c0-0.1,0-0.1,0-0.1c1.1,1.1,2.9,2.7,3.5,2.4 c0.2-0.1,0.3-0.2,0.6-0.3c-0.1-0.2-0.1-0.3-0.1-0.4c0-1.4-0.6-3.5-1-4.8c1.8,0.7,2.7,1.1,4.5,1.8c-1-2-1.5-3.1-2.5-5.1 c2.3,0.7,3.4,1,5.7,1.7c-0.2-0.5-0.2-0.7-0.4-1.2c-0.6-1.7-1.2-3.8-1.4-4.8c1.1,0.2,3.3,0.8,4.2,1c0.5,0.1,0.7,0.2,1.2,0.4 c-0.3-0.5-0.4-0.7-0.7-1.2c-3.6-11.9-5.3-21.3,0.7-33.1c1-2.6,1.9-5.2,2.7-7.9c-0.5-0.4-0.7-0.5-1.2-0.9 c-14.7,14.3-26.8,36.4-17.7,56.8C568.9,434.8,569.1,435.2,569.5,435.9z M585.1,380.4c-0.6,1.6-1.1,3.2-1.8,4.8 c-5.8,11.6-4.5,21-1.2,33c-1.2-0.4-3.2-0.8-3.6-0.9c-0.2,0-0.3,0-0.4-0.1c-0.1,0.1-0.1,0.2-0.1,0.3c-0.1,0.3-0.6,0.7,1,5.2 c-2.4-0.7-3.7-1-6.1-1.7c1,1.9,1.4,2.8,2.4,4.7c-1.6-0.6-2.3-1-3.9-1.6c0.2,0.5,0.3,0.8,0.4,1.3c0.3,0.9,1,3,1.3,4.6 c-0.8-0.8-2.1-1.9-2.2-2c-0.1,0-0.2,0.1-0.3,0.1c0.1-0.1,0.1-0.2,0.1-0.3c-0.2-0.1-0.3-0.2-0.6-0.4c-0.3,0.3-0.4,0.5-0.7,0.8 c0.1,0.1,0.1,0.1,0.1,0.2c0,0.3-0.1,0.7-0.1,1.2s-0.1,1.2-0.1,1.9C561.9,413.1,572.7,393.6,585.1,380.4z" fill="#9CA69C"/>
    <path d="M598,352.4c0.3,3.3,0.2,11.3-5.1,13.2c-0.1,0.1-0.5,0.2-1,0.4c-1.6,0.5-3.3,1.2-3,2.5c0.3,1,0.5,1.6,1,2 c0.5,0.5,1.6,0.4,2.9,0.4c0.2,0,0.2,0,0.4-0.1c3.5-0.1,7.3-4,8.1-8.6C601.5,359.9,601.6,355.9,598,352.4z" fill="#9CA69C"/>
    <path d="M597.4,350.2c-0.5-0.4-0.7-0.5-1.2-0.9c0.1,0.6,0.1,0.8,0.1,1.4c0,0.1,1.5,11.4-4.3,13.5 c-0.1,0.1-0.5,0.2-1,0.4c-1.6,0.5-4.2,1.5-3.7,3.9c0.3,1.4,0.8,2.3,1.5,2.9c0.4,0.3,1,0.6,1.5,0.7c0.7,0.1,1.5,0.1,2.3,0 c0.1,0,0.2-0.1,0.3-0.1c3.9,0,8.2-4.4,9.2-9.5C603.2,357.9,601.5,353.4,597.4,350.2z M601.1,362c-0.8,4.7-4.6,8.6-8.1,8.6 c-0.2,0-0.2,0-0.4,0.1c-1.2,0.1-2.3,0.1-2.9-0.4c-0.4-0.3-0.7-0.9-1-2c-0.3-1.3,1.4-2,3-2.5c0.4-0.2,0.8-0.3,1-0.4 c5.2-2,5.3-9.8,5.1-13.2C601.6,355.9,601.5,359.9,601.1,362z" fill="#9CA69C"/>
    <path d="M583.7,355.9c1.4,0.2,2.5,1.5,2.5,2.9s-1.1,2.3-2.5,2c-1.4-0.2-2.5-1.5-2.5-2.9 C581.2,356.6,582.3,355.7,583.7,355.9z" fill="#FFFFFF"/>
    <path d="M574.4,378.9c5.7-0.5,6.3-1.7,6.7-2.7c0.1-0.4,0.4-0.9,0.8-1.4c-0.1-2.1-1.7-3.4-3.5-5 c-0.8-0.7-1.7-1.4-2.4-2.2c-1.8,1.3-5.2,4.8-4.6,7.7C571.6,376.7,572.6,377.9,574.4,378.9z" fill="#D90000"/>
    <path d="M574.4,380.4c0.1,0,0.2,0,0.3,0c0.3-0.1,0.6,0,0.8-0.1c5.4-0.6,6.4-1.8,6.9-3.3c0.1-0.4,0.4-0.8,0.8-1.2 c0.1,0,0.1-0.1,0.1-0.1c0-0.1,0-0.2,0-0.3c0-3-2.2-4.9-4.2-6.6c-0.7-0.7-1.4-1.2-1.9-1.8c-0.1-0.2-0.4-0.5-0.6-0.6 c-0.1-0.2-0.2-0.3-0.3-0.5c-0.1-0.1-0.1-0.1-0.1-0.2c-0.1,0.1-0.2,0.1-0.3,0.2c-0.1,0-0.2,0.1-0.3,0.1c-0.3,0.2-0.8,0.7-1.5,1.2 c-2,1.7-4.6,4.8-4.1,8.1c0.3,1.8,1.6,3.4,3.9,4.8c0,0,0.1,0,0.1,0.2C574.3,380.3,574.3,380.3,574.4,380.4z M576.1,367.6 c0.7,0.8,1.5,1.5,2.4,2.2c1.8,1.5,3.5,2.9,3.5,5c-0.6,0.5-0.7,1-0.8,1.4c-0.4,1-0.9,2-6.7,2.7c-1.8-1-2.8-2.3-2.9-3.5 C570.9,372.4,574.4,369,576.1,367.6z"/>
    <path d="M594.9,454.3c-0.5,2.6-1.4,7.4,0.3,11.8c4.1-0.9,6.9-0.8,9-0.2C600.7,462.3,598.5,459.7,594.9,454.3z" fill="#9CA69C"/>
    <path d="M608.3,468.2c-5.9-5.8-8.1-8.1-13.1-15.9c-0.3-0.6-0.5-0.8-0.8-1.4c-0.2,0.7-0.2,1-0.4,1.7 c-0.5,2.4-2.2,8.7,0.4,14.5c0.1,0.2,0.2,0.4,0.3,0.6c0.2-0.1,0.3-0.1,0.5-0.2c7-1.8,10.1-0.3,12.3,1.5 C607.8,468.6,607.9,468.5,608.3,468.2z M595.2,466.1c-1.8-4.4-0.9-9.2-0.3-11.8c3.7,5.4,5.8,8.2,9.3,11.7 C602.1,465.3,599.2,465.2,595.2,466.1z" fill="#9CA69C"/>
    <path d="M608,503.8c1.5,0.5,5.5,1.6,7.4,1.3c0.3-0.1,0.4-0.5,0.6-1.1c0.3-3.1-2.7-9.9-8.2-14.7 C607.8,495,607.9,497.9,608,503.8z" fill="#FFFFFF"/>
    <path d="M606.2,486.6c0.2,7.3,0.3,10.9,0.6,18.2c0.2,0.1,0.3,0.1,0.5,0.2c0.1,0,2.6,0.9,5.1,1.3 c1.4,0.2,2.6,0.3,3.6,0.1c0.4-0.1,1.2-0.5,1.4-2.1c0.3-3.7-3.2-11.8-10-16.9C606.9,487,606.7,486.9,606.2,486.6z M616,504 c0,0.7-0.3,1-0.6,1.1c-1.9,0.5-5.9-0.7-7.4-1.3c-0.2-5.8-0.2-8.8-0.4-14.6C613.3,494,616.2,500.8,616,504z" fill="#FFFFFF"/>
    <path d="M627.3,456.3c0,0,0.4,0.3,0.6,0.5c0.1-0.1,0.2-0.1,0.3-0.2C627.9,456.5,627.3,456.3,627.3,456.3z" fill="#9CA69C"/>
    <path d="M624,462.6c-1.8-1.5-2-1.6-1.8-1.9c0-0.2,0-0.2,0-0.4c0.1,0,0.1-0.1,0.1-0.1c-3.8-4.2-9.7-10.6-10.9-11.5 c-1.6-0.6-7.2-5.1-9-6.5c-2.4-1.7-4.6-7.1-3.2-10.3c0.7-1.8,2.9-4.1,10.4-0.9c14,9.2,16.6,10.2,16.6,10.2c5.7,2.7,8.6,4,14.4,6.7 c-0.6-0.6-1.1-1.4-2.1-2.4c-0.7-0.8-1-1.2-1.7-2.1c1,0.4,1.5,0.6,2.4,0.9c2.3,0.9,4.9,2,7.4,3.2c-13.2-7.1-25.8-15.5-38.3-23.9 c-3.9-2.6-7.2-4.8-8.9-6c-2-1.3-3.6-2.2-4.8-2.4c-0.4-0.1-0.9-0.2-1.2-0.1c-1.2,0.2-1.8,1.3-2.3,2.5c-0.1,0.3-0.1,0.4-0.3,0.6 c0,0.1,0,0.1,0,0.1c-0.1,0-0.1,0.1-0.1,0.1c-0.7,0.6-2.2,7.2-0.1,15.5c2.7,10.9,10.4,19.7,20.8,23.8c16.5,6.9,29.9,20.5,37.9,36.3 c0.1-0.5,0.1-1.3,0.3-2.1C644.1,480.1,633.7,471.3,624,462.6z" fill="#9CA69C"/>
    <path d="M648.7,448.8c-0.3,0-0.6-0.2-0.9-0.4c0.4,0.2,0.7,0.4,1.2,0.6C648.8,448.8,648.7,448.8,648.7,448.8z" fill="#9CA69C"/>
    <path d="M591.6,414.8c-1.1,0.6-1.6,1.8-2,2.7c-0.1,0.1-0.1,0.3-0.3,0.5c-1.4,1.3-2.3,8.2-0.7,15.7c2.6,11.4,10.8,21.9,22.1,26 c9.3,3.8,16.8,9.7,22.6,15.6c5.4,5.5,9.3,11.1,11.7,15.2s3.6,6.7,3.6,6.9c0.2,0.2,0.3,0.4,0.4,0.6c0.2,0,0.3,0,0.6,0 c0.1,0,0.3-0.4,0.4-0.9c-0.1-1.3-0.3-2.6-0.9-4.1c-0.1,0.8-0.1,1.5-0.3,2.1c-8-15.8-21.4-29.5-37.9-36.3 c-10.4-4.2-18.2-12.9-20.8-23.8c-2-8.3-0.5-14.9,0.1-15.5c0.1,0,0.1-0.1,0.1-0.1c0-0.1,0-0.1,0-0.1c0.1-0.1,0.1-0.4,0.3-0.6 c0.5-1.1,1.1-2.3,2.3-2.5c0.4-0.1,0.8,0,1.2,0.1c1.2,0.2,2.8,1.1,4.9,2.4c1.7,1.1,5,3.4,8.9,6c12.5,8.4,25,16.7,38.2,23.9 c0.4,0.2,0.9,0.4,1.3,0.6c0.3,0.2,0.6,0.2,0.9,0.4c0,0,0.1,0,0.3,0.2c0.6,0.4,1.3,0.6,1.9,1c-0.4-1.4-1.2-2.2-1.9-2.5 c-14.1-6.6-27.2-15.9-40.1-24.6c-3.9-2.6-7.2-4.8-8.9-6c-2.9-2-5.3-2.9-7-2.6c0,0-0.1,0-0.3,0 C592.3,414.5,591.9,414.5,591.6,414.8z"/>
    <path d="M654.6,462.5c-0.3,0.4-0.5,0.6-0.9,1c-4.9-3.1-12.3-7.5-16.7-10.1c-0.1,0.1-0.2,0.1-0.3,0.2 c3.1,3.8,5,7.4,5,7.5c0.3,0.6,0.4,0.9,0.7,1.5c-1.1-0.5-1.6-0.8-2.7-1.3c-3.4-1.5-6.5-2.8-9.8-4c-0.4,0.2-0.6,0.3-1,0.5 c2,1.8,3,3,3.4,4.3c0.2,0.5,0.3,0.7,0.4,1.2c-0.5-0.2-0.8-0.3-1.3-0.5c-3.2-1.2-6.3-1.9-7.7-2c0.3,0.2,0.4,0.3,0.7,0.7 c9.6,8.5,31.5,25.1,25.8,40.9c7.5-5.4,4.8-15.2,4.8-15.6c0.5-0.1,0.8-0.1,1.3-0.2c4.4,11.9,1.1,26.6-12.1,31.3c1.4,1,2.3,1,2.3,1 c1-0.1,1.5-0.1,2.5-0.2c-1.8,1.5-2.8,2.3-4.6,3.8c1.3-0.1,4.3-0.6,11.3-2.7c0.3,0.5,0.4,0.7,0.7,1.2c-2.9,1.8-3.8,3.3-3.9,3.9 c0.1,0,0.1,0,0.1,0c0.7,0.2,3,0.2,9.2-4c0.4,0.4,0.6,0.7,1,1.1c-3.8,3.3-6.8,6.5-8.6,9.1c16.2-2.8,28.3-19.9,29.8-35.5 c2.1-25.7-23.6-39.9-43.3-49.1c0.6,0.8,1.1,1.3,1.4,1.7l0,0c0.2,0.2,0.3,0.3,0.4,0.5l0,0c0,0,0,0.1,0.1,0.2 c0.3,0.2,0.5,0.2,0.9,0.4C648,454.7,650.2,457.3,654.6,462.5z" fill="#D90000"/>
    <path d="M648.9,448.9c-0.4-0.2-0.7-0.4-1.2-0.6c-0.4-0.2-0.9-0.4-1.3-0.6c-2.6-1.2-5.2-2.3-7.4-3.2c-1-0.4-1.5-0.6-2.4-0.9 c0.7,0.8,1,1.2,1.7,2.1c0.9,1.1,1.6,1.9,2.1,2.4c1,0.5,1.5,0.7,2.6,1.2c0,0,0-0.1-0.1-0.2l0,0c-0.2-0.2-0.3-0.3-0.4-0.5l0,0 c-0.3-0.5-0.9-1-1.4-1.7c19.7,9.2,45.4,23.4,43.4,49.1c-1.5,15.6-13.6,32.7-29.8,35.5c1.7-2.6,4.8-5.9,8.6-9.1 c-0.4-0.4-0.6-0.7-1-1.1c-6.1,4.2-8.6,4.1-9.2,4c-0.1,0-0.1,0-0.1,0c0.3-0.6,1.2-2.2,3.9-3.9c-0.3-0.5-0.4-0.7-0.7-1.2 c-7,2.1-10,2.6-11.3,2.7c1.8-1.5,2.8-2.3,4.6-3.8c-1,0.1-1.5,0.1-2.5,0.2c0,0-0.9,0-2.3-1c13.2-4.7,16.2-19.3,12.1-31.3 c-0.5,0.1-0.8,0.1-1.3,0.2c0.1,0.4,2.8,10.2-4.8,15.6c5.5-15.8-16.2-32.3-25.8-40.8c-0.3-0.2-0.6-0.5-0.7-0.7 c-0.6-0.1-0.8-0.1-0.8-0.1c-0.1,0-0.2,0-0.3,0c-0.1-0.1-0.2-0.2-0.3-0.3c-0.1-0.2-0.3-0.3-0.4-0.5c-0.1,0-0.1,0.1-0.1,0.1 c0,0.2,0,0.2,0,0.4c0,0.4,0,0.4,1.8,1.9c9.7,8.6,20.3,17.4,25.2,29.8c0.4,1.4,0.7,2.9,0.9,4.1c0.2,3-0.7,5.5-2,7.5 c0.4,0.4,0.6,0.7,1,1.1c5.3-2.6,7.4-6.8,8-10.6c1.2,10.1-4,19.4-14.1,22.5c-0.3,0.1-0.5,0.2-0.9,0.3c0.3,0.3,0.5,0.5,0.9,0.8 c1,1,2,1.5,2.7,1.9c-1,0.8-1.6,1.2-2.6,2.1c-0.1,0-0.1,0.1-0.1,0.1c-0.1,0.3-0.3,0.8,0.1,1.3s1.1,1.4,9.9-1.1 c-1.3,1.4-1.6,2.5-1.6,2.6s0,0.1,0,0.1v0.1c0,0.1,0.3,0.7,1.2,1.1c1.2,0.5,2.9,0.2,5.1-0.7c-2,2.2-3.6,4.1-4.8,5.9 c-0.1,0-0.2,0-0.3,0c0,0.5,0,0.7,0,1.2c0.2,0.1,0.3,0.1,0.6,0.2c0.1,0,0.1,0,0.1,0h0.1c5.8,0.3,13.4-3.6,19.9-10.3 c6.6-6.3,12-17.1,12.6-26.3c1.8-22.1-17.5-37.4-35.1-46.4C650.2,449.5,649.5,449.3,648.9,448.9z"/>
    <path d="M636.2,453c0.1,0.2,0.4,0.5,0.6,0.6c0.1-0.1,0.2-0.1,0.3-0.2C636.8,453.2,636.5,453,636.2,453z"/>
    <path d="M628.2,456.7c-0.1,0.1-0.2,0.1-0.3,0.2c0.4,0.3,0.8,0.7,1.1,1c0.4-0.2,0.6-0.3,1-0.5C629.4,457.2,628.9,457,628.2,456.7z"/>
    <path d="M651,460.2c-3.1-3.8-4.7-5.7-7.8-9.6c-7.1-3.3-10.6-4.9-17.6-8.2c-0.1,0-2.4-1-16.7-10.4 c-4.8-2.1-7.7-2-8.6,0.4c-1.1,2.7,0.9,7.4,2.7,8.6c3.5,3,7.7,6,8.6,6.3c0.1,0,0.2,0,0.3,0c1.8,1,9.9,10.1,11.6,12 c0.3,0,0.7,0.1,1.3,0.2c1.4,0.2,3.5,0.7,5.9,1.5c-0.8-1.2-2.7-2.6-5.8-5.3c-0.3-0.3-0.4-0.4-0.7-0.7c0.2-0.5,0.3-0.7,0.6-1.1 c5.5,1.7,10,3.7,15.3,5.9c-1.1-2-3.6-5.6-6.8-8.8c-0.7-0.7-1-1-1.7-1.6c0.9,0.2,1.4,0.3,2.3,0.5 C635.2,450.5,645.5,456.9,651,460.2z" fill="#FFFFFF"/>
    <path d="M609.3,431.1c-7.5-3.4-9.7-0.9-10.4,0.9c-1.3,3.2,0.8,8.6,3.2,10.3c1.8,1.4,7.3,5.9,9,6.5c1.4,0.9,7.1,7.3,10.9,11.5 c0.1,0.2,0.3,0.3,0.4,0.5c0.1,0.1,0.2,0.2,0.3,0.3c0.1,0,0.2,0,0.3,0c0,0,0.3,0,0.8,0.1c1.4,0.2,4.5,0.7,7.7,2 c0.5,0.2,0.8,0.3,1.3,0.5c-0.2-0.5-0.3-0.7-0.4-1.2c-0.4-1.3-1.4-2.4-3.4-4.3c-0.4-0.3-0.7-0.7-1.1-1c-0.1-0.2-0.4-0.3-0.6-0.5 c0.3,0,0.6,0.2,1,0.3c0.6,0.2,1.3,0.5,1.8,0.7c3.2,1.2,6.4,2.5,9.8,4c1.1,0.5,1.6,0.8,2.7,1.3c-0.3-0.6-0.4-0.9-0.7-1.5 c-0.1-0.2-1.9-3.7-5-7.5c-0.1-0.2-0.6-0.6-0.6-0.6s0.6,0.4,0.9,0.4c4.4,2.5,11.7,7.1,16.7,10.1c0.3-0.4,0.5-0.6,0.9-1 c-4.2-5.1-6.4-7.7-10.6-12.9c-0.3-0.2-0.5-0.2-0.9-0.4c-1-0.5-1.5-0.7-2.6-1.2c-5.8-2.7-8.7-4-14.4-6.7 C625.9,441.3,623.5,440.2,609.3,431.1z M633.4,450c-0.9-0.2-1.4-0.3-2.3-0.5c0.7,0.7,1,1,1.7,1.6c3.3,3.1,5.7,6.8,6.8,8.8 c-5.3-2.3-9.8-4.3-15.3-5.9c-0.2,0.5-0.3,0.7-0.6,1.1c0.3,0.3,0.4,0.4,0.7,0.7c3.1,2.7,4.9,4.2,5.8,5.3c-2.4-0.8-4.6-1.3-5.9-1.5 c-0.6-0.1-1-0.2-1.3-0.2c-1.7-1.9-9.8-11-11.6-12c-0.1,0-0.2,0-0.3,0c-0.8-0.1-5.1-3.3-8.6-6.3c-1.8-1.1-3.8-5.9-2.7-8.6 c0.9-2.3,3.9-2.5,8.6-0.4c14.2,9.3,16.6,10.2,16.7,10.4c6.9,3.3,10.5,4.9,17.6,8.2c3.1,3.8,4.7,5.7,7.8,9.6 C645.5,456.9,635.2,450.5,633.4,450z"/>
    <path d="M574.7,364.2L574.7,364.2L574.7,364.2z"/>
    <path d="M559.3,365c7.3-0.5,14.1-0.5,15.1-0.1c0.1-0.3,0.1-0.4,0.1-0.7l0,0c0.1-0.3,0.1-0.4,0.1-0.7 c-2-0.9-14.2-0.2-18.8,0.2c-0.4,0.1-0.9,0-1.1,0.1c0.1,0.5,0.2,0.7,0.3,1.1c0.1,0.1,0.1,0.2,0.1,0.3c0.1,0,0.3,0,0.3-0.1 C556.8,365.1,558.1,365.1,559.3,365z" fill="#FFFFFF"/>
  </g>
  <g opacity="0.3">
    <path d="M259.7,30c127.9,0,223.7,15.9,325.2,32.8C688.7,80,796.1,97.9,941,97.9c44.4,0,90-6.1,135.4-18.1 c30.5-8.1,61.9-19,93.6-32.7v757.2c-36.8,17.4-73.5,30.8-109.2,40C1020.3,854.7,979.7,860,940,860c-140.1,0-243.6-16.8-343.7-33 c-98.9-16.1-201.3-32.7-336.6-32.7c-45.7,0-91.1,5.3-135.1,15.8C93,817.6,61.3,827.9,30,841V86.6C67.1,69,103.8,55.4,139.2,46.1 C179.9,35.4,220.4,30,259.7,30 M1200,0c-89.2,45-174.4,67.9-259,67.9C660.3,67.9,524.3,0,259.7,0C175.2,0,89.1,23,0,67.9 c0,242.4,0,577.6,0,820c89-44.9,175.2-63.6,259.7-63.6c268.9,0,398.5,65.7,680.3,65.7c84.6,0,170.8-22,260-66.9 C1200,580.7,1200,242.4,1200,0L1200,0z" fill="#212121"/>
  </g>
</svg>