<svg viewBox="0 0 1200 890" xmlns="http://www.w3.org/2000/svg" xmlns:xlink="http://www.w3.org/1999/xlink">
  <g>
    <path d="M0,477.5c95.6-47.3,192.3-68.3,298.8-65.2c101,2.9,201.8,16.8,301.2,34.3s200.3,29.3,301.3,31.7 c106.4,2.5,204-17.7,298.7-67c0,137.1,0,274.2,0,411.3c-94.9,47.7-192.6,69.6-298.8,66.9C800.3,887,699.4,874.8,600,857.8 c-99.5-17-200.2-30.9-301.2-33.8C193.1,821,95.1,841,0,887.7C0,751.1,0,614.3,0,477.5z" fill="#FFFFFF"/>
    <path d="M0,67.2c96.1-48,191.5-69.8,298.8-66.8c101,2.9,201.8,16.8,301.2,34.9C699.3,53.4,800.3,64.7,901.3,67 C1008,69.4,1105.4,50.9,1200,0c0,137.1,0,274.2,0,411.3c-94.7,49.3-192.3,69.5-298.7,67c-101-2.4-201.9-14.2-301.3-31.7 s-200.2-31.5-301.2-34.3c-106.5-3-203.2,17.9-298.8,65.2C0,340.7,0,203.9,0,67.2z" fill="#CE1126"/>
  </g>
  <g opacity="0.3">
    <path d="M259.7,30c127.9,0,223.7,15.9,325.2,32.8C688.7,80,796.1,97.9,941,97.9c44.4,0,90-6.1,135.4-18.1 c30.5-8.1,61.9-19,93.6-32.7v757.2c-36.8,17.4-73.5,30.8-109.2,40C1020.3,854.7,979.7,860,940,860c-140.1,0-243.6-16.8-343.7-33 c-98.9-16.1-201.3-32.7-336.6-32.7c-45.7,0-91.1,5.3-135.1,15.8C93,817.6,61.3,827.9,30,841V86.6C67.1,69,103.8,55.4,139.2,46.1 C179.9,35.4,220.4,30,259.7,30 M1200,0c-89.2,45-174.4,67.9-259,67.9C660.3,67.9,524.3,0,259.7,0C175.2,0,89.1,23,0,67.9 c0,242.4,0,577.6,0,820c89-44.9,175.2-63.6,259.7-63.6c268.9,0,398.5,65.7,680.3,65.7c84.6,0,170.8-22,260-66.9 C1200,580.7,1200,242.4,1200,0L1200,0z" fill="#212121"/>
  </g>
</svg>