<svg viewBox="0 0 1200 890" xmlns="http://www.w3.org/2000/svg" xmlns:xlink="http://www.w3.org/1999/xlink">
  <g>
    <path d="M0,682.7c96-46.5,192.2-67.5,298.8-64.6c101.1,2.8,201.8,16.5,301.2,34.2c99.4,17.6,200.3,29.4,301.2,31.8 c107.4,2.5,202.8-17.9,298.8-66.8c0,68.6,0,137.2,0,205.8c-95.6,49.2-191.6,69.1-298.7,66.6c-100.9-2.4-201.9-14.2-301.3-31.5 c-99.5-17.3-200.2-31.2-301.2-34.1c-106-3-203.3,17.9-298.8,64C0,819.6,0,751.1,0,682.7z" fill="#CE1126"/>
    <path d="M0,478c96.4-47,191.5-68.7,298.7-65.8c101.1,2.7,201.9,16.3,301.3,34.3c99.3,17.9,200.3,29.8,301.2,32.2 c107.5,2.6,202.6-18.7,298.8-67.2c0,68.6,0,137.2,0,205.8c-95.9,48.9-191.4,69.3-298.8,66.8c-100.9-2.4-201.9-14.2-301.2-31.8 c-99.4-17.6-200.2-31.4-301.2-34.2C192.2,615.2,96,636.2,0,682.7C0,614.5,0,546.3,0,478z" fill="#003893"/>
    <path d="M0,68c48.9-24,98.9-46,152.4-57.2c48-10.1,97.3-11.5,146.2-10.2C399.8,3.1,500.7,16.4,600,35 c99.2,18.6,200.3,30.4,301.2,32.9c108,2.6,202.2-20,298.8-67.9c0,137.2,0,274.4,0,411.5c-96.1,48.5-191.2,69.8-298.8,67.2 c-100.9-2.4-201.9-14.3-301.2-32.2c-99.4-18-200.2-31.5-301.3-34.3C191.5,409.4,96.4,431,0,478C0,341.4,0,204.7,0,68z" fill="#FCD116"/>
  </g>
  <g opacity="0.3">
    <path d="M259.7,30c127.9,0,223.7,15.9,325.2,32.8C688.7,80,796.1,97.9,941,97.9c44.4,0,90-6.1,135.4-18.1 c30.5-8.1,61.9-19,93.6-32.7v757.2c-36.8,17.4-73.5,30.8-109.2,40C1020.3,854.7,979.7,860,940,860c-140.1,0-243.6-16.8-343.7-33 c-98.9-16.1-201.3-32.7-336.6-32.7c-45.7,0-91.1,5.3-135.1,15.8C93,817.6,61.3,827.9,30,841V86.6C67.1,69,103.8,55.4,139.2,46.1 C179.9,35.4,220.4,30,259.7,30 M1200,0c-89.2,45-174.4,67.9-259,67.9C660.3,67.9,524.3,0,259.7,0C175.2,0,89.1,23,0,67.9 c0,242.4,0,577.6,0,820c89-44.9,175.2-63.6,259.7-63.6c268.9,0,398.5,65.7,680.3,65.7c84.6,0,170.8-22,260-66.9 C1200,580.7,1200,242.4,1200,0L1200,0z" fill="#212121"/>
  </g>
</svg>