<svg viewBox="0 0 1200 1200" xmlns="http://www.w3.org/2000/svg" xmlns:xlink="http://www.w3.org/1999/xlink">
  <g>
    <path d="M0,222.9c0,91.2,0,182.4,0,273.5c79.2-40.6,159.6-64.3,248.8-66.5c102.5-2.6,205.7,10.3,306.6,26.5 c15.3-43,30.2-86.1,44.6-129.4c14.7,48.5,29.8,96.8,45.2,145c100.8,15.7,203.8,27.2,306,24.6c89.4-2.2,169.4-26.9,248.8-67.4 c0-91.5,0-182.9,0-274.4c-51.1,25.9-103.6,48.3-160.1,58.9c-45.7,8.6-92.3,9.7-138.6,8.6c-101-2.2-202-14.3-301.3-32.4 s-200.2-31.7-301.2-34.5C191.4,152.4,95.6,173.5,0,222.9z" fill="#FECB00"/>
    <path d="M791.4,901.1c-66.1-48.8-131.1-99-191.4-154.9c-63.2,35.6-128.1,67.9-191.5,103c16.5-44,33.2-88,49.9-131.9 c-82.5-9.5-166.6-16.9-249.7-10.6C134.3,712.2,66.3,735.8,0,769.3c0,91.2,0,182.4,0,273.5c49.6-24.8,100.5-45.7,155.3-55.4 c47.2-8.3,95.6-9.1,143.4-7.9c101,2.6,201.9,15.5,301.2,33.3s200.3,29.3,301.2,31.7c107.6,2.5,202.7-17.2,298.8-66.6 c0-91.5,0-182.9,0-274.4c-66.1,33.8-134.2,58.4-208.6,64.8c-82.8,7.1-167.2-0.4-249.6-9.2C758.2,806.6,774.8,853.9,791.4,901.1z" fill="#EA2839"/>
    <path d="M670.1,548.3c79.6,11.4,159.6,19.1,240,20.8c-62,42.9-127.9,79.3-194.3,114.7c8.7,25.2,17.4,50.3,26.1,75.4 c82.4,8.8,166.8,16.3,249.6,9.2c74.4-6.3,142.4-31,208.6-64.8c0-45.7,0-91.5,0-137.2s0-91.5,0-137.2 c-79.4,40.4-159.4,65.1-248.8,67.4c-102.2,2.5-205.2-8.9-306-24.6C653.4,497.5,661.7,522.9,670.1,548.3z" fill="#34B233"/>
    <path d="M484.7,648c-63.8-50-129.5-97.4-194.7-145.6c80.6,2,160.8,10.6,240.6,22.5c8.4-22.8,16.6-45.7,24.8-68.5 c-100.9-16.2-204.2-29-306.6-26.5c-89.2,2.3-169.6,26-248.8,66.5c0,45.5,0,91,0,136.4s0,91,0,136.4c66.3-33.5,134.3-57,208.7-62.7 c83.1-6.3,167.1,1.2,249.7,10.6C467.1,694.2,475.9,671.1,484.7,648z" fill="#34B233"/>
    <path d="M569.9,531.3c20.2,3.5,40.4,7.3,60.6,10.8c13.2,2.2,26.4,4.3,39.6,6.2c-8.4-25.4-16.6-50.8-24.8-76.2 c-15.5-48.2-30.6-96.5-45.2-145c-14.4,43.3-29.3,86.4-44.6,129.4c-8.2,22.9-16.5,45.7-24.8,68.5C543.7,526.9,556.8,529,569.9,531.3 z" fill="#FFFFFF"/>
    <path d="M569.8,718.7L569.8,718.7c-27.8-24.3-56.2-47.7-85.2-70.6c-8.7,23.1-17.5,46.2-26.3,69.2 c-16.7,44-33.3,87.9-49.9,131.9c63.4-35.1,128.3-67.4,191.5-103C590.1,736.9,580,727.7,569.8,718.7z" fill="#FFFFFF"/>
    <path d="M569.8,718.7c-17-14.9-34.3-29.5-51.8-43.9c27.5-14.5,54.9-29.2,82-44.4c-9.8-33.1-19.9-66.1-30.1-99.1 c-13.1-2.2-26.2-4.3-39.3-6.3c-79.7-11.9-160-20.5-240.6-22.5C355.1,550.6,420.9,598,484.7,648 C513.6,670.9,542.1,694.4,569.8,718.7z" fill="#FFFFFF"/>
    <path d="M569.9,531.3c10.3,33,20.3,66,30.1,99.1c27.3-15.2,54.9-29.9,82.5-44.6c11,32.7,22,65.4,33.2,98.1 C782.2,648.4,848.1,612,910,569.1c-80.4-1.8-160.4-9.5-240-20.8c-13.2-1.9-26.4-4-39.6-6.2C610.3,538.6,590.1,534.8,569.9,531.3z" fill="#FFFFFF"/>
    <path d="M682.5,585.8c-27.6,14.6-55.2,29.4-82.5,44.6c-27.1,15.3-54.5,29.9-82,44.4c17.5,14.4,34.8,29,51.8,43.9 c10.2,9,20.3,18.2,30.2,27.5c60.3,55.9,125.3,106.1,191.4,154.9c-16.6-47.3-33.1-94.6-49.6-141.9c-8.7-25.1-17.4-50.3-26.1-75.4 C704.5,651.2,693.5,618.5,682.5,585.8z" fill="#FFFFFF"/>
  </g>
  <g opacity="0.3">
    <path d="M259.7,185c127.9,0,223.7,15.9,325.2,32.8C688.7,235,796.1,252.9,941,252.9c44.4,0,90-6.1,135.4-18.1 c30.5-8.1,61.9-19,93.6-32.7v757.2c-36.8,17.4-73.5,30.8-109.2,40c-40.5,10.4-81.1,15.7-120.8,15.7c-140.1,0-243.6-16.8-343.7-33 c-98.9-16.1-201.3-32.7-336.6-32.7c-45.7,0-91.1,5.3-135.1,15.8C93,972.6,61.3,982.9,30,996V241.6c37.1-17.6,73.8-31.2,109.2-40.5 C179.9,190.4,220.4,185,259.7,185 M1200,155c-89.2,45-174.4,67.9-259,67.9c-280.7,0-416.7-67.9-681.3-67.9 C175.2,155,89.1,178,0,222.9c0,242.4,0,577.6,0,820c89-44.9,175.2-63.6,259.7-63.6c268.9,0,398.5,65.7,680.3,65.7 c84.6,0,170.8-22,260-66.9C1200,735.7,1200,397.4,1200,155L1200,155z" fill="#212121"/>
  </g>
</svg>