<svg viewBox="0 0 1200 890" xmlns="http://www.w3.org/2000/svg" xmlns:xlink="http://www.w3.org/1999/xlink">
  <g>
    <path d="M0,476.8C0,613.9,0,751,0,888.1c380.3-198.9,821,139.7,1200-65.1c0-137.1,0-274.2,0-411.4 c-60.6,32-123.8,55-192.1,63c-61.6,7.2-124.2,4.3-185.9-0.2c-149.2-11.1-295.3-44.1-444.1-57.6c-67.1-5.5-134.9-8.8-201.7,1.4 C114.3,427.8,56.2,449.5,0,476.8z" fill="#D52B1E"/>
    <path d="M378.1,5.7c148.8,13.7,295,46.2,444.2,57.4c61.6,4.6,124.2,7.6,185.8,0c68-8.4,131.3-31.6,192-62.8 c0,137.1,0,274.2,0,411.4c-60.6,32-123.8,55-192.1,63c-61.6,7.2-124.2,4.3-185.9-0.2c-149.2-11.1-295.3-44.1-444.1-57.6 C378,279.8,378,142.7,378.1,5.7z" fill="#FFFFFF"/>
    <path d="M378.1,5.7c-67.1-5.6-134.8-9.1-201.5,2C115,17.8,56.8,40,0,65.4c0,137.1,0,274.2,0,411.4 c56.2-27.2,114.3-49,176.2-58.4c66.8-10.2,134.6-6.9,201.7-1.4C378,279.8,378,142.7,378.1,5.7z M230,290.3 c-17.7-12.9-35.6-25.7-53.7-38.1c-17.6,17.8-34.7,36-51.4,54.6c6.5-25.2,13-50.4,19.6-75.6c-16.6-10.5-33.5-20.6-50.8-29.8 c20.8-6.5,41.6-12.1,62.9-16.6c6.6-24.8,13.2-49.6,19.9-74.4c6.7,22.7,13.4,45.4,20.1,68.1c22.9-2.5,45.6-3.8,68.6-4.2 c-19.3,14.9-37.9,30.4-56,46.7C216,244.1,223,267.2,230,290.3z" fill="#0039A6"/>
    <path d="M176.5,110.3c-6.7,24.8-13.3,49.7-19.9,74.5c4.2-0.8,6.3-1.2,10.6-2C170.3,158.6,173.4,134.5,176.5,110.3z " fill="#FFFFFF"/>
    <path d="M172.1,182c3.5-0.6,5.2-0.9,8.7-1.4c6.3-1,9.4-1.4,15.8-2.2c-6.7-22.7-13.4-45.4-20.1-68.1 c-3.1,24.2-6.2,48.3-9.3,72.5C169.2,182.5,170.1,182.3,172.1,182z" fill="#FFFFFF"/>
    <path d="M180.7,180.6c0,6.1,0,9.2,0,15.4c0.3-0.1,0.4-0.1,0.6-0.2c0.6-1,0.9-1.6,1.5-2.6c0.3,0.7,0.5,1.1,0.9,1.8 c26.8-8.7,53.8-15.5,81.4-20.7c-23,0.4-45.7,1.7-68.6,4.2C190.2,179.2,187,179.6,180.7,180.6z" fill="#FFFFFF"/>
    <path d="M183.7,194.9c0.5,1.2,0.8,1.8,1.4,2.9c1.9,0.1,2.9,0.1,4.9,0.2c-0.9,1.5-1.3,2.2-2.2,3.7 c5.4-2.8,8.1-4.1,13.6-6.8c3.1,10.4,4.6,15.6,7.7,26c18.1-16.3,36.7-31.8,56-46.7C237.5,179.4,210.5,186.2,183.7,194.9z" fill="#FFFFFF"/>
    <path d="M180.7,195.9c0,0.4,0,0.5,0,0.9c0.3-0.4,0.4-0.6,0.6-1.1C181.1,195.8,181,195.9,180.7,195.9z" fill="#FFFFFF"/>
    <path d="M93.7,201.4c17.3,9.2,34.2,19.3,50.8,29.8c1.3-5,1.9-7.5,3.2-12.5C129.9,212.2,112,206.5,93.7,201.4z" fill="#FFFFFF"/>
    <path d="M190,198.1c-2-0.1-2.9-0.1-4.9-0.2c0.8,1.7,1.2,2.5,2.1,4.2c0.3-0.1,0.4-0.2,0.6-0.3 C188.7,200.3,189.1,199.5,190,198.1z" fill="#FFFFFF"/>
    <path d="M151.9,202.9c5.5,1,8.3,1.5,13.8,2.6c1.7-4.1,2.5-6.2,4.2-10.3c2.6,3.7,3.9,5.5,6.4,9.2 c1.7-3,2.6-4.6,4.3-7.6c0-0.4,0-0.5,0-0.9c0-6.1,0-9.2,0-15.4c-3.5,0.5-5.2,0.8-8.7,1.4c-2,0.3-2.9,0.5-4.9,0.8 c-4.3,0.8-6.4,1.2-10.6,2c-21.3,4.5-42.1,10-62.9,16.6c18.3,5.1,36.2,10.8,54,17.3C149.4,212.3,150.2,209.2,151.9,202.9z" fill="#FFFFFF"/>
    <path d="M201.4,195c-5.5,2.6-8.2,4-13.6,6.8c-0.3,0.1-0.4,0.2-0.6,0.3c1.7,3.6,2.6,5.5,4.4,9.1 c1,0.2,1.5,0.4,2.5,0.6c-0.5,0.7-0.8,1-1.3,1.6c12.4,25.6,24.8,51.3,37.3,76.9c-7-23.1-14-46.2-20.9-69.3 C206,210.5,204.5,205.3,201.4,195z" fill="#FFFFFF"/>
    <path d="M183.7,194.9c-0.3-0.7-0.5-1.1-0.9-1.8c-0.6,1-0.9,1.6-1.5,2.6c-0.3,0.4-0.4,0.6-0.6,1.1 c-1.7,3-2.6,4.5-4.3,7.6c1.1,1.5,1.6,2.3,2.7,3.8c5,1.1,7.4,1.7,12.5,2.9c-1.8-3.7-2.6-5.5-4.4-9.1c-0.8-1.7-1.2-2.5-2.1-4.2 C184.5,196.7,184.3,196.1,183.7,194.9z" fill="#FFFFFF"/>
    <path d="M192.7,213.4c-2.1,2.7-3.2,4.1-5.3,6.8c3.5,5.1,5.3,7.6,8.9,12.7c-8,7.5-12,11.4-19.9,19.2 c18.1,12.4,35.9,25.2,53.7,38.1C217.5,264.7,205.1,239.1,192.7,213.4z" fill="#FFFFFF"/>
    <path d="M176.4,204.4c-2.6-3.7-3.9-5.5-6.4-9.2c-1.7,4.1-2.5,6.2-4.2,10.3c5.3,1,8,1.6,13.4,2.8 C178,206.7,177.5,206,176.4,204.4z" fill="#FFFFFF"/>
    <path d="M196.2,233c-3.6-5.1-5.3-7.7-8.9-12.7c-21.6,28.3-42.3,57.2-62.5,86.5c16.7-18.6,33.8-36.8,51.4-54.6 C184.2,244.3,188.2,240.5,196.2,233z" fill="#FFFFFF"/>
    <path d="M187.4,220.2c2.1-2.7,3.2-4.1,5.3-6.8c0.5-0.7,0.8-1,1.3-1.6c-1-0.2-1.5-0.4-2.5-0.6 c-5-1.2-7.5-1.8-12.5-2.9c-5.4-1.2-8.1-1.7-13.4-2.8c-5.5-1.1-8.3-1.7-13.8-2.6c-1.7,6.3-2.5,9.5-4.2,15.8 c-1.3,5-1.9,7.5-3.2,12.5c-6.6,25.2-13.1,50.3-19.6,75.5C145.1,277.4,165.8,248.5,187.4,220.2z" fill="#FFFFFF"/>
  </g>
  <g opacity="0.3">
    <path d="M259.7,30c127.9,0,223.7,15.9,325.2,32.8C688.7,80,796.1,97.9,941,97.9c44.4,0,90-6.1,135.4-18.1 c30.5-8.1,61.9-19,93.6-32.7v757.2c-36.8,17.4-73.5,30.8-109.2,40C1020.3,854.7,979.7,860,940,860c-140.1,0-243.6-16.8-343.7-33 c-98.9-16.1-201.3-32.7-336.6-32.7c-45.7,0-91.1,5.3-135.1,15.8C93,817.6,61.3,827.9,30,841V86.6C67.1,69,103.8,55.4,139.2,46.1 C179.9,35.4,220.4,30,259.7,30 M1200,0c-89.2,45-174.4,67.9-259,67.9C660.3,67.9,524.3,0,259.7,0C175.2,0,89.1,23,0,67.9 c0,242.4,0,577.6,0,820c89-44.9,175.2-63.6,259.7-63.6c268.9,0,398.5,65.7,680.3,65.7c84.6,0,170.8-22,260-66.9 C1200,580.7,1200,242.4,1200,0L1200,0z" fill="#212121"/>
  </g>
</svg>