<svg viewBox="0 0 1200 1200" xmlns="http://www.w3.org/2000/svg" xmlns:xlink="http://www.w3.org/1999/xlink">
  <g>
    <path d="M0,878.5c94.3-47.8,193.4-66.7,298.8-63.7c101,2.9,201.7,16.9,301.2,33.5s200.3,29.2,301.2,31.8 c106.9,2.8,203.5-17.5,298.8-66.6c0,54.9,0,109.7,0,164.6c-95.2,49.2-191.9,69.3-298.8,66.5c-100.9-2.7-201.7-15.4-301.2-31.6 c-200.3-32.8-411.6-65.1-600,29.9C0,988.1,0,933.3,0,878.5z" fill="#377E3F"/>
    <path d="M0,222.9c94.5-49.3,192.4-70.5,298.8-67.5c101,2.9,201.8,16.6,301.2,34.5c99.3,17.9,200.3,30.1,301.2,32.6 c107,2.8,203.4-18.5,298.8-67.5c0,54.9,0,109.7,0,164.6c-95.3,49.1-191.9,70.2-298.8,67.4c-100.9-2.6-201.8-15-301.2-32.6 S399.8,323,298.8,320.1c-106.1-3-204.4,17.9-298.8,67C0,332.4,0,277.6,0,222.9z" fill="#377E3F"/>
    <path d="M0,387.2c94.3-49.1,192.7-70,298.8-67c101,2.9,201.8,16.7,301.2,34.3c99.3,17.6,200.3,29.9,301.2,32.6 c106.9,2.8,203.5-18.4,298.8-67.4c0,27.4,0,54.9,0,82.3c-95.3,49.1-191.9,70.1-298.8,67.3c-100.9-2.6-201.8-15-301.2-32.4 s-200.2-31.3-301.2-34.2c-106-3-204.4,17.7-298.8,66.5C0,441.8,0,414.5,0,387.2z" fill="#FFFFFF"/>
    <path d="M0,796.6c94.4-48,193.3-67.2,298.8-64.2c101,2.9,201.7,16.9,301.2,33.6c99.5,16.7,200.3,29.3,301.2,31.9 c106.9,2.8,203.5-17.6,298.8-66.8c0,27.4,0,54.9,0,82.3c-95.3,49.2-191.9,69.4-298.8,66.6c-100.9-2.6-201.7-15.2-301.2-31.8 c-99.6-16.6-200.2-30.6-301.2-33.5c-105.3-3-204.4,15.9-298.8,63.7C0,851.2,0,823.9,0,796.6z" fill="#FFFFFF"/>
    <path d="M0,796.6c94.4-48,193.3-67.2,298.8-64.2c101,2.9,201.7,16.9,301.2,33.6c99.5,16.7,200.3,29.3,301.2,31.9 c106.9,2.8,203.5-17.6,298.8-66.8c0-109.7,0-219.5,0-329.2c-95.3,49.1-191.9,70.1-298.8,67.3c-100.9-2.6-201.8-15-301.2-32.4 s-200.2-31.3-301.2-34.2c-106-3-204.4,17.7-298.8,66.5C0,578.3,0,687.4,0,796.6z M563.2,560.1c12.6-35.7,24.9-71.5,36.8-107.5 c11.7,40.1,23.9,80,36.4,119.8c43.3,6.7,86.6,12.4,130.2,16.9c-35.4,19.1-71,37.8-106.3,56.9c13.1,39.8,26.4,79.5,39.9,119.1 c-34.4-27.3-68-55.5-100.2-85.3c-33.2,19-66.9,36.9-100.7,54.7c13.5-36,26.8-72,39.9-108.1c-34.8-29-70.3-56.9-106.3-84.3 C476.5,547.2,519.9,553.1,563.2,560.1z" fill="#B40A2D"/>
    <path d="M499.3,734.7C533.1,716.9,566.8,699,600,680c32.2,29.8,65.8,58,100.1,85.3c-13.5-39.6-26.8-79.3-39.9-119.1 c35.4-19.1,71-37.7,106.3-56.9c-43.5-4.6-86.9-10.2-130.2-16.9c-12.5-39.8-24.7-79.7-36.4-119.8c-11.9,35.9-24.2,71.8-36.8,107.5 c-43.3-6.9-86.7-12.9-130.3-17.8c36,27.4,71.6,55.4,106.3,84.3C526.1,662.7,512.8,698.7,499.3,734.7z" fill="#ECC81D"/>
  </g>
  <g opacity="0.3">
    <path d="M259.7,185c127.9,0,223.7,15.9,325.2,32.8C688.7,235,796.1,252.9,941,252.9c44.4,0,90-6.1,135.4-18.1 c30.5-8.1,61.9-19,93.6-32.7v757.2c-36.8,17.4-73.5,30.8-109.2,40c-40.5,10.4-81.1,15.7-120.8,15.7c-140.1,0-243.6-16.8-343.7-33 c-98.9-16.1-201.3-32.7-336.6-32.7c-45.7,0-91.1,5.3-135.1,15.8C93,972.6,61.3,982.9,30,996V241.6c37.1-17.6,73.8-31.2,109.2-40.5 C179.9,190.4,220.4,185,259.7,185 M1200,155c-89.2,45-174.4,67.9-259,67.9c-280.7,0-416.7-67.9-681.3-67.9 C175.2,155,89.1,178,0,222.9c0,242.4,0,577.6,0,820c89-44.9,175.2-63.6,259.7-63.6c268.9,0,398.5,65.7,680.3,65.7 c84.6,0,170.8-22,260-66.9C1200,735.7,1200,397.4,1200,155L1200,155z" fill="#212121"/>
  </g>
</svg>