<svg viewBox="0 0 1200 1200" xmlns="http://www.w3.org/2000/svg" xmlns:xlink="http://www.w3.org/1999/xlink">
  <g>
    <path d="M0,222.8c0,273.4,0,546.7,0,820.1c96.3-48.2,191.4-67.4,298.8-64.4c101,2.9,201.8,16.9,301.2,34.4 c99.4,17.6,200.3,29.4,301.3,31.7c106.7,2.5,204.2-15.5,298.7-66.6c0-274.4,0-548.7,0-823.1c-95,49.6-189.1,69.9-295.9,67.6 c-101.9-2.2-204.1-13.8-304.2-32.8c-100.1-18.8-202.1-32-304.1-34.4c-45.6-1.1-91.6,0.2-136.5,8.9C103.2,175,50.9,197.5,0,222.8z M537.4,865.2c-148.1-23.5-267-146-267.4-298.6C269.6,420.2,383.6,291.8,536.8,316c141.9,22.4,262.6,170.3,262.9,311.9 C799.9,769.4,681.3,888,537.4,865.2z" fill="#006A4E"/>
    <path d="M536.8,316c141.9,22.4,262.6,170.3,262.9,311.9C800,769.4,681.5,888,537.4,865.1 c-148.2-23.6-267-145.9-267.4-298.6C269.6,420.2,383.5,291.8,536.8,316z" fill="#F42A41"/>
  </g>
  <g opacity="0.3">
    <path d="M259.7,185c127.9,0,223.7,15.9,325.2,32.8C688.7,235,796.1,252.9,941,252.9c44.4,0,90-6.1,135.4-18.1 c30.5-8.1,61.9-19,93.6-32.7v757.2c-36.8,17.4-73.5,30.8-109.2,40c-40.5,10.4-81.1,15.7-120.8,15.7c-140.1,0-243.6-16.8-343.7-33 c-98.9-16.1-201.3-32.7-336.6-32.7c-45.7,0-91.1,5.3-135.1,15.8C93,972.6,61.3,982.9,30,996V241.6c37.1-17.6,73.8-31.2,109.2-40.5 C179.9,190.4,220.4,185,259.7,185 M1200,155c-89.2,45-174.4,67.9-259,67.9c-280.7,0-416.7-67.9-681.3-67.9 C175.2,155,89.1,178,0,222.9c0,242.4,0,577.6,0,820c89-44.9,175.2-63.6,259.7-63.6c268.9,0,398.5,65.7,680.3,65.7 c84.6,0,170.8-22,260-66.9C1200,735.7,1200,397.4,1200,155L1200,155z" fill="#212121"/>
  </g>
</svg>