<svg viewBox="0 0 1200 890" xmlns="http://www.w3.org/2000/svg" xmlns:xlink="http://www.w3.org/1999/xlink">
  <g>
    <path d="M0,682.6c95.8-48.4,191.8-66.9,298.7-64.1c101.1,2.7,201.8,16.3,301.3,33.6 c99.4,17.3,200.3,29.4,301.2,31.8c107.7,2.6,202.1-19,298.8-66.7c0,68.6,0,137.2,0,205.8c-51.2,25-103.8,47-160,57.7 c-45.7,8.7-92.4,10-138.8,8.9c-100.9-2.5-201.8-14.4-301.2-31.7c-99.5-17.3-200.2-30.8-301.3-33.5c-106.6-2.8-203,15.2-298.7,63.4 C0,819.4,0,751,0,682.6z" fill="#ED1C24"/>
    <path d="M0,68c0,68.4,0,136.8,0,205.3c85.3-43.7,171.4-67,267.3-67.3c109.5-0.4,219.6,14.8,327.2,33.7 c109.4,19.6,221.4,33.7,332.7,33.9c97.9,0.1,185.6-23.4,272.7-67.8c0-68.6,0-137.2,0-205.8c-95.7,49.3-191.4,70.3-298.8,67.5 C800.3,64.9,699.4,52.4,600,34.9C500.6,17.3,399.8,3.3,298.8,0.4C191.1-2.7,96,18.8,0,68z" fill="#ED1C24"/>
    <path d="M506,435.3c-2.5-0.4-5-0.7-7.6-0.9c-7.4,0.3-16.3-2.4-22.5,1.9c2.2,6,4.5,13.1,10.7,17 c8.4,1.6,16-1,23.7-2c4.9-0.6,11.3-2.5,10.8-8.2C519.5,437.4,511.6,434.6,506,435.3z" fill="#FFFFFF"/>
    <path d="M617.3,340.8c6.9,0.5,5.4-12.4-1.5-12.3C607.5,326.3,610.1,340.9,617.3,340.8z" fill="#FFFFFF"/>
    <path d="M617.6,386.3c7.8,2.2,11.5-10.2,4.3-14.8c-1.2,0.5-2.1,1.1-3.4,1.4C612.1,372.5,611.3,383.6,617.6,386.3z" fill="#FFFFFF"/>
    <path d="M544.6,351.3c5,5.6,11.4,0.8,16.1-0.9c6.5-1.1,9.6-9.8,4.3-15.4c-4.4,0.3-8.5,2.1-12.2,4.1 C548.8,341.8,541.8,345.1,544.6,351.3z" fill="#FFFFFF"/>
    <path d="M508.4,367.3c-3.1-1.3-6.8-0.6-8.7,1.6c-3.1,5.8,2,13.4,7.7,17.5c5,6,16.8,3.8,16.1-3.6 C520.7,376.2,515.9,369.2,508.4,367.3z" fill="#FFFFFF"/>
    <path d="M605.4,263.3c7.3,12.6,19.7,23.7,34.2,27c13.2,3.9,25.1,11.2,35.7,19.9c6,4.6,11.7,9.7,18.5,13.3 c5.8,3.4,4.8,13.5-2.9,9.5c-4.5-2.7-17.6-2.1-10.5,4.5c8.2,7.3,17,14.6,26.4,20.3c3.6,1.9,14,5.7,6.7,8.9 c-5.6,0-11.6-2.3-17.6-4.1c-7.4-2.6-14.2-7-21.2-10c-5-2-11.9-0.4-11.6,5.2c1.2,6.3,8.9,8.2,13.7,11.7 c13,11.1,25.5,22.6,38.5,33.6c12.5,9.8,24.8,18.5,39.1,25.6c6.1,1.1,11.4,10.6,4.6,12.8c-7.9-2.3-16.2-3.2-24.3-5.8 c-4.6-1-9-5-13.7-3.9c-7.5,0.2-8.4,10,0,11.5c12.1,3.8,24,7.9,35.8,12.5c6.6,3,14.8,3.3,20.5,8.3c5.2,6.4-6.3,11.4-12,7.4 c-7-0.7-14-0.8-21.2-1.1c-6.3,0.1-12.5-1.1-18.7-2.2c-6-1.4-12.4,4.9-7.7,10.1c4.9,0.3,10.1,1.1,15,2.5 c9.2,2.1,16.6,8.1,23.4,13.9c11.5,10.3,21.8,22.6,35.3,30.6c7.6,1.5,11.6,12.7,3.1,14.3c-8.3-0.7-16-4.3-23.1-8.6 c-8.3-7-20.5-11.2-30.8-6.2c-7.2,2.3-5.7,13.5,2,16.2c24.5,16.7,52.8,29.2,74.2,50.1c3.7,2.3,4.9,6.8,3.3,10.1 c-1.5,3.8-6.6,5.4-10.6,3c-18-7.9-31.8-23.1-50.3-30c-19.3-5.6-38.7-6.6-58.6-9c-13.4-1.3-24.8-9-36-16c-8-5.6-19.2-2.7-21.4,5.3 c-1.5,13.7-1.9,25.6-0.8,39.4c1.9,14,10.2,26.3,20,36.1c6.6,6.8,13.7,13.7,21.4,19.3c5.3,2.9,12.2,8.9,8.6,14.5 c-5.7,5.2-13.2-3.6-16.8-8.4c-5-7.4-12.4-14.1-20.8-17c-6.4-1.3-12.6-4.5-18.8-5.9c-7.2-3-9.2,4.9-7.9,10.6 c-1.8,7.3-9.7-2.6-12-6.3c-6.5-5.4-14.2-10.4-17-18.8c-1.5-7-10.2-10-15.7-8.5c-6.4,2-12.8-4.2-19.3-5.9 c-11.2-1.4-20.5,5.2-29.5,10.8c-10.9,6.9-24.5,7.2-36.9,6.4c-8.7-0.9-18.3-0.1-24,5.9c-2,8.6-15.7-4.3-6.6-5.9 c10.5-6.5,23.1-7.3,34.7-10.4c17.4-6.8,31.5-21.4,40.2-37.6c5.6-7,5.5-19.5,0.8-26.9c-5.5-10.1-16.9-16.1-28.3-14.8 c-26.4,6-51.5,14.4-78.7,16.5c-9.2-0.7-18.5,0.7-27.5-3c-8.4-3-2.5-14.8,5.1-12c20.5-3.7,40.8-7.1,60.8-13.2c6.2-2,14-4.9,14.1-12 c-1.1-6.9-10.3-10.8-16.9-10.1c-6.9,1.4-13.4,4.4-20.2,6.6c-19.2,6.5-37.6,11.2-57.9,12.6c-4.7,0.1-12.7-3.4-9.4-8.4 c4.9-3.9,14-1.2,17.3-7c16-13.9,34.7-25.4,54.9-32.2c7.2-1.5,15-4.4,15.8-11.9c2-7.6-7.8-17-16.1-14.5 c-10.1,3.9-19.1,10.6-30.3,10.4c-5.7-0.4-12.5-5.7-10.1-11.1c7.5-4.2,14.1-9.6,20.8-14.8c5.7-5.8,13.4-9.7,22.2-11.3 c9-0.7,17.4-3.4,24-8.5c4-3.6,8.9-6.7,10.9-11.9c2.7-6.4,0.6-16.2-7.6-20c-8.9-3-16.8,2.3-25.4,1.9c-8.1,1.3-14.7-8.7-7.1-12.4 c5.9-3.1,11.9-6.1,18.3-8.6c11-3.8,23.9-5.5,32-14.7c3.4-6.6,9.8-13.1,18.8-11.9c7.1,3.2,14.7-4.7,9.4-10.9 c-4-3.7-14.4-1.2-14-8.5c4.8-4.1,11-6.3,17.2-8.5c6.9-3.4,15.2-4.1,21.2-8.5c6.7-3.9-4.8-11.6-9.1-7.7c-5-4.1,1.9-7.4,4.7-9.3 c17.3-10.2,31.2-19.8,42-36.8c-107.6-18.9-217.5-34.1-327-33.6C171.2,206.2,85.2,229.4,0,273.1C0,409.5,0,546,0,682.4 c95.8-48.4,191.8-66.9,298.7-64.1C399.8,621,500.5,634.6,600,652c99.4,17.3,200.3,29.4,301.2,31.8c107.7,2.6,202.1-19,298.8-66.7 c0-137.1,0-274.2,0-411.4c-87.2,44.3-174.8,67.9-272.7,67.8C816,273.4,704,259.2,594.6,239.6C597.8,247.6,600.9,255.8,605.4,263.3 z" fill="#FFFFFF"/>
    <path d="M595.3,340.4c7,1.1,8.2-11,1.3-13.6c-3.6,0-7,1.2-10.6,1.3c-4.8,0.6-11.1,6.3-6.8,11.5 C584.5,343.1,590.1,340.6,595.3,340.4z" fill="#FFFFFF"/>
    <path d="M546.7,322c7.5,2,8.7-10.6,1.1-12.2C540,307.3,539.6,320.4,546.7,322z" fill="#FFFFFF"/>
    <path d="M598.5,443.7c1.3,7,11.8,10.3,14.7,4.6c-0.6-6.9-4.2-14.2-9.9-18.9C598.4,431.5,596.4,438,598.5,443.7z" fill="#FFFFFF"/>
    <path d="M620.6,442.9c-2.5,1.4-3.6,5.3-1.5,8.3C625.5,457.7,628.3,442.2,620.6,442.9z" fill="#FFFFFF"/>
    <path d="M595.5,368.7c-7.6-2.5-7.8,9.8-0.8,11.9c6.7,2.8,11.6-7.5,5-11.8C598.4,369.2,596.9,369,595.5,368.7z" fill="#FFFFFF"/>
    <path d="M663.2,500.3c8.3,7.2,21.2,8.8,30,1.6c5.9-4-1.6-15.2-8.8-13c-3-0.6-5.7,0.2-8.5,0.5 C669.5,489.4,662.1,493.2,663.2,500.3z" fill="#FFFFFF"/>
    <path d="M584.8,419.2c-6.5-1.8-7.8,8.9-1.5,11.1C588.9,431.6,591.1,421.1,584.8,419.2z" fill="#FFFFFF"/>
    <path d="M645.4,400.4c6,3.2,14.7,3.7,18-1.7c2.6-7.3-6.8-16.3-14.5-15.2c-3.1-0.1-6.3,0-8.9,1.4 C633.8,388.2,638.4,398.9,645.4,400.4z" fill="#FFFFFF"/>
    <path d="M588.2,496.3c-1,3-0.8,6.3-0.8,9.4c-0.3,6.7,10.4,10.6,12.9,5.1C604.1,504.4,595.3,494.4,588.2,496.3z" fill="#FFFFFF"/>
    <path d="M639.1,348.3c7.4,1.4,9.8-10.3,2.9-13.9c-2.2-0.5-4.4-0.2-6.6,0.3C628.8,336.3,632.1,348.2,639.1,348.3z" fill="#FFFFFF"/>
    <path d="M533.9,483.5c-1.8-0.4-2.8,1.2-2.7,2.6c1.8,6.5,1.7,13.6,6.3,19.6c5.3,5.7,14.5-1.7,9.3-7.4 C547.7,491.8,541.1,484,533.9,483.5z" fill="#FFFFFF"/>
    <path d="M551.9,419.5c-4.5,3.6,2.4,13.4,7.7,10.6C564.1,426.7,557.3,416.7,551.9,419.5z" fill="#FFFFFF"/>
    <path d="M562.3,496.4c-1.2,5.7,2.7,14.8,9.9,15.3C576.2,506.3,569.6,496,562.3,496.4z" fill="#FFFFFF"/>
    <path d="M733.1,517.4c5.9-4.7-0.6-16-8.8-15.7c-2.7,0.7-5.3,1.7-8,2.3c-6.4,1.2-12.2,6.9-9.3,13.5 C714.3,524.1,726.2,524.9,733.1,517.4z" fill="#FFFFFF"/>
    <path d="M546.4,379.3c5.4-3.6-1.3-14.5-7.8-12.3c-7.2-3.2-12.9,5.1-9.4,11.1C533.5,384.3,542.8,383.8,546.4,379.3z " fill="#FFFFFF"/>
    <path d="M689,436.5c7-3.3,1-16.1-7-15.3c-3.4-0.1-6.7,1.2-8.3,3.8C670.4,432.2,682.6,441,689,436.5z" fill="#FFFFFF"/>
    <path d="M552.5,276.5c-2.8,1.9-9.5,5.2-4.7,9.3c4.3-3.8,15.8,4,9.1,7.7c-6,4.5-14.3,5.1-21.2,8.5 c-6.2,2.2-12.2,4.4-17.2,8.5c-0.4,7.4,9.9,4.8,14,8.5c5.3,6.1-2.3,14-9.4,10.9c-9.1-1-15.4,5.3-18.8,11.9c-8.1,9.2-21,11-32,14.7 c-6.2,2.5-12.5,5.4-18.3,8.6c-7.5,3.7-0.9,13.7,7.1,12.4c8.6,0.2,16.5-4.9,25.4-1.9c8.2,3.7,10.3,13.6,7.6,20 c-2,5.2-6.9,8.1-10.9,11.9c-6.4,5.1-15,7.8-24,8.5c-8.6,1.6-16.5,5.5-22.2,11.3c-6.6,5.2-13.2,10.6-20.8,14.8 c-2.4,5.2,4.4,10.7,10.1,11.1c11.2,0.2,20.2-6.5,30.3-10.4c8.4-2.4,18.3,7,16.1,14.5c-0.8,7.5-8.6,10.4-15.8,11.9 c-20.1,6.8-38.9,18.3-54.9,32.2c-3.3,5.8-12.4,3.2-17.3,7c-3.1,5.2,4.7,8.6,9.4,8.4c20.3-1.5,38.7-6.1,57.9-12.6 c6.8-2.2,13.2-5.2,20.2-6.6c6.6-0.7,15.7,3.2,16.9,10.1c0,7.1-7.8,10-14.1,12c-20,6-40.3,9.4-60.8,13.2c-7.7-2.7-13.4,9.1-5.1,12 c8.9,3.7,18.3,2.3,27.5,3c27.1-2.1,52.3-10.5,78.7-16.5c11.4-1.3,22.8,4.7,28.3,14.8c4.8,7.4,4.9,19.9-0.8,26.9 c-8.6,16.2-22.8,30.8-40.2,37.6c-11.7,3.1-24.2,4-34.7,10.4c-9.1,1.7,4.5,14.4,6.6,5.9c5.5-6.1,15.1-6.8,24-5.9 c12.4,0.7,25.9,0.4,36.9-6.4c8.9-5.7,18.3-12.2,29.5-10.8c6.5,1.7,12.8,7.9,19.3,5.9c5.7-1.5,14.2,1.5,15.7,8.5 c2.6,8.4,10.5,13.4,17,18.8c2.3,3.7,10.2,13.6,12,6.3c-1.5-5.7,0.6-13.5,7.9-10.6c6.2,1.3,12.4,4.4,18.8,5.9 c8.7,2.9,15.9,9.6,20.8,17c3.4,4.9,11,13.5,16.8,8.4c3.6-5.6-3.2-11.5-8.6-14.5c-7.7-5.6-14.8-12.5-21.4-19.3 c-9.8-9.8-18.1-22.1-20-36.1c-1.1-13.8-0.8-25.6,0.8-39.4c2.2-8,13.4-10.9,21.4-5.3c11.2,6.8,22.6,14.5,36,16 c19.9,2.3,39.3,3.3,58.6,9c18.4,7.1,32.3,22.1,50.3,30c4,2.5,9.1,0.9,10.6-3c1.8-3.3,0.5-7.8-3.3-10.1 c-21.5-20.8-49.7-33.4-74.2-50.1c-7.7-2.7-9-13.8-2-16.2c10.4-4.9,22.5-0.8,30.8,6.2c7,4.3,15,7.9,23.1,8.6 c8.5-1.6,4.2-12.8-3.1-14.3c-12.9-9.1-23.7-19.9-35.3-30.6c-6.8-5.8-14.2-11.9-23.4-13.9c-5-1.4-10.1-2.2-15-2.4 c-4.7-5.2,1.6-11.5,7.7-10.1c6.2,1.1,12.5,2.3,18.7,2.2c7,0.3,14,0.4,21.2,1.1c5.7,4,17.2-0.8,12-7.4c-5.5-5-13.9-5.3-20.5-8.3 c-11.9-4.5-23.7-8.6-35.8-12.5c-8.4-1.5-7.3-11.3,0-11.5c4.9-1,9.2,2.7,13.7,3.9c7.9,2.4,16.2,3.3,24.3,5.8 c6.8-2.2,1.5-11.7-4.6-12.8c-14.3-7.1-26.6-15.7-39.1-25.6c-13-11-25.6-22.5-38.5-33.6c-4.8-3.5-12.5-5.4-13.7-11.7 c-0.4-5.6,6.7-7.3,11.6-5.2c7.1,3,13.9,7.4,21.2,10c5.8,1.6,11.7,4,17.6,4.1c7.1-3.2-3.1-7.1-6.7-8.9 c-9.4-5.7-18.1-13.1-26.4-20.3c-7.1-6.6,6.1-7.2,10.5-4.5c7.5,4,8.4-6.1,2.9-9.5c-6.7-3.5-12.5-8.6-18.6-13.3 c-10.6-8.7-22.6-15.9-35.7-19.9c-14.6-3.3-27-14.3-34.2-27c-4.5-7.5-7.6-15.7-10.8-23.7C583.7,256.5,569.7,266.3,552.5,276.5z M510.3,451.6c-7.7,1-15.3,3.6-23.7,2c-6.4-4.1-8.5-11-10.7-17c6-4.3,14.9-1.7,22.5-1.9c2.5,0.2,5.1,0.5,7.6,0.9 c5.6-0.7,13.6,2,15,8.1C521.8,448.9,515.2,450.8,510.3,451.6z M507.2,386.3c-5.7-4.1-10.8-11.6-7.7-17.5c1.8-2.2,5.6-2.7,8.7-1.6 c7.5,2.1,12.3,9,15.2,15.4C524.1,390,512.4,392.3,507.2,386.3z M565.1,335c5.1,5.6,2,14.3-4.3,15.4c-4.6,1.7-11,6.6-16.1,0.9 c-2.8-6.4,4.2-9.7,8.4-12.3C556.6,336.9,560.5,335.3,565.1,335z M547.8,309.8c7.6,1.4,6.4,14.2-1.1,12.2 C539.6,320.4,540,307.3,547.8,309.8z M529.2,378.1c-3.5-6,2.2-14.3,9.4-11.1c6.5-2.3,13.2,8.7,7.8,12.3 C542.8,383.8,533.5,384.3,529.2,378.1z M537.6,505.7c-4.6-6-4.6-13-6.3-19.6c0-1.3,1.1-3,2.7-2.6c7.2,0.4,13.8,8.2,12.9,14.8 C552.1,504,542.8,511.6,537.6,505.7z M559.6,430.1c-5.3,2.8-12.2-7.1-7.7-10.6C557.3,416.7,564.1,426.7,559.6,430.1z M572.1,511.7 c-7.3-0.6-11.1-9.6-9.9-15.3C569.6,496,576.2,506.3,572.1,511.7z M716.3,504c2.7-0.6,5.3-1.7,8-2.3c8.2-0.3,14.7,10.9,8.8,15.7 c-7,7.4-18.8,6.5-26.1,0.1C704.1,511,710.1,505.2,716.3,504z M673.7,425c1.6-2.6,5-4.1,8.3-3.8c8-0.9,14.1,12,7,15.3 C682.6,441,670.4,432.2,673.7,425z M676,489.3c2.8-0.3,5.5-1,8.5-0.5c7-2.2,14.5,9,8.8,13c-8.8,7.2-21.7,5.7-30-1.6 C662.1,493.2,669.5,489.4,676,489.3z M663.3,398.6c-3.5,5.4-12,5-18,1.7c-7-1.4-11.5-12.2-5.4-15.5c2.5-1.4,5.8-1.7,8.9-1.4 C656.5,382.3,666,391.3,663.3,398.6z M635.4,334.6c2-0.3,4.4-0.6,6.6-0.3c7,3.6,4.6,15.2-2.9,13.9 C632.1,348.2,628.8,336.3,635.4,334.6z M583.1,430.3c-6.3-2.2-4.8-12.7,1.5-11.1C591.1,421.1,588.9,431.6,583.1,430.3z M600.5,511 c-2.7,5.3-13.3,1.4-12.9-5.1c0-3.3-0.3-6.6,0.8-9.4C595.3,494.4,604.1,504.4,600.5,511z M619.1,451.1c-2.1-2.8-1-6.9,1.5-8.3 C628.3,442.2,625.5,457.7,619.1,451.1z M617.6,386.3c-6.4-2.7-5.6-13.6,0.8-13.5c1.1-0.3,2.3-0.8,3.4-1.4 C629.1,376,625.5,388.4,617.6,386.3z M615.8,328.4c6.8-0.1,8.3,12.9,1.5,12.3C610.1,340.9,607.5,326.3,615.8,328.4z M613.2,448.2 c-2.8,5.9-13.4,2.4-14.7-4.6c-2.1-5.6-0.1-12.2,4.8-14.3C609,434,612.4,441.4,613.2,448.2z M594.7,380.8c-7-2.1-6.8-14.4,0.8-11.9 c1.5,0.3,2.9,0.4,4.2,0.1C606.3,373.1,601.3,383.4,594.7,380.8z M586,328c3.6-0.2,7-1.2,10.6-1.3c6.9,2.6,5.7,14.7-1.3,13.6 c-5.2,0.2-10.8,2.9-16.1-0.8C574.9,334.2,581.1,328.7,586,328z" fill="#00A651"/>
  </g>
  <g opacity="0.3">
    <path d="M259.7,30c127.9,0,223.7,15.9,325.2,32.8C688.7,80,796.1,97.9,941,97.9c44.4,0,90-6.1,135.4-18.1 c30.5-8.1,61.9-19,93.6-32.7v757.2c-36.8,17.4-73.5,30.8-109.2,40C1020.3,854.7,979.7,860,940,860c-140.1,0-243.6-16.8-343.7-33 c-98.9-16.1-201.3-32.7-336.6-32.7c-45.7,0-91.1,5.3-135.1,15.8C93,817.6,61.3,827.9,30,841V86.6C67.1,69,103.8,55.4,139.2,46.1 C179.9,35.4,220.4,30,259.7,30 M1200,0c-89.2,45-174.4,67.9-259,67.9C660.3,67.9,524.3,0,259.7,0C175.2,0,89.1,23,0,67.9 c0,242.4,0,577.6,0,820c89-44.9,175.2-63.6,259.7-63.6c268.9,0,398.5,65.7,680.3,65.7c84.6,0,170.8-22,260-66.9 C1200,580.7,1200,242.4,1200,0L1200,0z" fill="#212121"/>
  </g>
</svg>