<svg viewBox="0 0 1200 1200" xmlns="http://www.w3.org/2000/svg" xmlns:xlink="http://www.w3.org/1999/xlink">
  <g>
    <path d="M0,223.2c0,273.4,0,546.7,0,820.1c94.2-47.1,193.7-67.5,298.8-64.3c101,3,201.7,17.5,301.2,34.4 c99.5,16.9,200.3,29.2,301.3,31.7c106.3,2.6,203-20.6,298.7-66.6c0-274.4,0-548.7,0-823.1c-96.7,45.7-191.6,68.9-298.6,66.6 c-101-2.2-202-13.8-301.4-31.7c-99.4-18-200.2-31.6-301.2-34.5C192.9,152.9,94.4,175,0,223.2z M330,670.8c0.6-0.1,1.2-0.2,1.9-0.2 c2.6,0.1,5.3,1.4,9.1,4.1c3,2.1,6.2,4.8,9.7,8.2c6,5.9,10.8,11.6,10.8,11.8l0,0c0.5,0.7,3.8,6.6,6.5,12.3c1.7,3.6,2.7,6.3,3,8.1 c0.2,1.1,0.3,1.8,0,2.5c-0.2,0.3-0.3,0.5-0.6,0.5c-0.2,0.1-0.5,0.1-0.6,0.1l0,0c-0.2,0-0.3,0-0.3,0c-3.6-0.8-9.8-3.8-16.7-7.8 c-7.6-4.5-13.7-9.1-17.2-13.2c-3.2-3.6-5.1-9.2-5.7-16.4C329.5,675.4,329.9,671.2,330,670.8z M347.9,735.1 c-6.4-1.5-9.9-6.7-11.8-10.9c-2.1-4.5-2.6-8.7-2.6-8.8l0,0c11.8,1.1,24.9,3.8,33.5,12.6c4.5,4.9,4.8,9.6,4.8,9.9l0,0 c0,0-2.9,0-7.1-0.3l0,0C360.4,737.2,354.3,736.6,347.9,735.1z M385.4,720.4L385.4,720.4L385.4,720.4L385.4,720.4 c0,0-2.3-2.8-4.6-6.2c-2.4-3.5-4.6-7.2-4.6-10.1c0-2.7-0.8-8.7-1.2-11.9c-0.6-4.2-1.1-7.6-1.2-8.1l0,0c0.5,0.2,12.6,5.3,12.6,15.6 C386.6,710,385.4,720.2,385.4,720.4z M393.8,732.5c9.8,7.9,16.7,19.1,21.9,30.4l0,0l0,0l0,0c-0.2,0-9.2-3-18.4-9 c-9.9-6.3-18.5-15.6-20.1-27.6l0,0l0,0c0,0,0.8-0.1,2-0.1c0.2,0,0.3,0,0.5,0C382.4,726.5,387.5,727.7,393.8,732.5z M385.4,752.5 c0.5,0.6,1.5,2.5,0.6,3.8c-0.8,1-2.6,1.4-5.3,1.2l0,0c-7.3-0.6-9.9-4.4-10.6-6c-1.2-2.6-0.9-5.1-0.9-5.1l0,0 c1.2-0.2,2.4-0.2,3.6-0.1c0.1,0,0.2,0,0.3,0C378.9,746.5,383.4,749.5,385.4,752.5z M423.3,780.6c-0.2,0-7.9,1.1-18.6,0l0,0 c-6.3-0.6-12.6-1.9-18.3-3.7c-10.1-3.2-14.4-7-16.2-9.6c-1.1-1.5-1.4-2.9-1.5-3.6c-0.2-0.8,0-1.4,0-1.5l0,0c0,0,6.6-1.1,15.9-0.4 c0.3,0,0.8,0.1,1.1,0.1c4.4,0.4,8.8,1.2,13.1,2.3C408.4,767.2,416.9,772.8,423.3,780.6L423.3,780.6L423.3,780.6z M397.8,720.1 c0,0,1.7-0.7,4.4-0.5c0.2,0,0.3,0,0.5,0c0.3,0,0.5,0,0.8,0.1c3.7,0.5,9.4,2.4,15.7,9.1c9.4,10.3,14.3,23.1,19.1,36l0,0l0,0l0,0 c0,0-6.5-3.1-14.6-10C412.6,745.2,404,733.4,397.8,720.1z M478.2,799.7L478.2,799.7L478.2,799.7L478.2,799.7L478.2,799.7 c-15.3-3-30.8-6.7-42.9-17.2c-3.5-3.3-5.5-6.2-6.5-8.1c-0.9-1.9-1.4-3.2-1.4-3.4l0,0c0,0,2.3-0.4,6-0.2c0.2,0,0.4,0,0.6,0.1 C452.4,773.1,466.3,786.8,478.2,799.7z M442.2,758.6c0.8-0.2,1.7-0.2,2.5-0.3c0.1,0,0.1,0,0.2,0c3.8,0.5,6.9,3.8,8.1,6.9 c0.8,1.7,0.8,3.1,0.3,4.2c-0.5,1-1.8,1.7-3.5,1.5l0,0c-2-0.2-3.7-1.1-4.9-2.4c-0.9-1.1-1.7-2.4-2.2-4.2 C441.9,761.4,442.2,758.7,442.2,758.6z M541.8,830.8L541.8,830.8L541.8,830.8c-6.1-0.1-11.8-0.7-16.8-1.5l0,0 c-10.9-1.6-19.5-4.6-25-8.8c-3.2-2.5-4.8-4.8-5.6-6.4c-0.8-1.5-0.9-2.7-0.9-2.9c0.3-0.1,4.8-1.3,11.7-0.6c0.6,0.1,1.2,0.2,1.8,0.3 C520.3,812.9,533,820.7,541.8,830.8z M513.6,794.7c0.7-0.2,1.6-0.2,2.4-0.2c0.1,0,0.1,0,0.1,0c3.7,0.5,6.7,4,7.8,7.1 c0.7,1.8,0.9,3.3,0.4,4.3c-0.4,1-1.8,1.7-3.4,1.4l0,0c-1.9-0.3-3.6-1.2-4.7-2.5c-0.9-1.1-1.6-2.4-2.1-4.3 C513.5,797.7,513.6,794.8,513.6,794.7z M575.9,842.2c-14.8-5.3-30.3-11.4-39.5-25c-4.8-7.7-3.8-14.2-3.8-14.3l0,0l0,0 c0,0,1.6-0.2,3.9,0.2C556.1,806.8,567.2,826.3,575.9,842.2L575.9,842.2L575.9,842.2L575.9,842.2z M504,801 c-13.3-3.3-26.5-10.6-35.8-20.7c-6.1-6.8-8-12.7-8-12.9c0,0,2.5-0.2,6,0.1c0.3,0,0.5,0.1,0.8,0.1s0.6,0.1,0.9,0.1 C485.8,770.4,498.5,784.4,504,801L504,801L504,801z M432,797.5c-1.5-0.2-2.9-0.9-3.8-2.1c-0.8-0.9-1.4-2.1-1.7-3.6 c-0.6-2.5-0.5-5.1-0.5-5.1l0,0c0.6-0.2,1.2-0.3,1.8-0.2l0,0c1.8,0.2,3.1,1.2,4,2.1c1.1,1.1,2,2.4,2.6,3.9c0.6,1.4,0.6,2.7,0.3,3.6 C434.5,797,433.6,797.7,432,797.5L432,797.5z M485.5,819.2c-2.6,1.4-7.1,1.7-13.5,1c-0.4,0-0.5-0.1-0.9-0.1l0,0 c-14-1.6-28.4-7.5-38.8-17.2l0,0l0,0c0.2,0,11.2-1.4,23.8-0.1c0.8,0.1,1.5,0.2,2.3,0.3c11.2,1.4,19.7,4.4,25.5,9c2,1.6,3,3,3.3,4.3 C487.3,817.5,486.7,818.5,485.5,819.2z M504.5,837.4c-0.4,1-1.8,1.7-3.5,1.4l0,0c-2-0.3-3.6-1.2-4.8-2.5c-0.9-1.1-1.7-2.4-2.1-4.3 c-0.8-2.8-0.6-5.6-0.6-5.8c0.8-0.2,1.7-0.2,2.4-0.2c0.1,0,0.1,0,0.2,0c3.8,0.5,6.8,4,8,7C504.8,835,504.9,836.4,504.5,837.4z M544.4,854.2L544.4,854.2c-9.9-1.4-21.1-6.3-29.2-12.1l0,0l0,0c0,0,1.2-2,4.3-3.6c2.8-1.5,8-3.1,16.3-1.9c0.1,0,0.1,0,0.1,0 c12.5,2.1,24.2,8.1,34.8,14.9C570.2,851.8,560,856.6,544.4,854.2L544.4,854.2z M629.9,878.9c0,0-3,1.9-5.8,4 c-1.3,0.9-3,2.1-4.1,3.2c-0.6,0.5-1,0.9-1.3,1.3c-0.1,0.3-0.3,0.5-0.4,0.6c0.5-0.2,0.8-0.4,1.3-0.6c0.6,0.5,0.8,0.8,1.4,1.3 c-1.1-0.1-1.7-0.1-2.8-0.2c-0.1,0-0.1,0-0.1,0l0,0c-0.3-0.2-0.3-0.2-0.4-0.3c-0.1-0.1-0.1-0.1-0.1-0.2c-0.4-0.5-1.3-1.3-2.2-2.6 c-1.8-2.4-4.3-5.8-6.5-8.9c-4.3-6.1-7.8-11.2-8.5-12.3c-0.1-0.1-0.2-0.2-0.3-0.3c-0.1,0.1-0.2,0.1-0.3,0.2 c-0.7,0.7-4.1,4.8-8.2,9.4c-2.1,2.4-4.6,5-6.3,6.7c-0.9,0.9-1.8,1.5-2.2,1.8c-0.1,0-0.1,0.1-0.1,0.1c-0.1,0.1-0.3,0.2-0.4,0.2l0,0 c-0.1,0-0.1,0-0.1,0c-1.1-0.3-1.6-0.4-2.7-0.7c0.5-0.3,0.8-0.5,1.4-0.9c0.5,0.4,0.7,0.6,1.2,1c0-0.1-0.1-0.4-0.4-0.8 c-0.3-0.5-0.8-1.1-1.2-1.7c-1.1-1.4-2.7-3.2-4-4.5c-2.8-3.1-5.7-5.9-5.7-5.9l0,0c7.8-4.4,11.6-6.5,19.1-10.9 c-0.5-0.2-0.7-0.4-1.2-0.6c-3.1-2-4.6-2.9-7.7-4.9c1.6-1.6,2.5-2.4,4.1-4c5.6,3.4,8.4,5.2,13.9,8.6c0.3,0.1,0.5,0.2,0.8,0.3 c0.3,0,0.5,0,0.8,0c5.7-1.5,8.5-2.2,14.3-3.7c1.7,2.1,2.5,3.2,4.2,5.4c-3.2,0.9-4.8,1.3-7.9,2.2c-0.5,0.1-0.7,0.1-1.2,0.2 C617.9,868.5,621.8,872,629.9,878.9L629.9,878.9z M694.6,840.1c0.6,0.1,1.2,0.2,1.8,0.2c6.8,1.2,11.4,3.7,11.7,3.7 c0,0.3-0.2,1.4-0.9,2.6c-0.8,1.4-2.3,3.4-5.6,4.9c-5.6,2.7-14.2,3.4-25.1,1.8l0,0c-5.2-0.7-10.8-1.9-17-3.5l0,0l0,0 C670.8,843.2,681.2,838.4,694.6,840.1z M677.6,826.2c1.2-2.8,4.2-5.3,7.9-4.8c0.1,0,0.1,0,0.1,0c0.7,0.1,1.5,0.3,2.4,0.9 c0,0.3,0.3,3.1-0.6,5.7c-0.5,1.6-1.2,2.9-2.1,3.7c-1.2,1.1-2.8,1.4-4.8,1.1l0,0c-1.6-0.2-3-1.1-3.4-2.4 C676.7,829.2,676.8,827.8,677.6,826.2z M767.5,817.9c0.2,0,0.4,0,0.6,0.1c3.7,0.4,5.9,1.4,5.9,1.4l0,0c0,0.3-0.5,1.6-1.4,3.2 c-1.1,1.7-2.9,4.4-6.4,6.8c-11.8,8.2-29,8.7-42.7,7.2l0,0l0,0l0,0l0,0C736.1,826.3,750.4,816.2,767.5,817.9z M748.6,808.2 c1.4-2.9,4.3-5.4,8.1-5c0.1,0,0.1,0,0.2,0c0.8,0.1,1.5,0.3,2.4,0.8c0,0.3,0.3,3-0.6,5.7c-0.5,1.7-1.2,2.9-2.1,3.8 c-1.2,1-2.9,1.5-4.9,1.3l0,0c-1.7-0.2-3.1-1-3.5-2.3C747.7,811.1,747.9,809.8,748.6,808.2z M733.5,819.7 c-10,8.3-22.9,11.3-35.8,11.5l0,0l0,0c5.7-15.7,19.5-25.7,36.2-24.1c0.3,0,0.6,0.1,0.9,0.1c0.3,0,0.6,0.1,0.8,0.1 c3.5,0.5,5.9,1.4,5.9,1.4C741.3,808.9,739.5,814.3,733.5,819.7z M665.1,838.1c-8.9,11.1-27,13.2-40.2,12.5l0,0l0,0l0,0 c9.4-13.5,21.9-28.9,40.2-26.4c2.3,0.3,4,1,4,1l0,0l0,0C669,825.1,670,831.8,665.1,838.1z M686.3,869.3c-8.6,3.7-20.3,5.1-29.4,3.5 l0,0l0,0c-9.7-1.5-19-5.3-26.8-11.1c11.3-3.4,23.5-5.5,35.3-3.9c0.1,0,0.1,0,0.1,0c8.4,1.2,13.6,4.3,16.4,6.7 C685.1,866.8,686.3,869.2,686.3,869.3L686.3,869.3L686.3,869.3z M707.5,864.9c-0.5,1.6-1.2,2.9-2.1,3.7c-1.2,1.1-2.9,1.4-4.8,1.2 l0,0c-1.7-0.2-3-1.2-3.5-2.4c-0.4-1.2-0.3-2.5,0.5-4.2c1.2-2.9,4.2-5.3,8-4.9c0.1,0,0.1,0,0.2,0c0.8,0.1,1.5,0.3,2.4,0.9 C708.1,859.5,708.3,862.3,707.5,864.9z M769.2,850.4c-11,8.1-25.4,9.8-38.6,8.3l0,0c-0.4,0-0.5-0.1-0.9-0.1 c-6.5-0.9-11.1-2.3-13.5-4.4c-1.2-1-1.8-2.1-1.7-3.1c0.3-1.2,1.4-2.3,3.3-3.4c5.6-3.2,14.3-4,25.4-2.8c0.8,0.1,1.5,0.2,2.3,0.3 C757.9,846.7,769,850.4,769.2,850.4L769.2,850.4L769.2,850.4z M774.7,840.5c-0.3,1.5-0.9,2.5-1.7,3.3c-0.9,0.9-2.3,1.4-3.8,1.3l0,0 c-1.4-0.1-2.4-1.1-2.7-1.9c-0.3-1-0.3-2.2,0.3-3.5s1.5-2.5,2.6-3.3c0.8-0.6,2.1-1.4,4-1.3l0,0c0.6,0.1,1.4,0.3,1.8,0.6l0,0 C775.1,835.6,775.4,838.1,774.7,840.5z M763.4,811L763.4,811L763.4,811L763.4,811c4.7-11.7,9.5-23.3,18.9-32 c6.2-5.5,11.7-6.3,15.5-6.2c0.3,0,0.5,0,0.8,0.1c0.2,0,0.3,0,0.5,0c2.6,0.4,4.4,1.3,4.4,1.3c-5.4,11.9-14.6,22.4-25.4,29.7 C770,809.3,763.6,811,763.4,811z M820.2,814.5c-2.7-0.2-4.5-0.9-5.3-2c-0.9-1.4,0.2-3.1,0.6-3.7c2-2.5,6.5-4.7,12.2-4.3 c0.1,0,0.2,0,0.3,0c1.2,0.1,2.4,0.3,3.6,0.7l0,0c0,0,0.3,2.6-0.9,5C829.9,811.6,827.4,815,820.2,814.5L820.2,814.5z M825.8,750.2 c-0.5,3.3-1.2,9-1.2,11.7c0,2.9-2.3,6.1-4.5,9.4c-2.3,3-4.5,5.4-4.5,5.4l0,0l0,0l0,0c0-0.1-1-10.5-1-20.8s12-13.5,12.5-13.6l0,0 C826.8,742.6,826.2,746.1,825.8,750.2z M821.1,783.6c0.2,0,0.3,0,0.5,0c1.2,0.1,2,0.4,2,0.4l0,0l0,0c-1.2,11.5-9.9,19.7-19.9,24.2 c-9.1,4.3-18.1,5.6-18.2,5.5l0,0l0,0l0,0c5.1-10.1,12-20.2,21.7-26.4C813.4,783.7,818.6,783.4,821.1,783.6z M832.2,822.6 c-0.1,0.8-0.4,2-1.5,3.3c-1.8,2.3-6.1,5.6-16.1,7.1c-5.7,0.8-11.8,1-18.2,0.4l0,0c-10.6-0.9-18.4-3.6-18.4-3.6l0,0l0,0 c0.2-0.1,8.4-10.1,24.5-11.7c4.2-0.5,8.5-0.4,13-0.1c0.3,0,0.8,0.1,1.1,0.1c9.2,0.8,15.6,2.9,15.7,2.9l0,0 C832.3,821.2,832.3,821.9,832.2,822.6z M864.5,787.3c-1.9,3.9-5.4,8.8-11.7,9.5s-12.4,0.6-16.4,0.4l0,0c-4.2-0.3-7-0.7-7-0.7l0,0 c0-0.3,0.3-4.9,4.8-9.1c8.4-7.5,22.4-9,33.1-8.4l0,0C867,778.9,866.5,783,864.5,787.3z M870.5,744.3c-0.6,7.2-2.5,12.5-5.7,15.8 c-3.5,3.7-9.5,7.6-17,11.2c-6.8,3.2-12.9,5.2-16.5,5.5c-0.1,0-0.3,0-0.3,0l0,0c-0.3,0-0.4,0-0.6-0.2c-0.3-0.2-0.4-0.4-0.6-0.6 c-0.3-0.7-0.3-1.4,0-2.5c0.4-1.9,1.3-4.3,3-7.6c2.7-5.3,6-10.7,6.4-11.4l0,0c0,0,4.8-5.2,10.7-10.3c3.4-3,6.6-5.3,9.5-7 c3.7-2.3,6.4-3.1,9-3.1c0.7,0,1.3,0.2,1.9,0.4C870.5,734.9,870.9,739.2,870.5,744.3z M994.9,363.6c-0.2,0.4-0.4,0.6-0.6,1 c-0.2,0.4-0.4,0.6-0.6,1c-0.2,1.6-0.4,2.3-0.6,3.9c-0.5,0.7-0.7,1.1-1.2,1.8c0,2.4-0.1,3.5-0.1,5.9c0,0.2,0,0.2,0,0.4 c-0.4,0.9-0.7,1.4-1.1,2.3c-0.5,0.4-0.8,0.6-1.3,1c-0.4,0.1-0.6,0.1-1,0.2c-2.2,0.7-3.3,1-5.5,1.6c-0.6,1-0.9,1.6-1.5,2.6 c-1.1-0.1-1.6-0.1-2.7-0.2c-7.6,4.8-11.5,7.2-19.4,11.8c-0.2,0.1-0.3,0.2-0.5,0.3c-2,1.6-3.1,2.4-5.1,4c-0.2,0.3-0.2,0.5-0.4,0.8 c-0.5,1.2-0.8,1.8-1.3,3.1c-0.6,0.2-0.9,0.3-1.4,0.5c-0.7,2.4-1,3.6-1.7,5.9c-0.6,0.7-0.9,1.1-1.4,1.8c-2.5,2.2-3.8,3.2-6.4,5.3 c-2.9,1.3-4.4,2-7.4,3.2c-2.5,1.8-3.8,2.6-6.4,4.4c-1.4,1.5-2.2,2.3-3.6,3.8c-2.8,2.9-4.2,4.3-7,7.2c-9.2,4-18.6,7.9-27.9,11.6 c-1.3,0.7-2,1-3.3,1.7c-2.5,1.3-3.8,2-6.3,3.3c-5.2,3.4-7.7,5.1-13,8.5c-2.3,1.9-3.5,2.9-5.8,4.8c-3.1,3.2-4.6,4.8-7.8,8 c-0.5,0.9-0.8,1.4-1.3,2.3c-0.3,0.9-0.4,1.3-0.7,2.2c-0.9,2.7-1.3,4-2.2,6.7c-0.4,0.6-0.6,0.9-1,1.4c-0.8,0.4-1.2,0.6-2.1,1 c-1.7,0.4-2.6,0.6-4.3,1c-1.1,0-1.6,0.1-2.7,0.1c-0.5,0-0.7,0-1.2,0.1c-2.3-0.1-3.5-0.1-5.8-0.2c-2.4-0.9-3.7-1.3-6.1-2.2 c-1.4,0.1-2.1,0.1-3.4,0.2c-1.5,0.1-2.2,0.1-3.7,0.1c-1.7,0.9-2.6,1.3-4.4,2.1c-0.2,0.1-0.3,0.1-0.5,0.2c-1,0.8-1.4,1.2-2.4,2 c-1,1.3-1.5,1.9-2.6,3.2c-1.2,2-1.8,3.1-3,5.1c-1.1,0.7-1.6,1.1-2.7,1.8c-1.8,3.1-2.6,4.7-4.4,7.9c-0.1,0.6-0.2,0.9-0.3,1.5 c-1,4.8-1.6,7.2-2.6,12c0.1,1.1,0.2,1.7,0.3,2.8c0,0.1,0,0.2,0,0.3c1.3,3.5,1.9,5.2,3.2,8.6c-0.3,0.6-0.5,0.9-0.8,1.4 c-0.7,0.1-1,0.2-1.7,0.3c-0.6,0.5-0.9,0.7-1.5,1.2c-0.1,0-0.1,0.1-0.2,0.1c0.1,0.1,0.1,0.1,0.2,0.2c0.1,0.1,0.2,0.2,0.3,0.3 c1.3,0.1,1.9,0.2,3.2,0.3c0.6,0.4,0.9,0.6,1.5,0.9c0.4,0.5,0.6,0.8,1.1,1.3c2.5,3.3,3.7,4.9,6.2,8.2c0.1,0.1,0.1,0.1,0.2,0.1 c1.2,1.3,1.8,2,3,3.3c1.5,1.2,2.3,1.7,3.8,2.9c0.8,1.8,1.3,2.6,2.1,4.4c0.3,0.6,0.4,0.9,0.7,1.6c0.2,0.4,0.3,0.6,0.4,1 c1.4,1.8,2.2,2.7,3.6,4.5c2,2,3,3,4.9,5c0.5,0.4,0.7,0.5,1.2,0.9l0,0c1.3,1,2,1.5,3.3,2.6l0,0c3.7,2.9,5.5,4.4,9.2,7.3 c2.8,4.1,4.2,6.2,6.9,10.3c0.5,0.8,0.8,1.2,1.3,2c0.1,0.1,0.2,0.2,0.3,0.3c0.3,0.3,0.4,0.5,0.7,0.9c1.6,1.9,2.4,2.9,4,4.7 c-1,1-1.5,1.5-2.5,2.5c1.1,1.8,1.6,2.6,2.6,4.4c1.2,0.3,1.8,0.4,2.9,0.7c0.1,0.1,0.2,0.2,0.3,0.3c0.2,0.3,0.4,0.5,0.6,0.9 c-0.6,0.7-0.9,1.1-1.5,1.8c-0.5-0.1-0.8-0.1-1.3-0.2c-0.4-0.5-0.5-0.8-0.9-1.3c-0.1-0.1-0.1-0.2-0.1-0.3c-0.1,0-0.1,0-0.1,0 c-0.6,0.1-0.9,0.2-1.5,0.3c-0.4,0.1-0.6,0.1-1,0.2c-0.2-0.1-0.3-0.1-0.4-0.2c-0.1,0-0.2,0-0.3,0c-0.2,0-0.3,0-0.4,0 c-3.4-2-5-3-8.4-5c-0.9-0.2-1.4-0.3-2.4-0.4c-1.7-1.1-2.5-1.7-4.2-2.9c-1.5,0.1-2.3,0.1-3.9,0.2c-0.8,0.1-1.3,0.1-2.1,0.1 c-1.1-0.5-1.6-0.7-2.7-1.1c-1.3,0.1-2,0.2-3.3,0.3c-1.9-0.7-2.8-1.1-4.6-1.8c-0.8-0.1-1.2-0.1-2-0.1c-0.8,0.8-1.3,1.2-2.1,2 c-0.2,0.1-0.3,0.1-0.5,0.2c-0.4,0.1-0.5,0.2-0.9,0.3c-3.1-0.1-4.7-0.1-7.8-0.2c-2.7,0.7-4,1.1-6.7,1.8c-0.3,0.4-0.5,0.6-0.8,1l0,0 l0,0l0,0l0,0c-0.8,1-1.2,1.5-2,2.4c-0.1,0-0.1,0.1-0.2,0.1c-1.4,0.6-2.1,0.9-3.5,1.5c-1,0.7-1.5,1-2.6,1.7c-1.3,0.5-2,0.8-3.3,1.3 c-1,0.1-1.5,0.1-2.4,0.2c-0.4-0.2-0.5-0.3-0.9-0.5c-1.2-0.5-1.7-0.8-2.9-1.4c-0.4-0.3-0.5-0.5-0.9-0.8c-1.8-1.8-2.6-2.6-4.4-4.4 c-1.7-1.4-2.6-2.1-4.3-3.4c-1.5-0.6-2.2-0.9-3.7-1.5c-0.3-0.1-0.5-0.1-0.8-0.2c-4.3-1.1-6.5-1.7-10.8-2.9c-1.7-0.2-2.6-0.3-4.3-0.5 c0,0-4.6-0.5-4.7-0.5c-5.1-0.5-7.7-0.8-12.8-1.3c-0.4,0-0.5,0-0.9,0c-0.2,0-0.4,0-0.6,0.1l0,0c-1.5,0.1-2.2,0.1-3.6,0.1 c-1,0.3-1.6,0.5-2.6,0.8c-2.1,1-3.1,1.5-5.2,2.5c-1.3,1.1-1.9,1.7-3.2,2.8c-1.5,2.9-2.2,4.4-3.6,7.4c-0.3,2.4-0.5,3.6-0.8,5.9 c0.2,2.4,0.4,3.7,0.6,6.1c-0.4,1.3-0.5,1.9-0.9,3.2c0,0.9,0,1.4,0,2.3c0,1.1,0,1.6,0,2.7c-2.4,2.8-3.5,4.2-5.9,6.9 c-0.8,0.4-1.3,0.6-2.1,1c-0.8,2.6-1.3,3.9-2.1,6.4c-0.5,0.2-0.7,0.3-1.2,0.5c-3.6-0.9-5.4-1.3-9-2.1c-3.1-0.2-4.6-0.4-7.6-0.6 c-1,0.4-1.4,0.5-2.4,0.9c-0.7,0.8-1,1.2-1.6,2c-0.8,1-1.3,1.5-2.1,2.4c-1.1,0.3-1.7,0.4-2.8,0.7c-1,0.9-1.5,1.3-2.5,2.2 c-1.6,0-2.4,0-4,0c-0.8,1-1.2,1.6-1.9,2.6c-3.8-0.3-5.7-0.5-9.4-0.8c-1.4,0.1-2.1,0.2-3.5,0.3c-1.3,0.5-1.9,0.7-3.2,1.2 c-1.5,0.9-2.3,1.3-3.8,2.2c-2.4,0.8-3.6,1.2-5.9,2c-0.2,0.1-0.3,0.1-0.6,0.2c-0.6,0.2-0.9,0.3-1.4,0.5c-2.3,0.2-3.5,0.4-5.7,0.6 c-2.3,1.3-3.5,1.9-5.9,3.2c-0.5,0.1-0.7,0.1-1.1,0.2c-1.2-0.3-1.8-0.4-3-0.6c-1.9,0.7-2.9,1.1-4.8,1.8c-1-0.2-1.4-0.2-2.4-0.4 c-1.3,0.5-1.9,0.7-3.2,1.2c-0.8-0.4-1.3-0.5-2.1-0.9c-2-0.8-3-1.3-5-2.1c-0.7,0-1.1,0-1.8,0c-1.5,0.4-2.3,0.6-3.7,1 c-0.2,0.1-0.2,0.2-0.4,0.3c-0.2,0.2-0.3,0.3-0.5,0.5c-0.4,1.2-0.6,1.8-1.1,3l0,0c-0.5,0.1-0.7,0.1-1.2,0.2c-11.5-2.8-23-5.4-34.6-8 c-2.1,0-3.1,0-5.2,0c-0.1,0-0.1,0-0.1,0c-4.7,0.8-7.1,1.2-11.9,2c-0.2-0.1-0.3-0.1-0.6-0.2c-0.1,0.2-0.1,0.3-0.1,0.5 c-1.9,0.5-2.9,0.7-4.8,1.2c-1.9,0.9-2.8,1.3-4.7,2.2c-2.3,1.6-3.5,2.4-5.9,4.1c-2.2,1-3.3,1.5-5.4,2.5c-0.8,0.9-1.2,1.4-2.1,2.3 c-0.1,0.3-0.1,0.4-0.1,0.7l0,0c-0.3,1.1-0.4,1.6-0.7,2.6c-0.4,0.4-0.6,0.6-1,1.1c-0.2,1.3-0.3,2-0.4,3.4c0.1,1.1,0.2,1.6,0.3,2.7 c0.1,1.6,0.2,2.3,0.3,3.9c0.5,1.3,0.7,1.9,1.2,3.2c0.6,0.9,0.9,1.4,1.5,2.3c1.5,1.8,2.2,2.7,3.7,4.5c0.6,0.8,1,1.2,1.6,2 c0.1,0.6,0.2,0.8,0.3,1.4c-0.2,0.5-0.4,0.7-0.6,1.1c-0.4,0.2-0.5,0.3-0.9,0.4c-0.9-0.2-1.3-0.3-2.2-0.5c-1.8-1-2.7-1.5-4.4-2.6 c-0.7-0.4-1-0.6-1.6-0.9c-1.5-0.2-2.2-0.3-3.7-0.5c-1.4-0.7-2.1-1.1-3.4-1.9c-0.8,0.3-1.3,0.4-2.1,0.7c-1.3,0.4-2,0.6-3.3,1 c-0.8-0.2-1.3-0.3-2.1-0.4c-1.3-0.3-1.9-0.4-3.2-0.7c-0.7,0-1.1,0-1.8,0c-0.6,0.2-0.9,0.3-1.5,0.5c-0.3,0.1-0.5,0.2-0.8,0.3 c-0.2-0.4-0.3-0.6-0.5-1c0.1-0.1,0.1-0.2,0.2-0.3c0.1-0.3,0.2-0.5,0.3-0.8c0.8-0.4,1.2-0.7,2-1.1c0-0.9,0-1.3,0-2.2 c-0.5-1.4-0.8-2.1-1.4-3.5c-0.7-1-1.1-1.5-1.8-2.6c-1-2.8-1.5-4.2-2.6-7.1c-0.1-0.3-0.2-0.4-0.3-0.7c-1.4-2.1-2.1-3.1-3.5-5.1 c-1.5-1.6-2.3-2.4-3.8-4.1c0.5-0.6,0.7-1,1.2-1.6c-1.2-0.2-1.7-0.2-2.9-0.4c-0.1,0-0.2,0-0.3,0c-1-1.2-1.6-1.9-2.6-3.1 c-0.9-0.7-1.4-1.1-2.3-1.8c-3.5-1.2-5.3-1.8-8.9-2.9c-1.6,0.3-2.4,0.4-4,0.7c-1.8-0.7-2.8-1-4.6-1.7c-2.8,0.7-4.1,1.1-6.9,1.8 c-1-0.5-1.6-0.7-2.6-1.1c-3.6,0-5.4-0.1-9.1-0.1c-1.1,0.3-1.7,0.5-2.8,0.8c-0.3,0.3-0.5,0.5-0.8,0.9c-1.5,0.6-2.3,1-3.8,1.6 c-1,0.1-1.5,0.1-2.5,0.1c-1-0.3-1.5-0.5-2.5-0.8c-1.2-0.1-1.8-0.1-2.9-0.2c-1.2,0.8-1.8,1.2-3.1,2c-0.9-0.1-1.3-0.1-2.2-0.2 c-1.2-0.5-1.8-0.8-2.9-1.3c-1.6-0.7-2.4-1.1-4-1.8c-1.8-0.6-2.7-0.9-4.5-1.4c-3.3-1.4-4.9-2.1-8.1-3.5c0-0.1,0-0.1,0-0.1l0,0 c0,0.1,0,0.1,0,0.1c-0.6-0.3-0.9-0.4-1.5-0.7c-0.8-0.2-1.2-0.4-2-0.6c-1.5-0.5-2.2-0.7-3.7-1.2c-1.7-0.8-2.6-1.2-4.3-2 c-0.9-0.7-1.3-1.1-2.1-1.8c-0.7-0.6-1-0.8-1.7-1.4c-1.1-0.7-1.6-1.1-2.7-1.8c-2.6-1.7-3.9-2.5-6.5-4.1c-1.3-0.4-1.9-0.6-3.2-1 c-2.9-1.1-4.4-1.6-7.3-2.6c-1.3-0.1-2-0.2-3.3-0.3c-1-0.7-1.5-1-2.6-1.7c-0.5-0.4-0.8-0.6-1.4-0.9c-1.2,0-1.8,0-3,0.1 c-0.1,0-0.2,0-0.3,0c-1.1,0.6-1.7,0.9-2.8,1.4c-0.7-0.7-1.1-1.1-1.8-1.8c-0.6-0.3-0.9-0.5-1.5-0.8c-0.1,0-0.1,0-0.1,0 c-0.8-0.4-1.2-0.7-1.9-1.1c-3.5-3.1-5.3-4.7-8.7-7.8c-0.7-0.4-1.1-0.6-1.8-0.9c-1.1,0.1-1.7,0.1-2.8,0.2c-1.2-1.7-1.8-2.6-2.9-4.3 c-0.9-0.8-1.4-1.2-2.3-2c-0.6-0.1-0.9-0.2-1.5-0.4c-0.9,0.1-1.4,0.2-2.3,0.3c-0.8-0.8-1.2-1.1-2-1.9c0.3-2.2,0.5-3.3,0.9-5.6 c-0.2-0.8-0.3-1.3-0.6-2.1c-0.6-1.1-1-1.6-1.6-2.7c0-0.2,0-0.3,0-0.5c0-1.4,0-2.1,0-3.6c-1-2.7-1.6-4.1-2.6-6.8 c-0.1-2.1-0.2-3.2-0.3-5.4c-0.6-0.7-0.9-1.1-1.4-1.8c-0.7-0.4-1-0.5-1.7-0.9c-0.5-0.2-0.7-0.4-1.2-0.6c-0.7-0.7-1-1-1.7-1.7 c-0.7,0-1,0-1.7-0.1c-0.5-0.3-0.7-0.5-1.1-0.9c-0.9,0.1-1.3,0.2-2.1,0.3c-0.7-0.6-1.1-0.9-1.8-1.6c-0.9-2.3-1.4-3.4-2.3-5.7 c-1.8-1.6-2.6-2.4-4.4-4c-1-0.9-1.5-1.4-2.5-2.3c-0.1-0.7-0.2-1.1-0.3-1.8c0.2-0.3,0.3-0.4,0.6-0.7c0.8-0.9,1.3-1.4,2.1-2.3 c0.6-1.6,0.8-2.4,1.4-4.1c-0.5-1.2-0.8-1.8-1.3-3.1c-2.3-2.8-3.4-4.2-5.6-7c0.1-0.8,0.2-1.2,0.3-2.1c0.7-0.5,1.1-0.8,1.8-1.3 c-0.3-0.9-0.4-1.4-0.7-2.4c0.6-1.4,0.9-2,1.5-3.4c-0.8-2.5-1.3-3.7-2.1-6.2c-0.1-0.1-0.1-0.1-0.1-0.1c-0.4-0.7-0.6-1-1-1.7 c-0.5-0.8-0.8-1.3-1.3-2.1c-0.1-0.2-0.2-0.3-0.3-0.6c-0.8-1.8-1.2-2.7-1.9-4.6c-2.4-3.4-3.7-5.1-6.1-8.5c-0.2-1.4-0.2-2.1-0.4-3.6 c0-0.2,0-0.3,0-0.5c0.4-3.5,0.6-5.3,1-8.8c0.1-0.6,0.2-0.9,0.3-1.5c0.2-0.7,0.2-1.1,0.4-1.8c0.3-0.5,0.4-0.7,0.7-1.2 c0.8,0,1.2,0,1.9,0c1,0.7,1.5,1,2.5,1.7c0.1,0.1,0.2,0.1,0.3,0.1c0.4,0.3,0.7,0.4,1.1,0.7c3.2,3.2,4.8,4.8,8.1,8 c2.3,1.8,3.4,2.7,5.7,4.6c2.1,1.3,3.2,2,5.3,3.4c1.9,0.6,2.8,0.9,4.7,1.6c2.1,0.4,3.2,0.6,5.3,0.9c1.2,0.1,1.7,0.1,2.9,0.1 c2.3-0.3,3.5-0.5,5.8-0.8c2.7-0.8,4.1-1.2,6.9-1.9c2.9-1.9,4.3-2.9,7.2-4.8c1.2-0.9,1.9-1.3,3.1-2.1c1.4-1.4,2.1-2.1,3.6-3.5 c0.4-0.4,0.6-0.6,1-1c1.4-1.8,2.1-2.7,3.4-4.4c2.2-4.5,3.3-6.7,5.5-11.1c0.8-1,1.3-1.6,2.1-2.6c1.2-0.9,1.8-1.3,3-2.2 c1.2-0.8,1.8-1.3,3-2.1c0.4-0.7,0.5-1.1,0.9-1.8c0.1-1.3,0.1-1.9,0.2-3.1c0.4-0.2,0.6-0.4,1.1-0.6c0.8,0.2,1.2,0.3,2,0.6 c0.5,0.3,0.7,0.4,1.2,0.6c0.8,0.5,1.3,0.8,2.1,1.3c0.5-0.1,0.7-0.1,1.2-0.2c0.4,0,0.5,0,0.9-0.1c0.2,0,0.4-0.1,0.6-0.1l0,0 c0.4-0.1,0.5-0.2,0.9-0.3c0.7-0.2,1.1-0.3,1.8-0.5l0,0c0.9-0.3,1.3-0.4,2.1-0.6c0.6-0.2,0.9-0.2,1.5-0.4c0.5,0,0.8,0.1,1.4,0.1 c0.7,0.1,1.1,0.1,1.8,0.2c0.6-0.2,0.9-0.3,1.5-0.5c0.1-0.2,0.2-0.2,0.3-0.4c0.9-1.1,1.3-1.6,2.1-2.7c0.7,0,1.1,0,1.8,0 c1,0.5,1.6,0.7,2.6,1.2c0.9-0.2,1.3-0.4,2.1-0.6l0,0c1.7-0.5,2.5-0.8,4.1-1.2c1.5,0.2,2.3,0.3,3.8,0.5c1.2,0.4,1.7,0.6,2.9,1 c2.1,1.1,3.2,1.6,5.4,2.7c2.3,0.3,3.5,0.4,5.8,0.7l0,0c0.5,0.2,0.7,0.2,1.2,0.4c0.7,0.2,1,0.4,1.7,0.6l0,0c1.8,0.7,2.8,1,4.6,1.7 c1.3,0.3,1.9,0.4,3.2,0.6c0.6,0.7,0.9,1.1,1.5,1.8c2.4,1.5,3.6,2.3,6,3.8c2.2,0.6,3.3,1,5.5,1.6c2,1.5,3,2.2,4.9,3.7 c1.5,0.5,2.3,0.8,3.8,1.3c1.5,1,2.3,1.4,3.8,2.4c1.2,0.2,1.8,0.3,3.1,0.5c2,0.1,2.9,0.2,4.9,0.3c0.8-0.2,1.2-0.3,2-0.4 c2.4-1,3.7-1.4,6.1-2.4c3.3-1.6,4.9-2.4,8.2-4c1.5-0.7,2.2-1,3.6-1.7c0.6-0.6,0.9-0.9,1.5-1.6c2.1-5.6,3.2-8.5,5.3-14.1 c0.5-2.2,0.8-3.3,1.4-5.4c0.6-2.3,0.9-3.5,1.5-5.8c0.2-0.7,0.3-1,0.5-1.7c0.5-4.7,0.7-7,1.2-11.6c0-3,0-4.4,0-7.4 c-0.3-3-0.5-4.4-0.8-7.4c-0.4-1.1-0.6-1.7-1.1-2.8c-1-1.2-1.5-1.8-2.6-3c-0.2-0.8-0.4-1.2-0.6-2c0-0.9,0-1.3,0-2.2 c0.1-1.4,0.1-2.1,0.2-3.5c-0.2-1.6-0.3-2.3-0.5-3.9c-0.5-1.6-0.8-2.4-1.4-4c0.1-0.5,0.2-0.7,0.3-1.2c1.1,0.3,1.6,0.5,2.7,0.8 c2.9,1.7,4.3,2.5,7.2,4.2c4.2,3,6.3,4.5,10.5,7.5c3.3,2.1,4.9,3.1,8.2,5.2c0.5,0,0.8,0,1.3,0.1c1.8,0.1,2.7,0.1,4.4,0.2 c0.8,0.3,1.1,0.4,1.9,0.7c2.1,1.3,3.2,1.9,5.3,3.1c2,0.8,3.1,1.2,5.1,2c1.7,0.2,2.6,0.3,4.4,0.5c1.3-0.1,1.9-0.2,3.2-0.3 c1.4-0.3,2.2-0.4,3.6-0.7c1-0.6,1.5-0.8,2.4-1.4c0.8,0.1,1.2,0.1,2,0.2c4.9,2.2,7.3,3.3,12.2,5.4c1.5,0.7,2.2,1,3.6,1.7 c5.2,0.2,7.8,0.3,13,0.6c0.9,0.9,1.4,1.4,2.3,2.3c1.5,0.5,2.3,0.7,3.8,1.2c0.6,0.6,1,0.9,1.6,1.5c0.7,0.3,1,0.4,1.7,0.7 c1.2-0.2,1.8-0.3,2.9-0.6c0.5,0.1,0.8,0.1,1.3,0.2c1.4,0.8,2.1,1.2,3.6,2c0.6,0.1,0.9,0.1,1.5,0.1c0.8-0.3,1.2-0.5,2.1-0.9 c1.8,0.9,2.7,1.3,4.6,2.2c0.8,0.4,1.3,0.6,2.1,0.9c3.5,1,5.3,1.5,8.9,2.5c2.4,1.2,3.7,1.8,6.1,3c1.5-0.1,2.2-0.1,3.7-0.2 c3.1,0.8,4.6,1.3,7.8,2.1c6.8,0.8,10.2,1.2,17.1,2c0.2,0.1,0.3,0.1,0.4,0.2c0.8,0.3,1.2,0.5,2.1,0.9c2.3,0.1,3.5,0.1,5.9,0.2 c1.2-0.2,1.8-0.2,3-0.4c1.9,0.3,2.9,0.5,4.9,0.9c2.6-0.4,3.9-0.6,6.5-1c5.2,0.3,7.8,0.4,13,0.7c4.7-0.8,7-1.2,11.7-2 c0.1,0,0.2-0.1,0.3-0.1c0.8,0.3,1.2,0.5,2,0.8c1.3,0.2,1.9,0.2,3.2,0.4c2.3,0,3.4-0.1,5.7-0.1c0.7-0.1,1.1-0.2,1.8-0.3 c1-0.2,1.5-0.2,2.4-0.4c0,0.1,0,0.1,0,0.1c0,1.1,0,1.6,0,2.7c2.8-0.5,4.3-0.7,7.1-1.2c2.4-0.9,3.6-1.3,6.1-2.2 c1.6-1.1,2.4-1.7,4-2.8c4.7-1.5,7.1-2.3,11.9-3.9c2.8-0.9,4.2-1.4,7-2.3c1.5-0.1,2.3-0.2,3.8-0.3c2.4,0.2,3.6,0.3,5.9,0.5 c3.4,0.7,5.1,1,8.5,1.7c1.3-0.3,2-0.5,3.3-0.8c2.2,0.4,3.3,0.6,5.5,1.1c4.7-0.9,7.1-1.3,11.8-2.2c0.7-0.1,1-0.2,1.7-0.3 c0.2,0,0.3-0.1,0.5-0.1c3.3-0.6,5-1,8.3-1.6c3.8-0.9,5.7-1.4,9.5-2.4c2.1-0.2,3.2-0.3,5.3-0.4c1.5-0.3,2.2-0.5,3.7-0.8 c7.2-2.8,10.8-4.2,17.9-7c4.5-1.8,6.8-2.7,11.2-4.5c1.7-1.2,2.6-1.8,4.3-3.1c2.4-0.6,3.6-0.9,6-1.5c2.3-1,3.5-1.5,5.8-2.5 c2.7-2.6,4.1-3.9,6.8-6.6c1.4-1.7,2.2-2.5,3.6-4.2c0.2-0.2,0.3-0.3,0.4-0.5c1.3-0.7,1.9-1,3.2-1.7c0.7-0.9,1-1.3,1.7-2.1 c0-0.1,0-0.2,0-0.3c0.2-1,0.3-1.6,0.6-2.6c0.6-0.1,0.9-0.1,1.6-0.2c0.9,0.4,1.3,0.6,2.1,1c1.1,0.5,1.7,0.8,2.8,1.3 c0.9,0,1.4,0,2.3-0.1c0.7-0.4,1-0.5,1.7-0.9c0.4,0.6,0.6,0.9,1,1.5c1-0.4,1.5-0.5,2.5-0.9c0.8,0.2,1.3,0.3,2.1,0.5 c0.2-0.1,0.3-0.2,0.4-0.3c0.7-0.4,1-0.6,1.7-0.9c0.4-0.3,0.7-0.4,1.1-0.7c0.2-0.2,0.3-0.2,0.6-0.4c0.9-0.8,1.3-1.2,2.2-2 c2.2-0.1,3.2-0.2,5.4-0.3c1.2-0.6,1.7-0.9,2.9-1.5c0.3,0,0.4,0,0.7,0c1.2,0.1,1.7,0.1,2.9,0.2c0.9-0.4,1.3-0.6,2.2-1.1 c1-0.8,1.5-1.2,2.4-2c1.2-0.4,1.8-0.6,3-1.1c0.4-0.5,0.6-0.7,1.1-1.2c0.2-1.2,0.3-1.7,0.5-2.9c0.4-0.1,0.6-0.1,1.1-0.1 c0.6,0.2,0.9,0.3,1.5,0.6c0.5-0.1,0.8-0.2,1.3-0.3c1-1,1.4-1.5,2.4-2.5c0.9-1.8,1.3-2.7,2.1-4.5c0.5-0.4,0.8-0.6,1.3-1 c1.7-0.2,2.6-0.3,4.4-0.5c0.9-0.9,1.4-1.4,2.4-2.4c0.6-0.2,0.9-0.3,1.6-0.6c1.5,0,2.2,0,3.7,0.1c0.4,0,0.5,0,0.9,0 c1.1-0.6,1.6-0.9,2.7-1.4c2.1-2.1,3.2-3.1,5.3-5.3c1-0.5,1.5-0.7,2.4-1.2c2.1,0.5,3.2,0.8,5.3,1.3c1.6-1,2.4-1.4,4-2.4 c1.9-0.3,2.9-0.5,4.8-0.8c0.6-0.5,0.8-0.7,1.4-1.2c0.4-0.8,0.7-1.2,1.1-2c0.1-1.1,0.2-1.6,0.4-2.6c0.4-0.3,0.7-0.4,1.1-0.6 c0.8,0.3,1.2,0.5,2,0.8c0.9-0.3,1.3-0.5,2.2-0.9c0.1-0.1,0.1-0.1,0.2-0.2c2.3-1.9,3.5-2.9,5.8-4.9c1.3-0.8,2-1.3,3.3-2.1 c1.4,0,2.1,0,3.5-0.1c0.4-0.3,0.7-0.4,1.1-0.7c1.2-0.6,1.8-0.9,2.9-1.6l0,0l0,0l0,0c0.1,0.3,0.1,0.4,0.2,0.7 C996,362,995.6,362.5,994.9,363.6z" fill="#FFFFFF"/>
    <path d="M438,764.7L438,764.7L438,764.7c-4.8-12.9-9.7-25.6-19.1-36c-6.3-6.7-11.8-8.6-15.7-9.1 c-0.3,0-0.5,0-0.8-0.1c-0.2,0-0.3,0-0.5,0c-2.6-0.1-4.4,0.5-4.4,0.5c6.1,13.2,14.7,25,25.6,34.6C431.4,761.6,437.9,764.7,438,764.7 L438,764.7z" fill="#4E5B31"/>
    <path d="M398.6,764.2c-4.3-1.2-8.6-1.9-13.1-2.3c-0.3,0-0.8-0.1-1.1-0.1c-9.3-0.7-15.8,0.5-15.9,0.4l0,0 c0,0.1-0.2,0.7,0,1.5s0.5,2.1,1.5,3.6c1.8,2.6,6.2,6.5,16.2,9.6c5.8,1.8,11.9,3,18.3,3.6l0,0c10.7,1.1,18.6,0,18.6,0l0,0l0,0 C416.9,772.6,408.2,767.2,398.6,764.2z" fill="#4E5B31"/>
    <path d="M373,746c-1.2-0.1-2.4-0.1-3.6,0.1l0,0c0,0-0.3,2.6,0.9,5.1c0.8,1.6,3.2,5.3,10.6,6l0,0 c2.7,0.2,4.6-0.1,5.3-1.2c0.9-1.3-0.2-3.2-0.6-3.8c-2-2.8-6.5-5.8-12.3-6.3C373.1,746.1,373.1,746.1,373,746z" fill="#4E5B31"/>
    <path d="M478.2,799.7L478.2,799.7L478.2,799.7z" fill="#4E5B31"/>
    <path d="M415.7,762.9L415.7,762.9L415.7,762.9z" fill="#4E5B31"/>
    <path d="M352.8,710.2c6.9,4,13.1,7,16.7,7.8c0.2,0,0.3,0,0.3,0l0,0c0.3,0,0.5,0,0.6-0.1c0.3-0.1,0.5-0.4,0.6-0.5 c0.3-0.7,0.3-1.3,0-2.5c-0.5-2-1.4-4.5-3-8.1c-2.7-5.7-6-11.6-6.5-12.3l0,0c0,0-4.8-5.9-10.8-11.8c-3.4-3.4-6.7-6.1-9.7-8.2 c-3.7-2.7-6.5-3.8-9.1-4.1c-0.7,0-1.3,0.1-1.9,0.2c0,0.4-0.6,4.6-0.1,9.9c0.6,7.3,2.5,12.8,5.7,16.4 C339.1,700.9,345.2,705.6,352.8,710.2z" fill="#4E5B31"/>
    <path d="M371.6,737.8L371.6,737.8c0-0.3-0.3-5-4.8-9.9c-8.6-8.7-21.7-11.5-33.5-12.6l0,0c0,0,0.6,4.3,2.6,8.8 c1.9,4.1,5.4,9.4,11.8,10.9s12.5,2.3,16.6,2.6l0,0C368.7,737.9,371.6,737.8,371.6,737.8z" fill="#4E5B31"/>
    <path d="M379.3,726.3c-1.2-0.1-2,0.1-2,0.1l0,0l0,0c1.4,12.1,10.2,21.4,20.1,27.6c9.2,6,18.3,9,18.4,9 c-5.2-11.3-12.1-22.6-21.9-30.4c-6.3-4.8-11.4-6-13.9-6.2C379.6,726.3,379.5,726.3,379.3,726.3z" fill="#4E5B31"/>
    <path d="M374,684.1L374,684.1c0,0.3,0.6,3.9,1.1,8c0.5,3.3,1.2,9.2,1.2,11.9c0,2.9,2.3,6.5,4.6,10.1 c2.3,3.4,4.6,6.2,4.6,6.2l0,0l0,0l0,0c0-0.1,1.1-10.3,1.1-20.6C386.6,689.4,374.5,684.3,374,684.1z" fill="#4E5B31"/>
    <path d="M433.3,770.6c-3.7-0.4-6,0.2-6,0.2l0,0c0,0.3,0.5,1.7,1.4,3.4c1.1,1.9,2.9,5,6.5,8.1 c12.1,10.5,27.6,14.1,42.9,17.2l0,0c-12-13.1-25.8-26.6-44.3-29C433.5,770.6,433.5,770.6,433.3,770.6z" fill="#4E5B31"/>
    <path d="M449.7,771L449.7,771c1.7,0.2,3.1-0.3,3.5-1.5c0.5-1,0.3-2.4-0.3-4.2c-1.4-3.2-4.3-6.4-8.1-6.9 c-0.1,0-0.1,0-0.2,0c-0.8-0.1-1.5,0-2.5,0.3c0,0.3-0.3,3,0.6,5.8c0.5,1.8,1.2,3.2,2.2,4.2C446,769.9,447.9,770.8,449.7,771z" fill="#4E5B31"/>
    <path d="M536,836.7C535.9,836.7,535.9,836.7,536,836.7c-8.4-1.3-13.6,0.3-16.4,1.9c-3,1.6-4.3,3.6-4.3,3.6l0,0l0,0 c8.1,5.8,19.3,10.7,29.2,12.1l0,0l0,0c15.6,2.4,25.8-2.4,26.4-2.8C560.2,844.8,548.5,838.9,536,836.7z" fill="#4E5B31"/>
    <path d="M505.2,810.6c-6.7-0.7-11.4,0.6-11.7,0.6c0,0.3,0.2,1.4,0.9,2.9c0.8,1.6,2.3,4,5.6,6.4 c5.6,4.2,14.1,7.2,25,8.8l0,0c5.2,0.8,10.7,1.2,16.8,1.5l0,0l0,0c-8.8-10-21.5-17.9-34.8-20C506.4,810.7,505.8,810.7,505.2,810.6z" fill="#4E5B31"/>
    <path d="M600.8,862.9c-0.3,0.4-0.5,0.6-0.8,1c0.1,0.1,0.2,0.2,0.3,0.3c0.7,0.9,4.2,6.2,8.5,12.3 c2.2,3.1,4.7,6.6,6.5,8.9c1,1.3,1.8,2.1,2.2,2.6c0.1,0.1,0.1,0.1,0.1,0.2c0.1,0.2,0.3,0.3,0.4,0.3l0,0c0.1,0,0.1,0,0.1,0 c1.1,0.1,1.7,0.1,2.8,0.2c-0.6-0.5-0.8-0.8-1.4-1.3c-0.5,0.2-0.8,0.4-1.3,0.6c0-0.1,0.1-0.4,0.4-0.6c0.3-0.4,0.8-0.8,1.3-1.3 c1.1-1,2.8-2.3,4.1-3.2c2.8-2.1,5.8-4,5.8-4l0,0c-7.9-6.9-11.9-10.4-19.6-17.4C606.5,862.1,604.6,862.4,600.8,862.9z" fill="#4E5B31"/>
    <path d="M483.8,812.1c-5.6-4.6-14.2-7.6-25.5-9c-0.8-0.1-1.5-0.2-2.3-0.3c-12.6-1.3-23.8,0-23.8,0.1l0,0l0,0 c10.4,9.7,24.8,15.5,38.8,17.2l0,0c0.4,0,0.5,0.1,0.9,0.1c6.6,0.7,11.1,0.5,13.5-1c1.2-0.7,1.8-1.7,1.7-2.7 C486.8,815.1,485.8,813.7,483.8,812.1z" fill="#4E5B31"/>
    <path d="M600,857.4c-0.3-0.1-0.5-0.2-0.8-0.3c-5.5-3.4-8.3-5.2-13.9-8.6c-1.6,1.6-2.4,2.4-4.1,4c3.1,2,4.6,3,7.6,5 c0.5,0.2,0.7,0.3,1.2,0.5c0.2-0.1,0.2-0.1,0.4-0.2C594.3,857.6,596.2,857.6,600,857.4z" fill="#4E5B31"/>
    <path d="M496.1,826.1c-0.1,0-0.1,0-0.2,0c-0.8-0.1-1.5-0.1-2.4,0.2c0,0.3-0.3,3,0.6,5.8c0.5,1.7,1.2,3.2,2.1,4.3 c1.2,1.4,2.9,2.2,4.8,2.5l0,0c1.7,0.2,3-0.4,3.5-1.4s0.3-2.4-0.4-4.3C502.8,830.1,499.8,826.6,496.1,826.1z" fill="#4E5B31"/>
    <path d="M575.9,842.2c-8.6-15.8-20.1-35.8-39.5-39c-2.3-0.4-3.9-0.2-3.9-0.2l0,0l0,0c0,0-1,6.4,3.8,14.3 C545.6,830.8,561,836.8,575.9,842.2L575.9,842.2L575.9,842.2L575.9,842.2z" fill="#4E5B31"/>
    <path d="M434.8,796.2c0.3-0.9,0.3-2.2-0.3-3.6c-0.6-1.4-1.5-2.8-2.6-3.9c-0.8-0.8-2.2-1.9-4-2.1l0,0 c-0.6-0.1-1.4,0-1.8,0.2l0,0c0,0-0.2,2.5,0.5,5.1c0.3,1.5,0.9,2.7,1.7,3.6c0.9,1.1,2.3,1.9,3.8,2.1l0,0 C433.6,797.7,434.5,797,434.8,796.2z" fill="#4E5B31"/>
    <path d="M521,807.3L521,807.3c1.6,0.2,3-0.4,3.4-1.4s0.3-2.4-0.4-4.3c-1.2-3.2-4.1-6.5-7.8-7.1c-0.1,0-0.1,0-0.1,0 c-0.7-0.1-1.5-0.1-2.4,0.2c0,0.3-0.3,3,0.6,5.9c0.4,1.7,1.2,3.2,2.1,4.3C517.5,806.1,519.1,807,521,807.3z" fill="#4E5B31"/>
    <path d="M467.8,767.6c-0.3,0-0.6-0.1-0.9-0.1s-0.6-0.1-0.8-0.1c-3.5-0.3-6-0.1-6-0.1c0.2,0.3,1.8,6.1,8,12.9 c9.3,10.1,22.5,17.4,35.8,20.7l0,0l0,0C498.4,784.3,485.7,770.3,467.8,767.6z" fill="#4E5B31"/>
    <path d="M834,787.2c-4.5,4.2-4.8,8.9-4.8,9.1l0,0c0,0,2.8,0.5,7,0.7l0,0c4,0.3,10.1,0.4,16.4-0.4 c6.3-0.7,9.8-5.5,11.7-9.5c2-4.3,2.6-8.4,2.6-8.5l0,0C856.3,778.3,842.4,779.8,834,787.2z" fill="#4E5B31"/>
    <path d="M832.2,821.2c0,0-6.6-2.1-15.7-2.9c-0.3,0-0.8-0.1-1.1-0.1c-4.4-0.3-8.8-0.3-13,0.1 c-15.9,1.6-24.3,11.7-24.5,11.7l0,0l0,0c0.2,0,7.8,2.7,18.4,3.6l0,0c6.2,0.5,12.4,0.4,18.2-0.4c9.9-1.6,14.3-4.7,16.1-7.1 c1-1.3,1.3-2.7,1.5-3.3C832.3,821.9,832.3,821.2,832.2,821.2L832.2,821.2z" fill="#4E5B31"/>
    <path d="M868.4,734.2c-2.6-0.1-5.2,0.9-9,3.1c-2.9,1.8-6.2,4.1-9.5,7c-5.9,5.1-10.7,10.2-10.7,10.3l0,0 c-0.4,0.7-3.7,6.1-6.4,11.4c-1.6,3.3-2.7,5.9-3,7.6c-0.2,1.1-0.3,1.8,0,2.5c0.1,0.3,0.3,0.6,0.6,0.6c0.1,0.1,0.4,0.2,0.6,0.2l0,0 c0.1,0,0.3,0,0.3,0c3.6-0.3,9.7-2.4,16.5-5.5c7.5-3.5,13.5-7.5,17-11.2c3.2-3.3,5.1-8.7,5.7-15.8c0.4-5.1-0.1-9.5-0.1-9.9 C869.7,734.2,869.2,734.2,868.4,734.2z" fill="#4E5B31"/>
    <path d="M814.4,755.9c0,10.3,1,20.6,1,20.8l0,0l0,0l0,0c0,0,2.3-2.4,4.5-5.4c2.4-3.1,4.5-6.5,4.5-9.4 c0-2.7,0.8-8.6,1.2-11.7c0.6-4.1,1.1-7.5,1.2-7.9l0,0C826.4,742.4,814.4,745.6,814.4,755.9z" fill="#4E5B31"/>
    <path d="M785.5,813.8c0.2,0,9.1-1.2,18.2-5.5c10-4.6,18.5-12.9,19.9-24.2l0,0l0,0c0,0-0.7-0.2-2-0.4 c-0.2,0-0.3,0-0.5,0c-2.6-0.2-7.5,0.1-13.7,3.9C797.7,793.6,790.7,803.6,785.5,813.8z" fill="#4E5B31"/>
    <path d="M785.5,813.8L785.5,813.8L785.5,813.8z" fill="#4E5B31"/>
    <path d="M659.5,850L659.5,850c6.2,1.7,11.9,2.8,17,3.5l0,0c11,1.5,19.6,0.9,25.1-1.8c3.2-1.6,4.8-3.5,5.6-4.9 c0.8-1.3,0.9-2.5,0.9-2.6c-0.3-0.2-4.8-2.5-11.7-3.7c-0.6-0.1-1.2-0.2-1.8-0.2C681.1,838.3,670.7,843.3,659.5,850L659.5,850z" fill="#4E5B31"/>
    <path d="M669,825.1L669,825.1c0,0-1.6-0.7-4-1c-18.3-2.5-30.8,12.9-40.2,26.4l0,0l0,0l0,0 c13.6-0.4,30.8-0.7,40.2-12.5C670,831.8,669,825.1,669,825.1L669,825.1z" fill="#4E5B31"/>
    <path d="M734.8,807.2c-0.3,0-0.6-0.1-0.9-0.1c-16.7-1.8-30.5,8.5-36.2,24.1l0,0l0,0c12.9-0.2,25.7-3.1,35.8-11.5 c6.1-5.3,7.9-10.8,7.9-11c0,0-2.4-0.8-5.9-1.4C735.2,807.3,734.9,807.2,734.8,807.2z" fill="#4E5B31"/>
    <path d="M723.5,836.6L723.5,836.6c13.7,1.6,30.9,1,42.7-7.2c3.5-2.5,5.5-5.1,6.4-6.8s1.4-2.9,1.4-3.2l0,0 c0,0-2.3-0.9-5.9-1.4c-0.2,0-0.4,0-0.6-0.1C750.3,816.1,735.9,826.4,723.5,836.6z" fill="#4E5B31"/>
    <path d="M751.8,814.6L751.8,814.6c2,0.2,3.7-0.3,4.9-1.3c0.9-0.9,1.7-2,2.1-3.8c0.8-2.7,0.6-5.4,0.6-5.7 c-0.8-0.4-1.7-0.6-2.4-0.8c-0.1,0-0.1,0-0.2,0c-3.8-0.4-6.9,2.3-8.1,5c-0.8,1.6-0.8,2.9-0.3,4.1 C748.8,813.6,750.1,814.4,751.8,814.6z" fill="#4E5B31"/>
    <path d="M723.5,836.6L723.5,836.6L723.5,836.6z" fill="#4E5B31"/>
    <path d="M680.5,832.7L680.5,832.7c1.9,0.3,3.6-0.2,4.8-1.1c0.9-0.8,1.6-2,2.1-3.7c0.8-2.6,0.6-5.4,0.6-5.7 c-0.7-0.4-1.6-0.6-2.4-0.9c-0.1,0-0.1,0-0.1,0c-3.7-0.5-6.7,2.1-7.9,4.8c-0.7,1.5-0.9,3-0.5,4.2 C677.6,831.5,678.9,832.5,680.5,832.7z" fill="#4E5B31"/>
    <path d="M682.1,864.3c-2.8-2.3-8-5.4-16.4-6.7c-0.1,0-0.2,0-0.3,0c-11.8-1.6-24,0.5-35.3,3.9 c7.8,5.8,17.1,9.6,26.8,11.1l0,0l0,0c9.2,1.6,20.9,0.2,29.4-3.5l0,0l0,0C686.3,869.2,685.1,866.8,682.1,864.3z" fill="#4E5B31"/>
    <path d="M803.3,774.4c0,0-1.7-1-4.4-1.3c-0.2,0-0.3,0-0.5,0s-0.5,0-0.8-0.1c-3.6-0.2-9.3,0.7-15.5,6.2 c-9.5,8.7-14.2,20.4-18.9,32l0,0l0,0l0,0c0,0,6.4-1.7,14.5-6.9C789.3,796.5,796.5,786.2,803.3,774.4z" fill="#4E5B31"/>
    <path d="M775.1,835.5c-0.6-0.3-1.2-0.5-1.8-0.6l0,0c-1.8-0.2-3.1,0.5-4,1.3c-1.1,0.9-2,2-2.6,3.3s-0.6,2.5-0.3,3.5 c0.3,0.9,1.4,1.8,2.7,1.9l0,0c1.5,0.2,2.9-0.3,3.8-1.3c0.8-0.7,1.4-1.8,1.7-3.3C775.4,838.1,775.1,835.6,775.1,835.5L775.1,835.5z" fill="#4E5B31"/>
    <path d="M745.4,845c-0.8-0.1-1.5-0.2-2.3-0.3c-11.1-1.2-19.6-0.3-25.4,2.8c-2,1.1-3,2.2-3.3,3.4 c-0.2,0.9,0.5,2.1,1.7,3.1c2.6,2.1,7.1,3.5,13.5,4.4c0.4,0,0.5,0.1,0.9,0.1l0,0c13.2,1.5,27.6-0.2,38.6-8.3l0,0l0,0 C769,850.4,757.9,846.7,745.4,845z" fill="#4E5B31"/>
    <path d="M830.7,810.2c1.2-2.4,0.9-5,0.9-5l0,0c-1.2-0.4-2.4-0.6-3.6-0.7c-0.1,0-0.2,0-0.3,0 c-5.7-0.4-10.2,1.9-12.2,4.3c-0.5,0.5-1.5,2.2-0.6,3.7c0.8,1.2,2.6,1.8,5.3,2l0,0C827.4,815,829.9,811.6,830.7,810.2z" fill="#4E5B31"/>
    <path d="M705.7,858.4c-0.1,0-0.1,0-0.2,0c-3.8-0.5-6.8,2.1-8,4.9c-0.8,1.5-0.9,3-0.5,4.2s1.8,2.2,3.5,2.4l0,0 c2,0.3,3.6-0.2,4.8-1.2c0.9-0.8,1.7-2,2.1-3.7c0.8-2.6,0.6-5.4,0.6-5.7C707.2,858.9,706.4,858.5,705.7,858.4z" fill="#4E5B31"/>
    <path d="M610.3,861.5c0.5-0.1,0.7-0.1,1.2-0.2c3.2-0.9,4.7-1.3,7.9-2.2c-1.7-2.1-2.5-3.2-4.2-5.4 c-5.8,1.5-8.7,2.2-14.3,3.7c-0.3,0-0.5,0-0.8,0c-3.8,0.2-5.7,0.2-9.6,0.4c-0.2,0.1-0.3,0.2-0.5,0.3c-7.5,4.4-11.3,6.5-19.1,10.9 l0,0c0,0,2.9,2.8,5.7,5.9c1.2,1.3,2.9,3.1,4,4.5c0.5,0.6,1,1.3,1.2,1.7c0.1,0.3,0.3,0.6,0.4,0.8c-0.5-0.4-0.7-0.6-1.2-1 c-0.5,0.3-0.8,0.5-1.4,0.9c1.1,0.3,1.6,0.4,2.7,0.7c0.1,0,0.1,0,0.1,0l0,0c0.3-0.1,0.3-0.1,0.4-0.2c0.1,0,0.1-0.1,0.1-0.1 c0.4-0.3,1.2-0.9,2.2-1.8c1.8-1.8,4.2-4.4,6.3-6.7c4.1-4.6,7.6-8.6,8.2-9.4c0.1-0.1,0.2-0.1,0.3-0.2c0.3-0.4,0.5-0.6,0.8-1 C604.6,862.4,606.5,862.1,610.3,861.5z" fill="#4E5B31"/>
    <path d="M996.1,361.4c0,0.1,0,0.1,0,0.1l0,0C996.1,361.5,996.1,361.5,996.1,361.4z" fill="#D57800"/>
    <path d="M993.3,363.1c-0.4,0.3-0.7,0.4-1.1,0.7c-1.4,0-2.1,0.1-3.5,0.1c-1.3,0.8-2,1.3-3.3,2.1 c-2.3,2-3.5,2.9-5.8,4.9c-0.1,0.1-0.1,0.1-0.2,0.2c-0.9,0.3-1.3,0.5-2.2,0.9c-0.8-0.3-1.2-0.5-2-0.8c-0.5,0.3-0.7,0.5-1.2,0.8 c-0.1,1.1-0.2,1.6-0.4,2.6c-0.4,0.8-0.7,1.2-1.1,2c-0.6,0.5-0.8,0.7-1.4,1.2c-1.9,0.3-2.9,0.5-4.8,0.8c-1.6,1-2.4,1.5-4,2.4 c-2.1-0.5-3.2-0.8-5.4-1.3c-1,0.5-1.5,0.7-2.4,1.2c-2.1,2.1-3.2,3.2-5.3,5.2c-1.1,0.6-1.6,0.9-2.7,1.4c-0.4,0-0.5,0-0.9,0 c-1.5,0-2.2,0-3.7-0.1c-0.6,0.2-0.9,0.3-1.6,0.6c-0.9,0.9-1.4,1.4-2.4,2.4c-1.7,0.2-2.6,0.3-4.4,0.4c-0.5,0.4-0.8,0.6-1.3,1 c-0.9,1.8-1.3,2.7-2.1,4.5c-1,1-1.4,1.5-2.4,2.5c-0.5,0.1-0.8,0.2-1.3,0.3c-0.6-0.2-0.9-0.3-1.5-0.6c-0.4,0.1-0.6,0.1-1.1,0.1 c-0.2,1.2-0.3,1.7-0.5,2.9c-0.4,0.5-0.6,0.7-1.1,1.2c-1.1,0.3-1.7,0.4-2.8,0.7c-1,0.8-1.5,1.2-2.4,2c-0.9,0.4-1.3,0.6-2.2,1.1 c-1.1-0.1-1.7-0.1-2.9-0.2c-0.3,0-0.4,0-0.7,0c-1.2,0.6-1.7,0.9-2.9,1.5c-2.2,0.1-3.2,0.2-5.4,0.3c-0.9,0.8-1.3,1.2-2.2,2 c-0.2,0.2-0.3,0.2-0.6,0.4c-0.4,0.3-0.7,0.4-1.1,0.7c-0.7,0.4-1,0.6-1.7,0.9c-0.2,0.1-0.3,0.2-0.4,0.3c-0.8-0.2-1.3-0.3-2.1-0.5 c-1,0.4-1.5,0.5-2.5,0.9c-0.4-0.6-0.6-0.9-1-1.5c-0.7,0.4-1,0.5-1.7,0.9c-0.9,0-1.4,0-2.3,0.1c-1.1-0.5-1.7-0.8-2.8-1.3 c-0.9-0.4-1.3-0.6-2.1-1c-0.6,0.1-0.9,0.1-1.6,0.2c-0.2,1-0.3,1.6-0.6,2.6c0,0.1,0,0.2,0,0.3c-0.7,0.9-1,1.3-1.7,2.1 c-1.3,0.7-1.9,1-3.2,1.7c-0.2,0.2-0.3,0.3-0.4,0.5c-1.4,1.7-2.2,2.5-3.6,4.2c-2.7,2.6-4.1,3.9-6.8,6.6c-2.3,1-3.5,1.5-5.8,2.5 c-2.4,0.6-3.6,0.9-6,1.5c-1.7,1.2-2.6,1.8-4.3,3.1c-4.5,1.8-6.7,2.7-11.2,4.5c-7.1,2.8-10.7,4.2-17.9,7c-1.5,0.3-2.2,0.5-3.7,0.8 c-2.1,0.2-3.2,0.3-5.3,0.4c-3.8,1-5.7,1.4-9.5,2.4c-3.3,0.7-5,1-8.3,1.6c-0.2,0-0.3,0.1-0.5,0.1c-0.7,0.1-1,0.2-1.7,0.3 c-4.7,0.9-7.1,1.3-11.8,2.2c-2.2-0.4-3.3-0.6-5.5-1.1c-1.3,0.3-2,0.5-3.3,0.8c-3.4-0.7-5.1-1-8.5-1.7c-2.4-0.2-3.6-0.3-5.9-0.5 c-1.5,0.1-2.3,0.2-3.8,0.3c-2.8,0.9-4.2,1.4-7,2.3c-4.8,1.6-7.1,2.3-11.9,3.9c-1.6,1.1-2.4,1.7-4,2.8c-2.4,0.9-3.6,1.3-6.1,2.2 c-2.9,0.5-4.3,0.7-7.1,1.2c0-1.1,0-1.6,0-2.7c0-0.1,0-0.1,0-0.1c-1,0.2-1.5,0.2-2.4,0.4c-0.7,0.1-1.1,0.2-1.8,0.3 c-2.3,0-3.4,0.1-5.7,0.1c-1.3-0.2-1.9-0.2-3.2-0.4c-0.8-0.3-1.2-0.5-2-0.8c-0.1,0-0.2,0.1-0.3,0.1c-4.7,0.8-7,1.2-11.7,2 c-5.2-0.3-7.8-0.4-13-0.7c-2.6,0.4-3.9,0.6-6.5,1c-2-0.3-2.9-0.5-4.9-0.9c-1.2,0.2-1.8,0.2-3,0.4c-2.4-0.1-3.5-0.1-5.9-0.2 c-0.8-0.3-1.2-0.5-2.1-0.9c-0.2-0.1-0.3-0.1-0.4-0.2c-6.9-0.8-10.3-1.2-17.1-2c-3.1-0.8-4.7-1.3-7.7-2.1c-1.5,0.1-2.2,0.1-3.7,0.2 c-2.4-1.2-3.7-1.8-6.1-3c-3.6-1-5.3-1.5-8.9-2.5c-0.8-0.4-1.3-0.6-2.1-0.9c-1.8-0.9-2.8-1.3-4.6-2.2c-0.8,0.3-1.2,0.5-2.1,0.9 c-0.6-0.1-0.9-0.1-1.5-0.1c-1.4-0.8-2.1-1.2-3.6-2c-0.5-0.1-0.8-0.1-1.3-0.2c-1.2,0.2-1.8,0.3-2.9,0.6c-0.7-0.3-1-0.4-1.7-0.7 c-0.6-0.6-1-0.9-1.6-1.5c-1.5-0.5-2.3-0.7-3.8-1.2c-0.9-0.9-1.4-1.4-2.3-2.3c-5.1-0.2-7.7-0.3-13-0.6c-1.4-0.7-2.2-1-3.6-1.7 c-4.8-2.2-7.3-3.3-12.2-5.4c-0.8-0.1-1.2-0.1-2-0.2c-1,0.6-1.5,0.8-2.4,1.4c-1.4,0.3-2.2,0.4-3.6,0.7c-1.3,0.1-1.9,0.2-3.2,0.3 c-1.7-0.2-2.6-0.3-4.4-0.5c-2-0.8-3.1-1.2-5.1-2c-2.1-1.3-3.2-1.9-5.3-3.1c-0.8-0.3-1.1-0.4-1.9-0.7c-1.8-0.1-2.7-0.1-4.4-0.2 c-0.5,0-0.8,0-1.3-0.1c-3.3-2.1-4.9-3.1-8.2-5.2c-4.2-3-6.3-4.5-10.5-7.5c-2.9-1.7-4.3-2.5-7.2-4.2c-1.1-0.3-1.6-0.5-2.7-0.8 c-0.1,0.5-0.2,0.7-0.3,1.2c0.5,1.6,0.8,2.4,1.4,4c0.2,1.6,0.3,2.3,0.5,3.9c-0.1,1.4-0.1,2.1-0.2,3.5c0,0.9,0,1.3,0,2.2 c0.2,0.8,0.4,1.2,0.6,2c1,1.2,1.5,1.8,2.6,3c0.4,1.1,0.6,1.7,1.1,2.8c0.3,3,0.5,4.4,0.8,7.4c0,3,0,4.4,0,7.4 c-0.5,4.7-0.7,7-1.2,11.6c-0.2,0.7-0.3,1-0.5,1.7c-0.6,2.3-0.9,3.5-1.5,5.8c-0.5,2.2-0.8,3.3-1.4,5.4c-2.1,5.6-3.2,8.5-5.3,14.1 c-0.6,0.6-0.9,0.9-1.5,1.6c-1.5,0.7-2.2,1-3.6,1.7c-3.3,1.6-4.9,2.4-8.2,4c-2.4,0.9-3.7,1.4-6.1,2.4c-0.8,0.2-1.2,0.3-2,0.4 c-2-0.1-2.9-0.2-4.9-0.3c-1.2-0.2-1.8-0.3-3.1-0.5c-1.5-1-2.3-1.4-3.8-2.4c-1.5-0.5-2.3-0.8-3.8-1.3c-2-1.5-3-2.2-4.9-3.7 c-2.2-0.6-3.3-1-5.5-1.6c-2.4-1.5-3.6-2.3-6-3.8c-0.6-0.7-0.9-1.1-1.5-1.8c-1.3-0.3-1.9-0.4-3.2-0.6c-1.8-0.7-2.8-1-4.6-1.7l0,0 c-0.7-0.2-1-0.4-1.7-0.6c-0.5-0.2-0.7-0.2-1.2-0.4l0,0c-2.3-0.3-3.5-0.5-5.8-0.7c-2-1.3-3-1.9-4.9-3.2c-1.2-0.4-1.8-0.6-2.9-1 c-1.5-0.2-2.3-0.3-3.8-0.5c-1.7,0.5-2.5,0.7-4.1,1.2l0,0c-0.9,0.2-1.3,0.4-2.1,0.6c-1-0.5-1.6-0.7-2.6-1.2c-0.7,0-1.1,0-1.8,0 c-0.9,1.1-1.3,1.6-2.1,2.7c-0.1,0.2-0.2,0.2-0.3,0.4c-0.6,0.2-0.9,0.3-1.5,0.5c-0.7-0.1-1.1-0.1-1.8-0.2c-0.5,0-0.8-0.1-1.4-0.1 c-0.6,0.2-0.9,0.2-1.5,0.4c-0.9,0.3-1.3,0.4-2.1,0.6l0,0c-0.7,0.2-1.1,0.3-1.8,0.5c-0.4,0.1-0.5,0.2-0.9,0.3l0,0 c-0.2,0-0.4,0.1-0.6,0.1c-0.4,0-0.5,0-0.9,0.1c-0.5,0.1-0.7,0.1-1.2,0.2c-0.8-0.5-1.3-0.8-2.1-1.3c-0.5-0.3-0.7-0.4-1.2-0.6 c-0.8-0.2-1.2-0.3-2-0.6c-0.4,0.2-0.6,0.4-1.1,0.6c-0.1,1.3-0.1,1.9-0.2,3.1c-0.4,0.7-0.5,1.1-0.9,1.8c-1.2,0.8-1.8,1.3-3,2.1 c-1.2,0.9-1.8,1.3-3,2.2c-0.8,1-1.3,1.6-2.1,2.6c-2.2,4.4-3.3,6.7-5.5,11.1c-1.4,1.8-2.1,2.7-3.4,4.4c-0.4,0.4-0.6,0.6-1,1 c-1.4,1.4-2.1,2.1-3.6,3.5c-1.2,0.9-1.9,1.3-3.1,2.1c-2.9,1.9-4.4,2.9-7.2,4.8c-2.8,0.8-4.1,1.2-6.9,1.9c-2.3,0.3-3.5,0.5-5.8,0.8 c-1.2-0.1-1.7-0.1-2.9-0.1c-2.1-0.4-3.2-0.6-5.3-0.9c-1.9-0.6-2.8-0.9-4.7-1.6c-2.1-1.3-3.2-2-5.3-3.4c-2.3-1.8-3.4-2.8-5.7-4.6 c-3.3-3.2-4.9-4.8-8.1-8c-0.4-0.3-0.7-0.4-1.1-0.7c-0.1-0.1-0.2-0.1-0.3-0.1c-1-0.7-1.5-1-2.5-1.7c-0.8,0-1.2,0-1.9,0 c-0.3,0.5-0.4,0.7-0.7,1.2c-0.2,0.7-0.2,1.1-0.4,1.8c-0.1,0.6-0.2,0.9-0.3,1.5c-0.4,3.5-0.6,5.3-1,8.8c0,0.2,0,0.3,0,0.5 c0.2,1.4,0.2,2.1,0.4,3.6c2.4,3.4,3.6,5.1,6.1,8.5c0.8,1.8,1.2,2.7,1.9,4.6c0.1,0.2,0.2,0.3,0.3,0.6c0.5,0.8,0.8,1.3,1.3,2.1 c0.4,0.7,0.6,1,1,1.7c0.1,0.1,0.1,0.1,0.1,0.1c0.8,2.5,1.3,3.7,2.1,6.2c-0.6,1.4-0.9,2-1.5,3.4c0.3,0.9,0.4,1.4,0.7,2.4 c-0.7,0.5-1.1,0.8-1.8,1.3c-0.1,0.8-0.2,1.2-0.3,2.1c2.2,2.8,3.4,4.2,5.6,7c0.5,1.2,0.8,1.8,1.3,3.1c-0.6,1.6-0.8,2.4-1.4,4.1 c-0.8,0.9-1.3,1.4-2.1,2.3c-0.2,0.3-0.3,0.4-0.6,0.7c0.1,0.7,0.2,1.1,0.3,1.8c1,0.9,1.5,1.4,2.5,2.3c1.7,1.6,2.6,2.4,4.4,4 c0.9,2.3,1.4,3.4,2.3,5.7c0.7,0.6,1.1,0.9,1.8,1.6c0.9-0.1,1.3-0.2,2.1-0.3c0.5,0.3,0.7,0.5,1.1,0.9c0.7,0,1,0,1.7,0.1 c0.7,0.7,1,1,1.7,1.7c0.5,0.2,0.7,0.4,1.2,0.6c0.7,0.4,1,0.5,1.7,0.9c0.6,0.7,0.9,1.1,1.4,1.8c0.1,2.1,0.2,3.2,0.3,5.4 c1,2.7,1.6,4.1,2.6,6.8c0,1.4,0,2.1,0,3.6c0,0.2,0,0.3,0,0.5c0.6,1.1,1,1.6,1.6,2.7c0.2,0.8,0.3,1.3,0.6,2.1 c-0.3,2.2-0.5,3.3-0.9,5.6c0.8,0.8,1.2,1.1,2,1.9c0.9-0.1,1.4-0.2,2.3-0.3c0.6,0.1,0.9,0.2,1.5,0.4c0.9,0.8,1.4,1.2,2.3,2 c1.2,1.7,1.8,2.6,2.9,4.3c1.1-0.1,1.7-0.2,2.8-0.2c0.7,0.4,1.1,0.6,1.8,0.9c3.5,3.1,5.2,4.7,8.7,7.8c0.8,0.4,1.2,0.7,1.9,1.1 c0.1,0,0.1,0,0.1,0c0.6,0.3,0.9,0.5,1.5,0.8c0.7,0.7,1.1,1.1,1.8,1.8c1.1-0.6,1.7-0.9,2.8-1.4c0.1,0,0.2,0,0.3,0c1.2,0,1.8,0,3-0.1 c0.5,0.4,0.8,0.6,1.4,0.9c1,0.7,1.5,1,2.6,1.7c1.3,0.1,2,0.2,3.3,0.3c2.9,1,4.3,1.6,7.3,2.6c1.3,0.4,1.9,0.6,3.2,1 c2.6,1.6,3.9,2.5,6.5,4.1c1.1,0.7,1.6,1.1,2.7,1.8c0.7,0.6,1,0.8,1.7,1.4c0.9,0.7,1.3,1.1,2.1,1.8c1.7,0.8,2.6,1.2,4.3,2 c1.5,0.5,2.2,0.7,3.7,1.2c0.8,0.2,1.2,0.4,2,0.6c0.6,0.3,0.9,0.4,1.5,0.7c0-0.1,0-0.1,0-0.1l0,0c0,0.1,0,0.1,0,0.1 c3.2,1.4,4.9,2.1,8.1,3.5c1.8,0.6,2.7,0.8,4.5,1.4c1.6,0.7,2.4,1.1,4,1.8c1.2,0.5,1.8,0.8,2.9,1.3c0.9,0.1,1.3,0.1,2.2,0.2 c1.2-0.8,1.8-1.2,3.1-2c1.2,0.1,1.8,0.1,2.9,0.2c1,0.3,1.5,0.5,2.5,0.8c1-0.1,1.5-0.1,2.5-0.1c1.5-0.7,2.3-1,3.8-1.6 c0.3-0.3,0.5-0.5,0.8-0.9c1.1-0.3,1.7-0.5,2.8-0.8c3.6,0,5.4,0.1,9.1,0.1c1,0.5,1.6,0.7,2.6,1.1c2.8-0.7,4.1-1.1,6.9-1.8 c1.8,0.7,2.8,1,4.6,1.7c1.6-0.3,2.4-0.4,4-0.7c3.5,1.2,5.3,1.7,8.9,2.9c0.9,0.7,1.4,1.1,2.3,1.8c1,1.2,1.6,1.9,2.6,3.1 c0.1,0,0.2,0,0.3,0c1.2,0.2,1.7,0.2,2.9,0.4c-0.5,0.6-0.7,1-1.2,1.6c1.5,1.6,2.3,2.4,3.8,4.1c1.4,2.1,2.1,3.1,3.5,5.1 c0.1,0.3,0.2,0.4,0.3,0.7c1,2.8,1.5,4.2,2.6,7.1c0.7,1,1.1,1.5,1.8,2.6c0.5,1.4,0.8,2.1,1.4,3.5c0,0.9,0,1.3,0,2.2 c-0.8,0.4-1.2,0.7-2,1.1c-0.1,0.3-0.2,0.5-0.3,0.8c-0.1,0.1-0.1,0.2-0.2,0.3c0.2,0.4,0.3,0.6,0.5,1c0.3-0.1,0.5-0.2,0.8-0.3 c0.6-0.2,0.9-0.3,1.5-0.5c0.7,0,1.1,0,1.8,0c1.3,0.3,1.9,0.4,3.2,0.7c0.8,0.2,1.3,0.3,2.1,0.4c1.3-0.4,2-0.6,3.3-1 c0.8-0.3,1.3-0.4,2.1-0.7c1.4,0.7,2.1,1.1,3.4,1.9c1.5,0.2,2.2,0.3,3.7,0.5c0.7,0.4,1,0.6,1.6,0.9c1.8,1,2.7,1.5,4.4,2.6 c0.9,0.2,1.3,0.3,2.2,0.5c0.4-0.2,0.5-0.3,0.9-0.4c0.2-0.5,0.4-0.7,0.6-1.1c-0.1-0.6-0.2-0.8-0.3-1.4c-0.6-0.8-1-1.2-1.6-2 c-1.5-1.8-2.2-2.7-3.7-4.5c-0.6-0.9-0.9-1.4-1.5-2.3c-0.5-1.3-0.7-1.9-1.2-3.2c-0.1-1.6-0.2-2.3-0.3-3.9c-0.1-1.1-0.2-1.6-0.3-2.7 c0.2-1.3,0.3-2,0.4-3.4c0.4-0.4,0.6-0.6,1-1.1c0.3-1.1,0.4-1.6,0.7-2.6l0,0c0.1-0.3,0.1-0.4,0.1-0.7c0.8-0.9,1.2-1.4,2.1-2.3 c2.2-1,3.3-1.5,5.4-2.5c2.3-1.6,3.5-2.4,5.9-4.1c1.9-0.9,2.8-1.3,4.7-2.2c1.9-0.5,2.9-0.7,4.8-1.2c0.1-0.2,0.1-0.3,0.1-0.5 c0.2,0.1,0.3,0.1,0.6,0.2c4.8-0.8,7.2-1.2,11.9-2c0.1,0,0.1,0,0.1,0c2.1,0,3.1,0,5.2,0c11.4,2.7,22.7,5.4,34.1,8.3 c0.5-0.1,0.7-0.1,1.2-0.2l0,0c0.4-1.2,0.6-1.8,1.1-3c0.2-0.2,0.3-0.3,0.5-0.5c0.2-0.1,0.2-0.2,0.4-0.3c1.4-0.4,2.2-0.6,3.7-1 c0.7,0,1.1,0,1.8,0c2,0.8,3,1.3,5,2.1c0.8,0.4,1.3,0.5,2.1,0.9c1.3-0.5,1.9-0.7,3.2-1.2c1,0.2,1.4,0.2,2.4,0.4 c1.9-0.7,2.9-1.1,4.8-1.8c1.2,0.3,1.8,0.4,3,0.6c0.5-0.1,0.7-0.1,1.1-0.2c2.3-1.3,3.5-1.9,5.8-3.2c2.3-0.2,3.4-0.3,5.7-0.6 c0.6-0.2,0.9-0.3,1.4-0.5c0.2-0.1,0.3-0.1,0.6-0.2c2.4-0.8,3.6-1.2,5.9-1.9c1.5-0.9,2.3-1.3,3.8-2.2c1.3-0.5,1.9-0.7,3.2-1.2 c1.4-0.1,2.1-0.2,3.5-0.3c3.7,0.3,5.6,0.5,9.4,0.8c0.8-1,1.2-1.6,1.9-2.6c1.6,0,2.4,0,4,0c1-0.9,1.5-1.3,2.5-2.2 c1.1-0.3,1.7-0.4,2.8-0.7c0.8-1,1.3-1.5,2.1-2.4c0.7-0.8,1-1.2,1.6-2c1-0.4,1.4-0.5,2.4-0.9c3,0.3,4.6,0.4,7.6,0.6 c3.6,0.9,5.4,1.3,9,2.1c0.5-0.2,0.7-0.3,1.2-0.5c0.8-2.6,1.3-3.9,2.1-6.4c0.8-0.4,1.3-0.6,2.1-1c2.4-2.8,3.5-4.2,5.9-6.9 c0-1.1,0-1.6,0-2.7c0-0.9,0-1.4,0-2.3c0.4-1.3,0.5-1.9,0.9-3.2c-0.2-2.4-0.4-3.7-0.6-6.1c0.3-2.4,0.5-3.6,0.8-5.9 c1.5-2.9,2.2-4.4,3.6-7.4c1.3-1.1,1.9-1.7,3.2-2.8c2.1-1,3.1-1.5,5.2-2.5c1-0.3,1.5-0.5,2.6-0.8c1.5,0,2.2-0.1,3.6-0.1l0,0 c0.2,0,0.4,0,0.6-0.1c0.4,0,0.5,0,0.9,0c5.1,0.5,7.7,0.8,12.8,1.3c0.2-0.1,4.7,0.5,4.7,0.5c1.7,0.2,2.6,0.3,4.3,0.5 c4.3,1.2,6.5,1.7,10.8,2.9c0.3,0.1,0.5,0.1,0.8,0.2c1.5,0.6,2.2,0.9,3.7,1.5c1.7,1.4,2.6,2.1,4.3,3.4c1.8,1.8,2.6,2.6,4.4,4.4 c0.4,0.3,0.5,0.5,0.9,0.8c1.2,0.5,1.7,0.8,2.9,1.4c0.4,0.2,0.5,0.3,0.9,0.5c1-0.1,1.5-0.1,2.4-0.2c1.3-0.5,2-0.8,3.3-1.3 c1-0.7,1.5-1,2.6-1.7c1.4-0.6,2.1-0.9,3.5-1.5c0.1,0,0.1-0.1,0.2-0.1c0.8-1,1.2-1.5,2-2.4l0,0l0,0l0,0l0,0c0.3-0.4,0.5-0.6,0.8-1 c2.7-0.7,4-1.1,6.7-1.8c3.1,0.1,4.7,0.1,7.8,0.2c0.4-0.1,0.5-0.2,0.9-0.3c0.2-0.1,0.3-0.1,0.5-0.2c0.8-0.8,1.3-1.2,2.1-2 c0.8,0.1,1.2,0.1,2,0.1c1.9,0.7,2.8,1.1,4.6,1.8c1.3-0.1,2-0.2,3.3-0.3c1.1,0.5,1.6,0.7,2.7,1.1c0.8-0.1,1.3-0.1,2.1-0.1 c1.6-0.1,2.3-0.1,3.9-0.2c1.7,1.2,2.5,1.7,4.2,2.9c0.9,0.2,1.4,0.3,2.4,0.4c3.4,2,5.1,3,8.4,5c0.2,0,0.3,0,0.4,0c0.1,0,0.2,0,0.3,0 c0.2,0.1,0.3,0.1,0.4,0.2c0.4-0.1,0.6-0.1,1-0.2c0.6-0.1,0.9-0.2,1.5-0.3c0.1,0,0.1,0,0.1,0c0.1,0.1,0.1,0.2,0.1,0.3 c0.4,0.5,0.5,0.8,0.9,1.3c0.5,0.1,0.8,0.1,1.3,0.2c0.6-0.7,0.9-1.1,1.5-1.8c-0.2-0.3-0.4-0.5-0.6-0.9c-0.1-0.1-0.2-0.2-0.3-0.3 c-1.2-0.3-1.8-0.4-2.9-0.7c-1.1-1.8-1.6-2.6-2.6-4.4c1-1,1.5-1.5,2.5-2.5c-1.6-1.9-2.4-2.8-4-4.7c-0.3-0.3-0.4-0.5-0.7-0.9 c-0.1-0.1-0.2-0.2-0.3-0.3c-0.5-0.8-0.8-1.2-1.3-2c-2.8-4.1-4.2-6.2-6.9-10.3c-3.7-2.9-5.5-4.4-9.2-7.3l0,0c-1.3-1-2-1.5-3.3-2.6 l0,0c-0.5-0.4-0.7-0.5-1.2-0.9c-2-2-3-3-4.9-5c-1.4-1.8-2.2-2.7-3.6-4.5c-0.2-0.4-0.3-0.6-0.4-1c-0.3-0.6-0.4-0.9-0.7-1.6 c-0.8-1.8-1.3-2.6-2.1-4.4c-1.5-1.2-2.3-1.7-3.8-2.9c-1.2-1.3-1.8-2-3-3.3c-0.1-0.1-0.1-0.1-0.2-0.1c-2.5-3.3-3.7-4.9-6.2-8.2 c-0.4-0.5-0.6-0.8-1.1-1.3c-0.6-0.4-0.9-0.6-1.5-0.9c-1.3-0.1-1.9-0.2-3.2-0.3c0-0.5,0-0.8,0-1.4c-0.1-0.1-0.1-0.1-0.2-0.2 c0.1,0,0.1-0.1,0.2-0.1c0.6-0.5,0.9-0.7,1.5-1.2c0.7-0.1,1-0.2,1.7-0.3c0.3-0.6,0.5-0.9,0.8-1.4c-1.3-3.5-1.9-5.2-3.2-8.6 c0-0.1,0-0.2,0-0.3c-0.1-1.1-0.2-1.7-0.3-2.8c1-4.8,1.6-7.2,2.6-12c0.1-0.6,0.2-0.9,0.3-1.5c1.8-3.1,2.6-4.7,4.4-7.9 c1.1-0.7,1.6-1.1,2.7-1.8c1.2-2,1.8-3.1,3-5.1c1-1.3,1.5-1.9,2.6-3.2c1-0.8,1.4-1.2,2.4-2c0.2-0.1,0.3-0.1,0.5-0.2 c1.7-0.9,2.6-1.3,4.4-2.1c1.5-0.1,2.2-0.1,3.7-0.1c1.4-0.1,2.1-0.1,3.4-0.2c2.4,0.9,3.7,1.3,6.1,2.2c2.3,0.1,3.5,0.1,5.8,0.2 c0.5,0,0.7,0,1.2-0.1c1.1,0,1.6-0.1,2.7-0.1c1.7-0.4,2.6-0.6,4.3-1c0.8-0.4,1.2-0.6,2.1-1c0.4-0.6,0.6-0.9,1-1.4 c0.9-2.7,1.3-4,2.2-6.7c0.3-0.9,0.4-1.3,0.7-2.2c0.5-0.9,0.8-1.4,1.3-2.3c3.1-3.2,4.7-4.8,7.8-8c2.3-1.9,3.5-2.9,5.8-4.8 c5.2-3.4,7.8-5.1,13-8.5c2.5-1.3,3.8-2,6.3-3.3c1.3-0.7,2-1,3.3-1.7c9.4-3.7,18.7-7.6,28-11.6c2.8-2.9,4.2-4.3,7.1-7.2 c1.5-1.5,2.2-2.3,3.6-3.8c2.6-1.7,3.9-2.6,6.4-4.4c3-1.3,4.4-1.9,7.4-3.2c2.6-2.1,3.8-3.2,6.4-5.3c0.6-0.7,0.9-1.1,1.4-1.8 c0.7-2.4,1-3.6,1.7-5.9c0.6-0.2,0.9-0.3,1.4-0.5c0.5-1.2,0.8-1.8,1.3-3.1c0.2-0.3,0.2-0.5,0.4-0.8c2.1-1.6,3.1-2.4,5.1-4 c0.2-0.1,0.3-0.2,0.5-0.3c7.9-4.6,11.7-6.9,19.4-11.7c1.1,0.1,1.6,0.1,2.7,0.2c0.6-1,0.9-1.6,1.5-2.6c2.2-0.6,3.3-0.9,5.5-1.6 c0.4-0.1,0.6-0.1,1-0.2c0.5-0.4,0.8-0.6,1.3-1c0.4-0.9,0.7-1.4,1.1-2.3c0-0.2,0-0.2,0-0.4c0-2.4,0.1-3.5,0.1-5.9 c0.5-0.7,0.7-1.1,1.2-1.8c0.2-1.6,0.4-2.3,0.6-3.9c0.2-0.4,0.4-0.6,0.6-1c0.2-0.4,0.4-0.6,0.6-1c0.6-0.6,0.9-0.8,1.6-1.4 c-0.1-0.3-0.1-0.4-0.2-0.7C994.9,362,994.3,362.4,993.3,363.1z" fill="#D57800"/>
  </g>
  <g opacity="0.3">
    <path d="M259.7,185c127.9,0,223.7,15.9,325.2,32.8C688.7,235,796.1,252.9,941,252.9c44.4,0,90-6.1,135.4-18.1 c30.5-8.1,61.9-19,93.6-32.7v757.2c-36.8,17.4-73.5,30.8-109.2,40c-40.5,10.4-81.1,15.7-120.8,15.7c-140.1,0-243.6-16.8-343.7-33 c-98.9-16.1-201.3-32.7-336.6-32.7c-45.7,0-91.1,5.3-135.1,15.8C93,972.6,61.3,982.9,30,996V241.6c37.1-17.6,73.8-31.2,109.2-40.5 C179.9,190.4,220.4,185,259.7,185 M1200,155c-89.2,45-174.4,67.9-259,67.9c-280.7,0-416.7-67.9-681.3-67.9 C175.2,155,89.1,178,0,222.9c0,242.4,0,577.6,0,820c89-44.9,175.2-63.6,259.7-63.6c268.9,0,398.5,65.7,680.3,65.7 c84.6,0,170.8-22,260-66.9C1200,735.7,1200,397.4,1200,155L1200,155z" fill="#212121"/>
  </g>
</svg>