<svg viewBox="0 0 1200 1200" xmlns="http://www.w3.org/2000/svg" xmlns:xlink="http://www.w3.org/1999/xlink">
  <g>
    <path d="M0,222.9c0,218.7,0,437.5,0,656.2c65.4-89.8,140.8-172.3,228.9-240.2c73.8-56.9,156.6-99.5,240.4-139.4 c80.4-38.3,160.5-77.2,240.9-115.5c97.7-46.5,194.2-94.7,278.4-163.6c-175.5,14.4-347.5-29-520.2-50.9 c-78-9.9-158.2-18.3-236.8-13.3C149.8,161.4,72.6,185.4,0,222.9z M276.7,498.4c-15-12.8-30.1-25.6-45.4-38.1l0,0l0,0l0,0 c-6.7,19.7-13.3,39.5-19.9,59.2c-6.5-18.5-13-37-19.5-55.5l0,0l0,0l0,0c-14.5,15.2-28.7,30.6-42.6,46.4c3.1-20.8,6.2-41.6,9.4-62.5 c-17.9,7.1-35.5,14.8-52.9,23.2c11.2-18.8,22.5-37.6,34.1-56.2c-16.4-3.2-32.9-5.6-49.5-7.4c16.2-12.2,32.6-24,49.6-35.1 c-11.2-12.8-22.4-25.6-33.8-38.3c17.6-1.5,35.1-2.4,52.7-2.6c-3-19.6-6.1-39.2-9.1-58.8c14.2,10.5,28.3,21.1,42.2,32l0,0l0,0l0,0 c6.5-20,13-40,19.5-59.9c6.6,18.7,13.2,37.4,19.8,56.1l0,0l0,0l0,0c14.8-13.9,29.9-27.4,45.4-40.5c-3.4,20.2-6.8,40.5-10.2,60.7 c20.4-3.8,40.9-6.4,61.4-8.9c-13.7,15.1-27.2,30.4-40.4,46c20,7.8,40,15.7,60,23.8c-20.2,5.8-40.1,11.9-60,18.8 c13.4,16.3,26.9,32.6,40.4,48.8c-20.4-4.3-40.9-8.5-61.5-12C269.9,457.9,273.3,478.1,276.7,498.4z" fill="#003580"/>
    <path d="M1200,978.1c0-219.7,0-439.3,0-659c-69,87.6-141.1,174.3-229.3,243.4c-73.4,57.5-157.1,99.6-240.8,140 c-80.2,38.7-160,78.3-240.4,116.4c-98.1,46.5-193.6,95.3-279.2,162.9c175.1-13.9,347.2,29.8,519.9,49.9 c78.5,9.1,158.8,16.6,237.9,12.2C1050.4,1039.4,1126.9,1015.4,1200,978.1z" fill="#009543"/>
    <path d="M988.5,220.3c-84.2,68.9-180.7,117.1-278.4,163.6c-80.4,38.3-160.5,77.2-240.9,115.5 c-83.8,40-166.6,82.5-240.4,139.4c-88,68-163.4,150.5-228.8,240.3c0,13.2,0,26.3,0,39.5c70-96.4,152-184.4,248.4-254.7 c78.4-57.2,166.3-99.1,253.7-140.3c84.1-39.6,167.7-80.2,251.2-120.9c105.1-51.2,202.6-108.7,287.5-190 C1023.4,215.9,1006.1,218.4,988.5,220.3z" fill="#FFFFFF"/>
    <path d="M210.3,981.8c85.5-67.6,181-116.4,279.2-162.9c80.5-38.1,160.2-77.8,240.4-116.4 c83.7-40.3,167.3-82.5,240.8-140c88.2-69.1,160.3-155.8,229.3-243.4c0-13.2,0-26.4,0-39.6c-73.9,93.9-151.6,186.9-248.5,258.1 c-78.3,57.6-167,99.3-254.4,141c-83.8,40-167.2,80.8-250.8,121.2C340.5,851,243,909.7,155.8,989.1C173.9,986,192,983.6,210.3,981.8 z" fill="#FFFFFF"/>
    <path d="M1040.8,212.7c-84.9,81.2-182.4,138.8-287.5,190c-83.6,40.7-167.2,81.3-251.2,120.9 c-87.4,41.2-175.3,83.1-253.7,140.3C152,734.2,70,822.2,0,918.6c0,41.4,0,82.8,0,124.2C64.8,952.7,140.7,870.7,229,803 c73.6-56.4,155.6-98.7,239-138.5c76.8-36.7,153.2-74.3,230.1-110.9c82.5-39.4,166.3-78.7,241.2-131.6 c102.4-72.3,183.6-169.1,260.7-267C1149,180.8,1096.9,201,1040.8,212.7z" fill="#D21034"/>
    <path d="M0,1042.8c49.5-25.8,101-43.2,155.8-53.7C243,909.7,340.5,851,446.3,799.8c83.6-40.4,167-81.2,250.8-121.2 c87.4-41.7,176-83.5,254.4-141c96.9-71.2,174.6-164.2,248.5-258.1c0-41.5,0-82.9,0-124.4c-77.1,97.9-158.3,194.7-260.8,267.1 C864.3,475,780.6,514.3,698,553.7c-76.8,36.6-153.2,74.2-230.1,110.9c-83.4,39.8-165.4,82.1-239,138.5 C140.7,870.7,64.8,952.7,0,1042.8z" fill="#D21034"/>
    <path d="M139.9,415L139.9,415L139.9,415C140,414.9,139.9,415,139.9,415z" fill="#003580"/>
    <path d="M159,331.4c0,0.1-0.1,0.1-0.1,0.2s-0.1,0.1-0.1,0.2C158.9,331.5,158.9,331.5,159,331.4z" fill="#003580"/>
    <path d="M158.5,447.8l0.1,0.1l0.1,0.1C158.7,447.9,158.7,447.9,158.5,447.8z" fill="#003580"/>
    <path d="M266.7,321.3c-0.1-0.1-0.1-0.1-0.1-0.1l-0.1-0.1C266.5,321.1,266.5,321.1,266.7,321.3z" fill="#003580"/>
    <path d="M287.5,400.9L287.5,400.9L287.5,400.9C287.6,400.8,287.5,400.8,287.5,400.9z" fill="#003580"/>
    <path d="M287.6,358.2L287.6,358.2L287.6,358.2C287.5,358.2,287.6,358.2,287.6,358.2z" fill="#003580"/>
    <path d="M140.1,372.4L140.1,372.4L140.1,372.4C139.9,372.4,140.1,372.4,140.1,372.4z" fill="#003580"/>
    <path d="M266.4,437.8c0.1-0.1,0.1-0.1,0.1-0.1c0.1-0.1,0.1-0.1,0.1-0.1C266.5,437.6,266.5,437.6,266.4,437.8z" fill="#003580"/>
    <path d="M191.9,464L191.9,464c6.5,18.5,13,37,19.5,55.5c6.6-19.8,13.2-39.5,19.9-59.2l0,0c-6.5,2.2-13,3.6-19.9,4.3 C204.5,465.2,198,465,191.9,464z" fill="#FFCE00"/>
    <path d="M137.5,394.3c0-7.4,0.9-14.7,2.4-21.8l0,0c-17,11.1-33.4,22.9-49.6,35.1c16.6,1.8,33.1,4.2,49.5,7.4l0,0 C138.3,408.6,137.5,401.7,137.5,394.3z" fill="#FFCE00"/>
    <path d="M231.3,301L231.3,301c-6.6-18.7-13.2-37.4-19.8-56.1c-6.6,19.9-13.1,39.9-19.5,59.9l0,0 c6.2-2.6,12.6-4.3,19.5-5C218.4,299.1,225,299.5,231.3,301z" fill="#FFCE00"/>
    <path d="M290.4,379.6c0,7.4-1,14.5-2.8,21.2l0,0c19.8-6.8,39.8-13,60-18.8c-19.9-8.1-39.9-16-60-23.8l0,0 C289.4,365.1,290.4,372.3,290.4,379.6z" fill="#FFCE00"/>
    <path d="M158.7,447.9c-3.1,20.8-6.2,41.6-9.4,62.5c13.9-15.7,28.1-31.2,42.6-46.4l0,0c-12.3-2-23.9-7.5-33.1-16 C158.7,448,158.7,447.9,158.7,447.9z" fill="#FFCE00"/>
    <path d="M158.7,331.7c0-0.1,0.1-0.1,0.1-0.2c-17.6,0.2-35.1,1-52.7,2.6c11.4,12.7,22.6,25.5,33.8,38.3l0,0 C144.1,357.7,149.4,344.1,158.7,331.7z" fill="#FFCE00"/>
    <path d="M266.5,321.1c3.4-20.2,6.8-40.5,10.2-60.7c-15.5,13.1-30.6,26.6-45.4,40.5l0,0 c13.4,3.1,25.5,10.3,35.1,20.1C266.5,321,266.5,321.1,266.5,321.1z" fill="#FFCE00"/>
    <path d="M287.6,400.8L287.6,400.8c-3.8,13.8-11.1,26.4-20.9,36.7c-0.1,0.1-0.1,0.1-0.1,0.1 c20.6,3.6,41.1,7.7,61.5,12C314.5,433.4,301,417.2,287.6,400.8z" fill="#FFCE00"/>
    <path d="M140,415.1L140,415.1c-11.6,18.6-23,37.4-34.2,56.2c17.4-8.4,34.9-16.1,52.9-23.2l-0.1-0.1 C149.3,439.1,142.9,427.5,140,415.1z" fill="#FFCE00"/>
    <path d="M192,304.9L192,304.9c-14-10.9-28-21.6-42.2-32.1c3,19.6,6,39.2,9.1,58.8c0-0.1,0.1-0.1,0.1-0.2 C167.6,320,178.8,310.5,192,304.9z" fill="#FFCE00"/>
    <path d="M287.5,358.2L287.5,358.2c13.2-15.6,26.7-30.9,40.5-46c-20.5,2.4-41.1,5.1-61.4,8.9 c0.1,0.1,0.1,0.1,0.1,0.1C276.6,331.5,283.8,344.4,287.5,358.2z" fill="#FFCE00"/>
    <path d="M231.3,460.2L231.3,460.2c15.3,12.5,30.4,25.3,45.4,38.1c-3.4-20.3-6.8-40.5-10.2-60.8 c-0.1,0.1-0.1,0.1-0.1,0.1C256.7,447.9,244.5,455.6,231.3,460.2z" fill="#FFCE00"/>
    <path d="M211.5,313.5c36.5-4.1,65.2,31.8,65.2,65.9c0,35.7-29.7,68.3-65.3,71.4c-34.7,3-62.1-25.2-61.9-59.2 C149.8,357.3,175.1,317.6,211.5,313.5z" fill="#FFCE00"/>
    <path d="M266.7,437.5c9.9-10.3,17.2-22.9,20.9-36.7l0,0c1.8-6.8,2.8-13.8,2.8-21.2s-1-14.6-2.8-21.3l0,0 c-3.8-13.8-11-26.7-20.9-37c-0.1-0.1-0.1-0.1-0.3-0.3c-9.5-9.8-21.7-17-35.1-20.1l0,0c-6.4-1.4-13-1.8-19.8-1.2 c-6.8,0.7-13.4,2.4-19.5,5l0,0c-13.2,5.7-24.4,15.2-33,26.6c-0.1,0.2-0.1,0.2-0.2,0.3c-9.3,12.4-14.6,26-18.8,40.7l0,0 c-1.6,7.2-2.4,14.4-2.4,21.8s0.8,14.3,2.4,20.7l0,0c3,12.4,9.3,24,18.7,32.8c0.1,0.1,0.1,0.1,0.2,0.2c9.1,8.5,20.8,13.9,33.1,16 l0,0c6.3,1,12.7,1.2,19.6,0.6c6.9-0.7,13.5-2.1,19.9-4.3l0,0c13.2-4.7,25.4-12.4,35.1-22.5C266.5,437.6,266.5,437.6,266.7,437.5z M211.4,450.8c-34.7,3-62.1-25.2-61.9-59.2c0.2-34.3,25.6-74,62-78.1c36.5-4.1,65.2,31.8,65.2,65.9 C276.7,415.1,247,447.7,211.4,450.8z" fill="#003580"/>
  </g>
  <g opacity="0.3">
    <path d="M259.7,185c127.9,0,223.7,15.9,325.2,32.8C688.7,235,796.1,252.9,941,252.9c44.4,0,90-6.1,135.4-18.1 c30.5-8.1,61.9-19,93.6-32.7v757.2c-36.8,17.4-73.5,30.8-109.2,40c-40.5,10.4-81.1,15.7-120.8,15.7c-140.1,0-243.6-16.8-343.7-33 c-98.9-16.1-201.3-32.7-336.6-32.7c-45.7,0-91.1,5.3-135.1,15.8C93,972.6,61.3,982.9,30,996V241.6c37.1-17.6,73.8-31.2,109.2-40.5 C179.9,190.4,220.4,185,259.7,185 M1200,155c-89.2,45-174.4,67.9-259,67.9c-280.7,0-416.7-67.9-681.3-67.9 C175.2,155,89.1,178,0,222.9c0,242.4,0,577.6,0,820c89-44.9,175.2-63.6,259.7-63.6c268.9,0,398.5,65.7,680.3,65.7 c84.6,0,170.8-22,260-66.9C1200,735.7,1200,397.4,1200,155L1200,155z" fill="#212121"/>
  </g>
</svg>