<svg viewBox="0 0 1200 1200" xmlns="http://www.w3.org/2000/svg" xmlns:xlink="http://www.w3.org/1999/xlink">
  <g>
    <path d="M221.5,157c-56.5,5.3-109.8,18.7-162.6,39.3c57.4,22.8,110.6,52.9,162.6,86.1 C221.5,240.6,221.5,198.8,221.5,157z" fill="#00247D"/>
    <path d="M0,268.7c0,30.3,0,60.6,0,91c37.6-18.4,75.8-34.3,116-46.3C78.4,295.1,40.2,280.1,0,268.7z" fill="#00247D"/>
    <path d="M0,496.3c0,30.3,0,60.5,0,90.8c37.1-46.9,75.3-92.9,116-136.8C75.8,462.2,37.6,477.9,0,496.3z" fill="#00247D"/>
    <path d="M600,190L600,190L600,190c0,15.3,0,30.6,0,45.9c-47.6,24.6-96.3,46.7-144.8,69.6 c48.4,6.1,96.7,13.3,144.8,21.5c0,11,0,16.5,0,27.4c0,13.7,0,27.4,0,41.1s0,27.4,0,41.2c0,11,0,16.5,0,27.4 c-48.1-8.3-96.3-15.5-144.7-21.5c49.6,35.8,98.4,72.7,144.7,112.7c0,6.1,0,9.2,0,15.4c0,10.2,0,20.4,0,30.6l0,0l0,0 c-23.4-4.1-46.8-7.8-70.3-11.4c-67.3-51.6-137.3-99.7-207.3-147.4c0,42,0,83.9,0,125.9c-8.7-0.4-13-0.6-21.4-0.8 c-10.3-0.3-20.6-0.5-30.9-0.5c-9.8,0-19.7,0.2-29.5,0.6c-7.7,0.3-11.5,0.6-19.1,1.1c0-41.9,0-83.9,0-125.8 c-59.7,48.9-112.6,104.6-162.6,163.3c-7.8,3.1-11.7,4.7-19.5,8c-13.3,5.8-26.3,12-39.4,18.4c0,136.7,0,273.3,0,410 c95-46.9,193.2-65.9,298.8-63.1c101,2.7,201.8,16,301.2,33.2c99.4,17.1,200.3,29.1,301.2,31.7c105.6,2.6,204.5-18.6,298.8-66.5 c0-274.4,0-548.7,0-823.1c-85.4,44.1-173.8,67.7-270,67.8C819.5,223,708.7,208.5,600,190z M930,321.9c3.6,15,7.1,30.1,10.6,45.1 c11.2-0.3,22.3-0.7,33.5-1.4c-8.8,9.9-17.9,19.6-27,29.2c3.5,15,7,29.9,10.4,44.9c-9.2-9.2-18.4-18.3-27.5-27.5 c-9.4,9.4-19,18.6-28.8,27.6c3.7-15,7.4-30,11.1-45c-9.8-9.6-19.7-19.2-29.6-28.8c12.1,0.5,24.2,0.8,36.3,0.9 C922.8,351.9,926.4,336.9,930,321.9z M810.2,625.8c-10.7-10.3-21.4-20.6-32.1-30.9c-10.8,8.3-21.5,16.4-32.4,24.6 c4.1-14.6,8.3-29.3,12.4-43.9c-10.7-10.5-21.3-21-31.9-31.6c13.2,1.6,26.5,3.1,39.8,4.4c4.1-14.7,8.3-29.3,12.4-44 c4.1,15.5,8.1,30.9,12.2,46.4c13.1,1.2,26.3,2.3,39.5,3.2c-10.6,8.6-21.2,17-32,25.4C802.1,595,806.1,610.4,810.2,625.8z M960.7,938.6c-10.3-10.1-20.5-20.2-30.7-30.4c-10.5,10.4-21.2,20.5-32.1,30.5c4.2-16.6,8.4-33.2,12.5-49.9 c-11-10.7-22-21.4-33.1-32c13.6,0.6,27.1,1,40.7,1.1c4-16.7,8-33.4,11.9-50.1c4,16.7,7.9,33.4,11.8,50.1 c12.5-0.2,24.9-0.8,37.4-1.8c-9.9,11-19.9,21.9-30.1,32.6C953,905.4,956.8,922,960.7,938.6z M1064.2,560.8 c-7.5-6.6-14.9-13.2-22.3-19.9c-7.4,9.7-14.9,19.2-22.5,28.7c2.9-13.9,5.7-27.8,8.5-41.6c-7.7-7.1-15.3-14.3-22.9-21.5 c9.4-1.1,18.8-2.5,28.1-4.2c2.8-13.9,5.6-27.9,8.4-41.8c2.9,12.8,5.7,25.7,8.6,38.5c9.1-1.9,18.3-4.1,27.3-6.6 c-7.2,10.1-14.5,20.2-21.9,30.2C1058.3,535.3,1061.2,548,1064.2,560.8z" fill="#00247D"/>
    <path d="M529.6,178.6c-68.8-10.1-137.8-18.4-207.3-22.2c0,41.8,0,83.7,0,125.5C389.4,243.4,459.8,211.5,529.6,178.6 z" fill="#00247D"/>
    <path d="M322.3,431c0,4.7,0,7,0,11.7c70.1,47.8,140,95.8,207.3,147.4c23.5,3.5,46.9,7.3,70.3,11.4l0,0 C529.8,541,454.3,487.3,378.1,434.8C359.5,433.3,340.9,432,322.3,431z" fill="#FFFFFF"/>
    <path d="M600,570.7c0-6.1,0-9.1,0-15.2c-46.4-40-95.1-76.9-144.7-112.7c-10.3-1.2-15.5-1.8-25.8-3 C488,481.2,545.6,523.9,600,570.7z" fill="#FFFFFF"/>
    <path d="M455.2,305.5c48.4-22.9,97.2-45.1,144.8-69.6c0-15.3,0-30.6,0-45.9l0,0c-73.1,37.7-148.7,70-221.9,107.4 C403.9,299.7,429.6,302.4,455.2,305.5z" fill="#FFFFFF"/>
    <path d="M322.3,293.6c2.3,0.1,3.5,0.2,5.8,0.3c73.2-41.4,150.1-75.2,225.9-111.5c-9.6-1.5-14.5-2.3-24.3-3.7 c-69.9,32.9-140.2,64.8-207.3,103.2C322.3,286.6,322.3,288.9,322.3,293.6z" fill="#FFFFFF"/>
    <path d="M116,450.3C75.3,494.2,37.1,540.2,0,587.1c0,15.2,0,30.5,0,45.7C54.5,564.1,111.2,497.1,175.4,437 C155.3,440.5,135.6,444.9,116,450.3z" fill="#FFFFFF"/>
    <path d="M135.6,308.1C92,285.4,47.3,266.9,0,253.5c0,6.1,0,9.1,0,15.2c40.2,11.4,78.4,26.4,116,44.6 C123.8,311.1,127.7,310.1,135.6,308.1z" fill="#FFFFFF"/>
    <path d="M221.5,294.1c0-4.7,0-7,0-11.7c-52-33.2-105.2-63.2-162.6-86.1c-20,8.2-39.5,17.1-58.9,26.6 c62.2,17.6,119.7,44.5,175.4,77C190.7,297.4,206,295.5,221.5,294.1z" fill="#FFFFFF"/>
    <path d="M216.5,431.9C150.9,486.4,93.7,549,39.4,614.5c7.8-3.4,11.7-5,19.5-8c50-58.7,102.9-114.3,162.6-163.3 c0-4.7,0-7,0-11.7C219.5,431.6,218.5,431.7,216.5,431.9z" fill="#FFFFFF"/>
    <path d="M216.5,431.9c-13.8,1.3-27.5,2.9-41.1,5.1C111.2,497,54.6,564,0,632.8c13-6.4,26.1-12.5,39.4-18.4 C93.7,549,150.9,486.4,216.5,431.9z" fill="#CC142B"/>
    <path d="M378.1,434.8C454.3,487.3,529.8,541,600,601.5l0,0c0-10.2,0-20.5,0-30.7c-54.4-46.9-112-89.5-170.6-130.9 C412.3,437.9,395.2,436.3,378.1,434.8z" fill="#CC142B"/>
    <path d="M175.4,299.8C119.7,267.4,62.2,240.5,0,222.9c0,10.2,0,20.4,0,30.7c47.3,13.3,92,31.9,135.6,54.6 C148.7,304.8,162,302.1,175.4,299.8z" fill="#CC142B"/>
    <path d="M378.1,297.4C451.3,260,526.9,227.7,600,190l0,0c-15.3-2.7-30.7-5.2-46-7.6 c-75.7,36.3-152.7,70.1-225.9,111.5C344.8,294.8,361.5,296,378.1,297.4z" fill="#CC142B"/>
    <path d="M175.4,437c13.7-2.2,27.4-3.8,41.1-5.1c2-0.2,3-0.3,5-0.4c0,4.7,0,7,0,11.7c0,41.9,0,83.9,0,125.8 c7.6-0.6,11.4-0.8,19.1-1.1c0-55,0-110,0-165C155.1,407.8,76.6,431.4,0,469c0,10.9,0,16.4,0,27.3c37.6-18.4,75.8-34.1,116-46 C135.6,444.9,155.3,440.5,175.4,437z" fill="#FFFFFF"/>
    <path d="M300.9,402.6c0,55,0,110.1,0,165.1c8.5,0.3,12.7,0.4,21.4,0.8c0-42,0-83.9,0-125.9c0-4.7,0-7,0-11.7 c18.6,1,37.2,2.3,55.8,3.8c17.1,1.5,34.2,3.2,51.3,5c10.3,1.1,15.5,1.7,25.8,3c48.4,6,96.7,13.2,144.7,21.5c0-11,0-16.5,0-27.4 C501.1,419.7,401.2,406.3,300.9,402.6z" fill="#FFFFFF"/>
    <path d="M300.9,320.1c100.4,3.8,200.2,17.3,299.1,34.3c0-11,0-16.5,0-27.4c-48.1-8.3-96.3-15.5-144.8-21.5 c-25.7-3.1-51.4-5.8-77.1-8.1c-16.6-1.5-33.3-2.6-50-3.5c-2.3-0.1-3.5-0.2-5.8-0.3c0-4.7,0-7,0-11.7c0-41.8,0-83.7,0-125.5 c-8.7-0.4-13-0.6-21.4-0.9C300.9,210.4,300.9,265.3,300.9,320.1z" fill="#FFFFFF"/>
    <path d="M240.5,320.3c0-54.9,0-109.8,0-164.6c-7.7,0.4-11.5,0.6-19,1.3c0,41.8,0,83.7,0,125.5c0,4.7,0,7,0,11.7 c-15.5,1.4-30.8,3.3-46.1,5.7c-13.4,2.2-26.6,5-39.8,8.3c-7.9,2-11.8,3-19.6,5.3c-40.1,12.1-78.4,27.9-116,46.3 c0,10.9,0,16.4,0,27.3C76.7,349.5,155.1,325.5,240.5,320.3z" fill="#FFFFFF"/>
    <path d="M240.5,402.8c0,55,0,110,0,165c9.8-0.5,19.6-0.7,29.5-0.6c10.3,0,20.6,0.2,30.9,0.5c0-55,0-110.1,0-165.1 c100.4,3.7,200.2,17.1,299.1,34.2c0-13.7,0-27.4,0-41.2c0-13.7,0-27.4,0-41.1c-98.9-17-198.7-30.5-299.1-34.3 c0-54.9,0-109.7,0-164.6c-10.3-0.4-20.6-0.6-30.9-0.6c-9.8,0-19.7,0.2-29.5,0.7c0,54.9,0,109.8,0,164.6 C155.1,325.5,76.7,349.5,0,387c0,13.7,0,27.3,0,41s0,27.3,0,41C76.6,431.4,155.1,407.8,240.5,402.8z" fill="#CC142B"/>
    <path d="M945.2,373.8c9.7-2.5,19.4-5.2,29-8.3c-11.2,0.6-22.3,1.1-33.5,1.4c0.6,2.8,0.9,4.2,1.6,7 C943.4,373.8,944,373.8,945.2,373.8z" fill="#FFFFFF"/>
    <path d="M959.4,373.3c-5.5,5.9-8.3,8.8-13.9,14.6c0.6,2.7,0.9,4.1,1.6,6.8c9.2-9.6,18.2-19.3,27-29.2 c-9.6,3-19.3,5.8-29,8.3C950.9,373.6,953.8,373.5,959.4,373.3z" fill="#FFFFFF"/>
    <path d="M914.5,373.8c1.2,0,1.8,0,3.1,0c0.7-2.8,1-4.2,1.6-7c-12.1-0.1-24.2-0.5-36.3-0.9 C893.4,368.6,903.9,371.3,914.5,373.8z" fill="#FFFFFF"/>
    <path d="M899.2,373.5c6.2,0.2,9.2,0.2,15.3,0.3c-10.6-2.5-21.1-5.2-31.6-7.9c9.9,9.6,19.8,19.2,29.6,28.8 c0.7-2.7,1-4.1,1.6-6.8C908.2,382.2,905.2,379.3,899.2,373.5z" fill="#FFFFFF"/>
    <path d="M941.4,392.2c1,4.3,1.5,6.4,2.5,10.6c4.6,12.2,9.2,24.5,13.7,36.7c-3.5-15-7-29.9-10.5-44.9 c-0.6-2.7-0.9-4.1-1.6-6.8C943.9,389.6,943.1,390.5,941.4,392.2z" fill="#FFFFFF"/>
    <path d="M948.3,421.9c-5.6-5.6-8.4-8.4-14-14c-1.7,1.7-2.6,2.6-4.3,4.3c9.2,9.1,18.4,18.3,27.6,27.4 c-4.6-12.2-9.1-24.5-13.7-36.7C945.6,410.5,946.5,414.3,948.3,421.9z" fill="#FFFFFF"/>
    <path d="M922.9,373.9c1.1-4.3,1.6-6.5,2.6-10.8c1.5-13.7,3-27.5,4.5-41.2c-3.6,15-7.2,30-10.8,45 c-0.7,2.8-1,4.2-1.6,7C919.7,373.9,920.7,373.9,922.9,373.9z" fill="#FFFFFF"/>
    <path d="M930,344.1c2.4,9.9,4.7,19.9,7.1,29.8c2.1,0,3.1,0,5.1-0.1c-0.6-2.8-0.9-4.2-1.6-7c-3.5-15-7.1-30-10.6-45 c-1.5,13.7-3,27.5-4.5,41.2C927.3,355.5,928.2,351.7,930,344.1z" fill="#FFFFFF"/>
    <path d="M918.4,392.2c-1.7-1.7-2.6-2.6-4.3-4.3c-0.7,2.7-1,4.1-1.6,6.8c-3.7,15-7.5,30-11.2,45 c4.9-12.3,9.8-24.5,14.6-36.8C916.8,398.6,917.4,396.5,918.4,392.2z" fill="#FFFFFF"/>
    <path d="M930,403.7c-7.4,7.4-11.2,11.1-18.8,18.3c1.9-7.6,2.8-11.5,4.6-19.1c-4.8,12.3-9.7,24.6-14.6,36.8 c9.8-9,19.4-18.2,28.8-27.6c1.7-1.7,2.6-2.6,4.3-4.3C932.6,406.2,931.7,405.4,930,403.7z" fill="#FFFFFF"/>
    <path d="M938.3,378.8c8.6-2.1,12.8-3.2,21.2-5.5c-5.7,0.2-8.5,0.3-14.3,0.5c-1.2,0-1.8,0-2.9,0.1 c-2,0-3.1,0.1-5.1,0.1C937.5,375.9,937.8,376.8,938.3,378.8z" fill="#CC142B"/>
    <path d="M938.3,378.8c0.4,1.7,0.6,2.5,1,4.2c-1.9,0.8-2.8,1.3-4.8,2.1l0,0c1.9-0.8,2.9-1.3,4.8-2.1 c0.9,3.7,1.3,5.5,2.2,9.1c1.7-1.7,2.5-2.6,4.1-4.3c5.6-5.8,8.4-8.7,13.9-14.6C951.1,375.6,946.8,376.7,938.3,378.8z" fill="#CC142B"/>
    <path d="M921.6,378.8c0.5-2,0.7-3,1.2-4.9c-2.1,0-3.2,0-5.3-0.1c-1.2,0-1.8,0-3.1,0c-6-0.1-9.1-0.2-15.3-0.3 C908.3,375.7,912.8,376.8,921.6,378.8z" fill="#CC142B"/>
    <path d="M920.6,383.1c0.4-1.7,0.6-2.5,1-4.2c-8.8-2-13.3-3.1-22.4-5.3c6,5.8,9,8.7,14.9,14.4 c1.7,1.7,2.6,2.6,4.3,4.3C919.3,388.6,919.7,386.7,920.6,383.1z" fill="#CC142B"/>
    <path d="M939.2,383c-1.9,0.8-2.8,1.3-4.8,2.1c4.6,12.2,9.2,24.5,13.8,36.8c-1.8-7.6-2.6-11.4-4.4-19.1 c-1-4.3-1.5-6.4-2.5-10.6C940.5,388.5,940.1,386.7,939.2,383z" fill="#CC142B"/>
    <path d="M934.5,385.1L934.5,385.1L934.5,385.1c0.2,1.7,0.3,2.5,0.5,4.2c-0.9,1.3-1.3,1.9-2.2,3.2 c1.2,2.2,1.7,3.3,2.9,5.5c-2.3,2.3-3.4,3.4-5.7,5.6c1.7,1.7,2.6,2.5,4.3,4.2c5.6,5.7,8.4,8.5,14,14 C943.7,409.7,939.1,397.4,934.5,385.1z" fill="#CC142B"/>
    <path d="M921.6,378.8c-0.4,1.7-0.6,2.5-1,4.2c2,0.8,2.9,1.3,4.9,2.1l0,0c1.5-13.7,3-27.4,4.5-41.1 c-1.8,7.6-2.7,11.4-4.5,19c-1,4.3-1.6,6.5-2.6,10.8C922.4,375.9,922.1,376.9,921.6,378.8z" fill="#CC142B"/>
    <path d="M935,389.4c-0.2-1.7-0.3-2.5-0.5-4.2c-1.8,0.8-2.7,1.2-4.5,2.1C932,388.1,933,388.5,935,389.4z" fill="#CC142B"/>
    <path d="M925.5,385.2c0.6-1.5,0.8-2.2,1.4-3.7c1.2,2.3,1.9,3.5,3.1,5.8l0,0c1.8-0.8,2.7-1.2,4.5-2.1l0,0 c1.9-0.8,2.9-1.3,4.8-2.1c-0.4-1.7-0.6-2.5-1-4.2c-0.5-2-0.7-3-1.2-4.9c-2.3-9.9-4.7-19.9-7.1-29.8 C928.5,357.8,927,371.5,925.5,385.2z" fill="#CC142B"/>
    <path d="M925.5,385.2c-1.9-0.8-2.9-1.2-4.9-2.1c-0.9,3.7-1.3,5.5-2.2,9.2c-1,4.3-1.5,6.4-2.6,10.7 c-1.8,7.6-2.8,11.5-4.6,19.1C916,409.7,920.8,397.5,925.5,385.2z" fill="#CC142B"/>
    <path d="M932.8,392.6c0.9-1.3,1.3-1.9,2.2-3.2c-2-0.9-3-1.3-5-2.2l0,0C931.1,389.4,931.7,390.4,932.8,392.6z" fill="#CC142B"/>
    <path d="M935.7,398c-1.2-2.2-1.7-3.3-2.9-5.5c-1.1-2.1-1.7-3.2-2.8-5.3c-1.2-2.3-1.9-3.5-3.1-5.8 c-0.6,1.5-0.8,2.2-1.4,3.7l0,0c-4.7,12.3-9.5,24.6-14.3,36.8c7.6-7.3,11.4-10.9,18.8-18.3C932.3,401.4,933.4,400.3,935.7,398z" fill="#CC142B"/>
    <path d="M1077.5,492.3c-10.8,2.9-16.2,4.2-27.2,6.5c0.6,2.5,0.9,3.8,1.4,6.3C1060.4,501.1,1069,496.8,1077.5,492.3z " fill="#FFFFFF"/>
    <path d="M1051.7,505.1c0,0.1,0,0.2,0,0.3c4.9-1.1,7.3-1.6,12.2-2.8c-3.9,5.4-5.9,8.1-9.9,13.4 c0.6,2.6,0.9,3.9,1.5,6.5c7.4-10,14.7-20,21.9-30.2C1069,496.8,1060.4,501.1,1051.7,505.1z" fill="#FFFFFF"/>
    <path d="M1033.2,502.2c-9.3,1.7-18.7,3.1-28.1,4.2c10.8,1.3,16.1,1.8,26.7,2.6 C1032.4,506.3,1032.7,504.9,1033.2,502.2z" fill="#FFFFFF"/>
    <path d="M1029.4,520.8c-4.1-3.7-6.1-5.6-10.2-9.5c5.1-0.8,7.6-1.2,12.6-2c0-0.1,0-0.2,0-0.3 c-10.6-0.8-15.9-1.3-26.7-2.6c7.6,7.2,15.2,14.4,22.9,21.5C1028.5,525,1028.8,523.6,1029.4,520.8z" fill="#FFFFFF"/>
    <path d="M1054.1,516c-1.5,2-2.2,3-3.7,5.1c0.5,2.2,0.7,3.3,1.2,5.5c4.2,11.4,8.4,22.8,12.6,34.2 c-2.8-12.8-5.7-25.5-8.5-38.3C1055,519.9,1054.7,518.6,1054.1,516z" fill="#FFFFFF"/>
    <path d="M1051.5,526.5c1.7,7.3,2.5,11,4.1,18.3c-4-3.6-6-5.4-10-9.1c-1.5,2-2.3,3-3.8,5 c7.4,6.8,14.8,13.5,22.3,20.1C1059.9,549.4,1055.7,537.9,1051.5,526.5z" fill="#FFFFFF"/>
    <path d="M1031.8,509.3c1.9-0.3,2.8-0.5,4.7-0.8c0.5-2.4,0.7-3.6,1.2-6c1.3-14,2.6-28.1,3.9-42.1 c-2.8,13.9-5.6,27.9-8.4,41.8c-0.6,2.7-0.9,4.1-1.4,6.8C1031.8,509.1,1031.8,509.2,1031.8,509.3z" fill="#FFFFFF"/>
    <path d="M1037.7,502.5c1.6-8,2.4-12,4-19.9c2.1,9.6,3.2,14.3,5.3,23.9c1.9-0.4,2.8-0.6,4.7-1c0-0.1,0-0.2,0-0.3 c-0.6-2.5-0.9-3.8-1.4-6.3c-2.9-12.8-5.8-25.7-8.7-38.5C1040.3,474.4,1039,488.4,1037.7,502.5z" fill="#FFFFFF"/>
    <path d="M1032,530.3c0.5-2.4,0.7-3.6,1.2-6c-1.6-1.4-2.3-2.1-3.9-3.6c-0.6,2.8-0.9,4.3-1.4,7.1 c-2.8,13.9-5.7,27.8-8.5,41.6C1023.7,556.5,1027.9,543.4,1032,530.3z" fill="#FFFFFF"/>
    <path d="M1045.7,535.7c-1.5-1.4-2.3-2.1-3.9-3.5c-5.5,7.3-8.3,10.9-13.8,18c1.6-7.9,2.4-11.9,4-19.9 c-4.2,13.1-8.4,26.1-12.6,39.2c7.6-9.5,15.1-19.1,22.4-28.8C1043.4,538.7,1044.2,537.7,1045.7,535.7z" fill="#FFFFFF"/>
    <path d="M1047,506.4c0.4,1.6,0.5,2.4,0.9,3.9c6.4-3,9.6-4.5,16-7.7c-4.9,1.2-7.3,1.7-12.2,2.8 C1049.9,505.8,1048.9,506,1047,506.4z" fill="#CC142B"/>
    <path d="M1047.9,510.3c0.3,1.4,0.5,2,0.8,3.4c-1.4,1-2.1,1.5-3.6,2.5l0,0c1.4-1,2.1-1.5,3.6-2.5 c0.6,2.9,1,4.4,1.6,7.3c1.5-2,2.2-3,3.7-5.1c4-5.3,5.9-8,9.9-13.4C1057.6,505.8,1054.4,507.3,1047.9,510.3z" fill="#CC142B"/>
    <path d="M1035.7,512.7c0.3-1.7,0.5-2.6,0.8-4.3c-1.9,0.3-2.8,0.5-4.7,0.8c-5,0.9-7.5,1.3-12.6,2 C1025.8,512,1029.1,512.2,1035.7,512.7z" fill="#CC142B"/>
    <path d="M1034.9,516.4c0.3-1.5,0.5-2.2,0.8-3.7c-6.5-0.4-9.8-0.7-16.5-1.4c4.1,3.8,6.1,5.7,10.2,9.5 c1.6,1.4,2.3,2.1,3.9,3.6C1033.9,521.2,1034.2,519.6,1034.9,516.4z" fill="#CC142B"/>
    <path d="M1048.7,513.7c-1.4,1-2.1,1.5-3.6,2.5c3.5,9.5,7,19.1,10.5,28.6c-1.7-7.3-2.5-11-4.1-18.3 c-0.5-2.2-0.7-3.3-1.2-5.5C1049.7,518.1,1049.4,516.6,1048.7,513.7z" fill="#CC142B"/>
    <path d="M1045.2,516.2L1045.2,516.2L1045.2,516.2c0.1,1.4,0.2,2.1,0.4,3.5c-0.6,1.1-1,1.7-1.6,2.8 c0.9,1.7,1.3,2.5,2.2,4.2c-1.7,2.2-2.6,3.3-4.3,5.5c1.5,1.4,2.3,2.1,3.9,3.5c4,3.7,6,5.5,10,9.1 C1052.2,535.3,1048.7,525.7,1045.2,516.2z" fill="#CC142B"/>
    <path d="M1035.7,512.7c-0.3,1.5-0.5,2.2-0.8,3.7c1.4,0.5,2.2,0.7,3.6,1.1l0,0c1.1-11.7,2.2-23.3,3.2-35 c-1.6,8-2.4,12-4,19.9c-0.5,2.4-0.7,3.6-1.2,6C1036.2,510.1,1036,511,1035.7,512.7z" fill="#CC142B"/>
    <path d="M1041.8,518.5L1041.8,518.5c1.5,0.5,2.3,0.7,3.8,1.2c-0.1-1.4-0.2-2.1-0.4-3.5 C1043.8,517.1,1043.1,517.6,1041.8,518.5z" fill="#CC142B"/>
    <path d="M1038.5,517.5c0.4-1.3,0.6-2,1.1-3.4c0.9,1.7,1.4,2.6,2.3,4.4c1.4-0.9,2-1.4,3.4-2.3l0,0 c1.4-1,2.1-1.5,3.6-2.5c-0.3-1.4-0.5-2-0.8-3.4c-0.4-1.6-0.5-2.4-0.9-3.9c-2.1-9.5-3.2-14.3-5.3-23.9 C1040.6,494.2,1039.5,505.9,1038.5,517.5z" fill="#CC142B"/>
    <path d="M1038.5,517.5c-1.4-0.4-2.2-0.7-3.6-1.1c-0.6,3.2-1,4.8-1.6,8c-0.5,2.4-0.7,3.6-1.2,6 c-1.6,8-2.4,11.9-4,19.9C1031.5,539.3,1035,528.4,1038.5,517.5z" fill="#CC142B"/>
    <path d="M1041.8,518.5c0.9,1.6,1.3,2.4,2.2,4c0.6-1.1,1-1.7,1.6-2.8C1044,519.2,1043.3,519,1041.8,518.5z" fill="#CC142B"/>
    <path d="M1046.1,526.7c-0.9-1.7-1.3-2.5-2.2-4.2c-0.9-1.6-1.3-2.4-2.2-4l0,0c-0.9-1.7-1.3-2.6-2.3-4.4 c-0.4,1.3-0.6,2-1.1,3.4l0,0c-3.5,10.9-7,21.8-10.5,32.7c5.6-7.1,8.3-10.7,13.8-18C1043.5,530,1044.4,528.9,1046.1,526.7z" fill="#CC142B"/>
    <path d="M795.8,558.2c11.4-1.3,22.8-2.7,34.2-4.1c-13.2-0.9-26.3-2-39.5-3.2c0.7,2.8,1.1,4.2,1.8,7 C793.7,558,794.4,558.1,795.8,558.2z" fill="#FFFFFF"/>
    <path d="M795.8,558.2c6.7,0.6,10.1,0.9,16.8,1.4c-6.5,5.2-9.8,7.7-16.3,12.9c0.7,2.8,1.1,4.2,1.8,7 c10.7-8.4,21.4-16.8,32-25.4C818.6,555.6,807.2,556.9,795.8,558.2z" fill="#FFFFFF"/>
    <path d="M764,555.2c0.7-2.7,1.1-4,1.9-6.7c-13.2-1.4-26.5-2.8-39.7-4.4c11.5,3.7,23,7.2,34.5,10.7 C762,554.9,762.7,555,764,555.2z" fill="#FFFFFF"/>
    <path d="M743.8,553c6.7,0.8,10.1,1.1,16.9,1.8c-11.5-3.5-23-7.1-34.5-10.7c10.6,10.6,21.3,21.1,32,31.6 c0.7-2.7,1.1-4,1.9-6.7C753.6,562.6,750.3,559.4,743.8,553z" fill="#FFFFFF"/>
    <path d="M791.3,576.3c1.2,4.4,1.8,6.6,3,11c5.3,12.8,10.6,25.7,15.9,38.5c-4-15.4-8.1-30.9-12.1-46.3 c-0.7-2.8-1.1-4.2-1.8-7C794.2,574.1,793.3,574.8,791.3,576.3z" fill="#FFFFFF"/>
    <path d="M799.3,606.9c-6.5-6.3-9.8-9.4-16.4-15.8c-1.9,1.5-2.9,2.3-4.8,3.8c10.6,10.3,21.3,20.6,32,30.8 c-5.3-12.8-10.6-25.7-15.9-38.5C796.3,595.2,797.3,599.1,799.3,606.9z" fill="#FFFFFF"/>
    <path d="M770.1,555.8c1.2-4.2,1.7-6.2,2.9-10.4c1.8-13.6,3.6-27.3,5.4-40.9c-4.2,14.7-8.3,29.3-12.5,44 c-0.7,2.7-1.1,4-1.9,6.7C766.4,555.4,767.7,555.5,770.1,555.8z" fill="#FFFFFF"/>
    <path d="M778.3,526.7c2.7,10.2,5.3,20.4,8,30.7c2.4,0.2,3.6,0.3,6.1,0.6c-0.7-2.8-1.1-4.2-1.8-7 c-4.1-15.5-8.1-30.9-12.2-46.4c-1.8,13.6-3.6,27.3-5.4,40.9C775.1,537.9,776.2,534.2,778.3,526.7z" fill="#FFFFFF"/>
    <path d="M765,573.8c-2-1.9-3-2.9-4.9-4.8c-0.7,2.7-1.1,4-1.9,6.7c-4.1,14.6-8.3,29.3-12.4,43.9 c5.4-11.8,10.9-23.6,16.3-35.4C763.3,580,763.8,577.9,765,573.8z" fill="#FFFFFF"/>
    <path d="M778.2,586.5c-8.6,6.6-12.9,9.8-21.4,16.3c2.1-7.5,3.2-11.2,5.3-18.6c-5.4,11.8-10.9,23.6-16.3,35.4 c10.8-8.2,21.6-16.4,32.4-24.6c1.9-1.5,2.9-2.3,4.8-3.8C781.1,589.3,780.1,588.4,778.2,586.5z" fill="#FFFFFF"/>
    <path d="M786.3,557.4c0.5,2,0.8,3,1.4,5.1c10-1,15-1.6,24.9-2.8c-6.7-0.5-10-0.8-16.8-1.4c-1.4-0.1-2.1-0.2-3.4-0.3 C789.9,557.7,788.7,557.6,786.3,557.4z" fill="#CC142B"/>
    <path d="M787.6,562.4c0.5,1.8,0.7,2.7,1.1,4.5c-2.2,0.6-3.2,0.9-5.4,1.6l0,0c2.2-0.6,3.2-0.9,5.4-1.6 c1,3.8,1.5,5.7,2.5,9.4c2-1.5,3-2.3,4.9-3.8c6.6-5.1,9.8-7.7,16.3-12.9C802.6,560.8,797.6,561.4,787.6,562.4z" fill="#CC142B"/>
    <path d="M768.7,560.6c0.6-1.9,0.8-2.9,1.4-4.8c-2.4-0.2-3.7-0.4-6.1-0.6c-1.3-0.1-2-0.2-3.3-0.3 c-6.8-0.7-10.1-1.1-16.9-1.8C753.8,556.1,758.7,557.6,768.7,560.6z" fill="#CC142B"/>
    <path d="M767.5,564.8c0.5-1.7,0.7-2.6,1.2-4.3c-10-3-15-4.5-24.9-7.6c6.5,6.4,9.8,9.6,16.3,16c2,1.9,3,2.9,4.9,4.8 C766,570.2,766.5,568.4,767.5,564.8z" fill="#CC142B"/>
    <path d="M788.8,566.9c-2.2,0.6-3.2,0.9-5.4,1.6c5.3,12.8,10.6,25.7,16,38.5c-2-7.9-3.1-11.8-5.1-19.7 c-1.2-4.4-1.8-6.6-3-11C790.3,572.6,789.8,570.7,788.8,566.9z" fill="#CC142B"/>
    <path d="M783.4,568.5L783.4,568.5L783.4,568.5c0.2,1.7,0.3,2.6,0.6,4.3c-1,1.1-1.5,1.7-2.5,2.8 c1.3,2.4,2,3.6,3.3,5.9c-2.6,2-3.9,3-6.6,5c1.9,1.9,2.9,2.8,4.8,4.7c6.6,6.3,9.8,9.5,16.4,15.8C794,594.1,788.7,581.3,783.4,568.5z " fill="#CC142B"/>
    <path d="M768.7,560.6c-0.5,1.7-0.7,2.6-1.2,4.3c2.2,1,3.2,1.6,5.4,2.6c1.8-13.6,3.6-27.2,5.4-40.7 c-2.1,7.5-3.2,11.2-5.3,18.7c-1.2,4.2-1.7,6.2-2.9,10.4C769.5,557.7,769.3,558.7,768.7,560.6z" fill="#CC142B"/>
    <path d="M778.2,570L778.2,570c2.3,1.1,3.4,1.7,5.7,2.7c-0.2-1.7-0.3-2.6-0.6-4.3C781.3,569.1,780.3,569.4,778.2,570 z" fill="#CC142B"/>
    <path d="M772.9,567.4L772.9,567.4c0.7-1.5,1-2.2,1.7-3.7c1.4,2.5,2.1,3.7,3.5,6.2c2.1-0.6,3.1-0.9,5.2-1.6l0,0 c2.2-0.6,3.2-0.9,5.4-1.6c-0.5-1.8-0.7-2.7-1.1-4.5c-0.5-2-0.8-3-1.4-5.1c-2.7-10.2-5.3-20.4-8-30.7 C776.5,540.3,774.7,553.9,772.9,567.4z" fill="#CC142B"/>
    <path d="M772.9,567.4L772.9,567.4c-2.2-1-3.2-1.6-5.4-2.6c-1,3.6-1.5,5.4-2.6,8.9c-1.2,4.2-1.7,6.2-2.9,10.4 c-2.1,7.5-3.2,11.2-5.3,18.6C762.2,591,767.6,579.2,772.9,567.4z" fill="#CC142B"/>
    <path d="M778.2,570c1.3,2.2,1.9,3.3,3.2,5.5c1-1.1,1.5-1.7,2.5-2.8C781.7,571.7,780.5,571.1,778.2,570z" fill="#CC142B"/>
    <path d="M784.7,581.5c-1.3-2.4-2-3.6-3.3-5.9c-1.3-2.2-1.9-3.3-3.2-5.5l0,0c-1.4-2.5-2.1-3.7-3.5-6.2 c-0.7,1.5-1,2.2-1.7,3.7c-5.4,11.8-10.8,23.6-16.2,35.4c8.6-6.5,12.9-9.8,21.4-16.3C780.8,584.5,782.1,583.5,784.7,581.5z" fill="#CC142B"/>
    <path d="M950.1,864.7c9.8-2.5,19.5-5.4,29.1-8.5c-12.4,1-24.9,1.6-37.4,1.8c0.6,2.7,0.9,4.1,1.6,6.8 C946.1,864.8,947.4,864.7,950.1,864.7z" fill="#FFFFFF"/>
    <path d="M950.1,864.7c5.8-0.2,8.6-0.3,14.3-0.6c-6.7,7.3-10.1,10.9-17,18.1c0.7,2.7,1,4.1,1.7,6.8 c10.2-10.8,20.2-21.7,30.1-32.7C969.6,859.3,959.9,862.1,950.1,864.7z" fill="#FFFFFF"/>
    <path d="M916.3,864.9c0.7-2.7,1-4.1,1.6-6.8c-13.6-0.2-27.2-0.5-40.7-1.1c10.7,2.7,21.4,5.3,32.1,7.8 C912.1,864.8,913.5,864.8,916.3,864.9z" fill="#FFFFFF"/>
    <path d="M893.8,864.4c6.3,0.2,9.4,0.3,15.5,0.4c-10.7-2.6-21.4-5.2-32.1-7.8c11.1,10.7,22.1,21.4,33.1,32.1 c0.7-2.7,1.1-4.1,1.8-6.8C904.9,875.1,901.2,871.6,893.8,864.4z" fill="#FFFFFF"/>
    <path d="M943.3,886.3c1.5,6.3,2.2,9.4,3.6,15.7c4.6,12.2,9.1,24.4,13.7,36.6c-3.8-16.6-7.7-33.1-11.5-49.7 c-0.7-2.7-1-4.1-1.7-6.8C945.8,883.8,945,884.7,943.3,886.3z" fill="#FFFFFF"/>
    <path d="M951.4,921.1c-6.8-6.7-10.2-10.1-17.1-17.1c-1.7,1.7-2.6,2.6-4.3,4.3c10.2,10.2,20.4,20.3,30.7,30.4 c-4.6-12.2-9.1-24.4-13.7-36.6C948.7,909.6,949.6,913.5,951.4,921.1z" fill="#FFFFFF"/>
    <path d="M921.6,864.9c1.5-6.2,2.3-9.4,3.9-15.6c1.5-13.8,3-27.6,4.5-41.4c-4,16.7-8,33.4-12,50.1 c-0.7,2.7-1,4.1-1.6,6.8C918.4,864.9,919.5,864.9,921.6,864.9z" fill="#FFFFFF"/>
    <path d="M930,830.2c2.8,11.6,5.5,23.2,8.3,34.8c2.1,0,3.1,0,5.1-0.1c-0.6-2.7-0.9-4.1-1.6-6.8 c-3.9-16.7-7.9-33.4-11.8-50.1c-1.5,13.8-3,27.6-4.5,41.4C927.3,841.7,928.2,837.8,930,830.2z" fill="#FFFFFF"/>
    <path d="M916.4,886.4c-1.7-1.7-2.6-2.5-4.3-4.2c-0.7,2.7-1.1,4.1-1.8,6.8c-4.1,16.6-8.2,33.3-12.4,49.9 c5-12.2,9.8-24.5,14.7-36.8C914.1,895.8,914.9,892.7,916.4,886.4z" fill="#FFFFFF"/>
    <path d="M930,899.9c-7.2,7.2-14.6,14.3-22.1,21.3c1.9-7.6,2.8-11.5,4.7-19.1c-4.8,12.3-9.7,24.6-14.7,36.8 c10.9-10.1,21.5-20.2,32.1-30.6c1.7-1.7,2.6-2.6,4.3-4.3C932.6,902.4,931.7,901.6,930,899.9z" fill="#FFFFFF"/>
    <path d="M938.3,864.9c0.5,2.3,0.8,3.4,1.3,5.7c10.1-2.4,15-3.8,24.9-6.6c-5.7,0.3-8.5,0.4-14.3,0.6 c-2.7,0.1-4,0.1-6.7,0.2C941.4,864.9,940.3,864.9,938.3,864.9z" fill="#CC142B"/>
    <path d="M939.6,870.7c0.5,2,0.7,3,1.2,5.1c-2.2,1-3.3,1.5-5.5,2.5l0,0c2.2-1,3.3-1.5,5.5-2.5 c1,4.3,1.5,6.4,2.6,10.6c1.7-1.7,2.5-2.5,4.1-4.2c6.8-7.1,10.2-10.8,17-18.1C954.6,866.9,949.6,868.2,939.6,870.7z" fill="#CC142B"/>
    <path d="M920.3,870.7c0.5-2.3,0.8-3.4,1.3-5.7c-2.1,0-3.2,0-5.3-0.1c-2.8,0-4.2-0.1-7-0.1 c-6.1-0.1-9.2-0.2-15.5-0.4C904.6,867,909.9,868.3,920.3,870.7z" fill="#CC142B"/>
    <path d="M919.1,875.7c0.5-2,0.7-3,1.2-5.1c-10.4-2.4-15.7-3.7-26.5-6.3c7.4,7.2,11.1,10.8,18.3,17.8 c1.7,1.7,2.6,2.5,4.3,4.2C917.5,882.1,918,880,919.1,875.7z" fill="#CC142B"/>
    <path d="M940.7,875.7c-2.2,1-3.3,1.5-5.5,2.5c5.4,14.3,10.7,28.5,16.1,42.8c-1.8-7.6-2.6-11.4-4.4-19 c-1.5-6.3-2.2-9.4-3.6-15.7C942.3,882.1,941.8,880,940.7,875.7z" fill="#CC142B"/>
    <path d="M935.3,878.2L935.3,878.2L935.3,878.2c0.2,2,0.3,3,0.5,4.9c-1,1.4-1.5,2.1-2.5,3.6c1.4,2.6,2,3.9,3.4,6.4 c-2.7,2.7-4,4.1-6.7,6.7c1.7,1.6,2.6,2.5,4.3,4.1c6.9,6.9,10.3,10.3,17.1,17.1C946,906.8,940.7,892.5,935.3,878.2z" fill="#CC142B"/>
    <path d="M920.3,870.7c-0.5,2-0.7,3-1.2,5.1c2.2,1,3.4,1.5,5.6,2.5c1.8-16,3.6-32.1,5.3-48.1 c-1.8,7.7-2.7,11.5-4.5,19.2c-1.5,6.2-2.3,9.4-3.9,15.6C921.1,867.2,920.8,868.4,920.3,870.7z" fill="#CC142B"/>
    <path d="M930,880.6L930,880.6c2.3,1,3.5,1.6,5.8,2.6c-0.2-2-0.3-3-0.5-4.9C933.2,879.2,932.1,879.7,930,880.6z" fill="#CC142B"/>
    <path d="M924.7,878.2L924.7,878.2c0.7-1.8,1-2.7,1.7-4.5c1.5,2.7,2.2,4.1,3.6,6.9c2.1-0.9,3.2-1.4,5.3-2.3l0,0 c2.2-1,3.3-1.5,5.5-2.5c-0.5-2-0.7-3-1.2-5.1c-0.5-2.3-0.8-3.4-1.3-5.7c-2.7-11.6-5.5-23.2-8.3-34.8 C928.2,846.2,926.5,862.2,924.7,878.2z" fill="#CC142B"/>
    <path d="M924.7,878.2L924.7,878.2c-2.2-1-3.3-1.5-5.6-2.5c-1.1,4.3-1.6,6.4-2.7,10.7c-1.5,6.3-2.3,9.4-3.8,15.7 c-1.9,7.6-2.8,11.5-4.7,19.1C913.6,906.9,919.2,892.6,924.7,878.2z" fill="#CC142B"/>
    <path d="M930,880.6c1.3,2.5,2,3.7,3.3,6.2c1-1.4,1.5-2.1,2.5-3.6C933.5,882.1,932.3,881.6,930,880.6z" fill="#CC142B"/>
    <path d="M936.7,893.2c-1.4-2.6-2-3.8-3.4-6.4c-1.3-2.5-2-3.7-3.3-6.2l0,0c-1.4-2.7-2.2-4.1-3.6-6.9 c-0.7,1.8-1,2.7-1.7,4.5c-5.5,14.3-11.1,28.7-16.7,43c7.5-7,14.8-14.1,22.1-21.3C932.7,897.2,934,895.9,936.7,893.2z" fill="#CC142B"/>
  </g>
  <g opacity="0.3">
    <path d="M259.7,185c127.9,0,223.7,15.9,325.2,32.8C688.7,235,796.1,252.9,941,252.9c44.4,0,90-6.1,135.4-18.1 c30.5-8.1,61.9-19,93.6-32.7v757.2c-36.8,17.4-73.5,30.8-109.2,40c-40.5,10.4-81.1,15.7-120.8,15.7c-140.1,0-243.6-16.8-343.7-33 c-98.9-16.1-201.3-32.7-336.6-32.7c-45.7,0-91.1,5.3-135.1,15.8C93,972.6,61.3,982.9,30,996V241.6c37.1-17.6,73.8-31.2,109.2-40.5 C179.9,190.4,220.4,185,259.7,185 M1200,155c-89.2,45-174.4,67.9-259,67.9c-280.7,0-416.7-67.9-681.3-67.9 C175.2,155,89.1,178,0,222.9c0,242.4,0,577.6,0,820c89-44.9,175.2-63.6,259.7-63.6c268.9,0,398.5,65.7,680.3,65.7 c84.6,0,170.8-22,260-66.9C1200,735.7,1200,397.4,1200,155L1200,155z" fill="#212121"/>
  </g>
</svg>