<svg viewBox="0 0 1200 890" xmlns="http://www.w3.org/2000/svg" xmlns:xlink="http://www.w3.org/1999/xlink">
  <g>
    <path d="M556.7,416.7c-0.1,0-0.1,0-0.2,0c11.8,13.2,23.5,26.6,35,40.1c-4.4,17.5-8.8,34.9-13.2,52.4 c0.1-0.1,0.2-0.1,0.3-0.2c4.4-17.4,8.8-34.7,13.1-52.1C580.2,443.4,568.5,430,556.7,416.7z" fill="none"/>
    <path d="M635.5,464.7c12.3-9.4,24.7-18.8,37.1-28.2c-0.1,0-0.2,0-0.3,0c-12.3,9.3-24.6,18.6-36.8,28 C635.4,464.6,635.5,464.7,635.5,464.7z" fill="none"/>
    <path d="M649,521.7c0-0.1-0.1-0.2-0.1-0.4c-12.1-13.1-24.1-26.3-35.9-39.7C624.9,495.2,636.9,508.5,649,521.7z" fill="none"/>
    <path d="M615.5,557c-5,0.3-15.5-0.7-15.5-0.7S610.5,557.6,615.5,557z" fill="none"/>
    <path d="M615.5,341.4c5-0.2,15.9,0.7,15.9,0.7S620.5,340.8,615.5,341.4z" fill="none"/>
    <path d="M599.8,424.3c4.5-17.4,9-34.8,13.6-52.3c-4.6,17.4-9.3,34.8-13.8,52.2C599.7,424.2,599.7,424.3,599.8,424.3z" fill="none"/>
    <path d="M0,67.9C97.5,114.4,165.8,197.3,237.9,275c172.2-5.1,338.8,36.8,508.8,55c75.5,8.1,152.2,14.1,228.1,9.8 c80.5-4.5,154.2-27.6,225.1-65.7c0-91.5,0-183,0-274.5c-94,51-189.7,68.8-295.8,66.6C802.2,64.1,700.3,52.7,600,34.7 C499.7,16.9,397.9,3,295.9,0.3c-45.3-1.2-91.1-0.1-135.7,8.4C103.7,19.4,51.2,42.3,0,67.9z"/>
    <path d="M0,887.8c50.8-22.7,102.5-44.1,157.3-54.9c46.5-9.1,94.2-10.5,141.4-9.1c101,3.1,201.6,17.9,301.2,34.4 c99.5,16.5,200.3,28.9,301.3,31.4c107.3,2.7,203.3-16.3,298.7-66.5c0-91.5,0-183,0-274.5c-71,37.8-144.7,61.2-225.2,65.7 c-75.9,4.3-152.7-1.9-228.2-10c-169.9-18.3-336.8-59.8-508.7-54.8C148.1,654.2,80,775.8,0,887.8z" fill="#007A3D"/>
    <path d="M378.1,416.9C328.3,458,280.7,501,237.9,549.5c172-4.9,338.9,36.5,508.7,54.8 c75.5,8.2,152.2,14.3,228.2,10c80.5-4.5,154.2-27.9,225.2-65.7c0-91.5,0-183,0-274.5c-70.9,38.1-144.6,61.3-225.1,65.7 C899,344,822.2,338,746.8,330c-170-18.2-336.6-60.1-508.8-55C283.3,323.6,330.8,370.1,378.1,416.9z M600,336.8 c5.1,0.9,10.5,2.4,15.5,4.6c5-0.5,10.3-0.2,15.9,0.7c54.5,9.1,89,70.3,88.7,122.1c-0.3,47.8-33.2,106.2-88.7,97.4 c-5.5-0.9-10.8-2.3-15.8-4.5c-5,0.5-10.4,0.1-15.5-0.7c-53.6-9-84.4-74.6-84.6-123.4C515.2,387.7,545.9,327.1,600,336.8z" fill="#FFFFFF"/>
    <path d="M378.1,416.9c-47.3-46.7-94.8-93.3-140.2-141.8C165.8,197.3,97.5,114.4,0,67.9c0,273.3,0,546.6,0,820 c80-112.1,148.1-233.6,237.9-338.4C280.7,501,328.3,457.9,378.1,416.9z" fill="#C4111B"/>
    <path d="M600,556.3c5.1,0.9,10.5,1,15.5,0.7c-44.2-18.5-68.1-75-67.2-119.1c0.8-39.1,19.9-92.9,67.2-96.6 c-5-2.2-10.4-3.7-15.5-4.6c-54.1-9.6-84.8,51-84.6,96.2C515.6,481.7,546.4,547.4,600,556.3z" fill="#C4111B"/>
    <path d="M548.3,437.9c-0.9,44.1,23.6,100.4,67.2,119.1c5,2.1,10.3,3.6,15.8,4.5c55.5,8.8,88.5-49.5,88.7-97.4 c0.3-51.8-34.2-113-88.7-122.1c-5.5-0.9-10.9-1-15.9-0.7C568.8,344.3,549.1,398.8,548.3,437.9z M627.1,429.2 c15.1,2.5,30.3,4.9,45.5,7.1c-0.1,0.1-0.2,0.1-0.3,0.2c0.1,0,0.2,0,0.3,0c-12.4,9.3-24.8,18.7-37.1,28.2 c4.5,18.9,9,37.8,13.5,56.7l-0.1-0.1c0,0.1,0.1,0.2,0.1,0.4c-12.1-13.2-24.2-26.6-36-40c-11.6,9.1-23,18.4-34.6,27.6 c0-0.1,0-0.1,0.1-0.2c-0.1,0.1-0.2,0.1-0.3,0.2c4.4-17.5,8.9-34.9,13.2-52.4c-11.5-13.5-23.2-26.9-35-40.1c0.1,0,0.1,0,0.2,0l0,0 c14.3,2.4,28.6,4.9,42.9,7.5c4.6-17.4,9.2-34.8,13.8-52.2C617.9,391.1,622.5,410.1,627.1,429.2z" fill="#FFFFFF"/>
    <path d="M599.6,424.2c-14.3-2.6-28.6-5.1-42.9-7.5l0,0c11.8,13.2,23.5,26.6,35,40.1c-4.3,17.4-8.7,34.8-13.1,52.1 c0,0.1,0,0.1-0.1,0.2c11.5-9.2,22.9-18.5,34.6-27.6c11.8,13.4,23.8,26.6,35.9,39.7l0.1,0.1c-4.5-18.9-9.1-37.8-13.5-56.7 c0-0.1,0-0.1-0.1-0.2c12.2-9.4,24.5-18.7,36.8-28c0.1-0.1,0.2-0.1,0.3-0.2c-15.2-2.3-30.3-4.6-45.5-7.1 c-4.6-19-9.2-38.1-13.7-57.1c-4.6,17.4-9.1,34.8-13.6,52.3C599.7,424.3,599.7,424.2,599.6,424.2z" fill="#C4111B"/>
  </g>
  <g opacity="0.3">
    <path d="M259.7,30c127.9,0,223.7,15.9,325.2,32.8C688.7,80,796.1,97.9,941,97.9c44.4,0,90-6.1,135.4-18.1 c30.5-8.1,61.9-19,93.6-32.7v757.2c-36.8,17.4-73.5,30.8-109.2,40C1020.3,854.7,979.7,860,940,860c-140.1,0-243.6-16.8-343.7-33 c-98.9-16.1-201.3-32.7-336.6-32.7c-45.7,0-91.1,5.3-135.1,15.8C93,817.6,61.3,827.9,30,841V86.6C67.1,69,103.8,55.4,139.2,46.1 C179.9,35.4,220.4,30,259.7,30 M1200,0c-89.2,45-174.4,67.9-259,67.9C660.3,67.9,524.3,0,259.7,0C175.2,0,89.1,23,0,67.9 c0,242.4,0,577.6,0,820c89-44.9,175.2-63.6,259.7-63.6c268.9,0,398.5,65.7,680.3,65.7c84.6,0,170.8-22,260-66.9 C1200,580.7,1200,242.4,1200,0L1200,0z" fill="#212121"/>
  </g>
</svg>