<svg viewBox="0 0 1200 890" xmlns="http://www.w3.org/2000/svg" xmlns:xlink="http://www.w3.org/1999/xlink">
  <g>
    <path d="M177.6,183.5c0,0.2-0.1,0.3-0.1,0.4l0.1,0.1l0,0C177.7,183.7,177.6,183.6,177.6,183.5z" fill="#FFFFFF"/>
    <path d="M243.6,207.4c-0.2,0-0.2-0.1-0.4-0.1c-0.1,0.1-0.1,0.1-0.1,0.1l0,0C243.3,207.5,243.4,207.4,243.6,207.4z" fill="#FFFFFF"/>
    <path d="M151.4,262.5c0.1,0,0.2,0,0.3,0.1c0-0.1,0.1-0.1,0.1-0.2l0,0C151.7,262.4,151.6,262.4,151.4,262.5z" fill="#FFFFFF"/>
    <path d="M215.5,178.5c-0.1,0.1-0.2,0.2-0.4,0.3c0,0.1,0,0.2,0,0.3l0,0C215.4,178.9,215.4,178.8,215.5,178.5z" fill="#FFFFFF"/>
    <path d="M0,614.4c95.2-46.8,192.9-67,298.8-64.1c101,2.8,201.7,16.3,301.2,33.2s200.3,29.7,301.3,32.2 c106.5,2.7,203.1-19.8,298.7-66.8c0,30.5,0,61,0,91.5c-95.5,47-192.2,69.4-298.7,66.7c-101-2.5-201.8-15.3-301.3-32.1 s-200.2-30.2-301.2-33C193.2,639.1,94.9,658.6,0,705.5C0,675.1,0,644.8,0,614.4z" fill="#FFFFFF"/>
    <path d="M243.7,250.8c-0.1-0.2-0.2-0.2-0.3-0.4c-0.1,0-0.2,0-0.3,0l0,0C243.4,250.7,243.6,250.7,243.7,250.8z" fill="#FFFFFF"/>
    <path d="M177.6,288.2c0.1-0.1,0.2-0.2,0.4-0.3c0-0.1,0-0.2,0-0.3l0,0C177.8,287.8,177.7,288.1,177.6,288.2z" fill="#FFFFFF"/>
    <path d="M151.4,219.1c0.1,0.1,0.1,0.2,0.2,0.4c0.1,0,0.1,0,0.2,0l0,0C151.8,219.3,151.7,219.2,151.4,219.1z" fill="#FFFFFF"/>
    <path d="M215.7,283.5c0-0.2,0.1-0.3,0.1-0.4s-0.1-0.1-0.1-0.1l0,0C215.7,283.1,215.7,283.2,215.7,283.5z" fill="#FFFFFF"/>
    <path d="M0,796.6c94.6-47.1,193.5-66,298.8-63.1c101,2.8,201.7,16.2,301.2,32.9s200.3,29.5,301.3,32 c106.4,2.7,203.3-19.7,298.7-66.6c0,30.5,0,60.9,0,91.4c-95.4,47-192.4,69.3-298.7,66.6c-101-2.6-201.8-15.4-301.3-32 C400.5,824.5,187.6,793.6,0,888C0,857.4,0,827,0,796.6z" fill="#FFFFFF"/>
    <path d="M0,67.9c0,151.8,0,303.6,0,455.4c95.4-46.6,192.7-67.8,298.8-64.8c101,2.8,201.7,16.3,301.2,33.4 s200.3,29.8,301.3,32.4c106.6,2.7,203.1-19.9,298.7-67c0-30.5,0-61.1,0-91.6c-58.4,28.7-118.9,51.7-183.5,61.4 c-56,8.4-112.8,6.8-169.1,3.3c-140.8-8.8-278.3-38.9-418.3-54.3c0-30.5,0-61.1,0-91.6C569,300,706.6,330.3,847.3,339.1 c56.3,3.5,113.1,5,169-3.3c64.7-9.7,125.2-32.8,183.6-61.5c0-30.5,0-61,0-91.5c-58.5,28.8-119,52-183.7,61.7 c-55.9,8.4-112.7,6.8-168.9,3.3C706.5,239,569,208.5,429.1,193c0-30.5,0-61,0-91.4c139.9,15.6,277.4,46.2,418.2,55 c56.2,3.5,113,5.1,168.9-3.3c64.8-9.7,125.3-33,183.8-61.8c0-30.5,0-60.9,0-91.4c-96,47.1-191.7,70.2-298.7,67.5 C800.3,65,699.4,52.4,600,34.8C500.6,17.1,399.8,3.3,298.8,0.5C191.4-2.6,96.7,22,0,67.9z M314.8,266c11.8,3.3,23.2,8.7,28.3,20.7 c1.1,2.2,1.7,3.3,2.8,5.5c-0.5-0.6-0.7-0.9-1.2-1.5c0.6,1.3,1,2.7,1.6,4.2c0.2,0.7,0.4,1,0.6,1.7c-0.5-0.5-0.8-0.8-1.3-1.3 c-8.8-10.3-20-14.4-33.1-12.6c-19,2.5-35.8-1.9-53.5-8.6c-0.2-0.1-0.2-0.1-0.4-0.1c0.1-0.3,0.2-0.4,0.3-0.7 c-5.6-8.4-8.4-12.6-13.9-20.9c-0.5-0.3-1-0.6-1.5-0.9c21.7,32.7,43.6,65.2,66,97.4c-22.8-16.1-45.4-32.3-68.2-48.3 c1.2,15.5,4.3,28.7,12,42.2c6.2,10,9.3,20.9,5,32.4c-0.7,2.3-1.1,3.4-1.8,5.7c0.1-0.7,0.1-1.1,0.1-1.8c-0.5,1.2-1.2,2.6-1.8,4 c-0.3,0.6-0.5,0.9-0.8,1.5c0-0.7,0-1.1,0-1.8c1.1-12.4-3.5-22.2-13.4-29.4c-14.8-10.5-22.5-25-29.4-41.5c0-0.2-0.1-0.2-0.1-0.4 c0.2-0.1,0.4-0.2,0.6-0.3c1.6-10.3,2.5-15.5,4.1-25.8c-0.1-0.5-0.2-1.2-0.4-1.8c-6.4,39.4-12.7,78.7-19.1,118.1 c-4.4-27.1-8.7-54.3-13-81.4c-8.9,13.5-14.9,26.3-18.3,42.1c-2.1,11.8-6.6,22.6-16.6,29.9c-1.8,1.4-2.7,2.2-4.6,3.6 c0.5-0.5,0.7-0.8,1.2-1.4c-1.1,0.8-2.2,1.5-3.5,2.3c-0.6,0.3-0.8,0.5-1.4,0.9c0.4-0.6,0.6-0.9,1.1-1.5 c7.8-10.4,11.4-20.4,9.4-33.2c-2.8-19,1.4-36.7,6.9-54.9c0-0.2,0.1-0.3,0.1-0.4c0.2,0.1,0.3,0.1,0.6,0.2 c7.3-7.3,10.9-10.9,18.3-18c0.2-0.6,0.6-1.2,0.8-1.8c-28.7,27.9-56,57-82.4,87c13.4-27.1,27-54.1,40.8-81 c-14.1,3.5-25.8,12.7-35.8,22.8c-5.8,5.8-10.8,10.9-17.4,13.2c-2.9,1-6.1,1.5-10,1.4c-1.9-0.1-2.9-0.1-4.8-0.1 c0.7-0.1,1-0.2,1.6-0.3c-1-0.1-2.2-0.4-3.4-0.6c-0.5-0.1-0.8-0.2-1.3-0.3c0.6-0.2,0.9-0.4,1.5-0.6c12.2-4.4,19.6-12,25.3-23.4 c8.9-17.7,21.3-30.7,36.6-43.2c0.1-0.1,0.2-0.1,0.3-0.2c0.1,0.3,0.1,0.4,0.2,0.6c8.5-0.4,12.8-0.5,21.3-0.6c0.5-0.2,1-0.5,1.5-0.7 c-33.1,0.2-65.5,3.3-98.1,9.3c23-14,46.2-27.2,70.2-39.2c-10.6-7.4-19.4-11.7-32.6-10.9c-9.3,0.3-16.8,0.8-22.4-11 c-0.9-1.8-1.3-2.7-2.2-4.5c0.4,0.4,0.6,0.6,0.9,1c-0.5-1.1-0.8-2.3-1.3-3.6c-0.2-0.6-0.3-0.9-0.5-1.5c0.4,0.3,0.6,0.5,1,0.8 c8,7.7,17.6,6.7,26.3,1.2c14.1-7.5,29-9.5,44.8-5.3c0.1,0,0.2,0,0.3,0.1c-0.1,0.3-0.1,0.4-0.2,0.7c4.9,7.3,7.3,11,12.2,18.4 c0.5,0.2,0.9,0.5,1.4,0.7c-18.1-27.4-36.4-54.7-55.3-81.6c19.7,9.9,38.9,20.7,57.8,32.1c-1-14.7-3.3-27.2-10.5-40.2 c-5.9-9.7-7.8-20.3-4.2-31.3c0.7-2.4,1-3.6,1.6-6c-0.1,0.7-0.1,1.1-0.1,1.8c0.5-1.3,1-2.9,1.6-4.4c0.3-0.7,0.4-1,0.7-1.7 c0,0.7,0,1.1,0,1.8c-0.4,10.9,1.7,21.4,11.8,27.1c14.2,9,20.9,23.3,27.2,38.4c0,0.2,0.1,0.2,0.1,0.4c-0.2,0.1-0.4,0.2-0.6,0.4 c-1.6,10.4-2.4,15.6-4,26c0.1,0.5,0.2,1.2,0.3,1.7c6.2-39.5,12.4-79,18.7-118.5c4.3,27.2,8.7,54.4,13.1,81.6 c9.1-12.9,15.4-25.4,18.9-40.7c2.1-11.4,6.9-21.9,17.7-27.5c2-1.1,3-1.7,5-2.8c-0.5,0.5-0.8,0.7-1.3,1.1c1.2-0.6,2.5-1,3.9-1.6 c0.6-0.2,0.9-0.4,1.6-0.6c-0.5,0.5-0.7,0.8-1.2,1.3c-9.4,8.6-12.2,19.3-10.2,31.5c3.1,18.9-1.2,36-7.3,53.9 c-0.1,0.2-0.1,0.3-0.1,0.4c-0.3-0.1-0.4-0.1-0.6-0.2c-7.8,6.3-11.7,9.5-19.3,16c-0.2,0.6-0.6,1.2-0.9,1.7 c29.6-25.1,60.5-47.8,93.1-68.6c-16.5,22.6-32.6,45.4-48,68.8c15.5-1.4,28.7-4.9,42.3-12.3c10.7-6.3,22.3-8.8,34.1-3.7 c2.4,0.9,3.6,1.4,6.1,2.3c-0.8-0.1-1.2-0.2-1.9-0.3c1.3,0.6,2.8,1.4,4.3,2.2c0.7,0.4,1,0.6,1.6,0.9c-0.8-0.1-1.2-0.1-1.9-0.1 c-13.1-1.9-23.8,2.3-31.7,12.6c-11.4,15.1-26.8,23.5-43.8,31.3c-0.2,0.1-0.2,0.1-0.4,0.1c-0.1-0.3-0.2-0.4-0.3-0.7 c-9.9-1.8-14.7-2.6-24.2-4.1c-0.5,0.2-1.2,0.3-1.7,0.5c39.8,6.5,79.1,15.1,118.3,24.4c-29.1,2.8-58,6.4-86.9,11.4 C287.2,254.2,299.3,261.9,314.8,266z" fill="#FFFFFF"/>
    <path d="M429.1,101.4c139.9,15.6,277.4,46.2,418.2,55c56.2,3.5,113,5.1,168.9-3.3c64.8-9.7,125.3-33,183.8-61.8 c0,30.5,0,61,0,91.5c-58.5,28.8-119,52-183.7,61.7c-55.9,8.4-112.7,6.8-168.9,3.3C706.6,239,569.1,208.5,429.1,193 C429.1,162.4,429.1,131.9,429.1,101.4z" fill="#0038A8"/>
    <path d="M429.1,284.5C569,300,706.6,330.3,847.3,339.1c56.3,3.5,113.1,5,169-3.3c64.7-9.7,125.2-32.8,183.6-61.5 c0,30.5,0,61,0,91.6c-58.4,28.7-118.9,51.7-183.5,61.4c-56,8.4-112.8,6.8-169.1,3.3C706.5,421.8,569,391.7,429,376.3 C429.1,345.6,429.1,315,429.1,284.5z" fill="#0038A8"/>
    <path d="M0,523.3c95.4-46.6,192.7-67.8,298.8-64.8c101,2.8,201.7,16.3,301.2,33.4s200.3,29.8,301.3,32.4 c106.6,2.7,203.1-19.9,298.7-67c0,30.5,0,61,0,91.6c-95.6,47-192.2,69.5-298.7,66.8c-101-2.6-201.8-15.3-301.3-32.2 s-200.2-30.4-301.2-33.2c-105.9-3-203.6,17.3-298.8,64.1C0,584,0,553.7,0,523.3z" fill="#0038A8"/>
    <path d="M0,705.5c94.9-46.9,193.2-66.4,298.8-63.6c101,2.8,201.7,16.2,301.2,33s200.3,29.6,301.3,32.1 c106.5,2.7,203.2-19.7,298.7-66.7c0,30.5,0,61,0,91.5c-95.5,47-192.3,69.3-298.7,66.6c-101-2.5-201.8-15.3-301.3-32 s-200.2-30.1-301.2-32.9c-105.3-2.9-204.2,16-298.8,63.1C0,766.3,0,735.9,0,705.5z" fill="#0038A8"/>
    <path d="M158.7,356.1c-1.3,13.4-3.7,27.1-13.5,37.1c0.6-0.4,1.1-0.8,1.6-1.2c0.3-0.3,0.4-0.5,0.7-0.8 c2.9-3.4,5.2-7.3,6.8-11.6c2.5-6.7,3.5-14.3,4.6-22.3c0-0.5,0.1-0.8,0.1-1.3c2.9-24,9.1-45.6,18.9-67.7c0-0.2,0-0.2,0-0.4 c-0.1,0.1-0.2,0.2-0.4,0.3C167.7,310.4,161.6,332.1,158.7,356.1z" fill="#FCD116"/>
    <path d="M157.8,308.1c-5.5,18.1-9.6,35.6-6.8,54.5c2.2,12.7-1.7,21.1-8.1,31.8c10.9-9.9,13.7-24.1,15-38.1 c2.9-23.4,8.8-44.8,18.2-66.5c-7.4,7.1-11,10.7-18.3,18h0.1C157.9,307.8,157.9,307.9,157.8,308.1z" fill="#FCD116"/>
    <path d="M146.8,392c-0.5,0.4-1.1,0.8-1.6,1.2c-1.2,1.1-2.5,2.3-3.9,3.3c-0.1-0.2-0.2-0.4-0.3-0.6 c0.7-0.6,1.3-1.1,2-1.7c6.4-10.7,10.3-19.1,8.1-31.8c-2.8-18.9,1.4-36.4,6.8-54.5c0-0.2,0.1-0.3,0.1-0.4h-0.1 c-0.2-0.1-0.3-0.1-0.6-0.2c0,0.2-0.1,0.3-0.1,0.4c-5.5,18.2-9.7,35.9-6.9,54.9c2,12.7-1.7,22.8-9.4,33.2c-0.4,0.6-0.6,0.9-1.1,1.5 c0.6-0.3,0.8-0.5,1.4-0.9c1.3-0.7,2.5-1.5,3.5-2.3C145.5,393.4,145.9,392.9,146.8,392z" fill="#7B3F00"/>
    <path d="M159.9,357.2c-1.1,8.2-2.1,15.8-4.6,22.7c-1.1,2.8-2.4,5.4-3.9,7.8c6.8-6,10.8-16.8,12.1-25.6 c3.6-16.5,9.8-29.6,19.2-43.5c-1.5-9.4-3-18.9-4.4-28.3c-9.4,21.5-15.3,42.5-18.1,65.7C160.2,356.5,160.1,356.8,159.9,357.2z" fill="#7B3F00"/>
    <path d="M177.8,287.7L177.8,287.7L177.8,287.7L177.8,287.7z" fill="#7B3F00"/>
    <path d="M182.7,318.6c-9.4,13.9-15.7,27.1-19.2,43.6c-1.8,9.5-4.7,18.8-12.1,25.6c1.5-2.4,2.8-5,3.9-7.8 c2.6-7,3.6-14.6,4.6-22.7c0-0.5,0.1-0.8,0.1-1.3c2.9-23.2,8.7-44.2,18.1-65.8c-0.1-0.8-0.2-1.2-0.3-2c-9.8,22.1-16,43.7-18.9,67.7 c0,0.5-0.1,0.8-0.1,1.3c-1,8-2.1,15.6-4.6,22.3c-1.7,4.5-3.9,8.2-6.8,11.6c-0.3,0.3-0.4,0.5-0.7,0.8c-0.8,0.9-1.2,1.4-2,2.4 c-0.5,0.5-0.7,0.8-1.2,1.4c1.8-1.5,2.7-2.2,4.6-3.6c10-7.3,14.5-18.1,16.6-29.9c3.4-15.8,9.4-28.7,18.3-42.1 C182.7,319.5,182.7,319.2,182.7,318.6z" fill="#7B3F00"/>
    <path d="M142.9,394.2c-0.6,0.5-1.3,1.1-2,1.7c0.1,0.2,0.2,0.4,0.3,0.6c1.4-1.1,2.7-2.3,3.9-3.3 c9.8-10,12.2-23.7,13.5-37.1c2.9-24,9.1-45.7,18.9-67.9c0.1-0.2,0.1-0.3,0.2-0.6l0,0c0-0.2,0-0.2,0-0.4c0,0-0.1,0-0.1-0.1 c-0.2,0.3-0.4,0.4-0.6,0.6c-0.2,0.6-0.6,1.2-0.8,1.8c-9.4,21.7-15.3,43.1-18.2,66.5C156.6,370.1,153.9,384.3,142.9,394.2z" fill="#7B3F00"/>
    <path d="M178.5,287.5c5.6,35.8,11.3,71.5,17.1,107.3c0.1-35.3,0.2-70.6,0.3-105.9 C189.7,289.7,184,289.2,178.5,287.5z" fill="#FCD116"/>
    <path d="M214.7,283c-6.3,38.8-12.5,77.6-18.7,116.4c0.1-36.8,0.2-73.7,0.3-110.5c-0.1,0-0.2,0-0.4,0 c-0.1,35.3-0.2,70.6-0.3,105.9c-5.7-35.8-11.4-71.5-17.1-107.3c-0.2-0.1-0.5-0.2-0.8-0.3c0,0.2,0,0.2,0,0.4l0,0c0,0.1,0,0.2,0,0.3 c0,0.2,0,0.2,0,0.4c0.1,0.8,0.2,1.2,0.3,2c1.5,9.4,2.9,18.9,4.4,28.3c0.1,0.6,0.1,1,0.2,1.6c4.3,27.1,8.6,54.3,13,81.4 c6.3-39.4,12.7-78.8,19.1-118.1C215,283.4,214.9,283.1,214.7,283C214.9,282.9,214.7,282.9,214.7,283z" fill="#7B3F00"/>
    <path d="M196.3,288.9L196.3,288.9c-0.1,36.8-0.2,73.7-0.3,110.5c6.2-38.8,12.4-77.6,18.7-116.4 C208.9,286,202.7,288.2,196.3,288.9z" fill="#7B3F00"/>
    <path d="M128.1,263.3c-15.2,12.4-27.5,25.3-36.3,42.9c-5.3,10.8-12.1,18.4-23.5,23.1c14.2-1,22.9-13.6,31.4-23.5 c14.6-17.7,30.4-31.7,50.2-43.4c-8.6,0-12.8,0.2-21.3,0.6c0,0.1,0,0.1,0,0.1C128.4,263.3,128.3,263.3,128.1,263.3z" fill="#FCD116"/>
    <path d="M99.9,306.5c-6.9,8.1-14.4,18.4-24.6,22.3c-1.7,0.7-3.5,1-5.3,1.3c0.6,0.1,1.2,0.1,1.6,0.2 c0.4-0.1,0.6-0.1,0.9-0.2c3.7-0.8,7.3-2.7,10.9-5.5c5.5-4.2,10.6-10.5,15.9-16.9c0.3-0.4,0.5-0.6,0.8-0.9 c14.6-17.6,30.8-33.4,51.4-43.8c0-0.1,0.1-0.2,0.1-0.3c-0.1,0-0.2,0-0.3-0.1C130.7,273.1,114.5,288.8,99.9,306.5z" fill="#FCD116"/>
    <path d="M71.7,330.1c-0.6-0.1-1-0.2-1.6-0.2c-1.3,0.2-2.7,0.2-4.2,0.2c0.1-0.4,0.1-0.5,0.2-0.9c0.7,0,1.4,0,2.1,0 c11.5-4.6,18.2-12.3,23.5-23.1c9-17.5,21.1-30.5,36.3-42.9c0.1-0.1,0.2-0.1,0.3-0.2c0-0.1,0-0.1,0-0.1c-0.1-0.3-0.1-0.4-0.2-0.6 c-0.1,0.1-0.2,0.1-0.3,0.2c-15.3,12.5-27.6,25.6-36.6,43.2c-5.6,11.5-13,18.9-25.3,23.4c-0.6,0.2-0.9,0.4-1.5,0.6 c0.5,0.1,0.8,0.2,1.3,0.3c1.2,0.2,2.3,0.5,3.4,0.6C70.1,330.4,70.6,330.3,71.7,330.1z" fill="#7B3F00"/>
    <path d="M100,308.5c-5.5,6.5-10.6,12.8-16.3,17.1c-2.3,1.8-4.5,3.1-7,4.3c9.2-0.9,14.8-6.8,22.1-14.2 c10.3-10.5,22.5-20,37.2-23.4c4.7-9.2,9.5-18.4,14.3-27.5c-19.7,11.4-35.2,25.2-49.7,42.7C100.4,307.9,100.3,308.1,100,308.5z" fill="#7B3F00"/>
    <path d="M151.9,262.2L151.9,262.2L151.9,262.2L151.9,262.2z" fill="#7B3F00"/>
    <path d="M136.2,292.3c-14.7,3.4-26.9,12.8-37.2,23.4c-7.4,7.4-13,13.1-22.1,14.2c2.3-1,4.6-2.5,7-4.3 c5.6-4.4,10.8-10.6,16.3-17.1c0.3-0.4,0.5-0.6,0.8-0.9c14.5-17.5,29.9-31.3,49.7-42.7c0.4-0.8,0.6-1.2,1.1-2 c-20.6,10.5-36.8,26.2-51.4,43.8c-0.3,0.4-0.5,0.6-0.8,0.9c-5.3,6.4-10.4,12.6-15.9,16.8c-3.6,2.8-7.1,4.6-10.9,5.5 c-0.4,0.1-0.6,0.1-0.9,0.2c-1,0.3-1.5,0.4-2.4,0.7c-0.7,0.1-1,0.2-1.6,0.3c1.9,0,2.9,0.1,4.8,0.1c3.8,0.2,7.1-0.4,10-1.4 c6.6-2.3,11.6-7.4,17.4-13.2c9.9-10.2,21.7-19.4,35.8-22.9C135.8,293.1,136,292.8,136.2,292.3z" fill="#7B3F00"/>
    <path d="M68.2,329.4c-0.7,0-1.4,0-2.1,0c-0.1,0.4-0.1,0.5-0.2,0.9c1.4,0,2.8,0,4.2-0.2c1.9-0.3,3.8-0.7,5.3-1.3 c10.2-3.9,17.7-14.3,24.6-22.3c14.6-17.6,30.8-33.3,51.4-43.8c0.1,0,0.3-0.2,0.5-0.2l0,0c0.1-0.1,0.1-0.2,0.2-0.3 c0,0,0-0.1-0.1-0.1c-0.3,0-0.4,0-0.7,0c-0.5,0.2-1,0.5-1.5,0.7c-19.9,11.6-35.5,25.8-50.2,43.4C91.1,315.9,82.4,328.3,68.2,329.4z " fill="#7B3F00"/>
    <path d="M152.4,262.7c-18.4,35-36.3,70.3-53.9,105.7c20.6-30.7,41.7-61.1,63.5-90.9 C158,273.6,154.8,268.5,152.4,262.7z" fill="#FCD116"/>
    <path d="M177.2,287.1c-28.3,27.4-55.1,56.1-81.2,85.7c21.5-32.1,43.4-63.7,66.2-94.9c-0.1-0.1-0.1-0.1-0.2-0.2 c-21.8,29.8-42.9,60.2-63.5,90.9c17.7-35.4,35.6-70.7,53.9-105.7c-0.1-0.3-0.2-0.5-0.3-0.8c-0.1,0.1-0.1,0.2-0.2,0.3l0,0 c0,0.1-0.1,0.1-0.1,0.2s-0.1,0.2-0.1,0.3c-0.4,0.8-0.6,1.2-1.1,2c-4.8,9.2-9.5,18.3-14.3,27.5c-0.3,0.6-0.5,0.9-0.8,1.6 c-13.8,26.9-27.4,53.9-40.8,81c26.4-30,53.7-59.2,82.4-87.1c0.2-0.3,0.4-0.4,0.6-0.6C177.4,287.2,177.3,287.2,177.2,287.1z" fill="#7B3F00"/>
    <path d="M162.2,277.9c-22.8,31.1-44.7,62.8-66.2,94.9c26.1-29.5,52.9-58.2,81.2-85.7 C171.5,285.2,166.5,282,162.2,277.9z" fill="#7B3F00"/>
    <path d="M97.5,212.2c-9.6,2-22.4,4.3-28.9-5.2c0.2,0.6,0.5,1.1,0.7,1.6c0.2,0.2,0.3,0.4,0.6,0.6 c2.3,2.5,5.2,4,8.6,4.7c5.2,1,11.5-0.2,18-1.1c0.4-0.1,0.6-0.1,1-0.2c19.3-3.4,35.8-0.6,53.8,7c0.1,0,0.2,0,0.3-0.1 c-0.1-0.1-0.1-0.2-0.2-0.4C133.4,211.5,116.8,208.8,97.5,212.2z" fill="#FCD116"/>
    <path d="M138,199.3c-15.6-4.2-30.4-2.2-44.4,5.3c-8.9,4.5-14.9,7.8-25.4-0.1c5.9,11,19.4,8.9,29.5,6.8 c19-3,35-0.8,52.9,6.4c-4.9-7.4-7.4-11.1-12.2-18.4c0,0.1,0,0.1,0,0.1C138.2,199.4,138.1,199.3,138,199.3z" fill="#FCD116"/>
    <path d="M69.3,208.6c-0.2-0.5-0.5-1.1-0.7-1.6c-0.7-1.1-1.5-2.3-2.1-3.7c0.2-0.3,0.4-0.4,0.6-0.6 c0.3,0.7,0.7,1.2,1,1.9c10.5,7.8,16.5,4.6,25.4,0.1c14-7.4,28.8-9.3,44.4-5.3c0.1,0,0.2,0,0.3,0.1c0-0.1,0-0.1,0-0.1 c0.1-0.3,0.1-0.4,0.2-0.7c-0.1,0-0.2,0-0.3-0.1c-15.7-4.2-30.6-2.2-44.8,5.3c-8.7,5.4-18.3,6.4-26.3-1.2c-0.4-0.3-0.6-0.5-1-0.8 c0.2,0.6,0.3,0.9,0.5,1.5c0.3,1.4,0.8,2.6,1.3,3.6C68.4,207.5,68.7,207.8,69.3,208.6z" fill="#7B3F00"/>
    <path d="M96.3,214.1c-6.7,1-12.9,2.1-18.4,1.2c-2.2-0.4-4.2-1.2-5.9-2.3c5.1,7.4,11.3,7.1,19.5,6.9 c13.7-0.8,22.8,3.8,33.7,11.7c9.7-4.7,14.6-6.9,24.3-11.2c-17.7-7.2-33.5-9.4-52.3-6.3C96.9,214.1,96.7,214.1,96.3,214.1z" fill="#7B3F00"/>
    <path d="M151.9,219.3L151.9,219.3L151.9,219.3L151.9,219.3z" fill="#7B3F00"/>
    <path d="M125.2,231.5c-10.9-7.9-20-12.5-33.7-11.7c-8.2,0.2-14.6,0.6-19.5-6.9c1.7,1.1,3.7,1.9,5.9,2.3 c5.4,1,11.7-0.1,18.4-1.2c0.4-0.1,0.6-0.1,1-0.2c18.9-2.9,34.5-0.9,52.3,6.3c0.7-0.3,1-0.5,1.7-0.8c-18-7.6-34.5-10.4-53.8-7 c-0.4,0.1-0.6,0.1-1,0.2c-6.6,1.1-12.8,2.1-18,1.1c-3.5-0.6-6.3-2.2-8.6-4.7c-0.2-0.2-0.3-0.4-0.6-0.6c-0.6-0.7-1-1-1.6-1.7 c-0.4-0.4-0.6-0.6-0.9-1c0.9,1.8,1.3,2.7,2.2,4.5c5.5,11.8,13.1,11.3,22.4,11c13.1-0.8,22.1,3.6,32.6,10.9 C124.5,231.8,124.8,231.7,125.2,231.5z" fill="#7B3F00"/>
    <path d="M68.2,204.5c-0.3-0.5-0.7-1.2-1-1.9c-0.2,0.3-0.4,0.4-0.6,0.6c0.7,1.4,1.4,2.6,2.1,3.7 c6.5,9.5,19.3,7.2,28.9,5.2c19.3-3.4,35.9-0.5,53.9,6.9c0.1,0.1,0.2,0.1,0.5,0.2l0,0c0.1,0,0.2,0,0.3-0.1c0,0,0-0.1,0.1-0.2 c-0.2-0.2-0.3-0.4-0.5-0.6c-0.5-0.2-0.9-0.5-1.4-0.7c-17.9-7.2-33.9-9.3-52.9-6.4C87.5,213.5,74,215.5,68.2,204.5z" fill="#7B3F00"/>
    <path d="M151.9,220.1c-32,14.2-62.5,30.6-92.4,48.6c29.1-11.4,58.6-20.8,89-27.9 C148.7,233.7,149.9,226.9,151.9,220.1z" fill="#FCD116"/>
    <path d="M151.9,261.3c-32.5,0.3-64.3,3.5-96.3,9.4c30.4-12.1,61.1-22,92.9-29.4c0-0.1,0-0.3,0-0.4 c-30.5,7.1-59.9,16.5-89,27.9c29.9-18,60.4-34.4,92.4-48.5c0.1-0.3,0.2-0.6,0.4-1c-0.1,0-0.2,0-0.3,0.1l0,0c-0.1,0-0.1,0-0.2,0 c-0.1,0-0.2,0-0.3,0.1c-0.7,0.3-1,0.5-1.7,0.8c-9.8,4.2-14.6,6.5-24.3,11.2c-0.6,0.3-0.8,0.4-1.4,0.6 c-24.1,12.1-47.3,25.2-70.2,39.2c32.4-6.1,64.7-9.4,97.7-9.7c0.3,0,0.4,0,0.7,0C152,261.5,151.9,261.4,151.9,261.3z" fill="#7B3F00"/>
    <path d="M148.5,241.3L148.5,241.3c-31.9,7.4-62.6,17.4-93,29.5c32-5.9,63.8-9.1,96.3-9.5 C149.7,255.3,148.5,248.6,148.5,241.3z" fill="#7B3F00"/>
    <path d="M181.7,155.1c-6.3-14.9-12.9-29.2-27.1-38c-9.2-5.2-12.7-14.6-12.1-25c-3.5,13.1,2.4,24.6,10.2,34.7 c12.2,17,19.7,34.6,25.1,54.8c1.6-10.4,2.4-15.6,4-26h-0.1C181.7,155.4,181.7,155.3,181.7,155.1z" fill="#FCD116"/>
    <path d="M152.3,127.2c-7.4-9.6-13.3-20.4-10.8-32.9c-0.2,0.7-0.5,1.5-0.7,2.1c0,0.5-0.1,0.7-0.1,1.1 c-0.5,4.5-0.1,8.6,1.2,12.6c1.9,6,5.7,11.1,9.5,16.6c0.2,0.3,0.3,0.5,0.6,0.8c12.6,17.4,20,35.3,25.3,56.1c0.1,0,0.1,0.1,0.2,0.1 c0-0.2,0.1-0.3,0.1-0.4C172.3,162.5,164.8,144.6,152.3,127.2z" fill="#FCD116"/>
    <path d="M140.7,96.5c0.2-0.7,0.5-1.3,0.7-2.1c0.2-1.6,0.7-3.3,1.2-5.2c0.3,0,0.4,0.1,0.7,0.1 c-0.2,0.9-0.5,1.8-0.7,2.6c-0.7,10.4,2.9,19.8,12.1,25c14,9,20.7,23,27.1,38c0,0.2,0.1,0.2,0.1,0.4h0.1c0.2-0.1,0.4-0.2,0.6-0.4 c0-0.2-0.1-0.2-0.1-0.4c-6.4-15.1-13.1-29.3-27.2-38.4c-10.2-5.5-12.1-16.3-11.8-27.1c0-0.7,0-1.1,0-1.8c-0.3,0.7-0.4,1-0.7,1.7 c-0.6,1.5-1.2,3-1.6,4.4C141,94.6,140.9,95.2,140.7,96.5z" fill="#7B3F00"/>
    <path d="M150.4,127.7c-4-5.6-7.7-10.7-9.7-17c-0.8-2.6-1.2-5-1.4-7.9c-2.1,11.3,1.2,17.2,5.3,24.9 c7.5,13.5,9.7,26.5,10.6,41.8c8.2,5,12.3,7.6,20.5,12.9c-5.3-20-12.6-37.3-24.7-54.1C150.8,128.1,150.7,128,150.4,127.7z" fill="#7B3F00"/>
    <path d="M177.7,184L177.7,184L177.7,184L177.7,184z" fill="#7B3F00"/>
    <path d="M155.3,169.8c-0.9-15.3-3.1-28.3-10.6-41.8c-4.2-7.8-7.4-13.6-5.3-24.9c0.1,2.7,0.7,5.3,1.4,7.9 c2,6.1,5.7,11.4,9.7,17c0.2,0.3,0.3,0.5,0.6,0.8c12.2,16.8,19.5,34,24.7,54.1c0.6,0.4,0.9,0.6,1.5,1 c-5.3-20.8-12.7-38.7-25.3-56.1c-0.2-0.3-0.3-0.5-0.6-0.8c-3.9-5.5-7.6-10.6-9.5-16.6c-1.2-4-1.7-8-1.2-12.6 c0-0.5,0.1-0.7,0.1-1.1c0.1-1.2,0.1-1.8,0.2-3.1c0.1-0.7,0.1-1.1,0.1-1.8c-0.7,2.4-1,3.6-1.6,6c-3.5,11-1.7,21.6,4.2,31.3 c7.3,12.9,9.5,25.5,10.5,40.2C154.6,169.4,154.8,169.5,155.3,169.8z" fill="#7B3F00"/>
    <path d="M142.6,92c0.2-0.9,0.5-1.8,0.7-2.6c-0.3,0-0.4-0.1-0.7-0.1c-0.5,1.8-0.9,3.5-1.2,5.2 c-2.5,12.5,3.4,23.3,10.8,32.9c12.6,17.4,20,35.3,25.3,56.1c0,0.1,0.1,0.4,0.1,0.5l0,0c0.1,0.1,0.1,0.1,0.2,0.2c0,0,0.1,0,0.1-0.2 c0-0.3,0.1-0.5,0.1-0.8c-0.1-0.5-0.2-1.2-0.3-1.7c-5.4-20.3-12.9-37.8-25.1-54.8C144.8,116.6,139,105.1,142.6,92z" fill="#7B3F00"/>
    <path d="M177.2,184.6c-24.9-16-50.2-31.1-76.5-44.6c21.3,18.9,41.9,38.5,62.2,58.6 C167,193.1,171.8,188.4,177.2,184.6z" fill="#FCD116"/>
    <path d="M152.5,218.5c-17.9-27-36.1-53.9-54.8-80.4c22.3,19.6,43.7,40,64.8,60.8c0.1-0.2,0.1-0.2,0.2-0.3 c-20.2-20-40.8-39.7-62.1-58.6c26.3,13.6,51.6,28.7,76.5,44.6c0.2-0.2,0.5-0.4,0.7-0.5c-0.1-0.1-0.1-0.1-0.2-0.2l0,0l-0.1-0.1 c-0.1,0-0.1-0.1-0.2-0.1c-0.6-0.4-0.9-0.6-1.5-1c-8.3-5.3-12.4-7.9-20.5-12.9c-0.5-0.3-0.7-0.4-1.2-0.7 c-18.9-11.4-38.1-22.2-57.8-32.1c19,26.8,37.4,54,55.6,81.4c0.2,0.2,0.3,0.4,0.5,0.6C152.4,218.8,152.5,218.6,152.5,218.5z" fill="#7B3F00"/>
    <path d="M162.6,198.9c-21.1-20.8-42.6-41.2-64.8-60.8c18.7,26.5,36.8,53.4,54.8,80.4 C155,211.4,158.3,204.8,162.6,198.9z" fill="#7B3F00"/>
    <path d="M236.3,160.8c6-17.8,10.2-34.7,7.1-53.5c-2.2-11.4,0.4-21.9,8.7-30.3c-12.6,6.8-14.7,23-16.2,35.6 c-3,23-9.2,43.6-19,64.6c7.6-6.5,11.5-9.7,19.3-16c-0.1,0-0.1,0-0.1,0C236.2,161.1,236.2,161,236.3,160.8z" fill="#FCD116"/>
    <path d="M235.3,112.6c1.6-12.9,3.5-26.6,14.5-34.9c-0.6,0.3-1.2,0.6-1.8,0.9c-0.3,0.3-0.5,0.4-0.8,0.7 c-3.2,2.9-5.6,6.4-7.4,10.5c-2.7,6.3-3.7,13.8-4.8,21.7c-0.1,0.5-0.1,0.7-0.1,1.2c-3,23.5-9.5,44.3-19.7,65.8c0,0.2,0,0.2,0,0.4 c0.1-0.1,0.2-0.2,0.4-0.3C225.8,157,232.1,136.1,235.3,112.6z" fill="#FCD116"/>
    <path d="M248,78.5c0.5-0.3,1.2-0.6,1.8-0.9c1.3-0.9,2.7-1.9,4.3-2.6c0.2,0.3,0.2,0.4,0.4,0.7 c-0.8,0.4-1.4,0.9-2.2,1.3c-8.3,8.5-11,18.9-8.7,30.3c3.1,18.7-1.2,35.7-7.1,53.5c-0.1,0.2-0.1,0.3-0.1,0.4c0.1,0,0.1,0,0.1,0 c0.3,0.1,0.4,0.1,0.6,0.2c0.1-0.2,0.1-0.3,0.1-0.4c6.1-17.9,10.4-35,7.3-53.9c-2-12.1,0.9-22.8,10.2-31.5c0.5-0.5,0.7-0.8,1.2-1.3 c-0.6,0.2-0.9,0.3-1.6,0.6c-1.4,0.4-2.7,1-3.9,1.6C249.4,77.4,249,77.8,248,78.5z" fill="#7B3F00"/>
    <path d="M233.8,111.3c1.1-8,2.1-15.5,4.8-22.1c1.1-2.7,2.5-5.1,4.2-7.2c-8.7,6.4-10.5,14-12.9,23.9 c-3.4,15.8-10.4,28.9-19.9,42c1.5,9.5,3.1,19,4.6,28.5c9.7-20.9,16-41.2,18.8-64C233.6,111.9,233.7,111.7,233.8,111.3z" fill="#7B3F00"/>
    <path d="M215.3,179.1L215.3,179.1L215.3,179.1L215.3,179.1z" fill="#7B3F00"/>
    <path d="M210.2,147.8c9.4-13.1,16.5-26.1,19.9-42c2.4-9.9,4.1-17.6,12.9-23.9c-1.7,2.1-3,4.5-4.2,7.2 c-2.8,6.6-3.8,14.1-4.8,22.1c-0.1,0.5-0.1,0.7-0.1,1.2c-3,22.8-9.1,43.1-18.8,64c0.1,0.8,0.2,1.2,0.4,2 c10.2-21.5,16.7-42.3,19.7-65.8c0.1-0.5,0.1-0.7,0.1-1.2c1-7.9,2.1-15.4,4.8-21.7c1.8-4.2,4.2-7.6,7.4-10.5 c0.3-0.3,0.5-0.4,0.8-0.7c0.9-0.8,1.3-1.2,2.2-2c0.5-0.5,0.8-0.7,1.3-1.1c-2,1.1-3,1.7-5,2.8c-10.9,5.5-15.6,16.1-17.7,27.5 c-3.5,15.3-9.9,27.8-18.9,40.7C210.1,147,210.1,147.3,210.2,147.8z" fill="#7B3F00"/>
    <path d="M252.2,77c0.6-0.4,1.4-0.9,2.2-1.3c-0.2-0.3-0.2-0.4-0.4-0.7c-1.6,0.9-3,1.7-4.3,2.6 c-11,8.4-13,22-14.5,34.9c-3,23.5-9.5,44.4-19.7,65.9c-0.1,0.1-0.1,0.3-0.2,0.6l0,0c0,0.2,0,0.2,0,0.4c0,0,0.1,0,0.1,0.1 c0.2-0.2,0.4-0.4,0.6-0.6c0.2-0.6,0.6-1.2,0.9-1.7c9.8-21.1,16-41.6,19-64.6C237.4,100,239.6,83.9,252.2,77z" fill="#7B3F00"/>
    <path d="M214.5,179.1c-5.8-35.9-11.6-71.8-17.3-107.7c-0.1,35.2-0.2,70.5-0.3,105.7 C203.1,176.5,209,177.3,214.5,179.1z" fill="#FCD116"/>
    <path d="M178.5,183.9c6.1-39,12.1-77.9,18.2-116.9c-0.1,36.7-0.2,73.5-0.3,110.2c0.1,0,0.2,0,0.4,0 c0.1-35.2,0.2-70.5,0.3-105.7c5.7,35.9,11.5,71.8,17.3,107.7c0.2,0.1,0.5,0.2,0.9,0.3c0-0.2,0-0.2,0-0.4l0,0c0-0.1,0-0.2,0-0.3 c0-0.2,0-0.2,0-0.4c-0.1-0.8-0.2-1.2-0.4-2c-1.5-9.5-3.1-19-4.6-28.6c-0.1-0.6-0.1-1-0.2-1.6c-4.4-27.2-8.7-54.4-13.1-81.6 c-6.2,39.5-12.4,79.1-18.6,118.6c0,0.3-0.1,0.5-0.1,0.8C178.3,184,178.4,183.9,178.5,183.9z" fill="#7B3F00"/>
    <path d="M196.6,177.2L196.6,177.2c0.1-36.8,0.2-73.6,0.3-110.4c-6.1,39-12.3,78-18.3,117.1 C184.1,180.4,190.1,178,196.6,177.2z" fill="#7B3F00"/>
    <path d="M270,211.5c16.8-7.8,32.2-16.1,43.4-31.2c7.3-9.7,17-14.6,29.5-13.2c-15.1-5.3-27,2.8-39.1,10.6 c-18.4,12.8-37.2,22.4-58.4,29.8c9.5,1.5,14.3,2.3,24.2,4.1c0-0.1,0-0.1,0-0.1C269.7,211.5,269.8,211.5,270,211.5z" fill="#FCD116"/>
    <path d="M303.3,177.2c11.5-7.5,22.9-15.4,37.4-11.4c-0.7-0.3-1.5-0.6-2.1-0.9c-0.5-0.1-0.7-0.1-1.2-0.2 c-4.7-0.8-9.2-0.5-13.8,0.8c-6.8,2-13.1,6.3-19.6,10.7c-0.4,0.3-0.6,0.4-1,0.7c-18.9,13.1-37.8,22.8-59.6,30.2 c-0.1,0.1-0.1,0.2-0.1,0.3c0.2,0,0.2,0.1,0.4,0.1C265.4,199.9,284.4,190.3,303.3,177.2z" fill="#FCD116"/>
    <path d="M338.6,164.8c0.7,0.3,1.3,0.6,2.1,0.9c1.6,0.4,3.4,1,5.3,1.7c-0.1,0.3-0.2,0.5-0.3,0.8 c-0.9-0.3-1.8-0.7-2.7-1c-12.5-1.5-22.2,3.5-29.5,13.2c-11.4,15-26.5,23.4-43.4,31.2c-0.2,0.1-0.2,0.1-0.4,0.1c0,0.1,0,0.1,0,0.1 c0.1,0.3,0.2,0.4,0.3,0.7c0.2-0.1,0.2-0.1,0.4-0.1c17-7.8,32.3-16.3,43.9-31.3c7.8-10.5,18.6-14.6,31.7-12.6 c0.8,0,1.2,0.1,1.9,0.1c-0.7-0.4-1-0.6-1.6-0.9c-1.5-0.8-3-1.6-4.3-2.2C340.6,165.2,339.9,165.1,338.6,164.8z" fill="#7B3F00"/>
    <path d="M303.1,175c6.6-4.6,13-8.9,20.1-10.9c2.9-0.8,5.7-1.2,8.7-1.3c-8.7-2.9-20.2,0.4-27.5,5.4 c-14,7.8-28,11.1-43.9,12.4c-5.4,8.2-10.6,16.4-15.8,24.7c21-7.3,39.4-16.8,57.6-29.5C302.6,175.4,302.8,175.3,303.1,175z" fill="#7B3F00"/>
    <path d="M243,207.5L243,207.5L243,207.5L243,207.5z" fill="#7B3F00"/>
    <path d="M260.3,180.5c15.9-1.3,30-4.5,43.9-12.4c7.4-4.9,18.8-8.2,27.5-5.4c-2.9,0-5.8,0.5-8.7,1.3 c-7,2.1-13.4,6.3-20.1,10.9c-0.4,0.3-0.6,0.4-1,0.7c-18.2,12.7-36.6,22.2-57.6,29.5c-0.5,0.7-0.7,1.1-1.2,1.8 c21.8-7.4,40.8-17.1,59.6-30.2c0.4-0.3,0.6-0.4,1-0.7c6.5-4.5,12.8-8.7,19.6-10.7c4.5-1.3,8.9-1.6,13.7-0.8 c0.5,0.1,0.7,0.1,1.2,0.2c1.3,0.2,1.9,0.3,3.2,0.5c0.8,0.1,1.2,0.2,1.9,0.3c-2.4-0.9-3.6-1.4-6.1-2.3c-11.8-5.2-23.5-2.7-34.1,3.7 c-13.6,7.5-26.9,10.8-42.3,12.3C260.8,179.7,260.7,180,260.3,180.5z" fill="#7B3F00"/>
    <path d="M342.9,167.2c0.9,0.3,1.8,0.7,2.7,1c0.1-0.3,0.2-0.5,0.3-0.8c-1.8-0.7-3.6-1.3-5.3-1.7 c-14.5-3.9-25.8,3.9-37.3,11.4c-18.8,13.1-37.8,22.8-59.6,30.2c-0.1,0-0.4,0.2-0.5,0.2l0,0c-0.1,0.1-0.2,0.2-0.3,0.3 c0,0,0,0.1,0.1,0.1c0.3,0,0.5,0.1,0.8,0.1c0.5-0.2,1.2-0.3,1.7-0.5c21.2-7.5,39.9-17.1,58.4-29.8 C315.8,169.9,327.7,161.8,342.9,167.2z" fill="#7B3F00"/>
    <path d="M242.5,207c19.7-31.2,40.4-61.7,62.1-91.6c-25.4,24-49.5,49.1-72.6,75.4 C236.4,195.3,239.9,200.8,242.5,207z" fill="#FCD116"/>
    <path d="M215.9,179.7c29.1-24.7,59.5-47.1,91.7-67.8c-26.6,25-51.8,51-75.8,78.4c0.1,0.1,0.1,0.1,0.3,0.3 c23.1-26.3,47.2-51.3,72.6-75.4c-21.7,29.9-42.3,60.4-62.1,91.6c0.1,0.3,0.3,0.5,0.4,0.8c0.1-0.1,0.2-0.2,0.3-0.3l0,0 c0.1-0.1,0.1-0.1,0.1-0.1c0.1-0.1,0.1-0.2,0.1-0.3c0.5-0.7,0.7-1.1,1.2-1.8c5.2-8.3,10.5-16.6,15.8-24.7c0.4-0.6,0.6-0.8,0.9-1.4 c15.4-23.3,31.4-46.2,48-68.8c-32.7,20.9-63.5,43.6-93.1,68.6c-0.2,0.2-0.4,0.4-0.6,0.6C215.6,179.6,215.7,179.7,215.9,179.7z" fill="#7B3F00"/>
    <path d="M231.7,190.4c24-27.4,49.2-53.5,75.8-78.4c-32.1,20.6-62.5,43.1-91.7,67.8 C221.8,182.1,227.1,185.7,231.7,190.4z" fill="#7B3F00"/>
    <path d="M307.1,272.8c13,2.1,28.9,5.1,36.3,17.5c-0.3-0.7-0.6-1.3-0.9-2c-0.3-0.3-0.4-0.5-0.7-0.9 c-3-3.6-6.6-6.4-10.9-8.6c-6.6-3.2-14.4-4.7-22.5-6.2c-0.5-0.1-0.8-0.1-1.3-0.2c-22.9-3.9-42.8-10.6-63.2-21.9c-0.2,0-0.2,0-0.4,0 c0.1,0.2,0.2,0.2,0.3,0.4C264.2,262.2,284.2,268.8,307.1,272.8z" fill="#FCD116"/>
    <path d="M259.2,273.3c17.6,6.7,34.2,11,53.1,8.5c13.6-2.2,21.6,2.7,31.9,11c-6.9-13.7-23.5-17.1-37.1-19.3 c-22.4-3.9-42.1-10.3-62.2-21.1c5.5,8.3,8.3,12.5,13.9,20.9c0-0.1,0-0.1,0-0.1C258.9,273.3,259,273.3,259.2,273.3z" fill="#FCD116"/>
    <path d="M342.6,288.3c0.3,0.6,0.6,1.3,0.9,2c0.9,1.4,1.9,3,2.7,4.7c-0.3,0.1-0.4,0.2-0.7,0.4 c-0.4-0.9-0.9-1.6-1.3-2.4c-10.3-8.3-18.3-13.2-31.9-11c-18.8,2.5-35.5-1.9-53.1-8.5c-0.2-0.1-0.2-0.1-0.4-0.1c0,0.1,0,0.1,0,0.1 c-0.1,0.3-0.2,0.4-0.3,0.7c0.2,0.1,0.2,0.1,0.4,0.1c17.8,6.8,34.5,11.1,53.5,8.6c13.1-1.7,24.3,2.4,33.1,12.6 c0.5,0.5,0.8,0.8,1.3,1.3c-0.2-0.7-0.4-1-0.6-1.7c-0.4-1.5-1-3-1.6-4.2C343.7,289.9,343.3,289.4,342.6,288.3z" fill="#7B3F00"/>
    <path d="M308.5,271.2c8.3,1.5,16.1,3,23,6.3c2.8,1.4,5.3,3,7.5,5c-5.6-8.7-14.9-12.8-24.6-15.3 c-16-4.3-28.5-12.1-40.9-23.1c-9.3,1.6-18.5,3.5-27.7,5.7c19.9,10.8,39.3,17.3,61.6,21C307.8,271,308.1,271.1,308.5,271.2z" fill="#7B3F00"/>
    <path d="M243.2,250.5L243.2,250.5L243.2,250.5L243.2,250.5z" fill="#7B3F00"/>
    <path d="M273.5,244.2c12.4,11,24.9,18.8,40.9,23.1c9.7,2.5,19.1,6.4,24.6,15.3c-2.2-1.9-4.7-3.6-7.5-5 c-6.9-3.4-14.7-4.9-23-6.3c-0.5-0.1-0.8-0.1-1.3-0.2c-22.2-3.9-41.7-10.2-61.6-21c-0.7,0.1-1.1,0.1-1.8,0.2 c20.4,11.3,40.3,18,63.2,21.9c0.5,0.1,0.8,0.1,1.3,0.2c8.1,1.4,15.9,2.9,22.5,6.2c4.4,2.2,7.9,5,10.9,8.6c0.3,0.3,0.4,0.5,0.7,0.9 c0.8,1,1.2,1.5,2.1,2.5c0.5,0.6,0.7,0.9,1.2,1.5c-1.1-2.2-1.7-3.3-2.8-5.5c-5.1-12-16.5-17.5-28.3-20.7 c-15.4-4.1-27.7-11.6-39.7-22C274.4,244,274.1,244.1,273.5,244.2z" fill="#7B3F00"/>
    <path d="M344,292.8c0.4,0.7,0.9,1.6,1.3,2.4c0.3-0.1,0.4-0.2,0.7-0.4c-0.9-1.7-1.8-3.3-2.7-4.7 c-7.4-12.3-23.4-15.3-36.3-17.5c-22.9-3.9-42.9-10.6-63.4-21.9c-0.1-0.1-0.3-0.1-0.5-0.3l0,0c-0.2,0-0.2,0-0.4,0 c0,0,0,0.1-0.1,0.1c0.2,0.3,0.3,0.4,0.5,0.7c0.5,0.3,1,0.6,1.5,0.9c20.1,10.9,39.8,17.3,62.2,21.1 C320.6,275.7,337.1,279.2,344,292.8z" fill="#7B3F00"/>
    <path d="M243.2,249.7c36.7-8.3,73.8-13.4,111.2-17.3c-35.9-2.3-71.7-3.7-107.6-2.8 C246.8,236.7,245.5,243.4,243.2,249.7z" fill="#FCD116"/>
    <path d="M243.8,208.2c-0.3,0-0.5-0.1-0.8-0.1c0,0.1,0.1,0.3,0.1,0.4c39.1,6.3,77.8,14.7,116.4,23.8 c-37.6-2.5-75.1-4.1-112.7-3.2c0,0.1,0,0.3,0,0.4c35.9-0.9,71.8,0.5,107.6,2.8c-37.4,3.9-74.5,9-111.2,17.3 c-0.1,0.3-0.3,0.6-0.4,1c0.2,0,0.2,0,0.4,0l0,0c0.1,0,0.2,0,0.3,0c0.2,0,0.2,0,0.4,0c0.8-0.2,1.2-0.3,1.9-0.5 c9.2-2.1,18.4-4,27.7-5.7c0.6-0.1,1-0.2,1.6-0.3c28.8-4.9,57.8-8.6,86.9-11.4C322.8,223.4,283.5,214.7,243.8,208.2z" fill="#7B3F00"/>
    <path d="M246.8,229.2L246.8,229.2c37.6-1,75.2,0.6,112.7,3.2c-38.6-9.1-77.3-17.5-116.4-23.8 C245.4,214.9,246.8,221.8,246.8,229.2z" fill="#7B3F00"/>
    <path d="M243.5,342.8c7.7,10.1,15.2,21.8,12.4,35.1c0.3-0.7,0.5-1.4,0.8-1.9c0.1-0.4,0.1-0.7,0.1-1.1 c0.5-4.4,0-8.7-1.4-12.9c-2.2-6.4-6.5-12.4-10.9-18.5c-0.3-0.4-0.4-0.6-0.6-0.9c-13.3-18.5-21.8-37.2-27.6-59.4 c-0.1,0-0.1-0.1-0.2-0.1c0,0.2-0.1,0.3-0.1,0.4C221.6,305.6,230,324.4,243.5,342.8z" fill="#FCD116"/>
    <path d="M211.5,311.6c6.9,16.2,14.6,30.8,29.3,41.1c9.4,6.1,14.3,16,13.8,27.3c4-13.8-3.6-26.3-11.8-36.8 c-13-18.1-21.4-36.5-27.4-58c-1.6,10.3-2.5,15.5-4.1,25.8h0.1C211.5,311.3,211.5,311.4,211.5,311.6z" fill="#FCD116"/>
    <path d="M256.5,375.9c-0.3,0.7-0.5,1.2-0.8,1.9c-0.3,1.5-0.8,3.2-1.3,5c-0.3-0.1-0.5-0.2-0.8-0.3 c0.3-0.8,0.5-1.7,0.8-2.5c0.6-11.4-4.4-21.2-13.8-27.3c-14.6-10.5-22.3-24.8-29.3-41.1c0-0.2-0.1-0.2-0.1-0.4h-0.1 c-0.2,0.1-0.4,0.2-0.6,0.3c0,0.2,0.1,0.2,0.1,0.4c7,16.4,14.7,30.9,29.4,41.4c10,7,14.4,17,13.4,29.4c0,0.7,0,1.1,0,1.8 c0.3-0.6,0.5-0.9,0.8-1.5c0.7-1.4,1.3-2.8,1.8-4C256.2,377.8,256.3,377.2,256.5,375.9z" fill="#7B3F00"/>
    <path d="M245.4,342.6c4.5,6.3,8.8,12.3,11,19c0.9,2.7,1.4,5.3,1.7,8.2c2.4-10.9-1.5-17.6-6.3-26.1 c-7.9-14-11-27.8-12.1-43.9c-9-6.3-13.5-9.4-22.2-15.4c5.9,21.3,14.2,39.5,27,57.4C244.9,342.1,245.1,342.3,245.4,342.6z" fill="#7B3F00"/>
    <path d="M215.6,282.8L215.6,282.8L215.6,282.8L215.6,282.8z" fill="#7B3F00"/>
    <path d="M239.8,299.7c1.1,16.1,4.2,29.8,12.1,43.9c4.8,8.7,8.5,15.2,6.3,26.1c-0.1-2.8-0.8-5.5-1.7-8.2 c-2.4-6.6-6.5-12.7-11-19c-0.3-0.4-0.4-0.6-0.6-0.9c-12.9-17.9-21.2-36-27.1-57.4c-0.6-0.4-1-0.7-1.6-1.1 c5.9,22.1,14.3,40.8,27.6,59.4c0.3,0.4,0.4,0.6,0.6,0.9c4.4,6.2,8.7,12.1,10.9,18.5c1.4,4.2,2,8.4,1.4,12.9 c-0.1,0.4-0.1,0.7-0.1,1.1c-0.1,1.2-0.2,1.8-0.3,3c-0.1,0.7-0.1,1.1-0.1,1.8c0.7-2.3,1.1-3.4,1.8-5.7c4.3-11.4,1.3-22.4-5-32.4 c-7.7-13.5-10.8-26.8-12-42.2C240.5,300.1,240.3,300,239.8,299.7z" fill="#7B3F00"/>
    <path d="M254.6,380.1c-0.3,0.8-0.5,1.7-0.8,2.5c0.3,0.1,0.5,0.2,0.8,0.3c0.5-1.7,1-3.3,1.3-5 c2.8-13.3-4.7-25.1-12.4-35.1c-13.3-18.5-21.7-37.3-27.6-59.4c0-0.1-0.1-0.4-0.1-0.5l0,0c-0.1-0.1-0.1-0.2-0.2-0.3 c-0.1,0.1-0.4,0.2-0.5,0.3c0,0.3,0.1,0.5,0.1,0.7c0.1,0.5,0.2,1.2,0.4,1.8c6,21.5,14.5,39.8,27.4,58 C251,353.8,258.5,366.2,254.6,380.1z" fill="#7B3F00"/>
    <path d="M216.1,282.2c29.5,20.3,58.5,41.3,87.8,61.9c-24.4-24.6-48.5-49.5-72.5-74.4 C227,274.8,221.8,279,216.1,282.2z" fill="#FCD116"/>
    <path d="M242.6,251.3c21.3,32.2,42.9,64.2,64.9,95.9c-25.5-25.7-50.7-51.7-75.9-77.7c-0.1,0.1-0.1,0.1-0.3,0.3 c24.1,24.9,48.2,49.8,72.6,74.4c-29.2-20.7-58.3-41.6-87.8-61.9c-0.2,0.2-0.5,0.3-0.7,0.5c0.1,0.1,0.1,0.2,0.2,0.3l0,0 c0,0.1,0.1,0.1,0.1,0.1c0.1,0,0.1,0.1,0.2,0.1c0.6,0.4,1,0.7,1.6,1.1c8.7,6,13.2,9.1,22.2,15.4c0.5,0.4,0.8,0.5,1.3,0.9 c22.8,16,45.4,32.3,68.2,48.3c-22.4-32.2-44.4-64.7-66-97.4c-0.2-0.3-0.3-0.4-0.5-0.7C242.7,251,242.7,251.1,242.6,251.3z" fill="#7B3F00"/>
    <path d="M231.7,269.4c25.2,26,50.3,52.1,75.9,77.7c-22.1-31.7-43.6-63.7-64.9-95.9 C240,258,236.2,264.1,231.7,269.4z" fill="#7B3F00"/>
    <path d="M172.8,260.7c0.2,0.1,0.4,0.1,0.6,0.2l0,0C173.2,260.8,172.9,260.7,172.8,260.7z" fill="#FCD116"/>
    <path d="M173.4,260.8C173.4,260.8,173.5,260.7,173.4,260.8c-0.2-0.1-0.4-0.1-0.7-0.2 C172.9,260.7,173.2,260.8,173.4,260.8z" fill="#FCD116"/>
    <path d="M173.4,260.8C173.4,260.8,173.4,260.9,173.4,260.8c4.6,1.4,6,1.5,8.5,0.8c-1.9-0.4-4-0.9-6.7-1 C174.6,260.8,174,260.8,173.4,260.8z" fill="#FCD116"/>
    <path d="M170.4,226.3c1.2,0.6,2.6,0.9,4.1,0.9c-1.9-1.5-2.9-5.4-0.9-8.2c-0.9,0.4-1.8,0.8-2.6,1.3 C170.2,222.1,169.4,224.4,170.4,226.3z" fill="#FCD116"/>
    <path d="M222.7,214.1c-0.9-0.3-1.7-0.6-2.7-0.6c2.1,2.3,1,6.5-1,8.5c1.6-0.5,3-1.2,4.3-2 C224.2,217.7,223.5,215.5,222.7,214.1z" fill="#FCD116"/>
    <path d="M196.6,178c-29.4,3-47,36.9-47.2,62.9c-0.2,25.2,19,51.2,47,47c27.5-4.1,49.7-31.3,49.7-58.8 C246.1,203,224.7,175.2,196.6,178z M176.4,215.8c7-1.1,11.2-0.7,11.7,5.2c0,0.2,0,0.3,0,0.5c-2.5-2.3-3.7-3.3-5.2-3.6 c0.9,3-2.2,7.5-4.9,9.3c4.7-0.8,7-7.1,8.7-4.3c1.3,1.9-5.2,5.8-10,6.6s-12.1-6.4-9-4.5c0.6,0.4,1.2,0.8,1.8,1.1 c-0.8-1.5-0.5-3.2,0.3-4.6c-2.5,1.8-4.1,3.9-5.9,4.2C166.5,223.5,169.5,216.9,176.4,215.8z M215.2,222.5c-2.8-1.1-6-4.7-5-8.1 c-1.6,0.7-2.8,2.2-5.4,4.9c0-0.2,0-0.3,0-0.5c0.5-6.1,4.8-7.6,12.1-8.2c7.3-0.6,10.4,5.3,13.2,6.6c-1.9,0.1-3.6-1.6-6.2-2.7 c0.7,1.2,1.1,2.8,0.2,4.5c0.6-0.5,1.2-0.9,1.9-1.5c3.2-2.7-4.6,6.4-9.5,6.8c-4.9,0.4-11.6-1.9-10.3-4.1 C208,217.1,210.1,222.9,215.2,222.5z M178.4,251.7c-0.5,0.6,1.3-4.2,4.8-5.3s2.2-7.3,6.1-9c0,2.1-1.3,1.7-1.8,4.8 c0,2.5,3.9,1.9,4.8-0.6c-0.8,4.1,1.8,3.7,4,3.5c2.2-0.3,4.8-0.6,4-4.5c0.8,2.4,4.8,1.9,4.8-0.5c-0.5-3-1.8-2.3-1.8-4.3 c4,0.5,2.6,7.3,6.2,7.5c3.5,0.2,5.4,4.6,4.9,4.1c-2.2-1.9-7.2-2.9-10.7-2.5s-4.5,3-7.5,3.3c-3,0.4-4-2-7.4-1.5 C185.2,247.1,180.7,249.3,178.4,251.7z M233,207.6c-3.3,4.2-5.1-2.8-16.4-1.9s-13,8.8-14.8,7.5s9.4-11.6,12.9-12.4 C218.3,200.1,228.8,203.3,233,207.6z M178.6,205.4c3.4,0,14.3,7.5,12.5,9.3s-3.5-5.7-14.3-3.9s-12.5,9.2-15.5,5.8 C165.3,211.1,175.1,205.4,178.6,205.4z M196.4,272.8c-8,1-2.2-1.2,0-1.5C198.5,271.1,204.3,271.9,196.4,272.8z M222.3,259.3 c-1.2-2.2-1.4-2.6-2.5-4.1c-14.3,8-12.7,10.2-23.6,11.6c-10.8,1.3-9.4-1.4-23-5.9c-0.9,1.7-1.2,2.1-2.4,4.7 c0.5-3.7,1.3-5.3,4.7-8.9c-1.1,2-1.8,3.2-2.4,4.1c0.6,0,1.2-0.1,1.6,0c4.7-0.8,11.2-5.7,14.1-6.1c3.5-0.5,4.4,0.4,7.1,0 c2.6-0.3,3.5-1.4,7.1-1.8c3-0.3,9.6,3,14.6,2.6c0.5-0.2,1.1-0.4,1.7-0.4c-0.5-0.8-1.2-1.8-2.5-3.5 C220.9,254.3,221.9,255.8,222.3,259.3z" fill="#FCD116"/>
    <path d="M211,258.1c2.6,0,4-0.5,8.9-3c0,0,0,0,0-0.1c-0.6,0.2-1.1,0.4-1.9,0.4C215.3,256.3,213,257.2,211,258.1z" fill="#FCD116"/>
    <path d="M196.4,258.8c-8.6,1-12,2.3-14.4,2.9c4.2,0.9,7.5,2,14.3,1.2c6.9-0.8,10.4-2.7,14.6-4.7 C208.5,258.2,204.9,257.8,196.4,258.8z" fill="#FCD116"/>
    <path d="M219.8,255.2C219.8,255.2,220,255.2,219.8,255.2c0.2-0.2,0.4-0.2,0.6-0.3 C220.3,254.9,220.1,255.1,219.8,255.2z" fill="#FCD116"/>
    <path d="M220.6,254.9c0,0-0.5,0.2-0.7,0.2c0,0,0,0,0,0.1C220.1,255.1,220.6,254.9,220.6,254.9z" fill="#FCD116"/>
    <path d="M242.9,207.8c-0.1-0.3-0.3-0.5-0.4-0.8c-2.5-6.2-6.1-11.7-10.5-16.2c-0.1-0.1-0.1-0.1-0.3-0.3 c-4.5-4.7-10-8.4-15.9-10.7c-0.1,0-0.2-0.1-0.4-0.1c0,0-0.1,0-0.1-0.1c-0.2-0.1-0.5-0.2-0.9-0.3c-5.5-2-11.4-2.7-17.6-2 c-0.1,0-0.2,0-0.4,0l0,0c-6.5,0.8-12.5,3.2-17.9,6.5c-0.1,0-0.2,0.2-0.4,0.2c0,0-0.1,0-0.1,0.2c-0.2,0.2-0.5,0.4-0.7,0.5 c-5.4,3.6-10.2,8.3-14.3,13.9c-0.1,0.2-0.1,0.2-0.2,0.3c-4.2,5.7-7.7,12.5-10.1,19.6c0,0.1-0.1,0.3-0.1,0.4c0,0,0,0.1-0.1,0.2 c-0.1,0.3-0.2,0.6-0.4,1c-2.1,6.6-3.3,13.6-3.3,20.6c0,0.1,0,0.3,0,0.4l0,0c0,7.4,1.2,14.1,3.3,20c0,0.1,0.1,0.3,0.1,0.4 c0,0,0,0.1,0.1,0.1c0.1,0.3,0.2,0.5,0.3,0.8c2.3,5.8,5.5,10.8,9.6,14.8c0.1,0.1,0.1,0.1,0.2,0.2c4.2,4.1,9.3,7.4,15,9.2 c0.1,0,0.2,0.1,0.4,0.1c0,0,0.1,0,0.1,0.1c0.2,0.1,0.5,0.2,0.8,0.3c5.3,1.6,11.2,2.2,17.3,1.5c0.1,0,0.2,0,0.4,0l0,0 c6.5-0.8,12.7-2.9,18.4-5.9h0.1c0.1-0.1,0.4-0.2,0.5-0.3c0.2-0.2,0.5-0.3,0.7-0.5c5.7-3.2,10.8-7.4,15.2-12.5 c0.1-0.1,0.1-0.1,0.3-0.3c4.5-5.2,8.4-11.4,10.9-18.1c0-0.1,0.1-0.3,0.1-0.4c0,0,0-0.1,0.1-0.1c0.1-0.3,0.3-0.6,0.4-1 c2.3-6.3,3.6-13.1,3.6-20.1c0-0.1,0-0.3,0-0.4l0,0c0-7.4-1.4-14.4-3.7-20.6c0-0.1-0.1-0.3-0.1-0.4 C242.9,207.9,242.9,207.9,242.9,207.8z M246.1,229.3c0,27.5-22.2,54.7-49.7,58.8c-28,4.2-47.2-21.7-47-47 c0.2-26.1,17.8-60,47.2-62.9C224.8,175.1,246.1,203.1,246.1,229.3z" fill="#7B3F00"/>
    <path d="M214.7,201c-3.6,0.9-14.7,11.1-12.9,12.4c1.8,1.3,3.4-6.5,14.8-7.5c11.3-1,13.1,6,16.4,1.9 C228.8,203.3,218.3,200.1,214.7,201z" fill="#7B3F00"/>
    <path d="M218.9,221.9c2-1.9,3.1-6.2,1-8.5c-0.9-0.1-1.9-0.1-3,0c-3.6,0.3-5.3,0.5-6.7,1.2c-1,3.3,2.2,6.9,5,8.1 l0,0C216.5,222.4,217.8,222.1,218.9,221.9z" fill="#7B3F00"/>
    <path d="M206.2,220.3c-1.3,2.2,5.3,4.5,10.3,4.1c4.9-0.4,12.8-9.5,9.5-6.8c-0.6,0.6-1.2,1-1.9,1.5 c-0.5,1-1.4,2-2.7,3c0.9-0.8,1.4-1.5,1.7-2.2c-1.2,0.9-2.7,1.6-4.3,2c-1.1,0.4-2.3,0.6-3.8,0.7l0,0 C210.2,222.9,208,217.1,206.2,220.3z" fill="#7B3F00"/>
    <path d="M216.9,213.3c1.1-0.1,2.1,0,3,0c1,0.2,1.9,0.4,2.7,0.6c-0.5-0.8-0.9-1.3-1.2-1.6c0.7,0.4,1.7,1.1,2.5,2.2 c2.6,1.2,4.4,2.9,6.2,2.7c-2.8-1.3-6-7.2-13.2-6.6c-7.3,0.6-11.6,2.1-12.1,8.2c0,0.2,0,0.3,0,0.5c2.6-2.9,3.8-4.2,5.4-4.9 C211.6,213.8,213.5,213.6,216.9,213.3z" fill="#7B3F00"/>
    <path d="M198.6,258.6c-0.9,0.1-1.3,0.2-2.2,0.3c8.6-1,12.1-0.7,14.6-0.6c2-0.9,4.2-1.9,7-2.7 c-4.9,0.4-11.5-2.9-14.6-2.6c-3.5,0.4-4.5,1.5-7.1,1.8C197.2,256.3,197.6,257,198.6,258.6z" fill="#7B3F00"/>
    <path d="M203.9,244.8c3.5-0.4,8.5,0.7,10.7,2.5c0.5,0.5-1.4-3.9-4.9-4.1c-3.5-0.2-2.2-6.8-6.2-7.5 c0,2.1,1.3,1.4,1.8,4.3c0,2.5-4,2.9-4.8,0.5c0.8,3.9-1.8,4.2-4,4.5c0,1.2,0,1.8,0,3C199.4,247.9,200.4,245.1,203.9,244.8z" fill="#7B3F00"/>
    <path d="M219.8,255.2c0.2-0.2,0.4-0.2,0.6-0.3C220.3,254.9,220.1,255.1,219.8,255.2 C219.8,255.1,219.8,255.2,219.8,255.2z" fill="#7B3F00"/>
    <path d="M211,258.1c-4.3,1.9-7.7,3.9-14.6,4.7c0.9-0.1,1.3-0.2,2.2-0.3c-0.9,1.7-1.3,2.5-2.2,4.2 c10.8-1.3,9.3-3.7,23.6-11.6l0,0C215,257.7,213.5,258.1,211,258.1z" fill="#7B3F00"/>
    <path d="M217.4,251.6c1.1,1.7,1.8,2.7,2.5,3.5c0.2,0,0.5-0.2,0.7-0.2c-0.2,0.2-0.4,0.2-0.6,0.3 c1,1.4,1.2,1.8,2.5,4.1C221.9,255.8,220.9,254.3,217.4,251.6z" fill="#7B3F00"/>
    <path d="M219.8,255.1L219.8,255.1c-0.6,0-1.2,0.2-1.9,0.4C218.7,255.5,219.2,255.3,219.8,255.1z" fill="#7B3F00"/>
    <path d="M221.5,212.5c0.2,0.3,0.7,0.9,1.2,1.6c0.9,1.4,1.6,3.6,0.6,5.7c-0.4,0.7-0.9,1.4-1.7,2.2 c1.4-0.9,2.2-2,2.7-3c0.9-1.7,0.5-3.3-0.2-4.5C223.2,213.6,222.2,212.7,221.5,212.5z" fill="#7B3F00"/>
    <path d="M161.4,216.4c3,3.4,4.6-4,15.5-5.8s12.5,5.7,14.3,3.9c1.8-1.7-9.1-9.3-12.5-9.3 C175.1,205.4,165.3,211.1,161.4,216.4z" fill="#7B3F00"/>
    <path d="M176.4,218.3c-1.1,0.2-2,0.5-2.8,0.7c-2,2.8-1,6.7,0.9,8.2c1.1,0.1,2.2,0,3.7-0.2l0,0 c2.7-1.8,5.8-6.1,4.9-9.3C181.5,217.5,179.8,217.7,176.4,218.3z" fill="#7B3F00"/>
    <path d="M163.9,225.5c1.8-0.3,3.4-2.4,5.9-4.2c0.6-1.2,1.5-2.2,2.4-2.7c-0.2,0.3-0.7,1.1-1.2,1.9 c0.8-0.6,1.6-1,2.6-1.3c0.8-0.3,1.8-0.6,2.8-0.7c3.4-0.6,5.1-0.8,6.5-0.5c1.5,0.3,2.7,1.5,5.2,3.6c0-0.2,0-0.3,0-0.5 c-0.5-6-4.8-6.4-11.7-5.2C169.5,216.9,166.5,223.5,163.9,225.5z" fill="#7B3F00"/>
    <path d="M174.5,227.4c-1.5-0.2-2.8-0.5-4.1-0.9c0.3,0.6,0.8,1.2,1.6,1.8c-1.3-0.6-2.1-1.4-2.6-2.3 c-0.6-0.3-1.2-0.6-1.8-1.1c-3-1.9,4.3,5.3,9,4.5s11.3-4.7,10-6.6c-1.8-2.8-3.9,3.6-8.7,4.3l0,0 C176.7,227.3,175.5,227.3,174.5,227.4z" fill="#7B3F00"/>
    <path d="M175.2,260.7c-0.5-0.1-1.1-0.1-1.7,0c0,0,0,0,0,0.1C174,260.8,174.6,260.8,175.2,260.7z" fill="#7B3F00"/>
    <path d="M172.8,260.7c0.2,0.1,0.5,0.1,0.6,0.2c0,0,0,0,0-0.1C173.2,260.8,172.9,260.7,172.8,260.7z" fill="#7B3F00"/>
    <path d="M173.5,260.7c0.5-0.9,1.2-2.1,2.4-4.1c-3.4,3.6-4.4,5.3-4.7,8.9c1.2-2.5,1.3-3,2.4-4.7 c-0.2-0.1-0.4-0.1-0.6-0.2C173.1,260.7,173.3,260.6,173.5,260.7z" fill="#7B3F00"/>
    <path d="M181.9,261.6c2.4-0.6,5.8-1.9,14.4-2.9c0.9-0.1,1.3-0.2,2.2-0.3c-0.9-1.5-1.3-2.2-2.2-3.7 c-2.6,0.3-3.5-0.5-7.1,0c-3,0.4-9.4,5.3-14.1,6.1C177.9,260.9,180,261.2,181.9,261.6z" fill="#7B3F00"/>
    <path d="M196.4,248.2c0-1.2,0-1.8,0-3c-2.2,0.3-4.8,0.6-4-3.5c-0.8,2.6-4.8,3.1-4.8,0.6c0.5-3.1,1.8-2.7,1.8-4.8 c-3.9,1.5-2.7,7.9-6.1,9c-3.4,1.1-5.2,5.9-4.8,5.3c2.1-2.4,7-4.6,10.5-5.1C192.6,246.2,193.3,248.6,196.4,248.2z" fill="#7B3F00"/>
    <path d="M198.6,262.5c-0.9,0.1-1.3,0.2-2.2,0.3c-6.9,0.8-10.3-0.2-14.3-1.2c-2.5,0.6-3.9,0.4-8.5-0.8l0,0 c13.5,4.6,12.1,7.2,23,5.9C197.3,265,197.7,264.2,198.6,262.5z" fill="#7B3F00"/>
    <path d="M172,228.1c-0.8-0.5-1.3-1.2-1.6-1.8c-0.9-1.9-0.2-4.2,0.6-5.9c0.5-0.9,0.8-1.5,1.2-1.9 c-0.7,0.5-1.6,1.5-2.4,2.7c-0.7,1.4-1.1,3.1-0.3,4.6C169.9,226.6,170.7,227.4,172,228.1z" fill="#7B3F00"/>
    <path d="M196.4,271.3c-2.2,0.3-8,2.5,0,1.5S198.5,271.1,196.4,271.3z" fill="#7B3F00"/>
  </g>
  <g opacity="0.3">
    <path d="M259.7,30c127.9,0,223.7,15.9,325.2,32.8C688.7,80,796.1,97.9,941,97.9c44.4,0,90-6.1,135.4-18.1 c30.5-8.1,61.9-19,93.6-32.7v757.2c-36.8,17.4-73.5,30.8-109.2,40C1020.3,854.7,979.7,860,940,860c-140.1,0-243.6-16.8-343.7-33 c-98.9-16.1-201.3-32.7-336.6-32.7c-45.7,0-91.1,5.3-135.1,15.8C93,817.6,61.3,827.9,30,841V86.6C67.1,69,103.8,55.4,139.2,46.1 C179.9,35.4,220.4,30,259.7,30 M1200,0c-89.2,45-174.4,67.9-259,67.9C660.3,67.9,524.3,0,259.7,0C175.2,0,89.1,23,0,67.9 c0,242.4,0,577.6,0,820c89-44.9,175.2-63.6,259.7-63.6c268.9,0,398.5,65.7,680.3,65.7c84.6,0,170.8-22,260-66.9 C1200,580.7,1200,242.4,1200,0L1200,0z" fill="#212121"/>
  </g>
</svg>