<svg viewBox="0 0 1200 1200" xmlns="http://www.w3.org/2000/svg" xmlns:xlink="http://www.w3.org/1999/xlink">
  <g>
    <path d="M0,906c94.7-49,192.5-66.5,298.5-63.7c101.1,2.7,201.8,17,301.5,33.6c99.5,16.6,200.3,29.1,301.2,31.7 c107.1,2.8,203.3-17,298.8-66.5c0,45.7,0,91.3,0,137c-95.4,49.3-191.7,69.3-298.8,66.5c-100.9-2.6-201.7-15.2-301.2-31.6 c-199.2-32.8-413.4-67.2-600,29.9C0,997.2,0,951.6,0,906z" fill="#024FA2"/>
    <path d="M0,222.9c95.3-48.9,188.9-70.4,295.9-67.5c102,2.7,203.9,17.2,304.2,35.5c100.2,18.2,202.3,29.6,304.1,31.8 c106.5,2.2,201-16.8,295.8-66.7c0,45.7,0,91.3,0,137c-94.7,49.7-189.4,68.9-295.9,66.6c-101.9-2.2-203.9-13.8-304.2-31.8 c-100.4-18-202.1-32.6-304.1-35.3C189.3,289.6,94.9,310.8,0,359.7C0,314.1,0,268.5,0,222.9z" fill="#024FA2"/>
    <path d="M0,359.7c94.9-48.9,189.3-70.1,295.8-67.2c102.1,2.7,203.8,17.3,304.1,35.3s202.3,29.6,304.2,31.8 c106.4,2.3,201.1-16.9,295.9-66.6c0,9.1,0,13.7,0,22.8c-94.7,49.7-189.4,68.9-295.9,66.6c-101.9-2.2-203.9-13.8-304.2-31.8 c-100.4-17.9-202.1-32.5-304.1-35.3c-106.5-2.9-201,18.2-295.8,67.1C0,373.4,0,368.8,0,359.7z" fill="#FFFFFF"/>
    <path d="M0,883.2c94.8-49,192.4-66.6,298.5-63.8c101.1,2.7,201.8,17,301.5,33.7c99.5,16.7,200.3,29.1,301.2,31.7 c107.2,2.7,203.3-17,298.8-66.5c0,9.1,0,13.7,0,22.8c-95.5,49.5-191.6,69.3-298.8,66.5c-100.9-2.6-201.8-15-301.2-31.7 c-99.7-16.7-200.3-31-301.5-33.6C192.5,839.5,94.7,857,0,906C0,896.8,0,892.3,0,883.2z" fill="#FFFFFF"/>
    <path d="M0,883.2c94.8-49,192.4-66.6,298.5-63.8c101.1,2.7,201.8,17,301.5,33.7c99.5,16.7,200.3,29.1,301.2,31.7 c107.2,2.7,203.3-17,298.8-66.5c0-167.4,0-334.9,0-502.3c-94.7,49.7-189.4,68.9-295.9,66.6c-101.9-2.2-203.9-13.8-304.2-31.8 c-100.4-17.9-202.1-32.5-304.1-35.3c-106.5-2.9-201,18.2-295.8,67.1C0,549.4,0,716.3,0,883.2z M377.3,388.8 C473,397.1,528,503.4,527.4,590c-0.5,84.4-58.4,172.7-151.5,165.1c-93.1-7.6-138.4-104-138.3-187.5 C237.6,487.5,280.7,380.5,377.3,388.8z" fill="#ED1C27"/>
    <path d="M375.9,755.1c93.1,7.6,151-80.6,151.5-165.1c0.6-86.6-54.4-193-150.2-201.2 c-96.6-8.3-139.7,98.7-139.7,178.8C237.5,651.1,282.8,747.5,375.9,755.1z M344.7,514.8c10.7-40.1,21.6-80.2,32.6-120.2 c10.8,41.9,21.5,83.7,32.3,125.6c35.6,3.7,71.1,8.2,106.6,13.4c-29,21.3-58,42.7-86.6,64.4c10.7,42.1,21.5,84.2,32.1,126.3 c-28.2-28.4-56.6-56.5-85.1-84.6c-28,22.9-55.4,46.5-81.9,71.2c10-40.6,20.2-81.1,30.7-121.5c-26-25.5-51.9-51.1-77.5-77 C280.2,511.8,312.4,512.8,344.7,514.8z" fill="#FFFFFF"/>
    <path d="M377.3,394.6c-11,40-21.9,80.1-32.5,120.2c6.8,0.4,10.2,0.7,17.1,1.2C366.9,475.5,372.1,435,377.3,394.6z" fill="#ED1C27"/>
    <path d="M369.8,516.6c5.7,0.5,8.5,0.7,14.2,1.2c10.2,0.9,15.3,1.4,25.6,2.4c-10.7-41.9-21.5-83.7-32.3-125.6 c-5.2,40.5-10.3,80.9-15.4,121.4C365,516.2,366.6,516.3,369.8,516.6z" fill="#ED1C27"/>
    <path d="M383.9,517.8c0,10.6-0.1,15.9-0.1,26.6c0.4,0,0.6-0.1,1-0.1c0.9-1.6,1.4-2.3,2.4-3.9 c0.6,1.4,0.9,2.1,1.4,3.4c42.4-4.6,84.9-7.7,127.4-10.2c-35.4-5.1-70.9-9.7-106.6-13.4C399.2,519.1,394.1,518.7,383.9,517.8z" fill="#ED1C27"/>
    <path d="M388.6,543.7c0.9,2.2,1.4,3.3,2.3,5.6c3.1,0.9,4.7,1.4,7.9,2.3c-1.4,2.2-2.1,3.3-3.5,5.5 c8.8-2.7,13.2-4,22-6.6c4.1,15.8,8.1,31.6,12.2,47.5c28.7-21.8,57.6-43.1,86.6-64.4C473.5,536,431,539.2,388.6,543.7z" fill="#ED1C27"/>
    <path d="M383.8,544.3c0,0.6,0,0.9,0,1.5c0.4-0.7,0.6-1,1-1.7C384.4,544.3,384.2,544.3,383.8,544.3z" fill="#ED1C27"/>
    <path d="M330.4,569.4c-27.6-19-55.2-37.9-82.8-56.9c25.7,25.9,51.6,51.5,77.6,77 C327.2,581.4,328.3,577.4,330.4,569.4z" fill="#ED1C27"/>
    <path d="M395.3,557.1c1.4-2.2,2.1-3.3,3.5-5.5c-3.1-0.9-4.7-1.4-7.9-2.3c1.3,3.3,2,4.9,3.3,8.1 C394.6,557.3,394.8,557.2,395.3,557.1z" fill="#ED1C27"/>
    <path d="M337,543.9c8.9,4.2,13.3,6.3,22.3,10.6c2.8-6.4,4.2-9.6,6.9-16c4.1,7.5,6.2,11.2,10.4,18.7 c2.9-4.5,4.3-6.8,7.2-11.3c0-0.6,0-0.9,0-1.5c0-10.6,0.1-15.9,0.1-26.6c-5.7-0.5-8.5-0.7-14.2-1.2c-3.2-0.3-4.8-0.4-7.9-0.6 c-6.9-0.5-10.3-0.8-17.1-1.2c-32.4-1.9-64.7-2.9-97.2-2.3c27.6,19,55.2,37.9,82.8,56.9C333,559.2,334.3,554.1,337,543.9z" fill="#ED1C27"/>
    <path d="M417.3,550.6c-8.8,2.6-13.2,3.9-22,6.6c-0.4,0.1-0.7,0.2-1.1,0.3c2.8,6.9,4.3,10.4,7.1,17.4 c1.6,0.8,2.3,1.2,3.9,1.9c-0.9,1-1.3,1.5-2.1,2.5c19.6,48.4,39.1,96.7,58.5,145.1c-10.7-42.1-21.4-84.2-32.1-126.3 C425.4,582.2,421.3,566.4,417.3,550.6z" fill="#ED1C27"/>
    <path d="M403,579.2c-3.4,3.9-5.2,5.8-8.6,9.7c4.7,8.4,9.4,16.8,14.1,25.3c-10.8,8.4-21.5,16.9-32.2,25.6 c28.6,28.1,57,56.2,85.2,84.6C442.1,675.9,422.6,627.5,403,579.2z" fill="#ED1C27"/>
    <path d="M381,564.9c8.1,3.9,12.1,5.9,20.3,9.9c-2.8-7-4.3-10.4-7.1-17.4c-1.3-3.3-2-4.9-3.3-8.1 c-0.9-2.2-1.4-3.3-2.3-5.6c-0.6-1.4-0.9-2.1-1.4-3.4c-1,1.6-1.4,2.3-2.4,3.9c-0.4,0.7-0.6,1-1,1.7c-2.9,4.5-4.3,6.8-7.2,11.3 C378.4,560.3,379.2,561.8,381,564.9z" fill="#ED1C27"/>
    <path d="M381,564.9c-1.7-3.1-2.6-4.6-4.3-7.7c-4.2-7.5-6.2-11.2-10.4-18.7c-2.8,6.4-4.2,9.6-6.9,16 C367.9,558.6,372.3,560.7,381,564.9z" fill="#ED1C27"/>
    <path d="M408.5,614.1c-4.7-8.4-9.4-16.8-14.1-25.3c-34.6,39.7-68.1,80.2-99.9,122.1c26.5-24.7,53.8-48.3,81.9-71.2 C387,631.1,397.7,622.6,408.5,614.1z" fill="#ED1C27"/>
    <path d="M394.4,588.9c3.4-3.9,5.1-5.8,8.6-9.7c0.9-1,1.3-1.5,2.1-2.5c-1.6-0.8-2.3-1.2-3.9-1.9 c-8.1-4-12.2-6-20.3-9.9c-8.7-4.2-13.1-6.3-21.7-10.4c-9-4.3-13.5-6.5-22.3-10.6c-2.7,10.2-4,15.3-6.6,25.5c-2.1,8-3.1,12-5.2,20 c-10.4,40.5-20.7,81-30.7,121.5C326.3,669,359.8,628.5,394.4,588.9z" fill="#ED1C27"/>
  </g>
  <g opacity="0.3">
    <path d="M259.7,185c127.9,0,223.7,15.9,325.2,32.8C688.7,235,796.1,252.9,941,252.9c44.4,0,90-6.1,135.4-18.1 c30.5-8.1,61.9-19,93.6-32.7v757.2c-36.8,17.4-73.5,30.8-109.2,40c-40.5,10.4-81.1,15.7-120.8,15.7c-140.1,0-243.6-16.8-343.7-33 c-98.9-16.1-201.3-32.7-336.6-32.7c-45.7,0-91.1,5.3-135.1,15.8C93,972.6,61.3,982.9,30,996V241.6c37.1-17.6,73.8-31.2,109.2-40.5 C179.9,190.4,220.4,185,259.7,185 M1200,155c-89.2,45-174.4,67.9-259,67.9c-280.7,0-416.7-67.9-681.3-67.9 C175.2,155,89.1,178,0,222.9c0,242.4,0,577.6,0,820c89-44.9,175.2-63.6,259.7-63.6c268.9,0,398.5,65.7,680.3,65.7 c84.6,0,170.8-22,260-66.9C1200,735.7,1200,397.4,1200,155L1200,155z" fill="#212121"/>
  </g>
</svg>