<svg viewBox="0 0 1200 890" xmlns="http://www.w3.org/2000/svg" xmlns:xlink="http://www.w3.org/1999/xlink">
  <g>
    <path d="M471,15.5c0,109.9,0,219.8,0,329.7c-85-10.5-172.2-19.7-257.9-12.4C137.5,339.2,67.6,363.7,0,397.3 c0,163.5,0,327,0,490.5C95.5,839,192.1,821.2,298.8,824c101,2.7,201.9,15.7,301.2,33.9s200.3,29.5,301.3,31.7 c107.3,2.4,203.3-15.8,298.7-66.6c0-274.4,0-548.7,0-823.1c-54.9,26-111.1,49.1-171.1,60.3c-53.4,9.9-107.6,9.7-161.7,7.1 C733.3,61,603.5,33,471,15.5z M965,347.4c-30.8,34.6-63.6,66.8-98,97.8c-36.2-35.6-72.6-71-108.6-106.8 C826.9,345.2,896.1,350.3,965,347.4z M721.7,367c36.1,36.8,72.9,72.9,109.7,108.9c-35.9,30.2-72.6,59.3-109.6,88.2 C721.8,498.4,721.8,432.7,721.7,367z M758.5,601c36.9-29.3,73.2-59.1,108.5-90.3c33.1,32.6,65.8,65.7,98,99.2 C896.1,612.5,827,607.8,758.5,601z M994.6,575c-31-32.1-61.8-64.3-93.3-95.8c33.2-32,64.1-65.6,93.3-101.2 C994.6,443.6,994.6,509.3,994.6,575z" fill="#ED2939"/>
    <path d="M290.4,0.8c59.9,1.6,119.6,7.1,179,14.5c0,109.4,0,218.9,0,328.3c-59.5-7.3-119.1-12.7-179-14.3 C290.4,219.8,290.4,110.3,290.4,0.8z" fill="#ED2939"/>
    <path d="M142.5,14.6c49-11.1,97.8-14.5,147.9-13.8c0,109.5,0,219,0,328.5c-50.1-0.7-99.1,2.4-148.1,12.9 C142.3,233,142.4,123.8,142.5,14.6z" fill="#FFFFFF"/>
    <path d="M0,68.9c46-22.5,92.7-41.8,142.5-54.3c-0.1,109.2-0.1,218.4-0.2,327.6c-49.9,12-96.4,31-142.3,53.8 C0,286.9,0,177.9,0,68.9z" fill="#002395"/>
    <path d="M471,15.5c-0.6-0.1-0.9-0.1-1.5-0.2c0,109.4,0,218.9,0,328.3c-59.5-7.3-119.1-12.7-179-14.3 c-50.1-0.7-99.1,2.4-148.1,12.9c-49.9,12-96.4,31-142.3,53.8c0,0.3,0,0.4,0,0.7c0,0.3,0,0.4,0,0.7 c67.6-33.7,137.5-58.2,213.1-64.6c85.7-7.3,172.9,1.9,257.9,12.4C471,235.3,471,125.4,471,15.5z" fill="#FFFFFF"/>
    <path d="M994.6,575c0-65.7,0-131.4,0-197.1c-29.2,35.6-60.1,69.3-93.3,101.2C932.8,510.7,963.6,542.9,994.6,575z" fill="#FFFFFF"/>
    <path d="M965,347.4c-68.9,3-138.1-2.1-206.6-9.1c36,35.8,72.4,71.2,108.6,106.8C901.4,414.2,934.2,381.9,965,347.4 z" fill="#FFFFFF"/>
    <path d="M721.7,367c0,65.7,0.1,131.4,0.1,197.1c36.9-28.9,73.7-58,109.6-88.2C794.6,439.9,757.8,403.8,721.7,367z" fill="#FFFFFF"/>
    <path d="M758.5,601c68.5,6.8,137.6,11.5,206.5,8.9c-32.3-33.5-64.9-66.6-98-99.2 C831.7,541.9,795.3,571.7,758.5,601z" fill="#FFFFFF"/>
  </g>
  <g opacity="0.3">
    <path d="M259.7,30c127.9,0,223.7,15.9,325.2,32.8C688.7,80,796.1,97.9,941,97.9c44.4,0,90-6.1,135.4-18.1 c30.5-8.1,61.9-19,93.6-32.7v757.2c-36.8,17.4-73.5,30.8-109.2,40C1020.3,854.7,979.7,860,940,860c-140.1,0-243.6-16.8-343.7-33 c-98.9-16.1-201.3-32.7-336.6-32.7c-45.7,0-91.1,5.3-135.1,15.8C93,817.6,61.3,827.9,30,841V86.6C67.1,69,103.8,55.4,139.2,46.1 C179.9,35.4,220.4,30,259.7,30 M1200,0c-89.2,45-174.4,67.9-259,67.9C660.3,67.9,524.3,0,259.7,0C175.2,0,89.1,23,0,67.9 c0,242.4,0,577.6,0,820c89-44.9,175.2-63.6,259.7-63.6c268.9,0,398.5,65.7,680.3,65.7c84.6,0,170.8-22,260-66.9 C1200,580.7,1200,242.4,1200,0L1200,0z" fill="#212121"/>
  </g>
</svg>