<svg viewBox="0 0 1200 1200" xmlns="http://www.w3.org/2000/svg" xmlns:xlink="http://www.w3.org/1999/xlink">
  <g>
    <path d="M822.6,218.5c66.9,4.5,134.7,7.9,201.2-2.7c62.2-9.9,120.3-32.5,176.2-60.8c0,274.4,0,548.7,0,823.1 c-55.4,27.4-113.3,48.7-174.4,59c-67.2,11.2-135.6,8.1-203.3,3.9C822.4,766.8,822.5,492.7,822.6,218.5z" fill="#CC092F"/>
    <path d="M517.1,690.3c0.2,0.8,0.2,1.9-0.1,2.8c0.6-0.4,1.3-0.6,1.9-0.8c-0.7-1.8-1-2.7-1.6-4.5 C516.8,688.6,516.8,689.2,517.1,690.3z" fill="#FFD200"/>
    <path d="M524.9,661.6c0.7-1,5.9-2.6,5.9-2.6s1,8.9-1.8,15c-2.1,4.7-6.6,7.8-8.5,9c0.2,0.5,0.3,0.8,0.4,1.3 c1,0.1,2.1-0.1,2.7-0.3c0.8-0.4,1.5-1.2,2.4-1.4c1.5-0.1,3.2,0.6,4,2.9c0.8,2.3,0,4.8-1.8,5.6c-1.8,0.7-3.5-0.5-4.3-1.7 c-0.6-0.9-1-1.3-1.9-1.5c0.6,1.8,0.9,2.7,1.5,4.5c2.5,0.8,4.1,1.8,6.1-2.3c2.7-5.4,11.2-19.3,12.3-21.1c-1.8-0.3-3.4-0.8-3.4-0.8 c1.8-1.9,6-11.2,7.7-15.1c-2.6-2.2-5.1-4.3-7.2-6.4c-3.3-3.2-6.5-7.3-8-10.1c-0.8-1.4-1.4-2.8-1.8-4.4c-1,4.8-2.9,13-5.2,21.5 C524.9,656.2,525.3,659.1,524.9,661.6z" fill="#FFD200"/>
    <path d="M663.8,659.1c-1.5,2.4-4.7,5.5-8,7.7c-2.1,1.4-4.6,2.8-7.3,4.2c1.7,4.6,5.8,15.1,7.6,17.6 c0,0-1.6,0-3.4-0.3c1.1,2.2,9.5,18.8,12.2,24.9c2.5,5.8,4.3,3.7,8.2,4.2c1,0.1,2.5,1,4.1,2.2c-0.8-1.8-0.9-3.8-0.3-5.2 c1-2.1,4.5-2,4.5-2s-1.3-1.7-1.7-4.4c-6.9-16.7-10.6-35-14.1-52.6C665.2,656.8,664.6,658,663.8,659.1z" fill="#FFD200"/>
    <path d="M580,395.8c0.1,0,0.7,0,0.7-0.7c0-1.7-4.8-7.3-11.3-8.4c-1-0.2-2-0.1-2.7,0.3c0,1.3,0,1.9,0,3.2 C570.1,391.1,576,395.1,580,395.8z" fill="#FFD200"/>
    <path d="M378.2,159.9c-0.2,274.5-0.3,549-0.5,823.5c149.4,11.8,295.1,47,444.7,57.5c0.1-274.1,0.2-548.3,0.3-822.4 C673.2,207.2,527.3,172.9,378.2,159.9z M746.4,584.3c-0.9,0.1-1.4,0.1-2.3,0.2c0,0,0.5,2-0.2,3.6s-3,1.6-3,1.6s5.4,8.1,5.5,9.9 c0.1,1.7-5.5,3.5-8.9,7.2c-4.8,5.2-2.8,7.6-3.8,8.5s-3.2,0.9-3.2,0.9s0.5,1.9,0.2,2.7c-0.5,1.2-2.6,1.4-3.2,2.9 c-2.3,5.1-5.3,11.8-8.1,18c0,38.5-0.1,77,0.1,115.4c0,4.3,2.1,10.6,2.1,10.6c-9-7.9-15.5-20.1-19.7-31.2c0,1.4,0,2,0,3.4 c-7.4-5.3-13.3-14.9-16.8-23.1c-0.3,0-0.4-0.1-0.4-0.1s1.9,4,1,6.2c-0.7,1.6-2.5,2.6-4.4,2c1.8,1.8,3.3,3.7,3.7,4.7 c1.3,2.8,2.2,6.3,2.2,9c0,2.9-2.5,6.7-2.5,6.7c-0.3-1.5-0.7-2-0.7-2s-6.7,9.3-7.7,10.5c-0.7,0.9-4.1,1.1-5.4-0.4 c-0.1-0.2-0.3-0.4-0.4-0.6c0.1,0.7,0,1.3-0.1,1.6c-0.3,0.8-1,1.3-1.8,1.4c0,0,2.2,2.4,2.4,3.6c0.1,1.2-10.4,7.9-10.4,7.9 s-0.9-15.6,0-16s3.5,1,3.5,1c-0.4-1-0.3-2.1,0-2.8l0,0c0.2-0.5,0.9-1.1,2-1.2c0.3,0,0.7,0.1,1,0.2c-1.6-2-3.2-4.1-4.6-7.1 c-1.4-2.8-1.5-5.6-3-8.6c-5.9-11.1-11.9-22.1-17.9-33.1c-0.1,1.1-0.3,2-0.4,3c-2.1-5.7-10.5-16.6-13.8-20.7 c-3.6,1.5-7.2,2.9-10.3,4.2c-1.2,0.5-2.4,0.9-3.4,1.4c8.9,27.9,20.7,72.4,45.9,90.1c0,0-9.8,3.7-21.5,9.6c-1.7,0.8-3.5,1.8-5.3,2.7 c-1.5-2.5-3-5.4-4.5-8.2c-4.7-9.4-9.3-18.8-13.6-28.4c1.1,10.6,5.4,20.4,9.2,30.3c1.2,3,2.4,6,3.9,9.1c-1.5,0.9-3.1,1.8-4.7,2.7 c-9.9,5.9-20.3,13.4-25.5,24c-5.5-13.2-15.7-23.4-25.5-33.4c-1.5-1.5-3.1-2.9-4.7-4.4c1.4-2.6,2.7-5.2,3.9-7.7 c4.2-8.5,8.3-17.5,9.3-27c0,0-6.6,12.8-13.6,23.6c-1.5,2.4-3,4.6-4.5,6.6c-1.8-1.6-3.5-3.1-5.3-4.5c-11.7-9.7-21.5-16.5-21.5-16.5 c24.9-10,37.7-51.6,46.1-74.7c-1-0.8-2.1-1.7-3.3-2.6c-3.2-2.5-6.7-5.1-10.4-7.9c-3.3,3-11.8,11-13.8,16c-0.1-1.1-0.3-2.1-0.4-3.2 c-6,9.1-12,18.2-17.9,27.4c-1.5,2.5-1.7,5.3-3,7.7c0,0.1-0.1,0.1-0.1,0.2c0.6,1.9,1,2.8,1.6,4.7c3.3,2.8,5,4.2,8.3,7 c-1.1,6.4-1.7,9.6-2.9,16c-4.7-4-7.1-5.9-11.9-9.9c0.8-4.6,1.2-6.9,2.1-11.6c-0.3-0.8-0.4-1.2-0.7-1.9c-1.6,1.8-3.4,3.1-5.1,4.8 c-1.2,1.2-4.6,0-5.4-1.2c-1-1.5-7.7-12.7-7.7-12.7s-0.5,0.4-0.7,1.8c0,0-2.5-4.4-2.5-7.4c0-2.7,1-5.8,2.3-8.4 c0.4-0.9,1.8-2.2,3.4-3.4c-1-0.2-2.1-1-2.7-2.3c-1.1-2.2-0.5-4.1,0.6-5.4c0.7-0.8,1.7-0.8,2.5-1.3c0.1-0.1,0.4-0.2,0.5-0.4 c-1.3,0.5-2.8,0.7-4.9,0.5c-3.5,6.5-9.2,14.9-16.5,17.9c0-1.3,0-1.9,0-3.2c-4.1,9.5-10.7,20.7-19.8,26.1c0,0,2.1-5.8,2.1-10.1 c0.3-40.6,0.3-81.2,0.4-121.8c-1.4-0.3-2.7-0.7-4-1.5c-6.2-3.4-10.8-12.9-10.8-12.9s4.4-1.4,6-0.5c-2.4-1.6-4.9-7.4-4.9-7.4l0,0 l0,0c0,0,7.1,0,13.7,4c0-2,0-4.1,0-6.1c-1.2-3.3-1.8-5-3-8.3c-1.1,1.3-1.4,1.8-1.1,3.3c0.2,1.5-0.4,3.7-2.2,4.5 c-1.8,0.8-4-0.5-4.9-2.8c-0.8-2.3,0-4,1.3-5.1c0.8-0.6,1.8-0.5,2.8-0.8c0.5-0.1,1.1-0.6,1.6-1.1c-2.6-0.5-6.1-1.8-8.9-4.6 c-4.9-5.1-6.9-15.1-6.9-15.1s5.7,1,9.5,4.4c0,0-1.3-1.2-3.3-6.1c-2.2-5.5-0.9-14.3-0.9-14.3l0,0l0,0l0,0c0,0,8.7,6.8,10.2,11.3 c0.2-4.1,2.5-9.3,2.5-9.3s1.8,3.1,3.3,7.3c0-34.6,0-69.2,0-103.8c2-16.5,16.6-31.8,29.8-40.5c10.3,9.7,17.1,22.6,27.5,31.9 c0,4.9-1.5,9.4-1.5,14.6c0,3.9,0,5.8,0,9.7c8.9,1.8,17,10,22.9,16.2c4.8,4.2,11.5,8.1,12.9,8.9l0,0l0,0c3.2-2.4,5.8-5.3,7.7-8.8 c5.6-11.5,6.1-25.3,6.4-37.4c0.3-11.9-3.5-25.9-14.6-32.4c0,4.7,0,7,0,11.7c0,2.6,1.3,4.9,3,6c-2.4,0-4.6,4-5.2,6.2 c-0.6-2.5-2.7-7.2-5.2-8c1.7-0.5,3-2.4,3-5c0-10.9,0-21.8,0-32.6c-2.1-0.4-3.1-0.5-5.2-0.9c-2.1-0.3-3.8,1.1-4.4,3.4 c-0.9-1.6-1.5-4.4-1.5-7.3s0.6-5.4,1.5-6.8c0.6,2.5,2.3,4.5,4.3,4.8c2.1,0.4,3.2,0.5,5.2,0.9c0-2.7,0-4.1,0-6.8s-1.3-5.1-3.2-6.1 c1.1-1,3.2-1.4,5.4-1l0,0c2.2,0.4,4.2,1.5,5.4,2.8c-1.8,0.4-3.1,2.4-3.1,5c0,2.7,0,4.1,0,6.8c2.1,0.4,3.1,0.5,5.2,0.9 c2,0.4,3.7-1.1,4.2-3.4c0.9,1.6,1.4,4.4,1.4,7.3s-0.6,5.4-1.5,6.8c-0.6-2.5-2.2-4.5-4.2-4.9c-2.1-0.4-3.1-0.5-5.2-0.9 c0,3.7,0,5.5,0,9.2c1.3-1.2,3.2-1.9,5.6-1.5c1.3,0.2,4.1,0.8,5.7-0.7c0.7-0.7,0.6-2.9,2.5-4.3c2.1-1.5,5.7-1,8.1-0.5 c3.3,0.6,9.2,2.1,17.2,8.7c4.4,3.6,9.1,7.1,13.2,9.5c1.8,1.1,3.4,2,4.8,2.6c-1.3,0.1-3.1,0.4-4.3,1.1c-0.6,0.4-1,0.7-1.3,1.2 c0,0,4.9,4.9,5.9,8.4c-3.6-0.5-4.6,0.7-4.6,0.7c2.4,2.2,2.5,12.1,2.5,12.1s-2.6-3.9-4.1-4.5c0,0,0.4,3.7,0.4,9.7 c0,4-4.3,8.9-4.2,13.7c0.3,12.1,2.3,21.8,6.3,33.6c1.8,4.2,4.5,8,7.7,11.5c1.5-0.3,8.1-1.9,12.9-4.5c8.4-4.6,12.8-9.8,23-8.9 c0-3.9,0-5.8,0-9.7c0-5.2-1.5-10.1-1.5-15c10.4-6.4,17.1-17.3,27.6-23.8c12.2,11.5,28.3,30.6,29.6,48.4 c-0.1,51.9-0.3,103.8-0.3,155.6c1-2.2,1.9-4.3,2.7-6.2c0.6-1.5-0.2-3.9,0.3-5c0.3-0.7,1.9-1.1,1.9-1.1s-1.1-2.5-1-4 s2.7-0.6,3.8-8.5c0.8-5.7-0.9-12.7,0.3-13.5c1.3-0.9,9.5,0.9,9.5,0.9s-1.2-2.5-0.5-4.2c0.7-1.6,2.3-2.1,2.3-2.1 c-0.4-1-0.6-1.5-1-2.6c3.5-2.6,5.2-4,8.7-6.6C746.6,576.5,746.6,579.1,746.4,584.3z" fill="#FFD200"/>
    <path d="M0,222.9c55.2-28.1,113.1-49.8,174.4-60.2c67.5-11.4,135.9-8.2,203.8-2.8c-0.2,274.5-0.3,549-0.5,823.5 c-66.5-4.7-134.1-7.9-200.3,1.6C115,994,56.6,1015.9,0,1042.8C0,769.5,0,496.2,0,222.9z" fill="#0046AE"/>
    <path d="M565.9,389.9c0.2,0,0.4,0.1,0.6,0.2c0-1.3,0-1.9,0-3.2c-0.4,0.1-0.8,0.3-1.1,0.6c0,6.6,0,9.9,0,16.5c0,2.1,0.8,4,2,5.5 c-0.8,0.5-1.5,1.1-2,1.9c-0.5,0.7-0.7,1.5-1.1,2.3c-0.4-0.9-0.6-1.7-1.1-2.6c-0.6-1-1.3-2-2-2.7c1.1-1.1,2-2.7,2-4.8 c0-10.9,0-21.8,0-32.6c0-0.1,0-0.2-0.1-0.3c0-0.3,0-0.4,0-0.7c0-0.2,0-0.3,0.1-0.4c-2.5-0.4-3.8-0.6-6.4-1.1 c-1.7-0.3-3.2,0.5-4.2,1.9c-0.3-1.1-0.5-2.6-0.5-4.1c0-1.6,0.3-2.8,0.6-3.9c1,1.6,2.5,2.9,4.2,3.2c2.1,0.4,3.2,0.5,5.2,0.9 c0.1,0,0.1,0,0.2-0.1c0.3,0.1,0.5,0.1,0.8,0.1c0-0.4,0-0.7,0-1.1c0-0.1,0.1-0.2,0.1-0.3c0-2.7,0-4.1,0-6.8c0-2.2-0.8-4.2-2-5.7 c0.8-0.2,1.9-0.3,3.1-0.1l0,0c1.2,0.2,2.2,0.7,3.1,1.3c-1.1,1.1-1.9,2.9-1.9,5.1c0,2.7,0,4.1,0,6.8c0,0.1,0,0.2,0.1,0.3 c0,0.4,0,0.7,0,1.1c0.3,0.1,0.5,0.1,0.8,0.1c0.1,0,0.1,0.1,0.2,0.1c2.1,0.4,3.1,0.5,5.2,0.9c1.7,0.3,3.1-0.5,4.1-1.8 c0.3,1.1,0.5,2.6,0.5,4.1c0,1.6-0.3,2.8-0.6,3.9c-1-1.6-2.4-2.9-4.1-3.2c-2.1-0.4-3.1-0.5-5.2-0.9c-0.1,0-0.1,0-0.2,0.1 c-0.3-0.1-0.5-0.1-0.8-0.1c0,4.8,0,7.2,0,12c0.3-0.5,0.7-0.9,1.1-1.3c0-3.7,0-5.5,0-9.2c2.1,0.4,3.1,0.5,5.2,0.9 c2,0.4,3.7,2.4,4.2,4.9c0.9-1.3,1.4-3.9,1.5-6.8c0-2.9-0.5-5.6-1.4-7.3c-0.6,2.3-2.2,3.7-4.2,3.4c-2.1-0.4-3.1-0.5-5.2-0.9 c0-2.7,0-4.1,0-6.8s1.3-4.6,3.1-5c-1.1-1.4-3.1-2.5-5.4-2.8l0,0c-2.2-0.4-4.2,0-5.4,1c1.8,1,3.2,3.5,3.2,6.1c0,2.7,0,4.1,0,6.8 c-2.1-0.4-3.1-0.5-5.2-0.9c-2.1-0.3-3.8-2.4-4.3-4.8c-0.9,1.3-1.5,3.9-1.5,6.8s0.6,5.6,1.5,7.3c0.6-2.3,2.3-3.7,4.4-3.4 c2.1,0.4,3.2,0.5,5.2,0.9c0,10.9,0,21.8,0,32.6c0,2.6-1.3,4.4-3,5c2.5,0.9,4.7,5.5,5.2,8c0.6-2.3,2.7-6.3,5.2-6.2c-1.7-1-3-3.4-3-6 c0-4.7,0-7,0-11.7c-0.2-0.1-0.4-0.3-0.6-0.4C566,391.2,566,390.8,565.9,389.9C566,389.9,566,389.9,565.9,389.9z"/>
    <path d="M566.4,370.3c0.1,0,0.1-0.1,0.2-0.1c2.1,0.4,3.1,0.5,5.2,0.9c1.7,0.3,3.1,1.5,4.1,3.2 c0.3-1.1,0.6-2.4,0.6-3.9c0-1.6-0.2-3-0.5-4.1c-1,1.4-2.4,2.1-4.1,1.8c-2.1-0.4-3.1-0.5-5.2-0.9c-0.1,0-0.1,0-0.2-0.1 c-0.3-0.1-0.5-0.1-0.8-0.1c0-0.4,0-0.7,0-1.1c0-0.1-0.1-0.2-0.1-0.3c0-2.7,0-4.1,0-6.8c0-2.2,0.8-3.9,1.9-5.1 c-0.9-0.5-1.9-1.1-3.1-1.3l0,0c-1.2-0.2-2.3-0.1-3.1,0.1c1.2,1.5,2,3.5,2,5.7c0,2.7,0,4.1,0,6.8c0,0.1,0,0.2-0.1,0.3 c0,0.4,0,0.7,0,1.1c-0.3-0.1-0.5-0.1-0.8-0.1c-0.1,0-0.1,0.1-0.2,0.1c-2.1-0.4-3.1-0.5-5.2-0.9c-1.7-0.3-3.1-1.5-4.2-3.2 c-0.3,1.1-0.6,2.4-0.6,3.9c0,1.6,0.2,3,0.5,4.1c1-1.4,2.5-2.1,4.2-1.9c2.6,0.4,3.8,0.6,6.4,1.1c0,0.2-0.1,0.3-0.1,0.4 c0,0.3,0,0.4,0,0.7c0,0.1,0.1,0.2,0.1,0.3c0,10.9,0,21.8,0,32.6c0,2.1-0.8,3.6-2,4.8c0.8,0.8,1.5,1.7,2,2.7 c0.5,0.9,0.7,1.8,1.1,2.6c0.4-0.8,0.6-1.5,1.1-2.3c0.6-0.8,1.3-1.4,2-1.9c-1.1-1.5-2-3.4-2-5.5c0-6.6,0-9.9,0-16.5 c-1.5,1-2.3,2.4-2.3,2.4s0.1-4.7,2.3-7.9c0-4.8,0-7.2,0-12C565.8,370.2,566,370.2,566.4,370.3L566.4,370.3z" fill="#F5D402"/>
    <path d="M601.8,466c0-11,0-22,0-33c-0.8-0.1-1.2-0.2-2-0.4c0,11.2,0,22.3,0,33.5c0.2,0.9,0.2,1.4,0.4,2.4c-0.1,0.1-0.1,0.2-0.1,0.2 c1.3,0.6,1.9,1,3.2,1.6C602.2,468.5,601.8,466.9,601.8,466z"/>
    <path d="M582.9,469.3c1.1-0.1,1.6-0.2,2.7-0.3c0.9-2.7,1.7-5.5,2.2-7.7c0,0,0.8-2,0.8-6.6c0-9.6,0-14.4,0-24 c-0.8-0.1-1.2-0.2-2-0.4c0,9.6,0,14.4,0,24c0,6.3-5.5,12.1-13.2,16.1c3.5-0.4,5.2-0.6,8.7-1c0.3-0.2,0.6-0.5,0.9-0.8 C583.1,468.8,583,469,582.9,469.3z"/>
    <path d="M577,463.9c5.9-11.8,6.6-25.6,6.5-38.4c0-9.1-1-15.5-2.7-20.2c-0.5-1.6-1.2-5.4,2.8-4.7c2.1,0.4,6.9,6.3,6.9,6.3 s-0.2-4.1-2.6-6.8c-0.4-0.4-1.1-1.8-1.1-2.8c0-0.7,0.7-2.1,1.5-2.7c-1.2-0.3-2.3-1.3-2.8-2.5c-2.3-1.6-5-4.1-5-7 c0-1.1,0.6-1.7,2.4-1.4c1.5,0.3,3.7,2.2,5.9,3.8c0.8,0.1,1.5,0.6,2,1.2c0.6,0.3,1.2,0.5,1.8,0.6c2.5,0.5,3.5-0.2,6.1,0.3 c3.1,0.6,9.9,10.1,12.3,10.2c-2.6-2.7-6.9-11.7-13-12.9c-2.1-0.4-4-0.1-6.1-0.5c-2.5-0.5-5.1-4.1-8-4.7c-1.9-0.3-4-0.5-4.3-1.3 c-0.5-1.3-0.1-1.8,0.5-2.7c1-1.7,3.7-1.6,6.3-1.3c0.8,0.1,1.6,0.2,2.3,0.3c0.7,0.1,1.4,0.4,2,0.5l0,0c7.7,1.4,13,7.2,20.5,13 c1.9,1.5,3.8,2.8,5.4,3.8c-1,1-1.8,2.1-2,3c0,0,3.4,1.4,4.9,5.5c0,0-3.2-0.1-3.8,2.3c1.8,0.5,3.6,3.8,3.6,6.7 c-1.8-1.1-2.8-1.6-4.6-2.6c0,0,1.1,7,1.1,14.3c0,3.7-4.1,7.4-4.1,13.7c0,12,1.6,23.8,6.5,34.8c1,2.6,1.9,5.5,3.6,7.8 c2.5,1.2,3.7,1.7,6.2,2.9l0,0c-3.2-3.5-5.8-7.3-7.7-11.5c-4-11.8-6-21.5-6.3-33.6c-0.1-4.8,4.2-9.8,4.2-13.7c0-6-0.4-9.7-0.4-9.7 c1.5,0.5,4.1,4.5,4.1,4.5s-0.1-10-2.5-12.2c0,0,1-1.1,4.6-0.7c-1-3.5-5.9-8.4-5.9-8.4c0.3-0.5,0.7-1,1.3-1.2 c1.3-0.7,2.9-0.9,4.3-1.1c-1.4-0.6-3.1-1.5-4.8-2.6c-4-2.5-8.8-5.9-13.2-9.5c-8-6.6-13.9-8.1-17.2-8.7c-2.4-0.4-6-1-8.1,0.5 c-1.9,1.4-1.8,3.6-2.5,4.3c-1.6,1.5-4.3,1-5.7,0.7c-2.5-0.4-4.3,0.3-5.6,1.5c-0.4,0.4-0.8,0.8-1.1,1.3c-2.2,3.2-2.3,7.9-2.3,7.9 s0.8-1.5,2.3-2.4c0.4-0.2,0.7-0.4,1.1-0.6c0.8-0.3,1.8-0.4,2.7-0.3c6.6,1.1,11.3,6.7,11.3,8.4c0,0.7-0.7,0.7-0.7,0.7 c-4-0.7-9.9-4.6-13.4-5.7c-0.2,0-0.4-0.2-0.6-0.2c0,0.9,0,1.3,0,2.2c0.2,0.1,0.4,0.3,0.6,0.4c11.1,6.4,14.9,20.5,14.6,32.4 c-0.3,12.2-0.9,25.9-6.4,37.4c-1.8,3.5-4.4,6.4-7.7,8.8l0,0c2.5-0.3,3.8-0.4,6.3-0.7C575.2,468.6,576,466,577,463.9z M569.3,385 c-2.5-0.4-4.2,0.4-4.3,0.5l0,0l0,0l0,0c0,0,1.7-3.9,5.9-3.2c1.8,0.3,7.6,1.2,7.6,1.2c0.8,2.8,4.2,7.9,4.2,12.6 C582.9,396,579.4,386.8,569.3,385z M573.1,394.4c0,0,3.1,2.9,8.4,3l0,0c0,0-2.1,2.6-2.6,4.1C576.7,400,573.1,394.4,573.1,394.4z"/>
    <path d="M608.4,458.3c0-9.6,0-14.4,0-24.1c-0.8-0.1-1.2-0.2-2-0.4c0,9.6,0,14.4,0,24.1c0,4.6,0.8,6.9,0.8,6.9 c0.5,2.5,1.4,5.6,2.3,8.6c1.1,0.5,1.6,0.8,2.7,1.3c-0.1-0.3-0.1-0.6-0.2-0.8c0.3,0.4,0.6,0.8,0.9,1.1c3.5,1.7,5.3,2.6,8.9,4.2 C614,472.4,608.4,464.6,608.4,458.3z"/>
    <path d="M594.9,467.6c0.2-0.9,0.2-1.3,0.4-2.2c0-11.2,0-22.3,0-33.5c-0.8-0.1-1.2-0.2-1.9-0.4c0,11,0,22,0,33 c0,0.8-0.5,2.2-1.4,3.7c1.2-0.1,1.9-0.2,3.1-0.3C595,467.7,594.9,467.6,594.9,467.6z"/>
    <path d="M524.3,653.5c2.3-8.6,4.1-16.7,5.2-21.5c-0.4-1.4-0.6-2.9-0.6-4.7c0-2.1,0-3.2,0-5.3c-1.2,6.2-3.5,16.8-6.3,26.2 C523.2,649.7,523.8,651.6,524.3,653.5z"/>
    <path d="M481,565.1c-1.2-0.2-2.3-1-2.8-1.9c-0.2-0.3-0.3-0.5-0.5-0.7c0.9,2.6,1.4,3.9,2.4,6.5c0-0.3,0.1-0.5,0.1-0.8 C480.3,567.1,480.6,566.1,481,565.1z"/>
    <path d="M495.1,652.3c-0.8-2.3,0-4,1.3-5.1c0.5-0.4,1-0.5,1.5-0.5c0-2.6,0-3.8,0-6.4c-1.1,0.1-2.4,0.1-3.8,0.1c0,8,0,12,0,20 c1.1,0.3,2.4,0.7,3.8,1.2c0-2.6,0-3.8,0-6.4C496.6,654.9,495.6,653.8,495.1,652.3z"/>
    <path d="M507.4,686.3c-0.4-0.1-0.9-0.2-1.3-0.4c-3.9,4.3-8.2,8.9-8.2,8.9c0-5.6,0-8.4,0-14c-1.4-1.1-2.6-2.4-3.8-3.4 c0,4.1,0,6.1,0,10.2c0,5.9-8.9,18.3-13.1,20.9c0-24.6,0.1-49.2,0.1-73.8c-1.6-1.6-2.5-2.8-2.5-2.8s1.1-0.8,2.5-1.5 c0-3.3,0-4.9,0-8.1c-1-1.9-1.7-3.4-1.7-3.4s0.7-0.2,1.7-0.2c0-2.8,0-4.2,0-7c-0.2-0.4-0.5-0.7-0.6-1.2c-0.7-1.8-0.2-3.3,0.6-4.4 c0-4,0-6,0-10c-1.6,0.2-3.5,0.1-5.5-0.3c0,40.6,0,81.2-0.4,121.8c0,4.3-2.1,10.1-2.1,10.1c9-5.4,15.7-16.6,19.8-26.1 c0,1.4,0,2,0,3.4c7.3-3,13-11.4,16.5-17.9C508.8,686.6,508.1,686.5,507.4,686.3z"/>
    <path d="M597.5,799.7L597.5,799.7c-5.6-8.9-13.7-16-21.4-23.1c9.5-21.6,17.8-51.2,14.2-75c-2.5,11.1-5.5,22.2-10.2,32.6 c-5.6,10.9-11.3,21-18.2,31.1c-5.2-3.8-10.4-7.1-14.9-9.5c19.8-17.8,29.7-48.5,37.8-73.1c-1-0.8-2.1-1.8-3.3-2.7 c-8.4,23.1-21.2,64.8-46.1,74.7c0,0,9.8,6.7,21.5,16.5c1.7,1.4,3.5,3,5.3,4.5c1.5-2,3-4.3,4.5-6.6c6.9-10.9,13.6-23.6,13.6-23.6 c-0.9,9.5-5.1,18.5-9.3,27c-1.2,2.5-2.5,5.1-3.9,7.7c1.5,1.5,3.1,2.9,4.7,4.4c9.9,10.1,20,20.2,25.5,33.4c-1.1-3.9-1.6-5.8-2.7-9.7 C595.9,804.8,596.4,803.1,597.5,799.7z"/>
    <path d="M475.8,557.2c0.2,0.5,0.2,0.7,0.4,1.1c0.6,0,1.2-0.1,1.6-0.3c0.8-0.4,1.5-1.3,2.5-1.4c0.3-0.1,0.6,0,0.8,0 c0-25.8,0.1-51.6,0.1-77.5c2.6,3.3,3.9,4.9,6.5,8.2c2.6-2.6,4-3.9,6.6-6.5c0,30.2-0.1,60.4-0.1,90.6c1,4.2,2,9.9,1.4,14.4 c-0.2,2.1-0.8,3.9-1.4,5.5c0,3.6,0,5.4,0,9c0.6-0.5,1.2-1,2-1.1c0.6-0.1,1.2,0,1.7,0.2c0-39.4,0.1-78.8,0.1-118.2 c2.6,3.3,3.9,5,6.5,8.3c2.6-2.6,3.9-3.9,6.5-6.5c0,41.9-0.1,83.9-0.1,125.8c0.7-0.5,1.3-0.9,1.3-0.9s2.3,13.7,0,21.7 c-0.4,1.3-0.9,2.4-1.4,3.5c0,2.5,0,3.8,0,6.3l0,0c1.3-0.2,2.8,0.4,3.7,2c0.1-52.6,0.1-105.2,0.2-157.7c2.6,3.3,3.9,5,6.4,8.3 c3.1-3.1,4.7-4.7,7.8-7.8c0-0.5,0-0.8,0-1.4c0-1.9-0.6-3.8-1.5-5.7c-2.1,2.1-3.1,3.1-5.2,5.2c0-10.3,0-15.4,0-25.7 c1.3-2.2,2.1-3.9,2.8-5.2c1.4,3.2,5.9,13.1,11.1,19.5c0.9-4.3,6.5-7.5,6.5-7.5s2,7.2,5,9.4c1.1-2.2,7.5-6.5,7.5-6.5l0,0 c0,0-5.4,0.2-7.7,2.4c-1.9-0.9-2.4-10.4-2.4-10.5l0,0c0,0-8.1,3.7-9.6,7.1c-1.5-0.8-4-8.9-5-12.1c1.5,0,3.4,0.1,6.1,0.5 c2.3,0.4,5.3,2.2,8.4,4.5l0,0l0,0l0,0c3.4,2.6,6.9,5.7,10,8l0,0l0,0l0,0c4,2.9,10.1,4.5,11.7,4.9c-2,1.5-4.2,2.8-6.6,3.9 c0,0,9.5,1.5,16-1.6c2-1.4,4-2.7,5.8-4.3c-3.4,0.4-5.2,0.6-8.7,1c-0.1,0.1-0.1,0.1-0.2,0.1c0,0,0,0,0.1-0.1 c-2.5,0.3-3.8,0.4-6.3,0.7l0,0c-1.4-0.8-8.1-4.7-12.9-8.9c-6-6.2-14.1-14.4-22.9-16.2c0-3.9,0-5.8,0-9.7c0-5.2,1.5-9.6,1.5-14.6 c-10.5-9.3-17.3-22.2-27.5-31.9c-13.2,8.7-27.8,24-29.8,40.5c0,34.6,0,69.2,0,103.8c1.3,3.3,2.4,7.3,2.6,11 C478.4,550.1,477.1,554.3,475.8,557.2z M495.1,471.4c-2.5,2.5-3.7,3.7-6.2,6.2c0-8.8,0-13.2,0-21.9c2.5,3.2,3.7,4.7,6.2,7.9 C495.1,466.7,495.1,468.3,495.1,471.4z M495.1,455.1c-2.5-3.2-3.7-4.7-6.2-7.9c0-4.1,0-6.1,0-10.2c2.5-2.8,3.7-4.3,6.2-7.1 C495.2,439.9,495.2,445,495.1,455.1z M503.5,479.6c-2.5-3.2-3.7-4.7-6.2-7.9c0-3.1,0-4.7,0-7.8c2.5-2.5,3.7-3.7,6.2-6.2 C503.5,466.5,503.5,470.9,503.5,479.6z M503.5,449.2c-2.5,2.5-3.7,3.7-6.2,6.2c0-10.9,0-16.3,0-27.2c2.5,4.9,3.7,7.4,6.2,12.3 C503.5,443.9,503.5,445.7,503.5,449.2z M511.9,473.8c-2.4,2.5-3.7,3.7-6.1,6.2c0-8.8,0-13.2,0-21.9c2.5,3.2,3.7,4.8,6.1,7.9 C511.9,469.1,511.9,470.7,511.9,473.8z M511.9,457.4c-2.4-3.2-3.7-4.8-6.1-7.9c0-3.1,0-4.7,0-7.8c2.5-2.5,3.7-3.8,6.1-6.3 C512,444.2,512,448.6,511.9,457.4z M514.1,474.1c0-2.9,0-4.4,0-7.3c2.1-1.2,4.2-3.9,6.1-6.7c0,8.8,0,13.2,0,22 C517.7,478.9,516.5,477.3,514.1,474.1z M514.1,458.3c0-9.6,0-14.4,0-24c0.9,2.1,5.1,11.1,9.1,14.1 C521.8,450.8,518.1,456.2,514.1,458.3z M505.4,399.3c6.2,7.8,12.5,16.3,20.4,22.5l0,0c0.1,2.3,0.1,3.5,0.2,5.8c0,6.8,0,10.3,0,17.1 c-3.7-2.1-8.3-10.4-10.6-14.7c0-1,0-1.4,0-2.4c0-2.2,1-3.7,1.9-4.4c-0.9-0.5-1.3-0.8-2.2-1.3c-0.9,1.1-1.8,2.8-1.8,5 c0,0.5,0,0.8,0,1.4c-2.7,3.2-4,4.7-6.7,7.9c-2.7-5.3-4-7.9-6.7-13.2c0-1.2,0-1.8,0-3c0-2,1.3-4.1,2.3-5.4c-0.9-0.5-1.4-0.8-2.3-1.3 c-1.1,1.6-2.3,3.9-2.3,6.1c0,1,0,1.5,0,2.5c-1.6,1.8-7.7,8.5-7.7,8.5s-3.1-8.4-3.9-10.7C490.7,412,498.1,404.5,505.4,399.3z M481.3,431.3c0-2,0.7-4.3,1.9-6.8c1.4,3.3,2.1,4.9,3.6,8.2c0,5.6,0,8.4,0,14.1c-2.2,2.2-3.3,3.2-5.5,5.4 C481.3,443.8,481.3,439.6,481.3,431.3z M481.3,460.8c2.2-2.2,3.3-3.2,5.5-5.4c0,8.8,0,13.2,0,22c-2.2-2.7-3.3-4.1-5.5-6.9 C481.3,466.7,481.3,464.7,481.3,460.8z"/>
    <path d="M478.8,579.7c-1.2-3.5-1.9-5.2-3.1-8.6c0,2,0,4.1,0,6.1c0,0,0.1,0,0.1,0.1C477,578.1,477.9,578.8,478.8,579.7z"/>
    <path d="M496,613.5c0.2-1.3,0.6-2.8,1.2-4c0.2-0.4,0.5-0.9,0.8-1.4c0-0.2,0-0.3,0-0.5c-1.6,0.3-3-0.7-3.8-1.8c0,1,0,1.5,0,2.6 C494.9,610.5,495.3,611.5,496,613.5z"/>
    <path d="M555.7,676.6c0,0-1.1-5.8-1.7-8c0,0-2.9,2.3-4.5,2.2c0,0-0.5-3.9-0.9-6.5c-2,1.4-5.4,0.5-5.4,0.5c2.2-0.9,4.6-6.7,5.8-9.8 c-0.9-0.7-1.7-1.4-2.6-2.2c-1.7,3.9-5.8,13.2-7.7,15.1c0,0,1.6,0.5,3.4,0.8c-1.1,1.8-9.6,15.8-12.3,21.1c-2,4-3.5,3.1-6.1,2.3 c0.3,0.9,0.5,1.3,0.8,2.2c-2.1-0.3-3.1-0.5-5.2-0.8c-0.2-0.6-0.3-0.9-0.5-1.4c-0.6,0.2-1.2,0.6-1.9,0.8c-0.2,0.8-0.7,1.5-1.4,2 s-1.5,0.5-2.2,0.4c-1.6,1.2-2.9,2.5-3.4,3.4c-1.3,2.5-2.3,5.6-2.3,8.4c0,2.9,2.5,7.4,2.5,7.4c0.3-1.4,0.7-1.8,0.7-1.8 s6.7,11.2,7.7,12.7c0.7,1.1,4.1,2.4,5.4,1.2c1.8-1.7,3.5-3,5.1-4.8c-0.1-0.4-0.2-0.6-0.4-1.1c1.4-1.6,2.1-2.4,3.5-3.9 c0.1,0.2,0.1,0.3,0.2,0.6c0-0.1,0.1-0.1,0.1-0.2c1.4-2.3,1.5-5.2,3-7.7c5.9-9.2,11.9-18.3,17.9-27.4c0.1,1.1,0.3,2.1,0.4,3.2 c2.2-5.1,10.6-13,13.8-16c-1.2-0.9-2.4-1.8-3.7-2.7C561.9,669.9,557.5,675.4,555.7,676.6z M513.2,713.5c-0.7-1-0.6-2.3,0.1-2.9 c2.1-1.9,3.1-2.8,5.2-4.7c0.2-0.2,0.6-0.4,0.9-0.3c0.5,0,1.1,0.4,1.5,1c0.7,1,0.6,2.3-0.1,2.9c-2.1,1.9-3.1,2.9-5.2,4.8 C514.9,714.8,513.8,714.5,513.2,713.5z M517.6,703.3L517.6,703.3L517.6,703.3c0.3,0.4,0.2,0.9-0.1,1.2c-0.9,0.8-1.3,1.2-2.2,2 c-0.3,0.2-0.7,0.2-1-0.3c-0.3-0.4-0.2-0.9,0.1-1.2c0.9-0.8,1.3-1.2,2.2-2c0.1-0.2,0.3-0.1,0.5-0.1S517.5,703,517.6,703.3 L517.6,703.3z M518.5,718.9c-0.7,0.6-1.7,0.3-2.4-0.7s-0.6-2.3,0.1-2.9c2.1-1.9,3.1-2.8,5.2-4.7c0.2-0.2,0.6-0.4,0.9-0.3 c0.5,0,1.1,0.4,1.5,1l0,0c0.7,1,0.6,2.3-0.1,2.9C521.6,716,520.6,717,518.5,718.9z M527,718.9c-2.1,1.9-3.1,2.8-5.2,4.7 c-0.7,0.6-1.7,0.3-2.4-0.7s-0.7-2.3,0.1-2.9c2.1-1.9,3.1-2.9,5.2-4.8c0.2-0.2,0.5-0.3,0.9-0.3l0,0c0.5,0,1.1,0.4,1.5,1 C527.7,716.9,527.7,718.2,527,718.9z M533.9,706.6c-1.4,2.2-2.6,8-2.6,8s-2.1-1.5-2.1-3.7s0.2-4.7,0.2-4.7s-1.5,2-4.2,1.6 c0-2.7,4.1-5,4.3-8.7c-3.2,2.4-5.9,0.5-9.6,1.4c-4,1-5.1,2.8-6.3,2.5c-0.7-0.2-1.4-1.8-1.1-2.7c0.4-1.6,5.4-5.3,8.9-5.6 c0.8-0.1,7.3,2.8,8.6,0.6c5-8.8,9.9-17.5,14.8-26.3c0.6-0.1,1-0.2,1.4-0.4c0,0-0.1,5.3,1.2,7.3l0,0c1.8-1.3,2.7-2,4.5-3.3 c0,0,0.3,2,0.7,4.7C546.6,687,540.3,696.8,533.9,706.6z"/>
    <path d="M513.3,647.9c-0.8,0.3-1.6,0.2-2.3-0.1c0,3.1,0,4.7,0,7.9c1,2.7,1.4,4.1,2.4,6.8c-0.1-1.9,0.1-3.8,0.5-5.8 c0.2-0.9,0.5-1.8,0.8-2.6c0-3,0-4.4,0-7.4C514.3,647.2,513.8,647.7,513.3,647.9z"/>
    <path d="M494.2,623.7c0.2,0.2,0.5,0.4,0.7,0.7c-0.3-0.7-0.4-1.1-0.7-1.8C494.2,623,494.2,623.3,494.2,623.7z"/>
    <path d="M497.1,672.1c-0.9-0.6-2-1.9-2.9-3.5c0,1.4,0,2.1,0,3.5C495.3,672,496.4,671.8,497.1,672.1z"/>
    <path d="M596.8,471.4c-0.6-1-1.2-2.3-1.8-3.6c-1.2,0.1-1.8,0.2-3.1,0.3c-1.6,2.6-4.6,5.8-9.1,8.2c0.8-1.6,1.9-4.4,2.9-7.4 c-1.1,0.1-1.6,0.2-2.7,0.3c-0.9,2.9-2.2,6.3-4.2,8.9c9.5,0.6,14.1-5.7,15.4-7.9c0.6,2.3,1.7,5.9,3.4,9.2c-0.5-1.9-0.8-2.8-1.3-4.7 C596.4,473.4,596.5,472.7,596.8,471.4z"/>
    <path d="M514.8,483.7c-0.1,52.6-0.1,105.2-0.2,157.7c0.1,0.3,0.3,0.6,0.4,0.9c0.5,1.5,0.4,3.3-0.4,4.3 c0,3,0,4.4,0,7.4c2.2-5.4,6.4-9.3,6.5-9.3l0,0l0,0l0,0c0,0,0.7,1.4,1.5,3.4c2.8-9.4,5.1-20,6.3-26.2c0.1-45.9,0.1-91.9,0.2-137.8 c-3.1,3.1-4.6,4.7-7.8,7.8C518.7,488.7,517.4,487.1,514.8,483.7z" fill="#B07F55"/>
    <path d="M547,755.8c4.5,2.5,9.6,5.7,14.9,9.5c6.8-10.1,12.6-20.2,18.2-31.1c4.7-10.4,7.7-21.5,10.2-32.6 c3.6,23.8-4.7,53.5-14.2,75c7.7,7,15.8,14.1,21.4,23.1c-1.3-3.9-2-5.9-3.4-9.8c0-32.5,0-64.9,0-97.4c-2.6-3.8-5.3-6.6-9.2-9.9 C576.6,707.4,566.9,738,547,755.8z" fill="#B07F55"/>
    <path d="M547.5,468.9c2.2-2.3,7.7-2.4,7.7-2.4c-3.1-2.4-6.6-5.5-10-8C545.2,458.3,545.7,468,547.5,468.9z" fill="#B07F55"/>
    <path d="M536.7,453.8c-2.6-0.4-4.7-0.5-6.1-0.5c1,3.3,3.4,11.4,5,12.1c1.4-3.3,9.5-7.1,9.6-7.1l0,0 C542.1,456,539.1,454.2,536.7,453.8z" fill="#B07F55"/>
    <path d="M555.2,466.4L555.2,466.4L555.2,466.4z" fill="#B07F55"/>
    <path d="M543.1,664.8c0,0,3.4,0.9,5.4-0.5c0.4,2.6,0.9,6.5,0.9,6.5c1.6,0.2,4.5-2.2,4.5-2.2c0.6,2.1,1.7,8,1.7,8 c1.8-1.3,6.2-6.7,8.5-9.8c-5.2-3.9-10.4-7.9-15.3-11.8C547.8,658.1,545.3,663.8,543.1,664.8z" fill="#B07F55"/>
    <path d="M545.2,458.3L545.2,458.3L545.2,458.3z" fill="#B07F55"/>
    <path d="M597.5,479.7L597.5,479.7L597.5,479.7c-1.7-3.3-2.8-7-3.4-9.3c-1.3,2.2-5.8,8.6-15.4,7.9 c2-2.8,3.3-6,4.2-8.9c0.1-0.3,0.1-0.5,0.2-0.7c-0.3,0.3-0.6,0.5-0.9,0.8c-1.8,1.6-3.8,3-5.8,4.3c-6.5,3.1-16,1.6-16,1.6 c2.4-1.1,4.6-2.4,6.6-3.9c-1.8-0.4-7.7-1.9-11.7-4.9l0,0c0,0-6.4,4.3-7.5,6.5c-3-2.2-5-9.4-5-9.4s-5.6,3.2-6.5,7.5 c-5.2-6.5-9.7-16.3-11.1-19.5c-0.7,1.4-1.5,3-2.8,5.2c0,10.3,0,15.4,0,25.7c2.1-2.1,3.2-3.1,5.2-5.2c-1.9-4-4.9-7.3-4.9-7.3 c23.9,3.7,47.8,7.6,71.5,12c0-1.2,0-1.8,0-2.9c1.3,0.2,2,0.4,3.3,0.6C597.5,479.5,597.5,479.6,597.5,479.7z" fill="#B07F55"/>
    <path d="M497.5,421.7c0-1,0-1.5,0-2.5c0-2.3,1.2-4.5,2.3-6.1c0.9,0.5,1.4,0.8,2.3,1.3c-1.1,1.4-2.3,3.4-2.3,5.4 c0,1.2,0,1.8,0,3c2.7,5.3,4,7.9,6.7,13.2c2.7-3.2,4-4.7,6.7-7.9c0-0.5,0-0.8,0-1.4c0-2.3,1-4,1.8-5c0.9,0.5,1.3,0.8,2.2,1.3 c-0.7,0.8-1.9,2.2-1.9,4.4c0,1,0,1.4,0,2.4c2.3,4.4,7,12.6,10.6,14.7c0-6.8,0-10.3,0-17.1c-0.1-2.3-0.1-3.5-0.2-5.8l0,0 c-7.9-6.2-14.2-14.7-20.4-22.5c-7.3,5.3-14.5,12.7-19.4,20.3c0.8,2.3,3.9,10.7,3.9,10.7S495.9,423.4,497.5,421.7z" fill="#B07F55"/>
    <path d="M486.7,432.7c-1.4-3.3-2.1-4.9-3.6-8.2c-1.1,2.5-1.9,4.8-1.9,6.8c0,8.4,0,12.6,0,20.9 c2.2-2.2,3.3-3.2,5.5-5.4C486.7,441.1,486.7,438.3,486.7,432.7z" fill="#B07F55"/>
    <path d="M497.3,455.4c2.5-2.5,3.7-3.7,6.2-6.2c0-3.5,0-5.2,0-8.7c-2.5-5-3.7-7.4-6.2-12.4 C497.3,439,497.3,444.5,497.3,455.4z" fill="#B07F55"/>
    <path d="M488.9,447.2c2.5,3.2,3.8,4.7,6.3,7.9c0-10.1,0-15.1,0-25.1c-2.5,2.8-3.8,4.2-6.3,7 C488.9,441,488.9,443.1,488.9,447.2z" fill="#B07F55"/>
    <path d="M514.1,434.4c0,9.6,0,14.4,0,24c4-2.1,7.7-7.5,9.1-9.8C519.3,445.4,515,436.4,514.1,434.4z" fill="#B07F55"/>
    <path d="M505.8,449.5c2.5,3.2,3.7,4.8,6.2,7.9c0-8.9,0-13.3,0-22.1c-2.5,2.5-3.7,3.8-6.2,6.3 C505.8,444.8,505.8,446.4,505.8,449.5z" fill="#B07F55"/>
    <path d="M486.7,455.3c-2.2,2.2-3.2,3.3-5.4,5.5c0,3.9,0,5.9,0,9.8c2.2,2.7,3.2,4.1,5.4,6.8 C486.7,468.6,486.7,464.1,486.7,455.3z" fill="#B07F55"/>
    <path d="M488.8,477.6c2.5-2.5,3.8-3.7,6.3-6.2c0-3.1,0-4.7,0-7.9c-2.5-3.2-3.8-4.7-6.3-7.9 C488.9,464.5,488.8,468.8,488.8,477.6z" fill="#B07F55"/>
    <path d="M497.3,471.7c2.5,3.2,3.7,4.7,6.2,7.9c0-8.8,0-13.2,0-21.9c-2.5,2.5-3.7,3.7-6.2,6.2 C497.3,467,497.3,468.6,497.3,471.7z" fill="#B07F55"/>
    <path d="M505.7,480c2.5-2.5,3.7-3.7,6.2-6.1c0-3.1,0-4.7,0-7.9c-2.5-3.2-3.7-4.8-6.2-7.9 C505.7,466.8,505.7,471.2,505.7,480z" fill="#B07F55"/>
    <path d="M514.1,466.8c0,2.9,0,4.4,0,7.3c2.4,3.2,3.7,4.8,6.1,7.9c0-8.8,0-13.2,0-22 C518.3,463,516.2,465.6,514.1,466.8z" fill="#B07F55"/>
    <path d="M506,685.9c-2.8-0.9-5.6-3-8.2-5.1c0,5.6,0,8.4,0,14.1C497.8,694.9,502.1,690.2,506,685.9z" fill="#B07F55"/>
    <path d="M498.3,607.6c-0.2,0.1-0.2,0.1-0.4,0.1c0,0.2,0,0.3,0,0.5C498,608,498.2,607.8,498.3,607.6z" fill="#B07F55"/>
    <path d="M502,650.7c0.2,1.5-0.4,3.7-2.2,4.5c-0.7,0.3-1.4,0.3-2,0.1c0,2.6,0,3.8,0,6.4c2.5,0.9,5.1,2,7.5,3.3 c1.9,1.1,3.7,2.4,5.2,3.8c-3-8.5-4.5-12.8-7.5-21.3C502.1,648.8,501.8,649.3,502,650.7z" fill="#B07F55"/>
    <path d="M501.8,644.1c-0.6-1.7-0.9-2.5-1.5-4.2c-0.7,0.1-1.5,0.2-2.4,0.3c0,2.6,0,3.8,0,6.4c0.4,0,0.8-0.1,1.2-0.2 C499.9,646.2,500.9,645.1,501.8,644.1z" fill="#B07F55"/>
    <path d="M505.1,639.1c0.3,0.8,0.4,1.3,0.7,2.1c1,0.1,2.1-0.1,2.7-0.3c0.8-0.4,1.5-1.2,2.5-1.4c0-2.5,0-3.8,0-6.3 C509.2,636.4,506.7,638.1,505.1,639.1z" fill="#B07F55"/>
    <path d="M510.9,647.9c-0.8-0.4-1.6-1-2-1.7c-0.6-0.9-1-1.3-1.9-1.5c1.6,4.4,2.3,6.6,3.9,11 C510.8,652.6,510.8,651,510.9,647.9L510.9,647.9z" fill="#B07F55"/>
    <path d="M500.3,601.9c0.4,1,0.4,2,0.2,2.9c2.3-2.4,4.5-4,4.5-4l0,0c0,0,3.3,8.7,2.5,11.5c0.6-1.1,2.3-2.4,3.5-3.2 c0-42,0.1-84,0.1-125.9c-2.6,2.6-3.9,3.9-6.5,6.5c-2.6-3.3-3.9-5-6.5-8.3c0,39.4-0.1,78.7-0.1,118.1 C498.9,599.6,499.8,600.5,500.3,601.9z" fill="#B07F55"/>
    <path d="M484.4,559.4c0.1,0.2,0.1,0.4,0.2,0.6l0,0l0,0c0,0,3.1,5.3,3.2,10.9c0.8-2.8,4.8-5.6,4.8-5.6 s0.8,2.6,1.7,6.2c0-30.2,0.1-60.4,0.1-90.6c-2.6,2.6-3.9,3.9-6.6,6.5c-2.6-3.3-3.9-4.9-6.5-8.2c0,25.8-0.1,51.6-0.1,77.5 C482.5,556.7,483.7,557.5,484.4,559.4z" fill="#B07F55"/>
    <path d="M486.1,629.1c-1.6-0.9-3.6-4.3-5.1-7c0,3.3,0,4.9,0,8.1C482.7,629.5,484.8,628.7,486.1,629.1z" fill="#B07F55"/>
    <path d="M489.7,639.8c-3.5-0.7-6.6-3.3-8.7-5.3c0,24.6-0.1,49.2-0.1,73.8c4.3-2.6,13.1-15,13.1-20.9 c0-4.1,0-6.1,0-10.2c-2.4-2.4-4.1-4.4-4.1-4.4s2.1-0.6,4.1-0.9c0-1.4,0-2.1,0-3.5c-2.3-3.9-4.4-9.4-4.4-9.4l0,0l0,0l0,0 c0,0,1.8,0.4,4.5,1.1c0-8,0-12,0-20C492.7,640.3,491.2,640.1,489.7,639.8z" fill="#B07F55"/>
    <path d="M494.2,600.2c0-3.6,0-5.4,0-9c-1.3,2.8-3,4.8-4.1,5.9c0.5,1.5,0.8,2.3,1.4,3.8c0.9,0,1.7-0.1,2.3-0.3 C493.8,600.4,494,600.3,494.2,600.2z" fill="#B07F55"/>
    <path d="M481.7,605.1c0.8-0.6,1.8-0.5,2.7-0.8c0.7-0.3,1.7-1.1,2.4-2c-1-2.8-1.5-4.3-2.6-7.1 c-0.8,0.2-2,0.4-3.3,0.5c0,4,0,6,0,10C481.3,605.6,481.5,605.4,481.7,605.1z" fill="#B07F55"/>
    <path d="M494.2,605.9C494.1,605.9,494.1,605.9,494.2,605.9c-0.5-0.8-0.9-1.1-1.4-1.4c0.6,1.6,0.9,2.4,1.4,3.9 C494.2,607.4,494.2,606.9,494.2,605.9z" fill="#B07F55"/>
    <path d="M490.1,620.3c1.4,0.8,2.8,2,4.1,3.4c0-0.4,0-0.7,0-1.1c-2.4-6.7-3.6-10-6-16.7c-0.7,0.9-0.8,1.5-0.7,2.7 c0.2,1.5-0.4,3.7-2.2,4.5c-1.4,0.6-3.2-0.1-4.2-1.7c0,2.8,0,4.2,0,7C483.1,618.3,486.7,618.4,490.1,620.3z" fill="#B07F55"/>
    <path d="M547.6,675.8L547.6,675.8c-1.3-2-1.2-7.3-1.2-7.3c-0.4,0.2-0.9,0.3-1.4,0.4c-4.9,8.8-9.9,17.5-14.8,26.3 c-1.3,2.3-7.8-0.6-8.6-0.6c-3.5,0.3-8.4,4.1-8.9,5.6c-0.3,0.9,0.4,2.5,1.1,2.7c1.3,0.3,2.4-1.7,6.3-2.5c3.7-0.8,6.4,1.1,9.6-1.4 c-0.2,3.7-4.3,6-4.3,8.7c2.7,0.4,4.2-1.6,4.2-1.6s-0.2,2.5-0.2,4.7s2.1,3.7,2.1,3.7s1.2-5.9,2.6-8c6.4-9.7,12.6-19.6,19-29.3 c-0.4-2.7-0.7-4.7-0.7-4.7C550.3,673.9,549.4,674.5,547.6,675.8z" fill="#D10429"/>
    <path d="M517.6,703.3L517.6,703.3L517.6,703.3z" fill="#D10429"/>
    <path d="M516.7,703c-0.9,0.8-1.3,1.2-2.2,2c-0.3,0.2-0.3,0.8-0.1,1.2c0.3,0.4,0.7,0.6,1,0.3c0.9-0.8,1.3-1.2,2.2-2 c0.3-0.2,0.3-0.8,0.1-1.2c-0.1-0.2-0.3-0.3-0.5-0.4C517,702.8,516.8,702.8,516.7,703z" fill="#D10429"/>
    <path d="M520.9,706.5c-0.4-0.6-1-1-1.5-1c-0.3,0-0.7,0.1-0.9,0.3c-2.1,1.9-3.1,2.8-5.2,4.7 c-0.7,0.6-0.7,1.9-0.1,2.9s1.7,1.3,2.4,0.7c2.1-1.9,3.1-2.9,5.2-4.8C521.5,708.8,521.5,707.5,520.9,706.5z" fill="#D10429"/>
    <path d="M523.8,711.3L523.8,711.3c-0.4-0.6-1-1-1.5-1c-0.3,0-0.6,0.1-0.9,0.3c-2.1,1.9-3.1,2.8-5.2,4.7 c-0.7,0.6-0.7,1.9-0.1,2.9s1.7,1.3,2.4,0.7c2.1-1.9,3.1-2.9,5.2-4.8C524.4,713.5,524.4,712.3,523.8,711.3z" fill="#D10429"/>
    <path d="M525.6,714.9L525.6,714.9c-0.3,0-0.6,0.1-0.9,0.3c-2.1,1.9-3.1,2.9-5.2,4.8c-0.7,0.6-0.7,1.9-0.1,2.9 c0.6,1,1.7,1.3,2.4,0.7c2.1-1.9,3.1-2.8,5.2-4.7c0.7-0.6,0.7-1.9,0.1-2.9C526.6,715.2,526.1,715,525.6,714.9z" fill="#D10429"/>
    <path d="M647.8,773.7c-4.5,1-9.6,2.6-14.9,4.6c-7-12-12.8-24.7-18.2-37.5c-4.7-11.7-7.7-24.1-10.2-36.4 c-4.5,24.6,5.2,57.7,14.1,80.3c-9.4,4.7-17.5,10.1-21.3,15.1l0,0c-1.1,3.5-1.6,5.2-2.7,8.6c1.1,3.9,1.6,5.8,2.7,9.7 c5.2-10.6,15.6-18.1,25.5-24c1.5-0.9,3.1-1.8,4.7-2.7c-1.4-3.1-2.7-6.1-3.9-9.1c-3.8-9.9-8.2-19.7-9.2-30.3 c4.2,9.6,8.8,19,13.6,28.4c1.5,2.9,3,5.6,4.5,8.2c1.8-1,3.5-1.9,5.3-2.7c11.7-5.8,21.5-9.6,21.5-9.6 c-25.3-17.7-36.9-62.2-45.9-90.1c-1.2,0.5-2.3,1-3.3,1.5C618.8,716.5,628.2,750.4,647.8,773.7z"/>
    <path d="M677.3,719.6c-1.6-1.2-3-2.1-4.1-2.2c-3.8-0.6-5.6,1.6-8.2-4.2c-2.6-6.2-11.2-22.7-12.2-24.9c1.8,0.3,3.4,0.3,3.4,0.3 c-1.8-2.5-5.9-13-7.6-17.6c-0.9,0.4-1.7,0.8-2.6,1.3c1.2,3.5,3.6,9.9,5.8,11.6c0,0-3.4-0.2-5.4-2.2c-0.4,2.5-0.9,6.3-0.9,6.3 c-1.6-0.3-4.5-3.7-4.5-3.7c-0.6,1.9-1.7,7.4-1.7,7.4c-1.8-1.9-6.2-8.8-8.5-12.7c-1.2,0.5-2.5,0.9-3.7,1.5 c3.3,4.1,11.8,15,13.8,20.7c0.1-1.1,0.3-2,0.4-3c6,11,11.9,22,17.8,33.1c1.5,3,1.7,5.8,3,8.6c1.5,3,3,5.1,4.6,7.1 c0.4,0.2,0.9,0.4,1.3,0.7c1.4,1.1,2,2.4,2.1,3.4c0.1,0.2,0.3,0.4,0.4,0.6c1.2,1.5,4.6,1.3,5.4,0.4c1-1.2,7.7-10.5,7.7-10.5 s0.5,0.5,0.7,2c0,0,2.5-3.7,2.5-6.7c0-2.7-1-6.1-2.2-9c-0.4-1.1-1.9-2.9-3.7-4.7c-0.6-0.2-1.3-0.5-1.9-0.9 C678.4,721.6,677.7,720.6,677.3,719.6z M675.4,749.1c-0.7,0.8-1.7,0.8-2.4,0c-2.1-2.5-3.1-3.7-5.2-6.2c-0.7-0.8-0.7-2.1-0.1-2.9 c0.4-0.5,1-0.7,1.5-0.5l0,0c0.3,0,0.6,0.3,0.9,0.6c2.1,2.5,3.1,3.8,5.2,6.3C676,747.1,676,748.4,675.4,749.1z M678.7,745.5 c-0.7,0.8-1.7,0.8-2.4,0c-2.1-2.5-3.1-3.8-5.2-6.3c-0.7-0.8-0.7-2.1-0.1-2.9l0,0c0.4-0.5,1-0.7,1.5-0.6c0.3,0,0.6,0.3,0.9,0.6 c2.1,2.5,3.1,3.7,5.2,6.2C679.3,743.4,679.4,744.7,678.7,745.5z M681.7,741.6c-0.7,0.8-1.7,0.8-2.4,0c-2.1-2.5-3.1-3.8-5.2-6.3 c-0.7-0.8-0.7-2.1-0.1-2.9c0.4-0.5,1-0.7,1.5-0.6c0.3,0,0.7,0.3,0.9,0.6c2.1,2.5,3.1,3.7,5.2,6.2 C682.3,739.4,682.3,740.8,681.7,741.6z M677.3,730.1L677.3,730.1L677.3,730.1c0.1-0.2,0.3-0.2,0.5-0.3c0.1,0,0.4,0.1,0.5,0.3 c0.9,1,1.3,1.6,2.2,2.6c0.3,0.3,0.3,0.9,0.1,1.2c-0.3,0.3-0.7,0.4-1,0c-0.9-1-1.3-1.6-2.2-2.6C677.1,731,677,730.4,677.3,730.1 L677.3,730.1z M682.3,728.6c0.3,1-0.4,2.4-1.1,2.4c-1.3-0.1-2.4-2.3-6.3-4.4c-3.7-1.9-6.4-0.8-9.6-4.2c0.1,3.8,4.3,7.3,4.3,10 c-2.7-0.4-4.2-2.8-4.2-2.8s0.2,2.6,0.2,4.8s-2.1,3.1-2.1,3.1s-1.2-6.2-2.6-8.8c-6.4-11.7-12.6-23.6-18.9-35.4 c0.4-2.6,0.7-4.5,0.7-4.5c1.8,1.9,2.7,2.9,4.5,4.8l0,0c1.3-1.6,1.2-6.9,1.2-6.9c0.4,0.3,0.9,0.6,1.4,0.9 c4.8,10.3,9.8,20.6,14.8,30.9c1.3,2.7,7.8,1.7,8.6,2C676.9,721.6,681.9,726.9,682.3,728.6z"/>
    <path d="M714.4,653.7c-0.2,0.3-0.3,0.5-0.5,0.7c0,30.2,0,60.4-0.1,90.6c-4.2-3.6-13.1-18.4-13-24.2c0-13.1,0-26.2,0-39.3 c-1.3,2.9-2.6,5.8-3.8,8.5c0,12.4,0,24.8,0,37.2c0,0-4.9-6.7-9-12.4c-1.2,0.4-2.2,0.3-2.8,0.2c3.5,8.2,9.4,17.8,16.8,23.1 c0-1.3,0-1.9,0-3.2c4.2,11.1,10.6,23.2,19.7,31.2c0,0-2.1-6.3-2.1-10.6c-0.2-38.5-0.2-77-0.1-115.4c-1.6,3.5-3,6.9-4.3,9.6 C714.6,650.7,715,652.2,714.4,653.7z"/>
    <path d="M612.4,481.9c-4.5-4-7.5-8.3-9.2-11.6c-1.3-0.6-1.9-1-3.2-1.6c-0.8,1.5-1.8,3.2-2.5,3.7c-0.2-0.2-0.5-0.6-0.7-1.1 c-0.2,1.4-0.4,2.1-0.6,3.5c0.5,1.9,0.8,2.8,1.3,4.7l0,0c1.7-2.7,2.8-6,3.4-8c1.4,2.7,5.9,10.8,15.6,13.6c-2-3.5-3.3-7.2-4.2-10.5 c-1.1-0.5-1.6-0.8-2.7-1.3C610.5,476.8,611.6,480.1,612.4,481.9z"/>
    <path d="M621.9,479.3L621.9,479.3L621.9,479.3c-3.7-1.7-5.4-2.6-9-4.3c1.9,2.3,3.9,4.4,5.9,6.4c6.5,5.5,16.1,7.2,16.1,7.2 c-2.4-2-4.6-4-6.7-6.2c1.8,0.2,7.8,0.8,11.8-0.9l0,0l0,0l0,0c3.2-1.3,6.7-3.3,10.1-4.8l0,0l0,0l0,0c3.1-1.3,6.1-2.2,8.4-1.9 c2.6,0.4,4.7,0.9,6.1,1.4c-1,3.1-3.4,10.4-5,10.6c-1.4-3.8-9.5-10.1-9.6-10.1l0,0c0,0-0.5,9.5-2.4,9.8c-2.2-3-7.7-4.9-7.7-4.9l0,0 c0,0,6.4,6.3,7.5,8.9c3-1.3,5.1-7.8,5.1-7.8s5.6,5,6.5,9.5c5.2-4.9,9.7-13.4,11.1-16.2c0.7,1.6,1.5,3.4,2.8,6.1 c0,10.3,0,15.4,0,25.7c-2.1-2.7-3.1-4.1-5.2-6.8c-0.9,1.5-1.5,3.3-1.5,5.2c0,0.5,0,0.8,0,1.4c3.1,4,4.6,6.1,7.7,10.1 c2.6-2.6,3.9-3.8,6.5-6.4c0,60.6-0.1,121.1-0.1,181.7c-9-12.8-11.4-32.3-14.2-47.3c0,2,0,3.1,0,5.1c0,1.8-0.2,3.4-0.6,4.6 c3.6,17.6,7.3,36,14.1,52.6c-0.3-1.7-0.2-3.7,0.7-5.8c1-2.2,2.2-3.4,3.4-4.5c0.2-2.5,0.2-4.4,0.2-4.4c0-60.5,0.1-121.1,0.1-181.6 c2.6,3.3,3.9,5,6.5,8.3c2.6-2.6,3.9-3.9,6.5-6.5c0,53.6-0.1,107.2-0.1,160.8c1.3-2.8,2.5-5.7,3.8-8.5c0-50.6,0.1-101.2,0.1-151.8 c2.6,3.3,3.9,5,6.6,8.3c2.6-2.6,3.9-3.9,6.5-6.5c0,40.2-0.1,80.5-0.1,120.7c1.8-4.1,3.7-8.3,5.5-12.2c0-51.9,0.2-103.8,0.3-155.6 c-1.3-17.8-17.3-36.9-29.6-48.4c-10.5,6.5-17.2,17.4-27.6,23.8c0,4.9,1.5,9.8,1.5,15c0,3.9,0,5.8,0,9.7c-10.2-1-14.6,4.3-23,8.9 c-4.7,2.6-11.5,4.1-12.9,4.5l0,0C625.5,481.1,624.3,480.5,621.9,479.3z M672.1,473.6c4-1.8,8.2-9.7,9.1-11.4c0,9.6,0,14.4,0,24 C677.2,482.9,673.5,476.3,672.1,473.6z M681.2,501.9c-2.4,2.5-3.7,3.7-6.1,6.2c0-8.8,0-13.2,0-22c1.8,3.4,4,6.6,6.1,8.5 C681.2,497.5,681.2,499,681.2,501.9z M689.6,510.1c-2.5-3.2-3.7-4.7-6.1-7.9c0-3.1,0-4.7,0-7.8c2.4-2.5,3.7-3.7,6.1-6.2 C689.6,497,689.6,501.4,689.6,510.1z M683.4,485.9c0-8.9,0-13.3,0-22.1c2.4,3.2,3.7,4.8,6.1,8.1c0,3.1,0,4.7,0,7.8 C687.1,482.1,685.9,483.4,683.4,485.9z M698,504.2c-2.5,2.5-3.7,3.7-6.2,6.2c0-8.8,0-13.2,0-22c2.5,3.2,3.7,4.7,6.1,7.9 C698,499.5,698,501.1,698,504.2z M691.9,480c0-3.5,0-5.2,0-8.7c2.5-4.2,3.7-6.4,6.2-10.6c0,10.9,0,16.4,0,27.3 C695.5,484.8,694.3,483.2,691.9,480z M706.4,512.4c-2.5-3.1-3.7-4.7-6.2-7.8c0-3.2,0-4.8,0-8c2.5-2.5,3.7-3.7,6.2-6.2 C706.4,499.1,706.4,503.6,706.4,512.4z M700.2,488.1c0-10.1,0-15.1,0-25.2c2.5,3.5,3.7,5.3,6.2,8.8c0,4.1,0,6.1,0,10.2 C703.9,484.5,702.7,485.7,700.2,488.1z M714,507.3c-2.2,2.2-3.3,3.3-5.5,5.4c0-8.8,0-13.2,0-22c2.2,2.7,3.3,4.1,5.4,6.8 C714,501.4,714,503.4,714,507.3z M714,468c0,8.4,0,12.6,0,20.9c-2.2-2.7-3.3-4.1-5.4-6.8c0-5.6,0-8.5,0-14.1 c1.4-2.9,2.1-4.4,3.6-7.3C713.3,463.5,714,465.9,714,468z M669.5,451.9c0.1-2.3,0.1-3.4,0.2-5.7l0,0c5.1-1.4,20.5-16.6,20.5-16.6 c7.3,7.4,14.3,16.4,19.3,25.5c-0.8,2.1-3.9,9.6-3.9,9.6s-6.1-8.4-7.7-10.6c0-1,0-1.5,0-2.5c0-2.3-1.2-4.8-2.3-6.7 c-0.9,0.3-1.4,0.4-2.3,0.7c1,1.7,2.3,4.1,2.3,6.1c0,1.2,0,1.8,0,3c-2.7,4.5-4,6.8-6.7,11.4c-2.7-3.9-4-5.9-6.7-9.8 c0-0.5,0-0.8,0-1.3c0-2.3-1-4.3-1.8-5.6c-0.9,0.3-1.3,0.4-2.2,0.7c0.7,1,1.9,2.7,1.9,4.9c0,1,0,1.4,0,2.4 c-2.3,3.7-7,10.5-10.7,11.5C669.4,462.1,669.4,458.7,669.5,451.9C669.5,451.8,669.5,451.8,669.5,451.9z"/>
    <path d="M597.5,799.7c3.8-4.9,12-10.4,21.3-15.1c-8.9-22.5-18.6-55.7-14.1-80.3c2.5,12.3,5.5,24.7,10.2,36.4 c5.3,12.8,11.1,25.5,18.2,37.5c5.2-2,10.4-3.6,14.9-4.6c-19.7-23.4-29.1-57.3-37.7-86.2c-5.6,2.6-8.9,5-12.6,10.7 c-1.1-2.1-2.3-4-3.3-5.7c0,32.5,0,64.9,0,97.4C595.5,793.8,596.2,795.7,597.5,799.7z" fill="#B07F55"/>
    <path d="M650.2,476.7c-3.4,1.5-6.9,3.5-10.1,4.8c0,0,5.5,2,7.7,4.9C649.7,486.2,650.2,476.7,650.2,476.7z" fill="#B07F55"/>
    <path d="M640.1,481.5L640.1,481.5L640.1,481.5z" fill="#B07F55"/>
    <path d="M673,482.1c-1.3-2.6-2.1-4.5-2.8-6.1c-1.4,2.8-5.9,11.3-11.1,16.2c-0.9-4.5-6.5-9.5-6.5-9.5s-2,6.5-5.1,7.8 c-1.1-2.6-7.5-8.9-7.5-8.9l0,0c-4,1.6-10.1,1.1-11.8,0.9c2,2.2,4.2,4.2,6.7,6.2c0,0-9.5-1.7-16.1-7.2c-2-2.1-4-4.1-5.9-6.4 c-0.3-0.3-0.6-0.8-0.9-1.1c0.1,0.3,0.1,0.5,0.2,0.8c0.9,3.3,2.2,7.1,4.2,10.5c-9.6-2.8-14.2-10.9-15.6-13.6c-0.6,2.1-1.7,5.4-3.4,8 l0,0c-1.3-0.3-2-0.4-3.3-0.6c0,1.2,0,1.8,0,2.9c26.1,5,52.3,9.4,78.6,13.3c0,0-3,2.4-4.9,5.9c2.1,2.7,3.1,4.1,5.2,6.8 C673.1,497.6,673.1,492.5,673,482.1C673.1,482.1,673.1,482.1,673,482.1z" fill="#B07F55"/>
    <path d="M650.2,476.7L650.2,476.7L650.2,476.7z" fill="#B07F55"/>
    <path d="M659.7,486.8c1.5-0.3,4-7.6,5-10.6c-1.5-0.4-3.4-1-6.1-1.4c-2.3-0.4-5.3,0.5-8.4,1.9l0,0 C650.2,476.7,658.3,483,659.7,486.8z" fill="#B07F55"/>
    <path d="M639.3,691.6c0,0,1.1-5.5,1.7-7.4c0,0,2.9,3.3,4.5,3.7c0,0,0.5-3.8,0.9-6.3c2,2.1,5.4,2.2,5.4,2.2 c-2.2-1.6-4.6-8.1-5.8-11.6c-4.8,2.3-10,4.6-15.3,6.7C633.2,682.8,637.6,689.8,639.3,691.6z" fill="#B07F55"/>
    <path d="M680.4,693c0-60.6,0.1-121.1,0.1-181.7c-2.6,2.6-3.9,3.8-6.5,6.4c-3.1-4-4.7-6.1-7.7-10.1 c0,46-0.1,92-0.1,138C669,660.7,671.4,680.2,680.4,693z" fill="#B07F55"/>
    <path d="M680.2,457.4c0-1,0-1.4,0-2.4c0-2.2-1-4-1.9-4.9c0.9-0.3,1.3-0.4,2.2-0.7c0.9,1.3,1.8,3.3,1.8,5.6 c0,0.5,0,0.8,0,1.4c2.7,3.9,4,5.9,6.7,9.8c2.7-4.5,4-6.8,6.7-11.4c0-1.2,0-1.8,0-3c0-2-1.3-4.5-2.3-6.1c0.9-0.3,1.4-0.4,2.3-0.7 c1.1,1.9,2.3,4.5,2.3,6.7c0,1,0,1.5,0,2.5c1.6,2.2,7.7,10.6,7.7,10.6s3.1-7.6,3.9-9.7c-5-9.1-12-18.1-19.3-25.5 c0,0-15.4,15.1-20.5,16.6l0,0c-0.1,2.3-0.1,3.4-0.2,5.7c0,6.8,0,10.3,0,17.1C673.2,467.9,677.9,461.1,680.2,457.4z" fill="#B07F55"/>
    <path d="M708.6,482.1c2.2,2.7,3.3,4.1,5.4,6.8c0-8.4,0-12.6,0-20.9c0-2-0.7-4.5-1.9-7.3c-1.4,2.9-2.1,4.4-3.6,7.3 C708.6,473.6,708.6,476.5,708.6,482.1z" fill="#B07F55"/>
    <path d="M698,460.6c-2.5,4.3-3.7,6.4-6.2,10.7c0,3.5,0,5.2,0,8.7c2.5,3.2,3.7,4.7,6.1,7.9 C698,477,698,471.5,698,460.6z" fill="#B07F55"/>
    <path d="M706.5,471.7c-2.5-3.5-3.8-5.2-6.3-8.7c0,10.1,0,15.1,0,25.2c2.5-2.5,3.8-3.7,6.3-6.2 C706.5,477.8,706.5,475.8,706.5,471.7z" fill="#B07F55"/>
    <path d="M681.3,486.1c0-9.6,0-14.4,0-24c-0.9,1.8-5.1,9.6-9.1,11.4C673.5,476.3,677.2,482.9,681.3,486.1z" fill="#B07F55"/>
    <path d="M689.6,471.8c-2.5-3.2-3.7-4.8-6.2-8.1c0,8.9,0,13.3,0,22.1c2.5-2.5,3.7-3.7,6.2-6.2 C689.6,476.5,689.6,475,689.6,471.8z" fill="#B07F55"/>
    <path d="M708.6,512.7c2.1-2.2,3.2-3.3,5.4-5.5c0-3.9,0-5.9,0-9.8c-2.1-2.8-3.2-4.1-5.4-6.9 C708.6,499.5,708.6,503.9,708.6,512.7z" fill="#B07F55"/>
    <path d="M700.2,504.5c2.5,3.1,3.7,4.7,6.3,7.9c0-8.8,0-13.2,0-22c-2.5,2.5-3.8,3.7-6.3,6.2 C700.2,499.8,700.2,501.4,700.2,504.5z" fill="#B07F55"/>
    <path d="M691.8,510.4c2.5-2.5,3.7-3.7,6.2-6.2c0-3.1,0-4.7,0-7.9c-2.5-3.1-3.7-4.7-6.1-7.9 C691.8,497.3,691.8,501.7,691.8,510.4z" fill="#B07F55"/>
    <path d="M683.5,502.3c2.4,3.2,3.7,4.7,6.1,7.9c0-8.8,0-13.2,0-22c-2.5,2.5-3.7,3.7-6.1,6.2 C683.5,497.5,683.5,499.1,683.5,502.3z" fill="#B07F55"/>
    <path d="M675.2,486.2c0,8.8,0,13.2,0,22c2.4-2.5,3.6-3.7,6.1-6.2c0-2.9,0-4.4,0-7.3 C679.2,492.8,677,489.5,675.2,486.2z" fill="#B07F55"/>
    <path d="M690.7,520.1c-2.6-3.3-3.9-5-6.5-8.3c0,60.6-0.1,121.1-0.1,181.7c0,0-0.1,1.8-0.2,4.4 c1.9-1.6,3.8-2.2,4.6-3.9c2.2-5,5.4-12.3,8.7-19.6c0-53.6,0.1-107.1,0.1-160.7C694.6,516.2,693.3,517.5,690.7,520.1z" fill="#B07F55"/>
    <path d="M697.1,690c-1.3,2.9-2.5,5.6-3.5,7.9c-1.2,2.8,0.9,7.5-1.7,13.1c-1.1,2.3-2.5,3.4-3.9,3.9 c4.1,5.6,9,12.4,9,12.4C697.1,714.8,697.1,702.4,697.1,690z" fill="#B07F55"/>
    <path d="M713.9,745.1c0-30.2,0-60.4,0.1-90.6c-0.8,0.8-1.8,1.1-1.8,1.1s1.2,2.5,0.5,4.4c-0.8,1.9-3,2.7-3,2.7 s0.7,1.6,0,3.2c-0.8,1.7-2.1,0.8-2.5,1.6c-2,4.5-4.2,9.3-6.2,14c0,13.1,0,26.2,0,39.3C700.8,726.7,709.6,741.5,713.9,745.1z" fill="#B07F55"/>
    <path d="M707.6,522.3c-2.6-3.3-3.9-4.9-6.6-8.3c0,50.6-0.1,101.2-0.1,151.8c0.4-0.8,0.7-1.6,1-2.3 c0.3-0.8-1-1.9-0.2-3.6c0.7-1.7,2.2-1.6,2.2-1.6s-0.5-2.8,0.4-4.7c0.8-1.8,3.1-1.7,3.1-1.7s-0.5-2.2,0.2-3.5c0.7-1.5,2-1.8,2.4-2.8 c1.2-2.7,2.7-5.9,4.1-9.2c0-40.2,0.1-80.5,0.1-120.7C711.5,518.4,710.2,519.7,707.6,522.3z" fill="#B07F55"/>
    <path d="M664.9,718.3c-4.9-10.3-9.9-20.6-14.8-30.9c-0.6-0.3-1-0.5-1.4-0.9c0,0,0.1,5.3-1.2,6.9l0,0 c-1.8-1.9-2.7-2.9-4.5-4.8c0,0-0.3,1.9-0.7,4.5c6.2,11.8,12.5,23.6,18.9,35.4c1.4,2.6,2.6,8.8,2.6,8.8s2.1-0.9,2.1-3.1 c0-2.2-0.2-4.8-0.2-4.8s1.5,2.4,4.2,2.8c0-2.7-4.1-6.2-4.3-10c3.2,3.4,5.9,2.2,9.6,4.2c4,2.1,5.1,4.3,6.3,4.4 c0.7,0,1.4-1.4,1.1-2.4c-0.4-1.7-5.4-6.9-8.9-8.2C672.6,720,666.2,721,664.9,718.3z" fill="#D10429"/>
    <path d="M677.3,730.1L677.3,730.1L677.3,730.1z" fill="#D10429"/>
    <path d="M677.3,731.3c0.9,1,1.3,1.6,2.2,2.6c0.3,0.3,0.7,0.4,1,0c0.3-0.3,0.2-0.9-0.1-1.2c-0.9-1-1.3-1.6-2.2-2.6 c-0.1-0.2-0.3-0.2-0.5-0.3c-0.1,0-0.4,0.1-0.5,0.3C677,730.4,677.1,731,677.3,731.3z" fill="#D10429"/>
    <path d="M676.5,732.4c-0.2-0.3-0.6-0.5-0.9-0.6c-0.5-0.2-1.1,0.1-1.5,0.6c-0.7,0.8-0.6,2.1,0.1,2.9 c2.1,2.5,3.1,3.8,5.2,6.3c0.7,0.8,1.8,0.8,2.4,0c0.7-0.8,0.6-2.1-0.1-2.9C679.6,736.1,678.5,734.9,676.5,732.4z" fill="#D10429"/>
    <path d="M673.5,736.2c-0.2-0.3-0.6-0.5-0.9-0.6c-0.5-0.2-1.1,0.1-1.5,0.6l0,0c-0.7,0.8-0.6,2.1,0.1,2.9 c2.1,2.5,3.1,3.8,5.2,6.3c0.7,0.8,1.7,0.8,2.4,0s0.6-2.1-0.1-2.9C676.6,740,675.6,738.8,673.5,736.2z" fill="#D10429"/>
    <path d="M670.2,739.9c-0.2-0.3-0.5-0.4-0.9-0.6l0,0c-0.5-0.2-1.1,0-1.5,0.5c-0.7,0.8-0.6,2.1,0.1,2.9 c2.1,2.5,3.1,3.7,5.2,6.2c0.7,0.8,1.7,0.8,2.4,0s0.7-2.1-0.1-2.9C673.3,743.6,672.2,742.4,670.2,739.9z" fill="#D10429"/>
    <path d="M588.5,387.2c0.1,0,0.1,0,0.2,0c-2.2-1.6-4.3-3.5-5.9-3.8c-1.8-0.3-2.4,0.3-2.4,1.4c0,3,2.7,5.4,5,7 c-0.2-0.5-0.4-1.2-0.4-1.7C585.1,388.2,586.6,386.8,588.5,387.2z" fill="#B07F55"/>
    <path d="M586.8,454.2c0-9.6,0-14.4,0-24c0.8,0.1,1.2,0.2,2,0.4c0,9.6,0,14.4,0,24c0,4.6-0.8,6.6-0.8,6.6 c-0.5,2.3-1.4,5.1-2.2,7.7c-1,3.1-2,5.9-2.9,7.4c4.4-2.4,7.5-5.6,9.1-8.2c0.9-1.5,1.4-2.8,1.4-3.7c0-11,0-22,0-33 c0.8,0.1,1.2,0.2,1.9,0.4c0,11.2,0,22.3,0,33.5c-0.2,0.9-0.2,1.3-0.4,2.2c0.1,0.1,0.1,0.2,0.1,0.3c0.5,1.3,1.2,2.6,1.8,3.6 c0.3,0.4,0.5,0.8,0.7,1.1c0.7-0.5,1.7-2.2,2.5-3.7c0.1-0.1,0.1-0.2,0.1-0.2c-0.2-0.9-0.2-1.4-0.4-2.4c0-11.2,0-22.3,0-33.5 c0.8,0.1,1.2,0.2,2,0.4c0,11,0,22,0,33c0,0.9,0.5,2.4,1.4,4.3c1.6,3.2,4.7,7.6,9.2,11.6c-0.8-1.9-1.9-5.1-2.9-8.5 c-0.9-3-1.7-6.1-2.3-8.6c0,0-0.8-2.3-0.8-6.9c0-9.6,0-14.4,0-24.1c0.8,0.1,1.2,0.2,2,0.4c0,9.6,0,14.4,0,24.1 c0,6.3,5.6,14.1,13.4,21c0.1,0,0.1,0.1,0.1,0.1s0-0.1-0.1-0.1c-1.7-2.4-2.6-5.3-3.6-7.8c-4.9-11-6.5-22.9-6.5-34.8 c0-6.3,4.1-10,4.1-13.7c0-7.3-1.1-14.3-1.1-14.3c1.8,1.1,2.7,1.6,4.6,2.6c0-2.8-1.8-6.2-3.6-6.7c0.6-2.4,3.8-2.3,3.8-2.3 c-1.5-4-4.9-5.5-4.9-5.5c0.2-1,1-2,2-3c-1.6-1-3.4-2.3-5.4-3.8c-7.4-5.7-12.8-11.6-20.5-13l0,0c-0.6-0.1-1.3-0.2-2-0.5 c-0.7-0.1-1.6-0.3-2.3-0.3c-2.6-0.4-5.4-0.3-6.3,1.3c-0.5,0.8-1,1.5-0.5,2.7c0.3,0.7,2.5,1,4.3,1.3c2.9,0.5,5.4,4.2,8,4.7 c2,0.4,3.9,0.1,6.1,0.5c6.2,1.2,10.4,10.2,13,12.9c-2.3-0.2-9.1-9.7-12.2-10.2c-2.6-0.5-3.6,0.1-6.1-0.3c-0.6-0.1-1.2-0.3-1.8-0.6 c0.7,0.8,1.2,1.9,1.2,3.1c0,2-1.5,3.4-3.4,3c-0.1,0-0.1,0-0.2,0c-0.7,0.7-1.5,2-1.5,2.7c0,1.1,0.7,2.4,1.1,2.8 c2.4,2.7,2.6,6.8,2.6,6.8s-4.8-5.9-6.9-6.3c-4.1-0.7-3.4,3.2-2.8,4.7c1.8,4.6,2.7,11.1,2.7,20.2c0.1,12.9-0.8,26.6-6.5,38.4 c-1,2.2-1.9,4.7-3.5,6.5c0,0,0,0-0.1,0.1c0.1-0.1,0.1-0.1,0.2-0.1C581.2,466.3,586.7,460.6,586.8,454.2z" fill="#B07F55"/>
    <path d="M582.9,396c0-4.7-3.5-9.8-4.2-12.6c0,0-5.8-0.8-7.6-1.2c-4.2-0.7-5.9,3.1-5.9,3.2c0,0,1.7-0.9,4.3-0.5 C579.4,386.8,582.9,396,582.9,396z M578,388.9L578,388.9c0,0-2.5-1.4-2.5-2.5c0-1.4,1.2-1.2,1.9,0.1C578,387.2,578,388.9,578,388.9 L578,388.9L578,388.9z" fill="#CC092F"/>
    <path d="M565,385.5L565,385.5L565,385.5z" fill="#CC092F"/>
    <path d="M581.4,397.4c-5.2,0-8.4-3-8.4-3s3.7,5.7,5.8,7.2C579.3,400,581.4,397.4,581.4,397.4L581.4,397.4z" fill="#D10429"/>
    <path d="M578,388.9L578,388.9L578,388.9z"/>
    <path d="M575.6,386.3c0,1.1,2.5,2.5,2.5,2.5s-0.1-1.7-0.5-2.6C576.8,385.2,575.6,384.9,575.6,386.3z"/>
    <path d="M592,391.6c0-1.1-0.5-2.2-1.2-3.1c-0.5-0.6-1.3-1.1-2-1.2c-0.1,0-0.1,0-0.2,0c-1.9-0.3-3.5,1-3.5,3c0,0.6,0.1,1.2,0.4,1.7 c0.5,1.2,1.6,2.2,2.8,2.5c0.1,0,0.1,0,0.2,0C590.4,394.9,592,393.6,592,391.6z M586.1,390.5c0-1.8,1.1-3.1,2.4-2.8 c1.3,0.2,2.4,1.9,2.4,3.7s-1.1,3.1-2.4,2.8C587.2,394,586.1,392.2,586.1,390.5z"/>
    <path d="M591,391.4c0-1.8-1.1-3.5-2.4-3.7c-1.3-0.2-2.4,1-2.4,2.8s1.1,3.5,2.4,3.7C589.9,394.5,591,393.1,591,391.4 z M588.5,389.5c0.5,0.1,1,0.8,1,1.6s-0.5,1.3-1,1.2c-0.5-0.1-1-0.8-1-1.6S588,389.4,588.5,389.5z" fill="#F5D402"/>
    <path d="M588.5,389.6c0.6,0.1,1,0.8,1,1.6s-0.5,1.3-1,1.2c-0.6-0.1-1-0.8-1-1.6S588,389.5,588.5,389.6z"/>
    <path d="M534.3,725.9c2.2,1.8,3.3,2.7,5.5,4.5c-0.7,4-1.1,6-1.8,10c-2.9-2.5-4.4-3.7-7.3-6.2c0.5-2.9,0.8-4.4,1.3-7.3 c-0.4,0.1-0.5,0.2-0.9,0.3c-0.5-1.4-0.7-2-1.2-3.4c-0.9,4.6-1.3,6.9-2.1,11.6c4.8,3.9,7.1,5.9,11.9,9.9c1.2-6.4,1.8-9.6,2.9-16 c-3.3-2.8-5-4.2-8.3-7c0.4,1.3,0.7,1.9,1.1,3.2C534.9,725.7,534.7,725.8,534.3,725.9z"/>
    <path d="M517.9,679.5c0.5,1.4,1,2.7,1.3,3.9c0.1,0.1,0.1,0.1,0.2,0.2c0,0.1-0.1,0.1-0.1,0.2c0.1,0.1,0.1,0.3,0.1,0.4 c0.4,0.1,0.9,0,1.4,0.1c-0.2-0.5-0.3-0.8-0.4-1.3c-0.5,0.4-0.9,0.5-0.9,0.5C519,681.8,518.6,681,517.9,679.5z"/>
    <path d="M520.6,687.6c0.4,1.4,0.5,2.3,0.3,2.3l0,0c-0.3,0-0.9-0.9-1.7-2.5c-0.4-0.1-0.8-0.1-1.3-0.2c0-0.3,0-0.4-0.1-0.7 c-0.3,0.5-0.5,0.9-0.7,1.3c0.7,1.8,1,2.7,1.6,4.5c0.2,0.6,0.3,0.9,0.5,1.4c2.1,0.3,3.1,0.5,5.2,0.8c-0.3-0.9-0.5-1.3-0.8-2.2 c-0.6-1.8-0.9-2.7-1.5-4.5C521.8,687.7,521.3,687.6,520.6,687.6z"/>
    <path d="M528.8,721c0.1,0.4,0.2,0.6,0.4,1c0.3,0.8,0.4,1.2,0.7,1.9c0.5,1.4,0.7,2,1.2,3.4c0.4-0.1,0.5-0.2,0.9-0.3 c0.2-1,0.3-1.6,0.4-2.6c0.8,0.6,1.1,0.9,1.9,1.6c0.4-0.2,0.6-0.2,1-0.4c-0.4-1.3-0.7-1.9-1.1-3.2c-0.7-1.9-1-2.8-1.7-4.7 c-0.1-0.2-0.1-0.3-0.1-0.6C531,718.6,530.3,719.4,528.8,721z"/>
    <path d="M476.1,558.3c-0.2-0.5-0.2-0.7-0.4-1.1c-0.2,0.4-0.4,0.8-0.5,1.1C475.5,558.3,475.8,558.3,476.1,558.3z"/>
    <path d="M510.9,655.7c-1.5-4.4-2.3-6.6-3.9-11c-0.4-0.1-0.8-0.1-1.4-0.2c1.7,4.4,4.1,11.7,6.8,19.4c0.5,1.4,1,2.9,1.6,4.4 c-0.3-1.6-0.6-3.7-0.7-5.9C512.3,659.8,511.8,658.4,510.9,655.7z"/>
    <path d="M482.9,586c1.1,3.6,1.6,5.4,2.7,9c0,0-0.5,0.1-1.2,0.3c1,2.8,1.5,4.3,2.6,7.1c0.3-0.3,0.6-0.7,0.8-0.9c0-0.4,0-0.6-0.1-0.9 l0,0c0,0,0.3,0,0.8,0.1c0.3-0.4,0.5-0.7,0.5-0.7l0,0l0,0l0,0c0.2,0.3,0.3,0.4,0.5,0.7c0.6,0.1,1.3,0.1,2,0.1 c-0.5-1.5-0.8-2.3-1.4-3.8c-0.7,0.6-1.1,0.9-1.1,0.9c-2.2-5.5-3.4-8.2-5.6-13.6c-1.6,0.3-3.3-5.3-5-10c-1.8-5-3.5-8.5-2.5-8.9 c1.1-0.5,2.8,3.8,4.3,8c0,0.1,0.1,0.1,0.1,0.2c-0.2-1.5-0.3-3.1-0.1-4.6c-0.9-2.6-1.4-3.9-2.4-6.5c-0.8-0.8-1.6-0.8-4-1.1 c-0.4,0.5-0.8,0.9-1.1,1.2c1.2,3.3,1.8,5,3,8.3c1.2,3.5,1.9,5.2,3.1,8.6C481.9,582.7,482.9,586,482.9,586z"/>
    <path d="M510,663.1c-2.5-6.9-4.6-13.1-5.7-17.2c-0.5,0.7-0.9,1.2-1.3,1.6c3,8.5,4.5,12.8,7.5,21.3c0.9,0.8,1.6,1.6,2.3,2.3 C511.9,668.5,511,665.7,510,663.1z"/>
    <path d="M505.1,639.1c-1,0.5-1.7,0.8-1.7,0.8c-1.4-3.6-2.2-5.4-3.6-9c0,0,0,0-0.1,0.1l0,0c-0.1,0-0.2,0.1-0.2,0.1 c1.3,3.4,1.9,5.1,3.1,8.5l0,0c0,0-0.9,0.2-2.4,0.5c0.6,1.7,0.9,2.5,1.5,4.2c0.3-0.3,0.6-0.7,0.9-1.1c-0.1-0.9-0.1-1.3-0.1-2.2l0,0 l0,0l0,0c0,0,0.3,0,0.7,0.1c0-0.2,0.1-0.4,0.2-0.4c0.2-0.1,0.4,0.1,0.6,0.5c0.5,0.1,1.1,0.1,1.7,0.2 C505.4,640.4,505.3,640,505.1,639.1z"/>
    <path d="M494.1,617.9c-1.8-5-5.4-12.7-4.4-13.1c1.1-0.5,2.6,3.6,4.4,8.7c0.4,1.1,0.9,2.4,1.5,4c0-1.1,0.1-2.5,0.3-3.7 c-0.7-2-1.1-3.1-1.8-5.1c-0.6-1.6-0.9-2.4-1.4-3.9c-0.7-0.3-1.5-0.3-3.1-0.5c-0.7,0.8-1.1,1.4-1.5,1.8c2.4,6.7,3.6,10,6,16.7 c0.3,0.7,0.4,1.1,0.7,1.8c1.1,1.2,2,2.3,2.7,3.3C496.4,624.9,495.1,620.7,494.1,617.9z"/>
    <path d="M517,682.1c-1.3-3.2-2.7-7-4.2-10.9c-0.7-0.7-1.4-1.6-2.3-2.3c-1.5-1.4-3.2-2.7-5.2-3.8c-2.4-1.3-5-2.4-7.5-3.3 c-1.4-0.5-2.6-0.9-3.8-1.2c-2.6-0.7-4.4-1.1-4.5-1.1c0,0,2.1,5.5,4.4,9.4c1,1.6,2,3,2.9,3.5c-0.6-0.3-1.7-0.2-2.9,0 c-2,0.3-4.1,0.9-4.1,0.9s1.6,1.9,4.1,4.4c1.1,1.1,2.3,2.2,3.8,3.4c2.6,2.1,5.4,4.1,8.2,5.1c0.4,0.2,0.9,0.3,1.3,0.4 c0.7,0.2,1.3,0.3,1.9,0.3c2,0.2,3.6-0.1,4.9-0.5C515.3,685.1,516.4,683.2,517,682.1z M494.1,663.8L494.1,663.8L494.1,663.8 L494.1,663.8c0,0,6.5,0.6,11.6,3.8s8.8,9.3,8.8,9.3s-6.8,0.6-12.7-3.5C497.5,670.5,494.1,663.8,494.1,663.8z M503.8,682.7 c-4.5-2-8.5-8.1-8.5-8.1l0,0c0,0,7.4,0.7,11.9,2.7s6.1,5.2,6.1,5.2S508.4,684.7,503.8,682.7z"/>
    <path d="M489.7,659.2L489.7,659.2L489.7,659.2z"/>
    <path d="M513.3,662.5c0.1,2.2,0.4,4.2,0.7,5.9c1.4,4,2.8,7.8,4,11.2c0.7,1.6,1,2.4,1.6,4c0,0,0.4-0.2,0.9-0.5 c1.9-1.2,6.4-4.2,8.5-9c2.8-6.1,1.8-15,1.8-15s-5.2,1.6-5.9,2.6c0.4-2.5,0-5.4-0.7-8.1c-0.5-2-1.1-3.8-1.7-5.3 c-0.8-2-1.5-3.3-1.5-3.4c0,0-4.2,3.9-6.5,9.3c-0.3,0.9-0.6,1.7-0.8,2.6C513.4,658.6,513.3,660.6,513.3,662.5z M528.8,662L528.8,662 L528.8,662L528.8,662c0,0-0.4,8-2.4,11.9s-5.6,3.7-5.6,3.7s-1-4.5,1-8.4S528.8,662,528.8,662z M515.4,659.5 c0.6-5.2,5.1-10.1,5.1-10.1l0,0c0,0,1.9,5.2,2.4,9.3c0.5,4.2,0,5.5,0,5.5s-2,2.1-2.8,3.3c-1.1,1.7-1.3,4.9-1.3,4.9 S514.8,664.8,515.4,659.5z"/>
    <path d="M521.1,644.8C521.1,644.9,521.1,644.9,521.1,644.8C521.1,644.9,521.1,644.9,521.1,644.8z"/>
    <path d="M494.2,640.3c1.4,0,2.6,0,3.8-0.1c0.9-0.1,1.7-0.2,2.4-0.3c1.4-0.3,2.4-0.5,2.4-0.5l0,0c-1.3-3.4-1.9-5.1-3.1-8.5 c-0.6-0.1-1.3-1.4-2-3.1c-0.8-1-1.7-2.1-2.7-3.3c-0.2-0.2-0.5-0.4-0.7-0.7c-1.3-1.3-2.6-2.5-4.1-3.4c-3.3-2-7-2-9-1.8 c-1.1,0-1.7,0.2-1.7,0.2s0.7,1.6,1.7,3.4c1.4,2.7,3.4,6.1,5.1,7c-1.4-0.5-3.4,0.3-5.1,1.2c-1.4,0.7-2.5,1.5-2.5,1.5 s0.9,1.3,2.5,2.8c2,2,5.2,4.6,8.7,5.3C491.2,640.1,492.7,640.3,494.2,640.3z M484,624.4c-1.4-2.2-1.7-4.3-1.7-4.3l0,0 c0,0,4.6-0.3,8.8,3c4.1,3.3,8.1,11.1,8.1,11.1s-3.7-3.5-6.4-4.6c-2.8-1.1-5-0.5-5-0.5S485.4,626.5,484,624.4z M481.8,632.4 L481.8,632.4c0,0,5.2-2,9.4-0.8c4.2,1.2,8,5.8,8,5.8s-5.7,1.6-10,0.4C485.1,636.6,481.8,632.4,481.8,632.4z"/>
    <path d="M507.4,612.3c0.8-2.7-2.5-11.5-2.5-11.5l0,0c0,0-2.3,1.6-4.5,4c-0.2,1.2-1,2.2-2,2.7c-0.1,0-0.2,0.1-0.2,0.1 c-0.2,0.2-0.2,0.4-0.4,0.6c-0.3,0.4-0.5,0.8-0.8,1.4c-0.6,1.3-1,2.7-1.2,4s-0.3,2.6-0.3,3.7c2.2,5.5,5.1,12.9,4.1,13.6 c1.4,3.6,2.2,5.4,3.6,9c0,0,0.7-0.2,1.7-0.8c1.7-0.9,4.1-2.7,5.9-5.9c0.6-1,1-2.1,1.4-3.5c2.2-7.9,0-21.7,0-21.7s-0.6,0.4-1.3,0.9 C509.8,609.9,508.1,611.2,507.4,612.3z M498.6,616.6c0.4-5,4.9-10.2,4.9-10.2l0,0c0,0,1.5,3.5,1.8,6.4c0.2,2.1-0.4,4.6-0.4,4.6 s-1.5,2.1-2.2,4.1s-0.5,5.3-0.5,5.3S498.3,621.6,498.6,616.6z M510,614.1L510,614.1c0,0,1.6,7.7,0.5,13.2c-1.1,5.4-4.9,8.6-4.9,8.6 s-2-6.2-0.9-11.7C505.8,618.7,510,614.1,510,614.1L510,614.1L510,614.1z"/>
    <path d="M481.1,595.8c1.4-0.1,2.5-0.3,3.3-0.5s1.2-0.3,1.2-0.3c-1.1-3.6-1.6-5.4-2.7-9c0,0-1.1-3.3-4.2-6.3c-0.8-0.8-1.8-1.6-3-2.4 c0,0-0.1,0-0.1-0.1c-6.5-4-13.7-4-13.7-4l0,0l0,0c0,0,2.5,5.8,4.9,7.4c-1.7-0.9-6,0.5-6,0.5s4.6,9.4,10.8,12.9 c1.3,0.7,2.7,1.2,4,1.5C477.5,595.9,479.4,595.9,481.1,595.8z M465.1,575.3L465.1,575.3c0,0,5,0.4,8.6,3.1c3.6,2.6,6.2,7.1,6.2,7.1 s-5.3-0.8-9-3.3C467.4,579.5,465.1,575.3,465.1,575.3z M471.1,590.9c-3.1-2.1-4.9-6.4-4.9-6.4l0,0l0,0l0,0c0,0,5.7,0.8,8.8,2.9 c3.1,2.1,5.6,6.2,5.6,6.2S474.2,593.1,471.1,590.9z"/>
    <path d="M494.2,591.2c0.7-1.6,1.2-3.4,1.4-5.5c0.5-4.4-0.4-10.1-1.4-14.4c-0.8-3.6-1.7-6.2-1.7-6.2s-3.9,2.8-4.8,5.6 c-0.1-5.6-3.2-10.9-3.2-10.9l0,0l0,0c0.5,2.2-0.3,4.3-2,5c-0.5,0.2-1.1,0.2-1.6,0.2c-0.4,1-0.7,2-0.8,3.2c0,0.3-0.1,0.5-0.1,0.8 c-0.1,1.5,0,3,0.1,4.6c1.4,3.9,4.7,10.2,3.3,10.8l0,0c0,0,0,0-0.1,0c2.2,5.5,3.4,8.2,5.6,13.6c0,0,0.5-0.3,1.1-0.9 C491.2,596,492.9,594.1,494.2,591.2z M487.6,581.6c0.5-5.3,3.7-10.1,3.7-10.1l0,0c0,0,2.9,6.4,2.5,11.8c-0.5,5.3-4.4,9.6-4.4,9.6 S487.1,587,487.6,581.6z M484.3,565.3L484.3,565.3L484.3,565.3L484.3,565.3c0,0,2,3.4,2.1,7.5s-1.5,9.1-1.5,9.1s-2.3-4.9-2.4-9 S484.3,565.3,484.3,565.3z"/>
    <path d="M459.8,525.1L459.8,525.1L459.8,525.1z"/>
    <path d="M471.8,559c0-0.4,0-0.6-0.1-0.9l0,0l0,0l0,0c0,0,0.3,0,0.8,0.1c0.3-0.4,0.5-0.7,0.5-0.7l0,0c0.2,0.3,0.3,0.4,0.5,0.7 c0.5,0.1,1.1,0.1,1.7,0.1c0.2-0.3,0.4-0.8,0.5-1.1c1.3-2.9,2.7-7.2,2.5-11.8c-0.1-3.8-1.3-7.8-2.6-11c-1.6-4.2-3.3-7.3-3.3-7.3 s-2.2,5.2-2.5,9.3c-1.4-4.4-10.1-11.2-10.2-11.3c0,0-1.3,8.9,0.9,14.3c2,4.9,3.3,6.1,3.3,6.1c-3.8-3.5-9.5-4.4-9.5-4.4 s2.1,10,6.9,15.1c2.7,2.8,6.3,4.1,8.9,4.6C470.6,560.2,471.3,559.6,471.8,559z M473.1,533.8L473.1,533.8L473.1,533.8L473.1,533.8 c0.5,1.4,2.7,4.4,3,9.1c0.1,4.7-1.9,10.1-1.9,10.1s-2.3-5.6-2.4-10.3C471.5,538,473.1,533.8,473.1,533.8z M463.6,541.4 c-1.8-4-1.6-10.5-1.6-10.5s4.1,2,5.9,5.9c1.8,4,1.6,10.5,1.6,10.5S465.4,545.4,463.6,541.4z M463.5,554.5c-2.7-2.9-5.4-9.2-5.4-9.2 s4.8,0.9,7.6,3.8c2.7,2.9,3.8,8.3,3.8,8.3S466.3,557.4,463.5,554.5z"/>
    <path d="M520.6,687.6c0.7,0.1,1.2,0.2,1.6,0.2c0.9,0.2,1.3,0.6,1.9,1.5c0.7,1.2,2.5,2.5,4.3,1.7c1.8-0.7,2.6-3.3,1.8-5.6 s-2.4-3-4-2.9c-1,0.1-1.6,0.9-2.4,1.4c-0.6,0.3-1.6,0.4-2.7,0.3c-0.4,0-1-0.1-1.4-0.1C520,685.5,520.4,686.6,520.6,687.6z"/>
    <path d="M519.2,687.3c-0.2-0.5-0.5-1.1-0.8-1.8c-0.2,0.3-0.4,0.6-0.5,0.8c0,0.3,0,0.4,0.1,0.7C518.5,687.2,518.8,687.3,519.2,687.3 z"/>
    <path d="M515.5,695.1c0.7-0.4,1.2-1.2,1.4-2c0.3-1,0.3-2.1,0.1-2.8c-0.3-1-0.2-1.7,0.2-2.5c0.1-0.3,0.4-0.8,0.7-1.3 c0.1-0.3,0.3-0.6,0.5-0.8c-0.4-1-0.9-2.1-1.4-3.4c-0.6,1.1-1.7,3-2.8,4c-0.1,0.2-0.4,0.3-0.5,0.4c-0.8,0.4-1.8,0.5-2.5,1.3 c-1.1,1.3-1.6,3.2-0.6,5.4c0.6,1.3,1.6,2.1,2.7,2.3C514.1,695.7,514.9,695.6,515.5,695.1z"/>
    <path d="M519.3,683.4c0.1,0.1,0.1,0.3,0.1,0.4c0-0.1,0.1-0.1,0.1-0.2C519.4,683.6,519.4,683.5,519.3,683.4z"/>
    <path d="M505.8,641.1c-0.6,0-1.2-0.1-1.7-0.2c0.4,0.6,1,1.8,1.6,3.4c0.6,0.1,1,0.1,1.4,0.2c0.9,0.2,1.3,0.6,1.9,1.5 c0.4,0.7,1.1,1.3,2,1.7c0.7,0.3,1.5,0.4,2.3,0.1c0.6-0.3,1-0.7,1.4-1.2c0.7-1.2,1-2.8,0.4-4.3c-0.1-0.3-0.2-0.6-0.4-0.9 c-0.9-1.6-2.3-2.2-3.7-2l0,0c-1,0.1-1.6,1-2.5,1.4C507.8,641.2,506.8,641.2,505.8,641.1z"/>
    <path d="M502.7,643.1c0.3-0.4,0.5-0.7,0.7-0.8c-0.1-0.6-0.1-1-0.1-1.3c-0.5-0.1-0.7-0.1-0.7-0.1 C502.6,641.7,502.6,642.2,502.7,643.1z"/>
    <path d="M502.5,640.9C502.6,640.9,502.6,640.9,502.5,640.9L502.5,640.9C502.6,640.9,502.6,640.9,502.5,640.9z"/>
    <path d="M501.8,644.1c-0.9,1-2,2-2.8,2.3c-0.4,0.1-0.8,0.2-1.2,0.2c-0.5,0.1-1.1,0.2-1.5,0.5c-1.3,1-2.1,2.8-1.3,5.1 c0.5,1.4,1.7,2.5,2.8,2.9c0.7,0.2,1.4,0.2,2-0.1c1.8-0.8,2.4-3,2.2-4.5c-0.2-1.4,0.1-2,1-3.2c0.3-0.4,0.8-0.9,1.3-1.6 c-0.4-1.5-0.7-2.8-0.9-3.8c-0.2,0.2-0.4,0.5-0.7,0.8C502.4,643.4,502.1,643.7,501.8,644.1z"/>
    <path d="M489.7,604c1.5,0.2,2.4,0.2,3.1,0.5c0.5,0.3,0.9,0.6,1.4,1.3c0,0,0,0,0.1,0.1c0.7,1.1,2.2,2.1,3.8,1.8 c0.2,0,0.2-0.1,0.4-0.1c0.1,0,0.2,0,0.2-0.1c1.1-0.4,1.7-1.5,2-2.7c0.2-0.9,0.2-1.9-0.2-2.9c-0.5-1.4-1.4-2.3-2.3-2.6 c-0.6-0.2-1.2-0.3-1.7-0.2c-0.8,0.1-1.4,0.6-2,1.1c-0.2,0.2-0.3,0.2-0.5,0.3c-0.5,0.3-1.4,0.4-2.3,0.3c-0.7,0-1.4,0-2-0.1 c0.5,0.7,0.8,1.1,1.4,1.8C490.4,603.1,490,603.6,489.7,604z"/>
    <path d="M487.7,600.5L487.7,600.5c0,0.4,0,0.6,0.1,0.9c0.3-0.3,0.5-0.6,0.7-0.8C488,600.5,487.7,600.5,487.7,600.5z"/>
    <path d="M485.3,613.1c1.8-0.8,2.4-3,2.2-4.5c-0.2-1.2,0-1.8,0.7-2.7c0.4-0.5,0.8-1.1,1.5-1.8c0.4-0.4,0.8-0.9,1.1-1.5 c-0.5-0.7-0.8-1.1-1.4-1.8c-0.2-0.3-0.3-0.4-0.5-0.7c0,0-0.2,0.3-0.5,0.7c-0.2,0.2-0.5,0.5-0.7,0.8s-0.5,0.6-0.8,0.9 c-0.8,0.9-1.7,1.7-2.4,2c-0.9,0.3-1.9,0.1-2.7,0.8c-0.2,0.2-0.5,0.4-0.7,0.6c-0.9,1.1-1.3,2.6-0.6,4.4c0.2,0.5,0.4,0.8,0.6,1.2 C482.1,612.9,483.8,613.7,485.3,613.1z"/>
    <path d="M488.9,600L488.9,600L488.9,600z"/>
    <path d="M478.2,563.3c0.5,0.9,1.6,1.7,2.8,1.9c0.5,0.1,1.1,0,1.6-0.2c1.7-0.7,2.5-2.9,2-5c-0.1-0.2-0.1-0.4-0.2-0.6 c-0.7-1.9-2-2.7-3.3-2.8c-0.3,0-0.6-0.1-0.8,0c-1,0.1-1.7,1-2.5,1.4c-0.4,0.2-1,0.3-1.6,0.3c-0.3,0.1-0.6,0-0.9,0.1 c-0.6,0-1.1-0.1-1.7-0.1c0.5,0.7,0.8,1.1,1.4,1.8c-0.5,0.6-0.8,1-1.1,1.5c2.4,0.3,3.3,0.2,4,1.1C477.9,562.8,478,563,478.2,563.3z"/>
    <path d="M471.7,558L471.7,558L471.7,558z"/>
    <path d="M471.7,558c0,0.4,0,0.6,0.1,0.9c0.3-0.3,0.5-0.6,0.7-0.8C472,558.1,471.7,558,471.7,558z"/>
    <path d="M474.8,560c-0.5-0.7-0.8-1.1-1.4-1.8c-0.2-0.3-0.3-0.4-0.5-0.7l0,0c0,0-0.2,0.3-0.5,0.7c-0.2,0.2-0.5,0.5-0.7,0.8 c-0.5,0.6-1.1,1.2-1.7,1.8c-0.5,0.5-1.1,1-1.6,1.1c-0.9,0.3-1.9,0.1-2.8,0.8c-1.3,1-2.1,2.8-1.3,5.1c0.8,2.3,3.1,3.6,4.9,2.8 s2.4-3,2.2-4.5c-0.2-1.5,0.1-2,1.1-3.3c0.3-0.3,0.6-0.7,1.1-1.2S474.5,560.6,474.8,560z"/>
    <path d="M537.9,740.4c0.7-4,1.1-6,1.8-10c-2.2-1.8-3.3-2.7-5.5-4.5c-0.8-0.6-1.1-0.9-1.9-1.6 c-0.2,1-0.3,1.6-0.4,2.6c-0.5,2.9-0.8,4.4-1.3,7.3C533.5,736.7,535,737.9,537.9,740.4z" fill="#F5D402"/>
    <path d="M499.8,630.9L499.8,630.9L499.8,630.9c1.1-0.7-1.9-8-4.1-13.5c-0.6-1.5-1.1-2.9-1.5-4 c-1.8-5.1-3.3-9-4.4-8.7c-1.1,0.4,2.6,8.2,4.4,13.1c1,2.8,2.3,7,3.4,9.8c0.8,1.8,1.4,3,2,3.1C499.6,630.8,499.7,630.9,499.8,630.9z " fill="#F5D402"/>
    <path d="M483.5,584.5c1.4-0.5-1.8-6.8-3.3-10.8c0-0.1-0.1-0.1-0.1-0.2c-1.4-4-3.1-8.4-4.3-8c-1.1,0.4,0.7,4,2.5,8.9 C480.1,579.2,481.8,584.8,483.5,584.5C483.4,584.5,483.4,584.5,483.5,584.5L483.5,584.5z" fill="#F5D402"/>
    <path d="M520.9,689.9L520.9,689.9c0.2-0.1,0.1-0.9-0.3-2.3c-0.2-0.9-0.6-2-1-3.4c-0.1-0.1-0.1-0.3-0.1-0.4 c-0.1-0.1-0.1-0.2-0.1-0.4c-0.4-1.2-0.8-2.5-1.3-3.9c-1.2-3.4-2.6-7.2-4-11.2c-0.5-1.4-1-2.9-1.6-4.4c-2.8-7.7-5.1-15.1-6.8-19.4 c-0.6-1.6-1.1-2.8-1.6-3.4c-0.2-0.4-0.4-0.6-0.6-0.5c-0.1,0.1-0.2,0.2-0.2,0.4c0,0.3,0,0.7,0.1,1.3c0.1,0.9,0.4,2.2,0.9,3.8 c1.2,4.1,3.3,10.3,5.7,17.2c0.9,2.6,1.9,5.3,2.8,7.9c1.4,4,2.9,7.8,4.2,10.9c0.5,1.3,1,2.4,1.4,3.4c0.3,0.7,0.6,1.3,0.8,1.8 C520,689,520.6,689.9,520.9,689.9z" fill="#F5D402"/>
    <path d="M469.4,547.4c0,0,0.2-6.6-1.6-10.5c-1.8-4-5.9-5.9-5.9-5.9s-0.2,6.6,1.6,10.5 C465.4,545.4,469.4,547.4,469.4,547.4z" fill="#097754"/>
    <path d="M465.6,549.1c-2.7-2.9-7.6-3.8-7.6-3.8s2.7,6.4,5.4,9.2c2.7,2.9,6,2.8,6,2.8S468.4,552,465.6,549.1z" fill="#097754"/>
    <path d="M474.2,553.1c0,0,2.1-5.4,1.9-10.1c-0.1-4.7-2.4-7.7-3-9.1c0,0-1.6,4.2-1.4,8.9 C471.9,547.5,474.2,553.1,474.2,553.1z" fill="#097754"/>
    <path d="M473.1,533.8L473.1,533.8L473.1,533.8z" fill="#097754"/>
    <path d="M480,585.4c0,0-2.7-4.6-6.2-7.1c-3.6-2.6-8.6-3.1-8.6-3.1l0,0c0,0,2.4,4.2,5.9,6.8 C474.6,584.7,480,585.4,480,585.4z" fill="#097754"/>
    <path d="M466.2,584.6L466.2,584.6L466.2,584.6z" fill="#097754"/>
    <path d="M480.7,593.7c0,0-2.4-4.1-5.6-6.2c-3.1-2.1-8.8-2.9-8.8-2.9s1.8,4.2,4.9,6.4 C474.2,593.1,480.7,593.7,480.7,593.7z" fill="#097754"/>
    <path d="M485,582c0,0,1.6-5,1.5-9.1s-2.1-7.5-2.1-7.5s-1.9,3.5-1.8,7.7C482.8,577.2,485,582,485,582z" fill="#097754"/>
    <path d="M484.3,565.3L484.3,565.3L484.3,565.3z" fill="#097754"/>
    <path d="M493.8,583.3c0.5-5.3-2.5-11.8-2.5-11.8l0,0c0,0-3.3,4.8-3.7,10.1c-0.5,5.3,1.8,11.1,1.8,11.1 S493.3,588.6,493.8,583.3z" fill="#097754"/>
    <path d="M492.7,629.6c2.8,1.1,6.4,4.6,6.4,4.6s-3.9-7.7-8.1-11.1c-4.1-3.3-8.8-3-8.8-3l0,0c0,0,0.4,2,1.7,4.3 c1.4,2.3,3.6,4.7,3.6,4.7S489.9,628.5,492.7,629.6z" fill="#097754"/>
    <path d="M499.3,637.5c0,0-3.8-4.5-8-5.8c-4.2-1.2-9.4,0.8-9.4,0.8l0,0c0,0,3.3,4.2,7.5,5.5 C493.6,639.1,499.3,637.5,499.3,637.5z" fill="#097754"/>
    <path d="M502.3,626.8c0,0-0.2-3.2,0.5-5.3c0.7-2,2.2-4.1,2.2-4.1s0.6-2.5,0.4-4.6c-0.4-3-1.8-6.4-1.8-6.4l0,0 c0,0-4.5,5.2-4.9,10.2C498.3,621.6,502.3,626.8,502.3,626.8z" fill="#097754"/>
    <path d="M505.5,635.9c0,0,3.8-3.2,4.9-8.6s-0.5-13.2-0.5-13.2s-4.3,4.6-5.4,10.1 C503.5,629.7,505.5,635.9,505.5,635.9z" fill="#097754"/>
    <path d="M510,614.1L510,614.1L510,614.1z" fill="#097754"/>
    <path d="M518.8,672.6c0,0,0.2-3.3,1.3-4.9c0.9-1.2,2.8-3.3,2.8-3.3s0.4-1.3,0-5.5c-0.5-4.2-2.4-9.3-2.4-9.3l0,0 c0,0-4.5,4.9-5.1,10.1C514.8,664.8,518.8,672.6,518.8,672.6z" fill="#097754"/>
    <path d="M520.8,677.7c0,0,3.6,0.2,5.6-3.7s2.4-11.9,2.4-11.9s-5,3.4-7,7.3C519.7,673.2,520.8,677.7,520.8,677.7z" fill="#097754"/>
    <path d="M528.8,662L528.8,662L528.8,662z" fill="#097754"/>
    <path d="M513.4,682.6c0,0-1.6-3.2-6.1-5.2s-11.9-2.8-11.9-2.8l0,0c0,0,4,6.1,8.5,8.1 C508.4,684.7,513.4,682.6,513.4,682.6z" fill="#097754"/>
    <path d="M494.1,663.8L494.1,663.8L494.1,663.8z" fill="#097754"/>
    <path d="M501.8,673.4c5.9,3.9,12.7,3.5,12.7,3.5s-3.7-6.1-8.8-9.3c-5.1-3.2-11.6-3.8-11.6-3.8 C494.1,663.8,497.5,670.5,501.8,673.4z" fill="#097754"/>
    <path d="M738.7,580.7c0,0-1.6,0.5-2.3,2.1s0.5,4.2,0.5,4.2s-8.2-1.8-9.5-0.9c-1.1,0.8,0.5,7.8-0.3,13.5c-1.1,7.9-3.7,7-3.8,8.5 s1,4,1,4s-1.5,0.4-1.9,1.1c-0.5,1.2,0.4,3.6-0.3,5c-0.8,1.9-1.8,4-2.7,6.2c-1.7,3.9-3.6,8.2-5.5,12.2c-1.5,3.3-2.9,6.5-4.1,9.2 c-0.5,1.1-1.8,1.3-2.4,2.8c-0.6,1.4-0.2,3.5-0.2,3.5s-2.3-0.1-3.1,1.7c-0.8,1.9-0.4,4.7-0.4,4.7s-1.4,0-2.2,1.6 c-0.8,1.7,0.5,2.8,0.2,3.6s-0.7,1.5-1,2.3c-1.2,2.8-2.5,5.6-3.8,8.5c-3.2,7.3-6.5,14.6-8.7,19.6c-0.7,1.7-2.7,2.4-4.6,3.9 c-1.2,0.9-2.4,2.3-3.4,4.5s-1,4.2-0.7,5.8c0.4,2.6,1.7,4.4,1.7,4.4s-3.6-0.1-4.5,2c-0.6,1.4-0.5,3.4,0.3,5.2c0.4,1,1.1,1.9,2.1,2.7 c0.7,0.5,1.3,0.8,1.9,0.9c1.9,0.5,3.7-0.4,4.4-2c1-2.2-1-6.2-1-6.2s0.1,0,0.4,0.1c0.6,0.1,1.6,0.2,2.8-0.2c1.3-0.5,2.8-1.5,3.9-3.9 c2.5-5.6,0.4-10.4,1.7-13.1c1-2.2,2.2-4.9,3.5-7.9c1.2-2.7,2.4-5.5,3.8-8.5c2-4.7,4.2-9.5,6.2-14c0.3-0.8,1.7,0.1,2.5-1.6 c0.7-1.7,0-3.2,0-3.2s2.1-0.8,3-2.7c0.8-1.8-0.5-4.4-0.5-4.4s1.1-0.3,1.8-1.1c0.2-0.2,0.4-0.4,0.5-0.7c0.7-1.5,0.2-3.1,0.7-4.1 c1.3-2.9,2.7-6.2,4.3-9.6c2.7-6.2,5.8-12.8,8.1-18c0.6-1.5,2.7-1.7,3.2-2.9c0.3-0.7-0.2-2.7-0.2-2.7s2.3,0,3.2-0.9 c1-0.9-1-3.3,3.8-8.5c3.4-3.7,9-5.6,8.9-7.2c-0.1-1.8-5.5-9.9-5.5-9.9s2.3,0,3-1.6s0.2-3.6,0.2-3.6c0.9-0.1,1.4-0.1,2.3-0.2 c0-5.2,0-7.7,0-12.9c-3.5,2.7-5.2,4-8.7,6.6C738,579.3,738.2,579.7,738.7,580.7z M724.2,608.3c0,0,2.1-1.4,2.7-2.8 c0.7-1.5,1.8-2.6,2-7c0.2-4.7-0.6-10.4-0.1-10.7c0.2-0.1,0.7,0,1.4,0c2.3,0.3,6.4,1,6.4,1s-4.5,0.9-5.1,1.2 c-0.6,0.4-0.5,9.6-2.8,14.5c-1.8,4.1-3,6.1-3,6.1C725.2,609.7,724.8,609.2,724.2,608.3z M684.3,720.4c-0.7,1.6-2.7,1.8-4.3,0.5 c-1.7-1.3-2.4-3.6-1.8-5.2l0,0c0.4-0.9,1.3-1.5,2.4-1.3c0.6,0.1,1.3,0.4,1.9,0.8C684.1,716.5,685,718.8,684.3,720.4z M704.9,669.2 c-4.2,9.5-8.5,19.1-12.7,28.6c-1.1,2.4,0.5,7.9-1.2,11.8c-1.7,4-5.1,4.5-7.3,2.7c-2.2-1.7-3.5-5.8-1.8-9.8c1.7-3.9,6.1-4.9,7.2-7.2 c4.2-9.5,8.4-19.1,12.6-28.6c0,0,0.5-1,1.4-1.1c0.3-0.1,0.7,0.1,1.1,0.4C705.9,667.4,704.9,669.2,704.9,669.2z M708.3,664.8 c-0.5,1-2,1-3.5-0.1c-1.4-1.1-2.3-2.8-1.8-3.8c0.2-0.5,0.8-0.8,1.4-0.7c0.6,0,1.4,0.3,2.1,0.8C707.9,662.1,708.7,663.8,708.3,664.8 z M711.3,659.6c-0.6,1.4-2.5,1.4-4.2,0.1s-2.7-3.5-2.1-4.8l0,0c0.4-0.9,1.3-1.1,2.3-1c0.6,0.1,1.3,0.4,2,0.9 C711,656.1,711.9,658.2,711.3,659.6z M713.4,653.4c-0.5,1-2,1-3.5-0.1c-1.4-1.1-2.3-2.8-1.8-3.8c0.2-0.5,0.8-0.8,1.4-0.7 c0.6,0,1.4,0.3,2.1,0.8C713.1,650.7,713.9,652.3,713.4,653.4z M728.6,618.4c-0.5,1-1.6,1.6-5.4,10c-3.4,7.6-5.1,11.5-8.5,19.1 c0,0-0.8,1.9-2.4,0.7c-1.7-1.2-0.8-3.1-0.8-3.1c3.4-7.6,5.1-11.4,8.5-19.1c3.7-8.4,3.5-9.9,4-11c0.3-0.7,0.9-1.3,1.7-1.3 c0.5,0,1,0.1,1.6,0.6C728.9,615.6,729,617.2,728.6,618.4z M729.3,613.5c-1-0.7-1.6-1.1-2.6-1.9c0,0,1-1.7,3.1-6.4 c2.5-5.7,2.2-13.4,2.9-14.1c0.7-0.7,5.4-1.2,5.4-1.2s2,5.4,1.9,6.5c-0.2,1.1-5.5,4.8-8,10.4C729.9,611.5,729.3,613.5,729.3,613.5z M744.4,599c0,0.7-4.2,2.9-7.3,5.5c-2.9,2.4-3.1,4.3-3.7,5.8c-0.6,1.3-0.5,4.4-0.5,4.4c-1-0.3-1.5-0.4-2.5-0.7c0,0,0.8-2.3,2.6-6.5 c2.1-4.9,8.5-9.6,8.4-10.4l0,0c0-0.8-1.8-6.2-1.8-6.2S744.4,598.3,744.4,599z M743,586.9c-0.7,1.5-2.4,1.8-3.8,0.8 c-1.4-1.1-2.1-3.2-1.4-4.6l0,0c0.4-1,1.2-1.4,2.1-1.4c0.5,0.1,1.1,0.2,1.7,0.6C743.1,583.4,743.7,585.5,743,586.9z M744.8,575.1 c0,3,0,4.4,0.1,7.4c-2.1-1.5-3.1-2.2-5.2-3.7C741.8,577.3,742.8,576.6,744.8,575.1z"/>
    <path d="M668.2,747.6c-0.4-0.3-1-0.6-1.3-0.7c-0.4-0.1-0.7-0.2-1-0.2c-1.1-0.1-1.8,0.7-2,1.2l0,0c-0.3,0.8-0.4,1.9,0,2.8 c0,0-2.6-1.4-3.5-1s0,16,0,16s10.5-6.7,10.4-7.9c-0.1-1.3-2.4-3.6-2.4-3.6c0.9-0.1,1.5-0.6,1.8-1.4c0.1-0.3,0.2-0.9,0.1-1.6 C670.2,750,669.7,748.7,668.2,747.6z M668.8,757.4c-2.9,2.2-4.3,3.3-7.2,5.4c0-4.4,0-6.6,0-11.1l0,0c0,0,2,0,4.1,1.7 C667.8,755.1,668.8,757.4,668.8,757.4z M669.3,752.2c-0.4,0.8-1.6,0.7-2.9-0.2c-1.2-1-2-2.4-1.6-3.3c0.1-0.4,0.6-0.6,1.1-0.5l0,0 c0.5,0.1,1.2,0.3,1.8,0.8C668.9,749.9,669.6,751.4,669.3,752.2z"/>
    <path d="M744.8,575.1c-2,1.5-3.1,2.2-5.1,3.7c2.1,1.5,3.1,2.2,5.2,3.7C744.9,579.5,744.9,578,744.8,575.1z" fill="#F5D402"/>
    <path d="M741.6,582.3c-0.5-0.4-1.1-0.6-1.7-0.6c-0.9,0-1.8,0.4-2.1,1.4l0,0c-0.7,1.5,0,3.6,1.4,4.6 c1.4,1.1,3.1,0.7,3.8-0.8C743.7,585.5,743.1,583.4,741.6,582.3z" fill="#F5D402"/>
    <path d="M729,604.5c2.1-4.9,2.1-14.1,2.8-14.5c0.5-0.4,5.1-1.2,5.1-1.2s-4.1-0.7-6.4-1c-0.8-0.1-1.3-0.1-1.4,0 c-0.5,0.4,0.2,6,0.1,10.7c-0.2,4.5-1.4,5.6-2,7c-0.6,1.3-2.7,2.8-2.7,2.8c0.7,1,1.1,1.4,1.8,2.4C726,610.6,727.1,608.6,729,604.5z" fill="#F5D402"/>
    <path d="M740.1,596.5c0.2-1.1-1.9-6.5-1.9-6.5s-4.7,0.6-5.4,1.2c-0.7,0.7-0.4,8.5-2.9,14.1 c-2.1,4.7-3.1,6.4-3.1,6.4c1,0.7,1.6,1.1,2.6,1.9c0,0,0.6-1.9,2.7-6.6C734.6,601.2,739.9,597.5,740.1,596.5z" fill="#F5D402"/>
    <path d="M741.5,597L741.5,597c0.1,0.9-6.3,5.6-8.4,10.4c-1.8,4.1-2.6,6.5-2.6,6.5c1,0.3,1.5,0.4,2.5,0.7 c0,0-0.2-3.1,0.5-4.4c0.7-1.5,0.8-3.3,3.7-5.8c3.1-2.6,7.3-4.7,7.3-5.5c0-0.7-4.7-8.1-4.7-8.1S741.5,596.3,741.5,597z" fill="#F5D402"/>
    <path d="M727.3,614.4c-0.6-0.4-1.1-0.6-1.6-0.6c-0.8,0-1.4,0.6-1.7,1.3c-0.5,1-0.2,2.6-4,11 c-3.4,7.6-5.1,11.5-8.5,19.1c0,0-0.9,1.9,0.8,3.1s2.4-0.7,2.4-0.7c3.4-7.6,5.1-11.4,8.5-19.1c3.7-8.4,4.9-8.8,5.4-10 C729,617.2,728.9,615.6,727.3,614.4z" fill="#F5D402"/>
    <path d="M711.5,649.6c-0.8-0.6-1.4-0.8-2.1-0.8c-0.6,0-1.1,0.2-1.4,0.7c-0.5,1,0.3,2.8,1.8,3.8 c1.4,1.1,3,1.1,3.5,0.1C713.9,652.3,713.1,650.7,711.5,649.6z" fill="#F5D402"/>
    <path d="M709.3,654.8c-0.7-0.5-1.3-0.8-2-0.9c-1.1-0.2-2,0.1-2.3,1l0,0c-0.6,1.4,0.3,3.5,2.1,4.8 c1.7,1.3,3.6,1.3,4.2-0.1S711,656.1,709.3,654.8z" fill="#F5D402"/>
    <path d="M706.5,661c-0.8-0.6-1.5-0.8-2.1-0.8s-1.1,0.2-1.4,0.7c-0.5,1,0.3,2.8,1.8,3.8c1.4,1.1,3,1.1,3.5,0.1 C708.7,663.8,707.9,662.1,706.5,661z" fill="#F5D402"/>
    <path d="M704.2,666.1c-0.5-0.3-0.8-0.4-1.1-0.4c-0.9,0.1-1.4,1.1-1.4,1.1c-4.2,9.5-8.4,19.1-12.6,28.6 c-1,2.4-5.5,3.4-7.2,7.2c-1.7,4-0.5,8,1.8,9.8c2.2,1.7,5.6,1.1,7.3-2.7c1.7-3.9,0.2-9.5,1.2-11.8c4.2-9.5,8.4-19.1,12.7-28.6 C705,669.2,705.9,667.4,704.2,666.1z" fill="#F5D402"/>
    <path d="M682.4,715.2c-0.7-0.5-1.3-0.7-1.9-0.8c-1-0.1-1.9,0.4-2.4,1.3l0,0c-0.7,1.6,0.1,3.9,1.8,5.2 s3.6,1.1,4.3-0.5C685,718.8,684.1,716.5,682.4,715.2z" fill="#F5D402"/>
    <path d="M667.7,748.9c-0.6-0.5-1.2-0.7-1.8-0.8l0,0c-0.5-0.1-1,0-1.1,0.5c-0.4,0.8,0.4,2.3,1.6,3.3 c1.2,1,2.6,1.1,2.9,0.2C669.6,751.4,668.9,749.9,667.7,748.9z" fill="#F5D402"/>
    <path d="M665.7,753.5c-2.1-1.7-4.1-1.7-4.1-1.7l0,0c0,4.4,0,6.6,0,11.1c2.9-2.2,4.3-3.2,7.2-5.4 C668.8,757.4,667.8,755.1,665.7,753.5z" fill="#F5D402"/>
    <path d="M646,672.3c0.9-0.4,1.7-0.8,2.6-1.3c2.6-1.3,5.1-2.8,7.3-4.2c3.3-2.1,6.5-5.3,8-7.7 c0.8-1.2,1.4-2.4,1.8-3.8c0.4-1.3,0.6-2.7,0.6-4.6c0-2,0-3.1,0-5.1c0-46,0.1-92,0.1-138c0-0.5,0-0.8,0-1.4c0-1.9,0.6-3.7,1.5-5.2 c1.9-3.5,4.9-5.9,4.9-5.9c-26.3-3.9-52.5-8.3-78.6-13.3c-23.8-4.5-47.6-8.4-71.5-12c0,0,3,3.3,4.9,7.3c0.9,1.9,1.5,3.8,1.5,5.7 c0,0.5,0,0.8,0,1.4c-0.1,45.9-0.1,91.9-0.2,137.8c0,2.1,0,3.2,0,5.3c0,1.7,0.2,3.3,0.6,4.7c0.4,1.6,1,3,1.8,4.4 c1.5,2.9,4.7,6.9,8,10.1c2.1,2.1,4.6,4.2,7.2,6.4c0.9,0.7,1.7,1.4,2.6,2.2c4.8,3.9,10,7.9,15.3,11.8c1.2,0.9,2.5,1.8,3.7,2.7 c3.7,2.7,7.1,5.4,10.4,7.9c1.2,0.9,2.3,1.8,3.3,2.6c1.2,0.9,2.3,1.9,3.3,2.7c3.9,3.3,6.7,6.1,9.2,9.9c1.1,1.7,2.2,3.4,3.3,5.7 c3.8-5.7,7-8.1,12.6-10.7c1-0.4,2.1-1,3.3-1.5c1-0.5,2.1-0.9,3.4-1.4c3.2-1.3,6.7-2.7,10.3-4.2c1.2-0.5,2.4-1,3.7-1.5 C636,676.9,641.3,674.6,646,672.3z M597.5,690.7c-9.8-16.6-32.8-28.6-47.4-40c-7.1-5.3-16-13.5-17.6-22.7c0-20.9,0-41.8,0.1-62.7 l0,0l0,0l0,0c0-27.2,0.1-54.5,0.1-81.7c0-4.7-1.9-7.7-1.9-7.7c44.7,7,89,16,133.7,22.9c0,0-1.9,2.5-1.9,7.1c0,27.3,0,54.5,0,81.8 l0,0c0,20.9-0.1,41.8-0.1,62.7c0,3.1-2.8,10.4-17.6,17.2C631.2,673.7,608,678.5,597.5,690.7z" fill="#F5D402"/>
    <path d="M553.8,553.8c5.4,10,19.5,17.1,19.7,17.1l0,0l0,0c0.4-0.8,0.6-1.3,1-2.1c-15.4-8.9-23.1-26.6-23.3-43.8 c-0.2-20.2,16-24.7,24-39.6c1.2,13.7-7,26.8-7.8,40.4c-0.5,9.3,3.1,21.3,12.4,25.2c2.9,0.5,4,3.5,5.1,3.7c2.4,0.1,3.5-3.8,5.8-3.3 c2.2,0.4,3.8,5.3,6.7,5.8s4.5-3.7,6.7-3.3c2.4,0.4,3.5,4.7,5.9,5.5c1.1,0.2,2.3-2.3,5.2-1.8c0,0,12.5,1,12.4-20.9 c-0.1-14.7-9.1-28.5-7.8-43.2c7.4,17,23.9,27.6,24.1,47.8c0.2,14.7-7.6,32.4-23.4,35.9c0.4,1,0.6,1.5,1,2.5l0,0l0,0 c0.2-0.1,14.4-2.2,19.8-10.4c5.7,7.4,12.9,13.7,21.2,18.1l0,0l0,0l0,0c0-27.3,0-54.5,0-81.8c0-4.7,1.9-7.1,1.9-7.1 c-44.7-6.9-89-15.8-133.6-22.8c0,0,1.9,3.1,1.9,7.7c0,27.2-0.1,54.5-0.1,81.7l0,0C532.9,565.1,544.4,563.1,553.8,553.8z M583.1,497.1c4.3,3.5,6.4,5.2,10.6,8.7c1.5-5.7,2.3-8.5,3.8-14.2c1.5,6.3,2.3,9.4,3.9,15.6c4.2-1.9,6.4-2.9,10.7-4.8 c-2,5.3-3.1,8-5.1,13.3c4.5,3,6.7,4.4,11.2,7.4c-4.5,1.3-6.8,2-11.2,3.3c2,6.1,3,9.1,5.1,15.2c-4.3-3.5-6.4-5.2-10.7-8.8 c-1.6,5.7-2.3,8.5-3.9,14.2c-1.5-6.3-2.3-9.4-3.8-15.6c-4.2,1.9-6.3,2.9-10.6,4.8c2-5.3,3-8,5-13.3c-4.4-2.9-6.6-4.4-11.1-7.3 c4.5-1.3,6.7-2,11.1-3.3C586.2,506.2,585.1,503.2,583.1,497.1z" fill="#D10429"/>
    <path d="M662.5,650.3c0-20.9,0.1-41.8,0.1-62.7l0,0l0,0l0,0c0,0-12.1,5-21.2,12.2c-5-8-12.4-14.2-19.8-19.9 c2.2,5.7,3.4,8.6,5.6,14.3c0,0-9.5-1-14.6,3.7c-6.7,8.3-5.5,20.9-5.4,30.7c0.1,8.1,0.7,17.2,4,21.3c4.3,5.6,7.2,6.5,7.2,12.2 c0,4.8-2.8,5.2-7.2,7.5c-5.7,3-5.5,8.3-13.8,6.7c-8.2-1.6-8-6.9-13.7-11.9c-4.4-3.9-7.2-5.4-7.2-10.1c0-5.7,2.9-5.5,7.2-9.6 c3.1-3,3.9-11.7,4-19.9c0.1-10.8,0.7-23.2-5.4-32.7c-4.9-6.6-14.5-8.9-14.5-8.9c2.2-5,3.4-7.4,5.6-12.4l0,0l0,0l0,0l0,0 c0,0-15.6,6.3-19.8,13.2c-6.4-7-13.5-13.3-21.1-18.9c0,20.9,0,41.8-0.1,62.7c1.5,9.2,10.5,17.5,17.6,22.7 c14.6,11.4,37.6,23.5,47.4,40c10.5-12.2,33.5-17,47.5-23.2C659.8,660.4,662.5,653.4,662.5,650.3z M570.2,631.5 c2.8,3.5,3.1,9,0.8,12.2c-2.3,3.3-6.5,3-9.4-0.5c-0.4-0.5-0.8-1.1-1.1-1.7c-0.1,0.7-0.2,1.3-0.4,1.9c-1.4,4.2-5.3,5.7-8.7,3.4 s-5.2-7.7-3.7-11.9c0.2-0.6,0.5-1.2,0.8-1.7c-0.5,0-1.1,0-1.7-0.2c-3.8-1-6.6-5.4-6.4-10.2c0.2-4.4,3.1-7.4,6.6-7 c0.2,0,0.4,0.1,0.7,0.1c0.6,0.2,1.2,0.4,1.7,0.7c-0.3-0.7-0.5-1.4-0.6-2c-0.9-4.7,1.3-9.1,4.9-9.6l0,0c0.4-0.1,0.9,0,1.4,0 c3.1,0.3,6,3.5,6.8,7.6c0.1,0.8,0.2,1.4,0.2,2.1c0.4-0.4,0.8-0.8,1.3-1.1c1-0.7,2-0.8,3.1-0.7c2.3,0.2,4.7,2,5.9,5.1 c1.9,4.4,1,9.5-2.1,11.5c-0.5,0.3-1,0.5-1.5,0.7C569.3,630.6,569.8,631,570.2,631.5z M579.3,591.8c2.2,3.3,3.3,4.9,5.4,8.2 c-2.2,2.5-3.2,3.7-5.4,6.2c-2.2-3.3-3.3-4.9-5.5-8.2C576,595.6,577.1,594.3,579.3,591.8z M584.3,609.8c3.7,3.7,2.9,21.5,2.2,26.3 c-1.5,10.1-9.2,11.7-9.2,11.7s0.7-4.7,0.7-13.9l0,0c-0.5-9.6-1-19.2-3.7-28.5C578.4,607.1,580.4,608,584.3,609.8z M617.2,641.2 c0,9.1,0.7,14.1,0.7,14.1s-7.7-4.4-9.2-15c-0.7-5-1.5-23.1,2.2-25.5c4-0.3,6-0.5,10.1-0.8C619.8,617.4,617.2,628,617.2,641.2z M615.8,613.2c-2.2-3.3-3.3-4.9-5.4-8.2c2.2-2.5,3.3-3.7,5.4-6.2c2.2,3.3,3.3,4.9,5.5,8.2C619.1,609.4,618,610.7,615.8,613.2z M633.4,654.5c0.2,3,1,5.8,2.2,8.5c-6.8-3.2-12.3-11.5-13-20.4c-0.8-10.6,5.3-17.9,13.8-16.5c6.2,1,12,6.3,15,13.2 c-1.3-0.6-2.6-1.1-4-1.3C638.8,636.5,632.5,643.9,633.4,654.5z" fill="#0B45BB"/>
    <path d="M532.6,565.2L532.6,565.2L532.6,565.2z" fill="#0B45BB"/>
    <path d="M621.6,579.8L621.6,579.8L621.6,579.8L621.6,579.8L621.6,579.8z" fill="#0B45BB"/>
    <path d="M589,654.1c-4.5-0.8-7.4-0.1-7.4,1.8c0,1.8,2.9,3.5,7.4,4.4c1.2,0.2,2.5-0.4,2.5-2.6C591.5,655.6,590.2,654.3,589,654.1z"/>
    <path d="M603.5,660c0,2.1,1.4,3.3,2.5,3.5c4.5,0.8,7.4,0.2,7.4-1.6s-2.9-3.6-7.4-4.5C604.9,657.1,603.5,657.9,603.5,660z"/>
    <path d="M621.6,579.8L621.6,579.8c-0.4-1-0.6-1.5-1-2.5c15.9-3.5,23.6-21.3,23.4-35.9c-0.2-20.2-16.6-30.8-24.1-47.8 c-1.3,14.7,7.7,28.5,7.8,43.2c0.1,21.9-12.4,20.9-12.4,20.9c-2.9-0.5-4,2-5.2,1.8c-2.4-0.8-3.5-5-5.9-5.5c-2.2-0.4-3.9,3.8-6.7,3.3 c-2.9-0.5-4.5-5.4-6.7-5.8c-2.4-0.4-3.4,3.4-5.8,3.3c-1.1-0.2-2.2-3.2-5.1-3.7c-9.2-4-12.9-15.9-12.4-25.2 c0.8-13.6,9-26.7,7.8-40.4c-8,14.9-24.2,19.4-24,39.6c0.1,17.2,7.8,34.9,23.3,43.8c-0.4,0.8-0.6,1.3-1,2.1 c-2.2,4.9-3.3,7.4-5.6,12.4c0,0,9.5,2.3,14.5,8.9c6.1,9.5,5.5,22,5.4,32.7c-0.1,8.1-0.7,16.9-4,19.9c-4.2,4.1-7.2,3.9-7.2,9.6 c0,4.8,2.8,6.2,7.2,10.1c5.7,5.1,5.4,10.3,13.7,11.9c8.2,1.6,8.1-3.8,13.8-6.7c4.5-2.3,7.2-2.8,7.2-7.5c0-5.7-2.9-6.6-7.2-12.2 c-3.2-4.2-3.9-13.2-4-21.3c-0.1-9.8-1.2-22.5,5.4-30.7c5-4.8,14.6-3.7,14.6-3.7C625,588.4,623.8,585.5,621.6,579.8L621.6,579.8 L621.6,579.8z M622.1,590.8c0,0-7.2,0.2-11.6,4c-6.9,8.9-5.9,22.8-5.8,33.3c0.1,13.2,0.3,19.2,4,23.4c3.8,4.6,6.7,5.9,6.7,9.8 c0,3.4-3,4.2-6.9,5.8c-4.4,1.7-4.9,6.1-11,4.9c-6.2-1.2-6.6-5.7-11-9.1c-3.8-3-6.9-4.9-6.8-8.3c0-3.9,2.9-4.2,6.7-7.4 c3.6-3,3.8-8.7,3.9-22c0.1-11.6,0.6-25.2-5.8-35.5c-4.3-5.5-11.5-8.2-11.5-8.2c2.1-5.8,3.1-8.7,5.2-14.5 c-14.8-8.6-23.1-24.7-23.4-41.6c-0.2-12.4,8-24,17.1-31.6c-1.9,10.7-7.2,20.2-7.8,31.3l0,0c0.1,11.2,3.8,26.4,15.7,29.1 c1.6,0.4,3.6,3.7,5.1,3.9c2.6,0.5,4.3-3.1,5.8-2.8c2,0.4,3.3,4.8,6.7,5.5c3.4,0.6,4.8-3.3,6.7-2.9c1.6,0.3,3.3,4.5,5.9,4.9 c1.6,0.3,3.5-2.3,5.2-2.1c12.3,2,16.1-14.4,15.8-23.6c-0.4-11.8-5.9-22.4-7.8-34c8.9,10.2,16.8,23.7,17.1,37.5 c0.3,15.1-8,30.4-23.6,33.5C619,580.9,620,584.2,622.1,590.8z"/>
    <path d="M588.2,522.9c-2,5.3-3,8-5,13.3c4.3-1.9,6.4-2.9,10.6-4.8c1.5,6.3,2.3,9.4,3.8,15.6c1.5-5.7,2.3-8.5,3.9-14.2 c4.2,3.5,6.4,5.3,10.7,8.8c-2-6.1-3.1-9.1-5.1-15.2c4.5-1.3,6.7-1.9,11.2-3.3c-4.5-2.9-6.8-4.4-11.2-7.4c2-5.3,3-8,5.1-13.3 c-4.3,1.9-6.4,2.9-10.7,4.8c-1.6-6.3-2.3-9.4-3.9-15.6c-1.5,5.7-2.3,8.5-3.8,14.2c-4.2-3.5-6.3-5.2-10.6-8.7c2,6.1,3,9.1,5,15.2 c-4.4,1.3-6.6,2-11.1,3.3C581.5,518.5,583.7,520,588.2,522.9z M588.4,505.1c2.7,2.3,4,3.4,6.7,5.6c1-3.6,1.5-5.4,2.5-9l0,0 c1,4,1.5,6,2.5,10c2.6-1.3,4-1.9,6.7-3.1c-1.3,3.4-1.9,5.1-3.2,8.5c2.8,1.9,4.2,2.8,7,4.7c-2.8,0.8-4.2,1.2-7,2.1 c1.3,3.9,1.9,5.8,3.2,9.7c-2.7-2.2-4.1-3.4-6.7-5.6c-1,3.6-1.5,5.4-2.5,9c-1-4-1.5-5.9-2.5-9.9c-2.6,1.2-4,1.8-6.7,3.1 c1.3-3.4,1.9-5.1,3.2-8.5c-2.8-1.9-4.2-2.8-7-4.7c2.8-0.8,4.2-1.3,7-2.1C590.3,511,589.6,509,588.4,505.1z"/>
    <path d="M573.5,570.9L573.5,570.9L573.5,570.9c-0.2-0.1-14.3-7.1-19.7-17.2c-9.4,9.2-20.9,11.3-21.2,11.3l0,0l0,0l0,0 c7.6,5.6,14.8,11.9,21.1,18.9C558,577.2,573.5,570.9,573.5,570.9z M553.4,579.7c-5.4-5.2-8.1-7.9-13.6-13.1c0,0,8.8-2.4,13.9-8.2 c4.8,7.8,12.3,11.8,12.3,11.8l0,0c-4.8,3.8-7.2,5.7-12.1,9.6c-0.1,0.1-0.1,0.2-0.1,0.3C553.6,579.9,553.5,579.8,553.4,579.7z"/>
    <path d="M621.6,579.8L621.6,579.8L621.6,579.8L621.6,579.8c7.4,5.7,14.8,12,19.8,19.9c9-7.2,21.2-12.2,21.2-12.2l0,0 c-8.3-4.4-15.5-10.6-21.2-18.1C636,577.6,621.9,579.7,621.6,579.8z M655.5,586.7c0,0-9.1,4.3-13.7,8.7c-0.1,0.1-0.2,0.1-0.3,0.2 c-0.1-0.1-0.1-0.2-0.1-0.3c-4.3-7-12.2-13.7-12.2-13.7s7.6-1.4,12.4-7.6C646.8,581.5,655.5,586.7,655.5,586.7z"/>
    <path d="M584.7,600c-2.2-3.3-3.2-4.9-5.4-8.2c-2.2,2.5-3.3,3.7-5.5,6.3c2.2,3.3,3.3,4.9,5.5,8.2C581.5,603.8,582.6,602.5,584.7,600 z M579.3,595.3c1.1,1.7,1.7,2.6,2.8,4.3c-1.1,1.3-1.7,2-2.8,3.3c-1.2-1.7-1.7-2.6-2.9-4.4C577.6,597.2,578.2,596.6,579.3,595.3z"/>
    <path d="M610.3,604.8c2.2,3.3,3.3,4.9,5.4,8.2c2.2-2.5,3.3-3.7,5.5-6.2c-2.2-3.3-3.3-4.9-5.5-8.2 C613.6,601.1,612.5,602.3,610.3,604.8z M615.8,609.7c-1.1-1.7-1.7-2.6-2.8-4.4c1.1-1.3,1.7-1.9,2.8-3.2c1.2,1.7,1.7,2.6,2.9,4.3 C617.5,607.7,617,608.3,615.8,609.7z"/>
    <path d="M577.9,633.9c0,9.1-0.7,13.9-0.7,13.9s7.7-1.6,9.2-11.7c0.7-4.7,1.5-22.5-2.2-26.3c-4-1.8-6-2.7-10.1-4.5 C576.9,614.7,577.4,624.3,577.9,633.9L577.9,633.9z M577.8,610.1c2.2,1,3.2,1.5,5.4,2.4c2,4,1.6,9.9,1.6,18.1 c0,8.3-4.7,10.6-4.7,10.6C580.3,630.8,579.5,620.4,577.8,610.1z"/>
    <path d="M608.6,640.3c1.5,10.6,9.2,15,9.2,15s-0.7-5-0.7-14.1c0-13.3,2.6-23.9,3.7-27.2c-4.1,0.3-6.1,0.5-10.1,0.8 C607,617.2,607.9,635.3,608.6,640.3z M617.3,617.5L617.3,617.5c-1.8,10-2.4,20.1-2.4,30.3c0,0-4.7-4.1-4.7-12.3s-0.3-14.2,1.7-17.5 C614.1,617.7,615.2,617.6,617.3,617.5z"/>
    <path d="M572.4,618c-1.3-3-3.6-4.8-5.9-5.1c-1.1-0.1-2.1,0.2-3.1,0.7c-0.5,0.3-0.9,0.7-1.3,1.1c0-0.7-0.1-1.4-0.2-2.1 c-0.8-4.2-3.7-7.3-6.8-7.6c-0.4-0.1-0.9-0.1-1.4,0l0,0c-3.6,0.6-5.8,4.9-4.9,9.6c0.1,0.8,0.4,1.4,0.6,2c-0.5-0.3-1.1-0.5-1.7-0.7 c-0.2,0-0.5-0.1-0.7-0.1c-3.5-0.4-6.3,2.6-6.6,7c-0.3,4.7,2.6,9.2,6.4,10.2c0.6,0.2,1.1,0.2,1.7,0.2c-0.3,0.5-0.6,1.1-0.8,1.7 c-1.4,4.2,0.3,9.6,3.7,11.9c3.4,2.3,7.4,0.8,8.7-3.4c0.2-0.6,0.4-1.3,0.4-1.9c0.3,0.6,0.7,1.2,1.1,1.7c2.8,3.5,7,3.8,9.4,0.5 c2.3-3.3,2-8.7-0.8-12.2c-0.4-0.5-0.9-1-1.3-1.3c0.5-0.1,1-0.4,1.5-0.7C573.3,627.5,574.3,622.4,572.4,618z M554.4,608.7 c0.4,0,0.7-0.1,1.1,0c2.4,0.3,4.6,2.7,5.3,5.9l0,0c0.1,0.8,0.1,1.5,0.1,2.2c-0.1,0.6-0.1,1.1-0.4,1.6c-0.8-0.5-1.7-0.8-2.6-1 c-2.3-0.4-4.3,0.6-5.6,2.4c-0.4-0.5-0.7-1-0.9-1.5c-0.3-0.6-0.6-1.4-0.7-2C549.9,612.5,551.6,609.2,554.4,608.7z M563,628.2 c0,3.6-2.3,6.1-5,5.6c-2.8-0.5-5.1-3.8-5.1-7.3c0-3.6,2.3-6.1,5.1-5.6C560.7,621.3,563,624.6,563,628.2z M548.2,631.6 c-2.9-0.7-5.1-4.3-4.9-7.9c0-0.5,0.1-0.9,0.2-1.3c0.7-2.9,2.9-4.6,5.4-4l0,0c0.6,0.2,1.2,0.5,1.7,0.8c0.4,0.3,0.8,0.7,1.1,1.1 c-0.5,0.7-0.9,1.8-1.2,2.8c-0.7,2.6-0.4,5.5,0.7,8.1c-0.4,0.2-0.9,0.4-1.4,0.5C549.4,631.7,548.9,631.7,548.2,631.6z M559.3,641 c-1.1,3.2-4.1,4.3-6.8,2.5c-0.4-0.2-0.6-0.5-0.9-0.8c-2-2.1-2.9-5.5-1.9-8.4l0,0c0.2-0.7,0.6-1.2,0.9-1.7c0.3-0.4,0.6-0.7,1.1-0.9 c0.5,1,1.1,1.9,1.9,2.7c1.9,2,4.1,2.9,6.1,2.7c0.1,0.7,0.1,1.2,0.1,1.9C559.6,639.7,559.5,640.4,559.3,641z M568.9,641.1 c-0.2,0.3-0.5,0.6-0.8,0.8c-1.9,1.6-4.6,1.1-6.5-1.2l0,0c-0.4-0.5-0.8-1.2-1.1-1.9c-0.2-0.6-0.4-1.1-0.5-1.7 c0.9-0.1,1.6-0.5,2.3-1.1c1.8-1.4,2.8-3.7,3-6.4c0.5,0.2,0.9,0.3,1.4,0.7s1,0.7,1.5,1.4C570.4,634.3,570.7,638.6,568.9,641.1z M568.4,628.5L568.4,628.5c-0.5,0.3-1.1,0.5-1.5,0.6c-0.4,0-0.9,0-1.3-0.1c0-1.1-0.1-2.2-0.3-3.4c-0.7-2.9-2.3-5.2-4.2-6.6 c0.2-0.5,0.4-1,0.7-1.4c0.4-0.5,0.8-1,1.2-1.3c2.4-1.5,5.6,0,7.1,3.3c0.2,0.4,0.3,0.9,0.5,1.3C571.3,623.9,570.5,627.1,568.4,628.5 z"/>
    <path d="M647.4,637.9c1.4,0.2,2.7,0.6,4,1.3c-3-6.8-8.8-12.2-15-13.2c-8.5-1.4-14.7,6-13.8,16.5c0.7,8.9,6.1,17.2,13,20.4 c-1.1-2.7-1.9-5.5-2.2-8.5C632.5,643.9,638.8,636.5,647.4,637.9z M630.4,654.3c-2.6-3.3-4.6-7.5-4.9-11.7 c-0.7-8.4,3.9-13.9,10.9-12.7c2.7,0.5,5.3,2,7.5,4.1C635.5,634.6,629.6,643.1,630.4,654.3z"/>
    <path d="M616.8,574.4c15.6-3.2,23.9-18.4,23.6-33.5c-0.3-13.8-8.2-27.3-17.1-37.5c1.8,11.6,7.4,22.2,7.8,34 c0.3,9.1-3.5,25.6-15.8,23.6c-1.7-0.3-3.6,2.4-5.2,2.1c-2.6-0.5-4.3-4.6-5.9-4.9c-2-0.4-3.4,3.6-6.7,2.9c-3.4-0.6-4.7-5.1-6.7-5.5 c-1.6-0.3-3.2,3.2-5.8,2.8c-1.6-0.3-3.5-3.6-5.1-3.9c-11.9-2.7-15.6-17.9-15.7-29.1l0,0c0.6-11.1,5.8-20.6,7.8-31.3 c-9.1,7.7-17.3,19.3-17.1,31.7c0.3,16.9,8.6,33.1,23.4,41.6c-2.1,5.8-3.1,8.7-5.2,14.5c0,0,7.2,2.7,11.5,8.2 c6.4,10.3,5.9,23.9,5.8,35.5c-0.1,13.3-0.3,19.1-3.9,22c-3.8,3.1-6.7,3.4-6.7,7.4c0,3.4,3,5.3,6.9,8.3c4.4,3.4,4.8,7.9,11,9.1 s6.6-3.2,11-4.9c3.8-1.6,6.9-2.4,6.9-5.8c0-3.9-2.9-5.3-6.7-9.8c-3.6-4.3-3.8-10.2-4-23.4c-0.1-10.6-1.1-24.4,5.8-33.3 c4.3-3.9,11.6-4,11.6-4C620,584.2,618.9,580.9,616.8,574.4z M589,660.3c-4.5-0.8-7.4-2.5-7.4-4.4c0-1.8,2.9-2.6,7.4-1.8 c1.2,0.2,2.5,1.5,2.5,3.6C591.5,659.8,590.1,660.5,589,660.3z M606,657.4c4.5,0.8,7.4,2.7,7.4,4.5s-2.9,2.5-7.4,1.6 c-1.2-0.2-2.5-1.4-2.5-3.5S604.9,657.1,606,657.4z" fill="#FFD200"/>
    <path d="M591.5,521.6c-1.3,3.4-1.9,5.1-3.2,8.5c2.7-1.2,4-1.8,6.7-3.1c1,4,1.5,5.9,2.5,9.9c1-3.6,1.5-5.4,2.5-8.9 c2.6,2.2,4,3.3,6.7,5.6c-1.3-3.9-1.9-5.8-3.2-9.7c2.8-0.8,4.2-1.2,7-2.1c-2.8-1.9-4.2-2.8-7-4.7c1.3-3.4,1.9-5.1,3.2-8.5 c-2.7,1.3-4.1,1.9-6.7,3.1c-1-4-1.5-6-2.5-10l0,0c-1,3.6-1.5,5.4-2.5,9c-2.6-2.3-4-3.4-6.7-5.6c1.3,3.9,1.9,5.8,3.2,9.7 c-2.8,0.8-4.2,1.3-7,2.1C587.4,518.8,588.8,519.7,591.5,521.6z" fill="#FFD200"/>
    <path d="M565.9,570.2L565.9,570.2c0,0-7.6-3.9-12.3-11.8c-5.1,5.7-13.9,8.2-13.9,8.2c5.5,5.2,8.2,7.8,13.6,13.1 c0.1,0.1,0.2,0.2,0.3,0.3c0.1-0.1,0.1-0.2,0.1-0.3C558.6,575.9,561.1,574,565.9,570.2z" fill="#FFD200"/>
    <path d="M629.2,581.7c0,0,7.9,6.6,12.2,13.7c0.1,0.1,0.1,0.2,0.1,0.3c0.1-0.1,0.2-0.1,0.3-0.2 c4.5-4.4,13.7-8.7,13.7-8.7s-8.8-5.2-13.9-12.6C636.8,580.3,629.2,581.7,629.2,581.7z" fill="#FFD200"/>
    <path d="M582.1,599.5c-1.1-1.7-1.7-2.6-2.8-4.3c-1.2,1.3-1.7,1.9-2.9,3.2c1.2,1.7,1.7,2.6,2.9,4.4 C580.4,601.5,581,600.9,582.1,599.5z" fill="#FFD200"/>
    <path d="M613,605.3c1.1,1.7,1.7,2.6,2.8,4.4c1.2-1.3,1.7-2,2.9-3.3c-1.2-1.7-1.8-2.6-2.9-4.3 C614.7,603.4,614.1,604,613,605.3z" fill="#FFD200"/>
    <path d="M584.8,630.7c0-8.2,0.3-14.1-1.6-18.1c-2.1-1-3.2-1.5-5.4-2.4c1.7,10.3,2.5,20.7,2.3,31.1 C580.1,641.3,584.8,638.9,584.8,630.7z" fill="#FFD200"/>
    <path d="M610.3,635.5c0,8.3,4.7,12.3,4.7,12.3c0-10.2,0.6-20.3,2.4-30.3l0,0c-2.2,0.2-3.2,0.3-5.4,0.5 C609.9,621.2,610.3,627.2,610.3,635.5z" fill="#FFD200"/>
    <path d="M551.3,618.3c0.3,0.6,0.6,1.1,0.9,1.5c1.4-1.8,3.4-2.7,5.6-2.4c0.9,0.2,1.8,0.5,2.6,1 c0.1-0.5,0.3-1,0.4-1.6c0.1-0.7,0.1-1.5-0.1-2.2l0,0c-0.6-3.2-2.8-5.7-5.3-5.9c-0.4-0.1-0.7,0-1.1,0c-2.8,0.5-4.5,3.7-3.8,7.5 C550.7,617,551,617.7,551.3,618.3z" fill="#FFD200"/>
    <path d="M570.5,620.9c-0.1-0.5-0.3-0.9-0.5-1.3c-1.5-3.4-4.7-4.9-7.1-3.3c-0.5,0.3-0.9,0.8-1.2,1.3 c-0.3,0.4-0.6,0.9-0.7,1.4c1.9,1.4,3.5,3.7,4.2,6.6c0.3,1.1,0.4,2.3,0.3,3.4c0.4,0.1,0.9,0.2,1.3,0.1c0.6-0.1,1.1-0.2,1.5-0.6l0,0 C570.5,627.1,571.3,623.9,570.5,620.9z" fill="#FFD200"/>
    <path d="M568.2,631.6c-0.4-0.5-0.9-1-1.5-1.4c-0.4-0.3-0.9-0.5-1.4-0.7c-0.2,2.6-1.3,5-3,6.4 c-0.7,0.6-1.5,0.9-2.3,1.1c0.1,0.6,0.3,1.1,0.5,1.7c0.3,0.7,0.6,1.3,1.1,1.9l0,0c1.9,2.4,4.7,2.9,6.5,1.2c0.3-0.2,0.6-0.5,0.8-0.8 C570.7,638.6,570.4,634.3,568.2,631.6z" fill="#FFD200"/>
    <path d="M553.4,634.4c-0.7-0.9-1.4-1.7-1.9-2.7c-0.4,0.2-0.7,0.5-1.1,0.9c-0.4,0.5-0.7,1.1-0.9,1.7l0,0 c-0.9,2.9-0.1,6.3,1.9,8.4c0.3,0.3,0.6,0.6,0.9,0.8c2.7,1.8,5.7,0.7,6.8-2.5c0.2-0.7,0.3-1.3,0.4-2c0-0.6,0-1.3-0.1-1.9 C557.5,637.3,555.3,636.5,553.4,634.4z" fill="#FFD200"/>
    <path d="M551.3,631.1c-1.1-2.5-1.4-5.4-0.7-8.1c0.3-1.1,0.7-2,1.2-2.8c-0.4-0.4-0.7-0.8-1.1-1.1 c-0.5-0.4-1.1-0.6-1.7-0.8l0,0c-2.5-0.6-4.8,1.1-5.4,4c-0.1,0.4-0.1,0.9-0.2,1.3c-0.2,3.6,2,7.2,4.9,7.9c0.6,0.2,1.2,0.1,1.7,0 C550.5,631.5,550.9,631.4,551.3,631.1z" fill="#FFD200"/>
    <path d="M557.9,620.8c2.8,0.5,5,3.8,5,7.3s-2.3,6.1-5,5.6c-2.8-0.5-5.1-3.8-5.1-7.3 C552.8,622.9,555.1,620.4,557.9,620.8z" fill="#FFD200"/>
    <path d="M636.4,629.9c-7-1.2-11.6,4.3-10.9,12.7c0.3,4.3,2.2,8.4,4.9,11.7c-0.8-11.2,5.1-19.7,13.5-20.4 C641.7,631.8,639.1,630.4,636.4,629.9z" fill="#FFD200"/>
  </g>
  <g opacity="0.3">
    <path d="M259.7,185c127.9,0,223.7,15.9,325.2,32.8C688.7,235,796.1,252.9,941,252.9c44.4,0,90-6.1,135.4-18.1 c30.5-8.1,61.9-19,93.6-32.7v757.2c-36.8,17.4-73.5,30.8-109.2,40c-40.5,10.4-81.1,15.7-120.8,15.7c-140.1,0-243.6-16.8-343.7-33 c-98.9-16.1-201.3-32.7-336.6-32.7c-45.7,0-91.1,5.3-135.1,15.8C93,972.6,61.3,982.9,30,996V241.6c37.1-17.6,73.8-31.2,109.2-40.5 C179.9,190.4,220.4,185,259.7,185 M1200,155c-89.2,45-174.4,67.9-259,67.9c-280.7,0-416.7-67.9-681.3-67.9 C175.2,155,89.1,178,0,222.9c0,242.4,0,577.6,0,820c89-44.9,175.2-63.6,259.7-63.6c268.9,0,398.5,65.7,680.3,65.7 c84.6,0,170.8-22,260-66.9C1200,735.7,1200,397.4,1200,155L1200,155z" fill="#212121"/>
  </g>
</svg>