<svg viewBox="0 0 1200 890" xmlns="http://www.w3.org/2000/svg" xmlns:xlink="http://www.w3.org/1999/xlink">
  <g>
    <path d="M515.4,350.4c0-109.8,0-219.5,0-329.3C422.1,7.8,325.3-5.2,230.8,1.3C149.4,6.9,72.9,32.2,0,67.9 C0,177.3,0,286.6,0,396c73.2-35.7,149.4-60.1,231-65.2C325.5,324.9,421.9,337.2,515.4,350.4z M228.7,85.6 c8.8-0.6,17.7-1.6,26.5-3.1c-3.2,19.7-5.5,39.2-6.7,59.1c19.5-1.8,38.8-3.9,58.2-6.7c-1.2,9.2-1.8,18.9-1.8,28.1 c0,9.3,0.5,19,1.8,28.2c-19.3-3.9-38.4-6.5-58.1-7.3c1.2,19.8,3.3,39.2,6.7,58.7c-8.8-0.9-17.5-1.2-26.4-0.6 c-8.9,0.6-17.4,1.9-25.7,4.1c3-19.8,5.1-39.5,6.3-59.6c-17.9,2.7-35.5,8-52.2,15c1-9.4,1.5-19,1.5-28.4 c-0.1-9.6-0.5-18.8-1.6-27.8c17.5,0,34.9-0.4,52.4-1.1c-1.1-19.6-3.2-38.8-6.4-58.1C211.3,86.5,219.9,86.2,228.7,85.6z" fill="#FFFFFF"/>
    <path d="M1200,0c-73.2,36.1-149.2,61.7-231.1,66.7c-94.1,5.8-190-5.5-283-18.1c-0.2,109.7-0.4,219.4-0.5,329.1 c93.2,12.5,189.4,23.7,283.6,17.9c81.8-5,157.9-30.4,231.1-66.3C1200,219.5,1200,109.7,1200,0z M971.1,306.8 c-8.7,0.6-17.6,1.5-26.3,2.9c3.2-19.6,5.5-39.1,6.6-59c-19.4,1.7-38.7,3.9-58,6.7c1.2-9.2,1.8-18.8,1.8-28s-0.5-18.9-1.8-28.1 c19.3,3.8,38.3,6.4,58,7.2c-1.2-19.7-3.3-39.1-6.6-58.6c8.7,0.9,17.5,1.2,26.3,0.6c8.8-0.6,17.3-1.9,25.5-4 c-3,19.8-5.1,39.5-6.3,59.5c17.9-3.3,34.6-8.1,51.6-14.7c-1,9.4-1.5,19-1.5,28.4c0,9.6,0.5,18.8,1.5,27.8 c-17.2-0.1-34.4,0.1-51.6,0.8c1.1,19.6,3.1,38.8,6.3,58.1C988.2,306.2,979.8,306.2,971.1,306.8z" fill="#FFFFFF"/>
    <path d="M685.1,542.1c-0.2,109.7-0.4,219.4-0.5,329.1c93.5,12.4,189.9,23.4,284.4,17.6c81.6-5,157.8-30.2,231-65.7 c0-109.7,0-219.5,0-329.2c-73.2,35.8-149.3,61.1-231,66.1C874.7,565.7,778.4,554.6,685.1,542.1z M971.1,804.6 c-8.7,0.6-17.6,1.5-26.3,2.9c3.2-19.6,5.5-39.1,6.6-59c-19.4,1.7-38.8,3.9-58.1,6.8c1.2-9.2,1.8-18.8,1.8-28s-0.5-18.9-1.8-28.1 c19.3,3.8,38.4,6.4,58.1,7.2c-1.2-19.7-3.3-39.1-6.6-58.6c8.8,0.9,17.5,1.2,26.3,0.6c8.8-0.6,17.3-1.9,25.5-4 c-3,19.8-5.1,39.5-6.3,59.4c18-3.3,34.7-8.1,51.7-14.7c-1,9.4-1.5,19-1.5,28.4c0,9.6,0.5,18.8,1.5,27.8 c-17.3-0.2-34.5,0.1-51.7,0.7c1.1,19.6,3.2,38.8,6.3,58.1C988.3,803.8,979.8,804,971.1,804.6z" fill="#FFFFFF"/>
    <path d="M515.4,515.1c-93.5-13.1-189.7-24.8-284.3-19.4c-81.7,4.7-157.7,28.5-231.1,64c0,109.4,0,218.8,0,328.1 c73.6-35.6,149.3-58.5,231.2-62.6c94.7-4.8,190.5,6.2,284.1,19.1C515.4,734.6,515.4,624.8,515.4,515.1z M229.1,741.2 c-8.6,0.5-17.1,1.6-25.3,3.6c3-19.8,5-39.5,6.1-59.4c-17.8,3-34.3,7.5-51.2,13.7c1-9.4,1.5-19,1.4-28.3 c-0.1-9.6-0.5-18.8-1.6-27.8c17.1,0.5,34.2,0.5,51.3,0.1c-1.1-19.6-3.2-38.9-6.3-58.3c8.2,0.3,16.6,0.3,25.4-0.2 s17.5-1.4,26.3-2.8c-3.2,19.6-5.4,39.2-6.6,59.1c19.4-1.6,38.8-3.8,58.1-6.6c-1.2,9.2-1.8,18.9-1.8,28.1c0,9.3,0.5,19,1.8,28.2 c-19.3-3.8-38.4-6.4-58.1-7.4c1.2,19.8,3.3,39.2,6.6,58.8C246.5,741,237.8,740.7,229.1,741.2z" fill="#FFFFFF"/>
    <path d="M685.4,377.6c0.2-109.7,0.4-219.4,0.5-329.1c-57-8.1-113.5-19-170.5-27.5c0,109.8,0,219.5,0,329.3 C422,337.1,325.6,324.9,231,330.8C149.4,336,73.2,360.3,0,396c0,54.6,0,109.1,0,163.7c73.3-35.5,149.4-59.3,231.1-64 c94.6-5.4,190.8,6.3,284.3,19.4c0,109.8,0,219.5,0,329.3c56.5,8.2,112.6,19,169.2,26.8c0.2-109.7,0.4-219.4,0.5-329.1 c93.3,12.5,189.5,23.6,283.8,17.8c81.7-5,157.9-30.3,231-66.1c0-54.9,0-109.7,0-164.6c-73.2,35.9-149.3,61.3-231.1,66.3 C874.7,401.4,778.6,390.2,685.4,377.6z" fill="#FF0000"/>
    <path d="M209.5,186.7c-1.1,20-3.2,39.7-6.3,59.6c8.3-2,16.8-3.5,25.7-4.1s17.7-0.4,26.4,0.6 c-3.2-19.5-5.5-39-6.7-58.7c-6.6,0-13.2,0-19.8,0.5C222.2,184.9,215.8,185.7,209.5,186.7z" fill="#FF0000"/>
    <path d="M228.7,143.3c6.6-0.5,13.2-1,19.8-1.6c1.2-19.9,3.3-39.5,6.7-59.1c-8.8,1.3-17.6,2.4-26.5,3.1 c-8.9,0.6-17.5,0.9-25.8,0.7c3.1,19.3,5.3,38.6,6.4,58.1C215.8,144.1,222.2,143.7,228.7,143.3z" fill="#FF0000"/>
    <path d="M209.4,144.5c-17.5,0.8-34.9,1.2-52.4,1.1c1,9,1.6,18.2,1.6,27.8c0.1,9.4-0.4,19-1.5,28.4 c16.7-6.9,34.3-12.3,52.2-15c6.4-0.9,12.8-1.8,19.4-2.2c6.6-0.5,13.2-0.7,19.8-0.5c19.8,0.8,38.8,3.4,58.2,7.3 c-1.2-9.3-1.8-18.9-1.8-28.2c0-9.2,0.5-18.9,1.8-28.1c-19.4,2.7-38.7,4.9-58.2,6.7c-6.6,0.5-13.2,1.1-19.8,1.6 C222.2,143.8,215.8,144.1,209.4,144.5z" fill="#FF0000"/>
    <path d="M990.2,703.8c1.1-20,3.2-39.7,6.3-59.4c-8.2,2-16.7,3.4-25.5,4s-17.6,0.4-26.3-0.6 c3.2,19.5,5.5,38.9,6.6,58.6c6.6,0.1,13.1,0,19.7-0.4S983.9,704.7,990.2,703.8z" fill="#FF0000"/>
    <path d="M971.1,747c-6.6,0.4-13.1,0.9-19.7,1.5c-1.2,19.9-3.3,39.4-6.6,59c8.8-1.3,17.5-2.3,26.3-2.9 c8.8-0.6,17.3-0.8,25.5-0.5c-3.1-19.3-5.2-38.6-6.3-58.1C983.9,746.2,977.6,746.6,971.1,747z" fill="#FF0000"/>
    <path d="M990.2,745.9c17.3-0.7,34.5-0.9,51.7-0.7c-0.9-9-1.5-18.2-1.5-27.8c0-9.4,0.4-19,1.5-28.4 c-17.1,6.6-33.8,11.3-51.7,14.7c-6.3,0.9-12.7,1.7-19.2,2.1s-13.1,0.6-19.7,0.4c-19.7-0.8-38.8-3.4-58.1-7.2 c1.2,9.2,1.8,18.9,1.8,28.1c0,9.2-0.5,18.9-1.8,28c19.3-2.8,38.7-5,58.1-6.7c6.6-0.5,13.1-1.1,19.7-1.5 C977.6,746.5,983.9,746.2,990.2,745.9z" fill="#FF0000"/>
    <path d="M990.2,248.2c-6.3,0.4-12.6,0.6-19.2,1c-6.6,0.4-13.1,0.9-19.7,1.5c-1.2,19.8-3.3,39.3-6.6,59 c8.8-1.3,17.5-2.3,26.3-2.9s17.3-0.8,25.5-0.5C993.4,287,991.3,267.8,990.2,248.2z" fill="#FF0000"/>
    <path d="M990.2,206.2c1.1-20,3.2-39.7,6.3-59.5c-8.2,2-16.6,3.4-25.5,4s-17.6,0.4-26.3-0.6 c3.2,19.5,5.5,38.9,6.6,58.6c6.6,0.1,13.1,0,19.7-0.4C977.5,207.9,983.9,207.1,990.2,206.2z" fill="#FF0000"/>
    <path d="M990.2,248.2c17.2-0.7,34.4-1,51.6-0.7c-0.9-9-1.5-18.2-1.5-27.8c0-9.4,0.4-19,1.5-28.4 c-17,6.6-33.7,11.4-51.6,14.7c-6.3,0.9-12.6,1.7-19.2,2.1c-6.6,0.4-13.1,0.6-19.7,0.4c-19.7-0.8-38.7-3.4-58-7.2 c1.2,9.3,1.8,18.9,1.8,28.1c0,9.2-0.5,18.9-1.8,28c19.3-2.7,38.6-5,58-6.7c6.6-0.5,13.1-1.1,19.7-1.5 C977.5,248.9,983.9,248.6,990.2,248.2z" fill="#FF0000"/>
    <path d="M248.6,641c1.2-19.9,3.3-39.4,6.6-59.1c-8.7,1.3-17.4,2.3-26.3,2.8c-8.8,0.5-17.2,0.6-25.4,0.2 c3.1,19.4,5.2,38.7,6.3,58.3c6.3-0.3,12.6-0.4,19.1-0.8S242,641.5,248.6,641z" fill="#FF0000"/>
    <path d="M229,683.6c-6.5,0.4-12.8,0.9-19.1,1.9c-1.1,20-3.1,39.6-6.1,59.4c8.1-1.9,16.5-3.2,25.3-3.6 c8.8-0.5,17.5-0.2,26.2,0.9c-3.2-19.5-5.4-39-6.6-58.8C242,683.1,235.6,683.2,229,683.6z" fill="#FF0000"/>
    <path d="M248.6,683.2c19.7,0.9,38.7,3.5,58.1,7.4c-1.2-9.3-1.8-18.9-1.8-28.2c0-9.2,0.5-18.9,1.8-28.1 c-19.3,2.7-38.6,5-58.1,6.6c-6.6,0.5-13.1,1-19.6,1.4s-12.9,0.7-19.1,0.8c-17.1,0.4-34.2,0.4-51.3-0.1c1,9,1.5,18.2,1.6,27.8 c0.1,9.4-0.4,19-1.4,28.3c16.9-6.2,33.4-10.7,51.2-13.7c6.2-0.8,12.6-1.5,19.1-1.9S242,683.1,248.6,683.2z" fill="#FF0000"/>
  </g>
  <g opacity="0.3">
    <path d="M259.7,30c127.9,0,223.7,15.9,325.2,32.8C688.7,80,796.1,97.9,941,97.9c44.4,0,90-6.1,135.4-18.1 c30.5-8.1,61.9-19,93.6-32.7v757.2c-36.8,17.4-73.5,30.8-109.2,40C1020.3,854.7,979.7,860,940,860c-140.1,0-243.6-16.8-343.7-33 c-98.9-16.1-201.3-32.7-336.6-32.7c-45.7,0-91.1,5.3-135.1,15.8C93,817.6,61.3,827.9,30,841V86.6C67.1,69,103.8,55.4,139.2,46.1 C179.9,35.4,220.4,30,259.7,30 M1200,0c-89.2,45-174.4,67.9-259,67.9C660.3,67.9,524.3,0,259.7,0C175.2,0,89.1,23,0,67.9 c0,242.4,0,577.6,0,820c89-44.9,175.2-63.6,259.7-63.6c268.9,0,398.5,65.7,680.3,65.7c84.6,0,170.8-22,260-66.9 C1200,580.7,1200,242.4,1200,0L1200,0z" fill="#212121"/>
  </g>
</svg>