<svg viewBox="0 0 1200 1200" xmlns="http://www.w3.org/2000/svg" xmlns:xlink="http://www.w3.org/1999/xlink">
  <g>
    <path d="M0,769.3c95.5-48.9,192-67.5,298.8-64.5c101,2.8,201.8,16.4,301.2,33.8c99.4,17.4,200.3,29.5,301.2,32 c106.9,2.6,203.4-17.8,298.8-66.8c0,91.5,0,182.9,0,274.4c-95.6,48.8-191.8,69.2-298.8,66.6c-100.9-2.5-201.8-14.4-301.2-31.7 c-99.5-17.3-200.2-30.8-301.2-33.6c-106.8-3-203,15-298.8,63.5C0,951.6,0,860.5,0,769.3z" fill="#0DB02B"/>
    <path d="M0,769.3c95.5-48.9,192-67.5,298.8-64.5c101,2.8,201.8,16.4,301.2,33.8c99.4,17.4,200.3,29.5,301.2,32 c106.9,2.6,203.4-17.8,298.8-66.8c0-91.4,0-182.9,0-274.3c-95,49.3-192,70-298.8,67.2c-100.9-2.7-201.8-15-301.2-32.6 S399.8,432.8,298.8,430C192.1,427,94.9,447,0,496.4C0,587.4,0,678.3,0,769.3z M600,484.7c65.7,12,159.5,61.5,159.6,139.1 c0.1,77.5-97.3,105.7-159.6,94.1c-65.7-12.2-158.9-62.9-159.6-140C439.6,500.3,538.7,473.5,600,484.7z" fill="#FFFFFF"/>
    <path d="M0,222.9c94.6-49.9,192.1-70.5,298.8-67.5c101,2.8,201.8,16.6,301.2,34.3c99.3,17.7,200.3,30.2,301.2,32.8 c106.6,2.7,204-17.9,298.8-67.5c0,91.5,0,182.9,0,274.4c-95,49.3-192,70-298.8,67.2C800.3,494,699.4,481.7,600,464.1 S399.8,432.8,298.8,430C192.1,427,94.9,447,0,496.4C0,405.3,0,314.1,0,222.9z" fill="#E05206"/>
    <path d="M600,484.7c65.8,12,159.5,61.4,159.6,139.1c0.1,77.6-97.3,105.7-159.6,94.1 c-65.8-12.2-158.9-62.9-159.6-140C439.6,500.3,538.7,473.5,600,484.7z" fill="#E05206"/>
  </g>
  <g opacity="0.3">
    <path d="M259.7,185c127.9,0,223.7,15.9,325.2,32.8C688.7,235,796.1,252.9,941,252.9c44.4,0,90-6.1,135.4-18.1 c30.5-8.1,61.9-19,93.6-32.7v757.2c-36.8,17.4-73.5,30.8-109.2,40c-40.5,10.4-81.1,15.7-120.8,15.7c-140.1,0-243.6-16.8-343.7-33 c-98.9-16.1-201.3-32.7-336.6-32.7c-45.7,0-91.1,5.3-135.1,15.8C93,972.6,61.3,982.9,30,996V241.6c37.1-17.6,73.8-31.2,109.2-40.5 C179.9,190.4,220.4,185,259.7,185 M1200,155c-89.2,45-174.4,67.9-259,67.9c-280.7,0-416.7-67.9-681.3-67.9 C175.2,155,89.1,178,0,222.9c0,242.4,0,577.6,0,820c89-44.9,175.2-63.6,259.7-63.6c268.9,0,398.5,65.7,680.3,65.7 c84.6,0,170.8-22,260-66.9C1200,735.7,1200,397.4,1200,155L1200,155z" fill="#212121"/>
  </g>
</svg>