<svg viewBox="0 0 1200 1200" xmlns="http://www.w3.org/2000/svg" xmlns:xlink="http://www.w3.org/1999/xlink">
  <g>
    <path d="M0,769.3c186.5-101.2,400.9-62.6,600.1-30.7c199.8,32,413.1,64.5,599.9-34.9c0,91.5,0,182.9,0,274.4 c-187.8,99-399.3,65.7-599.9,34.9C400.7,982.3,187,941.8,0,1042.8C0,951.7,0,860.5,0,769.3z" fill="#3F9C35"/>
    <path d="M0,769.3c186.5-101.2,400.9-62.6,600.1-30.7c199.8,32,413.1,64.5,599.9-34.9c0-91.5,0-182.9,0-274.4 C818.6,634.2,378.6,289.1,0,496.4C0,587.4,0,678.3,0,769.3z M580.2,474.6c32.4,6.1,58.4,32.4,72.6,61.2c8.8,13.1,15.5,28.1,19,43.5 c3-11.2,6.1-22.4,9.1-33.5c3.2,12.8,6.4,25.5,9.6,38.3c8.6-4.3,17.2-8.7,25.7-13.1c-4.1,11.2-8.1,22.4-12.2,33.6 c8.9,5.6,17.8,11.3,26.8,16.8c-8.9,3.2-17.8,6.4-26.8,9.4c4.1,12.4,8.2,24.7,12.3,37.1c-8.6-6.8-17.2-13.7-25.8-20.5 c-3.2,11.8-6.4,23.6-9.6,35.4c-3-12.2-6.1-24.3-9.1-36.5c-4.4,13.8-9.5,26.5-19,37.6c-14.7,25.5-43.2,42.3-72.7,37.6 c-59.7-9.5-90-84.2-89.6-138C490.9,535.5,519.6,463.2,580.2,474.6z" fill="#ED2939"/>
    <path d="M0,222.9C378.9,14.5,818.9,361.5,1200,155c0,91.5,0,182.9,0,274.4C818.6,634.2,378.6,289.1,0,496.4 C0,405.2,0,314.1,0,222.9z" fill="#00B9E4"/>
    <path d="M580.2,721.7c29.4,4.7,57.9-12.2,72.7-37.6c-12.8,14.9-33.4,23.7-52.9,20.2c-49.5-8.9-74.4-70.3-74.4-115.1 c0-40.7,23.9-99.2,74.4-90.6c22.1,3.7,40.5,19.2,52.8,37.3c-14.2-28.8-40.1-55.1-72.6-61.2c-60.7-11.4-89.3,61-89.7,109 C490.2,637.4,520.6,712.2,580.2,721.7z" fill="#FFFFFF"/>
    <path d="M525.6,589.1c0,44.8,24.9,106.3,74.4,115.1c19.5,3.5,40.1-5.4,52.9-20.2c9.6-11.1,14.6-23.8,19-37.6 c-0.2-0.7-0.3-1.1-0.5-1.9c-8.6,4.3-17.3,8.6-26,12.8c4.1-11.1,8.3-22.3,12.4-33.4c-9.1-5.9-18.1-11.8-27.2-17.6 c9.1-2.9,18.1-5.8,27.2-8.8c-4.1-12.4-8.3-24.9-12.4-37.3c8.7,7,17.3,14,26,21c0.2-0.7,0.3-1,0.5-1.7c-3.5-15.5-10.3-30.4-19-43.5 c-12.3-18.2-30.7-33.5-52.8-37.3C549.4,489.9,525.5,548.5,525.6,589.1z" fill="#ED2939"/>
    <path d="M645.4,560.3c4.1,12.4,8.3,24.9,12.4,37.3c-9.1,3-18.1,5.9-27.2,8.8c9.1,5.8,18.1,11.7,27.2,17.5 c-4.1,11.1-8.3,22.3-12.4,33.4c8.7-4.2,17.3-8.5,26-12.8c0.2,0.7,0.3,1.1,0.5,1.9c3,12.2,6.1,24.3,9.1,36.5 c3.2-11.8,6.4-23.6,9.6-35.4c8.6,6.9,17.2,13.7,25.8,20.5c-4.1-12.4-8.2-24.7-12.3-37.1c8.9-3.1,17.9-6.2,26.8-9.4 c-8.9-5.6-17.9-11.2-26.8-16.8c4.1-11.2,8.2-22.4,12.2-33.6c-8.5,4.4-17.1,8.8-25.7,13.1c-3.2-12.8-6.4-25.5-9.6-38.3 c-3,11.2-6.1,22.4-9.1,33.7c-0.2,0.7-0.3,1-0.5,1.7C662.7,574.2,654,567.2,645.4,560.3z" fill="#FFFFFF"/>
  </g>
  <path d="M259.7,185c127.9,0,223.7,15.9,325.2,32.8 C688.7,235,796.1,252.9,941,252.9c44.4,0,90-6.1,135.4-18.1c30.5-8.1,61.9-19,93.6-32.7v757.2c-36.8,17.4-73.5,30.8-109.2,40 c-40.5,10.4-81.1,15.7-120.8,15.7c-140.1,0-243.6-16.8-343.7-33c-98.9-16.1-201.3-32.7-336.6-32.7c-45.7,0-91.1,5.3-135.1,15.8 C93,972.6,61.3,982.9,30,996V241.6c37.1-17.6,73.8-31.2,109.2-40.5C179.9,190.4,220.4,185,259.7,185 M1200,155 c-89.2,45-174.4,67.9-259,67.9c-280.7,0-416.7-67.9-681.3-67.9C175.2,155,89.1,178,0,222.9c0,242.4,0,577.6,0,820 c89-44.9,175.2-63.6,259.7-63.6c268.9,0,398.5,65.7,680.3,65.7c84.6,0,170.8-22,260-66.9C1200,735.7,1200,397.4,1200,155L1200,155z" enable-background="new " fill="#212121" opacity="0.3"/>
</svg>