<svg viewBox="0 0 1200 890" xmlns="http://www.w3.org/2000/svg" xmlns:xlink="http://www.w3.org/1999/xlink">
  <g>
    <path d="M29.5,124.8c1.4,10.1,2.7,20.1,4,30.2c-2.9,3.9-4.3,5.8-7.3,9.7c3-3.9,4.5-5.9,7.4-9.7 C32.3,144.9,30.9,134.9,29.5,124.8z" fill="none"/>
    <path d="M72.5,164.2c-6.1-6.5-9.2-9.7-15.5-16c6.2,6.3,9.2,9.5,15.2,16.1C72.3,164.3,72.4,164.3,72.5,164.2z" fill="none"/>
    <path d="M113.8,442.3c-0.1-1.6-0.2-3.4-0.3-5.2C96,444.1,79,451.8,62.1,460c-2.7-3.1-4.1-4.7-6.8-7.8 c2.7,3.2,4.1,4.8,6.8,8C79,452,96,444.3,113.5,437.3c0.1,1.8,0.2,3.4,0.3,5.2c16.9-8.1,33.9-15.6,51.4-22.4 C147.7,426.8,130.7,434.2,113.8,442.3z" fill="none"/>
    <path d="M36.6,174.6c-8.8,2.3-13.3,3.6-22.5,6.4c-0.1,0.1-0.1,0.1-0.2,0.2C23.2,178.3,27.7,177,36.6,174.6z" fill="none"/>
    <path d="M165.2,420.1c-17.3,1.3-34.4,3.4-51.6,6.3c0,0.1,0,0.1,0,0.2c-17.3,3.4-34.3,7.5-51.3,12.3 c17-4.8,34-9,51.3-12.3C130.7,423.6,147.8,421.5,165.2,420.1z" fill="none"/>
    <path d="M165.2,420.1c-1.3,27.6-2.6,55.2-3.9,82.8h0.1l0,0C162.7,475.3,163.9,447.7,165.2,420.1z" fill="none"/>
    <path d="M112.1,556.4c7.9-20.7,15.9-41.3,23.9-62c0,0-0.1,0-0.1-0.1C127.9,515,120,535.7,112.1,556.4z" fill="none"/>
    <path d="M67.3,427c15.4-2.8,31-4.8,46.7-5.9c0-0.1,0-0.1,0-0.2C98.3,422,82.7,424.2,67.3,427z" fill="none"/>
    <path d="M133.2,491.8L133.2,491.8c10.5-24,21.2-47.9,32-71.7C154.4,443.9,143.8,467.8,133.2,491.8z" fill="none"/>
    <path d="M178.8,262.7c-0.1-0.2-0.2-0.3-0.3-0.4c-2.1,25-4.3,49.9-6.4,74.9c0.1,0,0.2,0,0.3,0 C174.5,312.4,176.7,287.6,178.8,262.7z" fill="none"/>
    <path d="M114.3,447.6c-14.2,8.5-28.1,17.6-41.8,26.9c13.7-9.3,27.6-18.3,41.8-26.7c0.9,9.1,3.5,19.2,7.4,27.4 c0,0,0,0,0.1-0.1C117.9,466.9,115.3,456.7,114.3,447.6z" fill="none"/>
    <path d="M96.6,559.6h0.1c11.2-23.5,22.5-47,34-70.4c0,0,0-0.1-0.1-0.1C119.1,512.5,107.8,536,96.6,559.6z" fill="none"/>
    <path d="M151.4,578c0,0.1,0.1,0.1,0.1,0.1c2.2-25,4.4-50.1,6.5-75.1h-0.1C155.8,528,153.6,553,151.4,578z" fill="none"/>
    <path d="M12.8,761.1c0.1,0,0.1,0,0.1,0.1c7.4-5.1,11.1-7.6,18.3-12.4C23.9,753.6,20.3,756.1,12.8,761.1z" fill="none"/>
    <path d="M165.2,420.1c-2.1-26.8-4.2-53.7-6.3-80.5c1-0.4,2.2-0.8,3.3-1.2c-1-26.8-2-53.7-3-80.5c2.6-4.7,4-7,6.6-11.6 c0-0.1-0.1-0.1-0.1-0.2c-2.7,4.7-4,7.1-6.7,11.8c1,26.8,2,53.7,3,80.5c-1.1,0.4-2.1,0.7-3.2,1.1l0,0 C160.9,366.4,163,393.2,165.2,420.1z" fill="none"/>
    <path d="M106,309.9c9.5,17,18.7,34.2,27.9,51.4c0,0,0-0.1,0.1-0.1C124.8,344,115.5,326.9,106,309.9z" fill="none"/>
    <path d="M165.2,420.1c-9.5-20.9-18.9-41.8-28.4-62.7c5.5-7.2,11.8-12.8,18.6-16.3c-2.6-21.5-5.3-42.9-7.9-64.4 c2.2-3.9,3.3-5.9,5.4-9.8c0-0.1,0-0.1,0-0.2c-2.2,4-3.3,6-5.5,9.9c2.6,21.5,5.3,42.9,7.9,64.4c-6.8,3.3-13.1,9.1-18.6,16.2 c0,0,0,0,0,0.1C146.3,378.3,155.7,399.2,165.2,420.1z" fill="none"/>
    <path d="M169,337.3h-0.1c-1.2,27.6-2.5,55.2-3.7,82.8C166.5,392.5,167.7,364.9,169,337.3z" fill="none"/>
    <path d="M236.2,289.5c-0.2,0-0.3,0-0.5,0c-12.2,21-24,42.2-35.6,63.5c0.1,0.1,0.2,0.2,0.3,0.3 C212.1,331.9,224,310.6,236.2,289.5z" fill="none"/>
    <path d="M219.5,289c-0.1,0-0.2,0-0.4,0c-8.3,19.3-16.5,38.7-24.6,58.1c0.1,0.1,0.2,0.1,0.3,0.2 C202.9,327.8,211.1,308.4,219.5,289z" fill="none"/>
    <path d="M247.3,317.2c0-0.2,0-0.3,0-0.6c-13.6,15.5-26.9,31.4-39.9,47.4c0.1,0.1,0.1,0.2,0.2,0.3 C220.5,348.4,233.7,332.6,247.3,317.2z" fill="none"/>
    <path d="M47.8,738.9c-3.5-10.3-5.2-15.5-8.8-25.7c0,0.1,0,0.2,0,0.3c3.5,10.2,5.2,15.3,8.7,25.5 C47.7,738.9,47.7,738.9,47.8,738.9z" fill="none"/>
    <path d="M68.6,727.9c-0.1,0-0.1,0-0.1,0.1c-2.9,5.4-4.4,8.1-7.3,13.6C64.1,736.1,65.6,733.3,68.6,727.9z" fill="none"/>
    <path d="M61,783.3c-2.6-9-5.2-18-7.8-27c0,0,0,0,0,0.1C55.8,765.3,58.4,774.3,61,783.3z" fill="none"/>
    <path d="M194.4,484.5l-19.3,14.8C175.2,499.2,194.4,484.5,194.4,484.5z" fill="none"/>
    <path d="M209.6,368.6l8.1,29.1C217.8,397.6,209.6,368.6,209.6,368.6z" fill="none"/>
    <path d="M88.6,332.2c0,0.1,0,0.1,0,0.2c12.9,13.7,25.5,27.6,37.9,41.7c0,0,0-0.1,0.1-0.1 C114.2,359.8,101.6,345.9,88.6,332.2z" fill="none"/>
    <path d="M86.2,535.6c12.4-18.9,24.9-37.8,37.5-56.5c0,0,0,0,0-0.1C111.1,497.8,98.6,516.7,86.2,535.6z" fill="none"/>
    <path d="M227.5,537.5c0.1,0,0.1,0,0.2,0c-10.1-18.8-20.2-37.7-30.2-56.6c0,0-0.1,0.1-0.1,0.2 C207.3,499.9,217.4,518.7,227.5,537.5z" fill="none"/>
    <path d="M377.4,390L377.4,390c8.7,3.9,17.4,7.9,26.1,11.9C394.8,397.8,386.1,393.9,377.4,390z" fill="none"/>
    <path d="M200,477.1L200,477.1c-11.6-19-23.2-38-34.8-57C176.8,439.1,188.4,458.1,200,477.1z" fill="none"/>
    <path d="M446.7,423.8L446.7,423.8c-8.6-4.6-17.3-9.2-26-13.7c-0.2-11-0.4-21.9-0.6-32.9c0.2,11,0.4,21.9,0.6,32.9 C429.3,414.7,438,419.2,446.7,423.8z" fill="none"/>
    <path d="M269.9,432.6c0-0.1,0.1-0.1,0.1-0.2c-17.2-3-34.3-5.8-51.6-8c0,0.1,0,0.1,0,0.2 C235.6,426.8,252.8,429.5,269.9,432.6z" fill="none"/>
    <path d="M275.6,401.2c-19.1,1.7-38,4-56.9,7c-0.1-1.8-0.2-3.5-0.4-5.3c-18,5-35.6,10.7-53.2,17.1 c17.6-6.4,35.2-12,53.2-16.9c0.1,1.6,0.2,3.5,0.4,5.3c18.9-3,37.8-5.3,56.9-7c3.1,4.2,4.7,6.4,7.8,10.6c0,0,0-0.1,0.1-0.1 C280.3,407.6,278.8,405.5,275.6,401.2z" fill="none"/>
    <path d="M165.2,420.1c17.9-1,35.6-1.2,53.5-0.8c0-0.1,0-0.1,0-0.2c19,0.7,37.9,2,56.9,3.7c-19-1.7-37.9-3-56.9-3.7 C200.8,418.7,183.1,419,165.2,420.1z" fill="none"/>
    <path d="M247.7,495.6c0,4.8,0,7.3,0,12.1l0,0c0-4.9,0-7.4,0-12.3c-12.7-11.8-25.4-23.5-38.2-35.3c0,0,0,0.1-0.1,0.1 C222.3,472,235,483.8,247.7,495.6z" fill="none"/>
    <path d="M246.7,520.4c0-0.1,0-0.2,0-0.4c-13.9-17-27.7-33.9-41.5-51c0,0.1-0.1,0.2-0.1,0.2 C218.9,486.3,232.8,503.4,246.7,520.4z" fill="none"/>
    <path d="M171.6,500.7c-1.1,0.3-2.2,0.7-3.4,1.1c1,26.9,2,53.7,3.1,80.6c-2.8,4.7-4.1,7-6.9,11.7 c2.8-4.7,4.2-7.1,7-11.7c-1-26.9-2.1-53.7-3.1-80.6c1.2-0.4,2.2-0.7,3.4-1.1c-2.2-26.9-4.4-53.7-6.6-80.6 C167.3,446.9,169.5,473.8,171.6,500.7z" fill="none"/>
    <path d="M0,67.9c88.9,25.8,160,82,231.3,138.9c94.5,75.4,191.5,147.7,283.7,226c124.5,18.3,247.2,41.1,373.3,45.4 c112.1,3.9,211.6-14.6,311.7-66.6c0-137.2,0-274.4,0-411.5c-95.1,49.4-191.9,70.1-298.8,67.5C800.3,65,699.3,52.9,600,34.9 c-99.4-18-200.2-31.7-301.2-34.5c-48.1-1.3-96.4,0.3-143.6,10.1C100.7,21.8,49.8,43.6,0,67.9z" fill="#0038A8"/>
    <path d="M0,887.8c186.6-96.3,401-63.7,600-29.9c99.5,16.9,200.3,29.1,301.2,31.7c107.6,2.7,202.8-16.8,298.8-66.5 c0-137.2,0-274.4,0-411.5c-100.2,52-199.6,70.5-311.7,66.6C762.1,473.8,639.4,451,515,432.7c-98.7,56-198.7,110.9-284,186.5 C142.3,697.8,68.4,791.6,0,887.8z" fill="#CE1126"/>
    <path d="M0,67.9c0,273.3,0,546.6,0,820c68.4-96.2,142.3-190.1,230.9-268.6c85.4-75.6,185.3-130.6,284-186.5 c-92.2-78.3-189.2-150.5-283.7-226C160,149.9,88.9,93.7,0,67.9z M13.9,181c5-6.6,7.5-9.9,12.4-16.3c2.9-3.9,4.4-5.8,7.3-9.7 c-1.3-10.1-2.7-20.1-4-30.2c6.8,5.4,10.2,8.1,16.8,13.8c6.4-8,12.8-15.9,19.2-23.9c-2.8,11.2-5.7,22.4-8.5,33.5 c6.3,6.3,9.4,9.5,15.5,16c-0.1,0-0.2,0-0.3,0.1c0.1,0.1,0.1,0.1,0.1,0.2c-8.4,2.2-12.7,3.4-21.3,6c-3.2,11.2-6.3,22.4-9.5,33.6 c-1.6-9.8-3.3-19.7-4.9-29.5c-8.9,2.4-13.4,3.7-22.7,6.6c0.1-0.1,0.1-0.1,0.2-0.2C14,181,14,181,13.9,181z M61,783.3 c-7.2-3.5-10.9-5.2-18.2-8.4c-5.3,9.5-10.7,19-16,28.5c1.4-11.3,2.8-22.7,4.2-34c-7.2-3.4-10.9-5-18.3-8c0.1-0.1,0.2-0.1,0.3-0.2 c-0.1,0-0.1,0-0.1-0.1c7.4-5.1,11.1-7.6,18.5-12.3c1-0.7,1.6-1,2.6-1.7c1.7-11.3,3.3-22.6,5-33.9c0,0.1,0,0.1,0.1,0.2 c0-0.1,0-0.2,0-0.3c3.5,10.2,5.3,15.4,8.8,25.7c8.3-4.6,12.4-6.8,20.7-10.9l0,0c0.1,0,0.1,0,0.1-0.1c-3,5.4-4.5,8.2-7.5,13.7 c-3.1,5.9-4.7,8.8-7.9,14.7C55.8,765.3,58.4,774.3,61,783.3z M283.5,412.1c-3.2,4.2-4.8,6.3-7.9,10.6c-19-1.7-37.9-3-56.9-3.7 c0,0.1,0,0.1,0,0.2l0,0c-0.1,1.8-0.2,3.4-0.4,5.2c17.3,2.2,34.5,5,51.6,8c0,0.1-0.1,0.1-0.1,0.2h0.1c-2.6,3.5-3.8,5.3-6.4,8.8 c-15.2-4.1-30.5-8-45.9-11.5c-1.1,10.1-4.1,21-8.2,30.2c12.8,11.7,25.5,23.5,38.2,35.3c0,4.9,0,7.4,0,12.3l0,0c0,0.1,0,0.2,0,0.4 c-13.5-14.4-26.9-28.8-40.3-43.2c-0.7,1.5-1.5,2.9-2.2,4.2c13.8,17,27.6,34,41.5,51c0,6.2,0,9.4,0,15.6c-4.3,0.1-6.4,0.2-10.6,0.4 c-12.1-19.5-24-39.1-36-58.7c0-0.1-0.1-0.1-0.1-0.2l0,0c0,0.1,0.1,0.1,0.1,0.2c-0.9,1.3-1.7,2.5-2.7,3.6 c10,18.9,20.1,37.8,30.2,56.6c-0.1,0-0.1,0-0.2,0c0.1,0.1,0.1,0.2,0.2,0.4c-3.4,0.2-5.1,0.3-8.5,0.5 c-8.3-17.9-16.6-35.9-24.7-53.9c-5.8,6.5-12.3,11.7-19.3,14.8c2.8,21.7,5.5,43.3,8.3,65c-2.3,3.8-3.4,5.7-5.7,9.6 c-2-24.4-4-48.7-6-73.1c-1.2,0.4-2.2,0.7-3.4,1.1c1,26.9,2.1,53.7,3.1,80.6c-2.8,4.7-4.2,7-7,11.7c-2.7-3.8-4.1-5.7-6.8-9.4 c1.3-27.2,2.5-54.5,3.8-81.7h-0.1l0,0c-1.1,0-2.1,0-3.3,0.1c-2.2,25-4.4,50.1-6.5,75.1c0-0.1-0.1-0.1-0.1-0.1c0,0.1,0,0.1,0,0.2 c-2.2-3.1-3.3-4.6-5.5-7.7c2.9-22.6,5.8-45.2,8.7-67.8c-6.8-0.7-13.1-3.7-18.6-8.3c-8,20.6-16,41.3-23.9,62 c-3.1,0.9-4.7,1.3-7.8,2.3c9.6-22.3,19.2-44.6,28.9-66.8v-0.1l0,0v0.1c-0.9-0.9-1.8-1.9-2.6-2.8c-11.4,23.4-22.7,46.9-34,70.4 c-3.9,1.2-5.8,1.9-9.7,3.2c0-6.1,0.1-9.1,0.1-15.2c12.8-21.7,25.7-43.3,38.8-64.8c-0.8-1.2-1.4-2.3-2.1-3.6 c-12.7,18.7-25.2,37.5-37.5,56.5c0-5,0.1-7.5,0.1-12.4c11.7-16.1,23.4-32.1,35.4-47.9c-3.9-8.2-6.6-18.4-7.4-27.4 c-14.2,8.4-28.1,17.4-41.8,26.7c-2.2-2.7-3.3-4-5.6-6.6c15.4-8.9,30.9-17.4,46.8-25.4c-0.1-1.8-0.2-3.4-0.3-5.2 c-17.4,7-34.5,14.6-51.4,22.9c-2.7-3.2-4.1-4.8-6.8-8c2.8-5.4,4.2-8,6.9-13.4c17-4.8,34-9,51.3-12.3c0-0.1,0-0.1,0-0.2l0,0 c0.1-1.8,0.2-3.4,0.4-5.2c-15.6,1.1-31.2,3.2-46.7,5.9c2.3-4.4,3.4-6.6,5.7-10.9c13.9-0.7,27.7-1.1,41.6-0.6 c1.1-10.6,4-21.9,7.9-31.8c-11.5-9.1-23-17.9-34.9-26.5c0-5,0.1-7.5,0.1-12.4c12.6,11,24.8,22.3,36.8,34c0.7-1.6,1.5-3.2,2.1-4.7 c-12.4-14.1-25-28.1-37.9-41.7c0-6.1,0.1-9.2,0.1-15.4c3.8-1.3,5.8-2,9.6-3.2c11.3,17,22.2,34.2,33,51.5c0.9-1.5,1.7-2.7,2.6-4 c-9.2-17.2-18.4-34.3-27.9-51.4c3.1-1,4.7-1.4,7.8-2.3c7.7,16.6,15.3,33.2,22.9,49.8c5.5-7.1,11.8-12.9,18.6-16.2 c-2.6-21.5-5.3-42.9-7.9-64.4c2.2-4,3.3-6,5.5-9.9c0,0.1,0,0.1,0,0.2c0-0.1,0.1-0.1,0.1-0.2c1.9,24.3,3.8,48.5,5.7,72.8 c1.1-0.4,2.1-0.7,3.2-1.1c-1-26.8-2-53.7-3-80.5c2.7-4.8,4-7.1,6.7-11.8c0,0.1,0.1,0.1,0.1,0.2c0-0.1,0.1-0.1,0.1-0.2 c2.7,3.8,4,5.7,6.6,9.5c-1.2,27.2-2.5,54.5-3.7,81.7l0,0h0.1c0,0,0,0,0-0.1c1,0,2,0,3,0c2.1-25,4.3-49.9,6.4-74.9 c0.1,0.2,0.2,0.3,0.3,0.4c0-0.2,0-0.3,0-0.5c2.2,3.2,3.3,4.8,5.6,8c-2.9,22.5-5.8,44.9-8.6,67.4c6.8,1,13.2,4.4,18.8,9.5 c8.1-19.4,16.3-38.8,24.6-58.1c0.1,0,0.2,0,0.4,0l0,0c3.3-0.2,5-0.3,8.4-0.5c-10.3,20.5-20.3,41-30.2,61.7 c0.9,0.9,1.7,1.9,2.5,2.9c11.6-21.3,23.5-42.5,35.6-63.5c4.4-0.2,6.6-0.3,11-0.4c0,6.1,0,9.1,0,15.2c-14.2,18.4-28,37.1-41.5,56 c0.8,1.3,1.4,2.4,2.1,3.7c13-16.1,26.2-31.9,39.9-47.4c0,0.2,0,0.3,0,0.6c0.2-0.2,0.3-0.3,0.5-0.6c0,5,0,7.5,0,12.5 c-13,12.9-25.7,26.1-38.1,39.5c4.2,8.8,7.1,19.4,8.1,29.1c15.1-5.5,30.4-10.6,45.9-15c2.5,3.5,3.8,5.3,6.4,8.8 c-17.4,3.3-34.5,7.1-51.6,11.4l0,0c0.1,1.8,0.2,3.5,0.4,5.3c18.9-3,37.8-5.3,56.9-7c3.1,4.3,4.7,6.4,7.9,10.7 C283.5,412,283.5,412,283.5,412.1L283.5,412.1z M420,464.6c-5.5-9.3-11.1-18.6-16.6-27.9c-10.5,2.8-15.7,4.3-26.1,7.2 c5.2-8.6,10.3-17.1,15.5-25.6c-5.2-9.4-10.4-18.9-15.5-28.3l0,0l0,0c8.7,3.9,17.4,7.9,26.1,11.9c5.5-8.2,11-16.4,16.6-24.6 c0.2,11,0.4,21.9,0.6,32.9c8.7,4.5,17.4,9.1,26,13.7l0,0l0,0c-10.4,3.1-15.6,4.7-26,8C420.4,442.7,420.2,453.6,420,464.6z" fill="#FFFFFF"/>
    <path d="M217.8,397.6c-1.1-9.6-4-20.2-8.1-29.1c-15.2,16.8-30,34-44.5,51.5C182.5,411.9,199.9,404.5,217.8,397.6z" fill="#FCD116"/>
    <path d="M172.4,337.2c-0.1,0-0.2,0-0.3,0c-1,0-2,0-3,0c0,0,0,0,0,0.1c-1.3,27.6-2.6,55.2-3.8,82.8 C167.6,392.4,170,364.8,172.4,337.2z" fill="#FCD116"/>
    <path d="M165.2,420.1c11.5-22.4,23.2-44.6,35.2-66.7c-0.1-0.1-0.2-0.2-0.3-0.3c-0.8-0.9-1.6-2-2.5-2.9 C186.6,373.4,175.8,396.7,165.2,420.1z" fill="#FCD116"/>
    <path d="M165.2,420.1c13.8-18.8,27.9-37.4,42.4-55.7c-0.1-0.1-0.1-0.2-0.2-0.3c-0.7-1.3-1.3-2.4-2.1-3.7 C191.6,380.1,178.3,400,165.2,420.1z" fill="#FCD116"/>
    <path d="M218.4,403.1c-18,5-35.6,10.6-53.2,16.9c17.7-4.6,35.5-8.5,53.6-11.7C218.6,406.6,218.5,404.7,218.4,403.1 z" fill="#FCD116"/>
    <path d="M165.2,420.1c9.7-24.3,19.6-48.5,29.6-72.7c-0.1-0.1-0.2-0.1-0.3-0.2c-5.6-5.1-12-8.6-18.8-9.5 C172.2,365.1,168.7,392.6,165.2,420.1z" fill="#FCD116"/>
    <path d="M165.2,420.1c-10.4-19.7-20.7-39.3-31.2-58.9c0,0,0,0.1-0.1,0.1c-0.9,1.3-1.7,2.6-2.6,4l0,0 C142.7,383.5,154,401.8,165.2,420.1z" fill="#FCD116"/>
    <path d="M122.4,383.7c-3.9,9.9-6.7,21.2-7.9,31.8c17,0.7,33.8,2.4,50.6,4.6C151.1,407.7,136.9,395.5,122.4,383.7z" fill="#FCD116"/>
    <path d="M158.8,339.5c2.1,26.8,4.2,53.7,6.3,80.5c-1-27.2-2-54.4-3-81.7C161,338.8,159.9,339.2,158.8,339.5z" fill="#FCD116"/>
    <path d="M113.9,420.9c0,0.1,0,0.1,0,0.2c-0.1,1.8-0.2,3.4-0.4,5.2l0,0c17.2-2.9,34.3-4.9,51.6-6.3 C148,419.6,131.1,419.9,113.9,420.9z" fill="#FCD116"/>
    <path d="M165.2,420.1c-12.7-15.5-25.5-30.9-38.6-46.1c0,0,0,0.1-0.1,0.1c-0.7,1.4-1.5,3.1-2.1,4.7l0,0 C138.2,392.3,151.8,406.1,165.2,420.1z" fill="#FCD116"/>
    <path d="M136.7,357.4c9.5,20.9,19,41.8,28.4,62.7c-3.3-26.3-6.6-52.6-9.8-78.9 C148.6,344.6,142.3,350.2,136.7,357.4z" fill="#FCD116"/>
    <path d="M197.3,481c0,0,0.1-0.1,0.1-0.2c0.9-1.2,1.7-2.3,2.7-3.6c0-0.1-0.1-0.1-0.1-0.2c-11.6-19-23.2-38-34.8-57 C175.9,440.4,186.6,460.7,197.3,481z" fill="#FCD116"/>
    <path d="M218.3,424.6c0-0.1,0-0.1,0-0.2c0.1-1.8,0.2-3.4,0.4-5.2l0,0c-17.9-0.4-35.7-0.1-53.5,0.8 C183,420.9,200.6,422.5,218.3,424.6z" fill="#FCD116"/>
    <path d="M171.6,500.7c-2.2-26.9-4.3-53.7-6.4-80.6c1,27.2,2,54.5,3,81.7C169.4,501.4,170.6,501,171.6,500.7z" fill="#FCD116"/>
    <path d="M157.9,503h0.1c1.1,0,2.1,0,3.3-0.1l0,0c1.3-27.6,2.6-55.2,3.9-82.8C162.8,447.7,160.4,475.3,157.9,503z" fill="#FCD116"/>
    <path d="M130.6,489.1L130.6,489.1c0.8,1,1.7,2,2.6,2.8v-0.1c10.5-24,21.2-47.9,32-71.7 C153.5,443,141.9,466,130.6,489.1z" fill="#FCD116"/>
    <path d="M165.2,420.1c14.9,13.2,29.6,26.7,44.3,40.2c0,0,0-0.1,0.1-0.1c4-9.2,7.1-20.2,8.2-30.2 C200.3,426.1,182.8,422.8,165.2,420.1z" fill="#FCD116"/>
    <path d="M175.2,499.2c7-3.2,13.5-8.3,19.3-14.8c-9.8-21.5-19.5-42.9-29.3-64.4 C168.5,446.4,171.8,472.8,175.2,499.2z" fill="#FCD116"/>
    <path d="M165.2,420.1c13.4,16.4,26.6,32.8,39.9,49.2c0-0.1,0.1-0.2,0.1-0.2c0.7-1.3,1.5-2.8,2.2-4.2 C193.4,449.9,179.4,434.9,165.2,420.1z" fill="#FCD116"/>
    <path d="M165.2,420.1c-14.1,19.5-27.9,39.2-41.4,59c0,0,0,0,0,0.1c0.7,1.3,1.3,2.3,2.1,3.6 C138.8,461.7,151.8,440.8,165.2,420.1z" fill="#FCD116"/>
    <path d="M165.2,420.1c-9.9,24.7-19.6,49.5-29.3,74.3c0,0,0.1,0,0.1,0.1c5.5,4.5,11.8,7.6,18.6,8.3 C158.1,475.1,161.7,447.6,165.2,420.1z" fill="#FCD116"/>
    <path d="M113.8,442.3c16.9-8.1,33.9-15.5,51.4-22.3c-17.5,5-34.6,10.7-51.7,17.1 C113.6,438.9,113.7,440.7,113.8,442.3z" fill="#FCD116"/>
    <path d="M121.8,475.2c14.2-18.6,28.5-37.1,43.4-55.1c-17.3,8.6-34.2,17.8-50.9,27.6 C115.3,456.7,117.9,466.9,121.8,475.2z" fill="#FCD116"/>
    <path d="M113.5,437.1c17.1-6.4,34.2-12.1,51.7-17.1c-17.4,1.4-34.5,3.5-51.6,6.4c-17.3,3.4-34.3,7.5-51.3,12.3 c-2.8,5.3-4.2,8-6.9,13.4c2.7,3.1,4.1,4.7,6.8,7.8C79,451.8,96,444.1,113.5,437.1z" fill="#FCD116"/>
    <path d="M165.2,420.1c-17.5,6.8-34.5,14.3-51.4,22.4c-15.9,8-31.4,16.5-46.8,25.4c2.2,2.6,3.3,4,5.6,6.6 c13.7-9.4,27.6-18.4,41.8-26.9C131,437.8,147.9,428.7,165.2,420.1z" fill="#FCD116"/>
    <path d="M165.2,420.1c-16.8-2.2-33.6-4-50.6-4.6c-13.9-0.5-27.7-0.1-41.6,0.6c-2.3,4.4-3.4,6.5-5.7,10.9 c15.4-2.8,31-5,46.7-6.1C131.1,419.9,148,419.6,165.2,420.1z" fill="#FCD116"/>
    <path d="M165.2,420.1c-11.2-18.3-22.5-36.6-33.9-54.8l0,0c-10.8-17.3-21.7-34.5-33-51.5c-3.8,1.2-5.7,1.9-9.6,3.2 c0,6.1-0.1,9.1-0.1,15.2c12.9,13.7,25.5,27.6,38,41.8C139.7,389.1,152.5,404.6,165.2,420.1z" fill="#FCD116"/>
    <path d="M124.4,378.8L124.4,378.8c-11.9-11.7-24.2-23-36.8-34c0,5-0.1,7.5-0.1,12.4c11.8,8.6,23.4,17.4,34.9,26.5 c14.5,11.9,28.7,24,42.8,36.4C151.8,406.1,138.2,392.3,124.4,378.8z" fill="#FCD116"/>
    <path d="M165.2,420.1c-9.5-20.9-18.9-41.8-28.4-62.7c0,0,0,0,0-0.1c-7.6-16.6-15.2-33.2-22.9-49.8 c-3.1,0.9-4.7,1.4-7.8,2.3c9.5,17,18.8,34.1,27.9,51.3C144.4,380.8,154.8,400.4,165.2,420.1z" fill="#FCD116"/>
    <path d="M162.2,338.4c1,27.2,2,54.4,3,81.7c1.2-27.6,2.5-55.2,3.7-82.8l0,0c1.2-27.2,2.5-54.5,3.7-81.7 c-2.7-3.8-4-5.7-6.6-9.5c-2.7,4.7-4,7.1-6.7,11.8C160.2,284.7,161.2,311.5,162.2,338.4z" fill="#FCD116"/>
    <path d="M155.4,341.1c3.2,26.3,6.5,52.6,9.8,78.9c-2.2-26.8-4.3-53.7-6.5-80.5l0,0c-1.9-24.3-3.8-48.5-5.7-72.8 c0,0.1-0.1,0.1-0.1,0.2c-2.2,3.9-3.3,5.8-5.4,9.8C150.1,298.2,152.7,319.7,155.4,341.1z" fill="#FCD116"/>
    <path d="M165.2,420.1c3.5-27.5,7-55,10.6-82.5c2.9-22.5,5.8-44.9,8.6-67.4c-2.2-3.2-3.4-4.8-5.6-8 c0,0.2,0,0.3,0,0.5c-2.1,24.8-4.3,49.6-6.4,74.5C170,364.8,167.6,392.4,165.2,420.1z" fill="#FCD116"/>
    <path d="M165.2,420.1c13.1-20.1,26.4-40,40.1-59.7c13.5-19,27.2-37.6,41.5-56c0-6.1,0-9.1,0-15.2 c-4.2,0.1-6.3,0.2-10.5,0.4c-12.3,21.1-24.2,42.4-35.9,63.8C188.4,375.5,176.7,397.7,165.2,420.1z" fill="#FCD116"/>
    <path d="M165.2,420.1c10.6-23.4,21.5-46.7,32.5-69.9c9.9-20.7,20-41.2,30.2-61.7c-3.4,0.2-5,0.3-8.4,0.5l0,0 c-8.4,19.4-16.6,38.9-24.7,58.4C184.8,371.5,174.9,395.8,165.2,420.1z" fill="#FCD116"/>
    <path d="M165.2,420.1c14.5-17.5,29.2-34.6,44.5-51.5c12.5-13.5,25.1-26.6,38.1-39.5c0-5,0-7.5,0-12.5 c-0.2,0.2-0.3,0.3-0.5,0.6c-13.6,15.5-26.8,31.2-39.7,47.2C193.1,382.7,179,401.2,165.2,420.1z" fill="#FCD116"/>
    <path d="M218.7,408.4c-18,3.2-35.8,7-53.6,11.7c17.9-1,35.6-1.3,53.5-1c19,0.7,37.9,2,56.9,3.7 c3.1-4.2,4.7-6.3,7.9-10.6c-3.2-4.3-4.8-6.4-7.9-10.7C256.6,403.1,237.7,405.4,218.7,408.4z" fill="#FCD116"/>
    <path d="M218.4,402.9L218.4,402.9c17.1-4.4,34.3-8.2,51.6-11.4c-2.6-3.5-3.8-5.3-6.4-8.8 c-15.5,4.4-30.8,9.4-45.9,15c-17.9,6.8-35.3,14.3-52.6,22.4C182.7,413.6,200.4,408,218.4,402.9z" fill="#FCD116"/>
    <path d="M165.2,420.1c17.7,2.7,35.1,6.1,52.5,9.9c15.4,3.5,30.7,7.3,45.9,11.5c2.5-3.5,3.8-5.3,6.4-8.8h-0.1 c-17.1-3-34.3-5.8-51.5-8C200.6,422.5,183,420.9,165.2,420.1z" fill="#FCD116"/>
    <path d="M165.2,420.1c11.6,19,23.2,38,34.8,57c0,0.1,0.1,0.1,0.1,0.2c11.9,19.6,23.9,39.2,36,58.7 c4.2-0.2,6.3-0.3,10.6-0.4c0-6.1,0-9.1,0-15.2c-13.9-17-27.8-34-41.6-51.1C191.8,452.8,178.5,436.4,165.2,420.1z" fill="#FCD116"/>
    <path d="M209.5,460.3c-14.7-13.5-29.4-27-44.3-40.2c14.2,14.8,28.2,29.8,42.2,44.8c13.4,14.4,26.9,28.8,40.3,43.2 c0-5,0-7.5,0-12.5C235,483.8,222.3,472,209.5,460.3z" fill="#FCD116"/>
    <path d="M165.2,420.1c9.7,21.5,19.5,43,29.3,64.4c8.2,18,16.4,36,24.7,53.9c3.4-0.2,5.1-0.3,8.5-0.5 c-0.1-0.1-0.1-0.2-0.2-0.4c-10.1-18.8-20.1-37.6-30.1-56.4C186.6,460.7,175.9,440.4,165.2,420.1z" fill="#FCD116"/>
    <path d="M168.2,501.8c-1-27.2-2-54.5-3-81.7c-1.2,27.6-2.5,55.2-3.7,82.8l0,0c-1.3,27.2-2.5,54.5-3.8,81.7 c2.7,3.8,4,5.6,6.8,9.4c2.7-4.7,4.1-7,6.9-11.7C170.3,555.5,169.2,528.6,168.2,501.8z" fill="#FCD116"/>
    <path d="M171.7,500.7c2,24.4,4,48.7,6,73.1c2.3-3.8,3.4-5.7,5.7-9.6c-2.8-21.7-5.6-43.3-8.3-65 c-3.3-26.4-6.7-52.8-10-79.2C167.4,446.9,169.5,473.8,171.7,500.7z" fill="#FCD116"/>
    <path d="M165.2,420.1c-3.5,27.5-7.1,55.1-10.6,82.6c-2.9,22.6-5.8,45.2-8.7,67.8c2.2,3.1,3.3,4.6,5.5,7.7 c0-0.1,0-0.1,0-0.2c2.2-25,4.4-50,6.5-75C160.4,475.3,162.8,447.7,165.2,420.1z" fill="#FCD116"/>
    <path d="M165.2,420.1c-13.3,20.7-26.4,41.6-39.3,62.7c-13.1,21.5-26,43.1-38.8,64.8c0,6.1-0.1,9.1-0.1,15.2 c3.8-1.3,5.8-1.9,9.6-3.1c11.2-23.6,22.5-47.1,34-70.5C141.9,466,153.5,443,165.2,420.1z" fill="#FCD116"/>
    <path d="M165.2,420.1c-10.8,23.9-21.4,47.8-32,71.7v0.1c-9.7,22.2-19.4,44.5-28.9,66.8c3.1-0.9,4.7-1.4,7.8-2.3 c7.9-20.7,15.8-41.4,23.8-62C145.6,469.6,155.3,444.8,165.2,420.1z" fill="#FCD116"/>
    <path d="M165.2,420.1c-14.8,18.1-29.2,36.5-43.4,55.1c0,0,0,0-0.1,0.1c-12,15.8-23.8,31.8-35.4,47.9 c0,5-0.1,7.5-0.1,12.4c12.3-19,24.8-37.8,37.5-56.6C137.3,459.2,151.1,439.5,165.2,420.1z" fill="#FCD116"/>
    <path d="M392.9,418.3c-5.2,8.5-10.4,17.1-15.5,25.6c10.4-3,15.6-4.4,26.1-7.2c5.5,9.3,11.1,18.6,16.6,27.9 c0.2-10.9,0.4-21.8,0.6-32.8c10.4-3.2,15.6-4.8,26-8C428.7,421.8,410.8,419.9,392.9,418.3z" fill="#FCD116"/>
    <path d="M446.7,423.8L446.7,423.8c-8.6-4.6-17.3-9.2-26-13.7c-0.2-11-0.4-21.9-0.6-32.9 c-5.5,8.2-11.1,16.4-16.6,24.6c-8.7-4-17.4-7.9-26.1-11.9l0,0c5.2,9.4,10.4,18.9,15.5,28.3C410.8,419.9,428.7,421.8,446.7,423.8z" fill="#FCD116"/>
    <path d="M39,713.4c0-0.1,0-0.1-0.1-0.2c-1.7,11.3-3.3,22.6-5,33.9c-1,0.7-1.6,1-2.6,1.7c-7.3,4.8-11,7.3-18.3,12.4 c-0.1,0.1-0.2,0.1-0.3,0.2c7.4,3,11,4.6,18.3,8c-1.4,11.3-2.8,22.7-4.2,34c6.9-21.5,13.9-43,20.9-64.5 C44.2,728.7,42.5,723.6,39,713.4z" fill="#FCD116"/>
    <path d="M68.4,728C68.4,728,68.4,727.9,68.4,728c-8.2,4.1-12.3,6.3-20.6,10.9c0,0-0.1,0-0.1,0.1 c-7,21.5-13.9,43-20.9,64.5c5.3-9.5,10.6-19,16-28.5c7.3,3.2,11,4.8,18.2,8.4c-2.6-9-5.2-18-7.8-26.9c0,0,0,0,0-0.1 c3.2-5.9,4.7-8.8,7.9-14.7C64,736.1,65.5,733.4,68.4,728z" fill="#FCD116"/>
    <path d="M72.4,164.5c-0.1-0.1-0.1-0.1-0.1-0.2c-6-6.5-9.1-9.8-15.2-16.1c2.8-11.2,5.7-22.4,8.5-33.5 c-6.4,7.9-12.8,15.9-19.2,23.9c-6.6-5.6-10-8.4-16.8-13.8c7.4,15.1,14.6,30.3,21.5,45.6C59.7,167.8,64,166.6,72.4,164.5z" fill="#FCD116"/>
    <path d="M41.5,204.1c3.2-11.2,6.3-22.4,9.5-33.6c-6.9-15.3-14.1-30.5-21.5-45.6c1.4,10,2.8,20.1,4.2,30.1 c-2.9,3.9-4.4,5.8-7.4,9.7c-4.9,6.5-7.4,9.7-12.4,16.3c0.1,0,0.1,0,0.2-0.1c9.2-2.8,13.7-4.1,22.5-6.4 C38.3,184.4,39.9,194.2,41.5,204.1z" fill="#FCD116"/>
  </g>
  <g opacity="0.3">
    <path d="M259.7,30c127.9,0,223.7,15.9,325.2,32.8C688.7,80,796.1,97.9,941,97.9c44.4,0,90-6.1,135.4-18.1 c30.5-8.1,61.9-19,93.6-32.7v757.2c-36.8,17.4-73.5,30.8-109.2,40C1020.3,854.7,979.7,860,940,860c-140.1,0-243.6-16.8-343.7-33 c-98.9-16.1-201.3-32.7-336.6-32.7c-45.7,0-91.1,5.3-135.1,15.8C93,817.6,61.3,827.9,30,841V86.6C67.1,69,103.8,55.4,139.2,46.1 C179.9,35.4,220.4,30,259.7,30 M1200,0c-89.2,45-174.4,67.9-259,67.9C660.3,67.9,524.3,0,259.7,0C175.2,0,89.1,23,0,67.9 c0,242.4,0,577.6,0,820c89-44.9,175.2-63.6,259.7-63.6c268.9,0,398.5,65.7,680.3,65.7c84.6,0,170.8-22,260-66.9 C1200,580.7,1200,242.4,1200,0L1200,0z" fill="#212121"/>
  </g>
</svg>