<svg viewBox="0 0 1200 1200" xmlns="http://www.w3.org/2000/svg" xmlns:xlink="http://www.w3.org/1999/xlink">
  <g>
    <path d="M0,837.6c50.1-24.4,101.5-45.9,156.6-55.8c46.8-8.4,94.8-9.2,142.2-7.9c101,2.7,201.8,15.9,301.2,33.3 c99.4,17.4,200.3,29.4,301.2,31.8c107.3,2.6,203.1-17,298.8-66.7c0,68.6,0,137.2,0,205.8c-94.6,49.4-189.6,69-295.9,66.6 c-101.9-2.3-203.8-14.3-304.1-31.7c-100.4-17.4-202.2-30.7-304.1-33.2c-45.2-1.1-90.9-0.5-135.6,6.9c-56.6,9.3-109.1,31-160.3,56.1 C0,974.4,0,906,0,837.6z" fill="#00A551"/>
    <path d="M0,632.9c50.2-24.3,101.6-46.1,156.7-56.6c46.7-8.9,94.7-9.9,142.1-8.6c101,2.8,201.8,16.1,301.2,33.8 c99.3,17.7,200.3,29.6,301.2,32.1c107.3,2.6,203.1-17.5,298.8-67c0,68.6,0,137.2,0,205.8c-95.7,49.7-191.4,69.3-298.8,66.7 c-100.9-2.5-201.8-14.4-301.2-31.8c-99.4-17.4-200.2-30.6-301.2-33.3c-47.4-1.3-95.4-0.5-142.2,7.9C101.5,791.7,50.1,813.2,0,837.6 C0,769.3,0,701.1,0,632.9z" fill="#FFD500"/>
    <path d="M0,428.2c50.3-24.2,101.7-46.4,156.7-57.4c46.7-9.4,94.6-10.7,142.1-9.4c101,2.8,201.9,16.3,301.2,34.2 c99.3,18,200.3,29.9,301.2,32.4c107.4,2.7,203.1-17.9,298.8-67.3c0,68.6,0,137.2,0,205.8c-95.7,49.5-191.4,69.6-298.8,67 C800.3,631,699.3,619.1,600,601.4c-99.4-17.7-200.2-31-301.2-33.8c-47.4-1.3-95.4-0.3-142.1,8.6C101.6,586.7,50.2,608.6,0,632.9 C0,564.6,0,496.4,0,428.2z" fill="#1A206D"/>
    <path d="M0,222.9c50.4-23.9,101.9-46.3,156.8-57.7c46.7-9.7,94.5-11.1,142-9.8c101,2.8,201.9,16.3,301.2,34.5 s200.3,30.1,301.2,32.6c107.4,2.6,203-18.3,298.8-67.5c0,68.6,0,137.2,0,205.8c-95.7,49.4-191.4,70-298.8,67.3 c-100.9-2.5-201.9-14.5-301.2-32.4c-99.4-18-200.2-31.4-301.2-34.2c-47.5-1.3-95.4,0-142.1,9.4c-55,11-106.4,33.2-156.7,57.4 C0,359.7,0,291.3,0,222.9z" fill="#EA2839"/>
  </g>
  <g opacity="0.3">
    <path d="M259.7,185c127.9,0,223.7,15.9,325.2,32.8C688.7,235,796.1,252.9,941,252.9c44.4,0,90-6.1,135.4-18.1 c30.5-8.1,61.9-19,93.6-32.7v757.2c-36.8,17.4-73.5,30.8-109.2,40c-40.5,10.4-81.1,15.7-120.8,15.7c-140.1,0-243.6-16.8-343.7-33 c-98.9-16.1-201.3-32.7-336.6-32.7c-45.7,0-91.1,5.3-135.1,15.8C93,972.6,61.3,982.9,30,996V241.6c37.1-17.6,73.8-31.2,109.2-40.5 C179.9,190.4,220.4,185,259.7,185 M1200,155c-89.2,45-174.4,67.9-259,67.9c-280.7,0-416.7-67.9-681.3-67.9 C175.2,155,89.1,178,0,222.9c0,242.4,0,577.6,0,820c89-44.9,175.2-63.6,259.7-63.6c268.9,0,398.5,65.7,680.3,65.7 c84.6,0,170.8-22,260-66.9C1200,735.7,1200,397.4,1200,155L1200,155z" fill="#212121"/>
  </g>
</svg>