<svg viewBox="0 0 1200 890" xmlns="http://www.w3.org/2000/svg" xmlns:xlink="http://www.w3.org/1999/xlink">
  <g>
    <path d="M0,625.3c94.7-49,192.5-67,298.6-64.1c101.1,2.8,201.9,16.6,301.4,33.6c99.5,17.1,200.3,29.2,301.3,31.7 c107.2,2.6,203.2-18,298.7-67.5c0,87.7,0,175.4,0,263.1c-95.5,49.7-191.4,70.1-298.8,67.5c-100.9-2.5-201.8-14.4-301.2-31.7 c-99.5-17.3-200.4-30.4-301.5-33.1C192.2,822,95.1,838.7,0,887.8C0,800.3,0,712.8,0,625.3z" fill="#1EB53A"/>
    <path d="M0,67.9c0,87.5,0,175,0,262.6c94.1-49.1,192.9-69.6,298.7-66.3C399.8,267.3,500.4,282,600,299 c99.5,16.9,200.3,29.2,301.3,31.7c107.1,2.6,203.2-18.3,298.7-67.5c0-87.7,0-175.4,0-263.1c-95.5,48.9-191.6,70.1-298.7,67.5 c-101-2.5-201.8-15-301.3-31.7C500.4,19.1,399.9,3.7,298.8,0.5C193.1-2.9,93.8,18.8,0,67.9z M247.4,227.4c-3.3-3.3-4.9-5-8.2-8.3 c-3.2,3.6-4.9,5.4-8.1,9c1.2-5.5,1.8-8.2,3-13.7c-3.2-3.3-4.8-4.9-8-8.1c4-0.3,6.1-0.4,10.1-0.6c1.2-5.6,1.8-8.4,3-14 c1.2,5.4,1.8,8,3,13.4c4.1-0.2,6.2-0.2,10.3-0.3c-3.3,3.5-4.9,5.3-8.2,8.8C245.6,219.1,246.2,221.9,247.4,227.4z M244.4,134.5 c1.2,5.4,1.8,8,3,13.4c-3.3-3.3-4.9-5-8.2-8.2c-2.1,2.2-3.2,3.3-5.3,5.5c-2.4,31-16.6,63.4-41.8,82.5c0.3,1.3,0.4,1.9,0.7,3.2 c-0.9-0.8-1.3-1.2-2.2-2c-7.3,5.2-15,8.6-23,10c-3.7,0.6-7.4,1-10.8,0.6c-3.4,1.6-7.1,2.7-10.7,3.5 c-46.6,10.1-62.7-46.4-63.6-80.5c-1-39.4,16.6-106.1,62.8-116.5c3.6-0.8,7.3-1.3,10.8-1c3.5-1.7,7.2-2.7,10.9-3.4 c45.9-8.2,64.5,50.4,67.3,84.8c0.6,0,1-0.1,1.6-0.1c1.3-5.5,1.9-8.2,3.2-13.7c1.2,5.3,1.8,8,3,13.4c4.1-0.2,6.2-0.2,10.3-0.4 C249.3,129.2,247.7,131,244.4,134.5z M305.9,227.7c-3.6-3.6-5.4-5.3-8.9-8.9c-3.5,3.3-5.3,5-8.8,8.4c1.3-5.4,1.9-8.1,3.2-13.5 c-3.5-3.5-5.2-5.3-8.7-8.7c4.3,0.1,6.5,0.1,10.9,0.2c1.3-5.5,2-8.3,3.3-13.8c1.3,5.4,2,8.2,3.3,13.6c4.5,0.1,6.7,0.2,11.2,0.4 c-3.6,3.3-5.4,4.9-9,8.2C303.9,219.3,304.6,222.1,305.9,227.7z M302.6,134.6c1.3,5.5,2,8.2,3.3,13.6c-3.6-3.6-5.4-5.3-8.9-8.9 c-3.5,3.3-5.3,5-8.8,8.3c1.3-5.4,1.9-8.1,3.2-13.4c-3.5-3.5-5.2-5.3-8.7-8.7c4.3,0.1,6.5,0.1,10.9,0.2c1.3-5.4,2-8.1,3.3-13.4 c1.3,5.4,2,8.2,3.3,13.6c4.5,0.1,6.7,0.2,11.2,0.4C308,129.7,306.2,131.3,302.6,134.6z M302.7,55.6c1.3,5.4,2,8.2,3.3,13.6 c-3.6-3.6-5.4-5.3-8.9-8.9c-3.5,3.3-5.3,5-8.8,8.3c1.3-5.4,1.9-8.1,3.2-13.4c-3.5-3.5-5.2-5.3-8.7-8.7c4.3,0.1,6.5,0.1,10.9,0.2 c1.3-5.4,2-8,3.3-13.4c1.3,5.4,2,8.2,3.3,13.6c4.5,0.1,6.7,0.2,11.2,0.4C308,50.6,306.2,52.3,302.7,55.6z M369.4,231.7 c-3.8-3.7-5.7-5.6-9.5-9.3c-3.8,3.1-5.7,4.7-9.4,7.9c1.4-5.3,2.1-8,3.5-13.3c-3.8-3.7-5.6-5.6-9.4-9.2c4.7,0.3,7.1,0.5,11.8,0.8 c1.4-5.4,2.1-8.1,3.5-13.6c1.4,5.5,2.1,8.3,3.5,13.8c4.8,0.4,7.2,0.6,12,1c-3.8,3.1-5.7,4.7-9.5,7.8 C367.3,223.2,368,226,369.4,231.7z M365.9,138.4c1.4,5.5,2.1,8.3,3.5,13.8c-3.8-3.7-5.7-5.6-9.5-9.3c-3.8,3.1-5.7,4.7-9.4,7.9 c1.4-5.3,2.1-8,3.5-13.3c-3.8-3.7-5.6-5.6-9.4-9.2c4.7,0.3,7.1,0.5,11.8,0.9c1.4-5.3,2.1-7.9,3.5-13.2c1.4,5.5,2.1,8.3,3.5,13.8 c4.8,0.4,7.2,0.6,12,1C371.6,133.8,369.7,135.3,365.9,138.4z M365.9,59.4c1.4,5.5,2.1,8.3,3.5,13.8c-3.8-3.7-5.7-5.6-9.5-9.3 c-3.8,3.1-5.7,4.7-9.4,7.8c1.4-5.3,2.1-7.9,3.5-13.2c-3.8-3.7-5.6-5.6-9.4-9.2c4.7,0.3,7.1,0.5,11.8,0.9c1.4-5.3,2.1-7.9,3.5-13.2 c1.4,5.5,2.1,8.3,3.5,13.8c4.8,0.4,7.2,0.6,12,1C371.6,54.8,369.7,56.3,365.9,59.4z M435.5,238.3c-3.9-3.9-5.8-5.8-9.7-9.7 c-3.9,3-5.8,4.5-9.7,7.5c1.4-5.2,2.2-7.9,3.6-13.1c-3.9-3.8-5.8-5.8-9.7-9.6c4.9,0.5,7.3,0.8,12.2,1.3c1.4-5.4,2.2-8.1,3.6-13.4 c1.4,5.6,2.2,8.3,3.6,13.9c4.9,0.6,7.3,0.8,12.2,1.4c-3.9,3-5.8,4.4-9.7,7.4C433.4,229.7,434.1,232.6,435.5,238.3z M431.9,145 c1.4,5.6,2.2,8.3,3.6,13.9c-3.9-3.9-5.8-5.8-9.7-9.7c-3.9,3-5.8,4.5-9.7,7.5c1.4-5.2,2.2-7.9,3.6-13.1c-3.9-3.9-5.8-5.8-9.7-9.6 c4.9,0.5,7.3,0.8,12.2,1.3c1.4-5.2,2.2-7.9,3.6-13.1c1.4,5.6,2.2,8.3,3.6,13.9c4.9,0.6,7.3,0.8,12.2,1.4 C437.8,140.6,435.8,142.1,431.9,145z M431.9,66.1c1.4,5.6,2.2,8.3,3.6,13.9c-3.9-3.9-5.8-5.8-9.7-9.7c-3.9,3-5.8,4.5-9.7,7.5 c1.4-5.2,2.2-7.9,3.6-13.1c-3.9-3.9-5.8-5.8-9.7-9.6c4.9,0.5,7.3,0.8,12.2,1.3c1.4-5.2,2.2-7.8,3.6-13.1c1.4,5.6,2.2,8.3,3.6,13.9 c4.9,0.6,7.3,0.9,12.2,1.4C437.8,61.6,435.8,63.1,431.9,66.1z" fill="#0099B5"/>
    <path d="M0,608.9c94.7-49,192.5-67.1,298.6-64.2c101.1,2.8,201.9,16.6,301.4,33.7c99.5,17.1,200.3,29.2,301.3,31.7 c107.2,2.6,203.2-18.1,298.7-67.5c0,6.6,0,9.9,0,16.4c-95.5,49.4-191.5,70.1-298.7,67.5c-101-2.5-201.8-14.6-301.3-31.7 c-99.5-17.1-200.3-30.8-301.4-33.6c-106.1-3-203.8,15-298.6,64.1C0,618.7,0,615.4,0,608.9z" fill="#CE1126"/>
    <path d="M0,330.4c94.1-49.1,192.9-69.6,298.7-66.3c101.1,3.1,201.7,17.8,301.3,34.8 c99.5,16.9,200.3,29.2,301.3,31.7c107.1,2.6,203.2-18.3,298.7-67.5c0,6.6,0,9.9,0,16.4c-95.5,49.2-191.6,70.1-298.7,67.5 c-101-2.5-201.8-14.8-301.3-31.7c-99.6-16.9-200.2-31.6-301.3-34.7C192.8,277.4,94.1,297.7,0,346.8C0,340.3,0,337,0,330.4z" fill="#CE1126"/>
    <path d="M0,477.9c0,43.7,0,87.4,0,131c94.7-49,192.5-67.1,298.6-64.2c101.1,2.8,201.9,16.6,301.4,33.7 c99.5,17.1,200.3,29.2,301.3,31.7c107.2,2.6,203.2-18.1,298.7-67.5c0-43.8,0-87.7,0-131.5s0-87.7,0-131.5 c-95.5,49.2-191.6,70.1-298.7,67.5c-101-2.5-201.8-14.8-301.3-31.7c-99.6-16.9-200.2-31.6-301.3-34.7 c-105.9-3.3-204.6,17-298.7,66.1C0,390.5,0,434.2,0,477.9z" fill="#FFFFFF"/>
    <path d="M103.4,155.6c-0.9-38,14.1-92.6,52.8-110.6c-3.5-0.3-7.2,0.1-10.8,1c-46.2,10.4-63.8,77.1-62.8,116.5 c0.9,34.1,17,90.6,63.6,80.5c3.6-0.8,7.3-1.8,10.7-3.5C116,236.8,104.2,187.8,103.4,155.6z" fill="#FFFFFF"/>
    <path d="M234.2,135c-3.2-3.2-4.9-4.9-8.1-8.1c3.3-0.2,5-0.3,8.3-0.5C231.5,92,213,33.5,167.1,41.6 c-3.7,0.7-7.4,1.7-10.9,3.4c-38.7,17.9-53.7,72.6-52.8,110.6c0.8,32.2,12.6,81.2,53.5,83.9c3.4,0.3,7.1,0,10.8-0.6 c8-1.4,15.7-4.8,23-9.7c-2.2-2.1-3.3-3.1-5.5-5.2c-3.1,3.8-4.6,5.8-7.7,9.7c1.1-5.6,1.7-8.4,2.8-13.9c-3.1-3-4.6-4.4-7.7-7.4 c3.8-0.6,5.8-0.9,9.6-1.5c1.1-5.7,1.7-8.5,2.8-14.2c1.2,5.2,1.7,7.9,2.9,13.1c3.9-0.5,5.8-0.8,9.8-1.2c-3.1,3.8-4.7,5.7-7.8,9.5 c0.9,4,1.3,6,2.2,9.9c25.3-19,39.4-51.4,41.8-82.5c-1.2,1.3-1.8,1.9-3,3.1C232.2,143.2,232.9,140.5,234.2,135z" fill="#0099B5"/>
    <path d="M297,191.5c-1.3,5.4-2,8.1-3.3,13.4c0.7,0,1.1,0,1.8,0C296.1,199.6,296.4,196.9,297,191.5z" fill="#FFFFFF"/>
    <path d="M296.3,205c0.6,0,0.9,0,1.5,0c1,0,1.5,0,2.5,0.1c-1.3-5.5-2-8.2-3.3-13.6c-0.6,5.4-0.9,8.1-1.5,13.5 C295.8,205,296,205,296.3,205z" fill="#FFFFFF"/>
    <path d="M297.8,205c0,1.2,0,1.8,0,3l0,0c0.1-0.1,0.2-0.2,0.3-0.3c0.1,0.1,0.2,0.2,0.3,0.3c5.3-1,7.9-1.5,13.3-2.5 c-4.5-0.2-6.8-0.3-11.2-0.4C299.3,205.1,298.8,205.1,297.8,205z" fill="#FFFFFF"/>
    <path d="M298.3,208c0.1,0.3,0.2,0.4,0.3,0.7c0.3,0,0.5,0,0.8,0c-0.1,0.3-0.2,0.4-0.3,0.7c0.9-0.4,1.4-0.6,2.3-0.9 c0.5,2.1,0.8,3.2,1.3,5.3c3.6-3.3,5.4-5,9-8.2C306.2,206.5,303.6,207,298.3,208z" fill="#FFFFFF"/>
    <path d="M297.8,208c0,0.1,0,0.2,0,0.3C297.8,208.2,297.8,208.1,297.8,208z" fill="#FFFFFF"/>
    <path d="M282.8,204.7c3.4,3.5,5.2,5.2,8.7,8.7c0.2-0.9,0.3-1.4,0.5-2.3C288.3,208.5,286.5,207.2,282.8,204.7z" fill="#FFFFFF"/>
    <path d="M299.1,209.4c0.1-0.3,0.2-0.4,0.3-0.7c-0.3,0-0.5,0-0.8,0c0.1,0.4,0.2,0.6,0.3,1 C298.9,209.5,299,209.5,299.1,209.4z" fill="#FFFFFF"/>
    <path d="M292.8,208.2c1,0.6,1.5,0.8,2.5,1.4c0.3-0.8,0.5-1.2,0.8-2c0.4,0.8,0.6,1.2,1,2c0.3-0.5,0.5-0.8,0.8-1.3 c0-0.1,0-0.2,0-0.3c0-1.2,0-1.8,0-3c-0.6,0-0.9,0-1.5,0c-0.3,0-0.5,0-0.8,0c-0.7,0-1.1,0-1.8,0c-4.4-0.1-6.6-0.2-10.9-0.2 c3.6,2.6,5.5,3.9,9.2,6.5C292.3,210,292.5,209.4,292.8,208.2z" fill="#FFFFFF"/>
    <path d="M301.3,208.4c-0.9,0.4-1.4,0.5-2.3,0.9c-0.1,0.1-0.2,0.2-0.3,0.3c0.3,0.7,0.5,1,0.8,1.7 c0.2,0.1,0.3,0.2,0.5,0.3c-0.1,0.1-0.2,0.2-0.3,0.3c2.4,6.3,3.6,9.4,6.1,15.7c-1.3-5.6-2-8.4-3.3-14 C302.1,211.6,301.8,210.6,301.3,208.4z" fill="#FFFFFF"/>
    <path d="M297.8,208c0,0.1,0,0.2,0,0.3c-0.3,0.5-0.5,0.8-0.8,1.3c0.2,0.4,0.3,0.6,0.5,1c0.8,0.3,1.2,0.4,2,0.7 c-0.3-0.7-0.5-1-0.8-1.7c-0.1-0.4-0.2-0.6-0.3-1c-0.1-0.3-0.2-0.4-0.3-0.7c-0.1-0.1-0.2-0.2-0.3-0.3 C298,207.8,297.9,207.9,297.8,208z" fill="#FFFFFF"/>
    <path d="M299.8,212c-0.4,0.4-0.6,0.6-1,1c0.6,1.1,0.9,1.6,1.5,2.7c-1.3,1.3-2,1.9-3.3,3.2c3.5,3.5,5.3,5.3,8.9,8.9 C303.5,221.4,302.2,218.3,299.8,212z" fill="#FFFFFF"/>
    <path d="M297,209.6c-0.4-0.8-0.6-1.2-1-2c-0.3,0.8-0.5,1.2-0.8,2c0.9,0.4,1.4,0.6,2.3,1.1 C297.3,210.2,297.2,210,297,209.6z" fill="#FFFFFF"/>
    <path d="M300.3,215.7c-0.6-1.1-0.9-1.6-1.5-2.7c-4.2,5.7-6.4,8.5-10.5,14.2c3.5-3.4,5.2-5,8.8-8.4 C298.4,217.6,299,216.9,300.3,215.7z" fill="#FFFFFF"/>
    <path d="M298.8,213c0.4-0.4,0.6-0.6,1-1c0.1-0.1,0.2-0.2,0.3-0.3c-0.2-0.1-0.3-0.2-0.5-0.3c-0.8-0.3-1.2-0.4-2-0.7 c-0.9-0.4-1.4-0.6-2.3-1.1c-1-0.6-1.5-0.8-2.5-1.4c-0.3,1.2-0.5,1.8-0.8,2.9c-0.2,0.9-0.3,1.4-0.5,2.3c-1.3,5.5-2,8.3-3.2,13.8 C292.5,221.5,294.6,218.6,298.8,213z" fill="#FFFFFF"/>
    <path d="M297.1,112.4c-1.3,5.4-2,8-3.3,13.4c0.7,0,1.1,0,1.8,0C296.2,120.4,296.5,117.7,297.1,112.4z" fill="#FFFFFF"/>
    <path d="M296.3,125.8c0.6,0,0.9,0,1.5,0c1,0,1.5,0,2.5,0.1c-1.3-5.4-2-8.2-3.3-13.6c-0.6,5.4-0.9,8.1-1.5,13.5 C295.9,125.8,296,125.8,296.3,125.8z" fill="#FFFFFF"/>
    <path d="M297.8,125.9c0,1.2,0,1.8,0,3l0,0c0.1-0.1,0.2-0.2,0.3-0.3c0.1,0.1,0.2,0.2,0.3,0.3 c5.3-1,7.9-1.5,13.3-2.5c-4.5-0.2-6.8-0.3-11.2-0.4C299.3,125.9,298.8,125.9,297.8,125.9z" fill="#FFFFFF"/>
    <path d="M298.3,128.9c0.1,0.3,0.2,0.4,0.3,0.7c0.3,0,0.5,0,0.8,0c-0.1,0.3-0.2,0.4-0.3,0.7 c0.9-0.4,1.4-0.5,2.3-0.9c0.5,2.1,0.8,3.2,1.3,5.3c3.6-3.3,5.4-4.9,9-8.2C306.2,127.4,303.6,127.9,298.3,128.9z" fill="#FFFFFF"/>
    <path d="M297.8,128.9L297.8,128.9c0,0.1,0,0.2,0,0.3C297.8,129.1,297.8,129,297.8,128.9z" fill="#FFFFFF"/>
    <path d="M282.9,125.5c3.4,3.5,5.2,5.2,8.7,8.7c0.2-0.9,0.3-1.4,0.5-2.3C288.3,129.4,286.5,128.1,282.9,125.5z" fill="#FFFFFF"/>
    <path d="M299.1,130.2c0.1-0.3,0.2-0.4,0.3-0.7c-0.3,0-0.5,0-0.8,0c0.1,0.4,0.2,0.6,0.3,1 C298.9,130.4,299,130.3,299.1,130.2z" fill="#FFFFFF"/>
    <path d="M292.8,129c1,0.6,1.5,0.8,2.5,1.4c0.3-0.8,0.5-1.2,0.8-2c0.4,0.8,0.6,1.2,1,2c0.3-0.5,0.5-0.8,0.8-1.3 c0-0.1,0-0.2,0-0.3c0-1.2,0-1.8,0-3c-0.6,0-0.9,0-1.5,0c-0.3,0-0.5,0-0.8,0c-0.7,0-1.1,0-1.8,0c-4.4-0.1-6.6-0.2-10.9-0.2 c3.6,2.6,5.5,3.9,9.2,6.4C292.3,130.8,292.5,130.2,292.8,129z" fill="#FFFFFF"/>
    <path d="M301.4,129.3c-0.9,0.4-1.4,0.5-2.3,0.9c-0.1,0.1-0.2,0.2-0.3,0.3c0.3,0.7,0.5,1,0.8,1.7 c0.2,0.1,0.3,0.2,0.5,0.3c-0.1,0.1-0.2,0.2-0.3,0.3c2.4,6.3,3.6,9.4,6.1,15.7c-1.3-5.6-2-8.4-3.3-14 C302.1,132.5,301.9,131.4,301.4,129.3z" fill="#FFFFFF"/>
    <path d="M297.1,130.5c0.2,0.4,0.3,0.6,0.5,1c0.8,0.3,1.2,0.4,2,0.7c-0.3-0.7-0.5-1-0.8-1.7c-0.1-0.4-0.2-0.6-0.3-1 c-0.1-0.3-0.2-0.4-0.3-0.7c-0.1-0.1-0.2-0.2-0.3-0.3c-0.1,0.1-0.2,0.2-0.3,0.3c0,0.1,0,0.2,0,0.3 C297.5,129.7,297.4,130,297.1,130.5z" fill="#FFFFFF"/>
    <path d="M299.8,132.9c-0.4,0.4-0.6,0.6-1,1c0.6,1.1,0.9,1.6,1.5,2.7c-1.3,1.3-2,1.9-3.3,3.2 c3.5,3.5,5.3,5.3,8.9,8.9C303.5,142.3,302.3,139.2,299.8,132.9z" fill="#FFFFFF"/>
    <path d="M297.1,130.5c-0.4-0.8-0.6-1.2-1-2c-0.3,0.8-0.5,1.2-0.8,2c0.9,0.4,1.4,0.6,2.3,1.1 C297.4,131.1,297.3,130.9,297.1,130.5z" fill="#FFFFFF"/>
    <path d="M300.4,136.5c-0.6-1.1-0.9-1.6-1.5-2.7c-4.2,5.7-6.4,8.5-10.5,14.2c3.5-3.4,5.2-5,8.8-8.3 C298.4,138.4,299,137.8,300.4,136.5z" fill="#FFFFFF"/>
    <path d="M298.8,133.8c0.4-0.4,0.6-0.6,1-1c0.1-0.1,0.2-0.2,0.3-0.3c-0.2-0.1-0.3-0.2-0.5-0.3 c-0.8-0.3-1.2-0.4-2-0.7c-0.9-0.4-1.4-0.6-2.3-1.1c-1-0.6-1.5-0.8-2.5-1.4c-0.3,1.2-0.5,1.8-0.8,2.9c-0.2,0.9-0.3,1.4-0.5,2.3 c-1.3,5.5-1.9,8.3-3.2,13.8C292.5,142.3,294.6,139.5,298.8,133.8z" fill="#FFFFFF"/>
    <path d="M297.1,33.3c-1.3,5.4-2,8-3.3,13.4c0.7,0,1.1,0,1.8,0C296.2,41.4,296.5,38.7,297.1,33.3z" fill="#FFFFFF"/>
    <path d="M296.3,46.8c0.6,0,0.9,0,1.5,0c1,0,1.5,0,2.5,0.1c-1.3-5.4-2-8.2-3.3-13.6c-0.6,5.4-0.9,8.1-1.5,13.5 C295.9,46.8,296,46.8,296.3,46.8z" fill="#FFFFFF"/>
    <path d="M297.8,46.8c0,1.2,0,1.8,0,3l0,0c0.1-0.1,0.2-0.2,0.3-0.3c0.1,0.1,0.2,0.2,0.3,0.3c5.3-1,7.9-1.5,13.3-2.5 c-4.5-0.2-6.8-0.3-11.2-0.4C299.4,46.9,298.8,46.9,297.8,46.8z" fill="#FFFFFF"/>
    <path d="M298.3,49.8c0.1,0.3,0.2,0.4,0.3,0.7c0.3,0,0.5,0,0.8,0c-0.1,0.3-0.2,0.4-0.3,0.7c0.9-0.4,1.4-0.5,2.3-0.9 c0.5,2.1,0.8,3.2,1.3,5.3c3.6-3.3,5.4-4.9,9-8.2C306.3,48.3,303.6,48.8,298.3,49.8z" fill="#FFFFFF"/>
    <path d="M297.8,49.8L297.8,49.8c0,0.1,0,0.2,0,0.3C297.8,50,297.8,49.9,297.8,49.8z" fill="#FFFFFF"/>
    <path d="M282.9,46.5c3.4,3.5,5.2,5.2,8.7,8.7c0.2-0.9,0.3-1.4,0.5-2.3C288.4,50.3,286.5,49.1,282.9,46.5z" fill="#FFFFFF"/>
    <path d="M299.1,51.2c0.1-0.3,0.2-0.4,0.3-0.7c-0.3,0-0.5,0-0.8,0c0.1,0.4,0.2,0.6,0.3,1 C299,51.4,299,51.3,299.1,51.2z" fill="#FFFFFF"/>
    <path d="M292.8,50c1,0.6,1.5,0.8,2.5,1.4c0.3-0.8,0.5-1.2,0.8-2c0.4,0.8,0.6,1.2,1,2c0.3-0.5,0.5-0.8,0.8-1.3 c0-0.1,0-0.2,0-0.3c0-1.2,0-1.8,0-3c-0.6,0-0.9,0-1.5,0c-0.3,0-0.5,0-0.8,0c-0.7,0-1.1,0-1.8,0c-4.4-0.1-6.6-0.2-10.9-0.2 c3.6,2.6,5.5,3.8,9.2,6.4C292.4,51.8,292.5,51.2,292.8,50z" fill="#FFFFFF"/>
    <path d="M301.4,50.3c-0.9,0.4-1.4,0.5-2.3,0.9c-0.1,0.1-0.2,0.2-0.3,0.3c0.3,0.7,0.5,1,0.8,1.7 c0.2,0.1,0.3,0.2,0.5,0.3c-0.1,0.1-0.2,0.2-0.3,0.3c2.4,6.3,3.6,9.4,6.1,15.7c-1.3-5.6-2-8.4-3.3-14 C302.1,53.4,301.9,52.4,301.4,50.3z" fill="#FFFFFF"/>
    <path d="M297.1,51.4c0.2,0.4,0.3,0.6,0.5,1c0.8,0.3,1.2,0.4,2,0.7c-0.3-0.7-0.5-1-0.8-1.7c-0.1-0.4-0.2-0.6-0.3-1 c-0.1-0.3-0.2-0.4-0.3-0.7c-0.1-0.1-0.2-0.2-0.3-0.3c-0.1,0.1-0.2,0.2-0.3,0.3c0,0.1,0,0.2,0,0.3 C297.5,50.7,297.4,50.9,297.1,51.4z" fill="#FFFFFF"/>
    <path d="M299.9,53.8c-0.4,0.4-0.6,0.6-1,1c0.6,1.1,0.9,1.6,1.5,2.7c-1.3,1.3-2,1.9-3.3,3.2 c3.5,3.5,5.3,5.3,8.9,8.9C303.5,63.2,302.3,60.1,299.9,53.8z" fill="#FFFFFF"/>
    <path d="M297.1,51.4c-0.4-0.8-0.6-1.2-1-2c-0.3,0.8-0.5,1.2-0.8,2c0.9,0.4,1.4,0.6,2.3,1.1 C297.4,52,297.3,51.8,297.1,51.4z" fill="#FFFFFF"/>
    <path d="M300.4,57.5c-0.6-1.1-0.9-1.6-1.5-2.7c-4.2,5.7-6.4,8.5-10.5,14.2c3.5-3.4,5.2-5,8.8-8.3 C298.4,59.4,299,58.7,300.4,57.5z" fill="#FFFFFF"/>
    <path d="M298.8,54.8c0.4-0.4,0.6-0.6,1-1c0.1-0.1,0.2-0.2,0.3-0.3c-0.2-0.1-0.3-0.2-0.5-0.3 c-0.8-0.3-1.2-0.4-2-0.7c-0.9-0.4-1.4-0.6-2.3-1.1c-1-0.6-1.5-0.8-2.5-1.4c-0.3,1.2-0.5,1.8-0.8,2.9c-0.2,0.9-0.3,1.4-0.5,2.3 c-1.3,5.5-1.9,8.2-3.2,13.8C292.5,63.3,294.6,60.4,298.8,54.8z" fill="#FFFFFF"/>
    <path d="M360,195c-1.4,5.3-2.1,7.9-3.5,13.2c0.8,0.1,1.1,0.1,1.9,0.1C359,203,359.3,200.3,360,195z" fill="#FFFFFF"/>
    <path d="M359.1,208.4c0.6,0,1,0.1,1.6,0.1c1.1,0.1,1.6,0.1,2.7,0.2c-1.4-5.5-2.1-8.3-3.5-13.8 c-0.6,5.4-1,8-1.6,13.4C358.7,208.4,358.8,208.4,359.1,208.4z" fill="#FFFFFF"/>
    <path d="M360.8,208.5c0,1.2,0,1.8,0,3l0,0c0.1-0.1,0.2-0.2,0.3-0.3c0.1,0.1,0.2,0.2,0.3,0.4 c5.6-0.7,8.5-1.1,14.1-1.8c-4.8-0.4-7.2-0.6-12-1C362.4,208.7,361.8,208.6,360.8,208.5z" fill="#FFFFFF"/>
    <path d="M361.3,211.6c0.1,0.3,0.2,0.4,0.3,0.7c0.3,0,0.5,0,0.8,0.1c-0.1,0.3-0.2,0.4-0.3,0.6 c1-0.3,1.5-0.5,2.4-0.8c0.5,2.2,0.8,3.2,1.4,5.4c3.8-3.1,5.7-4.7,9.5-7.8C369.8,210.5,366.9,210.8,361.3,211.6z" fill="#FFFFFF"/>
    <path d="M360.8,211.5c0,0.1,0,0.2,0,0.3C360.8,211.7,360.8,211.6,360.8,211.5z" fill="#FFFFFF"/>
    <path d="M344.6,207.4c3.7,3.7,5.6,5.5,9.4,9.2c0.2-0.9,0.3-1.4,0.5-2.3C350.6,211.5,348.6,210.1,344.6,207.4z" fill="#FFFFFF"/>
    <path d="M362.1,212.9c0.1-0.3,0.2-0.4,0.3-0.6c-0.3,0-0.5,0-0.8-0.1c0.1,0.4,0.2,0.6,0.3,1 C361.9,213.1,362,213.1,362.1,212.9z" fill="#FFFFFF"/>
    <path d="M355.4,211.4c1.1,0.6,1.6,0.9,2.7,1.5c0.3-0.8,0.5-1.1,0.8-1.9c0.4,0.8,0.6,1.2,1.1,2.1 c0.3-0.5,0.5-0.8,0.8-1.3c0-0.1,0-0.2,0-0.3c0-1.2,0-1.8,0-3c-0.6-0.1-1-0.1-1.6-0.1c-0.3,0-0.5,0-0.8-0.1 c-0.8-0.1-1.1-0.1-1.9-0.1c-4.7-0.4-7.1-0.5-11.8-0.8c4,2.8,5.9,4.2,9.9,7C354.9,213.2,355,212.6,355.4,211.4z" fill="#FFFFFF"/>
    <path d="M364.6,212.1c-1,0.3-1.5,0.5-2.4,0.8c-0.1,0.1-0.2,0.2-0.3,0.3c0.3,0.7,0.5,1,0.8,1.7 c0.2,0.1,0.3,0.2,0.5,0.4c-0.1,0.1-0.2,0.2-0.3,0.3c2.6,6.4,3.9,9.6,6.5,16c-1.4-5.7-2.1-8.5-3.5-14.1 C365.4,215.4,365.1,214.3,364.6,212.1z" fill="#FFFFFF"/>
    <path d="M360.8,211.5c0,0.1,0,0.2,0,0.3c-0.3,0.5-0.5,0.8-0.8,1.3c0.2,0.4,0.3,0.6,0.5,1c0.9,0.3,1.3,0.5,2.2,0.8 c-0.3-0.7-0.5-1-0.8-1.7c-0.1-0.4-0.2-0.6-0.3-1c-0.1-0.3-0.2-0.4-0.3-0.7c-0.1-0.1-0.2-0.2-0.3-0.4 C360.9,211.3,360.9,211.4,360.8,211.5z" fill="#FFFFFF"/>
    <path d="M362.9,215.6c-0.4,0.4-0.6,0.5-1.1,0.9c0.6,1.1,1,1.7,1.6,2.8c-1.4,1.2-2.1,1.8-3.5,3 c3.8,3.7,5.7,5.6,9.5,9.3C366.8,225.2,365.5,222,362.9,215.6z" fill="#FFFFFF"/>
    <path d="M359.9,213.1c-0.4-0.8-0.6-1.2-1.1-2.1c-0.3,0.8-0.5,1.1-0.8,1.9c1,0.5,1.5,0.7,2.4,1.2 C360.3,213.7,360.2,213.5,359.9,213.1z" fill="#FFFFFF"/>
    <path d="M363.5,219.3c-0.6-1.1-1-1.7-1.6-2.8c-4.5,5.4-6.8,8.2-11.3,13.7c3.8-3.2,5.6-4.7,9.4-7.9 C361.4,221.1,362.1,220.5,363.5,219.3z" fill="#FFFFFF"/>
    <path d="M361.8,216.5c0.4-0.4,0.6-0.5,1.1-0.9c0.1-0.1,0.2-0.2,0.3-0.3c-0.2-0.1-0.3-0.2-0.5-0.4 c-0.9-0.3-1.3-0.5-2.2-0.8c-1-0.5-1.5-0.7-2.4-1.2c-1.1-0.6-1.6-0.9-2.7-1.5c-0.3,1.2-0.5,1.7-0.8,2.9c-0.2,0.9-0.3,1.4-0.5,2.3 c-1.4,5.4-2.1,8.2-3.5,13.6C355,224.7,357.3,222,361.8,216.5z" fill="#FFFFFF"/>
    <path d="M360,115.9c-1.4,5.3-2.1,7.9-3.5,13.2c0.8,0.1,1.1,0.1,1.9,0.1C359,123.9,359.3,121.2,360,115.9z" fill="#FFFFFF"/>
    <path d="M359.2,129.3c0.6,0.1,1,0.1,1.6,0.1c1.1,0.1,1.6,0.1,2.7,0.2c-1.4-5.5-2.1-8.3-3.5-13.8 c-0.6,5.4-1,8-1.6,13.4C358.7,129.3,358.8,129.3,359.2,129.3z" fill="#FFFFFF"/>
    <path d="M360.8,129.5c0,1.2,0,1.8,0,3l0,0c0.1-0.1,0.2-0.2,0.3-0.3c0.1,0.1,0.2,0.2,0.3,0.4 c5.6-0.7,8.5-1.1,14.1-1.8c-4.8-0.4-7.2-0.6-12-1C362.4,129.6,361.9,129.5,360.8,129.5z" fill="#FFFFFF"/>
    <path d="M361.3,132.5c0.1,0.3,0.2,0.4,0.3,0.7c0.3,0,0.5,0,0.8,0.1c-0.1,0.3-0.2,0.4-0.3,0.6 c1-0.3,1.5-0.5,2.4-0.8c0.5,2.2,0.8,3.2,1.4,5.4c3.8-3.1,5.7-4.7,9.5-7.8C369.8,131.4,366.9,131.7,361.3,132.5z" fill="#FFFFFF"/>
    <path d="M360.8,132.4L360.8,132.4c0,0.1,0,0.2,0,0.3C360.8,132.6,360.8,132.6,360.8,132.4z" fill="#FFFFFF"/>
    <path d="M344.7,128.3c3.7,3.7,5.6,5.5,9.4,9.2c0.2-0.9,0.3-1.4,0.5-2.3C350.6,132.4,348.6,131,344.7,128.3z" fill="#FFFFFF"/>
    <path d="M362.1,133.9c0.1-0.3,0.2-0.4,0.3-0.6c-0.3,0-0.5,0-0.8-0.1c0.1,0.4,0.2,0.6,0.3,1 C362,134,362,134,362.1,133.9z" fill="#FFFFFF"/>
    <path d="M355.4,132.3c1.1,0.6,1.6,0.9,2.7,1.5c0.3-0.8,0.5-1.1,0.8-1.9c0.4,0.8,0.6,1.2,1.1,2.1 c0.3-0.5,0.5-0.8,0.8-1.3c0-0.1,0-0.2,0-0.3c0-1.2,0-1.8,0-3c-0.6-0.1-1-0.1-1.6-0.1c-0.3,0-0.5,0-0.8-0.1 c-0.8-0.1-1.1-0.1-1.9-0.1c-4.7-0.4-7.1-0.5-11.8-0.9c3.9,2.8,5.9,4.2,9.9,7C354.9,134.1,355.1,133.5,355.4,132.3z" fill="#FFFFFF"/>
    <path d="M364.6,133.1c-1,0.3-1.5,0.5-2.4,0.8c-0.1,0.1-0.2,0.2-0.3,0.3c0.3,0.7,0.5,1,0.8,1.7 c0.2,0.1,0.3,0.2,0.5,0.4c-0.1,0.1-0.2,0.2-0.3,0.3c2.6,6.4,3.9,9.6,6.5,16c-1.4-5.7-2.1-8.5-3.5-14.1 C365.4,136.3,365.1,135.2,364.6,133.1z" fill="#FFFFFF"/>
    <path d="M360,134c0.2,0.4,0.3,0.6,0.5,1c0.9,0.3,1.3,0.5,2.2,0.8c-0.3-0.7-0.5-1-0.8-1.7c-0.1-0.4-0.2-0.6-0.3-1 c-0.1-0.3-0.2-0.4-0.3-0.7c-0.1-0.1-0.2-0.2-0.3-0.4c-0.1,0.1-0.2,0.2-0.3,0.3c0,0.1,0,0.2,0,0.3C360.5,133.3,360.3,133.5,360,134 z" fill="#FFFFFF"/>
    <path d="M362.9,136.6c-0.4,0.4-0.6,0.5-1.1,0.9c0.6,1.1,1,1.7,1.6,2.8c-1.4,1.2-2.1,1.8-3.5,3 c3.8,3.7,5.7,5.6,9.5,9.3C366.8,146.2,365.5,143,362.9,136.6z" fill="#FFFFFF"/>
    <path d="M360,134c-0.4-0.8-0.6-1.2-1.1-2.1c-0.3,0.8-0.5,1.1-0.8,1.9c1,0.5,1.5,0.7,2.4,1.2 C360.3,134.6,360.2,134.4,360,134z" fill="#FFFFFF"/>
    <path d="M363.5,140.2c-0.6-1.1-1-1.7-1.6-2.8c-4.5,5.4-6.8,8.2-11.3,13.6c3.8-3.2,5.6-4.7,9.4-7.9 C361.4,142,362.1,141.4,363.5,140.2z" fill="#FFFFFF"/>
    <path d="M361.9,137.5c0.4-0.4,0.6-0.5,1.1-0.9c0.1-0.1,0.2-0.2,0.3-0.3c-0.2-0.1-0.3-0.2-0.5-0.4 c-0.9-0.3-1.3-0.5-2.2-0.8c-1-0.5-1.5-0.7-2.4-1.2c-1.1-0.6-1.6-0.9-2.7-1.5c-0.3,1.2-0.5,1.7-0.8,2.9c-0.2,0.9-0.3,1.4-0.5,2.3 c-1.4,5.4-2.1,8.1-3.5,13.6C355,145.6,357.3,142.9,361.9,137.5z" fill="#FFFFFF"/>
    <path d="M360,36.9c-1.4,5.3-2.1,7.9-3.5,13.2c0.8,0.1,1.1,0.1,1.9,0.1C359,44.9,359.3,42.2,360,36.9z" fill="#FFFFFF"/>
    <path d="M359.2,50.3c0.6,0.1,1,0.1,1.6,0.1c1.1,0.1,1.6,0.1,2.7,0.2c-1.4-5.5-2.1-8.3-3.5-13.8 c-0.6,5.3-1,8-1.6,13.4C358.7,50.3,358.8,50.3,359.2,50.3z" fill="#FFFFFF"/>
    <path d="M360.8,50.4c0,1.2,0,1.8,0,3l0,0c0.1-0.1,0.2-0.2,0.3-0.3c0.1,0.1,0.2,0.2,0.3,0.4 c5.6-0.7,8.5-1.1,14.1-1.8c-4.8-0.4-7.2-0.6-12-1C362.4,50.6,361.9,50.5,360.8,50.4z" fill="#FFFFFF"/>
    <path d="M361.3,53.4c0.1,0.3,0.2,0.4,0.3,0.7c0.3,0,0.5,0,0.8,0.1c-0.1,0.3-0.2,0.4-0.3,0.6c1-0.3,1.5-0.5,2.4-0.8 c0.5,2.2,0.8,3.2,1.4,5.4c3.8-3.1,5.7-4.7,9.5-7.7C369.8,52.4,367,52.7,361.3,53.4z" fill="#FFFFFF"/>
    <path d="M360.8,53.4L360.8,53.4c0,0.1,0,0.2,0,0.3C360.8,53.6,360.8,53.5,360.8,53.4z" fill="#FFFFFF"/>
    <path d="M344.7,49.2c3.7,3.7,5.6,5.5,9.4,9.2c0.2-0.9,0.3-1.4,0.5-2.3C350.6,53.4,348.6,52,344.7,49.2z" fill="#FFFFFF"/>
    <path d="M362.1,54.8c0.1-0.3,0.2-0.4,0.3-0.6c-0.3,0-0.5,0-0.8-0.1c0.1,0.4,0.2,0.6,0.3,1 C362,55,362,55,362.1,54.8z" fill="#FFFFFF"/>
    <path d="M355.4,53.3c1.1,0.6,1.6,0.9,2.7,1.5c0.3-0.8,0.5-1.1,0.8-1.9c0.4,0.8,0.6,1.2,1.1,2.1 c0.3-0.5,0.5-0.8,0.8-1.3c0-0.1,0-0.2,0-0.3c0-1.2,0-1.8,0-3c-0.6-0.1-1-0.1-1.6-0.1c-0.3,0-0.5,0-0.8-0.1 c-0.8-0.1-1.1-0.1-1.9-0.1c-4.7-0.4-7.1-0.5-11.8-0.9c3.9,2.8,5.9,4.2,9.9,7C354.9,55.1,355.1,54.5,355.4,53.3z" fill="#FFFFFF"/>
    <path d="M364.6,54c-1,0.3-1.5,0.5-2.4,0.8c-0.1,0.1-0.2,0.2-0.3,0.3c0.3,0.7,0.5,1,0.8,1.7 c0.2,0.1,0.3,0.2,0.5,0.4c-0.1,0.1-0.2,0.2-0.3,0.3c2.6,6.4,3.9,9.6,6.5,16c-1.4-5.6-2.1-8.5-3.5-14.1 C365.4,57.3,365.1,56.2,364.6,54z" fill="#FFFFFF"/>
    <path d="M360,55c0.2,0.4,0.3,0.6,0.5,1c0.9,0.3,1.3,0.5,2.2,0.8c-0.3-0.7-0.5-1-0.8-1.7c-0.1-0.4-0.2-0.6-0.3-1 c-0.1-0.3-0.2-0.4-0.3-0.7c-0.1-0.1-0.2-0.2-0.3-0.4c-0.1,0.1-0.2,0.2-0.3,0.3c0,0.1,0,0.2,0,0.3C360.5,54.2,360.3,54.5,360,55z" fill="#FFFFFF"/>
    <path d="M363,57.5c-0.4,0.4-0.6,0.5-1.1,0.9c0.6,1.1,1,1.7,1.6,2.8c-1.4,1.2-2.1,1.8-3.5,3 c3.8,3.7,5.7,5.6,9.5,9.3C366.9,67.1,365.6,63.9,363,57.5z" fill="#FFFFFF"/>
    <path d="M360,55c-0.4-0.8-0.6-1.2-1.1-2.1c-0.3,0.8-0.5,1.1-0.8,1.9c1,0.5,1.5,0.7,2.4,1.2 C360.3,55.6,360.2,55.4,360,55z" fill="#FFFFFF"/>
    <path d="M363.5,61.2c-0.6-1.1-1-1.7-1.6-2.8c-4.5,5.4-6.8,8.2-11.3,13.6c3.8-3.1,5.6-4.7,9.4-7.8 C361.4,63,362.1,62.4,363.5,61.2z" fill="#FFFFFF"/>
    <path d="M361.9,58.4c0.4-0.4,0.6-0.5,1.1-0.9c0.1-0.1,0.2-0.2,0.3-0.3c-0.2-0.1-0.3-0.2-0.5-0.4 c-0.9-0.3-1.3-0.5-2.2-0.8c-1-0.5-1.5-0.7-2.4-1.2c-1.1-0.6-1.6-0.9-2.7-1.5c-0.3,1.2-0.5,1.7-0.8,2.9c-0.2,0.9-0.3,1.4-0.5,2.3 c-1.4,5.4-2.1,8.1-3.5,13.6C355.1,66.6,357.3,63.9,361.9,58.4z" fill="#FFFFFF"/>
    <path d="M425.8,201.3c-1.4,5.2-2.2,7.9-3.6,13.1c0.8,0.1,1.2,0.1,1.9,0.2C424.8,209.3,425.2,206.6,425.8,201.3z" fill="#FFFFFF"/>
    <path d="M425,214.7c0.7,0.1,1,0.1,1.7,0.2c1.1,0.1,1.7,0.2,2.8,0.3c-1.4-5.6-2.2-8.3-3.6-13.9 c-0.7,5.3-1,8-1.7,13.3C424.5,214.6,424.7,214.7,425,214.7z" fill="#FFFFFF"/>
    <path d="M426.7,214.9c0,1.2,0,1.8,0,3l0,0c0.1-0.1,0.2-0.2,0.3-0.3c0.1,0.1,0.2,0.2,0.3,0.4 c5.8-0.5,8.6-0.8,14.4-1.3c-4.9-0.6-7.3-0.9-12.2-1.4C428.3,215.1,427.8,215,426.7,214.9z" fill="#FFFFFF"/>
    <path d="M427.2,217.9c0.1,0.3,0.2,0.4,0.3,0.7c0.3,0,0.5,0.1,0.8,0.1c-0.1,0.3-0.2,0.4-0.3,0.6 c1-0.3,1.5-0.4,2.5-0.7c0.6,2.2,0.8,3.3,1.4,5.4c3.9-3,5.8-4.5,9.7-7.4C435.9,217.1,433,217.4,427.2,217.9z" fill="#FFFFFF"/>
    <path d="M426.7,217.8c0,0.1,0,0.2,0,0.3C426.7,218,426.7,218,426.7,217.8z" fill="#FFFFFF"/>
    <path d="M410.1,213.1c3.9,3.8,5.8,5.8,9.7,9.6c0.2-0.9,0.3-1.3,0.6-2.2C416.2,217.5,414.2,216,410.1,213.1z" fill="#FFFFFF"/>
    <path d="M428,219.3c0.1-0.3,0.2-0.4,0.3-0.6c-0.3,0-0.5-0.1-0.8-0.1c0.1,0.4,0.2,0.6,0.3,1 C427.9,219.5,427.9,219.4,428,219.3z" fill="#FFFFFF"/>
    <path d="M421.1,217.6c1.1,0.6,1.7,1,2.8,1.6c0.3-0.8,0.5-1.1,0.8-1.9c0.4,0.8,0.7,1.3,1.1,2.1 c0.3-0.5,0.5-0.7,0.8-1.2c0-0.1,0-0.2,0-0.3c0-1.2,0-1.8,0-3c-0.7-0.1-1-0.1-1.7-0.2c-0.3,0-0.5-0.1-0.8-0.1 c-0.8-0.1-1.2-0.1-1.9-0.2c-4.9-0.5-7.3-0.8-12.2-1.3c4.1,2.9,6.1,4.4,10.2,7.4C420.6,219.3,420.8,218.7,421.1,217.6z" fill="#FFFFFF"/>
    <path d="M430.5,218.6c-1,0.3-1.5,0.4-2.5,0.7c-0.1,0.1-0.2,0.2-0.3,0.3c0.3,0.7,0.5,1,0.8,1.7 c0.2,0.2,0.3,0.2,0.6,0.4c-0.1,0.1-0.2,0.2-0.3,0.3c2.7,6.5,4,9.7,6.6,16.2c-1.4-5.7-2.2-8.5-3.6-14.2 C431.4,221.9,431.1,220.8,430.5,218.6z" fill="#FFFFFF"/>
    <path d="M426.7,217.8c0,0.1,0,0.2,0,0.3c-0.3,0.5-0.5,0.7-0.8,1.2c0.2,0.4,0.3,0.6,0.6,1.1 c0.9,0.4,1.3,0.5,2.2,0.9c-0.3-0.7-0.5-1-0.8-1.7c-0.1-0.4-0.2-0.6-0.3-1c-0.1-0.3-0.2-0.4-0.3-0.7c-0.1-0.1-0.2-0.2-0.3-0.4 C426.8,217.7,426.8,217.7,426.7,217.8z" fill="#FFFFFF"/>
    <path d="M428.9,222c-0.4,0.3-0.7,0.5-1.1,0.9c0.7,1.1,1,1.7,1.7,2.8c-1.4,1.2-2.2,1.7-3.6,2.9 c3.9,3.9,5.8,5.8,9.7,9.7C432.9,231.8,431.5,228.5,428.9,222z" fill="#FFFFFF"/>
    <path d="M425.8,219.4c-0.4-0.8-0.7-1.3-1.1-2.1c-0.3,0.8-0.5,1.1-0.8,1.9c1,0.5,1.5,0.8,2.5,1.3 C426.2,220,426.1,219.8,425.8,219.4z" fill="#FFFFFF"/>
    <path d="M429.4,225.7c-0.7-1.1-1-1.7-1.7-2.8c-4.7,5.3-7,7.9-11.6,13.2c3.9-3,5.8-4.5,9.7-7.5 C427.3,227.5,428,226.9,429.4,225.7z" fill="#FFFFFF"/>
    <path d="M427.8,222.9c0.4-0.3,0.7-0.5,1.1-0.9c0.1-0.1,0.2-0.2,0.3-0.3c-0.2-0.2-0.3-0.2-0.6-0.4 c-0.9-0.4-1.3-0.5-2.2-0.9c-1-0.5-1.5-0.8-2.5-1.3c-1.1-0.6-1.7-1-2.8-1.6c-0.3,1.1-0.5,1.7-0.8,2.9c-0.2,0.9-0.3,1.3-0.6,2.2 c-1.4,5.4-2.2,8.1-3.6,13.4C420.8,230.8,423.1,228.2,427.8,222.9z" fill="#FFFFFF"/>
    <path d="M425.8,122.3c-1.4,5.2-2.2,7.9-3.6,13.1c0.8,0.1,1.2,0.1,1.9,0.2C424.8,130.3,425.2,127.6,425.8,122.3z" fill="#FFFFFF"/>
    <path d="M425,135.7c0.7,0.1,1,0.1,1.7,0.2c1.1,0.1,1.7,0.2,2.8,0.3c-1.4-5.6-2.2-8.3-3.6-13.9 c-0.7,5.3-1,8-1.7,13.3C424.5,135.6,424.7,135.6,425,135.7z" fill="#FFFFFF"/>
    <path d="M426.7,135.9c0,1.2,0,1.8,0,3l0,0c0.1-0.1,0.2-0.2,0.3-0.3c0.1,0.1,0.2,0.2,0.3,0.4 c5.8-0.5,8.6-0.8,14.4-1.3c-4.9-0.6-7.3-0.9-12.2-1.4C428.3,136.1,427.8,136,426.7,135.9z" fill="#FFFFFF"/>
    <path d="M427.2,138.9c0.1,0.3,0.2,0.4,0.3,0.7c0.3,0,0.5,0.1,0.8,0.1c-0.1,0.3-0.2,0.4-0.3,0.6 c1-0.3,1.5-0.4,2.5-0.7c0.6,2.2,0.8,3.3,1.4,5.4c3.9-3,5.8-4.5,9.7-7.4C435.9,138.1,433,138.4,427.2,138.9z" fill="#FFFFFF"/>
    <path d="M426.7,138.8L426.7,138.8c0,0.1,0,0.2,0,0.3C426.7,139,426.7,139,426.7,138.8z" fill="#FFFFFF"/>
    <path d="M410.1,134c3.9,3.8,5.8,5.8,9.7,9.6c0.2-0.9,0.3-1.3,0.6-2.2C416.2,138.5,414.2,137,410.1,134z" fill="#FFFFFF"/>
    <path d="M428.1,140.3c0.1-0.3,0.2-0.4,0.3-0.6c-0.3,0-0.5-0.1-0.8-0.1c0.1,0.4,0.2,0.6,0.3,1 C427.9,140.5,427.9,140.4,428.1,140.3z" fill="#FFFFFF"/>
    <path d="M421.1,138.5c1.1,0.6,1.7,1,2.8,1.6c0.3-0.8,0.5-1.1,0.8-1.9c0.4,0.8,0.7,1.3,1.1,2.1 c0.3-0.5,0.5-0.7,0.8-1.2c0-0.1,0-0.2,0-0.3c0-1.2,0-1.8,0-3c-0.7-0.1-1-0.1-1.7-0.2c-0.3,0-0.5-0.1-0.8-0.1 c-0.8-0.1-1.2-0.1-1.9-0.2c-4.9-0.5-7.3-0.8-12.2-1.3c4.1,2.9,6.1,4.4,10.2,7.4C420.6,140.3,420.8,139.7,421.1,138.5z" fill="#FFFFFF"/>
    <path d="M430.6,139.6c-1,0.3-1.5,0.4-2.5,0.7c-0.1,0.1-0.2,0.2-0.3,0.3c0.3,0.7,0.5,1,0.8,1.7 c0.2,0.2,0.3,0.2,0.6,0.4c-0.1,0.1-0.2,0.2-0.3,0.3c2.7,6.5,4,9.7,6.6,16.2c-1.4-5.7-2.2-8.5-3.6-14.2 C431.4,142.9,431.1,141.8,430.6,139.6z" fill="#FFFFFF"/>
    <path d="M425.8,140.4c0.2,0.4,0.3,0.6,0.6,1.1c0.9,0.4,1.3,0.5,2.2,0.9c-0.3-0.7-0.5-1-0.8-1.7 c-0.1-0.4-0.2-0.6-0.3-1c-0.1-0.3-0.2-0.4-0.3-0.7c-0.1-0.1-0.2-0.2-0.3-0.4c-0.1,0.1-0.2,0.2-0.3,0.3c0,0.1,0,0.2,0,0.3 C426.3,139.7,426.2,139.9,425.8,140.4z" fill="#FFFFFF"/>
    <path d="M428.9,143c-0.4,0.3-0.7,0.5-1.1,0.9c0.7,1.1,1,1.7,1.7,2.8c-1.4,1.2-2.2,1.7-3.6,2.9 c3.9,3.9,5.8,5.8,9.7,9.7C432.9,152.8,431.5,149.5,428.9,143z" fill="#FFFFFF"/>
    <path d="M425.8,140.4c-0.4-0.8-0.7-1.3-1.1-2.1c-0.3,0.8-0.5,1.1-0.8,1.9c1,0.5,1.5,0.8,2.5,1.3 C426.2,141,426.1,140.8,425.8,140.4z" fill="#FFFFFF"/>
    <path d="M429.4,146.7c-0.7-1.1-1-1.7-1.7-2.8c-4.7,5.3-7,7.9-11.6,13.2c3.9-3,5.8-4.5,9.7-7.5 C427.3,148.4,428,147.9,429.4,146.7z" fill="#FFFFFF"/>
    <path d="M427.8,143.9c0.4-0.3,0.7-0.5,1.1-0.9c0.1-0.1,0.2-0.2,0.3-0.3c-0.2-0.2-0.3-0.2-0.6-0.4 c-0.9-0.4-1.3-0.5-2.2-0.9c-1-0.5-1.5-0.8-2.5-1.3c-1.1-0.7-1.7-1-2.8-1.6c-0.3,1.1-0.5,1.7-0.8,2.9c-0.2,0.9-0.3,1.3-0.6,2.2 c-1.4,5.4-2.2,8.1-3.6,13.4C420.8,151.8,423.1,149.2,427.8,143.9z" fill="#FFFFFF"/>
    <path d="M425.8,43.3c-1.4,5.2-2.2,7.8-3.6,13.1c0.8,0.1,1.2,0.1,1.9,0.2C424.9,51.3,425.2,48.6,425.8,43.3z" fill="#FFFFFF"/>
    <path d="M425,56.7c0.7,0.1,1,0.1,1.7,0.2c1.1,0.1,1.7,0.2,2.8,0.3c-1.4-5.6-2.2-8.3-3.6-13.9 c-0.7,5.3-1,8-1.7,13.3C424.5,56.7,424.7,56.7,425,56.7z" fill="#FFFFFF"/>
    <path d="M426.7,56.9c0,1.2,0,1.8,0,3l0,0c0.1-0.1,0.2-0.2,0.3-0.3c0.1,0.1,0.2,0.2,0.3,0.4 c5.8-0.5,8.6-0.8,14.4-1.3c-4.9-0.6-7.3-0.9-12.2-1.4C428.3,57.1,427.8,57,426.7,56.9z" fill="#FFFFFF"/>
    <path d="M427.2,59.9c0.1,0.3,0.2,0.4,0.3,0.7c0.3,0,0.5,0.1,0.8,0.1c-0.1,0.3-0.2,0.4-0.3,0.6 c1-0.3,1.5-0.4,2.5-0.7c0.6,2.2,0.8,3.3,1.4,5.4c3.9-3,5.8-4.4,9.7-7.4C435.9,59.1,433,59.4,427.2,59.9z" fill="#FFFFFF"/>
    <path d="M426.7,59.9L426.7,59.9c0,0.1,0,0.2,0,0.3C426.7,60.1,426.7,60,426.7,59.9z" fill="#FFFFFF"/>
    <path d="M410.1,55.1c3.9,3.8,5.8,5.8,9.7,9.6c0.2-0.9,0.3-1.3,0.6-2.2C416.2,59.5,414.2,58,410.1,55.1z" fill="#FFFFFF"/>
    <path d="M428.1,61.3c0.1-0.3,0.2-0.4,0.3-0.6c-0.3,0-0.5-0.1-0.8-0.1c0.1,0.4,0.2,0.6,0.3,1 C427.9,61.5,428,61.5,428.1,61.3z" fill="#FFFFFF"/>
    <path d="M421.1,59.6c1.1,0.7,1.7,1,2.8,1.6c0.3-0.8,0.5-1.1,0.8-1.9c0.4,0.8,0.7,1.3,1.1,2.1 c0.3-0.5,0.5-0.7,0.8-1.2c0-0.1,0-0.2,0-0.3c0-1.2,0-1.8,0-3c-0.7-0.1-1-0.1-1.7-0.2c-0.3,0-0.5-0.1-0.8-0.1 c-0.8-0.1-1.2-0.1-1.9-0.2c-4.9-0.5-7.3-0.8-12.2-1.3c4.1,2.9,6.1,4.4,10.2,7.4C420.6,61.3,420.8,60.7,421.1,59.6z" fill="#FFFFFF"/>
    <path d="M430.6,60.6c-1,0.3-1.5,0.4-2.5,0.7c-0.1,0.1-0.2,0.2-0.3,0.3c0.3,0.7,0.5,1,0.8,1.7 c0.2,0.2,0.3,0.2,0.6,0.4c-0.1,0.1-0.2,0.2-0.3,0.3c2.7,6.5,4,9.7,6.6,16.2c-1.4-5.7-2.2-8.5-3.6-14.2 C431.4,63.9,431.1,62.8,430.6,60.6z" fill="#FFFFFF"/>
    <path d="M425.8,61.4c0.2,0.4,0.3,0.6,0.6,1c0.9,0.4,1.3,0.5,2.2,0.9c-0.3-0.7-0.5-1-0.8-1.7 c-0.1-0.4-0.2-0.6-0.3-1c-0.1-0.3-0.2-0.4-0.3-0.7c-0.1-0.1-0.2-0.2-0.3-0.4c-0.1,0.1-0.2,0.2-0.3,0.3c0,0.1,0,0.2,0,0.3 C426.3,60.7,426.2,60.9,425.8,61.4z" fill="#FFFFFF"/>
    <path d="M428.9,64.1c-0.4,0.3-0.7,0.5-1.1,0.9c0.7,1.1,1,1.7,1.7,2.8c-1.4,1.1-2.2,1.7-3.6,2.9 c3.9,3.9,5.8,5.8,9.7,9.7C432.9,73.8,431.6,70.6,428.9,64.1z" fill="#FFFFFF"/>
    <path d="M425.8,61.4c-0.4-0.8-0.7-1.3-1.1-2.1c-0.3,0.8-0.5,1.1-0.8,1.9c1,0.5,1.5,0.8,2.5,1.3 C426.2,62,426.1,61.8,425.8,61.4z" fill="#FFFFFF"/>
    <path d="M429.4,67.7c-0.7-1.1-1-1.7-1.7-2.8c-4.7,5.3-7,7.9-11.6,13.2c3.9-3,5.8-4.5,9.7-7.5 C427.3,69.5,428,68.9,429.4,67.7z" fill="#FFFFFF"/>
    <path d="M427.8,64.9c0.4-0.3,0.7-0.5,1.1-0.9c0.1-0.1,0.2-0.2,0.3-0.3c-0.2-0.2-0.3-0.2-0.6-0.4 c-0.9-0.4-1.3-0.5-2.2-0.9c-1-0.5-1.5-0.8-2.5-1.3c-1.1-0.7-1.7-1-2.8-1.6c-0.3,1.1-0.5,1.7-0.8,2.9c-0.2,0.9-0.3,1.3-0.6,2.2 c-1.4,5.4-2.2,8.1-3.6,13.4C420.8,72.8,423.1,70.2,427.8,64.9z" fill="#FFFFFF"/>
    <path d="M185,196.7c-1.1,5.6-1.7,8.3-2.8,13.9c0.6-0.1,0.9-0.1,1.5-0.2C184.3,204.9,184.5,202.2,185,196.7z" fill="#FFFFFF"/>
    <path d="M184.4,210.3c0.5-0.1,0.8-0.1,1.3-0.2c0.9-0.1,1.3-0.2,2.2-0.3c-1.2-5.2-1.7-7.9-2.9-13.1 c-0.5,5.5-0.8,8.2-1.3,13.7C184,210.3,184.1,210.3,184.4,210.3z" fill="#FFFFFF"/>
    <path d="M185.7,210.1c0,1.2,0,1.8,0,3l0,0c0.1-0.1,0.1-0.2,0.2-0.4c0.1,0.1,0.1,0.2,0.2,0.3 c4.6-1.8,6.9-2.7,11.5-4.4c-3.9,0.5-5.9,0.7-9.8,1.2C187.1,209.9,186.6,210,185.7,210.1z" fill="#FFFFFF"/>
    <path d="M186.2,213c0.1,0.3,0.1,0.4,0.2,0.6c0.3,0,0.4-0.1,0.7-0.1c-0.1,0.3-0.1,0.4-0.2,0.7 c0.8-0.5,1.2-0.8,2-1.3c0.4,2,0.7,3.1,1.1,5.1c3.1-3.8,4.6-5.7,7.8-9.5C193.1,210.3,190.8,211.2,186.2,213z" fill="#FFFFFF"/>
    <path d="M185.7,213.1c0,0.1,0,0.2,0,0.3C185.7,213.3,185.7,213.2,185.7,213.1z" fill="#FFFFFF"/>
    <path d="M172.6,212.1c3.1,2.9,4.6,4.4,7.7,7.4c0.2-0.9,0.3-1.4,0.4-2.4C177.4,215.1,175.8,214,172.6,212.1z" fill="#FFFFFF"/>
    <path d="M187.1,213.5c-0.3,0-0.4,0.1-0.7,0.1c0.1,0.4,0.1,0.6,0.2,1c0.1-0.1,0.1-0.2,0.2-0.4 C186.9,214,187,213.8,187.1,213.5z" fill="#FFFFFF"/>
    <path d="M181.3,214c0.9,0.4,1.3,0.6,2.2,1c0.3-0.8,0.4-1.2,0.7-2.1c0.4,0.7,0.5,1.1,0.9,1.9 c0.3-0.6,0.4-0.8,0.7-1.4c0-0.1,0-0.2,0-0.3c0-1.2,0-1.8,0-3c-0.5,0.1-0.8,0.1-1.3,0.2c-0.3,0-0.4,0.1-0.7,0.1 c-0.6,0.1-0.9,0.1-1.5,0.2c-3.9,0.6-5.8,0.8-9.6,1.5c3.2,2,4.9,3,8.1,5C180.9,215.9,181.1,215.2,181.3,214z" fill="#FFFFFF"/>
    <path d="M188.8,213c-0.8,0.5-1.2,0.7-2,1.3c-0.1,0.1-0.1,0.2-0.2,0.4c0.3,0.6,0.4,0.9,0.7,1.6 c0.2,0.1,0.3,0.2,0.4,0.3c-0.1,0.1-0.1,0.2-0.2,0.4c2.1,5.9,3.2,8.9,5.3,14.8c-0.3-1.4-0.4-2.1-0.7-3.5c-0.9-4-1.3-6-2.2-9.9 C189.5,216.1,189.3,215,188.8,213z" fill="#FFFFFF"/>
    <path d="M186.4,213.6c-0.1-0.3-0.1-0.4-0.2-0.6c-0.1-0.1-0.1-0.2-0.2-0.3c-0.1,0.1-0.1,0.2-0.2,0.4 c0,0.1,0,0.2,0,0.3c-0.3,0.6-0.4,0.8-0.7,1.4c0.2,0.4,0.3,0.6,0.4,0.9c0.7,0.2,1.1,0.3,1.8,0.4c-0.3-0.6-0.4-0.9-0.7-1.6 C186.5,214.2,186.5,214,186.4,213.6z" fill="#FFFFFF"/>
    <path d="M187.5,216.8c-0.4,0.4-0.5,0.7-0.9,1.1c0.5,1,0.8,1.5,1.3,2.5c-1.1,1.5-1.7,2.2-2.9,3.7 c2.2,2.1,3.3,3.1,5.5,5.2c0.9,0.9,1.3,1.4,2.2,2.4C190.7,225.6,189.6,222.7,187.5,216.8z" fill="#FFFFFF"/>
    <path d="M185.1,214.8c-0.4-0.7-0.5-1.1-0.9-1.9c-0.3,0.8-0.4,1.2-0.7,2.1c0.8,0.3,1.2,0.4,2,0.7 C185.3,215.4,185.3,215.2,185.1,214.8z" fill="#FFFFFF"/>
    <path d="M188,220.3c-0.5-1-0.8-1.5-1.3-2.5c-3.7,6.3-5.5,9.5-9.2,15.8c3.1-3.9,4.6-5.8,7.7-9.7 C186.2,222.5,186.8,221.8,188,220.3z" fill="#FFFFFF"/>
    <path d="M186.6,217.9c0.4-0.4,0.5-0.7,0.9-1.1c0.1-0.1,0.1-0.2,0.2-0.4c-0.2-0.1-0.3-0.2-0.4-0.3 c-0.7-0.2-1.1-0.3-1.8-0.4c-0.8-0.3-1.2-0.4-2-0.7c-0.9-0.4-1.3-0.6-2.2-1c-0.3,1.2-0.4,1.8-0.7,3.1c-0.2,0.9-0.3,1.4-0.4,2.4 c-1.1,5.7-1.7,8.5-2.8,14.2C181.1,227.3,182.9,224.2,186.6,217.9z" fill="#FFFFFF"/>
    <path d="M239.3,191.8c-1.2,5.5-1.8,8.2-3,13.7c0.6,0,1,0,1.6-0.1C238.4,199.9,238.7,197.2,239.3,191.8z" fill="#FFFFFF"/>
    <path d="M238.6,205.3c0.6,0,0.8,0,1.4-0.1c0.9,0,1.4-0.1,2.3-0.1c-1.2-5.4-1.8-8-3-13.4c-0.6,5.4-0.8,8.1-1.4,13.6 C238.2,205.3,238.3,205.3,238.6,205.3z" fill="#FFFFFF"/>
    <path d="M240,205.3c0,1.2,0,1.8,0,3l0,0c0.1-0.1,0.1-0.2,0.2-0.3c0.1,0.1,0.1,0.2,0.2,0.3 c4.8-1.4,7.3-2.1,12.2-3.4c-4.1,0.1-6.2,0.2-10.3,0.3C241.4,205.2,240.9,205.2,240,205.3z" fill="#FFFFFF"/>
    <path d="M240.4,208.2c0.1,0.3,0.1,0.4,0.2,0.6c0.3,0,0.4,0,0.7,0c-0.1,0.3-0.1,0.4-0.2,0.7 c0.8-0.4,1.3-0.6,2.1-1.1c0.5,2.1,0.7,3.1,1.2,5.2c3.3-3.6,4.9-5.3,8.2-8.8C247.7,206.1,245.3,206.8,240.4,208.2z" fill="#FFFFFF"/>
    <path d="M240,208.2c0,0.1,0,0.2,0,0.3C240,208.4,240,208.4,240,208.2z" fill="#FFFFFF"/>
    <path d="M226.1,206c3.2,3.2,4.8,4.8,8,8.1c0.2-0.9,0.3-1.4,0.5-2.3C231.2,209.5,229.5,208.3,226.1,206z" fill="#FFFFFF"/>
    <path d="M241.1,209.5c0.1-0.3,0.1-0.4,0.2-0.7c-0.3,0-0.4,0-0.7,0c0.1,0.4,0.1,0.6,0.2,1 C241,209.7,241,209.6,241.1,209.5z" fill="#FFFFFF"/>
    <path d="M235.3,208.8c0.9,0.5,1.4,0.7,2.3,1.2c0.3-0.8,0.4-1.2,0.7-2c0.4,0.8,0.6,1.2,0.9,1.9 c0.3-0.5,0.4-0.8,0.7-1.4c0-0.1,0-0.2,0-0.3c0-1.2,0-1.8,0-3c-0.6,0-0.8,0-1.4,0.1c-0.3,0-0.4,0-0.7,0c-0.6,0-1,0-1.6,0.1 c-4.1,0.2-6.1,0.3-10.1,0.6c3.4,2.3,5.1,3.4,8.5,5.8C234.9,210.6,235.1,210,235.3,208.8z" fill="#FFFFFF"/>
    <path d="M243.2,208.4c-0.8,0.4-1.3,0.6-2.1,1.1c-0.1,0.1-0.1,0.2-0.2,0.3c0.3,0.6,0.4,1,0.7,1.6 c0.2,0.1,0.3,0.2,0.5,0.3c-0.1,0.1-0.1,0.2-0.2,0.3c2.2,6.1,3.4,9.2,5.6,15.3c-1.2-5.5-1.8-8.3-3-13.7 C243.9,211.6,243.7,210.5,243.2,208.4z" fill="#FFFFFF"/>
    <path d="M240,208.2c0,0.1,0,0.2,0,0.3c-0.3,0.5-0.4,0.8-0.7,1.4c0.2,0.4,0.3,0.6,0.5,1c0.7,0.2,1.1,0.3,1.9,0.6 c-0.3-0.6-0.4-1-0.7-1.6c-0.1-0.4-0.1-0.6-0.2-1c-0.1-0.3-0.1-0.4-0.2-0.6c-0.1-0.1-0.1-0.2-0.2-0.3 C240.1,208,240.1,208.1,240,208.2z" fill="#FFFFFF"/>
    <path d="M241.8,212.1c-0.4,0.4-0.6,0.6-0.9,1c0.6,1,0.8,1.5,1.4,2.6c-1.2,1.4-1.8,2.1-3,3.4 c3.2,3.3,4.9,4.9,8.2,8.3C245.2,221.3,244.1,218.2,241.8,212.1z" fill="#FFFFFF"/>
    <path d="M239.3,209.9c-0.4-0.8-0.6-1.2-0.9-1.9c-0.3,0.8-0.4,1.2-0.7,2c0.8,0.4,1.3,0.5,2.1,0.9 C239.6,210.5,239.5,210.3,239.3,209.9z" fill="#FFFFFF"/>
    <path d="M242.3,215.7c-0.6-1-0.8-1.5-1.4-2.6c-3.9,6-5.8,9-9.7,15c3.2-3.6,4.8-5.4,8.1-9 C240.5,217.8,241.1,217.1,242.3,215.7z" fill="#FFFFFF"/>
    <path d="M240.9,213.1c0.4-0.4,0.6-0.6,0.9-1c0.1-0.1,0.1-0.2,0.2-0.3c-0.2-0.1-0.3-0.2-0.5-0.3 c-0.7-0.2-1.1-0.3-1.9-0.6c-0.8-0.4-1.3-0.5-2.1-0.9c-0.9-0.5-1.4-0.7-2.3-1.2c-0.3,1.2-0.4,1.8-0.7,3c-0.2,0.9-0.3,1.4-0.5,2.3 c-1.2,5.6-1.8,8.4-3,14C235.1,222.1,237,219.1,240.9,213.1z" fill="#FFFFFF"/>
    <path d="M239.3,112.7c-1.2,5.5-1.8,8.2-3,13.7c0.6,0,1-0.1,1.6-0.1C238.4,120.8,238.7,118.1,239.3,112.7z" fill="#FFFFFF"/>
    <path d="M238.6,126.2c0.6,0,0.8,0,1.4-0.1c0.9,0,1.4-0.1,2.3-0.1c-1.2-5.4-1.8-8-3-13.4c-0.6,5.4-0.8,8.1-1.4,13.6 C238.2,126.2,238.3,126.2,238.6,126.2z" fill="#FFFFFF"/>
    <path d="M240,126.1c0,1.2,0,1.8,0,3l0,0c0.1-0.1,0.1-0.2,0.2-0.3c0.1,0.1,0.1,0.2,0.2,0.3 c4.8-1.4,7.3-2.1,12.2-3.4c-4.1,0.1-6.2,0.2-10.3,0.4C241.4,126.1,240.9,126.1,240,126.1z" fill="#FFFFFF"/>
    <path d="M240.4,129.1c0.1,0.3,0.1,0.4,0.2,0.6c0.3,0,0.4,0,0.7,0c-0.1,0.3-0.1,0.4-0.2,0.7 c0.8-0.4,1.3-0.6,2.1-1.1c0.5,2.1,0.7,3.1,1.2,5.2c3.3-3.6,4.9-5.3,8.2-8.8C247.7,127,245.3,127.7,240.4,129.1z" fill="#FFFFFF"/>
    <path d="M240,129.1L240,129.1c0,0.1,0,0.2,0,0.3C240,129.3,240,129.2,240,129.1z" fill="#FFFFFF"/>
    <path d="M234.6,132.7c-3.4-2.3-5.1-3.5-8.5-5.7c3.2,3.2,4.8,4.8,8.1,8.1C234.4,134.1,234.5,133.6,234.6,132.7z" fill="#FFFFFF"/>
    <path d="M241.1,130.4c0.1-0.3,0.1-0.4,0.2-0.7c-0.3,0-0.4,0-0.7,0c0.1,0.4,0.1,0.6,0.2,1 C241,130.6,241,130.5,241.1,130.4z" fill="#FFFFFF"/>
    <path d="M234.6,132.7c0.3-1.2,0.4-1.8,0.7-3c0.9,0.5,1.4,0.7,2.3,1.2c0.3-0.8,0.4-1.2,0.7-2 c0.4,0.8,0.6,1.2,0.9,1.9c0.3-0.5,0.4-0.8,0.7-1.4c0-0.1,0-0.2,0-0.3c0-1.2,0-1.8,0-3c-0.6,0-0.8,0-1.4,0.1c-0.3,0-0.4,0-0.7,0 c-0.7,0-1,0-1.6,0.1c-0.7,0-1.1,0.1-1.9,0.1c-3.3,0.2-5,0.3-8.3,0.5C229.5,129.2,231.2,130.4,234.6,132.7z" fill="#FFFFFF"/>
    <path d="M243.2,129.3c-0.8,0.4-1.3,0.6-2.1,1.1c-0.1,0.1-0.1,0.2-0.2,0.3c0.3,0.6,0.4,1,0.7,1.6 c0.2,0.1,0.3,0.2,0.5,0.3c-0.1,0.1-0.1,0.2-0.2,0.3c2.2,6.1,3.4,9.2,5.6,15.3c-1.2-5.5-1.8-8.2-3-13.7 C243.9,132.4,243.7,131.4,243.2,129.3z" fill="#FFFFFF"/>
    <path d="M239.3,130.8c0.2,0.4,0.3,0.6,0.5,1c0.7,0.2,1.1,0.3,1.9,0.6c-0.3-0.6-0.4-1-0.7-1.6 c-0.1-0.4-0.1-0.6-0.2-1c-0.1-0.3-0.1-0.4-0.2-0.6c-0.1-0.1-0.1-0.2-0.2-0.3c-0.1,0.1-0.1,0.2-0.2,0.3c0,0.1,0,0.2,0,0.3 C239.7,130,239.6,130.2,239.3,130.8z" fill="#FFFFFF"/>
    <path d="M241.8,133c-0.4,0.4-0.6,0.6-0.9,1c0.6,1,0.8,1.5,1.4,2.6c-1.2,1.4-1.8,2.1-3,3.4c3.3,3.3,4.9,4.9,8.2,8.2 C245.2,142.1,244.1,139.1,241.8,133z" fill="#FFFFFF"/>
    <path d="M239.7,131.8c-0.2-0.4-0.3-0.6-0.5-1c-0.4-0.8-0.6-1.2-0.9-1.9c-0.3,0.8-0.4,1.2-0.7,2 C238.5,131.2,238.9,131.4,239.7,131.8z" fill="#FFFFFF"/>
    <path d="M242.3,136.6c-0.6-1-0.8-1.5-1.4-2.6c-3.9,6-5.9,9-9.7,15c1.1-1.4,1.7-2.1,2.8-3.5 c2.1-2.2,3.2-3.3,5.3-5.5C240.5,138.6,241.1,138,242.3,136.6z" fill="#FFFFFF"/>
    <path d="M239.7,131.8c-0.8-0.4-1.3-0.5-2.1-0.9c-0.9-0.5-1.4-0.7-2.3-1.2c-0.3,1.2-0.4,1.8-0.7,3 c-0.2,0.9-0.3,1.4-0.5,2.3c-1.2,5.6-1.8,8.4-3,14c3.9-6,5.8-9,9.7-15c0.4-0.4,0.6-0.6,0.9-1c0.1-0.1,0.1-0.2,0.2-0.3 c-0.2-0.1-0.3-0.2-0.5-0.3C240.9,132.1,240.5,132,239.7,131.8z" fill="#FFFFFF"/>
  </g>
  <g opacity="0.3">
    <path d="M259.7,30c127.9,0,223.7,15.9,325.2,32.8C688.7,80,796.1,97.9,941,97.9c44.4,0,90-6.1,135.4-18.1 c30.5-8.1,61.9-19,93.6-32.7v757.2c-36.8,17.4-73.5,30.8-109.2,40C1020.3,854.7,979.7,860,940,860c-140.1,0-243.6-16.8-343.7-33 c-98.9-16.1-201.3-32.7-336.6-32.7c-45.7,0-91.1,5.3-135.1,15.8C93,817.6,61.3,827.9,30,841V86.6C67.1,69,103.8,55.4,139.2,46.1 C179.9,35.4,220.4,30,259.7,30 M1200,0c-89.2,45-174.4,67.9-259,67.9C660.3,67.9,524.3,0,259.7,0C175.2,0,89.1,23,0,67.9 c0,242.4,0,577.6,0,820c89-44.9,175.2-63.6,259.7-63.6c268.9,0,398.5,65.7,680.3,65.7c84.6,0,170.8-22,260-66.9 C1200,580.7,1200,242.4,1200,0L1200,0z" fill="#212121"/>
  </g>
</svg>