<svg viewBox="0 0 1200 1200" xmlns="http://www.w3.org/2000/svg" xmlns:xlink="http://www.w3.org/1999/xlink">
  <g>
    <path d="M0,223.2C0,482.6,0,742,0,1001.5C84,901,168.7,799,278.6,725.8C369.5,665.2,471.4,624.1,569,576 c96.1-47.4,194.8-91.4,288.2-143.9c114.4-64.3,206.5-152.2,290.2-252.6c-184.2,74.7-388.1,36.5-578.1,5.8 c-97.5-15.7-196.7-29.9-295.7-30.3C175.6,154.7,87,178.8,0,223.2z M285.2,237.5c4.6-18.8,9.3-37.7,14.1-56.5 c4.7,19.1,9.5,38.3,14.4,57.4c16,0.7,32,1.7,48,3c-13.2,10.6-26.2,21.4-39.1,32.4c4.9,19.2,9.8,38.5,14.8,57.7 c-12.7-12.3-25.4-24.5-38-36.9c-12.3,11.2-24.3,22.9-36,34.8c4.4-19,8.9-37.9,13.5-56.9c-11.6-11.5-23.2-23.1-34.8-34.7 C256.4,237.5,270.8,237.4,285.2,237.5z M114,627.7c-9.9-8.6-20.1-17-30.5-25.1c-10.4,15.6-20.8,31.2-31.1,46.9 c4-20.5,8-40.9,12-61.4c-10.4-7.5-21-14.6-31.9-21.4c12.9-5.8,25.9-11.5,39.2-16.5c3.9-20.3,7.8-40.6,11.7-60.9 c4,17.5,7.9,35,11.8,52.5c12.4-4.1,24.9-7.7,37.5-10.8c-10.2,14.4-20.2,28.9-30.2,43.5C106.4,592.2,110.2,610,114,627.7z M102,296.8c3.9,17.7,7.8,35.4,11.7,53.1c-10-8.5-20.2-16.8-30.6-24.8c-10.4,15.8-20.7,31.6-31,47.4c4-20.5,8-41.1,11.9-61.6 c-10.3-7.4-20.9-14.6-31.7-21.3c12.9-5.9,25.8-11.6,39-16.8c3.9-20.4,7.8-40.8,11.7-61.2c3.9,17.6,7.8,35.1,11.7,52.7 c12.4-4.2,24.9-7.9,37.6-11.1C122,267.6,111.9,282.1,102,296.8z M217.6,470.8c-10.6-10.7-21.2-21.3-31.8-31.9 c-10.5,13.2-20.7,26.7-30.8,40.2c3.9-19.6,7.7-39.3,11.7-58.9c-10.1-9.8-20.2-19.5-30.5-29c12.5-3,25-5.5,37.7-7.5 c3.9-19.5,7.9-39,11.9-58.5c4,18.4,8,36.9,12.1,55.3c13.3-1.5,26.7-2.5,40.1-3.1c-11.2,12.2-22,24.8-32.6,37.5 C209.4,433.4,213.5,452.1,217.6,470.8z M337.2,610.5c-12.7-12.2-25.3-24.5-38-36.8c-12.3,11.2-24.3,22.8-36,34.6 c4.4-19,8.9-37.9,13.5-56.9c-11.6-11.5-23.1-23.1-34.6-34.8c14.4-0.4,28.7-0.5,43-0.3c4.6-18.8,9.3-37.7,14.1-56.5 c4.7,19.1,9.5,38.3,14.3,57.4c16,0.7,31.9,1.7,47.8,3c-13.2,10.7-26.2,21.6-39,32.7C327.4,572,332.3,591.2,337.2,610.5z" fill="#0051BA"/>
    <path d="M1200,196.4c-81,103.9-168.1,205.6-278.6,279.2c-91.1,60.7-192.7,103-290.4,151.5 c-95.8,47.6-194.7,90.5-288.2,142.6c-113.1,63-202.2,149.9-286.1,247.4c182.8-71.3,386.5-27.7,574.1,0.4 c95.9,14.4,193.1,26.5,290.1,27.4c99.4,0.9,190.2-22.3,279.1-66.3C1200,717.9,1200,457.1,1200,196.4z" fill="#215B33"/>
    <path d="M1147.4,179.5c-83.7,100.3-175.8,188.3-290.2,252.6C763.8,484.6,665.1,528.6,569,576 c-97.6,48.1-199.5,89.2-290.4,149.8C168.7,799,84,901,0,1001.5c0,13.8,0,27.6,0,41.4c71.1-85,142.3-171.7,229.9-240.3 c72.6-56.9,155.2-98,238.2-137.3c77.2-36.5,153.3-75.1,230.4-111.9c82.4-39.3,166-78.4,240.8-131.2 c102.3-72.5,184.2-168.9,260.7-267.2C1182.7,163.7,1165.2,171.9,1147.4,179.5z" fill="#FCD116"/>
    <path d="M1200,155c-76.5,98.3-158.4,194.7-260.8,267.1c-74.8,52.9-158.4,92-240.8,131.2 C621.3,590,545.2,628.7,468,665.2c-83,39.2-165.6,80.4-238.2,137.3C142.3,871.2,71.1,957.9,0,1042.8c18.6-9.2,37.4-18,56.7-25.7 c84-97.5,173.1-184.4,286.1-247.4c93.5-52.1,192.4-95,288.2-142.6c97.7-48.5,199.3-90.9,290.4-151.5 C1031.9,402,1119,300.3,1200,196.4C1200,182.6,1200,168.8,1200,155z" fill="#FCD116"/>
    <path d="M197.8,380.4c-4-18.4-8.1-36.9-12.1-55.3c-4,19.5-7.9,39-11.9,58.5c-12.7,2-25.2,4.5-37.7,7.5 c10.3,9.5,20.4,19.1,30.5,28.8c-3.9,19.7-7.8,39.4-11.7,59.1c10.1-13.6,20.3-27,30.8-40.2c10.6,10.6,21.2,21.3,31.8,31.9 c-4.1-18.7-8.2-37.3-12.3-56c10.6-12.7,21.4-25.2,32.6-37.5C224.5,377.9,211.1,378.9,197.8,380.4z" fill="#FFFFFF"/>
    <path d="M82.8,211.4c-3.8,20.5-7.7,40.9-11.6,61.4c-13.2,5.2-26.1,10.9-39,16.8c10.8,6.7,21.4,13.7,31.7,21.1 c-4,20.6-7.9,41.2-11.9,61.8c10.3-15.8,20.6-31.6,31-47.4c10.4,8.1,20.5,16.5,30.5,25.1c-3.9-17.8-7.7-35.6-11.6-53.3 c10-14.6,20.1-29.2,30.3-43.7c-12.7,3.2-25.2,6.9-37.6,11.1C90.7,246.6,86.8,229,82.8,211.4z" fill="#FFFFFF"/>
    <path d="M313.4,517.1c-4.8-19.1-9.5-38.3-14.2-57.4c-4.7,18.8-9.4,37.7-14.1,56.5c-14.4-0.2-28.8-0.1-43.2,0.3 c11.5,11.6,23,23.2,34.6,34.8c-4.5,18.9-9,37.9-13.4,56.9c11.7-11.8,23.7-23.4,36-34.6c12.6,12.3,25.3,24.6,38,36.8 c-4.9-19.2-9.8-38.4-14.7-57.7c12.8-11.1,25.8-22,39-32.7C345.5,518.8,329.5,517.8,313.4,517.1z" fill="#FFFFFF"/>
    <path d="M263.3,329.5c11.7-11.9,23.7-23.5,36-34.8c12.7,12.4,25.3,24.7,38,37.1c-4.9-19.3-9.9-38.6-14.8-57.9 c12.8-11,25.8-21.8,39.1-32.4c-16-1.3-32.1-2.3-48.1-3c-4.8-19.2-9.5-38.4-14.2-57.6c-4.7,18.9-9.4,37.8-14.1,56.7 c-14.4-0.2-28.8,0-43.2,0.4c11.5,11.5,23,23,34.6,34.5C272.1,291.4,267.7,310.4,263.3,329.5z" fill="#FFFFFF"/>
    <path d="M95.2,541.8c-3.9-17.5-7.9-35-11.8-52.5c-3.9,20.3-7.7,40.6-11.6,60.9c-13.3,5.1-26.3,10.7-39.2,16.5 c10.9,6.7,21.5,13.9,31.9,21.4c-4,20.5-8,40.9-12,61.4c10.3-15.7,20.7-31.3,31.1-46.9c10.4,8.1,20.5,16.5,30.5,25.1 c-3.8-17.7-7.7-35.4-11.6-53.2c10-14.6,20-29.1,30.2-43.5C120,534.1,107.5,537.7,95.2,541.8z" fill="#FFFFFF"/>
  </g>
  <g opacity="0.3">
    <path d="M259.7,185c127.9,0,223.7,15.9,325.2,32.8C688.7,235,796.1,252.9,941,252.9c44.4,0,90-6.1,135.4-18.1 c30.5-8.1,61.9-19,93.6-32.7v757.2c-36.8,17.4-73.5,30.8-109.2,40c-40.5,10.4-81.1,15.7-120.8,15.7c-140.1,0-243.6-16.8-343.7-33 c-98.9-16.1-201.3-32.7-336.6-32.7c-45.7,0-91.1,5.3-135.1,15.8C93,972.6,61.3,982.9,30,996V241.6c37.1-17.6,73.8-31.2,109.2-40.5 C179.9,190.4,220.4,185,259.7,185 M1200,155c-89.2,45-174.4,67.9-259,67.9c-280.7,0-416.7-67.9-681.3-67.9 C175.2,155,89.1,178,0,222.9c0,242.4,0,577.6,0,820c89-44.9,175.2-63.6,259.7-63.6c268.9,0,398.5,65.7,680.3,65.7 c84.6,0,170.8-22,260-66.9C1200,735.7,1200,397.4,1200,155L1200,155z" fill="#212121"/>
  </g>
</svg>