<svg viewBox="0 0 1200 890" xmlns="http://www.w3.org/2000/svg" xmlns:xlink="http://www.w3.org/1999/xlink">
  <g>
    <path d="M600,446.7c0.1,0,0.1-0.1,0.1-0.1c0-0.1,0-0.1,0-0.1c-0.1,0-0.1,0-0.1,0c-0.1,0-0.1,0.1-0.1,0.1 S599.9,446.6,600,446.7z" fill="#DE2910"/>
    <path d="M0,67.9c0,273.3,0,546.6,0,820c95.9-48,191.9-67.6,298.8-64.3c101.1,3.1,201.7,17.9,301.2,34.6 c99.5,16.7,200.3,29,301.3,31.5c106.6,2.7,203.8-17.3,298.7-66.5c0-274.3,0-548.7,0-823c-95.5,51.5-191.1,69.2-298.7,66.6 C800.3,64.1,699.4,52.1,600,35C500.5,17.9,399.8,3.5,298.8,0.4C191.9-2.7,95.1,18.8,0,67.9z M791.7,457.4 c-24.4,24.2-75.6,14.2-97-9.4c-20.1-22.9-70.7-44.7-90.9-9.1c-0.7,1.9-1.2,4-1.6,6c3.4,0.2,6.9,0.6,10.4,1.4 c63.3,0.6,126.2,38.6,147.6,99.7c20.2,57.7-5.7,118.4-61.8,143.2c17.6-26.8-3.9-54.3-28-66.6c-27-13.7-47.2-59.1-29.7-86.9 c20.4-31.1,2.5-74.5-31.8-86.5c-2.2-0.4-4.3-0.6-6.3-0.7c1.5,3.4,2.6,6.9,3.5,10.5c24,51.8,21.7,118.7-33.1,149.5 c-55.1,31-129.6,9.2-174.7-29.8c27.9,6.4,57-5.4,57.9-37.5c1.2-33.7,49-51,76.6-41.7c32.9,12.4,73.3-3.7,68.7-43.7 c-0.7-2.2-1.5-4.4-2.3-6.4c-2.5,1.9-5.2,3.6-8,5.1c-100,85.3-274.9-47.8-218.1-167.1c5.9,30.8,34.5,46.3,64.5,42.1 c32.9-4.5,74.5,28,79,60.7c4,34,38.9,70,75.5,59.4c1.7-1.1,3.3-2.2,4.9-3.3c-2.9-2.3-5.8-4.7-8.5-7.4 c-49.7-34.3-88.8-94.2-66.1-155.8c20.9-56.8,80.1-78.9,136.4-67c-30.3,8.6-30.6,40.5-16.9,63.4c15.8,26.2,3.9,69-26.4,79.2 c-35.9,9.8-44.4,53.1-22.1,80.3c1.7,1.5,3.5,3.1,5.3,4.5c0.7-3.3,1.6-6.6,2.8-9.7c23.4-146.9,233.9-91,264.1,23.6 C845,435.6,812.7,436.7,791.7,457.4z" fill="#DE2910"/>
    <path d="M559.8,389.1c-5.6-26.7-4.7-53.4,11.8-76.4c1.2,1,1.8,1.5,3,2.4c-15.7,22.2-16.7,47.9-11.3,73.6 c4.8,19,15.8,37.3,30.2,50.4c-22.2-27.3-13.8-70.5,22.1-80.3c30.4-10.1,42.1-53,26.4-79.2c-13.7-23-13.4-54.8,16.9-63.4 c-56.2-11.9-115.4,10.1-136.4,66.9C499.8,344.8,539,404.6,588.6,439C574.9,425.6,564.5,407.7,559.8,389.1z M579.2,278.8 c4.4,4.9,6.6,7.3,11,12.1c5.5-1.2,8.2-1.9,13.7-3.1c-2.5,5.1-3.7,7.6-6.1,12.7c3.7,5.3,5.6,8,9.4,13.3c-5.9-1.7-8.7-2.6-14.5-4.3 c-3.2,4.6-4.7,6.8-7.9,11.4c-1.1-6.1-1.7-9.2-2.9-15.3c-5.8-2.5-8.8-3.8-14.8-6.3c5.4-2.1,8-3.1,13.3-5.2 C579.9,288,579.6,284.9,579.2,278.8z" fill="#FFFFFF"/>
    <path d="M581.5,305.4c1.2,6.1,1.8,9.2,3,15.3c3.2-4.6,4.8-6.8,7.9-11.4c5.8,1.7,8.6,2.6,14.5,4.3 c-3.8-5.3-5.7-8-9.4-13.3c2.4-5.1,3.6-7.6,6.1-12.7c-5.5,1.2-8.1,1.9-13.6,3.1c-4.3-4.8-6.5-7.2-11-12c0.4,6.1,0.6,9.2,1,15.3 c-5.3,2-8,3-13.4,5.1C572.7,301.6,575.7,302.9,581.5,305.4z" fill="#DE2910"/>
    <path d="M600,446.4c-0.1,0-0.2,0-0.3,0c0.1,0.1,0.1,0.1,0.1,0.2C599.9,446.5,599.9,446.5,600,446.4z" fill="#DE2910"/>
    <path d="M598.6,445.2c0.1-0.5,0.3-1.1,0.3-1.6c-1.8-1.4-3.6-2.8-5.3-4.5c-14.4-13.2-25.4-31.5-30.2-50.4 c-5.4-25.8-4.5-51.4,11.3-73.6c-1.2-1-1.8-1.5-3-2.4c-16.3,23.1-17.4,49.7-11.8,76.4c4.8,18.6,15.1,36.4,28.7,49.9 c2.7,2.7,5.6,5.1,8.5,7.4C597.6,446,598,445.5,598.6,445.2z" fill="#DE2910"/>
    <path d="M601.6,434c6.3-15.5,18.9-28.6,34.2-35.5c26.9-12.8,56.3-10,84-1.7c-0.4,1.3-0.5,2-0.9,3.3 c-25.9-9-55.8-10.4-81,1.6c-15.8,7-28.5,21-34.2,37.2c20.2-35.5,70.8-13.8,90.8,9.1c21.4,23.7,72.5,33.7,96.9,9.4 c20.9-20.8,53.3-21.9,74,0.1C835.5,342.8,625.1,287.3,601.6,434z M746.7,419.8c-3.6,4.7-5.4,7.1-9,11.8c-1.3-6.1-2-9.1-3.4-15.2 c-6.5-2.3-9.8-3.4-16.3-5.8c5.8-2.3,8.8-3.4,14.6-5.7c-0.4-6.1-0.6-9.1-1.1-15.2c4.9,4.7,7.4,7,12.4,11.7 c6.3-1.5,9.5-2.3,15.8-3.8c-2.8,5.2-4.2,7.8-7,13c4.3,5.1,6.4,7.7,10.7,12.8C756.7,421.9,753.4,421.2,746.7,419.8z" fill="#FFFFFF"/>
    <path d="M759.9,397.5c-6.3,1.6-9.5,2.4-15.8,3.9c-5-4.7-7.4-7-12.4-11.7c0.4,6.1,0.6,9.1,1.1,15.2 c-5.9,2.3-8.8,3.4-14.6,5.7c6.5,2.3,9.8,3.4,16.3,5.6c1.3,6.1,1.9,9.1,3.2,15.2c3.6-4.6,5.4-7,9-11.6c6.7,1.4,10.1,2.1,16.9,3.4 c-4.3-5.1-6.4-7.7-10.7-12.8C755.6,405.3,757,402.7,759.9,397.5z" fill="#DE2910"/>
    <path d="M637.9,401.8c25.2-11.9,55.1-10.6,81-1.6c0.4-1.3,0.5-2,0.9-3.3c-27.7-8.3-57.1-11.2-84,1.7 c-15.3,6.9-27.9,20.1-34.2,35.5c-1.2,3.1-2.1,6.4-2.8,9.7c-0.1,0.5-0.3,1.1-0.3,1.6c0.1,0,0.1-0.1,0.1-0.1 c0.4,0.5,0.6,0.8,1.1,1.3c0.1,0,0.2,0,0.3,0s0.1,0,0.1,0c-0.1-0.7-0.2-1-0.3-1.7c0.8,0,1.6,0,2.4,0.1c0.4-2,0.9-4.1,1.6-6 C609.5,422.8,622.2,408.8,637.9,401.8z" fill="#DE2910"/>
    <path d="M703.8,549.6c-1.6-0.1-2.4-0.1-3.9-0.2c-2.2-28.2-17.5-54.2-38.3-72.8c-14.4-13-33.2-24.2-52.7-27.2 c34.2,12,52.1,55.4,31.8,86.5c-17.4,27.9,2.6,73.2,29.7,86.9c24.1,12.3,45.6,39.7,28,66.6c56.1-24.8,81.9-85.4,61.8-143.1 c-21.3-61.1-84.3-99.1-147.6-99.8c19.8,4.6,35.8,15,51.3,27.7C685.2,493.3,702.1,520.3,703.8,549.6z M719.8,584.4 c-6.6-1.5-9.9-2.3-16.5-3.8c-3.6,4.7-5.3,7-8.9,11.6c-1.3-6.1-2-9.1-3.3-15.2c-6.4-2.4-9.6-3.6-15.9-6c5.7-2.2,8.5-3.3,14.3-5.5 c-0.4-6.1-0.6-9.1-1-15.2c4.8,4.8,7.3,7.1,12.1,11.9c6.2-1.4,9.3-2.1,15.6-3.5c-2.8,5.1-4.2,7.7-7,12.9 C713.4,576.7,715.6,579.3,719.8,584.4z" fill="#FFFFFF"/>
    <path d="M700.8,562.2c-4.9-4.7-7.3-7.1-12.1-11.9c0.4,6.1,0.6,9.1,1,15.2c-5.7,2.2-8.6,3.3-14.3,5.5 c6.3,2.3,9.4,3.5,15.8,5.8c1.3,6.2,2,9.2,3.3,15.4c3.5-4.6,5.3-7,8.9-11.6c6.6,1.5,9.9,2.3,16.5,3.8c-4.3-5.2-6.4-7.8-10.6-13 c2.8-5.2,4.3-7.8,7.1-13C710.1,560,707,560.7,700.8,562.2z" fill="#DE2910"/>
    <path d="M599.9,444.9c0.1,0.7,0.2,1,0.3,1.7c0,0.1,0,0.1,0,0.1c0.6-0.2,0.9-0.3,1.5-0.4c0.4,0.8,0.7,1.6,1.1,2.4 c2.1,0.1,4.2,0.3,6.3,0.7c19.5,2.9,38.2,14.2,52.7,27.2c20.8,18.7,36.1,44.6,38.3,72.8c1.6,0.1,2.3,0.1,3.9,0.2 c-1.7-29.2-18.6-56.3-39.9-75.5c-15.5-12.7-31.5-23.1-51.4-27.7c-3.6-0.7-6.9-1.2-10.4-1.4C601.5,444.9,600.7,444.9,599.9,444.9z" fill="#DE2910"/>
    <path d="M602.8,511.8c-9.5,24.4-30.2,41.7-55.7,47.5c-0.6-1.4-0.9-2.1-1.4-3.5c24.5-5.5,44.8-22.2,53.8-45.8 c6.3-16.9,7.9-36.7,2.1-54.1c4.6,39.9-35.9,56-68.7,43.7c-27.5-9.1-75.6,7.9-76.6,41.7c-0.9,32.2-30,43.8-57.9,37.5 c45.1,38.9,119.6,60.7,174.7,29.8c54.8-30.8,57.1-97.7,33.1-149.5C611,476.2,609,495.3,602.8,511.8z M527.3,567.5 c-3.5,4.6-5.2,6.9-8.7,11.5c-1.2-6.1-1.9-9.2-3.1-15.3c-6.4-2.5-9.6-3.7-16-6.1c5.8-2.2,8.7-3.2,14.4-5.4c-0.4-6.1-0.6-9.1-1-15.2 c4.8,4.8,7.2,7.2,12,12c6.1-1.3,9.1-1.9,15.1-3.2c-2.7,5.1-4,7.6-6.7,12.7c4.1,5.3,6.1,7.9,10.2,13.2 C537,570,533.8,569.2,527.3,567.5z" fill="#FFFFFF"/>
    <path d="M539.8,545.8c-5.9,1.3-8.9,1.9-14.9,3.2c-4.8-4.8-7.2-7.2-12-12c0.4,6.1,0.6,9.1,1,15.2 c-5.7,2.1-8.6,3.2-14.4,5.4c6.4,2.4,9.6,3.7,15.9,6.1c1.3,6.1,2,9.2,3.3,15.3c3.5-4.6,5.2-6.9,8.7-11.5c6.4,1.7,9.6,2.5,15.9,4.2 c-4-5.3-6.1-7.9-10.2-13.2C535.8,553.4,537.1,550.9,539.8,545.8z" fill="#DE2910"/>
    <path d="M601.5,446.1c-0.6,0.2-0.9,0.3-1.5,0.4c-0.1,0-0.1,0-0.1,0c0.4,0.6,0.6,0.9,1.1,1.4 c-0.5,0.5-1.2,0.9-1.7,1.3c0.9,2.1,1.6,4.3,2.3,6.4c5.8,17.4,4,37.1-2.1,54.1c-9,23.5-29.3,40.3-53.8,45.8 c0.6,1.4,0.9,2.1,1.4,3.5c25.5-5.6,46.2-23.1,55.7-47.5c6.2-16.5,8.2-35.6,3.4-52.8c-0.9-3.6-2.2-7.1-3.5-10.5 C602.3,447.8,601.9,446.9,601.5,446.1z" fill="#DE2910"/>
    <path d="M538.5,459.3c-29.9-5.5-58-22.9-77.6-46c1.2-0.8,1.8-1.2,3.1-1.9c18.8,22.2,45.9,39,74.6,44.4 c17.8,2.5,37.4,3.7,53.6-6c-36.6,10.6-71.6-25.3-75.5-59.4c-4.5-32.7-46.1-65.2-79-60.7c-30,4.3-58.7-11.4-64.5-42.1 C316.4,406.9,491.3,540,591.3,454.7C575.1,463.1,556,461.8,538.5,459.3z M445.7,411.9c-1.4-6.1-2-9.1-3.4-15.2 c-6.6-2.3-9.9-3.5-16.5-5.7c5.9-2.3,8.9-3.5,14.8-5.7c-0.4-6.1-0.6-9.1-1.1-15.2c5,4.7,7.5,7.1,12.4,11.8 c6.3-1.4,9.5-2.1,15.8-3.5c-2.8,5.1-4.2,7.7-7,12.8c4.3,5.2,6.4,7.8,10.7,13c-6.7-1.6-10-2.4-16.7-3.9 C451.1,404.9,449.3,407.2,445.7,411.9z" fill="#FFFFFF"/>
    <path d="M460.9,391.1c2.8-5.1,4.2-7.7,7-12.8c-6.2,1.5-9.4,2.2-15.6,3.7c-5-4.7-7.5-7.1-12.4-11.8 c0.4,6.1,0.6,9.1,0.9,15.2c-5.9,2.3-8.9,3.4-14.8,5.7c6.6,2.2,9.9,3.3,16.5,5.6c1.3,6.1,1.9,9.1,3.2,15.2c3.7-4.7,5.5-7,9.2-11.6 c6.7,1.5,10,2.3,16.7,3.9C467.3,398.9,465.2,396.3,460.9,391.1z" fill="#DE2910"/>
    <path d="M601.1,448c-0.4-0.6-0.6-0.9-1.1-1.4c-0.1-0.1-0.1-0.1-0.1-0.2c-0.1-0.1-0.1-0.1-0.1-0.2 c-0.4-0.5-0.6-0.8-1.1-1.3c-0.1,0-0.1,0.1-0.1,0.1c-0.5,0.3-0.9,0.8-1.5,1.1c-1.6,1.2-3.2,2.3-4.9,3.3c-16.1,9.7-35.8,8.5-53.6,6 c-28.8-5.3-55.9-22.1-74.6-44.4c-1.2,0.8-1.8,1.2-3.1,1.9c19.5,23.1,47.7,40.5,77.6,46c17.6,2.6,36.6,4,52.9-4.7 c2.8-1.4,5.6-3.2,8-5.1C600,449,600.5,448.6,601.1,448z" fill="#DE2910"/>
  </g>
  <g opacity="0.3">
    <path d="M259.7,30c127.9,0,223.7,15.9,325.2,32.8C688.7,80,796.1,97.9,941,97.9c44.4,0,90-6.1,135.4-18.1 c30.5-8.1,61.9-19,93.6-32.7v757.2c-36.8,17.4-73.5,30.8-109.2,40C1020.3,854.7,979.7,860,940,860c-140.1,0-243.6-16.8-343.7-33 c-98.9-16.1-201.3-32.7-336.6-32.7c-45.7,0-91.1,5.3-135.1,15.8C93,817.6,61.3,827.9,30,841V86.6C67.1,69,103.8,55.4,139.2,46.1 C179.9,35.4,220.4,30,259.7,30 M1200,0c-89.2,45-174.4,67.9-259,67.9C660.3,67.9,524.3,0,259.7,0C175.2,0,89.1,23,0,67.9 c0,242.4,0,577.6,0,820c89-44.9,175.2-63.6,259.7-63.6c268.9,0,398.5,65.7,680.3,65.7c84.6,0,170.8-22,260-66.9 C1200,580.7,1200,242.4,1200,0L1200,0z" fill="#212121"/>
  </g>
</svg>