<svg viewBox="0 0 1200 890" xmlns="http://www.w3.org/2000/svg" xmlns:xlink="http://www.w3.org/1999/xlink">
  <g>
    <path d="M600,35c0,68.6,0,137.2,0,205.8c76,13.3,150.8,62.5,191.2,128.4c-8.6-10.4-18.3-19.9-28.8-28.4 c-45.2-34.9-104.3-59.9-162.4-51.1c0,32.2,0,64.4,0,96.6c23.9,12.2,48,23.7,72.4,34.7c15.9-18,32-35.9,48.1-53.8 c0,24.8,0,49.7,0,74.5c26,10.7,52.1,21,78.3,30.9c-26,5.2-52.2,10-78.3,14.5c0,24.8,0,49.7,0,74.5c-16.2-22-32.3-44.1-48.1-66.5 c-24.1,3.9-48.3,7.7-72.4,11.7c0,32.2,0,64.4,0,96.6c60.9,31.7,142.9,20.5,191.2-28.9c-20.3,30.1-50.8,52.5-84.2,66.1 c-35.1,12.7-70,17-107,11.6c0,68.6,0,137.2,0,205.8c108.6,18.3,219.7,32.2,330,31.9c95-0.3,185.2-24.9,270-67 c0-274.3,0-548.7,0-823c-86.2,41.2-173.9,67.7-270,68C819.6,68.2,708.5,54.4,600,35z" fill="#FFFFFF"/>
    <path d="M643.8,453.8c-15-22.3-29.6-44.8-43.8-67.6c0,40.2,0,80.5,0,120.7C614.3,489,629,471.3,643.8,453.8z" fill="#FFFFFF"/>
    <path d="M520,330.6c-68.4,69.7-38.1,175.8,26.9,235.7c16.4,14.4,33.7,27.3,53.3,37.2c0-32.2,0-64.4,0-96.6 c0-40.2,0-80.5,0-120.7c0-32.2,0-64.4,0-96.6C569.9,293.8,541.3,309,520,330.6z" fill="#006233"/>
    <path d="M409.9,523C351.7,425.4,383,294,494,251.5c34.9-12.4,69.4-16.1,106-10.7c0-68.6,0-137.2,0-205.8 C491.4,15.5,380.7-0.1,270.2,0C173.1,0.1,86.4,24,0,67.9c0,273.3,0,546.6,0,820c185.4-97,402.3-63.2,600-29.8 c0-68.6,0-137.2,0-205.8C524.2,638.9,449.3,589.5,409.9,523z" fill="#006233"/>
    <path d="M600,506.9c24.1-4,48.3-7.8,72.4-11.7c15.8,22.3,31.9,44.5,48.1,66.5c0-24.8,0-49.7,0-74.5 c26.2-4.5,52.3-9.3,78.3-14.5c-26.2-10-52.4-20.3-78.3-30.9c0-24.8,0-49.7,0-74.5c-16.1,17.9-32.2,35.8-48.1,53.8 c-24.4-11-48.6-22.5-72.4-34.7c14.2,22.8,28.8,45.3,43.8,67.6C629,471.3,614.3,489,600,506.9z" fill="#D21034"/>
    <path d="M494,251.5C383,294,351.7,425.4,409.9,523c39.3,66.5,114.3,115.9,190.1,129.3c37,5.3,71.9,1.1,107-11.6 c33.4-13.6,63.8-36,84.2-66.1C742.9,624,660.9,635.2,600,603.5c-19.6-9.9-36.9-22.8-53.3-37.2c-65-59.9-95.2-165.9-26.9-235.7 c21.4-21.5,49.9-36.8,80.1-41c58.1-8.8,117.2,16.2,162.4,51.1c10.5,8.5,20.2,18,28.8,28.4C750.7,303.2,676,254,599.9,240.7 C563.3,235.3,528.8,239.1,494,251.5z" fill="#D21034"/>
  </g>
  <g opacity="0.3">
    <path d="M259.7,30c127.9,0,223.7,15.9,325.2,32.8C688.7,80,796.1,97.9,941,97.9c44.4,0,90-6.1,135.4-18.1 c30.5-8.1,61.9-19,93.6-32.7v757.2c-36.8,17.4-73.5,30.8-109.2,40C1020.3,854.7,979.7,860,940,860c-140.1,0-243.6-16.8-343.7-33 c-98.9-16.1-201.3-32.7-336.6-32.7c-45.7,0-91.1,5.3-135.1,15.8C93,817.6,61.3,827.9,30,841V86.6C67.1,69,103.8,55.4,139.2,46.1 C179.9,35.4,220.4,30,259.7,30 M1200,0c-89.2,45-174.4,67.9-259,67.9C660.3,67.9,524.3,0,259.7,0C175.2,0,89.1,23,0,67.9 c0,242.4,0,577.6,0,820c89-44.9,175.2-63.6,259.7-63.6c268.9,0,398.5,65.7,680.3,65.7c84.6,0,170.8-22,260-66.9 C1200,580.7,1200,242.4,1200,0L1200,0z" fill="#212121"/>
  </g>
</svg>