<svg viewBox="0 0 1200 1200" xmlns="http://www.w3.org/2000/svg" xmlns:xlink="http://www.w3.org/1999/xlink">
  <g>
    <path d="M0,220.7c0,137,0,274,0,411c88.2-72.6,179.9-139.9,290.3-174c100.2-30.9,206.6-46.4,310.1-61.6 c103.3-15.2,204.6-32.6,304.2-64.8c113-36.3,203.3-103.2,295.4-176.3c-97.6,42.7-191.5,66.2-298.3,64.7 c-101.3-1.4-202.1-11.3-301.7-29.8c-99.2-18.5-200.2-31.7-301.2-34.5C192,152.5,97.2,177.6,0,220.7z" fill="#000066"/>
    <path d="M0,631.8c0,137,0,274,0,411c95.3-44.8,193.4-66,298.8-62.2c101.1,3.6,201.2,21,301.2,34.3 c100,13.3,200.5,26.9,301.4,29.6c106.7,2.9,203.1-15.7,298.6-64.5c-104.4,15.5-200.9-13.4-298.3-48.2 c-102.1-36.4-203.6-77-301.7-123.2c-98.9-46.6-198.4-90.9-301.4-128C200.8,645.6,104.5,622.4,0,631.8z" fill="#000066"/>
    <path d="M1200,935.9c-89.7,13-173.3-5.7-258.1-34.2c-91.5-30.8-181.4-66.6-270-105c-92.2-40-181.8-85.2-275.1-122.7 c-90.7-36.4-184.9-74.5-282.7-85.8c86.4-57.7,178.4-91.2,279.8-112c92.8-19,186.7-31.4,280.2-46.4c89.8-14.4,179.6-34.8,265.2-66 c98.2-35.7,179.8-100.2,260.6-164.7c0-14.7,0-29.5,0-44.2c-92.1,73.1-182.4,140-295.3,176.4c-99.6,32.1-201,49.6-304.2,64.8 c-103.6,15.2-209.9,30.6-310.1,61.6C179.9,491.9,88.2,559.2,0,631.8c104.5-9.4,200.8,13.8,298.6,48.9c103,37,202.5,81.4,301.4,128 c98.1,46.2,199.5,86.8,301.7,123.2c97.5,34.8,193.9,63.6,298.3,48.2C1200,965.4,1200,950.6,1200,935.9z" fill="#BD1021"/>
    <path d="M1200,935.9c0-245.5,0-491.1,0-736.6c-80.8,64.5-162.4,129-260.6,164.7c-85.6,31.1-175.4,51.6-265.2,66 c-93.5,15-187.4,27.4-280.2,46.4c-101.4,20.7-193.4,54.3-279.8,112c97.8,11.3,192,49.3,282.7,85.8 c93.3,37.5,182.9,82.7,275.1,122.7c88.5,38.4,178.5,74.2,270,105C1026.7,930.2,1110.3,948.8,1200,935.9z M983.4,689.2 c3.3-13.8,6.8-12.6,13-6.4c5.9,5.9,12.3,7.9,12.3,7.9c0.4-10.8,9.9-18.5,20.1-18.4c2.1-8.1,10.5-24.8,3.6-32 c-4.5-2.9-6.3-8.6-6.3-8.6c-4.2-7.4-6.5-18.7-7-25.7s-5.8,4.4-6.8,2.3c-1-2.2-9,0.1-9,0.1c1.9,2.9-4.7,1.8-4.7,1.8 c0.6,0.8,0,3.8,0,3.8c-0.6-1.3-5.7-2.1-5.7-2.1c-0.5,1.7-1.6,3.8-1.6,3.8c-2.8-1.6-8.4-0.8-8.4-0.8c-8.4,0.5-13.6,4.7-16,6.8 c-2.4,2.3-11,8.9-18.2,19s-11.4,8.9-11.4,8.9c-2.5,10-12.2,18.7-20.1,24.6c-2.9,3.6-12.1,5.1-16.8-0.3c-4.7-5.4,0-14.7,0-14.7 c1.7-4.4,3.5-4.1,3.7-19.4c0.7-11.6,9.6-21.2,16-30.1c8.4-12.5,15.9-25.5,23.2-38.7c0.1,7.4,2.9,8.5,2.9,8.5 c2.6-7.6,6.3-13.7,6.3-13.7c0.2,0.7,0.7,1,0.7,1c2.9-5.7,4.6-8.1,4.6-8.1c-1-0.5-9.1,0.3-16.7,9.8c-7.8,9.5-13.2,6.3-13.2,6.3 c-5.5-2.3-6-8.1-6-8.1c-2.4-14.3,2.3-29.6,11.7-40.6c-28.4-10.4,7.3-51.7,19.8-59.6c8.9-6.3,20.3-13.1,24.3-23.9 c1.4,2.2,2.5,6.4,2.5,6.4c0.2-0.3,2.1-4.3,15.8-14.8s19.9-19.5,19.9-19.5c1.7,4.9,1.4,8.6,1.4,8.6c29.1-20.5,51.7-51.2,70.5-81.1 c1,3.5,0.5,9.5,0.5,9.5c7.7-13,17.4-25,26.6-37c0.3,12.6-6.2,19.7-6.2,19.7c0.7,1.6,1.1,4.8,1.1,4.8c6.9-8.9,13.2-18.3,19.6-27.6 c5.9,5.9,0.5,21,0.5,21c2.1-1.3,3.7-4.7,3.7-4.7c1,9.9-3.3,20.4-8.1,28.8c1.7-0.6,4.5-4.1,4.5-4.1c-2.2,14.1-11.2,27.4-19.8,38.6 c2.6,2.8,0.1,8.6-2,11.4c-2.2,2.9-5.9,8.9-4.8,10.5s9-9.8,9-9.8c1.4,5.8-8.7,21.6-8.7,21.6c10.6-3.9,19.3-13.9,26.8-22.1 c-1.8,12.9-8.8,24.6-18.2,33.3c-9.2,8.6-8.6,9.1-8.6,9.1c1.6,1.5,14.3-8.6,14.3-8.6c-2.7,10.4-9.6,20.6-16.9,28.3 c3.6,3.7,8.5-3.6,13.4-10.6c5.3-7.6,12.4-14.8,19.2-20.8c7.5-6.7,12.9-6,12.9-6c6.3-5.7,11.8-3.5,11.8-3.5 c12.4-3.7,13.8,2.6,13.8,2.6c1.4-0.1,2.4,0.3,5.7,2.3c3.3,2,3,13,2.9,18.5c-0.1,5.3-1.1,5.8-1.8,7.6c-0.7,1.8-0.5,3.7-0.7,5.6 c-1,10.3-12,20.6-22.6,24.6c-9.4,4-18.9,7.7-28.5,11.2c-1.6,0.6-3.4,2.7-3.4,2.7c-7.8,8.9-3.7-2.7-12.9,12.3 c-9.1,15-13.8,14.4-13.8,14.4c-4.8,9.5-10.2,18.8-16.4,27.5c-5.5,7.1-4.4,6.4,0.3,8.4s11.9-3.4,11.9-3.4c-4.5,6.3-1.4,7.6-1.4,7.6 c6-7.7,9.7-6.6,9.7-6.6c2,7.8-4.9,23.2-4.9,23.2c2.7-0.3,7.7-2.4,7.7-2.4c-1.2,6-6.2,13.9-9.9,17c-3.7,3.1-3,3.5-2,6.9 s0.2,7.1,0.2,7.1c-6.4-5.2-6.7,1.1-6.7,1.1c-0.7,8.7-0.6,20.7-0.6,20.7c-4.5-2.4-4.7,2.5-4.7,2.5c-1.1,8.1-6.7,18.5-6.7,18.5 c-0.2-4.7-3-5.2-3-5.2c-2.9,9.7-8.2,16.2-8.2,16.2c-0.7,7.9,0.6,18.4,0.6,18.4c-3.4-0.4-4.7,0.1-5.3,1.5s0.8,1.8,0.8,1.8 c15.1-3,30-6.4,44.9-10.4c0.6,0,3.3-0.6,3.4,7.3c0.1,7.8-3.9,9.4-3.9,9.4c-16.2,4.6-32.6,8.3-49.1,11.3c0,0,0.2,2.1-2.4,4.8 s-1.8-2.1-2.5,7.8c-0.7,9.9-10.6,1.2-10.6,1.2c-1.6,4.1-5.4,9.5-5.4,9.5c-2.2-10.2-4.5-13.1-8.1-3.3s6.5,6.6,6.5,6.6 c20.8-8.3,41.2-18.6,60.9-28.1c3-1.4,6.6-2.2,8,4.4s-7,10.3-7,10.3c-19.4,9-39.1,17.1-59.3,24.3c-1.3,5.8-6.3,6.2-6.3,6.2 c0.4,5.2-3.2,9.3-5.1,11.5c-1.8,2.2-7.6,2.1-7.6,2.1c-7.1,8.4-10.6,2.9-10.6,2.9c-4.6,3.7-7.7,2.6-11.5,0.3 c-3.9-2.1-3.6-9.4-3.6-9.4c-13.5,3.3-27.1,5.9-40.8,8.4c-2,1-3.4,2.9-3.4,2.9c1.5,2.6-3,9.1-3,9.1c1.3,1.1,3.7,4.6,4,12.1 c0.4,7.9-6.8,9.4-3.3,14.7c3.6,5.4,10.2,0.8,17.4-4.4s14-5,17-5.2s11.2,2.3,16.3,4.5c5,2.2,6.7,0.5,7.2-3.5c0.4-4,2.6-5.4,2.6-5.4 c-0.6,3.9,0.8,5.5,0.8,5.5c1.9,0,5.3-3.2,5.3-3.2c-0.3,2.8-2.8,5-2.8,5c-4.9,5.5,1.8,2.9,1.8,2.9c13.4-5.9,17.9-6.2,21.4-6.3 c3.4,0,19.4,7.9,19.4,7.9c0.6-2.6,0.2-8.8,0.2-8.8c4,1,5.7,4.3,5.7,4.3c1.6-3,0.5-7.2,0.5-7.2c13,9-2.7,17.6-6.9,20.6 c-4.3,3-4.2,5.8-4.2,5.8c3.5-2.5,5.9-3.5,8.8-4.6c2.9-0.9,1.9-0.3,8.8-4.2c6.9-3.7,10.4,0,10.4,0c-5.8,1.9-7.4,5.1-7.4,5.1 c3.6,3.1,0.2,7.4,0.2,7.4c-5.3-9.4-9.7,2.7-9.7,2.7c1.8-0.9,7-0.2,8.6,0.9c1.1,0.9,3.9,2.4,7.2,4.1c4.7,2.3,3.9,0.4,7.5,1.5 c3.6,1.2,2.3,7.3,2.3,7.3c-1.6-4.2-5-5-5-5c-0.3,6.4-4.2,8.4-4.2,8.4c4.8-9.8-5.6-11-10.4-9.8s-8.6,7-8.6,7 c9.9,12.7,16.6,6.2,16.6,6.2c-1.2,5.6-9.4,5.5-9.4,5.5c3.7,3.8,3.3,7,3.3,7c-2-2.7-5.3-0.3-12.4-6.3c-7.2-6-13.4-2.4-13.4-2.4 c7,10.5-2.5,19.1-2.5,19.1c-3.6,3.7,1.5,7.2,1.5,7.2c-4.4,2.1-5-5-5-5c-2.3-0.3-5.7,4.7-5.7,4.7c0.2-7.1,6.6-5,6.4-12.1 c-0.3-11.1-14.8-9.4-22.7-6.4c-16.1,6.2-22.5-2.6-22.5-2.6c-1.5,0.1-1.9,2.5-1.9,2.5c3,4.1,4.3,5.6,3.7,8.6c-0.5,3,1,3.9,1,3.9 c-3.3-0.1-3.5-5.8-3.5-5.8c-0.1,2.3-0.8,2.7-1.9,5.3c-1.1,2.6-0.1,5.8-0.1,5.8c-1.4-1.7-3.9-3.7-1.5-9.1c1.9-4.1-3.9-8.8-3.9-8.8 c-2.2-3.2-8.2,0.3-8.2,0.3c-12.4,4.3-19.8-7.1-19.8-7.1c-1.5,0-4.2-1.1-4.2-1.1c-9.3,6.6-20.9-2.3-26-9.9 c-10.7,2.7-15.7-4.5-18.9-11.4c-3.3-6.8-4-7.5-8.3-11.1c-4.4-3.6-8.5-13.8-4.5-18.8c3.5-4.5,2.5-5.5,2.5-5.5 c-5.8-12.9,10.1-16.4,10.5-19.5c0.4-4.4,3.7-7.2,7.2-7.3c3.4-0.1,3.4,0.2,5.8-2.9c2.3-3.1,6.7,0.9,6.7,0.9c0.8-1,8.5-8.9,15.1-4.8 c6.6,4.1,12,1,12,1c13.7-3.8,27.5-7,41.2-11c2.3-5.5,4-11.7,13.7-16.2s16.8-14.7,16.8-14.7c-1.7-2.6-4.6-2-5.9-2.2 c-1.5-0.1-4.5-3.7-4.5-3.7c-1.8,1.4-2.6,1.1-15.4,14.1c-11.4,11.7-11.8-9.4-11.8-9.4c-10.2,0.8-15.3,1-25.9,1.4 c-0.5,8.1-4.7,11.4-4.7,11.4c-3.9,0.4-5.8,0.5-9.8,0.9c-5.5-4-5.5-17.6-5.5-17.6c-16.7,0.5-34.5,4.9-48.2,14.9 c-20.3-13.6-41.9-26.2-65.6-33c23.4-2.3,47.9-6.3,68.2-18.9c13.5,9.8,28.4,19,45.5,20c0.8-11.4,6.4-14.4,6.4-14.4 c2.5,0.2,3.7,0.2,6.2,0.4c7.8,0.6,7.4,11.5,7.4,11.5C967.7,689.5,973,689.5,983.4,689.2z" fill="#FFFFFF"/>
    <path d="M1004.7,706.7c3.2-4.8-0.3-2.3-1.1-1.4c-0.8,0.9-1.3,1.8-2.9-1c-0.3-0.5-0.4-0.9-0.5-1.3c-0.6,0.4-1.3,0.8-1.9,1.2 C999.3,706,1001.7,711,1004.7,706.7z"/>
    <path d="M1119.8,486.6c-0.9,1.3-1.9,2.8-2.6,4.2c3,0.1,4.6-4.1,6.2-5.7c0.9-1,0.6-2,0.2-2.7 C1122.3,483.6,1124.2,480.3,1119.8,486.6z"/>
    <path d="M1135,474.9l0.2-0.4C1135.1,474.7,1135,474.9,1135,474.9z"/>
    <path d="M949.5,678.2c-2.5-0.1-3.7-0.2-6.2-0.4c0,0-5.5,2.9-6.4,14.4c-17.1-1-32-10.2-45.5-20c-20.3,12.6-44.9,16.6-68.3,18.9 c23.7,6.8,45.3,19.4,65.6,33c13.7-10,31.4-14.4,48.2-14.9c0,0,0.1,13.5,5.5,17.6c3.9-0.3,5.9-0.5,9.8-0.9c0,0,4.3-3.3,4.7-11.4 c10.6-0.4,15.7-0.6,25.9-1.4c0,0,0.4,21.1,11.8,9.4c12.8-13.1,13.6-12.7,15.4-14.1c0,0,3,3.6,4.5,3.7c1.5,0.1,4.2-0.4,5.9,2.2 c0,0-7.2,10.3-16.8,14.7c-9.7,4.4-11.4,10.7-13.7,16.2c-13.7,4-27.5,7.2-41.2,11c0,0-5.3,3.1-12-1c-6.6-4.1-14.2,3.8-15.1,4.8 c0,0-4.4-4-6.7-0.9s-2.3,2.8-5.8,2.9s-6.8,3-7.2,7.3c-0.2,3-16.1,6.6-10.5,19.5c0,0,1,1-2.5,5.5c-4,5.1,0.1,15.2,4.5,18.8 s5,4.3,8.3,11.1s8.3,14.1,18.9,11.4c5,7.6,16.6,16.6,26,9.9c0,0,2.8,1.1,4.2,1.1c0,0,7.5,11.3,19.8,7.2c0,0,5.9-3.5,8.2-0.3 c0,0,5.6,4.7,3.9,8.8c-2.4,5.5,0.1,7.4,1.5,9.1c0,0-1-3.2,0.1-5.8s1.8-2.9,1.9-5.3c0,0,0.2,5.8,3.5,5.8c0,0-1.4-0.9-1-3.9 c0.5-3-0.8-4.7-3.7-8.6c0,0,0.3-2.3,1.9-2.5c0,0,6.4,8.9,22.5,2.6c7.9-3.1,22.4-4.8,22.7,6.4c0.2,7.1-6.2,4.8-6.4,12.1 c0,0,3.4-5,5.7-4.7c0,0,0.6,6.9,5,5c0,0-5-3.5-1.5-7.2c0,0,9.5-8.6,2.5-19.1c0,0,6.4-3.4,13.4,2.4c7.1,5.9,10.4,3.6,12.4,6.3 c0,0,0.4-3.4-3.3-7c0,0,8.2,0.3,9.4-5.5c0,0-6.8,6.5-16.6-6.2c0,0,3.6-5.7,8.6-7s15.3,0,10.4,9.8c0,0,3.9-2,4.2-8.4 c0,0,3.4,0.8,5,5c0,0,1.4-6.2-2.3-7.3s-2.8,0.8-7.5-1.6c-3.4-1.6-6.1-3.2-7.2-4.1c-1.5-1.1-6.8-1.8-8.6-0.9c0,0,4.4-12,9.7-2.7 c0,0,3.5-4.1-0.2-7.4c0,0,1.8-3.2,7.4-5.1c0,0-3.5-3.7-10.4,0s-5.9,3.3-8.8,4.2s-5.3,2.1-8.8,4.6c0,0-0.1-2.8,4.2-5.8 c4.3-3,20-11.8,6.9-20.6c0,0,1,4.2-0.5,7.2c0,0-1.7-3.4-5.7-4.3c0,0,0.4,6.2-0.2,8.8c0,0-15.9-7.8-19.4-7.9c-3.4,0-8,0.4-21.4,6.3 c0,0-6.8,2.6-1.8-2.9c0,0,2.5-2.1,2.8-5c0,0-3.3,3.2-5.3,3.2c0,0-1.4-1.5-0.8-5.5c0,0-2.3,1.4-2.6,5.4s-2,5.8-7.2,3.5 c-5-2.2-13.3-4.7-16.3-4.5s-9.8-0.1-17,5.2c-7.2,5.2-13.7,10-17.4,4.4c-3.6-5.4,3.6-6.8,3.3-14.7c-0.4-7.4-2.8-10.8-4-12.1 c0,0,4.6-6.3,3-9.1c0,0,1.4-1.8,3.4-2.9c13.7-2.5,27.3-5.1,40.8-8.4c0,0-0.3,7.1,3.6,9.4c3.9,2.1,6.8,3.2,11.5-0.3 c0,0,3.6,5.6,10.6-2.9c0,0,5.8,0.2,7.6-2.1c1.8-2.2,5.5-6.1,5.1-11.5c0,0,5-0.3,6.3-6.2c20.2-7.2,39.8-15.3,59.3-24.3 c0,0,8.4-3.7,7-10.3c-1.4-6.5-5-5.8-8-4.4c-19.7,9.5-40.1,19.8-60.9,28.1c0,0-10.1,3.2-6.5-6.6s5.9-6.9,8.1,3.3 c0,0,3.9-5.6,5.4-9.5c0,0,9.9,8.5,10.6-1.2c0.7-9.9-0.2-5.1,2.5-7.8s2.4-4.8,2.4-4.8c16.5-3,33-6.6,49.1-11.2c0,0,4-1.6,3.9-9.4 s-2.8-7.4-3.4-7.3c-14.9,4-29.8,7.4-44.9,10.4c0,0-1.3-0.4-0.8-1.8c0.5-1.4,1.8-1.9,5.3-1.5c0,0-1.3-10.4-0.6-18.4 c0,0,5.4-6.6,8.2-16.2c0,0,2.8,0.5,3,5.2c0,0,5.6-10.4,6.7-18.5c0,0,0.2-5,4.7-2.5c0,0-0.1-12.1,0.6-20.7c0,0,0.2-6.5,6.7-1.1 c0,0,0.9-3.9-0.2-7.1c-1.1-3.1-1.8-3.8,2-6.9s8.7-10.8,9.9-17c0,0-5.1,2.1-7.7,2.4c0,0,6.9-15.4,4.9-23.2c0,0-3.6-1-9.7,6.6 c0,0-3.2-1.4,1.4-7.6c0,0-7.1,5.4-11.9,3.4c-4.7-2-5.7-1.3-0.3-8.4c6.2-8.6,11.6-18,16.4-27.5c0,0,4.6,0.8,13.8-14.4 c9.1-15,5.1-3.5,12.9-12.3c0,0,1.8-2.1,3.4-2.7c9.6-3.4,19.3-7.4,28.5-11.1c10.3-4.1,21.6-14.4,22.6-24.6c0.2-1.8,0.1-3.9,0.7-5.6 c0.7-1.8,1.7-2.2,1.8-7.6s0.3-16.3-2.9-18.5c-3.3-2.2-4.4-2.4-5.7-2.3c0,0-1.3-6.1-13.8-2.6c0,0-5.5-2-11.8,3.5c0,0-5.4-0.7-12.9,6 c-6.8,6.1-13.9,13.3-19.2,20.8c-4.9,7-9.9,14.4-13.4,10.5c7.4-7.7,14.2-17.9,16.9-28.3c0,0-12.6,10-14.3,8.6c0,0-0.5-0.6,8.6-9.1 c9.4-8.8,16.4-20.5,18.2-33.3c-7.5,8.1-16.1,18.2-26.8,22c0,0,10.1-15.8,8.7-21.6c0,0-7.9,11.4-9,9.8s2.6-7.6,4.8-10.5 c2.2-2.9,4.6-8.6,2-11.4c8.6-11.2,17.5-24.5,19.8-38.6c0,0-2.8,3.7-4.5,4.1c4.8-8.4,9.2-18.9,8.1-28.8c0,0-1.6,3.4-3.7,4.7 c0,0,5.4-15.2-0.5-21c-6.4,9.3-12.7,18.6-19.6,27.6c0,0-0.4-3.2-1.1-4.8c0,0,6.6-7,6.2-19.7c-9.2,11.9-19,23.9-26.6,37 c0,0,0.5-5.9-0.5-9.5c-18.8,29.8-41.4,60.6-70.5,81c0,0,0.3-3.7-1.4-8.6c0,0-6.3,9-19.9,19.5c-13.6,10.5-15.4,14.5-15.8,14.8 c0,0-1.1-4.2-2.5-6.4c-4,10.8-15.4,17.5-24.3,23.9c-12.5,7.9-48.2,49.2-19.8,59.6c-9.5,10.9-14.1,26.3-11.7,40.6c0,0,0.5,5.8,6,8.1 c0,0,5.4,3.2,13.2-6.3s15.8-10.5,16.7-9.8c0,0-1.7,2.4-4.6,8.1c0,0-0.6-0.5-0.7-1c0,0-3.7,6.2-6.3,13.7c0,0-2.8-1.1-2.9-8.5 c-7.2,13.2-14.8,26.3-23.2,38.7c-6.5,9-15.3,18.6-16,30.1c-0.3,15.2-1.9,15-3.7,19.4c0,0-4.7,9.3,0,14.7s13.8,3.9,16.8,0.3 c7.9-5.9,17.6-14.6,20.1-24.6c0,0,4.2,1.1,11.4-8.9c7.2-10.1,15.8-16.9,18.2-19c2.4-2.3,7.6-6.3,16-6.8c0,0,5.7-0.8,8.4,0.8 c0,0,1.2-1.9,1.6-3.8c0,0,5.1,0.8,5.7,2.1c0,0,0.6-3,0-3.8c0,0,6.7,1.1,4.7-1.8c0,0,7.9-2.3,9-0.1s6.3-9.3,6.8-2.3s2.8,18.5,7,25.7 c0,0,1.8,5.9,6.3,8.6c6.9,7.2-1.6,24-3.7,32c-10.2-0.1-19.7,7.6-20.1,18.4c0,0-6.3-2-12.3-7.9c-6.2-6.2-9.7-7.4-13,6.4 c-10.4,0.5-15.7,0.6-26.5,0.6C956.9,689.7,957.1,678.9,949.5,678.2z M936.6,701.2c-7-0.8-13.1-0.8-18.3-0.5c10.5,1.9,16,7.5,16,7.5 c-2.9-0.5-9.9,0.5-17,1.9s-3.8,2.6-10.3,0.8S888.9,722,888.9,722c-8.2-6.3-17.1-11.5-26.2-16.4c10.5-3.2,21-0.6,29.8,5.4 c4.1-3.5,9.2-6.5,12.9-8.4c-9.5,2.5-13,6.5-13,6.5c-13.9-7.5-28-13.5-44-14.4c8.9,3.8,7.8,7.8,7.8,7.8 c-4.4-2.9-24.1-10.6-24.1-10.6c20.4-2.9,41.1-7,59.2-17.3c13.5,9.8,28.3,18.1,45.3,19.3C936.6,697.3,936.6,701.2,936.6,701.2z M980.6,851.8c-2.7-1.5-3.8-2.9-9.1-4.6c-5.4-1.7-4.6-6.9-4.6-6.9c-2.7,1.3-4.4,1.7-8.6,0.7c-4.2-1-7.8-6.9-7.8-6.9 c11.9,1.7,8.9-5.1,8.9-5.1c6.6,0.7,8.3-1.8,8.3-1.8c1.5,2.7,5.3,2.7,5.3,2.7c-4.8,4.9-1,4.8,0.3,4.6c1.3-0.4,8.5-3.3,12,0.4 s5.2,0.8,11.3,3.5s10.6,2.5,10.6,2.5c-6.4,6.5-18.5,3-23.9,1.4s-9.2-1.1-9.2-1.1C981,848.5,980.6,851.8,980.6,851.8z M1028.5,850.8 c-5.3-3.5-10.8-1.1-14.1,0.2c-3.4,1.3-4.5-2.4-4.5-2.4c2.1-2.4,8.8-3.8,8.8-3.8C1029.4,843.8,1028.5,850.8,1028.5,850.8z M1067.5,806.9c-2.6,1.1-3.7,2.9-3.7,2.9c-1.7-0.9-4.5-0.1-4.5-0.1C1065.8,804.7,1067.5,806.9,1067.5,806.9z M1050.6,793.6 c2.2,1,3.7,3.5,3.7,3.5c-0.8,2.3-3.7,3.3-3.7,3.3C1051.1,796.6,1050.6,793.6,1050.6,793.6z M946.3,763c-2.1,1.4-4.1,1.4-2.8,3.7 s0.4,3.5-3.3,8.8c0,0,4,3.2,4.2,9c0.2,5.6,0,6.8-2.7,10.8s-1.1,8.4,1.4,9.9c2.5,1.6,6.6,3.1,14.7-3.7c8.1-6.7,17.3-8.2,22.9-6.8 c5.5,1.4,14.4,7.1,18.1,4.4c3.8-2.7,4.1-0.1,4.7,0.8c0.6,0.8,1.6,1.9,8.8-1.4c7.2-3.2,14.8-6.5,20.9-3.5s9.9,5,14.1,6.5 s9.5-2.8,9.7-9.5c0,0,4.1,3.2,1.3,7c-2.9,3.8-8.4,11.7-21.5,3.4c0,0-0.2,1.5,1.5,2.9c0,0-1.6,4.4-6.9,0.2 c-5.5-4.2-12.9-6.1-20.3,1.6c0,0,4.4-1.3,12.7,4.2c8.3,5.5,11.7,1.3,15.9-5.7c0,0,3.8,2.1,7.9,2.6c0,0-3.3,2.5-8.2,8 c0,0,1.2,2.1,5.6,0c4.4-2.2,5.6-3.6,7.8-3.2c0,0-2.2,4.6-9.4,7.7c0,0,4.2,0.7,8.8-4.9c4.6-5.6,9.8-5.6,11-2.4c0,0-4.5-0.1-7.9,4.2 c-3.3,4.3-6.2,4.6-9.1,5.2c-2.9,0.6-3.5,1.7-4.2,2.3c0,0,1.5,0.6,5.2-0.5s15.3-4.9,18.3,2.2c0,0-5.8,0-9.9,2.2s-7.4,1.5-8.2,1.3 c0,0,0.2,2.8,7.2,1.2c0,0-1.9,3.7-5.2,3.7c0,0,2.2,3.8,11.1,10.4c0,0-1.8,0.7-4.2,0.6c0,0,0.3,1.3,0.9,1.8c0.6,0.4,3.3,2.4,3.5,4 c0,0-5.2-0.7-8-3.9s-6.4-4.5-8.8-4.7s-6.6,0-10.2,1.5c0,0,7.6,6.6,3.8,14.4c0,0-0.7-6.1-4.1-8.1c0,0,0.5,2.6-0.1,5.5 c0,0-2-3.1-3.5-4.1c0,0,1-7.7-6.5-8.6c0,0-10.3-0.9-15.1,4.8c0,0,0.9,2.7,2,3.4c0,0-3.3,1-4.3,0.2c-1-0.9-1.3-2.3-2.8-2 c0,0,0.3,2.9-0.8,4.4c0,0-4.3,2.1-8-3c0,0,0.5,1.1,0,3c0,0-5.1-3-7-5.7c0,0-3,1.7-3.6,4.9c0,0-1.7,0-2.1-2.5s-2.5-6.1-4.9-8.4 c0,0,0.8-0.5,10.6,2.2s16.3,1.1,20.1-1.9c3.8-3.1,5.9-2.9,6.8-2.5c0,0-0.7-2.2-5.7-0.8c-4.9,1.4-10-2.4-13.5-3 c-3.4-0.7-5-0.7-5-0.7s-2.5,0.7-4.9-2.6c0,0-1.7-3.3-10.9-0.3c0,0-6.9,2.3,2.2-4.8c0,0-6.8,2.5-8.7-3.3c0,0-1.4,5.1-10.7,2.3 c0,0,6.5,7.3-6.6,5.8c0,0-1.4,0.5-6.4-5.1c0,0-2.6-2.6,2-0.7c0,0,1.3,1,3.5,0.4c0,0-1.3-0.9-5.8-2.7s-8.3-6-10.2-9.8 c0,0,1.1,8.4,7.7,12.5c0,0,6.3,4.5,8.4,7.4c0,0,4.8,9.9,16.2,7.4c0,0,1.2,5.4,9.4,8.1c0,0-12.8,5.5-18.1-0.3s-3.7-6.2-5.6-5.9 c-2.1,0.2-3.7,0.1-4.1-0.9c-0.3-1-0.3-1.6,1.3-1.5c1.7,0.1,2.9,0.4,3.7,0.1c0.8-0.4,1.1-1.8-2.8-1.6c-9.5-0.2-18.4-5-24.2-12.6 c0,0,4.1,12.2,17.2,13.6c0,0,3.4,0.3,3.6,0.8c0,0,0.6,2.8-2.9,3.5s-11.6,2.6-20.5-10.8c0,0-4.5-6.8-9.3-9.2c0,0,3.5,4,5.2,6 c1.8,2.2,2.1,2.7-1.5,2.6c-3.5,0-8.4-0.3-13-9.1c0,0-3.7-7.5-5.8-10c-2.6-2.9-8.9-5.5-9.2-17.3c0,0-0.2-1.2,2.3-4.4 s2.4-5.4,1.6-7.5c-0.7-2.2-2.3-6,6.6-12.9c0.6-0.5,3.1-2.6,3.8-1.2c1,1.8-0.6,4.1-4,8.5s-2.5,7.9-2.5,7.9c0.4-2.1,2.9-5.2,2.9-5.2 c0.4,1.2,0.4,2.3,0.1,4.5c-0.2,2.1,0.9,3.8,0.9,3.8c0.9-2,1.1-4.3,0.4-7.3c-0.7-3,0.1-3.8,2.5-6.9c2.4-3.1,1.1-5.8,1.1-5.8 c-1.2-2.3-0.2-4.3-0.2-4.3c1.1-2.5,4.2-3.6,6.2-3.9c2.2-0.3,3.9-1.1,4.8-2.2c0.9-1.1,2-4.4,6.7,0.6c0,0,7.8-10,15.8-5 c0,0,2.7,1.8,7.5,1.5c0,0,1.2-0.4,1.6,1.5C947.5,761.5,948.4,761.6,946.3,763z M1036.1,808.5c0,0-2.7,6.8-9.2,2.7 c-6.5-4-8.3-4.7-12.1-5.6c0,0,6.5-4.5,12.4-1.1C1033.1,808.1,1032.1,808.6,1036.1,808.5z M1019.9,697.2c0.2,0.1,2.9,0.2,5-0.9 c2.1-1.1,1.8,0.1,1.8,1.7c-0.1,1.7-1.4,2.2-2,2.5c-0.8,0.5-3.1,0.8-4.7,0.7c-1.7-0.1-1.7-2.7-1.7-2.7 C1018.2,696.6,1019.7,697,1019.9,697.2z M1019,692.7c0.1-0.5,0.7-0.4,1.6-0.1c0.8,0.4,3.1,0,4.9-0.7c1.8-0.8,1.3,0.8,1.1,2 c-0.1,1.2-2.1,2-4.4,2.3c-2.2,0.3-3.5,0-3.6-1.1C1018.6,694,1019,692.7,1019,692.7z M1019.5,701.8c0.8,0.2,3.3,0.4,5.1-0.4 c1.7-0.8,1.7,0.6,1.7,0.6c0.3,1.9-0.4,2.2-0.4,2.2c-1.9,1.3-5.1,1.3-6.2,1.3c-1.1,0-1.3-1-1.3-1 C1018,702,1018.7,701.6,1019.5,701.8z M1018.7,707.6c-0.2-1.3,0.6-1.6,1.6-1.5c0,0,3.2,0,5.2-0.9c0.8-0.5,1.6-0.1,1.9,0.7 c1.1,3.3-1.4,2.4-2.7,5.2c-1.4,2.7-1.4,2.2-3.4,1.7C1019.4,712.1,1018.7,707.6,1018.7,707.6z M952,761.8c0,0-3,0.7-3.2-2.2 c0,0-0.6-2.3,2.8-3c15.4-3.5,30.7-7.6,45.7-12.4c0,0,2.2-0.2,2.5,1.9c0.3,2.3-0.2,4.2-10.2,6.9C977.1,756.3,964.6,759.3,952,761.8z M1015.2,743.9c-1.9-0.1-6.2,1.6-6.2,1.6c0.4-2-1.6-5.4-1.6-5.4C1013.1,737,1015.2,743.9,1015.2,743.9z M1012.3,738.3 c0,0,0.5-1.7,3.4-2.3c2.4-0.5,4.2,1.7,4.2,1.7c-3.6,2.8-3.6,5-3.6,5C1015.4,739.6,1012.3,738.3,1012.3,738.3z M1007.4,746.2 c-1.6,0.2-1-0.7-1.3-2.2c-0.3-1.6-0.9-2.2-1.2-2.5c0.7-0.3,1-0.4,1.7-0.7C1006.6,740.9,1009.4,746,1007.4,746.2z M1005.4,745.8 c0,0-2.5,0.1-4.5,1.5c0,0,0.7-3.5-3-4.3c0,0,1.6-2.1,4.8-1.5C1005.7,742.1,1005.4,745.5,1005.4,745.8z M996.5,764.4 c-6-0.7-6-9.7-6-9.7c0-1,1.3-1.1,2.9-1.6c3.9-1.2,2.7-0.1,3,1.5c0.3,1.3,1.3,3.2,2.7,2.4c0.5-0.2,0.2-1-1.2-4.2 c-0.7-1.4,1.2-3.1,3.1-4.6c1.3-1,3-1.3,4-1.1c2.6,0.4,0.8,9.8,0.4,11.2C1004.2,763.1,1002.3,765.2,996.5,764.4z M1014.2,760.1 c-3.8,5.3-7.5,3.9-7.5,3.9c-1.9-1.1-1.7-0.6-0.2-4.3c1.4-3.5,2.1-8,1.3-11.1c-0.2-1,0.4-1.9,1.4-2.3c0,0,2.7-1.1,5.8-1.1 C1018,745.4,1017.7,755.2,1014.2,760.1z M1018.6,759.3c-2.6,0.7-1.5-1.8-1.5-1.8c2.6-8,0.5-11.8,0.5-11.8s-0.5-0.9-0.5-2.1 c0-2.5,2.8-4.7,3.5-5.1c1-0.6,1.8,0.4,1.8,0.4c5.2,4.4,3.2,5.8,2.5,6.2s-1.9,2.1-0.3,1.7c1.5-0.4,1.7,0.9,1.7,0.9 C1026.9,753.5,1021.1,758.7,1018.6,759.3z M1031.7,732.4c20.1-8.2,39.5-17.7,58.9-27.4c4.6-2.2,6.4-3.7,8,1.9 c1.8,6.2-6.4,8.7-6.4,8.7c-18.2,8.5-36.6,16.5-55.5,23.2c-2.7,1-3.3-0.6-3.3-0.6c-0.5-1.4-1.5-3.1-2.1-4.1 C1031.2,734.1,1030.5,732.9,1031.7,732.4z M1027.9,732.7c2.1,0.8,3.3,2.3,4.5,6.5s-3.2,6.7-4.3,7s-0.7-1.5-0.7-3 c0-1.3-4.1-5.3-4.1-5.3c-1.1-0.7,0.2-2.2,0.2-2.2C1025.2,733.4,1025.8,731.8,1027.9,732.7z M1025.3,732.2c-1.8,1.1-3.9,5-3.9,5 c-1.4-1.6-3.7-2.3-3.7-2.3C1021.9,729.8,1025.3,732.2,1025.3,732.2z M1025.9,719.4c-3,4.9-3.3,9.8-3.3,9.8c-0.3,0.2-2,1-3.1-0.4 c-1.1-1.3-2.4-1.8-2.4-1.8c-0.1,1,0.6,2.1,0.6,2.1c3.5,3.3,1.6,1.9,0,4.1c-1.6,2.2-4,1.4-5.4,3c-1.4,1.8-1.4,1.5-2.5,1.5 s-1.5,0-3.5,1.6c-2,1.7-4.4,0.7-4.4,0.7c-2.9-1.3-4.5,1.5-4.5,1.5c-2.6,2.9-2.2,2.2-4.5,2.9c-2,0.7-0.9-1.4-0.9-1.4 c3.5-9.1,8.4-11.9,13.7-14c5.4-2.1,14.4-12.6,15.3-13.9c1.1-1.3,4-0.6,5.9-0.9C1028.9,714.1,1028.9,714.5,1025.9,719.4z M1028.5,712.4c-0.5,1.4-1.3,1-2.8,1.1c-1.6,0.1-0.4-1.3-0.4-1.3c2.1-3,3-4.1,4.4-2.5C1031,711.3,1029,711,1028.5,712.4z M1031.3,697.5c-2.3-0.8-3.3-0.8-2.7-3.9c0.5-3.1,3,0.7,2.4-1.6c-0.6-2.2-2.7-0.7-1.6-3.9c1.2-3.2,1.5-1.9,2-1.7s1.4-0.1-0.1-1.6 c-0.9-1,0.1-2.7,0.3-3c0,0,5.1-8.5,9.4-4.1c4.3,4.3,4.7,5.1,4.8,5.2c0.1,0.1,0.5,0.6-0.6,2.4c-1.1,1.9,0,1.7,1.2,0.4 c1.2-1.2,1.3-0.3,2,0.6c0.6,1,1.5,1.4-0.5,1.9c-2,0.6-6.2,1.2-6.2,1.2s-2.9,0.9-1.5-1.2s1.2-4.4,0.5-4.4s-0.1,1.2-0.5,2.1 c-0.4,0.9-1.5,1.9-2.5,2.1c-1,0.2-1.9,1.5-0.3,2.2s-0.2,1.5-1,1.7c-0.8,0.1-4.8,1.3-0.7,1.5c4.1,0.1-0.4,0.7,2.6,2.8 c3.3,2.4,0.9,9.1-0.3,10c0,0-1.4,1.4,0.3,0.8c1.8-0.7,2.7-1.2,1.5,0.6c-1.2,1.7-3.6,7.1-7.1,3.9c0,0-1.6-0.9,1.3-1.5 c2.7-0.6-2.3-0.8-3.1-1.5s-4-5.3-2-5.1c2,0.3,1.3-1.4,0.1-1.8c-1.2-0.5-1.5-3.4-0.1-3s2.9,1.3,4,1.2 C1033.9,698.9,1033.6,698.3,1031.3,697.5z M1048.4,709.1c-0.3,2.9-0.3,5.9-0.3,5.9c0.6,11-10,0.9-10,0.9c-0.6,2.4-4.6,8.6-4.6,8.6 c-0.4-2.4-2.6-6.8-3.7-8.2s-0.9-1.8,0.3-3.5c1.3-1.7,2.5-0.1,2.5-0.1c2.9,2,6.2-1.4,7.7-4.3c1.6-2.9,2.6-2.8,2.6-2.8 c4-0.6,6-0.9,10-1.5C1052.2,709,1048.4,709.1,1048.4,709.1z M1105.8,681.4c0.8,5.5-2.3,11.5-3.7,9.8c-1.3-1.7-1-5.1-1-5.1 s0.2-5.2,2-7.4C1103.9,677.4,1105.3,677.4,1105.8,681.4z M1102.4,677.7c-2.5,4.3-2.4,10.2-2.4,10.2s0,2.5,1.1,4.4 c-20.2,5.2-40.4,9.3-61,12.4c0,0,0.9-1,1.1-4.8c0.1-1.7,0.1-2.5-1.3-4.6c-1.6-2.5,0.2-4.3,0.2-4.3 C1061.2,687.7,1081.9,683.5,1102.4,677.7z M1056.4,686.8c-2.3,0.4-3.5,0.6-5.8,0.9c0,0-2.2-4.3-6.2-8.8c0,0-1.2-0.6,1.1-4 c2.4-3.4,3-6.7,3.1-8.2s-0.1-3.6,0.7-2.1c0.9,1.5,6.9,9,7.8,6.1c0.8-2.8,1-4,1.1-4.9s0.3-3.2,1.2-0.9c0.9,2.3,1.4,1.5,1.5,8.1 c0,0,0.1,6.4,0.7,8.6C1061.6,681.6,1054.1,679.3,1056.4,686.8z M1118,500.8c-3.5,2.5-3.7-0.9-6.3,5.1c-2.7,6-7.6,12.3-11.5,15.2 s-2.5-1-5.7,5.4s-5.4,1.6-5.4,1.6c0.2,3.3-1.2,8.1-2.1,10.2c-0.8,2.1-3.3,7.7-3.5,4.5c-0.2-3.3-2-4.4-2-4.4 c0.1,2.5-1.5,8.1-4.7,14.2c-3.2,6-3.1,0.5-2.8-0.1c0.2-0.6,0.9-2.6-0.7-3.8s-5.3-1.5-3.1,0.3c2.2,1.8,0.7,3-0.4,4.7 c-1.1,1.8-2.4,4.1-5.6,0.7c-3.2-3.4-6.8-0.6-3.2,0.3c3.6,0.8,0.4,8.2-2.8,5.8c-3.2-2.4-5.1-1.5-5.1-1.5c-4.3,1.9-8.9,3.3-5.6,0.4 c3.3-3,1.5-5.5,1.3-9.4s3.6-3.2,4.5-3.9s0.6-2.3,2.8-3.3c2.2-1,2.3,0.5,2.9-0.2c0.7-0.7,0.2-3.3,3.4-2.4c3.2,0.9,1.6,5.3,1.2,6.5 c-0.3,1.2-2.8,4.8-0.2,3.2c2.7-1.6,9.4-12.6,9.4-12.6c2.7,2.1,2.4,4.3,2.4,4.3c5.5-6.1,6.2-14.3,6.2-14.3c1.6,1,2.4,3.1,2.4,3.1 c2.6-2.7,5.7-9.6,5.7-9.6c1.4,0.4,3.1,2.4,3.1,2.4c1.3-1.4,3.8-6.6,3.8-6.6c0.7,1.3,1.8,1.1,1.8,1.1c2.3-2.4,6.1-11.5,6.1-11.5 c2.3,1.7,1.7,1.1,5.3-2.2c2-1.8,2.1-3.5,1.8-4.7c-0.2,0.1-0.4,0.1-0.5,0c-1.6-0.3-3.4,7.4-5.5,4.6c-2.2-2.8-2.2-1.3-3.6,3 c-1.4,4.1-3.7,8.6-3.7,8.6s-1.1-0.6-2.1-1.8c0,0-1.2,3.7-2.9,6.8c0,0-1.3-2.4-3.3-3.5c0,0-3.2,6.9-5.2,9.6c0,0-1.9-2.5-3.9-2.9 c0,0-0.3,8.2-4.2,13.4c0,0-0.8-2.4-3.3-3.4c0,0-2,5.7-6.3,10.9c0,0,0.7-5.3-2-7.1c0,0,17.7-8.7,4.3-16.3c0,0,15.8-9.5,12.1-16.6 c-3.7-7.1-7.4-4.3-7.9-4.2c-0.5,0.3,3.4-5.7,4.4-5.3s13.8,4.7,10.6-1.2c-3.3-5.8-3-5.4-3.5-7.3c0,0,4.2-1.2,10.6,7 c0,0,1.3-2.7,1.1-6.6c0,0,4.6,0.6,6,2.4c0,0,0.7-2.7,0.5-4.1c0,0,3.9,2,5.3,5.2c0,0,1.9-3.1,2.2-6.2c0,0,4,1.3,5,2.9 c0,0,1.4-3.3,0.8-7.1c0,0,6.6,0.8,7.5-6c0,0,5.9-0.2,3.1,4.5c1.2,0.9,1,2,1.9,0.3c1.1-1.9,1.2,0.7,0.5,5.1 C1128.5,488.1,1121.5,498.3,1118,500.8z M1060.6,529.7c-2.3,1.2-2-1.9-3.2-5.4c-1.3-3.5,7.7-13.6,7.3-15.6s-3.3,8.4-7.6,7.1 c-4.3-1.3-0.6-6.5,1.9-9.2c2.5-2.9,14-18,14-18s3.1,2.5-0.7,10.3c-4.8,9.7-0.1-0.9,5.7,4.6s-6.6,14.2-10,15.5s-4.2,2.7-4.2,2.7 c19.7,4.7-2,15.9-3.8,16.6c-1.8,0.7-1.9,4.1-3.2,1.6s0.7-5.6,0.7-5.6s1.7-2.7,6.6-3.5C1068.9,529.5,1062.8,528.5,1060.6,529.7z M1072.7,476.1c0,0-2,2-3.8,1c-1.9-1-1.3-7.6,3.2-12.6s12.8-13.1,16.9-15.3c0,0-0.6,8.8-13.6,19.2 C1075.3,468.4,1076.2,472.5,1072.7,476.1z M1114,457.6c0,0,2.1-2.2,3.7-4.6c1.5-2.5,6.1-8.6,8.2-10c2.2-1.5-0.6,1.1,5.5-5.7 c6.1-6.8,12.2-8.2,13.3-8.3c1.1-0.1-5.9,6.5-12.1,11.6c-0.5,0.4-1,0.4-1.4,0.5c-2.4,1.1-2.6,1.6-2.5,2.1c0,0.2,0.1,0.3,0.1,0.3 c0.1,0.3,0.2,0.6-0.5,1c-3.4,3.2-4.4,5.7-4.4,5.7c2.5-2.6,4.5-4.9,9.5-8.6c5-3.5,2.3-1.7,8.6-7.9c6.3-6.3,5.8-5.4,7.7-6.7 c1.9-1.3,4.5-1.7,5.7-1.3c1.2,0.3-4.3,7.1-14.5,15.9c-10.3,8.8-12.5,16.8-12.5,16.8c3.3-4.3,5.9-7,10.9-12.9s8.6-8.5,9.8-9.1 c1.2-0.6,1.9-1.6,6.2-6.3s4.8-4.1,6.7-4.4s4.8,0.8,7.6,2.2c-4,11.3-15.9,21.3-24,30c9.4-5.3,16.9-14.5,22.6-23.4 c4.2-7.1,4.6-7,7.9-3.4c3.4,3.5-1.2,5.5-5.9,11.3c-4.8,5.7-1.9,5.5-13.7,16.4c-11.9,10.9-10.2,4.1-15,12.3c-4.7,8.1-6.5,4-6.5,4 c-0.2,0.4-0.3,0.9-0.4,1.7c-0.1,1.4,0.1,2.8,1.3,2.5c0.6-0.2,1.5-0.9,2.7-2.3c4.7-5.8,7.4-8.3,11.8-11.4s6.9-5.8,10.3-8.4 c3.3-2.5,10.6-13.1,14.2-17.7c3.7-4.4,2.9,0.7,2,2.8c-0.4,1-0.2,1.6,0.2,2c0.1,0.1,0.1,0.1,0.2,0.2l0.1,0.1 c0.1,0.1,0.2,0.2,0.3,0.2c0.1,0.1,0.2,0.1,0.2,0.2c0.1,0,0.1,0.1,0.2,0.1c0.1,0.1,0.2,0.2,0.3,0.3c0.8,1,1,0.2-0.6,4.4 c-1.6,4.2-2.5,3.4-4.2,5.3s-1.6,2.3-1.1,2.8c0.4,0.5,2.2-1.5,4.6-4.8c2.4-3.4,1.2,0.6-0.3,2.8c-1.6,2.2-1.8,5.9-1.8,5.9 c-0.6,8.3-6,11.4-10.2,15.3c-8.1,5.6-17.8,9.1-27,12.3c-3.2,1.1-0.6-1.1,1.9-4.1c2.5-2.9-0.2-2.1-1.9,0.1c-1.6,2.1-3.7,4.1-6.3,7.2 c-2.4,3.1-5.4,2.5-3.5-1.9c1.9-4.3,2.5-6.7,2.5-12c0.1-5.3-3.5-6-7-6.2c-3.4-0.3-5.7-3.6-10.4-7C1109,461.5,1114,457.6,1114,457.6z M1114.4,467.9c4.2,3,6.3,5.3,7.5,5.5c0,0-0.2,6.2-6.7,4.2c0,0,0.3,2.9-0.3,5.9c0,0-2.4-1.7-5.2-1.9c0,0-0.5,2.5-1.3,4.1 c0,0-2.9-3.7-6.1-4.1c0,0-0.6,2.5-1.2,3.5c0,0-3.5-2-6.1-1.3c0,0,0.5,3.2,0,4.8c0,0-7.3-7.1-13.8-4.1c0,0,3.2,6.6,5.3,9.6 c0,0-13.2,2-11-10s-0.2-8.5,8.4-10.8c8.7-2.3,16.5-4.9,16.5-4.9S1110.3,464.7,1114.4,467.9z M1126.3,410.4 c-3.1,11-11.2,20.1-19.4,27.6c-12.9,11.4-17.2,21.1-17.2,21.1c6.6-7.3,15.3-12.3,24-16.8c-6.7,15.1-20,28.2-36.7,31.1 c0.4-1.9,0-4,0-4c8.4-6.2,12.8-15.9,15.3-25.7c-2.1,3.6-7.8,6.1-7.8,6.1c2.8-2.8,13.1-18,14.5-19.8s3-2.3,3-2.3 C1111.2,423.8,1119,417,1126.3,410.4z M1109.2,410.4c-7.4,18.9-23.5,36.2-36.8,51c-8.3,9.3-6.2,15-6.3,17.5 c-0.1,2.5,1.1,1.7-4.4,10.3c-5.6,8.4-8.6,8.2-9.2,10.5s1.7,1.3,5.7-3.3s8.7-15.3,14-18s0.1,10.8-9.6,20.8 c-9.7,9.8-3.7,3.2-9.5,12.4c-5.8,9.2-14.5,14.7-14.5,14.7c1.7-3.6,4.4-7.6,7-11.3s0.7-3.5,0-2.3c-0.7,1-6,8.1-7.5,6.7 c-1.6-1.4,0-3.6,0-3.6c5.1-7.9,11.1-15.5,14.9-24c0.2-4.7,0.7-6.3,2.5-8.8c1.9-2.7,11.7-20.5,13.6-24.3c1.8-3.9,1.4-2.8,4.2-5.1 c7.1-7.2,12.5-15.8,18.1-24.1C1101.4,414.8,1109.2,410.4,1109.2,410.4z M1126.3,358.4c-2.7,11.9-10.2,22.4-18,31.6 c-9.6,11.6-5.7,7.1-14.9,22.9c-7.9,12.4-16.6,23.4-26.1,34.5c-2.2,2.9-4.1,4.7-5.5,9.3c-1.3,4.6-7.1,12.9-8.3,14.8 c-1.2,1.9-2.7,5.2-5.1,3.9s0.3-5,0.3-5s9.4-16.5,12.3-20.9c10.3-15.1,21.2-29.7,31.1-45.1c4.5-7.5,4.4-10,5.8-12.7 c1.3-2.6,3.7-3.5,5.6-5.4s10.6-13.6,14.6-19C1121.8,362.3,1126.3,358.4,1126.3,358.4z M1037.3,501.6c-4.8,7.2-7,7.2-8.4,5.8 c-1.4-1.6,1.9-5.6,1.9-5.6c0.5-0.6,6.8-5.5,6.5-14.7c-0.3-9,9-9.9,9-9.9C1051.5,483.5,1041.5,495.3,1037.3,501.6z M1131.7,333.7 c-0.6,17.3-15.9,34.9-26.3,47.8c-4.7,5.8-6.6,6.1-8.7,9.1c-2.1,2.8-2.4,7.1-4.7,11.2c-7,12.5-16.3,24.9-25.2,36.7 c-9,13.1-16.3,32.8-29.6,41.7c-4.9,0.4-7.5,3.2-7.5,3.2c1.1-6.1,7.5-14.2,13.9-23.9c6.4-9.7,9.5-17,13.3-21.7 c11.8-15,23-30.7,33-46.9C1102.4,370.9,1117.4,352.4,1131.7,333.7z M1129.6,321.4c1.7,16.5-16,33.3-24.9,45.2 c-5.5,7.5-12.3,16.6-15.9,22.6c-10.5,17.4-23.6,34.4-36.3,50.7c-7.6,9.6-3.5,5.2-6.6,12c-4.7,8.4-10.6,16.2-16.5,23.8 c-0.8-4.7-7.1-2.6-7.1-2.6c7.5-10.6,14.7-21.5,21.6-32.5c7.8-11.6,17.1-22.1,25.4-33.1c6.9-9.2,13.6-19.1,19.3-29.3 c1.4-3.2,9.3-14.7,12.9-20.3s5.1-4.1,8.7-9C1116.8,339.9,1123.2,330.6,1129.6,321.4z M1008.9,499.6c1.2-1,11.5-13.2,12.5-15.3 c1.1-2.1-1.8,0.3-3.2-0.5s5.5-11.5,8.3-7.2c4.4,6.6-8.1,24.8-13.7,33.1C1015.3,504.6,1008.9,499.6,1008.9,499.6z M1008.9,477.2 c0.3-6.3,7.3-6,8.8-3c3.3,6.5-9.2,24.9-9.4,22.1s-4.5-4.2-4.5-4.2c1-1.1,6-5.2,9.1-11.6C1015.3,475.6,1008.6,483.5,1008.9,477.2z M1006.6,474.3c-1-1.9-4.3-1.5-4.3-1.5c6.2-9.8,15-18.3,22.9-26.7c5.8-6.1,11.1-12,13.1-16.2s5-6.9,7-8s1.6-0.1,6.9-6.8 c5.4-6.6,0.8-4.9,8.2-12.5c8.6-9.3,15.6-20.1,21.9-31c5.7-9.9,5.2-1.3,10.9-13c5.7-11.7,14.3-22.2,14.3-22.2 c0.5,11.1-7.1,21.1-13.1,29.5c-5.5,7.6-9.9,16.5-15,24.4c-6.1,9.3-13.7,18-20.3,27.2c-8.9,12.5-12.3,13.8-14.9,19.9 c-5.1,12.3-16.2,24.2-25.3,35.2C1012.5,465.5,1006.6,474.3,1006.6,474.3z M1113,337.2c5.8-7.9,14.7-19.7,15.8-22.3 c0,0,2.1,3.1-2.5,9.2c-4.6,6.2-13.5,18.7-14.6,20.5c-1,1.7-2.8,4.3-6.9,7.6C1104.7,352.2,1107.1,345.2,1113,337.2z M1112.3,321.4 c0.1,4.1-1.5,7.6-4.7,11.7c-6.3,8.6-11.8,17.9-16.9,27.2c-3.7,7.1-6.7,4.4-7.5,3.5c-0.6-0.8,0.5-2.8,0.5-2.8 C1092.6,347.3,1101.9,334,1112.3,321.4z M1017.3,429.7c0.6-4.9,0.3-4,6.6-9.1c10.3-8.4,20.3-18,28.8-28.3 c7.9-9.5,15.6-19.4,22.7-29.6c2.5-3.8,8.6-12.5,11.1-16.3c0,0,1.2,5.1-1.5,9.6c-2.7,4.6-13,19-14.8,21.3 c-1.7,2.3-11.2,14.8-14.2,18.2s-10.2,10.8-12.8,14.7c-2.6,4-2.2,5.1-13.9,16.2s-12.3,11.9-12,12.5s5.7-3.7,8.1-6.5 c2.5-2.7,12.1-11.4,14.9-15.6s7.6-10.8,9.6-13.1c8.3-9.4,16.7-19.4,23.9-29.7c4.8-7,6.2-9.3,7.3-8.8c1,0.7,2.8,0.2,0.6,4.1 s-9,15.5-11.7,19s-10.9,13.4-13.2,15.8c-2.3,2.5-3.2,6.2-4.4,7.9c-1.3,1.8-5.1,6.9-9.6,9.5c-4.6,2.6-5.4,8.3-8.4,11.9 c-7.8,9.1-17.1,17.6-25.5,26.4c0,0,1.3-2.3,0.3-7.1c0,0-1.3-4,1-7.1C1012.4,442.3,1016.6,434.6,1017.3,429.7z M986.1,444.9 c9.3-7.9,18.7-15.6,27.9-23.7c0.4,2.4-0.6,6-3.7,9.9c-3.1,3.9-7.1,9.2-8.4,13.4c-1.5,4.3-7.3,7.6-7.8,7.8c-0.4,0.2-3.3,1.6-4.8,2.8 c-1.5,1.1-5.1,2.4-7.6-0.8C979.3,451,986.1,444.9,986.1,444.9z M932.2,492.7c7.8-14,19.9-22.4,32.5-31.5c10.9-8.1,13-13.2,13-13.2 c1,1.4,1.2,5,2.4,7.7c0,0,2.7,5,9.8,0.7c7-4.5,12.1-6.4,14.3-12.1c2-5.7,7.5-12,8.9-13.4c1.4-1.3,3.3-2.4,1.2,3 c-2.1,5.6-5.5,15-15.1,22.1c-9.6,7.2-13.4,11.9-15.1,15.2c-1.8,3.3-10.7,11.1-4.9,9.5s15.8-1.2,11.1-2.8c-4.7-1.5-10,2.2-5.7-4.1 c4.3-6.3,5.1-8.3,11.2-13c6.2-4.6,13.3-13.9,12.3-4.7c-1.1,9.4-8.7,17.5-14.9,24.7c-2.8,3.3-1.8,2.8-1.7,4c0.1,1.3-0.4,3.8-1.6,5.3 s-0.8,2.5-0.5,5.3c0.3,2.6-0.3,3.8,0.5,4.1c0.9,0.4,1.7,0.5,2,2.3c0.2,2,0.9,2.1,2.6,1.7c1.6-0.3,2.7-0.3,2.8,1.2s1.7,3.3,1.8-1.2 c0.2-4.5,1.3-5.6-1.7-3.1s-3.7,1.7-3.6-0.5c0.1-2.2-0.3-1.6-1.5-1.7c-1.3,0-1.7-2.6,0.5-4.7c2.3-2,2.3-0.2,5-4 c2.8-3.9,2.8-4.9,3.2-6.6s-4,5.2-6.2,6.9c-2.2,1.7-1.6-0.8-1.2-4.7c0.3-3.7,5.6-9.2,8.1-9.5s7.8,1.2,5.5,6.4 c-2.3,5.4-9,12.1-6.1,12.3c2.9,0.2,3.3-1.7,4.9,0.4c1.6,2.1,0.1,6.8-0.6,9.3c-0.7,2.6-2.4,5.7-3,6.5c0,0-3-7.9-2.9-1.3 c0.1,6.6-0.6,9,0,9.3s4,3.2,5.1,3.2s-5.8,5.6-2.9,5.6c2.9,0,7.4-2.9,9-7.5c0,0-5.8-1.4-8.1-4.6c0,0,6.9-3.3,4.9-13.2 c0,0,6.7,1.9,3.8,7.1c-2.9,5.2-4.7,4.6-2.1,5.6c2.6,1,3.7,2,3.7,2s1.7,1.1,0.7,3.4c-1,2.3-1.1,5.6-0.2,5.5c0.9-0.1,3.7-2.7,1.3-4.5 c-2.4-2,2.8-2.2,0.5-3.9c-2.2-1.7-3.3-2.4-3.3-2.9c0.2-4.1,12.1-13.7,17.1-21.3c-1.6-0.2-2.9,0.7-3.9,2.5c0,0,2.9-10.4,6.9-11.1 c4.1-0.7,4.4,4.2,2.1,8.6s-3.7,10.4-9.2,12.8c0,0,7.8,4.7-1.4,15.9c0,0-2,1.8-1.3,2.7c0.7,1,6.1-4.8,6.9-7.6c0.7-2.8,2-5.1,4-7.1 c6.3-6.5,11.7-15,15.2-23.8c3-8.9,3.8-9.4,9.7-18.2c5.9-8.8,4.8-7.3,5.6-9.3c0.7-2,1-5,3.7-8.2c2.7-3.1,13.2-15.2,16.4-19.9 c3.3-4.7,10-13.7,12.9-20.5c2.9-6.9,10.8-17,12.7-16.2c2,0.8-0.2,5.9-4.8,13c-5.9,9.3-11.8,18.7-17.8,28 c-1.9,2.9-11.4,16.8-15,18.4c-3.6,1.8-3.2,3.6-5.3,8c-2.2,4.3-7.1,13.3-8.7,16c-1.6,2.5-5.7,7.9-5.9,11.1s0.7,3.3-2.5,8.8 s-12.7,18.4-16.1,20.6c0,0,6.1,2.1,2.5,9.3c-3.5,7.3-3.4,6.2-3.7,6.6c0,0,9.3-3.8,2.7,8.8c0,0-1.2,3.5,1.7-0.5 c3.1-4.2,1.8-9.1,1.5-9.7c0,0,4.9-5.7,10.5-7s5.4-1.9,0.4-3.1c0,0,3.6-7.7,6.6-4.9s2.1,5-1.1,8.4s-7.9,5.5-11.4,9.3 c0,0,6.6,0.8,10.3-4.4c3.6-5.1,3.7-3,4.2-2.4c0.5,0.7,0.8,2-0.7,6s-1.8,4.2-1.6,5c0.1,0.8-0.1,3.3-3.3,4.9c-3.2,1.5-4.7,4-3.6,6.2 s1.1,8.2-1.7,8.3c-2.8,0.1-2-3.6-3.1-4.8c-1-1.1-2.6-2.9-7.4,1.9c-4.8,4.8-5.2,0.1-5-2.4c0,0-3.1,4.8-5.8,1.3 c-2.6-3.6-0.2-5.6,1.3-7.8s7.6-7.6,4-6.1c-3.7,1.4-9.2,2.6-10.5-1.6c-1.3-4.3,2.7-4.4,3.4-4.2c0.6,0.2,3.3,3.3,3.4-1.2 c0.1-4.3,4.2-5.5,2.8-6.3c-1.4-0.6-3.4,2.4-3.9,3.6c0,0-2.8-5.8-7.5-3.2c-4.7,2.8,1.5,0.9,2.7,1.1c1.3,0.1,0.5,3.9-3.7,10.3 c-4.1,6.5-2.3,4.5,0.8,4c3.1-0.4,10.6-1.6,6.2,4.7s-6.1,9.4-8.4,8.7s0.3-3.3,1.3-4.5c1-1.1,1.6-2.9-0.5-1.4s-3,1.9-4.7-2.7 c-1.7-4.6-1-3.2-0.3-6.6c0.7-3.2,2.4-6.8,0.4-5.3c-2,1.4-1.8,1.6-1.7-2.1c0.2-3.7-2.3-4.2-2.3-4.2s1,3.5,0.1,5.9s-1,3.3,0.5,3.6 c1.5,0.5,2.9,2.1,0.9,4.5s-1.7,2-0.5,3.2c1.3,1.2,3.1,2.2,1.2,5.5c-1.9,3.2-0.3,2.2,0.6,2.1c1-0.1,3.2,0.9,3.2,3.7s-0.1,3.7,3,0.4 c3.2-3.1,9.4-3.7,9.3,0.1s-0.8,4.9,2.5,1.1c3.3-3.8,4.8,2.2,7-1.2c2.3-3.4,3.6-6.6,6.2-2c2.6,4.8,1.8,6.4-1.3,10.7 c-3.2,4.3,1.6,0.5,3.9-1.9c2.4-2.5,9.1-5.2,12.9-3.2c3.8,1.8,5,1,7.7-1.6c2.8-2.5,4.2-3.3,8.5,0.2c4.2,3.5,7.6,3.4,9.8,2.7 c0,0-4.7,4.3-10.1,6.2s-7.9,4.1-9.1,5.7c0,0,3.2,2.4,3.8,6c0,0,3.5-1.7,5.3-1c0,0-0.9,4.2,1.2,6c2.2,1.6,3.6,2,2.1,5.4 c-1.6,3.4,2.5,1,0.2,5.9c-2.3,4.7-2.9,7-3,10.6c-0.1,3.3,0.5,3.8-1.5,4.7c-2.1,0.9,0.3,3.9-0.6,8.6c-0.9,4.7-6.7,5.6-6.5,17.5 c0,0,1.6-6.2,5-12.2s3.6-6.5,3.5-9.5s-0.2-2.3,1.6-5.1c1.9-2.8-0.8-4.3,1-8.1c1.9-3.8,0.2-2.7,2.4-6.6c2.2-3.9-1.9-3.3,0.3-7.2 c2.2-4.1-5.3-5.9-3.1-8.8c2.2-2.7,5.9-6.7-6.7-3.2c0,0,3-8.6,13.6-9.9c0,0-2.8,3.9-3,7.1c0,0,1.2,0.7,2,0.8c0,0-0.4,2.4-2.5,5.6 c0,0,5.6,3.4,6.5,6.1c0,0-3.4,2.6-4.2,5.3c0,0,1.4,2.2,2,5.7c0,0-3.8,0.2-4.3,5s-1.6,1.9-1.6,4.6c0,2.6,0.1,3.8-1.2,4.5 c-1.3,0.9-0.2,2.7,0,4.1s0.6,4.8,0.5,5.8c0,0-2,0.5-2.8,1.2c0,0,0.6,6.5-1.6,7.9c-2.3,1.4,1.2,2-1.2,3.3c-2.5,1.3-2.2,1.5-5,10.7 c0,0,2.6-2.9,5.1-6.4c2.6-3.5-0.2-1.9,4.1-9.8c4.3-7.9,3.6-8.4,3.2-11.8c-0.3-3.4-0.4-6.2,1.1-9.9s2.1-7.7,7.6-8.8 c0,0-1.7-5.5-3.7-6.4c0,0,2.7-3.7,5.5-4.9c0,0-2.5-4.1-7.5-7.3c0,0,4.1-7,5.1-9.9c0,0-2,1.1-3.4,0.8c0,0,0.7-3,4.4-7.9 c0,0,2,2.6,2,5.7c0,0,6.4-7.9,10.1-8.4c0,0,1.9,7-7.1,23.6c0,0,5.6-0.9,7.9-2.1c0,0-1.3,7.3-8.1,13.4c-6.7,6,1.4,8.4-5.4,9.5 s-4.7,4.3-4.5,9.9s0.4,11.3,0.3,12.8c0,0-5.5-1.3-5.4,7.1c0.1,8.4-2.8,11-3.4,12c0,0-1.5-1.9-4-2.6c0,0-3.4,11.3-8.9,18.5 c0,0-1.9-1.7-1.9-5.5c0,0,1.3,0,1.9,1.4c0,0,4.7-9.7-0.9-11.5c-5.7-1.8-2.9-10.8-0.9-11.2s2.3-1.3,0.6-4.4 c-1.7-3.1-1.5-3.3,1.8-4.9c3.2-1.6,2.8-2.6,1.3-3.6c-1.4-1-2.5-2.7-2.5-2.7s9.1-8.5,6.2-10.7s0-2.1,2.6-5.8s3-4.4,3.4-5.7 c0,0-2.6,1.2-4.5,1c0,0,2.3-2.4,0-4.8s-3.2-4.8-6.8-2.7c-3.6,2.2-2.5,0.1-1-2.7c1.4-2.7,0.7-4-1.8-3.9c0,0,0.3-2.5,2.3-6 c0,0-4.8,1.6-6.5,0.6c0,0,2-2.6,2.2-5.3c0,0-2.7,2.1-6.1,2.2c0,0,2-3.2,2-5.7c0,0-5.9,3.4-8.7,7.3c0,0-0.6,0-1-1 c-0.5-0.9-0.8-1.9-7.4,2.7c0,0,0.7-4.8,2.3-7c1.6-2.3,1.4-5.8-9,6.2c0,0-1.4-1.1-2.5-5.9c0,0-2.2,5.3-4,7.2c0,0-1.5,1.2-1.3-2 s-1.1-0.8-2.1,0.3s-1.8,3.4-1.3-3.1s-1.5-7.6-1.5-7.6s-3.3,7.6-5.1,8.6c0,0-3.4-4.9-4.7-8c-1.2-3.3-1.2-4.6-2.5,1.6 c-1.3,6.3-2.8,6.8-2.8,6.8s-2-2.6-2.4-4c0,0-0.3,1.7-1.1,2.4c0,0-1.8-3.1-1.8-7.9c0,0-11.6,10.6-13,16.7c0,0-11.1-0.2-15.8,1.4 c0,0,1.1-5.3,4-8.3c0,0-2.9-0.3-3-4.8c0,0,2.4,0.4,3.8-0.2c1.5-0.6-2-6.6,1.7-7s6,2.2,4.3-4.9c-1.7-7.1-0.9-7.2-0.9-7.2 s6.4,5.1,7.4,3.7c1-1.6-0.8-4.4,4.8-3.4s4-3.8,6.2-4.2s3.4,1.8,1.9-13.4c-1.4-15.2,6.7,6.9,1.2-15.7c0,0-1.4-6.8-4.7-9.6 c0,0-0.8,5.2-4.5,1.1c-3.7-4.1-11.2-5.2-8.1-8.9c3.1-3.7,4.6-8.6,3.7-11.5c0,0-3.7,6.1-10.2,2.4c-5.1-3-6.2,3.2-11.6,1.7 c0,0,0.1-2,4.6-7.3c4.5-5.4-2.6,1.8-5.4,2.9c-2.8,1.1-3.6,0.4,2.4-6.6c7.2-7.9,15.6-17.3,16-28.6c-0.3,3.8-9.9,16-11.4,17.5 c-1.6,1.6-2,0.6-3.8,6s-10.1,9-10.1,9c1,1.3,1.4,3.6,1.4,3.6C950,489.8,945,494,945,494c-0.1-1.5-0.2-7.4,7-9.1s8.4-8.2,8.4-8.2 c7.9-2.8,14.1-15.5,14.1-15.5c-11.7,15.1-19,13.7-19,13.7c1.3,1.4,1,5.7-2.1,7.2c-3.1,1.4-2.4-1.7-7.9,3.5s-5.3,15.4-5.3,15.4 c6-6.7,9.8-6.6,15.4-7.3c5.5-0.7,3.6,9.3,3.6,9.3c5.9-6.7,13.2-6.9,16.9-5.2c3.7,1.7,5.5,0.7,5.5,0.7c-0.9,3.4-3.5,4.1-5.5,5.4 c-2,1.1-4.3,1.3-1,2.5s7.9,3.6,12.7,8.6s5.2,2.8,5.3,2.5c0.1-0.5,0.7-4.7,2.8,3.5c2.3,8.2-1.5,4-2.5,3.6c-1.1-0.6-2.8-1.7-1.2,1.1 s2.8,11.6,3.3,15.5c0.3,3.9-0.6,3.9-1.4,3.1c-0.8-0.8-1-1.9-1.3,3.3s-3.8,3.2-3.8,3.2c3.5-11.5-0.1-17.8-1.2-19.5 c-5.8-8.3-15.7-11.7-25.4-12.7c-18.4-1.5-26.6,5.2-26.6,5.2C920.6,519.3,926.7,502.4,932.2,492.7z M954.4,557.3 c-4.9,1.3-9.5,4.2-15.9,11.9c-6.4,7.8-13.6,5.2-15.1-3.4c-1.2-7.4-0.6-11.6-0.6-11.6c2-13.4,8.8-30.5,24.1-32.7 c17.6-2.4,22.8,0.2,26.1,1.7c3.4,1.4,11.4,4.3,8.3,8.5c-3.1,4.2-5,3.5-5,3.5s3.7-6.4,0.3-7.1c-3.3-0.8-3.7,2.2-4.1,4.7 c-0.4,2.5-0.7,5.7-2.4,7.7c0,0-1.7-2.9-4.2-0.1c-2.5,2.6-0.3,2.7,0.7,2.1c1-0.5,2.3-1.3,2,0.9c-0.2,2.2-1.6,6-5.6,9.4 C959.1,556.1,959.4,556,954.4,557.3z M961,557.4c4.7-4.5,6.7-4.8,8.9-11s2.3-7.9,7.7-9.9s6.9-5.6,6.9-5.6 c5.7,3.5,4.2,21.4,2.2,20.1s-4.4-0.8-4.4-0.8c0,2.6,0,5.3,0,5.3c-4.2-1.2-6.1-7-6.1-7c-3.4,6.5-0.3,15.2-0.3,15.2 c-3.3,0.2-6.6-0.7-6.6-0.7c0.8,2.4,0.7,8.7,0.7,8.7c-0.7,0,0.2,0.7-2.9-0.8s-1.5,8-1.5,8c-4.6-0.3-10.1,3.7-10.1,3.7 c0.3-6.6-2.1-11-2.1-11C953.4,570.8,956.3,561.8,961,557.4z M902.1,673.4c-3.8-3.2-1.7-10.1-0.9-11.9c0.9-1.6,3.2-7.4,3.5-10.2 c0.4-2.8-0.1-2.6,1.8-3.3c2.1-0.8,14.3-2.5,17.7-1s-1,2.5-6.3,6.1c-5.4,3.4-9.7,1.2-9.7,1.2c1.6,6,12.1-0.3,14.7-2 c2.7-1.8,3.1-2.5,2.3,1.7c-0.8,4.1-4.1,5.4-11.4,10.5c-7.3,4.9,0.9,9.6,0.9,9.6C911.9,676.4,905.9,676.6,902.1,673.4z M924.6,658.2 c0,0-2,4-10.2,13.3c0,0-3.9-2.5,0.5-5.8S923.9,659.5,924.6,658.2z M935.7,649.1c-1,7.1-11,15.9-14.5,19.8c-3.6,3.9-5.1,2.9-5.1,2.9 s0.9-1,6.3-7.9c5.3-6.7,5.3-11.7,5.2-13s-1.6-5.3,1.8-7.3C932.5,641.7,936.7,642,935.7,649.1z M978.2,613.2L978.2,613.2 L978.2,613.2L978.2,613.2c0,0-0.2,0-0.3,0l0,0c-0.1,0-0.2,0-0.4,0.2h-0.1c-0.2,0-0.3,0.2-0.6,0.2h-0.1c-0.2,0-0.4,0.2-0.8,0.4h-0.1 c-0.3,0.2-0.6,0.2-0.9,0.4l0,0c-0.3,0.2-0.7,0.4-1,0.6l0,0c-0.3,0.2-0.8,0.4-1.1,0.6h-0.1c-3.4,1.9-7.8,4.7-11.7,9.4 c0,0-0.7-0.5-0.8-3.8c0,0-0.2,2.8-2.5,5.7s-7.8,8.8-9.8,11.8c-2.1,3-6,8.9-10.1,8.7c0,0,1-4.5-2.1-5.9c-3.1-1.5-6.7-0.5-9.2,3.3 c0,0-11.3,0.1-14.9,0.9c0,0,2.6-5.6,4.9-5.4c2.3,0.2,11.7,2.1,12.6-6.9c0.8-8.7-6-6.5-3.4-11.7c2.7-5.3,2-4.9,2-5.4 c0,0-2.2,1.6-3.4,6.3c-1.2,4.6-2.2,8.2-6.7,12.8c-0.5,0.5-1,1-1.5,1.5c-0.1,0.2-0.2,0.2-0.4,0.3c-0.9,1-1.6,1.8-2.2,2.6 c-0.1,0.2-0.1,0.2-0.2,0.3c-0.4,0.3-0.6,0.8-0.9,1.1l0,0c-0.2,0.3-0.5,0.7-0.7,1.1c0,0.2-0.1,0.2-0.1,0.3c-0.7,1.1-1.2,2.3-1.7,3.4 c0,0-2.1,0.3-3.9,0.9c0,0-0.1-4.5,0.7-9.4l0,0c0-0.2,0-0.3,0.1-0.5c0.1-0.3,0.1-0.8,0.2-1.2c0-0.2,0.1-0.5,0.1-0.7 c0.1-0.3,0.2-0.8,0.2-1.2c0-0.2,0.1-0.5,0.1-0.7c0.1-0.5,0.2-1,0.5-1.3c0-0.2,0.1-0.3,0.1-0.5c0.2-0.5,0.5-1.1,0.7-1.6 c0,0,0,0,0-0.2l0,0c0.5-1,1-1.8,1.5-2.6c10.4-14.2,20.8-28.7,29.3-44.1c0.1-0.3,0.4-0.7,0.5-1c0.1-0.2,0.2-0.3,0.2-0.5 c0.1-0.3,0.4-0.7,0.5-0.8c0.1-0.2,0.1-0.3,0.2-0.5c0.1-0.3,0.2-0.7,0.4-0.8c0-0.2,0.1-0.2,0.1-0.3c0.1-0.3,0.4-0.7,0.5-1l0,0l0,0 c0,0,2.9,2.8,3,8c0,0,3.7-9.3,6.7-12.9l0,0l0,0c0,0,2.7,3.7,2.2,11.5c0,0,2.8-2.2,7.4-3.6c0.3-0.2,0.7-0.2,1-0.2 c0.6-0.2,1.1-0.2,1.7-0.4c0.5,0,1-0.2,1.5-0.2c0.7,0,1.4-0.2,2-0.3l0,0l0,0c0,0-3.1,5.4-3.2,8.4c0,0,5.9-1.3,11.2-1.6 c2.1-0.1,4.2-0.1,5.8,0.1c0,0-15.4,13.7-11,14.6c1.9,0.4,3.7,0.3,5.3,0.2c0.1,0,0.2,0,0.3,0c0.3,0,0.6,0,0.9-0.1 c1.4-0.3,2.4-0.7,2.4-0.7l0,0l0,0c0,0-4.3,6.8-11.3,9.3c-0.5,0.2-0.9,0.4-1.5,0.4C966.2,610.8,976.2,610,978.2,613.2L978.2,613.2 L978.2,613.2z M916.5,639.3L916.5,639.3L916.5,639.3c0-0.2,0-0.2,0.1-0.2l0,0c0,0,0-0.2,0.1-0.2l0,0c0-0.1,0.1-0.1,0.1-0.2l0,0 c0.1-0.2,0.1-0.2,0.2-0.3l0,0c0.1-0.2,0.2-0.2,0.4-0.3c0,0,0,0,0.1,0c0.1-0.2,0.2-0.2,0.4-0.3l0,0c0.1-0.2,0.4-0.2,0.5-0.3 c0,0,0,0,0.1,0l0,0c0.5-0.2,1-0.5,1.7-0.5c3.3-0.8,3.4-2.9,3-3.8c-0.4-1-2.4-1,0.8-5.9c0,0,1.1,0.5,1.9,1.7c0.6,1,3.2,8.1-3.3,10.1 l0,0c0,0,0,0-0.1,0c-0.4,0.2-0.7,0.2-1.1,0.3c-0.1,0-0.1,0-0.2,0c-0.4,0-0.7,0.2-1.1,0.2c-0.1,0-0.1,0-0.2,0c-0.5,0-1,0-1.5,0 c-0.1,0-0.2,0-0.4,0C917.7,639.3,917.1,639.3,916.5,639.3L916.5,639.3L916.5,639.3L916.5,639.3z M1016.2,599.5 c-7.9,6.4-5.3,0.6-21.3,9c-16.1,8.4-14.8,2.3-19.1,0.7c-4.3-1.5,14.3-12.9,1.8-9.2c-12.6,3.5,1.1-9,6.9-13.1c5.7-4.1-4.3,2.7,3.1-6 c7.3-8.7,7.7-4.7,8.3-2.4c0.7,2.2-0.4,5.2,1,2.2c1.4-2.8,2.5-2.6,3.7,1.4c1.1,4,5.5-5.8,5.5-5.8c4.1,8.8,5.9,3.4,5.9,3.4 c3.7-7.9,1.9,1.9,1.4,3.5s-3.7,8.8,0.5,3.9c4.2-4.9,5-3.3,5.6-1.4s1.1,1,4.9-4c3.8-5.1-0.1,8.6,4.7,1.6c4.8-7.1,3.6-1.1,3.5,0.4 s-0.9,4.6,2.6,0.7s4.2-2.2,5.3-0.6c1.1,1.6,3.9-2.2,5.1-3.3c1.1-1.1,2.9-3.6,2.9-0.6c-0.1,3-0.1,3,1.5,1.4c1.4-1.6,2.5-0.9,2.2,1.4 c-0.3,2.2-0.3,2.2,0.6,2s7.7-3.5,2.7,1.9c-5.1,5.4,7.3-2.1,2.3,5.6c-5.1,7.8,1.3,4.3,4.3,3.8s6.1,3,3.5,4.3s-0.8,2.4,1.9,2.2 c2.7-0.2,0.9,2.3-2.6,4.8s-2.7,3.6-0.1,4.3s-1.7,5.7-4.3,6.3c-2.6,0.6-2.7,3.6-0.8,5.5c1.9,1.9,2.3,4.5-0.7,4 c-3.1-0.6-2.8,2.4-2,4.2c0.9,1.8,1.3,3.8,0,5.5s-3.1,13.1,0.6,13.9c3.6,1,3.5,6,3.5,6c-0.7-1.7-3.2-1.4-3.2-1.4 c0.7,6.5-1,13.5-1,13.5c-7.8-4.4-8.6-21.2-8.6-21.2c-2,3.5-5.6,9.9-5.6,9.9c-2.4-8.3,4-10.9,4.1-18.7c0.1-8,3.9-13.2,5.4-15.5 c1.4-2.3,2.3-4.6,4.5-10.9c2.4-6.3,0.3-0.8-7.9-0.5c-8.3,0.4-17.2-6.4-19.3-9.3c-2-3.1,6.7-4.9-3.8-2.9 C1014.3,601.7,1024.1,593.1,1016.2,599.5z M1037.5,647c1.6-6.9-1.1-8.2-4.2-10.8s-5.8-8.6-8.9-18.1c-3.2-9.4-2.2-15-2.1-15.4 c0.1-0.3,1.5-5,4.6,2.1c3.2,6.9,15.3,9.8,21.4,10.2s2.1,5,0.5,8c-1.6,2.8-5.2,6.3-5.3,14.5c-0.2,8.1-1.2,8-2.5,10.4s-2.9,5-1.2,9.8 c1.7,4.8,0.2,5.9-2,11.8s-6.7,2.7-6.7,2.7C1033.3,666.1,1036,653.9,1037.5,647z M1033.1,674.1c3.8,1.5,5.3-2.9,8-10.4 s5.2-10.3,5.2-10.3c0.7,0.8,2.6,10.2,0.4,11.7c-2.2,1.4,0.1,2.3-0.4,4.1c-0.5,1.6-1.3,1.1-2.5,1.6c-1.1,0.6,1.6,1.7,0.3,4.1 s-3.3,1.6-4.2,0.8s-3.4-1-5.5,0.8s-2.3,0.4-2.8,0.3c-0.5-0.1,0.7,1.2,0,2.1c-0.7,1.1-1,0.8-1.7,0.3c-0.6-0.6-1.3-1-0.3,0.2 c0.8,1.2,1.4,0.6,0.8,1.5s-1,0.5-2.6,0.8s-3.2,1.5,0,0.8s0.7,2.7,0.4,3.2c-0.3,0.5-2.1,0.7-2.1,0.7c-3.3,0.5-2.2,0.8-2.2,0.8 c3.6,0.6,3.7-0.6,3.3,1.6c-0.4,2.2-1.7,2.2-1.7,2.2c-2.5,1.1-4.4,0.8-5.6,0.5c-1.2-0.3-0.6-2.9-0.6-2.9c0-0.2,0.1-0.8,1.2-1 c1.6-0.2,1.3-1.5,0.4-1.5c-0.8,0-0.8-0.5-0.8-0.5c-0.4-2.4,0.6-2.1,2-2.3c1.5-0.2,0.5-1.4,0.1-1.3s-0.6-0.4-0.4-1.1 c0.2-0.5,0.2-0.9,2.5-1.4c2.3-0.4-1.7-0.4-0.4-1.9C1025,676.7,1027.7,671.9,1033.1,674.1z M1012,684c0.4-1,2.4-6.2,8.9-8.7 s1.6,2.7,0.7,3.9c-0.8,1.1-1.8,4.1-3.3,3.9c-1.4-0.1-2.5,0.8-1.3,1c2.7,0.1,1.1,1.2,1,3s-2.1-0.4-2.4,1.3c-0.3,1.7,2.3-0.5,1.9,2.5 c-0.4,2.9-2.1,1.4-2.5,1.7c-0.5,0.2-0.6,1.4,1,1.2c1.4,0,1.2,1.7,1.2,1.7c0,3-1.2,2.5-1.7,2.4s-1,0.5-0.5,0.7 c1.2,0.7,1.9,0.1,2,1.5c0.1,1.5-0.1,1.3-1.4,0.8c-1.3-0.5-1.1,0.3-0.8,0.4c0.2,0.1,2.1,0.7,2.4,2c0.4,1.3,0.8,4.3,0.8,4.3 c0.5,3.6-2.1,2.9-2.1,2.9c-4.7-1.5-5.4-9.9-5.4-9.9C1009.7,691.1,1011.5,685.1,1012,684z M986.3,684.4c2.9-6,3.4-4.9,8.2-0.7 s10.9,8.4,11.9,8.8c1,0.4,2.4,0.9,2.4,4.8s0.5,5.2-3.5,0.6c-0.6-0.8-2.5-3.2-3.9-3.7c-3.7-1.4,0.9,1.2,2.2,3.9c1,2,1.7,2,0,3 c0.3,0.5,0.6,0.9,0.6,0.9c1.2,0.5,3.1,0.3,3.1,0.3c2.4-0.9,2.2,2.2,2.2,2.2c0.3,2.6-2,4-2,4c-4.5,3.2-11.2,10.3-11.2,10.3 c-11.3,13.3-11.8-4.2-11.8-4.2c6.9-3,5.6-4.4,4.3-5c-1.6,1-3.2,1.9-4.5,2.7C984.1,703.1,983.8,693.3,986.3,684.4z M938.1,707.5 c-0.8-8.4-1-21.6,5.8-28c0,0,3.3-0.1,6.8,0.7c-3.9,8.7-4.7,18.2-4.1,27.7c0,0,0.6,3-4.1,3C938,710.9,938.1,707.5,938.1,707.5z M942.9,724.4c0,0-3.4-4.9-3.8-10.5c0,0-0.1-1.5,3.3-1.4c3.4,0.1,3.9-0.6,4.7,2.2s2.9,8.3,3.5,9C947.6,724,946,724.2,942.9,724.4z M948.9,714.9c-0.3-1.6-0.7-4.1-0.9-8.4c-0.3-7.3-0.6-13.3,2.3-22.7c2.9-9.5,5.4,6.6,5.4,6.6c-1.4,0-2.1,0-3.5-0.1 c-0.7-1.8-2.3-3.1-2.5,11.3c0,3.5,0.1,6.4,0.3,9.7c1,5.3,2.7,1.9,2.7,1.9c1.2,0,1.7,0,2.9,0.1C952.6,733.6,948.9,714.9,948.9,714.9 z M959.9,691.4c-0.9,7.6-0.2,16-0.2,16c0.3,0,0.5,0,0.8,0c-0.8-7.2,0.1-16,0.1-16c1.6-0.1,2.4-0.1,4-0.2c-1,8.1-0.1,16-0.1,16 c0.3,0,0.5,0,0.8,0c-0.9-8.2,0-16,0-16c1.6-0.1,2.4-0.1,3.9-0.2c-0.8,7.6,0,16,0,16c0.4,0,0.5,0,0.9,0c-0.7-7.7,0-16,0-16 c1.4-0.1,2.2-0.1,3.6-0.2c-0.6,8.1-0.1,16-0.1,16c0.3,0,0.4,0,0.7,0c-0.4-6.9,0.1-16,0.1-16c1.4-0.1,2.1-0.1,3.6-0.2 c-0.6,7.5,0,16,0,16c0.3,0,0.4,0,0.7,0c-0.6-6.1,0-16,0-16c1.7-0.1,2.6-0.2,4.3-0.3c-0.4,11.9-0.1,20.8-0.1,20.8 c-10.3,0.5-20.7,0.8-31,0.8c-1.9-7.5-0.3-20-0.3-20c1.5,0,2.3-0.1,3.8-0.1c-0.8,9.6-0.2,16-0.2,16c0.3,0,0.5,0,0.8,0 c-0.8-8.6,0.2-16,0.2-16C957.6,691.5,958.4,691.5,959.9,691.4z"/>
    <path d="M945.3,758.4c-4.8,0.4-7.5-1.5-7.5-1.5c-8.2-5.2-15.8,5-15.8,5c-4.7-5-5.8-1.9-6.7-0.6 c-0.9,1.1-2.6,2.1-4.8,2.2c-2.1,0.3-5.2,1.2-6.2,3.8c0,0-1,2,0.2,4.3c0,0,1.4,2.7-1.1,5.8c-2.4,3.1-3.2,3.9-2.5,6.9 s0.5,5.3-0.4,7.3c0,0-1.1-1.7-0.9-3.8s0.2-3.3-0.1-4.5c0,0-2.4,3.1-2.9,5.2c0,0-1-3.5,2.5-7.9s5-6.8,4-8.5 c-0.7-1.3-3.2,0.8-3.8,1.2c-9.1,6.9-7.5,10.7-6.6,12.9c0.7,2.2,0.9,4.3-1.6,7.5s-2.3,4.4-2.3,4.4c0.4,11.7,6.6,14.4,9.2,17.3 c2.1,2.5,5.8,10,5.8,10c4.6,8.8,9.5,9.1,13,9.1s3.3-0.3,1.5-2.6c-1.7-2-5.3-6-5.3-6c4.8,2.4,9.3,9.2,9.3,9.2 c9,13.4,17,11.5,20.5,10.8s2.9-3.5,2.9-3.5c-0.2-0.5-3.6-0.8-3.6-0.8c-13-1.6-17.2-13.6-17.2-13.6c5.8,7.6,15.1,12.9,24.2,12.7 c3.6-0.1,3.5,1.2,2.8,1.6c-0.7,0.3-2,0.1-3.7-0.1c-1.7-0.1-1.7,0.5-1.3,1.5c0.3,1,2,1.1,4.1,0.9s0.4,0.2,5.7,5.9 c5.3,5.8,18.1,0.3,18.1,0.3c-8.3-2.5-9.4-8.1-9.4-8.1c-11.3,2.5-16.2-7.4-16.2-7.4c-2.1-2.9-8.4-7.4-8.4-7.4 c-6.7-3.9-7.7-12.5-7.7-12.5c1.9,3.8,5.6,8.1,10.2,9.8s5.8,2.7,5.8,2.7c-2.2,0.5-3.5-0.4-3.5-0.4c-4.6-1.9-2,0.7-2,0.7 c5,5.7,6.4,5.2,6.4,5.2c13.2,1.7,6.6-5.8,6.6-5.8c9.3,2.8,10.7-2.3,10.7-2.3c1.9,5.9,8.8,3.3,8.8,3.3c-9,7-2.2,4.8-2.2,4.8 c9.2-3,10.9,0.3,10.9,0.3c2.4,3.3,4.9,2.6,4.9,2.6s1.6-0.1,5,0.7c3.4,0.7,8.6,4.6,13.5,3.1c4.9-1.6,5.7,0.8,5.7,0.8 c-1-0.4-3-0.6-6.8,2.5c-3.9,3.1-10.3,4.6-20.1,1.9c-9.8-2.7-10.6-2.2-10.6-2.2c2.3,2.5,4.4,6,4.9,8.4c0.4,2.4,2.1,2.5,2.1,2.5 c0.7-3.4,3.6-4.9,3.6-4.9c2,2.5,7,5.7,7,5.7c0.5-1.9,0-3,0-3c3.7,5.1,8,3,8,3c1.2-1.4,0.8-4.4,0.8-4.4c1.5-0.2,1.7,1.1,2.8,2 s4.3-0.2,4.3-0.2c-1.2-0.7-2-3.4-2-3.4c4.8-5.7,15.1-4.8,15.1-4.8c7.4,0.9,6.5,8.6,6.5,8.6c1.5,0.9,3.5,4.1,3.5,4.1 c0.6-2.7,0.1-5.5,0.1-5.5c3.4,1.9,4.1,8.1,4.1,8.1c3.9-7.8-3.8-14.4-3.8-14.4c3.7-1.3,7.7-1.5,10.2-1.5s6,1.5,8.8,4.7s8,3.9,8,3.9 c-0.2-1.6-2.9-3.7-3.5-4c-0.6-0.4-0.9-1.8-0.9-1.8c2.5,0.1,4.2-0.6,4.2-0.6c-8.8-6.7-11.1-10.4-11.1-10.4c3.3,0,5.2-3.7,5.2-3.7 c-6.9,1.6-7.2-1.2-7.2-1.2c0.8,0.2,4.1,0.9,8.2-1.3s9.9-2.2,9.9-2.2c-3-7.1-14.7-3.2-18.3-2.2c-3.6,1-5.2,0.5-5.2,0.5 c0.6-0.6,1.3-1.7,4.2-2.3c2.9-0.6,5.8-0.8,9.1-5.2c3.3-4.3,7.9-4.2,7.9-4.2c-1.1-3.2-6.3-3.2-11,2.4c-4.6,5.6-8.8,4.9-8.8,4.9 c7.3-3,9.4-7.6,9.4-7.6c-2.2-0.4-3.4,1-7.8,3.2s-5.6,0-5.6,0c4.8-5.5,8.2-8,8.2-8c-4.1-0.5-7.9-2.7-7.9-2.7 c-4.3,7.2-7.6,11.3-15.9,5.7c-8.3-5.6-12.7-4.2-12.7-4.2c7.4-7.7,14.9-5.8,20.3-1.6c5.5,4.2,6.9-0.2,6.9-0.2 c-1.7-1.4-1.5-2.9-1.5-2.9c13.1,8.3,18.7,0.4,21.5-3.4c2.9-3.8-1.3-7-1.3-7c-0.3,6.9-5.6,11-9.7,9.4s-8-3.6-14.1-6.6 s-13.7,0.1-20.9,3.5c-7.3,3.2-8.1,2.1-8.8,1.4c-0.6-0.8-1-3.5-4.8-0.8s-12.5-2.8-18.1-4.4s-14.7,0.1-22.9,6.8 c-8.1,6.7-12.3,5.1-14.7,3.7c-2.5-1.6-4.1-5.9-1.4-9.9c2.7-4,2.9-5,2.7-10.8c-0.2-5.6-4.2-9-4.2-9c3.7-5.3,4.6-6.5,3.3-8.8 s0.7-2.3,2.8-3.7s1.2-1.5,0.7-3.3C946.6,758,945.3,758.4,945.3,758.4z M904.2,817c-1.7-5.8-4.1-8.3-4.1-8.3 c-6.6-7.3-5.1-9.7-3.1-10.6c1.4-0.6,2.6-0.4,3.9,1.7c1.2,2.3,0.5,7.4,0.5,7.4c0.9,1,3.1,6,3.1,6c0.1-0.5,0.4-2.6,0.4-4.9 c0-2.3,0.7-3,0.7-3c0.5,1.3,0.6,2,0,8.1s3.7,10.5,3.7,10.5C908.7,823.7,905.9,822.8,904.2,817z M910.3,818.1c0,0-4.4-6.5,2.7-13 h0.1c0,0,0.1,1.7,3.8,3.8c3.7,2.2,5.6,6.2,6.3,8.3s2.5,5.3,5.5,6.3C928.7,823.5,916,827.1,910.3,818.1z M998.4,833.8 c-10.2-5.8-10.8-3.3-20.3-8.3c0,0,5.4-1.5,18.7,4.8s18.6,3.5,20.5,3.1C1017.1,833.4,1009.9,840.4,998.4,833.8z M1045.8,834.6 c0,0-11.3,7.2-19.4,3.8c-4.2-1.8-8,0.8-8.9,1.8c0,0,2.7-7.7,10.2-8.9C1035.3,830.1,1036.3,835.4,1045.8,834.6z M1006,818.8 c5.8-1.1,12-3.6,8.9-0.2c-3.1,3.4-1.5,3.7,11.5-0.3c13.1-4-0.1,3.9,8.8,4.4c-16.1,14.3-34.3,7.9-50.1-3 C985.3,819.6,996.7,820.6,1006,818.8z M949.2,812.7c7.8-0.5,11.1-3.6,13-8.2c0,0,1.5,3.4,1.5,5.5c0,0,6.6-8.1,17.7-2 c10.8,6,7.8,4.5,9.9,4.7c0.1,0,0.1,0,0.1,0h-0.1c-0.9-0.1-5.5,0-15.3,7.2c-13.2,8.9-41.8,5.4-41.3-14.8 C934.7,805.2,941.5,813.2,949.2,812.7z M937.3,769.5c-4.5,5.6-0.7,9.6-3.4,12.9c-2.3,2.7-1.9,2-1.4,3.5s1.8,5.9-0.4,12 c-2.3,6.1-1.9,9.4-1.9,9.4c-4.2-0.5-8.8-2.2-8.8-2.2c-13-4.2-20.5-17.5-13.3-29.7c1.5,9.3,8.1,10.4,8.1,10.4 c-2-7.3,3.7-13.8,6.3-17.4c2.7-3.8,9-5.3,9-5.3c1.1-0.5,3.9-3,3.9-3c-2.3,5-6.7,8.4-6.7,8.4c-5.5,4.3-4,0.2-6.6,3.6 c-3,3.8-4.3,7.2-4.3,7.2c-2.6,8.4,4.7,13.7,4.7,13.7c0.4-2.3,0.7-2.5-1.9-7.9c-2.7-5.5,9.4-13.5,12.5-15.3s7.8-5.3,7.8-5.3 C940.2,766,937.3,769.5,937.3,769.5z" fill="#FFC221"/>
    <path d="M905.5,813.5c0.5-6.1,0.4-6.8,0-8.1c0,0-0.7,0.6-0.7,3c0,2.1-0.2,4.4-0.4,4.9c0,0-2.2-5-3.1-6c0,0,0.7-5.3-0.5-7.4 c-1.2-2.3-2.4-2.4-3.9-1.7c-2,0.9-3.5,3.2,3.1,10.6c0,0,2.5,2.7,4.1,8.3c1.7,5.8,4.4,6.7,5.1,7C909.2,824,905,819.6,905.5,813.5z M899.9,806.6c0,0-5.8-6.3-2.1-7.3C897.8,799.3,900.6,798.7,899.9,806.6z"/>
    <path d="M920.5,785.2c2.7,5.5,2.4,5.8,1.9,7.9c0,0-7.3-5.3-4.7-13.7c0,0,1.1-3.5,4.3-7.2c2.8-3.4,1.1,0.8,6.6-3.6 c0,0,4.4-3.6,6.7-8.4c0,0-2.9,2.5-3.9,3c0,0-6.5,1.6-9,5.3c-2.7,3.8-8.3,10.1-6.3,17.4c0,0-6.6-1.2-8.1-10.4 c-7.2,12.2,0.3,25.5,13.3,29.7c0,0,4.6,1.7,8.8,2.2c0,0-0.4-3.5,1.9-9.4c2.3-6.1,0.8-10.6,0.4-12c-0.5-1.5-0.8-1,1.4-3.5 c2.7-3.1-1.1-7.2,3.4-12.9c0,0,3-3.5,3.7-5c0,0-4.7,3.7-7.8,5.3C929.9,771.7,917.8,779.7,920.5,785.2z M929.6,765.4 c-3,4.8-6.1,4.1-6.1,4.1C925.4,766.6,929.6,765.4,929.6,765.4z M933.2,779.1c-0.6,5.4-4.7,3.3-2.5,7.4s-0.1,10.6-1.2,13.7 s-1.2,5.4-1.2,5.4c-12.8-1.9-24.8-11.6-20.7-25.5c3.4,7.5,8.8,7.4,8.8,7.4c2.3,5.8,6.2,7.6,6.2,7.6c4.6-5.7-3.1-9.6,0.1-14.9 c3.3-5.3,11.9-9.6,11.9-9.6C932.8,774.3,933.8,773.7,933.2,779.1z"/>
    <path d="M1033.3,738.2c0,0,0.6,1.6,3.3,0.6c18.9-6.7,37.3-14.7,55.5-23.2c0,0,8.1-2.6,6.4-8.7 c-1.6-5.5-3.3-3.9-8-1.9c-19.4,9.7-38.8,19.2-58.9,27.4c-1.3,0.5-0.5,1.6-0.5,1.6C1031.8,735.2,1032.8,737,1033.3,738.2z" fill="#FFC221"/>
    <path d="M991.4,812.8L991.4,812.8C991.5,812.8,991.4,812.8,991.4,812.8z"/>
    <path d="M976.1,820c9.8-7.2,14.5-7.3,15.3-7.2c-2.2-0.1,1,1.3-9.9-4.7c-11.1-6.2-17.7,2-17.7,2c0-2.3-1.5-5.5-1.5-5.5 c-1.9,4.5-5.2,7.7-13,8.2s-14.6-7.5-14.6-7.5C934.3,825.5,962.9,829,976.1,820z M961.4,809.1c0,0,0.9,1.3,1.7,4.1 c0,0,8.4-11.8,22.7-0.4c0,0-1.7-0.2-8.5,4.7c-12.1,8.1-32.9,8.6-39.6-6.9C937.6,810.6,950.5,821.2,961.4,809.1z"/>
    <path d="M929.6,765.4c0,0-4.1,1-6.1,4.1C923.5,769.5,926.5,770.2,929.6,765.4z" fill="#5A3719"/>
    <path d="M897.8,799.3c-3.7,1.1,2.1,7.3,2.1,7.3C900.6,798.7,897.8,799.3,897.8,799.3z" fill="#5A3719"/>
    <path d="M1017.5,840c0.8-0.9,4.7-3.4,8.9-1.8c8,3.4,19.4-3.8,19.4-3.8c-9.5,0.8-10.4-4.7-18-3.5 C1020.2,832.1,1017.5,840,1017.5,840z M1035.2,833.7c0.8,0.5,2.7,1.4,4.5,1.7c0,0-5.3,3.6-10.8,1.8c-2.3-0.8-4.1-1.4-7.1-1.6 C1021.9,835.6,1028.2,829.7,1035.2,833.7z"/>
    <path d="M977.3,817.3c6.8-4.9,8.5-4.7,8.5-4.7c-14.3-11.4-22.7,0.4-22.7,0.4c-0.8-2.8-1.7-4.1-1.7-4.1 c-10.9,12.2-23.8,1.6-23.8,1.6C944.3,826.1,965.2,825.5,977.3,817.3z" fill="#5A3719"/>
    <path d="M1035.4,822.6c-8.9-0.3,4.2-8.2-8.8-4.4c-13.1,4-14.6,3.7-11.5,0.3s-3.1-0.9-8.9,0.2c-9.4,1.9-20.8,0.8-20.8,0.8 C1001.2,830.4,1019.3,836.8,1035.4,822.6z M1012.3,818.8c0,0-8.8,8.1,13.4,1.8c0,0,4.9-1.6,4.3-0.3s-0.9,2.3,1.5,3.1 c-12.8,10.1-28.3,4.9-41.4-1.7C990.1,821.5,1004.7,822.1,1012.3,818.8z"/>
    <path d="M1014.7,805.6c3.8,0.8,5.5,1.6,12.1,5.6c6.5,4,9.2-2.7,9.2-2.7c-4,0-3-0.4-8.9-3.8 C1021.2,801.2,1014.7,805.6,1014.7,805.6z" fill="#5A3719"/>
    <path d="M1029,837.2c5.5,1.8,10.8-1.8,10.8-1.8c-1.8-0.3-3.7-1.2-4.5-1.7c-6.9-4-13.2,1.9-13.2,1.9 C1024.9,835.8,1026.7,836.4,1029,837.2z" fill="#5A3719"/>
    <path d="M1031.5,823.2c-2.4-0.8-2-1.7-1.5-3.1c0.6-1.3-4.3,0.3-4.3,0.3c-22.1,6.5-13.4-1.8-13.4-1.8 c-7.7,3.3-22.2,2.6-22.2,2.6C1003.1,828,1018.6,833.4,1031.5,823.2z" fill="#5A3719"/>
    <path d="M923.1,817.2c-0.7-2.1-2.7-6-6.3-8.3c-3.7-2.2-3.8-3.8-3.8-3.8h-0.1c-7,6.3-2.7,13-2.7,13c5.8,9,18.4,5.6,18.4,5.6 C925.7,822.5,923.9,819.4,923.1,817.2z M912.2,818.3c-4.3-5.5,0.5-10.7,0.5-10.7c0.6,1,1,1.5,4.4,3.5c3.2,2,3.3,4.2,4.7,7.1 c1.6,3.1,3.3,4.5,3.3,4.5C922.2,823,916.1,823.3,912.2,818.3z"/>
    <path d="M973.9,841.3c0,0,3.8-0.5,9.2,1.1s17.5,5.3,23.9-1.4c0,0-4.5,0-10.6-2.5c-6.1-2.7-7.7,0.2-11.3-3.5 c-3.5-3.7-10.6-0.8-12-0.4c-1.3,0.4-5.2,0.3-0.3-4.6c0,0-3.8,0-5.3-2.7c0,0-1.7,2.6-8.3,1.8c0,0,3.1,6.6-8.9,5.1 c0,0,3.6,5.9,7.8,6.9s5.9,0.6,8.6-0.7c0,0-0.8,5.2,4.6,6.9c5.4,1.7,6.5,3.1,9.1,4.6C980.6,851.8,981,848.5,973.9,841.3z" fill="#5A3719"/>
    <path d="M1018.7,844.8c0,0-6.7,1.4-8.8,3.8c0,0,1.1,3.8,4.5,2.4c3.4-1.3,8.8-3.7,14.1-0.2 C1028.5,850.8,1029.4,843.8,1018.7,844.8z" fill="#5A3719"/>
    <path d="M921.8,818.4c-1.6-3.1-1.6-5.1-4.7-7.1c-3.3-2.2-3.8-2.7-4.4-3.5c0,0-4.8,5.2-0.5,10.7 c3.9,5,10,4.7,12.8,4.6C925.1,822.8,923.3,821.5,921.8,818.4z" fill="#5A3719"/>
    <path d="M922.8,780.4c-3.3,5.3,4.5,9.1-0.1,14.9c0,0-3.9-2-6.2-7.6c0,0-5.4,0.1-8.8-7.4c-4.1,13.8,8,23.5,20.7,25.5 c0,0,0.1-2.3,1.2-5.4s3.5-9.6,1.2-13.7c-2.3-4.1,1.8-2,2.5-7.4c0.6-5.4-0.4-4.6,1.5-8.1C934.7,770.9,926.2,775.2,922.8,780.4z" fill="#5A3719"/>
    <path d="M996.6,830.3c-13.2-6.3-18.7-4.8-18.7-4.8c9.5,5,10.1,2.3,20.3,8.3c11.5,6.6,18.8-0.3,18.8-0.3 C1015.2,833.8,1009.9,836.5,996.6,830.3z"/>
    <path d="M1063.8,809.7c0,0,1.1-1.7,3.7-2.9c0,0-1.8-2.4-8.3,2.7C1059.2,809.8,1062,809,1063.8,809.7z" fill="#FFC221"/>
    <path d="M1054.4,797.1c0,0-1.5-2.7-3.7-3.5c0,0,0.4,3.1-0.1,6.8C1050.5,800.4,1053.4,799.6,1054.4,797.1z" fill="#FFC221"/>
    <path d="M999.8,746.1c-0.3-2.1-2.5-1.9-2.5-1.9c-15.1,4.8-30.3,8.9-45.7,12.4c-3.3,0.8-2.8,3-2.8,3 c0.2,3,3.2,2.2,3.2,2.2c12.6-2.6,25.1-5.5,37.5-8.8C999.6,750.3,1000.1,748.5,999.8,746.1z" fill="#FFC221"/>
    <path d="M1005.4,747.1c-1-0.2-2.8,0.1-4,1.1c-1.9,1.5-3.8,3.2-3.1,4.6c1.4,3.2,1.6,3.8,1.2,4.2 c-1.4,0.8-2.5-1.1-2.7-2.4c-0.3-1.6,0.8-2.7-3-1.5c-1.6,0.5-2.9,0.6-2.9,1.6c0,0,0,8.9,6,9.7c5.7,0.8,7.7-1.3,9.2-6.1 C1006.1,756.9,1007.8,747.5,1005.4,747.1z" fill="#FFC221"/>
    <path d="M1015.1,745.3c-3.1-0.1-5.8,1.1-5.8,1.1c-1,0.4-1.7,1.4-1.4,2.3c0.8,3.1,0.1,7.6-1.3,11.1 c-1.5,3.6-1.7,3.3,0.2,4.3c0,0,3.6,1.2,7.5-3.9C1017.7,755.2,1018,745.4,1015.1,745.3z" fill="#FFC221"/>
    <path d="M1024.6,746.9c-1.5,0.4-0.3-1.3,0.3-1.7s2.6-1.9-2.5-6.2c0,0-0.8-1-1.8-0.4c-0.7,0.4-3.5,2.6-3.5,5.1 c0,1,0.5,2.1,0.5,2.1s2.1,3.8-0.5,11.8c0,0-1.2,2.5,1.5,1.8c2.6-0.7,8.4-5.9,7.8-11.4C1026.4,747.9,1026.2,746.7,1024.6,746.9z" fill="#FFC221"/>
    <path d="M1023.2,738c0,0,4.1,4,4.1,5.3s-0.4,3.4,0.7,3c1.1-0.3,5.5-2.5,4.3-7c-1.2-4.4-2.4-5.9-4.5-6.5 c-2.1-0.8-2.5,0.7-4.3,3.1C1023.4,735.8,1022.2,737.2,1023.2,738z" fill="#FFC221"/>
    <path d="M1002.6,741.5c-3.2-0.8-4.8,1.5-4.8,1.5c3.8,0.9,3,4.3,3,4.3c2-1.4,4.5-1.5,4.5-1.5 C1005.4,745.5,1005.7,742.1,1002.6,741.5z" fill="#FFC221"/>
    <path d="M1007.3,740.1c0,0,2,3.4,1.6,5.4c0,0,4.3-1.7,6.2-1.6C1015.2,743.9,1013.1,737,1007.3,740.1z" fill="#FFC221"/>
    <path d="M1016.4,742.8c0,0,0-2.3,3.6-5c0,0-1.8-2.4-4.2-1.7c-2.9,0.7-3.4,2.3-3.4,2.3S1015.4,739.6,1016.4,742.8z" fill="#FFC221"/>
    <path d="M1017.7,734.8c0,0,2.2,0.5,3.7,2.3c0,0,2.1-3.9,3.9-5C1025.3,732.2,1021.9,729.8,1017.7,734.8z" fill="#FFC221"/>
    <path d="M892.5,711.1c-8.8-6-19.4-8.6-29.8-5.4c9.1,4.8,18.1,10,26.2,16.4c0,0,11.7-12.7,18.1-11.1 c6.5,1.8,3.2,0.6,10.3-0.8c7.1-1.4,14.1-2.4,17-1.9c0,0-5.6-5.6-16-7.5c-5.1,0.3-9.3,1-12.7,2C901.7,704.7,896.6,707.7,892.5,711.1 z" fill="#5A3719"/>
    <path d="M1004.9,741.5c0.3,0.5,0.9,1.1,1.2,2.5c0.3,1.6-0.3,2.4,1.3,2.2c2-0.2-0.8-5.4-0.8-5.4 C1006,741.1,1005.6,741.3,1004.9,741.5z" fill="#FFC221"/>
    <path d="M1027.1,714.4c-1.8,0.3-4.8-0.4-5.9,0.9c-1.1,1.3-10.1,11.8-15.3,13.9c-5.4,2.1-10.2,4.9-13.7,14 c0,0-1,2.1,0.9,1.4c2.4-0.7,1.9,0,4.5-2.9c0,0,1.6-2.6,4.5-1.5c0,0,2.5,0.9,4.4-0.7c2-1.7,2.5-1.6,3.5-1.6c1.1,0,1,0.4,2.5-1.5 c1.4-1.8,3.8-0.8,5.4-3s3.5-0.8,0-4.1c0,0-0.7-1.1-0.6-2.1c0,0,1.4,0.5,2.4,1.8c1.1,1.3,2.7,0.6,3.1,0.4c0,0,0.2-4.8,3.3-9.8 C1028.9,714.5,1028.9,714.1,1027.1,714.4z" fill="#FFC221"/>
    <path d="M832.3,692.1c0,0,19.7,7.6,24.1,10.6c0,0,1.1-4-7.8-7.8c15.9,0.9,30,6.9,44,14.4c0,0,3.5-3.8,13-6.5 c3.5-0.9,7.6-1.7,12.7-2c5.2-0.3,11.3-0.2,18.3,0.5c0,0,0.1-4,0.2-7.1c-17-1.2-31.7-9.5-45.3-19.3 C873.2,684.9,852.8,689.2,832.3,692.1z" fill="#FFC221"/>
    <path d="M946.7,707.8c-0.7-9.4,0.1-19,4.1-27.7c-3.5-0.7-6.8-0.7-6.8-0.7c-6.7,6.4-6.6,19.5-5.8,28 c0,0-0.1,3.3,4.5,3.2C947.3,710.8,946.7,707.8,946.7,707.8z" fill="#FFC221"/>
    <path d="M942.5,712.5c-3.4-0.1-3.3,1.4-3.3,1.4c0.4,5.6,3.8,10.5,3.8,10.5c3.1-0.2,4.7-0.3,7.8-0.5 c-0.6-0.6-2.7-6.4-3.5-9C946.3,712.1,945.9,712.6,942.5,712.5z" fill="#5A3719"/>
    <path d="M949.8,701.7c0.2-14.4,1.9-13.1,2.5-11.3c1.4,0,2.1,0,3.5,0.1c0,0-2.5-16.1-5.4-6.6 c-2.9,9.3-2.7,15.4-2.3,22.7c0.2,4.3,0.6,6.8,0.9,8.4c0.5-1.4,0.8-2.1,1.3-3.5C949.8,708.1,949.7,705.3,949.8,701.7z" fill="#FFC221"/>
    <path d="M1000.1,702.9c0.1,0.3,0.2,0.8,0.5,1.3c1.6,2.8,2.2,2.1,2.9,1c0.8-1.1,4.3-3.5,1.1,1.4 c-2.9,4.5-5.3-0.6-6.5-2.4c-2.8,1.6-6.2,3.7-9.2,5.7c1.3,0.5,2.7,1.8-4.3,5c0,0,0.5,17.6,11.8,4.2c0,0,6.6-7.1,11.2-10.3 c0,0,2.2-1.4,2-4c0,0,0.2-3.2-2.2-2.2c0,0-1.9,0.2-3.1-0.3c0,0-0.2-0.5-0.6-0.9c-0.2,0.2-0.5,0.2-1,0.4 C1002.1,701.9,1001.2,702.3,1000.1,702.9z M989.8,718.9c-2.1-1.5,1.1-3.4,1.1-3.4s2.8-1.7,4.9-2.4 C997.8,712.4,991.9,720.2,989.8,718.9z M997.6,709.3c-0.5,1.9-1.6,0.8-2.1,0.5c-0.4-0.3-2.5-1.2-0.3-1.6 C995.3,708.2,998.1,707.4,997.6,709.3z" fill="#5A3719"/>
    <path d="M950.2,711.4c-0.5,1.4-0.8,2.1-1.3,3.5c0,0,3.7,18.7,6.8-1.5c-1.1,0-1.7,0-2.9-0.1 C952.8,713.3,951.2,716.8,950.2,711.4z" fill="#5A3719"/>
    <path d="M956.1,707.7c-0.3,0-0.5,0-0.8,0c0,0-0.6-6.4,0.2-16c-1.5,0.1-2.3,0.1-3.8,0.1c0,0-1.5,12.3,0.3,20 c10.3,0,20.7-0.2,31-0.8c0,0-0.3-8.7,0.1-20.8c-1.7,0.1-2.6,0.2-4.3,0.3c0,0-0.6,9.9,0,16c-0.3,0-0.4,0-0.7,0c0,0-0.6-8.5,0-16 c-1.4,0.1-2.1,0.1-3.6,0.2c0,0-0.6,9.1-0.1,16c-0.3,0-0.4,0-0.7,0c0,0-0.6-8.1,0.1-16c-1.4,0.1-2.1,0.1-3.6,0.2c0,0-0.7,8.3,0,16 c-0.4,0-0.5,0-0.9,0c0,0-0.7-8.4,0-16c-1.6,0.1-2.4,0.1-3.9,0.2c0,0-1,7.8,0,16c-0.3,0-0.5,0-0.8,0c0,0-0.9-7.9,0.1-16 c-1.6,0.1-2.4,0.1-4,0.2c0,0-0.9,8.8-0.1,16c-0.3,0-0.5,0-0.8,0c0,0-0.7-8.4,0.2-16c-1.5,0.1-2.3,0.1-3.8,0.1 C956.2,691.6,955.1,699,956.1,707.7z" fill="#FFC221"/>
    <path d="M988.9,709.8c3.1-1.9,6.5-3.9,9.2-5.7c0.8-0.4,1.4-0.8,1.9-1.2c1.1-0.6,1.9-1.2,2.6-1.4 c0.3-0.2,0.6-0.4,1-0.4c1.7-0.9,1-0.9,0-3c-1.3-2.7-5.8-5.3-2.2-3.9c1.4,0.5,3.3,2.9,3.9,3.7c4.1,4.7,3.5,3.4,3.5-0.6 s-1.4-4.5-2.4-4.8c-1-0.4-7.1-4.8-11.9-8.8c-4.8-4.2-6-5-8.2,0.7c-3.1,8-2.3,18.8-2,28.1C985.7,711.7,987.2,710.7,988.9,709.8z M995.5,690.5c2.7-1.3,2.9,6.3,3.5,10.7c0.4,4.6-3.5-4.3-4-5.5C995,695.7,992.8,691.8,995.5,690.5z" fill="#FFC221"/>
    <path d="M999,701.2c-0.4-4.4-0.6-12-3.5-10.7c-2.7,1.3-0.5,5.2-0.5,5.2C995.5,696.9,999.4,705.8,999,701.2z"/>
    <path d="M995.9,712.9c-2.1,0.7-4.9,2.4-4.9,2.4s-3.3,2.1-1.1,3.4C992.1,720.1,997.8,712.2,995.9,712.9z"/>
    <path d="M995.3,708.2c-2.2,0.4-0.1,1.3,0.3,1.6c0.4,0.3,1.4,1.5,2.1-0.5C998.3,707.2,995.3,708.2,995.3,708.2z"/>
    <path d="M1015.7,710.6c0,0,2.7,0.6,2.1-2.9c0,0-0.4-3.1-0.9-4.3c-0.4-1.3-2.2-1.8-2.4-2c-0.2-0.1-0.4-0.9,0.8-0.4 c1.3,0.5,1.5,0.5,1.4-0.8c-0.1-1.5-0.8-0.7-2-1.5c-0.4-0.3,0-0.8,0.5-0.7s1.6,0.4,1.7-2.4c0,0,0.2-1.7-1.2-1.7 c-1.6,0.1-1.4-1-1-1.2c0.5-0.2,2.1,1.4,2.5-1.7c0.4-3-2.2-1-1.9-2.5s2.2,0.5,2.4-1.3c0.1-1.8,1.7-2.7-1-3c-1.3-0.2-0.1-1.1,1.3-1 c1.5,0.1,2.4-2.8,3.3-3.9c0.8-1.1,5.7-6.3-0.7-3.9c-6.5,2.4-8.5,7.6-8.9,8.7c-0.4,1-2.2,7.1-1.7,16.7 C1010.3,700.6,1011,709.1,1015.7,710.6z" fill="#FFC221"/>
    <path d="M1024.7,711c1.4-2.7,3.8-1.9,2.7-5.2c-0.3-0.9-1.1-1.2-1.9-0.7c-2,1-5.2,0.9-5.2,0.9c-1,0-1.8,0.3-1.6,1.5 c0,0,0.7,4.5,2.6,5.1C1023.2,713.2,1023.3,713.7,1024.7,711z" fill="#FFC221"/>
    <path d="M1019.7,705.3c1.1,0,4.3-0.1,6.2-1.3c0,0,0.7-0.3,0.4-2.2c0,0,0-1.3-1.7-0.6c-1.7,0.8-4.2,0.6-5.1,0.4 c-0.8-0.2-1.5,0.2-1.1,2.6C1018.5,704.3,1018.6,705.3,1019.7,705.3z" fill="#FFC221"/>
    <path d="M1018.2,698.2c0,0-0.1,2.7,1.7,2.7c1.7,0.1,3.9-0.2,4.7-0.7c0.6-0.3,1.9-1,2-2.5c0.1-1.7,0.4-2.9-1.8-1.7 c-2.1,1.1-4.6,1-5,0.9C1019.7,697,1018.2,696.6,1018.2,698.2z" fill="#FFC221"/>
    <path d="M1022.2,696.3c2.2-0.3,4.2-1.1,4.4-2.3c0.1-1.2,0.6-2.6-1.1-2c-1.7,0.6-4,1.1-4.9,0.7 c-0.8-0.4-1.5-0.6-1.6,0.1c0,0-0.4,1.2-0.3,2.4C1018.7,696.3,1019.9,696.5,1022.2,696.3z" fill="#FFC221"/>
    <path d="M1041.3,700.1c-0.2,3.8-1.1,4.8-1.1,4.8c20.6-3.1,40.8-7.2,61-12.4c-1.2-2.1-1.1-4.4-1.1-4.4 C1081.5,693.5,1060.7,700.3,1041.3,700.1z" fill="#5A3719"/>
    <path d="M1024.5,679.5c-2.3,0.4-2.3,0.7-2.5,1.4c-0.2,0.5,0,1,0.4,1.1c0.4-0.1,1.4,1.3-0.1,1.3 c-1.5,0.2-2.4-0.1-2,2.3c0,0,0,0.5,0.8,0.5s1.2,1.3-0.4,1.5c-1.1,0.2-1.1,0.8-1.2,1c0,0-0.5,2.6,0.6,2.9c1.2,0.3,3.1,0.5,5.6-0.5 c0,0,1.3,0,1.7-2.2s0.4-1-3.3-1.6c0,0-1.2-0.3,2.2-0.8c0,0,1.8-0.1,2.1-0.7c0.3-0.5,2.7-3.9-0.4-3.2c-3.2,0.7-1.6-0.6,0-0.8 s2.1,0.2,2.6-0.8c0.5-0.9,0-0.3-0.8-1.5s-0.2-1,0.3-0.2s0.9,0.8,1.7-0.3c0.7-1.1-0.5-2.2,0-2.1c0.5,0.1,0.8,1.7,2.8-0.3 s4.8-1.5,5.5-0.8s2.8,1.5,4.2-0.8c1.2-2.4-1.6-3.5-0.3-4.1c1.1-0.6,2-0.1,2.5-1.6c0.5-1.6-1.9-2.6,0.4-4.1c2.2-1.4,0.3-11-0.4-11.7 c0,0-2.5,2.8-5.2,10.3s-4.4,11.9-8,10.4c-5.3-2.2-8.2,2.7-9,3.6C1022.9,679,1026.9,679.1,1024.5,679.5z" fill="#FFC221"/>
    <path d="M1029.6,709.6c-1.4-1.6-2.3-0.5-4.4,2.5c0,0-1.2,1.3,0.4,1.3c1.6-0.1,2.3,0.3,2.8-1.1 C1029,711,1031,711.2,1029.6,709.6z" fill="#FFC221"/>
    <path d="M1032.9,699.3c-1,0.2-2.6-0.7-4-1.2c-1.4-0.4-1.2,2.5,0.1,3c1.3,0.5,1.9,2.2-0.1,1.8s1.2,4.3,2,5.1 c0.8,0.7,5.9,0.8,3.1,1.5s-1.3,1.5-1.3,1.5c3.4,3.2,5.8-2.2,7.1-3.9c1.2-1.7,0.3-1.2-1.5-0.6s-0.3-0.8-0.3-0.8 c1.3-0.7,3.6-7.6,0.3-10c-3-2.1,1.5-2.7-2.6-2.8s-0.1-1.3,0.7-1.5s2.6-1,1-1.7s-0.7-2,0.3-2.2s2-1.2,2.5-2.1 c0.5-0.9-0.2-2.1,0.5-2.1s0.9,2.1-0.5,4.4c-1.5,2.3,1.5,1.2,1.5,1.2s4.3-0.8,6.2-1.2s1.1-0.9,0.5-1.9s-0.7-1.8-2-0.6 c-1.2,1.2-2.4,1.5-1.2-0.4c1.1-1.9,0.7-2.3,0.6-2.4s-0.5-0.7-4.8-5.2c-4.3-4.3-9.4,4.1-9.4,4.1c-0.3,0.4-1.4,2.2-0.3,3 c1.5,1.6,0.6,2,0.1,1.6s-0.8-1.5-2,1.7s1,1.8,1.6,3.9c0.6,2.2-1.9-1.7-2.4,1.6c-0.5,3.2,0.4,3.2,2.7,3.9 C1033.6,698.3,1033.9,698.9,1032.9,699.3z M1036.2,682.3c0.9,0,0.7-0.6,0.9-0.8c0.3-0.2,2.6,0.7,0.4,2.2c-0.8,0.6-2.1,0.5-2.3-0.3 C1035.4,683.3,1035.3,682.3,1036.2,682.3z" fill="#FFC221"/>
    <path d="M1037.6,683.6c2.2-1.6-0.1-2.5-0.4-2.2c-0.3,0.2,0,1-0.9,0.8s-0.9,1-0.9,1C1035.6,684.1,1036.8,684.2,1037.6,683.6z"/>
    <path d="M1040.1,695.3c1.4,2.2,1.4,3.1,1.3,4.6c19.4,0.2,40.2-6.6,58.7-12c0,0-0.1-6.1,2.4-10.2 c-20.5,5.8-41.2,10-62.2,13.3C1040.3,691,1038.5,692.8,1040.1,695.3z" fill="#FFC221"/>
    <path d="M1100.9,686.1c0,0-0.3,3.6,1,5.1c1.5,1.7,4.6-4.3,3.7-9.8c-0.5-4-1.9-4-2.8-2.9 C1101.2,680.9,1100.9,686.1,1100.9,686.1z" fill="#5A3719"/>
    <path d="M1040.3,708.2c-1.6,2.9-4.7,6.3-7.7,4.3c0,0-1.3-1.4-2.5,0.1c-1.3,1.7-1.4,2-0.3,3.5c1,1.3,3.3,5.7,3.7,8.2 c0,0,4-6,4.6-8.6c0,0,10.7,10,10-0.9c0,0,0-3,0.3-5.9c0,0,3.8-0.1,4.5-5.2c-4,0.6-6,0.9-10,1.5 C1042.9,705.4,1041.9,705.3,1040.3,708.2z" fill="#7B3C20"/>
    <path d="M1059.3,664.9c-0.8-2.3-1,0.1-1.2,0.9c-0.1,0.9-0.3,2.1-1.1,4.9c-0.8,2.8-6.8-4.7-7.8-6.1 c-1-1.4-0.6,0.6-0.7,2.1s-0.7,4.8-3.1,8.2s-1.1,4-1.1,4c4.2,4.5,6.2,8.8,6.2,8.8c2.3-0.3,3.5-0.5,5.8-0.9c-2.4-7.4,5.3-5.3,5.3-5.3 c-0.6-2.2-0.7-8.6-0.7-8.6C1060.8,666.4,1060.3,667.2,1059.3,664.9z" fill="#7B3C20"/>
    <path d="M1037.8,669.3c2.2-5.7,3.6-7,2-11.8c-1.7-4.8,0-7.6,1.2-9.8s2.3-2.3,2.5-10.4c0.2-8.1,3.7-11.7,5.3-14.5 c1.6-2.8,5.6-7.6-0.5-8s-18.2-3.2-21.4-10.2c-3.2-6.9-4.6-2.3-4.6-2.1s-1,6,2.1,15.4c3.2,9.4,5.9,15.4,8.9,18.1 c3,2.6,5.7,3.9,4.2,10.8c-1.6,6.9-4.2,19.3-6.5,24.9C1031.1,671.9,1035.6,675.1,1037.8,669.3z" fill="#7B3C20"/>
    <path d="M1025,599.7c10.6-2,1.8-0.3,3.8,2.9s11,9.7,19.3,9.4c8.3-0.4,10.2-5.8,7.9,0.5c-2.4,6.3-3.2,8.6-4.5,10.9 c-1.4,2.3-5.3,7.5-5.4,15.5s-6.5,10.4-4.1,18.7c0,0,3.6-6.3,5.6-9.9c0,0,0.7,17,8.6,21.2c0,0,1.8-7,1-13.5c0,0,2.5-0.2,3.2,1.4 c0,0,0.1-5-3.5-6s-1.9-12.5-0.6-13.9c1.3-1.6,0.9-3.7,0-5.5s-1.1-4.7,2-4.2c3.1,0.6,2.6-1.9,0.7-4c-1.9-1.9-1.8-4.9,0.8-5.5 c2.6-0.6,6.9-5.6,4.3-6.3s-3.4-1.8,0.1-4.3s5.3-4.9,2.6-4.8s-4.4-0.9-1.9-2.2c2.6-1.3-0.5-4.8-3.5-4.3s-9.5,4-4.3-3.8 s-7.3-0.2-2.3-5.6c5.1-5.4-1.8-1.9-2.7-1.9c-0.9,0.2-0.9,0.2-0.6-2s-0.7-3-2.2-1.4c-1.4,1.6-1.4,1.6-1.5-1.4c0.1-3-1.8-0.5-2.9,0.6 s-3.9,4.9-5.1,3.3c-1.2-1.6-1.8-3.5-5.3,0.6c-3.5,3.9-2.7,0.8-2.6-0.7s1.4-7.5-3.5-0.4c-4.8,7.1-0.9-6.6-4.7-1.6s-4.2,5.9-4.9,4 c-0.6-1.9-1.4-3.4-5.6,1.4c-4.3,4.9-1.2-2.3-0.5-3.9c0.6-1.6,2.4-11.4-1.4-3.5c0,0-1.8,5.5-5.9-3.4c0,0-4.3,9.7-5.5,5.7 c-1.1-4-2.3-4.2-3.7-1.4s-0.3-0.1-1-2.2c-0.7-2.2-0.9-6.3-8.3,2.4c-7.3,8.7,2.5,2-3.1,6c-5.6,4.1-19.4,16.6-6.9,13.1 c12.6-3.5-6.1,7.7-1.8,9.2s3.2,7.4,19.1-0.7c16.1-8.3,13.4-2.4,21.4-9C1024.1,593.1,1014.3,601.7,1025,599.7z" fill="#5A3719"/>
    <path d="M980.2,456.5c-0.3,11.3-8.9,20.6-16,28.6c-5.9,7.1-5.1,7.7-2.4,6.6c2.8-1.1,9.9-8.3,5.4-2.9 s-4.6,7.3-4.6,7.3c5.3,1.6,6.5-4.6,11.6-1.6c6.5,3.7,10.2-2.4,10.2-2.4c0.9,2.9-0.5,7.7-3.7,11.5c-3.2,3.9,4.3,4.8,8.1,8.9 c3.7,4.1,4.5-1.1,4.5-1.1c3.3,2.7,4.7,9.6,4.7,9.6c5.5,22.5-2.6,0.4-1.2,15.7c1.4,15.2,0.2,13-1.9,13.4c-2.2,0.4-0.6,5.2-6.2,4.2 s-3.8,2-4.8,3.4c-1,1.6-7.4-3.7-7.4-3.7s-0.8,0.1,0.9,7.2s-0.7,4.5-4.3,4.9c-3.7,0.4-0.2,6.5-1.7,7c-1.5,0.6-3.8,0.2-3.8,0.2 c0.1,4.5,3,4.8,3,4.8c-2.9,2.8-4.1,8.3-4.1,8.3c4.7-1.6,15.8-1.3,15.8-1.3c1.4-5.9,13-16.7,13-16.7c-0.1,4.8,1.8,7.9,1.8,7.9 c0.6-0.7,1.1-2.4,1.1-2.4c0.2,1.5,2.4,4,2.4,4s1.5-0.7,2.8-6.8s1.2-4.9,2.5-1.6c1.2,3.3,4.7,8,4.7,8c1.9-1.1,5.1-8.6,5.1-8.6 s2,1,1.5,7.6c-0.5,6.5,0.2,4.1,1.3,3.1c1.1-1.1,2.3-3.5,2.1-0.3s1.3,2,1.3,2c1.7-1.9,4-7.2,4-7.2c1.2,4.8,2.5,5.9,2.5,5.9 c10.4-12,10.6-8.3,9-6.2s-2.3,7-2.3,7c6.6-4.5,7-3.6,7.4-2.7c0.5,0.9,1,1,1,1c2.8-3.9,8.7-7.2,8.7-7.2c0,2.5-2,5.7-2,5.7 c3.4-0.2,6.1-2.1,6.1-2.1c-0.2,2.7-2.2,5.3-2.2,5.3c1.7,1,6.5-0.6,6.5-0.6c-2,3.4-2.3,6-2.3,6c2.6,0.1,3.2,1.3,1.8,3.9 c-1.4,2.6-2.6,4.9,1,2.7s4.5,0.3,6.8,2.7s0,4.8,0,4.8c2,0.2,4.5-1,4.5-1c-0.4,1.3-0.7,2-3.4,5.7c-2.6,3.6-5.6,3.7-2.6,5.8 s-6.2,10.7-6.2,10.7s1.1,1.9,2.5,2.7c1.4,1,1.9,1.9-1.3,3.6c-3.2,1.6-3.3,1.7-1.8,4.9c1.7,3.1,1.2,4-0.6,4.4 c-2,0.4-4.7,9.4,0.9,11.2c5.7,1.8,0.9,11.5,0.9,11.5c-0.5-1.2-1.9-1.4-1.9-1.4c0,3.8,1.9,5.5,1.9,5.5c5.5-7.4,8.9-18.5,8.9-18.5 c2.4,0.7,4,2.6,4,2.6c0.6-1,3.5-3.6,3.4-12s5.4-7.1,5.4-7.1c0.2-1.5-0.1-7.3-0.3-12.8c-0.2-5.6-2.3-8.8,4.5-9.9s-1.3-3.5,5.4-9.5 c6.7-6,8.1-13.4,8.1-13.4c-2.4,1.2-7.9,2.1-7.9,2.1c9-16.6,7.1-23.5,7.1-23.5c-3.6,0.5-10.1,8.4-10.1,8.4c0.1-3.3-2-5.7-2-5.7 c-3.7,5-4.4,7.9-4.4,7.9c1.5,0.1,3.4-0.8,3.4-0.8c-0.9,2.9-5.1,9.9-5.1,9.9c5.1,3.2,7.5,7.3,7.5,7.3c-2.8,1.3-5.5,4.9-5.5,4.9 c2.1,0.9,3.7,6.4,3.7,6.4c-5.6,1.1-6.1,5-7.6,8.7s-1.4,6.5-1.1,9.9s1.1,3.7-3.2,11.8c-4.3,7.9-1.5,6.4-4.1,9.8 c-2.6,3.5-5.1,6.4-5.1,6.4c3-9.3,2.7-9.4,5-10.7c2.5-1.3-1-1.7,1.2-3.3c2.3-1.6,1.6-7.9,1.6-7.9c0.9-0.7,2.8-1.2,2.8-1.2 c0.2-1.2-0.2-4.4-0.5-5.8c-0.2-1.4-1.3-3.5,0-4.1c1.3-0.8,1.2-1.8,1.2-4.5c0-2.6,1.1,0.2,1.6-4.6s4.3-5,4.3-5c-0.5-3.3-2-5.8-2-5.8 c0.8-2.5,4.2-5.3,4.2-5.3c-0.9-2.7-6.5-6.2-6.5-6.2c2.1-3.4,2.5-5.6,2.5-5.6c-0.7-0.1-2-0.8-2-0.8c0.2-3.2,3-7.1,3-7.1 c-10.6,1.1-13.6,9.9-13.6,9.9c12.6-3.5,8.8,0.4,6.7,3.3c-2.2,2.7,5.4,4.7,3.1,8.8c-2.2,4.1,1.9,3.3-0.3,7.2 c-2.2,3.9-0.5,2.8-2.4,6.6s0.8,5.3-1,8.1c-1.9,2.8-1.6,2.1-1.6,5.1c0.1,3,0,3.5-3.5,9.5s-5,12.2-5,12.2 c-0.2-11.9,5.6-12.8,6.5-17.5s-1.4-7.7,0.6-8.6c2.1-0.9,1.4-1.2,1.5-4.7c0.1-3.3,0.7-5.6,3-10.5c2.3-4.7-1.8-2.5-0.2-5.9 c1.6-3.4,0.1-3.8-2.1-5.4c-2.2-1.6-1.2-6-1.2-6c-1.8-0.7-5.3,1-5.3,1c-0.6-3.7-3.8-6-3.8-6c1-1.6,3.7-3.8,9.1-5.7 s10.1-6.2,10.1-6.2c-2.3,0.8-5.6,0.7-9.8-2.7c-4.2-3.5-5.7-2.7-8.5-0.2s-3.9,3.4-7.7,1.6c-3.8-1.8-10.6,0.8-12.9,3.2 c-2.4,2.5-7.2,6.2-3.9,1.9c3.2-4.2,3.9-6,1.3-10.7c-2.6-4.8-4.1-1.6-6.2,2c-2.3,3.4-3.8-2.6-7,1.2c-3.4,3.9-2.6,2.7-2.5-1.1 s-6.1-3.2-9.3-0.1c-3.2,3.1-3,2.4-3-0.4s-2.2-3.8-3.2-3.7s-2.6,1.2-0.6-2.1c1.9-3.2,0.1-4.5-1.2-5.5c-1.3-1.2-1.5-0.8,0.5-3.2 s0.6-4-0.9-4.5s-1.4-1.3-0.5-3.6s-0.1-5.9-0.1-5.9s2.5,0.5,2.4,4.2c-0.2,3.7-0.3,3.5,1.7,2.1s0.3,2.1-0.4,5.3s-1.5,2,0.3,6.6 c1.7,4.6,2.6,4.3,4.7,2.7c2.1-1.6,1.6,0.3,0.5,1.4c-1,1.1-3.6,3.8-1.3,4.5s4-2.4,8.4-8.7c4.4-6.3-3.2-5.1-6.2-4.7 c-3.1,0.4-5,2.5-0.8-4c4.1-6.5,4.9-10.1,3.7-10.3c-1.3-0.1-7.4,1.6-2.7-1.1c4.7-2.8,7.5,3.2,7.5,3.2c0.5-1.2,2.5-4.2,3.9-3.6 s-2.7,1.8-2.8,6.3c-0.1,4.3-2.7,1.4-3.4,1.2c-0.6-0.2-4.6-0.3-3.4,4.1c1.3,4.3,6.9,3.1,10.5,1.6c3.7-1.4-2.5,3.9-4,6.1 c-1.5,2.2-3.9,4.3-1.3,7.8c2.6,3.6,5.8-1.3,5.8-1.3c-0.2,2.5,0.2,7.3,5,2.4c4.8-4.8,6.4-3,7.4-1.9s0.3,4.7,3.1,4.8 c2.8-0.1,2.7-6,1.7-8.3c-1.1-2.2,0.3-4.7,3.6-6.2c3.2-1.5,3.4-4,3.3-4.9c-0.1-0.8,0.1-1,1.6-5s1.1-5.2,0.7-6 c-0.5-0.7-0.6-2.8-4.2,2.4c-3.6,5.1-10.3,4.4-10.3,4.4c3.5-3.8,8.2-6,11.4-9.3c3.2-3.3,4.1-5.5,1.1-8.4c-3-2.8-6.6,4.9-6.6,4.9 c5.1,1.3,5.3,1.9-0.4,3.1c-5.7,1.2-10.5,7-10.5,7c0.3,0.6,1.7,5.5-1.5,9.7c-2.9,4-1.7,0.5-1.7,0.5c6.6-12.6-2.7-8.8-2.7-8.8 c0.3-0.6,0,0.5,3.7-6.6c3.6-7.1-2.5-9.3-2.5-9.3c3.4-2.4,12.9-15.2,16.1-20.6c3.2-5.5,2.3-5.8,2.5-8.8c0.2-3.2,4.2-8.4,5.9-11.1 c1.6-2.5,6.7-11.7,8.7-16c2.2-4.3,1.7-6.2,5.3-8c3.6-1.8,13.2-15.6,15-18.3c5.9-9.3,11.8-18.7,17.7-28c4.6-7.1,6.7-12.3,4.8-13 c-2-0.7-9.8,9.3-12.7,16.2c-2.9,6.9-9.6,15.8-12.9,20.5s-13.8,16.9-16.4,19.9c-2.7,3-3,6.2-3.7,8.2s0.3,0.3-5.6,9.2 c-5.9,9-6.6,9.6-9.7,18.2s-8.9,17.2-15.2,23.7c-2,2-3.2,4.2-4,7.1c-0.7,2.8-6.2,8.6-6.9,7.6s1.3-2.7,1.3-2.7 c9.2-11.2,1.4-15.9,1.4-15.9c5.5-2.4,6.9-8.6,9.2-12.8c2.3-4.2,2-9.3-2.1-8.6c-4.1,0.7-6.9,11.1-6.9,11.1c1-1.8,2.3-2.7,3.9-2.5 c-5,7.7-16.9,17.4-17.1,21.3c0,0.5,1.2,1.2,3.3,2.9c2.2,1.7-3,1.9-0.5,3.9c2.4,2-0.4,4.4-1.3,4.5c-0.9,0.1-0.9-3.2,0.2-5.5 c1-2.3-0.7-3.4-0.7-3.4s-1.3-1-3.7-2s-0.7-0.6,2.1-5.6c2.9-5.2-3.8-7.1-3.8-7.1c1.9,9.8-4.9,13.1-4.9,13.1c2.4,3,8.1,4.6,8.1,4.6 c-1.6,4.8-6.1,7.5-9,7.5s4-5.7,2.9-5.6s-4.4-3-5.1-3.2c-0.6-0.3,0.1-2.7,0-9.3c-0.1-6.6,2.9,1.3,2.9,1.3c0.8-0.6,2.3-3.9,3-6.5 s2.2-7.2,0.6-9.3c-1.6-2.1-2.1-0.2-4.9-0.4c-2.9-0.2,3.8-6.9,6.1-12.3c2.4-5.4-3.1-6.9-5.5-6.5c-2.5,0.3-7.7,5.8-8.1,9.5 c-0.3,3.7-1,6.4,1.2,4.7c2.2-1.7,6.6-8.6,6.2-6.9c-0.4,1.7-0.4,2.7-3.2,6.6s-2.8,1.9-5,4c-2.3,2-1.9,4.6-0.5,4.7 c1.3,0,1.6-0.5,1.5,1.7s0.5,2.8,3.6,0.5c3-2.3,1.9-1.4,1.7,3.1s-1.7,2.7-1.8,1.2s-1.2-1.5-2.8-1.2s-2.3,0.2-2.6-1.7 c-0.2-2-1.1-2-2-2.3c-0.9-0.4-0.2-1.5-0.5-4.1s-0.7-3.9,0.5-5.3s1.6-4,1.6-5.3c-0.1-1.3-1.1-0.8,1.7-4c6.3-7,13.8-15.2,14.9-24.6 c1.1-9.2-6.1,0.3-12.3,4.7c-6.2,4.4-7,6.6-11.2,12.9c-4.3,6.3,1,2.6,5.7,4.1s-5.2,1.2-11.1,2.7c-5.8,1.6,3.1-6.2,4.9-9.5 c1.8-3.3,5.5-8,15.1-15.2s13-16.6,15.1-22c2.1-5.6,0.2-4.3-1.2-3s-6.8,7.7-8.9,13.4c-2,5.7-7.2,7.6-14.3,12.1 c-7,4.4-9.8-0.7-9.8-0.7C980.2,456,980.2,456.3,980.2,456.5z" fill="#5A3719"/>
    <path d="M1128.7,478.6c-0.9,1.7-0.6,0.6-1.9-0.3c-0.2,0.2-0.4,0.7-0.7,1.1c-1.4,1.8-2.1,2.6-2.5,3.1 c0.4,0.7,0.7,1.7-0.2,2.7c-1.7,1.8-3.3,5.8-6.2,5.7c-2.5,4.2-4.3,7.8-5.8,8.3c0.3,1.1,0.2,2.7-1.8,4.7c-3.6,3.5-3.1,4-5.3,2.2 c0,0-3.9,9.2-6.1,11.5c0,0-1,0.2-1.8-1.1c0,0-2.5,5.4-3.8,6.6c0,0-1.6-2-3.1-2.4c0,0-3.1,7-5.7,9.6c0,0-0.7-2.1-2.4-3.1 c0,0-0.8,8.2-6.2,14.3c0,0,0.3-2.2-2.4-4.3c0,0-6.7,11-9.4,12.6c-2.7,1.6-0.2-1.9,0.2-3.2c0.3-1.2,2-5.6-1.2-6.5s-2.7,1.8-3.4,2.4 c-0.7,0.7-0.7-0.8-2.9,0.2c-2.2,1-1.9,2.4-2.8,3.3c-0.9,0.7-4.8,0-4.5,3.9c0.2,3.9,2,6.4-1.3,9.4s1.2,1.6,5.6-0.3 c0,0,1.9-0.9,5.1,1.5s6.3-4.8,2.8-5.8s0.1-3.7,3.2-0.3c3.2,3.4,4.4,0.9,5.6-0.7c1.1-1.6,2.6-2.8,0.4-4.7s1.4-1.7,3.1-0.3 c1.6,1.2,1,3.2,0.7,3.8c-0.2,0.6-0.4,6.1,2.8,0.1c3.2-6,4.8-11.6,4.7-14.2c0,0,1.8,1.3,2,4.4c0.2,3.3,2.7-2.6,3.5-4.5 c0.8-2.1,2.3-7,2.1-10.2c0,0,2.2,4.8,5.4-1.6c3.2-6.4,1.9-2.5,5.7-5.4c3.9-2.9,8.8-9.1,11.5-15.2c2.7-6,2.8-2.6,6.3-5.1 s10.5-12.7,11.1-17.1C1129.8,479.4,1129.7,476.8,1128.7,478.6z" fill="#7B3C20"/>
    <path d="M1119.8,486.6c4.3-6.3,2.5-3,3.8-4.3c0.4-0.3,1.2-1.2,2.5-3.1c0.3-0.4,0.5-0.7,0.7-1.1 c2.8-4.7-3.1-4.5-3.1-4.5c-0.9,6.8-7.5,6-7.5,6c0.5,3.8-0.8,7.1-0.8,7.1c-1-1.6-5-2.9-5-2.9c-0.3,2.9-2.2,6.2-2.2,6.2 c-1.4-3.2-5.3-5.2-5.3-5.2c0.3,1.4-0.5,4.1-0.5,4.1c-1.5-1.7-6-2.4-6-2.4c0.2,4.1-1.1,6.6-1.1,6.6c-6.4-8.1-10.6-7-10.6-7 c0.5,1.8,0.2,1.4,3.5,7.3c3.3,5.8-9.5,1.5-10.6,1.1c-1-0.4-4.9,5.6-4.4,5.3c0.5-0.3,4.2-3.1,7.9,4.2c3.7,7.1-12.1,16.6-12.1,16.6 c13.4,7.6-4.3,16.3-4.3,16.3c2.8,1.8,2,7.1,2,7.1c4.3-5.2,6.3-10.9,6.3-10.9c2.5,1,3.3,3.4,3.3,3.4c3.9-5.2,4.2-13.4,4.2-13.4 c2,0.5,3.9,2.9,3.9,2.9c2-2.5,5.2-9.6,5.2-9.6c2.1,1.1,3.3,3.5,3.3,3.5c1.6-3,2.9-6.8,2.9-6.8c0.8,1.2,2.1,1.8,2.1,1.8 s2.3-4.5,3.7-8.6c1.4-4.1,1.4-5.8,3.6-3s3.9-4.9,5.5-4.6c0.2,0.1,0.4,0,0.5,0c1.6-0.5,3.2-4.1,5.8-8.3 C1118,489.4,1118.8,488,1119.8,486.6z" fill="#5A3719"/>
    <path d="M1064,530.6c-4.9,0.9-6.6,3.5-6.6,3.5s-2.2,3.1-0.7,5.6c1.3,2.5,1.4-0.8,3.2-1.6 c1.8-0.7,23.5-11.9,3.8-16.6c0,0,0.8-1.3,4.2-2.7s15.7-9.9,10-15.5c-5.8-5.6-10.5,5.1-5.7-4.6c3.9-7.8,0.7-10.3,0.7-10.3 s-11.4,15.1-14,18c-2.5,2.9-6.2,8-1.8,9.2c4.3,1.2,7.2-9.1,7.6-7.1s-8.7,12.3-7.3,15.6c1.3,3.5,1,6.6,3.2,5.4 C1062.8,528.5,1068.9,529.5,1064,530.6z M1065.2,514.7c3.1-4.4,6.6-7.9,7.5-5.9c1,1.9-4.3,5.1-6.9,6.9S1065.2,514.7,1065.2,514.7z" fill="#5A3719"/>
    <path d="M1065.8,515.7c2.7-1.8,7.9-5,6.9-6.9s-4.5,1.7-7.5,5.9C1065.2,514.7,1063.2,517.5,1065.8,515.7z"/>
    <path d="M1100.1,468.5c0,0-7.9,2.5-16.5,4.9s-6.3-1.2-8.4,10.8c-2.2,12,11,10,11,10c-2.1-3.1-5.3-9.6-5.3-9.6 c6.5-3,13.8,4.1,13.8,4.1c0.5-1.5,0-4.8,0-4.8c2.7-0.8,6.1,1.3,6.1,1.3c0.6-1,1.2-3.5,1.2-3.5c3.2,0.5,6.1,4.1,6.1,4.1 c0.9-1.6,1.3-4.1,1.3-4.1c2.8,0.2,5.2,1.9,5.2,1.9c0.7-3.1,0.3-5.9,0.3-5.9c6.6,2,6.7-4.2,6.7-4.2c-1.3-0.2-3.3-2.5-7.5-5.5 C1110.3,464.7,1100.1,468.5,1100.1,468.5z" fill="#7B3C20"/>
    <path d="M1073.3,453.4c-2.8,2.2-2.4,1.1-4.2,5.1c-1.8,3.9-11.7,21.7-13.6,24.3c-1.9,2.7-2.4,4.3-2.5,8.8 c-4,8.5-9.9,16.1-14.9,24c0,0-1.6,2.3,0,3.6c1.6,1.4,6.9-5.6,7.5-6.7c0.7-1,2.6-1.2,0,2.3c-2.6,3.7-5.3,7.5-7,11.3 c0,0,8.8-5.5,14.5-14.7s-0.3-2.6,9.5-12.4c9.7-9.8,14.8-23.4,9.6-20.8s-9.9,13.4-14,18c-4,4.6-6.4,5.6-5.7,3.3 c0.7-2.3,3.6-2.1,9.2-10.5s4.3-7.8,4.4-10.3s-2.1-8.2,6.3-17.5c13.3-14.9,29.4-32.1,36.8-51c0,0-7.7,4-17.7,18.8 C1085.8,437.3,1080.3,446.1,1073.3,453.4z" fill="#5A3719"/>
    <path d="M1088.9,449.2c-4.1,2-12.3,10.1-16.9,15.3c-4.5,5-5.1,11.7-3.2,12.6c1.9,1,3.8-1,3.8-1 c3.6-3.4,2.8-7.7,2.8-7.7C1088.3,457.9,1088.9,449.2,1088.9,449.2z" fill="#5A3719"/>
    <path d="M1099.2,429.9c-1.4,1.8-11.8,17-14.5,19.8c0,0,5.8-2.5,7.8-6.1c-2.5,9.9-7,19.5-15.3,25.7c0,0,0.4,1.9,0,4 c16.7-2.8,30-16,36.7-31.1c-8.7,4.4-17.4,9.5-24,16.8c0,0,4.3-9.7,17.2-21.1c8.3-7.5,16.4-16.6,19.4-27.6 c-7.3,6.6-15.1,13.4-24.2,17.4C1102.2,427.7,1100.7,428.1,1099.2,429.9z" fill="#AA5323"/>
    <path d="M1046.4,477c0,0-9.3,0.8-9,9.9c0.3,9.2-6,14-6.5,14.7c0,0-3.1,4-1.9,5.6c1.4,1.6,3.6,1.6,8.4-5.8 C1041.6,495.1,1051.5,483.5,1046.4,477z" fill="#5A3719"/>
    <path d="M1026.7,476.5c-2.8-4.3-9.7,6.3-8.3,7.2c1.4,0.8,4.1-1.6,3.2,0.5c-0.9,2.1-11.3,14.3-12.5,15.3 c0,0,6.3,4.9,3.9,9.9C1018.5,501.1,1031,483.1,1026.7,476.5z" fill="#5A3719"/>
    <path d="M1003.9,492c0,0,4.3,1.5,4.5,4.2c0.2,2.8,12.7-15.7,9.4-22.1c-1.5-2.9-8.5-3.3-8.8,3s6.3-1.5,4,3.3 C1010,486.8,1004.8,490.9,1003.9,492z" fill="#5A3719"/>
    <path d="M1103.3,386.8c-1.8,1.7-4.2,2.8-5.6,5.4c-1.3,2.6-1.1,5.2-5.8,12.7c-9.8,15.4-21.1,30.1-31.1,45.1 c-2.9,4.4-12.3,20.9-12.3,20.9s-2.6,3.5-0.3,5c2.3,1.5,3.9-1.8,5.1-3.9c1.1-2.1,7-10.2,8.3-14.8c1.3-4.6,3.3-6.6,5.5-9.3 c9.3-11,18.9-22,26.1-34.5c9.2-16,5.3-11.5,14.9-22.9c7.7-9.2,15.3-19.7,18-31.6c0,0-4.5,4-8.4,9.3 C1113.9,373.2,1105.1,384.9,1103.3,386.8z" fill="#5A3719"/>
    <path d="M1056.8,437.6c-3.8,4.7-6.9,12.2-13.3,21.7s-12.9,17.8-13.9,23.9c0,0,2.6-2.7,7.5-3.2 c13.3-9.1,20.5-29,29.7-41.7c8.5-11.8,18.2-24.2,25.2-36.7c2.3-4.1,2.8-8.5,4.7-11.2c2.1-2.8,3.9-3,8.7-9.1 c10-12.6,26.3-30.7,26.2-47.8c-14.2,18.7-29.1,37.2-41.8,56.9C1079.9,406.8,1068.6,422.6,1056.8,437.6z" fill="#AA5323"/>
    <path d="M1101.4,357.8c-3.6,5.6-11.6,17.1-12.9,20.3c-5.7,10.2-12.4,20.1-19.3,29.3c-8.3,11-17.7,21.5-25.4,33.1 c-7,11-14.2,21.8-21.6,32.5c0,0,6.3-2,7.1,2.6c6-7.5,12.3-15.5,16.5-23.8c3.2-6.3-1-2.2,6.6-12c12.8-16.3,25.8-33.3,36.3-50.7 c3.6-6,10.4-15.2,15.9-22.6c8.8-12,26.4-28.8,24.9-45.2c-6.5,9.2-13,18.4-19.6,27.4C1106.5,353.5,1105.1,352.1,1101.4,357.8z" fill="#AA5323"/>
    <path d="M1018.9,472.6c9.1-11,18.8-22.4,25.3-35.2c2.3-6.7,6-7.5,14.9-19.9c6.6-9.2,14.1-17.8,20.3-27.2 c5.2-7.9,9.6-16.8,15-24.4c6-8.4,13.6-18.4,13.1-29.5c0,0-8.7,10.8-14.3,22.2c-5.7,11.7-5.2,3.1-10.9,13c-6.3,11-13.2,21.8-21.9,31 c-7.3,7.5-2.9,5.8-8.2,12.5c-5.3,6.7-5,5.7-6.9,6.8c-2,1.1-5,4-7,8s-7.3,10-13.1,16.2c-7.9,8.4-16.8,16.9-22.9,26.7 c0,0,3.3-0.4,4.3,1.5C1006.6,474.3,1012.5,465.5,1018.9,472.6z" fill="#AA5323"/>
    <path d="M1010.4,445.9c-2.2,3.1-1,7.1-1,7.1c1,4.8-0.3,7.1-0.3,7.1c8.4-8.9,17.7-17.3,25.5-26.5 c3-3.6,3.9-9.3,8.4-11.9c4.6-2.6,8.4-7.7,9.6-9.5c1.3-1.8,2.2-5.4,4.4-7.9c2.3-2.5,10.6-12.3,13.2-15.8c2.7-3.5,9.6-15.1,11.7-19 c2.2-3.9,0.5-3.5-0.6-4.1c-1-0.7-2.3,1.8-7.3,8.8c-7.3,10.3-15.5,20.4-23.9,29.7c-2,2.3-6.8,8.9-9.6,13.1 c-2.8,4.2-12.4,12.8-14.9,15.6c-2.5,2.7-7.8,7.2-8.1,6.6s0.3-1.6,12-12.5c11.7-11.1,11.4-12.2,13.9-16.2s9.9-11.5,12.8-14.7 s12.4-15.9,14.2-18.2c1.8-2.3,12-16.8,14.8-21.3c2.7-4.6,1.5-9.6,1.5-9.6c-2.5,4-8.6,12.5-11.1,16.4c-7.1,10.2-14.9,19.9-22.7,29.6 c-8.6,10.3-18.5,19.9-28.8,28.3c-6.3,5.2-5.9,4.2-6.6,9.1C1016.6,434.6,1012.6,442.8,1010.4,445.9z" fill="#AA5323"/>
    <path d="M1083.2,363.6c0.8,1.1,3.8,3.6,7.5-3.5c5.1-9.3,10.7-18.6,16.9-27.2c3.2-4,4.8-7.6,4.7-11.7 c-10.4,12.6-19.7,25.9-28.5,39.6C1083.7,360.8,1082.6,362.8,1083.2,363.6z" fill="#AA5323"/>
    <path d="M1104.7,352.2c4-3.1,5.8-5.7,6.9-7.6c1-1.7,10-14.2,14.6-20.5s2.5-9.2,2.5-9.2c-1.2,2.6-10,14.4-15.8,22.3 C1107.1,345.2,1104.7,352.2,1104.7,352.2z" fill="#AA5323"/>
    <path d="M989.3,455.1c1.5-1.1,4.4-2.4,4.8-2.8c0.4-0.2,6.3-3.5,7.8-7.8s5.4-9.6,8.4-13.4c3.1-3.9,4.1-7.5,3.7-9.9 c-9.2,8.1-18.6,15.8-27.9,23.7c0,0-6.8,6-4.4,9.3C984.1,457.5,987.7,456,989.3,455.1z" fill="#7B3C20"/>
    <path d="M961.8,519c9.8,0.9,19.8,4.3,25.4,12.7c1.1,1.7,4.7,8,1.2,19.5c0,0,3.5,2,3.8-3.2s0.5-4,1.3-3.3 c0.8,0.8,1.8,0.8,1.4-3.1c-0.3-3.9-1.6-12.6-3.3-15.5c-1.6-3,0.2-1.7,1.2-1.1c1.1,0.6,4.8,4.8,2.5-3.6c-2.3-8.2-2.8-4-2.8-3.5 c-0.1,0.5-0.5,2.5-5.4-2.5c-4.8-5-9.4-7.3-12.7-8.6s-1-1.4,1-2.5s4.7-2,5.5-5.4c0,0-2,0.8-5.5-0.8c-3.6-1.6-10.9-1.5-16.9,5.2 c0,0,2-10.1-3.6-9.3c-5.5,0.7-9.4,0.6-15.4,7.3c0,0-0.3-10,5.3-15.4s4.9-2.1,7.9-3.5s3.3-5.9,2.1-7.2c0,0,7.3,1.6,19-13.7 c0,0-6.3,12.6-14.1,15.5c0,0-1.2,6.5-8.4,8.2s-7.1,7.6-7,9.1c0,0,5-4.4,11.9-1.8c0,0-0.3-2.5-1.4-3.6c0,0,8.3-3.5,10.1-9 c1.8-5.4,2.1-4.4,3.8-6c1.5-1.6,11-13.6,11.4-17.4c0-0.3,0-0.5-0.1-0.7c-1.2-2.7-1.6-6.3-2.4-7.7c0,0-2.2,4.9-13,13.2 c-12.7,9-24.7,17.6-32.5,31.5c-5.5,9.9-11.4,26.2,3,31.5C935.1,524.3,943.2,517.6,961.8,519z" fill="#7B3C20"/>
    <path d="M968.8,543.4c0.2-2.2-1-1.4-2-0.9s-3,0.5-0.7-2.1c2.5-2.6,4.2,0.1,4.2,0.1c1.7-2.1,1.9-5.1,2.4-7.7 c0.4-2.5,0.8-5.7,4.1-4.7c3.3,0.8-0.3,7.1-0.3,7.1s1.8,0.5,5-3.5c3.1-4.2-5-7.1-8.3-8.5c-3.4-1.4-8.5-3.9-26.1-1.7 c-15.3,2.2-22.1,19.2-24.1,32.7c0,0-0.6,4.3,0.6,11.6c1.4,8.6,8.6,11.3,15.1,3.4c6.4-7.8,11-10.6,15.9-11.9s4.7-1.2,8.7-4.3 C967.2,549.6,968.5,545.8,968.8,543.4z M959.8,549.1c0,0,2.4-10-3.5-12.1c0,0-4.9,4.5-8.8,4.7c0,0,4.9,6.3-1,11.4c0,0,2-6-1.5-8.7 c0,0-10.7,2.8-13.8-1.8c0,0,11.8-0.9,18.7-5c7.1-4.2,5-6.9,2.5-7.3c-2.4-0.6-7,1.2-7.4,4.3c0,0-1.4-3.3,0.4-5.6s4.5-2.7,7.1-1.8 c2.5,0.9,4.8,2.5,12.8-4c0,0,4.6,1.2,4.7,5.9c0.1,4.6-0.3,6.5-0.7,7.1c-0.3,0.7-1,2-1.9,2.1c-1-0.1-2.1-0.4-3.4,2.8 C962.6,544.1,961.9,546.9,959.8,549.1z" fill="#5A3719"/>
    <path d="M967.2,538.1c1,0.1,1.6-1.2,1.9-2.1c0.3-0.7,0.8-2.7,0.7-7.1c-0.1-4.6-4.7-5.9-4.7-5.9c-8,6.5-10.4,5.1-12.8,4 c-2.5-0.9-5.3-0.5-7.1,1.8s-0.4,5.6-0.4,5.6c0.5-3.1,5-4.9,7.4-4.3c2.4,0.6,4.5,3.2-2.5,7.3c-7.1,4.2-18.7,5-18.7,5 c3.2,4.5,13.8,1.8,13.8,1.8c3.5,2.7,1.5,8.7,1.5,8.7c5.9-4.9,1-11.4,1-11.4c3.8-0.3,8.8-4.7,8.8-4.7c6,2.1,3.5,12.1,3.5,12.1 c2.1-2.2,2.8-4.9,4-8.3C965,537.7,966.3,538,967.2,538.1z M963.5,527.5c2.8-2.6,4.4,2.6,4.4,3.7c0,1.2-1.6,5-2.1,2.4 c-0.6-2.6-3.2-3.6-3.2-3.6C962.1,529.9,960.6,530,963.5,527.5z M957.2,534.7c0,0-2.3-3.5,0.7-4c3-0.4,6.9,2.5,6.1,5.2 C963.3,538.6,959.8,538.6,957.2,534.7z"/>
    <path d="M958,530.6c-3,0.4-0.7,4-0.7,4c2.6,3.9,6.2,3.9,6.8,1.2C964.9,533.1,961,530.1,958,530.6z" fill="#5A3719"/>
    <path d="M1120.5,454.9c-1.5,2.8-1.7,8.2,3.8,6.8c5.5-1.5,5.4,1.7,6,6.1s4.7,1.6,6.7-0.7c2-2.3,3.9-7.6,5.8-6 c1.8,1.6-2.6,6.1-5.4,8.6c-2.8,2.4-4.4,2.3-4.5,6.3c-0.1,3.4,1.7,0.2,2.2-1c0-0.2,0.1-0.2,0.2-0.4c0,0,1.8,4.1,6.5-4 s3.1-1.5,15-12.3c11.9-10.9,9-10.5,13.7-16.4c4.8-5.7,9.3-7.9,5.9-11.3s-3.7-3.5-7.9,3.4c-5.5,9-13.2,18.2-22.7,23.4 c8.1-8.7,25.3-26.9,24-30c-0.4-0.9-5.7-2.3-7.6-2.2c-1.9,0.1-2.4-0.3-6.7,4.4c-4.2,4.7-5,5.7-6.2,6.3c-1.2,0.6-4.7,3.2-9.8,9.1 c-5,5.9-7.7,8.6-10.9,12.9c0,0,2.3-8,12.5-16.8c10.3-8.8,15.7-15.6,14.5-15.9s-3.8,0.1-5.7,1.3c-1.9,1.3-1.4,0.4-7.7,6.7 c-6.3,6.3-3.6,4.4-8.6,7.9s-7.1,6.1-9.5,8.6c0,0,1-2.5,4.4-5.8C1123.2,447.8,1122,452.1,1120.5,454.9z" fill="#FFFFFF"/>
    <path d="M1155.1,463.8c4.3-5.1,6.9-7.7,9.4-9.2c2.4-1.5,8.6-8,10.1-10s2.7-1,2.7-1l0,0c-0.4-0.5-0.7-1-0.2-2 c0.9-2,1.7-7.3-2-2.8c-3.7,4.4-11,15.2-14.3,17.7s-5.9,5.1-10.3,8.4c-4.4,3.1-7.1,5.7-11.8,11.5c0.6-0.7,3.8-3.8,3.8-3.8 C1143.6,478.2,1150.8,468.7,1155.1,463.8z" fill="#FFFFFF"/>
    <path d="M1136,478.7c-1.2,0.3-1.3-2.5-1.3-2.5S1134.8,479.2,1136,478.7z" fill="#FFFFFF"/>
    <path d="M1177.5,443.8l0.1,0.1C1177.6,443.8,1177.5,443.8,1177.5,443.8z" fill="#FFFFFF"/>
    <path d="M1128.7,443.2c0,0.2,0.1,0.3,0.1,0.3C1128.7,443.3,1128.7,443.2,1128.7,443.2z" fill="#FFFFFF"/>
    <path d="M1178.4,444.4l0.3,0.3C1178.8,444.7,1178.4,444.4,1178.4,444.4z" fill="#FFFFFF"/>
    <path d="M1178,444.1l0.2,0.2L1178,444.1z" fill="#FFFFFF"/>
    <path d="M962.4,530.1c0,0,2.6,1,3.2,3.6c0.6,2.6,2.3-1.3,2.1-2.4c-0.1-1.1-1.7-6.3-4.4-3.7 C960.6,530,962.1,529.9,962.4,530.1z" fill="#5A3719"/>
    <path d="M955.2,582.5c0,0,5.6-4,10.1-3.7c0,0-1.8-9.5,1.5-8c3.2,1.5,2.4,0.9,2.9,0.8c0,0,0.2-6.3-0.7-8.7 c0,0,3.3,1,6.6,0.8c0,0-3.1-8.9,0.3-15.2c0,0,1.9,5.8,6.1,7c0,0,0-2.5,0-5.3c0,0,2.5-0.7,4.4,0.8s3.5-16.6-2.2-20.1 c0,0-1.4,3.4-6.9,5.6c-5.4,2.2-5.5,3.7-7.7,9.9s-4.3,6.4-8.9,11c-4.7,4.5-7.6,13.5-7.8,14.3C953.2,571.7,955.6,575.9,955.2,582.5z" fill="#7B3C20"/>
    <path d="M1113.7,464.9c4.6,3.2,6.9,6.7,10.4,7c3.4,0.3,7,0.8,7,6.2c-0.1,5.3-0.7,7.7-2.5,12 c-1.9,4.3,1.1,4.9,3.5,1.9c2.4-3.1,4.6-5,6.3-7.2c1.6-2.1,4.4-3,1.9-0.1s-5.1,5.1-1.9,4.1c9.2-3.1,19.8-6.7,27-12.3 c4.1-3.3,9.8-6.9,10.2-15.3c0,0,0.2-3.7,1.8-5.9c1.6-2.2,2.7-6.2,0.3-2.8c-2.4,3.4-4.1,5.5-4.6,4.8c-0.4-0.5-0.6-0.9,1.1-2.8 s2.7-1.2,4.2-5.3c1.6-4.2,1.5-3.5,0.6-4.4c-0.1-0.1-0.2-0.2-0.3-0.3c-0.1,0-0.1-0.1-0.2-0.1c-0.1-0.1-0.2-0.1-0.2-0.2 c-0.1-0.1-0.2-0.2-0.3-0.2l-0.1-0.1c-0.1-0.1-0.1-0.1-0.2-0.2l0,0c0,0-1.2-1.1-2.7,1c-1.5,2-7.7,8.6-10.1,10 c-2.4,1.5-5.1,4.1-9.4,9.2s-11.5,14.6-12.7,8.8c0,0-3.1,2.9-3.8,3.8c-1.2,1.4-2,2.1-2.7,2.3c-1.3,0.5-1.5-0.9-1.3-2.5 c0.1-0.7,0.2-1.2,0.4-1.7c0,0-0.1,0.2-0.2,0.4c-0.5,1-2.3,4.4-2.2,1c0.1-4,1.7-3.9,4.5-6.3s7.3-7,5.4-8.6c-1.8-1.6-3.7,3.8-5.8,6 s-6,4.9-6.7,0.7c-0.6-4.2-0.7-7.5-6-6.1c-5.4,1.4-5.3-3.9-3.8-6.8c1.5-2.8,2.7-7.1,7.9-10.5c0.7-0.4,0.6-0.7,0.5-1 c0-0.2-0.1-0.3-0.1-0.3c-0.1-0.5,0.1-1,2.5-2.1c0.4-0.2,0.8-0.2,1.4-0.5c6.2-5.2,13.1-11.7,12.1-11.6c-1.1,0.1-7.2,1.5-13.3,8.3 c-6.1,6.8-3.4,4.2-5.5,5.7c-2.2,1.5-6.7,7.7-8.2,10c-1.5,2.5-3.7,4.6-3.7,4.6S1109,461.5,1113.7,464.9z M1157.4,475.6 c-2.2,1.4-8,5.3-9.5,5.9s-0.2-0.4-0.2-0.4s9.7-8.9,11.6-7.6C1161.2,474.7,1159.6,474.4,1157.4,475.6z M1163.6,470.9 c-1,0.3-2-0.3-0.2-1.4c0,0,1.9-1.3,2.1-0.4S1164.7,470.6,1163.6,470.9z M1162.8,464.1c-1.4,1.3-13.8,12.7-16.7,15.8 c-2.9,3.3-2.3,1.2-0.3-0.9c0,0,8.6-9.6,16.7-15.8C1170.5,457,1164.1,463,1162.8,464.1z M1132.9,484.5c0.7-1.4-0.5-3.6-0.5-3.6 c3,1.4,0.5,3.6,3.4,2s10.4-7.6,19.4-17.6s11.7-10.2,11.7-10.2c-3.5,1.3-13.7,13.2-18.1,17.6c-4.3,4.4-11.1,10.2-14,11.8 c-2.9,1.6-3.4,4.9-3.4,4.9C1131,487.5,1132.1,486,1132.9,484.5z M1126.1,464.7c0.5-0.9,0.9-0.8,1.7-0.5s0.7,0.7,0.5,1 c-0.2,0.2-0.9,1.7-1.7,1.8c-0.7,0.3-0.8-0.5-0.8-0.5C1125.3,465.9,1125.5,465.5,1126.1,464.7z" fill="#999999"/>
    <path d="M1162.4,463.3c-8.1,6.2-16.7,15.8-16.7,15.8c-1.9,2.1-2.6,4.2,0.3,0.9c2.9-3.3,15.4-14.6,16.7-15.8 C1164.1,463,1170.5,457,1162.4,463.3z"/>
    <path d="M1159.3,473.3c-1.9-1.4-11.6,7.6-11.6,7.6s-1.4,1.1,0.2,0.4c1.6-0.6,7.5-4.5,9.5-5.9 C1159.6,474.4,1161.2,474.7,1159.3,473.3z"/>
    <path d="M1163.5,469.3c-1.8,1.2-0.9,1.7,0.2,1.4c1-0.3,2.1-0.9,1.9-1.8C1165.3,468,1163.5,469.3,1163.5,469.3z"/>
    <path d="M940.5,581l0.2-0.5L940.5,581z" fill="#FFFFFF"/>
    <path d="M941.1,579.7c0-0.2,0.1-0.2,0.1-0.3C941.2,579.4,941.2,579.5,941.1,579.7z" fill="#FFFFFF"/>
    <path d="M939.8,582.4c0,0,0.2-0.3,0.2-0.5C939.9,582,939.8,582.4,939.8,582.4z" fill="#FFFFFF"/>
    <path d="M975.7,601.9c0.3,0,0.6,0,0.9-0.1C976.3,601.7,975.9,601.8,975.7,601.9z" fill="#FFFFFF"/>
    <path d="M974.6,614.6l-1,0.6L974.6,614.6z" fill="#FFFFFF"/>
    <path d="M907.8,631.7c0.2-0.5,0.5-1.1,0.7-1.6C908.1,630.6,907.9,631.1,907.8,631.7z" fill="#FFFFFF"/>
    <path d="M975.6,614.2c-0.3,0.2-0.9,0.4-0.9,0.4S975.3,614.2,975.6,614.2z" fill="#FFFFFF"/>
    <path d="M906.7,635.4c0.1-0.3,0.2-0.8,0.2-1.2C906.8,634.5,906.8,634.9,906.7,635.4z" fill="#FFFFFF"/>
    <path d="M907.2,633.6l0.5-1.3L907.2,633.6z" fill="#FFFFFF"/>
    <path d="M906.3,637.2c0.1-0.3,0.2-1.2,0.2-1.2S906.3,636.8,906.3,637.2z" fill="#FFFFFF"/>
    <path d="M915.4,637.3c0,0-1.6,1.8-2.2,2.6C913.8,639.1,915.4,637.3,915.4,637.3z" fill="#FFFFFF"/>
    <path d="M912.1,641.4c-0.2,0.3-0.5,0.7-0.7,1.1C911.5,642,911.7,641.7,912.1,641.4z" fill="#FFFFFF"/>
    <path d="M973.6,615.1c-0.3,0.2-1.1,0.6-1.1,0.6S973.2,615.3,973.6,615.1z" fill="#FFFFFF"/>
    <path d="M953.6,585L953.6,585c0.5-7.6-2.2-11.5-2.2-11.5l0,0C951.4,573.5,954.1,577.3,953.6,585z" fill="#FFFFFF"/>
    <path d="M977.7,613.4c0,0-0.2,0-0.4,0.2C977.4,613.4,977.7,613.4,977.7,613.4z" fill="#FFFFFF"/>
    <path d="M963.7,580.7c0,0,1-0.2,1.5-0.2C964.7,580.6,963.7,580.7,963.7,580.7z" fill="#FFFFFF"/>
    <path d="M978.1,613.2c0,0-0.1,0-0.2,0H978.1z" fill="#FFFFFF"/>
    <path d="M960.3,613.3c0,0,6.6-5.6,11.6-7.7c0,0-2.2-4.2-5.9,0c0,0-1.8-1.7-2.8-4.2c-1.7-0.6-3.5-0.7-3.5-0.7 c0.7,3.9,0,10.4,0,10.4c-1.5-2.1-6.1-3.4-6.1-3.4c-0.3,2.5-2.2,4.4-2.2,4.4c-0.9-3.6-3.6-6-3.6-6c-1.3,2.8-4.7,6.2-4.7,6.2 c-1.3-2.5-5.1-6.7-5.1-6.7c2.2,0.1,5.5,3.2,5.5,3.2c1.3-1.8,4.8-6.4,4.8-6.4c1,3.3,3.2,5.7,3.2,5.7c0.6-0.5,1.5-2.7,1.5-2.7 c3.6,1,5.4,2.1,5.4,2.1c0.1-3.1-0.1-9.6-0.1-9.6c1.1,1.1,3.8,1,4.2,1c-0.3-2.1,0.1-4.5,2.2-6.7c0,0-4.1-1.1-6.8,1.8 c0,0,0.1-4.9,3.2-7.2c0,0-8-1.5-10.1,7c0,0-1.5-3.4-0.8-7.4c0,0-5,4.1-7.2,8.7c0,0-0.7-8.7-3.9-11.8c0-0.2,0.1-0.2,0.1-0.3 c-8.5,15.4-18.8,30.1-29.3,44.1c-0.6,0.8-1.1,1.6-1.5,2.6c0.2,8.7,8.6,5.6,8.6,5.6c-0.5,0.5-1.5,1.5-1.5,1.5s0.9-1,1.5-1.5 c4.5-4.6,5.3-8.2,6.7-12.8c1.2-4.6,3.4-6.3,3.4-6.3c-0.1,0.5,0.6,0.3-2,5.4c-2.7,5.3,4.2,2.8,3.4,11.7c-0.8,8.7-10.3,7-12.6,6.9 c-2.3-0.2-4.9,5.4-4.9,5.4c3.7-0.6,14.9-0.9,14.9-0.9c2.5-3.8,6.1-4.8,9.2-3.3c3.1,1.5,2.1,5.9,2.1,5.9c4.1,0.3,8-5.7,10.1-8.7 s7.6-9,9.8-11.8c2.3-2.9,2.5-5.7,2.5-5.7c0,3.3,0.8,3.8,0.8,3.8c4-4.5,8.3-7.5,11.7-9.3c-0.2,0.2-0.6,0.4-0.8,0.4 C971.5,616.2,968.7,612.5,960.3,613.3z" fill="#FFFFFF"/>
    <path d="M961.1,581.4c0.3-0.2,1-0.2,1-0.2S961.3,581.3,961.1,581.4z" fill="#FFFFFF"/>
    <path d="M966.2,610.8L966.2,610.8c0,0,10-0.7,12,2.4l0,0C976.2,610,966.2,610.8,966.2,610.8z" fill="#FFFFFF"/>
    <path d="M978.2,613.2L978.2,613.2L978.2,613.2z" fill="#FFFFFF"/>
    <path d="M977.2,613.6c0,0-0.3,0.2-0.6,0.2C976.7,613.6,977.2,613.6,977.2,613.6z" fill="#FFFFFF"/>
    <path d="M912.1,641.4c0.2-0.3,0.6-0.8,0.9-1.1C912.6,640.6,912.3,640.9,912.1,641.4z" fill="#FFFFFF"/>
    <path d="M964,588.6c0.1-3,3.2-8.4,3.2-8.4l0,0C967.2,580.3,964.1,585.6,964,588.6L964,588.6z" fill="#FFFFFF"/>
    <path d="M976.5,613.8c0,0-0.4,0.2-0.8,0.4C975.9,614,976.5,613.8,976.5,613.8z" fill="#FFFFFF"/>
    <path d="M970.1,601.8c1.9,0.4,3.7,0.3,5.3,0.2C973.8,602.1,971.9,602.2,970.1,601.8c-4.4-0.9,11-14.6,11-14.6 c-1.7-0.2-5.8-0.1-5.8-0.1s4.2-0.1,5.8,0.1C981.2,587.2,965.7,600.9,970.1,601.8z" fill="#FFFFFF"/>
    <path d="M978.9,601.2L978.9,601.2l-11.3,9.3L978.9,601.2z" fill="#FFFFFF"/>
    <path d="M944.7,586.4L944.7,586.4c-0.1-5.3-3-8-3-8l0,0C941.6,578.4,944.6,581.1,944.7,586.4z" fill="#FFFFFF"/>
    <path d="M906.2,637.7c-0.9,4.9-0.7,9.4-0.7,9.4c1.8-0.5,3.9-0.9,3.9-0.9c0.5-1.1,1-2.3,1.7-3.4 c0,0.2-0.1,0.2-0.1,0.3C911.6,638.7,906.3,637.7,906.2,637.7z" fill="#FFFFFF"/>
    <path d="M1134.9,484.4c2.8-1.5,9.6-7.3,14-11.8c4.3-4.4,14.6-16.3,18.1-17.6c0,0-2.6,0.2-11.7,10.2c-9.1,10.1-16.6,16.1-19.4,17.7 c-2.9,1.6-0.3-0.7-3.4-2c0,0,1.3,2.2,0.5,3.6c-0.7,1.4-1.8,3-1.4,4.8C1131.5,489.2,1132.1,486,1134.9,484.4z"/>
    <path d="M1126.6,467c0.7-0.3,1.5-1.5,1.7-1.8c0.2-0.2,0.2-0.6-0.5-1s-1.1-0.4-1.7,0.5c-0.5,0.9-0.8,1.3-0.3,1.8 C1125.8,466.4,1126,467.2,1126.6,467z"/>
    <path d="M922.8,638.8l-1.1,0.3L922.8,638.8z" fill="#FFFFFF"/>
    <path d="M917.4,638l0.4-0.3L917.4,638z" fill="#FFFFFF"/>
    <path d="M917.9,637.7l0.5-0.3L917.9,637.7z" fill="#FFFFFF"/>
    <path d="M921.3,639.2l-1.1,0.2L921.3,639.2z" fill="#FFFFFF"/>
    <path d="M918.2,639.3h-1.7H918.2z" fill="#FFFFFF"/>
    <path d="M920,639.3h-1.5H920z" fill="#FFFFFF"/>
    <path d="M916.5,639.3L916.5,639.3L916.5,639.3L916.5,639.3z" fill="#FFFFFF"/>
    <path d="M916.5,639.3L916.5,639.3L916.5,639.3z" fill="#FFFFFF"/>
    <path d="M916.6,639.1l0.1-0.2C916.7,639,916.6,639,916.6,639.1z" fill="#FFFFFF"/>
    <path d="M916.7,638.8c0-0.1,0.1-0.1,0.1-0.2C916.7,638.8,916.7,638.8,916.7,638.8z" fill="#FFFFFF"/>
    <path d="M917.1,638.3l0.4-0.3L917.1,638.3z" fill="#FFFFFF"/>
    <path d="M916.8,638.6l0.2-0.3L916.8,638.6z" fill="#FFFFFF"/>
    <path d="M922.8,638.8c6.3-2.1,3.9-9.2,3.3-10.1c-0.7-1.2-1.9-1.7-1.9-1.7c-3.3,4.9-1.2,4.9-0.8,5.9s0.2,3.1-3,3.8 c-0.7,0.2-1.2,0.3-1.7,0.5C918.5,637.3,919,638.8,922.8,638.8z" fill="#FFFFFF"/>
    <path d="M908.5,629.9L908.5,629.9C908.4,629.9,908.4,629.9,908.5,629.9c-0.2,0.7-0.5,1.1-0.7,1.8 c0,0.2-0.1,0.3-0.1,0.5c-0.1,0.5-0.2,0.8-0.5,1.3c-0.1,0.2-0.1,0.5-0.1,0.7c-0.1,0.3-0.2,0.8-0.2,1.2c0,0.2-0.1,0.5-0.1,0.7 c-0.1,0.3-0.1,0.8-0.2,1.2c0,0.2,0,0.3-0.1,0.5l0,0c0.1,0,5.3,1.2,4.8,5.4c0-0.2,0.1-0.2,0.1-0.3c0,0,0.1-0.2,0.1-0.3 c0.2-0.3,0.5-0.7,0.7-1.1l0,0c0.2-0.3,0.6-0.8,0.9-1.1c0.1-0.2,0.1-0.2,0.2-0.3c0.6-0.8,1.3-1.6,2.2-2.6c0.1-0.2,0.2-0.2,0.4-0.3 c0.5-0.5,0.9-1,1.5-1.5C917.1,635.5,908.6,638.7,908.5,629.9z" fill="#999999"/>
    <path d="M966.2,610.8L966.2,610.8c0.5-0.2,1-0.2,1.5-0.4c7.1-2.4,11.3-9.3,11.3-9.3l0,0c0,0-1,0.4-2.4,0.7 c-0.2,0-0.6,0-0.9,0.1c-0.1,0-0.2,0-0.3,0c-1.6,0.3-3.5,0.2-5.3-0.2c-4.4-0.9,11-14.6,11-14.6c-1.7-0.2-3.7-0.2-5.8-0.1 c-5.5,0.4-11.2,1.6-11.2,1.6l0,0c0.1-3,3.2-8.4,3.2-8.4l0,0c-0.7,0-1.4,0.1-2,0.3c-0.6,0-1,0.2-1.5,0.2c-0.6,0.2-1.1,0.2-1.7,0.4 c-0.3,0-0.7,0.2-1,0.2c-4.6,1.4-7.3,3.6-7.4,3.6l0,0c0.5-7.6-2.2-11.5-2.2-11.5l0,0c-3,3.6-6.7,12.9-6.7,12.9l0,0c-0.1-5.3-3-8-3-8 l0,0c-0.1,0.3-0.2,0.7-0.5,1c0,0.2-0.1,0.2-0.1,0.3c-0.1,0.3-0.2,0.5-0.4,0.8c-0.1,0.2-0.1,0.3-0.2,0.5c-0.1,0.3-0.2,0.5-0.5,0.8 c-0.1,0.2-0.2,0.3-0.2,0.5c-0.1,0.3-0.4,0.7-0.5,1c0,0.2-0.1,0.2-0.1,0.3c3.2,3.3,3.9,11.8,3.9,11.8c2.2-4.7,7.2-8.7,7.2-8.7 c-0.7,4,0.8,7.4,0.8,7.4c2-8.6,10.1-7,10.1-7c-3.1,2.3-3.2,7.2-3.2,7.2c2.7-2.9,6.8-1.8,6.8-1.8c-2.2,2.3-2.5,4.6-2.2,6.7h0.1 c2.6-4.6,9.6-7.1,9.6-7.1c-9.1,6-7.3,10-7.3,10c-0.5-0.3-1-0.4-1.6-0.7c1,2.4,2.8,4.2,2.8,4.2c3.6-4.1,5.8,0,5.8,0 c-5.2,2-11.6,7.7-11.6,7.7c8.4-0.8,11.3,2.9,11.3,2.9c0.2-0.2,0.6-0.4,0.8-0.4h0.1c0.3-0.2,0.8-0.4,1.1-0.6l0,0 c0.3-0.2,0.7-0.4,1-0.6l0,0c0.3-0.2,0.7-0.2,0.9-0.4h0.1c0.2-0.2,0.6-0.2,0.8-0.4h0.1c0.2,0,0.4-0.2,0.6-0.2h0.1 c0.2,0,0.3-0.2,0.4-0.2l0,0c0.1,0,0.2,0,0.2,0l0,0h0.1l0,0l0,0C976.2,610,966.2,610.8,966.2,610.8z" fill="#999999"/>
    <path d="M916.5,639.3c0.6,0,1.2,0,1.7,0c0.1,0,0.2,0,0.4,0c0.5,0,1,0,1.5,0c0.1,0,0.1,0,0.2,0 c0.4,0,0.8-0.2,1.1-0.2c0.1,0,0.1,0,0.2,0c0.4,0,0.7-0.2,1.1-0.3c0,0,0,0,0.1,0l0,0c-3.7,0-4.2-1.5-4.2-1.5l0,0c0,0,0,0-0.1,0 c-0.1,0.2-0.4,0.2-0.5,0.3l0,0c-0.1,0.2-0.2,0.2-0.4,0.3c0,0,0,0-0.1,0c-0.1,0.2-0.2,0.2-0.4,0.3l0,0c-0.1,0.2-0.1,0.2-0.2,0.3l0,0 c0,0.2-0.1,0.2-0.1,0.2l0,0c0,0.1-0.1,0.1-0.1,0.2l0,0C916.6,639.1,916.5,639.1,916.5,639.3L916.5,639.3L916.5,639.3L916.5,639.3 L916.5,639.3z" fill="#999999"/>
    <path d="M958.5,598.4c0,0,0.2,6.4,0.1,9.6c0,0-1.8-0.9-5.4-2.1c0,0-0.8,2.2-1.5,2.7c0,0-2.2-2.4-3.2-5.7c0,0-3.5,4.5-4.8,6.4 c0,0-3.3-3.2-5.5-3.2c0,0,3.8,4.1,5.1,6.7c0,0,3.4-3.4,4.7-6.2c0,0,2.7,2.4,3.6,6c0,0,1.8-1.9,2.2-4.4c0,0,4.6,1.3,6.1,3.4 c0,0,0.7-6.5,0-10.4c0,0,1.8,0.1,3.5,0.7c0.6,0.1,1.1,0.4,1.6,0.8c0,0-1.8-4.1,7.3-10c0,0-6.9,2.5-9.6,7.1c0,0,0,0-0.1,0 C962.2,599.4,959.6,599.5,958.5,598.4z"/>
    <path d="M929.3,643.6c-3.2,2-1.9,5.9-1.8,7.3c0.1,1.3,0.3,6.3-5.2,13c-5.3,6.7-6.3,7.9-6.3,7.9s1.6,1,5.1-2.9 c3.6-3.9,13.6-12.7,14.5-19.8S932.5,641.7,929.3,643.6z" fill="#FFC221"/>
    <path d="M914,664.3c7.3-4.9,10.6-6.2,11.4-10.5c0.8-4.1,0.4-3.5-2.3-1.7s-13.2,8-14.7,2c0,0,4.3,2.4,9.7-1.2 c5.3-3.4,9.7-4.6,6.3-6.1s-15.7,0.2-17.7,1c-2.1,0.8-1.6,0.6-1.8,3.3c-0.4,2.8-2.7,8.5-3.5,10.2c-0.9,1.6-2.8,8.7,0.9,11.9 c3.8,3.2,9.8,3,12.8,0.7C914.9,673.9,906.7,669.2,914,664.3z M911.7,649.8c0.7-0.2,2.1,0.5,1.8,1.2c-0.1,0.7-1.2,1.1-1.8,1.1 c-0.7,0-1.2,0-1.6-1C909.7,650.1,911.7,649.8,911.7,649.8z" fill="#FFC221"/>
    <path d="M911.7,651.9c0.7,0,1.7-0.5,1.8-1.1c0.1-0.7-1.2-1.3-1.8-1.2c0,0-1.8,0.3-1.6,1.3C910.5,652.1,911,651.9,911.7,651.9z"/>
    <path d="M914.4,671.4c8.2-9.3,10.2-13.3,10.2-13.3c-0.6,1.3-5.3,4.4-9.7,7.5C910.5,668.8,914.4,671.4,914.4,671.4z" fill="#FFFFFF"/>
  </g>
  <path d="M259.7,185c127.9,0,223.7,15.9,325.2,32.8 C688.7,235,796.1,252.9,941,252.9c44.4,0,90-6.1,135.4-18.1c30.5-8.1,61.9-19,93.6-32.7v757.2c-36.8,17.4-73.5,30.8-109.2,40 c-40.5,10.4-81.1,15.7-120.8,15.7c-140.1,0-243.6-16.8-343.7-33c-98.9-16.1-201.3-32.7-336.6-32.7c-45.7,0-91.1,5.3-135.1,15.8 C93,972.6,61.3,982.9,30,996V241.6c37.1-17.6,73.8-31.2,109.2-40.5C179.9,190.4,220.4,185,259.7,185 M1200,155 c-89.2,45-174.4,67.9-259,67.9c-280.7,0-416.7-67.9-681.3-67.9C175.2,155,89.1,178,0,222.9c0,242.4,0,577.6,0,820 c89-44.9,175.2-63.6,259.7-63.6c268.9,0,398.5,65.7,680.3,65.7c84.6,0,170.8-22,260-66.9C1200,735.7,1200,397.4,1200,155L1200,155z" enable-background="new " fill="#212121" opacity="0.3"/>
</svg>