<svg viewBox="0 0 1200 1200" xmlns="http://www.w3.org/2000/svg" xmlns:xlink="http://www.w3.org/1999/xlink">
  <g>
    <path d="M0,634.4c96.3-48,191.2-69.8,298.7-67c101.1,2.7,201.9,15.9,301.3,33.8c99.3,17.9,200.3,29.9,301.2,32.4 c106.7,2.6,203.1-19.8,298.8-67c0,137.2,0,274.4,0,411.5c-95.8,45.3-192.5,69.2-298.7,66.5c-101-2.5-201.8-14.8-301.3-32.1 c-99.4-17.3-200.2-30.4-301.2-33.1C191.9,976.6,97,999.3,0,1043.8C0,907.4,0,770.9,0,634.4z" fill="#FFD500"/>
    <path d="M0,224.9c48.9-26.3,99.4-48.6,154-59.7c47.6-9.7,96.3-11.1,144.7-9.8c101.1,2.6,202,15.9,301.3,34.5 c99.2,18.5,200.3,30.2,301.2,32.7c107.2,2.5,203.2-18.4,298.8-67.6c0,137.2,0,274.4,0,411.5c-95.7,47.3-192.1,69.7-298.8,67 C800.2,631,699.3,619,600,601.1c-99.4-17.9-200.2-31.1-301.3-33.8c-107.6-2.8-202.4,18.9-298.7,67C0,497.9,0,361.4,0,224.9z" fill="#005BBB"/>
  </g>
  <g opacity="0.3">
    <path d="M259.7,185c127.9,0,223.7,15.9,325.2,32.8C688.7,235,796.1,252.9,941,252.9c44.4,0,90-6.1,135.4-18.1 c30.5-8.1,61.9-19,93.6-32.7v757.2c-36.8,17.4-73.5,30.8-109.2,40c-40.5,10.4-81.1,15.7-120.8,15.7c-140.1,0-243.6-16.8-343.7-33 c-98.9-16.1-201.3-32.7-336.6-32.7c-45.7,0-91.1,5.3-135.1,15.8C93,972.6,61.3,982.9,30,996V241.6c37.1-17.6,73.8-31.2,109.2-40.5 C179.9,190.4,220.4,185,259.7,185 M1200,155c-89.2,45-174.4,67.9-259,67.9c-280.7,0-416.7-67.9-681.3-67.9 C175.2,155,89.1,178,0,222.9c0,242.4,0,577.6,0,820c89-44.9,175.2-63.6,259.7-63.6c268.9,0,398.5,65.7,680.3,65.7 c84.6,0,170.8-22,260-66.9C1200,735.7,1200,397.4,1200,155L1200,155z" fill="#212121"/>
  </g>
</svg>