<svg viewBox="0 0 1200 1200" xmlns="http://www.w3.org/2000/svg" xmlns:xlink="http://www.w3.org/1999/xlink">
  <g>
    <path d="M600,189.9c0,137.2,0,274.4,0,411.5C491.5,582,380.5,566.9,270,567c-95.7,0.1-184.8,22.1-270,65.8 c0,136.7,0,273.3,0,410c94.9-48.5,192.8-66.3,298.8-63.4c101,2.8,201.8,16.1,301.2,33.5s200.3,29.2,301.2,31.7 c46.4,1.1,92.9-0.2,138.5-9.1c56.2-10.9,108.8-32.9,160.3-57.5c0-274.4,0-548.7,0-823.1c-86.8,43.6-172.7,67.8-270,67.9 C819.6,223,708.5,209.4,600,189.9z" fill="#CE1126"/>
    <path d="M600,189.9c-108.5-19.6-219.5-35.1-330-34.9c-95.6,0.2-185.2,24.1-270,67.9c0,136.7,0,273.3,0,410 c85.2-43.7,174.3-65.7,270-65.8c110.4-0.1,221.5,15,330,34.4C600,464.2,600,327.1,600,189.9z M270,172.1 c2.6,11.1,5.3,22.2,7.9,33.3c10.3,0.1,15.7,0.2,26.5,0.6c-7.3,6.6-14.4,13.2-21.5,20c2.7,11.1,5.4,22.3,8.1,33.4 c-7-6.9-14.1-13.8-21.1-20.8c-6.9,6.9-13.7,13.8-20.3,20.9c2.6-11.1,5.1-22.3,7.7-33.4c-6.7-6.6-13.4-13.2-20.1-19.8 c9.8-0.5,14.8-0.7,24.9-0.8C264.8,194.3,267.4,183.2,270,172.1z M201.6,365.8c-7.7-7.4-11.4-11-19-18.2 c-6.3,7.8-12.5,15.6-18.6,23.5c2.3-11.5,4.7-22.9,7.1-34.4c-7.5-6.9-11.2-10.4-18.6-17c9.1-1.9,13.7-2.7,22.9-4.2 c2.4-11.4,4.7-22.9,7.1-34.3c2.4,10.7,4.8,21.5,7.3,32.2c9.4-1.2,14.1-1.8,23.7-2.6c-6.5,7.4-12.9,15-19.2,22.6 C196.8,344.2,199.2,355,201.6,365.8z M296.4,550.2c-8.8-8.6-17.7-17.3-26.4-26.1c-8.6,8.6-17,17.3-25.3,26.1 c3.2-14,6.4-27.9,9.6-41.9c-8.3-8.2-16.6-16.5-24.9-24.7c10.3-0.6,20.6-1,30.9-1.1c3.2-13.9,6.5-27.8,9.8-41.7 c3.3,13.9,6.6,27.8,9.9,41.7c11.1,0.2,22.3,0.5,33.4,0.9c-9.2,8.2-18.2,16.5-27.1,24.9C289.6,522.3,293,536.3,296.4,550.2z M331.9,420c-5.7-5.5-8.5-8.2-14-13.6c-5.6,4.9-8.3,7.4-13.8,12.3c2.1-8.2,3.1-12.4,5.2-20.6c-5.5-5.4-8.2-8-13.6-13.3 c6.7,0.2,10.1,0.3,16.9,0.6c2.1-8.2,3.2-12.3,5.3-20.6c2.1,8.4,3.2,12.6,5.3,21c6.9,0.3,10.4,0.5,17.5,0.9 c-5.7,4.8-8.5,7.2-14.2,12.1C328.6,407.3,329.7,411.5,331.9,420z M393.1,345.9c-7.3-7.1-14.7-14.1-22.1-21.2 c-7.3,5.8-14.6,11.7-21.8,17.7c2.7-10.2,5.5-20.4,8.3-30.6c-7.2-6.9-14.3-13.8-21.5-20.7c10.5,0.6,15.9,1,26.7,1.8 c2.8-10.2,5.6-20.4,8.3-30.5c2.8,10.6,5.6,21.2,8.4,31.9c10.9,0.9,16.4,1.4,27.4,2.5c-7.4,5.7-14.8,11.4-22.2,17.2 C387.4,324.6,390.3,335.2,393.1,345.9z" fill="#002B7F"/>
    <path d="M257.3,226c-2.6,11.2-5.1,22.3-7.7,33.5c6.7-7.1,13.5-14,20.3-20.9c7,7,14,13.9,21,20.8 c-2.7-11.1-5.4-22.3-8.1-33.4c7.1-6.8,14.2-13.5,21.5-20c-10.8-0.4-16.1-0.5-26.5-0.6c-2.7-11.1-5.3-22.2-7.9-33.3 c-2.6,11.1-5.2,22.2-7.8,33.3c-10.1,0.1-15.1,0.3-24.9,0.8C244,212.8,250.7,219.4,257.3,226z" fill="#FFFFFF"/>
    <path d="M189.8,313.5c-2.4-10.7-4.8-21.5-7.3-32.2c-2.4,11.4-4.8,22.9-7.1,34.3c-9.3,1.5-13.8,2.3-22.9,4.2 c7.4,6.7,11.1,10.1,18.5,17c-2.3,11.5-4.7,23-7,34.5c6.1-7.9,12.3-15.8,18.6-23.6c7.5,7.1,11.3,10.8,19,18.2 c-2.4-10.8-4.9-21.6-7.3-32.4c6.3-7.6,12.7-15.1,19.2-22.6C203.9,311.7,199.2,312.2,189.8,313.5z" fill="#FFFFFF"/>
    <path d="M379.4,294.2c-2.8-10.6-5.6-21.2-8.4-31.9c-2.8,10.2-5.6,20.4-8.3,30.5c-10.8-0.8-16.1-1.2-26.7-1.8 c7.2,6.9,14.4,13.8,21.5,20.7c-2.8,10.2-5.6,20.4-8.3,30.6c7.2-6,14.5-11.9,21.8-17.7c7.4,7,14.7,14.1,22.1,21.2 c-2.8-10.6-5.7-21.3-8.5-31.9c7.4-5.8,14.8-11.5,22.2-17.2C395.8,295.6,390.3,295.1,379.4,294.2z" fill="#FFFFFF"/>
    <path d="M323.2,385.9c-2.1-8.4-3.2-12.6-5.3-21c-2.1,8.2-3.2,12.3-5.3,20.6c-6.8-0.3-10.2-0.4-16.9-0.6 c5.4,5.3,8.1,8,13.6,13.3c-2.1,8.2-3.2,12.4-5.2,20.6c5.5-5,8.2-7.4,13.8-12.3c5.6,5.4,8.4,8.1,14,13.6c-2.2-8.4-3.2-12.6-5.4-21.1 c5.6-4.9,8.5-7.3,14.2-12.1C333.6,386.4,330.1,386.2,323.2,385.9z" fill="#FFFFFF"/>
    <path d="M279.9,482.6c-3.3-13.9-6.6-27.7-9.9-41.6c-3.3,13.9-6.5,27.8-9.8,41.6c-10.3,0.1-20.6,0.5-30.9,1.1 c8.3,8.2,16.6,16.4,24.9,24.7c-3.2,14-6.4,27.9-9.6,41.9c8.3-8.8,16.8-17.6,25.3-26.1c8.8,8.7,17.6,17.4,26.4,26.1 c-3.4-13.9-6.8-27.9-10.2-41.8c8.9-8.5,18-16.8,27.1-24.9C302.2,483,291.1,482.7,279.9,482.6z" fill="#FFFFFF"/>
  </g>
  <g opacity="0.3">
    <path d="M259.7,185c127.9,0,223.7,15.9,325.2,32.8C688.7,235,796.1,252.9,941,252.9c44.4,0,90-6.1,135.4-18.1 c30.5-8.1,61.9-19,93.6-32.7v757.2c-36.8,17.4-73.5,30.8-109.2,40c-40.5,10.4-81.1,15.7-120.8,15.7c-140.1,0-243.6-16.8-343.7-33 c-98.9-16.1-201.3-32.7-336.6-32.7c-45.7,0-91.1,5.3-135.1,15.8C93,972.6,61.3,982.9,30,996V241.6c37.1-17.6,73.8-31.2,109.2-40.5 C179.9,190.4,220.4,185,259.7,185 M1200,155c-89.2,45-174.4,67.9-259,67.9c-280.7,0-416.7-67.9-681.3-67.9 C175.2,155,89.1,178,0,222.9c0,242.4,0,577.6,0,820c89-44.9,175.2-63.6,259.7-63.6c268.9,0,398.5,65.7,680.3,65.7 c84.6,0,170.8-22,260-66.9C1200,735.7,1200,397.4,1200,155L1200,155z" fill="#212121"/>
  </g>
</svg>