<svg viewBox="0 0 1200 890" xmlns="http://www.w3.org/2000/svg" xmlns:xlink="http://www.w3.org/1999/xlink">
  <g>
    <path d="M297.8,535.9c-0.1,0-0.1,0-0.2,0c9.3,6.9,18.6,13.7,28,20.6v-0.1C316.3,549.5,307,542.7,297.8,535.9z" fill="none"/>
    <path d="M372.7,316.2c-3.8-10.8-7.5-21.6-11.3-32.5C365.1,294.5,368.9,305.3,372.7,316.2 C372.6,316.2,372.6,316.2,372.7,316.2z" fill="none"/>
    <path d="M391.2,541.6c-0.1,0-0.1,0-0.2,0c-9.9,5.6-19.7,11.3-29.5,17C371.3,552.8,381.2,547.1,391.2,541.6z" fill="none"/>
    <path d="M455.2,617c-3.8,10.1-7.6,20.2-11.4,30.3c-12.4-1.4-24.9-2.7-37.3-3.9l0,0c12.5,1.2,24.9,2.5,37.3,3.9 C447.5,637.2,451.3,627.1,455.2,617z" fill="none"/>
    <path d="M261.2,397.9c8.7,6.6,17.5,13.2,26.3,19.8v-0.1C278.7,411.1,269.9,404.5,261.2,397.9z" fill="none"/>
    <path d="M314.7,312.6C314.8,312.6,314.8,312.6,314.7,312.6c3.6-10.4,7.2-20.8,10.8-31.1 C321.9,291.9,318.3,302.2,314.7,312.6z" fill="none"/>
    <path d="M827.5,374.7C827.6,374.7,827.6,374.7,827.5,374.7c3.8-10.2,7.5-20.4,11.2-30.6 C835,354.3,831.3,364.5,827.5,374.7z" fill="none"/>
    <path d="M827.5,648.9c9.8-5.8,19.6-11.7,29.3-17.7C847,637.2,837.3,643.1,827.5,648.9L827.5,648.9z" fill="none"/>
    <path d="M697.3,210.1c9.8,7.8,19.7,15.6,29.6,23.2c-9.8-7.7-19.6-15.4-29.4-23.2C697.5,210.1,697.4,210.1,697.3,210.1 z" fill="none"/>
    <path d="M332.7,450.9c-3.6-10.7-7.3-21.4-10.9-32.2C325.4,429.4,329,440.1,332.7,450.9 C332.6,450.9,332.7,450.9,332.7,450.9z" fill="none"/>
    <path d="M885.2,377.9C885.3,377.9,885.3,377.9,885.2,377.9c-3.5-10.6-7.1-21.2-10.7-31.9c9.4-6.1,18.7-12.2,27.9-18.5 c-9.3,6.3-18.5,12.4-27.9,18.5C878.1,356.6,881.7,367.3,885.2,377.9z" fill="none"/>
    <path d="M867.8,326.2c-3.6-10.7-7.3-21.4-11-32.1C860.5,304.8,864.1,315.5,867.8,326.2L867.8,326.2z" fill="none"/>
    <path d="M556.9,150.7c-0.1,0-0.1,0-0.2,0c9.1,7.9,18.2,15.9,27.1,24.1v-0.1C575,166.5,566,158.5,556.9,150.7z" fill="none"/>
    <path d="M557.2,699.7c-0.1,0-0.1,0-0.2,0c9.1,7.9,18.1,15.8,27,23.9v-0.1C575.1,715.5,566.2,707.5,557.2,699.7z" fill="none"/>
    <path d="M726.7,708c-3.8,10.1-7.6,20.1-11.3,30.2c0,0,0,0,0.1,0C719.2,728.1,723,718.1,726.7,708L726.7,708z" fill="none"/>
    <path d="M503.1,179.2c-0.1,0-0.1,0-0.2,0c-9.8,5.2-19.6,10.4-29.4,15.6C483.3,189.6,493.2,184.4,503.1,179.2z" fill="none"/>
    <path d="M406.2,167.6c10.1,7.5,20.1,15.1,30.1,22.7c-9.9-7.6-19.9-15.2-29.9-22.7 C406.3,167.6,406.3,167.6,406.2,167.6z" fill="none"/>
    <path d="M626.5,213.6c-3.4-11.1-6.8-22.2-10.2-33.3C619.6,191.4,623,202.5,626.5,213.6L626.5,213.6z" fill="none"/>
    <path d="M745.3,659.1c-3.8,10.1-7.6,20.2-11.4,30.3c-12.3-1.4-24.5-2.9-36.7-4.5l0,0c12.2,1.6,24.5,3.1,36.7,4.5 C737.7,679.3,741.5,669.2,745.3,659.1z" fill="none"/>
    <path d="M436.5,666c-3.8,10.1-7.6,20.2-11.5,30.3c0,0,0,0,0.1,0C428.9,686.2,432.7,676.1,436.5,666L436.5,666z" fill="none"/>
    <path d="M794.1,220.9c-0.1,0-0.1,0-0.2,0c-9.9,5.6-19.8,11.1-29.8,16.6C774.1,232,784.1,226.4,794.1,220.9z" fill="none"/>
    <path d="M756.7,691.9c-3.8-10.9-7.6-21.8-11.4-32.7C749.1,670,752.9,680.9,756.7,691.9c12.4,1.3,24.8,2.5,37.2,3.6 l0,0C781.5,694.3,769.1,693.1,756.7,691.9z" fill="none"/>
    <path d="M466.6,650c-3.8-11-7.6-22-11.4-33C459,628,462.8,639,466.6,650c12.3,1.5,24.5,3.1,36.8,4.8l0,0 C491.1,653.1,478.9,651.5,466.6,650z" fill="none"/>
    <path d="M485.1,703.6c-3.8-11.1-7.6-22.1-11.4-33.2l0,0C477.5,681.5,481.3,692.6,485.1,703.6z" fill="none"/>
    <path d="M775.3,744.9c-3.8-10.9-7.6-21.9-11.4-32.8l0,0C767.7,723,771.5,734,775.3,744.9z" fill="none"/>
    <path d="M902.3,601.5c-9.2,6.2-18.4,12.3-27.7,18.4c0,0.1,0,0.1,0,0.1c9.4-6.1,18.7-12.2,27.9-18.5 C902.4,601.5,902.4,601.5,902.3,601.5z" fill="none"/>
    <path d="M809.3,596.5c-0.1,0-0.1,0-0.2,0c9.8,7.2,19.7,14.4,29.6,21.6V618C828.9,610.8,819.1,603.7,809.3,596.5z" fill="none"/>
    <path d="M849.8,462.3c-0.1,0-0.1,0-0.2,0c9.6,7,19.1,13.9,28.7,20.9v-0.1C868.8,476.2,859.3,469.3,849.8,462.3z" fill="none"/>
    <path d="M0,67.9c0,273.3,0,546.7,0,820c94.8-49.1,192.7-66.3,298.8-63.3c101,2.8,201.7,16.4,301.2,33.6 c99.4,17.2,200.3,29,301.2,31.5c46.9,1.1,93.9-0.2,140.1-9.2c55.7-10.8,107.8-32.8,158.7-57.2c0-274.4,0-548.8,0-823.3 c-95.8,49.8-191.2,70.1-298.8,67.4c-101-2.5-201.9-14.8-301.2-32.6C500.6,17.2,399.8,3.3,298.8,0.5c-47.6-1.4-95.5,0-142.2,9.6 C101.6,21.2,50.3,43.6,0,67.9z M845.6,325c3.8-10.3,7.5-20.6,11.2-30.8c3.7,10.7,7.3,21.4,11,32.1c11.6,0.5,23.1,0.9,34.7,1.3 c-9.3,6.3-18.5,12.4-27.9,18.5c3.6,10.6,7.2,21.3,10.7,31.9c0,0,0,0-0.1,0c0,0.1,0,0.1,0.1,0.2c-9.5-6.9-19-13.9-28.5-20.8 c-9.7,5.9-19.5,11.8-29.3,17.6c0-0.1,0-0.1,0.1-0.2c0,0,0,0-0.1,0c3.7-10.2,7.5-20.4,11.2-30.6v-0.1c-9.9-7.2-19.7-14.4-29.6-21.7 C821.3,323.3,833.4,324.2,845.6,325z M261.2,397.9c10.9-0.1,21.8,0.1,32.8,0.3c3.5-10.4,7-20.9,10.5-31.3 c3.5,10.7,7.1,21.3,10.6,32c11.9,0.5,23.7,1.2,35.5,1.9c-9.7,5.9-19.3,11.8-28.8,17.9c3.6,10.7,7.2,21.4,10.9,32.2c0,0,0,0-0.1,0 c0,0.1,0,0.1,0.1,0.2c-9.4-6.9-18.8-13.9-28.2-20.8c-9.1,6.2-18.2,12.5-27.1,19c3.4-10.5,6.7-21,10.1-31.5 C278.7,411.1,269.9,404.6,261.2,397.9z M391.2,541.6c-9.9,5.6-19.8,11.2-29.7,17c3.7,10.9,7.5,21.7,11.3,32.6 c-9.8-7.2-19.6-14.4-29.4-21.6c-9.6,5.9-19.1,11.9-28.6,18.1c3.6-10.4,7.1-20.8,10.7-31.1c-9.3-6.9-18.6-13.7-28-20.6 c0.1,0,0.1,0,0.2,0c-0.1-0.1-0.1-0.1-0.2-0.2c11.6,0.4,23.2,0.9,34.8,1.4c3.6-10.3,7.3-20.6,11-31c3.8,10.8,7.5,21.6,11.3,32.3 c12.2,0.8,24.4,1.8,36.6,2.9c-0.1,0.1-0.1,0.1-0.2,0.1C391,541.5,391.1,541.5,391.2,541.6z M361.4,283.7 c3.7,10.8,7.5,21.6,11.3,32.5c0,0,0,0-0.1-0.1c0,0.1,0,0.1,0.1,0.2c-9.8-7.2-19.6-14.4-29.3-21.6c-9.6,5.9-19.1,11.9-28.6,18 c0-0.1,0-0.1,0.1-0.2c0,0,0,0-0.1,0c3.6-10.4,7.2-20.7,10.8-31.1c-9.3-6.9-18.7-13.7-28-20.6c11.6,0.4,23.2,0.9,34.8,1.5 c3.6-10.3,7.3-20.6,11-31c3.7,10.8,7.5,21.6,11.3,32.3c12.2,0.8,24.4,1.8,36.5,2.9C381.2,272.3,371.3,278,361.4,283.7z M503.4,654.8c-9.9,5.2-19.7,10.4-29.6,15.6c3.8,11.1,7.6,22.1,11.4,33.2c-9.9-7.9-19.9-15.7-29.9-23.4 c-10.1,5.4-20.1,10.8-30.1,16.3c0-0.1,0-0.1,0.1-0.2c0,0,0,0-0.1,0c3.8-10.1,7.6-20.2,11.5-30.3c-10-7.6-20.1-15.1-30.1-22.6l0,0 l0,0c12.5,1.2,24.9,2.5,37.3,3.9c3.8-10.1,7.6-20.2,11.4-30.3c3.8,11,7.6,22,11.4,33C478.9,651.5,491.1,653.1,503.4,654.8 L503.4,654.8L503.4,654.8z M503.1,179.2c-9.9,5.2-19.7,10.4-29.6,15.5c3.8,11,7.6,22,11.4,33.1C475,220,465,212.2,455,204.5 c-10,5.3-20.1,10.7-30.1,16.1c3.8-10.1,7.6-20.2,11.4-30.3c-10-7.6-20-15.2-30.1-22.7c0.1,0,0.1,0,0.2,0c-0.1-0.1-0.1-0.1-0.2-0.2 c12.4,1.2,24.9,2.5,37.3,4c3.8-10.1,7.6-20.2,11.4-30.2c3.8,11,7.6,22,11.4,33c12.3,1.5,24.5,3.2,36.8,4.9c-0.1,0-0.1,0.1-0.2,0.1 C502.9,179.2,503,179.2,503.1,179.2z M626.4,762.5c-8.9-7.9-17.7-15.9-26.4-24c-8.7,5.1-17.4,10.1-26.2,15 c3.4-10,6.8-19.9,10.1-29.9c-8.9-8.1-17.9-16.1-27-23.9c0.1,0,0.1,0,0.2,0c-0.1-0.1-0.1-0.1-0.2-0.2c11.1,1.8,22.2,3.6,33.3,5.5 c3.3-9.9,6.6-19.9,9.8-29.8c3.3,11.1,6.6,22.2,9.9,33.3c11.2,1.9,22.3,3.7,33.5,5.5c-9.1,5-18.2,10-27.2,15.1 C619.6,740.2,623,751.4,626.4,762.5z M616.3,180.3c3.4,11.1,6.8,22.2,10.2,33.3c0,0,0,0-0.1-0.1c0,0.1,0,0.1,0.1,0.2 c-8.9-7.9-17.8-16-26.5-24.1c-8.7,5.1-17.5,10-26.3,14.9c3.4-9.9,6.8-19.9,10.1-29.8c-8.9-8.1-18-16.2-27.1-24.1 c0.1,0,0.1,0,0.2,0c-0.1-0.1-0.1-0.1-0.2-0.2c11.2,1.8,22.3,3.7,33.4,5.7c3.3-9.9,6.6-19.8,9.9-29.8c3.3,11.1,6.6,22.2,9.9,33.3 c11.2,1.9,22.4,3.8,33.6,5.6C634.4,170.3,625.3,175.3,616.3,180.3z M793.9,695.4c-10,5.6-20,11.2-30.1,16.7 c3.8,10.9,7.6,21.9,11.4,32.8c-10.1-7.5-20.1-15.1-30.1-22.7c-9.9,5.4-19.9,10.8-29.9,16.2c0-0.1,0-0.1,0.1-0.2c0,0,0,0-0.1,0 c3.8-10.1,7.6-20.1,11.3-30.2c-9.9-7.6-19.8-15.4-29.6-23.2l0,0l0,0c12.2,1.6,24.5,3.1,36.7,4.5c3.8-10.1,7.6-20.2,11.4-30.3 c3.8,10.9,7.6,21.8,11.4,32.7C769.1,693.1,781.5,694.3,793.9,695.4L793.9,695.4L793.9,695.4z M794.1,220.9 c-10,5.6-20,11.1-30,16.6c3.8,10.9,7.6,21.8,11.4,32.7c-10-7.5-20.1-15-30-22.6c-9.9,5.3-19.9,10.7-29.9,16 c3.8-10.1,7.6-20.1,11.3-30.1c-9.9-7.7-19.8-15.4-29.6-23.2c0.1,0,0.1,0,0.2,0c-0.1-0.1-0.1-0.1-0.2-0.2 c12.2,1.6,24.5,3.2,36.7,4.6c3.8-10.1,7.6-20.2,11.4-30.2c3.8,10.9,7.6,21.9,11.4,32.8c12.4,1.3,24.8,2.5,37.2,3.6 c-0.1,0.1-0.1,0.1-0.2,0.1C793.9,220.8,794,220.8,794.1,220.9z M885.3,652c-9.5-6.9-19-13.9-28.5-20.8c-9.7,6-19.5,11.8-29.3,17.7 l0,0l0,0c3.7-10.3,7.5-20.5,11.2-30.8c-9.9-7.2-19.7-14.4-29.6-21.6c0.1,0,0.1,0,0.2,0c-0.1-0.1-0.1-0.1-0.2-0.2 c12.1,1,24.3,1.8,36.4,2.6c3.8-10.3,7.5-20.6,11.2-30.9c3.7,10.7,7.3,21.4,11,32.1c11.6,0.5,23.2,0.9,34.7,1.3 c-0.1,0.1-0.1,0.1-0.2,0.1c0.1,0,0.1,0,0.2,0c-9.2,6.3-18.5,12.4-27.9,18.5C878.2,630.7,881.7,641.3,885.3,652z M922.7,515.9 c-9-6.7-18-13.3-27.1-20c-9.3,6.2-18.7,12.3-28.2,18.4c3.6-10.3,7.2-20.7,10.8-31c-9.6-7-19.1-13.9-28.7-20.9c0.1,0,0.1,0,0.2,0 c-0.1-0.1-0.1-0.1-0.2-0.2c11.8,0.7,23.6,1.3,35.5,1.7c3.6-10.4,7.1-20.8,10.6-31.1c3.5,10.6,7,21.2,10.5,31.8 c11,0.2,21.9,0.3,32.9,0.2c-8.7,6.6-17.5,13-26.4,19.4C915.9,494.7,919.3,505.3,922.7,515.9z" fill="#003399"/>
    <path d="M595.5,157.1c1.5-10.2,3-20.5,4.5-30.7c-3.3,9.9-6.5,19.9-9.9,29.8C592.3,156.5,593.4,156.7,595.5,157.1z" fill="#FFCC00"/>
    <path d="M609.9,159.7c-3.3-11.1-6.6-22.2-9.9-33.3c-1.5,10.2-3,20.5-4.5,30.7C601.2,158.2,604.1,158.7,609.9,159.7 z" fill="#FFCC00"/>
    <path d="M602.2,158.3c0,2.7,0,4.1,0,6.9c0.1,0,0.2,0,0.3,0.1c0.3-0.4,0.4-0.6,0.7-0.9c0.2,0.4,0.3,0.6,0.4,1 c13.3,0.1,26.6,0.1,39.9,0C629.8,163.1,616,160.8,602.2,158.3z" fill="#FFCC00"/>
    <path d="M604.3,166.8c1,0.3,1.5,0.5,2.5,0.8c-0.5,0.5-0.7,0.8-1.2,1.3c2.7-0.4,4.1-0.6,6.9-1.1 c1.5,5,2.3,7.5,3.8,12.5c9.1-5.1,18.2-10.1,27.3-15c-13.3,0.1-26.6,0-39.9,0C603.9,165.9,604,166.2,604.3,166.8z" fill="#FFCC00"/>
    <path d="M602.5,165.3c-0.1,0-0.2,0-0.3-0.1c0,0.2,0,0.3,0,0.5C602.3,165.5,602.4,165.4,602.5,165.3z" fill="#FFCC00"/>
    <path d="M605.6,168.9c-0.1,0.1-0.1,0.2-0.1,0.3c0.8,1.8,1.2,2.7,2.1,4.5c0.5,0.3,0.7,0.4,1.2,0.7 c-0.2,0.2-0.4,0.3-0.6,0.5c6.1,13,12.2,26,18.4,39c0-0.1,0-0.1-0.1-0.2c-3.4-11.1-6.8-22.2-10.2-33.2c-1.5-5-2.3-7.5-3.8-12.5 C609.7,168.2,608.3,168.4,605.6,168.9z" fill="#FFCC00"/>
    <path d="M602.2,166c0.8,0.3,1.2,0.5,2.1,0.8c-0.2-0.6-0.4-0.9-0.6-1.5c-0.2-0.4-0.3-0.6-0.4-1 c-0.3,0.4-0.4,0.6-0.7,0.9c-0.1,0.2-0.2,0.2-0.3,0.4C602.2,165.8,602.2,165.8,602.2,166z" fill="#FFCC00"/>
    <path d="M608.1,174.8c-1.1,0.9-1.6,1.4-2.7,2.3c1.7,2.7,2.6,4.1,4.3,6.9c-4,2.3-6,3.4-9.8,5.7 c8.7,8.2,17.6,16.2,26.5,24.1C620.3,200.8,614.2,187.8,608.1,174.8z" fill="#FFCC00"/>
    <path d="M607.5,173.6c-0.8-1.8-1.3-2.7-2.1-4.5c-0.8,1-1.2,1.4-1.9,2.4C605.1,172.4,605.9,172.8,607.5,173.6z" fill="#FFCC00"/>
    <path d="M596.3,164c0.2-0.3,0.3-0.5,0.4-0.8c0.3,0.5,0.4,0.7,0.7,1.2c1.9,0.6,2.8,1,4.7,1.6c0-3,0-4.6,0-7.6 c-15.1-2.7-30.3-5.4-45.5-7.9C570,154.8,583.2,159.3,596.3,164z" fill="#FFCC00"/>
    <path d="M587.6,163.3c2.9,1.5,4.3,2.2,7.1,3.7c0.6-1.2,1-1.8,1.6-3.1c-13.1-4.7-26.4-9.1-39.6-13.5 c0.1,0.1,0.1,0.1,0.2,0.2c9.1,7.9,18.1,15.8,26.9,23.9C585.4,170.1,586.1,167.8,587.6,163.3z" fill="#FFCC00"/>
    <path d="M597.5,164.3c1.5,2.5,2.3,3.7,3.8,6.2c0.9,0.4,1.3,0.6,2.2,1c0.8-1,1.2-1.4,1.9-2.4 c0.1-0.1,0.1-0.2,0.1-0.3c0.5-0.5,0.7-0.8,1.2-1.3c-1-0.3-1.5-0.5-2.5-0.8c-0.8-0.3-1.2-0.5-2.1-0.8 C600.3,165.3,599.4,165,597.5,164.3z" fill="#FFCC00"/>
    <path d="M601.3,170.5c1.6,2.6,2.5,3.9,4.1,6.5c1.1-0.9,1.6-1.4,2.7-2.3c0.2-0.2,0.4-0.3,0.6-0.5 c-0.5-0.3-0.7-0.4-1.2-0.7c-1.6-0.8-2.4-1.3-4-2.1C602.6,171.1,602.2,170.9,601.3,170.5z" fill="#FFCC00"/>
    <path d="M587.6,163.3c-1.5,4.5-2.2,6.7-3.7,11.2v0.1c-3.3,10-6.7,19.9-10.1,29.8c7.1-12.5,14.1-24.9,21-37.5 C591.9,165.6,590.5,164.8,587.6,163.3z" fill="#FFCC00"/>
    <path d="M605.5,177.1c-1.7-2.6-2.5-3.9-4.1-6.5c-1.5-2.5-2.3-3.7-3.8-6.2c-0.3-0.5-0.4-0.7-0.7-1.2 c-0.2,0.3-0.3,0.5-0.4,0.8c-0.6,1.2-1,1.8-1.6,3.1c-6.9,12.5-14,25-21,37.5c8.8-4.9,17.6-9.8,26.3-14.9c3.8-2.3,5.8-3.4,9.8-5.7 C608.1,181.2,607.2,179.8,605.5,177.1z" fill="#FFCC00"/>
    <path d="M595.5,706c1.5-10.3,3-20.5,4.5-30.8c-3.2,10-6.5,19.9-9.8,29.8C592.3,705.4,593.4,705.6,595.5,706z" fill="#FFCC00"/>
    <path d="M609.9,708.5c-3.3-11.1-6.6-22.2-9.9-33.3c-1.5,10.3-3,20.5-4.5,30.8C601.2,707,604,707.5,609.9,708.5z" fill="#FFCC00"/>
    <path d="M602.2,714c0.1,0,0.2,0,0.3,0.1c0.3-0.4,0.4-0.6,0.7-0.9c0.2,0.4,0.3,0.6,0.4,1c13.2,0,26.5,0,39.7-0.2 c-13.8-2.2-27.5-4.4-41.2-6.8C602.2,709.9,602.2,711.3,602.2,714z" fill="#FFCC00"/>
    <path d="M603.7,714.1c0.2,0.6,0.4,0.9,0.6,1.5c1,0.3,1.5,0.4,2.5,0.7c-0.5,0.5-0.7,0.8-1.2,1.3 c2.7-0.4,4.1-0.7,6.8-1.1c1.5,5,2.3,7.5,3.8,12.5c9-5.1,18.1-10.1,27.2-15.1C630.2,714.1,616.9,714.2,603.7,714.1z" fill="#FFCC00"/>
    <path d="M602.2,714c0,0.2,0,0.3,0,0.5c0.1-0.2,0.2-0.2,0.3-0.4C602.4,714.1,602.3,714.1,602.2,714z" fill="#FFCC00"/>
    <path d="M605.6,717.7c-0.1,0.1-0.1,0.2-0.1,0.3c0.8,1.8,1.2,2.7,2.1,4.5c0.5,0.3,0.7,0.4,1.2,0.7 c-0.2,0.2-0.4,0.3-0.6,0.5c6,13,12.1,26,18.3,38.9c-3.4-11.1-6.8-22.3-10.2-33.4c-1.5-5-2.3-7.5-3.8-12.5 C609.7,717,608.3,717.2,605.6,717.7z" fill="#FFCC00"/>
    <path d="M602.5,714.1c-0.1,0.2-0.2,0.2-0.3,0.4c0,0.1,0,0.2,0,0.3c0.8,0.3,1.2,0.5,2.1,0.8 c-0.2-0.6-0.4-0.9-0.6-1.5c-0.2-0.4-0.3-0.6-0.4-1C602.9,713.5,602.8,713.7,602.5,714.1z" fill="#FFCC00"/>
    <path d="M605.4,725.9c1.7,2.7,2.6,4.1,4.3,6.8c-3.9,2.3-5.9,3.5-9.7,5.8c8.7,8.1,17.5,16.1,26.4,24 c-6.2-12.9-12.3-25.9-18.3-38.9C607,724.5,606.5,725,605.4,725.9z" fill="#FFCC00"/>
    <path d="M607.5,722.4c-0.8-1.8-1.2-2.7-2.1-4.5c-0.8,1-1.2,1.4-1.9,2.4C605.1,721.2,605.9,721.6,607.5,722.4z" fill="#FFCC00"/>
    <path d="M596.4,712.9c0.2-0.3,0.3-0.5,0.4-0.8c0.3,0.5,0.4,0.7,0.7,1.2c1.9,0.6,2.8,1,4.7,1.6c0-3,0-4.6,0-7.6 c-15.1-2.7-30.1-5.2-45.2-7.6C570.1,703.8,583.3,708.2,596.4,712.9z" fill="#FFCC00"/>
    <path d="M587.7,712.3c2.9,1.5,4.3,2.2,7.1,3.7c0.6-1.2,1-1.8,1.6-3.1c-13.1-4.6-26.2-9-39.4-13.3 c0.1,0.1,0.1,0.1,0.2,0.2c9,7.8,18,15.7,26.8,23.8C585.5,719,586.2,716.8,587.7,712.3z" fill="#FFCC00"/>
    <path d="M597.5,713.2c1.5,2.5,2.3,3.7,3.8,6.2c0.9,0.4,1.3,0.6,2.2,1c0.8-1,1.1-1.4,1.9-2.4 c0.1-0.1,0.1-0.2,0.1-0.3c0.5-0.5,0.7-0.8,1.2-1.3c-1-0.3-1.5-0.4-2.5-0.7c-0.8-0.3-1.2-0.5-2.1-0.8 C600.3,714.2,599.4,713.8,597.5,713.2z" fill="#FFCC00"/>
    <path d="M601.3,719.4c1.6,2.6,2.5,3.9,4.1,6.5c1.1-0.9,1.6-1.4,2.7-2.3c0.2-0.2,0.4-0.3,0.6-0.5 c-0.5-0.3-0.7-0.4-1.2-0.7c-1.6-0.8-2.4-1.2-4-2.1C602.6,720,602.2,719.8,601.3,719.4z" fill="#FFCC00"/>
    <path d="M587.7,712.3c-1.5,4.5-2.2,6.8-3.7,11.3v0.1c-3.3,10-6.7,19.9-10.1,29.9c7.1-12.5,14-25,20.9-37.6 C592,714.5,590.5,713.7,587.7,712.3z" fill="#FFCC00"/>
    <path d="M605.4,725.9c-1.7-2.6-2.5-3.9-4.1-6.5c-1.5-2.5-2.3-3.7-3.8-6.2c-0.3-0.5-0.4-0.7-0.7-1.2 c-0.2,0.3-0.3,0.5-0.4,0.8c-0.6,1.2-1,1.8-1.6,3.1c-6.9,12.6-13.9,25.1-20.9,37.6c8.8-4.9,17.5-9.9,26.2-15 c3.8-2.3,5.8-3.5,9.7-5.8C608,730,607.2,728.6,605.4,725.9z" fill="#FFCC00"/>
    <path d="M304.4,366.9c-3.5,10.4-7,20.9-10.5,31.3c2.2,0.1,3.4,0.1,5.6,0.1C301.2,387.9,302.8,377.4,304.4,366.9z" fill="#FFCC00"/>
    <path d="M315.1,398.9c-3.6-10.7-7.1-21.3-10.6-32c-1.6,10.5-3.2,21-4.9,31.5C305.7,398.5,308.8,398.6,315.1,398.9z " fill="#FFCC00"/>
    <path d="M306.8,405.4c0.1,0,0.2,0,0.3,0c0.3-0.4,0.5-0.6,0.8-1c0.2,0.4,0.3,0.6,0.5,0.9 c14.1-1.7,28.1-3.2,42.2-4.5c-14.6-0.9-29.2-1.7-43.8-2.3C306.8,401.3,306.8,402.7,306.8,405.4z" fill="#FFCC00"/>
    <path d="M309,406.7c1.1,0.2,1.6,0.2,2.7,0.4c-0.5,0.6-0.8,0.9-1.3,1.5c2.9-0.8,4.4-1.2,7.3-2 c1.6,4.8,2.4,7.3,4,12.1c9.6-6.1,19.1-12,28.8-17.9c-14.1,1.3-28.2,2.8-42.2,4.5C308.6,405.9,308.8,406.2,309,406.7z" fill="#FFCC00"/>
    <path d="M306.8,405.4c0,0.2,0,0.3,0,0.5c0.1-0.2,0.2-0.3,0.3-0.4C307,405.5,306.9,405.4,306.8,405.4z" fill="#FFCC00"/>
    <path d="M310.4,408.6c-0.1,0.1-0.1,0.2-0.2,0.3c0.9,1.7,1.3,2.5,2.2,4.2c0.5,0.2,0.8,0.3,1.3,0.5 c-0.3,0.2-0.4,0.4-0.6,0.6c6.5,12.3,13,24.6,19.5,36.8c0-0.1,0-0.1-0.1-0.2c-3.6-10.7-7.2-21.4-10.8-32.1c-1.6-4.8-2.4-7.3-4-12.1 C314.8,407.4,313.4,407.8,310.4,408.6z" fill="#FFCC00"/>
    <path d="M308.4,405.3c-0.2-0.4-0.3-0.6-0.5-0.9c-0.3,0.4-0.5,0.6-0.8,1c-0.1,0.2-0.2,0.3-0.3,0.4 c0,0.1,0,0.2,0,0.3c0.9,0.2,1.3,0.3,2.2,0.5C308.8,406.2,308.6,405.9,308.4,405.3z" fill="#FFCC00"/>
    <path d="M313.2,414.2c-1.1,1.1-1.7,1.6-2.9,2.6c1.8,2.5,2.8,3.8,4.6,6.3c-4.2,2.8-6.3,4.2-10.5,7.1 c9.4,6.9,18.8,13.9,28.2,20.8C326.1,438.8,319.6,426.5,313.2,414.2z" fill="#FFCC00"/>
    <path d="M312.5,413.1c-0.9-1.7-1.3-2.5-2.2-4.2c-0.8,1.1-1.2,1.6-2.1,2.7C309.9,412.2,310.8,412.5,312.5,413.1z" fill="#FFCC00"/>
    <path d="M301,404.2c0.3,0.4,0.5,0.7,0.8,1.1c2,0.4,3,0.6,5,0.9c0-3.1,0-4.6,0-7.6c-15.2-0.5-30.4-0.7-45.6-0.6 c13.1,2.2,26.2,4.6,39.3,7.2C300.7,404.7,300.8,404.5,301,404.2z" fill="#FFCC00"/>
    <path d="M291.3,405.8c3,1,4.5,1.6,7.5,2.6c0.7-1.3,1-2,1.7-3.3c-13.1-2.6-26.2-4.9-39.3-7.2 c8.8,6.6,17.5,13.1,26.3,19.7C289,412.9,289.8,410.5,291.3,405.8z" fill="#FFCC00"/>
    <path d="M308.2,411.6c0.8-1.1,1.2-1.6,2.1-2.7c0.1-0.1,0.1-0.2,0.2-0.3c0.5-0.6,0.8-0.9,1.3-1.5 c-1.1-0.2-1.6-0.2-2.7-0.4c-0.9-0.2-1.3-0.3-2.2-0.5c-2-0.4-3-0.6-5-0.9c1.6,2.2,2.5,3.4,4.1,5.6 C306.8,411.2,307.3,411.3,308.2,411.6z" fill="#FFCC00"/>
    <path d="M298.8,408.4c-3-1.1-4.5-1.6-7.5-2.6c-1.5,4.7-2.3,7.1-3.8,11.8v0.1c-3.4,10.5-6.8,21-10.1,31.5 C284.4,435.6,291.5,422,298.8,408.4z" fill="#FFCC00"/>
    <path d="M305.9,410.9c1.8,2.4,2.7,3.6,4.4,6c1.1-1.1,1.7-1.6,2.9-2.6c0.3-0.2,0.4-0.4,0.6-0.6 c-0.5-0.2-0.8-0.3-1.3-0.5c-1.7-0.6-2.6-0.9-4.3-1.5C307.3,411.3,306.8,411.2,305.9,410.9z" fill="#FFCC00"/>
    <path d="M310.3,416.9c-1.8-2.4-2.7-3.6-4.4-6c-1.6-2.3-2.5-3.4-4.1-5.6c-0.3-0.4-0.5-0.7-0.8-1.1 c-0.2,0.4-0.3,0.5-0.5,0.9c-0.7,1.3-1,2-1.7,3.3c-7.3,13.6-14.4,27.2-21.5,40.8c9-6.5,18-12.8,27.1-19c4.2-2.9,6.3-4.3,10.5-7.1 C313.1,420.6,312.1,419.4,310.3,416.9z" fill="#FFCC00"/>
    <path d="M424.9,220.7c10-5.4,20-10.8,30.1-16.1c-2-1.5-3-2.3-5-3.8C441.6,207.4,433.2,214,424.9,220.7z" fill="#FFCC00"/>
    <path d="M443.7,195.9c-2.9-2.2-4.4-3.3-7.4-5.6c-3.8,10.1-7.6,20.2-11.4,30.3c8.4-6.7,16.7-13.3,25.1-19.9 C447.5,198.8,446.2,197.8,443.7,195.9z" fill="#FFCC00"/>
    <path d="M448.1,190.8c-0.1-0.1-0.2-0.1-0.3-0.2c-0.5,0.1-0.8,0.2-1.4,0.3c0.1-0.4,0.1-0.5,0.2-0.9 c-13.4-7.6-26.9-15.1-40.4-22.5c0.1,0.1,0.1,0.1,0.2,0.2c10,7.5,19.9,15.1,29.9,22.7c2.9,2.2,4.4,3.3,7.4,5.6 C445.4,193.8,446.3,192.8,448.1,190.8z" fill="#FFCC00"/>
    <path d="M446.6,190c0.1-0.6,0.1-0.9,0.2-1.5c-0.8-0.8-1.1-1.2-1.9-2c0.8-0.2,1.1-0.2,1.9-0.4 c-3.1-1.3-4.6-1.9-7.7-3.2c1.8-4.6,2.7-6.8,4.4-11.4c-12.4-1.4-24.8-2.8-37.3-4C419.7,174.9,433.1,182.4,446.6,190z" fill="#FFCC00"/>
    <path d="M448.1,190.8c0.1-0.1,0.2-0.2,0.3-0.3c-0.3,0-0.4,0-0.7,0.1C447.9,190.6,448,190.7,448.1,190.8z" fill="#FFCC00"/>
    <path d="M439,182.9c3.1,1.3,4.6,1.9,7.7,3.2c0.2,0,0.3-0.1,0.5-0.1c0.3-1.8,0.4-2.7,0.7-4.5 c-0.3-0.5-0.5-0.7-0.9-1.2c0.5,0,0.7,0,1.2,0c2.2-13,4.4-26,6.6-39c-3.8,10.1-7.6,20.2-11.4,30.2C441.7,176,440.8,178.3,439,182.9 z" fill="#FFCC00"/>
    <path d="M446.6,190c-0.1,0.4-0.1,0.5-0.2,0.9c0.5-0.1,0.8-0.2,1.4-0.3c0.3,0,0.4,0,0.7-0.1 c0.1-0.1,0.1-0.2,0.2-0.3c-0.8-0.7-1.1-1-1.9-1.7C446.7,189.1,446.6,189.4,446.6,190z" fill="#FFCC00"/>
    <path d="M448.3,180.3c1.6-0.1,2.5-0.1,4.1-0.1c0-3.1,0-4.6,0-7.6c5.6,0.7,8.4,1,14,1.7c-3.8-11-7.6-22-11.4-33 C452.7,154.2,450.5,167.2,448.3,180.3z" fill="#FFCC00"/>
    <path d="M447.9,181.4c-0.3,1.8-0.4,2.7-0.7,4.5c1.4-0.3,2.2-0.4,3.6-0.6C449.7,183.7,449.1,183,447.9,181.4z" fill="#FFCC00"/>
    <path d="M452.4,195.4c0-0.5,0-0.7,0-1.2c-1.5-1.6-2.3-2.4-3.8-4c-0.1,0.1-0.1,0.2-0.2,0.3s-0.2,0.2-0.3,0.3 c-1.8,2-2.7,3.1-4.4,5.1c2.5,1.9,3.8,2.9,6.3,4.9c2,1.5,3,2.3,5,3.8c10,7.7,20,15.5,29.9,23.3c-10.4-10.9-20.9-21.8-31.4-32.7 C453,195.3,452.8,195.3,452.4,195.4z" fill="#FFCC00"/>
    <path d="M450.8,185.3c-1.6,0.3-2.5,0.4-4.1,0.7c-0.8,0.2-1.1,0.2-1.9,0.4c0.8,0.8,1.1,1.2,1.9,2 c0.8,0.7,1.1,1,1.9,1.7c1.5,1.6,2.3,2.4,3.8,4c0-2.7,0-4,0-6.7C451.8,186.6,451.4,186.2,450.8,185.3z" fill="#FFCC00"/>
    <path d="M457.1,193.8c-1.5,0.6-2.3,0.8-3.8,1.4c10.5,10.8,21,21.7,31.4,32.7c-3.8-11-7.6-22-11.4-33.1 c-4.5,2.4-6.7,3.5-11.2,5.9C460.2,198,459.2,196.6,457.1,193.8z" fill="#FFCC00"/>
    <path d="M452.4,187.5c0-2.9,0-4.4,0-7.3c-1.6,0-2.5,0.1-4.1,0.1c-0.5,0-0.7,0-1.2,0c0.3,0.5,0.5,0.7,0.9,1.2 c1.2,1.5,1.7,2.3,2.9,3.9C451.4,186.2,451.8,186.6,452.4,187.5z" fill="#FFCC00"/>
    <path d="M457.1,193.8c2,2.8,3.1,4.1,5.1,6.9c4.5-2.4,6.7-3.6,11.2-5.9c9.8-5.2,19.6-10.4,29.4-15.6 c0.1,0,0.1-0.1,0.2-0.1C487.8,183.9,472.4,188.8,457.1,193.8z" fill="#FFCC00"/>
    <path d="M452.4,172.5c0,9.2,0,13.7,0,22.9c0.4-0.1,0.6-0.1,1-0.2c1.5-0.6,2.3-0.8,3.8-1.4 c15.3-5,30.6-9.9,45.9-14.7C486.2,176.7,469.3,174.6,452.4,172.5z" fill="#FFCC00"/>
    <path d="M372.7,316.4c0-0.1,0-0.1-0.1-0.2c-3.7-10.8-7.5-21.6-11.2-32.4c-1.9,1.2-2.9,1.8-4.8,3 C361.9,296.6,367.3,306.5,372.7,316.4z" fill="#FFCC00"/>
    <path d="M356.6,286.7c-2.5,1.5-3.7,2.2-6.1,3.7c-2.9,1.7-4.3,2.6-7.1,4.3c9.8,7.2,19.6,14.4,29.3,21.6 C367.3,306.5,361.9,296.6,356.6,286.7z" fill="#FFCC00"/>
    <path d="M350.4,290.4c-1.8-2.4-2.7-3.6-4.5-5.9c-0.1,0.1-0.1,0.2-0.2,0.3c0,0.5,0,0.7,0,1.2 c-0.4-0.2-0.6-0.3-1-0.5c-10.1,8.9-20.2,18-30.1,27.3c9.5-6.1,19-12.1,28.6-18C346.2,293,347.6,292.1,350.4,290.4z" fill="#FFCC00"/>
    <path d="M344.8,285.5c-0.6-0.3-0.9-0.4-1.5-0.7c-1,0.4-1.5,0.5-2.5,0.9c0-0.7,0-1.1,0-1.8 c-1.8,2.3-2.7,3.4-4.4,5.7c-4.4-3.2-6.6-4.9-10.9-8.1c-3.6,10.3-7.2,20.7-10.7,31.1c0,0.1,0,0.1-0.1,0.2 C324.6,303.5,334.7,294.5,344.8,285.5z" fill="#FFCC00"/>
    <path d="M346,284.5c-0.1-0.1-0.1-0.2-0.2-0.3c0,0.2,0,0.4,0,0.6C345.9,284.7,345.9,284.6,346,284.5z" fill="#FFCC00"/>
    <path d="M340.8,283.9c0-0.1,0-0.2,0-0.3c-1.8-1-2.7-1.4-4.4-2.4c-0.5,0.2-0.8,0.2-1.3,0.4c0.1-0.4,0.1-0.6,0.2-1.1 c-12.6-6.6-25.1-13.1-37.7-19.6c9.3,6.9,18.6,13.8,28,20.6c4.3,3.2,6.5,4.8,10.9,8.1C338.2,287.3,339.1,286.2,340.8,283.9z" fill="#FFCC00"/>
    <path d="M344.8,285.5c0.4,0.2,0.6,0.3,1,0.5c0-0.7,0-1.1,0-1.8c-0.1-0.1-0.2-0.2-0.3-0.3c-0.9,0.4-1.3,0.6-2.1,0.9 C343.9,285.1,344.2,285.2,344.8,285.5z" fill="#FFCC00"/>
    <path d="M335.9,276.9c-3.1-1.2-4.7-1.7-7.8-2.9c1.7-4.7,2.5-7,4.2-11.7c-11.6-0.6-23.2-1.1-34.8-1.5 c12.6,6.5,25.2,13.1,37.7,19.6C335.5,279.1,335.7,278.3,335.9,276.9z" fill="#FFCC00"/>
    <path d="M336.4,281.2c1.8,1,2.7,1.4,4.4,2.4c0-1.4,0-2.1,0-3.5C339.1,280.5,338.2,280.7,336.4,281.2z" fill="#FFCC00"/>
    <path d="M351.4,281.5c0.1,0.4,0.1,0.6,0.2,1.1c-0.5-0.2-0.8-0.3-1.3-0.5c-1.9,0.7-2.9,1.1-4.8,1.8 c0.1,0.1,0.2,0.2,0.3,0.3c0.1,0.1,0.1,0.2,0.2,0.3c1.8,2.4,2.7,3.6,4.5,5.9c2.5-1.5,3.7-2.2,6.1-3.7c1.9-1.2,2.9-1.8,4.8-3 c9.9-5.8,19.7-11.5,29.7-17.1C377.8,271.5,364.6,276.4,351.4,281.5z" fill="#FFCC00"/>
    <path d="M354.6,263.7c1.7,4.9,2.5,7.3,4.2,12.2c-3.2,0.7-4.8,1.1-8,1.9c0.3,1.5,0.4,2.2,0.7,3.7 c13.2-5.1,26.4-10.1,39.7-14.9C378.9,265.5,366.8,264.6,354.6,263.7z" fill="#FFCC00"/>
    <path d="M340.8,280.1c0,2.3,0,3.4,0,5.6c1-0.4,1.5-0.6,2.5-0.9c0.9-0.4,1.3-0.6,2.1-0.9c1.9-0.7,2.9-1.1,4.8-1.8 c-2.8-1-4.2-1.6-6.9-2.6C342.3,279.7,341.8,279.8,340.8,280.1z" fill="#FFCC00"/>
    <path d="M343.3,279.5c-3-1-4.4-1.6-7.4-2.6c-0.3,1.5-0.4,2.2-0.7,3.6c-0.1,0.4-0.1,0.6-0.2,1.1 c0.5-0.2,0.8-0.2,1.3-0.4c1.8-0.4,2.7-0.7,4.4-1.1C341.8,279.8,342.3,279.7,343.3,279.5z" fill="#FFCC00"/>
    <path d="M358.7,275.9c-1.7-4.9-2.5-7.3-4.2-12.2c-3.8-10.8-7.5-21.6-11.3-32.3c2.5,15.5,5,31,7.4,46.4 C353.9,277,355.5,276.7,358.7,275.9z" fill="#FFCC00"/>
    <path d="M335.9,276.9c2.9,1,4.4,1.5,7.4,2.6c2.8,1,4.2,1.5,6.9,2.6c0.5,0.2,0.8,0.3,1.3,0.5 c-0.1-0.4-0.1-0.6-0.2-1.1c-0.3-1.5-0.4-2.2-0.7-3.7c-2.5-15.5-5-31-7.4-46.4c-3.7,10.3-7.3,20.6-11,31c-1.7,4.7-2.5,7-4.2,11.7 C331.2,275.1,332.8,275.7,335.9,276.9z" fill="#FFCC00"/>
    <path d="M356.5,544c11.6-0.9,23.1-1.8,34.7-2.6c-12.2-1.1-24.4-2.1-36.6-2.9C355.4,540.7,355.7,541.8,356.5,544z" fill="#FFCC00"/>
    <path d="M356.5,544c0.9,2.7,1.4,4,2.3,6.7c1.1,3.1,1.6,4.7,2.7,7.8c9.8-5.7,19.6-11.4,29.5-17 c0.1-0.1,0.1-0.1,0.2-0.1C379.6,542.2,368,543,356.5,544z" fill="#FFCC00"/>
    <path d="M351.6,552.3c0.1,0.1,0.1,0.2,0.2,0.3c0.5,0.2,0.8,0.3,1.3,0.5c-0.3,0.2-0.4,0.3-0.7,0.6 c6.7,12.5,13.5,24.9,20.3,37.4c-3.8-10.9-7.5-21.7-11.3-32.6c-1.1-3.1-1.6-4.7-2.7-7.8C355.9,551.4,354.5,551.7,351.6,552.3z" fill="#FFCC00"/>
    <path d="M351.3,554.8c0.1,1,0.2,1.6,0.3,2.6c-0.7-0.3-1.1-0.4-1.8-0.7c1.9,2.4,2.8,3.7,4.7,6.1 c-4.5,2.7-6.7,4-11.1,6.8c9.8,7.2,19.6,14.4,29.4,21.6c-6.8-12.4-13.5-24.9-20.3-37.4C352,554.2,351.8,554.4,351.3,554.8z" fill="#FFCC00"/>
    <path d="M351.8,552.7c-0.1-0.1-0.1-0.2-0.2-0.3c-0.1,0.1-0.2,0.1-0.3,0.1C351.5,552.6,351.6,552.6,351.8,552.7z" fill="#FFCC00"/>
    <path d="M349.8,556.7c-0.2-0.1-0.3-0.1-0.5-0.2c-1.4,1.3-2.1,1.9-3.5,3.1c0,0.5,0,0.7,0,1.2 c-0.4-0.2-0.6-0.3-1-0.5c-10.2,9-20.2,18-30.1,27.3c9.5-6.1,19-12.1,28.6-18.1c4.4-2.7,6.6-4.1,11.1-6.8 C352.6,560.3,351.7,559.1,349.8,556.7z" fill="#FFCC00"/>
    <path d="M350.8,552.6c0.2,0.9,0.3,1.3,0.5,2.2c0.7-0.6,1.1-0.9,1.8-1.6c-0.5-0.2-0.8-0.3-1.3-0.5 c-0.2-0.1-0.3-0.1-0.5-0.2C351.1,552.5,351,552.5,350.8,552.6z" fill="#FFCC00"/>
    <path d="M341.2,558.4c-1.9,2.4-2.9,3.6-4.8,6c-4.4-3.2-6.6-4.9-10.9-8.1v0.1c-3.6,10.4-7.2,20.8-10.7,31.1 c9.9-9.2,19.9-18.3,30.1-27.3C343.4,559.5,342.7,559.2,341.2,558.4z" fill="#FFCC00"/>
    <path d="M345.8,559.6c1.4-1.3,2.1-1.9,3.5-3.1c-1.4-0.5-2.1-0.8-3.5-1.3C345.8,556.9,345.8,557.8,345.8,559.6z" fill="#FFCC00"/>
    <path d="M350,546.4c0.4,0.1,0.6,0.1,1,0.2c-0.3,0.4-0.5,0.6-0.8,1c0.3,2,0.4,3,0.7,4.9c0.2,0,0.3-0.1,0.5-0.1 c0.1-0.1,0.2-0.1,0.3-0.1c2.9-0.7,4.3-1,7.2-1.6c-0.9-2.7-1.4-4-2.3-6.7c-0.7-2.2-1.1-3.3-1.8-5.5c-3.8-10.8-7.5-21.6-11.3-32.3 C345.6,519.6,347.8,533,350,546.4z" fill="#FFCC00"/>
    <path d="M345.8,537.9c0,3.1,0,4.6,0,7.6c1.7,0.3,2.5,0.5,4.1,0.9c-2.2-13.4-4.4-26.8-6.6-40.3 c-3.7,10.3-7.3,20.6-11,31C337.7,537.4,340.4,537.6,345.8,537.9z" fill="#FFCC00"/>
    <path d="M350.1,547.7c-1.7,2.1-2.6,3.1-4.3,5.2c0,0.9,0,1.4,0,2.3c1.4,0.5,2.1,0.8,3.5,1.3 c0.2,0.1,0.3,0.1,0.5,0.2c0.7,0.3,1.1,0.4,1.8,0.7c-0.1-1-0.2-1.6-0.3-2.6c-0.2-0.9-0.3-1.3-0.5-2.2 C350.5,550.6,350.4,549.6,350.1,547.7z" fill="#FFCC00"/>
    <path d="M345.8,552.9c-1.9,2.2-2.8,3.3-4.6,5.5c1.4,0.8,2.2,1.1,3.6,1.9c0.4,0.2,0.6,0.3,1,0.5 C345.8,557.6,345.8,556.1,345.8,552.9z" fill="#FFCC00"/>
    <path d="M345.8,545.6c0-3.1,0-4.6,0-7.6c-16.1-1-32.2-1.8-48.3-2.2C313.7,538.8,329.8,542.1,345.8,545.6z" fill="#FFCC00"/>
    <path d="M336.5,564.4c1.9-2.4,2.9-3.6,4.8-6c1.8-2.2,2.8-3.3,4.6-5.5c1.7-2.1,2.6-3.1,4.3-5.2 c0.3-0.4,0.5-0.6,0.8-1c-0.4-0.1-0.6-0.1-1-0.2c-1.7-0.4-2.5-0.5-4.1-0.9c-16.1-3.5-32.2-6.8-48.3-9.9c0.1,0.1,0.1,0.1,0.2,0.2 c9.3,6.8,18.5,13.7,27.8,20.5C329.9,559.5,332.1,561.1,336.5,564.4z" fill="#FFCC00"/>
    <path d="M468.6,655.6c11.6-0.3,23.1-0.6,34.7-0.8c-12.2-1.7-24.5-3.3-36.8-4.8 C467.4,652.3,467.8,653.4,468.6,655.6z" fill="#FFCC00"/>
    <path d="M468.6,655.6c0.3,1,0.5,1.4,0.9,2.4c0.1,0.4,0.2,0.6,0.3,1c0.5,1.4,0.7,2.1,1.2,3.5c1.1,3.2,1.6,4.8,2.7,8 l0,0c9.9-5.2,19.7-10.4,29.6-15.6C491.8,655,480.2,655.3,468.6,655.6z" fill="#FFCC00"/>
    <path d="M471,662.5c-2.9,0.5-4.4,0.7-7.3,1.2c0.1,0.1,0.1,0.2,0.2,0.3c0.5,0.2,0.8,0.4,1.4,0.6 c-0.3,0.2-0.4,0.3-0.7,0.5c6.9,12.8,13.7,25.6,20.5,38.4c-3.8-11.1-7.6-22.1-11.4-33.2C472.7,667.2,472.1,665.7,471,662.5z" fill="#FFCC00"/>
    <path d="M463.4,666.1c0.1,1.1,0.2,1.6,0.3,2.6c-0.8-0.3-1.2-0.5-2-0.9c1.9,2.6,2.9,3.8,4.8,6.4 c-4.5,2.4-6.7,3.6-11.2,6c10,7.7,20,15.5,29.9,23.4c-6.8-12.8-13.7-25.6-20.5-38.4C464.1,665.5,463.8,665.7,463.4,666.1z" fill="#FFCC00"/>
    <path d="M463.9,664c-0.1-0.1-0.1-0.2-0.2-0.3c-0.1,0-0.2,0.1-0.3,0.1C463.6,663.9,463.7,663.9,463.9,664z" fill="#FFCC00"/>
    <path d="M461.7,667.9c-0.1-0.1-0.2-0.1-0.3-0.2c-1.4,1.2-2.1,1.8-3.6,2.9c0,0.5,0,0.7,0,1.2 c-0.4-0.2-0.6-0.3-1-0.6c-10.6,8.4-21.1,16.8-31.7,25.3c10-5.5,20.1-10.9,30.1-16.3c4.5-2.4,6.8-3.6,11.2-6 C464.5,671.7,463.6,670.4,461.7,667.9z" fill="#FFCC00"/>
    <path d="M462.9,663.9c0.2,0.9,0.3,1.3,0.5,2.2c0.5-0.4,0.7-0.6,1.2-0.9c0.3-0.2,0.4-0.3,0.7-0.5 c-0.5-0.2-0.8-0.4-1.4-0.6c-0.2-0.1-0.3-0.1-0.5-0.2S463.1,663.9,462.9,663.9z" fill="#FFCC00"/>
    <path d="M456.7,671.2c-1.5-0.8-2.3-1.3-3.8-2.1c-2,2.2-3.1,3.3-5.1,5.5c-4.5-3.4-6.8-5.2-11.3-8.6 c-3.8,10.1-7.6,20.2-11.4,30.3c0,0.1,0,0.1-0.1,0.2C435.6,688.1,446.1,679.6,456.7,671.2z" fill="#FFCC00"/>
    <path d="M457.7,670.6c1.4-1.2,2.1-1.8,3.6-2.9c-1.4-0.6-2.1-0.9-3.6-1.5C457.7,668,457.7,668.8,457.7,670.6z" fill="#FFCC00"/>
    <path d="M463,658c-0.3,0.4-0.5,0.6-0.9,1c0.3,2,0.4,3,0.7,5c0.2,0,0.3-0.1,0.5-0.1c0.1,0,0.2-0.1,0.3-0.1 c2.9-0.5,4.4-0.7,7.3-1.2c-0.5-1.4-0.7-2.1-1.2-3.5c-0.1-0.4-0.2-0.6-0.3-1c-0.3-1-0.5-1.4-0.9-2.4c-0.8-2.2-1.2-3.4-2-5.6 c-3.8-11-7.6-22-11.4-33c2.2,13.5,4.5,27.1,6.7,40.6C462.3,657.8,462.5,657.8,463,658z" fill="#FFCC00"/>
    <path d="M457.7,648.9c0,3.1,0,4.6,0,7.6c1.6,0.4,2.5,0.7,4.1,1.1c-2.2-13.5-4.4-27.1-6.7-40.6 c-3.8,10.1-7.6,20.2-11.4,30.3C449.3,647.9,452.1,648.3,457.7,648.9z" fill="#FFCC00"/>
    <path d="M462.2,658.9c-1.8,2-2.7,3-4.4,5c0,0.9,0,1.4,0,2.3c1.4,0.6,2.2,0.9,3.6,1.5c0.1,0.1,0.2,0.1,0.3,0.2 c0.8,0.3,1.2,0.5,2,0.9c-0.1-1.1-0.2-1.6-0.3-2.6c-0.2-0.9-0.3-1.3-0.5-2.2C462.6,661.9,462.4,660.9,462.2,658.9z" fill="#FFCC00"/>
    <path d="M457.7,663.9c-1.9,2.1-2.9,3.1-4.8,5.2c1.5,0.8,2.3,1.3,3.8,2.1c0.4,0.2,0.6,0.3,1,0.6 C457.7,668.7,457.7,667.1,457.7,663.9z" fill="#FFCC00"/>
    <path d="M457.7,656.6c0-3.1,0-4.6,0-7.6c-17.1-2-34.2-3.9-51.3-5.6C423.5,647.6,440.7,652,457.7,656.6z" fill="#FFCC00"/>
    <path d="M447.8,674.6c2.1-2.2,3.1-3.3,5.1-5.5c1.9-2.1,2.9-3.1,4.8-5.2c1.8-2,2.7-3,4.4-5c0.3-0.4,0.5-0.6,0.9-1 c-0.5-0.1-0.7-0.2-1.2-0.3c-18.4-4.9-36.9-9.7-55.4-14.3c10.1,7.5,20.1,15.1,30.1,22.6l0,0C441.1,669.5,443.3,671.2,447.8,674.6z" fill="#FFCC00"/>
    <path d="M906.1,464.5c-3.5-10.6-7-21.2-10.5-31.8c1.6,10.5,3.2,21.1,4.9,31.6C902.7,464.4,903.8,464.5,906.1,464.5 z" fill="#FFCC00"/>
    <path d="M900.5,464.4c-1.6-10.5-3.2-21.1-4.9-31.6c-3.5,10.4-7.1,20.8-10.6,31.1 C891.2,464.1,894.3,464.2,900.5,464.4z" fill="#FFCC00"/>
    <path d="M891.7,470.8c0.2-0.4,0.3-0.5,0.5-0.9c0.3,0.4,0.5,0.7,0.8,1.1c0.1,0,0.2,0,0.3,0c0-2.7,0-4.1,0-6.8 c-14.6-0.5-29.1-1.2-43.7-2C863.6,465.2,877.6,468,891.7,470.8z" fill="#FFCC00"/>
    <path d="M882.3,471.4c2.9,1,4.4,1.5,7.3,2.5c-0.5-0.6-0.8-0.9-1.3-1.6c1.1-0.1,1.6-0.1,2.7-0.2 c0.3-0.5,0.4-0.8,0.6-1.3c-14.1-2.8-28.1-5.7-42.1-8.6c0.1,0.1,0.1,0.1,0.2,0.2c9.5,6.9,19,13.8,28.5,20.8 C879.9,478.4,880.7,476.1,882.3,471.4z" fill="#FFCC00"/>
    <path d="M893.2,471c-0.1,0-0.2,0-0.3,0c0.1,0.2,0.2,0.3,0.3,0.5C893.2,471.3,893.2,471.2,893.2,471z" fill="#FFCC00"/>
    <path d="M886.3,478.7c0.5-0.2,0.8-0.2,1.3-0.4c0.9-1.6,1.3-2.4,2.2-4c-0.1-0.1-0.1-0.2-0.2-0.3 c-2.9-1-4.4-1.5-7.3-2.5c-1.6,4.7-2.4,7-4,11.7v0.1c-3.6,10.4-7.2,20.7-10.8,31c6.6-11.6,13.1-23.3,19.5-34.9 C886.6,479.1,886.5,479,886.3,478.7z" fill="#FFCC00"/>
    <path d="M893.2,471.5c-0.1-0.2-0.2-0.3-0.3-0.5c-0.3-0.4-0.5-0.7-0.8-1.1c-0.2,0.4-0.3,0.5-0.5,0.9 c-0.3,0.5-0.4,0.8-0.6,1.3c0.9-0.2,1.3-0.2,2.2-0.4C893.2,471.7,893.2,471.6,893.2,471.5z" fill="#FFCC00"/>
    <path d="M889.8,482.2c-1.1-1.1-1.7-1.7-2.9-2.8c-6.4,11.7-12.9,23.3-19.5,34.9c9.5-6,18.8-12.2,28.2-18.4 c-4.2-3.1-6.2-4.7-10.5-7.8C887,485.7,887.9,484.5,889.8,482.2z" fill="#FFCC00"/>
    <path d="M889.8,474.3c-0.9,1.6-1.3,2.4-2.2,4c1.7-0.5,2.6-0.7,4.3-1.2C891,475.9,890.6,475.4,889.8,474.3z" fill="#FFCC00"/>
    <path d="M893.2,464.2c0,3,0,4.6,0,7.6c2-0.2,3-0.4,5-0.6c0.3-0.4,0.5-0.6,0.8-1c0.2,0.4,0.3,0.6,0.5,0.9 c13.2-1.8,26.3-3.9,39.4-6.3C923.7,464.8,908.5,464.6,893.2,464.2z" fill="#FFCC00"/>
    <path d="M899.5,471.1c0.7,1.4,1,2,1.7,3.4c3-0.9,4.5-1.4,7.4-2.3c1.5,4.8,2.3,7.2,3.8,11.9 c8.9-6.4,17.7-12.8,26.4-19.4C925.8,467.1,912.7,469.2,899.5,471.1z" fill="#FFCC00"/>
    <path d="M891,472.2c-1.1,0.1-1.6,0.1-2.7,0.2c0.5,0.6,0.8,0.9,1.3,1.6c0.1,0.1,0.1,0.2,0.2,0.3 c0.8,1.1,1.2,1.7,2.1,2.8c0.9-0.2,1.4-0.3,2.4-0.5c1.6-2.1,2.5-3.2,4.1-5.4c-2,0.2-3,0.4-5,0.6C892.4,471.9,891.9,472,891,472.2z" fill="#FFCC00"/>
    <path d="M887.5,478.3c-0.5,0.2-0.8,0.2-1.3,0.4c1.4,1.4,2.1,2.1,3.5,3.5c1.8-2.3,2.7-3.4,4.4-5.6 c-0.9,0.2-1.4,0.3-2.4,0.5C890.1,477.6,889.3,477.8,887.5,478.3z" fill="#FFCC00"/>
    <path d="M901.2,474.4c7.2,13.8,14.4,27.6,21.4,41.4c-3.4-10.6-6.8-21.2-10.2-31.8c-1.5-4.8-2.3-7.2-3.8-11.9 C905.7,473.1,904.2,473.5,901.2,474.4z" fill="#FFCC00"/>
    <path d="M899.5,471.1c-0.2-0.4-0.3-0.6-0.5-0.9c-0.3,0.4-0.5,0.6-0.8,1c-1.6,2.1-2.4,3.2-4.1,5.4 c-1.8,2.3-2.6,3.4-4.4,5.6c-1.8,2.4-2.8,3.6-4.6,5.9c4.2,3.1,6.3,4.7,10.5,7.8c9,6.6,18.1,13.3,27.1,20 c-7.1-13.8-14.2-27.6-21.4-41.4C900.6,473.1,900.2,472.4,899.5,471.1z" fill="#FFCC00"/>
    <path d="M745.5,247.5c10,7.6,20,15.1,30,22.6c-8.4-8.4-16.7-16.8-25.1-25.3C748.4,245.9,747.4,246.4,745.5,247.5z" fill="#FFCC00"/>
    <path d="M750.4,244.8c8.3,8.5,16.7,16.9,25.1,25.3c-3.8-10.9-7.6-21.8-11.4-32.7c-2.9,1.6-4.4,2.4-7.3,4 C754.2,242.8,752.9,243.5,750.4,244.8z" fill="#FFCC00"/>
    <path d="M753.8,234.9c0.1,0.4,0.1,0.6,0.2,0.9c-0.5-0.2-0.8-0.4-1.4-0.6c-0.1,0-0.2,0.1-0.3,0.1 c1.8,2.4,2.7,3.7,4.4,6.1c2.9-1.6,4.4-2.4,7.3-4c10-5.5,19.9-11,29.8-16.6c0.1-0.1,0.1-0.1,0.2-0.1 C780.7,225.5,767.3,230.2,753.8,234.9z" fill="#FFCC00"/>
    <path d="M761.3,229.4c-3.1,0.6-4.6,0.9-7.7,1.5c0.8,0.3,1.1,0.5,1.9,0.8c-0.8,0.7-1.1,1-1.9,1.6 c0.1,0.6,0.1,0.9,0.2,1.5c13.5-4.6,26.9-9.3,40.3-14.1c-12.4-1.1-24.8-2.3-37.2-3.6C758.7,222,759.6,224.5,761.3,229.4z" fill="#FFCC00"/>
    <path d="M752.3,235.3c0.1,0,0.2-0.1,0.3-0.1c-0.3-0.1-0.4-0.1-0.7-0.2C752.1,235.1,752.1,235.2,752.3,235.3z" fill="#FFCC00"/>
    <path d="M752.1,224.8c0.5,0.1,0.7,0.2,1.2,0.3c-0.3,0.4-0.5,0.6-0.9,1c0.3,1.9,0.4,2.8,0.7,4.6 c0.2,0.1,0.3,0.1,0.5,0.2c3.1-0.6,4.6-0.9,7.7-1.5c-1.8-4.9-2.7-7.4-4.4-12.3c-3.8-10.9-7.6-21.9-11.4-32.8 C747.7,197.8,749.9,211.3,752.1,224.8z" fill="#FFCC00"/>
    <path d="M751.8,234.6c0.1,0.1,0.1,0.2,0.2,0.3c0.3,0.1,0.4,0.1,0.7,0.2c0.5,0.2,0.8,0.4,1.4,0.6 c-0.1-0.4-0.1-0.6-0.2-0.9c-0.1-0.6-0.1-0.9-0.2-1.5C752.9,233.8,752.5,234.1,751.8,234.6z" fill="#FFCC00"/>
    <path d="M748,216.1c0,3,0,4.6,0,7.6c1.6,0.4,2.5,0.6,4.1,1.1c-2.2-13.5-4.4-27-6.6-40.5 c-3.8,10.1-7.6,20.2-11.4,30.2C739.6,215.2,742.4,215.5,748,216.1z" fill="#FFCC00"/>
    <path d="M753.1,230.7c-0.3-1.9-0.4-2.8-0.7-4.6c-1.2,1.3-1.7,1.9-2.9,3.2C751,229.8,751.7,230.1,753.1,230.7z" fill="#FFCC00"/>
    <path d="M756.7,241.4c-1.8-2.4-2.7-3.7-4.4-6.1c-0.1-0.1-0.2-0.2-0.3-0.3s-0.1-0.2-0.2-0.3 c-1.5,1.2-2.3,1.9-3.8,3.1c0,0.5,0,0.7,0,1.2c-0.4-0.2-0.6-0.3-1-0.4c-10.5,8.3-20.9,16.6-31.4,24.9c10-5.3,19.9-10.6,29.9-16 c2-1.1,3-1.6,4.9-2.7C752.9,243.5,754.2,242.8,756.7,241.4z" fill="#FFCC00"/>
    <path d="M755.5,231.7c-0.8-0.3-1.1-0.5-1.9-0.8c-1.6-0.7-2.5-1-4.1-1.7c-0.6,0.7-0.9,1.1-1.5,1.8c0,2.7,0,4,0,6.7 c1.5-1.2,2.3-1.9,3.8-3.1c0.8-0.5,1.1-0.8,1.9-1.3C754.4,232.7,754.8,232.3,755.5,231.7z" fill="#FFCC00"/>
    <path d="M743.2,236.3c-2,2.3-3.1,3.4-5.1,5.7c-4.5-3.4-6.7-5.2-11.2-8.6c-3.8,10-7.6,20.1-11.3,30.1 c10.5-8.3,20.9-16.6,31.4-24.9C745.5,237.6,744.7,237.2,743.2,236.3z" fill="#FFCC00"/>
    <path d="M752.5,226c0.3-0.4,0.5-0.6,0.9-1c-0.5-0.1-0.7-0.2-1.2-0.3c-1.6-0.4-2.5-0.6-4.1-1.1c0,2.9,0,4.4,0,7.3 c0.6-0.7,0.9-1.1,1.5-1.8C750.7,227.9,751.3,227.3,752.5,226z" fill="#FFCC00"/>
    <path d="M743.2,236.3c-15.4-8.7-30.7-17.4-45.9-26.4c0.1,0.1,0.1,0.1,0.2,0.2c9.7,7.8,19.5,15.5,29.4,23.2 c4.5,3.5,6.7,5.2,11.2,8.6C740.2,239.7,741.2,238.5,743.2,236.3z" fill="#FFCC00"/>
    <path d="M743.2,236.3c1.5,0.9,2.2,1.3,3.7,2.2c0.4,0.2,0.6,0.3,1,0.4c0-9.1,0-13.7,0-22.8 c-16.9-1.9-33.8-3.9-50.7-6.2C712.6,218.8,727.9,227.6,743.2,236.3z" fill="#FFCC00"/>
    <path d="M843.6,347.7c-1.9-1.5-2.9-2.2-4.8-3.7v0.1c-3.7,10.2-7.4,20.4-11.1,30.6c0,0.1,0,0.1-0.1,0.2 C832.9,365.8,838.3,356.8,843.6,347.7z" fill="#FFCC00"/>
    <path d="M849.7,352.2c-2.4-1.8-3.7-2.7-6.1-4.5c-5.3,9.1-10.7,18.2-16,27.2c9.8-5.8,19.5-11.7,29.3-17.6 C854,355.2,852.6,354.2,849.7,352.2z" fill="#FFCC00"/>
    <path d="M855.3,347.9c-0.4,0.2-0.6,0.2-1,0.4c0-0.5,0-0.7,0-1.2c-0.1-0.1-0.1-0.2-0.2-0.3 c-1.8,2.2-2.7,3.2-4.5,5.4c2.8,2.1,4.3,3.1,7.1,5.1c9.5,6.9,19,13.9,28.5,20.8C875.3,368,865.3,358,855.3,347.9z" fill="#FFCC00"/>
    <path d="M863.7,352.9c-1.8-2.5-2.6-3.7-4.4-6.2c0,0.7,0,1.1,0,1.8c-1-0.5-1.5-0.7-2.5-1.2 c-0.6,0.2-0.9,0.3-1.5,0.5c10,10,20,20.1,30,30.2c0-0.1,0-0.1-0.1-0.2c-3.5-10.6-7.1-21.3-10.7-31.9 C870.2,348.8,868.1,350.2,863.7,352.9z" fill="#FFCC00"/>
    <path d="M854.3,346.5c-0.1,0.1-0.1,0.2-0.2,0.3c0.1,0.1,0.1,0.2,0.2,0.3C854.3,346.9,854.3,346.7,854.3,346.5z" fill="#FFCC00"/>
    <path d="M865,345.1c-0.5-0.2-0.8-0.3-1.3-0.5c-1.8,0.8-2.6,1.1-4.4,1.9c0,0.1,0,0.2,0,0.3c1.8,2.5,2.7,3.7,4.4,6.2 c4.4-2.8,6.6-4.1,10.9-6.9c9.4-6.1,18.7-12.2,27.9-18.5c-12.4,5.8-25,11.3-37.7,16.5C864.9,344.4,864.9,344.7,865,345.1z" fill="#FFCC00"/>
    <path d="M854.3,348.3c0.4-0.2,0.6-0.2,1-0.4c0.6-0.2,0.9-0.3,1.5-0.5c-0.9-0.5-1.3-0.7-2.1-1.2 c-0.1,0.1-0.2,0.2-0.3,0.3C854.3,347.2,854.3,347.6,854.3,348.3z" fill="#FFCC00"/>
    <path d="M872,338.3c-3.1,0.8-4.7,1.2-7.8,2.1c0.3,1.5,0.4,2.2,0.7,3.7c12.7-5.3,25.2-10.8,37.7-16.5 c-11.6-0.3-23.1-0.8-34.7-1.3C869.5,331,870.3,333.4,872,338.3z" fill="#FFCC00"/>
    <path d="M859.3,346.5c1.8-0.8,2.7-1.1,4.4-1.9c-1.8-0.6-2.6-1-4.4-1.6C859.3,344.4,859.3,345.1,859.3,346.5z" fill="#FFCC00"/>
    <path d="M843.6,347.7c2.5,1.8,3.7,2.7,6.1,4.5c1.8-2.1,2.7-3.2,4.5-5.4c0.1-0.1,0.1-0.2,0.2-0.3 c0.1-0.1,0.2-0.2,0.3-0.3c-1.9-1-2.9-1.4-4.8-2.4c-0.5,0.2-0.8,0.2-1.3,0.4c0.1-0.4,0.1-0.6,0.2-1.1 c-13.2-6.9-26.4-13.8-39.6-20.8c9.9,7.2,19.7,14.5,29.6,21.7C840.7,345.5,841.7,346.2,843.6,347.7z" fill="#FFCC00"/>
    <path d="M848.7,343.1c0.3-1.4,0.4-2.2,0.7-3.6c-3.2-1.2-4.8-1.8-8-2.9c1.7-4.6,2.5-7,4.2-11.6 c-12.1-0.8-24.3-1.6-36.4-2.6C822.3,329.3,835.5,336.2,848.7,343.1z" fill="#FFCC00"/>
    <path d="M859.3,348.6c0-2.3,0-3.4,0-5.6c-1-0.4-1.5-0.5-2.5-0.9c-2.8,0.7-4.1,1-6.9,1.7c1.9,1,2.9,1.4,4.8,2.4 c0.9,0.5,1.3,0.7,2.1,1.2C857.8,347.9,858.3,348.1,859.3,348.6z" fill="#FFCC00"/>
    <path d="M863.7,344.6c0.5,0.2,0.8,0.3,1.3,0.5c-0.1-0.4-0.1-0.6-0.2-1.1c-0.3-1.5-0.4-2.2-0.7-3.7 c-2.9,0.7-4.4,1.1-7.4,1.7c1,0.4,1.5,0.5,2.5,0.9C861,343.6,861.9,343.9,863.7,344.6z" fill="#FFCC00"/>
    <path d="M849.4,339.5c2.5-15.1,5-30.3,7.4-45.4c-3.7,10.3-7.5,20.6-11.2,30.8c-1.7,4.6-2.5,7-4.2,11.6 C844.6,337.8,846.2,338.3,849.4,339.5z" fill="#FFCC00"/>
    <path d="M848.7,343.1c-0.1,0.4-0.1,0.6-0.2,1.1c0.5-0.2,0.8-0.2,1.3-0.4c2.8-0.7,4.2-1,6.9-1.7 c3-0.7,4.4-1,7.4-1.7c3.1-0.8,4.7-1.2,7.8-2.1c-1.7-4.8-2.5-7.2-4.2-12.1c-3.6-10.7-7.3-21.4-11-32.1c-2.5,15.1-4.9,30.3-7.4,45.4 C849.1,340.9,849,341.7,848.7,343.1z" fill="#FFCC00"/>
    <path d="M843.7,604.1c0.7-2.1,1.1-3.1,1.8-5.2c-12.2-0.7-24.3-1.6-36.4-2.6C820.6,599,832.2,601.6,843.7,604.1z" fill="#FFCC00"/>
    <path d="M841.4,610.5c0.9-2.6,1.4-3.8,2.3-6.4c-11.6-2.5-23.1-5.1-34.6-7.8c0.1,0.1,0.1,0.1,0.2,0.2 c9.8,7.2,19.6,14.3,29.4,21.5C839.8,615,840.3,613.5,841.4,610.5z" fill="#FFCC00"/>
    <path d="M847.7,614.4c-0.3-0.3-0.4-0.4-0.7-0.6c0.5-0.2,0.8-0.2,1.3-0.4c0.1-0.1,0.1-0.2,0.2-0.3 c-2.8-1-4.3-1.5-7.1-2.6c-1.1,3-1.6,4.5-2.7,7.4v0.1c-3.7,10.3-7.4,20.5-11.2,30.8C834.3,637.4,841,625.9,847.7,614.4z" fill="#FFCC00"/>
    <path d="M850.3,617.6c-0.7,0.2-1.1,0.3-1.8,0.5c0.1-1,0.2-1.5,0.3-2.6c-0.5-0.5-0.7-0.7-1.2-1.1 c-6.7,11.5-13.4,23-20.2,34.5l0,0c9.8-5.8,19.6-11.7,29.3-17.7c-4.4-3.2-6.6-4.8-11.1-8.1C847.6,620.9,848.5,619.8,850.3,617.6z" fill="#FFCC00"/>
    <path d="M848.5,613.1c-0.1,0.1-0.1,0.2-0.2,0.3c0.2,0,0.3-0.1,0.5-0.1C848.7,613.2,848.7,613.2,848.5,613.1z" fill="#FFCC00"/>
    <path d="M854.3,622.3c0-0.5,0-0.7,0-1.2c-1.4-1.4-2.1-2.1-3.5-3.5c-0.2,0-0.3,0.1-0.5,0.1 c-1.9,2.2-2.8,3.3-4.6,5.5c4.4,3.3,6.7,4.9,11.1,8.1c9.5,6.9,19,13.8,28.5,20.8c-10-10.1-20-20.1-30-30.1 C854.9,622,854.7,622.1,854.3,622.3z" fill="#FFCC00"/>
    <path d="M848.9,613.3c-0.2,0-0.3,0.1-0.5,0.1c-0.5,0.2-0.8,0.2-1.3,0.4c0.3,0.3,0.4,0.4,0.7,0.6 c0.5,0.5,0.7,0.7,1.2,1.1c0.2-0.8,0.3-1.3,0.5-2.1C849.1,613.4,849,613.3,848.9,613.3z" fill="#FFCC00"/>
    <path d="M863.7,626.9c-1.9-2.6-2.8-3.9-4.7-6.5c-1.4,0.6-2.2,0.9-3.6,1.5c10,10,20,20.1,30,30.1 c-3.6-10.7-7.1-21.3-10.7-32c0-0.1,0-0.1,0-0.1C870.2,622.7,868,624.1,863.7,626.9z" fill="#FFCC00"/>
    <path d="M850.8,617.5c1.4,1.4,2.1,2.1,3.5,3.5c0-1.8,0-2.6,0-4.4C852.9,617,852.2,617.2,850.8,617.5z" fill="#FFCC00"/>
    <path d="M843.7,604.1c-0.9,2.6-1.4,3.8-2.3,6.4c2.9,1,4.3,1.5,7.1,2.6c0.1,0.1,0.2,0.1,0.3,0.2 c0.2,0.1,0.3,0.1,0.5,0.2c0.3-1.9,0.4-2.9,0.7-4.8c-0.3-0.4-0.5-0.7-0.8-1.1c0.4,0,0.6-0.1,1-0.1c2.2-13.1,4.4-26.2,6.6-39.4 c-3.7,10.3-7.5,20.6-11.2,30.9C844.8,601,844.4,602,843.7,604.1z" fill="#FFCC00"/>
    <path d="M850.2,607.4c1.7-0.1,2.5-0.2,4.1-0.4c0-3,0-4.6,0-7.6c5.4,0.3,8.1,0.4,13.4,0.7 c-3.6-10.7-7.3-21.4-11-32.1C854.6,581.2,852.4,594.3,850.2,607.4z" fill="#FFCC00"/>
    <path d="M854.3,614.3c-1.7-2.3-2.6-3.4-4.3-5.7c-0.3,1.9-0.4,2.9-0.7,4.8c-0.2,0.8-0.3,1.3-0.5,2.1 c-0.1,1-0.2,1.5-0.3,2.6c0.7-0.2,1.1-0.3,1.8-0.5c0.2,0,0.3-0.1,0.5-0.1c1.4-0.3,2.1-0.5,3.5-0.9 C854.3,615.7,854.3,615.3,854.3,614.3z" fill="#FFCC00"/>
    <path d="M854.3,622.3c0.4-0.2,0.6-0.2,1-0.4c1.4-0.6,2.2-0.9,3.6-1.5c-1.8-2.4-2.8-3.6-4.6-6 C854.3,617.5,854.3,619.1,854.3,622.3z" fill="#FFCC00"/>
    <path d="M854.3,599.4c0,3,0,4.6,0,7.6c16.1-1.6,32.2-3.4,48.2-5.7C886.4,601,870.4,600.3,854.3,599.4z" fill="#FFCC00"/>
    <path d="M854.3,607c-1.6,0.2-2.5,0.2-4.1,0.4c-0.4,0-0.6,0.1-1,0.1c0.3,0.4,0.5,0.7,0.8,1.1 c1.7,2.3,2.6,3.4,4.3,5.7c1.8,2.4,2.8,3.6,4.6,6c1.9,2.6,2.9,3.9,4.7,6.5c4.4-2.8,6.6-4.2,10.9-6.9c9.3-6,18.5-12.2,27.7-18.4 c0.1-0.1,0.1-0.1,0.2-0.1C886.5,603.6,870.4,605.4,854.3,607z" fill="#FFCC00"/>
    <path d="M731.8,694.5c0.8-2,1.2-3.1,2-5.1c-12.3-1.4-24.5-2.9-36.7-4.5C708.7,688.2,720.2,691.4,731.8,694.5z" fill="#FFCC00"/>
    <path d="M729.5,700.7c0.5-1.3,0.7-1.9,1.2-3.2c0.1-0.3,0.2-0.5,0.3-0.9c0.3-0.9,0.5-1.3,0.9-2.2 c-11.6-3.1-23.2-6.3-34.7-9.6c9.8,7.8,19.7,15.5,29.6,23.2l0,0C727.8,705.1,728.4,703.7,729.5,700.7z" fill="#FFCC00"/>
    <path d="M735.9,705c-0.3-0.3-0.4-0.4-0.7-0.7c0.5-0.1,0.8-0.2,1.4-0.3c0.1-0.1,0.1-0.2,0.2-0.3 c-2.9-1.2-4.4-1.8-7.3-3c-1.1,2.9-1.6,4.4-2.7,7.3c-3.8,10-7.5,20.1-11.3,30.1c0,0.1,0,0.1-0.1,0.2 C722.2,727.2,729.1,716.1,735.9,705z" fill="#FFCC00"/>
    <path d="M738.8,708.4c-0.8,0.2-1.2,0.2-2,0.4c0.1-1,0.2-1.5,0.3-2.6c-0.5-0.5-0.7-0.7-1.2-1.2 c-6.8,11.1-13.7,22.3-20.5,33.4c10-5.4,19.9-10.8,29.9-16.2c-4.5-3.4-6.7-5.1-11.2-8.6C735.9,711.5,736.9,710.5,738.8,708.4z" fill="#FFCC00"/>
    <path d="M736.8,703.7c-0.1,0.1-0.1,0.2-0.2,0.3c0.2,0,0.3-0.1,0.5-0.1C737,703.8,736.9,703.8,736.8,703.7z" fill="#FFCC00"/>
    <path d="M742.7,713.2c0-0.5,0-0.7,0-1.2c-1.4-1.5-2.1-2.2-3.6-3.7c-0.1,0-0.2,0.1-0.3,0.1 c-1.9,2.1-2.9,3.2-4.8,5.3c4.5,3.4,6.7,5.1,11.2,8.6c10,7.6,20,15.2,30.1,22.7c-10.6-10.6-21.1-21.3-31.6-32 C743.3,713,743.1,713.1,742.7,713.2z" fill="#FFCC00"/>
    <path d="M737.1,703.9c-0.2,0-0.3,0.1-0.5,0.1c-0.5,0.1-0.8,0.2-1.4,0.3c0.3,0.3,0.4,0.4,0.7,0.7 c0.5,0.5,0.7,0.7,1.2,1.2c0.2-0.8,0.3-1.2,0.5-2.1C737.4,704,737.3,704,737.1,703.9z" fill="#FFCC00"/>
    <path d="M752.6,718.2c-2-2.7-3.1-4-5.1-6.6c-1.5,0.5-2.3,0.8-3.8,1.3c10.5,10.7,21,21.4,31.6,32 c-3.8-10.9-7.6-21.9-11.4-32.8C759.4,714.6,757.1,715.8,752.6,718.2z" fill="#FFCC00"/>
    <path d="M739.1,708.2c1.4,1.5,2.1,2.2,3.6,3.7c0-1.8,0-2.7,0-4.4C741.3,707.8,740.6,708,739.1,708.2z" fill="#FFCC00"/>
    <path d="M731.8,694.5c-0.3,0.9-0.5,1.3-0.9,2.2c-0.1,0.3-0.2,0.5-0.3,0.9c-0.5,1.3-0.7,1.9-1.2,3.2 c2.9,1.2,4.4,1.8,7.3,3c0.1,0.1,0.2,0.1,0.3,0.2c0.2,0.1,0.3,0.1,0.5,0.2c0.3-1.9,0.4-2.9,0.7-4.8c-0.3-0.5-0.5-0.7-0.9-1.2 c0.5,0,0.7,0,1.2,0c2.2-13,4.4-26,6.7-39c-3.8,10.1-7.6,20.2-11.4,30.3C733.1,691.4,732.7,692.4,731.8,694.5z" fill="#FFCC00"/>
    <path d="M742.7,698c0-3,0-4.6,0-7.6c5.6,0.6,8.4,0.9,14,1.5c-3.8-10.9-7.6-21.8-11.4-32.7c-2.2,13-4.4,26-6.7,39 C740.3,698.1,741.1,698,742.7,698z" fill="#FFCC00"/>
    <path d="M737.1,706.2c-0.1,1-0.2,1.5-0.3,2.6c0.8-0.2,1.2-0.2,2-0.4c0.1,0,0.2-0.1,0.3-0.1 c1.4-0.3,2.1-0.4,3.6-0.7c0-0.9,0-1.4,0-2.3c-1.8-2.4-2.7-3.6-4.4-6c-0.3,1.9-0.4,2.9-0.7,4.8 C737.4,704.9,737.3,705.4,737.1,706.2z" fill="#FFCC00"/>
    <path d="M742.7,713.2c0.4-0.1,0.6-0.2,1-0.3c1.5-0.5,2.3-0.8,3.8-1.3c-1.9-2.5-2.9-3.8-4.8-6.3 C742.7,708.5,742.7,710,742.7,713.2z" fill="#FFCC00"/>
    <path d="M742.7,690.4c0,3,0,4.6,0,7.6c17.1-0.7,34.1-1.6,51.2-2.6C776.9,693.9,759.8,692.2,742.7,690.4z" fill="#FFCC00"/>
    <path d="M738.6,698.1c-0.5,0-0.7,0-1.2,0c0.3,0.5,0.5,0.7,0.9,1.2c1.8,2.4,2.7,3.6,4.4,6c1.9,2.5,2.9,3.8,4.8,6.3 c2,2.7,3.1,4,5.1,6.6c4.5-2.4,6.8-3.7,11.3-6.1l0,0c10-5.5,20.1-11.1,30.1-16.7C775.5,696.5,757.1,697.4,738.6,698.1z" fill="#FFCC00"/>
  </g>
  <g opacity="0.3">
    <path d="M259.7,30c127.9,0,223.7,15.9,325.2,32.8C688.7,80,796.1,97.9,941,97.9c44.4,0,90-6.1,135.4-18.1 c30.5-8.1,61.9-19,93.6-32.7v757.2c-36.8,17.4-73.5,30.8-109.2,40C1020.3,854.7,979.7,860,940,860c-140.1,0-243.6-16.8-343.7-33 c-98.9-16.1-201.3-32.7-336.6-32.7c-45.7,0-91.1,5.3-135.1,15.8C93,817.6,61.3,827.9,30,841V86.6C67.1,69,103.8,55.4,139.2,46.1 C179.9,35.4,220.4,30,259.7,30 M1200,0c-89.2,45-174.4,67.9-259,67.9C660.3,67.9,524.3,0,259.7,0C175.2,0,89.1,23,0,67.9 c0,242.4,0,577.6,0,820c89-44.9,175.2-63.6,259.7-63.6c268.9,0,398.5,65.7,680.3,65.7c84.6,0,170.8-22,260-66.9 C1200,580.7,1200,242.4,1200,0L1200,0z" fill="#212121"/>
  </g>
</svg>