<svg viewBox="0 0 1200 890" xmlns="http://www.w3.org/2000/svg" xmlns:xlink="http://www.w3.org/1999/xlink">
  <g>
    <path d="M0,723.5c94.3-47.8,193.4-66.7,298.8-63.7c101,2.9,201.7,16.9,301.2,33.5s200.3,29.2,301.2,31.8 c106.9,2.8,203.5-17.5,298.8-66.6c0,54.9,0,109.7,0,164.6c-95.2,49.2-191.9,69.3-298.8,66.5C800.3,886.9,699.5,874.2,600,858 c-200.3-32.8-411.6-65.1-600,29.9C0,833.1,0,778.3,0,723.5z" fill="#377E3F"/>
    <path d="M0,67.9C94.5,18.6,192.4-2.6,298.8,0.4C399.8,3.3,500.6,17,600,34.9C699.3,52.8,800.3,65,901.2,67.5 C1008.2,70.3,1104.6,49,1200,0c0,54.9,0,109.7,0,164.6c-95.3,49.1-191.9,70.2-298.8,67.4c-100.9-2.6-201.8-15-301.2-32.6 S399.8,168,298.8,165.1c-106.1-3-204.4,17.9-298.8,67C0,177.4,0,122.6,0,67.9z" fill="#377E3F"/>
    <path d="M0,232.2c94.3-49.1,192.7-70,298.8-67c101,2.9,201.8,16.7,301.2,34.3c99.3,17.6,200.3,29.9,301.2,32.6 c106.9,2.8,203.5-18.4,298.8-67.4c0,27.4,0,54.9,0,82.3c-95.3,49.1-191.9,70.1-298.8,67.3c-100.9-2.6-201.8-15-301.2-32.4 s-200.2-31.3-301.2-34.2c-106-3-204.4,17.7-298.8,66.5C0,286.8,0,259.5,0,232.2z" fill="#FFFFFF"/>
    <path d="M0,641.6c94.4-48,193.3-67.2,298.8-64.2c101,2.9,201.7,16.9,301.2,33.6c99.5,16.7,200.3,29.3,301.2,31.9 c106.9,2.8,203.5-17.6,298.8-66.8c0,27.4,0,54.9,0,82.3c-95.3,49.2-191.9,69.4-298.8,66.6c-100.9-2.6-201.7-15.2-301.2-31.8 c-99.6-16.6-200.2-30.6-301.2-33.5c-105.3-3-204.4,15.9-298.8,63.7C0,696.2,0,668.9,0,641.6z" fill="#FFFFFF"/>
    <path d="M0,641.6c94.4-48,193.3-67.2,298.8-64.2c101,2.9,201.7,16.9,301.2,33.6c99.5,16.7,200.3,29.3,301.2,31.9 c106.9,2.8,203.5-17.6,298.8-66.8c0-109.7,0-219.5,0-329.2c-95.3,49.1-191.9,70.1-298.8,67.3c-100.9-2.6-201.8-15-301.2-32.4 s-200.2-31.3-301.2-34.2c-106-3-204.4,17.7-298.8,66.5C0,423.3,0,532.4,0,641.6z M563.2,405.1c12.6-35.7,24.9-71.5,36.8-107.5 c11.7,40.1,23.9,80,36.4,119.8c43.3,6.7,86.6,12.4,130.2,16.9c-35.4,19.1-71,37.8-106.3,56.9c13.1,39.8,26.4,79.5,39.9,119.1 c-34.4-27.3-68-55.5-100.2-85.3c-33.2,19-66.9,36.9-100.7,54.7c13.5-36,26.8-72,39.9-108.1c-34.8-29-70.3-56.9-106.3-84.3 C476.5,392.2,519.9,398.1,563.2,405.1z" fill="#B40A2D"/>
    <path d="M499.3,579.7C533.1,561.9,566.8,544,600,525c32.2,29.8,65.8,58,100.1,85.3 c-13.5-39.6-26.8-79.3-39.9-119.1c35.4-19.1,71-37.7,106.3-56.9c-43.5-4.6-86.9-10.2-130.2-16.9c-12.5-39.8-24.7-79.7-36.4-119.8 c-11.9,35.9-24.2,71.8-36.8,107.5c-43.3-6.9-86.7-12.9-130.3-17.8c36,27.4,71.6,55.4,106.3,84.3 C526.1,507.7,512.8,543.7,499.3,579.7z" fill="#ECC81D"/>
  </g>
  <g opacity="0.3">
    <path d="M259.7,30c127.9,0,223.7,15.9,325.2,32.8C688.7,80,796.1,97.9,941,97.9c44.4,0,90-6.1,135.4-18.1 c30.5-8.1,61.9-19,93.6-32.7v757.2c-36.8,17.4-73.5,30.8-109.2,40C1020.3,854.7,979.7,860,940,860c-140.1,0-243.6-16.8-343.7-33 c-98.9-16.1-201.3-32.7-336.6-32.7c-45.7,0-91.1,5.3-135.1,15.8C93,817.6,61.3,827.9,30,841V86.6C67.1,69,103.8,55.4,139.2,46.1 C179.9,35.4,220.4,30,259.7,30 M1200,0c-89.2,45-174.4,67.9-259,67.9C660.3,67.9,524.3,0,259.7,0C175.2,0,89.1,23,0,67.9 c0,242.4,0,577.6,0,820c89-44.9,175.2-63.6,259.7-63.6c268.9,0,398.5,65.7,680.3,65.7c84.6,0,170.8-22,260-66.9 C1200,580.7,1200,242.4,1200,0L1200,0z" fill="#212121"/>
  </g>
</svg>