<svg viewBox="0 0 1200 890" xmlns="http://www.w3.org/2000/svg" xmlns:xlink="http://www.w3.org/1999/xlink">
  <g>
    <path d="M0,67.8c0,273.4,0,546.7,0,820.1c95.7-49.3,191.9-66,298.8-63.2c101,2.7,201.8,15.7,301.2,33.3 s200.3,29.3,301.2,31.7c107.3,2.5,203.2-16.7,298.8-66.6c0-274.4,0-548.7,0-823.1c-51.5,24.2-104.2,46.3-160.3,57.3 c-45.6,9-92,10.3-138.3,9.3c-101-2.2-202-13.4-301.3-31.7C500.7,16.5,399.8,3.3,298.8,0.6C192-2.3,95,18.3,0,67.8z M754.9,667.9 c-53.4-40.3-105.6-82-154.9-127.3c-50.7,28.8-102.8,55.3-154.2,82.7c20.6-54.3,41.2-108.5,61.5-162.9 c-52.6-42.1-106.8-82.2-161.1-121.9c66.3,4.3,132.3,12,197.9,22.1c19.3-53.5,38-107.2,55.9-161.1c18.4,60.3,37.4,120.5,57,180.4 c65.4,9.7,131.2,16.6,197.3,20.3c-52.3,32.2-106.2,61.4-160.4,90.1C713.9,549.6,734.3,608.8,754.9,667.9z" fill="#DA251D"/>
    <path d="M657,379.9c-19.6-60-38.6-120.1-57-180.4c-17.9,54-36.7,107.7-55.9,161.1 c-65.7-10.2-131.6-17.8-197.9-22.1c54.4,39.8,108.5,79.8,161.1,121.9c-20.3,54.4-40.9,108.7-61.5,162.9 c51.5-27.5,103.5-53.9,154.2-82.7c49.3,45.3,101.5,86.9,154.9,127.3c-20.6-59.1-41-118.3-61.1-177.6 c54.2-28.7,108.2-58,160.4-90.1C788.2,396.5,722.4,389.6,657,379.9z" fill="#FFFF00"/>
  </g>
  <g opacity="0.3">
    <path d="M259.7,30c127.9,0,223.7,15.9,325.2,32.8C688.7,80,796.1,97.9,941,97.9c44.4,0,90-6.1,135.4-18.1 c30.5-8.1,61.9-19,93.6-32.7v757.2c-36.8,17.4-73.5,30.8-109.2,40C1020.3,854.7,979.7,860,940,860c-140.1,0-243.6-16.8-343.7-33 c-98.9-16.1-201.3-32.7-336.6-32.7c-45.7,0-91.1,5.3-135.1,15.8C93,817.6,61.3,827.9,30,841V86.6C67.1,69,103.8,55.4,139.2,46.1 C179.9,35.4,220.4,30,259.7,30 M1200,0c-89.2,45-174.4,67.9-259,67.9C660.3,67.9,524.3,0,259.7,0C175.2,0,89.1,23,0,67.9 c0,242.4,0,577.6,0,820c89-44.9,175.2-63.6,259.7-63.6c268.9,0,398.5,65.7,680.3,65.7c84.6,0,170.8-22,260-66.9 C1200,580.7,1200,242.4,1200,0L1200,0z" fill="#212121"/>
  </g>
</svg>