<svg viewBox="0 0 1200 1200" xmlns="http://www.w3.org/2000/svg" xmlns:xlink="http://www.w3.org/1999/xlink">
  <g>
    <path d="M0,1042.8c185.9-101.8,400.4-62.5,600-31.1c99.7,15.7,200.4,28.3,301.3,30.8 c105.7,2.6,202.5-20.3,298.7-63.7c0-137.3,0-274.6,0-411.9c-86.3,40.3-174.3,65.8-270,66c-110.4,0.2-221.3-13.8-330-32.1 c-109.8,56.7-227.4,100.4-330,170.4C163.4,843.9,76.7,939.9,0,1042.8z" fill="#D7141A"/>
    <path d="M0,222c97.8,30,185.9,81.4,270,138.6c112.5,76.5,226.5,151.6,330,240.1c108.7,18.3,219.6,32.4,330,32.1 c95.7-0.2,183.8-25.7,270-66c0-137.3,0-274.6,0-411.9c-96.5,46.5-191.4,70.3-298.7,67.7c-101-2.5-201.9-15-301.3-32.8 c-99.4-17.7-200.2-31.5-301.2-34.4C193,152.4,94.8,175.3,0,222z" fill="#FFFFFF"/>
    <path d="M0,222c0,136.8,0,273.6,0,410.4S0,906,0,1042.8c76.7-103,163.4-198.9,270-271.7 c102.6-70,220.1-113.7,330-170.4C496.5,512.1,382.5,437,270,360.6C185.9,303.4,97.8,252,0,222z" fill="#11457E"/>
  </g>
  <g opacity="0.3">
    <path d="M259.7,185c127.9,0,223.7,15.9,325.2,32.8C688.7,235,796.1,252.9,941,252.9c44.4,0,90-6.1,135.4-18.1 c30.5-8.1,61.9-19,93.6-32.7v757.2c-36.8,17.4-73.5,30.8-109.2,40c-40.5,10.4-81.1,15.7-120.8,15.7c-140.1,0-243.6-16.8-343.7-33 c-98.9-16.1-201.3-32.7-336.6-32.7c-45.7,0-91.1,5.3-135.1,15.8C93,972.6,61.3,982.9,30,996V241.6c37.1-17.6,73.8-31.2,109.2-40.5 C179.9,190.4,220.4,185,259.7,185 M1200,155c-89.2,45-174.4,67.9-259,67.9c-280.7,0-416.7-67.9-681.3-67.9 C175.2,155,89.1,178,0,222.9c0,242.4,0,577.6,0,820c89-44.9,175.2-63.6,259.7-63.6c268.9,0,398.5,65.7,680.3,65.7 c84.6,0,170.8-22,260-66.9C1200,735.7,1200,397.4,1200,155L1200,155z" fill="#212121"/>
  </g>
</svg>