<svg viewBox="0 0 1200 890" xmlns="http://www.w3.org/2000/svg" xmlns:xlink="http://www.w3.org/1999/xlink">
  <g>
    <path d="M0,66.9L0,66.9c20.6-10,41.4-19.5,62.7-28.2C114.6,18.5,166.6,6.1,222.1,1.6c7.4-0.5,11.1-0.7,18.7-1 C250.5,0.2,260.3,0,270,0c10.3,0,20.5,0.1,30.8,0.4c8.4,0.2,12.7,0.4,21.3,0.8C391.2,4.5,460,12,528.4,22.3 c9.9,1.5,14.9,2.3,24.6,4c15.7,2.7,31.4,5.5,47.1,8.6l0,0l0,0l0,0c0,15.4,0,30.7,0,46.1c0,30.4,0,60.9,0,91.3c0,11,0,16.5,0,27.4 c0,27.5,0,54.9,0,82.4c0,11,0,16.5,0,27.4c0,30.4,0,60.9,0,91.3c0,6.1,0,9.2,0,15.3c0,10.3,0,20.5,0,30.8l0,0l0,0 c-23.6-4.3-47.3-8.2-71-11.8c-68.6-10.2-137.5-18.1-206.8-21.7c-8.6-0.4-12.9-0.6-21.3-0.8c-20-0.5-40-0.7-60,0 c-7.6,0.3-11.3,0.5-18.7,1c-55.5,4.3-107.6,16.2-159.5,36c-8,3.1-12,4.8-20.2,8.3C28.1,464,14,470.6,0,477.4C0,614.2,0,751,0,887.8 c96.2-46.2,192.2-66.7,298.8-63.4c101,3.1,201.6,18.2,301.2,34.4s200.4,28.3,301.4,30.7c106,2.5,203.1-19.7,298.6-65.5 c0-274.7,0-549.3,0-824c-50.6,26.4-102.9,47.4-159.4,56.5c-46,7.5-92.9,7.9-139.4,7.1c-100.8-1.7-202.1-10-301.2-28.7 C500.7,16.1,399.9,3,298.7,0.4C191.4-2.4,96.5,20,0,66.9z M310.5,730.2c-13.6-19-27.2-38-40.5-57.3c-13,18.8-25.5,37.9-37.8,57.2 c2.4-25.8,4.9-51.6,7.3-77.4c-17.1-1.4-34.2-2.5-51.4-2.7c14.4-14.9,29.1-29.4,44.2-43.5c-9.7-20.9-19.2-41.8-28.8-62.8 c16.5,8.1,32.9,16.4,49.3,24.8c5.6-24.7,11.4-49.5,17.2-74.2c5.8,24.8,11.7,49.6,17.6,74.3c18.7-8.9,37.7-17.2,56.9-25.1 c-11.6,20.9-23,42-34.2,63.1c17.9,14.3,35.8,28.7,53.7,43c-20.6,0.6-41.2,1.5-61.8,3.2C304.9,678.7,307.7,704.4,310.5,730.2z M895.5,164.3c8.7,4.5,17.5,9,26.2,13.5c2.8-11.8,5.6-23.5,8.3-35.3c2.7,11.8,5.5,23.5,8.2,35.3c9.9-5.3,14.8-8,24.3-13.6 c-4.7,10.4-9.4,20.9-14.2,31.3c7.4,6.1,14.7,12.2,22.1,18.3c-10,1.7-15.2,2.5-25.6,3.9c1.2,12.2,2.4,24.5,3.6,36.7 c-6.1-9-12.1-17.9-18.3-26.8c-6.2,9-12.5,17.9-18.9,26.9c1.3-12.2,2.5-24.5,3.8-36.7c-9.4-1.2-18.9-2.4-28.3-3.7 c8.3-6,16.4-12.2,24.5-18.5C905.9,185.1,900.7,174.7,895.5,164.3z M787,472.1c-7.1-9.6-14.2-19.2-21.3-28.8 c-7,8.3-14.1,16.6-21.1,24.9c1.3-12.1,2.7-24.2,4-36.3c-10.3-2.1-20.5-4.2-30.7-6.5c8.8-5.3,17.7-10.7,26.5-16.1 c-5.7-10.9-11.5-21.8-17.2-32.7c9.6,5.4,19.3,10.7,28.9,16c3.1-11.5,6.2-23,9.3-34.4c3.2,12,6.4,24.1,9.6,36.1 c9.6-3.6,19.2-7.2,28.8-10.9c-5.6,9.9-11.3,19.8-16.9,29.7c8.8,7,17.7,13.9,26.5,20.9c-10.2,0.4-20.4,0.7-30.6,0.9 C784.2,447.4,785.6,459.8,787,472.1z M948.3,805.2c-6.1-8.9-12.2-17.7-18.3-26.6c-6.2,9-12.5,17.9-18.8,26.8 c1.3-12.2,2.5-24.5,3.7-36.7c-9.4-1.2-18.7-2.5-28.1-3.9c8.2-6,16.3-12.1,24.3-18.4c-5.2-10.4-10.3-20.9-15.5-31.3 c8.7,4.5,17.4,9.1,26.1,13.6c2.8-11.8,5.6-23.5,8.3-35.3c2.7,11.8,5.5,23.5,8.2,35.3c8.3-4.4,16.5-9.1,24.5-13.9 c-4.8,10.5-9.6,21-14.4,31.5c7.4,6,14.9,12,22.4,18c-10.2,1.9-15.4,2.8-26,4.3C946,780.8,947.2,793,948.3,805.2z M1001.1,535.6 c-5.4-4.4-8.1-6.7-13.5-11.2c-5.4,5.4-8.2,8.1-13.7,13.5c1.5-9.3,2.3-14,3.8-23.3c-4.9-5.8-7.4-8.8-12.5-14.7 c6.5-1,9.8-1.5,16.2-2.6c2.4-9,3.6-13.5,6-22.5c2.4,8.6,3.6,12.9,6.1,21.5c6.3,0.1,9.4,0.1,15.7,0c-4.7,6.7-7.1,10-11.9,16.6 C998.8,522,999.5,526.6,1001.1,535.6z M1068.7,408.8c-5.4-7.7-10.8-15.5-16.2-23.3c-5.3,10-10.7,19.9-16.1,29.8 c1-12.4,2-24.8,3.1-37.2c-9.4,0.3-14.1,0.4-23.7,0.3c6.9-7.2,13.7-14.5,20.4-21.9c-4.4-9.6-8.8-19.3-13.2-28.9 c8.9,4,13.3,6,22.1,9.6c2.3-12.2,4.7-24.4,7-36.6c2.4,11.2,4.9,22.5,7.3,33.7c7.3-6,14.5-12.1,21.6-18.3 c-4.2,11.3-8.4,22.7-12.6,34c8.1,5.7,12.1,8.4,20.1,13.7c-9.3,3.9-13.9,5.7-23.2,9.1C1066.5,384.9,1067.6,396.8,1068.7,408.8z" fill="#00008B"/>
    <path d="M310.4,606.6c11.2-21.1,22.6-42.2,34.2-63.1c-19.2,7.9-38.2,16.3-57,25.2c-5.9-24.8-11.8-49.5-17.6-74.3 c-5.8,24.8-11.5,49.5-17.1,74.3c-16.4-8.5-32.8-16.8-49.4-24.9c9.5,21,19.1,41.9,28.8,62.8c-15.1,14.1-29.8,28.6-44.2,43.5 c17.2,0.3,34.3,1.3,51.4,2.7c-2.5,25.8-4.9,51.6-7.3,77.4c12.3-19.3,24.8-38.4,37.8-57.2c13.3,19.2,26.9,38.3,40.5,57.3 c-2.8-25.8-5.5-51.6-8.3-77.4c20.6-1.7,41.2-2.5,61.8-3.2C346.2,635.3,328.3,620.9,310.4,606.6z" fill="#FFFFFF"/>
    <path d="M948.3,746.3c4.8-10.5,9.6-21,14.4-31.5c-8.1,4.8-16.3,9.5-24.5,13.9c-2.7-11.8-5.5-23.5-8.2-35.3 c-2.7,11.8-5.5,23.6-8.3,35.3c-8.7-4.5-17.4-9.1-26.1-13.6c5.2,10.4,10.4,20.9,15.5,31.3c-8,6.2-16.1,12.4-24.3,18.4 c9.3,1.4,18.7,2.7,28.1,3.9c-1.2,12.2-2.5,24.5-3.7,36.7c6.3-8.9,12.6-17.7,18.8-26.7c6.1,8.9,12.2,17.7,18.3,26.6 c-1.2-12.2-2.4-24.4-3.6-36.7c10.6-1.5,15.7-2.4,26-4.3C963.2,758.3,955.8,752.3,948.3,746.3z" fill="#FFFFFF"/>
    <path d="M786.8,413.2c5.7-9.9,11.3-19.8,16.9-29.7c-9.6,3.7-19.2,7.3-28.8,10.9c-3.2-12-6.4-24.1-9.6-36.1 c-3.1,11.5-6.2,23-9.3,34.4c-9.7-5.3-19.3-10.7-28.9-16c5.7,10.9,11.4,21.8,17.2,32.7c-8.8,5.4-17.6,10.8-26.5,16.1 c10.2,2.2,20.5,4.4,30.7,6.5c-1.3,12.1-2.7,24.2-4,36.3c7.1-8.3,14.1-16.6,21.1-24.9c7.1,9.6,14.2,19.2,21.3,28.8 c-1.4-12.4-2.9-24.7-4.3-37.1c10.2-0.2,20.4-0.5,30.6-0.9C804.5,427.2,795.7,420.2,786.8,413.2z" fill="#FFFFFF"/>
    <path d="M914.9,217.6c-1.3,12.3-2.5,24.6-3.8,36.9c6.4-8.9,12.7-17.9,18.9-26.9c6.1,8.9,12.2,17.9,18.3,26.8 c-1.2-12.3-2.4-24.6-3.6-36.8c10.5-1.4,15.6-2.2,25.6-3.9c-7.4-6.1-14.7-12.2-22.1-18.3c4.8-10.4,9.5-20.8,14.2-31.2 c-9.5,5.6-14.4,8.3-24.3,13.6c-2.7-11.8-5.4-23.5-8.2-35.3c-2.8,11.8-5.5,23.5-8.3,35.3c-8.7-4.5-17.5-9-26.2-13.5 c5.2,10.3,10.5,20.7,15.6,31.1c-8.1,6.3-16.3,12.5-24.5,18.5C896,215.2,905.4,216.4,914.9,217.6z" fill="#FFFFFF"/>
    <path d="M1068.3,350.1c4.3-11.3,8.5-22.7,12.7-34c-7.1,6.2-14.4,12.3-21.7,18.3c-2.4-11.2-4.9-22.5-7.3-33.7 c-2.3,12.2-4.6,24.4-7,36.6c-8.8-3.6-13.2-5.6-22.1-9.6c4.4,9.6,8.8,19.3,13.2,28.9c-6.7,7.4-13.5,14.7-20.3,21.9 c9.5,0.1,14.2,0,23.6-0.3c-1,12.4-2,24.8-3.1,37.2c5.4-9.9,10.7-19.8,16.1-29.7c5.4,7.8,10.8,15.5,16.3,23.2 c-1.1-11.9-2.3-23.9-3.4-35.8c9.3-3.4,13.9-5.2,23.2-9.1C1080.4,358.5,1076.4,355.8,1068.3,350.1z" fill="#FFFFFF"/>
    <path d="M993.5,496.3c-2.4-8.6-3.6-12.9-6.1-21.5c-2.4,9-3.6,13.5-6,22.5c-6.4,1.1-9.6,1.6-16.2,2.6 c5,5.9,7.5,8.9,12.5,14.7c-1.5,9.3-2.3,14-3.8,23.3c5.5-5.3,8.3-8,13.7-13.5c5.4,4.6,8.1,6.8,13.5,11.2c-1.5-9.1-2.3-13.6-3.8-22.7 c4.8-6.6,7.2-9.9,11.9-16.6C1003,496.4,999.9,496.4,993.5,496.3z" fill="#FFFFFF"/>
    <path d="M528.4,22.3C459.9,11.9,391.2,4.5,322.1,1.2c0,41.9,0,83.8,0,125.7C388.8,88,458.5,54.9,528.4,22.3z" fill="#00008B"/>
    <path d="M0,112.9c0,30.4,0,60.7,0,91.1c38.9-18.9,78.3-35.5,119.8-47.7C81.3,136.8,42.2,122.2,0,112.9z" fill="#00008B"/>
    <path d="M600,400.8c0-30.4,0-60.9,0-91.3c-48.3-8.9-96.9-16.2-145.7-22.2C504.3,323.3,553.3,360.6,600,400.8z" fill="#00008B"/>
    <path d="M600,172.2c0-30.4,0-60.9,0-91.3c-48.5,23.2-97.4,45.6-145.9,68.8C503,155.8,551.6,163.1,600,172.2z" fill="#00008B"/>
    <path d="M0,340.7c0,30.3,0,60.5,0,90.8c39.3-46.6,78.5-93.3,119.8-138.2C78.3,305.3,38.9,321.9,0,340.7z" fill="#00008B"/>
    <path d="M322.2,413.3c69.3,3.6,138.2,11.5,206.8,21.7c-67.2-51.6-136.9-99.7-206.8-147.4 C322.2,329.5,322.2,371.4,322.2,413.3z" fill="#00008B"/>
    <path d="M222.1,1.6c-55.5,4.5-107.6,17-159.5,37.1c57.3,22.2,108.7,54.4,159.4,88.6 C222.1,85.4,222.1,43.5,222.1,1.6z" fill="#00008B"/>
    <path d="M62.6,449.5c52-19.8,104.1-31.7,159.5-36c0-41.9,0-83.7,0-125.6C163.5,336.4,112.3,392.1,62.6,449.5z" fill="#00008B"/>
    <path d="M322.1,138.6c2.3,0.1,3.5,0.2,5.8,0.3c72.8-41.9,149-77.1,225-112.6c-9.7-1.6-14.6-2.4-24.6-4 C458.5,54.9,388.8,88,322.1,126.9C322.1,131.6,322.1,133.9,322.1,138.6z" fill="#FFFFFF"/>
    <path d="M322.1,275.9c0,4.7,0,7,0,11.7c70,47.7,139.7,95.8,206.8,147.4c23.7,3.7,47.4,7.5,71,11.8l0,0 c-70.5-60.5-146-114.6-222.3-167.4C359.2,278,340.7,276.8,322.1,275.9z" fill="#FFFFFF"/>
    <path d="M428.7,284.3C487.5,326,545.3,369.1,600,416.1c0-6.1,0-9.2,0-15.3c-46.7-40.2-95.7-77.4-145.7-113.5 C444.1,286,439,285.5,428.7,284.3z" fill="#FFFFFF"/>
    <path d="M222.1,276.2c-2,0.1-2.9,0.2-4.9,0.4C152.7,330.8,97,393.8,42.3,457.8c8.2-3.5,12.2-5.2,20.2-8.3 c49.7-57.4,100.9-113.1,159.6-161.6C222.1,283.2,222.1,280.8,222.1,276.2z" fill="#FFFFFF"/>
    <path d="M454.1,149.8c48.5-23.2,97.4-45.6,145.9-68.8c0-15.4,0-30.7,0-46.1l0,0c-74.3,35.4-149.5,69-222.4,107.2 C403.1,144.2,428.6,146.8,454.1,149.8z" fill="#FFFFFF"/>
    <path d="M119.8,293.3C78.5,338.2,39.3,384.9,0,431.5c0,15.3,0,30.6,0,45.8C56.8,409.9,113.3,341.9,177.4,281 C158,284,138.7,288,119.8,293.3z" fill="#FFFFFF"/>
    <path d="M222.1,139c0-4.7,0-7,0-11.7C171.4,93.1,120,60.8,62.7,38.7C41.4,47.4,20.6,56.8,0,66.9 c64.5,14.2,121.6,42.2,177.4,77C192.3,141.8,207.1,140.2,222.1,139z" fill="#FFFFFF"/>
    <path d="M138.9,151.4C94.7,127,49.4,108.5,0,97.6c0,6.1,0,9.2,0,15.3c42.2,9.3,81.3,23.9,119.8,43.4 C127.5,154.2,131.3,153.2,138.9,151.4z" fill="#FFFFFF"/>
    <path d="M177.4,143.9C121.6,109.1,64.5,81.1,0,66.9c0,10.3,0,20.5,0,30.8c49.4,10.9,94.7,29.4,138.9,53.8 C151.6,148.4,164.5,145.9,177.4,143.9z" fill="#CF142B"/>
    <path d="M377.7,279.5C454,332.2,529.5,386.3,600,446.9l0,0c0-10.3,0-20.5,0-30.8c-54.7-47-112.5-90-171.3-131.7 C411.7,282.6,394.7,280.9,377.7,279.5z" fill="#CF142B"/>
    <path d="M217.2,276.5c-13.3,1-26.6,2.5-39.9,4.5C113.3,341.9,56.8,409.9,0,477.4c14-6.8,28.1-13.3,42.3-19.6 C97,393.8,152.7,330.8,217.2,276.5z" fill="#CF142B"/>
    <path d="M377.6,142.1c73-38.2,148.1-71.8,222.4-107.2l0,0l0,0c-15.6-3.1-31.3-5.9-47.1-8.6 c-76.1,35.5-152.3,70.7-225,112.6C344.5,139.7,361,140.8,377.6,142.1z" fill="#CF142B"/>
    <path d="M240.8,0.6c-7.6,0.3-11.3,0.5-18.7,1c0,41.9,0,83.8,0,125.7c0,4.7,0,7,0,11.7c-15,1.2-29.8,2.8-44.7,4.9 c-12.9,2-25.8,4.5-38.5,7.5c-7.6,1.8-11.4,2.8-19.1,4.9C78.3,168.5,38.9,185.1,0,204c0,10.9,0,16.4,0,27.3 c77.4-37.5,154.6-61.7,240.8-66C240.8,110.4,240.8,55.5,240.8,0.6z" fill="#FFFFFF"/>
    <path d="M600,199.7c0-11,0-16.5,0-27.4c-48.4-9.1-97-16.5-145.9-22.5c-25.5-3-51-5.5-76.6-7.7 c-16.5-1.3-33.1-2.4-49.7-3.2c-2.3-0.1-3.5-0.2-5.8-0.3c0-4.7,0-7,0-11.7c0-41.9,0-83.8,0-125.7c-8.6-0.4-12.9-0.5-21.3-0.8 c0,54.9,0,109.9,0,164.8C401.2,168.6,501.3,181.2,600,199.7z" fill="#FFFFFF"/>
    <path d="M177.4,281c13.2-2,26.5-3.5,39.9-4.5c2-0.1,2.9-0.2,4.9-0.4c0,4.7,0,7,0,11.7c0,41.9,0,83.7,0,125.6 c7.4-0.5,11.1-0.7,18.7-1c0-54.9,0-109.8,0-164.8C154.6,252,77.4,276,0,313.4c0,10.9,0,16.4,0,27.3c38.9-18.8,78.3-35.4,119.8-47.4 C138.7,288,158,284,177.4,281z" fill="#FFFFFF"/>
    <path d="M300.8,412.5c8.4,0.3,12.7,0.4,21.3,0.8c0-41.9,0-83.8,0-125.7c0-4.7,0-7,0-11.7c18.5,0.9,37,2.1,55.5,3.6 c17,1.4,34.1,3.1,51.1,4.9c10.2,1.1,15.4,1.7,25.6,2.9c48.8,6,97.3,13.4,145.7,22.2c0-11,0-16.5,0-27.4 c-98.8-18.2-198.8-31-299.2-34.4C300.8,302.6,300.8,357.5,300.8,412.5z" fill="#FFFFFF"/>
    <path d="M240.8,412.5c20-0.8,40-0.5,60,0c0-54.9,0-109.9,0-164.8c100.4,3.5,200.4,16.2,299.2,34.4 c0-27.5,0-54.9,0-82.4c-98.7-18.5-198.8-31-299.2-34.4c0-54.9,0-109.9,0-164.8C290.5,0.1,280.3,0,270,0c-9.7,0-19.5,0.2-29.2,0.6 c0,54.9,0,109.9,0,164.8c-86.2,4.3-163.4,28.5-240.8,66c0,13.7,0,27.4,0,41c0,13.7,0,27.3,0,41C77.4,276,154.6,252,240.8,247.8 C240.8,302.7,240.8,357.6,240.8,412.5z" fill="#CF142B"/>
  </g>
  <path d="M259.7,30c127.9,0,223.7,15.9,325.2,32.8 C688.7,80,796.1,97.9,941,97.9c44.4,0,90-6.1,135.4-18.1c30.5-8.1,61.9-19,93.6-32.7v757.2c-36.8,17.4-73.5,30.8-109.2,40 C1020.3,854.7,979.7,860,940,860c-140.1,0-243.6-16.8-343.7-33c-98.9-16.1-201.3-32.7-336.6-32.7c-45.7,0-91.1,5.3-135.1,15.8 C93,817.6,61.3,827.9,30,841V86.6C67.1,69,103.8,55.4,139.2,46.1C179.9,35.4,220.4,30,259.7,30 M1200,0 c-89.2,45-174.4,67.9-259,67.9C660.3,67.9,524.3,0,259.7,0C175.2,0,89.1,23,0,67.9c0,242.4,0,577.6,0,820 c89-44.9,175.2-63.6,259.7-63.6c268.9,0,398.5,65.7,680.3,65.7c84.6,0,170.8-22,260-66.9C1200,580.7,1200,242.4,1200,0L1200,0z" enable-background="new " fill="#212121" opacity="0.3"/>
</svg>