<svg viewBox="0 0 1200 1200" xmlns="http://www.w3.org/2000/svg" xmlns:xlink="http://www.w3.org/1999/xlink">
  <g>
    <path d="M377.8,571.9c149,12.8,295,46.4,444.2,57.4c61.6,4.5,124.1,7.6,185.6,0c68.1-8.4,131.4-32.2,192.5-62.8 c0,137.2,0,274.4,0,411.5c-60.7,30.9-124,53.9-191.8,62.3c-61.6,7.7-124.3,4.7-186,0.1c-149-11.2-295.2-43.5-444-56.4 C378,846.7,377.9,709.3,377.8,571.9z" fill="#007E3A"/>
    <path d="M377.4,159.8c149.2,12.7,295,47.5,444.4,58.4c61.4,4.5,123.8,7.5,185.1,0c68.4-8.4,131.7-32.9,193.1-63.2 c0,137.2,0,274.4,0,411.5c-61.1,30.6-124.3,54.3-192.5,62.8c-61.4,7.6-124,4.6-185.6,0c-149.2-11-295.2-44.6-444.2-57.4 C377.6,434.5,377.5,297.2,377.4,159.8z" fill="#FC3D32"/>
    <path d="M377.4,159.8c-66.6-5.1-134.2-8.6-200.4,2.5c-62.1,10.5-120.3,33.8-177,60.6c0,136.7,0,273.3,0,410 s0,273.3,0,410c56.4-27.1,114.7-48.7,176.9-57.7c66.6-9.6,134.4-6.3,201.2-1.1c-0.1-137.4-0.2-274.8-0.3-412.1 C377.6,434.5,377.5,297.2,377.4,159.8z" fill="#FFFFFF"/>
  </g>
  <g opacity="0.3">
    <path d="M259.7,185c127.9,0,223.7,15.9,325.2,32.8C688.7,235,796.1,252.9,941,252.9c44.4,0,90-6.1,135.4-18.1 c30.5-8.1,61.9-19,93.6-32.7v757.2c-36.8,17.4-73.5,30.8-109.2,40c-40.5,10.4-81.1,15.7-120.8,15.7c-140.1,0-243.6-16.8-343.7-33 c-98.9-16.1-201.3-32.7-336.6-32.7c-45.7,0-91.1,5.3-135.1,15.8C93,972.6,61.3,982.9,30,996V241.6c37.1-17.6,73.8-31.2,109.2-40.5 C179.9,190.4,220.4,185,259.7,185 M1200,155c-89.2,45-174.4,67.9-259,67.9c-280.7,0-416.7-67.9-681.3-67.9 C175.2,155,89.1,178,0,222.9c0,242.4,0,577.6,0,820c89-44.9,175.2-63.6,259.7-63.6c268.9,0,398.5,65.7,680.3,65.7 c84.6,0,170.8-22,260-66.9C1200,735.7,1200,397.4,1200,155L1200,155z" fill="#212121"/>
  </g>
</svg>