<svg viewBox="0 0 1200 890" xmlns="http://www.w3.org/2000/svg" xmlns:xlink="http://www.w3.org/1999/xlink">
  <g>
    <path d="M0,67.9C97.5,114.4,165.8,197.3,237.9,275c172.2-5.1,338.8,36.8,508.8,55c75.5,8.1,152.2,14.1,228.1,9.8 c80.5-4.5,154.2-27.6,225.1-65.7c0-91.5,0-183,0-274.5c-94,51-189.7,68.8-295.8,66.6C802.2,64.1,700.3,52.7,600,34.7 C499.7,16.9,397.9,3,295.9,0.3c-45.3-1.2-91.1-0.1-135.7,8.4C103.7,19.4,51.2,42.3,0,67.9z"/>
    <path d="M0,887.8c50.8-22.7,102.5-44.1,157.3-54.9c46.5-9.1,94.2-10.5,141.4-9.1c101,3.1,201.6,17.9,301.2,34.4 c99.5,16.5,200.3,28.9,301.3,31.4c107.3,2.7,203.3-16.3,298.7-66.5c0-91.5,0-183,0-274.5c-71,37.8-144.7,61.2-225.2,65.7 c-75.9,4.3-152.7-1.9-228.2-10c-169.9-18.3-336.8-59.8-508.7-54.8C148.1,654.2,80,775.8,0,887.8z" fill="#007A3D"/>
    <path d="M378.1,416.9C328.3,458,280.7,501,237.9,549.5c172-4.9,338.9,36.5,508.7,54.8 c75.5,8.2,152.2,14.3,228.2,10c80.5-4.5,154.2-27.9,225.2-65.7c0-91.5,0-183,0-274.5c-70.9,38.1-144.6,61.3-225.1,65.7 C899,344,822.2,338,746.8,330c-170-18.2-336.6-60.1-508.8-55C283.3,323.6,330.8,370.1,378.1,416.9z" fill="#FFFFFF"/>
    <path d="M378.1,416.9c-47.3-46.7-94.8-93.3-140.2-141.8C165.8,197.3,97.5,114.4,0,67.9c0,273.3,0,546.6,0,820 c80-112.1,148.1-233.6,237.9-338.4C280.7,501,328.3,457.9,378.1,416.9z" fill="#C4111B"/>
  </g>
  <g opacity="0.3">
    <path d="M259.7,30c127.9,0,223.7,15.9,325.2,32.8C688.7,80,796.1,97.9,941,97.9c44.4,0,90-6.1,135.4-18.1 c30.5-8.1,61.9-19,93.6-32.7v757.2c-36.8,17.4-73.5,30.8-109.2,40C1020.3,854.7,979.7,860,940,860c-140.1,0-243.6-16.8-343.7-33 c-98.9-16.1-201.3-32.7-336.6-32.7c-45.7,0-91.1,5.3-135.1,15.8C93,817.6,61.3,827.9,30,841V86.6C67.1,69,103.8,55.4,139.2,46.1 C179.9,35.4,220.4,30,259.7,30 M1200,0c-89.2,45-174.4,67.9-259,67.9C660.3,67.9,524.3,0,259.7,0C175.2,0,89.1,23,0,67.9 c0,242.4,0,577.6,0,820c89-44.9,175.2-63.6,259.7-63.6c268.9,0,398.5,65.7,680.3,65.7c84.6,0,170.8-22,260-66.9 C1200,580.7,1200,242.4,1200,0L1200,0z" fill="#212121"/>
  </g>
</svg>