<svg viewBox="0 0 1200 1200" xmlns="http://www.w3.org/2000/svg" xmlns:xlink="http://www.w3.org/1999/xlink">
  <g>
    <path d="M0,318c0,209.9,0,419.9,0,629.8c62.3-77.9,127-154.6,203.5-219.1c73.7-62.1,156.9-107.7,243.6-149 c-80.1-57-160.4-115.2-243.8-167.4C139.8,372.5,72.6,337.7,0,318z" fill="#0065BD"/>
    <path d="M1080.2,202.9c-156,41.5-323.6,10.4-480.2-13.1c-157.1-23.6-323.3-56.7-479.9-14.7 c78.9,39.4,150.7,91,223.1,141c87.6,60.6,175,121.8,256.8,190c86.1-41.9,174.2-80.1,257.5-127.7 C940.8,330.9,1013.8,272.1,1080.2,202.9z" fill="#0065BD"/>
    <path d="M1200,882.9c0-210.9,0-421.8,0-632.7c-61.4,79.4-126.6,156.9-203.3,222.1c-73.1,62.1-156.9,108-242.6,150.2 c79.5,56.7,159.7,113.4,242.2,165.8C1060.1,828.8,1126.5,863.7,1200,882.9z" fill="#0065BD"/>
    <path d="M121.9,996.2c154.9-37.6,323.3-9.1,478.1,16.5c154,25.5,323.6,53.7,477.1,13.4 c-77.3-40.3-148.3-92.4-220.1-141.5c-87.8-59.9-174.5-121.2-257-188.1c-85.4,43.6-174.5,79.8-258.1,126.9 C259.8,869.6,187.3,928.6,121.9,996.2z" fill="#0065BD"/>
    <path d="M447,579.7c-86.6,41.3-169.9,86.9-243.6,149C127,793.2,62.3,869.9,0,947.8c0,31.7,0,63.4,0,95.1 c39.4-19.3,79.5-35.3,121.9-46.6c65.4-67.6,137.9-126.6,220-172.9c83.6-47.1,172.7-83.3,258.1-126.9 c82.5,67,169.2,128.3,256.9,188.1c71.9,49.1,142.8,101.2,220.1,141.5c42.6-12.2,83-28.9,122.9-48c0-31.7,0-63.5,0-95.2 c-73.5-19.1-139.9-54.1-203.7-94.6C913.7,735.9,833.6,679.2,754,622.5c85.7-42.2,169.5-88.1,242.6-150.2 c76.7-65.2,141.9-142.7,203.3-222.1c0-31.7,0-63.5,0-95.2c-38.7,19.6-78.2,35.8-119.8,47.9c-66.3,69.2-139.4,128-222.7,175.5 C774.2,426,686.1,464.2,600,506.1c-81.8-68.2-169.2-129.5-256.8-190c-72.4-50-144.2-101.6-223.1-141C78.4,187.2,38.8,203.5,0,222.9 c0,31.7,0,63.4,0,95.1c72.6,19.7,139.8,54.5,203.3,94.3C286.6,464.5,366.9,522.6,447,579.7z" fill="#FFFFFF"/>
  </g>
  <g opacity="0.3">
    <path d="M259.7,185c127.9,0,223.7,15.9,325.2,32.8C688.7,235,796.1,252.9,941,252.9c44.4,0,90-6.1,135.4-18.1 c30.5-8.1,61.9-19,93.6-32.7v757.2c-36.8,17.4-73.5,30.8-109.2,40c-40.5,10.4-81.1,15.7-120.8,15.7c-140.1,0-243.6-16.8-343.7-33 c-98.9-16.1-201.3-32.7-336.6-32.7c-45.7,0-91.1,5.3-135.1,15.8C93,972.6,61.3,982.9,30,996V241.6c37.1-17.6,73.8-31.2,109.2-40.5 C179.9,190.4,220.4,185,259.7,185 M1200,155c-89.2,45-174.4,67.9-259,67.9c-280.7,0-416.7-67.9-681.3-67.9 C175.2,155,89.1,178,0,222.9c0,242.4,0,577.6,0,820c89-44.9,175.2-63.6,259.7-63.6c268.9,0,398.5,65.7,680.3,65.7 c84.6,0,170.8-22,260-66.9C1200,735.7,1200,397.4,1200,155L1200,155z" fill="#212121"/>
  </g>
</svg>