<svg style="enable-background:new 0 0 128 128;" viewBox="0 0 128 128" xmlns="http://www.w3.org/2000/svg" xmlns:xlink="http://www.w3.org/1999/xlink">
  <g>
    <path d="M78.48,97.1c-0.79-3.3-2.97-7.09-5.14-9.26s-6.14,0.51-10.75-3.89c-4.19-4-1.77-8.03-1.77-8.03 s17.6-17.12,20.29-16.29c9.04,2.82,4.12,9.18,7.69,12.75c2.66,2.66,5.96,4.35,9.26,5.14c3.34,0.8,3.6,1.7,20.81,18.91 c2.11,2.11,8.84,9.65-1.5,19.98s-17.87,3.61-19.98,1.5C80.18,100.7,79.28,100.44,78.48,97.1z" style="fill:#D32F2F;"/>
    <ellipse cx="70.84" cy="69.9" rx="14.53" ry="4.53" style="fill:#EF5350;" transform="matrix(0.7071 -0.7071 0.7071 0.7071 -28.6809 70.5636)"/>
    <radialGradient id="SVGID_1_" cx="9.4967" cy="92.9674" gradientTransform="matrix(-1 0 0 1 115.6262 0)" gradientUnits="userSpaceOnUse" r="20.0634">
      <stop offset="0.2166" style="stop-color:#A01F1F"/>
      <stop offset="1" style="stop-color:#A01F1F;stop-opacity:0"/>
    </radialGradient>
    <path d="M115.5,104.84c0.64,0,1.28-0.24,1.77-0.73c0.98-0.98,0.98-2.56,0-3.54L98.52,81.82 c-0.98-0.98-2.56-0.98-3.54,0c-0.98,0.98-0.98,2.56,0,3.54l18.75,18.75C114.22,104.6,114.86,104.84,115.5,104.84z" style="fill:url(#SVGID_1_);"/>
    <radialGradient id="SVGID_2_" cx="22.3404" cy="105.8111" gradientTransform="matrix(-1 0 0 1 115.6262 0)" gradientUnits="userSpaceOnUse" r="19.3857">
      <stop offset="0.2166" style="stop-color:#A01F1F"/>
      <stop offset="1" style="stop-color:#A01F1F;stop-opacity:0"/>
    </radialGradient>
    <path d="M102.66,117.69c0.64,0,1.28-0.24,1.77-0.73c0.98-0.98,0.98-2.56,0-3.54L85.68,94.67 c-0.98-0.98-2.56-0.98-3.54,0c-0.98,0.98-0.98,2.56,0,3.54l18.75,18.75C101.38,117.44,102.02,117.69,102.66,117.69z" style="fill:url(#SVGID_2_);"/>
    <radialGradient id="SVGID_3_" cx="12.7623" cy="102.5455" gradientTransform="matrix(-1 0 0 1 115.6262 0)" gradientUnits="userSpaceOnUse" r="21.881">
      <stop offset="0.2796" style="stop-color:#EF5350"/>
      <stop offset="1" style="stop-color:#EF5350;stop-opacity:0"/>
    </radialGradient>
    <path d="M112.24,114.42c0.64,0,1.28-0.24,1.77-0.73c0.98-0.98,0.98-2.56,0-3.54L95.26,91.4 c-0.98-0.98-2.56-0.98-3.54,0c-0.98,0.98-0.98,2.56,0,3.54l18.75,18.75C110.96,114.18,111.6,114.42,112.24,114.42z" style="fill:url(#SVGID_3_);"/>
    <radialGradient id="SVGID_4_" cx="37.6774" cy="77.6175" gradientTransform="matrix(-0.7731 0.6343 0.3491 0.4255 79.9814 20.6913)" gradientUnits="userSpaceOnUse" r="22.8453">
      <stop offset="0.2166" style="stop-color:#A01F1F"/>
      <stop offset="1" style="stop-color:#A01F1F;stop-opacity:0"/>
    </radialGradient>
    <path d="M73.34,87.84c-1.65-1.65-4.34-0.5-7.57-1.79c0.07-0.01,6.54,0.21,15.13-8.04 c6.84-6.57,6.09-12.39,6.09-12.39l0,0c0.37,2.42,0,4.95,1.81,6.76c1.78,1.78,3.84,3.11,5.99,4.04c-1.01,2.79-3.28,7.7-7.79,11.84 c-4.04,3.7-7.33,5.5-9.33,6.36C76.62,92.04,74.98,89.48,73.34,87.84z" style="fill:url(#SVGID_4_);"/>
    <g>
      <linearGradient id="SVGID_5_" gradientTransform="matrix(-0.7071 0.7071 0.7071 0.7071 43.6487 -67.4641)" gradientUnits="userSpaceOnUse" x1="86.3103" x2="79.0593" y1="72.6709" y2="72.6709">
        <stop offset="0" style="stop-color:#757575"/>
        <stop offset="1" style="stop-color:#BDBDBD"/>
      </linearGradient>
      <path d="M10.52,5.98l-5.5,5.5L14.15,22l51.55,51.55c0,0,2.51-0.36,5.13-2.98 c2.62-2.62,2.68-4.84,2.68-4.84L21.83,14.05L10.52,5.98z" style="fill:url(#SVGID_5_);"/>
      <linearGradient id="SVGID_6_" gradientTransform="matrix(-0.7071 0.7071 0.7071 0.7071 43.6487 -67.4641)" gradientUnits="userSpaceOnUse" x1="78.0692" x2="78.0692" y1="20.8795" y2="37.636">
        <stop offset="0" style="stop-color:#757575"/>
        <stop offset="0.8444" style="stop-color:#E0E0E0"/>
      </linearGradient>
      <path d="M5.96,10.54l3.81-3.81c0.44-0.44,1.12-0.49,1.62-0.14l10.45,7.45l6.06,12.18L15.6,21.07 L6,12.37C5.47,11.89,5.45,11.05,5.96,10.54z" style="fill:url(#SVGID_6_);"/>
    </g>
  </g>
</svg>