<svg viewBox="0 0 128 128" xmlns="http://www.w3.org/2000/svg" xmlns:xlink="http://www.w3.org/1999/xlink">
  <linearGradient id="d" gradientUnits="userSpaceOnUse" x1="64" x2="64" y1="13.667" y2="104">
    <stop offset=".1353" stop-color="#EF5350"/>
    <stop offset=".8422" stop-color="#E53935"/>
  </linearGradient>
  <path d="m100 124h-72c-4.42 0-8-3.58-8-8v-104c0-4.42 3.58-8 8-8h72c4.42 0 8 3.58 8 8v104c0 4.42-3.58 8-8 8z" fill="url(#d)"/>
  <circle cx="52.17" cy="39.83" fill="#F5F5F5" r="22.5"/>
  <defs>
    <path id="c" d="m100 124h-72c-4.42 0-8-3.58-8-8v-104c0-4.42 3.58-8 8-8h72c4.42 0 8 3.58 8 8v104c0 4.42-3.58 8-8 8z"/>
  </defs>
  <clipPath id="b">
    <use xlink:href="#c"/>
  </clipPath>
  <linearGradient id="a" gradientUnits="userSpaceOnUse" x1="52.957" x2="62.457" y1="53.358" y2="101.36">
    <stop offset="0" stop-color="#757575"/>
    <stop offset="1" stop-color="#424242"/>
  </linearGradient>
  <path clip-path="url(#b)" d="m108.67 134.67h-91.34l-6.67-35.33s49.76-38.28 89.33-18c26.68 13.66 8.8 53.28 8.68 53.33z" fill="url(#a)"/>
  <g opacity=".2">
    <path d="m100 8c2.21 0 4 1.79 4 4v104c0 2.21-1.79 4-4 4h-72c-2.21 0-4-1.79-4-4v-104c0-2.21 1.79-4 4-4h72m0-4h-72c-4.42 0-8 3.58-8 8v104c0 4.42 3.58 8 8 8h72c4.42 0 8-3.58 8-8v-104c0-4.42-3.58-8-8-8z" fill="#424242"/>
  </g>
</svg>