<svg style="enable-background:new 0 0 128 128;" viewBox="0 0 128 128" xmlns="http://www.w3.org/2000/svg" xmlns:xlink="http://www.w3.org/1999/xlink">
  <radialGradient id="SVGID_1_" cx="63.333" cy="124.5565" gradientTransform="matrix(1 0 0 -1 0 127.8898)" gradientUnits="userSpaceOnUse" r="120.14">
    <stop offset="0" style="stop-color:#EEEEEE"/>
    <stop offset="0.3167" style="stop-color:#EBEBEB"/>
    <stop offset="0.5781" style="stop-color:#E1E1E1"/>
    <stop offset="0.819" style="stop-color:#CFCFCF"/>
    <stop offset="1" style="stop-color:#BDBDBD"/>
  </radialGradient>
  <rect height="120" style="fill:url(#SVGID_1_);" width="120" x="4" y="4"/>
  <radialGradient id="SVGID_2_" cx="63.5722" cy="130.0381" gradientTransform="matrix(1 0 0 -1 0 127.8898)" gradientUnits="userSpaceOnUse" r="105.7601">
    <stop offset="0" style="stop-color:#616161"/>
    <stop offset="0.2204" style="stop-color:#5E5E5E"/>
    <stop offset="0.4074" style="stop-color:#535353"/>
    <stop offset="0.5821" style="stop-color:#424242"/>
    <stop offset="0.7485" style="stop-color:#292929"/>
    <stop offset="0.7941" style="stop-color:#212121"/>
    <stop offset="1" style="stop-color:#212121"/>
  </radialGradient>
  <path d="M4,4v24h16v60c0,2.21,1.79,4,4,4h12c2.21,0,4-1.79,4-4V28h14v60c0,2.21,1.79,4,4,4h12 c2.21,0,4-1.79,4-4V28h14v60c0,2.21,1.79,4,4,4h12c2.21,0,4-1.79,4-4V28h16V4H4z" style="fill:url(#SVGID_2_);"/>
  <rect height="56" style="fill:none;" width="14" x="40" y="28"/>
  <rect height="56" style="fill:none;" width="14" x="74" y="28"/>
  <rect height="8" style="fill:#424242;" width="120" x="4" y="20"/>
  <rect height="32" style="fill:#504F4F;" width="4" x="28" y="92"/>
  <rect height="32" style="fill:#504F4F;" width="4" x="62.06" y="92"/>
  <rect height="32" style="fill:#504F4F;" width="4" x="96" y="92"/>
</svg>