<svg viewBox="0 0 128 128" xmlns="http://www.w3.org/2000/svg">
  <g>
    <path d="M64,6.1C32.8,6.1,4,26.1,4,64c0,37.7,28.8,57.9,60,57.9s60-20.7,60-57.9C124,26.6,95.2,6.1,64,6.1z M103,103.9 c-10.2,9-24.1,14-39,14c-15,0-28.9-4.9-39-13.8C13.9,94.3,8,80.5,8,64s5.9-30.4,17-40.2c10.1-8.9,24-13.7,39-13.7s28.9,5,39,13.9 c11.1,9.8,17,23.6,17,40C120,80.3,114.1,94.1,103,103.9z"/>
    <path d="M89,80H39c-2.2,0-4,1.8-4,4s1.8,4,4,4h50c2.2,0,4-1.8,4-4S91.2,80,89,80z"/>
    <ellipse cx="82.8" cy="54.9" rx="8" ry="9.4"/>
    <ellipse cx="45.2" cy="54.9" rx="8" ry="9.4"/>
  </g>
</svg>