<svg width="128" height="128" xmlns="http://www.w3.org/2000/svg">
  <g>
    <path d="M109.3,103.8c0-4.3-8.4-7.7-18.7-7.7c-10.3,0-18.7,3.5-18.7,7.7c0,0.1,0,0.1,0,0.2v8.1c0,0.1,0,0.1,0,0.2 c0,4.3,8.4,7.7,18.7,7.7c10.3,0,18.7-3.5,18.7-7.7c0-0.2,0-0.3-0.1-0.5v-7.5C109.2,104.1,109.3,104,109.3,103.8z"/>
    <path d="M52.6,90.5c0.1,0,0.2,0,0.3-0.1C52.8,90.4,52.7,90.5,52.6,90.5z"/>
    <path d="M48.8,91.4c0.2,0,0.3,0,0.4-0.1C49,91.4,48.9,91.4,48.8,91.4z"/>
    <path d="M11.7,87.6c-0.8,0.1-1.5,0.2-2,0.4C10.2,87.8,10.9,87.6,11.7,87.6z"/>
    <path d="M43.3,91.6c0,0,0.1,0,0.1,0c-9.2-0.3-23.6-4.1-30.6-4.1c-0.4,0-0.8,0-1.1,0.1C18,87.1,33.6,91.3,43.3,91.6z"/>
    <path d="M56.1,89c0.5-0.3,0.9-0.5,1.3-0.8C57,88.5,56.5,88.7,56.1,89z"/>
    <path d="M51.1,91c0.5-0.1,1-0.3,1.5-0.4C52.1,90.7,51.6,90.8,51.1,91z"/>
    <path d="M46.7,91.6c-0.6,0.1-1.1,0.1-1.7,0.1C45.6,91.7,46.2,91.7,46.7,91.6z"/>
    <path d="M47.2,91.6c0.6,0,1.1-0.1,1.6-0.2C48.3,91.5,47.8,91.5,47.2,91.6z"/>
    <path d="M52.9,90.4c0.5-0.1,1-0.3,1.4-0.6C53.9,90,53.4,90.2,52.9,90.4z"/>
    <path d="M69,75.9c-3.8,4.4-6.7,8.4-10.2,11.2c-0.4,0.3-0.9,0.7-1.3,1c0,0-0.1,0-0.1,0.1c-0.4,0.3-0.9,0.6-1.3,0.8 c0,0-0.1,0.1-0.2,0.1c-0.4,0.2-0.9,0.5-1.4,0.7c0,0-0.1,0-0.2,0.1c0,0,0,0,0,0c-0.5,0.2-0.9,0.4-1.4,0.6c-0.1,0-0.2,0.1-0.3,0.1 c-0.5,0.2-1,0.3-1.5,0.4c-0.1,0-0.2,0-0.3,0.1c-0.5,0.1-1.1,0.2-1.6,0.3c-0.1,0-0.2,0-0.4,0.1c-0.5,0.1-1.1,0.1-1.6,0.2 c-0.2,0-0.3,0-0.5,0c-0.5,0-1.1,0.1-1.7,0.1c-0.1,0-0.2,0-0.3,0c-0.4,0-0.9,0-1.3,0c-9.1-0.3-23.6-4.1-30.6-4.1 c-1.3,0-2.4,0.1-3.1,0.5c-5,2.5-6,11-5,15c0.5,1.4,1.5,2.6,2.7,3.5l0.1,0.1c0.3,0.2,0.5,0.3,0.8,0.5c1,0.5,2.1,0.8,3.3,0.8h26 c19.2,0,28.6-7.2,31.2-10.6L124,23.2v-5V13V8.3L69,75.9z"/>
  </g>
</svg>