<svg viewBox="0 0 128 128" xmlns="http://www.w3.org/2000/svg">
  <g>
    <path d="M113,91.9c-4.2-4.3-9.8-7.4-15.7-9.7c0.3-0.3,0.6-0.5,1-0.8c2.6-2.1,6.1-4.9,7.6-11.7c0.8-3.7,0.3-7.5-0.9-10.9 c1.2-3.6,2.1-8.9,0.5-14.2c-3.4-11-13.9-11-13.9-11c-1.7-4-8.8-18-29.5-11.6c-4.8,1.5-8.5,1.6-10.6-0.1c-3.2-2.5-2.9-6-2.9-6 s-8.2,2-6.9,9.8c-2.5,0.2-6.8,1.2-10.2,6.1c-2.7,4-2.8,8.2-2.6,10.3c-2.4,1-5.8,3.6-6.3,8.9c-0.2,2.4,0.4,4.5,1.2,6.1 c-1.9,4-2.7,8.5-1.8,12.9c1.4,6.8,5,9.7,7.6,11.7c0.4,0.4,0.8,0.7,1.2,1c-5.8,2.2-11.3,5.3-15.4,9.6c-10.2,10.5-8,20.8-5.9,23.8 c4,5.7,14.7,8.2,14.7,8.2l0,0h0h0h10l0,0h16.1l0,0h13.3h0.1H64h0h0.2h0.1h13.3l0,0h16.1l0,0h10l0,0h0.4c0,0,10.7-2.6,14.8-8.2 C121,112.7,123.2,102.5,113,91.9z M64,97.5c-2.4,0-4.8-0.3-7.1-0.8c-0.7-0.2-1.3-0.3-2-0.5c-2-0.6-3.8-1.4-5.6-2.3 c-2.2-1.2-4.2-2.7-6.1-4.4c-0.1-0.1-0.2-0.2-0.3-0.3c-0.7-0.7-1.4-1.5-2-2.2c-1.6-2-2.9-4.2-4-6.6c-0.3-0.7-0.6-1.4-0.8-2.1 c-0.7-1.9-1.2-3.9-1.6-5.9c1.1-2.9,2.6-7,3.7-9.3c2.6,0.2,5.5,0.1,8.4-0.4c2.4-0.4,4.8-1.1,7.2-2c3.1-1.2,6.2-2.8,9-4.9 c2.3-1.7,8.1-4.2,10.9-4.4c4.7-0.4,7.2,2.3,8.5,4.3c0.6,1,0.9,1.8,0.9,1.8s0.6-0.1,1.5,0c1.7,0.1,4.3,0.8,5.8,3.2 c0.1,0.1,0.1,0.2,0.2,0.2c0.2,0.4,0.5,1,0.7,1.8c0.8,2.4,1.7,6.2,2.3,9.1c-0.4,2.3-0.9,4.4-1.6,6.5c-0.3,0.7-0.5,1.4-0.8,2.1 c-1.1,2.4-2.4,4.6-4,6.6c-0.6,0.8-1.3,1.5-2,2.3c-0.1,0.1-0.2,0.2-0.3,0.3c-1.8,1.7-3.9,3.2-6.1,4.4c-1.8,1-3.6,1.7-5.6,2.3 c-0.7,0.2-1.3,0.4-2,0.5C68.8,97.3,66.4,97.5,64,97.5z M70.8,98.8c-0.8,2.5-3.2,4.4-6,4.4h-1.7c-2.8,0-5.2-1.9-6-4.4 c2.2,0.5,4.5,0.7,6.8,0.7C66.3,99.5,68.6,99.3,70.8,98.8z M94.3,77.3c0.4-1.2,0.7-2.5,1-3.9c0.6-1.8,1.3-4.5,1.7-7.4 c0.9,1.3,1.4,2.8,1.4,4.4C98.4,73.3,96.8,75.9,94.3,77.3z M30.9,66c0.2,2.5,0.7,6.3,2.2,9.2c0.2,0.7,0.4,1.4,0.6,2 c-2.4-1.4-4.1-3.9-4.1-6.8C29.6,68.8,30.1,67.3,30.9,66z M47.7,122H36.4l0.3-1l1.6-5.4l0.8,0l3,0.2c0,0,0.1,0,0.1,0 c1,0,2,0.1,3,0.4c1.2,0.4,3,0.9,4.8,1.6c3.5,1.1,7.3,2.4,10.2,3.2c0.3,0.1,0.6,0.2,0.9,0.2c0.2,0,0.3,0.2,0.3,0.4 c0,0.2-0.2,0.4-0.4,0.4H47.7z M80.3,122H66.9c-0.2,0-0.4-0.2-0.4-0.4c0-0.2,0.1-0.3,0.3-0.4c0.3-0.1,0.6-0.2,0.9-0.2 c2.9-0.8,6.7-2,10.2-3.2c1.9-0.6,3.6-1.2,4.8-1.6c1-0.3,2-0.4,3-0.4c0,0,0.1,0,0.1,0l3-0.2l0.8-0.1l1.6,5.4l0.3,1H80.3z"/>
    <path d="M50.6,16.5c0.2,0.9,1,1.5,1.9,1.5c0.2,0,0.3,0,0.5-0.1c1.1-0.3,1.7-1.4,1.4-2.4L51.8,5.4c-0.2-0.7-0.7-1.2-1.3-1.4h-1.2 c-1,0.3-1.6,1.4-1.3,2.4L50.6,16.5z"/>
    <path d="M35.6,24c0.4,0.4,0.9,0.6,1.4,0.6c0.5,0,1-0.2,1.4-0.6c0.8-0.8,0.8-2.1,0-2.8l-6.7-6.5c-0.8-0.8-2.1-0.8-2.8,0 c-0.8,0.8-0.8,2.1,0,2.8L35.6,24z"/>
    <path d="M90.3,25.4c0.5,0,1-0.2,1.4-0.6l7.4-7.4c0.8-0.8,0.8-2,0-2.8c-0.8-0.8-2-0.8-2.8,0L88.9,22c-0.8,0.8-0.8,2,0,2.8 C89.3,25.2,89.8,25.4,90.3,25.4z"/>
    <path d="M74.9,17.9c0.2,0,0.3,0.1,0.5,0.1c0.9,0,1.7-0.6,1.9-1.5l2.7-10.1c0.3-1-0.3-2.1-1.3-2.4h-1.2c-0.6,0.2-1.1,0.7-1.3,1.4 l-2.7,10.1C73.2,16.5,73.9,17.6,74.9,17.9z"/>
    <path d="M67.7,83.8c-0.1,0-0.2-0.1-0.3-0.1h-6.8c-0.1,0-0.2,0-0.3,0.1c-0.6,0.2-1,0.8-0.7,1.4c0.2,0.4,0.9,1.3,2.2,1.9 c0.6,0.3,1.3,0.4,2.2,0.4s1.6-0.2,2.2-0.4c1.3-0.6,2-1.5,2.2-1.9C68.7,84.6,68.3,84,67.7,83.8z"/>
    <path d="M47.6,70.8c-2.7,0-4.9,1.8-4.9,4c0,1.5,1.1,2.9,2.7,3.5c0.7,0.3,1.4,0.5,2.2,0.5s1.6-0.2,2.2-0.5c1.6-0.7,2.7-2,2.7-3.5 C52.5,72.6,50.3,70.8,47.6,70.8z"/>
    <path d="M80.4,70.8c-2.7,0-4.9,1.8-4.9,4c0,1.5,1.1,2.9,2.7,3.5c0.7,0.3,1.4,0.5,2.2,0.5s1.6-0.2,2.2-0.5c1.6-0.7,2.7-2,2.7-3.5 C85.4,72.6,83.2,70.8,80.4,70.8z"/>
    <path d="M47.8,62.8c-4.2,0-6.3,1.8-7.2,3c-0.4,0.5-0.3,1.2,0,1.5c0.3,0.3,1,0.7,1.9,0.4c0.9-0.3,2.5-1.2,5.3-1.2 c2.8,0,4.5,0.9,5.3,1.2c0.9,0.3,1.6,0,1.9-0.4c0.3-0.4,0.4-1,0-1.5C54,64.6,51.9,62.8,47.8,62.8z"/>
    <path d="M74.9,67.8c0.9-0.3,2.5-1.2,5.3-1.2c2.8,0,4.5,0.9,5.3,1.2c0.9,0.3,1.6,0,1.9-0.4c0.3-0.4,0.4-1,0-1.5 c-0.9-1.2-3.1-3-7.2-3c-4.2,0-6.3,1.8-7.2,3c-0.4,0.5-0.3,1.2,0,1.5C73.3,67.7,74,68,74.9,67.8z"/>
  </g>
</svg>