<svg width="128" height="128" xmlns="http://www.w3.org/2000/svg">
  <path d="M116,4H12c-4.4,0-8,3.6-8,8v104c0,4.4,3.6,8,8,8h104c4.4,0,8-3.6,8-8V12C124,7.6,120.4,4,116,4z M63.8,38.7l-18.7,52 c-0.3,0.8-1,1.3-1.9,1.3h-6.6c-0.8,0-1.6-0.5-1.9-1.3l-18.6-52C15.7,37.4,16.6,36,18,36h6.3c0.9,0,1.6,0.6,1.9,1.4L38,73.9 c0.6,1.9,3.2,1.9,3.8,0l11.9-36.5c0.3-0.8,1-1.4,1.9-1.4H62C63.3,36,64.3,37.4,63.8,38.7z M106.8,88c-3.5,2.7-8.2,4-14.2,4 c-3.9,0-7.6-0.7-10.9-2.2s-5.9-3.5-7.7-6c-1.4-2-2.3-4.3-2.6-6.8c-0.1-1.2,0.8-2.2,2-2.2h5.5c1,0,1.8,0.8,2,1.8 c0.3,2.2,1.3,4.1,3,5.4c2,1.7,5,2.6,8.8,2.6c3.3,0,5.8-0.7,7.4-2c1.7-1.3,2.5-3.1,2.5-5.3c0-2.4-0.8-4.2-2.5-5.5 c-1.7-1.3-4.7-2.6-9.1-3.9c-4.4-1.3-8-2.9-10.6-4.6c-5-3.1-7.5-7.2-7.5-12.2c0-4.4,1.8-8,5.4-10.9c3.6-2.8,8.2-4.3,13.9-4.3 c3.8,0,7.2,0.7,10.1,2.1c3,1.4,5.3,3.4,7,6c1.3,1.9,2.1,4,2.4,6.3c0.2,1.2-0.8,2.3-2,2.3h-5.4c-1,0-1.8-0.7-2-1.6 c-0.3-2-1.1-3.7-2.6-5c-1.8-1.6-4.3-2.4-7.7-2.4c-3.1,0-5.5,0.7-7.2,2c-1.7,1.3-2.6,3.2-2.6,5.5c0,2,0.9,3.6,2.8,5 c1.9,1.4,4.9,2.6,9.1,3.9c4.2,1.3,7.7,2.7,10.2,4.3c2.6,1.6,4.5,3.5,5.7,5.5c1.2,2.1,1.8,4.5,1.8,7.3C112,81.7,110.2,85.3,106.8,88z "/>
</svg>