<svg width="128" height="128" xmlns="http://www.w3.org/2000/svg">
  <g>
    <path d="M57.9,61.6c0.7-0.3,1.3-0.7,1.8-1.2c2.9,0.3,5.8,0.3,8.8,0c0.5,0.5,1.2,1,1.9,1.3c8.9,3.9,32.9,11.2,39.4-10 c3.5-11.7-5-29.2-9.8-37.8c-0.9-3.4-2.4-6.7-4.1-9.8h-6.3c3.2,4.8,5.5,10,6.1,15.3C91.3,37.2,76.5,46.5,70,50 c-1,0.6-1.9,1.4-2.5,2.3c-2.2,0.2-4.4,0.2-6.7,0c-0.6-1-1.5-1.8-2.5-2.4c-6.5-3.5-21.2-12.6-25.8-30.2c0.5-5.4,2.8-10.7,6-15.6 h-6.2c-1.7,3-3.1,6.2-4.1,9.5c-4.8,8.4-13.4,26.2-9.8,38.1C25,72.8,49,65.5,57.9,61.6z"/>
    <path d="M110.9,81.3c-0.5-1.5-2.1-2.3-3.7-1.9c-6.8,1.8-25,6.3-43.2,6.3c-18.1,0-36.3-4.5-43-6.3c-1.5-0.4-3.1,0.4-3.7,1.9 c-0.7,1.8,0.4,3.8,2.3,4.2c6.3,1.3,19.2,9.1,26,15.7c7.3,7.1,9.5,15.5,11.1,20.7c0.4,1.3,1.6,2.2,3,2.2h8.7c1.3,0,2.5-0.9,2.9-2.3 c1.6-5.1,3.8-13.3,11-20.5c6.7-6.7,19.9-14.5,26.3-15.8C110.5,85.1,111.6,83.1,110.9,81.3z"/>
  </g>
</svg>