<svg viewBox="0 0 128 128" xmlns="http://www.w3.org/2000/svg">
  <g>
    <path d="M112.9,14.2c-0.2,0-0.5,0-0.8,0.2c-2.7,1.5-7,3.9-12.3,7.2l6.6,6.6c0,0,0-0.1,0.1-0.1l0,0 c3.3-5.2,5.7-9.5,7.1-12.2C114.1,15,113.7,14.3,112.9,14.2z"/>
    <path d="M25.5,98.1l0-0.2L25,94.7c-4.9,7.5-8.3,13.5-10.2,17c-0.6,1.1,0.4,2.1,1.5,1.5c3.2-1.7,8.6-4.8,15.2-9.1 l-0.9-0.9L25.5,98.1z"/>
    <path d="M108.3,35.8c7-10.9,11.9-20.4,14.9-26.7c1.2-2.6-0.1-4.7-2.4-4.7c-0.6,0-1.2,0.1-1.9,0.5 C105.8,11.1,78.3,26,53.3,50.5L19,16.2c-0.8-0.8-2-0.8-2.8,0c-0.8,0.8-0.8,2,0,2.8l34.3,34.3c-24.5,25-39.4,52.5-45.7,65.6 c-1.2,2.6,0.1,4.7,2.4,4.7c0.6,0,1.2-0.1,1.9-0.5c13.1-6.3,40.6-21.1,65.6-45.7L91,93.9c-1.7,2.9-1.3,6.8,1.2,9.3l11.7,11.7 c0.3,0.3,0.8,0.5,1.2,0.5c0.3,0,0.6-0.1,0.9-0.3c0.1-0.1,0.2-0.1,0.3-0.2l8.5-8.5c0.6-0.6,0.6-1.7,0-2.3l-11.7-11.7 c-0.3-0.3-0.6-0.6-0.9-0.8c-1.3-1-2.9-1.5-4.5-1.5c-1.3,0-2.7,0.3-3.8,1L77.5,74.7c12.4-12.7,22.4-26,30-37.7 C107.7,36.6,108,36.2,108.3,35.8z M97.7,92c1.5,0,2.9,0.6,4,1.7l11.4,11.4l-8.1,8.1l-11.4-11.4c-2.2-2.2-2.2-5.8,0-8.1 C94.7,92.6,96.1,92,97.7,92z M33.9,105.9c-0.1,0.1-0.2,0.1-0.3,0.2c-10.3,6.6-19.4,11.3-25.8,14.4c-0.2,0.1-0.3,0.1-0.4,0.2 c0-0.1,0.1-0.2,0.2-0.4c3.4-7.2,9-17.7,16.9-29.6c0.1-0.2,0.2-0.4,0.4-0.5c7.3-11,16.5-23,27.9-34.6l2.1,2.1 c-11.7,12-21.1,24.3-28,34.5l8.3,8.3c-0.1,0.6-0.2,1.1-0.4,1.6c10.4-6.9,23.2-16.6,35.7-28.8l2.1,2.1 C59.6,88.2,45.9,98.3,33.9,105.9z M105.3,34.9c-7.6,11.8-17.5,25.1-29.9,37.7l-2.1-2.1c13-13.2,23.1-26.8,30.2-37.5l-7.3-7.3 c0.2-0.7,0.3-1.4,0.5-2.1c-10.9,7.1-25.2,17.5-39.1,31.2l-2.1-2.1c14.2-14,29.3-24.8,42-32.6c0.2-0.1,0.3-0.2,0.5-0.3 c8.8-5.4,16.6-9.4,22.2-12.1c0.2-0.1,0.3-0.1,0.4-0.1c0,0.1-0.1,0.2-0.1,0.4c-2.8,5.9-7.2,14.2-13,23.7 C106.8,32.6,106.1,33.7,105.3,34.9z"/>
  </g>
</svg>