<svg width="128" height="128" xmlns="http://www.w3.org/2000/svg">
  <g>
    <path d="M92.2,112.2L92.2,112.2V112c4.3-0.4,7.8-4.3,7.8-9.2V51.9c0-25.5-10.2-28-24.5-28c-2.1,0-4.2,0.1-6.4,0.1l11.6-13h4.1 c3.1,0,5.7,2.2,5.7,5.1c0,0.7-0.1,1.3-0.4,1.9c-0.1,0.1,0,0.5,0,0.6c0.1,0.1,0.2,0.4,0.4,0.4h2.1c0.2,0,0.4-0.3,0.5-0.5 c0.2-0.8,0.4-1.6,0.4-2.3c0-4.5-3.9-8.2-8.7-8.2H43.2c-4.8,0-8.7,3.6-8.7,8.1c0,0.8,0.1,1.7,0.4,2.5c0.1,0.2,0.3,0.5,0.5,0.5h2.1 c0.2,0,0.3-0.2,0.4-0.4c0.1-0.1,0.1-0.4,0-0.5c-0.3-0.6-0.4-1.2-0.4-1.9c0-2.9,2.5-5.2,5.7-5.2h4.1L59,24c-2.2,0-4.4-0.1-6.5-0.1 C38.2,23.8,28,26.4,28,52v50.7c0,4.9,3.5,8.9,7.9,9.2L20,124h12h26h12h26h12L92.2,112.2z M49.9,11h28.2L66.4,24 c-0.8,0-1.6,0-2.4,0s-1.5,0-2.3,0L49.9,11z M31,102.7V52c0-10.9,1.9-17.9,5.9-21.4c3.5-3.1,8.8-3.7,15.7-3.7c1.7,0,3.5,0,5.3,0.1 c2,0,4,0.1,6.1,0.1s4.1,0,6.1-0.1c1.9,0,3.6-0.1,5.3-0.1c6.9,0,12.1,0.6,15.7,3.7C95.1,34,97,41,97,51.9v50.9 c0,3.4-2.4,6.2-5.4,6.2H36.4C33.4,109,31,106.2,31,102.7z M58.5,122H33.9l5.8-6c0.1,0,0.1,0,0.2,0H60L58.5,122z M69.5,122l-1.5-6 h20.2l5.8,6H69.5z"/>
    <path d="M52.3,96.1L52.3,96.1c0-2.3-1.8-4.1-4-4.1H36c-2.2,0-4,1.8-4,4v0.2c0,2.2,1.8,4,4,4h12.4C50.5,100.1,52.3,98.3,52.3,96.1 z M44.9,98.5h-5.4c-1.3,0-2.4-1.1-2.4-2.4c0-1.4,1.1-2.5,2.4-2.5h5.4c1.4,0,2.5,1.1,2.5,2.5C47.3,97.4,46.2,98.5,44.9,98.5z"/>
    <path d="M80,92c-2.2,0-4,1.8-4,4v0.2c0,2.2,1.8,4,4,4h12.4c2.2,0,4-1.8,4-4V96c0-2.2-1.8-4-4-4H80z M88.9,98.5h-5.4 c-1.3,0-2.4-1.1-2.4-2.4c0-1.4,1.1-2.5,2.4-2.5h5.4c1.4,0,2.5,1.1,2.5,2.5C91.3,97.4,90.2,98.5,88.9,98.5z"/>
    <path d="M53.2,85.2h21.6c4.4,0,8-3.6,8-8V40c0-4.4-3.6-8-8-8H53.2c-4.4,0-8,3.6-8,8v37.2C45.2,81.6,48.8,85.2,53.2,85.2z"/>
    <path d="M35.9,81.2H40c1.4,0,2.5-1.2,2.5-2.8V41.7c0-1.6-1.2-2.8-2.5-2.8c-0.1,0-0.2,0-0.4,0c-3.2,0.5-6.2,2.1-6.2,7.6v31.9 C33.4,80,34.5,81.2,35.9,81.2z"/>
    <path d="M87.7,81.2h4.1c1.4,0,2.5-1.2,2.5-2.8V46.6c0-5.5-3-7.1-6.2-7.6c-0.1,0-0.2,0-0.4,0c-1.4,0-2.5,1.2-2.5,2.8v36.7 C85.2,80,86.3,81.2,87.7,81.2z"/>
  </g>
</svg>