<svg width="128" height="128" xmlns="http://www.w3.org/2000/svg">
  <g>
    <path d="M85.2,57.2c-15.6-8.6-31.6,7-31.6,7s4.6-21.8-11.2-30.4C30.6,27.3,12,29.3,5.3,53.3c-6.7,24,15.4,70.5,15.4,70.5 s0.2,0,0.3-0.1c-0.1,0.1,0,0.2,0,0.2s51-6.4,67.7-25C105.3,80.5,97,63.7,85.2,57.2z"/>
    <path d="M123.8,20.9C123,5.8,112.3,2.2,104.4,4.5C94.1,7.5,93.9,21,93.9,21s-7.4-11.3-17.8-8.2c-7.8,2.3-15,11.1-7.5,24.2 c7.4,13.2,36.8,23.6,36.8,23.6s0.1-0.1,0.1-0.2c0,0.1,0.1,0.1,0.1,0.1S124.6,36,123.8,20.9z"/>
  </g>
</svg>