<svg width="128" height="128" xmlns="http://www.w3.org/2000/svg">
  <g>
    <path d="M24.1,41.7c-2.4,0-4.4,2.2-4.4,5s2,5,4.4,5s4.4-2.2,4.4-5S26.5,41.7,24.1,41.7z"/>
    <path d="M51.7,51.7c2.4,0,4.4-2.2,4.4-5s-2-5-4.4-5s-4.4,2.2-4.4,5S49.3,51.7,51.7,51.7z"/>
    <path d="M121.2,81.7c1.3-2.3,2.6-4.7,3-7.4c0.4-3.3-1-7.3-3.5-9.8c-1.3-1.3-2.7-2.1-4.3-2.4c-0.8-4.6-3-9-7.8-11.8 c-5.8-3.3-22-4.8-37-5.6c-0.3-1.5-1.5-4.4-6.1-6.3c-1.7-0.7-3.1-0.9-4.3-1c-0.1-0.3-0.2-0.6-0.3-0.9c3.2-1.7,6.6-3.7,8.3-5.9 c8.1-10.1-3.7-22.2-3.8-22.3C65,8,64.5,8,64.1,8.2c-0.4,0.2-0.6,0.7-0.4,1.2c0,0,1.4,4.4-1.8,8.3c-2.1,2.5-6,5-9.4,6.9 c-3.5-2.6-7.8-4.1-12.4-4.1h-3.9c-4.7,0-9,1.6-12.6,4.3c-3.4-1.9-7.5-4.5-9.7-7c-3.2-3.9-1.9-8.1-1.8-8.3c0.1-0.4,0-0.9-0.4-1.2 C11.3,8,10.8,8,10.5,8.4c-0.1,0.1-12,12.2-3.8,22.3c1.8,2.2,5.4,4.3,8.7,6.1c-0.1,0.3-0.2,0.5-0.2,0.8c-1.2,0-2.6,0.3-4.2,0.9 c-6.2,2.5-6.2,7-6.2,7.2c0,0.3,0.1,0.5,0.3,0.7c0.1,0.1,1.7,1.8,4.9,1.8c1.3,0,2.8-0.3,4.5-1c0.3-0.1,0.5-0.2,0.7-0.3l3.1,14.7 c0.2,1,0.6,2,1.1,2.9c-0.3,0.9-0.4,1.9-0.4,2.9v0.5c0,3.8,2.1,7.1,5.1,8.9c1.3,7.5,2.9,12.4,5.5,15.7c0.8,7.9,2.1,19.4,2.6,23.4 c-2.9,1.4-4.9,4.5-4.9,8v0.3c0,0.6,0.4,1,1,1h6.6c0.1,0,0.2,0,0.3,0c0.1,0,0.1,0,0.2,0h1.9H42h1.7c0.1,0,0.2,0,0.3-0.1 c0.1,0,0.2,0.1,0.3,0.1h6.5c0.5,0,0.9-0.4,1-0.9c0-0.1,0-0.2,0-0.4c0-2.8-1.3-5.3-3.3-7c0.5-3.3,1.8-10.9,3.2-18.3 c0-0.1,0.1-0.1,0.1-0.2l0.1-0.5c0.1-0.6,0.2-1.1,0.3-1.7c0.4,0.1,0.8,0.1,1.2,0.2c8.3,1.1,18.5,2.5,38.6-0.7 c1.1,7,2.6,15.4,3.3,19.4c-4.5,0.4-8,4.2-8,8.9v0.3c0,0.6,0.4,1,1,1H95c0.2,0,0.4-0.1,0.6-0.2c0.2,0.1,0.3,0.2,0.5,0.2h1.2h5.4h1.1 c0.2,0,0.4-0.1,0.6-0.2c0.2,0.1,0.4,0.2,0.6,0.2h6.5c0.5,0,0.9-0.4,1-0.9c0-0.1,0-0.2,0-0.4c0-3.2-1.7-6.1-4.2-7.6 c1.2-5.1,2.4-10.5,3.3-15.8c0.6-3.2,1.2-5.7,1.7-7.8c0.9-3.7,1.7-6.8,2.1-12.5c0.1-0.9,0.2-2,0.4-3.3c0.5-3.5,1.1-8.1,0.7-12.6 c1.1,0.4,1.9,1,2.6,1.7c2.1,2.1,3.3,5.5,2.9,8.2c-0.3,2.3-1.5,4.6-2.7,6.7l-0.2,0.3c-1.4,2.6-2.7,5.1-2.8,7.9 c-0.1,1.6,0.3,3.4,1.3,4.9c-1.1,0.8-1.4,2.5-1,4.1c1,3.8,4,2.2,4.3,5c0.2,2.3,5.3-8.6-1.1-9.6c-1.1-1.2-1.6-2.9-1.5-4.4 c0.2-2.5,1.4-4.8,2.7-7.2L121.2,81.7z M20.4,62.1c0-0.4-0.1-0.7-0.1-1L16.6,44c-0.1-0.7-0.2-1.3-0.2-1.8 c0.5-11.1,9.2-19.7,19.8-19.7h3.9c10.2,0,18.9,8.4,19.7,19.2c0.1,0.8,0,1.7-0.2,2.6L55,61.5c-0.1,0.3-0.2,0.6-0.3,0.9 c-1.7-3.2-5.1-5.3-9-5.3H29.2C25.5,57.1,22.2,59.1,20.4,62.1z M47.5,67.4c0,2.2-1.5,4-3.3,4s-3.3-1.8-3.3-4c0-2.2,1.5-4,3.3-4 S47.5,65.2,47.5,67.4z M33.5,67.4c0,2.2-1.5,4-3.3,4s-3.3-1.8-3.3-4c0-2.2,1.5-4,3.3-4S33.5,65.2,33.5,67.4z M37.7,115 c-0.5-0.1-1-0.2-1.6-0.2c-0.7,0-1.3,0.1-1.9,0.2c-0.5-3.9-1.6-13-2.3-20.2c1.1,0.9,2.2,1.7,3.6,2.4v0.1c0,0,0,0,0,0.1 c0.4,7.1,1.6,13.9,2.4,17.6H37.7z M98.2,115.1c-0.3-0.1-0.5-0.1-0.8-0.2c-0.7-3.8-2.3-12.6-3.4-19.8c0.3,0,0.6-0.1,0.8-0.1 c3.4,7.3,4.6,15.9,5,20L98.2,115.1z M114,76.5c-0.2,1.3-0.3,2.5-0.4,3.5c-0.4,5.5-1.2,8.5-2.1,12.2c-0.5,2.2-1.1,4.6-1.7,7.9 c-1,5.1-2.1,10.3-3.2,15.3c-0.8-0.3-1.7-0.4-2.7-0.4c-0.7,0-1.4,0.1-2.1,0.3c-0.3-3.6-1.3-11.1-4-18.2c0-0.2,0-0.4,0-0.5l-4-10.1 c-0.2-0.5-0.8-0.8-1.3-0.6c-0.5,0.2-0.8,0.8-0.6,1.3l2.4,6c-21.5,3.7-32.1,2.3-40.6,1.1c-0.5-0.1-0.9-0.1-1.3-0.2l0.7-5.6 c0.1-0.5-0.3-1-0.9-1.1c-0.5-0.1-1,0.3-1.1,0.9l-1.2,9.3c-1.3,7.1-2.6,14.5-3.2,18.2c-1.1-0.5-2.3-0.8-3.6-0.8 c-1.1,0-2.2,0.2-3.2,0.6c-0.7-3.5-2.2-11-2.6-19c0-0.1,0-0.2-0.1-0.3c-0.1-1.4-0.2-2.8-0.3-4c-0.1-1.5-0.2-2.8-0.3-4 c-0.1-0.5-0.6-0.9-1.1-0.9c-0.5,0.1-0.9,0.6-0.9,1.1c0.1,1.1,0.2,2.4,0.3,3.9c0,0.7,0.1,1.5,0.2,2.4c-4.7-2.8-7.1-7.3-8.9-17.2 c0.9,0.3,1.9,0.4,2.9,0.4h16.5C51.4,78,56,73.4,56,67.8v-0.5c0-0.8-0.1-1.7-0.3-2.5c0.6-0.9,1-1.8,1.3-2.9l4-15.3 c0.3,0.2,0.6,0.3,1,0.5c1.8,0.7,3.3,1,4.5,1c2.2,0,3.7-0.8,4.4-1.3c14.9,0.7,31.2,2.1,36.7,5.3c4,2.3,5.9,6,6.7,9.9l0.2,2h0.1 C115.1,68.4,114.5,73,114,76.5z"/>
  </g>
</svg>