<svg width="128" height="128" xmlns="http://www.w3.org/2000/svg">
  <path d="M124.2,49.4c-1.9-11.8-8.3-22.6-19.7-28.9c-13.2-7.3-28.6-5.6-41.2,1.8c-0.2-0.1-0.4-0.3-0.6-0.4c-3.2-2-6.8-3.7-11-5 c0,0-26.6-5.9-40,17c-10,17-11.8,45.4,8.6,63.9c-1.8,3.2-2.2,6.5-0.4,9.7c0,0,2.4,3.9,6.1,4.5c2.6,0.4,5.6-1.8,8.8-4.8 c7.7,3.6,17.1,6.2,28.4,7.5c0,0,19.1,1.2,34.1-7c0.7,0.6,1.2,1.1,1.6,1.3c4.6,2.7,9.4,3,12,1.4c2.4-1.5,5.2-4.4-1-14.1 c4.6-7.2,9.7-14.4,12.3-22.6C124.8,65.9,125.5,57.4,124.2,49.4z M34.5,84.2c-1.4-1.7-2.6-3.5-3.7-5.6c-10.5-19.9-4.2-33.7,0.7-37.9 c3-2.5,14.1-7.6,21.2,4.8l-0.4-0.3c0,0-4.2,10.9-2.4,18c0.6,2.1,1.7,4.5,3.4,7c-0.4,0.4-4.1,4-9.4,7.8C42,79.3,38.4,81.5,34.5,84.2z M79.2,94c-8.2,2.4-19.4,3.7-29.6,0.5c1.7-1.2,3.5-2.2,5.3-3.1c6.1-3,10-6.7,11.2-7.9l-0.2-0.2c2.4,1.9,5.1,3.7,8,5.4 c2.6,1.5,4.9,3.1,7.1,4.7C80.4,93.6,79.8,93.8,79.2,94z M102,58c-0.9,7-3.1,15.3-6.9,22.1c-3.5-2.7-7.3-5.3-11.7-8.4 c-2.2-1.5-4.5-3.2-6.8-4.8c0.8-1.7,4.3-9.8,3.4-18.8c-0.2-2.3-0.8-4.8-1.8-7.5c2.1-1.2,7.2-4.3,11.5-3.5 C95.2,38.1,103.8,44.3,102,58z"/>
</svg>