<svg width="128" height="128" xmlns="http://www.w3.org/2000/svg">
  <g>
    <path d="M63.9,4C30.8,4.1,3.9,31,4,64.1C4.1,97.2,31,124,64.1,124c33.1-0.1,59.9-27,59.9-60.1C124,30.8,97,3.9,63.9,4z M64.1,92.9 c-16,0-29-12.9-29-28.9S48,35,64,35s29,12.9,29,28.9S80,92.9,64.1,92.9z"/>
    <path d="M71.5,63.4c1.8-0.9,3.2-2.2,4.2-3.8c1-1.6,1.5-3.4,1.5-5.4c0-3.6-1.2-6.4-3.6-8.5c-2.4-2.1-5.6-3.1-9.6-3.1 c-4.1,0-7.3,1.1-9.7,3.2c-2.4,2.1-3.5,4.9-3.5,8.5c0,2,0.5,3.8,1.5,5.4c1,1.6,2.4,2.8,4.2,3.8c-2,1-3.6,2.3-4.8,4s-1.8,3.7-1.8,6 c0,3.7,1.3,6.6,3.8,8.8s6,3.2,10.3,3.2s7.8-1.1,10.3-3.2c2.5-2.2,3.8-5.1,3.8-8.8c0-2.4-0.6-4.4-1.8-6.1 C75.1,65.7,73.5,64.3,71.5,63.4z M60.4,50.7c0.9-1,2.1-1.4,3.6-1.4c1.6,0,2.8,0.5,3.6,1.5c0.9,1,1.3,2.3,1.3,3.9c0,1.7-0.4,3-1.3,4 c-0.9,1-2.1,1.5-3.6,1.5c-1.6,0-2.8-0.5-3.6-1.5c-0.8-1-1.3-2.3-1.3-4S59.5,51.6,60.4,50.7z M68.2,77.2c-1,1.1-2.4,1.6-4.2,1.6 s-3.3-0.5-4.3-1.6c-1-1.1-1.5-2.5-1.5-4.3c0-1.8,0.5-3.3,1.6-4.4c1.1-1.1,2.5-1.6,4.2-1.6c1.8,0,3.2,0.5,4.2,1.6 c1,1.1,1.6,2.5,1.6,4.3C69.8,74.7,69.3,76.1,68.2,77.2z"/>
  </g>
</svg>