<svg viewBox="0 0 128 128" xmlns="http://www.w3.org/2000/svg">
  <path d="M108.3,16.4c-1.5,0-3.1,0.1-4.8,0.3c-0.1-0.1-0.2-0.2-0.3-0.3L91.4,5.3c-0.3-0.3-0.8-0.5-1.2-0.4c-0.4,0.1-0.8,0.3-1.1,0.7 c-4,6.5-3.8,13.2-2.7,19.4c-0.8,0.7-1.6,1.5-2.5,2.3c-1-1.4-2.4-2.5-3.5-3.4l-9.1-7.2c-1.5-1.2-2.8-1.5-4-0.8 c-1.1,0.6-1.5,1.8-1.4,3.5c0.4,5.7,2.2,11.3,5.1,16.1c0.7,1.2,1.7,2.2,2.7,2.9c-4,4.7-7.6,9.1-10,11.8c-1-1.5-2.5-2.5-4.1-3.5 c-0.4-0.2-0.9-0.6-1.4-1c-3.2-2.2-7.9-5.5-10.9-2.9c-2.1,1.9-1.9,6.7-1.4,12.4c0.1,1,0.1,1.9,0.2,2.4c0.1,1.6,0.2,3.2,1,4.6 c-0.6,0.5-1.3,1-2,1.6c-1,0.8-2,1.7-3,2.6c-0.6-0.4-1.3-0.8-2.1-1.1c-0.4-0.2-0.8-0.4-1-0.5C21.8,54.6,21.1,51,18.4,37.4 c-0.3-1.3-0.6-2.8-0.9-4.3c-0.2-1-1-1.4-1.7-1.3c-0.8,0.1-1.7,0.2-3.5,7c-0.7,2.4-1.8,7.1-1.8,11c0,14.4,5.5,22.6,10.2,26.9 c2.7,2.5,5.5,4.2,8,5.2c-3.4,6-5.9,9.5-2.4,15.8c1.5,2.6,3.1,6.8,8.9,9.8c0.6,0.3,1.3,0.4,2.2,0.4c5,0,14.1-3.8,18.6-3.8 c0.5,0,1,0,1.4,0.2c5.1,1.6,10,2.5,14.7,2.5c6.5,0,12.7-1.6,19-5.5C94.9,99,98,96,100.9,93c1.1,0,16.2,20.2,23.1,28.6v-102 C120.8,18.2,115.2,16.4,108.3,16.4z M22.6,74.6c-4.1-4.1-9.1-11.6-9.1-24.8c0-3.5,1-8.1,2-11.4c2.7,13.6,3.8,18.3,21.7,29 c0.3,0.2,0.7,0.4,1.2,0.6c0.7,0.3,2.3,1.2,2.6,1.6c1.3,2.6,0.3,5.1-0.4,6.4c-1.3,2.3-3.8,4.1-5.8,4.3C33,80.4,27.6,79.2,22.6,74.6z M43,97.4c-3,2.1-8,0.4-9.3-1.5c-1.3-1.9-0.1-5.2,2.9-7.3c3-2.1,6.5-2.2,7.9-0.3C45.9,90.2,46,95.3,43,97.4z M49.5,60.7 c-0.4-0.9-0.5-2-0.5-3.1c0-0.6-0.1-1.5-0.2-2.6c-0.2-2.4-0.7-8.9,0.5-10s5.5,2,7.1,3.1c0.6,0.4,1.2,0.8,1.6,1.1 c1.5,0.9,2.8,1.7,3.4,3c0,0.1,0,0.1,0.1,0.2C56,57.2,52.9,58.6,49.5,60.7z M73.6,33.8c-2.7-4.4-4.3-9.5-4.7-14.7c0-0.2,0-0.4,0-0.5 c0.1,0.1,0.3,0.2,0.5,0.4l9.1,7.2c1.2,0.9,2.5,2,3.3,3.3c-2,2.1-4,4.3-6,6.5C74.9,35.5,74.1,34.8,73.6,33.8z M85.4,64 c-3.4,2-7.7,1.1-9.4-1.9c-0.1-0.1-0.1-0.2-0.1-0.3c0.1,0,0.2-0.1,0.3-0.1l12.2-6.5c0.1,0,0.1-0.1,0.2-0.1C90.1,58.1,88.8,62,85.4,64 z M101.6,34.7c-2.2,0.9-4.7,0.8-6.8-0.4c-2.4-1.3-4.1-3.6-4.7-6.2c-1.8-7.6-2.2-13.6,0.6-19.3l10.5,9.9c1.9,1.8,4,3.7,4.9,6.2 C107.5,28.6,105.4,33.2,101.6,34.7z"/>
</svg>