<svg width="128" height="128" xmlns="http://www.w3.org/2000/svg">
  <g>
    <path d="M95.3,46.4c0.3,0.4,0.8,0.5,1.2,0.2l2.8-2c12.8-7.9,21.1-13.3,22.5-21.4c1.1-6.6-3.1-12.6-9.7-13.7 c-3.6-0.6-7.5,0.5-10.3,2.8c-1.9-3.2-5.2-5.5-8.8-6.1c-6.6-1.1-12.6,3.1-13.7,9.7C77.9,24,84,31.8,93.4,43.5L95.3,46.4z"/>
    <path d="M71.2,63.8c0.2,0.2,0.5,0.3,0.8,0.1l1.7-1.3c8-5.2,13.3-8.7,14.1-13.9c0.6-4.2-2.1-8-6.3-8.6c-2.3-0.4-4.8,0.4-6.6,1.9 c-1.2-2-3.4-3.4-5.7-3.8c-4.2-0.6-8,2.1-8.6,6.3c-0.8,5.2,3.2,10.1,9.3,17.5L71.2,63.8z"/>
    <path d="M122,78l-8.8-8.8c-0.8-0.8-1.8-1.2-2.8-1.2H56.3H56V40h2.5c0.2,0,0.4,0,0.5-0.1c0.1,0,0.1,0,0.2-0.1c0.1,0,0.2-0.1,0.3-0.1 l0.1-0.1c0.1-0.1,0.1-0.1,0.2-0.2l0.1-0.1C60,39.2,60,39.1,60,39c0,0,0,0,0-0.1c0.1-0.4,0-0.7-0.4-1l-4.2-2c-0.9-0.5-1.6-1.1-2-1.9 L38.8,5.4c-1-1.9-4.5-1.9-5.5,0L18.6,34c-0.4,0.8-1.1,1.5-2,1.9l-4.2,2c-0.5,0.4-0.5,1-0.2,1.4c0,0,0,0,0,0.1 c0.1,0.1,0.1,0.2,0.2,0.2c0,0,0.1,0,0.1,0.1c0.1,0.1,0.2,0.1,0.3,0.2h0.1c0.2,0,0.3,0.1,0.5,0.1H16v28l-0.5,0.5l-9.7,9.7L4,80v44 h20h24h76V80L122,78z M36,40h17v28H40.7l-1.6-1.3H47V51C47,44.9,42.1,40,36,40s-11,5-11,11v15.7h7.9L31.3,68H19.1L19,40H36z M27.8,55.5l6.3,0.7c-0.1,0.2-0.2,0.5-0.2,0.8c0,1,0.8,1.8,1.8,1.8s1.8-0.8,1.8-1.8c0-0.1,0-0.3,0-0.4l6.3,0.7 c0.5,0.1,0.9-0.3,1-0.8c0.1-0.5-0.3-0.9-0.8-1h-0.3c0,0-1.5-2.6-0.9-7.9c0.4-3.8-2.5-4.9-4.2-5.3v-0.1c0-0.3-0.1-0.6-0.3-0.8 c4.4,1.1,7.7,5,7.7,9.7v14.7h-8.1c-1.1-0.9-2.7-0.9-3.8,0H26V51c0-5.5,4.5-10,10-10c0.3,0,0.7,0,1,0c-0.4,0.3-0.6,0.6-0.7,1 c-1.7-0.1-4.8,0.4-5.3,4.2c-0.6,5.3-2.7,7.5-2.7,7.5H28c-0.5-0.1-0.9,0.3-1,0.8S27.3,55.4,27.8,55.5z M121,121H48v-13 c0-6.6-5.4-12-12-12s-12,5.4-12,12v13H7V81.2L8.2,80h8.7l-6.8,5.7c-1.3,1.1-1.4,2.9-0.4,4.2c1.1,1.3,3,1.5,4.2,0.4L36,71.9 l22.1,18.4c0.6,0.5,1.2,0.7,1.9,0.7c0.9,0,1.7-0.4,2.3-1.1c1.1-1.3,0.9-3.2-0.4-4.2L55.1,80h64.7l1.2,1.2V121z"/>
    <path d="M80,88.2c-0.6,0.3-2,1.3-3.3,3c1.2,1.5,2.6,3.7,3.3,6.9c0.7-3.2,2.1-5.4,3.3-6.9C81.9,89.5,80.6,88.5,80,88.2z"/>
    <path d="M75.9,92.2c-1.8,2.6-2.7,5.7-2.8,9.3v0.6v12.8h6.3v-12.5c-0.1-5.1-1.9-8.4-3.4-10.3C76,92.1,76,92.1,75.9,92.2z"/>
    <path d="M83.9,92c-1.5,1.8-3.3,5-3.5,9.9v12.8h6.4v-13.3c0-3.5-0.9-6.6-2.7-9.2C84.1,92.1,84,92.1,83.9,92z"/>
    <path d="M99.9,92.2c-1.8,2.6-2.7,5.7-2.8,9.3v0.6v12.8h6.3v-12.5c-0.1-5.1-1.9-8.4-3.4-10.3C100,92.1,100,92.1,99.9,92.2z"/>
    <path d="M104,88.2c-0.6,0.3-2,1.3-3.3,3c1.2,1.5,2.6,3.7,3.3,6.9c0.7-3.2,2.1-5.4,3.3-6.9C105.9,89.5,104.6,88.5,104,88.2z"/>
    <path d="M107.9,92c-1.5,1.8-3.3,5-3.5,9.9v12.8h6.4v-13.3c0-3.5-0.9-6.6-2.7-9.2C108.1,92.1,108,92.1,107.9,92z"/>
  </g>
</svg>