<svg width="128" height="128" xmlns="http://www.w3.org/2000/svg">
  <path d="M64,4C30.9,4,4,30.9,4,64s26.9,60,60,60s60-26.9,60-60S97.1,4,64,4z M57.6,69.3c0.2-0.1,0.3-0.1,0.5-0.1h11.7 c0.2,0,0.4,0.1,0.5,0.1c1.1,0.4,1.7,1.5,1.2,2.7s-2.8,4.5-7.5,4.5s-7-3.3-7.5-4.5C55.9,70.9,56.5,69.8,57.6,69.3z M27.7,53.6 c4-3.7,9.8-6.1,16-6.1c4.9,0,6.4,1.6,7.8,3.6c0.7,1.2,1.1,2.8,1.1,4.6c0,4.8-3.2,7.8-6.7,7.8s-6.7-2.9-6.7-7.8c0-1,0.2-1.9,0.4-2.7 c-3.3,0.7-6.5,2-9.3,3.8C28.3,58.1,25.7,55.5,27.7,53.6z M90,84.6c-0.8-0.2-1.6-0.7-2.2-1.3c-0.2-0.2-0.4-0.4-0.6-0.6 c-0.7,2-2.2,3.8-3.8,5.2c-1.8,1.5-3.8,2.7-6,3.6C73.2,93.2,68.6,94,64,94s-9.2-0.7-13.5-2.5c-2.1-0.9-4.2-2.1-5.9-3.6 c-1.5-1.4-2.8-2.9-3.6-4.7c-0.1,0.1-0.1,0.2-0.2,0.2c-0.6,0.6-1.4,1-2.2,1.3c-0.9,0.2-1.8,0.3-2.6-0.1c1.6-0.4,2.8-1.3,3.9-2.2 c0.5-0.5,1.1-1,1.5-1.6c0.4-0.6,0.8-1.2,1.1-2c0.3,0.8,0.2,1.8-0.2,2.5c-0.2,0.6-0.6,1.1-1,1.5c3.1,2.7,6.7,4.1,10.5,5.1 c4,0.9,8.1,1.3,12.2,1.3s8.3-0.4,12.3-1.3c2-0.5,4-1.1,5.9-1.9c1.7-0.9,3.4-2,4.9-3.5c-0.3-0.4-0.6-0.8-0.8-1.3 c-0.3-0.8-0.5-1.8-0.2-2.5c0.2,0.8,0.6,1.4,1.1,2c0.4,0.6,1,1.1,1.5,1.6c1,1.1,2.2,1.9,3.8,2.3C91.7,84.9,90.8,84.9,90,84.6z M94.3,63.5c-3.5,0-6.7-2.9-6.7-7.8c0-1,0.2-1.9,0.4-2.7c-3.3,0.7-6.5,2-9.3,3.8c-2,1.3-4.5-1.3-2.6-3.2c4-3.7,9.8-6.1,16-6.1 c4.9,0,6.4,1.6,7.8,3.6c0.7,1.2,1.1,2.8,1.1,4.6C101,60.5,97.8,63.5,94.3,63.5z"/>
</svg>