<svg width="128" height="128" xmlns="http://www.w3.org/2000/svg">
  <path d="M103.8,44c-12.6,0-17.6,0-27.7,1C70.2,45.6,64,45.7,64,45.7s-6.2-0.1-12.1-0.7c-10-1-15.1-1-27.7-1S3.4,45.3,3.4,45.3v8.4 c0,0,4.3,0.1,4.3,3.5C7.7,65.7,7.6,84,29.9,84c17.8,0,26.4-9.2,27.8-19.4c0.6-4.2,2.1-8.8,6.3-8.8c4.3,0,5.8,4.6,6.3,8.8 C71.8,74.8,80.3,84,98.1,84c22.3,0,22.2-18.2,22.2-26.8c0-3.5,4.3-3.5,4.3-3.5v-8.4C124.6,45.3,116.4,44,103.8,44z M23.4,56.2 c-1.4,0.5-2.6,2.2-2.8,4.1c-0.1,1.6-0.8,3.1-2.3,3.4c-0.2,0-0.4,0-0.5,0c-1.4,0-2.6-1-2.9-2.4c-0.6-3,0.1-5.8,1.8-7.9 c1.6-2,4.1-3.1,6.6-3.1c1.6,0,3,1,3,2.6C26.5,54.8,25,55.6,23.4,56.2z M87.7,56.2c-1.4,0.5-2.6,2.2-2.8,4.1 c-0.1,1.6-0.8,3.1-2.3,3.4c-0.2,0-0.4,0-0.5,0c-1.4,0-2.6-1-2.9-2.4c-0.6-3,0.1-5.8,1.8-7.9c1.6-2,4.1-3.1,6.6-3.1 c1.6,0,3,1,3,2.6C90.7,54.8,89.2,55.6,87.7,56.2z"/>
</svg>