<svg viewBox="0 0 128 128" xmlns="http://www.w3.org/2000/svg">
  <path d="M120.7,89.4c0-0.4-0.1-0.8-0.2-1.2c-0.1-0.7-0.3-1.4-0.4-2.1c-1.8-7.1-6.2-12-11.4-14.4c-0.1,0-0.1-0.1-0.2-0.1 c-0.4-0.2-0.8-0.4-1.3-0.5c-0.2-0.1-0.4-0.1-0.5-0.2c-0.4-0.1-0.7-0.2-1.1-0.3c-0.3-0.1-0.6-0.1-0.8-0.2c-0.3-0.1-0.6-0.1-0.9-0.2 c-0.4-0.1-0.8-0.1-1.2-0.2c-0.2,0-0.4-0.1-0.6-0.1c-0.6-0.1-1.2-0.1-1.8-0.1c-0.6,0-1.2,0-1.8,0.1h-0.1c-0.6,0.1-1.2,0.2-1.9,0.3 c-0.3,0.1-0.5,0.1-0.8,0.2c-0.5,0.1-1,0.2-1.4,0.4c-0.2,0.1-0.4,0.1-0.6,0.2c-0.6,0.2-1.2,0.4-1.7,0.6c-0.2,0.1-0.4,0.1-0.5,0.2 c-0.7,0.3-1.4,0.6-2.1,0.8c-5.7-8.7-15.8-27-24.4-57.3c0.2,0,0.5,0,0.6,0.1c2.1,0.2,3.7,1.6,5.4,2.8c-0.2,5.2,0.4,16.4,8.3,24.6 c7.1,7.3,17.1,9.2,25.5,10.7c4.5,0.8,8.4,1,11.1,1.1c-9.4-6.1-5.2-21.2-13.7-30.2c-7-7.5-15.7-9.8-22.3-9.8c-2.3,0-4.3,0.3-6,0.7 c-2.3-1.6-5.2-2.6-8-2.6c-0.4,0-1,0-1.6,0.1c-0.6-2.2-1.2-4.5-1.8-6.9l-9.8,2.3c0,0,2.9,4.8,5.1,10.6C53.9,45.1,46.1,63,40.5,73.1 c-2.7-0.6-4.7-1.8-8.6-2.4c-0.4-0.1-0.8-0.1-1.3-0.1c-0.1,0-0.1,0-0.2,0c-0.4,0-0.8,0-1.2,0c0,0,0,0-0.1,0c-0.5,0-1.1,0-1.6,0.1 c-0.1,0-0.1,0-0.2,0c-0.5,0-1,0.1-1.5,0.2c-0.1,0-0.2,0-0.2,0c-0.5,0.1-1,0.2-1.5,0.3c-0.1,0-0.2,0-0.2,0.1c-0.5,0.1-1,0.3-1.5,0.5 c-0.1,0-0.1,0-0.2,0.1c-0.5,0.2-1,0.4-1.5,0.6c0,0,0,0-0.1,0c-0.5,0.2-1,0.5-1.4,0.8c-0.1,0-0.1,0.1-0.2,0.1 c-0.4,0.3-0.9,0.6-1.3,0.9c-0.1,0.1-0.2,0.1-0.3,0.2c-0.4,0.3-0.8,0.6-1.2,1c-0.1,0.1-0.2,0.1-0.3,0.2c-0.4,0.4-0.8,0.7-1.1,1.1 c-0.1,0.1-0.1,0.2-0.2,0.2c-0.4,0.4-0.7,0.8-1.1,1.3c0,0.1-0.1,0.1-0.1,0.2c-0.3,0.4-0.7,0.9-1,1.4c0,0.1-0.1,0.1-0.1,0.2 c-0.3,0.5-0.6,1-0.9,1.5c-0.1,0.1-0.1,0.2-0.2,0.3c-0.3,0.5-0.5,1.1-0.7,1.6c0,0.1-0.1,0.2-0.1,0.3c-0.2,0.6-0.4,1.1-0.6,1.7 c0,0.1-0.1,0.2-0.1,0.3c-0.2,0.6-0.3,1.3-0.5,1.9c0,0.1,0,0.2,0,0.2c-0.1,0.7-0.2,1.4-0.3,2.2c-0.2,2.2-0.1,4.6,0.4,7 c0.2,1.2,0.5,2.4,0.9,3.5c0.1,0.4,0.3,0.8,0.4,1.2c0.9,2.3,2,4.6,3.3,6.7c0.2,0.3,0.5,0.7,0.7,1c0.9,1.4,2,2.6,3.1,3.8 c0.3,0.3,0.6,0.6,0.8,0.8c2.9,2.7,6.2,4.6,9.6,5.1c2.7,0.4,3.2-0.2,6.3,0.2c3.1,0.5,3.3,1.2,6,1.6c1.7,0.2,3.4,0.2,5.1-0.1 c0.3-0.1,0.6-0.1,0.9-0.2c0.1,0,0.1,0,0.2,0c0.3-0.1,0.5-0.1,0.8-0.2c0.1,0,0.2,0,0.3-0.1c0.2-0.1,0.5-0.2,0.7-0.2 c0.1,0,0.2-0.1,0.3-0.1c0.2-0.1,0.5-0.2,0.7-0.3c0.1,0,0.2-0.1,0.4-0.1c0.2-0.1,0.4-0.2,0.7-0.3c0.1-0.1,0.3-0.1,0.4-0.2 c0.2-0.1,0.4-0.2,0.6-0.3c0.1-0.1,0.3-0.1,0.4-0.2c0.2-0.1,0.4-0.2,0.6-0.3c0.2-0.1,0.3-0.2,0.5-0.3c0.2-0.1,0.4-0.2,0.5-0.3 c0.2-0.1,0.3-0.2,0.5-0.3c0.2-0.1,0.3-0.2,0.5-0.3c0.2-0.1,0.4-0.3,0.6-0.4c0.1-0.1,0.3-0.2,0.4-0.3c0.2-0.2,0.4-0.3,0.7-0.5 c0.1-0.1,0.2-0.1,0.3-0.2c0.3-0.2,0.6-0.5,0.9-0.7c3.1-2.6,5.8-5.8,7.7-9.3c0,0,0,0.1,0.1,0.1c0.1,0.2,0.2,0.4,0.3,0.6 c0.1,0.1,0.2,0.3,0.2,0.4c0.1,0.2,0.3,0.4,0.4,0.6c0.1,0.1,0.2,0.2,0.2,0.4c0.1,0.2,0.3,0.4,0.4,0.6c0.1,0.1,0.1,0.2,0.2,0.3 c0.2,0.2,0.4,0.5,0.5,0.7c0.1,0.1,0.1,0.1,0.2,0.2c0.8,1,1.6,1.9,2.4,2.8c0,0,0,0,0.1,0.1c0.3,0.3,0.5,0.5,0.8,0.8l0.1,0.1 c0.3,0.2,0.5,0.5,0.8,0.7c0.1,0,0.1,0.1,0.2,0.1c0.3,0.2,0.5,0.4,0.8,0.7c0.1,0,0.1,0.1,0.2,0.1c0.3,0.2,0.5,0.4,0.8,0.6 c0.1,0,0.1,0.1,0.2,0.1c0.3,0.2,0.6,0.4,0.9,0.6l0.1,0.1c0.3,0.2,0.6,0.4,0.9,0.6c2.4,1.5,5,2.7,7.5,3.4c0.3,0.1,0.7,0.2,1,0.2 c0,0,0,0,0.1,0c0.3,0.1,0.7,0.1,1,0.2c0.4,0.1,0.7,0.1,1.1,0.1s0.9,0.1,1.3,0.1c0.2,0,0.3,0,0.5,0s0.4,0,0.6,0s0.5,0,0.7-0.1 c0.1,0,0.3,0,0.4-0.1c0.2,0,0.5-0.1,0.7-0.1c2.6-0.5,2.9-1.1,6-1.7c1.5-0.3,2.3-0.1,3.1-0.1h0.5c0.7,0,1.4-0.2,2.6-0.5 C113.5,116.3,121.9,101.1,120.7,89.4z M82.7,73.5c-1.5,0-3.2,0.1-5.4,0.5c-4,0.8-7.8,3-10.6,6.3c-0.4,0.5-0.9,1-1.2,1.6 c-0.3,0.4-0.5,0.8-0.8,1.2c-3.1-5.2-8.3-8.6-13.8-9.5c-1.5-0.2-2.7-0.3-3.8-0.3c-0.4,0-0.7,0-1.1,0c9.7-16.9,13.6-33.5,16.2-44.4 c0.9,5.6,10.7,30.4,22,44.6C83.7,73.5,83.2,73.5,82.7,73.5z M100.3,72.9c3.9,0,7.7,1.4,10.7,3.9c3.4,2.9,5.7,7,6.5,11.9 c1.7,10.6-6.4,25-15.2,26.8c-0.9,0.2-1.4,0.4-2,0.4h-0.5c-0.9,0-2-0.2-3.8,0.2c-1.9,0.4-3,0.7-3.8,1.1c-0.7,0.3-1.2,0.4-2.1,0.6 c-0.7,0.2-1.5,0.2-2.3,0.2c-8.9,0-18.6-7.3-20.9-16.7c1.6-6.2,0.6-12.3-0.3-16c2.4-3.8,7.3-7.4,11.5-8.3c2.1-0.4,3.7-0.5,5.2-0.5 c1.4,0,2.9-0.1,4.6-0.4c1.7-0.3,3.1-0.9,4.4-1.4c1.4-0.6,2.9-1.2,4.9-1.6C98.2,73,99.2,72.9,100.3,72.9 M29,73.7 c0.8,0,1.5,0.1,2.3,0.2c2.1,0.3,3.6,0.8,5,1.3c1.4,0.5,2.8,0.9,4.5,1.2c0.9,0.1,1.8,0.2,2.9,0.2c0.6,0,1.2,0,1.8,0 c0.6,0,1.2,0,1.8,0c1.2,0,2.3,0.1,3.4,0.3c4.3,0.6,8.3,3.1,10.9,6.8c2,2.9,4.2,7.8,2.8,14.8c-1.9,9.8-12.9,19.8-21.8,19.8 c-0.6,0-1.1,0-1.7-0.1c-1-0.2-1.5-0.3-2.1-0.6c-0.9-0.3-2-0.7-3.9-1c-1-0.2-1.9-0.2-2.7-0.2c-0.5,0-0.9,0-1.3,0c-0.3,0-0.6,0-0.9,0 c-0.4,0-0.9,0-1.4-0.1c-9-1.3-17.9-15-16.7-25.7C13,78.9,21.6,73.7,29,73.7"/>
</svg>