<svg viewBox="0 0 128 128" xmlns="http://www.w3.org/2000/svg">
  <path d="M121.3,39.8c-3-9.5-11.2-13.9-15.4-14.5c-4.1-0.6-7.8,0.9-11.1,3.3c-1.7-1.6-2.9-2.5-3.8-2.8c2.3-2.4,4.4-4.5,4.4-4.5 L92,18.7c0.1,1.1-3.5,5.3-6.2,8.3c-3.7-2.5-7.8-4.3-12.2-5.2c-2-0.4-4.1-0.6-6.2-0.6c-2.9,0-5.9,0.3-8.9,0.9 c-4.4,0.9-8.8,2.3-12.6,4c-7.8,3.5-14.5,9-19.9,15.6c-0.9,1.1-1.8,2.3-2.7,3.6c-3.4,4.9-6.2,10.2-8.7,15.5C10.7,69,5.1,77.3,4,86.4 c-2.2,18.7,16.7,22.8,31.4,22.8c14.8,0,30.7-5.7,43.1-13.5c10.4-6.6,19.2-16.4,22.3-28.3c0-0.1,0.1-0.3,0.1-0.4 c8.2,13.8,18,30.4,18,30.4C120.4,92.3,128,61.1,121.3,39.8z M89.5,27.2c0.6,0.2,1.9,0.9,3.8,2.5c-0.7,0.6-1.4,1.2-2.1,1.9 c-1-1-2.1-2-3.2-2.8C88.5,28.2,89,27.7,89.5,27.2z M97.9,66.6C95.2,76.8,87.8,86.2,77,93c-12.9,8.2-28.4,13-41.4,13 c-6.9,0-19.3-1-25.1-7.5c-2.6-3-3.7-6.8-3.1-11.6c0.7-6.3,3.9-12.4,7-18.3c1.1-2.1,2.2-4.2,3.2-6.4c3-6.4,5.6-11,8.4-15.1 c0.8-1.2,1.7-2.3,2.5-3.4c5.2-6.5,11.7-11.5,18.7-14.7c3.8-1.7,7.9-3,11.9-3.8c2.9-0.6,5.6-0.9,8.2-0.9c2,0,3.9,0.2,5.6,0.5 c3.7,0.7,7.3,2.3,10.6,4.4C83,29.7,82.7,30,82.7,30l2,2c0.2-0.2,0.5-0.7,1-1.2C87,32,88,32.9,89,34c-3.2,4.7-1.8,11.3,1.4,15.7 c1.2,1.6,4.3,6.8,8.2,13.2C98.4,64.1,98.2,65.4,97.9,66.6z"/>
</svg>