<svg viewBox="0 0 128 128" xmlns="http://www.w3.org/2000/svg">
  <g>
    <path d="M123.7,60.8c-0.4-0.4-1.8-0.8-3.2-0.1c-1.6,0.8-2.9,2.2-3.8,2.5c-0.3,0.1-0.5,0.1-0.8,0.1c-0.1-0.2-0.2-0.4-0.3-0.6 c0.1-0.1,0.2-0.1,0.4-0.2c0.9-1.4,1.7-2.9,2.5-4.3c1.5-2.5,3.2-4.9,3.6-7.9c0.3-2.9-0.7-3.8-3.3-2.7c-3.9,1.6-7.2,4.2-10.2,7.2 c-3-2.4-6.7-4.6-10.8-6.4c0.5-1.4,1.3-2.4,2.5-2.4c1.3,0.2,1.1-1.1,1.5-1.8c0.2-0.6,0.2-1.3,0.2-1.9c0-0.7-0.1-1.3-0.5-1.9 c-0.6-0.5-1.3-0.6-2-0.6c-1.4,0-2.3,1-3.3,1.9c-1.3,1.6-1.8,2.6-2.9,4.2c-1.4-2.1-1.5-3.9-2-6.1s-1.3-3.2-3-1.1 c-1.5,1.9-2,0.8-2.4-0.9c-0.2-1.2-0.3-2.4-0.6-3.6c-0.5-1.7-1.5-3-3.4-2.7c-1.7,0.3-2,1.6-2,3.3c0,1,0,2-0.1,3 c-0.2,1.9-0.9,3.2-2,3.9c-1-2.6-2.7-5-5-6.8c-6.8-5-16.8-3-22.1,3.9c-1.1,1.4-1.9,2.9-2.4,4.5c-0.2,0-0.3,0.1-0.5,0.1l-0.1-0.1 c-1.5-1.2-3.1-2.2-3.6-2.4c-4.9-2.5-8.5-1.7-9.1,2.9c-0.2,1.8-1.1,2.7-2.3,2.8c-1.7-2-3.7-3.9-6.2-5.6c-0.6-0.4-1.5-0.3-2,0.1 c-3,2.7-3,5.9-2.5,9.2c0.1,0.7,0.3,1.4,0.4,2.2c-1.4-1-2.8-1.9-4.3-2.7c-1.6-0.9-3.5-2.5-5.3-1c-1.8,1.6-0.6,3.8,0,5.7 c0.1,0.3,0.2,0.6,0.4,1C8.5,56,9,57.4,9.7,60.3c0.7,3-1.2,3.6-1.6,5.5c-0.3,1.4-0.2,2.9,0.1,4c-0.4,0.2-0.9,0.7-1.6,1.5 c-2.3,3-1.4,6.4-0.2,6.8c0.8,0.3,2.8-0.7,4.6-0.7c0,0.1,0.1,0.3,0.1,0.4c2.5,26.9,25.1,45.4,53.2,45.4c30.5,0,53.4-19.9,53.9-49 c0-0.3,0-0.6,0-0.9c0,0.2,0,0.5-0.1,0.8c0-0.5,0.1-1,0.1-1.6c0-0.2,0-0.4,0-0.6c0.7-0.6,1.4-1.4,2-2.2c1.5-2.2,2.2-3,3.3-5.4 C124.1,63,124.7,61.7,123.7,60.8z M11.3,76.4c-0.1-0.7-0.1-1.5-0.1-2.3c0.1,0.7,0.2,1.3,0.4,2C11.5,76.2,11.4,76.3,11.3,76.4z M88.5,76.5c0.5,2.4,0.3,4.8-0.3,7c-0.2,0.1-0.4,0.2-0.7,0.2c-0.9,0.1-1.2-0.4-1.5-0.9c0.3-2.3,0.1-4.7-0.2-7 c-0.2-1.4-0.7-3-2.1-3.4c-1.1-0.3-2.2,0.4-3,1.1c-1.9,1.5-3.9,3.3-5.3,5.3c1.2-1.1,3.7-1.3,4.9-0.1c0,0,0,0-0.1,0 c-1.9,0.6-1.7,1.9-1.6,3.1c0,0.4,0.1,0.8,0.2,1.1C77.5,83,76,82.3,75,81.8c0.6,2.1,1.1,4.2,1.7,6.3h-0.1c-1.1,0.1-1.3-0.4-2.5-0.9 c-0.2-1.7-0.6-3.3-1.1-4.9c0.2,1.4-0.7,2.9-2,3.5c-1.2,0.5-4.3-0.1-4.2-1.8c0-0.5,0.4-0.9,0.7-1.2c1.1-1,2.2-2,3.5-2.7l-9.2-3.5 c0,0-2.1,3-0.3,8.9c-0.7,0-1.4,0-2-0.2c-0.5-0.1-0.9-0.3-1.3-0.6c-0.3-0.7-0.5-1.5-0.6-2.3C56,74,61.7,65.8,70.2,64.2 C78.7,62.5,86.9,68,88.5,76.5z M83.4,78.3c-0.1,0.1-0.2,0.2-0.4,0.3c-0.4-0.1-0.8-0.2-1.3-0.2c0.1-0.3,0.3-0.5,0.6-0.6 C82.7,77.7,83.2,77.9,83.4,78.3z M80.6,76.5c0.2-0.4,0.8-0.5,1-0.2c0.2,0.3,0,0.6-0.2,0.9c-0.2,0.2-0.5,0.4-0.7,0.6v-0.1 C80.6,77.3,80.5,76.9,80.6,76.5z M79.1,84.6c0,0.2,0,0.5,0,0.7c-0.2-0.3-0.3-0.7-0.1-1C79.1,84.4,79.1,84.5,79.1,84.6z M78,85.6 c0.1,0.4-0.2,1-0.6,1c-0.3,0-0.5-0.3-0.6-0.6c-0.1-0.3,0-0.6,0-0.9c0-0.2,0.1-0.4,0.2-0.5c0.1-0.1,0.4-0.2,0.5,0h-0.3 C77.5,84.8,77.9,85.2,78,85.6z M64.9,81.4c-0.4-0.1-0.8-0.6-0.6-1c0.1-0.3,0.5-0.4,0.8-0.3c0.3,0.1,0.6,0.2,0.8,0.4 c0.2,0.1,0.3,0.2,0.4,0.4c0,0.1-0.1,0.4-0.3,0.4l0.2-0.2C65.8,81.3,65.4,81.5,64.9,81.4z M64.5,82.3l-0.2,0.2 c0.5-0.2,1-0.1,1.4,0.2c-0.3,0.3-0.6,0.5-1,0.6s-0.8-0.1-0.9-0.5C63.8,82.6,64.2,82.2,64.5,82.3z M64.4,84.7 c0.2-0.3,0.6-0.4,0.9-0.5l0.5,0.5c0,0.1-0.1,0.2-0.1,0.2c-0.4,0-0.9,0.1-1.4,0.2C64.2,84.9,64.3,84.8,64.4,84.7z M66.4,85.6V86 c0,0.1,0,0.3,0.1,0.4c-0.2,0.1-0.5,0-0.7,0C66.1,86.1,66.3,85.8,66.4,85.6z M52.3,40c4.6-6,13.1-7.1,19-2.6c1.7,1.3,3,3,3.9,4.9 h-0.1c-0.9-0.1-1.8-0.3-2.6-0.6c-1-1.2-2.1-2.2-3.3-3.2c-1-0.8-2.2-1.5-3.3-1C65,38,64.6,39,64.5,40c-0.4,2.1-0.6,4.4-0.4,6.5 c0.1-0.5,0.3-1.1,0.7-1.5c0.4,0.9,0.8,2.1,1.2,3.6c-0.2,0-0.3,0.1-0.4,0.1c0.2,0.1,0.4,0.3,0.6,0.4c0.1,0.2,0.1,0.4,0.2,0.6 c-0.1,0-0.2-0.1-0.3-0.1c-3.2-0.6-3.5,3-3.5,5.6c-0.4,0-0.8-0.1-1.1-0.4s-0.3-0.8-0.2-1.2c0.1-1.3,0.3-2.6,0.7-3.8l-8,3 c0,0,0.5,3.6,6,6.6c0.5,0.3,1.1,0.5,1.7,0.6c0,0.6,0.1,1.2,0.2,1.7c-0.5,0-1-0.1-1.5-0.2c-0.1-0.3-0.1-0.5,0-0.6 c0.5-0.1-4.6-2-7.1-3.2c-0.7-0.7-1.3-1.4-1.7-2.2v-0.1c-0.3-0.7-0.8-1.3-0.9-2c-0.1-0.5,0-0.9,0.1-1.4c0.2-0.7,0.4-1.5,0.5-2.2 c0-0.7,0-1.3-0.1-1.9c-0.1-0.4-0.5-1.3-1.1-2.2L50,45.6C50.2,43.6,51,41.7,52.3,40z M61.5,56.6c0,0.3-0.3,0.6-0.5,0.6 c-0.3,0-0.5-0.3-0.5-0.6c0-0.3,0.1-0.6,0.3-0.8h0.6C61.4,56,61.5,56.3,61.5,56.6z M58.8,54.2c-0.3,0.2-0.8,0.1-1-0.3 c-0.1-0.2,0.1-0.5,0.3-0.7c0.2-0.1,0.5-0.2,0.7-0.2s0.3,0,0.5,0s0.2,0.3,0.1,0.4v-0.2C59.3,53.6,59.1,54,58.8,54.2z M59.1,55v0.3 c0.2-0.4,0.6-0.7,1-0.7c0,0.3-0.1,0.7-0.2,1c-0.1,0.3-0.6,0.4-0.9,0.2C58.8,55.6,58.9,55.1,59.1,55z M100.9,107 c-9.3,8.5-22.2,13.1-36.5,13.1c-13.1,0-25.4-4.3-34.5-12.1C22.2,101.4,17,92.5,15,82.4c0.1,0.1,0.2,0.3,0.4,0.4 c0.1,0.1,0.1,0.2,0.2,0.3c0.2,0.2,0.4,0.5,0.6,0.7c0.1,0.1,0.2,0.2,0.3,0.3c0.2,0.2,0.4,0.5,0.7,0.7c0.1,0.1,0.1,0.1,0.2,0.2 c0.5,0.5,1.1,1.1,1.7,1.6l0.1,0.1c0.3,0.2,0.5,0.4,0.8,0.7c0.1,0.1,0.3,0.2,0.5,0.4c0.3,0.2,0.5,0.4,0.8,0.6 c0.2,0.1,0.4,0.3,0.5,0.4c0.3,0.2,0.5,0.4,0.8,0.6c0.2,0.1,0.4,0.3,0.6,0.4c0.4,0.3,0.9,0.6,1.3,0.9c0.3,0.2,0.6,0.4,0.9,0.5 c0.3,0.2,0.5,0.3,0.8,0.5c0.3,0.2,0.5,0.3,0.8,0.5c0.3,0.2,0.5,0.3,0.8,0.5c0.3,0.2,0.6,0.3,0.9,0.5c0.3,0.1,0.5,0.3,0.8,0.4 c0.3,0.2,0.7,0.3,1,0.5c0.2,0.1,0.5,0.2,0.7,0.4c0.6,0.3,1.2,0.5,1.8,0.8c0.2,0.1,0.5,0.2,0.7,0.3c0.4,0.2,0.8,0.3,1.3,0.5 c0.3,0.1,0.5,0.2,0.8,0.3c0.4,0.2,0.8,0.3,1.3,0.5c0.3,0.1,0.5,0.2,0.8,0.3c0.5,0.2,0.9,0.3,1.4,0.5c0.2,0.1,0.5,0.2,0.7,0.2 c0.7,0.2,1.4,0.4,2.2,0.6c0.2,0,0.3,0.1,0.5,0.1c0.6,0.2,1.2,0.3,1.8,0.4c0.3,0.1,0.5,0.1,0.8,0.2c0.5,0.1,1,0.2,1.6,0.3 c0.3,0.1,0.6,0.1,0.9,0.2c0.6,0.1,1.1,0.2,1.7,0.3c0.3,0,0.5,0.1,0.8,0.1c0.8,0.1,1.7,0.3,2.5,0.4c0.1,0,0.2,0,0.3,0 c0.7,0.1,1.5,0.2,2.3,0.3c0.3,0,0.6,0.1,0.9,0.1c0.6,0.1,1.2,0.1,1.8,0.2c0.3,0,0.6,0.1,1,0.1c0.6,0,1.3,0.1,1.9,0.1 c0.3,0,0.6,0,0.9,0c0.9,0,1.9,0.1,2.8,0.1c1.2,0,2.4,0,3.5,0h0.1c0.2,0,0.3,0,0.5,0c0,0,0,0,0.1,0c4.1-0.1,8-0.4,11.6-1 c0.2,0,0.4-0.1,0.6-0.1c0.4-0.1,0.8-0.1,1.1-0.2c0.4-0.1,0.9-0.1,1.3-0.2c0.4-0.1,0.7-0.1,1.1-0.2c0.4-0.1,0.8-0.2,1.2-0.3 c0.4-0.1,0.7-0.2,1.1-0.2c0.4-0.1,0.8-0.2,1.2-0.3c0.3-0.1,0.7-0.2,1-0.3c0.4-0.1,0.9-0.2,1.3-0.4c0.3-0.1,0.6-0.2,0.8-0.2 c0.7-0.2,1.3-0.4,2-0.6c0.3-0.1,0.6-0.2,0.9-0.3c0.3-0.1,0.7-0.2,1-0.4c0.3-0.1,0.6-0.2,1-0.4c0.3-0.1,0.6-0.2,0.9-0.4 c0.3-0.1,0.6-0.3,0.9-0.4c0.3-0.1,0.6-0.2,0.8-0.4c0.3-0.1,0.6-0.3,0.9-0.4c0.3-0.1,0.5-0.3,0.8-0.4c0.3-0.2,0.6-0.3,0.9-0.5 c0.2-0.1,0.5-0.3,0.7-0.4c0.3-0.2,0.6-0.3,0.9-0.5c0.2-0.1,0.4-0.3,0.7-0.4c0.3-0.2,0.6-0.3,0.9-0.5c0.2-0.1,0.4-0.2,0.6-0.4 c1-0.7,2-1.3,2.9-2c0.1-0.1,0.3-0.2,0.4-0.3c2.5-2,4.6-4.1,6.2-6.2C112.5,92.4,107.9,100.5,100.9,107z M117.4,77.5 c0-0.2,0.1-0.4,0.2-0.5c-0.1,0.5-0.3,0.9-0.5,1.3C117.2,78,117.3,77.7,117.4,77.5z"/>
    <path d="M53.5,51.3c1.5-0.1,3.1-0.8,4.4-1.4c1-0.5,2.1-1,3-1.5c0,0-4.1,0.2-4.5-2.1c-0.4-2.3,1-3.6,3.1-2.4 c2.1,1.1,2.7,2.2,2.7,2.2c-0.2-0.4,0.1-1.4,0.2-1.9c0-1.1,0.2-2,0.4-3.1c0.2-1.1,0.2-2.3-0.3-3.2c-1-1.7-3.1-1.3-4.6-0.5 c-1.5,0.8-2.9,1.9-3.9,3.2c-1.7,2.1-2.6,4.8-2.7,7.4C51.2,49.7,51.5,51.3,53.5,51.3z M59.5,40.8c0.3,0,0.4,0.3,0.5,0.5 c0,0.3,0,0.5-0.1,0.8c0,0.2-0.1,0.3-0.2,0.4c-0.1,0.1-0.4,0.1-0.4-0.1l0.2,0.1c-0.2-0.3-0.5-0.6-0.6-1 C58.8,41.1,59.1,40.8,59.5,40.8z M57.3,41.1c0.3-0.1,0.6,0.1,0.7,0.4l-0.2-0.1c0.3,0.3,0.3,0.8,0.1,1.2c-0.3-0.2-0.6-0.3-0.8-0.6 C57,41.7,57,41.2,57.3,41.1z M55.7,49.1c-0.2,0.3-0.7,0.4-0.9,0.1c-0.1-0.2,0.1-0.5,0.3-0.7c0.2-0.2,0.5-0.2,0.7-0.5 C55.8,48.4,55.8,48.8,55.7,49.1z M55.2,42.2c0.1-0.3,0.5-0.3,0.8-0.2s0.5,0.4,0.6,0.6l-0.3,0.5c-0.3,0-0.6,0-0.8-0.2 C55.2,42.8,55.1,42.4,55.2,42.2z M54,43.6c0.1-0.3,0.6-0.3,0.9-0.2c0.3,0.2,0.6,0.4,0.9,0.5L55.4,44c-0.3,0.1-0.6,0.3-0.9,0.2 C54.2,44.2,53.8,43.9,54,43.6z M54.2,45c0.3,0,0.5,0.2,0.8,0.3v0.1c-0.2,0.2-0.5,0.4-0.8,0.5c-0.3,0.1-0.7-0.2-0.7-0.5 C53.6,45.2,53.9,45,54.2,45z M55.1,46.8L55,47.1c0,0.4-0.3,0.7-0.6,0.8c-0.4,0.1-0.8-0.2-0.9-0.5C53.9,46.9,54.5,46.7,55.1,46.8z"/>
    <path d="M63,70.2c-1.3,1.4-2.3,3.1-0.5,4.5c1.4,1.1,3.2,1.7,4.9,2.2c1.2,0.4,2.5,0.8,3.8,1c0,0-3.7-3-2.3-5.3 c1.4-2.3,3.6-2.4,4.5,0.3c1,2.6,0.6,4,0.6,4c0.2-0.5,1.2-1.1,1.6-1.5c0.8-0.9,1.7-1.6,2.7-2.4s2-1.8,2.2-3c0.4-2.3-1.7-3.5-3.5-4 c-1.9-0.5-3.9-0.6-5.9-0.2C68,66.5,65.1,68,63,70.2z M74.2,71.6l0.2,0.2c0-0.4,0-0.9,0.3-1.3c0.3-0.4,0.9-0.5,1.1-0.2 c0.2,0.2,0.2,0.6,0,0.8s-0.4,0.4-0.7,0.6c-0.2,0.1-0.3,0.2-0.5,0.2C74.3,72,74.1,71.8,74.2,71.6z M72.8,69.5 c0.1-0.4,0.5-0.7,0.8-0.6c0.3,0.1,0.5,0.6,0.3,0.9l-0.1-0.3c0,0.5-0.3,1-0.8,1.2C72.9,70.3,72.7,69.9,72.8,69.5z M66,74.5 c-0.4,0.1-0.9-0.2-0.8-0.6c0.1-0.3,0.5-0.4,0.8-0.4s0.7,0.2,0.9,0.2C66.7,74,66.4,74.4,66,74.5z M67,72.3c-0.3,0.3-0.8,0.4-1.2,0.2 c-0.4-0.2-0.5-0.7-0.3-1.1c0.7,0,1.4,0.3,1.8,0.8L67,72.3z M68.3,70.9c-0.4,0-0.7,0-1-0.2c-0.3-0.2-0.5-0.6-0.2-0.9 c0.2-0.2,0.7-0.2,0.9,0s0.3,0.6,0.4,0.9L68.3,70.9z M69.7,70c-0.4-0.1-0.7-0.2-1-0.5c-0.2-0.3-0.2-0.8,0.1-1 c0.4-0.2,0.8,0.2,0.9,0.5c0.1,0.4,0.2,0.8,0.4,1.1L69.7,70z M71.8,68.7c0.1,0.3,0.1,0.7,0.1,1L71.2,70c-0.2-0.2-0.5-0.5-0.6-0.8 c-0.1-0.3,0-0.7,0.3-0.9C71.3,68.1,71.7,68.4,71.8,68.7z"/>
  </g>
</svg>