<svg viewBox="0 0 128 128" xmlns="http://www.w3.org/2000/svg">
  <g>
    <ellipse cx="63.9" cy="33.8" rx="7.8" ry="7.8" transform="matrix(0.9871 -0.1602 0.1602 0.9871 -4.589 10.6721)"/>
    <path d="M64,4C30.9,4,4,30.9,4,64s26.9,60,60,60s60-26.9,60-60S97.1,4,64,4z M64,114c-27.6,0-50-22.4-50-50c0-12,4.2-23,11.3-31.6 l24.3,24.3c-0.1,0.2-0.2,0.4-0.3,0.6c-0.3,0.6-0.9,1.1-1.6,1.3l-9.6,2.7c-1.1,0.3-2,1.4-2,2.5c0,1.8,1.7,3,3.3,2.5L51.3,63 c0.1,0,0.2-0.1,0.2-0.1c0.1,0,0.2-0.1,0.2-0.1c0.1-0.1,0.2-0.2,0.4-0.2c0,0,0,0,0.1,0c0.3-0.2,0.5-0.5,0.7-0.9l0.6-1.2l3.4,3.4 l-0.1,5.7c0,0.5-0.2,1.1-0.5,1.5l-7,8.5c-0.8,1-0.9,2.2-0.5,3.3l3.9,15.7c0.4,1.8,2.3,2.9,4,2.4c1.8-0.4,2.9-2.3,2.4-4l-3.4-13.7 c-0.1-0.5,0-1,0.3-1.4l6.5-8c0.2-0.3,0.6-0.5,1-0.5h1c0.7,0,1.3,0.5,1.3,1.2c0,0,0,5.5,0.8,8.5c0.2,0.6,0.4,1.2,0.8,1.8l10.9,15.7 c1.2,1.8,3.8,2,5.3,0.2c1-1.2,1-2.9,0.1-4.1L73.6,82.1c-0.4-0.6-0.6-1.3-0.7-2v-0.2l22.7,22.7C87,109.8,76,114,64,114z M102.7,95.6 L72.4,65.3V51.6c0-0.5,0.5-0.8,0.9-0.6l4.9,2c0.3,0.1,0.5,0.5,0.4,0.8L76,62.4c-0.4,1.4,0.4,2.8,1.7,3.3s2.8-0.4,3.3-1.7l3.2-10.5 c0.7-1.9-0.3-3.3-1.5-4.1c0,0-8.9-6.5-18.9-6.6c-3.3,0-6.2,0.9-7.5,2.3c-0.3,0.3-0.9,1.3-1.7,2.5L32.4,25.3C41,18.2,52,14,64,14 c27.6,0,50,22.4,50,50C114,76,109.8,87,102.7,95.6z"/>
  </g>
</svg>