<svg width="128" height="128" xmlns="http://www.w3.org/2000/svg">
  <g>
    <path d="M121.9,69.5c0.3-1,0.2-8.1,0.1-8.8l0-0.1c-0.1-1.2-0.3-2.5-1.9-2.5c-0.2,0-0.5,0.1-0.8,0.4c-0.6,0.6-0.9,1.9-1.1,3.3 l-0.5-1.1c-0.1-0.1-0.4-0.6-0.7-0.7c-0.5-0.2-1.1-0.1-1.5,0.4c-0.5,0.5-0.6,1.1-0.3,1.7l1.9,5.2l-2.8,3.1l-2.5,1.1 c0.7-1.5,1.9-4.2,1.7-5.5c-0.1-0.9-0.7-1.6-1.5-1.8c-0.6-0.2-1.2,0-1.6,0.4c-1.1,1.2-4.3,7.4-5.9,10.6c-0.4,0.1-0.7,0.3-0.8,0.7 l-9.8,12c-3.7-6.6-8.5-10.1-13.4-11.9v-0.9l-3.6-0.8L75,73.6v0.1l-0.2-0.1v0.7c-2-0.3-3.9-0.4-5.7-0.5v-1 c5.5-1.6,10.3-5.9,12.6-12.8c2.3-0.9,4-3.3,4-6.1c0-1.3-0.4-2.5-1-3.6c0.1-0.8,0.4-2.8,0.4-5.5c2.6-1,4.1-2.3,4.1-3.6 c0-0.1,0-0.9,0-1.5c0.1-0.2,0.1-0.4,0.1-0.7c0-1.1-1.1-2.2-3.1-3.2c-1.3-7.1-7.1-16.7-21.8-17c0,0-0.3,0-0.4,0s-0.4,0-0.4,0 c-14.7,0.3-20.5,10-21.8,17.1c-1.9,0.9-3,2-3,3.1c0,0.1,0,0.2,0,0.3c0,0.6,0,1.8,0,1.9c0,1.3,1.5,2.5,4,3.6c0,2.7,0.3,4.7,0.4,5.5 c-0.6,1-1,2.3-1,3.6c0,2.8,1.7,5.1,4,6.1c2.3,6.9,7.1,11.2,12.6,12.8v1c-1.8,0-3.7,0.1-5.6,0.5v-0.7l0,0v0l-0.2,0L47,74.9v1 c-4.8,1.9-9.5,5.4-13.1,11.8l-9.8-12c-0.1-0.3-0.4-0.5-0.7-0.6C22,72,19,65.8,17.8,64.5c-0.4-0.4-1-0.6-1.6-0.4 c-0.8,0.2-1.4,0.9-1.5,1.8c-0.2,1.3,1,4,1.7,5.5L14,70.3l-2.8-3.2l1.9-5.2c0.3-0.6,0.1-1.3-0.3-1.7c-0.4-0.4-1-0.6-1.5-0.4 c-0.3,0.1-0.6,0.5-0.8,0.7l-0.5,1c-0.2-1.4-0.5-2.7-1.1-3.3c-0.3-0.3-0.6-0.4-0.8-0.4c-1.6,0-1.7,1.3-1.9,2.5l0,0.1 c-0.1,0.7-0.3,7.8,0.1,8.8c0.3,0.7,5,5.7,7.7,8.5c0.1-0.2,0.3-0.4,0.6-0.5l0.1,0c-3.2-3.3-7.4-7.8-7.6-8.3c-0.2-0.7-0.1-7.3,0-8.4 l0-0.1c0.1-1.4,0.3-1.7,1-1.7c0,0,0.1,0,0.2,0.1c0.8,0.9,1.1,4.9,1.1,7.2c0,0.1,0,0.2,0.1,0.3l4,4.4c0,0,0.1,0.1,0.1,0.1l3.7,1.7 c0.2,0.1,0.4,0,0.5-0.1c0.1-0.1,0.2-0.3,0.1-0.5c-0.7-1.3-2.4-4.8-2.2-6.1c0.1-0.6,0.5-1,0.9-1.1c0.1,0,0.5-0.1,0.7,0.2 c0.9,1,3.5,6.3,5.4,10.1l0.3-0.1c0.1,0,0.2,0,0.4,0c0,0,0,0,0,0c-0.1,0-0.2,0-0.3,0l-8.3,2.5c-0.5,0.2-0.8,0.7-0.7,1.2 c0,0,8.5,19.5,8.5,19.5c1.7,3.7,4.7,8.7,9.6,8.7c5.5,0,8.8-3.2,10.3-4.9v7.9H42v14h43.4v-13.6v-8.3c1.5,1.7,4.8,4.9,10.3,4.9 c4.9,0,7.9-5,9.6-8.7c0,0,8.5-19.5,8.5-19.5c0-0.2,0-0.4-0.1-0.6l0,0C116.7,75.3,121.7,70.2,121.9,69.5z M10.1,63.3l1-2.2 c0.1-0.1,0.3-0.4,0.4-0.4c0.1,0,0.1,0,0.2,0c0.2,0,0.4,0.1,0.4,0.2c0.2,0.2,0.3,0.5,0.2,0.9l-1.7,4.8l-0.4-0.4 C10.2,65.6,10.2,64.5,10.1,63.3z M47,110h-2.6v-7.9c0-0.8-0.5-1.6-1.3-1.9c-0.2-0.1-0.5-0.1-0.7-0.1c-0.6,0-1.1,0.2-1.5,0.7 c-1.6,1.9-4.5,4.2-8.8,4.2c-2.9,0-5.5-2.5-7.8-7.5c-0.1-0.2-6.2-14.1-8-18.3l6.5-2L32.4,89c0.4,0.5,1,0.7,1.5,0.7 c0.1,0,0.1,0,0.2,0c0.7-0.1,1.2-0.4,1.6-1C38.8,83,42.8,79.8,47,78V110z M66.4,79.5c0.5,0,1.2,0.1,2,0.2c1.6,0.2,2.9,0.6,2.9,0.7 c0,0.2-1.4,0.1-3-0.1c-0.8-0.1-1.5-0.2-2-0.4C66.4,79.8,66.4,79.7,66.4,79.5z M71.2,77.4c0,0.2-1.2,0.6-2.8,0.9 c-0.8,0.2-1.5,0.3-2,0.3c0-0.2-0.1-0.3-0.1-0.5c0.5-0.2,1.2-0.3,2-0.5C69.9,77.4,71.2,77.2,71.2,77.4z M82,58.7 c0.4-1.6,0.7-3.3,0.9-5.2c0.4-0.7,0.8-1.5,1.1-2c0.3,0.7,0.5,1.6,0.5,2.4C84.6,55.9,83.5,57.7,82,58.7z M43.1,53.9 c0-0.9,0.2-1.7,0.5-2.4c0.3,0.5,0.7,1.3,1.1,2c0.1,1.9,0.4,3.6,0.9,5.2C44.1,57.7,43.1,55.9,43.1,53.9z M46,55.6 C46.1,55.7,46.1,55.7,46,55.6c0-2.5,0.6-6.2,1.3-9.4c1,0.2,2.2,0.5,3.4,0.6c0,0,0,0-0.1,0.1c-0.1,0.1-0.1,0.1-0.2,0.2 c-0.1,0.1-0.1,0.1-0.1,0.2c-0.1,0.2-0.2,0.3-0.2,0.3c-0.2,0.2-0.2,0.6-0.1,0.9c0.2,0.5,0.7,0.7,1.2,0.5c0,0,0.1,0,0.3-0.2 c0,0,0.1-0.1,0.2-0.1c0,0,0.1,0,0.2,0c0.1,0,0.1,0,0.2-0.1c0.1,0,0.1,0,0.2-0.1c0.1,0,0.2-0.1,0.2-0.1c0.1,0,0.2,0,0.2-0.1 c0,0,0.1,0,0.1,0c0,0,0.1,0,0.1,0l0.3-0.1c0.2,0,0.4-0.1,0.6-0.1c0.2,0,0.4,0,0.6,0c0.2,0,0.4,0,0.6,0c0.2,0,0.4,0,0.6,0.1 c0.1,0,0.2,0,0.3,0.1c0,0,0.1,0,0.1,0c0,0,0.1,0,0.1,0c0.1,0,0.2,0,0.2,0.1c0.1,0,0.2,0,0.2,0.1c0.2,0,0.3,0.1,0.4,0.1 c0.1,0,0.1,0,0.2,0.1c0,0,0.1,0,0.1,0.1c0.2,0.1,0.3,0.1,0.3,0.1l0.2,0.1c0.3,0.1,0.6,0.1,0.8-0.1c0.4-0.3,0.5-0.7,0.3-1.1 c1.6,0.1,3.3,0.1,5.1,0.1c1.7,0,3.4,0,5-0.1c-0.1,0.2-0.1,0.5-0.1,0.7c0.2,0.5,0.7,0.7,1.1,0.6l0.2-0.1c0,0,0.1,0,0.3-0.1 c0,0,0.1,0,0.1-0.1c0,0,0.1,0,0.2-0.1c0.1,0,0.2-0.1,0.4-0.1c0.1,0,0.2-0.1,0.2-0.1c0.1,0,0.2,0,0.2-0.1c0,0,0.1,0,0.1,0 c0,0,0.1,0,0.1,0l0.3-0.1c0.2,0,0.4-0.1,0.6-0.1c0.2,0,0.4,0,0.6,0c0.2,0,0.4,0,0.6,0c0.2,0,0.4,0,0.6,0.1c0.1,0,0.2,0,0.3,0.1 c0,0,0.1,0,0.1,0c0.1,0,0.1,0,0.1,0c0.1,0,0.2,0,0.2,0.1c0.1,0,0.2,0,0.2,0.1c0.1,0,0.1,0,0.2,0.1c0.1,0,0.1,0,0.2,0.1 c0,0,0.1,0,0.1,0c0.1,0,0.1,0.1,0.2,0.1c0.2,0.1,0.3,0.2,0.3,0.2h0c0.3,0.1,0.6,0.1,0.8-0.1c0.4-0.3,0.5-0.9,0.2-1.3 c0,0-0.1-0.1-0.2-0.3c0-0.1-0.1-0.1-0.1-0.2c-0.1-0.1-0.1-0.1-0.2-0.2c0,0,0,0,0,0c1.2-0.2,2.3-0.4,3.4-0.6 c0.7,3.2,1.3,6.9,1.3,9.5c0,0,0,0,0.1-0.1c-0.7,4.7-2.5,8.6-5.3,11.6c-3.3,3.5-7.7,5.4-12.5,5.4c-4.8,0-9.2-1.9-12.5-5.4 C48.6,64.3,46.8,60.3,46,55.6z M63.8,73.6c1.4,0,2.8-0.2,4.2-0.5v2.7c0,0.1,0,0.1,0,0.2c-0.7,0.4-1.4,0.9-2.2,1.3 c-0.4-0.5-1-0.8-2-0.8c-0.9,0-1.6,0.3-2,0.7c-0.8-0.5-1.5-0.9-2.2-1.4c0-0.1,0-0.1,0-0.2v-2.7C61,73.4,62.4,73.6,63.8,73.6z M59.5,77.7c0.8,0.2,1.4,0.3,1.9,0.5c0,0.1-0.1,0.3-0.1,0.5c-0.5-0.1-1.2-0.2-2-0.3c-1.6-0.3-2.9-0.7-2.8-0.9 C56.6,77.2,57.9,77.4,59.5,77.7z M59.4,79.7c0.8-0.1,1.4-0.2,2-0.2c0,0.2,0.1,0.3,0.1,0.5c-0.5,0.1-1.2,0.3-2,0.4 c-1.6,0.2-2.9,0.3-3,0.1C56.5,80.2,57.8,79.9,59.4,79.7z M74.8,110H53V76.3c0.5-0.1,0.9-0.1,1.4-0.2c0,0.7,0.1,1.6,0.1,2.6 c0,2.5-0.4,4,0.5,4.4c1.3,0.6,3-0.4,4.4-1c0.5-0.2,1.7-0.8,2.6-1.3c0.5,0.4,1.1,0.7,1.9,0.7c0.8,0,1.4-0.2,1.9-0.7 c0.9,0.5,2,1.1,2.6,1.3c1.4,0.6,3.1,1.6,4.4,1c1-0.4,0.5-1.9,0.5-4.4c0-1,0.1-1.9,0.1-2.6c0.5,0.1,0.9,0.1,1.4,0.2V110z M115.9,61.7c-0.1-0.3,0-0.7,0.2-0.9c0.1-0.1,0.3-0.3,0.6-0.2c0.1,0,0.3,0.3,0.3,0.3l1.1,2.3c-0.1,1.2-0.1,2.3-0.1,2.8l-0.4,0.4 L115.9,61.7z M104.9,75.1c-0.1,0-0.2,0-0.2,0C104.7,75.1,104.8,75.1,104.9,75.1z M103.5,97.5c-2.3,5-4.9,7.6-7.8,7.6 c-4.3,0-7.1-2.3-8.8-4.2c-0.4-0.5-1-0.7-1.5-0.7c-0.2,0-0.5,0-0.7,0.1c-0.8,0.3-1.3,1-1.3,1.9v7.9h-3V77.9c4.3,1.8,8.4,5,11.6,10.8 c0.3,0.6,0.9,1,1.6,1c0.1,0,0.1,0,0.2,0c0.6,0,1.2-0.3,1.5-0.7l9.6-11.8l6.5,2C109.7,83.4,103.6,97.3,103.5,97.5z M105.3,75.2 c2-3.9,4.8-9.1,5.7-10.1c0.2-0.3,0.6-0.2,0.7-0.2c0.3,0.1,0.8,0.5,0.9,1.1c0.2,1.3-1.5,4.8-2.2,6.1c-0.1,0.2-0.1,0.4,0.1,0.5 c0.1,0.1,0.3,0.2,0.5,0.1l3.7-1.7c0.1,0,0.1-0.1,0.1-0.1l4-4.4c0.1-0.1,0.1-0.2,0.1-0.3c0-2.3,0.2-6.3,1.1-7.2 c0.1-0.1,0.2-0.1,0.2-0.1c0.7,0,0.9,0.4,1,1.7l0,0.1c0.1,1.1,0.2,7.7,0,8.4c-0.3,0.6-4.6,5-8,8.4c0,0,0,0,0,0L105.3,75.2z M113.5,77.8C113.5,77.8,113.5,77.8,113.5,77.8C113.5,77.8,113.5,77.8,113.5,77.8z"/>
    <ellipse cx="54.4" cy="52.2" rx="2.8" ry="2.9"/>
    <ellipse cx="73.2" cy="52.2" rx="2.8" ry="2.9"/>
    <path d="M63.8,59.9c1.6,0,2.4-1.1,2.6-1.5c0.2-0.4,0-0.8-0.4-0.9c-0.1,0-0.1,0-0.2-0.1h-4c-0.1,0-0.1,0-0.2,0.1 c-0.4,0.1-0.6,0.5-0.4,0.9C61.4,58.8,62.2,59.9,63.8,59.9z"/>
    <path d="M70.3,63.4c0.4-1-0.6-1.9-1.7-1.3c-1.8,1.1-7.8,1.1-9.6,0c-1-0.6-2.1,0.3-1.7,1.3c0.4,0.9,3.7,3.1,6.5,3.1 C66.7,66.5,69.9,64.3,70.3,63.4z"/>
    <circle cx="94.3" cy="20.7" r="7.5"/>
    <circle cx="19.8" cy="44.1" r="7.5"/>
    <circle cx="47.7" cy="11.8" r="7.5"/>
    <circle cx="110.9" cy="50.3" r="7.5"/>
  </g>
</svg>