<svg width="128" height="128" xmlns="http://www.w3.org/2000/svg">
  <g>
    <path d="M72.3,62.8c-1.1,0-2,1.6-2,3.6c0,2,0.9,3.6,2,3.6c1.1,0,2-1.6,2-3.6C74.3,64.4,73.4,62.8,72.3,62.8z"/>
    <path d="M68.9,75l-9.4-0.1c-0.5,0-0.9,0.5-0.8,1c0.4,2.9,2.7,5,5.5,5s5.1-2,5.5-4.9C69.8,75.5,69.4,75,68.9,75z"/>
    <path d="M59.4,66.4c0-0.6-0.8-1.3-2-1.5c-0.3-1.2-0.8-2.1-1.5-2.1c-0.7,0-1.2,0.9-1.5,2.1c-1.1,0.3-2,0.9-2,1.5 c0,0.7,0.8,1.3,2,1.5c0.3,1.2,0.8,2.1,1.5,2.1c0.7,0,1.2-0.9,1.5-2.1C58.6,67.6,59.4,67,59.4,66.4z"/>
    <path d="M97.7,42.2c-0.4,0-0.8,0.1-1.1,0.2c-1.1-2.1-3.2-4.3-7.2-4.7c-5.9-0.6-12.1,1.8-15.6,6.9c-0.4,0.5-0.7,1-1,1.5 c0-0.2-0.1-0.5-0.1-0.7c-1.5-7.6-3.9-16.4-6.2-20.6c1-0.8,1.7-2.2,1.7-3.6c0-2.6-2-4.6-4.4-4.6c-2.4,0-4.4,2.1-4.4,4.6 c0,1.6,0.8,3,1.9,3.8c-2.4,4.2-4.8,12.9-6.2,20.4c-0.2-0.3-0.4-0.5-0.6-0.8c-3.5-5.1-9.6-7.4-15.5-6.9c-3.9,0.4-6,2.5-7.2,4.7 c-0.3-0.1-0.7-0.2-1.1-0.2c-2.4,0-4.4,2.1-4.4,4.6c0,2.6,2,4.6,4.4,4.6c2.4,0,4.4-2.1,4.4-4.6c0-0.8-0.2-1.5-0.5-2.1 c0.7-0.2,1.5-0.3,2.5-0.3c3.8,0,8.4,7.2,9.9,14.4c0.1,0.7,0.6,1.3,1.1,1.6c-0.5,1.9-0.7,3.9-0.7,6c0,4.1,1,8,2.6,11.2 c-0.4,0-0.7,0.2-1,0.5L38.6,90c-1.3,1.5,0,4.2,1.7,3.5l12.2-5.1l-4.7,12.9c-0.8,2.3,1.2,4.2,2.8,2.7l8.1-7.8l3.4,12.4 c0.6,2.1,3.4,2.1,4,0l3.3-12.3l7.9,7.6c1.6,1.5,3.6-0.4,2.8-2.7l-4.6-12.9l12.2,5c1.7,0.7,3-2,1.7-3.5L79,78.2 c-0.3-0.3-0.6-0.5-0.9-0.5c1.6-3.3,2.6-7.1,2.6-11.2c0-2-0.2-4-0.7-5.9c0.7-0.3,1.2-0.9,1.4-1.8c1.5-7.2,6.1-14.5,9.9-14.4 c1,0,1.8,0.1,2.5,0.3c-0.3,0.6-0.5,1.4-0.5,2.1c0,2.6,2,4.6,4.4,4.6s4.4-2.1,4.4-4.6C102.1,44.3,100.1,42.2,97.7,42.2z M54.4,83.7 l-0.1-0.2C54.4,83.6,54.4,83.6,54.4,83.7C54.5,83.7,54.5,83.7,54.4,83.7z M64,84.1c-7.7,0-13.9-9.2-13.9-20.5 c0-1.1,0.1-2.1,0.2-3.1h0.1c0.9-0.5,2-1,3-1.6c0.1-0.1,0.3-0.1,0.4-0.2c0,0,5.1-2.2,10.2-2.2s10.1,2.1,10.1,2.1s0,0,0-0.1 c0.3,0.1,0.6,0.3,0.9,0.4c0.9,0.5,1.9,1,2.7,1.4c0.1,1.1,0.2,2.2,0.2,3.3C77.9,74.9,71.7,84.1,64,84.1z"/>
    <path d="M99.7,4.1h-72c-4.4,0-8,3.6-8,8v104c0,4.4,3.6,8,8,8h72c4.4,0,8-3.6,8-8v-104C107.7,7.7,104.2,4.1,99.7,4.1z M104.7,116.1 c0,2.8-2.2,5-5,5h-72c-2.8,0-5-2.2-5-5v-104c0-2.8,2.2-5,5-5h72c2.8,0,5,2.2,5,5V116.1z"/>
  </g>
</svg>