<svg width="128" height="128" xmlns="http://www.w3.org/2000/svg">
  <g>
    <path d="M50,15h28c0.5,0,1-0.5,1-1s-0.5-1-1-1H50c-0.5,0-1,0.5-1,1S49.5,15,50,15z"/>
    <path d="M92.3,7.3C89.2,6.5,81,4,64,4S37.4,6.8,35.7,7.3C33.6,7.8,32,9.9,32,12v104c0,2.1,1.6,4.2,3.7,4.7 C37.4,121.2,47,124,64,124s25.2-2.5,28.3-3.3c2.1-0.5,3.7-2.6,3.7-4.7V12C96,9.9,94.4,7.8,92.3,7.3z M50,12h28c1.1,0,2,0.9,2,2 s-0.9,2-2,2H50c-1.1,0-2-0.9-2-2S48.9,12,50,12z M42,12c1.1,0,2,0.9,2,2s-0.9,2-2,2s-2-0.9-2-2S40.9,12,42,12z M88,102 c0,1.1-0.9,2-2,2H42c-1.1,0-2-0.9-2-2V26c0-1.1,0.9-2,2-2h44c1.1,0,2,0.9,2,2V102z"/>
    <path d="M19.5,47.3l-5.6-11.9l5.6-11.9c1.2-2.5,0.3-5.6-1.9-6.9c-0.7-0.4-1.5-0.7-2.3-0.7c-1.7,0-3.3,1.1-4.1,2.8L4.5,33 c-0.7,1.5-0.7,3.3,0,4.8l5.6,11.9L4.5,61.6c-0.7,1.5-0.7,3.3,0,4.8l5.6,11.9L4.5,90.1c-0.7,1.5-0.7,3.3,0,4.8l6.7,14.3 c0.8,1.7,2.4,2.8,4.1,2.8c0.8,0,1.6-0.2,2.3-0.7c2.2-1.3,3-4.5,1.9-6.9l-5.6-11.9l5.6-11.9c0.7-1.5,0.7-3.3,0-4.8L13.9,64l5.6-11.9 C20.2,50.6,20.2,48.8,19.5,47.3z"/>
    <path d="M123.6,90.2L118,78.3l5.6-11.9c0.6-1.5,0.6-3.3-0.1-4.8l-5.6-11.9l5.6-11.9c0.7-1.5,0.7-3.3,0-4.8l-6.7-14.3 c-0.8-1.7-2.4-2.8-4.1-2.8c-0.8,0-1.6,0.2-2.2,0.7c-2.2,1.3-3,4.5-1.9,6.9l5.6,11.9l-5.6,11.9c-0.7,1.5-0.7,3.3,0,4.8l5.6,11.9 l-5.6,11.9c-0.7,1.5-0.7,3.3,0,4.8l5.6,11.9l-5.6,11.9c-1.2,2.5-0.3,5.6,1.9,6.9c0.7,0.4,1.5,0.7,2.3,0.7c1.7,0,3.3-1.1,4.1-2.8 l6.7-14.3C124.3,93.5,124.3,91.7,123.6,90.2z"/>
  </g>
</svg>