<svg viewBox="0 0 128 128" xmlns="http://www.w3.org/2000/svg">
  <g>
    <path d="M28.5,85c0,0.1,0,0.1,0,0.2c0,0,0-0.1,0.1-0.3C28.6,84.9,28.5,85,28.5,85z"/>
    <path d="M124.6,50.6c-0.4-6-4.8-9.3-9.5-12.1c-2.4-1.4-5-2.4-7.6-3.3c-2.2-0.8-4.4-1.6-6.4-2.7c-4-2.2-7.4-5.6-9.7-9.7 c-0.1-0.1-0.2-0.4-0.3-0.6c-0.9-2-1.6-3.4-2.9-3.7c-0.1,0-0.3-0.1-0.5-0.1c-0.6,0-1.1,0.3-1.5,0.7c-0.7,0.8-0.7,2-0.3,3.8V23 c0.6,4.3,2.4,8.4,5,11.8c3,3.8,6.8,6.1,10.4,8.1l0.3,0.1l1,0.5c1.7,0.9,3.4,1.8,4.7,3c1.6,1.4,2.5,3.2,2.4,4.7 c-0.1,1.4-0.9,2.8-2.2,3.7c-0.7,0.5-1.4,0.8-2.2,0.9c-0.4,0-0.9,0-1.3,0s-0.8,0-1.2,0h-0.1c-0.1,0-0.2,0-0.3,0 c-0.6-0.1-1.2-0.1-2-0.3c-1.5-0.2-2.5-1-4.1-2c-2.3-1.6-5.5-3.7-11.6-5c-0.5-0.1-1.2-0.2-1.8-0.2c-3.3,0-7.5,1.6-11.8,3.2 c-4,1.5-8.2,3.1-11.2,3.1c-0.9,0-1.6-0.1-2.1-0.4c-2-1-2.4-2.8-3-6.1c-0.8-4.2-2-10.1-9.3-14.5c-4.6-2.8-10.3-3.4-12.1-3.5 c-0.8-0.2-1.6-0.2-2.4-0.2c-1.1,0-2.1,0.1-3.3,0.4C22.6,31.6,10.9,40,7.5,42.5C3,46,3.9,51.8,4.3,54c0,0.2,0.1,0.3,0.1,0.5v0.1 c0.3,2.6,1.8,3.1,4.8,3.4c0.1,0,0.2,0,0.4,0c1,0,2.3-0.4,4.3-1.3l0.6,0.8c0.3,0.4,0.9,0.7,1.4,0.7c0.1,0,0.2,0,0.3,0 c0.7-0.1,1.2-0.6,1.4-1.3l0.1-0.4c0.3,0.2,0.6,0.4,1,0.4c-1.3,0.5-1.9,1.3-1.8,2.4c0.1,1.4,1.4,2.4,3,3c-0.1,0-0.3,0.1-0.4,0.2 c-0.6,0.3-1,0.9-1,1.5c0,0.1,0,0.8,0.2,1.5c0,0.1,0,0.1,0,0.2c0,0.4,0.2,0.8,0.4,1.1c0,0,0.1,0.1,0.3,0.4c1.2,1.2,3.1,2.7,5.1,2.7 c0.1,0,0.2,0,0.3,0c0.3,0,0.5,0,0.8,0c2,0,5.5-0.1,7.3-4.1c0.1-0.2,0.4-0.7,1-1.4c0,0,0.1,0,0.1-0.1c0,0,1.2-0.6,2.5-0.6 c1.5,0,2.5,0.7,3.2,2.2c0.6,1.4,0.6,2.3,0.5,3.6c-0.1,1.9-0.3,4.1,1.7,7.9c0.3,0.7,0.7,1.4,1.1,1.9c0,0,0,0,0.1,0.1 c0.6,1,1.4,1.9,2.3,2.7c1,1.3,2,2.5,2.6,3.5c-2.6-0.1-3.6-0.3-4-0.6c0-0.2,0.1-0.6,0.1-0.9c0.1-0.8,0.3-2-0.4-2.9 c-0.5-0.6-1.2-0.9-2.1-1c-0.5,0-1.8-0.2-2.2-0.3c-0.2-1-0.7-3.7-3-3.7c-0.3,0-0.7,0.1-1,0.2c-0.5,0.2-1,0.4-1.6,0.6 c-0.4,0.2-0.9,0.3-1.3,0.5c-0.7,0.2-1.1,0.4-1.4,0.6C29.7,78.4,27.3,81,27,85c-0.1,0.7,0.4,1.4,1.1,1.6c0.1,0,0.2,0,0.4,0 s0.4,0,0.5-0.1c-0.1,0.6-0.2,1.3-0.2,2.1c0,0.7,0.5,1.3,1.1,1.5c0.1,0,0.2,0,0.4,0c0.5,0,1.1-0.3,1.3-0.8c0.6-1.2,1.7-2.5,2.1-2.6 c0.3,0,0.6,0,0.9,0c0.4,0,0.8,0,1.2-0.1c0.4,0,1-0.2,1.5-0.4c-0.2,1-0.2,2.6,1.9,3.7c0.5,0.2,1,0.4,1.6,0.4c0.5,0,1-0.1,1.5-0.2 c0.5-0.1,0.9-0.2,1.3-0.2c0.3,0,0.5,0,0.7,0.1c0.3,0.1,0.8,0.3,1.3,0.4c1.3,0.5,2.9,1,4.4,1c1.3,0,2.4-0.4,3.2-1.2 c0.9-0.8,1.3-1.9,1.4-3.2c5.2,2.1,10.8,3.1,14.8,3.4c0.5,0,1,0,1.6,0c0.2,0,0.5,0,0.7,0c0.2,0.2,0.5,0.4,0.7,0.5 c-1.3,1.5-2.6,3-4,4.3c-0.4,0.3-1.1,0.9-1.9,1.5c-0.5,0.4-1.1,0.8-1.6,1.2c-0.4,0-0.7,0.1-1.1,0.3c-0.5-0.8-1.3-0.9-1.6-0.9 c-0.7,0-1.3,0.4-1.7,0.7h-0.1c-0.4,0-1.3,0-2.1,0.8c-0.6,0.7-2,3-2.2,4.2c0,0.2,0,0.3,0,0.4c-0.3,2.7,0.5,5.6,2.1,8.1 c0.3,0.4,0.8,0.7,1.3,0.7c0.1,0,0.1,0,0.2,0c0.2,0.1,0.5,0.2,0.8,0.2s0.5-0.1,0.8-0.2c0.2-0.1,0.3-0.2,0.4-0.3c0,0,0,0.1,0.1,0.1 c0.3,0.5,0.8,0.8,1.3,0.8c0.1,0,0.3,0,0.4-0.1c0.7-0.2,1.1-0.9,1-1.5c-0.1-1.7-0.1-3.5,0.2-4.6c0.3,0.1,0.7,0.2,1,0.2 c0.5,0.1,1,0.1,1.5,0.1c1.9,0,3.5-0.7,4.3-2c1.7-2.5,2.4-2.8,2.5-2.9c0.7-0.1,1.2-0.4,1.6-0.8c0.1,0,0.2,0.1,0.3,0.1 c0.4,0.1,1.4,1,1.4,2c0,0.8,0.6,1.4,1.3,1.5c0.1,0,0.1,0,0.2,0c0.7,0,1.3-0.4,1.4-1.1c0-0.1,0.8-3.1-1.4-6.3 c1.8-1.2,3.6-2.6,5.1-3.9c0.4-0.3,0.6-0.7,0.7-1.1c2.6,1.8,3.2,2.6,3,4.6c0,0.4-0.1,0.8-0.1,1.2c-0.2,3-0.3,3.9-3.6,6.1 c-5,3.4-8.1,5.9-9.8,8.2c-0.8,1-0.9,1-1.8,1c-0.6,0-1.4,0-2.5,0.2c-0.2,0-0.3,0.1-0.5,0.1c-2.2,0.2-4.7,1-6.5,1.6 c-0.6,0.2-1.1,0.4-1.5,0.5c-0.7,0.2-1.1,0.8-1.1,1.5c-0.4,0.3-0.7,0.5-0.9,0.7c-0.4,0.5-0.5,1.1-0.2,1.7c-0.5,0.5-0.9,0.9-1.2,1.4 c-0.5,0.6-0.4,1.4,0.1,2c0.3,0.3,0.7,0.5,1.1,0.5c0.3,0,0.6-0.1,0.9-0.3c0,0,1.2-0.9,3.3-0.9c1.2,0,2.4,0.3,3.6,0.8 c0.2,0.1,0.4,0.1,0.6,0.1c0.4,0,0.8-0.2,1.1-0.5h0.8c1.5,0,3.1,0,4.7-0.1c0.5,0,0.9-0.1,1.3-0.1c5.7-0.3,6.8-0.5,8.8-5.3 c0.2-0.4,0.8-1.2,1.3-1.7c0.1-0.1,0.2-0.2,0.3-0.4c0.2,0.1,0.4,0.1,0.7,0.1c0.4,0,1-0.1,1.6-0.8c0,0,0,0,0.1-0.1c0.1,0,0.1,0,0.2,0 h0.1c0.6,0.2,2.8,1.9,3.1,2.5c0.2,0.5,0.8,0.9,1.4,0.9c0.1,0,0.2,0,0.3,0c0.7-0.2,1.2-0.8,1.2-1.5c0-1.6-1.1-4.7-3.3-6.7 c0.8-0.5,1.5-0.9,2.3-1.3c3.4-1.4,7.3-4.5,8-7.8c0.3-1.5,0-2.8-1.1-3.9c-3.5-3.8-5.6-7.5-5.6-9.9c0-0.6,0-1.3-0.1-2 c6.9-2.8,11.2-5.1,16.5-10.7l0.9-0.9C117.6,67.7,125.3,59.7,124.6,50.6z M95.5,36.7L95.5,36.7c-0.9-0.6-1.7-1.4-2.5-2.3 c0.1-0.1,0.1-0.1,0.2-0.2c0.3-0.3,1-1.6,1.4-1.6c0.3,0,0.6,0.3,0.7,0.7c0.2,0.5,0.3,1.1,0.4,1.7C95.8,35.6,95.9,36.2,95.5,36.7z M97.6,38.6c0.3-0.4,0.5-0.7,0.8-1.1c0.1-0.2,0.2-0.3,0.4-0.3s0.4,0.2,0.5,0.4c0.5,0.8,0.8,1.8,0.9,2.7 C99.3,39.7,98.4,39.2,97.6,38.6z M107.2,43.7c0,0.2-0.1,0.3-0.2,0.4c-1.1-0.7-2.3-1.4-3.5-2V42c0.2-0.7,0.2-1.4,0.2-2 c0.7,0,1.3,0.4,1.8,0.8c0.5,0.5,0.9,1,1.2,1.6C107,42.7,107.3,43.2,107.2,43.7z M28.7,39.1c0,0.6,0.4,1,0.9,1s1-0.5,1-1.1 c0-0.5-0.3-0.8-0.7-1H30c0,0,0,0,0.1,0h0.1c0.1,0,0.2,0,0.2,0c0.2,0,0.5,0,0.7,0c0.1,0,0.1,0,0.2,0c0.2,0.4,0.3,0.9,0.3,1.4 c0,1.2-0.7,2.2-1.5,2.2c-0.8,0-1.5-1-1.5-2.2C28.7,39.2,28.7,39.2,28.7,39.1z M19.3,51.6L18.8,55l-1.9-2c0,0-0.1,0-0.1,0.1 l-0.9,3.2l-1.5-1.9c-1.1,0.6-1.2,0.6-0.1,0c0.8-0.4,1.6-0.8,2.4-1.3l0.1-0.1C17.6,52.6,18.4,52.1,19.3,51.6c0.6-0.4,1.2-0.7,1.7-1 c0.1-0.1,0.2-0.1,0.3-0.2c0.5-0.3,1-0.6,1.5-0.8c0.2-0.1,0.5-0.3,0.7-0.4c0.5-0.3,1-0.6,1.5-0.8c0.1-0.1,0.3-0.1,0.4-0.2 c0.8-0.4,1.5-0.8,2-1h0.1c0.1,0,0.3-0.1,0.4-0.1c0.4-0.1,0.8-0.2,1.3-0.3c0.2,0.1,0.3,0.2,0.5,0.4l-0.9,1.6l-1.1-1.5h-0.1l-1.1,2.5 l-0.9-1.5c-0.1,0.1-0.2,0.1-0.4,0.2l-0.3,1.9c0,0-0.6-0.6-1.2-1.1c-0.2,0.1-0.5,0.3-0.7,0.4c0,1.2-0.2,2.6-0.2,2.6l-1.2-1.7 c-0.1,0-0.2,0.1-0.3,0.2L21,53.9L19.3,51.6z M20.5,65.4c-0.4-0.7-0.4-1.4-0.4-1.4s0.1,0,0.1,0.1c0-0.1,0-0.2,0-0.2s0.2,0.1,0.5,0.3 c0,0,0,0.1-0.1,0.1c0.4,0.2,0.8,0.6,1.2,0.9C21.2,65.3,20.7,65.3,20.5,65.4z M22,65.1c-0.3-0.6-0.4-1.3-0.8-1.8 c0.8,0.5,1.7,0.9,2.6,1.4C23.2,64.9,22.6,65,22,65.1z M23.9,64.7c-0.4-0.7-0.5-1.1-0.9-1.9c1,0.6,1.7,0.7,2.6,1.2 C25.1,64.3,24.5,64.5,23.9,64.7z M25.7,64c-0.5-0.7-1-1.4-1.5-2.1c1,0.4,2,0.8,2.9,1.2C26.7,63.4,26.2,63.7,25.7,64z M27.4,62.9 c-0.3-0.7-0.6-1.3-1-2c0.2,0.1,0.6,0.3,1,0.4c0,0,0,0,0.1,0c0.4,0.1,0.7,0.3,1,0.5C28.1,62.3,27.8,62.6,27.4,62.9z M29,61.3 c-0.3-0.4-0.6-0.8-0.8-1.3c0.4,0.2,0.9,0.3,1.3,0.5C29.3,60.8,29.1,61.1,29,61.3z M29.8,60c-0.4-0.5-0.8-1-1.1-1.5 c0.5,0.2,1.1,0.4,1.6,0.6C30.1,59.4,30,59.8,29.8,60z M30.5,58.6c-0.3-0.6-0.6-1.3-0.7-1.9c0.4,0.3,0.8,0.5,1.2,0.8 C30.8,57.8,30.7,58.2,30.5,58.6z M31.2,56.6c-0.2-0.5-0.4-1-0.6-1.6c0.3,0.2,0.6,0.5,0.9,0.7C31.4,56.1,31.3,56.4,31.2,56.6z M31.6,55.3c-0.3-0.6-0.6-1.2-0.7-1.9c0.3,0.3,0.6,0.5,1,0.7C31.8,54.6,31.7,55,31.6,55.3z M32,53.5c-0.3-0.5-0.5-1.1-0.8-1.6 c0.3,0.2,0.7,0.4,1,0.6C32.2,52.8,32.1,53.2,32,53.5z M32.5,51.7c-0.3-0.4-0.5-0.9-0.8-1.3c0.4,0.2,0.7,0.4,1,0.6 C32.7,51.2,32.6,51.4,32.5,51.7z M33.1,50c-0.2-0.4-0.4-0.7-0.6-1.1c0.3,0.2,0.6,0.3,0.9,0.5C33.3,49.6,33.2,49.8,33.1,50z M28.5,85.2c0-0.1,0-0.1,0-0.2c0.4-3.6,2.5-5.6,3.4-6.1c0.3-0.2,0.8-0.4,1.3-0.5l0.1,0.1c0.4,0.5,0.8,1.1,1,1.8 c0,0.1,0,0.2,0.1,0.3c0,0.1,0.1,0.2,0.1,0.3V81c-0.6,0.4-1.3,0.8-2.3,0.8C30,81.8,28.5,85.2,28.5,85.2z M35.7,85.3 c-0.7,0.2-1.4,0.1-2.1,0.2c-1.6,0.1-3.3,3.4-3.3,3.4c0-0.1,0-0.2,0-0.2c-0.1,0.1-0.1,0.2-0.1,0.2c0.1-4.8,3.3-6.2,4.9-6.6 c0.1,0,0.2,0.1,0.1,0.1C36.6,82.9,36.1,84,35.7,85.3z M60.3,105.3c0.1-0.2,0,0.1-0.1,0.3c-0.1,0.4-0.2,0.7-0.2,1.1 c0,0.4-0.1,0.8-0.1,1.2c0,0.8,0.1,1.5,0.1,2.1c0,0.3,0.1,0.5,0.1,0.7c0,0.2,0.1,0.3,0.1,0.4v0.1l-0.1-0.1c0-0.1-0.1-0.1-0.2-0.2 c-0.1-0.1-0.1-0.2-0.2-0.3c-0.1-0.1-0.1-0.2-0.2-0.3c0,0,0-0.1-0.1-0.1c-0.1-0.1-0.1-0.2-0.2-0.3c0-0.1-0.1-0.1-0.1-0.2 c0-0.1-0.1-0.2-0.1-0.3c0-0.1-0.1-0.2-0.1-0.2c0-0.1-0.1-0.2-0.1-0.3c0-0.1-0.1-0.2-0.1-0.3c0-0.1-0.1-0.2-0.1-0.3 c0-0.1,0-0.1-0.1-0.2c0,0.2,0,0.3,0.1,0.5c0.1,0.6,0.2,1.2,0.3,1.9c0.1,0.4,0.2,0.8,0.2,0.8c-0.7-1-1.1-2-1.4-2.9 c-0.1-0.3-0.2-0.6-0.2-0.9c0-0.2-0.1-0.4-0.1-0.5c-0.1-0.3-0.1-0.7-0.1-1c0-0.3,0-0.6,0-0.8c0-0.6,0-1,0.1-1.2c0-0.1,0-0.1,0-0.2 c0.2-0.1,0.4-0.1,0.5-0.1c0.1,0,0.2,0,0.3,0s0.3,0,0.4,0h0.1c0.1,0,0.3,0,0.4,0.1c0.1,0,0.3,0.1,0.4,0.1h0.1c0.1,0,0.2,0.1,0.3,0.1 c0.1,0,0.2,0.1,0.3,0.2l0.1,0.1c0.1,0.1,0.3,0.2,0.4,0.4C60.5,104.9,60.4,105.1,60.3,105.3z M62.7,111.5c-1.4-2.7-1.2-5.4-0.9-6.9 c0.7-0.4,1.3-0.2,1.7,0.5C62.4,106.5,62.7,111.2,62.7,111.5z M53.9,59.8c0.5-1.6,0.8-3.5,1.3-5.4c0.5,0.5,1.1,1,1.8,1.4 c0.8,0.4,1.8,0.6,2.9,0.6c-0.2,0.4-0.5,0.9-0.7,1.3c-1,1.4-2.3,2.6-4,3.1C54.7,61,54,61,53.8,60.5C53.8,60.3,53.8,60.1,53.9,59.8z M47.7,44.7c-0.6,0.3-1.4,0.5-1.8,0c-0.3-0.5,0-1.1,0.2-1.6c0.7-1.3,1.1-2.7,1.2-4.1c0-0.4,0-0.8,0-1.2c0.4,0.8,1.5,3,2.8,5.4 C49.4,43.8,48.6,44.3,47.7,44.7z M48.5,51.4c1-1.5,2.4-2.6,3.7-3.8c0.5,1.3,1,2.4,1.2,3.4c0.1,0.2,0.1,0.5,0.2,0.7 C51.9,52.3,50.1,52.3,48.5,51.4z M54.6,85.4c-0.3-1.8-1.2-3.7-2.4-5.2c-0.4-0.6-0.4-3.6-0.3-5c0-0.5,0-1,0-1.5 c0.8,1.8,2.3,3.2,4.3,4.3c0,0.2,0,0.4,0.1,0.6c0.2,0.8,0.6,1.5,1.2,1.9c0.1,0.1,0.2,0.2,0.4,0.3c2.1,3.2,4.7,5.1,8.1,6.1 c0.9,0.3,2.2,1.1,3.6,2C65.4,88.7,59.6,87.5,54.6,85.4z M69.9,62.9c-0.3,1.3-0.9,2.7-2,3.6c-0.6,0-0.7-0.9-0.6-1.5 c0.2-1.2,0.6-2.4,0.2-3.5c-0.1-0.4-0.4-0.9-0.9-0.9c-0.4,0-0.7,0.4-0.9,0.7c-0.3,0.3-0.8,0.5-1,0.2c-0.1-0.2-0.1-0.4-0.1-0.6 c0.2-0.8,0.4-1.7,0.3-2.5c-0.1-0.9-0.7-1.7-1.3-2.3c1.3-0.3,2.6-0.7,4-1.2c1.1,1,1.9,2.2,2.3,3.7C70.5,59.9,70.3,61.5,69.9,62.9z M74.2,55.1c-0.6-0.4-1.3-0.5-2-0.7c-0.5-0.2-0.9-0.4-1.3-0.8c1.7-0.6,3.4-1.3,5-1.8c0.7,0.5,1.2,1.3,1.5,2 c0.5,1.3,0.5,2.8,0.5,4.2c0,0.4-0.2,0.9-0.6,0.8c-0.1,0-0.2-0.1-0.3-0.2C76,57.5,75.5,55.9,74.2,55.1z M78.6,103.5 c0-2-1.9-3.3-2.6-3.4c-0.3-0.1-0.6-0.3-0.8-0.4c0,0,0,0-0.1-0.1c0-0.2,0.1-0.4,0.2-0.6c0.1-0.1,0.1-0.2,0.2-0.4 c0.2-0.4,0.3-0.7,0.4-1.2c0.4,0.1,0.7,0.3,0.9,0.4c0.4,0.2,0.6,0.5,0.6,0.5c1.1,1.6,1.3,3.1,1.3,4C78.7,103,78.6,103.5,78.6,103.5z M67.3,116.9c-0.4,0.5-0.7,1-1,1.6c-0.4,0.9-0.6,1.8-0.6,2.2v0.9c0,0,1.6,0.6,1.5,0.7c-1.6-0.7-3-1-4.2-1c-2.6,0-4.2,1.2-4.2,1.2 c0.1-0.1,0.2-0.2,0.2-0.3c1.1-1.4,2.4-2.6,4.4-3.2c-0.2,0-0.3,0-0.5,0c-1.5,0.1-2.8,0.4-2.8,0.4c0.1-0.1,0.1-0.1,0.2-0.2 c0.8-0.7,2.7-1.2,4.2-1.6h-0.6l-2.5,0.1c0.2,0,0.3-0.1,0.5-0.2c1.7-0.5,4.5-1.6,6.9-1.9C68.2,116,67.7,116.4,67.3,116.9z M108.9,45.6c0.7-0.2,1.6-0.2,2.1-0.2c0.3,0,0.6,0,0.8,0.2c0,0.1,0,0.2,0,0.3c-0.1,0.9-0.4,1.7-0.9,2.3 C110.4,47.3,109.7,46.4,108.9,45.6z M99,57.2C99,57.3,99,57.3,99,57.2c-0.2,0.2-0.2,0.5-0.2,0.7c0.1,0.7,0.4,1.3,0.5,1.9 c0.2,0.7,0.2,1.4-0.3,2c-0.4,0.5-1.4,0.6-1.7,0c-0.1-0.2-0.1-0.4-0.2-0.7c-0.2-2-1.2-3.9-2.6-5.3c-0.5-0.5-2-1.1-2-1.8 c0-0.2,0.1-0.3,0.2-0.4C95.3,55.1,96.9,56.6,99,57.2z M82.9,50.4c0.5,0,1,0,1.4,0.1c2.9,0.6,5.1,1.4,6.8,2.2c0,0.5-0.1,1.1-0.6,1.4 c-0.5-0.4-1-0.8-1.5-0.9c-0.6-0.1-1.3,0.2-1.4,0.8c-0.1,0.4,0.1,0.9,0.2,1.4c0.2,1,0,2.1-0.3,3.2c-0.1,0.5-0.4,1.1-0.9,1.1 c-0.6,0-0.7-0.8-0.6-1.4c0.1-0.6,0.4-1.2,0-1.7c-0.2-0.3-0.8-0.5-0.9-0.9c-0.1-0.3,0-0.8-0.1-1.1c-0.3-0.7-1.4-0.3-2-0.8 c-0.4-0.4-0.4-1-0.5-1.5c-0.2-0.8-0.8-1.3-1.5-1.7C81.7,50.5,82.3,50.4,82.9,50.4z M92.7,116.7c0,0,0,0.1,0,0.2 c-0.5-1-3.2-3-4.1-3.3c-0.2,0-0.3-0.1-0.5-0.1c-0.4,0-0.8,0.1-1.1,0.3c-0.1,0.1-0.1,0.2-0.2,0.3c-0.2,0.2-0.5,0.4,0-0.1 c0.1-0.1,0.2-0.2,0.2-0.3c0.4-0.6,0.8-1.4,1.2-1.9c0.2-0.3,0.6-0.5,0.8-0.8c0.1-0.1,0.2-0.3,0.3-0.4v0.1 C91.6,112.3,92.6,115.4,92.7,116.7z M109.8,73.3c-5.4,5.6-9.6,7.8-16.1,10.4c-3.1,1.2-7,2.6-11.1,3.6c-0.6-0.6-1.3-1.2-2-1.6 c0.6-0.2,1.2-0.4,1.8-0.6c5.9-2.2,3.9-3.5,12.2-6.2c8.2-2.7,9-12.4,17.5-9.7c0.5,0.2,0.9,0.3,1.3,0.4 C112.1,71,110.9,72.2,109.8,73.3z M113,54.7c-0.4-0.1-1.3-0.4-2.1-0.8c-0.3,0.6-0.7,1.2-1.2,1.6c0.3,0.1,0.6,0.2,0.9,0.4 c1,0.6,1.8,1.8,1.6,3c0,0.1-0.1,0.3-0.2,0.3c-0.1,0-0.1,0-0.2-0.1c-1.2-0.9-2.4-1.7-3.8-2.2c-0.8,0.4-1.6,0.7-2.5,0.9 c-0.8,0.1-1.6,0.1-2.5,0c0.1,0.1,0.2,0.2,0.3,0.3c0.5,0.6,1,1.2,1.2,2c0.2,0.8,0,1.7-0.7,2.1c-0.2,0.2-0.5,0.2-0.8,0.1 c-0.1,0-0.2-0.1-0.3-0.2c-0.8-0.7-0.9-1.9-1.4-2.8c-0.4-0.8-0.9-1.4-1.6-1.9c0,0,0.1,0,0.1,0c0.1,0,0.1,0.1,0.2,0.1 c0.8,0.1,1.6,0.3,2.4,0.3h0.2c0.1,0,0.2,0,0.3,0c0.3,0,0.6,0,1,0c0.5,0,1,0,1.5-0.1c1-0.2,2-0.5,3-1.2s1.9-1.6,2.4-2.7 c0.1-0.3,0.3-0.6,0.4-0.9c0.1-0.3,0.2-0.7,0.2-1c0-0.1,0-0.3,0.1-0.4c0,0.1,0,0.2,0,0.4c0.7,0.1,1.4,0.3,1.7,0.5 c0.9,0.6,1.4,1.6,1.4,2.6C114.1,55.2,113.5,55,113,54.7z"/>
  </g>
</svg>