<svg width="128" height="128" xmlns="http://www.w3.org/2000/svg">
  <g>
    <path d="M64,6C32.8,6,4,26,4,63.9c0,31.4,20,50.6,44.7,56.2c3.2,3.7,7.9,6.1,13.1,6.1H65c5.1,0,9.7-2.3,12.9-5.8 c25.3-5.2,46.1-24.9,46.1-56.5C124,26.5,95.2,6,64,6z M78.2,108.1v0.8c0,7.3-5.9,13.2-13.2,13.2h-3.3c-7.3,0-13.2-5.9-13.2-13.2 v-0.5V84.2c4.6,0.3,9.3,0.5,14.1,0.5c5.3,0,10.5-0.2,15.6-0.6V108.1z M103,103.8c-6.2,5.5-13.8,9.5-22.1,11.8 c0.8-2,1.3-4.3,1.3-6.6v-2.6c10.3-5.3,17-14.6,19-24.8c0.5-2.4-1.7-4.5-4.1-4.1c-4.6,0.8-9.6,1.5-14.8,2c-0.7,0.1-1.5,0.1-2.2,0.2 c-5.5,0.4-11.3,0.7-17.3,0.7c-5.8,0-11.4-0.2-16.7-0.6c-0.5,0-1-0.1-1.5-0.1c-5.8-0.5-11.3-1.2-16.3-2.1c-2.5-0.4-4.6,1.7-4.1,4.1 c2.2,10.6,9.8,20,20.4,25.1v2.2c0,2.2,0.4,4.3,1.2,6.3C38,113,30.9,109.2,25,104.1C13.8,94.2,8,80.3,8,63.9 c0-8.3,1.5-15.9,4.3-22.7c-0.6,2.1-0.9,4.3-0.9,6.6C11.4,61.1,22.2,72,35.5,72s24.1-10.8,24.1-24.1c0-13.3-10.8-24.2-24.1-24.2 c-6.9,0-13.1,2.9-17.5,7.5c2-2.7,4.3-5.2,6.9-7.5C35,14.9,48.9,10,64,10c15,0,28.9,5,39,13.9c3.2,2.8,6,6,8.3,9.5 c-4.4-5.9-11.4-9.7-19.3-9.7c-13.3,0-24.1,10.8-24.1,24.1S78.7,72,92,72s24.1-10.8,24.1-24.1c0-3.6-0.8-7-2.2-10 c4,7.6,6.1,16.4,6.1,26.1C120,80.2,114.1,94,103,103.8z M15.4,47.8c0-11.1,9-20.1,20.1-20.1s20.1,9,20.1,20.1 c0,11.1-9,20.2-20.1,20.2S15.4,59,15.4,47.8z M112.1,47.8c0,11.1-9,20.1-20.1,20.1s-20.1-9-20.1-20.1c0-11.1,9-20.1,20.1-20.1 S112.1,36.7,112.1,47.8z"/>
    <path d="M62.2,90.6c-0.8,0.1-1.5,0.3-2.1,0.6c-0.8,0.4-1.4,0.8-1.9,1.4c-0.5,0.6-1,1.2-1.2,2c-0.3,0.8-0.4,1.6-0.4,2.6 s0.2,1.9,0.5,2.7c0.3,0.8,0.8,1.5,1.4,2.1c0.6,0.6,1.4,1.1,2.2,1.6c0.5,0.2,1,0.5,1.6,0.7v9c-0.1,0-0.3,0-0.4-0.1 c-0.6-0.2-1.1-0.4-1.5-0.8c-0.5-0.4-0.8-0.9-1.1-1.5c-0.3-0.6-0.4-1.4-0.4-2.4h-3.2c0,1.3,0.2,2.4,0.6,3.3c0.4,0.9,0.9,1.7,1.5,2.3 c0.6,0.6,1.3,1.1,2.2,1.4c0.8,0.3,1.6,0.5,2.4,0.6v3.3h0.1h2.6h0.3v-3.3c0.9-0.1,1.7-0.3,2.4-0.6c0.8-0.3,1.5-0.8,2.1-1.4 c0.6-0.6,1-1.2,1.3-2s0.5-1.7,0.5-2.7s-0.2-1.9-0.5-2.7c-0.3-0.8-0.8-1.4-1.4-2c-0.6-0.6-1.3-1.1-2.2-1.5c-0.7-0.3-1.5-0.7-2.3-1 v-8.7c0.2,0.1,0.3,0.1,0.5,0.2c0.5,0.3,1,0.6,1.3,1.1c0.4,0.5,0.6,1,0.8,1.7s0.3,1.4,0.3,2.1h3.2c0-2.3-0.5-4.2-1.6-5.5 c-1.1-1.4-2.6-2.2-4.5-2.4v-3.8h-2.6h-0.5V90.6z M62.2,100.8c-0.6-0.3-1-0.6-1.4-0.9c-0.4-0.4-0.7-0.8-0.9-1.2 c-0.2-0.4-0.3-1-0.3-1.5c0-1.2,0.4-2.2,1.1-2.9c0.4-0.4,0.9-0.7,1.5-0.8V100.8z M65.2,105.3c0.8,0.4,1.5,0.8,2,1.3 c0.8,0.8,1.1,1.6,1.1,2.7c0,0.6-0.1,1.2-0.3,1.7s-0.5,0.9-1,1.3c-0.4,0.3-0.9,0.6-1.5,0.8c-0.1,0-0.2,0-0.3,0.1V105.3z"/>
    <path d="M33.8,57.7c-0.6-0.2-1-0.4-1.5-0.8c-0.5-0.4-0.8-0.8-1.1-1.5c-0.3-0.6-0.4-1.4-0.4-2.3h-3.1c0,1.2,0.2,2.3,0.5,3.2 c0.4,0.9,0.9,1.6,1.5,2.2c0.6,0.6,1.3,1,2.1,1.4c0.7,0.3,1.5,0.5,2.3,0.6v3.2h0.1h2.5H37v-3.2c0.8-0.1,1.6-0.3,2.3-0.6 c0.8-0.3,1.5-0.8,2-1.3c0.6-0.5,1-1.2,1.3-2c0.3-0.8,0.5-1.6,0.5-2.6s-0.2-1.8-0.5-2.6c-0.3-0.7-0.7-1.4-1.3-2 c-0.6-0.6-1.3-1.1-2.1-1.5c-0.7-0.3-1.4-0.6-2.2-0.9v-8.4c0.2,0.1,0.3,0.1,0.5,0.2c0.5,0.3,0.9,0.6,1.3,1.1c0.3,0.4,0.6,1,0.8,1.6 c0.2,0.6,0.3,1.3,0.3,2H43c0-2.3-0.5-4-1.6-5.4c-1-1.3-2.5-2.1-4.3-2.3V32h-2.9v3.8c-0.7,0.1-1.4,0.3-2,0.6 c-0.7,0.3-1.4,0.8-1.9,1.3c-0.5,0.6-0.9,1.2-1.2,2c-0.3,0.8-0.4,1.6-0.4,2.5c0,1,0.2,1.9,0.5,2.6s0.8,1.4,1.4,2 c0.6,0.6,1.3,1.1,2.1,1.5c0.5,0.2,1,0.5,1.5,0.7v8.7C34.1,57.7,34,57.7,33.8,57.7z M37.2,50.1c0.8,0.4,1.4,0.8,1.9,1.2 c0.7,0.7,1.1,1.6,1.1,2.6c0,0.6-0.1,1.1-0.3,1.7c-0.2,0.5-0.5,0.9-0.9,1.2s-0.9,0.6-1.5,0.8c-0.1,0-0.2,0-0.3,0.1V50.1z M32.9,44.9 c-0.4-0.3-0.7-0.8-0.8-1.2c-0.1-0.4-0.3-0.9-0.3-1.5c0-1.2,0.4-2.1,1.1-2.8c0.4-0.4,0.8-0.6,1.4-0.8v7.2 C33.7,45.5,33.2,45.2,32.9,44.9z"/>
    <path d="M98.3,49.4c-0.6-0.6-1.3-1.1-2.1-1.5c-0.7-0.3-1.4-0.6-2.2-0.9v-8.4c0.2,0.1,0.3,0.1,0.5,0.2c0.5,0.3,0.9,0.6,1.3,1.1 c0.4,0.4,0.6,1,0.8,1.6c0.2,0.6,0.3,1.3,0.3,2h3.1c0-2.3-0.5-4-1.6-5.4c-1-1.3-2.5-2.1-4.3-2.3V32H91v3.8c-0.7,0.1-1.4,0.3-2,0.6 c-0.7,0.3-1.4,0.8-1.9,1.3c-0.5,0.6-0.9,1.2-1.2,2c-0.3,0.8-0.4,1.6-0.4,2.5c0,1,0.2,1.9,0.5,2.6s0.8,1.4,1.4,2 c0.6,0.6,1.3,1.1,2.1,1.5c0.5,0.2,1,0.5,1.5,0.7v8.7c-0.1,0-0.3,0-0.4-0.1c-0.6-0.2-1-0.4-1.5-0.8c-0.5-0.4-0.8-0.8-1.1-1.5 c-0.3-0.6-0.4-1.4-0.4-2.3h-3.1c0,1.2,0.2,2.3,0.5,3.2c0.4,0.9,0.9,1.6,1.5,2.2c0.6,0.6,1.3,1,2.1,1.4c0.7,0.3,1.5,0.5,2.3,0.6v3.2 H91h2.5H94v-3.2c0.8-0.1,1.6-0.3,2.3-0.6c0.8-0.3,1.5-0.8,2-1.3c0.6-0.5,1-1.2,1.3-2c0.3-0.8,0.5-1.6,0.5-2.6s-0.2-1.8-0.5-2.6 C99.3,50.6,98.9,49.9,98.3,49.4z M91,45.8c-0.5-0.3-1-0.6-1.4-0.9c-0.4-0.3-0.7-0.8-0.8-1.2c-0.1-0.4-0.3-0.9-0.3-1.5 c0-1.2,0.4-2.1,1.1-2.8c0.4-0.4,0.8-0.6,1.4-0.8V45.8z M96.6,55.6c-0.2,0.5-0.5,0.9-0.9,1.2c-0.4,0.3-0.9,0.6-1.5,0.8 c-0.1,0-0.2,0-0.3,0.1v-7.5c0.8,0.4,1.4,0.8,1.9,1.2c0.8,0.7,1.2,1.5,1.1,2.5C96.9,54.5,96.8,55,96.6,55.6z"/>
  </g>
</svg>