<svg width="128" height="128" xmlns="http://www.w3.org/2000/svg">
  <path d="M64.1,22.8C18.3,22.8,4.5,64,4.5,64s0.8,2.7,2.8,6.6c5.9,11.7,21.9,34.6,56.7,34.6c46.7,0,59.5-41.2,59.5-41.2 S109.9,22.8,64.1,22.8z M43,42c5,0,9,4,9,9s-4,9-9,9s-9-4-9-9S38,42,43,42z M19.2,82.8c-5.1-5.8-8.3-11.6-10-15.4 c3.9-6.7,10.6-15.6,21.1-22.2c-3.1,5.6-4.9,12-4.9,18.8c0,18.4,12.9,33.9,30.2,37.7C41,100,28.8,93.7,19.2,82.8z M72.3,101.8 C89.7,98,102.7,82.5,102.7,64c0-6.9-1.8-13.4-5-19c10.6,6.7,17.4,15.6,21.3,22.4c-1.8,3.8-5,9.6-10.1,15.4 C99.3,93.7,87,100.1,72.3,101.8z"/>
</svg>