<svg width="128" height="128" xmlns="http://www.w3.org/2000/svg">
  <g>
    <path d="M64,6.1C32.8,6.1,4,26.1,4,64c0,37.7,28.9,57.9,60,57.9c31.2,0,60-20.7,60-57.9C124,26.6,95.1,6.1,64,6.1z M103,103.9 c-10.2,9-24.1,14-39,14c-15,0-28.9-4.9-39-13.8C13.9,94.3,8,80.5,8,64s5.9-30.4,17-40.2c10.1-8.9,24-13.7,39-13.7s28.9,5,39,13.9 c11.1,9.8,17,23.6,17,40C120,80.3,114.1,94.1,103,103.9z"/>
    <path d="M86.6,24.1l0.2,0.1C92.2,26,97,29.8,100,34.6c0.5,0.8,1.3,1.2,2.1,1.2c0.4,0,0.8-0.1,1.1-0.2c0.9-0.4,1.6-1.5,1.1-2.9 c-1.9-4.9-5.9-9.1-10.8-11.4c-1.9-0.9-3.8-1.4-5.8-1.7c-1.5-0.2-2.4,0.7-2.6,1.7C84.8,22.3,85.3,23.7,86.6,24.1z"/>
    <path d="M24.6,35.5c0.3,0.2,0.7,0.2,1.1,0.2c0.8,0,1.6-0.4,2.1-1.2c3-4.8,7.8-8.6,13.2-10.4h0.1c1.4-0.5,1.9-1.8,1.7-2.9 c-0.2-1-1.1-1.9-2.6-1.7c-2,0.3-3.9,0.8-5.8,1.7c-5,2.3-8.9,6.4-10.8,11.4C23,34,23.7,35.1,24.6,35.5z"/>
    <path d="M64,85.2c-7.6,0-13.8,6.1-13.8,11.7c0,5.6,6.2,8.9,13.8,8.9s13.8-3.3,13.8-8.9C77.8,91.3,71.6,85.2,64,85.2z"/>
    <path d="M89.3,36.3C77.5,36.3,68,45.9,68,57.7s9.6,21.4,21.4,21.4c11.8,0,21.4-9.6,21.4-21.4C110.8,45.9,101.2,36.3,89.3,36.3z M89.3,75.1c-9.6,0-17.4-7.8-17.4-17.4c0-9.6,7.8-17.4,17.4-17.4c9.6,0,17.4,7.8,17.4,17.4C106.7,67.3,98.9,75.1,89.3,75.1z"/>
    <ellipse cx="89.3" cy="57.7" rx="8" ry="9.4"/>
    <path d="M60,57.6c0-11.8-9.6-21.4-21.4-21.4c-11.8,0-21.4,9.6-21.4,21.4c0,11.8,9.6,21.4,21.5,21.4C50.6,79,60,69.4,60,57.6z M38.7,75c-9.6,0-17.4-7.8-17.4-17.4c0-9.6,7.8-17.4,17.4-17.4C48.2,40.2,56,48,56,57.6C56,67.2,48.2,75,38.7,75z"/>
    <ellipse cx="38.7" cy="57.6" rx="8" ry="9.4"/>
  </g>
</svg>