<svg width="128" height="128" xmlns="http://www.w3.org/2000/svg">
  <g>
    <path d="M100.6,25.8C96.4,15.5,86.7,4.1,64.2,4.1C42.1,4.1,32,15.2,27.4,25.4C10.4,44.9,5.3,77.7,4,101v23h2.7 c-0.5-13.7-0.6-61.2,17.8-89.7c-1,4.8-1,8.2-1,8.4c0,16.6,0.9,37.9,4.5,54.1c-1.5-0.7-3.4-1.3-5.1-1.7c-0.6-0.1-1.1-0.2-1.7-0.2 c-2.4,0-4.8,1.1-6.3,3c-3,3.7-7,9.5-7,13.4c0,3.8,3.3,6.6,3.3,8.5v4.1h3v-4.1c0-1.6-0.9-3.1-1.7-4.4c-0.8-1.3-1.6-2.7-1.6-4.1 c0-0.8,0.5-4.1,6.3-11.5c1-1.2,2.4-1.9,3.9-1.9c0.3,0,0.7,0,1,0.1c3.2,0.7,4.6,1.5,5.2,1.8c1.5,1,3.2,1.6,5.1,1.6 c0.9,0,1.8-0.1,2.6-0.4c3.4-1,7-1.8,10.9-2.4c-2,2-3.2,4.8-3,7.7c0,0,0,0.7,0.1,1.6c0.1,1.1,1,2,2,2c0.1,0,0.1,0,0.2,0 c-0.7,0.2-1.4,0.5-2.1,0.8c-5.3,2.2-8.9,5.6-8.1,7.8c-0.2,0.4-0.2,0.9,0.1,1.4c0.4,1.1,1.8,2.7,3.6,4.1h50.6c0,0,0,0,0,0 s-0.2-0.1-0.6-0.2c1.6-1.4,2.9-2.9,3.3-3.9c0.1-0.2,0.1-0.4,0.2-0.6c0.2-0.2,0.3-0.4,0.4-0.7c1.2-2.8-2.2-6.9-7.5-9.1 c-0.3-0.1-0.6-0.2-0.9-0.3c0.3-0.3,0.6-0.8,0.6-1.3c0-0.9,0.1-1.6,0.1-1.6c0.1-2.7-0.8-5.2-2.5-7.1c3.4,0.6,6.6,1.4,9.6,2.3 c0.9,0.3,1.8,0.4,2.7,0.4c2,0,3.9-0.6,5.5-1.8c0.6-0.4,2.1-1.2,5.4-2c0.4-0.1,0.8-0.1,1.2-0.1c1.5,0,3,0.7,3.9,1.9 c5.8,7.4,6.3,10.6,6.3,11.5c0,1.3-1.6,2.8-2.9,3.9c-1.5,1.3-2.9,2.6-2.9,4.6v4.1h3v-4.1c0-1.6,5.8-4.2,5.8-8.5 c0-3.8-4-9.6-6.9-13.3c-1.5-2-3.9-3.1-6.3-3.1c-0.6,0-1.2,0.1-1.9,0.2c-2,0.5-4.2,1.1-5.8,2.1c3.7-16.3,4.6-37.9,4.6-54.7 c0-0.2,0.1-3.8-0.8-8.7c18.7,28.5,18.8,76.3,18.3,90h2.7v-22C122.7,78.8,117.6,45.6,100.6,25.8z M56.6,90.8 c-8.5-3-18.1-10.8-22-23.9c-0.1-2.3-0.2-4.4-0.2-6.2c-0.1-2.9-0.9-13.7,5.2-15.1c22.4-5,35-16.9,35-16.9 c3.3,7.2,13.6,14.2,17.3,16.9c3,2.2,2.6,11.2,2.6,15l-0.1,1.5C91.4,78.1,80.5,87.4,71,90.8c-2.5,0.9-5,1.4-7.2,1.4 C61.6,92.2,59.1,91.7,56.6,90.8z M46.4,116.8c-2,0.8-4,0.9-4.3,0c-0.3-0.8,1-2.2,3.1-3c2-0.8,4-0.9,4.3,0 C49.9,114.6,48.5,116,46.4,116.8z M46.1,109.7c1.1-0.6,2.3-0.9,3.6-0.9c0.7,0,1.3,0.1,1.9,0.3C50.1,108.9,48.2,109.1,46.1,109.7z M64.2,109.3c-2.3-0.1-4.1-0.8-4.1-1.6s1.9-1.4,4.2-1.3c2.3,0.1,4.1,0.8,4.1,1.6C68.4,108.8,66.5,109.4,64.2,109.3z M87,117.4 c-0.5,1.1-2.6,1.4-4.8,0.5c-2.2-0.9-3.5-2.5-3.1-3.7c0.5-1.1,2.6-1.4,4.8-0.5C86.1,114.6,87.5,116.2,87,117.4z M83,106.1l-0.1,1.6 c-1.3-0.7-2.7-1-4.2-1c-1,0-2,0.2-2.9,0.5c-0.1-2.2-5.1-4.1-11.4-4.3c-6.4-0.2-11.6,1.5-11.6,3.8c0,0.2,0.1,0.4,0.1,0.7 c-1-0.4-2.1-0.6-3.2-0.6c-1.6,0-3.1,0.4-4.5,1.1c0,0,0,0,0-0.1l-0.1-1.6c-0.2-3.2,1.5-6.1,4.4-7.6l3.8-1.9l0.7-0.5l1.7-2.1l0.4-0.7 c0.1-0.3,0.2-0.5,0.4-0.7c2.6,0.9,5.2,1.3,7.5,1.3c2.3,0,5-0.5,7.7-1.4c0.2,0.2,0.4,0.5,0.5,0.8l0.4,0.7l1.5,1.8l0.6,0.5l4.1,2.1 C81.5,100.1,83.1,103,83,106.1z"/>
    <ellipse cx="47.7" cy="58.9" rx="4.9" ry="5"/>
    <ellipse cx="80.6" cy="58.9" rx="4.9" ry="5"/>
    <path d="M64.1,72.3c2.8,0,4.2-2,4.5-2.7c0.3-0.7,0-1.3-0.7-1.6c-0.1,0-0.2-0.1-0.3-0.1h-7c-0.1,0-0.2,0-0.3,0.1 c-0.6,0.3-1,0.9-0.7,1.6C60,70.4,61.3,72.3,64.1,72.3z"/>
    <path d="M48.5,50.6c2.8,0,4.5,0.9,5.4,1.2c0.9,0.3,1.6,0,1.9-0.4c0.3-0.4,0.4-1,0-1.5c-0.9-1.2-3.1-3-7.2-3c-4.2,0-6.3,1.8-7.2,3 c-0.4,0.5-0.3,1.2,0,1.5c0.3,0.3,1,0.7,1.9,0.4C44.1,51.5,45.7,50.6,48.5,50.6z"/>
    <path d="M75.3,51.8c0.9-0.3,2.5-1.2,5.3-1.2c2.8,0,4.5,0.9,5.3,1.2c0.9,0.3,1.6,0,1.9-0.4c0.3-0.4,0.4-1,0-1.5 c-0.9-1.2-3.1-3-7.2-3c-4.2,0-6.3,1.8-7.2,3c-0.4,0.5-0.3,1.2,0,1.5C73.7,51.7,74.5,52,75.3,51.8z"/>
    <path d="M74.9,78.3c0.8-1.6-1.1-3.3-2.9-2.2c-3.1,1.9-13.5,1.9-16.6,0c-1.8-1.1-3.7,0.6-2.9,2.2c0.7,1.6,6.4,5.4,11.2,5.4 C68.6,83.7,74.2,80,74.9,78.3z"/>
  </g>
</svg>