<svg viewBox="0 0 128 128" xmlns="http://www.w3.org/2000/svg">
  <path d="M122,81h-5.1c0.1-1.1,0.1-2.3,0.1-3.5c0-9.2-2.4-18.7-6.8-27.1c7.3-3.2,12.4-10.4,12.4-18.9c0-11.4-9.2-20.6-20.6-20.6 c-9.1,0-16.8,5.9-19.5,14.1c-5.6-2.1-11.7-3.4-18.4-3.4S51.3,22.8,45.7,25C43,16.8,35.3,10.9,26.2,10.9c-11.4,0-20.6,9.2-20.6,20.6 c0,8.4,5.1,15.7,12.4,18.9c-4.6,8.4-7,17.9-7,27.1c0,1.2,0.1,2.4,0.1,3.5H7c-0.8,0-1.5,0.7-1.5,1.5S6.2,84,7,84h4.4 c0.4,3,1,5.8,2,8.4l-5,2c-0.9,0.3-1.3,1.3-0.9,2.2c0.3,0.7,0.9,1.1,1.6,1.1c0.2,0,0.4,0,0.6-0.1l5-2c1.1,2.4,2.5,4.5,4.2,6.5 l-5.6,5.2c-0.7,0.6-0.7,1.7-0.1,2.4c0.3,0.4,0.8,0.5,1.2,0.5s0.8-0.1,1.2-0.5l5.6-5.2c8.7,8.4,23,12.6,42.8,12.6 c19.9,0,34.2-4.3,42.9-12.7l5.7,5.3c0.3,0.3,0.7,0.5,1.2,0.5s0.9-0.2,1.2-0.5c0.6-0.7,0.6-1.8-0.1-2.4l-5.7-5.3c1.6-2,3-4.1,4.1-6.5 l5.2,2.1c0.2,0.1,0.4,0.1,0.6,0.1c0.7,0,1.3-0.4,1.6-1.1c0.3-0.9-0.1-1.9-0.9-2.2l-5.1-2c0.9-2.6,1.6-5.3,1.9-8.3h5.4 c0.8,0,1.5-0.7,1.5-1.5C123.5,81.8,122.8,81,122,81z M86.9,56.8c3.1,0,5.5,4.2,5.5,9.3s-2.5,9.3-5.5,9.3c-3.1,0-5.5-4.2-5.5-9.3 C81.4,61,83.8,56.8,86.9,56.8z M41.1,56.8c3.1,0,5.5,4.2,5.5,9.3s-2.5,9.3-5.5,9.3s-5.5-4.2-5.5-9.3C35.6,61,38.1,56.8,41.1,56.8z M22.1,43.5c-5.1-1.6-8.8-6.4-8.8-12c0-7.1,5.7-12.8,12.8-12.8c6,0,11,4.1,12.4,9.7C31.9,32.2,26.4,37.5,22.1,43.5z M64,113.3 c-34.6,0-33.5-19.6-31.4-26.3c2.6-8.3,17.9-13.2,17.9-22.1s-4.6-11-4.6-16.4c0-8.8,7.6-13,18.1-13s18.2,4.2,18.2,13 c0,5.3-4.5,7.5-4.5,16.4S92.8,78.7,95.5,87C97.6,93.7,98.5,113.3,64,113.3z M106,43.6c-4.3-6.1-9.9-11.3-16.5-15.2 c1.4-5.5,6.4-9.7,12.4-9.7c7.1,0,12.8,5.7,12.8,12.8C114.7,37.1,111.1,41.9,106,43.6z M81.98,85.12c0,5.32-4.33,9.64-9.64,9.64 c-3.55,0-6.66-1.94-8.33-4.81c-1.67,2.87-4.78,4.81-8.33,4.81c-5.32,0-9.64-4.33-9.64-9.64c0-0.87,0.7-1.57,1.57-1.57 s1.57,0.7,1.57,1.57c0,3.58,2.92,6.5,6.5,6.5c2.83,0,5.24-1.82,6.13-4.36c-5.1-0.64-8.94-3.45-8.94-6.81 c0-3.84,4.99-6.95,11.14-6.95s11.14,3.11,11.14,6.95c0,3.37-3.84,6.17-8.94,6.81c0.89,2.53,3.3,4.36,6.13,4.36 c3.58,0,6.5-2.92,6.5-6.5c0-0.87,0.7-1.57,1.57-1.57S81.98,84.25,81.98,85.12z"/>
</svg>