<svg width="128" height="128" xmlns="http://www.w3.org/2000/svg">
  <g>
    <path d="M124,49.9c-0.6-10.6-3.8-20.6-10.6-28.7c-8.2-9.7-19.2-15.9-31.5-16.5c-0.6,0-1.3-0.1-1.9-0.1C67.3,4.6,57.8,11,49,22 c-0.4,0.5-0.7,1.1-0.8,1.5c-5.6,6.2-7.6,12.2-5.8,17.8c1.3,4-0.4,6.8-1.6,8.1c-1.6,1.9-3.9,3.1-6.3,3.3c-1-1.2-2.4-2.8-2.8-3.3 l-0.3-0.3c0,0-17.8,3.8-21.2,22.2c-0.5,2.9-0.8,5.7-0.8,8.3l-3,1.4c-0.8,0.3-1.2,1.2-1,2.1c0.3,1.6,0.9,4.3,1.7,6.8 c0.8,2.8,4.1,8.5,7.9,10.2c2,3.4,4.2,6.1,6.1,8.1c-3.4,2.4-6.7,7.2-8.5,10c-0.6,0.9,0.1,2.2,1.2,2.1l3.4-0.3 c3.8-0.3,7.6,0.3,11.1,1.9l4.4,1.9c1,0.4,2-0.5,1.8-1.6c-0.7-3.1-2.2-8.4-4.5-11.9c2.3-0.9,5.1-2.2,8.1-4.1l0.7,0.1 c7.9,1.4,17.4-10.6,19.9-16.1c1.8-4,3.5-8.4,4.4-11c0.5-1.4,0-2.9-1.2-3.6l-5.8-3.5c-1.2-10.3-8.7-17-12.6-19.8 c0.1-0.1,0.3-0.3,0.4-0.4c2.8-3.3,3.7-7.7,2.3-11.9c-1.4-4.3,0.4-9.1,5.3-14.3c0.2-0.1,0.5-0.3,0.7-0.5c8.7-9.2,17.4-12.8,26-12.8 c3.8,0,7.5,0.7,11.2,2c21,7.2,24.2,26.5,24.6,35.5c0.3,8-1.1,19.7-2.4,27.7c-0.3,1.6-0.8,4.7-1.5,8.8l-1.1-0.2c-0.2,0-0.3,0-0.5,0 c-1.4,0-2.7,1-3,2.5l-0.3,1.9c0.2,0.1,0.4,0.3,0.6,0.4c-2-1.5-4.3-2.5-6.9-2.9c-0.9-0.2-1.7-0.2-2.5-0.2c-7.5,0-14.2,5.5-15.5,13.2 c-0.5,3.3,0,6.6,1.4,9.4l-5.2,3.7c-1.2,0.9-1.5,2.6-0.6,3.9l0.7,0.9c0.9,1.2,2.6,1.5,3.9,0.6l5.4-3.9c2.1,1.7,4.6,2.9,7.4,3.3 c0.9,0.1,1.7,0.2,2.5,0.2c1.4,0,2.9-0.2,4.2-0.6l-0.9,5.4H117l5.3-32.6c0.3-1.6-0.8-3.2-2.5-3.4h-0.2c1.3-8,2.5-16.1,3.6-24.1 c0.3-2.3,0.5-4.5,0.6-6.8C124.1,54.6,124.1,52.2,124,49.9z M45.6,68.6c0.6,0.6,0.6,1.5,0,2.1c-0.2,0.3-2.5,2.3-8,2.3 c-0.8,0-1.6,0-2.6-0.1c1.1,2.4,1.3,6,1.3,8.7c0,1.7-1.4,3.1-3,2.8l-5.7-1c-1.5-0.3-2.4-1.9-1.9-3.5c0.8-2.5,2.2-6,4-7.9 c-6.6-1.9-8.1-5.1-8.2-5.5c-0.3-0.8,0.1-1.6,0.8-1.9c0.8-0.3,1.6,0.1,1.9,0.8c0.1,0.1,1.6,3.1,9,4.4c7.6,1.4,10.3-1.1,10.3-1.1 C44.1,68,45.1,68,45.6,68.6z M43.6,63.2c-0.3,1.7-2,2.8-3.8,2.5c-1.8-0.3-3-2-2.7-3.7c0.3-1.7,2-2.8,3.8-2.5 C42.7,59.9,43.9,61.5,43.6,63.2z M109.9,105.7c-1.1,6.7-6.8,11.5-13.5,11.5c-0.7,0-1.5-0.1-2.2-0.2c-2.3-0.4-4.3-1.3-6-2.6l5.7-4.1 c0.4,0.1,0.8,0.3,1.3,0.3c0.4,0.1,0.8,0.1,1.2,0.1c3.5,0,6.6-2.5,7.1-6.1c0.7-3.9-2-7.7-6-8.3c-0.4-0.1-0.8-0.1-1.2-0.1 c-3.5,0-6.6,2.5-7.1,6.1c-0.2,1-0.1,2,0.1,3l-5.4,3.9c-1.1-2.4-1.5-5.1-1.1-7.9c1.1-6.7,6.8-11.5,13.5-11.5c0.7,0,1.5,0.1,2.2,0.2 C106.1,91.2,111.1,98.3,109.9,105.7z M96.5,105l-0.7-0.9c-0.9-1.2-2.6-1.5-3.9-0.6l-0.8,0.5c0-0.4,0-0.9,0-1.3 c0.4-2.5,2.6-4.4,5.2-4.4c0.3,0,0.6,0,0.8,0.1c1.4,0.2,2.6,1,3.4,2.1c0.8,1.1,1.1,2.5,0.9,3.9c-0.4,2.5-2.6,4.4-5.2,4.4 c-0.1,0-0.2,0-0.3,0C97.2,107.8,97.4,106.2,96.5,105z"/>
    <path d="M72.8,57.4c-0.5-3.6-3.3-6.3-6.5-7.7c-1.7-0.7-3.4-1.3-5.1-1.9c-0.8-0.3-1.7-0.6-2.6-0.8c-0.1,0-0.2,0-0.3,0 c-0.5,0-1.2,0.2-1.3,0.6c-0.3,0.8,0.2,2.4,0.4,3.2c0.8,3.7,2,7.3,4.2,10.5c0,0,0,0.1,0.1,0.1c1.3,1.8,3.2,2.7,5.1,2.7 c3.2,0,6.2-2.3,6-6.2C72.8,57.7,72.8,57.6,72.8,57.4z"/>
  </g>
</svg>