<svg width="128" height="128" xmlns="http://www.w3.org/2000/svg">
  <g>
    <path d="M108.5,18c-1.5-5.4-8.2-12.6-8.5-12.9c-0.5-0.5-1.2-0.6-1.8-0.3c-0.8,0.4-1.1,1.1-1.3,4.4c-0.2,2.6-1,6.2-2.9,7.7l-0.7,0.5 l-0.1,0.1c0.1-2.2,0.8-4.3,1.1-4.9c0.3-0.3,0.5-0.7,0.5-1.1c0.1-0.8-0.4-1.5-1.2-1.9C92,8.8,89.9,9.8,87,12.5 c-3.8,3.6-6.8,12.4-6,17.8c0.2,1.6,0.8,2.7,1.5,3.3c-0.9,2.7-1.2,4.4-0.8,6.8c0.2,1.2,0.4,2.4,0.5,3.3c-1.8,1.3-2.9,4-3.6,6.2 c-1.4-0.1-3,0.6-4.8,2c-0.2-0.7-0.4-1.3-0.7-1.9c1-1,1.6-2.3,1.6-3.8c0-2.9-2.3-5.2-5.2-5.2c-0.6,0-1.2,0.1-1.8,0.3 c0-3.9,0.1-10.1,0.4-16.4c0.3-6.2,0.8-11,1.3-14.4c0.1-0.8,0.3-1.8,0.5-2.6c0.2-0.7,0.4-1.3,0.6-1.8c0.1-0.2,0.2-0.4,0.2-0.5 C71,5.4,71,5.4,71.1,5.3l0.1-0.1c0.2-0.2,0.3-0.3,0.3-0.3c0.5-0.6,0.4-1.6-0.3-2.1c-0.6-0.5-1.5-0.5-2,0.1L69,3.2l-0.1,0.1 c-0.1,0.1-0.2,0.2-0.2,0.3c-0.1,0.1-0.2,0.3-0.3,0.5C68.2,4.4,68.1,4.7,68,5c-0.3,0.6-0.5,1.3-0.8,2.2C67,8,66.7,9,66.6,10 c-0.7,3.6-1.3,8.5-1.8,14.8c-0.5,6-0.8,12.1-0.9,16.7c-0.2,0-0.4,0.1-0.6,0.1c-0.3-4.3-0.5-10.6-1-16.9c-0.5-6.2-1.1-11.2-1.8-14.8 c-0.2-1.2-0.4-2-0.6-2.8c-0.3-0.9-0.5-1.6-0.7-2.2c-0.2-0.6-0.5-1.1-0.9-1.6c-0.2-0.3-0.4-0.4-0.4-0.4c-0.6-0.6-1.5-0.6-2.1,0 C55.1,3.4,55,4.4,55.6,5l0.3,0.3c0.1,0.1,0.3,0.4,0.4,0.8c0.2,0.5,0.4,1.1,0.6,1.8c0.2,0.7,0.4,1.6,0.5,2.6c0.6,3.4,1,8.2,1.3,14.4 C59,31,59.1,37,59.1,41c-0.2,0-0.5-0.1-0.7-0.1c-2.9,0-5.2,2.3-5.2,5.2c0,1.3,0.5,2.6,1.4,3.5c-0.2,0.6-0.5,1.3-0.7,2 c-1.7-1.2-3.2-1.8-4.5-1.7c-0.6-2-1.8-4.8-3.6-6.2c0.1-0.9,0.3-2.1,0.5-3.3c0.4-2.4,0.1-4.2-0.8-6.8c0.6-0.7,1.2-1.7,1.5-3.3 c0.8-5.4-2.1-14.2-6-17.8c-2.9-2.7-5.1-3.7-6.6-2.9c-0.8,0.4-1.2,1.1-1.2,1.9c0,0.4,0.2,0.8,0.5,1.1c0.3,0.6,1,2.7,1.1,4.9 c-0.1-0.1-0.2-0.2-0.3-0.3L34,16.8c-1.9-1.5-2.7-5.1-2.9-7.7c-0.2-3.3-0.6-4-1.3-4.4C29.2,4.4,28.5,4.5,28,5 c-0.3,0.3-7,7.5-8.5,12.9c-1.4,5,0.5,12.3,6,22.8c3,5.8,6.9,8.4,9.6,9.5c0,0.1,0,0.2,0,0.2c0,0.8,0.6,2.1,1.5,3.4 c-0.5-0.3-1.2-0.2-1.7,0.2c-1.2,1-2.1,2.4-2.5,4c-0.1,0.4-0.2,0.9-0.2,1.5c-0.3,0.9-0.1,2,0.1,2.5v0.1c0,0.1,0.1,0.5,0.3,1.2 c0.1,0.6,0.4,1.1,0.9,1.7c-0.3,0-0.5,0-0.7,0c-0.6,0-1.1,0.5-1.3,1c-0.5,1.5-0.4,3.1,0.1,4.7c0.1,0.3,0.2,0.7,0.5,1.2 c0.2,0.9,0.7,1.6,0.9,2.1c0.4,0.7,1,1.5,1.8,2.2c0.1,0.2,0.2,0.4,0.4,0.6c0,0,0.1,0.1,0.2,0.2c-0.2-0.1-0.4-0.1-0.6-0.2 c-0.8-1-1.6-2-2.5-2.8c-0.4-0.4-1.1-0.5-1.7-0.3c-0.6,0.3-0.9,0.8-0.9,1.5c0.1,1.5,0.7,3.1,1.7,4.3c0.2,0.2,0.5,0.7,0.9,1 c0.4,0.7,1.1,1.2,1.6,1.6c0.7,0.5,1.7,1.2,2.9,1.5c0.2,0,0.3,0.1,0.5,0.1c0,0,0,0,0.1,0c0.1,0.1,2.6,1.8,6.1,2.1h0.1 c-1.1,0.2-2.1,0.4-3.1,0.7c-0.2,0.1-0.6,0.2-0.9,0.4c-1.3-0.3-2.6-0.6-3.9-0.7c-0.6,0-1.2,0.3-1.5,0.8c-0.3,0.6-0.2,1.2,0.3,1.7 c1.1,1.2,2.6,2,4.3,2.4c0.3,0.1,0.8,0.2,1.3,0.2c0.8,0.3,1.7,0.3,2.4,0.2c0.9,0,2.1-0.2,3.3-0.7c0.2-0.1,0.3-0.2,0.5-0.3h0.1 c0.1,0,2.2-0.1,4.6-1.3c0.3,0.8,0.8,1.3,1.3,1.6c-0.1,0.5-0.2,1-0.2,1.4c-0.1,1.4,0.4,2.7,1.3,3.7C53.1,96.6,53,97.3,53,98 c-0.1,1.5,0.4,2.9,1.3,3.9c-0.4,0.9-0.6,1.9-0.7,2.8c0,1.1,0.2,2.1,0.7,3c-1.9,0.8-3.4,1.5-4.8,2.3c-1,0.6-1.8,1.1-2.5,1.7 l-0.2,0.2c-0.6,0.5-1.5,1.2-1.7,2.3c-0.3,1.4,0.6,2.6,1.1,3.4c0.1,0.1,0.2,0.2,0.2,0.3c1.7,2.4,3.6,4,5.8,4.7 c0.3,0.1,0.6,0.2,1,0.2c0.2,0,0.4,0,0.5,0c1.7,1.8,6.7,2.1,8.4,1.9c0.7-0.1,1.2-0.3,1.5-0.5c0.4,0.4,0.9,0.7,1.9,0.9 c0.3,0.1,0.8,0.1,1.3,0.1c2.2,0,5.9-0.5,7.2-2c0.3-0.1,0.6-0.1,0.9-0.2c2.1-0.7,4-2.2,5.7-4.7c0.1-0.1,0.1-0.2,0.2-0.3 c0.6-0.8,1.5-2,1.2-3.5c-0.3-1.1-1.1-1.8-1.7-2.3L80,112c-0.7-0.6-1.5-1.1-2.5-1.7c-1.4-0.8-2.9-1.6-4.8-2.3 c0.6-0.9,0.9-2.1,0.9-3.4c0-0.9-0.3-1.9-0.7-2.8c0.9-1,1.4-2.4,1.3-3.9c0-0.7-0.2-1.4-0.4-2.1c0.9-1,1.3-2.3,1.3-3.7 c0-0.5-0.1-0.9-0.2-1.4c0-0.1,0.1-0.2,0.1-0.2c0.5-0.4,0.8-0.9,1-1.6c2.5,1.3,4.8,1.5,4.9,1.5H81c0.2,0.1,0.4,0.2,0.5,0.3 c1.2,0.5,2.4,0.6,3.3,0.7c0.7,0,1.6,0,2.4-0.2c0.5,0,1-0.1,1.4-0.2c1.6-0.3,3.1-1.2,4.2-2.4c0.4-0.5,0.5-1.1,0.3-1.7 c-0.3-0.6-0.8-0.9-1.5-0.8c-1.3,0.1-2.6,0.3-3.9,0.6c-0.4-0.2-0.7-0.3-1-0.4c-1-0.3-1.9-0.5-3-0.7h0.1c3.5-0.2,6-2,6.1-2.1 c0,0,0,0,0.1,0c0.2,0,0.4-0.1,0.6-0.1c1.2-0.3,2.2-1,2.9-1.5c0.4-0.3,1.1-0.8,1.6-1.6c0.4-0.4,0.7-0.8,0.9-1c1-1.2,1.6-2.8,1.7-4.3 c0-0.6-0.3-1.2-0.9-1.5c-0.6-0.3-1.2-0.2-1.7,0.3c-0.9,0.8-1.7,1.8-2.5,2.8c-0.2,0-0.4,0.1-0.6,0.2c0.1-0.1,0.1-0.1,0.2-0.2 c0.2-0.2,0.3-0.4,0.4-0.6c0.8-0.7,1.4-1.6,1.8-2.2c0.3-0.5,0.8-1.2,0.9-2c0.2-0.4,0.4-0.9,0.5-1.2c0.5-1.5,0.5-3.2,0.1-4.6 c-0.2-0.6-0.7-1-1.3-1c-0.2,0-0.4,0-0.5,0.1c0.4-0.6,0.7-1.2,0.9-1.8c0.2-0.7,0.2-1.1,0.3-1.2V62c0.1-0.5,0.4-1.6,0.1-2.5 c0-0.5-0.1-1-0.3-1.5c-0.4-1.5-1.3-2.9-2.4-3.9c-0.5-0.4-1.1-0.5-1.7-0.2c0.9-1.3,1.5-2.5,1.5-3.4c0-0.1,0-0.1,0-0.2 c2.7-1.1,6.6-3.7,9.6-9.4C108,30.3,109.9,23.1,108.5,18z M35.1,10c0.3,0.1,0.6,0.3,0.8,0.6C35.6,10.3,35.3,10.1,35.1,10z M44.8,80.9c-0.4,0-0.8,0.1-1.1,0.1c-0.6,0-1.3-0.3-2-0.6c1.3,0.3,2.5,0.3,3.5,0.1C45.1,80.6,45,80.7,44.8,80.9z M45,75.2 c-0.3,0-0.9-0.1-1.5,0.3c-0.5,0-0.9-0.1-1.2-0.1c-1-0.2-2.1-1.1-2.8-1.7c-0.1-0.3-0.3-0.5-0.5-0.8c-0.8-1.2-1.8-2.2-2.6-2.9 c-0.2-0.2-0.4-0.4-0.8-0.6c-0.3-1-0.6-1.9-1-2.9c0.1,0.1,0.2,0.2,0.3,0.2c0.5,1.1,1.5,2.9,3.3,4.5c1.1,1,2.5,1.8,4.1,2.3 c0.1,0.1,0.3,0.3,0.5,0.3c0.1,0,1.8,0.7,4.4,0.9C45.6,75.2,45.1,75.2,45,75.2z M47.8,85.3c0.1,0,0.1,0,0.2-0.1c0.1,0,0.2,0,0.2,0 C48.1,85.2,47.9,85.2,47.8,85.3z M50.4,69.5c-4.4-0.3-6.3-0.8-6.7-1.1C43.5,68.3,43,68,42.4,68h-0.1c-0.4-0.2-0.8-0.5-1-0.7 c-0.8-0.6-1.4-1.9-1.8-2.8c-0.2-0.4-0.3-0.8-0.5-1s-0.4-0.4-0.6-0.6c-0.4-1-0.9-1.7-1.1-2c-0.2-0.3-0.5-0.9-0.9-1.5 c0.4-1.3,0.7-2.7,0.9-4.1c0-0.2,0-0.4,0-0.6c2.2,2.7,5.4,5.7,7.5,7c0.2,0.3,2.4,3.8,5.8,6.2C50.5,68.5,50.5,69,50.4,69.5z M58.4,49.9c-2,0-3.7-1.7-3.7-3.7s1.7-3.7,3.7-3.7s3.7,1.7,3.7,3.7S60.4,49.9,58.4,49.9z M69.6,49.9c-2,0-3.7-1.7-3.7-3.7 s1.7-3.7,3.7-3.7s3.7,1.7,3.7,3.7S71.7,49.9,69.6,49.9z M79.7,85.2c0.1,0,0.2,0,0.3,0c0.2,0.1,0.4,0.1,0.6,0.2 C80.2,85.3,80,85.2,79.7,85.2z M84.2,81c-0.3,0-0.7,0-1.1-0.1c-0.1-0.1-0.3-0.2-0.5-0.3c1,0.1,2.2,0.1,3.5-0.1 C85.5,80.7,84.8,81,84.2,81z M93.1,66.7c0.1-0.1,0.2-0.2,0.3-0.2c-0.4,0.9-0.7,1.9-1,2.9c-0.3,0.2-0.5,0.4-0.7,0.6l-0.1,0.1 c-0.9,0.9-1.8,1.8-2.5,2.9c-0.2,0.3-0.3,0.5-0.4,0.8h-0.1c-0.7,0.6-1.8,1.5-2.8,1.7c-0.3,0.1-0.7,0.1-1.2,0.1 c-0.4-0.2-0.9-0.3-1.2-0.3c-0.2,0-0.3,0-0.4,0c-0.1,0-0.6,0-2.1-0.5c2.6-0.2,4.3-0.9,4.4-0.9c0.2-0.1,0.4-0.2,0.5-0.3 c1.2-0.4,2.7-1.1,4.1-2.3C91.6,69.6,92.6,67.8,93.1,66.7z M91.6,59.5c-0.4,0.6-0.8,1.2-0.9,1.5c-0.2,0.3-0.7,1-1.1,2 c-0.2,0.1-0.4,0.3-0.6,0.6c-0.2,0.3-0.3,0.6-0.5,1c-0.4,0.8-0.9,2.1-1.8,2.8c-0.3,0.2-0.6,0.4-1,0.7c-0.7,0-1.3,0.3-1.5,0.5 c-0.4,0.3-2.4,0.8-7,1.1c0-0.4-0.1-0.9-0.1-1.3c3.7-2.4,6-6.1,6.2-6.4c2.1-1.3,5.4-4.3,7.5-7c0,0.2,0,0.3,0,0.5 C90.8,56.8,91.1,58.1,91.6,59.5z"/>
    <path d="M69.6,44.3c-1,0-1.9,0.9-1.9,1.9c0,1,0.9,1.9,1.9,1.9c1,0,1.9-0.9,1.9-1.9C71.5,45.2,70.6,44.3,69.6,44.3z"/>
    <path d="M58.3,44.3c-1.1,0-1.9,0.9-1.9,1.9s0.9,1.9,1.9,1.9c1.1,0,1.9-0.9,1.9-1.9S59.4,44.3,58.3,44.3z"/>
  </g>
</svg>