<svg width="128" height="128" xmlns="http://www.w3.org/2000/svg">
  <path d="M80.5,84.5c1.8-2.3,2.9-4.9,3.1-7.7c7.8-7.3,11.2-19,8.5-29.3c-0.3-1.3-0.8-2.5-1.1-3.8c0,0,0.1,0,0.1,0 c-0.3-0.9-0.5-1.7-0.7-2.6c0.9-0.3,1.8-0.8,2.6-1.4c2.5-1.8,3.9-4.9,3.6-8c-0.3-3-2.2-5.7-4.9-7c0.1-0.2,0.1-0.4,0.2-0.6 c-0.1,0-0.1,0-0.2,0.1c0.1-0.2,0.2-0.4,0.2-0.6c0.9-3.3,0.2-6.9-1.2-10C89.2,10.4,87,7.6,84.9,5c-2.7,2.3-6.6,2.6-9.9,3.9 c-0.9,0.3-1.7,0.8-2.5,1.3c-1.8-0.5-3.7-1.3-5.3-2.8c-3.8-3.3-7.2-1.3-9.8-1.4c-2.6-0.2-4.5-1.8-4.5-1.8c-2.9,2.2-4.7,4.4-5.8,6.6 c0-0.2-0.1-0.3-0.2-0.4c-2.7-2.2-8.5-1.4-11,0.5c-7.5,5.6-5.9,11.5-1.4,16.5c-3.7,2-6.8,4.9-9,8.5c-0.3,0.6-2.9,6.8-2.8,6.8h0.1 c2.2,0,4.2,1.5,5.5,3.2c1.4,1.8,2.2,3.9,3.3,5.8c1.1,1.8,2.4,3.5,3.8,5c0,0.1,0,0.1,0,0.2c-0.1-0.1-0.1-0.1-0.2-0.2 c-0.8,5.9,1,12.9,4.5,17.8c1,1.4,2.3,2.7,3.6,3.8c0.3,1.6,0.9,3.2,1.8,4.6C37.4,87,32.2,99.8,32.2,99.8s13.3,6.2,20.9,3.2 c3.7-1.4,6.1-3.6,7.6-5.8l0,4c-0.1,0.1-3,3.7-3,3.7l3,1.8v0.1l-0.1,3.3c-0.2,0-3.2,3.6-3.2,3.6s2,1.7,3.1,2.3l0,0.6l0.8,7.1h5.6 l0.2-2.9c0.8-0.7,2.7-2.8,2.7-2.8s-2-1.1-2.4-1.2l0.2-3.1l-0.8-6.5l0.2-3.1c0.1,0,0.2-0.1,0.3-0.2c0.7-0.6,2.1-1.9,2.1-1.9 s-1.6-2.7-2.1-3.5l0,0l0.1-2.5c1.7,2.8,4.8,6.1,10.1,7.3c7.1,1.6,18.5-5.4,18.5-5.4S89,85.6,80.5,84.5z M53.5,19.2 c0.5-0.2,1.3-0.2,2.2,0c2.9,0.5,7.1,2.4,8.8,2.7c0.9,0.1,1.7,0.3,2.4,0.3c2.6,0.3,3.9,0.2,7.3-1.4c3.2-1.5,4.4-2.2,6.9-6 c0,0,0,0,0,0c-0.2,0.5-0.4,1-0.5,1.5c-0.7,3.9,1.7,7.9,0,11.3c-0.5,0.9-1.1,1.6-1.8,2.2c-7.4,1.8-19,0.8-26.4-4.6 c0-0.2-0.1-0.3-0.1-0.5C52.1,23.4,52.4,21.6,53.5,19.2z M73.9,67c-2-0.3-4-0.2-6.1-0.2C61,67,54,66.5,47.4,64.2 c-2.9-1-5.7-2.5-8.3-4.3c0-0.9,0-1.8,0.1-2.7c0.2-1.2-0.2-2.4-1.1-3.2c-1.4-1.4-2.4-2.8-3.2-4.2c-0.3-0.6-0.7-1.2-1-1.9 c-0.7-1.4-1.5-2.9-2.6-4.3c-1-1.4-2.3-2.5-3.6-3.3c0.5-1.1,0.9-2.1,1.1-2.4c1.9-3,4.5-5.4,7.6-7.1c0.3-0.2,0.6-0.4,0.9-0.7 c1.2,1,2.5,2,3.9,2.9c0,0.6,0,1.1,0,1.7c0,0.7,0,1.3,0,2c0,0.4,0.1,0.7,0.1,1c0.2,2,0.5,4,1.1,5.9c0.8,2.6,1.8,4.7,4,6.2 c2.2,1.5,4.8,2.5,7.3,3.5c4.8,1.8,9.6,3.7,14.3,5.5c2.6,1,5.2,2,7.4,3.8c2.2,1.7,3.9,4.3,3.9,7C77.9,68.1,75.9,67.3,73.9,67z M75,44 c-4.3,6.6-9.9,9.6-15.5,9c-8.9-1-15-11.8-12.8-11.2c6.7,1.9,10.4,0.5,14.2-1.6c3.8-2.1,7.7-4.9,14.7-5.7c0.6-0.1,1.1-0.2,1.7-0.3 c3.8-0.9,6.2-3.3,8.2-5.4c1-1.1,1.8-2.1,2.7-2.8c0.3,0.9,1,1.6,1.9,2c1.5,0.7,2.6,2.3,2.8,4c0.2,1.7-0.6,3.5-2,4.5 c-0.5,0.3-1,0.6-1.7,0.9c-1.7,0.7-2.7,2.5-2.4,4.3c0.1,0.4,0.2,0.8,0.3,1.3C79.8,45.6,77.1,40.7,75,44z"/>
</svg>