<svg viewBox="0 0 128 128" xmlns="http://www.w3.org/2000/svg">
  <g>
    <path d="M93.6,5.8c11.2,6.5,10.5,14.9,8.4,32c-2.1,17.3,9.1,27.3,16.3,30.1c1.3,0.5,2.4-1.4,1.2-2.2c-8-4.8-6.4-18.2-3.2-35.1 c4-20.7-14.4-25.5-22.2-26.3C93.2,4.2,92.9,5.4,93.6,5.8z"/>
    <path d="M80.3,5.2c9.1,5.5,8.4,12.4,6.4,26.3c-2,14.1,7,22.5,12.9,25c1.1,0.5,2-1.1,1-1.8c-6.5-4-5-15-2.1-28.8 C102.1,8.9,87.1,4.8,80.7,4C80,3.9,79.7,4.8,80.3,5.2z"/>
    <path d="M122,72h-9h-1.6H40h-2H8c-2.2,0-4,4.5-4,10s1.8,10,4,10h30h2h71.4h1.6h9c1.1,0,2-0.9,2-2.1V74C124,72.9,123.1,72,122,72z M111.4,89H40V75h71.4V89z"/>
  </g>
</svg>