<svg width="128" height="128" xmlns="http://www.w3.org/2000/svg">
  <path d="M111.9,39.7c-1.5-2.1-8.6-11.2-26.4-16.9c0.3-0.6,0.3-1.4-0.2-2.1l-0.8-1.1c-0.6-0.8-0.5-1.9,0.2-2.6l3.5-3.4 c1.2-1.2,0.4-3.3-1.2-3.3c-0.1,0-0.2,0-0.3,0l-6.3,1.1c-0.1,0-0.2,0-0.3,0c-1.1,0-2-1-1.8-2.2L78.5,8c0.2-1.2-0.8-2.2-1.8-2.2 c-0.3,0-0.6,0.1-1,0.3l-1.8,1.1c-0.3,0.2-0.6,0.3-1,0.3c-0.6,0-1.2-0.3-1.5-0.9l-1.3-2C69.6,4.3,69,4,68.4,4c-0.8,0-1.7,0.6-1.8,1.6 L66,8.8C59.8,7,53.4,8.6,48,15.1c-0.9,1.1-1.6,2.2-2.3,3.3c-2.6,0.9-4.6,2.4-6,4.5C29.6,38.5,15.5,65.5,15.5,65.5s0,0.1,0.1,0.2 c0,0.1,0,0.1,0,0.2c-0.3,0-0.5-0.1-0.6-0.2c0,0.2-0.1,0.4-0.1,0.5c0,1.2-0.2,2.2,0.8,2.7v17.7c0,1.3-0.1,2.3,0.1,2.8v2.3 c0.3-0.7,0.9-1.2,1.6-1.4l10.7-2.9c-7.3,3.7-9,12.8-9,12.8h0.1l-3.4,0.9c-0.1,0.3-0.1,0.5-0.1,0.8v17.6c0,1.9,1.7,3.7,6,2.8 l87.4-24.7c1.3-0.3,2.1-1.5,2.1-2.9V77.1c0-0.1,0-0.3,0-0.4l0.1-3.2c-0.2,1-0.9,1.8-1.8,2l-1.1,0.3c-0.6-1.3-4.6-9.1-13.6-6.5 C85.9,71.9,82,81.8,81.5,83.2L45.8,93v-0.1h0.1c0,0-4.4-7.4-12.4-6.9l15.4-4.2c0.2,0.4,4.7,8.4,14,6c11.4-3,12.6-12.4,12.7-13.3 l35.6-9.7c0-0.8,0-1.7,0.1-2.5c0-0.2,0.1-0.4,0.1-0.6v-0.6c0-0.1,0-0.2,0-0.2v-16v-0.1c0.2-0.1,0.4-0.1,0.6-0.2v-1.9 c0.4-0.5,0.6-1.1,0.6-1.7C112.5,40.5,112.2,40.1,111.9,39.7z M67.5,5.8C67.6,5.2,68,5,68.4,5c0.2,0,0.5,0.1,0.7,0.4l1.3,2 c0.5,0.8,1.4,1.3,2.4,1.3c0.5,0,1-0.1,1.5-0.4l1.8-1.1c0.1-0.1,0.3-0.1,0.4-0.1c0.2,0,0.5,0.1,0.6,0.3c0.1,0.1,0.3,0.4,0.2,0.7 l-0.2,1.2c-0.1,0.8,0.1,1.7,0.7,2.3c0.5,0.6,1.3,1,2.1,1c0.2,0,0.3,0,0.5,0l6.3-1.1c0,0,0.1,0,0.2,0c0.4,0,0.6,0.3,0.8,0.5 c0,0.1,0.2,0.6-0.2,1L84,16.4c-1.1,1-1.2,2.7-0.3,3.9l0.8,1.1c0.3,0.4,0.2,0.9,0.1,1c-0.1,0.1-0.3,0.5-0.8,0.5h-2.4 c-1-3.3-3-6.2-5.3-8.2c-2.9-2.5-6-4.4-9.2-5.5L67.5,5.8z M67.9,21.2c0.6,0.6,0.1,1.9-0.9,2.9c-1.1,1-2.4,1.2-3,0.6 c-0.6-0.6-0.1-1.9,0.9-2.9C66,20.9,67.3,20.6,67.9,21.2z M64.2,13.9c0.7-0.6,1.6-0.8,2-0.4c0.4,0.4,0.1,1.3-0.6,1.9 c-0.7,0.6-1.6,0.8-2,0.4C63.2,15.4,63.5,14.6,64.2,13.9z M58.1,32.4c0.7-0.6,1.6-0.8,2-0.4c0.4,0.4,0.1,1.3-0.6,1.9 c-0.7,0.6-1.6,0.8-2,0.4C57.1,33.9,57.4,33,58.1,32.4z M56.6,24.3c-0.7,0.6-1.6,0.8-2,0.4c-0.4-0.4-0.1-1.3,0.6-1.9 c0.7-0.6,1.6-0.8,2-0.4C57.6,22.8,57.3,23.7,56.6,24.3z M53.7,15.1c0.9-1.1,2.2-1.5,2.8-0.9c0.6,0.5,0.4,1.8-0.6,2.9 c-0.9,1.1-2.2,1.5-2.8,0.9C52.6,17.4,52.8,16.1,53.7,15.1z M47.6,28.5c0.8-1.1,1.9-1.7,2.6-1.2c0.7,0.4,0.6,1.7-0.2,2.8 c-0.8,1.1-1.9,1.7-2.6,1.2C46.8,30.9,46.9,29.6,47.6,28.5z M99.4,43.2c-6.5,2.2-14.1,5.7-26.7,8.8c-11.3,2.8-22.4,4.3-28.9,6.5 c-14.1,4.8-21.4,6.6-25.1,7.3c2.8-5.4,14.7-27.6,23.4-41.1c0.4-0.5,0.8-1,1.3-1.5c-2.1,5.5-2.9,11.6-4.1,17.4 c-0.8,4.2,2.7,7.4,6.8,7c9.1-0.8,21.3-1.8,29.6-8.4c5.4-4.4,6.9-9.6,6.1-14.2c17,4.8,24.6,12.8,27,15.8 C106.7,41.1,103.4,41.9,99.4,43.2z"/>
</svg>