<svg width="128" height="128" xmlns="http://www.w3.org/2000/svg">
  <path d="M116.4,49.4c-2.9-1-5.5-2.6-7.9-4.5c-1.2-1-3-2.9-2.8-2.7c0.8-1.2,1.5-2.4,2.2-3.6c1.4-2.5,2.4-5.2,3.2-8 c0.4-1.3,0.6-2.7,0.8-4.1c0.1-0.4,0.1-3.9,0.3-4c-2.2,1.1-4.1,2.8-6.3,3.9c-2.7,1.3-5.6,2.2-8.6,2.5c-2,0.2-4,0.1-5.9,0.2 c2.7-7.2,4.5-21,2.8-23.6c-1.7-2.7-6.6-1.3-6.6-1.3s-1.3,0.5-1.1,4c0.1,2.8,0.2,10.2-0.9,15.7c-0.9-1.5-2.1-2.8-2.9-4.3 c-1.3-2.2-2.2-4.6-2.7-7.1c-0.4-2.1-0.2-4.2-0.6-6.3c0,0.2-2.3,2-2.5,2.3c-0.8,0.8-1.6,1.7-2.4,2.7c-1.5,1.9-2.8,4-3.8,6.2 c-0.2,0.4-0.4,0.9-0.6,1.3c-0.9-0.8-1.8-1.5-2.8-2.1c-2.1-1.3-4.8-2.1-7.2-2.6c-2.4-0.5-4.8-0.8-7.2-0.8c-0.2,0-0.5,0-0.7,0 c-1.3,0-2.6,0.1-3.9,0.3c-0.4,0-3,0.8-3.6,0.8c-0.1,0-0.1,0-0.1,0c1.6,1.7,3.6,3,5.2,4.7c0.4,0.4,0.7,0.8,1,1.2 c-7.6-0.3-15.2,2.1-21.6,6.9C19.1,34.8,14.5,47,12.3,69.9c-0.8,8.6-2.1,17.4-1.2,25.8c0.8,7.8,4,14.5,9.1,20 c6.3,6.9,16.8,9.4,26.2,7.8c8.9-1.5,17.4-6.4,25.5-10.7l2.4-1.3c20.3-10.8,29.9-19.6,33.2-31.9c1.7-6.4,1.1-13-1.2-19.6 c0,0,0.4,0,2.7-0.6c2.8-0.8,5.5-1.8,8-3.2c1.2-0.7,2.4-1.4,3.6-2.3c0.4-0.3,2.8-2.6,3.1-2.6C121.3,50.5,118.8,50.3,116.4,49.4z M23.6,90.4c-0.7,0.3-1.6-0.5-2-1.7c-0.4-1.2-0.2-2.3,0.5-2.6c0.7-0.3,1.6,0.5,2,1.7C24.5,89,24.2,90.1,23.6,90.4z M24.7,70.5 c-0.2,1.2-0.9,2.1-1.6,2c-0.7-0.1-1.2-1.2-1-2.4c0.2-1.2,0.9-2.1,1.6-2C24.4,68.2,24.9,69.3,24.7,70.5z M52.3,16.3h0.6 c2.2,0,4.4,0.2,6.6,0.7c1.9,0.4,4.4,1.1,6.3,2.2c2,1.3,3.8,3.1,5.5,4.9c1.6,1.6,3.1,3.9,3.8,6.3c-2.8-2.9-6.9-4.5-10.9-4.6 c-0.1,0-0.2,0-0.3,0c-2.1,0-4.2,0.4-6.2,0.9c-0.2-0.6-0.4-1.2-0.6-1.8c-1.2-3-2.9-5.6-5.1-8c-0.2-0.2-0.4-0.4-0.6-0.7 C51.7,16.3,52,16.3,52.3,16.3z M28.1,47.8c-0.6-0.5-0.4-1.7,0.4-2.8c0.8-1,2-1.5,2.6-1c0.6,0.5,0.4,1.7-0.4,2.8 C29.8,47.8,28.7,48.3,28.1,47.8z M31.4,108.6c-0.8,0.2-1.6-0.7-2-2c-0.4-1.3,0-2.5,0.8-2.7c0.8-0.2,1.6,0.7,2,2 C32.5,107.2,32.2,108.4,31.4,108.6z M36.9,84.4c-0.5,1.2-1.5,2-2.2,1.7c-0.7-0.3-0.9-1.5-0.4-2.8c0.5-1.2,1.5-2,2.2-1.7 C37.2,81.9,37.4,83.1,36.9,84.4z M39.8,65c-0.2,1.2-1,2.1-1.7,2c-0.7-0.1-1.1-1.2-0.9-2.5c0.2-1.2,1-2.1,1.7-2 C39.7,62.6,40.1,63.7,39.8,65z M44.5,111c-1,0.8-2.3,1-2.8,0.4c-0.5-0.6-0.1-1.8,1-2.6c1-0.8,2.3-1,2.8-0.4 C45.9,108.9,45.5,110.1,44.5,111z M46.6,55.6c-0.8,0-1.4-1.1-1.4-2.4c0-1.3,0.6-2.4,1.4-2.4c0.8,0,1.4,1.1,1.4,2.4 C48,54.5,47.4,55.6,46.6,55.6z M51.8,95.4c-0.5,1.2-1.5,2-2.2,1.7c-0.7-0.3-0.9-1.5-0.4-2.8c0.5-1.2,1.5-2,2.2-1.7 C52.1,92.9,52.3,94.2,51.8,95.4z M53.3,75.2c-0.5,1.2-1.5,2-2.2,1.7c-0.7-0.3-0.9-1.5-0.4-2.8c0.5-1.2,1.5-2,2.2-1.7 C53.6,72.7,53.8,74,53.3,75.2z M63.6,106.7c-1,0.8-2.3,1-2.8,0.4c-0.5-0.6-0.1-1.8,1-2.6c1-0.8,2.3-1,2.8-0.4 C65.1,104.7,64.6,105.9,63.6,106.7z M66.3,94c-1.2,0.7-2.4,0.7-2.8,0s0.2-1.8,1.4-2.4c1.2-0.7,2.4-0.7,2.8,0 C68,92.2,67.4,93.3,66.3,94z M64.2,76.1c0.9-0.9,2.2-1.3,2.7-0.7c0.6,0.6,0.2,1.8-0.7,2.7c-0.9,0.9-2.2,1.3-2.7,0.7 C62.9,78.3,63.2,77,64.2,76.1z M71.4,63.1c-0.6,1.2-1.7,1.8-2.4,1.5c-0.7-0.3-0.8-1.6-0.1-2.8c0.6-1.2,1.7-1.8,2.4-1.5 S72,61.9,71.4,63.1z M74.7,42.7C72.9,46,68.5,48,63,48c-0.8,0-1.6,0-2.3-0.1c-3-0.3-6.2-0.6-9-1.6c-2.6-0.9-5.2-2.8-7.1-4.4 c-2.4-1.9-4.5-4.1-6.3-6.5c-0.5-0.7-1-1.5-1.5-2.2c0.8,0.1,1.7,0.3,2.6,0.3c0.8,0.1,1.6,0.1,2.4,0.1c3,0,6-0.4,8.8-1.3 c1.3-0.4,2.5-0.8,3.6-1.3c1.1-0.4,2.1-0.8,3.1-1.1c1.8-0.5,4.3-1.1,6.7-1.1h0.3c3.8,0.1,7.4,1.8,9.5,4.5 C75.8,36,76.2,39.9,74.7,42.7z M79.9,88.1c-0.6,1.2-1.7,1.8-2.4,1.5c-0.7-0.3-0.8-1.6-0.1-2.8c0.6-1.2,1.7-1.8,2.4-1.5 C80.5,85.7,80.5,87,79.9,88.1z M89.7,77.4c-0.6,1.2-1.7,1.8-2.4,1.5c-0.7-0.3-0.8-1.6-0.1-2.8c0.4-0.7,0.9-1.2,1.4-1.4 c-0.4-0.2,1.1,0.5,1.6,0.8C90.2,76,90,76.7,89.7,77.4z M98.4,75.4c-2.9-0.8-5.8-1.9-8.4-3.3c-2.2-1.2-4.9-2.8-6.8-4.9 c-2-2.2-3.5-5-5-7.7c-2.4-4.4-4-10.9-0.7-15c0.5-0.6,1.1-1.1,1.8-1.6c0.5,0.2,1.1,0.1,1.7-0.3c0.2-0.2,0.5-0.4,0.7-0.6 c0,0,0,0,0.1,0c0,0,0-0.1,0.1-0.1c0.1-0.1,0.2-0.2,0.3-0.2c0.7-0.2,1.4-0.3,2.2-0.3c0.8,0,1.6,0.1,2.4,0.3c3.3,0.9,6.3,3.6,7.8,7 c1,2.3,1.4,4.9,1.6,6.9c0.1,1,0.1,2.1,0.2,3.3c0,1.2,0,2.5,0.2,3.8c0.4,3.8,1.5,7.5,3.3,10.8c0.4,0.8,0.9,1.5,1.3,2.2 C100.1,75.8,99.3,75.6,98.4,75.4z M115.5,53.5c-2.3,1.3-4.8,2.3-7.3,3c-1.8,0.5-4.1,1-6.3,1c-0.3,0-0.6,0-0.9,0 c-0.6,0-1.2-0.1-1.7-0.2c0-0.6-0.1-1.2-0.1-1.8c-0.3-2.6-0.8-5.3-1.9-7.7c-1.7-3.8-4.8-6.9-8.6-8.3c1.2-0.5,2.5-0.8,3.9-0.8 c1.5,0,3.1,0.3,4.5,0.9c2,0.8,3.7,2.2,5.1,3.4c0.7,0.6,1.4,1.3,2.1,2c0.8,0.8,1.5,1.6,2.5,2.4c2.6,2.2,5.6,3.9,8.8,5.1 c0.5,0.2,1,0.3,1.5,0.5C116.4,53,116,53.3,115.5,53.5z"/>
</svg>