<svg width="128" height="128" xmlns="http://www.w3.org/2000/svg">
  <g>
    <path d="M116,4H12c-4.4,0-8,3.6-8,8v104c0,4.4,3.6,8,8,8h104c4.4,0,8-3.6,8-8V12C124,7.6,120.4,4,116,4z M116,113c0,1.7-1.3,3-3,3 H15c-1.7,0-3-1.3-3-3V15c0-1.7,1.3-3,3-3h98c1.7,0,3,1.3,3,3V113z"/>
    <path d="M107.9,20.7c-4.6-3.6-11.4-2.9-15.1,1.6c-0.1,0.1-0.2,0.2-0.3,0.3L87.7,28L44.5,76l-7.2-22.8c-1.9-5.7-8.1-8.8-13.8-6.9 c-4.6,1.5-7.6,5.9-7.5,10.6c0,1.1,0.2,2.2,0.6,3.3L21,73.7l9.1,28.3c0.4,1.2,1,2.2,1.7,3.2c1.6,2.2,4,3.8,6.8,4.2 c0.6,0.1,1.3,0.2,1.9,0.2c3.3,0,6.5-1.5,8.5-4.1l60.6-69.3c0.5-0.6,0.9-1.3,1.2-2C113.2,29.7,112,24,107.9,20.7z"/>
  </g>
</svg>