<svg width="128" height="128" xmlns="http://www.w3.org/2000/svg">
  <g>
    <path d="M114.9,43.7H112V7.6c0-2-1.6-3.6-3.6-3.6H47.7c-2,0-3.6,1.6-3.6,3.6v36.1h-4.7c-1.4-5-6-8.7-11.5-8.7s-10.1,3.7-11.5,8.7 H13c-4.9,0-8.9,4-8.9,8.9v62.3c0,4.9,4,8.9,8.9,8.9h101.8c4.9,0,8.9-4,8.9-8.9V52.6C123.8,47.7,119.8,43.7,114.9,43.7z M36.9,103 c0,4.9-4,9-9,9c-4.9,0-8.9-4-8.9-9V47c0-4.9,4-9,8.9-9c4.9,0,9,4,9,9V103z M47.2,7.6c0-0.3,0.2-0.6,0.6-0.6h60.7 c0.3,0,0.6,0.2,0.6,0.6v36.1H47.2V7.6z M99.9,57.9c0,3.3-2.7,6-6,6h-40c-3.3,0-6-2.7-6-6c0-3.3,2.7-6,6-6h40 C97.2,51.9,99.9,54.6,99.9,57.9z M52.3,114c-2.4,0-4.4-2-4.4-4.4c0-2.4,2-4.4,4.4-4.4c2.4,0,4.4,2,4.4,4.4 C56.7,112,54.8,114,52.3,114z M52.3,102.1c-2.4,0-4.4-2-4.4-4.4c0-2.4,2-4.4,4.4-4.4c2.4,0,4.4,2,4.4,4.4 C56.7,100.1,54.8,102.1,52.3,102.1z M52.3,90.5c-2.4,0-4.4-2-4.4-4.4c0-2.4,2-4.4,4.4-4.4c2.4,0,4.4,2,4.4,4.4 C56.7,88.5,54.8,90.5,52.3,90.5z M52.3,78.8c-2.4,0-4.4-2-4.4-4.4c0-2.4,2-4.4,4.4-4.4c2.4,0,4.4,2,4.4,4.4 C56.7,76.8,54.8,78.8,52.3,78.8z M67.3,114c-2.4,0-4.4-2-4.4-4.4c0-2.4,2-4.4,4.4-4.4c2.4,0,4.4,2,4.4,4.4 C71.7,112,69.7,114,67.3,114z M67.3,102.1c-2.4,0-4.4-2-4.4-4.4c0-2.4,2-4.4,4.4-4.4c2.4,0,4.4,2,4.4,4.4 C71.7,100.1,69.7,102.1,67.3,102.1z M67.3,90.5c-2.4,0-4.4-2-4.4-4.4c0-2.4,2-4.4,4.4-4.4c2.4,0,4.4,2,4.4,4.4 C71.7,88.5,69.7,90.5,67.3,90.5z M67.3,78.8c-2.4,0-4.4-2-4.4-4.4c0-2.4,2-4.4,4.4-4.4c2.4,0,4.4,2,4.4,4.4 C71.7,76.8,69.7,78.8,67.3,78.8z M81.8,114c-2.4,0-4.4-2-4.4-4.4c0-2.4,2-4.4,4.4-4.4c2.4,0,4.4,2,4.4,4.4 C86.2,112,84.2,114,81.8,114z M81.8,102.1c-2.4,0-4.4-2-4.4-4.4c0-2.4,2-4.4,4.4-4.4c2.4,0,4.4,2,4.4,4.4 C86.2,100.1,84.2,102.1,81.8,102.1z M81.8,90.5c-2.4,0-4.4-2-4.4-4.4c0-2.4,2-4.4,4.4-4.4c2.4,0,4.4,2,4.4,4.4 C86.2,88.5,84.2,90.5,81.8,90.5z M81.8,78.8c-2.4,0-4.4-2-4.4-4.4c0-2.4,2-4.4,4.4-4.4c2.4,0,4.4,2,4.4,4.4 C86.2,76.8,84.2,78.8,81.8,78.8z M112.2,113.3H95.7c-2.1,0-3.7-1.7-3.7-3.7c0-2.1,1.7-3.7,3.7-3.7h16.4c2,0,3.7,1.7,3.7,3.7 C115.9,111.6,114.2,113.3,112.2,113.3z M112.2,101.5H95.7c-2.1,0-3.7-1.7-3.7-3.7s1.7-3.7,3.7-3.7h16.4c2,0,3.7,1.7,3.7,3.7 C115.9,99.8,114.2,101.5,112.2,101.5z M112.2,89.8H95.7c-2.1,0-3.7-1.7-3.7-3.7s1.7-3.7,3.7-3.7h16.4c2,0,3.7,1.7,3.7,3.7 C115.9,88.1,114.2,89.8,112.2,89.8z M112.2,78.1H95.7c-2.1,0-3.7-1.7-3.7-3.7s1.7-3.7,3.7-3.7h16.4c2,0,3.7,1.7,3.7,3.7 C115.9,76.4,114.2,78.1,112.2,78.1z"/>
    <path d="M104,15.1H52c-0.6,0-1,0.4-1,1c0,0.6,0.4,1,1,1h52c0.6,0,1-0.4,1-1C105,15.5,104.6,15.1,104,15.1z"/>
    <path d="M104,25.1H52c-0.6,0-1,0.4-1,1c0,0.6,0.4,1,1,1h52c0.6,0,1-0.4,1-1C105,25.5,104.6,25.1,104,25.1z"/>
    <path d="M104,35.1H52c-0.6,0-1,0.4-1,1c0,0.6,0.4,1,1,1h52c0.6,0,1-0.4,1-1C105,35.5,104.6,35.1,104,35.1z"/>
  </g>
</svg>