<svg width="128" height="128" xmlns="http://www.w3.org/2000/svg">
  <g>
    <ellipse cx="23.1" cy="50.1" rx="5.5" ry="6.2"/>
    <ellipse cx="59.7" cy="50.1" rx="5.5" ry="6.2"/>
    <path d="M53.8,64.1c0-6-5.5-12.3-12.3-12.3s-12.3,6.3-12.3,12.3s5.5,9.5,12.3,9.5S53.8,70.1,53.8,64.1z M43,63.6c0-0.1,0-0.2,0-0.3 c0.1-2.6,1-4.2,2.2-4.4c0.1,0,0.2,0,0.3,0s0.2,0,0.3,0c1.2,0.2,2.2,1.7,2.2,4.4c0,0.1,0,0.2,0,0.3c0,0.1,0,0.2,0,0.3 c-0.1,2.6-1,4.2-2.2,4.4c-0.1,0-0.2,0-0.3,0s-0.2,0-0.3,0C44,68,43,66.5,43,63.9C43,63.8,43,63.7,43,63.6z M39.9,63.6 c0,0.1,0,0.2,0,0.3c-0.1,2.6-1,4.2-2.2,4.4c-0.1,0-0.2,0-0.3,0c-0.1,0-0.2,0-0.3,0c-1.2-0.2-2.2-1.7-2.2-4.4c0-0.1,0-0.2,0-0.3 c0-0.1,0-0.2,0-0.3c0.1-2.6,1-4.2,2.2-4.4c0.1,0,0.2,0,0.3,0c0.1,0,0.2,0,0.3,0c1.2,0.2,2.2,1.7,2.2,4.4 C39.9,63.4,39.9,63.5,39.9,63.6z"/>
    <path d="M119.2,46.3c-0.5-0.3-1.1-0.2-1.4,0.3s-0.2,1.1,0.3,1.4c3.2,2,4.6,5.4,3.6,8.9c-0.3,1.1-0.9,2.1-1.6,2.9 c0-2.1-1.1-4.5-3.2-5c-1-0.2-2,0-2.9,0.6c-0.9,0.7-1.5,1.7-1.7,2.7c-0.2,2,1.1,4,3.1,4.7c0.5,0.2,1.1,0.3,1.7,0.3 c-1,1.5-2.5,2.4-4.3,2.6c-1-7.4-3.7-13.2-7.9-17.6c-6.1-6.3-15.8-9.7-28.7-10.1V20.8c0,0-9.7,0-16.1,0c-3.2,0-5.6,0-5.6,0 c0,0.8,0,1.6,0.1,2.4c-3.9-1.9-8.3-2.9-13.3-2.9c-5.8,0-10.8,1.5-15.2,4c0.2-1.1,0.2-2.2,0.2-3.4c0,0-2.4,0-5.6,0 c-6.4,0-16.1,0-16.1,0v21.7c2.4,0,4.7-0.4,6.9-1.1c-2.1,5.2-3.3,10.8-3.3,16.4C8.2,69,12.7,77,20.9,81.7c1,3.5,2.7,6.7,5,9.6 L23,101.8c0,0,0,0,0,0.1l-4.3,14.3c-0.1,0.4,0,0.8,0.3,1c0.3,0.3,0.7,0.3,1,0.2l7.1-2.6l3.4,6.8c0.2,0.3,0.5,0.5,0.8,0.6 c0.3,0,0.7-0.2,0.9-0.5c0-0.1,3.6-5.9,7.5-11.5c1.6-2.3,3-4.3,4.2-6.1c0.1,1.7,0.3,3.5,0.4,5.4l0.1,1.1c0.5,5.8,1.1,13.5,1.1,13.5 c0,0.4,0.2,0.7,0.6,0.8c0.1,0.1,0.3,0.1,0.4,0.1c0.2,0,0.4-0.1,0.6-0.2l6.7-4.7l4.8,4.1c0.3,0.2,0.6,0.3,1,0.2 c0.3-0.1,0.6-0.4,0.7-0.7l2.9-12.9c0,0,0,0,0-0.1l0.8-3.8c1.1,0,2.2,0.1,3.2,0.1c2.8,0,5.4-0.1,8-0.3l0.2,2.4c0.4,6,1.1,14,1.1,14 c0,0.4,0.3,0.7,0.6,0.8c0.3,0.1,0.7,0.1,1-0.1l6.2-5.2l5,5.1c0.2,0.2,0.5,0.3,0.7,0.3c0.1,0,0.2,0,0.3,0c0.4-0.1,0.6-0.4,0.7-0.7 c0-0.1,1.2-4.9,2.7-10.9l6.4,11.3c0.2,0.3,0.5,0.5,0.8,0.5c0,0,0,0,0.1,0c0.3,0,0.6-0.1,0.8-0.4l4.6-6.3l7.7,1.8 c0.4,0.1,0.7,0,1-0.3s0.3-0.6,0.2-1c0-0.1-2-6.5-4.2-13.8c-1.4-4.7-2.5-8.6-3.3-11.8c3.5-4.7,5.4-10.4,5.6-17c0.1-2.8,0-5.5-0.2-8 c3-0.3,5.5-2.3,6.6-5.1c0.4-0.2,0.8-0.4,1.2-0.7c1.7-1.3,2.5-3.1,2.8-4.4C124.9,53,123.2,48.8,119.2,46.3z M60.2,22.8 c4.6,0,10.8,0,14,0v17.4c-9.3-1-16.5-8.1-17.4-17.4H60.2z M6.9,40.3V22.9c3.2,0,9.4,0,14,0h3.4C23.3,32.1,16.2,39.3,6.9,40.3z M18.6,77.2c-5.3-4.5-8-11-8-19.4c0-6.1,1.4-12.2,4-17.5c5.2-2.6,9.4-7.2,11.1-13.2c4-2.7,9.2-4.7,15.8-4.7c5.5,0,10,1.4,13.7,3.4 c1.6,7.4,7,13,13.6,15.4c2.3,5.1,3.5,10.8,3.5,16.6c0,8.4-2.7,14.9-8,19.4C59,81.7,51.1,84,41.4,84C31.7,84,23.8,81.7,18.6,77.2z M38.5,108.4c-0.4-0.2-0.9-0.3-1.3-0.5c-0.1-0.1-0.3-0.1-0.4-0.2c-0.6-0.2-1.2-0.5-1.7-0.7c-0.1-0.1-0.3-0.1-0.4-0.2 c-0.7-0.3-1.3-0.6-1.9-0.9c-0.6-0.3-1.3-0.6-1.8-0.9c0,0,0,0-0.1,0c-0.6-0.3-1.1-0.6-1.6-0.8c-0.1-0.1-0.2-0.1-0.3-0.2 c-0.4-0.2-0.9-0.5-1.3-0.7c-0.1-0.1-0.2-0.1-0.3-0.2c-0.4-0.3-0.8-0.5-1.2-0.8c-0.1-0.1-0.2-0.1-0.2-0.2c-0.2-0.2-0.5-0.3-0.7-0.5 l2.6-8.8c3.7,3.9,8.7,7.2,14.8,9.7C41.3,104.3,40,106.3,38.5,108.4z M90.3,108.7c-0.2,0-0.4,0-0.6,0c-0.5,0-1-0.1-1.6-0.1 c-0.2,0-0.4,0-0.6,0c-0.5,0-1,0-1.5-0.1c-0.7,0-1.4,0-2-0.1c-1.2,0-2.3-0.1-3.5-0.1c-0.3,0-0.7,0-1,0c-0.7,0-1.5-0.1-2.2-0.1 l-0.1-1.6c4.3-0.4,8.3-1.2,11.9-2.2l2.5,4.4C91.1,108.7,90.7,108.7,90.3,108.7z M111.4,75.5c-0.2,6.4-2,11.8-5.5,16.2 c-0.2,0.2-0.3,0.6-0.2,0.9c0.8,3.1,1.9,7,3.2,11.6c-5.3,3.2-9.9,5.3-14,6.2h-0.1l-4.4-7.8c-0.2-0.3-0.5-0.5-0.9-0.5 c-0.1,0-0.2,0-0.3,0C83,104,75.5,105,67.1,105c-1.3,0-2.6,0-4-0.1c-0.5,0-0.9,0.3-1,0.8l-0.9,3.8c-1.7,0-3.4,0.1-5,0.1 c-2.2,0.1-4.4,0.1-6.6,0.1c-0.3,0-0.7,0-1,0c-0.4,0-0.8-0.1-1.2-0.1c-0.3,0-0.7-0.1-1-0.1v-0.3c-0.2-2.4-0.4-4.8-0.6-7 c0-0.4-0.3-0.7-0.7-0.9C34.2,97.5,26.8,91,23.7,82.8c4.9,2.2,10.8,3.3,17.7,3.3c20.7,0,33-10.2,33-28.4c0-5.4-1-10.8-3-15.8 c1.6,0.4,3.2,0.6,4.9,0.6V40c12.4,0.4,21.5,3.6,27.3,9.5C109.1,55.2,111.7,63.7,111.4,75.5z M118.1,60.9c-0.6,0.1-1.3,0.1-1.9-0.1 c-1.1-0.4-1.9-1.5-1.7-2.5c0.1-0.5,0.4-1,0.8-1.3c0.3-0.2,0.6-0.3,1-0.3c0.1,0,0.2,0,0.3,0c1.1,0.3,1.7,1.8,1.7,3.1 C118.2,60.2,118.1,60.6,118.1,60.9z"/>
  </g>
</svg>