<svg width="128" height="128" xmlns="http://www.w3.org/2000/svg">
  <g>
    <circle cx="64" cy="112.3" r="1.7"/>
    <circle cx="64" cy="120.3" r="1.7"/>
    <path d="M64,72.3c2.8,0,4.2-2,4.5-2.7c0.3-0.7,0-1.3-0.7-1.6c-0.1,0-0.2-0.1-0.3-0.1h-7c-0.1,0-0.2,0-0.3,0.1 c-0.6,0.3-1,0.9-0.7,1.6C59.8,70.4,61.2,72.3,64,72.3z"/>
    <ellipse cx="47.8" cy="58.9" rx="4.9" ry="5"/>
    <ellipse cx="80.2" cy="58.9" rx="4.9" ry="5"/>
    <path d="M53.1,51.8c0.9,0.3,1.6,0,1.9-0.4c0.3-0.4,0.4-1,0-1.5c-0.9-1.2-3.1-3-7.2-3s-6.3,1.8-7.2,3c-0.4,0.5-0.3,1.2,0,1.5 c0.3,0.3,1,0.7,1.9,0.4c0.9-0.3,2.5-1.2,5.3-1.2C50.6,50.6,52.2,51.5,53.1,51.8z"/>
    <path d="M80.2,46.8c-4.2,0-6.3,1.8-7.2,3c-0.4,0.5-0.3,1.2,0,1.5c0.3,0.3,1,0.7,1.9,0.4c0.9-0.3,2.5-1.2,5.3-1.2 c2.8,0,4.5,0.9,5.3,1.2c0.9,0.3,1.6,0,1.9-0.4c0.3-0.4,0.4-1,0-1.5C86.5,48.6,84.4,46.8,80.2,46.8z"/>
    <path d="M72.3,76.1c-3.2,1.9-13.5,1.9-16.6,0c-1.8-1.1-3.7,0.6-2.9,2.2c0.7,1.6,6.4,5.4,11.2,5.4c4.9,0,10.4-3.8,11.2-5.4 C76,76.7,74.1,75.1,72.3,76.1z"/>
    <path d="M98.4,101.6c4.6-16.6,5.7-40.3,5.7-58.6c0.6-1,2.1-3.7,3.5-8.5c3.6-13.1-12.3-27.5-36.3-30c-2.1-0.2-4.3-0.4-6.7-0.4 c-0.1,0-0.2,0-0.3,0c-0.1,0-0.2,0-0.2,0c-27.9,0-47.5,16.2-43.6,30.5c1.7,6.2,3.3,8.7,3.3,8.7c0-0.1,0.1-0.1,0.2-0.2 c0,18.2,1.1,41.7,5.6,58.2C19.1,105.4,12,111.7,12,121v3h45.7l-6-27.4c1.1-0.1,2.2-0.2,3.3-0.3c0.2,1.1,0.7,2.4,1.9,4.2 c0-0.1,0-0.3,0-0.4v-5c2.5,0.8,4.9,1.2,7.1,1.2c2.2,0,4.6-0.4,7.1-1.2v5c0,0.2,0,0.3,0,0.4c1.2-1.8,1.7-3.1,1.9-4.2 c1.1,0.1,2.2,0.2,3.3,0.3l-6,27.4H116v-3C116,112.2,108.9,105.8,98.4,101.6z M72.6,17.2h12.6c0.3,0,0.4,0.3,0.2,0.5 c-0.1,0.1-0.2,0.2-0.4,0.3c-1.1,1-2.4,1.5-3.9,1.5h-10C71.7,18.5,72.2,17.7,72.6,17.2z M71,20.6h9.8c0.4,0,0.5,0.5,0.2,0.7 c-0.2,0.2-0.5,0.3-0.7,0.5c-0.8,0.5-1.8,0.8-2.7,0.8h-7.7c0.2-0.7,0.5-1.4,0.8-2.1C70.8,20.5,70.9,20.6,71,20.6z M76.5,24 c-4.1,2-6.4,1.9-6.4,1.9h-0.8c0.1-0.8,0.2-1.6,0.3-2.3h6.8C76.6,23.6,76.7,23.9,76.5,24z M57.7,17l0.8-2c0.2-0.5,0.8-0.7,1.2-0.5 c0.8,0.3,1.7,0.6,2.5,0.7c1.2,0.2,2.4,0.2,3.5,0c0.8-0.1,1.7-0.3,2.5-0.7c0.5-0.2,1,0,1.2,0.5c0.3,0.7,0.7,1.7,0.9,2.2 c0.1,0.3,0.1,0.6-0.1,0.9c-0.7,1-2.4,3.6-2.5,6.8c0,0.4-0.2,0.7-0.5,0.8c-0.6,0.3-1.8,0.9-2.6,1.6c-0.4,0.3-0.9,0.3-1.2,0 c-0.8-0.7-2-1.3-2.6-1.6c-0.3-0.2-0.5-0.5-0.5-0.8c-0.1-3.2-1.8-5.8-2.5-6.8C57.5,17.9,57.5,17.5,57.7,17z M58.7,25.9h-0.8 c0,0-2.3,0.1-6.4-1.9c-0.2-0.1-0.1-0.4,0.1-0.4h6.8C58.6,24.3,58.7,25.1,58.7,25.9z M57.3,20.5c0.3,0.6,0.5,1.3,0.8,2.1h-7.7 c-1,0-1.9-0.3-2.7-0.8c-0.2-0.1-0.5-0.3-0.7-0.5c-0.3-0.2-0.2-0.7,0.2-0.7H57C57.1,20.6,57.2,20.5,57.3,20.5z M42.8,17.2h12.6 c0.4,0.5,0.9,1.3,1.4,2.3h-10C45.4,19.5,44,19,43,18c-0.1-0.1-0.2-0.2-0.4-0.3C42.4,17.5,42.5,17.2,42.8,17.2z M71.2,92.9 c-2.5,0.9-5,1.4-7.2,1.4c-2.2,0-4.7-0.5-7.2-1.4c-8.7-3.1-18.4-11.1-22.3-24.6c-0.1-2.8-0.2-5.4-0.3-7.6 c-0.1-2.9-0.9-13.7,5.2-15.1c2.1-0.5,4-1,5.9-1.5c5,1,11.1,1.7,18.4,1.8c10.1-0.1,17.9-1.4,23.8-3.2c1.6,1.2,3.1,2.2,4.1,2.9 c3,2.2,2.6,11.2,2.5,15l-0.5,6.8C90.1,81.5,80,89.8,71.2,92.9z M86.2,118.8c0,0-0.1-0.1-0.2-0.1c-0.1-0.1,0-0.2,0.1-0.2h5.3 c0.2,0.2,0.4,0.5,0.6,1v0h-4.2C87.2,119.4,86.6,119.2,86.2,118.8z M88.2,120.3c-0.1-0.1-0.2-0.1-0.3-0.2c-0.1-0.1-0.1-0.3,0.1-0.3 h4.1c0,0,0.1,0,0.1,0c0.1,0.3,0.2,0.6,0.3,0.9h-3.2C88.9,120.6,88.5,120.5,88.2,120.3z M92.5,122.1c0,0-1,0.1-2.7-0.8 c-0.1,0,0-0.2,0-0.2h2.8c0.1,0.3,0.1,0.6,0.1,1H92.5z M96.4,122c-0.3,0.1-0.8,0.4-1.1,0.7c-0.2,0.1-0.4,0.1-0.5,0 c-0.4-0.3-0.8-0.5-1.1-0.7c-0.1-0.1-0.2-0.2-0.2-0.3c0-1.3-0.8-2.4-1-2.8c-0.1-0.1-0.1-0.2,0-0.5l0.3-0.8c0.1-0.2,0.3-0.3,0.5-0.2 c0.3,0.2,0.7,0.2,1,0.3c0.5,0.1,1,0.1,1.5,0c0.3-0.1,0.7-0.1,1-0.3c0.2-0.1,0.4,0,0.5,0.2c0.1,0.3,0.3,0.7,0.4,0.9 c0.1,0.1,0,0.3,0,0.4c-0.3,0.4-1,1.5-1,2.8C96.6,121.8,96.5,121.9,96.4,122z M100.2,121.3c-1.7,0.9-2.7,0.8-2.7,0.8h-0.3 c0-0.3,0.1-0.7,0.2-1h2.8C100.3,121.1,100.3,121.2,100.2,121.3z M102.1,120.1c-0.1,0.1-0.2,0.1-0.3,0.2c-0.3,0.2-0.7,0.3-1.1,0.3 h-3.2c0.1-0.3,0.2-0.6,0.3-0.9c0,0,0.1,0,0.1,0h4.1C102.2,119.8,102.2,120,102.1,120.1z M104,118.6c0,0-0.1,0.1-0.2,0.1 c-0.4,0.4-1,0.6-1.6,0.6H98c0.2-0.4,0.4-0.7,0.6-1h5.3C104,118.4,104,118.5,104,118.6z"/>
  </g>
</svg>