<svg width="128" height="128" xmlns="http://www.w3.org/2000/svg">
  <g>
    <path d="M64,6.1C32.8,6.1,4,26.1,4,64c0,37.7,28.8,57.9,60,57.9s60-20.7,60-57.9C124,26.6,95.2,6.1,64,6.1z M103,103.9 c-10.2,9-24.1,14-39,14c-15,0-28.9-4.9-39-13.8C13.9,94.3,8,80.5,8,64s5.9-30.4,17-40.2c10.1-8.9,24-13.7,39-13.7s28.9,5,39,13.9 c11.1,9.8,17,23.6,17,40C120,80.3,114.1,94.1,103,103.9z"/>
    <path d="M64,80.3c-8.2,0-14.8,3.2-19.1,9.2c-1.9,2.7-2.1,6-0.4,8.9c1.7,2.8,4.8,4.6,8.2,4.6c1,0,2.1-0.2,3.1-0.5 c2.7-0.9,5.4-2.3,8.2-2.3s5.5,1.4,8.2,2.3c1,0.3,2.1,0.5,3.1,0.5c3.4,0,6.5-1.8,8.2-4.6c1.7-2.8,1.5-6.2-0.4-8.9 C78.8,83.5,72.2,80.3,64,80.3z"/>
    <ellipse cx="82.7" cy="59.4" rx="8" ry="9.4"/>
    <ellipse cx="45.2" cy="59.4" rx="8" ry="9.4"/>
    <path d="M38.6,36.7c0.4-0.2,0.8-0.4,1.1-0.7c0.4-0.2,0.7-0.4,1.1-0.5c0.4-0.1,0.7-0.3,1-0.4c0.3-0.1,0.6-0.2,0.9-0.3 c0.3-0.1,0.5-0.2,0.7-0.2c0.4-0.1,0.6-0.2,0.6-0.2l0.3-0.1c0.6-0.2,1-0.7,1.2-1.3c0.2-0.9-0.3-1.9-1.3-2.1c0,0-0.3-0.1-0.9-0.2 c-0.3-0.1-0.6-0.1-1-0.1c-0.4,0-0.8,0-1.3,0s-1,0.1-1.6,0.2c-0.5,0.1-1.1,0.3-1.7,0.5c-0.6,0.2-1.2,0.5-1.7,0.8 c-0.6,0.3-1.1,0.7-1.7,1c-0.5,0.4-1,0.8-1.5,1.3c-0.5,0.4-0.9,1-1.2,1.4c-0.4,0.5-0.7,1-1,1.5c-0.3,0.5-0.5,1-0.7,1.4 c-0.1,0.2-0.2,0.4-0.2,0.7c-0.1,0.2-0.1,0.5-0.2,0.7c0,0.2-0.1,0.4-0.1,0.6s0,0.3,0,0.4c0,0.5,0,0.8,0,0.8c0,0.6,0.3,1.2,0.9,1.6 c0.9,0.5,2,0.2,2.5-0.6c0,0,0.1-0.2,0.4-0.7c0.1-0.1,0.1-0.2,0.2-0.3c0.1-0.1,0.1-0.2,0.2-0.3c0.1-0.2,0.3-0.4,0.5-0.7 c0.2-0.3,0.4-0.6,0.7-0.9c0.2-0.3,0.5-0.6,0.8-0.9c0.3-0.3,0.6-0.6,0.9-0.9s0.7-0.6,1-0.8C37.9,37.2,38.2,36.9,38.6,36.7z"/>
    <path d="M98.4,40.2c0-0.2-0.1-0.4-0.2-0.7c-0.1-0.2-0.1-0.4-0.2-0.7c-0.2-0.5-0.4-1-0.7-1.4c-0.2-0.5-0.6-1-1-1.5 c-0.4-0.5-0.8-1-1.2-1.4c-0.5-0.5-1-0.9-1.5-1.3c-0.5-0.4-1.1-0.7-1.7-1c-0.5-0.3-1.2-0.6-1.7-0.8c-0.6-0.2-1.1-0.4-1.7-0.5 c-0.5-0.1-1.1-0.2-1.6-0.2c-0.5-0.1-0.9,0-1.3,0c-0.4,0-0.8,0-1,0.1C84,30.9,83.7,31,83.7,31c-0.6,0.1-1.1,0.6-1.3,1.2 c-0.3,0.9,0.2,1.9,1.2,2.2l0.3,0.1c0,0,0.2,0.1,0.6,0.2c0.2,0,0.4,0.1,0.7,0.2c0.3,0.1,0.6,0.2,0.9,0.3c0.3,0.1,0.7,0.3,1,0.4 c0.4,0.1,0.7,0.4,1.1,0.5c0.4,0.2,0.8,0.4,1.1,0.6c0.4,0.2,0.7,0.5,1.1,0.8c0.4,0.3,0.7,0.5,1,0.8c0.3,0.3,0.6,0.6,0.9,0.9 s0.6,0.6,0.8,0.9c0.2,0.3,0.5,0.6,0.7,0.9s0.4,0.5,0.5,0.7c0.1,0.1,0.1,0.2,0.2,0.3c0.1,0.1,0.1,0.2,0.2,0.3 c0.2,0.4,0.4,0.7,0.4,0.7c0.3,0.5,0.9,0.9,1.6,0.9c1,0,1.8-0.9,1.8-1.9c0,0,0-0.3-0.1-0.8c0.1-0.1,0.1-0.2,0.1-0.4 S98.4,40.4,98.4,40.2z"/>
  </g>
</svg>