<svg viewBox="0 0 128 128" xmlns="http://www.w3.org/2000/svg">
  <path d="M95.8,42.6c-1.2-1.1-2.6-2-4.2-2.6c0.9-3.1,0-7-2.6-10.6l-0.4-0.6c-2.2-3-5.7-5-9.5-5.5c-0.4-1.5-1.2-3.1-2.3-5 c-2-3.1-5.4-4.9-9-4.9c-0.3,0-0.6,0-0.9,0c-1.1-2-1.2-4.4-1-6.3C66,5.4,65.4,4,64,4c-0.2,0-0.4,0-0.7,0.1c-2,0.5-2.6,2.4-5.8,4.1 c-5.2,3-8.2,6.6-9.8,10c-0.7,0.6-1.3,1.2-1.9,1.9c-1.7,2.2-2.4,5.2-2.1,7.9c-3.8,0.8-7,3-8.8,6.2c-2.4,4.2-2.7,8.9-1.3,12.6 c-2.9,1.1-5.4,3-6.8,5.7c-3.3,6.1-0.7,12.7,4.5,15.9l1.1,11.2c0,2.4,1.8,4.3,4.1,4.3h2.7l0.1,0.8l0.5,3.6l1,6.8l0.4,2.6l1.4,10 l0.5,3.6l0.1,0.6l0.4,2.6l0.3,2c0.6,3.8,3.4,6.7,6.9,7.5c0.1,0,0.1,0,0.2,0s0.2,0,0.4,0.1c0.2,0,0.4,0.1,0.6,0.1h0.1 c0.2,0,0.5,0,0.7,0h0.5h1.4H57h9.8h2.7h2.6h2.7h0.4c4.5,0,8.2-3.3,8.9-7.7L88.7,84h2.7c2.2,0,4.1-1.9,4.1-4.3L97,65.2 c2.5-1.3,4.7-3.7,5.7-7.9C103.5,52.8,101,45.7,95.8,42.6z M41.4,83.9H51l-6.1,6.8l-3-3.3L41.4,83.9z M64.1,91.6l6.7-7.5l7.9,8.8 l-6.7,7.5L64.1,91.6z M70.6,101.9l-7.9,8.8l-7.9-8.8l7.9-8.8L70.6,101.9z M62.7,90.1l-5.6-6.2h11.1L62.7,90.1z M61.4,91.6l-7.9,8.8 l-7.3-8.2l7.4-8.3h0.9L61.4,91.6z M42.4,91l1.2,1.3l-0.9,0.9L42.4,91z M43,95.8l1.8-2l7.3,8.2l-7.1,8L43,95.8z M52.4,122.1 c-3.3-0.2-6.1-2.7-6.5-6l-0.3-2.2l7.1,7.9L52.4,122.1z M54,120.3l-7.9-8.8l7.3-8.2l7.9,8.8L54,120.3z M68.6,122.1h-13l-0.3-0.3 l7.3-8.2l6.7,7.5L68.6,122.1z M70.8,119.7l-6.7-7.5l7.9-8.8l6.7,7.5L70.8,119.7z M82.1,116.1c-0.5,3.4-3.5,6-6.9,6H73l-0.9-1 l7.9-8.8l2.3,2.5L82.1,116.1z M82.6,112.4l-1.3-1.5l1.8-2L82.6,112.4z M83.6,105.4l-3.6,4.1l-6.7-7.5l6.7-7.5l4.5,5L83.6,105.4z M84.8,96.8l-3.5-3.9l4.8-5.4L84.8,96.8z M80,91.4l-6.7-7.5L86.6,84L80,91.4z M94.3,70l-0.8,9.4c0,0.1,0,0.1,0,0.2 c0,1.3-0.9,2.3-2.1,2.3H36.6c-1.1,0-2.1-1-2.1-2.3c0-0.1,0-0.1,0-0.2l-1-10C35,70,35.7,70,37,71.7c1.1,1.4,2,2.6,3.8,2.9 c0.4,0,0.7,0.1,1,0.1c1.9,0,2.7-0.8,3.2-2.1c0.4-1,0.6-2.2,0.8-2.5c0.6-1.4,1.6-1.9,2.5-1.9c1.7,0,3.3,1.7,3.3,3.7l-0.2,1.9 c-0.1,2.1,1.5,4.1,3.7,4.4c0.2,0,0.4,0,0.6,0c2.3,0,4.1-1.7,4.2-3.8l0.3-4c0.1-1.9,1.5-3.4,3.5-3.7c0,0,1.4-0.5,3.7-1l13.9,0.6 c1.1,0.6,1.8,1.3,2.2,2.1c1,1.8,2.7,3.1,4.8,3.4c0.4,0.1,0.8,0.1,1.2,0.1c1.9,0,3.7-0.8,4.9-2L94.3,70z M100.7,56.7 c-0.5,2.6-1.7,4.5-3.5,5.8c0,0-0.3,0.1-0.4,0.3c-0.4,0.2-0.7,0.5-1.1,0.6c-0.7,0.3-1.1,1-1.2,1.7c0,0.1,0,0.1,0,0.2v0.1 c-0.1,2.4-2.2,4.2-4.8,4.2c-0.3,0-0.6,0-0.9-0.1c-1.5-0.2-2.7-1.1-3.4-2.4c-0.7-1.2-1.7-2.2-3.1-2.9c-0.2-0.1-0.5-0.2-0.8-0.2 l-13.9-0.6h-0.1c-0.1,0-0.2,0-0.4,0c-1.9,0.4-3.3,0.8-3.8,1c-2.8,0.5-4.8,2.8-5,5.5l-0.3,4c0,1.1-1,1.9-2.2,1.9c-0.1,0-0.2,0-0.3,0 c-1.1-0.2-2-1.2-1.9-2.3l0.2-1.8c0-0.1,0-0.1,0-0.2c0-1.5-0.6-3-1.7-4.1c-1-1-2.3-1.6-3.6-1.6c-1.9,0-3.5,1.1-4.4,3.1 c-0.1,0.3-0.2,0.6-0.4,1.1c-0.1,0.5-0.3,1-0.5,1.5c-0.2,0.6-0.4,0.9-1.4,0.9c-0.2,0-0.5,0-0.8-0.1c-0.9-0.1-1.3-0.6-2.4-2l-0.1-0.2 c-1.3-1.7-2.3-2.1-3.7-2.6c-0.4-0.1-0.9-0.3-1.4-0.6c-2.7-1.3-4.7-3.5-5.6-6.2c-0.6-1.8-0.9-4.5,0.7-7.6c1.2-2.1,3.2-3.8,5.8-4.8 c0.5-0.2,0.9-0.6,1.1-1.1c0.2-0.5,0.2-1,0-1.5c-1.2-3.2-0.8-7.3,1.2-10.9c1.5-2.7,4.2-4.6,7.5-5.2c1-0.2,1.7-1.1,1.6-2.2 c-0.2-2.3,0.4-4.8,1.7-6.5c0.4-0.5,0.9-1,1.5-1.5c0.2-0.2,0.4-0.4,0.6-0.7c1.8-3.7,4.8-6.7,8.9-9.1c1.7-1,2.8-2,3.6-2.7 c0.8-0.7,1.1-1,1.7-1.2c0,0.2,0.1,0.5,0,0.8c-0.3,2.9,0.1,5.5,1.2,7.5c0.3,0.6,1,1,1.8,1c0,0,0.1,0,0.2,0c0.2,0,0.5,0,0.7,0 c3,0,5.8,1.5,7.4,3.9c0.9,1.4,1.8,3.1,2.1,4.4c0.2,0.8,0.9,1.4,1.7,1.5c3.3,0.4,6.3,2.1,8.2,4.7l0.4,0.6c2.2,3,3.1,6.3,2.3,8.9 c-0.3,1,0.2,2,1.2,2.4c1.3,0.5,2.5,1.3,3.5,2.2c0.1,0.1,0.2,0.2,0.3,0.3C99.5,47.1,101.4,53.4,100.7,56.7z"/>
</svg>