<svg viewBox="0 0 128 128" xmlns="http://www.w3.org/2000/svg">
  <g>
    <path d="M123.5,24.8c0-10.2-8.3-18.5-18.5-18.5c-7.5,0-14,4.5-16.9,11c-6.6-3.5-14.6-5.9-24.2-5.9 c-9.6,0-17.7,2.4-24.2,5.9c-2.9-6.5-9.3-11-16.9-11c-10.2,0-18.5,8.3-18.5,18.5c0,7.8,4.8,14.4,11.6,17.1 C10.5,52.3,7.5,64.2,7.5,76c0,20.4,9.8,44.6,56.5,44.6s56.5-24.3,56.5-44.6c0-11.8-3-23.8-8.5-34.1 C118.7,39.2,123.5,32.6,123.5,24.8z M20.7,34.3c-4.3-1-7.6-4.8-7.6-9.4c0.1-5.4,4.5-9.8,9.8-9.8c4.4,0,8.2,3,9.3,7.1 c-4.1,3.2-7.4,6.7-10,10.1C21.7,32.9,21.2,33.6,20.7,34.3z M23.5,62c0-5.8,4.2-10.5,9.3-10.5c5.1,0,9.3,4.7,9.3,10.5 S38,72.6,32.8,72.6S23.5,67.9,23.5,62z M73,109H55c-10.3,0-18.8-8.7-18.8-19S44.7,71,55,71h1.8c-3.5,0-5.7,3.6-3.8,6.5 c1.9,3,5.3,5.4,11,5.4s9-2.4,11-5.4c1.9-2.9-0.2-6.5-3.8-6.5H73c10.3,0,18.8,8.7,18.8,19S83.3,109,73,109z M95.2,72.6 c-5.2,0-9.3-4.7-9.3-10.5c0-5.8,4.2-10.5,9.3-10.5c5.1,0,9.3,4.7,9.3,10.5S100.4,72.6,95.2,72.6z M107.2,34.2c-0.5-0.7-1-1.3-1.5-2 c-2.6-3.3-5.9-6.8-10-10c1.1-4.1,4.9-7.1,9.3-7.1c5.4,0,9.8,4.4,9.8,9.7C114.8,29.4,111.6,33.3,107.2,34.2z"/>
    <path d="M77.6,85.3l-0.1,0.1c0,0-0.1,0.1-0.2,0.2c-0.2,0.2-0.4,0.4-0.7,0.7c-0.6,0.6-1.5,1.4-2.7,2.1 c-0.6,0.4-1.3,0.8-2,1.1c-0.7,0.4-1.5,0.7-2.4,0.9c-0.8,0.3-1.7,0.4-2.7,0.6c-0.5,0.1-0.9,0.1-1.3,0.2c-0.3,0-1.1,0-1.5,0.1 c-1,0-1.9-0.1-2.8-0.2c-0.9-0.2-1.8-0.3-2.7-0.6c-0.8-0.3-1.6-0.6-2.4-0.9c-0.7-0.3-1.4-0.7-2-1.1c-0.6-0.4-1.1-0.8-1.6-1.1 c-0.4-0.4-0.8-0.7-1.1-1c-0.3-0.2-0.6-0.5-0.7-0.7c-0.2-0.2-0.3-0.3-0.3-0.3c-0.8-0.8-2-1-3-0.4c-1.1,0.7-1.4,2.1-0.7,3.2 c0,0,0.1,0.1,0.2,0.3c0.1,0.2,0.3,0.5,0.7,1c0.4,0.5,0.8,1,1.3,1.6c0.5,0.6,1.2,1.2,1.9,1.8c0.8,0.6,1.6,1.2,2.6,1.7s2,1.1,3.1,1.4 c2.2,0.8,4.8,1.3,7.3,1.3c0.8,0,1.1,0,1.8-0.1c0.7,0,1.3-0.1,1.9-0.2c1.2-0.2,2.4-0.5,3.5-1c1.1-0.4,2.2-0.9,3.1-1.4 c1-0.5,1.8-1.1,2.6-1.7c0.8-0.6,1.4-1.2,1.9-1.8c0.5-0.6,1-1.1,1.3-1.5c0.4-0.4,0.6-0.8,0.7-1.1c0.2-0.2,0.2-0.4,0.2-0.4 c0.6-0.9,0.5-2.2-0.4-3C79.9,84.4,78.5,84.4,77.6,85.3z"/>
  </g>
</svg>