<svg width="128" height="128" xmlns="http://www.w3.org/2000/svg">
  <path d="M114.5,55.3c-0.2-7.9-2.3-15.6-5.9-22.5c-3,1.7-7.2,2.3-11.6,1.5c-7.9-1.5-13.4-7.1-12.4-12.5c0.7-3.6,4.2-6.3,8.7-7.1 C88,10.7,82,7.6,75.5,5.8c-3.9-1.1-7.8-1.5-11.7-1.5c0.1,0.2,0.2,0.3,0.3,0.5c1.6,4-1.6,9-7,11.2c-5.5,2.2-11.2,0.7-12.8-3.3 c-0.5-1.2-0.5-2.5-0.2-3.7c-6.6,3.1-12.5,7.6-17.4,13.1c0.6-0.1,1.2-0.1,1.8-0.1c5.5,0,9.9,3.2,9.9,7.2s-4.4,7.2-9.9,7.2 c-3.9,0-7.2-1.6-8.9-4c-3.7,7.1-5.8,15-6,23c-0.3,8.3,2.7,16,10.8,19.4c0.1,0,0.2,0.1,0.2,0.1c4.1,1.7,8.7,2.2,13.2,2.2 c3.3,0,6.6-0.3,9.7-0.6c1.8-0.2,3.7-0.4,5.5-0.6c-0.3,1.8-0.7,4-1.3,6.7c-1.9,9-5,18.6-3.6,27.8c0,0.3,0.1,0.6,0.2,0.9 c1.6,7.8,8.2,12.7,15.7,12.7c2,0,4.2-0.4,6.3-1.1c4.2-1.6,6.9-4.3,8.4-7.6c4.3-9.3,0-23.7-2.2-32.7c-0.4-1.8-0.9-4.4-1.2-6.8 c2.9,0.4,5.9,0.7,8.8,1c2.1,0.2,4.4,0.3,6.6,0.3c5.2,0,10.4-0.6,14.9-3c0.5-0.3,1-0.6,1.5-0.9c0.1-0.1,0.3-0.2,0.4-0.3 C113,68.9,114.7,62,114.5,55.3z M61.9,26.4c6.9,0,12.6,3.9,12.6,8.8c0,4.8-5.6,8.8-12.6,8.8s-12.6-4-12.6-8.9 C49.3,30.3,55,26.4,61.9,26.4z M19.3,56.1c0-4.4,4.4-8,9.8-8c5.4,0,9.8,3.6,9.8,8c0,4.4-4.4,8-9.8,8C23.7,64.1,19.3,60.5,19.3,56.1z M75.8,114c-1.3,2.9-3.5,4.9-6.7,6c-1.7,0.6-3.5,1-5.2,1c-6.4,0-11.5-4.1-12.7-10.2c0-0.1-0.1-0.2-0.1-0.4c0-0.1-0.1-0.3-0.1-0.4 c-1-7,0.7-14.5,2.5-21.7c0.4-1.7,0.8-3.4,1.2-5.1c1.2-5.4,1.7-9,1.9-11.1c1.8-0.7,4.5-1.5,6.7-1.5h0.2h0.1h0.2c4,0,6.7,0.8,8,1.4 c0.3,2.7,1.1,8.2,1.9,11.3c0.2,0.8,0.4,1.5,0.6,2.4C76.1,93.9,79.3,106.4,75.8,114z M90.5,74.2c-1.9-0.2-3.8-0.3-6.4-0.5 c-2.8-0.2-5.7-0.6-8.5-0.9c-0.3,0-0.6-0.1-1-0.1c-0.2-1.5-0.3-2.5-0.3-2.5s-3.4-2.5-10.8-2.5h-0.2c-0.1,0-0.1,0-0.2,0 c-4.3,0-9.5,2.5-9.5,2.5s0,0.9-0.2,2.7c-0.5,0.1-1,0.1-1.5,0.2c-1.6,0.2-3.2,0.4-4.8,0.5c-3,0.3-6.2,0.6-9.4,0.6 c-4.3,0-7.9-0.5-11-1.6C38.2,64,83,62.3,102.3,72.3C99.2,73.6,95.3,74.2,90.5,74.2z M95.5,61.4c-4.5,0-8.2-3.2-8.2-7.2 c0-3.9,3.6-7.1,8.2-7.1c4.5,0,8.2,3.2,8.2,7.1C103.7,58.1,100,61.4,95.5,61.4z"/>
</svg>