<svg viewBox="0 0 128 128" xmlns="http://www.w3.org/2000/svg">
  <g>
    <path d="M123.3,82.8c0.5-2.5,1-5,0.6-7.5c-0.4-2.2-2.9-6-5.6-5.2c-0.5-0.6-1-1.2-1.3-1.9c-0.7-1.6-1.1-3.4-1-5.1 c0-1.8,0.4-3.6,0.8-5.5c0.3-1.9,0.6-4.1,0.4-6.3c-0.5-4.3-2.6-8.5-6-11.4c-1.7-1.4-3.6-2.5-5.6-3.3c-1-1.4-2.2-2.6-3.9-3.5 c-8-4.3-5-19.2-13.9-19.5c-0.2,0-0.4,0-0.5,0c-7.3,0-6.6,4.6-9.5,12.9C77,28.7,76.9,31,73.7,31c-0.1,0-0.2,0-0.3,0 c-5.4-0.2-1.6-17.4-12.8-17.4h-0.2c-7.5,0.2-7.8,12.2-10.5,17c-1.7,2.4-7.9,1-7.9,16.5c0,3.2-1,4.8-2.4,4.8 c-2.2,0-5.3-3.6-7.5-10.8c0.2-0.5,0.4-1.1,0.6-1.6c1.1-1.6,1.9-3.2,2.3-4.4l3.9-10.9c0.8-2,0.6-4.9-0.4-7.8 c1.3-0.4,2.5-1.1,3.5-2.2c2.6-3.1,1.4-8,1.3-8.2l-0.2-0.6h-0.6c-0.2,0-5.5-0.1-8.1,3c-0.3,0.4-0.6,0.8-0.8,1.2 C32.9,9.1,32,8.5,31,8.1c-1.5-2.4-4.7-4-8.4-4c-3.8,0-7,1.7-8.5,4.1c-0.5,0.2-0.9,0.4-1.3,0.7c-0.1-0.2-0.2-0.3-0.3-0.5 c-2.6-3.1-7.8-3-8.1-3H3.8L3.5,6c-0.1,0.2-1.3,5.1,1.3,8.2c0.6,0.7,1.2,1.2,2,1.6c-1.3,3.1-1.5,6.3-0.4,8.4l3.9,11 c0.4,1,1,2.4,1.9,3.8c0.6,2.6,1.9,4.8,3.9,6.2c0.2,2.4,0.8,4.9,1.7,7.6c1.7,4.9,5.6,12.2,9.3,17.2c0.1,0.4,0.1,0.8,0.2,1.2 c1.8,10.7,5.3,16.8,6.2,21.1c1.2,5.9,0.3,11.4-0.5,15.1c-0.8,3.7-0.1,4.7-3.1,7.1c-0.8,0.7-3.4,1-5.1,3c-4.2,5,2.2,6.1,7,6.1 c1.6,0,3-0.1,3.8-0.3c0.1,0,0.3,0,0.4,0c2.7,0.1,5.6,0.3,8.1,0.3c3.5,0,6.1-0.4,6.2-2.1c0.1-2.5-1.4-8.9-1.4-11.4 c-0.1-5.7,0.5-12.9,3.3-16.8c2.9-4.1,4.3-8.3,4.9-10.3c0-0.1,0.1-0.1,0.1-0.2c0.1-0.3,0.3-0.7,0.4-1c4.4,1,7.9,1.5,10.9,1.5 c4.9,0,8.5-1.2,12.3-2.9c3.8,6.5,10.2,12.9,8.8,18.8c-1.6,6.2-5.2,11.4-10.4,15.3c-1,0.8-1.9,1.8-2.6,2.8c-0.8,1-2.3,3.7-2.1,4.9 c0.2,0.9,1.9,1.2,4,1.3c0.3,0,0.7,0.1,1.1,0.1c0.2,0,0.3,0,0.4,0c0.2,0,0.3,0,0.5,0c0.7,0,1.5,0,2.2,0c0.6,0.1,1.3,0.2,2,0.2 c0.9,0,1.7-0.1,2.4-0.3c0.3,0,0.5,0,0.8,0c0.3,0.1,0.8,0.1,1.3,0.2c0.7,0.2,1.5,0.3,2.3,0.3c0.4,0,0.8,0,1.2-0.1 c0.7,0,1.4,0,2.1,0.1c0.6,0.1,1.2,0.2,1.9,0.2c0.9,0,1.7-0.1,2.4-0.3c2.5-0.3,5-1,5.8-3.4c0.8-2.4,0.2-6,0.4-8.5 c0.5-5,1.1-10.1,3-16.2c1.9-6,4.7-12.6,2.8-20.5c-3.3-13.5,2.4-12-1.8-23.5c-0.5-1.3-0.6-4.5-1.4-8.1c2.6,1.9,4.5,4.9,5.1,8.2 c0.3,1.7,0.3,3.4,0.1,5.3c-0.2,1.9-0.4,3.9-0.3,6c0.1,2.1,0.7,4.2,1.8,6.1c0.4,0.7,0.9,1.4,1.5,2c-1.7,2-1,5.6,0.3,7.8 c2.2,3.9,0.2,6,0.2,7.8c0.7-0.5,2.3-3.3,2.6-4.1c-0.8,2.4-0.6,5.2,0.6,7.5c0.2-1.6,0.4-3.3,0.6-4.9c0.3,2,1.4,3.8,2.9,5 C122.5,88,122.8,85.3,123.3,82.8z M35.7,9.5c1.6-1.9,4.9-2.3,6.2-2.4c0.2,1.3,0.5,4.3-1.1,6.2c-0.7,0.9-1.8,1.4-2.9,1.8 c-0.7-1.5-1.7-3-3-4.2C35.2,10.3,35.4,9.9,35.7,9.5z M6.1,13.2C4.5,11.3,4.7,8.3,5,7c1.4,0.1,4.6,0.5,6.2,2.4 c0.1,0.1,0.2,0.2,0.2,0.3c-1.6,1.3-2.9,2.9-3.9,4.6C7,14.1,6.5,13.7,6.1,13.2z M14.6,38.6c-0.3-0.2-0.4-0.7-0.2-1 c0.2-0.3,0.7-0.4,1-0.2c1.8,1.3,4.1,2,6.3,2.2c0-0.1-0.1-0.2-0.1-0.3v-8.7c-0.6,0-1.2-0.1-1.7-0.2L17,29.7c-1.3,0-2.4-1.1-2.8-2.3 c-1.3,2.3-2.1,4.9-2.3,7.5c0-0.1-0.1-0.2-0.1-0.3L8,23.7v-0.1v-0.1c-0.9-1.5-0.8-3.9,0-6.2c1.2-3.4,3.7-6.3,6.7-7.6l0.5-0.2L15.4,9 c1.2-2,4-3.4,7.1-3.4c3,0,5.8,1.3,7.1,3.3l0.3,0.4l0.5,0.2c6.3,2.7,8.3,10.7,7,14.1l-3.9,10.9c-0.1,0.3-0.2,0.6-0.4,0.9 c-0.1-2.8-0.9-5.6-2.2-8c-0.4,1.2-1.4,2.3-2.7,2.3L25,30.4c-0.6,0.1-1.1,0.2-1.7,0.2v8.7c0,0.1,0,0.2-0.1,0.3 c2.2-0.1,4.5-0.8,6.3-2c0.3-0.2,0.8-0.1,1,0.2s0.1,0.8-0.2,1c-2.2,1.5-5,2.3-7.7,2.3c-0.1,0-0.1,0-0.2,0 C19.6,41.1,16.9,40.2,14.6,38.6z M34.7,118.1c-0.1,0-0.1,0.1-0.2,0.2c-0.3,0.1-0.6,0.2-0.8,0.3c-0.6-0.3-1.4-0.5-2.3-0.5 c-2.1,0-3.8,1.1-3.8,2.4c0,0.2,0.1,0.4,0.2,0.7c-1.3-0.3-2-0.6-2.2-0.8c0-0.1,0.1-0.6,0.9-1.4c0.8-1,1.9-1.4,2.9-1.8 c0.7-0.3,1.3-0.5,1.8-0.9c2.8-2.2,3.1-3.8,3.5-6.1c0.1-0.6,0.2-1.3,0.4-2.2c0.9-3.8,1.8-9.7,0.5-16c-0.4-1.7-1.1-3.6-1.9-5.8 c-1.2-3.3-2.7-7.4-3.8-12.7c1,1.1,2.3,2,3.7,2.8c1.4,5.4,4.3,11.1,6.4,14c2.1,3,1.6,5.8,1.2,8.4C40.5,103.7,37.7,115.7,34.7,118.1z M91.8,110.7c0,0.5-0.1,1-0.2,1.7c-0.1,1.1-0.2,2.5-0.4,3.8c-0.1,0.1-0.1,0.1-0.2,0.2c-0.9,0.9-3.2,1.4-3.8,2.5 c0,0.1-0.1,0.1-0.1,0.2c-0.6-0.2-1.3-0.2-2.1-0.2s-1.6,0.1-2.3,0.3c-0.8-0.3-1.8-0.5-2.9-0.5c-0.5,0-1,0.1-1.5,0.1 c0.1-0.1,0.1-0.2,0.2-0.2c0.8-1.1,1.5-1.8,2.2-2.4c5.7-4.2,9.5-9.9,11.1-16.5c1.3-5.3-2.3-10.5-5.8-15.6c-1-1.5-2.1-3.1-3-4.6 c1.6-0.8,3.2-1.6,5.1-2.4c0.7,3,2.1,7.4,3.9,9.5c3,3.4,5.2,5.8,5.8,9c-0.7,1.7-1.5,3.4-2.3,5C93.8,104.1,92.1,107.5,91.8,110.7z M96.8,102.6c-0.8,3.6-1.6,7-3.1,10c0.1-0.6,0.1-1.1,0.2-1.6C94.2,108.4,95.4,105.5,96.8,102.6z M108,51.9 c1.7,5.8,1.3,7.9,0.8,10.5c-0.5,2.9-1.1,6.1,0.6,13.2c1.5,6.3-0.2,11.7-2,16.9c-0.3,0.8-0.5,1.7-0.8,2.5c-2,6.4-2.6,12-3.1,16.5 c-0.1,1.1-0.1,2.3,0,3.5c0,1.6,0.1,3.5-0.3,4.5c-0.1,0.3-0.3,0.9-1.5,1.4c-0.5-1.1-2.4-1.9-4.7-1.9c-0.8,0-1.6,0.1-2.3,0.3 c-0.5-0.2-1.1-0.3-1.8-0.4c0.1-0.6,0.2-1.2,0.3-1.9c3.3-3.8,4.4-8.5,5.5-13.4c0.2-1,0.5-1.9,0.7-2.9c1.7-6.8-1.2-10.2-5-14.5 c-0.3-0.3-0.6-0.7-0.9-1c-1.2-1.4-2.3-4.3-3-7.1c0-0.1,0.1-0.3,0-0.5c-0.6-3.1-0.5-6.4,0.2-9.4c0.1-0.6-0.2-1.1-0.8-1.3 c-0.6-0.1-1.1,0.2-1.3,0.8c-0.5,2.3-0.7,4.7-0.5,7l-0.9,0.4c-1.2,0.5-2.3,1.1-3.4,1.6c-5.3,2.6-9.2,4.4-15.1,4.4 c-2.9,0-6.2-0.4-10.1-1.4c1.5-4.5,2.4-9,2.6-13.6c0-0.6-0.4-1.1-1-1.1c-0.6,0-1.1,0.4-1.1,1c-0.2,4.6-1,8.9-2.5,13.2l-0.7,1.6 c-0.1,0.2-0.2,0.5-0.3,0.9c-0.5,1.6-1.7,6-4.8,10.3c-3.2,4.5-3.8,12.3-3.7,18.1c0,1.3,0.3,3.3,0.7,5.4c0.3,1.9,0.7,4.3,0.7,5.5 h-0.1v-0.1c0-1.4-2.2-2.5-4.8-2.5c-0.8,0-1.6,0.1-2.3,0.3c-0.8-0.3-1.8-0.5-2.9-0.5c-0.2,0-0.3,0-0.4,0c-0.2-0.1-0.4-0.1-0.5-0.2 c3.3-4.8,5.5-16.4,6-19.4v-0.3c0.4-2.7,0.9-6.1-1.6-9.6c-2-2.8-4.7-8.2-6-13.4l-0.2-0.8l-0.8-0.4c-1.3-0.8-2.4-1.6-3.2-2.5 c-4.2-4.5-9.5-14-11.6-19.9c-0.7-2.1-1.2-3.9-1.5-5.7c1.3,0.5,2.6,0.7,4.2,0.7c3.5,0,6.3-1.3,8.2-3.5c2.4,6.7,5.8,10.5,8.9,10.5 c1,0,2-0.4,2.8-1.2c1.2-1.2,1.8-3.1,1.7-5.7c0-10.5,2.7-12.1,4.8-13.4c0.9-0.5,1.9-1.1,2.5-2.2c1-1.7,1.6-3.9,2.3-6.2 c1.6-5.6,3-9.6,6.5-9.7h0.2c4.6,0,5.8,3.7,7.1,9.3c0.9,3.9,1.8,7.9,5.6,8.1c0.1,0,0.2,0,0.4,0c4.2,0,5.2-3.1,5.8-5 c0.1-0.3,0.2-0.6,0.3-0.9c0.7-1.9,1.1-3.6,1.6-5.1c1.5-5.3,2-6.4,5.9-6.4c0.2,0,0.3,0,0.5,0c3,0.1,4,2.4,5.6,7.6 c1.3,4.3,2.9,9.2,7.3,11.6c5.1,2.7,6,9.8,6.6,14C107.6,50,107.7,51.1,108,51.9z"/>
    <path d="M38.6,65.9c-0.5-0.2-1.1,0.2-1.2,0.7c-1.2,4.1-1.2,8.3-0.1,12.4c0.1,0.4,0.5,0.7,1,0.7c0.1,0,0.2,0,0.3,0 c0.5-0.1,0.8-0.7,0.7-1.2c-1-3.7-1-7.6,0.1-11.3C39.5,66.6,39.2,66.1,38.6,65.9z"/>
    <path d="M25,18l4,5.1L28,16c-0.2-1.7-1.7-2.9-3.3-2.9h-4.4c-1.6,0-3,1.3-3.3,2.9l-0.9,6.8l3.8-4.9 C21.1,16.5,23.9,16.5,25,18z"/>
    <path d="M19,26.4c-1.7-0.9-3.4-1.2-3.7-0.6c-0.3,0.6,0.8,1.8,2.6,2.8c1.7,0.9,3.4,1.2,3.7,0.6 C21.9,28.6,20.8,27.4,19,26.4z"/>
    <path d="M23.6,29.2c0.3,0.6,2,0.3,3.7-0.6c1.7-0.9,2.9-2.2,2.6-2.8c-0.3-0.6-2-0.3-3.7,0.6 C24.4,27.4,23.3,28.6,23.6,29.2z"/>
    <path d="M14.3,19.3l-6,2.2c0.1,0.3,0.2,0.7,0.3,1c1,2.2,3.1,3.3,4.7,2.6c1.7-0.7,2.2-3.1,1.3-5.2 C14.5,19.7,14.4,19.5,14.3,19.3z"/>
    <path d="M31.6,25.1c1.7,0.7,3.8-0.4,4.7-2.5c0.2-0.4,0.3-0.7,0.3-1.1l-6-2.2c-0.1,0.2-0.2,0.4-0.3,0.6 C29.4,22,30,24.3,31.6,25.1z"/>
  </g>
</svg>