<svg width="128" height="128" xmlns="http://www.w3.org/2000/svg">
  <g>
    <path d="M113.5,79.2c0-3.2-1-6.2-2.7-8.7c1.5-11.7,6-66.3-46.8-66.5h0c0,0,0,0,0,0C10.3,4.3,15.9,64.2,16.7,71.2 c-1.4,2.3-2.2,5.1-2.2,8c0,5.5,2.8,10.3,7,12.9C27.1,106.7,38.9,124,64,124c25.3,0,36.9-17.2,42.2-31.7 C110.5,89.7,113.5,84.8,113.5,79.2z M17.5,79.2c0-0.5,0-1,0.1-1.5c0.4,2.3,1,5.2,2,8.4C18.3,84.2,17.5,81.8,17.5,79.2z M77.2,102.8 c-2.7,2.3-8.2,5.3-13.1,5.3s-10.5-3-13.2-5.3c-0.7-0.6-0.3-1.8,0.7-1.8h25C77.4,101,77.9,102.2,77.2,102.8z M97.3,90.6 c-2.4,4.3-5.6,8-9.8,8.9c-2.9,0.6-4.8-0.6-5.9-1.9c-1.6-1.9-3.6-3.4-5.9-4.3c-2-0.8-4.5-1.5-7.4-2c0.9-0.7,1.4-1.6,1.6-2 c0.4-0.9-0.1-1.8-0.9-2.1c-0.1-0.1-0.3-0.1-0.4-0.1h-9.2c-0.1,0-0.3,0-0.4,0.1c-0.8,0.3-1.3,1.2-0.9,2.1c0.2,0.4,0.7,1.2,1.5,1.9 c-3.1,0.4-5.9,1.2-8,2.1c-2.3,0.9-4.3,2.5-5.9,4.3c-1.1,1.2-3,2.5-5.9,1.9c-5.4-1.1-8.8-6.5-10.9-12.2c-2.8-7.5,0-34.8,0.9-37.4 c1.3-3.6,5.1-5.7,8.8-5c5.8,1,15,2.3,25.2,2.3H64h0.1c10.2,0,19.4-1.3,25.2-2.3c3.8-0.7,7.5,1.4,8.8,5 C99.2,52.8,101.5,82.9,97.3,90.6z M110.1,76.3c0.2,0.9,0.4,1.9,0.4,3c0,2.9-1,5.6-2.6,7.6C109.1,82.5,109.8,78.8,110.1,76.3z"/>
    <path d="M51.8,64.1c-0.1-0.1-0.2-0.2-0.3-0.4c-0.1-0.1-0.3-0.3-0.4-0.4c-0.2-0.1-0.3-0.3-0.5-0.5c-0.2-0.2-0.4-0.3-0.6-0.5 c-0.2-0.2-0.4-0.3-0.7-0.5c-0.2-0.1-0.5-0.3-0.8-0.4c-0.3-0.1-0.6-0.3-0.9-0.4c-0.3-0.1-0.6-0.2-0.9-0.3c-0.6-0.2-1.3-0.4-2-0.5 c-0.7-0.1-1.4-0.1-2.1-0.2c-0.7,0-1.4,0-2.1,0.2c-0.7,0.1-1.4,0.3-2,0.5c-0.3,0.1-0.6,0.2-0.9,0.3c-0.3,0.1-0.6,0.2-0.9,0.4 c-0.3,0.1-0.5,0.3-0.8,0.4c-0.2,0.2-0.5,0.3-0.7,0.5c-0.2,0.2-0.4,0.3-0.6,0.5c-0.2,0.2-0.4,0.3-0.6,0.5c-0.2,0.2-0.3,0.3-0.5,0.4 c-0.1,0.1-0.2,0.2-0.3,0.3c-0.3,0.4-0.5,0.7-0.5,0.7c-0.4,0.6-0.5,1.3-0.2,2c0.5,1.1,1.7,1.6,2.8,1.1c0,0,0.3-0.1,0.8-0.4 c0.1-0.1,0.2-0.1,0.4-0.2c0.1,0,0.2-0.1,0.4-0.1s0.2-0.1,0.4-0.1c0.1,0,0.3-0.1,0.5-0.2c0.2,0,0.3-0.1,0.5-0.2 c0.2,0,0.4-0.1,0.6-0.1c0.1,0,0.2,0,0.3-0.1l0.3-0.1c0.2,0,0.4-0.1,0.6-0.1c0.4,0,0.8-0.1,1.3-0.2c0.5-0.1,0.9,0,1.3-0.1 c0.5,0,0.9,0,1.4,0.1c0.4,0,0.9,0.1,1.3,0.2c0.2,0,0.4,0.1,0.6,0.1l0.3,0.1c0.1,0,0.2,0,0.3,0.1c0.2,0.1,0.4,0.1,0.6,0.1 c0.2,0,0.3,0.1,0.5,0.2c0.3,0.1,0.6,0.2,0.9,0.3c0.1,0.1,0.3,0.1,0.4,0.1c0.1,0,0.2,0.1,0.3,0.1c0.4,0.2,0.6,0.3,0.6,0.3l0.4,0.1 c0.6,0.2,1.3,0.1,1.9-0.3c0.9-0.7,1.1-1.9,0.5-2.8C52.4,64.8,52.2,64.5,51.8,64.1z"/>
    <ellipse cx="42.6" cy="75.3" rx="6.4" ry="6.6"/>
    <path d="M94.7,64.1c-0.1-0.1-0.2-0.2-0.3-0.3c-0.1-0.1-0.3-0.3-0.5-0.4c-0.2-0.2-0.4-0.3-0.6-0.5c-0.2-0.2-0.4-0.3-0.6-0.5 c-0.2-0.2-0.4-0.3-0.7-0.5c-0.2-0.1-0.5-0.3-0.8-0.4c-0.3-0.1-0.6-0.3-0.9-0.4c-0.3-0.1-0.6-0.2-0.9-0.3c-0.6-0.2-1.3-0.4-2-0.5 c-0.7-0.1-1.4-0.1-2.1-0.2c-0.7,0-1.4,0-2.1,0.2c-0.7,0.1-1.4,0.3-2,0.5c-0.3,0.1-0.6,0.2-0.9,0.3s-0.6,0.2-0.9,0.4 c-0.3,0.2-0.5,0.3-0.8,0.4c-0.2,0.2-0.5,0.3-0.7,0.5c-0.2,0.2-0.4,0.3-0.6,0.5c-0.2,0.2-0.4,0.3-0.5,0.5c-0.2,0.2-0.3,0.3-0.4,0.4 s-0.2,0.3-0.3,0.4c-0.4,0.5-0.6,0.8-0.6,0.8c-0.4,0.5-0.5,1.2-0.3,1.9c0.4,1.1,1.5,1.6,2.6,1.3l0.4-0.1c0,0,0.2-0.1,0.6-0.3 c0.1,0,0.2-0.1,0.3-0.1c0.1,0,0.2-0.1,0.4-0.1c0.3-0.1,0.6-0.2,0.9-0.3c0.2,0,0.3-0.1,0.5-0.2c0.2,0,0.4-0.1,0.6-0.1 c0.1,0,0.2-0.1,0.3-0.1l0.3-0.1c0.2,0,0.4-0.1,0.6-0.1c0.4,0,0.8-0.1,1.3-0.2c0.5-0.1,0.9-0.1,1.3-0.1c0.5,0,0.9,0,1.4,0.1 c0.4,0,0.9,0.1,1.3,0.2c0.2,0,0.4,0.1,0.6,0.1l0.3,0.1c0.1,0,0.2,0,0.3,0.1c0.2,0,0.4,0.1,0.6,0.1c0.2,0.1,0.3,0.1,0.5,0.2 c0.2,0,0.3,0.1,0.5,0.1c0.1,0,0.3,0.1,0.4,0.1c0.1,0,0.2,0.1,0.3,0.1c0.1,0.1,0.3,0.1,0.4,0.2c0.5,0.2,0.8,0.4,0.8,0.4 c0.6,0.2,1.4,0.2,2-0.2c1-0.6,1.2-2,0.6-2.9C95.2,64.7,95,64.5,94.7,64.1z"/>
    <ellipse cx="85.4" cy="75.3" rx="6.4" ry="6.6"/>
  </g>
</svg>