<svg width="128" height="128" xmlns="http://www.w3.org/2000/svg">
  <path d="M120.5,56.4c-1.2-1.4-2.6-3-4-4.8c-1-1.3-2.2-4.3-3.4-7.4c-0.6-1.7-2.2-2.6-3.7-2.6c-1.3,0-2.7,0.6-3.4,1.9c0,0,0,0,0,0 l-2.9-8.4c-0.1-0.3-0.2-0.5-0.3-0.8l-8.5-13.6c-1.3-2.7-4.2-4.3-6.8-4.3c-1.6,0-3,0.6-3.8,1.9l-0.4-0.6c-1.2-1.9-3.9-3.5-6.5-3.5 c-1,0-2,0.3-2.9,0.9c-2.2,1.5-2.4,3.6-1.9,5.8c-0.2,0-0.4-0.1-0.6-0.1c-0.2,0-0.4,0-0.6,0.1c-3.5,0.7-5.2,5-4,8.7l0.7,1.7 c-0.9,0.1-1.8,0.5-2.3,1.1c-0.8,0.9-1.1,1.7-1.1,2.6c-0.1-0.8-0.4-1.7-1.1-2.6c-0.5-0.6-1.4-1-2.3-1.1l0.7-1.7c1.1-3.7-0.5-8-4-8.7 c-0.2,0-0.4,0-0.6,0c-0.2,0-0.4,0-0.6,0.1c0.5-2.2,0.3-4.2-1.9-5.8c-0.8-0.6-1.8-0.9-2.9-0.9c-2.5,0-5.3,1.6-6.4,3.5l-0.4,0.6 c-0.9-1.3-2.3-1.9-3.8-1.9c-2.5,0-5.5,1.6-6.8,4.3l-8.5,13.6c-0.1,0.2-0.3,0.5-0.3,0.8L22,43.5c0,0,0,0,0,0 c-0.8-1.3-2.1-1.9-3.4-1.9c-1.5,0-3.1,0.9-3.7,2.6c-1.2,3.1-2.4,6.1-3.4,7.4c-1.4,1.8-2.8,3.4-4,4.8c-2.7,3-3.9,6.9-3.4,10.9 l1.4,16.1c0.6,5.2,9.6,16,9.6,16c5.7,5.4,3.8,14.2,3.8,14.2h36.7c0,0,6.5-10.4,8-20.6c0.3-1.8,0.4-3.6,0.4-5.4 c0,1.8,0.2,3.6,0.4,5.4c1.4,10.2,8,20.6,8,20.6h36.7c0,0-1.9-8.8,3.8-14.2c0,0,9-10.8,9.6-16l1.4-16.1 C124.4,63.4,123.1,59.4,120.5,56.4z M85.1,19.7c0.5-1,1.5-1.2,2.3-1.2c1.7,0,4,1.1,5,3.2c0,0.1,0.1,0.1,0.1,0.2l8.5,13.6 c0.1,0.1,0.1,0.3,0.2,0.4l3.7,10.6c0.2-0.7,0.5-1.4,0.8-2.2c0.1-0.1,0.1-0.3,0.2-0.4c-0.1,0.1-0.1,0.3-0.2,0.4 c-0.9,2.3-1.7,4.3-1.7,5.4c-0.1,2.9,0.8,4.6,0.8,4.6s-1.6-1.4-6.7-1.4c-1.1,0-2.5,0.1-4,0.3c0.1,0,0.3,0,0.4,0L92,40 c-0.1-0.5-0.2-1-0.4-1.4l-4.7-10.6c0-0.1-0.1-0.2-0.2-0.3C84.4,24.4,83.9,21.9,85.1,19.7z M66.6,33.7c0.2-0.3,0.7-0.5,1.3-0.5 c0.1,0,0.2,0,0.3,0l3.4,8.7c0.1,0.4,0.2,0.7,0.3,1.1l1.6,15.4c-1.8,0.8-3.2,1.6-4.3,2.5l-0.4-11.9c0-0.3,0-0.6-0.1-0.9l-1.7-9 c0,0,0-0.1,0-0.1c-0.1-0.5-0.3-1-0.4-1.5C65.9,35.6,65.7,34.8,66.6,33.7z M60.1,33.2c0.5,0,1,0.2,1.3,0.5c1,1.1,0.8,2,0.2,3.9 c-0.1,0.5-0.3,1-0.4,1.5c0,0,0,0.1,0,0.1l-1.7,9c-0.1,0.3-0.1,0.6-0.1,0.9L58.9,61c-1.1-0.9-2.5-1.7-4.3-2.5l1.6-15.4 c0-0.4,0.1-0.7,0.3-1.1l3.4-8.7C59.9,33.2,60,33.2,60.1,33.2z M22.3,44.2c0.3,0.8,0.6,1.5,0.8,2.2l3.7-10.6c0.1-0.1,0.1-0.3,0.2-0.4 l8.5-13.6c0-0.1,0.1-0.1,0.1-0.2c1-2.1,3.3-3.2,5-3.2c0.8,0,1.8,0.2,2.3,1.2c1.2,2.2,0.7,4.8-1.5,8c-0.1,0.1-0.1,0.2-0.2,0.3 l-4.7,10.6C36.2,39,36.1,39.5,36,40l-2.5,13.1c0.1,0,0.2,0,0.4,0c-1.5-0.2-2.8-0.3-3.9-0.3c-5.1,0-6.7,1.4-6.7,1.4s0.9-1.7,0.8-4.6 C24,48.5,23.2,46.5,22.3,44.2c-0.1-0.1-0.1-0.3-0.2-0.4C22.2,43.9,22.3,44.1,22.3,44.2z M61.5,92.8c-1.1,7.9-5.5,16.1-7.1,18.8H21.2 c0.2-3.3-0.2-9.3-4.6-13.6c-3.3-4-8.6-11.5-9-14.8L6.2,67.1c0,0,0,0,0-0.1c-0.4-3.3,0.7-6.7,2.9-9.2c1.5-1.6,2.9-3.3,4.1-4.9 c1-1.3,2.2-3.9,3.7-8c0.4-1.1,1.4-1.2,1.7-1.2c0.3,0,1.3,0.1,1.8,1.2l0.1,0.3c0.7,1.7,1.5,3.8,1.5,4.5c0.1,1.5-0.2,2.6-0.4,3.2 c-0.1,0.2-0.2,0.3-0.3,0.6c0,0.1,0,0.1,0,0.2c-0.1,0.2-0.1,0.4-0.1,0.6c-0.1,0.7-0.4,1.4-0.6,2.2c-0.9,2.9-2,6.5,0.9,9.6 c1.1,1.2,2.9,1.1,4.8,1.2c9.4,0.6,15.6,5.5,17.5,16.6c0.1,0.5,0.2,0.3,0.1-0.3c-2-12.2-6.4-14.8-12.8-17.3c-1.5-0.6-3.2-0.7-4.7-0.8 c-1.5-0.1-2.9-0.2-3.4-0.8c-2.1-2.2-1.3-4.8-0.4-7.6c0.1-0.2,0.1-0.4,0.2-0.7c0.2,0,0.3,0.1,0.5,0.1c0.5,0,1-0.2,1.4-0.6 c0.3-0.2,1.7-0.9,5.3-0.9c1.8,0,4,0.2,6.3,0.6c0.1-0.7,0.3-1.4,0.5-2.1c-0.5-0.1-1-0.2-1.5-0.2c0.1,0,0.2,0,0.3,0l2.4-13 c0.1-0.3,0.2-0.6,0.3-1L43,28.7c1.7-2.5,2.9-5.3,2.4-8l1.1-1.9c0.8-1.4,3-2.5,4.7-2.5c0.7,0,1.2,0.2,1.7,0.5 c1.8,1.2,1.5,2.7,0.4,6.4l-0.1,0.4l-2.9,5.1c0,0.1-0.1,0.1-0.1,0.2l-5.1,11.9c-0.2,0.4-0.3,0.8-0.4,1.2c0,0.1,0,0.2,0,0.2l-1.5,12.7 c-0.8-0.2-1.6-0.4-2.4-0.6c-0.2,0.7-0.4,1.4-0.5,2c2.2,0.5,4.2,1,6,1.5c0.1-0.7,0.2-1.4,0.3-2.1c-0.5-0.1-0.9-0.3-1.4-0.4l1.5-13 c0.1-0.3,0.2-0.6,0.3-0.9l5.1-12l3-5.3c0.1-0.4,0.2-0.8,0.4-1.2c0.5-0.2,0.9-0.3,1.2-0.3c0.1,0,0.2,0,0.2,0c1.1,0.2,1.8,1,2.1,1.6 c0.7,1.2,0.9,3,0.5,4.5l-4.8,12.3c-0.2,0.5-0.3,1.1-0.4,1.6l-1.5,14.9c-0.7-0.3-1.4-0.5-2.2-0.8c-0.1,0.7-0.2,1.4-0.3,2.1 c6.6,2.2,9.2,4.3,9.6,7.2c0.2,1.3,0.4,2.7,0.6,4C61.4,77.7,62.5,85.3,61.5,92.8z M64,85.3c-0.1-6.5-1.3-12.9-2.1-19.3 c-0.1-1.1-0.5-2-1-2.9l0.5-13.9c0-0.2,0-0.4,0.1-0.5l1.7-9.1c0.3-1.4,0.9-2.7,0.9-3.9c0.1,1.3,0.6,2.5,0.9,3.9l1.7,9.1 c0,0.2,0.1,0.4,0.1,0.5l0.5,13.9c-0.6,0.9-0.9,1.9-1,2.9C65.3,72.4,64.1,78.8,64,85.3z M121.8,67C121.8,67.1,121.8,67.1,121.8,67 l-1.4,16.2c-0.4,3.3-5.7,10.8-9,14.8c-4.4,4.3-4.8,10.2-4.6,13.6H73.5c-1.6-2.8-6-10.9-7.1-18.8c-1-7.4,0.1-15.1,1.2-22.5 c0.2-1.3,0.4-2.7,0.6-4c0.4-3,3-5.1,9.6-7.2c-0.1-0.7-0.3-1.4-0.3-2.1c-0.8,0.2-1.5,0.5-2.1,0.7l-1.5-14.9c-0.1-0.5-0.2-1.1-0.4-1.6 l-4.8-12.3c-0.5-1.5-0.3-3.2,0.5-4.5c0.4-0.6,1-1.4,2.1-1.6c0.1,0,0.1,0,0.2,0v0c0.3,0,0.8,0.1,1.2,0.3c0.1,0.4,0.2,0.8,0.4,1.2 l3,5.3l5.1,12c0.1,0.3,0.2,0.6,0.3,0.9l1.5,13c-0.5,0.1-1,0.3-1.4,0.4c0,0.7,0.1,1.4,0.3,2.1c1.8-0.5,3.8-1,6-1.5 c-0.1-0.7-0.3-1.4-0.5-2c-0.8,0.2-1.6,0.4-2.4,0.6l-1.5-12.7c0-0.1,0-0.2,0-0.2c-0.1-0.4-0.2-0.8-0.4-1.2l-5.1-11.9 c0-0.1-0.1-0.1-0.1-0.2l-2.9-5.1l-0.1-0.3c-1.1-3.7-1.4-5.2,0.4-6.4c0.4-0.3,1-0.5,1.7-0.5c1.8,0,3.9,1.1,4.7,2.5l1.1,1.9 c-0.6,2.8,0.6,5.5,2.4,8l4.7,10.6c0.1,0.3,0.2,0.6,0.3,1l2.4,13c0.1,0,0.2,0,0.3,0c-0.5,0.1-1,0.1-1.5,0.2c0.2,0.7,0.4,1.4,0.5,2.1 c2.3-0.4,4.4-0.6,6.3-0.6c3.6,0,5,0.8,5.3,0.9c0.4,0.4,0.9,0.6,1.4,0.6c0.2,0,0.3,0,0.5-0.1c0.1,0.2,0.1,0.4,0.2,0.7 c0.8,2.8,1.6,5.4-0.4,7.6c-0.5,0.6-1.9,0.7-3.4,0.8c-1.5,0.1-3.1,0.2-4.7,0.8c-6.4,2.6-10.8,5.2-12.8,17.3c-0.1,0.6,0,0.8,0.1,0.3 c1.8-11.1,8-16,17.4-16.6c1.9-0.1,3.7,0,4.8-1.2c2.9-3.1,1.8-6.7,0.9-9.6c-0.2-0.8-0.5-1.5-0.6-2.2c0-0.2,0-0.4-0.1-0.6 c0-0.1,0-0.1,0-0.2c0-0.2-0.1-0.4-0.3-0.6c-0.2-0.5-0.4-1.6-0.4-3.2c0-0.7,0.8-2.8,1.5-4.5l0.1-0.3c0.4-1.1,1.5-1.2,1.8-1.2 c0.3,0,1.3,0.1,1.7,1.2c1.5,4.1,2.7,6.7,3.7,8c1.2,1.6,2.6,3.3,4.1,4.9C121.2,60.3,122.2,63.7,121.8,67z"/>
</svg>