<svg width="128" height="128" xmlns="http://www.w3.org/2000/svg">
  <g>
    <path d="M56.8,62.4c0-0.2,0-0.4-0.2-0.7c-0.1-0.4-0.3-0.9-0.5-1.3c-0.2-0.5-0.4-1-0.8-1.6c-0.7-1.2-1.7-2.6-3.4-3.8 c-0.8-0.6-1.8-1.2-3-1.7c-0.6-0.2-1.2-0.4-1.9-0.5c-0.3,0-0.7-0.1-1-0.1h-0.5h-0.3h-0.1H45h-0.3h-0.5c0,0-0.3,0-0.5,0.1l-0.6,0.1 c-0.5,0.1-0.7,0.2-1,0.2c-0.3,0.1-0.6,0.2-0.9,0.3c-1.2,0.4-2.2,1-3,1.7c-1.7,1.3-2.7,2.7-3.4,3.8c-0.7,1.2-1,2.2-1.2,2.9 c-0.2,0.7-0.3,1.1-0.3,1.1c-0.2,1.3,0.3,2.6,1.5,3.5c1.7,1.3,4.2,1,5.6-0.6l0.2-0.3c0,0,0.2-0.2,0.5-0.6c0.3-0.4,0.8-0.9,1.3-1.4 c0.3-0.2,0.6-0.5,0.8-0.7c0.3-0.2,0.6-0.4,0.8-0.5c0.2-0.2,0.5-0.2,0.7-0.2h0.1h0c0,0,0.1,0,0,0h0.3h0.1h0.1c0,0,0.1,0,0.1,0 c0.2,0,0.4,0.1,0.7,0.2c0.2,0.1,0.6,0.3,0.8,0.5c0.3,0.2,0.6,0.5,0.8,0.7c0.3,0.3,0.5,0.5,0.7,0.8c0.2,0.2,0.4,0.4,0.5,0.6 c0.2,0.2,0.3,0.4,0.4,0.5c0.1,0.1,0.2,0.2,0.2,0.2c0.9,1.1,2.4,1.8,4,1.5c2.2-0.3,3.7-2.2,3.3-4.3C56.8,62.6,56.8,62.5,56.8,62.4z"/>
    <path d="M94.3,62.4c0-0.2,0-0.4-0.2-0.7c-0.1-0.4-0.3-0.9-0.5-1.3c-0.2-0.5-0.4-1-0.8-1.6c-0.7-1.2-1.7-2.6-3.4-3.8 c-0.8-0.6-1.8-1.2-3-1.7c-0.6-0.2-1.2-0.4-1.9-0.5c-0.3,0-0.7-0.1-1-0.1H83h-0.3h-0.1h-0.1h-0.3h-0.5c0,0-0.3,0-0.5,0.1l-0.6,0.1 c-0.5,0.1-0.7,0.2-1,0.2c-0.3,0.1-0.6,0.2-0.9,0.3c-1.2,0.4-2.2,1-3,1.7c-1.7,1.3-2.7,2.7-3.4,3.8c-0.7,1.2-1,2.2-1.2,2.9 c-0.2,0.7-0.3,1.1-0.3,1.1c-0.2,1.3,0.3,2.6,1.5,3.5c1.7,1.3,4.2,1,5.6-0.6l0.2-0.3c0,0,0.2-0.2,0.5-0.6c0.3-0.4,0.8-0.9,1.3-1.4 c0.3-0.2,0.6-0.5,0.8-0.7c0.3-0.2,0.6-0.4,0.8-0.5c0.2-0.2,0.5-0.2,0.7-0.2h0.1h0c0,0,0.1,0,0,0h0.3h0.1h0.1c0,0,0.1,0,0.1,0 c0.2,0,0.4,0.1,0.7,0.2c0.2,0.1,0.6,0.3,0.8,0.5c0.3,0.2,0.6,0.5,0.8,0.7c0.3,0.3,0.5,0.5,0.7,0.8c0.2,0.2,0.4,0.4,0.5,0.6 c0.2,0.2,0.3,0.4,0.4,0.5c0.1,0.1,0.2,0.2,0.2,0.2c0.9,1.1,2.4,1.8,4,1.5c2.2-0.3,3.7-2.2,3.3-4.3C94.3,62.6,94.3,62.5,94.3,62.4z"/>
    <path d="M119.4,11.1c0.4,0.1,0.8,0.2,1.3,0.2c2.6,0,4.8-2.1,4.8-4.8s-2.1-4.8-4.8-4.8c-2.6,0-4.8,2.1-4.8,4.8 c0,0.5,0.1,1.1,0.3,1.5l-3.5,2L91,22.3c-4-2-8.3-3.5-12.8-4.5c1.3-1.9,1.8-3.7,1-4.8c-1.3-1.7-5.4-0.7-9,2.1 c-0.5,0.4-1,0.8-1.5,1.3c-1.6-0.1-3.1-0.2-4.7-0.2c-29,0-55.8,18.6-55.8,53.9c0,10.2,2.3,19.1,6.2,26.4c-3.1,0.3-5.5,1.6-5.4,2.9 c0.1,1.4,2.9,2.3,6.2,2.1c0.7-0.1,1.4-0.2,2-0.3C27.5,116.2,45.3,124,64,124c11.2,0,22.1-2.9,31.2-8.4c0.4,0.3,0.8,0.4,1.3,0.4 c1.5,0,2.7-1.5,3.3-3.5c7.7-5.8,13.7-13.8,17.1-23.7c0.4-0.6,0.8-1.2,1.1-1.8c1.3-2.4,1.7-5,1.2-7.6c0.4-3,0.7-6,0.7-9.3 c0-4.6-0.5-8.9-1.4-12.9c1.7-1.6,2.7-3.1,2.2-3.8c-0.4-0.5-1.6-0.4-3.1,0.2c-1.3-4.6-3.3-8.9-5.7-12.7l6.7-26.4 C118.6,14.5,119.1,12.7,119.4,11.1z M110.6,29.8l-1.3,5.3L83,31.4l7.8-4.4L110.6,29.8z M107.6,41.2l-0.1,0.5l-1.1,4.7l-13.6-1.9 c-0.4-0.3-0.8-0.6-1.3-0.9c-2.8-2.1-4.8-4-6.4-5.6L107.6,41.2z M114,55.6c-2.8,2-4.6,4.3-3.9,5.2c0.5,0.7,2.5,0.2,4.9-1.1 c0.6,3.3,0.9,6.8,0.9,10.4c0,1,0,2-0.1,3c-0.7-0.7-1.5-1.3-2.4-1.8c-4.6-2.5-10.4-0.8-12.9,3.9c-2.1,3.9-0.6,8.8,3.3,10.9 c1.6,0.9,3.4,1.1,5.1,0.7c1.8-0.5,3.3-1.6,4.1-3.2c0.9-1.7,0.8-4.1-0.2-5.9c-0.9-1.6-2.4-2.6-4.2-2.8c-1-0.1-1.9,0.7-2,1.7 c-0.1,1,0.7,1.9,1.7,2c0.2,0,0.8,0.1,1.2,0.8c0.4,0.8,0.4,1.8,0.2,2.3c-0.5,0.9-1.2,1.2-1.7,1.3c-0.8,0.2-1.7,0.1-2.4-0.3 c-1-0.5-1.7-1.4-2.1-2.5c-0.3-1.1-0.2-2.2,0.3-3.3c0.7-1.4,2-2.4,3.4-2.8c1.4-0.4,3-0.3,4.4,0.5c1.7,0.9,3,2.4,3.6,4.3 c-0.5,2.9-1.1,5.8-2.1,8.5c-2.1,2.3-5.2,3.8-9.4,3.8c-3.1,0-13.5-0.3-21.7-0.6c-3.1-0.1-5.8-0.2-7.7-0.3c0-0.1,0-0.2,0.1-0.3 c0.2-1.3,0-2.5-0.5-3.6c-0.2-0.6-0.6-1.1-1-1.6c-0.4-0.4-0.9-0.9-1.3-1.2c-0.9-0.7-1.9-1-2.8-1.3c-0.9-0.3-1.8-0.4-2.6-0.5 c-0.4,0-0.9-0.1-1.3-0.1h-0.6H64h-0.1c-1.7,0-3,1.3-3,3.1c0,1.7,1.3,3,3,3h0.3h0.3h0.4c0.3,0,0.6,0,0.9,0c0.6,0,1.1,0.1,1.6,0.2 c0.5,0.1,0.9,0.2,1.2,0.4c0.3,0.2,0.4,0.3,0.5,0.4c0.1,0,0.1,0.2,0.1,0.3c0,0.1,0.1,0.2,0,0.3c0,0.1,0.1,0.1-0.1,0.3 c-0.2,0.2-0.5,0.4-1,0.6c-0.2,0.1-0.5,0.2-0.8,0.2c-0.2,0.1-0.6,0.1-0.8,0.1c-0.9,0.1-1.8,0.8-2,1.8c-0.3,1.3,0.5,2.5,1.8,2.8h0.1 c0.1,0,0.5,0.1,0.7,0.2c0.3,0.1,0.5,0.2,0.8,0.3c0.5,0.2,0.8,0.5,1,0.8c0.2,0.3,0.3,0.5,0.3,0.9c0,0.1,0,0.4,0,0.5V98 c0,0-0.1,0-0.1,0.1c0,0.1-0.9,0.7-2.1,0.9c-1.1,0.2-2.7,0.3-3.9,0.2H63c-0.1,0-0.1,0-0.2,0c-1.7,0-3,1.3-3,3s1.3,3,3,3 c1,0,1.9-0.1,2.8-0.2c0.9-0.1,1.8-0.3,2.8-0.5c0.9-0.2,1.9-0.6,2.9-1.2c1-0.6,2-1.6,2.6-2.9c0.1-0.3,0.3-0.7,0.4-1 c0.1-0.3,0.1-0.7,0.1-1c0-0.4,0-0.6,0-0.9s0-0.6-0.1-0.9c-0.1-0.3-0.1-0.7-0.3-1l8.1-0.1l21.3-0.2c2.5,0,4.8-0.4,6.9-1.2 c-2.6,5-6,9.4-10.3,13.2c-0.2,0.2-0.5,0.4-0.7,0.6c-0.6-1.6-1.7-2.6-3-2.6c-1.9,0-3.5,2.5-3.5,5.5c0,0.6,0.1,1.1,0.2,1.7 c-8.4,5.1-18.5,7.8-29.2,7.8c-13.9,0-26.8-4.5-36.2-12.8c-2.7-2.4-5-5-7.1-7.9c0.2-0.2,0.2-0.5,0.2-0.7c0-0.7-0.7-1.2-1.7-1.6 c-4.7-7.6-7.1-16.7-7.1-26.9c0-15.3,5.4-28.2,15.7-37.2c4.8-4.2,10.6-7.5,16.9-9.6c-0.3,1.6,0.3,3.6,1.8,5.1 c2.1,2.1,5.2,2.6,6.8,0.9c1.6-1.7,1.2-4.7-0.9-6.8c-0.4-0.4-0.8-0.7-1.2-1c4.1-0.9,8.4-1.3,12.8-1.3c0.6,0,1.2,0,1.8,0.1 c-0.5,1.2-0.6,2.3,0,3.1c1.3,1.7,5.4,0.7,9-2.1c4.1,0.8,8,2,11.7,3.5l-7.4,4.2L76,31l1.1,3.2c0.3,0.9,2.5,5.8,11.7,12.9 c9.4,7.2,15,8.1,15.6,8.2l3.5,0.5l0.9-3.5l1.3-5.3C112,49.4,113.1,52.4,114,55.6z M111.8,25.2l-14.2-2l7.8-4.4l7.7,1.1L111.8,25.2z "/>
    <ellipse cx="24" cy="15" rx="7" ry="5"/>
    <path d="M16,111c-1.2,0.8-0.6,3.6,1.2,6.4c1.8,2.8,4.2,4.4,5.4,3.6c1.2-0.8,0.6-3.6-1.2-6.4C19.5,111.9,17.1,110.3,16,111z"/>
    <path d="M26.8,84.9c-0.1-1.3-0.6-3-1.6-4.7c-1.8-3.1-4.4-5-5.8-4.2c-1.4,0.8-1.1,4,0.7,7.1c0.4,0.8,0.9,1.5,1.5,2.1 c-2.8,0.4-4.9,1.2-4.8,2c0.1,0.9,3.3,1.5,7.3,1.2c4-0.3,7.1-1.2,7.1-2.2C31.1,85.5,29.3,85,26.8,84.9z"/>
  </g>
</svg>