<svg width="128" height="128" xmlns="http://www.w3.org/2000/svg">
  <g>
    <path d="M99.6,51.4c0.9-1.7-1.3-3.3-2.7-2C89.2,56.5,79,62.1,67.2,64.8S43.8,67,33.8,63.9c-1.8-0.6-3.1,1.8-1.5,3 c10.1,7.5,23.6,10.7,37.1,7.5C83,71.3,93.7,62.6,99.6,51.4z"/>
    <path d="M35.1,50.5c1.8,0.8,4.1,0.1,5-1.5l0.2-0.3c0,0,0.1-0.2,0.4-0.6c0.2-0.4,0.5-0.9,0.9-1.5c0.2-0.3,0.4-0.6,0.6-0.8 c0.2-0.3,0.5-0.5,0.7-0.6c0.2-0.2,0.4-0.3,0.5-0.3l0.3-0.1c0,0,0,0,0.1,0c0.1,0,0.1,0,0.2,0c0.2,0,0.4,0,0.6,0.1 c0.2,0.1,0.6,0.2,0.9,0.4c0.3,0.1,0.6,0.3,0.9,0.5c0.3,0.2,0.6,0.4,0.8,0.6c0.2,0.2,0.4,0.3,0.6,0.4c0.2,0.2,0.4,0.3,0.5,0.4 c0.1,0.1,0.2,0.2,0.2,0.2c1,0.9,2.5,1.2,3.9,0.7c1.9-0.7,3-2.7,2.3-4.5c0,0,0-0.1-0.1-0.2c-0.1-0.1-0.1-0.3-0.3-0.6 c-0.2-0.3-0.4-0.8-0.7-1.1c-0.3-0.4-0.6-0.9-1-1.3c-0.8-1-2-2.1-3.8-2.9c-0.9-0.4-1.9-0.8-3.1-1C45.3,36,44.7,36,44,36 c-0.3,0-0.6,0-0.9,0l-0.5,0.1h-0.2h-0.2l-0.3,0.1l-0.5,0.1c0,0-0.3,0.1-0.5,0.1l-0.5,0.2c-0.4,0.1-0.6,0.3-0.9,0.4 c-0.3,0.1-0.5,0.3-0.8,0.4c-1,0.6-1.8,1.3-2.5,2c-1.3,1.5-2,2.9-2.4,4.1c-0.4,1.2-0.6,2.2-0.6,2.9c-0.1,0.7-0.1,1.1-0.1,1.1 C33.1,48.8,33.8,49.9,35.1,50.5z"/>
    <path d="M69.3,43.9c1.8,0.8,4.1,0.1,5-1.6l0.2-0.3c0,0,0.1-0.2,0.4-0.6c0.2-0.4,0.5-0.9,0.9-1.5c0.2-0.3,0.4-0.6,0.6-0.8 c0.2-0.3,0.5-0.5,0.7-0.6c0.2-0.2,0.4-0.3,0.5-0.3L78,38c0,0,0,0,0.1,0c0.1,0,0.1,0,0.2,0c0.2,0,0.4,0,0.6,0.1 c0.2,0.1,0.6,0.2,0.9,0.3c0.3,0.2,0.6,0.3,0.9,0.5c0.3,0.2,0.6,0.4,0.8,0.6s0.4,0.3,0.6,0.4c0.2,0.2,0.4,0.3,0.5,0.4 c0.1,0.1,0.2,0.2,0.2,0.2c1,0.9,2.5,1.2,3.9,0.7c1.9-0.7,3-2.7,2.3-4.5c0,0,0-0.1-0.1-0.2c-0.1-0.2-0.1-0.3-0.3-0.6 c-0.2-0.3-0.4-0.8-0.7-1.1c-0.3-0.4-0.6-0.9-1-1.3c-0.9-1-2-2.1-3.8-2.9c-0.9-0.4-1.9-0.8-3.1-1c-0.6-0.1-1.2-0.1-1.8-0.1 c-0.3,0-0.6,0-0.9,0.1l-0.5,0.1h-0.2h-0.2l-0.3,0.1l-0.5,0.1c0,0-0.3,0.1-0.5,0.1h-0.4c-0.4,0.1-0.6,0.3-0.9,0.4 c-0.3,0.1-0.5,0.3-0.8,0.4c-1,0.6-1.8,1.3-2.5,2c-1.3,1.5-2,2.9-2.4,4.1c-0.4,1.2-0.6,2.2-0.6,2.9c-0.1,0.7,0,1.1,0,1.1 C67.4,42.2,68.1,43.3,69.3,43.9z"/>
    <path d="M122.8,101.2c-0.4-0.3-0.8-0.5-1.2-0.7c1.1-1.2,1.9-2.2,2.3-2.7c0.9-1.2,1.4-2.7,1.2-4.2c-0.2-1.5-1-2.8-2.1-3.8 c-0.7-0.6-1.5-0.9-2.4-1.1c0.1-0.2,0.2-0.3,0.3-0.4c0.8-1.3,1.1-2.8,0.7-4.3c-0.3-1.5-1.2-2.7-2.5-3.5c-0.4-0.2-0.8-0.4-1.2-0.6 c2.5-8.2,3-17.5,0.8-27.6C112.3,23.8,90,10,66.2,10c-4.5,0-9,0.5-13.4,1.4C24.5,17.5,2.2,41.3,9.6,75.7c0.3,1.4,0.7,2.8,1,4.1 c-0.5,0.1-1,0.4-1.5,0.6c-1.3,0.8-2.2,2-2.5,3.5c-0.4,1.5-0.1,3,0.7,4.3c0.1,0.1,0.2,0.3,0.3,0.5c-0.9,0.2-1.7,0.5-2.4,1.1 c-1.2,0.9-2,2.3-2.1,3.8c-0.1,1.5,0.2,3,1.2,4.2c0.4,0.5,1.2,1.5,2.3,2.7c-0.4,0.2-0.8,0.4-1.2,0.7c-1,0.8-1.7,2-1.8,3.4 c-0.2,1.8,0.5,3.6,1.8,5c9,9.7,16.6,12.6,21.3,13.5c1.3,0.2,2.7,0.3,3.9,0.3c7.2,0,11.4-3.7,13.9-6.4c0.3-0.4,0.7-0.8,1-1.2 c5.2,1.5,10.8,2.3,16.4,2.3c4.5,0,9.1-0.5,13.6-1.5c2.3-0.5,4.5-1.1,6.6-1.8c0.6,0.8,1.2,1.6,1.7,2.2c2.5,2.8,6.7,6.4,13.9,6.4 c1.3,0,2.6-0.1,3.9-0.4c4.7-0.8,12.3-3.8,21.3-13.4c1.3-1.4,2-3.2,1.8-5C124.5,103.2,123.8,102,122.8,101.2z M44.8,111.3 c-0.6,1.1-1.3,2.1-2.2,3.2c-0.4,0.2-0.4,0.3-0.5,0.4c-2.6,2.8-6.1,5.5-11.7,5.5c-1.1,0-2.2-0.1-3.4-0.3 c-5.3-0.9-12.1-4.5-19.6-12.5c-1.3-1.4-1.3-3.2-0.4-3.9c0.5-0.4,1-0.5,1.5-0.5c0.9,0,1.7,0.5,2.6,1c1.3,0.9,2.3,1.9,7.2,4.5 c0.2,0.1,0.4,0.2,0.6,0.2c0.3,0,0.6-0.1,0.7-0.3c0.5-0.8,0.1-1.2-0.3-1.5c-8-4.8-12.5-10.7-12.8-11.1c-0.9-1.2-0.7-2.9,0.5-3.8 c0.5-0.4,1.1-0.6,1.6-0.6c0.8,0,1.6,0.3,2.1,1c0.1,0.1,3.8,5,10.5,9.3c0.2,0.1,0.4,0.2,0.5,0.2c0.4,0,0.7-0.2,0.9-0.5 c0.3-0.5,0.2-1.1-0.3-1.4c-1.1-0.8-2.1-1.6-3.1-2.5c-6.1-5.3-9.2-10.6-9.4-11C9,85.4,9.4,83.8,10.7,83c0.4-0.3,0.9-0.4,1.4-0.4h0.1 c0.7,0,1.3,0.3,1.8,0.7c0.2,0.2,0.3,0.3,0.4,0.5c0.1,0.1,3.8,6.5,11.1,11.9c0.2,0.1,0.4,0.2,0.6,0.2c0.3,0,0.6-0.1,0.8-0.4 c0.3-0.3,0.3-0.8,0-1.1c-6-5.9-8-9.7-8.1-9.7c-1-1.8-1-3.2,0.2-4.2c0.5-0.4,1.1-0.6,1.7-0.6c0.8,0,1.6,0.3,2.1,1 c0.1,0.1,4.6,5.9,10,12c-0.4,0.5-0.8,1.1-1.1,1.7c-0.9,1.7-4.1,7,1.5,14.3c0.2,0.3,0.8,0.5,1.2,0.3c0.3-0.2,0.4-0.8,0.2-1.2 c-4.6-7,0-11.9,0.3-12.7c0.8-1.5,0.2-2.7-0.7-4.1c-1.3-2.7-6-5.3-4.2-8.1c0.5-0.8,1.2-1.1,2-1.1c1.6,0,3.7,1.6,5.7,4.1 C38.8,87.5,50.6,100.2,44.8,111.3z M74.5,112.9c-4.2,0.9-8.6,1.4-12.8,1.4c-5,0-9.8-0.6-14.3-1.9c2.8-5.8,3.3-15-7.3-27.6 c-0.1-0.2-0.2-0.3-0.3-0.4c-1.9-2.4-4.8-5.2-8-5.2c-1.8,0-3.4,0.9-4.5,2.5l-0.1,0.1c-1-1.3-1.8-2.2-2-2.6c-1.1-1.4-2.7-2.1-4.4-2.1 c-1.3,0-2.5,0.4-3.5,1.2c-0.4,0.3-1.3,1.2-1.7,2.4c-0.3-0.2-0.5-0.4-0.8-0.5c-0.5-1.7-1-3.5-1.4-5.3c-3.2-15-0.6-28.7,7.6-39.7 c7.4-10,19.1-17.1,32.7-20.1c4.2-0.9,8.5-1.4,12.7-1.4C85.8,13.7,108.8,24,115,53c2.1,9.6,1.7,18.7-1.1,27 c-0.4,0.2-0.8,0.4-1.1,0.6c-0.4-1.3-1.3-2.1-1.7-2.4c-1-0.8-2.2-1.2-3.5-1.2c-1.7,0-3.4,0.8-4.4,2.1c-0.3,0.4-1,1.3-2,2.6l-0.1-0.1 c-1-1.6-2.6-2.5-4.4-2.5c-3.3,0-6.2,2.9-8,5.2c-0.1,0.1-0.2,0.2-0.3,0.4c-10,11.9-10.1,20.7-7.7,26.6 C78.3,111.9,76.4,112.4,74.5,112.9z M120.6,107.5c-7.5,8-14.4,11.7-19.6,12.5c-1.2,0.2-2.4,0.3-3.4,0.3c-5.6,0-9.1-2.6-11.7-5.5 c-0.6-0.7-1.2-1.4-1.7-2.1c-0.1-0.1-0.1-0.2-0.2-0.3c-0.2-0.2-0.3-0.5-0.4-0.7c-0.1-0.1-0.1-0.2-0.2-0.3c-5.7-11.1,6-23.7,7.1-25.1 c1.9-2.5,4-4.1,5.7-4.1c0.8,0,1.4,0.3,2,1.1c1.8,2.8-2.9,5.4-4.3,8.1c-0.9,1.4-1.5,2.5-0.7,4.1c0.4,0.7,4.9,5.7,0.3,12.7 c-0.3,0.4-0.2,1.1,0.2,1.2c0.4,0.2,0.9,0,1.2-0.3c5.6-7.2,2.4-12.6,1.5-14.3c-0.3-0.6-0.7-1.2-1.1-1.7c5.4-6.1,9.9-12,10-12 c0.5-0.6,1.3-1,2.1-1c0.6,0,1.2,0.2,1.7,0.6c1.1,0.9,1.2,2.4,0.2,4.2c0,0.1-2.1,3.8-8.1,9.7c-0.3,0.3-0.3,0.8,0,1.1 c0.2,0.2,0.5,0.3,0.8,0.3c0.2,0,0.4-0.1,0.6-0.2c2.6-1.9,4.7-3.9,6.4-5.7c3.1-3.4,4.7-6.1,4.7-6.2c0.1-0.2,0.3-0.3,0.4-0.5l0.1-0.1 c0.1-0.1,0.3-0.3,0.5-0.3h0.1c0.1-0.1,0.3-0.1,0.5-0.2c0.1,0,0.1,0,0.2-0.1c0.2,0,0.3-0.1,0.5-0.1c0.1,0,0.1,0,0.2,0 c0.1,0,0.3,0,0.4,0.1c0.1,0,0.2,0,0.2,0.1c0.2,0.1,0.4,0.2,0.6,0.3c1.3,0.8,1.7,2.4,0.9,3.7c-0.2,0.4-4.3,7.4-12.5,13.4 c-0.5,0.3-0.6,1-0.3,1.4c0.2,0.3,0.5,0.5,0.9,0.5c0.2,0,0.4,0,0.6-0.2c6.7-4.3,10.4-9.2,10.4-9.3c0.5-0.7,1.3-1,2.1-1 c0.6,0,1.1,0.2,1.6,0.6c1.2,0.9,1.4,2.6,0.5,3.8c-0.3,0.4-4.8,6.3-12.8,11.1c-0.4,0.2-0.8,0.7-0.3,1.5c0.1,0.2,0.4,0.3,0.7,0.3 c0.2,0,0.4-0.1,0.6-0.2c4.8-2.7,5.8-3.7,7.2-4.5c0.8-0.6,1.7-1,2.6-1c0.5,0,1,0.2,1.5,0.5C121.9,104.2,121.9,106.1,120.6,107.5z"/>
  </g>
</svg>