<svg width="128" height="128" xmlns="http://www.w3.org/2000/svg">
  <g>
    <path d="M119.5,31.8H74.9h-22H8.2c-1.2,0-2.3,0.5-3.1,1.3S3.8,35,3.8,36.2v67.5c0,2.4,2,4.3,4.4,4.3h44.6h22h44.6 c0.9,0,1.7-0.3,2.4-0.7c1.2-0.8,1.9-2.1,1.9-3.6l0.2-11.9V36.2C123.9,33.8,122,31.8,119.5,31.8z M52.9,95.9H8.1 c-1.3,0-2.5-0.6-3.2-1.5V36.2c0-1.8,1.5-3.3,3.3-3.3h44.6v4.2H19.6c0,0.2,0,0.4,0,0.7c0,5.9-4.8,10.7-10.7,10.7v32.2 c5.7,0,10.3,4.4,10.7,10h33.3V95.9z M52.9,88.7H21.3c-1.1-5.1-5.3-9-10.4-9.9V50.3c5.6-0.9,10-5.5,10.6-11.2h31.4V88.7z M74.9,79.6 c2.8,1.8,6.2,2.8,9.8,2.8c10.2,0,18.5-8.3,18.5-18.5c0-10.2-8.3-18.5-18.5-18.5c-3.6,0-6.9,1-9.8,2.8v-9.1h31.5 c0.9,5.4,5.1,9.7,10.5,10.5v28.5c-5.4,0.9-9.7,5.1-10.5,10.5H74.9V79.6z M122.9,94.4c-0.8,0.9-1.9,1.5-3.2,1.5H74.9v-5.2h33.3 c0-5.9,4.8-10.7,10.7-10.7V47.8c-5.9,0-10.7-4.8-10.7-10.7H74.9v-4.2h44.6c1.9,0,3.4,1.5,3.4,3.4V94.4z"/>
    <path d="M25.2,68.4h3.2c0.3,0,0.5,0.2,0.5,0.5c0.2,4,1.3,7.1,3.5,9.3c2.2,2.3,5.3,3.5,9.2,3.5c1.6,0,3.2-0.2,4.8-0.5 c0.5-0.1,0.8-0.6,0.7-1l-0.2-1.8c-0.1-0.6-0.6-0.9-1.1-0.8c-1.3,0.3-2.7,0.5-4.1,0.5c-2.6,0-4.6-0.8-6-2.5 c-1.3-1.6-2.1-3.8-2.2-6.6c0-0.3,0.2-0.5,0.5-0.5h8c0.3,0,0.6-0.3,0.5-0.6V66c0-0.3-0.3-0.6-0.6-0.6h-8c-0.3,0-0.5-0.2-0.5-0.5 v-2.3c0-0.3,0.2-0.5,0.5-0.5h8c0.3,0,0.6-0.3,0.6-0.6v-1.8c0-0.3-0.3-0.6-0.6-0.6h-8c-0.3,0-0.5-0.2-0.5-0.5 c0.2-2.7,0.9-4.8,2.2-6.3c1.4-1.6,3.4-2.4,6-2.4c1.4,0,2.8,0.2,4.1,0.5c0.5,0.1,1.1-0.2,1.2-0.8l0.2-1.8c0.1-0.5-0.3-0.9-0.7-1 c-1.8-0.4-3.4-0.5-4.8-0.5c-3.8,0-6.9,1.1-9.1,3.4c-2.2,2.2-3.3,5.2-3.6,9.1c0,0.3-0.2,0.5-0.5,0.5h-3.2c-0.3,0-0.6,0.3-0.6,0.6 v1.8c0,0.3,0.3,0.6,0.6,0.6h3.1c0.3,0,0.5,0.2,0.5,0.5V65c0,0.3-0.2,0.5-0.5,0.5h-3.1c-0.3,0-0.6,0.3-0.6,0.6v1.8 C24.6,68.1,24.9,68.4,25.2,68.4z"/>
  </g>
</svg>