<svg viewBox="0 0 128 128" xmlns="http://www.w3.org/2000/svg">
  <g>
    <path d="M67.5,50.5C65.7,52,59,53,56.8,52.2c-1.3-0.5-2.3,0.7-1.7,1.7c0.6,1,4.7,2.8,7.8,2.3c3.2-0.5,6.4-3.5,6.7-4.6 C70,50.5,68.6,49.6,67.5,50.5z"/>
    <path d="M61.6,47.5c1.8-0.3,2.5-1.7,2.6-2.2c0.1-0.5-0.2-0.9-0.6-1c-0.1,0-0.1,0-0.2,0l-4.5,0.7c-0.1,0-0.1,0-0.2,0.1 c-0.4,0.2-0.5,0.7-0.3,1.1C58.7,46.7,59.8,47.8,61.6,47.5z"/>
    <path d="M53.2,41.3c-0.8,0.6-1.9,1.2-3.2,1.4c-1.3,0.2-2.6,0.1-3.5-0.3c-0.4-0.2-0.6,0-0.5,0.4c0.5,1.6,2.3,2.6,4.3,2.2 c2-0.3,3.4-1.8,3.4-3.5C53.7,41.2,53.5,41.1,53.2,41.3z"/>
    <path d="M74.3,38c-0.8,0.6-1.9,1.1-3.2,1.4s-2.6,0.1-3.5-0.3c-0.4-0.2-0.6,0-0.5,0.4c0.5,1.6,2.3,2.6,4.3,2.2s3.4-1.8,3.4-3.5 C74.9,37.8,74.6,37.8,74.3,38z"/>
    <path d="M48.6,33.9c-2.7,0.4-3.9,1.8-4.4,2.7c-0.2,0.4-0.1,0.8,0.1,1c0.2,0.2,0.7,0.3,1.3,0.1c0.5-0.3,1.5-1,3.3-1.3 c1.8-0.3,3,0.1,3.6,0.2c0.6,0.1,1.1-0.2,1.2-0.4c0.2-0.3,0.2-0.7-0.2-1C52.9,34.5,51.3,33.5,48.6,33.9z"/>
    <path d="M69.7,30.6c-2.7,0.4-3.9,1.8-4.4,2.7c-0.2,0.4-0.1,0.8,0.1,1c0.2,0.2,0.7,0.3,1.3,0.1c0.5-0.3,1.5-1,3.4-1.3 c1.8-0.3,3,0.1,3.6,0.2c0.6,0.1,1.1-0.2,1.2-0.4c0.2-0.3,0.2-0.7-0.2-1C74,31.1,72.4,30.2,69.7,30.6z"/>
    <path d="M107.2,109.2c0-3.7-0.1-8-0.3-12.9c-0.7-19.5-8.5-25-20.6-27.5c2.5-11.3,0.5-29.7-1.6-43.3c0-0.4-2.5-21.4-23.8-21.4 c-1.8,0-3.7,0.2-5.8,0.5C28.6,8.7,32.7,33.3,32.7,33.7c1.8,11.2,4.6,25.5,8.9,35.8c-7,1.4-12,3.1-14.9,8.3 C24.9,81,25,89.2,24.1,95.2c-2.5,16.3,0.3,24.7,3.2,28.8H49c0,0,0,0,0,0c0.1-1.1,0.5-1.8,0.8-2.1c2.2,0.6,4.2,0.9,6.2,0.9 c2.8,0,5.1-0.6,7.3-1.1c2-0.5,3.8-0.9,6-0.9c0.2,0,0.4,0,0.5,0c2.5,0.1,4.2,0.7,5.2,1.8c0.4,0.4,0.6,0.9,0.9,1.5H78 c-0.9-3.2-3.3-5.2-8.1-5.3h-0.6c-4.9,0-8.1,2.1-13.2,2.1c-1.6,0-3.5-0.2-5.7-0.8c0-1.5,0.8-2.9,1.9-3.9c2.8-2.4,4.9-5.5,6-9.1 c0.3-0.8,0.4-1.8,0.5-3c0.1-1,0.3-2.9,0.7-3.5c0.2-0.1,1.2-0.5,4.2-0.5c3.7,0,9.2,0.6,16.4,1.7c9.6,1.5,13.3,4.4,16,6.5 c1.8,1.4,3.5,2.7,6.1,2.7c4.9,0,8.3,1.3,10.2,3.8c2,2.6,2.2,6.2,1.9,9.5h2C116.8,117.9,115.5,111.1,107.2,109.2z M56.3,106.3 c-1,3.2-2.9,6-5.4,8.2c-1.1,0.9-1.9,2.2-2.3,3.5c-1.6,0.5-3.3,0.6-4.8,0.6c-7.4,0-13.2-5.3-13.2-12.2c0-5.9,3.2-12.9,12.2-12.9l0-1 c0,0,0,0,0,0v1c0.2,0,0.4,0,0.6,0c3.7,0.1,7.5,2,10.2,5c1.6,1.8,2.6,3.9,3,6C56.5,105.3,56.4,105.9,56.3,106.3z M66.6,97.9 c0.2-3.1-0.4-6.6-2.3-9.2c-0.3-0.4-1-0.5-1.4-0.2s-0.5,1-0.2,1.4c1.6,2.2,2.1,5.2,1.9,7.9c-0.3,0-0.7,0-1,0v0 c-3.6,0-5.2,0.5-5.8,1.2c-0.3,0.3-0.5,0.8-0.6,1.4c-2.1-3.9-6-7.1-10.4-8.3c0.5-0.9,1.2-1.7,2.1-2.8c1.3-1.6,2.8-3.3,3.5-5.6 c1.4-4.7,1.5-11,1.4-14.1c1.2-0.1,3-0.3,4.7-0.5c0.6,0,1.1-0.3,1.4-0.8c0.3-0.4,0.5-1,0.4-1.5l-0.4-2.5c0.8,0.1,1.5,0.2,2.2,0.2 c0.7,0,1.4-0.1,2-0.2c1.1-0.2,2.4-0.5,3.6-1.1l0.6,3.8c0,0,0,0.1,0,0.1c0.1,1,0.9,1.7,1.9,1.7c1.2,0,2.6,0.2,3.8,0.3 c-0.2,1.7-0.4,4.2-0.6,8.1c-0.2,4-0.3,11.3,0.7,15.5c0.6,2.3,0.9,4.3,1,5.9C71.7,98.3,68.9,98,66.6,97.9z M68.2,60.9 c-1.5,0.8-3,1.3-4.3,1.5c-0.5,0.1-1.1,0.1-1.7,0.1c-0.9,0-1.9-0.1-2.9-0.3c-6.6-1.2-14.9-6.6-17.9-17.4c0-0.2-0.1-0.3-0.1-0.5 c-0.3-1.9-2-8.8,1.8-10.3c14-5.5,21-14.5,21-14.5c2.9,4.3,10.3,7.8,12.9,9.2c0.7,0.4,1.3,1.3,1.7,2.5c0.3,1.3,0.6,2.6,0.9,4 C81.7,48.5,74.8,57.3,68.2,60.9z"/>
  </g>
</svg>