<svg width="128" height="128" xmlns="http://www.w3.org/2000/svg">
  <g>
    <path d="M64,6.1C32.8,6.1,4,26.1,4,64c0,37.7,28.9,57.9,60,57.9c31.2,0,60-20.7,60-57.9C124,26.6,95.1,6.1,64,6.1z M103,103.9 c-10.2,9-24.1,14-39,14c-15,0-28.9-4.9-39-13.8C13.9,94.3,8,80.5,8,64s5.9-30.4,17-40.2c10.1-8.9,24-13.7,39-13.7s28.9,5,39,13.9 c11.1,9.8,17,23.6,17,40C120,80.3,114.1,94.1,103,103.9z"/>
    <path d="M52.6,63.4c0-1.8-0.4-3.3-1.2-4.6c-1.4-2-2.9-3.6-7.8-3.6c-6.2,0-12,2.4-16,6.1c-2,1.9,0.6,4.5,2.6,3.1 c2.8-1.8,6-3.1,9.4-3.8c-0.2,0.8-0.4,1.7-0.4,2.7c0,4.9,3.2,7.8,6.7,7.8C49.4,71.2,52.6,68.3,52.6,63.4z"/>
    <path d="M92.1,55.2c-6.2,0-12,2.4-16,6.1c-2,1.9,0.6,4.5,2.6,3.1c2.8-1.8,6-3.1,9.3-3.8c-0.2,0.8-0.4,1.7-0.4,2.7 c0,4.9,3.2,7.8,6.7,7.8s6.7-2.9,6.7-7.8c0-1.8-0.4-3.3-1.2-4.6C98.5,56.8,97,55.2,92.1,55.2z"/>
    <path d="M82.4,79.1c-1.8-0.6-3.7,0.3-4.3,2.1L78,81.6c0,0-0.2,0.5-0.5,1.3c-0.2,0.4-0.3,0.9-0.6,1.4c-0.1,0.3-0.2,0.5-0.4,0.8 c-0.2,0.3-0.3,0.6-0.5,0.8c-0.2,0.3-0.4,0.6-0.6,0.9c-0.2,0.3-0.5,0.6-0.7,0.9c-0.5,0.6-1.1,1.1-1.8,1.6s-1.4,1-2.2,1.4 s-1.7,0.8-2.6,1.2c-0.9,0.4-1.9,0.7-2.9,0.9s-2,0.5-3,0.6c-2,0.4-3.9,0.5-5.5,0.6c-0.8,0.1-1.6,0-2.3,0.1c-0.7,0-1.3,0-1.7,0 s-0.9-0.2-1.2-0.2h-0.4c-1.5,0-2.8,1.1-3.3,2.6c-0.5,1.8,0.5,3.9,2.3,4.4c0,0,0.2,0,0.4,0.1c0.3,0.1,0.7,0.2,1.3,0.3 c0.6,0.1,1.3,0.3,2.1,0.4c0.8,0.1,1.7,0.3,2.7,0.3c1,0.1,2.1,0.2,3.2,0.2c1.2,0,2.4,0,3.6-0.2c1.2-0.1,2.6-0.3,3.9-0.6 c1.3-0.3,2.7-0.7,4-1.2c1.3-0.5,2.6-1.1,3.9-1.9c1.3-0.7,2.4-1.6,3.5-2.6c1.1-0.9,2-2,2.7-3.1c0.8-1.1,1.4-2.2,1.8-3.2 c0.2-0.5,0.4-1,0.6-1.5c0.2-0.5,0.3-0.9,0.4-1.4c0.2-0.9,0.3-1.6,0.4-2.3c0.1-0.6,0.1-1.1,0.1-1.5c0-0.3,0-0.5,0-0.5 C84.7,81,83.8,79.6,82.4,79.1z"/>
    <path d="M37.8,43.5c0.1,0,0.1,0,0.2,0h0.2c1.3-0.3,2-1.5,2-2.5c0-1.3-0.8-2.3-2.1-2.6c-0.1,0-0.2,0-0.4-0.1c-1.7-0.1-3.4,0-5,0.4 c-4.5,1-8.4,3.8-10.8,7.5c-0.5,0.8-0.6,1.7-0.2,2.4c0.3,0.8,1,1.3,1.9,1.5c0.2,0,0.4,0.1,0.6,0.1c0.7,0,1.4-0.3,1.9-0.9 C29.1,46.2,33.3,44,37.8,43.5L37.8,43.5z"/>
    <path d="M106.3,46.2c0-0.1-0.1-0.2-0.2-0.3c-0.9-1.4-2-2.7-3.3-3.8c-3.5-3-8-4.6-12.5-4.3c-0.9,0.1-1.7,0.5-2.1,1.2 s-0.5,1.6-0.1,2.4c0.4,0.9,1.2,1.4,2.1,1.5c4.3,0.6,8.6,2.7,11.6,5.9l0.3,0.4c0.5,0.4,1.1,0.6,1.7,0.6c0.6,0,1.1-0.2,1.5-0.5 C106.5,48.7,106.9,47.4,106.3,46.2z"/>
  </g>
</svg>