<svg width="128" height="128" xmlns="http://www.w3.org/2000/svg">
  <g>
    <path d="M90.4,36c-0.1,0-0.3,0-0.4,0h-8.9c-0.8,0-1.6,0.5-1.9,1.3L65.9,73.9c-0.3,0.9-1.1,1.3-1.9,1.3s-1.5-0.4-1.9-1.3L48.8,37.3 c-0.1-0.4-0.4-0.7-0.7-1c-0.3-0.2-0.7-0.4-1.1-0.4h-9c-0.3,0-0.5,0.1-0.8,0.2c-0.1,0.1-0.2,0.1-0.3,0.2c-0.5,0.4-0.9,1-0.9,1.7v52 c0,1.1,0.9,2,2,2h5.5c1.1,0,2-0.9,2-2V73.5L45,61.2c0-0.3,0-0.5,0.1-0.8c0-0.1,0.1-0.2,0.1-0.3V60c0-0.1,0.1-0.1,0.1-0.2 c0,0,0-0.1,0.1-0.1c0.1-0.1,0.1-0.1,0.2-0.2c0,0,0.1,0,0.1-0.1c0.1,0,0.1-0.1,0.2-0.1H46c0.2-0.1,0.3-0.1,0.5-0.2 c0.1,0,0.1,0,0.2,0c0.1,0,0.1,0,0.2,0H47c0.3,0,0.7,0.1,1,0.3c0.2,0.1,0.3,0.2,0.4,0.4c0.1,0.2,0.2,0.4,0.3,0.6L60,90.7 c0.3,0.8,1,1.3,1.9,1.3H66c0.8,0,1.6-0.5,1.8-1.3l11.3-30.3c0,0,0-0.1,0.1-0.1c0.1-0.1,0.1-0.2,0.2-0.3c0-0.1,0.1-0.1,0.1-0.2 c0.1-0.1,0.2-0.2,0.3-0.3c0.1,0,0.1-0.1,0.2-0.1c0.1-0.1,0.2-0.1,0.3-0.1c0.1,0,0.2-0.1,0.2-0.1c0.1,0,0.2,0,0.3,0 c0.1,0,0.1,0,0.2,0h0.1c0.1,0,0.2,0,0.2,0c0.1,0,0.2,0,0.2,0.1h0.1c0.1,0,0.2,0.1,0.3,0.2c0.1,0.1,0.2,0.1,0.3,0.2 c0.1,0.1,0.2,0.2,0.2,0.3c0.2,0.3,0.4,0.8,0.3,1.3l-0.5,12.4V90c0,1.1,0.9,2,2,2H90c0.5,0,1-0.2,1.4-0.6C91.8,91,92,90.5,92,90V38 C92,37,91.3,36.2,90.4,36z"/>
    <path d="M64,4C30.9,4,4,30.9,4,64s26.9,60,60,60s60-26.9,60-60S97.1,4,64,4z M64,112c-26.5,0-48-21.5-48-48s21.5-48,48-48 s48,21.5,48,48S90.5,112,64,112z"/>
  </g>
</svg>