<svg viewBox="0 0 128 128" xmlns="http://www.w3.org/2000/svg">
  <g>
    <path d="M106.4,49.2c1,0.3,2,0.6,3,0.8c-0.8-0.5-1.6-0.9-2.5-1.3c0.7-0.6,1.4-1.2,2-1.9c-0.9,0.4-1.7,0.9-2.5,1.5V36.8 c0-0.2,0-0.5,0-0.7c1.1,0.1,2.2,0.1,3.2-0.1c-0.9-0.3-1.8-0.4-2.7-0.5c0.5-0.7,1-1.5,1.4-2.4c-0.8,0.6-1.4,1.4-2,2.1 c-0.8-4.7-5.1-8.2-10.4-8.4c0.5-0.9,0.9-1.8,1.2-2.8c-0.6,0.7-1.2,1.5-1.6,2.3c-0.5-0.8-1-1.6-1.6-2.3c0.3,1,0.7,1.9,1.2,2.9 c-3.2,0.1-5.9,1.5-7.8,3.6c-0.2-0.9-0.5-1.8-0.9-2.7c0,1,0.1,1.9,0.2,2.8c-0.9-0.3-1.8-0.6-2.7-0.7c0.8,0.6,1.8,1,2.7,1.4 c-1.2,1.6-1.8,3.5-1.8,5.6v19.7c0,2.8-2.6,6.1-5.7,8.1l0.1-8.3c1,0.1,2.1,0.1,3.1-0.1c-0.9-0.3-1.8-0.4-2.7-0.5 c0.5-0.7,1-1.5,1.4-2.4c-0.7,0.5-1.2,1.2-1.8,1.8l0.1-10.5c1,0.1,2,0.1,3-0.1c-0.9-0.3-1.8-0.4-2.7-0.5c0.5-0.7,1-1.5,1.4-2.4 c-0.6,0.5-1.1,1.1-1.6,1.6l0.3-23.5c0-5.8-3.3-10.9-8.1-13.6C72.5,5.5,73.3,4.9,74,4c-0.9,0.4-1.7,0.8-2.4,1.4 c-0.1-0.9-0.2-1.8-0.5-2.7c-0.2,1.1-0.2,2.1-0.1,3.2c-2.2-1.1-4.7-1.7-7.3-1.7c-1.4,0-2.8,0.2-4.1,0.5c0.3-1,0.5-2.1,0.5-3.2 c-0.5,0.8-0.8,1.7-1.1,2.6c-0.6-0.7-1.3-1.3-2.1-1.8c0.5,1,1.2,1.8,1.9,2.6c-2.5,0.8-4.7,2.1-6.5,3.8c-0.4-0.8-0.9-1.5-1.5-2.2 c0.2,0.9,0.6,1.8,0.9,2.6C50.8,9,49.9,9,48.9,9.2c0.8,0.3,1.6,0.5,2.4,0.6c-2.4,2.7-3.8,6.3-3.8,10.2l0.2,8.6 c-0.4-0.7-0.9-1.4-1.4-2.1c0.2,0.9,0.6,1.8,0.9,2.6c-0.9-0.1-1.8-0.1-2.8,0.1c1.1,0.4,2.2,0.6,3.3,0.7L48,45 c-0.2-0.3-0.4-0.6-0.7-0.9c0.2,0.7,0.4,1.4,0.7,2.1v0.5c-0.8-0.1-1.7-0.1-2.5,0.1c0.8,0.3,1.7,0.5,2.5,0.6l0.4,22 c-0.2-0.3-0.4-0.6-0.6-0.8c0.2,0.7,0.4,1.3,0.7,2v0.6c-0.8,0-1.7,0-2.5,0.1c0.8,0.3,1.7,0.5,2.5,0.6l0.2,12.8 c-3.9-1.6-7.6-4.9-7.6-11.8v-7c0.9,0.2,1.9,0.4,2.9,0.4c-0.8-0.4-1.7-0.7-2.6-1c0.7-0.6,1.3-1.3,1.8-2.1c-0.8,0.4-1.4,0.9-2.1,1.5 v-22c0-0.6-0.1-1.2-0.2-1.8c0.9-0.1,1.7-0.3,2.6-0.6c-0.9-0.1-1.8-0.1-2.7,0v-0.1c0.4-0.8,0.7-1.6,0.9-2.5 c-0.4,0.5-0.8,1.1-1.1,1.7c-1.1-3.1-3.6-5.4-6.8-6.2c0.4-0.5,0.9-1.1,1.2-1.7c-0.7,0.4-1.3,0.9-1.9,1.5c-0.1,0-0.2,0-0.3-0.1 c-0.2-0.8-0.5-1.6-0.9-2.3c0,0.8,0.1,1.5,0.2,2.2c-0.3,0-0.6,0-0.9,0c-4.4,0-8,2.7-9.4,6.6c-0.3-0.4-0.6-0.9-0.9-1.3 c0.2,0.7,0.4,1.4,0.7,2.1c0,0.2-0.1,0.3-0.1,0.5c-0.8,0-1.6,0-2.4,0.1c0.8,0.3,1.5,0.4,2.3,0.6C21,41.8,21,42.2,21,42.7v15 c-0.6-0.6-1.2-1.1-1.9-1.5c0.5,0.8,1.1,1.5,1.7,2.2c-0.9,0.2-1.8,0.5-2.6,0.9c1,0,1.9-0.1,2.9-0.3v13.1c0,0.7,0,1.3,0.1,2 c-0.6-0.5-1.3-1.1-2.1-1.5c0.5,0.8,1.2,1.5,1.8,2.1c-0.9,0.3-1.7,0.6-2.6,1c1,0,2-0.2,2.9-0.4c1.4,16.1,13.2,25,27.8,26.9l0.4,21.6 h28.9l0.1-10c0.9,0.4,1.8,0.8,2.8,1c-0.7-0.6-1.5-1.1-2.4-1.5c0.8-0.5,1.5-1.1,2.2-1.8c-0.9,0.3-1.8,0.8-2.6,1.3l0.1-9.6 c0.9,0.4,1.8,0.7,2.7,0.9c-0.7-0.6-1.5-1.1-2.4-1.5c0.8-0.5,1.5-1.1,2.2-1.8c-0.9,0.3-1.7,0.7-2.5,1.2l0.1-11.7c1,0.1,2,0.1,3-0.1 c-0.9-0.3-1.8-0.4-2.7-0.5c0.5-0.7,1-1.5,1.4-2.4c-0.6,0.5-1.2,1.1-1.7,1.7l0.1-4.9c13.6-1.8,25.5-12,27.4-24.4 c0.9,0.5,1.8,0.9,2.8,1.2c-0.7-0.7-1.4-1.2-2.2-1.7c0.8-0.4,1.6-0.9,2.3-1.5c-1,0.2-1.9,0.6-2.7,1c0.1-0.8,0.1-1.6,0.1-2.4V49.2z M23.9,42.8c0.1-2.2,1-4,2.4-5.3c0.1,3.4,0.1,6.8,0.1,10.2c-0.3-0.5-0.6-0.9-1-1.3c0.2,0.9,0.6,1.8,0.9,2.6c-0.8-0.1-1.6-0.1-2.4,0 V42.8z M23.9,49.1c0.8,0.3,1.6,0.4,2.4,0.5c0.1,5,0,10-0.2,14.9c-0.4-0.7-0.8-1.3-1.3-1.9c0.2,0.9,0.6,1.8,0.9,2.6 c-0.6,0-1.2-0.1-1.8,0V49.1z M48.9,99.1c-6.2-0.7-11.7-2.9-15.8-6.3c-6-4.9-9.1-12-9.1-20.7v-6.6c0.7,0.2,1.4,0.3,2.1,0.4 c0,0.2,0,0.4,0,0.5v0.3c-0.1,3-0.2,6.2,0.4,9.2c0.5,2.4,1.5,4.6,2.4,6.3c1.3,2.7,2.6,4.8,4,6.5c2.1,2.6,4.7,4.8,7.5,6.3 c2.6,1.4,5.5,2.4,8.5,2.8V99.1z M41.4,93.3c-2.6-1.4-5-3.5-6.9-5.8c-1.3-1.6-2.5-3.6-3.8-6.1c-0.8-1.7-1.7-3.7-2.2-5.8 c-0.6-2.8-0.5-5.8-0.4-8.7v-0.3c0.4-9.9,0.5-20,0.3-30c0-0.1,0-0.2-0.1-0.2c0.8-0.3,1.7-0.5,2.7-0.5c3.9-0.2,7,2.9,7,6.8v29.6 c0,4.6,1.6,12,10.7,15l0.2,8.6C46.3,95.5,43.8,94.6,41.4,93.3z M75.4,121h-7.7c0.3-0.2,0.6-0.5,0.6-0.9c0.1-7.5-0.2-16.2-0.4-24.7 c-0.2-6.2-0.4-12.6-0.4-18.5C67.1,56.2,67,36.1,66.9,17c0-0.9,0-1.6,0-2.3c0.1-2,0.1-3.7-0.7-6.4C66,7.8,65.5,7.5,65,7.6 c-0.5,0.2-0.8,0.7-0.7,1.2c0.7,2.4,0.6,3.7,0.6,5.8c0,0.7,0,1.5,0,2.4c0.1,19.1,0.3,39.2,0.5,59.9c0.1,5.9,0.3,12.4,0.4,18.6 c0.2,8.5,0.5,17.2,0.4,24.6c0,0.4,0.2,0.8,0.6,0.9H52.2l-0.4-23c0.2-0.2,0.4-0.4,0.4-0.7c0-0.4-0.2-0.7-0.4-0.9l-1.5-76.8 c0-7.1,5.7-12.7,13.1-12.7c7.3,0,13.2,5.7,13.2,12.7L75.4,121z M94.7,73.8c-4.4,3.9-10,6.4-15.8,7.3c0,0.2-0.1,0.4-0.1,0.5v-2.3 c6.3-1.9,12-5.6,15.3-10c3.2-4.4,5.3-9.7,6.4-16.7c1.2-7.3,0.8-9.7-0.4-18.7v-0.2c-0.1-0.5-0.6-0.9-1.1-0.9c-0.7,0.1-1,0.6-1,1.2 v0.2c1.3,9,1.6,11.1,0.5,18.1c-1.1,6.7-3,11.7-6,15.8c-2.9,4-8,7.3-13.6,9.1v-3.9c5-1,9.6-6.5,11.5-11.4c1.8-4.5,2.6-9.8,2.5-15.8 c0-0.5,0-1.3-0.1-2.1c-0.4-9.6,0.4-11.3,0.9-11.4c0.5-0.1,0.9-0.7,0.7-1.2c-0.1-0.5-0.7-0.9-1.2-0.7c-2.7,0.7-2.7,6.5-2.4,13.5 c0,0.8,0.1,1.5,0.1,2.1c0.1,5.7-0.7,10.8-2.4,15.1c-1.7,4.3-5.6,9-9.6,10v-3.1c4.7-2.2,8.9-7.2,8.9-11.7V36.8 c0-3.8,3.4-6.8,7.7-6.8s7.7,3,7.7,6.8v19.7h0.1C103.3,62.8,100.3,68.9,94.7,73.8z"/>
    <path d="M57.3,8.9c-4.7,3.7-4.2,15.8-3.9,24.5c0.1,1.7,0.1,3.3,0.1,4.7c0,2.7,0.1,5.4,0.1,8.1c-0.4,0-0.8,0.1-1.2,0.1 c0.4,0.1,0.8,0.2,1.2,0.3c0.2,8.9,0.5,17.7,0.8,26.3c-0.6,0-1.2,0-1.8,0.1c0.6,0.2,1.2,0.4,1.8,0.5c0.1,1.9,0.1,3.8,0.2,5.6 c0.1,3.5,0.3,6.9,0.4,10.4c-0.1-0.1-0.1-0.2-0.2-0.3c0.1,0.3,0.1,0.6,0.2,0.8c0,0.6,0,1.2,0.1,1.7c-0.7,0-1.4,0-2.1,0.1 c0.7,0.3,1.4,0.4,2.1,0.5c0.2,4.7,0.3,9.4,0.4,14.2c0-0.1-0.1-0.1-0.1-0.2c0,0.2,0.1,0.4,0.1,0.5c0,0.7,0,1.4,0.1,2 c-0.7,0-1.3,0-2,0.1c0.7,0.2,1.4,0.4,2,0.5c0.1,3.4,0.1,6.7,0.2,10.2c0,0.5,0.5,1,1,1c0.6,0,1-0.5,1-1c-0.1-14-0.7-27.6-1.2-40.8 c-0.4-10.5-0.8-21.2-1-32.2h0.1l0.3-0.5c-0.2-0.3-0.3-0.6-0.5-0.9c0-2.5-0.1-5-0.1-7.5c0-1.4-0.1-3-0.1-4.7 c-0.3-7.9-0.8-19.8,3.1-22.9c0.4-0.3,0.5-1,0.2-1.4C58.4,8.6,57.7,8.5,57.3,8.9z"/>
    <path d="M71.8,15.9c-0.5,0-1,0.4-1,1c-0.3,19.9-0.6,40-0.8,59.8c-0.1,5.9,0,12.3,0,18.5c0.1,8.5,0.1,17.3-0.1,24.7c0,0.6,0.4,1,1,1 c0.5,0,1-0.4,1-1c0.2-7.5,0.2-16.3,0.1-24.8c0-0.3,0-0.7,0-1c0.6,0,1.3,0,1.9-0.1c-0.6-0.2-1.3-0.3-1.9-0.4c0-0.5,0-0.9,0-1.4 c0.2-0.4,0.4-0.7,0.6-1.1c-0.2,0.2-0.4,0.3-0.6,0.5c0-5.1-0.1-10.2,0-14.9c0.1-14.9,0.3-30.1,0.5-45.1c0.7-0.4,1.4-0.8,2.1-1.3 c-0.7,0.1-1.4,0.3-2,0.6c0.1-4.7,0.1-9.4,0.2-14C72.8,16.3,72.4,15.9,71.8,15.9z"/>
  </g>
</svg>