<svg viewBox="0 0 128 128" xmlns="http://www.w3.org/2000/svg">
  <g>
    <ellipse cx="38.37" cy="58.86" fill="#231F20" rx="4.93" ry="5.1"/>
    <ellipse cx="69.52" cy="58.86" fill="#231F20" rx="4.93" ry="5.1"/>
    <path d="M43.81,51.75c0.86,0.29,1.64-0.03,1.9-0.39c0.28-0.38,0.39-1-0.02-1.55c-0.93-1.23-3.07-3.01-7.23-3.01 c-4.16,0-6.31,1.79-7.23,3.01c-0.41,0.54-0.31,1.17-0.02,1.55c0.26,0.35,1.04,0.68,1.9,0.39s2.54-1.16,5.35-1.18 C41.27,50.59,42.95,51.46,43.81,51.75z" fill="#231F20"/>
    <path d="M64.08,51.75c0.86-0.29,2.54-1.16,5.35-1.18c2.81,0.02,4.49,0.89,5.35,1.18s1.64-0.03,1.9-0.39 c0.28-0.38,0.39-1-0.02-1.55c-0.93-1.23-3.07-3.01-7.23-3.01s-6.31,1.79-7.23,3.01c-0.41,0.54-0.31,1.17-0.02,1.55 C62.44,51.72,63.22,52.04,64.08,51.75z" fill="#231F20"/>
    <circle cx="44.56" cy="119.5" fill="#231F20" r="2.27"/>
    <path d="M72.01,117.23c-1.25,0-2.27,1.02-2.27,2.27s1.02,2.27,2.27,2.27c1.25,0,2.27-1.02,2.27-2.27 S73.27,117.23,72.01,117.23z" fill="#231F20"/>
    <path d="M62.47,76.19c-3.19,1.89-13.63,1.89-16.81,0c-1.83-1.09-3.7,0.58-2.94,2.24c0.75,1.63,6.45,5.42,11.37,5.42 s10.55-3.79,11.3-5.42C66.15,76.76,64.3,75.1,62.47,76.19z" fill="#231F20"/>
    <path d="M53.94,72.43c2.84,0,4.25-1.99,4.55-2.69c0.3-0.71-0.05-1.37-0.69-1.63c-0.11-0.04-0.21-0.07-0.32-0.08 h-7.07c-0.11,0.01-0.22,0.04-0.32,0.08c-0.64,0.26-0.99,0.92-0.69,1.63C49.7,70.44,51.1,72.43,53.94,72.43z" fill="#231F20"/>
    <path d="M104.77,66.66c-2.84,0.17-5.01,2.61-4.84,5.46s2.61,5.01,5.46,4.84c2.84-0.17,5.01-2.61,4.84-5.46 S107.61,66.49,104.77,66.66z" fill="#231F20"/>
    <path d="M106.59,53.62c-3.05-0.25-5.99,0.28-8.64,1.38c-1.21-2.35-3.07-4.75-5.81-7.1 c-0.09-0.08-0.35-0.59-0.62-1.13l1.07-7.18c2.3-1.74,8.5-6.65,9.38-9.91c1.46-5.39-1.13-11.15-7.2-15.18 C85.14,8.1,66.3,4.05,53.94,4v0c-0.04,0-0.08,0-0.12,0c-0.04,0-0.08,0-0.12,0v0C41.35,4.05,22.51,8.1,12.86,14.5 c-6.07,4.02-8.66,9.79-7.2,15.18c0.9,3.31,7.26,8.32,9.47,9.98l1.05,8.22c0.01,0,0.03-0.01,0.04-0.01 c-0.01,0.01-0.02,0.03-0.02,0.03c-9.33,8.01-8.59,16.6-5.81,21.76c2.64,4.9,9.58,7.53,7.8,11.3c-1.09,2.32-5.05,2.82-5.05,2.82 s0.72,5.89,8.7,4.9c0.18-0.02,0.45,0.2,0.85,0.64c3.67,4,7.17,5.5,13.38,6.2v1.64c-17.6,3.03-31.8,10.4-31.8,23.4V124h3v-3.43 c0-10.9,12.65-17.49,28.8-20.36v4.96c0,0.83,0.67,1.5,1.5,1.5s1.5-0.67,1.5-1.5v-8.4l7.76,1.64c2.33,0.53,3.94,2.77,4.29,5.99 c0.02,0.2,0.26,2.58,0.41,4.15l-12.96,3.79c-1.63,0.6-2.72,2.15-2.72,3.89V124h3v-7.77c0-0.48,0.3-0.91,0.75-1.07l17.47-5.23 c0,0,0.51-5.23,0.54-5.52c0.36-3.22,1.96-5.46,4.29-5.99l7.76-1.64v8.4c0,0.83,0.67,1.5,1.5,1.5s1.5-0.67,1.5-1.5v-4.83 c5.34,1.01,10.24,2.42,14.37,4.18c1.01,0.43,2.04,0.93,3.08,1.47c-0.69,1.6-1.13,3.45-1.27,5.54c-0.25,3.66,0.58,6.61,2.48,8.77 c1.91,2.18,4.89,3.45,8.69,3.68l3.44-0.03l3.28,0.39c0.15,0.02,0.3,0.03,0.45,0.03c1.9,0,3.54-1.42,3.77-3.35 c0.03-0.23,0.02-0.45,0.01-0.68c0.05-0.11,0.1-0.21,0.15-0.33c0.21-0.11,0.42-0.24,0.62-0.4c0.8-0.63,1.3-1.54,1.41-2.56 c0.07-0.61-0.03-1.21-0.24-1.76c0.76-0.64,1.27-1.57,1.34-2.63c0.07-1.21-0.44-2.3-1.29-3.04c0.67-0.69,1.04-1.6,1.05-2.56 c0.01-0.85-0.29-1.63-0.76-2.27c0.06-0.06,0.12-0.11,0.17-0.18c0.73-1.02,0.71-2.11,0.35-3.06c-0.38-1-1.38-1.73-2.74-2 c-0.15-0.03-1.98-0.5-4.07-0.9l0.54-7.99c8.54-1.11,15.44-8.05,16.15-16.97C124.48,63.42,116.84,54.44,106.59,53.62z M17.9,61.89 c0-1.8,0.48-3.49,1.3-4.92c0.37,4.86,1.49,8.34,2.2,10.12c0.18,0.95,0.39,1.88,0.62,2.78C19.55,68.21,17.9,65.26,17.9,61.89z M18.75,44.26l-0.64-4.99l-0.16-1.26l-1.01-0.76c-5.04-3.78-8.03-7.07-8.38-8.37C7.42,24.68,9.65,20.23,14.52,17 c9.22-6.11,27.53-9.95,39.2-10l0.09,0l0.12,0c10.87,0.04,27.48,3.38,37.17,8.77c-0.51,5.11-0.2,10.39-9.42,16.75 c12.48,3.76,17.75-7.74,9.8-16.53c0.57,0.33,1.13,0.66,1.65,1.01c4.87,3.23,7.1,7.68,5.96,11.89c-0.35,1.28-3.31,4.54-8.29,8.3 l-0.98,0.74l-0.18,1.21l-0.69,4.63c-10.8-2.16-22.01-3.26-33.39-3.26C43.34,40.52,30.97,41.78,18.75,44.26z M89.96,61.37 c-1.63,2.27-2.76,4.93-3.23,7.84c-0.27,0.24-0.56,0.46-0.86,0.67c0.25-0.99,0.47-2.01,0.67-3.06c0.66-1.98,1.5-5.91,2.11-9.91 C89.4,58.21,89.88,59.73,89.96,61.37z M63.33,94.92v0.12l-2.08,0.44c-3.31,0.75-6.07,3.73-6.61,8.58 c-0.04,0.31-0.17,1.72-0.26,2.71c-0.09-0.99-0.23-2.4-0.26-2.71c-0.47-4.24-2.64-7.05-5.39-8.19c1.72,0.28,3.47,0.45,5.22,0.45 C57.12,96.32,60.29,95.85,63.33,94.92C63.34,94.92,63.34,94.92,63.33,94.92z M53.94,94.32c-8.29,0-15.98-3.3-21.65-9.29 c-5.01-5.3-8.18-12.43-9.35-20.88c1.22-5.63,3.14-15.03,2.87-16.98l12.04-2.74c5.88-0.59,11.79-0.9,17.71-0.9 c9.27,0,18.53,0.74,27.67,2.27c0,0-0.01,0-0.01,0c0.22,0.69,0.42,1.43,0.59,2.23c0.7,3.21,1.16,7.71,1.55,11.98 c-0.61,10.28-3.95,18.89-9.76,25.03C69.93,91.02,62.24,94.32,53.94,94.32z M72.68,97.27v-1.79c5.96-0.72,9.38-2.25,12.97-6.15 c0.4-0.44,0.66-0.66,0.85-0.64c3.77,0.46,5.91-0.61,7.13-1.87c2.07,1.62,4.49,2.82,7.16,3.45c0,0-0.68,4.72-1.16,8.07 c-3.36,0.69-5.64,2.57-6.79,3.71c-0.05,0.04-0.08,0.1-0.13,0.15c-0.38,0.36-0.73,0.77-1.06,1.2 C86.36,100.62,79.81,98.58,72.68,97.27z M108.98,120.76c-0.12,0.98-1.02,1.69-1.99,1.58l-3.91-0.46c-0.98-0.12-1.69-1.01-1.58-1.99 c0.04-0.33,0.17-0.62,0.35-0.87c0.54,0.44,1.21,0.74,1.95,0.82l5.13,0.58c0.02,0,0.04,0,0.05,0 C108.99,120.53,108.99,120.64,108.98,120.76z M111.16,116.82c-0.05,0.48-0.29,0.91-0.67,1.22c-0.38,0.3-0.85,0.44-1.34,0.38 l-5.13-0.58c-0.48-0.05-0.91-0.29-1.22-0.67c-0.3-0.38-0.44-0.85-0.38-1.34c0.02-0.16,0.06-0.31,0.12-0.46 c0.45,0.23,0.94,0.38,1.48,0.41l6.26,0.38c0.08,0,0.15,0.01,0.23,0.01c0.2,0,0.4-0.03,0.59-0.06 C111.17,116.34,111.19,116.58,111.16,116.82z M102.23,106.96c0-0.47,0.19-0.91,0.52-1.24c0.33-0.33,0.77-0.5,1.23-0.5H104 l3.06,0.02c0.29,0.07,0.6,0.15,0.93,0.24c0.88,0.25,2.27,0.52,3.49,0.27c0.33,0.32,0.54,0.77,0.54,1.27c0,0.47-0.19,0.91-0.52,1.24 s-0.76,0.48-1.24,0.5l-6.27-0.04c-0.47,0-0.91-0.19-1.24-0.52C102.41,107.87,102.23,107.43,102.23,106.96z M110.4,114.17 l-6.26-0.38c-0.96-0.06-1.7-0.89-1.64-1.86c0.03-0.47,0.24-0.9,0.59-1.21c0.04-0.03,0.08-0.05,0.12-0.08 c0.25,0.05,0.5,0.08,0.76,0.08l6.27,0.04h0.03c0.2,0,0.4-0.03,0.59-0.06c0.84,0.17,1.46,0.94,1.4,1.82 C112.2,113.49,111.39,114.22,110.4,114.17z M110.67,101.2c0.76,0.15,1.28,0.49,1.45,0.93c0.14,0.38,0.16,1.11-0.24,1.62 c-0.42,0.53-2.31,0.75-3.47,0.41c-1.64-0.47-3.36-0.85-5.1-0.63c-1.61,0.2-2.8,0.82-3.24,2.46c-0.31,1.18,0.02,3.91-1.46,5.83 c-0.09,0.12-0.16,0.24-0.27,0.35c-0.75,0.79-2.74,1.81-2.74,1.81s2.24,0.39,3.45-0.37c0.64-0.4,1.11-0.94,1.46-1.54 c0.01,0.69,0.19,1.34,0.52,1.9c-0.32,0.49-0.54,1.04-0.6,1.64c-0.07,0.62,0.03,1.21,0.23,1.75c-0.61,0.59-1.05,1.37-1.15,2.28 c-0.1,0.84,0.09,1.63,0.48,2.31c-3.14-0.21-5.61-1.24-7.15-2.99c-1.53-1.74-2.2-4.2-1.98-7.31c0.13-1.9,0.5-3.44,1.02-4.72 c0.03,0.02,0.06,0.03,0.09,0.05c0.04-0.19,0.08-0.37,0.12-0.53c0.16-0.27,0.35-0.57,0.57-0.88c0.03-0.04,0.06-0.09,0.09-0.13 c0.23-0.33,0.49-0.66,0.79-1.01c0.96-1.12,2.27-2.31,3.97-3.28c0.64-0.36,1.25-0.62,1.85-0.82c1.01-0.33,1.97-0.47,2.87-0.51 c0.05,0,0.09-0.01,0.14-0.01c0.28-0.01,0.56-0.02,0.83-0.01c0.21,0,0.45,0.02,0.71,0.04c0.05,0,0.09,0.01,0.14,0.01 c0.25,0.03,0.52,0.06,0.8,0.1c0.04,0.01,0.07,0.01,0.11,0.02c0.61,0.09,1.26,0.21,1.89,0.34 C108.74,100.7,110.52,101.17,110.67,101.2z M115.36,81.14c-0.81,1.39-2.13,2.57-3.75,3.06c-1.62,0.5-3.37,0.2-4.85-0.47 c-1.47-0.79-2.65-1.63-4.03-2.32c-1.35-0.71-2.77-1.28-4.18-1.91c-1.39-0.64-2.93-1.23-3.99-2.54c-0.48-0.69-0.65-1.53-0.59-2.33 c0.04-0.39,0.13-0.78,0.2-1.16l0.38-1.1c2.26-6.69,4.04-12.57,9.29-11.38c5.25,1.18,10.17,3.54,12.27,11.01 C117.11,74.91,117.02,78.34,115.36,81.14z" fill="#231F20"/>
    <path d="M40.3,29.34c-6.15-9.08-8.7-18.82-8.7-18.82C26.66,16.75,28.95,28.99,40.3,29.34z" fill="#231F20"/>
    <path d="M16.99,15.59c-8.48,8.83-3.23,20.75,9.44,16.93C17.1,26.09,17.54,20.76,16.99,15.59z" fill="#231F20"/>
    <path d="M76.51,10.53c0,0-2.55,9.74-8.7,18.82C79.16,28.99,81.45,16.75,76.51,10.53z" fill="#231F20"/>
    <path d="M57.55,17.81c-0.01-1.73-0.23-3.46-0.76-5.19c-0.54-1.73-1.29-3.46-2.74-5.19 c-1.45,1.73-2.2,3.46-2.74,5.19c-0.53,1.73-0.75,3.46-0.76,5.19c0,1.73,0.22,3.46,0.75,5.19c0.54,1.73,1.29,3.46,2.75,5.19 c1.46-1.73,2.21-3.46,2.75-5.19C57.34,21.28,57.55,19.54,57.55,17.81z" fill="#231F20"/>
  </g>
</svg>