<svg width="128" height="128" xmlns="http://www.w3.org/2000/svg">
  <g>
    <path d="M65.8,27.7c-20.9,0-37.9,17-37.9,37.9c0,20.9,17,37.9,37.9,37.9c20.9,0,37.9-17,37.9-37.9 C103.7,44.7,86.8,27.7,65.8,27.7z M71.5,90.3c-2,0.5-4,0.8-6.2,0.8c-8.9,0-16.7-4.8-20.9-12c-2.5-3.9-3.9-8.5-3.9-13.5 c0-14,11.3-25.3,25.3-25.3s25.4,11.3,25.4,25.3C91.2,77.7,82.8,87.8,71.5,90.3z"/>
    <circle cx="66" cy="66.2" r="23.6"/>
    <path d="M23.2,16c-1,0-1.4,1-1.5,3.1L20.6,36c0,1-0.6,1.6-1.4,1.6C18.5,37.7,18,37,18,36l-1.4-16.9 C16.4,16.9,16,16,15.2,16s-1.4,0.9-1.4,3.1L12.4,36c-0.2,1-0.8,1.6-1.4,1.6S9.9,37,9.7,36L8.6,19.1C8.4,17,8,16,7.1,16 c-0.9,0-1.3,1-1.5,3.1C5.1,27.5,4,35.8,4,49.3c0,3.1,1,5.6,2.8,7l3.5,2.8c0.9,0.7,1.4,1.8,1.4,3.8l-1.4,47.7c0,2.8,2.2,5.1,5,5.1 s5-2.3,5-5.1l-1.5-47.7c-0.1-1.9,0.5-3.2,1.4-3.8l3.5-2.7c1.8-1.4,2.9-4,2.9-7c-0.3-13.6-1.3-21.9-1.9-30.3 C24.6,17,24.1,16,23.2,16z"/>
    <path d="M122,63.6V20.1c0-3.6-1.1-4.6-3.2-3.3c-5.3,3.5-10.5,20.6-10.5,41.5c0,7.7,7.6,6.7,8,9l-2.4,43.5 c0,2.8,2.2,5.1,5,5.1c2.8,0,4.6-2.3,4.5-5.1L122,63.6z"/>
  </g>
</svg>