<svg viewBox="0 0 128 128" xmlns="http://www.w3.org/2000/svg">
  <g>
    <path d="M43.4,52.3c0.1,0,0.2,0,0.3-0.1c0.1,0,0.2-0.1,0.3-0.1c0.1,0,0.2-0.1,0.4-0.1c0.1,0,0.2-0.1,0.4-0.1c0.1,0,0.3-0.1,0.4-0.1 c0.1,0,0.2,0,0.2-0.1c0.1,0,0.2,0,0.2,0c0.2,0,0.3-0.1,0.5-0.1c0.3,0,0.6-0.1,1-0.1c0.3,0,0.7,0,1,0c0.3,0,0.7,0,1,0 c0.3,0,0.7,0.1,1,0.1c0.2,0,0.3,0.1,0.5,0.1c0.1,0,0.1,0,0.2,0c0.1,0,0.2,0,0.2,0.1c0.1,0,0.3,0.1,0.4,0.1c0.1,0,0.3,0.1,0.4,0.1 c0.3,0.1,0.5,0.2,0.7,0.2c0.1,0,0.2,0.1,0.3,0.1c0.1,0,0.2,0.1,0.2,0.1c0.3,0.1,0.5,0.2,0.5,0.2l0.3,0.1c0.5,0.2,1,0.1,1.4-0.2 c0.7-0.5,0.9-1.5,0.4-2.1c0,0-0.2-0.2-0.5-0.6c-0.1-0.1-0.2-0.2-0.3-0.3c-0.1-0.1-0.2-0.2-0.3-0.3c-0.1-0.1-0.2-0.2-0.4-0.3 c-0.1-0.1-0.3-0.2-0.5-0.3s-0.3-0.2-0.5-0.3c-0.2-0.1-0.4-0.2-0.6-0.3c-0.2-0.1-0.4-0.2-0.7-0.3c-0.2-0.1-0.5-0.2-0.7-0.3 c-0.5-0.1-1-0.3-1.5-0.4c-0.5-0.1-1-0.1-1.6-0.1c-0.5,0-1.1,0-1.6,0.1c-0.5,0.1-1,0.2-1.5,0.4c-0.2,0.1-0.5,0.2-0.7,0.3 c-0.2,0.1-0.5,0.2-0.7,0.3s-0.4,0.2-0.6,0.3c-0.2,0.1-0.3,0.2-0.5,0.3c-0.2,0.1-0.3,0.2-0.5,0.3c-0.1,0.1-0.3,0.2-0.4,0.4 s-0.2,0.2-0.4,0.3c-0.1,0.1-0.1,0.2-0.2,0.3c-0.2,0.3-0.4,0.5-0.4,0.5c-0.3,0.4-0.4,1-0.2,1.5c0.3,0.8,1.3,1.2,2.1,0.9 c0,0,0.2-0.1,0.6-0.3C43.2,52.4,43.3,52.3,43.4,52.3z"/>
    <path d="M87,49.9c-0.1-0.1-0.1-0.2-0.2-0.3c-0.1-0.1-0.2-0.2-0.4-0.3S86.1,49,86,48.9c-0.2-0.1-0.3-0.2-0.5-0.3 c-0.2-0.1-0.3-0.2-0.5-0.4c-0.2-0.1-0.4-0.2-0.6-0.3c-0.2-0.1-0.4-0.2-0.6-0.3c-0.2-0.1-0.5-0.2-0.7-0.3c-0.5-0.1-1-0.3-1.5-0.3 c-0.5-0.1-1-0.1-1.6-0.1c-0.5,0-1.1,0-1.6,0.1c-0.5,0.1-1,0.2-1.5,0.3c-0.2,0.1-0.5,0.2-0.7,0.3c-0.2,0.1-0.5,0.2-0.7,0.3 c-0.2,0.1-0.4,0.2-0.6,0.3c-0.2,0.1-0.3,0.2-0.5,0.4c-0.2,0.1-0.3,0.2-0.5,0.3c-0.1,0.1-0.3,0.2-0.4,0.3s-0.2,0.2-0.3,0.3 c-0.1,0.1-0.2,0.2-0.3,0.3c-0.3,0.4-0.4,0.6-0.4,0.6c-0.3,0.4-0.4,0.9-0.2,1.4c0.3,0.8,1.2,1.2,2,1l0.3-0.1c0,0,0.2-0.1,0.5-0.2 c0.1,0,0.2-0.1,0.2-0.1c0.1,0,0.2-0.1,0.3-0.1c0.2-0.1,0.4-0.2,0.7-0.2c0.1,0,0.2-0.1,0.4-0.1c0.1,0,0.3-0.1,0.4-0.1 c0.1,0,0.1,0,0.2-0.1c0.1,0,0.2,0,0.2,0c0.1,0,0.3-0.1,0.5-0.1c0.3,0,0.6-0.1,1-0.1c0.3,0,0.7,0,1-0.1c0.3,0,0.7,0,1,0.1 c0.3,0,0.7,0.1,1,0.1c0.1,0,0.3,0.1,0.5,0.1c0.1,0,0.2,0,0.2,0c0.1,0,0.1,0,0.2,0.1c0.1,0,0.3,0.1,0.4,0.1c0.1,0,0.3,0.1,0.4,0.1 c0.1,0,0.2,0.1,0.4,0.1c0.1,0,0.2,0.1,0.3,0.1c0.1,0,0.2,0.1,0.3,0.1c0.1,0,0.2,0.1,0.3,0.1c0.3,0.2,0.6,0.3,0.6,0.3 c0.5,0.2,1,0.2,1.5-0.1c0.7-0.5,0.9-1.5,0.4-2.2C87.3,50.4,87.2,50.2,87,49.9z"/>
    <ellipse cx="47.7" cy="59.3" rx="4.8" ry="5"/>
    <ellipse cx="80.3" cy="59.3" rx="4.8" ry="5"/>
    <path d="M72.2,76.2c-3.1,1.9-13.4,1.9-16.5,0c-1.8-1.1-3.6,0.6-2.9,2.2c0.7,1.6,6.3,5.3,11.2,5.3s10.3-3.7,11.1-5.3 C75.8,76.7,74,75.1,72.2,76.2z"/>
    <path d="M64,72.6c2.8,0,4.2-2,4.5-2.6c0.3-0.7,0-1.3-0.7-1.6c-0.1,0-0.2-0.1-0.3-0.1h-6.9c-0.1,0-0.2,0-0.3,0.1 c-0.6,0.2-1,0.9-0.7,1.6C59.8,70.7,61.2,72.6,64,72.6z"/>
    <path d="M98.7,101.7c0.4-0.6,0.8-1.1,1.1-1.7c4.3-7.8,5-18.1,2.2-26.5c-0.3-0.9-0.6-1.9-0.9-3c0.3,0,0.5,0.1,0.8,0.1 c3.7,0,6.8-3,6.8-6.8c0-2.7-1.5-5-3.8-6.1c0.2-3,0.4-7.3,0.5-11.5c0.2-7.4,0.9-21.9-14.5-34.7c-5.4-4.5-13.4-7.2-27.3-7.2 c-21.1,0-31.9,11.2-35,26.5c-3.7,3-4,8.5-0.8,12.2c0.5,0.6,1,1.1,1.6,1.5c0.1,2.1,0.1,4.7,0.3,7.6c0,0.2,0,0.4,0,0.5 c-1.9,2-3,4.8-3,7.8c0,2,0.5,3.8,1.3,5.4c-0.6,3.1-1.3,6-2,8c-2.6,7.9-2.2,17.5,1.5,25c0.4,0.8,1,1.6,1.7,2.5 C19,105.4,12,111.8,12,121v3h43.3v-3c0.2,0.1,0.5,0.3,0.7,0.4c1.8,1,4.8,1.5,7.8,1.5c3,0,5.9-0.5,7.7-1.4c0.3-0.2,0.7-0.4,1.1-0.6 v3.1H116v-3C116,112.2,109,105.8,98.7,101.7z M101.3,60.2c0.2,0,0.4-0.1,0.6-0.1c2.1,0,3.8,1.7,3.8,3.8s-1.7,3.8-3.8,3.8 c-0.6,0-1.1-0.1-1.6-0.4c-0.1-0.5-0.2-0.9-0.3-1.4c0.8-1.6,1.3-3.4,1.3-5.3C101.3,60.4,101.3,60.3,101.3,60.2z M28.7,36.5 c0.2-1.5,1-2.8,2.2-3.6c0.4-0.3,1-0.6,1.6-0.6c0.2,0,0.3,0,0.5,0c0.1,0,14.1-2.2,30.9-2.2c16.8,0,31.2,2.2,31.4,2.2 c0.1,0,0.3,0,0.5,0c0.4,0,0.9,0.2,1.5,0.7c1.4,1.1,2.2,2.8,2.2,4.6S98.6,41,97.2,42c-0.5,0.4-0.9,0.6-1.3,0.7 c-2.2-0.4-12.8-2.2-32-2.2c-19,0-29.3,1.8-31.6,2.2c-0.5-0.1-1.2-0.6-2.2-1.7C29,39.8,28.5,38.1,28.7,36.5z M29.5,56.7 c-0.2,1.6-0.4,3.4-0.7,5.2c-0.1-0.4-0.1-0.9-0.1-1.3C28.7,59.1,29,57.8,29.5,56.7z M97.2,98.6c-2.8,4.9-16.2,14.3-27,20.2 c-1.2,0.7-3.7,1.1-6.2,1.1c-2.6,0-5.1-0.4-6.4-1.1c-14.6-8.1-25.3-17.1-27.3-21.2c-3.2-6.5-3.7-15.4-1.3-22.7 c1.9-5.7,4-17.5,3.8-22.8c-0.1-2.3-0.2-4.4-0.2-6.3c0.2,0,10.4-2.2,31.4-2.2c19.6,0,30.3,1.9,31.6,2.2c0,2-0.1,4.1-0.2,6.4 c-0.2,5.3,2,16.9,3.8,22.4C101.7,82.3,100.9,91.8,97.2,98.6L97.2,98.6z"/>
  </g>
</svg>