<svg width="128" height="128" xmlns="http://www.w3.org/2000/svg">
  <path d="M121.8,111.2L85.7,75.1C90.9,67.7,94,58.7,94,49C94,24.1,73.9,4,49,4S4,24.1,4,49s20.1,45,45,45 c9.7,0,18.7-3.1,26.1-8.3l36.1,36.1c1.4,1.4,3.3,2.2,5.3,2.2s3.9-0.8,5.3-2.2c1.4-1.4,2.2-3.3,2.2-5.3S123.2,112.6,121.8,111.2z M53.7,83.9c-19.8,0-34.2-13.7-34.2-32c0-15.5,12.6-28.3,28.1-28.1c16.2,0.2,22.7,9.4,24.8,14.9c1.2,3.1,1.7,6.5,1.7,9.8 c0,13.8-9.6,20.2-21.8,20.2c-7.9,0-16-6.3-16-16.3c0-9.1,7.3-13,13.6-13c8.1,0,10.5,4.6,11.3,9.3c0.9,5.5-4.1,10-8.9,9.8 c-4.2-0.2-6.5-3.8-6.5-6.8c0-2.4,2.1-4.4,4.7-4.4c2.1,0,3.8,1.6,3.8,3.5c0,1.5-1.2,2.6-2.7,2.8c-0.9,0-1.7-0.2-2.2-1.3 c-1-1.9,1-3.1,1-3.1c-2.1,0-2.3,2.3-2.1,3.6s1.8,3,3.8,3c5,0,5.7-3.6,5.4-5.9c-0.4-2.5-2.9-5.1-6.6-5.1c-3.4,0-7,2.9-7.1,6.8 c-0.2,5.8,3.1,9.2,8.5,9.6c6.2,0.5,13.2-4,13.3-11.8c0.1-6.2-4.1-15.8-16-15.3c-9.3,0.4-18.9,7.3-18.9,19.2c0,13,9.6,21.8,22.3,21.8 c5.7,0,11.1-1.4,15.5-4.3c7.2-4.6,12-12.7,12-23.8c0-15-10.4-31.1-34-30.7C26.1,16.8,11,35.8,11,54.5c0,5.2,1,10.2,2.9,14.9 c-2.7-5.6-4.2-11.9-4.2-18.5c0-12.6,6.4-26,14.1-31.9c21-16,45.5-5.7,54.7,4.9C102.4,51.3,77.6,84.1,53.7,83.9z"/>
</svg>