<svg viewBox="0 0 128 128" xmlns="http://www.w3.org/2000/svg">
  <g>
    <path d="M123.4,89.4c0.1-0.3,0.3-1.2-0.8-1.7c-0.1-0.1-0.4-0.2-0.7-0.3c0.5-0.1,0.8-0.4,0.9-0.7c0.2-0.4,0.2-0.8,0-1.1 c-0.2-0.4-0.5-0.6-0.9-0.8l-3.2-1.1c0,0-2.1-0.7-2.9-1c-0.3-0.1-1.2-0.3-2.2,0.1l-9.6-5c-0.4-0.2-0.7-0.3-1-0.4l-9-2.2l0.1-0.6 l-8.1-1.6l-0.1,0c0,0,0,0,0,0c-0.3-0.1-1-0.4-1.2-0.6c0,0,0,0,0,0l-7.2-10.6l0,0L74,57l2.4-10.7l-0.8-0.2l2.2-10.4l1.5-22l0.5-0.2 c0.1,0,0.2,0,0.2,0c0.8,0.1,2.1,0.4,2.6-0.6c0.1-0.3,0.2-0.5,0.2-0.7c0.3-0.1,0.5-0.3,0.6-0.6c0.1-0.3,0.1-0.5,0.1-0.7 c0.3-0.1,0.5-0.3,0.7-0.7c0.1-0.3,0.1-0.6,0.1-0.8c0.3-0.1,0.6-0.3,0.7-0.7c0.1-0.2,0.1-0.5,0-0.7c0.2-0.1,0.3-0.2,0.5-0.3 C85.7,7.6,86,7.2,86,6.7c0-1.5-1.2-1.6-2.4-1.7L74,4.1C72,4,70.4,5.4,70.2,7.3l-0.4,3.5c0,0,0,0.1-0.1,0.2L67,33.1l-3,10l-0.8-0.2 l0,0l0,0l-3.5,12.6l-11.5-3.2l-0.3,0.9c-5.4-1.4-10.6-2.7-11.1-2.9l-21-8.2l-3-1.8C12,40,11.2,40,10.5,40.3c-0.8,0.3-1.4,1-1.8,1.9 l-3.7,9c-0.4,0.9-1,2.2,0.4,2.9c0.6,0.3,1.1,0.3,1.4,0.2c0.1,0,0.2-0.1,0.4-0.2c0.2,0.1,0.4,0.2,0.6,0.2c0.4,0.1,0.7,0,1-0.2 c0.1,0.1,0.4,0.3,0.7,0.3c0.4,0,0.7-0.1,0.9-0.3c0.1,0.1,0.3,0.2,0.6,0.3c0.3,0,0.6-0.1,0.8-0.3c0.1,0.1,0.3,0.2,0.6,0.2 c1,0,1.3-1.2,1.5-2c0-0.2,0.1-0.4,0.1-0.5l0.2-0.3L34,61c0.1,0,0.1,0,0.2,0c0.1,0,0.2,0.1,0.3,0.1c0,0,0.1,0,0.1,0l9.9,3.5 l-0.2,0.8l0,0l0,0l11.2,3.8l3.4,5l0.1,0l7.4,10.8c0.2,0.2,0.2,1.8,0.2,2.4l0.2,8.4h0.7l0.7,23.8l-9,1c-1.4,0.3-2.4,0.9-2.4,1.7 c0,0.9,1.2,1.5,2.4,1.5h11.9c1.6,0,2.8-1.3,2.8-2.9V121l0.7-22.6c1.1,2.2,2.8,4.3,5.6,4.7c1.2,2.4,3.1,3.4,3.6,3.6 c2.4,0.8,3.9-0.1,4.5-0.7c0.5,0.4,1.6,1.1,3,1.1c0.5,0,1.1-0.1,1.7-0.3c0.5-0.2,1.2-0.6,1.8-1.1c1-0.8,1.8-2,2.1-3.2 c0.3-1,0.4-1.6,1.3-2c0.8-0.3,1.8,0.2,1.8,0.2l0.6,0.3l0.1-0.7c0.3-1.7-1-3-1.8-3.5c1-1.2,2.6-0.5,2.7-0.4l0.9,0.4l-0.1-1 c-0.2-1.6-1.5-3.1-3-3.6c0.2-1.4-0.2-2.9-1.3-4c-0.5-0.5-1.1-0.9-1.8-1.1c-0.2-1.6-1.1-2.9-1.9-3.7c0,0-0.7-0.1-1.3-0.2 c0,0,0,0,0,0l7.8,1.4l9.7,3.8c0.2,1.2,0.8,1.8,1.3,2.3c0.1,0.1,0.2,0.2,0.3,0.3c0.6,0.8,1.2,2.2,1.2,2.6c0,0.3,0.1,0.7,0.4,0.9 c0.2,0.2,0.6,0.4,0.9,0.4c0.1,0,0.2,0,0.3,0c0.5-0.2,1-0.9,1.1-1.7c0.1-0.4-0.1-0.8-0.4-1.2c1.5,0.8,3.9,2.2,3.9,2.2 c0.4,0.2,0.9,0.3,1.2,0.2c0.4-0.1,0.6-0.4,0.8-0.7c0.2-0.4,0.1-0.9-0.2-1.3l0,0c0.7,0.3,1.4,0.2,1.7-0.4c0.2-0.3,0.3-0.7,0.2-1 c-0.1-0.4-0.4-0.8-0.8-1l-0.1,0C122.8,90.1,123.2,89.8,123.4,89.4z M67.9,33.3l2.8-22c0,0,0-0.1,0-0.2l0.4-3.7 C71.3,6,72.5,5,73.9,5.1L83.5,6C85,6.1,85,6.2,85,6.6C85,6.9,84.9,7,84.9,7c-0.1,0.1-0.4,0.2-0.7,0.1c-0.3,0-0.5,0.1-0.5,0.4 s0.1,0.5,0.3,0.6c0.2,0.1,0.2,0.2,0.2,0.4c0,0.1-0.5,0.1-0.8,0.1c-0.3-0.1-0.5,0.1-0.6,0.3c-0.1,0.3,0.1,0.5,0.3,0.6 c0.1,0,0.3,0.1,0.3,0.2c0,0,0,0,0,0.1c-0.1,0.2-0.6,0.1-0.6,0.1c-0.2-0.1-0.5,0.1-0.6,0.3s0,0.5,0.3,0.6c0.2,0.1,0.2,0.2,0.2,0.3 c-0.1,0.2-0.5,0.1-0.5,0.1c-0.3-0.1-0.5,0.1-0.6,0.3c-0.1,0.3,0.1,0.5,0.3,0.6c0.1,0,0.1,0.2,0,0.2c-0.1,0.2-0.6,0.2-1.5,0 c-0.2,0-0.3,0-0.4-0.1c-0.1,0-0.1,0-0.2,0l-1,0.3c-0.2,0.1-0.3,0.2-0.3,0.4l-1.5,22.3l-2.2,10.3L65,43.4L67.9,33.3z M34.9,60.3 c0,0-0.1,0-0.1-0.1c-0.1,0-0.2-0.1-0.3-0.1l-0.2-0.1c-0.1,0-0.1,0-0.2,0l-20.1-9.8c-0.1-0.1-0.3-0.1-0.4,0c-0.1,0-0.2,0.1-0.3,0.3 l-0.4,0.8c-0.1,0.1-0.1,0.4-0.2,0.6c-0.3,1-0.4,1.2-0.6,1.3c0,0,0-0.1,0-0.3c0-0.3-0.1-0.5-0.4-0.6c-0.3-0.1-0.5,0.1-0.6,0.4 c-0.1,0.3-0.2,0.6-0.3,0.6c0,0-0.1,0-0.1,0c0-0.1,0-0.2,0-0.3c0.1-0.3-0.1-0.5-0.4-0.6c-0.3-0.1-0.5,0.1-0.6,0.4 c0,0.1-0.3,0.6-0.5,0.6c-0.1,0-0.1,0-0.1,0c0,0,0-0.2,0-0.3c0.1-0.3-0.1-0.5-0.3-0.6c-0.3-0.1-0.5,0.1-0.6,0.3 c-0.1,0.2-0.3,0.6-0.4,0.5c-0.2,0-0.2-0.1-0.3-0.1c0-0.2-0.2-0.4-0.4-0.5C7,52.6,6.8,52.8,6.7,53c-0.1,0.2-0.2,0.3-0.3,0.3 c-0.1,0-0.3,0-0.6-0.1c-0.4-0.2-0.5-0.4,0-1.7l3.7-9c0.3-0.7,0.7-1.2,1.3-1.4c0.5-0.2,1-0.1,1.5,0.1l3.1,1.8l21.1,8.2c0,0,0,0,0,0 c0.2,0.1,5.5,1.4,11.1,2.9l-2.9,9.6L34.9,60.3z M72.7,121L72.7,121c0,1.1-0.8,2-1.8,2H59c-0.8,0-1.3-0.4-1.4-0.5 c0-0.1,0.3-0.4,1.6-0.7l9-1c0.5-0.1,0.9-0.5,0.9-1L68.3,96h5.2L72.7,121z M74.5,96.9L74.5,96.9L74.5,96.9L74.5,96.9z M91.3,85.2 c0.5,0.1,0.9,0.4,1.3,0.8c0,0,0,0,0,0.1C92.3,85.9,91.9,85.6,91.3,85.2z M91.2,85.3c0,0-0.1-0.1-0.1-0.1 C91.1,85.2,91.2,85.2,91.2,85.3C91.2,85.2,91.2,85.3,91.2,85.3z M85,84c1.9,0,4.9,0.7,7.8,4.2c0.4,0.5,0.8,1,1.1,1.5l-0.1,0.2 c0,0-1.3,1.7-2.1,4.3c-0.2,0.5-0.3,1.1-0.4,1.6C91,97,90.8,98.2,90,99.3c-0.2,0.3-0.5,0.6-0.7,0.8c-1.1,1-2.4,0.8-3.1,0.5 c0,0,0,0,0,0c-0.6,0.5-2.3,1.5-5-0.6c-0.3-0.2-0.7-0.5-1.2-0.9c-2-2.4-3-5-2.8-7.5c0.1-2.2,1.1-4.2,2.8-5.7 C81.3,84.6,83.1,84,85,84z M77.2,82.7c0.3-0.3,0.8-0.5,1.2-0.5c0.6,0,1.1,0.2,1.5,0.7l0.9,1.1c-0.6,0.3-1.1,0.7-1.6,1.1 c-0.5,0.4-1,0.9-1.4,1.5L77,85.5C76.3,84.7,76.4,83.4,77.2,82.7z M77.4,97.1c0.1,0.3,0.5,1.2,1,2c-0.2-0.1-0.3-0.2-0.4-0.4 C77.6,98.2,77.4,97.6,77.4,97.1z M122.5,89c-0.1,0.2-0.5,0.1-0.6,0.1c-0.4-0.2-3.4-1.3-3.4-1.3c-0.2-0.1-0.4-0.1-0.5,0 c-0.2,0.1-0.3,0.2-0.4,0.4c0,0,0,0.1,0,0.1c-0.1,0.3,0.1,0.7,0.4,0.8l4,2c0.2,0.1,0.3,0.2,0.3,0.3c0,0,0,0.1,0,0.2 c0,0-0.1,0.2-0.5,0l-3.9-1.8c-0.2-0.1-0.3,0-0.5,0c-0.1,0.1-0.2,0.2-0.2,0.4c0,0.3,0,0.3,3.1,2.6c0.2,0.1,0.4,0.3,0.3,0.5 c-0.1,0.1-0.1,0.2-0.2,0.2c-0.1,0-0.3,0-0.4-0.1c0,0-3.7-2.1-4.7-2.7c0,0-0.1,0-0.1,0c-0.1-1.1-0.7-2.3-1.5-3 c-0.2-0.1-0.3,0-0.1,0.2c0.8,0.7,1.2,1.8,1.2,2.9c0,0,0,0-0.1,0c0,0-0.1,0-0.1,0.1c-0.2,0.2-0.3,0.4-0.2,0.7 c0.1,0.3,0.2,0.6,0.4,0.9c0.1,0.2,0.3,0.6,0.3,0.8c-0.1,0.5-0.4,0.8-0.4,0.9c-0.1,0-0.3-0.1-0.3-0.1c0.1-1-1-2.8-1.4-3.3 c-0.1-0.1-0.2-0.3-0.4-0.4c-0.4-0.5-1-1-1.1-2c0-0.2-0.1-0.4-0.3-0.4l-10-3.9l-8.8-1.6l1.2-6l9,2.2c0.2,0,0.5,0.1,0.8,0.3l9.9,5.1 c0.1,0.1,0.3,0.1,0.5,0c0.8-0.4,1.4-0.2,1.7-0.1c0.9,0.3,2.9,1,2.9,1l3.3,1.1c0.2,0,0.3,0.1,0.3,0.2c0,0,0,0.1,0,0.2 c0,0.1-0.1,0.2-0.5,0.1l-2-0.5c-0.3-0.1-0.7,0.1-0.8,0.5c-0.1,0.4,0,0.7,0.4,0.9c1.9,0.8,3,1.2,3.2,1.3 C122.6,88.7,122.5,88.9,122.5,89z"/>
    <path d="M90.1,91.8c0,0-0.1,0-0.1,0.1c0,0,0,0-0.1,0c0,0,0,0-0.1,0c0,0-0.1,0-0.1,0.1c0,0-0.1,0-0.1,0c-0.1,0-0.1,0.1-0.2,0.1 c0,0,0,0-0.1,0c0,0,0,0-0.1,0c-0.1,0-0.1,0-0.1,0l-0.1,0c-0.1,0-0.2,0.2-0.3,0.3c-0.1,0.2,0.1,0.5,0.3,0.5c0,0,0.1,0,0.2,0 c0,0,0.1,0,0.1,0s0.1,0,0.1,0s0.1,0,0.2,0c0,0,0.1,0,0.2,0s0.1,0,0.2,0c0.1,0,0.1,0,0.2,0c0.1,0,0.1,0,0.2-0.1c0.1,0,0.1,0,0.2-0.1 c0.1-0.1,0.3-0.1,0.4-0.2c0.1-0.1,0.2-0.2,0.4-0.3c0.1-0.1,0.2-0.2,0.3-0.3c0.1-0.1,0.2-0.2,0.3-0.4c0-0.1,0.1-0.1,0.1-0.2 c0-0.1,0.1-0.1,0.1-0.2c0-0.1,0.1-0.1,0.1-0.2c0-0.1,0-0.1,0.1-0.2c0-0.1,0-0.1,0-0.2c0-0.1,0-0.1,0-0.2c0-0.1,0-0.1,0-0.1 c0,0,0-0.1,0-0.1c0-0.1,0-0.2,0-0.2c0-0.1-0.1-0.3-0.3-0.4c-0.2-0.1-0.5,0-0.6,0.2c0,0,0,0.1-0.1,0.2c0,0,0,0.1,0,0.1 c0,0,0,0,0,0.1c0,0,0,0,0,0.1c0,0,0,0.1-0.1,0.1c0,0,0,0.1-0.1,0.1c0,0-0.1,0.1-0.1,0.1c0,0,0,0,0,0c0,0,0,0,0,0.1 c0,0,0,0.1-0.1,0.1c-0.1,0.1-0.1,0.1-0.2,0.2c-0.1,0.1-0.1,0.1-0.2,0.2c-0.1,0.1-0.2,0.1-0.2,0.2C90.2,91.7,90.2,91.8,90.1,91.8z"/>
    <path d="M84.6,96.2L84.6,96.2c0,0.1-0.1,0.1-0.1,0.2c0,0,0,0,0,0.1c0,0,0,0,0,0.1c0,0.1-0.1,0.1-0.1,0.2c0,0,0,0.1-0.1,0.1 c0,0-0.1,0.1-0.1,0.1c0,0,0,0,0,0c0,0,0,0,0,0.1c0,0,0,0.1-0.1,0.1c-0.1,0.1-0.1,0.1-0.2,0.2c-0.1,0.1-0.1,0.1-0.2,0.2 c-0.1,0.1-0.2,0.1-0.2,0.2c-0.1,0.1-0.1,0.1-0.2,0.2c0,0-0.1,0-0.1,0.1c0,0,0,0-0.1,0c0,0,0,0-0.1,0c0,0-0.1,0-0.1,0.1 c0,0-0.1,0-0.1,0c0,0-0.1,0-0.1,0c0,0,0,0-0.1,0c0,0,0,0-0.1,0c0,0-0.1,0-0.1,0c-0.1,0-0.2,0-0.2,0c-0.1,0.1-0.3,0.2-0.3,0.3 c-0.1,0.2,0.1,0.5,0.3,0.6c0,0,0.1,0,0.2,0c0,0,0,0,0.1,0c0,0,0.1,0,0.1,0s0.1,0,0.2,0c0.1,0,0.1,0,0.2,0s0.1,0,0.2,0s0.1,0,0.2,0 c0.1,0,0.1,0,0.2-0.1c0.1,0,0.1,0,0.2-0.1c0.1-0.1,0.3-0.1,0.4-0.2c0.1-0.1,0.2-0.2,0.4-0.3c0.1-0.1,0.2-0.2,0.3-0.3 c0.1-0.1,0.2-0.2,0.3-0.4c0-0.1,0.1-0.1,0.1-0.2c0-0.1,0.1-0.1,0.1-0.2c0-0.1,0-0.1,0.1-0.2s0-0.1,0-0.2c0-0.1,0-0.1,0-0.2 c0,0,0-0.1,0-0.1c0-0.1,0-0.1,0-0.1c0,0,0-0.1,0-0.1c0-0.1,0-0.2,0-0.2c0-0.1-0.1-0.3-0.2-0.4C85,95.9,84.7,96,84.6,96.2z"/>
    <path d="M89.8,91c0.7-0.4,0.9-1.2,0.5-1.9c-0.4-0.7-1.2-1-1.9-0.6c-0.7,0.4-0.9,1.2-0.5,1.9C88.3,91.1,89.1,91.4,89.8,91z"/>
    <path d="M82.8,97.1c0.7-0.4,0.9-1.2,0.5-1.9s-1.2-1-1.9-0.6c-0.7,0.4-0.9,1.2-0.5,1.9C81.3,97.2,82.2,97.4,82.8,97.1z"/>
    <path d="M79.3,90.7c0.1,0.5,0.8,0.5,1,0c0.3-1,2.5-2.9,3.6-3.1c0.6-0.1,0.7-0.8,0.2-1c-0.4-0.2-2.3,0-3.4,0.9 C79.7,88.3,79.2,90.2,79.3,90.7z"/>
    <path d="M83.4,89.8c-0.6,0.5-0.5,1.2-0.5,1.4c0.1,0.2,0.3,0.3,0.5,0.2c0,0,0.1,0,0.1,0l1.5-1.3c0,0,0,0,0-0.1 c0.1-0.2,0-0.4-0.2-0.5C84.6,89.4,84,89.3,83.4,89.8z"/>
  </g>
</svg>