<svg width="128" height="128" xmlns="http://www.w3.org/2000/svg">
  <g>
    <path d="M78.4,8.7c-1.2-0.2-2.4,0.7-2.4,2v8.2c0,1,0.7,1.8,1.6,2c19.7,4.4,34.4,22,34.4,43s-14.7,38.6-34.4,43 c-0.9,0.2-1.6,1-1.6,2v8.2c0,1.3,1.2,2.2,2.4,2C104.3,114,124,91.2,124,63.8C124,36.4,104.3,13.6,78.4,8.7z"/>
    <path d="M78.5,101.8c16.6-4.6,28.8-19.9,28.8-38c0-18.1-12.2-33.3-28.8-38c-1.3-0.4-2.5,0.6-2.5,1.9v8.4c0,0.8,0.5,1.6,1.3,1.9 c10.5,3.8,18,13.9,18,25.7s-7.5,21.9-18,25.7c-0.8,0.3-1.3,1-1.3,1.9v8.4C76,101.2,77.2,102.1,78.5,101.8z"/>
    <path d="M78.9,83.7c7-3.9,11.7-11.3,11.7-19.9c0-8.5-4.7-16-11.7-19.9c-1.3-0.7-2.9,0.3-2.9,1.8v10.4c0,0.5,0.2,0.9,0.5,1.3 c1.4,1.8,2.2,4,2.2,6.5s-0.8,4.7-2.2,6.5c-0.3,0.4-0.5,0.8-0.5,1.3V82C76,83.4,77.6,84.4,78.9,83.7z"/>
    <path d="M56.8,6.3C37,28,24,36,24,36H8c-2.2,0-4,1.8-4,4v48c0,2.2,1.8,4,4,4h16c0,0,13.1,8,32.8,29.7c3.8,4.2,11.2,2.2,11.2-3.3 V9.5C68,4.1,60.6,2,56.8,6.3z"/>
  </g>
</svg>