<svg width="128" height="128" xmlns="http://www.w3.org/2000/svg">
  <path d="M118.2,116v-2c0-3.3-2.7-6-6-6H76v-4h33.9c3.3,0,6-2.7,6-6c0-2.6-1.7-4.8-4-5.7c-0.4-11.9-6.8-31.2-43.9-32.4 V55h6c3.8,0,4-2.1,4-4.6v-0.5c0-2.5-1.5-3.8-4-3.8H54c-2.5,0-4,1.3-4,3.8v0.5c0,2.5,0.5,4.6,4,4.6h6v4.9 c-36.6,1.4-43.2,20.5-43.8,32.3c-2.4,0.8-4.2,3-4.2,5.7c0,3.3,2.7,6,6,6h34v4H16.1c-3.3,0-6,2.7-6,6v2H10c-3.3,0-6,2.7-6,6v2h120v-2 C124,118.7,121.4,116.1,118.2,116z M18,100.9L18,100.9c-1.7,0.1-3-1.3-3-2.9c0-1.3,0.8-2.5,2.1-2.9c1.2-0.4,2-1.5,2.1-2.7 c0.3-5.2,1.9-12.8,8.2-18.8c7.5-7.2,19.9-10.8,36.8-10.8c17,0,29.4,3.6,36.8,10.8c6.2,6,7.7,13.5,7.9,18.8c0,1.2,0.8,2.3,2,2.7 c1.2,0.4,2,1.6,2,2.8c0,1.6-1.4,3-3,3H18z"/>
</svg>