<svg width="128" height="128" xmlns="http://www.w3.org/2000/svg">
  <g>
    <path d="M29.8,52.4c0.1,0,0.3-0.1,0.4-0.1c0.1,0,0.3-0.1,0.4-0.1c0.1,0,0.1,0,0.2-0.1c0.1,0,0.2,0,0.2,0c0.2,0,0.3-0.1,0.5-0.1 c0.3,0,0.7-0.1,1-0.1s0.7,0,1,0s0.7,0,1,0s0.7,0.1,1,0.1c0.2,0,0.3,0.1,0.5,0.1c0.1,0,0.2,0,0.2,0c0.1,0,0.1,0,0.2,0.1 c0.2,0,0.3,0.1,0.4,0.1c0.1,0,0.3,0.1,0.4,0.1c0.3,0.1,0.5,0.2,0.7,0.2c0.1,0,0.2,0.1,0.3,0.1s0.2,0.1,0.2,0.1 c0.3,0.1,0.5,0.2,0.5,0.2l0.3,0.1c0.5,0.2,1,0.1,1.4-0.2c0.7-0.5,0.9-1.5,0.4-2.2c0,0-0.2-0.2-0.5-0.6c-0.1-0.1-0.2-0.2-0.3-0.3 c-0.1-0.1-0.2-0.2-0.3-0.3c-0.1-0.1-0.3-0.2-0.4-0.3c-0.1-0.1-0.3-0.2-0.5-0.3c-0.2-0.1-0.3-0.2-0.5-0.3c-0.2-0.1-0.4-0.2-0.6-0.3 c-0.2-0.1-0.4-0.2-0.7-0.3c-0.2-0.1-0.5-0.2-0.7-0.3c-0.5-0.1-1-0.3-1.5-0.4c-0.5-0.1-1.1-0.1-1.6-0.1s-1.1,0-1.6,0.1 c-0.5,0.1-1,0.2-1.5,0.4c-0.2,0.1-0.5,0.2-0.7,0.3c-0.2,0.1-0.4,0.2-0.7,0.3c-0.2,0.1-0.4,0.2-0.6,0.3c-0.2,0.1-0.4,0.2-0.5,0.3 c-0.2,0.1-0.3,0.2-0.5,0.4c-0.2,0.1-0.3,0.3-0.4,0.4c-0.1,0.1-0.3,0.2-0.4,0.3c-0.1,0.1-0.2,0.2-0.2,0.3c-0.2,0.3-0.4,0.5-0.4,0.5 c-0.3,0.4-0.4,1-0.1,1.5c0.3,0.8,1.3,1.2,2.1,0.9c0,0,0.2-0.1,0.6-0.3c0.1,0,0.2-0.1,0.3-0.1c0.1,0,0.2-0.1,0.3-0.1 c0.1,0,0.2-0.1,0.3-0.1C29.5,52.5,29.6,52.5,29.8,52.4z"/>
    <ellipse cx="34.2" cy="58.9" rx="4.9" ry="5.1"/>
    <path d="M60.7,53.2l0.3-0.1c0,0,0.2-0.1,0.5-0.2c0.1,0,0.2-0.1,0.2-0.1c0.1,0,0.2-0.1,0.3-0.1c0.2-0.1,0.4-0.2,0.7-0.2 c0.1,0,0.3-0.1,0.4-0.1c0.1,0,0.3-0.1,0.4-0.1s0.2,0,0.2-0.1c0.1,0,0.2,0,0.2,0c0.2,0,0.3-0.1,0.5-0.1c0.3,0,0.7-0.1,1-0.1 s0.7,0,1,0s0.7,0,1,0s0.7,0.1,1,0.1c0.2,0,0.3,0.1,0.5,0.1c0.1,0,0.2,0,0.2,0c0.1,0,0.1,0,0.2,0.1c0.2,0,0.3,0.1,0.4,0.1 s0.3,0.1,0.4,0.1c0.1,0,0.2,0.1,0.4,0.1c0.1,0,0.2,0.1,0.3,0.1c0.1,0,0.2,0.1,0.3,0.1c0.1,0,0.2,0.1,0.3,0.1 c0.4,0.2,0.6,0.3,0.6,0.3c0.5,0.2,1.1,0.2,1.6-0.1c0.7-0.5,0.9-1.5,0.4-2.2c0,0-0.1-0.2-0.4-0.5c-0.1-0.1-0.1-0.2-0.2-0.3 c-0.1-0.1-0.2-0.2-0.4-0.3c-0.2-0.1-0.3-0.2-0.4-0.4c-0.2-0.1-0.3-0.2-0.5-0.4c-0.2-0.1-0.3-0.2-0.5-0.3c-0.2-0.1-0.4-0.2-0.6-0.3 c-0.2-0.1-0.4-0.2-0.7-0.3c-0.2-0.1-0.5-0.2-0.7-0.3c-0.5-0.1-1-0.3-1.5-0.4c-0.5-0.1-1.1-0.1-1.6-0.1s-1.1,0-1.6,0.1 c-0.5,0.1-1,0.2-1.5,0.4c-0.2,0.1-0.5,0.2-0.7,0.3c-0.2,0.1-0.5,0.2-0.7,0.3c-0.2,0.1-0.4,0.2-0.6,0.3c-0.2,0.1-0.4,0.2-0.5,0.3 c-0.2,0.1-0.3,0.2-0.5,0.3s-0.3,0.2-0.4,0.3c-0.1,0.1-0.2,0.2-0.3,0.3c-0.1,0.1-0.2,0.2-0.3,0.3c-0.3,0.3-0.5,0.6-0.5,0.6 c-0.3,0.4-0.4,0.9-0.2,1.4C59,53.1,59.9,53.5,60.7,53.2z"/>
    <ellipse cx="65.3" cy="58.9" rx="4.9" ry="5.1"/>
    <path d="M50,72.4c2.8,0,4.2-2,4.5-2.7s-0.1-1.4-0.7-1.6c-0.1,0-0.2-0.1-0.3-0.1h-7.1c-0.1,0-0.2,0-0.3,0.1c-0.6,0.3-1,0.9-0.7,1.6 C45.8,70.4,47.2,72.4,50,72.4z"/>
    <path d="M61.5,78.4c0.8-1.7-1.1-3.3-2.9-2.2c-3.2,1.9-13.6,1.9-16.8,0c-1.8-1.1-3.7,0.6-2.9,2.2c0.8,1.6,6.4,5.4,11.4,5.4 C55.1,83.8,60.7,80.1,61.5,78.4z"/>
    <path d="M66.6,22.6v4.7c0,0.4,0.4,0.8,1,0.8c0.5,0,1-0.3,1-0.8v-4.7c0-0.4-0.5-0.8-1-0.8C67,21.9,66.6,22.2,66.6,22.6z"/>
    <path d="M57.3,20.8v8.4c0,0.4,0.5,0.8,1,0.8c0.6,0,1-0.3,1-0.8v-8.4c0-0.4-0.5-0.8-1-0.8S57.3,20.3,57.3,20.8z"/>
    <path d="M49,22.3v5.4c0,0.4,0.5,0.8,1,0.8s1-0.3,1-0.8v-5.4c0-0.4-0.5-0.8-1-0.8S49,21.8,49,22.3z"/>
    <path d="M31.4,22.6v4.7c0,0.4,0.5,0.8,1,0.8c0.6,0,1-0.3,1-0.8v-4.7c0-0.4-0.4-0.8-1-0.8C31.9,21.9,31.4,22.2,31.4,22.6z"/>
    <path d="M40.7,20.8v8.4c0,0.4,0.5,0.8,1,0.8s1-0.3,1-0.8v-8.4c0-0.4-0.5-0.8-1-0.8S40.7,20.3,40.7,20.8z"/>
    <path d="M103.6,124.2c0-0.1,0.1-0.1,0.1-0.2h-0.1V124.2z"/>
    <path d="M124,55.7c-0.4-1.6-1.9-2.9-3.1-3.9c-2-1.8-4.6-3-7.4-3h-0.2c-1.2,0-2.5,0.4-3.6,0.9c-1.5,0.7-2.5,1.8-3.2,3 c-0.1,0.2-0.2,0.4-0.3,0.7h-0.9c-0.7,0-1.3,0.2-1.7,0.7c-0.3,0.3-0.5,0.7-0.7,1.1c-0.6,0.3-1.1,0.7-1.6,1.2c-1.6,1.6-2.6,3.7-2.6,6 l-0.5,26.1c-0.2,0.1-0.4,0.3-0.6,0.4c-0.4,0.4-0.6,0.9-0.6,1.3v1.5c-0.2,0.1-0.4,0.3-0.5,0.4c-0.7,0.7-1.2,1.8-1.2,2.9l-0.1,7.2 c-2.6,0.2-4.5,0.8-6,1.6c-6.6-3.5-15.3-5.8-24.5-7l-0.1-0.1L59.1,96v-1c9.6-2.8,18.1-10.3,22.1-22.5c4-1.7,6.9-5.8,6.9-10.6 c0-2.3-0.7-4.5-1.8-6.3c0.1-0.4,0.2-1.1,0.2-1.9h1.3c0-0.1,0-0.1,0-0.2c0.5,0.5,0.9,1,1.3,1.4c0.8,0.9,1.4,1.7,1.9,2.3 c0.9,1.2,1.3,1.9,1.3,1.9c0.3-0.2,0.5-0.4,0.7-0.6c0.1-0.1,0.2-0.3,0.3-0.4c0-0.1,0.1-0.1,0.1-0.2c0.1-0.1,0.1-0.2,0.2-0.3 c0.1-0.2,0.1-0.3,0.2-0.4c0.1-0.2,0.1-0.4,0.2-0.6c0-0.2,0.1-0.4,0.1-0.4l-2-12.1c2.2,0,4-1.8,4-4v-8c0-2.2-1.8-4-4-4h-2.9l-7.7-19 c-0.6-1.2-1.6-2.2-3-3c0,0-0.1,0-0.2,0c-0.1,0-0.2,0-0.3,0.1v0.2v0.1v3.2c0.3,0.2,0.5,0.5,0.7,0.7c0,0,0,0,0,0.1l7.8,19.2 c0.3,0.7,0.4,1.4,0.5,2.1c0,0.1,0,0.2,0,0.3l1.5,8.9l1.7,10.1c-5.1-6-15.1-13.6-32.7-17.2c-3.4-0.7-11.3-0.7-14.8,0 C25.1,37.5,15.1,45.1,9.9,51.1l0.6-3.8L13,32.1c0-0.1,0-0.2,0-0.3c0-0.7,0.2-1.5,0.5-2.1l7.8-19.2c0.2-0.3,0.4-0.5,0.7-0.8v5.7 c0,1,0.8,1.8,1.7,1.8h52.5c1,0,1.7-0.8,1.7-1.8v-9C74.7,5.9,61.5,4.1,50,4.1c-17.3,0-25.5,1.5-27.9,2.1c0-0.1,0-0.1-0.1-0.1L21.9,6 h-0.1c-0.7,0.4-1.4,0.9-1.9,1.4s-1,1.1-1.3,1.7L11,28H8c-2.2,0-4,1.8-4,4v8c0,2.2,1.8,4,4,4L6,56.2c0,0,0,0.1,0.1,0.4 c0.1,0.6,0.6,1.9,1.7,2.5c0,0,0.8-1.3,2.3-3.2c0.5-0.6,1.3-1.5,2.1-2.4c0,0.1,0,0.2,0,0.3h1.2c0.1,0.8,0.2,1.5,0.2,1.9 c-1.1,1.8-1.8,4-1.8,6.3c0,4.9,2.9,9,6.9,10.6c4,12.2,12.4,19.6,22.1,22.5v1l-5.4,0.5l-0.1,0.1c-12.9,1.5-24.7,5.1-31.4,11.4v2.2 v2.2V124h39.9h1.4h2h0.1h1c-1.2-4.7-2.5-9.6-4-15c1.4,1,3,1.6,4.9,1.6h1.7c1.8,0,3.5-0.6,4.9-1.6l-4.1,15h0.6h0.4h2h1.4h26h1.1h1.2 c-1.2-1.9-1.6-4.4-1.3-7.5c0.3-2.9,1.2-5.3,2.5-7.1c0.1-0.2,0.2-0.3,0.4-0.5c0.9-1,2.1-1.9,3.4-2.7c0.8-0.4,1.6-0.8,2.4-1.2 c0.9-0.4,1.7-0.6,2.5-0.8c0.3-0.1,0.7-0.1,1-0.2c0.3-0.1,0.7-0.1,1-0.1c0.1,0,0.1,0,0.2,0c0.3,0,0.7,0,1.1,0c0.4,0,1.5,0.2,2.3,0.3 c0.2,0,0.5,0.1,0.6,0.1c1.2,0.2,2.7,0.7,3.9,1c0.2,0.1,0.4,0.1,0.6,0.2c0,0,0,0,0.1,0c0.2,0.1,0.4,0.1,0.5,0.1c0.1,0,0.2,0,0.2,0.1 c0.8,0.2,1.4,0.6,1.6,1.1c0.1,0.4,0.1,1.2-0.3,1.8c-0.1,0.1-0.3,0.2-0.6,0.3c-0.3,0.1-0.7,0.2-1,0.2c-0.1,0-0.1,0-0.2,0l-1.1-0.1 h-0.5c-0.2,0-0.3-0.1-0.5-0.1c-1.8-0.6-3.7-1.4-5.6-0.9c-0.7,0.2-1.5,0.5-2.2,0.9c-0.7,0.4-1.2,1-1.5,1.7c-0.5,1.2-0.1,4.4-1.9,6.4 c-0.1,0.1-0.2,0.3-0.3,0.4c-0.9,0.8-3.1,1.9-3.1,1.9s2.5,0.5,3.9-0.2c0.7-0.4,1.3-1,1.8-1.7c0,0.8,0.1,1.5,0.5,2.2 c-0.4,0.5-0.7,1.1-0.8,1.8c-0.1,0.7,0,1.4,0.2,2c-0.2,0.2-0.4,0.4-0.6,0.6h0.9c0.1,0.1,0.1,0.2,0.2,0.3c0.1-0.1,0.2-0.2,0.3-0.3 h0.7h1.1l0.1,0.1V124H97c-0.3-0.1-0.6-0.3-0.8-0.6s-0.4-0.6-0.5-0.9c-0.1-0.2-0.1-0.5,0-0.8c0-0.2,0.1-0.4,0.2-0.7 c0.5,0.3,1.1,0.5,1.7,0.6l7,0.7h0.1c0.1,0,0.2,0,0.3,0c0.2,0,0.4,0,0.6,0c0,0.1,0.1,0.3,0.1,0.4c0,0.2,0,0.3,0,0.5 c0,0.3-0.1,0.6-0.3,0.8h0.9h0.2h1c0-0.2,0.1-0.3,0.1-0.5c0.1-0.7,0-1.4-0.2-2c0.1,0,0.1-0.1,0.2-0.1c0.8-0.7,1.4-1.7,1.5-2.7 c0.1-1.1-0.2-2.1-0.9-3c-0.1-0.2-0.3-0.3-0.4-0.5c0.8-0.7,1.3-1.7,1.3-2.8c0-1-0.3-1.9-0.9-2.7l0.1-0.1c0.9-1.1,1.2-2.2,0.8-3.3 c-0.4-1.1-1.5-2-3-2.3c-0.2,0-0.4-0.1-0.7-0.2l0.1-8.8c0-1.4-0.6-2.6-1.6-3.3v-1.5c0-0.7-0.4-1.3-1-1.7l0.5-26.1 c0-0.7,0.3-1.4,0.7-2c0.3,0.2,0.7,0.3,1.1,0.3h1.5c0.3,0,0.6-0.1,0.9-0.2c1.5,1.7,3.7,2.7,6.1,2.7c1,0,2-0.2,3-0.5 C119.2,61.8,124.9,59,124,55.7z M90,31.6c0-0.5-0.1-1-0.2-1.5H92c1.1,0,2,0.9,2,2v8c0,1.1-0.9,2-2,2h-0.3L90,31.6z M83.3,61.1 c0.7-1.1,1.3-2.3,1.9-3.2c0.5,1.2,0.8,2.6,0.8,4c0,3.4-1.7,6.3-4.1,8C82.6,67.2,83.1,64.2,83.3,61.1z M8,42.1c-1.1,0-2-0.9-2-2v-8 c0-1.1,0.9-2,2-2h2.2c-0.1,0.5-0.2,1-0.2,1.5L8.3,42.1H8z M13.1,52.5c0.3-0.3,0.4-0.4,0.5-0.4C13.4,52.3,13.3,52.4,13.1,52.5z M14,61.9c0-1.4,0.3-2.8,0.8-4c0.5,0.9,1.2,2.1,1.9,3.3c0.2,3.1,0.7,6,1.4,8.7C15.6,68.2,14,65.3,14,61.9z M28.3,85 c-5.1-5.4-8.3-12.6-9.4-21.2c0.1-2.9,0.5-6.5,1.2-10.1h0.3c0.3-2.7,1.1-5.5,2.9-7c7.5-2.8,16.7-4.5,26.4-4.5 c11.4,0,20.9,3,29.3,6.6c1,5.2,2,10.9,2,15.2c-1.2,8.5-4.3,15.7-9.4,21.1C66,91,58.3,94.3,50,94.3S34,91,28.3,85z M57.1,102.3 c0,0.8-0.2,1.5-0.4,2.2H43.3c-0.3-0.7-0.4-1.4-0.4-2.2V96c0.6,0,1.3-0.1,1.9-0.1c1.7,0.3,3.5,0.4,5.2,0.4s3.5-0.1,5.2-0.4 c0.6,0,1.2,0.1,1.9,0.1V102.3z M96.6,110.4c0.4-0.4,0.9-0.5,1.4-0.5h0.1l4.2,0.2c0,0,0,0,0.1,0c0.6,0.2,1.5,0.4,2.5,0.5 c0.4,0,0.7,0,1,0c0.1,0,0.2,0,0.3,0c0.1,0.1,0.2,0.2,0.3,0.3c0.4,0.4,0.6,0.9,0.5,1.5c0,0.5-0.3,1-0.6,1.4 c-0.3,0.3-0.6,0.4-0.9,0.5c-0.2,0-0.4,0.1-0.6,0.1l-7-0.3c-0.4,0-0.7-0.1-1-0.3c-0.2-0.1-0.3-0.2-0.4-0.4c-0.4-0.5-0.6-1-0.6-1.6 C95.9,111.3,96.2,110.7,96.6,110.4z M107,118.5c-0.1,0.5-0.3,1-0.7,1.4c0,0-0.1,0-0.1-0.1v0.1c-0.3,0.2-0.6,0.3-0.9,0.4l-0.1-0.1 v0.1c-0.1,0-0.2,0-0.3,0l-7-0.7c-0.4,0-0.8-0.2-1.2-0.5c-0.1-0.1-0.2-0.2-0.2-0.2c-0.2-0.2-0.3-0.4-0.3-0.6 c-0.1-0.3-0.1-0.6-0.1-0.9c0.1-0.6,0.4-1.2,0.9-1.5c0.3,0.1,0.6,0.1,0.9,0.1l7,0.3c0.1,0,0.1,0,0.2,0c0.2,0,0.3,0,0.5,0 c0,0,0,0,0.1,0c0.4,0.1,0.7,0.3,1,0.6l0.1,0.1C106.9,117.4,107.1,117.9,107,118.5z M121.4,58c-0.2,0.2-0.3,0.3-0.5,0.5 c-0.1,0.1-0.3,0.2-0.4,0.3c-0.2,0.2-0.4,0.3-0.7,0.5c-1.2,0.8-2.5,1.4-3.7,1.8c-0.8,0.3-1.6,0.4-2.5,0.4c-1.8,0-3.6-0.7-4.8-2.1 c-0.1-0.1-0.2-0.2-0.3-0.4c-0.1-0.1-0.2-0.3-0.2-0.5c0,0,0-0.1-0.1-0.1c-0.1-0.1-0.1-0.2-0.2-0.4c-0.1-0.4-0.3-0.7-0.3-1.2 c-0.1-0.6-0.1-1.3-0.1-1.9c0-0.1,0-0.3,0-0.4c0,0,0,0,0-0.1c0-0.2,0-0.3,0.1-0.5c0-0.2,0.1-0.3,0.1-0.5c0-0.1,0-0.1,0.1-0.2 c0.5-1,1.4-1.8,2.5-2.3c0.9-0.4,2-0.7,2.9-0.7h0.2c2.1,0,4.3,1,6.2,2.6l0.1,0.1c0.4,0.4,0.9,0.8,1.3,1.2c0.1,0.1,0.2,0.2,0.3,0.4 c0.4,0.5,0.7,0.9,0.8,1.4C122.4,56.6,122.1,57.3,121.4,58z"/>
    <path d="M105.2,124c0,0,0,0.1,0,0.1C105.2,124.1,105.2,124.1,105.2,124L105.2,124z"/>
    <path d="M105.2,124.1C105.2,124.1,105.1,124.2,105.2,124.1C105.2,124.2,105.2,124.2,105.2,124.1z"/>
  </g>
</svg>