<svg width="128" height="128" xmlns="http://www.w3.org/2000/svg">
  <path d="M60.1,76.8c11.2,8.3,29.1,5.8,44.1-1.2c9.9-4.7,19.7-17.2,19.7-17.2c-33.8-16.5-62.2,0.6-65.6,12l-0.1-0.2 c0,0-3.5,1.3-8.1,2.1c3.8-6.1,7.7-12.1,9.8-15.5c0.6,0.1,1.2,0.1,2,0c13-1.5,23.9-13,30.1-27.3c5.3-12.3,3.7-25.4,3.7-25.4 C83.2,7,72.9,15.3,67,23.5C60.7,32.2,52.6,50,57,55.4c-1.6,2.5-3.9,6.2-6.6,10.4c0-2.4-0.4-5.1-0.7-6.6c9-2.6,9.5-39.4-20.1-55.1 c0,0-4.1,53.4,18,55.2c0.1,2.2,0.5,6.7,0.9,9.7c-4.7,7.4-9.6,15.3-11.8,19c-2.1,3.6-4.8,7.6-7.1,11.1c-2.8,4.2-5.2,7.9-6.1,10 c-0.1,0.1-0.1,0.3-0.2,0.4c-0.1-0.3-0.2-0.7-0.4-1.1c-0.9-2.1-1.5-4.4-1.8-5.5c7.6-2.8,12.8-20,8.9-37.5c-4-17.9-8.6-20.7-16-31.8 c0,0-7.4,13.7-8.7,24.2c-2.1,15.8-1.4,36.4,9.3,44c1.5,1.1,2.9,1.5,4.4,1.5c0.3,1.1,1,3.6,1.9,5.9c0.6,1.4,0.7,2,0.8,2.5 c0,0.2,0.1,0.3,0.1,0.5c-2.2,3.4-5.7,8-7.2,9.9l2.6,2c0.3-0.4,7.7-9.8,9.4-13.6c0.6-1.5,2.3-4.1,4.3-7.1c0.6,0,3.7,0.2,6.6,0.3 c-2.1,16.4,27.9,18.1,45.2,12.9c10.5-3.1,23-12.5,23-12.5C82.4,84.4,43,90.8,38.1,101.5c-2.1-0.1-4.3-0.2-5.8-0.3l0.2-0.3 c2.3-3.5,5-7.6,7.2-11.3c1.7-3,5.3-8.7,9.1-14.8c4.2-0.6,7.7-1.6,9.3-2.2C58,74.3,58.6,75.7,60.1,76.8z"/>
</svg>