<svg viewBox="0 0 128 128" xmlns="http://www.w3.org/2000/svg">
  <path d="M64.15,7C68.87,7,73,11.26,73,16.29v64.04c0,1.05,0.55,2.03,1.46,2.57c6.15,3.69,9.82,10.28,9.82,17.63 c0,11.47-9.3,20.8-20.74,20.8c-11.46,0-20.79-9.33-20.79-20.8c0-7.36,3.66-13.95,9.79-17.63c0.9-0.54,1.46-1.52,1.46-2.57V16.29 C54,11.26,58.01,7,62.76,7H64 M64.3,4h-1.55C56.24,4,51,9.77,51,16.29v64.04c-7,4.2-11.24,11.68-11.24,20.2 c0,13.14,10.64,23.8,23.79,23.8s23.74-10.65,23.74-23.8c0-8.52-4.28-16-11.28-20.2V16.29C76,9.77,70.82,4,64.3,4L64.3,4z M69.92,85.89V23.82c0-3.53-2.86-6.39-6.39-6.39c-3.53,0-6.39,2.86-6.39,6.39v9.55h5.73c1.66,0,3,1.34,3,3v0.39c0,1.66-1.34,3-3,3 h-5.73v12.17h5.73c1.66,0,3,1.34,3,3v0.39c0,1.65-1.34,3-3,3h-5.73v12.17h5.73c1.66,0,3,1.34,3,3v0.39c0,1.65-1.34,3-3,3h-5.73v9.02 c-5.82,2.54-9.83,8.44-9.58,15.25c0.3,8.19,6.99,14.96,15.18,15.36c9.19,0.44,16.78-6.87,16.78-15.96 C79.51,93.98,75.57,88.36,69.92,85.89z"/>
</svg>