<svg width="128" height="128" xmlns="http://www.w3.org/2000/svg">
  <path d="M114,104c-4.4,0-8.2,2.9-9.5,6.9c-1.1-0.3-1.7-1.5-1.2-2.6c1.1-2.5,2.8-4.3,4.6-5.3c3.5-2,7.3-1.5,9.3-1.8 c2.3-0.3,3.7-2.5,3.2-4.6c-0.5-1.8-2.4-2.8-4.4-2.8c-1.8,0-7.2-1-13.2,3.4c-3,2.2-5.3,5.1-6.8,8.6c-1.4,3.2-4.5,5.3-8,5.3H47.4 c-4.7,0-8.8-1.9-12.2-4.6c-7.5-6-10.7-16-8.7-25.4l5.6-25.3c0.2-1.1-0.4-2.2-1.5-2.4h-0.1L36.6,26c3.6-0.3,6.4-3.3,6.4-7 c0-3.9-3.1-7-7-7s-7,3.1-7,7c0,2.3,1.1,4.3,2.7,5.6l-6.1,27.6c-1-0.2-2,0.5-2.3,1.5l-9,41.2V95c-0.3,1.4,0.1,2.8,1,3.7l-1.2,5.2 c0,0,0,0-0.1,0c-5.5,0-10,4.5-10,10s4.5,10,10,10s10-4.5,10-10c0-3.7-2.1-7-5.1-8.7l1-4.6c3.2,1.1,6.9,4.3,9,8.9 c1.2,2.5,1.2,7.5,4.8,7.5h70.7c1.3,4,5.1,7,9.5,7c5.5,0,10-4.5,10-10S119.5,104,114,104z M36,16c1.7,0,3,1.3,3,3s-1.3,3-3,3 s-3-1.3-3-3S34.3,16,36,16z M19.3,114c0,2.9-2.4,5.3-5.3,5.3s-5.3-2.4-5.3-5.3c0-2.6,1.8-4.7,4.3-5.2l-1,4.4c-0.2,1,0.2,2,1,2.6 c0.3,0.2,0.6,0.3,0.9,0.4c0.2,0,0.4,0.1,0.5,0.1c1.1,0,2.2-0.8,2.4-2l0.9-4C18.7,111.3,19.3,112.6,19.3,114z M114,119.3 c-1.8,0-3.4-0.9-4.3-2.3h3.3c1.7,0,3-1.3,3-3s-1.3-3-3-3h-3.4c1-1.4,2.6-2.3,4.4-2.3c2.9,0,5.3,2.4,5.3,5.3S116.9,119.3,114,119.3z"/>
</svg>