<svg width="128" height="128" xmlns="http://www.w3.org/2000/svg">
  <g>
    <path d="M38.7,52.3c-7.7,0-13.9,6.2-13.9,13.7c0,7.6,6.2,13.7,13.9,13.7s13.9-6.4,20.2-13.8C52.6,58.6,46.5,52.3,38.7,52.3z"/>
    <path d="M89.3,52.3c-7.8,0-13.9,6.3-20.2,13.6c6.3,7.4,12.5,13.8,20.2,13.8c7.6,0,13.9-6.1,13.9-13.7S96.9,52.3,89.3,52.3z"/>
    <path d="M116,4H12c-4.4,0-8,3.6-8,8v104c0,4.4,3.6,8,8,8h104c4.4,0,8-3.6,8-8V12C124,7.6,120.4,4,116,4z M89.3,87.5 C78.6,87.5,71,80.1,64,72c-7.1,8.2-14.6,15.6-25.3,15.6C26.7,87.5,17,77.9,17,66s9.7-21.5,21.7-21.5c10.7,0,18.5,7.6,25.3,15.4 c6.8-7.8,14.6-15.4,25.3-15.4c12,0,21.7,9.7,21.7,21.5S101.3,87.5,89.3,87.5z"/>
  </g>
</svg>