<svg viewBox="0 0 128 128" xmlns="http://www.w3.org/2000/svg">
  <g>
    <path d="M20.3,40.4c5,0,9-4,9-9s-4-9-9-9s-9,4-9,9S15.4,40.4,20.3,40.4z M20.3,24.7c3.7,0,6.7,3,6.7,6.7c0,3.7-3,6.7-6.7,6.7 s-6.7-3-6.7-6.7C13.6,27.7,16.6,24.7,20.3,24.7z"/>
    <path d="M108.5,40.4c5,0,9-4,9-9s-4-9-9-9s-9,4-9,9S103.5,40.4,108.5,40.4z M108.5,24.7c3.7,0,6.7,3,6.7,6.7c0,3.7-3,6.7-6.7,6.7 s-6.7-3-6.7-6.7C101.8,27.7,104.8,24.7,108.5,24.7z"/>
    <path d="M121.3,40.9c-0.2-0.1-0.4-0.1-0.6-0.2c-0.2,0-0.4-0.1-0.7-0.1h-16.6H85H67H48.5h-18H12.1H8c-2.2,0-4,1.8-4,4v10v23.5 c0,1.8,1.1,3.2,2.7,3.8C6.9,82,7.1,82,7.3,82.1c0.2,0,0.4,0.1,0.7,0.1h5.3V121c0,1.7,1.3,3,3,3h7.9c1.7,0,3-1.3,3-3V82.2H43h18 h18.5h18h4.1V121c0,1.7,1.3,3,3,3h7.9c1.7,0,3-1.3,3-3V82.2h0.4h4.1c2.2,0,4-1.8,4-4v-10V44.6C124,42.9,122.9,41.4,121.3,40.9z M8.3,79.2H8c-0.5,0-1-0.5-1-1V49.5l3.4-5.8h18.5L8.3,79.2z M44.8,79.2H26.3l20.5-35.5h18.5L44.8,79.2z M81.2,79.2H62.7l20.5-35.5 h18.5L81.2,79.2z M121,73.4l-3.4,5.8H99.2l20.5-35.5h0.3c0.5,0,1,0.5,1,1V73.4z"/>
  </g>
</svg>