<svg viewBox="0 0 128 128" xmlns="http://www.w3.org/2000/svg">
  <path d="M114,37.3c0.7-0.5,1.3-1,1.9-1.6c7.2-7.2,7.2-18.9,0-26.1c-7.2-7.2-18.9-7.2-26.1,0c-0.6,0.6-1.1,1.2-1.6,1.9 c0-0.1-0.1-0.1-0.1-0.1c-7.2-7.2-18.9-7.2-26.1,0c-7.2,7.2-7.2,18.9,0,26c3.8,3.8,9,5.8,13.8,5.3l-7.1,7.1l-1.9-1.9 c-1.4-1.4-4-1.2-5.4,0.2c-1.4,1.4-1.7,4-0.2,5.4l1.9,1.9L61,57.5l-2-1.8c-1.4-1.4-4-0.7-5.5,0.8l-0.1,0.1c-1.4,1.4-1.5,3.3-0.1,4.8 l1.9,1.9L31.5,87L6.8,111.7c-1.6,1.6-1.2,3.9,0.4,5.5l1.1,1.1c1.6,1.6,3.9,2.1,5.5,0.5l4.6-4.6l8.2,8.2c1.2,1.2,2.8,2,4,0.8l2.6-2.6 c1.2-1.2,0.9-3.4-0.3-4.5l-8.2-8.2l7.1-7.1L40,109c1.2,1.2,3.2,1.6,4.4,0.4l2.6-2.6c1.2-1.2,1.3-3.7,0.1-4.9L39,93.7l23.3-23.3 l1.6,1.6c1.4,1.4,3.6,1.8,5,0.3l0.2-0.2c1.4-1.4,1.9-4.4,0.5-5.8L68,64.7l2.1-2.1l1.6,1.6c1.4,1.4,4,1.2,5.4-0.2 c1.4-1.4,1.7-4,0.2-5.4L75.7,57l7.1-7.1c-0.4,4.6,1.6,9.8,5.4,13.6c7.2,7.2,18.8,7.2,26,0s7.2-18.9,0-26.1 C114.1,37.4,114.1,37.3,114,37.3z M81.7,31c-3.7,3.6-9.6,3.6-13.2,0c-3.7-3.6-3.7-9.6,0-13.2c3.7-3.6,9.6-3.6,13.2,0 C85.3,21.4,85.4,27.4,81.7,31z M107.8,57c-3.7,3.6-9.6,3.7-13.2,0c-3.6-3.7-3.7-9.6,0-13.2c3.6-3.6,9.5-3.6,13.2,0 C111.5,47.5,111.5,53.4,107.8,57z M109.5,29.2c-3.7,3.6-9.6,3.7-13.2,0c-3.6-3.7-3.6-9.6,0-13.2c3.7-3.6,9.6-3.6,13.2,0 S113.2,25.6,109.5,29.2z"/>
</svg>