<svg viewBox="0 0 128 128" xmlns="http://www.w3.org/2000/svg">
  <g>
    <path d="M116,4H12c-4.4,0-8,3.6-8,8v104c0,4.4,3.6,8,8,8h104c4.4,0,8-3.6,8-8V12C124,7.6,120.4,4,116,4z M121,116c0,2.8-2.2,5-5,5 H12c-2.8,0-5-2.2-5-5V12c0-2.8,2.2-5,5-5h104c2.8,0,5,2.2,5,5V116z"/>
    <path d="M94,24.8H38.9c-1.1,0-2,0.9-2,2v27.7c0,14.3-1.3,32-14.5,44.6c-0.8,0.8-0.8,2.1,0.1,2.9c1.2,1.1,2.6,2.4,3.7,3.6 c0.7,0.8,2,0.9,2.8,0.1c7.6-7.1,11.9-16.4,14.3-25.9c0.2-0.9,1-1.5,1.9-1.5h39.4c1.1,0,2,0.9,2,2V95c0,2-0.7,2.8-2.8,2.8 c-2,0-7.7,0.1-13.9-0.1c-1.4,0-2.4,1.5-1.8,2.8c0.8,1.7,1.4,3.5,1.9,5c0.3,0.8,1,1.4,1.9,1.4c9,0,15-0.3,18.8-1.8s5.3-4.2,5.3-9.9 V26.8C96,25.7,95.1,24.8,94,24.8z M86.7,67.9c0,1.1-0.9,1.9-1.9,1.9H47.3c-1.2,0-2.1-0.9-2-2.1c0.3-3.5,0.5-6.8,0.6-10 c0.1-1.1,0.9-1.9,2-1.9h36.8c1.1,0,2,0.9,2,2V67.9z M86.8,45.4c0,1.1-0.9,2-2,2H48c-1.1,0-2-0.9-2-2V35.3c0-1.1,0.8-2,1.9-2h36.9 c1.1,0,2,0.9,2,2V45.4z"/>
  </g>
</svg>