<svg width="128" height="128" xmlns="http://www.w3.org/2000/svg">
  <g>
    <path d="M98.4,101.6c4.7-16.7,5.7-40.7,5.7-59.1C104.1,42,105.6,4,64.6,4S23.9,42,23.9,42.5c0,18.3,1.1,42.1,5.6,58.8 C19.1,105.3,12,111.7,12,121v3h3v-3c0-7,4.9-12.5,14.5-16.4c1.8-0.7,3.7-1.4,5.7-2c-0.4,1-0.7,2.1-0.7,3.3v4.3 c-0.1,0-0.2,0.1-0.2,0.3v4.9c0,0.3,0,3.4,1.8,5.2c0.8,0.8,1.9,1.3,3,1.4c1,0,1.9-0.5,2-1.5c0.2-1.1-0.7-2-1.7-2 c-0.5,0-0.7-0.2-0.9-0.3c-0.6-0.6-0.8-2.1-0.8-2.7v-5c0-0.1-0.1-0.2-0.2-0.2v-4.3c0-1.8,0.9-3.4,2.2-4.4c1.6-0.3,3.2-0.7,4.9-0.9 c0,0,0.1,0,0.1,0l-1.7,3.9l5.2,4.4l-2.9,6.1l2.1,3.4c-0.1,0.1-0.3,0.2-0.7,0.2c-0.8,0-1.6,0.6-1.8,1.4c-0.2,1.1,0.6,2.1,1.7,2.1 c0.9,0,1.8-0.3,2.5-0.7l1.7,2.7h2.3l-2.6-4.2c1.2-1.8,1.1-4.1,1.1-4.3v-5c0-0.1-0.1-0.2-0.2-0.2h0v-4.4c0-3-1.6-5.7-3.9-7.2l0,0 c1-0.1,2.7-0.4,5.3-0.6v0l0.2,1.4L56,124h2h6.2h0.4H70h2l2.7-24.5l0,0l0.2-1.4c2.6,0.2,4.3,0.4,5.3,0.6l0.7,1.6l0,0l1.6,3.7 l-4.1,3.4l-1.2,1l0.7,1.4l2.4,5.1l-5.7,9.2h2.3l4.5-7.3c1.3,1.7,3.3,2.8,5.6,2.8c3.9,0,7-3.1,7-7c0-3.7-2.8-6.7-6.4-7l-0.9-4.2 c14.9,3.2,26.2,9.9,26.2,19.7v3h3v-3C116,112.2,108.9,105.8,98.4,101.6z M56.8,92.8c-8.7-3.1-18.4-11.1-22.3-24.6 c-0.1-2.8-0.2-5.4-0.3-7.6c-0.1-2.9-0.9-13.7,5.2-15.1c22.4-5,35-16.9,35-16.9c3.3,7.2,13.6,14.2,17.3,16.9c3,2.2,2.6,11.2,2.5,15 l-0.5,6.9c-3.6,14-13.7,22.3-22.5,25.5c-2.5,0.9-5,1.4-7.2,1.4C61.8,94.2,59.3,93.7,56.8,92.8z M56.9,94.9c2.5,0.8,4.9,1.2,7.1,1.2 c2.2,0,4.6-0.4,7.1-1.2v7.1H56.9V94.9z M47.8,114.8l0.7-1.6v2.3c0,0.1,0,0.3,0,0.5L47.8,114.8z M48.7,105.9v0.7l-3.2-2.7l1-2.4 C47.9,102.5,48.7,104.1,48.7,105.9z M83.6,100.7l0.3,1.4l-0.6-1.5C83.3,100.6,83.5,100.7,83.6,100.7z M84.4,104.9l0.2,1.1 c-2,0.7-3.6,2.4-4.3,4.5l-0.7-1.5L84.4,104.9z M87,108.5c2.2,0,4,1.8,4,4c0,2.2-1.8,4-4,4c-2.2,0-4-1.8-4-4 C83,110.3,84.8,108.5,87,108.5z"/>
    <path d="M64,72.2c2.8,0,4.2-2,4.5-2.7c0.3-0.7,0-1.4-0.7-1.6c-0.1,0-0.2-0.1-0.3-0.1h-7c-0.1,0-0.2,0-0.3,0.1 c-0.6,0.3-1,0.9-0.7,1.6S61.2,72.2,64,72.2z"/>
    <ellipse cx="47.8" cy="58.8" rx="4.9" ry="5"/>
    <ellipse cx="80.2" cy="58.8" rx="4.9" ry="5"/>
    <path d="M53.1,51.7c0.9,0.3,1.6,0,1.9-0.4c0.3-0.4,0.4-1,0-1.6c-0.9-1.2-3.1-3-7.2-3s-6.3,1.8-7.2,3c-0.4,0.5-0.3,1.2,0,1.6 c0.3,0.3,1,0.7,1.9,0.4c0.9-0.3,2.5-1.2,5.3-1.2C50.6,50.5,52.2,51.4,53.1,51.7z"/>
    <path d="M74.9,51.7c0.9-0.3,2.5-1.2,5.3-1.2c2.8,0,4.5,0.9,5.3,1.2c0.9,0.3,1.6,0,1.9-0.4c0.3-0.4,0.4-1,0-1.6 c-0.9-1.2-3.1-3-7.2-3c-4.2,0-6.3,1.8-7.2,3c-0.4,0.5-0.3,1.2,0,1.6C73.3,51.6,74,52,74.9,51.7z"/>
    <path d="M75.2,78.2c0.8-1.6-1.1-3.3-2.9-2.2c-3.2,1.9-13.5,1.9-16.6,0c-1.8-1.1-3.7,0.6-2.9,2.2c0.7,1.6,6.4,5.4,11.2,5.4 C68.9,83.6,74.5,79.9,75.2,78.2z"/>
  </g>
</svg>