<svg width="128" height="128" xmlns="http://www.w3.org/2000/svg">
  <path d="M123.8,64.8c-1.4-5.8-2.1-16-3.5-18c-0.4-0.6-0.9-1.1-1.3-1.5c1.4-5-1.7-12.7-6.3-17c-1.5-1.4-1-3.9-5.1-6.6 c-2.8-1.9-4.1-1.5-6.5-3.4C88.4,8,83.8,8.3,77.2,7.5c-0.3,0-0.7-0.1-1-0.1c-1.7,0-2.8,0.7-3.6,1.9c-1-0.9-3.4-2-9.9-2 c-1,0-2.1,0-3.4,0.1c-9.2,0.5-16.2,3.5-19,5.9c-5.1,4.3-9,8.2-8,17.1c0.6,5.4,0.2,8.2,2.9,13.4c2,3.8,1.1,9.2,2,11 c2.2,4.5,5,4.6,6.5,6.1c4.6,4.4,5.1,3.1,12.3,3.8c1.8,0.2,3.1,0.2,4,0.2c2.1,0,2.4-0.3,3.1-0.4c0.2,0,0.5-0.2,0.6-0.4 c0.2,0.2,0.5,0.3,0.8,0.3h0.1h0.1c0.6,0,1.5,0.3,2.8,1.4c0.5,0.4,1.1,0.5,1.7,0.5c0.3,1.5,2.5,3.5,1.1,5.5c-1,1.5-1.1,2.5-0.4,3.5 c-0.2-0.1-0.4-0.1-0.5-0.2c0-0.1-0.2-0.1-0.4-0.1c-2.3,0-5.8,3.8-9.1,3.8c-0.3,0-0.6,0-0.9-0.1c-0.3-0.1-0.6-0.1-0.8-0.1 c-1.3,0-2.1,0.8-2.4,1.8c-0.1,0.2-0.2,0.5-0.2,0.7c-1.8,0.3-4.4,0.2-7.4-1.9C41.5,74.9,36.7,77,36.7,77s0,0.1-0.1,0.3 c-0.2-1.2-1.1-3.6-4.4-6c-1.9-1.3-3.6-2.1-5.1-2.5c1.1-3.8,0.3-9.6-2.2-17.2c-2.5-7.5-6.8-12-9.3-13.8c-1.4-1-3.7,0.1-4.1,1.8 c-0.2,0.8-0.4,1.8-0.5,2.9c-1.2-0.8-2.3-1.3-3.2-1.7c-1.7-0.6-3.8,1-3.8,2.8c-0.1,2.7,0.2,7,1.7,12.9c2.4,9.4,7.2,16.2,10,19.7 c-0.2,1.1-0.2,2.7,0.4,5.2c1.8,6.9,5.4,10.8,5.4,10.8s4.8,10.7,13.7,16.6c8.4,5.6,13.6,7.3,16.6,7.8c0,0.1,0,0.3,0.1,0.4 c0.6,2.9,4.2,3.6,7.2,3.6c0.2,0,0.4,0,0.5,0c0.6,0,1.3,0,1.9,0c3.2,0,6,0.2,8.9,0.2c3,0,6.1-0.2,9.5-1.2c1.5-0.4,4.6,0,6.6-0.9 c2.9-1.4,3.2-2.9,4.6-3.5c7.5-3.6,13.7-7.8,14.7-10.2c0.4-0.9,0.4-1.9,0.2-3c2.4-0.3,4.7-2.2,6-4.1c1.4-2,4.4-4,5.8-5.9 c3.7-5.2,1.1-6.1,3.4-12.7C122.5,76.1,124.7,68.4,123.8,64.8z M118.5,78.2c-1.2,3.3-1.3,5.4-1.3,7c-0.1,1.8-0.1,2.7-1.7,4.9 c-0.5,0.6-1.4,1.5-2.3,2.3c-1.3,1.1-2.6,2.3-3.5,3.7c-1,1.4-2.6,2.6-3.9,2.8c-0.8,0.1-1.5,0.5-2,1.2c-0.5,0.6-0.7,1.5-0.6,2.3 c0.1,0.6,0.1,1-0.1,1.3c-0.5,1.1-5,4.7-13.2,8.7c-1.1,0.5-1.7,1.2-2.3,1.8c-0.6,0.6-1.1,1.2-2.3,1.7c-0.6,0.3-2,0.3-3,0.4 c-1.1,0-2.1,0.1-3.1,0.3c-2.7,0.7-5.2,1-8.6,1c-1.3,0-2.7,0-4.2-0.1c-1.5,0-3.1-0.1-4.8-0.1c-0.7,0-1.3,0-2,0c-0.2,0-0.3,0-0.4,0 c-2.6,0-4.2-0.7-4.3-1.3c-0.1-0.6,0.6-1.7,1.3-2.8c1.1-1.7,2.4-3.8,2.3-6.5c-0.1-1.7-0.8-3-1.4-4.1c-0.3-0.7-0.7-1.4-0.7-1.8 c0-0.6,0.6-1.4,1.2-2.3c0.6-0.9,1.4-1.9,1.9-3.2c1.2-3,0.5-6.1-0.2-8.8l-0.1-0.4c-0.5-1.7-0.9-3.4-0.6-4.6c0.4,0.1,0.9,0.1,1.3,0.1 c2.6,0,5-1.4,6.9-2.6c0.7-0.4,1.6-1,2.1-1.2c0.1,0,0.1,0,0.2,0.1h0.1c0.3,0.1,0.6,0.1,0.9,0.1c0.9,0,1.8-0.4,2.4-1.2 c0.7-0.9,0.8-2.1,0.3-3.2c0.1-0.1,0.1-0.2,0.3-0.4c1.9-2.9,0.4-5.8-0.3-7.1c-0.1-0.2-0.3-0.6-0.4-0.7c-0.3-1.3-1.5-2.3-2.9-2.3h-0.1 c-1.6-1.2-2.9-1.8-4.2-1.9c-0.4-0.2-0.9-0.3-1.3-0.3c-0.1,0-0.2,0-0.3,0c-0.6,0-1.1,0.3-1.6,0.6c-0.1,0-0.1,0-0.2,0 c-0.3,0.1-0.7,0.2-1.8,0.2c-0.9,0-2.2-0.1-3.7-0.2c-1.7-0.2-3.1-0.2-4.2-0.2c-3.2-0.1-3.6-0.1-6.3-2.7c-0.7-0.7-1.5-1.1-2.3-1.6 c-1.3-0.8-2.5-1.4-3.6-3.6c-0.1-0.4-0.2-1.6-0.2-2.5c-0.2-2.6-0.3-5.8-1.8-8.6c-1.8-3.5-2-5.6-2.3-9.2c-0.1-0.9-0.2-2-0.3-3.2 c-0.8-7.4,2.1-10.4,6.9-14.5c1.9-1.6,7.9-4.7,17.3-5.2c1.1-0.1,2.2-0.1,3.2-0.1c6.4,0,7.8,1.2,7.8,1.2c0.6,0.5,1.3,0.8,2,0.8 c0.1,0,0.2,0,0.4,0c0.9-0.1,1.7-0.6,2.1-1.4c0.2-0.3,0.4-0.5,1.1-0.5c0.2,0,0.4,0,0.6,0c0.6,0.1,1.2,0.1,1.7,0.2 c5.5,0.6,9.8,1.1,20.8,10c1.6,1.3,2.9,1.8,4,2.2c0.9,0.3,1.6,0.6,2.7,1.3c1.9,1.2,2.4,2.3,2.9,3.5c0.4,0.9,0.9,1.9,1.8,2.8 c3.9,3.7,6.5,10.2,5.4,14c-0.3,1.1,0,2.2,0.8,3c0.3,0.3,0.6,0.6,0.9,1c0.5,1,1.1,5.1,1.5,7.8c0.5,3.2,0.9,6.6,1.6,9.2 C121.4,67.8,120.1,73.9,118.5,78.2z"/>
</svg>