<svg width="128" height="128" xmlns="http://www.w3.org/2000/svg">
  <path d="M111.8,67.7c-0.6-0.7-0.3-1.8,0.5-2.2l8.9-4.2c1-0.5,1.1-1.9,0.2-2.5l-9.6-6.7c-0.7-0.5-0.9-1.5-0.3-2.2l11.8-13.1 c0.7-0.9,0.3-2.2-0.8-2.4L108.9,33c-0.8-0.2-1.3-0.9-1.2-1.8l0.2-9.4c0.2-1.1-0.8-2.1-1.9-1.7l-13,2.6c-0.7,0.2-1.5-0.1-1.8-0.7 L86.1,7.7c-0.5-0.9-1.6-1.1-2.4-0.4L71.6,21.2c-0.6,0.6-1.7,0.5-2.2-0.2l-9-12.1c-0.6-0.9-2-0.8-2.5,0.2l-7.8,14 c-0.4,0.8-1.5,1-2.2,0.5l-8.1-5.7c-0.9-0.7-2.2-0.2-2.4,0.9l-3,8.2c-0.1,0.9-1.1,1.5-2,1.2l-18.3-6.9c-1.3-0.5-2.5,0.9-1.8,2.1 l8.1,14c0.4,0.7,0.2,1.6-0.6,2L5,44.4c-1,0.5-1,1.9-0.1,2.5l12.3,7.5c0.8,0.5,0.9,1.6,0.2,2.3l-7.8,8.8c-0.8,0.8-0.5,2.2,0.7,2.5 l6.4,3.4c1,0.2,1.5,1.4,0.9,2.3L7.5,88.2c-0.8,1.1,0.3,2.6,1.6,2.2l14.2-4c1.2-0.3,2.2,0.9,1.8,2l-13.2,30.7 c-0.6,1.4,1.1,2.7,2.3,1.7L46,93.7c0.7-0.6,1.7-0.4,2.2,0.3l9,16.4c0.6,0.9,1.9,0.9,2.5,0l7.9-15c0.4-0.7,1.3-0.9,2-0.5l14.1,7.3 c0.8,0.5,1.9,0.1,2.2-0.9l3.3-9.9c0.2-0.8,1.1-1.3,1.9-1l20.4,9.2c1.2,0.5,2.4-0.8,1.8-2l-7.8-14.3c-0.5-1,0.3-2.2,1.4-2.1l14.9,2.1 c1.3,0.1,2-1.4,1.2-2.4L111.8,67.7z M107.4,78.2c-0.1,0-0.2,0-0.2,0c-0.1,0-0.2,0-0.3,0c-1.5,0-3,0.8-3.8,2.1 c-0.8,1.3-0.9,2.9-0.2,4.3c0,0,0,0.1,0.1,0.1l5.6,10.3l-16.2-7.3c-0.1,0-0.1-0.1-0.2-0.1c-0.5-0.2-1-0.3-1.5-0.3 c-2,0-3.7,1.3-4.3,3.2l-2.7,8.2l-12.5-6.5c-0.7-0.4-1.4-0.6-2.2-0.6c-1.5,0-3,0.8-3.8,2.1c0,0.1-0.1,0.1-0.1,0.2l-6.5,12.4L51,92.5 c0-0.1-0.1-0.1-0.1-0.2c-0.8-1.3-2.2-2-3.7-2c-1.1,0-2.1,0.4-2.9,1.1l-26.9,22.9L28,89.6c0.6-1.4,0.5-3-0.4-4.2 c-0.8-1.3-2.2-2-3.7-2c-0.4,0-0.8,0.1-1.2,0.2l-10.1,2.9L20,75.3c0.9-1.2,1-2.8,0.5-4.2c-0.5-1.2-1.5-2.2-2.7-2.6L13.2,66l6.5-7.3 c0.9-0.9,1.4-2.2,1.2-3.5c-0.1-1.4-0.9-2.6-2-3.3h-0.1l-9.4-5.7l11.4-3.9c0.2,0,0.3-0.1,0.5-0.2c1.1-0.6,1.9-1.6,2.2-2.7 c0.3-1.2,0.2-2.4-0.4-3.5l-6-10.3L31.4,31c0.5,0.2,1,0.3,1.6,0.3c2.1,0,3.9-1.4,4.4-3.4l2.3-6.4l6.5,4.6c0.8,0.6,1.7,0.9,2.7,0.9 c1.6,0,3.1-0.9,3.9-2.3l6.6-11.9L67,22.9c0.8,1.1,2.2,1.8,3.6,1.8c1.2,0,2.3-0.5,3.1-1.3c0,0,0.1-0.1,0.2-0.2l10.3-11.9L88.4,23 c0,0.1,0.1,0.2,0.1,0.3c0.8,1.5,2.3,2.4,4,2.4c0.4,0,0.8-0.1,1.2-0.2l11.2-2.2l-0.2,7.5c-0.1,1.1,0.1,2.1,0.7,3 c0.7,1,1.7,1.7,2.9,1.9c0.1,0,0.2,0,0.3,0l10.4,1l-9.8,10.9c0,0,0,0,0,0.1c-0.8,1-1.2,2.2-1,3.5c0.2,1.2,0.8,2.4,1.9,3.1l7.5,5.1 l-6.5,3.1c-1.2,0.6-2.1,1.7-2.5,3c-0.3,1.3,0,2.7,0.9,3.8l0.1,0.1l8.7,10L107.4,78.2z"/>
</svg>