<svg viewBox="0 0 128 128" xmlns="http://www.w3.org/2000/svg">
  <path d="M42.9,68.68c3.49,0,6.32,2.93,6.32,6.55c0,3.62-2.83,6.55-6.32,6.55c-3.49,0-6.32-2.93-6.32-6.55 C36.58,71.61,39.41,68.68,42.9,68.68z M86.44,56.39c0.29-0.78-0.11-1.64-0.89-1.92c-0.39-0.14-9.75-3.53-21.88-3.53 c-12.15,0-20.88,3.4-21.24,3.55c-0.77,0.3-1.15,1.18-0.84,1.95c0.23,0.59,0.8,0.95,1.4,0.95c0.18,0,0.37-0.03,0.55-0.11 c0.08-0.03,8.56-3.33,20.14-3.33c11.57,0,20.75,3.31,20.84,3.35C85.29,57.56,86.15,57.16,86.44,56.39z M49.19,87.96 c0.63-0.53,0.71-1.48,0.18-2.11c-0.53-0.63-1.48-0.71-2.11-0.18c-2.94,2.48-7.73,2.48-10.69,0c-0.63-0.53-1.58-0.45-2.11,0.18 c-0.53,0.63-0.45,1.58,0.18,2.11c2.01,1.69,4.64,2.54,7.28,2.54C44.55,90.5,47.18,89.65,49.19,87.96z M35.95,65.98 c1.12-0.38,3.3-1.51,6.95-1.53c3.65,0.03,5.84,1.15,6.95,1.53c1.12,0.38,2.13-0.04,2.47-0.5c0.37-0.49,0.5-1.3-0.03-2.01 c-1.2-1.59-3.99-3.91-9.39-3.91c-5.4,0-8.19,2.32-9.39,3.91c-0.53,0.71-0.4,1.52-0.03,2.01C33.82,65.94,34.83,66.36,35.95,65.98z M68.6,87.18h-9.2c-0.14,0.02-0.28,0.05-0.42,0.11c-0.83,0.34-1.29,1.2-0.9,2.12c0.4,0.92,2.23,3.5,5.92,3.5s5.52-2.58,5.92-3.5 c0.39-0.91-0.07-1.78-0.9-2.12C68.88,87.23,68.74,87.2,68.6,87.18z M64,46.75c7.66,0,14.45,2.12,14.52,2.14 c0.15,0.05,0.3,0.07,0.45,0.07c0.64,0,1.23-0.41,1.43-1.05c0.25-0.79-0.19-1.63-0.98-1.88c-0.29-0.09-7.28-2.28-15.42-2.28 c-1.31,0-2.58,0.06-3.81,0.16c-1.97,1.2-3.89,2.5-5.89,3.83C56.92,47.23,60.36,46.75,64,46.75z M51.22,93.22 c-0.59-0.59-1.54-0.59-2.12,0l-9.53,9.53c-0.59,0.59-0.59,1.54,0,2.12c0.29,0.29,0.68,0.44,1.06,0.44s0.77-0.15,1.06-0.44l9.53-9.53 C51.81,94.75,51.81,93.81,51.22,93.22z M85.1,81.78c3.49,0,6.32-2.93,6.32-6.55c0-3.62-2.83-6.55-6.32-6.55 c-3.49,0-6.32,2.93-6.32,6.55C78.78,78.85,81.61,81.78,85.1,81.78z M85.11,59.56c-5.4,0-8.19,2.32-9.39,3.91 c-0.53,0.71-0.4,1.52-0.03,2.01c0.34,0.46,1.35,0.88,2.47,0.5c1.12-0.38,3.3-1.51,6.95-1.53c3.65,0.03,5.84,1.15,6.95,1.53 c1.12,0.38,2.13-0.04,2.47-0.5c0.36-0.49,0.5-1.3-0.03-2.01C93.3,61.88,90.51,59.56,85.11,59.56z M78.9,93.22 c-0.59-0.59-1.54-0.59-2.12,0s-0.59,1.54,0,2.12l9.53,9.53c0.29,0.29,0.68,0.44,1.06,0.44s0.77-0.15,1.06-0.44 c0.59-0.59,0.59-1.54,0-2.12L78.9,93.22z M74.95,97.71c-4.14,2.46-17.73,2.46-21.87,0c-2.38-1.42-4.81,0.75-3.82,2.91 c0.97,2.13,8.38,7.06,14.79,7.06c6.41,0,13.73-4.93,14.7-7.06C79.73,98.46,77.33,96.3,74.95,97.71z M91.43,85.66 c-2.94,2.48-7.74,2.48-10.69,0c-0.63-0.53-1.58-0.45-2.11,0.18c-0.53,0.63-0.45,1.58,0.18,2.11c2.01,1.69,4.64,2.54,7.28,2.54 s5.27-0.85,7.27-2.54c0.63-0.53,0.71-1.48,0.18-2.11C93.01,85.21,92.07,85.13,91.43,85.66z M115.85,106.05l-1.53,2.42 c-0.56,0.88-1.31,1.61-2.18,2.13c-2.44,1.46-5.41,1.82-7.47,1.87c-0.24,0.01-0.58,0.26-1.09,0.83c-6.47,7.18-12.21,10.52-27.26,8.85 c-4,1.23-8.15,1.85-12.32,1.85c-4.17,0-8.32-0.62-12.32-1.85c-14.97,1.64-20.7-1.69-27.15-8.85c-0.51-0.57-0.85-0.82-1.09-0.83 c-2.06-0.05-5.03-0.41-7.47-1.87c-0.87-0.52-1.62-1.25-2.18-2.13l-1.53-2.42c0,0,2.76,0.25,4.42-3.65c1.42-3.33,0.5-6.02-3.06-9.77 c-5.65-5.95-10.86-19.39-5.15-33.4c-0.02-0.04-0.03-0.07-0.04-0.1L8.33,59c-0.13-0.31-0.25-0.61-0.35-0.9 c-2.66-7.81,1.3-13.71,4.6-16.51c-0.92-2.57-2.04-7.93,1.13-14.35c2.67-5.39,8.74-7.44,12.58-7.6c-2.05-13.68,8.6-16.63,8.6-16.63 s-0.9,2.23,0.9,5.73c1.55,3.03,6.39,5.07,12.3,2.32c0.72-0.34,1.84-0.86,3.1-1.55c6.06-3.31,17.34-9.47,34.68-3.97 c6.41,2.03,13.03,7.26,14.07,13.44c6.43,0.42,13.6,6.91,16.8,11.75c2.31,3.5,5.98,14.63,3.04,26.33c-0.11,0.41-0.37,1.54-0.45,1.88 c6,13.63,0.81,27.74-4.84,33.69c-3.56,3.75-4.48,6.44-3.06,9.77C113.09,106.3,115.85,106.05,115.85,106.05z M110.95,107.49 c0,0-9.77-5.68,0.05-16.16c4.81-5.13,9.81-17.78,5.28-29.89l-1.15-2.46l-0.06-0.11l0.29-0.81c0.26-0.73,0.46-1.37,0.61-1.96 c2.7-10.75-0.92-20.79-2.51-23.2c-3.11-4.69-10.31-10.73-15.03-9.94l-2.41,0.41l0.12-2.44c0.23-4.88-5.76-9.85-11.45-11.65 C68.95,4.3,59.02,9.72,53.08,12.96c-1.47,0.8-2.65,1.39-3.67,1.8c-13.12,5.28-16.5-3.55-17.22-4.88 c-4.22,5.25-1.97,14.42-1.97,14.42s-9.92-1.5-12.98,4.68c-3.41,6.9-0.64,12.08-0.52,12.3l0.89,1.62l-1.55,1 c-0.29,0.18-7.15,4.74-4.36,12.94c0.16,0.44,0.35,0.91,0.63,1.45L12.69,59h0.05l0.06,0.12l-0.38,0.85 c-0.03,0.07-0.06,0.15-0.09,0.22l-0.61,1.55c-4.33,12.02,0.62,24.49,5.39,29.58c9.82,10.48,0.05,16.16,0.05,16.16 c2.62,2.02,5.37,1.04,6.37,1.06c2.04,0.05,3.36,1.51,3.92,2.13c4.41,4.9,7.76,7.33,16.92,8.42c-9.17-4.93-16.84-13.59-20.89-26.02 c-5.23-2.14-8.97-7.55-8.97-13.85c0-3.58,1.22-6.85,3.22-9.42c0.2,0.22,0.31,0.33,0.31,0.33c0.17,1.41,0.36,2.72,0.57,3.96 c-0.7,1.55-1.1,3.29-1.1,5.13c0,4.09,1.92,7.69,4.83,9.82c-0.24-0.98-0.46-1.99-0.66-3.02c0.38,0.99,0.63,1.5,0.63,1.5 s0.68-2.98,1.54-7.01c1.32,11.62,5.5,21.38,12.27,28.53C43.42,116.75,53.32,121,64,121s20.58-4.25,27.87-11.96 c8.33-8.8,12.73-21.54,12.73-36.83c0-1.33-0.04-2.65-0.11-3.96c0.74,6.09,1.23,13.03,1.79,18c-0.19,0.95-0.39,1.89-0.62,2.8 c2.91-2.13,4.83-5.74,4.83-9.82c0-0.74-0.07-1.46-0.19-2.16c0.54-1.68,0.99-3.47,1.27-5.29c1.21,2.2,1.92,4.74,1.92,7.45 c0,6.31-3.75,11.72-8.99,13.86c-4.06,12.45-11.76,21.12-20.96,26.05c9.31-1.08,12.66-3.51,17.11-8.44c0.56-0.62,1.88-2.08,3.92-2.13 C105.58,108.53,108.33,109.51,110.95,107.49z" fill="#231F20"/>
</svg>