<svg width="128" height="128" xmlns="http://www.w3.org/2000/svg">
  <g>
    <path d="M64,6.1C32.8,6.1,4,26.1,4,64c0,37.7,28.8,57.9,60,57.9s60-20.7,60-57.9C124,26.6,95.2,6.1,64,6.1z M103,103.9 c-10.2,9-24.1,14-39,14c-15,0-28.9-4.9-39-13.8C13.9,94.3,8,80.5,8,64s5.9-30.4,17-40.2c10.1-8.9,24-13.7,39-13.7s28.9,5,39,13.9 c11.1,9.8,17,23.6,17,40C120,80.3,114.1,94.1,103,103.9z"/>
    <path d="M92.5,69.6h-57c-7.7,0-14,6.3-14,14v0.7c0,7.7,6.3,14,14,14h57.1c7.7,0,14-6.3,14-14v-0.7 C106.5,75.9,100.2,69.6,92.5,69.6z M35,94.2c-4.7-0.2-8.6-3.7-9.4-8.3H35V94.2z M35,81.9h-9.4c0.8-4.5,4.7-8,9.4-8.3V81.9z M48.7,94.2H39v-8.3h9.7V94.2z M48.7,81.9H39v-8.3h9.7V81.9z M52.7,73.6h9.8v8.3h-9.8V73.6z M62.6,94.2h-9.8v-8.3h9.8V94.2z M76.2,94.2h-9.7v-8.3h9.7V94.2z M76.2,81.9h-9.7v-8.3h9.7V81.9z M90,94.2h-9.8v-8.3H90V94.2z M90,81.9h-9.8v-8.3H90V81.9z M94,94.1v-8.2h8.4C101.6,90.2,98.3,93.5,94,94.1z M94,81.9v-8.2c4.3,0.7,7.6,4,8.4,8.2H94z"/>
    <ellipse cx="44.7" cy="47.3" rx="8" ry="9.4"/>
    <ellipse cx="83.3" cy="47.3" rx="8" ry="9.4"/>
  </g>
</svg>