<svg viewBox="0 0 128 128" xmlns="http://www.w3.org/2000/svg">
  <g>
    <path d="M22,15.4c0,0.1,0,0.1,0,0.2c0.1,0.9,0.8,1.5,1.7,1.5h1h51.3h0.2c1,0,1.7-0.8,1.7-1.8v-0.6V6.4c-3.2-0.5-16.4-2.3-27.9-2.3 C32.5,4.1,24.3,5.6,22,6.2c0,0,0,0,0,0V15.4z"/>
    <path d="M113.3,108c-0.2-0.7-0.4-1.3-0.7-1.9c-1.5-3.6-3.1-6.3-7-9.2c-0.1,0-0.1-0.1-0.2-0.1l0-1.8c0-1.4-0.6-2.6-1.6-3.3l0-1.5v0 c0-0.7-0.4-1.3-1-1.7l0.5-26.1c0-0.7,0.3-1.4,0.7-2c0.3,0.2,0.7,0.3,1.1,0.3l1.5,0c0,0,0,0,0,0c0.4,0,0.7-0.1,1-0.2 c1.3,1.3,3.1,1.9,4.8,1.9c5,0,11.5-6.3,11.5-6.3s-6.1-6.1-12.1-6.1c-1.9,0-4.3,1-5.4,3.3l-1.3,0c-0.7,0-1.3,0.2-1.7,0.7 c-0.3,0.3-0.5,0.7-0.6,1.1c-0.6,0.3-1.1,0.7-1.6,1.2c-1.6,1.6-2.6,3.7-2.6,6l-0.5,26.1c-0.2,0.1-0.4,0.3-0.6,0.4 c-0.4,0.4-0.6,0.9-0.6,1.3l0,1.5c-0.2,0.2-0.5,0.3-0.7,0.5c-0.5,0.5-0.8,1.1-0.9,1.8c-2,0.4-3.3,1.2-3.8,2.5c-0.4,1-0.3,2,0,2.8 c-1.1,0.4-2.6,1.1-3.1,2.5c-0.6,1.6-0.1,2.9,0.5,3.7c-0.3,0.2-0.6,0.4-0.9,0.7c-1-0.8-2.1-1.6-3.3-2.3C88.4,90.1,89.7,71.9,90,56 c1.5,1.9,2.2,3.1,2.2,3.1c0.3-0.2,0.5-0.4,0.7-0.6c0.6-0.6,0.9-1.5,1-1.9c0-0.2,0.1-0.4,0.1-0.4l-2-12.1c2.2,0,4-1.8,4-4v-8 c0-2.2-1.8-4-4-4h-2.9L81.5,9.1c-0.6-1.2-1.6-2.2-3-3c0,0-0.1,0-0.2,0c0,0,0,0,0,0c-0.1,0-0.2,0-0.3,0.1v0.2c0,0,0,0,0,0.1v0 c0,0,0,0,0,0v3.2c0.3,0.2,0.5,0.5,0.7,0.7c0,0,0,0,0,0.1l4.1,10.3l3.2,7.9l0.4,1c0.1,0.3,0.2,0.6,0.3,0.9c0.1,0.4,0.2,0.8,0.2,1.2 c0,0.1,0,0.2,0,0.3l1.5,8.9l1,6.1c0,1.1,0,2.2,0,3.2c-5.3-5.9-15.1-13-32-16.5c-3.4-0.7-11.3-0.7-14.8,0 c-16.9,3.5-26.9,10.7-32.2,16.5c0-1.1,0-2.1,0-3.1l0.9-5.3l1.6-10c0-0.1,0-0.2,0-0.3c0-0.4,0.1-0.8,0.2-1.2 c0.1-0.3,0.2-0.6,0.3-0.9l0.4-1l2-4.9l5.4-13.3c0,0,0,0,0-0.1c0.2-0.3,0.4-0.6,0.7-0.8V6.2c0,0,0,0,0,0c0,0,0,0,0,0 C22,6,21.8,5.9,21.7,6c-0.7,0.4-1.4,0.9-1.9,1.4c-0.5,0.5-1,1.1-1.3,1.7l-7.6,18.9H8c-2.2,0-4,1.8-4,4v8c0,2.2,1.8,4,4,4L6,56.2 c0,0,0,0.1,0.1,0.4c0.1,0.6,0.6,1.9,1.7,2.5c0,0,0.7-1.2,2.2-3.1c0.3,15.8,1.6,33.8,5.1,47.5c-6.7,4-11.1,9.7-11.1,17.3v3.2h3h21.5 h17.1h2.7l-5.1-19.4h0.2c-0.3-0.7-0.4-1.4-0.4-2.2V95c2.6,0.9,5.1,1.3,7.3,1.3c2.1,0,4.4-0.4,6.9-1.2v7.2c0,0.8-0.2,1.5-0.4,2.2 h0.2L51.8,124h3h16.7H93h2.3h1.1h7.3h1.1h2.2h7h3l-0.1-1.5C116.9,118.8,115.7,113.1,113.3,108z M111.9,51.6c3.7,0,7.6,2.8,9.6,4.4 c-2.3,1.9-6.1,4.6-9,4.6c-1.8,0-4.8-1-4.8-4.7C107.7,52.5,110.3,51.6,111.9,51.6z M91.1,106.5c0.3-0.2,0.6-0.5,0.6-0.8 c0-0.4-0.2-0.7-0.5-0.9c-0.1-0.1-1.4-0.9-0.9-2.4c0.3-0.7,1.8-1.3,2.8-1.5c0.3-0.1,0.6-0.3,0.7-0.6s0.1-0.7-0.1-0.9 c-0.2-0.3-0.7-1.4-0.4-2.1c0.3-0.8,1.6-1.2,2.6-1.3c1.5-0.3,5.2,0.3,8.5,2.7c3.4,2.5,4.9,5,6.3,8.3c0.4,1,0.8,2.1,1,3.3 c0.2,1.7-0.4,3.6-1.5,5c-0.2,0.2-0.4,0.5-0.6,0.7c-1,1.3-2,2.5-3.3,2.9c-0.9,0.2-6.3-1.2-10.8-2.6c-0.1,0-0.2,0-0.3,0 c-0.3,0-0.7,0.2-0.9,0.5l-0.9,1.6c-1.7-0.5-4.5-1.7-4.1-3.3c0.1-0.3,0.7-1.2,1.3-2c0.2-0.2,0.3-0.5,0.2-0.7c0-0.3-0.2-0.5-0.4-0.7 c-1.1-0.9-2.2-2.4-2.1-2.9C88.7,107.9,90.2,107,91.1,106.5z M92,30.1c1.1,0,2,0.9,2,2v8c0,1.1-0.9,2-2,2h-0.3L90,31.6 c0-0.5-0.1-1-0.2-1.5H92z M8,42.1c-1.1,0-2-0.9-2-2v-8c0-1.1,0.9-2,2-2h2.2c-0.1,0.5-0.2,1-0.2,1.5L8.3,42.1H8z M50.2,94.3 c-2.2,0-4.7-0.5-7.2-1.4c-0.5-0.2-0.9-0.3-1.4-0.5c-8.7-3.6-18.2-12.2-21.4-26.1c-0.1-2-0.1-3.9-0.2-5.5 c-0.1-2.5-0.7-10.6,2.8-13.8c7.6-2.8,17-4.7,26.8-4.7c11.6,0,21.3,3.1,29.7,6.8c0.9,3.6,0.7,8.9,0.7,11.6l-0.7,8.9 c-3.8,12.1-12.5,19.6-20.5,22.9c-0.5,0.2-1,0.4-1.4,0.5C54.9,93.8,52.4,94.3,50.2,94.3z"/>
    <path d="M50.2,72.3c2.8,0,4.2-2,4.5-2.7c0.3-0.7,0-1.3-0.7-1.6c-0.1,0-0.2-0.1-0.3-0.1h-7c-0.1,0-0.2,0-0.3,0.1 c-0.6,0.3-1,0.9-0.7,1.6C46,70.4,47.4,72.3,50.2,72.3z"/>
    <ellipse cx="35" cy="58.9" rx="4.9" ry="5"/>
    <ellipse cx="65.5" cy="58.9" rx="4.9" ry="5"/>
    <path d="M39.3,51.8c0.9,0.3,1.6,0,1.9-0.4c0.3-0.4,0.4-1,0-1.5c-0.9-1.2-3.1-3-7.2-3c-4.2,0-6.3,1.8-7.2,3c-0.4,0.5-0.3,1.2,0,1.5 c0.3,0.3,1,0.7,1.9,0.4c0.9-0.3,2.5-1.2,5.4-1.2C36.8,50.6,38.5,51.5,39.3,51.8z"/>
    <path d="M61.1,51.8c0.9-0.3,2.5-1.2,5.4-1.2c2.8,0,4.5,0.9,5.3,1.2c0.9,0.3,1.6,0,1.9-0.4c0.3-0.4,0.4-1,0-1.5 c-0.9-1.2-3.1-3-7.2-3c-4.2,0-6.3,1.8-7.2,3c-0.4,0.5-0.3,1.2,0,1.5C59.5,51.7,60.2,52,61.1,51.8z"/>
    <path d="M61.2,78.3c0.8-1.6-1.1-3.3-2.9-2.2c-3.2,1.9-13.5,1.9-16.6,0c-1.8-1.1-3.6,0.6-2.9,2.2c0.7,1.6,6.4,5.4,11.2,5.4 S60.4,80,61.2,78.3z"/>
    <path d="M67.6,28.1c0.5,0,1-0.3,1-0.8v-3v-1.7c0-0.4-0.5-0.8-1-0.8c-0.6,0-1,0.3-1,0.8v0.2v4.5C66.6,27.7,67,28.1,67.6,28.1z"/>
    <path d="M58.3,29.9c0.6,0,1-0.3,1-0.8v-7.5v-0.9c0-0.3-0.3-0.6-0.7-0.7c-0.1,0-0.2,0-0.3,0s-0.2,0-0.3,0c-0.4,0.1-0.7,0.4-0.7,0.7 v0.9v7.5C57.3,29.6,57.7,29.9,58.3,29.9z"/>
    <path d="M50,28.4c0.5,0,1-0.3,1-0.8v-5.4c0-0.2-0.2-0.5-0.4-0.6c-0.2-0.1-0.4-0.2-0.6-0.2s-0.4,0.1-0.6,0.2 C49.2,21.8,49,22,49,22.3v5.4C49,28.1,49.5,28.4,50,28.4z"/>
    <path d="M32.4,28.1c0.6,0,1-0.3,1-0.8v-4.2v-0.5c0-0.4-0.4-0.8-1-0.8c-0.5,0-1,0.3-1,0.8v2v2.7C31.4,27.7,31.9,28.1,32.4,28.1z"/>
    <path d="M41.7,29.9c0.5,0,1-0.3,1-0.8v-7.5v-0.9c0-0.3-0.3-0.6-0.7-0.7c-0.1,0-0.2,0-0.3,0s-0.2,0-0.3,0c-0.4,0.1-0.7,0.4-0.7,0.7 v0.9v7.5C40.7,29.6,41.2,29.9,41.7,29.9z"/>
  </g>
</svg>