<svg width="128" height="128" xmlns="http://www.w3.org/2000/svg">
  <path d="M118.9,38c-0.3,0-0.6,0-0.9,0.1V8c0-2.2-1.8-4-4-4h-1c-1.5,0-2.7,1-2.9,2.4c0,0.2-0.1,0.4-0.1,0.6v0.2L52.9,24.3 c-1,0-2,0.6-2.8,1.7c0,0,0,0-0.1,0l-40,4c-3.3,0-6,9-6,20s2.7,20,6,20l1.8,0.2c0,0.1,0,0.3,0,0.4v44.9c0,4.7,3.6,8.5,8,8.5H28 c4.4,0,8-3.8,8-8.5v-1.3c0-1.5-0.7-2.9-1.9-3.6c-1.2-0.8-2.1-2.2-2.1-3.9v-3.8c0-1.6,0.8-3.1,2.1-3.9c1.2-0.8,1.9-2.2,1.9-3.6v-2.2 c0-0.5-0.1-1-0.2-1.4l2.2-0.6c4.3-1.1,6.8-5.5,5.8-9.8l-2.2-8.3L50,74c0,0,0,0,0.1,0c0.9,1.1,1.8,1.7,2.8,1.7L110,92.8V93 c0,0.2,0,0.3,0,0.5c0.2,1.4,1.5,2.5,3,2.5h1c2.2,0,4-1.8,4-4V61.9c0.3,0,0.6,0.1,0.9,0.1c2.8,0,5.1-2.3,5.1-5.1V43.1 C124,40.3,121.7,38,118.9,38z M37.2,88.3L34,89.2c-1.2-0.8-2-2.2-2-3.8v-3.8c0-1.7,0.8-3.1,2.1-3.9c1.2-0.8,1.9-2.1,1.9-3.6v-1.5 l2.4,0.2l2.4,9.4C41.5,84.9,39.9,87.6,37.2,88.3z M110,89.7L53.7,72.8c-0.2-0.1-0.5-0.1-0.8-0.1c-1.5-0.7-5-8.4-5-22.7 c0-14.4,3.5-22,5-22.7c0.3,0,0.5,0,0.8-0.1L110,10.3V89.7z"/>
</svg>