<svg viewBox="0 0 128 128" xmlns="http://www.w3.org/2000/svg">
  <g>
    <path d="M118.4,56.2c-0.3-2.2-0.7-4.2-1.3-6.2c-0.8-3-1.8-5.9-3-8.5c5-3.4,8.3-9.1,8.3-15.5 c0-10.3-8.4-18.7-18.7-18.7c-6.7,0-12.6,3.6-15.9,8.9c-7.3-3.1-15.4-4.7-23.7-4.7c-8.3,0-16.4,1.6-23.7,4.7 c-3.3-5.3-9.2-8.8-15.9-8.8c-10.3,0-18.7,8.4-18.7,18.7c0,6.4,3.3,12.1,8.2,15.5c-1.2,2.7-2.2,5.5-3,8.5l0,0 c-0.1,0.2-0.1,0.4-0.1,0.6c-0.1,0.6-0.3,1.2-0.4,1.8c-0.1,0.3-0.1,0.6-0.2,1c-0.5,2.8-0.9,5.7-1.1,8.8C9,63.1,9,64.2,9,65.3 c0,0.1,0,0.3,0,0.4c0,1.2,0,2.3,0.1,3.5c0.1,2.2,0.4,4.4,0.7,6.5c4.7,28.5,28.6,43.7,54.2,43.7c25.6,0,49.5-15.5,54.2-43.7h0 c0.3-2.1,0.6-4.2,0.7-6.4c0-0.2,0-0.4,0-0.7c0-0.9,0.1-1.8,0.1-2.8c0-0.1,0-0.3,0-0.4c0-2.1-0.1-4.1-0.3-6.1 C118.6,58.2,118.5,57.2,118.4,56.2z M103.6,16.1c5.4,0,9.8,4.4,9.8,9.8c0,3.2-1.5,6-3.8,7.8c-3.8-5.4-8.6-9.9-14-13.4 C97.4,17.7,100.3,16.1,103.6,16.1z M14.6,25.9c0-5.4,4.4-9.8,9.8-9.8c3.3,0,6.2,1.6,8,4.1c-5.5,3.5-10.3,8-14.1,13.4 C16,31.8,14.6,29,14.6,25.9z M100.2,103.1c-9.5,8.5-22.3,13.2-36.2,13.2c-22.5,0-46.6-12.9-51.2-41.1l9.5-1.3 c0.6-0.1,1.2-0.6,1.3-1.3c0.1-0.8-0.5-1.6-1.3-1.7l-10.2-1.4c-0.1-1.4-0.2-2.8-0.2-4.2L22.3,64c0.6-0.1,1.2-0.6,1.3-1.3 c0.1-0.8-0.5-1.6-1.3-1.7l-10.1-1.4c0.1-1.3,0.3-2.6,0.5-3.8l9.6-1.3c0.6-0.1,1.2-0.6,1.3-1.3c0.1-0.8-0.5-1.6-1.3-1.7l-8.5-1.2 c0.7-2.6,1.6-5.1,2.6-7.5c0.4-0.9,0.8-1.8,1.3-2.7c0.9-1.8,1.9-3.5,3.1-5.1c2-2.8,4.3-5.4,6.9-7.7c1.8-1.6,3.8-3.1,5.9-4.5 c1.7-1.1,3.4-2,5.2-2.9c0.9-0.4,1.8-0.9,2.7-1.2c6.8-2.8,14.4-4.3,22.3-4.3v0c7.9,0,15.5,1.5,22.3,4.4c0.9,0.4,1.8,0.8,2.7,1.3 c1.8,0.9,3.5,1.9,5.2,2.9c2.1,1.4,4.1,2.9,6,4.6c2.6,2.3,4.8,4.9,6.8,7.6c1.2,1.6,2.2,3.3,3.1,5.1c0.5,0.9,0.9,1.8,1.3,2.7 c1.1,2.4,2,4.9,2.7,7.5l-8.1,1.1c-0.7,0.1-1.2,0.6-1.3,1.3c-0.1,0.8,0.5,1.6,1.3,1.7l9.3,1.3c0.2,1.3,0.4,2.6,0.5,3.9l-9.8,1.3 c-0.7,0.1-1.2,0.6-1.3,1.3c-0.1,0.8,0.5,1.6,1.3,1.7l10.1,1.4c0,1.4-0.1,2.8-0.2,4.2l-9.9,1.4c-0.7,0.1-1.2,0.6-1.3,1.3 c-0.1,0.8,0.5,1.6,1.3,1.7l9.2,1.3C113.3,86.3,108.2,95.9,100.2,103.1z"/>
    <ellipse cx="37.1" cy="58.3" rx="8.8" ry="10"/>
    <ellipse cx="90.9" cy="58.2" rx="8.8" ry="10"/>
    <path d="M69.6,46c-0.2-0.2-0.5-0.4-0.7-0.6c-0.3-0.2-0.6-0.4-1-0.6c-0.4-0.2-0.8-0.3-1.2-0.5 c-0.4-0.1-0.9-0.2-1.3-0.3C65,44,64.5,44,64,43.9c-0.5,0-1,0-1.4,0.1c-0.5,0.1-0.9,0.2-1.3,0.3c-0.4,0.2-0.8,0.3-1.2,0.5 c-0.4,0.2-0.7,0.4-1,0.6c-0.3,0.2-0.5,0.4-0.8,0.6c-0.1,0.1-0.2,0.2-0.3,0.3c-0.1,0.1-0.1,0.2-0.2,0.2c-0.2,0.3-0.3,0.5-0.3,0.5 c-0.2,0.4-0.3,0.8-0.3,1.2c0.2,1,1.1,1.6,2,1.4c0,0,0.2,0,0.5-0.1c0.1,0,0.2,0,0.3-0.1c0.1,0,0.2,0,0.2,0c0.2,0,0.4,0,0.6-0.1 c0.9-0.1,2-0.2,3.1-0.2c1.1,0,2.2,0.1,3.1,0.3c0.4,0.1,0.8,0.1,1.1,0.2c0.3,0,0.5,0.1,0.5,0.1l0.3,0c0.4,0,0.8,0,1.1-0.3 c0.8-0.5,1-1.6,0.4-2.3c0,0-0.1-0.2-0.4-0.5C70,46.4,69.8,46.2,69.6,46z"/>
    <path d="M72.7,39.4c0.5,0.2,0.9,0.2,0.9,0.2l0.2,0c0.5,0.1,1,0,1.4-0.3c0.7-0.6,0.8-1.6,0.3-2.3c0,0-0.2-0.3-0.7-0.8 c-0.2-0.3-0.5-0.6-0.9-0.9c-0.4-0.3-0.8-0.7-1.3-1c-0.3-0.2-0.5-0.3-0.8-0.5c-0.3-0.1-0.6-0.3-0.9-0.5c-0.6-0.3-1.3-0.5-2-0.8 c-0.7-0.2-1.5-0.4-2.3-0.5C65.7,32,64.8,32,64,32c-0.8,0-1.6,0-2.4,0.2c-0.8,0.1-1.6,0.3-2.3,0.5c-0.7,0.3-1.4,0.5-2,0.8 c-0.3,0.1-0.6,0.3-0.9,0.5c-0.3,0.2-0.5,0.3-0.8,0.5c-0.5,0.3-1,0.7-1.4,1c-0.2,0.2-0.4,0.3-0.5,0.5c-0.1,0.1-0.2,0.3-0.4,0.4 c-0.4,0.5-0.7,0.8-0.7,0.8c-0.3,0.4-0.4,0.9-0.3,1.5c0.2,0.9,1.2,1.4,2.1,1.2c0,0,0.3-0.1,1-0.3c0.1,0,0.3-0.1,0.5-0.2 c0.2,0,0.3-0.1,0.5-0.1c0.3-0.1,0.8-0.2,1.2-0.3c0.4-0.1,0.9-0.2,1.4-0.3c0.5-0.1,1-0.2,1.6-0.3c0.5,0,1.1-0.1,1.7-0.2 c0.6-0.1,1.2,0,1.7-0.1c0.6,0,1.2,0,1.8,0.1c0.6,0,1.1,0.1,1.7,0.2c0.5,0.1,1.1,0.1,1.6,0.3c0.5,0.1,1,0.2,1.4,0.3 c0.5,0.1,0.9,0.2,1.2,0.3S72.4,39.3,72.7,39.4z"/>
    <path d="M52.9,29.8c0,0,0.4-0.1,1.1-0.4c0.2-0.1,0.3-0.1,0.5-0.2c0.2,0,0.4-0.1,0.6-0.2c0.4-0.1,0.8-0.2,1.4-0.4 c0.5-0.2,1.1-0.3,1.7-0.4c0.6-0.2,1.2-0.2,1.8-0.3c0.6-0.1,1.3-0.2,2-0.2c0.7-0.1,1.4-0.1,2-0.1c0.7,0,1.4,0,2,0.1 c0.7,0,1.3,0.2,2,0.2c0.6,0.1,1.3,0.2,1.8,0.3c0.6,0.1,1.2,0.2,1.7,0.4c0.5,0.1,1,0.3,1.4,0.4c0.4,0.1,0.8,0.2,1.1,0.4 c0.6,0.2,1,0.3,1,0.3l0.2,0.1c0.5,0.1,1,0,1.5-0.3c0.7-0.6,0.8-1.6,0.2-2.3c0,0-0.3-0.3-0.8-0.9c-0.3-0.3-0.6-0.6-1-1 c-0.4-0.3-0.9-0.7-1.5-1.1c-0.3-0.2-0.6-0.4-0.9-0.6c-0.3-0.2-0.7-0.3-1-0.5c-0.7-0.4-1.5-0.6-2.3-0.9c-0.8-0.2-1.7-0.5-2.6-0.6 c-0.9-0.2-1.8-0.2-2.7-0.2c-0.9,0-1.8,0.1-2.7,0.2c-0.9,0.1-1.8,0.4-2.6,0.6c-0.8,0.3-1.6,0.5-2.3,0.9c-0.3,0.2-0.7,0.3-1,0.5 c-0.3,0.2-0.6,0.4-0.9,0.6c-0.6,0.3-1.1,0.7-1.5,1.1c-0.2,0.2-0.4,0.3-0.6,0.5c-0.2,0.2-0.3,0.3-0.4,0.4 c-0.5,0.5-0.8,0.8-0.8,0.8c-0.3,0.4-0.5,1-0.3,1.5C51.1,29.5,52,30,52.9,29.8z"/>
    <path d="M76.8,69.2c-1.7,0-3.3,0.3-4.8,0.7v-3.5c0-4.4-3.6-8-8-8s-8,3.6-8,8v3.5c-1.5-0.5-3.1-0.7-4.8-0.7 c-8.9,0-16.2,7.2-16.2,16.2c0,7.8,5.5,14.2,12.7,15.8c3.4,6.1,9.4,12.6,16.2,12.6s12.8-6.5,16.2-12.6c7.3-1.6,12.7-8,12.7-15.8 C92.9,76.4,85.7,69.2,76.8,69.2z M56.8,70.2c0.3-0.1,0.5-0.2,0.9-0.2h12.7c0.3,0,0.6,0.1,0.9,0.2c1,0.5,1.5,1.7,0.8,2.8 c-1.8,2.7-4.8,5.9-8,5.9c-0.6,0-1.3-0.1-1.9-0.4c-2.5-0.9-4.7-3.4-6.1-5.6C55.3,71.9,55.8,70.7,56.8,70.2z M64,106.5 c-5.5,0-10.5-2.2-14.7-5.1c0.6,0.1,1.3,0.1,1.9,0.1c5.2,0,9.8-2.5,12.8-6.3c3,3.8,7.6,6.3,12.8,6.3c0.7,0,1.3-0.1,1.9-0.1 C74.5,104.3,69.5,106.5,64,106.5z"/>
  </g>
</svg>