<svg width="128" height="128" xmlns="http://www.w3.org/2000/svg">
  <g>
    <path d="M120.1,75.7c-1.6,1.3-5.7,1.9-12.4,3.4c-9,2.1-11.6,2.8-18.3,7.7c-6.7,4.9-9.2,9.5-12.6,10.2c-3.4,0.7-4.8-1.4-10-5.2 c-4.2-3.1-12.5-5.9-29.3-10.1c-16.7-4.3-25.8-6.2-25.8-6.2s-0.3,0.1-0.8-0.5c-0.6,1-2.2,3.5-1.9,5.3c0.4,2.5-1.1,1.1,0,4.6 c1.1,3.4,0.2,5.3,4.3,6.8c0.8,0.3,1.4,0.6,1.8,0.8c0,0.6,0,1.2,0.2,1.8c0,0,1.6,24.3,51.1,23.9c49.5-0.4,50.2-22.7,50.9-26.5 c0.1-0.6-0.3-1.4-1.4-2.2c1.1-0.4,1.9-0.6,2.7-1.2c1.3-1,1.8-1,3.1-3.4c1-2,0.9-4.7,0-7.6C121.5,77,120.9,76.4,120.1,75.7z"/>
    <path d="M9.2,63.2c0.2,1,1.3,1.4,2.2,0.9h0.1c0.7-0.5,1.7-0.4,2.1,0.3c0.5,0.9-0.2,2-0.3,3.1c-0.2,1.5,1.3,3,2.7,2.8 c1.2-0.2,2.1-1.4,2.1-2.6c0.3,1.3,1.5,2.4,2.8,2.5c0.7,0.1,1.3-0.1,1.9-0.5l0.6,2.9c0.2,1.1,0.9,2.1,1.8,2.6 c3.5,2.1,13.3,6.6,34.1,5.9c20.9-0.7,31.4-3.2,39-6c0.2,0.9,0.4,1.7,1.2,2c1,0.5,2.2-0.1,2.9-0.9c0.8-0.8,2.1-3.3,3.1-3.7 c2.2-0.9,4.5,2.4,6.6,1.2c1-0.6,1.2-1.1,1.6-2.2c0.4-1.1,1-2.3,2.1-2.5c0.5-0.1,1.1,0.1,1.4,0.5c0.9,0.9,2.2,1.1,3.2,0.4 c2.6-1.8,3.8-5.5,3-9.8c-0.6-3.2-3.3-5.1-5.1-6.7c1.8-2.8,1.4-7.5-2.6-17c-8-19.4-36.5-21.9-50.5-22.8c-18.7-1.2-27.6,4.1-32.1,5.5 C24.2,21.9,13.7,30.7,11.5,41c-0.8,3.6-0.8,6.5,0.1,8.8c-0.8-0.3-1.7-0.3-2.5,0.4C8,51,8.2,52.3,8.5,53.3c0.1,0.3,1.4,1.7,1.8,1.3 c-1,1-2.7,0.3-4.1-0.1c-1.4-0.4-3.1,0.2-2.9,1.7c0.1,1,0.8,1.2,1.7,1.6c0.9,0.4,1.7,0.7,1.1,1.5c-0.6,0.8-1.4,0.1-2.4,1 C1.7,62,4.2,65,5.5,65c2-0.1,2.5-1.2,3.6-1.9L9.2,63.2z M96.7,27.8c0.5-0.2,1.3-0.2,1.8,0.8c0.6,1.2,0.6,2.8,0.1,3.1 s-1.8-0.8-2.4-2C95.7,28.7,96.2,28,96.7,27.8z M92.8,38.6c0.1,0.6-1.2,1.5-2.5,1.8c-1.1,0.2-1.6-0.4-1.7-1 c-0.1-0.5,0.1-1.3,1.2-1.5C91.1,37.6,92.7,38,92.8,38.6z M87.2,22.3c0.2-0.5,0.7-1.1,1.8-0.8c1.3,0.4,2.5,1.5,2.3,2.1 c-0.2,0.6-1.8,0.8-3.1,0.4C87.2,23.6,87,22.8,87.2,22.3z M78.4,31.7c1.1,0,1.5,0.7,1.5,1.2s-0.3,1.3-1.5,1.3 c-1.3,0.1-2.8-0.6-2.9-1.2C75.6,32.5,77,31.8,78.4,31.7z M70.2,19.8c0.4-0.4,1.9,0.3,2.8,1.3c0.8,0.8,0.5,1.6,0,2 c-0.4,0.3-1.2,0.6-2-0.3C70.2,21.8,69.7,20.2,70.2,19.8z M63.6,35.6c0.4-1.3,1.5-2.5,2.1-2.2c0.6,0.2,0.7,1.8,0.3,3.1 c-0.4,1.1-1.2,1.2-1.7,1C63.8,37.2,63.2,36.7,63.6,35.6z M54.4,21.8c0.6-1.2,1.9-2.2,2.4-1.9c0.5,0.3,0.5,1.9-0.2,3.1 c-0.5,1-1.3,1-1.8,0.7C54.4,23.5,53.9,22.8,54.4,21.8z M51.1,28.7c1.2-0.6,2.8-0.6,3.1-0.1c0.3,0.6-0.8,1.8-2,2.4 c-1,0.5-1.7,0-1.9-0.5S50.1,29.2,51.1,28.7z M40.5,33.5c0.1-1.3,1-2.7,1.6-2.7c0.6,0.1,1.1,1.6,1,2.9c-0.1,1.1-0.9,1.4-1.4,1.4 C41.1,35.1,40.4,34.7,40.5,33.5z M33.5,23.1c0.6-0.2,1.7,0.9,2.2,2.2c0.4,1-0.1,1.7-0.6,1.9s-1.3,0.1-1.7-0.9 C32.9,25,33,23.3,33.5,23.1z"/>
  </g>
</svg>