<svg viewBox="0 0 128 128" xmlns="http://www.w3.org/2000/svg">
  <path d="M50.8,47.6c3.6,0,6.5,3.3,6.5,7.4s-2.9,7.4-6.5,7.4s-6.5-3.3-6.5-7.4S47.2,47.6,50.8,47.6z M15.9,84.7 c0.5,2.2,2.5,2.3,3.8,0.9c1.1-1.2,1.9-2.8,1.8-4.5s-1.2-3.3-2.8-3.8c-1.4-0.4-3,0.2-4.2,0.9c-2.7,1.5,1.6,1.3,1.9,2.7 C16.8,82,15.7,83.5,15.9,84.7z M59.7,21.7c-0.1-1.8,0.5-8.1,1.5-12.1c0.3-1.2,4.7,9.4,5.3,11c0.5,1.3,0.9,2.8,0.7,4.2 c-0.2,1.5-1,2.9-2.3,3.3c-1.5,0.4-3.1-0.5-3.9-1.8C60.1,25,59.8,23.3,59.7,21.7z M70.1,17.6L70.1,17.6c-2.2-4.6-5.4-9.2-7.8-12.2 c-1.2-1.6-3.7-1-4.2,0.9c-0.7,2.5-1.4,5.8-2,9.3c-0.6-0.1-1.3-0.2-1.9-0.2c-1.6,0-3.2,0.3-4.6,0.9c-3.5,1.5-6.4,4.3-9.1,7 c-2.8,2.7-5.6,5.6-9.1,7.1c-1.2,0.5-2.6,0.8-4.1,0.8c-2.1,0-4.2-0.6-5.7-1.7c-0.1-0.1-0.2-0.1-0.3-0.1c-0.3,0-0.6,0.3-0.5,0.6 c1.1,8.7,7.7,13.1,13,13.9c0.8,0.1,1.6,0.2,2.3,0.3c-8.1,8.6-16.7,18-22.8,25c-4.8,5.4-8,9.4-8.3,10.5C3.2,86,3.7,94.3,8.6,98.5 c2.2,1.9,6.3,3.6,10.9,3.6c1.7,0,3.5-0.2,5.3-0.8c3.2-1,9.4-7.8,10.2-7.8c1.5,0.3,4.3,0.7,7.8,0.7c3.6,0,7.9-0.4,12.2-2 c10-3.6,12.7-10.1,12.7-10.1l10.8,41.2H124V76.5V53.1C109,34.5,79.5,21.5,70.1,17.6z M120.9,120.2H80.8l-10.3-39 C70.2,80,69.1,79,67.8,79c-0.1,0-0.1,0-0.2,0c-1.2,0-2.3,0.7-2.8,1.8c-0.1,0.2-2.4,5.4-10.9,8.5c-3.3,1.2-7.1,1.8-11.1,1.8 c-3.3,0-5.9-0.4-7.2-0.7c-0.2,0-0.4,0-0.6,0c-1.5,0-2.4,0.8-4.9,3.1c-1.6,1.4-4.9,4.4-6.2,4.8C22.5,98.7,21,99,19.5,99 c-3.9,0-7.4-1.4-9-2.9C6.8,93,6.4,86,7.9,80.7c0.2-0.4,1.4-2.3,7.7-9.5c6.7-7.7,16.1-17.9,24.6-26.9c9.9-0.4,15.6-5.5,18.6-11.2l0,0 c1.5,1.1,3.7,1.5,6.7,0.8c2-0.5,3.5-1.3,4.6-2.3c2.2,9,5.7,19.2,10.5,22.3c1.8,0,1.6-10.3,2.8-12.8c1.1,2.8,5,23.8,7.9,24.4 c0,0,0.1,0,0.2,0c2.3,0,1.8-11.3,2.2-13.4c1.8,6.6,6.8,23.1,9.1,23.5h0.1c2.1,0,1.9-8.8,2.3-10.9c2.6,6.4,8.6,24.1,11.4,24.1 c1.5,0,1-9.3,1.4-11.3c1,1.8,2,4.6,2.9,7.6V120.2z"/>
</svg>