<svg width="128" height="128" xmlns="http://www.w3.org/2000/svg">
  <path d="M122,47.9c-0.2,0-0.3,0-0.5,0.1c-6.2,1.6-12,3.5-17.5,5.5c0,0,0,0,0.1,0l-7.4-2l16.4-12.3c1.2-0.9,0.5-2.7-0.9-2.7 c-0.1,0-0.1,0-0.2,0l-19.9,2.7l10.4-17.3c0.6-1.1-0.2-2.2-1.3-2.2c-0.2,0-0.5,0.1-0.7,0.2L82.7,30.1l3-20.3c0.1-1-0.7-1.7-1.5-1.7 c-0.4,0-0.8,0.2-1.1,0.6l-12.2,16L66,5.1C65.8,4.4,65.2,4,64.5,4c-0.6,0-1.2,0.4-1.4,1.1l-5.3,19.8L45.6,8.5 c-0.3-0.4-0.7-0.6-1.2-0.6c-0.8,0-1.6,0.7-1.5,1.7l2.7,20L28.4,19.1c-0.2-0.2-0.5-0.2-0.8-0.2c-1,0-1.9,1.2-1.3,2.2l10.2,17.8 l-20.2-3c-0.1,0-0.2,0-0.2,0c-1.4,0-2,1.8-0.9,2.7l16,12.3l-19.5,4.9c-0.5,0.1-0.9,0.5-1,0.9c0,0-1.5-0.4-3.9-0.9 c-0.2,0-0.3,0-0.5-0.1C5,55.7,4,56.7,4,58v66h22.3H41h76.9c-0.1-0.1-0.1-0.1-0.2-0.2h6.3V81.4v-1.7V49.9 C124,48.8,123.1,47.9,122,47.9z M31.9,53.8c1.1-0.3,2-1.2,2.2-2.3c0.2-1.1-0.2-2.3-1.1-3l-11.3-8.7l14.4,2.1c0.2,0,0.3,0,0.4,0 c1,0,1.9-0.5,2.5-1.3c0.7-1,0.7-2.2,0.1-3.2l-7.3-12.7L44,32.1c0.5,0.3,1,0.4,1.5,0.4c0.6,0,1.1-0.2,1.6-0.5c1-0.6,1.5-1.8,1.3-2.9 L46.7,15l8.7,11.7c0.6,0.8,1.5,1.2,2.4,1.2c0.2,0,0.4,0,0.6,0c1.1-0.2,2-1.1,2.3-2.2l3.8-14.1l3.4,13.9c0.3,1.1,1.2,2,2.3,2.2 c0.2,0,0.4,0.1,0.6,0.1c0.9,0,1.8-0.4,2.4-1.2l8.6-11.3l-2.1,14.5c-0.2,1.1,0.3,2.3,1.3,2.9c0.5,0.3,1.1,0.5,1.7,0.5 c0.5,0,1-0.1,1.5-0.4l12.6-7.3l-7.4,12.3c-0.6,1-0.6,2.2,0.1,3.2c0.6,0.8,1.5,1.3,2.5,1.3c0.1,0,0.3,0,0.4,0l14.1-1.9l-11.7,8.8 c-0.9,0.7-1.4,1.8-1.2,3c0.2,1.1,1.1,2,2.2,2.3l3.6,1c-16.5,7-29.2,15.7-38.7,24c-10.1-6.2-19-10.8-26.7-14.2 c0.2-0.5,0.3-1.1,0.2-1.7c-0.2-1.1-1.1-2-2.2-2.3l-14-4L31.9,53.8z M29.2,121H7V58.9c9.1,2,33.2,9,66.7,32.5 C59,97.5,43.2,106.8,29.2,121z M121,79.8c-6.7,0.5-24.1,2.5-44.1,10.2c-4.7-3.3-9.2-6.3-13.5-9C75.3,70.8,94.2,58.2,121,51.2V79.8z"/>
</svg>