<svg width="128" height="128" xmlns="http://www.w3.org/2000/svg">
  <g>
    <path d="M121,74c1.7,0,3-1.3,3-3V55c0-1.7-1.3-3-3-3h-13v-4h3c2.7,0,5-1.2,6.7-3c0.8-0.9,1.4-1.9,1.8-3c0.3-0.9,0.5-2,0.5-3V13 c0-1-0.2-2.1-0.5-3c-0.4-1.1-1-2.1-1.8-3c-1.6-1.8-4-3-6.7-3H73c-2.7,0-5,1.2-6.7,3c-0.8,0.9-1.4,1.9-1.8,3c-0.3,0.9-0.5,2-0.5,3 v26c0,1,0.2,2.1,0.5,3c0.4,1.1,1,2.1,1.8,3c1.7,1.8,4,3,6.7,3h3v4H7c-1.7,0-3,1.3-3,3v16c0,1.7,1.3,3,3,3h1v42c-2.2,0-4,1.8-4,4v4 h120v-4c0-2.2-1.8-4-4-4V74H121z M67.8,42c-0.2-0.3-0.3-0.6-0.5-1c-0.2-0.7-0.3-1.3-0.3-2V13c0-0.7,0.1-1.3,0.3-2 c0.1-0.4,0.3-0.7,0.5-1h48.4c0.2,0.3,0.3,0.6,0.5,1c0.2,0.7,0.3,1.3,0.3,2v26c0,0.7-0.1,1.3-0.3,2c-0.1,0.4-0.3,0.7-0.5,1 C115.1,42,70.6,42,67.8,42z M32,102c0,1.1-0.9,2-2,2H11V80h19c1.1,0,2,0.9,2,2V102z M63.5,116H44v-16h19.5V116z M63.5,92H44V74 h19.5V92z M84,116H64.5v-16H84V116z M84,92H64.5V74H84V92z M84,48h16v4H84V48z M117,104H98c-1.1,0-2-0.9-2-2V82c0-1.1,0.9-2,2-2h19 V104z"/>
    <path d="M91,35.5h-6.5c-0.8,0-1.3-0.9-0.8-1.6l2.4-3.5c0,0,0,0,0-0.1c2-2.3,3.3-4.3,4.1-5.9c0.8-1.6,1.1-3.2,1.1-4.7 c0-2.5-0.7-4.4-2-5.8c-1.4-1.4-3.3-2-5.7-2c-1.6,0-3,0.4-4.3,1.2c-1.3,0.8-2.3,1.9-3,3.3c-0.5,1.1-0.9,2.3-1,3.5 c-0.1,0.6,0.4,1.1,1,1.1h3.4c0.5,0,0.9-0.4,1-0.9c0.1-1,0.3-1.9,0.7-2.5c0.5-0.8,1.2-1.2,2.1-1.2c0.8,0,1.4,0.4,1.8,1.1 c0.4,0.7,0.6,1.7,0.6,2.9c0,0.9-0.2,1.9-0.7,2.9s-1.2,2.2-2.1,3.5L76,36c-0.1,0.2-0.2,0.4-0.2,0.6V39c0,0.5,0.5,1,1,1H91 c0.5,0,1-0.5,1-1v-2.5C92,36,91.6,35.5,91,35.5z"/>
    <path d="M108.1,29.6h-0.3c-0.5,0-1-0.5-1-1V13.4c0-0.6-0.5-1-1-1H102c-0.4,0-0.7,0.2-0.9,0.5l-9,17.4C92,30.5,92,30.7,92,30.8 l0.2,2.2c0,0.5,0.5,0.9,1,0.9h7.2c0.5,0,1,0.5,1,1v4c0,0.5,0.5,1,1,1h3.4c0.5,0,1-0.5,1-1v-4c0-0.5,0.5-1,1-1h0.3c0.6,0,1-0.5,1-1 v-2.4C109.1,30,108.7,29.6,108.1,29.6z M101.4,28.6c0,0.5-0.5,1-1,1h-1.6c-0.7,0-1.2-0.8-0.9-1.4l3.4-7.6l0.1-0.2V28.6z"/>
  </g>
</svg>