<svg width="128" height="128" xmlns="http://www.w3.org/2000/svg">
  <g>
    <path d="M122.1,120.1l-6.2-7.1c0-1.4-0.4-3.1-1-4.2c-7.1-13.6-33.7-64.6-44-84.2c0-0.2,0-0.4,0-0.6L69,20.3 c-0.2-0.5-0.8-0.7-1.3-0.5l-1,0.5c-0.5,0.2-0.7,0.9-0.5,1.4l1.4,3c0,0.1,0,0.1,0,0.2c-0.2,2.5-0.9,4.9-2.9,6.1 c-1.1,0.7-2.2,1-3.4,1c-2,0-4.1-0.8-6.2-1.8l-2.4-3.4c-0.3-0.5-1-0.6-1.4-0.2l-0.9,0.7c-0.5,0.3-0.6,1-0.2,1.4l2,2.8 c0,0.1,0,0.1,0,0.2c0.6,2.5,0.9,5.3,0.5,7.6l-14.1-16l1-0.9L27.3,8.5C22.7,3.3,14.9,2.8,9.7,7.4C4.5,12,4.1,19.9,8.6,25l1,1.2 c1.7,1.9,4.7,2.1,6.6,0.4c1.9-1.7,2.1-4.7,0.4-6.6l-1-1.2c-1.1-1.3-1-3.3,0.3-4.4c1.3-1.1,3.3-1,4.4,0.3l12.3,13.9l1.3-1.2 l14.7,16.7c-0.7,0.2-1.6,0.3-2.5,0.3c-2.2,0-4.7-0.6-6.9-1.5c-0.1,0-0.1,0-0.2-0.1l-2.5-2.2c-0.4-0.3-1-0.3-1.4,0.1l-0.8,0.8 c-0.3,0.4-0.3,1,0.1,1.4l2.8,2.6c1.2,3.9,2,8.1-0.4,10.7c-1.2,1.3-3,1.7-4.9,1.7c-0.3,0-0.6,0-0.9,0c-0.1,0-0.1,0-0.2,0l-3.2-2.1 c-0.5-0.3-1.1-0.2-1.4,0.3l-0.6,1c-0.3,0.5-0.2,1.1,0.3,1.4l3.5,2.3c0.2,0.1,0.5,0.2,0.7,0.2c0.1,0,0.1,0.1,0.2,0.1l78.1,53.5 c1,0.7,2.6,1.3,4,1.5l6.2,7.1c0.6,0.6,1.5,0.7,2.1,0.1l1.3-1.1C122.6,121.6,122.7,120.7,122.1,120.1z M61.4,34.9 c1.8,0,3.5-0.5,5-1.5c1.6-1,2.8-2.5,3.5-4.5l36.3,69.5L58,34.4C59.1,34.7,60.3,34.9,61.4,34.9z M35,60.6c1.7-0.4,3.1-1.2,4.2-2.4 c2.6-2.6,2.8-6,2.3-9.2l56.8,55L35,60.6z M110.8,112l-68-65c1.2,0.3,2.4,0.4,3.6,0.4c2.7,0,4.9-0.7,6.6-2.2 c2.4-2.1,3.1-5.4,3.1-8.4L112,111L110.8,112z"/>
    <path d="M24.8,35.1c0,0,0,0.1,0.1,0.1C24.9,35.1,24.9,35.1,24.8,35.1z"/>
  </g>
</svg>