<svg viewBox="0 0 128 128" xmlns="http://www.w3.org/2000/svg">
  <g>
    <path d="M32.7,20.4c-1.3-0.2-2,0.1-2.3,0.6c-0.4,0.6-0.1,1.3,1,1c1.4-0.4,3,0.8,3.4,0.7c0.3,0,0.3-0.5,0-0.9 C34.5,21.3,34,20.6,32.7,20.4z"/>
    <path d="M93.9,46.3c-0.2-0.1-0.4-0.2-0.6-0.3c0.3-0.3,0.5-0.6,0.6-1c0-0.3,0-0.5-0.2-0.7c-0.4-0.5-1.1-0.5-2.2-0.6 c-0.8-0.1-1.7-0.1-2.6-0.4c-1.2-0.3-2.2-0.8-3-1.2c-0.4-0.2-0.8-0.4-1.1-0.5c0,0,0,0,0,0c-0.2-0.1-0.3-0.1-0.5-0.1 c-0.5-0.2-1.1-0.2-1.6-0.2c0,0-0.1,0-0.1,0c0,0,0,0,0,0c-0.2-0.2-0.4-0.3-0.7-0.5l-8.6-6l-0.1-0.1l0,0c-0.6-0.4-1.3-0.6-2-0.7 l0-0.1l-7.8-0.2v-1.6c0-0.4-0.3-0.7-0.6-0.7h-9.7c-0.4,0-0.8,0-1.1,0.1c-0.8-0.2-1.6-0.3-2.3-0.3c-0.3,0-0.6,0-0.8,0 c0-0.1,0-0.3,0-0.4l0.2,0c0.9-3.7,5.3-5,5.4-14.5c0.1-8.2-7.3-12.3-14.2-12c-6.6,0.3-13.7,5.1-12.5,14c0,0,0.2,0.1,0.4,0.1 c0.1,1.1,0.3,2.2,0.7,3c0.1,0.1,0.5,1.2,0.6,1.5c0.4,1.3-2,3-2.1,4.4c-0.1,1.1,2.3,1.5,2.5,1.7c1,0.8,0.3,5.3,5.8,5.3 c0.2,0,0.5,0,0.8,0c1-0.1,1.9-0.2,2.7-0.2c1,0,1.9,0.2,2.3,1l1.2,1.4c0,0.1,0,0.2,0,0.2c-0.7,0.7-1.2,1.5-1.5,2.4l-2.9,9.2 c-0.1,0.3,0.1,0.6,0.4,0.8l1.3,0.4l-1.1,3.2l-8.6,2.8c-0.2,0-0.4,0-0.6,0c-0.3,0-0.6,0-1,0.1c-1,0.1-2.2,0.2-4.2,0.1 c-2.6-0.2-5.6-0.8-5.7-0.8c0,0-0.1,0-0.1,0c-0.6,0-1.1,0.3-1.3,0.8c-0.2,0.4-0.2,0.9,0.1,1.4c0.2,0.4,0.7,0.7,1.3,0.9 c0.1,0.1,0.3,0.1,0.4,0.2c0,0.1,0,0.1,0,0.2c0.1,0.6,0.5,1.1,1.1,1.3c0.3,0.1,0.8,0.2,1.2,0.3c-0.1,0.2-0.1,0.4-0.1,0.6 c0,0.4,0.3,0.7,0.6,0.9c0.4,0.2,0.9,0.2,1.5,0.2c0,0,0,0,0,0c-0.1,0.1-0.2,0.3-0.2,0.5c0,0.4,0.1,0.9,0.9,1.5 c0.3,0.2,0.6,0.3,1,0.3c1.2,0,2.7-0.4,4-0.9c0.6-0.2,1.1-0.5,1.4-0.7c0.2-0.2,0.5-0.4,0.7-0.6l10.9-2.3l0,0 c1.3-0.3,2.3-1.3,2.7-2.5h0l1.8-5.2l1.6,0.5c0.1,0,0.1,0,0.2,0c0.2,0,0.5-0.2,0.6-0.4l0.1-0.4l5,8.6l-7.4,9.8l0.4,0.3l-3.5,4.2 c-3.4,4-3,6.2-2.1,9.5l0.5,1.9C30,93.6,17.2,100,4,105.1V124h120V10.9C115.7,23,105.5,34.9,93.9,46.3z M55,98.6l-1.7-8.1 c3.4-1.2,6.8-2.2,10-3l3.7,2.5c-1.2,0.7-1.9,1.9-1.8,3.4c0,0.4,0.2,0.8,0.4,1.1L55,98.6z M56.6,105.9l0,0.4l-0.6-2.7L56.6,105.9 L56.6,105.9z M78.3,89.4c0-0.1-0.1-0.2-0.1-0.2l0,0l0-0.2c-0.1-0.2-0.2-0.5-0.3-0.5h0l-0.1,0.1l-4-3.4c3.7-0.6,8.4-1.2,12.7-1.2v0 c1.7,0,3.3,0.1,4.7,0.3L78.3,89.4z M77.1,89.6c0.1,0.1,0.1,0.1,0.2,0.1c0.2,0.5,0.6,1.6,0.7,2.3c0,0.9-0.7,1.7-1.6,1.7l-9.2,0.5 h-0.1c-0.5,0-1-0.4-1-1c-0.1-1.4,0.7-2.1,1.3-2.5c0.3-0.2,0.5-0.5,0.5-0.8c0-0.3-0.2-0.7-0.4-0.9l-9.3-6.2c0,0-0.1,0-0.1-0.1 c-1.3-0.9-1.9-2.4-1.5-3.9l0.2,0.1l4.7-4.7l4,1.5L64.6,78c-0.2,0.4,0,0.9,0.3,1.1L77.1,89.6z M71.3,64.5c1.7-2,2.3-4.6,1.8-7 c0,0,0-0.1,0-0.1c-0.2-0.8-0.5-1.7-1-2.4l0.1,0l-9.2-11.7c0.3-0.1,0.5-0.3,0.5-0.6v-1.4l6.5,0.1c0,0,0.1,0,0.1,0l8.8,4.6 c0.1,0.8,0.4,1.5,0.9,2.2c0.5,0.6,0.7,1,0.8,1.1c0.4,0.9,0.6,1.8,0.7,2.3c0.2,0.8,0.3,1.2,0.6,1.4c0.3,0.3,0.6,0.4,0.9,0.4 c0.2,0,0.3,0,0.4-0.1c0.1,0,0.2-0.1,0.3-0.2c0.7-0.5,0.9-1.7,0.9-2.1c0-0.5,0-1.1,0-1.6c0.4,0.2,0.9,0.4,1.3,0.9l0.3,0.3 c0.7,0.7,1.3,1.4,2,1.9c-5.5,5-11.2,9.9-17.2,14.6L71.3,64.5z M73.4,36.2l1.2,0.8l6.6,4.6l0,0l0.1,0c0.1,0.1,0.3,0.2,0.4,0.3 c0.2,0.1,0.3,0.2,0.5,0.4c0.3-0.1,0.5-0.1,0.8-0.1c0,0,0.1,0,0.1,0c0.1,0,0.3,0,0.4,0c0.3,0,0.6,0.1,0.9,0.2c0,0,0,0,0.1,0 c0.3,0.1,0.6,0.3,1,0.5c0.8,0.4,1.9,1,3.2,1.3c1,0.2,1.9,0.3,2.7,0.4c0.6,0.1,1.4,0.1,1.5,0.2c0,0.2-0.2,0.4-0.4,0.5 c-0.2,0.1-0.4,0.2-0.6,0.2c0,0,0,0,0,0c0,0,0,0,0,0L89.7,45c-0.3-0.1-0.5,0.1-0.6,0.4c-0.1,0.3,0.1,0.5,0.4,0.6l1.7,0.5 c0.2,0.1,0.4,0.2,0.6,0.2c0,0,0,0,0,0c0.5,0.1,1.1,0.3,1.4,0.4l0,0c0.1,0,0.1,0.1,0.1,0.1c0,0,0.1,0.1,0.1,0.1c0,0,0,0.1,0,0.2 c0,0-0.1,0.1-0.1,0.1c0,0,0,0,0,0c-0.1,0-0.1,0.1-0.2,0.1c0,0,0,0,0,0c-0.1,0-0.2,0.1-0.3,0.1c0,0,0,0,0,0c-0.1,0-0.2,0.1-0.4,0.1 c-0.4,0.1-0.8,0.1-1.1,0c0,0,0,0,0,0l-2.7-1.1c-0.3-0.1-0.5,0-0.7,0.3c-0.1,0.3,0,0.5,0.3,0.7l2.9,1.2c0,0,0,0,0,0 c0.1,0,0.1,0.1,0.2,0.1c0.3,0.1,0.5,0.3,0.7,0.4c0,0,0,0,0.1,0.1c0.1,0.1,0.1,0.1,0.2,0.2c0.1,0.1,0.1,0.1,0.1,0.2 c0,0,0,0.1-0.1,0.2c0,0-0.1,0.1-0.2,0.1c0,0-0.1,0-0.1,0c-0.1,0-0.2,0-0.3,0c0,0-0.1,0-0.1,0c-0.1,0-0.3-0.1-0.4-0.1 c0,0-0.1,0-0.1,0c-0.2-0.1-0.4-0.1-0.6-0.2l0,0c-0.6-0.2-1.2-0.6-1.9-0.9c-0.2-0.1-0.5-0.1-0.6,0.1c-0.2,0.2-0.2,0.4-0.1,0.6 c0,0.1,0.1,0.1,0.3,0.3c0.5,0.5,0.8,0.8,1,1.1c0.4,0.5,0.5,0.7,0.5,0.9c0,0,0,0,0,0c0,0,0,0.1,0,0.1c-0.1,0.3-0.2,0.4-0.2,0.4 c0,0-0.1,0-0.6-0.3c-0.2-0.1-0.3-0.2-0.5-0.3l0,0c-0.6-0.5-1.3-1.1-2-1.9L86,49.4c-0.8-0.8-2.1-1.4-2.7-1.3 c-0.2,0.1-0.4,0.3-0.4,0.5c0,0,0.2,1.4,0.1,2.2c0,0.6-0.4,1.4-0.6,1.5c0,0-0.1,0-0.2-0.1c-0.1-0.1-0.2-0.5-0.3-0.9 c-0.2-0.6-0.4-1.4-0.8-2.4c-0.1-0.2-0.4-0.7-0.9-1.3c-0.2-0.3-0.4-0.7-0.5-1c0,0,0,0,0,0c0-0.1,0-0.1,0-0.2 c-0.1-0.3-0.1-0.6-0.1-0.9c-0.1,0-0.2-0.1-0.2-0.1l0,0l-0.2-0.1l-0.5-0.2L72,41.4l-1-0.5l-0.6-0.3l-0.1-0.1l-0.1,0l-0.2,0l-0.1,0 h-0.1l0,0l-1.5,0l-4.9-0.1v-5.4l5.3,0.1l1.6,0c0.3,0,0.6,0,0.9,0.1c0.4,0.1,0.7,0.2,1.1,0.3c0.2,0.1,0.3,0.2,0.4,0.2l0.1,0 L73.4,36.2z M42.2,34.9c-0.8-1.3-2.2-1.5-3.2-1.5c-0.6,0-1.2,0.1-1.8,0.1c-0.3,0-0.7,0.1-1,0.1c-0.2,0-0.5,0-0.7,0 c-2.4,0-3.3-0.9-3.8-2c0.5-0.2,1-0.4,1.4-0.8c0.7-0.7,0.1-1.3-0.8-0.8c-0.3,0.2-0.7,0.3-1,0.3c0,0,0,0,0,0 c-0.2-0.7-0.4-1.4-0.9-1.8c-0.2-0.2-0.4-0.2-0.8-0.4c-0.7-0.2-1.2-0.4-1.3-0.6c0.1-0.4,0.5-1,0.9-1.5c0.7-0.9,1.5-2,1.1-3.1 c-0.1-0.3-0.3-0.8-0.6-1.5l0-0.1c-0.3-0.7-0.5-1.6-0.6-2.5c2.5,0.3,7.7,0.8,9.3,2.2c2.1,1.9,0.8,5.9,3.7,6l1.2-5.4 c0,0,3.4,0.5,2.7,4c-0.4,2.1,0.7,4.3,1.8,5c0,0.3,0,0.6-0.1,0.9c-0.2,0.1-0.4,0.1-0.6,0.2l-2.9,1.9c-0.6,0.5-1.1,1.1-1.3,1.8 L42.2,34.9z M22.3,60.8c0,0,0-0.2,0.2-0.4c0.2-0.1,0.3-0.3,0.2-0.5c0-0.2-0.2-0.4-0.4-0.4c0,0-1.2-0.2-1.9-0.4 c-0.1,0-0.2-0.1-0.3-0.2c1.1,0.3,2.2,0.5,3.1,0.6c0.6,0.1,1.7,0.2,2.6,0.3c0.1,0,0.2,0.1,0.2,0.2l0,0c0.1,0,0.2,0.1,0.2,0.2 c0,0.1,0,0.2-0.1,0.2c-0.2,0.1-0.4,0.3-0.6,0.4C24.2,61,23,61.1,22.3,60.8z M44,56.9c0,0,0,0.1-0.1,0.2c-0.3,0.9-1,1.6-1.9,1.8 c0,0,0,0-0.1,0c0,0-0.1,0-0.1,0l-10.8,2.2c0,0,0-0.2,0-0.2c-0.1,0.1-0.1,0.2-0.2,0.2c-0.2,0.3-0.5,0.5-0.8,0.7 c-0.4,0.3-1,0.5-1.5,0.8c-1.5,0.6-3.2,0.9-3.8,0.6c-0.4-0.3-0.5-0.5-0.5-0.6c0,0,0.1-0.2,0.7-0.4c0.4-0.1,0.8-0.3,1.1-0.5 c0.3-0.2,0.6-0.4,0.8-0.6c0.2-0.1,0.3-0.3,0.4-0.5c0-0.1,0-0.1,0.1-0.2c0-0.2,0-0.4,0-0.5c-0.1-0.2-0.2-0.4-0.3-0.5 c-0.2-0.2-0.4-0.3-0.7-0.4l-1-0.1c-0.6-0.1-1.1-0.1-1.4-0.2c-0.9-0.1-1.7-0.3-2.5-0.5c-0.6-0.2-1.2-0.3-1.7-0.5 c-0.7-0.3-1.1-0.5-1.3-0.8c-0.1-0.1-0.1-0.2,0-0.4c0.1-0.1,0.2-0.2,0.4-0.3c0.5,0.1,3.3,0.7,5.7,0.8c0.4,0,0.7,0,1,0 c0.3,0,0.7,0,0.9,0c0.2,0,0.4,0,0.6,0c0,0,0,0,0,0c0.7,0,1.3-0.1,1.8-0.1c0.3,0,0.6-0.1,1-0.1c0.2,0,0.3,0,0.4,0c0,0,0,0.1,0,0.1 l9.1-3c0.3-0.1,0.5-0.3,0.6-0.6l0.2-0.6l0.8-2.6l5,1.6L44,56.9z M44.4,75.5l3.5-4.2l7.7,6.7l-4.4,4.7c-0.2,0.2-0.3,0.6-0.2,0.9 l5.4,26.3c0,0.6-0.3,1.2-0.7,1.6c-0.4,0.5-1,0.7-1.7,0.7l-12.1,0.1c-0.9,0-1.6-0.7-1.6-1.5c0-2.8,2.3-3.8,4.4-3.8h2.8 c0.3,0,0.6-0.1,0.8-0.4c0.2-0.2,0.2-0.6,0.2-0.9l-5.8-21.5C41.6,81,41.3,79.1,44.4,75.5z M41.5,113.2 C41.4,113.2,41.4,113.2,41.5,113.2C41.4,113.2,41.4,113.2,41.5,113.2z M47.4,105.9l-0.4-1.7L47.4,105.9L47.4,105.9z M32.7,101.3 c3.6-2.8,7.5-5.1,11.5-7.1l2.1,7.7l-21.7,8.5C25.6,107.1,29.2,104,32.7,101.3z M41.6,119.5c-3.6,0-6.5-0.2-8.9-0.7l13-5.5l-3.8,0 l12.1-0.1c1.9,0,3.4-1.5,3.3-3.4l-0.3-1.3l42.2-17.9c0.1,1.1-0.1,2.4-0.8,3.9c-2,4.7-7,8.4-10.8,10.6c-5.1,3-11.9,6.7-19.7,9.2 C59.2,117,50.7,119.5,41.6,119.5z M109.3,94.3c-1.3,1.4-3.6,1.3-5.3,2c-1,0.4-3.3,1.5-3,2.8c0.2,0.7,0.9,0.7,1.5,1 c1.1,0.5,1.6,1.2,2,2.3c0.8,2.3-2.1,3.7-4.1,3.5c-1.2-0.1-2.3-0.8-3.6-0.8c-0.9,0-1.9,0-2.8,0.3c-1.8,0.5-0.6,2-0.3,3.3 c0.2,0.8,0.3,1.2-0.3,1.9c-0.6,0.7-1.3,1.1-2.2,1.3c-1.9,0.5-3.5,0-5.5-0.3c-1-0.2-1.9-0.2-2.9-0.1c2.2-1.1,4.2-2.3,6-3.3 c4-2.3,9.1-6.1,11.3-11.1c1.5-3.5,0.8-5.9,0-7.4c-0.2-1-0.5-1.8-0.9-2.4c-0.1-0.2-0.3-0.4-0.5-0.6c0,0-0.1-0.1-0.1-0.1 c-0.1-0.2-0.3-0.3-0.4-0.5c0,0-0.1-0.1-0.1-0.1c-0.2-0.2-0.3-0.3-0.5-0.4c0,0-0.1,0-0.1-0.1c-0.5-0.3-1-0.6-1.5-0.9 c0,0-0.1,0-0.1-0.1c-0.2-0.1-0.5-0.2-0.7-0.3c-0.1,0-0.1,0-0.2-0.1c-0.3-0.1-0.6-0.2-0.9-0.3c0,0-0.1,0-0.1,0 c-2-0.6-4.5-0.9-7.5-0.9c-4.7,0-9.9,0.7-13.7,1.3l-1-0.9c0.6-0.5,1.1-1.1,1.6-1.7c0.9-1,1.7-2,2.5-3.1c0.9-1.1,3.4-3.2,4.7-1.4 c0.5,0.8,0.1,2.4,1.2,2.7c1.7,0.5,2.9-1.8,3.8-2.7c1-1,2.8-1.1,3.6,0.1c0.4,0.6,0.3,1.6,1.1,1.9c1.3,0.5,2.6-1.1,3.4-1.8 c1.2-1.2,3.6-3.5,5.4-2.2c1.1,0.7,0.2,2.4,0,3.3c-0.4,1.9,1.7,1.6,2.9,1.1c1.5-0.6,3.1-0.8,4.4,0.4c1.1,1,1.1,2.5,0.4,3.8 c-0.8,1.6-2.2,2.7-3.1,4.2c-0.4,0.7-0.5,1.5-0.7,2.3c1.6-0.9,3.3-1.3,5-0.9c1.1,0.3,1.6,0.9,2,2C110.5,92.7,110.1,93.5,109.3,94.3z "/>
    <path d="M32.2,22.9c-0.6,0.1-1.1,0.9-1,1.9c0.1,1,0.7,1.7,1.3,1.7s1.1-0.9,1-1.9S32.8,22.9,32.2,22.9z"/>
  </g>
</svg>