<svg width="128" height="128" xmlns="http://www.w3.org/2000/svg">
  <path d="M114.6,13.1C100.3-1.2,73.7,2.3,55.1,20.9c-0.4,0.4-0.8,0.8-1.2,1.2c-4.2-6-11.1-9.9-18.9-9.9c-12.7,0-23,10.3-23,23 s10.3,23,23,23c1.1,0,2.2-0.1,3.3-0.2l-1.5,9.9C36,73.8,34.5,80.2,31,85.1l-0.9,1.2L30,86.2c-0.8-0.8-2.1-0.8-2.8,0L27,86.5 c-0.7,0.7-0.8,1.9-0.1,2.7L8.1,108c-0.8-0.7-2-0.6-2.7,0.1l-0.3,0.3c-0.8,0.8-0.8,2,0,2.8l11.1,11.1c0.8,0.8,2,0.8,2.8,0l0.3-0.3 c0.7-0.7,0.8-1.6,0.3-2.4l18.9-18.9c0.8,0.4,1.7,0.3,2.4-0.3l0.3-0.3c0.8-0.8,0.8-2,0-2.8l0.6-0.4c5.3-3.9,12.2-5.6,18.8-6.4 l10.6-1.3c12-0.3,25.1-6,35.7-16.5C125.4,54.1,128.9,27.4,114.6,13.1z M115.7,35.8l-4.5-4.5l3.4-3.4 C115.3,30.3,115.7,32.9,115.7,35.8z M54.4,63.1l7.3-7.3l4.7,4.7l-7.3,7.3L54.4,63.1z M57.6,69.4l-5.2,5.2c-1.5-1.6-2.8-3.5-3.8-5.5 l4.3-4.4L57.6,69.4z M72.1,45.3l7.3-7.3l4.7,4.7L76.8,50L72.1,45.3z M75.3,51.6L68,58.9l-4.7-4.7l7.3-7.3L75.3,51.6z M85.7,44.3 l4.7,4.7l-7.3,7.3l-4.7-4.7L85.7,44.3z M87.3,42.7l7.3-7.3l4.7,4.7L92,47.4L87.3,42.7z M96.1,33.8l7.3-7.3l4.7,4.7l-7.3,7.3 L96.1,33.8z M94.6,32.3l-4.7-4.7l7.3-7.3l4.7,4.7L94.6,32.3z M93,33.9l-7.3,7.3L81,36.5l7.3-7.3L93,33.9z M79.5,35l-4.6-4.6l7.3-7.3 l4.6,4.6L79.5,35z M77.9,36.5l-7.3,7.3L66,39.2l7.3-7.3L77.9,36.5z M64.4,37.6L59.8,33l7.3-7.3l4.6,4.6L64.4,37.6z M69.1,45.4 l-7.3,7.3L57.1,48l7.3-7.3L69.1,45.4z M68,62l4.7,4.7L65.3,74l-4.7-4.7L68,62z M69.5,60.5l7.3-7.3l4.7,4.7l-7.3,7.3L69.5,60.5z M83.1,59.4l4.6,4.6l-7.3,7.3l-4.6-4.6L83.1,59.4z M84.6,57.8l7.3-7.3l4.6,4.6l-7.3,7.3L84.6,57.8z M98.1,56.7l4.7,4.7l-7.3,7.3 L90.8,64L98.1,56.7z M98.1,53.6L93.5,49l7.3-7.3l4.6,4.6L98.1,53.6z M102.4,40.1l7.3-7.3l4.6,4.6l-7.3,7.3L102.4,40.1z M113.8,25.5 l-4.2,4.2L105,25l5.3-5.3C111.8,21.4,112.9,23.4,113.8,25.5z M108.6,18.2l-5.2,5.3l-4.7-4.7l4.4-4.4C105.2,15.4,107,16.6,108.6,18.2 z M93.2,12.1c2.8,0.1,5.4,0.6,7.9,1.4l-3.9,3.8l-4.6-4.6L93.2,12.1z M95.6,18.8l-7.3,7.3l-4.6-4.6l7.3-7.3L95.6,18.8z M78,14.7 c3.1-1.2,6.2-2,9.4-2.4c0.5-0.1,1.1-0.1,1.6-0.2l0.5,0.5l-7.3,7.3l-4.7-4.7L78,14.7z M80.6,21.5l-7.3,7.3l-4.7-4.7l7.3-7.3 L80.6,21.5z M72.2,17.5l-5.1,5.1L66,21.5C68,20,70,18.6,72.2,17.5z M60.5,26.3c1.2-1.2,2.5-2.4,3.8-3.4l1.2,1.2l-7.3,7.3l-0.6-0.6 c-0.1-0.3-0.1-0.7-0.2-1C58.3,28.6,59.4,27.4,60.5,26.3z M58,35.1c0-0.1,0-0.3,0-0.4l0.2-0.2l4.7,4.7l-7.3,7.3l-0.4-0.4 C57,42.8,58,39.1,58,35.1z M55.6,49.6l4.6,4.6l-7.3,7.3l-4.6-4.6L55.6,49.6z M47.8,54.4l-1.1,1l-0.2-0.2 C46.9,54.9,47.4,54.7,47.8,54.4z M46.7,58.5l4.6,4.6l-3.7,3.7c-0.8-2.4-1.3-5.1-1.4-7.9L46.7,58.5z M41.1,86.6 c-2.8-2.8-1-10.1,0.4-14.5c1.4,3.1,3.3,5.9,5.8,8.3c2.4,2.4,5.1,4.2,8,5.6C51,87.5,43.9,89.4,41.1,86.6z M59.7,79.7 c-2.1-1-4.1-2.2-5.8-3.6l5.2-5.2l4.7,4.7L59.7,79.7z M61.9,80.4l3.4-3.3l4.4,4.4C66.9,81.5,64.3,81.1,61.9,80.4z M66.9,75.5l7.3-7.3 l4.6,4.6l-7.3,7.3L66.9,75.5z M74.4,81.2c-0.3,0.1-0.6,0.1-0.9,0.1l6.9-6.9l4.1,4.1C81.2,79.8,77.8,80.7,74.4,81.2z M82,72.9 l7.3-7.3l4.7,4.7l-7.3,7.3L82,72.9z M93.5,73.8l2-2l0.3,0.3C95,72.7,94.3,73.2,93.5,73.8z M101.4,67.2c-1.2,1.3-2.5,2.4-3.9,3.5 L97,70.2l7.3-7.3l0.5,0.5C103.7,64.7,102.6,66,101.4,67.2z M106.3,61.7l-0.3-0.3l2-2.1C107.4,60.1,106.9,60.9,106.3,61.7z M104.4,59.9l-4.7-4.7l7.3-7.3l4.7,4.7L104.4,59.9z M115.4,40.3c-0.4,3.4-1.3,6.8-2.7,10.2l-4.2-4.2l7-7 C115.5,39.6,115.4,40,115.4,40.3z"/>
</svg>