<svg width="128" height="128" xmlns="http://www.w3.org/2000/svg">
  <path d="M110.8,105.8c-0.1,0-0.3,0-0.4,0l-1-5.6c1-1.4,1.5-3.1,1.5-4.9c0-2.2-0.9-4.3-2.3-5.8c3-1.4,5-4.4,5-7.8 c0-4.8-3.8-8.6-8.6-8.6c0.6-1.4,0.9-2.9,0.9-4.5c0-3.9-1.9-7.4-4.8-9.6l2.3-4.3c0.4,0,0.7,0.1,1.1,0.1c5.2,0,9.4-4.2,9.4-9.4 c0-2.2-0.8-4.3-2.1-5.9c3.1-0.2,5.6-2.7,5.6-5.9c0-3.3-2.7-5.9-5.9-5.9s-5.9,2.7-5.9,5.9c0,0.9,0.2,1.8,0.6,2.6 c-0.5-0.1-1.1-0.2-1.7-0.2c-5.2,0-9.4,4.2-9.4,9.4c0,2.4,0.9,4.7,2.5,6.3l-1.5,5c-0.7-0.1-1.5-0.2-2.3-0.2c-3.3,0-6.2,1.3-8.4,3.4 c-3.8-0.2-7.1-1.5-9.2-2.5c-1-5.6-6-9.8-11.9-10c-1.5-1.7-3.3-3-5.2-4c0-3.7-1.4-7-3.7-9.3c0.3,0.1,0.7,0.1,1.1,0.1 c3.4,0,6.1-2.8,6.1-6.4c0-1.8-0.7-3.4-1.8-4.6c0.7-1,1-2.3,1-3.6c0-0.1,0-0.2,0-0.2c1.5-1.2,2.5-3,2.5-5c0-3.5-3-6.4-6.7-6.4 c-0.7,0-1.3,0.1-1.9,0.3c-1.1-3.1-4-5.2-7.3-5.2c-1.7,0-3.3,0.6-4.6,1.6c-0.6-0.3-1.3-0.5-2-0.5C39.1,4.2,37,6.3,37,9 c0,0.5,0.1,0.9,0.2,1.4c-0.3,0.1-0.6,0.2-0.8,0.4c-2,1.1-4.5,2.3-7.2,2.3c-3.3,0-6.7-3.7-9.5-6.4c0.2-1-0.3-2.1-1.3-2.9 c-1.3-1-3-1.1-3.8-0.1c-0.5,0.7-0.5,1.6-0.1,2.5c-2,1.9-5.4,5.6-3.6,10.2c1.1,2.8,2.6,5.1,10.9,9.3c7.9,4.1,6.6,9.2,3.7,13.5 C17.2,39.8,11,46.2,11,54c0,3.4,1.3,6.7,3.7,9.3c0,0.2,0,0.4,0.1,0.6c-5,2.4-8.3,7.4-8.3,12.9c0,8,6.7,14.4,14.9,14.4 c0.9,0,1.9-0.1,2.8-0.3c1,4.5,4.7,8,9.2,9l-1.2,4.5c-2.3,0.2-4.7,1.2-5.9,3c-1.4,2-1.3,4.8,0.1,6.8c0.7,0.9,1.6,1.6,2.7,2l-0.5,2 c-2.5-0.3-5.5,0.5-6.6,0.8c-2.2,0.6-4.4,2.4-5.3,4.3c-0.1,0.3-0.1,0.6,0,0.9c0.1,0.3,0.4,0.5,0.8,0.5c1.5,0.1,3.4,0.2,5.3,0.2 c1.1,0,2.2,0,3.3,0c0.9,0,1.9,0,2.8,0c4.3,0,8.6-0.2,8.8-0.2c0.4,0,0.8-0.3,0.9-0.7c0.3-1.1,1-3.9-0.3-4.9c-0.4-0.3-0.8-0.5-1.4-0.7 l0.5-1.4c1.7-0.5,3.1-1.7,4.3-3.1c1-1.3,1.8-2.8,2-4.4c0.3-2.2-0.5-3.8-1.9-4.8l2.7-7.7v-0.1c1.2-1.1,2.2-2.5,2.9-4.1 c0.9,0.2,1.7,0.3,2.6,0.3c4.8,0,8.9-3.1,10.2-7.5c4.1,0,7.7-2,9.9-5c2.7,1.1,5.7,1.6,8.2,1.8c0.9,5.9,5.9,10.4,12,10.4 c1.2,0,2.4-0.2,3.5-0.5c-0.3,0.9-0.5,1.9-0.5,3c0,4.1,2.8,7.5,6.6,8.4l1.2,4.5c-0.7,0.5-1.3,1-1.7,1.7c-1.4,2-1.3,4.9,0.1,6.9 c0.7,1,1.7,1.7,2.7,2.1c-2.1,0-4.3,0.5-5.2,0.7c-2.1,0.5-4.3,2.1-5.1,3.8c-0.2,0.3-0.1,0.6,0,0.9c0.2,0.3,0.5,0.5,0.8,0.5 c1.5,0.1,3.4,0.2,5.2,0.2c1.2,0,2.3,0,3.4,0c0.9,0,1.8,0,2.8,0c3.9,0,7.8-0.2,8.1-0.2c0.4,0,0.8-0.3,0.9-0.7 c0.4-1.4,0.8-3.9-0.3-4.8c-0.2-0.1-0.3-0.3-0.5-0.4c0-0.1,0-0.1,0-0.2l-0.1-0.6c0.9-0.6,1.8-1.3,2.5-2.2c1-1.2,1.7-2.7,1.9-4.2 C117.3,107.6,114.2,105.8,110.8,105.8z M39,35.5c0.5-0.5,0.6-1.3,0.4-2c-0.2-0.7-0.3-1.4-0.3-2.2c0-1.4,0.4-2.7,1.1-3.9 c0.5-0.8,0.4-1.8-0.2-2.5c-1-1.1-1.5-2.5-1.5-4c0-2.3,1.3-4.3,3.2-5.2c1-0.4,1.4-1.6,1.1-2.6c0-0.1-0.1-0.3-0.1-0.4 c-0.2-0.8-0.8-1.3-1.6-1.5c-1.3-0.3-2.2-1.4-2.2-2.7c-0.2-1.1,1-2.4,2.5-2.4c0.4,0,0.8,0.1,1.1,0.3c0.3,0.1,0.6,0.2,0.9,0.2 c0.4,0,0.9-0.1,1.2-0.4C45.6,5.4,46.8,5,48,5c2.4,0,4.5,1.5,5.5,3.9c0.3,0.8,1.1,1.3,1.9,1.3c0.2,0,0.4,0,0.6-0.1 c0.5-0.1,0.9-0.2,1.4-0.2c2.6,0,4.7,1.9,4.7,4.3c0,1.3-0.6,2.5-1.7,3.3c-0.5,0.4-0.8,1-0.8,1.7v0.2c0,0.9-0.2,1.7-0.7,2.5 c-0.5,0.8-0.4,1.9,0.2,2.5c0.8,0.8,1.2,1.9,1.2,3.1c0,2.4-1.8,4.3-4,4.3c-0.2,0-0.5,0-0.6-0.1c-0.1,0-0.3,0-0.4,0 c-0.7,0-1.4,0.4-1.8,1c-0.4,0.8-0.3,1.8,0.3,2.4c2,2.1,3.2,4.9,3.2,7.9c0,6.1-4.7,11-10.4,11c-5.7,0-10.4-4.9-10.4-11 C36.2,40.2,37.2,37.6,39,35.5z M30.1,18c0-0.3,0.1-0.6,0.2-0.9c0.1-0.3,0.2-0.5,0.4-0.7c0.3-0.4,0.6-0.7,0.8-0.8 c0.2-0.1,0.4-0.2,0.4-0.2s-0.1,0.1-0.2,0.4c-0.1,0.2-0.2,0.6-0.2,0.9c-0.1,0.4-0.1,0.8,0,1.3c0,0.4,0.1,0.9,0.3,1.2l0.1,0.1l0.1,0.2 c0.1,0.1,0.1,0.1,0.2,0.2c0.2,0.1,0.3,0.3,0.5,0.4c0.4,0.2,0.7,0.3,1.1,0.4c0.4,0.1,0.7,0.1,1,0.1s0.4,0,0.4,0s-0.1,0.1-0.3,0.3 c-0.2,0.2-0.5,0.4-1,0.5c-0.5,0.1-1.1,0.1-1.7-0.1c-0.3-0.1-0.6-0.3-0.9-0.5c-0.1-0.1-0.3-0.2-0.4-0.4l-0.1-0.2 c-0.1-0.1-0.1-0.2-0.2-0.2C30.1,19.3,30,18.6,30.1,18z M41.8,109.4c-0.1,1.1-0.7,2.3-1.6,3.4c-1,1.3-2.3,2.2-3.5,2.5 c-0.4,0.1-0.7,0.1-1.1,0.1c-1.6,0-3.1-0.8-4-2c-1.1-1.6-1.1-3.9-0.1-5.5c1-1.5,3.4-2.5,5.8-2.5c1.7,0,3,0.5,3.8,1.3 C41.7,107.4,41.9,108.3,41.8,109.4z M69.8,67.8c-0.4,0.3-0.6,0.8-0.3,1.3c0.8,1.5,1.2,3,1.2,4.7c0,5.4-4.7,9.9-10.4,9.9 c-0.1,0-0.3,0-0.4,0h-0.2c-0.5,0-0.9,0.3-1,0.8c-0.8,3.9-4.4,6.7-8.5,6.7c-1,0-2-0.2-2.9-0.5c-0.3-0.1-0.5-0.1-0.8,0 c-0.2,0.1-0.4,0.3-0.5,0.6c-1.3,4.1-5.3,6.9-9.8,6.9c-5.2,0-9.5-3.7-10.1-8.7c0-0.3-0.2-0.5-0.4-0.7c-0.2-0.1-0.4-0.2-0.6-0.2 c-0.1,0-0.2,0-0.3,0c-1.1,0.3-2.2,0.4-3.3,0.4c-7.1,0-12.9-5.6-12.9-12.4c0-5.1,3.3-9.8,8.3-11.6c3,2.2,6.8,3.3,10.4,2.9 c0.5-0.1,0.9-0.6,0.9-1.1c-0.1-0.5-0.6-1-1.1-0.9C26,66,24.8,66,23.6,65.8l-3.1-1c-1.2-0.5-2.3-1.3-3.3-2.2C14.5,60.5,13,57.4,13,54 c0-7.2,6.1-13,13.6-13c2.7,0,5.3,0.8,7.5,2.2v0.1c0,7.2,5.6,13.1,12.4,13.1c6.2,0,11.3-4.7,12.2-10.9c1.6,0.9,3,2,4.2,3.5 c0.2,0.2,0.5,0.4,0.8,0.4c0.1,0,0.1,0,0.1,0c5.8,0,10.5,4.5,10.5,10.1C74.3,62.8,72.6,65.9,69.8,67.8z M111.4,29.5 c2.2,0,3.9,1.8,3.9,3.9c0,2.1-1.8,3.9-3.9,3.9c-2.1,0-3.9-1.8-3.9-3.9C107.5,31.3,109.3,29.5,111.4,29.5z M97,45.2 c0-4.1,3.3-7.4,7.4-7.4c4.1,0,7.4,3.3,7.4,7.4c0,4.1-3.3,7.4-7.4,7.4C100.3,52.6,97,49.3,97,45.2z M102.3,102c-3.8,0-6.8-3-6.8-6.7 c0-0.8,0.1-1.6,0.4-2.3c0.3-0.7,0.1-1.5-0.4-2.1c-0.4-0.4-0.9-0.6-1.5-0.6c-0.2,0-0.4,0-0.6,0.1c-1,0.3-2,0.5-3,0.5 c-5.6,0-10.2-4.6-10.2-10.2c0-2.7,1.1-5.3,3.1-7.2c0.5-0.5,0.7-1.3,0.5-2c-0.3-1-0.4-1.9-0.4-2.9c0-5.6,4.6-10.2,10.2-10.2 c5.6,0,10.2,4.6,10.2,10.2c0,1.3-0.2,2.6-0.7,3.8c-0.2,0.6-0.2,1.3,0.2,1.9c0.4,0.6,1,0.9,1.7,0.9c3.6,0,6.6,3,6.6,6.6 c0,2.6-1.5,4.9-3.9,6c-0.6,0.3-1,0.8-1.1,1.4c-0.1,0.6,0.1,1.3,0.5,1.7c1.1,1.2,1.8,2.8,1.8,4.5C108.9,99.1,105.9,102,102.3,102z M114.9,111.5c-0.2,1.3-0.9,2.5-1.5,3.2c-1,1.2-2.1,2-3.3,2.3c-0.3,0.1-0.7,0.1-1,0.1c-1.5,0-2.9-0.7-3.7-1.9 c-1-1.4-1.1-3.6-0.1-5.1c0.9-1.4,3.2-2.4,5.4-2.4c1.5,0,2.8,0.5,3.5,1.2C114.8,109.6,115,110.4,114.9,111.5z"/>
</svg>