<svg viewBox="0 0 128 128" xmlns="http://www.w3.org/2000/svg">
  <g>
    <path d="M113.7,71.7c-0.2-7.5,0.1-12.7-3.7-17.9c-3.8-5.2-15.7-12.1-23.6-18.2C78.5,29.4,34.6,14.4,25,10.8 c-1.8-0.7-8.1-3.7-12-5.6c-0.6-0.3-1.2-0.4-1.9-0.4c-1.3,0-2.6,0.6-3.4,1.7L5.2,9.8c-0.9,1.1-1.1,2.6-0.7,4 C7,21.6,15.6,48.5,18.5,57C23,70.5,31.6,88.9,35.8,94.5c4.2,5.6,21.7,21.1,23.1,21.9c5.8,3.3,11.9,2.5,13.3,3.1 c1.8,0.7,7.4,4.4,13.8,4.4c3.6,0,7.5-1.2,11.1-4.7c0,0,11.3-0.9,16-7.7c2.2-3.2,1.2-8.6,2.8-10.8c1.6-2.3,6.6-2.8,7.8-11.4 C124.2,85.6,113.8,74.4,113.7,71.7z M82.7,71.2c-1.8,1.9-4.2,3-7,3c-5.3,0-9.7-4.3-9.7-9.7c0-2.4,0.9-4.5,2.3-6.2 c1.8-2.1,4.4-3.4,7.4-3.4c5.3,0,9.6,4.3,9.6,9.6C85.3,67.2,84.3,69.5,82.7,71.2z M106.6,112.2c-1.9,0.4-4,0.5-5.9,1.2 c-0.1,0-0.1,0-0.2,0c-0.2,0.1-0.5,0.2-0.7,0.4c-0.4,0.2-0.8,0.5-1.2,0.8c-0.6,0.5-1.3,1-2,1.6l-0.7,0.1l-0.8,0.8 c-2,1.9-4.1,3.1-6.5,3.6c-3.8-0.2-7.7-3.5-10.3-4.9c-0.1-0.1-0.3-0.1-0.4-0.2c0,0,0,0,0,0c-0.1-0.1-0.3-0.1-0.4-0.2 c-0.1,0-0.1-0.1-0.2-0.1c-0.2-0.1-0.4-0.1-0.6-0.2c-0.2,0-0.4,0-0.7,0c-2.1,0-5,0.7-7.6,1c-0.6-0.1-1.3-0.2-2-0.3 c-0.5-0.1-1-0.2-1.6-0.3c-0.6-0.3-1.2-0.6-1.8-0.9c-0.1-0.1-0.2-0.1-0.3-0.2c-6.2-4.5-15.9-16.5-18.8-20.5 c-2.3-3.2-19.4-47.9-20.7-53.5c-0.6-2.8-0.4-4.8,0.2-6.4c-0.2,1.7,0.4,3.6,1,5.3c3.4,9.2,7,18.5,12.9,26.4c2.4,3.2,5.2,6.1,7.7,9.2 c2.6,3.2,3.9,7,6.1,10.3c2,3,6.1,4.6,9.8,6c0.9,0.4,1.8,0.7,2.7,1.1c0.1,0,0.2,0.1,0.3,0.1c2.7,1.2,5.5,2.3,8.4,3.1 c3.2,0.9,6.4,1.4,9.7,1.3c0,0,0,0,0,0c0,0,0,0,0,0c0.2,0,0.3,0,0.5,0c0.2,0,0.5,0,0.7,0c0.2,0,0.3,0,0.5,0c0.3,0,0.6,0,0.8,0 c0.2,0,0.3,0,0.5,0c0.3,0,0.6,0,0.9-0.1c0.1,0,0.2,0,0.3,0c0.4,0,0.8-0.1,1.2-0.1c0,0,0,0,0.1,0c0,0,0.1,0,0.1,0 c0.4-0.1,0.8-0.1,1.2-0.2c0.1,0,0.2,0,0.3-0.1c0.4-0.1,0.9-0.2,1.3-0.3c0.1,0,0.1,0,0.2-0.1c0.4-0.1,0.8-0.3,1.2-0.4 c0.1,0,0.1,0,0.2-0.1c0.4-0.2,0.8-0.4,1.2-0.6c0,0,0.1,0,0.1,0c0.1,0,0.2-0.1,0.2-0.1c0.2-0.1,0.4-0.2,0.6-0.4 c0.2-0.1,0.3-0.2,0.5-0.3c0.1-0.1,0.3-0.2,0.4-0.3c0.2-0.2,0.4-0.3,0.6-0.5c0.1-0.1,0.1-0.1,0.2-0.2c0.5-0.5,1-1,1.5-1.6 c0.3-0.3,0.5-0.6,0.7-1c0-0.1,0.1-0.1,0.1-0.2c0.3-0.4,0.5-0.7,0.7-1.1c0.1-0.2,0.2-0.3,0.3-0.5c0.2-0.4,0.4-0.8,0.6-1.2 c0.1-0.2,0.2-0.4,0.3-0.6c0.2-0.4,0.3-0.8,0.5-1.2c0.1-0.2,0.2-0.4,0.2-0.7c0.1-0.4,0.2-0.8,0.3-1.1c0-0.1,0.1-0.3,0.1-0.4 c0-0.1,0.1-0.3,0.1-0.4c0.1-0.3,0.1-0.5,0.2-0.8c0.1-0.4,0.1-0.8,0.2-1.3c0-0.1,0-0.3,0.1-0.4c0.1-1.3,0.2-2.5,0.1-3.8 c-0.1-1.6-0.3-3.1-0.6-4.7c-0.3-1.6-0.7-3.2-1.2-4.7c-0.2-0.5-0.3-1-0.5-1.4c0-0.1-0.1-0.2-0.1-0.3c-0.1-0.4-0.3-0.7-0.5-1.1 c-2.6-6-7.1-11.7-13.8-15c-0.2-0.1-0.4-0.2-0.6-0.3c0,0,0,0,0,0c0,0,0,0,0,0c-0.6-0.3-1.1-0.6-1.7-0.8c-9.8-4.1-20.9-4.8-29.8-11.1 c-3.6-2.5-6.5-5.9-9.9-8.5c-0.4-0.3-0.9-0.7-1.4-1c-2.1-1.4-4.9-2.9-7.4-3c-0.1,0-0.2,0-0.2,0c0,0-0.1,0-0.1,0c0,0,0,0,0,0 c0,0,0,0,0,0c-0.5,0-0.9,0.1-1.3,0.2c-1.1,0.3-2.1,1.1-3,2c0.9-0.9,1.8-1.7,2.6-2.6c1-1,2.1-2.1,3.4-2.7c1.5-0.8,2.7-0.7,4-0.3 c0.5,0.2,1,0.4,1.6,0.6c2.5,1,5.1,1.8,7.6,2.7c7.1,2.5,14.3,5.1,21.3,7.8c4.2,1.6,8.6,3.1,12.5,5.2c2.5,1.4,14.3,13.2,14.3,13.2 s9.3,5,11.4,8c0.4,0.5,0.7,1.2,0.9,1.9c0.1,0.2,0.1,0.4,0.2,0.5l0.8,9.7c0,0.6-0.1,1.2-0.1,1.6c0,0.3,0.1,0.7,0.4,1.2 c1.9,3.6,10.2,11.9,9.8,15.1c0,0,0,0,0,0c-0.3,1.9-1.8,3.3-3.5,4.7c-0.3,0.3-0.7,0.5-1,0.8c0,0-0.1,0.1-0.1,0.1 c-1.1,1-2.2,2-2.8,3.2c0,0,0,0,0,0c-0.7,1.5-0.6,3.3-0.5,5.1c-0.1,0.7-0.2,1.4-0.3,2.1c-0.2,1.9-0.4,3.8-1.2,4.9 c-0.3,0.4-0.6,0.8-0.9,1.1C108.8,111.5,107.7,111.9,106.6,112.2z"/>
    <path d="M71.2,61.5c0-1.3,0.3-2.5,0.9-3.6c-2.4,1.3-4.1,3.8-4.1,6.8c0,4.2,3.4,7.7,7.7,7.7c3,0,5.5-1.7,6.8-4.1 c-1.1,0.6-2.3,0.9-3.6,0.9C74.7,69.1,71.2,65.7,71.2,61.5z"/>
  </g>
</svg>