<svg width="128" height="128" xmlns="http://www.w3.org/2000/svg">
  <g>
    <path d="M52.3,11.8c-0.5-0.3-1-0.4-1.5-0.4c-0.9,0-1.8,0.4-2.3,1.3c-0.9,1.2-0.5,3,0.8,3.8c0.5,0.3,1,0.4,1.5,0.4 c0.9,0,1.8-0.5,2.3-1.3C54,14.4,53.6,12.6,52.3,11.8z"/>
    <path d="M46.3,17.3c-0.1-0.1-0.3-0.1-0.4-0.2C46,17.1,46.1,17.2,46.3,17.3z"/>
    <path d="M45.3,16.8c-0.1,0-0.1-0.1-0.2-0.1C45.2,16.8,45.2,16.8,45.3,16.8z"/>
    <path d="M45.8,17.1c-0.2-0.1-0.3-0.2-0.5-0.2C45.5,16.9,45.7,17,45.8,17.1z"/>
    <path d="M46.3,17.3C46.3,17.3,46.3,17.3,46.3,17.3C46.3,17.3,46.3,17.3,46.3,17.3z"/>
    <path d="M42.9,16.2c0.1,0,0.1,0,0.2,0C43,16.2,43,16.2,42.9,16.2z"/>
    <path d="M44.2,16.5c-0.3-0.1-0.7-0.2-1-0.3C43.5,16.3,43.9,16.4,44.2,16.5z"/>
    <path d="M45.1,16.8c-0.3-0.1-0.6-0.2-0.8-0.3C44.6,16.6,44.8,16.7,45.1,16.8z"/>
    <path d="M102.2,90.1c-0.8-1.9-2.2-3.8-3.5-3.5c-4.3,0.7-8.5,1-12.7,0.9c-0.3-1-0.6-2-1-2.9c0.1-0.1,0.2-0.3,0.3-0.4 c0.7-1.1,0.6-2.7,0-4.8c-0.1-0.5-0.3-1-0.4-1.5c0.1-0.1,0.1-0.2,0.2-0.3c1.3-2.1-0.8-7.4-1.4-8.8v-0.6c0-1.4-0.3-2.7-0.4-3.2v-0.5 c-0.3-7.4-2.1-21-10.6-29.5c-1.2-2.3-1.6-4.6-2.2-8.1c-0.4-2.1-0.8-4.6-1.5-7.6C66.5,9,60.8,4.3,49.8,3.8c-7-0.3-11.3,0.8-13.8,3.5 c-2,2.2-2.6,5.4-2,9.8c-0.5,0.4-1,0.8-1.4,1.3c-0.2,0.2-0.4,0.5-0.6,0.8c-0.1,0.1-0.2,0.3-0.3,0.5c-0.1,0.1-0.1,0.2-0.2,0.3v0.1 c-0.2,0.3-0.3,0.6-0.5,0.9c0,0.1-0.1,0.2-0.1,0.3c-0.1,0.2-0.1,0.3-0.2,0.5c-0.1,0.3-0.2,0.5-0.2,0.8c0,0.1,0,0.1,0,0.2v0.1 c-0.1,0.3-0.1,0.6-0.2,0.9c-0.8,5.5,3.1,10.8,6.1,11.4c0.1,0,0.1,0,0.2,0c0.2,0,0.4-0.1,0.6-0.2c0.2-0.2,0.4-0.4,0.4-0.7 c0.3-3.6,0.5-4.5,3.5-5.3c-0.5,1.4-0.9,2.5-1.4,3.2v0.1c-0.1,0.1-0.1,0.2-0.2,0.3c-0.1,0.3-0.1,0.6,0,0.8c0.1,0.3,0.4,0.5,0.7,0.6 c1.5,0.9,2.9,1.4,4.3,1.5c-0.4,1-1,2.1-1.6,3.2c-2.1,4-4.7,9-4.7,18.5c0.1,7.3,3.8,14.2,8.2,19.8c-0.6-0.7-2-1.8-3.7-0.9 c-0.1,0.1-0.3,0.2-0.4,0.3c-3.8-1.4-8.2-2.9-13.2-4.8H29h-0.1c-0.3,0-0.5,0.1-0.7,0.1c-1.2,0.2-1.4,0.4-2.5,2.6 c-0.6,1.2-0.8,3.4,0.4,4.4l0.1,0.1c5.2,1.9,9.7,3.5,13.7,5c0.6,1.4,1.8,1.8,2.8,1c0.1,0,0.3,0.1,0.4,0.1c0.3,1.1,1,1.7,1.7,1.7 c0.4,0,0.8-0.2,1.2-0.7c1.7,0.6,3.2,1.1,4.6,1.6c0.2,1,0.6,1.7,1.3,1.8c0.8,0.1,1.3-0.3,1.6-0.8c0.3,0.1,0.6,0.2,0.9,0.3 c0.3,0.8,0.8,1.5,1.3,1.6c0.7,0.2,1.1-0.1,1.4-0.8c0.9,0.3,1.8,0.6,2.6,0.8c1.4,1.3,2.8,2.6,4.2,3.9c2.9,2.7,4.7,4.4,6.1,5.3 c0.3,1.6,0.4,3,0.4,4.2v0.2c0,0.5,0.3,1,0.8,1.3c0.2,0.1,0.5,0.2,0.7,0.2c-0.1,0.6,0.2,1.1,0.7,1.4c0.2,0.1,0.4,0.2,0.7,0.2 c0.2,2.6,0.5,5.5,0.9,7.3c1.4,7.1,2.7,9.7,5,9.7c1.7,0,2.4-1.6,2.8-3.6c3.1,3.9,4.3,3.9,4.9,3.9H87c0.7,0,1.2-0.4,1.7-0.9 c0.6-0.8,0.8-2,0.7-3.9c2,1.5,4.5,3.1,6.2,3.1c0.5,0,1.1-0.2,1.5-0.6c0.4-0.3,0.6-0.8,0.7-1.3c0.2-1.3-1.1-3.7-3.8-6.9 c-2.7-3.5-4.9-6.9-6.6-10.2c0-1.2-0.3-2.5-0.9-3.9c0.1-0.2,0.2-0.5,0.3-0.8c0.2-1,0.1-2.1-0.3-3.4c0.7,0,1.4,0,2.2,0 c4.2,0,8.4-0.4,12.8-1.2c0.4,0,0.7-0.3,0.9-0.6C102.9,93.3,102.8,91.7,102.2,90.1z M60.7,18.4c-1.5,3.4-5.6,10.7-9.9,11 c0.2-0.5,0.2-1.1,0.2-1.6c0-0.2,0-0.3,0-0.5c0,0,0,0,0-0.1c0-0.2,0-0.4,0-0.6c0-3.1,0.8-3.9,0.8-3.9c0.1-0.1,0.1-0.2,0.1-0.2 s-2.2,0.1-3.1-2.9c-0.3-0.8-1.2-1.6-2.5-2.3c0.8,0.4,1.4,0.9,1.7,1.4c-0.5,2.8-1.9,6.5-7.3,8.8c-2.9,0.9-3,2.1-3.7,3.1 c-2-0.7-4.7-2.4-5.8-3.9c-0.5-2.4,0-5.1,2.1-7.5c2.7-3.1,6.5-3.6,9.6-3c0,0-0.1,0-0.1-0.1c-0.1-0.4-0.2-0.8-0.3-1.1 c0,0-2-6.8,6.9-6.2C58.3,9.4,62.2,14.9,60.7,18.4z M78.3,61.8c0.6,1.4,1.3,2.5,1.9,3.1v0.4c0,0.1,0,0.3,0,0.4c0,0,0.3,1.4,0.3,2.6 v0.9c0,0.2,0,0.4,0.1,0.6c0.3,0.6,0.5,1.3,0.8,1.9c-0.1,0-0.3-0.1-0.5-0.2c-0.1-0.1-0.3-0.1-0.4-0.2c0,0,0-0.1-0.1-0.1 c-0.1-0.1-0.2-0.2-0.4-0.3v-0.1c-0.1-0.1-0.2-0.3-0.4-0.4l-0.1-0.1c-0.1-0.1-0.2-0.3-0.4-0.5c0-0.1-0.1-0.1-0.1-0.2 c-0.2-0.1-0.3-0.3-0.4-0.5c0-0.1-0.1-0.1-0.1-0.2c0,0,0,1.8-1.6,3.7c-0.1,0-0.2-0.1-0.3-0.1c0,0-0.1-0.1-0.2-0.1 c-0.1,0-0.1-0.1-0.2-0.1c0-0.1-0.1-0.1-0.2-0.2l-0.2-0.2c-0.1-0.1-0.2-0.1-0.3-0.2c0,0,0,0-0.1,0c-0.1-2.6-0.2-5.4-0.3-8.1 C76.2,65.6,77.6,65.7,78.3,61.8z M79.4,87c-1.1-0.1-2.2-0.3-3.4-0.5c0.5-0.1,1.1-0.2,1.6-0.2C78.5,86.3,79.1,86.6,79.4,87z M93,115 c1.9,2.4,4,5.5,3.2,6.1c-0.2,0.1-0.4,0.2-0.6,0.2c-1.3,0-4.6-2.1-8.1-5.1c0.7,4,0.7,6.8-0.6,6.8h-0.1c-0.7,0-2.4-1.6-4.9-5.1 c-0.3-0.4-0.6-0.9-0.9-1.5c-0.4,4-0.8,6.3-1.8,6.3c-0.9,0-2.1-1-3.6-8.5c-0.5-2.3-0.8-6.3-1.1-10c1.4-2.3,1.5-5.9,1.3-9.6 c2.4,0.4,4.7,0.7,7,0.9C84.3,101.2,87.6,108.2,93,115z"/>
    <path d="M44.3,16.5C44.2,16.5,44.2,16.5,44.3,16.5C44.2,16.5,44.2,16.5,44.3,16.5z"/>
  </g>
</svg>