<svg width="128" height="128" xmlns="http://www.w3.org/2000/svg">
  <g>
    <path d="M88.8,81.5c-1.9,0-3.4,0.8-4.4,2.3c-1.1,1.5-1.6,3.8-1.6,6.9c0,2.7,0.5,4.8,1.5,6.3s2.5,2.3,4.4,2.3c2.3,0,4.1-1,5.2-3 C94,96.2,94,96,94,95.8V84.9c0-0.2,0-0.3-0.1-0.5C92.9,82.5,91.1,81.5,88.8,81.5z"/>
    <path d="M43.1,38.8h-2.3c-2.2,0-3.9,0.4-5.1,1.2c-1.1,0.8-1.7,1.9-1.7,3.3c0,1.2,0.4,2.1,1.2,2.8c0.8,0.7,1.8,1,3.1,1 c1.2,0,2.3-0.3,3.4-0.9c1-0.5,1.7-1.2,2.2-2.1c0.1-0.2,0.1-0.3,0.1-0.5v-3.9C44.1,39.2,43.7,38.8,43.1,38.8z"/>
    <path d="M116,4H12c-4.4,0-8,3.6-8,8v104c0,4.4,3.6,8,8,8h104c4.4,0,8-3.6,8-8V12C124,7.6,120.4,4,116,4z M35.7,97 c1.1,1.5,2.6,2.2,4.6,2.2c1.5,0,2.8-0.4,3.8-1.3c0.8-0.7,1.3-1.6,1.5-2.5c0.1-0.4,0.5-0.7,0.9-0.7h3.8c0.6,0,1,0.5,0.9,1.1 c-0.2,1.3-0.7,2.5-1.5,3.6c-1,1.5-2.3,2.6-4,3.5c-1.7,0.9-3.5,1.3-5.4,1.3c-3.8,0-6.8-1.2-9-3.7S28,94.7,28,90.4v-0.6 c0-4.1,1.1-7.4,3.3-9.9s5.2-3.7,9-3.7c3.2,0,5.8,0.9,7.8,2.8c1.8,1.7,2.8,3.8,3.1,6.3c0.1,0.6-0.4,1.1-0.9,1.1h-3.8 c-0.5,0-0.8-0.3-0.9-0.8c-0.2-1.2-0.7-2.2-1.5-3c-1-1-2.2-1.5-3.8-1.5c-2,0-3.5,0.7-4.5,2.1c-1,1.4-1.6,3.6-1.6,6.5v1 C34.1,93.4,34.6,95.5,35.7,97z M51.3,51.5h-5.6c-0.4,0-0.8-0.2-0.9-0.6c0-0.1-0.1-0.2-0.1-0.4c-0.2-0.6-1-0.9-1.5-0.5 c-1.7,1.3-3.7,2-5.9,2c-2.7,0-4.9-0.8-6.6-2.3s-2.6-3.5-2.6-5.7c0-2.9,1.1-5.1,3.2-6.6c2.1-1.5,5.2-2.3,9.2-2.3h2.8 c0.5,0,1-0.4,1-1v-0.8c-0.2-1.5-0.6-2.6-1.4-3.4c-0.8-0.8-2-1.3-3.6-1.3c-1.4,0-2.5,0.4-3.4,1c-0.7,0.5-1.1,1.1-1.2,1.9 c-0.1,0.4-0.5,0.8-0.9,0.8h-4.2c-0.6,0-1-0.5-0.9-1.1c0.2-1.1,0.6-2.1,1.4-3.1c1-1.3,2.3-2.3,4-3c1.7-0.7,3.6-1.1,5.7-1.1 c3.2,0,5.7,0.8,7.6,2.4c1.9,1.6,2.8,3.8,2.9,6.7v12.2c0,2.4,0.3,4.4,1,5.8V51.5z M99.1,103.5h-3.6c-0.5,0-0.9-0.4-0.9-0.8 c-0.1-0.7-0.9-1.1-1.5-0.6c-1.6,1.3-3.5,1.9-5.8,1.9c-3.1,0-5.6-1.2-7.5-3.7c-1.9-2.5-2.9-5.9-2.9-10.2c0-4.1,0.9-7.3,2.8-9.8 c1.9-2.5,4.4-3.7,7.6-3.7c2.1,0,3.9,0.5,5.3,1.6c0.6,0.4,1.4,0,1.4-0.8V66.9c0-0.5,0.4-0.9,0.9-0.9H99c0.5,0,0.9,0.4,0.9,0.9v35.7 h0.1C100,103.1,99.6,103.5,99.1,103.5z M100.1,38.6L100.1,38.6c-0.1,4.1-1,7.4-2.9,9.8c-1.8,2.4-4.3,3.6-7.6,3.6 c-2.4,0-4.3-0.7-5.9-2c-0.6-0.5-1.4-0.1-1.5,0.6c0,0.5-0.5,0.8-0.9,0.8h-3.6c-0.5,0-0.9-0.4-0.9-0.9V14.9c0-0.5,0.4-0.9,0.9-0.9 h4.1c0.5,0,0.9,0.4,0.9,0.9v10.6c0,0.8,0.9,1.2,1.5,0.8c1.5-1.1,3.3-1.7,5.5-1.7c3.2,0,5.8,1.2,7.6,3.6c1.8,2.4,2.8,5.7,2.8,10 V38.6z"/>
    <path d="M88.2,29.5c-2.5,0-4.3,1.1-5.3,3.2c-0.1,0.1-0.1,0.3-0.1,0.4v10.4c0,0.2,0,0.3,0.1,0.4c1.1,2.2,2.9,3.2,5.4,3.2 c1.9,0,3.3-0.7,4.3-2.1s1.5-3.5,1.6-6.3v-0.8c0-2.9-0.5-5-1.5-6.5C91.5,30.2,90.1,29.5,88.2,29.5z"/>
  </g>
</svg>