<svg width="128" height="128" xmlns="http://www.w3.org/2000/svg">
  <g>
    <path d="M57.4,98.7c-1.2,0-2.2,1-2.2,2.2c0,1.2,1,2.2,2.2,2.2c1.2,0,2.2-1,2.2-2.2C59.6,99.7,58.6,98.7,57.4,98.7z"/>
    <path d="M109.8,51.4c-0.6-0.4-1.3-0.5-2-0.3c-0.7,0.2-1.3,0.6-1.6,1.2L94.4,71.4c-1,1.7-2.7,2.9-4.5,3.5l-13.4,3.8 c-0.1-0.1-0.1-0.2-0.2-0.3l12.3-9c3.2-2.2,5.1-5.9,5.1-9.8l-4.3-26.9c-0.1-1.4-1.2-2.6-2.6-2.6c-1.5,0-2.6,1.2-2.6,2.6l4.3,26.9 c0,2.1-1.1,4.1-2.9,5.4l-12.9,9.4c-0.1-0.1-0.2-0.1-0.3-0.2c5.6-4.1,9.1-12,9.1-20.7c0-12-6.7-22-15.4-23.4V3.2h-4v27.1 c-8.7,1.3-15.5,11.3-15.5,23.4c0,8.7,3.5,16.6,9.1,20.7c-0.1,0.1-0.2,0.1-0.3,0.2l-12.9-9.4c-1.7-1.2-2.8-3.2-2.8-5.4L43.9,33v-0.2 c0-1.5-1.2-2.6-2.6-2.6c-1.4,0-2.6,1.1-2.6,2.6l-4.3,26.8v0.2c0,3.9,1.9,7.5,5,9.8l12.2,9c-0.1,0.1-0.1,0.2-0.2,0.3l-13.2-3.8 c-1.9-0.6-3.5-1.8-4.6-3.5L21.9,52.3c-0.8-1.2-2.4-1.6-3.6-0.9c-0.6,0.4-1,1-1.2,1.7c-0.2,0.7,0,1.4,0.3,2l11.8,19.1 c1.7,2.8,4.4,4.9,7.6,5.8L50,83.9c0,0.1,0,0.2,0,0.3c0,0.3,0,0.5,0,0.8l-12.7,4.9c-2.8,1.3-4.7,4-5,7l-1.5,17.4 c-0.1,0.7,0.2,1.4,0.6,1.9c0.5,0.5,1.1,0.9,1.8,0.9h0.2c1.4,0,2.5-1.1,2.6-2.4l1.5-17.4c0.1-1.1,0.8-2.2,1.8-2.6L51.7,90 c0.2,0.4,0.5,0.8,0.8,1.1L48.4,95l-0.2,0.2c-3.5,4.2-4,9.9-1.4,14.7l7,12.9c0.7,1.2,2.3,1.8,3.6,1.1c1.3-0.7,1.8-2.3,1.1-3.6 l-7-12.9c-1.5-2.8-1.2-6.2,0.8-8.6l0.6-0.5c-0.5,0.8-0.8,1.7-0.8,2.7c0,3,2.4,5.4,5.4,5.4c1.1,0,2.2-0.4,3.1-1h0.1 c0.4,0,0.7-0.1,0.9-0.4c0.3-0.3,0.4-0.6,0.3-1c0.2-0.3,0.3-0.5,0.4-0.8c1.2,0.2,2.3,0.2,3.5,0c0.1,0.2,0.2,0.4,0.4,0.6 c0,0.1-0.1,0.2-0.1,0.3c0,0.5,0.3,0.9,0.7,1.1c0.1,0,0.3,0.1,0.6,0.1c0.2,0.1,0.4,0.2,0.5,0.2c0.8,0.5,1.8,0.8,2.8,0.8 c3,0,5.4-2.4,5.4-5.4c0-1-0.3-1.8-0.7-2.6l0.5,0.4c2,2.5,2.3,5.9,0.8,8.7l-7,12.9c-0.3,0.6-0.4,1.3-0.2,2s0.7,1.2,1.3,1.6 c0.4,0.2,0.8,0.3,1.3,0.3c1,0,1.9-0.5,2.3-1.4l7-12.9c2.6-4.8,2-10.5-1.4-14.7L75.6,91c0.3-0.4,0.5-0.7,0.8-1.1l12.3,4.8 c1.1,0.5,1.8,1.5,1.9,2.6l1.5,17.4c0.1,1.4,1.3,2.4,2.6,2.4c0.1,0,0.2,0,0.3,0c0.7-0.1,1.3-0.4,1.7-0.9c0.5-0.5,0.7-1.2,0.6-1.9 l-1.4-17.4c-0.3-3.1-2.2-5.8-5.1-7.1l-12.7-4.9c0-0.3,0-0.5,0-0.8c0-0.1,0-0.2,0-0.2L91.3,80c3.1-0.9,5.8-3,7.6-5.8l11.8-19.1 C111.4,53.8,111,52.2,109.8,51.4z M57.4,105.2c-2.4,0-4.3-1.9-4.3-4.3c0-2.4,1.9-4.3,4.3-4.3c2.4,0,4.3,1.9,4.3,4.3 C61.7,103.3,59.8,105.2,57.4,105.2z M70.6,105.2c-2.4,0-4.3-1.9-4.3-4.3c0-2.4,1.9-4.3,4.3-4.3c2.4,0,4.3,1.9,4.3,4.3 C74.9,103.3,73,105.2,70.6,105.2z"/>
    <path d="M70.6,98.7c-1.2,0-2.2,1-2.2,2.2c0,1.2,1,2.2,2.2,2.2c1.2,0,2.2-1,2.2-2.2C72.8,99.7,71.9,98.7,70.6,98.7z"/>
  </g>
</svg>