<svg viewBox="0 0 128 128" xmlns="http://www.w3.org/2000/svg">
  <g>
    <path d="M122,76.1c1.6,1,2.5,1.6,2.4,1.5c-1.7-2.5-6.4-6-8.9-8c-0.4-0.5-0.8-1-1.2-1.5c1.7-0.1,10.1-0.9,9.6-1.5l-5.5-7.2 c-2.3-3-4.4-6.1-6.4-9.2c2.4-2,4.3-4.5,5.5-7.3c6.3-15-0.4-37.2-0.4-37.2s-25.9,7.4-33.9,20.6c-5.7-1.7-12.2-2.6-19.3-2.7 c-7.2-0.1-13.7,0.8-19.4,2.4c-8-13-33.6-20.3-33.6-20.3s-6.8,22.1-0.4,37.2c1.2,2.8,3,5.1,5.3,7.1c-2.2,3.5-4.5,7-7.1,10.3l-5,6.5 c-0.4,0.5,8.9,1.2,9.7,1.2c-0.4,0.5-0.9,0.9-1.3,1.4c-2.2,1.9-6.7,5.4-8.5,8.1c-0.1,0.1,0.5-0.3,1.4-0.9C4,77.5,3.5,78,3.5,78 s4.7,9,21.1,25.5C41.1,119.9,64,122.3,64,122.3s21.7-0.6,39.1-18c17.3-17.3,21.4-26.2,21.4-26.2S123.5,77.4,122,76.1z M92.8,28.6 c2.8-9,20.1-13.9,20.1-13.9s3.5,13.2-0.5,20.9c-1.4,2.7-3.5,4.8-5.7,6.4c-3.5-4.9-8.3-8.9-14.2-12C92.5,29.5,92.6,29,92.8,28.6z M15.7,35.6c-4-7.7-0.5-20.9-0.5-20.9s17.3,4.9,20.1,13.9c0.1,0.4,0.2,0.7,0.3,1.1c-6,3-10.8,7.2-14.4,12.1 C19.1,40.2,17.1,38.2,15.7,35.6z M100.9,102.2c-15.4,15.4-34.7,17-36.8,17.1c-2.3-0.3-22.6-3.2-37.3-17.9 C15.2,89.8,9.6,82,7.4,78.5c1.8-1.7,4.8-4.6,8.3-8.4c9.9-5.4,23.5-10.7,32.1-4.7c6.7,4.7,11,17.8,13.4,28.6H58 c-2,0-3.3,1.9-2.6,3.8c1.3,3.4,3.4,5.9,6.6,6.7c-0.5,4.1-3.9,7.2-8.1,7.2c-0.8,0-1.5,0.7-1.5,1.5c0,0.8,0.7,1.5,1.5,1.5 c4.1,0,7.8-2.3,9.7-5.6c0.1,0.3,0.3,0.5,0.5,0.8c2,2.9,5.4,4.9,9.2,4.9c0.8,0,1.5-0.7,1.5-1.5s-0.7-1.5-1.5-1.5 c-4.2,0-7.6-3.1-8.1-7.1c3.8-0.4,6.2-3.1,7.6-6.8c0.5-2-0.8-3.9-2.8-3.9h-3.3c2.4-10.9,6.5-24.1,13.1-28.8 c7.9-5.7,22.2-0.1,32.5,5.3c3,3.7,6.3,6.7,8.3,8.4C118.5,82.3,113,90.2,100.9,102.2z"/>
    <path d="M48.3,79.8c0-0.1,0-0.2-0.1-0.3c0-0.1-0.1-0.3-0.2-0.5c-0.2-0.4-0.4-0.7-0.6-1.2c-0.2-0.4-0.6-0.9-0.9-1.3 c-0.7-0.9-1.7-1.9-2.9-2.7c-0.6-0.4-1.2-0.8-1.8-1.1c-0.7-0.4-1.3-0.6-2-0.9c-0.5-0.2-0.6-0.2-1-0.3c-0.4-0.1-0.8-0.2-1.1-0.3 c-0.7-0.2-1.4-0.3-2.1-0.4c-1.4-0.1-2.8-0.1-3.9,0.2c-1.2,0.2-2.1,0.6-2.8,0.9c-0.3,0.2-0.6,0.3-0.8,0.4c-0.2,0.1-0.3,0.1-0.3,0.1 c-0.9,0.5-1.5,1.6-1.3,2.7c0.2,1.5,1.6,2.5,3.1,2.3l0.5-0.1c0,0,0.2,0,0.6,0s0.9,0,1.6,0c0.7,0,1.5,0.1,2.4,0.3 c0.4,0.1,0.9,0.2,1.3,0.3c0.2,0.1,0.5,0.1,0.6,0.2c0.1,0,0.6,0.2,0.7,0.3c0.5,0.2,0.9,0.3,1.3,0.6c0.4,0.2,0.8,0.4,1.2,0.6 c0.8,0.4,1.5,0.9,2,1.3c0.3,0.2,0.5,0.4,0.7,0.6s0.3,0.3,0.5,0.5c0,0.1,0.1,0.1,0.1,0.1c0.1,0.1,0.1,0.2,0.2,0.2 c0.1,0.1,0.1,0.2,0.1,0.2c0.7,0.9,1.8,1.3,3,1c1.5-0.4,2.3-1.9,1.9-3.4C48.4,80,48.4,79.9,48.3,79.8z"/>
    <path d="M100.3,72.4c0,0-0.1,0-0.2-0.1c-0.1,0-0.1-0.1-0.2-0.1c-0.1-0.1-0.3-0.2-0.5-0.2c-0.4-0.2-0.8-0.3-1.2-0.5 c-0.5-0.2-1-0.3-1.6-0.4c-1.2-0.2-2.5-0.3-3.9-0.2C92,71,91.3,71,90.5,71.2c-0.7,0.2-1.4,0.4-2.1,0.6c-0.4,0.2-0.6,0.2-1,0.4 s-0.7,0.3-1,0.5c-0.7,0.3-1.3,0.7-1.9,1.1c-1.2,0.8-2.2,1.8-2.9,2.7c-0.8,0.9-1.2,1.8-1.5,2.5c-0.2,0.3-0.2,0.6-0.3,0.8 c-0.1,0.2-0.1,0.3-0.1,0.3c-0.3,1-0.1,2.2,0.8,2.9c1.1,1,2.8,0.9,3.8-0.2l0.3-0.4c0,0,0.1-0.2,0.4-0.4c0.3-0.3,0.7-0.6,1.2-1.1 c0.5-0.4,1.2-0.9,2-1.3c0.4-0.2,0.8-0.4,1.2-0.6c0.2-0.1,0.4-0.2,0.6-0.3c0.1-0.1,0.6-0.2,0.7-0.3c0.5-0.2,0.9-0.3,1.4-0.5 c0.5-0.1,0.9-0.2,1.4-0.3c0.9-0.2,1.7-0.3,2.4-0.3c0.4,0,0.7,0,0.9,0c0.2,0,0.5,0,0.7,0c0.1,0,0.1,0,0.2,0s0.2,0,0.3,0.1 c0.1,0,0.2,0,0.2,0c1.1,0.2,2.2-0.2,2.9-1.2C101.9,75,101.5,73.2,100.3,72.4z"/>
  </g>
</svg>