<svg width="128" height="128" xmlns="http://www.w3.org/2000/svg">
  <g>
    <circle cx="64.5" cy="81.4" r="11.2"/>
    <circle cx="37.5" cy="81.4" r="6.4"/>
    <circle cx="91.6" cy="81.4" r="6.4"/>
    <path d="M118.2,74.3l1.6-22.2c0-0.2,0-0.3,0-0.4c2.4-0.8,4.2-3.1,4.2-5.8c0-3.4-2.7-6.1-6.1-6.1c-3.4,0-6.1,2.7-6.1,6.1 c0,1.1,0.3,2.1,0.8,2.9c-0.1,0.1-0.2,0.2-0.3,0.3l-4.9,8.8l-4.6-11.2c-0.2-0.5-0.5-0.9-0.9-1.3c1.1-0.7,1.9-2,1.9-3.4 c0-2.2-1.8-4-4.1-4s-4.1,1.8-4.1,4c0,1,0.4,1.9,1,2.6C96,45,95.4,45.5,95,46.2l-2,3.5l-5.5-15c2.4-1.2,4-3.6,4-6.4 c0-3.9-3.2-7.1-7.1-7.1c-3.9,0-7.1,3.2-7.1,7.1c0,2.2,1,4.2,2.7,5.6c0,0.1-0.1,0.1-0.2,0.2L71,53.2l-3.3-6.7 c-0.3-0.6-0.7-1.1-1.1-1.4c0.8-0.7,1.3-1.8,1.3-3c0-2.2-1.8-4-4-4c-2.2,0-4.1,1.8-4.1,4c0,1.2,0.5,2.3,1.4,3 c-0.4,0.4-0.8,0.8-1.1,1.4L57,52.9l-8.2-18.8c0,0,0,0,0-0.1c1.8-1.3,2.9-3.4,2.9-5.7c0-3.9-3.2-7.1-7.1-7.1c-3.9,0-7.1,3.2-7.1,7.1 c0,2.6,1.4,4.9,3.6,6.2l-5.3,14.9L34,46.2c-0.4-0.7-1-1.3-1.6-1.6c0.6-0.7,0.9-1.6,0.9-2.6c0-2.2-1.8-4-4-4s-4.1,1.8-4.1,4 c0,1.5,0.8,2.8,2,3.5c-0.3,0.3-0.6,0.8-0.8,1.2L21.7,58l-4.9-8.9c-0.3-0.4-0.7-0.7-1-0.9c0.3-0.7,0.5-1.5,0.5-2.3 c0-3.4-2.7-6.1-6.1-6.1c-3.4,0-6.1,2.7-6.1,6.1c0,3.1,2.3,5.6,5.3,6c0,0.1,0,0.1,0,0.2L11,74.3c-2.3,0.9-4,3.7-4,7.1 c0,3.8,2.2,6.9,5,7.3l0.4,5.1C12.4,101,18,107,25,107h4.4h1.4h32.9c0.3,0,0.5,0,0.8-0.1c0.2,0,0.5,0.1,0.8,0.1h33.2h1.4h4.4 c7,0,12.6-6.1,12.6-13.2l0.4-5.1c2.8-0.4,5-3.5,5-7.3C122.2,78,120.5,75.2,118.2,74.3z M96.8,47.2c0.2-0.4,0.5-0.6,0.8-0.8 c0.5-0.3,0.9-0.8,1-1.4c0.1-0.6-0.1-1.2-0.5-1.6c-0.2-0.3-0.5-0.7-0.5-1.3c0-1.2,1-2.1,2.1-2.1s2.1,0.9,2.1,2 c0,0.7-0.3,1.4-0.9,1.7c-0.5,0.3-0.8,0.8-0.9,1.4c-0.1,0.6,0.1,1.2,0.5,1.6c0.2,0.3,0.4,0.5,0.5,0.7l5.2,12.6l-2,3.5 c-0.8,0.7-1.8,1.1-2.7,1.1c-1.5,0-3-0.9-3.7-2.4L94,52.1L96.8,47.2z M62,47.4c0.1-0.3,0.3-0.5,0.6-0.8c0.5-0.4,0.7-0.9,0.7-1.5 c0-0.6-0.3-1.1-0.7-1.5c-0.4-0.4-0.7-0.9-0.7-1.5c0-1.1,0.9-2,2.1-2s2,0.9,2,2c0,0.6-0.2,1.1-0.7,1.5c-0.4,0.4-0.7,0.9-0.7,1.5 c0,0.6,0.3,1.1,0.7,1.5c0.2,0.2,0.4,0.5,0.6,0.8l4,8.2l-2.4,5.2c-0.8,1.4-2.1,2.1-3.5,2.1s-2.8-0.7-3.6-2.2L58,55.2L62,47.4z M28.2,47.5c0.1-0.2,0.2-0.5,0.4-0.7c0.4-0.4,0.6-1,0.5-1.6c-0.1-0.6-0.4-1.1-1-1.4c-0.6-0.4-1-1-1-1.8c0-1.1,0.9-2,2-2 c1.1,0,2,0.9,2,2c0,0.6-0.3,1-0.5,1.3c-0.4,0.5-0.5,1.1-0.4,1.7c0.1,0.6,0.5,1.1,1,1.4c0.4,0.2,0.7,0.5,0.9,0.9l2.6,4.6L31,62.2 c-0.7,1.6-2.2,2.5-3.7,2.5c-1,0-1.9-0.3-2.7-1.1l-1.8-3.3L28.2,47.5z M116.9,51.5v0.2L115.3,74c-2.4,0.8-4.2,3.7-4.2,7.1 c0,3,1.3,5.5,3.2,6.7l-0.4,5.5c-0.1,0.3-0.1,0.4-0.1,0.5c0,2.8-1.1,5.5-3.1,7.4c-1.8,1.8-4.1,2.8-6.5,2.8H65.1c0,0-0.1,0-0.2,0 c-0.2,0-0.4,0-0.5,0c-0.1,0-0.4,0-0.5,0c-0.1,0-0.2,0-0.2,0H24.8c-2.4,0-4.7-1-6.5-2.8c-2-1.9-3.1-4.7-3.1-7.4c0-0.1,0-0.1,0-0.2 L14.9,88c1.9-1.2,3.2-3.7,3.2-6.7c0-3.4-1.8-6.3-4.2-7.1L12.3,52v-0.2c0-1.5-1.1-2.7-2.6-2.9C8.2,48.7,7,47.4,7,45.8 c0-1.7,1.4-3.1,3.1-3.1c1.7,0,3.1,1.4,3.1,3.1c0,0.4-0.1,0.8-0.2,1.2c-0.6,1.4-0.1,2.9,1.2,3.7c0.1,0,0.1,0.1,0.2,0.1L22.2,65 c0.2,0.3,0.4,0.5,0.6,0.7c1.3,1.2,3,1.9,4.8,1.9c2.8,0,5.4-1.7,6.5-4.3c0,0,0-0.1,0.1-0.1l9.9-27.7c0.5-1.4-0.1-2.9-1.3-3.6 c-1.3-0.7-2.1-2.1-2.1-3.5c0-2.3,1.8-4.1,4.1-4.1s4.1,1.8,4.1,4.1c0,1.3-0.6,2.5-1.7,3.3c-1.2,0.9-1.6,2.5-0.9,3.8c0,0,0,0,0,0.1 L57.8,62c0,0.1,0,0.1,0.1,0.2c1.2,2.3,3.6,3.8,6.2,3.8c2.6,0,4.9-1.4,6.2-3.7c0-0.1,0.1-0.1,0.1-0.2l12.2-26.5c0.9-1.3,0.6-3-0.6-4 c-1-0.8-1.5-1.9-1.5-3.2c0-2.2,1.8-4.1,4.1-4.1c2.3,0,4.1,1.8,4.1,4.1c0,1.6-0.9,3-2.3,3.7c-1.4,0.7-2,2.3-1.5,3.7L95,63.3l0.1,0.1 c1.1,2.6,3.6,4.2,6.4,4.2c1.8,0,3.5-0.7,4.8-1.9c0.2-0.2,0.4-0.5,0.6-0.7l7.9-14.2c0.9-0.9,1.1-2.4,0.5-3.6c-0.2-0.5-0.4-1-0.4-1.5 c0-1.7,1.4-3.1,3.1-3.1s3.1,1.4,3.1,3.1c0,1.3-0.9,2.5-2.1,2.9C117.7,49,116.9,50.2,116.9,51.5z"/>
  </g>
</svg>