<svg viewBox="0 0 128 128" xmlns="http://www.w3.org/2000/svg">
  <g>
    <path d="M64,6.1C32.8,6.1,4,26.1,4,64c0,37.7,28.8,57.9,60,57.9s60-20.7,60-57.9C124,26.6,95.1,6.1,64,6.1z M103,103.9 c-10.2,9-24.1,14-39,14c-15,0-28.9-4.9-39-13.8C13.9,94.3,8,80.5,8,64s5.9-30.4,17-40.2C35.1,15,48.9,10.1,64,10.1 c15,0,28.9,4.9,39,13.9c11.1,9.8,17,23.6,17,40C120,80.3,114.1,94.1,103,103.9z"/>
    <path d="M45.6,29.4c1.5,0.1,2.5-0.9,2.7-2c0.2-1-0.3-2.2-1.7-2.6c-1.8-0.5-3.9-0.7-6-0.6c-5.4,0.2-10.6,2.5-14.3,6.4 c-1,1.1-0.8,2.3-0.2,3.1c0.4,0.5,1.1,0.8,1.9,0.8c0.5,0,1-0.1,1.4-0.5C34.1,30.7,40,29,45.6,29.4z"/>
    <path d="M87.3,24.2c-2.1-0.1-4.1,0.1-6,0.6c-1.5,0.4-1.9,1.6-1.7,2.6c0.2,1.1,1.2,2.1,2.6,2c5.7-0.4,11.5,1.3,16.3,4.6 c0.5,0.3,1,0.5,1.5,0.5c0.7,0,1.4-0.3,1.9-0.8c0.7-0.8,0.9-2-0.2-3.1C98,26.8,92.6,24.4,87.3,24.2z"/>
    <ellipse cx="83.7" cy="49.4" rx="7.3" ry="11.8"/>
    <ellipse cx="44.3" cy="49.4" rx="7.7" ry="11.8"/>
    <path d="M64,73.6c-6.3,0-11.6,5-12,11.2c0,0.3,0,0.5,0,0.8v13.8c0,6.6,5.4,12,12,12s12-5.4,12-12V85.6 c0-0.2,0-0.4,0-0.6C75.6,78.7,70.4,73.6,64,73.6z M64.6,85.6c-3.3,0-6.5-0.2-9.6-0.5c0.2-4.8,4.2-8.5,9-8.5c4.8,0,8.8,3.9,9,8.7 C70.3,85.5,67.5,85.6,64.6,85.6z"/>
  </g>
</svg>