<svg viewBox="0 0 128 128" xmlns="http://www.w3.org/2000/svg">
  <g>
    <path d="M55.8,59.2c0-0.3-0.2-0.6-0.4-0.9c-1.2-1.1-3.8-2.6-8.2-1.8c-4.4,0.8-6.4,3.2-7.2,4.7c-0.3,0.7-0.1,1.3,0.2,1.7 c0.3,0.3,1.2,0.5,2.1,0c0.9-0.5,2.5-1.8,5.5-2.4c3-0.6,4.9,0,5.9,0.2c0.9,0.1,1.7-0.3,1.9-0.8c0,0,0,0,0-0.1 C55.8,59.7,55.9,59.4,55.8,59.2z"/>
    <path d="M89.9,90.9c2.1-3,3.9-6.5,5.2-10.4c4-1.7,6.9-5.8,6.9-10.6c0-2.3-0.7-4.5-1.8-6.3c0.9-5.7,6.4-51.3-36.2-51.5h0 c0,0,0,0,0,0c-42.6,0.2-37.1,45.8-36.2,51.6c-1.1,1.8-1.8,3.9-1.8,6.3c0,4.8,2.9,9,6.9,10.6c1.3,4,3.1,7.5,5.2,10.4 c-13.2,4.5-22.1,13-22.1,27v6.1h96v-6.1C112,103.9,103.1,95.4,89.9,90.9z M42.3,93c-5.1-5.4-8.3-12.6-9.4-21.2 c0.1-7.4,2.8-19.2,4.8-24.3c1-2.8,3.9-4.4,6.8-3.8c4.5,0.8,11.5,1.8,19.4,1.8H64h0.1c7.8,0,14.9-1,19.4-1.8 c2.9-0.5,5.8,1.1,6.8,3.8c2,5.2,4.7,17,4.8,24.4c-1.1,8.6-4.3,15.8-9.4,21.1c-5.7,6-13.4,9.3-21.7,9.3S48,99,42.3,93z M95.9,77.8 c0.7-2.7,1.2-5.6,1.4-8.7c0.7-1.1,1.3-2.3,1.8-3.2c0.5,1.2,0.8,2.6,0.8,4C100,73.2,98.4,76.1,95.9,77.8z M28,69.8 c0-1.4,0.3-2.8,0.8-4c0.5,0.9,1.2,2.1,1.9,3.3c0.2,3.1,0.7,6,1.4,8.7C29.6,76.1,28,73.2,28,69.8z M64.8,110h-1.7 c-3.5,0-6.3-2.8-6.3-6.2v-0.4c2.3,0.5,4.7,0.8,7.1,0.8c2.4,0,4.8-0.3,7.1-0.8v0.4C71.1,107.2,68.3,110,64.8,110z"/>
    <path d="M64,82.3c2.8,0,4.2-2,4.5-2.7c0.3-0.7,0-1.3-0.7-1.6c-0.1,0-0.2-0.1-0.3-0.1h-7c-0.1,0-0.2,0-0.3,0.1 c-0.6,0.3-1,0.9-0.7,1.6C59.8,80.4,61.2,82.3,64,82.3z"/>
    <path d="M71.3,91.8c0.8,0.2,1.2-0.6,0.6-1.4c-0.8-1.2-3.7-3.5-8-3.5s-7.2,2.3-8,3.5c-0.5,0.8-0.2,1.7,0.6,1.4 C61.3,90.3,66.9,90.4,71.3,91.8z"/>
    <path d="M46.7,66.1c-1.2,0.3-2.2,0.5-3.2,0.7c-0.1,0.5-0.2,1-0.2,1.5c-0.1,3.1,1.9,5.5,4.4,5.5c2.5,0,4.5-2.5,4.6-5.5 c0-1.8-0.7-3.4-1.7-4.4C49.6,64.8,48.4,65.6,46.7,66.1z"/>
    <path d="M81.3,66.1c-1.7-0.5-2.9-1.3-3.9-2.2c-1.1,1-1.8,2.6-1.7,4.4c0.1,3.1,2.1,5.5,4.6,5.5c2.5,0,4.4-2.5,4.4-5.5 c0-0.5-0.1-1-0.2-1.5C83.5,66.6,82.5,66.4,81.3,66.1z"/>
    <path d="M74.3,60.8c1-0.1,2.9-0.7,5.9-0.2c3,0.6,4.6,1.9,5.5,2.4c0.9,0.5,1.8,0.3,2.1,0c0.1-0.1,0.2-0.3,0.3-0.5 c0.2-0.3,0.4-0.8,0.1-1.3c-0.4-0.7-1.2-1.7-2.5-2.6c-1.1-0.9-2.7-1.6-4.8-2c-4.4-0.9-7,0.6-8.2,1.8c-0.5,0.5-0.5,1.2-0.3,1.7 C72.5,60.4,73.3,60.9,74.3,60.8z"/>
  </g>
</svg>