<svg viewBox="0 0 128 128" xmlns="http://www.w3.org/2000/svg">
  <g>
    <path d="M64.5,112.2c-0.3-0.6-0.6-1.3-1.1-1.9c-0.9-1.3-2.2-2.6-3.5-3.9c-0.3-0.3-0.7-0.7-1-1c-0.2-0.2-0.4-0.4-0.7-0.5 c-0.1,0-0.2-0.1-0.2-0.1c-0.2-0.1-0.3-0.2-0.5-0.2c-0.1,0-0.2,0-0.3-0.1c-0.2,0-0.3-0.1-0.5-0.1l-5.2-6.8c-0.1-0.1-0.1-0.2-0.2-0.3 c-0.2-0.2-0.3-0.5-0.4-0.8l-4.8-14l0,0v-0.2c0.8-0.1,1.8-0.3,3.1-0.8c0,0,10.4-8.4,10.4-8.4c1-1.1,1-3,0-4.2l-6.3-8.3l0.4-0.3 c0,0-1.6-3.7-8.5-5.9c-0.3-0.1-0.7-0.2-1-0.3c-1.6-0.4-3.4-0.8-5.5-1v-2c0,0,0.1,0,0.1,0c3.9-0.2,5.2-1,6.8-2.8 c0.2-0.2,0.4-0.4,0.7-0.4c0.5,0,1.3-0.1,1.9-0.5c0.2-0.1,0.3-0.3,0.5-0.4c-0.4-0.1-1-0.3-1.4-1.1c-0.6-1.2,0.1-2.3,1.3-3.5 c1.3-1.3,3.3-5.6,1.5-9.7c0.1-0.4,0.3-0.7,0.4-1.1c0.9-3.5-0.3-6.2-0.8-7.1c-1-1.5-3.4-3.6-5.1-3.3c0-0.5-0.1-0.9-0.2-1.3 c1.7-1.4,3.3-3,4.3-4.6c1.9-3.3,1.6-7.5,1.2-9.8c0-0.1,0-0.1-0.1-0.1c0-0.1-0.1-0.2-0.1-0.3c0,0,0-0.1-0.1-0.1 c-0.1-0.1-0.2-0.2-0.3-0.3c0,0-0.1,0-0.1-0.1c-0.1-0.1-0.2-0.2-0.4-0.2c0,0,0,0-0.1,0C48.6,4,48.5,4,48.3,4c0,0,0,0,0,0 c0,0-0.1,0-0.1,0c0,0-0.1,0-0.1,0c-0.1,0-0.2,0-0.3,0.1c-1.1,0.4-2.6,1.1-4.1,2c-1.1,0.7-2.2,1.6-3,2.7c-0.3,0.4-0.6,0.8-0.8,1.2 c-1,1.7-1.6,4-1.9,6.3c-2.8,0-5.5,0.9-7.1,1.6c-0.3-2.7-0.9-5.7-2.1-7.8c-1.9-3.3-5.7-5.1-7.9-5.9c0,0-0.1,0-0.1,0 c-0.1,0-0.1,0-0.2-0.1c0,0-0.1,0-0.1,0c0,0-0.1,0-0.1,0c0,0,0,0,0,0c-0.2,0-0.3,0-0.5,0.1c0,0-0.1,0-0.1,0c-0.1,0-0.2,0.1-0.3,0.2 c0,0-0.1,0-0.1,0.1c-0.1,0.1-0.2,0.2-0.3,0.3c0,0.1-0.1,0.1-0.1,0.2c0,0.1-0.1,0.2-0.1,0.3c0,0,0,0.1,0,0.1 c-0.4,2.3-0.7,6.5,1.2,9.8c0.7,1.3,1.8,2.5,3.1,3.6c-0.2,1.2,0.5,2.4,0.5,2.4s-2.7-0.2-3.8,2.1c-1.2,2.4-0.1,4.3-0.1,4.3 s-2.6,1.6-1.6,4.6c0.1,0.3,0.2,0.5,0.4,0.8c-1.5,3.9,0.5,8,1.7,9.3c1.2,1.2,1.9,2.3,1.3,3.5c-0.4,0.8-1,1-1.5,1.1 c0.1,0.2,0.3,0.3,0.5,0.4c0.6,0.4,1.4,0.5,1.9,0.5c0.3,0,0.5,0.2,0.7,0.4c1.6,1.8,2.9,2.5,6.6,2.8c0.1,0,0.2,0.1,0.3,0.1v1.9 c-0.5,0-1,0.1-1.5,0.1c0,0,0,0,0,0c-0.5,0.1-0.9,0.1-1.4,0.2c0,0,0,0-0.1,0c-10.6,1.6-12.1,6.9-12.1,6.9l0.6,0.5L9.2,69 c-1,1.2-1.1,3,0,4.2c0,0,10.3,8.4,10.4,8.4c1,0.4,1.9,0.6,2.6,0.7c0,0,0,0,0,0v0.3l0.1,0.1l6.2,36.5c-0.9,0.8-1.6,1.8-2,3 c-0.2,0.8,0.3,1.7,1.1,1.8H32h4.4c0.8,0,1.4-0.8,1.2-1.6c-0.1-0.3-0.2-0.7-0.4-1c0-0.1-0.1-0.2-0.2-0.3c-0.1-0.2-0.2-0.4-0.4-0.6 c0-0.1-0.1-0.1-0.2-0.2c-0.2-0.2-0.3-0.4-0.5-0.6c0,0-0.1-0.1-0.1-0.1c-0.2-0.2-0.5-0.4-0.7-0.6c0,0,0,0,0,0l-0.8-29.3 c0.8,0,1.5-0.2,2.2-0.5l6.4,11.9c0.3,0.6,0.8,1.1,1.2,1.5l0.1,0l0.7,0.6l6.2,5.4c0,0.1,0,0.2,0,0.3c-0.1,1.2,0.3,2.4,1.1,3.2 c2.6,2.6,5.4,5.2,7.8,5.8c0.4,0.1,0.8,0.1,1.2,0.1c0,0,0,0,0.1,0c0,0,0,0,0,0c0.1,0,0.2,0,0.3,0c0.1,0,0.1,0,0.2,0 c0.1,0,0.2,0,0.3,0c0.1,0,0.1,0,0.2,0c0.8-0.2,1.5-0.5,1.8-0.8c0.2-0.2,0.3-0.4,0.4-0.7c0.4-0.8,0.6-2,0.3-3.4 C64.8,112.9,64.7,112.6,64.5,112.2z M30,55.1c0.5,1.6,2,2.7,3.9,2.7h0.8c1.8,0,3.3-1.1,3.8-2.6c2.1,0.2,3.8,0.5,5.3,0.9 c-1.2,2.4-4.4,5-9.5,5c-5.2,0-8.6-2.7-9.6-5.2C26.1,55.5,27.9,55.2,30,55.1z M46.2,72.9v-5.7l0.1-0.1h0.1l1.8-1.7l5.4,5l-5.1,4.2 L46.2,72.9z M22.2,67.2l0,5.9l-1.7,1.7l-5.2-4.3l5.2-4.9L22.2,67.2z M58.9,69.6C58.9,69.6,58.9,69.7,58.9,69.6 c0.7,0.8,0.7,2.1,0.1,2.8c-2.7,2.2-9.3,7.5-10.2,8.3c-1,0.4-1.8,0.6-2.6,0.7c-0.2,0-0.4,0-0.5,0c-0.6,0-1-0.1-1.2-0.2 c0-0.2,0.1-0.4,0-0.6c-0.1-0.4-0.3-0.6-0.5-0.8c0-0.1,0.1-0.1,0.1-0.2c0.3-0.6,0.1-1.4-0.4-1.8c0,0,0,0,0,0 c0.5-0.5,0.6-1.3,0.3-1.9c0.3-0.1,0.8-0.2,1.3-0.2c0,0,0,0,0.1,0c0,0,0,0,0,0c0.1,0,0.2,0,0.4,0c0.2,0,0.4,0,0.5,0 c0.2,0,0.4,0,0.6,0c0.3,0,0.5,0,0.8,0.1c0.3,0,0.5,0,0.7,0c0,0,0,0,0,0c0.2,0,0.5-0.1,0.6-0.2l0.1-0.1l5.1-4.2 c0.2-0.2,0.3-0.5,0.4-0.7c0-0.3-0.1-0.6-0.3-0.8l-5.3-5l3.7-3.5L58.9,69.6z M20.3,38.8c0-0.5,0.1-1,0.3-1.5c0.2,2,0.7,3.2,0.9,3.6 c0.1,0.2,0.1,0.5,0.1,0.7C20.9,41.1,20.3,40,20.3,38.8z M21.7,9.4c0.1-0.5,0.5-0.7,1-0.5c1,0.4,2.8,1.3,3.7,2.9 c1,1.8,1.3,4.9,1.3,6.2c0,0.3-0.3,0.5-0.5,0.3c-1.1-0.7-3.7-2.4-4.7-4.2C21.5,12.5,21.6,10.5,21.7,9.4z M40.9,16.7 c0.1-1.5,0.4-3.6,1.2-4.9c0.9-1.6,2.6-2.5,3.7-2.9c0.4-0.2,0.9,0.1,1,0.5c0.1,1.1,0.2,3-0.7,4.6c-0.8,1.3-2.3,2.6-3.5,3.4 c-0.5,0.3-0.9,0.6-1.2,0.8c-0.2,0.2-0.6,0-0.5-0.3C40.9,17.6,40.9,17.2,40.9,16.7z M47,40.3c0,0.3,0.1,0.5,0.1,0.8 c0-0.1,0.6-1.2,1-2.5c0,0.1,0,0.2,0,0.3c0,1.2-0.6,2.3-1.5,2.9C46.8,41.3,46.9,40.8,47,40.3z M25.9,47.4c-1.1-1.1-1.9-2.5-2.6-4.1 c-0.1-0.3-0.3-0.7-0.4-1c-0.3-1.1-0.6-2.2-0.7-3.4c0.2-1.1,0.5-2.3,0.7-3.4c0.1-0.4,0.1-0.7,0.2-1c0.1-0.8,0.2-1.4,0.1-1.6 c0,0,1.2-0.2,3-0.9c1-0.4,2.3-0.9,3.6-1.7c2.4-1.4,4-2.9,6.6-3.5c4-0.9,4.9,2,4.9,2s3.1-0.6,4.5,3.2c0.1,0.3,0.2,0.7,0.3,1 c0.1,0.6,0.1,1.1,0.2,1.7c0,0.4,0,0.7,0,1.1c0,0.2,0,0.4,0,0.6c0,2.2-0.3,4.1-0.9,5.9c-0.1,0.4-0.2,0.7-0.4,1 c-0.6,1.6-1.5,2.9-2.6,4.1c-1.1,1.2-2.4,2.1-3.8,2.7c-0.3,0.1-0.7,0.3-1,0.4c-1.1,0.4-2.3,0.5-3.5,0.5c-1.2,0-2.3-0.2-3.4-0.5 c-0.3-0.1-0.7-0.2-1-0.4C28.3,49.5,27,48.6,25.9,47.4z M34.2,52c1.2,0,2.4-0.2,3.5-0.5v2.4c0,1.6-1.4,2.9-3.1,2.9h-0.8 c-1.7,0-3.1-1.3-3.1-2.9v-2.4C31.9,51.8,33.1,52,34.2,52z M20,80.8c-0.9-0.7-7.5-6.1-10.2-8.3c-0.6-0.7-0.6-2,0.1-2.8c0,0,0,0,0,0 l6.1-8.1l3.7,3.4l-5.1,4.8c-0.2,0.2-0.3,0.5-0.3,0.8c0,0.3,0.1,0.6,0.4,0.7l5.1,4.3l0.1,0c0.2,0.1,0.4,0.2,0.6,0.2c0,0,0,0,0,0 c0.2,0,0.4,0,0.7,0c0.3,0,0.6-0.1,0.9-0.1c0.1,0,0.2,0,0.2,0c0.2,0,0.5,0,0.7,0c0.1,0,0.2,0,0.4,0c0,0,0,0,0,0c0,0,0,0,0.1,0 c0.5,0,1,0.1,1.3,0.2c-0.3,0.6-0.2,1.3,0.3,1.9c0,0,0,0,0,0c-0.5,0.4-0.7,1.2-0.4,1.8c0,0.1,0.1,0.2,0.1,0.2 c-0.2,0.1-0.4,0.4-0.5,0.8c-0.1,0.2,0,0.4,0,0.6l-0.2,0.2c-0.2,0.1-0.5,0.1-0.9,0.1c-0.3,0-0.6,0-1-0.1C21.5,81.2,20.8,81,20,80.8z M26.8,103.2l-0.3-1.5l-3.1-18.2l8.5,5.6c0.5,0.2,1,0.4,1.5,0.5l0.8,28.9c0,0,0,0,0,0c-0.1-0.1-0.3-0.1-0.5-0.2 c-0.2-0.1-0.4-0.1-0.6-0.2c-0.1,0-0.2,0-0.3,0c-0.3,0-0.5-0.1-0.8-0.1c-0.9,0-1.8,0.2-2.6,0.7L26.8,103.2z M46.6,103.3l-1.7-1.4 c-0.4-0.4-0.8-0.8-1-1.2l-6.5-11.9l8-5.5l0.1,0L50.1,97c0.2,0.5,0.4,0.9,0.7,1.3l0.4,0.5l4.3,5.6c0,0-0.1,0-0.1,0c0,0,0.1,0,0.1,0 l0.7,1l3.1,4c0,0,0.1,0.1,0.1,0.1c0.4,0.4,0.6,1,0.6,1.6c-0.1,0.6-0.4,1.1-1,1.4c-0.3,0.2-0.6,0.2-1,0.2c-0.4,0-0.8-0.1-1.1-0.3 l-4.7-4.1l-0.8-0.7L46.6,103.3z"/>
    <ellipse cx="27.8" cy="38" rx="1.9" ry="2"/>
    <ellipse cx="40.7" cy="38" rx="1.9" ry="2"/>
    <path d="M34.2,48.2c1.9,0,4.1-1.5,4.4-2.1c0.3-0.7-0.4-1.3-1.1-0.9c-1.2,0.7-5.4,0.7-6.6,0c-0.7-0.4-1.5,0.2-1.1,0.9 C30,46.7,32.2,48.2,34.2,48.2z"/>
    <path d="M32.2,42.3c0.2,0.3,0.7,1,1.7,1c1,0,1.6-0.6,1.7-1c0,0,0-0.1,0-0.1c0.1-0.3,0-0.5-0.3-0.6c0,0-0.1,0-0.1,0h-2.8 c0,0-0.1,0-0.1,0C32.2,41.7,32.1,42,32.2,42.3C32.2,42.3,32.2,42.3,32.2,42.3z"/>
    <path d="M28,34.7c1.1,0,1.8,0.4,2.1,0.5c0.3,0.1,0.7,0,0.8-0.2c0.1-0.2,0.1-0.4,0-0.6c0,0,0,0,0,0c-0.4-0.5-1.2-1.2-2.8-1.2 c-1.6,0-2.5,0.7-2.8,1.2c0,0,0,0,0,0c-0.2,0.2-0.1,0.5,0,0.6c0.1,0.1,0.4,0.3,0.8,0.2C26.3,35.1,26.9,34.7,28,34.7z"/>
    <path d="M38.7,35.2c0.3-0.1,1-0.5,2.1-0.5c1.1,0,1.8,0.4,2.1,0.5c0.3,0.1,0.7,0,0.8-0.2c0.1-0.2,0.1-0.4,0-0.6c0,0,0,0,0,0 c-0.4-0.5-1.2-1.2-2.8-1.2s-2.5,0.7-2.8,1.2c0,0,0,0,0,0c-0.2,0.2-0.1,0.5,0,0.6C38,35.2,38.3,35.3,38.7,35.2z"/>
    <path d="M120.8,113.2c-0.1-0.3-0.2-0.6-0.3-0.9c-0.9-2.2-3.3-4.5-5.6-6.8c-0.2-0.2-0.4-0.4-0.7-0.5c-0.1,0-0.2-0.1-0.2-0.1 c-0.2-0.1-0.3-0.2-0.5-0.2c-0.1,0-0.2,0-0.3-0.1c-0.2,0-0.3-0.1-0.5-0.1l-5.2-6.8c-0.1-0.1-0.1-0.2-0.2-0.3 c-0.2-0.2-0.3-0.5-0.4-0.8l-4.8-14l0,0v-0.2v0c0.8-0.1,1.8-0.3,3.1-0.8c0,0,10.4-8.4,10.4-8.4c1-1.1,1-3,0-4.1l-6.3-8.3l0.4-0.3 c0,0-1.6-3.7-8.5-5.9c-0.3-0.1-0.7-0.2-1-0.3c-1.6-0.4-3.4-0.8-5.5-1v-2c0,0,0.1,0,0.1,0c3.9-0.2,5.2-1,6.8-2.8 c0.2-0.2,0.4-0.4,0.7-0.4c0.5,0,1.3-0.1,1.9-0.5c0.2-0.1,0.3-0.3,0.4-0.4c-0.4-0.1-1-0.3-1.4-1.1c-0.6-1.2,0.1-2.3,1.3-3.5 c1.3-1.3,3.3-5.6,1.5-9.7c0.1-0.4,0.3-0.7,0.4-1.1c0.9-3.5-0.3-6.2-0.8-7.1c-1-1.5-3.4-3.6-5.1-3.3c0-0.5-0.1-0.9-0.2-1.3 c1.7-1.4,3.3-3,4.3-4.6c1.9-3.3,1.6-7.5,1.2-9.8c0-0.1,0-0.1-0.1-0.1c0-0.1-0.1-0.2-0.1-0.3c0,0,0-0.1-0.1-0.1 c-0.1-0.1-0.2-0.2-0.3-0.3c0,0-0.1,0-0.1-0.1c-0.1-0.1-0.2-0.2-0.4-0.2c0,0,0,0-0.1,0C104.6,4,104.5,4,104.3,4c0,0,0,0,0,0 c0,0-0.1,0-0.1,0c0,0-0.1,0-0.1,0c-0.1,0-0.2,0-0.3,0.1c-1.1,0.4-2.6,1.1-4.1,2c-1.1,0.7-2.2,1.6-3,2.7c-0.3,0.4-0.6,0.8-0.8,1.2 c-0.4,0.6-0.7,1.3-0.9,2.1c-0.3,0.7-0.5,1.5-0.7,2.3c-0.1,0.6-0.3,1.3-0.3,1.9c-2.8,0-5.5,0.9-7.1,1.6c-0.3-2.7-0.9-5.7-2.1-7.8 c-1.9-3.3-5.7-5.1-7.9-5.9c0,0-0.1,0-0.1,0c-0.1,0-0.1,0-0.2-0.1c0,0-0.1,0-0.1,0c0,0-0.1,0-0.1,0c0,0,0,0,0,0 c-0.2,0-0.3,0-0.5,0.1c0,0-0.1,0-0.1,0c-0.1,0-0.2,0.1-0.3,0.2c0,0-0.1,0-0.1,0.1c-0.1,0.1-0.2,0.2-0.3,0.3c0,0.1-0.1,0.1-0.1,0.2 c0,0.1-0.1,0.2-0.1,0.3c0,0,0,0.1,0,0.1c-0.4,2.3-0.7,6.5,1.2,9.8c0.7,1.3,1.8,2.5,3.1,3.6c-0.2,1.2,0.5,2.4,0.5,2.4 s-2.7-0.2-3.8,2.1c-1.2,2.4-0.1,4.3-0.1,4.3s-2.6,1.6-1.6,4.6c0.1,0.3,0.2,0.5,0.4,0.8c-1.5,3.9,0.5,8,1.7,9.3 c1.2,1.2,1.9,2.3,1.3,3.5c-0.4,0.8-1,1-1.5,1.1c0.1,0.2,0.3,0.3,0.5,0.4c0.6,0.4,1.4,0.5,1.9,0.5c0.3,0,0.5,0.2,0.7,0.4 c1.6,1.8,2.9,2.5,6.6,2.8c0.1,0,0.2,0.1,0.3,0.1v1.9c-0.5,0-1,0.1-1.5,0.1c0,0,0,0,0,0c-0.5,0.1-0.9,0.1-1.4,0.2c0,0,0,0-0.1,0 c-10.6,1.6-12.1,6.9-12.1,6.9l0.6,0.5L65.2,69c-1,1.2-1.1,3,0,4.2c0,0,10.3,8.4,10.4,8.4c1,0.4,1.9,0.6,2.6,0.7c0,0,0,0,0,0v0.3 l0.1,0.1l6.2,36.5c-0.9,0.8-1.6,1.8-2,3c-0.2,0.8,0.3,1.7,1.1,1.8H88h4.4c0.8,0,1.4-0.8,1.2-1.6c-0.1-0.3-0.2-0.7-0.4-1 c0-0.1-0.1-0.2-0.2-0.3c-0.1-0.2-0.2-0.4-0.4-0.6c0-0.1-0.1-0.1-0.2-0.2c-0.2-0.2-0.3-0.4-0.5-0.6c0,0-0.1-0.1-0.1-0.1 c-0.2-0.2-0.5-0.4-0.7-0.6c0,0,0,0,0,0l-0.8-29.3c0.8,0,1.5-0.2,2.2-0.5l6.4,11.9c0.3,0.6,0.8,1.1,1.2,1.5l0.1,0l0.7,0.6l6.2,5.4 c0,0.1,0,0.2,0,0.3c-0.1,1.2,0.3,2.4,1.1,3.2c2.6,2.6,5.4,5.2,7.8,5.8c0.4,0.1,0.8,0.1,1.2,0.1c0,0,0,0,0.1,0c0,0,0,0,0,0 c0.1,0,0.2,0,0.3,0c0.1,0,0.1,0,0.2,0c0.1,0,0.2,0,0.3,0c0.1,0,0.1,0,0.2,0c0.8-0.2,1.5-0.5,1.8-0.8c0.2-0.2,0.3-0.4,0.4-0.7 C120.9,115.8,121.2,114.6,120.8,113.2z M86,55.1c0.5,1.6,2,2.7,3.9,2.7h0.8c1.8,0,3.3-1.1,3.8-2.6c2.1,0.2,3.8,0.5,5.3,0.9 c-1.2,2.4-4.4,5-9.5,5c-5.2,0-8.6-2.7-9.6-5.2C82.1,55.5,83.9,55.2,86,55.1z M102.2,72.9v-5.7l0.1-0.1h0.1l1.8-1.7l5.4,5l-5.1,4.2 L102.2,72.9z M78.2,67.2L78.2,67.2l0,5.9l-1.7,1.7l-5.2-4.3l5.2-4.9L78.2,67.2z M114.9,69.6C114.9,69.6,114.9,69.7,114.9,69.6 c0.7,0.8,0.7,2.1,0.1,2.8c-2.7,2.2-9.3,7.5-10.2,8.3c-1,0.4-1.8,0.6-2.6,0.7c-0.2,0-0.4,0-0.5,0c-0.6,0-1-0.1-1.2-0.2 c0-0.2,0.1-0.4,0-0.6c-0.1-0.4-0.4-0.6-0.5-0.8c0-0.1,0.1-0.1,0.1-0.2c0.3-0.6,0.1-1.4-0.4-1.8c0,0,0,0,0,0 c0.5-0.5,0.6-1.3,0.3-1.9c0.3-0.1,0.8-0.2,1.3-0.2c0,0,0,0,0.1,0c0,0,0,0,0,0c0.1,0,0.2,0,0.4,0c0.2,0,0.4,0,0.5,0 c0.2,0,0.4,0,0.6,0c0.3,0,0.5,0,0.8,0.1c0.3,0,0.5,0,0.7,0c0,0,0,0,0,0c0.2,0,0.5-0.1,0.6-0.2l0.1-0.1l5.1-4.2 c0.2-0.2,0.3-0.5,0.4-0.7c0-0.3-0.1-0.6-0.3-0.8l-5.3-5l3.7-3.5L114.9,69.6z M76.3,38.8c0-0.5,0.1-1,0.3-1.5c0.2,2,0.7,3.2,0.9,3.6 c0.1,0.2,0.1,0.5,0.1,0.7C76.9,41.1,76.3,40,76.3,38.8z M77.7,9.4c0.1-0.5,0.5-0.7,1-0.5c1,0.4,2.8,1.3,3.7,2.9 c1,1.8,1.3,4.9,1.3,6.2c0,0.3-0.3,0.5-0.5,0.3c-1.1-0.7-3.6-2.4-4.7-4.2C77.5,12.5,77.6,10.5,77.7,9.4z M96.9,16.7 c0.1-1.5,0.4-3.6,1.2-4.9c0.9-1.6,2.6-2.5,3.7-2.9c0.4-0.2,0.9,0.1,1,0.5c0.1,1.1,0.2,3-0.7,4.6c-0.8,1.3-2.3,2.6-3.5,3.4 c-0.5,0.3-0.9,0.6-1.2,0.8c-0.2,0.2-0.6,0-0.5-0.3C96.9,17.6,96.9,17.2,96.9,16.7z M103,40.3c0,0.3,0.1,0.5,0.1,0.8 c0-0.1,0.6-1.2,1-2.5c0,0.1,0,0.2,0,0.3c0,1.2-0.6,2.3-1.5,2.9C102.8,41.3,102.9,40.8,103,40.3z M81.9,47.4 c-1.1-1.1-1.9-2.5-2.6-4.1c-0.1-0.3-0.3-0.7-0.4-1c-0.3-1.1-0.6-2.2-0.7-3.4c0.2-1.1,0.5-2.3,0.7-3.4c0.1-0.4,0.1-0.7,0.2-1 c0.1-0.8,0.2-1.4,0.1-1.6c0,0,1.2-0.2,3-0.9c1-0.4,2.3-0.9,3.6-1.7c2.4-1.4,4-2.9,6.6-3.5c4-0.9,4.9,2,4.9,2s3.1-0.6,4.5,3.2 c0.1,0.3,0.2,0.7,0.3,1c0.1,0.6,0.1,1.1,0.2,1.7c0,0.4,0,0.7,0,1.1c0,0.2,0,0.4,0,0.6c0,2.2-0.3,4.1-0.9,5.9 c-0.1,0.4-0.2,0.7-0.4,1c-0.6,1.6-1.5,2.9-2.6,4.1c-1.1,1.2-2.4,2.1-3.8,2.7c-0.3,0.1-0.7,0.3-1,0.4c-1.1,0.4-2.3,0.5-3.5,0.5 c-1.2,0-2.3-0.2-3.4-0.5c-0.3-0.1-0.7-0.2-1-0.4C84.3,49.5,83,48.6,81.9,47.4z M90.2,52c1.2,0,2.4-0.2,3.5-0.5v2.4 c0,1.6-1.4,2.9-3.1,2.9h-0.8c-1.7,0-3.1-1.3-3.1-2.9v-2.4C87.9,51.8,89.1,52,90.2,52z M76,80.8c-0.9-0.7-7.5-6.1-10.2-8.3 c-0.6-0.7-0.6-2,0.1-2.8c0,0,0,0,0,0l6.1-8.1l3.7,3.4l-5.1,4.8c-0.2,0.2-0.3,0.5-0.3,0.8c0,0.3,0.1,0.6,0.4,0.7l5.1,4.3l0.1,0 c0.2,0.1,0.4,0.2,0.6,0.2c0,0,0,0,0,0c0.2,0,0.4,0,0.7,0c0.3,0,0.6-0.1,0.9-0.1c0.1,0,0.2,0,0.2,0c0.2,0,0.5,0,0.7,0 c0.1,0,0.2,0,0.4,0c0,0,0,0,0,0c0,0,0,0,0.1,0c0.5,0,1,0.1,1.3,0.2c-0.3,0.6-0.2,1.3,0.3,1.9c0,0,0,0,0,0c-0.5,0.4-0.7,1.2-0.4,1.8 c0,0.1,0.1,0.2,0.1,0.2c-0.2,0.1-0.4,0.4-0.5,0.8c-0.1,0.2,0,0.4,0,0.6l-0.2,0.2c-0.2,0.1-0.5,0.1-0.9,0.1c-0.3,0-0.6,0-1-0.1 C77.5,81.2,76.8,81,76,80.8z M82.7,103.2l-0.2-1.5l-3.1-18.3l8.5,5.6c0.5,0.2,1,0.4,1.5,0.5l0.8,28.9c0,0,0,0,0,0 c-0.1-0.1-0.3-0.1-0.4-0.2c-0.2-0.1-0.4-0.1-0.6-0.2c-0.1,0-0.2,0-0.3,0c-0.3,0-0.5-0.1-0.8-0.1c-0.9,0-1.8,0.2-2.6,0.7L82.7,103.2 z M102.6,103.3l-1.7-1.5c-0.4-0.4-0.8-0.8-1-1.2l-6.4-11.9l8-5.5l0.1,0l4.7,13.7c0.2,0.5,0.4,0.9,0.7,1.3l0.4,0.5l4.3,5.6 c0,0-0.1,0-0.1,0c0,0,0.1,0,0.1,0l0.7,1l3.1,4c0,0,0.1,0.1,0.1,0.1c0.4,0.4,0.6,1,0.6,1.6c-0.1,0.6-0.4,1.1-1,1.4 c-0.3,0.2-0.6,0.2-1,0.2c-0.4,0-0.8-0.1-1.1-0.3l-4.7-4.1l-0.8-0.7L102.6,103.3z"/>
    <ellipse cx="83.8" cy="38" rx="1.9" ry="2"/>
    <ellipse cx="96.7" cy="38" rx="1.9" ry="2"/>
    <path d="M90.2,48.2c1.9,0,4.1-1.5,4.4-2.1c0.3-0.7-0.4-1.3-1.1-0.9c-1.2,0.7-5.4,0.7-6.6,0c-0.7-0.4-1.5,0.2-1.1,0.9 C86,46.7,88.2,48.2,90.2,48.2z"/>
    <path d="M88.2,42.3c0.2,0.3,0.7,1,1.7,1c1,0,1.6-0.6,1.7-1c0,0,0-0.1,0-0.1c0.1-0.3,0-0.5-0.3-0.6c0,0-0.1,0-0.1,0h-2.8 c0,0-0.1,0-0.1,0C88.2,41.7,88.1,42,88.2,42.3C88.2,42.3,88.2,42.3,88.2,42.3z"/>
    <path d="M84,34.7c1.1,0,1.8,0.4,2.1,0.5c0.3,0.1,0.7,0,0.8-0.2c0.1-0.2,0.1-0.4,0-0.6c0,0,0,0,0,0c-0.4-0.5-1.2-1.2-2.8-1.2 c-1.6,0-2.5,0.7-2.8,1.2c0,0,0,0,0,0c-0.2,0.2-0.1,0.5,0,0.6c0.1,0.1,0.4,0.3,0.8,0.2C82.3,35.1,82.9,34.7,84,34.7z"/>
    <path d="M94.7,35.2c0.3-0.1,1-0.5,2.1-0.5c1.1,0,1.8,0.4,2.1,0.5c0.3,0.1,0.6,0,0.8-0.2c0.1-0.2,0.1-0.4,0-0.6c0,0,0,0,0,0 c-0.4-0.5-1.2-1.2-2.8-1.2s-2.5,0.7-2.8,1.2c0,0,0,0,0,0c-0.2,0.2-0.1,0.5,0,0.6C94,35.2,94.3,35.3,94.7,35.2z"/>
  </g>
</svg>