<svg width="128" height="128" xmlns="http://www.w3.org/2000/svg">
  <g>
    <path d="M122.8,100.8c-0.9-1-2.1-1.6-3.4-1.7l-0.4,0l-0.5,0h0l-0.2,0l-0.2,0l0,0c-0.2,0-0.3-0.1-0.5-0.1 c-0.1,0-0.2-0.1-0.3-0.1c0,0-0.1-0.1-0.2-0.1c0,0,0,0-0.1,0c0,0-0.1-0.1-0.1-0.1c0,0-0.3-0.2-0.7-1.2c-0.3-0.8-0.6-1.9-0.7-3.1 c-0.2-1.5-0.2-3.1-0.2-4.6c0-0.5,0-1,0-1.5c0-1.3,0-2.6,0-4c0-2.3-0.2-4.3-0.5-6.2c-0.3-2-0.8-4.1-1.5-6.1 c-0.5-1.7-1.3-3.7-2.1-5.5c-0.8-1.9-2-3.7-3.5-5.3c-1.2-1.4-2.7-2.6-4.3-3.7c-0.6-0.4-1.3-0.8-2-1.1c-3.2-3-7.5-5-13.1-5.5 c-4.7-0.4-9.7-0.6-14.6-0.6c-2.6,0-5.2,0-7.7,0.1c0.1-0.6,0.3-1.3,0.4-2l0,0c0-0.1,0-0.3,0.1-0.4c0.3-1.6,0.4-3.4,0.4-5.1 c0,0,0,0,0,0c0-0.1,0-0.1,0-0.2c0,0,0,0,0-0.1c0,0,0,0,0,0s0,0,0,0c0-1.2-0.1-2.3-0.2-3.4c0,0,0,0,0,0c-0.1-0.6-0.1-1.1-0.2-1.7 l0,0c-0.2-1.2-0.4-2.4-0.7-3.5l0,0c-0.4-1.6-1-3.2-1.6-4.6c2.8-1.9,4.7-5.2,4.7-8.8c0-5.9-4.8-10.7-10.6-10.7 c-3.8,0-7.2,2-9.1,5.1c-1.8-0.8-3.8-1.4-5.8-1.8c-2.4-0.5-4.9-0.8-7.4-0.8c-4.6,0-9.1,0.9-13.1,2.6c-1.9-3-5.2-5-9-5 c-5.9,0-10.6,4.8-10.6,10.7c0,3.7,1.9,6.9,4.7,8.8c-0.6,1.5-1.2,3-1.6,4.6c-0.3,1.1-0.5,2.3-0.7,3.5c-0.1,0.6-0.1,1.1-0.2,1.7 c-0.1,1.1-0.2,2.3-0.2,3.4c0,0.1,0,0.2,0,0.2c0,0.7,0,1.3,0.1,1.9c0.1,1.3,0.2,2.5,0.4,3.6c1.6,10,7.5,17.1,15.2,20.9 c0,0,0,0,0,0.1c0.1,0.6,0.3,1.2,0.5,1.9c0.5,1.8,1.1,3.8,2,6c0,0,0,0,0,0c-0.9,14.8,3.9,21,8.4,27c-0.3,1.9-0.6,3.6-0.7,5 c-0.6-0.1-1.4-0.2-2.2-0.1c-1.3-0.3-4.3-0.3-6.7,1.2c-1.4,0.9-3.1,2.7-3.3,6.3c-0.3,4.5,1.9,7.8,5.2,8.1c2,0.1,2.9-0.1,3.5-0.4 c0.7,0.4,1.8,0.9,3.9,0.9c0.1,0,0.2,0,0.4,0c1.7-0.1,2.5-0.5,3.1-0.7c0.3-0.2,0.5-0.2,0.8-0.2c0.4,0,0.8,0.2,1.3,0.4 c0.8,0.3,1.6,0.6,2.6,0.5c1.8-0.3,3.4-1.4,4.5-2.9c4.1-1.3,8.1-3,8.6-5.1c0.5-2.1,0-4.4-1.4-7c-0.4-0.8-0.9-1.6-1.4-2.4 c-0.3-0.5-0.6-1-0.9-1.5c0.9-2.2,1.8-4.7,2.7-7.2c0,0,0,0,0,0l0,0c2,0.2,4.1,0.3,6.2,0.3c8.1,0,16.3-1.6,22.5-3.4 c0.3,0.8,0.6,1.5,0.7,2.3c0.7,3.4-0.4,9.3-2.1,11.3c-0.2,0.3-0.6,0.6-0.9,0.6c0,0,0,0,0,0c-2.2,0-3.8,0.5-4.9,1.6 c-1.7,1.8-1.7,4.9-1.5,7.9c0.3,4.3,4.6,4.9,8,4.9c0.9,0,1.7,0,2.3-0.1c0.5,0,0.9,0,1.3,0c0.8,0,1.7,0,2.7-0.1 c0.7,0.4,1.5,0.7,2.6,0.7c0.2,0,0.3,0,0.5-0.1c0,0,1-0.5,2.1-0.4c0.3,0,0.3,0,0.6,0.2c0.7,0.4,1.5,0.7,3.8,0.8c0.1,0,0.2,0,0.2,0 c1.7,0,2.7-0.6,3.2-1c0.6,0,1.1,0.1,1.6,0.3c1.1,0.3,2.2,0.5,4-0.6c2.4-1.4,3.8-5,3.7-7.4c-0.1-1.5-0.5-2.8-1.1-3.9 c0.8-2.6,1.4-5.7,1.4-9.5c0-0.4,0-0.9,0-1.3c0,0,0,0.1,0,0.1c1.5,3.3,3.8,5.4,6.6,6.3c0.9,0.3,2,0.5,3,0.5c3.4,0,5.6-1.8,5.8-4.6 C124.1,103,123.6,101.8,122.8,100.8z M58.2,14.8c3,0,5.5,2.5,5.5,5.5c0,1.8-0.8,3.3-2.1,4.3c-2.1-3-4.8-5.6-7.9-7.5 C54.7,15.7,56.3,14.8,58.2,14.8z M8.3,20.3c0-3,2.5-5.5,5.5-5.5c1.8,0,3.5,0.9,4.5,2.3c-3.1,1.9-5.7,4.5-7.9,7.5 C9.1,23.6,8.3,22.1,8.3,20.3z M20.3,66.6C14,63,9.1,56.8,7.6,48l5-0.7c0.4-0.1,0.7-0.3,0.7-0.7c0.1-0.5-0.3-0.9-0.7-1l-5.4-0.7 c-0.1-0.8-0.1-1.6-0.1-2.4l5.5-0.8c0.4-0.1,0.7-0.3,0.7-0.7c0.1-0.5-0.3-0.9-0.7-1l-5.3-0.7c0.1-0.8,0.2-1.5,0.3-2.2l5-0.7 c0.4-0.1,0.7-0.3,0.7-0.7c0.1-0.5-0.3-0.9-0.7-1L8.2,34c0.4-1.4,0.8-2.7,1.4-3.9c0.3-0.6,0.6-1.2,0.9-1.8 c0.5-0.9,1.1-1.9,1.7-2.7c1.1-1.5,2.3-2.9,3.8-4.2c1-0.9,2.1-1.7,3.2-2.4c0.9-0.6,1.8-1.1,2.8-1.6c0.6-0.3,1.2-0.6,1.8-0.8 c3.7-1.5,7.9-2.3,12.3-2.3c4.3,0,8.5,0.8,12.2,2.4c0.6,0.3,1.2,0.5,1.8,0.8c1,0.5,1.9,1,2.8,1.6c1.1,0.7,2.2,1.6,3.2,2.5 c1.4,1.3,2.6,2.6,3.7,4.1c0.6,0.9,1.2,1.8,1.7,2.7c0.3,0.6,0.6,1.2,0.9,1.8c0.6,1.3,1,2.6,1.4,3.9l-4.2,0.6 c-0.4,0.1-0.7,0.3-0.7,0.7c-0.1,0.5,0.3,0.9,0.7,1l4.9,0.7c0.1,0.7,0.2,1.5,0.3,2.3L59.5,40c-0.4,0.1-0.7,0.3-0.7,0.7 c-0.1,0.5,0.3,0.9,0.7,1l5.3,0.7c0,0,0,0,0,0c0,0.8,0,1.6-0.1,2.4l-5.2,0.7c-0.4,0.1-0.7,0.3-0.7,0.7c-0.1,0.5,0.3,0.9,0.7,1 l4.9,0.7c-0.1,0.8-0.3,1.6-0.5,2.3c-0.2,0.7-0.4,1.4-0.6,2c-1.2,3.6-3.1,6.8-5.7,9.5c-0.5,0.5-1,1-1.5,1.5 c-5.2,4.7-12.4,7.3-20.1,7.3c-4.8,0-9.8-1.1-14.2-3.3C21.3,67.1,20.8,66.9,20.3,66.6z M25.3,81.5c1.9,3.9,4.5,8.2,8,12.7 c-0.2,1.5-0.4,3.1-0.6,5c-0.1,0.8-0.3,1.6-0.4,2.4C28.6,96.6,25.5,91.5,25.3,81.5z M39.3,123.1c-0.4,0.1-1-0.1-1.6-0.4 c-0.6-0.2-1.2-0.5-1.8-0.5c-0.9-0.1-1.4,0.2-1.8,0.4c-0.5,0.2-0.9,0.5-2.2,0.5c-1.9,0.1-2.7-0.4-3.3-0.7 c-0.2-0.1-0.4-0.2-0.6-0.3c-0.1,0-0.2-0.1-0.3-0.1c0,0-0.1,0-0.1,0c-0.3,0-0.5,0.2-0.6,0.3c-0.2,0.1-0.6,0.4-2.6,0.3 c-2.5-0.2-3.5-3.2-3.4-6c0.1-2.2,0.9-3.7,2.4-4.7c0.8-0.5,1.6-0.8,2.4-0.9c-1.9,2.4-2.2,5.4-0.9,8.1c0.2,0.4,0.5,0.6,0.9,0.6 c0.1,0,0.3,0,0.4-0.1c0.5-0.2,0.7-0.8,0.5-1.3c-1.2-2.3-0.6-4.9,1.4-6.8c0.1-0.1,0.2-0.3,0.3-0.5c0.1,0,0.1,0,0.2,0 c0.1,0.1,0.3,0.1,0.5,0.1c0.7-0.1,1.4,0,1.9,0.1c-0.8,0.7-1.5,1.5-1.8,2.8c-0.5,1.8-0.2,3.8,0.6,5.5c0.2,0.4,0.5,0.6,0.9,0.6 c0.1,0,0.3,0,0.4-0.1c0.5-0.2,0.7-0.8,0.5-1.3c-0.6-1.2-0.8-2.7-0.4-4.1c0.3-1.2,0.9-1.6,2-2.4l0.2-0.1c0.2-0.1,0.3-0.3,0.3-0.4 c0.6,0,1.1,0,1.5,0c2.9-0.1,3.4-0.1,3.5-0.1c1.2,0.2,2.3,0.5,3.1,1.1c1.5,1.1,2.5,3.1,2.4,4.9C43.8,119.8,41.8,122.7,39.3,123.1z M48.3,108.7c0.5,0.7,0.9,1.5,1.3,2.2c1.2,2.1,1.5,4,1.2,5.6c-0.2,0.7-2.1,1.8-5.3,3c0.2-0.7,0.4-1.4,0.4-2 c0.1-1.2-0.2-2.4-0.7-3.5c0.3-0.5,0.5-1,0.8-1.5c0.6-1,1.3-2.4,2-4C48.1,108.5,48.2,108.6,48.3,108.7z M79.6,94.1 c-6.3,1.8-14.2,3.2-21.7,3.2c-1.9,0-3.7-0.1-5.5-0.3c1.5-4.4,2.7-8.4,3.4-10.6c0.2-0.5-0.2-1.1-0.7-1.2c-0.5-0.2-1.1,0.2-1.2,0.7 c-0.2,0.5-0.3,1.2-0.5,1.8l-6.9,0l-0.5,0c-0.7,0-1.2,0.3-1.4,0.7c-0.3,0.5-0.3,1.1,0.1,1.5c0.1,0.2,0.3,0.3,0.5,0.4l1.5,0.8 l4.9,2.4c0,0,0,0,0,0c-0.2,0.7-0.5,1.4-0.7,2.2c0,0,0,0-0.1,0l-4.1,0l-2,0l-1.3,0c-1.7,0-2.3,2-0.9,2.7l2.4,1.2l2.2,1.1l1.5,0.8 c-0.3,0.7-0.5,1.4-0.8,2c-0.1,0.2-0.2,0.4-0.3,0.7l-1.7-0.1l-4.9-0.4c-1.7-0.1-2.5,1.8-1.2,2.6l5.3,3.4c-0.4,0.8-0.8,1.6-1.1,2.2 c-0.4-0.4-0.8-0.8-1.3-1.2c-1.1-0.8-2.5-1.3-4-1.5c0,0,0,0,0,0c-0.1,0-0.4-0.1-2.6,0c-0.4,0-0.8,0-1.2,0.1c-0.2,0-0.5,0-0.8,0 c-0.4,0-0.7,0-1.1,0c0.1-0.8,0.2-1.8,0.4-2.8c0.1-1,0.3-2,0.5-3c0.1-0.4,0.1-0.7,0.2-1c0.1-0.7,0.2-1.3,0.3-2 c0-0.1,0.1-0.1,0.1-0.2c0-0.3,0.1-0.7,0.1-1c0.3-1.7,0.5-3.4,0.7-4.9c0-0.2,0-0.5,0-0.7c0.3-2.5,0.5-4.8,0.8-7.8l0.2-1.7 c0.1-0.5-0.4-1-0.9-1.1c-0.6-0.1-1,0.4-1.1,0.9l-0.2,1.7c-0.2,2-0.4,3.7-0.5,5.3c-3.7-5.1-6.2-9.8-7.9-13.9 c-0.3-0.6-0.5-1.3-0.7-1.9c-0.7-1.9-1.3-3.7-1.7-5.2c0.1,0.1,0.3,0.1,0.4,0.2c3.9,1.5,8.1,2.3,12.4,2.3c2,0,4-0.2,5.9-0.5 c5.4-0.9,10.5-3.2,14.6-6.6c4-3.3,7.2-7.8,8.9-13.4c2.7-0.1,5.5-0.2,8.2-0.2c5.3,0,10.1,0.2,14.5,0.6c1.8,0.2,3.4,0.5,4.9,1 c0.1,0,0.2,0.1,0.3,0.1l-0.2,1.9l-0.4,3.8l-0.2,2l-0.1,0.9c-0.2,1.7,2,2.3,2.7,0.8l0.4-0.8l0.9-1.8l1.8-3.6l0.3-0.6 c0.6,0.5,1.2,0.9,1.8,1.5c3.4,3.3,5.5,8,5.9,13.8c0.1,1.1,0.1,2.3,0.1,3.5c-0.1,4.4-0.1,8.4,0,12l-0.3,0.1l-6.2,1.5 c-1.9,0.5-1.7,2.1,0.3,2.3l6.1,0.6c0.1,0.8,0.2,1.6,0.3,2.4c0,0.3,0,0.6,0,0.9l-6.1,1.1c-1.8,0.3-1.7,1.9,0.1,2.1l6.1,0.8 c0,1.3,0.1,2.5,0.1,3.6l-6,0.8c-1.9,0.2-2,1.8-0.2,2.2l6,1.2c-0.2,1.6-0.4,3-0.7,4.3c-0.3-0.3-0.7-0.5-1.1-0.7 c-1.1-0.7-2.3-0.8-3.4-0.9c0,0,0,0,0,0c-1.2-0.1-2.3,0.1-3.4,0.3c-0.4,0.1-0.7,0.1-1,0.2c-0.2,0-0.3,0-0.5,0c-0.2,0-0.4,0-0.5,0 c0,0,0,0,0,0c-0.8-0.1-1.5-0.2-1.9-0.2c-0.7-0.1-1.1-0.1-1.4-0.1c1-5.2,1-11.5-4.1-17.3c-0.4-0.5-0.9-0.7-1.5-0.7 c-0.3,0-0.5,0-0.8,0.2c-1.3,0.5-2.8,1.1-4.4,1.6C80.9,93.7,80.3,93.9,79.6,94.1z M83.4,122.4c-0.4,0-0.8,0-1.4,0 c-3.9,0.2-8.1,0.2-8.3-3c-0.2-3-0.1-5.3,1-6.4c0.7-0.7,1.8-1,3.4-0.9c0.6,0,1.6-0.2,2.5-1.3c2.3-2.8,3.3-9.4,2.5-13 c-0.2-0.9-0.4-1.7-0.8-2.5c1.7-0.5,3.2-1.1,4.4-1.6c4.6,5.3,4.6,11,3.5,15.9c-1.2,0.1-2.7,0.4-4,1.4c-1.8,1.3-2.7,3.4-2.7,6.2 c0,1.1,0,3.3,0.9,5.1C84.1,122.4,83.8,122.4,83.4,122.4z M103.6,122.4c-1.2,0.7-1.6,0.6-2.6,0.4c-0.6-0.1-1.4-0.3-2.4-0.3 c-0.3,0-0.6,0.1-0.8,0.4c0,0-0.7,0.7-2.2,0.7c-2-0.1-2.5-0.3-2.8-0.5c-0.3-0.2-0.7-0.4-1.5-0.5c-0.1,0-0.2,0-0.2,0 c-1.1,0-2.1,0.3-2.6,0.5c-1.5-0.1-2.9-0.9-2.9-5.7c0-2.1,0.6-3.6,1.8-4.5c0.7-0.6,1.5-0.8,2.2-1c-1.3,2.2-1.4,4.9-0.1,7.5 c0.2,0.4,0.5,0.6,0.9,0.6c0.1,0,0.3,0,0.4-0.1c0.5-0.2,0.7-0.8,0.5-1.3c-1.2-2.4-0.9-5,0.9-6.7c0,0,0,0,0,0c0,0,0,0,0,0 c0.2,0,1.1,0.1,2,0.2c-0.3,0.5-0.5,1-0.6,1.7c-0.4,1.7-0.2,3.8,0.6,5.5c0.2,0.4,0.5,0.6,0.9,0.6c0.1,0,0.3,0,0.4-0.1 c0.5-0.2,0.7-0.8,0.5-1.3c-0.6-1.3-0.8-2.9-0.5-4.1c0.3-1.1,0.5-1.5,1.4-2.2c0.4-0.1,0.8-0.1,1.3-0.2c1-0.2,2-0.4,2.9-0.3 c1.1,0.1,1.9,0.2,2.6,0.6c1.8,1,2.6,2.4,2.7,4.8C106.4,118.9,105.2,121.5,103.6,122.4z M110.4,101.3c-1.1-2.2-1.7-4.7-2-7.3 c-0.2-5.2-0.3-11.5-0.1-18.8c0.1-4.9-0.8-9.7-2.9-13.6c0.2,0.2,0.5,0.5,0.7,0.7c1.2,1.4,2.3,3,3.2,4.8c0.7,1.6,1.5,3.4,2,5.3 c0.6,1.9,1.1,3.8,1.4,5.8c0.3,2,0.5,4,0.5,5.9c0,1.9,0,3.7,0,5.5c0,1.7,0,3.3,0.2,4.8c0.1,1.4,0.4,2.7,0.8,3.7 c0.4,1,0.9,1.7,1.4,2c0.1,0.1,0.3,0.2,0.4,0.3c0.1,0.1,0.2,0.1,0.3,0.2c-0.2,0.1-0.3,0.2-0.5,0.3c-0.8,0.6-1.6,0.9-2.1,1.8 c-0.5,0.9-0.7,1.7-0.5,2.4C111.9,104,111.1,102.7,110.4,101.3z"/>
    <path d="M71.7,61.1c0.2,1.8,2.1,1.8,2.3,0l1.2-9c-1.6,0-3.1,0-4.6,0L71.7,61.1z"/>
    <path d="M84.8,61.2l1.4-8.7c-1.7-0.1-3.5-0.2-5.3-0.3l1.3,9C82.5,63,84.5,63,84.8,61.2z"/>
    <ellipse cx="21" cy="38.5" rx="5" ry="5.6"/>
    <path d="M51,44c0.6,0,1.2-0.1,1.7-0.3c1.9-0.8,3.3-2.8,3.3-5.3c0-3.1-2.2-5.6-5-5.6s-5,2.5-5,5.6c0,0.1,0,0.2,0,0.3 C46.3,41.7,48.4,44,51,44z"/>
    <path d="M38.7,31.3c-0.3-0.2-0.7-0.4-1.2-0.6c-0.2-0.1-0.5-0.2-0.8-0.2c-0.3,0-0.5-0.1-0.8-0.1c-0.3,0-0.5,0-0.8,0.1 c-0.3,0-0.5,0.1-0.7,0.2c-0.5,0.2-0.9,0.4-1.2,0.6c-0.2,0.1-0.3,0.2-0.4,0.3c-0.1,0.1-0.2,0.2-0.3,0.3c-0.1,0.2-0.2,0.2-0.2,0.2 c-0.1,0.2-0.2,0.4-0.1,0.7c0.1,0.5,0.6,0.9,1.1,0.8c0,0,0.1,0,0.3-0.1c0.1,0,0.2,0,0.3-0.1c0.1,0,0.2,0,0.3,0 c0.2,0,0.5-0.1,0.8-0.1c0.3,0,0.6,0,0.9,0c0.3,0,0.6,0,0.9,0c0.1,0,0.3,0,0.4,0c0.1,0,0.3,0,0.4,0.1c0.3,0,0.5,0.1,0.6,0.1 c0.2,0,0.3,0,0.3,0l0.2,0c0.2,0,0.4,0,0.6-0.2c0.4-0.3,0.5-0.9,0.2-1.3c0,0-0.1-0.1-0.2-0.3C39.3,31.7,39.1,31.5,38.7,31.3z"/>
    <path d="M41.3,28l0.1,0c0.3,0.1,0.6,0,0.8-0.2c0.4-0.3,0.5-0.9,0.2-1.3c0,0-0.1-0.2-0.4-0.5 c-0.1-0.2-0.3-0.3-0.5-0.5c-0.2-0.2-0.5-0.4-0.7-0.5c-0.3-0.2-0.6-0.4-0.9-0.5c-0.4-0.2-0.7-0.3-1.1-0.5 c-0.4-0.1-0.8-0.2-1.3-0.3c-0.4-0.1-0.9-0.1-1.4-0.1c-0.5,0-0.9,0-1.4,0.1c-0.5,0.1-0.9,0.2-1.3,0.3c-0.4,0.1-0.8,0.3-1.1,0.4 c-0.4,0.2-0.7,0.3-1,0.5c-0.3,0.2-0.5,0.4-0.8,0.6c-0.2,0.2-0.4,0.3-0.5,0.5c-0.2,0.3-0.4,0.4-0.4,0.4c-0.2,0.2-0.2,0.5-0.2,0.8 c0.1,0.5,0.7,0.8,1.2,0.7c0,0,0.2,0,0.5-0.2c0.2-0.1,0.4-0.1,0.6-0.2c0.2,0,0.4-0.1,0.7-0.2c0.2-0.1,0.5-0.1,0.8-0.2 c0.3-0.1,0.6-0.1,0.9-0.2c0.6-0.1,1.3-0.1,1.9-0.1c0.6,0,1.3,0.1,1.9,0.1c0.3,0.1,0.6,0.1,0.9,0.2c0.3,0.1,0.6,0.1,0.8,0.2 c0.5,0.1,0.9,0.2,1.2,0.4C41.1,28,41.3,28,41.3,28z"/>
    <path d="M29.8,22.5c0,0,0.2-0.1,0.6-0.2c0.2-0.1,0.4-0.1,0.6-0.2c0.2-0.1,0.5-0.1,0.8-0.2c0.3-0.1,0.6-0.1,0.9-0.2 c0.3-0.1,0.7-0.1,1-0.2c0.4,0,0.7-0.1,1.1-0.1c0.4,0,0.8,0,1.1,0c0.8,0,1.5,0.1,2.2,0.2c0.4,0.1,0.7,0.1,1,0.2 c0.3,0.1,0.6,0.2,0.9,0.2c0.6,0.2,1.1,0.3,1.4,0.4c0.4,0.1,0.6,0.2,0.6,0.2l0.1,0c0.3,0.1,0.6,0,0.8-0.2c0.4-0.3,0.4-0.9,0.1-1.3 c0,0-0.1-0.2-0.5-0.5c-0.2-0.2-0.4-0.4-0.6-0.5c-0.2-0.2-0.5-0.4-0.8-0.6c-0.3-0.2-0.7-0.4-1.1-0.6c-0.4-0.2-0.8-0.3-1.3-0.5 C38.5,18.2,38,18,37.5,18c-0.5-0.1-1-0.1-1.5-0.1c-0.5,0-1,0-1.5,0.1c-0.5,0.1-1,0.2-1.5,0.3c-0.5,0.2-0.9,0.3-1.3,0.5 c-0.4,0.2-0.8,0.4-1.1,0.6c-0.3,0.2-0.6,0.4-0.9,0.6c-0.3,0.2-0.4,0.4-0.6,0.5c-0.3,0.3-0.4,0.5-0.4,0.5 c-0.2,0.2-0.3,0.5-0.1,0.9C28.8,22.3,29.3,22.6,29.8,22.5z"/>
    <path d="M39.6,45c0.2,0,0.3,0,0.4,0.1V43c0-2.5-1.5-4.5-4-4.5s-4,2-4,4.5v2.1c0.1-0.1,0.3-0.1,0.4-0.1H39.6z"/>
    <path d="M26.9,62.5c1.9,3.4,5.3,7.1,9.1,7.1s7.2-3.6,9.1-7.1c4.1-0.9,7.1-4.5,7.1-8.8c0-5-4.1-9.1-9.1-9.1 c-1.1,0-2.1,0.2-3.1,0.5c0.6,0.3,0.8,1,0.4,1.5c-1,1.5-2.7,3.3-4.5,3.3c-0.4,0-0.7-0.1-1-0.2c-1.4-0.5-2.6-1.9-3.4-3.1 c-0.4-0.6-0.1-1.3,0.4-1.5c-1-0.3-2-0.5-3.1-0.5c-2.7,0-5.1,1.2-6.8,3.1c-1.4,1.6-2.3,3.7-2.3,6c0,0.3,0,0.5,0,0.8 C20.2,58.4,23.1,61.7,26.9,62.5z M28.8,62.7c2.9,0,5.5-1.4,7.2-3.5c1.7,2.1,4.2,3.5,7.2,3.5c0.4,0,0.7,0,1.1-0.1 c-2.3,1.6-5.2,2.8-8.2,2.8c-3.1,0-5.9-1.2-8.2-2.8C28.1,62.7,28.5,62.7,28.8,62.7z"/>
    <path d="M32,45.1C32,45.1,31.9,45.1,32,45.1C31.9,45.1,32,45.1,32,45.1L32,45.1z"/>
    <path d="M40.1,45.1C40.1,45.1,40,45.1,40.1,45.1L40.1,45.1C40,45.1,40.1,45.1,40.1,45.1z"/>
  </g>
</svg>