<svg viewBox="0 0 128 128" xmlns="http://www.w3.org/2000/svg">
  <g>
    <path d="M120.6,58.2c8.8-17-3.3-28.7-7.2-31.9c-4-3.5-10.9-5.2-16.4-6.2c-0.1,0-0.3,0-0.4,0c-0.7,0-1.4,0.3-1.8,0.9 c-0.2,0.3-0.3,0.6-0.4,1c-1-0.2-2-0.3-2.9-0.3c-1.9,0-3.5,0.3-5,1c-0.8,0.4-1.3,1.2-1.2,2.1c0,0.4,0.2,0.8,0.4,1.1 c-1.8,0.9-3.4,2-4.6,3.3c-0.6,0.7-0.7,1.6-0.2,2.4c0.1,0.2,0.3,0.4,0.5,0.6c-2.3,2.8-3.6,6.5-2.6,12c0.9,5.1,5.9,7.7,10.4,7.7 c3,0,5.5-1.2,6.9-3.2c2.6-3.9,4.3-4.4,5.7-4.4c0.3,0,0.7,0,1,0.1c2.9,0.5,4.1,1.6,4.7,4.2c0.8,3.3,0.5,5.8-0.5,7.9 c-4.4-2.2-9-2.9-13.4-2.9c-6.6,0-12.8,1.5-16.8,1.6h-0.4c-6.8,0-12-1.2-16.2-3.4c2.1-3.8,3.3-8.1,3.3-12.7c0-1.4-0.1-2.9-0.3-4.3 c-0.2-4-0.8-7.4-1.8-10.3L60.3,9.4c-0.2-4-2.4-5.5-4.4-5.5c-1.4,0-2.8,0.6-4.4,1.8L45.8,10c-3.5-1-7.5-1.4-12.1-1.5h-0.1 c-0.9,0-8.2,0.4-12.1,1.2l-5.7-4.3c-1.5-1.2-3-1.8-4.4-1.8C9.4,3.6,7.2,5,7,9.1L5.7,24.2c-1,3-1.6,6.5-1.8,10.7 c-0.2,1.4-0.2,2.8-0.2,4.1c0,6.6,2.6,13.1,7.3,18.5c-0.3,2.3-0.5,4.7-0.5,7.3c0,9.7,2,17,5.5,22.5c1.9,7.9,5,17.2,6.4,23.8 c0.4,1.9,0.4,1.1,0.4,2.8c0,0.7-0.4,0.4-4.2,0.6c-3.8,0.2-3.8,5.2-4,7.5c-0.1,1,0.7,1.8,1.7,1.8h14.5c0.8,0,1.5-0.6,1.7-1.4 c0.5-3.4,1.9-12.4,3.2-21.1c1,0.3,2,0.6,3,0.9c1.7,0.5,3.5,0.7,5.3,0.7c1.1,5.1,1.3,9.6,0.7,10.6c-0.2,0.1-0.4,0.1-0.5,0.2 c-0.4,0.1-1.7,0.2-2.2,0.3c-2.8,0.3-4.3,4.7-4.6,7.3c0,0,0,0,0,0.1c-0.1,0.7,0.2,1.5,0.7,2c0.5,0.6,1.3,0.9,2,0.9l14.6-0.1 c1.3,0,2.5-1,2.7-2.3c0.5-3,2.8-14.7,4.5-23.2c3-1.2,6.1-2.6,9.4-4.1c3.5-1.6,7.1-2.7,10.5-2.7c0.2,0,0.4,0,0.6,0 c2.6,6.6,5.5,14.5,6.5,19c0.4,1.9,0.4,1.1,0.4,2.8c0,0.7-0.4,0.4-4.2,0.6c-3.8,0.2-3.8,5.2-4,7.5c-0.1,1,0.7,1.8,1.7,1.8h15.6 c0.8,0,1.5-0.6,1.6-1.4c0.3-2.1,0.5-9.4,0.5-17.3c3.8,3.8,7,7.1,7.2,7.7c0.7,1.8,0.2,2-0.8,2c-0.3,0-0.6,0-1,0 c-1.4,0-3.1,0.3-4,3.1c-0.1,0.2-0.5,1.3-0.6,1.6c-0.8,3.4-0.4,4.3,3.4,4.3h11.8c2.2,0,3.8-2,3.4-4.1c-1.3-6.9-3.5-21.3-1.9-31.7 c1.3-8.5,0-17.2-2.8-23.3C117.1,63.3,119.1,61.2,120.6,58.2z M49.7,12.2l4.5-3.7C54.9,8,56,8.4,56,9.3l0.2,5.8c0,0.8-0.8,1.3-1.5,1 L49.9,14C49.2,13.7,49.1,12.7,49.7,12.2z M44.6,30.5c1.9,0,3.5,1.8,3.5,4s-1.6,4-3.5,4c-1.9,0-3.5-1.8-3.5-4S42.7,30.5,44.6,30.5z M22.7,30.5c1.9,0,3.5,1.8,3.5,4s-1.6,4-3.5,4c-1.9,0-3.5-1.8-3.5-4S20.7,30.5,22.7,30.5z M11.3,9.3c0-0.9,1.1-1.4,1.8-0.8l4.5,3.7 c0.6,0.5,0.5,1.5-0.2,1.8l-4.7,2.2c-0.7,0.3-1.5-0.2-1.5-1L11.3,9.3z M32.4,97.1c-5-2.4-3.2-6.2,2.2-5.9c2.1,0.1,3.8,0.2,5.2,0.3 c1.3,2.5,2.3,5.4,3.1,8.3C39.8,99.4,35.6,98.6,32.4,97.1z M34.5,84.5c-12.2,0-22.2-15-22.2-24.5c0-0.3,0-0.5,0-0.7 c0.4,0.4,0.8,0.8,1.2,1.2c5.8,5.4,13.3,8.7,20.1,8.7c7.9,0,16.7-4.5,22.8-11.5c0.2,0.8,0.2,1.6,0.2,2.5 C56.6,69.5,46.7,84.5,34.5,84.5z M33.7,67c-12.7,0-28-12.3-28-27.9c0-0.9,0-1.8,0.1-2.7l0.1,0.1c0.9-0.8,2.1-1.4,3.6-1.7 c2.8-0.6,7.7-0.1,10.2,7.8c0.5,1.7,2.3,3.8,4,3.8c3.4,0.1,3.8-4.1,9.8-4.1s6.7,4.1,10.1,4.1c1.7,0,3.4-2.1,3.9-3.8 c2.5-7.9,7.3-8.4,10.2-7.8c1.6,0.4,2.9,1,3.8,1.8c0-0.1,0-0.3,0-0.4c0.1,1,0.1,1.9,0.1,2.9C61.6,54.7,46,67,33.7,67z M72.7,90.8 c-4,1.7-7.9,3.5-10.4,4.6c0.7-3.4,1.2-5.8,1.2-5.9c0-0.2,0-0.4-0.1-0.6c1.5-0.3,3.5-0.8,6.2-1.5C74.7,86.1,74.9,89.9,72.7,90.8z M114.9,62.2c0.2-0.1,4.5-11.2,2.3-19.2c-3.1-11.4-14.6-16.1-22.3-11.6s-7.2,9-8.5,13.5c-0.7,2.2-2.2,2.5-3.3,2.2 c-1.5-0.4-2.1-2.3-2.4-3.8c-1.3-7,2.1-10.4,5.9-13.3c-0.9,0.1-2.9,0.3-3.8,0.4c2-2.3,6.1-3.9,9.2-4.3c-1.1-0.3-3.4-1.1-4.5-1.5 c3.3-1.4,8.2-0.6,11.3,0.9c-0.7-1.1-1.5-2.2-2.2-3.3c4.8,0.9,11.3,2.2,15,5.4c7,5.5,13.7,16.3,7.5,28.9 C118,58.8,116.6,60.9,114.9,62.2z"/>
    <path d="M33.8,52.2c2.6,0,5.7-2,5.7-4.4v-0.1c0-2.4-2.4-4.9-5-4.9h-1.9c-2.6,0-5,2.5-5,4.9v0.1C27.7,50.3,31.2,52.2,33.8,52.2z"/>
    <path d="M48.2,50.1c-0.7,0-1,0.6-1.4,1c-0.3,0.4-0.7,0.8-1,1.1c-0.9,1-2,1.7-3.3,2.3c-2.8,1.3-4,0.8-4,0.8 c-0.4-0.1-0.9-0.2-1.3-0.3c-1.1-0.4-2-1-3.3-1c-0.8,0-1.7,0.2-2.4,0.5c-0.8,0.4-1.5,0.7-2.3,0.8c0,0-1.3,0.4-4-0.8 c-1-0.5-2-1.1-2.8-1.9c-0.8-0.7-1.4-1.6-2.2-2.3c-0.1-0.1-0.3-0.2-0.4-0.3c-0.2-0.1-0.6,0-0.7,0.2c-0.1,0.2,0,0.5,0.1,0.7 c0.9,2.2,3.4,8.3,9,10.9c-0.4-1.8-0.4-3.6-0.4-4.7c1.7-0.9,3.8-1.6,6.2-1.6c1.9,0,3.6,0.4,5.1,1V57c0,1.1,0.1,3-0.2,4.9 c5.8-2.4,8.4-8.7,9.6-10.9c0.1-0.2,0.2-0.5,0.1-0.7C48.5,50.2,48.4,50.1,48.2,50.1z"/>
  </g>
</svg>