<svg width="128" height="128" xmlns="http://www.w3.org/2000/svg">
  <g>
    <path d="M115.3,88.1L65.4,29.7c-1.6,4.6-5.9,10.5-12.4,16c-6.3,5.4-12.6,8.7-17.4,9.7l50.6,59.1 c4.6-0.4,11.5-3.3,17.7-8.5C110.9,100,115,92.5,115.3,88.1z"/>
    <path d="M63.8,27.9l-8.1-9.5c-2.2-2.5-8.1-1.2-14.5,2.9l-3.3-1.7l7.5-6.7l-9.9,1.6l2.1-9.8l-7.1,7.1l-4-9.2l-1.6,9.9 l-8.7-5l4.5,8.9l-10,1l8.9,4.5l-7.5,6.7L22,27l-2,9.9l7.1-7.1l1.4,3.3c-3.3,4.6-4.5,8.8-2.7,10.8l8.2,9.6 c3.8-0.4,10.5-3.6,17.5-9.6C58.8,37.8,63.1,31.6,63.8,27.9z M26.7,23.7c4.4,0.1,7.7,2.4,10.6,5.2l0.8,1.6l-4.7-2.7 c-0.2-0.1-0.5-0.2-0.7-0.2s-0.4,0-0.6,0.1c-0.4,0.2-0.7,0.6-0.8,1l-0.8,5.4l-2.2-5c-0.1-0.3-0.5-0.6-0.9-0.7c-0.1,0-0.2,0-0.2,0 c-0.4,0-0.7,0.1-1,0.4l-3.8,3.8l1.1-5.3c0.1-0.4,0-0.9-0.3-1.2c-0.3-0.3-0.6-0.4-1-0.4c-0.1,0-0.1,0-0.2,0l-5.4,0.8l4-3.6 c0.3-0.3,0.5-0.7,0.4-1.2c-0.1-0.4-0.3-0.8-0.7-1l-4.8-2.5l5.4-0.6c0.4,0,0.8-0.3,1-0.7c0.2-0.4,0.2-0.9,0-1.3l-2.5-4.8l4.7,2.7 c0.2,0.1,0.5,0.2,0.7,0.2s0.4,0,0.6-0.1c0.4-0.2,0.7-0.6,0.8-1L27,7.3l2.2,4.9c0.2,0.4,0.5,0.7,1,0.8c0.1,0,0.2,0,0.2,0 c0.4,0,0.7-0.1,1-0.4l3.8-3.8l-1.1,5.3c-0.1,0.4,0,0.9,0.3,1.2c0.3,0.3,0.6,0.4,1,0.4c0.1,0,0.1,0,0.2,0l5.3-0.9l-4,3.6 c-0.3,0.3-0.5,0.7-0.4,1.2c0.1,0.4,0.3,0.8,0.7,1l4.8,2.5l-5.4,0.6c-0.5,0-0.8,0.3-1,0.7c0,0.1,0,0.1-0.1,0.2 c-2.5-1.8-5.3-3-8.8-3.1c-0.6,0-1.1,0.5-1.1,1.1C25.6,23.2,26.1,23.7,26.7,23.7z"/>
    <path d="M18,5.9c0.7,0,1.3-0.6,1.3-1.3c0-0.7-0.6-1.3-1.3-1.3s-1.3,0.6-1.3,1.3C16.8,5.4,17.3,5.9,18,5.9z"/>
    <path d="M32.4,5.8c0.7,0,1.3-0.6,1.3-1.3s-0.6-1.3-1.3-1.3c-0.7,0-1.3,0.6-1.3,1.3S31.7,5.8,32.4,5.8z"/>
    <circle cx="12.3" cy="30.8" r="1.3"/>
    <path d="M22.2,37.3c-0.7,0-1.3,0.6-1.3,1.3c0,0.7,0.6,1.3,1.3,1.3s1.3-0.6,1.3-1.3C23.5,37.9,22.9,37.3,22.2,37.3z"/>
    <path d="M8.9,17c0-0.7-0.6-1.3-1.3-1.3c-0.7,0-1.3,0.6-1.3,1.3s0.6,1.3,1.3,1.3C8.3,18.3,8.9,17.7,8.9,17z"/>
    <path d="M43.2,6.3c0.3-0.3,0.2-0.8,0-1c-0.3-0.2-0.7-0.2-0.9,0.1L37,12.3L43.2,6.3z"/>
    <path d="M50.5,17c0.4-0.1,0.6-0.5,0.5-0.8s-0.5-0.5-0.8-0.4c-3.3,1.1-6.7,2-10,3.2C43.5,18.2,47,17.8,50.5,17z"/>
    <path d="M23.7,9.8c-0.6-2.5-1.1-5-1.7-7.5V2.2c-0.1-0.3-0.5-0.5-0.8-0.3c-0.3,0.1-0.5,0.5-0.3,0.8 C21.9,5.1,22.7,7.5,23.7,9.8z"/>
    <path d="M10.9,11.9l8.4,3.9l-7.8-5c0,0,0,0-0.1,0c-0.3-0.1-0.7,0-0.9,0.3C10.4,11.3,10.5,11.7,10.9,11.9z"/>
    <path d="M8,23.4c-0.4,0.1-0.6,0.5-0.5,0.8s0.5,0.5,0.8,0.4l9.5-2.6L8,23.4z"/>
    <path d="M14.3,33.4c-0.3,0.3-0.3,0.7-0.1,1c0.2,0.3,0.7,0.2,0.9,0l5-5.1L14.3,33.4z"/>
    <path d="M118.7,92l-2.3-2.7c-0.9,4.8-5,11.7-11.8,17.5c-6.1,5.2-12.6,8.1-17.4,8.8l2,2.4c4.1,0.1,11.4-2.2,18.4-8.2 C115.1,103.3,118.5,95.8,118.7,92z"/>
    <path d="M122.4,96.4l-1.7-1.9c-1.1,4.9-5.1,11.4-11.6,17.1c-6.3,5.4-13,8.2-18,8.8l1.4,1.6c2.8,3.2,11.7,0.1,19.9-6.9 C120.7,107.9,125.2,99.6,122.4,96.4z"/>
  </g>
</svg>