<svg width="128" height="128" xmlns="http://www.w3.org/2000/svg">
  <g>
    <path d="M64,6.1C32.8,6.1,4,26.1,4,64c0,37.7,28.8,57.9,60,57.9s60-20.7,60-57.9C124,26.6,95.2,6.1,64,6.1z M103,103.9 c-10.2,9-24.1,14-39,14c-15,0-28.9-4.9-39-13.8C13.9,94.3,8,80.5,8,64s5.9-30.4,17-40.2c10.1-8.9,24-13.7,39-13.7s28.9,5,39,13.9 c11.1,9.8,17,23.6,17,40C120,80.3,114.1,94.1,103,103.9z"/>
    <path d="M106.8,58.9c-0.3,0-0.5,0-0.8,0.1c-12.2,2.3-26.8,3.6-42.5,3.6S33.2,61.3,21,59c-0.3,0-0.5-0.1-0.8-0.1 c-2.7,0-4.8,2.4-4.3,5.2c0.2,1,0.4,1.9,0.7,2.8V67c0.7,2.4,1.6,4.7,2.7,6.9V74c1.1,2.2,2.4,4.4,4,6.4c8.6,11.6,23.3,19.7,40.1,19.7 c9.4,0,17.7-2.2,24.7-5.8c0,0,0,0,0.1,0c2.4-1.3,4.7-2.8,6.8-4.4c4.2-3.3,7.7-7.2,10.4-11.5c1.3-2.1,2.5-4.4,3.4-6.7 c0.6-1.5,1.1-3.1,1.6-4.7c0.2-0.8,0.4-1.6,0.6-2.4c0-0.2,0.1-0.4,0.1-0.6C111.6,61.3,109.4,58.9,106.8,58.9z M63.5,96.1 c-6.5,0-12.8-1.3-18.5-3.7c5.2-3.8,11.6-6,18.5-6c7.1,0,13.6,2.3,18.8,6.2C76.6,94.9,70.2,96.1,63.5,96.1z M106.4,66.8 c-13.6,6.2-28,9.5-42.9,9.5s-29.3-3.4-42.7-9.5c-0.4-1.2-0.7-2.4-0.9-3.6c0-0.1,0-0.1,0.1-0.2c0,0,0.1-0.1,0.3-0.1c0,0,0,0,0.1,0 c12.8,2.4,27.8,3.6,43.2,3.6c15.4,0,30.4-1.3,43.2-3.6c0,0,0,0,0.1,0c0.2,0,0.3,0.1,0.3,0.1c0.1,0.1,0.1,0.2,0.1,0.2 C107.1,64.4,106.8,65.6,106.4,66.8z"/>
    <ellipse cx="82.7" cy="39.6" rx="8" ry="9.4"/>
    <ellipse cx="45.2" cy="39.6" rx="8" ry="9.4"/>
  </g>
</svg>