<svg width="128" height="128" xmlns="http://www.w3.org/2000/svg">
  <path d="M122.6,89.7l-0.4-0.8L97.6,45.3C92,35.4,80,31.4,70.2,35.9c0-0.1-0.1-0.3-0.1-0.4c-1.5-5.2-4.8-9.9-9.8-12.7 c-10.3-5.8-23.5-2-29.4,8.6L6,75.4l-0.4,0.8h0.1c-3.6,7.4-1,16.4,6.3,20.5c7.2,4.1,16.4,1.7,20.8-5.2h0.1l25.6-45.3 c1.2-2.1,1.7-4.5,1.3-6.8c-0.5-2.9-2.3-5.4-4.8-6.8c-2.5-1.4-5.5-1.7-8.3-0.6c-2.2,0.8-4,2.5-5.2,4.6L18.9,76.4 c-0.1,0.1,0,0.2,0.1,0.2l4.4,2.5c0.1,0,0.2,0,0.2-0.1l22.6-40c0.6-1,1.5-1.8,2.7-2.1c1.1-0.3,2.3-0.2,3.4,0.4c2,1.2,2.8,4,1.7,6 L28.6,88.1c-2.8,4.9-9.1,6.7-14,3.9c-4.9-2.8-6.7-9.1-3.9-14l24.9-44c4.5-8,14.4-10.9,22-6.6c4.4,2.5,7.2,6.7,7.9,11.4 c-3.3,2.8-5.7,6.4-6.8,10.5c-0.9,3.2-1,6.6-0.4,9.9L38.2,94.8c-0.1,0.1,0,0.2,0.1,0.2l4.4,2.5c0.1,0,0.2,0,0.2-0.1l17.8-31.5 c0,0,0,0.1,0.1,0.1l25.9,45.8c0,0.1,0.2,0.1,0.2,0.1l4.4-2.5c0.1,0,0.1-0.2,0.1-0.2l-26-45.8c-0.7-1.3-1.3-2.7-1.6-4.1l4.1-7 c1.9-3.4,2.9-7.1,2.9-10.8c0.1,0,0.2-0.1,0.2-0.2c7.6-4.3,17.4-1.3,21.8,6.5l24.7,43.6c2.8,4.9,1,11.1-3.9,13.9 c-4.9,2.8-11.1,1-13.9-3.9l-25-44.2c-1.1-2-0.4-4.8,1.7-6c1-0.6,2.2-0.7,3.3-0.4c1.1,0.3,2.1,1,2.6,2.1l22.4,39.7 c0,0.1,0.1,0.1,0.2,0.1l4.4-2.5c0.1,0,0.1-0.2,0.1-0.2L87.1,50.5c-1.2-2-2.9-3.7-5.1-4.5c-2.8-1-5.7-0.8-8.2,0.6 c-2.5,1.4-4.2,3.8-4.8,6.7c-0.4,2.3,0.1,4.7,1.2,6.7l25.4,45l0.1-0.1c4.4,6.9,13.5,9.2,20.6,5.2C123.4,106.1,126.2,97,122.6,89.7z"/>
</svg>