<svg viewBox="0 0 128 128" xmlns="http://www.w3.org/2000/svg">
  <path d="M116.5,34.8c-0.2-0.4-0.5-0.9-0.8-1.3C106.9,18.7,91.9,7.9,74.3,4.9h-0.1C70.9,4.3,67.5,4,64,4C42.1,4,23,15.7,12.5,33.2 c-0.3,0.5-0.6,1-0.9,1.5C6.9,43.1,4.2,52.7,4,63c0,0.3,0,0.7,0,1c0,9.7,2.3,18.9,6.4,27c0.1,0.2,0.2,0.3,0.3,0.5 C20.7,110.8,40.8,124,64,124c0.4,0,0.9,0,1.3,0c20.8-0.5,38.9-11.4,49.3-27.8c0-0.1,0.1-0.1,0.1-0.2c0.4-0.6,0.8-1.3,1.2-1.9 c0.1-0.1,0.1-0.2,0.2-0.3c0.4-0.6,0.7-1.3,1.1-1.9c0.1-0.1,0.1-0.2,0.2-0.3c4.3-8.3,6.7-17.6,6.7-27.6 C124.1,53.4,121.3,43.4,116.5,34.8z M111.7,32.8c-7.2-0.1-18.4,1-28.7,7.4C70.8,48,65.2,58.1,63.1,63.1c-3.2,0.5-10.2,1-18.7-1.4 c1.1-4.1,5.6-17.1,19.1-28.6C76.7,22,92.9,19.4,98.8,18.9C103.8,22.8,108.2,27.5,111.7,32.8z M71.6,7.5C80,8.7,87.9,11.6,94.7,16 c-7.8,1.2-21.5,4.6-33.3,14.6C47.2,42.6,42.6,56,41.3,60.7c-2.2-0.8-4.4-1.7-6.7-3c-3.7-2-6.9-4.4-9.7-7.1 c0.9-4.1,4.7-16.7,17.2-28.4C52.1,12.9,64.4,9.1,71.6,7.5z M61.4,7.1C54.7,9.5,46.9,13.5,40,19.9c-11.6,10.8-16,22.3-17.6,28 c-3.8-4.2-6.4-8.5-8-11.7C23.6,19.5,41.1,8,61.4,7.1z M12.5,39.6C16,46,22.6,55,33.1,60.5c9.4,5,18.2,6.2,24.3,6.2 c2.4,0,4.3-0.2,5.8-0.4l0.5,0.1c2,2.4,5.8,7.6,8.2,15.3L71.5,81c-0.1,0.1-14.6,6.1-34.5,0.5c-15.3-4.3-25.8-15.2-29.9-20 C7.4,53.7,9.3,46.3,12.5,39.6z M7.1,66.3c5.3,5.8,15.2,14.4,29,18.3c5.5,1.6,10.6,2.3,15.1,2.5c11.8,0.5,19.7-2.4,21.3-3 c0.8,2.9,1.3,6,1.5,9.4c0.2,2.3,0.1,4.5-0.1,6.6c-3.1,1.4-15.9,6.6-33.6,3.2c-11.6-2.2-20.8-8.1-26.7-12.8C9.8,83.2,7.4,75,7.1,66.3 z M64,121c-18.7,0-35.4-9.1-45.8-23.1c5.7,3.6,13,7.1,21.5,8.7c3.1,0.6,6,0.9,8.8,1.1c11.9,0.7,20.7-2,25-3.7c-1.3,7-4,12.9-6.3,17 C66.1,121,65.1,121,64,121z M93.9,112.5c-6.8,4.2-14.6,7-22.8,8.1c3.3-6.4,6.9-16.1,6.2-27.2c-1-15.3-8-25.2-11.2-29 c1.5-3.5,5-10.1,11.9-16.3c0.6,0.5,12.7,10.3,17.5,30.4C98.8,92.3,96.1,105.3,93.9,112.5z M115,89.3c-4,8.1-9.8,15-16.9,20.4 c2-7.9,3.5-19.5,0.5-31.9C94,58.5,83.3,48.3,80.5,46c1.3-1,2.7-2,4.2-3c3.9-2.4,7.9-4,11.8-5.1c2.1,1.8,12.8,11.2,17.4,29.3 C115.9,75.2,115.8,82.9,115,89.3z M117,66.5c-4.1-16-12.6-25.5-16.7-29.4c5.2-1,9.9-1.1,13.3-0.9c4.6,8.2,7.3,17.7,7.3,27.9 c0.1,5.3-0.7,10.5-2.1,15.5C118.7,75.4,118.2,71,117,66.5z"/>
</svg>