<svg viewBox="0 0 128 128" xmlns="http://www.w3.org/2000/svg">
  <path d="M116,64H90c-2.6-16-8.3-28.3-13.4-34.5c5.7,2,21,8.7,33.6,27.1c0.3,0.5,0.8,0.7,1.2,0.7c0.7,0,1.3-0.4,1.4-1.2 c1.6-9.3,2.9-34-29.7-34c-2.1,0-4.4,0.1-6.9,0.3c5.5-4.7,11.2-6.3,16.6-6.3c9.9,0,18.5,5.6,22.2,8.4c0.2,0.1,0.4,0.2,0.5,0.2 c0.6,0,1.1-0.6,0.9-1.2c-1.9-6.1-9.7-17.8-23.8-17.8h-0.2c-14.6,0.1-16.8,8.4-20,12.3C70.9,7.1,64.2,4,57.9,4 c-7.4,0-14.5,4.2-13.3,5.7c1.9,2.5,16.4-1,22.1,9.5c-2.7-2-8.1-4.4-14.9-4.4c-3.1,0-6.5,0.5-10.2,1.8c-9.7,3.3-12.7,14.3-13,19.3 c0,0.6,0.5,1.1,1,1.1c0.2,0,0.5-0.1,0.7-0.3c3.9-4,14.6-13.7,28.6-13.7c2.2,0,4.5,0.2,6.8,0.8C26.9,29.5,33.2,53.9,37,63.1 c0.2,0.6,0.8,0.9,1.3,0.9c0.6,0,1.1-0.3,1.3-1C45,45.8,60,32.9,68.4,28.4C55.5,40.6,53.9,54.6,58.3,64h-20H12c-4.4,0-8,3.6-8,8v52 h120V72C124,67.6,120.4,64,116,64z M58.9,20c-11.2,0-20.4,5.6-26.1,10.3c1.4-4.2,4.3-9.1,9.8-11c3-1,6.1-1.6,9.2-1.6 c4.4,0,8.2,1.1,10.8,2.4C61.3,20.1,60.1,20,58.9,20z M38.4,57.9c-1.4-5-2.2-11.7,1.1-17.6C43.4,33.5,52,29,65.1,26.9 C57.5,31.7,44.7,42.5,38.4,57.9z M88.1,90.2c-0.8,0.4-2,0.8-3.7,0.8c-0.1,0-0.2,0-0.4,0c-1.9-0.1-3.1-0.4-3.8-0.6 c1.2-7.7,4.3-36.3-6.7-59.6c0-0.1,0.1-0.2,0.1-0.3C80.5,38.3,90.4,61,88.1,90.2z M78.2,64h-7.1c0,0.1,0,0.2,0,0.3 c-1.6-7.8-2.5-18,0.9-29.3C75.9,44.5,77.6,54.8,78.2,64z M76.8,17c2.5-4,5.4-8.4,15.8-8.5h0.1c8.3,0,13.9,4.6,17.3,9.1 c-4.7-2.5-10.6-4.6-17.2-4.6c-6.4,0-12.3,2.1-17.5,6.2C75.8,18.5,76.3,17.8,76.8,17z M68.2,25.5c0.3-0.4,0.5-1,0.5-1.5 c0-0.8-0.2-1.5-0.7-2.1c0.2-0.1,0.4-0.2,0.6-0.4c1.1-0.9,1.3-2.4,0.7-3.7C65.1,10,56.9,8.7,51.4,8.1C53.2,7.5,55.5,7,57.9,7 c6.6,0,10.5,3.8,11.8,11.3c0.2,1.2,1,2.1,2.2,2.4c0.2,0.1,0.5,0.1,0.8,0.1c0.4,0,0.9-0.1,1.2-0.3c-0.6,0.8-0.8,2-0.4,3 c0.5,1.1,1.6,1.8,2.8,1.8c0.1,0,0.2,0,0.3,0c2.3-0.2,4.5-0.3,6.6-0.3c10.5,0,18.1,2.7,22.5,8c4.7,5.6,5.2,13.2,4.7,18.7 C97.3,34.2,81.9,27.9,75.7,26c-0.1,0-0.2-0.1-0.2-0.1c-0.3-0.1-0.7-0.2-1-0.2c-1,0-2,0.6-2.6,1.5c-0.2,0-0.3,0.1-0.5,0.1 c-0.1-0.2-0.2-0.4-0.3-0.6c-0.6-0.8-1.5-1.2-2.4-1.2C68.4,25.4,68.3,25.5,68.2,25.5z M70.2,31c-5.7,15.5-3.5,29.2-0.5,40 c-4.6-1.6-8.3-5.8-9.8-11.2C57.3,50.4,61.1,39.6,70.2,31z M60,66.9c-0.1-0.1-0.1-0.2-0.2-0.3C59.9,66.7,60,66.8,60,66.9z M64,108.3 c-27.6,0-50-2.8-50-6.2c0-0.6,0.8-1.3,2.3-1.9C21.7,89,41,80.7,64,80.7c4.9,0,9.7,0.4,14.1,1.1c-0.4,6.1-1.1,9.9-1.1,9.9 s1.3,2.1,6.9,2.3c0.2,0,0.3,0,0.5,0c4.3,0,6.6-2,6.6-2c0.2-2.3,0.3-4.6,0.4-6.9c10,3.5,17.4,8.9,20.4,15.2c1.4,0.6,2.2,1.2,2.2,1.8 C114,105.5,91.6,108.3,64,108.3z"/>
</svg>