<svg viewBox="0 0 128 128" xmlns="http://www.w3.org/2000/svg">
  <path d="M100.1,70.5L76.7,52.4h-0.1V6h-4.5H39.3h-4.5L34,6.8l-2.1,1.9v0l0,0v94.6l3,2.9v0h4.5v0v-38l11.2,9.7v42.5l3.6,3.5v0v0h4.5 v0V81H69v22.2l3,2.9v0l0,0h0h4.5h0V81h14.8v39.4L95,124h4.5v0V81h0v-6.5h0.7h0L100.1,70.5L100.1,70.5z M99.2,71.1v2.5H56.7l-0.3-0.2 L35.9,56.1v-2.6l0.4,0l20.3,17l0,0h41.8L99.2,71.1z M34.9,64.4l3.5,3v0.9v37h-3.1l-0.4-0.4L34.9,64.4z M87.4,61.9l9.9,7.6h-0.3H58.1 h-1.1L38,53.7l-0.3-0.3h9.6h24.8h1h2.5h0.8l0.2,0.2L87.4,61.9z M39.3,29.5L39.3,29.5H69h1h2.1h0v4.1h0H69H39.3h0v-0.2v-1V29.5z M69,22.9v5.6H39.3v-5.6H69z M69,37.2v15.2H39.3V37.2H69z M75.5,52.4h-1.1h-1.3V52V37.2v-2.6v0v-1v-4.1v-1v-5.6v-2.6v-1v-4.7v-1V7 h2.5V52.4z M71.6,7H72h0v6.6v1v4.7h0H69H39.3h0v-4.7v-1V7H71.6z M35.2,7h3.1v6.6v5.7v1v2.6v0v5.6v1v2.9v1.2v1v2.6v0v15.2H35l0,0 l-0.1,0l0-45.1L35.2,7z M75.5,105.2h-3.1l-0.4-0.4V81h3.5V105.2z M98.5,81L98.5,81v42h-3.1l-0.4-0.4V81h-2.5l0,0v-1h-1h-15h-7.2 H58.7h-1v1v0v42h-3l-0.4-0.4V81v-1.9v-5v-1.3l2.1,1.7h42.1V81z"/>
</svg>