<svg viewBox="0 0 128 128" xmlns="http://www.w3.org/2000/svg">
  <g>
    <path d="M64,6.1C32.8,6.1,4,26.1,4,64c0,37.7,28.8,57.9,60,57.9s60-20.7,60-57.9C124,26.6,95.2,6.1,64,6.1z M103,103.9 c-10.2,9-24.1,14-39,14c-15,0-28.9-4.9-39-13.8C13.9,94.3,8,80.5,8,64c0-16.5,5.9-30.4,17-40.2c10.1-8.9,24-13.7,39-13.7 c15,0,28.9,5,39,13.9c11.1,9.8,17,23.6,17,40C120,80.3,114.1,94.1,103,103.9z"/>
    <path d="M64,72.8c-10.8,0-18.4,5.6-20.7,9.1c-0.9,1.4-1.1,2.8-0.5,3.9c0.5,0.8,1.3,1.3,2.2,1.3c0.3,0,0.7,0,1-0.2 c5.4-1.7,11.6-2.6,17.9-2.6c6.3,0,12.5,0.9,18,2.6c0.3,0.1,0.7,0.2,1,0.2c1,0,1.8-0.5,2.2-1.3c0.6-1.1,0.4-2.6-0.5-3.9 C82.4,78.3,74.8,72.8,64,72.8z"/>
    <ellipse cx="82.8" cy="46.8" rx="8" ry="9.4"/>
    <ellipse cx="45.2" cy="46.8" rx="8" ry="9.4"/>
  </g>
</svg>