<svg viewBox="0 0 128 128" xmlns="http://www.w3.org/2000/svg">
  <g>
    <path d="M109.5,52.8c0.5,0.2,1,0.1,1.4-0.2c0.7-0.5,0.8-1.5,0.3-2.2c0,0-0.1-0.2-0.5-0.6c-0.1-0.1-0.2-0.2-0.3-0.3 c-0.1-0.1-0.2-0.2-0.3-0.3c-0.1-0.1-0.2-0.2-0.4-0.3c-0.1-0.1-0.3-0.2-0.5-0.3c-0.2-0.1-0.3-0.2-0.5-0.3c-0.2-0.1-0.4-0.2-0.6-0.3 c-0.2-0.1-0.4-0.2-0.7-0.3c-0.2-0.1-0.5-0.2-0.7-0.3c-0.5-0.1-1-0.3-1.5-0.4s-1.1-0.1-1.6-0.1s-1.1,0-1.6,0.1s-1,0.2-1.5,0.4 c-0.2,0.1-0.5,0.2-0.7,0.3c-0.2,0.1-0.4,0.2-0.7,0.3c-0.2,0.1-0.4,0.2-0.6,0.3c-0.2,0.1-0.4,0.2-0.5,0.3c-0.2,0.1-0.3,0.2-0.5,0.3 c-0.2,0.1-0.3,0.2-0.4,0.4c-0.1,0.1-0.2,0.2-0.4,0.3c-0.1,0.1-0.1,0.2-0.2,0.3c-0.2,0.3-0.4,0.5-0.4,0.5c-0.3,0.4-0.4,1-0.2,1.5 c0.3,0.8,1.3,1.2,2.1,0.9c0,0,0.2-0.1,0.6-0.3c0.1,0,0.2-0.1,0.3-0.1c0.1,0,0.2-0.1,0.3-0.1c0.1,0,0.2-0.1,0.3-0.1 c0.1,0,0.2-0.1,0.4-0.1c0.1,0,0.2-0.1,0.4-0.1c0.1,0,0.3-0.1,0.4-0.1c0.1,0,0.2,0,0.2-0.1c0.1,0,0.1,0,0.2,0c0.2,0,0.3-0.1,0.5-0.1 c0.3,0,0.7-0.1,1-0.1s0.7,0,1,0s0.7,0,1,0s0.7,0.1,1,0.1c0.2,0,0.3,0.1,0.5,0.1c0.1,0,0.2,0,0.2,0c0.1,0,0.1,0,0.2,0.1 c0.2,0,0.3,0.1,0.4,0.1s0.3,0.1,0.4,0.1c0.3,0.1,0.5,0.2,0.7,0.2c0.1,0,0.2,0.1,0.3,0.1c0.1,0,0.2,0.1,0.2,0.1 c0.5,0.1,0.7,0.2,0.7,0.2L109.5,52.8z"/>
    <ellipse cx="103.7" cy="58.4" rx="4.9" ry="5.1"/>
    <path d="M124,67.6c-0.2-0.1-0.3-0.1-0.4-0.1h-7c-0.1,0-0.2,0-0.3,0.1c-0.6,0.3-1,0.9-0.7,1.6c0.3,0.7,1.7,2.7,4.5,2.7 c2,0,3.3-1,4-1.8v-2.4C124.1,67.7,124,67.7,124,67.6z"/>
    <path d="M111.7,75.5c-1.8-1.1-3.7,0.6-2.9,2.2c0.7,1.6,6.4,5.4,11.3,5.4c1.3,0,2.6-0.3,3.9-0.7v-5.8 C119.7,77.2,113.9,76.9,111.7,75.5z"/>
    <ellipse cx="25.2" cy="59.2" rx="4.9" ry="5.1"/>
    <path d="M8.9,72.7c2.8,0,4.2-2,4.5-2.7c0.3-0.7,0-1.4-0.7-1.6c-0.1,0-0.2-0.1-0.3-0.1h-7c-0.1,0-0.2,0-0.3,0.1 c-0.6,0.3-1,0.9-0.7,1.6C4.7,70.7,6.1,72.7,8.9,72.7z"/>
    <path d="M18.4,78.9c0.4-1.2-1.3-2-2.7-1c-1.9,1.4-8.2,1.6-11.7,0.8v3.8c1.5,0.7,3.2,1.2,4.9,1.2C13.5,83.6,18,80.1,18.4,78.9z"/>
    <path d="M119.1,106.2c-3.4,0-6.3-2.8-6.3-6.2v-5.3c2.3,0.5,4.7,0.8,7.1,0.8c1.3,0,2.6-0.1,4-0.3v-2.3c-1.3,0.2-2.6,0.3-3.9,0.3 c-8.2,0-15.7-3.2-21.3-9.1c-6-6.4-9.4-15.5-9.7-26.3c1-3.3,2.5-7.1,5.1-10.2c4-4.7,7.7-15.1,7.7-15.1s11.1,4.1,19.5,9 c0.9,0.5,1.7,1.1,2.5,1.6v-13v-0.3V4.2c-1.1-0.1-2.4-0.1-3.8-0.1c-17.4,0.1-19.9,7.9-20.5,8.5C95.9,7.1,90.2,4,83.7,4h-0.1 c-0.3,0-0.6,0-0.9,0c-3.1,0-6.1,0.7-8.9,1.9c-3,1.3-5.1,3.2-7.8,4.9c-0.5,0.3-1.1,0.5-1.7,0.5c-0.6,0-1.2-0.2-1.7-0.5 c-2.7-1.7-4.8-3.6-7.8-4.9C52,4.7,49,4,45.9,4c-0.3,0-0.6,0-0.9,0h-0.1c-5.5,0-10.4,2.2-14,6.3C25.2,7,18,4.8,8.9,4.9 C7.1,4.9,5.5,5,4,5.1v37.4c0.3,0.1,0.6,0.3,1,0.4c5,2.4,10.4,5.4,13.8,7.3c-0.1,0.1-0.1,0.2-0.1,0.2c-0.4,0.6-0.2,1.5,0.4,1.8 c0.4,0.2,0.8,0.3,1.2,0.1l0.2-0.1c0,0,0.2-0.1,0.4-0.2c0.1,0,0.1,0,0.2,0c0.1,0,0.2-0.1,0.2-0.1h0.1c0.3,0.2,0.5,0.3,0.5,0.3 S22,52,22,51.7c0.1,0,0.2-0.1,0.2-0.1c0.1,0,0.2-0.1,0.4-0.1c0.1,0,0.1,0,0.2-0.1c0.1,0,0.1,0,0.2-0.1c0.1,0,0.3-0.1,0.4-0.1 c0.3,0,0.6-0.1,0.9-0.2c0.3-0.1,0.6-0.1,0.9-0.1s0.6,0,0.9,0c0.3,0,0.6,0,0.9,0c0.1,0,0.3,0,0.4,0.1c0.1,0,0.1,0,0.2,0 c0.1,0,0.1,0,0.2,0c0.1,0,0.2,0,0.4,0.1c0.1,0,0.2,0.1,0.3,0.1s0.2,0,0.3,0.1c0.1,0,0.2,0,0.3,0.1l0.2,0.1c0.1,0,0.2,0.1,0.3,0.1 c0.3,0.1,0.5,0.2,0.5,0.2c0.7,0.2,1.5-0.1,1.8-0.9c0.1-0.4,0-0.9-0.2-1.3c0,0-0.1-0.2-0.4-0.4c-0.1-0.1-0.1-0.1-0.2-0.2 c-0.1-0.1-0.2-0.2-0.3-0.3c-0.1-0.1-0.2-0.2-0.4-0.3c-0.1-0.1-0.3-0.2-0.4-0.3c-0.1-0.1-0.3-0.2-0.5-0.3c-0.2-0.1-0.3-0.2-0.5-0.2 c-0.2-0.1-0.4-0.2-0.6-0.2c-0.2,0-0.4-0.1-0.6-0.2c-0.4-0.1-0.9-0.2-1.3-0.2c-0.5,0-0.9,0-1.4,0c-0.5,0.1-0.9,0.1-1.4,0.2 c-0.3,0.1-0.6,0.2-0.9,0.3c0-1.2-0.1-2.5-0.4-3.9c-1.3-5.3-2.3-7.4-3-8.3c0.7,0.6,1.9,1.7,4.1,3.6c12.2,11.1,14.7,28.6,15,31.2 C36.7,75.9,34,81,30.2,85c-5.6,5.9-13.1,9.1-21.3,9.1c-1.7,0-3.3-0.1-4.9-0.4V96c1.6,0.3,3.3,0.4,4.9,0.4c2.4,0,4.8-0.3,7.2-0.8 v4.5c0,3.4-2.8,6.2-6.3,6.2H8.2c-1.6,0-3.1-0.6-4.2-1.6V124h56.1v-4c0-14.8-19.8-23.2-42-24.9c9.5-2.9,17.8-10.3,21.7-22.3 c4-1.6,6.8-5.8,6.8-10.6c0-1.1-0.2-2.2-0.4-3.2c0.3-0.7,0.6-1.4,0.9-2.2c5.6,5.8,11.1,11.2,14.3,14.4c0.8,0.8,1.8,1.2,2.8,1.2 s2-0.4,2.8-1.2c3.6-3.7,10.5-10.5,17-17.2c0.1,0.2,0.3,0.4,0.4,0.6c-1.3,1.9-2.1,4.2-2.1,6.8c0,4.8,2.9,8.9,6.8,10.6 c3.9,12,12.3,19.4,21.8,22.3V95c-22.2,1.6-42,9.3-42,24.9v4H124v-18.6c-0.9,0.5-2,0.9-3.2,0.9H119.1z M40.7,69.7 c0.2-0.8,0.4-1.6,0.5-2.4c1-1.3,2.1-2.8,3.1-4.5C44.2,65.6,42.8,68.1,40.7,69.7z M69.3,64.7c-1.8,1.8-3.3,3.2-4.4,4.4 c-0.2,0.2-0.5,0.3-0.7,0.3s-0.4-0.1-0.7-0.3c-1.2-1.2-2.6-2.7-4.3-4.4C50.8,56.3,36.8,42.3,32.5,36c-1.9-2.9-3.1-5.6-3.5-8.4 c-0.5-3-0.5-7.4,0.7-10.1C32.5,10.8,38,7,44.8,7h0.1c0.2,0,0.3,0,0.5,0c0.1,0,0.3,0,0.4,0c2.6,0,5.2,0.6,7.8,1.7 c1.7,0.7,3.1,1.7,4.7,2.8c0.8,0.6,1.7,1.2,2.6,1.8c1,0.6,2.1,1,3.4,1c1.2,0,2.4-0.3,3.3-1c0.9-0.6,1.8-1.2,2.6-1.8 c1.6-1.2,3-2.1,4.7-2.9c2.6-1.1,5.2-1.7,7.8-1.7c0.1,0,0.3,0,0.4,0c0.2,0,0.3,0,0.5,0h0.1c6.7,0,12.2,3.8,15.1,10.5 c1.2,2.7,1.2,7.2,0.7,10.1C99,30.3,97.9,33,96,35.9C91.8,42.2,77.7,56.3,69.3,64.7z M84.5,61.4c0-1.6,0.4-3.1,1.1-4.4 c1.3,8,2,9.4,2,9.4s0-0.1,0-0.3c0.2,1,0.4,1.9,0.6,2.8C86,67.2,84.5,64.5,84.5,61.4z"/>
  </g>
</svg>