<svg viewBox="0 0 128 128" xmlns="http://www.w3.org/2000/svg">
  <g>
    <path d="M65.1,30.6c-1.6,1.6-1.9,4-0.6,5.3c1.3,1.3,3.7,1,5.3-0.6c1.6-1.6,1.9-4,0.6-5.3C69.1,28.7,66.7,28.9,65.1,30.6z"/>
    <path d="M73.9,22.1c-1.1,1.1-1.3,2.7-0.4,3.6c0.9,0.9,2.5,0.7,3.6-0.4c1.1-1.1,1.3-2.7,0.4-3.6C76.6,20.9,75,21,73.9,22.1z"/>
    <path d="M64.2,5C44.3,5,27.9,7.1,25.3,9.9c-0.4,0.2-0.7,0.4-0.8,0.7v0.1c0,0.3,33.1,38.8,35.1,45c2.3,6.9,2.5,14,2.3,28.3 c-0.2,10.8-0.8,23.4-1.1,28.8c-8.2,0.4-14.5,2.7-14.5,5.4c0,3,7.7,5.5,17.2,5.5s17.2-2.5,17.2-5.5c0-2.7-6.2-5-14.3-5.4 c-0.3-5.4-0.9-18-1.1-28.9c-0.2-14.2,0-21.3,2.3-28.3C69.7,50,97,18.3,102.5,11.8c0.6-0.4,0.9-0.8,0.9-1.2v-0.1 C103.1,7.4,85.6,5,64.2,5z M30.7,13.3c-0.6-0.7-1.2-1.4-1.7-2.1C33.1,9.8,45.1,8,64.2,8c10,0,18,0.5,23.9,1.2 c-0.8,0.9-2,2.3-3.3,3.9c-1.2,1.5-2.7,3.3-4.2,5.3c-4.7-0.5-10.4-0.8-16.7-0.8c-13,0-24,1.3-27.1,3C34.9,18.3,32.9,15.9,30.7,13.3z M66.5,115.8c5.7,0.3,9.4,1.5,10.9,2.4c-1.6,1-6.1,2.5-13.7,2.5c-7.6,0-12.1-1.5-13.7-2.5c1.5-0.9,5.3-2.1,11.1-2.4 c1.2-0.1,2.3-1,2.7-2.1C64.2,114.9,65.2,115.7,66.5,115.8z M65,54.7c-0.5,1.5-0.9,3-1.2,4.6c-0.3-1.6-0.7-3.1-1.2-4.6 c-0.5-1.6-2.3-4.4-5.6-8.9c2.6,2,4.9,3.3,6.8,3.3c1.9,0,4.3-1.3,7-3.4C67.4,50.2,65.5,53.1,65,54.7z M78.5,29.1 c-0.8,0.2-1.7,0.2-2.5,0.1c0.4,0.6,0.7,1.3,0.9,2.1c0.8,3.7-2.1,7.5-6.6,8.6c-4.5,1-8.8-1.2-9.6-4.9s2.1-7.5,6.6-8.6 c1.5-0.3,3-0.3,4.3,0c-0.2-0.3-0.3-0.7-0.4-1c-0.6-2.8,1.6-5.7,4.9-6.4c3.3-0.8,6.6,0.9,7.2,3.7C84,25.4,81.8,28.3,78.5,29.1z M97,13.6c-2.1,2.5-4.1,4.8-5.9,7c-1.4-0.8-4.3-1.5-8.4-2c1.2-1.7,2.3-3.4,3.1-4.8c1.2-1.9,2.2-3.5,2.8-4.5c5,0.6,8.5,1.3,10.5,1.9 C98.5,11.9,97.8,12.7,97,13.6z"/>
  </g>
</svg>