<svg width="128" height="128" xmlns="http://www.w3.org/2000/svg">
  <g>
    <path d="M33.9,44.7l-4.8-3.4c-0.4-0.3-0.8-0.4-1.2-0.4c-0.7,0-1.4,0.3-1.8,0.9c-0.7,1-0.4,2.4,0.6,3l4.8,3.3 c0.4,0.3,0.8,0.4,1.2,0.4c0.7,0,1.4-0.3,1.8-0.9C35.2,46.7,34.9,45.3,33.9,44.7z M33.6,47.1c-0.2,0.3-0.6,0.5-1,0.5 c-0.2,0-0.5-0.1-0.7-0.2l-4.8-3.3c-0.3-0.2-0.4-0.5-0.5-0.8c-0.1-0.3,0-0.6,0.2-0.9c0.2-0.3,0.6-0.5,1-0.5c0.2,0,0.5,0.1,0.7,0.2 l4.8,3.3c0.3,0.2,0.4,0.5,0.5,0.8C33.9,46.5,33.8,46.9,33.6,47.1z"/>
    <path d="M57.9,26.8c-0.4-0.4-1-0.7-1.6-0.7c-0.5,0-1.1,0.2-1.5,0.6c-0.8,0.9-0.8,2.3,0,3.1l4.1,4.2c0.4,0.4,1,0.7,1.6,0.7 c0.5,0,1.1-0.2,1.5-0.6c0.9-0.8,0.9-2.2,0.1-3.1L57.9,26.8z M61.3,33.4c-0.2,0.2-0.5,0.3-0.8,0.3s-0.6-0.1-0.9-0.4l-4.1-4.2 c-0.2-0.2-0.3-0.5-0.3-0.8s0.1-0.6,0.4-0.8c0.2-0.2,0.5-0.3,0.8-0.3c0.3,0,0.6,0.1,0.9,0.4l4.1,4.2c0.2,0.2,0.3,0.5,0.3,0.9 C61.7,33.1,61.5,33.2,61.3,33.4z"/>
    <path d="M77.3,41.8c-0.5,0-0.9,0.1-1.3,0.4l-4.8,3.5c-1,0.7-1.2,2.1-0.5,3.1c0.4,0.6,1.1,0.9,1.8,0.9c0.5,0,0.9-0.1,1.3-0.4 l4.8-3.5c1-0.7,1.2-2.1,0.5-3.1C78.6,42.2,78,41.8,77.3,41.8z M78.5,44.2c-0.1,0.3-0.3,0.6-0.5,0.8l-4.8,3.5 c-0.2,0.2-0.5,0.2-0.7,0.2c-0.4,0-0.7-0.2-1-0.5c-0.4-0.5-0.3-1.3,0.3-1.7l4.8-3.5c0.2-0.2,0.4-0.2,0.7-0.2c0.4,0,0.7,0.2,1,0.5 C78.5,43.6,78.6,43.9,78.5,44.2z"/>
    <path d="M53.5,18.2c0.1-1.5-0.9-2.7-2.1-2.8l-6-0.3h-0.1c-1.2,0-2.2,1.1-2.3,2.6c0,1.6,8.1,3.1,8.2,3.1 C52.4,20.8,53.4,19.7,53.5,18.2z M45.3,16.2l6,0.3c0.7,0,1.2,0.8,1.1,1.8c0,0.9-0.6,1.6-1.2,1.6c-3.3-0.6-6.5-1.6-7.2-2.2 C44.2,16.8,44.7,16.2,45.3,16.2z"/>
    <path d="M56.6,44l-6-0.3h-0.1v0.1c-1.2,0-2.2,1.1-2.3,2.6c-0.1,1.5,8.1,3.1,8.1,3.1h0.1c1.2,0,2.2-1.1,2.3-2.6 C58.7,45.3,57.8,44,56.6,44z M56.5,48.4c-3.3-0.6-6.5-1.6-7.2-2.2c0.1-0.8,0.6-1.4,1.2-1.4v-0.1l6,0.3c0.4,0,0.7,0.3,0.8,0.5 c0.2,0.3,0.4,0.8,0.4,1.3C57.7,47.7,57.1,48.4,56.5,48.4z"/>
    <path d="M36.2,27.5C35.9,27.2,35.4,27,35,27c-0.7,0-1.4,0.3-1.8,0.9c-0.7,1-0.5,2.4,0.5,3.1c0,0,1.3,1.7,4.4,1.9c0.2,0,0.5,0,0.7,0 c2.6,0,3.7-1.1,2.8-1.8L36.2,27.5z M38.7,32c-0.2,0-0.4,0-0.6,0c-2.5-0.2-3.6-1.5-3.6-1.5c-0.1-0.1-0.1-0.2-0.2-0.2 c-0.5-0.4-0.7-1.2-0.3-1.7c0.2-0.3,0.6-0.5,1-0.5c0.2,0,0.5,0.1,0.7,0.2l4.8,3.4C40.2,31.8,39.6,32,38.7,32z"/>
    <path d="M86.9,17.4c1.2,0,2.3-0.3,2.7-1.2c0.5-1.2-0.4-2.9-2.9-3.9l-1.3-0.2c-0.2,0-0.4-0.1-0.5-0.1c-0.6,0-0.9,0.3-1,1 c0,0.8-0.5,1.4-1.1,1.7l-0.4,0.7c0.2,0.9,0.7,1.4,2.1,1.7l1.3,0.2C86.2,17.4,86.6,17.4,86.9,17.4z M83.5,15.5L83.5,15.5 c0.8-0.6,1.3-1.5,1.4-2.5c0.1,0,0.2,0,0.3,0l1.2,0.2c1.8,0.8,2.5,1.9,2.2,2.6c-0.2,0.4-1,0.6-1.7,0.6c-0.3,0-0.6,0-1-0.1l-1.2-0.2 C83.9,16,83.6,15.7,83.5,15.5z"/>
    <path d="M94.4,27l-1.6-0.2c-0.2,0-0.3,0-0.5,0c-0.9,0-1.3,0.4-1.3,1.2c0,0.9-0.4,1.7-1.2,2.2L89.5,31c0.2,1,1,1.7,2.6,1.9l1.6,0.2 c0.3,0,0.6,0,0.9,0c1.5,0,3.1-0.4,3.5-1.7C98.6,29.9,97.4,28,94.4,27z M97.1,31.1c-0.2,0.7-1.5,1-2.6,1c-0.2,0-0.5,0-0.8,0 l-1.6-0.2c-1.1-0.2-1.4-0.5-1.6-0.9l0.1-0.2c0.9-0.6,1.4-1.7,1.4-2.9c0-0.1,0-0.1,0-0.2c0,0,0.1,0,0.3,0c0.1,0,0.2,0,0.3,0l1.5,0.2 C96.5,28.7,97.4,30.1,97.1,31.1z"/>
    <path d="M88.8,23.9l1.3-0.6c0.9-0.4,1.2-1.4,0.8-2.2c-0.2-0.4-0.5-0.7-0.9-0.9l-1.9-0.8c-0.2-0.1-0.4-0.1-0.6-0.1s-0.5,0.1-0.7,0.2 h-0.1c-0.9,0.4-1.2,1.4-0.8,2.2l0.7,1.4c0.3,0.6,0.9,1,1.5,1C88.3,24.1,88.6,24.1,88.8,23.9z M87.6,22.7L87,21.3 c-0.2-0.2-0.2-0.4-0.1-0.5c0.1-0.2,0.2-0.3,0.4-0.4h0.1c0.1,0,0.2-0.1,0.3-0.1c0.1,0,0.2,0,0.3,0.1l1.9,0.8 c0.2,0.1,0.3,0.2,0.4,0.4c0.1,0.2,0.1,0.4,0,0.5c-0.1,0.2-0.2,0.3-0.4,0.4L88.5,23c-0.1,0-0.2,0.1-0.3,0.1 C87.9,23.1,87.7,22.9,87.6,22.7z"/>
    <path d="M111.8,34.6l-1.9-0.8c-0.2-0.1-0.4-0.1-0.6-0.1c-0.2,0-0.5,0-0.7,0.2h-0.1c-0.8,0.4-1.2,1.4-0.8,2.2l0.6,1.3 c0.3,0.8,0.9,1.1,1.6,1.1c0.2,0,0.5,0,0.7-0.2l1.3-0.6c0.9-0.4,1.2-1.4,0.8-2.2C112.5,35.1,112.2,34.8,111.8,34.6z M112,36.4 c-0.1,0.2-0.2,0.3-0.4,0.4l-1.4,0.6c-0.1,0-0.2,0.1-0.3,0.1c-0.3,0-0.5-0.2-0.6-0.4l-0.6-1.3c-0.2-0.2-0.2-0.4-0.1-0.6 c0.1-0.2,0.2-0.3,0.4-0.4h0.1c0.1,0,0.2-0.1,0.3-0.1c0.1,0,0.2,0,0.3,0l1.9,0.8c0.2,0.1,0.3,0.2,0.4,0.4 C112.1,36.1,112.1,36.3,112,36.4z"/>
    <path d="M91.8,41.3L90,40.5c-0.2-0.1-0.4-0.1-0.6-0.1c-0.2,0-0.5,0-0.7,0.2h-0.1c-0.8,0.4-1.2,1.4-0.8,2.2l0.6,1.4 c0.3,0.6,0.9,1,1.5,1c0.2,0,0.5,0,0.7-0.2l1.3-0.6c0.9-0.4,1.2-1.4,0.8-2.2C92.5,41.8,92.2,41.5,91.8,41.3z M92.1,43.1 c-0.1,0.2-0.2,0.3-0.4,0.4l-1.4,0.6c-0.1,0-0.2,0.1-0.3,0.1c-0.3,0-0.5-0.2-0.6-0.4l-0.6-1.4c-0.2-0.2-0.2-0.4-0.1-0.5 c0.1-0.2,0.2-0.3,0.4-0.4h0.1c0.1,0,0.2-0.1,0.3-0.1s0.2,0,0.3,0l1.9,0.8c0.2,0.1,0.3,0.2,0.4,0.4C92.2,42.8,92.2,43,92.1,43.1z"/>
    <path d="M109.4,41c-0.3-0.6-0.9-1-1.5-1c-0.2,0-0.5,0-0.7,0.2c-0.5,0.2-0.8,0.5-0.9,0.9l-0.7,1.9c-0.2,0.4-0.1,0.9,0.1,1.3v0.1 c0.3,0.6,0.9,1,1.5,1c0.2,0,0.5,0,0.7-0.2l1.3-0.6c0.8-0.4,1.2-1.4,0.8-2.3L109.4,41z M109.1,43.2c-0.1,0.2-0.2,0.3-0.4,0.4 l-1.3,0.7c-0.1,0-0.2,0.1-0.3,0.1c-0.3,0-0.5-0.2-0.6-0.4v-0.1c-0.1-0.2-0.1-0.4,0-0.5l0.7-1.9c0-0.2,0.2-0.3,0.3-0.4 c0.1,0,0.2-0.1,0.3-0.1c0.3,0,0.5,0.2,0.6,0.4l0.7,1.3C109.2,42.9,109.2,43.1,109.1,43.2z"/>
    <path d="M117.6,38c-0.8-3.7-1.7-8.5-4.1-13.5l2.8-0.9c1-0.4,1.6-1.5,1.3-2.5l-3.7-11.4c-0.3-0.9-1.1-1.4-1.9-1.4 c-0.2,0-0.4,0-0.6,0.1l-8.8,2.8c-0.8-0.6-1.7-1.3-2.6-1.9c-3.5-2.4-10.7-4.4-18.5-4.4c-1.4,0-2.9,0.1-4.4,0.2 c-0.3-0.4-0.6-0.8-1.1-1C75.8,4,75.5,4,75.3,4c-1,0-2,0.6-2.9,1.9c0,0,0,0,0-0.1c-3.6,0.8-7.1,2.1-10.2,4.2 c-0.2,0.1-0.3,0.2-0.5,0.3c-3.3-1.1-7.4-1.9-11.9-2c-0.2-0.1-0.4-0.3-0.7-0.4l-6.9-2.3c-0.3-0.1-0.6-0.1-0.9-0.1 c-1.1,0-2.2,0.7-2.6,1.8c-0.2,0.7-0.2,1.4,0.1,2c-1.9,0.4-3.7,1-5.5,1.8c-0.2-0.1-0.4-0.1-0.6-0.2c-0.7-0.1-1.3-0.2-1.9-0.2 c-1.8,0-2.9,0.7-2.9,0.7c-1.2,0.4-1.8,1.6-1.4,2.8c0.1,0.3,0.3,0.6,0.3,0.6c-3.1,2.4-5.5,4.8-7.3,7.2l-1,1 c-0.5,0.4-0.7,1.1-0.6,1.8c-2.6,4.2-3.9,8.4-5.1,11.6l-2.5,0.7c-1.2,0.3-1.8,1.5-1.5,2.7c0.2,0.7,0.8,1.3,1.5,1.5 c0,0.1-0.1,0.1-0.1,0.2C2.5,50,6.4,54.4,10.6,55.3C13.8,69,24.2,91.8,58.2,94.2c0,0.1,0,0.1,0,0.2c-0.1,0.4-0.2,0.9-0.3,1.3 c-0.2,0.8-0.5,1.6-0.7,2.4c-14.6,1.2-25.4,5.8-25.4,11.3v0.1c0,0.1,0,0.3,0,0.4c0,0.6,0,1.3,0,1.6c0,6.4,14.7,11.6,32.7,11.6 s32.7-5.2,32.7-11.6c0-0.3,0-1.3,0-1.9c0-0.1,0-0.1,0-0.2v-0.1c0-5.5-10.8-10.1-25.2-11.3c0-0.1-0.1-0.2-0.1-0.3 c-0.4-1.2-0.7-2.4-0.9-3.6c31.8-2.4,42.9-22.6,46.8-36.3c1.4-0.4,2.5-1.2,3.2-2.7C124.6,47.8,119.4,46.6,117.6,38z M112,10.3 l3.7,11.3l-12.2,4.1l-7.8-3.3l-2-6.2L112,10.3z M110.2,27.9c-0.1,0-0.2,0-0.4,0.1l-1.1,0.5c-0.4,0.1-0.8,0.1-1.1,0.1 c-1.1,0-2-0.4-2.1-1c0-0.1,0-0.2,0.1-0.4l4.2-1.4C109.7,26.5,109.8,27.2,110.2,27.9z M87.3,7.4c0-0.1,0-0.1,0-0.2 c0.1,0,0.2-0.1,0.6-0.2l1.4-0.2c0.1,0,0.1,0,0.2,0C91.9,6.9,93.1,8,93.1,9c0,0.9-1.5,1.6-2.9,1.8l-1.6,0.3c-0.3,0-0.6,0.1-0.8,0.1 c-0.1,0-0.2,0-0.4,0c-0.3,0-0.6-0.3-0.6-0.7C87.4,9.6,87.6,8.5,87.3,7.4z M72.3,9.3l0.2-1.5c0.8-2.2,2-3,2.8-3c0.1,0,0.3,0,0.4,0.1 c0.8,0.3,1.1,1.9,0.9,3.4l-0.2,1.6c-0.2,1.2-0.5,1.5-0.9,1.7l-0.2-0.1c-0.6-0.9-1.7-1.5-2.8-1.5c-0.1,0-0.1,0-0.2,0 C72.3,9.8,72.3,9.6,72.3,9.3z M64.6,11.3c0.2-0.2,0.5-0.2,0.8-0.2c0.6,0,1.2,0.3,1.5,0.8c0.5,0.8,0.2,1.8-0.5,2.3 c-1.9,0.8-7,2.9-8.7,2.9c-0.1-0.3-0.2-0.7-0.1-1c0.1-0.4,0.4-0.8,0.8-1L64.6,11.3z M40,7.5c0.2-0.7,0.9-1.1,1.6-1.1 c0.2,0,0.4,0,0.5,0.1L49,8.7c0.9,0.3,1.4,1.3,1.1,2.2c-0.2,0.7-0.9,1.2-1.6,1.2c-0.2,0-0.4,0-0.5-0.1l-7-2.4 C40.2,9.3,39.7,8.4,40,7.5z M27.9,12.8c0.2-0.3,0.4-0.5,0.7-0.6c0.1,0,0.2-0.1,0.3-0.1c0,0,0.8-0.5,2.3-0.5c0.5,0,1.1,0.1,1.6,0.2 c1.2,0.3,1.8,0.7,2.2,0.9l-5.6,1.8c-0.1,0-0.2,0.1-0.4,0.1c-0.5,0-1-0.3-1.2-0.8C27.8,13.4,27.8,13.1,27.9,12.8z M19.1,23.8 l4.4-3.6c0.1-0.1,0.3-0.2,0.5-0.2c0.5,0,1,0.3,1.4,0.8c0.5,0.7,0.7,1.6,0.2,2c-2.1,1.2-5.4,2.9-6.5,2.9 C18.7,25,18.7,24.2,19.1,23.8z M24.7,19.2c0.1,0,0.1,0,0.2,0.1C24.8,19.2,24.8,19.2,24.7,19.2z M9.8,39.6c-0.2-0.6,0.2-1.3,0.8-1.5 l5.7-1.6c0.1,0,0.2,0,0.3,0c0.5,0,1,0.3,1.1,0.9c0.2,0.6-0.2,1.3-0.8,1.5l-5.7,1.6c-0.1,0-0.2,0-0.3,0C10.4,40.4,9.9,40.1,9.8,39.6 z M82.2,59.4c-2.3,0-5.2-0.7-8-1.4l-0.6-0.1c-0.9-0.2-1.8-0.3-2.7-0.3c-3.3,0-5.8,1.6-9.2,4c-1,0.7-4.1,1.6-7.6,1.6 c-2.3,0-4.3-0.4-5.7-1.2c-0.5-0.3-1-0.5-1.4-0.8c-2.6-1.4-4.5-2.4-7-2.4c-2.2,0-4.8,0.8-9.6,2.8c-0.9,0.4-2.2,0.6-3.4,0.6 c-2.7,0-5-0.9-6.5-2.4c-0.5-0.5-0.9-1-1.3-1.4c-2.1-2.3-4.1-4.5-7.6-4.9c-1.3-0.1-3.1-0.8-3.7-2.3c-0.7-1.9,0.5-4.9,3.6-8.3 c0.5-0.6,1-1.2,1.4-1.9l4.2-1.2c1.2-0.3,1.8-1.5,1.5-2.7c-0.3-1-1.1-1.6-2.1-1.6c-0.2,0-0.4,0-0.6,0.1l-0.8,0.2 c0-0.1,0.1-0.2,0.1-0.3c1-2.7,2-5.7,3.8-8.8c0,0,0,0,0.1,0c1.9,0,7.2-3.1,7.2-3.1c0.9-0.8,0.9-2.3-0.1-3.4 c-0.3-0.4-0.8-0.7-1.3-0.9c1.3-1.2,2.8-2.5,4.5-3.7h-0.1c0.1,0,0.2,0,0.3-0.1l6.1-2c0.6-0.2,0.6-0.7,0.1-1.3 c1.8-0.6,3.5-1.1,5.3-1.4l6.4,2.1c0.3,0.1,0.6,0.1,0.9,0.1c1.1,0,2.2-0.7,2.5-1.8c0.1-0.3,0.2-0.7,0.1-1c3.9,0.2,7.4,1,10.2,1.9 l-3.5,2c-1.3,0.8-1.7,2.4-1,3.7C57,18,57.3,18,57.6,18c2.4,0,9.2-3,9.2-3c0.1,0,0.1,0,0.1-0.1c0.4,0.3,0.8,0.6,1.2,1 c0.1,0.4,0.3,0.8,0.7,1.2h-0.1c-0.7,0-1.4,0.3-1.8,0.9c-0.7,1-0.5,2.4,0.5,3.1c0,0,1.2,1.7,4.3,2c0.3,0,0.6,0,0.8,0 c1,0,1.7-0.2,2.2-0.4c2.6,3.4,4.3,6.9,5.4,10.1c-0.2,0-0.4,0-0.5,0c-0.6,0-0.9,0.3-1,0.9c-0.5-0.5-1.4-1.1-2.9-1.4 C75.3,32,74.6,32,74.1,32c-1.9,0-2.9,0.7-2.9,0.7c-1.2,0.4-1.8,1.6-1.4,2.8c0.3,0.9,1.2,1.5,2.1,1.5c0.2,0,0.5,0,0.7-0.1l5.6-1.9 c-0.2,0.2-0.3,0.3-0.5,0.4l-0.3,0.7c0.1,0.9,0.7,1.4,2.1,1.7l1.3,0.2c0.4,0.1,0.8,0.1,1.1,0.1c0.3,1.2,0.5,2.3,0.8,3.4 c0.8,3.5,2,5.9,3.1,7.8c1.6,3,2.3,4.3,0.5,8.1C85.8,58.5,84.9,59.4,82.2,59.4z M69.5,18.4l4.7,3.5c0,0,0,0,0.1,0.1 c-0.3,0.1-0.9,0.2-1.6,0.2c-0.2,0-0.5,0-0.7,0c-2.5-0.2-3.6-1.5-3.6-1.5c-0.1-0.1-0.1-0.1-0.2-0.2c-0.3-0.2-0.4-0.5-0.5-0.8 s0-0.6,0.2-0.9c0.2-0.3,0.6-0.5,1-0.5C69,18.1,69.3,18.2,69.5,18.4z M69.2,15.2c0.1-0.4,1-0.7,2-0.7c0.2,0,0.4,0,0.5,0l1.3,0.1 c0.8,0.1,1.1,0.3,1.2,0.5v0.1c-0.8,0.6-1.2,1.5-1.2,2.5c-0.1,0-0.2,0-0.2,0l-1.2-0.1C69.7,17,69,16,69.2,15.2z M76.8,19.5l0.2-0.1 c0.3,0.1,0.6,0.1,0.8,0.1c0.8,0,1.6-0.3,2.2-0.9c0.1,0,0.1-0.1,0.1-0.1c0.1,0,0.2,0.2,0.4,0.5l0.8,1.3c0.9,2.3,0.4,3.9-0.5,4.3 c-0.1,0-0.2,0.1-0.3,0.1c-0.7,0-1.8-0.8-2.5-2l-0.9-1.3C76.5,20.3,76.6,19.8,76.8,19.5z M81.9,37.2c-0.3,0-0.7,0-1-0.1l-1.3-0.2 c-0.8-0.1-1.1-0.4-1.2-0.6v-0.1c0.8-0.5,1.3-1.4,1.4-2.4c0.1,0,0.2,0,0.3,0l1.2,0.2c1.9,0.8,2.5,1.9,2.3,2.6 C83.4,37,82.6,37.2,81.9,37.2z M77.9,34.1L72.3,36c-0.1,0-0.3,0-0.4,0c-0.5,0-1-0.3-1.1-0.8c-0.1-0.3-0.1-0.6,0.1-0.9 c0.1-0.3,0.4-0.5,0.7-0.6c0.1,0,0.2-0.1,0.3-0.1c0,0,0.8-0.5,2.3-0.5c0.5,0,1.1,0.1,1.6,0.2C76.9,33.5,77.5,33.8,77.9,34.1z M119,54.2c-0.5,0.9-1.3,1.9-4,1.9c-2.3,0-5.2-0.8-8-1.5l-0.6-0.1c-1-0.2-1.9-0.4-2.7-0.4c-3.2,0-5.7,1.6-9.1,3.9 c-0.9,0.6-3.9,1.6-7.5,1.6c-0.1,0-0.1,0-0.2,0c0.4-0.4,0.7-0.8,0.9-1.4c3.6-7.5-1.6-8.5-3.4-17.2c-0.2-1.1-0.5-2.2-0.8-3.4 c0.3-0.2,0.6-0.5,0.7-0.8c0.4-1.1-0.2-2.4-1.8-3.4c-0.9-2.7-2.1-5.7-3.8-8.6c0.6,0.4,1.2,0.7,1.8,0.7c0.2,0,0.5,0,0.7-0.1 c1.5-0.6,2.2-2.8,1-5.7l-0.9-1.3c-0.4-0.6-0.8-0.9-1.2-0.9c-0.3,0-0.5,0.1-0.8,0.4c-0.5,0.4-1,0.6-1.6,0.6c-0.3,0-0.6,0-0.8-0.2 L76,18.6c-0.4,0.5-0.6,1.1-0.4,1.8c-0.6-0.7-1.1-1.4-1.8-2C74,18.2,74,18,74,17.7c0-0.8,0.3-1.4,1-1.8l0.3-0.7 c-0.2-0.9-0.8-1.4-2.2-1.5l-1.3-0.1c-0.2,0-0.4,0-0.6,0c-0.8,0-1.6,0.1-2.2,0.5c-0.3-0.2-0.6-0.4-0.9-0.7c0.2-0.7,0.1-1.3-0.3-1.9 c-0.4-0.7-1.2-1.2-2-1.3c1.9-1,3.8-1.7,5.7-2.2l-0.2,1.3c-0.2,1.2,0.2,1.8,1.2,1.8c0.9,0,1.7,0.5,2.1,1.3l0.9,0.4 c1-0.2,1.7-0.9,1.9-2.6l0.2-1.6c0.1-0.5,0.1-1,0-1.5C79,7,80.3,6.9,81.5,6.9c1.6,0,3.2,0.1,4.8,0.3c-0.1,0.2,0,0.5,0,0.8 c0.3,0.9,0.1,1.8-0.6,2.4c-0.1,1,0.5,1.9,1.5,2c0.2,0,0.3,0,0.5,0c0.3,0,0.6,0,1-0.1l1.6-0.3c1.7-0.3,3.8-1.2,3.8-2.8 c0-0.2,0-0.3-0.1-0.5c2.1,0.7,3.8,1.4,4.9,2.2c0.5,0.4,1,0.7,1.4,1.1l-7.2,2.3c-1,0.3-1.6,1.5-1.3,2.5l2,6.2c0.2,0.5,0.6,1,1.1,1.2 l7.8,3.3c0.2,0.1,0.5,0.2,0.8,0.2c0.2,0,0.4,0,0.6-0.1l0.3-0.1c0,0.1,0,0.1,0,0.2c0.2,1.1,1.3,1.8,3.1,1.8c0.4,0,0.9,0,1.4-0.2 l1.2-0.5c0.9-0.4,1.2-0.9,0.8-1.6c-0.4-0.6-0.4-1.4,0-2l0.6-0.2c2.4,4.8,3.3,9.5,4.1,13.2c0.7,3.6,2,6,3,7.9 C120.2,49.1,120.9,50.5,119,54.2z"/>
    <path d="M101.5,21.4c0.1,0,0.1,0,0.2,0c0.8,0,1.9-0.5,2.9-1.2c0.8,0.4,1.9,0.6,3.5,0.4c1.3-0.2,2.5-0.9,3.2-2 c0.6-0.9,0.8-1.9,0.5-2.7c-0.1-0.3-0.3-0.4-0.6-0.3c-0.3,0.1-0.4,0.4-0.3,0.6c0.2,0.5,0,1.3-0.4,1.9c-0.3,0.5-1.1,1.4-2.5,1.5 c-1,0.1-1.9,0.1-2.6-0.2c0.6-0.6,1-1.3,1.1-2c0.2-1-0.3-2-1.1-2.4c-0.7-0.4-1.5-0.2-2.1,0.4c-0.6,0.6-0.8,2.1-0.2,3.3 c0.1,0.2,0.3,0.5,0.6,0.8c-0.7,0.5-1.5,0.9-2.1,0.9c-1.5,0-2.5-0.5-3.4-1.9c-0.2-0.2-0.5-0.3-0.7-0.1c-0.2,0.2-0.3,0.5-0.1,0.7 C98.4,20.7,99.8,21.4,101.5,21.4z M104,16.1c0.2-0.2,0.4-0.3,0.6-0.3c0.1,0,0.2,0,0.3,0.1c0.4,0.2,0.7,0.7,0.6,1.4 c-0.1,0.5-0.5,1.1-1,1.6c-0.2-0.2-0.3-0.4-0.5-0.6C103.5,17.4,103.8,16.4,104,16.1z"/>
  </g>
</svg>