<svg width="128" height="128" xmlns="http://www.w3.org/2000/svg">
  <path d="M100,40c0-19.9-16.1-36-36-36S28,20.1,28,40c0,8.8,3.4,16.6,8.3,23c4.5,5.9,7.1,12.1,6.5,16.6C41.6,89.9,47.3,91.8,48,92 v5.6c-1.1,0.2-1.9,1.3-1.6,2.4l0.1,0.6c0.2,0.8,0.8,1.4,1.5,1.6v5.1c-1.1,0.2-1.9,1.3-1.6,2.4l0.1,0.6c0.2,0.8,0.8,1.4,1.5,1.6v0.1 l6.8,10.2c0.7,1.1,2,1.8,3.3,1.8h11.7c1.3,0,2.6-0.7,3.3-1.8L80,112v-4v-2.3c1-0.3,1.6-1.3,1.4-2.4l-0.1-0.6 c-0.1-0.7-0.7-1.3-1.3-1.5V96c1-0.3,1.6-1.3,1.4-2.4L81.3,93c-0.3-0.6-0.7-0.8-1.3-1c0.7-0.2,6.4-2.1,5.2-12.3 c-0.5-4.5,2-10.7,6.5-16.6C96.6,56.6,100,48.8,100,40z M69,86.6L68.6,89H61L50.3,52.9c1-0.5,1.9-1.3,2.5-2.3c1-1.7,1.8-3.3,2.4-4.6 c0.8,0,1.5,0,2.4-0.1c3.4-0.3,5.8-1.6,7.5-3.1c1.8,1.2,4,2.1,6.6,2.3c0.3,1.1,0.9,2.2,1.7,3.2c1.2,1.6,2.7,2.8,4.2,3.5 C75,59.6,70.6,74.3,69,86.6z M50.7,41.4c-0.7-0.8-0.8-2.1-0.3-3.4c0.1-0.3,0.5-0.7,0.9-0.8h0.1c0.3,0,0.6,0.2,0.9,0.5 c1.2,1.2,1.2,3,0.7,5C52,42.4,51.3,42,50.7,41.4z M63.8,33.4c0.4-0.4,0.6-0.5,0.7-0.5s0.4,0.2,0.7,0.7c0.4,0.6,0.6,2.1,0.4,2.8 c-0.2,0.6-0.5,1.3-0.9,2c-0.5-0.6-0.8-1.2-1.1-1.8C63.4,36,62.9,34.4,63.8,33.4z M74.3,42c0-0.2,0.1-0.4,0.2-0.6 c0.6-1.7,1.4-2.8,2.4-3.1c0.2-0.1,0.4-0.1,0.5-0.1c0.2,0,0.4,0,0.4,0.1c0.1,0.2,0.4,1,0,1.9C77.3,41.2,76.1,41.8,74.3,42z M82.2,80 c0.8,6.8-1.8,8.6-2.8,9h-7.9l0.2-2.1c1.6-12.3,6.1-27,8.7-34.6c1.5-0.2,5.5-0.8,7.7-3.2c1-1.1,1.4-2.4,1.4-3.8 c-0.2-2.6-1.7-3.7-3.2-4c-2.3-0.4-5.6,1.5-7.2,5.8c-0.2,0.5-0.4,1.1-0.7,1.8c-0.8-0.5-1.9-1.2-2.8-2.4c-0.3-0.4-0.6-0.9-0.9-1.5 c3.6-0.5,5.1-2.1,5.8-3.6c0.9-2,0.4-4.1-0.5-5.1c-0.8-0.9-2.2-1.2-3.5-1c-1.2,0.2-3.5,1.2-4.8,5.2c-0.2,0.5-0.3,1-0.3,1.6 c-1.7-0.2-3.1-0.8-4.3-1.5c0.8-1.2,1.2-2.3,1.5-3.1c0.5-1.5,0.2-3.9-0.7-5.2c-0.4-0.7-1.4-2-2.9-2.1c-0.8-0.1-2,0.1-3.2,1.4 c-1.5,1.6-1.8,4-0.8,6.4c0.4,1,1,2,1.9,3c-1.3,1-3,1.9-5.5,2.1c-0.4,0-0.8,0.1-1.2,0.1c0.8-3.8-0.3-6.1-1.6-7.4 c-1.1-1.1-2.4-1.5-3.7-1.3c-1.6,0.3-2.7,1.6-3.1,2.6c-1,2.3-0.7,4.7,0.8,6.5c0.9,1.1,2.1,1.8,3.6,2.2c-0.6,1.3-1.2,2.5-1.8,3.5 c-0.2,0.4-0.5,0.7-0.8,0.9l-0.2-0.7c-0.1-0.7-0.7-3.4-3-5.2c-1-0.8-2.4-1.1-3.7-1c-1.3,0.2-2.4,0.8-3.2,1.8c-1,1.2-1.1,2.7-0.4,4.2 c1.1,2.3,4.4,4.2,7.6,4.4c0.3,0,0.5,0,0.8,0L57.8,89h-9.3c-0.9-0.4-3.6-2.1-2.8-9c0.6-5.3-2-12.1-7.1-18.8C33.7,54.6,31,47.3,31,40 C31,21.8,45.8,7,64,7s33,14.8,33,33c0,7.3-2.7,14.6-7.7,21.2C84.1,67.9,81.5,74.8,82.2,80z M81.5,49.1c0.1-0.4,0.2-0.7,0.3-0.9 c1-2.6,2.8-3.9,3.8-3.9c0.1,0,0.1,0,0.2,0c0.4,0,0.6,0.4,0.6,1.2c0,0.6-0.2,1.1-0.6,1.6C84.9,48.1,83.1,48.7,81.5,49.1z M46.5,50.5 c-2.2-0.2-4.2-1.5-4.8-2.7c-0.2-0.4-0.2-0.7,0.1-1.1c0.3-0.4,0.7-0.6,1.2-0.7c0.1,0,0.2,0,0.3,0c0.4,0,0.9,0.1,1.2,0.4 c1.5,1.2,1.8,3.3,1.8,3.3c0,0.1,0,0.1,0,0.2L46.5,50.5z"/>
</svg>