<svg viewBox="0 0 128 128" xmlns="http://www.w3.org/2000/svg">
  <g>
    <ellipse cx="39.7" cy="59.3" rx="4.8" ry="5"/>
    <ellipse cx="72.3" cy="59.3" rx="4.8" ry="5"/>
    <path d="M64.2,76.2c-3.1,1.9-13.4,1.9-16.5,0c-1.8-1.1-3.6,0.6-2.9,2.2c0.7,1.6,6.3,5.3,11.2,5.3c4.8,0,10.3-3.7,11.1-5.3 C67.8,76.7,66,75.1,64.2,76.2z"/>
    <path d="M56,72.6c2.8,0,4.2-2,4.5-2.6c0.3-0.7,0-1.3-0.7-1.6c-0.1,0-0.2-0.1-0.3-0.1h-6.9c-0.1,0-0.2,0-0.3,0.1 c-0.6,0.2-1,0.9-0.7,1.6C51.8,70.7,53.2,72.6,56,72.6z"/>
    <path d="M113.2,81.5l-3,1.7l1.4,7l7.6-0.1l4.1-11.7l-13.3-11.2L95.5,78.6l7.4,15.4c-0.3,1.1-1.1,4.4-2,8c-3,0.1-5.2,0.8-6.8,1.7 c-1.4-0.7-2.9-1.4-4.5-2c0.6-0.7,1.1-1.4,1.5-2.1c4.2-7.6,4.9-17.7,2.1-25.9c-0.2-0.7-0.5-1.5-0.7-2.3c7.3-2.9,12.2-6.7,13.7-11 c0.3-0.7,0.6-2.2,0.6-2.5c0.1-0.6,0-1.2,0-2c-0.1-0.7-0.2-1.5-0.4-2.2c-0.2-0.8-0.5-1.7-0.8-2.5c-0.4-1-0.8-1.9-1.2-2.8 c-0.5-1-1.1-2-1.7-3c-0.7-1-1.4-2.1-2.2-3.2c-0.8-1.1-1.8-2.2-2.8-3.2c-1-1.1-2.2-2.2-3.3-3.2c-0.6-0.5-1.2-1.1-1.9-1.6 c-0.7-0.5-1.3-1-2-1.5c-0.7-0.5-1.5-1-2.2-1.5c-0.8-0.5-1.5-1-2.3-1.4c-0.3-0.2-0.7-0.4-1.1-0.6c-3.6-5.1-8.1-9.6-11.2-12.7 c0.3,0,5.4,3.5,9.1,3.5c1.3,0,2.4-0.4,3-1.6c0.3-0.5,2.5-5.1-14-11.8C67.1,4.6,57.1,4,57.1,4s-24.2,6.4-30.4,25.1 c-0.4,0.2-0.8,0.4-1.1,0.6c-0.8,0.4-1.5,0.9-2.4,1.4c-0.7,0.5-1.5,1-2.2,1.5c-0.7,0.5-1.3,1-2.1,1.5c-0.7,0.5-1.3,1.1-1.9,1.6 c-1.2,1-2.3,2.1-3.3,3.2c-1,1.1-1.9,2.2-2.8,3.2c-0.8,1-1.5,2.1-2.2,3.2c-0.6,1-1.2,2-1.7,3c-0.4,0.9-0.8,1.8-1.2,2.8 c-0.3,0.9-0.6,1.7-0.8,2.5c-0.2,0.8-0.3,1.6-0.4,2.2c0,0.2,0,0.4,0,0.6c-0.1,0.4-0.1,0.8-0.1,1.3c0,5.5,5.7,10.4,15.1,13.9 c0.4-1.4,0.7-3,1.1-4.7c-1.2-1.8-2-4.1-2-6.5c0-2.1,0.6-4,1.5-5.7c0.6-0.3,1.2-0.6,1.9-0.9c0.1-0.1,0.3-0.1,0.4-0.2 c-0.1,5.3-2,15.5-3.6,20.2c-2.5,7.7-2.1,17.1,1.4,24.4c0.4,0.7,0.9,1.5,1.6,2.4c-8.8,3.1-15.5,7.8-17.9,14.5v8.7h52.8l0.1-0.6 l-1.8-1.5c0.3,0,0.6,0,0.9,0c2.9,0,5.8-0.5,7.5-1.4c0.6-0.3,1.3-0.7,2-1.1l1,0.1l-3,3.5l0.3,1.1h25.6c-1.2-1.9-1.6-4.4-1.3-7.5 c0.3-2.9,1.1-5,2.1-6.7c0,0,0,0,0,0c0,0,0.1-0.1,0.1-0.1c0.8-1,3.8-3.6,6.5-4.7c2.4-0.9,3.8-1.2,5.7-1.2c0.6,0,2.3,0.3,3,0.5 c1.2,0.2,2.7,0.7,3.9,1c0.6,0.2,1.1,0.3,1.4,0.4c0.8,0.2,1.4,0.6,1.6,1.1c0.1,0.4,0.1,1.2-0.3,1.8c-0.5,0.6-2.6,0.7-3.9,0.3 c-1.8-0.6-3.7-1.4-5.6-0.9c-1.4,0.3-3.1,1.2-3.7,2.6c-0.5,1.2-0.1,4.4-1.9,6.4c-0.1,0.1-0.2,0.3-0.3,0.4c-0.9,0.8-3.1,1.9-3.1,1.9 s1.9,0.4,3.3,0c-0.3,1.5-0.6,3.1-1,4.7h6.3c-0.9-0.4-1.4-1.3-1.3-2.3c0-0.3,0.1-0.5,0.2-0.7c0.5,0.3,1.1,0.5,1.7,0.6l7,0.7 c0.1,0,0.3,0,0.4,0c0.2,0,0.4,0,0.6,0c0.1,0.3,0.1,0.6,0.1,1c0,0.3-0.1,0.5-0.3,0.8h2.1c0-0.2,0.1-0.3,0.1-0.5c0.1-0.7,0-1.4-0.2-2 c0.1,0,0.1-0.1,0.2-0.1c0.8-0.7,1.4-1.6,1.5-2.7s-0.2-2.1-0.9-3c-0.1-0.2-0.3-0.3-0.5-0.5c0.8-0.7,1.3-1.7,1.3-2.8 c0-1-0.3-1.9-0.9-2.7c0.1-0.1,0.1-0.1,0.2-0.1c0.9-1.1,1.2-2.2,0.8-3.3c-0.4-1.1-1.5-2-3-2.3c-0.3-0.1-0.7-0.2-1.3-0.4 c0,0-0.1,0-0.1,0l2.6-8.5l-7.9-14.2l4.4-3.6l5.4,4.4l0,0.1L113.2,81.5z M91.4,66.9c-0.9-4.4-1.7-9.4-1.8-12.7 c0.9,0.4,1.7,0.8,2.5,1.2c0.8,1.5,1.2,3.3,1.2,5.2C93.3,62.9,92.6,65.1,91.4,66.9z M92.4,71.3c-0.2-0.6-0.3-1.3-0.5-2 C92.1,70,92.3,70.7,92.4,71.3z M91.9,69.2c-0.1-0.3-0.2-0.7-0.2-1C91.8,68.5,91.8,68.9,91.9,69.2z M91.6,68.1 c-0.1-0.4-0.2-0.7-0.2-1.1C91.5,67.3,91.6,67.7,91.6,68.1z M22,116.6l-3-0.5l-2.2,2.2l-0.4-3l-2.8-1.4l2.8-1.4l0.4-3l2.2,2.2l3-0.5 l-1.4,2.7L22,116.6z M33.7,119.5l-0.3,2.7l-2-1.9l-2.6,0.6l1.2-2.5l-1.3-2.3l2.7,0.3l1.8-2l0.5,2.7l2.5,1.1L33.7,119.5z M30.7,109 c0.4,0.3,0.9,0.7,1.3,1l-1.1,1L30.7,109z M62,117.9c-1.2,0.7-3.6,1.1-6.1,1.1c-2.6,0-5-0.4-6.2-1.1c-14.2-7.9-24.8-16.8-26.7-20.7 c-3.1-6.4-3.6-15.1-1.3-22.2c1.8-5.5,4-17.1,3.7-22.3c0,0,0,0,0,0c0.3-0.1,0.7-0.3,1-0.4c0.8-0.3,1.6-0.6,2.4-0.9 c0.8-0.3,1.7-0.6,2.5-0.8c0.5-0.2,1.1-0.3,1.6-0.5c-0.2,0.3-0.3,0.4-0.3,0.4c-0.3,0.4-0.4,1-0.2,1.5c0.3,0.8,1.3,1.2,2.1,0.9 c0,0,0.2-0.1,0.6-0.3c0.1,0,0.2-0.1,0.3-0.1c0.1,0,0.2,0,0.3-0.1c0.1,0,0.2-0.1,0.3-0.1c0.1,0,0.2-0.1,0.4-0.1 c0.1,0,0.2-0.1,0.4-0.1c0.1,0,0.3-0.1,0.4-0.1c0.1,0,0.2,0,0.2-0.1c0.1,0,0.2,0,0.2,0c0.2,0,0.3-0.1,0.5-0.1c0.3,0,0.6-0.1,1-0.1 c0.3,0,0.7,0,1,0c0.3,0,0.7,0,1,0c0.3,0,0.7,0.1,1,0.1c0.2,0,0.3,0.1,0.5,0.1c0.1,0,0.1,0,0.2,0c0.1,0,0.2,0,0.2,0.1 c0.1,0,0.3,0.1,0.4,0.1c0.1,0,0.3,0.1,0.4,0.1c0.3,0.1,0.5,0.2,0.7,0.2c0.1,0,0.2,0.1,0.3,0.1c0.1,0,0.2,0.1,0.2,0.1 c0.3,0.1,0.5,0.2,0.5,0.2l0.3,0.1c0.5,0.2,1,0.1,1.4-0.2c0.7-0.5,0.9-1.5,0.4-2.1c0,0-0.2-0.2-0.5-0.6c-0.1-0.1-0.2-0.2-0.3-0.3 c-0.1-0.1-0.2-0.2-0.3-0.3c-0.1-0.1-0.2-0.2-0.4-0.3c-0.1-0.1-0.3-0.2-0.5-0.3s-0.3-0.2-0.5-0.3c-0.2-0.1-0.4-0.2-0.6-0.3 c-0.2-0.1-0.4-0.2-0.7-0.3c-0.1,0-0.1,0-0.2-0.1c0.7-0.1,1.4-0.2,2.1-0.3c1-0.1,2.1-0.2,3.2-0.3c1.1-0.1,2.2-0.2,3.3-0.2 c1.1,0,2.2-0.1,3.3-0.1s2.2,0,3.3,0.1c1.1,0,2.2,0.1,3.3,0.2c1.1,0.1,2.1,0.2,3.2,0.3c0.9,0.1,1.8,0.3,2.8,0.4 c-0.2,0.1-0.4,0.2-0.6,0.3c-0.2,0.1-0.4,0.2-0.6,0.3c-0.2,0.1-0.3,0.2-0.5,0.4c-0.2,0.1-0.3,0.2-0.5,0.3c-0.1,0.1-0.3,0.2-0.4,0.3 s-0.2,0.2-0.3,0.3c-0.1,0.1-0.2,0.2-0.3,0.3c-0.3,0.4-0.4,0.6-0.4,0.6c-0.3,0.4-0.4,0.9-0.2,1.4c0.3,0.8,1.2,1.2,2,1l0.3-0.1 c0,0,0.2-0.1,0.5-0.2c0.1,0,0.2-0.1,0.2-0.1c0.1,0,0.2-0.1,0.3-0.1c0.2-0.1,0.4-0.2,0.7-0.2c0.1,0,0.2-0.1,0.4-0.1 c0.1,0,0.3-0.1,0.4-0.1c0.1,0,0.1,0,0.2-0.1c0.1,0,0.2,0,0.2,0c0.1,0,0.3-0.1,0.5-0.1c0.3,0,0.6-0.1,1-0.1c0.3,0,0.7,0,1-0.1 c0.3,0,0.7,0,1,0.1c0.3,0,0.7,0.1,1,0.1c0.1,0,0.3,0.1,0.5,0.1c0.1,0,0.2,0,0.2,0c0.1,0,0.1,0,0.2,0.1c0.1,0,0.3,0.1,0.4,0.1 c0.1,0,0.3,0.1,0.4,0.1c0.1,0,0.2,0.1,0.4,0.1c0.1,0,0.2,0.1,0.3,0.1c0.1,0,0.2,0.1,0.3,0.1c0.1,0,0.2,0.1,0.3,0.1 c0.3,0.2,0.6,0.3,0.6,0.3c0.5,0.2,1,0.2,1.5-0.1c0.7-0.5,0.9-1.5,0.4-2.2c0,0,0,0-0.1-0.1c0.2,0.1,0.4,0.1,0.6,0.2 c0.9,0.3,1.7,0.6,2.5,0.8c0.8,0.3,1.6,0.6,2.4,0.9c0.6,0.3,1.3,0.5,1.9,0.8c-0.1,5.3,2,16.4,3.7,21.6c2.6,7.7,1.8,16.9-1.9,23.6 C85.7,103,72.6,112.2,62,117.9z M78.8,113.4l-0.8,3.2l-2.1-2.6l-1.8,0.1c1.8-1.1,3.5-2.4,5.2-3.6l2.6,1.7L78.8,113.4z M100.9,111.8 c0-0.6,0.3-1.1,0.7-1.5c0.4-0.4,0.9-0.5,1.4-0.5c0,0,0.1,0,0.1,0l4.1,0.2c0.1,0,0.1,0,0.2,0c1,0.3,2.5,0.6,3.9,0.5 c0.1,0.1,0.2,0.2,0.3,0.3c0.4,0.4,0.6,1,0.5,1.5c-0.1,1.2-1,2.1-2.2,2l-7-0.3c-0.6,0-1.1-0.3-1.5-0.7S100.8,112.4,100.9,111.8z M112.1,118.5c-0.1,0.6-0.3,1.1-0.8,1.4c-0.4,0.4-1,0.5-1.5,0.5l-7-0.7c-0.6-0.1-1.1-0.3-1.4-0.8s-0.5-1-0.5-1.5v0 c0.1-0.7,0.4-1.2,1-1.5c0.3,0.1,0.6,0.1,0.9,0.1l7,0.3c0.1,0,0.1,0,0.2,0c0.2,0,0.3,0,0.5,0c0.5,0.1,0.9,0.3,1.2,0.7 C111.9,117.4,112.1,117.9,112.1,118.5z"/>
  </g>
</svg>