<svg viewBox="0 0 128 128" xmlns="http://www.w3.org/2000/svg">
  <g>
    <path d="M29.9,52.5c0.1,0,0.3-0.1,0.4-0.1s0.3-0.1,0.4-0.1c0.1-0.1,0.1-0.1,0.2-0.1c0,0,0.1,0,0.2,0c0.2,0,0.3-0.1,0.5-0.1 c0.3,0,0.7-0.1,1-0.1s0.7,0,1,0s0.7,0,1,0s0.7,0.1,1,0.1c0.2,0,0.3,0.1,0.5,0.1c0,0,0.1,0,0.2,0c0,0.1,0.1,0.1,0.2,0.1 s0.3,0.1,0.4,0.1c0.1,0,0.3,0.1,0.4,0.1c0.3,0,0.5,0.1,0.7,0.2c0.1,0,0.2,0.1,0.3,0.1c0,0,0.1,0.1,0.2,0.1c0.3,0.1,0.5,0.2,0.5,0.2 l0.3,0.1c0.4,0.2,1,0.1,1.4-0.2c0.7-0.5,0.9-1.5,0.4-2.2c0,0-0.2-0.2-0.5-0.6c-0.1-0.1-0.2-0.2-0.3-0.3c-0.1-0.1-0.2-0.2-0.3-0.3 c-0.1-0.1-0.2-0.2-0.4-0.3c-0.2-0.1-0.3-0.2-0.5-0.3c-0.1-0.1-0.3-0.2-0.5-0.3c-0.2-0.1-0.4-0.2-0.6-0.3c-0.2-0.1-0.5-0.2-0.7-0.3 c-0.2-0.1-0.5-0.2-0.7-0.3c-0.5-0.2-1-0.3-1.5-0.4c-0.5-0.1-1.1-0.1-1.6-0.1s-1.1,0-1.6,0.1c-0.5,0.1-1,0.3-1.5,0.4 c-0.2,0.1-0.4,0.2-0.7,0.3c-0.3,0.1-0.5,0.2-0.7,0.3c-0.2,0.1-0.4,0.2-0.6,0.3c-0.2,0.1-0.3,0.2-0.5,0.3c-0.2,0.1-0.4,0.2-0.5,0.3 c-0.1,0.2-0.2,0.3-0.4,0.4c-0.2,0.1-0.3,0.2-0.4,0.3c-0.1,0.1-0.1,0.2-0.2,0.3c-0.3,0.3-0.4,0.5-0.4,0.5c-0.3,0.4-0.4,1-0.1,1.4 c0.3,0.9,1.3,1.2,2.1,0.9c0,0,0.2-0.1,0.6-0.2c0.1,0,0.2-0.1,0.3-0.1c0.1,0,0.2-0.1,0.3-0.1c0.1,0,0.2-0.1,0.3-0.1 C29.7,52.6,29.8,52.5,29.9,52.5z"/>
    <ellipse cx="34.2" cy="58.9" rx="4.9" ry="5.1"/>
    <path d="M71.2,52.8c0.1,0,0.2,0.1,0.3,0.1c0.4,0.2,0.6,0.3,0.6,0.3c0.4,0.2,1,0.1,1.6-0.2c0.7-0.5,0.9-1.5,0.4-2.2 c0,0-0.2-0.2-0.4-0.5c0-0.1-0.1-0.2-0.2-0.3c-0.1-0.1-0.3-0.2-0.4-0.3c-0.1-0.1-0.2-0.3-0.4-0.4c-0.2-0.1-0.3-0.2-0.5-0.3 c-0.1-0.1-0.3-0.2-0.5-0.3c-0.2-0.1-0.4-0.2-0.6-0.3c-0.3-0.1-0.5-0.2-0.7-0.3c-0.2-0.1-0.5-0.2-0.7-0.3c-0.4-0.2-1-0.3-1.5-0.4 c-0.5-0.1-1-0.1-1.6-0.1c-0.5,0-1.1,0-1.6,0.1c-0.5,0.1-1,0.3-1.5,0.4c-0.2,0.1-0.4,0.2-0.7,0.3c-0.3,0.1-0.5,0.2-0.7,0.3 c-0.2,0.1-0.4,0.2-0.6,0.3S61.2,48.9,61,49s-0.4,0.2-0.5,0.3c-0.1,0.1-0.3,0.2-0.4,0.3c-0.1,0.1-0.2,0.2-0.3,0.3 c-0.1,0.1-0.2,0.2-0.3,0.3c-0.3,0.4-0.5,0.6-0.5,0.6c-0.3,0.4-0.4,0.9-0.2,1.4c0.3,0.8,1.2,1.3,2,1l0.3-0.1c0,0,0.2-0.1,0.5-0.2 c0,0,0.1-0.1,0.2-0.1s0.2-0.1,0.3-0.1c0.2,0,0.4-0.1,0.7-0.2c0.1,0,0.3-0.1,0.4-0.1c0.1,0,0.2-0.1,0.4-0.1c0-0.1,0.1-0.1,0.2-0.1 c0,0,0.1,0,0.2,0c0.2,0,0.3-0.1,0.5-0.1c0.3,0,0.7-0.1,1-0.1s0.7,0,1,0s0.7,0,1,0s0.7,0.1,1,0.1c0.2,0,0.3,0.1,0.5,0.1 c0,0,0.1,0,0.2,0c0,0.1,0.1,0.1,0.2,0.1c0.1,0,0.3,0.1,0.4,0.1s0.2,0.1,0.4,0.1s0.3,0.1,0.4,0.1c0.1,0,0.2,0.1,0.3,0.1 C71,52.7,71.1,52.8,71.2,52.8z"/>
    <ellipse cx="65.3" cy="58.9" rx="4.9" ry="5.1"/>
    <path d="M50,72.4c2.8,0,4.2-2,4.5-2.7c0.4-0.7,0-1.3-0.6-1.6c-0.1,0-0.2-0.1-0.3-0.1h-7.1c-0.1,0-0.2,0-0.3,0.1 c-0.6,0.3-1,0.9-0.7,1.6C45.8,70.4,47.2,72.4,50,72.4z"/>
    <path d="M58.5,76.2c-3.2,1.9-13.6,1.9-16.8,0c-1.8-1.1-3.7,0.6-2.9,2.2c0.8,1.6,6.5,5.4,11.4,5.4c4.9,0,10.5-3.8,11.3-5.4 C62.2,76.8,60.4,75.1,58.5,76.2z"/>
    <path d="M67.6,28.1c0.5,0,1-0.4,1-0.8v-4.7c0-0.5-0.4-0.8-1-0.8c-0.6,0-1,0.4-1,0.8v4.7C66.6,27.8,67,28.1,67.6,28.1z"/>
    <path d="M58.3,29.9c0.5,0,1-0.3,1-0.8v-8.4c0-0.5-0.5-0.8-1-0.8s-1,0.4-1,0.8v8.4C57.3,29.6,57.8,29.9,58.3,29.9z"/>
    <path d="M50,28.4c0.5,0,1-0.3,1-0.8v-5.4c0-0.5-0.5-0.8-1-0.8s-1,0.4-1,0.8v5.4C49,28.1,49.5,28.4,50,28.4z"/>
    <path d="M32.4,21.8c-0.5,0-1,0.4-1,0.8v4.7c0,0.5,0.5,0.8,1,0.8c0.6,0,1-0.4,1-0.8v-4.7C33.4,22.1,32.9,21.8,32.4,21.8z"/>
    <path d="M42.7,20.7c0-0.5-0.5-0.8-1-0.8s-1,0.4-1,0.8v8.4c0,0.5,0.5,0.8,1,0.8c0.6,0,1-0.3,1-0.8V20.7z"/>
    <path d="M123.9,55.5c-0.4-1.6-1.9-2.9-3.2-3.9c-2-1.7-4.6-3-7.3-3h-0.2c-1.2,0-2.5,0.4-3.6,0.9c-1.5,0.7-2.5,1.8-3.2,3 c-0.1,0.2-0.2,0.5-0.3,0.7h-1c-1.1,0-2.1,0.8-2.4,1.9c-0.6,0.3-1.1,0.7-1.6,1.2c-1.6,1.6-2.5,3.7-2.5,6l-0.4,26.1 c-0.7,0.4-1.2,1.1-1.2,1.8l0,1.6c-1.1,0.7-1.8,1.9-1.8,3.3l-0.1,6.9c-2.6,0.2-4.5,0.8-6,1.6c-6.6-3.5-15.2-5.8-24.5-6.9 c-0.1-0.1-5.5-0.6-5.5-0.6V95c9.6-2.8,18.1-10.3,22-22.5c4-1.7,6.9-5.8,6.9-10.6c0-2.3-0.7-4.5-1.8-6.3c0.1-0.6,0.3-1.7,0.4-3.1 c0.1,0.1,0.2,0.1,0.4,0.2c3.6,3.6,5.2,6.4,5.2,6.4c0.1,0,0.1-0.1,0.2-0.1c0,0,0,0,0,0c1.1-0.6,1.5-1.9,1.7-2.5 c0.1-0.2,0.1-0.4,0.1-0.4l-2.1-12c2.1-0.1,3.9-1.8,3.9-4v-8c0-2.3-1.8-4-4-4h-2.9l-7.6-19c-0.6-1.2-1.6-2.2-3-3c-0.1,0-0.1,0-0.2,0 c-0.1,0-0.2,0-0.3,0.1l-0.1,0.2C74.7,5.9,61.5,4.1,50,4.1c-17.5,0-25.7,1.5-28,2.1C22,6,21.9,6,21.8,6h-0.1 c-1.5,0.9-2.6,1.9-3.2,3.1l-7.7,19H8c-2.2,0-4,1.8-4,4v8c0,2.2,1.8,4,4,4L6,56.2c0,0,0,0.2,0.1,0.4c0,0,0,0.1,0,0.1 c0.1,0.7,0.6,1.8,1.7,2.4c0,0,0.8-1.3,2.4-3.2c0,0,0-0.1,0-0.2c0.8-1,1.9-2.2,3.2-3.4c0.1,1.5,0.3,2.7,0.4,3.3 c-1.1,1.8-1.8,4-1.8,6.3c0,4.8,2.9,9,6.9,10.6C22.8,84.7,31.4,92.2,41.1,95v1l-5.4,0.5l-0.1,0.1c-13,1.5-24.8,5.1-31.6,11.3V124 h44.4c-1.5-5.6-3.6-13.7-5.1-19.4h0.2c-0.3-0.7-0.4-1.4-0.4-2.2v-6.9c2.3,0.5,4.6,0.8,6.9,0.8c2.4,0,4.8-0.3,7.1-0.8v6.9 c0,0.8-0.2,1.5-0.4,2.2h0.2L51.8,124h32.5c-1.2-1.9-1.6-4.4-1.3-7.4c0.4-3.4,1.4-5.7,2.6-7.4c0-0.1,0-0.1,0-0.2 c1.4-1.6,3.6-3.1,6-3.9c2.4-0.9,3.8-1.2,5.7-1.2c0.6,0,2.3,0.3,3,0.5c1.2,0.2,2.7,0.7,3.9,1c0.6,0.2,1.1,0.3,1.4,0.4 c0.8,0.2,1.4,0.6,1.6,1.1c0.1,0.4,0.1,1.2-0.3,1.8c-0.5,0.6-2.6,0.7-3.9,0.3c-1.8-0.6-3.7-1.4-5.6-0.9c-1.4,0.3-3.1,1.2-3.7,2.6 c-0.6,1.2-0.2,4.3-1.8,6.4c-0.1,0.1-0.2,0.3-0.4,0.4c-0.9,0.8-3.1,1.9-3.1,1.9s2.5,0.5,3.9-0.2c0.6-0.4,1.2-0.9,1.6-1.4 c0,0.6,0.2,1.3,0.5,1.8c-0.4,0.5-0.7,1.1-0.8,1.8c-0.1,0.7,0,1.4,0.2,2.1c-0.2,0.2-0.4,0.4-0.6,0.6h3.7c-0.4-0.2-0.7-0.4-1-0.8 c-0.3-0.5-0.5-1-0.4-1.6c0-0.2,0.1-0.4,0.2-0.6c0.5,0.3,1.1,0.6,1.7,0.6l6.9,0.7c0.1,0,0.3,0,0.4,0c0.2,0,0.4,0,0.6-0.1 c0.1,0.3,0.1,0.6,0,0.9c-0.1,0.3-0.2,0.5-0.3,0.8h2.2c0-0.1,0.1-0.3,0.1-0.4c0.1-0.7,0-1.4-0.2-2c0.8-0.7,1.5-1.6,1.6-2.7 c0.2-1.3-0.4-2.6-1.4-3.5c0,0,0,0,0.1-0.1c0.8-0.7,1.3-1.7,1.3-2.8c0.1-1-0.2-1.8-0.7-2.5c0,0,0.1-0.1,0.1-0.1 c0.8-1.2,1.1-2.4,0.7-3.5c-0.4-1.1-1.5-2-3-2.3c-0.2-0.1-0.4-0.1-0.6-0.2l0.1-8.7c0-1.4-0.6-2.6-1.6-3.3l0-1.6v0 c0-0.7-0.4-1.3-1-1.7l0.4-26.1c0-0.8,0.3-1.5,0.7-2.1c0.3,0.1,0.7,0.2,1,0.2h1.5c0.1,0,0.1,0,0.2,0c0.3,0,0.6-0.1,0.9-0.2 c1.5,1.7,3.6,2.6,6,2.6c1,0,2-0.2,3-0.5C119.2,61.6,124.8,58.8,123.9,55.5z M81.9,69.9c0.7-2.7,1.2-5.6,1.4-8.8 c0.7-1.1,1.3-2.3,1.8-3.2c0.5,1.2,0.8,2.6,0.8,4C86,65.3,84.4,68.2,81.9,69.9z M89.8,30.1H92c1.1,0,2,0.9,2,2v8c0,1.1-0.9,2-2,2 h-0.2L90,31.6c-0.1-1.1-0.3-2.1-0.7-3.1C89.5,29,89.7,29.5,89.8,30.1z M8.3,42.1H8c-1.1,0-2-0.9-2-2v-8c0-1.1,0.9-2,2-2h2.2 C10.1,30.6,10,31,10,31.5L8.3,42.1z M14,61.9c0-1.4,0.3-2.8,0.8-4c0.5,0.9,1.2,2.1,1.9,3.3c0.2,3.1,0.7,6,1.4,8.7 C15.6,68.2,14,65.3,14,61.9z M10,50.9l3-18.8c0-0.1,0-0.2,0-0.3c0-0.7,0.2-1.5,0.5-2.1l7.8-19.2c0.2-0.3,0.4-0.5,0.7-0.8v5.7 c0,1,0.8,1.8,1.7,1.8h52.5c1,0,1.7-0.8,1.7-1.8V9.5c0.3,0.3,0.7,0.6,0.9,0.9l7.8,19.2c0.3,0.7,0.4,1.4,0.5,2.1c0,0.1,0,0.2,0,0.3 l3.1,19.2c-5.1-6-15-13.7-32.7-17.4c-3.4-0.7-11.3-0.7-14.8,0C25.2,37.5,15.3,44.9,10,50.9z M50,94.3c-8.3,0-16-3.3-21.7-9.3 c-5.1-5.4-8.3-12.6-9.4-21.2c0.1-4.6,1.2-11,2.5-16.4c7.8-3.2,17.8-5.2,28.2-5.2c11.4,0,20.9,3,29.3,6.6C80,54,81,59.7,81,64 c-1.1,8.5-4.3,15.7-9.3,21C66,91,58.3,94.3,50,94.3z M95.9,111.9c0-0.6,0.3-1.1,0.7-1.4c0.4-0.3,0.8-0.5,1.4-0.5c0,0,0.1,0,0.1,0 l4,0.2c0.1,0,0.3,0.1,0.4,0.1c1,0.3,2.5,0.6,3.8,0.5c0.5,0.4,0.8,1,0.7,1.7c0,0.6-0.3,1.1-0.7,1.4c-0.4,0.4-0.9,0.6-1.5,0.5l-7-0.3 c-0.6,0-1.1-0.3-1.4-0.7C96,112.9,95.9,112.4,95.9,111.9z M107,118.6c-0.1,1.1-1.2,2-2.3,1.8l-6.9-0.7c-1.1-0.1-2-1.2-1.8-2.3 c0,0,0,0,0-0.1c0-0.5,0.3-1,0.6-1.3c0.1-0.1,0.2-0.1,0.3-0.2c0.3,0.1,0.6,0.1,0.8,0.1l7,0.3c0.1,0,0.2,0,0.2,0c0.1,0,0.1,0,0.2,0 l0,0C106.3,116.4,107.1,117.5,107,118.6z M116.1,61c-0.8,0.3-1.6,0.4-2.5,0.4c-2.6,0-5.4-1.4-6-4.7c-0.2-1.2-0.1-2.8,0.2-3.5 c0.5-1,1.4-1.8,2.5-2.3c0.9-0.4,2-0.7,2.9-0.7l0.2,0.1c2.1,0,4.3,1,6.2,2.6l0.2,0.1c1,0.9,2.2,1.9,2.5,3 C122.7,57.7,118.9,60.1,116.1,61z"/>
  </g>
</svg>