<svg width="128" height="128" xmlns="http://www.w3.org/2000/svg">
  <g>
    <circle cx="105.4" cy="77.2" r="5.2"/>
    <path d="M107.6,59.1c-0.8-0.1-1.5-0.1-2.2-0.1c-4.7,0-9.1,1.8-12.4,4.7c0-4.3-0.1-8.5-0.1-12.6c0,0,0,0,0,0s2.6-14.7,2.6-14.7 c5.1-3,7.2-7,7.2-12.6v-2C102.8,7.5,81.5,4,56.3,4C31.2,4,10,5.9,10,21.9v2c0,5.6,2.7,9.6,7.8,12.6c-0.1,0,0.1,0,0.1,0l1.7,14.9 c-0.1,16.4,0,35.3,3,49.3c-10.8,4-18.2,10.5-18.2,19.9v3.4h3v-3.4c0-11.4,13.8-18.1,31.1-20.7v3.4c0,0.8,0.5,1.5,1.2,1.5 c0,0,4.9,2,14.2,2.3c0.4,0.1,0.8,0.1,1.2,0.2v16.9h3v-16.9c0.3,0,0.6-0.1,0.9-0.1c9.5-0.3,14.5-2.3,14.5-2.3c0.6,0,1.2-0.7,1.2-1.5 V100c5.3,0.9,10.2,2.2,14.5,3.8c-1,0.6-1.8,1.2-2.5,1.9c-2.9,2.2-4.7,5.8-5.3,10.6c-0.3,3,0,5.6,1,7.7h2.2 c-1.2-1.9-1.6-4.4-1.3-7.5c0.3-2.9,1.1-5,2.1-6.7c0,0,0,0,0,0c0,0,0.1-0.1,0.1-0.1c0.8-1,3.8-3.6,6.5-4.7c2.4-0.9,3.8-1.2,5.7-1.2 c0.6,0,2.3,0.3,3,0.5c1.2,0.2,2.7,0.7,3.9,1c0.6,0.2,1.1,0.3,1.4,0.4c0.8,0.2,1.4,0.6,1.6,1.1c0.1,0.4,0.1,1.2-0.3,1.8 c-0.5,0.6-2.6,0.7-3.9,0.3c-1.8-0.6-3.7-1.4-5.6-0.9c-1.4,0.3-3.1,1.2-3.7,2.6c-0.5,1.2-0.1,4.4-1.9,6.4c-0.1,0.1-0.2,0.3-0.3,0.4 c-0.9,0.8-3.1,1.9-3.1,1.9s2.5,0.5,3.9-0.2c0.7-0.4,1.3-1,1.8-1.8c-0.1,0.8,0.1,1.6,0.5,2.3c-0.4,0.5-0.7,1.1-0.8,1.8 c-0.1,0.7,0,1.5,0.3,2.1c-0.2,0.2-0.3,0.3-0.5,0.5H97c-0.9-0.4-1.4-1.3-1.3-2.3c0-0.3,0.1-0.5,0.2-0.7c0.5,0.3,1.1,0.5,1.7,0.6 l7,0.7c0.1,0,0.3,0,0.4,0c0.2,0,0.4,0,0.6,0c0.1,0.3,0.1,0.6,0.1,1c0,0.3-0.1,0.5-0.3,0.8h2.9v-3.4c0.4-0.6,0.7-1.2,0.7-1.9 c0.1-1.1-0.2-2.1-0.9-3c-0.1-0.2-0.3-0.3-0.5-0.5c0.8-0.7,1.3-1.7,1.3-2.8c0-1-0.3-1.9-0.9-2.7c0.1-0.1,0.1-0.1,0.2-0.1 c0.9-1.1,1.2-2.2,0.8-3.3c-0.4-1.1-1.4-1.9-2.9-2.3l0.9-7.8c8.6-0.8,15.7-7.5,16.8-16.4C125.1,69.5,117.8,60.3,107.6,59.1z M95.9,111.8c0-0.6,0.3-1.1,0.7-1.5c0.4-0.4,0.9-0.5,1.4-0.5c0,0,0.1,0,0.1,0l4.1,0.2c0.1,0,0.1,0,0.2,0c1,0.3,2.5,0.6,3.9,0.5 c0.1,0.1,0.2,0.2,0.3,0.3c0.4,0.4,0.6,1,0.5,1.5c-0.1,1.2-1,2.1-2.2,2l-7-0.3c-0.6,0-1.1-0.3-1.5-0.7S95.8,112.4,95.9,111.8z M107.1,118.5c-0.1,0.6-0.3,1.1-0.8,1.4c-0.4,0.4-1,0.5-1.5,0.5l-7-0.7c-0.6-0.1-1.1-0.3-1.4-0.8s-0.5-1-0.5-1.5v0 c0.1-0.7,0.4-1.2,1-1.5c0.3,0.1,0.6,0.1,0.9,0.1l7,0.3c0.1,0,0.1,0,0.2,0c0.2,0,0.3,0,0.5,0c0.5,0.1,0.9,0.3,1.2,0.7 C106.9,117.4,107.1,117.9,107.1,118.5z M22.3,47.9l-1.1-9.6c3-0.8,15.5-4,35.1-4c22.4,0,35,4.2,35.1,4.2c0.2,0.1,0.3,0.1,0.5,0.1 c-0.4,2.2-1,5.6-1.5,8.6c-5.4-1.1-16.8-3-33.3-3C40.5,44.3,28.1,46.6,22.3,47.9z M13.1,23.9v-2c0-12.2,16.5-14.7,43.2-14.7 c29.1,0,43.2,4.8,43.2,14.7v2c0,4.6-1.6,7.5-5.7,9.8c-0.5,0.3-0.8,0.7-1.1,1.1c0,0-0.1,0-0.1-0.1c-0.5-0.2-13.2-4.4-36.4-4.4 c-20,0-32.6,3.2-36,4.1c-0.3-0.4-0.7-0.7-1.2-0.9C15,31.1,13.1,28.1,13.1,23.9z M63.3,95.4L63,95.5c-3.4,0.8-6.1,3.7-6.6,8.6 c-0.5-4.8-3.3-7.8-6.6-8.6l-0.6-0.1v-0.4c2.6,0.9,5.2,1.3,7.4,1.3c2.1,0,4.4-0.4,6.7-1.1V95.4z M86.5,60.6L85.8,69 c-4,13.1-13.6,20.9-22.1,23.9c-2.5,0.9-5,1.4-7.2,1.4c-2.2,0-4.7-0.5-7.2-1.4c-9-3.2-19.1-11.7-22.6-26c-0.1-2.3-0.2-4.4-0.2-6.2 c0-1.8-0.4-6.8,0.9-10.6c1.9-0.4,4.2-0.7,6.7-1.1c-0.3,0.3-0.5,0.5-0.7,0.8c-0.4,0.5-0.3,1.2,0,1.5c0.3,0.3,1,0.7,1.9,0.4 c0.9-0.3,2.5-1.2,5.3-1.2c2.8,0,4.5,0.9,5.3,1.2c0.9,0.3,1.6,0,1.9-0.4c0.3-0.4,0.4-1,0-1.5c-0.5-0.6-1.2-1.4-2.4-2 c3.6-0.2,7.5-0.4,11.7-0.4c4.1,0,7.9,0.1,11.4,0.3c-1.3,0.6-2.1,1.4-2.6,2.1c-0.4,0.5-0.3,1.2,0,1.5c0.3,0.3,1,0.7,1.9,0.4 c0.9-0.3,2.5-1.2,5.3-1.2c2.8,0,4.5,0.9,5.3,1.2c0.9,0.3,1.6,0,1.9-0.4c0.3-0.4,0.4-1,0-1.5c-0.3-0.3-0.6-0.7-1.1-1.1 c2.6,0.3,4.9,0.7,6.8,1C86.7,53.3,86.5,58.1,86.5,60.6z M97.4,102c-1.6,0-3.1,0.1-4.3,0.3c-0.9-0.4-1.7-0.8-2.7-1.1 c0.7-3.3,1.2-6.9,1.6-10.7c2.3,2.3,5.1,4.1,8.4,5l-1.1,6.7C98.6,102.1,97.9,102,97.4,102z M105.6,88c-6.9-5-13.3-4-10.8-10.6 c2.5-6.6,4.5-12.4,9.7-11c5.2,1.4,10,3.9,11.9,11.5C118.2,85.3,112.6,92.9,105.6,88z"/>
    <path d="M56.8,72.3c2.8,0,4.2-2,4.5-2.7c0.3-0.7,0-1.3-0.7-1.6c-0.1,0-0.2-0.1-0.3-0.1h-7c-0.1,0-0.2,0-0.3,0.1 c-0.6,0.3-1,0.9-0.7,1.6C52.6,70.4,54,72.3,56.8,72.3z"/>
    <ellipse cx="40.6" cy="58.9" rx="4.9" ry="5"/>
    <ellipse cx="73" cy="58.9" rx="4.9" ry="5"/>
    <path d="M64.9,76.1c-3.1,1.9-13.5,1.9-16.6,0c-1.8-1.1-3.7,0.6-2.9,2.2c0.7,1.6,6.4,5.4,11.2,5.4c4.9,0,10.4-3.8,11.2-5.4 C68.5,76.7,66.7,75.1,64.9,76.1z"/>
    <circle cx="62.8" cy="112.3" r="2"/>
    <circle cx="62.8" cy="120.3" r="2"/>
  </g>
</svg>