<svg width="128" height="128" xmlns="http://www.w3.org/2000/svg">
  <g>
    <path d="M122.4,77.6c1.1-0.3,1.7-1.3,1.5-2.4c-0.3-1.1-1.3-1.7-2.4-1.5l-3,0.7c0.3-2.5,0.5-5.1,0.5-7.9 c0-5.6-0.7-10.8-2-15.6c7.5-10.4,7.3-29.5,6.9-35.3c-0.4-4.8-4.1-8.4-8.6-8.4c-0.3,0-0.6,0-0.9,0C106,8.3,94.7,11,86.3,16.8 c-7-2.8-14.6-4.2-22.3-4.2c-7.8,0-15.4,1.4-22.3,4.1C33.2,11,22,8.3,13.6,7.4c-0.3,0-0.6,0-0.9,0c-4.5,0-8.2,3.7-8.6,8.4 c-0.5,5.8-0.6,24.6,6.8,35.1c-1.3,4.8-2,10.1-2,15.8c0,2.7,0.2,5.3,0.5,7.8l-2.9-0.7c-1.1-0.3-2.2,0.4-2.4,1.5 c-0.3,1.1,0.4,2.2,1.5,2.4l4.5,1.1c0.6,3.3,1.5,6.4,2.7,9.3l-7,1c-1.1,0.2-1.9,1.2-1.7,2.3c0.1,1,1,1.7,2,1.7c0.1,0,0.2,0,0.3,0 l8.1-1.1c1.1,2.3,2.4,4.5,3.8,6.5l-10.5,5.5c-1,0.5-1.4,1.7-0.8,2.7c0.4,0.7,1.1,1.1,1.8,1.1c0.3,0,0.6-0.1,0.9-0.2l11.1-5.8 c10.4,12.5,26.5,19.1,43.3,19.1c16.8,0,32.8-6.7,43.2-19.2l11.3,5.9c0.3,0.2,0.6,0.2,0.9,0.2c0.7,0,1.4-0.4,1.8-1.1 c0.5-1,0.1-2.2-0.8-2.7l-10.7-5.6c1.4-2,2.7-4.2,3.8-6.4l8.3,1.2c0.1,0,0.2,0,0.3,0c1,0,1.8-0.7,2-1.7c0.2-1.1-0.6-2.1-1.7-2.3 l-7.2-1c1.1-2.9,2.1-6,2.7-9.2L122.4,77.6z M7,18.3c0-0.8,0.1-1.6,0.1-2.3c0.2-3.2,2.7-5.6,5.6-5.6c0.2,0,0.4,0,0.5,0 c7.9,0.8,17.5,3.2,24.9,7.7c-4.3,2-8.2,4.5-11.8,7.6c-0.7-0.8-1.5-1.6-2.4-2.3c-3.6-2.9-7.9-4.9-12.4-5.8 C10.1,17.3,8.2,17.2,7,18.3z M115.3,75.3L100.2,79c-1.1,0.3-1.7,1.3-1.5,2.4c0.2,0.9,1,1.5,1.9,1.5c0.2,0,0.3,0,0.5-0.1l13.4-3.3 c-0.6,2.8-1.5,5.4-2.5,8L101.1,86c-1.1-0.2-2.1,0.6-2.3,1.7c-0.2,1.1,0.6,2.1,1.7,2.3l9.7,1.3c-1,1.9-2.1,3.7-3.3,5.5l-6.5-3.4 c-1-0.5-2.2-0.1-2.7,0.8s-0.1,2.2,0.8,2.7l5.9,3.1c-1.3,1.5-2.7,3-4.3,4.4c-9.5,8.5-22.3,13.2-36.2,13.2 c-14.9,0-30.4-5.6-40.6-17.5l6.1-3.2c1-0.5,1.4-1.7,0.8-2.7c-0.5-1-1.7-1.4-2.7-0.8l-6.7,3.5c-1.2-1.7-2.4-3.6-3.4-5.5l9.9-1.4 c1.1-0.2,1.9-1.2,1.7-2.3C29,86.6,28,85.9,26.9,86l-11.1,1.5c-1-2.5-1.9-5.2-2.5-8l13.5,3.3c0.2,0,0.3,0.1,0.5,0.1 c0.9,0,1.7-0.6,1.9-1.5c0.3-1.1-0.4-2.2-1.5-2.4l-15.3-3.8c-0.4-2.7-0.6-5.6-0.6-8.6c0-15.7,5.5-28.8,15.8-38 c6.8-6,15.3-10.1,24.8-11.9v21c0,1.9,1.6,3.5,3.5,3.5s3.5-1.6,3.5-3.5v-21c0-0.3-0.1-0.6-0.1-0.9c1.5-0.1,3-0.2,4.6-0.2 c1.6,0,3.1,0.1,4.7,0.2c-0.1,0.3-0.1,0.6-0.1,0.9v21c0,1.9,1.6,3.5,3.5,3.5s3.5-1.6,3.5-3.5V16.7c9.4,1.9,17.9,6,24.6,12 c10.3,9.3,15.8,22.4,15.8,37.8C115.9,69.6,115.7,72.5,115.3,75.3z M103.9,23.4c-0.9,0.7-1.8,1.5-2.5,2.5 c-3.6-3.1-7.5-5.6-11.8-7.6c7.4-4.6,17.1-7,25.1-7.8c0.2,0,0.4,0,0.5,0c3,0,5.4,2.4,5.6,5.6c0.1,0.7,0.1,1.4,0.1,2.3 c-1.2-1.1-3.1-1-4.7-0.7C111.8,18.6,107.5,20.6,103.9,23.4z"/>
    <ellipse cx="37.1" cy="59.6" rx="8.8" ry="10"/>
    <ellipse cx="90.9" cy="59.5" rx="8.8" ry="10"/>
    <path d="M92.5,81.2c-0.2,0-0.4,0-0.5,0.1c-3.1,0.6-6.4,1-9.8,1.4c-1.2,0.1-2.3,0.2-3.5,0.3c-2.4,0.2-4.9,0.4-7.4,0.5 c-1.3,0.1-2.5,0.1-3.8,0.1c-0.3,0-0.6,0-0.9,0V73.2l5.4-6.1c1.9-2.1,0.4-5.5-2.5-5.5H58.6c-2.8,0-4.4,3.4-2.5,5.5l5.4,6.1v10.4 c-3.3,0-6.5-0.1-9.5-0.3c-2.5-0.2-4.9-0.4-7.2-0.6c-3.5-0.4-6.8-0.9-9.8-1.4c-0.2,0-0.4-0.1-0.5-0.1c-1.8,0-3.2,1.6-2.9,3.5 c0,0.1,0.1,0.2,0.1,0.3c0,0,0,0,0,0c0.1,0.6,0.3,1.1,0.4,1.7c0,0.1,0.1,0.3,0.1,0.4c0.2,0.6,0.4,1.1,0.6,1.7c0,0.1,0,0.1,0.1,0.2 c0,0,0,0,0,0c2.7,7.1,8.5,13.2,16,16.7c3.8-3.7,9-5.9,14.7-5.9c5.8,0,11.1,2.3,14.9,6.1c7.8-3.5,13.3-9.8,15.9-16.9c0,0,0,0,0,0 c0-0.1,0-0.1,0.1-0.2c0.2-0.6,0.4-1.1,0.5-1.7c0-0.1,0.1-0.3,0.1-0.4c0.1-0.5,0.3-1.1,0.4-1.6c0,0,0,0,0,0c0-0.1,0.1-0.3,0.1-0.4 C95.8,82.8,94.3,81.2,92.5,81.2z M90.3,87.3c-8.5,3.6-17.5,5.6-26.8,5.6c-9.3,0-18.3-1.9-26.8-5.5c-0.2-0.5-0.4-1.1-0.6-1.7 c8.3,1.4,17.7,2.1,27.3,2.1c9.7,0,19.1-0.7,27.4-2.1C90.7,86.2,90.5,86.8,90.3,87.3z"/>
  </g>
</svg>