<svg width="128" height="128" xmlns="http://www.w3.org/2000/svg">
  <g>
    <path d="M96.4,25.7c0.1,0,0.3,0,0.4,0c0.7,0,1.1,0,1.1,0c-1.6-6.4-4.1-13-10.9-19.2c-4-3.6-6.3-4.9-7.9-4.9c-1.1,0-1.8,0.7-2.2,1.6 c-1.1,2.3-2.1,4,1.9,5c0.3,0.1,0.6,0.1,0.9,0.1c0.8,0,1.6-0.2,2.4-0.2c1.6,0,3.1,0.8,4,5.6c1.5,8.1,1.8,10.8,1.8,10.8l0,0 c0.1,1.7,0.2,3,0.1,3.4l-2.9,5.7c0,0-0.1,0-0.1-0.1c-0.3-0.2-1.6-1.3-4.4-2.1c1.6-0.9,3-2.4,3.8-4.5c1-0.3,1.8-1.3,1.9-2.5 c0-0.6-0.1-1.1-0.4-1.5c0.3-1.3,2.4-12.6-8.2-13.3C67.2,9.2,68,20.7,68.1,21.9c-0.3,0.4-0.5,0.9-0.5,1.5c-0.1,1.2,0.6,2.3,1.5,2.7 c0.5,1.9,1.4,3.3,2.6,4.4c-1.9,0.1-3,0.5-4.6,1l0,0c-0.3,0.1-0.6,0.3-1.3,0.6c-0.9,0.5-1.3,1.2-1.3,1.2s0.1-0.1,0.2-0.1 c-0.7,0.6-1.3,1.4-1.5,2.3l-3.5,9.6c-0.9-0.4-2-0.6-3.4-0.7c-1.8-0.1-4.7-1.9-4.6-2.8c0.5-4.4,1.6-7.3-2.2-7.3c-0.2,0-0.5,0-0.8,0 c-2.7,0.2-4.6,2.2-2.4,6.9c1.4,3,5.5,7.3,10.1,10.2c2,1.3,4.1,2.2,6.1,2.8l-6.6,5.9l-19,14.1c-0.1,0.3-0.2,0.9,0.1,1.5 c0.4,0.9,1.5,1.7,3.2,2.2c3,0.9,4.8,2.2,5.6,4c0.7,1.7,0.4,3.8-0.9,6.3c-1,1.8-0.8,4.2,0.4,6.2c0.8,1.3,2.8,3.6,6.8,3.6 c1.1,0,2.3-0.2,3.6-0.5c0.5-0.4,1.1-0.7,1.6-1.1l0.3-0.2l2.6,0.9c-0.1,0.1-0.3,0.3-0.4,0.4c-1.2,2.3-2.4,7-2.4,7 c-1.6,6.3-14.9,16.2-11.1,20.5c0.9,1,1.7,1.4,2.6,1.4c3.4,0,6.8-6.6,10-12.2c2.2-3.9,5.6-7.6,7.7-9.6c0.4-1.6,0.6-3,0.8-4.2 l1.8-3.5c0.7,0.1,1.4,0.3,2.1,0.6c0.8-2.1,3.1-7.6,7.2-13.2c4.6-6.2,10.5-25.7,10.7-39.6c0-0.1,0-0.1,0-0.2l7.7-15 c0.1-0.2,0.1-0.4,0.1-0.7L96.4,25.7z M84.7,26.4c0.2-0.7,0.4-1.4,0.5-2.1c0.2-0.3,0.4-0.6,0.5-0.8c0.1,0.3,0.2,0.7,0.2,1 C85.8,25.4,85.4,26,84.7,26.4z M68.6,25.2c-0.4-0.5-0.6-1.1-0.5-1.7c0-0.4,0.1-0.7,0.3-1c0.1,0.2,0.3,0.5,0.4,0.8 c0,0.8,0.1,1.5,0.2,2.2C68.9,25.4,68.7,25.3,68.6,25.2z M71.3,29.4c-1.2-1.4-1.8-3.2-2-5.3c0.1-1.8,1-4.7,1.5-6 c0.3-0.7,1-1,1.7-0.9c1.1,0.3,2.8,0.6,4.8,0.7l0,0l0,0c1.9,0.1,3.7,0,4.8-0.2c0.7-0.1,1.4,0.4,1.6,1c0.4,1.3,0.9,4.2,0.8,6 c-0.9,4.9-4.4,7.2-7.7,7.2c-0.2,0-0.3,0-0.5,0C74.4,31.9,72.6,30.9,71.3,29.4z M76.5,32.5c0.2,0,0.3,0,0.5,0c0.6,0,1.2-0.1,1.7-0.2 l-0.1,0.8c-0.4,0.1-1.1,0.2-2.2,0.1c-1-0.1-1.7-0.3-2.1-0.4v-0.7C75.1,32.3,75.8,32.4,76.5,32.5z M88.4,44.1L88.4,44.1 c0,0-0.1,0.2-0.1,0.3c-0.5,3-1.3,7.1-2.6,11.9c-1,3.8-2.2,6.5-2.8,7.5l-6.7-2.5c0.1,0.3,0.1,0.6,0,0.9L75.6,64 c-0.1,0.2-0.2,0.4-0.4,0.6l0,0c-0.3,0.3-0.8,0.4-1.2,0.2l-2.1-0.7l9.4,3.9L75,85.2c-0.3,1.1-1.1,1.9-2.1,2.5l-5.3,10.2 c0.1-2.9-0.7-4-1.9-4c-1,0-2.2,0.7-3.5,1.6c1.4-3.3,3.1-7.7,4.2-11.1c0-0.1,0-0.3,0-0.4s0-0.1,0-0.2c0-0.2,0.1-0.4,0.1-0.6 c0.8-2.6,1.8-6.1,2.6-9.5l-4.8,7c-0.2,0.3-0.4,0.5-0.7,0.8l0,0c-1.5,1.3-3.6,1.5-5,1.1l0,0c-0.2-0.1-0.4-0.1-0.6-0.2 c-0.2-0.1-0.4-0.2-0.5-0.4c-1.2-1.1-2-3.8-0.8-5.5c2.7-4.3,6.7-11.4,8.7-15l5.5,2.3c-0.2-0.2-0.4-0.4-0.5-0.7 c-0.1-0.2-0.1-0.5,0-0.8l0.7-1.8c0.1-0.3,0.4-0.6,0.6-0.7c0,0,0.1,0,0.2,0l-5.2-2L66.1,52c-0.5,0.5-1.2,0.9-1.9,1 c-0.6-3.5-1.4-5.8-3.2-7.1l0,0c-0.1-0.1-0.3-0.2-0.4-0.2l3.6-9.7c0.4-1.3,1.3-2.2,2.5-2.5c0.1,0,0.2-0.1,0.3-0.1 c1.1,1.5,2.5,2.3,2.5,2.3v-0.1c1.4,1,3.8,1.9,7.5,2.2c0.4,0,0.7,0,1,0c4.1,0,6-2,6.7-3.2c0.3,0.2,0.7,0.3,1,0.5l3.4-6.8 c0.1-0.2,0-1.6-0.1-3.4c1.9,0.5,4.8,0.7,6.4,0.8l0.7,3.4L88.4,44.1z"/>
    <path d="M71.9,21.4L71.9,21.4C72,21.4,72,21.4,71.9,21.4h0.2h0.1h0.1c0,0,0,0,0.1,0c0,0,0,0,0.1,0h0.1c0.1,0,0.2,0,0.2,0 c0.1,0,0.2,0,0.3,0c0.1,0,0.2,0,0.2,0c0.1,0,0.2,0,0.2,0h0.1c0,0,0,0,0.1,0c0,0,0,0,0.1,0h0.1H74c0.1,0,0.1,0.1,0.2,0.1 c0,0,0,0,0.1,0h0.1c0.1,0,0.1,0.1,0.1,0.1h0.1c0.1,0,0.2,0,0.4,0c0.2-0.1,0.2-0.4,0.1-0.5c0,0,0-0.1-0.1-0.2c0,0,0,0-0.1-0.1 l-0.2-0.2l-0.1-0.1l-0.1-0.1l-0.1-0.1c-0.1,0-0.1,0-0.2-0.1c0,0-0.1-0.1-0.2-0.1S73.8,20,73.6,20c-0.1,0-0.3,0-0.4-0.1 c-0.1,0-0.3,0-0.4,0s-0.3,0-0.4,0.1l-0.2,0.1c-0.1,0-0.1,0-0.2,0.1c0,0-0.1,0-0.1,0.1c-0.1,0-0.1,0-0.1,0.1l-0.1,0.1l-0.1,0.1 c0,0-0.1,0-0.1,0.1c0,0,0,0-0.1,0.1s-0.1,0.1-0.1,0.1c-0.1,0.1-0.1,0.2-0.1,0.4c0.1,0.2,0.3,0.3,0.5,0.2 C71.7,21.5,71.7,21.5,71.9,21.4C71.8,21.5,71.9,21.5,71.9,21.4z"/>
    <path d="M72.9,24.3c0.7,0,1.3-0.5,1.3-1.2s-0.5-1.3-1.1-1.3c-0.7,0-1.3,0.5-1.3,1.2C71.7,23.6,72.2,24.2,72.9,24.3z"/>
    <path d="M79.7,22L79.7,22c0.1,0,0.1,0,0.2-0.1c0,0,0,0,0.1,0c0,0,0,0,0.1,0s0.1,0,0.2,0h0.1h0.1c0,0,0,0,0.1,0c0,0,0,0,0.1,0h0.1 c0.1,0,0.2,0,0.2,0c0.1,0,0.2,0,0.3,0c0.1,0,0.2,0,0.2,0c0.1,0,0.2,0,0.2,0h0.1c0,0,0,0,0.1,0l0,0H82h0.1h0.1c0,0,0,0,0.1,0 c0,0,0,0,0.1,0c0,0,0,0,0.1,0s0.1,0.1,0.1,0.1c0.1,0.1,0.3,0.1,0.4,0c0.2-0.1,0.2-0.4,0.1-0.5c0,0,0,0-0.1-0.1c0,0,0,0,0-0.1 l-0.1-0.1l-0.1-0.1L82.7,21l-0.1-0.1l-0.1-0.1c0,0-0.1,0-0.2-0.1c0,0-0.1-0.1-0.2-0.1s-0.2-0.1-0.4-0.1c-0.1,0-0.3,0-0.4-0.1 c-0.1,0-0.3,0-0.4,0s-0.3,0-0.4,0.1l-0.2,0.1c-0.1,0-0.1,0-0.2,0.1c0,0-0.1,0-0.1,0.1c0,0-0.1,0-0.1,0.1L79.8,21c0,0-0.1,0-0.1,0.1 c0,0-0.1,0-0.1,0.1l-0.1,0.1c-0.1,0.1-0.1,0.1-0.1,0.1c-0.1,0.1-0.1,0.2-0.1,0.3C79.3,22,79.5,22.1,79.7,22z"/>
    <ellipse cx="81.1" cy="23.5" rx="1.3" ry="1.2" transform="matrix(6.001671e-02 -0.9982 0.9982 6.001671e-02 52.7963 102.9856)"/>
    <path d="M76.8,26.6c0.7,0,1.1-0.4,1.2-0.6s0-0.3-0.1-0.4c0,0,0,0-0.1,0L76,25.5c0,0,0,0-0.1,0c-0.2,0-0.3,0.2-0.2,0.4 C75.8,26,76.1,26.6,76.8,26.6z"/>
    <path d="M74.7,27.4c-0.4-0.3-0.9,0.1-0.8,0.5c0.2,0.4,1.5,1.4,2.7,1.5s2.7-0.8,2.9-1.2c0.2-0.4-0.2-0.8-0.7-0.6 C78,28.1,75.5,27.9,74.7,27.4z"/>
    <polygon points="75.9,46.9 81,41.8 71.6,41.1 "/>
  </g>
</svg>