<svg viewBox="0 0 128 128" xmlns="http://www.w3.org/2000/svg">
  <path d="M7.5,86.7c0.8,0,1.6,0,2.4-0.1C9.1,86.7,8.3,86.7,7.5,86.7L7.5,86.7z M57.8,59L57.8,59L57.8,59L57.8,59z M27,28.8 c1.1,0.2,1.5,0.5,2.5,0.9c0.4,0.2,0.9,0.4,1.2,0.1c0.2-0.2,0.3-0.4,0.3-0.7c0-0.2-0.2-0.4-0.4-0.6c-0.6-0.6-1.8-1.1-3.1-1.2 c-1.5-0.1-2.5,0.1-3.6,1.1c-0.5,0.5-0.6,0.8,0.2,0.5C25,28.6,26.1,28.7,27,28.8z M40.9,29.7c1-0.4,1.4-0.7,2.5-0.9 c0.9-0.2,2-0.2,2.9,0c0.8,0.2,0.7,0,0.2-0.5c-1.2-1-2.1-1.2-3.6-1.1c-2.2,0.1-4.3,1.6-3.2,2.5C40,30.1,40.5,29.9,40.9,29.7z M35.2,40.2c0.3,0,0.6,0,0.8-0.1c0.8-0.3,1.3-0.9,1.4-1.1c0.2-0.3,0-0.7-0.3-0.8H37h-0.8h-2.6c0,0-0.1,0-0.2,0 c-0.3,0.1-0.5,0.4-0.3,0.8C33.2,39.3,33.8,40.2,35.2,40.2z M29.8,43.1c0.3,0.8,3.1,2.7,5.5,2.7c0.2,0,0.4,0,0.6,0 c0.5,0,1-0.1,1.4-0.3c1.7-0.6,3.2-1.6,3.5-2.2c0.4-0.8-0.5-1.6-1.4-1.1c-0.4,0.3-1.2,0.4-2,0.5c-0.5,0.1-0.9,0.1-1.5,0.1 c-1.8,0-3.8-0.2-4.7-0.7C30.3,41.5,29.4,42.3,29.8,43.1z M27.3,31.2c1.33,0,2.4,1.07,2.4,2.4S28.63,36,27.3,36s-2.4-1.07-2.4-2.4 S25.97,31.2,27.3,31.2z M43.2,31.2c1.33,0,2.4,1.07,2.4,2.4S44.53,36,43.2,36s-2.4-1.07-2.4-2.4S41.87,31.2,43.2,31.2z M125.2,114.4 C125.2,114.4,125.2,114.3,125.2,114.4c0,0-6.4-0.6-8.9-0.8c-5.2-0.8-5.1-2.4-5.5-3.9l0,0l-1.5-4.4l0,0l1.2-0.9 c0.3-0.3,0.5-0.7,0.5-1.1l0,0l-0.2-2.4c0-0.3-0.3-0.5-0.5-0.5h-0.1l0,0c-0.1,0-0.2,0.1-0.3,0.2l-1.6,1.8c-0.2,0.3-0.3,0.6-0.3,1 c0,0.1,0,0.2,0.1,0.3l0.5,1.3l0,0l-3,2.9l0,0l0,0l0,0c-0.1,0.1-0.2,0.2-0.3,0.3c-0.7,0.7-1.6,1.7-3.2,1.7c-0.9,0-2-0.3-3.4-1 s-6.2-4.7-6.2-4.7l-0.4-0.1c-2-4-1.8-7.8,3.2-10.4c4.5-2.3,9.5-1.8,14-4.1c3.7-1.9,8-4.8,8-11.7c0-2.9-0.3-4.7-0.7-5.8 c0.1-0.3,0.1-0.7,0.1-1c0.1-1.4,0.1-2.9-0.1-4.3s-0.6-2.9-1.4-4.2c-1.5-2.7-3.8-4.7-6.4-6c-2.6-1.4-5.5-2.1-8.5-2.1 s-5.9,0.9-8.5,2.3C90.3,57.2,89.1,58,88,59s-2,2.1-2.9,3.2c-1.1,1.4-2.1,2.9-3,4.4c-2.3,1.7-4.2,3.6-6,5.6c0,0,0,0-0.1,0.1l-0.1,0.1 c-2.1,2.3-3.8,4.3-5.8,7.9l-1.2,1.8c-2.5,3.8-6.7,10.1-7.6,11.4C55.1,102.2,49,104,45,104c-4.3-0.1-7.1-2.1-7.7-3 c-1.4-2-1.1-3.6-0.7-5.2c0.8-3.1,3.9-5.5,7-7.8c0.1,0.1,0.2,0.1,0.2,0.1l0,0L43.7,88c-0.2-0.2-0.3-0.3-0.5-0.5 c-0.1-0.1-0.1-0.1-0.2-0.2c-1.8-1.7-3.9-4.2-5.5-7.3c-1-2-1.8-4.3-2.2-6.7c-0.1-0.6-0.1-1.2-0.2-1.9c0.5-0.2,0.9-0.3,1.3-0.5 c0,0,0.1,0,0.1-0.1c0.4,0.2,0.7,0.5,1.1,0.7c0.3,0.2,0.6,0.3,0.9,0.5c0,0.5,0.1,1,0.2,1.5c0,0.2,0.1,0.4,0.1,0.6 c0.2,1,0.5,1.9,0.9,2.8c1.5,3.6,4,6.3,5.7,8.2c0,0.1,0.1,0.1,0.1,0.1c0,0.1,0.1,0.1,0.2,0.2c0.2,0.2,0.4,0.4,0.6,0.5 c0.3,0.3,0.7,0.6,0.9,0.8l0,0c-1.3,1.7-1.7,2.7-1.7,2.7l0.7,0.6l0,0l0,0c0,0,0.7-1,1.6-2.4c0.1-0.1,0.1-0.2,0.2-0.2l0,0 c1.7-2.5,4.2-6.2,5.5-8c0.8-1.1,1.6-2.2,2.3-3.4c1.6-0.1,3.1-0.2,4.4-0.6c3-0.8,5-2.2,6.2-4.4c0-0.1,0.9-2.5-0.4-5.5 c0.2-0.2,0.3-0.4,0.4-0.6c0-0.1,0-0.1,0-0.2C66.3,64.1,65.2,62,63,60c9.5-2.3,12.6-10.4,12.6-10.4s10.4-1.8,13.7-11 c5.6-15.4-8-19.7-8-19.7s5.6,12.6-8.1,12.6c-3,0-7.2-2-16-15.7C49.8,4.4,43.8,4,36.9,4c-5.6,0-9.8,3.8-11.8,7.9 c-1.5,1.1-2.8,2.4-3.9,4.2c-2.7,4.5-3.1,10.2-2.9,14.2c-1.9-1.3-4.5-1.4-4.5-1.4s0.1,3.3,1.1,6.1c-0.8,0.4-1.4,1.5-1.4,2.7 c0,1.7,1,3,2.2,3c1,0,1.7-0.8,2.1-2c0.9,0.5,1.8,0.8,2.4,1c1.8,5,5,9,8.8,11c-0.3,0.7-0.7,1.3-1.2,1.7l0,0c0.2,0.3,0.3,0.5,0.5,0.8 c0.6,1.1,1.1,2.3,1.5,3.5c0.1,0.2,0.1,0.3,0.1,0.4c-1.2-0.2-2.3-0.5-3.4-0.7c-0.2-0.4-0.3-0.8-0.4-1s-0.2-0.4-0.3-0.7 c-0.2-0.3-0.3-0.6-0.4-0.9c0-0.1-0.1-0.2-0.1-0.2l0,0c0.3-0.1,2-1.3,2.3-1.7l0,0c-0.3-0.4-0.5-0.6-0.8-0.8c0,0-0.1,0.1-0.3,0.3 c0,0,0,0-0.1,0.1c0,0-0.1,0.1-0.2,0.2l-0.1,0.1L26,51.9c-0.1,0.1-0.2,0.2-0.3,0.2l0,0c-0.2,0.2-0.5,0.4-0.9,0.6l0,0 c-1.2,0.8-3,1.7-5.6,2.4c-0.2,0-0.3,0-0.4,0c-1.9-0.1-5.5,1.6-8.6,3.1c-1.5,0.7-3,1.4-3.9,1.8c-0.9,0.3-1.3,1.1-1.2,2.1 C5.3,63.1,6,64,7.2,64l0,0c0.2,0,0.5,0,0.9-0.1C7,65.9,4.5,70.6,6,72c1.7,1.7,3.9,2.6,6.2,3.1c-0.2,0.7-0.5,1.3-0.7,1.8l0,0 c-1,2.5-2.2,4.9-3.3,6.7l0,0c-1,1.5-1.6,2.4-1.9,2.8c-0.1,0.1-0.1,0.1-0.1,0.2l0,0l-0.1,0.1l0,0c0.5,0,0.9,0,1.4,0l2-3.1 c0.4,0,0.8,0,1.4-0.1c0.3,0,0.6,0,1-0.1c0,0,0,0,0.1,0c7.6-0.8,11.6-3.8,13.9-7.2c0.5-0.8,0.9-1.5,1.3-2.3c1.3-0.4,2.5-0.7,3.7-1.1 c-0.2,0.7-0.5,1.5-0.9,2.2c-0.4,1-1,2-1.7,3l0,0c-0.2,0.3-0.4,0.6-0.7,0.9c0,0.1-0.1,0.1-0.1,0.2c-0.2,0.3-0.4,0.5-0.7,0.8 c-0.1,0.1-0.1,0.2-0.2,0.2c-0.2,0.2-0.4,0.5-0.7,0.7c-0.1,0.1-0.2,0.2-0.3,0.3c-0.2,0.2-0.5,0.4-0.7,0.6c-0.1,0.1-0.2,0.2-0.4,0.3 c-0.2,0.2-0.5,0.4-0.7,0.5s-0.3,0.2-0.5,0.3c-0.3,0.2-0.5,0.3-0.8,0.5c-0.2,0.1-0.3,0.2-0.5,0.3c-0.3,0.2-0.6,0.3-0.9,0.4 c-0.4,0.2-0.9,0.4-1.3,0.6c-0.3,0.1-0.5,0.2-0.8,0.3c-0.3,0.1-0.7,0.2-1,0.3c-0.3,0.1-0.5,0.2-0.8,0.2c-0.4,0.1-0.7,0.2-1.1,0.3 c-0.3,0.1-0.5,0.1-0.8,0.2c-0.4,0.1-0.8,0.1-1.2,0.2c-0.3,0-0.6,0.1-0.9,0.1c-0.4,0.1-0.9,0.1-1.3,0.1c-0.5,0-0.9,0.1-1.4,0.1 c-0.1,0-0.1,0-0.2,0c0,0,0,0-0.1,0s-0.2,0-0.3,0c0.1,0,0.2,0,0.3,0c0,0.1,0,0.2,0,0.2s0,0,0.1,0C10,88,9.8,89.3,9.6,90.8 c-1.5,12.9,2.6,21.8,12.1,26.4c6,2.9,11.4,4.3,16.8,4.3c3,0,6-0.5,9.1-1.4l0,0c7.4-1.6,16.1-6.6,21.2-13.6 c4.3-5.9,7.2-11.7,9.5-17.2c4.2-7.1,14-19.8,23-17.6c4.4,1.1,7,3.4,7.4,6.4c0.2,1.7-0.3,3.6-1.4,5.2c-0.1,0.1-0.3,0.3-0.4,0.4 c-1,0.8-2,1.5-3,2.2c-0.7,0.3-1.4,0.5-2.1,0.7c-2.3,0.7-6.3,1.8-8.4,3c-5,3-6.6,8.6-4.1,13.5l-0.6-0.1c0.5,0.4,4.4,5.5,7.7,9.7 c0.1,0.1,0.1,0.1,0.2,0.2c0.3,0.3,0.5,0.6,0.8,0.9c0.1,0.1,0.1,0.2,0.2,0.2c0.3,0.3,0.5,0.6,0.8,0.9c0,0,0,0,0.1,0.1 c0.3,0.3,0.5,0.6,0.8,0.8c0,0,0,0,0.1,0.1c0,0,0.1,0,0.1,0.1c0.7,0.7,1.3,1.2,1.9,1.6l0,0c0.6,0.4,1.1,0.8,1.6,1c-0.1,0-0.2,0-0.2,0 c-0.3,0-0.5,0-0.7,0.1c-0.1,0-0.2,0-0.3,0c-0.3,0-0.7,0.1-1,0.2h-0.1c-2,0.5-3.1,1.7-3.1,1.7l0,0l13.2,3.9l0,0c0,0-0.6-2.9-3.5-4.6 c2,0.2,3.8,0,3.8,0s5.3,0.6,9-0.8C123.5,117.9,125.2,114.4,125.2,114.4L125.2,114.4L125.2,114.4L125.2,114.4z M90,61.2 c0.9-0.8,1.9-1.6,3-2.2c2.2-1.2,4.6-1.9,7.1-2c2.5,0,5,0.5,7.2,1.6s4.2,2.8,5.5,4.9c0.8,1.3,1.3,2.9,1.4,4.5 c-3.4-5.3-10.5-9.5-20.6-6.9c-1.7,0.3-3.4,0.9-5.1,1.6C89,62.2,89.5,61.7,90,61.2z M71,80.8l0.5-0.7c1.5-2.2,3-4.4,4.8-6.5 c0.2-0.2,0.3-0.4,0.5-0.6l0.1-0.1c1.2-1.3,2.4-2.5,3.7-3.7C79.2,71.6,78,74,77,76.6c-0.5,1.3-1,2.6-1.4,3.9c-0.2,0.7-0.4,1.3-0.6,2 l-0.5,1.9c-0.8,2.6-1.6,5.1-2.6,7.6c-2,5-4.4,9.8-7.4,14.3c-1.5,2.2-3.1,4.4-4.9,6.4c-0.3,0.3-0.6,0.7-0.9,1 c-1.3,0.9-2.8,1.7-4.3,2.5c-0.9,0.4-1.7,0.8-2.5,1.2c3.6-3.8,9.1-10.3,11.4-17.2C66.5,90.2,68.9,84.6,71,80.8z M65.4,64.6 c-0.1,0.2-0.4,0.4-0.8,0.6c-0.3,0.2-0.7,0.3-1.2,0.4c-0.3,0.1-0.7,0.1-1,0.1c-0.6,0-1.3,0-1.9-0.2c-0.5-0.1-0.9-0.3-1.4-0.5 c-0.3-0.1-0.5-0.2-0.8-0.4c-0.3-0.2-0.7-0.3-1-0.5c-0.2-0.1-0.5-0.2-0.8-0.4s-0.7-0.4-1.1-0.5c-0.1-0.1-0.2-0.1-0.4-0.2 c-0.5-0.2-0.9-0.4-1.4-0.6c-1.3-0.6-2.8-1-4.4-1.2c-0.2,0-0.3,0-0.5-0.1l0,0c0,0-1.3-0.2-3-0.5c-1.1-0.2-2.4-0.4-3.6-0.7 c-0.3-0.1-0.6-0.1-0.8-0.2c0.4-0.1,0.7-0.2,1.2-0.4c1.2-0.4,2.6-0.8,4-1.2c0.9-0.2,1.8-0.5,2.6-0.7c1.4-0.3,2.6-0.6,3.7-0.7 c0.1,0,0.3,0,0.4-0.1c0.8-0.1,1.4-0.1,1.8,0c0.8,0.2,1.6,0.4,2.4,0.7c1,0.4,1.8,0.8,2.6,1.3c0.6,0.4,1.2,0.8,1.7,1.2 C64.1,61.9,65.3,63.9,65.4,64.6z M39.3,59.4c-0.2-0.1-0.4-0.1-0.7-0.2c0.7-1.1,1.4-2.2,2.3-3.3c0.3-0.4,0.6-0.8,0.9-1.1 c0.4-0.5,0.8-0.9,1.2-1.4c0.2-0.2,0.4-0.5,0.7-0.7c0.1-0.1,0.2-0.2,0.4-0.4s0.3-0.4,0.5-0.5c-0.4,0.5-0.7,0.9-0.7,0.9 c0.5,0.5,2.5,1.7,2.5,1.7c-0.1,0.2-0.3,0.3-0.4,0.5c-0.2,0.3-0.5,0.7-0.8,1C45.1,56,45.1,56,45,56.1c-0.3,0.4-0.6,0.8-0.9,1.2 c-0.2,0.3-0.4,0.5-0.6,0.8c-1.8,0.5-3.3,1-4,1.3C39.5,59.4,39.4,59.4,39.3,59.4z M39.9,9.6c-0.4-0.1-0.7-0.1-1.1-0.2 c-0.2,0-0.3,0-0.5,0c-0.5,0-1.1-0.1-1.6-0.1c-0.3,0-0.5,0-0.8,0h-0.1h-0.4c-0.4,0-0.9,0-1.3,0c-0.4,0-0.8,0-1.2,0.1 c-0.4,0-0.7,0-1.1,0.1C32.1,8.3,33,7.3,34,6.8c0,0,0,0,0.1,0c0.2-0.1,0.3-0.1,0.5-0.2c0.1,0,0.1-0.1,0.2-0.1c0.1,0,0.3,0,0.4,0 c0.1,0,0.2,0,0.3,0h0.1H36C38,6.5,39.5,7.9,39.9,9.6z M55.2,36.7c0.4,0.3,0.7,0.9,0.7,1.8c0,1.1-0.6,1.9-1.2,1.9 c-0.5,0-1-0.7-1.1-1.6c0.2-0.2,0.4-0.3,0.5-0.5C54.5,37.8,54.9,37.3,55.2,36.7z M53.8,37.1c0-0.1,0.1-0.2,0.2-0.4 c0.4-0.9-0.3-1.6-0.9-0.7c0,0-0.6,0.8-0.6,2.3c-0.5,0.3-1.1,0.6-1.6,0.7l0.8-4.2l0,0c0.2-0.3,0.4-1.3,0.6-2.6c1-1,2.6-1.4,3.7-1.5 C55.7,32.3,55.1,35.3,53.8,37.1z M75.4,48l-0.8,0.1l-0.2,0.5c-5.6,2.2-14.6,3.9-23-5.4c-0.7-0.8-1.3-1.6-1.7-2.4 c0.1-0.2,0.1-0.3,0.2-0.5c0.5-0.1,1.6-0.3,2.7-0.9c0.3,1.2,1,2.1,2,2.1c1.2,0,2.3-1.3,2.3-3c0-1.2-0.5-2.3-1.3-2.8 c1.2-2.8,1.3-6.1,1.3-6.1s-2.7,0-4.6,1.2c0.3-4,0-10.2-2.9-14.9c-2-3.4-5-5.5-8.9-6.3c2.9-1,6.7-0.9,10.8,5.4 c7.8,12.2,4.2,20.6,12.5,27.2c4.5,3.6,12.6,4.8,15.4,4.1c-0.6,0.2-1.7,0.8-3.1,1.4C75.8,47.9,75.4,48,75.4,48z M15.7,39.7 c-0.6,0-1.2-0.8-1.1-1.9c0-0.9,0.4-1.5,0.8-1.8c0.3,0.6,0.6,1.1,1,1.6c0.2,0.2,0.3,0.3,0.5,0.5C16.7,39.1,16.2,39.7,15.7,39.7z M19.5,38.5c-0.5-0.2-1-0.4-1.6-0.8c0.1-1.5-0.5-2.3-0.5-2.3c-0.6-0.9-1.3-0.2-0.9,0.7c0.1,0.1,0.1,0.3,0.1,0.4 c-1.3-1.9-1.7-4.8-1.9-6.4c1.1,0.2,2.6,0.6,3.6,1.6c0.1,1,0.2,1.8,0.4,2.4c0.1,0.9,0.3,1.8,0.5,2.7L19.5,38.5z M20.2,36.3L20,34.5 c-0.2-2.9,1.6-12.3,4.2-15l1.7,1l2.5,1.4l7,4L45.5,20l1.1-0.6c2.3,2.4,3.9,9.9,4.1,13.6c-0.3,2.2-0.8,4.3-1.5,6.3 c-1.6,4.3-4.2,8-7.6,10.1c-0.3,0.2-0.6,0.4-0.9,0.5c-0.8,0.4-1.7,0.7-2.6,1c-0.5,0.1-1,0.2-1.4,0.3c-0.6,0.1-1.1,0.1-1.7,0.1 c-1.7,0-3.2-0.4-4.7-1c-0.3-0.1-0.6-0.3-0.9-0.4C24.7,47.4,21.6,42.1,20.2,36.3z M28.5,53.2c0.6-0.5,1-1.2,1.4-2 c1.6,0.7,3.2,1.1,5,1.1l0,0c0.1,0,0.1,0,0.2,0c0.6,0,1.3-0.1,1.9-0.2c0.5-0.1,1-0.2,1.5-0.3c0.9-0.2,1.7-0.6,2.5-1 c0.4,1,1.1,1.8,1.9,2.4c-0.5,0.5-0.9,0.9-1.3,1.4c-0.3,0.4-0.7,0.8-1,1.1c-0.9,1.1-1.8,2.2-2.5,3.3c-1.8-0.4-4.4-1-7.1-1.6 C30.4,56,29.6,54.4,28.5,53.2z M7.2,63c-0.7,0-1-0.5-1.1-1c-0.1-0.4,0.1-0.8,0.5-1c1-0.3,2.5-1.1,4.1-1.8c2-1,4.4-2.1,6.2-2.7 c0.8-0.2,1.4-0.4,1.9-0.4c0.1,0,0.3,0,0.5,0.1c0.3,0,0.8,0.1,1.4,0.2c1.5,0.3,3.8,0.7,6.2,1.2c1.1,0.2,2.2,0.4,3.4,0.7l0,0 c0.4,0.1,0.7,0.2,1.1,0.2c2.3,0.5,4.5,1,6.1,1.4c0.2,0,0.4,0.1,0.6,0.1c0.3,0.1,0.6,0.2,0.9,0.2c0.1,0.1,0.3,0.2,0.5,0.1l0,0 c0.5,0.1,1.3,0.3,2.2,0.5c0.4,0.1,0.8,0.2,1.3,0.2c2.6,0.5,5.4,1,5.6,1l0,0l0,0c1,0.1,1.9,0.3,2.8,0.5c0.1,0,0.2,0,0.3,0.1 c0.6,0.2,1.3,0.4,1.9,0.7c0.9,0.4,1.7,0.8,2.5,1.2c0.4,0.2,0.8,0.4,1.2,0.6c0.3,0.2,0.7,0.3,1,0.5c0.2,0.1,0.5,0.2,0.7,0.3 c0.4,0.2,0.8,0.3,1.2,0.4c0.7,0.2,1.3,0.2,2,0.2c0.2,0,0.3,0,0.4,0c0.3,0,0.7-0.1,1-0.1c0.6-0.1,1.1-0.3,1.6-0.5 c0.9,2.5,0.3,4.4,0.3,4.4c-1,1.8-2.8,3.1-5.5,3.8c-1.1,0.3-2.3,0.5-3.5,0.5c0,0,0,0-0.1,0c-0.4,0-0.8,0-1.2,0c-0.1,0-0.2,0-0.3,0 c-0.4,0-0.9,0-1.3,0c-4.2-0.2-8.6-1.2-12.1-2.6c-1.1-0.5-2.2-1-3.1-1.5c-0.1-0.1-0.2-0.1-0.3-0.2c-0.9-0.5-1.7-1-2.5-1.5 c-0.2-0.1-0.4-0.2-0.5-0.3c-0.3-0.2-0.6-0.4-0.9-0.5c0,0-0.1,0-0.1-0.1c-0.4-0.2-0.8-0.5-1.2-0.7c-0.1-0.1-0.3-0.2-0.4-0.2 c-0.3-0.2-0.6-0.4-0.9-0.5l0,0c-1.2-0.7-2.2-1.3-3.1-1.8c-1.4-0.8-2.2-1.2-2.2-1.3c-0.1-0.1-0.2-0.1-0.3-0.1 c-4.6,1-8.6-0.6-10.2-1.3c-0.4-0.2-0.7-0.4-0.7-0.4c-0.1,0-0.1-0.1-0.2-0.1c-0.1,0-0.1,0-0.2,0c-0.6,0.1-1.2,0.2-1.8,0.3 c-0.4,0.1-0.8,0.2-1.3,0.2c-1,0.2-2,0.4-2.8,0.5c0,0,0,0-0.1,0C8.1,63,7.5,63.1,7.2,63z M27.5,72.8c-4.4,1.3-9.5,2.3-14,1.6 c-0.3,0-0.7-0.1-1-0.2v-0.1v0.1c-0.1,0-0.1,0-0.2,0c-2.1-0.5-4-1.4-5.6-2.9c-0.7-0.6,0.7-4.4,2.7-7.5c0.6-0.1,1.3-0.2,1.9-0.3 c0.4-0.1,0.8-0.1,1.2-0.2c1-0.2,1.8-0.3,2.2-0.4h0.1c0.2,0.1,0.4,0.2,0.8,0.4c1.8,0.8,5.8,2.3,10.5,1.3c0.2,0.1,0.8,0.4,1.5,0.8 c0.3,0.2,0.7,0.4,1.1,0.6c0.8,0.5,1.8,1.1,3,1.7l0,0c0.2,0.1,0.4,0.3,0.7,0.4c0.2,0.1,0.4,0.2,0.6,0.4c0.3,0.2,0.5,0.3,0.8,0.5 c0.1,0.1,0.2,0.1,0.3,0.2c0.3,0.2,0.7,0.4,1.1,0.6c0,0.1,0,0.2,0,0.3c-0.3,0.1-0.7,0.2-1,0.4h-0.1c-0.5,0.2-1,0.4-1.6,0.6 c-0.4,0.2-0.9,0.3-1.4,0.5l0,0C29.9,72,28.8,72.4,27.5,72.8z M49.3,118.5c-6.8,2.5-13.2,2.7-20.2,0.5c-2.1-1.1-11.6-6.9-4.7-16.8 c2.2-3.1,8.6-6.2,12.2-8.8c-0.4,0.6-0.7,1.3-0.8,2c-0.5,1.7-0.8,3.6,0.8,6c0.9,1.4,4.2,3.4,8.5,3.4c4.3,0.1,10.7-1.8,17.1-10.9 c0.6-0.9,2.8-4.1,4.9-7.3c-1.4,3.4-3,7.7-4.9,13.4C59.5,107.9,52.6,115.3,49.3,118.5z M77.3,89.1c-0.9,1.5-1.5,2.6-1.7,3.3 c-2.7,6.4-6.5,13.5-14.2,19.4c1.4-1.5,2.7-3.1,3.9-4.7c3.3-4.4,6.1-9.2,8.3-14.2c1.1-2.5,2.1-5.1,3-7.7l0.6-2l0.6-1.9 c0.4-1.2,0.9-2.5,1.5-3.7c2-4.5,4.6-8.9,7.6-12.9c0.1-0.1,0.2-0.1,0.4-0.2c0.5-0.3,1.1-0.5,1.7-0.8c-3.6,3.9-5.7,9.6-8.2,16.3 C79.7,83,78.6,86,77.3,89.1z M109.7,78.2c-0.3-2-1.7-5.6-8.2-7.2c-6.3-1.6-12.6,3.6-16.8,8.1C83,81,81.4,83,80.1,84.9 c3.6-9.6,5.8-17.5,11.3-21.9c7.8-2.6,17.1-2.3,22.2,6.1c0.3,0.4,0.5,0.9,0.7,1.3c0,0.2,0,0.3,0,0.5c-0.1,2.5-0.8,5.1-2.1,7.4 c-0.7,1.3-1.8,2.5-2.9,3.6C109.7,80.5,109.8,79.3,109.7,78.2z M93.8,90.6c1.6-1,4.6-1.8,6.8-2.5c0.5-0.1,1-0.3,1.5-0.4 c0.1,0,0.2-0.1,0.3-0.1c1.2-0.4,2.3-0.8,3.3-1.2c4.8-2,8-4.7,9.7-8.1c0.2-0.5,0.4-0.9,0.6-1.4c0-0.1,0.1-0.2,0.1-0.2 c0,0.3,0,0.7,0,1.1c0,6.1-3.6,8.8-7.5,10.8c-0.1,0-0.2,0.1-0.3,0.1c-2,1-4.2,1.4-6.4,1.8c-2.4,0.4-4.9,0.9-7.2,2.1 c-2.5,1.3-4,2.9-4.6,5c-0.5,1.6-0.3,3.4,0.4,5.4c-0.1-0.1-0.2-0.1-0.3-0.2C87.7,98.2,89.2,93.3,93.8,90.6z M114.8,118.1 c1-0.8,1.8-1.8,2.3-2.6l0.1-0.1l0,0l0,0c1,0.1,2.5,0.2,4.7,0.4c-0.7,0.7-1.7,1.4-2.8,1.8c-1.4,0.5-3.1,0.7-4.5,0.8 C114.6,118.3,114.7,118.2,114.8,118.1z M108.6,102.8l1.4-1.6l0.2,2.1c0,0.2-0.1,0.4-0.2,0.5l-1,0.8l-0.5-1.2 C108.4,103.1,108.4,102.9,108.6,102.8z M106.1,108l2.6-2.5l1.2,3.6l0.1,0.4l-4.1-1.2L106.1,108z M96.8,112.4 c-0.9-1.1-1.8-2.3-2.7-3.4c-1.6-2-2.8-3.6-3.7-4.6l1.4,0.4c0.5,0.4,2.1,1.7,3.6,2.9c0.8,0.7,1.8,1.5,2.8,2.2 c2.4,1.7,5.2,3.4,8.2,4.3c3.4,1,6.8,1.4,9.6,1.3c0.1,0,0.2,0,0.4,0c-0.5,0.7-1.2,1.6-2.2,2.4l-0.6,0.4l-1.2,0.9l1.5-0.1h0.7 c1.9-0.1,3.5-0.3,4.8-0.8c1.1-0.4,2.1-1.1,3.1-1.9l0.5-0.5c0,0,0,0,0,0.1c0.1-0.1,0.2-0.2,0.3-0.4l0.2-0.2l0,0c0,0,0,0,0.1-0.1h-0.1 l0.6-0.3h0.1c-0.7,1.1-2.2,2.8-4.6,3.7c-1.9,0.7-4.3,0.8-6,0.8c-1.5,0-2.7-0.1-2.7-0.1h-0.1h-0.1c0,0-0.8,0.1-1.8,0.1 c-0.6,0-1.2,0-1.8-0.1l-2.2-0.2l-1.7-0.9C101.1,117.2,99.1,115.3,96.8,112.4z M108,121.8c0.5,0.5,0.9,1.1,1.2,1.6 c0.1,0.1,0.1,0.2,0.2,0.3l-10.6-3.1c0.1-0.1,0.2-0.1,0.3-0.2c0.5-0.3,1.1-0.5,1.8-0.7c0.5-0.1,1-0.2,1.5-0.2c0.1,0,0.2,0,0.2,0 l1.9,0.1c0.1,0,0.1,0,0.2,0.1c0.1,0,0.1,0,0.2,0l1.6,1C107.1,121,107.6,121.4,108,121.8z M10.6,90.9c0.2-1.5,0.4-2.9,0.6-4.1 c13.7-0.3,18-7,20.1-12.3c0.3-0.8,0.6-1.5,0.8-2.2c0.7-0.2,1.3-0.5,1.9-0.7c0,0.6,0.1,1.3,0.2,1.9c0.4,2.7,1.4,5,2.6,7 c-3.2,2.8-6.9,5.1-10.3,7.6c-3.8,2.8-7.4,6.1-9.6,10.3c-2.1,4.2-2.5,9.6,0.2,13.6c0.3,0.5,0.7,1.2,1.4,1.9 C11.9,109.2,9.4,101.6,10.6,90.9z"/>
</svg>