<svg width="128" height="128" xmlns="http://www.w3.org/2000/svg">
  <g>
    <path d="M53,28h22c0.5,0,1-0.5,1-1v-2c0-2.2-1.8-4-4-4H56c-2.2,0-4,1.8-4,4v2C52,27.5,52.5,28,53,28z"/>
    <path d="M116,4H12c-4.4,0-8,3.6-8,8v104c0,4.4,3.6,8,8,8h104c4.4,0,8-3.6,8-8V12C124,7.6,120.4,4,116,4z M40,30c0-1.1,0.9-2,2-2h4 c0.5,0,1-0.5,1-1v-2c0-5,4-9,9-9h16c5,0,9,4,9,9v2c0,0.5,0.5,1,1,1h4c1.1,0,2,0.9,2,2v60c0,1.1-0.9,2-2,2H42c-1.1,0-2-0.9-2-2V30z M22,112c-3.3,0-6-2.7-6-6s2.7-6,6-6s6,2.7,6,6S25.3,112,22,112z M32,90c0,1.1-0.9,2-2,2h-6c-4.4,0-8-3.6-8-8V36c0-4.4,3.6-8,8-8h6 c1.1,0,2,0.9,2,2V90z M43,112c-3.3,0-6-2.7-6-6s2.7-6,6-6s6,2.7,6,6S46.3,112,43,112z M64,112c-3.3,0-6-2.7-6-6s2.7-6,6-6 s6,2.7,6,6S67.3,112,64,112z M85,112c-3.3,0-6-2.7-6-6s2.7-6,6-6s6,2.7,6,6S88.3,112,85,112z M106,112c-3.3,0-6-2.7-6-6s2.7-6,6-6 s6,2.7,6,6S109.3,112,106,112z M112,84c0,4.4-3.6,8-8,8h-6c-1.1,0-2-0.9-2-2V30c0-1.1,0.9-2,2-2h6c4.4,0,8,3.6,8,8V84z"/>
  </g>
</svg>