<svg width="128" height="128" xmlns="http://www.w3.org/2000/svg">
  <g>
    <path d="M116.6,111L116.6,111c-1.2-4.5-2.7-9.5-3.1-11.5c-0.8-4-6.9-12.5-6.8-15.8c0.1-1.7-2.6-6.6-5.9-12.2 c0.1,0.1,0.1,0.2,0.2,0.3c0,0,0,0-0.1,0c-2.9-5.1-4-7.7-5.3-12.9c-0.9-3.8-2-0.7-3.6-7.4c-1.5-6.1-4.7-11.2-8.2-21.4 c-3.1-9.2-3.3-12.6-6.1-14.1c0-0.1,0-0.2-0.1-0.3c-1.5-5.4-3.2-7.7-4-10.9c0-0.1-0.1-0.2-0.3-0.3c0,0,0,0-0.1,0 c-0.1,0-0.2-0.1-0.3-0.1C69.3,4,51.6,9.5,37.8,20.6c0,0-0.1,0-0.1,0.1c-0.5,0.4-0.9,0.7-1.4,1.1c-0.1,0-0.1,0.1-0.2,0.1 c-0.4,0.4-0.9,0.7-1.3,1.1l-0.1,0.1c-0.4,0.4-0.9,0.8-1.3,1.2c-0.9,0.9-1.8,1.8-2.6,2.7c-4.6,5.1-9,11.1-12.6,16.8 c-4.6,7.4-8,14.2-8.9,17.2C9.1,61.9,9,62.7,9,63.2c0.2,2.5,3,2.2,5.6,3.5c2.8,1.4,3.4,1.1,6.6,2.4c3.2,1.3,7.8,3.1,14,9.5 c2.6,2.7,7.4,6.2,12.6,9.4c7.2,4.5,15,8.5,18.1,9.2c5.4,1.2,18.5,8.8,26,13c6.5,3.6,12.3,6.3,16.8,8c3.1,2.3,5.9,4.2,7.6,4.2 c0.8,0,1.4-0.4,1.6-1.4C118.7,118.5,117.9,115,116.6,111z M39.7,73.6c-0.1-0.2,0.1-0.4,0.3-0.5c0.7-0.4,1.4-0.8,2.2-0.9 c0.8-0.1,1.7,0,2.2,0.6c0.1,0.2-0.1,0.3-0.3,0.4h-0.3c-1.2,0.4-2.4,0.6-3.6,0.6C40,73.8,39.8,73.8,39.7,73.6z M49.3,80.1 c-0.5,0-0.8-0.7-1.1-0.9c-0.6-0.3-1-0.2-1.7-0.2c-1.2,0.1-2.4-0.6-3.1-1.6c-0.3-0.5-0.5-1.2-0.3-1.7c0.2-0.6,0.9-1,1.5-1.1 c2.3-0.5,5.2,1.3,5.6,3.5C50.3,78.7,50.2,80.1,49.3,80.1z M46,72.7c0.6-0.4,1.3-0.5,2-0.3c0.7,0.2,1.2,0.8,1.4,1.4L49.2,74 C48,74.1,46.8,73.6,46,72.7z M50.1,75.1c-0.1-0.2-0.1-0.4,0-0.6c0.2-0.3,0.7-0.1,1,0.1c0.9,0.7,1.7,1.6,2.4,2.6l-0.4,0.5 C51.8,77.4,50.6,76.4,50.1,75.1z M53.1,85.3c0.2-1.3,0.4-2.6-0.1-4.1c-0.1-0.4-0.3-0.9-0.3-1.3c0-0.5,0.2-0.9,0.7-1.1 s1,0.2,1.4,0.6c1.3,1.7,1.6,6.2-0.7,7.3C52.8,87.3,52.9,86.4,53.1,85.3z M110.5,116c-0.2-0.2-0.5-0.3-0.7-0.4 c-4.7-1.8-10.5-4.6-16.4-7.9c-1-0.6-2.1-1.2-3.3-1.9c-10-5.6-18.8-10.4-23.5-11.4c-2.1-0.5-6.8-2.8-12-5.8c1.6-1.7,2.6-3.7,2.9-6.2 c1-8.5-5.8-11-13-11c-3.5,0-6.9,1.2-9.3,3c-5.4-5-9.6-6.8-12.6-8c-0.9-1.2-0.5-2.1-0.4-4.5c0,0,1.6-5.7,11.4-17 c9.8-11.3,14.6-16.7,22.5-20.1c7.6-3.4,14-7.4,18.7-8.9c0.1,0.2,0.1,0.5,0.2,0.7c0.2,0.8,0.7,1.5,1.4,1.9c0.9,0.5,1.4,1.9,2.8,6.3 c0.5,1.7,1.1,3.7,2,6.2c1.7,5,3.3,8.7,4.7,12c1.5,3.5,2.7,6.2,3.4,9.2c1,4,1.9,5.4,3.3,6.6c0,0,0.1,0,0.1,0.1 c0,0.1,0.1,0.3,0.2,0.7c1.4,5.6,2.6,8.3,5.6,13.7v0.1c4.2,7.1,5.2,9.5,5.3,10.3c-0.1,2.4,1.4,5.3,3.8,9.8c1.3,2.4,2.7,5.2,3,6.5 c0.2,1.2,0.8,3.3,1.5,5.9c0.5,1.8,1,3.8,1.5,5.7l0.1,0.2c0.7,2.1,1.6,5,1.5,7.2C113.7,118.3,111.4,116.6,110.5,116z"/>
    <path d="M50.5,42.7c-5.6-1.5-12.4,1.8-14,8S39,63.5,44.6,65c5.6,1.5,12.4-2.2,14.1-8.3C60.3,50.5,56,44.2,50.5,42.7z M51.8,47.4 c0.7,0,1.5,0.4,2,0.9s0.9,1.2,1.1,1.8c0.5,1.4-0.2,3-1.8,1.7c-0.5-0.4-0.9-1-1.5-1.2c-0.3-0.1-0.7-0.2-0.9-0.3 c-0.7-0.3-0.9-1.2-0.6-1.9C50.3,47.8,51,47.4,51.8,47.4z M52.6,53c-0.4-0.1-0.9-0.2-1.3-0.2l-0.4-0.4c0-0.2,0-0.4,0-0.6 C51.6,51.7,52.5,52.3,52.6,53z M48.8,44.1c0.4,0,0.8,0.1,1.1,0.4c0.3,0.2,0.5,0.7,0.3,1c-0.3,0.4-0.9,0.4-1.4,0.3 c-0.9-0.1-4.1,1-4.4-0.2C44,44.2,47.9,44,48.8,44.1z M47,46.8c0.8,0.1,1.7,0.6,1.8,1.4c0.2,1.8-3.2,2.9-4.5,1.9 C42.3,48.5,45.4,46.6,47,46.8z M41.8,50.4c-0.4,0.2-0.9,0.1-1.3,0.3c-0.3,0.2-0.5,0.6-0.7,0.9c-0.3,0.7-0.9,1.7-1.3,0.5 c-0.3-1,0.8-2.5,1.2-3.3c0.2-0.3,0.4-0.7,0.8-0.9c0.3-0.2,0.8-0.4,1.2-0.3c0.4,0.1,0.7,0.5,0.8,0.8C42.7,49.2,42.5,50.1,41.8,50.4z M42.9,46.5c-0.2,0.4-0.8,0.6-1.2,0.4v-0.4c-0.3-0.4,0.1-1,0.5-0.9C42.7,45.6,43,46.1,42.9,46.5z M45.1,59.4 c-1.8-0.4-2.6-3.6-1.6-4.9c0.2-0.2,0.5-0.4,0.8-0.3c0.4,0.1,0.6,0.6,0.8,1C45.4,56,47.8,60.1,45.1,59.4z M47.4,55.3 c-1-0.2-3.4-3.4-1.6-3.1c0.3,0.1,0.5,0.2,0.7,0.4C47.2,53.1,49.5,55.8,47.4,55.3z M47.7,51.9c-0.1-0.4,0-0.9,0.4-1.2 c0.4-0.3,1-0.1,1.4,0.3c0.3,0.4,0.4,0.9,0.5,1.4c0.1,0.6,0.7,3-0.3,3.2c-1,0.3-1.2-2.1-1.4-2.6C48.1,52.7,47.8,52.3,47.7,51.9z M50.2,59.8c-0.6,0-1.8-0.5-1.7-1.2c0.1-0.4,0.8-0.5,1-0.8c0.4-0.4,0.5-0.8,0.6-1.4c0.2-1.1,1.1-2,2.2-2.3c0.5-0.2,1.2-0.1,1.6,0.2 c0.5,0.3,0.7,1,0.7,1.6C54.6,57.9,52.3,60,50.2,59.8z M56.1,55.6c0-1.2,0.1-2.3,0.3-3.4c0-0.2,0.1-0.3,0.3-0.3s0.3,0.2,0.3,0.4 c0.2,0.7,0.4,1.4,0.3,2.2c-0.1,0.7-0.4,1.5-1.1,1.8c0-0.2-0.1-0.3-0.2-0.5L56.1,55.6z M56.1,57.4c0.2,0.6,0.1,1.3-0.2,1.8 c-0.4,0.5-1,0.8-1.6,0.9l-0.2-0.2C54.4,58.9,55.1,58,56.1,57.4z"/>
    <path d="M87.9,65.5c1.6-6.5-2.7-13.2-8.3-14.8c-5.6-1.6-12.5,1.9-14.1,8.5c-1.6,6.5,2.6,13.5,8.2,15.1C79.3,75.9,86.2,72,87.9,65.5 z M76.1,55c0.8,0.1,1.8,0.6,1.8,1.5c0.2,1.9-3.2,3.1-4.6,2C71.3,56.9,74.5,54.8,76.1,55z M78.6,59.5c0.3,0.4,0.5,1,0.6,1.5 c0.1,0.6,0.7,3.1-0.3,3.4c-1,0.3-1.1-2.2-1.4-2.7c-0.2-0.4-0.5-0.8-0.6-1.3c-0.1-0.4,0-1,0.4-1.2C77.6,58.9,78.3,59.1,78.6,59.5z M72.5,63.2c0.2-0.2,0.5-0.4,0.8-0.3c0.4,0.1,0.6,0.6,0.8,1c0.4,0.9,2.8,5.2,0,4.5C72.4,67.9,71.5,64.5,72.5,63.2z M68.8,60.2 c-0.3,0.8-0.9,1.8-1.3,0.5c-0.3-1,0.8-2.7,1.2-3.5c0.2-0.4,0.4-0.7,0.8-1c0.3-0.3,0.8-0.4,1.2-0.3c0.4,0.1,0.7,0.5,0.8,0.9 c0.3,0.8,0,1.7-0.7,2c-0.4,0.2-0.9,0.1-1.3,0.3C69.2,59.4,69,59.8,68.8,60.2z M77,72.5c-1.9,0.8-6-0.1-6.5-2.5 c-0.3-1.3,0.6-1,1.5-0.5c1.3,0.6,2.4,1.1,3.8,1.1c0.4,0,0.8,0,1.3,0.1c0.4,0.1,0.8,0.5,0.8,0.9C77.9,72,77.5,72.3,77,72.5z M79.4,68.8c-0.6-0.1-1.8-0.6-1.7-1.3c0.1-0.4,0.8-0.5,1.1-0.8c0.4-0.5,0.5-0.9,0.6-1.5c0.2-1.1,1.1-2.1,2.2-2.4 c0.5-0.2,1.2-0.1,1.7,0.2c0.5,0.4,0.7,1.1,0.7,1.7C83.8,66.8,81.5,69,79.4,68.8z M82.2,60.4c-0.5-0.4-0.9-1-1.5-1.3 c-0.3-0.1-0.6-0.2-1-0.4c-0.6-0.4-0.9-1.3-0.6-2c0.3-0.7,1.1-1.1,1.8-1.1c0.7,0,1.5,0.4,2,0.9s0.9,1.2,1.1,1.9 C84.6,60.1,83.8,61.8,82.2,60.4z M84.7,56.9c-0.3,0-0.5-0.3-0.7-0.5c-0.7-0.9-1.7-1.6-2.7-1.9v0.3c-0.2-0.2-0.4-0.5-0.5-0.8 c-0.1-0.3-0.1-0.7,0.1-0.9c0.4-0.3,1-0.1,1.4,0.1c1,0.6,1.9,1.5,2.6,2.5c0.1,0.2,0.3,0.4,0.3,0.7C85,56.6,84.9,56.9,84.7,56.9z"/>
    <path d="M94.3,81c-5-1.4-11.1,1.7-12.6,7.5C80.3,94.3,84,100.6,89,102s11.2-2,12.7-7.8C103.1,88.4,99.3,82.4,94.3,81z M92.8,82.3 c0.4,0,0.7,0.1,1,0.4c0.3,0.2,0.4,0.7,0.2,1c-0.2,0.4-0.8,0.4-1.3,0.3c-0.8-0.1-3.7,0.9-4-0.2C88.4,82.4,92,82.2,92.8,82.3z M91.1,84.8c0.8,0.1,1.6,0.6,1.7,1.3c0.2,1.7-2.9,2.8-4.1,1.8C86.9,86.5,89.7,84.7,91.1,84.8z M88,92.1c0.2-0.2,0.4-0.4,0.7-0.3 c0.4,0.1,0.6,0.5,0.7,0.9c0.3,0.8,2.5,4.6,0,4C87.8,96.3,87.1,93.3,88,92.1z M86.9,83.7l-0.5,0.9C86.1,84.2,86.5,83.7,86.9,83.7z M87.5,84.6c-0.2,0.4-0.7,0.6-1.1,0.3L87.5,84.6z M84.6,86.8c0.2-0.3,0.4-0.7,0.7-0.9c0.3-0.2,0.7-0.4,1.1-0.2 c0.3,0.1,0.6,0.4,0.8,0.8c0.2,0.7,0,1.5-0.6,1.8c-0.4,0.2-0.8,0.1-1.2,0.3c-0.3,0.2-0.5,0.5-0.6,0.9c-0.3,0.7-0.8,1.6-1.2,0.5 C83.2,89,84.2,87.5,84.6,86.8z M84.8,96c-0.8-0.8-1.1-2.7-0.9-3.7c0.2-1,1.6-1.6,2.3-0.5c0.2,0.3,0.2,0.6,0.3,1 c0.1,0.6,0.2,1.2,0.3,1.8c0.1,0.5,0.1,0.9-0.1,1.3C86.3,96.5,85.3,96.5,84.8,96z M92,100.4c-1.7,0.7-5.4-0.1-5.8-2.3 c-0.2-1.2,0.5-0.9,1.4-0.5c1.1,0.5,2.1,1,3.4,1c0.4,0,0.8,0,1.1,0.1c0.4,0.1,0.7,0.4,0.7,0.8S92.4,100.3,92,100.4z M96.7,98.6 c-0.8,0.6-1.7,1-2.6,1.3l-0.3-0.5c0.5-1,1.6-1.7,2.7-1.8c0.2,0,0.4,0,0.5,0.1C97.2,98,97,98.4,96.7,98.6z M94.1,97.1 c-0.5,0-1.6-0.5-1.5-1.2c0.1-0.4,0.7-0.5,0.9-0.7c0.4-0.4,0.4-0.8,0.5-1.3c0.2-1,1-1.8,2-2.1c0.5-0.1,1-0.1,1.5,0.2s0.6,1,0.6,1.5 C98,95.3,96,97.3,94.1,97.1z M96.6,89.6c-0.4-0.4-0.8-0.9-1.4-1.1c-0.3-0.1-0.6-0.2-0.8-0.3c-0.6-0.3-0.8-1.1-0.5-1.7 c0.3-0.6,0.9-1,1.6-0.9c0.7,0,1.3,0.3,1.8,0.8s0.8,1.1,1,1.7C98.7,89.3,98.1,90.9,96.6,89.6z M99.6,89.9c0-0.1,0.1-0.3,0.2-0.3 c0.2,0,0.3,0.2,0.3,0.4c0.2,0.7,0.3,1.3,0.3,2s-0.4,1.4-1,1.7c0-0.2-0.1-0.3-0.1-0.5l0.1-0.2C99.3,92,99.4,90.9,99.6,89.9z M99.1,86c0,0.2-0.1,0.5-0.3,0.5c-0.3,0-0.5-0.2-0.6-0.5c-0.6-0.8-1.5-1.4-2.4-1.7l-0.1,0.2c-0.2-0.2-0.4-0.4-0.5-0.7 c-0.1-0.3-0.1-0.6,0.1-0.8c0.3-0.3,0.8-0.1,1.2,0.1c0.9,0.6,1.7,1.3,2.3,2.2C99,85.7,99.1,85.8,99.1,86z"/>
    <path d="M69.5,42c3.4,0.1,6.2-2.1,6.3-5c0.1-2.9-2.5-5.3-5.9-5.4c-3.4-0.1-6.2,2.1-6.3,5C63.5,39.5,66.2,41.9,69.5,42z M69.8,34.4 c1.6,0,2.8,1.2,2.8,2.5c0,1.4-1.4,2.4-2.9,2.4c-1.6-0.1-2.8-1.2-2.8-2.6C66.9,35.4,68.2,34.3,69.8,34.4z"/>
    <path d="M66.4,79.2c-2.6,0.8-4.1,3.6-3.3,6.3c0.8,2.7,4.1,4.9,6.7,4.1c2.6-0.8,3.7-4.4,2.8-7C71.8,79.8,69,78.3,66.4,79.2z M68.6,86.2c-1.2,0.4-2.5-0.3-2.9-1.6c-0.4-1.2,0.3-2.6,1.5-3c1.2-0.4,2.5,0.3,2.9,1.6C70.5,84.5,69.8,85.9,68.6,86.2z"/>
  </g>
</svg>