<svg width="128" height="128" xmlns="http://www.w3.org/2000/svg">
  <path d="M122.6,88.9l-3.4-0.5c2.1-3.9,3.2-7.6,3.8-11c0.6-0.2,1.1-1.2,0.9-2.2c-0.1-0.5-0.4-0.8-0.7-1.1c0.2-1.7,0.2-3.2,0.2-4.6 c0-1.3,0-5.3-2.7-6.2c-0.6-0.2-1.2-0.2-1.8,0c-0.2-4.3-0.9-8.4-1.9-12.2c7.5-10.4,7.3-29.4,6.8-35.2c-0.4-4.8-4.1-8.4-8.6-8.4 c-0.3,0-0.6,0-0.9,0c-8.3,0.8-19.6,3.5-28,9.3c-7-2.8-14.5-4.2-22.3-4.2S48.6,14,41.6,16.7C33.3,11,22,8.3,13.6,7.4 c-0.3,0-0.6,0-0.9,0c-4.5,0-8.2,3.7-8.6,8.4C3.7,21.6,3.5,40.5,11,50.9c-1,3.8-1.6,7.9-1.8,12.2C8.6,63,8,63,7.4,63.1 C4.6,64,4.7,68,4.7,69.3c0,1.4,0.1,3,0.2,4.6c-0.3,0.3-0.6,0.6-0.7,1.1c-0.2,1,0.3,2,1.2,2.3c0.6,3.4,1.8,7,3.8,11L5.8,89 c-1.1,0.2-1.9,1.2-1.7,2.3c0.1,1,1,1.7,2,1.7c0.1,0,0.2,0,0.3,0l5-0.7c0.5,0.7,0.9,1.4,1.5,2.1c1.5,2,2.8,3.5,4,4.7l-9,4.7 c-1,0.5-1.4,1.7-0.8,2.7c0.4,0.7,1.1,1.1,1.8,1.1c0.3,0,0.6-0.1,0.9-0.2l10.1-5.3c2.1,2,3.1,3.3,3.2,6.8c0.2,5.3,1.4,12.6,1.4,12.9 c0.1,0.7,0.7,1.3,1.5,1.3h21.5c0.8,0,1.5-0.6,1.5-1.4c0-0.1,0.1-1.3,0.2-2.8c4.8,1.2,9.9,1.8,15,1.8s10.2-0.6,15-1.9 c0.1,1.5,0.1,2.7,0.2,2.8c0,0.8,0.7,1.4,1.5,1.4h21.5c0.7,0,1.4-0.5,1.5-1.3c0-0.3,1.2-7.6,1.4-12.9c0.1-3.5,1.1-4.7,3.2-6.8 l10.1,5.3c0.3,0.2,0.6,0.2,0.9,0.2c0.7,0,1.4-0.4,1.8-1.1c0.5-1,0.1-2.2-0.8-2.7l-9-4.7c1.2-1.2,2.5-2.7,4-4.7 c0.5-0.7,1-1.4,1.5-2.1l5,0.7c0.1,0,0.2,0,0.3,0c1,0,1.8-0.7,2-1.7C124.5,90.1,123.7,89.1,122.6,88.9z M119.8,66.1 c-0.1,0,0.6,0.4,0.6,3.3c0,1.5-0.1,3-0.2,4.6l-11.3,2.8c2.2-1.6,4.6-4,7.4-7.8C117.8,66.9,119.4,65.9,119.8,66.1z M114.7,10.4 c0.2,0,0.4,0,0.5,0c3,0,5.4,2.4,5.6,5.6c0.1,0.7,0.1,1.4,0.1,2.3c-1.2-1.1-3.1-1-4.7-0.7c-4.5,1-8.8,3-12.4,5.8 c-0.9,0.7-1.8,1.5-2.5,2.4c-3.6-3.1-7.5-5.6-11.8-7.6C97,13.7,106.7,11.2,114.7,10.4z M7,18.3c0-0.8,0.1-1.6,0.1-2.3 c0.2-3.2,2.7-5.6,5.6-5.6c0.2,0,0.4,0,0.5,0c7.9,0.8,17.6,3.3,25,7.8c-4.3,2-8.2,4.5-11.8,7.6c-0.7-0.9-1.5-1.6-2.4-2.3 c-3.6-2.9-7.9-4.9-12.4-5.8C10.1,17.3,8.2,17.2,7,18.3z M7.6,69.5c0-3,0.7-3.4,0.7-3.4c0.4-0.1,2,0.8,3.5,2.9 c2.8,3.9,5.1,6.2,7.4,7.8L7.8,74.1C7.6,72.5,7.6,70.9,7.6,69.5z M46.4,110.5c-0.1,1.6-0.3,7-0.5,9.5H27.1c-0.3-2.3-1-7.4-1.2-11.3 c-0.2-4.1-1.5-6.1-3.4-8.1l7-3.6c1-0.5,1.4-1.7,0.8-2.7c-0.5-1-1.7-1.4-2.7-0.8l-8.1,4.2c-1.3-1.3-2.7-2.9-4.3-5.1 c-0.2-0.3-0.4-0.5-0.6-0.8L27.4,90c1.1-0.2,1.9-1.2,1.7-2.3C29,86.6,28,85.9,26.9,86l-14.6,2c-1.9-3.5-3.1-6.7-3.8-9.7l18.3,4.5 c0.2,0,0.3,0.1,0.5,0.1c0.9,0,1.7-0.6,1.9-1.5v-0.1c2.8,1.1,6,2.8,10.2,6.6C46,93.9,46.6,103.1,46.4,110.5z M78.6,110.6 c0,0.9,0.1,3,0.2,5.1c-4.7,1.2-9.7,1.9-14.9,1.9c-5,0-10-0.6-14.9-1.9c0.1-2.1,0.2-4.2,0.2-5.2c0.2-8-0.5-18.1-7.9-24.8 c-6.1-5.6-10.4-7-14.1-8.3c-4.2-1.4-7.6-2.6-13-10.1c-0.6-0.9-1.4-1.7-2.2-2.4c0.4-14.9,5.8-27.4,15.8-36.2 c6.7-6,15.3-10.1,24.7-11.9v21c0,1.9,1.6,3.5,3.5,3.5s3.5-1.6,3.5-3.5v-21c0-0.3-0.1-0.6-0.1-0.9c1.5-0.1,3.1-0.2,4.6-0.2 c1.6,0,3.1,0.1,4.6,0.2c-0.1,0.3-0.1,0.6-0.1,0.9v21c0,1.9,1.6,3.5,3.5,3.5s3.5-1.6,3.5-3.5v-21c9.4,1.8,17.9,6,24.7,12 c9.9,8.9,15.4,21.4,15.8,36.1c-0.8,0.7-1.6,1.6-2.2,2.4c-5.4,7.5-8.8,8.7-13.2,10.2c-3.8,1.3-8,2.7-14.1,8.3 C79.1,92.5,78.4,102.5,78.6,110.6z M115.6,88.1l-14.6-2c-1.1-0.2-2.1,0.6-2.3,1.7c0,1,0.8,2,1.9,2.2l12.8,1.8 c-0.2,0.3-0.4,0.5-0.6,0.8c-1.6,2.2-3,3.8-4.3,5.1l-8.1-4.2c-1-0.5-2.2-0.1-2.7,0.8s-0.1,2.2,0.8,2.7l7,3.6c-1.9,2-3.3,4-3.4,8.1 c-0.2,3.9-0.8,9-1.2,11.3H82.1c-0.1-2.6-0.4-7.9-0.5-9.5c-0.2-7.4,0.4-16.6,6.9-22.5c4.2-3.8,7.4-5.5,10.2-6.6v0.1 c0.2,0.9,1,1.5,1.9,1.5c0.2,0,0.3,0,0.5-0.1l18.3-4.5C118.7,81.4,117.6,84.7,115.6,88.1z M45.2,42.7c-1.9-1.2-4.1-1.8-6.3-1.8 c-4.9,0-10.1,3.1-13.6,9.6c-5,9.5-2.4,18.9,3.8,22.8c1.9,1.2,4.1,1.8,6.3,1.8c4.9,0,10.1-3.1,13.6-9.6C54,56,51.4,46.7,45.2,42.7z M66.5,80.9v-7.7l5.4-6.1c1.9-2.1,0.4-5.5-2.5-5.5H58.6c-2.8,0-4.4,3.4-2.5,5.5l5.4,6.1v7.7c-4.3,0.7-8.3,3.4-9.9,9.4 c-2.5,9.7,3,16.6,5.2,16.6c0.7,0,1.3-0.2,2-0.6c1.7-1,3.4-1.5,5.2-1.5c1.8,0,3.5,0.5,5.2,1.5c0.6,0.4,1.3,0.6,2,0.6 c2.1,0,7.6-8.3,5.4-15.9C74.6,84.6,70.7,81.7,66.5,80.9z M98.9,73.3c6.2-3.9,8.8-13.2,3.8-22.8c-3.5-6.6-8.6-9.6-13.6-9.6 c-2.2,0-4.4,0.6-6.3,1.8C76.6,46.7,74,56,79,65.5c3.5,6.6,8.6,9.6,13.6,9.6C94.8,75.2,96.9,74.5,98.9,73.3z M100.1,51.8 c4,7.9,1.9,15.6-3,18.8c-1.5,1-3.2,1.5-5,1.5c-3.9,0-8-2.5-10.7-8c-4-7.9-1.9-15.6,3-18.8c1.5-1,3.2-1.5,5-1.5 C93.2,43.9,97.3,46.4,100.1,51.8z M38.5,43.9c1.8,0,3.5,0.5,5,1.5c4.9,3.2,6.9,10.9,3,18.8c-2.7,5.4-6.8,8-10.7,8 c-1.8,0-3.5-0.5-5-1.5c-4.9-3.2-6.9-10.9-3-18.8C30.5,46.4,34.6,43.9,38.5,43.9z"/>
</svg>