<svg width="128" height="128" xmlns="http://www.w3.org/2000/svg">
  <g>
    <path d="M122.2,47.8c-0.4-3.5-5.2-7.9-5.2-7.9s0-2.7-1.1-5.3c-0.6-1.5-2.6-2.5-4.2-3.2c-0.8-0.5-1.7-0.9-2.7-1.1 c-0.3-0.3-0.7-0.6-1.2-1c-2.5-8.8-11-16.7-21.4-19.1c-1.4-1.8-3.5-3-6-3c-0.9,0-1.7,0.2-2.5,0.4c-4.2-1.7-8.5-3.5-13-2.5 c-0.5,0.1-1.1,0.2-1.6,0.2c-2.2-0.6-4.2-1-6.4-0.7c-0.8,0-1.7,0-2.6,0.3c-2.4,0.8-4.6,2.6-7,4.2C46.9,9,46.4,9,46,9 c-2.5,0-4.7,1.2-6,3c-4.7,0.9-8.3,4.4-11.2,7.4c-2.8,2-3.7,5.8-5.8,6.6c-3.1,1.1-6,5.1-7.3,9.1c-0.5,0.7-0.8,1.1-0.8,1.1 s-2.4,1.1-4.5,4.3c-3.7,5.7-1.2,5.7-4,9.8c-3.1,4.6-0.8,9.8-0.7,10c-0.2,0.6-0.3,1.2-0.3,1.8c0,0,0,0,0,0.1c-0.1,1.2,0,2.8,0.9,3.6 C6.5,66,6.8,66.2,7,66.4c0.5,0.6,1.2,1,1.9,1.2c0.3,0.1,0.5,0.3,0.7,0.4c0,0.2,0.1,0.3,0.1,0.4c1.3,5.2,8,10.5,15,10.5 c0.2,0,0.3,0,0.5,0c0.5,0,0.9,0,1.3-0.1c3.3-0.4,6.2-1.8,8.2-4.1c0.8-0.6,1.4-1.2,1.6-1.9c0-0.1,0.1-0.3,0.1-0.4 c2.7,0.8,9.9,3.4,12.5,9.9c1.3,3.2,2.3,6.6,3.2,10c0.5,1.8,2.2,5,1.3,6.8c-0.3,0.6-0.7,1.1-0.8,1.7c-0.1,0.8,0.2,1.5,0.5,2.2 c2,5,0.8,10.2-1.2,15.1c-0.9,2.2,3.7,5.3,10,5.8c0.4,0,0.8,0,1.1,0c3.2,0,6.9-0.9,9.3-3.1c1.4-1.2,1.7-2.1,1.3-3.9 c-0.6-2.3-1.2-4.5-1.8-6.8c0.8-0.4,0.8-1.5,0.7-2.4c-0.4-3.7-1-7.2,0-10.8c0.7-3.5,4-17.4,7.7-20.4c2.8-2.2,6.7-3.6,8.4-4.2 c0.1,0,0.2,0.1,0.2,0.1c0.1,0,0.2,0.1,0.2,0.1c0.2,0.1,0.4,0.2,0.6,0.2c1.1,0.4,2.2,0.6,3.2,0.7c2.6,1.2,5.5,1.9,8.5,1.9 c7.4,0,14.2-3.5,17.9-9.2c0.3-0.2,0.7-0.5,1-0.7c3.1-1.9,3.3-6.2,3.7-8.6C124.4,54.5,122.6,51.3,122.2,47.8z M102.5,33.2 c0.5,0.9,0.2,2-0.7,2.5c-0.9,0.5-1.9,0.1-2.4-0.8c-0.5-0.9-0.2-2,0.7-2.5C101,31.9,102.1,32.3,102.5,33.2z M98.8,23.5 c1,0,1.9,0.8,1.9,1.8S99.8,27,98.8,27s-1.9-0.8-1.9-1.8c0-0.2,0-0.4,0.1-0.6c-0.1,0.2-0.3,0.3-0.5,0.4c-0.9,0.5-1.9,0.1-2.4-0.8 c-0.5-0.9-0.2-2,0.7-2.5c0.9-0.5,1.9-0.1,2.4,0.8c0.3,0.5,0.3,1.1,0.1,1.6C97.6,23.8,98.1,23.5,98.8,23.5z M96.5,31.8 c1,0,1.9,0.8,1.9,1.8s-0.8,1.8-1.9,1.8c-1,0-1.9-0.8-1.9-1.8S95.5,31.8,96.5,31.8z M95.3,28.2c0.9-0.5,1.9-0.1,2.4,0.8 s0.2,2-0.7,2.5c-0.9,0.5-1.9,0.1-2.4-0.8C94.1,29.8,94.4,28.7,95.3,28.2z M95.5,16.1c1,0,1.9,0.8,1.9,1.8s-0.8,1.8-1.9,1.8 s-1.9-0.8-1.9-1.8S94.5,16.1,95.5,16.1z M90.4,17.8c0.9-0.5,1.9-0.1,2.4,0.8c0.5,0.9,0.2,2-0.7,2.5c-0.9,0.5-1.9,0.1-2.4-0.8 C89.2,19.4,89.5,18.2,90.4,17.8z M93.3,32.1c0,1-0.8,1.8-1.9,1.8c-1,0-1.9-0.8-1.9-1.8s0.8-1.8,1.9-1.8 C92.5,30.3,93.3,31.1,93.3,32.1z M85.5,12.9c0.9-0.5,1.9-0.1,2.4,0.8c0.5,0.9,0.2,2-0.7,2.5c-0.9,0.5-1.9,0.1-2.4-0.8 C84.3,14.5,84.7,13.4,85.5,12.9z M86.4,16.8c1,0,1.9,0.8,1.9,1.8c0,0.7-0.5,1.3-1.1,1.6c0.9,0.1,1.6,0.8,1.6,1.7 c0,1-0.8,1.8-1.9,1.8c-1,0-1.9-0.8-1.9-1.8c0-0.7,0.5-1.3,1.1-1.6c-0.9-0.1-1.6-0.8-1.6-1.7C84.5,17.5,85.3,16.8,86.4,16.8z M81.8,20c-1,0-1.9-0.8-1.9-1.8s0.8-1.8,1.9-1.8c1.1,0,1.9,0.8,1.9,1.8S82.8,20,81.8,20z M82,34.2c0,1-0.8,1.8-1.9,1.8 c-1,0-1.9-0.8-1.9-1.8s0.8-1.8,1.9-1.8C81.1,32.4,82,33.2,82,34.2z M85,27c1,0,1.9,0.8,1.9,1.8S86,30.5,85,30.5s-1.9-0.8-1.9-1.8 S83.9,27,85,27z M80.7,8.8c0.9-0.5,1.9-0.1,2.4,0.8c0.5,0.9,0.2,2-0.7,2.5c-0.1,0-0.2,0.1-0.3,0.1c0.9,0.1,1.8,0.8,1.8,1.8 c0,1-0.9,1.8-1.9,1.8S80.1,15,80.1,14c0-0.8,0.5-1.5,1.3-1.7c-0.6-0.1-1.1-0.4-1.4-1C79.5,10.4,79.8,9.2,80.7,8.8z M79.7,28 c1,0,1.9,0.8,1.9,1.8s-0.8,1.8-1.9,1.8c-1,0-1.9-0.8-1.9-1.8S78.7,28,79.7,28z M77.5,25.3c-0.5,0.9-1.7,1.2-2.8,0.7 c-1.1-0.5-1.6-1.7-1.1-2.6c0.5-0.9,1.7-1.2,2.8-0.7C77.5,23.2,78,24.4,77.5,25.3z M72.9,11.3c0.9-0.5,1.9-0.1,2.4,0.8 c0.5,0.9,0.2,2-0.7,2.5c-0.9,0.5-1.9,0.1-2.4-0.8C71.7,12.9,72.1,11.8,72.9,11.3z M59.3,38c1.2,0,2.1,0.8,2.1,1.8s-1,1.8-2.1,1.8 c-1.2,0-2.1-0.8-2.1-1.8S58.2,38,59.3,38z M60.2,26.5c0.8-0.3,1.7,0.3,2,1.2c0.3,0.9,0,1.9-0.8,2.2c-0.8,0.3-1.7-0.3-2-1.2 C59.1,27.8,59.4,26.8,60.2,26.5z M61.3,42.6c1,0,1.9,0.8,1.9,1.8s-0.8,1.8-1.9,1.8c-1,0-1.9-0.8-1.9-1.8S60.3,42.6,61.3,42.6z M63.1,36.2c-0.8,0.3-1.7-0.3-2-1.2c-0.3-0.9,0-1.9,0.8-2.2c0.8-0.3,1.7,0.3,2,1.2C64.3,35,63.9,36,63.1,36.2z M64,27.5 c-0.8,0.3-1.7-0.3-2-1.2c-0.3-0.9,0-1.9,0.8-2.2c0.8-0.3,1.7,0.3,2,1.2C65.2,26.2,64.8,27.2,64,27.5z M65.1,30.6 c0.8-0.3,1.7,0.3,2,1.2c0.3,0.9,0,1.9-0.8,2.2s-1.7-0.3-2-1.2C64,31.8,64.4,30.8,65.1,30.6z M66.3,38.2c0.8-0.3,1.7,0.3,2,1.2 c0.3,0.9,0,1.9-0.8,2.2c-0.8,0.3-1.7-0.3-2-1.2C65.2,39.5,65.6,38.5,66.3,38.2z M66.5,29.1c-0.3-0.9,0-1.9,0.8-2.2 c0.8-0.3,1.7,0.3,2,1.2c0.3,0.9,0,1.9-0.8,2.2C67.7,30.5,66.8,30,66.5,29.1z M70.1,29.7c0.8-0.3,1.7,0.3,2,1.2 c0.3,0.9,0,1.9-0.8,2.2c-0.8,0.3-1.7-0.3-2-1.2C69,31,69.3,30,70.1,29.7z M67.8,19.2c-0.3-0.4-0.3-0.9-0.1-1.4 c0.1-0.1,0.2-0.3,0.3-0.4c-0.4-0.7-0.4-1.6,0.1-2.1c0.7-0.8,2-0.7,2.9,0.1c0.9,0.8,1.1,2.1,0.4,2.9c-0.1,0.1-0.3,0.2-0.4,0.3 c0.1,0.3,0,0.6-0.1,0.9c-0.3,0.6-1,0.8-1.7,0.7c0.6,0.8,0.6,1.8,0.1,2.4c-0.7,0.8-2,0.7-2.9-0.1c-0.9-0.8-1.1-2.1-0.4-2.9 C66.4,19.2,67.1,19.1,67.8,19.2z M63.2,11.3c0.6-0.6,1.6-0.6,2.3,0.1c0.7,0.7,0.9,1.7,0.3,2.3c-0.6,0.6-1.6,0.6-2.3-0.1 C62.8,12.9,62.6,12,63.2,11.3z M61.5,14.9c0.6-0.6,1.6-0.6,2.3,0.1s0.9,1.7,0.3,2.3c-0.6,0.6-1.6,0.6-2.3-0.1S60.9,15.5,61.5,14.9z M58,6.8c0.6-0.6,1.6-0.6,2.3,0.1c0.7,0.7,0.9,1.7,0.3,2.3C60,9.8,59,9.8,58.3,9.1C57.6,8.4,57.5,7.4,58,6.8z M56.9,10.2 c0.6-0.6,1.6-0.6,2.3,0.1s0.9,1.7,0.3,2.3c-0.6,0.6-1.6,0.6-2.3-0.1S56.4,10.8,56.9,10.2z M55.8,16.4c0.6-0.6,1.6-0.6,2.3,0.1 c0.7,0.7,0.9,1.7,0.3,2.3c-0.6,0.6-1.6,0.6-2.3-0.1C55.4,18,55.2,17,55.8,16.4z M57.7,27.1c-0.8,0.3-1.7-0.3-2-1.2 c-0.3-0.9,0-1.9,0.8-2.2s1.7,0.3,2,1.2C58.8,25.8,58.5,26.8,57.7,27.1z M56.2,31.4c0.8-0.3,1.7,0.3,2,1.2c0.3,0.9,0,1.9-0.8,2.2 c-0.8,0.3-1.7-0.3-2-1.2C55.1,32.7,55.5,31.7,56.2,31.4z M52.3,9.5c0.6-0.6,1.6-0.6,2.3,0.1c0.7,0.7,0.9,1.7,0.3,2.3 c-0.6,0.6-1.6,0.6-2.3-0.1C51.9,11.1,51.7,10.1,52.3,9.5z M47.8,46.6c1.2,0,2.1,0.8,2.1,1.8s-1,1.8-2.1,1.8c-1.2,0-2.1-0.8-2.1-1.8 C45.6,47.4,46.6,46.6,47.8,46.6z M43.9,43.8c-1.2,0-2.1-0.8-2.1-1.8s1-1.8,2.1-1.8C45,40.2,46,41,46,42 C46.1,43,45.1,43.8,43.9,43.8z M50.4,36.4c1.2,0,2.1,0.8,2.1,1.8s-1,1.8-2.1,1.8c-1.2,0-2.1-0.8-2.1-1.8 C48.2,37.2,49.2,36.4,50.4,36.4z M49.2,32.3c0-1,1-1.8,2.1-1.8c1.2,0,2.1,0.8,2.1,1.8s-1,1.8-2.1,1.8 C50.2,34.1,49.2,33.3,49.2,32.3z M49.5,42.6c0-1,1-1.8,2.1-1.8c1.2,0,2.1,0.8,2.1,1.8s-1,1.8-2.1,1.8 C50.5,44.4,49.5,43.6,49.5,42.6z M53.4,30.7c-1,0-1.8-0.7-1.8-1.5c0-0.3,0.1-0.6,0.3-0.9c-0.3-0.2-0.5-0.5-0.7-0.9 c-0.3-0.9,0-1.9,0.8-2.2s1.7,0.3,2,1.2c0.2,0.5,0.2,1,0,1.4c0.7,0.2,1.1,0.8,1.1,1.4C55.2,30.1,54.4,30.7,53.4,30.7z M49.2,13 c0.6-0.6,1.6-0.6,2.3,0.1c0.7,0.7,0.9,1.7,0.3,2.3c-0.6,0.6-1.6,0.6-2.3-0.1S48.6,13.6,49.2,13z M49.2,34.2c0,1-1,1.8-2.1,1.8 c-1.2,0-2.1-0.8-2.1-1.8c0-0.6,0.3-1.1,0.9-1.4c-0.5-0.3-0.8-0.7-0.8-1.2c0-0.8,0.8-1.5,1.8-1.5s1.8,0.7,1.8,1.5 c0,0.4-0.2,0.8-0.6,1.1C48.8,33,49.2,33.6,49.2,34.2z M44,27.8c0-0.8,0.8-1.5,1.8-1.5s1.8,0.7,1.8,1.5s-0.8,1.5-1.8,1.5 S44,28.6,44,27.8z M46.6,21.4c1,0,1.8,0.7,1.8,1.5c0,0.8-0.8,1.5-1.8,1.5s-1.8-0.7-1.8-1.5C44.8,22,45.6,21.4,46.6,21.4z M44.8,24.5c0,0.8-0.8,1.5-1.8,1.5s-1.8-0.7-1.8-1.5S42,23,43,23S44.8,23.7,44.8,24.5z M40.3,29.6c1,0,1.8,0.7,1.8,1.5 c0,0.8-0.8,1.5-1.8,1.5s-1.8-0.7-1.8-1.5C38.5,30.3,39.4,29.6,40.3,29.6z M37.1,27.8c0-0.8,0.8-1.5,1.8-1.5s1.8,0.7,1.8,1.5 s-0.8,1.5-1.8,1.5S37.1,28.6,37.1,27.8z M41.8,15.2c1,0,1.9,0.8,1.9,1.8s-0.8,1.8-1.9,1.8c-1.1,0-1.9-0.8-1.9-1.8 S40.7,15.2,41.8,15.2z M37.8,19.2c1,0,1.9,0.8,1.9,1.8s-0.8,1.8-1.9,1.8c-1.1,0-1.9-0.8-1.9-1.8S36.7,19.2,37.8,19.2z M36.4,32.2 c1,0,1.8,0.7,1.8,1.5s-0.8,1.5-1.8,1.5s-1.8-0.7-1.8-1.5C34.6,32.8,35.4,32.2,36.4,32.2z M32.3,24.5c1,0,1.9,0.8,1.9,1.8 S33.3,28,32.3,28s-1.9-0.8-1.9-1.8S31.3,24.5,32.3,24.5z M27,30c1,0,1.9,0.8,1.9,1.8S28,33.5,27,33.5s-1.9-0.8-1.9-1.8S26,30,27,30 z M24.2,34.5c1,0,1.9,0.8,1.9,1.8S25.3,38,24.2,38c-1.1,0-1.9-0.8-1.9-1.8S23.2,34.5,24.2,34.5z M22,55.4c0,1-0.8,1.8-1.7,1.8 c-0.9,0-1.7-0.8-1.7-1.8s0.8-1.8,1.7-1.8c0.1,0,0.2,0,0.3,0c-0.1-0.2-0.1-0.5-0.1-0.7c0-1.2,0.9-2.2,2-2.2s2.1,1,2.1,2.2 c0,1.2-0.9,2.2-2.1,2.2c-0.2,0-0.4,0-0.6-0.1C22,55.1,22,55.2,22,55.4z M23.4,43.4c-1,0-1.9-0.8-1.9-1.8s0.8-1.8,1.9-1.8 c1,0,1.9,0.8,1.9,1.8S24.4,43.4,23.4,43.4z M20.5,32.5c1,0,1.9,0.8,1.9,1.8S21.5,36,20.5,36s-1.9-0.8-1.9-1.8S19.5,32.5,20.5,32.5z M19.2,37.5c1,0,1.9,0.8,1.9,1.8S20.3,41,19.2,41c-1.1,0-1.9-0.8-1.9-1.8S18.2,37.5,19.2,37.5z M11.8,47.9c0.9,0,1.7,0.8,1.7,1.8 s-0.8,1.8-1.7,1.8c-0.9,0-1.7-0.8-1.7-1.8S10.9,47.9,11.8,47.9z M9.6,57.3c-0.9,0-1.7-0.8-1.7-1.8s0.8-1.8,1.7-1.8 c0.9,0,1.7,0.8,1.7,1.8S10.5,57.3,9.6,57.3z M13.1,61.4c-0.9,0-1.7-0.8-1.7-1.8s0.8-1.8,1.7-1.8c0.9,0,1.7,0.8,1.7,1.8 S14,61.4,13.1,61.4z M13.4,56.2c-0.9,0-1.7-0.8-1.7-1.8s0.8-1.8,1.7-1.8c0.9,0,1.7,0.8,1.7,1.8S14.3,56.2,13.4,56.2z M13.4,44.5 c0-1,0.8-1.8,1.7-1.8c0.9,0,1.7,0.8,1.7,1.8s-0.8,1.8-1.7,1.8C14.2,46.3,13.4,45.5,13.4,44.5z M15.3,51.8c0-1,0.8-1.8,1.7-1.8 s1.7,0.8,1.7,1.8s-0.8,1.8-1.7,1.8C16,53.6,15.3,52.8,15.3,51.8z M19.8,62.2c-1.1,0-2-1-2-2.2s0.9-2.2,2-2.2c1.1,0,2,1,2,2.2 S20.9,62.2,19.8,62.2z M24,67.2c-1.1,0-2-1-2-2.2s0.9-2.2,2-2.2s2.1,1,2.1,2.2S25.2,67.2,24,67.2z M24.5,60.9c-1.1,0-2-1-2-2.2 s0.9-2.2,2-2.2s2,1,2,2.2S25.6,60.9,24.5,60.9z M24.5,46.5c0-1.2,0.9-2.2,2-2.2s2,1,2,2.2s-0.9,2.2-2,2.2S24.5,47.7,24.5,46.5z M28.8,57.7c-1.1,0-2-1-2-2.2s0.9-2.2,2-2.2c1.1,0,2,1,2,2.2S30,57.7,28.8,57.7z M32.9,62c-1.1,0-2-1-2-2.2s0.9-2.2,2-2.2 c1.1,0,2,1,2,2.2C35,61,34.1,62,32.9,62z M34.6,38.3c0-0.8,0.8-1.5,1.8-1.5c0.6,0,1.1,0.2,1.4,0.6c0.3-0.3,0.8-0.5,1.3-0.5 s0.9,0.2,1.2,0.4c0.3-0.5,0.8-0.8,1.4-0.9c-0.1-0.7,0.2-1.5,0.9-1.8c0.9-0.5,1.9-0.1,2.4,0.8c0.1,0.2,0.1,0.3,0.2,0.5 c0.1,0.2,0.1,0.4,0.1,0.6c0,0.3-0.1,0.7-0.4,0.9c-0.1,0.2-0.3,0.4-0.6,0.5h-0.1c0,0.1,0,0.1,0,0.2c0,1-1,1.8-2.1,1.8 c-0.6,0-1.1-0.2-1.4-0.5c-0.3,0.6-0.9,1-1.7,1c-0.7,0-1.3-0.4-1.6-0.9c-0.2,0.2-0.6,0.3-1,0.3C35.4,39.8,34.6,39.1,34.6,38.3z M41.4,45.1c0,1-1,1.8-2.1,1.8c-1.2,0-2.1-0.8-2.1-1.8s1-1.8,2.1-1.8C40.5,43.3,41.4,44.1,41.4,45.1z M39.6,70.4 c0.3,0,0.4,0.1,0.6,0.2C40,70.5,39.8,70.4,39.6,70.4z M39.3,52.4c-1.2,0-2.1-0.8-2.1-1.8s1-1.8,2.1-1.8c1.2,0,2.1,0.8,2.1,1.8 S40.4,52.4,39.3,52.4z M78.4,74.3c-4.6,3.7-7.8,17.7-8.7,22c-0.9,3.7-0.5,7.2-0.1,10.6c0,0.4,0.1,0.8,0.1,1.2v0.1 c-0.7,0.8-1,1.8-0.7,2.8l0.6,2.3c0.4,1.5,0.8,3,1.2,4.5c0.1,0.2,0.1,0.4,0.1,0.5c-0.1,0.1-0.2,0.2-0.5,0.4 c-1.6,1.4-4.4,2.3-7.3,2.3c-0.3,0-0.6,0-0.9,0c-3.8-0.3-6.3-1.6-7.2-2.3c1.7-4.3,3.3-10.4,0.9-16.6l-0.1-0.2c0-0.1-0.1-0.3-0.2-0.4 c0,0,0.1-0.1,0.1-0.2c0.1-0.2,0.3-0.4,0.4-0.7c1.3-2.5,0.2-5.5-0.5-7.6c-0.2-0.5-0.4-1.1-0.5-1.4c-1-3.8-2.1-7.2-3.3-10.4 c-1.8-4.5-5.2-7.3-8.5-9.2c-0.6-1.3-1.4-2.5-2.4-3.6c1,0.8,2.1,1.5,3.2,1.9c2.1,0.9,4.8,0.8,7,0.6c4,6.7,6.3,14.3,6.9,22 c0.9-7.5,0.6-15.3-1.1-22.7c4.2-0.8,6-1.9,7.7-3.2c-0.4,6.8-0.4,13.4,2.4,20c-2.4-8.7,0.3-16.7,3.4-24.7c1.4,1.3,3.6,2.7,6.1,4.1 c-3.7,4.1-6.4,8.9-5.5,15.6c0.5-6.5,3.9-10.6,8.3-14.1c1.9,1,3.9,1.9,5.6,2.7C82.8,71.5,80.4,72.7,78.4,74.3z M83.2,33 c0-1,0.8-1.8,1.9-1.8c1,0,1.9,0.8,1.9,1.8s-0.8,1.8-1.9,1.8C84,34.8,83.2,34,83.2,33z M88.5,45.4c-1,0-1.9-0.8-1.9-1.8 c0-0.7,0.5-1.4,1.2-1.6c-0.9-0.1-1.6-0.8-1.6-1.7c0-1,0.8-1.8,1.9-1.8c1,0,1.9,0.8,1.9,1.8c0,0.7-0.5,1.4-1.2,1.6 c0.9,0.1,1.6,0.8,1.6,1.7C90.4,44.6,89.5,45.4,88.5,45.4z M89.7,37.2c-0.1,0.4-0.4,0.7-0.8,0.9c-0.9,0.5-1.9,0.1-2.4-0.8 c-0.5-0.9-0.2-2,0.7-2.5c0.6-0.3,1.3-0.2,1.9,0.2c0.3-0.6,0.9-1,1.7-1c1,0,1.9,0.8,1.9,1.8s-0.8,1.8-1.9,1.8 C90.4,37.5,90,37.4,89.7,37.2z M93.8,42.9c-0.9,0.5-1.9,0.1-2.4-0.8c-0.5-0.9-0.2-2,0.7-2.5c0.9-0.5,1.9-0.1,2.4,0.8 C95,41.3,94.7,42.5,93.8,42.9z M94.5,37.7c0-1,0.8-1.8,1.9-1.8c1,0,1.9,0.8,1.9,1.8s-0.8,1.8-1.9,1.8 C95.3,39.4,94.5,38.6,94.5,37.7z M100.4,48.8c-1,0-1.9-0.8-1.9-1.8c0-0.2,0-0.4,0.1-0.6c-0.1,0.2-0.3,0.3-0.5,0.4 c-0.9,0.5-1.9,0.1-2.4-0.8s-0.2-2,0.7-2.5c0.9-0.5,1.9-0.1,2.4,0.8c0.3,0.5,0.3,1.1,0.1,1.6c0.3-0.4,0.9-0.7,1.5-0.7 c1,0,1.9,0.8,1.9,1.8S101.5,48.8,100.4,48.8z M101.4,43c-1,0-1.9-0.8-1.9-1.8c0-0.7,0.5-1.3,1.1-1.6c-0.9-0.1-1.6-0.8-1.6-1.7 c0-1,0.8-1.8,1.9-1.8c1,0,1.9,0.8,1.9,1.8c0,0.7-0.5,1.3-1.1,1.6c0.9,0.1,1.6,0.8,1.6,1.7C103.3,42.2,102.5,43,101.4,43z M106.7,40.5c-0.9,0.5-1.9,0.1-2.4-0.8c-0.5-0.9-0.2-2,0.7-2.5c0.9-0.5,1.9-0.1,2.4,0.8S107.6,40,106.7,40.5z M113.3,46.4 c-1,0-1.9-0.8-1.9-1.8c0-0.2,0-0.4,0.1-0.6c-0.1,0.2-0.3,0.3-0.5,0.4c-0.9,0.5-1.9,0.1-2.4-0.8c-0.5-0.9-0.2-2,0.7-2.5 c0.9-0.5,1.9-0.1,2.4,0.8c0.3,0.5,0.3,1.1,0.1,1.6c0.3-0.4,0.9-0.7,1.5-0.7c1,0,1.9,0.8,1.9,1.8S114.4,46.4,113.3,46.4z"/>
    <path d="M81.4,12.3c0.2,0,0.5,0,0.8-0.1c0,0-0.1,0-0.1,0C81.8,12.2,81.6,12.2,81.4,12.3z"/>
  </g>
</svg>