<svg width="128" height="128" xmlns="http://www.w3.org/2000/svg">
  <g>
    <path d="M49.3,16.5c0.5,0.3,1,0.4,1.5,0.4c0.9,0,1.8-0.5,2.3-1.3c0.8-1.3,0.5-3-0.8-3.8c-0.5-0.3-1-0.4-1.5-0.4 c-0.9,0-1.8,0.4-2.3,1.3C47.6,14,48,15.7,49.3,16.5z"/>
    <path d="M102.2,90.1c-0.8-2-2.2-3.8-3.5-3.5c-4.3,0.7-8.4,1-12.6,0.9c-0.2-1-0.6-2.1-1-3.1c0.1-0.1,0.1-0.2,0.2-0.2 c0.7-1,0.8-2.5,0.1-5c-0.1-0.5-0.3-1-0.4-1.5c0.1-0.1,0.1-0.1,0.2-0.2c1.3-2-0.7-7.3-1.3-8.7c0-0.2,0-0.4,0-0.6 c0-1.3-0.3-2.6-0.4-3.1c0-0.1,0-0.2,0-0.3l0-0.1c-0.2-6-1.6-20.7-10.6-29.7c-1.2-2.3-1.6-4.7-2.2-8.2c-0.4-2.1-0.8-4.6-1.5-7.6 C66.7,8.7,60.9,4,49.9,3.6C43,3.3,38.6,4.4,36.1,7.2c-2,2.2-2.7,5.5-2.1,10c-0.5,0.4-1,0.8-1.4,1.3c-0.2,0.2-0.4,0.5-0.6,0.8 c-0.1,0.1-0.2,0.3-0.3,0.5c-0.1,0.1-0.1,0.2-0.2,0.3l0,0.1c-0.2,0.3-0.3,0.6-0.5,0.9c-0.1,0.1-0.1,0.2-0.2,0.3 c-0.1,0.2-0.1,0.3-0.2,0.5c-0.1,0.3-0.2,0.5-0.2,0.8c0,0.1,0,0.1,0,0.2l0,0.1c-0.1,0.3-0.1,0.6-0.2,0.9 c-0.8,5.5,3.1,10.8,6.1,11.4c0.1,0,0.1,0,0.2,0c0.2,0,0.4-0.1,0.6-0.2c0.2-0.2,0.4-0.4,0.4-0.7c0.3-3.6,0.5-4.5,3.5-5.3 c-0.5,1.4-0.9,2.5-1.4,3.2l0,0.1c-0.1,0.1-0.1,0.2-0.2,0.3c-0.1,0.3-0.1,0.6,0,0.8c0.1,0.3,0.4,0.5,0.7,0.6 c1.5,0.9,3,1.4,4.4,1.5c-0.4,1-1,2-1.5,3.1c-2.1,4-4.7,9-4.7,18.5c0,7.3,3.7,14.1,8,19.7c-0.7-0.7-2-1.5-3.5-0.7 c-0.2,0.1-0.3,0.2-0.5,0.3c-3.8-1.3-8.1-2.9-13.1-4.7l-0.1,0l-0.1,0c-0.3,0.1-0.5,0.1-0.7,0.1c-1.3,0.2-1.4,0.5-2.5,2.6 c-0.5,1-0.8,3.4,0.4,4.4l0.2,0.1c5.1,1.9,9.7,3.5,13.7,5c0.6,1.2,1.7,1.6,2.6,0.9c0.2,0.1,0.3,0.1,0.5,0.2c0.4,1.1,1,1.7,1.7,1.7 c0.4,0,0.8-0.2,1.2-0.7c1.7,0.6,3.2,1.1,4.7,1.6c0.2,0.9,0.6,1.6,1.4,1.8c0.8,0.1,1.3-0.3,1.6-0.8c0.3,0.1,0.7,0.2,1,0.3 c0.3,0.8,0.8,1.4,1.2,1.5c0.7,0.2,1-0.1,1.3-0.7c1,0.3,2,0.6,2.9,0.9c1.4,1.3,2.9,2.7,4.2,3.9c2.7,2.6,4.5,4.2,5.8,5.1 c0.2,1.6,0.4,3,0.4,4.2l0,0.2c0,0.5,0.3,1,0.8,1.2c0.2,0.1,0.5,0.2,0.7,0.2c-0.1,0.6,0.2,1.2,0.7,1.5c0.2,0.1,0.4,0.2,0.6,0.2 c0.3,3.3,0.6,5.8,0.9,7.5c1.4,7.1,2.7,9.6,5.1,9.6c0,0,0,0,0,0c1.6,0,2.3-1.5,2.8-3.7c3.1,4,4.4,4,4.8,4c0.2,0,0.3,0,0.4-0.1 c0.6-0.1,1.1-0.4,1.4-0.8c0.5-0.6,0.9-1.5,0.8-4c2.1,1.6,4.6,3.1,6.2,3.1c0.6,0,1.1-0.2,1.4-0.5c0.4-0.3,0.7-0.8,0.7-1.4 c0.1-1-0.2-2.5-3.6-6.8c-2.6-3.3-4.8-6.7-6.5-10.2c0-1.1-0.3-2.4-0.9-3.9c0.1-0.2,0.2-0.5,0.3-0.8c0.2-1,0.1-2-0.2-3.3 c0.7,0,1.3,0,2,0c4.2,0,8.4-0.4,12.9-1.2c0.4-0.1,0.6-0.3,0.8-0.7C102.9,93.2,102.8,91.7,102.2,90.1z M39.7,82.7 c-3.8-1.4-8.2-2.9-13-4.7c-0.7-0.7-0.5-2.4-0.1-3.2c1-1.9,1-1.9,1.8-2c0.2,0,0.4,0,0.6-0.1c4.7,1.7,8.8,3.2,12.4,4.5 C40.1,78.7,39.5,81,39.7,82.7z M31.2,26.7C31,25.5,31,24.2,31.4,23c0,0,0,0,0-0.1c0.1-0.3,0.2-0.5,0.3-0.8c0-0.1,0.1-0.2,0.1-0.3 c0.1-0.2,0.2-0.4,0.3-0.6c0.1-0.1,0.1-0.2,0.2-0.3c0.1-0.2,0.3-0.5,0.4-0.7c0.1-0.1,0.1-0.2,0.2-0.2c0.2-0.3,0.4-0.5,0.6-0.8 c0.7-0.8,1.5-1.5,2.4-1.9c0.4-0.2,0.7-0.4,1.1-0.5c2-0.8,4.1-0.9,5.9-0.5c0,0,0,0,0,0c-0.1-0.4-0.2-0.7-0.2-1c0,0,0,0,0-0.1 C42.3,14.3,41,8.4,49.4,9c9,0.7,12.8,6.1,11.3,9.6c-1.3,3.2-4.9,9.4-8.7,10.7c-0.4,0.1-0.7,0.2-1.1,0.2c0,0-0.1,0-0.1,0 c0.2-0.8,0.4-1.5,0.3-2.2c-0.1-3.5,0.8-4.6,0.8-4.6s-0.1,0-0.2-0.1c0.1-0.1,0.1-0.1,0.1-0.1s-2.1,0.1-3.2-2.9 c-0.1-0.4-0.5-0.9-1-1.3c0.1,0.1,0.2,0.3,0.3,0.4c-0.6,2.7-2.1,6.5-7.5,8.8c-2.8,0.9-3,2.1-3.7,3.1C35,29.9,32.3,28.2,31.2,26.7z M56.5,63.3L56.5,63.3c0,0-0.1-0.1-0.1-0.1c-0.2-0.2-0.3-0.5-0.5-0.7c-0.1-0.2-0.2-0.3-0.3-0.5c-0.1-0.2-0.2-0.4-0.4-0.6 c0,0,0-0.1-0.1-0.1C55.1,61.2,55,61,55,60.9c-0.1-0.3-0.2-0.5-0.3-0.8c-0.1-0.2-0.1-0.3-0.2-0.5c-0.1-0.2-0.2-0.5-0.2-0.8 c0-0.1-0.1-0.3-0.1-0.4c0-0.3-0.1-0.5-0.2-0.8c0-0.1,0-0.3-0.1-0.4c0-0.3-0.1-0.5-0.1-0.8c0-0.1,0-0.3,0-0.4c0-0.3,0-0.5,0-0.8 v-0.4c0-0.2,0-0.5,0-0.7c0-0.1,0-0.2,0-0.4c0-0.2,0-0.5,0.1-0.7c0-0.1,0-0.2,0-0.3c0,0,0,0,0,0c1.1,1.4,4.4-2,4.8-4.4 c-0.5,4.2,0.6,7.8,1.8,8.5c-0.3,1.4-1.3,4.5-3.4,7.2C56.9,63.8,56.7,63.6,56.5,63.3z M44.8,27.1c0.8-0.2,1.6-0.5,2.2-0.8 c-0.2,1.1-0.8,2.7-2.4,3.9C44.4,29.1,44.5,28.1,44.8,27.1z M82.2,69c0,0.2,0,0.4-0.1,0.6c-0.1,0.6-0.3,1-0.5,1.6 c0,0-0.3-0.1-0.8-0.3c-0.1,0-0.2-0.1-0.4-0.2c0,0-0.1,0-0.1-0.1c-0.1-0.1-0.3-0.2-0.5-0.3c0,0-0.1-0.1-0.1-0.1 c-0.1-0.1-0.3-0.2-0.4-0.4c0,0-0.1-0.1-0.1-0.1c-0.1-0.1-0.3-0.3-0.5-0.5c0-0.1-0.1-0.1-0.1-0.2c-0.1-0.2-0.2-0.3-0.4-0.5 c0,0,0,0,0,0c0-0.1-0.1-0.1-0.1-0.2c0,0,0,0.3-0.1,0.8c0,0.1-0.1,0.3-0.1,0.5c-0.2,0.7-0.6,1.5-1.4,2.4c-0.1,0-0.2-0.1-0.3-0.1 c0,0,0,0,0,0c-0.1,0-0.1-0.1-0.2-0.1c-0.1,0-0.2-0.1-0.2-0.1c-0.1-0.1-0.2-0.1-0.2-0.2l-0.2-0.2c-0.1-0.1-0.2-0.1-0.3-0.2 c-0.1-0.1-0.2-0.2-0.3-0.2c-0.1-0.1-0.2-0.2-0.3-0.3c0,0,0,0,0,0c-0.1-0.1-0.2-0.2-0.3-0.3c-0.1-0.1-0.2-0.2-0.3-0.3 c0,0-0.1-0.1-0.1-0.1c-0.1-0.2-0.3-0.3-0.4-0.5c-0.1-0.1-0.2-0.2-0.3-0.4c-0.1-0.2-0.2-0.3-0.3-0.5c-0.1-0.1-0.2-0.3-0.3-0.5 c-0.1-0.1-0.1-0.2-0.2-0.3c0,0,0,0,0,0c-0.1-0.1-0.1-0.2-0.2-0.4c0,0,0.2,1.6-0.5,3.3c-0.3-0.2-0.7-0.5-1.1-0.8l0,0 c-0.2-0.1-0.3-0.2-0.5-0.4c0,0-0.1-0.1-0.1-0.1c-0.2-0.1-0.3-0.3-0.5-0.4l-0.1-0.1c-0.2-0.2-0.3-0.4-0.5-0.5 c0-0.1-0.1-0.1-0.1-0.2c-0.2-0.2-0.3-0.4-0.5-0.6c0,0,0,0-0.1-0.1c0,0,0,0,0,0c-0.2-0.2-0.3-0.5-0.5-0.7l-0.1-0.2 c-0.2-0.3-0.3-0.6-0.5-0.9c0,0,0,0,0,0c-0.2-0.3-0.3-0.7-0.4-1.1c0-0.1-0.1-0.2-0.1-0.3c-0.1-0.4-0.3-0.8-0.4-1.3v0.1v0 c0,0,0,0.1,0,0.2v0.1c0,0,0,0,0,0c0,0,0,0.1,0,0.1v0c0,0.8-0.3,2.5-1.2,5.3c-0.3-0.2-0.6-0.4-0.9-0.6v0c0,0,0,0,0,0l-0.2-0.2 c-0.2-0.2-0.4-0.3-0.5-0.5c-0.1-0.1-0.2-0.2-0.3-0.3c0,0,0,0,0,0c-0.1-0.2-0.3-0.3-0.4-0.5c-0.1-0.1-0.1-0.2-0.2-0.3 c-0.2-0.3-0.3-0.5-0.5-0.8c0,0,0-0.1-0.1-0.1c-0.1-0.3-0.3-0.6-0.4-0.9c0-0.1-0.1-0.2-0.1-0.3c-0.1-0.2-0.1-0.4-0.2-0.7l-0.1-0.3 c-0.1-0.2-0.1-0.5-0.2-0.7c0-0.1,0-0.2,0-0.2c-0.1-0.3-0.1-0.6-0.1-0.9c0-0.1,0-0.1,0-0.2c0-0.2,0-0.5-0.1-0.7c0-0.1,0-0.2,0-0.3 c0-0.2,0-0.4,0-0.6v-0.2c0-0.2,0-0.5,0-0.7v-0.1c0-0.2,0-0.5,0-0.7c0-0.1,0-0.1,0-0.2c0-0.1,0-0.3,0-0.4c0,0,0-0.1,0-0.1 c0.9,0.5,1.9-0.5,2.4-3.8c0.5,5.5,3.1,9.6,5.7,2.6c0.8,6.8,4,9,5.3,3.7c0.2,5,3.2,8.6,4.2,2.6c1.3,3.2,3.3,4.5,3.6,3.1 c0,0.1,0.4,1.6,0.4,3C82.3,68.4,82.2,68.7,82.2,69z M52.4,81.9c-1.2,1.4-1.8,3.1-1.9,4.6c-1.3-0.4-2.7-0.9-4.1-1.4 c0.2-0.5,0.4-1.1,0.5-1.8c0.3-2.2,1.2-3.1,2-3.5c1.5,0.5,3,1,4.3,1.4C52.9,81.5,52.6,81.7,52.4,81.9z M93,115 c1.9,2.4,4,5.5,3.2,6.1c-0.1,0.1-0.3,0.2-0.5,0.2c-1.4,0-4.6-2.1-8.1-5.1c0.7,4,0.7,6.8-0.6,6.8c0,0-0.1,0-0.1,0 c-0.6,0-2.4-1.6-4.9-5.1c-0.3-0.4-0.6-1-0.9-1.6c-0.3,4-0.8,6.3-1.8,6.3l0,0c-0.9,0-2.1-1-3.6-8.5c-0.5-2.4-0.8-6.4-1-10 c1-1.6,1.3-4,1.3-6.5c0.1,0.1,0.2,0.2,0.2,0.3c1.5,1.7,2.9,3.2,4.1,4.4c0.6,0.6,1.2,1.2,1.7,1.6c1.1,1,2.1,1.6,2.9,1.6 c0.6,0,1-0.3,1.2-0.8c0.1-0.2,0.1-0.4,0.2-0.7C87.8,107.6,90.1,111.3,93,115z M101.6,93.6c-0.1,0.2-0.2,0.2-0.2,0.2c0,0,0,0,0,0 c-0.3,0.1-0.6,0.1-0.9,0.2c-11.4,1.9-21.5,1.1-34.7-2.6c-2-0.6-4.7-1.4-8.4-2.6c0.2-0.7,0.4-1.5,0.8-2.6c0.7-1.8,2.2-2.2,3.2-2.3 c1.8,0.5,3.3,1,4.5,1.3c12,3.4,21.7,4.1,32.2,2.4c0.2,0,0.4-0.1,0.7-0.1c0.5-0.1,1.6,1,2.4,2.9h0C101.8,92,101.8,93.2,101.6,93.6 z"/>
  </g>
</svg>