<svg width="128" height="128" xmlns="http://www.w3.org/2000/svg">
  <g>
    <path d="M68,58.3V27.8c0-2.1-1.7-3.8-3.8-3.8h-0.4c-2.1,0-3.8,1.7-3.8,3.8v29.1l-15.6-9.7c-1.8-1.1-4.1-0.6-5.2,1.2L39,48.7 c-1.1,1.8-0.6,4.1,1.2,5.2L57,64.4c0.2,3.7,3.3,6.6,7,6.6c3.9,0,7-3.1,7-7C71,61.6,69.8,59.5,68,58.3z M64,67c-1.7,0-3-1.3-3-3 s1.3-3,3-3s3,1.3,3,3S65.7,67,64,67z"/>
    <circle cx="15.9" cy="64.1" r="4"/>
    <circle cx="63.9" cy="16.1" r="4"/>
    <circle cx="63.9" cy="112.1" r="4"/>
    <circle cx="111.9" cy="64.1" r="4"/>
    <path d="M64,4C30.9,4,4,30.9,4,64s26.9,60,60,60s60-26.9,60-60S97.1,4,64,4z M64,120C33.1,120,8,94.9,8,64S33.1,8,64,8 s56,25.1,56,56S94.9,120,64,120z"/>
  </g>
</svg>