<svg width="128" height="128" xmlns="http://www.w3.org/2000/svg">
  <path d="M120,43.9H82.3V6c0-1.1-0.9-2-2-2H48.2c-1.1,0-2,0.9-2,2v37.9H8c-2.2,0-4,1.8-4,4v0.9v3.8V120c0,0.3,0.1,0.7,0.1,1 c0.1,0.3,0.2,0.5,0.3,0.7c0.1,0.2,0.2,0.5,0.4,0.7c0.3,0.4,0.7,0.8,1.2,1c0.6,0.4,1.3,0.6,2,0.6h112c1.2,0,2.3-0.6,3-1.4 c0.6-0.7,1-1.6,1-2.6V52.6v-3.8v-1C124,45.7,122.2,43.9,120,43.9z M7,117.7V54.8l34,25.8L7,117.7z M8.2,120.9l35.2-38.5l20.5,15.5 l20.6-15.5l35,38.5H8.2z M121,118.1L86.9,80.6L121,54.9V118.1z M121,51.2L63.9,94.1L7,51v-3.1c0-0.5,0.5-1,1-1h38.2v5.9H31.4 c-1.9,0-2.7,2.4-1.3,3.5l32.6,26.5c0.7,0.6,1.8,0.6,2.5,0l32.6-26.5c1.5-1.2,0.6-3.5-1.3-3.5H82.3v-5.9H120c0.5,0,1,0.5,1,1V51.2z"/>
</svg>