<svg width="128" height="128" xmlns="http://www.w3.org/2000/svg">
  <g>
    <path d="M26.3,42c-2.3,0-4.1,2.1-4.1,4.7c0,2.6,1.8,4.7,4.1,4.7c2.3,0,4.1-2.1,4.1-4.7C30.4,44.1,28.6,42,26.3,42z"/>
    <path d="M50.2,51.4c2.3,0,4.1-2.1,4.1-4.7c0-2.6-1.8-4.7-4.1-4.7S46,44.1,46,46.7C46,49.3,47.9,51.4,50.2,51.4z"/>
    <path d="M121.5,81.7c1.3-2.3,2.6-4.7,3-7.4c0.4-3.3-1-7.3-3.5-9.8c-1.3-1.3-2.7-2.1-4.3-2.4c-0.8-4.6-3-9-7.8-11.8 c-6.1-3.5-23.9-5-39.5-5.7c-0.7-1.6-2.2-3.5-4.8-5.2c-2.1-1.4-3.9-2-5.5-2.3c0.9,0.1,1.8,0.2,2.7,0.2c16.2,0,12.8-21.3-0.3-22.7 c-0.1,0-0.2,0-0.3,0c-1.3,0-1.9,1-1,2c3.2,3.7,8,8.2,4.2,10.9C64,27.9,63.6,28,63.1,28c-3.8,0-8.3-9.2-15-10 c-0.9-0.1-1.8-0.2-2.5-0.2c-4.7,0-7,1.9-7.4,4.4c-0.4-2.5-2.7-4.4-7.4-4.4c-0.8,0-1.6,0-2.5,0.2c-6.7,0.8-11.2,10-15,10 c-0.5,0-0.9-0.2-1.4-0.5c-3.8-2.7,1-7.3,4.2-10.9c1-1,0.3-2-1-2c-0.1,0-0.2,0-0.3,0C1.8,16-1.6,37.3,14.6,37.3 c0.8,0,1.6-0.1,2.5-0.2c-1.6,0.3-3.4,0.9-5.4,2.3c-6.6,4.4-5.6,9.5-5.5,9.7c0.1,0.2,0.2,0.5,0.4,0.6c0.1,0.1,1.6,1.1,4.1,1.1 c1.8,0,4.2-0.5,7-2.4c0.3-0.2,0.6-0.4,0.8-0.6l3.4,14.6c0.1,0.5,0.3,1.1,0.5,1.6c-0.3,0.8-0.4,1.7-0.4,2.7v0.8c0,2,0.7,3.8,1.8,5.3 c1.4,9.8,3.1,15.7,6.1,19.6c0.8,7.9,2.1,19.4,2.6,23.4c-2.9,1.4-4.9,4.5-4.9,8c0,0.1,0,0.1,0,0.3c0,0.6,0.4,1,1,1h6.6 c0.1,0,0.2,0,0.3,0s0.1,0,0.2,0h1.9h4.8h1.7c0.1,0,0.2,0,0.3-0.1c0.1,0,0.2,0.1,0.3,0.1h6.5c0.5,0,0.9-0.4,1-0.9c0-0.1,0-0.3,0-0.4 c0-2.8-1.3-5.3-3.3-7c0.5-3.3,1.8-10.9,3.2-18.3c0-0.1,0.1-0.1,0.1-0.2l0.1-0.5c0.1-0.6,0.2-1.1,0.3-1.7c0.4,0.1,0.8,0.1,1.2,0.2 c8.3,1.1,18.5,2.5,38.6-0.7c1.1,7,2.6,15.4,3.3,19.4c-4.5,0.4-8,4.2-8,8.9v0.3c0,0.6,0.4,1,1,1h6.6c0.2,0,0.4-0.1,0.6-0.2 c0.2,0.1,0.3,0.2,0.5,0.2h1.2h5.4h1.1c0.2,0,0.4-0.1,0.6-0.2c0.2,0.1,0.4,0.2,0.6,0.2h6.5c0.5,0,0.9-0.4,1-0.9c0-0.1,0-0.2,0-0.4 c0-3.2-1.7-6.1-4.2-7.6c1.2-5.1,2.4-10.5,3.3-15.8c0.6-3.2,1.2-5.7,1.7-7.8c0.9-3.7,1.7-6.8,2.1-12.5c0.1-0.9,0.2-2,0.4-3.3 c0.5-3.5,1.1-8.1,0.7-12.6c1.1,0.4,1.9,1,2.6,1.7c2.1,2.1,3.3,5.5,2.9,8.2c-0.3,2.3-1.5,4.6-2.7,6.7l-0.2,0.3 c-1.4,2.6-2.7,5.1-2.8,7.9c-0.1,1.6,0.3,3.4,1.2,4.8c-1.5,0.9-2,3-1.4,5.1c1.2,4.6,4.8,2.7,5.2,6.1c0.3,2.8,6.5-10.5-1.5-11.5 c-1.1-1.2-1.6-2.9-1.5-4.4c0.3-2.5,1.4-4.8,2.7-7.2L121.5,81.7z M58.3,36.9c0,0.1,0.1,0.1,0.2,0.1c-0.6,0-1.1,0-1.6,0 c0-0.1-0.1-0.2-0.1-0.3C57.2,36.8,57.7,36.9,58.3,36.9z M19.3,37c-0.3,0-0.7,0-1.1,0c0.5-0.1,0.9-0.1,1.2-0.2 C19.4,36.9,19.4,37,19.3,37z M23.7,61.4l-3.5-14.9C20,45.9,20,45.3,20,44.8c0-3.1,0.6-5.9,1.7-8.5c1.5-0.4,3-1,6.9-2.6 c4.7-1.9,7.9-5.1,9.1-8.1h1c1.2,3,4.4,6.2,9.1,8.1c3.7,1.5,5.2,2.2,6.6,2.6c1,2.4,1.6,5.1,1.7,8c0,0.8-0.1,1.6-0.3,2.4l-4.3,15.2 C50,59.5,47.3,58,44.3,58H30.6C27.8,58,25.3,59.4,23.7,61.4z M46.1,66.4c0,1.8-1.2,3.3-2.7,3.3s-2.7-1.5-2.7-3.3 c0-1.8,1.2-3.3,2.7-3.3S46.1,64.6,46.1,66.4z M34.5,66.4c0,1.8-1.2,3.3-2.7,3.3s-2.7-1.5-2.7-3.3c0-1.8,1.2-3.3,2.7-3.3 S34.5,64.6,34.5,66.4z M38,115c-0.5-0.1-1-0.2-1.6-0.2c-0.7,0-1.3,0.1-1.9,0.2c-0.5-3.9-1.6-13-2.3-20.2c1.1,0.9,2.2,1.7,3.6,2.4 v0.1c0,0,0,0,0,0.1c0.4,7.1,1.6,13.9,2.4,17.6H38z M98.5,115.1c-0.3-0.1-0.5-0.1-0.8-0.2c-0.7-3.8-2.3-12.6-3.4-19.8 c0.3,0,0.6-0.1,0.8-0.1c3.4,7.3,4.6,15.9,5,20L98.5,115.1z M114.3,76.5c-0.2,1.3-0.3,2.5-0.4,3.5c-0.4,5.5-1.2,8.5-2.1,12.2 c-0.5,2.2-1.1,4.6-1.7,7.9c-1,5.1-2.1,10.3-3.2,15.3c-0.8-0.3-1.7-0.4-2.7-0.4c-0.7,0-1.4,0.1-2.1,0.3c-0.3-3.6-1.3-11.1-4-18.2 c0-0.2,0-0.4,0-0.5l-4-10.1c-0.2-0.5-0.8-0.8-1.3-0.6c-0.5,0.2-0.8,0.8-0.6,1.3l2.4,6c-21.5,3.7-32.1,2.3-40.6,1.1 c-0.5-0.1-0.9-0.1-1.3-0.2l0.7-5.6c0.1-0.5-0.3-1-0.9-1.1c-0.6-0.1-1.1,0.3-1.1,0.9l-1.2,9.3c-1.3,7.1-2.6,14.5-3.2,18.2 c-1.1-0.5-2.3-0.8-3.6-0.8c-1.1,0-2.2,0.2-3.2,0.6c-0.7-3.5-2.2-11-2.6-19c0-0.1,0-0.2-0.1-0.3c-0.1-1.4-0.2-2.8-0.3-4 c-0.1-1.5-0.2-2.8-0.3-4c-0.1-0.5-0.6-0.9-1.1-0.9c-0.5,0.1-0.9,0.6-0.9,1.1c0.1,1.1,0.2,2.4,0.3,3.9c0,0.7,0.1,1.5,0.2,2.4 c-5.1-3.1-7.5-8.2-9.4-20c1.3,0.8,2.8,1.2,4.4,1.2h13.8c4.7,0,8.6-3.9,8.6-8.6v-0.8c0-0.7-0.1-1.4-0.3-2.1c0.3-0.6,0.5-1.1,0.7-1.8 l4.2-15.1c0.3,0.2,0.7,0.5,1,0.7c2.8,1.9,5.2,2.4,7,2.4c2.5,0,4-1,4.1-1.1c0.2-0.1,0.4-0.4,0.4-0.6c0-0.1,0.2-1-0.1-2.4 C85,47.3,102,48.7,107.6,52c4,2.3,5.9,6,6.7,9.9l0.2,2h0.1C115.5,68.4,114.8,73,114.3,76.5z"/>
  </g>
</svg>