<svg width="128" height="128" xmlns="http://www.w3.org/2000/svg">
  <g>
    <path d="M117.8,14.7c-3.9-3.9-9-5.8-14.1-5.8c-5.2,0-10.3,2-14.2,5.9L89.3,15l11.1,11.1l-2.8,2.8C89.4,22,79,17.5,67.7,16.7v-4.5 h4.4c2.1,0,3.7-1.7,3.7-3.7V8c0-2.1-1.7-3.7-3.7-3.7H55.6c-2.1,0-3.7,1.7-3.7,3.7v0.5c0,2.1,1.7,3.7,3.7,3.7H60v4.5 c-11.5,0.8-21.9,5.4-30.2,12.4l-2.6-2.6L38.7,15l-0.2-0.2c-3.9-3.9-9.1-5.9-14.2-5.9c-5.1,0-10.2,1.9-14.1,5.8 C2.4,22.5,2.6,35.2,10.3,43l0.2,0.2L21,32.6l2.7,2.7C16.1,44.4,11.4,56.1,11.4,69c0,12.6,4.5,24.2,11.9,33.2l-1.9,17.1 c-0.7,2.6,1.2,5.1,3.9,5.1h78c2.7,0,4.6-2.5,3.8-5.1c0,0-1.3-11.9-2-18.1c6.9-8.9,11.1-20.1,11.1-32.2c0-12.9-4.7-24.8-12.5-33.9 l2.8-2.8l10.9,10.9c0,0,0.1-0.1,0.2-0.2C125.4,35.2,125.6,22.4,117.8,14.7z M10.7,38.8c-4.8-6.7-4.3-16,1.7-22 c3.2-3.2,7.4-4.9,12-4.9c3.7,0,7.1,1.1,10,3.2L10.7,38.8z M104.5,69c0,22.3-18.1,40.4-40.4,40.4c-22.3,0-40.4-18.1-40.4-40.4 s18.1-40.4,40.4-40.4C86.4,28.5,104.5,46.6,104.5,69z M117.3,38.8L93.7,15.1c2.9-2.1,6.4-3.2,10-3.2c4.5,0,8.8,1.8,12,4.9 C121.6,22.7,122.2,32.1,117.3,38.8z"/>
    <path d="M67.1,64.9V42c0-1.5-1.2-2.8-2.8-2.8h-0.4c-1.5,0-2.8,1.2-2.8,2.8v22.5c-1.5,0.9-2.5,2.6-2.5,4.4c0,0.7,0.1,1.4,0.4,2 l-7.8,11.9c-0.9,1.3-0.5,3,0.8,3.9l0.3,0.2c1.3,0.8,3,0.5,3.9-0.8L64,74.2c2.8-0.1,5-2.4,5-5.2C69.1,67.3,68.3,65.8,67.1,64.9z M63.8,71.2c-1.2,0-2.2-1-2.2-2.2s1-2.2,2.2-2.2s2.2,1,2.2,2.2C66.1,70.2,65.1,71.2,63.8,71.2z"/>
    <circle cx="28.8" cy="69" r="3"/>
    <circle cx="63.8" cy="34.1" r="3"/>
    <path d="M63.8,101c-1.7,0-3,1.3-3,3s1.3,3,3,3s3-1.3,3-3C66.7,102.4,65.4,101,63.8,101z"/>
    <circle cx="98.7" cy="69" r="3"/>
  </g>
</svg>