<svg width="128" height="128" xmlns="http://www.w3.org/2000/svg">
  <g>
    <rect height="6.7" width="6.7" x="74.9" y="42"/>
    <rect height="6.7" width="6.7" x="66.5" y="42"/>
    <rect height="6.7" width="6.7" x="66.5" y="50.3"/>
    <rect height="6.7" width="6.7" x="74.9" y="50.3"/>
    <rect height="6.7" width="6.7" x="87.3" y="70.3"/>
    <rect height="6.7" width="6.7" x="95.7" y="78.6"/>
    <rect height="6.7" width="6.7" x="95.7" y="70.3"/>
    <rect height="6.7" width="6.7" x="87.3" y="78.6"/>
    <path d="M117.4,107.3V66c0.8,0.6,1.7,0.9,2.6,0.9c1.1,0,2.3-0.5,3.1-1.4c1.5-1.7,1.3-4.4-0.5-5.9l-45.9-40c-1.5-1.3-3.8-1.3-5.3,0 L52,36.6C45.5,21.8,37,6.7,37,6.7C36.4,4.9,34.4,4,32.4,4s-4,0.9-4.6,2.7c0,0-22.7,38.8-23.4,52.8c-0.5,12.3,3.2,29.2,21,32.6v6.4 c-0.9-0.3-1.8-0.5-2.8-0.5c-3.7,0-6.9,2.5-7.9,5.9h-0.1c-0.5-0.1-1-0.1-1.5-0.1c-0.6,0-1.3,0.1-1.9,0.2c-3.4,0.8-5.5,3.7-6.5,7.1 C4.2,113,4,114.7,4,116v5v3h120v-3v-5c0-0.2,0-0.5,0-0.7C123.7,111.5,121,108.3,117.4,107.3z M14.7,83.1c-6.7-7-7.3-17.7-7-23.5 C8.2,48.8,24.4,18.9,30.6,8.3L30.8,8l0.1-0.3c0-0.1,0.6-0.5,1.6-0.5S34,7.6,34,7.7L34.1,8l0.1,0.3c3.5,6.2,10.2,18.9,15.2,30.5 L25.5,59.7c-1.7,1.5-1.9,4.1-0.4,5.9c1.4,1.7,4,1.9,5.7,0.5v23.5C23.9,89.3,18.5,87.1,14.7,83.1z M37.5,111.4 c-0.5,0.8-0.3,1.6,0,2.1v2.3H6c0-1.1,0.2-2.6,0.6-4c0.9-3.2,2.6-5.1,5-5.7c0.5-0.1,1-0.2,1.5-0.2c0.4,0,0.8,0,1.2,0.1 c0.1,0,0.2,0,0.4,0c0.1,0,0.2,0,0.2,0c1.4,0.1,2.8,1.1,3.3,2.3c-0.6,0.1-1.1,0.3-1.6,0.5c-0.5,0.2-0.7,0.8-0.5,1.3 c0.2,0.5,0.8,0.7,1.3,0.5c1.6-0.7,3.8-0.6,5.5,0.2c0.1,0.1,0.3,0.1,0.5,0.1c0.4,0,0.7-0.2,0.9-0.5c0.3-0.5,0.1-1.1-0.4-1.3 c-1.1-0.6-2.4-0.9-3.6-0.9c-0.4-1.7-1.8-3.1-3.5-3.8c0.8-2.5,3.2-4.3,5.9-4.3c2.2,0,4.2,1.1,5.3,3c0.1,0.2,0.2,0.3,0.4,0.4 c1.4,2,1.4,3.8,1.4,3.9c0,0.5,0.4,1,1,1c0.5,0,1-0.4,1-1c0-0.1,0-1.7-0.9-3.6c0.3,0,0.5-0.1,0.8-0.1c0.4,0,0.8,0,1.1,0.1 c2.7,0.5,4.8,2.7,5.1,5.4C38,110,37.8,110.8,37.5,111.4z M71.5,105.8c0,0.2-0.1,0.4-0.2,0.5H46.7c-0.1-0.2-0.2-0.3-0.2-0.5V68.2 c0-0.5,0.4-0.8,0.8-0.8h23.3c0.5,0,0.8,0.4,0.8,0.8v15.2C70.9,82.6,70,82,69,81.8V71.1c0-0.5-0.4-0.8-0.8-0.8H49.9 c-0.5,0-0.8,0.4-0.8,0.8v11.7c0,0.5,0.4,0.8,0.8,0.8h14.4c-0.5,0.7-0.8,1.6-0.8,2.5c0,0.3,0,0.6,0.1,0.8H49.9 c-0.5,0-0.8,0.4-0.8,0.8v15c0,0.5,0.4,0.8,0.8,0.8h18.3c0.5,0,0.8-0.4,0.8-0.8V90.5c1-0.2,1.9-0.8,2.5-1.6V105.8z M70.5,86.1 c0,1.4-1.1,2.5-2.5,2.5s-2.5-1.1-2.5-2.5c0-1.4,1.1-2.5,2.5-2.5S70.5,84.8,70.5,86.1z M83.3,57c0,0.9-0.8,1.7-1.7,1.7h-15 c-0.9,0-1.7-0.8-1.7-1.7V42c0-0.9,0.7-1.7,1.7-1.7h15c0.9,0,1.7,0.8,1.7,1.7V57z M87.3,92h-1.7l0.1-21.7c0-0.9,0.8-1.7,1.7-1.7h15 c0.9,0,1.7,0.8,1.7,1.7V92h-1.7c0-2,0-5,0-5h-6.7v5H94c0-1.9,0-5,0-5h-6.7V92z M122,116H88.6c0-0.2-0.1-0.5-0.3-0.7 c-0.4-0.7-0.6-1.6-0.5-2.5c0.3-2.9,2.7-5.5,5.7-6c0.4-0.1,0.9-0.1,1.3-0.1c0.3,0,0.7,0,1,0.1c-1.1,2.2-1.1,4-1.1,4.1 c0,0.5,0.5,1,1,1c0.6,0,1-0.5,1-1c0,0,0-2.2,1.7-4.5c0-0.1,0.1-0.1,0.1-0.2l0.1-0.1c1.3-2.1,3.5-3.3,6-3.3c3,0,5.7,2,6.7,4.9 c-1.9,0.7-3.5,2.3-4,4.2c-1.4,0.1-2.7,0.4-3.9,1c-0.5,0.2-0.7,0.9-0.4,1.3c0.2,0.3,0.5,0.5,0.9,0.5c0.2,0,0.3,0,0.5-0.1 c1.9-1,4.3-1.1,6.1-0.3c0.5,0.2,1.1,0,1.3-0.5s0-1.1-0.5-1.3c-0.6-0.3-1.2-0.4-1.8-0.6c0.5-1.5,2.2-2.6,3.8-2.7c0.1,0,0.1,0,0.1,0 c0.1,0,0.2,0,0.4,0c0.4-0.1,0.9-0.1,1.3-0.1c0.5,0,1.1,0.1,1.6,0.2c2.8,0.6,5,3.2,5.3,6.1C122,115.6,122,115.8,122,116z"/>
  </g>
</svg>