<svg viewBox="0 0 128 128" xmlns="http://www.w3.org/2000/svg">
  <path d="M112.9,74.1C112.9,74.1,112.9,74.1,112.9,74.1l-2.1-4.5l-15.7-34c0.1-0.1,0.2-0.2,0.3-0.3l8.5-8.5 c0.3-0.3,0.5-0.8,0.5-1.2c0-0.4-0.1-0.9-0.4-1.3c-0.2-0.3-0.4-0.6-0.7-0.9c0,0,0,0-0.1-0.1c-1.8-2.4-4.9-6.1-7.8-9.1 c0,0,0,0-0.1-0.1c-0.2-0.2-0.4-0.4-0.6-0.6c-0.3-0.3-0.6-0.6-0.9-0.9c0,0,0,0,0,0c0,0-0.1-0.1-0.1-0.1c-0.2-0.2-0.3-0.3-0.5-0.4 c-0.1-0.1-0.2-0.2-0.4-0.3c-0.2-0.1-0.3-0.3-0.5-0.4c-0.1-0.1-0.2-0.2-0.3-0.2c0,0,0,0,0,0c0,0,0,0,0,0c-0.3-0.2-0.5-0.4-0.8-0.5 c-0.2-0.2-0.5-0.3-0.7-0.4v0c0-0.4-0.1-0.8-0.4-1.2c0,0,0,0,0,0C90.2,9,90.1,8.9,90,8.8c0,0-0.1-0.1-0.1-0.1 c-0.1-0.1-0.2-0.1-0.3-0.2c-0.1,0-0.1-0.1-0.2-0.1c-0.1-0.1-0.2-0.1-0.2-0.2c-0.1,0-0.2-0.1-0.2-0.1c-0.1,0-0.2-0.1-0.3-0.1 c-0.1,0-0.2-0.1-0.3-0.1c0,0-0.1,0-0.1,0c0,0,0,0,0,0c0,0-0.1,0-0.1-0.1l0,0c0,0,0,0,0,0l-9.8-3.1c0,0,0,0,0,0 c-0.2-0.1-1.2-0.4-2.4-0.6c-0.1,0-0.3,0-0.4,0c-0.1,0-0.1,0-0.2,0c-0.1,0-0.2,0-0.2,0c-0.1,0-0.3,0.1-0.4,0.1c-0.1,0-0.2,0-0.2,0.1 c-0.1,0.1-0.3,0.1-0.4,0.2c-0.1,0-0.1,0.1-0.2,0.1c-0.2,0.1-0.3,0.3-0.4,0.4c-1.1,1.5-2.2,3-3.3,4.4c0,0,0,0,0,0.1 c-0.5,0.7-1,1.3-1.5,2c0,0.1-0.1,0.1-0.1,0.2c-0.5,0.6-0.9,1.2-1.4,1.7c0,0.1-0.1,0.1-0.1,0.2c-0.1,0-0.2,0.1-0.3,0.1 c-0.1,0.1-0.3,0.1-0.4,0.2c-0.1,0-0.2,0.1-0.3,0.1c-0.2,0.1-0.5,0.1-0.8,0.2c-0.1,0-0.2,0-0.3,0.1c-0.2,0-0.4,0.1-0.6,0.1 c-0.1,0-0.2,0-0.4,0c-0.3,0-0.5,0-0.8,0c-0.2,0-0.3,0-0.5,0c-0.2,0-0.4,0-0.6,0c-0.2,0-0.4,0-0.6,0c-0.1,0-0.2,0-0.3,0 c-0.3,0-0.5-0.1-0.8-0.1c-6.5-0.9-8.9-6-9.9-8c0,0-0.1-0.1-0.1-0.1c0-0.1-0.1-0.2-0.2-0.2c-0.1-0.1-0.1-0.1-0.2-0.1 c-0.1,0-0.1-0.1-0.2-0.1c-0.1,0-0.1-0.1-0.2-0.1c-0.1,0-0.2,0-0.2-0.1c-0.1,0-0.1,0-0.2,0c0,0,0,0,0,0c-0.1,0-0.3,0-0.4,0.1l-1,0.4 c-0.1,0-0.2,0-0.3,0.1c-2.6,0.9-6.7,2.6-10.6,5C32.9,13,26.5,21.1,24,24.3c-0.3,0.4-0.4,0.8-0.4,1.2c0,0.3,0.1,0.5,0.2,0.8 c0,0,0,0,0,0c0.1,0.1,0.2,0.3,0.3,0.4l8.5,8.5c0,0,0,0,0,0l0,0c0.4,0.4,0.8,0.5,1.3,0.5c0.2,0,0.5,0,0.7-0.1 c0.2-0.1,0.4-0.2,0.6-0.4l1.3-1.3l4.8-4.5c0,0,0,0,1,4.3c0.1,0.5,0.2,0.9,0.3,1.3c-2.2,1.5-4,2.6-5.3,3.6C37,39,36.8,39.6,37.1,40 l1.1,2.3c0,0,0,0,0,0l2.6,5.3l0,0L37,52.8l0,0l0,0l0,0c0,0,0,0,0,0l2.4,7.8l-3.5,5.5l-1.7,22.6l-0.4,3.9l-0.7,5.6l-1.9,15.6 l-0.5,3.7c1.3,0.8,2.7,1.4,4.1,1.7c0,0,0,0,0.1,0c0.8,0.2,1.6,0.3,2.5,0.4c0,0,0,0,0.1,0c0.3,0,0.5,0,0.8,0.1c0.1,0,0.1,0,0.2,0 c0.6,0,1.2,0.1,1.7,0.1c0.1,0,0.2,0,0.3,0c0.5,0,1,0,1.4,0c0.2,0,0.3,0,0.5,0c0.5,0,1.1-0.1,1.6-0.1c0.1,0,0.1,0,0.1,0 c0.4,0,0.9-0.1,1.3-0.1c0,0,0,0,0,0c0.5,0,0.9,0,1.4,0c0.7,0,1.3,0,1.8,0.2c1.2,0.3,2.5,0.8,4,1.4c3.2,1.3,7.1,2.8,12.7,2.8 c0,0,0,0,0,0c0,0,0,0,0,0c3.2,0,5.6-0.5,7.5-1.2c1.3-0.5,2.5-1,3.5-1.5c1.2-0.6,2.3-1.2,3.6-1.5c0.5-0.1,1.1-0.2,1.7-0.2 c0.6,0,1.3,0,2.1,0.1c0.6,0,1.3,0.1,2,0.1c0.5,0,1,0,1.4,0c0.1,0,0.2,0,0.2,0c0.1,0,0.1,0,0.2,0c0.3,0,0.6,0,0.9,0 c0.1,0,0.2,0,0.4,0c0.2,0,0.5,0,0.8-0.1c0.1,0,0.2,0,0.4,0c0.8-0.1,1.6-0.2,2.4-0.5c0.1,0,0.1,0,0.2,0c0.4-0.1,0.9-0.2,1.3-0.4 c0,0,0,0,0,0c1-0.3,2-0.8,3.1-1.3c0,0,0.1,0,0.1-0.1c0.6-0.3,1.1-0.6,1.7-0.9l-1-5.2c0,0,0,0,0,0l0,0c0,0,0,0-0.1,0l-4.4-23.7 c0,0,0,0,0,0c3.7-1.5,6.7-3.3,9.4-5.1c0.1,0,0.1-0.1,0.2-0.1c0.2-0.1,0.3-0.2,0.5-0.3c0.7-0.5,1.4-0.9,2-1.4 c3.1-2.2,5.8-4.1,8.5-4.7L112.9,74.1z M101.2,67.9l-3.5,4.2l-3.5-4.2l3.5-4.2L101.2,67.9z M87.5,104.2l-3.5,4.2l-3.5-4.2l3.5-4.2 L87.5,104.2z M67.5,110.3l-3.5,4.2l-3.5-4.2l3.5-4.2L67.5,110.3z M47.5,104.2l-3.5,4.2l-3.5-4.2l3.5-4.2L47.5,104.2z M47.5,72.2 l-3.4,4.2l-3.5-4.2l3.4-4.2L47.5,72.2z M60.6,52.9l3.5,4.2l-3.4,4.2l-3.5-4.2L60.6,52.9z M101.8,24.6L101.8,24.6 c0.3,0.3,0.5,0.6,0.6,0.8l-8.3,8.1L92.5,35l-1-1l-1-1l1.7-1.8l0.6-0.6l7.7-7.8C100.9,23.5,101.3,24,101.8,24.6z M90.1,11.7 c0.3,0.5,0.5,0.8,0.5,0.9c0,2.3-0.2,6.2-1.1,11.1c-0.4,2.2-0.8,4.6-1.5,7.1c-0.8,3.4-1.9,7-3.4,10.8c-0.2,0.5-0.4,1-0.6,1.5 c0,0,0,0,0,0c-2.7,6.8-6.6,14.1-12,21.4c-1.5,1.9-2.9,3.7-4.4,5.4C54.8,84.7,41,90.4,35.9,92.1l0-0.4l0.3-3.3l0.1-0.9 c5.2-2.1,19.3-9,32.9-26C83.5,43.7,87,17.3,87.7,9.7C88.9,10.2,89.7,11.1,90.1,11.7z M68.2,38.8l3.4-4.2l3.5,4.2L71.7,43L68.2,38.8z M82.9,19.6l-3.4,4.2L76,19.5l3.4-4.2L82.9,19.6z M47.9,7.7l0.1,0l0.1,0l0.5-0.2c1.2,2.5,4.1,7.7,11.2,8.6c1.1,0.1,2,0.2,2.9,0.2 c0,0,0.1,0,0.1,0c0.6,0,1.2,0,1.7-0.1c0.4-0.1,0.8-0.1,1.2-0.2c0.6-0.1,1.2-0.3,1.8-0.6c0.1,0,0.2-0.1,0.2-0.1l0.4-0.2l0.3-0.3 c2.3-2.8,4.6-5.7,6.6-8.6c0.1,0,0.2-0.1,0.5-0.1c0,0,0.1,0,0.1,0c0.7,0.1,1.3,0.2,1.7,0.4c-13.1,21-31.6,32-37.3,35.1l-0.7-1.5 c0.7-0.5,1.4-1,2.3-1.5c0.4-0.2,1.2-0.8,2-1.3c0.8-0.6,1.2-1.6,1.1-2.5c0-0.1,0-0.1,0-0.2c0-0.1-0.1-0.3-0.1-0.4 c4.8-3.4,10.9-8.1,17.5-15c-4,0-8.3-1.3-11.6-4.3c-1.9-1.7-3.4-4.5-4.3-6.3c0.4-0.1,0.7-0.3,1-0.4l0,0h0l0,0 C47.4,7.8,47.6,7.8,47.9,7.7z M35.2,32.6L34,33.8l-8.3-8.3c0.2-0.2,0.4-0.5,0.6-0.8l0,0c0.4-0.6,0.9-1.1,1.3-1.7l8.6,8.7L35.2,32.6z M87.2,117.9c-0.9,0-1.8,0-2.6-0.1c-0.3,0-0.6,0-0.9,0c-0.7,0-1.5-0.1-2.2-0.1c-0.9,0-1.6,0.1-2.2,0.2c-1.5,0.3-2.7,1-4,1.6 c-2.4,1.2-5.1,2.5-10.1,2.5c-5.2,0-8.8-1.4-12-2.7c-1.5-0.6-2.9-1.1-4.2-1.5c-0.6-0.1-1.3-0.2-2.2-0.2s-1.9,0.1-3,0.1 c-1.2,0.1-2.4,0.1-3.7,0.1c-2.9,0-5.3-0.4-7.2-1.4l0.4-2.4l0.1-0.6c3.2,1.4,7,1.7,10.2,1.5c2.3-0.1,4.4-0.3,6.3,0.2 c1.6,0.4,3.1,1,4.7,1.6c3,1.2,6.2,2.5,10.7,2.5c4.2,0,6.4-1.1,8.7-2.2c1.4-0.7,2.8-1.4,4.6-1.8c1.7-0.4,3.5-0.3,5.3-0.2 c3.2,0.2,7.1-0.3,11.9-2.7l0.4,2.2l0.1,0l0.2,1C92.4,117.6,89.5,117.9,87.2,117.9z M104.1,79c-2.9,2.1-6.6,4.7-11.2,6.6l-0.4-2.2 c3.5-1.6,6.4-3.7,9.1-5.6c2.9-2,5.5-3.9,8.5-5l0.1,0.3l0.8,1.7C108.8,75.7,106.6,77.3,104.1,79z"/>
</svg>