<svg viewBox="0 0 128 128" xmlns="http://www.w3.org/2000/svg">
  <g>
    <ellipse cx="42" cy="26.3" rx="1.3" ry="2" transform="matrix(0.9956 -9.408994e-02 9.408994e-02 0.9956 -2.2863 4.0677)"/>
    <path d="M42.2,21.6c-1.5-0.3-2.2,0.1-2.5,0.6c-0.4,0.7-0.1,1.5,1.1,1.1c1.6-0.5,3.3,0.9,3.8,0.8c0.3,0,0.4-0.5,0-1 S43.6,21.9,42.2,21.6z"/>
    <path d="M110.9,99l-3-0.7c-0.3-0.1-0.5-0.1-0.8-0.1c-1.6,0-3.4,0.8-3.9,1.1L81.9,93c0,0-1.6-7.6-3-14.5c0.4-1.4,0.5-3,0.2-4.8 c-0.1-0.6-1.7-4.5-2.8-7c0-0.4-0.1-0.7-0.2-1.1L70.6,51l2.9-0.2c0,0-0.1-1.4-0.2-1.9l7.9-0.5l6,7.9c0,0.1,0,0.2,0.1,0.3L86,60.8 c-0.1,0.3,0,0.5,0,0.8c0,0,0,0.1,0,0.1c0,0,0,0,0,0c0,0,0,0,0,0c0,0,0,0,0,0c0,0,0,0.1,0,0.1c0,0,0,0,0,0c0,0,0,0,0,0.1 c0.1,0.1,0.1,0.2,0.2,0.3c0.1,0.1,0.2,0.2,0.4,0.3l2,0.9c0.1,0.1,0.3,0.1,0.5,0.1c0,0,0,0,0,0c0,0,0,0,0.1,0c0.1,0,0.2,0,0.3,0 c0.1,0,0.1,0,0.2,0c0.4,0.5,1.3,1.8,1.9,2.1c0.2,0.1,0.3,0.1,0.5,0.1c0.2,0,0.3,0,0.5-0.1c0,0,0,0,0,0c0.1,0,0.2-0.1,0.3-0.2 c0,0,0,0,0.1,0c0,0,0.1-0.1,0.1-0.1c0,0,0-0.1,0.1-0.1c0,0,0,0,0-0.1c0,0,0-0.1,0.1-0.1c0-0.1,0.1-0.1,0.1-0.2c0,0,0.1-0.1,0.1-0.1 c0,0,0.1,0,0.1-0.1c0.1,0,0.1-0.1,0.2-0.1c0,0,0,0,0.1,0c0.1,0,0.2,0,0.3,0c0,0,0,0,0,0c0.1,0,0.1,0,0.2,0c0.1,0,0.2,0,0.3,0 c0,0,0.1,0,0.1,0c0,0,0.1,0,0.1,0c0,0,0.1,0,0.1,0c0.1,0,0.1,0,0.2,0c0.1,0,0.1,0,0.2,0c0.1,0,0.1,0,0.2-0.1c0.1,0,0.1,0,0.2-0.1 c0.4-0.2,0.5-0.5,0.6-1c0-0.2,0.3-0.5,0.6-0.5c0.4,0,1-0.1,1.3-0.3c0.5-0.4,0.3-1,0.6-1.4c0.1-0.1,0.8-0.2,1-0.5 c0.1-0.1,0.1-0.2,0.1-0.4c0,0,0-0.1,0-0.1c0-0.1,0-0.2,0-0.3c0,0,0-0.1,0-0.1c0-0.1,0-0.2-0.1-0.4c0,0,0-0.1,0-0.1 c0-0.1-0.1-0.3-0.2-0.4c0-0.1-0.1-0.2-0.1-0.3c0,0,0-0.1-0.1-0.1c-0.1-0.3-0.2-0.5-0.3-0.6C98.2,56,95,53.1,94,52.2l-7.6-9.9h0 c-0.3-0.4-0.7-0.8-1.1-1.1c0,0,0,0-0.1,0c-0.1-0.1-0.2-0.2-0.4-0.2c0,0-0.1,0-0.1-0.1c-0.1-0.1-0.2-0.1-0.3-0.1c0,0-0.1,0-0.1,0 c-0.1,0-0.2-0.1-0.3-0.1c0,0-0.1,0-0.1,0c-0.1,0-0.2,0-0.3,0c-0.1,0-0.1,0-0.2,0c-0.1,0-0.1,0-0.2,0c-0.1,0-0.2,0-0.2,0 c0,0,0,0,0,0c0,0,0,0,0,0v0l-10.1,0.6c-0.1-0.8-0.2-2.5-0.2-2.5l-7.1,0.6c-0.5-0.6-0.9-1.2-1.4-1.7c-0.9-0.9-2-1.4-3.2-1.4h0 c-0.3,0-0.5,0-0.8,0.1c0-0.8,0-1.7,0-2.6l0.2,0c1-4.1,5.9-5.6,6-16.2C66.4,8.3,58.1,3.7,50.4,4c-7.3,0.3-15.3,5.7-14,15.6 c0,0,0.2,0.1,0.5,0.1c0.1,1.3,0.4,2.4,0.7,3.3c0.1,0.2,0.6,1.3,0.6,1.7c0.4,1.4-2.2,3.3-2.3,5c-0.1,1.3,2.6,1.7,2.8,1.9 c1.1,0.9,0.4,6,6.5,6c0.3,0,0.6,0,0.9,0c1.1-0.1,2.1-0.2,3.1-0.2c1.2,0,2.1,0.2,2.6,1.2l1.6,1.9c-0.5,0.7-0.9,1.4-1.2,2.1l-7.6,6.1 l1.2,1.5L39.6,55l-10-3.3c0,0,0,0,0,0c-0.1-0.9-0.7-2.4-0.9-2.6c-0.8-0.8-1.8-1.7-4.4-1.5c-0.3,0-0.6,0.1-0.9,0.2l-1.3-0.5 c-0.9-0.4-2,0-2.5,1c-0.2,0.5-0.2,0.9-0.1,1.3c-0.6,0.1-1.1,0.5-1.3,1.1c-0.2,0.5-0.2,1.1,0.1,1.6c-0.3,0.2-0.6,0.6-0.7,1 c0,0,0,0,0,0.1c-0.1,0.5-0.1,1,0.1,1.4c0.1,0.2,0.2,0.3,0.3,0.5c-0.3,0.3-0.5,0.6-0.5,1.1c-0.1,1,0.6,2,1.6,2.2l1.9,0.3 c0.1,0,0.2,0,0.3,0c0.1,0,0.1,0,0.2,0l0.8,0.3c0.8,0.3,1.6,0.5,2.3,0.5c0.8,0,1.6-0.2,2.3-0.5l0.1,0l11.8,3.9l0,0 c0.4,0.2,0.9,0.2,1.4,0.2c0.9,0,1.7-0.3,2.4-0.8l0,0l8.1-6.2l1.6,2l1.1-0.9l2.8,14.3c0.5,1.6,1.7,2.8,3.2,3.2l-8.8,7.5 C47,85.3,44,89,41.7,93.1l-10.3,18.5l-6.7-1.8c-0.3-0.1-0.6-0.1-0.9-0.1c-1.4,0-2.8,0.7-3.6,1.9l-0.8,1.2c-0.3,0.5-0.2,1.2,0.3,1.5 l14.3,9.4c0.2,0.1,0.5,0.2,0.7,0.2c0.4,0,0.8-0.2,1-0.6l1.7-2.6c1-1.5,0.8-3.9,0.7-4.7l17.8-20.5l10.4-6.2l4,10.9l0,0 c0.6,1.6,1.7,3,3.3,3.8c0.5,0.2,1,0.4,1.4,0.5l0,0l0.2,0c0.5,0.1,1,0.2,1.5,0.2c0.1,0,0.2,0,0.3,0l24.4,2.3l0.7,6.8 c0.3,1.8,1.6,3.2,3.4,3.6l1.4,0.3c0.1,0,0.2,0,0.2,0c0.5,0,1-0.4,1.1-0.9l3.8-16.7C112,99.8,111.6,99.2,110.9,99z M83,41.5 c0.1,0,0.1,0,0.2,0c1,0,1.9,0.5,2.4,1.3c0,0,0.1,0.1,0.1,0.2l7.3,9.4l0.3,0.4c0,0,0.1,0.1,0.1,0.1c0.1,0.1,0.3,0.3,0.5,0.4 c0.8,0.8,1.7,1.7,2.5,2.5c0.8,0.9,1.4,1.7,1.7,2.3c0,0,0,0.1,0,0.1c0.2,0.3,0.3,0.6,0.4,0.8c0.2,0.4,0.2,0.7,0.3,0.8 c0,0-0.1,0-0.1,0c-0.3,0.1-0.5,0.2-0.8,0.4c-0.4,0.4-0.5,0.8-0.5,1.1c0,0.1,0,0.1,0,0.2c-0.1,0-0.3,0-0.7,0.1 c-0.7,0-1.4,0.7-1.5,1.4c0,0.2-0.1,0.3-0.1,0.3s0,0,0,0c-0.1,0-0.2,0.1-0.3,0.1c-0.1,0-0.2,0-0.2,0c-0.1,0-0.3-0.1-0.4-0.1 c-0.8,0-1.5,0.5-1.8,1.1c0,0-0.1,0-0.1,0c0,0,0,0,0,0c-0.1-0.1-0.4-0.4-0.8-0.9c-0.2-0.2-0.4-0.5-0.6-0.9c0-0.1-0.1-0.1-0.1-0.2 c-0.2-0.2-0.4-0.3-0.7-0.3c-0.1,0-0.1,0-0.2,0c-0.1,0-0.1,0-0.2,0c0,0-0.1,0-0.1,0c0,0,0,0,0,0c0,0-0.1,0-0.1,0l-1-0.4l-1-0.5 c0,0-0.1-0.1-0.1-0.1c0,0,0-0.1,0-0.1l0,0v0c0-0.1,0-0.1,0-0.2l0.3-1.1l0.5-1.7l0.3-1l0.2-0.6c0-0.2,0.1-0.4,0-0.5L88.3,56 c0-0.1-0.1-0.3-0.2-0.4l-0.1-0.1l-6-7.8c-0.2-0.2-0.5-0.4-0.8-0.4h-0.1l-7.9,0.5c-0.2-2.1-0.3-3.4-0.5-5.7l9.9-0.6l0,0 C82.8,41.5,82.8,41.5,83,41.5L83,41.5z M52.7,38c-0.8-1.4-2.4-1.6-3.4-1.6c-0.6,0-1.3,0.1-2,0.1c-0.4,0-0.7,0.1-1.1,0.1 c-0.3,0-0.6,0-0.8,0c-2.7,0-3.8-1.1-4.4-2.4c0.6-0.2,1.2-0.5,1.6-1c0.8-0.8,0.1-1.5-0.9-0.9c-0.4,0.2-0.8,0.3-1.3,0.4c0,0,0,0,0,0 c-0.2-0.8-0.5-1.5-1-1.9c-0.2-0.2-0.4-0.2-0.8-0.4c-1.1-0.3-1.5-0.6-1.6-0.7c0.1-0.5,0.6-1.2,1-1.8c0.8-1,1.6-2.2,1.2-3.4 c-0.1-0.4-0.3-0.9-0.6-1.7l-0.1-0.1C38.3,22,38.1,21,38,19.9c2.8,0.3,8.7,0.8,10.5,2.5c2.4,2.2,0.8,6.7,4.2,6.8l1.3-6 c0,0,3.8,0.6,3,4.4c-0.5,2.4,0.9,5,2.1,5.7c-0.1,1.1-0.1,2.2,0,3.2c-0.1,0.1-0.2,0.1-0.3,0.2L54.6,39c-0.2,0.2-0.3,0.4-0.5,0.6 L52.7,38z M20.6,48.5c0.2-0.4,0.7-0.6,1.1-0.5l0.2,0.1c-0.5,0.2-0.9,0.4-0.9,0.4c-0.2,0.1-0.4,0.2-0.5,0.3 C20.6,48.8,20.6,48.7,20.6,48.5z M19.2,51c0.1-0.4,0.6-0.6,1-0.5c0.1,0.2,0.2,0.4,0.3,0.5c0.3,0.3,0.7,0.4,1.1,0.3 c0.2,0,0.3-0.1,0.5-0.1l0.1,0l0.5,0.2l0.9,0.4c0.3,0.2,0.3,0.6,0.2,0.9c-0.1,0.3-0.3,0.4-0.6,0.5l-1.3-0.4l-0.5-0.2l-0.5-0.2 L19.5,52c0-0.1,0-0.1-0.1-0.2C19.2,51.6,19.1,51.3,19.2,51z M23.5,50.7c0.7-0.2,1-0.1,1.3,0.1c-0.2,0.1-0.5,0.2-0.7,0.1 c0,0,0,0,0,0L23.5,50.7z M22.2,57c0,0.2-0.2,0.4-0.4,0.6c-0.1,0-0.1,0.1-0.2,0.1c-0.1,0-0.3,0.1-0.4,0l-1.5-0.2l-0.4-0.1 c-0.1,0-0.1,0-0.1-0.1c-0.4-0.1-0.7-0.6-0.6-1c0-0.3,0.2-0.5,0.5-0.6l0.4,0.1L20,56l0.5,0.1l1.8,0.5C22.2,56.7,22.3,56.8,22.2,57z M22.3,55.5C22.2,55.5,22.2,55.5,22.3,55.5l-1.4-0.4L20.3,55l-0.5-0.1l-0.6-0.2c0,0,0,0,0,0c-0.2-0.1-0.4-0.2-0.5-0.4 c-0.1-0.2-0.1-0.5,0-0.7c0,0,0,0,0,0c0.1-0.3,0.3-0.4,0.4-0.5c0,0,0,0,0.1,0l1.3,0.4l0.5,0.2l0.5,0.2l1.2,0.4 c0.2,0.2,0.2,0.5,0.1,0.8c0,0,0,0,0,0C22.7,55.2,22.5,55.4,22.3,55.5z M42.7,60.9L42.7,60.9l-0.8,0.6c-0.5,0.4-1.2,0.6-1.8,0.6 c-0.3,0-0.7-0.1-1-0.2l-1-0.3l0,0L28,58.3l-0.6-0.2l-0.6-0.2l0,0c0,0,0,0,0,0c-0.5,0.3-1,0.5-1.6,0.5c-0.2,0-0.4,0-0.6,0 c-0.6,0-1.2-0.1-1.9-0.3c0.2-0.3,0.4-0.6,0.4-0.9c0.1-0.3,0-0.7-0.1-1c0.3-0.2,0.5-0.5,0.6-0.9c0,0,0,0,0-0.1c0.1-0.3,0.1-0.7,0-1 c0,0,0-0.1,0.1-0.1c0.4-0.2,0.7-0.5,0.9-1c0.2-0.4,0.2-0.8,0.1-1.2c0.2,0,0.3-0.1,0.4-0.2c0,0.2,0.1,0.3,0.1,0.4 c0.2,0.8,0.6,1.7,1.2,2.1c0.1,0,0.1,0.1,0.2,0.1c0.2,0.1,0.6,0.1,0.8,0.1c0.3,0,0.6-0.1,0.6-0.1s-0.2-0.1-0.5-0.2 c0,0-0.1,0-0.1-0.1c-0.2-0.1-0.5-0.3-0.6-0.4c0,0-0.1-0.1-0.1-0.1c-0.6-0.7-0.7-1.9-0.9-2.5c0,0,0-0.1,0-0.1 c-0.1-0.1-0.2-0.2-0.3-0.4c-0.1-0.1-0.3-0.2-0.4-0.3c-0.2-0.1-0.5-0.2-0.8-0.3c-0.3-0.1-0.6,0-0.9,0.1c-0.2,0.1-0.5,0.2-0.7,0.3 c0,0-0.1,0-0.1,0.1c-0.1,0-0.2,0.1-0.3,0.1c-0.1,0-0.2,0.1-0.3,0.1c0,0,0,0,0,0c0,0-0.1,0-0.1,0c-0.4,0.1-0.8,0-1-0.1 c-0.1-0.1-0.2-0.3-0.2-0.4c0,0,0,0,0-0.1c0-0.1,0-0.2,0-0.2c0-0.1,0.1-0.2,0.1-0.2c0.1-0.1,0.2-0.2,0.4-0.3c0.1,0,0.3-0.1,0.5-0.2 c0.4-0.2,0.9-0.4,1.3-0.5c0,0,0.1,0,0.1,0c0.2-0.1,0.4-0.1,0.6-0.2c0.1,0,0.3-0.1,0.4-0.1c0.2,0,0.4,0,0.6,0c0.6,0,1.4,0.1,2,0.3 c0.3,0.1,0.5,0.3,0.8,0.5c0.2,0.2,0.4,0.4,0.5,0.6c0.2,0.4,0.4,0.8,0.5,1.2c0,0.1,0.1,0.3,0.1,0.4c0.2,0.6,0.3,1,0.6,1.1 c0,0,0,0,0.1,0c0,0,0,0,0,0c0,0,0,0,0,0l-0.1,0.2l0,0l0.1,0l0.6,0.2l9.4,3.1l0.5,0.2l0.4-0.3l6.2-4.8l3.6,4.4L42.7,60.9z"/>
  </g>
</svg>