<svg width="128" height="128" xmlns="http://www.w3.org/2000/svg">
  <g>
    <path d="M122.5,89.2l-7.2-1c1.1-2.9,2.1-6,2.7-9.2l4.4-1.4c1.1-0.3,1.7-1.3,1.5-2.4c-0.3-1.1-1.3-1.7-2.4-1.5l-3,0.7 c0.3-2.5,0.5-5.1,0.5-7.9c0-5.6-0.7-10.8-2-15.6c7.5-10.4,7.3-29.5,6.9-35.3c-0.4-4.8-4.1-8.4-8.6-8.4c-0.3,0-0.6,0-0.9,0 C106,8.3,94.7,11,86.3,16.8c-7-2.8-14.6-4.2-22.3-4.2c-7.8,0-15.4,1.4-22.3,4.1C33.2,11,22,8.3,13.6,7.4c-0.3,0-0.6,0-0.9,0 c-4.5,0-8.2,3.7-8.6,8.4c-0.5,5.8-0.6,24.6,6.8,35.1c-1.3,4.8-2,10.1-2,15.8c0,2.7,0.2,5.3,0.5,7.8l-2.9-0.7 c-1.1-0.3-2.2,0.4-2.4,1.5c-0.3,1.1,0.4,2.2,1.5,2.4l4.5,1.1c0.6,3.3,1.5,6.4,2.7,9.3l-7,1c-1.1,0.2-1.9,1.2-1.7,2.3 c0.1,1,1,1.7,2,1.7c0.1,0,0.2,0,0.3,0l8.1-1.1c1.1,2.3,2.4,4.5,3.8,6.5L7.8,104c-1,0.5-1.4,1.7-0.8,2.7c0.4,0.7,1.1,1.1,1.8,1.1 c0.3,0,0.6-0.1,0.9-0.2l11.1-5.8c10.4,12.5,26.5,19.1,43.3,19.1c16.8,0,32.8-6.7,43.2-19.2l11.3,5.9c0.3,0.2,0.6,0.2,0.9,0.2 c0.7,0,1.4-0.4,1.8-1.1c0.5-1,0.1-2.2-0.8-2.7l-10.7-5.6c1.4-2,2.7-4.2,3.8-6.4l8.3,1.2c0.1,0,0.2,0,0.3,0c1,0,1.8-0.7,2-1.7 C124.4,90.4,123.6,89.4,122.5,89.2z M117.1,44.6c0.1-0.2,0.1-0.3,0.2-0.5c0-0.1,0.1-0.1,0.1-0.2C117.3,44.1,117.2,44.4,117.1,44.6z M114.7,10.4c0.2,0,0.4,0,0.5,0c3,0,5.4,2.4,5.6,5.6c0.1,0.7,0.1,1.4,0.1,2.3c-1.2-1.1-3.1-1-4.7-0.7c-4.5,1-8.8,3-12.4,5.8 c-0.9,0.7-1.8,1.5-2.5,2.5c-3.6-3.1-7.5-5.6-11.8-7.6C97,13.7,106.7,11.2,114.7,10.4z M7,18.3c0-0.8,0.1-1.6,0.1-2.3 c0.2-3.2,2.7-5.6,5.6-5.6c0.2,0,0.4,0,0.5,0c7.9,0.8,17.5,3.2,24.9,7.7c-4.3,2-8.2,4.5-11.8,7.6c-0.7-0.8-1.5-1.6-2.4-2.3 c-3.6-2.9-7.9-4.9-12.4-5.8C10.1,17.3,8.2,17.2,7,18.3z M98.7,81.4c0.2,0.9,1,1.5,1.9,1.5c0.2,0,0.3,0,0.5-0.1l13.4-3.3 c-0.6,2.8-1.4,5.5-2.5,8L101.1,86c-1.1-0.2-2.1,0.6-2.3,1.7c-0.2,1.1,0.6,2.1,1.7,2.3l9.7,1.3c-1,1.9-2.1,3.7-3.3,5.5l-6.5-3.4 c-1-0.5-2.2-0.1-2.7,0.8c-0.5,0.9-0.1,2.2,0.8,2.7l5.9,3.1c-1.3,1.5-2.7,3-4.3,4.4c-9.5,8.5-22.3,13.2-36.2,13.2 c-14.9,0-30.4-5.6-40.6-17.5l6.1-3.2c1-0.5,1.4-1.7,0.8-2.7c-0.5-1-1.7-1.4-2.7-0.8l-6.7,3.5c-1.2-1.7-2.4-3.6-3.4-5.5l9.9-1.4 c1.1-0.2,1.9-1.2,1.7-2.3c0-1.1-1-1.8-2.1-1.7l-11.1,1.5c-1-2.5-1.9-5.2-2.5-8l13.5,3.3c0.2,0,0.3,0.1,0.5,0.1 c0.9,0,1.7-0.6,1.9-1.5c0.3-1.1-0.4-2.2-1.5-2.4l-15.3-3.8c-0.4-2.7-0.6-5.6-0.6-8.6c0-15.7,5.5-28.8,15.8-38 c6.8-6,15.3-10.1,24.8-11.9v21c0,1.9,1.6,3.5,3.5,3.5c1.9,0,3.5-1.6,3.5-3.5v-21c0-0.3-0.1-0.6-0.1-0.9c1.5-0.1,3-0.2,4.6-0.2 c1.6,0,3.1,0.1,4.7,0.2c-0.1,0.3-0.1,0.6-0.1,0.9v21c0,1.9,1.6,3.5,3.5,3.5s3.5-1.6,3.5-3.5v-21c9.4,1.9,17.9,6,24.6,12 c10.3,9.3,15.8,22.4,15.8,37.8c0,3-0.2,5.8-0.6,8.6L100.2,79C99.1,79.3,98.5,80.3,98.7,81.4z"/>
    <ellipse cx="37.1" cy="59.6" rx="8.8" ry="10"/>
    <ellipse cx="90.9" cy="59.5" rx="8.8" ry="10"/>
    <path d="M34.3,81.2c0.2,0,0.4,0,0.6,0c-0.2,0-0.4-0.1-0.5-0.1C34.4,81.2,34.3,81.2,34.3,81.2z"/>
    <path d="M53.2,83.3c1,0.1,1.9,0.1,2.8,0.1C55.1,83.4,54.1,83.3,53.2,83.3z"/>
    <path d="M92.6,81.2c-0.3,0-0.5,0-0.6,0c-7.4,1.4-16.1,2.2-25.5,2.4V73.2l5.4-6.1c1.9-2.1,0.4-5.5-2.5-5.5H58.6 c-2.8,0-4.4,3.4-2.5,5.5l5.4,6.1v10.4c-0.8,0-1.5,0-2.2,0c-1.1,0-2.2-0.1-3.2-0.1c-0.9,0-1.9-0.1-2.8-0.1 C46.7,83,40.5,82.3,35,81.3c-2-0.4-3.8,1.4-3.4,3.4c0.1,0.6,0.3,1.2,0.4,1.7v0.1c0.1,0.4,0.3,0.9,0.4,1.3v0.1 c0.6,1.9,1.5,3.6,2.5,5.3l0.1,0.1c0.2,0.4,0.4,0.7,0.7,1.1c0.1,0.1,0.1,0.2,0.2,0.2c0.2,0.3,0.4,0.6,0.7,1c0.1,0.1,0.1,0.2,0.2,0.2 c0.2,0.3,0.5,0.7,0.8,1c0,0.1,0.1,0.1,0.1,0.2c0.6,0.8,1.3,1.5,2,2.2c0.1,0.1,0.1,0.1,0.2,0.2c0.3,0.3,0.5,0.5,0.8,0.8 c0.1,0.1,0.2,0.2,0.4,0.3c0.2,0.2,0.5,0.4,0.7,0.6c0.1,0.1,0.3,0.2,0.4,0.3c0.2,0.2,0.5,0.4,0.8,0.6c0.1,0.1,0.3,0.2,0.4,0.3 c0.3,0.2,0.6,0.4,0.8,0.6c0.1,0.1,0.3,0.2,0.4,0.3c0.9,0.6,1.7,1.1,2.7,1.6c0,0,0.1,0,0.1,0.1c0.5,0.2,0.9,0.5,1.4,0.7 c4.4,2.1,9.4,3.3,14.7,3.3c5.6,0,10.6-1.1,14.9-3.1c0.5-0.2,1.1-0.5,1.6-0.8c0.1,0,0.1-0.1,0.2-0.1c1.1-0.6,2.1-1.2,3-1.8 c0.5-0.3,0.9-0.6,1.3-1c0.1,0,0.1-0.1,0.2-0.1c0.9-0.7,1.8-1.5,2.6-2.3c0.4-0.4,0.8-0.8,1.1-1.2l0.1-0.1c0.8-0.8,1.5-1.7,2.1-2.6 c0.3-0.4,0.6-0.9,0.9-1.3c0,0,0-0.1,0.1-0.1c0.6-0.9,1.1-1.9,1.6-2.9c0.2-0.5,0.5-1,0.7-1.5c0.4-1,0.8-2.1,1.1-3.1 c0.1-0.5,0.3-1.1,0.4-1.6c0-0.1,0.1-0.2,0.1-0.4C95.8,82.8,94.4,81.2,92.6,81.2z M90.3,87.3c-8.5,3.6-17.5,5.6-26.8,5.6 S45.2,91,36.7,87.4c-0.2-0.5-0.4-1.1-0.6-1.7c8.3,1.4,17.7,2.1,27.3,2.1c9.7,0,19.1-0.7,27.4-2.1C90.6,86.2,90.5,86.8,90.3,87.3z"/>
  </g>
</svg>