<svg width="128" height="128" xmlns="http://www.w3.org/2000/svg">
  <path d="M123.5,6c-1-1.7-3-2.3-4.8-1.7l-10,3.4h-0.1c-2.4,0.8-4.2,2.7-4.9,5.1L99,28H8c-2.2,0-4,1.8-4,4v4 c0,1.9,1.3,3.5,3.1,3.9C7.4,39.9,7.7,40,8,40h4c0,0.3,9.5,48.9,9.5,48.9c0.4,1.8,1.8,3.2,3.6,3.2H80c0,0.6,0.1,1.2,0.4,1.8l3.7,7.3 c0.7,1.3-0.3,2.9-1.8,2.9H12c-2.3,0-4.2,2-4,4.4c0.2,2.1,2.1,3.6,4.1,3.6H21c-0.7,1.2-1.1,2.5-1.1,4c0,4.4,3.6,8,8,8 c4.4,0,8-3.6,8-8c0-1.5-0.4-2.8-1.1-4h38.1c-0.7,1.2-1.1,2.5-1.1,4c0,4.4,3.6,8,8,8c4.4,0,8-3.6,8-8c0-1.5-0.4-2.8-1.1-4h4.9 c1,0,2-0.3,2.7-0.9c1.5-1.2,1.8-3.3,1-4.9L89.6,95c-1.1-2.1-1.3-4.5-0.6-6.8l21.6-72c0.2-0.5,0.5-0.9,1-1.2c0.1,0,0.2-0.1,0.3-0.1 l9-3C123.6,11,124.8,8.2,123.5,6z M36,80c0,1.1-0.9,2-2,2h-4.4c-0.9,0-1.8-0.7-1.9-1.6l-7.1-32c-0.3-1.2,0.7-2.4,2-2.4H34 c1.1,0,2,0.9,2,2V80z M56.3,80.2c-0.1,1-1,1.8-2,1.8h-4.4c-1,0-1.9-0.8-2-1.8l-3.6-32C44.1,47,45,46,46.2,46h11.5 c1.3,0,2.2,1,2.1,2.2L56.3,80.2z M83.5,48.4l-7.1,32c-0.2,0.9-1,1.6-1.9,1.6H70c-1.1,0-2-0.9-2-2V48c0-1.1,0.9-2,2-2h11.5 C82.8,46,83.7,47.2,83.5,48.4z"/>
</svg>