<svg width="128" height="128" xmlns="http://www.w3.org/2000/svg">
  <g>
    <path d="M63.8,42.4c-3,0-5.4,1.7-7.1,5.2c-1.7,3.4-2.6,8.3-2.6,14.6v3.4c0,6.4,0.9,11.4,2.6,14.9s4.1,5.2,7.2,5.2 c3.1,0,5.5-1.7,7.2-5.1c1.7-3.4,2.5-8.4,2.5-15v-3c0-6.5-0.8-11.4-2.5-14.9C69.4,44.2,66.9,42.4,63.8,42.4z"/>
    <path d="M116,4H12c-4.4,0-8,3.6-8,8v104c0,4.4,3.6,8,8,8h104c4.4,0,8-3.6,8-8V12C124,7.6,120.4,4,116,4z M38.2,89.7 c-2.6,2.9-6.1,4.3-10.5,4.3c-2.9,0-5.6-0.8-8.1-2.3c-2.5-1.6-4.4-3.7-5.7-6.5c-0.8-1.6-1.4-3.4-1.7-5.3c-0.4-2.2,0.9-4.3,2.4-4.3h2 c1.1,0,2.2,1.1,2.4,2.8c0.3,2,1,3.7,2.1,4.9c1.5,1.8,3.7,2.7,6.5,2.7c2.5,0,4.3-0.7,5.5-2.2c1.2-1.4,1.8-3.3,1.8-5.7 c0-2.6-0.6-4.5-1.9-5.9c-1.2-1.4-3.5-2.8-6.8-4.2c-3.3-1.4-5.9-3-7.8-4.7c-3.7-3.3-5.5-7.7-5.5-13.1c0-4.7,1.3-8.6,4-11.6 c2.7-3,6.1-4.6,10.4-4.6c2.8,0,5.3,0.8,7.5,2.2c2.2,1.4,3.9,3.6,5.2,6.4c0.7,1.4,1.2,3,1.5,4.6c0.4,2.3-0.7,4.6-2.4,4.6h-2 c-1.1,0-2.1-1.1-2.4-2.7c-0.3-1.8-0.9-3.3-1.8-4.4c-1.3-1.7-3.2-2.6-5.7-2.6c-2.3,0-4.1,0.7-5.4,2.1c-1.3,1.4-1.9,3.4-1.9,5.9 c0,2.1,0.7,3.9,2.1,5.3c1.4,1.4,3.6,2.8,6.8,4.2c3.2,1.3,5.7,2.9,7.6,4.6c1.9,1.7,3.3,3.7,4.2,5.9c0.9,2.2,1.3,4.9,1.3,7.8 C42.1,83,40.8,86.8,38.2,89.7z M78.5,80.6c-1.4,4.3-3.3,7.6-5.9,9.9c-2.5,2.3-5.5,3.5-8.8,3.5s-6.2-1.2-8.8-3.5s-4.6-5.6-6-9.9 c-1.4-4.3-2.1-9.2-2.1-14.8v-3.3c0-5.7,0.7-10.7,2.1-15.1c1.4-4.4,3.4-7.7,5.9-10c2.5-2.3,5.5-3.5,8.8-3.5s6.2,1.1,8.8,3.4 c2.5,2.3,4.5,5.6,5.9,9.9c1.4,4.3,2.1,9.3,2.1,15v3.3h0.1C80.6,71.2,79.9,76.2,78.5,80.6z M112,89.7c-2.6,2.9-6.1,4.3-10.5,4.3 c-2.9,0-5.6-0.8-8.1-2.3c-2.5-1.6-4.4-3.7-5.7-6.5c-0.8-1.6-1.4-3.4-1.7-5.3c-0.4-2.2,0.9-4.3,2.4-4.3h2c1.2,0,2.2,1.1,2.4,2.8 c0.3,2,1,3.7,2.1,4.9c1.5,1.8,3.7,2.7,6.5,2.7c2.4,0,4.3-0.7,5.5-2.2c1.2-1.4,1.9-3.3,1.9-5.7c0-2.6-0.6-4.5-1.9-5.9 c-1.2-1.4-3.5-2.8-6.8-4.2c-3.3-1.4-5.9-3-7.8-4.7c-3.7-3.3-5.5-7.7-5.5-13.1c0-4.7,1.3-8.6,4-11.6c2.7-3,6.1-4.6,10.4-4.6 c2.8,0,5.3,0.8,7.5,2.2c2.2,1.5,3.9,3.6,5.2,6.4c0.7,1.4,1.2,3,1.5,4.6c0.4,2.3-0.7,4.6-2.4,4.6h-2c-1.1,0-2.1-1.1-2.4-2.7 c-0.3-1.8-0.9-3.3-1.8-4.4c-1.3-1.7-3.2-2.6-5.7-2.6c-2.3,0-4.1,0.7-5.4,2.1c-1.3,1.4-1.9,3.4-1.9,5.9c0,2.1,0.7,3.9,2.1,5.3 c1.4,1.4,3.6,2.8,6.8,4.2c3.1,1.3,5.7,2.9,7.6,4.6c1.9,1.7,3.3,3.7,4.2,5.9s1.3,4.9,1.3,7.8C115.8,83,114.6,86.8,112,89.7z"/>
  </g>
</svg>