<svg width="128" height="128" xmlns="http://www.w3.org/2000/svg">
  <g>
    <ellipse cx="85.4" cy="73.8" rx="11.9" ry="12.3"/>
    <ellipse cx="42.6" cy="54.2" rx="11.9" ry="12.3"/>
    <path d="M64,4C30.9,4,4,30.9,4,64s26.9,60,60,60s60-26.9,60-60S97.1,4,64,4z M21.2,54.2c0-8.3,3.9-19.4,22.4-25.3 c7.1-2.2,12.5-3.1,18.9-3.1c6.6,0,13,1.1,18.8,3.2c5.8,2.1,10.9,5.2,15.2,9.2c0.7,0.7,1.2,1.7,1.2,2.7c0,2-1.6,3.6-3.6,3.6 c-0.7,0-1.4-0.2-2-0.6c-3.6-2.4-7.7-4.4-12-5.9c-5.5-1.8-11.5-2.7-17.7-2.7c-2.7,0-5.3,0.2-7.9,0.5c6.7,4.5,10.4,12.6,9.5,21 C62.8,66.9,54.9,75,45.1,76.2c-0.8,0.1-1.6,0.1-2.5,0.1C30.8,76.3,21.2,66.4,21.2,54.2z M84.4,99.1c-7.1,2.2-12.5,3.1-18.9,3.1 c-6.6,0-13-1.1-18.8-3.2s-10.9-5.2-15.2-9.2c-0.7-0.7-1.2-1.7-1.2-2.7c0-2,1.6-3.6,3.6-3.6c0.7,0,1.4,0.2,2,0.6 c3.6,2.4,7.7,4.4,12,5.9c5.5,1.8,11.5,2.7,17.7,2.7c2.7,0,5.3-0.2,7.9-0.5c-6.7-4.5-10.4-12.6-9.5-21c1.1-10.1,9.1-18.2,18.9-19.3 c0.8-0.1,1.6-0.1,2.4-0.1c11.8,0,21.5,9.9,21.5,22.1C106.8,82.1,103,93.2,84.4,99.1z"/>
  </g>
</svg>