<svg width="128" height="128" xmlns="http://www.w3.org/2000/svg">
  <g>
    <path d="M88,73.9h-4.8c-3.3,0-6.1,2.2-6.8,5.4c-0.7,3-1.8,5.3-3.3,6.6c-2,1.8-5.1,2.6-9.4,2.6c-4.5,0-7.8-1.6-10.1-5 c-2.5-3.7-3.8-9.3-3.8-16.6v-6.6c0.1-7.2,1.4-12.6,4-16.2c2.4-3.3,5.8-4.9,10.4-4.9c4,0,7,0.9,8.9,2.7c1.5,1.4,2.6,3.7,3.3,6.8 c0.7,3.2,3.6,5.5,6.8,5.5H88c2.2,0,4.1-1,5.5-2.7c1.3-1.7,1.8-3.9,1.3-6C93.3,39.2,90.4,34,86,30.1C80.5,25.5,73.2,23,64.3,23 c-6.6,0-12.5,1.6-17.6,4.8s-9.1,7.7-11.8,13.6c-2.7,5.7-4,12.3-4,19.7V68c0.1,7.2,1.5,13.7,4.1,19.2c2.7,5.7,6.5,10.1,11.5,13.2 c5,3.1,10.7,4.6,17.2,4.6c9.1,0,16.6-2.5,22.2-7.4c4.4-3.8,7.4-8.9,8.9-15.1c0.5-2.1,0.1-4.2-1.3-5.9C92.2,74.9,90.2,73.9,88,73.9z "/>
    <path d="M64,4C30.9,4,4,30.9,4,64s26.9,60,60,60s60-26.9,60-60S97.1,4,64,4z M64,110c-25.4,0-46-20.6-46-46s20.6-46,46-46 s46,20.6,46,46S89.4,110,64,110z"/>
  </g>
</svg>