<svg width="128" height="128" xmlns="http://www.w3.org/2000/svg">
  <g>
    <path d="M122.5,88.9l-7.1-1c1.1-2.9,2.1-6,2.7-9.2l4.3-1.1c1.1-0.3,1.7-1.3,1.5-2.4c-0.3-1.1-1.3-1.7-2.4-1.5l-3,0.7 c0.3-2.5,0.5-5.1,0.5-7.8c0-5.6-0.7-10.8-2-15.6c7.5-10.4,7.3-29.4,6.8-35.2c-0.4-4.8-4.1-8.4-8.6-8.4c-0.3,0-0.6,0-0.9,0 c-8.3,0.9-19.6,3.6-28,9.4c-7-2.8-14.5-4.2-22.3-4.2S48.6,14,41.6,16.7C33.3,11,22,8.3,13.6,7.4c-0.3,0-0.6,0-0.9,0 c-4.5,0-8.2,3.7-8.6,8.4c-0.5,5.8-0.6,24.7,6.8,35.1C9.7,55.7,9,61,9,66.6c0,2.7,0.2,5.3,0.5,7.8l-3-0.7c-1.1-0.3-2.2,0.4-2.4,1.5 c-0.3,1.1,0.4,2.2,1.5,2.4l4.6,1.1c0.6,3.3,1.5,6.3,2.7,9.2l-7,1c-1.1,0.2-1.9,1.2-1.7,2.3c0.1,1,1,1.7,2,1.7c0.1,0,0.2,0,0.3,0 l8.1-1.1c1.1,2.3,2.4,4.5,3.8,6.5l-10.5,5.5c-1,0.5-1.4,1.7-0.8,2.7c0.4,0.7,1.1,1.1,1.8,1.1c0.3,0,0.6-0.1,0.9-0.2l11.1-5.8 c10.4,12.6,26.5,19.1,43.3,19.1s32.8-6.7,43.2-19.2l11.3,5.9c0.3,0.2,0.6,0.2,0.9,0.2c0.7,0,1.4-0.4,1.8-1.1c0.5-1,0.1-2.2-0.8-2.7 l-10.7-5.6c1.4-2,2.7-4.2,3.8-6.4l8.2,1.1c0.1,0,0.2,0,0.3,0c1,0,1.8-0.7,2-1.7C124.4,90.1,123.6,89.1,122.5,88.9z M114.7,10.4 c0.2,0,0.4,0,0.5,0c3,0,5.4,2.4,5.6,5.6c0.1,0.7,0.1,1.4,0.1,2.3c-1.2-1.1-3.1-1-4.7-0.7c-4.5,1-8.8,3-12.4,5.8 c-0.9,0.7-1.8,1.5-2.5,2.4c-3.6-3.1-7.5-5.6-11.8-7.6C97.1,13.7,106.7,11.2,114.7,10.4z M7,18.3c0-0.8,0.1-1.6,0.1-2.3 c0.2-3.2,2.7-5.6,5.6-5.6c0.2,0,0.4,0,0.5,0c7.9,0.8,17.6,3.3,25,7.8c-4.3,2-8.2,4.5-11.8,7.6c-0.7-0.9-1.5-1.6-2.4-2.3 c-3.6-2.9-7.9-4.9-12.4-5.8C10.1,17.3,8.2,17.2,7,18.3z M98.7,81.4c0.2,0.9,1,1.5,1.9,1.5c0.2,0,0.3,0,0.5-0.1l13.4-3.3 c-0.5,2.8-1.4,5.5-2.4,8.1l-11-1.6c-1.1-0.2-2.1,0.6-2.3,1.7c-0.2,1.1,0.6,2.1,1.7,2.3l9.7,1.4c-1,1.9-2.1,3.7-3.3,5.5l-6.6-3.4 c-1-0.5-2.2-0.1-2.7,0.8c-0.5,0.9-0.1,2.2,0.8,2.7l5.9,3.1c-1.3,1.5-2.7,3-4.2,4.4c-9.5,8.5-22.3,13.2-36.2,13.2 c-14.9,0-30.4-5.6-40.6-17.5l6.1-3.2c1-0.5,1.4-1.7,0.8-2.7c-0.5-1-1.7-1.4-2.7-0.8L20.8,97c-1.2-1.7-2.4-3.6-3.4-5.5l9.8-1.4 c1.1-0.2,1.9-1.2,1.7-2.3c0.1-1.2-0.9-1.9-2-1.8l-11,1.5c-1-2.5-1.9-5.2-2.5-8l13.5,3.3c0.2,0,0.3,0.1,0.5,0.1 c0.9,0,1.7-0.6,1.9-1.5c0.3-1.1-0.4-2.2-1.5-2.4l-15.2-3.7c-0.4-2.7-0.6-5.6-0.6-8.6c0-2.3,0.1-4.5,0.4-6.7 c3.9,14.3,27.7,20.2,28.7,20.4c0.1,0,0.2,0,0.4,0c0.1,0,0.2,0,0.4,0c0.3-0.1,0.6-0.2,0.8-0.4c0.7-0.7,18.1-18.1,14.2-32.4 c-1.5-5.4-6.5-9-11.8-9c-1.1,0-2.2,0.2-3.4,0.5c-4.4,1.2-7.6,4.7-8.7,8.8c-2.3-2.2-5.4-3.5-8.7-3.5c-1.1,0-2.2,0.2-3.3,0.5 c-2.6,0.7-4.8,2.2-6.4,4.2c2.6-8,7-14.9,13.1-20.4c6.7-6,15.3-10.1,24.7-11.9v21c0,1.9,1.6,3.5,3.5,3.5c1.9,0,3.5-1.6,3.5-3.5v-21 c0-0.3-0.1-0.6-0.1-0.9c1.5-0.1,3.1-0.2,4.6-0.2c1.6,0,3.1,0.1,4.6,0.2c-0.1,0.3-0.1,0.6-0.1,0.9v21c0,1.9,1.6,3.5,3.5,3.5 c1.9,0,3.5-1.6,3.5-3.5v-21c9.4,1.8,17.9,6,24.7,12c6,5.4,10.4,12.2,13,19.9c-1.7-2-3.9-3.5-6.5-4.2c-1-0.3-2-0.4-3.1-0.4 c-3.3,0-6.5,1.4-8.8,3.6c-1.1-4.1-4.4-7.5-8.9-8.7c-1.1-0.3-2.1-0.4-3.2-0.4c-5.4,0-10.5,3.7-11.9,9.2C67,62.2,84.7,79.3,85.5,80 c0.2,0.2,0.5,0.4,0.8,0.4c0.1,0,0.2,0,0.3,0c0.1,0,0.3,0,0.4,0c1-0.3,24.7-6.5,28.4-20.9c0.3,2.3,0.4,4.6,0.4,7 c0,3-0.2,5.8-0.6,8.6l-15,3.9C99.1,79.3,98.5,80.3,98.7,81.4z"/>
    <path d="M73.8,86.8c-2.4,0.8-4.9,1.3-7.3,1.6V73.2l5.4-6.1c1.9-2.1,0.4-5.5-2.5-5.5H58.6c-2.8,0-4.4,3.4-2.5,5.5 l5.4,6.1v15.2c-2.5-0.2-4.9-0.7-7.3-1.6c-3.3-1.1-6.8-0.1-8.9,2.6c-2.2,2.8-2.3,6.5-0.4,9.4c4.3,6.5,10.9,9.9,19.1,9.9 s14.9-3.4,19.1-9.9c1.9-2.9,1.8-6.6-0.4-9.4C80.6,86.7,77.1,85.7,73.8,86.8z"/>
  </g>
</svg>