<svg width="128" height="128" xmlns="http://www.w3.org/2000/svg">
  <path d="M113.1,15.9c-6.3-5.8-20.6-12-36.6-12C52,4,20.9,16.4,8.8,44.2C-8.6,84.2,24.3,124,64.6,124c18.6,0,38.9-11.5,47.2-23.1 c0.5-0.7,1.1-1.4,1.6-2.1c2-2.7,6-10-7.3-15.6c-5.9-2.5-6.7-8.3-5.9-11.1c2.2-8.7,9.7-9,17.3-16C121.7,52.3,131.8,33.1,113.1,15.9 z M30.2,34.2c6.9-2.1,13.7,0.5,15.4,6c1.7,5.4-2.5,11.5-9.4,13.6c-6.9,2.1-13.7-0.6-15.4-6C19.1,42.4,23.3,36.3,30.2,34.2z M14.4,78c-1.6-5.3,2.5-11.2,9.1-13.3c6.7-2,13.4,0.6,15,5.9c1.6,5.3-2.5,11.2-9.1,13.3C22.8,86,16,83.3,14.4,78z M49.6,111.7 c-6.6,2.1-13.4-0.6-15-5.8c-1.6-5.2,2.5-11.2,9.1-13.3c6.6-2.1,13.4,0.5,15,5.8C60.3,103.7,56.2,109.6,49.6,111.7z M63.7,32 c-6.7,2-13.4-0.6-15-5.8C47.1,21,51.2,15,57.8,12.9c6.6-2.1,13.4,0.6,15.1,5.8C74.5,24,70.4,30,63.7,32z M87.6,99.5 c-6.5,2.2-13.2-0.2-15-5.5c-1.8-5.2,2-11.2,8.4-13.4s13.2,0.2,15,5.5C97.9,91.3,94.1,97.3,87.6,99.5z"/>
</svg>