<svg viewBox="0 0 128 128" xmlns="http://www.w3.org/2000/svg">
  <path d="M122.7,44c0.8-15.2-2.3-27.8-7-32.1C111,7.6,98.3,3.6,82.8,4c9.6,5.6,18.2,12.6,25.6,20.6c-1.6,2.7-3.4,5.6-5.4,8.8 c-9.8-11-22-20-34-24.3l-5.3-2.4c-12.8,3.4-26,10.4-37.4,22.6C16.7,39.7,11,50.9,8,61.9l2.2,5.8c6.3,14.3,16,26.7,28,36.3 c-3.3,2.5-6.4,4.7-9.3,6.7c-9.4-8-17.5-17.6-23.7-28.4C5,100,10.7,114.4,15.9,119.2c4.6,4.2,17,6.1,31.7,4.3 c-5.5-2.9-10.7-6.3-15.5-10.1c2.9-2,6-4.2,9.3-6.8c6,4.4,12.6,8.1,19.7,11.1c1.2,0.5,2.1,1.4,2.7,2.5c13.5-4,27.3-11,37.7-22.3 c9.9-10.6,15.7-23.8,18.7-36.6c-3.2-8.5-8.3-16.9-14.6-24.5c2.1-3.2,3.9-6.2,5.5-8.9C115.5,32.8,119.3,38.3,122.7,44z M101.9,64.2 c-0.6,0.7-1.5,1.2-2.4,1.3c-0.9,0.1-1.8-0.2-2.6-0.8l-5.4-4.4c-1.6,2.1-3.4,4.4-5.3,6.7l5.3,4.6c1.4,1.3,1.6,3.5,0.3,4.9 c-0.6,0.7-1.5,1.1-2.4,1.2c-0.9,0.1-1.8-0.2-2.5-0.9l-5.3-4.6c-0.8,0.9-1.6,1.7-2.5,2.6c-1.4,1.4-2.8,2.8-4.2,4.2l5.1,5.4 c1.3,1.4,1.3,3.6-0.1,4.9c-0.7,0.7-1.6,1-2.5,1c-0.9,0-1.8-0.4-2.4-1.1l-5-5.4c-2,1.9-4,3.6-5.9,5.3l4.6,5.3 c1.3,1.5,1.1,3.7-0.3,4.9c-0.7,0.7-1.6,1-2.5,0.9c-0.9-0.1-1.8-0.5-2.4-1.2l-4.7-5.4c-4.6,3.8-7.7,6.2-8,6.4 c-0.5,0.4-1.2,0.6-1.8,0.6c-0.9,0-1.8-0.4-2.4-1.2c-1-1.3-0.7-3.2,0.6-4.2c0.1-0.1,3.1-2.4,7.7-6.1l-3.7-4.2 c-1.3-1.5-1.1-3.7,0.3-4.9c1.4-1.2,3.7-1.1,4.9,0.3l3.8,4.3c1.8-1.6,3.7-3.3,5.7-5.1l-3.6-3.8c-1.3-1.4-1.3-3.6,0.1-4.9 c1.4-1.3,3.6-1.3,4.9,0.1l3.7,3.9c1.3-1.3,2.7-2.7,4-4c0.8-0.8,1.5-1.6,2.3-2.4L73,64.7c-1.4-1.3-1.6-3.5-0.3-4.9 c1.3-1.5,3.5-1.6,4.9-0.3l4.3,3.7c1.9-2.3,3.7-4.5,5.2-6.6L82.7,53c-1.5-1.2-1.7-3.4-0.5-4.9c1.2-1.5,3.4-1.7,4.9-0.5l4.1,3.3 c2.3-3.5,3.6-5.7,3.6-5.7c0.8-1.4,2.7-1.9,4.1-1.1c1.4,0.8,1.9,2.7,1.1,4.1c-0.1,0.2-1.6,2.7-4.2,6.6l5.8,4.7 C102.9,60.5,103.1,62.7,101.9,64.2z"/>
</svg>