<svg viewBox="0 0 128 128" xmlns="http://www.w3.org/2000/svg">
  <g>
    <ellipse cx="43.2" cy="54.3" rx="6.3" ry="8.6"/>
    <path d="M111,107.7c-0.1,0-0.2,0-0.3,0c-2.7,0.4-5.4,0.6-8,0.6c-7.8,0-15.2-1.7-22.5-5.3c-5.1-2.5-2.1-4.8-4.8-7.3 c-2.7-2.4-6.9-1.5-8.5-3.3C59.7,84,62,76.6,65.8,75.1c3.5-1.4,6.4-3.9,5.7-6.6c-1.2-4.1-4.7-3.7-7.9-5.7c-8.5-5.4-11.1-13-9.8-20.6 c2.3-14,10-26.9,18.8-34.4c1.3-1.1,0.4-3.4-1.4-3.4h-0.1C51.3,5.7,32.6,16.7,22.3,35.6C7.6,62.7,16.1,97,41.9,114.1 c10.2,6.8,21.7,10,33.1,10c13.4,0,26.6-4.5,37.2-12.9C113.7,110,112.8,107.7,111,107.7z M74.8,121c-11.2,0-22-3.3-31.4-9.5 C19.2,95.4,11,62.7,25,37C33.9,20.7,49.9,9.9,68.2,7.7c-8.7,8.5-15.3,21.2-17.5,34c-1.6,9.7,2.3,18,11.2,23.6 c1.3,0.8,2.5,1.3,3.7,1.7c2.1,0.8,2.6,1,2.9,2.2c0.1,0.4-1,1.8-3.9,3c-2.5,1-4.3,3.3-5.1,6.3c-0.4,1.7-0.5,3.6-0.1,5.5 c-5.5,0.5-10.8-0.3-15.4-2.1c-1.6-0.6-2.8,1.4-1.6,2.5c5.5,5.2,12.9,8,20.5,7.7c0.5,0.7,1,1.4,1.6,2.1c1.4,1.7,3.5,2.1,5.3,2.4 c1.4,0.2,2.7,0.5,3.4,1.2c0.3,0.2,0.3,0.3,0.4,1.2c0.3,2.1,0.9,4.6,5.1,6.6c7.6,3.7,15.4,5.6,23.8,5.6c1.5,0,3.1-0.1,4.6-0.2 C97.7,117.5,86.3,121,74.8,121z"/>
  </g>
</svg>