<svg width="128" height="128" xmlns="http://www.w3.org/2000/svg">
  <g>
    <path d="M113.7,67.3c-1-0.3-2.2,0.2-2.5,1.3c0,0-0.5,1.4-2.1,2.4c-1.6,1-3,1-3.1,1c-1.2-0.1-2.1,0.7-2.2,1.8 c-0.1,1.1,0.7,2.1,1.8,2.2c0.1,0,0.2,0,0.5,0c0.9,0,3-0.2,5.2-1.6c2.8-1.8,3.6-4.3,3.7-4.6C115.3,68.7,114.8,67.6,113.7,67.3z"/>
    <path d="M39.8,38.4c0,0-1,0.3-2-0.3c-0.9-0.5-1.2-1.4-1.3-1.5c-0.3-1.1-1.4-1.7-2.4-1.4c-1.1,0.3-1.7,1.4-1.5,2.4 c0.2,0.3,0.9,2.7,3.3,4.1c1.2,0.6,2.3,0.8,3.2,0.8c1,0,1.7-0.2,1.9-0.3c1-0.3,1.6-1.4,1.3-2.5C42,38.7,40.9,38.1,39.8,38.4z"/>
    <path d="M18.7,63.7c1,0,1.9-0.8,2-1.8c0.1-1.1-0.7-2-1.8-2.2c0,0-1.1-0.1-2-1.1c-0.8-0.9-0.8-2-0.8-2.1c0.1-1.1-0.8-2-1.9-2.1 c-1.1-0.1-2.1,0.8-2.1,1.9c0,0.3-0.1,2.8,1.8,5c2,2.2,4.4,2.4,4.7,2.4C18.6,63.7,18.6,63.7,18.7,63.7z"/>
    <path d="M21.6,91.2c-1-0.3-2.2,0.2-2.5,1.3c0,0-0.5,1.4-2.1,2.4c-0.2,0.2-0.5,0.3-0.7,0.4c-1.5,1-0.3,4,1.5,3.7 c0.6-0.2,0.6-0.3,1.3-0.7c2.8-1.8,3.7-4.2,3.8-4.5C23.2,92.7,22.6,91.5,21.6,91.2z"/>
    <path d="M105,37.5c-0.2-1.1-1.3-1.8-2.4-1.5c0,0-1.4,0.3-3.2-0.6c-0.2-0.1-0.5-0.2-0.7-0.4c-1.6-0.8-3.5,1.8-2.4,3.2 c0.6,0.5,0.7,0.5,1.4,0.8c3,1.5,5.5,0.9,5.8,0.9C104.6,39.7,105.3,38.6,105,37.5z"/>
    <path d="M68.4,20c0,0-1.7,1.8-3.9,2.1c-0.3,0-2-0.2-2.2-0.2c-1.8,0-2.4,3.2-0.7,4c3.9,1.2,9.1-2.6,9.3-2.8c0.8-0.7,1-1.9,0.3-2.8 C70.5,19.4,69.2,19.3,68.4,20z"/>
    <path d="M64,4C24.2,4,4,34.9,4,68c0,28.3,15.9,49.1,44.3,54.6c0.3,0.1,0.6,0.1,0.9,0.2c0.7,0.1,1.4,0.2,2.1,0.4 c0.6,0.1,1.2,0.2,1.8,0.2c0.4,0,0.8,0.1,1.2,0.1c0.7,0.1,1.4,0.2,2.2,0.2c0.2,0,0.4,0,0.6,0.1c1,0.1,1.9,0.1,2.9,0.2 c0.3,0,0.5,0,0.8,0c1,0,2.1,0.1,3.1,0.1s2.1,0,3.1-0.1c0.3,0,0.5,0,0.8,0c1.1-0.1,2.1-0.2,3-0.3c0.2,0,0.4,0,0.6-0.1 c0.7-0.1,1.5-0.1,2.2-0.2c0.4,0,0.8-0.1,1.2-0.1c0.6-0.1,1.2-0.2,1.8-0.2c0.7-0.1,1.4-0.2,2.1-0.4c0.3-0.1,0.6-0.1,0.9-0.2 C108.1,117.1,124,96.3,124,68C124,34.9,103.8,4,64,4z M111.6,98.4c0,0-1.4-0.5-2.5-2.1c-0.2-0.2-0.3-0.4-0.4-0.7 c-1-1.5-4-0.2-3.7,1.6c0.2,0.6,0.3,0.6,0.7,1.3c1.5,2.2,3.3,3.2,4.2,3.5c-3.8,4.7-8.5,8.6-14,11.6V75.1c0-4.7-4-8.4-8.6-8 c-5.1,0.4-12.7,0.8-23.4,0.8c-10.7,0-18.3-0.4-23.4-0.8c-4.7-0.4-8.6,3.3-8.6,8v38.6C16.1,105,7,89.1,7,68 c0-16.5,5.1-31.5,14.3-42.5C31.6,13.4,46.3,7,64,7s32.4,6.4,42.7,18.5c9.2,11,14.3,26,14.3,42.5c0,12.1-3,22.6-8.6,30.9 C112.2,98.7,111.9,98.5,111.6,98.4z"/>
  </g>
</svg>