<svg width="128" height="128" xmlns="http://www.w3.org/2000/svg">
  <g>
    <path d="M108.8,43.9c-0.2,0-0.4,0-0.6,0c-0.4,0.1-0.7,0.1-1,0.1c-2.6,0,5.2-4.3,1.6-10c-0.4-0.6-1.5-0.8-2.6-0.8 c-1.4,0-2.9,0.4-3.4,1.1c1.3-2.6,4.4-5.9,4.9-9.3c0.4-3.5,1.6-7.7-5.5-8.4c-0.2,0-0.4,0-0.7,0c-7.4,0-24.7,9.5-33.8,28.9 c-2.1-0.3-4.3-0.5-6.5-0.7c-6.1-5.4-14.9-18.5-22.1-25.4c0.2-0.7,0.3-1.6,0.5-2.9c0.4-3.3-1.1-6.8-4.3-7.2c-0.2,0-0.4,0-0.6,0 c-2.3,0-2.1,1.9-4.3,2.2c-0.2,0-0.3,0-0.5,0c-1.6,0-1.5-1.3-4.6-1.9c-0.2,0-0.4-0.1-0.6-0.1c-2.2,0-4.3,2.1-4.9,4.6 c-0.6,2.5-2.2,0.9-3.1,3C15,21,17.5,21.8,19.2,22C19,22.4,19,22.8,19,23.2c-0.2,0-0.4,0-0.7,0.1h-0.1c-0.3,0.1-0.5,0.1-0.8,0.2 c-5.6,2.2-6.6,5.8-6.6,5.8s0.4-0.2,1.2-0.2c0.2,0,0.4,0,0.6,0c0.1,0,0.2,0,0.2,0c0.2,0,0.4,0,0.7,0h0.1c0.3,0,0.6,0,0.9,0.1 c0.1,0,0.1,0,0.2,0c0.4,0,0.7,0.1,1.1,0.2c1.2,0.2,2.2,0.4,3,0.6c-0.8,0-1,0.2-1,0.2s2.4,2,0.4,4.3c-2,2.2-1.6,5.6,0.3,5.6 c0.1,0,0.1,0,0.2,0c0.3,0,0.5,0,0.7,0c0.1,0,0.2,0,0.3,0c0.3,5.2,0.5,11.1,0.6,17.8c0,0,0,0-0.1,0V58c0,0,0,0-0.1,0l0.1,0.3 c-0.3,28.1,30.5,33.5,30.5,33.5s0.8,4.9,3.4,7.7c-0.4,1.5-0.8,2.9-1,3.8c-0.7,2.4-5.7,5-10.8,4.8c-3.1-0.2-5.9,0-6.7,3.3 c-0.2,1-0.4,2.1,0.4,2.6c0.5,0.3,1.1,0.2,1.4,0c0.5-0.3,1.7-0.9,2.3-0.8c0.8,0.1,1.2,0.2,1.5,0.3c0.7,0.2,1.1,0.3,2.6,0.1 c0.1,0,0.2,0,0.2,0c-0.1,0.6,0,1.4,0.4,2.1c0.3,0.5,0.5,0.9,0.8,1.2c-0.2,0.3-0.3,0.7-0.4,1.2c-0.2,1-0.4,2.1,0.4,2.7 c0.5,0.4,1.1,0.2,1.4,0c0.5-0.3,1.8-0.9,2.5-0.8c0.9,0.1,1.3,0.2,1.6,0.3c0.7,0.2,1.2,0.3,2.7,0.1c0.1,0,0.2,0,0.3,0 c-0.1,0.7,0,1.4,0.4,2.1c0.7,1.3,1.2,1.8,1.8,1.8H56c0.3,0,0.6-0.1,0.8-0.3c0.1-0.2,0.2-0.4,0.2-0.6c0-0.2,0.2-1.7,1.7-2 c2.1-0.5,3.3-1.4,3.7-1.8c0.6-0.2,2.9-0.9,4.1,0.1c2.1,1.9,3.6,1.9,4.9,1.8c0.4,0,1.7,0.8,2.7,1.8c0.2,0.2,0.6,0.3,0.9,0.2 c0.3-0.1,0.6-0.3,0.6-0.7c0.4-1.5,0.2-4.6-3.3-6.1c-2.3-0.9-4.4-3.6-3.7-6c0.4-1.4,1.8-4.2,3-6.6c-0.3,0-0.6,0-0.7,0 c6,0,0.9-8.2,6.4-10.1c6.2-2.1,11-7.5,13.9-12.9c0.5-0.9,1.3-2.7,2.2-4.8c3.8-0.8,10.1-3.4,16.4-17.1 C113.7,50.7,112.5,43.9,108.8,43.9z M51.7,114.6c-1.2-0.1-2.4-0.1-3.4,0.1c0.2-0.1,0.4-0.2,0.6-0.3c2-0.5,3.1-1.4,3.5-1.7 c0.6-0.2,2.8-0.9,3.9,0.1c0.4,0.4,0.8,0.7,1.2,1C55.7,114.4,53.7,114.7,51.7,114.6z M63.1,109.9c-0.1,0.2-0.2,0.4-0.3,0.7 c-0.3-0.2-0.6-0.3-0.9-0.5c-2.1-0.9-3.4-4-2.7-6.5c0.2-0.6,0.5-1.5,0.9-2.5c1.4-1,1.7-3.2,1.8-4.3c0-0.1,0.1-0.2,0.1-0.3 c0.2,0.9,1.3,3.4,3.3,5.3C64.6,104.6,63.6,108.1,63.1,109.9z M108,58.3c-6.6,14.3-12.9,15.6-15,16c-0.6,0.1-1.2,0.6-1.4,1.2 c-1.2,2.8-1.8,4-2.1,4.6c-3.2,5.9-7.9,10.3-12.8,12c-3.9,1.3-4.2,4.9-4.3,7.3c-0.2,2.7-0.3,2.7-1.4,2.7c-0.1,0-0.3,0-0.4,0 c-4.8-0.4-6.7-6.5-6.7-6.5c-0.2-0.9-1-1.4-1.9-1.4c-0.1,0-0.2,0-0.3,0c-1,0.2-1.7,1-1.7,2c0,0.9-0.2,2.6-0.9,3.2 c-0.1,0.1-0.3,0.2-0.6,0.2s-0.7-0.1-1.1-0.2c-2.8-1.1-4.2-6-4.5-7.8c-0.1-0.8-0.8-1.5-1.6-1.7c-0.1,0-7.4-1.4-14.7-6 C27,77.8,22.2,69.2,22.4,58.3c0-0.2,0-0.3,0-0.5c0-6.3-0.2-11.7-0.5-16.6c0.2,0.5,0.8,1.7,2.4,1.7c0.4,0,0.9-0.1,1.5-0.3 c4.3-1.6,3.2-9.4-1.2-11.3c-1.1-0.5-2-0.8-2.8-1c0.1-0.4,0.2-1.7,0.1-3.1c0-0.2,0-0.4-0.1-0.6v-0.1c0-0.2-0.1-0.4-0.1-0.6v-0.1 c0-0.2-0.1-0.3-0.1-0.5v-0.1c-0.1-0.2-0.1-0.3-0.2-0.5l-0.1-0.1c0-0.1-0.1-0.1-0.1-0.2c0-0.3,0-0.7,0-1c0-0.8,0.9-2.4,2.7-3.8 c2-1.6,4.4-2.5,6.6-2.5c0.8,0,1.6,0.1,2.3,0.4c4.1,1.4,10.7,9.5,16.4,16.6c4,4.9,7.7,9.5,10.8,12.4c0.3,0.3,0.7,0.5,1.2,0.5 c2.2,0.2,4.3,0.4,6.3,0.7c0.1,0,0.2,0,0.3,0c0.8,0,1.5-0.4,1.8-1.2c8.6-18.5,25.1-27.8,32-27.8c0.2,0,0.3,0,0.5,0 c1.8,0.2,3.1,0.6,3.6,1.2c0.7,0.8,0.4,2.5,0.2,4c0,0.3-0.1,0.6-0.1,0.8c-0.2,1.8-1.6,3.9-2.9,5.7c-0.7,1-1.3,1.9-1.8,2.9 c-0.5,0.9-0.2,2.1,0.7,2.6c0.3,0.2,0.7,0.3,1.1,0.3c0.6,0,1.1-0.2,1.5-0.7c0.2-0.1,0.9-0.3,1.8-0.3c0.5,0,0.9,0.1,1,0.1 c1.2,2.1,0.1,3.9-1.4,5.9c-0.8,1-1.6,2.2-1,3.5c0.2,0.5,0.9,1.3,2.3,1.3c0.3,0,0.8,0,1.3-0.1c0.1,0,0.2,0,0.2,0 c0.2,0,0.5,0,0.8,0.5C110.7,48.2,110.5,52.8,108,58.3z"/>
    <path d="M30.5,19c-3.5,0-6.3,2.8-6.3,6.3s2.8,6.3,6.3,6.3s6.3-2.8,6.3-6.3C36.8,21.9,33.9,19,30.5,19z M30.5,30.1 c-2.6,0-4.8-2.1-4.8-4.8s2.1-4.8,4.8-4.8c2.6,0,4.8,2.1,4.8,4.8S33.1,30.1,30.5,30.1z"/>
    <circle cx="30.3" cy="25.3" r="1.5"/>
  </g>
</svg>