<svg width="128" height="128" xmlns="http://www.w3.org/2000/svg">
  <path d="M125,61.6c-0.1-0.1-7.2-7.4-6.7-16.4c0.6-11.7,6.6-18.9,6.7-18.9c0.3-0.3,0.3-0.7,0.1-1.1c0.2-0.3,0.1-0.7-0.2-1 c0,0-20.8-2.1-33.7,16.6c0,0,2.1,13.8-2.7,25c-1.7,3.9-3.4,6.9-5,9.1l-4.3,3.2c-0.5-1.3-1.1-2.6-1.7-3.7c4.4-3.6,7.7-8.6,7.7-14.1 c0-3.7-1.1-7.3-3-10.4c1.2-2.1,1.7-4.6,1.4-6.9c-0.3-2.5-1.3-4.8-1.9-7.2c-0.6-2.4-0.6-5.2,1-7.1c-2.5,0.3-5,1.2-7.2,2.5 c-2.8,1.7-6.2,5-7.6,8.5c-1.3-0.3-2.6-0.4-3.9-0.4s-2.6,0.1-3.9,0.4c-1.3-3.5-4.8-6.7-7.6-8.5c-2.2-1.3-4.6-2.2-7.2-2.5 c1.6,1.9,1.6,4.7,1,7.1c-0.6,2.4-1.6,4.7-1.9,7.2c-0.3,2.4,0.3,4.8,1.4,6.9c-1.9,3.1-3,6.7-3,10.4c0,5.3,3.5,10.2,7.9,13.8 c-0.7,1.2-1.4,2.6-1.9,4l-4.3-3.2c-1.6-2.2-3.4-5.2-5-9.1c-4.8-11.2-2.7-25-2.7-25C24,22.2,3.2,24.3,3.2,24.3 c-0.3,0.3-0.4,0.6-0.2,1c-0.2,0.4-0.1,0.8,0.1,1.1c0.1,0.1,6,7.2,6.7,18.9c0.5,9-6.6,16.3-6.7,16.4c-0.3,0.3-0.3,0.6-0.2,1 C3,63,3.3,63.3,3.6,63.4c0.1,0,7.4,2,11,10.1c3.7,8.3,0.3,22.1,0.3,22.2c-0.1,0.3,0,0.7,0.2,0.9c0.2,0.2,0.5,0.4,0.9,0.3 c0.1,0,13.1-1.5,22.7,1.8c7.6,2.6,13.9,7.6,16.1,9.4c3.3,5.1,7,8.7,9.3,8.7c3.1,0,7-4.6,9.9-9.2c2.6-2.1,8.5-6.5,15.5-8.9 c9.6-3.3,22.6-1.8,22.7-1.8c0.3,0,0.7-0.1,0.9-0.3c0.2-0.2,0.3-0.6,0.2-0.9c0-0.1-3.4-13.9,0.3-22.2c3.6-8.1,10.9-10.1,11-10.1 c0.3-0.1,0.6-0.4,0.7-0.7C125.4,62.4,125.2,61.9,125,61.6z M46.7,48.6c-0.7-1.4-1.1-3-1-4.4c0.2-1.9,0.4-2.9,0.8-4.8 c0.4-1.9,2-7.3,0.9-8.8c1.8,0.2,3.6,1.7,5.5,3.9c2.1,2.5,2.8,4.4,3.1,6.4C52.3,42.5,49,45.2,46.7,48.6z M53.2,70.7 c-0.2,0.2-0.5,0-0.5-0.3l1.1-3.5c0.4,0.5,1,1.1,1.7,1.8L53.2,70.7z M54.5,60.5c-1.8,0-3.2-1.6-3.2-3.6s1.4-3.6,3.2-3.6 c1.7,0,3.2,1.6,3.2,3.6S56.3,60.5,54.5,60.5z M75.1,34.5c1.9-2.2,3.7-3.6,5.5-3.9c-1.1,1.5,0.5,6.9,0.9,8.8c0.4,1.9,0.9,3.2,1.1,5.1 c0.1,1.5-0.3,3-1,4.4c-2.3-3.5-5.7-6.3-9.6-8C72.3,38.9,73,37,75.1,34.5z M75,71l-2.7-2.1c0.8-0.7,1.4-1.3,1.8-1.8l1.4,3.7 C75.6,70.9,75.3,71.1,75,71z M72.6,60.5c-1.7,0-3.2-1.6-3.2-3.6s1.4-3.6,3.2-3.6c1.8,0,3.2,1.6,3.2,3.6S74.3,60.5,72.6,60.5z"/>
</svg>