<svg width="128" height="128" xmlns="http://www.w3.org/2000/svg">
  <g>
    <path d="M64,6.1C32.8,6.1,4,26.1,4,64c0,37.7,28.8,57.9,60,57.9c2.2,0,4.4-0.1,6.6-0.3c0.7,2.8,2.7,5,6.8,5c0.2,0,0.3,0,0.5,0 c4.7-0.2,6.7-3.6,7-7.9c22-7.3,39.1-26.1,39.1-54.7C124,26.6,95.2,6.1,64,6.1z M79.9,121.6c-0.3,0.4-0.8,0.9-2.2,0.9 c-0.1,0-0.2,0-0.3,0c-1.8,0-2.2-0.6-2.4-0.7c-1.1-1.3-1.1-4.7-0.1-10.1c0.1-0.4,0.3-1,0.5-1.6c0.5-1.6,1.5-5,0.3-7.8 c0.7-0.1,1.3-0.2,2-0.4c0.1,2.2,0.9,4.7,1.6,7.1c0.5,1.5,0.9,3,1.2,4.2C81.3,116.9,81,120.2,79.9,121.6z M103,103.9 c-5.2,4.6-11.5,8.2-18.3,10.6c-0.1-0.7-0.2-1.4-0.3-2c-1-4.6-4-11.2-2.1-12.7c2.1-1.6,3.1-1.5,4-5.2c0-0.1,0-0.2,0-0.2 c0.6-2.2,0.3-4.6-1.1-6.9c-4.7-7.1-11.9-11-21.2-11s-16.5,3.9-21.2,11c-4.5,6.8,2.2,15.5,9.9,12.8c0.8-0.3,1.7-0.5,2.5-0.8 c0,0.1,0,0.1,0,0.1c0.8-0.3,1.8-0.4,2.9-0.4c3.2,0,7.4,1.1,12.1,3c3.9,1.6,1.4,5.7,0.8,8.7c-0.4,1.9-0.8,4.3-0.8,6.6 c-2,0.2-4.1,0.3-6.2,0.3c-15,0-28.9-4.9-39-13.8C13.9,94.3,8,80.5,8,64s5.9-30.4,17-40.2c10.1-8.9,24-13.7,39-13.7s28.9,5,39,13.9 c11.1,9.8,17,23.6,17,40C120,80.3,114.1,94.1,103,103.9z"/>
    <ellipse cx="83.8" cy="49.5" rx="7" ry="11.5"/>
    <ellipse cx="44.2" cy="49.5" rx="7" ry="11.5"/>
  </g>
</svg>