<svg width="128" height="128" xmlns="http://www.w3.org/2000/svg">
  <g>
    <path d="M100.9,78.8c10.7-4.4,24-21.3,23.7-32.8c-0.1-2.6-1.1-5.9-3.7-6.1c-0.2,0-0.3,0-0.5,0c-2.1,0-2.4,1.9-5.2,4.6 c-4.7,4.5-9.4,6.7-14.9,7.9V38.6C100.2,20.4,84.4,4,63.9,4c-21.2,0-36,16.7-36,34.6v13.7c-6.6-1.3-10.3-3.4-15-7.9 c-2.8-2.7-3.1-4.6-5.3-4.6c-0.1,0-0.3,0-0.5,0c-2.6,0.3-3.7,3.5-3.7,6.1C3.1,57.5,16.4,74.4,27,78.8c3,1.2-5.3,41.8-5.3,41.8 c-0.8,2.6,3.4,4.2,5.2,4.2c3.6,0,11.7-7,19-7c7.2,0,10.4,6.8,18.1,7c7.2-0.1,10.8-7,18-7c7.3,0,15.3,7,18.9,7 c1.8,0,6.1-1.6,5.2-4.2C106.3,120.6,97.9,80,100.9,78.8z M98.5,100.8c1.4,8.5,3.1,16.9,3.6,19.7c-0.4,0.2-0.8,0.3-1.1,0.3 c-0.8-0.1-3-1.3-4.5-2.1c-4.1-2.2-9.2-4.9-14.5-4.9c-4.8,0-8.3,2.2-11.3,4.1c-2.3,1.5-4.4,2.8-6.8,2.9c-2.7-0.1-4.6-1.3-7.1-2.9 c-2.9-1.9-6.2-4-11-4c-5.3,0-10.4,2.7-14.5,4.9c-1.6,0.8-3.8,2-4.6,2.1c-0.3,0-0.7-0.2-1.1-0.3c0.6-2.8,2.2-11.2,3.6-19.7 c3.6-21.6,2.5-24.3-0.9-25.7c-4.5-1.8-9.9-6.6-14.2-12.4c-4.5-6-7-12.2-6.9-16.6c0-0.6,0.1-1.1,0.2-1.5c0.6,0.7,1.4,1.7,2.5,2.7 c5.4,5.3,9.9,7.6,17,9c0.2,0,0.5,0.1,0.8,0.1c0.9,0,1.8-0.3,2.5-0.9c0.9-0.8,1.5-1.9,1.5-3.1V38.6c0-7.8,3.2-15.5,8.9-21.2 C46.8,11.3,55,8,63.9,8c17.5,0,32.4,14,32.4,30.6v13.7c0,1.2,0.6,2.4,1.5,3.1c0.7,0.6,1.6,0.9,2.5,0.9c0.3,0,0.6,0,0.9-0.1 c6.8-1.6,12-4.3,16.8-9c1.1-1,1.9-2,2.4-2.7c0.1,0.4,0.2,0.9,0.2,1.5c0.1,4.4-2.5,10.6-6.9,16.6c-4.3,5.8-9.8,10.6-14.3,12.4 C96,76.5,94.9,79.2,98.5,100.8z"/>
    <path d="M89.7,59.5c-7.4,1.4-16.2,2.2-25.7,2.2s-18.3-0.8-25.7-2.2c-1.8-0.3-3.5,1.3-3.1,3.1 c1.6,7.9,7.3,14.9,15.2,18.8v2.9c0,6.4,5.2,11.6,11.6,11.6h5c6.4,0,11.6-5.2,11.6-11.6c0,0,0-1.2,0-3.1 c7.7-3.9,12.7-10.9,14.2-18.5C93.1,60.8,91.5,59.2,89.7,59.5z M67,93h-4.9c-4.9,0-8.8-3.9-8.8-8.8V64.8c-0.9-0.1,5.2,0.3,9.8,0.3 v14.4c0,0.8,0.7,1.5,1.5,1.5c0.8,0,1.5-0.7,1.5-1.5V65.1c4.2-0.1,9.1-0.3,9.7-0.4v19.5C75.8,89.1,71.9,93,67,93z"/>
    <path d="M76.4,57.7c8.7,0,15.8-7.1,15.8-15.8c0-8.7-7.1-15.8-15.8-15.8s-15.8,7.1-15.8,15.8 C60.6,50.6,67.6,57.7,76.4,57.7z M76.4,30.1c6.5,0,11.8,5.3,11.8,11.8s-5.3,11.8-11.8,11.8s-11.8-5.3-11.8-11.8 S69.9,30.1,76.4,30.1z"/>
    <ellipse cx="76.4" cy="41.9" rx="5.5" ry="5.6"/>
    <path d="M38.8,50.5l0.2-0.2c0,0,0.1,0,0.1-0.1c0.1-0.1,0.2-0.2,0.4-0.3c0.3-0.2,0.8-0.5,1.5-0.8 c0.7-0.3,1.5-0.6,2.4-0.9c0.4-0.1,0.9-0.2,1.4-0.4c0.3-0.1,0.5-0.1,0.7-0.1s0.6-0.1,0.8-0.1c1-0.1,2-0.2,3-0.2s1.8,0.1,2.5,0.2 c0.4,0.1,0.7,0.1,1,0.2c0.3,0.1,0.5,0.2,0.7,0.2c0.1,0,0.2,0,0.2,0.1c0.1,0,0.2,0.1,0.2,0.1c0.1,0.1,0.2,0.1,0.2,0.1 c0.8,0.3,1.6,0.1,2.2-0.5c0.3-0.3,0.4-0.7,0.4-1.2c0.1-0.4,0-0.9-0.2-1.3c0,0,0-0.1-0.1-0.2c-0.1-0.1-0.2-0.3-0.4-0.6 c-0.4-0.5-0.9-1.1-1.6-1.8s-1.6-1.4-2.5-2.2c-0.5-0.3-1-0.7-1.5-1s-1.1-0.7-1.6-1s-1.1-0.6-1.7-0.9c-0.6-0.3-1.1-0.5-1.7-0.8 c-1.1-0.5-2.2-0.8-3.1-1.1c-1-0.3-1.8-0.4-2.4-0.4c-0.3,0-0.5,0-0.7,0s-0.3,0-0.3,0c-0.8,0-1.5,0.5-1.8,1.3c-0.3,1,0.2,2,1.2,2.3 l0.2,0.1c0,0,0.2,0.1,0.6,0.2c0.4,0.2,1.1,0.4,1.8,0.7c0.8,0.3,1.6,0.7,2.6,1.2c0.5,0.2,1,0.5,1.5,0.8c0.5,0.3,1,0.5,1.5,0.8 c0.1,0,0.2,0.1,0.3,0.2c-0.3,0-0.7,0.1-1,0.1c-0.4,0.1-0.6,0.1-0.9,0.2c-0.3,0.1-0.7,0.1-1,0.2c-0.6,0.2-1.2,0.4-1.8,0.6 c-1.2,0.5-2.2,1-3.1,1.6c-0.4,0.3-0.8,0.6-1.1,0.9s-0.6,0.6-0.8,0.8c-0.2,0.2-0.4,0.4-0.5,0.6c-0.1,0.1-0.2,0.2-0.2,0.2 c-0.5,0.6-0.5,1.5,0,2.2C36.8,50.9,37.9,51.1,38.8,50.5z"/>
  </g>
</svg>