<svg viewBox="0 0 128 128" xmlns="http://www.w3.org/2000/svg">
  <g>
    <path d="M38.9,30.6l0.8,0.4c1.5,0.8,3.4,0.2,4.3-1.2c0.7-1.2,1.6-2.3,2.5-3.3c1.2-1.3,2.5-2.4,3.9-3.4c1.4-1,2.9-1.8,4.5-2.4 c1.6-0.6,3.2-1.1,4.9-1.4s3.4-0.4,5.1-0.3c1.7,0.1,3.5,0.4,5.1,0.9c0.8,0.2,1.7,0.6,2.5,0.9l-1,2.1L68,30.1 c-0.9,1.8,0.8,3.7,2.7,3.2L89,27.1c1.3-0.4,2.1-1.8,1.5-3.1L84.3,5.6c-0.8-1.8-3.3-1.9-4.2-0.1l-3.5,7.2L76,13.9 c-14.1-6.1-30.5-1-38.5,11.9C36.5,27.5,37.1,29.7,38.9,30.6z"/>
    <path d="M90.3,102.1c-0.1-0.1-1-0.6-1-0.6c-1.5-1-3.4-0.7-4.6,0.7c-0.9,1.1-1.9,2.1-3,3c-1.4,1.1-2.9,2.1-4.5,2.9 c-1.6,0.8-3.2,1.4-4.9,1.9s-3.4,0.7-5.2,0.8c-1.8,0.1-3.5-0.1-5.3-0.4c-1.8-0.3-3.5-0.9-5.2-1.6c-0.8-0.4-1.7-0.8-2.4-1.3l1.3-2 l4.5-6.9c1.1-1.7-0.3-3.9-2.3-3.7L38.1,99c-1.4,0.2-2.3,1.6-2,3l4.1,19.7c0.5,2,3.2,2.4,4.3,0.7l4.6-6.9l0.8-1.2 c13.7,8.2,31.2,5,41.2-7.1C92.4,105.6,92,103.3,90.3,102.1z"/>
    <path d="M48.7,75.5c0-2.2-0.4-4.1-1-5.6c-0.6-1.5-1.6-3-2.8-4.2c-1.2-1.2-2.7-2.3-4.5-3.3c-1.7-1-4-2.1-6.8-3.2 c-2.8-1.1-4.7-2.3-5.7-3.3s-1.5-2.4-1.5-4.2c0-1.9,0.6-3.4,1.6-4.5c1-1.1,2.5-1.6,4.4-1.6c1.9,0,3.4,0.7,4.6,2.1 c1.1,1.4,1.7,3.5,1.7,6.3h10.2c0-4.6-1.1-8.3-3.5-11.1c-2.4-2.8-5.6-4.5-9.7-5.1v-7.6h-5.6v7.5c-4.2,0.4-7.4,1.8-10,4.4 c-2.6,2.6-3.8,5.8-3.8,9.7c0,2.3,0.3,4.3,1.1,5.9c0.8,1.6,1.8,3.1,3.1,4.3s2.9,2.3,4.7,3.2c1.8,0.9,4,1.8,6.5,2.8s4.3,1.9,5.4,3.1 c1.1,1.2,1.6,2.7,1.6,4.6c0,1.8-0.6,3.3-1.8,4.3c-1.1,1.1-2.8,1.6-4.8,1.6c-2.5,0-4.4-0.7-5.7-2.2c-1.3-1.5-2-3.6-2-6.4H14.3 c0,4.7,1.3,8.5,3.9,11.4c2.6,2.9,6.3,4.6,11.1,5.1v6.9h5.5v-6.9c4.4-0.5,7.7-2,10.2-4.4C47.5,82.7,48.7,79.4,48.7,75.5z"/>
    <polygon points="115.1,35.5 102.6,35.5 93.6,58.1 84.6,35.5 72,35.5 85,64.1 75.2,64.1 75.2,71.1 87.4,71.1 87.4,75.7 75.2,75.7 75.2,82.7 87.4,82.7 87.4,93.8 99.4,93.8 99.4,82.7 110.9,82.7 110.9,75.7 99.4,75.7 99.4,71.1 110.9,71.1 110.9,64.1 102.2,64.1 "/>
  </g>
</svg>