<svg width="128" height="128" xmlns="http://www.w3.org/2000/svg">
  <g>
    <path d="M108.1,10.6c1.4-1.5,1.1-4-0.7-5.7c-1.8-1.7-4.4-1.8-5.8-0.2L89.8,17.9L5.3,112.2c-1,1.1-0.7,2.9,0.6,4.2 c0.7,0.7,1.6,1,2.4,1c0.7,0,1.3-0.2,1.8-0.7l80.5-87.2L108.1,10.6z M9.4,115.9c-0.3,0.4-0.8,0.4-1.1,0.4c-0.6,0-1.2-0.3-1.7-0.7 c-0.9-0.8-1.2-2.1-0.6-2.8l79.3-88.6l4.5,4.5L9.4,115.9z"/>
    <path d="M121.9,18c-1.7-1.8-4.3-2-5.8-0.6L103.6,30l-89.7,89.4c-1,1-0.9,2.9,0.4,4.2c0.7,0.7,1.7,1.1,2.5,1.1 c0.6,0,1.2-0.2,1.7-0.6l85.7-82.9c0.9-0.9,18.1-17.5,18.1-17.5C123.8,22.3,123.6,19.8,121.9,18z M17.8,123.4 c-0.3,0.3-0.7,0.4-1,0.4c-0.6,0-1.3-0.3-1.8-0.8c-0.9-0.9-1-2.1-0.4-2.8l84.2-84l4.3,4.7L17.8,123.4z"/>
  </g>
</svg>