<svg width="128" height="128" xmlns="http://www.w3.org/2000/svg">
  <path d="M123.9,104.2c-0.2,0-0.5-0.1-0.8-0.1h0.8l-11.3-19l-0.1-62.3c0-1.5-1.2-2.8-2.8-2.8H18c-1.5,0-2.8,1.2-2.8,2.8v62.3L4,104.1 h0.4c-0.1,0-0.3,0.1-0.4,0.1s0,1.8,0,1.8c0,1.1,0.9,2.1,2.1,2.1h115.6c1.2,0,2.2-1,2.2-2.1C123.9,106,124,104.2,123.9,104.2z M108.7,90.5h-6.4l-1.2-1.6h6.5L108.7,90.5z M107.2,88h-9.6l-1.3-1.7h10L107.2,88z M97,88.9l1.2,1.6h-6.4l-1.3-1.6H97z M87.9,88 l-1.2-1.7h6.5l1.1,1.7H87.9z M24,27.2h79.7v49.9H24V27.2z M71.8,90.5l-0.7-1.6h6l1.2,1.6H71.8z M76.1,93.1h-6.4l-0.5-1.7h6 L76.1,93.1z M68.6,88l-0.8-1.7h6.1L75,88H68.6z M68.3,88.9l0.8,1.6h-6.5l0.3-1.6H68.3z M64,93.1h-6.4l0.5-1.7h5.7L64,93.1z M59,88 l0.5-1.7h5.4l0.5,1.7H59z M60.2,88.9l-0.4,1.6h-6.4l0.6-1.6H60.2z M56,88h-6.4l1-1.7h6L56,88z M50.5,88.9l-0.8,1.6h-6.4l1-1.6H50.5z M53.1,91.4l-0.6,1.7h-6.4l0.8-1.7H53.1z M46.5,88H40l0.9-1.7h6.5L46.5,88z M43.1,93.9h41.8l1,1.7H42.1L43.1,93.9z M77.2,86.3h6.4 l1.2,1.7h-6.4L77.2,86.3z M33.1,88.9h6.4l-1,1.6h-6.4L33.1,88.9z M30.4,88l0.8-1.7h6.6L36.9,88H30.4z M21.2,86.3h6.5L26.8,88h-6.4 L21.2,86.3z M19.9,88.9h9.7l-1,1.6h-9.7L19.9,88.9z M18.6,91.4h13l-1.1,1.7H17.7L18.6,91.4z M22.5,95.6h-6.4l0.9-1.7h6.3L22.5,95.6z M34.8,95.6h-6.4l0.9-1.7h6.3L34.8,95.6z M33.9,93.1l1.1-1.7h6.4l-1,1.7H33.9z M41.4,100l1.9-3.5h41l1.9,3.5H41.4z M79.9,93.1 l-1.1-1.7h6.5l1.1,1.7H79.9z M82.2,90.5l-1.1-1.6h6.4l1.1,1.6H82.2z M89.7,91.3H109l1.1,1.8H90.8L89.7,91.3z M93.5,95.6l-1.3-1.7 h6.5l1.2,1.7H93.5z M105.5,95.6l-1.3-1.7h6.4l1.3,1.7H105.5z"/>
</svg>