<svg width="128" height="128" xmlns="http://www.w3.org/2000/svg">
  <g>
    <rect height="6.6" width="6.6" x="64.8" y="34.7"/>
    <rect height="6.6" width="6.6" x="56.6" y="42.9"/>
    <rect height="6.6" width="6.6" x="56.6" y="34.7"/>
    <rect height="6.6" width="6.6" x="64.8" y="42.9"/>
    <path d="M124,80.9c-0.1-1.2-0.2-2.6-0.7-4c-0.8-2.6-2.2-4.9-4.4-6.1V39.9c0.6,0.5,1.3,0.7,1.9,0.7c0.9,0,1.7-0.4,2.4-1.1 c1.1-1.3,1-3.3-0.3-4.5L88.2,4.8c-1.2-1-2.9-1-4,0L70.9,16.3l-4.3-3.7c-1.5-1.3-3.8-1.3-5.3,0L57,16.3L43.9,4.8c-1.2-1-2.9-1-4,0 L5.1,35.1c-1.3,1.1-1.5,3.1-0.3,4.5c0.6,0.7,1.5,1.1,2.4,1.1c0.7,0,1.4-0.2,1.9-0.7v28.4c-2.6,1.1-4.5,3.6-4.8,6.4 C4.1,76.9,5,78.1,5,78.1c-0.7,0.7-1,1.8-0.9,2.8c0,0.1,0,0.1,0,0.2v43h120V82.2c0-0.2,0-0.5,0-0.7L124,80.9z M84.9,12.4 c0.7-0.6,1.8-0.6,2.5,0L116,37.3v32.4c-0.3,0-0.6-0.1-0.9-0.1c-0.5,0-1,0-1.5,0.1c-0.9-3-3.5-5.3-6.7-5.7v-5.6 c0.8,0.6,1.6,0.9,2.5,0.9c1.1,0,2.3-0.5,3.1-1.4c1.5-1.7,1.3-4.3-0.4-5.8l-2.2-1.9v-4.6c0-0.7-0.6-1.3-1.3-1.3h-5.4L93,35.5v-9.9 c0-0.7-0.6-1.3-1.3-1.3H80.5c-0.1,0-0.1,0-0.2,0l-4.6-4L84.9,12.4z M106.8,66.7h0.1c2,0.4,3.6,1.9,4.2,3.9c0,0.2,0.2,0.3,0.2,0.5 c-2,0.5-3.7,2-4.3,3.9c-0.1,0-0.1,0-0.2,0V66.7z M104.7,45.7h4v3.5L104.7,45.7z M87.5,30.7l-0.7-0.6v-4.4h5v5H87.5z M91.8,32v2.5 L89,32H91.8z M85.5,25.7V29l-3.8-3.3H85.5z M75.4,62.7L75.4,62.7c0.1-0.9,0.8-1.7,1.8-1.7H92c0.9,0,1.7,0.7,1.7,1.7v21.4H92v-5 h-6.6v5h-1.7v-5h-6.6v5h-1.7V62.7z M54.9,34.7c0-0.9,0.7-1.7,1.7-1.7h14.8c0.9,0,1.7,0.7,1.7,1.7v14.8c0,0.9-0.7,1.7-1.7,1.7H56.6 c-0.9,0-1.7-0.7-1.7-1.7V34.7z M59,74V63.5c0-0.5-0.4-0.8-0.8-0.8H40.1c-0.5,0-0.8,0.4-0.8,0.8V75c0,0.5,0.4,0.8,0.8,0.8h14.2 c-0.5,0.7-0.7,1.6-0.7,2.5c0,0.3,0,0.6,0.1,0.8H40.1c-0.5,0-0.8,0.4-0.8,0.8v14.8c0,0.5,0.4,0.8,0.8,0.8h18.1 c0.5,0,0.8-0.4,0.8-0.8v-12c1-0.2,1.9-0.8,2.5-1.6v16.7c0,0.2-0.1,0.4-0.2,0.5H37c-0.1-0.1-0.2-0.3-0.2-0.5V60.6 c0-0.5,0.4-0.8,0.8-0.8h23.1c0.5,0,0.8,0.4,0.8,0.8v15.1C60.9,74.8,60,74.3,59,74z M60.5,78.4c0,1.4-1.1,2.5-2.5,2.5 s-2.5-1.1-2.5-2.5c0-1.4,1.1-2.5,2.5-2.5S60.5,77,60.5,78.4z M39,32l-2.9,2.5V32H39z M36.2,30.7v-5h5v4.4l-0.7,0.6H36.2z M42.5,29 v-3.3h3.8L42.5,29z M40.6,12.4c0.7-0.6,1.8-0.6,2.5,0l9.2,8l-4.6,4c-0.1,0-0.1,0-0.2,0H36.2c-0.7,0-1.3,0.6-1.3,1.3v9.9l-10.1,8.8 h-5.4c-0.7,0-1.3,0.6-1.3,1.3v4.6l-2.2,1.9c-1.7,1.5-1.9,4.1-0.4,5.8c1.4,1.7,3.9,1.9,5.6,0.5V64c-2.9,0-5.5,1.5-6.9,3.8 c-0.6-0.2-1.3-0.2-1.9-0.2c-0.1,0-0.2,0-0.2,0V37.3H12L40.6,12.4z M23.3,45.7l-4,3.5v-3.5H23.3z M6.7,79.9c0.8-0.8,1-2.1,0.4-3.1 c-0.3-0.5-0.4-1.1-0.3-1.8c0.2-2.3,2.1-4.3,4.5-4.8c0.3-0.1,0.7-0.1,1-0.1h0.1c-1.3,2.3-1.3,4.3-1.3,4.4c0,0.7,0.6,1.2,1.3,1.2 c0.7,0,1.2-0.6,1.2-1.3c0,0,0-1.8,1.5-3.8c0.1-0.2,0.2-0.4,0.2-0.5c0.4-0.2,0.8-0.5,1.1-0.9c1-1.6,2.8-2.6,4.7-2.6v8.6 c-0.7,0.2-1.5,0.4-2.1,0.7c-0.6,0.3-0.9,1.1-0.5,1.7c0.2,0.4,0.7,0.7,1.1,0.7c0.2,0,0.4,0,0.6-0.1c0.3-0.2,0.6-0.3,1-0.4V80H6.6 C6.6,80,6.6,79.9,6.7,79.9z M121,121H7V83.3h14.1V108h85.8V83.3H121V121z M106.9,80v-2.5c1.1-0.1,2.2,0,3,0.4 c0.6,0.3,1.4,0,1.7-0.6c0.3-0.6,0-1.4-0.6-1.7c-0.4-0.2-0.8-0.3-1.3-0.4c0.6-1,1.7-1.8,2.9-1.8c0.6,0,1.1-0.5,1.2-1.1 c0.1,0,0.1,0,0.2,0c0.3-0.1,0.7-0.1,1-0.1c0.4,0,0.9,0.1,1.3,0.2c2.1,0.5,3.7,2.3,4.5,5.2c0.2,0.8,0.4,1.7,0.5,2.4H106.9z"/>
    <rect height="6.6" width="6.6" x="85.5" y="62.7"/>
    <rect height="6.6" width="6.6" x="85.5" y="70.9"/>
    <rect height="6.6" width="6.6" x="77.2" y="62.7"/>
    <rect height="6.6" width="6.6" x="77.2" y="71"/>
  </g>
</svg>