<svg width="128" height="128" xmlns="http://www.w3.org/2000/svg">
  <g>
    <path d="M125,114.5c-0.6-0.6-3.1-3.1-6.6-6.6c-4.6-4.6-10.9-10.8-15.8-15.8c0.5-1.1,0.3-2.4-0.5-3.8c-0.5-0.8-0.9-1.6-1.4-2.4 c-2.5-4.3-5.2-9.2-9.5-14.7c-3.3-5.8-9.3-12.4-13.8-17c-3.5-4.4-7.3-8-11.2-10.7c-4.6-3.2-6.8-8.9-9.1-15 C53.3,18.6,49,7.4,33,6.3c-6.8-0.5-13,1.5-17.4,5.6c-2.7,2.5-4.6,5.7-5.6,9.3c-0.5,0.4-1,0.8-1.5,1.3C5,25.6,3,32.5,2.9,37.1 c0.4-0.1,0.8-0.1,1.3-0.2c0.5,1.5,4,4.3,6.2,4.3c0.1,0,0.2,0,0.3,0c1.5,3.7,4.4,6.8,9.7,9.6c-2.8,18.7,3.3,30.6,9,37.4 c7.7,9.1,18.6,14.5,32,15.9c0,0.4-0.1,0.8-0.1,1.2c-0.9,3.3-2.5,6.9-4.3,7.6c-0.8,0.3-1.4,0.5-2.2,0.5c-0.7,0-1.3-0.1-2.1-0.3 c-0.9-0.2-2-0.4-3.4-0.4c-0.2,0-0.3,0-0.5,0c-2.1,0-3.5,0.5-4.2,1.5c-0.7,1.1-0.3,2.2-0.2,2.3l0.3,0.7l0.2,0v0l0.1,1.1l1.1-0.2 c0,0,4.7-1,9.1-1c0.9,0,1.8,0,2.5,0.1c0.6,0.1,1.2,0.1,1.7,0.2c-1.4,0.4-2.7,0.5-4.4,0.5c-0.5,0-1.1,0-1.7,0c-0.2,0-0.3,0-0.5,0 c-2.2,0-3.7,0.5-4.4,1.6c-0.7,1.1-0.3,2.3-0.2,2.4l0.3,0.8l0.5-0.1c-0.1,0.5-0.1,0.9,0,1.2l0.3,1.2l1.1-0.5 c0.1,0,5.7-2.6,10.5-2.6c0.5,0,0.9,0,1.3,0.1c5.2,0.6,6.7,1.1,9.7,2.8c0.3,0.2,0.6,0.3,0.9,0.3c0.6,0,1.1-0.4,1.2-1.1 c0.2-1.2-2-4-4.3-4.6c-0.3-0.1-0.6-0.2-0.9-0.2c0.1-0.2,0.2-0.4,0.3-0.6c0.1-0.8-0.8-1.8-1.8-2.5c0.2-0.3,0.4-0.6,0.5-0.9 l0.1-0.1c0.8-1.3,1.5-2.6,2-3.8c1.4-0.4,2.3-1.5,2.7-2l1.4-1.8l0.8-1c0.4-0.5,0.9-1.2,1.3-2.1c5.1-0.4,10.4-1.3,15.9-2.6 c0.4-0.1,0.6-0.2,0.8-0.2c7.5,2.4,8.9,4.1,9.1,4.4c0,0.1,0,0.2,0.1,0.3c0.1,0.3,2.6,6.5,10.1,16.6c0.4,0.6,1.4,1.5,3.2,1.5 c0.3,0,0.6,0,1-0.1c3.6-0.5,8.5-4.2,9.5-6.9C125.9,116.2,125.7,115.2,125,114.5z M64.6,45.9c3.6,2.6,7.2,6,10.6,10.2 c0,0,0.1,0.1,0.1,0.1c2.6,2.7,5.7,6,8.5,9.5c0.8,1.3,1.5,2.6,2.2,3.8c-0.7,0.9-1.7,2-3.1,2.2c-1.6,0.4-4.1-0.3-4.5-2.5 c-0.1,4.3-3.5,5.1-8.2,2c0.1,1.2,0.4,1.6-0.9,3c-2.2,1.2-6,6-8,5.1c2.7,2.7,5.2,4.9,7.6,6.8c4,2.4,7.7,3.7,9.7,2.9 c2.4-1-0.6-5.6-0.2-6.5c5.5,6.2,11.1,3.6,8.1-1.9c1.2,1,3.7,1.3,5,0c0.6-0.6,1-1.5,0.8-2.8c2.3,3.4,4.1,6.5,5.8,9.6 c0.5,0.8,0.9,1.6,1.4,2.4c0.4,0.7,0.3,1.1,0.2,1.2c0,0.1-0.1,0.1-0.1,0.2c-0.4,0.5-0.5,1.1-0.3,1.7c-0.6,0.2-1.2,0.4-2,0.6 C90,94.8,81.2,95.5,68.9,86c-4.8-2.9-10.3-7.2-14.5-11.2c-10.9-10.3-8.3-23.8,1.3-27.6c3.7-1.5,6.3-1.9,8.6-1.5 C64.4,45.8,64.5,45.9,64.6,45.9z M25.6,31.1c-4.7,0-8.6-3.8-8.6-8.6c0-4.7,3.8-8.6,8.6-8.6s8.6,3.8,8.6,8.6 C34.2,27.3,30.4,31.1,25.6,31.1z M9.2,24.8c0.2-0.2,0.4-0.5,0.6-0.7c0.3-0.3,1.3-1.2,1.8-1.4c0,0,0,0,0.1,0.1 c0.4,1.7-0.3,8.7-0.5,11.3c-0.4,0-0.8,0-1.2,0c-0.3,0-0.5,0-0.8,0c-1.3,0.1-2.7,0.3-3.9,0.5C5.9,31,7.3,27.1,9.2,24.8z M10.5,37.7c-0.1,0.4-0.2,0.9-0.3,1.4c-0.8-0.1-1.9-0.8-2.8-1.5c1-0.2,2.2-0.4,3.2-0.6C10.6,37.2,10.5,37.4,10.5,37.7z"/>
    <path d="M25.4,19.5c-1.7,0-3,1.3-3,3c0,1.7,1.3,3,3,3c1.7,0,3-1.3,3-3C28.4,20.9,27.1,19.5,25.4,19.5z"/>
  </g>
</svg>