<svg viewBox="0 0 128 128" xmlns="http://www.w3.org/2000/svg">
  <path d="M122.5,59c1.5-0.4,2.7-2.2,2.5-4.1c-0.4,0.9-1.7,0.5-2-0.4c-0.1-0.4-0.2-0.7-0.2-1.1c0-0.1,0-0.2,0-0.2c0-0.2,0-0.4-0.1-0.7 c0-0.4,0-0.7,0-1.1c-0.1-1-0.5-2.3-1.3-2.4c-0.4-0.1-0.8,0.2-1.3,0.4c-0.8-0.5-1.7-0.9-2.7-1.3c0.4-0.5,0.7-0.8,0.7-1 c0.5-1.6,0.2-4,0.1-5.7c-0.1-1.6-0.1-3.3-0.2-5v-0.1c-0.1-0.9-0.1-1.8-0.2-2.6c0,0.1,0,0.1,0,0.1c0,0.1,0,0.1,0,0.2 c0,0.1,0,0.2,0,0.3c0,0.1,0,0.3,0,0.4c-0.1-2.7-1.5-3.1-6.2-4.1c-5.5-1.2-40.5-11.8-45.8-13.3c-3.8-1-6.4-1.9-8.9-1.9 c-1,0-1.9,0.1-2.9,0.5c-3.4,1.2-7.2,3.5-7.2,3.5c-8.5,6.3-31.9,25.3-31.9,25.3s-3.8,1.8-4.9,5.6c-0.2,0.7-0.3,1.5-0.3,2.3 c0.2,4.5,0.1,8.1,0.8,10.2c-1.1,0.4-2,0-3.7-0.8c-0.3,0.5-0.6,1-0.7,1.6c0.3,0.4,0.7,0.7,1.1,1c-0.6,0.7-1.3,1.4-1.9,2.1 C5,66.3,4.5,66,4,66c-0.1,1.8-0.2,3.6-0.3,5.4c0.8,0.3,1.7,0.2,2.5-0.3c-0.4,1.5,0,3.3,1,4.3c0.8-0.7,1.4-1.9,1.4-3.1 c0.9,0,1.7,0.5,2.2,1.4c-0.6,0.9-1.2,1.9-1.8,2.8c0.5,1.1,1.7,1.7,2.6,1.2c0.3,1,0.8,1.8,1.3,2.6c-0.8,0.7-1.3,1.2-1.5,1.4 c-1.4,1.6-1.2,2.8,0.1,4.5c2.6,3,9.8,6.8,20.4,7.5c0.1,0,0.1,0,0.2,0c3.7,2.3,9.6,4.4,17.2,4.9c0.4,0,0.9,0,1.3,0.1 c3.5,3.2,11.1,6.6,21.7,7.3c3.6,0.2,7,0,10.4-0.9c-1.5,1.2-3,2.4-4.6,3.7c-1.2,1.1-4,2.9-4,3c-2.7-2.6-6.1-3.4-9.7-4.7 c-0.3-0.1-0.5-0.2-0.8-0.3c-11.4-3.2-22-5.6-33.1-10.2c-1.2-0.4-2.4-0.7-3.5-0.9c-0.2,0-0.3-0.1-0.5-0.1c-1.8-0.4-3.6-0.7-5.4-1.1 c-3.7-1.1-7.1-3.2-9.8-6.6c-0.2,0.7-0.3,1.5-0.3,2.3c0.2,5.4,0,9.4,1.3,11.3c1.3,1.9,40.7,13.4,50.9,16.8c6.9,2.3,8.7,4,11.5,3.8 c0,0.1,0.1,0.2,0.1,0.2c3.2-0.9,11-7.3,17.1-11.8c6.1-4.5,26.8-24.3,27.4-26c0.5-1.6,0.2-4,0.1-5.7c-0.1-2-0.2-4-0.3-6 c1.4-0.5,2.5-2,2.8-3.7c0.1-0.4,0.1-0.9,0.1-1.4c-1.4-0.6-3.1-2.1-2.4-3.6c0.4-0.9,1.5-1,2.3-0.5c0.7,0.5,1.2,1.5,1.7,2.4 C125,63.8,124.4,60.3,122.5,59z M12.9,52.7c0-0.5,0-1,0.1-1.5c0.7-2.4,3.2-3.7,3.2-3.7c0.2-0.1,0.4-0.2,0.6-0.4 C17.1,47,40.1,28.3,48.6,22c0.6-0.4,3.8-2.2,6.5-3.2c0.6-0.2,1.2-0.3,1.9-0.3c1.5,0,3.4,0.5,6,1.2c0.7,0.2,1.4,0.4,2.1,0.6 c2,0.5,8.3,2.4,15.5,4.5c12.6,3.7,26.9,8,30.4,8.7c1.4,0.3,3,0.7,3.7,0.9c0,0,0,0.1,0,0.2c0,0.3,0.1,0.6,0.2,0.9 c0.1,1.2,0.1,2.4,0.2,3.6c-0.1,0.1-0.1,0.1-0.2,0.2c-12,11.2-24.1,20.5-38,31.8c-1.2,1.1-4,2.9-4,3c-2.9-2.8-6.6-3.5-10.6-4.9 C50.9,66,40.4,63.6,29.2,59c-3.1-1-6.2-1.3-9.4-2c-2.5-0.7-4.8-1.9-6.9-3.6C12.9,53.2,12.9,52.9,12.9,52.7z M13.9,79.5 c0-0.2,0-0.3,0-0.5c0.3-0.1,0.6-0.2,0.8-0.2C14.4,79,14.1,79.3,13.9,79.5z M96.3,77.1c-5.1,0.1-10,2.5-13.9,6.5 c-2.4,2.6-4.5,5.8-7.5,6.6c-4.5,1.3-8.6-3.2-12.6-6.1c-4.9-3.6-10.9-5-16.5-4.1c-4.4,0.8-8.8,2.9-13,1.2 c-5.9-2.3-8.9-11.4-14.9-13.5c-1.2-0.4-2.6-0.5-3.8-1.3c-0.6-0.4-1.1-0.9-1.5-1.6c7.6,3.3,40.2,12.9,49.4,15.9 c6.9,2.3,8.7,4,11.5,3.8c0,0.1,0.1,0.2,0.1,0.2c3.2-0.9,11-7.3,17.1-11.8c4.9-3.6,19.4-17.2,25.1-23.2c-0.1,0.6-0.3,1.3-0.5,1.5 c-2.6,2.8-4.7,6.4-6.1,10.3c-1,2.9-1.7,6-2.8,8.8c-1.1,2.8-3,5.5-5.4,6.4C99.5,77.2,97.9,77.1,96.3,77.1z M116.3,77 c-5.4,5.1-10.9,9.8-16.6,14.4c1.4-2.1,2.7-4.5,4-7.2c0.5-1,0.9-2.1,1.2-3.1c0.2,0,0.5,0.1,0.7,0c1-0.3,1.2-2.2,2.2-2.7 c1.2-0.7,3,0.9,3.9-0.3c0.9-1.1-0.4-2.9-1.4-3.7c-0.5-2,1.6-3.5,3.3-3.1c1.6,0.4,3.1,1.7,4.8,1.7c0.2,0,0.4,0,0.7-0.1 C118.6,74.7,117.4,76,116.3,77z"/>
</svg>