<svg width="128" height="128" xmlns="http://www.w3.org/2000/svg">
  <g>
    <path d="M120.9,91c-1.5-1.2-3.4-1.8-5.2-1.8c-2.4,0-4.8,1-6.4,3.1c-0.1,0.1-0.1,0.3-0.2,0.4l-7.5-6.1c1.4-2.1,2.2-4.6,2.2-7.3V60.5 c0-6.3-1.5-12.3-4.1-17.6l9.5-7.6c0.1,0.1,0.1,0.3,0.2,0.4c1.6,2,4,3.1,6.4,3.1c1.8,0,3.7-0.6,5.2-1.8c3.6-2.9,4.1-8.1,1.2-11.6 c-1.6-2-4-2.9-6.4-2.9h-0.2c0.6-2.4,0.2-5-1.5-7.1c-1.6-2-4-3.1-6.4-3.1c-1.8,0-3.7,0.6-5.2,1.8c-3.6,2.9-4.1,8.1-1.2,11.6 c0.1,0.1,0.3,0.2,0.4,0.3l-8.9,7.2C85.5,25.5,75.3,20.7,64,20.7S42.5,25.4,35.3,33l-8.9-7.2c0.1-0.1,0.3-0.2,0.4-0.3 c2.9-3.6,2.3-8.8-1.2-11.6c-1.5-1.2-3.4-1.8-5.2-1.8c-2.4,0-4.8,1-6.4,3.1c-1.7,2.1-2,4.7-1.5,7.1h-0.2c-2.4,0-4.8,0.9-6.4,2.9 C3,28.8,3.5,34,7.1,36.8c1.5,1.2,3.4,1.8,5.2,1.8c2.4,0,4.8-1,6.4-3.1c0.1-0.1,0.1-0.3,0.2-0.4l9.5,7.7c-2.6,5.3-4.1,11.3-4.1,17.6 v18.8c0,2.7,0.8,5.2,2.2,7.3L19,92.6c-0.1-0.1-0.1-0.3-0.2-0.4c-1.6-2-4-3.1-6.4-3.1c-1.8,0-3.7,0.6-5.2,1.8 C3.6,93.8,3.1,99,6,102.5c1.6,2,4,2.9,6.4,2.9h0.2c-0.6,2.4-0.2,5,1.5,7.1c1.6,2,4,3.1,6.5,3.1c1.8,0,3.7-0.6,5.2-1.8 c3.5-2.9,4.1-8.1,1.2-11.6c-0.1-0.1-0.3-0.2-0.4-0.3l11.8-9.5h5.2v11.1c0,2,1.7,3.7,3.7,3.7h33.8c2,0,3.7-1.7,3.7-3.7V92.4H90 l11.8,9.5c-0.1,0.1-0.3,0.2-0.4,0.3c-2.9,3.6-2.3,8.8,1.2,11.6c1.5,1.2,3.4,1.8,5.2,1.8c2.4,0,4.8-1.1,6.5-3.1 c1.7-2.1,2-4.7,1.5-7.1h0.2c2.4,0,4.8-0.9,6.4-2.9C125,99,124.5,93.8,120.9,91z M104.1,29c0.8-0.7,1.4-1.7,1.5-2.8 c0.1-1.1-0.3-2.2-1-3c-0.2-0.2-0.3-0.3-0.5-0.5c-1.2-1.8-0.9-4.3,0.9-5.7c1-0.8,2-1,2.7-1c1.3,0,2.5,0.6,3.3,1.6 c1,1.3,0.9,2.8,0.7,3.7c-0.3,1.2,0,2.5,0.8,3.4c0.8,0.9,1.9,1.5,3.1,1.5h0.1h0.1c0.8,0,2.3,0.2,3.3,1.4c1.5,1.8,1.2,4.5-0.6,6 c-1,0.8-2,1-2.7,1c-1.2,0-2.3-0.5-3.1-1.3c-0.1-0.2-0.2-0.4-0.4-0.6c-0.6-0.9-1.6-1.4-2.7-1.6c-0.2,0-0.3,0-0.5,0 c-0.9,0-1.8,0.3-2.5,0.9l-9,7.2c-0.7-1.1-1.5-2.2-2.3-3.2L104.1,29z M21.4,32.1c-0.7-0.6-1.6-0.9-2.5-0.9c-0.2,0-0.3,0-0.5,0 c-1.1,0.1-2,0.7-2.7,1.6c-0.2,0.2-0.3,0.4-0.4,0.6c-0.8,0.8-1.9,1.3-3.1,1.3c-0.7,0-1.7-0.2-2.7-0.9c-1.8-1.5-2.1-4.2-0.6-6 c1-1.3,2.5-1.4,3.3-1.4h0.1h0.1c1.2,0,2.3-0.6,3.1-1.5c0.8-1,1.1-2.2,0.8-3.4c-0.1-1-0.3-2.5,0.7-3.8c0.8-1,2-1.6,3.3-1.6 c0.7,0,1.7,0.2,2.7,0.9c1.7,1.4,2.1,3.9,0.9,5.7c-0.2,0.1-0.3,0.3-0.5,0.5c-0.7,0.8-1.1,1.9-1,3c0.1,1.1,0.6,2.1,1.5,2.8l8.8,7.1 c-0.8,1-1.6,2.1-2.3,3.2L21.4,32.1z M23.9,98.8c-0.8,0.7-1.4,1.7-1.5,2.8c-0.1,1.1,0.3,2.2,1,3c0.2,0.2,0.3,0.3,0.5,0.5 c1.2,1.8,0.9,4.3-0.9,5.7c-1,0.8-2,1-2.7,1c-1.3,0-2.5-0.6-3.3-1.6c-1-1.3-0.9-2.8-0.7-3.7c0.3-1.2,0-2.5-0.8-3.4 c-0.8-0.9-1.9-1.5-3.1-1.5h-0.1h-0.1c-0.8,0-2.3-0.2-3.3-1.4c-1.5-1.8-1.2-4.5,0.6-6c1-0.8,2-1,2.7-1c1.2,0,2.3,0.5,3.1,1.3 c0.1,0.2,0.2,0.4,0.4,0.6c0.7,0.9,1.6,1.4,2.7,1.6c0.2,0,0.3,0,0.5,0c0.9,0,1.8-0.3,2.5-0.9l7.7-6.2c1.1,0.9,2.4,1.6,3.7,2.1 L23.9,98.8z M84.6,88.5L84.6,88.5c-2.2-0.1-4,1.7-4,3.9v10.8h-3.7V99c0-1.2-1-2.2-2.2-2.2h-0.4c-1.2,0-2.2,1-2.2,2.2v4.3h-5.9V99 c0-1.2-1-2.2-2.2-2.2h-0.4c-1.2,0-2.2,1-2.2,2.2v4.3h-5.9v-4.2c0-1.2-1-2.2-2.2-2.2h-0.4c-1.2,0-2.2,1-2.2,2.2v4.2H47V92.4 c0-2.2-1.8-4-4-4h-5.9c-2.5,0-4.8-1-6.5-2.7c-1.7-1.7-2.7-4-2.7-6.5V60.5c0-19.7,16-35.7,35.7-35.7c19.7,0,35.7,16,35.7,35.7v18.8 c0,5.1-4.1,9.2-9.2,9.2H84.6z M119,100.1c-1,1.3-2.5,1.5-3.3,1.5h-0.1h-0.1c-1.2,0-2.3,0.5-3.1,1.5c-0.8,1-1.1,2.2-0.8,3.4 c0.2,0.8,0.3,2.4-0.7,3.6c-0.8,1-2,1.6-3.3,1.6c-0.7,0-1.7-0.2-2.7-0.9c-1.7-1.4-2.1-3.9-0.9-5.7c0.2-0.1,0.3-0.3,0.5-0.5 c0.7-0.8,1.1-1.9,1-3c-0.1-1.1-0.6-2.1-1.5-2.8l-9-7.2c1.3-0.5,2.6-1.2,3.7-2.1l7.7,6.2c0.7,0.6,1.6,0.9,2.5,0.9c0.2,0,0.3,0,0.5,0 c1.1-0.1,2-0.7,2.7-1.6c0.2-0.2,0.3-0.4,0.4-0.6c0.8-0.8,1.9-1.3,3.1-1.3c0.7,0,1.7,0.2,2.7,0.9C120.2,95.6,120.5,98.3,119,100.1z"/>
    <path d="M67.3,74.3c-1-3.3-5.7-3.3-6.7,0L59,79.6c-0.5,1.7,0.8,3.4,2.5,3.4h4.9c1.8,0,3-1.7,2.5-3.4L67.3,74.3z"/>
    <circle cx="83.3" cy="64.4" r="10.3"/>
    <circle cx="44.7" cy="64.4" r="10.3"/>
  </g>
</svg>