<svg viewBox="0 0 128 128" xmlns="http://www.w3.org/2000/svg">
  <g>
    <path d="M48.3,45.6c0.1,0,0.2,0,0.4-0.1c0.1,0,6.4-2.5,15.1-2.5c8.7,0,15.5,2.5,15.6,2.5c0.5,0.2,1.1-0.1,1.3-0.6 c0.2-0.5-0.1-1.1-0.6-1.3c-0.3-0.1-7.3-2.6-16.3-2.6c-9,0-15.5,2.5-15.8,2.6c-0.5,0.2-0.8,0.8-0.6,1.3 C47.5,45.3,47.9,45.6,48.3,45.6z"/>
    <path d="M52.8,39.3c0.1,0,0.2,0,0.3,0c0.1,0,5.1-1.6,10.9-1.6c5.7,0,10.8,1.6,10.9,1.6c0.5,0.2,1.1-0.1,1.3-0.7 c0.2-0.5-0.1-1.1-0.7-1.3c-0.2-0.1-5.4-1.7-11.5-1.7c-6.1,0-11.3,1.6-11.5,1.7c-0.5,0.2-0.8,0.7-0.7,1.3C52,39,52.4,39.3,52.8,39.3 z"/>
    <path d="M54.4,71c-0.1-0.1-0.1-0.1-0.2-0.1H55c1.4,0,2.5-1.1,2.5-2.5v-3.8c1.3-0.6,3.5-1.1,6.3-1c3.3,0,5.7,0.7,6.9,1.4v3.5 c0,1.4,1.1,2.5,2.6,2.5h0.6c-0.1,0-0.1,0.1-0.2,0.1c-0.4,0.4-0.4,1,0,1.4l7.1,7.1c0.2,0.2,0.5,0.3,0.7,0.3s0.5-0.1,0.7-0.3 c0.4-0.4,0.4-1,0-1.4L75,71c-0.1-0.1-0.1-0.1-0.2-0.1h12.7c1.4,0,2.5-1.1,2.5-2.5V63c0-1.4-1.1-2.5-2.5-2.5H85 c0.1-0.4,0.2-0.9,0.2-1.4c0-2.8-2.2-5-4.8-5s-4.8,2.2-4.8,5c0,0.5,0.1,0.9,0.2,1.4h-2.5c-0.9,0-1.7,0.5-2.2,1.2 c-2.1-0.9-4.7-1.2-7.2-1.2c-2.3,0-4.8,0.3-6.8,1c-0.5-0.6-1.2-1-2-1h-2.5c0.1-0.4,0.2-0.9,0.2-1.4c0-2.8-2.2-5-4.8-5 s-4.8,2.2-4.8,5c0,0.5,0.1,0.9,0.2,1.4h-2.5c-1.4,0-2.5,1.1-2.5,2.5v5.3c0,1.4,1.1,2.5,2.5,2.5h12.5c-0.1,0-0.1,0.1-0.2,0.1 l-7.1,7.1c-0.4,0.4-0.4,1,0,1.4c0.2,0.2,0.5,0.3,0.7,0.3s0.5-0.1,0.7-0.3l7.1-7.1C54.8,72,54.8,71.4,54.4,71z M72.7,63 c0-0.3,0.2-0.5,0.6-0.5h14.3c0.3,0,0.5,0.2,0.5,0.5v5.3c0,0.3-0.2,0.5-0.5,0.5H73.2c-0.3,0-0.6-0.2-0.6-0.5V63z M40.1,68.3V63 c0-0.3,0.2-0.5,0.5-0.5H55c0.3,0,0.5,0.2,0.5,0.5v5.3c0,0.3-0.2,0.5-0.5,0.5H40.7C40.4,68.9,40.1,68.6,40.1,68.3z"/>
    <path d="M73.2,50.1c-0.4,0.5-0.3,1.2,0,1.5c0.3,0.3,1,0.7,1.9,0.4c0.9-0.3,2.5-1.2,5.3-1.2c2.8,0,4.5,0.9,5.3,1.2 c0.9,0.3,1.6,0,1.9-0.4c0.3-0.4,0.4-1,0-1.5c-0.9-1.2-3.1-3-7.2-3C76.2,47.1,74.1,48.9,73.2,50.1z"/>
    <path d="M42.5,52c0.9-0.3,2.5-1.2,5.3-1.2c2.8,0,4.5,0.9,5.3,1.2c0.9,0.3,1.6,0,1.9-0.4c0.3-0.4,0.4-1,0-1.5c-0.9-1.2-3-3-7.2-3 s-6.3,1.8-7.2,3c-0.4,0.5-0.3,1.2,0,1.5C40.9,52,41.6,52.3,42.5,52z"/>
    <path d="M67.4,68.1h-6.9c-0.1,0-0.2,0-0.3,0.1c-0.6,0.2-1,0.9-0.7,1.6c0.3,0.7,1.7,2.6,4.5,2.6c2.8,0,4.2-2,4.5-2.6s0-1.3-0.7-1.6 C67.7,68.1,67.5,68.1,67.4,68.1z"/>
    <path d="M75.1,78.1c0.7-1.6-1.1-3.3-2.9-2.2c-3.1,1.9-13.4,1.9-16.5,0c-1.8-1.1-3.6,0.6-2.9,2.2c0.7,1.6,6.3,5.3,11.2,5.3 S74.3,79.7,75.1,78.1z"/>
    <path d="M97.1,101.1c0.3-0.9,0.4-1.8,0.4-2.8v-0.9c0-5-4.1-8.9-8.9-8.9c-0.7,0-1.3,0.1-2,0.2c-1.9,0.4-3.9,0.8-5.9,1.2 c6.5-3.6,11.3-9.6,13.9-18.2c3.9-1.7,6.6-5.8,6.6-10.7c0-0.9-0.1-1.9-0.3-2.7c2.4-2.7,4.8-6.2,4.4-9.9c-0.2-2.6-1.3-4.9-2.8-6.6 C102,26.6,96.1,4.2,64.6,4.2c-31.8,0-38.2,22.6-39.1,37.4c-1.9,1.8-3,4.3-2.9,7c0.1,4,2.2,7.4,4.4,9.9c-0.2,0.8-0.3,1.7-0.3,2.6 c0,4.8,2.8,9,6.6,10.7c2.6,8.6,7.4,14.6,13.9,18.2c-2.1-0.4-4.2-0.8-6.3-1.3c-0.7-0.2-1.3-0.2-1.9-0.2c-4.6,0-8.5,3.7-8.5,8.5v1.4 c0,0.9,0.1,1.7,0.3,2.5C19.7,104.8,12,111.3,12,121v3h104v-3C116,111.8,108.3,105.2,97.1,101.1z M95.3,69c0.5-2.1,0.8-4.3,1.1-6.6 c0.5-0.4,1.6-1.2,2.8-2.4c0,0.3,0.1,0.7,0.1,1C99.3,64.4,97.7,67.4,95.3,69z M29.2,41.5c1-0.5,2-0.7,3.1-0.7c1.1,0,2.1-0.5,2.8-1.4 c0.7-0.9,0.8-2.1,0.5-3.2c-0.4-1.2-0.5-2.4-0.4-3.7c0.5-3.8,3.5-6.8,7.2-7.3c0.4,0,0.8-0.1,1.1-0.1c1.8,0,3.5,0.5,4.9,1.6 c0.6,0.4,1.3,0.7,2.1,0.7c1.8,0,3.3-1.3,3.5-3.1c0.6-5.3,3.8-8,9.7-8v0c5.9,0,9.1,2.7,9.7,8c0.2,1.8,1.7,3.1,3.5,3.1 c0.8,0,1.5-0.2,2.1-0.7c1.4-1,3.1-1.6,4.9-1.6c0.3,0,0.5,0,0.8,0c4.1,0.4,7.4,3.9,7.6,8c0,1-0.1,2.1-0.4,3.1 c-0.4,1.1-0.2,2.2,0.5,3.1c0.6,0.9,1.7,1.4,2.8,1.4c0.1,0,0.1,0,0.2,0c0.1,0,0.3,0,0.5,0c4.6,0,7.3,3.9,7.7,7.9 c0.4,4.3-4.1,9-7,11.4c-0.1-5-0.7-13.7-3.7-18.5C86.8,32.3,76.2,27,63.5,27c-12.9,0-23.9,5.6-29.4,15c-3.3,5.6-3.4,13.1-3.1,17.8 c-2.4-2-6.4-6.2-6.5-11.2C24.6,45.6,26.4,42.8,29.2,41.5z M28.7,61c0-0.3,0-0.5,0-0.8c1.3,1.2,2.4,2,2.8,2.3 c0.2,2.3,0.6,4.5,1.1,6.5C30.3,67.3,28.7,64.4,28.7,61z M33.1,55.5c0,0,0-0.1,0-0.1c1.6-7.6,6.1-17,14.7-19.4 c4-1.1,12.5-2.1,15.5-6.9c0.1,0,0.2,0,0.2,0c0.2,0,0.3,0,0.5,0c3,4.8,11.5,5.8,15.5,6.9c8.5,2.4,12.9,11.6,14.6,19.2 c0.4,4.6,0.2,8.4,0.2,8.4l0,0c-2,15.3-9.6,24.7-22.2,27.5c-2.7,0.2-5.5,0.3-8.2,0.3c-2.7,0-5.4-0.1-8-0.3 C41.2,87.8,33.2,75.5,33.1,55.5z M33.5,97c0-3,2.5-5.5,5.5-5.5c0.4,0,0.8,0,1.3,0.2c7.8,1.8,15.7,2.7,23.7,2.7 c7.8,0,15.7-0.9,23.4-2.6c0.5-0.1,0.9-0.1,1.3-0.1c3.3,0,5.9,2.7,5.9,6v0.9c0,3.1-2.1,5.8-5.1,6.5l-3,0.7 c-7.3,1.7-14.8,2.6-22.3,2.6c-7.4,0-14.8-0.8-22-2.5l-3.5-0.8c-3-0.7-5.1-3.3-5.1-6.5V97z M64,122.9c-2.8,0-5-2.2-5-5s2.2-5,5-5 s5,2.2,5,5S66.8,122.9,64,122.9z"/>
  </g>
</svg>