<svg width="128" height="128" xmlns="http://www.w3.org/2000/svg">
  <g>
    <path d="M73.1,95V94c9.3-2.7,17.6-9.8,21.7-21.3c4.2-1.5,7.3-5.8,7.3-10.8c0-2.3-0.7-4.5-1.8-6.3c0.8-5.6,6-48.4-32.2-51.4 C66.7,4.1,65.4,4,64,4v0h0c0,0,0,0,0,0C21.4,4.3,26.9,49.9,27.7,55.6c-1.1,1.8-1.8,3.9-1.8,6.3c0,5,3.1,9.3,7.3,10.8 C37.4,84.1,45.6,91.2,54.9,94V95c-22.2,1.6-42,9.3-42,24.9v4h102.3v-4C115.1,105.2,95.3,96.8,73.1,95z M95.6,70 c0.8-2.7,1.3-5.6,1.6-8.8c0.7-1.2,1.4-2.5,2-3.4c0.5,1.2,0.8,2.6,0.8,4C100,65.4,98.2,68.4,95.6,70z M28,61.8c0-1.4,0.3-2.8,0.8-4 c0.6,1,1.3,2.3,2,3.5c0.3,3.1,0.9,6,1.6,8.7C29.8,68.4,28,65.4,28,61.8z M42.3,84c-5-5.3-8.2-12.4-9.3-20.8c0.1-1.7,0.3-4,0.4-4.8 c0.9-6.9,2.8-14.9,4.4-19c1-2.8,3.9-4.4,6.8-3.8c4.4,0.8,11.5,1.8,19.4,1.8H64h0.1c7.8,0,14.9-1,19.4-1.8c2.9-0.5,5.8,1.1,6.8,3.8 c1.6,4.2,3.6,12.6,4.4,19.5c0.1,1.1,0.2,2.9,0.3,4.3c-1.2,8.4-4.3,15.5-9.3,20.7C80,90,72.3,93.3,64,93.3S48,90,42.3,84z M64,95.3 c2.4,0,4.8-0.3,7.1-0.8v5.6c0,3.4-2.8,6.2-6.3,6.2h-1.7c-3.5,0-6.3-2.8-6.3-6.2v-5.6C59.2,95,61.6,95.3,64,95.3z"/>
    <path d="M43,52.7c0.1,0,0.2-0.1,0.3-0.1c0.1,0,0.2-0.1,0.3-0.1c0.1,0,0.2-0.1,0.4-0.1s0.3-0.1,0.4-0.1c0.1,0,0.3-0.1,0.4-0.1 c0.1,0,0.2,0,0.2-0.1c0.1,0,0.1,0,0.2,0c0.2,0,0.3-0.1,0.5-0.1c0.3,0,0.7-0.1,1-0.1c0.3,0,0.7,0,1,0c0.3,0,0.7,0,1,0 c0.3,0,0.7,0.1,1,0.1c0.2,0,0.3,0.1,0.5,0.1c0.1,0,0.2,0,0.2,0c0.1,0,0.1,0,0.2,0.1c0.2,0,0.3,0.1,0.4,0.1c0.1,0,0.3,0.1,0.4,0.1 c0.3,0.1,0.5,0.2,0.7,0.2c0.1,0,0.2,0.1,0.3,0.1c0.1,0,0.2,0.1,0.2,0.1c0.3,0.1,0.5,0.2,0.5,0.2l0.3,0.1c0.5,0.2,1,0.1,1.4-0.2 c0.7-0.5,0.9-1.5,0.4-2.2c0,0-0.2-0.2-0.5-0.6c-0.1-0.1-0.2-0.2-0.3-0.3c-0.1-0.1-0.2-0.2-0.3-0.3c-0.1-0.1-0.3-0.2-0.4-0.4 s-0.3-0.2-0.5-0.3c-0.2-0.1-0.3-0.2-0.5-0.4c-0.2-0.1-0.4-0.2-0.6-0.3c-0.2-0.1-0.4-0.2-0.7-0.3c-0.2-0.1-0.5-0.2-0.7-0.3 c-0.5-0.1-1-0.3-1.5-0.4c-0.5-0.1-1.1-0.1-1.6-0.1c-0.5,0-1.1,0-1.6,0.1c-0.5,0.1-1,0.2-1.5,0.4c-0.2,0.1-0.5,0.2-0.7,0.3 c-0.2,0.1-0.4,0.2-0.7,0.3c-0.2,0.1-0.4,0.2-0.6,0.3c-0.2,0.1-0.4,0.2-0.5,0.4c-0.2,0.1-0.3,0.2-0.5,0.3c-0.2,0.1-0.3,0.3-0.4,0.4 c-0.1,0.1-0.3,0.2-0.4,0.3c-0.1,0.1-0.2,0.2-0.2,0.3c-0.2,0.3-0.4,0.5-0.4,0.5c-0.3,0.4-0.4,1-0.1,1.5c0.3,0.8,1.3,1.2,2.1,0.9 c0,0,0.2-0.1,0.6-0.3C42.8,52.8,42.9,52.7,43,52.7z"/>
    <path d="M74.5,53.2l0.3-0.1c0,0,0.2-0.1,0.5-0.2c0.1,0,0.2-0.1,0.2-0.1c0.1,0,0.2-0.1,0.3-0.1c0.2-0.1,0.4-0.2,0.7-0.2 c0.1,0,0.3-0.1,0.4-0.1c0.1,0,0.3-0.1,0.4-0.1c0.1,0,0.2,0,0.2-0.1c0.1,0,0.2,0,0.2,0c0.2,0,0.3-0.1,0.5-0.1c0.3,0,0.7-0.1,1-0.1 c0.3,0,0.7,0,1,0c0.3,0,0.7,0,1,0c0.3,0,0.7,0.1,1,0.1c0.2,0,0.3,0.1,0.5,0.1c0.1,0,0.2,0,0.2,0c0.1,0,0.1,0,0.2,0.1 c0.2,0,0.3,0.1,0.4,0.1c0.1,0,0.3,0.1,0.4,0.1c0.1,0,0.2,0.1,0.4,0.1c0.1,0,0.2,0.1,0.3,0.1c0.1,0,0.2,0.1,0.3,0.1 c0.1,0,0.2,0.1,0.3,0.1c0.4,0.2,0.6,0.3,0.6,0.3c0.5,0.2,1.1,0.2,1.6-0.1c0.7-0.5,0.9-1.5,0.4-2.2c0,0-0.1-0.2-0.4-0.5 c-0.1-0.1-0.1-0.2-0.2-0.3c-0.1-0.1-0.2-0.2-0.4-0.3c-0.1-0.1-0.3-0.2-0.4-0.4c-0.2-0.1-0.3-0.2-0.5-0.4c-0.2-0.1-0.3-0.2-0.5-0.3 c-0.2-0.1-0.4-0.2-0.6-0.3c-0.2-0.1-0.4-0.2-0.7-0.3c-0.2-0.1-0.5-0.2-0.7-0.3c-0.5-0.1-1-0.3-1.5-0.4c-0.5-0.1-1.1-0.1-1.6-0.1 c-0.5,0-1.1,0-1.6,0.1c-0.5,0.1-1,0.2-1.5,0.4c-0.2,0.1-0.5,0.2-0.7,0.3c-0.2,0.1-0.5,0.2-0.7,0.3c-0.2,0.1-0.4,0.2-0.6,0.3 c-0.2,0.1-0.4,0.2-0.5,0.3c-0.2,0.1-0.3,0.2-0.5,0.3c-0.1,0.1-0.3,0.2-0.4,0.3s-0.2,0.2-0.3,0.3c-0.1,0.1-0.2,0.2-0.3,0.3 c-0.3,0.3-0.5,0.6-0.5,0.6c-0.3,0.4-0.4,0.9-0.2,1.4C72.8,53,73.7,53.5,74.5,53.2z"/>
    <ellipse cx="47.4" cy="58.8" rx="4.9" ry="5.1"/>
    <ellipse cx="80.6" cy="58.8" rx="4.9" ry="5.1"/>
    <path d="M64,72.4c2.8,0,4.2-2,4.5-2.7c0.3-0.7-0.1-1.4-0.7-1.6c-0.1,0-0.2-0.1-0.3-0.1h-7.1c-0.1,0-0.2,0-0.3,0.1 c-0.6,0.3-1,0.9-0.7,1.6C59.8,70.4,61.2,72.4,64,72.4z"/>
    <path d="M75.1,78.4c0.8-1.7-1.1-3.3-2.9-2.2C69,78,58.6,78,55.4,76.1c-1.8-1.1-3.7,0.6-2.9,2.2c0.8,1.6,6.5,5.4,11.4,5.4 S74.4,80,75.1,78.4z"/>
  </g>
</svg>