<svg width="128" height="128" xmlns="http://www.w3.org/2000/svg">
  <path d="M122.1,94.4c1.1,0,2-0.9,2-2v-1c0-1.1-0.9-2-2-2h-2V36h1.5c1.3,0,2.4-0.7,2.4-1.8v-0.1c0-1.1-1.1-2.1-2.4-2.1H74.4 c-1.3,0-2.4,1-2.4,2v0.1c0,1.1,1.1,1.8,2.4,1.8H76v20H41.1c0.6,0,1-0.4,1.2-0.9l3.6-11.3c0-0.1,0.1-0.3,0.1-0.4v-6.7 c0-0.7-0.6-1.3-1.3-1.3H31.3c-0.7,0-1.3,0.6-1.3,1.3v6.7c0,0.2,0,0.3,0.1,0.4L33.8,55c0.2,0.6,0.7,1,1.2,1h-6c-2.8,0-5,2-5,4.5V67 c-0.1,0-0.2,0-0.3,0c-2.2,0-4,1.8-4,4s1.8,4,4,4c0.1,0,0.2,0,0.3,0v10.6c0,1.7,1.1,3.2,2.7,3.9H18c-1.1,0-2,0.9-2,2v1 c0,1.1,0.9,2,2,2h1.1L4.4,117.6c-0.6,1.1,0.1,2.4,1.4,2.4h20.7c0.9,0,1.6-0.7,1.6-1.6V118h2c0.4,3.4,3.3,6.1,6.8,6.1 s6.4-2.7,6.8-6.1h2.7c0.4,3.4,3.3,6.1,6.8,6.1s6.4-2.7,6.8-6.1h3c2.9,3.7,7.5,6.1,12.6,6.1c7.5,0,13.8-5.2,15.6-12.1H92 c1.8,7,8,12.1,15.6,12.1c8.9,0,16.1-7.2,16.1-16.1c0-3.9-1.4-7.4-3.6-10.2v-3.4H122.1z M100.3,42.1c0-1.1,0.9-2,2-2h8.2 c1.1,0,2,0.9,2,2V62c0,1.1-0.9,2-2,2h-8.2c-1.1,0-2-0.9-2-2V42.1z M83.5,42.1c0-1.1,0.9-2,2-2h8.2c1.1,0,2,0.9,2,2V62 c0,1.1-0.9,2-2,2h-8.2c-1.1,0-2-0.9-2-2V42.1z M36.8,120c-1.5,0-2.8-1.2-2.8-2.8c0-1.6,1.2-2.8,2.8-2.8c1.6,0,2.8,1.2,2.8,2.8 C39.6,118.8,38.3,120,36.8,120z M53,120c-1.5,0-2.8-1.2-2.8-2.8c0-1.6,1.2-2.8,2.8-2.8c1.5,0,2.8,1.2,2.8,2.8 C55.8,118.8,54.6,120,53,120z M107.5,114.4c-2.8,0-5.2-1.8-6-4.4h-20c-0.8,2.5-3.2,4.4-6,4.4s-5.2-1.8-6-4.4H64 c-0.3,0-0.5-0.1-0.7-0.2l-7.7-4.4c-0.5,1.1-1.5,1.8-2.8,1.8H33.2c-1.7,0-3-1.4-3-3V99c0-1.6,1.3-3,3-3h19.6c1.6,0,3,1.4,3,3v3 l8.6,4.9h4.9c0.5-3,3.1-5.2,6.2-5.2s5.7,2.3,6.2,5.2h19.6c0.5-3,3.1-5.2,6.2-5.2c3.5,0,6.3,2.8,6.3,6.3S111,114.4,107.5,114.4z"/>
</svg>