<svg viewBox="0 0 128 128" xmlns="http://www.w3.org/2000/svg">
  <g>
    <path d="M80.4,18.9c-2.8,0-5.5,0.5-8.2,1.6C60.9,25,55.5,37.9,60.1,49.1c3.4,8.6,11.7,13.8,20.4,13.8 c2.8,0,5.5-0.5,8.2-1.6c11.3-4.6,16.7-17.4,12.1-28.6C97.4,24,89.1,18.9,80.4,18.9z M87.3,57.5c-2.2,0.9-4.4,1.3-6.8,1.3 c-7.4,0-13.9-4.4-16.7-11.2c-3.8-9.2,0.7-19.7,9.9-23.4c2.2-0.9,4.4-1.3,6.8-1.3c7.4,0,13.9,4.4,16.7,11.2 C100.9,43.3,96.5,53.8,87.3,57.5z"/>
    <circle cx="80.4" cy="41" r="7"/>
    <path d="M36,40.9c-2,0-4,0.4-6,1.2c-8.2,3.3-12.1,12.6-8.8,20.8c2.5,6.2,8.5,10,14.8,10c2,0,4-0.4,6-1.2 c8.2-3.3,12.1-12.6,8.8-20.8C48.3,44.7,42.3,40.9,36,40.9z M46.9,61.6c-1.2,2.9-3.6,5.2-6.5,6.4c-1.5,0.6-3,0.9-4.5,0.9 c-4.9,0-9.2-2.9-11.1-7.5c-2.5-6.1,0.5-13.1,6.6-15.6c1.5-0.6,3-0.9,4.5-0.9c4.9,0,9.3,2.9,11.1,7.5C48.2,55.4,48.2,58.6,46.9,61.6 z"/>
    <circle cx="36" cy="57" r="7"/>
    <path d="M64,6.1C32.8,6.1,4,26.1,4,64c0,32.6,21.6,52.1,47.6,56.8c3,2.7,7,4.3,11.4,4.3c0.3,0,0.5,0,0.8,0l3.3-0.2 c0.8,0,1.6-0.2,2.4-0.3c0.1,0,0.2,0,0.4-0.1c3-0.6,5.8-2,8-4c25.3-5.3,46.1-25,46.1-56.5C124,26.6,95.2,6.1,64,6.1z M66.9,120.9 l-3.3,0.2c-0.2,0-0.4,0-0.6,0c-7.1,0-12.8-5.5-13.2-12.6l-1.1-22.7c4.2-1,8.5-2.2,12.8-3.5l0.9,20.9c0.1,1.1,0.9,1.9,2,1.9h0.1 c1.1-0.1,2-1,1.9-2.1l-0.9-22c0.9-0.3,1.7-0.5,2.6-0.8c3.4-1.1,6.7-2.4,10-3.6l1.4,30.5C79.8,114.4,74.2,120.6,66.9,120.9z M103,103.9c-6,5.3-13.3,9.2-21.3,11.5c1.3-2.6,2-5.5,1.8-8.5l-0.2-4.5c15.4-8.1,22.3-23.2,20.4-37.1c-0.3-1.8-1.8-3-3.5-3 c-0.6,0-1.2,0.1-1.7,0.5c-8.8,4.9-19.6,9.7-31.7,13.7c-12,4.1-23.6,6.8-33.5,8.2c-2.5,0.4-3.8,3.1-2.6,5.2 c3.4,5.8,8.6,10.5,14.9,13.5l0.2,5.2c0.1,2.6,0.8,5,2,7.2c-8.6-2.2-16.5-6.2-22.8-11.8C13.9,94.3,8,80.5,8,64s5.9-30.4,17-40.2 c10.1-8.9,24-13.7,39-13.7s28.9,5,39,13.9c11.1,9.8,17,23.6,17,40C120,80.3,114.1,94.1,103,103.9z"/>
  </g>
</svg>