<svg viewBox="0 0 128 128" xmlns="http://www.w3.org/2000/svg">
  <g>
    <path d="M64.5,6.1c-31.2,0-60,20-60,57.9c0,37.7,28.8,57.9,60,57.9s60-20.7,60-57.9C124.5,26.6,95.7,6.1,64.5,6.1z M103.5,103.9c-10.2,9-24.1,14-39,14c-15,0-28.9-4.9-39-13.8c-11.1-9.8-17-23.6-17-40.1c0-16.5,5.9-30.4,17-40.2 c10.1-8.9,24-13.7,39-13.7c15,0,28.9,5,39,13.9c11.1,9.8,17,23.6,17,40C120.5,80.3,114.6,94.1,103.5,103.9z"/>
    <path d="M86.1,33C84,33,81.9,33.4,80,34.1c-0.2,0.1-0.3,0.1-0.4,0.2c-1.4,0.7-2,2.2-1.6,3.6c0.4,1.2,1.6,2.3,3.2,2.3 l0,0l0.1,0c0.1,0,0.2,0,0.3,0l0.2,0c5.5-0.7,11.2,0.5,15.9,3.3c0.5,0.4,1.1,0.5,1.7,0.5c0.5,0,1-0.1,1.4-0.3l0,0 c0.9-0.5,1.6-1.4,1.7-2.3c0.1-1-0.2-2-1-2.7C97.4,34.8,91.8,32.8,86.1,33z"/>
    <path d="M75.8,92c-0.2-1.4-1-2.9-2-4c0,0,0,0-0.1-0.1c0.1-0.1,0.2-0.2,0.4-0.4c0.3-0.3,0.5-0.6,0.7-1 c0.2-0.3,0.4-0.7,0.5-1.1c0.2-0.4,0.3-0.8,0.3-1.2c0.3-1.6,0-3-0.6-4.4c-0.3-0.7-0.7-1.3-1.2-1.9c-0.5-0.5-1-1-1.6-1.4 c-1.1-0.8-2.2-1.2-3.3-1.5c-1.1-0.3-2.1-0.5-3.2-0.6c-0.5-0.1-1-0.1-1.5-0.1l-0.8,0h-0.4H63c-1.9,0-3.5,1.6-3.5,3.5 s1.6,3.5,3.5,3.5l0.3,0l0.1,0l0.3,0l0.5,0c0.4,0,0.7,0,1.1,0c0.7,0,1.4,0.1,2,0.2c0.6,0.1,1.2,0.3,1.5,0.5c0.4,0.2,0.6,0.3,0.7,0.6 c0.1,0.1,0.1,0.2,0.2,0.4c0,0.1,0.1,0.3,0,0.4c0,0.1,0.1,0.2-0.2,0.4c-0.2,0.2-0.7,0.5-1.3,0.7c-0.3,0.1-0.6,0.2-1,0.3 c-0.3,0.1-0.7,0.1-0.9,0.1c-1.1,0.1-2.1,1-2.3,2.2c-0.3,1.5,0.6,2.9,2.1,3.2l0.1,0l0.4,0.1c0.2,0,0.3,0.1,0.5,0.1 c0.3,0.1,0.7,0.2,1,0.4c0.6,0.3,1,0.6,1.3,1c0.3,0.4,0.4,0.6,0.4,1.1c0,0.1,0,0.2,0,0.4c0,0.1,0,0.3,0,0.3c0,0.1,0,0.1,0,0.2 c0,0.1-0.1,0.1-0.1,0.1c-0.1,0.2-1.1,0.9-2.6,1.2c-0.7,0.1-1.5,0.2-2.3,0.3c-0.8,0-1.7,0-2.4,0h0c-0.1,0-0.2,0-0.2,0 c-1.9,0-3.5,1.5-3.5,3.5c0,1.9,1.5,3.5,3.5,3.5c1.2,0,2.2-0.1,3.4-0.2c1.1-0.1,2.2-0.3,3.3-0.7c1.1-0.3,2.3-0.8,3.5-1.5 c1.2-0.7,2.5-1.9,3.2-3.5c0.2-0.4,0.4-0.8,0.4-1.2s0.1-0.8,0.2-1.2c0.1-0.4,0-0.7,0-1.1C75.9,92.7,75.9,92.4,75.8,92z"/>
    <path d="M30.2,43.4c4.6-2.8,10.4-4,15.9-3.3l0.2,0c0.1,0,0.2,0,0.3,0l0.1,0l0,0c1.6,0.1,2.8-1,3.2-2.3 c0.5-1.5-0.2-2.9-1.5-3.6c-0.1-0.1-0.3-0.1-0.4-0.2c-2-0.7-4-1-6.2-1.1c-5.7-0.2-11.3,1.8-15.3,5.5c-0.8,0.8-1.2,1.7-1,2.7 c0.1,1,0.8,1.9,1.7,2.3l0,0c0.5,0.2,0.9,0.3,1.4,0.3C29.1,43.9,29.7,43.8,30.2,43.4z"/>
    <path d="M53.7,58.9c-0.1-0.2-0.2-0.5-0.3-0.9c-0.3-0.8-0.9-1.9-1.8-3.1c-0.9-1.2-2.2-2.5-4-3.5c-0.9-0.5-1.9-1-3-1.2 c-0.6-0.1-1-0.3-1.7-0.3c-0.3,0-0.7-0.1-0.9-0.1l-0.8,0c-1.1,0-2.3,0.2-3.4,0.5c-1.1,0.3-2.1,0.8-3,1.2c-1.8,1-3.1,2.3-4,3.5 c-0.5,0.6-0.8,1.2-1.1,1.7c-0.3,0.5-0.5,1-0.7,1.4c-0.1,0.2-0.2,0.4-0.2,0.5c0,0.1-0.1,0.2-0.1,0.3c-0.1,0.2-0.1,0.3-0.1,0.3 c-0.6,1.8,0.4,3.7,2.2,4.2c1.3,0.4,2.8,0,3.7-1.1c0,0,0.1-0.1,0.2-0.2c0.1-0.1,0.1-0.2,0.2-0.3c0.1-0.1,0.2-0.2,0.3-0.3 c0.2-0.2,0.4-0.4,0.6-0.6c0.2-0.2,0.5-0.5,0.9-0.8c0.6-0.5,1.4-1,2.2-1.4c0.8-0.3,1.6-0.5,2.5-0.5h0.1l0.3,0c0.3,0,0.2,0,0.3,0 c0.1,0,0.3,0.1,0.5,0.1c0.4,0.1,0.8,0.2,1.2,0.4c0.8,0.3,1.6,0.8,2.2,1.4c0.6,0.5,1.2,1.1,1.5,1.5c0.4,0.4,0.6,0.6,0.6,0.6l0.3,0.3 c1.2,1.4,3.3,1.5,4.7,0.3c1-0.9,1.4-2.4,0.9-3.6C53.9,59.2,53.8,59.1,53.7,58.9z"/>
    <path d="M99.2,58.9c0-0.1-0.1-0.2-0.1-0.3c0-0.1-0.1-0.3-0.2-0.5c-0.2-0.4-0.4-0.9-0.7-1.4c-0.3-0.5-0.7-1.1-1.1-1.7 c-0.9-1.2-2.2-2.5-4-3.5c-0.9-0.5-1.9-1-3-1.2c-1.1-0.3-2.2-0.5-3.4-0.5l-0.8,0c-0.1,0-0.6,0-0.9,0.1c-0.7,0.1-1.2,0.2-1.7,0.3 c-1.1,0.3-2.1,0.8-3,1.2c-1.8,1-3.1,2.3-4,3.5c-0.9,1.2-1.5,2.3-1.8,3.1c-0.2,0.4-0.3,0.7-0.3,0.9c-0.1,0.2-0.1,0.3-0.1,0.3 c-0.4,1.2-0.1,2.7,0.9,3.6c1.4,1.2,3.5,1.1,4.7-0.3l0.3-0.3c0,0,0.2-0.2,0.6-0.6c0.4-0.4,0.9-0.9,1.5-1.5c0.6-0.5,1.4-1,2.2-1.4 c0.4-0.2,0.8-0.3,1.2-0.4c0.2,0,0.5-0.1,0.5-0.1c0.1,0,0,0,0.3,0l0.3,0h0.1c0.8,0,1.6,0.2,2.5,0.5c0.8,0.3,1.6,0.8,2.2,1.4 c0.3,0.3,0.6,0.5,0.9,0.8c0.2,0.2,0.5,0.5,0.6,0.6c0.1,0.1,0.2,0.2,0.3,0.3c0.1,0.1,0.1,0.2,0.2,0.3c0.1,0.1,0.2,0.2,0.2,0.2 c0.9,1.1,2.3,1.6,3.7,1.1c1.8-0.6,2.7-2.5,2.2-4.2C99.3,59.1,99.3,59,99.2,58.9z"/>
  </g>
</svg>