<svg width="128" height="128" xmlns="http://www.w3.org/2000/svg">
  <path d="M123.6,59.3V17.4c0.1-7.4-5.9-13.3-13.3-13.3H67.2C66.1,4,64.9,4,63.8,4c-1.1,0-2.3,0-3.4,0.1H17.1c-7.4,0-13.3,6-13.3,13.3 v93.2c0,7.4,6,13.3,13.3,13.3h43.3c1.1,0.1,2.2,0.1,3.4,0.1s2.3,0,3.4-0.1h43.1c7.4,0,13.3-6,13.3-13.3V68.7 c0.1-1.6,0.2-3.1,0.2-4.7S123.7,60.9,123.6,59.3z M6.8,17.4c0-5.7,4.6-10.3,10.3-10.3h27.7c-17.9,6-32.1,20.2-38,38.2V17.4z M17.1,120.9c-5.7,0-10.3-4.6-10.3-10.3V82.7c5.9,18,20.1,32.2,38,38.2C44.8,120.9,17.1,120.9,17.1,120.9z M39.8,62.3L13,48.6 c2.4-8.1,6.9-15.7,13.3-22.1c6.4-6.4,14-10.8,22.1-13.3l13.8,26.9C50.2,40.8,40.7,50.3,39.8,62.3z M48.9,64c0-8.3,6.7-15,15-15 c8.3,0,15,6.7,15,15s-6.7,15-15,15C55.6,79,48.9,72.3,48.9,64z M65.5,88c7-0.5,13-4,17.1-9.1c0.2,0.1,0.5,0.1,0.7,0.1h30.5l0.8,0.4 c-2.4,8.1-6.8,15.8-13.2,22.1c-6.4,6.4-14,10.8-22.1,13.3L65.5,88z M120.6,110.6c0,5.7-4.6,10.3-10.3,10.3H82.8 c17.7-5.9,31.8-19.9,37.8-37.6C120.6,83.3,120.6,110.6,120.6,110.6z M120.6,75.9H84.9c-0.8,0-1.5-0.7-1.5-1.5V53.5 c0-0.8,0.7-1.5,1.5-1.5h35.7V75.9z M120.6,44.7C114.6,27,100.5,13,82.8,7.1h27.5c5.7,0,10.3,4.6,10.3,10.3V44.7z"/>
</svg>