<svg width="128" height="128" xmlns="http://www.w3.org/2000/svg">
  <g>
    <ellipse cx="33.3" cy="59.6" rx="9.2" ry="10.4"/>
    <ellipse cx="94.7" cy="59.6" rx="9.2" ry="10.4"/>
    <path d="M64,64.8c-12.8,0-23.1,11.7-23.1,23s10.3,17.8,23.1,17.8s23.1-6.5,23.1-17.8S76.8,64.8,64,64.8z M61.2,86.8 c0,0.1,0,0.3,0,0.5c-0.1,4.9-1.9,7.8-4.2,8.2c-0.2,0-0.3,0.1-0.5,0.1s-0.3,0-0.5-0.1c-2.3-0.4-4.1-3.2-4.2-8.2c0-0.2,0-0.4,0-0.5 c0-0.1,0-0.3,0-0.5c0.1-4.9,1.9-7.8,4.2-8.2c0.2-0.1,0.3-0.1,0.5-0.1s0.3,0,0.5,0.1c2.3,0.4,4.1,3.2,4.2,8.2 C61.2,86.5,61.2,86.7,61.2,86.8z M76.2,87.3c-0.1,4.9-1.9,7.8-4.2,8.2c-0.2,0-0.3,0.1-0.5,0.1s-0.3,0-0.5-0.1 c-2.3-0.4-4.1-3.2-4.2-8.2c0-0.2,0-0.4,0-0.5c0-0.1,0-0.3,0-0.5c0.1-4.9,1.9-7.8,4.2-8.2c0.2-0.1,0.3-0.1,0.5-0.1s0.3,0,0.5,0.1 c2.3,0.4,4.1,3.2,4.2,8.2c0,0.2,0,0.4,0,0.5C76.2,86.9,76.3,87.1,76.2,87.3z"/>
    <path d="M86.2,9.7c0,1.6,0.1,3.2,0.3,4.8c-6.6-3.2-14.1-5-22.4-5c-8.4,0-15.8,1.8-22.4,5c0.2-1.6,0.3-3.1,0.3-4.8c0,0-4.2,0-9.7,0 c-11.1,0-27.8,0-27.8,0v36.4c3.4,0,6.7-0.4,9.9-1.2C10.8,53.6,9,63,9,72.3C8.8,102.9,29.3,120,64,120s55.2-17.1,55.2-47.6 c0-9.3-1.9-18.8-5.5-27.4c3.2,0.8,6.5,1.2,9.9,1.2V9.7c-1.3,0-17.1,0-27.7,0C90.3,9.7,86.2,9.7,86.2,9.7z M7.3,43V12.7 c5.3,0,16.6,0,24.8,0c3.1,0,5.2,0,6.6,0c-0.7,8.2-4.1,15.6-9.9,21.1C23.1,39.2,15.6,42.4,7.3,43z M116.2,72.4 c0,14.2-4.6,25.3-13.6,33C93.8,113,80.4,117,64,117s-29.8-4-38.7-11.6c-9-7.7-13.6-18.8-13.6-33c0-9.9,2.2-19.8,6.2-28.6 c11.5-4.1,20.3-13.4,23-25.7c6.2-3.3,13.8-5.7,23-5.7c9.3,0,16.9,2.3,23,5.7c2.7,12.3,11.5,21.6,23,25.7 C114.1,52.6,116.2,62.5,116.2,72.4z M120.7,43.1c-8.3-0.6-15.8-3.8-21.5-9.2C93.4,28.4,90,21,89.3,12.8c1.4,0,3.5,0,6.6,0 c8.2,0,19.5,0,24.8,0V43.1z"/>
  </g>
</svg>