<svg width="128" height="128" xmlns="http://www.w3.org/2000/svg">
  <g>
    <path d="M116,4H12c-4.4,0-8,3.6-8,8v104c0,4.4,3.6,8,8,8h104c4.4,0,8-3.6,8-8V12C124,7.6,120.4,4,116,4z M107.8,36h5.6 c1.1,0,2,0.9,2,2l-0.8,35c0,1.1-0.9,1.9-2,2h-4c-1.1,0-2-0.9-2-2l-0.8-35C105.8,36.9,106.7,36,107.8,36z M53.4,72.9h-0.1 c0,5.9-1.9,10.5-5.6,13.9c-3.8,3.4-8.8,5.1-15,5.1c-6.3,0-11.3-1.7-15.1-5.1c-3.7-3.4-5.6-8.1-5.6-14.1V38c0-1.1,0.9-2,2-2h5.6 c1.1,0,2,0.9,2,2v34.9c0,3.7,0.9,6.5,2.8,8.5c1.9,1.9,4.6,2.9,8.3,2.9c7.4,0,11.1-3.9,11.1-11.7V38c0-1.1,0.9-2,2-2h5.6 c1.1,0,2,0.9,2,2V72.9z M96,66.2c-3.6,3-8.5,4.5-14.9,4.5h-9.4c-1.1,0-2,0.9-2,2v16.5c0,1.1-0.9,2-2,2H62c-1.1,0-2-0.9-2-2V38 c0-1.1,0.9-2,2-2h19.1c6.2,0,11.1,1.6,14.7,4.8c3.6,3.2,5.4,7.5,5.4,12.8C101.3,59,99.5,63.2,96,66.2z M114.6,90.3 c-0.9,0.9-2.2,1.4-3.9,1.4s-3-0.5-3.9-1.4c-0.9-0.9-1.3-2.1-1.3-3.5c0-1.4,0.5-2.6,1.4-3.6c0.9-0.9,2.2-1.4,3.8-1.4 c1.6,0,2.9,0.5,3.8,1.4c0.9,0.9,1.4,2.1,1.4,3.6C116,88.2,115.5,89.4,114.6,90.3z"/>
    <path d="M81.4,43.7h-9.8c-1.1,0-2,0.9-2,2V61c0,1.1,0.9,2,2,2h9.5c3.4,0,6-0.8,7.8-2.4c1.8-1.6,2.7-3.9,2.7-7c0-3-0.9-5.4-2.7-7.1 C87.1,44.7,84.6,43.8,81.4,43.7z"/>
  </g>
</svg>