<svg width="128" height="128" xmlns="http://www.w3.org/2000/svg">
  <g>
    <path d="M70,34.4c-0.6,0.1-1,1-0.8,1.9s0.8,1.6,1.4,1.5c0.6-0.1,1-1,0.8-1.9S70.7,34.3,70,34.4z"/>
    <path d="M72.4,32.9c-0.4-0.3-1.1-0.9-2.4-0.8c-1.3,0.1-1.9,0.7-2,1.2c-0.2,0.7,0.3,1.3,1.2,0.7c1.2-0.8,3-0.1,3.4-0.2 C72.9,33.6,72.8,33.2,72.4,32.9z"/>
    <path d="M43.6,35.2c-0.6-0.1-1.3,0.5-1.5,1.5s0.1,1.8,0.7,2c0.6,0.1,1.3-0.5,1.5-1.5C44.5,36.2,44.2,35.3,43.6,35.2z"/>
    <path d="M43.7,32.9c-1.2-0.2-1.9,0.3-2.4,0.6c-0.5,0.3-0.5,0.7-0.3,0.8c0.3,0.2,2.2-0.4,3.4,0.4c1,0.7,1.4,0.1,1.3-0.6 C45.5,33.6,45,33.1,43.7,32.9z"/>
    <path d="M123.8,90.7l-2.7-0.8c-1-0.3-2.1-0.4-3-0.4c-0.7,0-1.2,0-1.2,0l-0.3,0.9c-2.4-1-5.8-2.3-5.8-2.3l-0.2,0.5l-10-4.1l-1-3.3 c0.1,0,0.2-0.1,0.3-0.1c-0.8-2.9-1.5-6.5-2.4-9.2c0.3-0.8,0.4-1.8,0.4-2.8c0.2-5.9-1-12-3.7-17.8c-0.8-1.8-3-6.4-8-6.7 c0.1-0.9,0.4-1.9,0.7-3c0.2-0.5,0.3-1,0.5-1.6c1.3-2.8,4.2-5.2,3.7-13c-0.5-8-8.1-11.6-14.8-10.8c-6.4,0.8-13.1,6-11.3,14.6 c0,0,0.2,0.1,0.4,0.1c0.2,1.1,0.5,2.1,0.9,2.9c0.1,0.1,0.6,1.1,0.7,1.5c0.5,1.2-1.7,3-1.7,4.5c0,1.1,2.4,1.3,2.6,1.5 c0.2,0.2,0.4,0.6,0.6,1c0,0,0,0,0,0c0.1,0.3,0.3,0.7,0.4,1c0,0.1,0.1,0.1,0.1,0.2c0,0,0,0.1,0.1,0.1c0,0,0,0,0,0 c0.6,1.2,1.7,2.5,4.3,2.5c0.4,0,0.9,0,1.4-0.1c1.1-0.2,1.9-0.4,2.5-0.4c0.6,0,1.1,0.2,1.5,0.9l0.1,0.3c-0.1,0.2-0.2,0.4-0.3,0.6 l-3.9,1.4L72,48.5c-0.6,0.1-3.2,0.4-4.6,1.2l-0.3,0c-1.4,0-4.2,0.2-5,0.3c-1.5-0.2-3-0.3-4.1-0.2c-0.9,0-3,0.3-3.9,0.4 c-1.5,0-3.3,0.3-3.9,0.4l-2.9,1.1c-0.3,0.2-0.8,0.5-1,0.9l-8.9-3.2c0-1.6-0.6-2.8-1.7-3.5c0,0,0.1,0,0.1,0c0.6,0,1.5,0.3,2.6,0.5 c0.6,0.1,1.2,0.2,1.8,0.2c2.3,0,3.4-1.1,4-2.3c0,0,0,0,0,0c0-0.1,0-0.1,0.1-0.1c0-0.1,0.1-0.2,0.1-0.2c0.2-0.3,0.3-0.7,0.4-1 c0,0,0,0,0,0c0.2-0.5,0.4-0.8,0.6-1c0.2-0.1,2.6-0.2,2.6-1.3c0.1-1.5-2-3.4-1.5-4.6c0.1-0.3,0.7-1.3,0.7-1.4c0.4-0.7,0.7-1.7,1-2.8 c0.3,0,0.4,0,0.5-0.1c2.2-8.5-4.2-14.1-10.6-15.1c-6.7-1.1-14.4,2.1-15.3,10.1c-0.8,7.9,2,10.4,3.2,13.2c0.1,0.5,0.3,1,0.4,1.5 c0.4,1.4,0.6,2.8,0.6,3.9c-3,1.4-5.4,4.4-6,5.8C18.4,57,16.5,65,16.7,70.9c0,1,0.5,1.9,1.2,2.7c0,1.1,0.3,2,0.5,2.3 c1.3,2.6,3.6,6.8,4.9,9.4c0.3-0.1,0.6-0.3,0.9-0.4c0.1,0.6-0.2,1.2-0.8,1.5L17,89.8L16.7,89L11.3,92c-0.2,0-0.5,0-0.8,0 c-0.9,0-2,0.1-3,0.4l-2.7,0.8c-0.6,0.2-1,0.8-0.8,1.5l4.7,15.1c0.1,0.4,0.5,0.7,1,0.7c0.1,0,0.2,0,0.3,0l1.2-0.4 c1.6-0.5,2.7-1.9,2.8-3.6l0.1-6.3l6-2.4l-0.3-0.7l11.7-4.7c3.6-1.4,5.4-5.5,3.9-9.1l-0.4-0.9l5.2,1.3c0.9,0.2,1.6,0.9,1.9,1.8 l3.4,11.3l-0.5,0.1l1,5.4c-0.2,0.3-1.9,2.3-1.9,4.1l0,2.9c0,0.6,0.5,1.2,1.2,1.2l15.8,0c0.6,0,1-0.5,1-1v-1.3c0-1.7-1-3.1-2.6-3.8 l-6.2-2.1l0.3-6.3l-1.3,0.1l-1.3-17.8l0,0c-0.2-1.2-0.8-2.4-1.8-3.3c-0.6-0.5-1.2-0.8-1.8-1l-0.1,0l-9-3.4l0.4-1.1L34,67.9 c0.1-1.3,0.1-2.5,0.2-3.8c1.1,1.7,2.8,2.9,4.8,3.5l11.2,3.2c0.4,0.4,1,0.5,1.7,0.6c-0.6,0.1-0.9,0.3-1.1,0.5 c-0.1,0.1-0.1,0.4-0.1,0.5c0.2,0.8,1.5,1.1,3.2,1.1c1.3,0,2.9-0.2,4.3-0.5c1.3,0.2,2.7,0.4,3.9,0.4c1.6,0,2.9-0.3,3.2-1.1 c0-0.1,0-0.4-0.1-0.5c-0.2-0.2-0.4-0.4-1.1-0.5l0,0c0.6-0.1,1.1-0.2,1.5-0.5l12.1-3.6c0.1,0,0.2,0,0.3-0.1l0.4-0.1c0,0,0.1,0,0.1,0 c0,0,0.1,0,0.1,0c0.8-0.4,1.5-1,1.9-1.8l0.1-0.1c0.3,1.8,0.5,3.6,0.7,5.7l-5,1.8l0.1,0.3l-7.7,2.7c-3.3,1.2-5,4.8-3.7,8.1l5,14 l-0.7,0.1l1.9,4.2l-5.4,1.8c-1.5,0.6-2.6,2.1-2.6,3.8v1.3c0,0.6,0.5,1,1,1l15.8-0.1c0.6,0,1.2-0.5,1.2-1.2l0-2.8c0-1.9-2-4.1-2-4.1 l-1,0c-0.3-2.2-0.7-5.2-0.7-5.2l-0.5,0.1l-1.5-8c-0.3-1.3,0.4-2.7,1.7-3.2l3.3-1.3l0.5,1.3l5.3-1.9c0.5,0.9,1,1.8,1.5,2.5 c0.3-0.1,0.7-0.3,1-0.4l2,4.9l0,0.1c0.3,0.6,0.6,1.2,1.2,1.8c0.7,0.7,1.5,1.1,2.3,1.4l0,0l0.2,0c0.3,0.1,0.5,0.1,0.8,0.1l12.4,1.7 l-0.3,0.7l6.9,1.5l0.1,6.2c0.1,1.7,1.2,3.1,2.8,3.6l1.2,0.4c0.1,0,0.2,0,0.3,0c0.4,0,0.8-0.3,1-0.7l4.7-15.1 C124.8,91.6,124.4,90.9,123.8,90.7z M76.7,97.6l0.6,4l-5,0l0,0l-1.4-3.1L76.7,97.6z M76.9,84.4c-1.7,0.7-2.7,2.5-2.3,4.3l1.5,8 l-5,0.8L66,83.3c-0.5-1.3-0.5-2.8,0.1-4c0.6-1.3,1.6-2.3,3-2.7l7.8-2.7l3.4,9.2L76.9,84.4z M77.2,44.5c-0.5,0-1,0.1-1.6,0.2 c-0.3,0.1-0.7,0.1-1.1,0.2c-0.5,0.1-0.9,0.1-1.3,0.1c-1.9,0-2.8-0.8-3.3-1.8c0.5-0.2,0.9-0.5,1.3-0.9c0.7-0.7,0-1.3-0.8-0.7 c-0.3,0.2-0.6,0.3-1,0.4c0,0,0,0,0,0c-0.3-0.7-0.5-1.3-1-1.7c-0.2-0.1-0.4-0.2-0.8-0.3c-0.7-0.2-1.2-0.3-1.3-0.5 c0-0.4,0.5-1,0.8-1.5c0.6-1,1.3-2.1,0.9-3.2c-0.1-0.3-0.3-0.8-0.7-1.5l-0.1-0.1c-0.3-0.7-0.6-1.5-0.7-2.4c2.5,0.1,7.6,0.2,9.3,1.5 c2.2,1.8,1.2,5.8,4.1,5.7l0.8-5.4c0,0,3.4,0.2,3,3.7c-0.3,2.2,1.2,4.4,2.3,4.9c-0.4,1.1-0.6,2.2-0.8,3.2c-0.6,0-1.2,0.1-1.8,0.2 c-1,0.2-2,0.6-3,0.9c-0.3,0.1-0.5,0.2-0.7,0.4c0,0,0,0,0-0.1C79,44.9,78.2,44.5,77.2,44.5z M72,49.5l0.1,0L70.6,50l-0.5-0.1 c0,0-0.1,0-0.1,0C70.7,49.7,71.4,49.6,72,49.5z M67.1,50.7l0.4,0c0.1,0,0.3,0,0.4,0c0.2,0,0.5,0,0.8,0c0.5,0,0.9,0,1.1,0.1l0.9,0.2 l0.2,0.1l2,0.6l0.4,0.1c0.6,0.2,0.8,0.4,0.8,0.4c0,0.1-0.5,0.4-1.3,0.4L71,52.1l-0.1,0c0,0-0.1,0-0.1,0c0,0,0,0,0,0l-1.7,0 c-0.1,0-0.3-0.1-0.4-0.1c-0.1,0-0.3-0.1-0.5-0.1c-0.9-0.3-2.3-0.7-3.5-1C65.5,50.8,66.4,50.7,67.1,50.7z M54,51.2 c0.5-0.1,1.4-0.2,2.2-0.2c0.7-0.1,1.3-0.1,1.7-0.1c0.6,0,1.4,0,2.2,0.1c0.5,0,1,0.1,1.6,0.1c0,0,0,0,0.1,0c0,0,0.5,0.2,1.3,0.4 c1,0.3,2.5,0.7,3.7,1.1c0.4,0.1,0.9,0.3,1.2,0.4c0.4,0.1,0.7,0.2,0.9,0.3c0.1,0,0.1,0,0.2,0l1.7,0l1.9,0.5c0.1,0,0.2,0,0.3,0 c1.1,0,1.9-0.5,2.1-1.1c0.1-0.5-0.2-0.9-0.6-1.1c-0.3-0.2-0.7-0.3-0.9-0.4l-0.7-0.2l-0.6-0.2l2.4-0.9l1.5-0.5l1.9-0.7 c-0.2,1.2-0.2,2.8,0.1,4.4l-1.7,3.3l-6.2,1.1c-1.6,0.3-3.2,0.1-4.7-0.6l-2.6-1.3l-1.2-0.6l-4.4-2.1c-0.3-0.2-0.7-0.2-1-0.2 c-0.1,0-0.1,0-0.2,0c-0.3,0-0.7,0.1-1,0.2c-0.1,0-0.2,0-0.2,0.1c-0.7,0.4-1.3,0.7-1.9,0.9c-1.8,0.8-2.7,1.1-3,1.2 c0-0.2,0.1-0.4,0.3-0.5l0.5-0.4l0.8-0.7l1.3-1.2l0.8-0.7C53.9,51.2,53.9,51.2,54,51.2z M60.3,63.9c-0.2,0-0.4-0.1-0.5-0.1 c0.3,0,0.6-0.1,0.7,0C60.4,63.8,60.4,63.8,60.3,63.9z M61.4,63.1c-0.5-0.6-2.1-0.4-3.3,0.1c-1.2-0.4-2.6-0.6-3.1,0 c-0.1,0.1-0.3,0.4-0.1,0.8c-0.4,0-0.7,0-0.9,0c-0.1,0-0.2,0-0.3,0l-9.9-3.3c-1-0.3-1.9-1.1-2.5-2l4.2,0.8v0c0.1,0,0.3,0.1,0.4,0.1 c0.2,0,0.3,0,0.5,0c0.1,0,0.2,0,0.2,0h0c3.2,0,10-1.8,15.2-3.8l3.4,1.7c1.2,0.6,2.5,0.9,3.7,0.9c0.5,0,1,0,1.5-0.1l5.4-1l-1.5,2.8 l-11.7,3.9c-0.1,0-0.2,0-0.3,0c-0.2,0-0.6,0-1,0C61.7,63.6,61.5,63.2,61.4,63.1z M47.7,52.6l2.7-1.1c0.5-0.1,1.2-0.2,1.8-0.3 l-1,0.9C49.9,52.4,48.6,52.5,47.7,52.6C47.7,52.6,47.7,52.6,47.7,52.6z M46.5,53.7c0.1,0,0.2,0.1,0.3,0.1h0c0,0,0,0,0,0 c0,0,0.1,0,0.1,0c0.7-0.1,1.8-0.2,3.1-0.4l-0.1,0.1c-0.2,0.1-0.3,0.3-0.4,0.5c-0.3,0.5-0.3,1.1,0,1.5c0.3,0.4,0.7,0.9,6.1-1.9 c0.5-0.2,1-0.2,1.5,0l3.5,1.7c-0.6,0.2-1.2,0.4-1.8,0.6c-4.9,1.6-9.8,2.7-12.2,2.8v0c-0.1,0-0.2,0-0.3,0h-0.1h0h0 c-0.1,0-0.1,0-0.2,0c-0.1,0-0.1,0-0.2-0.1l-0.1,0c-0.1,0-0.2,0-0.2,0l-4.9-1l-3.4-6.4c0-0.2,0.1-0.4,0.1-0.6L46.5,53.7z M46.4,34.1 l-0.1,0.1c-0.4,0.6-0.6,1.1-0.7,1.4c-0.5,1.1,0.2,2.2,0.8,3.2c0.3,0.5,0.7,1.2,0.7,1.6c-0.2,0.1-0.6,0.3-1.4,0.4 c-0.4,0.1-0.6,0.1-0.8,0.2c-0.5,0.3-0.8,1-1.1,1.7c0,0,0,0,0,0c-0.4-0.1-0.7-0.2-1-0.5C42,41.7,41.3,42.2,42,43 c0.3,0.4,0.8,0.7,1.2,1c-0.5,0.9-1.4,1.6-3.1,1.6c-0.5,0-1-0.1-1.6-0.2c-0.4-0.1-0.7-0.2-1.1-0.2c-0.6-0.1-1.2-0.3-1.7-0.3 c-0.6,0-1.1,0.2-1.5,0.5c-0.8-0.2-1.6-0.5-2.3-0.7c-0.5-0.1-1-0.2-1.4-0.2c-0.8,0-1.7,0.2-2.5,0.4c-0.1-1.1-0.2-2.3-0.6-3.7 c1.1-0.4,2.7-2.6,2.5-4.8C29.7,33,33.1,33,33.1,33l0.5,5.4c2.9,0.2,2-3.8,4.3-5.5c1.7-1.2,6.8-1.1,9.4-1.1 C47,32.7,46.8,33.5,46.4,34.1z M14,99.1l-2-6.4l4.2-2.3l2.7,6.7L14,99.1z M52.4,102.3c-1.1,0-4,0-5.3,0l-0.8-4.5l6.4-0.6 L52.4,102.3z M34.9,80c0.1,0,0.1-0.1,0.2-0.1c0-0.1,0-0.1-0.1-0.2l3-8.1L47,75c0,0,0.1,0,0.1,0c0.6,0.2,1.1,0.5,1.5,0.8 c0.8,0.7,1.3,1.6,1.5,2.7c0,0,0,0.1,0,0.1l1.3,17.6l-4.8,0.5l-3.4-11.5c-0.4-1.2-1.4-2.2-2.6-2.5l-6-1.5L34.6,81L34.9,80z M34.6,83.7c0.6,1.5,0.6,3.1,0,4.6c-0.6,1.5-1.8,2.6-3.3,3.2l-11.7,4.6l-2.2-5.4l6.5-3.4c0.6-0.3,1-0.9,1.2-1.6 c0.1-0.4,0.1-0.9,0-1.3c2.8-1.2,5.6-2.5,8.3-3.8L34.6,83.7z M50.1,69.6C50.1,69.6,50.1,69.6,50.1,69.6l-10.8-3 c-0.8-0.2-1.6-0.6-2.3-1.1c-0.8-0.6-1.5-1.2-2-2.1l-6-9.3c-0.2-0.3-0.4-0.5-0.6-0.8c0,0,0-0.1,0-0.1c-0.3-0.6-0.6-1.6-0.3-2.8 c0.4-1.6,1.9-2.8,3.5-2.9c1-0.1,1.9,0.2,2.7,0.8c0.4,0.3,0.7,0.6,1,1.1c0,0,0,0.1,0.1,0.1c0,0,0.1,0.2,0.1,0.2l0.1,0.2l3.9,7.4 l0.6,1.1l0.2,0.4c0.5,1,1.4,1.8,2.3,2.4c0.3,0.2,0.6,0.3,0.9,0.4l9.9,3.4c0.1,0,0.2,0,0.3,0l0.1,0c0.4,0,1.1,0,1.8-0.1 c0.4,0.3,0.9,0.5,1.4,0.7c0,0,0.1,0,0.1,0c-0.7,0.1-1.5,0.1-1.9,0.1c-0.3,0-1.1-0.1-1.8-0.2c-1.8-0.2-3.3-0.4-3.6,0.4 c-0.1,0.3-0.1,0.6,0.1,0.8c0.1,0.2,0.2,0.3,0.4,0.4c-0.6,0-0.9,0.1-1.1,0.3c-0.1,0.1-0.2,0.3-0.2,0.5c0,0,0,0,0,0 c0.1,0.6,0.7,1,1.5,1.2C50.3,69.4,50.2,69.5,50.1,69.6z M60.9,72.3c0.4-0.1,0.8-0.2,1.1-0.4c0.3,0,0.5,0.1,0.8,0.1 c0.3,0,0.7,0.1,1,0.2C63.3,72.3,62.2,72.4,60.9,72.3z M79.8,64.6c-0.3,0.6-0.8,1.1-1.4,1.4c0,0-0.1,0-0.1,0c0,0,0,0,0,0l-0.3,0.1 c0,0-0.1,0-0.1,0l0.1,0.3c0,0,0,0,0,0l0.1,0.1l-0.3-0.4l-5.1,1.5l-6.3,1.9L64.9,70l-0.7,0.2l-1.5,0.4c-0.1,0-0.2,0-0.4,0 c-0.5,0.2-1.1,0.4-1.8,0.6c-0.2,0.1-0.4,0.1-0.7,0.2l-0.6,0.2c-0.3,0.1-0.6,0.2-0.9,0.2c-0.9,0.2-1.7,0.3-2.5,0.4 c-1.5,0.2-2.8,0.1-3.4,0c0.3-0.1,0.7-0.1,1-0.2c0.4-0.1,0.8-0.1,1.1-0.2c0.7-0.1,1.2-0.3,1.3-0.7c0-0.1,0-0.2,0-0.2 c0-0.6-0.6-0.6-1.7-0.6c-0.5,0-1,0-1.3,0c-0.9,0-1.4-0.1-1.7-0.2c0.2,0,0.4,0,0.6-0.1c0.5,0,1,0,1.3-0.1c1.3,0,1.7-0.1,2-0.3 c0.1-0.1,0.1-0.3,0.1-0.5c-0.1-0.5-0.6-0.5-1.9-0.6c-0.6,0-2.2-0.1-3-0.4c0.5,0,1.3,0.1,1.8,0.1c1.3,0.1,1.7,0.1,2-0.1 c0.1-0.1,0.2-0.2,0.2-0.4c0-0.6-0.5-0.7-1.4-0.9c-0.4-0.1-1.7-0.3-2-0.6c0.5-0.1,1.7,0.1,2.4,0.2c0.8,0.1,1.6,0.2,1.9,0.2 c0.1,0,1.9,0.1,3-0.4c0,0,0,0,0,0c0.4-0.2,0.4-0.5,0.4-0.6c0-0.3-0.2-0.5-0.6-0.7c-0.2-0.1-0.4-0.2-0.7-0.3c-0.1,0-0.1-0.1-0.2-0.1 c-0.4-0.2-1-0.5-1.3-0.7c0,0,0.1,0,0.1,0c0.4,0,1.2,0.1,2.1,0.4c0.2,0.1,0.4,0.1,0.5,0.2c0.1,0,0.2,0.1,0.3,0.1 c0.4,0.1,1,0.3,1.6,0.3c0.8,0.1,1.6,0.2,2,0.1c0,0,0,0,0,0c0,0,0.1,0,0.1,0c0.1,0,0.2,0,0.3,0l8.3-2.8l3.7-1.2 c0.1,0,0.2-0.1,0.3-0.2l1.9-3.7l0.6-1.1l3.2-6.2c0,0,0.1-0.1,0.1-0.1l0,0c0.1,0,0.1-0.1,0.1-0.1c0.6-1,1.6-1.6,2.6-1.8 c0.1,0,0.2-0.1,0.4-0.1c0.5,0,1,0,1.4,0.1c0.5,0.2,1,0.4,1.5,0.8c0.8,0.7,1.3,1.6,1.4,2.7c0.1,0.7-0.1,1.4-0.4,2.1c0,0,0,0.1,0,0.1 c-0.1,0.3-0.3,0.5-0.6,0.9L79.8,64.6z M95.5,92.9c-0.2,0-0.5-0.1-0.7-0.1c0,0,0,0-0.1,0c0,0-0.1,0-0.1,0c-0.8-0.2-1.4-0.6-1.9-1.2 c-0.4-0.4-0.7-0.9-0.9-1.5c0,0,0-0.1,0-0.1c0,0,0,0,0,0l-2-4.9c3-1.1,5.9-2.3,8.8-3.6l1,3.2c0.1,0.3,0.3,0.5,0.6,0.6l10.1,4.1 l-2.1,5.2L95.5,92.9z M111.4,89.4l4.9,2l-1.7,5.4l-5.7-1.2L111.4,89.4z"/>
  </g>
</svg>