<svg viewBox="0 0 128 128" xmlns="http://www.w3.org/2000/svg">
  <g>
    <path d="M98.4,101.6c4.6-16.7,5.7-40.7,5.7-59c0-0.6,1.5-38.5-39.5-38.5S23.9,42,23.9,42.6c0,18.2,1,42.1,5.6,58.7 C19.1,105.4,12,111.7,12,121v3h104v-3C116,112.2,108.9,105.8,98.4,101.6z M56.8,92.9c-8.7-3.1-18.4-11.1-22.3-24.6 c-0.1-2.8-0.2-5.4-0.3-7.6c-0.1-2.9-0.9-13.7,5.2-15.1c22.4-5,35-16.9,35-16.9c3.3,7.2,13.6,14.2,17.3,16.9c3,2.2,2.6,11.2,2.5,15 l-0.5,6.8c-3.6,14-13.7,22.3-22.5,25.5c-2.5,0.9-5,1.4-7.2,1.4C61.8,94.3,59.3,93.8,56.8,92.9z M64.8,106.2h-1.7 c-3.5,0-6.3-2.8-6.3-6.2v-5c2.5,0.8,4.9,1.2,7.1,1.2c2.2,0,4.6-0.4,7.1-1.2v5C71.1,103.5,68.3,106.2,64.8,106.2z"/>
    <path d="M64,72.3c2.8,0,4.2-2,4.5-2.7c0.3-0.7,0-1.3-0.7-1.6c-0.1,0-0.2-0.1-0.3-0.1h-7c-0.1,0-0.2,0-0.3,0.1 c-0.6,0.3-1,0.9-0.7,1.6C59.8,70.4,61.2,72.3,64,72.3z"/>
    <path d="M55,51.4c0.3-0.4,0.4-1,0-1.5c-0.9-1.2-3.1-3-7.2-3s-6.3,1.8-7.2,3c-0.4,0.5-0.3,1.2,0,1.5c0.3,0.3,1,0.7,1.9,0.4 c0.9-0.3,2.5-1.2,5.3-1.2c2.8,0,4.5,0.9,5.3,1.2C54,52,54.7,51.7,55,51.4z"/>
    <path d="M74.9,51.8c0.9-0.3,2.5-1.2,5.3-1.2c2.8,0,4.5,0.9,5.3,1.2c0.9,0.3,1.6,0,1.9-0.4c0.3-0.4,0.4-1,0-1.5 c-0.9-1.2-3.1-3-7.2-3c-4.2,0-6.3,1.8-7.2,3c-0.4,0.5-0.3,1.2,0,1.5C73.3,51.7,74,52,74.9,51.8z"/>
    <path d="M71.7,81.7c0.8,0.5,1.3,0.8,1.6,0.8c0.1,0,0.2,0,0.2-0.1c0.2-0.2,0.1-0.4,0.1-0.5c-0.5-1.7-4.7-5.6-9.9-5.6 c-5.2,0-8.8,4.2-9.3,5.6c0,0.1-0.1,0.3,0.1,0.5c0.2,0.2,0.5,0,1.4-0.6c1.6-1,4.5-2.9,7.9-2.9C67,78.9,69.9,80.7,71.7,81.7z"/>
    <path d="M68.9,84.7c-0.2-0.8-2.5-2.9-5.2-2.9c-2.7,0-4.7,2.2-4.9,2.9c-0.2,0.7,2.1-1.8,4.9-1.8C66.6,82.9,69.2,85.6,68.9,84.7z"/>
    <path d="M47.8,53.8c-2.7,0-4.9,2.3-4.9,5c0,1.5,0.7,2.9,1.7,3.8h6.3c1-0.9,1.7-2.3,1.7-3.8C52.6,56.1,50.4,53.8,47.8,53.8z"/>
    <path d="M80.2,53.8c-2.7,0-4.9,2.3-4.9,5c0,1.5,0.7,2.9,1.7,3.8h6.3c1-0.9,1.7-2.3,1.7-3.8C85.1,56.1,82.9,53.8,80.2,53.8z"/>
  </g>
</svg>