<svg width="128" height="128" xmlns="http://www.w3.org/2000/svg">
  <g>
    <path d="M90.5,91.1c-1,0.1-4,1.4-2.9,2.8c0.2,0.3,0.5,0.4,0.8,0.4c0.3,0,0.6-0.1,0.9-0.2c0.8-0.4,1.5-1,1.9-1.8 c0.2-0.3,0.3-0.7,0.1-1C91.2,91.1,90.8,91,90.5,91.1z"/>
    <path d="M95.5,90.4c0.8-0.1,1.5-0.5,2.1-1c0.3-0.3,0.6-0.8,0.5-1.2c-0.6-1.8-5.2,0.7-3.7,2C94.7,90.5,95.1,90.5,95.5,90.4z"/>
    <path d="M114.5,69.7c0.4-0.1,0.6-0.4,0.8-0.7c0.4-0.7,0.6-1.5,0.5-2.3c0-0.5-0.2-1-0.6-1.2C113.4,64.9,112.5,70.1,114.5,69.7z"/>
    <path d="M115.4,63.8c0.3-0.2,0.4-0.6,0.5-1c0.1-0.8-0.1-1.6-0.5-2.3c-0.2-0.4-0.6-0.8-1-0.8C112.4,59.8,113.7,65,115.4,63.8z"/>
    <path d="M96.7,92.9c-0.6-1.8-5.2,0.7-3.7,2c0.3,0.2,0.7,0.3,1.1,0.2c0.8-0.1,1.5-0.5,2.1-1C96.5,93.8,96.8,93.3,96.7,92.9z"/>
    <path d="M95.3,98.1c0.3,0.2,0.7,0.3,1.1,0.2c0.8-0.1,1.5-0.5,2.1-1c0.3-0.3,0.6-0.8,0.5-1.2C98.4,94.2,93.8,96.7,95.3,98.1z"/>
    <path d="M102,93.5c0.3,0.2,0.7,0.3,1.1,0.2c0.8-0.1,1.5-0.5,2.1-1c0.3-0.3,0.6-0.8,0.5-1.2C105.1,89.7,100.5,92.2,102,93.5z"/>
    <path d="M100,85.2c-0.2,0.2-0.3,0.5-0.2,0.8c0.1,0.2,0.3,0.3,0.5,0.4c0.2,0,0.4,0,0.6,0c0.8-0.1,1.5-0.5,2.1-1 c0.2-0.2,0.4-0.3,0.5-0.6s0.1-0.5,0-0.7C102.8,82.8,100.5,84.5,100,85.2z"/>
    <path d="M98.1,91.2c-0.2,0.2-0.3,0.5-0.2,0.8c0.1,0.2,0.3,0.3,0.5,0.4c0.2,0.1,0.4,0,0.6,0c0.8-0.1,1.5-0.5,2.1-1 c0.2-0.2,0.4-0.3,0.5-0.6c0.1-0.2,0.1-0.5,0-0.7C100.8,88.9,98.6,90.6,98.1,91.2z"/>
    <path d="M103.6,87.8c0.1,0.2,0.3,0.3,0.5,0.4c0.2,0.1,0.4,0,0.6,0c0.8-0.1,1.5-0.5,2.1-1c0.2-0.2,0.4-0.3,0.5-0.6 c0.1-0.2,0.1-0.5,0-0.7c-0.7-1.2-3,0.4-3.5,1.1C103.7,87.2,103.5,87.5,103.6,87.8z"/>
    <path d="M81.5,98.7c-0.6-0.2-1.3,0.2-1.5,0.8c-0.2,0.6,0.2,1.3,0.8,1.5c0.6,0.2,1.3-0.1,1.9-0.4c0.7-0.4,1.5-1,1.3-1.7 c-0.1-0.5-0.7-0.8-1.2-0.8s-1,0.2-1.5,0.5L81.5,98.7z"/>
    <path d="M70.7,104.4c-0.4-0.1-0.9,0-1.3,0.1l0.1,0.1c-0.4,0.1-0.8,0.2-1.2,0.4c-0.4,0.2-0.6,0.6-0.6,1c0,0.5,0.6,0.9,1.1,1 c0.5,0,1-0.2,1.5-0.4c0.6-0.2,1.2-0.7,1.2-1.3C71.5,104.8,71.1,104.5,70.7,104.4z"/>
    <path d="M73.4,100.6c0-0.4-0.4-0.8-0.9-0.8c-0.4-0.1-0.9,0-1.3,0.1l0.1,0.1c-0.4,0.1-0.8,0.2-1.2,0.4c-0.4,0.2-0.6,0.6-0.6,1 c0,0.5,0.6,0.9,1.1,1c0.5,0,1-0.2,1.5-0.4C72.8,101.7,73.5,101.2,73.4,100.6z"/>
    <path d="M75.3,105.9c-0.4-0.1-0.9,0-1.3,0.1l0.1,0.1c-0.4,0.1-0.8,0.2-1.2,0.4c-0.4,0.2-0.6,0.6-0.6,1c0,0.5,0.6,0.9,1.1,1 c0.5,0,1-0.2,1.5-0.4c0.6-0.2,1.2-0.7,1.2-1.3C76.1,106.3,75.7,106,75.3,105.9z"/>
    <path d="M78,97.3c-0.4-0.1-0.9,0-1.3,0.1l0.1,0.1c-0.4,0.1-0.8,0.2-1.2,0.4c-0.4,0.2-0.6,0.6-0.6,1c0,0.5,0.6,0.9,1.1,1 c0.5,0,1-0.2,1.5-0.4c0.6-0.2,1.2-0.7,1.2-1.3C78.9,97.7,78.5,97.4,78,97.3z"/>
    <path d="M76.6,101.6c-0.5,0-1,0.2-1.5,0.5v0.1c-0.3,0.1-0.6,0.3-0.9,0.5c-0.2,0.2-0.4,0.6-0.3,0.9c0.1,0.3,0.3,0.6,0.6,0.7 s0.6,0.1,1,0c0.5-0.1,1.1-0.3,1.5-0.6c0.4-0.3,0.8-0.8,0.7-1.3C77.7,101.9,77.1,101.6,76.6,101.6z"/>
    <path d="M80.3,106c0.4,0,0.8-0.1,1.2-0.3c0.5-0.2,1-0.4,1.5-0.7s0.7-0.9,0.5-1.5c-0.2-0.5-0.8-0.8-1.4-0.8c-0.6,0-1.1,0.2-1.6,0.5 v-0.1c-0.5,0.1-1,0.4-1.3,0.9s-0.3,1.1,0,1.5C79.4,105.9,79.9,106.1,80.3,106z"/>
    <path d="M82.8,109.3c-0.6,0-1.1,0.2-1.6,0.5v-0.1c-0.5,0.1-1,0.4-1.3,0.9c-0.3,0.5-0.3,1.1,0,1.5c0.3,0.3,0.7,0.5,1.1,0.5 s0.8-0.1,1.2-0.3c0.5-0.2,1-0.4,1.5-0.7c0.5-0.3,0.7-0.9,0.5-1.5C84,109.6,83.3,109.3,82.8,109.3z"/>
    <path d="M88.9,109.8c0.4,0,0.8-0.1,1.2-0.3c0.5-0.2,1-0.4,1.5-0.7s0.7-0.9,0.5-1.5c-0.2-0.5-0.8-0.8-1.4-0.8 c-0.6,0-1.1,0.2-1.6,0.5v-0.1c-0.5,0.1-1,0.4-1.3,0.9s-0.3,1.1,0,1.5C88,109.7,88.5,109.8,88.9,109.8z"/>
    <path d="M78.9,113.7c-0.6,0-1.1,0.2-1.6,0.5v-0.1c-0.5,0.1-1,0.4-1.3,0.9s-0.3,1.1,0,1.5c0.3,0.3,0.7,0.5,1.1,0.5 c0.4,0,0.8-0.1,1.2-0.3c0.5-0.2,1-0.4,1.5-0.7c0.4-0.4,0.7-0.9,0.5-1.5C80.1,114,79.4,113.7,78.9,113.7z"/>
    <path d="M81.9,113.8c-0.3,0.5-0.3,1.1,0,1.5c0.3,0.3,0.7,0.5,1.1,0.5s0.8-0.1,1.2-0.3c0.5-0.2,1-0.4,1.5-0.7s0.7-0.9,0.5-1.5 c-0.2-0.5-0.8-0.8-1.4-0.8c-0.5,0-1,0.3-1.6,0.4C82.7,113,82.2,113.3,81.9,113.8z"/>
    <path d="M88.9,114c0.4,0,0.8-0.1,1.2-0.3c0.5-0.2,1-0.4,1.5-0.7s0.7-0.9,0.5-1.5c-0.2-0.5-0.8-0.8-1.4-0.8c-0.6,0-1.1,0.2-1.6,0.5 v-0.1c-0.5,0.1-1,0.4-1.3,0.9s-0.3,1.1,0,1.5C88,113.9,88.5,114.1,88.9,114z"/>
    <path d="M93.5,110.5c0.4,0.2,0.9,0.1,1.2-0.1c0.4-0.2,0.7-0.5,1-0.8c0.4-0.4,0.8-0.8,1-1.3s0.2-1.1-0.2-1.5s-1.1-0.4-1.6-0.2 c-0.5,0.3-0.9,0.7-1.3,1.1v-0.1c-0.4,0.3-0.8,0.8-0.8,1.4C92.8,109.7,93,110.2,93.5,110.5z"/>
    <path d="M117.3,91.9c-0.6-0.1-1.1,0.3-1.4,0.9c-0.2,0.5-0.3,1.1-0.3,1.7l-0.1-0.1c-0.1,0.5-0.1,1.1,0.2,1.6s0.8,0.8,1.4,0.7 c0.4-0.1,0.8-0.4,0.9-0.8c0.2-0.4,0.2-0.8,0.3-1.2c0.1-0.5,0.2-1.1,0-1.6C118.1,92.6,117.9,92,117.3,91.9z"/>
    <path d="M114.4,83.4c0.3,0.4,0.9,0.5,1.3,0.3c0.3-0.2,0.5-0.5,0.6-0.9c0.1-0.4,0-0.7,0-1.1c0-0.5-0.1-1-0.3-1.4 c-0.2-0.4-0.7-0.8-1.1-0.7c-0.5,0-0.9,0.5-1,1c0,0.5,0.1,1,0.1,1.5S114.1,83.1,114.4,83.4z"/>
    <path d="M116,89.7c0.1-0.5,0.2-0.9,0.1-1.4c-0.1-0.5-0.4-0.9-0.9-1s-1,0.3-1.2,0.7c-0.2,0.4-0.3,1-0.3,1.5h-0.1 c-0.1,0.5-0.1,1,0.1,1.4c0.2,0.4,0.7,0.7,1.2,0.6c0.4-0.1,0.7-0.3,0.8-0.7C115.8,90.4,115.9,90,116,89.7z"/>
    <path d="M119.2,85.8c-0.6-0.1-1.1,0.3-1.4,0.9c-0.2,0.5-0.3,1.1-0.3,1.7l-0.1-0.1c-0.1,0.5-0.1,1.1,0.2,1.6 c0.3,0.5,0.8,0.8,1.4,0.7c0.4-0.1,0.8-0.4,0.9-0.8c0.2-0.4,0.2-0.8,0.3-1.2c0.1-0.5,0.2-1.1,0-1.6S119.7,85.9,119.2,85.8z"/>
    <path d="M118.5,83.6c0.4,0.4,1,0.5,1.5,0.2c0.4-0.2,0.6-0.6,0.6-1.1c0-0.4,0-0.9-0.1-1.3c-0.1-0.5-0.2-1.1-0.5-1.5 c-0.3-0.4-0.8-0.8-1.4-0.7c-0.6,0.1-0.9,0.7-1,1.3c0,0.5,0.2,1.1,0.2,1.6C117.9,82.6,118.1,83.2,118.5,83.6z"/>
    <path d="M115.5,78.1c0.5,0.3,1.1,0.4,1.5,0c0.3-0.3,0.5-0.7,0.5-1.1s-0.1-0.9-0.2-1.3c-0.2-0.5-0.3-1-0.7-1.5 c-0.4-0.4-0.9-0.7-1.4-0.5c-0.6,0.2-0.9,0.8-0.9,1.4c0,0.5,0.3,1.1,0.4,1.6C114.8,77.2,115.1,77.7,115.5,78.1z"/>
    <path d="M76.2,85.4c2.4-0.6,3.8-2.2,3.8-2.2l-0.6-3L76.2,85.4z"/>
    <path d="M81.4,82.4c2.4-0.6,3.8-2.2,3.8-2.2l-0.6-3L81.4,82.4z"/>
    <path d="M90.4,77l-0.6-3l-3.2,5.2C89,78.6,90.4,77,90.4,77z"/>
    <path d="M92.8,75c2.2-1.1,3.3-2.9,3.3-2.9l-1.2-2.8L92.8,75z"/>
    <path d="M100.2,66.8l-1.7-2.5l-0.9,6C99.5,68.8,100.2,66.8,100.2,66.8z"/>
    <path d="M74,78.6l-0.6-3l-3.2,5.2C72.6,80.2,74,78.6,74,78.6z"/>
    <path d="M79.6,75.3l-0.6-3l-3.2,5.2C78.2,76.9,79.6,75.3,79.6,75.3z"/>
    <path d="M95.1,62l-1.7-2.5l-0.9,6C94.5,64,95.1,62,95.1,62z"/>
    <path d="M101.2,64.3c2-1.5,2.7-3.5,2.7-3.5l-1.7-2.5L101.2,64.3z"/>
    <polygon points="47.7,35.2 44.8,37.1 49,38.3 "/>
    <polygon points="42.7,31 39.3,31.2 42.4,34.3 "/>
    <polygon points="79.9,41.1 77.3,43.4 81.7,44 "/>
    <polygon points="88.6,42.5 85.7,44.3 89.9,45.6 "/>
    <polygon points="96.2,44.2 93.3,46.1 97.6,47.2 "/>
    <polygon points="101.5,47.8 98.3,49 102.3,51 "/>
    <polygon points="101,54.9 104.2,56.4 103.8,52.8 "/>
    <polygon points="54.2,44.5 58.5,45.8 57.2,42.7 "/>
    <polygon points="48.2,42.4 52.4,43.7 51.1,40.6 "/>
    <polygon points="43.5,39.1 43.8,35.8 40.4,35.9 "/>
    <polygon points="60,46.5 64.4,47 62.6,44.2 "/>
    <polygon points="65.5,47.3 69.9,47.8 68.1,45 "/>
    <polygon points="72.6,48 77,48.5 75.2,45.7 "/>
    <polygon points="79.7,49 84.1,49.5 82.2,46.7 "/>
    <polygon points="85.8,50.2 90.1,51.4 88.7,48.3 "/>
    <polygon points="94.6,50.1 91.4,51.4 95.3,53.4 "/>
    <polygon points="93.8,56.2 95.9,59.2 96.4,55.2 "/>
    <path d="M120.7,74l-0.7-0.9c-0.4-0.5-0.9-1-1.4-1.5c0-0.3,0.1-0.5,0.1-0.8c0.6-6.3-0.8-12.5-3.9-17.3c-3.9-6-10.8-10.5-19.4-12.7 C89,39.3,82.5,39,76.1,38.7c-1.1,0-2.1-0.1-3.2-0.1c-6.6-0.3-14.3-0.9-21.1-3.8c-2.6-1.1-4.3-2.3-5.6-3.7c-1.4-1.6-2.2-3.6-1.9-5.4 s1.6-3.2,3-4.8l0.1-0.1c0.2-0.3,0.5-0.5,0.9-0.8c1.6-1.6,3.2-3,2.4-4.8c-0.3-0.7-1.1-1.6-3-1.4C42,14.1,36.3,20.9,35,25.2 c-2.1,7.1-0.5,13.9,4.3,17.7C50.1,51.7,62.6,53,72.6,54.1c5.8,0.6,10.8,1.2,13.7,3c1.7,1.1,2.9,2.8,2.9,3.5c0,0.8-0.4,1.7-0.9,2.5 c-0.7-0.6-1.6-1.1-2.6-1.3c-3.3-0.8-6.4,1.1-8.2,3.1c-1.3,1.5-3.8,4.9-3.8,7.3c0,0.2,0,0.4,0.1,0.5c-1.1,0.5-2.2,1-3.2,1.5 c-1.9,0.9-4.1,1.5-6.3,2.2c-0.5,0.1-1,0.3-1.5,0.4c-0.1,0-0.1-0.1-0.2-0.1c-0.6-0.4-1.2-0.7-1.7-1c-0.4-0.2-0.8-0.4-1.2-0.6 c-0.9-0.4-2-0.7-3.4-0.9c-1-0.8-2.3-1.3-3.8-1.3c-1.4,0-2.8,0.5-3.8,1.3c-2.1,0.5-4.1,1.3-5.9,2.3c-1-2.1-3-3.5-5.5-3.5 c-3.3,0-6,2.7-6,6c0,1.1,0.3,2.2,0.9,3.1c-3.5,1.3-7.2,2-11.3,2.7c-1.5,0.3-3,0.6-4.6,0.9c-1.6,0.3-3.3,0.2-4.8,0.1 c-2.5-0.1-4.8-0.3-6,1.6c-1.7,2.6-2.6,7.3,0.3,9.3c2.2,1.5,5.8,1,8.9,0.5c1-0.1,2-0.3,2.6-0.3c6.4-0.1,10.4,0.5,13.1,1.3l-0.9,1.7 l-1-2.1c-1.3,0-2.6,0-3.9,0l-0.9,1.6L22.5,98c-0.8,0-1.6,0.1-2.4,0.2c-0.2,0-0.5,0.1-0.7,0.1l-0.6,1.1l-0.5-1 c-1.1,0.2-2.2,0.3-3.2,0.5l-0.4,0.8L14.4,99c-1.4,0.2-2.7,0.3-3.7,0.3l-0.1,0.2c-0.2-0.1-0.5-0.1-0.7-0.2v-0.1c-0.2,0-0.3,0-0.5,0 C9,99.1,8.6,99,8.2,99c-1.9-0.4-3.4-0.1-3.8,0.7c-0.1,0.2-0.1,0.3-0.1,0.5c-0.3,0.6-0.3,1.3,0.1,2c0.7,1.3,2.3,1.9,5.1,2.8h0.1 c13.7,4.8,24.2,4.4,37.5,3.4c1.6-0.1,3.1-0.5,4.6-0.8c1.1-0.3,2.1-0.5,3.1-0.6c0.9-0.1,2-0.2,3,0c0.8,0.2,1.6,0.7,2.6,1.5 c0.2,0.1,0.3,0.3,0.5,0.5c0.3,0.3,0.7,0.7,1.1,1c0.5,0.3,1,0.6,1.7,0.9c0.4,0.2,0.8,0.3,1.3,0.4l-3.6,2.7c-0.7,0.5-1,1.4-0.7,2.2 c0.2,0.4,0.5,0.8,0.8,1c-0.5,0.8-0.5,1.5-0.2,2.1c0.3,0.7,1.1,1.4,2.5,1.2c0.2,0,0.5-0.1,0.7-0.1c-0.6,1.6-0.5,2.6,0.5,3.3 c0.2,0.2,1.6,0.9,2.9-0.6c0.2-0.2,0.4-0.4,0.6-0.7c0.1,0.9,0.5,1.3,0.9,1.6c0.3,0.3,0.8,0.5,1.4,0.5c0.4,0,0.9-0.1,1.3-0.4 c0.6-0.4,1.1-0.9,1.7-1.5c0.9-1,1.8-2,3.5-2.3c0.6-0.1,1.7-0.3,3-0.4c5.3-0.7,13.2-1.7,17-5.7c2.4-2.6,4.4-5.2,3.4-8.8v-0.1 c0-0.1-0.1-0.1-0.1-0.2c-0.4-1.1-1-2.2-1.9-3.5c2.7-1.7,5.3-3.8,7.6-6c-0.1,0.2-0.1,0.5-0.2,0.7c-0.6,2.5-0.5,4.6,0.4,5.7 c0.5,0.6,1.1,1,1.8,1c0.4,0,0.7-0.1,1-0.2c0.6,0.7,1.3,0.9,1.7,0.9c0.7,0,1.2-0.2,1.6-0.6c0.4,0.3,0.9,0.4,1.4,0.4 c0.4,0,1.2-0.2,1.8-0.9c0.3,0.2,0.7,0.4,1.2,0.5c0.3,0.1,0.5,0.1,0.8,0c0.7-0.1,1.6-0.6,1.9-2.3c0.4-2.3,1.1-4.7,2-7.3 c1.2-3.8,2.5-7.7,2.5-11.7C124.1,78,122.8,76.5,120.7,74z M79,66.3c1.5-1.7,3.4-2.6,5.2-2.6c0.4,0,0.7,0,1,0.1 c0.7,0.2,1.3,0.5,1.8,0.9c-2.5,2.6-6.9,5-11.3,7.1C76.1,70.2,77.8,67.7,79,66.3z M52.4,74.4c2.7-0.1,4.8,2.1,4.8,4.8 c0,2.7-2.1,4.8-4.8,4.8c-2.7,0-4.8-2.1-4.8-4.8S49.8,74.4,52.4,74.4z M37.2,74.5c1.9,0,3.5,1.2,4.2,2.8c-0.7,0.4-1.4,0.8-2.1,1.2 c-0.3-1-1.1-1.7-2.2-1.7c-1.3,0-2.3,1-2.3,2.3c0,0.6,0.2,1.2,0.6,1.6c-0.7,0.4-1.5,0.7-2.2,1c-0.3-0.7-0.7-1.5-0.7-2.5 C32.5,76.6,34.6,74.5,37.2,74.5z M117.7,100.1c0,0.2-0.1,0.7-0.4,0.7c-1.2-0.2-1.1-2.2-1.5-2.6c-0.4-0.3-0.6-0.1-1,0.3 c-0.3,0.3-0.4,1.1-0.4,1.6c0,0.4-0.1,1-0.5,1.1c-0.6,0-1-0.9-0.9-1.5c0.1-0.6,0.1-1.4-0.5-1.6c-0.6-0.2-0.8,3.4-1.5,3.3 c-0.5,0-0.7-0.9-0.6-2c0-0.7,0.2-1.6,0-1.9c-0.7-0.2-1,0.5-1.1,1.3c-0.1,0.7-0.3,1.9-1,1.9c-0.5,0-1.1-1.3-0.4-4.3 c0.4-1.7,0.7-2.8,1-4c1.6-2.2,1.8-5.3,0.6-7.7c-0.7-1.3-1.7-2.4-2.6-3.4c-0.4-0.5-0.8-0.9-1.2-1.4c-0.5-0.6-2.1-2.7-1.4-4.4 c0.2-0.5-0.1-1.1-0.6-1.3s-1.1,0.1-1.3,0.6c-0.8,1.9-0.1,4.3,1.7,6.5c0.4,0.5,0.9,1,1.3,1.5c0.9,1,1.8,1.9,2.3,2.9 c0.8,1.7,0.7,3.8-0.2,5.4c-3.2,3.8-7,7-11.3,9.5c-3.5-2.7-8.7-4.9-13.8-4.5c-0.6,0-1,0.5-0.9,1.1c0.1,0.6,0.5,1,1.1,0.9 c7.9-0.6,15.3,5.8,16.1,8.2c0,0.1,0.1,0.2,0.2,0.3c0.2,2.3-1.2,4-3.1,6.1c-4.2,4.4-15.6,4.8-19,5.6c-3.4,0.7-4.5,3.3-5.8,4.1 c-1.4,0.9,0-3.5,0.5-4.8s-3.7,2.6-5.1,4.2c-1.4,1.6,1.6-4.4,1.6-4.4s-2.8,1-4.5,1.2c-1.7,0.3,2.6-3.2,2.6-3.2l-3.5,0.1l4-3 c0,0,0.6-0.2,1.9-0.5c0.1,0,0.1,0,0.2,0c3.1,0,6.4-0.8,10-2.4c0.5-0.2,0.7-0.8,0.5-1.3c-0.2-0.5-0.8-0.7-1.3-0.5 c-2.2,1-4.3,1.6-6.3,2c0,0-0.1,0-0.2,0c-1,0-2.2,0.1-3.1,0c-2.7-0.2-4.7-0.9-6.6-2.8c-0.2-0.2-0.4-0.4-0.6-0.5 c-4-3.5-9.6-0.4-14.1,0c-12.8,1-22.9,2.3-36-2l1.5-3l1.5,3c0.6-0.1,1.2-0.1,1.8-0.2l1.2-3.2l1.7,2.7c0.5-0.1,1.1-0.2,1.8-0.3 l0.9-3.1l1.9,2.7c0,0,1.2-0.1,2.1-0.2l1.3-3.1l1.7,2.9c0,0,1.7,0,3,0.1l1.5-3l1.4,3c1.5-0.2,2.9-0.6,4.1-1.2v-3.3l2.3,1.8 c1.2-0.9,2.2-2,2.9-3c1.9-2.8,9.3-4.8,9.3-4.8s0.1-0.5-1-0.9c-0.1,0-0.1,0-0.2,0c-0.6-0.1-1.6-0.2-3-0.1c-1.4,0-2.6,0.2-3.6,0.9 h0.2c-0.1,0-0.2,0.1-0.4,0.1c0.1,0,0.1-0.1,0.2-0.1L19,95c-5.5,0.1-10.1,1.5-12.2,0.1c-1.8-1.2-1-4.8,0.2-6.6 c1.1-1.7,5.4-0.1,9.6-0.9c8.8-1.8,15.3-2.2,22.7-6.8c2.4-1.5,4.9-3.1,7.7-4.1c-0.4,0.8-0.7,1.8-0.7,2.8c0,3.4,2.8,6.2,6.2,6.2 s6.2-2.8,6.2-6.2c0-1.1-0.3-2.2-0.8-3.1c1.9,0.5,2.9,1.3,4.7,2.4c0.3,0.2,0.5,0.4,0.8,0.7c0.6,0.5,1.1,0.9,1.6,1.3l0.3,0.2 c1.9,1.5,5.6,4.2,7.3,4.8c0.1,0,0.1,0,0.2,0c0.3,0,0.5-0.2,0.6-0.5c0.1-0.3-0.1-0.7-0.4-0.8c-1.6-0.5-5.2-3.2-7-4.6l-0.3-0.2 c-0.5-0.3-1-0.8-1.5-1.2l-0.1-0.1c2.6-0.8,5.1-1.4,7.4-2.5c5-2.3,9.8-4.6,13.5-7.1L81.8,74c2.4-0.6,3.8-2.2,3.8-2.2l-0.6-3 c1.9-1.3,3.5-2.7,4.6-4.1l-2,5.3c2.2-1.1,3.3-2.9,3.3-2.9l-1.1-2.7c0.9-1.2,1.4-2.5,1.4-3.8c0.1-1.9-2-4.1-3.8-5.3 c-8.6-5.5-30-0.5-46.9-14.1c-4.6-3.7-5.3-10-3.6-15.6c1.2-4,6.5-9.9,10.9-10.1c2.8-0.2-0.4,2.3-1.8,3.8c-1.7,1.8-3.3,3.4-3.7,6 c-0.4,2.5,0.7,5.1,2.4,7c1.7,1.9,3.9,3.2,6.3,4.2c0.8,0.3,1.6,0.6,2.4,0.9l-2.8,1.8l4.2,1.2l-1.2-2.9c1.7,0.6,3.4,1,5.2,1.4l-2.3,2 l4.4,0.6L59.5,39c2,0.4,4.1,0.7,6.2,0.9l-2.2,2l4.4,0.6L66.2,40c2.2,0.2,4.4,0.4,6.6,0.5l-2.5,2.2l4.4,0.5l-1.7-2.7 c7.3,0.4,14.8,0.5,21.9,2.3c7.2,1.8,14.2,5.6,18.3,11.8c3,4.7,4.2,10.5,3.6,16c-0.1,0.6-0.1,1.2-0.2,1.8c-2.1-1.2-4.4-1.6-6.9-1.6 l9.6,4.4c2,2.4,2.8,3.5,2.8,6.5C122,87.7,118.6,94.1,117.7,100.1z M34,97.3c0.8-0.2,1.7-0.5,2.6-0.8h0.1l-1.6,3L34,97.3z M38.8,95.5l2.9-1l-0.5,3.4L38.8,95.5z"/>
    <path d="M52.4,81c1.3,0,2.3-1.1,2.3-2.3c0-1.3-1.1-2.4-2.3-2.4c-1.3,0-2.4,1.1-2.4,2.4C50,79.9,51.1,81,52.4,81z"/>
  </g>
</svg>