<svg width="128" height="128" xmlns="http://www.w3.org/2000/svg">
  <g>
    <path d="M118.9,80l0.2-0.7l1-3.2V76l-0.1-4h-4.9l-3.9-11.6c-0.5-1.3,0.4-2.7,1.6-2.7h3c0.8,0,1.3-0.8,1-1.6l-2.2-5.3 c-0.4-1.1-1.4-1.8-2.5-1.8H109v-4h1.5c1.1,0,2.5-0.6,2.5-1.8v-0.3c0-1-1.2-1.9-2.1-1.9H73.2l-0.8-1.6c-0.3-0.7,0.2-1.4,0.9-1.4h6.6 c4.1,0,4.1-6.6,0.6-6.6c0,0-10.7,0-19,0L60.2,28c-0.9-2-1.4-5.5-5.7-5.5H36.7c-1.4,0-2.5,1.2-2.6,2.7c0,1.5,1.1,2.8,2.6,2.7 l3.3-0.1l-10.4,15c0.1-0.1,0.1-0.1,0.2-0.2c-2.4,2.7-5.2,6-7.6,9.6c-3.7,5.4-5.8,11.8-6.4,18.5L15.7,72H8v4l1.3,4H4v44h120V80 H118.9z M98,45h7v4.1h-7V45z M86,45h8v4.1h-8V45z M83,45v4.1h-4.3c-0.9,0-1.7-0.6-2-1.4L75.3,45H83z M43.3,29 c0.4-0.6,1.1-0.9,1.8-0.9c2.3,0.2,5.9,0.8,9.4,3.3c-1.4,0-2.3,0-2.6,0c-1.8,0-3.8,0.5-6.6,1.2c-2,0.5-4,1.3-5.8,2.3 C41.3,32.1,43.3,29,43.3,29z M17.8,70.8c0.6-6.4,2.7-12.5,6.1-17.5c2-3,4.5-6.1,7.4-9.4c4.3-4.8,9.4-8.1,14.5-9.4l0.2-0.1 c2.5-0.6,4.4-1.1,5.9-1.1c1.8,0,28.7,0,28.7,0c0.5,0,0.5,1.1,0.5,1.1c0,0.4-0.1,0.9-0.3,1.1c-0.1,0.2-0.3,0.3-0.8,0.3h-6.6 c-1,0-1.9,0.5-2.4,1.3c-0.6,0.8-0.7,1.9-0.3,2.9c0,0.1,0,0.1,0.1,0.2l4.2,8.2c0.7,1.6,2.2,2.6,3.9,2.6l33.4-0.1 c0.3,0,0.5,0.2,0.6,0.5l1.7,4.2h-1.7c-1.2,0-2.4,0.6-3.1,1.7c-0.7,1.1-0.9,2.4-0.4,3.7l3.6,11H17.7L17.8,70.8z M118,76.1l-1,3.2 H11.2l-1.1-3.2H118z M121,121H7V83h3.4l1.7,5.1L116.3,88l1.6-5h3.1V121z"/>
    <path d="M42,42.8h-4.1c-1.1,0-2,0.9-2,2v4c0,1.1,0.9,2,2,2H42c1.1,0,2-0.9,2-2v-4C44,43.7,43.1,42.8,42,42.8z"/>
    <path d="M54,42.8h-4.1c-1.1,0-2,0.9-2,2v4c0,1.1,0.9,2,2,2H54c1.1,0,2-0.9,2-2v-4C56,43.7,55.1,42.8,54,42.8z"/>
    <path d="M62,50.8h4c1.1,0,2-0.9,2-2v-4c0-1.1-0.9-2-2-2h-4c-1.1,0-2,0.9-2,2v4C60,49.9,60.8,50.8,62,50.8z"/>
    <path d="M35,57.4h-4.6c-1.1,0-2,0.9-2,2v6.7c0,1.1,0.9,2,2,2H35c1.1,0,2-0.9,2-2v-6.7C37,58.3,36.1,57.4,35,57.4z"/>
    <path d="M97.8,57.4h-4.6c-1.1,0-2,0.9-2,2v6.7c0,1.1,0.9,2,2,2h4.6c1.1,0,2-0.9,2-2v-6.7C99.8,58.3,98.9,57.4,97.8,57.4z"/>
    <path d="M50.7,57.4h-4.6c-1.1,0-2,0.9-2,2v6.7c0,1.1,0.9,2,2,2h4.6c1.1,0,2-0.9,2-2v-6.7C52.7,58.3,51.8,57.4,50.7,57.4z"/>
    <path d="M66.4,57.4h-4.6c-1.1,0-2,0.9-2,2v6.7c0,1.1,0.9,2,2,2h4.6c1.1,0,2-0.9,2-2v-6.7C68.4,58.3,67.5,57.4,66.4,57.4z"/>
    <path d="M82.1,57.4h-4.6c-1.1,0-2,0.9-2,2v6.7c0,1.1,0.9,2,2,2h4.6c1.1,0,2-0.9,2-2v-6.7C84.1,58.3,83.2,57.4,82.1,57.4z"/>
  </g>
</svg>