<svg viewBox="0 0 128 128" xmlns="http://www.w3.org/2000/svg">
  <g>
    <path d="M69.7,55.9h-7.8c-1,0-1.8,0.7-2,1.6l-2.3,12.6c-0.2,1.2,0.7,2.4,2,2.4h7.8c1,0,1.8-0.7,2-1.6l2.3-12.6 C71.9,57,70.9,55.9,69.7,55.9z"/>
    <path d="M116,4H12c-4.4,0-8,3.6-8,8v104c0,4.4,3.6,8,8,8h104c4.4,0,8-3.6,8-8V12C124,7.6,120.4,4,116,4z M93.6,53.9L93.6,53.9 c-0.1,1.1-1,2-2.1,2h-8.9c-1,0-1.8,0.7-2,1.6l-2.3,12.6c-0.2,1.2,0.7,2.4,2,2.4h7.2c1.1,0,2,0.9,2,2v4.3c0,1.1-0.9,2-2,2h-9.6 c-1,0-1.8,0.7-2,1.6l-3.4,18.3c-0.2,1-1,1.6-2,1.6h-4.7c-1.2,0-2.2-1.1-2-2.4L67,83.2c0.2-1.3-0.7-2.4-2-2.4h-7.7 c-1,0-1.8,0.7-2,1.6l-3.4,18.4c-0.2,0.9-1,1.6-2,1.6h-4.8c-1.2,0-2.2-1.1-2-2.4l3.1-16.9c0.2-1.2-0.7-2.4-2-2.4h-7.8 c-1.1,0-2-0.9-2-2v-4.3c0-1.1,0.9-2,2-2h10.1c1,0,1.8-0.7,2-1.6L51,58.3c0.2-1.2-0.7-2.4-2-2.4h-8.4c-1.1,0-2-0.9-2-2v-4.3 c0-1.1,0.9-2,2-2h10.7c1,0,1.8-0.7,2-1.6l3.5-18.7c0.2-1,1-1.6,2-1.6h4.7c1.2,0,2.2,1.1,2,2.4l-3.2,17.2c-0.2,1.2,0.7,2.4,2,2.4H72 c1,0,1.8-0.7,2-1.6l3.5-18.7c0.2-0.9,1-1.6,2-1.6h4.7c1.2,0,2.2,1.1,2,2.4L83,45.4c-0.2,1.2,0.7,2.4,2,2.4h6.6c1.1,0,2,0.9,2,2 V53.9z"/>
  </g>
</svg>