<svg viewBox="0 0 128 128" xmlns="http://www.w3.org/2000/svg">
  <g>
    <path d="M116.46,3.96h-104c-4.42,0-8,3.58-8,8v104c0,4.42,3.58,8,8,8h104c4.42,0,8-3.58,8-8v-104 C124.46,7.54,120.88,3.96,116.46,3.96z M80.86,91.46c-4.1,4.3-9.4,6.4-16,6.4c-6.37,0.2-12.46-2.57-16.5-7.5 c-4.2-5-6.3-11.6-6.3-19.7v-3.9c0-11.9,2.9-21.2,8.7-28c5.5-6.4,12.6-9.8,24.1-10.1c1.02-0.01,1.86,0.79,1.9,1.8 c0,0.1,0.2,6.3,0.2,6.3c0.02,0.76-0.58,1.38-1.34,1.4c-0.02,0-0.04,0-0.06,0c-6.3,0.1-11.4,1.8-15.2,5.2 c-3.03,2.76-5.13,6.39-6,10.4c-0.22,0.72,0.18,1.48,0.9,1.7c0.41,0.13,0.85,0.05,1.2-0.2c3.26-2.25,7.14-3.4,11.1-3.3 c6,0,10.7,2.1,14.2,6.3s5.2,9.7,5.2,16.4C86.96,81.56,84.96,87.16,80.86,91.46z"/>
    <path d="M61.26,61.56c-0.1,0-0.2,0-0.2,0.1c-0.9,0.4-1.8,0.8-2.6,1.2c-3.23,2.02-5.17,5.59-5.1,9.4c0,5,1.1,9,3.2,12 c1.76,2.83,4.87,4.53,8.2,4.5c3.12,0.1,6.1-1.32,8-3.8c2-2.5,2.9-5.8,2.9-9.9c0.16-3.58-0.9-7.1-3-10 C70.06,61.66,66.26,60.46,61.26,61.56z"/>
  </g>
</svg>