<svg viewBox="0 0 128 128" xmlns="http://www.w3.org/2000/svg">
  <path d="M116.46,3.96h-104c-4.42,0-8,3.58-8,8v104c0,4.42,3.58,8,8,8h104c4.42,0,8-3.58,8-8v-104 C124.46,7.54,120.88,3.96,116.46,3.96z M80.46,92.56c-4.1,3.6-9.6,5.4-16.3,5.4c-6.5,0-11.8-1.7-15.9-5.2 c-3.58-2.92-5.78-7.19-6.1-11.8c-0.09-1.01,0.66-1.9,1.67-1.99c0.04,0,0.08-0.01,0.13-0.01h7.6c0.92,0.01,1.68,0.69,1.8,1.6 c0.28,2.15,1.31,4.13,2.9,5.6c2.22,1.91,5.08,2.91,8,2.8c3.5,0,6.2-0.9,8.2-2.8c2-1.9,3-4.5,3-8s-1-6.3-3.1-8.2 c-2.1-1.9-5.2-2.9-9.3-2.9h-4.8c-0.99,0.01-1.79-0.79-1.8-1.78c0-0.01,0-0.01,0-0.02v-5.2c-0.01-0.99,0.79-1.79,1.78-1.8 c0.01,0,0.01,0,0.02,0h5c2.97,0.16,5.9-0.81,8.2-2.7c2-1.8,3-4.3,3-7.6c0-3.3-0.8-5.7-2.5-7.5c-1.7-1.8-4.2-2.7-7.7-2.7 c-2.71-0.09-5.35,0.83-7.4,2.6c-1.55,1.32-2.55,3.18-2.8,5.2c-0.12,0.91-0.88,1.59-1.8,1.6h-7.6c-0.99,0.01-1.8-0.78-1.81-1.77 c0-0.08,0-0.16,0.01-0.23c0.29-2.63,1.18-5.17,2.6-7.4c1.9-2.87,4.57-5.16,7.7-6.6c3.43-1.64,7.2-2.46,11-2.4c6.7,0,12,1.7,15.8,5.1 c3.8,3.4,5.7,8.1,5.7,14.1c-0.03,3.07-1.05,6.05-2.9,8.5c-1.18,1.7-2.67,3.16-4.4,4.3c-0.84,0.6-1.03,1.77-0.42,2.61 c0.14,0.2,0.32,0.36,0.52,0.49c2.09,1.12,3.9,2.69,5.3,4.6c1.97,2.85,2.98,6.24,2.9,9.7C86.66,84.16,84.56,88.96,80.46,92.56z"/>
</svg>