<svg viewBox="0 0 128 128" xmlns="http://www.w3.org/2000/svg">
  <path d="M116.46,3.96h-104c-4.42,0-8,3.58-8,8v104c0,4.42,3.58,8,8,8h104c4.42,0,8-3.58,8-8v-104 C124.46,7.54,120.88,3.96,116.46,3.96z M87.96,90.66v5.4c0.01,0.99-0.79,1.79-1.78,1.8c-0.01,0-0.01,0-0.02,0h-42.2 c-0.99,0.01-1.79-0.79-1.8-1.78c0-0.01,0-0.01,0-0.02v-5.3c0-0.45,0.18-0.88,0.5-1.2l22.2-24.2c2.65-2.82,4.99-5.9,7-9.2 c1.35-2.23,2.07-4.79,2.1-7.4c0.12-2.88-0.84-5.7-2.7-7.9c-1.91-2.04-4.61-3.14-7.4-3c-3.7,0-6.5,1.1-8.6,3.4 c-1.79,2.11-2.84,4.74-3,7.5c-0.07,0.95-0.85,1.68-1.8,1.7h-7.7c-0.99,0.01-1.8-0.78-1.81-1.77c0-0.08,0-0.16,0.01-0.23 c0.24-3.24,1.2-6.38,2.8-9.2c1.89-3.3,4.7-5.98,8.1-7.7c3.75-1.89,7.9-2.85,12.1-2.8c6.6,0,11.8,1.7,15.7,5 c3.9,3.3,5.7,7.9,5.7,13.8c-0.1,3.75-1.1,7.41-2.9,10.7c-2.58,4.62-5.74,8.89-9.4,12.7l-13.8,14.8c-0.7,0.73-0.68,1.89,0.05,2.59 c0.34,0.32,0.78,0.51,1.25,0.51h25.6c0.99-0.01,1.79,0.79,1.8,1.78C87.96,90.65,87.96,90.65,87.96,90.66z"/>
</svg>