<svg viewBox="0 0 128 128" xmlns="http://www.w3.org/2000/svg">
  <g>
    <path d="M35.61,16.9c0,0,1.15,3.98,0.66,4.29c-0.48,0.3-4.16-1.81-4.16-1.81s-3.86,2.11-4.47,1.69c-0.6-0.42,0.66-4.59,0.66-4.59 s-2.56-2.65-2.29-3.32c0.25-0.61,3.81-0.6,3.81-0.6S31.34,9.04,32.05,9c0.63-0.04,2.29,3.62,2.29,3.62s3.44,0.06,3.74,0.54 C38.38,13.64,35.61,16.9,35.61,16.9z"/>
    <path d="M102.08,112.98c-0.25,0.62-3.81,0.63-3.81,0.63s-1.5,3.53-2.21,3.58c-0.63,0.04-2.32-3.61-2.32-3.61s-3.57,0.02-3.87-0.46 s2.35-3.8,2.35-3.8s-0.9-3.93-0.46-4.29c0.61-0.49,4.18,1.78,4.18,1.78s3.85-2.14,4.46-1.72s-0.63,4.59-0.63,4.59 S102.34,112.31,102.08,112.98z"/>
    <path d="M98.36,44.5c-1.56-0.85-2.96-1.21-4.34-0.82c-1.28-1.68-4.56-4.92-10.4-4.05c-7.19,1.07-10.09,6.07-10.09,6.07 s0.01,0.04,0.01,0.13c-0.27-2.23-0.77-4.84-1.5-7.53c-0.74-2.72-1.9-6.5-3.07-8.88c2.3-0.61,3.35-2.66,3.35-4.81 c0-2.3-2.29-4.1-4.54-4.17c-2.14-0.07-4.5,0.77-4.92,4.21c-0.25,2.04,0.83,3.52,2.21,4.3c-1.81,2.48-4.09,7.02-5.44,10.24 c-1.09,2.61-1.73,4.64-2.1,6.13c-0.78-1.94-3.62-6.17-11.48-6.11c-5.19,0.04-8.37,3.63-9.65,5.44c-1.19-0.18-2.49,0.16-3.66,1.31 c-1.87,1.84-1.12,4.85-0.05,6.06c1.8,2.03,5.3,1.84,6.72-0.19c0.91-1.3,1.08-2.95,0.57-4.32c1.62-0.43,4.21-0.55,6.38,2 c2.84,3.33,3.93,8.12,4.23,9.77c-0.09,0.08-0.13,0.13-0.13,0.13s-1.38,5.42-0.6,10.54c0.99,6.52,3.05,7.33,3.11,9.21 c0.05,1.53-1,3.07-4.2,6.13c-3.27,3.12-5.97,3.26-5.9,4.33s2.91,1.78,6.96,1.07s5.19-3.55,5.47-3.27c0.28,0.28-0.36,2.41-1.78,5.75 c-1.42,3.33-5.25,4.87-4.33,6.46c0.78,1.35,4.83,0.72,9.45-2.84c4.04-3.11,5.66-6.46,6.44-6.53s1.66,2.83,5.78,6.67 c4.12,3.84,10.72,3.49,11.08,2.63s-2.27-2.28-4.19-4.62s-2.78-5.46-2.56-5.82s3.06,1.27,7.25,1.63s5.96-1.21,5.82-2.13 s-3.05-0.85-6.25-2.91s-4.45-4.41-4.59-5.97c-0.15-1.57,1.1-1.92,2.95-7.89s0-12.36,0-12.36c0.48-2.41,1.8-7.49,4.59-9.73 c2.38-1.91,4.29-2.39,5.51-2.44c-0.4,1.77,0.17,3.81,1.8,4.99c2.26,1.65,5.67,1.59,7.25-1.04C100.99,48.84,100.39,45.62,98.36,44.5 z M65.52,81.13c-15.49-0.34-12.44-19.87-12.44-19.87s2.16-3.82,11.84-3.75c10.13,0.07,13.22,4.15,13.22,4.15 S80.12,81.43,65.52,81.13z"/>
    <path d="M75.11,64.97c-0.08,0.63-0.76,1.02-2.18,1.13c-0.16,1.8-0.62,2.88-1.41,2.88c-0.76,0-1.17-1.1-1.22-2.98 c-1.37-0.23-2.11-0.76-2.11-1.24c0-0.61,0.51-0.98,2.19-1.04c0.16-2.03,0.52-3.04,1.23-3.04c0.78,0,1.27,1.04,1.35,3.12 C74.59,64,75.17,64.46,75.11,64.97z"/>
    <path d="M62.2,64.89c0,0.48-0.74,1.01-2.11,1.24c-0.05,1.87-0.46,2.97-1.22,2.97c-0.79,0-1.25-1.08-1.4-2.87 c-1.42-0.11-2.11-0.49-2.19-1.13c-0.06-0.51,0.52-0.97,2.14-1.17c0.09-2.1,0.59-3.13,1.36-3.13c0.71,0,1.07,1.02,1.23,3.05 C61.7,63.9,62.2,64.27,62.2,64.89z"/>
    <path d="M60.36,72.13c-0.4,0.79,0.6,3.87,5.06,3.93s5.48-2.91,5.2-3.73c-0.33-0.97-2.2-0.43-5.26-0.47 C62.42,71.83,60.76,71.33,60.36,72.13z"/>
    <path d="M102.11,6.62c2.08,0,3.78,1.7,3.78,3.78v107.2c0,2.08-1.7,3.78-3.78,3.78H26.63c-2.08,0-3.78-1.7-3.78-3.78V10.4 c0-2.08,1.7-3.78,3.78-3.78H102.11 M102.11,3.62H26.63c-3.74,0-6.78,3.04-6.78,6.78v107.2c0,3.74,3.04,6.78,6.78,6.78h75.48 c3.74,0,6.78-3.04,6.78-6.78V10.4C108.89,6.65,105.85,3.62,102.11,3.62L102.11,3.62z"/>
  </g>
</svg>