<svg viewBox="0 0 128 128" xmlns="http://www.w3.org/2000/svg">
  <g>
    <path d="M46.45,47.84c-2.59-1.58-5.44-2.38-8.54-2.38c-3.1,0-5.94,0.79-8.51,2.38c-2.57,1.58-4.59,3.81-6.07,6.67 s-2.22,6.13-2.22,9.81s0.74,6.95,2.22,9.81s3.51,5.09,6.07,6.67c2.57,1.58,5.4,2.38,8.51,2.38s5.95-0.79,8.54-2.38 c2.59-1.58,4.63-3.81,6.11-6.67c1.48-2.86,2.22-6.13,2.22-9.81s-0.74-6.95-2.22-9.81C51.08,51.65,49.04,49.42,46.45,47.84z"/>
    <path d="M116,4H12c-4.42,0-8,3.58-8,8v104c0,4.42,3.58,8,8,8h104c4.42,0,8-3.58,8-8V12C124,7.58,120.42,4,116,4z M60.85,78.81 c-2.31,4.4-5.47,7.86-9.5,10.39c-4.02,2.53-8.51,3.79-13.45,3.79s-9.42-1.26-13.45-3.79c-4.03-2.53-7.19-5.99-9.5-10.39 s-3.46-9.23-3.46-14.49s1.15-10.09,3.46-14.49c2.31-4.4,5.47-7.86,9.5-10.39c4.02-2.53,8.51-3.8,13.45-3.8s9.43,1.27,13.45,3.8 c4.03,2.53,7.19,5.99,9.5,10.39c2.31,4.4,3.46,9.23,3.46,14.49S63.16,74.41,60.85,78.81z M113.61,91.76h-11.65L86.84,68.38 l-5.72,7.28v16.1h-9.53V36.87h9.53v23.54h0.57l18.5-23.54h11.51v0.61l-18.29,22.7l20.2,30.97V91.76z"/>
  </g>
</svg>