<svg viewBox="0 0 128 128" xmlns="http://www.w3.org/2000/svg">
  <g>
    <path d="M80.41,53.5c-2.41,0-4.23,0.9-5.45,2.69c-1.22,1.81-1.84,4.47-1.84,8.01c0,3.53,0.61,6.2,1.82,7.98 c1.21,1.79,3.02,2.68,5.43,2.68c4.84,0,7.25-3.56,7.25-10.67C87.62,57.06,85.22,53.5,80.41,53.5z"/>
    <path d="M50.96,53.5c-2.41,0-4.23,0.9-5.45,2.69c-1.23,1.81-1.84,4.47-1.84,8.01c0,3.53,0.61,6.2,1.82,7.98 c1.21,1.78,3.02,2.68,5.43,2.68c4.84,0,7.25-3.56,7.25-10.67C58.17,57.06,55.77,53.5,50.96,53.5z"/>
    <path d="M116,4H12c-4.42,0-8,3.58-8,8v104c0,4.42,3.58,8,8,8h104c4.42,0,8-3.58,8-8V12C124,7.58,120.42,4,116,4z M25.73,74.9 c2.07,0,4.57-0.55,7.51-1.67v5.63c-2.42,1.08-5.11,1.62-8.09,1.62c-4.28,0-7.56-1.4-9.83-4.19c-2.27-2.79-3.4-6.8-3.4-12.02 c0-3.29,0.56-6.17,1.67-8.64c1.11-2.47,2.71-4.37,4.8-5.69c2.09-1.32,4.53-1.98,7.34-1.98c2.86,0,5.73,0.74,8.62,2.23l-2.01,5.45 c-1.1-0.56-2.21-1.05-3.32-1.47c-1.11-0.42-2.22-0.62-3.29-0.62c-2.35,0-4.17,0.95-5.46,2.84c-1.29,1.9-1.93,4.54-1.93,7.93 C18.34,71.37,20.8,74.9,25.73,74.9z M61.01,76.27c-2.35,2.81-5.71,4.22-10.09,4.22s-7.74-1.41-10.09-4.22 c-2.35-2.81-3.52-6.85-3.52-12.12c0-5.26,1.18-9.29,3.53-12.06c2.35-2.78,5.72-4.17,10.12-4.17c4.4,0,7.75,1.4,10.08,4.2 c2.33,2.8,3.49,6.83,3.49,12.08C64.53,69.44,63.36,73.46,61.01,76.27z M90.46,76.27c-2.35,2.81-5.71,4.22-10.09,4.22 s-7.74-1.41-10.09-4.22c-2.35-2.81-3.52-6.85-3.52-12.12c0-5.26,1.18-9.29,3.53-12.06c2.35-2.78,5.72-4.17,10.12-4.17 c4.4,0,7.75,1.4,10.08,4.2c2.33,2.8,3.49,6.83,3.49,12.08C93.98,69.44,92.81,73.46,90.46,76.27z M116.08,80.06H97.52V48.43h6.71 v26.09h11.85V80.06z"/>
  </g>
</svg>