<svg viewBox="0 0 128 128" xmlns="http://www.w3.org/2000/svg">
  <g>
    <path d="M65.85,44.1c-0.34-1.05-1.48-1.62-2.52-1.28c-0.6,0.2-1.08,0.67-1.28,1.28l-9.9,28.4c-0.39,1.03,0.14,2.19,1.17,2.57 c0.2,0.08,0.42,0.12,0.63,0.13h19.9c1.13-0.02,2.03-0.96,2.01-2.09c0-0.21-0.04-0.41-0.11-0.61L65.85,44.1z"/>
    <path d="M116,4H12c-4.42,0-8,3.58-8,8v104c0,4.42,3.58,8,8,8h104c4.42,0,8-3.58,8-8V12C124,7.58,120.42,4,116,4z M101.98,107.77 c-0.23,0.09-0.48,0.13-0.73,0.13h-11.7c-0.84,0-1.59-0.52-1.9-1.3l-6.2-17.8c-0.31-0.78-1.06-1.3-1.9-1.3h-31.3 c-0.84,0-1.59,0.52-1.9,1.3l-6.2,17.8c-0.3,0.79-1.06,1.31-1.9,1.3h-11.5c-1.1,0.01-2.01-0.87-2.03-1.97 c0-0.25,0.04-0.49,0.13-0.73l31.7-84c0.3-0.79,1.06-1.31,1.9-1.3h11c0.84,0,1.59,0.52,1.9,1.3l31.8,84 C103.54,106.23,103.01,107.39,101.98,107.77z"/>
  </g>
</svg>