<svg viewBox="0 0 128 128" xmlns="http://www.w3.org/2000/svg">
  <g>
    <path d="M71.13,46.69h-7.74v35.27h7.74v-0.01c5.93,0,10.45-1.57,13.57-4.71s4.68-7.45,4.68-12.92c0-5.47-1.56-9.78-4.68-12.92 C81.58,48.26,77.06,46.69,71.13,46.69z"/>
    <path d="M116,4H12c-4.42,0-8,3.58-8,8v104c0,4.42,3.58,8,8,8h104c4.42,0,8-3.58,8-8V12C124,7.58,120.42,4,116,4z M40.54,91.76 H30.19V36.87h10.35V91.76z M96.35,78.66c-2.3,4.14-5.57,7.36-9.81,9.66s-9.23,3.45-14.95,3.45H53.04v-54.9h18.55 c5.72,0,10.71,1.15,14.95,3.45s7.51,5.52,9.81,9.66c2.3,4.14,3.45,8.92,3.45,14.34S98.65,74.52,96.35,78.66z"/>
  </g>
</svg>