<svg viewBox="0 0 128 128" xmlns="http://www.w3.org/2000/svg">
  <path d="M116,4H12c-4.42,0-8,3.58-8,8v104c0,4.42,3.58,8,8,8h104c4.42,0,8-3.58,8-8V12C124,7.58,120.42,4,116,4z M56.31,87.76h-9.23 L27.32,54.81H26.8l0.52,8.97v23.99h-8.65V41.22h10.21l18.72,31.2h0.52l-0.52-8.97V41.22h8.71V87.76z M109.44,74.91 c-0.93,2.64-2.35,4.96-4.26,6.96c-2.08,2.25-4.59,3.98-7.54,5.17s-6.24,1.79-9.88,1.79c-4.46-0.03-8.56-1.07-12.31-3.18 c-3.75-2.1-6.73-5-8.94-8.71c-2.21-3.71-3.31-7.85-3.31-12.44c0-4.59,1.1-8.74,3.31-12.45c2.21-3.71,5.19-6.61,8.94-8.71 c3.75-2.1,7.85-3.15,12.32-3.15c3.64,0,6.97,0.64,9.98,1.92c3.01,1.28,5.6,3.09,7.77,5.43l-6.04,5.92 c-1.56-1.65-3.28-2.88-5.17-3.71c-1.88-0.82-4.08-1.23-6.6-1.23c-2.86,0-5.48,0.66-7.87,1.98c-2.38,1.32-4.28,3.21-5.69,5.65 c-1.41,2.45-2.11,5.23-2.11,8.35s0.71,5.9,2.14,8.35c1.43,2.45,3.35,4.33,5.75,5.66c2.41,1.32,5.04,1.98,7.9,1.98 c4.33,0,7.89-1.28,10.66-3.83c0.87-0.78,1.62-1.78,2.27-2.99c0.65-1.21,1.13-2.53,1.43-3.96H87.57v-7.47h22.81 c0.3,1.21,0.46,2.58,0.46,4.09C110.84,69.41,110.37,72.27,109.44,74.91z"/>
</svg>