<svg viewBox="0 0 128 128" xmlns="http://www.w3.org/2000/svg">
  <g>
    <path d="M83.32,73c-0.01,0-0.01,0-0.02,0H45c-0.95,0.07-1.68,0.85-1.7,1.8v14.3c-0.01,0.99,0.79,1.79,1.78,1.8 c0.01,0,0.01,0,0.02,0h38.2c0.99,0.01,1.79-0.79,1.8-1.78c0-0.01,0-0.01,0-0.02V74.8C85.11,73.81,84.31,73.01,83.32,73z"/>
    <path d="M116,4H12c-4.42,0-8,3.58-8,8v104c0,4.42,3.58,8,8,8h104c4.42,0,8-3.58,8-8V12C124,7.58,120.42,4,116,4z M94.5,66.9v35 c0.01,0.99-0.79,1.79-1.78,1.8c-0.01,0-0.01,0-0.02,0h-5.9c-0.99,0.01-1.79-0.79-1.8-1.78c0-0.01,0-0.01,0-0.02V101 c0.01-0.99-0.79-1.79-1.78-1.8c-0.01,0-0.01,0-0.02,0H45c-0.99-0.01-1.79,0.79-1.8,1.78c0,0.01,0,0.01,0,0.02v1.3 c0.01,0.99-0.79,1.79-1.78,1.8c-0.01,0-0.01,0-0.02,0H36c-0.99,0.01-1.79-0.79-1.8-1.78c0-0.01,0-0.01,0-0.02V66.8 c0.04-0.96,0.84-1.72,1.8-1.7h56.7c0.99-0.01,1.79,0.79,1.8,1.78C94.5,66.89,94.5,66.89,94.5,66.9z M107.1,49.84 c-0.08,0.17-0.18,0.33-0.3,0.46c-1.41,1.47-2.62,3.12-3.6,4.9c-0.46,0.8-1.47,1.11-2.3,0.7c-3.6-1.8-7.2-3.6-10.7-5.6 c-0.83-0.48-1.88-0.2-2.37,0.63c-0.15,0.27-0.24,0.57-0.23,0.87v1.6c0.01,0.99-0.79,1.79-1.78,1.8c-0.01,0-0.01,0-0.02,0H41.4 c-0.99,0.01-1.79-0.79-1.8-1.78c0-0.01,0-0.01,0-0.02c-0.01-0.96-0.79-1.73-1.75-1.73c-0.3,0-0.59,0.08-0.85,0.23 c-3.19,1.93-6.5,3.67-9.9,5.2c-0.75,0.34-1.64,0.09-2.1-0.6c-1.21-1.74-2.51-3.41-3.9-5c-0.65-0.73-0.59-1.85,0.14-2.5 c0.14-0.12,0.29-0.23,0.46-0.3C38.3,41.6,54.5,30.3,64,16.8c0.49-0.71,1.42-0.97,2.2-0.6l4.8,2.4c0.87,0.5,1.17,1.61,0.67,2.48 c-0.02,0.04-0.04,0.08-0.07,0.12c-0.33,0.52-0.7,1.02-1.1,1.5c-0.49,0.72-0.41,1.68,0.2,2.3c10.8,10.3,22.6,17.1,35.5,22.5 C107.09,47.9,107.5,48.94,107.1,49.84z"/>
    <path d="M80,43.6c-5.13-3.7-10.01-7.74-14.6-12.1c-0.7-0.66-1.81-0.63-2.47,0.07c-0.01,0.01-0.02,0.02-0.03,0.03 c-4.16,4.39-8.68,8.44-13.5,12.1c-0.76,0.58-0.9,1.67-0.31,2.43c0.34,0.44,0.86,0.69,1.41,0.67H79c0.97-0.01,1.75-0.8,1.75-1.77 C80.74,44.46,80.47,43.93,80,43.6z"/>
  </g>
</svg>