<svg viewBox="0 0 128 128" xmlns="http://www.w3.org/2000/svg">
  <path d="M122.83,47.86l-56.8-33.83c-1.25-0.74-2.8-0.74-4.04,0L5.19,47.86c-1.58,0.94-1.58,3.23,0,4.17l18.77,11.18 c-2.28,4.16-0.88,8.36-1.21,13.78c-1.08,1.61-2.69,3.09-2.5,5.3c-0.03,3.79,3.78,4.67,1.76,9c-3.73,8.44-2.54,18.94-6.9,27.21 c-0.51,0.94-0.09,2.23,0.89,2.68c2.38,1.06,3.22-1.93,3.87-3.6c-0.48,2.8,0.41,7.25,3.93,4.68c1.24,1.74,5.25,1.59,6.39-0.13 c2.71,2.81,4.94-0.71,4.19-3.98c-0.65-5.8-0.83-18.19-2.14-24c5.52,4.12,17.36,11.45,31.73,11.45c19.98,0,35.09-14.18,35.09-14.18 s2.31-11.9,0.45-25.51l23.3-13.88C124.4,51.09,124.4,48.8,122.83,47.86z M22.25,82.29c-0.29-2.32,2.46-3.16,2.5-5.31 c0.55-6.57-2.24-11.57,3.91-15.5c7.22-5.17,24.32-15.21,29.25-18.07c0.08,0.49,0.19,0.98,0.28,1.37c-2.66,1.52-8.62,5-9.45,6.01 c-0.39,0.47-0.31,1.02-0.06,1.35c0.55,0.72,0.8,1.05,13.16-4.42c0.07,0.02,0.14,0.04,0.23,0.05c0,0.01,0.01,0.01,0.02,0.01 c0.55,0.12,1.36,0.24,2.28,0.24c0.66,0,1.39-0.06,2.11-0.24c-0.04,0.03-0.07,0.05-0.11,0.08c-0.83,0.55-10.1,4.85-17.55,8.31 c-10.22,4.94-13.05,5.58-17.45,8.72c-0.01,0-0.08,0.07-0.09,0.07c-3.02,2.78-2.43,7.25-2.91,11.95c-0.06,0.85,0.27,1.67,0.92,2.24 c2.69,2.27,0.98,5.36-0.83,7.44c-1.88,0.32-3.22,0.26-4.11,0.1C23.9,85.13,22.02,84.15,22.25,82.29z M32.38,118.33 c0.2,2.84-0.23,3.45-0.81,2.17c-0.22-0.56-0.27-1.18-0.27-1.18c-0.09-1.19-1.92-1.2-2,0c0.05,2.72-4.67,3.05-4.6,0.07 c0-1.29-2.02-1.28-2,0.01c-0.1,0.78-0.07,1.83-0.79,1.5c-0.75-1.68,1.73-14.79-1.69-12.09c1.17-5.62,1.26-11.9,3.77-17.09 c1.68,0.23,3.53,0.2,5.41-0.16C31.8,97.89,31.56,111.55,32.38,118.33z"/>
</svg>