<svg viewBox="0 0 128 128" xmlns="http://www.w3.org/2000/svg">
  <g>
    <path d="M124.49,34.26c-0.7-1-6.28-1.04-11.68-3.96c-4.92-2.66-6.78-6.14-13.64-10.78c-9.63-6.51-17.45-4.81-17.45-4.81l-0.03,0.09 c0.25-0.99,0.09-2.37-1.71-3.06c-2.07-0.8-3.19,0.26-3.46,1c-0.11,0.31-6.3,18.03-13.45,38.51c-7.1-20.24-13.22-37.66-13.42-38.21 c-0.37-1.01-1.99-2.13-3.74-0.98c-1.27,0.84-1.28,2.28-1.01,3.34c-0.12-0.04-5.57-2.11-13.47,0.72c-7.98,2.86-11.28,7.47-17,10.08 C8.71,28.81,3.4,29.55,3.3,30.45c-0.1,0.9,1.02,3.86,2.47,8.07c1.45,4.21,3.9,14.98,5.05,19.56c1.51,6.01,3.76,10.63,3.76,10.63 s0.01,0,0.01,0c0.11,0.57,0.65,1.45,1.25,1.6c0.93,0.23,5.76-0.29,10.98-3.41c5.97-3.56,9.22-8.49,17.05-11.68 c6.39-2.61,13.84-2.2,14.11-2.18c0.73,2.1,1.48,4.24,2.23,6.39c-9.08,26.02-18.62,53.34-18.81,53.89c-0.37,1.06,0.1,3.07,1.71,3.53 c1.61,0.46,3.14-0.24,3.38-0.84c0.26-0.66,8.36-23.98,16.71-48.02c8.46,24.24,16.7,47.8,16.82,48.04c0.24,0.48,1.62,1.5,3.06,0.96 s2.22-1.98,2.04-2.7c-0.09-0.38-9.82-28.16-19.06-54.52c0.85-2.44,1.69-4.87,2.52-7.25c0.4-0.01,6.96-0.13,14.1,5.74 c6.25,5.14,12.13,10.38,16.84,12.09c4.71,1.7,8.3,1.82,9.05,1.27c0.31-0.23,0.53-0.73,0.67-1.26c0,0,0.01,0,0.01,0 s4.66-11.86,8.37-20.51C121.43,40.98,125.04,35.04,124.49,34.26z M12.25,48.81c-0.98-4.8-4.94-16.31-4.78-16.64 c0.15-0.29,4.11-1.43,9.43-4.04c4.79-2.36,8.1-5.67,14.43-8.98c6.33-3.31,12.29-1.62,12.29-1.62l10.45,29.91 c0,0-5.88,0.05-12.79,3.1c-5.66,2.51-11.78,8.01-16.05,11.25c-3.55,2.7-8.39,3.59-8.39,3.59S14.24,58.53,12.25,48.81z M113.46,51.74c-2.16,5.56-6.77,15.31-6.77,15.31s-3.16-0.22-7.21-2.13c-4.05-1.91-9.04-7.12-14.72-11.85 c-5.74-4.78-12.15-5.22-12.22-5.59c-0.07-0.36,10.23-29.37,10.38-29.66c0,0,3.92-1.8,12.36,2.65c8.09,4.26,9.57,7.72,14.13,11.11 c4.2,3.11,11.11,4.19,11.04,4.56C120.38,36.5,116.04,45.12,113.46,51.74z"/>
    <path d="M101.91,31.22c-5.46-3.51-13.25-2.06-15.6,4.27c-2.35,6.33,0.15,12.29,5.89,15.53c5.74,3.24,14.47,0.65,15.46-7.14 C108.32,38.65,106.84,34.38,101.91,31.22z"/>
    <path d="M35.53,49.25c8.54-3.31,8.07-11.25,6.11-15.16c-2.37-4.71-7.66-8.73-15.76-5.08c-8.17,3.68-7.02,12.19-5.37,15.68 C22.42,48.74,27.25,52.46,35.53,49.25z"/>
  </g>
</svg>