<svg viewBox="0 0 128 128" xmlns="http://www.w3.org/2000/svg">
  <g>
    <path d="M42.35,30.26c2.2,0.44,4.85,0.86,7.07,1.17c0.6,0.04,0.98-0.51,0.87-1.08c-0.15-0.82-1.43-9.31-1.7-10.23 c-0.32-0.78-1.14-0.91-1.63-0.18c-0.49,0.65-2.27,3.59-3.62,5.86C42.36,27.79,40.33,29.61,42.35,30.26z M47.14,23.37 c0.31,1.88,0.7,4.33,0.95,5.85c-1.22-0.19-2.89-0.47-4.05-0.67C44.78,27.29,46.1,25.07,47.14,23.37z"/>
    <path d="M24.08,57.12c-0.5-0.47-1.17-0.18-1.46,0.38c-0.35,0.56-5.23,7.41-5.68,8.02c-0.49,0.57-0.42,1.55,0.39,1.75 c1.61,0.19,9.27-2.23,10.67-2.44c0.95-0.21,0.82-1.12,0.52-1.6C27.86,62.38,24.85,58.02,24.08,57.12z M25.45,62.39 c0.2,0.28,0.42,0.58,0.63,0.86c-1.9,0.49-4.16,1.07-6.18,1.57c1.12-1.57,2.67-3.74,3.62-5.1C23.98,60.37,24.63,61.27,25.45,62.39z"/>
    <path d="M12.56,45.04c1.26,0.64,7.76,4.76,8.91,5.09c0.6,0.24,1.22-0.01,1.36-0.66c0.45-1.85,1.07-4.96,1.26-6.9 c0.09-0.81-0.53-1.41-1.34-1.21c-1.08,0.17-8.89,1.26-9.89,1.6C11.7,43.36,11.78,44.64,12.56,45.04z M21.67,43.54 c0.1-0.01,0.2-0.03,0.29-0.04c-0.18,1.19-0.53,3.04-0.79,4.29c-1.45-0.83-3.98-2.34-5.62-3.31C17.57,44.14,20.45,43.72,21.67,43.54 z"/>
    <path d="M26.18,32.07c0.22,0.88,0.72,2.83,0.83,3.27c0.1,0.39,0.37,0.82,0.82,0.79c0.97-0.33,5.67-3.76,6.63-4.39 c1.11-1.26-0.36-1.64-1.56-2.62c-2.17-1.57-4.9-3.53-6.98-5.1c-0.57-0.48-1.48-0.43-1.5,0.46C24.47,25.76,25.41,28.77,26.18,32.07z M32.07,30.98c-1.13,0.78-2.42,1.64-3.5,2.37c-0.65-2.55-1.15-4.56-1.51-6C28.71,28.55,30.8,30.06,32.07,30.98z"/>
    <path d="M117.93,81.16c-6.02-4.83-10.6-4.3-10.6-4.3c-0.14-0.46,4.52-33.89-25.85-38.83c-8.01-1.3-14.16-0.09-18.87,2.25 c1.58-2.21,3.75-5.15,5.22-7.23c0.06-0.11,0.12-0.24,0.12-0.36c0.03-0.16-0.01-0.31-0.07-0.45c-0.47-0.54-0.92-0.21-1.62-0.1 c-2.41,0.58-9.17,2.09-9.81,2.28c-0.89,0.28-0.87,0.82-0.39,1.52c0.44,0.63,3.18,4.82,3.92,5.85c-0.83,0.55-1.61,1.12-2.33,1.73 c-3.35-9.49-15.91-13.61-24.31-8.13c-9.17,5.36-10.51,20.91-1.66,27.28c-6.11,4.9-8.26,13.85-7.99,13.83c0,0-7.59-1.5-14.23,3.57 c-5.1,3.89-5.35,7.91-5.19,9.6c0.05,2.47,0.75,7.18,5,10.7c5.44,4.51,12.29,3.35,21.83,3.41c9.54,0.06,73.63-0.03,79.69,0.03 c6.29,0.32,11.06-3.14,12.36-8.84l0.03-0.01C123.9,90.63,123.61,86.06,117.93,81.16z M59.02,36.78c-0.18-0.28-0.36-0.55-0.52-0.8 c1.6-0.36,3.91-0.91,5.69-1.3c-1,1.36-2.45,3.39-3.42,4.73C60.21,38.58,59.52,37.53,59.02,36.78z M48.38,58.03 c0,0-8.04-1.34-15.03,3.38c-6.57-3.92-7.25-15.27-2.65-20.96c6.8-9.2,22.09-6.29,25.35,4.53C50.12,50.85,48.38,58.03,48.38,58.03z"/>
  </g>
</svg>