<svg viewBox="0 0 128 128" xmlns="http://www.w3.org/2000/svg" xmlns:xlink="http://www.w3.org/1999/xlink">
  <path d="M118.32,113.84c-0.05-0.12-0.1-0.25-0.15-0.39c-0.14-0.33-0.28-0.7-0.42-1.06c-0.09-0.21-0.17-0.42-0.25-0.63 c-0.08-0.18-0.15-0.36-0.21-0.53c-0.03-0.06-0.05-0.12-0.07-0.18c-0.14-0.34-0.25-0.61-0.3-0.73c-0.01-0.02-0.02-0.04-0.02-0.05 s-0.01-0.02-0.01-0.02c-0.74-2.19-2.6-7.91-4.13-14.14c-1.18-4.85-3.3-13.7-3.4-14.11v-0.02l-1.38-8.41 c0.27-0.09,0.55-0.15,0.84-0.19c2.15-0.28,4.77-0.37,4.77-0.37S113.4,62.9,113.4,61.4s-0.56-3.93-1.22-4.4l-0.01-0.01 c-0.13-0.18-1.33-1.74-7.23-4.3c-6.3-2.73-11.65-5.67-20.78-11.65c-3.28-2.15-5.67-3.91-7.38-5.27c0,0-0.01-0.01-0.02-0.02 c-0.37-0.4-6.41-6.81-7.83-8.44c-1.08-1.25-1.48-3.27-2.79-4.17l-0.09-5.58c0.81-0.11,1.91-0.17,3.21-0.02 c2.74,0.32,4.56,1.21,7.41,1.15c4.36-0.08,7.87-2.13,9.13-3.29c1.26-1.16,2.87-3.04,2.03-3.67c-0.84-0.63-4.42,0.32-8.42-1.26 c-3.53-1.39-5.3-5.02-10.31-5.6c-1.38-0.16-3.26,0.02-3.26,0.02H63v18.4c-1.26,1.13-1.89,3.55-2.78,4.44 c-1.11,1.11-6.97,6.86-7.33,7.22c-0.01,0.01-0.02,0.02-0.02,0.02c-0.42,0.31-10.65,7.97-18.78,13.11 c-8.3,5.25-13.07,7.25-14.06,7.66c-1.58,0.66-4.14,1.44-5.25,2.2c-1.36,0.95-1.29,1.52-1.05,1.8c-0.13,2.39,0.66,15.87,0.66,15.87 s2.09-0.39,3.8-0.37c0.04,0.65,0.08,1.54,0.03,2.26c-0.08,1.22-0.31,2.72-0.31,2.72h0.01c-0.54,3.34-1.73,10.41-2.85,15.26 c-0.09,0.41-0.19,0.82-0.29,1.25c-0.16,0.67-0.33,1.36-0.5,2.05c-0.66,2.64-1.38,5.36-1.97,7.55c-0.14,0.51-0.27,0.99-0.39,1.43 c-0.06,0.23-0.12,0.45-0.18,0.66c-0.07,0.25-0.13,0.48-0.19,0.7c-0.06,0.21-0.11,0.41-0.17,0.59c-0.07,0.28-0.14,0.51-0.19,0.69 c0,0-0.01,0.01-0.01,0.03c-0.02,0.05-0.06,0.16-0.13,0.32c-0.06,0.16-0.14,0.37-0.23,0.61c-0.04,0.12-0.09,0.24-0.14,0.37 c-0.25,0.66-0.54,1.44-0.79,2.08c-0.27,0.71-0.47,1.24-0.47,1.24s5.9,4.06,16.29,6.73c3.19,0.82,6.01,1.31,8.39,1.6 c0.6,0.07,1.16,0.12,1.7,0.17c1.62,0.15,2.98,0.19,4.04,0.19c0.9,0,1.58-0.03,2.05-0.06c0.12-0.01,0.22-0.02,0.31-0.03 c0.26-0.02,0.4-0.04,0.4-0.04s2.12,1.64,6.3-4.79c2.54-0.14,8.63-0.44,16.11-0.44c6.84,0,12.95,0.34,16.06,0.54h0.01 c4.56,5.8,7.65,5.2,8.04,5.09c1.8-0.16,10.44-0.99,16.85-2.76c7.19-1.99,12.77-6.35,12.77-6.35S118.56,114.45,118.32,113.84z M24.39,74.39l0.3-10.93c0,0,0,0,0-0.01c0-0.15,0.02-1.46,1.63-2.57c1.82-1.26,3.6-2.55,5.33-3.84 c11.71-8.78,20.87-17.83,22.68-19.64c0.54,0.56,1.28,1.14,2.29,1.65c-1.24,1.61-3.23,4.2-5.01,6.51c-3.15,4.08-5.82,7.51-9.2,11.22 c-1.2,1.32-2.49,2.67-3.92,4.1c-3.05,3.05-4.48,4.69-4.48,4.69c-0.25,1.11-0.47,2.49-0.52,3.4c-0.04,0.88-0.05,4.18-0.05,6.92 c0.01,1.99,0.02,3.97,0.02,3.97s-2.03-2.25-4.41-2.5c-2.25-0.24-4.76,0.44-4.76,0.44L24.39,74.39z M60.43,53.74 c-0.16,0.91-0.32,1.78-0.48,2.6c-1.49,7.71-2.78,11.55-2.78,11.55l0.01,0.01l0.03,4.42l0.05,7.11l0.08,2.64c0,0,0.05,0.48-0.03,1.34 c-0.19,1.87-1.06,5.56-4.66,10.08c-0.76,0.97-1.65,1.97-2.69,3c-0.34,0.35-0.69,0.68-1.06,1.03c-0.04,0.03-0.07,0.07-0.11,0.1 c-4.11,3.78-8.15,6.73-11.53,8.67c-1.4,0.8-2.69,1.43-3.83,1.88c-0.28,0.11-0.53,0.18-0.79,0.23c1.11,0.53,3.1,1.52,4.3,2.37 c2.14,1.53,4.29,3.82,4.97,7.49c0.02,0.11,0.5,3.35,0.5,3.35s-1.17,0.13-2.57,0.13c-2.86,0-7.55-0.33-13.63-1.9 c-7.13-1.83-12.1-4.35-14.33-5.63c0.32-0.82,0.68-1.79,0.93-2.43c0.08-0.22,0.15-0.41,0.19-0.53c2.64,1.23,7.66,3.46,11.63,4.64 c5.65,1.68,12.31,1.91,12.31,1.91s-0.08-2.64-2.53-4.55c-2.45-1.91-6.28-5.14-6.28-5.14c-0.04-0.22,0.47-0.54,1.24-0.93 c1.8-0.92,7.03-2.83,16.82-11.85c1.85-1.71,3.3-3.42,4.42-5.03c0.56-0.8,1.04-1.58,1.44-2.31l0.05-0.19 c0.01,0.01,0.03,0.02,0.04,0.03c0.62-1.12,1.08-2.15,1.42-3.06c0.65-1.75,0.89-3.04,0.97-3.59c-0.75-0.18-1.6-0.32-2.45-0.37 c-0.16-0.01-0.32-0.02-0.48-0.02c-2.54-0.01-5.41,0.94-5.41,0.94s-0.08-1.75-0.18-3.55c-0.03-0.53-0.07-1.08-0.1-1.64 c-0.17-2.56,0.01-8.91,0.02-9.22c0,0,0,0,0-0.01s0.01-0.02,0.01-0.04c0.05-0.21,0.32-1.13,1.9-3.66c1.45-2.32,3-4.95,4.17-7.07 c0.52-0.96,0.97-1.81,1.29-2.48c1.72-3.61,4.92-10.95,6.23-13.97h0.01c0.88,0.2,1.88,0.36,3.01,0.45 C62.09,43.62,61.14,49.76,60.43,53.74z M75.47,37.44c2.03,2.75,9.22,8.68,14.44,12.96c1.91,1.56,4.3,3.37,6.56,5.05h0.01 c3.86,2.84,7.37,5.28,7.59,5.43c0.01,0.01,0.01,0.01,0.01,0.01s0.01,0.04,0.02,0.11c0.07,0.42,0.33,2.08,0.61,4.68 c0.19,1.79,0.32,4.86,0.39,7.08c0.04,1.41,0.06,2.7,0.06,2.7s-2.09-0.24-4.15,0.42c-2.06,0.66-4.65,3.51-4.65,3.51 s0.14-2.84,0.01-6.01c-0.02-0.7-0.06-1.44-0.12-2.19c-0.29-3.81-1.19-6.21-1.41-6.75c-0.02-0.05-0.04-0.09-0.05-0.11 c-0.03,0.01-0.05,0.02-0.05,0.02s-3.52-2.93-8.98-8.64c-0.65-0.68-1.33-1.41-2.04-2.17c-5.89-6.37-9.27-11.81-10.71-14.5 C74.11,38.53,74.91,37.96,75.47,37.44z M105.44,119.32c-0.73,0.2-1.49,0.39-2.27,0.57c-0.79,0.18-1.59,0.35-2.4,0.5 c-5.29,1.02-10.7,1.53-11.9,1.64l-0.07-0.01c-0.05-0.57-0.09-1.26-0.07-2.02c0.05-2.12,0.54-4.86,2.2-7.62 c1.3-2.19,4.24-4.38,5.71-5.35c-0.23-0.07-1.41-0.67-3.13-1.69c-2.55-1.52-6.27-3.96-9.81-6.97c-0.32-0.26-0.64-0.54-0.96-0.82 c-0.41-0.36-0.8-0.72-1.19-1.09c-1.77-1.65-3.36-3.34-4.68-5.03c-1.67-2.14-2.91-4.28-3.54-6.35c-0.05-0.18-0.1-0.35-0.15-0.53 c-0.18-0.71-0.28-1.51-0.33-2.23c0.01,0.01,0.07-1.15,0.1-2.39c0.04-1.3,0.06-2.9,0.02-4.21c-0.02-0.78-0.06-1.78-0.1-2.8 c-0.1-2.54-0.23-5.26-0.23-5.26s-2.14-5.02-3.65-11.54c-0.09-0.4-0.18-0.81-0.27-1.22c-0.9-4.22-1.73-11.37-2.05-14.36 c1.08-0.08,2.06-0.22,2.93-0.4c1.4,4.11,5.09,11.38,7.19,14.76c0.21,0.34,0.42,0.67,0.63,1.01h0.01c3.43,5.5,6.79,10.67,6.79,10.67 l0.02,0.01c0,0,0,0,0,0.01c0.07,0.2,0.85,2.59,1.07,5.34c0.06,0.71,0.11,1.47,0.17,2.23c0.22,3.43,0.4,7.47,0.4,7.47 s-2.7-1.54-5.56-1.5c-0.17,0-0.35,0-0.52,0.02c-1.4,0.11-2.98,0.59-4.27,1.08c0,0.96,0.1,2.17,0.46,2.82 c0.09,0.16,0.18,0.32,0.27,0.48c0.44,0.77,0.88,1.49,1.33,2.17c1.17,1.77,2.37,3.25,3.56,4.52c0.73,0.78,1.46,1.49,2.17,2.13 c1.36,1.23,2.66,2.25,3.85,3.19c4.66,3.68,10.35,6.94,12.92,8.79c1.25,0.91,1.02,1.48,0.99,1.61c0,0-4.74,4.06-6.05,5.91 c-2.49,3.5-1.6,5.72-1.6,5.72s7.64-0.69,13.53-3.21c3.57-1.54,6.46-3.09,8.19-4.08c0.09,0.22,0.22,0.55,0.39,0.95 c0.21,0.57,0.49,1.26,0.76,1.94C114.36,115.49,110.25,117.99,105.44,119.32z"/>
</svg>