<svg viewBox="0 0 128 128" xmlns="http://www.w3.org/2000/svg">
  <g>
    <path d="M22.3,27.8l14.1,9.1c2,1.2,4.2-1,3.1-3l-8.8-14.4C30,18.2,28.2,18,27.2,19l-5.3,5.3 C20.9,25.3,21.1,27,22.3,27.8z"/>
    <path d="M24.1,80.4L7.7,80.7c-1.4,0-2.5,1.4-2.1,2.8l1.9,7.3c0.4,1.4,2,2.1,3.2,1.4l14.5-7.6 C27.2,83.4,26.4,80.3,24.1,80.4z"/>
    <path d="M66.5,108.2c-0.6-2.2-3.8-2.2-4.3,0l-3.6,16c-0.3,1.4,0.7,2.7,2.1,2.7h7.5c1.5,0,2.5-1.4,2.1-2.8L66.5,108.2z"/>
    <path d="M91.5,36.8l14.1-9.1c1.2-0.8,1.4-2.4,0.4-3.5l-5.3-5.3c-1-1-2.7-0.8-3.5,0.5l-8.8,14.4 C87.3,35.8,89.6,38,91.5,36.8z"/>
    <path d="M120.3,80.7l-16.4-0.3c-2.3-0.1-3.1,3-1.1,4.1l14.5,7.6c1.3,0.7,2.9,0,3.2-1.4l1.9-7.3 C122.8,82.1,121.8,80.8,120.3,80.7z"/>
    <path d="M120.1,45.1l-32.8-2.9c-2.6-0.2-4.8-1.8-5.8-4.2L68,7.2c-1.7-3.3-6.4-3.3-8.1,0L46.5,37.9 c-1,2.3-3.3,4-5.8,4.2L7.9,45.1c-3.7,0.5-5.2,5.1-2.5,7.7l24.7,20.7c2,1.7,2.9,4.3,2.4,6.9L25.3,114c-0.6,3.7,3.2,6.5,6.6,4.8 L60.4,102c2.2-1.3,4.9-1.3,7.1,0l28.6,16.8c3.3,1.8,7.2-1.1,6.6-4.8l-7.2-33.6c-0.5-2.6,0.4-5.2,2.4-6.9l24.7-20.8 C125.3,50.2,123.8,45.6,120.1,45.1z M74.8,45.9c-2.9,1.6-7.1,0.3-7.7-6.1l-2.3-22.6c-0.1-1.3-0.3-3.4,1.7-3.4 c1.6,0,2.5,3.3,2.5,3.3l6.8,18.2C78.4,42.1,77.3,44.5,74.8,45.9z M114.9,56.2L95.3,71.5c-5.6,3.8-9.6,0.4-9.2-4 c0.3-3.3,3.7-5.9,8.8-7.7l17.2-6.7c0,0,3-1.7,4.1-0.5C117.6,54.1,115.9,55.4,114.9,56.2z"/>
  </g>
</svg>