<svg viewBox="0 0 128 128" xmlns="http://www.w3.org/2000/svg">
  <g>
    <path d="M109.42,43C99.82,29.96,79.3,8.65,63.55,9.17C41.94,9.88,9.7,47.25,4.38,71.17c-4.6,20.72,3.55,33.83,16.3,40.91 c3.02,1.68,7.44,2.92,12.64,3.83c0.01,0.17,0.03,0.28,0.05,0.3c0.29,0.38,5.77,1.5,8.93,1.78c23.6,2.07,37.92,0.29,41.09,0.1 s8.25-1,9.11-1.77c0.06-0.05,0.11-0.18,0.15-0.37c14.68-2.79,27.42-10.51,30.94-26.01C127.49,72.76,118.62,55.5,109.42,43z M116.03,79.13c-2.16,9.2-10.21,12.65-14.52,13.51c-1.69,0.34-4.51,0.48-8.68,0.5c0-0.36,0-0.7,0-1 c0.06-6.57,0.07-26.95,0.07-28.87c0-1.92,0.04-3.44-1.92-3.84c-1.04-0.22-18.63-0.2-27.56,0.19c-8.93,0.39-26.13-0.32-27.95-0.06 c-0.68,0.09-2.22,0.48-2.21,1.92c0.01,0.67,0.02,17.15-0.08,23.97c-0.03,1.86-0.05,4.98-0.06,8.53 c-7.68-0.02-13.76-1.27-18.15-6.23c-9.05-10.21,0.88-31.14,7.93-41.21c7.05-10.07,28.28-31.76,40.93-31.76 c9.48,0,19.79,6.62,34.57,22.59C111.05,51.03,118.19,69.93,116.03,79.13z"/>
    <path d="M48.81,34.65c-3.09,0-5.94,0.32-5.94,3.01c0,2.62,1.9,3.25,5.94,3.09s6.02-1.09,5.86-3.17 C54.43,34.57,51.9,34.65,48.81,34.65z"/>
    <path d="M83.86,38.54c-2.53,1.11-5.62,1.74-4.67,4.51s4.04,1.58,6.81,0.55c2.77-1.03,4.99-3,3.8-5.38 C88.45,35.53,85.93,37.63,83.86,38.54z"/>
    <path d="M59.98,23.17c-1.66,0.72-5.07,2.06-3.96,4.84c0.76,1.91,3.31,1.74,5.86,0.63c3.48-1.5,4.83-2.93,3.8-5.23 C64.65,21.11,61.64,22.46,59.98,23.17z"/>
    <path d="M33.65,46.65c-3.49-2.17-5.57-1.86-6.39-0.41c-1.31,2.34,1.05,4.43,3.68,5.85c2.63,1.42,4.68,1.64,5.78,0 C38.12,50,36.59,48.48,33.65,46.65z"/>
    <path d="M20.14,75.6c-2.92,0.39-5.3,0.79-5.06,3.17c0.21,2.13,1.27,2.93,5.62,2.61c4.36-0.32,5.58-1.65,5.46-3.56 C26,75.21,23.07,75.21,20.14,75.6z"/>
    <path d="M99.11,66.55c1.7,2.09,4.59-0.48,6.1-1.98s4.08-3.77,2.14-5.86c-2.14-2.3-4.28,0.16-5.94,1.66 C99.74,61.88,97.05,64.01,99.11,66.55z"/>
    <path d="M101.91,77.75c-3.56,0.4-5.62,0.79-5.62,2.85c0,3.41,3.25,3.17,5.78,3.09c2.53-0.08,5.78-0.87,5.78-3.41 C107.85,77.75,105.47,77.35,101.91,77.75z"/>
  </g>
</svg>