<svg viewBox="0 0 128 128" xmlns="http://www.w3.org/2000/svg">
  <g>
    <path d="M123.69,59.41c0,0,0.01-0.01,0.01-0.01s-0.94-7.81-6.4-10.93c-5.47-3.12-9.68-2.18-9.68-2.18s1.72-32.32-23.89-38.72 c-29.61-7.4-35.44,20.92-35.44,20.92s-11.55-2.19-18.74,5.62c-6.03,6.55-5.46,12.96-5.46,12.96s-7.96-1.72-14.21,3.75 c-4.77,4.18-5.35,8.15-5.36,9.8c-0.13,1.93-0.13,5.39,1.17,7.72c1.92,3.43,5.41,5.01,8.56,5.11c4.68,0.16,35.29,0.78,53.86,0.62 c18.57-0.16,46.81,0.14,50.73-1.71c3.07-1.45,4.9-3.85,5.19-7.21C124.3,62.02,123.72,59.53,123.69,59.41z"/>
    <path d="M69.99,81.57c-1.71-0.6-7.81,4.23-10.56,9c-2.76,4.79-0.96,8.29,1.99,9.73c3.32,1.62,8.1,0.62,9.46-4.1 C72.22,91.53,71.83,82.22,69.99,81.57z"/>
    <path d="M37.66,79.19c-1.55-0.55-6.58,4.12-8.84,6.64c-3.03,3.39-5.37,9.71,0.38,12.27c5.79,2.57,9.55-1.64,9.84-7.46 C39.32,85.22,38.94,79.65,37.66,79.19z"/>
    <path d="M49.87,101.65c-1.65-0.89-8.58,5.26-10.79,8.93c-2.2,3.67-2.06,8.38,2.44,10.31s8.47-0.54,9.3-6.97 C51.4,109.36,51.46,102.51,49.87,101.65z"/>
    <path d="M83.38,102.18c-1.19-0.67-9.43,5.69-11.28,10.32c-3.67,9.19,8.87,13.29,11.72,4.65C85.48,112.11,84.85,103.01,83.38,102.18 z"/>
    <path d="M103.87,82.37c-1.63-1-8.48,4.64-10.76,8.88c-2.88,5.36-0.64,9.4,2.5,10.68c3.26,1.32,7.45,0.05,8.87-4.78 C106.53,90.19,105.45,83.35,103.87,82.37z"/>
  </g>
</svg>