<svg viewBox="0 0 128 128" xmlns="http://www.w3.org/2000/svg">
  <path d="M119.06,77.57c-3.85-2.26-14.16,3.64-20.67,4.84c-0.47-4.84-0.85-10.58-0.87-16.33c-0.02-14.82,5.43-36.01,5.43-36.01 s0.26-1.36,0.48-3.09c0.38-2.99-0.67-5.67-4.51-6.98c-5.42-1.85-18.45-3.69-34.86-3.69S35.47,18.08,29.2,20 c-3.94,1.21-4.99,3.56-4.63,6.7c0.22,1.85,0.6,3.37,0.6,3.37s4.04,20.29,4.02,35.11c-0.01,6.17-0.45,12.32-0.96,17.37 c-0.07-0.02-0.14-0.03-0.2-0.05c-2.65-0.71-13.64-7.88-19.1-4.93c-4.27,2.31-6.68,11.03-2.45,18.2 c5.69,9.64,19.94,19.92,57.52,19.92s51.83-10.28,57.52-19.92C125.75,88.59,123.29,80.05,119.06,77.57z M63.04,94.43 c-17.57,0-29.1-3.48-33.59-5.13c0.24-1.81,0.5-3.98,0.75-6.41c0.22-2.18,0.43-4.56,0.59-7.06c4.85,0.31,21.42,1.32,32.25,1.32 c10.76,0,27.67-0.95,32.82-1.25c0.15,2.37,0.34,4.64,0.54,6.74c0.23,2.41,0.49,4.61,0.72,6.48C93,90.69,81.25,94.43,63.04,94.43z"/>
</svg>