<svg viewBox="0 0 128 128" xmlns="http://www.w3.org/2000/svg">
  <g>
    <path d="M109.33,64.98c-0.43-1.34-1.31-2.48-2.2-3.55c0.81-3.32-0.93-11.76-4.52-12.24c-0.18-0.06-0.39-0.09-0.67-0.04 c-1.1,0.18-3.53,0.77-5.7,4.49c-1.34-0.63-2.71-1.23-4.11-1.75c0.08-2.87-1.9-8.67-2.67-9.94c-1.11-1.83-2.12-2.24-2.83-2.35 c-2.38-0.89-5.25,3.5-6.16,6.71c0.05-7,0.01-14.94-0.15-14.98c-0.59-0.15-7.18-0.7-7.53-0.21c-0.21,0.29-0.42,9.34-0.46,16.65 c-0.16-0.01-2.61-0.15-3.04-0.17h-0.05c-0.02-5.45-0.09-10.36-0.18-10.42c-0.21-0.15-7.95-0.22-8.37,0.14 c-0.12,0.1-0.2,4.96-0.24,10.33c-1.14,0.06-2.38,0.14-3.68,0.24c-0.02-7.11-0.12-15.61-0.24-15.77c-0.21-0.28-7.32-0.22-7.67-0.01 c-0.13,0.08-0.21,3.71-0.25,8.19c-0.52-0.71-1.06-1.29-1.59-1.61c0.05,0-0.98-0.83-2.01-0.74c-1.36,0.08-2.65,0.65-3.81,4.45 c-0.84,2.52-3.03,5.48-2.59,8.3c-1.27,0.32-2.53,0.67-3.75,1.05C33.22,48.8,32,47.86,32,47.86h-0.01 c-0.07-0.08-0.83-0.92-2.04-0.84c-3.45,0.39-5.83,7.18-6.76,10.65c-4.76,3.9-4.58,10.24-5.62,15.71 c-0.52,4.63-1.55,14.28-0.29,17.71c0.02,0.03,0.05,0.06,0.08,0.08c0.02,0.01,0.04,0.01,0.06,0.02c0.03,0.02,0.06,0.03,0.09,0.04 c0.02,0,0.05,0,0.07,0.01c0.03-0.01,0.08,0.03,0.09,0h0.04c0.24,4.91,1.66,18.18,4.33,21.47c3.09,3.8,12.53,13.8,40.4,14.08 c27.87,0.28,42.09-12.39,43.64-14.92c1.38-2.25,3.09-11.88,3.55-20.52c0.05,0.02,0.11,0,0.17,0 C111.35,91.21,110.74,69.76,109.33,64.98z M107.68,85.92c-1.28-0.51-2.84-0.46-4.27-0.03c-3.58,1.06-5.02,4.85-6.41,8.51 c-2.11,5.67-3.93,9.24-8.88,9.24c-2.1,0-2.61-0.86-3.78-3.34c-1.17-2.82-3.59-6.53-8.6-5.79c-5.03,0.63-6.68,4.31-7.88,6.99 c-1.25,2.88-2.12,4.47-5.93,4.39c-3.77-0.05-4.54-1.6-5.94-4.43c-1.3-2.96-3.9-7.01-9.4-6.85c-4.81,0-7.44,2.86-9.35,4.96 c-1.93,2.03-2.34,2.63-4.14,2.2c-6.1-1.94-4.17-14.41-13.33-13.95c0.01-3.86-0.17-16.66,3.45-25.69c1.17,2.81,8.24,3.09,11.59,1.57 c2.69-1.31,2.81-5.36,1.34-9.23c1.22-0.38,2.49-0.72,3.8-1.04c2.14,1.71,6.24,1.8,8.63,0.89c0.02,1.7,0.04,2.81,0.07,2.85 c0.14,0.21,2.18,0.92,4.08,0.92c1.9,0,3.73-0.42,3.94-0.63c0.07-0.07,0.1-2.87,0.1-6.59c1.25-0.09,2.48-0.17,3.67-0.23 c-0.02,5.79,0.01,11.29,0.11,11.39c0.21,0.21,1.62,1.48,4.36,1.41c2.75-0.07,4.01-1.06,4.22-1.27c0.1-0.1,0.14-5.7,0.12-11.57 c1.05,0.05,2.07,0.1,3.07,0.18c0,3.5,0.06,6.08,0.19,6.17c1.91,1.4,5.86,1.44,7.67-0.21c0.07-0.04,0.12-0.97,0.17-2.44 c2.03,2.18,8.24,2.4,10.35,0.3c1.53,0.57,2.94,1.17,4.23,1.79c-0.68,1.79-1,3.43-0.84,4.42l-0.02,0.02c0,0,0.25,2.55,2.75,3.65 c2.28,1,6.63,1.17,8.72-0.28c0.49,0.65,0.79,1.21,0.91,1.63C107.38,68.97,107.85,79.8,107.68,85.92z"/>
    <path d="M80.27,74.69c0,0-0.09,3.06,3.54,3.91c2.88,0.67,8.17,0.7,10.14-0.99c1.97-1.69,1.81-5.09,0.11-8.66 c-1.74-3.63-4.26-7.05-5.51-6.73C84.53,61.63,80.06,70.88,80.27,74.69L80.27,74.69z"/>
    <path d="M60.15,81.77c3.34,1.55,8.48,1.47,11.09,0.07c2.29-1.23,2.64-5.13,1.81-7.57c-0.68-1.99-1.62-3.68-1.97-4.6 c-0.34-0.88-1.46-3.56-2.68-4.23c-2.26-1.59-4.61-0.93-7.15,3.09c-1.82,3-3.86,7.67-3.49,9.75C57.76,78.85,57.95,80.76,60.15,81.77 z"/>
    <path d="M40.35,79.02c2.95,0.58,7.81,0.92,9.5-1.2c3.02-3.81,0.48-14.88-4.1-16.7c-1.46-0.84-4.67,0.37-6.74,4.84 c-1.38,2.98-3.21,7.13-2.3,9.48C36.9,76.31,37.63,78.49,40.35,79.02z"/>
    <path d="M69.27,30.91c1.13-4.08-1.76-8.8-2.53-10.7C65.97,18.31,65.4,15,64.98,15c-0.29,0-1.34,3.9-1.97,5.21 c-0.92,1.9-4.51,6.13-3.45,10.21C61.07,36.25,68.04,35.38,69.27,30.91z"/>
    <path d="M81.73,23.59c0.07-3.66-1.53-5.6-2.67-7.67c-0.78-1.41-2.26-5.92-2.75-6.06c0,0-1.04,4.74-2.32,6.76 c-1.83,2.89-2.99,6.84-1.55,10.07C74.27,30.77,81.6,30.56,81.73,23.59z"/>
    <path d="M57.09,25.57c0.84-3.52-0.99-6.19-2.25-9.08c-0.79-1.82-1.83-5.85-1.83-5.85s-1.9,4.72-3.1,6.48 c-1.2,1.76-3.33,5.91-2.11,9.22C49.28,30.35,55.83,30.83,57.09,25.57z"/>
  </g>
</svg>