<svg viewBox="0 0 128 128" xmlns="http://www.w3.org/2000/svg">
  <g>
    <path d="M122.75,22.58c-0.99,0-24.45,0-24.45,0H79.7c0,0,0.07-7.01-0.07-7.08s-31.57-0.35-31.71,0c-0.14,0.36,0,7.08,0,7.08H29.24 c0,0-20.65-0.01-22.8,0c-3.36,0.02-4.35,0.49-3.45,2.43c0.7,1.51,4.27,7.15,4.27,7.15l0.01,86.17c0,0,0.02,3.87,0.02,4.69 s0.65,1.48,1.31,1.48c0.66,0,108.42,0,109.98,0s1.81-0.83,1.81-1.4c0-0.58-0.08-4.85-0.05-5.16c0,0-0.01-0.01-0.02-0.01l0.02-0.01 l0.27-87.63c0,0,2.42-3.34,3.29-5.07C124.77,23.49,123.74,22.58,122.75,22.58z M12.47,68.14c0.23-0.23,10-0.46,10.23-0.08 c0.23,0.37,0.38,10.15,0.08,10.3c-0.3,0.15-10.03,0.19-10.3-0.15C12.18,77.83,12.26,68.35,12.47,68.14z M12.78,50.68 c0.15-0.3,10.16-0.15,10.31,0.08c0.15,0.23,0.07,9.85-0.08,10.08c-0.15,0.22-9.93,0.22-10.08-0.08 C12.78,60.46,12.59,51.06,12.78,50.68z M23.16,111.75l-10.3,0.08c0,0-0.45-10.08-0.23-10.45c0.22-0.38,10.6-0.11,10.6-0.11 L23.16,111.75z M23.01,95.51c-0.3,0.15-10.15,0.08-10.38,0c-0.22-0.08-0.08-10.21,0.08-10.61c0.15-0.38,10.23-0.08,10.53,0.15 S23.31,95.36,23.01,95.51z M23.31,43.61c-0.22,0.08-10.03,0.27-10.3,0c-0.38-0.38-0.38-10.23-0.08-10.38 c0.31-0.15,10.39-0.38,10.46,0S23.54,43.53,23.31,43.61z M43.81,111.83l-9.82,0.09v-10.55l10.04,0.08L43.81,111.83z M44.05,95.17 c0,0-9.81,0.23-10.04,0s-0.35-10.26-0.08-10.53c0.3-0.3,10.27,0,10.27,0L44.05,95.17z M44.57,77.99c-0.34,0.26-10.22,0.26-10.39,0 s-0.1-10.25,0.09-10.39c0.34-0.25,10.04-0.16,10.3,0.09S44.91,77.73,44.57,77.99z M34.1,50.17l10.57-0.1c0,0,0.28,10.22-0.06,10.48 c-0.34,0.26-10.1,0.17-10.44,0C33.83,60.38,34.1,50.17,34.1,50.17z M44.75,43.29l-10.9,0.17c0,0-0.09-10.3,0-10.56 c0.09-0.26,10.69-0.3,10.9-0.08C44.96,33.03,44.75,43.29,44.75,43.29z M54.73,32.93h17.96v10.64H54.73V32.93z M54.64,50.21h18.14 v10.22H54.64V50.21z M54.47,67.5h18.31v10.98H54.47V67.5z M74.95,118.36c-0.07,0.14-23.19,0-23.19,0 c-0.07-0.07-0.21-19.97,0.07-20.33c0.29-0.36,22.84-0.14,23.05,0.07C75.09,98.31,75.02,118.22,74.95,118.36z M81.72,33.27 c0.08-0.26,10.69-0.29,10.9-0.08c0.21,0.21,0.06,10.61,0.06,10.61l-10.96,0.03C81.72,43.83,81.63,33.53,81.72,33.27z M81.89,49.87 l10.64,0.17l-0.17,10.22l-10.39,0.08L81.89,49.87z M82.4,67.58l10.3,0.09c0,0,0.34,10.04,0,10.3c-0.34,0.26-10.22,0.26-10.39,0 C82.14,77.71,82.4,67.58,82.4,67.58z M82.45,84.49c0,0,9.96-0.23,10.27,0s0.08,10.3-0.15,10.53c-0.23,0.23-10.04,0-10.04,0 L82.45,84.49z M92.75,112.03c-0.21,0.15-9.88,0.07-9.88,0.07l-0.14-10.46c0,0,9.96-0.22,10.1,0.08 C92.97,102.02,92.96,111.88,92.75,112.03z M104.1,68.25c0.23-0.23,10-0.45,10.23-0.08c0.23,0.37,0.38,10.15,0.08,10.3 c-0.3,0.15-10.03,0.19-10.3-0.15C103.81,77.94,103.87,68.48,104.1,68.25z M104.41,50.79c0.15-0.3,10.15-0.15,10.31,0.08 c0.15,0.23,0.07,9.85-0.08,10.08c-0.15,0.22-9.93,0.22-10.08-0.08C104.41,60.57,104.22,51.17,104.41,50.79z M104.33,85.01 c0.15-0.37,10.23-0.08,10.53,0.15c0.3,0.23,0.07,10.31-0.23,10.46s-10.15,0.08-10.38,0C104.03,95.54,104.17,85.41,104.33,85.01z M114.91,112.09c0,0-10.31,0-10.43-0.15c-0.09-0.11-0.55-10.16-0.23-10.45c0.14-0.12,10.34,0.03,10.61,0.15 C115.23,101.79,114.91,112.09,114.91,112.09z M114.93,43.72c-0.22,0.08-10.03,0.27-10.3,0c-0.37-0.38-0.37-10.23-0.08-10.38 c0.31-0.15,10.38-0.38,10.46,0C115.08,33.72,115.16,43.64,114.93,43.72z"/>
    <rect height="16.66" width="8.47" x="53.88" y="99.97"/>
    <rect height="16.66" width="8.65" x="64.53" y="99.94"/>
  </g>
</svg>