<svg viewBox="0 0 128 128" xmlns="http://www.w3.org/2000/svg">
  <path d="M120.64,116.93c-0.77-0.62-30.1-31.45-30.1-31.45l-0.01,0.01l0,0l-2.47-2.44c3.16-3.8,6.24-7.71,7.67-11.24v0v0 c3.13-4.85,4.51-11.54,5.12-17.33c0.78-5.74-1.25-16.69-1.88-17.03c-6.32-18.9-19.3-30.33-38.6-32.82 c-62.14-8-74.81,77.82-19.5,92.39c7.9,1.9,15.76,1.92,23.04,0.45c8.3-1.67,13.7-4.82,14.73-5.5c1.17-0.78,2.44-1.81,3.71-2.98 c7.95,8.48,30.8,32.84,31.69,33.68c2.18,2.14,4.55,2.44,6.68,0.57l0.31,0.32C122.65,121.78,122.76,118.94,120.64,116.93z M97.99,51.25c0,0.03,0,0.06,0,0.09c-4.98,49.66-77.91,51.01-77.73-2.1c1.49-13.52,8.3-24.86,24.68-29.74 c17.36-5.16,36.8,8.86,35.29,26.64c-1.49,17.59-18.07,30.25-33.36,21.34C30.38,57.88,39.13,35.54,53,36.9 c12.51,1.16,12.09,14.09,7.86,17.03c1.43-0.62,2.74-1.89,3.7-3.58c7.59-22.39-29.95-26-30.66,2.95 c-0.12,10.16,12.36,28.17,33.07,19.38c17.76-7.54,20.28-29.89,14.89-41.21C75.29,17.68,49.55,4.02,27.08,24.7 C7.83,42.43,16.24,66.29,21.99,74.58c11.8,17.84,36.86,25.18,58.28,12.2c0.01,0.01,0.02,0.02,0.03,0.03 c-3.47,3.05-10.04,8.13-26.82,8.71C29.89,95.99,11.5,78.45,10.43,54.1c-0.12-63.69,92.05-57.23,76.8,2.8 C80.12,78.6,55.55,85.63,40.2,74.21c-15.35-11.42-13.7-31.68-1.9-41.58s31.63-4.77,32.73,10.49c2.07,18.03-19.69,22.25-23.15,10.82 c-1.66-6.21,1.84-8.16,5.39-7.27c3.02,0.76,2.07,4.58,2.68,6.29c3.02-0.21,5.71-5.27,1.8-9.31c-4.02-4.14-9.49-2.17-12.66,0.98 c-2.96,2.95-5.12,14.12,4.88,19.23c11.23,5.74,22.59-3.26,25.48-13.3s-2.34-24.33-19.2-26.86C41.45,21.48,30.94,30.06,26,44.66 c-4.96,14.65,6.25,38.6,29.74,39.41c37.63,0.76,46.99-44.65,29.12-64.96c5.15,5.03,9.26,13.43,11.27,19.31 C96.32,38.97,97.98,44.03,97.99,51.25z"/>
</svg>