<svg viewBox="0 0 128 128" xmlns="http://www.w3.org/2000/svg">
  <path d="M122.9,116.9c-9.3-9.5-12.3-27.6-12.3-40.4c0-12.6,2.4-37.7-7.3-49.2l10-10l1.1,2c1,1.7,3.6,1.6,4.4-0.3l4.9-11.5 c0.9-2-1.2-4.1-3.2-3.2L109,9.2c-1.8,0.8-2,3.3-0.3,4.4l2,1.2l-10.1,10.1c-11.7-9.4-36.1-7-48.8-7c-12.9,0-31.2-3.2-40.6-12.5 c-1.6-1.7-4.4-1.8-6-0.2c-1.6,1.6-1.5,4.5,0.2,6.1c1.5,1.4,3.1,2.8,4.8,4l7,83.4l-13,13c-0.6,0.6-0.1,1.6,0.7,1.5l10.2-1.1 c0.1,0.2,0.2,0.4,0.4,0.5c0.2,0.2,0.4,0.3,0.6,0.4L15,123.1c-0.1,0.8,0.9,1.3,1.5,0.7l3.3-3.3l9.4-9.4l83.6,7c1.2,1.7,2.6,3.4,4,4.8 c1.6,1.7,4.2,1.5,5.8-0.1C124.3,121.1,124.5,118.6,122.9,116.9z M28.5,97l-9.4,1.1l-6.8-81.3c10.8,6.9,25,10.1,36.2,10.1 c13.1,0,32.6-0.6,42.6,7.4L28.5,97z M30,109.1l1.1-9.5l62.7-62.7c8.4,10,7.6,30.6,7.7,43.1c0,11.2,3.1,25.2,10,35.9L30,109.1z"/>
</svg>