<svg viewBox="0 0 128 128" xmlns="http://www.w3.org/2000/svg">
  <path d="M101.62,48.48c-0.21-5.31-8.48-13.13-26.45-15.81c0.18-0.24,0.35-0.47,0.56-0.71 c5.88-6.72,11.59-13.18,8.14-22.17C80.85,1.9,72.79,0.38,71.28,2.06c-2.56,2.84,4.79,4.62,1.68,10.92 c-3.1,6.27-12.42,9.79-12.5,18.77c-1.67,0.05-3.36,0.1-5.01,0.26c0-0.01,0-0.01,0-0.01c-0.02-0.54-0.02-1.09,0.05-1.64 c0.95-7.52,7.74-13.15,5.7-14.36c-0.5-0.3-4.32,1.54-7.89,3.61c-4.65,2.7-9.14,6.93-8.3,14.11c-7.59,2.18-18.08,5.98-19.93,14.61 c-0.22,4.68,0.3,32.38,0.75,41.03c0.45,8.65,2.09,15.07,6.71,20.14c2.01,2.2,4.86,4.62,9.42,6.55c0.02,1.01,0.13,2.02,0.43,2.56 c0.75,1.34,4.63,5.82,21.19,6.12c16.56,0.3,21.19-4.48,21.78-5.37c0.31-0.47,0.3-2.05,0.21-3.44c10.04-5.31,14.19-10.62,15.6-24.62 C101.97,83.07,101.77,52.21,101.62,48.48z M60.83,34.75c0.24,0.94,0.59,1.83,1.03,2.67c-1.64,0-3.26,0.06-4.9,0.16 c-0.39-0.84-0.73-1.71-0.99-2.61C57.52,34.85,59.14,34.78,60.83,34.75z M49.64,41.42c4.55,3.41,10.87,4.36,11.49,3.86 c0.45-0.35-1.04-2.2-2.6-4.78c1.67-0.08,3.58-0.11,5.36-0.08c3.31,3.89,7.91,5.97,8.65,5.39c0.59-0.46,0.04-2.36,0.01-4.91 c16.62,1.95,25.06,8.25,17.23,13.56c-8.57-8.02-43.38-9.04-52.82-0.12C30.82,49.33,37.25,43.77,49.64,41.42z M98.18,91.01 c-0.77,8.05-2.62,13.15-5.99,16.52c-3.01,3.01-9.28,9.27-27.38,9.27h-0.62c-9.05-0.07-21.95-1.11-29.43-9.32 c-3.75-4.12-5.47-9.41-5.93-18.28c-0.46-8.8-0.97-36.2-0.75-40.73c0.13-2.83,5.66-8.79,17.64-11.84c0.35,0.82,0.79,1.57,1.32,2.26 c-5.8,1.42-12.87,3.69-15.22,9.75c-0.85,2.7,0.16,5.18,2.96,7.79c0,0.01,0,0.01,0,0.01c3.05,2.68,6.86,4.27,10.76,5.41 c0.01,0,0.03,0.01,0.04,0.01c13.43,3.39,28.88,3.36,41.71-2.4c0.01-0.01,0.02-0.02,0.04-0.02c1.25-0.65,2.48-1.3,3.61-2.12 c0.28-0.18,0.53-0.38,0.8-0.58c0-0.01,0-0.01,0-0.01c10.44-8.27-0.2-16.83-18.94-18.81c0.15-0.79,0.37-1.61,0.72-2.44 c17.15,2.31,24.95,9.38,25.1,13.12C98.77,52.29,98.95,83.09,98.18,91.01z" enable-background="new "/>
</svg>