<svg viewBox="0 0 128 128" xmlns="http://www.w3.org/2000/svg">
  <path d="M116,4H12c-4.4,0-8,3.6-8,8v104c0,4.4,3.6,8,8,8h104c4.4,0,8-3.6,8-8V12C124,7.6,120.4,4,116,4z M99.1,61.4v0.1 c3.1,0,5.7,2.6,5.7,5.7v34c0,3.1-2.5,5.7-5.7,5.7H51.9c-3.1,0-5.7-2.5-5.7-5.7v-9.4l-21,14.7c-2.5,1.2-5.5-0.6-5.5-3.4V65.2 c0-2.8,3-4.6,5.5-3.4l21,14.7v-9.4c0-3.1,2.5-5.7,5.7-5.7h1.4c-8.7-2.4-15-10.3-15-19.8c0-11.3,9.2-20.5,20.5-20.5 s20.5,9.2,20.5,20.5c0,9.4-6.4,17.3-15,19.8h25c-5.7-1.9-9.7-7.3-9.7-13.6c0-7.9,6.4-14.4,14.4-14.4c7.9,0,14.4,6.4,14.4,14.4 c0,6.3-4.1,11.7-9.7,13.6L99.1,61.4L99.1,61.4z"/>
</svg>