<svg viewBox="0 0 128 128" xmlns="http://www.w3.org/2000/svg">
  <g>
    <path d="M81.82,12.79c-9.19,2.51-16.81,6.63-20.49,10.94c-2.78,3.24-3.36,7.33-3.34,10.29c5.79,1.51,11.17,3.91,15.9,6.26 c1.09-2.99,3.04-6.61,6.59-9.57c9.77-8.14,20.38-9.07,23.68-9.42c1.9-0.2,3.78-0.3,5.5-0.33c-2.49-2.49-5.38-4.87-8.79-7.05 c-1.49-0.95-3.01-1.82-4.56-2.62C91.94,11.24,86.45,11.52,81.82,12.79z"/>
    <path d="M35.31,26.89c-0.57,3.02-0.52,5.85-0.27,8.13c2.73-1.38,6.27-2.54,11.15-2.58c2.61-0.02,5.18,0.22,7.68,0.66 c0.06-3.44,0.89-7.99,4.17-11.82c5.75-6.71,14.88-10.15,20.73-11.74c2.98-0.81,6.42-1.32,9.79-1.62 c-8.19-2.9-16.76-4.03-24.82-3.78c-2.26,0.73-6.89,1.84-11.48,4.02C42.37,12.86,36.62,19.89,35.31,26.89z"/>
    <path d="M105.48,25.23c-2.15,0.24-13.89,1.74-22.01,8.51c-3.07,2.56-4.8,5.82-5.79,8.45c1.3,0.67,2.55,1.31,3.72,1.9 c2.8,1.4,6.55,3.85,10.53,6.57c1.56-2.25,4.13-5.34,7.87-7.8c6.71-4.42,12.84-5.93,20.36-5.93c0.04,0,0.08,0,0.12,0 c-1.59-3.88-3.85-7.98-7.02-11.95C111.1,24.91,108.33,24.92,105.48,25.23z"/>
    <path d="M121.8,41.1c-0.52-0.04-1.05-0.06-1.62-0.06c-6.7,0-12.13,1.5-18.14,5.45c-3.15,2.07-5.36,4.65-6.71,6.51 c4.4,3.07,8.84,6.22,12.4,8.49c-2.29,1.65-7.01,4.96-10.26,6.68c-5.89-5.09-16.15-12.36-29.38-17.06 c-13.99-4.97-23.53-5.72-33.43-4.29c-0.92-3.17-1.63-6.74-2.12-9.57c-0.4,0.25-0.8,0.5-1.15,0.75c-0.54-2.89-1.16-6.8-0.27-11.52 c1.41-7.53,6.82-14.56,16.07-19.65c0,0-3.28,0.8-7.17,2.68C24.6,16.97,16.23,35.7,24.74,39.59c1.03,0.47,1.99,0.36,3.01-0.09 c0.21,1.43,0.48,3.01,0.83,4.33c0.26,1.01,0.61,2.36,1.12,3.88C11.72,51.63,4.64,61.98,4.37,65.22c-0.01,0.03-0.04,0.05-0.04,0.08 c-0.84,3.88-0.19,6.75,1.38,8.67c0.41,0.51,1.05,0.96,1.84,1.4c0.45,5.76,1.46,14.6,4.08,17.72c3.44,4.11,16.42,12.18,26.22,17.34 c9.8,5.16,27.67,13.9,37.6,13.64s27.94-16.02,28.73-20.12c0.44-2.28,0.31-7.81,0.11-12.29c1.65-2.8,2.24-6.02,1.98-9.26 c-0.29-3.75-2.11-7.71-4.47-10.1c3.51-2.36,8.18-6.15,10.58-8.15c0.45,0.2,0.85,0.36,1.2,0.46c5.43,1.59,10.46-3.84,10.33-11.12 C123.86,50.76,123.4,46.29,121.8,41.1z M99.55,102.61c-1.32,2.65-18.27,16.02-23.83,15.89s-19.33-4.36-33.63-11.25 c-14.3-6.89-25.15-15.49-27.14-18.01c-1.22-1.54-1.98-7.48-2.4-11.87c5.3,1.76,13.1,3.9,22.36,8.26 c13.83,6.51,19.37,10.02,27.5,14.14c8.13,4.12,14.14,5.79,20.04,4.34c5.53-1.36,11.83-3.62,17.27-7.65 C99.97,99.24,100.01,101.68,99.55,102.61z"/>
    <path d="M40.77,37.44c-1.91,0.43-3.55,1.37-3.34,2.91c0.21,1.55,2.33,1.75,4.56,1.38c1.64-0.27,3.82-1.11,3.5-2.97 C45.26,37.39,42.68,37.01,40.77,37.44z"/>
    <path d="M79.99,49.03c-1.85-0.21-4.73-0.36-5.04,1.54c-0.31,1.84,1.96,2.54,4.4,2.81c2.44,0.26,4.24,0.21,4.61-1.54 S81.84,49.24,79.99,49.03z"/>
    <path d="M90.9,56.51c-1.14,0.99-0.69,2.54,1.54,4.56c2.23,2.01,3.71,2.01,4.56,1.06s-0.53-3.18-1.8-4.35 C93.92,56.62,92.11,55.45,90.9,56.51z"/>
    <path d="M22.11,87.03c-1.64-1.43-3.86-3.6-5.35-1.85c-1.36,1.6-0.05,3.5,2.28,5.46c2.33,1.96,4.27,3.8,5.72,2.38 C26.72,91.11,23.75,88.46,22.11,87.03z"/>
    <path d="M33.09,89.31c0.8-1.27-1.06-3.02-2.86-3.82c-1.81-0.79-3.35-1.16-4.03,0.11c-0.7,1.29,0.09,2.67,2.49,3.87 C31.02,90.64,32.29,90.58,33.09,89.31z"/>
    <path d="M33.79,94.16c-3.35-0.22-5.47-0.05-5.58,1.85c-0.09,1.5,0.45,2.68,5.02,3.12c4.57,0.45,5.43-0.95,5.47-2.12 C38.76,95.34,37.14,94.39,33.79,94.16z"/>
  </g>
</svg>