<svg viewBox="0 0 128 128" xmlns="http://www.w3.org/2000/svg" xmlns:xlink="http://www.w3.org/1999/xlink">
  <g>
    <path d="M120.26,105.93c0.75-0.56,1.3-1.62,1.42-2.67c-0.08-5.03-5.86-5.35-5.86-5.35s0.96-3.19-1.68-5.83 c-3.46-3.79-8.55-2.25-8.55-2.25s-0.82-2.72-3.22-4.21c-0.09-0.06-0.2-0.11-0.3-0.16V73.78l5.22-0.08l0.02,0.02 c0,0,4.62,0.01,5.36-0.17c0.8-0.2,0.39-0.95-0.59-2.01c-0.72-0.78-41.7-41.31-42.37-42.01c-2.01-2.08-3-3.29-4.9-3.21 c-1.91,0.08-3.04,1.49-4.95,3.25c-0.2,0.19-5.76,5.63-12.84,12.56c-0.07-1.93-0.5-7.38-2.91-13.67 C41,20.35,33.72,10.68,26.75,10.47h-0.33c-5.53,0-10.12,3.97-15.37,12.32C5.7,31.31,1.03,51.18,5.37,68.04 c3.55,13.8,10.82,20.41,18.34,22.18c0.01,0.33,0.01,0.71,0.01,1.13c-1.03-0.18-2.29-0.23-3.43,0.24c-3.79,1.55-3.63,4.17-4.64,5.18 c-1,1-6.44,0.64-7.89,5.33c-0.47,1.51-0.27,2.94,0.57,3.55c-2.38,1.47-4.27,3.73-4.33,7.17c-0.11,5.96,4.12,10.3,15.07,10.73 c6.12,0.24,32.01,0.32,54.76,0.32c17.96,0,33.96-0.05,36.73-0.1c6.29-0.11,13.55-2.06,13.66-10.52 C124.26,109.87,122.45,107.53,120.26,105.93z M65.06,44.02l34.48,33.93v23.9c-2.03-0.84-3.72-0.7-5.02-0.42 c-0.84,0.19-1.52,0.42-2.01,0.47c-1.83,0.18-2.71-1.13-5.81-1.21c-3.04-0.08-5.14,0.99-6.54,2.2c-1.32,1.15-2.01,2.41-2.28,3.01 c-0.04,0.09-0.08,0.16-0.1,0.22h-3.01v-0.22c0-0.79,0-1.81-0.01-3c-0.01-6.39-0.07-17.39-0.24-20.8c-0.25-4.91-3.73-8.72-10.5-8.95 c-5.46-0.19-10.19,4.16-10.31,9.19c-0.08,3.54-0.05,14.45-0.02,20.61c0,1.22,0.01,2.25,0.01,3v0.17h-2.85 c0-0.03-0.01-0.08-0.02-0.16c-0.05-0.48-0.3-1.82-1.46-2.99c-0.65-0.66-1.58-1.26-2.92-1.62c-2.98-0.8-5.58,0.52-8.08,0.57 c-2.51,0.05-3.77-0.99-6.56-0.33c-0.65,0.16-1.3,0.39-1.92,0.7c-0.19,0.1-0.37,0.21-0.55,0.32V77.45l5.61-5.25l5.13-4.8 L65.06,44.02z M99.61,109.15c0,0.79-0.51,1.66-1.71,1.66c-1.21,0-1.7-0.7-1.76-1.76c-0.04-0.87,0.47-1.75,1.67-1.75 S99.61,107.99,99.61,109.15z M89.67,104.54c0.05,0.52-0.11,0.99-0.44,1.33c-0.27,0.27-0.64,0.46-1.13,0.52 c-0.54,0.06-1-0.17-1.32-0.51c-0.34-0.36-0.52-0.85-0.48-1.25c0.09-0.88,0.88-1.48,1.61-1.48 C88.65,103.15,89.58,103.62,89.67,104.54z M83.72,108c-0.01,0.09-0.02,0.19-0.04,0.28c-0.16,0.67-0.7,1.38-1.72,1.38 c-0.92,0-1.46-0.5-1.66-1.13c-0.06-0.16-0.09-0.32-0.1-0.49c-0.05-0.93,0.42-1.8,1.72-1.84C83.21,106.15,83.77,107.26,83.72,108z M69.59,92.87c0.03-0.8,0.5-1.68,1.76-1.76c1.26-0.09,2.01,0.88,1.93,1.97c-0.09,1.22-0.59,1.85-1.93,1.85 C70.01,94.93,69.55,94,69.59,92.87z M46.28,107.94c-1.1,0.14-1.48-0.78-1.52-1.43c-0.01-0.19,0.03-0.37,0.1-0.53 c0.21-0.44,0.69-0.77,1.23-0.77c0.57,0,1.06,0.26,1.27,0.76c0.06,0.15,0.11,0.3,0.12,0.49C47.52,107.15,47.39,107.8,46.28,107.94z M43.23,109.33c0.04,0.79-0.37,1.8-1.62,1.85c-1.24,0.05-1.74-1.11-1.66-1.89c0.06-0.58,0.39-1.03,0.81-1.28 c0.26-0.15,0.56-0.22,0.85-0.2c0.41,0.02,0.81,0.22,1.12,0.51C43.01,108.6,43.21,108.95,43.23,109.33z M39.44,104.93 c-0.02,0.38-0.12,0.76-0.32,1.07c-0.24,0.36-0.63,0.61-1.25,0.64c-0.6,0.03-1.01-0.26-1.27-0.63c-0.24-0.34-0.35-0.74-0.35-1.03 c0-0.6,0.72-1.52,1.62-1.52C38.61,103.46,39.49,104.1,39.44,104.93z M31.77,110.12c0.05,0.93-0.64,1.53-1.66,1.62 c-1.02,0.09-1.57-0.83-1.62-1.62c-0.04-0.79,0.51-1.67,1.62-1.76C31.26,108.27,31.74,109.42,31.77,110.12z M8.28,67.29 c-4.11-15.94,0.45-35.16,5.31-42.9c4.81-7.66,8.64-10.92,12.83-10.92h0.24c5.14,0.15,11.72,8.43,14.65,16.07 c2.75,7.17,2.73,13.25,2.73,13.29l-0.05,2.27C31.63,57.21,16.52,72.02,16.36,72.22c-0.62,0.76-0.01,1.17,0.5,1.17 s6.36-0.17,6.36-0.17l0.01-0.01l3.76-0.06v6.5l0.02-0.02c0.01,1.85,0.03,4.81,0.05,8.07C22.23,87.37,12.69,84.45,8.28,67.29z M7,112.87c0.02-1.35,0.4-3.34,3.4-4.96c2.09-1.13,4.71-1.64,6.46-1.75c0.42-0.02,1.98-0.04,4.46-0.06 c0.11,0.29,0.32,0.49,0.67,0.57c0.5,0.11,2.32,0.11,4.11,0.09c-0.07,0.22-0.15,0.43-0.21,0.67c-0.57,2.37-0.43,5.39,0.23,6.01 c0.81,0.77,5.77,0.49,12.53,0.44c6.28-0.05,11.47-0.02,12.18-0.01h-0.5l-0.03,3.89l-0.02,3.08c-16.45-0.05-27.59-0.15-31.09-0.29 C6.87,120.07,6.97,114.65,7,112.87z M110.51,120.77c-2.4,0.04-15.56,0.09-32.18,0.09v-3.06h-0.01v-3.87 c2.7,0.01,8.84,0.03,13.64,0.05c6.51,0.01,10.34-0.15,11.51-0.79c0.56-0.31,0.86-3.73-0.03-6.75c3.79,0.01,8.04,0.02,11.22,0 c2.66,0.91,6.61,2.91,6.56,6.77C121.19,115.23,121.12,120.58,110.51,120.77z"/>
    <path d="M96.76,86.44V84.5v-4.94c0-1.28-1.04-2.31-2.31-2.31H88.5v9.19h6.18H96.76z"/>
    <path d="M86.01,77.25h-6.45c-1.28,0-2.31,1.04-2.31,2.31v6.88h8.76V77.25z"/>
    <path d="M79.56,97.8h6.45v-8.76h-8.76v6.45C77.25,96.77,78.29,97.8,79.56,97.8z"/>
    <path d="M94.56,97.79c1.23-0.06,2.2-1.07,2.2-2.3v-6.45c0,0-1.31,0-2.11,0c-2.34,0-6.15,0-6.15,0v8.76h5.95 C94.49,97.8,94.52,97.79,94.56,97.79z"/>
    <path d="M51.02,79.56c0-1.28-1.04-2.31-2.31-2.31h-5.95v9.19h8.26V79.56z"/>
    <path d="M32.54,86.44c1.6,0,7.73,0,7.73,0v-9.19h-4.09h-2.36c-0.34,0-0.66,0.08-0.95,0.21c-0.8,0.36-1.36,1.17-1.36,2.1v1.33v5.55 C31.51,86.44,32.33,86.44,32.54,86.44z"/>
    <path d="M31.51,95.49c0,1.28,1.04,2.31,2.31,2.31h6.45v-8.76h-8.76V95.49z"/>
    <path d="M51.02,95.49v-6.45h-8.26v8.76h5.95C49.99,97.8,51.02,96.76,51.02,95.49z"/>
  </g>
</svg>