<svg viewBox="0 0 128 128" xmlns="http://www.w3.org/2000/svg">
  <path d="M124.14,11.44c0-4.15-3.37-7.52-7.52-7.52H11.32c-4.15,0-7.52,3.37-7.52,7.52v105.3c0,4.15,3.37,7.52,7.52,7.52h105.3 c2.08,0,3.96-0.84,5.32-2.2c1.4-1.38,2.21-3.34,2.2-5.32C124.14,116.74,124.14,11.44,124.14,11.44z M6.8,63.22l0.02-14.75 c6.26-2.61,33.14-8.16,46.41-4.79C38.83,57.09,14.71,67.95,6.8,68.2V63.22z M61.01,45.33v12.64c-5.71,4.1-11.82,7.7-17.11,10.44 l0.12-14.48c3.81-2.67,8.07-6.08,12.25-9.69C58.11,44.61,59.72,45,61.01,45.33z M59.08,41.77c0.65-0.59,1.3-1.18,1.93-1.76v2.22 C60.37,42.08,59.73,41.91,59.08,41.77z M61.01,60.92V86.5c-2.21-1.15-4.67-1.98-7.14-2.39l0.09-18.6 C56.27,64.1,58.62,62.57,61.01,60.92z M51.95,66.71l-0.08,17.13c-2.68-0.31-5.83-0.04-8.11,0.58l0.11-13.3 C46.47,69.81,49.17,68.34,51.95,66.71z M24.1,76.84c-0.13-0.06-0.27-0.11-0.41-0.17l0.23-11.22C29.13,63.17,35.2,59.93,42,55.32 l-0.11,14.11C34.9,72.91,28.76,75.27,24.1,76.84z M41.87,72.12l-0.11,12.92c-3.11,1.13-4.81,2.56-4.81,2.56s-0.87-1.32-2.52-3.12 l0.18-9.07C36.89,74.45,39.32,73.36,41.87,72.12z M32.6,76.25l-0.13,6.26c-1.48-1.38-3.32-2.84-5.47-4.14 C28.71,77.76,30.59,77.06,32.6,76.25z M6.8,70.61c3.02-0.41,8.2-1.48,15.1-4.31l-0.19,9.61c-4.94-1.72-10.6-2-14.91-0.77V70.61z M11.32,121.26c-2.44,0.02-4.53-2.02-4.52-4.52c0,0,0-38.46,0-38.46c13.87-4.24,25.73,6.8,29.5,13.74 c6.91-7.21,20.06-7.18,28.86,0.94c-13.4,2.96-26.65,15.65-31.03,28.3H11.32z M64.51,46.35l2.64,0.9l1.09-2.57 c0.03-0.07,2.09-4.82,6.88-9.26l-0.02,7.11l-0.98,0.06l0.02,3.26c-3.21,3.69-6.92,7.33-11.13,10.61V45.89 C63.95,46.16,64.48,46.34,64.51,46.35z M63.01,42.76v-4.62c5.22-4.94,9.25-9.43,12.14-14.72l-0.02,8.04 c-6.82,5.38-9.65,12.05-9.65,12.05C64.68,43.24,63.83,43,63.01,42.76z M74.17,49.42v42.61c-0.91-0.07-1.9-0.06-2.87-0.01l-0.1-39.54 C72.22,51.47,73.22,50.45,74.17,49.42z M69.2,54.38l0.1,37.81c-0.15,0.02-0.31,0.04-0.46,0.06c-1.77-1.73-3.71-3.28-5.83-4.61V59.49 C65.2,57.87,67.27,56.15,69.2,54.38z M121.14,116.75c0,0.59-0.11,1.17-0.33,1.7c0,0.01-0.01,0.02-0.01,0.02 c-0.64,1.56-2.2,2.7-3.89,2.76c-0.26,0.09-79.25,0-79.54,0.03c2.16-5.14,7.26-14.48,17.59-20.72c9.89-5.66,17.13-6.77,24.1-4.42 c5.46-10.3,20.98-27.15,42.08-20.96V116.75z M89.98,36.23l-0.04,6.31h-6.67c0-1.59-0.01-3.14-0.01-4.65 c1.26-1.85,2.39-3.65,3.4-5.35C87.72,33.79,88.83,35.04,89.98,36.23z M87.94,30.32c0.28-0.49,0.54-0.97,0.8-1.44 c0.77,0.02,1.29,0.03,1.29,0.03L90,32.73C89.3,31.93,88.61,31.13,87.94,30.32z M83.3,63.21c0-4.41-0.01-8.93-0.02-13.35h6.65v13.35 H83.3z M89.66,70.64v8.31c-2.45,1.97-4.58,4.1-6.33,6.07c0-4.03-0.01-8.96-0.02-14.32L89.66,70.64z M83.25,33.52 c0-1.62-0.01-3.15-0.01-4.71h0.44c0.45,0.58,0.9,1.16,1.36,1.74C84.48,31.51,83.89,32.5,83.25,33.52z M97.91,40.43 c0.01-2.5,0.02-7.06,0-11.5c0.75,0.14,3.05,1.08,3.74,1.32l0.25-0.9c2.72,2.95,6.48,6.69,9.84,9.58l-0.02,12.98 C108.36,49.44,103.57,45.56,97.91,40.43z M111.71,54.87l-0.03,16.06c-1.67,0.06-3.51,0.24-5.51,0.59l0.12-20.77 C108.42,52.46,110.25,53.84,111.71,54.87z M104.3,49.13l-0.13,22.79c-1.8,0.38-3.72,0.91-5.44,1.62V44.38 C100.72,46.14,102.58,47.72,104.3,49.13z M98.79,26.06c-0.02-0.01-0.04-0.01-0.06-0.02c-0.15-0.03-0.33-0.07-0.52-0.12 c-0.1-0.01-0.2-0.04-0.31-0.06c-0.01-0.38-0.01-0.74-0.01-1.11c0.36,0.44,0.74,0.9,1.14,1.37C98.96,26.1,98.88,26.08,98.79,26.06z M113.68,70.91l0.03-14.7c1.75,1.11,3.76,2.23,5.56,3.18l-0.06,12.13C117.7,71.2,115.86,70.96,113.68,70.91z M121.14,57.65 c-2.16-1.11-5.09-2.69-7.42-4.31l0.02-12.72c2.75,2.29,5.44,4.4,7.4,5.91V57.65z M121.14,43.48c-5.32-3.94-13.99-11.63-18.39-16.76 c2.09-4.27,12.61-8.26,18.39-4.9V43.48z M121.14,18.57c-6.72-3.01-17.53,1.16-20.43,5.81c-1.12-1.32-2.08-2.52-2.88-3.54 c-0.04-2.17-0.11-3.63-0.21-3.71c-0.06-0.05-2.15-0.03-3.37-0.01C94.76,17.1,95,17.09,95,17.09c0.53-3.84-3.53-4.72-3.1-0.01 l-1.7-0.02l-0.02,2.78c-0.15,0.51-4.26,2.4-6.97,1.45c-0.02-2.67-0.03-4.25-0.05-4.31c-0.01-0.04-1.02-0.04-2.1-0.02 c0.41-4.18-3.5-4.17-3.07,0.06h-0.07v-0.01c-0.41-0.02-2.15,0.03-2.76,0.03v1.32c-1.31,5.58-11.55,16.51-19,22.79 c-15.79-3.91-39.67,0.79-49.36,4.18V11.44c0-2.49,2.03-4.52,4.52-4.52h105.3c2.49,0,4.52,2.03,4.52,4.52V18.57z"/>
</svg>