<svg viewBox="0 0 128 128" xmlns="http://www.w3.org/2000/svg">
  <g>
    <path d="M127,80.9l-18.9-16.8c0-0.1,0-0.2,0.1-0.3L127,47.1L102.2,42l-0.1-0.1l8-24l-24,8L86,25.8L80.9,1L64,20h0L47.1,1L42,25.9 c0,0,0,0-0.1,0l-24.1-8l8,24c0,0-0.1,0.1-0.1,0.1L1,47.1L20,64l0,0L1,80.9L25.9,86l0,0l-8,24.1l24-8l0.1,0.1l5.1,24.8L64,108H64 l16.9,19l5.1-24.9l0.1,0l24.1,8l-8-24l0.1-0.1L127,80.9z M100.2,86.7l6.8,20.2l-20.3-6.8c-0.2-0.1-0.4-0.1-0.6-0.1 c-0.3,0-0.7,0.1-1,0.3l-0.1,0c-0.5,0.3-0.9,0.8-1,1.3l-4.3,20.9l-14.2-16c-0.4-0.4-1-0.7-1.5-0.7c-0.6,0-1.1,0.2-1.5,0.7l-14.2,16 L44,101.8c-0.1-0.5-0.3-0.9-0.7-1.2l-0.1-0.1c-0.4-0.3-0.8-0.4-1.2-0.4c-0.2,0-0.4,0-0.6,0.1L21.1,107l6.8-20.3 c0.2-0.5,0.1-1.1-0.1-1.6c-0.3-0.5-0.8-0.9-1.4-1.1l-21-4.3l16-14.2c0.3-0.3,0.5-0.7,0.6-1.1l0,0c0.1-0.7-0.1-1.4-0.6-1.9l-16-14.2 L26.2,44c0.4-0.1,0.7-0.3,1-0.5c0.1-0.1,0.1-0.1,0.2-0.2c0.5-0.5,0.6-1.3,0.4-2L21.1,21l20.3,6.8c0.2,0.1,0.4,0.1,0.6,0.1 c0.3,0,0.6-0.1,0.9-0.2l0.1,0c0.5-0.3,0.9-0.8,1.1-1.4l4.3-21l14.2,16c0.4,0.4,0.9,0.7,1.5,0.7c0.6,0,1.1-0.2,1.5-0.7l14.2-16 L84,26.2c0.1,0.5,0.4,1,0.8,1.3l0.1,0.1c0.3,0.2,0.7,0.3,1.1,0.3c0.2,0,0.4,0,0.6-0.1l20.2-6.8l-6.7,20.3c-0.2,0.5-0.1,1.1,0.2,1.6 l0.1,0.1c0.3,0.5,0.8,0.8,1.3,1l20.9,4.3l-15.8,14c-0.3,0.3-0.5,0.7-0.6,1.1l-0.1,0.3c-0.1,0.7,0.1,1.4,0.6,1.9l15.9,14.1L101.8,84 c-0.6,0.1-1,0.5-1.3,1l-0.1,0.1C100.1,85.6,100,86.2,100.2,86.7z"/>
    <path d="M52,54.4c0-3.4-2.3-6.2-5.2-6.2c-2.9,0-5.3,2.7-5.3,6.1c0,3.4,2.3,6.2,5.2,6.2S52,57.8,52,54.4z"/>
    <ellipse cx="81.2" cy="54.3" rx="5.2" ry="6.2"/>
    <path d="M75.8,75.7c-1.7,1.1-5.3,3.7-11.8,3.7s-10.4-2.5-12-3.9c-0.7-0.6-1.7-1.1-2.3-0.6c-0.7,0.5-0.8,1.5-0.3,2.3 c1.8,2.9,6.7,7.1,14.6,7.3c7.9-0.1,12.8-4.4,14.7-7.3c0.4-0.6,0.4-1.5,0-2C78,74.6,76.8,75,75.8,75.7z"/>
    <path d="M70.2,69.6c2.5-3.4,2.5-6.8-2.3-14.1c-2.8-4.2-1-8,0.8-9.2c0.9-0.6,1.8-1.9-1-1.7C64,45,60.9,51,63.4,56.5 c2.4,5.3,4.3,7,2.7,10c-0.8,1.6-3.9,1.8-5.8,1.3c-1.5-0.4-2.8,0.3-1.4,1.7C62.8,73.5,68.5,71.8,70.2,69.6z"/>
  </g>
</svg>