<svg viewBox="0 0 128 128" xmlns="http://www.w3.org/2000/svg">
  <g>
    <path d="M123.07,38.34c-2.97-7.06-7.65-14.7-15.75-16.19c0,0-0.91-0.32-1.33-0.4c-2.37-0.58-4.82-0.79-7.26-0.74 c-0.2-4.62-3.82-2.77-4.48-0.66c0,0-1.13-4.36-3.23-4.68c-1.81-0.2-5.24,2.01-5.36,4.34c-1.12-2.01-4.06-2.07-6.11-3.08 c-6.2-2.6-13.02-3.71-19.75-3.38C24.31,14.99-1.04,55.43,4.17,86.91c1.48,11.64,7.26,26.34,20.7,27.26 c4.72,0.7,10.89,0.64,15.66-0.99v0.01c0,0,0.01-0.01,0.04-0.01c13.97-3.25,21.72-14.72,38.49-25.8 C102.95,73.26,135.05,73.52,123.07,38.34z M81.74,21.3c0.12,0.06,0.23,0.12,0.33,0.18c0.52,0.67,0.74,3.51,0.44,5.33 c-1.38,1.05-2.75,2.18-4.11,3.38c-1.68,0.35-3.34,0.14-3.82-0.69c-0.87-1.51-0.34-7.25,0.73-7.91 C76.3,20.99,80.59,21.02,81.74,21.3z M14.13,84.11l-0.01-0.01c0,0-0.37,2.41-0.4,3.85c-0.06,2.76,1.7,5.36,1.7,5.36 s-0.08,0.81-0.16,1.88c-1.62,0.69-3.19,4.33-2.23,6.91c-7.45-8.54-7.48-25.63-4.88-36.97c7.12-29.71,36.64-56.58,67.05-46.6 c-3.09,1.09-6.02,4.92-5.82,6.11c-1.04,0.56-2.21,1.34-3.15,2.24c-0.74-6.67-5.35-4.02-5.79,1.08c-0.82-1.93-2.36-4.5-3.63-4.79 c-1.79-0.37-6.72,6.15-6.08,8c-1.92-0.87-6.67-1.07-7.62-0.62c-1.66-1.07-4.6-2.54-6.06-2.05c-1.78,0.59-3.23,7.99-2.34,8.79 c0,0.01,0,0.02-0.01,0.03c-0.75,1.5-1.06,3.09-1.14,4.56c-0.13-3.14-6.57-0.12-7.33,1.65c-0.19,0.64-0.61,4.85,0.07,6.39 c-3.06,1.75-5.88,3.85-6.82,5.51c-4.21,1.26-4.73,5.07-4.06,7.78c-0.95,0-1.77-0.02-1.77-0.02c-1.78,0-1.05,2.9-0.81,4.52 c0.17,1.15-0.06,2.55,0.56,3.31c-2.59,2.78-0.72,7.55,2.19,10.17C15.51,81.3,14.4,82.74,14.13,84.11z M46.66,46.81 c-0.65-0.32-3.31-2.45-2.99-4.03c0.32-1.61,3.38-2.82,5.01-2.59c1.61,0.25,3.96,3.47,3.55,4.36c-0.41,0.89-2.1,1.78-2.1,1.78 s5.4,0.08,6.29,1.21c0.88,1.13-0.73,8.39-1.78,9.92c-1.05,1.53-7.34,0.64-8.55,0.08c-1.84-1.46,1.95-9.19,2.51-10.41 C48.6,47.13,47.31,47.13,46.66,46.81z M46.33,36.97c-0.16-1.05,1.45-3.63,2.35-4.12c0.88-0.48,3.47,0.32,3.95,0.81 c0.48,0.49-0.08,5.41-2.02,5.73S46.54,38.35,46.33,36.97z M56.25,36.41c0.32-1.13,2.1-1.54,2.91-2.09c0.8-0.57,2.9-2.1,4.11-1.94 c1.21,0.16,5.41,4.6,4.68,6.05c-0.73,1.45-5.97,5-7.99,4.68C57.73,42.75,55.59,38.71,56.25,36.41z M31.97,80.3 c0.49,1.53-0.32,7.18-1.37,8.23c-1.05,1.05-2.74,0.57-4.44-0.24c-1.7-0.81-3.15-1.03-3.23-3.15c-0.08-2.26,2.45-6.25,3.55-6.62 C28.15,78.13,31.17,78.58,31.97,80.3z M25.62,70.63c0.02-1.29,2.62-2.61,3.81-3.41c2.03-1.3,2.86-1.84,4.41-2.25 c1.45-0.7,5.51,5.56,4.98,5.62c-1.56,1.82-6.87,6.02-9.42,6.61C27.94,77.16,25.87,73.88,25.62,70.63z M14.3,73.2 c0.44-1.81,5.89-3.36,7.32-3.44c1.12,0.61,2.79,4.25,3.49,5.97c-0.26,1.92-6.23,5.45-6.82,4.77C15.29,79.34,13.8,75.27,14.3,73.2z M40.72,45c-1.05,0.37-4.59-1.94-4.59-2.71c-0.36-1.05,0.06-3.62,0.51-4.38c0.78-0.55,4.56-0.88,5.36-0.34 C42.29,39.1,41.47,44.38,40.72,45z M31.18,109.79c-2.3,0.35-1.69-3.21-1.56-3.63c0,0-1.76,0.73-2.91,0.91 c-1.15,0.18-2.3-0.12-3.82-0.67c-1.52-0.55-1.7-6.79-1.58-7.64c0.12-0.85,2.42-2.31,3.15-2.67c0.73-0.37,3.76-0.91,4.91,0.24 c1.15,1.15,1.7,6.73,1.7,6.73c1.17-0.76,5.4-3.72,7.27-0.22C36.62,105.7,33.78,108.8,31.18,109.79z M112.84,59.05 c-7.58,8.61-22.26,12.89-30.78,18.24c-8.53,5.34-16.37,13.57-18.9,16.53c-7.06,9.48-16.09,15.26-27.26,17.38 c13.69-10.57,17.43-39,31.11-62.18c9.97-16.47,21.53-25.85,37.02-24.54c3.86,0.33,7.67,1.5,10.54,5.39c2.16,2.55,4,5.48,5.44,8.96 C120.36,45.26,118.33,52.82,112.84,59.05z"/>
    <path d="M59.05,76.51c-3.1-0.73-4.37,6.6-0.96,6.76C61.54,83.56,62.28,76.96,59.05,76.51z"/>
    <path d="M57.73,91.13c-2.6-1.33-5.14,3.67-2.8,5.07C57.33,97.76,60.24,92.43,57.73,91.13z"/>
    <path d="M62.87,88.7c3.18,1.77,7.04-5.46,4.41-7.2C64.34,79.72,59.55,86.69,62.87,88.7z"/>
  </g>
</svg>