<svg viewBox="0 0 128 128" xmlns="http://www.w3.org/2000/svg">
  <path d="M118.24,59.07c-0.02-0.11-0.72-3.9-1.69-9.22c-0.98-5.31-2.23-12.16-3.34-18.38c-2.43-13.5-6.2-25.53-6.2-25.53 S101.33,3.18,92,3.18c-1.95,0-4.07,0.12-6.32,0.41c-11.43,1.48-18.75,9.07-29.66,11.47c-2.59,0.57-4.8,0.77-6.86,0.77 c-4.96,0-9.03-1.17-15.51-1.17c-1.08,0-2.23,0.03-3.47,0.11c-4.43,0.27-6.86,1.45-7.73,1.82c-1.3,0.55-4.29,2.52-4.35,2.56 c-0.06-0.5-0.19-1.57-0.21-1.7c-0.15-1.18-0.48-3.07-1.61-4.31c-0.06-0.07-0.13-0.14-0.21-0.21c-0.75-0.71-1.81-1.14-3.31-0.99 c-4.04,0.41-3.82,4.76-3.43,6.79c0.22,1.15,13,102.42,13.17,103.52c0.03,0.17,0.08,0.34,0.15,0.51c0.07,0.17,0.17,0.34,0.28,0.5 c0.06,0.09,0.12,0.17,0.19,0.24c0.13,0.16,0.28,0.31,0.45,0.45c0.87,0.72,2.16,1.2,3.55,1.06c2.34-0.23,3.71-2.05,3.66-3.78 c0-0.02,0-0.07-0.01-0.13c0-0.04-0.01-0.09-0.02-0.16c-0.01-0.16-0.04-0.37-0.07-0.65c-0.01-0.1-0.03-0.22-0.04-0.35 c-0.08-0.71-4.22-34.32-4.41-35.81c0.38-0.44,3.08-3.29,9.68-3.29h0.47c2.12,0.04,4.69,0.25,7.69,0.25c4.4,0,9.73-0.45,15.92-2.52 c13.82-4.63,21.48-12.51,36.58-15.15c3.82-0.67,7.53-0.87,10.78-0.87c5.11,0,9.08,0.5,10.6,0.5c0.4,0,0.62-0.03,0.66-0.12 C118.82,62.44,118.29,59.07,118.24,59.07z M107.35,59.55c-4.02,0-7.82,0.31-11.3,0.91c-9.3,1.63-15.99,5.19-22.47,8.62 c-4.45,2.36-9.04,4.8-14.54,6.65c-6.34,2.12-11.58,2.36-14.97,2.36c-1.78,0-3.44-0.07-4.91-0.14c-0.96-0.05-1.86-0.09-2.72-0.11 h-0.53c-5.05,0-8.27,1.45-10.12,2.74c-2.81-22.55-6-48.01-7.25-57.99l1.32-1c0.72-0.49,2.97-1.91,3.76-2.24l0.24-0.1 c0.87-0.38,2.92-1.26,6.51-1.49c1.12-0.07,2.19-0.1,3.28-0.1c3.28,0,5.91,0.32,8.45,0.62c2.35,0.28,4.57,0.55,7.06,0.55 c2.47,0,4.93-0.27,7.5-0.84c5.42-1.19,9.93-3.53,14.3-5.79c4.87-2.52,9.47-4.91,15.11-5.63c1.98-0.26,3.98-0.39,5.93-0.39 c6.14,0,10.58,1.29,12.55,2c1.03,3.48,3.8,13.25,5.71,23.82c2.25,12.52,5,27.46,5.03,27.61l0.05,0.28 C113.38,59.74,110.56,59.55,107.35,59.55z"/>
</svg>