<svg viewBox="0 0 128 128" xmlns="http://www.w3.org/2000/svg">
  <g>
    <polygon points="47.91,32.72 50.42,32.72 50.44,25.13 47.84,25.14 "/>
    <rect height="7.59" width="2.37" x="32.41" y="25.13"/>
    <rect height="7.59" width="2.47" x="37.46" y="25.13"/>
    <polygon points="42.85,25.13 42.85,32.72 45.28,32.7 45.31,25.13 45.27,25.13 "/>
    <rect height="7.59" width="2.37" x="32.41" y="37.13"/>
    <rect height="7.59" width="2.47" x="37.46" y="37.13"/>
    <polygon points="42.85,44.72 45.28,44.7 45.31,37.13 42.85,37.13 "/>
    <rect height="7.59" width="2.37" x="32.41" y="49.13"/>
    <rect height="7.59" width="2.47" x="37.46" y="49.13"/>
    <rect height="3.94" width="2.88" x="105.55" y="81.2"/>
    <rect height="3.94" width="2.88" x="111.3" y="81.2"/>
    <rect height="3.94" width="2.88" x="105.55" y="73.83"/>
    <rect height="3.94" width="2.88" x="111.3" y="73.83"/>
    <rect height="3.94" width="2.88" x="105.55" y="66.83"/>
    <rect height="3.94" width="2.88" x="111.3" y="66.83"/>
    <path d="M116.62,3.92H11.32c-4.15,0-7.52,3.37-7.52,7.52v105.3c0,4.15,3.37,7.52,7.52,7.52h105.3c2.33,0,4.42-1.07,5.8-2.73 c0.31-0.37,0.58-0.77,0.81-1.2c0.58-1.07,0.91-2.29,0.91-3.59V11.44C124.14,7.29,120.77,3.92,116.62,3.92z M5.71,33.59h1.76v3.7 H5.71V33.59z M5.71,41.03h1.76v3.7H5.71V41.03z M5.71,48.46h1.76v3.7H5.71V48.46z M5.71,55.89h1.76v3.7H5.71V55.89z M5.71,63.32 h1.76v3.7H5.71V63.32z M35.68,118.56H5.71v-2.35h29.97V118.56z M35.68,110.21H5.71v-2.35h29.97V110.21z M35.68,101.56H5.71v-2.35 h29.97V101.56z M35.68,93.21H5.71v-2.35h29.97V93.21z M35.68,83.56H5.71v-2.35h29.97V83.56z M35.68,75.21H5.71v-2.35h29.97V75.21z M13.47,41.03v3.7h-1.76v-3.7H13.47z M11.71,37.29v-3.7h1.76v3.7H11.71z M13.47,48.46v3.7h-1.76v-3.7H13.47z M13.47,55.89v3.7 h-1.76v-3.7H13.47z M13.47,63.32v3.7h-1.76v-3.7H13.47z M17.19,67.83v-16.7h4.98v16.7H17.19z M52.07,102.46H49.8V97.7h2.27V102.46z M52.07,87.27H49.8v-4.76h2.27V87.27z M52.07,78.27H49.8v-4.76h2.27V78.27z M52.07,69.27H49.8v-4.76h2.27V69.27z M53.35,29.87 h-0.98l-2.32,7.26l-2.21,0.01l0.04,3.89h-1.87v15.41h-0.73l0.03-7.31h-2.46v7.59l0.68-0.01v7.17h2.48v39h-7.18V67.83h-8.18V20.84 h27.54v9.03h-2.28v-4.74h-2.55L53.35,29.87z M57.45,102.46h-2.27V97.7h2.27V102.46z M57.45,87.27h-2.27v-4.76h2.27V87.27z M57.45,78.27h-2.27v-4.76h2.27V78.27z M57.45,69.27h-2.27v-4.76h2.27V69.27z M58.67,47.04v6.92h-4.66c0.06,0-0.09-6.98-0.09-6.98 s0.03-2.66,2.4-2.6C58.84,44.44,58.67,47.04,58.67,47.04z M62.63,102.46h-2.27V97.7h2.27V102.46z M62.63,87.27h-2.27v-4.76h2.27 V87.27z M62.63,78.27h-2.27v-4.76h2.27V78.27z M62.63,69.27h-2.27v-4.76h2.27V69.27z M70.78,102.88h-5.04V86.25h5.04V102.88z M78.64,119.59h-2.27v-3.09h2.27V119.59z M78.64,110.12h-2.27v-3.09h2.27V110.12z M78.64,100.12h-2.27v-3.09h2.27V100.12z M78.64,90.67h-2.27v-3.09h2.27V90.67z M78.64,80.67h-2.27v-3.09h2.27V80.67z M82.12,73.85h-2.27v-9.69h2.27V73.85z M89.49,60.43 v-6.51h-8.16v1.48c-1.09-1.83-1.72-3.95-1.72-6.23c0-6.76,5.5-12.26,12.26-12.26s12.26,5.5,12.26,12.26 c0,6.03-4.37,11.04-10.11,12.06v-0.8H89.49z M84.15,64.16h2.27v9.69h-2.27V64.16z M86.46,119.59h-2.27v-3.09h2.27V119.59z M86.46,110.12h-2.27v-3.09h2.27V110.12z M86.46,100.12h-2.27v-3.09h2.27V100.12z M86.46,90.67h-2.27v-3.09h2.27V90.67z M86.46,80.67h-2.27v-3.09h2.27V80.67z M90.63,73.85h-2.27v-9.69h2.27V73.85z M94.28,119.59h-2.27v-3.09h2.27V119.59z M94.28,110.12h-2.27v-3.09h2.27V110.12z M94.28,100.12h-2.27v-3.09h2.27V100.12z M94.28,90.67h-2.27v-3.09h2.27V90.67z M94.28,80.67h-2.27v-3.09h2.27V80.67z M99.13,92.1v-5.85h5.17V64.39h10.54C114.87,76.7,115,92.1,115,92.1H99.13z M121.14,49.4H115 c-0.13,0.26-0.17,5.9-0.16,12.99H102.3v21.86h-3.17V68.1h-5.11v-4.85c6.84-1.04,12.11-6.95,12.11-14.08 c0-7.86-6.4-14.26-14.26-14.26s-14.26,6.4-14.26,14.26c0,3.69,1.42,7.04,3.72,9.57v2.02h-5.19v7.17h-5.36v16.32h-5.04V63.88h2.35 v-7.44h-2.35V41.03h-2.65l-2.9-8.97V18.84H28.65v48.99h-4.48v-18.7h-6.98V28.47c0,0-6.44-0.04-10.39-0.06V11.44 c0-2.49,2.03-4.52,4.52-4.52h105.3c2.49,0,4.52,2.03,4.52,4.52V49.4z"/>
  </g>
</svg>