<svg viewBox="0 0 128 128" xmlns="http://www.w3.org/2000/svg">
  <g>
    <path d="M109.9,50.1c-3.1-1.8-7.2,0.3-9.9,4.9c-2.7,4.6-2.4,9.2,0.7,11c3.1,1.8,7.2-0.3,9.9-4.9 C113.3,56.5,113,51.8,109.9,50.1z"/>
    <path d="M97.7,71.3c-3.1-1.8-7.2,0.3-9.9,4.9c-0.7,1.2-1.2,2.5-1.5,3.6c-0.8,3.2,0,6.1,2.2,7.4 c3.1,1.8,7.2-0.3,9.9-4.9c0.6-1,1-2.1,1.3-3.1C100.8,75.7,100,72.6,97.7,71.3z"/>
    <path d="M85.4,92.4c-1.5-0.9-3.4-0.8-5.1,0.1c-1.7,0.9-3.4,2.5-4.8,4.8c-2.7,4.6-2.4,9.2,0.7,11 c1.4,0.8,3.1,0.8,4.8,0.1c1.9-0.8,3.7-2.5,5.1-5C88.8,98.8,88.5,94.2,85.4,92.4z"/>
    <path d="M18.1,50.1c-3.1,1.8-3.4,6.4-0.7,11c2.7,4.6,6.8,6.7,9.9,4.9c3.1-1.8,3.4-6.4,0.7-11 C25.3,50.4,21.1,48.3,18.1,50.1z"/>
    <path d="M52.4,97.3c-1.3-2.3-3-3.9-4.7-4.8c-1.8-0.9-3.6-1-5.2-0.1c-3.1,1.8-3.4,6.4-0.7,11c1.5,2.5,3.4,4.3,5.3,5.1 c1.6,0.6,3.2,0.6,4.5-0.2C54.8,106.5,55.1,101.9,52.4,97.3z"/>
    <path d="M60.8,37.7c5.3,0.7,11.3-1.2,12.9-4.3s-1.5-6.3-6.8-7c-5.2-0.7-11,1.2-12.6,4.4C52.7,33.9,55.5,37,60.8,37.7z"/>
    <path d="M118.6,51.4c-0.1-9.9-4.6-23-13.5-27.3l-26-12.4c-4.7-2.7-9.9-4-15.1-4c-5.2,0-10.4,1.3-15.1,4L22.9,24 c-9,4.4-13.5,17.9-13.5,27.8v30.7c0,7.6,3.9,14.5,10.3,18.3l27,15.8c0.7,0.4,1.5,0.7,2.2,1c0,0,0,0,0,0c0.3,0.1,0.6,0.3,1,0.4 c4.5,1.8,10.2,2.4,14.1,2.4c4,0,9.9-0.7,14.4-2.5c0.3-0.1,0.6-0.2,1-0.4c0,0,0,0,0,0c0.6-0.2,1.3-0.5,1.9-0.9l27-15.8 c6.4-3.7,10.3-10.7,10.3-18.3V52.3C118.7,52,118.7,51.7,118.6,51.4z M24.6,27.6l26-12.4l0.1-0.1l0.1-0.1c4-2.3,8.5-3.5,13.1-3.5 c4.6,0,9.1,1.2,13.1,3.5l0.1,0.1l0.1,0.1l26,12.4c2.4,1.1,4.2,3.1,5.7,5.2c-0.7,1.4-2,2.8-3.9,3.9L75.7,53.4 c-7.3,4.1-16.2,4.1-23.5,0L22.9,36.7c-1.9-1.1-3.2-2.5-3.9-3.9C20.6,30.5,22.5,28.7,24.6,27.6z M48.7,113.2l-27-15.8 c-5.2-3-8.4-8.7-8.4-14.8V51.9c0-3.1,0.5-6.4,1.4-9.6c3.4-2.2,8-2.7,12-0.3l25.7,15c6.3,3.7,10.2,10.5,10.2,18v32.2 c0,3.8-1.8,6.9-4.4,8.8c-2.6-0.4-5.2-1-7.5-1.9l0,0l-0.3-0.2l-0.3-0.1C49.5,113.6,49.1,113.4,48.7,113.2z M114.7,82.6 c0,6.1-3.2,11.8-8.4,14.8l-27,15.8c-0.3,0.2-0.7,0.4-1.2,0.5l-0.3,0.1l-0.3,0.1c0,0,0,0,0,0c-2.2,1-5.1,1.6-7.8,2 c-2.6-1.9-4.4-5.1-4.4-8.8V74.9c0-7.4,3.9-14.3,10.2-18l25.7-15c4-2.4,8.5-1.9,12,0.3c0.8,3,1.3,6.2,1.4,9.2l0,0.1l0,0.1 c0,0.2,0,0.4,0,0.6V82.6z"/>
  </g>
</svg>