<svg viewBox="0 0 128 128" xmlns="http://www.w3.org/2000/svg">
  <g id="Layer_2_00000025431448649515780790000013327622174884813722_">
    <path d="M111.7,26.9c-0.1-0.4-0.4-1-0.8-1.7c-0.5-0.8-1.9-1.6-1.9-1.6s-0.2,0-0.3-0.1c-3.6-6.4-11-11.9-18.4-14c0,0-0.2,0-0.3-0.1 c0.1-0.1-2.9-3-5.8-2.5l0,0c-0.8-0.4-1.8-0.9-2.8-1.4c0.1,0,0.1,0,0.1,0S77,3.3,70.4,3.3c-0.5,0-1.1,0-1.7,0 c-2.9,0.2-5.6,0.6-7.8,1.1C60.4,4.4,55,3,50.1,6.5h-0.4c-2.1,0-6.2,0.3-11,2.4c-3.9,1.7-8,4.6-10.8,6.8c-1.4,0.6-5.2,2.5-7.6,6.5 c-0.5,0.8-0.8,1.5-1.2,2.1l-2.9,3.1c-2.1,0.2-3,2.9-3.1,3.5c-1.2,1.5-2.8,3.7-4,6.1C7,41.6,5.9,47.7,5.5,53.7 c-0.1,1.3-0.4,1.9-0.4,1.9l0,0C2,62.6,3.7,73.5,6.3,78l0,0c-0.1,1.6,0,4.6,2,9.1c1.5,3.3,3,7.2,6.8,10.9c0.1,0.3,0.8,4,3.6,5.4 c0.2,0.1,0.3,0.2,0.5,0.2c1.4,2.1,3,4.4,4.4,5.8c2.4,2.4,6.4,5,6.4,5s0,0,0.1,0c2.6,2.9,7.1,3.8,7.1,3.8c1.7,0.8,3.6,1.7,5.5,2.4 c3.8,1.4,7.3,1.7,9.5,1.7h0.2c3.7,1.4,6.9,1,6.9,1l0,0c1.6,0.2,3.6,0.4,6.1,0.4c1.7,0,3.7-0.1,5.9-0.2c5.4-0.4,9.4-1.5,12.3-2.7 c0.3,0,0.6,0,0.9,0l0,0c0.1,0,0.3,0,0.6-0.1h0.1c1-0.2,3.2-0.8,5.9-2.3c14-4.3,33.2-23.4,34-50.7C125.5,52.3,119.7,35.3,111.7,26.9 z M84.6,10.5L84.6,10.5c5.8,1.3,15.5,6.1,20.2,12.5c-2.3,0.1-5.6,0.6-10,2.3c-9.4,3.7-15.6,12-17.6,15.1 c-3.4-0.3-13.7-1.2-25.8-3.6c2.3-4.1,8-13,16.7-18.8C74.7,13.9,80.6,11.7,84.6,10.5z M52.8,9.4c0,0,9.1-2.7,16-3.1c0.5,0,1,0,1.5,0 c3.6,0,6.6,0.8,8.2,1.3l1.1,0.5c-4.2,1.4-9,3.6-13.7,6.7C55.4,21.7,49.2,32.3,47.3,36c-2.9-0.6-5.9-1.4-8.9-2.2 c-1-0.3-1.9-0.5-2.8-0.8c1.4-3.5,4.5-10.6,8.4-15.3C47,14.2,50.1,11.5,52.8,9.4z M23.2,24.4c1.5-3,11-10.5,16.8-12.8 c2.3-0.9,4.4-1.5,6.1-1.8c-1.7,1.6-3.4,3.4-5.1,5.4c-4.4,5.4-7.8,13.2-9.2,16.8c-4.4-1.3-7.9-2.4-10.7-3.3 C21.7,27.5,22.4,25.9,23.2,24.4z M16.3,31.9c3.2,1,9.5,2.8,21.1,6c18.1,5,36.1,6.5,40.1,6.8c1.7,2,7,9.7,7.7,25.6 c-6-0.7-24.8-3.1-53.1-10.1c-12.5-3.1-19.8-5.9-23.4-7.5C8.6,48.1,10.9,37.4,16.3,31.9z M7.8,56.9c3.3,1.5,10.2,4,23.2,7.2 c29.3,7.2,48.6,9.6,54.2,10.2c0,1,0,2-0.1,3c-0.2,4-0.7,7.6-1.4,10.8c-6.2,1.2-30.3,5.2-56.2-3.2c-7.7-2.5-14.6-6.2-18.8-8.6 C6.2,70.5,5.3,62.7,7.8,56.9z M24.7,106.2c1,0.6,1.7,0.8,2.5,1.3c0.1,0.4,0.1,1,0.3,1.7C26.7,108.6,25.1,107.1,24.7,106.2z M21,101 c-4.4-5.9-9.4-11.5-11.5-19.5c3.2,1.9,8.8,4.8,16.7,7.3C39.3,93,51.8,94.3,62,94.3c9.2,0,16.5-1,20.6-1.8 c-3.7,12.3-10.3,17.6-10.8,18c-3.5,0.3-17.4,1.1-35.9-4C30.2,104.9,24.9,102.8,21,101z M33.4,112.9c-0.9-1.1-1.7-3-1.9-4.1 c1.2,0.4,2.3,0.7,3.5,1.1c2.4,0.7,4.6,1.2,6.8,1.7c0.8,1.5,5,7,5.5,7.3C44.3,118.4,35.7,114.5,33.4,112.9z M54,119.7 c-2.9-2-5.1-5.1-6.9-7.1c13.1,2.3,22.3,1.7,25.2,1.4c1,1,6.6,5,6.9,5.2C75.2,120.5,61.8,121.3,54,119.7z M89.8,114.5 c-1.9,1.2-3.5,1.9-4.7,2.3c-0.7,0.2-1.2,0.4-1.5,0.5c-1.2-0.5-2.4-1.1-3.5-1.7c-1.8-1-3.3-2.2-4.3-3.2c3.7-3.5,12.4-13.9,13.4-34.8 c0.9-21-5.5-31.6-8.3-35c1.9-2.8,7.4-10.1,15.4-13.2c3.4,5.6,14.3,25.4,11.5,48.6C105,100.7,96.1,110.4,89.8,114.5z M122.1,67.6 c-0.6,20-12.1,35.1-22.6,42.9c5.3-6.2,10.2-15.3,12.2-32.1c2.9-23.7-7.4-43.5-11.6-50.4c2.8-0.7,5.4-1,7.4-1 C115.6,33.9,122.5,52.6,122.1,67.6z"/>
  </g>
</svg>