<svg viewBox="0 0 128 128" xmlns="http://www.w3.org/2000/svg">
  <g>
    <path d="M59,33c-0.8,0-1.5,0.7-1.5,1.6c0,0.9,0.7,1.5,1.5,1.5s1.5-0.7,1.5-1.5C60.5,33.7,59.8,33,59,33z"/>
    <path d="M69,33c-0.8,0-1.5,0.7-1.5,1.6c0,0.9,0.7,1.5,1.5,1.5s1.5-0.7,1.5-1.5C70.5,33.7,69.8,33,69,33z"/>
    <path d="M64,38.7c0.9,0,1.3-0.6,1.4-0.8c0.1-0.2,0-0.4-0.2-0.5c0,0-0.1,0-0.1,0h-2.2c0,0-0.1,0-0.1,0c-0.2,0.1-0.3,0.3-0.2,0.5 C62.7,38.1,63.1,38.7,64,38.7z"/>
    <path d="M60.7,32.4c0.3,0.1,0.5,0,0.6-0.1c0.1-0.1,0.1-0.3,0-0.5c-0.3-0.4-0.9-0.9-2.2-0.9c-1.3,0-1.9,0.5-2.2,0.9 c-0.1,0.2-0.1,0.4,0,0.5c0.1,0.1,0.3,0.2,0.6,0.1c0.3-0.1,0.8-0.4,1.7-0.4C59.9,32,60.4,32.3,60.7,32.4z"/>
    <path d="M67.3,32.4c0.3-0.1,0.8-0.4,1.7-0.4c0.9,0,1.4,0.3,1.7,0.4c0.3,0.1,0.5,0,0.6-0.1c0.1-0.1,0.1-0.3,0-0.5 c-0.3-0.4-0.9-0.9-2.2-0.9c-1.3,0-1.9,0.5-2.2,0.9c-0.1,0.2-0.1,0.4,0,0.5C66.8,32.4,67.1,32.5,67.3,32.4z"/>
    <path d="M67.8,40.6c0.2-0.5-0.3-1-0.9-0.7c-1,0.6-4.9,0.6-5.8,0c-0.6-0.3-1.1,0.2-0.8,0.7c0.2,0.5,2.2,1.6,3.7,1.6 C65.5,42.2,67.6,41.1,67.8,40.6z"/>
    <path d="M89.6,20.9c0,0.1,0,0.1,0,0.2C89.6,21,89.6,21,89.6,20.9z"/>
    <path d="M124.1,18.5c0-0.3,0-0.6-0.1-0.8v-3.8c0-2.2-1.8-4-4-4s-4,1.8-4,4V16h-1.9v-5.9c0-3.3-2.7-6-6-6s-6,2.7-6,6V16h-2.3l0-0.1 c0.1-0.5,0-1-0.3-1.4c-0.3-0.4-0.7-0.7-1.2-0.8c-0.5-0.1-1,0-1.4,0.3c0,0,0,0-0.1,0.1c-0.1-0.3-0.2-0.5-0.4-0.7 c-0.3-0.4-0.8-0.6-1.3-0.6c-0.5,0-1,0.2-1.4,0.5c-0.1-0.1-0.1-0.2-0.2-0.2c-0.4-0.3-0.8-0.5-1.3-0.5c-0.5,0-1,0.2-1.4,0.6 c-0.2,0.2-0.3,0.4-0.4,0.6c-0.1-0.2-0.3-0.3-0.5-0.5c-0.4-0.3-0.9-0.4-1.4-0.3c-0.5,0.1-0.9,0.4-1.2,0.8C87,14.1,86.9,14.6,87,15 l0.2,1H41l0.2-1c0.1-0.5,0-1-0.3-1.4c-0.3-0.4-0.7-0.7-1.2-0.8c-0.5-0.1-1,0-1.4,0.3c-0.2,0.1-0.3,0.3-0.5,0.5 c-0.1-0.2-0.2-0.4-0.4-0.6c-0.4-0.4-0.8-0.6-1.3-0.6c-0.5,0-1,0.2-1.3,0.5c-0.1,0.1-0.1,0.2-0.2,0.2c-0.4-0.3-0.9-0.5-1.4-0.5 c-0.8,0-1.5,0.6-1.7,1.4c0,0,0,0-0.1-0.1c-0.4-0.3-0.9-0.4-1.4-0.3c-0.5,0.1-0.9,0.3-1.2,0.8c-0.3,0.4-0.4,0.9-0.3,1.4l0,0.1h-2.5 v-5.9c0-3.3-2.7-6-6-6s-6,2.7-6,6V16H12v-2.1c0-2.2-1.8-4-4-4s-4,1.8-4,4v9.3c0,2.2,1.8,4,4,4s4-1.8,4-4V21h1.9v6c0,3.3,2.7,6,6,6 c3.3,0,6-2.7,6-6v-6h3.7c0.1,1.8,0.9,3.4,2.3,4.4c0.5,4.3,2.5,8,5.3,10.8C38.4,40,40.7,44,43,46.9l0,0c0,0,0,0,0,0l0,0 c0.5,0.7,1.2,1.4,1.8,2.2c1.8,2.1,3.9,4.4,3.9,4.4c0.7,3.3,3.9,14.5,5.2,18.6h-0.1v2.2l-1,0.9c-1.3,1-2.8,2.3-4.3,3.7l-3.5,3 l0.3,0.3c-1.5,1.6-2.9,3.1-4.1,4.4c-1.8,1.9-2.5,4.6-1.9,7.2l3.8,17.1h-0.2l1.2,4.8h-0.5l-6,2.1c-1.5,0.6-2.6,2.1-2.6,3.8v1.3 c0,0.6,0.5,1,1,1l15.8,0c0.6,0,1.2-0.5,1.2-1.2l0-2.8c0-1.9-1.7-4.1-1.7-4.1h-0.5c0-1.3,0.1-2.3,0.1-3.4c0-0.4,0-0.9,0-1.3 c0-0.7,0.8-7,0.4-11.8c-0.1-1.5-0.4-2.8-0.7-3.8c1.3-0.9,2.8-1.9,4.3-3l0.1,0.1c0,0,6.8-5.7,7.4-6.2c0.7-0.6,1.5-0.7,2-0.7 c0.5,0,1.3,0.1,2,0.7c0.4,0.3,3.2,2.7,5.3,4.5c0,0,0.1,0.1,0.1,0.1c0.1,0.1,0.2,0.2,0.4,0.3c1,0.8,1.7,1.4,1.7,1.4l0.1-0.1 c1.6,1.1,3.4,2.2,4.7,3.1c-0.3,1-0.6,2.3-0.7,3.8c-0.4,4.8,0.4,11.1,0.4,11.8l0.1,4.8h-0.5c0,0-1.7,2.2-1.7,4.1l0,2.8 c0,0.6,0.5,1.2,1.2,1.2l15.8,0c0.6,0,1-0.5,1-1v-1.3c0-1.7-1-3.1-2.6-3.8l-6-2.1h-0.5c0.4-1.8,1.2-4.8,1.2-4.8h-0.2L89.8,94 c0.6-2.6-0.1-5.3-1.9-7.2c-1.2-1.3-2.7-2.9-4.2-4.4l0.3-0.3l-9.2-7.7v-1.6l4.9-19.4c0,0,3.8-4.3,5.5-6.5c0,0,0,0,0,0c0,0,0,0,0,0 l0,0c0,0,0,0,0,0c2.3-2.8,4.1-6,5.2-9.8c3-3.1,5-7.2,6.1-11.8c1.3-1,2.1-2.5,2.2-4.3h3.5v6c0,3.3,2.7,6,6,6c3.3,0,6-2.7,6-6v-6h1.9 v2.2c0,2.2,1.8,4,4,4s4-1.8,4-4v-3.9C124.1,19.1,124.1,18.8,124.1,18.5z M97,15.5c0-0.2,0.2-0.4,0.4-0.6c0.2-0.1,0.3-0.2,0.5-0.2 c0,0,0.1,0,0.1,0c0.2,0,0.4,0.2,0.6,0.4c0.1,0.2,0.2,0.4,0.2,0.7l-0.3,1.9c0,0.2-0.2,0.4-0.4,0.6c-0.2,0.1-0.4,0.2-0.7,0.2 c0,0,0,0,0,0c-0.5-0.1-0.8-0.5-0.8-1L97,15.5z M93.9,14.7c0-0.5,0.4-0.9,0.9-0.9c0,0,0,0,0,0c0.2,0,0.5,0.1,0.6,0.3 c0.2,0.2,0.2,0.4,0.2,0.7l-0.1,2.6c0,0.2-0.1,0.5-0.3,0.6c-0.2,0.2-0.4,0.2-0.7,0.2c-0.3,0-0.6-0.2-0.7-0.4 c0.2-0.3,0.3-0.6,0.3-0.9c0-0.1,0-0.2,0-0.3c0-0.2-0.1-0.4-0.1-0.6c-0.1-0.1-0.1-0.3-0.2-0.4l0-0.8L93.9,14.7z M91.4,13.8 c0.2-0.2,0.4-0.3,0.6-0.3c0.2,0,0.4,0.1,0.6,0.2c0.2,0.2,0.3,0.4,0.3,0.6l0,0.4l0,0.1c-0.3-0.1-0.7,0-1,0.1c-0.1,0-0.2,0.1-0.3,0.1 c-0.1,0-0.3,0.1-0.5,0.2l0-0.9C91.2,14.2,91.3,13.9,91.4,13.8z M88.1,14.2c0.1-0.2,0.3-0.3,0.6-0.4c0.1,0,0.1,0,0.2,0 c0.2,0,0.3,0.1,0.5,0.2c0.2,0.1,0.3,0.3,0.4,0.6l0.2,1.3c-0.5,0.3-1.1,0.6-1.6,1l-0.4-2C87.9,14.6,88,14.4,88.1,14.2z M38.5,14.5 c0-0.2,0.2-0.4,0.4-0.6c0.1-0.1,0.3-0.2,0.5-0.2c0.1,0,0.1,0,0.2,0c0.2,0,0.4,0.2,0.6,0.4c0.1,0.2,0.2,0.4,0.1,0.7l-0.4,2 c-0.5-0.4-1.1-0.7-1.6-1L38.5,14.5z M35.3,14.4c0-0.2,0.1-0.5,0.3-0.6c0.2-0.2,0.4-0.2,0.6-0.2c0.3,0,0.5,0.1,0.6,0.3 c0.2,0.2,0.3,0.4,0.2,0.6l0,0.9c-0.2-0.1-0.3-0.1-0.5-0.2c-0.1-0.1-0.3-0.1-0.3-0.1c-0.3-0.2-0.7-0.2-1-0.1l0-0.1L35.3,14.4z M33.3,13.8C33.3,13.8,33.3,13.8,33.3,13.8c0.3,0,0.5,0.1,0.7,0.2c0.2,0.2,0.3,0.4,0.3,0.6l0,0.2l0,0.8c-0.2,0.3-0.3,0.7-0.4,1 c0,0.4,0.1,0.8,0.3,1.2c-0.2,0.2-0.4,0.4-0.7,0.4c-0.5,0-0.9-0.4-1-0.9l-0.1-2.6C32.4,14.3,32.8,13.8,33.3,13.8z M29.7,17.7l-0.3-2 c0-0.2,0-0.5,0.2-0.7c0.1-0.2,0.4-0.3,0.6-0.4c0,0,0.1,0,0.1,0c0.2,0,0.4,0.1,0.5,0.2c0.2,0.1,0.3,0.4,0.4,0.6l0.3,1.9 c0.1,0.5-0.3,1-0.8,1c-0.2,0-0.5,0-0.7-0.2C29.9,18.2,29.8,18,29.7,17.7z M43.8,46.3C43.8,46.3,43.8,46.3,43.8,46.3 c-2.4-3-4.6-7-5.6-10.4c0-0.1-0.1-0.3-0.2-0.4c-2.9-3-4.6-6.6-5-10.5l0-0.3c0,0,0,0,0,0v0c-0.4-0.2-0.8-0.5-1.1-0.8l0,0 c0,0,0,0,0,0c-0.7-0.8-1.1-1.8-1.1-2.9h6c-0.6,0.5-1.1,1.2-1.2,2.1c-0.1,0.5,1.1,0.1,1.2-0.3c0.1-0.8,0.7-1.6,1.5-1.8h0.6 c0-0.2,0-0.3,0-0.3l0,0c0-0.1,0-0.2,0-0.3c0-0.1,0-0.2,0-0.4c0,0,0-0.1,0-0.1c0-0.1,0-0.1-0.1-0.2c0-0.1,0-0.1-0.1-0.2 c0,0,0-0.1-0.1-0.1c0-0.1-0.1-0.1-0.1-0.2c0,0,0,0-0.1-0.1c-0.4-0.5-1.2-0.9-2.4-1.4c-0.1,0-0.2-0.1-0.3-0.2l0,0 c0,0-0.1-0.1-0.1-0.1c0,0-0.1-0.1-0.1-0.1c0,0,0-0.1-0.1-0.1c0-0.1-0.1-0.1-0.1-0.2c0,0,0-0.1,0-0.1c0-0.1,0-0.2,0-0.3 c0-0.2,0.2-0.6,0.4-0.7c0.1,0,0.1-0.1,0.2-0.1c0.1,0,0.2,0,0.3,0.1c0,0,0,0,0,0c0.1,0,0.2,0.1,0.4,0.2c0.2,0.1,0.5,0.2,0.8,0.3l0,0 c0.3,0.1,0.7,0.3,1.1,0.5c0.5,0.2,1,0.6,1.4,0.9l0,0c0.3,0.2,0.5,0.5,0.7,0.8c0,0,0,0.1,0,0.1c0.1,0.1,0.1,0.2,0.2,0.3 c0,0,0,0.1,0,0.1c0.1,0.1,0.1,0.3,0.1,0.5c0,0.1,0,0.2,0,0.4c0,0.1,0,0.1,0,0.2c0,0.1,0,0.1,0,0.2c0,0.1,0,0.2-0.1,0.2 c0,0,0,0.1,0,0.1c0,0.1-0.1,0.2-0.1,0.3c0,0,0,0,0,0.1c0,0.1-0.1,0.2-0.2,0.3c0,0,0,0,0,0c-0.2,0.3-0.4,0.6-0.7,0.8 c0,0-0.1,0.1-0.1,0.1c0,0,0,0,0.1,0c-0.1,0.4-0.3,0.8-0.6,1.2c-0.1,0.1-0.2,0.2-0.3,0.3c-0.1,0.1-0.3,0.3-0.4,0.4c0,0,0,0,0,0l0,0 c0,0,0,0,0,0l0.3,0.4l0.2,0.3c1.6,2.2,2.7,4.6,3.7,8.1c0.1,0.3,0.3,0.5,0.5,0.6c3,1.4,5.9,4.1,7.9,7.3c0,0,0,0,0,0.1L43.8,46.3z M49.6,115.8h-4.7l-0.8-3.8h5.6C49.7,113.6,49.7,114.9,49.6,115.8z M49.9,94.6c-0.4,0.2-0.5,0.7-0.4,1.1c0.4,1.2,0.6,2.4,0.7,3.6 c0.3,3.8-0.1,8.6-0.3,10.7c0,0.5-0.1,0.8-0.1,1c0,0,0,0,0,0h-5.9L40,93.8c-0.5-2.2,0.1-4.6,1.7-6.3c1.1-1.2,2.6-2.8,4.1-4.4 l8.3,8.6C52.8,92.6,51.4,93.6,49.9,94.6z M51.9,29.6c0,3.7,0.1,8.1,0.6,12.1c0,0,0,0,0,0c-0.3-0.4-0.6-0.8-0.9-1.2l0,0 c-1.9-3.1-4.9-6.1-8.3-7.7c-1.1-3.5-2.2-6.1-3.9-8.4c0.4-0.5,0.7-1.2,1-1.8c0.3-0.2,0.6-0.6,0.9-1c0.1-0.2,0.2-0.4,0.2-0.6h13.9 C51.8,24.5,51.9,29.4,51.9,29.6z M55.2,33c0-0.3,0-0.5,0-0.7c0.2-0.5,0.6-1,1.2-1.1c6.9-1.5,10.8-5.2,10.8-5.2 c1,2.2,4.2,4.4,5.3,5.2c0.9,0.7,0.6,3.3,0.6,4.7c0,0.3,0,0.7-0.1,1.1c-1.2,3.9-4,6.2-6.5,7.1c-0.7,0.3-1.5,0.4-2.1,0.4 c-0.6,0-1.4-0.1-2.1-0.4C59,42.9,55.2,39.3,55.2,33z M63.7,48.8c-1.2,0-2.2-0.9-2.2-2v-2c0.1,0.1,0.3,0.1,0.4,0.2 c0.9,0.3,1.7,0.5,2.4,0.5c0.6,0,1.3-0.1,2.1-0.4v1.8c0,1.1-1,2-2.2,2H63.7z M83.8,115.8h-4.7c0-0.9-0.1-2.2-0.1-3.8h5.6L83.8,115.8 z M87.1,87.5c1.6,1.7,2.2,4,1.7,6.3l-3.9,17.3H79c0,0,0,0,0,0c0-0.1,0-0.5-0.1-1c-0.2-2.1-0.6-6.9-0.3-10.7 c0.1-1.2,0.3-2.4,0.7-3.6c0.1-0.4,0-0.9-0.4-1.1c-0.5-0.4-1.2-0.7-1.8-1.2c-0.9-0.6-1.9-1.2-2.8-1.8l8.6-8.6 C84.1,84.3,85.5,85.8,87.1,87.5z M76,41.2c0.4-3.9,0.6-8.1,0.6-11.6c0-0.1,0.2-5.1-3.1-8.6h13.4c0.1,0.2,0.1,0.4,0.2,0.6 c0.2,0.4,0.6,0.8,0.9,1c0.2,0.8,0.6,1.5,1.2,2.1c-2.1,2.5-3.6,5.1-4.8,8.9c-3.4,1.6-5.9,3.8-7.8,6.9C76.3,40.7,76.1,40.9,76,41.2z M96.4,23.9c-0.4,0.4-0.8,0.7-1.3,0.9l0.1,1c-1.1,4.2-3,7.8-5.6,10.5c-0.1,0.1-0.2,0.2-0.2,0.4c-1.1,3.5-2.7,6.6-5,9.5c0,0,0,0,0,0 c-1.7-1.2-5.4-4-7-5.2c0,0,0,0,0.1-0.1c1.8-3,4.1-5,7.4-6.5c0.2-0.1,0.4-0.3,0.5-0.6c1.1-3.7,2.6-6.2,4.7-8.6l0.1,0l0.6-0.7 c-1-0.6-1.5-1.6-1.7-2.2c0,0,0-0.1,0-0.1c-0.4-0.3-0.7-0.7-0.9-1.2c0,0,0,0,0-0.1c-0.1-0.1-0.1-0.3-0.1-0.4c0,0,0-0.1,0-0.1 c0-0.1,0-0.2,0-0.3c0,0,0-0.1,0-0.1c0-0.1,0-0.3,0-0.4c0-0.2,0.1-0.4,0.2-0.5c0.1-0.2,0.2-0.4,0.4-0.6c0,0,0,0,0.1-0.1 c0.1-0.2,0.3-0.4,0.5-0.5c0.3-0.1,0.8-0.3,1.4-0.4v-0.5c0.7-0.4,1.4-0.6,1.8-0.8c0.1,0,0.2-0.1,0.3-0.1H93c0,0,0,0,0,0 c0.1,0.1,0.2,0.2,0.2,0.3c0,0,0,0,0,0c0.1,0.1,0.1,0.2,0.1,0.3c0,0.1,0,0.2,0,0.3c0,0.1-0.1,0.2-0.1,0.3c0,0,0,0,0,0 c0,0.1-0.1,0.1-0.1,0.2c0,0.1-0.1,0.1-0.2,0.2c-0.1,0.1-0.2,0.2-0.3,0.2c-0.3,0.1-0.6,0.3-0.9,0.4c-0.1,0-0.1,0-0.1,0.1 c0,0,0,0,0,0c0,0,0,0-0.1,0c-0.1,0.1-0.3,0.1-0.4,0.2c0,0,0,0,0,0c0,0,0,0-0.1,0c0,0,0,0,0,0c0,0-0.1,0.1-0.1,0.1 c-0.1,0.1-0.2,0.2-0.3,0.2c0,0,0,0,0,0c0,0,0,0,0,0c-0.1,0-0.1,0.1-0.1,0.1c-0.1,0-0.1,0.1-0.1,0.1c0,0,0,0,0,0 c-0.1,0.1-0.1,0.1-0.1,0.2c0,0.1-0.1,0.1-0.1,0.2c0,0-0.1,0.1-0.1,0.1c0,0,0,0,0,0c-0.1,0.2-0.2,0.5-0.2,0.8c0,0.1,0,0.2,0,0.3l0,0 c0,0,0,0.1,0,0.2c0,0,0,0,0,0c0,0,0,0,0,0c0,0,0,0,0,0c0.1,0,0.2,0.1,0.3,0.1c0.8,0.3,1.4,1.1,1.6,2c0.1,0.5,1.2,0.1,1.2-0.3 c-0.1-0.7-0.4-1.2-0.8-1.7h5.7C97.5,22.1,97.1,23.2,96.4,23.9z"/>
  </g>
</svg>