<svg viewBox="0 0 128 128" xmlns="http://www.w3.org/2000/svg">
  <g>
    <path d="M103.5,77.7v-0.3c0-1.6-1.3-2.8-2.8-2.8h-7.3v6.2l-3.1,0.1v-6.2h-7.9c-1.6,0-2.8,1.3-2.8,2.8v8.5h5.4l0,3.2h-5.4V97 c0,1.6,1.3,2.8,2.8,2.8h18.3c1.6,0,2.8-1.3,2.8-2.8V81.7c1.1-1.4,1.8-2.4,1.8-2.4L103.5,77.7z M91.8,92.6c-1.2,1.3-3,3.6-4.1,5 l-2.5-2.3l-0.8-0.7c1.9-2.2,6-6.9,8.2-9.5c2.1-2.5,5.6-6.5,7.3-8.4l0.3,0.2l0.7,0.6l2.4,2c-1.5,2-4.6,6.1-6.1,7.7 c-1.1,1.2-2.1,2.1-3,3.1C93.4,91,92.7,91.7,91.8,92.6z"/>
    <path d="M38.8,102c-0.2,0.5-0.4,4.3,0,4.6c0.5,0.2,8-0.1,8.1-0.2c0.2-0.2,0.2-4.2-0.2-4.6C46.6,101.5,39,101.7,38.8,102z"/>
    <path d="M122.8,67.4c-0.8-1-51.7-51.2-52.6-52.1c-2.5-2.6-3.7-4.1-6.1-4c-2.4,0.1-3.8,1.8-6.1,4c-0.2,0.2-13.6,12.6-13.6,12.6 l1.1,9.1l-5.9-3.6c0,0-3.2,3.2-7.7,7.6L32,28.3l-12.7,5.6l-0.1,19.4C11.3,61,4.1,68.1,4,68.2c-0.8,1,0,1.5,0.6,1.5 s11.3-0.2,11.3-0.2l5.7,24l-4.5,19.9c-0.1,0-0.2,0-0.2,0c-2.9-0.1-6.2-0.1-6.3,0.5c-0.2,0.9,3.2,3.3,4.8,4.7 c1.4,1.2,3.4,2.3,3.4,2.3s9.2,0.1,14.7-0.1c4.8-0.2,9.8,0,11.9,0v3.5l34.1,0.1c0,0,0.7-0.9,0.9-1.8c0.1-0.5,0.3-1.7,0.4-2.6 c1,0,15.4-0.1,18.5-0.1c3.2,0,11.7-0.2,11.7-0.2s6.1-8.6,4.9-9.1c-0.4-0.2-2.2,0.3-4.4,1c0.1-1.2,0-2.9,0-3.1c0,0-0.1,0-0.3-0.1 L111,83.8c0.8,0,1.3-0.1,1.4-0.2c0.3-0.3,0.2-4.6-0.1-4.9c-0.1-0.1-0.6-0.2-1.3-0.2l0-8.3c0,0,11.6,0,12.5-0.2 C124.5,69.6,124,68.8,122.8,67.4z M66,105.5c-4.1,0.8-12,2.6-13,2.8l-0.1,0l-2.1,0.5c-0.1-0.5-0.3-1-0.4-1.4c0,0,0-0.1,0-0.1 c-0.1-0.3-0.3-1.2-0.5-2.2c0.2,0,0.3-0.1,0.5-0.1c1.5-0.3,3.4-0.6,4.9-0.9c1.1-0.2,3.1-0.6,6.3-1.1l0.4-0.1c0.2,0,0.5-0.1,0.7-0.1 l13.6-2.1l0.2,3C74.1,104.1,69.2,104.9,66,105.5z M68.4,88.7c-2-1.1-8.2-4-9.6-4.7l-0.3-0.3h-0.2l-7.8-4.2l-0.5-0.3 c0.3-1,0.8-2.2,1-2.8c0.1-0.3,0.3-0.6,0.5-0.9c0.1,0.1,0.2,0.1,0.3,0.2c1.7,1,4.4,2.6,5.9,3.2c1.9,0.8,9.4,5.1,10.4,5.7l0.4,0.2h0 c3,1.5,6.2,3.2,7.9,4c0,0,0.1,0.1,0.2,0.1c-0.1,0.1-0.1,0.3-0.2,0.5c-0.2,0.7-0.5,1.6-0.9,2.7C73.4,91.2,69.9,89.5,68.4,88.7z M74.6,94.1c-0.1,1.5-0.7,2.3-2.4,2.3c-1.7,0-2.2-1.1-2.2-2.5c0-0.8,0.4-1.6,1.3-2c1.1,0.6,2.3,1.1,3.2,1.6 C74.6,93.6,74.6,93.8,74.6,94.1z M61.8,101.5c-0.2,0-0.4,0.1-0.5,0.1c0,0,0,0,0,0L61.8,101.5z M106.6,83.5c0.1,0.1,0.5,0.2,1,0.2 v13.5l-6.2,4.1c0.1,0.3,0.8,2.4,0.8,2.4s-9.4,0.5-9.6,0.8c-0.3,0.3-4,5.5-4.5,6.1c-0.6,0.7-0.5,1.5,0.9,0.5c1.4-1,5.3-3.8,5.3-3.8 s11.5-0.6,11.8-0.9c0.1-0.2-0.7-3.2-0.7-3.2s1.1-0.7,2.3-1.5v6.5c-1.4,0-2.7,0.1-2.8,0.2c-0.5,0.6-0.4,4.2,0,4.4 c0.2,0.1,1.2,0.1,2.4,0.1c-3.6,1.3-7.1,2.7-7.3,2.8c0.2-0.3,3.5-6.2,2.9-7c-0.7-0.8-10.5,2.7-12.7,3.7c-4.5,1.9-7.4,3.7-9.2,4.9 c0.1-1.9,0.2-5-0.1-5.4c-0.1-0.2-1.9-0.2-4.5-0.3c0-0.9,0-3.3,0-6.4c0.9-0.1,1.5-0.2,1.5-0.2l-0.4-6l-1.2,0.2c0-1.7,0-3.4,0-5 c0.2-0.7,1.8-5.8,2-5.9c0,0-0.9-0.5-2.1-1.1c0-2.9-0.1-5.4-0.2-6.8c-0.3-6.1-4.6-10.8-13-11.1c-4.3-0.2-8.3,2-10.6,5.2 C51.6,74,51,73.6,51,73.6s-1.1,1.2-1.5,2.3S48.1,80,48.1,80l2.2,1.2c-0.1,4.3-0.1,14.8,0,22.3C49,103.8,48,104,48,104 s0.6,3.1,0.8,3.8c0.2,0.7,0.8,2.8,0.8,2.8l0.6-0.1c0,0.8,0,1.3,0,1.3s-4.7,0.1-4.9,0.4c-0.2,0.2-0.2,1.9-0.2,3.7 c-0.7-1.4-1.7-2.9-2.8-4.3c-3.4-4.3-5.9-6.1-6.7-5.7c-0.8,0.4,0.6,5.6,0.6,5.6s-11.7-4.5-12.1-3c-0.4,1.5,2.3,6.3,2.3,6.3 s-2.7-0.5-5.4-0.9l4.3-14c0.2,0,0.3,0,0.5,0h18.3c1.6,0,2.8-1.3,2.8-2.8V77.4c0-1.6-1.3-2.8-2.8-2.8H26c-1.6,0-2.8,1.3-2.8,2.8v4.5 l-3.8-15.8l15.8-14.6c2,0.6,5.4,1.8,5.7,2.1c0.5,0.6,2.9,7.8,3.3,8.1c0.4,0.3,14.1,1.6,14.2,1.1c0.2-0.6-11.3-5.6-11.3-5.6 s0.7-5.1,0.6-5.6c-0.1-0.4-5.5-3.7-7.4-4.9l4.5-4.2c2.1,1.8,8.3,6.9,9,6.3c0.6-0.6-2.2-8.3-3.4-11.5l14.2-13.1l43,42.5l0.1,11.6 c-0.6,0-1.1,0.1-1.2,0.3C106.1,79.1,106.1,83,106.6,83.5z M33.4,95.8l-6.7,0.1l0.1-6.9l0.7-12.4l5.9,0.1l-0.1,8.5L33.4,95.8z M43.6,88c-0.1,1.7,0,4.3,0.1,6.4c0,0.8,0,1.6,0,2.2c-0.7,0.1-1.8,0.2-2.9,0.2h-0.1c-1.4,0-2.8-0.1-3.7-0.2L37,85.2l0.2-8.2 l6.4-0.1V80C43.7,80.1,43.8,85.1,43.6,88z"/>
    <path d="M40.9,67.8c-0.1,1.1,0,2.5-0.3,2.8C40.2,71,38,70.9,36,70.9c-2.8,0-5.6,0-5.8-0.3c-0.2-0.4-0.4-4.5,0.1-5.2 c0.2-0.3,2.7-0.2,5.5-0.2c1.9,0,4.1-0.1,4.6,0.1C41.1,65.7,41,66.7,40.9,67.8z"/>
    <path d="M88.2,61.1C87.8,61.5,78,61.4,77.7,61c-0.4-0.4-0.4-4.5,0.2-5c0.5-0.4,10-0.3,10.3,0.1S88.6,60.7,88.2,61.1z"/>
    <path d="M97.7,69.8c-0.2,0.3-9.2,0.4-10.6-0.1c-0.1,0-0.2-0.1-0.2-0.1v0c-0.4-0.7-0.3-4.2-0.1-4.8c0.4-1,10.8-0.5,11-0.3 C98,64.7,97.9,69.5,97.7,69.8z"/>
  </g>
</svg>