<svg viewBox="0 0 128 128" xmlns="http://www.w3.org/2000/svg">
  <g>
    <path d="M16,27.61c0,0-2.3-0.32-3.75,0.68c-1.06,0.72-1.39,1.66-1.39,1.66c0.18,0.45,0.72,1.17,1.49,1.44 c0.77,0.27,1.67,0.14,1.67,0.14s0.23,1.94,1.62,1.99c1.46,0.05,1.58-2.53,1.35-3.79S16,27.61,16,27.61z"/>
    <path d="M120.48,76.43c-3.24-2.99-5.27-6.53-7.05-10.09c-1.78-3.56-2.67-11.51-7.56-14.81c-4.89-3.29-9.4-0.56-9.4-0.56 s0,0.01,0.01,0.02c-0.44,0.17-0.83,0.41-1.26,0.71c-0.36,0.25-0.82,0.7-1.18,1.09c-0.61-0.55-1.29-1.05-2.02-1.51 c-1.8-1.13-3.96-1.96-6.4-2.34c-0.27-0.04-0.53-0.08-0.78-0.12c0.11-0.04,0.17-0.06,0.17-0.06s-0.25-1.64-1.59-2.67 c-0.51-0.39-1.19-0.54-1.7-0.59c-0.03-0.01-0.07-0.01-0.1-0.02c-0.81-0.16-2.74-0.42-5.62-0.1c-3.51,0.37-5.67,1.37-8,1.91 c-2.33,0.53-6.46,1.63-10.93-0.14c-0.16-0.06-0.34-0.14-0.52-0.22L57.1,3.62L55.6,3.6l-0.13,10.77c-0.83-0.97-1.88-2.24-2.74-3.35 c-1.07-1.4-2.51-3.32-3.56-4.73c0,0,0,0,0-0.01l0.03-2.75l-1.5-0.02l-0.27,26.88c-2.82-5.51-7.06-8.64-7.46-8.94 c0.27,0.12,2.16,0.83,2.89-0.41c0.79-1.34-1.5-4.43-3.95-5.85c-2.12-1.24-6.03-3.58-10.59-3.72c-4.62-0.14-7.04,0.87-7.04,0.87 l-0.04,0.01c-1.07-0.38-2.45-0.56-3.11,0.07c-2.92-2.68-7.07-6.52-7.4-6.99c-0.38-0.54-0.87-1.08-1.16-1.08 c-0.1,0-0.17,0.06-0.21,0.21c-0.28,0.13-1.95,2.29-0.8,6.66c0.34,1.3,1.72,3.15,3.02,4.67c-0.75,0.62-1.51,1.43-2.16,2.46 c-2.15,3.39-1.31,9.11-1.26,9.4v0.01l-0.43,7.67l-0.3,5.44c0,0-0.2,0.32-0.47,0.87c-0.06,0.15-0.14,0.33-0.22,0.53 c-0.05,0.12-0.1,0.25-0.15,0.38c-0.05,0.14-0.1,0.28-0.15,0.42c-0.04,0.1-0.07,0.21-0.11,0.32c-0.03,0.1-0.06,0.21-0.09,0.33 c-0.28,0.92-0.49,1.99-0.46,3.04c0.06,2.66,0.91,4.09,2.55,5.54c1.27,1.12,3.26,2.01,4.91,2.01c0.47,0,0.91-0.07,1.3-0.23 c0.24-0.1,0.34-1.78,0.91-3.03c0.2-0.44,0.64-1.01,1.06-1.49c0.17,0.09,0.37,0.16,0.6,0.22c0.31,0.08,0.58,0.08,0.82,0.02 c0.16,0.41,0.3,0.85,0.35,1.17c0.12,0.8,0.2,2.39,0.49,2.46c0.11,0.03,0.23,0.04,0.35,0.04c1.06,0,2.39-1.11,3.26-3.27 c0.01-0.01,0.01-0.03,0.01-0.04c0.01-0.02,0.02-0.04,0.02-0.05c0.39-0.99,0.6-1.81,0.71-2.45c0.01-0.03,0.02-0.06,0.02-0.08v-0.04 c0.01-0.08,0.02-0.15,0.03-0.23c0.01-0.07,0.02-0.14,0.02-0.2c0.02-0.34,0.03-0.61,0.03-0.79l-0.01-0.19l0.01-0.02l0.02-0.08 l0.06-0.13l0.09-0.2l0.18-0.42l0.31-0.7l0.18-0.39c0.52-1.1,1.11-2.27,1.32-2.27c0.01,0,0.02,0,0.02,0 c0.38,0.12,0.79,2.25,0.69,5.84c-0.09,3.22-0.96,7.39-1.43,11.15c-0.25,1.99-0.36,3.77-0.41,5.04c-0.09,0.03-0.13,0.04-0.13,0.04 s-0.23,2.8,0.38,6.98c0.23,1.57,0.93,3.62,1.78,5.29c-0.43,0.2-0.91,0.39-1.46,0.55c-2.91,0.84-6.21,0-8.6,2.26 c-2.66,2.52-2.33,5.24-3.75,8.6c-1.03,2.43-3.23,3.55-4.2,6.59c-0.63,1.98-0.12,3.66,0.26,4.51c-0.24,0.8-0.3,1.6-0.26,2.32 c0.05,1.06,0.74,2.72,1.09,3.52l-0.03,0.02c0,0,0.59,1.9,0.94,3.08c0.39,1.31,0.77,3.79,1.8,5.25c1.03,1.46,2.01,0.26,4.75-3.42 s4.05-5.92,4.05-6.35c0-0.82-2.17-3.67-2.73-4.37c0-0.01-0.01-0.02-0.02-0.03l-0.1-0.21c0,0,1.19-2.46,2.37-4.07 c1.19-1.61,2.29-3.39,4.57-3.73c2.29-0.34,16.77,0,17.96-0.68c1.19-0.68,3.64-3.73,3.64-3.73s0.11,0.01,0.32,0.02l-0.38,38.34 l1.5,0.02l0.11-11.08c0.55,0.62,1.21,1.36,1.89,2.09c1.05,1.13,2.87,2.99,4.14,4.29l-0.06,4.77l1.5,0.02l0.48-38.49 c2.55-0.16,5.41-0.49,8.29-1.08c3.44-0.71,6.25-1.17,8.12-1.44c0.84,1.26,2.73,3.58,5.35,5.71c3.49,2.84,8.66,4.91,10.41,6.21 c1.75,1.29,3.04,1.87,5.17,4.72c2.13,2.85,2.84,4.59,4.4,6.79c1.55,2.2,3.17,3.75,4.59,4.85c1.47,1.13,4.46,2.91,4.98,2.84 c0.27-0.03,0.99-1.28,1.63-2.49c1.73,1.73,4.24,4.14,4.47,4.3c0.51,0.36,1.52,0,1.95-1.59c0.43-1.59,2.53-10.68,2.53-10.68 s-4.98-2.31-5.85-2.16c-0.03,0.01-0.07,0.03-0.11,0.07c-0.22-0.96-0.51-2.07-0.88-2.84c-0.68-1.47-1.8-2.12-3.27-4.94 c-1.47-2.82-1.34-6.22-1.92-7.57c-0.58-1.35-2.31-1.93-5.52-2.89c-3.2-0.96-3.91-3.21-3.91-6.48c0-2.11,1.12-4.48,1.94-7.38 c0.23,1.35,0.58,2.82,1.09,3.92c2.68,5.7,7.45,9.99,15,10.21c6.31,0.19,7.9-2.69,8.27-3.75v-0.01 C123.15,80.04,122.94,78.7,120.48,76.43z M49.11,12.96c0.51,0.71,1.16,1.55,1.93,2.46c1.18,1.4,3.06,3.54,4.35,5l-0.21,16.56 c-0.9-0.93-2.12-2.25-3.2-3.63c-1.19-1.52-2.25-3.08-3.03-4.3L49.11,12.96z M10.69,10.66c-0.26-0.99-0.34-1.81-0.33-2.47 c1.05,1.01,2.9,2.74,6.25,5.82c0.13,0.12,0.25,0.24,0.37,0.34c0.09,0.08,0.17,0.15,0.27,0.25l2.25,2.05l0.72,0.69l0.57-0.07 c0.02,0.15,0.04,0.3,0.05,0.45c0.01,0.08,0.01,0.16,0.02,0.24c0.31,3.55,0.3,4.36,0.3,4.36l-2.89-1.82l-1.51-0.94l-1.5-0.95 c0.05-0.17,0.08-0.29,0.09-0.36l0.3-1.17l-0.83-0.88C12.26,13.5,10.9,11.47,10.69,10.66z M19.2,37.69 c-0.35,1.18-0.73,2.26-1.1,3.23c-0.99,2.62-1.92,4.41-2.13,4.86c-0.07,0.15-0.19,0.42-0.29,0.76c-0.07,0.25-0.14,0.53-0.16,0.83 c-0.18,0.19-0.42,0.45-0.67,0.74c-0.67,0.77-1.14,1.45-1.4,2.03c-0.3,0.65-0.49,1.34-0.63,1.94c-0.98-0.14-2.22-0.71-3.03-1.43 c-0.58-0.52-1.02-0.99-1.32-1.58c0.35,0.29,0.77,0.42,1.17,0.42c0.81,0,1.56-0.83,1.82-2.1c0.07-0.31,0.11-0.66,0.11-1.03 c-0.01-1.82-0.54-3.07-1.79-3.22c-0.45-0.05-0.82,0.06-1.13,0.28c0.04-0.11,0.08-0.21,0.13-0.33c0.04-0.1,0.08-0.18,0.11-0.27 c0.03-0.06,0.05-0.12,0.08-0.18c0.19-0.38,0.33-0.6,0.33-0.6l0.3-0.48l0.03-0.57l0.3-5.44l0.37-6.74c0.85-0.81,2.11-2.27,3.04-4.51 c0.26-0.6,0.49-1.23,0.72-1.86l1.38,0.85l5.77,3.54c0,0-0.25,3.63-1.25,7.95c-0.17,0.75-0.36,1.52-0.58,2.3 C19.32,37.29,19.26,37.49,19.2,37.69z M26.03,39.81l-0.32-0.09h-0.32c-1.66,0-2.36,1.48-3.33,3.55l-0.19,0.42l-0.32,0.72 l-0.17,0.39l-0.08,0.18l-0.06,0.13l-0.08,0.19l-0.02,0.04l-0.16,0.33l0.03,0.57l0.01,0.13c0,0.15-0.01,0.36-0.03,0.61v0.06 l-0.02,0.1l-0.01,0.09l-0.01,0.06c-0.1,0.6-0.29,1.26-0.57,1.97l-0.18,0.36c-0.07-0.22-0.15-0.43-0.21-0.59 c-0.15-0.41-0.31-0.79-0.42-1.05c0.32-0.77,0.54-1.6,0.8-2.16c0.59-1.28,1.94-4.67,2.87-7.89c0.08-0.29,0.16-0.57,0.24-0.86 c1.41-5.29,1.88-9.39,1.91-12.65c0.02-0.58,0.01-1.12-0.01-1.64c-0.02-0.91-0.08-1.75-0.16-2.52l5.94,5.44l8.91,20.36 c0,0,1.68,1.54,3.67,3.52c-0.58,0.81-1.01,1.82-1.08,2.97C42,52.58,41.12,52.87,40.45,54c-0.12,0.2-0.23,0.41-0.33,0.64 c-0.01,0-0.01,0-0.01,0.01c-1.06,0.98-4.47,3.99-8.35,6.09c-2.03,1.1-3.91,1.9-5.28,2.43c0.07-1.12,0.18-2.5,0.36-3.99 c0.16-1.27,0.37-2.63,0.58-3.94c0.4-2.54,0.81-5.18,0.87-7.42C28.49,40.59,26.97,40.11,26.03,39.81z M54.21,114.23 c-0.77-0.81-1.7-1.83-2.48-2.7c-1.13-1.26-2.53-3-3.56-4.3l0.16-15.98c0.73,1.04,1.68,2.33,2.74,3.53c1.06,1.2,2.37,2.63,3.34,3.68 L54.21,114.23z M96.5,93.03c1.07,0.1,1.84,0.67,2.54,1.65c1.16,1.62,1.95,3.2,2.51,4.66C100.41,97.47,98.6,94.97,96.5,93.03z M95.54,72.16c-0.65,1.91-1.25,3.71-1.25,5.52c0,3.23,0.62,7.13,5.48,8.59c1.37,0.41,3.92,1.17,4.13,1.65 c0.1,0.24,0.23,1.08,0.32,1.7c0.24,1.66,0.58,3.93,1.67,6.02c0.91,1.75,1.74,2.79,2.34,3.55c0.42,0.53,0.69,0.88,0.89,1.3 c0.46,0.99,0.91,3.12,1.09,4.23l0.1,0.63c-0.22,0.45-0.45,0.88-0.66,1.24c-0.31,0.53-0.86,1.37-1.34,2.16 c-0.82-0.55-1.89-1.49-2.65-2.93c-0.21-0.38-0.41-1.27-0.62-2.22c-0.54-2.49-1.37-6.24-4.21-10.19c-1.24-1.75-2.77-2.6-4.67-2.6 c-0.11,0-0.22,0.01-0.35,0.01l-0.19,0.02c-0.37,0.02-0.89,0.05-1.51,0.05c-2.59,0-5.05-0.56-7.31-1.65 c-3.88-1.89-6.55-6.91-6.58-6.96l-0.56-1.08l-1.21-0.09l-0.66-0.06l-0.19-0.01l-0.19,0.02l-2.62,0.24 c-0.18,0.02-4.41,0.48-10.88,1.82c-4.86,0.99-9.65,1.2-12.81,1.2c-2.63,0-4.33-0.14-4.35-0.14l-1.17-0.1l-0.73,0.91 c-1.05,1.3-2.31,2.66-2.88,3.1c-1.35,0.23-6.63,0.27-9.85,0.3c-3.96,0.03-6.45,0.06-7.48,0.21c-3,0.45-4.51,2.52-5.72,4.19 l-0.3,0.42c-1.29,1.75-2.53,4.3-2.58,4.41l-0.46,0.94l0.45,0.95l0.18,0.39l-5,3.44c-0.68-1.61-0.74-2.24-0.74-2.37 c-0.03-0.56,0.02-1.09,0.17-1.59c0.17-0.56,0.44-1.05,0.85-1.5c1.32-1.46,2.82-3.11,4.59-5.73c1.02-1.51,1.31-3.1,1.57-4.51 c0.26-1.46,0.45-2.38,1.11-3.08c0.97-1.03,2.16-1.16,4.18-1.3c0.62-0.04,1.27-0.09,1.95-0.18c2.98-0.43,5.3-1.73,5.4-1.79 l1.11-0.63v-3.98l-0.08-0.29l-0.64-2.31l-0.55-1.97c0.02-0.05,0.05-0.09,0.09-0.14c1.11-1.41,3.13-1.66,8.32-4.6 c0.99-0.56,1.96-1.25,2.86-1.97c2.02,6.24,4.5,13.84,4.74,14.41c0.42,0.97,2.55,0.97,5.05,0.65c4.42-0.57,5.47-2.91,5.47-2.91 s1.52,2.84,7.55,2.91c6.03,0.07,8.25-3.67,8.25-3.67s1.04,1.94,4.16,2.91c3.12,0.97,5.61,0,5.61,0l0.13-26.83v-0.06l0.83-2 c0.61,0.08,1.33,0.18,2.09,0.3c3.93,0.62,7.3,2.64,9.23,5.54l0.42,0.64c0.01,0.01,0.02,0.02,0.02,0.04l0.02,0.02l0.01,0.02 c0.67,1.08,2.22,3.97,2.13,7.56C97.05,67.66,96.24,70.05,95.54,72.16z"/>
  </g>
</svg>