<svg viewBox="0 0 128 128" xmlns="http://www.w3.org/2000/svg">
  <g>
    <path d="M124.14,82.73V11.44c0-4.15-3.37-7.52-7.52-7.52H11.32c-4.15,0-7.52,3.37-7.52,7.52v105.3c0,4.15,3.37,7.52,7.52,7.52 h105.3c2.08,0,3.96-0.84,5.32-2.2c0.08-0.08,0.17-0.17,0.25-0.26c0.08-0.08,0.15-0.18,0.23-0.27c0.15-0.18,0.29-0.37,0.44-0.57 v-0.01h0.01c0.13-0.2,0.25-0.4,0.36-0.61v-0.01h0.01c0.02-0.03,0.04-0.07,0.05-0.1c0.02-0.04,0.04-0.08,0.05-0.12 c0.05-0.08,0.09-0.17,0.13-0.26c0.03-0.06,0.05-0.11,0.08-0.17l0.01-0.01c0.09-0.22,0.17-0.45,0.24-0.68v-0.01 c0.06-0.17,0.1-0.34,0.15-0.52v-0.01c0-0.04,0.01-0.08,0.02-0.12c0-0.01,0.01-0.02,0.01-0.03c0.01-0.08,0.03-0.15,0.04-0.23 c0.01-0.02,0.02-0.04,0.02-0.06c0.01-0.04,0.01-0.08,0.02-0.12c0.02-0.14,0.04-0.29,0.05-0.43c0.01-0.05,0.01-0.09,0.01-0.14v-0.01 c0.02-0.19,0.03-0.38,0.03-0.57V82.73H124.14z M6.8,80.05v-2.84c0.6-0.22,1.25-0.45,1.87-0.66c1.25-0.44,2.33-1.17,3.47-1.94 c0.98-0.65,1.98-1.32,3.2-1.91c2.81-1.36,9.01-3.88,10.48-4.31c0.93-0.27,1.72-0.73,2.42-1.13c0.43-0.25,0.95-0.55,1.29-0.65 l0.07,0.03c0.23,0.1,0.55,0.24,0.94,0.4c0.01,0.03,0.02,0.07,0.03,0.1c0.38,1.16-0.68,2.13,1.25,4.63c2.81,3.65,6.07,4.53,8,6.36 c0.73,0.7,2.13,1.73,3.58,2.75L6.8,80.05z M69.38,92.51c-0.01-0.01-0.01-0.02,0-0.03c0.01,0,0.01,0.01,0.01,0.01 C69.39,92.5,69.38,92.51,69.38,92.51z M99.02,63.61c-0.22,6.47-0.97,17.92-1.12,28.56c-0.15,10.62,1.94,19.6-2.38,21.49 c-0.07-4.29-0.47-27.27-0.47-31.6c0-3.18-0.17-10.21-0.31-16.42c-0.07-3.2-0.14-6.12-0.17-8.01c-0.1-5.4,0.24-14.06,0.3-15.79 c0.06-1.85,0.21-2.92-0.57-3.14c-0.92-0.25-1.28,2.96-1.35,3.51c-0.31,2.59-0.93,6.41-0.62,13.87c0.07,1.89,0.11,6.71,0.18,9.92 c0.14,6.2,0.52,12.9,0.52,16.05c0,4.78,0.09,31.69,0.09,31.97c0,0.05,0.02,0.1,0.03,0.15c-0.85,0.05-1.74,0.03-2.61-0.05 c-0.17-4.13-0.71-17.44-0.87-23.78c-0.12-4.72-0.32-12-0.55-18c-0.14-3.67-0.48-6.86-0.55-9.14c-0.03-0.95-0.06-1.91-0.1-2.86 c-0.18-4.87,0.04-10.1,0.59-13.33c0.64-3.75,1.17-4.87,1.48-5.98c0.31-1.11,0.92-2.15,0.43-2.4c-0.49-0.25-1.58,0.53-2.34,1.91 c-0.68,1.23-1.26,2.26-1.95,6.32c-0.59,3.43-0.59,7.95-0.4,13.16c0.03,0.95,0.15,2.27,0.18,3.21c0.08,2.28,0.31,5.67,0.45,9.35 c0.23,6,0.48,13.19,0.6,17.89c0.16,6.2,0.31,18.84,0.75,23.36c-0.3-0.05-0.57-0.1-0.83-0.15c0-0.01,0-0.01,0-0.01v-0.56 c-0.01-0.12-0.01-0.25-0.02-0.39c-0.04-0.74-0.1-1.74-0.17-2.81c-0.2-3.24-0.46-7.21-0.46-7.27c0,0-0.1-1.3-0.12-1.73 c0-0.08-0.01-0.17-0.01-0.26c-0.01-0.2-0.02-0.42-0.03-0.67c-0.01-0.52-0.03-1.13-0.04-1.62c0-0.12-0.01-0.24-0.01-0.34l-0.01-0.27 c0-0.23-0.01-0.38-0.01-0.38l-2-0.12c0,0-2.21-0.08-4.68-0.67c0-0.01-0.01-0.01-0.01-0.01c-1.43-1.37-4.36-4.29-5.42-6.22 c-1.06-1.92-1.68-4.28-2.04-6.39c-0.14-0.86-0.24-1.68-0.3-2.42c-0.11-1.11-0.14-2.04-0.14-2.67c0-0.87-0.08-1.91-0.18-3.08 c-0.03-0.35-0.07-0.71-0.1-1.08c-0.14-1.52-0.23-3.48-0.32-5.38c-0.18-3.78,0.46-6.24,0.74-7.46c0.1-0.43,0.09-1.41-0.34-1.53 c-0.42-0.11-0.87,0.8-1.02,1.22c-0.59,1.65-1.26,4.04-1.06,8.08c0.1,1.93,0.26,3.67,0.4,5.21c0.02,0.24,0.04,0.47,0.07,0.69 c0.12,1.29,0.21,2.42,0.21,3.32c0,0.63,0,1.54,0.05,2.64c0.04,0.75,0.1,1.59,0.21,2.47c0.28,2.32,0.86,4.95,2.06,7.14 c0.65,1.19,1.88,2.68,3.09,4.02c-1.16-0.5-2.4-1.06-3.47-1.53c0-0.01-0.01-0.01-0.01-0.01c-0.34-0.49-0.59-0.92-0.77-1.25 l-0.42-0.88c-0.52-0.86-0.97-1.79-1.39-2.85c-0.46-1.16-0.76-2.84-0.97-4.63c-0.1-0.83-0.17-1.69-0.23-2.52 c-0.12-1.63-0.18-3.2-0.22-4.38c-0.03-0.75-0.05-1.38-0.08-1.85v-0.01c-0.03-0.35-0.1-0.9-0.22-1.73c-0.3-2.1-0.79-5.63-0.68-8.08 c0.24-5.19,3.22-7.18,5.69-7.31c0.1-0.01,0.19-0.01,0.28-0.01c1.01,0,1.88,0.28,2.61,0.86c-0.3,0.13-0.6,0.31-0.92,0.56 c-0.2,0.15,0.02,11.61,0.2,16.73c0.01,0.37,0.03,0.7,0.04,0.99c0.05,1.29,0.11,2.81,0.25,4.39c0.07,0.76,0.16,1.54,0.27,2.32 c0.48,3.15,1.45,6.24,3.53,8.05c2.67,2.32,3.63,2.11,4.86,1.91c0.01,0,0.01,0,0.01,0c0.06-0.01,0.13-0.02,0.19-0.03 c0.03-0.01,0.07-0.01,0.11-0.01c0.05-0.01,0.11-0.02,0.18-0.02c0.08-0.01,0.16-0.02,0.25-0.02c0.14-0.02,0.28-0.03,0.43-0.03 c0.15-0.01,0.29-0.02,0.43-0.02c0.09-0.01,0.17-0.01,0.25-0.01c0.07-0.01,0.13-0.01,0.18-0.01h0.03c0.14-0.01,0.22-0.01,0.22-0.01 l-0.09-3.42h0.01l-0.06-2.06c0-0.06-0.05-1.81-0.14-4.39c-0.01-0.62-0.03-1.3-0.05-2.01c-0.05-1.47-0.09-3.08-0.15-4.74 c-0.15-5.64-0.33-11.77-0.38-14.02c-0.04-1.68-0.2-3.14-0.38-4.69c-0.32-2.88-0.66-5.86-0.24-10.86c0.5-5.92,3.44-9.44,8.26-9.91 c0.27-0.02,0.53-0.04,0.78-0.04c1.37,0,2.46,0.36,3.3,0.81c-0.01,0.06-0.01,0.12-0.01,0.18c0.03,0.45,0.94,2.22,1.26,6.35 C98.81,48.87,99.25,57.14,99.02,63.61z M102.14,112.46c0,0.07,0,0.13-0.01,0.19c0-0.2,0.01-0.41,0.01-0.62V112.46z M114.63,74.4 c-0.97,4.91-1.78,7.58-4.83,9.52c-3.05,1.93-7.51,1.64-7.51,1.64s0.02-1.32,0.06-3.39c1.07,0.02,4.97,0.08,7.16-1.83 c2.1-1.83,2.48-6.65,2.4-10.2c-0.02-0.9-0.04-1.77-0.02-2.55c0.09-3.65,0.18-8.45-0.23-10.41c-0.15-0.73-0.47-1.39-0.92-1.36 c-0.86,0.07-0.51,2.09-0.49,2.53c0.01,0.07,0.14,5.6,0.05,9.2c-0.02,0.8,0,1.7,0.02,2.63c0.06,3.05-0.52,7.37-2.06,8.71 c-1.7,1.48-4.77,1.66-5.88,1.68c0.01-0.31,0.02-0.64,0.02-0.97c0.42,0.08,0.83,0.12,1.24,0.12c0.66,0,1.3-0.1,1.91-0.29 c3.54-1.12,3.72-7.09,3.72-8.28c0-0.61-0.08-1.53-0.2-2.8c-0.27-2.84-0.66-7.15-0.21-10.01c0.56-3.6,2.41-4.19,3.95-4.29 c0.08-0.01,0.16-0.01,0.24-0.01c1.04,0,2.04,0.46,2.83,1.27l0.01,0.01c-0.36,0.33-0.61,0.81-0.59,1.46 C115.33,57.82,115.6,69.5,114.63,74.4z M117.27,81.48c-0.08,0.16-0.16,0.32-0.24,0.48c0.16-0.32,0.31-0.65,0.44-0.97 C117.41,81.16,117.34,81.32,117.27,81.48z M121.14,80.9l-3.6-0.04v-0.01c0.14-0.35,0.28-0.7,0.41-1.05c0-0.01,0.01-0.01,0.01-0.02 c0.02-0.05,0.03-0.1,0.05-0.14c0.49-1.37,0.87-2.74,1.14-4c0.05-0.24,0.1-0.47,0.14-0.69c0.06-0.33,0.12-0.65,0.17-0.96 c0.06-0.38,0.12-0.74,0.16-1.08c0.03-0.25,0.06-0.53,0.09-0.83c0.05-0.5,0.09-1.06,0.12-1.66c0-0.01,0-0.01,0-0.01 c0.01-0.25,0.03-0.5,0.04-0.76v-0.11c0.02-0.33,0.03-0.66,0.04-1c0-0.1,0.01-0.2,0.01-0.3v-0.25c0.02-0.66,0.02-1.34,0.02-2.03 V65.8c0-0.94-0.03-1.88-0.07-2.81v-0.1c0-0.03,0-0.07-0.01-0.1c-0.01-0.36-0.03-0.71-0.05-1.05c-0.01-0.15-0.02-0.3-0.03-0.45 c-0.01-0.08-0.01-0.15-0.02-0.23c-0.01-0.15-0.03-0.29-0.04-0.43c0-0.04-0.01-0.07-0.01-0.11c-0.01-0.1-0.02-0.21-0.03-0.31 c-0.02-0.2-0.04-0.4-0.06-0.59c-0.02-0.18-0.05-0.36-0.07-0.53c-0.01-0.04-0.01-0.08-0.02-0.11c-0.02-0.19-0.05-0.38-0.08-0.55 c-0.02-0.13-0.05-0.24-0.07-0.36c-0.03-0.18-0.07-0.36-0.1-0.53c-0.04-0.16-0.08-0.32-0.12-0.47c0-0.01-0.01-0.02-0.01-0.03 c-0.03-0.12-0.07-0.24-0.11-0.36v-0.01c-0.1-0.28-0.2-0.51-0.3-0.7c-0.01-0.02-0.02-0.04-0.03-0.06c-0.03-0.04-0.05-0.09-0.08-0.13 c-0.26-0.55-0.59-1.04-0.96-1.48c-0.1-0.12-0.21-0.23-0.32-0.34c-1.18-1.22-2.71-1.92-4.3-1.92c-0.13,0-0.25,0-0.38,0.01 c-2.7,0.19-5.11,1.64-5.79,5.98c-0.68,4.34,0.39,11.29,0.39,13.12c0,1.83-0.48,5.79-2.32,6.37c-0.46,0.14-0.9,0.2-1.31,0.2 c-0.45,0-0.86-0.07-1.19-0.15v-0.09c0-0.12,0-0.24,0.01-0.37v-0.2c0.01-0.22,0.01-0.45,0.02-0.68c0.03-1.42,0.07-2.91,0.11-4.41 c0.02-0.54,0.03-1.09,0.05-1.63c0.01-0.43,0.02-0.85,0.04-1.26c0-0.13,0-0.25,0.01-0.38c0.01-0.28,0.02-0.55,0.03-0.83 c0-0.22,0.01-0.43,0.02-0.64c0.01-0.23,0.02-0.45,0.02-0.68c0.04-0.99,0.08-1.95,0.12-2.85c0.01-0.2,0.02-0.4,0.03-0.6 c0-0.06,0-0.11,0.01-0.16c0.01-0.26,0.02-0.51,0.03-0.76c0.02-0.28,0.03-0.54,0.04-0.8c0.01-0.16,0.02-0.31,0.03-0.47 c0.01-0.2,0.03-0.4,0.04-0.58c0-0.13,0.01-0.25,0.02-0.37v-0.04c0.01-0.13,0.02-0.26,0.03-0.39c0.52-6.99,1.04-15.24-1.26-19.19 c-0.09-0.14-0.17-0.27-0.25-0.4c-0.01-0.02-0.03-0.04-0.04-0.06c-0.56-0.86-1.12-1.46-1.64-1.86c-0.01,0-0.01-0.01-0.02-0.01 c-0.01-0.01-0.03-0.02-0.04-0.03c-0.03-0.03-0.05-0.05-0.08-0.07c-0.15-0.13-0.3-0.26-0.46-0.38c-0.2-0.15-0.4-0.3-0.62-0.44 c0,0,0,0-0.01,0c-0.21-0.14-0.44-0.27-0.67-0.38c-0.23-0.12-0.47-0.23-0.72-0.33c-0.99-0.4-2.12-0.63-3.34-0.63 c-0.31,0-0.64,0.02-0.97,0.05c-4.92,0.48-9.39,3.82-10.06,11.73c-0.67,7.91,0.51,11.13,0.61,15.76c0.05,2.2,0.21,7.97,0.37,13.43 c-1.61-0.29-3.03-0.39-4.18-0.4c0.01-0.07,0.01-0.13,0.02-0.2c0.39-3.47,0.77-10.13,0.39-13.22c-0.07-0.54-0.19-1.06-0.36-1.53 c-0.04-0.12-0.09-0.24-0.14-0.35c-0.04-0.1-0.09-0.2-0.14-0.3c-0.01-0.03-0.02-0.06-0.04-0.09c-0.08-0.16-0.17-0.3-0.27-0.44 c-0.03-0.04-0.06-0.1-0.09-0.15c0-0.01-0.01-0.01-0.01-0.01c-0.54-1.06-1.28-2-2.22-2.68c-0.2-0.14-0.41-0.27-0.63-0.38 c-0.84-0.47-1.82-0.73-2.96-0.73c-0.12,0-0.25,0-0.38,0.01c-3.47,0.18-7.3,2.95-7.59,9.22c-0.14,3.16,0.63,7.8,0.84,9.53 c-0.6-0.13-1.19-0.25-1.75-0.38c-5.01-1.16-9.06-2.31-13.01-2.8s-10.6-2.31-13.4-3.57c-2.8-1.25-8-3.47-8-3.47s0,0.01,0,0.02 c-0.11-0.04-0.21-0.07-0.28-0.07c-1.45,0-2.81,1.41-4.45,1.89c-1.64,0.48-8,3.08-10.79,4.43c-2.8,1.35-4.53,3.08-6.46,3.76 c-0.4,0.14-0.81,0.28-1.21,0.43V11.44c0-2.49,2.03-4.52,4.52-4.52h105.3c2.49,0,4.52,2.03,4.52,4.52V80.9z"/>
    <path d="M28.08,44.38c0.15,0.01,0.31,0.01,0.46,0.01c5.07,0,11.56-3.81,11.71-11.78c0.15-8.25-4.96-12.53-11.97-12.98 c-0.22-0.01-0.45-0.02-0.67-0.02c-5.76,0-11.78,4.64-11.97,11.99C15.44,39.85,21.46,44.07,28.08,44.38z M20.89,24.32 c1.86-1.72,4.31-2.71,6.72-2.71c0.18,0,0.36,0.01,0.55,0.02c6.54,0.42,10.22,4.41,10.1,10.95c-0.13,7.15-6.02,9.82-9.71,9.82 c-0.12,0-0.25,0-0.37-0.01c-4.97-0.23-10.72-3.18-10.53-10.73C17.73,27.99,19.46,25.64,20.89,24.32z"/>
  </g>
</svg>