<svg viewBox="0 0 128 128" xmlns="http://www.w3.org/2000/svg">
  <path d="M124.83,64.02c-2.86-2.75-4.79,2.37-7.53,2.11s-6.38-7.27-9.57-9.19c-1.56-0.94-3.07-1.07-4.21-0.96 c-2.22-2.46-4.78-3.98-6.78-4.29c-0.5-0.08-1.07-0.11-1.68-0.11c-0.41,0-0.83,0.01-1.26,0.04c-0.22,0.01-0.44,0.03-0.65,0.05 c-0.22,0.02-0.44,0.04-0.65,0.06c-0.22,0.02-0.44,0.05-0.65,0.07c-0.21,0.03-0.42,0.05-0.63,0.08c-0.21,0.03-0.41,0.06-0.61,0.09 c-0.3,0.04-0.58,0.09-0.85,0.13c-0.18,0.03-0.36,0.06-0.52,0.09c-0.39,0.07-0.73,0.13-1.01,0.18c-0.09-0.09-0.18-0.16-0.27-0.21 c-0.08-0.05-0.21-0.07-0.36-0.07c-0.63,0-1.81,0.33-3.39,0.65c0.29-0.88,0.13-1.99-1.17-1.99c-0.17,0-0.35,0.02-0.56,0.06 c-1.85,0.36-5.12,1.85-7.39,2.13c-0.5,0.06-1.14,0.11-1.81,0.15c4.42-1.8,12.1-4.79,14.97-8.5c0.98-1.56,1.24-3.37,0.9-5.05 c-0.35-2.47-1.59-5.93-3.99-7.86c0.04-0.02,0.06-0.03,0.06-0.03s-9.59-7.84-18.65-8.71c-8.32-0.8-11.28-0.43-12.46,0.57 c0.29-1.3,0.72-1.96,1.07-2.91c0.51-0.01,0.98-0.1,1.11-0.66c0.2-0.84,0.5-1.86,0.54-2.71c0.26-5.68-4.26-11.17-11.42-11.34 c-0.34-0.01-1.22,0.02-1.54,0.06c-1.84,0.23-4.25,1.11-5.74,2.23c-2.13,1.61-3.89,3.63-5.36,5.74c-0.74,1.06-4.63,1.75-4.09,3.37 c0.67,1.99,3.41,1.64,5.97,1.15c0.08,0.95,0.27,1.83,0.54,2.49c0.05,0.11,0.4,0.97,0.46,1.24c0.31,1.05-1.61,2.39-1.7,3.6 c-0.06,0.91,1.87,1.23,2.04,1.36c0.1,0.09,0.18,0.22,0.26,0.4c-0.04,0-0.08-0.01-0.12-0.01c-1.92-0.12-4.82,0.28-6.74-0.06 c-1.92-0.34-5.34-1.22-9.24,2.62c-2.85,2.8-3.83,5.2-4.2,6.35c-1.34,0.86-1.75,1.73-3.29,4.89c-0.92,1.88-1.92,4.3-2.7,6.19 c-0.15,0.35-0.28,0.68-0.42,0.99c-0.03,0.09-0.07,0.18-0.11,0.26c0.03-0.09,0.07-0.18,0.1-0.26c-0.04,0-0.06,0-0.06,0 s-0.33,0.48-0.53,0.96c-0.15,0.35-0.21,0.74-0.23,0.92v0.01C8.7,50.45,8.7,50.48,8.7,50.48L6.79,53.6c0,0-1.04,1.47-1.93,3.15 c-0.12,0.24-0.24,0.49-0.36,0.73c-0.09,0.21-0.19,0.41-0.27,0.61c-0.4,0.95-0.66,1.86-0.57,2.52c0.37,2.79,1.78,3.76,2.88,4.64 c0.93,0.74,2.02,0.95,2.84,0.99c0.11,0.01,0.21,0.01,0.31,0.01c0.55,0,0.92-0.07,0.92-0.07s0.05,0.53,0.69,0.84h0.01 c0.22,0.1,0.51,0.17,0.9,0.19h0.1c0.46,0,0.93-0.1,1.39-0.27c0.18-0.06,0.36-0.14,0.54-0.23c0.38-0.19,0.74-0.41,1.07-0.67 c0.11-0.08,0.22-0.16,0.32-0.25c0.25-0.21,0.46-0.42,0.65-0.64c0.72-0.83,1.43-2.02,1.72-2.52c0.09-0.15,0.14-0.24,0.14-0.24 l1.72-1.41l0.67-0.55L19.87,61c0.04,0.09,0.06,0.13,0.06,0.13s0.77,0.12,1.11-0.09c0.6-0.37,0.74-1.02,0.74-1.02 s-0.02-0.08-0.06-0.22c1.93-1,5.69-2.88,6.66-2.88c0.05,0,0.1,0.01,0.14,0.02c1.47,0.57,4.19,4.34,4.8,5.19 c0.03,0.05,0.05,0.09,0.07,0.12c0.01,0.02,0.01,0.03,0.02,0.04c0.92,1.54,1.53,2.61,2.07,4.15c0.54,1.54,0.69,2.23,0.69,5.84 c0,1.65-0.1,3.24,0.03,4.76c0.02,0.35,0.05,0.72,0.12,1.1c0.04,0.29,0.1,0.58,0.19,0.89c0.15,0.67,0.4,1.37,0.78,2.08 c-0.7,0.08-2.16,0.28-3.96,0.66c-2.54,0.54-4.73,1.26-5.76,1.38c-0.16,0.02-0.33,0.03-0.49,0.03c-0.71,0-1.4-0.16-2.1-0.16 c-0.66,0-1.34,0.14-2.07,0.69c-1.69,1.27-1.74,2.54-1.41,4.93c0.35,2.56,0.62,3.48,0.46,5.42c-0.17,1.99-2.34,4.92-1.65,8.72 c0.28,1.51,0.64,2.59,0.98,3.34c-0.05,0.02-0.07,0.02-0.07,0.02s0.38,2.35,2.04,4.31c1,1.18,2.05,2.59,2.82,2.68 c0.77,0.09,1.63-1.05,2.45-2.73c0.82-1.68,1.5-3.95,1.5-5.45c0-1.49-0.45-1.77-0.86-2.13c-0.41-0.36-1.22-0.81-1.22-0.81 s-0.02,0.02-0.07,0.07c0.05-0.07,0.54-0.77,0.46-3.01c-0.13-3.63-0.49-8.37-0.18-8.56c0.07-0.04,0.44-0.06,1.03-0.06 c1.86,0,5.89,0.16,9.4,0.16h0.84c4.76-0.04,5.42-0.08,5.99-0.5c0.58-0.42,1.38-2.38,1.38-2.38s0.96,1.08,1.89,1.8 c-0.22,0.21-0.45,0.43-0.68,0.64c-1.3,1.22-3.45,3.91-3.99,4.45c-0.54,0.54-2.84,1.54-3.61,2.46c-0.77,0.92-0.7,2.46-0.23,6.22 c0.13,1.03,1.46,2.68,2.38,2.99s4.68-0.07,7.37,0.54c0.49,0.11,0.91,0.24,1.3,0.39c0.38,0.14,0.72,0.29,1.04,0.45 c1.08,0.51,1.99,1,3.63,1h0.25c2.84-0.07,3.99-1.84,3.99-1.84c0.01,0.01,0.01,0.01,0.01,0.01s2.11-0.43,4.01-1.84 c1.14-0.85,2.41-1.96,2.45-2.55c0.03-0.59-2.1-2.17-3.93-3.27c-1.83-1.1-2.79-1.76-3.45-1.79c-0.65-0.03-1.69,1.03-2.07,1.41 c-0.38,0.37-0.93,1.28-0.93,1.28s-1.77,0.38-3.38,0.61c-0.2,0.03-0.4,0.04-0.61,0.04c-0.38,0-0.78-0.04-1.16-0.1 c-0.19-0.03-0.38-0.07-0.56-0.11c-0.18-0.04-0.35-0.08-0.51-0.12c-0.08-0.02-0.15-0.04-0.23-0.06c-0.14-0.04-0.27-0.08-0.39-0.11 c-0.29-0.09-0.46-0.15-0.46-0.15s3.53-2.54,4.99-3.38c1.43-0.82,3.37-1.8,6.33-3.2c0.17-0.08,0.34-0.17,0.49-0.24 c0.11-0.06,0.22-0.13,0.33-0.19c0.7-0.43,1.19-0.89,1.52-1.37c0.04-0.05,0.08-0.1,0.1-0.15c0.13-0.23,0.21-0.45,0.28-0.69h0.08 c0.44,0.02,0.98,0.04,1.59,0.05v0.64c0,0,0.28,0.01,0.71,0.01c0.86,0,2.35-0.03,3.48-0.22c1.71-0.28,4.19-0.85,4.19-0.85l-0.01-0.53 c2.85-0.74,5.56-1.67,5.82-1.76c0.01-0.01,0.02-0.01,0.02-0.01s0,0.02,0,0.06c-0.02,0.71-0.18,6.99-0.26,8.29 c-0.09,1.38-0.17,3.62-1.89,5.94c-1.72,2.32-3.7,4.56-5.17,5.68c-1.46,1.12-3.27,1.46-4.91,3.01c-0.45,0.42-0.86,0.97-1.19,1.51 c0,0,0,0-0.01,0.02c-0.37,0.3-1.68,1.48-2.6,3.41c-0.71,1.48-1.21,3.93-0.9,4.95c0.18,0.61,1.92,1.2,5.28,0.38 c3.71-0.9,4.55-1.93,4.55-1.93s0.23-0.81,0.3-1.6c0.04-0.51,0.01-1.05,0-1.22c0.48-0.34,1.53-1.13,2.49-2.02 c0.47-0.44,0.99-1.23,1.56-2.19c-0.13,1.64,0.08,2.63,0.52,2.8c1.35,0.52,4-0.88,5.34-1.7c1.35-0.82,2.96-2.26,3.2-2.65 c0.24-0.39,0.19-1.42,0.19-1.42l-0.09-0.9c0.33-0.22,0.71-0.51,1.12-0.87c1.16-1.03,0.84-1.92,3.53-3.53 c1.8-1.09,4.45-1.54,6.37-2.23c1.92-0.69,2.53-1.84,2.76-3.07c0.23-1.23,0-3.76,0.46-6.68c0.46-2.92,3.38-6.52,4.15-7.83 c0.61-1.05,3.35-4.36,4.37-10.6c0.56,2.24,1.5,4.48,3.09,5.34c3.64,1.98,6.61-0.17,9.57-3.51 C124.19,71.67,126.62,65.74,124.83,64.02z M60.11,39.21c0,0,3.83,0.96,6.01,1.22c1.54,0.18,2.8,0.44,4.1,0.03 c-3.06,2.09-6.42,4.55-9.31,7.04c-0.5,0.43-1.1,0.98-1.62,1.57C60.66,45.02,60.11,39.21,60.11,39.21z M59.14,52.63 c0.02-0.46,0.21-0.9,0.49-1.44c0.03-0.06,0.07-0.12,0.1-0.19c0.18-0.34,0.69-1.1,2.16-2.36c7.38-6.37,18.1-12.61,18.21-12.67 l0.04-0.03l0.04-0.02c0.02-0.01,0.1-0.07,0.22-0.17c2.15-1.8,3.55-2.44,4.19-2.58c1.82,1.71,2.79,4.56,3.07,6.58l0.01,0.04 l0.01,0.05c0.28,1.36,0.04,2.74-0.66,3.89c-2.53,3.19-9.5,6.02-13.68,7.72c-1.25,0.51-2.34,0.95-3.07,1.3l-0.88,0.42l-0.3,0.14 l0.4,1.25c0.01,0.04,0.03,0.08,0.04,0.12c0.03,0.11,0.07,0.22,0.11,0.33l-2.36,1.74l-1.23,0.9l-2.42,1.77 c-1.34-1.7-2.79-3.59-3.62-4.8c-0.29-0.42-0.51-0.75-0.62-0.97c-0.16-0.3-0.23-0.57-0.25-0.83V52.63z M47.04,24.92 c0.31-1.79,0.39-3.55,0.41-4.57c0.09-0.17,0.17-0.34,0.27-0.49c0.8,0.13,1.6,0.24,2.4,0.35c0.42,1.1,0.06,2.73-1.26,3.45 c0,0,0.8,2.4,3.24,2.61c0.14,0.01,0.27,0.02,0.39,0.02c0.1,0.09,0.22,0.18,0.34,0.28c-0.1,0.41-0.21,0.83-0.35,1.24v0.01l-2.53,2.99 c-0.96-0.52-2.4-1.11-4.12-1.23C46.45,28.3,46.77,26.5,47.04,24.92z M45.22,31.06c1.4,0,2.63,0.41,3.53,0.83 c-0.04,0.01-0.06,0.01-0.06,0.01s0.1,1.86,0.29,4.08c-1.51-1.41-3.65-2.65-4.89-3.46c-0.32-0.21-0.74-0.53-1.22-0.89 c0.45-0.11,0.75-0.24,0.99-0.35c0.21-0.08,0.38-0.15,0.58-0.18c0.04,0,0.08-0.01,0.12-0.01C44.79,31.07,45.01,31.06,45.22,31.06z M38.12,48.28l0.85-0.77l-0.65-0.64l-0.49-0.48c-0.04-0.03-0.07-0.06-0.09-0.08c0.02-0.06,0.07-0.13,0.16-0.2 c0.63-0.52,0.84-1.42,0.54-2.11c0.11-0.03,0.36-0.06,0.82-0.06h0.44c0,0,1,0.02,1.33,0.02h0.45l0.38-0.25l0.63-0.42l0.07-0.05 l-0.03-0.84c0-0.05,0-0.1-0.01-0.15c0.03,0.01,0.06,0.01,0.08,0.02c1.17,0.24,1.18,0.26,1.7,1.21c0.56,1.02,0.79,1.5,0.87,1.7 l-0.15,1.54l-0.16,1.61h-0.01l-0.2,2.05l-0.04,0.01c-0.19,0.04-0.39,0.07-0.59,0.11l-0.16,0.02c-0.15,0.02-0.31,0.05-0.48,0.07 l-0.07,0.01c-1.1,0.15-1.96,0.22-2.64,0.22c-0.14,0-0.27,0-0.4-0.01H40.2c-0.03,0-0.06,0-0.08-0.01l-0.06-0.01h-0.05 c-0.19-0.02-0.37-0.06-0.55-0.1l-0.04-0.01l-0.05-0.01c-0.1-0.02-0.24-0.04-0.39-0.05c-0.04,0-0.08,0-0.12-0.01l-0.1-0.01h-0.01 c-0.02,0-0.04,0-0.06-0.01c-0.08,0-0.08,0-0.13-0.03c-0.16-0.07-0.29-0.13-0.39-0.19l0.01-0.02l0.06-0.21l0.49-1.02L38.12,48.28z M36.09,25.57c-0.09-0.02-0.24-0.07-0.4-0.12c0.12-0.18,0.26-0.37,0.36-0.51c0.63-0.84,1.4-1.89,1.05-3.15 c-0.11-0.43-0.42-1.19-0.52-1.41c-0.23-0.58-0.39-1.39-0.45-2.25c1.07-0.21,2.01-0.36,2.64-0.28c1.75,0.23,3.39,0.95,5.11,1.31 c0.12,0.03,0.24,0.05,0.36,0.07c0.2,0.86,0.72,3.19,0.72,4.69c0.02,2.46-0.25,4.25-0.6,5.68c-0.03,0-0.06,0.01-0.09,0.01 c-0.43,0.05-0.77,0.19-1.04,0.31c-0.35,0.16-0.75,0.33-1.78,0.39c-0.1,0.01-0.2,0.01-0.3,0.01c-0.01,0.01-0.02,0-0.02,0 c-0.04,0.01-0.07,0.01-0.11,0.01c-1.74,0-2.37-0.69-2.77-1.63c0.09-0.05,0.17-0.11,0.25-0.18c0.08-0.05,0.14-0.12,0.21-0.18 c0.59-0.57,0.07-1.05-0.63-0.63c-0.05,0.03-0.1,0.06-0.15,0.08v-0.01c-0.22-0.69-0.43-1.34-0.98-1.8l-0.02-0.02l-0.03-0.02 C36.65,25.75,36.4,25.67,36.09,25.57z M36.83,29.18H36.8l-0.36-1.06c0.01,0,0.01,0,0.02,0c0.08,0.24,0.16,0.51,0.27,0.8 C36.76,29,36.79,29.09,36.83,29.18z M33.7,35.25c0,0,0,0,0.01,0.01c-0.02,0-0.04,0-0.07-0.01H33.7z M38.15,39.49 c0.72,0.58,1.39,1.12,1.97,1.58c-0.06,0.49,0.17,0.83,0.39,1.04c-0.23,0.09-0.45,0.21-0.65,0.33c0,0,0,0-0.01,0.01h-0.01 c-0.21-0.01-0.39-0.01-0.58-0.01c-0.77,0-1.32,0.08-1.62,0.26c-0.35,0.19-0.6,0.52-0.7,0.91c-0.06,0.22-0.06,0.45-0.01,0.65 c-0.57,0.36-1.21,0.75-1.88,1.17c-4.99,3.11-12.09,7.54-12.42,7.74c0.19-0.25,3.31-4.37,6.41-9.19c0.2-0.31,0.39-0.61,0.58-0.9 c1.77-2.77,3.12-4.96,3.9-6.27C34.35,37.19,36.53,38.22,38.15,39.49z M25.87,33.63c1.63-0.44,4.54-1.82,6.09-2.66 c0.1-0.06,0.19-0.11,0.28-0.17c-0.48,1.28-0.65,1.6-0.69,1.67c-0.33,0.54-0.82,1.59-0.5,2.61c0.06,0.18,0.13,0.34,0.24,0.49 c-0.38,0.58-0.89,1.4-1.48,2.35l-5.57-3.77C24.7,33.99,25.28,33.79,25.87,33.63z M17.19,61.23l-0.22,0.18l-0.14,0.25 c-0.01,0.01-0.05,0.08-0.13,0.22c-0.56,0.96-1.11,1.78-1.56,2.29c-0.52,0.61-1.27,1.12-1.97,1.36c0.19-0.25,0.39-0.54,0.57-0.87 c0.53-0.96,1.8-3.02,1.87-4.31c0.07-1.36-0.87-1.34-1.39-0.97c-0.73,0.52-1.15,1.71-1.8,3.22c-0.33,0.77-0.77,1.42-1.2,1.95 l-0.89,0.16c0,0-0.26,0.04-0.64,0.04c-0.62,0-1.51-0.11-2.21-0.67l-0.19-0.15c-1.01-0.8-1.87-1.48-2.14-3.52 c-0.01-0.08-0.04-0.54,0.47-1.76c0.04-0.1,0.08-0.19,0.13-0.28c0.04-0.09,0.07-0.17,0.11-0.26l0.17-0.34l0.16-0.32 c0.83-1.57,1.81-2.97,1.82-2.98l0.03-0.04l0.03-0.05L10,51.22c0.03-0.06,0.07-0.12,0.11-0.19c1.43,0.65,3.73,1.93,5.84,4.13 c1.52,1.58,2.59,3.26,3.23,4.44L17.19,61.23z M18.62,54.27c-0.35-0.4-0.75-0.8-1.19-1.19c-3.02-2.69-5.12-3.8-6.4-4.26 c0.05-0.1,0.09-0.21,0.14-0.32l0.18-0.42c0.74-1.79,1.75-4.25,2.66-6.1l0.09-0.2c1.43-2.93,1.74-3.54,2.73-4.14 c0.23-0.14,0.5-0.28,0.82-0.44c2.02-1.04,3.49-1.41,3.5-1.41l0.24-0.06l0.2-0.13l0.35-0.22l6.61,4.57c-0.42,0.69-0.87,1.4-1.31,2.11 c-0.79,1.26-1.6,2.51-2.34,3.58C23.01,48.38,19.95,52.49,18.62,54.27z M45.41,87.16c-0.29,0.7-0.7,1.51-0.91,1.76 c-0.41,0.15-2.68,0.17-5.08,0.19h-0.83c-2.01,0-4.16-0.05-6.05-0.1c-1.37-0.03-2.54-0.06-3.35-0.06c-0.98,0-1.4,0.02-1.81,0.28 c-0.98,0.6-0.95,1.3-0.68,6.7c0.05,1.07,0.1,2.18,0.14,3.2c0.05,1.33-0.13,1.92-0.19,2.08l-0.55,0.62l0.41,0.89l0.22,0.48 c-0.53,0.48-1.17,1.04-1.83,1.53c-0.59,0.44-1.41,0.77-2.13,1c-0.31-0.63-0.69-1.65-0.98-3.22c-0.39-2.1,0.3-3.94,0.9-5.56 c0.35-0.97,0.69-1.88,0.76-2.77c0.14-1.68-0.01-2.71-0.25-4.26c-0.06-0.44-0.14-0.92-0.21-1.49c-0.33-2.37-0.13-2.81,0.82-3.52 c0.44-0.33,0.78-0.39,1.17-0.39c0.26,0,0.56,0.03,0.87,0.07c0.37,0.04,0.79,0.09,1.23,0.09c0.24,0,0.45-0.01,0.66-0.04 c0.64-0.07,1.52-0.31,2.64-0.6c0.97-0.26,2.07-0.55,3.26-0.8c2.01-0.43,3.5-0.6,3.91-0.65l0.69-0.07c0.04,0.05,0.08,0.1,0.12,0.15 c1.89,2.23,5.86,3.31,7.39,3.65L45.41,87.16z M64.65,89.4c-0.43,0-0.87-0.01-1.32-0.03c0.03-0.48,0.01-0.98-0.01-1.47l-0.03-0.55 c-0.03-0.86-0.19-1.97-0.34-3.04c-0.16-1.13-0.33-2.31-0.31-2.99l-1.5-0.04c-0.03,0.81,0.14,1.99,0.32,3.24 c0.15,1.03,0.3,2.1,0.33,2.88l0.03,0.58c0.02,0.49,0.04,0.93,0.02,1.33c0,0.01,0,0.01-0.01,0.02c-0.02,0.58-0.14,1.07-0.48,1.53 c-0.01,0.02-0.02,0.03-0.03,0.04c-0.18,0.29-0.56,0.67-1.37,1.08c-0.1,0.06-0.22,0.11-0.34,0.17c-3.17,1.5-5.05,2.45-6.44,3.25 c-1.51,0.87-4.97,3.36-5.12,3.46l-2.3,1.66l2.67,0.97c0.2,0.07,2.07,0.74,3.82,0.74c0.29,0,0.56-0.02,0.82-0.06 c1.64-0.23,3.41-0.61,3.48-0.62l0.06-0.02l0.06-0.01l0.53-0.16c0.44,0.62,0.94,1.37,1.31,2.05c0.31,0.58,0.63,1.22,0.9,1.8 l-0.5,0.78c-0.03,0.04-0.83,1.13-2.79,1.18H55.9c-1.19,0-1.85-0.31-2.76-0.74c-0.76-0.37-1.62-0.78-2.88-1.06 c-1.72-0.39-3.72-0.41-5.33-0.43c-0.74-0.01-1.66-0.02-1.88-0.07c-0.44-0.18-1.32-1.3-1.38-1.76c-0.31-2.47-0.53-4.56-0.11-5.07 c0.28-0.34,1.25-0.9,1.89-1.26c0.71-0.41,1.27-0.74,1.63-1.1c0.22-0.22,0.57-0.63,1.16-1.32c0.85-1,2.02-2.37,2.78-3.08 c0.23-0.21,0.45-0.42,0.71-0.66l1.26-1.21l-1.38-1.07c-0.81-0.62-1.68-1.6-1.69-1.61l-1.6-1.79l-0.03,0.08l0.02-0.11 c-2.4-0.5-5.45-1.61-6.8-3.2l-0.84-1.39c-0.33-0.55-0.56-1.12-0.72-1.71c-0.04-0.16-0.08-0.32-0.1-0.48 c-0.05-0.2-0.08-0.42-0.1-0.63c-0.04-0.25-0.07-0.51-0.08-0.77c-0.07-0.89-0.04-1.83-0.02-2.82c0.01-0.54,0.02-1.08,0.02-1.63 c0-3.72-0.16-4.57-0.77-6.34c-0.59-1.66-1.24-2.81-2.17-4.37l-0.04-0.07l-0.03-0.05l-0.05-0.09l-0.04-0.05l-0.03-0.05 c-3.57-4.98-5.01-5.54-5.47-5.72c-0.22-0.08-0.45-0.12-0.69-0.12c-1.21,0-4.33,1.47-7.16,2.94c-0.16-0.36-0.35-0.78-0.59-1.22 c1.82-1.09,10.52-6.3,16.13-9.69h0.01c0,0.01,0,0.01,0.01,0.02c-0.42,0.38-0.62,0.6-0.61,1.2c0.04,0.72,0.56,1.11,0.61,1.11 c-0.01,0.04-0.3,0.4-0.19,0.98c0.08,0.49,0.77,0.92,1.37,1.18c0.24,0.1,0.39,0.13,0.61,0.15c0.03,0,0.07,0.01,0.1,0.01 c0.16,0.02,0.31,0.02,0.41,0.04c0.23,0.06,0.49,0.11,0.77,0.14c0.11,0.02,0.23,0.03,0.35,0.03c0.09,0.01,0.18,0.01,0.28,0.01h0.19 c0.16,0,0.32-0.01,0.49-0.01c0.08,0,0.15,0,0.23-0.01c0.3-0.02,0.6-0.04,0.89-0.06c0.18-0.01,0.36-0.04,0.54-0.06 c0.24-0.02,0.47-0.06,0.69-0.09c0.03,0,0.05,0,0.08-0.01c0.23-0.04,0.45-0.07,0.65-0.1c0.24-0.04,0.46-0.08,0.66-0.12 c0.06-0.01,0.11-0.02,0.16-0.03c0.08-0.01,0.14-0.03,0.21-0.04c0.19-0.04,0.32-0.07,0.38-0.08c0.01-0.01,0.02-0.01,0.03-0.01 c0.16-0.03,0.29-0.14,0.35-0.28c-0.05,0.15-0.19,0.27-0.35,0.3c-0.01,0-0.02,0-0.03,0.01c0,0.03,0,0.05,0,0.05s0.25,0.77,3.48,0.77 c1.84,0,4.38-0.12,6.37-0.5c0.01,0,0.01,0,0.01,0l2.15,0.34c-0.06,0.58,0.03,1.23,0.4,1.95c0.1,0.19,0.25,0.44,0.45,0.74 c-0.04,2.21,0.06,5.74,0.8,9.38c1.21,5.97,2.56,9.88,4.98,10.1c0.12,0.01,0.25,0.02,0.39,0.03L64.65,89.4z M64.79,73.09l-0.36-0.02 c-1.25-0.12-2.48-3.11-3.65-8.91c-0.51-2.5-0.7-4.98-0.76-6.96c0.78,1.04,1.66,2.17,2.41,3.11l-0.49,0.36 c-0.11,0.08-0.18,0.19-0.21,0.33c-0.03,0.14,0.01,0.27,0.09,0.38l7.28,8.49l-2.33,3.3c-0.29,0.43-0.49,0.9-0.59,1.38v-1.36 L64.79,73.09z M68.59,89.86c-0.75,0.12-1.69,0.17-2.45,0.19v-0.64l0.04-13.07c0.12,0.49,0.33,0.97,0.63,1.41 c0,0,0.84,1.39,1.55,1.51c0.3,0.05,0.65,0.08,1.04-0.24l1.95-1.37l0.14,11.14l0.01,0.5C70.65,89.47,69.5,89.71,68.59,89.86z M75.27,54.43c1.46-0.18,3.21-0.78,4.75-1.31c1.06-0.36,2.06-0.7,2.74-0.84c0.01,0,0.02,0,0.02,0l-0.81,2.44l2.54-0.51 c0.52-0.11,1.01-0.21,1.44-0.31c0.39-0.09,0.82-0.18,1.14-0.24c0.09-0.02,0.18-0.04,0.25-0.05c0.17,0.23,0.44,0.69,0.81,1.66v0.01 c0.37,0.98,0.85,2.46,1.43,4.72c0.68,2.72,0.84,6.72-0.44,9.09c-1.2,2.21-5.4,3.87-10.96,4.33c-0.29,0.02-0.58,0.05-0.87,0.06 L80.86,71c0.32-0.23,0.49-0.6,0.49-1.09c0-0.52-0.19-1.17-0.56-1.93c-0.55-1.14-2.94-3.15-3.43-3.55l-2.75-4.77l-0.82-1.41 l-2.06-3.57C72.79,54.63,74.22,54.56,75.27,54.43z M78.19,105.76c0,0-0.64,0.7-1.22,2.38c-0.01,0-0.01,0.01-0.01,0.01 c-0.6,0.91-1.14,1.83-1.64,2.69c-0.66,1.14-1.35,2.31-1.8,2.73c-1.19,1.11-2.58,2.08-2.63,2.11l-0.18,0.13l-3.94-2.44 c0.26-0.42,0.56-0.81,0.88-1.11c0.78-0.74,1.63-1.15,2.53-1.6c0.75-0.36,1.53-0.74,2.26-1.31c1.48-1.13,3.53-3.36,5.46-5.98 c1.92-2.58,2.08-5.08,2.18-6.57l0.01-0.16c0.09-1.4,0.25-8.13,0.26-8.41l0.02-0.76c4.01-2.31,7.3-6.32,9.04-8.74 c0.07,2.81,0.24,5.77,0.63,7.73l-0.63,0.7c-0.33,0.37-0.55,0.65-0.7,0.86c-1.49,2.18-2.43,5.19-3.35,8.1l-0.2,0.65 c-0.22,0.71-0.66,1.57-1.27,2.49l-1.12,1.7v0.01c-0.31,0.15-0.66,0.34-1.05,0.57C78.88,103.23,78.19,105.76,78.19,105.76z M90.53,88.16c0.05,0.12,0.09,0.24,0.13,0.36c0.02,0.06,0.04,0.12,0.06,0.19c0.02,0.06,0.04,0.13,0.06,0.19c0.01,0,0.01,0,0,0.01 c0.08,0.24,0.15,0.49,0.21,0.76c0.65,2.62,0.64,5.28,0.33,5.96c-0.39,0.85-2.38,2.3-4.38,3.61c-0.76,0.49-1.28,0.7-1.8,0.85 c0.66-1,1.17-1.98,1.45-2.87c0.95-3.01,1.89-6.2,3.36-8.35C90.07,88.69,90.27,88.45,90.53,88.16z M102.78,82.98 c-0.18,0.27-0.32,0.49-0.42,0.66c-0.15,0.25-0.42,0.65-0.74,1.11c-1.27,1.85-3.19,4.65-3.6,7.25c-0.29,1.8-0.32,3.42-0.35,4.73 c-0.02,0.81-0.03,1.51-0.1,1.9c-0.16,0.86-0.52,1.48-1.8,1.94c-0.59,0.21-1.29,0.41-2.02,0.61c-1.52,0.43-3.25,0.92-4.61,1.74 c-2.04,1.22-2.65,2.17-3.14,2.93c-0.22,0.32-0.36,0.54-0.61,0.76c-0.5,0.44-0.94,0.75-1.27,0.95l-0.44-0.26l-2.83-1.7l-0.22-0.13 l-0.64-0.39c0.14-0.29,0.72-1.01,1.27-1.56c0.44-0.43,1.23-1.02,2.11-1.35c0.12-0.04,0.25-0.09,0.38-0.12h0.01l1.8-0.52 c0.76-0.22,1.41-0.53,2.2-1.04c3.75-2.45,4.59-3.52,4.92-4.24c0.48-1.05,0.46-3.87-0.15-6.56c-0.02-0.08-0.04-0.16-0.05-0.24 c-0.02-0.08-0.04-0.16-0.06-0.24c-0.14-0.53-0.3-1.06-0.48-1.56c-0.03-0.11-0.08-0.22-0.12-0.33c-0.57-1.42-0.91-5.32-0.95-10.99 l-0.03-2.63l-1.37,2.25c-0.05,0.08-4.71,7.66-10.61,10.64c-0.01,0.01-0.02,0.01-0.03,0.02l-0.48,0.16c-0.04,0.02-2.6,0.91-5.36,1.65 l-0.15-11.81l2.18-1.52c1.06-0.03,2.16-0.08,3.28-0.17c6.04-0.5,10.66-2.35,12.16-5.12c1.5-2.77,1.33-7.17,0.57-10.17 c-0.74-2.88-1.36-4.75-1.91-5.9c1.49-0.27,3.95-0.65,5.94-0.65c0.57,0,1.05,0.03,1.45,0.09c1.47,0.23,3.47,1.34,5.32,3.19 c2.44,2.43,4.62,6.14,5.01,10.85c0.04,0.45,0.07,0.91,0.07,1.38C106.98,76.71,104.04,81.11,102.78,82.98z"/>
  <path d="M9.48,60.19c0.05,2.14-0.87,3.14-1.75,3.04c-0.88-0.1-1.39-1.39-1.34-2.83s0.52-2.91,1.76-2.86 C9.01,57.58,9.44,58.65,9.48,60.19z"/>
  <path d="M22.32,46.09c-0.69,0.58-2.12,0.82-3.14-0.06c-1.02-0.87-1.22-2.5-0.44-3.34c0.6-0.65,2.3-0.75,3.28,0.15 C23.06,43.78,23.01,45.51,22.32,46.09z"/>
  <path d="M39.12,23.76c-0.51,0.09-1.03-0.48-1.17-1.26c-0.13-0.79,0.18-1.49,0.69-1.58c0.51-0.09,1.04,0.48,1.17,1.26 C39.94,22.97,39.63,23.67,39.12,23.76z"/>
  <path d="M40.76,20.39c-0.29,0.11-1.77-0.5-2.78,0.1c-0.82,0.48-1.18-0.04-1.01-0.58c0.13-0.4,0.59-0.83,1.68-0.9 c1.03-0.07,1.57,0.4,1.92,0.67C40.92,19.95,40.98,20.31,40.76,20.39z"/>
</svg>