<svg viewBox="0 0 128 128" xmlns="http://www.w3.org/2000/svg">
  <g>
    <polygon points="68.1,16 59.9,16 59.9,28.9 47,28.9 47,37.1 59.9,37.1 59.9,50 68.1,50 68.1,37.1 81,37.1 81,28.9 68.1,28.9 "/>
    <path d="M120,20h-12V8c0-2.2-1.8-4-4-4H24c-2.2,0-4,1.8-4,4v12H8c-2.2,0-4,1.8-4,4v100h16h14.8v-14.5h58.5V124H108h16V24 C124,21.8,122.2,20,120,20z M20,88h-6c-1.1,0-2-0.9-2-2v-8c0-1.1,0.9-2,2-2h6V88z M20,68h-6c-1.1,0-2-0.9-2-2v-8c0-1.1,0.9-2,2-2h6 V68z M20,48h-6c-1.1,0-2-0.9-2-2v-8c0-1.1,0.9-2,2-2h6V48z M46,90c0,1.1-0.9,2-2,2h-8c-1.1,0-2-0.9-2-2v-8c0-1.1,0.9-2,2-2h8 c1.1,0,2,0.9,2,2V90z M46,70c0,1.1-0.9,2-2,2h-8c-1.1,0-2-0.9-2-2v-8c0-1.1,0.9-2,2-2h8c1.1,0,2,0.9,2,2V70z M70,90 c0,1.1-0.9,2-2,2h-8c-1.1,0-2-0.9-2-2v-8c0-1.1,0.9-2,2-2h8c1.1,0,2,0.9,2,2V90z M70,70c0,1.1-0.9,2-2,2h-8c-1.1,0-2-0.9-2-2v-8 c0-1.1,0.9-2,2-2h8c1.1,0,2,0.9,2,2V70z M70.1,52H57.9V39.1H45V26.9h12.9V14h12.3v12.9H83v12.3H70.1V52z M94,90c0,1.1-0.9,2-2,2h-8 c-1.1,0-2-0.9-2-2v-8c0-1.1,0.9-2,2-2h8c1.1,0,2,0.9,2,2V90z M94,70c0,1.1-0.9,2-2,2h-8c-1.1,0-2-0.9-2-2v-8c0-1.1,0.9-2,2-2h8 c1.1,0,2,0.9,2,2V70z M116,86c0,1.1-0.9,2-2,2h-6V76h6c1.1,0,2,0.9,2,2V86z M116,66c0,1.1-0.9,2-2,2h-6V56h6c1.1,0,2,0.9,2,2V66z M116,46c0,1.1-0.9,2-2,2h-6V36h6c1.1,0,2,0.9,2,2V46z"/>
  </g>
</svg>