<svg viewBox="0 0 128 128" xmlns="http://www.w3.org/2000/svg">
  <path d="M122.88,112.19c0-0.01,0.01-0.01,0.01-0.02c0.32-0.71-0.44-6.44-1.36-10.44c-0.06-0.25-0.12-0.51-0.17-0.78 c-0.3-1.48-0.56-3.17-0.83-4.72c-0.08-0.42-0.15-0.84-0.23-1.23c-0.08-0.4-0.16-0.77-0.24-1.13c-0.36-1.52-0.79-2.58-1.38-2.58 c0,0-0.01,0-0.02,0c-0.94,0.04-1.94,8.25-2.56,10.04c-0.07,0.19-0.15,0.45-0.24,0.77c-1.48-2.4-2.83-4.63-3.37-5.65 c-1.45-2.73-3.86-7.64-5.55-9.33c-0.66-0.66-1.25-1.17-1.72-1.55c0.15-0.65-3.86-6.54-6.03-9.65c-2.21-3.16-4.26-6.48-6.3-9.31 c-1.67-2.32-2.71-3.76-3.82-4.35C87.95,61.67,87,63.04,87,63.04s-8.16-14.11-9.61-16.62s-9.12-14.56-11.03-17.33 c-1.02-1.48-1.73-2.1-2.59-1.91c0-0.01-0.01-0.03-0.01-0.03s-1.13,0.26-2.2,1.71c-1.06,1.45-5.42,9.77-5.43,9.78l-0.01,0.01 c-0.1,0.1-5.48,5.48-7.01,6.53c-1.54,1.06-3.77,2.41-4.25,3.28c-0.48,0.87-4.25,11.35-6.08,15.54c-2.28,5.24-4.48,9.7-4.56,11.38 v0.01l-0.43,0.93c-0.17,0.35-0.3,0.62-0.37,0.77c-0.72,1.45-4.02,7.72-4.66,8.77c-0.38,0.62-0.83,1.49-1.13,2.1 c-0.01,0-0.02,0-0.02,0c-0.13-0.07-1.61-0.78-2.65-0.84c-1.85-0.1-5.38,4.01-7.22,6.42c-1.83,2.41-5.02,6.76-5.02,6.76 s-1.49,0.4-3.01,2.54c-1.9,2.69-3.37,5.11-3.81,5.86c-2.19,2.96-1.3,3.65-1.24,3.7h0.01c0,0.01,0,0.01,0,0.01 c-0.13,1.33,24.11,12.02,64.62,11.46c38.64-0.53,53.57-10.39,53.83-11.46C123.13,112.37,123.05,112.29,122.88,112.19z M25.29,102.33 c-0.74,0.15-7.69,3.97-7.69,3.97l-0.01-0.01c0.02-0.01,0.03-0.01,0.03-0.01l0.8-6.08c0,0,5.21-9.36,5.89-10.14 c0.43-0.5,1.66-1.21,2.49-1.66c0.34,1.32,1.15,4.59,1.37,6.75c0.26,2.69,0.55,6.87,0.56,7.06 C27.55,102.19,25.95,102.19,25.29,102.33z M35.97,107.87c-0.63,0.22-1.75-0.03-2.1-0.18c-0.36-0.16,0.96-3.64,1.22-4.82 c0.25-1.17,2.38-7.2,2.71-8.39c0.46-1.69,1.32-3.96,2-3.89c1.06,0.11,1.54,3.79,1.91,5.94c0.03,0.14,0.09,0.47,0.18,0.91 c-1.44,4.89-1.76,6.52-1.17,7.44v0.01c-0.64,0.38-1.33,0.8-2.04,1.24c-0.14,0.09-0.28,0.18-0.42,0.27 c-1.12,0.73-2.13,1.42-2.24,1.46C36,107.87,35.98,107.87,35.97,107.87z M56.01,111.28h-0.16c-1.12,0-5.35-0.03-12.8-0.5 c-2.98-0.18-5.22-0.42-6.88-0.64c2.17-1.45,4.93-3.19,6.67-4.17c0.28,0.04,0.61,0.05,1.01,0.05c0.81,0,2.82-0.08,4.15-0.74 c0.68-0.35,2.17-1.18,2.92-2.3c0.32-0.1,0.63-0.19,0.93-0.28c0.71,0.36,1.48,0.71,2.16,0.92c1.96,0.59,5.1,1.76,8.43,2.35 c3.33,0.59,6.47,0.2,8.62,0.39c0.73,0.07,1.72,0.36,2.71,0.72c-0.15,0.49-0.3,1.05-0.45,1.67L56.01,111.28z M49.39,101.6 c0,0.02-0.01,0.04-0.01,0.05c-0.16,0.44-1.04,1.22-2.27,1.84c-0.77,0.39-2.19,0.53-3.26,0.53c-0.11,0-0.22,0-0.32-0.01 c-0.1,0-0.2,0-0.29-0.01c-0.09,0-0.18-0.01-0.26-0.02c-0.08,0-0.15-0.01-0.21-0.02c-0.08-0.02-0.15-0.03-0.2-0.05 c-0.03-0.01-0.05-0.02-0.07-0.03c0-0.01-0.01-0.01-0.01-0.01s0,0,0-0.01c-0.01-0.01-0.01-0.02-0.02-0.03 c-0.01-0.01-0.01-0.03-0.02-0.05c-0.01-0.07-0.01-0.19,0-0.35c0.02-0.14,0.05-0.31,0.08-0.51c0.06-0.31,0.15-0.68,0.24-1.08 c0.04-0.18,0.09-0.37,0.14-0.56c0.04-0.19,0.09-0.38,0.15-0.58c0.05-0.2,0.1-0.39,0.15-0.59c0.05-0.19,0.11-0.38,0.16-0.57 c0.21-0.75,0.41-1.42,0.53-1.85c0.69-2.36,1.42-4.64,2.01-4.84c0.03-0.01,0.06-0.02,0.09-0.02c0.07,0,0.15,0.03,0.22,0.09 c0.04,0.03,0.07,0.07,0.11,0.11c0.04,0.04,0.08,0.09,0.11,0.14c0.04,0.05,0.08,0.11,0.11,0.17c0.04,0.06,0.07,0.12,0.11,0.19 c0.01,0.03,0.03,0.06,0.04,0.09c0.03,0.06,0.06,0.12,0.09,0.19c0.06,0.13,0.12,0.27,0.18,0.42c0.04,0.08,0.07,0.17,0.1,0.26 c0.04,0.09,0.07,0.17,0.1,0.25c0.08,0.22,0.16,0.43,0.23,0.63c0.07,0.19,0.14,0.38,0.2,0.54c0.04,0.12,0.1,0.25,0.15,0.4 s0.11,0.31,0.18,0.48c0.29,0.8,0.65,1.82,0.95,2.73c0.07,0.23,0.14,0.45,0.2,0.66c0.01,0.03,0.02,0.05,0.02,0.07 c0.14,0.46,0.24,0.85,0.28,1.11c0,0.01,0,0.02,0,0.02C49.4,101.48,49.4,101.55,49.39,101.6z M81.64,119.13 c-0.06,0.16-0.39,0.31-0.87,0.43c-0.16,0.04-0.35,0.08-0.54,0.11c-0.19,0.03-0.4,0.06-0.62,0.09c-0.33,0.04-0.69,0.07-1.06,0.09 c-0.18,0.01-0.37,0.02-0.56,0.02c-0.19,0.01-0.38,0.01-0.57,0.01c-0.49,0-0.99-0.02-1.46-0.06c-0.23-0.02-0.46-0.04-0.69-0.08 c-0.33-0.04-0.64-0.1-0.92-0.18c-0.19-0.05-0.36-0.1-0.52-0.16c-0.39-0.16-0.69-0.36-0.82-0.6c-0.45-0.78,1.22-5.43,1.42-6.11 c0.12-0.39,0.3-1.22,0.52-2.16c0.12-0.52,0.25-1.07,0.39-1.6c0.04-0.15,0.08-0.3,0.12-0.44c0.01-0.04,0.02-0.08,0.03-0.12 c0.05-0.18,0.1-0.36,0.15-0.53c0.05-0.17,0.1-0.33,0.15-0.48c0.03-0.08,0.05-0.16,0.08-0.23c0.02-0.07,0.04-0.13,0.07-0.19 c0.01-0.03,0.02-0.07,0.03-0.1c0.01-0.01,0.01-0.01,0.01-0.02c0.01-0.02,0.01-0.04,0.02-0.05c0.01-0.03,0.03-0.07,0.04-0.1 c0.04-0.09,0.09-0.18,0.13-0.26c0.02-0.05,0.04-0.09,0.07-0.12c0.02-0.05,0.05-0.08,0.07-0.11c0.04-0.05,0.07-0.08,0.11-0.1v-0.01 c0.03-0.02,0.07-0.04,0.1-0.04h0.03c0.04,0,0.08,0.01,0.12,0.02c0.12,0.04,0.25,0.14,0.37,0.29c0.06,0.07,0.13,0.16,0.19,0.26 c0.13,0.2,0.25,0.45,0.37,0.73c0.03,0.07,0.06,0.14,0.09,0.21c0.21,0.5,0.41,1.07,0.59,1.63c0.05,0.16,0.1,0.32,0.15,0.48 c0.27,0.86,0.49,1.63,0.65,1.98C79.53,112.67,81.96,118.29,81.64,119.13z M87.72,90.74c-1.83,0.97-8.88,3.28-10.91,4.44 c-2.03,1.16-7.72,4.05-7.72,4.05S59.05,100,58.08,99.71c-0.95-0.27-4.03-1.59-4.03-1.59c0.14-0.23,0.31-0.47,0.47-0.71 c0.87-1.25,3.96-4.44,3.96-4.44s-3.09-1.64-4.92-2.61c-1.84-0.96-7.05-3.47-8.5-4.44c-1.44-0.97-1.54-1.74-2.7-2.61 c-1.16-0.87-4.73-3.76-5.7-4.92c-0.23-0.28-0.44-0.55-0.63-0.8c0.06-0.12,1.56-3.03,3.35-7.75c1.83-4.82,6.76-17.05,7.55-18.25 c0.8-1.2,7.69,14.34,9.43,14.53s2.9-11.87,2.7-14.58c-0.19-2.7,0-11.68,0.77-13.61c0.76-1.92,2.77-4.87,2.8-4.92 c0.15,0.3,10.92,20.92,10.42,22.29c-0.51,1.38-4.54,8.79-6.76,13.23c-2.21,4.45-7.42,16.91-7.71,18.64 c-0.11,0.67,1.64,3.48,2.41,3.38c0.77-0.1,5.31-4.05,6.47-4.83c1.16-0.77,7.92-5.12,9.46-6.08c1.54-0.97,5.6-4.51,5.89-5.02 c0.38-0.69,1.59-6.9,1.83-7.72c0.11-0.36,2.4-2.16,2.65-1.85c0.5,0.61,2.66,6.58,3.14,8.22c0.48,1.64,3.36,13.17,3.57,13.99 C93.97,87.27,89.56,89.77,87.72,90.74z M111.43,115.45c-0.66,1.09-7.48,1.93-8.12,0.66c-0.22-0.45,0.63-4.99,0.95-7.38 c0.32-2.39,1.85-9.16,2.45-8.91c1.55,0.65,2.32,5.14,3.26,8.08C110.66,110.05,111.62,115.14,111.43,115.45z M120.97,111.36 c-0.25,0.17-0.73,0.42-1.44,0.62c-0.99,0.29-2.54,0.63-3.63,0.63c-0.04,0-0.08,0-0.11-0.01c0.07-1.69,0.82-5.45,1.51-8.17 c0.26-1.02,0.5-1.89,0.69-2.45c0.25-0.72,0.48-1.93,0.84-3.83c0.23,1.38,0.47,2.8,0.75,4.03c0.63,2.75,1.12,6.02,1.31,7.96 c0.02,0.22,0.04,0.42,0.05,0.6c0.02,0.23,0.03,0.43,0.03,0.59V111.36z"/>
</svg>