<svg viewBox="0 0 128 128" xmlns="http://www.w3.org/2000/svg">
  <g>
    <path d="M64,4C30.9,4,4,30.9,4,64s26.9,60,60,60s60-26.9,60-60S97.1,4,64,4z M64,120C33.1,120,8,94.9,8,64S33.1,8,64,8 s56,25.1,56,56S94.9,120,64,120z"/>
    <path d="M87.4,47.2c-9.3-0.6-12.8,7.7-12.9,8c-0.2,0.6,0.1,1.6,2,0.1c5.6-4.5,7.7-3.7,7.7-3.7s-3.2,4.4,1.4,8.2 c1.5,1.2,4.2,1.4,6.4,0.4c2.7-1.1,3.9-2.9,3.9-5.7C95.9,51.2,93,47.5,87.4,47.2z"/>
    <path d="M53.6,54.6c0-3.4-2.8-7-8.4-7.4c-9.3-0.6-12.8,7.7-12.9,8c-0.2,0.6,0.1,1.6,2,0.1c5.6-4.5,7.6-3.7,7.6-3.7 s-3.2,4.4,1.4,8.2c1.5,1.2,4.2,1.4,6.4,0.4C52.3,59.1,53.5,57.3,53.6,54.6z"/>
    <path d="M80,77.9l-0.1-0.1c-0.6-0.4-1.4-0.3-1.9,0.2c-1.6,1.3-8.1,3.8-14,3.9c-5.9-0.1-12.4-2.6-14-3.9c-0.5-0.5-1.3-0.5-1.9-0.2 l-0.1,0.1c-0.8,0.5-0.9,1.4-0.4,2.1c2.1,2.6,7.5,6.5,16.4,6.6c8.9-0.1,14.3-4,16.4-6.6C81,79.3,80.8,78.4,80,77.9z"/>
    <path d="M69,91.6c-2.3,1-4.8,1-7.2,1.7c-0.7,0.2-1.6,0.8-1.4,1.5c0.1,0.2,0.2,0.4,0.4,0.6c0.6,0.5,1.3,0.8,2,1 c2.1,0.5,4.4,0.2,6.2-0.9c1.1-0.6,4.6-3.2,3.8-4.8C72.3,89.3,69.9,91.2,69,91.6z"/>
    <path d="M70.3,72.3c3-3.9,2.6-7.8-2.4-16c-2.9-4.8-1-9.1,0.8-10.4c0.9-0.7,1.9-2.2-1-1.9c-3.7,0.3-6.9,7.2-4.3,13.4 c2.5,6,4.4,7.9,2.8,11.4c-0.8,1.8-4,2.1-6,1.5c-1.6-0.5-2.9,0.4-1.5,2C62.7,76.8,68.5,74.7,70.3,72.3z"/>
  </g>
</svg>