<svg viewBox="0 0 128 128" xmlns="http://www.w3.org/2000/svg">
  <path d="M98.35,65.42c-0.22-4.29-3.83-8.01-7.39-10.44c5.39-7.97-1.22-19.29-9.76-22.17c5.48-10.32-5.42-23.8-15.64-28.04 c-5.77-2.72-11.43,1.36-10.68,7.62c0.18,1.47,1,3.39,2.75,3.27c1.14-0.1-0.14-4.89,2.73-4.95c2.72-0.13,3.02,3.17,2.36,5.15 c-2.66,7.78-13.61,5.38-15.25,14.4c-1.12,5.02,3.78,6.86,4.04,6.97c-11.57-0.14-17.08,13.08-11.89,19.48v0.01 c0,0-4.53,0.86-6.4,7.34c-2.01,6.97,2.55,11.92,4.05,13.32c-0.05,0.31-0.34,2.27,0.46,4.26c0.29,0.74,0.92,1.59,1.59,2.38 C39.31,84.01,39.28,84,39.28,84s0.8,3.88,2.13,6.4c1.31,2.46,3.52,4.15,4.16,4.61l0.68,4.25c-0.01,0-0.04,0-0.05,0 c-0.08-0.03-0.12,0.01-0.2,0.01c-0.03,0.01-0.06,0.03-0.09,0.05c-0.02,0.02-0.04,0.03-0.06,0.05c-0.02,0.03-0.04,0.07-0.05,0.12 c-0.01,0.02-0.02,0.04-0.03,0.06c0.39,4.03,2.15,16.15,2.26,16.68c0.08,0.46,0.44,0.73,0.96,1.07l0.28,2.67 c0,0,2.22,4.15,14.77,4.15c12.55,0,14.74-4.3,14.74-4.3l0.35-2.91c0.38-0.28,0.61-0.59,0.72-1.02c0.25-1.05,2.27-14.62,2.27-15.43 c0-0.02-0.01-0.03-0.01-0.04c-0.01-0.03-0.01-0.06-0.02-0.08c-0.03-0.03-0.05-0.07-0.09-0.08c0,0-0.01,0-0.02-0.01l0.68-3.95 c3.67-2.57,6.89-7.91,7.16-12.32c0,0-0.03,0.02-0.1,0.05c0,0-0.01,0-0.02,0c0.17-0.13,1.57-1.2,2.4-3.34 c0.35-0.89,0.4-1.99,0.37-2.73C93.22,77.61,99.06,71.03,98.35,65.42z M52.55,34.41c-0.81-0.31-2.65-1.27-2.15-3.5 c0.73-3.28,2.6-4.28,6.13-5.89c2.25-1.04,4.8-2.21,6.99-4.44c4.09-3.7,3.21-14.35-4.33-12.74c2.63-2.06,6.69-0.41,10.88,3.04 c0.18,0.19,0.46,0.54,0.81,0.99c6.35,14.33-5.04,22.75-16.38,24.88C54.33,35.7,53.61,34.79,52.55,34.41z M41.65,46.4 c4.54-8.81,10.1-3.77,12.68-8.08c4.57,1.58,20.38,1.47,24.78-3.07c2.58,0.46,7.59,4.36,8.8,6.58c-2.14,2.3-5.82,5.86-10.21,8.33 c-10.53,5.32-25.01,6.23-35.01,6.51c-0.03-0.66-0.29-1.3-0.74-1.83C41.84,54.7,39.29,51.34,41.65,46.4z M55.4,117.46 c-0.37-5.11-0.76-10.63-1-13.83c0.58,0.1,1.23,0.2,1.94,0.31l0.15,13.81C56.05,117.65,55.68,117.55,55.4,117.46z M65.09,118.39 c-0.62,0.04-1.61,0.03-2.24,0.03l0.06-13.93c0.68,0.03,1.48,0.04,2.28,0.04L65.09,118.39z M73.09,117.05 c-0.53,0.17-1.08,0.33-1.64,0.47l0.25-13.2c0.88-0.09,1.74-0.18,2.56-0.29C73.94,107.71,73.44,113.4,73.09,117.05z M86.08,89.19 c-4.57,8.17-8.65,7.32-21.23,7.63c-15.88-0.56-20.22-2.95-22.64-9.69c10.5,3.58,34.06,4.19,44.86,0.06 C86.83,87.8,86.5,88.48,86.08,89.19z M93.41,63.78c-3.76,3.75-6.36,5.45-18.82,9.65c-7.19,2.43-16.17,3.45-23.51,3.86l-11.96-2.28 c-1.28-1.25-4.49-5.01-3.02-10.12c1.23-4.24,3.75-5.12,4.12-5.23c1.03-0.15,1.84-0.81,2.25-1.76c8.43,3.63,36.67,5.29,46.02-1.07 c0.16,0.16,0.32,0.32,0.51,0.45c0.66,0.18,4.62,3.71,5.08,4.86c0.01,0,0.16,0.2,0.36,0.52C94.09,63.06,93.74,63.45,93.41,63.78z"/>
</svg>