<svg viewBox="0 0 128 128" xmlns="http://www.w3.org/2000/svg">
  <g>
    <path d="M108.8,104.1c-11.6,12.3-23.9,18-40.2,19.9c-1.9-1.8-5.1-4.8-8.4-9c-2.4-3-4.8-6.5-6.9-10.6c-2.5-4.7-4.3-10.4-5-16.2 c-0.8-6.2-0.2-12.4,2.5-17.6c3.4,2.7,6.9,5.3,10.4,7.8c9.6,6.8,19.3,12.7,29,17.7c1.1,0.6,2.1,1.1,3.1,1.6 C99.7,100.7,104.8,102.8,108.8,104.1z"/>
    <path d="M22.6,108.5c0-0.2,0-0.3-0.1-0.5c-0.7-5.5-1-22.8,16.5-47.2c2.9,2.5,5.7,4.9,8.6,7.3c-3.1,5.7-4.6,13.8-3.1,23 c0.8,4.8,2.5,9.9,5.2,15.2c1.8,3.5,3.9,6.6,5.9,9.4c2.6,3.5,5.2,6.3,7.3,8.5C39.3,123.8,24.9,110.8,22.6,108.5"/>
    <path d="M111.5,100.8c-3.7-1.2-8.7-3.1-15-6.1c-1.4-0.7-2.9-1.4-4.4-2.2c-9.2-4.7-18.5-10.3-27.5-16.7c-3.9-2.7-7.7-5.6-11.5-8.6 c8.6-11,24.3-12.5,38.5-12.5h0.7c9.8,0.1,18.3,1.2,24.1,2.2c4.3,0.8,7,1.5,7.6,1.7C125.2,76.7,119.9,89.9,111.5,100.8z"/>
    <path d="M123.3,54.2c-0.6-0.2-2.8-0.7-6.4-1.3c-4.5-0.8-11.2-1.7-19.5-2c-1.9-0.1-3.8-0.1-5.8-0.1h-0.1c-15.2,0-32,1.7-41.6,14 c-2.8-2.3-5.7-4.7-8.5-7.2C71.6,18.1,99.7,15.9,100,16C116.2,27.9,121.6,44.2,123.3,54.2z"/>
    <path d="M26.1,48.2C16.9,59.4,8,63.7,3.4,65.3c-0.2-11.7,3.1-23.5,9.7-33.9l0,0C15.6,35.4,19.8,41.4,26.1,48.2z"/>
    <path d="M18.3,104.1C10.6,96.6,4.5,81.8,3.6,69.4c4.8-1.4,14.8-5.7,25.2-18.2c2.2,2.3,4.6,4.6,7.2,7 C20.7,79.3,18.2,95.4,18.3,104.1"/>
    <path d="M47.2,5.9c-0.2,0.2-2.6,4-3.3,5.1c-2.4,4.1-3.7,8.1-5,12.4c-1.9,6.1-4,13-10.3,21.6c-6.6-7.4-10.8-13.7-13-17.2 C19.8,20.9,33.5,9.8,47.2,5.9z"/>
    <path d="M95.1,12.8C85.3,15,62.5,23.4,38.4,55c-2.6-2.4-5-4.7-7.1-7c7.1-9.4,9.4-16.8,11.4-23.4c1.3-4.2,2.6-7.8,4.6-11.5 c1.2-2.3,3.4-5.4,5.9-8.4C68.3,2.4,83.6,6,95.1,12.8z"/>
  </g>
</svg>