<svg viewBox="0 0 128 128" xmlns="http://www.w3.org/2000/svg">
  <path d="M103.21,74.61c-0.03-1.29-0.6-4.2-1.49-8.03h-6.97l-1.18-4.33h7.1c-0.53-2.11-1.11-4.37-1.74-6.73h-7.39l-1.18-4.31h7.41 c-0.61-2.25-1.25-4.54-1.89-6.82l-7.54,0.08l-1.18-4.29h7.52c-0.66-2.28-1.31-4.5-1.94-6.61l-7.62-0.15l-1.18-4.28l7.52,0.2 c-0.83-2.7-1.58-5.08-2.22-6.98h-7.32l-1.19-4.26h6.94c-2.54-5.93-5.39-11.36-13.78-13.31c2.36,0.72,4.95,2.19,6.18,5.23 c0.45,1.12,0.35,2.51-0.85,2.62c-1.8,0.17-2.88-2.36-3.52-3.74c-2.11-4.6-6.61-4.78-6.61-4.78s0.09,0,0.22,0 c-1.28-0.09-2.67-0.12-4.16-0.09c3.71,0.21,6.1,2.2,7.34,5.77c0.41,1.14,0.62,2.97-1.39,3.21c-1.75,0.22-2.67-2.45-3.32-3.83 c-3.95-6.91-8.04-4.63-12.94-4.38c4.3-0.51,8.48,3.44,9.41,6.43c0.54,1.43,0.18,2.4-0.89,2.97c-0.33,0.18-1.48,0.41-2.48-0.61 c-1.89-1.91-2.05-4.09-5.89-6.04c-4.26-2.17-9.08-0.69-9.08-0.69s0.78-0.31,1.98-0.68C36.69,8.88,21.94,21.4,25.28,36.07l7.28-4.2 c2.51-1.46,4.95,2.22,2.36,3.76c0,0-8.49,4.9-8.49,4.9l1.62,6.18l7.42-4.27c2.51-1.46,4.94,2.21,2.36,3.76c0,0-8.61,4.96-8.61,4.96 l1.62,6.19L38.35,53c2.51-1.45,4.94,2.19,2.36,3.76c0,0-8.73,5.03-8.73,5.03l1.62,6.18l7.65-4.41c2.51-1.46,4.95,2.22,2.36,3.76 c0,0-8.85,5.1-8.85,5.1l1.62,6.18l7.77-4.48c2.5-1.46,4.94,2.21,2.37,3.76c0,0-8.98,5.17-8.98,5.17c1.2,5.85,4.21,10.91,7.92,11.96 c1.08,0.75,2.64,1.27,4.52,1.63c1.22,3.24,2.93,7.75,4.43,11.55c2.13,5.38,4.22,7.42,8.23,7.42c0,0,0,0.01,0,0.01l4.68-0.39 l1.72,8.77h16.73l-2.48-10.3c0,0,0.01-0.01,0.01-0.01c11.14-0.52,7.95-11.65,5.16-18.85c0,0,0,0,0,0s0,0,0,0 c-0.01-0.03-0.02-0.05-0.03-0.08c0.08-0.02,0.16-0.04,0.23-0.06c2.57-1.39,7.31-7,7.79-11.66c0,0,0,0,0,0 c0.32-1.56,0.46-3.3,0.38-5.67c-0.08-2.2-1.68-6.19,1.05-6.22c2.25-0.02,3.01,3.63,3.15,5.68c0.27,6.97-3.93,14.6-10.56,17.29 c8.86-3.1,12.04-9.08,12.59-14.98C103.07,79.14,103.25,76.14,103.21,74.61z M75.16,93.93c-3.61,3.03-7.25,2.95-8.4,3.19 c4.7-2.73,8.27-7.44,10.02-12.55c0.66-2.24,0.86-5.98,0.62-8.31c-0.27-2.58,0-3.94,1.95-4.22c4.51,0.02,3.44,9.51,2.09,12.93 c0,0,0.01,0,0.01,0C80.3,88.67,78.09,91.44,75.16,93.93z M82.83,62.25l0.87,4.34c0,0-8.4,0.33-12.04,0.84 c-4.81,0.67-13.96,6.02-13.96,6.02c-1.07,0.55-2.4,0.11-2.95-0.97c-0.54-1.06-0.13-2.41,0.97-2.96c0,0,9.55-5.14,14.15-6.43l0,0.01 C72.04,62.46,82.79,62.26,82.83,62.25z M79.61,51.21l0.94,4.32c-0.07,0.02-8.84,0.28-12.4,0.95l0,0 c-4.88,0.97-13.46,6.19-13.46,6.19c-2.52,1.32-4.59-2.52-2.05-3.88c0.03,0,9.81-5.54,14.34-6.77l0,0 C69.56,51.44,79.6,51.21,79.61,51.21z M76.37,40.18l1.02,4.3c-0.54,0.09-10.82,0.15-14.21,1.52c-4.89,1.71-11.5,5.9-11.5,5.9 c-1.05,0.57-2.38,0.21-2.98-0.86c-0.58-1.06-0.2-2.39,0.86-2.98c0,0,7.21-4.24,12.06-6.25C64.14,40.19,75.44,40.28,76.37,40.18z M44.54,30.67c-2.14,0.07-3.03-3.01-1.13-4.07c0,0,9.26-5.91,13.72-7.49c2.1-0.75,12.78-1.01,12.79-1l1.18,4.26 c-12.66,0.08-15.97,1.68-25.43,7.99C45.31,30.57,44.92,30.67,44.54,30.67z M47.54,41.42c-2.44-0.08-2.95-3.42-0.65-4.34 c2.14-1.21,10.07-6.17,14.3-7.2l0.01,0.02c3.27-0.56,11.94-0.76,11.94-0.76l1.1,4.28c-12.6,0.13-15.96,1.53-25.57,7.71 C48.32,41.33,47.92,41.43,47.54,41.42z M57.42,107.39c-1.25-7.29,6.89-8.81,8.35-1.56C67.03,113.11,58.89,114.64,57.42,107.39z M85.41,93.87c-2.9,1.85-5.94,2.24-6.92,2.36c4.09-2.64,7.47-6.69,8.89-11.44c0,0,0,0,0,0c0.62-2.1,0.89-4.48,0.58-7.14 c-0.26-2.19-1.27-6.14,1.43-6.47c1.2-0.15,3.1,1.04,3.26,6.04C92.98,87.7,87.64,92.4,85.41,93.87z"/>
</svg>