<svg viewBox="0 0 128 128" xmlns="http://www.w3.org/2000/svg">
  <g>
    <path d="M86.5,39.7c2.3-14.2-2.2-31.2-2.2-31.2s0-0.1-0.1-0.2c-0.9-2.4-9.8-4.4-20.4-4.4c-10.2,0-18.6,1.8-20,4.1 c-0.2,0.2-0.2,0.4-0.2,0.4s-4.4,17-2.2,31.3c1.9,12.1,9.9,20.6,18.1,23c0.8,1.2,2.1,4.5,2.2,14c0.1,7.9,0.4,18.9-0.2,26.3 c-10,0.8-17.6,5.2-17.6,10.6c0,5.9,9.4,10.7,20.9,10.7s20.9-4.8,20.9-10.7c0-5.5-8-10-18.3-10.6c-0.7-7.4-0.2-18.4-0.1-26.3 c0.1-12.5,2.5-14.4,2.7-14.5c0,0,0,0-0.1,0C77.6,59.2,84.7,51,86.5,39.7z M63.8,6C75.4,6,80,7.8,81.7,8.8c-2,1.1-8.1,2.6-17.9,2.6 S47.9,9.8,46.1,8.7C47.7,7.8,52.2,6,63.8,6z M68.3,61.2c-1.2,1.3-2.8,5.3-2.9,15.4c0,1.9-0.1,3.9-0.1,6c-0.1,6.9-0.3,14.7,0.2,20.4 c0.1,1,0.9,1.8,1.9,1.8c9.1,0.6,16.4,4.5,16.4,8.6c0,4.7-8.8,8.7-18.9,8.7c-10.1,0-18.9-3.9-18.9-8.5c0-4.1,6.9-7.9,15.8-8.6 c1-0.1,1.8-0.9,1.8-1.8c0.5-6.3,0.4-15.3,0.2-22.5c0-1.4,0-2.7,0-4c-0.1-7.4-1-12.6-2.6-15c-0.1-0.2-0.3-0.4-0.5-0.5 c1.1,0.2,2.2,0.4,3.2,0.4c1.5,0,3.1-0.3,4.7-0.8C68.5,60.9,68.3,61,68.3,61.2z M64.1,24.8c-10.8,0-19.8,2.9-21.3,6.6 c0-8.9,1.7-17.4,2.4-20.9c3,1.7,10.2,2.9,18.6,2.9c8.4,0,15.8-1.2,18.9-2.9c0.8,3.3,2.4,11.8,2.4,20.7 C83.5,27.5,74.7,24.8,64.1,24.8z"/>
    <path d="M59.9,108.7c-0.8-0.4-1.8-0.2-2.3,0.5c-0.1,0.2-0.2,0.4-0.2,0.6c0,0.6,0.4,1.4,1.2,1.7c1.5,0.7,2.9,1,4.2,1.2 c1.3,0.2,2.5,0.2,3.8,0c1.3-0.2,2.6-0.5,4.2-1.2c0.8-0.4,1.2-1.1,1.2-1.7c0-0.2-0.1-0.5-0.2-0.7c-0.5-0.7-1.5-0.9-2.3-0.5 c-1.8,0.8-3.3,1-4.8,1C63.2,109.8,61.7,109.6,59.9,108.7z"/>
  </g>
</svg>