<svg viewBox="0 0 128 128" xmlns="http://www.w3.org/2000/svg">
  <path d="M117.91,62.46c-2.79-1.06-5.2-1.22-6.54-1.2c-1.36-4.1-2.89-8.2-5.31-11.79c-1.22-1.79-3.01-3.01-5.27-3.86 c-4.33-1.69-9.97-1.98-13.73-1.98c-3.85,0-7.79,0.57-11.57,1.72c0-0.01,0-0.01,0-0.02c0.66-2.73,1.41-5.55,1.79-8.37 c0.27-1.04,0.64-2.26,0.36-3.39c-0.28-1.03-1.03-2.07-1.6-3.01C69.74,19.55,56,14.29,43.78,15.04c-3.76,0.28-9.31,0.85-13.54,2.73 c-2.07,0.94-3.86,2.35-4.99,4.14c-2.54,4.23-3.76,8.94-5.08,13.64c-0.26,0.93-0.51,1.86-0.75,2.8c-2.06,0.44-12.08,3.04-14.87,12.72 c-2.86,10.02,6.68,15.2,12.15,17.29c0.36,1.2,0.83,2.51,1.36,3.83c-0.58,0.34-1.23,0.75-1.94,1.27c-1.88,1.32-4.42,3.01-6.87,5.93 c-1.22,1.41-2.16,3.1-2.82,4.89c-0.47,1.22-0.66,2.45-0.66,3.76v0.85c0,0.09,0,0.85,0.28,0.66c0.09-0.09,0.19-0.38,0.28-0.47 c0.19-0.47,0.47-0.85,0.75-1.22c0.85-1.13,1.88-2.16,3.01-3.01c0.38-0.28,0.75-0.47,1.13-0.66c0.28-0.28,0.75-0.66,0.94-0.28 c0.09,0.19-0.09,0.47-0.19,0.66c-0.09,0.28-0.19,0.66-0.19,0.94c-0.38,1.5-0.56,3.01-0.75,4.51c-0.09,0.85-0.09,1.69,0,2.45 c0,0.38,0.09,0.85,0.09,1.22c0,0.19,0.09,0.38,0.09,0.56c0,0.19,0.19,0.47,0.38,0.19c0.09-0.09,0.09-0.19,0.19-0.38 c0.19-0.28,0.28-0.66,0.47-0.94c0.47-0.85,0.94-1.69,1.5-2.63c0.66-1.13,1.41-2.16,2.16-3.1c0.85-1.13,1.88-2.26,2.92-3.2 c1.13-1.03,2.35-2.07,3.67-2.92c0.21-0.13,0.43-0.27,0.66-0.4c2.63,3.07,6.06,6.31,9.71,7.63c0.75,0.28,1.6,0.47,2.45,0.66 c1.6,0.28,3.29,0.47,4.89,0.19c0.94-0.19,1.98-0.28,2.92-0.56c1.88-0.47,3.67-1.13,5.46-1.79c3.22-1.29,6.19-2.83,8.84-4.75 c1.09,3.71,2.4,7.43,3.71,11.14c-3.12-0.08-6.55,0.67-8.89,3.58c-0.75,0.94-1.41,1.88-2.16,2.82c-0.56,0.75-1.13,1.5-1.69,2.16 c-0.47,0.56-1.03,1.13-1.69,1.5c-0.66,0.38-1.32,0.66-2.07,0.85c-0.94,0.19-1.88,0.19-2.82,0.09c-1.32-0.09-2.63-0.38-3.95-0.66 c-0.47-0.09-0.85-0.19-1.22-0.28c-0.09,0-0.19-0.09-0.28-0.09c-0.09,0-0.19-0.09-0.28-0.09c-0.38,0.09,0.19,0.75,0.38,0.94 c0.28,0.28,0.56,0.66,0.85,0.94c0.85,0.75,1.69,1.5,2.73,1.98c1.32,0.66,2.73,1.03,4.14,1.13c0.09,0,0.38,0,0.47,0.09 c0.19,0.19-0.28,0.47-0.47,0.56c-0.28,0.19-0.47,0.28-0.75,0.38c-0.85,0.38-1.79,0.56-2.63,0.75c-0.85,0.19-1.69,0.28-2.45,0.28 c-0.47,0-0.85,0.09-1.22,0.09c-0.28,0-0.56-0.09-0.85,0c-0.29,0.09,0.09,0.47,0.28,0.56c0.38,0.19,0.75,0.47,1.13,0.66 c1.13,0.56,2.26,1.03,3.39,1.32c1.5,0.38,3.1,0.56,4.61,0.38c1.32-0.19,2.63-0.56,3.86-1.03c6.77-3.1,6.21-9.59,12.42-10.16 c0.83-0.07,1.71-0.05,2.61,0.04c1.02,2,2.27,3.88,3.85,5.52c0.85,0.94,1.88,1.69,2.82,2.45c2.26,1.88,4.99,3.01,7.71,3.95 c2.54,0.85,5.17,1.5,7.81,2.07c4.7,1.03,11.48,2.82,16.08,0.66c2.54-1.13,4.61-2.92,6.3-5.08c1.79-2.26,3.2-4.8,4.42-7.43 c1.88-3.95,3.86-8.37,4.14-12.89c0.03-0.37,0.04-0.74,0.05-1.11c2.33-2.48,6.18-7.53,6.25-13.94 C124.02,76.38,124.68,65.09,117.91,62.46z M16.5,52.2c-0.34,2.2-0.66,4.49-0.79,6.8c-3.39-0.93-6.95-2.54-6.55-5.21 c0.56-3.75,4.76-5.02,8-5.45C16.91,49.62,16.69,50.91,16.5,52.2z M91.84,63.86c4.23,2.73,9.69,3.48,14.58,3.2 c1.41-0.09,2.26,0.09,1.88,1.69c-0.75,3.29-3.86,5.17-6.87,5.83c-0.75,0.19-1.5,0.19-2.26,0.19c-1.41-0.09-2.82-0.66-4.04-1.5 c-2.63-1.79-4.61-4.89-5.17-8C89.68,63.67,90.25,62.83,91.84,63.86z M50.08,46.65c1.6-3.48,5.83-6.21,10.25-5.46 c0.75,0.09,1.41,0.28,2.07,0.56c3.86,1.61,5.46,5.84,5.18,9.41c0,0.47-0.19,1.13-0.75,1.03c-0.47-0.09-0.85-0.94-1.13-1.22 c-1.32-1.69-3.86-3.57-6.4-4.14c-3.01-0.75-5.27,0.56-8.28,0.85C50.17,47.77,49.7,47.4,50.08,46.65z M23.09,40.53 c1.69-3.1,5.74-5.55,9.31-5.08c0.56,0.09,1.22,0.19,1.79,0.47c3.57,1.5,5.74,4.99,4.89,8.56c-0.19,0.75-0.66,0.85-1.22,0.38 c-1.98-1.69-3.57-3.01-6.21-3.67c-2.16-0.56-4.61-0.28-6.68,0.28c-0.47,0.09-1.22,0.56-1.69,0.38 C22.61,41.57,22.9,40.91,23.09,40.53z M62.21,64.9c-1.03,1.6-2.45,3.01-3.86,4.33c-0.38,0.28-0.66,0.66-1.03,0.94 c-5.64,4.7-13.26,7.05-20.51,5.27c-1.98-0.47-4.14-1.5-5.74-2.73c-1.22-0.94-2.45-2.16-3.48-3.39c-1.88-2.26-3.29-4.89-4.23-7.62 c-0.47-1.41-0.75-2.73-0.94-4.23c0-0.47-0.66-5.46,0.85-4.8c0.38,0.19,0.66,0.47,0.94,0.75c0.28,0.38,0.47,0.75,0.75,1.03 c0.66,0.85,1.32,1.69,2.07,2.45c2.35,2.73,5.27,4.89,8.56,6.4c2.26,1.03,4.7,1.6,7.15,1.79c1.41,0.09,2.73,0.19,4.14,0.09 c5.08-0.28,10.25-1.79,14.86-3.76c0.38-0.19,0.85-0.47,1.32-0.47C64.66,61.04,62.5,64.52,62.21,64.9z M65.22,80.79 C64,79.57,64.66,79,65.98,78.25c4.51-2.35,9.03-5.93,11.38-10.63c0.85-1.79,1.79-1.41,2.45,0.28c1.13,3.1,1.03,6.87-0.38,9.88 c-0.66,1.41-1.6,2.63-2.82,3.57c-0.66,0.47-1.32,0.75-2.07,1.03C71.43,83.33,67.58,83.24,65.22,80.79z M110,96.41 c-0.38,0-0.94-0.38-1.41-0.66c-0.47-0.28-0.94-0.66-1.22-0.85c-1.13-0.56-2.45-1.13-3.67-1.5c-3.76-1.22-7.9-1.22-11.57,0 c-2.63,0.85-5.17,2.45-7.24,4.33c-2.26,2.16-3.95,4.8-6.11,7.05c-0.28,0.28-0.56,0.56-0.85,0.75c-0.56,0.28-1.13-0.09-1.32-0.66 c-0.94-3.95,1.69-9.5,3.67-12.89c2.26-3.76,5.55-6.77,9.78-8c2.07-0.66,4.33-0.66,6.49-0.38c6.3,0.94,12.79,5.93,14.02,11.66 C110.56,95.75,110.47,96.5,110,96.41z M116.5,79.75c-0.04-0.16-0.07-0.31-0.1-0.46c-0.64-3.13-1.42-6.23-2.31-9.31 c2.06-0.22,6.16-0.2,6.44,3.38C120.75,76.12,118.47,78.36,116.5,79.75z"/>
</svg>