<svg viewBox="0 0 128 128" xmlns="http://www.w3.org/2000/svg">
  <path d="M114.36,63.56c-0.97-0.28-2.46-0.5-4.06-0.67c3.71-1.42,7.8-3.35,9.7-5.48c3.61-4.04,4.47-8.54,2.37-12.35 c-1.2-2.18-4.21-3.41-6.23-4.01c0.64-1.72,1.16-4.47-0.08-7.83c-2.26-6.07-11.04-6.06-15.24-4.71c-1.54,0.49-3.74,1.66-5.9,2.95 c1.73-2.87,3.25-6.29,3.38-9.64c0.32-8.53-3.19-11.21-7.04-12.84c-2.72-1.15-5.49-0.24-7.27,0.68c-0.64-1.75-2.11-4.05-5.42-5.21 c-2.39-0.85-5.1-0.57-7.62,0.77c-3.18,1.68-5.64,4.84-6.58,8.43c-0.42,1.6-0.75,3.52-1.01,5.5c-0.71-2.52-1.65-5.03-2.88-7.03 c-3.95-6.45-8.21-8.41-14.25-6.56c-3.4,1.03-4.95,3.86-5.55,6.35c-2.2-1.39-5.78-2.81-9.81-1.09c-6.07,2.59-5.29,11.12-3.9,15.68 c0.36,1.44,2.51,6.03,4.26,9.64c-3.33-1.86-8.02-4.13-12.23-4.92c-3.78-0.72-7.18-0.02-9.59,1.97c-1.91,1.59-2.96,3.83-2.96,6.33 c0,2.95,1.2,5.07,2.32,6.42c-2.02,1.08-4.74,3.23-5.53,7.08c-0.82,4.07,0.56,7.61,4.01,10.23c2.17,1.63,6.08,2.74,9.9,3.48 c-2.37,0.63-4.75,1.48-6.61,2.62c-5.95,3.67-7.35,9.66-5.65,13.44c1.04,2.29,4.19,3.73,6.32,4.47c-1.65,2.97-2.88,7.64,0.21,11.47 c4.46,5.52,11.13,5.74,15.76,3.51c1.73-0.83,4.39-2.78,6.87-4.73c-1.91,3.78-3.84,8.29-4.09,11.58c-0.46,6.14,2.39,9.96,7.84,10.47 c2.27,0.21,4.2-0.69,5.5-1.6c0.95,2.15,2.87,5.13,6.37,5.68c0.68,0.11,1.34,0.16,2,0.16c4.92,0,9.07-3,11.57-8.48 c1.21-2.67,2.13-6.19,2.78-9.34c1.46,5.33,3.89,11.92,7.49,14.57c7.57,5.58,12.65,1.85,14.49-0.02c0.03-0.03,0.05-0.05,0.08-0.08 c1.54-1.84,2.04-4.73,2.17-6.88c2.16,1.06,5.42,2,8.33,0.13c5.36-3.44,3.33-10.87,2.47-14.05c-0.39-1.41-1.19-3.06-2.13-4.69 c3.12,1.9,6.77,3.47,10.16,3.35c7.1-0.26,10.69-3.01,11.29-8.66c0.28-2.63-0.81-4.94-1.83-6.48c2.65-1.05,5.71-3.47,6.19-8.17 C125.3,69.53,121.81,65.68,114.36,63.56z M64.32,97.87c-0.01,0.1-1.24,10.54-3.81,16.21c-2.26,4.95-5.94,7.3-10.38,6.6 c-3.43-0.54-4.67-5.57-4.68-5.62c-0.13-0.55-0.55-0.98-1.1-1.11c-0.12-0.03-0.24-0.05-0.36-0.05c-0.43,0-0.84,0.19-1.13,0.52 c-0.02,0.02-2.14,2.42-4.78,2.16c-3.79-0.36-5.47-2.74-5.12-7.27c0.44-5.87,7.58-17.21,7.65-17.33c0.4-0.63,0.27-1.46-0.29-1.94 c-0.57-0.48-1.41-0.48-1.97,0.01c-2.46,2.16-9.5,8.06-12.47,9.49c-2.66,1.28-8.21,2.16-12.12-2.69c-3.27-4.05,0.82-9.31,0.99-9.52 c0.32-0.41,0.42-0.94,0.25-1.43c-0.17-0.49-0.58-0.85-1.08-0.97c-2.21-0.52-5.63-1.91-6.29-3.38c-0.94-2.08-0.56-6.54,4.49-9.64 c5.1-3.15,15.4-3.86,15.5-3.86c0.79-0.05,1.4-0.71,1.4-1.5c0-0.79-0.61-1.44-1.4-1.5c-3.97-0.26-15.03-1.53-18.55-4.2 c-2.51-1.9-3.48-4.33-2.89-7.23c0.89-4.38,5.49-5.7,5.68-5.75c0.57-0.15,0.99-0.63,1.09-1.21c0.09-0.59-0.17-1.17-0.66-1.5 c-0.12-0.07-2.84-1.91-2.84-5.64c0-1.59,0.67-3.01,1.88-4.02c1.68-1.39,4.27-1.87,7.11-1.34c6.81,1.29,15.47,7.1,15.56,7.16 c0.57,0.39,1.32,0.34,1.83-0.11c0.51-0.45,0.66-1.19,0.35-1.8c-2.23-4.46-5.92-12.11-6.32-13.71c-0.03-0.1-2.96-9.92,2.19-12.12 c4.59-1.96,8.59,2.03,8.75,2.2c0.44,0.44,1.1,0.57,1.67,0.33c0.57-0.25,0.93-0.82,0.91-1.44c-0.01-0.21-0.15-5.06,3.73-6.25 c4.05-1.23,7.11-0.77,10.81,5.26c3.57,5.82,4.52,17.16,4.52,17.27c0.05,0.59,0.44,1.06,0.96,1.27c-0.49,1.28-0.43,4.3-0.54,6.15 c-0.08,1.29-0.15,3.28-0.2,4.84c-1.95,0.11-3.84,0.49-5.64,1.09c-1.37-2.58-3.4-6.49-4.2-8.46c-1.46-3.57-7.11-13.56-7.84-12.95 c-0.63,0.52,1.98,9.01,2.82,11.87c1.47,5.01,3.31,9.39,4.4,11.81c-1.1,0.69-2.13,1.46-3.08,2.31c-1.43-1.07-3.02-2.28-3.72-2.91 c-1.4-1.27-7.18-6.06-7.88-5.07c-0.7,0.99,2.25,3.94,3.66,5.35c0.98,0.98,3.8,3.73,5.42,5.32c-0.6,0.77-1.15,1.59-1.61,2.43 c-0.28,0.5-0.55,1.12-0.79,1.83c-3.05-0.91-7.79-2.32-10.76-3.22c-4.65-1.41-11.97-4.09-12.25-2.82c-0.28,1.26,8.08,5.72,12.58,7.41 c3.17,1.19,7.23,2.61,9.35,3.35c-0.22,1.66-0.31,3.48-0.22,5.37c-1.83,0.11-3.97,0.24-5.22,0.31c-2.53,0.14-7.88,0.14-7.88,1.83 s6.05,1.13,7.74,1.13c1.15,0,4-0.06,5.7-0.11c0.14,0.86,0.32,1.71,0.55,2.56c-1.83,0.87-4.86,2.34-9.22,4.56 c-6.79,3.46-10.98,5.82-10.98,6.95c0,1.12,6.47-1.27,11.26-2.82c3.24-1.05,8.04-2.94,10.79-4.05c0.72,1.31,1.6,2.56,2.65,3.71 c-1.04,1.06-2.28,2.34-3.01,3.14c-1.41,1.55-4.64,4.92-3.66,6.05s4.83-2.67,6.24-4.22c0.73-0.8,1.88-1.89,2.84-2.76 c1,0.76,2.11,1.46,3.35,2.07l0.39,0.18c-0.95,2.47-2.26,5.95-2.94,7.98c-1.13,3.38-4.41,14.41-3.71,14.83 c0.7,0.42,5.21-6.81,7.18-10.89c1.49-3.09,3.7-7.94,4.7-10.13c1.66,0.37,3.3,0.53,4.89,0.52v3.13c0,1.38-0.09,5.21,0.64,6.79 C64.73,96.89,64.38,97.33,64.32,97.87z M121.75,74.7c-0.56,5.43-5.77,6.09-5.99,6.12c-0.58,0.06-1.07,0.45-1.26,1 s-0.04,1.16,0.38,1.57c0.03,0.03,2.84,2.8,2.51,5.94c-0.3,2.75-1.21,5.72-8.42,5.98c-6.83,0.26-15.82-8.62-15.91-8.71 c-0.56-0.56-1.47-0.59-2.07-0.05c-0.59,0.53-0.66,1.44-0.15,2.06c1.7,2.08,6.34,8.27,7.31,11.84c1.65,6.02,1.3,9.13-1.19,10.73 c-2.98,1.91-7.22-1.43-7.26-1.46c-0.47-0.37-1.11-0.44-1.63-0.16c-0.53,0.28-0.85,0.84-0.81,1.43c0.11,1.47,0.04,5.66-1.44,7.48 c-1.96,1.96-5.36,3.48-10.53-0.34c-4.44-3.27-7.28-15.78-8-20.32c-0.07-0.43-0.31-0.77-0.65-0.99c0.82-1.41,1.16-5.13,1.16-6.23 v-4.12c1.49-0.25,2.92-0.66,4.29-1.2c1.69,2.79,3.95,6.58,4.98,8.43c1.73,3.14,7.18,11.54,7.88,11.12s-3.33-11.08-4.46-13.61 c-0.77-1.73-2.61-5.99-3.7-8.5c1.32-0.95,2.54-2.04,3.62-3.23c1.1,0.98,2.48,2.21,3.44,3.09c1.83,1.69,5.82,4.55,6.38,3.71 c0.57-0.85-1.42-3.51-3.89-5.73c-1.6-1.44-2.92-2.89-3.74-3.86c0.42-0.65,0.82-1.31,1.18-1.99c3.02,1.02,7.92,2.67,9.62,3.14 c2.54,0.71,12.25,3.62,12.39,2.63c0.14-0.98-6.66-4.69-10.18-6.52c-2.58-1.35-7.38-3.79-9.78-5c0.21-1.04,0.33-2.08,0.37-3.11 c1.48-0.08,3.34-0.21,5.16-0.4c3.94-0.42,8.26-1.6,8.26-2.44s-5.06-0.98-8.02-0.84c-1.59,0.08-3.83,0.15-5.57,0.2 c-0.16-1.17-0.43-2.32-0.79-3.44c1.85-1.02,5.07-2.75,8.54-4.4c5.35-2.54,9.48-5.45,9.2-6.29c-0.28-0.85-6.9,1.12-10.56,2.53 c-2.94,1.12-7.59,2.86-9.32,3.5c-0.77-1.26-1.67-2.45-2.68-3.55c0.78-1.03,1.62-2.17,2.02-2.77c0.84-1.26,5.21-7.18,4.08-8.02 c-1.13-0.85-3.66,2.95-4.79,4.22C80.97,45,79.12,47.13,78,48.43c-1.19-0.98-2.49-1.85-3.88-2.6c0.77-2.16,2.05-5.74,3.14-8.82 c1.69-4.79,3.71-12.56,2.82-13c-0.75-0.37-5.06,8.17-6.19,10.42c-0.88,1.76-3.34,7.23-4.36,9.52c-1.19-0.34-2.37-0.56-3.55-0.67 c-0.12-1.2-0.24-2.55-0.3-3.5c-0.11-1.72-0.41-6.02-1.12-7.59c0.5-0.23,0.86-0.73,0.88-1.31c0-0.11,0.34-10.78,1.83-16.47 c0.73-2.8,2.63-5.24,5.08-6.54c1.78-0.94,3.63-1.16,5.22-0.6c3.72,1.32,3.92,4.7,3.93,4.83c0.02,0.56,0.36,1.07,0.87,1.31 c0.52,0.24,1.13,0.16,1.57-0.19c0.03-0.03,3.38-2.65,6.15-1.48c2.9,1.23,5.48,2.91,5.21,9.96c-0.26,6.79-7.8,14.56-7.88,14.64 c-0.54,0.55-0.57,1.43-0.07,2.02c0.5,0.59,1.36,0.7,2,0.26c2.41-1.69,9.35-6.28,12.39-7.25c3.34-1.08,10.05-1.04,11.5,2.89 c1.51,4.05-0.42,6.79-0.49,6.89c-0.31,0.42-0.39,0.96-0.2,1.45c0.19,0.48,0.62,0.83,1.13,0.92c1.61,0.3,5.21,1.42,6.07,2.98 c1.44,2.63,0.72,5.88-1.99,8.91c-2.64,2.96-12.16,6.07-15.61,7.01c-0.71,0.2-1.18,0.89-1.09,1.63c0.09,0.73,0.7,1.29,1.44,1.32 c2.3,0.08,8.77,0.42,11.04,1.07C119.55,68.15,122.15,70.77,121.75,74.7z"/>
</svg>