<svg viewBox="0 0 128 128" xmlns="http://www.w3.org/2000/svg">
  <path d="M122.12,114.93L120.6,111l-0.02,0.03c-0.79-2.28-1.57-4.95-2.13-8.09c-1.79-9.94,3.72-21.59,1.45-39.2 c-1.87-14.5-7.1-21.99-7.26-22.23c0,0-0.97-1.72-2.68-4.16c-1.71-2.45-4.16-5.63-7.1-8.54l3.22-3.25l0.01,0.01l4.16-3.8 c0,0,6.62,1.27,7.33,0.85c0.97-0.58,6.78-18.55,6.48-19.02c-0.49-0.77-6.56,1.66-10.42,3.03c-4.58,1.62-8.45,3.18-8.8,3.66 c-0.79,1.06,0.9,7.33,0.9,7.33l-3.09,3.45l-3.96,4.05c-7.36-5.94-13.3-8.46-13.4-8.51c-2.49-1.2-10.74-4.79-21.24-5.26 c-12.62-0.56-22,3.57-34.51,3.24c-6.24-0.17-10.82-1.08-14.25-2.05v-0.01l-3.82-1.24v0.01C7.42,9.86,5.72,9,4.31,11.47 c-1.17,2.04-0.29,5.65,4.55,8.56c-0.07,0.3-0.07,0.61,0.01,0.91l21.24,77.04c0.18,0.68,0.72,1.21,1.4,1.4l83.33,22.58 c0.17,0.05,0.35,0.07,0.52,0.07c0.53,0,1.03-0.21,1.42-0.59c1.14,1.5,2.16,2.49,2.79,2.84c2.23,1.22,3.9-1.34,4.24-3.69 c0.16-1.12-0.65-2.94-1.73-5.61L122.12,114.93z M18.38,23.42c16.31,3.24,33.88-3.32,47.13-1.01c7.54,1.32,12.32,3.03,15.06,4.27 c0.08,0.04,0.15,0.07,0.22,0.1v0.01c0,0,4.5,1.99,10,6.43L51.46,73.48C50.54,72.52,47,69.75,40,74.71c-2.61,1.85-7.1,5.58-9.88,8.29 L13.38,22.09C14.85,22.6,16.5,23.05,18.38,23.42z M32.94,93.27l-0.52-1.87c0.56,0.48,1.01,0.82,1.27,0.95 C33.54,92.53,33.27,92.86,32.94,93.27z M36.37,96.12c0.38-0.44,0.63-0.75,0.63-0.75c0.04,0.15,0.35,0.58,0.79,1.15L36.37,96.12z M45.08,98.56c3.09-3.14,7.65-8.42,9.49-11.6c3.5-6.07,1.14-9.1,0.45-9.8l39.87-40.29c3.38,3.35,6.06,6.87,7.44,8.82l-0.09,0.04 c0,0,4.7,5.05,8.18,18.58c3.13,12.21-0.68,23.67-0.34,37.41c0.16,6.62,2.22,12.24,4.45,16.24L45.08,98.56z"/>
</svg>