<svg viewBox="0 0 128 128" xmlns="http://www.w3.org/2000/svg">
  <path d="M108.45,83.28L108.45,83.28C108.45,83.28,108.45,83.28,108.45,83.28c-2.86-5.5-10.48-14.2-22.12-14.81 c-0.06-0.18-0.11-0.29-0.11-0.29s-4.16-14.83-21.99-28.31c-5.76-4.35-11.98-7.73-17.59-10.29c5.7,0.73,12.46,0.77,20.01-0.66 c21.01-3.99,32.13-20.1,32.13-21.09c0-0.02-0.02-0.02-0.07-0.03c0.11-0.17,0.18-0.32,0.14-0.42c-0.31-0.99-7.98-3.52-24.49-3.79 c-14.7-0.24-26.09,1.37-36.09,6.64c-7.31,3.85-10.34,8.4-11.24,11.06c-0.91-0.95-2.19-2.08-3.76-2.91c-2.85-1.48-6.9-1.93-8.11,1.22 c-1.29,3.35,1.03,5.79,3.51,7.03c2.71,1.35,5.67,1.35,5.67,1.35s8.51,10.13,12.43,22.56c2.55,8.09,3.96,17.17,4.49,22.72 c-5.08,0.4-9.15,1.89-12.2,4.12l-0.02,0c0,0-14.21,9.19-10.62,27.77c3.2,16.53,17.55,20.18,25.44,20.34 c16.68,0.34,24.36-12.12,24.36-12.12s16.24,12.16,31.89,1.69C113.53,106.08,111.61,89.94,108.45,83.28z M33.8,30.55 c0,0,16.97,4.62,27.97,14.73c13.92,12.78,17.42,21.18,18.19,23.57c-8.69,1.58-14.1,6.99-14.1,6.99s0,0,0,0 c-0.13-0.02-3.06,3.32-3.6,4.54c-3.5-3.75-8.65-6.57-15.51-7.14c-0.43-5.63-1.5-15.04-4.03-23.1C38.81,37.71,33.8,30.55,33.8,30.55z "/>
</svg>