<svg viewBox="0 0 128 128" xmlns="http://www.w3.org/2000/svg">
  <g>
    <polygon points="111.9,22.7 109,18.6 99.8,25 104,30.9 "/>
    <polygon points="20.4,25.8 18.5,15.5 11.8,16.7 15.7,26.7 "/>
    <polygon points="61.2,13.3 56.7,4 52.2,5.2 54.8,15 "/>
    <path d="M122.8,90.7c-4.5-6.4-10.3-11.6-18.6-11.5c-3.6,0.1-7.9,0.9-11.2,2.8c-1.6-0.9-3.3-1.7-5-2.2c-5.6-1.8-12-2.3-17.6-0.3 c-2.5-3.7-5.7-7.5-9.3-11.1c-0.8-0.8-1.6-1.6-2.5-2.4c0-0.9-0.1-1.8-0.2-2.6c-0.5-3.7-3.6-6.1-4.9-9.4c-1.1-2.7-0.5-5,1.1-7.9 c1-1.9,3.4-4.1,6.1-5.6c0,0.1,0,0.3,0,0.4c0,0.1,0,0.2,0,0.3c0.3,3.5,1.6,7.5,5.9,7.1c4-0.4,3.6-5.1,3.5-8.1c0-0.2,0-0.3,0-0.5 c0-0.1,0-0.3,0-0.4c-0.5-3.7-3.2-6-7.4-5c4.1-6.8,13.7-9.6,21.4-10.1c0.1,0-0.1-5,0-5c-11,0.8-20.5,5.4-22.8,15.7 c-4.4,1.8-7.3,6.4-8.2,10.8c-0.5,2.7-0.5,5.6-0.4,8.3c0.2,4.3,2.9,7.2,4.6,10.6c-6-5.3-12.2-9.2-17.3-11.1c0.2-1.6,0.1-3.3-0.2-4.9 c-1.3-7.2-10.9-8.5-13.4-14.3c1.1-2.9,3.7-5,6.3-6.5c3.2-1.8,5-4,5.4-7.8c0.1-1.3,0.1-2.5,0-3.6V15c0,0.2-0.1,0.4-0.1,0.6 c-0.6-3.2-2.6-5.7-6.1-7.8c0.7,0.4-0.7,4.6,0,5c1.9,1.1,4.3,2.8,5.5,4.9c-1.5,3.7-4.4,4.1-7.8,7.2c-2.5,2.3-3.5,4.7-3.7,7.6 c0-0.2-0.1-0.3-0.1-0.5c0,0.5,0,1.1,0,1.6c0,0.3,0,0.6,0,0.9s0,0.5,0,0.8c0,0.5,0,1.1,0,1.6c0-0.2,0-0.4,0.1-0.6 c0.3,2.7,1.3,4.7,3.9,6.7c3.7,2.9,7.8,4.8,9.5,9.1c-0.1,0.3-0.3,0.7-0.5,1c-4.4-1.4-8-1.3-10,0.8c-1,1-1.6,2.5-1.7,4.3L5.7,118 c-1.1,3.1,1.3,6,4.2,6c0.5,0,1-0.1,1.5-0.3l59.2-21.2c2.1,0,3.8-0.5,5-1.7c3-3,1.8-9.5-2.4-17.1c1.6-0.4,3.3-0.6,5.1-0.6 c3.3,0,7.3,0.6,11.1,2c-0.9,1.2-1.5,2.7-1.8,4.4c-0.4,2.6-0.5,6.5,0.5,9c2,5.1,12.1,8.8,14.6,2c2.2-6.1-0.7-11.5-5.2-15.4 c2.5-0.7,5.1-1,7.5-0.9c7.8,0.1,13.4,5.4,17.7,11.5C122,94.6,123.6,91.8,122.8,90.7z M69.6,41.5c-0.8,1.4-2.2,2.2-4.1,1.8 c-1.9-0.4-3.1-1.6-3.8-3.1C64.8,38.7,68,38.5,69.6,41.5z M10.5,120.9c-0.2,0.1-0.4,0.1-0.5,0.1c-0.5,0-0.9-0.2-1.2-0.7 c-0.2-0.3-0.4-0.8-0.2-1.4l19.6-54.7c2.1,6.4,7.5,14.5,15.1,22.1c7.4,7.4,15.4,12.7,21.8,15L10.5,120.9z M102.3,96.1 c-1.4,2.6-4.7,3.6-7.8,2.9c-3.2-0.7-5.4-3-6.4-5.9c0.9-2.8,2.8-4.8,5.2-6.2C97.5,89,100.9,92.1,102.3,96.1z"/>
    <path d="M71.2,60.2c0.7,0.3-0.7,4.6,0,5c3.5,1.9,7.5,4.4,11.4,2.3c2.3-1.2,3.5-3.6,4.4-5.9c2.2-5.2,3.2-8.2,9.3-5.5 c3.6,1.6,11.9,7.1,13.4,0.1c0.4-1.7,0.3-3.5,0-5.3c0-0.1,0-0.2,0-0.3c-0.1-0.6-0.2-1.3-0.3-1.9c2-4.5,10-2.5,13.5-1 c-0.6-0.2,0.6-4.7,0-5c-4.1-1.8-13-3.8-13.9,2.6c0,0,0,0,0,0.1v0.1c-0.2,1.4-0.1,2.7,0,4c0,0.1,0,0.3,0,0.4 c0.1,0.8,0.2,1.7,0.3,2.5c-2.3,7.1-15.2-5.1-19.4-2c-2.5,1.9-2.8,6.5-4.5,9.1C81.8,65.4,76.2,62.9,71.2,60.2z"/>
  </g>
</svg>