<svg viewBox="0 0 128 128" xmlns="http://www.w3.org/2000/svg">
  <g>
    <path d="M109.78,54.48c0,0-3.01-3.55-6.23-5.69c-3.22-2.14-6.97-3.75-6.97-3.75c3.01-1.61,9.74-6.86,11.52-11.79 c-3.67-2.36-11.2-5.39-18.01-3.7c-0.02,0.01-0.05,0.01-0.07,0.01c2.44-3.71,4.13-11.61,2.67-16.06 c-6.65-0.59-13.62,4.77-15.47,8.11c0.53-3.55-0.11-12.9-4.42-17.68c-5.43,1.31-9.78,9.25-10.56,14.44c0,0-2.03-5.61-4.58-8.49 c-1.74-1.8-3.71-3.79-6.16-4.47c-2.9,1.55-5.83,13.4-3.16,17.75c-0.24-0.17-4.06-2.89-7.83-4.21c-3.06-0.98-6.33-1.95-9.54-1.72 c-0.59,0.3-0.74,5.2,1.43,10.9c1.36,3.48,3.81,6.26,4.01,6.49c-0.01,0-0.03,0-0.04-0.01c0,0-0.01,0-0.02,0 c-0.02-0.01-0.06-0.02-0.11-0.04c-1.12-0.32-2.25-0.58-3.41-0.75c-3.3-0.98-13.29,0.17-13.96,1.55 c0.56,4.69,8.11,11.73,12.32,13.06c-3.94,0.75-12.61,5.26-13.39,10.18c2.08,3.46,8.74,6.48,14.58,5.57c0.05,0,0.09-0.01,0.09-0.01 c-2.21,1.89-4.67,4.77-6.03,7.5c-1.51,3.32-3.17,7.18-2.22,7.61c1.18,0.56,2.51,0.82,3.81,1c4.77,1.14,13.08-2.35,13.8-3.23 c-1.54,4.8-2.27,12.64,0.34,17.01c0.1,0.05,0.27,0.03,0.39,0.01c5.15-0.72,11.73-5.95,13.71-9.5c-0.24-0.4,1.77,5.79,4.15,9.23 c-0.26,3.58-0.61,7.78-0.97,11.17c-5.78-11.71-21.17-7.82-25.56-1.99c1.89,5.81,15.27,13.93,24.05,9.83 c-1.15,4.43-5.46,9.83,1.44,11.06c7.25,0.43,6.82-7.91,8.28-15.25c1.96,1.05,5,2.14,9.23,2.14c7.34,0,15.35-6.22,15.09-7.71 c-0.91-4.9-15.84-12.73-23.77-3.87c0.02-0.8,0.04-1.6,0.05-2.4c3.08-3.25,5.44-8.71,5.96-13.29c3.67,3.05,9.23,7.5,14.43,7.75 c1.29-0.4,2.05-6.64,2.19-8.95c0-2.21-0.35-6.29-0.35-6.29c3.04,1.02,10.89,2.69,14.4,0.53c0.34-2.59-1.68-6.39-2.95-8.71 c-2.14-3.35-5.36-5.63-5.36-5.63s4.82-1.67,8.04-3.62C107.84,56.63,109.78,54.48,109.78,54.48z M90.64,32.5 c2.91-1.01,10.37-0.03,13.36,1.97c-3.63,5.54-9.03,7.85-12.44,10.06c-1.37-4.86-3.28-7.63-6.21-10.91L90.64,32.5z M79.9,22.96 c0.42-1.41,7.04-6.55,10.25-6.33c0.75,6.58-3.17,12.11-5.48,16.25c-1.95-2.06-4.15-3.85-6.73-5.25L79.9,22.96z M65.18,18.98 c0.23-2.6,3.43-9.85,6.55-11.24c3.69,5.8,2.48,13.74,2.08,18.13c-2.77-0.91-6.24-1.41-9.8-1.32L65.18,18.98z M50.33,16.05 c0.34-3.18,1.3-5.53,2.03-6.9c5.18,3.27,7.13,10.59,8.99,15.56c-2.75,0.29-5.4,0.93-7.87,1.93C51.71,22.41,50.06,22.44,50.33,16.05 z M35.19,27.03c-1.01-2.58-1.42-5.02-1.54-6.7c6.05,0.46,13.09,5.08,16.56,7.9c-3.32,1.9-6.19,4.55-8.38,7.9 C39,32.73,37.85,32.7,35.19,27.03z M25.99,41.4c-1.48-1.45-2.57-3.09-3.26-4.36c6.15-1.65,13.27,0.37,17.45,2.01 c-1.24,2.59-2.13,5.52-2.58,8.78C32.79,45.55,31.7,46.32,25.99,41.4z M32.03,61.2c-2.87,0.6-8.65-0.71-10.76-3.15 c3.28-5.5,11.69-6.93,16.1-8.14c-0.25,3.33-0.16,7.17,0.78,10.42L32.03,61.2z M40.13,74.58c-0.4,0.79-9,3.98-12.72,2.56 c1.95-6.97,7.49-11.22,11.53-14.44c1.29,3.33,3.28,6.27,5.74,8.75L40.13,74.58z M53.74,82.97c-0.56,1.52-6.4,6.94-9.74,7.59 c-1.71-5.8,0.68-12.68,2.21-17.7c2.97,2.58,6.49,4.55,10.26,5.79L53.74,82.97z M71.27,82.94c-0.55,4.93-3.01,9.65-5.83,12.5 c-4.42-4.58-6.61-12.11-7.38-16.3c4.5,1.22,9.29,1.43,13.85,0.38L71.27,82.94z M65.88,77.2c-22.75-0.08-33.79-25.35-19.16-42.45 c11.12-11.7,31.71-8.35,38.93,3.99C94.69,50.33,88.42,77.14,65.88,77.2z M99.42,69.44c0.82,1.29,1.71,3.45,2.2,5 c-5.69,0.58-10.64-1.43-14.51-2.79c0.3,4.84,1.45,10.56-0.14,16.26c-5.16-1.44-10.31-6.38-13.35-8.82c-0.13,0.04,0,0,0,0 c7.85-2.03,15.3-9.91,17.53-17.07C94.58,64.7,95.68,64.41,99.42,69.44z M95.6,59.36l-4.04,1.4c1.48-5.04,1.38-10.09,0.45-14.42 c3.45,1.47,9.65,3.93,13.49,7.97C103.6,56.25,95.86,59.39,95.6,59.36z"/>
    <path d="M67,73.51c23.92-1.69,26.4-41.67-2.84-41.6C36.21,32.51,39.13,74.7,67,73.51z"/>
  </g>
</svg>