<svg viewBox="0 0 128 128" xmlns="http://www.w3.org/2000/svg">
  <path d="M116.68,3.85H11.38c-4.15,0-7.52,3.37-7.52,7.52v105.3c0,4.15,3.37,7.52,7.52,7.52h49.91h6.97h48.43 c4.15,0,7.52-3.36,7.51-7.52V11.37C124.2,7.22,120.83,3.85,116.68,3.85z M61.31,121.19l0.25-43.27 C54.75,84,41.74,96.69,37.39,100.96c3.06-0.01,6.87-0.04,7.84-0.07c1.69-0.06,2.09,1.76,0.61,2.23c-1.49,0.47-12.31,3.71-12.31,3.71 s4.12,8.74,4.61,10.33c0.47,1.55-0.81,2.09-1.69,1.35s-8.17-8.35-8.17-8.35s-6.68,4.57-8.09,5.11c-1.41,0.54-2.69,0-1.75-1.89 s6.02-9.05,6.02-9.05s-5.21-10.67-5.82-11.88c-0.6-1.21,0.61-2.23,1.69-1.21c1.08,1.02,8.1,7.63,8.1,7.63s1.64-6.19,2.23-8.03 c0.67-2.09,2.23-1.82,2.36,0.34c0.07,1.08,0.14,3.93,0.19,6.27L55.6,73.48c0,0-37.2,13.28-38.9,13.65c-1.7,0.38-3.58,1.41-4.24-0.38 c-0.66-1.79,1.41-2.36,2.83-2.83c1.42-0.47,38.69-14.11,38.69-14.11l-22.14-1.64c0.91,0.89,1.8,1.75,2.19,2.08 c0.94,0.81,0.54,2.09-1.08,1.69s-6.41-2.9-6.41-2.9s-2.3,4.56-2.77,5.26c-0.67,1.01-1.96,0.81-2.02-0.67 c-0.07-1.48,0.12-5.68,0.12-5.68s-6.85-1.39-10.18-2.29c-1.24-0.33-1.55-1.75,0.27-1.96c1.82-0.21,10.19-0.67,10.19-0.67 s0.48-4.97,0.61-6.01c0.13-1.08,1.15-1.28,1.75-0.13c0.61,1.15,2.03,5.54,2.03,5.54s5.67-2.77,6.68-3.31 c1.01-0.54,2.02,0.61,1.01,1.62c-0.68,0.68-2.75,2.63-4.02,3.82l23.06,1.99L21.55,48.29c0.01,2.18,0.02,6.22,0.07,6.85 c0.07,0.88-1.21,1.48-1.69,0.13c-0.47-1.35-2.7-7.71-2.7-7.71s-4.59,4.47-5.6,5.35c-1.01,0.88-2.43,0.34-1.75-1.08 c0.67-1.42,3.94-7.18,3.94-7.18s-5.15-4.16-6.3-5.17c-0.3-0.26-0.51-0.51-0.66-0.74v-1.37c0.28-0.23,0.76-0.3,1.32-0.12 c1.48,0.47,7.97,3.06,7.97,3.06s3.73-7.03,4.11-7.79c0.81-1.62,1.82-1.21,1.75,0.54s-0.94,8.3-0.94,8.3s6.94-1.13,8.37-1.35 c2.16-0.34,2.36,0.54,0.81,1.82c-0.79,0.66-3.04,1.97-5.05,3.09l29.9,15.44c0,0-26.14-28.94-26.99-29.88 c-0.85-0.94-1.57-2.2-0.47-3.2c1.13-1.04,2.73,0.38,3.39,1.23c0.66,0.85,28.82,30.99,28.54,30.33 c-0.23-0.55-10.05-26.05-13.44-34.88c-1.04,3.68-2.54,8.97-2.78,9.51c-0.74,1.69-2.09,1.55-2.23-0.13 c-0.13-1.57,0.94-13.23,0.94-13.23s-11.14-1.08-13.23-1.35c-2.09-0.27-2.09-2.42,0.47-2.36c2.83,0.07,12.35,0.07,12.35,0.07 s-0.94-5.26-1.21-7.09C40.17,7.56,41.6,7.17,42.4,8.5c0.81,1.35,3.65,5.81,3.65,5.81s4.91-4.89,5.67-5.47 c1.08-0.81,2.5-0.2,1.69,1.42s-4.39,7.02-4.39,7.02s8.34,6.38,9.11,6.95c1.08,0.81,0.13,2.36-0.94,1.82 c-0.67-0.34-4.4-2.45-7.12-3.99l14.07,35.82l1.05-35.21c-1.53-1.04-7.56-6.72-8.14-7.42c-0.61-0.74-0.08-2.21,1.48-1.35 c1.64,0.9,5.88,3.3,5.88,3.3s0.4-5.93,0.54-7.21c0.2-1.96,1.48-1.82,1.89,0c0.41,1.82,1.2,6.95,1.2,6.95s10.25-6.85,11.21-7.49 c1.42-0.94,2.7,0.13,1.21,1.82c-1.48,1.69-10.65,9.88-10.44,10.01c0.2,0.13,5.04,2.51,6.12,3.22c1.75,1.15,1.15,2.63-0.88,1.96 c-1.52-0.5-4.38-1.73-6.05-2.42L69.2,58.22l20.87-29.66c-2.68-0.61-5.98-1.39-6.5-1.63c-0.88-0.4-0.81-1.82,0.67-1.42 c1.48,0.4,6.34,1.21,6.34,1.21s-4.45-9.52-4.99-10.8c-0.54-1.28,0.4-1.96,1.35-1.08c0.94,0.88,4.93,5.47,4.93,5.47 s0.47-5.6,0.81-7.22c0.34-1.62,1.75-1.21,2.09,0.13c0.23,0.94,1.32,8.35,1.32,8.35s10.82-3.91,12.24-4.37 c1.89-0.61,2.5,0.54,0.88,1.69c-1.62,1.15-10.53,6.01-10.33,6.28c0.2,0.27,5.4,1.55,6.68,1.96c1.28,0.4,1.42,1.89-0.34,2.02 c-1.47,0.12-8.72,0.19-10.94,0.2L75.33,58.64c0,0,21.02-17.22,22.15-17.97s1.79-0.57,2.36,0c0.57,0.57,0.28,1.41-0.75,2.26 c-1.01,0.84-24.43,19.28-25.16,19.86l31.69-8.25c-3.24-1.04-8.37-2.71-9.13-2.99c-1.62-0.61-1.37-2.15,0.52-1.81 c1.88,0.34,12.41,2.63,12.54,2.7c0.16,0,4.32-8.5,5.2-9.72c0.88-1.21,1.75-0.34,1.69,0.61c-0.07,0.94-2.63,9.72-2.63,9.72 s4.86,0.13,6.34,0.27c0.51,0.04,0.86,0.22,1.05,0.45v0.81c-0.17,0.22-0.48,0.43-0.98,0.57c-1.69,0.47-6.34,1.69-6.34,1.69 s2.29,3.64,3.44,5.53c0.78,1.28-0.13,2.5-1.48,1.48c-1.35-1.01-5.47-5.94-5.47-5.94s-5.4,7.29-6.41,8.5 c-1.01,1.21-2.69,0.64-1.61-1.25c0.55-0.96,3.07-5.07,4.64-7.64l-0.36,0.21l-32.31,8.35l35.02,4.25c-0.95-1.44-2.01-3.07-2.21-3.5 c-0.47-1.01,0.07-1.82,1.35-1.08c1.28,0.74,5.2,3.71,5.2,3.71s0.88-1.15,1.89-2.23c1.01-1.08,1.94-0.81,1.43,0.88 c-0.41,1.38-1,3.32-1,3.32s3.02,0.91,4.1,1.31c0.92,0.35,1.35,1.23-0.27,1.7c-0.8,0.23-3.71,0.67-3.71,0.67s2.36,5.33,2.83,6.41 c0.67,1.55-1.15,2.63-2.09,0.81c-0.64-1.23-3.17-5.74-3.17-5.74s-5.9,6.19-6.88,7.02c-1.28,1.08-2.29,0.88-1.75-0.81 c0.39-1.23,3.33-5.97,4.9-8.48h-0.41c-0.85,0-33.61-3.17-33.61-3.17s21.45,13.54,22.49,14.2c1.04,0.66,1.6,1.98,1.04,2.92 c-0.57,0.94-1.79,0.75-3.11,0.19S74.21,74.8,74.21,74.8l23.1,33.03c1.31-4.97,3.82-14.51,4.11-15.57c0.54-1.96,2.53-1.89,2.4,0.06 c-0.14,2.02-2.23,18.41-2.23,18.41s8.57-1.63,10.26-2.1c1.69-0.47,3.04,0.29,1.15,1.51c-1.89,1.21-10.46,6.01-10.46,6.01 s0.74,2.7,1.35,4.59c0.05,0.16,0.09,0.31,0.11,0.45h-2.47c-1.19-0.95-2.88-2.41-2.88-2.41s-0.89,1.34-1.7,2.41h-2.38 c0.23-1.51,0.87-4.67,0.87-4.67c0.01,0.06-11.64-2.23-13.4-2.68c-1.64-0.42-1.98-1.13-0.29-1.2c1.34-0.06,9.86-1.17,13.32-1.63 c-2.55-3.36-18.65-24.32-25.88-32.83l-0.87,43.01H61.31z"/>
</svg>