<svg viewBox="0 0 128 128" xmlns="http://www.w3.org/2000/svg">
  <g>
    <path d="M102.43,4.52L26.1,4.08c-3.45,0-6.25,2.8-6.25,6.25l0.17,108.48c0,3.45,2.8,6.25,6.25,6.25l76.02,0.37 c3.45,0,6.25-2.79,6.25-6.24l0.37-108.69C108.91,7.05,105.88,4.52,102.43,4.52z M103.46,83.31c0,0-13.01-7.87-29.26-7.94 c-25.03-0.11-49.83,15.96-49.83,15.96s0.11-75.25,0.2-77.84c0.09-2.59,1.9-4.49,4.4-4.57C31.47,8.84,96.99,9,98.97,9 c1.98,0,4.92,0.6,5.09,4.14C104.23,16.68,103.46,83.31,103.46,83.31z"/>
    <path d="M74.83,41.54c-0.21,13.51-9.99,22.1-21.93,22.1c-12.46,0-21.53-8.38-21.74-21.58c-0.22-13.61,8.37-23.04,22.2-23.04 C65.41,19.02,75.04,28.03,74.83,41.54z"/>
  </g>
</svg>