<svg viewBox="0 0 128 128" xmlns="http://www.w3.org/2000/svg">
  <path d="M116.68,43.12c-1.89-1.59-10.84,1.69-14.82,3.18c-3.98,1.49-8.55,4.57-8.55,4.57s-0.1-1.89-0.3-2.88s-1.09-2.88-1.69-3.28 c-0.6-0.39-4.96,4.84-8.14,9.82C80,59.51,78.49,64.01,77,63.61c-1.49-0.4-0.69-4.01,0.2-7.69c0.9-3.68,4.78-10.5,6.27-17.56 c1.49-7.06-0.5-12.23-1.3-12.13c-0.79,0.1-5.07,4.57-5.07,4.57s0-3.64-0.99-8.91c-0.99-5.27-3-7.52-3.57-7.43 c-0.67,0.11-2.18,3.2-2.18,3.2s-0.69-3.05-1.88-6.73s-3.82-7.17-4.71-7.17s-2.65,1.61-4.64,5.09c-1.99,3.48-2.91,8.43-2.91,8.43 s-2.39-3.5-2.99-3.4c-0.59,0.1-1.53,1.59-2.62,6.56c-1.09,4.97-0.55,10.76-0.55,10.76s-6.76-5.27-7.46-4.67 c-0.7,0.59-1.38,5.53-0.2,11.53c1.19,6.06,3.29,11.21,4.78,14.29c2.37,4.89,3.97,9.87,2.28,10.67c-1.69,0.79-8.45-9.55-10.74-12.53 c-2.29-2.98-4.88-5.37-5.87-5.37c-1,0-0.7,5.97-0.7,5.97s-4.67-2.99-7.55-4.5c-2.99-1.57-13.54-5.22-14.72-3.85 c-0.49,0.58,0.19,6.46,2.78,14.21c2.59,7.75,6.07,10.14,6.07,10.14s-6.36,1.6-6.26,2.49c0.1,0.9,2.92,3.53,7.39,6.31 c4.47,2.78,12.3,5.62,12.3,5.62s-5.47,2.59-9.55,4.18c-4.08,1.59-8.25,2.18-8.65,3.28c-0.4,1.1,4.87,4.92,13.69,7.47 c9.21,2.67,17.53,0.79,17.53,0.79s-2.38,4.87-1.39,5.57c0.99,0.7,6.56-2.18,10.54-4.57c2.46-1.48,5.52-4.47,7.51-6.54 c0,3.25-0.03,7.96-0.15,10.91c-0.2,4.87-1.01,12.01-1.11,13.89c-0.09,1.71-1.83,3.61-1.41,5.69c0.2,0.99,1.31,1.87,4.39,2.07 s5.15-0.3,5.23-1.95c0.09-1.65-1.14-3.49-1.34-4.88c-0.2-1.39-0.99-10.74-1.19-15.61c-0.11-2.77-0.21-6.96-0.28-10.06 c1.76,1.84,4.47,4.55,7.53,7.16c4.17,3.56,9.54,5.08,10.34,3.98c0.8-1.1-2.13-5.01-1.63-5.51c0.5-0.49,10.48,0.84,19.43-1.55 c8.95-2.39,11.64-5.87,11.24-6.86c-0.4-0.99-5.27-1.59-11.14-3.48c-5.86-1.89-8.35-3.58-8.35-3.58s5.58-1.84,9.96-4.13 c4.38-2.29,9.23-6.29,9.33-7.18c0.1-0.89-5.85-2.03-5.85-2.03s4.37-6.55,6.36-10.93S118.57,44.71,116.68,43.12z"/>
</svg>