<svg viewBox="0 0 128 128" xmlns="http://www.w3.org/2000/svg">
  <g>
    <path d="M93.22,32.24c5.32-1.86,9.58-5.16,12.76-8.41c5.9-6.04,8.85-12.64,8.85-12.64c-0.14-1.4-5.06-6.32-17.7-7.17 C84.49,3.17,75.05,8.78,70.76,16.67c-0.93,1.71-1.74,3.33-2.44,4.78c-0.01-1.99-0.07-3.98-0.26-5.47c-0.58-4.56-1.35-5.72-2.7-6.3 c-1.35-0.58-8.48,0.12-9.45,2.18c-0.75,1.6,1.74,2.86,3.28,5.52c1.63,2.81,2.32,6.28,2.61,8.72C9.69,26.29,3.17,66.77,4.45,78.74 c3.05,28.59,23.74,44.98,59.43,45.3c33.1,0.3,48.6-13.75,55.11-26.62c3.33-6.6,4.59-17.53,4.49-22.32 C123.17,59.95,116.8,41.79,93.22,32.24z M115.86,96.74c-10.05,16.36-26.75,24.57-51.93,24.3c-17.04-0.18-30.56-4.14-40.18-11.52 c-9.39-7.2-14.88-17.67-16.32-31.1c-1.17-11.01,4.11-31.33,23.49-42.17c8.36-4.69,20.85-7.67,31.1-7.14c0,0.01,0,0.03,0,0.03 s-6.04,0.64-5.85,5.91c0.17,4.69,4.36,6.62,9.19,6.62c5.27,0,7.32-3.92,7.13-6.49c-0.3-3.98-4.43-5.52-4.43-5.52 s0.01-0.09,0.01-0.22c0.76,0.07,1.51,0.14,2.27,0.23c1.59,1.1,3.95,2.43,6.84,3.15c3.9,0.97,7.48,1.1,10.74,0.67 c14.32,4.74,24.06,12.85,29,24.21c2.58,5.95,3.55,12.03,3.59,17.61C120.59,85.38,117.67,93.79,115.86,96.74z"/>
    <path d="M86.15,45.44c2.02,0.17,3.02-1.77,3.06-3.75c0.03-1.6-1.03-2.67-2.41-2.8c-1.39-0.12-2.42,0.82-2.76,2.2 C83.47,43.37,84.47,45.3,86.15,45.44z"/>
    <path d="M97.91,56.77c2.15,1.34,4.39-0.43,5.13-1.94c0.58-1.19,0.9-3.13-0.47-4.39c-1.65-1.51-3.72-0.82-4.92,0.47 C96.16,52.51,96,55.58,97.91,56.77z"/>
    <path d="M109.28,62.01c2.04,0.31,3.42-1.67,3.54-3.13c0.16-1.84-0.56-3.32-2.18-3.94c-1.62-0.64-3.49,0.9-3.83,2.64 C106.43,59.5,107.24,61.7,109.28,62.01z"/>
    <path d="M105.06,75.74c2.54,0.61,4.22-1.36,4.65-3.58c0.49-2.49-0.16-4.32-1.72-5.09c-1.35-0.66-4.02-0.11-4.93,3.09 C102.32,72.76,103.17,75.28,105.06,75.74z"/>
    <path d="M98.98,93.81c1.45-1.48,2.29-4.01,0.39-5.47c-1.02-0.79-3.06-0.69-4.7,0.95c-1.64,1.64-1.98,4.01-0.82,5.17 C95.02,95.62,97.39,95.45,98.98,93.81z"/>
    <path d="M68.4,105.31c-1.94,1.46-2.81,3.25-1.64,4.95c1.42,2.07,4.43,1.16,5.6,0.3c1.47-1.07,2.58-3.11,1.81-4.69 C73.31,104.11,70.34,103.85,68.4,105.31z"/>
  </g>
</svg>