<svg viewBox="0 0 128 128" xmlns="http://www.w3.org/2000/svg">
  <g>
    <path d="M115.2,49.8c0,0,15.6-17,2.5-30.4C104.7,6,89.8,24,89.8,24s-9.3-6.8-25.8-7.2c-11.4-0.3-20.5,4.6-20.5,4.6 s-11.6-17.4-28-5.1c-16.9,12.7-1,30.8-1,30.8S2.9,61.4,3.9,79.3c1,19.3,11.3,42,61.4,41.2c50.1-0.8,58.8-22.7,58.7-41.7 C123.9,60.5,115.2,49.8,115.2,49.8z M65.1,117.2c-38,0.4-52.1-11.5-56.7-29c-4.7-17.5,2.8-35.4,18.4-50.6 C42.5,22.5,54,20.5,63.5,20.5c24.1,0,42.8,18.7,51.1,34.2c6.3,11.8,6.9,24.3,5.3,31.5C115.8,105.5,103.1,116.8,65.1,117.2z"/>
    <path d="M88.7,50.2c-2.5-2.1-9-5.2-16.2,1.4c-5.1,4.6-4,12.2-0.3,17C76,73.3,78.3,76,79.9,79c2.1,3.9,9.6,18.3,21.7,8.8 c12.3-9.7,3-21.5,0.2-24.4C100.7,62.2,90.7,51.8,88.7,50.2z M87.8,76.7c-4.3,0.4-8.2-3.4-8.9-8.4c-0.8-4.9,1.6-9,6.3-9.2 c4.3-0.2,8.1,2.1,8.4,7.9C93.9,72,92.2,76.3,87.8,76.7z"/>
    <path d="M53.5,49.9c-7.8-4.7-15.9,0.3-22,8.5c-5.3,7.2-10.7,9.6-11.2,17.1c-0.4,6.3,4.3,15.3,14.1,15.3c8.9,0,10.9-8.4,15-14.2 C53.6,70.9,65.2,57,53.5,49.9z M47,73.1c-2.4,3.5-7.4,4.3-11.2,1.5c-2.6-2-3.2-7.6-0.8-11.7c2.5-4.3,7.6-4.9,11.4-2.2 C49.5,62.8,50.3,68.3,47,73.1z"/>
    <path d="M86.2,61.7c-2-1.5-4.2,0.2-4.9,1.8c-1.1,2.6-0.4,6,1.6,5.9c2.5-0.1,1.7-2.2,2.5-3.3C86.3,65.1,87.8,62.9,86.2,61.7z"/>
    <path d="M42.4,60.7c-1.3-1-4,0.5-5.2,2.2c-1.8,2.8-1.4,5.2-0.4,6.1c1.5,1.3,3.4-0.5,4.7-2.8C42.7,64,44.2,62.1,42.4,60.7z"/>
    <path d="M79.7,95.9c-2.4,1.5-3.5,3.2-8.1,3c-2.9-0.1-4.1-1.9-4.1-2.7s3.5-2.8,5.5-4.3c2.1-1.5,3.7-3.2,3.8-4.6 c0.1-1.4-5.7-5.9-13.1-5.8c-5.6,0.1-12.3,3.8-12.4,5.7c-0.1,1.9,2.8,4,4.8,5.5c1.5,1.1,4.7,2.9,4.4,3.9c-0.3,0.9-2.4,2-4.8,2.2 c-3.1,0.3-7.2-2.4-8.2-3.1c-1.2-0.8-3.9,0.4-2.7,2.8c1.3,2.5,3.7,4.1,6.3,4.7c2.8,0.7,4.4,0.5,4.4,0.5s2.7,3.9,7.9,4.3 c5.8,0.5,8.6-4.7,8.6-4.7s3.5,0.5,5.8-0.3c3.1-1.1,4.3-3.1,5.1-4.7C83.9,96.6,82.7,94,79.7,95.9z M62.9,104.8 c-1.9-0.2-3.3-1.8-3.3-1.8s1.9-1,2.4-1.4s1.9-2.1,1.9-2.1s1.4,1.8,2.3,2.4c0.9,0.7,1.8,1.3,1.8,1.3S66.5,105.2,62.9,104.8z"/>
  </g>
</svg>