<svg viewBox="0 0 128 128" xmlns="http://www.w3.org/2000/svg">
  <g>
    <path d="M107.6,101.3c-0.9-0.6-1.9-1-2.8-1.2c2.4-0.6,3.9-2.8,3.9-5.4c0-1.2-0.3-2.3-0.9-3.2c0.5-1,0.8-2.3,1-4 c0.7-7.9-0.2-12.6-4.7-17.7c-2.3-2.4-4.5-3.5-4.8-3.5c-2.7-1.2-6.2-2.2-10.7-2.2c-0.4,0-0.8,0-1.2,0c2.3-10.6,2.8-24.2,2.8-34.9 c0-0.4,1-25.3-26-25.3S37.5,29,37.5,29.4c0,10.7,0.6,24.3,2.8,34.9c-0.4,0-0.9,0-1.3,0c-19.9,0-21.2,16.3-20.5,23.4 c0.2,1.6,0.6,2.9,1,4c-0.7,0.9-1.1,2-1.1,3.2c0,2.5,1.8,4.7,4.2,5.4c-0.9,0.2-1.9,0.6-2.8,1.2c-4.6,3-4.3,8.2-4.3,8.2l5.4-1.4 l-0.6,2.9c0,0,4,0,6.4-2.2c0.6-0.6,1.1-1.2,1.6-1.8c0.9,0.7,1.8,1.4,2.7,1.9c-5.5,1.1-14,4.8-14,13c0,0,0,0.8,0,2.1h43.9 c0-1,0-1.7,0-1.8v-0.3c0-8.3-8.8-12-14.3-13c1-0.6,1.9-1.2,2.8-2c0.5,0.7,1,1.3,1.7,2c2.4,2.3,6.4,2.2,6.4,2.2l-0.6-2.9l5.4,1.4 c0,0,0.4-5.2-4.3-8.2c-0.9-0.6-1.9-1-2.8-1.2c2.4-0.6,3.9-2.8,3.9-5.4c0-1.2-0.3-2.3-0.9-3.2c0.5-1,0.8-2.3,1-4 c0.7-7.8-0.2-12.5-4.6-17.5c1.3-0.3,2.7-0.5,4-0.7c0.9,1.8,2.7,3.1,4.9,3.1h1.1c2.3,0,4.2-1.4,5-3.4c1.3,0.1,2.6,0.3,3.9,0.5 c-5.4,5.4-5.8,13.6-5.3,18.1c0.2,1.6,0.6,2.9,1,4c-0.7,0.9-1.1,2-1.1,3.2c0,2.5,1.8,4.7,4.2,5.4c-0.9,0.2-1.9,0.6-2.8,1.2 c-4.6,3-4.3,8.2-4.3,8.2l5.4-1.4l-0.6,2.9c0,0,4,0,6.4-2.2c0.6-0.6,1.1-1.2,1.6-1.8c0.9,0.7,1.8,1.4,2.7,1.9c-5.5,1.1-14,4.8-14,13 c0,0,0,0.8,0,2.1h43.9c0-1,0-1.7,0-1.8v-0.3c0-8.3-8.8-12-14.3-13c1-0.6,1.9-1.2,2.8-2c0.5,0.7,1,1.3,1.7,2 c2.3,2.3,6.4,2.2,6.4,2.2l-0.6-2.9l5.4,1.4C111.9,109.5,112.3,104.3,107.6,101.3z M107.8,94.8c0,2.2-1.4,3.9-3.4,4.4 c0.5-1.4,1-2.9,1.2-4.5c0.5-0.4,1.1-1.1,1.7-2C107.6,93.3,107.8,94,107.8,94.8z M88.4,110.1c-5.9,0-14-4.6-16-14.7 c0.1,0,0.1,0.1,0.1,0.1l-0.6-6.1c0,0,7.3-1.9,11-4.8c3.8-2.9,5.5-5.4,5.5-5.4s1.3,1.9,5.4,5.3c4.2,3.5,11,4.9,11,4.9l-0.5,6.1 c0,0,0,0,0.1,0C102.4,105.5,94.3,110.1,88.4,110.1z M38.8,110.1c-5.9,0-14-4.6-16-14.7c0.1,0,0.1,0.1,0.1,0.1l-0.6-6.1 c0,0,7.3-1.9,11-4.8c3.8-2.9,5.5-5.4,5.5-5.4s1.3,1.9,5.4,5.3c4.2,3.5,11,4.9,11,4.9l-0.5,6.1c0,0,0,0,0.1,0 C52.7,105.5,44.7,110.1,38.8,110.1z M59.3,61.8c-6.1-2.2-13-8.2-14.8-18.5c0-0.7,0-1.4-0.1-2c0-1.9-0.6-9,3.4-9.9 c14.7-3.3,23-11.1,23-11.1c2.2,4.7,8.9,9.3,11.3,11.1c0.5,0.4,0.8,1,1.1,1.7c0.2,1.6,0.3,3.3,0.3,5.1c0,13.5-8.2,21.2-15.3,23.7 c-1.6,0.6-3.1,0.8-4.5,0.8C62.5,62.6,60.9,62.3,59.3,61.8z M19.5,94.8c0-0.8,0.2-1.5,0.6-2.1c0.5,0.9,1,1.5,1.5,1.9 c0.3,1.6,0.7,3.1,1.2,4.5C20.9,98.5,19.5,96.8,19.5,94.8z M42.8,110.6v1.4c0,1.8-1.5,3.3-3.3,3.3h-1c-1.8,0-3.3-1.5-3.3-3.3v-1.4 c1.2,0.3,2.4,0.5,3.6,0.5c1.2,0,2.4-0.2,3.6-0.5H42.8z M58.1,94.8c0,2.2-1.4,4-3.4,4.4c0.5-1.4,1-2.9,1.2-4.5 c0.5-0.4,1.1-1.1,1.7-2C58,93.3,58.1,94,58.1,94.8z M64.5,70.4h-1.1c-1.9,0-3.4-1.5-3.4-3.4v-3c1.3,0.4,2.6,0.5,3.8,0.5 c1.3,0,2.7-0.2,4.1-0.7v3.1C68,68.9,66.4,70.4,64.5,70.4z M69.1,94.8c0-0.8,0.2-1.5,0.6-2.1c0.5,0.9,1,1.5,1.5,1.9 c0.3,1.6,0.7,3.1,1.2,4.5C70.5,98.5,69.1,96.8,69.1,94.8z M92.4,110.6v1.4c0,1.8-1.5,3.3-3.3,3.3h-1c-1.8,0-3.3-1.5-3.3-3.3v-1.4 c1.2,0.3,2.4,0.5,3.6,0.5c1.2,0,2.4-0.2,3.6-0.5H92.4z"/>
    <path d="M64,48.8c1.8,0,2.8-1.3,3-1.8c0.2-0.5,0-0.9-0.4-1.1c-0.1,0-0.1,0-0.2,0h-4.6c-0.1,0-0.1,0-0.2,0c-0.4,0.2-0.6,0.6-0.5,1.1 C61.2,47.5,62.2,48.8,64,48.8z"/>
    <ellipse cx="53.3" cy="40" rx="3.2" ry="3.3"/>
    <path d="M74.7,36.7c-1.8,0-3.2,1.5-3.2,3.3s1.4,3.3,3.2,3.3c1.8,0,3.2-1.5,3.2-3.3S76.4,36.7,74.7,36.7z"/>
    <path d="M56.9,35.3c0.6,0.2,1.1,0,1.2-0.2c0.2-0.2,0.2-0.7,0-1c-0.6-0.8-2-2-4.8-2c-2.7,0-4.1,1.2-4.8,2c-0.3,0.4-0.2,0.8,0,1 c0.2,0.2,0.7,0.5,1.2,0.2c0.6-0.2,1.7-0.8,3.5-0.8C55.2,34.5,56.3,35.1,56.9,35.3z"/>
    <path d="M71.2,35.3c0.6-0.2,1.7-0.8,3.5-0.8c1.8,0,3,0.6,3.5,0.8c0.6,0.2,1.1,0,1.2-0.2c0.2-0.2,0.2-0.7,0-1c-0.6-0.8-2-2-4.8-2 c-2.7,0-4.1,1.2-4.8,2c-0.3,0.4-0.2,0.8,0,1C70.1,35.3,70.6,35.5,71.2,35.3z"/>
    <path d="M71.2,52.8c0.5-1.1-0.7-2.2-1.9-1.5c-2.1,1.2-8.8,1.2-10.9,0c-1.2-0.7-2.4,0.4-1.9,1.5c0.5,1.1,4.2,3.5,7.4,3.5 C67.1,56.4,70.7,53.9,71.2,52.8z"/>
    <path d="M38.8,98.9c1.5,0,2.2-1,2.3-1.4c0.2-0.4,0-0.7-0.4-0.8c0,0-0.1,0-0.2,0H37c-0.1,0-0.1,0-0.2,0c-0.3,0.1-0.5,0.5-0.3,0.8 C36.6,97.9,37.4,98.9,38.8,98.9z"/>
    <path d="M28.1,90.4c0,0,0.1,0,0.1,0c0,0,0.1,0,0.1,0c0.1,0,0.1,0,0.2-0.1c0.1,0,0.1-0.1,0.2-0.1c0.1,0,0.1,0,0.2-0.1 c0,0,0.1,0,0.1,0s0.1,0,0.1,0c0.1,0,0.2,0,0.2-0.1c0.2,0,0.3,0,0.5-0.1c0.2,0,0.3,0,0.5,0c0.2,0,0.4,0,0.5,0c0.2,0,0.3,0,0.5,0.1 c0.1,0,0.2,0,0.2,0.1c0,0,0.1,0,0.1,0c0,0,0.1,0,0.1,0c0.1,0,0.2,0,0.2,0.1c0.1,0,0.1,0,0.2,0.1c0.1,0,0.2,0.1,0.4,0.1l0.2,0.1 c0,0,0.1,0,0.1,0.1c0.1,0.1,0.2,0.1,0.2,0.1l0.1,0c0.2,0.1,0.5,0,0.7-0.1c0.4-0.3,0.4-0.8,0.2-1.1c0,0-0.1-0.1-0.2-0.3 c0,0-0.1-0.1-0.1-0.2c0,0-0.1-0.1-0.2-0.2s-0.1-0.1-0.2-0.2c-0.1-0.1-0.1-0.1-0.2-0.2c-0.1-0.1-0.2-0.1-0.3-0.2 c-0.1-0.1-0.2-0.1-0.3-0.2c-0.1-0.1-0.2-0.1-0.3-0.2c-0.1,0-0.2-0.1-0.4-0.1c-0.2-0.1-0.5-0.2-0.8-0.2c-0.3,0-0.6-0.1-0.8-0.1 c-0.3,0-0.6,0-0.8,0.1c-0.3,0-0.5,0.1-0.8,0.2c-0.1,0-0.2,0.1-0.4,0.1c-0.1,0-0.2,0.1-0.3,0.2s-0.2,0.1-0.3,0.2l-0.3,0.2 c-0.1,0.1-0.2,0.1-0.2,0.2c-0.1,0.1-0.1,0.1-0.2,0.2S27,89,26.9,89c0,0-0.1,0.1-0.1,0.1c-0.1,0.2-0.2,0.3-0.2,0.3v0 c-0.2,0.2-0.2,0.5,0,0.8c0.2,0.4,0.7,0.6,1.1,0.5c0,0,0.1,0,0.3-0.1C28,90.5,28,90.5,28.1,90.4z"/>
    <path d="M50.9,89.1c0,0-0.1-0.1-0.1-0.1c-0.1-0.1-0.1-0.1-0.2-0.2s-0.1-0.1-0.2-0.2c-0.1-0.1-0.2-0.1-0.2-0.2 c-0.1-0.1-0.2-0.1-0.3-0.2c-0.1-0.1-0.2-0.1-0.3-0.2S49.3,88,49.2,88c-0.1,0-0.2-0.1-0.4-0.1c-0.2-0.1-0.5-0.1-0.8-0.2 c-0.3,0-0.6-0.1-0.8-0.1c-0.3,0-0.6,0-0.8,0.1c-0.3,0-0.5,0.1-0.8,0.2c-0.1,0.1-0.2,0.1-0.4,0.1c-0.1,0-0.2,0.1-0.3,0.2 s-0.2,0.1-0.3,0.2l-0.3,0.2c-0.1,0.1-0.2,0.1-0.2,0.2s-0.1,0.1-0.2,0.2c-0.1,0.1-0.1,0.1-0.2,0.2s-0.1,0.1-0.1,0.2 c-0.2,0.2-0.2,0.3-0.2,0.3c-0.2,0.2-0.2,0.5-0.1,0.7c0.1,0.4,0.6,0.7,1,0.5l0.1,0c0,0,0.1,0,0.2-0.1c0,0,0.1,0,0.1-0.1l0.2-0.1 c0.1,0,0.2-0.1,0.4-0.1c0.1,0,0.1,0,0.2-0.1c0.1,0,0.1,0,0.2-0.1c0,0,0.1,0,0.1,0c0,0,0.1,0,0.1,0c0.1,0,0.2,0,0.2,0 c0.2,0,0.3,0,0.5-0.1c0.2,0,0.4,0,0.5,0c0.2,0,0.4,0,0.5,0c0.2,0,0.3,0,0.5,0.1c0.1,0,0.2,0,0.2,0c0,0,0.1,0,0.1,0c0,0,0.1,0,0.1,0 c0.1,0,0.1,0,0.2,0.1c0.1,0,0.1,0,0.2,0.1c0.1,0,0.1,0,0.2,0.1c0,0,0.1,0,0.2,0.1c0,0,0.1,0,0.1,0c0.1,0,0.1,0,0.2,0.1 c0.2,0.1,0.3,0.1,0.3,0.1l0,0c0.2,0.1,0.5,0.1,0.8-0.1c0.4-0.2,0.5-0.8,0.2-1.2C51.1,89.4,51,89.3,50.9,89.1z"/>
    <path d="M30.3,91.5c-1.4,0-2.5,1.2-2.5,2.6c0,1.4,1.1,2.6,2.5,2.6s2.5-1.2,2.5-2.6C32.8,92.6,31.7,91.5,30.3,91.5z"/>
    <path d="M47.4,91.5c-1.4,0-2.5,1.2-2.5,2.6c0,1.4,1.1,2.6,2.5,2.6s2.5-1.2,2.5-2.6C49.9,92.6,48.8,91.5,47.4,91.5z"/>
    <path d="M43.1,101c-1.6,1-7,1-8.6,0c-0.9-0.6-1.9,0.3-1.5,1.2c0.4,0.8,3.3,2.8,5.8,2.8c2.5,0,5.4-2,5.8-2.8 C45,101.3,44.1,100.5,43.1,101z"/>
    <path d="M88.4,98.9c1.5,0,2.2-1,2.3-1.4c0.1-0.4,0-0.7-0.4-0.8c0,0-0.1,0-0.2,0h-3.6c-0.1,0-0.1,0-0.2,0c-0.3,0.1-0.5,0.5-0.3,0.8 C86.3,97.9,87,98.9,88.4,98.9z"/>
    <path d="M77.7,90.4c0.1,0,0.1,0,0.1,0c0,0,0.1,0,0.2,0c0.1,0,0.1,0,0.2-0.1c0.1,0,0.1-0.1,0.2-0.1c0.1,0,0.1,0,0.2-0.1 c0,0,0.1,0,0.1,0c0,0,0.1,0,0.1,0c0.1,0,0.2,0,0.2-0.1c0.2,0,0.3,0,0.5-0.1c0.2,0,0.4,0,0.5,0c0.2,0,0.4,0,0.5,0 c0.2,0,0.3,0,0.5,0.1c0.1,0,0.2,0,0.2,0.1c0,0,0.1,0,0.1,0c0,0,0.1,0,0.1,0c0.1,0,0.1,0,0.2,0.1c0.1,0,0.1,0,0.2,0.1 c0.1,0,0.2,0.1,0.4,0.1l0.2,0.1c0,0,0.1,0,0.1,0.1c0.1,0.1,0.2,0.1,0.2,0.1l0.1,0c0.2,0.1,0.5,0,0.7-0.1c0.4-0.3,0.4-0.8,0.2-1.1 c0,0-0.1-0.1-0.2-0.3c0,0-0.1-0.1-0.1-0.2s-0.1-0.1-0.2-0.2s-0.1-0.1-0.2-0.2c-0.1-0.1-0.2-0.1-0.2-0.2c-0.1-0.1-0.2-0.1-0.3-0.2 c-0.1-0.1-0.2-0.1-0.3-0.2S82.2,88,82.1,88c-0.1,0-0.2-0.1-0.4-0.1c-0.2-0.1-0.5-0.2-0.8-0.2c-0.3,0-0.6-0.1-0.8-0.1 c-0.3,0-0.6,0-0.8,0.1c-0.3,0-0.5,0.1-0.8,0.2c-0.1,0-0.2,0.1-0.4,0.1c-0.1,0-0.2,0.1-0.3,0.2s-0.2,0.1-0.3,0.2l-0.3,0.2 c-0.1,0.1-0.2,0.1-0.2,0.2c-0.1,0.1-0.1,0.1-0.2,0.2S76.6,89,76.5,89c0,0-0.1,0.1-0.1,0.1c-0.1,0.2-0.2,0.3-0.2,0.3l0,0 c-0.1,0.2-0.2,0.5,0,0.8c0.2,0.4,0.7,0.6,1.1,0.5c0,0,0.1,0,0.3-0.1C77.6,90.5,77.6,90.5,77.7,90.4z"/>
    <path d="M94.9,90.3c0.1,0,0.1,0,0.2-0.1c0.1,0,0.1,0,0.2-0.1c0,0,0.1,0,0.1,0c0,0,0.1,0,0.1,0c0.1,0,0.2,0,0.2,0 c0.2,0,0.3,0,0.5-0.1c0.2,0,0.4,0,0.5,0c0.2,0,0.4,0,0.5,0c0.2,0,0.3,0,0.5,0.1c0.1,0,0.2,0,0.2,0c0,0,0.1,0,0.1,0c0,0,0.1,0,0.1,0 c0.1,0,0.1,0,0.2,0.1c0.1,0,0.1,0,0.2,0.1c0.1,0,0.1,0,0.2,0.1c0,0,0.1,0,0.2,0.1c0,0,0.1,0,0.1,0c0.1,0,0.1,0,0.2,0.1 c0.2,0.1,0.3,0.1,0.3,0.1v0c0.2,0.1,0.5,0.1,0.8-0.1c0.4-0.2,0.5-0.8,0.2-1.2c0,0-0.1-0.1-0.2-0.3c0,0-0.1-0.1-0.1-0.1 c-0.1-0.1-0.1-0.1-0.2-0.2s-0.1-0.1-0.2-0.2s-0.2-0.1-0.2-0.2c-0.1-0.1-0.2-0.1-0.3-0.2c-0.1-0.1-0.2-0.1-0.3-0.2S98.9,88,98.8,88 c-0.1,0-0.2-0.1-0.4-0.1c-0.2-0.1-0.5-0.1-0.8-0.2c-0.3,0-0.5-0.1-0.8-0.1c-0.3,0-0.6,0-0.8,0.1c-0.3,0-0.5,0.1-0.8,0.2 c-0.1,0.1-0.2,0.1-0.4,0.1c-0.1,0-0.2,0.1-0.3,0.2c-0.1,0.1-0.2,0.1-0.3,0.2l-0.3,0.2c-0.1,0.1-0.2,0.1-0.2,0.2s-0.1,0.1-0.2,0.2 c-0.1,0.1-0.1,0.1-0.2,0.2s-0.1,0.1-0.1,0.2c-0.2,0.2-0.2,0.3-0.2,0.3c-0.2,0.2-0.2,0.5-0.1,0.7c0.1,0.4,0.6,0.7,1,0.5l0.1,0 c0,0,0.1,0,0.2-0.1c0,0,0.1,0,0.1-0.1l0.1-0.1C94.6,90.4,94.8,90.3,94.9,90.3z"/>
    <path d="M79.9,91.5c-1.4,0-2.5,1.2-2.5,2.6c0,1.4,1.1,2.6,2.5,2.6s2.5-1.2,2.5-2.6C82.4,92.6,81.3,91.5,79.9,91.5z"/>
    <path d="M97,91.5c-1.4,0-2.5,1.2-2.5,2.6c0,1.4,1.1,2.6,2.5,2.6s2.5-1.2,2.5-2.6C99.5,92.6,98.4,91.5,97,91.5z"/>
    <path d="M92.7,101c-1.6,1-7,1-8.6,0c-0.9-0.6-1.9,0.3-1.5,1.2c0.4,0.8,3.3,2.8,5.8,2.8c2.5,0,5.4-2,5.8-2.8 C94.6,101.3,93.7,100.5,92.7,101z"/>
  </g>
</svg>