<svg viewBox="0 0 128 128" xmlns="http://www.w3.org/2000/svg">
  <g>
    <path d="M73.09,95.04v-1.09c9.32-2.75,17.57-9.83,21.67-21.32c4.21-1.54,7.27-5.8,7.27-10.79 c0-2.32-0.66-4.47-1.79-6.28C101.1,49.77,106.55,4.25,64,4.03h-0.02c0,0-0.01,0-0.02,0C21.36,4.26,26.89,49.9,27.75,55.59 c-1.12,1.8-1.79,3.94-1.79,6.25c0,5,3.06,9.26,7.28,10.79C37.35,84.12,45.6,91.2,54.91,93.95v1.07 c-22.16,1.63-42.05,9.28-42.05,24.94v4h102.27v-4C115.13,105.17,95.33,96.8,73.09,95.04z M95.59,70.03 c0.78-2.71,1.34-5.64,1.65-8.79c0.69-1.19,1.4-2.44,1.95-3.41c0.54,1.21,0.85,2.56,0.85,4C100.04,65.36,98.24,68.42,95.59,70.03z M27.96,61.84c0-1.43,0.31-2.77,0.84-3.98c0.56,0.98,1.28,2.24,1.96,3.43c0.31,3.13,0.87,6.04,1.65,8.74 C29.76,68.42,27.96,65.36,27.96,61.84z M42.35,83.99c-5.04-5.32-8.21-12.5-9.37-21.02c-0.03,0.69-0.04,1.36-0.03,1.98 c0,0-0.01-0.01-0.01-0.01c-0.04-1.88,0.13-4.14,0.43-6.54l-2.59-3.1c-0.02-0.04-1-7.1-0.62-13.68c0.41-7.04,2.17-16.96,8.22-24.22 c5.67-6.81,14.28-10.3,25.57-10.36h0.04c11.32,0.06,19.93,3.54,25.6,10.35c10.81,12.96,7.59,37.87,7.59,37.86l-2.5,3.74 c0.32,2.5,0.4,4.03,0.36,5.96c0,0-0.01,0.01-0.01,0.01c0.01-0.58,0-1.22-0.03-1.87c-1.17,8.47-4.34,15.61-9.35,20.91 c-5.67,5.99-13.36,9.29-21.65,9.29S48.02,89.98,42.35,83.99z M64.82,106.23h-1.65c-3.45,0-6.26-2.77-6.26-6.17v-5.58 c2.33,0.53,4.71,0.79,7.09,0.79c2.38,0,4.75-0.26,7.08-0.79v5.58C71.08,103.46,68.27,106.23,64.82,106.23z" fill="#231F20"/>
    <path d="M52.52,52.94c0.91,0.37,2.02,0.54,2.56-0.53c0.49-0.96-0.2-1.83-0.85-2.5c-3.75-3.84-11.23-3.69-14.41,0.82 c-0.93,1.39,0.54,2.9,1.98,2.4c1.07-0.37,2.04-0.85,3.17-1.08C47.58,51.51,50.09,51.95,52.52,52.94z" fill="#231F20"/>
    <path d="M73.48,52.99c0.85,0.59,1.75,0.05,2.58-0.27c1.04-0.41,2.14-0.71,3.26-0.83c2.46-0.28,4.72,0.28,6.95,1.25 c1.55,0.63,2.73-1.12,1.95-2.42c-0.63-1.05-1.78-1.85-2.84-2.4c-2.67-1.39-5.96-1.5-8.72-0.31C75.38,48.55,71.04,51.3,73.48,52.99z " fill="#231F20"/>
    <ellipse cx="47.37" cy="58.81" fill="#231F20" rx="4.93" ry="5.1"/>
    <ellipse cx="80.63" cy="58.81" fill="#231F20" rx="4.93" ry="5.1"/>
    <path d="M64,72.38c2.84,0,4.25-1.99,4.55-2.69c0.29-0.71-0.06-1.37-0.7-1.63c-0.11-0.04-0.21-0.07-0.32-0.08h-7.07 c-0.11,0.01-0.22,0.04-0.32,0.08c-0.64,0.26-0.99,0.92-0.69,1.63C59.75,70.4,61.16,72.38,64,72.38z" fill="#231F20"/>
    <path d="M75.34,78.38c0.75-1.66-1.09-3.33-2.92-2.24c-3.19,1.89-13.63,1.89-16.81,0c-1.83-1.09-3.7,0.58-2.94,2.24 c0.75,1.63,6.45,5.42,11.37,5.42S74.59,80.01,75.34,78.38z" fill="#231F20"/>
  </g>
</svg>