<svg viewBox="0 0 128 128" xmlns="http://www.w3.org/2000/svg">
  <g>
    <path d="M123.8,46.3c-0.1-0.7-0.3-1-0.5-1c-1.8,0-10.8,14.6-19.1,14.6c-0.2,0-0.5,0-0.7,0c-4.6-0.5-6.5-10.2-18.5-19 c0.6-4.4,1.6-10.1,2.3-13.7c0.8-3.7-1.3-5.1-4.8-5.1c-6.6,0-18.1,5-25.4,9.6c-11.1,0.1-22.4,3.9-31.6,9.8 c-8.2,5.4-15.2,12.9-20.2,22.7c-0.9,1.7-1.8,3-0.3,4c2.8,1.9,7,2.9,10.4,3.7c-1.5,1.8-7.2,2-8.1,5.2c-0.6,2.3,12.9,20.2,38.9,23.2 c4.8,4.6,10.2,8.5,13.5,8.5c1.6,0,2.7-1,2.9-3.3c0.1-1.7,0.3-3.5,0.6-5.3c2-0.3,4.1-0.6,6.3-1.1c5.6,2.7,13.5,5.2,18.6,5.2 c3.5,0,5.6-1.2,4.5-4.4c-0.7-2.1-2.1-6.2-3.1-9.7c7.1-6.2,7.4-12.7,13.7-12.9h0.1c4.5,0,15.4,15.1,18.8,15.1c0.2,0,0.4-0.1,0.6-0.2 c1.4-1.2-2.7-9.2-2.7-21.3C120,61.2,123.2,54.4,123.8,46.3z M25,66c-3.5,0-6.3-2.8-6.3-6.4c0-3.5,2.8-6.4,6.3-6.4s6.3,2.9,6.3,6.4 S28.5,66,25,66z M41.3,66.7c0,1.4-0.2,2.8-0.3,4.2c-0.1,0.7-0.2,1.4-0.4,2c-0.1,0.7-0.3,1.3-0.5,2c-0.2,0.6-0.3,1.3-0.5,1.9 c-0.2,0.6-0.4,1.2-0.7,1.8c-0.2,0.6-0.5,1.1-0.7,1.6c-0.3,0.5-0.5,1-0.7,1.5c-0.6,0.9-1,1.8-1.6,2.4c-0.6,0.6-1,1.3-1.4,1.7 c-0.9,0.8-1.4,1.3-1.4,1.3c-0.1,0.1-0.3,0.1-0.5,0c-0.1-0.1-0.1-0.3,0-0.4c0,0,0.4-0.5,1.1-1.5c0.3-0.5,0.6-1.1,1-1.8 c0.4-0.7,0.7-1.6,1.1-2.5c0.3-0.9,0.7-1.9,1-3c0.2-0.5,0.3-1.1,0.5-1.7c0.1-0.6,0.2-1.2,0.3-1.8c0.1-0.6,0.2-1.2,0.3-1.8 c0.1-0.6,0.2-1.3,0.2-1.9c0-1.3,0.1-2.6,0.1-3.9s-0.1-2.6-0.2-3.9c0-0.6-0.2-1.3-0.3-1.9c-0.1-0.6-0.2-1.2-0.3-1.8 c-0.1-0.6-0.3-1.2-0.4-1.8c-0.1-0.6-0.3-1.1-0.5-1.6c-0.3-1.1-0.7-2-1.1-3c-0.3-0.9-0.8-1.7-1.2-2.4c-0.2-0.3-0.3-0.7-0.5-1 c-0.2-0.3-0.4-0.6-0.5-0.8c-0.7-1-1-1.6-1-1.6c-0.2-0.3-0.1-0.8,0.2-1c0.3-0.2,0.7-0.2,1,0.1c0,0,0.5,0.5,1.3,1.4 c0.2,0.2,0.4,0.5,0.7,0.7c0.2,0.3,0.5,0.6,0.7,1c0.5,0.7,1.1,1.5,1.6,2.5c0.2,0.5,0.5,1,0.8,1.5s0.5,1.1,0.7,1.6 c0.2,0.6,0.5,1.2,0.7,1.8c0.2,0.6,0.3,1.3,0.5,1.9c0.4,1.3,0.5,2.7,0.7,4C41.2,63.9,41.4,65.3,41.3,66.7z"/>
    <circle cx="25" cy="59.7" r="3.3"/>
  </g>
</svg>