<svg viewBox="0 0 128 128" xmlns="http://www.w3.org/2000/svg">
  <g>
    <path d="M66.7,122c0,0,0,0.8,0,2h43.2c0-1,0-1.7,0-1.7V122c0-7.9-8.1-11.6-13.6-12.7c3.5-1.8,6.4-4.8,8.2-9.1 c2.6-0.5,4.6-2.8,4.6-5.4c0-1.2-0.4-2.3-1.1-3.3c0.4-1,0.7-2.3,0.9-3.9c0.7-7.9-0.3-12.6-4.7-17.7c-2.3-2.4-4.5-3.5-4.8-3.5 c-2.7-1.2-6.2-2.2-10.7-2.2c-5.2,0-9.1,1.1-12.1,2.9c-0.7-0.2-1.3-0.3-2-0.4c-1.2-0.2-2.3-0.4-3.5-0.5v-3.1 c5.7-2,10.6-6.6,13.2-13.7c2.8-1,4.9-3.8,4.9-7.2c0-1.5-0.5-3-1.2-4.2c0.5-2.9,4.8-34-23.7-34c-27.4,0-24.7,28.5-24,33.9 c-0.8,1.2-1.3,2.7-1.3,4.3c0,3.3,2,6.1,4.7,7.1c2.6,7.2,7.6,11.8,13.4,13.8v3.5c-1.4,0.2-2.8,0.5-4.1,0.8c-0.3,0.1-0.7,0.2-1,0.3 c-1.2-0.8-2-1.2-2.2-1.2c-2.7-1.2-6.2-2.2-10.7-2.2c-17.4,0-20.6,12.5-20.6,20.4c0,1.1,0.1,2.2,0.2,3.1c0.2,1.6,0.5,2.9,1,3.9 c-0.6,0.9-1,2-1,3.1c0,2.5,1.8,4.7,4.2,5.4c-0.9,0.2-1.9,0.6-2.8,1.2c-4.6,3-4.3,8.2-4.3,8.2l5.4-1.4l-0.6,2.9c0,0,4,0,6.4-2.2 c0.6-0.6,1.1-1.2,1.6-1.8c0.9,0.7,1.8,1.4,2.7,1.9c-5.5,1.1-14,4.8-14,13c0,0,0,0.8,0,2.1h43.9c0-1,0-1.7,0-1.8v-0.3 c0-8.3-8.8-12-14.3-13c1-0.6,1.9-1.2,2.8-2c0.5,0.7,1,1.3,1.7,2c2.4,2.3,6.4,2.2,6.4,2.2l-0.6-2.9l5.4,1.4c0,0,0.4-5.2-4.3-8.2 c-0.9-0.6-1.9-1-2.8-1.2c2.4-0.6,3.9-2.8,3.9-5.4c0-1.2-0.3-2.2-0.9-3.1c0.4-1,0.8-2.3,0.9-3.9c0.1-1.5,0.2-2.9,0.2-4.2 c0-5.5-1.3-9.4-4.8-13.5c1-0.2,1.9-0.4,2.8-0.5c1,2.7,3.5,4.6,6.6,4.6c3.2,0,5.8-2.1,6.7-5c0.9,0.1,1.8,0.2,2.7,0.3 C68,74.9,67.6,83,68.1,87.6c0.2,1.6,0.5,2.9,1,4c-0.7,0.9-1.1,2-1.1,3.2c0,2.6,1.8,4.7,4.3,5.3c1.8,4.3,4.7,7.3,8.2,9.1 C75.1,110.3,66.7,113.9,66.7,122z M38.8,110.1c-5.9,0-13.9-4.6-16-14.6c0.1,0,0.1,0.1,0.1,0.1l0-0.1c0,0,0,0,0,0l0,0l0-1.2 l-0.1-0.3l-0.4-4.6c0,0,7.3-1.9,11-4.8c3.8-2.9,5.5-5.4,5.5-5.4s1.3,1.9,5.4,5.3c4.2,3.5,11,4.9,11,4.9l-0.5,6.1c0,0,0,0,0,0l0,0.1 c0,0,0,0,0,0C52.7,105.6,44.7,110.1,38.8,110.1z M19.5,94.8c0-0.8,0.2-1.5,0.5-2.1c0.5,0.9,1.1,1.5,1.6,2c0.3,1.6,0.7,3.1,1.2,4.4 C20.9,98.5,19.5,96.8,19.5,94.8z M42.8,110.6v1.4c0,1.8-1.5,3.3-3.3,3.3h-1c-1.8,0-3.3-1.5-3.3-3.3v-1.4c1.2,0.3,2.4,0.5,3.6,0.5 c1.2,0,2.4-0.2,3.6-0.5H42.8z M58.1,94.8c0,2.2-1.4,4-3.4,4.4c0.5-1.3,0.9-2.8,1.2-4.4c0.5-0.4,1.2-1.1,1.7-2.1 C58,93.3,58.1,94,58.1,94.8z M84.6,48.1c0.6-1.8,1-3.8,1.2-5.9l1.6-3c0.5,0.9,0.7,1.9,0.7,3.1C88.1,44.9,86.7,47.1,84.6,48.1z M39.9,42.3c0-1.1,0.3-2.1,0.7-3c0.3,0.6,0.9,1.5,1.4,2.5c0.2,2.3,0.6,4.4,1.2,6.3C41.3,47,39.9,44.8,39.9,42.3z M43.9,39.4 c0.6-4.4,1.8-9.4,2.8-12c0.7-1.8,2.6-2.9,4.5-2.5c2.9,0.5,7.6,1.2,12.8,1.2c5,0,9.5-0.6,12.5-1.1c2-0.4,4,0.9,4.6,2.9l2.9,12.9 c-0.5,6.4-2.6,11.8-6.2,15.6c-3.6,3.8-8.5,5.9-13.8,5.9c-5.3,0-10.2-2.1-13.8-5.9C46.3,52.3,44.1,46.4,43.9,39.4z M64,72.1 c-2.8,0-5-2.2-5-5v-3.4c1.6,0.4,3.3,0.6,4.9,0.6c1.7,0,3.4-0.2,5.1-0.6v3.4C69,69.9,66.8,72.1,64,72.1z M108,94.8 c0,1.9-1.3,3.6-3.1,4.2c0.5-1.4,0.9-2.9,1.1-4.6c0.4-0.4,0.9-1.1,1.4-1.9C107.8,93.2,108,94,108,94.8z M69,94.8 c0-0.8,0.2-1.5,0.6-2.2c0.4,0.7,0.8,1.3,1.2,1.7c0.2,1.7,0.6,3.2,1.1,4.6C70.2,98.2,69,96.6,69,94.8z M71.9,95.3 c0.1,0.1,0.2,0.1,0.2,0.1s-0.6-5.5,0.4-9.5c0.8-3.2,2.8-5.5,2.8-5.5s3.6,3.1,10.3,5.2c3.2,1,7.3,0.5,7.3,0.5L90.6,82 c0,0,3.8,2.8,6.1,3.3c3,0.7,5.2,0.4,5.2,0.4l-1.1-4.3c0,0,1.9,1.3,3.4,4.7s0.5,9.3,0.5,9.3s0,0,0.1,0c-0.7,3.9-2.4,7.3-4.8,9.8 c-3.1,3.2-7.2,4.9-11.7,4.9c-4.5,0-8.6-1.7-11.7-4.9C74.3,102.6,72.7,99.3,71.9,95.3z M88.4,111.1c1,0,2.1-0.1,3.1-0.3H92v0.8 c0,2-1.7,3.7-3.7,3.7c-2,0-3.7-1.7-3.7-3.7v-0.8h0.8C86.4,111,87.4,111.1,88.4,111.1z"/>
    <path d="M50.2,36.2c0.1,0,0.1,0,0.2-0.1c0.1,0,0.2-0.1,0.2-0.1c0.1,0,0.2-0.1,0.3-0.1c0.1,0,0.2,0,0.3-0.1c0.1,0,0.1,0,0.2,0l0.2,0 c0.1,0,0.2,0,0.3-0.1c0.2,0,0.4-0.1,0.7-0.1c0.2,0,0.5,0,0.7,0c0.2,0,0.5,0,0.7,0c0.2,0,0.4,0.1,0.7,0.1c0.1,0,0.2,0,0.3,0.1l0.2,0 c0,0,0.1,0,0.1,0c0.1,0,0.2,0,0.3,0.1c0.1,0,0.2,0.1,0.3,0.1c0.2,0,0.3,0.1,0.5,0.2c0.1,0,0.1,0.1,0.2,0.1c0.1,0,0.1,0,0.2,0.1 c0.2,0.1,0.3,0.1,0.3,0.1l0.2,0.1c0.3,0.1,0.7,0.1,0.9-0.1c0.5-0.3,0.6-1,0.2-1.5c0,0-0.1-0.1-0.3-0.4c0,0-0.1-0.1-0.2-0.2 c-0.1-0.1-0.1-0.1-0.2-0.2c-0.1-0.1-0.2-0.2-0.3-0.2c-0.1-0.1-0.2-0.2-0.3-0.2c-0.1-0.1-0.2-0.2-0.4-0.2c-0.1-0.1-0.3-0.1-0.4-0.2 c-0.1-0.1-0.3-0.1-0.4-0.2c-0.1-0.1-0.3-0.1-0.5-0.2c-0.3-0.1-0.7-0.2-1-0.2c-0.3-0.1-0.7-0.1-1.1-0.1c-0.4,0-0.7,0-1.1,0.1 c-0.3,0-0.7,0.2-1,0.2c-0.2,0.1-0.3,0.1-0.5,0.2c-0.2,0.1-0.3,0.1-0.4,0.2c-0.1,0.1-0.3,0.1-0.4,0.2c-0.1,0.1-0.2,0.2-0.3,0.2 c-0.1,0.1-0.2,0.2-0.3,0.2c-0.1,0.1-0.2,0.2-0.3,0.2c-0.1,0.1-0.2,0.1-0.2,0.2c-0.1,0.1-0.1,0.1-0.1,0.2c-0.2,0.2-0.2,0.3-0.2,0.3 c-0.2,0.3-0.2,0.7-0.1,1c0.2,0.6,0.9,0.8,1.4,0.6c0,0,0.1-0.1,0.4-0.2c0.1,0,0.1-0.1,0.2-0.1L50.2,36.2z"/>
    <path d="M71.1,36.5l0.2-0.1c0,0,0.1,0,0.3-0.1c0,0,0.1-0.1,0.2-0.1c0.1,0,0.1,0,0.2-0.1c0.1,0,0.3-0.1,0.5-0.2 c0.1,0,0.2-0.1,0.3-0.1c0.1,0,0.2,0,0.3-0.1c0,0,0.1,0,0.2,0l0.1,0c0.1,0,0.2,0,0.3-0.1c0.2,0,0.4-0.1,0.7-0.1c0.2,0,0.5,0,0.7,0 c0.2,0,0.5,0,0.7,0c0.2,0,0.4,0.1,0.7,0.1c0.1,0,0.2,0,0.3,0.1l0.1,0c0,0,0.1,0,0.2,0c0.1,0,0.2,0,0.3,0.1c0.1,0,0.2,0.1,0.3,0.1 c0.1,0,0.2,0.1,0.2,0.1c0.1,0,0.1,0,0.2,0.1s0.1,0,0.2,0.1c0.1,0,0.1,0.1,0.2,0.1c0.2,0.1,0.4,0.2,0.4,0.2c0.3,0.1,0.7,0.1,1-0.2 c0.5-0.3,0.6-1,0.3-1.5c0,0-0.1-0.1-0.2-0.3c0,0-0.1-0.1-0.1-0.2c-0.1-0.1-0.2-0.1-0.2-0.2c-0.1-0.1-0.2-0.2-0.3-0.2 c-0.1-0.1-0.2-0.1-0.3-0.2c-0.1-0.1-0.2-0.2-0.3-0.2c-0.1-0.1-0.3-0.1-0.4-0.2c-0.1-0.1-0.3-0.1-0.4-0.2c-0.2-0.1-0.3-0.1-0.5-0.2 c-0.3-0.1-0.7-0.2-1-0.2c-0.4-0.1-0.7-0.1-1.1-0.1c-0.4,0-0.7,0-1.1,0.1c-0.3,0-0.7,0.1-1,0.2c-0.2,0.1-0.3,0.1-0.5,0.2 c-0.2,0.1-0.3,0.1-0.4,0.2c-0.1,0.1-0.3,0.1-0.4,0.2c-0.1,0.1-0.2,0.1-0.4,0.2c-0.1,0.1-0.2,0.2-0.3,0.2c-0.1,0.1-0.2,0.2-0.3,0.2 c-0.1,0.1-0.2,0.1-0.2,0.2c-0.1,0.1-0.1,0.1-0.2,0.2c-0.2,0.2-0.3,0.4-0.3,0.4c-0.2,0.3-0.2,0.6-0.1,1 C69.9,36.4,70.5,36.7,71.1,36.5z"/>
    <ellipse cx="53.2" cy="40.9" rx="3.2" ry="3.4"/>
    <ellipse cx="74.8" cy="40.9" rx="3.2" ry="3.4"/>
    <path d="M71.3,54.4c0.5-1.1-0.7-2.2-1.9-1.5c-2.1,1.2-9,1.2-11.1,0c-1.2-0.7-2.4,0.4-1.9,1.5c0.5,1.1,4.2,3.6,7.5,3.6 S70.8,55.5,71.3,54.4z"/>
    <path d="M63.5,49.7c1.9,0,2.8-1.3,3-1.8c0.2-0.5,0-0.9-0.5-1.1c-0.1,0-0.1,0-0.2,0h-4.7c-0.1,0-0.1,0-0.2,0 c-0.4,0.2-0.7,0.6-0.5,1.1C60.8,48.4,61.7,49.7,63.5,49.7z"/>
    <path d="M88.4,98.9c1.5,0,2.2-1,2.3-1.4c0.1-0.4,0-0.7-0.4-0.8c0,0-0.1,0-0.2,0h-3.6c-0.1,0-0.1,0-0.2,0c-0.3,0.1-0.5,0.5-0.3,0.8 C86.3,97.9,87,98.9,88.4,98.9z"/>
    <path d="M77.7,90.4c0.1,0,0.1,0,0.1,0c0,0,0.1,0,0.2,0c0.1,0,0.1,0,0.2-0.1c0.1,0,0.1-0.1,0.2-0.1c0.1,0,0.1,0,0.2-0.1 c0,0,0.1,0,0.1,0c0,0,0.1,0,0.1,0c0.1,0,0.2,0,0.2-0.1c0.2,0,0.3,0,0.5-0.1c0.2,0,0.4,0,0.5,0c0.2,0,0.4,0,0.5,0 c0.2,0,0.3,0,0.5,0.1c0.1,0,0.2,0,0.2,0.1c0,0,0.1,0,0.1,0c0,0,0.1,0,0.1,0c0.1,0,0.1,0,0.2,0.1c0.1,0,0.1,0,0.2,0.1 c0.1,0,0.2,0.1,0.4,0.1l0.2,0.1c0,0,0.1,0,0.1,0.1c0.1,0.1,0.2,0.1,0.2,0.1l0.1,0c0.2,0.1,0.5,0,0.7-0.1c0.4-0.3,0.4-0.8,0.2-1.1 c0,0-0.1-0.1-0.2-0.3c0,0-0.1-0.1-0.1-0.2s-0.1-0.1-0.2-0.2s-0.1-0.1-0.2-0.2c-0.1-0.1-0.2-0.1-0.2-0.2c-0.1-0.1-0.2-0.1-0.3-0.2 c-0.1-0.1-0.2-0.1-0.3-0.2S82.2,88,82.1,88c-0.1,0-0.2-0.1-0.4-0.1c-0.2-0.1-0.5-0.2-0.8-0.2c-0.3,0-0.6-0.1-0.8-0.1 c-0.3,0-0.6,0-0.8,0.1c-0.3,0-0.5,0.1-0.8,0.2c-0.1,0-0.2,0.1-0.4,0.1c-0.1,0-0.2,0.1-0.3,0.2s-0.2,0.1-0.3,0.2l-0.3,0.2 c-0.1,0.1-0.2,0.1-0.2,0.2c-0.1,0.1-0.1,0.1-0.2,0.2S76.6,89,76.5,89c0,0-0.1,0.1-0.1,0.1c-0.1,0.2-0.2,0.3-0.2,0.3l0,0 c-0.1,0.2-0.2,0.5,0,0.8c0.2,0.4,0.7,0.6,1.1,0.5c0,0,0.1,0,0.3-0.1C77.6,90.5,77.6,90.5,77.7,90.4z"/>
    <path d="M93.9,90.7l0.1,0c0,0,0.1,0,0.2-0.1c0,0,0.1,0,0.1-0.1l0.1-0.1c0.1,0,0.2-0.1,0.4-0.1c0.1,0,0.1,0,0.2-0.1 c0.1,0,0.1,0,0.2-0.1c0,0,0.1,0,0.1,0c0,0,0.1,0,0.1,0c0.1,0,0.2,0,0.2,0c0.2,0,0.3,0,0.5-0.1c0.2,0,0.4,0,0.5,0c0.2,0,0.4,0,0.5,0 c0.2,0,0.3,0,0.5,0.1c0.1,0,0.2,0,0.2,0c0,0,0.1,0,0.1,0c0,0,0.1,0,0.1,0c0.1,0,0.1,0,0.2,0.1c0.1,0,0.1,0,0.2,0.1 c0.1,0,0.1,0,0.2,0.1c0,0,0.1,0,0.2,0.1c0,0,0.1,0,0.1,0c0.1,0,0.1,0,0.2,0.1c0.2,0.1,0.3,0.1,0.3,0.1v0c0.2,0.1,0.5,0.1,0.8-0.1 c0.4-0.2,0.5-0.8,0.2-1.2c0,0-0.1-0.1-0.2-0.3c0,0-0.1-0.1-0.1-0.1c-0.1-0.1-0.1-0.1-0.2-0.2s-0.1-0.1-0.2-0.2s-0.2-0.1-0.2-0.2 c-0.1-0.1-0.2-0.1-0.3-0.2c-0.1-0.1-0.2-0.1-0.3-0.2S98.9,88,98.8,88c-0.1,0-0.2-0.1-0.4-0.1c-0.2-0.1-0.5-0.1-0.8-0.2 c-0.3,0-0.5-0.1-0.8-0.1c-0.3,0-0.6,0-0.8,0.1c-0.3,0-0.5,0.1-0.8,0.2c-0.1,0.1-0.2,0.1-0.4,0.1c-0.1,0-0.2,0.1-0.3,0.2 c-0.1,0.1-0.2,0.1-0.3,0.2l-0.3,0.2c-0.1,0.1-0.2,0.1-0.2,0.2s-0.1,0.1-0.2,0.2c-0.1,0.1-0.1,0.1-0.2,0.2s-0.1,0.1-0.1,0.2 c-0.2,0.2-0.2,0.3-0.2,0.3c-0.2,0.2-0.2,0.5-0.1,0.7C93,90.6,93.4,90.8,93.9,90.7z"/>
    <path d="M79.9,91.5c-1.4,0-2.5,1.2-2.5,2.6c0,1.4,1.1,2.6,2.5,2.6s2.5-1.2,2.5-2.6C82.4,92.6,81.3,91.5,79.9,91.5z"/>
    <path d="M97,91.5c-1.4,0-2.5,1.2-2.5,2.6c0,1.4,1.1,2.6,2.5,2.6s2.5-1.2,2.5-2.6C99.5,92.6,98.4,91.5,97,91.5z"/>
    <path d="M94.2,102c0.4-0.9-0.5-1.7-1.5-1.1c-1.6,1-7,1-8.6,0c-0.9-0.6-1.9,0.3-1.5,1.1c0.4,0.8,3.3,2.8,5.8,2.8 C91,104.8,93.8,102.9,94.2,102z"/>
    <path d="M38.8,98.9c1.5,0,2.2-1,2.3-1.4c0.2-0.4,0-0.7-0.4-0.8c0,0-0.1,0-0.2,0H37c-0.1,0-0.1,0-0.2,0c-0.3,0.1-0.5,0.5-0.3,0.8 C36.6,97.9,37.4,98.9,38.8,98.9z"/>
    <path d="M28.1,90.4c0,0,0.1,0,0.1,0c0,0,0.1,0,0.1,0c0.1,0,0.1,0,0.2-0.1c0.1,0,0.1-0.1,0.2-0.1c0.1,0,0.1,0,0.2-0.1 c0,0,0.1,0,0.1,0s0.1,0,0.1,0c0.1,0,0.2,0,0.2-0.1c0.2,0,0.3,0,0.5-0.1c0.2,0,0.3,0,0.5,0c0.2,0,0.4,0,0.5,0c0.2,0,0.3,0,0.5,0.1 c0.1,0,0.2,0,0.2,0.1c0,0,0.1,0,0.1,0c0,0,0.1,0,0.1,0c0.1,0,0.2,0,0.2,0.1c0.1,0,0.1,0,0.2,0.1c0.1,0,0.2,0.1,0.4,0.1l0.2,0.1 c0,0,0.1,0,0.1,0.1c0.1,0.1,0.2,0.1,0.2,0.1l0.1,0c0.2,0.1,0.5,0,0.7-0.1c0.4-0.3,0.4-0.8,0.2-1.1c0,0-0.1-0.1-0.2-0.3 c0,0-0.1-0.1-0.1-0.2c0,0-0.1-0.1-0.2-0.2s-0.1-0.1-0.2-0.2c-0.1-0.1-0.1-0.1-0.2-0.2c-0.1-0.1-0.2-0.1-0.3-0.2 c-0.1-0.1-0.2-0.1-0.3-0.2c-0.1-0.1-0.2-0.1-0.3-0.2c-0.1,0-0.2-0.1-0.4-0.1c-0.2-0.1-0.5-0.2-0.8-0.2c-0.3,0-0.6-0.1-0.8-0.1 c-0.3,0-0.6,0-0.8,0.1c-0.3,0-0.5,0.1-0.8,0.2c-0.1,0-0.2,0.1-0.4,0.1c-0.1,0-0.2,0.1-0.3,0.2s-0.2,0.1-0.3,0.2l-0.3,0.2 c-0.1,0.1-0.2,0.1-0.2,0.2c-0.1,0.1-0.1,0.1-0.2,0.2S27,89,26.9,89c0,0-0.1,0.1-0.1,0.1c-0.1,0.2-0.2,0.3-0.2,0.3v0 c-0.2,0.2-0.2,0.5,0,0.8c0.2,0.4,0.7,0.6,1.1,0.5c0,0,0.1,0,0.3-0.1C28,90.5,28,90.5,28.1,90.4z"/>
    <path d="M50.9,89.1c0,0-0.1-0.1-0.1-0.1c-0.1-0.1-0.1-0.1-0.2-0.2s-0.1-0.1-0.2-0.2c-0.1-0.1-0.2-0.1-0.2-0.2 c-0.1-0.1-0.2-0.1-0.3-0.2c-0.1-0.1-0.2-0.1-0.3-0.2S49.3,88,49.2,88c-0.1,0-0.2-0.1-0.4-0.1c-0.2-0.1-0.5-0.1-0.8-0.2 c-0.3,0-0.6-0.1-0.8-0.1c-0.3,0-0.6,0-0.8,0.1c-0.3,0-0.5,0.1-0.8,0.2c-0.1,0.1-0.2,0.1-0.4,0.1c-0.1,0-0.2,0.1-0.3,0.2 s-0.2,0.1-0.3,0.2l-0.3,0.2c-0.1,0.1-0.2,0.1-0.2,0.2s-0.1,0.1-0.2,0.2c-0.1,0.1-0.1,0.1-0.2,0.2s-0.1,0.1-0.1,0.2 c-0.2,0.2-0.2,0.3-0.2,0.3c-0.2,0.2-0.2,0.5-0.1,0.7c0.1,0.4,0.6,0.7,1,0.5l0.1,0c0,0,0.1,0,0.2-0.1c0,0,0.1,0,0.1-0.1l0.2-0.1 c0.1,0,0.2-0.1,0.4-0.1c0.1,0,0.1,0,0.2-0.1c0.1,0,0.1,0,0.2-0.1c0,0,0.1,0,0.1,0c0,0,0.1,0,0.1,0c0.1,0,0.2,0,0.2,0 c0.2,0,0.3,0,0.5-0.1c0.2,0,0.4,0,0.5,0c0.2,0,0.4,0,0.5,0c0.2,0,0.3,0,0.5,0.1c0.1,0,0.2,0,0.2,0c0,0,0.1,0,0.1,0c0,0,0.1,0,0.1,0 c0.1,0,0.1,0,0.2,0.1c0.1,0,0.1,0,0.2,0.1c0.1,0,0.1,0,0.2,0.1c0,0,0.1,0,0.2,0.1c0,0,0.1,0,0.1,0c0.1,0,0.1,0,0.2,0.1 c0.2,0.1,0.3,0.1,0.3,0.1l0,0c0.2,0.1,0.5,0.1,0.8-0.1c0.4-0.2,0.5-0.8,0.2-1.2C51.1,89.4,51,89.3,50.9,89.1z"/>
    <path d="M30.3,91.5c-1.4,0-2.5,1.2-2.5,2.6c0,1.4,1.1,2.6,2.5,2.6s2.5-1.2,2.5-2.6C32.8,92.6,31.7,91.5,30.3,91.5z"/>
    <path d="M47.4,91.5c-1.4,0-2.5,1.2-2.5,2.6c0,1.4,1.1,2.6,2.5,2.6s2.5-1.2,2.5-2.6C49.9,92.6,48.8,91.5,47.4,91.5z"/>
    <path d="M43.1,101c-1.6,1-7,1-8.6,0c-0.9-0.6-1.9,0.3-1.5,1.2c0.4,0.8,3.3,2.8,5.8,2.8c2.5,0,5.4-2,5.8-2.8 C45,101.3,44.1,100.5,43.1,101z"/>
  </g>
</svg>