<svg viewBox="0 0 128 128" xmlns="http://www.w3.org/2000/svg">
  <g>
    <path d="M4,69.7c0.3,0.7,1.7,2.7,4.5,2.7c2.8,0,4.2-2,4.5-2.7c0.3-0.7,0-1.3-0.7-1.6C12.2,68,12.1,68,12,68H5c-0.1,0-0.2,0-0.3,0.1 c-0.3,0.1-0.6,0.4-0.7,0.7c-0.1,0.2-0.1,0.5,0,0.8C4,69.6,4,69.6,4,69.7z"/>
    <ellipse cx="24.8" cy="58.9" rx="4.9" ry="5"/>
    <path d="M32,51.4c0.3-0.4,0.4-1,0-1.5c-0.9-1.2-3.1-3-7.2-3c-4.2,0-6.3,1.8-7.2,3c-0.4,0.5-0.3,1.2,0,1.5c0.3,0.3,1,0.7,1.9,0.4 c0.9-0.3,2.5-1.2,5.3-1.2c2.8,0,4.5,0.9,5.4,1.2C31,52,31.8,51.7,32,51.4z"/>
    <path d="M4,77.2v5.6c1.5,0.5,3.1,0.9,4.6,0.9c4.9,0,10.4-3.8,11.2-5.4c0.8-1.6-1.1-3.3-2.9-2.2C14.5,77.5,8.4,77.9,4,77.2z"/>
    <path d="M108.9,53l0.3,0.1c0.5,0.2,1,0.1,1.4-0.2c0.7-0.5,0.9-1.5,0.4-2.2c0,0-0.2-0.2-0.5-0.6c-0.1-0.1-0.2-0.2-0.3-0.3 c-0.1-0.1-0.2-0.2-0.3-0.3c-0.1-0.1-0.3-0.2-0.4-0.3c-0.1-0.1-0.3-0.2-0.5-0.3c-0.2-0.1-0.3-0.2-0.5-0.3c-0.2-0.1-0.4-0.2-0.6-0.3 c-0.2-0.1-0.4-0.2-0.7-0.3c-0.2-0.1-0.5-0.2-0.7-0.3c-0.5-0.1-1-0.3-1.5-0.4c-0.5-0.1-1.1-0.1-1.6-0.1c-0.6,0-1.1,0-1.6,0.1 c-0.5,0.1-1.1,0.2-1.5,0.4c-0.2,0.1-0.5,0.2-0.7,0.3c-0.2,0.1-0.5,0.2-0.7,0.3c-0.2,0.1-0.4,0.2-0.6,0.3c-0.2,0.1-0.4,0.2-0.5,0.3 c-0.2,0.1-0.3,0.2-0.5,0.4c-0.2,0.1-0.3,0.3-0.4,0.4s-0.3,0.2-0.4,0.3c-0.1,0.1-0.2,0.2-0.2,0.3c-0.2,0.3-0.4,0.5-0.4,0.5 c-0.3,0.4-0.4,1-0.1,1.5c0.3,0.8,1.3,1.2,2.1,0.9c0,0,0.2-0.1,0.6-0.3c0.1,0,0.2-0.1,0.3-0.1c0.1,0,0.2-0.1,0.3-0.1 c0.1,0,0.2-0.1,0.3-0.1c0.1,0,0.2-0.1,0.4-0.1c0.1,0,0.3-0.1,0.4-0.1c0.1,0,0.3-0.1,0.4-0.1c0.1,0,0.1,0,0.2-0.1c0.1,0,0.2,0,0.2,0 c0.2,0,0.3-0.1,0.5-0.1c0.3,0,0.7-0.1,1-0.1c0.3,0,0.7,0,1,0c0.3,0,0.7,0,1,0c0.3,0,0.7,0.1,1,0.1c0.2,0,0.3,0.1,0.5,0.1 c0.1,0,0.2,0,0.2,0c0.1,0,0.1,0,0.2,0.1c0.2,0,0.3,0.1,0.4,0.1c0.1,0,0.3,0.1,0.4,0.1c0.3,0.1,0.5,0.2,0.7,0.2 c0.1,0,0.2,0.1,0.3,0.1c0.1,0,0.2,0.1,0.2,0.1C108.7,53,108.9,53,108.9,53z"/>
    <ellipse cx="103.4" cy="58.8" rx="4.9" ry="5.1"/>
    <path d="M123.4,68h-7.1c-0.1,0-0.2,0-0.3,0.1c-0.6,0.3-1,0.9-0.7,1.6c0.3,0.7,1.7,2.7,4.5,2.7c2.1,0,3.5-1.1,4.1-2v-2.2 c-0.1-0.1-0.2-0.1-0.3-0.1C123.6,68,123.5,68,123.4,68z"/>
    <path d="M111.5,76.1c-1.8-1.1-3.7,0.6-2.9,2.2c0.8,1.6,6.5,5.4,11.4,5.4c1.3,0,2.7-0.3,4.1-0.7v-5.8 C119.6,77.8,113.7,77.5,111.5,76.1z"/>
    <path d="M119.9,4L119.9,4C119.9,4,119.8,4,119.9,4c-9.7,0.1-16.9,2.5-22.2,6.2C94,6.2,89.1,4,83.7,4h-0.1c-0.3,0-0.6,0-0.9,0 c-3.1,0-6.1,0.7-8.9,1.9c-3,1.3-5.1,3.2-7.8,4.9c-0.5,0.3-1.1,0.5-1.7,0.5s-1.2-0.2-1.7-0.5c-2.7-1.7-4.8-3.6-7.8-4.9 c-2.8-1.2-5.8-1.9-8.9-1.9c-0.3,0-0.6,0-0.9,0h-0.1c-5.1,0-9.7,1.9-13.3,5.4C26,6.2,18.7,4.1,9.1,4.1C7.3,4.1,5.6,4.2,4,4.3v34.2 c9.7-4.8,15-9.8,15-9.8c3.3,7.2,13.6,14.2,17.3,16.9c3,2.2,2.6,11.2,2.5,15l-0.5,6.8c-3.6,14-13.7,22.3-22.5,25.5 c-2.5,0.9-5,1.4-7.2,1.4c-1.4,0-2.9-0.2-4.5-0.6v2c1.6,0.4,3.1,0.6,4.5,0.6c2.2,0,4.6-0.4,7.1-1.2v5c0,3.4-2.8,6.2-6.3,6.2H7.7 c-1.4,0-2.7-0.5-3.7-1.2v19h56.5v-3c0-8.8-7.1-15.2-17.6-19.3c3.4-12.3,4.9-28.5,5.4-43.6c5.2,5.3,10.1,10.2,13,13.1 c0.8,0.8,1.8,1.2,2.8,1.2s2-0.4,2.8-1.2c3.5-3.6,10.1-10.1,16.5-16.7c0.1,0.4,0.1,0.7,0.1,1c-1.1,1.8-1.8,4-1.8,6.3 c0,4.8,2.9,9,6.9,10.6c4,12.2,12.4,19.6,22.1,22.5v1.4c-22.3,1.6-42.9,9.1-42.9,24.7v3H124v-18.7c-1,0.6-2.1,0.9-3.3,0.9H119 c-3.4,0-6.3-2.8-6.3-6.2v-4.6c2.3,0.5,4.7,0.8,7.1,0.8c1.4,0,2.8-0.1,4.1-0.3v-2c-1.4,0.2-2.7,0.3-4.1,0.3c-8.3,0-16-3.3-21.6-9.3 c-5.1-5.4-8.3-12.6-9.4-21.2c0.1-5.1,1.4-12.3,2.9-18c2.9-3.2,5.3-6,6.6-8.1c0.5-0.7,0.9-1.4,1.3-2.1c0.2,0,0.5,0,0.7,0.1 c4.4,0.8,11.5,1.8,19.4,1.8h0.1h0.1c1.4,0,2.7,0,4.1-0.1V4.2C122.7,4.1,121.3,4,119.9,4z M83.8,61.8c0-1.4,0.3-2.8,0.8-4 c0.5,0.9,1.2,2.1,1.9,3.3c0.2,3.1,0.7,6,1.4,8.7C85.5,68.1,83.8,65.2,83.8,61.8z M69.2,64.8c-1.7,1.7-3.2,3.2-4.3,4.3 c-0.2,0.2-0.5,0.3-0.7,0.3s-0.4-0.1-0.7-0.3c-1.2-1.2-2.6-2.7-4.3-4.4C50.8,56.3,36.8,42.3,32.5,36c-1.9-2.9-3.1-5.6-3.5-8.4 c-0.5-3-0.5-7.4,0.7-10.1C32.5,10.8,38,7,44.8,7h0.1c0.2,0,0.3,0,0.5,0c0.1,0,0.3,0,0.4,0c2.6,0,5.2,0.6,7.8,1.7 c1.7,0.7,3.1,1.7,4.7,2.8c0.8,0.6,1.7,1.2,2.6,1.8c1,0.6,2.1,1,3.4,1c1.2,0,2.4-0.3,3.3-1c0.9-0.6,1.8-1.2,2.6-1.8 c1.6-1.2,3-2.1,4.7-2.9c2.6-1.1,5.2-1.7,7.8-1.7c0.1,0,0.3,0,0.4,0c0.2,0,0.3,0,0.5,0h0.1c6.7,0,12.2,3.8,15.1,10.5 c1.2,2.7,1.2,7.2,0.7,10.1c-0.5,2.8-1.6,5.5-3.5,8.4C91.6,42.3,77.6,56.3,69.2,64.8z"/>
  </g>
</svg>