<svg viewBox="0 0 128 128" xmlns="http://www.w3.org/2000/svg">
  <path d="M89.71,68.54c-4.24-9.47-8.37-16.45-10.35-19.64c0.13-0.17,0.2-0.39,0.16-0.61c-0.1-0.27-0.32-4.65-0.7-4.68 c0.57-4.26,1.77-10.46,2.43-16.58c0.89-8.56,1.2-17,1.29-20.23c0.02-0.81-0.51-1.53-1.28-1.75L77.8,4.07 c-1.02-0.29-2.05,0.37-2.22,1.42l-1.71,10.55c0,0-0.08,0.01-0.24,0.05c-4.23,0.75-7.69,2.75-10.82,5.5 c-0.01,0.01-0.14,0.09-0.3,0.09c-2.38-1.75-4.58-3.54-7.46-4.53c-0.61-0.23-2.83-1.1-3.74-1.05c-0.19-0.04-0.29-0.06-0.29-0.06 L49.3,5.48c-0.17-1.04-1.21-1.7-2.22-1.42l-3.46,0.98c-0.78,0.22-1.31,0.94-1.28,1.75c0.09,3.23,0.4,11.68,1.33,20.24 c0.66,6.04,1.83,12.17,2.41,16.43c-0.21,0.11-0.37,0.31-0.41,0.57c0.02,0.16-0.79,4.73-0.52,4.69c-1.96,3.78-4.86,9.26-8.81,16.53 c-5.59,10.3-18.23,43.45-18.23,43.45s0.74,4.38,11.5,6.35c6.13,1.12,8.59,0.47,12.93,2.3c6.75,3.11,10.01,6.7,20.18,6.66 c9.36,0.14,12.18-2.94,19.97-6.16c2.18-0.73,4.38-1.11,4.94-1.19c16.36-0.21,24.98-6.73,26.25-15.2 C113.87,101.46,102.35,96.77,89.71,68.54z"/>
</svg>