<svg viewBox="0 0 128 128" xmlns="http://www.w3.org/2000/svg">
  <g>
    <path d="M49.4,21.4c3.5,0.4,3.9,3.8,3.9,3.8s-6.1-4-6.9,0c-0.8,4.1,6.2,3.2,7.7,7c0.9,2.3,1.2,14.2,3.8,14.1 c2.7-0.1,1.5-13.5,3.4-15.1c1.8-1.6,7.7-3.4,6.6-6.1c-1.7-4.1-6.7,0.2-6.7,0.2s-0.4-3,3.1-4c3.5-1,7.4-1.1,7.6-4.7 c0.2-4.1-3.7-4.9-7-3.9c-4.4,1.3-7.6,6.2-7.6,6.2s-3.8-7.3-9.8-7.3c-5,0-5.5,3.7-5.1,5.4C43.1,19.8,46.2,21.1,49.4,21.4z"/>
    <ellipse cx="76.7" cy="11.8" rx="2.2" ry="2.2"/>
    <ellipse cx="76.6" cy="21.6" rx="1.5" ry="1.5"/>
    <ellipse cx="35.8" cy="11.6" rx="2.5" ry="2.6"/>
    <path d="M33.9,22c1.1,0,1.9-0.9,1.9-2c0-1.1-0.9-2-1.9-2S32,19,32,20C32,21.1,32.9,22,33.9,22z"/>
    <path d="M37.3,30.8c0.5,0.9,1.7,1.1,2.6,0.5c0.9-0.6,1.1-1.7,0.6-2.6s-1.7-1.1-2.6-0.5C37.1,28.8,36.8,30,37.3,30.8z"/>
    <path d="M115,40.6c0.4-2,3.4-7.5,4.7-11.6c2.2-6.8,2.5-9.8,1.5-10c-1.1-0.2-5.1,3.2-9.3,5.9c-3.5,2.2-4.8,8.3-4.8,8.3 s-5.7-3.5-11-1.3c-6.2,2.7-9.4,3.2-9.6,4.2c-0.1,1,6.3,3.2,10.8,4.5c4.7,1.3,9.8,2.4,9.8,2.4s4.5,11.8-3,15.2c-7.5,3.4-13-1-20-4.5 c-7-3.5-13.6-7.9-19-7.2c-5,0.6-7.7,3-7.7,3s-3.1-2.1-6.6-2c-3.5,0.1-7.9,2.8-7.9,2.8s-6,0.3-10.7,0.1s-15.6-1.4-21.3,1.1 c-3,1.4-4.8,3.4-5.7,5.6c0,0-0.1,0-0.1,0s-0.8,1.6-0.7,3.6c0,1.1,0.3,2.3,0.6,3.4c0,0,0,0,0,0c0,0,0,0,0,0c0.1,0.5,0.3,1,0.5,1.5 c0,0,0,0,0,0c0.6,1.6,1.7,3.6,3.8,5.9c0,0-0.1,0-0.1,0s3.9,4.7,7.4,8c4.3,4.1,13.8,10,18.4,12.9c8.1,4.9,14.9,6.4,14.9,6.4 s-1,9.7,3.8,14.4c1.7,1.7,3.5,2.3,5,2.3c1.7,0,2.9-0.7,3.2-1.2c0,0,0,0-0.1,0c0.9-1.6,0-5.3-0.1-8.3c-0.1-1.8,0-3.7,0.1-5.3 c0.3,0,0.7,0.1,1,0.1c4.5,0.5,11.8,0.5,11.8,0.5s6,7.3,8.5,9.1c2,1.4,4,1.9,5.7,1.9c3.2,0,5.5-1.7,5.5-1.7s0,0-0.1,0 c2.1-1.7-2.8-11.1-2.9-11.2c0,0,11.7-3.4,17.2-8.1c5.5-4.6,9-10.5,9-10.5s-0.1,0.1-0.2,0.2c2.5-3.6,4.2-8.2,4.9-14.1 C124,53.1,115.7,42.6,115,40.6z M61.8,67.1c1.9-0.3,3.7,0.9,4,2.8c0.3,1.8-1,3.5-3,3.8s-3.7-0.9-4-2.8 C58.6,69.1,59.9,67.4,61.8,67.1z M18,64.2c7.9,2.8,17.1,6,24.7,7.1c12.8,1.8,17.7,1.6,18.2,3.5c0.7,2.8-16.1,2.7-30.1,0.1 c-9.5-1.7-17.4-4.8-21.6-6.7c-1.3-1.8-1.8-3.2-2.1-4.5l0,0l0,0c-0.3-1.2-0.5-2.2-0.5-2.9c0-0.7,0.1-1.3,0.2-1.8L7,58.6 C9,60,12.9,62.4,18,64.2z M32.8,88.7c3,1.3,5.5,1.8,6.9,2.6c1.3,0.8,2.1,1.9,3.1,2.9c-2-0.9-4.3-2-6.6-3.5 C35,90.1,33.9,89.4,32.8,88.7z M84.6,108.8c-1.9-1.3-6.5-6.7-8.1-8.7l-0.6-0.7l-15.3,1.1c-3.3-0.5-6.3-1.1-6.3-1.1s-0.3,4.6,0.1,7 c0.3,2.1,1.6,5.7,4.5,7.2c-0.9,0-2.1-0.4-3.5-1.7c-4.1-4-3.2-12.7-3.2-12.8l0.1-0.5c3.5,0.3,6.6-0.4,9.3-0.5 c3.8-0.1,10.1,1.6,10.3,0.6c0.3-1.3-6-2.7-10.6-2.8c-3.1-0.1-6.7,1.4-11.8,0.1c-5.1-1.3-5.1-4.6-9.1-6.7c-3.2-1.7-6.6-2.5-9.4-3.8 c-2.7-1.2-4.9-4.4-5.9-4.2c-0.4,0.1-0.1,1.5,1.4,3.1c-3.5-2.4-6.2-4.4-8-6L15,74.8c4.2,2.1,10.3,4.7,16.2,5.8 c10.7,2,20.4,3.1,26.2,3.4c5.8,0.3,11.4,0.1,11.4,0.1s7.2,11,9,14.1c1.8,3.1,5.4,9.7,9.3,11.3c0.9,0.4,1.9,0.6,2.7,0.8 c-0.2,0-0.5,0-0.7,0C87.5,110.3,86,109.8,84.6,108.8z M107.5,89.8c-5.1,4.3-16.3,7.6-16.4,7.7l-0.4,0.1c-1.2-2.2-3.3-5.9-5-7.8 c-2.5-2.8-7-4.9-7-4.9s13,1.4,21.4,1.5c6,0.1,10.3-1.2,13.2-2.6C111.8,85.7,109.8,87.9,107.5,89.8z"/>
    <path d="M54.3,88.8c3,0.4,7.6-0.1,7.5-1.5c0-0.8-4.1,0.3-7.2-0.5c-3.9-1-6.5-3.6-6.6-2C48,85.7,50.5,88.3,54.3,88.8z"/>
    <path d="M60.2,91c-2.3-0.1-6.8,1.7-9.6,0.8c-2.9-0.9-3.5-4.2-6.3-5.4c-2.9-1.2-5.3-1.1-6.6-1.6c-1.3-0.5-4-2.7-4.5-1.8 c-0.5,0.9,2.8,3.2,4.9,3.7s4,1.1,5.5,2c1.5,0.9,3.1,4.7,6.5,5.7c3.5,1.1,6.5-1.3,10.3-1.2c3.7,0.1,6,0.1,5.6-0.5S62.5,91.2,60.2,91 z"/>
  </g>
</svg>