<svg viewBox="0 0 128 128" xmlns="http://www.w3.org/2000/svg">
  <path d="M124,67.5L119.4,20c0-2.8-2.8-4.8-5.5-3.8l-8,3.1c-4.1,1.6-6.8,1.3-9.5-2.2l-5-5.4c-1.6-2-5.3-5.5-8.3-7 c-0.1,0-0.2-0.1-0.2-0.1c-0.2-0.1-0.3-0.2-0.5-0.2c-0.1,0-0.2-0.1-0.3-0.1c-0.1-0.1-0.3-0.1-0.4-0.1h-0.1c0,0-0.1,0-0.3-0.1h-0.1 c0,0,0,0-0.1,0c0,0-0.1,0-0.2,0c-0.1,0-0.1,0-0.2,0C80,4,79.5,4,79,4.1h-0.1c-0.1,0-0.1,0-0.2,0s-0.2,0-0.3,0c0,0-0.1,0-0.1,0 c-0.1,0-0.2,0-0.3,0h-0.1c-0.1,0-0.2,0-0.3,0.1c-0.1,0-0.1,0-0.2,0c-0.1,0-0.2,0-0.3,0.1h0c0,0,0,0-0.1,0c-0.1,0-0.2,0-0.2,0.1 c-0.1,0-0.3,0.1-0.4,0.1c-0.1,0-0.2,0.1-0.3,0.1c-0.1,0-0.2,0.1-0.4,0.1c-0.1,0-0.2,0.1-0.3,0.1c-0.1,0-0.2,0.1-0.3,0.1 c-0.5,0.2-1,0.5-1.4,0.8c0,0-0.1,0-0.1,0.1c-0.2,0.1-0.3,0.2-0.5,0.3c-0.1,0-0.1,0.1-0.2,0.1c-0.1,0.1-0.3,0.2-0.4,0.3 c-0.1,0-0.1,0.1-0.2,0.1c-0.1,0.1-0.3,0.2-0.4,0.3c-0.1,0-0.1,0.1-0.2,0.1c-0.1,0.1-0.3,0.2-0.4,0.3c-0.1,0-0.1,0.1-0.2,0.1 c-0.1,0.1-0.3,0.2-0.4,0.4c-0.1,0-0.1,0.1-0.2,0.1c-0.1,0.1-0.3,0.2-0.4,0.4c-0.1,0-0.1,0.1-0.2,0.1c-0.1,0.1-0.3,0.3-0.4,0.4 l-0.1,0.1C69.3,9,69.1,9.2,69,9.3l-0.1,0.1c-0.1,0.1-0.3,0.3-0.4,0.4l-0.1,0.1c-0.1,0.1-0.2,0.3-0.4,0.4l-0.1,0.1 c-0.1,0.1-0.2,0.3-0.4,0.4c0,0,0,0.1-0.1,0.1c-0.1,0.1-0.3,0.3-0.4,0.4c-0.5,0.6-1,1.2-1.4,1.8l-0.1,0.1c-0.1,0.1-0.1,0.2-0.2,0.3 l-0.1,0.1c-0.1,0.1-0.1,0.2-0.2,0.2c0,0.1-0.1,0.1-0.1,0.2c-0.1,0.1-0.1,0.1-0.1,0.2c0,0.1-0.1,0.1-0.1,0.2c0,0.1-0.1,0.1-0.1,0.2 c0,0.1-0.1,0.1-0.1,0.1l-0.1,0.1l-0.1,0.1L64.2,15c0,0,0,0.1-0.1,0.1c0,0,0,0.1-0.1,0.1c0,0,0,0,0,0.1c0,0,0,0.1-0.1,0.1 C64,16,64,16,64,16s-0.1-0.1-0.2-0.2c-0.1-0.1-0.2-0.3-0.4-0.6c-2-2.7-8.8-11.1-14.3-11.1H49h-0.1C48.3,4,47.7,4,47,4.1h-0.1 c-0.2,0-0.3,0.1-0.5,0.1c-0.1,0-0.2,0.1-0.3,0.1H46c-3.1,1.1-7.5,5.2-9.4,7.5l-5,5.3c-2.7,3.5-5.4,3.7-9.5,2.2l-8-3.1 c-2.7-1-5.5,0.9-5.5,3.8L4,67.5c-0.2,3.8,2.3,7.2,6,8.1l19.1,9c3.6,1,7.5-0.7,9.2-4c0.9-1.7,1.5-3.5,1.8-5.4l0.2-1.5 c1.5,20.6,3.7,42.2,3.7,42.2c0,4.4,3.6,8,8.1,8h24c4.5,0,8.1-3.6,8.1-8c0,0,1.8-20.5,3.8-40.6c0,1.9,0.8,3.7,1.7,5.4 c1.8,3.3,5.6,4.9,9.2,4l19.1-9C121.7,74.7,124.2,71.3,124,67.5z M89.1,56.7c-2.3,0.1-10.5,0.9-24.9,0.9c-13.8,0-22.2-0.7-25-0.9 c-0.2-3.2-0.3-6.2-0.4-8.8c2.7,0.2,12.5,0.7,25.2,0.7c13.3,0,23.4-0.6,25.5-0.7C89.4,50.5,89.3,53.5,89.1,56.7z M64,42.6 c-12.3,0-22.5,0.4-25.2,0.5c0-3.1,0.1-6.1,0.2-9.1c2-0.2,6.9-0.4,14.4-0.4c1.7-3.3,4.2-7.8,6.9-12.1c-0.7-1.1-1.4-2.1-2.1-3.2 C54.5,13,50.6,9.4,47.7,7.2c0.2,0,0.5,0,0.8,0c0.1,0,0.3,0,0.5,0h0.1h0.1c3.5,0.1,9.3,6.2,12.4,10.6C62.1,18.5,63,19,64,19 s1.9-0.5,2.5-1.3C69.4,13.3,75,7.2,78.6,7.1c0.1,0,0.1,0,0.2,0h0.1c0.2,0,0.3,0,0.5,0c0.2,0,0.3,0,0.5,0c0.1,0,0.3,0,0.4,0l0.4,0.1 c0.1,0,0.3,0.1,0.6,0.2c-2.8,1.9-8.1,5.9-13,12.9c-3,4.3-5.9,9.2-8.1,13.3c1.2,0,2.5,0,3.8,0c13.6,0,22.1,0.3,24.9,0.4 c0.4,3.3,0.6,6.4,0.6,9.1C87.4,43,76.9,42.6,64,42.6z"/>
</svg>