<svg viewBox="0 0 128 128" xmlns="http://www.w3.org/2000/svg">
  <g>
    <path d="M122.27,17.79c-4.37-2.45-10.19-0.38-12.99,4.62c-1.12,2-1.34,4.4-1.41,5.3c-0.09,1.24-2.16,2.88-2.81,3.37 c-0.09,0.07-0.12,0.19-0.1,0.29c-1.21,0.7-2.88,1.65-4.54,2.61c-0.99-1.65-1.98-3.29-2.7-4.5c0.07-0.08,0.11-0.19,0.06-0.3 c-0.33-0.74-1.34-3.18-0.81-4.31c0.38-0.82,1.36-3.02,1.36-5.32c-0.31-13.16-16.85-14-18.1-0.86c-1.86-1.16-3.84-1.98-5.73-2.11 c-0.79-4.72-5.84-8.72-10.73-10.27c-13.23-4.19-21.84,0.5-26.46,3.03c-3.88,2.39-14.02,5.23-14.18-4.24c0,0-8.52,3.25-5.61,12.3 C8.75,17.41,5.49,27.83,7.86,33.82C5.19,35.9,1.9,41.44,4.65,47.11C0.31,57.79,4.99,68.3,9.3,72.84c5.7,5.4,3.72,9.3-1.75,9.97 c1.06,3.18,4.81,4.98,8.53,4.91c0,0,5.83,8.06,20.97,8.49v0.2c-12.92,1.02-25.17,4.04-33.04,9.51V124h95.13 c1.74-17.21-18.43-25.36-41.93-27.58v-0.21c15.33-0.34,21.23-8.49,21.23-8.49c3.73,0.07,7.48-1.75,8.53-4.91 c-5.47-0.67-7.48-4.56-1.76-9.97c2.06-2.17,4.19-5.71,5.39-9.97c1.75,0.11,3.8-0.31,5.8-1l2,11.21c0,0,2.43-0.13,3.07-0.82 c1.59-2.65,1.42-8.69,1.84-13.93c3.79-2.25,4.31-8.94,4.13-9.35c0,0-1.01,1.16-3.69,1.86c0.17-2.91,0.33-5.64,0.44-7.51l4.01-4.89 l-0.2-0.5c0.09,0.24,0.28,0.66,0.6,0.42c0,0,0.81-0.65,0.81-0.65c2.2-1.42,4.1-1.15,4.83-0.99 C124.49,38.99,131.56,23.28,122.27,17.79z M9.21,61.84c0-3.2,1.26-6.1,3.27-8.17c-0.36,6.17,1.17,15.01,2.42,14.36 c0.32,1.51,0.72,3,1.2,4.45C12.08,70.83,9.21,66.68,9.21,61.84z M55.21,100.06c-0.07,9.49-16.09,9.49-16.16,0c0,0,0-4.85,0-4.85 c5.27,1.4,10.88,1.43,16.16,0.07V100.06z M68.9,84.99c-11.12,12.31-32.18,12.31-43.3,0c-5.16-5.46-8.38-12.86-9.46-21.66 c1.35-5.68,3.19-13.91,2.94-15.72c0,0,11.34-2.25,22.17-10.22c11.02-8.21,21.53-6.69,23.56-0.19c9.56-0.9,12.77,8.41,13.87,22.27 C78.15,69.96,74.8,78.75,68.9,84.99z M78.4,72.48c0.59-1.74,1.02-3.52,1.39-5.43c0.16,0.02,0.33-0.05,0.4-0.23 c1-2.19,2.88-6.78,3.36-11.16C87.31,61.3,84.56,70.22,78.4,72.48z M87.13,25.28c-0.75-1.09-1.75-2.28-2.92-3.42 c-2.73-9.11,9.81-12.39,10.5-2.32C94.78,23.83,90.81,27.07,87.13,25.28z M90.03,45.34c-0.1-0.14-0.18-0.25-0.25-0.34 c1.24-5.11,0.77-10.05-0.19-13.77c0.41,0.42,0.81,0.94,1.16,1.61c0.17,0.23,0.34,1.43,0.83,1.09l-0.14,0.12l1.11,6.2 C91.9,41.55,91.02,43.34,90.03,45.34z M91.42,47.02c0.62-1.23,1.2-2.41,1.72-3.46l1.05,5.9C93.09,48.7,92.16,47.82,91.42,47.02z M100.94,64.5c-0.2,3.44-0.63,5.53-0.92,6.28l-6.41-35.93l3.34-2.76c1.86,3.09,4.65,7.73,5.38,8.87 C102.2,43.18,101.12,61.4,100.94,64.5z M104.18,40.19c-0.4-0.73-1.38-2.23-2.73-4.5c0.89-0.51,1.84-1.05,2.81-1.61l1.64,4.01 L104.18,40.19z M121.94,29.51c-4.19,7.08-13.35,1.94-9.5-5.33C116.63,17.11,125.79,22.24,121.94,29.51z"/>
    <path d="M55.67,76.14c-3.19,1.89-13.63,1.89-16.81,0c-1.83-1.09-3.7,0.58-2.94,2.24c0.75,1.63,6.44,5.42,11.37,5.42 c4.93,0,10.55-3.79,11.3-5.42C59.34,76.72,57.5,75.05,55.67,76.14z"/>
    <path d="M47.25,72.38c3.34,0.07,6.36-3.61,3.54-4.4c0,0-7.08,0-7.08,0c-0.11,0.01-0.22,0.04-0.32,0.08 C41.16,69.16,44.06,72.42,47.25,72.38z"/>
    <path d="M35.74,58.81c-0.17-6.73-9.69-6.73-9.86,0C26.05,65.54,35.57,65.54,35.74,58.81z"/>
    <path d="M58.76,58.81c0.17,6.73,9.69,6.73,9.86,0C68.45,52.08,58.93,52.08,58.76,58.81z"/>
    <path d="M23.76,51.37c0.26,0.35,1.04,0.68,1.9,0.39c0.86-0.29,2.54-1.16,5.35-1.18c2.81,0.02,4.49,0.89,5.35,1.18 c0.86,0.29,1.64-0.03,1.9-0.39c1.22-2.09-3.25-4.66-7.25-4.56C27.01,46.71,22.52,49.3,23.76,51.37z"/>
    <path d="M63.5,46.81c-4.16,0-6.31,1.79-7.23,3.01c-0.83,1.31,0.34,2.4,1.88,1.94c0.86-0.29,2.54-1.16,5.35-1.18 c2.81,0.02,4.49,0.89,5.35,1.18c1.54,0.47,2.71-0.63,1.88-1.94C69.8,48.59,67.66,46.81,63.5,46.81z"/>
    <path d="M96.47,41.29c0.05,2.67,4.01,2.67,4.06,0C100.48,38.62,96.52,38.62,96.47,41.29z"/>
  </g>
</svg>