<svg viewBox="0 0 128 128" xmlns="http://www.w3.org/2000/svg">
  <g>
    <path d="M119.8,19.7c1.8-0.4,4.1,0.2,4.2-1.6c0.1-2.2-2.6-3.6-5.9-2.6c-3.3,0.9-4.3,3.8-4.3,3.8s-3.7-1.7-7,0.8 c-2.1,1.7-3.1,4.5-3.6,6.5c-7.8-4.8-18.1-6.8-28.4-6.8c-10.7,0-21.3,2.1-28.9,5.2c-12.1,4.9-15.3,7-15.3,7s0-1.8-2-3.1 c-0.5-0.3-1-0.5-1.7-0.5c-0.1-0.5-1.9-1-3.6-0.7c-2,0.4-4.7,2.2-6.2,5.2s-8.6,10.6-6.3,14.1c1,1.5,2.5,2.2,4.1,2.3 c-0.8,1.3-2.1,3.2-4.5,5.9C4.6,61.7-1.1,84.2,20.8,95.8c0.1,3,0.3,8.6,0.4,10.3c0.1,2.4,0.5,6.3,0.8,8.2c0.4,2.1,2.1,3.3,5.5,3.5 c0.3,0,0.6,0,0.9,0c4.1,0,6.1-1.8,6.4-3.4c0.3-1.2,0.6-8.9,0.7-13.5c3.6,0.7,7.1,1,10.4,1c0.4,0,0.8,0,1.2,0c0,1.8,0.1,4,0.1,6.2 c0.1,3.8,0.1,8.2,0.6,9.3c0.7,1.9,4.1,3,7,3.1c0.1,0,0.3,0,0.4,0c3,0,5.1-1.5,6.3-2.8c0.7-0.7,0.7-4.2,0.8-9.3 c0.1-1.9,0.1-6,0.2-8.8c3.1-0.9,5.8-1.9,8-2.8c0.1,1.5,0.3,3.2,0.3,4c0,1.5,0.9,4.5,5,4.9c0.5,0.1,1,0.1,1.5,0.1 c5.1,0,6.4-3.1,7.1-6.6c0.5-2.7,0.6-5.6,0.6-7.8c0.9-0.1,1.7-0.2,2.5-0.2c1.8,0,3.3,0.3,4.2,1c2.7,2,1.5,7.6,1.8,9.9 c0.3,2.3,3.4,4.6,7.2,4.9c0.2,0,0.3,0,0.5,0c3.6,0,7-2.9,7.4-4.9c0.4-2.1,1-12.4,1.5-16.3c0.4-3.4,2.2-9.9,4.2-14.9 c1.4-3.5,9.9-16-2.4-35.6c-1.1-1.8-2.4-3.3-3.9-4.8c0.1-1.6,0.4-3.3,0.7-4.3c1-2.7,2.8-2.2,2.8-2.2s-2,5.4,0.8,8.7 c3.3,3.9,10.5,2.2,9.5-4.4c-0.6-4-4.4-6.4-4.4-6.4S118.5,19.9,119.8,19.7z M32.9,113.9c-0.1,0.5-1.2,1.9-4.5,1.9 c-0.2,0-0.5,0-0.8,0c-3.3-0.2-3.5-1.4-3.6-1.9c-0.3-1.6-0.6-5.2-0.8-7.9c-0.1-1.5-0.2-6.1-0.3-9.2c0.3,0.1,0.6,0.3,0.9,0.4 c3.3,1.5,6.6,2.5,9.9,3.3C33.4,106.8,33.1,113,32.9,113.9z M82.6,98.8c-0.6,3.3-1.6,4.9-5.1,4.9c-0.4,0-0.9,0-1.3-0.1 c-3.1-0.3-3.2-2.5-3.2-2.9c0-0.8-0.1-2.2-0.2-3.5c0-0.4-0.1-0.9-0.1-1.3c0,0-0.1,0-0.1,0c1.7-0.8,3.1-1.5,3.9-1.9 c1.9-1,4.4-1.8,6.8-2.3C83.2,93.8,83.1,96.4,82.6,98.8z M110.4,36.2c10.4,16.6,5.2,27.6,2.9,32.3c-0.3,0.6-0.5,1.1-0.7,1.5 c-2,4.9-3.9,11.7-4.3,15.4c-0.2,1.9-0.5,5-0.7,8.1c-0.3,3.3-0.6,7.1-0.8,8.1c-0.2,1-2.7,3.3-5.4,3.3c-0.1,0-0.2,0-0.3,0 c-3-0.2-5.2-2.1-5.3-3.2c-0.1-0.4,0-1.2,0-2c0.1-3,0.2-7.1-2.6-9.2c-1.2-0.9-3-1.4-5.4-1.4c-3.9,0-8.8,1.2-12.2,3 c-1.8,1-6.6,3.5-13.3,5.4L60.7,98l0,1.5c-0.1,2.8-0.2,6.9-0.2,8.8l0,1.7c-0.1,2.6-0.1,5.5-0.4,6.4c-1.5,1.4-3,2.1-4.8,2.1 c-0.1,0-0.2,0-0.3,0c-3-0.1-5.1-1.3-5.3-1.8c-0.2-0.7-0.3-3.7-0.4-5.9c0-0.9-0.1-1.8-0.1-2.7c-0.1-1.8-0.1-3.9-0.1-6.1l0-2l-2,0 c-0.4,0-0.7,0-1.1,0c-7.4,0-14.6-1.5-21.4-4.5C15.3,91.3,9.5,85,7.7,76.9C5.8,68.3,9.1,59.6,12,56.3c2.4-2.7,4.1-5,5.1-6.7l0.3-0.6 c1.9-0.4,3.6-1.2,4.8-2.2c2.6-2.2,4.3-5.6,2.6-6.3c-1.4-0.5-3.1,1.6-4.7,2.9c-1.6,1.3-4.5,3-5.6,1.6c-1.2-1.5,2.5-5.3,4.7-9 c0.2-0.3,0.3-0.6,0.5-0.9c1.5-2.1,2.9-3.7,3.3-4.1c0.5-0.3,2-0.8,3.3-0.8c0.7,0,1.1,0.2,1.3,0.3c0.9,0.6,1,1.3,1.1,1.4l-0.3,3.8 l3.3-2.1c0,0,3.4-2.1,15-6.9c7.7-3.1,18.2-5,28.1-5C84.7,21.7,102.5,23.6,110.4,36.2z M117.1,30.8c-3,0.3-2.1-4.9-1.5-6.4 C118,25.5,119.5,30.5,117.1,30.8z"/>
    <path d="M74.5,46c-1.8,0.3-0.9,3.2-0.8,5.4c0.1,2.4,0.2,6.6-2.7,7.2c-3.1,0.7-5.3-1.3-7-4.1c-1.7-2.7-3.7-4.8-3.1-7.3 c0.4-1.6,2.5-2.4,2-3.7c-0.8-1.6-4.6,0-5.5,2.4c-1.2,3.1,0,6.1,1.8,9.5c1.2,2.3,6.8,9.5,13.1,8c7.4-1.8,5.3-13.3,5.1-14.6 C77,47.5,76.1,45.8,74.5,46z"/>
    <path d="M29.5,69.2c-5.2-0.9-13.4,0.5-14,6.3c-0.5,4.5,2.4,10,11.9,12s14.2-1.5,14.6-6.6C42.5,75.9,37.2,70.6,29.5,69.2z M24.4,81.3c-1.4,0.1-3.3-1.5-3.5-3.8c-0.2-2.3,0.4-4.1,2.2-4.1c1.4,0,2.9,1.6,3.1,3.8C26.4,79.5,25.8,81.2,24.4,81.3z M35,79.2 c-0.2,2.2-1.5,3.8-3,3.7c-1.4-0.1-2.4-2-2.2-4.2s1.5-3.8,3-3.7C34.2,75.2,35.2,77,35,79.2z"/>
    <ellipse cx="52.6" cy="66.2" rx="4.8" ry="4.1" transform="matrix(9.851062e-02 -0.9951 0.9951 9.851062e-02 -18.4581 112.104)"/>
    <path d="M22.4,65c2.3,0.2,4.4-1.7,4.7-4.3c0.3-2.6-1.4-4.9-3.7-5.2s-4.4,1.7-4.7,4.3C18.4,62.4,20,64.7,22.4,65z"/>
  </g>
</svg>