<svg viewBox="0 0 128 128" xmlns="http://www.w3.org/2000/svg">
  <g>
    <path d="M122.04,47.2c-0.51-5.17-3.69-8.04-8.24-8.04h-4.04c-0.11-1.74-2.29-3.12-4.97-3.12c-2.69,0-4.86,1.39-4.97,3.12h-3.96 l11.7-8.82c0.02,0.05,0.04,0.09,0.04,0.09l6.49-1.64c0.97-0.47,1.41-1.72,1.04-2.93c-0.53-1.75-1.31-4.98-3.83-8.48 c-3.59-4.99-7.38-6.63-8.87-6.68c-0.77-0.03-1.44,0.43-1.78,1.19l-2.75,6.13L69.86,39.16H32.59c-3.55,0-6.29,2.55-7.54,5.5H13.1 c-1.44,7.74-2.16,16.29-2.14,24.95c0.01,4.2,0.2,8.42,0.56,12.59c0.16,1.88,0.35,3.74,0.59,5.58c0.08,0.62,0.17,1.23,0.25,1.84 h-0.01c0,0.01,0,0.01,0,0.02h9.93c0.56,13.74,2.07,19.63,2.07,19.63c1.09,4.49,3.69,8.04,8.24,8.04h81.22 c4.55,0,8.24-3.6,8.23-8.04c0,0,1.95-10.82,1.95-30.87C123.99,58.35,122.04,47.2,122.04,47.2z M30.99,49.44 c0-1.79,1.45-3.24,3.24-3.24c1.79,0,3.24,1.45,3.24,3.24s-1.45,3.24-3.24,3.24C32.44,52.68,30.99,51.23,30.99,49.44z M41.56,68.65 v2.78h-5.13v-2.78H41.56z M109.93,102.23l-0.06,0.04c-0.09,0.05-0.15,0.07-0.18,0.07H44.24c-1.86,0-3.38-1.52-3.38-3.38V88.69 l-5.03,0.04l-0.03-3.01l5.4-0.04c0.83,0,1.58,0.37,2.11,1.04c0.46,0.58,0.55,1.28,0.55,1.76v10.85h64.21l0.14-1.09 c0.01-0.07,0.86-7.06,0.86-20.01c0-9.94-1.54-16.53-2.2-18.89c-0.36-1.3-1.56-2.2-2.91-2.2H45.98c-0.61-0.27-1.86-1.88-2.44-3.01 h63.7c0.87,0,1.64,0.58,1.88,1.4c1.11,3.82,2.96,11.84,2.96,22.7C112.08,91.46,110.47,99.89,109.93,102.23z"/>
    <path d="M8.99,69.62c0.02,6.72,0.47,13.5,1.37,20.02H7.71c-0.83,0-1.54-0.55-1.75-1.35C5.28,85.68,4,78.96,4,65.49 C4,53,5.1,47.86,5.81,45.85c0.25-0.72,0.94-1.19,1.7-1.19h3.59C9.68,52.42,8.97,60.97,8.99,69.62z"/>
  </g>
</svg>