<svg viewBox="0 0 128 128" xmlns="http://www.w3.org/2000/svg">
  <g>
    <path d="M118.2,27.6c-3.4-4.2-9.6-6.1-15.4-6.5C92.9,20.4,89,23,87.6,24.5c-0.1,0.1-0.2,0.2-0.2,0.2c-0.1,0.1-0.2,0.2-0.2,0.3 c-5.7-2.8-13.3-4.8-23.4-5.1c-0.5,0-0.9,0-1.4,0c-9.8,0-17.2,2.7-22.8,6.5c-1-1.4-3.5-3.7-9.6-4.1c-7.2-0.5-19.1,5.3-21.6,11.2 c0,0.1-0.1,0.2-0.1,0.3c-0.7,0.8-1.2,1.6-1.6,2.5c-3.2,7.7-1.7,23,0,28.9C8.4,71,12.9,77,19.8,76.8c1.8-0.1,3.6-0.6,5.3-1.5 c1.4,7.4,4.2,15.1,9.7,21.6c6.2,7.3,15.8,11.4,26.2,12.1c1.9,4.4,8.3,3.8,10.1-0.2c9.7-0.9,18.4-4,24.5-12 c5.6-7.4,8.4-16.5,9.6-24.9c4.1,3.1,10,2.4,13.1-1c4.3-4.8,4.9-18.6,5.2-27.1C123.8,35.6,121.2,29.4,118.2,27.6z M66.1,108.2 c-1.1,0-1.3-1.5-1.3-3.9c0-2.5,0-3.6,1.1-3.6c1.2,0,1.1,2,1.1,3.8C67.1,106.3,67.2,108.2,66.1,108.2z M94.1,95.5 c-5,6.5-11.8,10-22.3,11.2c0.4-2.6,0.4-5.8,0.3-7.8c2.6-0.3,5.8-3.2,6.8-3.9c1.9-1.3,4.1-2.9,3.1-4.2c-1.1-1.5-3.5,0.5-6,1.8 c-2.4,1.3-3.3,1.9-5.1,1.9c-1.8,0-3.1-0.8-3.2-3.8c0,0,0-0.1,0-0.1c5.7-0.5,7.6-3.4,7.5-6.5c-0.2-3.5-1.7-6.7-9.6-6.5 c-5.7,0.1-9.7,3.2-9.6,6.7c0.1,3.1,2.2,5.6,7.6,6.2c0,0.2,0,0.5,0,0.6c0,2-1,2.8-3,2.9c-2,0.1-4.1-1.6-5.1-2.2 c-1-0.6-4.2-3.2-5.3-1.6c-1.4,2,1.3,3.8,3.4,5.2c1.6,1.1,3.5,2.6,5.7,3.3c0.2,1.6,0.7,5.7,1.2,8.3c-9.9-0.8-18.5-4.8-24.1-11.3 c-5.4-6.4-8.1-14.2-9.4-21.5c3.8-2.9,6.7-7.9,8.1-13.7c2.2-9.2,2.6-25,3.3-27.8c0.3-1.5,0.8-2.8,1.2-3.7c6.2-4.6,13.9-7,22.8-7 c0.4,0,0.9,0,1.4,0c11.4,0.3,19.7,2.8,25.6,6.5c1.2,2.5,2.5,5.8,3.2,7.8c1,3.1,2.6,10,3.6,15.4c0.9,5.3,3.5,13.6,7.5,18.5 C102.5,78.6,99.8,88,94.1,95.5z"/>
    <path d="M45.2,60.7c-3.2-0.1-4.4,2.4-4.8,5.8c-0.4,3.4,1.4,6.7,4.1,6.9c3.8,0.4,5.6-2.4,6-5.8C50.9,64.3,50.2,60.8,45.2,60.7z"/>
    <path d="M96.8,64.4c-1-7.8-7-13.3-14.2-12.5c-6.8,0.8-11.1,8.1-10.7,15.9c0.4,7.7,5.4,12.9,13.6,12.4 C94.5,79.7,97.8,72.2,96.8,64.4z M84.6,73.4c-3.5,0.2-5.2-2.7-5.4-6.2C79,63.8,80.8,61,84,60.6c4.3-0.5,5.5,2.7,5.7,6.1 C89.9,70.2,88.5,73.1,84.6,73.4z"/>
  </g>
</svg>