<svg viewBox="0 0 128 128" xmlns="http://www.w3.org/2000/svg">
  <path d="M107.29,11.04h-5.53c-0.24-1.16-0.66-2.19-1.25-2.97c-0.75-1.01-2.35-1.62-4.62-1.62c-2.26,0-72.25,0-72.25,0v0.01h-0.46 c0,0-2.31-0.4-3.85,0c-2.79,0.73-3.56,2.76-3.56,6.07v94.41c0,6.38,0.38,9.31,2.16,11.41c1.57,2.69,4.68,3.34,5.94,3.34h12.65v-0.01 h69.5c4.37,0,6.2-2.09,6.2-5.95V15.97C112.22,13.25,110.01,11.04,107.29,11.04z M103.93,118.66l-67.41,0.04v-0.01H23.87 c-0.03,0-3.06-0.12-3.73-2.79c-0.32-1.28-0.02-2.84,0.73-3.81c0.54-0.7,1.27-1.04,2.23-1.04l10.78-0.21h60.27 c4.34,0,7.85-3.52,7.85-7.85V14.69c2.29,1.02,4.05,0.98,5.13,0.75c0.64-0.14,1.25,0.34,1.25,1v91.88l0.08,6.82 C108.47,117.08,106.91,118.66,103.93,118.66z"/>
</svg>