<svg viewBox="0 0 128 128" xmlns="http://www.w3.org/2000/svg">
  <path d="M123.4,82.1c-0.3-1.9-0.9-4.2-2-6.8c0-0.1,0-0.2,0-0.3c-1.9-4.7-5.4-10.4-11.8-16c-3.2-2.9-6.9-5-10.6-6.5v0 c-8-3.2-16.3-3.2-22.3,0.3c-8.2,4.8-11.1,11.7-11.1,11.7s-2.6-7-9.8-7.9c-5.8-0.8-8.4,2.2-8.4,2.2s0.4-8.9-7-15.2 c0.6-1.2,1.4-2.9,2.2-5.3c1.4-4.7,1.5-8,0.8-11.5c-0.7-3.4-2.1-6.7-4.1-8.7c-1.3-1.3-3.9-2.8-6-2.6c-3.2,0.3-4.3,3.6-2.1,4.8 c2.5,1.4,4.2-1,4.9-0.9c2,0.3,4.2,4.6,4.9,8.1c0.7,3.8,0.1,7.1-1,10c-0.7,2-1.4,3.5-1.9,4.4c-0.9-0.6-1.9-1.1-2.9-1.6 c-2.6-1.1-5-1.7-7.3-1.9c0-0.8-0.1-2.1-0.4-4.2c-0.6-5.1-2.2-9.5-3.5-13c-1.3-3.5-4-6.4-6.7-7.4c-1.8-0.7-3.8-1.3-6.8,0.3 c-3.3,1.8-3.9,5.5-1.2,6C13,21,14.2,16.1,15,16c2.9-0.3,5.6,3.3,7,6.7c1.2,3,2.5,7,3,10.2c0.5,2.8,0.6,4.5,0.6,5.5 c-4.8,0.1-8.6,1.7-10.3,2.5c-1.2,0.6-2.6,1.5-3.9,2.6c-0.5-0.3-1-0.5-1.8-0.5c-0.3,0-0.7,0-1.1,0.2c-2.7,0.7-4.1,4.7-3.4,6.6 c0.2,0.5,0.5,1,0.9,1.3c-0.9,2.2-1.5,4.7-1.4,7.2c-0.1,0.7-0.1,1.9,0,2.9c0.2,2,1.1,3.2,1.5,3.6c2.2,5.3,7,10.1,14.7,11.8 c4,0.9,7.4,0.9,10.1,0.6c-1,1-3.6,3.8-4.6,6.6c-1.2,3.5-3.3,11.9-4.1,12.7s-3.7,2.1-4.7,2.5c-1,0.5-3.3,0.9-3.3,2.5 c0,1.6,2.1,1.6,5.6,1c3.6-0.6,4.9-0.8,5.5-1.6c0.7-0.8,4.3-14.2,4.9-15c0.6-0.8,1.6-3.2,4.8-5.6c1-0.8,2.1-1.6,3.1-2.4 c0.7,1,1.7,2.2,2.7,3.1c0.1,0.5-4.6,11.7-4.9,13.2c-0.3,1.5-2.5,14.1-2.8,14.4c-0.3,0.3-2.6,1.7-4.6,2.8c-2,1.1-5.7,3.6-4.7,4.9 c1,1.3,5.9,0,7.5-0.5c3.1-1,5.9-3.6,6.3-4.2s3.3-13.7,4-16.3c0.7-2.6,4.4-11.4,4.6-11.8c0.4,0,1.5,0.7,2.9,1 c2.4,0.5,3.1,0.4,3.5,0.5c0.3,0.6-0.1,12.8-0.1,14.6c0,1.8-0.1,12.9,0.3,14.1c0.3,1.2,4.5,5.4,5.1,5.8s3,0.9,3.8,0.2 c0.8-0.7,0.7-2,0.2-2.6c-0.5-0.6-4.5-5.9-4.6-6.8c-0.1-0.8,0.6-10,0.8-11.1c0.2-1.1,0.3-13.5,0.5-14.5c0.7-0.3,1.5-0.5,2.3-0.7 c1.7-0.5,2.5,1.5,3.6,3c0.7,1,3.2,5.4,3.7,6.7c0.4,1.3,3.1,7.7,3.6,9.6c0.4,1.7,1.3,6.1,2,6.8c0.6,0.8,6.1,4.3,6.6,4.8 c0.6,0.4,3,2.2,4.1,1c1.1-1.2-0.4-2.9-1.3-3.7c-0.9-0.8-4.2-4-4.7-4.5c-0.2-0.2-0.6-3-1.3-5.4c-1.1-3.6-3.3-9.2-3.8-10.4 c-0.5-1.2-1.9-3.5-3.2-5.8c-0.9-1.6-3-4.6-2.8-5c0.5-0.9,3.8,3.1,6.9,7.1c2.6,3.3,7.2,7.1,8.9,8.4c0.3,0.2,0.5,0.4,0.5,0.4 s1.6,1.2,3.2,2.1c0,0,0,0,0,0s0.2,0.1,0.6,0.3c0.8,0.4,2.2,1.1,4.1,1.9c1,0.4,2,0.9,2.9,1.2c4.4,1.6,7.1,1.7,7.1,1.7s0,0,0,0 c0.9,0.1,1.9,0.2,2.8,0.3c2,0.1,3.8,0.1,5.4,0c2.2-0.1,4.9-0.3,6.8-0.9c2-0.6,4.5-1.7,5.3-2.9c0.1-0.2,0.3-0.4,0.4-0.8 c0.3-0.8,0.6-2.2,0.7-3C123,96.2,124.4,88.3,123.4,82.1z M6.9,49.1c-0.1-0.3-0.1-1.3,0.5-2.4c0.4-0.8,1-1.4,1.6-1.6 C9.2,45.1,9.4,45,9.6,45c0.1,0,0.2,0,0.3,0C8.8,46.3,7.8,47.6,6.9,49.1C6.9,49.1,6.9,49.1,6.9,49.1z M100,63.3 c0.5-3.2,0.5-6.1,0.4-8c1.4,0.7,2.7,1.4,4,2.3c0,1.7,0,4.1-0.6,7.1c-0.8,4.5-2,8.9-3.4,13c-2.2,6.2-9.3,16.4-9.4,16.5c0,0,0,0,0,0 s0,0,0,0l-3.2-2c0,0,6.9-9.9,9.2-16.8C98.1,72.3,99.7,66,100,63.3z M79.7,55.7c2.4-1.6,6.4-2,8.3,0.4c1.4,1.7,1.2,5.2-2.7,7.6 c-3.6,2.2-7.5,2.2-8.8-0.5C74.8,59.8,77.3,57.3,79.7,55.7z M52.3,58.8c2.4-0.6,4.9,0.8,5.5,2.6c0.7,1.9-0.5,4.4-3.3,5.2 c-2.2,0.6-4.1-0.2-5.2-2.1C48.4,62.6,49.5,59.5,52.3,58.8z M29.8,54.6c-1,2.5-3.7,5.6-8,3.7c-3.8-1.7-3.4-6.1-1.9-8.6 c1.5-2.5,4.1-4.2,7.6-2.8C30.9,48.2,30.7,52.2,29.8,54.6z M112.7,84.4c1.6-5,2.5-11.9,2.8-15.8c1.3,1.8,2.4,3.7,3.3,5.7 c-0.3,3-0.9,7.3-2.2,11.1c-2.2,6.5-6.7,14.1-6.7,14.1s-0.2,0-2.3-0.3c-1.5-0.2-1.9-0.3-1.9-0.3S109.9,93.1,112.7,84.4z"/>
</svg>