<svg viewBox="0 0 128 128" xmlns="http://www.w3.org/2000/svg">
  <g>
    <path d="M110,37.4c-2.2-1-4.4-1.5-6.3-1.5c-3.2,0-5.6,1.4-5.7,4.1c-0.2,4.3,3.7,3.4,6.6,4.5c2.9,1.1,6.2,6.3,2.7,11.4 c-3.5,5.1-9.6,6.7-11.5,6.8c-0.1,0-0.1,0-0.2,0c-1.9,0-5.4-2.7-12.4-2.9c-0.1,0-0.3,0-0.4,0c-1.9,0-4.1,0.4-6.2,0.9c0,0,0,0,0,0 s-2,0.3-3.8,0.9c-1.3,0.5-2.5,1-3,1.2c-2.2,0.8-3.9,1.5-4.4,1.5c-0.1,0-0.1,0-0.2-0.1c-0.3-0.7,10.3-7.5,11.1-16.4 c0.7-8.3-1-12.1-1-12.1s-1.3-14-3.2-20.5c-1.9-6.5-4.4-11.4-6.1-11.4c0,0,0,0-0.1,0c-1.7,0.1-7.1,6-9.1,8.9c-2,2.9-4.1,7.6-4.1,7.6 s-0.8,0-2.1,0c-0.3,0-0.7,0-1.1,0c-0.9-2.4-2.3-6.1-3.9-8.5c-2.6-4-6-7.4-7.8-7.2c-1.8,0.2-3.7,4-4.8,11.4 c-0.7,4.7-0.4,8.2-0.2,10.2c-0.7,0.7-1.4,1.5-1.9,2.4c-2.4,3.9-3.2,6.1-4.3,6.7c-1,0.5-4.9,1.3-6.4,2c-0.6-0.1-1,0-1.3,0.3 c-0.5,0.5-1.1,1.7-1.4,3.6c-0.1,0.6-0.1,1.3-0.1,2.1c-0.5-0.1-1-0.2-1.6-0.3c-2.9-0.5-4.7-0.7-4.8-0.7c-0.6-0.1-1.2,0.4-1.2,1 c-0.1,0.6,0.4,1.1,1,1.2c0,0,1.8,0.2,4.6,0.7c0.8,0.1,1.4,0.3,2,0.3c0,0.5,0.1,1,0.2,1.5c-1,0.2-2.1,0.3-2.8,0.4 c-1.4,0.2-4.2,0.6-4.2,0.6c-0.6,0.1-1,0.6-1,1.2c0.1,0.6,0.5,1,1.1,1c0,0,0.1,0,0.1,0c0.1,0,2.9-0.3,4.3-0.6 c0.7-0.1,1.9-0.3,2.9-0.5c0.2,0.5,0.3,1.1,0.6,1.6l-6.5,1.9c-0.6,0.2-0.9,0.8-0.8,1.4c0.1,0.5,0.6,0.8,1.1,0.8c0.1,0,0.2,0,0.3,0 l6.6-1.9c0.2,0.6,0.6,1.1,1,1.5c1.8,2,6.7,5.3,10.6,7.8c3.8,2.4,7.4,4.3,7.8,6c0,0-2.2,7.1-1.7,12.5c0.5,4.5,2.8,10.1,5.4,13.3 c0,0,0,0,0,0c0.1,3.9,0.3,16.2,0.1,16.8c-0.3,0.7-4.1,5.1-3.7,7.6c0.3,2,1.8,2.7,5.9,2.8c1,0,2.3,0,3.6-0.2l0,0c0,0,0,0.1,0,0.1 c0.5,1.9,2.2,3.1,6.6,3.1c0.2,0,0.4,0,0.6,0c1.3,0,2.3-0.1,3-0.2c0.3,0,0.5,0,0.7,0c0.2,0,0.3,0,0.4,0c0.1,0,0.2,0,0.2,0 c0.2,0,0.3,0,0.5,0c0,0,0.1,0,0.1,0c0.9-0.1,1.5-0.3,2.1-0.8c0,0,0,0,0,0l0,0c0.2-0.2,0.5-0.4,0.7-0.6c0.8-0.9,0.9-9.2,0.8-13 c-0.1-2.7-0.2-7.7-0.3-10.4l0,0c0-0.2,0-0.3,0-0.5c0.7,0,1.5,0,2.5,0c1.4,0,3,0,4.8-0.2c2.1-0.1,4.4-0.6,6.4-1.1l0,0 c0.3,1.5,0.6,3.7,0.6,6.3c0,4.8-0.4,7.8-0.7,8.8c-0.3,1-2.6,2.9-2.4,5.6c0.1,1.3,1.7,2.2,4.5,2.1c1,0,2.2-0.1,3.2-0.2 c0-0.1-0.1-0.2-0.1-0.4c0.3,2.2,2.9,3.4,6.2,3.4c0.5,0,1,0,1.5-0.1c4-0.4,7.1-3,7.3-6.5c0.2-3.5,0.1-22.7,0.7-24.2 c0.6-1.5,2.6-6.7,2.4-11.8c-0.2-5.2-0.6-7.2-0.6-7.2s4.8-1.9,9.3-5.2c3.4-2.6,6-6,7.4-11.1C119.3,48.5,116.2,40.2,110,37.4z M82.8,118.9c0-1.1,0.4-2.1,1.1-3.2C83.2,116.8,82.8,117.8,82.8,118.9z M115.1,56.3c-1.2,4.3-3.3,7.4-6.6,10c-4.2,3.2-8.8,5-8.8,5 l-1.5,0.6l0.3,1.6c0,0,0.4,2,0.5,7c0.2,4.5-1.6,9.1-2.2,10.8l-0.1,0.3c-0.4,1.1-0.5,4.4-0.7,17c0,3.6-0.1,6.6-0.1,7.8 c-0.1,2.4-2.4,4.3-5.5,4.6c-0.4,0-0.9,0.1-1.3,0.1c-2.3,0-4.1-0.7-4.2-1.6c-0.1-0.9,0.4-1.8,1.2-3.4c0.6-1.1,1.2-2.3,1.8-3.9 c1.5-4.1-1.8-14.8-2.5-17l-0.6-2l-1.9,0.7c0,0-0.1,0-0.2,0.1c-1,0.4-6.8,2.3-11.5,2.6c-1.6,0.1-3.1,0.2-4.7,0.2c-0.8,0-1.6,0-2.4,0 l-2.1-0.1l0,2.1c0,0.1,0,0.2,0,0.4c0,0,0,0,0,0c0.1,2.9,0.4,17.9,0.1,20.2c-0.1,0.8-0.2,1.5-0.3,2.1c0,0,0,0,0,0 c-0.5,0.5-1,0.6-3.2,0.7l-0.1,0l-0.1,0c-0.7,0.1-1.6,0.2-2.8,0.2c-0.2,0-0.4,0-0.5,0c-4.2,0-4.5-1.2-4.6-1.6 c-0.1-0.8,1-3.5,1.5-4.8c0.5-1.4,1-2.5,1.2-3.4c0.5-2.4-0.7-12-1.2-13.1c-0.4-0.8-1.1-1.4-2.6-2.4c-1.1-0.8-2.6-1.8-4.2-3.2 c-2.7-2.4-5.6-8.7-6.1-13.5c-0.5-4.9,1.6-11.6,1.6-11.7l0.2-0.5l-0.1-0.5c-0.5-2.2-3.1-3.8-6.6-6c-0.7-0.4-1.4-0.8-2.1-1.3 c-4-2.6-7.1-4.7-8.9-6.2c2.4,0.6,3.9-0.7,5-1.5c1.5-1.1,0.9-3.6-1.3-2.3c-1.6,1-2.8,1.3-4,0.3c-1.7-1.3-2.2-5.1-2-5.4 c0.6-1.4,3-1.8,4-2.2c1-0.4,2.9-1.6,2.8-2.6c0-0.9-2-1.6-4-2.3c0.3-0.1,0.5-0.1,0.7-0.2c1.6-0.4,2.6-0.7,3.2-1c1.3-0.6,2-1.9,3-3.8 c0.5-1,1.2-2.2,2.1-3.6c1.8-2.8,4.6-4.9,8.7-6.3c1.7-0.6,5.1-0.9,9.3-0.9c1.2,0,2,0,2,0l1.3,0l0.6-1.2c0,0,2.1-4.6,4-7.3 C60.3,11.2,64.3,7,66,6c0.8,0.9,2.6,3.9,4.3,9.7c1.8,6.3,3.1,20,3.1,20.2l0,0.3l0.1,0.3c0,0,1.5,3.6,0.9,11.1 c-0.5,5.9-6.2,11-8.9,13.5c-1.6,1.5-2.6,2.4-2,3.9c0.3,0.8,1.1,1.3,2,1.3c0.7,0,1.6-0.3,3.9-1.1c0.1,0,0.2-0.1,0.3-0.1v5.2 c0,2.5,0.3,7.1,3.7,7.1c3.5-0.1,3.4-4.2,3.4-9.4c0-2.2,0-3.9-0.1-5.1c0.9-0.2,1.8-0.4,2.7-0.6c0,1.4,0,3.6,0,6c0,4-0.3,8.3,3.7,8.3 c3.4,0,3.4-4.4,3.5-9.3c0-1.6,0-3.6,0.1-4.9c2.3,0.4,4.1,1.1,5.5,1.6c1.3,0.5,2.4,0.9,3.4,0.9c0.1,0,0.3,0,0.4,0 c2.3-0.2,9-2.1,12.9-7.7c1.8-2.6,2.3-5.7,1.4-8.5c-0.8-2.7-2.8-5-5.1-5.8c-1-0.4-2-0.5-2.8-0.7c-2.5-0.4-2.5-0.6-2.4-1.8 c0.1-2,2.6-2.2,3.7-2.2c1.7,0,3.6,0.5,5.5,1.3C114.5,41.6,117.1,49,115.1,56.3z"/>
    <path d="M39.9,44.7c2.6,0.7,4.2-1.9,4.9-3.6c0.9-2.3,0.7-5.7-1.2-5.9c-1.8-0.2-3.3,0.9-4.5,3.4C38.1,40.7,38.3,44.2,39.9,44.7z"/>
    <path d="M47.4,48.3c-0.1,0-3.2-0.2-5.3-0.3c-2,0-5.6-0.1-5.6-0.1s-1.2-0.2-1.2,1c0,1.2,1.2,1.1,1.2,1.1s3.6,0.1,5.6,0.1 c2,0,5.1,0.3,5.2,0.3h0.1c0.5,0,1-0.4,1-1C48.4,48.9,48,48.4,47.4,48.3z"/>
    <path d="M46,55.3c-0.1-0.1-2.6-1.3-5-2.1c-2.4-0.8-5-1.6-5-1.6c-0.6-0.2-1.1,0.1-1.3,0.7c-0.2,0.5,0.1,1.1,0.7,1.3 c0,0,2.6,0.8,5,1.6c2.2,0.8,4.7,2,4.8,2c0.1,0.1,0.3,0.1,0.5,0.1c0.4,0,0.8-0.2,1-0.6C46.8,56.2,46.5,55.6,46,55.3z"/>
    <path d="M38,57.3c-1.2-0.8-3.4-2.2-3.4-2.2s-0.8-0.6-1.5,0.3c-0.6,0.9,0.4,1.5,0.4,1.5s2.2,1.4,3.4,2.2c1.2,0.7,2.9,1.9,3,1.9 c0.2,0.1,0.4,0.2,0.6,0.2c0.3,0,0.7-0.2,0.9-0.5c0.3-0.5,0.2-1.1-0.3-1.5C41,59.2,39.2,58,38,57.3z"/>
    <path d="M67.4,21.5c-0.6-5.4-2.2-8.9-3-9.1c-0.5-0.2-3.6,3.5-5.1,7c-1.6,3.6-2.1,5.6-2,6.2c0.1,0.3,1.9,1.8,4.5,3.9 c2.8,2.2,4.5,3.5,5.3,3.5C67.8,32.9,68,26.9,67.4,21.5z"/>
  </g>
</svg>