<svg viewBox="0 0 128 128" xmlns="http://www.w3.org/2000/svg">
  <g>
    <path d="M36.13,52.9c1.22,0,2.2,0.12,3.55,0.55c0.74,0.24,1.44,0.63,2.2,0.82c1.18,0.3,2.38-0.68,1.99-1.94 c-0.24-0.78-1.06-1.47-1.67-1.96c-3.85-3.11-10.57-2.72-13.53,1.47c-0.56,0.83-0.21,2,0.71,2.38c0.8,0.33,1.38-0.12,2.08-0.41 C33.17,53.11,34.33,52.89,36.13,52.9z" fill="#231F20"/>
    <path d="M71.87,49.68c-2.7-1.61-6.2-1.79-9.08-0.54c-1.25,0.54-2.41,1.35-3.26,2.42c-0.71,0.9-0.75,2.33,0.55,2.73 c0.89,0.27,1.91-0.42,2.71-0.7c1.31-0.45,2.31-0.68,3.99-0.69c1.9-0.01,2.91,0.18,4.67,0.91c0.29,0.12,0.56,0.28,0.85,0.41 c1.53,0.62,2.7-1.09,1.94-2.38C73.72,50.93,72.76,50.21,71.87,49.68z" fill="#231F20"/>
    <ellipse cx="36.17" cy="60.01" fill="#231F20" rx="4.84" ry="5.01"/>
    <ellipse cx="66.77" cy="60.01" fill="#231F20" rx="4.84" ry="5.01"/>
    <path d="M59.85,77.04c-3.13,1.86-13.39,1.86-16.52,0c-1.8-1.07-3.63,0.57-2.89,2.2c0.73,1.6,6.33,5.33,11.17,5.33 s10.36-3.72,11.1-5.33C63.46,77.6,61.65,75.97,59.85,77.04z" fill="#231F20"/>
    <path d="M51.47,73.34c2.79,0,4.17-1.95,4.47-2.65c0.3-0.69-0.05-1.35-0.68-1.6c-0.1-0.04-0.21-0.07-0.32-0.08H48 c-0.11,0.01-0.21,0.04-0.32,0.08C47.05,69.35,46.7,70,47,70.7C47.3,71.39,48.68,73.34,51.47,73.34z" fill="#231F20"/>
    <path d="M123.37,38.4c-0.11-0.42-0.73-0.41-0.83,0.01l-1.15,4.68l-2,52.18c0,0-0.01,0.27-0.01,0.41 c0,1.54-1.19,2.64-2.73,2.64s-2.81-1.12-2.81-2.66c0-0.22,0.6-52.39,0.6-52.39l-1.19-5.13c-0.11-0.42-0.72-0.42-0.83,0l-1.34,5.05 l-0.62,52.15c0,1.7-1.02,2.99-2.73,2.99c-1.7,0-3.08-1.38-3.08-3.08l-0.3-52.17l-1.18-4.94c-0.11-0.41-0.71-0.41-0.83,0l-1.5,5.15 l0.03,51.86c0,1.76-1.22,3.19-2.98,3.19c-1.96,0-3.41-1.43-3.41-3.19L92.67,48.7c2.26-2.8,4.05-5.97,5.26-9.51 c1.74-5.11,2.33-8.55,1.97-10.75c0.06,0.06,0.1,0.11,0.1,0.11s-0.22-4.1-5.79-4.1c-0.77,0-1.65,0.08-2.64,0.26 c-4.03,0.73-9.22,1.51-14.96,2.17C72.09,15.94,67.56,7.55,61.86,6.86C60.24,6.67,56,6.13,51.71,6.12h-0.05 c-4.43,0-8.91,0.54-10.58,0.74c-5.7,0.68-10.23,9.08-14.76,20.03c-5.74-0.66-10.93-1.44-14.96-2.17c-0.99-0.18-1.87-0.26-2.64-0.26 c-5.56,0-5.79,4.1-5.79,4.1s0.04-0.05,0.11-0.11c-0.36,2.2,0.22,5.64,1.97,10.75c2.03,5.96,5.73,10.87,10.51,14.75 c0.19,1.77,0.37,2.81,0.37,2.81s0.01,0.01,0.01,0.01c-1.13,1.78-1.8,3.92-1.8,6.22c0,4.76,2.82,8.84,6.77,10.46 c4,12.31,12.73,19.71,22.53,22.3c-0.2-0.05-0.41-0.09-0.61-0.15v0.81l-0.06-0.08l-7.85,0.88l-0.12,10.35l-0.1-7.01 c0.06-0.01,0.12-0.02,0.18-0.03l0.03-2.83c-0.08,0.02-0.17,0.02-0.25,0.04l0-0.32l-9.16,1.52l-0.53,1.33 c-10.85,3.81-18.61,10.45-18.61,20.56V124H9.1v-3.19c0-6.04,3.3-11.03,9.82-14.81c1.41-0.82,2.95-1.57,4.61-2.25l-1.75,4.37 l2.31,3.58c0.13-0.05,0.26-0.09,0.4-0.12c-1.38,0.26-2.29,1.59-2.03,2.98v0c0.13,0.67,0.5,1.21,1.01,1.58c0,0-0.01,0-0.01-0.01 l-4.48,3.45l-0.2,4.42h66.01l-0.2-4.42l-4.48-3.45c0,0-0.01,0-0.01,0.01c0.51-0.37,0.89-0.92,1.01-1.58v0 c0.23-1.24-0.48-2.44-1.63-2.86l2.31-3.58l-1.72-4.3c1.61,0.67,3.12,1.41,4.49,2.21c6.49,3.78,9.78,8.75,9.78,14.78V124h2.78v-3.19 c0-10.06-7.68-16.68-18.45-20.5l-0.56-1.39l-9.16-1.52l0,0.35c-0.13-0.02-0.26-0.04-0.39-0.06l-0.01-0.48l-7.85-0.88l-0.06,0.08 v-0.95c-0.4,0.12-0.8,0.22-1.21,0.32c9.85-2.57,18.61-9.97,22.63-22.32c0,0,0,0,0,0s0,0,0,0c3.95-1.62,6.77-5.7,6.77-10.46 c0-2.09-0.56-4.04-1.51-5.71c0.18-0.32,0.3-0.52,0.3-0.52s0.22-1.24,0.43-3.33c0.43-0.36,0.83-0.74,1.24-1.12l0.79,26.38v18.71 c0,6.69,3.42,8.83,9.42,9.05h4.31v7.81c0,1.61,0.47,2.19,1.17,2.39V124h5v-7.45c0.7-0.29,1.17-0.93,1.17-2.29v-7.81h3.73 c5.19,0,7.18-3.42,7.33-7.61c0.11-0.65,0.17-1.33,0.17-2.03l2.16-53.4L123.37,38.4z M97.43,27.44c0.03,0,0.05,0.01,0.08,0.01 c-0.05,0-0.1,0-0.16,0C97.38,27.45,97.41,27.44,97.43,27.44z M30.62,113.44c-0.06,0.09-0.18,0.21-0.37,0.24l-5.17,0.98 c-0.04,0.01-0.07,0.01-0.11,0.01c-0.24,0-0.51-0.16-0.57-0.48c-0.04-0.2,0.03-0.35,0.09-0.44c0.06-0.09,0.18-0.21,0.37-0.24 l5.17-0.98c0.04-0.01,0.07-0.01,0.11-0.01c0.24,0,0.51,0.16,0.57,0.48C30.75,113.2,30.68,113.35,30.62,113.44z M34.7,113.34 l-2.03-0.04c0.02-0.22,0.02-0.44-0.03-0.67c-0.15-0.81-0.67-1.44-1.35-1.79l3.47-3.3L34.7,113.34z M73.44,112.52 c0.04,0,0.07,0,0.11,0.01l5.17,0.98c0.2,0.04,0.31,0.15,0.37,0.24c0.06,0.09,0.13,0.24,0.09,0.44c-0.06,0.31-0.33,0.48-0.57,0.48 c-0.04,0-0.07,0-0.11-0.01l-5.17-0.98c-0.2-0.04-0.31-0.15-0.37-0.24c-0.06-0.09-0.13-0.24-0.09-0.44 C72.93,112.69,73.2,112.52,73.44,112.52z M68.91,100.56l-0.09,6.98l3.47,3.3c-0.68,0.35-1.2,0.98-1.35,1.79 c-0.04,0.22-0.04,0.44-0.03,0.66c0,0,0,0,0,0l-2.17,0.04l-0.15-12.83C68.69,100.53,68.8,100.54,68.91,100.56z M76.62,26.89 c-0.04,0-0.08,0.01-0.12,0.01c0,0,0,0,0,0C76.54,26.9,76.58,26.89,76.62,26.89z M41.43,9.71c1.13-0.13,3.54-0.42,6.33-0.59L51.71,9 c3.9,0,7.85,0.48,9.54,0.68l0.27,0.03c4.1,0.49,8.31,8.68,11.14,15.16c-4.22-1.92-11.65-4.5-21.18-4.5 c-9.53,0-16.97,2.58-21.18,4.5C33.11,18.4,37.33,10.2,41.43,9.71z M26.45,26.9C26.44,26.9,26.45,26.9,26.45,26.9 c-0.04,0-0.08-0.01-0.12-0.01C26.36,26.89,26.41,26.9,26.45,26.9z M16.1,62.99c0-1.52,0.35-2.94,0.95-4.2 c0.48,0.85,1.06,1.86,1.63,2.85c0.22,3.28,0.7,6.33,1.42,9.15C17.7,69.15,16.1,66.27,16.1,62.99z M36.84,98.96l4.99-0.56l7.04,9.56 l-12.24,7.54L36.84,98.96z M44.67,96.06c2.23,0.49,4.51,0.75,6.8,0.75c2.41,0,4.82-0.27,7.17-0.82V99l-6.62,9.1h-0.59l-6.63-9.27 v-2.74C44.76,96.08,44.71,96.07,44.67,96.06z M50.75,113.68l-7.18-0.15l8.04-4.95l0.21,0l8,4.93L50.75,113.68z M61.61,98.4 l4.99,0.56l0.2,16.54l-12.24-7.54L61.61,98.4z M72.71,85.69c-5.56,5.88-13.1,9.11-21.24,9.11c-8.14,0-15.68-3.24-21.24-9.11 c-5.05-5.34-8.2-12.58-9.27-21.18c0.08-6.73,2.39-17.3,4.28-22.99c6.45,3.45,14.73,6.06,25.58,6.11c0.01,0,0.02,0,0.03,0 c0.21,0,0.41-0.01,0.62-0.01c0.21,0,0.41,0.01,0.62,0.01c0.01,0,0.02,0,0.03,0c11.13-0.05,19.56-2.79,26.08-6.37c0,0,0,0,0,0 c1.57,4.62,3.45,12.75,4.12,19.3C81.81,70.9,78.52,79.55,72.71,85.69z M82.84,70.78C82.84,70.78,82.84,70.78,82.84,70.78 c0.63-2.48,1.09-5.15,1.33-7.99c0.63-1.09,1.35-2.35,1.97-3.43c0.44,1.11,0.69,2.34,0.69,3.63C86.84,66.27,85.24,69.15,82.84,70.78 z M52.09,44.76c-0.09,0-0.17,0-0.25,0c-0.12,0-0.24-0.01-0.38-0.01c-0.12,0-0.24,0-0.36,0.01c-0.08,0-0.16,0-0.26,0h0 c-21.39-0.09-32.26-10.66-38.75-17c9.95,1.73,24.98,3.53,38.8,3.59l0.1,0l0.25,0l0.24,0l0.22,0l0.25,0l0.1,0 c13.82-0.06,28.86-1.85,38.8-3.59C84.36,34.1,73.5,44.66,52.09,44.76z" fill="#231F20"/>
  </g>
</svg>