<svg viewBox="0 0 128 128" xmlns="http://www.w3.org/2000/svg">
  <path d="M8,4H4v120h120v-4v-17.4v-2V83.3v-2V64v-2V44.7v-2V25.4v-2V4H8z M89.3,42.7H8V25.4h81.3c0,0.2-0.1,0.3-0.1,0.5V42.7z M38.7,120c0-3.1,0-9.6,0-17.4h16.9V120H38.7z M38.7,100.6c0-5.5,0-11.5,0-17.3h16.9v17.3H38.7z M21.9,100.6H8V83.3h13.9V100.6z M8,81.3V64h13.9v17.3H8z M8,102.6h13.9V120H8V102.6z M72.4,120v-17.4h16.9v16.8c0,0.2,0,0.4,0.1,0.6H72.4z M72.4,100.6V83.3h16.9 v17.3H72.4z M72.4,81.3v-6.5c0-1.4-1.1-2.5-2.5-2.5H58c-1.4,0-2.5,1.1-2.5,2.5v6.5H38.7c0-6.5,0-12.7,0-17.3h50.6v17.3H72.4z M38.7,62c0-4.1,0-6.6,0-6.6c0-1.4-1.1-2.5-2.5-2.5H24.4c-1.4,0-2.5,1.1-2.5,2.5V62H8V44.7h81.3V62C89.3,62,38.7,62,38.7,62z M122,120h-16c0-0.2,0.1-0.4,0.1-0.6v-16.8H122V120z M122,100.6h-15.9V83.3H122V100.6z M122,81.3h-15.9V64H122V81.3z M122,62h-15.9 V44.7H122V62z M122,42.7h-15.9V25.9c0-0.2,0-0.4-0.1-0.5h16V42.7z M8,23.4V6h114v17.4H8z"/>
</svg>