<svg viewBox="0 0 128 128" xmlns="http://www.w3.org/2000/svg">
  <path d="M56.03,99.95H39.77c-0.63,0-1.14,0.51-1.14,1.14c0,0.63,0.51,1.14,1.14,1.14h16.26c0.61-0.05,1.1-0.54,1.14-1.14 C57.17,100.46,56.66,99.95,56.03,99.95z"/>
  <path d="M39.77,27.92h16.26c0.63,0,1.14-0.51,1.14-1.14c0-0.63-0.51-1.14-1.14-1.14H39.77c-0.63,0-1.14,0.51-1.14,1.14 C38.63,27.41,39.14,27.92,39.77,27.92z"/>
  <path d="M31.87,27.92c0.63,0,1.14-0.51,1.14-1.14c0-0.63-0.51-1.14-1.14-1.14c-0.61,0.05-1.1,0.54-1.14,1.14 C30.73,27.41,31.24,27.92,31.87,27.92z"/>
  <path d="M116,4H11.5C7.37,4.03,4.03,7.37,4,11.5V116c0,4.42,3.58,8,8,8h104c4.42,0,8-3.58,8-8V12C124,7.58,120.42,4,116,4z M71.02,101.77c0,1.6-1.08,3.01-2.63,3.43c-2.17,0.57-8.24,2.4-20.49,2.4s-19.23-2.06-20.49-2.4c-1.53-0.45-2.59-1.84-2.63-3.43 V26.33c0-1.6,1.08-3.01,2.63-3.43c1.14-0.34,8.24-2.4,20.49-2.4s18.2,1.83,20.49,2.4c1.55,0.42,2.62,1.82,2.63,3.43v18.08h-4.58 V32.63c0-0.05,0-0.09,0-0.14c-0.03-0.59-0.55-1.04-1.14-1H30.5c-0.63,0-1.14,0.51-1.14,1.14v62.73c0,0.05,0,0.09,0,0.14 c0.03,0.59,0.55,1.04,1.14,1h34.8c0.63,0,1.14-0.51,1.14-1.14V84.1h4.58V101.77z M62.55,64.08c0,2.69-0.64,5.16-1.92,7.4 c-1.28,2.24-3.04,4.01-5.27,5.31c-2.23,1.29-4.72,1.94-7.46,1.94c-2.74,0-5.23-0.64-7.46-1.94c-2.23-1.29-3.99-3.06-5.27-5.31 c-1.28-2.25-1.92-4.71-1.92-7.4s0.64-5.16,1.92-7.4c1.28-2.25,3.04-4.02,5.27-5.31s4.72-1.94,7.46-1.94c2.74,0,5.23,0.65,7.46,1.94 c2.23,1.29,3.99,3.06,5.27,5.31C61.91,58.93,62.55,61.39,62.55,64.08z M84.36,55.07h-12.5v6.82H83.1v5.01H71.86v11.2h-5.29V50.06 h17.79V55.07z M106.81,55.07H94.3v6.82h11.24v5.01H94.3v11.2h-5.29l0.01-28.04h17.79V55.07z"/>
  <path d="M52.64,55.66c-1.44-0.81-3.02-1.21-4.74-1.21c-1.72,0-3.3,0.41-4.72,1.21c-1.42,0.81-2.55,1.95-3.37,3.41 c-0.82,1.46-1.23,3.13-1.23,5.01c0,1.88,0.41,3.55,1.23,5.01c0.82,1.46,1.95,2.6,3.37,3.41s3,1.21,4.72,1.21 c1.72,0,3.31-0.4,4.74-1.21c1.44-0.81,2.57-1.95,3.39-3.41c0.82-1.46,1.23-3.13,1.23-5.01s-0.41-3.55-1.23-5.01 C55.21,57.61,54.08,56.47,52.64,55.66z"/>
</svg>