<svg viewBox="0 0 128 128" xmlns="http://www.w3.org/2000/svg">
  <g>
    <ellipse cx="96.65" cy="75.06" rx="7.46" ry="10.19" transform="matrix(0.9941 -0.1082 0.1082 0.9941 -7.5541 10.8982)"/>
    <ellipse cx="45.49" cy="24.46" rx="7.7" ry="10.06" transform="matrix(0.9982 -0.0597 0.0597 0.9982 -1.3791 2.7594)"/>
    <ellipse cx="62.97" cy="30.56" rx="9.6" ry="7.7" transform="matrix(0.1196 -0.9928 0.9928 0.1196 25.0945 89.4269)"/>
    <ellipse cx="27.21" cy="27.8" rx="7.83" ry="10.74" transform="matrix(0.9734 -0.229 0.229 0.9734 -5.6431 6.9698)"/>
    <path d="M89.66,94.36c15.11-8.45,32.4,3.47,30.13,12.58c-2.44,9.76-11.73,4.5-18.68,7.04c-4.27,1.56-10.79,10.32-18.3,4.97 C76.26,114.28,79.8,99.87,89.66,94.36z"/>
    <path d="M38.16,40.41c10.8-2.83,25.86,5.56,24.14,15.13c-1.62,9.01-14.14,5.08-19.22,6.97c-6.62,2.46-14.92,9.71-19.64,2.46 C18.12,56.78,28.68,42.9,38.16,40.41z"/>
    <ellipse cx="12.91" cy="40.93" rx="7.71" ry="9.95" transform="matrix(0.866 -0.5 0.5 0.866 -18.7352 11.9393)"/>
    <ellipse cx="79.08" cy="82.36" rx="8.01" ry="10.19" transform="matrix(0.866 -0.5 0.5 0.866 -30.585 50.5741)"/>
    <ellipse cx="67.22" cy="97.3" rx="7.46" ry="10.19" transform="matrix(0.8156 -0.5786 0.5786 0.8156 -43.9049 56.8354)"/>
    <ellipse cx="115.06" cy="78.32" rx="7.43" ry="9.46" transform="matrix(0.9981 -0.0615 0.0615 0.9981 -4.5989 7.2244)"/>
  </g>
</svg>