<svg viewBox="0 0 128 128" xmlns="http://www.w3.org/2000/svg">
  <g>
    <path d="M114.7,85.4c-1,0-2,0.4-3.1,1.4c-3.4,3.2,9.8,15.8-4.3,19.9c0,0-1.2,0.3-3.2,0.3c-0.1,0-0.3,0-0.4,0 c0.3-6.4-1.8-14.2-8.9-21.5c-10.7-11.1-16.7-16.9-20-19.8c1-1.3,1.9-2.6,2.7-4L85,64c0.1,0,0.2,0.1,0.4,0.1c0.5,0,1-0.3,1.2-0.9 c0.2-0.6-0.2-1.3-0.8-1.5l-7.1-2.2c0.6-1.4,1.2-2.8,1.6-4.3l5.1-0.2c0.7,0,1.2-0.6,1.2-1.3s-0.6-1.2-1.3-1.2l-4.4,0.2 c0.4-1.9,0.6-3.8,0.6-5.9l2.7-1.2c0.6-0.3,0.9-1,0.6-1.6s-1-0.9-1.6-0.6l-1.7,0.8c-0.1-1.6-0.3-3.2-0.6-4.8 c-0.6-3.4-1.6-6.5-2.9-9.3C81.4,23,79.2,11.4,78.3,8c-0.7-2.5-2.8-4.2-5.2-4.2c-0.5,0-0.9,0.1-1.4,0.2c-5,1.4-11.6,4.3-16,8.8 c-2.3-0.5-4.8-0.7-7.2-0.7c-2.3,0-4.5,0.2-6.8,0.6c-4.7,0.8-9.2,2.5-13.1,4.9c-4.5-2-9.9-2.7-14.5-2.7v-0.1c-1.2,0-2.4,0-3.5,0.1 c-3,0.2-5.1,3-4.8,6.1c0.4,3.5,2.3,15,7.9,20.5c-0.2,3.1-0.1,6.3,0.5,9.8c0.3,1.6,0.7,3.2,1.1,4.7l-1.9-0.1c-0.7,0-1.3,0.5-1.3,1.2 c0,0.7,0.5,1.3,1.2,1.3l2.9,0.2c0.7,1.9,1.6,3.7,2.6,5.3l-4.2,1.4c-0.6,0.2-1,0.9-0.8,1.6c0.2,0.5,0.7,0.8,1.2,0.8 c0.1,0,0.3,0,0.4-0.1l4.8-1.6c0.9,1.3,1.9,2.4,3,3.5L17.4,74c-0.5,0.4-0.6,1.2-0.2,1.7c0.2,0.3,0.6,0.5,1,0.5 c0.3,0,0.5-0.1,0.8-0.3l6.1-4.7c3.9,3.3,8.5,5.5,13.4,6.6c-0.3,4,0,9.3,2.2,14l3.4,14.8c0,0.1,0,0.1,0,0.2c0,0.5,0.1,0.9,0.4,1.2 l0.3,1.2c0,0-1-0.2-2.3-0.2c-3.2,0-8.7,1.1-8.5,8.7c0.1,4.5,4,6.1,7.9,6.3l9.4-0.5c1.6,0.6,3.4,1,5.2,1l10.3-0.5 c1.7-0.1,3-1.3,4-2.5c0.2,0.6,0.4,1.2,0.8,1.8l1.4-0.8c0.2,0.4,0.4,0.7,0.6,1c1.6,0.8,4,1.1,6.5,1.1c2.1,0,4.3-0.2,6.1-0.2 c8.2-0.2,9.2-0.4,13.2-4.7c1-1,2-2.7,2.8-4.8c1.5,0.3,3,0.6,4.6,0.6c3.2,0,6.5-0.9,9.5-3.3C125.2,104.9,121.3,85.4,114.7,85.4z M76.7,27.6c0,0,0.1-0.1,0.1-0.2C76.8,27.5,76.8,27.6,76.7,27.6z M72.2,5.7c0.3-0.1,0.6-0.1,0.9-0.1c1.5,0,2.9,1.1,3.3,2.7 c0.1,0.4,0.2,0.8,0.3,1.2c-0.8-0.4-1.8-0.1-2.7,0.2c-2.6,1.1-5,2.8-6.9,4.9c-0.5,0.5-0.9,1.1-1.3,1.8c-2.4-1.4-5.1-2.5-7.8-3.3 C62,9.6,67.5,7.1,72.2,5.7z M14,38.8c-0.1,0-0.2-0.1-0.2-0.2C13.9,38.7,13.9,38.7,14,38.8L14,38.8z M10.5,21.2 c-0.9,0-2,0.1-2.6,0.8c-0.1-0.5-0.1-0.9-0.1-1.2c-0.1-1,0.2-2,0.8-2.8c0.6-0.7,1.3-1.1,2.2-1.1c1.1-0.1,2.2-0.1,3.3-0.1v-0.1 c4.4,0,8.8,0.7,12.4,2.1c-2.3,1.6-4.3,3.6-6.1,5.7c-0.5-0.4-1.1-0.8-1.7-1.1C16.2,22.1,13.4,21.3,10.5,21.2z M26.7,69.9l3.2-2.5 c0.5-0.4,0.6-1.2,0.2-1.7c-0.4-0.5-1.2-0.6-1.7-0.2l-3.6,2.8c-0.9-0.9-1.8-1.9-2.6-3l5.7-1.9c0.6-0.2,1-0.9,0.8-1.6s-0.9-1-1.6-0.8 l-6.4,2.1c-0.9-1.4-1.7-2.9-2.4-4.5l8.4,0.5h0.1c0.6,0,1.2-0.5,1.2-1.2c0-0.7-0.5-1.3-1.2-1.3L17.3,56c-0.5-1.6-1-3.4-1.3-5.2 c-1.7-9.4,0.2-18,5.4-24.7c3.4-4.3,8-7.7,13.5-9.8L37.2,29c0.2,1,1.1,1.8,2.1,1.8c0.1,0,0.3,0,0.4,0c1.2-0.2,2-1.3,1.7-2.5 l-2.3-12.7c0-0.1-0.1-0.3-0.1-0.4c0.9-0.2,1.9-0.5,2.9-0.6c0.9-0.2,1.8-0.3,2.6-0.4c0,0.1,0,0.3,0,0.4l2.3,12.7 c0.2,1,1.1,1.8,2.1,1.8c0.1,0,0.3,0,0.4,0c1.2-0.2,2-1.3,1.7-2.5L48.7,14c7.1,0.1,13.7,2.3,18.9,6.4c5.8,4.5,9.6,11.2,11.1,19.3 c0.3,1.8,0.5,3.6,0.6,5.3l-8.7,3.9c-0.6,0.3-0.9,1-0.6,1.6c0.2,0.5,0.7,0.7,1.1,0.7c0.2,0,0.3,0,0.5-0.1l7.6-3.4 c-0.1,1.7-0.3,3.4-0.7,5.1L72.2,53c-0.7,0-1.2,0.6-1.2,1.3s0.6,1.2,1.2,1.2l5.9-0.2c-0.4,1.2-0.9,2.5-1.4,3.6l-4.2-1.3 c-0.7-0.2-1.3,0.2-1.5,0.8c-0.2,0.6,0.2,1.3,0.8,1.5l3.8,1.2c-0.6,1.1-1.3,2.1-2.1,3.1C68.7,70.3,61.4,74.5,53,76 c-2.2,0.4-4.4,0.6-6.5,0.6C39.8,76.6,32.5,74.6,26.7,69.9z M48,121.5l-6.2,0.4c-2.2-0.1-5.8-0.8-5.9-4.3c-0.1-2.2,0.4-3.9,1.5-5 c1.3-1.4,3.5-1.7,5-1.7c1.1,0,1.9,0.2,1.9,0.2l3,0.6l-0.7-2.9c1.4,0,2.8-0.4,4-1.1c1.6-0.9,1.3-2.9-0.2-3.7c-1.3-0.6-2.6-1.1-4-1.4 c-0.4-0.1-0.9-0.1-1.3,0l-1.5-6.4c1.5,1.6,3.3,2.9,5.6,4c2.8,1.3,5.2,2.7,7.1,4.1l-0.5,4.8c-2-0.3-4.8-0.2-6.8,1.3 c-1.9,1.4-2.8,3.7-2.7,7C46.3,119.1,47,120.5,48,121.5z M95.8,111.9c1.7,0,3.8-0.4,5.4-1.1c-0.7,3.6-2,6-3.2,7.3 c-3.6,3.7-3.9,3.8-11.9,4c-0.7,0-1.4,0.1-2.1,0.1c-1.3,0.1-2.6,0.1-3.9,0.1c-3.2,0-5.3-0.4-6.2-1.2c-0.7-1.4-0.6-3.2,0.2-4.6 c0.9-1.5,2.6-2.6,4.4-2.6c0.7,0,1.2-0.4,1.4-1.1c0.2-0.6,0-1.3-0.6-1.7c-2.3-1.6-3.7-4.4-3.6-7.1c0.1-2.8,1.9-6.3,4.8-7.3l-1-2.8 c-2.5,0.9-4.3,2.8-5.5,5l0.8-14.1l-2-0.1l-1.9,31.4c-0.2,0.7-0.4,1.4-0.5,2.1c-0.7,1.2-2.2,3.5-3.8,3.6l-10.3,0.5 c-1.8-0.1-7.7-0.6-7.8-5.1c-0.1-2.5,0.6-4.3,1.9-5.3c2.8-2,7.8-0.4,7.8-0.4l1.4,0.5l-0.4-6.1c1.8,0.4,4.2-0.5,5.7-1.3 c1.8-0.9,2.4-3.2,0.6-4.5c-1.8-1.2-4.6-1.1-6.6-0.5c0,0,0,0-0.1,0l-0.4-5.3c0.3,0.1,0.6,0.2,0.9,0.2c2.2,0.2,5.2-0.3,7.2-1.4 c1.8-1,1.8-3.2-0.1-4c-2.6-1-5.6-1.1-8.4-0.9l-0.2-3.4l-2,0.1l1.1,17c-1.9-1.3-4.2-2.6-6.8-3.8c-5.8-2.7-9.1-7.8-9.8-15.3 c-0.2-1.8-0.2-3.5-0.1-5.1c2,0.3,4,0.5,6,0.5c2.3,0,4.6-0.2,6.9-0.6c7.8-1.4,15-5.2,20.1-10.8c0.7,0.7,1.6,1.5,2.6,2.4 c0,0-0.1,0-0.1,0.1c-2.9,2.1-5.3,4.8-7.8,7.4c-0.4,0.4-0.7,0.7-0.9,1.2s-0.3,1,0,1.5s0.9,0.7,1.4,0.7c0.6,0,1.1-0.2,1.6-0.4 c2.5-1,5.1-1.8,7.5-3c0.7-0.3,1.4-0.7,2-1.3c0.6-0.6,0.8-1.3,0.8-1.9c1,1,2.1,2.1,3.4,3.3c-1.9,1.3-3.9,3-5.4,4.9 c-0.7,0.8-2.8,3.7-2.1,4.8c0.9,1.6,8.7-2.4,10.1-2.9c1.4-0.5,2.2-1,2.2-2.1c1.5,1.5,3.1,3.2,4.9,5c5.7,5.8,7.9,12,8.2,17.4 c-0.4-0.2-1-0.3-1.6-0.2c-2.1,0.4-4.2,0.8-6.2,1.5c-1.7,0.6-4.2,1.3-5.1,2.5C85.9,111.2,92.9,112,95.8,111.9z M73.1,113l0.3-4.6 c0.5,1.2,1.1,2.3,1.9,3.2C74.5,111.9,73.8,112.4,73.1,113z M106.3,113.2c-1.2,0-2.3-0.2-3.5-0.5c0.4-1.1,0.7-2.3,0.8-3.7 c0.2,0,0.4,0,0.6,0c0.5,0,0.9,0,1.3,0c-0.3,1.3-0.1,2.6,0.5,3.8c0.1,0.1,0.2,0.2,0.3,0.3V113.2z M109.8,113c0-0.2-0.1-0.3-0.2-0.4 c-0.9-1.2-1.2-2.8-0.9-4.2c0.9-0.3,1.7-0.6,2.4-1c0.1,1.7,0.9,3.2,2.3,4.2C112.3,112.2,111.1,112.7,109.8,113z M115.8,109.8 c-1.4-0.9-2.1-2.3-2-4c0-0.1,0-0.2,0-0.3c0.4-0.4,0.8-0.9,1.1-1.4c0.8,1.1,2,1.9,3.3,2.1C117.6,107.5,116.9,108.7,115.8,109.8z M119.1,103.3c-1.3-0.4-2.3-1.1-3.1-2.2c0.4-2.4-0.3-4.9-1.1-7.2c1.4,0.4,2.9,0,3.8-1c0.8,2.8,1,6.1,0.6,9.1 C119.2,102.4,119.2,102.8,119.1,103.3z"/>
    <path d="M29.4,37.9c-3,0.5-4.9,3.7-4.3,7c0.6,3.4,3.5,5.6,6.5,5.1s4.9-3.7,4.3-7C35.3,39.7,32.4,37.4,29.4,37.9z"/>
    <path d="M64.2,44.1c3-0.5,4.9-3.7,4.3-7C67.9,33.8,65,31.5,62,32s-4.9,3.7-4.3,7C58.3,42.3,61.2,44.6,64.2,44.1z"/>
    <path d="M50.9,61.8c2.5-0.5,4.9,0.4,6.5,2.2c0.2-0.2,0.3-0.5,0.5-0.7c0.3-0.5,0.5-1,0.7-1.5c0.4-1.3,0.5-2.7,0.3-4.1 c1.6-0.5,3-1.5,4.1-2.8c0.3-0.4,0.2-1-0.2-1.3c-0.4-0.3-1-0.2-1.3,0.2c-1,1.2-2.3,2-3.8,2.3c-3.3,0.6-6.6-1.5-7.4-4.7l2.6-4.2 c0.9-1.5-0.4-3.4-2.1-3.1l-6.6,1.2c-1.7,0.3-2.3,2.5-0.9,3.6l4,3.1c0.4,0.3,0.8,0.4,1.3,0.4c0,1.3-0.4,2.6-1.1,3.7 c-1,1.4-2.4,2.4-4.1,2.7c-1.5,0.3-3.1,0-4.4-0.8c-0.4-0.3-1-0.1-1.3,0.3c-0.4,0.5-0.2,1,0.2,1.3c1.3,0.8,2.7,1.1,4.2,1.1h0.1 c0.3,1.4,0.9,2.7,1.7,3.8c0.3,0.4,0.7,0.8,1.1,1.2c0.2,0.2,0.4,0.3,0.7,0.5C46.5,64,48.5,62.3,50.9,61.8z"/>
    <path d="M96.1,102.6c1.2-0.2,2.4-0.7,3.3-1.5c0.8-0.3,1.3-1.1,1.2-2.1c-0.3-2-1-3.9-2.6-5.2c-0.3-0.2-0.6-0.3-0.9-0.3 c-0.4-0.5-1-0.9-1.9-0.6c-3.3,1-6.4,2.4-9.2,4.4c-1.8,1.3-3.3,3.9-0.7,5.4c1.2,0.5,3.4,0.3,4.9,0.3C92.1,103,94.2,102.9,96.1,102.6 z"/>
  </g>
</svg>