<svg viewBox="0 0 128 128" xmlns="http://www.w3.org/2000/svg">
  <g>
    <path d="M104.02,24l-80.05-0.12C8.91,23.88,4,29.99,4,42.74v42.4C4,95.57,7.24,104,23.98,104l80.05,0.12 c15.03,0,19.98-6.44,19.98-18.86v-42.4C124,28.85,118.68,24,104.02,24z M18.41,41.92c0-2.12,1.67-3.8,3.8-3.8h83.53 c2.12,0,3.8,1.67,3.8,3.8v24.69c0,2.12-1.67,3.8-3.8,3.8H22.21c-2.12,0-3.8-1.67-3.8-3.8V41.92z M30.61,94.58h-8.68 c-3.87,0-5.85-3.04-5.85-6.9c0-3.87,1.98-6.9,5.85-6.9h8.68c3.87,0,5.85,3.04,5.85,6.9C36.46,91.27,34.47,94.58,30.61,94.58z M55.77,94.58h-8.68c-3.87,0-5.86-3.31-5.85-6.9c0-3.86,1.98-6.9,5.85-6.9h8.68c3.87,0,5.85,3.03,5.85,6.9 C61.62,91.54,59.64,94.58,55.77,94.58z M80.91,94.58h-8.68c-3.87,0-5.85-3.04-5.85-6.9c0-3.87,1.98-6.9,5.85-6.9h8.68 c3.87,0,5.85,3.04,5.85,6.9C86.77,91.27,84.78,94.58,80.91,94.58z M106.07,94.58h-8.68c-3.87,0-5.85-3.04-5.85-6.9 c0-3.87,1.98-6.9,5.85-6.9h8.68c3.87,0,5.85,3.04,5.85,6.9C111.9,91.27,109.92,94.58,106.07,94.58z"/>
    <path d="M39.09,53.19c0.25,0.25,0.66,0.25,0.91,0l1.63-1.63c0.12-0.12,0.19-0.28,0.19-0.46v-4.54 c0-0.17-0.06-0.33-0.19-0.46L40,44.47c-0.25-0.25-0.66-0.25-0.91,0l-1.63,1.63c-0.12,0.13-0.19,0.29-0.19,0.46v4.54 c0,0.17,0.06,0.33,0.19,0.46L39.09,53.19z" enable-background="new "/>
    <path d="M39.09,64.05c0.25,0.25,0.66,0.25,0.91,0l1.63-1.63c0.12-0.12,0.19-0.28,0.19-0.46v-4.54 c0-0.17-0.06-0.33-0.19-0.46L40,55.33c-0.25-0.25-0.66-0.25-0.91,0l-1.63,1.63c-0.12,0.13-0.19,0.29-0.19,0.46v4.54 c0,0.17,0.06,0.33,0.19,0.46L39.09,64.05z" enable-background="new "/>
    <path d="M47.45,53.19c0.25,0.25,0.66,0.25,0.91,0l1.63-1.63c0.12-0.12,0.19-0.28,0.19-0.46v-4.54 c0-0.17-0.06-0.33-0.19-0.46l-1.63-1.63c-0.25-0.25-0.66-0.25-0.91,0l-1.63,1.63c-0.12,0.13-0.19,0.29-0.19,0.46v4.54 c0,0.17,0.06,0.33,0.19,0.46L47.45,53.19z" enable-background="new "/>
    <path d="M57.53,46.56v4.54c0,0.17,0.06,0.33,0.19,0.46l1.63,1.63c0.25,0.25,0.66,0.25,0.91,0 l1.63-1.63c0.12-0.12,0.19-0.28,0.19-0.46v-4.54c0-0.17-0.06-0.33-0.19-0.46l-1.63-1.63c-0.25-0.25-0.66-0.25-0.91,0l-1.63,1.63 C57.6,46.23,57.53,46.39,57.53,46.56z" enable-background="new "/>
    <path d="M60.26,55.33c-0.25-0.25-0.66-0.25-0.91,0l-1.63,1.63c-0.12,0.13-0.19,0.29-0.19,0.46v4.54 c0,0.17,0.06,0.33,0.19,0.46l1.63,1.63c0.25,0.25,0.66,0.25,0.91,0l1.63-1.63c0.12-0.12,0.19-0.28,0.19-0.46v-4.54 c0-0.17-0.06-0.33-0.19-0.46L60.26,55.33z" enable-background="new "/>
    <path d="M51.13,45.49c0.12,0.12,0.28,0.19,0.46,0.19h4.55c0.17,0,0.33-0.06,0.46-0.19l1.63-1.63 c0.25-0.25,0.25-0.66,0-0.91l-1.63-1.63c-0.13-0.12-0.29-0.19-0.46-0.19h-4.55c-0.17,0-0.33,0.06-0.46,0.19l-1.63,1.63 c-0.25,0.25-0.25,0.66,0,0.91L51.13,45.49z" enable-background="new "/>
    <path d="M51.13,56.35c0.12,0.12,0.28,0.19,0.46,0.19h4.55c0.17,0,0.33-0.06,0.46-0.19l1.63-1.63 c0.25-0.25,0.25-0.66,0-0.91l-1.63-1.63c-0.13-0.12-0.29-0.19-0.46-0.19h-4.55c-0.17,0-0.33,0.06-0.46,0.19l-1.63,1.63 c-0.25,0.25-0.25,0.66,0,0.91L51.13,56.35z" enable-background="new "/>
    <path d="M56.6,63.04c-0.13-0.12-0.29-0.19-0.46-0.19h-4.55c-0.17,0-0.33,0.06-0.46,0.19l-1.63,1.63 c-0.25,0.25-0.25,0.66,0,0.91l1.63,1.63c0.12,0.12,0.28,0.19,0.46,0.19h4.55c0.17,0,0.33-0.06,0.46-0.19l1.63-1.63 c0.25-0.25,0.25-0.66,0-0.91L56.6,63.04z" enable-background="new "/>
    <path d="M67.71,53.19c0.25,0.25,0.66,0.25,0.91,0l1.63-1.63c0.12-0.12,0.19-0.28,0.19-0.46v-4.54 c0-0.17-0.06-0.33-0.19-0.46l-1.63-1.63c-0.25-0.25-0.66-0.25-0.91,0l-1.63,1.63c-0.12,0.13-0.19,0.29-0.19,0.46v4.54 c0,0.17,0.06,0.33,0.19,0.46L67.71,53.19z" enable-background="new "/>
    <path d="M77.8,46.56v4.54c0,0.17,0.06,0.33,0.19,0.46l1.63,1.63c0.25,0.25,0.66,0.25,0.91,0l1.63-1.63 c0.11-0.12,0.18-0.28,0.19-0.46v-4.54c0-0.17-0.06-0.33-0.19-0.46l-1.63-1.63c-0.25-0.25-0.66-0.25-0.91,0l-1.63,1.63 C77.87,46.23,77.8,46.39,77.8,46.56z" enable-background="new "/>
    <path d="M80.53,55.33c-0.25-0.25-0.66-0.25-0.91,0l-1.63,1.63c-0.12,0.13-0.19,0.29-0.19,0.46v4.54 c0,0.17,0.06,0.33,0.19,0.46l1.63,1.63c0.25,0.25,0.66,0.25,0.91,0l1.63-1.63c0.11-0.12,0.18-0.28,0.19-0.46v-4.54 c0-0.17-0.06-0.33-0.19-0.46L80.53,55.33z" enable-background="new "/>
    <path d="M71.39,45.49c0.12,0.12,0.28,0.19,0.46,0.19h4.55c0.17,0,0.33-0.06,0.46-0.19l1.63-1.63 c0.25-0.25,0.25-0.66,0-0.91l-1.63-1.63c-0.13-0.12-0.29-0.19-0.46-0.19h-4.55c-0.17,0-0.33,0.06-0.46,0.19l-1.63,1.63 c-0.25,0.25-0.25,0.66,0,0.91L71.39,45.49z" enable-background="new "/>
    <path d="M71.39,56.35c0.12,0.12,0.28,0.19,0.46,0.19h4.55c0.17,0,0.33-0.06,0.46-0.19l1.63-1.63 c0.25-0.25,0.25-0.66,0-0.91l-1.63-1.63c-0.13-0.12-0.29-0.19-0.46-0.19h-4.55c-0.17,0-0.33,0.06-0.46,0.19l-1.63,1.63 c-0.25,0.25-0.25,0.66,0,0.91L71.39,56.35z" enable-background="new "/>
    <path d="M76.86,63.04c-0.13-0.12-0.29-0.19-0.46-0.19h-4.55c-0.17,0-0.33,0.06-0.46,0.19l-1.63,1.63 c-0.25,0.25-0.25,0.66,0,0.91l1.63,1.63c0.12,0.12,0.28,0.19,0.46,0.19h4.55c0.17,0,0.33-0.06,0.46-0.19l1.63-1.63 c0.25-0.25,0.25-0.66,0-0.91L76.86,63.04z" enable-background="new "/>
    <path d="M87.98,53.19c0.25,0.25,0.66,0.25,0.91,0l1.63-1.63c0.11-0.12,0.18-0.28,0.19-0.46v-4.54 c0-0.17-0.06-0.33-0.19-0.46l-1.63-1.63c-0.25-0.25-0.66-0.25-0.91,0l-1.63,1.63c-0.12,0.13-0.19,0.29-0.19,0.46v4.54 c0,0.17,0.06,0.33,0.19,0.46L87.98,53.19z" enable-background="new "/>
    <path d="M98.05,46.56v4.54c0,0.17,0.06,0.33,0.19,0.46l1.63,1.63c0.25,0.25,0.66,0.25,0.91,0 l1.63-1.63c0.13-0.12,0.2-0.28,0.19-0.46v-4.54c0-0.17-0.06-0.33-0.19-0.46l-1.63-1.63c-0.25-0.25-0.66-0.25-0.91,0l-1.63,1.63 C98.12,46.23,98.05,46.39,98.05,46.56z" enable-background="new "/>
    <path d="M87.98,64.05c0.25,0.25,0.66,0.25,0.91,0l1.63-1.63c0.11-0.12,0.18-0.28,0.19-0.46v-4.54 c0-0.17-0.06-0.33-0.19-0.46l-1.63-1.63c-0.25-0.25-0.66-0.25-0.91,0l-1.63,1.63c-0.12,0.13-0.19,0.29-0.19,0.46v4.54 c0,0.17,0.06,0.33,0.19,0.46L87.98,64.05z" enable-background="new "/>
    <path d="M100.78,55.33c-0.25-0.25-0.66-0.25-0.91,0l-1.63,1.63c-0.12,0.13-0.19,0.29-0.19,0.46v4.54 c0,0.17,0.06,0.33,0.19,0.46l1.63,1.63c0.25,0.25,0.66,0.25,0.91,0l1.63-1.63c0.13-0.12,0.2-0.28,0.19-0.46v-4.54 c0-0.17-0.06-0.33-0.19-0.46L100.78,55.33z" enable-background="new "/>
    <path d="M91.66,45.49c0.11,0.12,0.28,0.19,0.46,0.19h4.55c0.17,0,0.33-0.06,0.46-0.19l1.63-1.63 c0.25-0.25,0.25-0.66,0-0.91l-1.63-1.63c-0.13-0.12-0.29-0.19-0.46-0.19h-4.55c-0.17,0-0.33,0.06-0.46,0.19l-1.63,1.63 c-0.25,0.25-0.25,0.66,0,0.91L91.66,45.49z" enable-background="new "/>
    <path d="M96.67,56.54c0.17,0,0.33-0.06,0.46-0.19l1.63-1.63c0.25-0.25,0.25-0.66,0-0.91l-1.63-1.63 c-0.13-0.12-0.29-0.19-0.46-0.19h-4.55c-0.17,0-0.33,0.06-0.46,0.19l-1.63,1.63c-0.25,0.25-0.25,0.66,0,0.91l1.63,1.63 c0.11,0.12,0.28,0.19,0.46,0.19H96.67z" enable-background="new "/>
    <path d="M97.13,63.04c-0.13-0.12-0.29-0.19-0.46-0.19h-4.55c-0.17,0-0.33,0.06-0.46,0.19l-1.63,1.63 c-0.25,0.25-0.25,0.66,0,0.91l1.63,1.63c0.11,0.12,0.28,0.19,0.46,0.19h4.55c0.17,0,0.33-0.06,0.46-0.19l1.63-1.63 c0.25-0.25,0.25-0.66,0-0.91L97.13,63.04z" enable-background="new "/>
    <path d="M105.59,85.36h-7.8c-2.04,0-1.99,1.02-1.99,2.32S95.75,90,97.79,90h7.8c2.03,0,2.07-1.12,2.08-2.32 C107.67,86.38,107.63,85.36,105.59,85.36z"/>
    <path d="M26.27,83.52c-2.3,0-4.16,1.86-4.16,4.16s1.86,4.16,4.16,4.16c2.3,0,4.16-1.86,4.16-4.16S28.57,83.52,26.27,83.52z"/>
    <polygon points="74.54,91.84 81.43,87.68 74.54,83.52 "/>
    <polygon points="53.46,91.84 53.46,83.52 46.57,87.68 "/>
  </g>
</svg>