<svg viewBox="0 0 128 128" xmlns="http://www.w3.org/2000/svg">
  <path d="M100.3,9.5l-0.9-4.5c-0.1-0.3-0.5-0.4-0.9-0.4s-0.8,0.1-0.9,0.4l-0.6,4C95.9,9,94.9,9,94,9C72,9,64,31.3,64,31.3 s-0.1-0.3-0.3-0.7C60,19.6,50.3,9,34,9C17.4,9-1.5,22.1,5.5,52c3.8,16.5,21.2,35.2,36.1,48.6l1.4,6.6c0.1,0.3,0.4,0.5,1,0.5 s0.9-0.2,1-0.5l2-9.5l-1.3,6.4C55.8,113.1,64,119,64,119s51.4-37.2,58.4-67.1C128.6,25.6,115.7,12.3,100.3,9.5z M97.2,16.7 L97.2,16.7l1.3-8.3l1.9,8.9l0,0l0,0l0,0.1c1.1,3.9,1.8,6.8,8.6,9l4.1,1.3l-4.6,1.5c-5.9,1.5-7.7,5.3-8.7,9.1l0,0.1l0,0.1l-1.4,7.6 l-1.2-7.6l0-0.1l0-0.1c-1.3-4.6-4-7.8-7.9-9.1l-5.1-1.6l5.1-2C93.2,24.6,96,21.4,97.2,16.7L97.2,16.7z M17,49.4 c-4.2-7.5-5.4-17.8,0-24.6c3.8-4.7,10.5-8.5,16.1-4.1c3.1,2.4,1.7,7.4-1,9.4c-4,3-7.5,4.9-9.9,9.6c-1.5,2.9-2.3,6-2.8,9.2 C19.2,50.2,17.6,50.5,17,49.4z M43.9,104.5l-3-14.2l0,0l0,0c-1.6-6-5.2-10.1-10.2-11.8l-7-2.4l7-2.3C35.8,72.1,39.3,68,41,62l0,0 l0,0l2.9-14.4l2.9,14.3l0,0l0,0c1.6,6,5.2,10.1,10.3,11.8l7,2.3l-7,2.4c-5.1,1.7-8.6,5.8-10.2,11.8l0,0l0,0L43.9,104.5z M74,92.1 c-2,0-3.6-1.6-3.6-3.6s1.6-3.6,3.6-3.6c2,0,3.6,1.6,3.6,3.6S76,92.1,74,92.1z M77.6,48.5c-2.4,0-4.3-1.9-4.3-4.3s1.9-4.3,4.3-4.3 s4.3,1.9,4.3,4.3S80,48.5,77.6,48.5z M90,81.2l-6.9-6.9l6.9-6.9l6.9,6.9L90,81.2z"/>
</svg>