<svg viewBox="0 0 128 128" xmlns="http://www.w3.org/2000/svg">
  <g>
    <path d="M126,42.7c0.2-6.5-3.5-12.7-8.9-16.8c0.8-0.1,1.8-0.3,3-0.3c0.9,0,2,0.1,3,0.4c-3.9-7.4-12.2-10.6-17.4-11 c1.9-0.9,3.2-1.1,5.8-1.7c-3.4-2-6.9-3-10.7-3c-4,0-8.2,1.1-12.9,3.3c0.9-0.9,1.9-2.7,2.8-3.6c-0.6,0-1.3-0.1-2.1-0.1 c-5,0-12.2,1.1-18.6,8.7c-2-0.3-4-0.4-6.1-0.4c-2.2,0-4.3,0.1-6.3,0.4c-6.3-7.4-13.4-8.5-18.4-8.5c-0.8,0-1.5,0-2.1,0.1 c0.9,0.9,1.9,2.7,2.8,3.6c-4.7-2.2-8.9-3.3-12.9-3.3c-3.8,0-7.4,1-10.7,3c2.6,0.6,3.8,0.8,5.8,1.7c-5.1,0.4-13.4,3.6-17.4,11 c1.1-0.3,2.1-0.4,3-0.4c1.2,0,2.2,0.2,3,0.3C5.5,30.2,1.8,36.4,2,42.8c1.5-0.6,3-1.2,4.5-1.8c-3.4,5.3-5.4,13.2,2.3,21.2 c-0.4-3.4-0.5-6.1,1.1-8.2c-0.4,4.9,1.8,8.7,5.2,11.7c-1,5.4-1.4,10.8-1.4,15.7c0,25.4,21.2,36.7,50.2,36.7s50.2-11.3,50.2-36.7 c0-4.9-0.6-10.2-1.7-15.6c3.6-3,5.9-6.9,5.5-11.9c1.6,2.1,1.5,4.8,1.1,8.2c7.7-8,5.7-15.9,2.3-21.2C123,41.5,124.5,42.1,126,42.7z M95.7,25.6c8.1,0,14.8,6.6,14.8,14.8c0,3.4-1.2,6.6-3.2,9.1c-4-8.9-9.7-17-17.3-22.7C91.8,26.1,93.7,25.6,95.7,25.6z M32.8,25.7 c1.5,0,3,0.2,4.3,0.7C29.4,32,24,39.8,20.3,48.4c-1.5-2.3-2.3-5-2.3-7.9C18,32.4,24.6,25.7,32.8,25.7z M98.3,106.8 c-8.1,5.4-20,8.3-34.3,8.3s-26.2-2.9-34.3-8.3c-8.6-5.7-12.9-14.3-12.9-25.3c0-22.4,10-60.2,47.2-60.2c32.6,0,47.2,35.2,47.2,60.2 C111.2,92.5,106.9,101,98.3,106.8z"/>
    <path d="M80.7,91.9c-0.8,0-1.5,0.7-1.5,1.5c0,3.7-3,6.7-6.7,6.7s-6.7-3-6.7-6.7c7.3-1.1,12.9-9.2,12.9-19C78.7,63.8,71,50,64,50 S49.3,63.8,49.3,74.4c0,9.8,5.6,17.9,12.9,19c0,3.7-3,6.7-6.7,6.7s-6.7-3-6.7-6.7c0-0.8-0.7-1.5-1.5-1.5s-1.5,0.7-1.5,1.5 c0,5.4,4.4,9.7,9.7,9.7c3.6,0,6.8-2,8.5-5c1.7,3,4.8,5,8.5,5c5.4,0,9.7-4.4,9.7-9.7C82.2,92.6,81.5,91.9,80.7,91.9z"/>
    <path d="M46.4,70.7c0,0,0,0,0-0.1c0-0.1,0-0.2-0.1-0.4c-0.1-0.2-0.2-0.5-0.3-0.8c-0.1-0.3-0.2-0.6-0.4-1c-0.4-0.7-0.9-1.5-1.8-2.2 c-0.5-0.4-1-0.7-1.6-1c-0.3-0.1-0.7-0.2-1-0.3c-0.2,0-0.4-0.1-0.5-0.1h-0.3h-0.1h-0.1H40h-0.3c0,0-0.2,0-0.3,0H39 c-0.2,0-0.4,0.1-0.6,0.1c-0.2,0.1-0.3,0.1-0.5,0.2c-0.7,0.2-1.2,0.6-1.6,1c-0.9,0.7-1.5,1.6-1.8,2.2s-0.6,1.3-0.7,1.7 c-0.1,0.4-0.1,0.7-0.1,0.7c-0.1,0.8,0.2,1.5,0.8,2c0.9,0.7,2.3,0.6,3-0.4l0.1-0.2c0,0,0.1-0.1,0.3-0.3c0.2-0.2,0.4-0.5,0.7-0.8 c0.1-0.1,0.3-0.3,0.5-0.4c0.2-0.1,0.3-0.2,0.5-0.3c0.1-0.1,0.3-0.1,0.3-0.1s0,0,0.1,0c0,0,0,0,0,0h0.2h0.1c0.1,0,0.2,0,0.3,0.1 c0.1,0.1,0.3,0.2,0.5,0.3c0.2,0.1,0.3,0.3,0.5,0.4c0.2,0.1,0.3,0.3,0.4,0.4c0.1,0.1,0.2,0.2,0.3,0.3c0.1,0.1,0.2,0.2,0.2,0.3 c0.1,0.1,0.1,0.1,0.1,0.1c0.5,0.6,1.3,1,2.1,0.9C45.8,73,46.6,71.9,46.4,70.7z"/>
    <path d="M91.7,66.1c-0.5-0.4-1-0.7-1.6-1c-0.3-0.1-0.7-0.2-1-0.3c-0.2,0-0.4-0.1-0.5-0.1h-0.3h-0.1h-0.1h-0.2h-0.3c0,0-0.2,0-0.3,0 L87,64.8c-0.2,0-0.4,0.1-0.6,0.1c-0.2,0.1-0.3,0.1-0.5,0.2c-0.7,0.2-1.2,0.6-1.6,1c-0.9,0.7-1.5,1.6-1.8,2.2s-0.6,1.3-0.7,1.7 c-0.1,0.4-0.1,0.7-0.1,0.7c-0.1,0.8,0.2,1.5,0.8,2c0.9,0.7,2.3,0.6,3-0.4l0.1-0.2c0,0,0.1-0.1,0.3-0.3s0.4-0.5,0.7-0.8 c0.1-0.1,0.3-0.3,0.4-0.4c0.2-0.1,0.3-0.2,0.5-0.3c0.1-0.1,0.3-0.1,0.3-0.1s0,0,0.1,0c0,0,0,0,0,0h0.2h0.1c0.1,0,0.2,0,0.3,0.1 c0.1,0.1,0.3,0.2,0.5,0.3s0.3,0.3,0.5,0.4c0.2,0.1,0.3,0.3,0.4,0.4c0.1,0.1,0.2,0.2,0.3,0.3c0.1,0.1,0.2,0.2,0.2,0.3 c0.1,0.1,0.1,0.1,0.1,0.1c0.5,0.6,1.3,1,2.1,0.9c1.2-0.2,2-1.3,1.8-2.5c0,0,0,0,0-0.1c0-0.1,0-0.2-0.1-0.4 c-0.1-0.2-0.2-0.5-0.3-0.8c-0.1-0.3-0.2-0.6-0.4-1C93.2,67.7,92.7,66.9,91.7,66.1z"/>
  </g>
</svg>