<svg viewBox="0 0 128 128" xmlns="http://www.w3.org/2000/svg">
  <path d="M122.9,101.8c0.7-1.1-1-3.5-7.5-4.1c-2.5-0.2-4.9-0.2-7.4-0.3c3.7-2.4,9.6-8.2,12.4-21.3c4.2-19.8-5-31.1-8.2-35.1 c-2.7-3.5-9.7-9-11.4-10.3c1.9-2.6,4.2-6.6,4.5-10.7c0.4-6.4-1.6-8-2.5-7.6c-0.9,0.3-1.5,2.6-3.1,4s-5.4,4.3-6.4,5.9 c-1,1.6-0.5,5-0.5,5s-4-1.2-6.6-0.3c-2.6,0.9-5,3.7-6.8,4.3c-1.7,0.7-4.3,0.9-4.3,1.9s5,4,10.9,4c3.2,0,6.6-1,9-2 c1.1,1.4,3.6,4.8,4.5,7c0.9,2.2,2.7,7.9,1.8,13c-1.2,0.1-2.8,0.5-3.7,2.1c-1.2,2-0.6,4-0.1,5.1c-2.7,2.6-5.6,2.4-8.5,2 c-3.8-0.5-8-4.5-11.6-7.5c-3.7-3-8.2-5.5-11.8-5.4c-3.1,0.2-4.7,1.6-4.7,1.6s-4.3-3.6-9.9-3.6s-6.1,2.4-9.4,2.9 c-3.3,0.5-19.3-5.4-29.4-1.2c-2.5,1-4.2,2.4-5.2,5.1c-0.1,0.3-0.2,0.6-0.3,0.9c0,0,0,0,0,0l0,0v0c-0.2,0.1-0.1,0.2-0.1,0.2 s-0.1,0.3-0.2,0.8c-0.3,1.1-0.5,2.2-0.6,3.2c-0.1,0.8-0.2,1.6-0.2,2.4c0,0,0,0,0.1-0.1c0,1.3,0.2,2.4,0.3,3.1c0,0.2,0,0.4,0.2,0.7 c1,2,5.9,7.8,7.8,9.9c2,2.1,6.5,10,8.2,12.4c0.7,1,2.9,5.1,7,9.8c-1.5,1.1-5,3.6-7.7,4.1c-3.6,0.8-7.2,1.1-9,3.1 c-1.8,2-0.7,3.2-0.7,3.2s0,0,0,0c0.4,1.4,4.6,2.9,13.3,2.5c7.6-0.3,11.7-4.1,12.6-5.1c-0.1-0.1-0.2-0.1-0.3-0.2 c1.2,0.9,2.4,1.7,3.8,2.5c0,0,0,0,0,0c0.3,0.3,0.6,0.6,0.9,0.9c0,0,0.1,0.1,0.1,0.1c0.4,0.3,0.7,0.6,1.1,0.8 c5.2,3.6,11.7,3.7,11.7,3.7s0,0,0,0c0.3,0.1,0.7,0.2,1,0.2c3.8,0.8,7.5,1.1,11,1.2c0,0,0,0,0,0c0,0.1,0,0.1,0,0.1l3.2-0.1 c0,0,0,0,0,0c2.5-0.1,4.9-0.4,7.2-0.7c0,0,0,0,0,0c0,0,0.1,0.1,0.1,0.1l1.8-0.4c2.6-0.5,5.1-1.1,7.2-1.8c0,0,0,0,0,0l0.7-0.3 c2.3-0.8,4.3-1.5,6-2.2c0.1,0.1,0.1,0.1,0.1,0.1l1.7-1c1.8-0.8,2.8-1.4,2.8-1.4s0.8,0.1,1.6,0.2c0,0,0,0,0,0 c0.3,0.1,0.6,0.1,0.8,0.2c9.4,2.2,14.8-0.5,18.1-2.3C121.5,105.3,122.9,101.9,122.9,101.8L122.9,101.8 C122.9,101.9,122.9,101.9,122.9,101.8z M70.3,75.9c2.2-1,3.8,0.2,4.4,1.9s-0.4,3.6-2.2,4.3c-1.8,0.7-3.8-0.2-4.4-1.9 C67.4,78.4,68.5,76.7,70.3,75.9z M11.2,56.8c8.2-0.1,15.2,2.7,27.6,8.6c12.4,5.9,25.2,16,25.2,16s-4.4-0.6-6.9-1.4 c-1.5-0.5-5.4-1.8-8.7-3.5C45,74.8,28.9,67.7,24,65.8s-10.3-3.2-13.2-3.2c-1.2,0-2.3,0.2-3.1,0.5l0-0.5c0-0.2,0.1-0.5,0.1-0.8l0,0 l0,0c0.1-1,0.2-2,0.5-2.9l0,0l0,0c0,0,0-0.1,0-0.1l0.2-0.7c0.1-0.4,0.3-0.7,0.4-1C9.5,56.9,10.3,56.8,11.2,56.8z M35.7,105.9 c0.2,0.2,0.4,0.3,0.6,0.5C36.1,106.3,35.9,106.1,35.7,105.9z M34.1,104.7c0.1,0.1,0.2,0.2,0.3,0.3C34.4,104.9,34.3,104.8,34.1,104.7 z M24.6,90c-0.3-0.5-0.6-0.9-0.8-1.2c-0.3-0.4-0.7-1-1.1-1.8c0.9,1,1.9,1.9,3,2.8c2.4,1.9,4.6,3.6,7.5,7.2c2,2.6,3.3,5.4,4.7,8 C30.4,99.4,26.3,92.7,24.6,90z M79.1,113.6c-1.5-1.4-4.1-3.6-8.1-5.8c-5.9-3.3-9.4-1.4-13.8-5.4c-4.4-4-4.5-10-8.3-15 c-3.9-5-8.9-5.5-11.9-7.1c-2.6-1.4-6.4-7.6-5.7-5.2c0.4,1.5,1.9,5.1,4.9,7.2c3,2.2,7.6,2.3,10.8,6.4c3,3.9,3.2,10.3,8.3,14.9 c5.1,4.6,10.6,4.3,14.5,5.9c2.3,1,4.6,3,6.2,4.6c-2,0.3-4,0.5-6,0.5l-0.8,0c-1-1.1-2.7-2.5-5.3-3.3c-5.2-1.7-8.3-0.9-12.4-4.7 c-4-3.8-6.3-12.7-9.5-17s-9.7-4.3-12.8-7.8c-4.4-4.9-6-10.9-6.6-9.3c0,0,0.5,6.3,5.3,11.1c4.8,4.8,9.2,3.6,12,7.1s4.3,13.4,10,17.9 c5.7,4.5,7.1,2.5,12.3,4.4c1.4,0.5,2.5,1,3.2,1.5c-3-0.1-5.9-0.5-8.8-1.1c-0.2,0-1.3-0.3-1.3-0.3c-0.1,0-5.7-0.2-10.3-3.1 c-0.6-0.5-1.1-1.1-1.6-1.7c-1.7-2-4-7.4-8.3-13.1c-4.3-5.7-7.5-5.3-12.2-11.6c-2.2-2.9-3.2-5.6-5.8-9c-1.8-2.4-3.8-4.6-5.3-5.1 c-1.5-0.5,3.2,3.3,5.5,8.5c0.1,0.2,0.2,0.4,0.3,0.7c-0.8-1.1-1.5-2.1-2-2.7C13.4,74,9,68.7,8,66.9l0,0L8,66.5c0-0.1-0.1-0.3-0.1-0.4 c0.2,0,0.3,0,0.3,0c3.7,0,12.5,2.1,16.3,3.5c6.3,2.4,16.8,7.5,22.1,9.4c5.4,2,20.3,6.6,29.1,11.8c8.9,5.2,13.1,11.3,15.9,13.5 c1.5,1.2,3.2,2.5,4.4,3.4c-0.4,0.2-1,0.6-1.8,0.9l-0.1,0l0,0l-0.3,0.2c-1.7-1.7-4.7-4.6-7.8-6.4c-3.6-2.1-10-4.3-14-6.9 c-4-2.6-6-4.3-6.9-5.5s-3.7-4.4-3.3-3c0,0,0.3,3.3,6.4,8.5c6.1,5.2,14.4,7.2,17.6,9.3c1.9,1.3,4.3,3.4,5.9,4.9 c-1.2,0.5-2.5,1-3.8,1.5c-1.5-1.8-4.3-4.7-7.7-5.9c-5.2-1.9-11.6-3.1-14.8-6c-3.3-2.8-6.2-7.6-10-12.1c-3.8-4.5-5.7-5.2-5.4-4.5 c0.3,0.8,3.1,4.4,5.1,7.6c2,3.2,5.4,8.8,10.8,11.9c7.2,4.2,9.2,3.4,13.8,5.4c2.6,1.1,4.5,2.9,5.6,4.2 C83.3,112.7,81.2,113.2,79.1,113.6z"/>
</svg>