<svg viewBox="0 0 128 128" xmlns="http://www.w3.org/2000/svg">
  <g>
    <path d="M123.8,51c0.2-1.5-1.6-3.5-4.3-4.5c-2.8-1.1-5.5-0.8-6.3,0.6c0,0-0.1,0-0.1,0l0,0l-4.3,10.4c-2.4,0.4-2.8,3-2.9,3.5 c0,0,0,0,0,0c0,0,0,0,0,0c0,0,0,0,0,0s-3.6-0.5-4.9,0.7c-1.7,1.6-0.7,4.3-0.7,4.4c0,0,0,0,0,0l0,0c0,0-2.5,0.4-3.4,2.5 c-0.6,1.5,1.1,4.1,1.1,4.3l0,0l0,0c0,0,0,0,0,0s-1.9,1.5-1.9,3c0,1.9,2.5,4,2.5,4.1l-9.3,9.3c2.5-15.1,3.2-33,3.2-47.4 c0-0.4,0.6-16.9-10.5-28.1c-3.9-4-9.3-7.3-16.7-9.1c-0.2,0-0.4-0.1-0.6-0.1C63.9,4.4,63,4.3,62,4.1c-2.7-0.4-5.7-0.7-8.9-0.7 c-41,0-40.7,37.9-40.7,38.5c0,1.1,0,2.2,0,3.3c0,0.4,0,0.7,0,1.1c0,0.8,0,1.5,0,2.3c0,0.4,0,0.9,0,1.3c0,0.8,0,1.5,0,2.3 c0,0.4,0,0.8,0,1.2c0,1,0.1,2,0.1,3c0,0.2,0,0.3,0,0.5c0.1,3.3,0.3,6.7,0.5,10.1l0,0c0.8,12.7,2.4,25.4,5.4,35.3 c-8.8,4-14.8,10.2-14.8,18.9v3h34.9l-1.6-2H5.8v-1c0-7.2,4.6-13,13.6-17.1c4-1.8,8.7-3.2,13.9-4.2l-2.1,4.9l5.2,4.4l-4.9,6.1l7.1,9 h26.8l0,0h25.5l0.2-0.7l-0.2,0.7h28.2l4.1-36.2c0,0-0.3,0.1-0.9,0.2c0.2-2.6,0.5-7.2,0.2-11.7c-0.1-3-0.7-4.6-1.7-7.8 c-0.5-1.7-1.3-3.2-2.1-4.5l4.7-12.8c0.1-0.1,0.1-0.2,0.2-0.3C123.8,51.3,123.8,51.1,123.8,51L123.8,51L123.8,51z M105.1,97.5 l-6.3-2.6l0.8-1.8l6.3,2.6L105.1,97.5z M103.9,101.1l-0.8,1.8l-6.3-2.6l0.8-1.8L103.9,101.1z M109.9,83.6c0,0.1,0,2.9,0,6.6 l-2.1,0.1l-0.7,1.7l-3.5-1.5l-13.1,0.6l10.8-10.9l0.3-0.3l0.2-0.4l0.4-1.1c1,0.4,2.8,2.6,7.7,4.7l0,0L109.9,83.6z M45.8,105.7 c-0.6-0.9-0.9-2-0.9-3.2V95c2.5,0.8,5,1.3,7.2,1.3c2.1,0,4.5-0.4,7-1.2v7.4c0,1.2-0.3,2.3-0.9,3.2H45.8z M59.3,92.9 c-2.5,0.9-5,1.4-7.2,1.4c-2.2,0-4.7-0.5-7.2-1.4c-9.5-3.4-20.3-12.7-23.2-28.7l0.3,0.4c1.5,2.1,5.8,3.5,8,4.1 c1.6,0.5,3.3,0.8,5.2,0.8c5,0,10.2-3.8,12.7-6.5c1.1-1.2,2.7-1.8,4.3-1.8c1.6,0,3.2,0.6,4.3,1.8c2.5,2.8,7.7,6.5,12.7,6.5 c1.9,0,3.6-0.3,5.2-0.8c2.2-0.6,6.5-2,8-4.1l0.3-0.4C79.7,80.2,68.8,89.6,59.3,92.9z M25.7,59.2c0-2.1,0.1-4.3,0.2-6.6 c0-0.7,0.1-1.5,0.1-2.2c0-0.5,0.1-2.1,2.2-3.4c1.5-1,3.4-1.3,4.5-1.3h39c1.1,0,2.9,0.3,4.5,1.3c2.1,1.3,2.2,2.9,2.2,3.4 c0,0.8,0.1,1.5,0.1,2.2c0.1,2.3,0.2,4.5,0.2,6.6c0,4.4-3.9,7.4-9.5,7.4c-3.9,0-8.4-3.3-10.5-5.6c-1.6-1.8-4-2.8-6.5-2.8 c-2.5,0-4.9,1-6.5,2.8c-2,2.2-6.5,5.6-10.5,5.6C29.6,66.6,25.7,63.6,25.7,59.2z M77.6,43c-0.1,0-0.2,0-0.2,0 c-1.4,0-3.2-0.1-4.3-0.2c-0.5-0.1-1.1-0.1-1.5-0.1H36.3C53.5,37,63,28,63,28C65.7,33.9,73,39.6,77.6,43z M39.7,122.5l-5.5-7 l3.9-4.9l1.2-1.5l-1.5-1.3l-4.1-3.4l2.1-4.9c1-0.1,2.9-0.4,5.5-0.6l2.6,23.6H39.7z M64.6,122.5h-4.2L63,98.9 c2.6,0.2,4.5,0.5,5.5,0.6l2.1,4.9l-4.1,3.4l-1.5,1.3l1.2,1.5l3.9,4.9L64.6,122.5z M67.1,122.5l5.5-7l-4.9-6.1L73,105l-2.1-4.8 c3.5,0.7,6.7,1.6,9.7,2.6c1.4,2,4.4,3.7,4.8,3.9c0,0,3.4,1.9,7.9,3.7c0.5,0.5,1,1.1,1.5,1.7l-3.2,10.5H67.1z M117.5,122.5H93.7 l3.3-10.9c0,0-0.1,0-0.1,0c4,1.3,7.9,2.1,10.7,2.1c1.3,0,2.3-0.2,2.9-0.6c1.1-0.7,1.4-1.4,1.5-4.1c0-1.3,0-11.6,0-18.7 c2.4,0.3,4.7,0.4,6.6,0.4c0.7,0,1.4,0,2-0.1l0.6,0L117.5,122.5z M119.8,58.5l-0.7-0.3l-1.3,3.6l0.8,0.3l-0.5,1.2 c-2.6-3.5-5.8-5.3-7.1-5.7l3.1-7.5c0.8,0.8,1.9,1.6,3.2,2.1c1.3,0.5,2.6,0.7,3.7,0.7l-1.2,3.4l0.8,0.3L119.8,58.5z"/>
    <path d="M52,72.6c2.8,0,4.2-2,4.5-2.7s0-1.4-0.7-1.6c-0.1,0-0.2-0.1-0.3-0.1h-7.1c-0.1,0-0.2,0-0.3,0.1c-0.6,0.3-1,0.9-0.7,1.6 C47.8,70.6,49.2,72.6,52,72.6z"/>
    <path d="M60.5,76.3c-3.2,1.9-13.6,1.9-16.8,0c-1.8-1.1-3.7,0.6-2.9,2.2c0.8,1.6,6.4,5.4,11.4,5.4s10.5-3.8,11.3-5.4 C64.2,76.9,62.4,75.3,60.5,76.3z"/>
    <path d="M41.9,51.9c0.9,0.3,1.6,0,1.9-0.4c0.3-0.4,0.4-1,0-1.6c-0.9-1.2-3.1-3-7.2-3c-4.2,0-6.3,1.8-7.2,3c-0.4,0.5-0.3,1.2,0,1.6 c0.3,0.3,1,0.7,1.9,0.4c0.9-0.3,2.5-1.2,5.3-1.2C39.3,50.8,41,51.6,41.9,51.9z"/>
    <path d="M62.3,51.9c0.9-0.3,2.5-1.2,5.3-1.2c2.8,0,4.5,0.9,5.3,1.2c0.9,0.3,1.6,0,1.9-0.4c0.3-0.4,0.4-1,0-1.6 c-0.9-1.2-3.1-3-7.2-3c-4.2,0-6.3,1.8-7.2,3c-0.4,0.5-0.3,1.2,0,1.6C60.7,51.9,61.5,52.2,62.3,51.9z"/>
    <ellipse cx="36.5" cy="59" rx="4.9" ry="5.1"/>
    <ellipse cx="67.7" cy="59" rx="4.9" ry="5.1"/>
  </g>
</svg>