<svg viewBox="0 0 128 128" xmlns="http://www.w3.org/2000/svg">
  <g>
    <path d="M30.4,49.3c1.7,0,3.2-2.4,4.2-4.1c0.4-0.8,0.1-1.9-0.6-2.1c-0.1,0-0.1,0-0.2,0h-6.6c-0.1,0-0.1,0-0.2,0 c-0.7,0.2-1.1,1.4-0.6,2.1C27.2,46.9,28.7,49.3,30.4,49.3z"/>
    <path d="M124.1,94.7c-0.1-0.9-0.9-1.5-1.7-1.5c-0.1,0-0.2,0-0.3,0c-1,0.2-1.6,1.1-1.5,2c0.2,1.6,0.5,3.5,0.1,4.9 c-0.3,1-1.3,2-2.2,2c-0.1,0-0.1,0-0.2,0c-0.8-0.1-1.5-1.1-1.7-2c-0.9-3.9-0.4-8.7,0.1-13.4c0.2-2,0.4-4,0.5-5.8 c0.2-5.4,0.2-12.4-2.4-18.6c-0.9-2.1-2-3.9-3.3-5.6c-7-10.7-23.2-8.5-34.3-6.9c-2.4,0.3-4.7,0.6-6.6,0.8 c-6.5,0.5-11.9-4.3-16.2-8.2c-0.3-0.3-0.6-0.6-0.9-0.8c0.2-0.8,0.3-1.6,0.4-2.3c0-0.1,0-0.1,0-0.2c0-0.1,0-0.3,0-0.4c0,0,0,0,0-0.1 c0-0.1,0-0.2,0-0.3c0-0.3,0-0.7,0-1c0-0.5,0-1,0-1.5c0-0.1,0-0.2,0-0.3c0-0.2,0-0.3,0-0.5c0-0.4-0.1-0.8-0.1-1.2 c0-0.2,0-0.3-0.1-0.5c0-0.1,0-0.2,0-0.3s0-0.2-0.1-0.3c-0.1-0.7-0.2-1.3-0.3-2c0-0.1,0-0.2-0.1-0.3v-0.1c-0.2-0.7-0.4-1.4-0.6-2.1 c0-0.1,0-0.1,0-0.2s-0.1-0.2-0.1-0.3c-0.1-0.2-0.1-0.4-0.2-0.6c2.8-3.9,8.8-13.5,3.9-17.7c-4.5-3.8-12,2.3-15.5,5.5 c-0.7-0.3-1.3-0.5-2-0.8c-2.6-0.8-5.4-1.2-8.3-1.2c-3.8,0-7.3,0.7-10.4,2C16.5,11.7,9,5.6,4.5,9.5c-4.9,4.2,1.1,13.7,3.9,17.6 c-0.4,1.2-0.7,2.4-1,3.7c-0.4,2-0.6,4.2-0.6,6.5c0,7.3,3.4,14.8,9,19.7c-0.2,0.1-0.2,0.4-0.1,0.6c0.1,0.1,0.2,0.2,0.4,0.2 c0.1,0,0.2,0,0.3-0.1l0.1-0.1c0.6,0.5,1.1,0.9,1.7,1.3c0.3,0.3,0.6,0.5,0.9,0.8c0.2,2.4,0.4,4.6,0.6,6.4c0.4,3.7,2.3,11,6.6,15.6 c0.3,2.3,0.8,4.5,1.4,6.6l0.4,1.3C29,93,30,96.5,29.9,100c-0.1,4.3-1.8,8-4.7,10.1c-0.5,0.4-1.1,0.7-1.7,1.1 c-0.8,0.5-1.6,1-2.4,1.6c-1.8,1.5-2.6,3.3-2.2,5c0.5,2.2,3,3.4,5.2,3.4c0.2,0,0.4,0,0.6,0s0.4-0.1,0.6-0.1c0,0.4,0.1,0.8,0.2,1.1 c0.6,1.7,2.6,2.7,5.2,2.5c6.9-0.4,10.7-8,13-13.7c2.2-5.3,3.8-11.3,5.1-18.5c0.1-0.4,0.1-0.8,0.2-1.2c2.2,0.6,7.4,1.4,19.6,0.6 c4-0.3,10-2.1,14.5-3.6c1.7,1.5,3.3,2.9,4.3,4c0.7,0.8,1.4,1.4,2,2.1c2,2,3.5,3.5,4.2,6.2c1.3,5.4,0.9,9.1-1.1,11.5 c-1.4,1.7-2.2,2.1-2.8,2.3c-0.5,0.2-1,0.5-1.6,1.2c-0.7,0.9-2.1,2.8-1,4.9c0.8,1.6,2.6,2.3,4.3,2.3c0.7,0,1.5-0.1,2.1-0.4 c1.1-0.4,2.1-1,3.1-2c-0.1,1.3,0.6,2.9,2.1,3.8c0.6,0.4,1.4,0.7,2.5,0.7c1.9,0,4.5-1,8-4.6c3.5-3.7,2.5-10.8,1.4-17.7 c-0.5-3.4-1.1-6.9-1-9.8c0.1-5.3,0.6-6.2,1.4-8c0.6-1.4,1.5-3.1,2.5-7.1c0,1,0,2-0.1,3c-0.1,1.8-0.3,3.6-0.5,5.6 c-0.5,4.9-1,10,0,14.5c0.6,2.4,2.4,4.3,4.5,4.6c0.3,0,0.6,0.1,0.8,0.1c2.6,0,4.7-2.1,5.5-4.4C124.8,99,124.4,96.6,124.1,94.7z M55.1,10.8c3.3,2.8-0.5,9.9-3.6,14.4c-0.2-0.4-0.4-0.8-0.6-1.2c-0.1-0.1-0.2-0.3-0.3-0.4c-0.2-0.3-0.4-0.6-0.6-1 c1.1-1.4,2-3.6,2.5-5.2c0.1-0.4,0.3-0.8,0.3-1c0.2-0.6,0.4-1.2,0.2-1.8c-0.3-1.5-2.2-1.3-3.3-0.9c-1.4,0.5-3.9,1.7-5.4,3.2 c-0.2-0.1-0.4-0.3-0.6-0.4c0,0-0.1,0-0.1-0.1c-0.1-0.1-0.2-0.1-0.3-0.2c-0.3-0.2-0.5-0.3-0.8-0.5c-0.1,0-0.1-0.1-0.2-0.1 C46.2,12.4,52.1,8.3,55.1,10.8z M49,29.6c0,0-2.2,9.1-4.1,11c-1.9,1.9-5,1.9-6.9,0c-1.9-1.9-1.9-5,0-6.9C39.9,31.8,49,29.6,49,29.6 z M7.8,16.5c0.1,0.3,0.2,0.6,0.4,1c0.5,1.5,1.4,3.7,2.5,5.1c-0.5,0.8-1,1.7-1.4,2.6c-3.2-4.5-6.9-11.6-3.6-14.4 C6.3,10.3,7.1,10,8,10c3.1,0,7.4,3.1,10.2,5.7c0,0-0.1,0-0.1,0.1c-0.6,0.3-1.3,0.7-1.9,1.1c-1.4-1.5-4-2.7-5.3-3.1 c-1.1-0.4-3-0.6-3.3,0.9C7.5,15.3,7.6,15.9,7.8,16.5z M11.9,30c0,0,9.1,2.2,11,4.1c1.9,1.9,1.9,5,0,6.9c-1.9,1.9-5,1.9-6.9,0 C14,39.1,11.9,30,11.9,30z M18.8,55.7l3.9-2.9c0.2-0.1,0.2-0.4,0.1-0.6c-0.1-0.2-0.4-0.2-0.6-0.1l-4.1,3c-0.9-0.8-1.7-1.8-2.1-3 l5.6-1.8c0.2-0.1,0.4-0.3,0.3-0.6c-0.1-0.2-0.3-0.4-0.6-0.3l-5.6,1.7c-0.1-0.5-0.2-1-0.2-1.5c0-0.8,0.2-1.6,0.4-2.4l5.1,0.4 c0.2,0,0.4-0.2,0.4-0.4s-0.2-0.5-0.4-0.5l-4.8-0.4c1.3-2.5,4.2-4.2,7.4-4.2c0.4,0,0.8,0,1.1,0.1c0.1-1.4,0.2-2.8,0.2-4.2 c0-8.3-2.3-15.7-5.9-20.9c3.2-1.6,6.9-2.5,11.1-2.5c4.6,0.4,8.3,1.2,11.4,2.9c-3.6,5.2-5.9,12.6-5.9,20.9c0,1.4,0.1,2.8,0.2,4.2 c0.4,0,0.8-0.1,1.2-0.1c3.2,0,6,1.7,7.4,4.1l-5.8,0.5c-0.2,0-0.4,0.2-0.4,0.5c0,0.2,0.2,0.4,0.4,0.4l6.1-0.5 c0.3,0.8,0.5,1.6,0.5,2.4c0,0.6-0.1,1.2-0.3,1.8l-6.6-2.1c-0.2-0.1-0.5,0.1-0.6,0.3c-0.1,0.2,0.1,0.5,0.3,0.6l6.6,2 c-0.5,1.2-1.4,2.3-2.5,3.1l-4.6-3.5C37.3,52,37,52,36.9,52.2c-0.1,0.2-0.1,0.5,0.1,0.6l4.3,3.3c-0.5,0.3-0.9,0.5-1.4,0.7 c0.3,0.5,0.6,1,0.9,1.5c-1.1,0.9-2.1,1.7-3.2,2.4l0.3-3.5c-0.3,0-0.7,0.1-1,0.1c-0.3,0-0.7,0-1-0.1c-0.3-0.1-0.6-0.2-0.8-0.3 c-0.3,0.5-0.6,1-1,1.4c-0.3,0.4-0.7,0.7-1.1,1c-0.1,0.1-0.4,0-0.3-0.2c0.5-1,0.8-2.1,0.8-3.2c-1.2-1-2.3-2.2-3.1-3.2 c-0.8,0.9-1.9,2.2-3.1,3.1c0,1.1,0.2,2.2,0.7,3.3c0.1,0.1-0.2,0.2-0.3,0.2c-0.4-0.3-0.8-0.7-1.1-1c-0.4-0.4-0.7-0.9-0.9-1.4 c-0.3,0.1-0.6,0.2-0.9,0.3c-0.3,0.1-0.7,0.1-1,0.1s-0.7,0-1-0.1l0.4,3.2c-1.1-0.7-2.1-1.5-3.2-2.4c0.3-0.4,0.5-0.8,0.8-1.3 C20.1,56.4,19.4,56.1,18.8,55.7z M34.9,62.2c-0.1,0.5-0.2,0.9-0.4,1.3c-0.1,0.3-0.3,0.7-0.7,0.7c-0.3,0-0.7-0.2-1-0.5 c0-0.2,0-0.4,0-0.6c0-0.1,0.1-0.2,0.2-0.2c0.8-0.7,1.3-1.7,1.5-2.8c0-0.1,0.2-0.1,0.2,0c0.1,0.3,0.2,0.7,0.2,1 C35,61.5,35,61.8,34.9,62.2z M27.9,63.6c-0.2,0.3-0.7,0.5-1,0.5c-0.4,0-0.6-0.4-0.7-0.7C26,63,25.9,62.5,25.8,62 c0.1-0.2,0.1-0.5,0.1-0.9c0-0.3,0.1-0.7,0.2-1c0-0.1,0.2-0.1,0.2,0c0.2,1.1,0.7,2.1,1.5,2.8c0.1,0.1,0.1,0.1,0.2,0.2 C28.1,63.3,28,63.5,27.9,63.6z M26.4,118.6c-0.6,0.3-1.2,0.5-1.8,0.5c-1.6,0.1-3.3-0.7-3.6-1.8c-0.3-1,0.6-2.2,1.5-2.9 c0.6-0.5,1.4-0.9,2.1-1.4c0.6-0.4,1.3-0.8,1.9-1.2C30,109.3,32,105,32,100c0-3.8-1-7.4-1.9-11l-0.4-1.3c-0.3-1.3-0.7-2.6-0.9-3.9 c5.8,4.3,7,10.4,6.9,14.9c-0.1,8-4.1,15.9-6.8,17.7C27.7,117.2,27,117.9,26.4,118.6z M96.8,117.1c-1.1,1.8-2.4,2.9-3.8,3.4 c-1.5,0.5-3.3,0.1-3.9-0.9c-0.4-0.7-0.2-1.4,0.8-2.7c0.2-0.3,0.4-0.4,0.7-0.5c0.7-0.3,1.8-0.8,3.5-2.9c2.4-2.9,2.9-7.3,1.5-13.3 C94.9,96.9,93,95,91,92.9c-0.6-0.6-1.3-1.3-2-2c-0.9-1-2.1-2.1-3.5-3.4l0.2-0.1c4.2-1.4,6.4,1.6,8.7,6.8c0.5,1.1,0.9,2.2,1.3,3.3 c0.5,1.3,1,2.7,1.7,4c0.3,0.7,0.6,1.3,1,2c0.6,1.2,1.3,2.4,1.6,3.8c0,0.2,0.1,0.3,0.1,0.5C99.8,111.2,98.7,114.4,96.8,117.1z M101.4,112.4c0.2,1.5,0,2.8-1,4.3c-0.2,0.3-0.8,0.7-1.3,1l-0.1,0.1C100.1,116.1,100.9,114.3,101.4,112.4z M112.5,74.7 c-1.3,5.7-2.3,7.8-3,9.3c-0.9,2-1.5,3.1-1.6,8.8c-0.1,3.1,0.5,6.7,1,10.1c1,6.4,2,13-0.9,16c-4.6,4.8-7.1,4.1-8,3.6 c-1-0.6-1.3-1.7-1.1-2.1c0.1-0.4,0.7-0.8,1.3-1.1c0.7-0.4,1.4-0.9,1.9-1.5c2.3-3.3,1.4-6.2,0.5-9.2c-0.2-0.6-0.4-1.2-0.6-1.9 c-0.4-1.6-1.1-2.9-1.8-4.2c-0.3-0.6-0.6-1.2-0.9-1.9c-0.6-1.3-1.1-2.6-1.6-3.9c-0.4-1.1-0.9-2.3-1.4-3.4c-0.5-1.1-1.2-2.7-2.2-4.2 c0-0.2-0.1-0.5-0.2-0.7c-4.5-5.1-7.9-11.2-10-17.6c-0.2-0.5-0.7-0.8-1.2-0.6s-0.8,0.7-0.6,1.2c1.5,4.8,3.8,9.5,6.7,13.7 C88.4,85,88.1,85,87.7,85c-0.8,0-1.6,0.1-2.6,0.5l-0.4,0.1c-4.4,1.5-11.7,4-16.1,4.2c-13.2,0.9-17.9-0.1-19.2-0.6 c0.4-2.7,0.7-5.4,1-8c0.2-1.4,0.3-2.9,0.5-4.3c0.1-0.5-0.3-1-0.9-1.1c-0.5-0.1-1,0.3-1.1,0.9c-0.2,1.4-0.4,2.9-0.5,4.3 c-0.4,3.6-0.9,7.4-1.5,11c-1.2,7-2.9,12.9-5,18.1c-2.1,5.2-5.6,12.1-11.3,12.5c-1.9,0.1-3-0.5-3.2-1.2c-0.2-0.7,0.3-1.9,2.6-3.5 c3.6-2.4,7.6-11,7.7-19.4c0-5-1.3-12-8.1-16.8c-4.9-3.4-7.4-11.5-7.9-16c-0.1-1.3-0.3-2.8-0.5-4.5c1,0.7,2.1,1.4,3.1,1.9 c1.4,1.8,4,2.9,6.4,2.9c2,0,4.3-0.9,5.7-2.5c6.9-3.2,14-11.6,16.6-19.9c0.1,0.1,0.1,0.1,0.2,0.2c4.4,3.9,10.3,9.3,17.7,8.7 c2-0.2,4.3-0.5,6.7-0.8c6.6-0.9,14.4-1.9,21-0.7c0,0.1,0,0.2-0.1,0.2c-0.2,1,0.5,1.9,1.4,2c4.9,0.8,9.4,4.8,11.7,10.4 c0.5,1.2,0.9,2.5,1.2,3.8C113,70.2,112.9,72.9,112.5,74.7z"/>
    <path d="M77.9,57.3c0.4,0.2,0.7,0.3,1.1,0.3c0.2,0.2,0.6,0.4,1,0.5c0.2,0,0.3,0.1,0.5,0.1c0.6,0.1,1.3-0.4,1.5-1c0-0.2,0-0.3,0-0.5 c0.8-0.7,0.4-2.2-0.6-2.5s-1.9-0.2-2.9,0.2c0,0,0,0-0.1,0c-0.7-0.1-1.4,0.5-1.6,1.2C76.8,56.4,77.2,57,77.9,57.3z"/>
    <path d="M98.5,62.1c-1-0.7-2.1-1.2-3.3-1.4c-0.5-0.1-1,0-1.3,0.3c-1,0.1-1.8,1.3-0.9,2.2c1.3,1.4,3.2,2,5,1.4 C99,64.2,99.5,62.8,98.5,62.1z"/>
    <path d="M110.2,64.1c-1-0.7-2.1-1.2-3.3-1.4c-0.5-0.1-1,0-1.3,0.3c-1,0.1-1.8,1.3-0.9,2.2c1.3,1.4,3.2,2,5,1.4 C110.8,66.2,111.3,64.8,110.2,64.1z"/>
    <path d="M77.1,61c-0.4,0.2-0.7,0.6-0.8,0.9c-0.5,0.7,0,1.9,0.8,2.2c1.7,0.8,6.2,1.6,6.4-1.4C83.8,59.6,78.9,60.1,77.1,61z"/>
    <path d="M61.2,54.4l0.1-0.1c0.2-0.1,0.5-0.2,0.7-0.3c1.2-0.6,1-2.2-0.2-2.8c-0.9-0.4-1.8-0.6-2.7-0.8c-0.4-0.1-0.8-0.2-1.2-0.3 c-1.2-0.1-3.1,0.2-3.5,1.6c-0.4,1.9,1.6,2.7,2.9,3C58.5,55.2,60,55.2,61.2,54.4z"/>
    <path d="M105.1,57.3c0-0.6-0.3-1-0.8-1.4c-0.1-0.2-0.2-0.3-0.4-0.4c-1.2-0.9-2.7-1.2-4.1-0.8c-1,0.2-1.7,1.6-0.8,2.4 c1.4,1.3,3,1.8,4.9,1.5C104.6,58.6,105.1,58,105.1,57.3z"/>
    <path d="M90.2,55.3c-0.4,0-0.8,0-1.1,0c-0.2-0.1-0.4-0.2-0.7-0.2c-0.2,0-0.4,0-0.6,0c-0.2,0-0.4,0.1-0.6,0.1h-0.4 c-0.8,0-1.5,0.5-1.6,1.4c0,0.8,0.6,1.6,1.4,1.6c0.6,0,1.2,0,1.7,0c0.7,0.1,1.4,0.1,2.1,0C92.1,58,91.9,55.3,90.2,55.3z"/>
    <path d="M93.7,54.7l1.2,0.3c0.8,0.2,1.7-0.1,1.9-0.9c0.2-0.7-0.1-1.7-0.9-1.9l-1.2-0.3c-0.8-0.2-1.7,0.1-1.9,0.9 C92.5,53.5,92.9,54.5,93.7,54.7z"/>
    <circle cx="30.2" cy="19" r="1.8"/>
    <circle cx="24" cy="19.1" r="1.5"/>
    <path d="M25.3,25.1c0-0.5-0.4-0.8-0.8-0.8s-0.8,0.3-0.8,0.8c0,0.4,0.3,0.8,0.8,0.8C24.9,25.9,25.3,25.6,25.3,25.1z"/>
    <circle cx="36.7" cy="18.2" r="1"/>
    <path d="M28,24.8c0.8,0,1.4-0.6,1.4-1.4c0-0.8-0.6-1.4-1.4-1.4s-1.4,0.6-1.4,1.4C26.6,24.2,27.2,24.8,28,24.8z"/>
    <path d="M35.1,25.2c1.3,0,2.4-1.1,2.4-2.4s-1.1-2.4-2.4-2.4c-1.3,0-2.4,1.1-2.4,2.4S33.8,25.2,35.1,25.2z"/>
    <path d="M19.5,40c1.4,0,2.4-1.1,2.4-2.4c0-1.3-1.1-2.4-2.4-2.4s-2.4,1.1-2.4,2.4C17.1,38.9,18.2,40,19.5,40z"/>
    <path d="M41.3,39.6c1.3,0,2.4-1.1,2.4-2.4s-1.1-2.4-2.4-2.4s-2.4,1.1-2.4,2.4C38.9,38.5,40,39.6,41.3,39.6z"/>
    <path d="M50.8,59.5c-1-0.2-1.9-0.4-2.9-0.6c-0.8-0.2-1.5,0.7-1.6,1.4v0.1c-0.1,0.7,0.3,1.3,1,1.6c1.1,0.6,2.5,0.7,3.7,0.4 c0.7-0.2,1.2-0.8,1.2-1.6C52.1,60.1,51.6,59.6,50.8,59.5z"/>
    <path d="M66.5,59.5c1.8,0.8,3.8,0.5,5.4-0.6c0.7-0.5,0.3-1.6-0.4-1.9c-1.7-0.7-3.4-0.6-5.1,0.1c-0.5,0.2-0.6,0.6-0.6,1 C65.8,58.6,65.9,59.2,66.5,59.5z"/>
    <path d="M62.4,59c-0.1-0.1-0.2-0.2-0.3-0.2c-0.6-0.3-1.1-0.5-1.7-0.6c-1.3-0.2-2.6,0-3.7,0.6c-0.6,0-1.2,0.2-1.5,1 c-0.1,0.3-0.2,0.5-0.3,0.8c-0.2,0.6,0,1.3,0.6,1.7c2.2,1.7,5.5,1.4,7.4-0.6c0.7-0.8,0.6-1.7-0.1-2.4C62.6,59.2,62.5,59.1,62.4,59z"/>
    <path d="M68.7,63.1c-0.8,0.1-1.5,0.3-2.2,0.7c-1.1,0.7-1.1,2.3,0.2,2.8c1.9,0.8,3.8,0.7,5.7-0.1c1-0.4,1-1.6,0.5-2.3 C71.8,62.9,70.1,62.5,68.7,63.1z"/>
  </g>
</svg>