<svg viewBox="0 0 128 128" xmlns="http://www.w3.org/2000/svg">
  <g>
    <path d="M123.4,27.3c-0.7-1.4-7.6-4.6-14.5-4.6c-1.9,0-3.9,0.3-5.7,0.9C97.7,25.4,92,29.8,92,29.8s-0.4-0.3-1.2-0.7 c0.8-5.1,1.5-14.5-3.8-15.5c-4.9-0.9-9.3,6.8-11.2,10.8c-2.8-0.5-5.9-0.8-9.3-0.9c-1.7-0.1-3.3-0.1-4.7-0.1c-2.8,0-5,0.1-6.7,0.3 c-1.5-2.7-7.3-12.7-12.3-11c-4,1.4-3.2,10.6-2.3,16c-0.9,0.6-1.5,1-1.5,1s-6.5-6.8-16.6-7.7C12,20.9,4.4,26.3,4.3,27 c-0.1,0.7,3.8,14.5,11,19.3c2.1,1.4,4.8,2,6.7,2.3c4.8,0.7,6.7,0.1,6.7,0.1s-0.7,7.5-0.8,11.3c-0.1,3.8-0.2,9.2-0.7,13.1 c-0.2,2.2-2.9,7.7-3.6,12.3c0,0,0,0,0,0c-1,2.5-1.4,5.1-1.4,7.3c0.1,8,2.7,16.6,14.4,23c7,3.8,18.6,5.2,29.2,5.2 c7.2,0,14-0.7,18.5-1.7c11.1-2.5,21.6-11.5,22.6-24.1c0.2-2.2,0-4.3-0.5-6.2c-0.1-1.1-0.2-2.3-0.4-3.6c-0.6-4.8-1.3-7.5-2.6-11.5 c-0.6-2-1.1-5.8-1-9.4c0.2-6.4,1.6-14.9,1.6-14.9s0.1,0,0.2,0c1.1,0,6.3-0.2,11.2-4.4C120.3,40.8,124.1,28.6,123.4,27.3z M48.5,64.1c-2.9-0.4-4.9-3.8-4.3-7.5s3.4-6.4,6.3-6c2.9,0.4,4.9,3.8,4.3,7.5C54.3,61.8,51.5,64.5,48.5,64.1z M21.3,41.8 c-3.4-1.1-5.5-3.5-7-5.4c-2.4-3.3-2.6-6.7-2.6-6.7s7.6-2.4,13.5-0.5c7.2,2.2,8.4,6.2,7.8,8.3C32.2,39.6,29.2,44.4,21.3,41.8z M104.9,94.8c-1,12.3-11.6,20.1-21,22.3c-4.5,1-11.2,1.6-18,1.6c-12.2,0-22.5-1.8-28.3-5c-11.6-6.3-13.3-14.6-13.4-21.2 c-0.1-7.1,5.1-17.6,17.1-18.9c1.8-0.2,3.4-0.3,4.8-0.3l0-2l0,0v2c3.6,0,5.8,0.6,8.2,1.3c2.7,0.8,5.8,1.7,11.4,1.8 c0.8,0,1.6,0,2.3,0c5.1,0,8.5-0.4,11.4-0.8c2.3-0.3,4.4-0.6,6.9-0.6c0.8,0,1.7,0,2.6,0.1c4,0.3,8.4,2.7,11.6,6.3 C102.7,84.1,105.4,88.6,104.9,94.8z M114.1,43.5c-4.4,3.7-9,3.9-9.9,3.9l-0.1,0l-1.8-0.1l-0.3,1.8c-0.1,0.4-1.3,8.7-1.6,15.1 c-0.1,3.6,0.3,7.7,1.1,10.1c0.9,2.9,1.6,5.1,2.1,8c-3.6-5.4-9.5-8.8-14.5-9.1c-1-0.1-1.9-0.1-2.7-0.1c-5.9,0-9.3,1.4-18.3,1.4 c-0.7,0-1.5,0-2.2,0c-8-0.2-10.5-2-15.2-2.8c0.1,0,0.3,0,0.4,0.1c0.3-0.1,0.6-0.2,0.8-0.4c2.3-1.2,15.4-7,16.3-24.5 c0.7-12.5-5.4-18.7-9.6-21.4c1,0,2-0.1,3.2-0.1c1.4,0,3,0,4.6,0.1c15.7,0.5,24.5,6,24.6,6l1.2,0.7l1.1-0.8c0.1,0,5.5-4.2,10.6-5.9 c1.5-0.5,3.2-0.8,5.1-0.8c5.7,0,11.2,2.3,12.5,3.4C121.2,30.5,118,40.1,114.1,43.5z"/>
    <path d="M104.5,28.8c-6.6,1.5-8.6,7.2-6.6,10.9c3,5.2,9.3,3.8,13.1,1.3c4.6-3,6.6-10.7,6.6-10.7S111.1,27.2,104.5,28.8z"/>
    <path d="M82.6,51c-2.9,0.5-4.8,3.9-4.3,7.6c0.6,3.7,3.4,6.4,6.4,6c2.9-0.5,4.8-3.9,4.3-7.6S85.5,50.5,82.6,51z"/>
    <path d="M76.8,87.5c-5,3.5-6.7,9.7-3.7,12c1,0.8,3.4,1.3,5.1-0.2c1.8-1.6,2.3-3.6,3.7-4.3s3.4-0.5,4.9-1.7c1.6-1.2,3.1-3,1.8-5.9 C87.5,85.2,82.1,83.8,76.8,87.5z"/>
    <path d="M53,87.5c-4.8-3.7-11.5-3.8-12.5,0.4c-0.4,1.8,0,3.8,1.9,4.9c2.1,1.2,4.1,1.5,5.2,2.5c1.1,1,1.6,2,3.1,3.3 c1.5,1.3,3.9,2.4,6.3,0.2C59.1,96.9,58,91.4,53,87.5z"/>
  </g>
</svg>