<svg viewBox="0 0 128 128" xmlns="http://www.w3.org/2000/svg">
  <g>
    <path d="M90.64,48.07c-3.21-6.69-9.04-12-16.04-14.55c-3.08-1.13-6.41-1.75-9.89-1.75s-6.81,0.62-9.89,1.75 c-11.17,4-18.98,15.09-18.87,27.01c0,15.88,12.88,28.76,28.76,28.76c15.88,0,28.76-12.88,28.76-28.76 C93.47,56.08,92.5,51.96,90.64,48.07z M81.92,63.14c-0.14,0-0.27-0.01-0.41-0.02c-1.25,8.16-8.29,14.43-16.79,14.43 c-9.38,0-17.01-7.63-17.01-17.01c0-9.38,7.63-17.01,17.01-17.01c5.63,0,10.61,2.76,13.71,6.98c4.31-2.75,10.44,0.66,10.29,5.83 C88.72,60.1,85.68,63.14,81.92,63.14z"/>
    <path d="M64.72,45.53c-8.28,0-15.01,6.73-15.01,15.01c0,8.28,6.73,15.01,15.01,15.01c7.54,0,13.78-5.59,14.84-12.84 c-2.59-0.96-4.44-3.45-4.44-6.37c0-1.76,0.67-3.35,1.76-4.56C74.16,48,69.73,45.53,64.72,45.53z"/>
    <path d="M126.96,62.29c0.23-0.64,0.24-1.35,0.02-2c-0.15-0.44-3.85-11.01-13.34-21.66C104.83,28.77,89.2,17,64.73,17 c-24.46,0-40.18,11.76-49.05,21.63C6.11,49.27,2.33,59.83,2.17,60.27c-0.21,0.61-0.23,1.27-0.03,1.89 C2.27,62.6,5.54,72.88,14.9,83.21c8.64,9.54,24.29,20.91,49.81,20.91c6.97,0.07,13.88-0.87,20.56-2.75 c7.14,8.34,19.91,12.04,26.05,12.85c0.2,0.02,0.39,0.03,0.59,0.03c2.48,0,4.65-1.86,4.97-4.38c0.15-1.2-0.14-2.41-0.82-3.41 c-2.39-3.52-6.47-10.15-8.33-16.84C116.47,82.39,123.1,72.98,126.96,62.29z M88.82,96.18c-0.57-0.81-1.49-1.27-2.45-1.27 c-0.3,0-0.6,0.04-0.9,0.14c-6.7,2.1-13.69,3.14-20.74,3.07c-41.01,0-54.34-30.83-56.54-36.8C10.65,55.19,25.45,23,64.73,23 c39.21,0,53.77,32.09,56.21,38.27c-3.75,9.81-10.11,18.38-18.42,24.84c-0.91,0.71-1.33,1.87-1.09,3 c1.48,6.91,5.15,13.75,8.38,18.77C103.14,106.53,93.43,102.7,88.82,96.18z"/>
  </g>
</svg>