<svg viewBox="0 0 128 128" xmlns="http://www.w3.org/2000/svg">
  <path d="M122.96,86.45c-0.01-0.17-0.03-0.34-0.09-0.51l-13.76-38.7c-0.34-1.02-1.3-1.7-2.37-1.7H80.13l11.35-13.61 c0.61-0.73,0.73-1.71,0.33-2.56s-1.23-1.38-2.17-1.38l-11.51,0.03V4.9c0-1.32-1.08-2.4-2.4-2.4H52.27c-1.32,0-2.4,1.08-2.4,2.4 v23.12l-11.51-0.03c-0.94,0-1.77,0.53-2.17,1.38s-0.28,1.83,0.33,2.56l11.35,13.61H21.26c-1.07,0-2.03,0.68-2.37,1.7L5.13,85.94 c-0.06,0.17-0.08,0.34-0.09,0.51c-0.02,0-0.04,0-0.04,0v35.09C5,122.9,6.1,124,7.46,124h113.07c1.36,0,2.47-1.1,2.47-2.47V86.45 C123,86.45,122.98,86.45,122.96,86.45z M39.64,30.99l10.83,0.03c1.32,0,2.4-1.08,2.4-2.4V5.5h22.26v23.12c0,1.32,1.08,2.4,2.4,2.4 l10.83-0.03L64,60.2L39.64,30.99z M23.46,70.08h81.08l5.02,14.35h-9.38c-3.02,0-5.75,1.68-7.11,4.4c-1.33,2.64-4.31,7.08-9.32,7.08 h-39.5c-5.01,0-7.99-4.43-9.32-7.08c-1.36-2.71-4.09-4.4-7.11-4.4h-9.38L23.46,70.08z"/>
</svg>