<svg viewBox="0 0 128 128" xmlns="http://www.w3.org/2000/svg">
  <g>
    <path d="M110.06,4h-0.91c-4,0-4.53,0-4.53,0H12.56C9.38,4,6.81,6.57,6.81,9.75v100.77c0,3.12,2.9,5.21,6.32,7.61 c3.9,2.74,8.48,5.25,10.17,5.25l93.55,0.62c2.4,0,4.34-2.94,4.34-5.34V11.47C121.19,9.57,119.71,4,110.06,4z M98.95,8.29 c3.92,0,7.1,3.18,7.1,7.1c0,3.92-3.18,7.1-7.1,7.1s-7.1-3.18-7.1-7.1C91.85,11.47,95.03,8.29,98.95,8.29z M75.31,20.59l2.75,9.24 l2.75-9.24h4.26L79.1,37.75l-0.33,0.78c-0.89,1.94-2.35,2.91-4.39,2.91c-0.58,0-1.16-0.09-1.76-0.26v-3.01l0.6,0.01 c0.75,0,1.31-0.11,1.68-0.34c0.37-0.23,0.66-0.61,0.87-1.14l0.47-1.22l-5.2-14.89H75.31z M65.27,14.37h3.98v21.08h-3.98V14.37z M49.25,20.6h3.97v9.61c0,1.55,0.7,2.32,2.11,2.32c1.35,0,2.27-0.47,2.77-1.4V20.6h3.98v14.85h-3.73l-0.12-1.51 c-0.98,1.19-2.33,1.78-4.06,1.78c-1.59,0-2.81-0.46-3.64-1.37c-0.84-0.91-1.27-2.26-1.28-4.02V20.6z M36.82,29.56 c0,0.98,0.21,1.7,0.62,2.17c0.41,0.47,1.06,0.7,1.95,0.7c0.79,0,1.41-0.27,1.88-0.81c0.47-0.54,0.7-1.31,0.7-2.31V15.46h4.1V29.3 c0,1.27-0.28,2.4-0.84,3.37c-0.56,0.97-1.36,1.73-2.38,2.26c-1.03,0.53-2.18,0.8-3.47,0.8c-2.11,0-3.76-0.54-4.94-1.61 s-1.77-2.6-1.77-4.56H36.82z M20.44,8.29c3.92,0,7.1,3.18,7.1,7.1c0,3.92-3.18,7.1-7.1,7.1s-7.1-3.18-7.1-7.1 C13.34,11.47,16.52,8.29,20.44,8.29z M114.7,108.46c0,0.12,0,0.24-0.01,0.35c-0.03,0.83-0.3,1.59-0.75,2.24 c-0.02,0.03-0.03,0.07-0.05,0.1c-0.88,1.32-2.37,2.19-4.07,2.19H87.35c4.56-0.25,13.6-1.71,19.82-9.03 c7.22-8.5,7.52-13.58,7.53-14.2V108.46z M114.7,90.04c0,0-0.03,0.04-0.09,0.11c-0.47,0.56-2.92,3.11-9.15,3.74 c-2.47,0.25-6.01-0.7-8.62-1.57c-1.57-0.52-3.2,0.6-3.25,2.24c-0.07,2.11-0.42,5.07-1.55,8.59c-1.85,5.79-7.36,10.06-7.53,10.19 H14.63c-2.69,0-4.88-2.18-4.88-4.88V52.35l104.95-0.11V90.04z"/>
    <polygon points="50.65,59.05 32.76,65.46 32.76,72.43 43,69.26 43,102.31 51.57,102.31 51.57,59.05 "/>
    <polygon points="61.45,66.03 82.93,66.03 66.2,102.31 75.25,102.31 91.95,63.9 91.95,59.12 61.45,59.12 "/>
  </g>
</svg>