<svg viewBox="0 0 128 128" xmlns="http://www.w3.org/2000/svg">
  <path d="M4,4v120h120V4H4z M5.99,25.66H23.7v17.67H5.99V25.66z M23.7,45.33V63H5.99V45.33H23.7z M23.7,65v17.67H5.99V65H23.7z M22.86,84.67l-9.81,17.67H5.99V84.67H22.86z M23.7,95.43v6.91h-3.82L23.7,95.43z M11.94,104.34l-5.95,10.73v-10.73H11.94z M18.78,104.34h4.92V122H9.01L18.78,104.34z M84.65,82.67V65h17.65v17.67H84.65z M102.3,84.67v17.67H84.65V84.67H102.3z M84.65,63 v-1.49l12.12-16.18h5.53V63H84.65z M84.65,51.51v-6.18h4.63L84.65,51.51z M98.27,43.33l4.03-5.38v5.38H98.27z M90.78,43.33h-6.13 V25.66h17.65v2.29L90.78,43.33z M67.29,84.67h15.36v17.67H65V87.73L67.29,84.67z M65,77.73V65h9.53L65,77.73z M68.79,82.67L82.03,65 h0.62v17.67H68.79z M76.03,63H65V45.33h17.65v8.84L76.03,63z M65,43.33V25.66h17.65v17.67H65z M65,23.66V5.99h17.65v17.67H65z M56.45,99.13L63,90.39v11.95H45.35V88.87L56.45,99.13z M49.65,84.67h10.14l-4.15,5.54L49.65,84.67z M61.29,82.67H47.48l-2.13-1.98 V65H63v15.39L61.29,82.67z M45.35,63V45.33H63V63H45.35z M45.35,43.33V25.66H63v17.67H45.35z M45.35,23.66V5.99H63v17.67H45.35z M40.81,84.67l2.54,2.35v15.32H25.7V91.83l3.96-7.16H40.81z M30.76,82.67l2.67-4.82l5.21,4.82H30.76z M31.94,68.3L25.7,79.55V65 h17.65v13.85L31.94,68.3z M25.7,63V45.33h17.65V63H25.7z M25.7,43.33V25.66h17.65v17.67H25.7z M25.7,23.66V5.99h17.65v17.67H25.7z M43.35,104.34V122H25.7v-17.66H43.35z M45.35,104.34H63V122H45.35V104.34z M65,104.34h17.65V122H65V104.34z M84.65,104.34h17.65 V122H84.65V104.34z M84.65,23.66V5.99h17.65v17.67H84.65z M122.01,82.67H104.3V65h17.71V82.67z M104.3,63V45.33h17.71V63H104.3z M104.3,43.33v-8.04l7.22-9.63h10.49v17.67H104.3z M113.01,23.66l9-12v12H113.01z M105.52,23.66h-1.22V5.99h14.46L105.52,23.66z M104.3,84.67h17.71v17.67H104.3V84.67z M23.7,5.99v17.67H5.99V5.99H23.7z M104.3,122v-17.66h17.71V122H104.3z"/>
</svg>