<svg viewBox="0 0 128 128" xmlns="http://www.w3.org/2000/svg">
  <g>
    <path d="M19.94,125.16c-1.29,0-2.45-0.83-2.85-2.08c-0.42-1.31,0.1-2.74,1.27-3.47c4.22-2.62,9.73-11.5,9.92-17.75 c0.08-2.75-0.92-3.73-1.41-4.11C10.1,88.75,0.21,73.97,0.39,58.19C0.58,42.32,7.12,5.36,63.63,5.07c0,0,0,0,0,0 c21.74-0.11,38.28,5.39,49.27,16.32c9.16,9.12,14,21.85,14,36.84c0,28.03-26.57,48.38-63.17,48.38c-3.34,0-6.68-0.2-9.95-0.58 c-8.55,17.22-32.59,19.05-33.65,19.12C20.08,125.16,20.01,125.16,19.94,125.16z M63.67,11.07L63.67,11.07 C14.32,11.32,6.6,40.75,6.39,58.27c-0.16,13.75,8.4,26.25,23.48,34.3c0.11,0.06,0.22,0.12,0.32,0.2c1.95,1.38,4.24,4.11,4.08,9.28 c-0.15,5.02-2.61,10.83-5.78,15.45c7.27-2.04,17-6.45,20.67-15.83c0.51-1.3,1.84-2.08,3.23-1.88c3.7,0.54,7.52,0.82,11.34,0.82 c15.87,0,30.36-4.17,40.8-11.73c10.71-7.75,16.37-18.35,16.37-30.65c0-13.35-4.23-24.62-12.23-32.59 C98.86,15.88,83.72,11.01,63.67,11.07z"/>
    <circle cx="32.6" cy="57" r="8"/>
    <circle cx="64.6" cy="57" r="8"/>
    <circle cx="95.4" cy="57" r="8"/>
  </g>
</svg>