<svg viewBox="0 0 128 128" xmlns="http://www.w3.org/2000/svg">
  <g>
    <path d="M124.8,39.2c1.3-5.8-0.1-11.1-3.7-14.3c-3.2-2.8-7.6-3.5-11.8-1.9c-4.5,1.7-8,4.4-10.5,6.8c-3.1-2.6-6.4-4.8-9.9-6.6 c-8.4-4.2-14.7-2.5-19.3-0.6c-1.9,0.8-3.7,1.2-5.7,1.2c-1.9,0-3.5-0.4-5.5-1.2c-4.6-2-10.9-3.7-19.3,0.6c-3.5,1.8-6.8,4-9.8,6.6 c-2.5-2.4-5.9-5-10.4-6.8c-4.2-1.6-8.6-0.9-11.8,1.9c-3.7,3.2-5.1,8.6-3.7,14.3c1.6,6.8,6.1,11.4,9.5,14c-1.2,3-2.3,6.2-3.1,9.5 c-5,19.5,2.9,27.3,8.7,33.1c10.4,10.3,33.2,11.7,44,11.7c0.6,0,1.1,0,1.6,0c10.1,0.1,34.7-0.8,45.6-11.7 c5.8-5.8,13.7-13.6,8.7-33.1v0c-0.8-3.3-1.9-6.4-3.1-9.4C118.6,50.7,123.2,46,124.8,39.2z M6.2,38.5c-1.1-4.7,0-8.9,2.8-11.4 c1.5-1.3,3.4-2,5.4-2c1.1,0,2.2,0.2,3.4,0.6c3.9,1.5,7,3.9,9.2,6c-1.6,1.5-3.1,3.2-4.6,4.9c-2.1-0.9-4.3-1.8-6.3-2.5 c-3.5-1.4-4,0-2.8,2.8c0.7,1.6,2.2,4.6,3.8,7.5c-1.1,1.9-2.1,3.8-3,5.9C11,47.9,7.4,44,6.2,38.5z M107.4,93.7 c-7.2,7.1-23,11-43.5,10.8c-20.5,0.3-36.3-3.7-43.5-10.8c-5.9-5.8-12.5-12.4-7.9-30.2C17.1,46,27,32.6,40.4,25.8 c7.2-3.7,12.5-2.3,16.7-0.5c2.3,1,4.4,1.4,6.7,1.4c2.4,0,4.6-0.5,6.9-1.4c4.2-1.8,9.5-3.1,16.7,0.5c13.4,6.8,23.4,20.1,27.9,37.6 C119.9,81.2,113.3,87.8,107.4,93.7z M113.9,50.4c-0.9-2-1.9-4-3-5.8c1.6-2.9,3.2-6,3.9-7.6c1.2-2.9,0.7-4.2-2.8-2.8 c-2,0.8-4.3,1.7-6.5,2.6c-1.4-1.7-2.9-3.4-4.5-4.9c2.2-2.2,5.4-4.5,9.3-6.1c3.1-1.2,6.4-0.7,8.8,1.4c2.8,2.5,3.9,6.7,2.8,11.4 C120.5,44.1,116.9,48,113.9,50.4z"/>
    <path d="M64,42.9c-3.8,0-14.4,1.7-19.9,15.8c-3,7.5-4.9,13.3-3.7,19.1c2.4,11.6,11.9,17,23.6,17s21.2-5.4,23.6-17 c1.2-5.8-0.7-11.6-3.7-19.1C78.4,44.6,67.8,42.9,64,42.9z M85.7,77.3c-2.1,9.8-9.9,15.4-21.6,15.4c-11.7,0-19.6-5.6-21.6-15.4 c-1.1-5.4,0.8-11.1,3.6-17.9C51.3,45.9,61.1,44.9,64,44.9s12.8,1,18.1,14.5C85.3,67.4,86.7,72.3,85.7,77.3z"/>
    <path d="M75.4,75.1c-1.2-0.9-3.3-2.1-6.1-3.1c-1.6-0.6-2.8-2-2.8-3.7c2-0.6,4.6-1.4,5.7-2.1c1.5-0.9,2.9-2.5,3.4-4.5 c1.2-4.5-3.3-8.4-5-9.4c-3-1.9-9.5-1.8-13.4,0c-1.8,0.8-6,5.1-4.8,9.7c0.5,2,1.9,3.6,3.4,4.5c1.1,0.7,3.7,1.5,5.6,2 c-0.3,1.7-1.5,3.1-3.2,3.7c-2.5,1-4.5,2.2-5.6,3c-0.7,0.5-1.2,1.5-0.9,2.4c0.4,1.1,2.3,1,3.4,0.5c2.9-1.3,5.6-2,8.9-2 c3.3,0,6,0.7,8.9,2c1.1,0.5,3,0.6,3.4-0.5C76.6,76.6,76.1,75.6,75.4,75.1z"/>
    <ellipse cx="87.3" cy="47.2" rx="4.4" ry="4.4" transform="matrix(0.9871 -0.1602 0.1602 0.9871 -6.44 14.5906)"/>
    <circle cx="40.7" cy="47.2" r="4.4"/>
  </g>
</svg>