<svg viewBox="0 0 128 128" xmlns="http://www.w3.org/2000/svg">
  <g>
    <path d="M125.64,98.25h-0.01l-5.97-50.83c-0.14-1.88-1.96-5.5-6.81-5.5h-8.6c0,0,2.59-23.43-3.45-38.01H38.89 c3.89,12.08,3.78,28.45,3.55,34.89c-1.45-1.76-3.83-3.34-6.94-3.78c-7.01-1-11.88,0.79-15.68,6.9c-4.82,0.01-7.24,1.65-8.21,7.1 L7.09,97.63c-0.13,1.48-0.06,2.77,0.21,3.86c-0.11,1.3-0.21,2.91-0.26,4.6c0,0-7.62,0.21-4.62,8.1c-1.29,2.58,1.35,4.85,1.35,4.85 c1.08,5.1,5.56,3.63,5.59,3.62c0.07-0.01,0.27-0.02,0.3-0.02c0.39,0.05,0.64,0.41,0.96,0.65c0.74,0.56,1.63,0.8,3.55,0.85 c1.23,0.03,1.78,0.02,2.94-1.05c0.41-0.38,1.46,0.35,2.87,0.17c2.17-0.27,2.88-1.39,3.18-2.04h94.9c2.98,0,5.78-1.74,6.92-4.22 C127.36,111.81,125.64,98.25,125.64,98.25z M105.96,49.85c0.49,0,0.88,0.39,0.88,0.88s-0.39,0.88-0.88,0.88 c-0.49,0-0.88-0.39-0.88-0.88S105.47,49.85,105.96,49.85z M105.96,53.15c0.49,0,0.88,0.39,0.88,0.88c0,0.49-0.39,0.88-0.88,0.88 c-0.49,0-0.88-0.39-0.88-0.88C105.08,53.54,105.47,53.15,105.96,53.15z M108.3,64.14c1.52,0,2.76,1.24,2.76,2.76 c0.01,1.52-1.23,2.76-2.76,2.76H96.09c-1.52,0-2.76-1.24-2.76-2.76c0-1.52,1.24-2.76,2.76-2.76H108.3z M111.56,76.61 c0.01,1.52-1.24,2.76-2.76,2.76H96.59c-1.52,0-2.76-1.24-2.76-2.76c0-1.52,1.24-2.76,2.76-2.76h12.21 C110.32,73.85,111.56,75.09,111.56,76.61z M95.91,53.15c0.49,0,0.88,0.39,0.88,0.88c0,0.49-0.39,0.88-0.88,0.88 c-0.49,0-0.88-0.39-0.88-0.88C95.03,53.54,95.42,53.15,95.91,53.15z M95.03,50.73c0-0.49,0.39-0.88,0.88-0.88 c0.49,0,0.88,0.39,0.88,0.88s-0.39,0.88-0.88,0.88C95.42,51.61,95.03,51.22,95.03,50.73z M99.26,49.85c0.49,0,0.88,0.39,0.88,0.88 s-0.39,0.88-0.88,0.88s-0.88-0.39-0.88-0.88S98.77,49.85,99.26,49.85z M98.38,47.43c0-0.49,0.39-0.88,0.88-0.88 s0.88,0.39,0.88,0.88s-0.39,0.88-0.88,0.88S98.38,47.92,98.38,47.43z M99.26,53.15c0.49,0,0.88,0.39,0.88,0.88 c0,0.49-0.39,0.88-0.88,0.88s-0.88-0.39-0.88-0.88C98.38,53.54,98.77,53.15,99.26,53.15z M99.26,56.44c0.49,0,0.88,0.39,0.88,0.88 s-0.39,0.88-0.88,0.88s-0.88-0.39-0.88-0.88S98.77,56.44,99.26,56.44z M102.61,49.85c0.49,0,0.88,0.39,0.88,0.88 s-0.39,0.88-0.88,0.88s-0.88-0.39-0.88-0.88S102.12,49.85,102.61,49.85z M101.73,47.43c0-0.49,0.39-0.88,0.88-0.88 s0.88,0.39,0.88,0.88s-0.39,0.88-0.88,0.88S101.73,47.92,101.73,47.43z M102.61,53.15c0.49,0,0.88,0.39,0.88,0.88 c0,0.49-0.39,0.88-0.88,0.88s-0.88-0.39-0.88-0.88C101.73,53.54,102.12,53.15,102.61,53.15z M102.61,56.44 c0.49,0,0.88,0.39,0.88,0.88s-0.39,0.88-0.88,0.88s-0.88-0.39-0.88-0.88S102.12,56.44,102.61,56.44z M98.68,6.91 c4.18,12.63,3.19,27.85,2.77,32.39l-0.25,2.62H45.32l0.09-2.22c0.25-6.08,0.44-20.58-2.56-32.79H98.68z M66.86,89.08 c-2.09,0-3.79-1.49-3.79-3.32s1.7-3.32,3.79-3.32c2.09,0,3.79,1.49,3.79,3.32S68.95,89.08,66.86,89.08z M70.65,95.47 c0,1.83-1.7,3.32-3.79,3.32c-2.09,0-3.79-1.49-3.79-3.32c0-1.83,1.7-3.32,3.79-3.32C68.95,92.15,70.65,93.64,70.65,95.47z M66.86,79.37c-2.09,0-3.79-1.49-3.79-3.32s1.7-3.32,3.79-3.32c2.09,0,3.79,1.49,3.79,3.32S68.95,79.37,66.86,79.37z M66.86,69.66 c-2.09,0-3.79-1.49-3.79-3.32c0-1.83,1.7-3.32,3.79-3.32c2.09,0,3.79,1.49,3.79,3.32C70.65,68.17,68.95,69.66,66.86,69.66z M53.71,57.34c-2.57,0-4.67-1.49-4.67-4.52v-0.01c0-3.03,2.1-4.52,4.67-4.52h27.16c2.57,0,4.67,1.49,4.67,4.52v0.01 c0.01,3.03-2.09,4.52-4.65,4.52H53.71z M52.21,89.08c-2.09,0-3.79-1.49-3.79-3.32s1.7-3.32,3.79-3.32c2.09,0,3.79,1.49,3.79,3.32 S54.3,89.08,52.21,89.08z M55.18,95.47c0,1.83-1.7,3.32-3.79,3.32c-2.09,0-3.79-1.49-3.79-3.32c0-1.83,1.7-3.32,3.79-3.32 C53.48,92.15,55.18,93.64,55.18,95.47z M53.03,79.37c-2.09,0-3.79-1.49-3.79-3.32s1.7-3.32,3.79-3.32c2.09,0,3.79,1.49,3.79,3.32 S55.12,79.37,53.03,79.37z M53.84,69.66c-2.09,0-3.79-1.49-3.79-3.32c0-1.83,1.7-3.32,3.79-3.32c2.09,0,3.79,1.49,3.79,3.32 C57.63,68.17,55.93,69.66,53.84,69.66z M79.88,63.02c2.09,0,3.79,1.49,3.79,3.32c0,1.83-1.7,3.32-3.79,3.32 c-2.09,0-3.79-1.49-3.79-3.32C76.09,64.51,77.79,63.02,79.88,63.02z M80.7,72.73c2.09,0,3.79,1.49,3.79,3.32s-1.7,3.32-3.79,3.32 c-2.09,0-3.79-1.49-3.79-3.32S78.61,72.73,80.7,72.73z M81.52,82.44c2.09,0,3.79,1.49,3.79,3.32s-1.7,3.32-3.79,3.32 c-2.09,0-3.79-1.49-3.79-3.32S79.43,82.44,81.52,82.44z M82.33,92.15c2.09,0,3.79,1.49,3.79,3.32c0,1.83-1.7,3.32-3.79,3.32 c-2.09,0-3.79-1.49-3.79-3.32C78.54,93.64,80.24,92.15,82.33,92.15z M4.76,108.96c0.12-0.14,0.26-0.26,0.43-0.36l0.15,2.66 l0.02,0.19c-0.56,0.1-1.1,0.38-1.54,0.76C3.66,111.22,4.03,109.85,4.76,108.96z M7.89,119.99c0.09,0.4,0.12,0.7,0.09,0.92 c-0.04,0-0.08,0.02-0.13,0.02c-0.43,0-0.87-0.15-1.18-0.41c-0.19-0.14-0.28-0.36-0.47-0.91c-0.17-0.47-0.38-1.05-0.77-1.64 c-0.22-0.34-0.44-0.63-0.64-0.89c-0.64-0.85-0.63-0.9-0.53-1.27l0.04-0.14c0.1-0.35,0.3-1.24,0.12-1.77 c0.3-0.33,0.65-0.65,1.05-0.94l1.93,0.18c0.95,0,2.24,0.89,2.73,1.89C8.4,115.98,7.46,118.13,7.89,119.99z M13.33,122.09 c-0.72-0.06-1.25-0.1-1.59-0.49c-0.29-0.34-0.87-0.82-1.84-0.95H9.89c0.02-0.45,0.14-0.93,0.3-1.24c0.29-0.57,1.02-1.38,1.6-2.11 c0.53,0.35,1.33,0.65,2.02,0.53c-0.03,1.5,0.54,2.99,1.54,4.1C15.35,121.93,14.17,122.16,13.33,122.09z M20.75,121.01 c-0.32,0.18-1.14,0.43-2.19,0.13c-1.04-0.3-1.67-0.13-1.93-0.04c-0.6-0.9-0.27-2.44-0.7-3.79c-0.05-0.17-0.13-0.34-0.22-0.5 c0.2-0.25,0.39-0.59,0.51-0.79c0.07-0.12,0.39-0.24,0.9-0.24c0.29,0,0.6,0.04,0.89,0.11c0.21,0.05,0.52,0.12,0.87,0.15 c-0.03,0.52,0.03,1.12,0.25,1.8c0.34,1.04,1.26,1.88,2.31,2.16C21.44,120.35,21.15,120.8,20.75,121.01z M25.62,116.98 c-0.33,0.48-1.03,0.62-1.63,0.72c-1.21,0.19-2.71-0.36-2.71-0.36c-0.4-0.56-0.68-1.1-0.87-1.59c1.01-0.52,1.63-1.64,1.6-2.96 c-0.02-0.29-0.06-0.56-0.09-0.77c-0.02-0.12-0.04-0.28-0.05-0.32c0.05-0.17,0.38-0.49,0.67-0.75c0.41,0.52,0.95,0.97,1.49,1.36 c0.64,0.46,1.32,0.95,1.81,1.56C25.84,113.87,26.54,115.65,25.62,116.98z M28.11,110.26c0.3,0.89-0.17,2.06-0.99,2.5l-0.19,0.1 c-0.46-0.76-0.97-1.47-1.62-2.07c-0.47-0.43-1.02-0.8-1.62-1.04c0.77-1.04,1.07-1.97,1.56-4.04c1.16,0.49,2.19,1.27,3,2.24 C27.6,108.7,27.98,109.88,28.11,110.26z M25.77,104.6c1.94-1.32,2.58,0.61,2.79,1.07C27.56,104.82,26.79,104.58,25.77,104.6z M38.71,80.86c1.25,3.44,0.69,8.29-1.18,11.49c-1.8,3.07-5.3,5.17-9.18,5.57c0.01,1.21-0.03,2.75-0.19,4.44 c-0.47-0.14-1.17-0.29-2-0.1c0.16-1.63,0.2-3.12,0.19-4.29c-3.8-0.18-7.35-2-9.39-4.82c-2.76-3.83-1.93-7.98-1.47-12.24 c1.14-10.52,3.93-28.14,4.64-31.55c1.87-8.94,7.08-12.41,14.86-11.38c4.33,0.57,6.3,3.5,6.72,5.75c1.01,5.41-2.58,8.32-2.75,8.65 c-0.18,0.36-1.95,17.38-2.3,25.22C36.63,78.23,37.86,78.52,38.71,80.86z M105.07,115.28H41.25c-1.09,0-1.53-0.74-1.25-1.78 l0.37-1.44c0.43-0.82,1.21-0.93,1.73-0.93h62.12c0.52,0,1.3,0.11,1.73,0.93l0.37,1.44C106.6,114.54,106.16,115.28,105.07,115.28z M103.19,99.15c-2.47,0-4.48-1.76-4.48-3.92c0-2.16,2.01-3.92,4.48-3.92c2.47,0,4.48,1.76,4.48,3.92 C107.67,97.39,105.66,99.15,103.19,99.15z M109.29,89.08H97.08c-1.52,0-2.76-1.24-2.76-2.76s1.24-2.76,2.76-2.76h12.21 c1.52,0,2.76,1.24,2.76,2.76C112.06,87.83,110.82,89.08,109.29,89.08z"/>
    <path d="M50.69,35.88H98.4c0.04-0.61,0.08-1.27,0.11-1.98H50.72C50.71,34.6,50.7,35.27,50.69,35.88z"/>
    <path d="M50.59,25.8c0.03,0.67,0.05,1.33,0.07,1.98h47.96c-0.01-0.64-0.02-1.31-0.04-1.98H50.59z"/>
    <path d="M98,17.7H50c0.07,0.66,0.13,1.32,0.19,1.98h48.02C98.15,19.03,98.08,18.37,98,17.7z"/>
    <path d="M96.6,9.6H48.79c0.13,0.65,0.26,1.32,0.37,1.98h47.87C96.9,10.92,96.76,10.26,96.6,9.6z"/>
  </g>
</svg>