<svg viewBox="0 0 128 128" xmlns="http://www.w3.org/2000/svg">
  <g>
    <path d="M101.7,90.8c0-0.1,0-0.1,0-0.1s-1.4-0.6-1.9-0.7c-0.5-0.2-1.8-0.5-1.8-0.5s0,0,0,0c-4.4-1.4-8.9-2.4-13.2-3.4c0,0,0,0,0,0 l-3.8-0.8c0,0,0,0,0,0c-4.9-1.1-9.6-2.1-13.6-3.4c-0.5-0.2-1.2-0.4-1.4-0.5c-0.2-0.1-0.5-0.2-0.8-0.3c-4.4-1.7-7.8-4-9.9-7.5 c-0.1-0.1-0.1-0.3-0.2-0.4c-0.2-0.5-0.5-1.3-0.7-1.6c-1-3-1.3-7.4-1.2-12.4c0,0,0.1,0,0.1,0l0-2.4c0.2-10.1,1.1-21.7-0.9-28.5 c-0.5-1.8-1.2-3.3-2.1-4.8c1.4-1.5,1.9-7.3,1.7-9.8c-0.5-4.7-3.1-6.9-4.1-7.8c-0.8-0.7-1.9-1.7-2.8-1c-0.9,0.7-0.3,1.9,0.4,3 c0.9,1.2,3,3.9,3,6.5c0,1.3-0.3,4.2-0.8,5.9c-0.3-0.3-0.6-0.6-0.9-0.8c0,0,0.1,0.1,0.1,0.1c0.2-1.5,0.1-3.3-0.5-5.2 c-2.1-5.9-9.2-8.3-10.2-8.7c-1-0.4-3.1-1.1-3.7-0.1c-0.5,0.9,0.1,2,2.2,2.8c2.1,0.8,6.5,2.7,7.8,4.8c0.8,1.3,1.4,2.5,1.3,4.1 c-3.9-2.5-8.6-3.7-13.1-3.7c-1.4,0-2.9,0.1-4.3,0.4c-10,1.8-16.8,11.7-14.6,21c1.9,8.5,11.4,8.6,12,10.3c0.2,0.7,0.3,2.1,0.3,4.1 c0-0.3,0-0.7,0-1c-0.1,0-0.3,0-0.4,0c-2.8,0-5.1,2.2-5.1,4.9s2.3,4.9,5.1,4.9c0.2,0,0.3,0,0.5,0c0,0.9,0,1.7,0,2.6 c0,0.9,0,1.9,0.1,3c0,0,0,0,0,0c-0.1,0-0.2,0-0.3,0c-2.8,0.2-4.9,2.6-4.7,5.3c0.2,2.7,2.7,4.7,5.5,4.5c0.1,0,0.2,0,0.3-0.1 c-0.1-0.6-0.2-1.2-0.2-1.8c0.3,2.6,0.7,5.4,1.3,8.2c-2.8,1-4.2,4.1-3.2,6.9c1,2.8,3.8,4.3,6.5,3.6c0,0,0,0,0,0 c0.2,0.5,0.5,1,0.7,1.4c0.8,1.4,1.7,2.7,2.7,4c0,0,0,0,0,0c0,0,0,0,0,0c-2.2,1.9-2.4,5.2-0.5,7.5s5.3,2.6,7.5,0.7 c0.2-0.2,0.4-0.4,0.6-0.6c0,0,0,0,0,0c2.1,1.7,4.2,3.1,6.3,4.2c-1,2.5,0.2,5.4,2.8,6.7c2.7,1.3,5.9,0.2,7.2-2.4 c0.1-0.2,0.2-0.5,0.3-0.7c0,0,0,0,0,0c2.9,0.6,6.2,1.1,9.7,1.6c-0.2,2.7,1.8,5.1,4.6,5.6c2.9,0.5,5.5-1.3,6.1-4.1 c-1.2-0.2-2.4-0.3-3.7-0.5c4.8,0.7,8.9,1.2,11,1.7c0.4,0.1,0.8,0.2,1.2,0.3c0,0.1-0.1,0.2-0.1,0.3c-0.5,2.9,1.6,5.6,4.5,6 c2.2,0.4,4.2-0.6,5.4-2.3c2.8,1.2,5.7,2.2,8.3,2.3c0.2,0,0.5,0,0.7,0c5,0,10.6-2.4,11.9-10.6C118.1,103.6,112,95.2,101.7,90.8z M114.8,111.1c-1.2,7.4-6.1,8.9-10,8.9c-0.2,0-0.4,0-0.7,0c-3.2-0.1-7.1-1.9-10.8-3.6c-2.9-1.3-5.6-2.6-8.2-3.1 c-2.1-0.5-6.2-1-10.9-1.7c-8-1.1-19-2.6-22.5-4.1c-3.1-1.3-13.5-6.3-19.7-17c-5-8.6-5.7-25.2-5.8-30c0-2.3,0-4.7,0-6.7 c0-5.2,0-8-0.5-9.3c-0.5-1.4-1.9-2-3.7-2.6c-3-1.1-7.1-2.6-8.2-7.5c-0.9-3.8-0.1-7.9,2.3-11.4c2.5-3.8,6.4-6.4,10.8-7.2 c1.3-0.2,2.6-0.3,3.9-0.3c5.8,0,12.3,2.3,16.4,7.2c0.1,0.4,0.4,0.7,0.7,1c1.1,1.5,2,3.3,2.6,5.3c1.3,4.4,1.3,11.3,1.1,18.4 c-1.6-0.1-4.4,1.5-7.4,2.5c-3.7,1.2-8.9,1-8.6,4.9c0.2,3.4,8,2,11,0.9c1.8-0.7,3.6-1.7,4.9-2.9c0,1.3-0.1,2.6-0.1,3.8 c-1.5,0.9-3.8,2.1-7.1,3.2c-3,0.9-7.3,1.9-8.8,1.9c-1.4,0-4.2-0.3-4.7,0.9c-0.6,1.5,1.2,2.6,3.8,2.9c3.4,0.3,8.5-1.1,12.3-2.5 c1.9-0.7,3.4-1.5,4.5-2.1c0,1.5,0.1,2.9,0.1,4.3c-2.1-0.4-5.6,1.5-7.9,2.4c-3.1,1.3-8.3,2.3-7.3,6.5c0.6,2.4,6.3,3.1,10.8,0.5 c1.9-1.1,3.9-2.5,5.1-4.2c0.2,1.2,0.5,2.2,0.9,3.1c-1.4,1.5-3.4,3.6-5.1,4.8c-3.3,2.3-7.4,3.6-8.8,3.8c-1.4,0.1-3.2,0.3-3,2.1 c0.2,1.8,2.8,1.7,4.2,1.7c2.1,0,7.1-2,10.3-4.3c1.8-1.3,3.5-3.1,4.6-4.3c0.7,0.9,1.6,1.7,2.5,2.4c-1.9,0.9-3.8,3.3-5.1,5 c-1.8,2.3-5.2,5.9-2.9,8.5c2.5,2.7,6.4-0.7,8.5-3.6c1.4-2,3.7-5,3.6-7.4c0.7,0.3,1.4,0.7,2.1,1c-0.3,2.2-0.8,5.8-1.9,7.7 c-2.5,4.7-5.8,7.3-6.2,7.7c-0.4,0.4-2,1.8-0.5,2.9c1.3,0.9,2.8,0,3.2-0.4c0.4-0.4,5-3.4,7.2-9.3c1-2.8,1.5-5.6,1.7-7.4 c1.3,0.4,2.7,0.8,4.2,1.2c-1.2,1.5-1.7,4.3-2.4,6.8c-1.2,4-1.6,7.5,0.6,8.3c2.6,0.9,4.8-2.1,6.1-6.2c0.8-2.7,1.7-5.7,1-7.7 c1.3,0.3,2.6,0.6,3.9,0.9c-0.1,1.9-0.3,4.9-1,7.5c-0.8,3-2.9,7.1-3.3,8c-0.4,0.8-1.3,2.2-0.5,3.3c1.2,1.6,3.3-0.3,3.9-1.8 c0.4-1,2.4-4.2,3.6-8.8c0.8-3,1-5.7,1-7.5c1.8,0.4,3.7,0.8,5.6,1.3c-1.3,1.4-1.7,4.4-2.3,6.9c-0.9,3.9-3.1,7.4,0.1,8.4 c3.9,1.2,6-3.9,6.7-7c0.5-2.3,1-5.1,0.2-7c1,0.3,2,0.6,3,0.9c0,2.3-0.2,5.9-0.8,8.2c-1.2,4.1-2.6,7.3-3.4,8.8 c-0.3,0.6-0.6,1.5,0.2,2.2c0.8,0.6,2.2,0.1,2.7-0.7c0.7-1,3-4.8,4-9.5c0.7-3.3,1-5.9,1-7.6c2,0.9,3.9,2,5.5,3.2 c-1.3,1-2.3,3.6-3,6.3c-1,3.9-1.9,6.6,0.6,7.4c3,1,5.1-3.4,5.9-6.8c0.3-1.2,0.4-2.3,0.3-3.3C114,103.2,115.5,107.2,114.8,111.1z"/>
    <path d="M32.2,58.1c1.7,0,3.1-1.4,3.1-3.1s-1.4-3.1-3.1-3.1c-1.7,0-3.1,1.4-3.1,3.1S30.5,58.1,32.2,58.1z"/>
    <circle cx="32.9" cy="74.9" r="3.1"/>
    <path d="M46.4,91.6c-1.7,0-3.1,1.4-3.1,3.1s1.4,3.1,3.1,3.1s3.1-1.4,3.1-3.1S48.1,91.6,46.4,91.6z"/>
    <path d="M68.5,100.5c-1.6,0-2.9,1.3-2.9,2.8c0,1.6,1.3,2.8,2.9,2.8c1.6,0,2.9-1.3,2.9-2.8C71.4,101.8,70.1,100.5,68.5,100.5z"/>
    <path d="M87,105.1c-1.6,0-2.8,1.2-2.8,2.7c0,1.5,1.3,2.7,2.8,2.7s2.8-1.2,2.8-2.7C89.9,106.3,88.6,105.1,87,105.1z"/>
    <path d="M103.7,110.3c-1.6,0-2.8,1.2-2.8,2.7c0,1.5,1.3,2.7,2.8,2.7s2.8-1.2,2.8-2.7C106.5,111.5,105.3,110.3,103.7,110.3z"/>
    <path d="M33.8,28.5c0.9-1.6,0.5-3.7-1-4.6c-1.5-0.9-3.5-0.3-4.5,1.4c-0.9,1.6-0.5,3.7,1,4.6C30.9,30.8,32.9,30.2,33.8,28.5z"/>
  </g>
</svg>