<svg viewBox="0 0 128 128" xmlns="http://www.w3.org/2000/svg">
  <g>
    <ellipse cx="33.8" cy="58.9" rx="4.9" ry="5"/>
    <ellipse cx="66.3" cy="58.9" rx="4.9" ry="5"/>
    <path d="M41,51.4c0.3-0.4,0.4-1,0-1.5c-0.9-1.2-3.1-3-7.2-3c-4.2,0-6.3,1.8-7.2,3c-0.4,0.5-0.3,1.2,0,1.5c0.3,0.3,1,0.7,1.9,0.4 c0.9-0.3,2.5-1.2,5.4-1.2c2.8,0,4.5,0.9,5.3,1.2C40,52,40.8,51.7,41,51.4z"/>
    <path d="M60.9,51.8c0.9-0.3,2.5-1.2,5.4-1.2c2.8,0,4.5,0.9,5.3,1.2c0.9,0.3,1.6,0,1.9-0.4c0.3-0.4,0.4-1,0-1.5 c-0.9-1.2-3.1-3-7.2-3c-4.2,0-6.3,1.8-7.2,3c-0.4,0.5-0.3,1.2,0,1.5C59.3,51.7,60,52,60.9,51.8z"/>
    <path d="M58.9,80.5c1.6-0.7,2.2-2.6-1.1-2.6H42.2c-3.3,0-2.7,1.9-1.1,2.6c2.5,1.1,6.1,1.4,8.9,1.4c0,0,0,0,0,0s0,0,0,0 C52.8,81.9,56.4,81.6,58.9,80.5z"/>
    <path d="M50,72.3c2.8,0,4.2-2,4.5-2.7c0.3-0.7,0-1.4-0.7-1.6c-0.1,0-0.2-0.1-0.3-0.1h-7c-0.1,0-0.2,0-0.3,0.1 c-0.6,0.3-1,0.9-0.7,1.6S47.2,72.3,50,72.3z"/>
    <path d="M120.7,62.1c-1.1-0.1-1.8,0.4-2.2,1.6l-2.4-0.2c-0.3-0.9-1.1-1.5-2.1-1.6l-9.6-1c-1-0.1-1.9,0.4-2.4,1.2l-2.4-0.2 c-0.2-1.3-0.8-1.9-1.9-2c-2.2-0.2-4.4,3.1-4.9,7.5s1,8.1,3.2,8.3c1.1,0.1,1.7-0.3,2.2-1.5l2.5,0.3c0.3,0.8,1.1,1.5,2,1.5l2.1,0.2 c-1,0.4-1.8,1.4-2,2.6l-0.1,0.6c-0.1,1.5,0.8,2.8,2.1,3.3c-1.2,0.2-2,0.8-1.9,2.4l0.7,8.9c0,0.3,0,0.6,0,0.9l-0.7,3.7 c0.6,0,1.1,0,1.7,0.1c-0.7,0-1.4-0.1-2.1-0.1c-1.3,0-2.5,0.1-3.8,0.3c-4.5,0.6-6.8,3.1-8,6.1c-1.9-1.1-4.1-2.1-6.4-3.1 c4.6-16.7,5.7-40.6,5.7-58.9c0-0.4,0.6-16.9-10.5-28.1c-3.6-3.7-8.5-6.8-15.1-8.6c-0.6-0.2-1.2-0.3-1.9-0.5 c-3.5-0.8-7.5-1.3-12-1.3C9.6,4.1,9.9,42,9.9,42.7c0,18.2,1,42,5.6,58.6C10.9,103,7,105.2,4,108v15.9h4.8c0.3-2,1.5-8.1,5.6-12.6 c-3.8-2.3-6.2-4.4-7.4-5.6l1.9-1.3c1.6,1.5,4.5,4.1,7,5.4c6.6,3.5,18.2,8.4,34.1,8.8c8.8,0.2,18.7-1.7,22-2.9 c6.8-2.5,11.7-5.4,12.1-5.6c3.4-2.2,5.6-4.2,6.8-5.5l0,0c0,0,0,0,0,0c-0.5,1.2-0.8,2.4-1,3.6c0,0,0,0.1,0,0.1c0,0,0,0,0,0 c-1.2,1-2.6,2.1-4.3,3.3c3.9,4.5,5,10.3,5.3,12.2h-2c-0.3-2-1.5-7.3-5-11.2c-2.6,1.5-5.7,3.1-9.5,4.4c1.8,3,2,5.9,2.1,6.8h-2 c0-0.8-0.3-3.5-2-6.2c-5.5,1.7-12.3,2.9-20.3,2.9c-0.7,0-1.3,0-2,0c-8.9-0.2-16.3-1.6-22.3-3.5c-2,2.9-2.4,5.9-2.4,6.8h74.6 c0,0-0.1,0-0.1,0c1.3,0.1,2.6,0.2,3.7,0.2c1.2,0,2.2,0,2.8-0.1c0.3,0,0.6,0,0.9,0.1c0,0,0,0,0,0c0.5,0,1,0,1.4,0c0,0,0,0,0,0 c0.5,0,0.9-0.1,1.1-0.2c0,0,0,0,0,0c0.6-0.2,1-0.7,1-1.3l0-0.5c0.1-0.6-0.2-1.2-0.7-1.5c0,0,0,0,0,0l0,0c0.1,0,0.1,0,0.2,0 c1.2,0,2.3-0.9,2.3-2.2l0-0.7c0-0.9-0.5-1.6-1.2-2c1.4-0.1,2.5-1.2,2.5-2.5l0-0.8c0-1.2-0.9-2.1-2-2.4c1.1-0.3,2-1.3,1.9-2.5l0-0.7 c-0.1-1.3-1.2-2.2-2.5-2.2c-0.1,0-0.3,0-0.4,0l-0.1,0c0,0,0,0,0,0c1.3-0.2,3.3-0.9,4-2.4c0.7-2.9-1.7-3.3-6.9-3.6c0,0,0,0,0,0 l0.1-3.5c0-0.3,0.1-0.6,0.1-0.8l2.5-8.5c0.5-1.6-0.3-2.4-1.6-2.8c1.3-0.2,2.4-1.3,2.6-2.8l0.1-0.6c0.1-1.2-0.5-2.3-1.4-2.9l2.3,0.2 c0.9,0.1,1.8-0.4,2.3-1.1l2.5,0.3c0.2,1.2,0.8,1.8,1.8,1.9c2.2,0.2,4.4-3.1,4.9-7.5C124.4,66,122.9,62.3,120.7,62.1z M56.8,109.7 l-3.7-3.6c4-3.3,6.1-6,7.1-7.7c0.6,0.1,1.3,0.1,2,0.2C61.3,102.6,59.5,106.3,56.8,109.7z M39.8,98.3c1,1.7,3.1,4.5,7.1,7.8 l-3.8,3.7c-2.9-3.4-4.7-7.2-5.4-11.3C38.4,98.4,39.1,98.4,39.8,98.3z M42.8,92.9C31.9,89.1,19.3,77.4,18.9,57 c1.2-5.3,3.3-10.7,6.5-11.4c22.4-5,35-16.9,35-16.9c3.3,7.2,13.6,14.2,17.3,16.9c1.7,1.3,2.8,7.2,3.3,12.7 c-0.9,19.6-13.3,30.9-23.9,34.6c-2.5,0.9-5,1.4-7.2,1.4C47.8,94.3,45.3,93.8,42.8,92.9z M56.9,112.6L56.9,112.6 c-3.5,3.8-6.9,5.6-6.9,5.6s-3.4-1.8-7-5.5l0,0l7-6.7c-4.2-3.1-7.3-7-7.1-6.6V95c2.5,0.8,4.9,1.2,7.1,1.2c2.2,0,4.6-0.4,7.1-1.2v4.2 c0.3-0.3-2.9,3.6-7.1,6.6L56.9,112.6c0,0,0.1-0.1,0.1-0.1C57,112.5,57,112.5,56.9,112.6C57,112.5,56.9,112.6,56.9,112.6z M101.8,121.6c0.2-1.4,1.4-1,2.3-0.9c1,0.1,2.8,0.1,3.9,0c0,0.5,0.3,1,0.7,1.3l0,0c-0.1,0-0.4,0-0.7,0c-0.4,0-1,0-1.7-0.1 c0,0-0.1,0-0.1,0c0,0,0,0-0.1,0l-0.5,0c-0.6,0-1.3,0-2.2,0c-0.5,0-1.1,0-1.6,0C101.8,121.9,101.8,121.7,101.8,121.6z M110.6,118.3 c0,0.1-0.1,0.2-0.3,0.2l-0.1,0c-0.1,0-0.1,0-0.2,0c-0.6,0-1.1,0.2-1.5,0.7c-0.3,0.3-0.4,0.6-0.5,1c-0.7,0-1.4,0-1.6-0.1 c-1.3,0-4,0.2-4.7-1.4c-0.2-0.6-0.1-1.3,0.2-1.8c0.6-0.8,4.9-0.9,7.4-1c0.1,0.6,0.5,1.2,1,1.5c0.1,0,0.1,0.1,0.1,0.2L110.6,118.3z M111.9,113.2c0,0.3-0.3,0.5-0.6,0.5c-0.9,0.1-1.6,0.7-1.8,1.5c-2.4-0.1-6.5,0.2-7.2-0.3c-1.1-1-1-2.8,0.4-3.4 c1.1-0.5,4.9-0.8,7.3-1c0.2,0.7,0.7,1.3,1.5,1.5c0.2,0.1,0.4,0.2,0.5,0.5L111.9,113.2z M111,106.6l0.2,0c0,0,0.1,0,0.1,0 c0.2,0,0.5,0.1,0.5,0.4l0.1,0.7c0,0.2-0.2,0.4-0.4,0.4c-0.8,0.2-1.4,1-1.5,1.8c-2.9,0.2-8.1,0.7-8.1-1.9c0-2.2,2.3-2.2,3.9-2.5 c0.5-0.1,1.9-0.2,3.1-0.4c0.1,0.4,0.4,0.8,0.7,1.1c0.1,0.1,0.2,0.1,0.2,0.2c0.3,0.2,0.6,0.2,1,0.2 C110.8,106.6,110.9,106.6,111,106.6z M112.8,101.5c-0.3,0.5-1.2,0.9-2.4,1.1c-0.8,0.1-1.4,0.7-1.6,1.5c0,0.1,0,0.2,0,0.4 c-1.7,0.1-4.9,0.4-6,0.6c-2.2,0.5-2.7,1.7-2.7,2.6c-0.1,1.1-0.3,2.5-0.7,3.6c-0.8,2.2-3.4,4.2-3.5,4.5c-0.1,0.3,1.7-0.6,2.8-1.8 c0.7-0.7,1.6-0.4,1.8,0.6c0.1,0.6,0.2,1.1,0.2,1.3c0,0.5,0,3.5-0.2,4.5c-0.1,0.4-0.1,0.7,0,1.1c0,0.1,0.1,0.2,0.1,0.3 c-4.2-0.3-6.9-1.5-8-3.4c-0.3-0.6-0.9-2-1-5.4c-0.1-0.8-0.1-1.7,0-2.5c0-0.4,0-0.8,0-1.1l0,0c0-0.3,0.1-0.6,0.1-0.9 c0-0.1,0-0.1,0-0.2c0.7-4.8,3.1-7.4,7.3-8c1.1-0.2,2.3-0.2,3.5-0.2c0.6,0,1.3,0,2,0.1l1.4,0.1c2.8,0.2,5.9,0.3,6.7,0.8 C112.8,101.3,112.8,101.4,112.8,101.5z"/>
    <path d="M16.2,112.3c-3.8,3.9-5,9.5-5.3,11.6h12.4c0-0.9,0.3-4.1,2.4-7.4C22,115.2,18.8,113.8,16.2,112.3z"/>
  </g>
</svg>