<svg viewBox="0 0 128 128" xmlns="http://www.w3.org/2000/svg">
  <g>
    <path d="M44.7,117.2c-1.3,0-2.3,1-2.3,2.3c0,1.3,1,2.3,2.3,2.3c1.3,0,2.3-1,2.3-2.3C46.9,118.2,45.9,117.2,44.7,117.2z"/>
    <path d="M71.1,117.2c-1.3,0-2.3,1-2.3,2.3c0,1.3,1,2.3,2.3,2.3c1.3,0,2.3-1,2.3-2.3C73.4,118.2,72.4,117.2,71.1,117.2z"/>
    <path d="M62.5,76.2c-3.2,1.9-13.6,1.9-16.8,0c-1.8-1.1-3.7,0.6-2.9,2.2c0.8,1.6,6.4,5.4,11.4,5.4s10.5-3.8,11.3-5.4 C66.2,76.8,64.3,75.1,62.5,76.2z"/>
    <path d="M43.7,51.8c0.9,0.3,1.6,0,1.9-0.4c0.3-0.4,0.4-1,0-1.5c-0.9-1.2-3.1-3-7.2-3c-4.2,0-6.3,1.8-7.2,3c-0.4,0.5-0.3,1.2,0,1.5 c0.3,0.4,1,0.7,1.9,0.4c0.9-0.3,2.5-1.2,5.3-1.2C41.2,50.6,42.9,51.5,43.7,51.8z"/>
    <path d="M64.2,51.8c0.9-0.3,2.5-1.2,5.4-1.2c2.8,0,4.5,0.9,5.3,1.2s1.6,0,1.9-0.4c0.3-0.4,0.4-1,0-1.5c-0.9-1.2-3.1-3-7.2-3 c-4.2,0-6.3,1.8-7.2,3c-0.4,0.5-0.3,1.2,0,1.5C62.5,51.7,63.3,52,64.2,51.8z"/>
    <ellipse cx="38.4" cy="58.9" rx="4.9" ry="5.1"/>
    <ellipse cx="69.5" cy="58.9" rx="4.9" ry="5.1"/>
    <path d="M53.9,72.4c2.8,0,4.2-2,4.5-2.7c0.3-0.7,0-1.4-0.7-1.6c-0.1,0-0.2-0.1-0.3-0.1h-7.1c-0.1,0-0.2,0-0.3,0.1 c-0.6,0.3-1,0.9-0.7,1.6C49.7,70.4,51.1,72.4,53.9,72.4z"/>
    <path d="M40.4,29.3c-6.2-9.1-8.7-18.8-8.7-18.8C26.8,16.8,29,29,40.4,29.3z"/>
    <path d="M26.5,32.5c-9.3-6.4-8.9-11.8-9.4-16.9C8.6,24.4,13.9,36.3,26.5,32.5z"/>
    <path d="M76.6,10.5c0,0-2.5,9.7-8.7,18.8C79.2,29,81.5,16.8,76.6,10.5z"/>
    <path d="M91.2,15.6c-0.5,5.2-0.1,10.5-9.4,16.9C94.4,36.3,99.7,24.4,91.2,15.6z"/>
    <path d="M54.2,28.2c1.5-1.7,2.2-3.5,2.8-5.2c0.5-1.7,0.8-3.5,0.8-5.2c0-1.7-0.2-3.5-0.8-5.2c-0.5-1.7-1.3-3.5-2.7-5.2 c-1.5,1.7-2.2,3.5-2.7,5.2c-0.5,1.7-0.8,3.5-0.8,5.2c0,1.7,0.2,3.5,0.8,5.2C51.9,24.7,52.7,26.5,54.2,28.2z"/>
    <ellipse cx="105.2" cy="71.8" rx="5.2" ry="5.2" transform="matrix(0.9732 -0.2298 0.2298 0.9732 -13.6852 26.0842)"/>
    <path d="M106.7,53.6c-6.1-0.5-11.7,2-15.4,6.3c0.2-4.3,0.3-8.6,0.3-12.7l1.1-7.6c0,0,0,0,0,0c2.3-1.7,8.5-6.7,9.4-9.9 c1.5-5.4-1.1-11.1-7.2-15.2C85.2,8.1,66.4,4,54,4h-0.2C41.4,4,22.6,8.1,13,14.5c-6.1,4-8.7,9.8-7.2,15.2c0.9,3.3,7.3,8.3,9.5,10 l1,7.7c0,0.7,0,1.3,0,2c0,0.5,0,1,0,1.5c0,0.6,0,1.2,0,1.8c0,0.6,0,1.1,0,1.7c0,0.5,0,1,0,1.5c0,1.2,0.1,2.4,0.1,3.6 c0,0.5,0,0.9,0.1,1.4c0,0.7,0.1,1.3,0.1,2c0,0.5,0.1,1,0.1,1.6c0,0.6,0.1,1.2,0.1,1.9c0,0.1,0,0.3,0,0.4h0 c0.8,12.8,2.5,25.7,5.7,35.3c0,0,0,0,0,0c-10.1,3.8-17,9.9-17,18.5v3.4h97.5v-0.2c1.2,0.1,2.5,0.1,3-0.2c0,0,0,0,0,0 c0.6-0.2,1-0.7,1.1-1.4l0.1-0.5c0.1-0.6-0.3-1.2-0.8-1.6c0,0,0,0,0,0c0.1,0,0.1,0,0.2,0c1.3,0,2.4-1,2.4-2.2l0-0.7 c0-0.9-0.5-1.7-1.3-2c1.4-0.1,2.6-1.2,2.6-2.6l0-0.8c0-1.2-0.9-2.2-2-2.5c1.2-0.3,2-1.3,1.9-2.6l0-0.7c-0.1-1.3-1.2-2.3-2.6-2.3 c-0.1,0-0.3,0-0.5,0l-0.1,0c0,0,0,0,0,0c1.3-0.2,3.4-0.9,4.1-2.5c0.6-2.4-0.8-3.1-4.2-3.5l0.4-6.2l0.1-1c8.5-1.1,15.4-8,16.1-17 C124.6,63.4,116.9,54.4,106.7,53.6z M100.9,90.3c0,0-0.6,3.9-1,7.1c0.4,0,0.9,0,1.3,0.1c0.6,0,1.2,0.1,1.7,0.1 c-0.6,0-1.1-0.1-1.7-0.1c-0.7,0-1.5-0.1-2.2-0.1c-1.3,0-2.6,0.1-3.9,0.3c-3.9,0.5-6.2,2.5-7.6,4.8c-0.8-0.4-1.7-0.7-2.5-1 c0.1,0,0.2,0.1,0.4,0.1c1.8-5.6,3.2-12.3,4.1-19.5C91.9,86.1,96,89.1,100.9,90.3z M57.1,98.5c-1.2,1.4-2,3.4-2.3,5.8 c0,0.4-0.2,2-0.2,2.5l0,0c0,0.1,0,0.3,0,0.4h-1.4c0-10.2-8-11.1-8-11.1v-2.7c0.4,0.2,0.8,0.3,1.2,0.5c2.7,0.9,5.3,1.4,7.6,1.4 c2.3,0,4.9-0.5,7.5-1.4c0.6-0.2,1.3-0.5,1.9-0.7v2.2l-1.9,0.5C59.8,96.1,58.3,97,57.1,98.5z M27.6,45.7c9.3-1.5,18.6-2.2,28-2.2 c7.9,0,15.8,0.5,23.6,1.6c0.3,0.2,0.5,0.4,0.7,0.6c1.7,1.2,3.2,7.2,4,12.6c-0.9,19-12.9,30-23.2,33.6c-2.4,0.9-4.8,1.3-6.8,1.3 c-2.1,0-4.4-0.5-6.9-1.3c-10.3-3.7-22.4-14.7-23.2-33.9C24.6,53.7,25.9,48.8,27.6,45.7z M7.7,29.2c-1.3-4.7,1.1-9.5,6.4-13 C23.4,9.9,42,6,53.8,6H54c11.8,0,30.4,3.9,39.7,10.2c5.3,3.5,7.6,8.3,6.4,13c-0.5,1.8-3.9,5.2-8.7,8.8L90.1,39l0.5,0.9l-0.7,5 c-11.1-2.3-22.6-3.5-34.2-3.5c-12.5,0-25.2,1.3-37.7,3.9l-0.8-6.1l-0.1-0.8l-0.7-0.5C11.7,34.5,8.2,30.9,7.7,29.2z M7.6,122v-1.4 c0-5.1,2.8-9.5,8.5-13.1c5.2-3.3,12.8-5.8,21.8-7.2l1.7-0.3l0-1.7l0-1.3l3.6,0.7l0,0.2l1.7,0.2c0,0,1.6,0.2,3.2,1.5 c2,1.6,3.1,4.2,3.1,7.7v1.5l-12.5,3.6c-1.6,0.6-2.7,2.2-2.7,3.9v5.8H7.6z M37.3,122c0.4-2.2,0.9-5.6,1-6.2c0.2-1,1-1.1,1.4-1.3 l17.5-5.2c0-4,0.4-6.9,1-8.9c0.9-1.4,2.1-2.3,3.7-2.7l0,0l0,0l8.3-2.1L70,97.8l-0.2,1.9l1.9,0.3c5.1,0.9,10.4,2.3,15,4.2 c-0.4,1.1-0.7,2.2-0.8,3.3c-0.1,0.4-0.2,0.8-0.2,1.3c0,0.3,0,0.7,0,1.2c0,1.2,0,2.3,0.1,3.2l0,0c0.1,2.1,0.5,4.4,1.3,5.9 c0.7,1.2,1.7,2.1,3,2.8c0,0,0,0,0,0H37.3z M98.1,121.3c0.2-1.4,1.5-1,2.4-0.9c1.1,0.1,3.1,0.1,4.2,0c0.1,0,0.2,0,0.3,0 c0.1,0.4,0.3,0.8,0.7,1.1c0,0,0.1,0.1,0.1,0.2l-0.1,0.5c0,0.1-0.1,0.2-0.3,0.2c0,0,0,0-0.1,0l-0.8-0.1c-0.1,0-0.1,0-0.2,0 c-0.2,0-0.4,0-0.6,0.1c-0.1,0-0.2,0-0.2,0c0,0-0.1,0-0.1,0c-0.1,0-0.3,0-0.5,0c-0.2,0-0.5,0-0.9,0c-0.6,0-1.3,0-2.2,0 c-0.4,0-0.9,0-1.3,0C98.2,122,98,121.7,98.1,121.3z M102.4,123.8c0,0-0.1,0-0.2,0C102.3,123.8,102.3,123.8,102.4,123.8z M92.8,123.1C92.8,123.1,92.8,123.1,92.8,123.1C92.8,123.1,92.8,123.1,92.8,123.1z M93.8,123.3c0,0,0.1,0,0.1,0 C93.9,123.3,93.9,123.3,93.8,123.3z M94.9,123.5c0,0,0.1,0,0.1,0C95,123.5,94.9,123.5,94.9,123.5z M95.9,123.6c0,0,0.1,0,0.1,0 C96,123.6,95.9,123.6,95.9,123.6z M97,123.7C97,123.7,97,123.7,97,123.7C97,123.7,97,123.7,97,123.7z M107.7,117.9 c0,0.4-0.4,0.8-0.9,0.8c0,0-0.1,0-0.1,0l-0.1,0c0,0-0.1,0-0.1,0c-0.6,0-1.2,0.4-1.4,1c0,0.1,0,0.1,0,0.2c-0.9-0.1-1.9-0.1-2.1-0.1 c-1.3,0-4.1,0.2-4.8-1.4c-0.2-0.6-0.1-1.3,0.2-1.8c0.7-0.9,5.7-0.9,8.1-1.1c0.1,0.4,0.4,0.8,0.8,1.1c0.3,0.1,0.4,0.4,0.4,0.7 L107.7,117.9z M109,111.8l0,0.8c0,0.6-0.5,1.1-1.2,1.1c-0.6,0-1.1,0.5-1.3,1.1c-2.4-0.2-7.2,0.3-8-0.4c-1.2-1-1-2.9,0.4-3.5 c1.2-0.5,5.8-0.8,8.1-1.1c0.1,0.5,0.5,1,1.1,1.1C108.6,110.9,109,111.3,109,111.8z M107.6,105.3c0.1,0,0.1,0,0.2,0 c0.6,0,1,0.4,1.1,0.9l0.1,0.7c0,0.5-0.4,0.9-0.8,1c-0.6,0.2-1,0.7-1.1,1.3c-2.8,0.1-8.9,0.9-8.9-1.9c0-2.2,2.3-2.3,3.9-2.6 c0.1,0.1,0.2,0.2,0.3,0.3c0.1,0.1,0.1,0.1,0.2,0.2c0.3,0.4,0.7,0.6,1.2,0.6c0.1,0,0.1,0,0.2,0L107.6,105.3z M109.9,100.8 c-0.5,1-2.5,1.5-3.6,1.6c-0.8,0.1-1.6,0.1-2.4,0.1l-0.6,0c-0.6,0-1.2,0.4-1.4,1c-0.1,0.2-0.1,0.4-0.1,0.5c-1.1,0.1-2.2,0.2-2.7,0.4 c-2.2,0.5-2.7,1.8-2.8,2.7c-0.1,1.1-0.3,2.6-0.7,3.7c-0.8,2.3-3.5,4.4-3.6,4.7c-0.1,0.3,1.8-0.6,2.9-1.8c0.7-0.7,1.6-0.4,1.8,0.6 c0.1,0.6,0.2,1.1,0.2,1.4c0,0.5,0,3.6-0.2,4.7c-0.1,0.4-0.1,0.7,0,1.2c0.1,0.3,0.2,0.6,0.4,0.9c-4.7-0.3-7.8-1.6-9-3.8 c-0.4-0.7-0.9-2.2-1.1-5.3c-0.1-1-0.1-2.1-0.1-3.1c0-0.4,0-0.8,0-1.1l0-0.1c0-0.3,0.1-0.7,0.2-1c0,0,0-0.1,0-0.1 c0.8-5.2,3.4-8.1,8-8.7c1.2-0.2,2.4-0.2,3.7-0.2c0.7,0,1.4,0,2.1,0.1l1.5,0.1c3.4,0.2,6.9,0.4,7.4,1.1 C109.9,100.2,110,100.4,109.9,100.8z M104.3,97.6c0.1,0,0.1,0,0.2,0C104.4,97.6,104.3,97.6,104.3,97.6z M115.5,81.1 c-0.8,1.4-2.1,2.6-3.8,3.1c-1.6,0.5-3.4,0.2-4.9-0.5c-1.5-0.8-2.6-1.6-4-2.3c-1.4-0.7-2.8-1.3-4.2-1.9c-1.4-0.6-2.9-1.2-4-2.5 c-0.5-0.7-0.7-1.5-0.6-2.3c0-0.4,0.1-0.8,0.2-1.2l0.4-1c0,0,0-0.1,0-0.1c2.3-6.7,4-12.6,9.3-11.4c5.2,1.2,10.2,3.5,12.3,11 C117.2,74.9,117.1,78.3,115.5,81.1z"/>
  </g>
</svg>