<svg viewBox="0 0 128 128" xmlns="http://www.w3.org/2000/svg">
  <path d="M102.9,38.4c10-6.9,17.4-15.8,20.6-24.3c0.1-1.5-1.3-2.9-2.8-2.4c-7.7,2.9-31.2,9.6-56.8,9.7c-25.5,0-49.1-6.7-56.8-9.7 c-1.4-0.5-2.9,0.8-2.8,2.4c3.2,8.6,10.6,17.4,20.6,24.3c0.5,0.7,1.3,1.4,2.3,2c0.1,0,0.1,0.1,0.2,0.1c-3.5,5.2-6.6,15.2-8.7,36.1 c-2,20,11.7,40.5,46,40.5h0.1l-0.1-2c-15.8,0-28.3-4.5-36-13.1c-6.1-6.7-8.9-15.7-7.9-25.2c3.1-30.3,8.3-36.8,12.4-39 c3.2-1.7,6.7-2.6,10.4-2.6c1.6,0,3.1,0.2,4.6,0.5c2.5,0.5,4.5,1,6.1,1.5c2.1,2,3.5,4.7,4.9,7.9c4.7,10.7,3.4,38,5.3,38.2 c1.9,0.2,3.6-14.7,4-32.6c0.1-6.1,1.9-10.1,4.4-12.8c2-0.6,4.5-1.4,8.4-2.2c1.5-0.3,3.1-0.5,4.6-0.5c3.7,0,7.2,0.9,10.4,2.6 c4.2,2.2,9.3,8.6,12.4,39c1,9.5-1.9,18.5-7.9,25.3c-7.7,8.6-20.2,13.1-36,13.1l0,2c34.2,0,48-20.5,46-40.5c-2.2-22-5.6-32-9.3-36.9 c0,0,0,0,0,0C102.1,39.3,102.6,38.9,102.9,38.4z"/>
</svg>