<svg viewBox="0 0 128 128" xmlns="http://www.w3.org/2000/svg">
  <path d="M114.25,72.66L72.16,24.24c-0.58-0.67-4.51,2.49-5.82,4.3c-0.36,0.46-0.58,0.84-0.44,0.99l0.06,0.07 c0.01,0.01,0,0.02,0.01,0.03l19.22,22.11l22.85,26.31c4.2,4.83,7.29,11.98,6.3,19.04c-0.03,0.17-0.06,0.35-0.09,0.52 c-0.04,0.25-0.1,0.49-0.15,0.74c-0.34,1.54-0.87,3.07-1.63,4.58c-0.22,0.44-0.45,0.87-0.72,1.3c0.02-0.02,0.03-0.05,0.05-0.07 c-1.24,2.11-2.94,4.16-5.16,6.09c-7.72,6.71-20,9.25-31.31-3.76L21.17,44.18c-6.39-7.35-11.73-20.28-2.25-28.53 c0.93-0.81,1.87-1.45,2.8-1.95c0.14-0.07,0.28-0.14,0.42-0.21c0.11-0.05,0.22-0.11,0.33-0.16c1.59-0.71,3.17-1.05,4.71-1.1 c0.03,0,0.06,0,0.1,0c0.22-0.01,0.44,0,0.65,0c0.19,0.01,0.39,0.01,0.58,0.03c0.05,0,0.1,0.01,0.15,0.01 c6.93,0.63,13.16,6.74,16.15,10.18L77.3,59.84c5.2,6.57,6.99,13.68,5.32,17.75c-0.16,0.26-0.34,0.5-0.55,0.71 c-3.47,3.47-10.56,6.59-21.16-4L41.02,51.69c-0.4-0.46-2.89,1.3-4.6,2.96l-0.01-0.01c0,0-1.61,1.43-1.62,2.22c0,0.01,0,0.03,0,0.04 c0,0.07,0.03,0.14,0.07,0.2c0,0,0,0.01,0,0.01l0.01,0.01c0.01,0.02,0.02,0.04,0.04,0.06l1.49,1.68l18.35,20.86 c0.72,0.82,1.52,1.68,2.4,2.54l0.04,0.05c3.31,3.31,7.68,6.7,12.6,8.03c4.83,1.35,10.14,0.73,15.43-3.87 c1.83-1.59,3.26-3.36,4.31-5.25c0.01-0.01,0.01-0.02,0.02-0.03c0,0-0.01,0.01-0.01,0.01c4.19-7.6,2.14-17.33-6.04-26.74L51.01,17.07 C38.73,2.96,24.37,0.04,13.53,9.46c-7.38,6.42-9.87,15.51-7.47,24.69c0.02,0.09,0.05,0.18,0.08,0.27c0.15,0.55,0.32,1.1,0.5,1.64 c0.13,0.41,0.28,0.81,0.44,1.22c0.11,0.29,0.23,0.59,0.35,0.88c0.87,2.1,2,4.18,3.39,6.2c0.03,0.04,0.06,0.09,0.09,0.13 c0.42,0.61,0.87,1.22,1.34,1.82c0.35,0.45,0.71,0.9,1.08,1.34c0.06,0.07,0.11,0.14,0.16,0.2l0.15,0.17 c0.03,0.04,0.06,0.07,0.09,0.11l55.41,63.74c3.66,4.22,7.75,7.34,12.04,9.36c0.05,0.02,0.09,0.04,0.14,0.06 c0.3,0.14,0.59,0.27,0.89,0.4c4.06,1.77,8.19,2.5,12.27,2.24c0.01,0,0.03,0,0.04,0c0.33-0.02,0.66-0.05,1-0.08 c5.76-0.54,11.43-2.99,16.52-7.42c0.49-0.42,0.96-0.86,1.41-1.3c0.23-0.21,0.29-0.26,0.22-0.22 C125.58,103.19,125.94,86.1,114.25,72.66z"/>
</svg>