<svg viewBox="0 0 128 128" xmlns="http://www.w3.org/2000/svg">
  <g>
    <g>
      <path d="M57.42,22.26c-0.62-0.16-1.29-0.3-2.01-0.41C56.14,21.95,56.81,22.09,57.42,22.26z" fill="#F5F5F5"/>
      <path d="M65.34,25.24c-0.22,0.24-0.41,0.48-0.57,0.7C64.92,25.72,65.11,25.48,65.34,25.24z" fill="#F5F5F5"/>
      <path d="M114.78,89.26c-0.14-0.03-0.29-0.06-0.44-0.09c-7.44-1.5-27.05-5.29-35.11-5.29c-0.16,0-0.32,0-0.47,0.01 c-0.53,0.01-0.99,0.03-1.4,0.08c-4.38,0.49-8.2,2.46-10.86,4.23c-1.01,0.68-1.86,1.33-2.5,1.85c-0.01-0.01-0.01-0.01-0.02-0.01 c-0.64-0.53-1.47-1.17-2.48-1.84c-2.65-1.77-6.47-3.74-10.85-4.23c-0.41-0.05-0.87-0.07-1.39-0.08c-0.15-0.01-0.31-0.01-0.48-0.01 c-8.06,0-27.68,3.8-35.12,5.29c-0.15,0.03-0.29,0.06-0.43,0.09l0.23-12.39l-0.01-0.38h0.01l0.81-43.96l0.05-2.97l0.01-0.57 c1.05-0.19,2.58-0.47,4.43-0.79c8.51-1.51,23.89-4.08,31.9-4.52c0.51-0.03,1.01-0.05,1.5-0.05c8.35,0.01,9.88,4.16,9.94,4.34 c0.28,0.81,1.08,1.35,1.93,1.35c0.86,0,1.63-0.56,1.9-1.38c0.06-0.17,1.53-4.31,9.9-4.31c0.49,0,1,0.02,1.52,0.05 c7.97,0.44,23.24,2.99,31.77,4.49c1.91,0.34,3.48,0.62,4.56,0.82l0.01,0.56l0.05,2.97l0.81,43.97v0.09L114.78,89.26z" fill="#F5F5F5"/>
      <path d="M13.45,76.49l0.01,0.38v-0.38H13.45z"/>
      <path d="M124.5,99.65c0-0.01,0-0.01,0-0.02v-0.01c0.02-0.13,0.03-0.27,0.03-0.4l-2.17-66.26c0-2.16-1.78-3.91-3.97-3.91 l-1.59-0.15l-1.15-1.58c0,0-26.54-4.99-38.19-5.64c-0.57-0.03-1.11-0.05-1.63-0.05c-4.3,0-7.07,1.02-8.85,2.21 c-0.2,0.13-0.39,0.26-0.56,0.4c-0.43,0.34-0.79,0.68-1.08,1c-0.22,0.24-0.41,0.48-0.57,0.7c-0.16,0.22-0.29,0.43-0.39,0.62 c-0.07,0.12-0.12,0.23-0.17,0.33c-0.1,0.2-0.15,0.35-0.18,0.43h-0.04c-0.04-0.12-0.15-0.39-0.35-0.76 c-0.09-0.16-0.2-0.34-0.33-0.53c-0.13-0.17-0.26-0.36-0.42-0.55c-0.14-0.16-0.29-0.32-0.45-0.49c-0.25-0.24-0.53-0.5-0.86-0.75 c-0.22-0.17-0.45-0.33-0.71-0.5c-0.12-0.08-0.25-0.16-0.39-0.24c-0.28-0.16-0.57-0.31-0.89-0.46c-0.31-0.14-0.65-0.28-1.01-0.42 c-0.36-0.13-0.75-0.25-1.16-0.36c-0.62-0.16-1.29-0.3-2.01-0.41c-0.49-0.07-1-0.12-1.54-0.16s-1.11-0.06-1.71-0.06 c-0.52,0-1.05,0.02-1.61,0.05c-11.65,0.65-38.19,5.64-38.19,5.64v0.01l-0.01-0.01l-1.16,1.59l-1.58,0.15 c-2.19,0-3.97,1.75-3.97,3.91L3.47,99.23c0,0.15,0.01,0.3,0.03,0.45l-0.03,1.46c0,2.16,1.17,4.71,5.74,4.27l47.53-4.52 c0.89,3.16,3.8,5.47,7.25,5.47s6.36-2.31,7.26-5.47l47.54,4.52c4.57,0.44,5.74-2.11,5.74-4.27l-0.03-1.47 C124.5,99.66,124.5,99.66,124.5,99.65z M114.34,89.17c-7.44-1.5-27.05-5.29-35.11-5.29c-0.16,0-0.32,0-0.47,0.01 c-0.53,0.01-0.99,0.03-1.4,0.08c-4.38,0.49-8.2,2.46-10.86,4.23c-1.01,0.68-1.86,1.33-2.5,1.85c-0.01-0.01-0.01-0.01-0.02-0.01 c-0.64-0.53-1.47-1.17-2.48-1.84c-2.65-1.77-6.47-3.74-10.85-4.23c-0.41-0.05-0.87-0.07-1.39-0.08c-0.15-0.01-0.31-0.01-0.48-0.01 c-8.06,0-27.68,3.8-35.12,5.29c-0.15,0.03-0.29,0.06-0.43,0.09l0.23-12.39l-0.01-0.38h0.01l0.81-43.96l0.05-2.97l0.01-0.57 c1.05-0.19,2.58-0.47,4.43-0.79c8.51-1.51,23.89-4.08,31.9-4.52c0.51-0.03,1.01-0.05,1.5-0.05c8.35,0.01,9.88,4.16,9.94,4.34 c0.28,0.81,1.08,1.35,1.93,1.35c0.86,0,1.63-0.56,1.9-1.38c0.06-0.17,1.53-4.31,9.9-4.31c0.49,0,1,0.02,1.52,0.05 c7.97,0.44,23.24,2.99,31.77,4.49c1.91,0.34,3.48,0.62,4.56,0.82l0.01,0.56l0.05,2.97l0.81,43.97v0.09l0.23,12.68 C114.64,89.23,114.49,89.2,114.34,89.17z"/>
    </g>
    <g>
      <path d="M25.31,30.18c-2.7,0.47-4.91,0.87-6.17,1.09c0,0.62,0,1.3-0.01,2.03c1.11-0.2,3.37-0.61,6.18-1.1V30.18z"/>
      <g>
        <path d="M49.65,26.96v1.99c5.33-0.01,8.28,1.33,9.25,1.87c0-0.83,0.01-1.57,0.01-2.22C57.26,27.86,54.24,26.95,49.65,26.96z"/>
        <path d="M45.31,27.21c-4.33,0.44-10.36,1.36-15.66,2.24v2.03c5.26-0.87,11.3-1.8,15.66-2.26V27.21z"/>
      </g>
      <g>
        <path d="M34.66,35.84c-6.46,1-12.94,2.16-15.54,2.63c0,0.66,0,1.34,0,2.03c2.26-0.41,8.89-1.61,15.54-2.64V35.84z"/>
        <path d="M46.69,34.28c-2.11,0.17-4.8,0.51-7.69,0.91v2.02c2.95-0.42,5.71-0.76,7.85-0.94c7.18-0.59,10.97,1.17,12.03,1.77 c0-0.77,0-1.51,0-2.23C56.92,34.94,52.99,33.76,46.69,34.28z"/>
      </g>
      <g>
        <path d="M26.38,44.39c-3.16,0.54-5.8,1.01-7.26,1.28c0,0.67,0,1.35,0,2.03c1.31-0.24,3.99-0.72,7.26-1.28V44.39z"/>
        <path d="M58.88,43.04c-1.95-0.88-5.89-2.08-12.25-1.55c-4.07,0.33-10.3,1.26-15.91,2.18v2.03c5.66-0.93,11.98-1.87,16.08-2.21 c7.3-0.6,11.1,1.23,12.08,1.8C58.88,44.52,58.88,43.78,58.88,43.04z"/>
      </g>
      <g>
        <path d="M58.89,50.27c-1.93-0.88-5.89-2.11-12.3-1.58c-0.65,0.05-1.35,0.12-2.09,0.2v2.01c0.81-0.09,1.56-0.16,2.26-0.22 c7.44-0.61,11.24,1.3,12.14,1.84C58.89,51.77,58.89,51.02,58.89,50.27z"/>
        <path d="M40.15,49.43c-7.82,1.07-17.56,2.8-21.02,3.43c0,0.68,0,1.35,0,2.03c3.05-0.56,13.02-2.35,21.02-3.45V49.43z"/>
      </g>
      <g>
        <path d="M28.25,58.47c-3.93,0.66-7.33,1.27-9.12,1.59c0,0.68,0,1.36,0,2.03c1.62-0.3,5.07-0.92,9.12-1.6V58.47z"/>
        <path d="M58.9,57.51c-1.91-0.88-5.89-2.14-12.36-1.61c-3.6,0.3-8.88,1.05-13.94,1.86v2.02c5.11-0.82,10.48-1.59,14.1-1.89 c7.63-0.63,11.44,1.41,12.2,1.87C58.9,59.01,58.9,58.26,58.9,57.51z"/>
      </g>
      <path d="M58.92,71.98c-1.82-0.87-5.76-2.18-12.26-1.69v2.01c8.29-0.67,12.05,1.81,12.26,1.96C58.92,73.52,58.92,72.76,58.92,71.98 z"/>
      <g>
        <path d="M26.38,73.18c-3.08,0.53-5.7,0.99-7.23,1.27c0,0.7,0,1.37,0,2.03c1.41-0.26,4.05-0.73,7.23-1.28V73.18z"/>
        <path d="M30.72,72.46v2.03c3.88-0.63,8.05-1.27,11.6-1.72v-2.02C38.79,71.19,34.62,71.82,30.72,72.46z"/>
      </g>
      <g>
        <path d="M37.67,78.58c-7.16,1.04-15.21,2.47-18.51,3.07c0,0.74,0,1.42,0,2.03c2.99-0.55,11.19-2.01,18.51-3.08V78.58z"/>
        <path d="M58.93,79.22c-1.81-0.88-5.84-2.25-12.56-1.7c-1.27,0.1-2.75,0.27-4.36,0.47V80c1.67-0.21,3.21-0.38,4.52-0.49 c8.56-0.71,12.32,1.95,12.36,1.97l0.05-0.06C58.94,80.73,58.94,80,58.93,79.22z"/>
      </g>
      <g>
        <path d="M36.18,64.4c-6.82,1.02-14.05,2.31-17.04,2.86c0,0.69,0,1.36,0,2.03c2.68-0.49,10.05-1.81,17.04-2.87V64.4z"/>
        <path d="M58.91,64.74c-1.88-0.88-5.87-2.18-12.43-1.64c-1.68,0.14-3.73,0.38-5.95,0.68v2.02c2.29-0.31,4.4-0.56,6.12-0.7 c7.88-0.65,11.69,1.54,12.27,1.91C58.91,66.27,58.91,65.51,58.91,64.74z"/>
      </g>
    </g>
    <g>
      <g>
        <path d="M88.41,29.71c8.28,1.1,19.1,3.06,22.04,3.59c0-0.74,0-1.41-0.01-2.03c-3.44-0.63-13.97-2.51-22.04-3.58v2.02H88.41z"/>
        <path d="M84.06,27.19c-0.43-0.04-0.84-0.08-1.23-0.11c-6.27-0.52-10.19,0.65-12.16,1.52c0,0.65,0.01,1.4,0.01,2.22 c1.12-0.62,4.91-2.33,11.99-1.75c0.44,0.04,0.91,0.08,1.39,0.13V27.19z"/>
      </g>
      <g>
        <path d="M102.36,39.08c3.67,0.63,6.71,1.17,8.1,1.43c0-0.7,0-1.37,0-2.03c-1.57-0.29-4.55-0.82-8.1-1.42V39.08z"/>
        <path d="M98.02,36.33c-5.41-0.87-11.25-1.73-15.13-2.05c-6.3-0.52-10.23,0.66-12.2,1.53c0,0.72,0,1.46,0,2.23 c1.06-0.6,4.85-2.36,12.03-1.77c3.91,0.32,9.84,1.2,15.29,2.08L98.02,36.33L98.02,36.33z"/>
      </g>
      <path d="M97.18,43.39v2.02c5.81,0.93,11.22,1.91,13.28,2.29c0-0.69,0-1.36,0-2.03C108.13,45.25,102.82,44.3,97.18,43.39z"/>
      <g>
        <path d="M88.4,49.3c-2.01-0.26-3.87-0.48-5.41-0.6c-6.41-0.53-10.37,0.7-12.3,1.58c0,0.75,0,1.5,0,2.25 c0.9-0.53,4.71-2.45,12.14-1.84c1.58,0.13,3.5,0.35,5.57,0.63V49.3z"/>
        <path d="M92.75,49.91v2.02c7.25,1.08,15.06,2.49,17.7,2.97c0-0.68,0-1.36,0-2.03C107.47,52.32,99.82,50.96,92.75,49.91z"/>
      </g>
      <g>
        <path d="M93.63,57.24c-3.95-0.6-7.78-1.11-10.58-1.34c-6.48-0.53-10.46,0.73-12.36,1.61c0,0.75,0,1.51,0,2.26 c0.76-0.47,4.57-2.5,12.2-1.87c2.83,0.23,6.74,0.76,10.75,1.37L93.63,57.24L93.63,57.24z"/>
        <path d="M97.97,57.92v2.03c5.44,0.88,10.42,1.78,12.47,2.15c0-0.67,0-1.35,0-2.03C108.16,59.65,103.26,58.77,97.97,57.92z"/>
      </g>
      <path d="M105.04,66.3v2.03c2.36,0.41,4.29,0.76,5.39,0.96c0-0.67,0-1.35,0-2.03C109.23,67.04,107.33,66.7,105.04,66.3z"/>
      <g>
        <path d="M89.29,71.01c-2.29-0.31-4.41-0.56-6.13-0.7c-6.64-0.55-10.65,0.79-12.49,1.67c0,0.78,0,1.54,0,2.28 c0.21-0.15,3.99-2.65,12.34-1.96c1.76,0.14,3.94,0.4,6.3,0.72v-2.01H89.29z"/>
        <path d="M93.63,71.63v2.02c6.88,1.04,14.1,2.34,16.8,2.83c0-0.66,0-1.34,0-2.03C107.43,73.91,100.35,72.65,93.63,71.63z"/>
      </g>
      <g>
        <path d="M97.18,79.38c-5.07-0.81-10.37-1.57-13.97-1.87c-6.73-0.55-10.75,0.83-12.56,1.7c0,0.78,0,1.51,0,2.2l0.05,0.06 c0.03-0.02,3.79-2.68,12.36-1.97c3.63,0.3,9.02,1.08,14.14,1.9v-2.02H97.18z"/>
        <path d="M101.53,80.1v2.03c3.89,0.65,7.21,1.25,8.89,1.56c0-0.61,0-1.29,0-2.03C108.59,81.32,105.31,80.73,101.53,80.1z"/>
      </g>
      <g>
        <path d="M82.93,63.09c-6.46-0.51-10.4,0.78-12.26,1.65c0,0.76,0,1.52,0,2.27c0.58-0.37,4.38-2.56,12.26-1.91V63.09z"/>
        <path d="M87.28,63.55v2.01c4.12,0.52,9.07,1.3,13.42,2.02v-2.03C96.32,64.83,91.37,64.06,87.28,63.55z"/>
      </g>
      <g>
        <path d="M79.72,41.37c-4.48,0.03-7.43,0.95-9.02,1.67c0,0.74,0,1.48,0,2.24c0.84-0.48,3.71-1.87,9.02-1.92V41.37z"/>
        <path d="M84.06,41.59v2.01c2.49,0.25,5.58,0.67,8.77,1.14v-2.02C89.63,42.24,86.55,41.83,84.06,41.59z"/>
      </g>
    </g>
  </g>
</svg>