<svg viewBox="0 0 128 128" xmlns="http://www.w3.org/2000/svg">
  <g>
    <path d="M124,43.3c-0.1-3.4-2.4-6-8.2-7c-5.8-1-17.6,2.3-21,11.8c-3.4,9.6,0.6,15.9,3.5,22.2c3,6.3,4.9,15.1,3.4,21.3 c-1.5,6.2-8.6,7.9-9.8,6.2c-1.3-1.7,1.3-3.9,0.7-15.1C92,71.6,83,60.2,75,56.1C67,52,62,54,59.8,53.3c-2.2-0.7-4.6-5.3-5.8-7.7 c-0.8-1.7-2-6.8-2.6-9.5c0.2-0.8,0.3-1.7,0.3-2.6c0.3-6-0.5-12.7-4.2-13.5c-2.6-0.5-6.7,2.8-8.7,6.3c-0.1,0.2-0.3,0.5-0.4,0.7 c-0.4-0.1-2.6-0.9-6.1-0.6c-0.2-2.8-2.2-7.5-4.1-7.8c-2.7-0.3-6.2,5-5.9,11c-1.1,0.6-2.2,1.3-3.4,2.1C7.4,39.9,8.2,51,8,54 c-0.3,3-0.4,4.7-1.5,5.6c-2,1.7-2.5,3.2-2.2,4.5c0,0,0,0,0,0c0.2-0.9,1.6-1.2,3-1.3c2.8-0.4,4.6-0.4,4.9,0.6l-0.4,0.3 c-1.4-0.1-3.4,3.9-3.4,3.9s-3.3-3.2-3.9-2.5c-1,1.1,2.3,3.5,3.2,4.2c0.9,0.7,2.9,3.3,5.8,4.1c0.3,0.1,0.5,0.1,0.8,0.2c0,0,0,0,0,0 c0.1,0,0.2,0.1,0.2,0.1c0.1,0,0.1,0.1,0.2,0.1c0.1,0,0.2,0.1,0.3,0.1c0.1,0,0.1,0.1,0.2,0.1c0.1,0,0.2,0.1,0.3,0.1 c0.1,0,0.2,0.1,0.2,0.1c0.1,0,0.2,0.1,0.3,0.1c0.1,0,0.2,0,0.2,0.1c0.1,0,0.3,0.1,0.4,0.1c0.1,0,0.1,0,0.2,0.1 c0.2,0,0.4,0.1,0.6,0.1c0,0,0,0,0.1,0c0.2,0,0.5,0.1,0.7,0.1c0.1,0,0.1,0,0.2,0c0.2,0,0.3,0,0.5,0c0,0,0,0,0,0c0.3,0,0.6,0,0.8,0 c0.2,0,0.5,0,0.7-0.1c0.1,0,0.2,0,0.3,0c0.2,0,0.3-0.1,0.5-0.1c0.1,0,0.2,0,0.3-0.1c0.2,0,0.3-0.1,0.5-0.1c0.1,0,0.2-0.1,0.4-0.1 c0.2,0,0.3-0.1,0.5-0.1c0.1,0,0.2-0.1,0.4-0.1c0.2,0,0.3-0.1,0.5-0.1c0.1,0,0.2-0.1,0.4-0.1c0.1,0,0.3-0.1,0.4-0.1 c0.1,0,0.2-0.1,0.4-0.1c0.1,0,0.3-0.1,0.4-0.1c0.1,0,0.3-0.1,0.4-0.1c0.1,0,0.3-0.1,0.4-0.1c0.1,0,0.3-0.1,0.4-0.1 c0.1,0,0.2-0.1,0.4-0.1c0.2-0.1,0.4-0.1,0.6-0.2c0.1,0,0.2-0.1,0.3-0.1c0.1,0,0.3-0.1,0.4-0.1c0.1,0,0.2-0.1,0.3-0.1 c0.1,0,0.2-0.1,0.3-0.1c0.1,0,0.2,0,0.2-0.1c0.1,0,0.2,0,0.3-0.1c0.1,0,0.1,0,0.2-0.1c0.1,0,0.1,0,0.2,0c0.1,0,0.1,0,0.2,0 c0.1,0,0.1,0,0.2,0c0,0,0.1,0,0.1,0c0.1,0,0.1,0,0.2,0c0.4,0.1,1.3,1.9,2.1,3.5c-0.7,1-1.9,2.3-3.5,3.2c-1.2,0.7-3.1,1.7-4.9,2.6 c-0.3-0.4-0.7-0.8-1.2-1.2c-2.4-2-4.3-2.3-5.6-2.3c-2.1,0-4.5,1-5.3,3.8c-0.1,0.2-0.1,0.5-0.2,0.7c-0.2,0.6-0.4,1.3-0.4,2.1 c-1,1.5-2.5,4.7-0.2,7.7c2,2.8,5.2,2.7,7.5,2.1c0.2,0.1,0.4,0.2,0.6,0.3c0,0,0,0,0.1,0c0.3,0.1,0.7,0.2,1.1,0.3c0.1,0,0.1,0,0.2,0 c0.3,0.1,0.7,0.1,1.1,0.1c0,0,0.1,0,0.1,0c0,0,0.1,0,0.1,0c0.3,0,0.6,0,0.9-0.1c2.5-0.3,3.8-1.4,4.5-2.9c0.5,0.1,0.9,0.2,1.5,0.2 c2.2,0.3,4.1,0.6,5.8,0.7c0,1.3,0.2,4.1,2,6.7c2.3,3.5,5.5,5.8,5.3,6.2s-4,0.8-9,1.2c-5,0.4-7,0.2-8.5,1.7 c-1.4,1.4-3.5,4.3-2.4,5.6c-0.1-0.5,0.3-1.3,0.7-2.1c0.7-1.3,1.7-2.8,2.2-2.6c1,0.4-0.3,2.1-0.7,2.9c-0.4,0.7-1.1,2-1.7,2.1 c0.4,0.2,1.1,0.4,1.8,0.5c-0.3-0.6,0.6-2.1,1.3-3.1c0.7-1,1.6-2.1,2.2-1.8c0.7,0.3-0.6,2-1.2,2.9c-0.4,0.7-1.1,1.7-1.7,2.1 c2.6,0.3,6.1,0,7.6-0.1c2.1-0.2,7.6-0.8,7.6-0.8s-2.9,3-1.3,4.3c0.2,0.2,0.5,0.3,0.9,0.5c-0.4-0.5-0.2-2.1,0.3-3.1 c0.5-1,1.8-2.4,2.7-2.2c1.2,0.4-0.5,1.8-1.1,2.6c-0.7,0.9-0.9,2.6-1.4,2.8c0.7,0.2,1.5,0.3,2.3,0.3c-0.4-0.5-0.2-1.8,0.2-3 c0.8-2.1,2.2-2.8,3-2.5c0.6,0.3-0.8,1.6-1.5,2.9c-0.5,1-0.6,2.2-1,2.6c1.4,0,2.8,0,4.1-0.1c2.9-0.1,15.7-0.8,20.9-1 s9.5,0.3,10.8-1.9c1.3-2.2-0.5-3.5-0.5-3.5s1.3-0.6,2.8-2.3c4.3,0.7,9.6,1.1,15,0.8c13.4-0.8,23.1-7.9,24.5-21.8 c1.3-13-7.2-22.7-7.3-32C113.1,48.8,124.1,51.8,124,43.3z M24.7,84.5c0,0.4-0.3,0.6-0.9,0.8c-0.6,0.2-1.3,0.4-2,0.5 c-0.3,0.1-0.6,0.1-0.9,0.2c-0.9,0.1-1.7,0.1-1.7-0.2c0-0.4,0.4-0.6,1-0.9c0.5-0.2,1-0.4,1.6-0.6c0.4-0.2,1-0.3,1.4-0.3 C24,84,24.6,84.1,24.7,84.5z M21,87c0.2,0,0.3-0.1,0.5-0.1c0.5-0.1,1-0.2,1.4-0.2c0.4,0,0.6,0.2,0.6,0.5c0,0.3-0.2,0.5-0.5,0.6 C22.8,88,22.5,88,22.3,88c-0.4,0-0.7,0.1-1.1,0.1c-0.8,0.2-2.4,0.6-2.4,0C18.8,87.5,20.1,87.2,21,87z M40.9,33.6 c0.9-3.5,4.1-6.5,4.7-6.3c1.4,0.2,2,5.7,1.5,8.3c-0.5,2.6-2.3,6.2-4.5,5.7C40.4,40.8,39.8,37.9,40.9,33.6z M30.8,70.3 c-0.2-0.1-0.5-0.1-0.7-0.1h0c-0.7,0-1.5,0.2-3.4,0.8c-2.1,0.6-5,1.5-7.1,1.7c-0.2,0-0.5,0-0.7,0c-0.1,0-0.1,0-0.2,0 c1.4-0.7,2.5-1.5,3-2c1.2-1.2,0.9-2.1,0.1-2.4c-0.8-0.3-1.8,0.6-2.5,1.1c-0.6,0.4-2.9,2.2-5,2.1c-0.1,0-0.2,0-0.2,0 c-0.1-0.1-0.2-0.1-0.2-0.2l-2.2-2.9l1.5-3.1l4.9-3.3l0.8-0.2c-0.5,0-0.9,0.1-1.3,0.2c-2.2,0.6-4.3,1.4-4.5,1.2c0,0,0-0.1,0.1-0.2 c0-0.1,0.1-0.1,0.1-0.2c0.5-0.6,1.9-2.1,3.4-4.5c1.1-1.8,0.2-5,3.9-9.4c2.4-2.9,7.3-3.9,10.8-4.1c2.5-0.1,4.4,0.2,4.5,0.5 c0.3,1.6,1.2,6.1-1.7,11.4c0,0,0,0,0,0c0,0,0,0,0,0c0,0,0,0.1-0.1,0.1c-0.4,0.6-0.7,1.2-1.2,1.6c1.5,0.4,3.7,1.1,5.9,2.4 c1.7,1,2.8,2.1,3.4,2.9c-0.5,0.8-1.2,2-2,3.2c-1.2,1.8-2.1,5.2-2.9,8.8c-0.1,0.4-0.2,0.8-0.3,1.2l-0.2,0.7 c-0.1,0.4-0.2,0.7-0.3,0.9c-0.1,0.2-0.2,0.4-0.2,0.6c-0.5-0.9-1.1-1.9-1.5-2.5c-0.3-0.5-0.6-1.2-1-2c-0.1-0.2-0.2-0.3-0.2-0.5 C32.5,71.7,31.9,70.6,30.8,70.3z M12.5,89.1c-0.1,0.7,0,1.8-0.7,1.6s-0.8-1-0.6-2.2c0.1-0.5,0.2-1.2,0.7-1.3c0.1,0,0.2,0,0.4,0 c0.4,0.1,0.4,0.7,0.3,1.2C12.5,88.7,12.5,88.9,12.5,89.1z M14.5,91.5c0,0.6,0.1,1.7-0.6,1.6s-0.6-0.8-0.5-1.9 c0-0.4,0.1-0.9,0.3-1.2c0,0,0.1,0.1,0.1,0.1c0,0-0.1-0.1-0.1-0.1c0.1-0.3,0.4-0.4,0.7-0.2c0.2,0.1,0.2,0.7,0.2,1.3 c-0.2-0.3-0.4-0.5-0.7-0.8c0.2,0.3,0.4,0.5,0.7,0.8C14.6,91.2,14.6,91.4,14.5,91.5z M22.5,93c-0.3,0-0.5,0.1-0.7,0.1 c-0.1,0-0.1,0-0.2,0c-2.3-0.1-4.4-1.7-7.2-5.4c-0.7-0.9-1-1.8-1.1-2.8c0-0.6,0.1-1.2,0.3-1.7l0.1-0.2l0-0.2c0-0.2,0.1-0.3,0.1-0.5 c0.6-2.1,2.6-2.3,3.4-2.3c1,0,2.4,0.2,4.3,1.8c0.2,0.2,0.4,0.4,0.6,0.6c0.2,0.2,0.4,0.4,0.5,0.7c-0.9,0.4-1.9,0.9-2.6,1.6 c-0.6,0.6-1.1,1.3-1.1,2.2c-0.1,1.5-0.1,2.2,0.3,2.6c-0.2,0-0.2,0,0,0.1c0.4,0.3,1.6,1.3,6,2.2C24.6,92.4,23.8,92.9,22.5,93z M56.7,110c-3.6-0.6-10.2-3.9-13.5-8.1c-2.1-2.6-3.6-4.6-4.5-8.8c3.1-0.1,5.5-0.8,8-2.2c6.5-3.7,9-11.9,9.1-12.1l4.6,3.6 c0,0-3.7,3.7-4.1,7.2c-0.6,4.6,0.6,9.4,2.7,12.3c2,2.9,5.4,7.7,5.4,7.7S60.7,110.6,56.7,110z M89.3,91.6c-1.9,1.5-1-11.3-11.5-22.2 c-5.7-6-18.5-10.1-18.5-13.5c0-0.5,14.7,1.2,22.4,10.3C92.2,78.4,89.7,91.3,89.3,91.6z"/>
    <path d="M21.8,114.4c0,0.1,0.1,0.3,0.2,0.3c0.1,0,0.1,0.1,0.2,0c0,0-0.1,0-0.1-0.1C22,114.7,21.9,114.6,21.8,114.4z"/>
    <path d="M24.2,115.5c0.2,0.1,0.3,0.1,0.5-0.1c-0.2,0-0.4,0-0.6-0.1C24.1,115.4,24.2,115.4,24.2,115.5z"/>
    <path d="M39.6,119.4c0.1,0.1,0.3,0.1,0.4,0c-0.2-0.1-0.3-0.1-0.5-0.2C39.5,119.3,39.6,119.4,39.6,119.4z"/>
    <path d="M42.6,120c0.2,0,0.3,0,0.4-0.1c-0.2,0-0.5,0-0.7,0C42.4,119.9,42.5,119.9,42.6,120z"/>
    <path d="M31.1,55.9C31.1,55.9,31.1,55.9,31.1,55.9C31.1,55.9,31.1,55.9,31.1,55.9C31.1,55.9,31.1,55.9,31.1,55.9z"/>
    <path d="M29.2,51.9c-1.2-1-3.3-1.6-5.5,0.3c-1.2,1.1-1.6,3-1.1,4.5c0.1,0.2,0.1,0.3,0.2,0.5c0.2,0.4,0.5,0.7,0.8,1 c0.8,0.7,1.9,1.2,3.4,1c1.9-0.3,3.1-1.5,3.4-3c0.3-1.2,0.1-2.5-0.6-3.6C29.7,52.3,29.5,52.1,29.2,51.9z"/>
  </g>
</svg>