<svg viewBox="0 0 128 128" xmlns="http://www.w3.org/2000/svg">
  <g>
    <ellipse cx="50.7" cy="27.2" rx="1.8" ry="1.2" transform="matrix(1.379547e-02 -0.9999 0.9999 1.379547e-02 22.8022 77.5983)"/>
    <path d="M51.4,23.2c-1.3-0.4-2-0.1-2.3,0.3c-0.4,0.5-0.2,1.3,0.9,1.1c1.4-0.3,2.9,1.1,3.2,1.1c0.3,0,0.4-0.4,0.1-0.9 C53,24.3,52.6,23.5,51.4,23.2z"/>
    <path d="M91.9,80.9l0.2-18.7c0-2-1.1-2.3-1.8-2.3c-0.6,0-1,0.3-1.3,0.6c-0.5-0.4-1.2-0.5-2.3-0.5h-2.2c0,0-0.1,0-0.1,0 c0.2-0.4,0.3-0.7,0.4-0.9c1.4-4-0.3-5.9-3.8-8.2c-0.6-0.4-2.1-1.4-3.8-2.5l0.8-1.3l-5.9-3.7c-0.8-1.6-1.5-2.9-2.2-4 c-0.4-0.6-1.4-1.1-2.7-1.3c-0.3-1-0.6-2.5-0.6-4.1c0.5-0.1,0.9-0.4,1.1-1.1c0.6-2.1,1.3-3,1.9-4c0.8-1.1,1.6-2.3,2.3-5.4 c0.7-3.1,0.1-6.1-1.7-8.6c-2.2-3-6.2-5.2-10.3-5.6C57.1,9,54.4,9.4,52,10.4c0,0-4.5,1.9-5.6,4c-1.2,2.2-0.3,3.6,0,3.8 c0.2,0.2,0.4,0.3,0.7,0.3c-0.1,0.4-0.3,0.9-0.3,1.4c-0.4,1.8-0.4,3.5-0.1,4.8c0,0.2,0.3,1.3,0.3,1.6c0.1,1.3-2.5,2.5-2.8,4 c-0.3,1.1,2,1.9,2.1,2.1c0.2,0.3,0.3,0.7,0.3,1.3c0,0,0,0,0,0l0,0c0,0.4,0.1,0.8,0.2,1.3l0,0c0,0,0,0,0,0c0.3,1.6,1.3,3.3,4.9,3.7 c0.1,0,0.2,0,0.3,0c0.2,0,0.3,0,0.5,0c0.3,0,0.5,0,0.7,0c0.1,0,0.2,0,0.3,0c0.1,0,0.2,0,0.3,0c0.1,0,0.3,0,0.4,0c0.1,0,0.1,0,0.2,0 c0.5,0,0.9-0.1,1.2-0.1c0.1,0,0.2,0,0.3,0c0,0,0,0,0,0c1.2,0.1,2.1,2.9,2.5,4.7c-0.8,2.2-1.1,5-0.4,7.6c2.1,7.9,4.9,8,3.3,20.1 c0,0,0.7,0.1,1.9,0.3l0,0.8l-7.9,0.2c-4.9,0.5-11.7,0.2-14.3,10.5l-6.9,22.6l0.7,0.2l-5.7,0c-1.6,0.1-3,1.2-3.6,2.7l-0.4,1.2 c-0.1,0.4,0,0.7,0.2,1l-0.1,0c-0.2-0.1-0.5-0.1-0.7-0.1c-0.9,0-1.8,0.6-2.1,1.5c-0.4,1.2,0.3,2.4,1.4,2.8l9.8,3.2 c-0.3,1,0.2,2.2,1.2,2.5c0.2,0.1,0.4,0.1,0.7,0.1c0.8,0,1.6-0.5,1.9-1.3l0,0l2.4,0.8c0,0,0,0,0,0c0.8,2.7,3.3,4.7,6.3,4.7 c3.6,0,6.5-2.9,6.5-6.5c0-2.9-1.9-5.4-4.6-6.2c-0.4-2.2-1.5-4.1-3.3-5.4c1-2.8,2.8-7.5,4.4-11.5c1.2-0.6,2.7-0.9,4.4-1 c-0.5,2-0.8,4.1-0.8,6.3c0,13.5,10.9,24.4,24.4,24.4c13.5,0,24.4-10.9,24.4-24.4C101.6,92.4,97.8,85.3,91.9,80.9z M91.8,87.1 c3,3.4,4.9,7.8,5.1,12.7h-2c-0.1-3.5-1.2-6.8-3.1-9.5L91.8,87.1z M80.4,102.8c0.4-0.6,0.7-1.2,0.8-2h12.7c-0.1,4.2-1.8,8.1-4.5,11 L80.4,102.8z M88.6,112.5c-2.9,2.7-6.7,4.4-11,4.5v-12.7c0.7-0.1,1.4-0.4,2-0.8L88.6,112.5z M79.7,97.1v-1.8l1.7,0.1L79.7,97.1z M91.8,92.4l0-0.2c1.3,2.3,2,4.9,2.1,7.7H81.2c-0.1-0.7-0.4-1.4-0.8-2l2.3-2.3l5.6,0.3c1.2,0,1.9-0.1,2.6-1 C91.8,93.9,91.8,92.4,91.8,92.4z M89.5,62.5L89.5,62.5c0-1.6,0.5-1.6,0.8-1.6c0.3,0,0.8,0,0.8,1.3L91,76.8 c-0.4-0.3-0.9-0.6-1.6-0.9L89.5,62.5z M88.4,76.5C88.4,76.5,88.4,76.5,88.4,76.5c0.4,0.2,0.7,0.4,1,0.5c0.4,0.2,0.8,0.5,1.1,0.7 l0.4,0.2c0,0.4,0,1.2-0.1,2.2c-0.5-0.3-1-0.6-1.5-0.9c-0.3-0.2-0.7-0.4-1-0.5c0,0-0.1,0-0.1,0c-1.8-0.9-3.8-1.7-5.9-2.1 c-0.3-0.1-0.5-0.1-0.8-0.2c-0.3-0.1-0.7-0.1-1-0.2c-0.7-0.1-1.4-0.2-2.1-0.2c0.2-0.7,0.3-1.4,0.2-2.1c0.7,0.1,1.3,0.1,2,0.3 c0.3,0.1,0.7,0.1,1,0.2c0.2,0,0.3,0.1,0.5,0.1C84.7,74.9,86.8,75.7,88.4,76.5z M60,40.5c-0.3,0.4-0.6,0.8-0.9,1.4 c-0.6-2-1.6-4-3.1-4.1c-0.1,0-0.2,0-0.3,0c-0.3,0-0.6,0-0.9,0.1c-0.5,0-1,0.1-1.6,0.1c-0.5,0-1,0-1.4-0.1c-2.9-0.3-3.7-1.5-4-2.8 c0.5-0.1,1-0.2,1.5-0.6c0.8-0.6,0.3-1.2-0.6-0.9c-0.3,0.1-0.7,0.2-1,0.2c0,0,0-0.1,0-0.1c-0.1-0.8-0.2-1.4-0.6-1.9 c-0.2-0.2-0.4-0.3-0.7-0.5c-0.7-0.4-1.1-0.6-1.2-0.8c0.2-0.4,0.7-0.9,1.2-1.3c0.8-0.8,1.8-1.7,1.7-2.9c0-0.3-0.1-0.9-0.3-1.6l0-0.1 c-0.2-1.2-0.2-2.8,0.1-4.4c0.1-0.5,0.2-1,0.4-1.6c2.1,0,6.5-0.1,8.9,0.5c0.4,0.1,0.9,0.2,1,0.6c0.1,0.2,0.1,1.2,0.1,1.4 c0.1,2.4-0.2,3.9,0.5,5.4c0.1,0.2,0.6,0.6,0.6,0.6l1-1.5c0.7-0.8,1.2-1.6,2-1.4c2.3,0.6,1.8,4.7-1,5.6c0,0,0.4,3.1,3.3,4 C65,34,65.3,34,65.5,34c0,0,0,0,0,0c0,0,0.1,0,0.1,0c0,1.5,0.3,2.9,0.5,3.9c-0.1,0-0.2,0-0.3,0C63.8,38,61.5,38.7,60,40.5z M34.1,117.1l-9.8-3.2c-0.6-0.2-1-0.9-0.8-1.5c0.2-0.5,0.6-0.8,1.2-0.8c0.1,0,0.2,0,0.4,0.1l9.9,3.2L34.1,117.1z M39.7,118.2 c0,0.2,0,0.5,0,0.7l-1.9-0.6l0.8-2.3l1.3,0.4C39.8,117,39.7,117.6,39.7,118.2z M42.9,112.6l0.1-0.3c0.2-0.6,0.2-1.3,0.1-2 c0.4,0.5,0.8,1.1,1,1.7C43.6,112.2,43.3,112.4,42.9,112.6z M49.9,93.7c-4,1.4-6.3,4.7-8.5,11.4l-0.1,0.4l-0.2,0.5l0.5,0.1 c3.3,0.9,5.6,3.9,5.6,7.3v1h-2v-1c0-2.6-1.8-4.9-4.4-5.4l-0.4-0.1l-0.2,0.5l-3.7,10.6c-0.1,0.4-0.5,0.7-0.9,0.7 c-0.1,0-0.2,0-0.3-0.1c-0.5-0.2-0.8-0.8-0.6-1.3l3.7-10.7l0.3-0.7l0-0.1c0-0.2,0.1-0.4,0.2-0.5l0.3-0.8l0.3-0.9 c2.5-8,5.6-11.7,11.1-13C50.3,92.1,50.1,92.9,49.9,93.7z M56.4,87.6c-0.5,0.8-0.9,1.5-1.3,2.3c-0.2,0.3-0.3,0.7-0.4,1 c-0.3,0.6-0.5,1.3-0.7,1.9l-2.9,0.3c0.2-0.7,0.4-1.4,0.7-2c0.1-0.4,0.3-0.7,0.4-1.1c0.4-0.9,0.8-1.8,1.2-2.6c0.2-0.3,0.4-0.7,0.5-1 c4.1-7.2,9.9-10.1,14.8-11.5c-0.1,0.2-0.1,0.4-0.2,0.5c-0.1,0.3-0.2,0.7,0,1c0,0.1,0.1,0.2,0.2,0.3c0,0.2-0.1,0.5-0.2,0.7 c-3.1,1.2-5.8,2.9-8.1,5.1c-0.4,0.4-0.7,0.7-1.1,1.1c-0.5,0.6-1,1.1-1.5,1.7c-0.4,0.5-0.8,1-1.1,1.6C56.6,87.2,56.5,87.4,56.4,87.6 z M74,97.8c-0.4,0.6-0.7,1.2-0.8,2H60.5c0.1-2,0.5-3.8,1.1-5.6l9.3,0.5L74,97.8z M72.5,94.9l2.2,0.1v2.1L72.5,94.9z M74,102.8l-9,9 c-2.7-2.9-4.4-6.7-4.5-11h12.7C73.3,101.6,73.5,102.2,74,102.8z M59.5,99.8h-2c0.1-2,0.4-3.9,1-5.7l2.1,0.1 C59.9,96,59.5,97.8,59.5,99.8z M57.5,100.8h2c0.1,4.5,1.9,8.6,4.8,11.7l-1.4,1.4C59.6,110.5,57.6,105.9,57.5,100.8z M76.7,120 c-5.1-0.1-9.7-2.2-13.1-5.4l1.4-1.4c3.1,2.9,7.2,4.7,11.7,4.8V120z M76.7,117c-4.2-0.1-8.1-1.8-11-4.5l9-9c0.6,0.4,1.2,0.7,2,0.8 V117z M76.7,78.5c-0.1,0.2-0.2,0.3-0.3,0.4c-0.2,0.3-0.4,0.6-0.5,0.8c-0.4,0.5-0.6,0.9-0.8,1.1c-0.2,0.2-0.3,0.3-0.4,0.3 c0,0-0.1,0-0.1,0c-0.1,0-0.2,0-0.4-0.1c0,0-0.1,0-0.1-0.1l0-0.1l0.5-1.1l0.4-0.8c0.1-0.2,0-0.4-0.2-0.5c-0.2-0.1-0.4,0-0.5,0.2 l-0.6,1.3l-0.3,0.6c-0.1,0-0.1,0.1-0.2,0.1C73,80.8,72.7,81,72.4,81c-0.3-0.1-0.4-0.2-0.4-0.2c0-0.1-0.1-0.2-0.1-0.2l0.1-0.3 l1.1-2.1c0.1-0.2,0-0.4-0.2-0.5c-0.2-0.1-0.4,0-0.5,0.2l-1.2,2.3c-0.1,0-0.2,0.1-0.2,0.1c-0.1,0.1-0.2,0.2-0.5,0.2 c0,0-0.4,0-0.4-0.4c0,0,0-0.1,0-0.1c0,0,0-0.1,0-0.1c0,0,0,0,0,0l0.8-1.9l0.4-1.1c0,0,0-0.1,0-0.1c0-0.2-0.1-0.3-0.2-0.4 c-0.2-0.1-0.4,0-0.5,0.2l-0.2,0.4l-0.5,1.2l-0.5,1.1c0,0,0,0-0.1,0c-0.1,0-0.1,0-0.2-0.1C69,79,69,78.9,69,78.7c0-0.1,0-0.1,0-0.2 c0,0,0-0.1,0-0.1c0-0.1,0-0.2,0.1-0.5c0.1-0.2,0.2-0.5,0.2-0.7c0.1-0.3,0.1-0.5,0.1-0.5c0-0.2-0.1-0.4-0.2-0.4c0,0,0,0-0.1-0.1 c0-0.1,0-0.3,0-0.4c0.2-0.3,0.3-0.7,0.4-1.1c0.1-0.3,0.1-0.5,0.2-0.7c0-0.1,0.1-0.3,0.1-0.4c0-0.1,0-0.2,0-0.2c0,0,0-0.1,0.1-0.1 c0,0,0-0.1,0-0.1c0.1-0.2,0.2-0.3,0.4-0.4c0.2-0.1,0.5-0.2,0.7-0.3c0.5-0.2,1.5-0.6,2.1-0.8c0.2-0.1,0.4-0.2,0.4-0.2 c0.2-0.1,0.5-0.2,0.7-0.2c0,0,0,0,0,0l0.1-0.4l0.1-0.4c0,0,0,0,0,0l0.2-0.7l0.5-1.7l0.3-1.1l2.3-8.3c0-0.1,0-0.2,0-0.3 c0-0.2-0.1-0.5-0.3-0.6c-0.1-0.1-0.1-0.1-0.2-0.2l-4.2-2.9l1.8-2.9l0.7-1l1.1-1.7l3.7,2.5c3.3,2.2,4.5,3.7,3.4,7 c-0.1,0.3-0.3,0.8-0.6,1.4c-0.5,1.2-1.2,2.8-2.1,4.7c-0.5,1.2-1.1,2.4-1.7,3.6c-0.6,1.2-1.1,2.4-1.6,3.5c0,0,0,0,0,0l-0.3,0.7 c0,0,0,0,0,0c0,0,0,0,0,0c0.3,0.4,0.4,1,0.4,1.6c0,0.6-0.1,1.2-0.3,1.7c-0.1,0.3-0.2,0.7-0.3,1C77.1,77.7,76.8,78.3,76.7,78.5z M77.7,120v-2c4.5-0.1,8.6-1.9,11.7-4.8l1.4,1.4C87.3,117.9,82.8,119.9,77.7,120z M91.5,113.9l-1.4-1.4c2.9-3.1,4.7-7.2,4.8-11.7h2 C96.8,105.9,94.7,110.5,91.5,113.9z"/>
  </g>
</svg>