<svg viewBox="0 0 128 128" xmlns="http://www.w3.org/2000/svg">
  <g>
    <path d="M60.22,84.25c1.22-1.49,1.82-2.99,1.81-4.5c-0.01-1.51-0.64-2.89-1.88-4.14c-0.78-0.78-1.61-1.31-2.49-1.6 c-0.88-0.28-1.86-0.33-2.93-0.14c-0.98,0.17-2.12,0.58-3.45,1.22l-5.51-5.67c0.61-0.32,1.27-0.45,1.99-0.37 c0.95,0.1,1.88,0.55,2.78,1.33c0.25,0.23,0.64,0.23,0.88-0.01l1.14-1.14c0.25-0.25,0.25-0.67-0.01-0.91 c-1.35-1.24-2.73-1.93-4.13-2.1c-1.56-0.18-3.05,0.26-4.46,1.33l-1.92-1.93c-0.29-0.28-0.75-0.28-1.03,0l-0.62,0.62 c-0.28,0.29-0.28,0.75,0,1.03l1.41,1.42l0.5,0.5l-0.01,0.01c-1.08,1.38-1.59,2.8-1.52,4.28c0.06,1.48,0.7,2.83,1.91,4.04 c1.18,1.19,2.52,1.81,4.01,1.87c1.28,0.04,2.76-0.32,4.45-1.11l5.65,5.81c-0.74,0.53-1.51,0.78-2.31,0.77 c-0.95-0.02-1.87-0.41-2.76-1.18c-0.25-0.21-0.62-0.19-0.85,0.04l-1.16,1.15c-0.26,0.25-0.26,0.67,0.01,0.91 c1.32,1.17,2.71,1.79,4.16,1.86c1.62,0.08,3.19-0.5,4.68-1.74c0.01,0,0.01,0,0.02-0.01l1.6,1.6c0.29,0.28,0.75,0.28,1.03,0 l0.61-0.61c0.28-0.29,0.28-0.75,0-1.03L60.22,84.25z M47.23,76.49c-0.94,0.04-1.79-0.31-2.54-1.07c-0.81-0.81-1.21-1.68-1.2-2.6 c0.01-0.6,0.2-1.19,0.59-1.78l4.93,5.06C48.34,76.34,47.74,76.47,47.23,76.49z M53.37,77.24c0.9-0.36,1.67-0.53,2.31-0.54 c0.94-0.01,1.75,0.33,2.43,1.01c0.8,0.8,1.15,1.71,1.08,2.72c-0.06,0.68-0.32,1.35-0.78,2L53.37,77.24z"/>
    <path d="M123.4,111.45c-0.05-0.37-0.13-0.77-0.23-1.21c-2.15-9.55-2.27-20.09-1.77-24.65c1.32-11.96-3.88-14.96-7.16-15.64 c-1.75-0.36-3.26-0.51-4.6-0.51c-2.3,0-4.14,0.42-6,0.89c-0.46,0.12-0.93,0.24-1.41,0.35c-1.43,0.35-2.93,0.67-4.71,0.8 c-0.06,0-0.13,0.01-0.19,0.01c6.01-7.15,13.13-12.34,23.25-15.7c1.29-0.43,1.81-11.33,0.63-12.63c-0.03,0.01-0.05,0.01-0.08,0.02 c0.05-0.02,0.07-0.04,0.07-0.04c-0.05-0.06-31.5-30-35.67-34.6c-0.37-0.41-0.88-0.61-1.4-0.61c-0.23,0-0.46,0.04-0.68,0.12 c-13.29,3.82-21.41,13.23-28.57,23.7c-0.55-0.69-1.26-1.62-2.13-2.9c-3.48-5.08-2.76-12.3-6.88-15.89 c-0.34-0.3-0.69-0.59-1.07-0.88c-0.19-0.14-0.39-0.28-0.59-0.41c-0.21-0.13-0.43-0.25-0.66-0.37c-0.23-0.11-0.47-0.22-0.73-0.31 c-0.26-0.1-0.53-0.18-0.82-0.25c-0.58-0.13-1.24-0.21-1.97-0.21c-1.28,0-2.83,0.23-4.74,0.81c-0.18,0.06-0.37,0.12-0.55,0.17 c-0.37,0.13-0.75,0.26-1.15,0.41c-0.2,0.07-0.4,0.15-0.61,0.23c-0.55,0.21-1.12,0.45-1.72,0.71c-0.9,0.4-1.87,0.85-2.9,1.37 c-4.1,2.06-12.29,8.85-21.57,11.96c-7.47,2.5-3.33,5.52-1.74,6.08c1.06,0.37,2.19,0.53,3.32,0.53c4.51,0,9.06-2.42,9.74-2.78 c-0.99,0.66-10.32,7.05-4.34,8.62c0.51,0.13,1.03,0.19,1.55,0.19c2.39,0,4.9-1.25,6.8-2.49c0.24-0.16,0.47-0.32,0.69-0.47 c0.22-0.15,0.42-0.3,0.62-0.45c0.2-0.15,0.38-0.29,0.55-0.42c0.68-0.54,1.14-0.96,1.3-1.1c-0.61,0.67-5.97,6.74-1.09,8.36 c0.29,0.09,0.59,0.14,0.92,0.14c0.58,0,1.22-0.14,1.88-0.37c0.26-0.1,0.53-0.21,0.8-0.33c2.42-1.09,4.98-3.21,6.23-4.3 c0.14-0.12,0.26-0.23,0.36-0.33c0.17-0.15,0.3-0.26,0.36-0.31c-0.47,0.69-4.75,6.87-2.5,8.24c0.59,0.36,1.24,0.51,1.91,0.51 c3.37,0,7.38-3.74,7.63-3.97c-0.22,0.33-4.64,6.9-2.24,7.99c0.56,0.25,1.15,0.36,1.76,0.36c0.22,0,0.43-0.01,0.65-0.04 c0.22-0.02,0.44-0.06,0.66-0.11c0.1-0.02,0.2-0.04,0.3-0.07c0.12-0.03,0.23-0.06,0.35-0.09c-0.12,0.03-0.24,0.07-0.36,0.1 c-6.34,8.74-13.76,16.42-24.59,19.98c-0.85,0.28-1.34,1.05-1.34,1.84v0.01l-0.01-0.01l-1.35,10.45l32.43,37.99l0.12,0.14 c0,0,11.83-3.67,21.21-11.11c5.58-4.42,10.32-10.81,14.31-16.97c0.03-0.05,0.06-0.09,0.09-0.14c0.02-0.03,0.04-0.05,0.05-0.08 c0.08-0.11,0.16-0.22,0.23-0.34s0.15-0.24,0.21-0.35c0,0.01,0,0.02,0.01,0.03c0.33,1.29,0.92,2.48,1.97,3.19 c0.21,0.14,0.42,0.2,0.64,0.2c0.14,0,0.28-0.02,0.42-0.07s0.28-0.11,0.43-0.2c0.72-0.43,1.46-1.32,2.11-2.28 c0.13-0.19,0.26-0.38,0.38-0.58c0.12-0.2,0.24-0.39,0.36-0.58c0.17-0.29,0.33-0.57,0.47-0.84c0.49-0.88,0.81-1.57,0.86-1.69 c-0.09,0.46-1.66,8.05,1.99,9.95c0.19,0.1,0.38,0.14,0.58,0.14c0.23,0,0.45-0.06,0.68-0.16c0.23-0.11,0.45-0.27,0.68-0.45 c0.53-0.44,1.05-1.08,1.53-1.78c0.14-0.2,0.27-0.41,0.4-0.61c0.06-0.1,0.13-0.21,0.19-0.31c0.12-0.21,0.25-0.41,0.36-0.62 c0.75-1.32,1.27-2.51,1.34-2.67c-0.11,0.51-2.03,9.57,0.74,11.93c0.69,0.59,1.33,0.83,1.93,0.83c0.28,0,0.55-0.05,0.8-0.15 c0.17-0.07,0.34-0.15,0.5-0.25c0.51-0.33,0.97-0.83,1.38-1.39c0.09-0.14,0.19-0.29,0.28-0.43c0-0.01,0.01-0.01,0.01-0.01 c0.09-0.15,0.18-0.31,0.27-0.46c0.13-0.23,0.25-0.46,0.36-0.68c0.09-0.19,0.18-0.38,0.26-0.57c0.46-1.03,0.73-1.91,0.8-2.16 c-0.17,0.83-1.69,8.82,1.91,12.31c0.7,0.68,1.31,0.97,1.84,0.97c1.11,0,1.85-1.3,2.35-2.93c0.08-0.27,0.15-0.55,0.22-0.84 c0.62-2.56,0.72-5.49,0.72-5.49s0.2,8.63,4.84,12.44c0.54,0.44,1.67,1.04,2.68,1.04c0.46,0,0.9-0.12,1.25-0.45 C123.42,114.9,123.75,113.69,123.4,111.45z M30.9,69.46c6.24-4.62,12.77-11.57,17.16-17.38l25.43,25.96 c-5.12,7.44-10.42,15.07-17.44,19.77c-0.84-1.37-2.39-3.03-5.16-3.72c-0.67-0.17-1.33-0.25-1.96-0.25c-1.78,0-3.18,0.66-4.18,1.44 l-15.1-17.36c1.27-0.99,2.46-2.68,2.58-5.29C32.29,71.41,31.64,70.3,30.9,69.46z M41.3,47.89c-0.16,0-0.3-0.01-0.44-0.03 c0.2-1.07,1.3-3.33,2.58-5.2c0.58-0.85,0.43-1.99-0.36-2.65c-0.37-0.32-0.83-0.48-1.29-0.48c-0.5,0-1,0.19-1.38,0.55 c-0.93,0.89-4.07,3.43-6.26,3.43c-0.2,0-0.39-0.03-0.56-0.08c0.12-1.04,1.39-3.56,2.82-5.56c0.61-0.84,0.47-2-0.31-2.68 c-0.37-0.33-0.84-0.49-1.31-0.49c-0.5,0-1,0.19-1.38,0.55c-2.24,2.14-6.29,5.15-8.3,5.15c-0.15,0-0.24-0.02-0.29-0.04 c-0.14-0.04-0.6-0.21-0.65-0.41c-0.22-0.87,1.2-3.22,2.62-4.74c0.75-0.79,0.73-2.02-0.04-2.79c-0.39-0.38-0.9-0.58-1.41-0.58 c-0.5,0-0.99,0.18-1.38,0.55c-1.3,1.24-5.39,4.44-8.64,4.44c-0.37,0-0.72-0.04-1.04-0.12c-0.18-0.05-0.31-0.1-0.41-0.14 c0.51-1.07,2.95-3.32,5.43-4.94c0.9-0.59,1.17-1.79,0.6-2.71c-0.37-0.62-1.03-0.96-1.7-0.96c-0.34,0-0.68,0.09-0.99,0.26 c-0.05,0.03-4.56,2.58-8.84,2.58c-0.98,0-1.88-0.14-2.66-0.42c-0.43-0.15-0.97-0.55-1.18-0.82c0.21-0.23,0.9-0.81,2.9-1.47 c6.59-2.21,12.61-6.18,17.01-9.08c1.95-1.29,3.63-2.39,4.82-2.99c4.6-2.32,8.23-3.49,10.77-3.49c2.13,0,3.18,0.77,4.53,1.94 c1.79,1.56,2.48,4.19,3.28,7.23c0.73,2.81,1.49,5.7,3.26,8.28c1.13,1.65,1.98,2.73,2.61,3.5l-1.76,2.66l-0.27,0.41 c-1.73,2.67-3.45,5.36-5.22,8c-0.45,0.68-0.91,1.36-1.37,2.03c-0.02,0.01-0.04,0.02-0.06,0.03C43.86,47.29,42.47,47.89,41.3,47.89z M49.74,105.39L19.05,71.52c12.25-4.07,20.18-13.09,26.46-22.04l1.35,1.37c-4.89,6.53-12.23,14.09-18.66,18.42 c0,0,2.41,1.71,2.33,3.26c-0.2,4.16-3.58,4.86-3.58,4.86l17.75,20.4c0,0,1.3-2.28,4.22-2.28c0.47,0,0.99,0.06,1.55,0.2 c4.02,1,4.83,4.54,4.83,4.54c8.05-4.69,13.84-12.94,19.38-20.99l2.72,2.78C70.31,92.55,62.61,101.71,49.74,105.39z M84.58,63.37 l-4.22-4.11c5.77-1.88,9.94-7.31,9.94-13.71c0-7.96-6.46-14.42-14.42-14.42c-6.51,0-12.02,4.33-13.8,10.26l-4.02-3.92 c5.62-7.92,12.37-16.09,20.01-20.46c0.77,1.11,2.12,2.26,4.29,2.93c0.77,0.24,1.58,0.36,2.39,0.36c1.72,0,3.16-0.53,4.13-1.02 c2.43,2.44,5.47,5.41,8.41,8.29c2.88,2.82,5.84,5.72,8.25,8.13c-0.78,1.19-1.4,2.99-1.14,5.42c0.12,1.12,0.91,2.26,1.75,3.19 C101.59,47.24,93.42,53.26,84.58,63.37z M108.9,44.57c0,0-2.68-2.17-2.83-3.65c-0.41-3.89,1.79-5.29,1.79-5.29 c-5.15-5.21-13.61-13.32-18.73-18.51c0,0-1.86,1.46-4.39,1.46c-0.6,0-1.24-0.08-1.89-0.28c-3.68-1.11-3.99-3.63-3.99-3.63 c-8.54,4.23-15.92,13.02-22.03,21.59l-0.35-0.34l-1.2-1.18c0.3-0.46,0.61-0.91,0.92-1.36C63.33,22.85,71.1,13.69,84,9.97l0.08-0.02 l0.02-0.01c1.78,1.94,9.14,9.27,33.87,32.88c-1.62,1.04-3.68,2.38-5.98,3.94c-0.01,0.01-0.02,0.01-0.04,0.02 c-3.69,2.51-8.01,5.58-12.15,8.86c-0.01,0-0.01,0.01-0.02,0.02c-4.5,3.55-8.81,7.36-11.9,10.94l-2.11-2.06 C95.08,53.87,103.84,47.56,108.9,44.57z M121.46,113.92c-0.4-0.05-1.01-0.33-1.32-0.59c-3.87-3.17-4.11-10.86-4.11-10.94 c-0.03-1.08-0.91-1.94-1.99-1.95h-0.01c-1.08,0-1.96,0.85-2,1.93c-0.1,2.96-0.76,6.22-1.42,7.2c-0.08-0.06-0.19-0.15-0.32-0.28 c-2.45-2.37-1.79-8.39-1.33-10.51c0.24-1.06-0.42-2.11-1.47-2.37c-0.16-0.04-0.32-0.06-0.48-0.06c-0.88,0-1.68,0.58-1.93,1.46 c-0.69,2.5-2.12,4.71-2.75,4.71c-0.1,0-0.32-0.09-0.63-0.35c-0.91-0.78-1.17-5.07-0.08-10c0.23-1-0.35-2.02-1.34-2.33 c-0.2-0.07-0.41-0.1-0.61-0.1c-0.78,0-1.52,0.46-1.84,1.22c-0.98,2.3-2.46,4.65-3.29,5.29c-1.33-1.18-1.21-5.1-0.67-7.57 c0.22-1-0.34-2-1.32-2.33c-0.21-0.07-0.42-0.1-0.63-0.1c-0.77,0-1.49,0.44-1.82,1.17c-0.94,2.07-2.3,4.18-3.11,4.9 c-0.69-0.79-0.99-2.22-1.07-3.65v-0.01c-0.01-0.05-0.01-0.1-0.01-0.15c0-0.01,0-0.02,0-0.02c-0.05-1.23,0.04-2.44,0.17-3.23 c0-0.02,0.01-0.04,0.01-0.06c0.25-1.79,1.45-6.94,3.94-9.33c0.55-0.52,0.96-0.91,1.43-1.22c0.82-0.51,1.85-0.78,4.13-1.01 c0.6-0.05,1.29-0.11,2.08-0.17c2.36-0.17,4.22-0.64,6.02-1.09c1.91-0.48,3.72-0.94,5.95-0.94c1.31,0,2.68,0.15,4.19,0.47 c4.46,0.92,6.44,5.7,5.58,13.46c-0.49,4.5-0.44,15.34,1.81,25.31C121.68,112.73,121.55,113.61,121.46,113.92z"/>
  </g>
</svg>