<svg viewBox="0 0 128 128" xmlns="http://www.w3.org/2000/svg">
  <g>
    <g>
      <path d="M57.4,22.3c-0.6-0.2-1.3-0.3-2-0.4C56.1,22,56.8,22.1,57.4,22.3z"/>
      <path d="M65.3,25.2c-0.2,0.2-0.4,0.5-0.6,0.7C64.9,25.7,65.1,25.5,65.3,25.2z"/>
      <path d="M13.4,76.5l0,0.4L13.4,76.5L13.4,76.5z"/>
      <path d="M124.5,99.7C124.5,99.6,124.5,99.6,124.5,99.7L124.5,99.7c0-0.2,0-0.3,0-0.4L122.4,33c0-2.2-1.8-3.9-4-3.9l-1.6-0.1 l-1.2-1.6c0,0-26.5-5-38.2-5.6c-0.6,0-1.1,0-1.6,0c-4.3,0-7.1,1-8.8,2.2c-0.2,0.1-0.4,0.3-0.6,0.4c-0.4,0.3-0.8,0.7-1.1,1 c-0.2,0.2-0.4,0.5-0.6,0.7c-0.2,0.2-0.3,0.4-0.4,0.6c-0.1,0.1-0.1,0.2-0.2,0.3c-0.1,0.2-0.2,0.4-0.2,0.4h0c0-0.1-0.2-0.4-0.3-0.8 c-0.1-0.2-0.2-0.3-0.3-0.5c-0.1-0.2-0.3-0.4-0.4-0.5c-0.1-0.2-0.3-0.3-0.5-0.5c-0.2-0.2-0.5-0.5-0.9-0.8c-0.2-0.2-0.5-0.3-0.7-0.5 c-0.1-0.1-0.2-0.2-0.4-0.2c-0.3-0.2-0.6-0.3-0.9-0.5c-0.3-0.1-0.7-0.3-1-0.4c-0.4-0.1-0.8-0.2-1.2-0.4c-0.6-0.2-1.3-0.3-2-0.4 c-0.5-0.1-1-0.1-1.5-0.2s-1.1-0.1-1.7-0.1c-0.5,0-1,0-1.6,0c-11.7,0.6-38.2,5.6-38.2,5.6v0l0,0l-1.2,1.6l-1.6,0.1 c-2.2,0-4,1.8-4,3.9L3.5,99.2c0,0.2,0,0.3,0,0.4l0,1.5c0,2.2,1.2,4.7,5.7,4.3l47.5-4.5c0.9,3.2,3.8,5.5,7.2,5.5 c3.5,0,6.4-2.3,7.3-5.5l47.5,4.5c4.6,0.4,5.7-2.1,5.7-4.3L124.5,99.7C124.5,99.7,124.5,99.7,124.5,99.7z M114.3,89.2 c-7.4-1.5-27.1-5.3-35.1-5.3c-0.2,0-0.3,0-0.5,0c-0.5,0-1,0-1.4,0.1c-4.4,0.5-8.2,2.5-10.9,4.2c-1,0.7-1.9,1.3-2.5,1.8 c0,0,0,0,0,0c-0.6-0.5-1.5-1.2-2.5-1.8c-2.7-1.8-6.5-3.7-10.8-4.2c-0.4-0.1-0.9-0.1-1.4-0.1c-0.2,0-0.3,0-0.5,0 c-8.1,0-27.7,3.8-35.1,5.3c-0.1,0-0.3,0.1-0.4,0.1l0.2-12.4l0-0.4h0l0.8-44l0.1-3l0-0.6c1.1-0.2,2.6-0.5,4.4-0.8 c8.5-1.5,23.9-4.1,31.9-4.5c0.5,0,1,0,1.5,0c8.3,0,9.9,4.2,9.9,4.3c0.3,0.8,1.1,1.4,1.9,1.4c0.9,0,1.6-0.6,1.9-1.4 c0.1-0.2,1.5-4.3,9.9-4.3c0.5,0,1,0,1.5,0c8,0.4,23.2,3,31.8,4.5c1.9,0.3,3.5,0.6,4.6,0.8l0,0.6l0.1,3l0.8,44v0.1l0.2,12.7 C114.6,89.2,114.5,89.2,114.3,89.2z"/>
    </g>
    <g>
      <path d="M25.3,30.2c-2.7,0.5-4.9,0.9-6.2,1.1c0,0.6,0,1.3,0,2c1.1-0.2,3.4-0.6,6.2-1.1V30.2z"/>
      <g>
        <path d="M49.7,27v2c5.3,0,8.3,1.3,9.2,1.9c0-0.8,0-1.6,0-2.2C57.3,27.9,54.2,27,49.7,27z"/>
        <path d="M45.3,27.2C41,27.6,35,28.6,29.7,29.4v2c5.3-0.9,11.3-1.8,15.7-2.3V27.2z"/>
      </g>
      <g>
        <path d="M34.7,35.8c-6.5,1-12.9,2.2-15.5,2.6c0,0.7,0,1.3,0,2c2.3-0.4,8.9-1.6,15.5-2.6V35.8z"/>
        <path d="M46.7,34.3c-2.1,0.2-4.8,0.5-7.7,0.9v2c3-0.4,5.7-0.8,7.8-0.9c7.2-0.6,11,1.2,12,1.8c0-0.8,0-1.5,0-2.2 C56.9,34.9,53,33.8,46.7,34.3z"/>
      </g>
      <g>
        <path d="M26.4,44.4c-3.2,0.5-5.8,1-7.3,1.3c0,0.7,0,1.3,0,2c1.3-0.2,4-0.7,7.3-1.3V44.4z"/>
        <path d="M58.9,43c-2-0.9-5.9-2.1-12.2-1.5c-4.1,0.3-10.3,1.3-15.9,2.2v2c5.7-0.9,12-1.9,16.1-2.2c7.3-0.6,11.1,1.2,12.1,1.8 C58.9,44.5,58.9,43.8,58.9,43z"/>
      </g>
      <g>
        <path d="M58.9,50.3c-1.9-0.9-5.9-2.1-12.3-1.6c-0.7,0-1.3,0.1-2.1,0.2v2c0.8-0.1,1.6-0.2,2.3-0.2c7.4-0.6,11.2,1.3,12.1,1.8 C58.9,51.8,58.9,51,58.9,50.3z"/>
        <path d="M40.2,49.4c-7.8,1.1-17.6,2.8-21,3.4c0,0.7,0,1.3,0,2c3-0.6,13-2.3,21-3.5V49.4z"/>
      </g>
      <g>
        <path d="M28.2,58.5c-3.9,0.7-7.3,1.3-9.1,1.6c0,0.7,0,1.4,0,2c1.6-0.3,5.1-0.9,9.1-1.6V58.5z"/>
        <path d="M58.9,57.5c-1.9-0.9-5.9-2.1-12.4-1.6c-3.6,0.3-8.9,1-13.9,1.9v2c5.1-0.8,10.5-1.6,14.1-1.9c7.6-0.6,11.4,1.4,12.2,1.9 C58.9,59,58.9,58.3,58.9,57.5z"/>
      </g>
      <path d="M58.9,72c-1.8-0.9-5.8-2.2-12.3-1.7v2c8.3-0.7,12,1.8,12.3,2C58.9,73.5,58.9,72.8,58.9,72z"/>
      <g>
        <path d="M26.4,73.2c-3.1,0.5-5.7,1-7.2,1.3c0,0.7,0,1.4,0,2c1.4-0.3,4.1-0.7,7.2-1.3V73.2z"/>
        <path d="M30.7,72.5v2c3.9-0.6,8.1-1.3,11.6-1.7v-2C38.8,71.2,34.6,71.8,30.7,72.5z"/>
      </g>
      <g>
        <path d="M37.7,78.6c-7.2,1-15.2,2.5-18.5,3.1c0,0.7,0,1.4,0,2c3-0.6,11.2-2,18.5-3.1V78.6z"/>
        <path d="M58.9,79.2c-1.8-0.9-5.8-2.2-12.6-1.7c-1.3,0.1-2.8,0.3-4.4,0.5v2c1.7-0.2,3.2-0.4,4.5-0.5c8.6-0.7,12.3,1.9,12.4,2 l0-0.1C58.9,80.7,58.9,80,58.9,79.2z"/>
      </g>
      <g>
        <path d="M36.2,64.4c-6.8,1-14,2.3-17,2.9c0,0.7,0,1.4,0,2c2.7-0.5,10-1.8,17-2.9V64.4z"/>
        <path d="M58.9,64.7c-1.9-0.9-5.9-2.2-12.4-1.6c-1.7,0.1-3.7,0.4-6,0.7v2c2.3-0.3,4.4-0.6,6.1-0.7c7.9-0.7,11.7,1.5,12.3,1.9 C58.9,66.3,58.9,65.5,58.9,64.7z"/>
      </g>
    </g>
    <g>
      <g>
        <path d="M88.4,29.7c8.3,1.1,19.1,3.1,22,3.6c0-0.7,0-1.4,0-2c-3.4-0.6-14-2.5-22-3.6L88.4,29.7L88.4,29.7z"/>
        <path d="M84.1,27.2c-0.4,0-0.8-0.1-1.2-0.1c-6.3-0.5-10.2,0.6-12.2,1.5c0,0.6,0,1.4,0,2.2c1.1-0.6,4.9-2.3,12-1.8 c0.4,0,0.9,0.1,1.4,0.1V27.2z"/>
      </g>
      <g>
        <path d="M102.4,39.1c3.7,0.6,6.7,1.2,8.1,1.4c0-0.7,0-1.4,0-2c-1.6-0.3-4.6-0.8-8.1-1.4V39.1z"/>
        <path d="M98,36.3c-5.4-0.9-11.2-1.7-15.1-2c-6.3-0.5-10.2,0.7-12.2,1.5c0,0.7,0,1.5,0,2.2c1.1-0.6,4.8-2.4,12-1.8 c3.9,0.3,9.8,1.2,15.3,2.1L98,36.3L98,36.3z"/>
      </g>
      <path d="M97.2,43.4v2c5.8,0.9,11.2,1.9,13.3,2.3c0-0.7,0-1.4,0-2C108.1,45.2,102.8,44.3,97.2,43.4z"/>
      <g>
        <path d="M88.4,49.3c-2-0.3-3.9-0.5-5.4-0.6c-6.4-0.5-10.4,0.7-12.3,1.6c0,0.8,0,1.5,0,2.2c0.9-0.5,4.7-2.5,12.1-1.8 c1.6,0.1,3.5,0.3,5.6,0.6V49.3z"/>
        <path d="M92.8,49.9v2c7.2,1.1,15.1,2.5,17.7,3c0-0.7,0-1.4,0-2C107.5,52.3,99.8,51,92.8,49.9z"/>
      </g>
      <g>
        <path d="M93.6,57.2c-3.9-0.6-7.8-1.1-10.6-1.3c-6.5-0.5-10.5,0.7-12.4,1.6c0,0.8,0,1.5,0,2.3c0.8-0.5,4.6-2.5,12.2-1.9 c2.8,0.2,6.7,0.8,10.8,1.4L93.6,57.2L93.6,57.2z"/>
        <path d="M98,57.9v2c5.4,0.9,10.4,1.8,12.5,2.2c0-0.7,0-1.3,0-2C108.2,59.7,103.3,58.8,98,57.9z"/>
      </g>
      <path d="M105,66.3v2c2.4,0.4,4.3,0.8,5.4,1c0-0.7,0-1.3,0-2C109.2,67,107.3,66.7,105,66.3z"/>
      <g>
        <path d="M89.3,71c-2.3-0.3-4.4-0.6-6.1-0.7c-6.6-0.6-10.7,0.8-12.5,1.7c0,0.8,0,1.5,0,2.3c0.2-0.2,4-2.7,12.3-2 c1.8,0.1,3.9,0.4,6.3,0.7L89.3,71L89.3,71z"/>
        <path d="M93.6,71.6v2c6.9,1,14.1,2.3,16.8,2.8c0-0.7,0-1.3,0-2C107.4,73.9,100.3,72.7,93.6,71.6z"/>
      </g>
      <g>
        <path d="M97.2,79.4c-5.1-0.8-10.4-1.6-14-1.9c-6.7-0.6-10.8,0.8-12.6,1.7c0,0.8,0,1.5,0,2.2l0.1,0.1c0,0,3.8-2.7,12.4-2 c3.6,0.3,9,1.1,14.1,1.9L97.2,79.4C97.2,79.4,97.2,79.4,97.2,79.4z"/>
        <path d="M101.5,80.1v2c3.9,0.7,7.2,1.2,8.9,1.6c0-0.6,0-1.3,0-2C108.6,81.3,105.3,80.7,101.5,80.1z"/>
      </g>
      <g>
        <path d="M82.9,63.1c-6.5-0.5-10.4,0.8-12.3,1.6c0,0.8,0,1.5,0,2.3c0.6-0.4,4.4-2.6,12.3-1.9V63.1z"/>
        <path d="M87.3,63.5v2c4.1,0.5,9.1,1.3,13.4,2v-2C96.3,64.8,91.4,64.1,87.3,63.5z"/>
      </g>
      <g>
        <path d="M79.7,41.4c-4.5,0-7.4,1-9,1.7c0,0.7,0,1.5,0,2.2c0.8-0.5,3.7-1.9,9-1.9V41.4z"/>
        <path d="M84.1,41.6v2c2.5,0.2,5.6,0.7,8.8,1.1v-2C89.6,42.2,86.6,41.8,84.1,41.6z"/>
      </g>
    </g>
  </g>
</svg>