<svg viewBox="0 0 128 128" xmlns="http://www.w3.org/2000/svg">
  <g>
    <path d="M65.5,11.1c-33.1,0-60,30.5-60,59.7s26.9,46.1,60,46.1s60-16.9,60-46.1S98.6,11.1,65.5,11.1z M106.2,102.4 c-10.2,7.4-24.7,11.5-40.7,11.5s-30.4-4.1-40.7-11.5C14.2,94.6,8.5,83.7,8.5,70.8c0-13.6,6.1-27.7,16.7-38.7 c11.2-11.6,25.5-18,40.3-18s29.1,6.4,40.3,18c10.6,11,16.7,25.1,16.7,38.7C122.5,83.7,116.8,94.6,106.2,102.4z"/>
    <path d="M44.7,44.5c-3,0-5.7,2.3-7.7,5.9c-1.3,2.2-2.3,5.2-2.9,8.7c-0.4,2.2-0.6,4.6-0.6,7.1c0,0.1,0,0.1,0,0.2v0.1 c0,0.2,0,0.3,0,0.5s0,0.3,0,0.5c0.2,8.8,2.8,16.1,6.3,18.2c1.5,1.4,3.2,2.2,4.9,2.2c6.2,0,11.3-9.7,11.3-21.7S50.9,44.5,44.7,44.5z "/>
    <path d="M83.3,44.5c-3,0-5.7,2.3-7.7,5.9c-1.3,2.2-2.3,5.2-2.9,8.7c-0.4,2.2-0.6,4.6-0.6,7.1c0,0.1,0,0.1,0,0.2v0.1 c0,0.2,0,0.3,0,0.5s0,0.3,0,0.5c0.2,8.8,2.8,16.1,6.3,18.2c1.5,1.4,3.2,2.2,4.9,2.2c6.2,0,11.3-9.7,11.3-21.7 C94.5,54.2,89.5,44.5,83.3,44.5z"/>
  </g>
</svg>