<svg viewBox="0 0 128 128" xmlns="http://www.w3.org/2000/svg">
  <g>
    <path d="M63.2,109.3c2.3,0.1,4.2-0.5,4.2-1.3s-1.8-1.5-4.1-1.6c-2.3-0.1-4.2,0.5-4.2,1.3C59.1,108.5,60.9,109.2,63.2,109.3z"/>
    <path d="M96.5,22.8c-0.1-0.1-0.1-0.2-0.2-0.4c-0.2-0.4-0.4-0.7-0.5-1.1c-0.1-0.3-0.3-0.5-0.4-0.8c0-0.1-0.1-0.1-0.1-0.2 c0,0,0,0,0,0C90.2,11.4,80.9,4.1,64,4c0,0,0,0,0,0s0,0,0,0c-16.9,0.1-26.2,7.3-31.3,16.4c0,0,0,0,0,0c-0.3,0.5-0.6,1.1-0.8,1.6 c0,0,0,0.1-0.1,0.1C1.4,52.3,3.8,124,3.8,124h35.2c0,0,0,0,0,0h12.7c0,0,0,0,0,0h10.7c0.1,0,0.2,0,0.3,0c0.2,0,0.5,0,0.7,0h11.1 c0,0,0,0,0,0h14.1c0,0,0,0,0,0h35.5C124.2,124,126.4,53.3,96.5,22.8z M99.3,58.2c0.4,1.1,0.7,2.4,0.7,3.6c0,3.4-1.6,6.3-4.1,8 c0.5-1.9,0.8-3.8,1.1-5.9c0,0,0.1-0.1,0.1-0.1L99.3,58.2z M43.8,112.1c2.4-1,4.9-1.6,6.8-1.6c1.6,0,2.4,0.4,2.5,0.6 c0.3,0.6-1.3,2.9-5.2,4.9c1.2-0.8,1.9-1.6,1.6-2.2c-0.3-0.8-2.3-0.8-4.3,0c-2,0.8-3.4,2.2-3.1,3c0.3,0.7,1.7,0.8,3.3,0.3 c-2.3,0.9-4.6,1.4-6.4,1.4c-1.6,0-2.4-0.4-2.5-0.6C36.3,117.2,38.5,114.3,43.8,112.1z M62.4,104.4c0.3,0,0.6,0,1,0 c6.6,0.2,10,2.3,9.9,2.9c0,0.5-2.9,2.3-9.1,2.3c-0.3,0-0.6,0-1,0c-6.6-0.2-10-2.3-9.9-2.9C53.3,106.2,56.1,104.4,62.4,104.4z M91.3,118c-0.4,1-1.9,1.6-4,1.6c-1.8,0-3.8-0.4-5.8-1.2c-2.3-1-4.4-2.4-5.6-3.9c-1-1.2-1.4-2.4-1.1-3.2c0.4-1,1.9-1.6,4-1.6 c1.8,0,3.8,0.4,5.8,1.2c2.3,1,4.4,2.4,5.6,3.9C91.2,116,91.7,117.2,91.3,118z M83,108.8c-1.5-0.4-2.9-0.6-4.2-0.6 c-1.6,0-3.1,0.3-4.1,1c0.1-0.9,0.1-1.6,0-1.9c-0.2-2.2-5.2-4.1-11.4-4.3c-0.3,0-0.7,0-1,0c-5,0-9.1,1.2-10.3,2.8c0,0,0,0,0,0 c-0.7,0.5-0.4,2-0.4,2.9c0,0.1,0,0.3,0,0.4c-0.3,0-0.7-0.1-1.1-0.1c-1.6,0-3.4,0.3-5.5,1c0,0-0.1,0-0.1,0c0-0.8,0-1.7,0-2.1 c0-2.2,1.8-4.4,5.6-6.6c2.6-1.5,3.7-4.1,4.2-6.3c3,0.9,6.1,1.4,9.2,1.4c3.1,0,6.2-0.5,9.2-1.4c0.5,2.2,1.6,4.8,4.2,6.3 c3.7,2.2,5.6,4.4,5.6,6.6C83,108,83,108.4,83,108.8z M64,94.3c-8.3,0-16-3.3-21.6-9.3c-5.9-6.3-9.3-15.1-9.8-25.7 c1.5-6.4,3.8-16.3,5.2-19.9c1-2.8,3.9-4.4,6.8-3.8c4.5,0.8,11.6,1.8,19.4,1.8h0.2c7.8,0,14.9-1,19.4-1.8c2.9-0.5,5.8,1.1,6.8,3.8 c1.4,3.6,3.7,13.6,5.2,20c-0.5,10.5-3.9,19.3-9.8,25.6C80,91,72.3,94.3,64,94.3z M32.1,69.8c-2.5-1.7-4.1-4.6-4.1-8 c0-1.3,0.2-2.5,0.7-3.6c0.7,1.8,1.6,4.2,2.2,5.6c0,0.1,0.1,0.1,0.2,0.2C31.2,66.1,31.6,68,32.1,69.8z M64,20.5 c-15.2,0-27.1,5-33.1,8.1c0.8-2.5,1.8-4.9,2.9-7c3.5-1.7,14.4-6.2,30.2-6.2c15.8,0,26.6,4.5,30.2,6.2c1.2,2.1,2.1,4.5,2.9,7 C91.1,25.5,79.2,20.5,64,20.5z M11.3,122H5.8c-0.1-11,0.6-66.5,23.9-94.6c-0.5,1.4-0.8,2.8-1.2,4.2c0,0,0,0,0,0 c-2.5,10.9-1.2,21.4-0.8,24c-1.1,1.8-1.8,3.9-1.8,6.3c0,4.8,2.9,9,6.9,10.6C36.5,83.8,44.1,91,52.9,94.3c0,0.2-0.1,0.4-0.1,0.6 c-6.5,0.6-12.9,1.6-18.5,3.3c-0.6,0.2-1.2,0.2-1.7,0.2c-1.2,0-2.4-0.3-3.4-1c-1.6-1.1-4-1.8-6.2-2.3c-0.6-0.1-1.1-0.2-1.7-0.2 c-2.4,0-4.8,1.1-6.3,3c-3,3.7-7,9.5-7,13.4c0,3.8,3.3,6.6,3.3,8.5V122z M13.3,122v-2.1c0-1.4-0.7-2.6-1.5-3.9 c-0.8-1.4-1.8-2.9-1.8-4.6c0-2.5,2.4-6.9,6.5-12.2c1.1-1.5,2.9-2.3,4.7-2.3c0.4,0,0.9,0,1.3,0.1c3.2,0.7,4.8,1.5,5.5,2 c1.3,0.9,2.9,1.4,4.5,1.4c0.8,0,1.6-0.1,2.3-0.3c5.1-1.5,10.9-2.6,17.1-3.2c-0.5,1-1.3,1.9-2.3,2.5c-3.1,1.8-6.5,4.5-6.5,8.3 c0,1.6,0,2.4,0,2.9c-5.2,2.2-8.7,5.6-7.9,7.7c-0.2,0.4-0.2,0.9,0.1,1.4c0.2,0.6,0.8,1.3,1.5,2.1H13.3z M112.3,119.9v2.1H90.7 c0.7-0.8,1.2-1.5,1.5-2.1c0.1-0.2,0.1-0.4,0.2-0.6c0.1-0.2,0.3-0.4,0.4-0.6c1.2-2.8-2.2-6.9-7.5-9.1c-0.1,0-0.1,0-0.2-0.1 c0-0.4,0-1,0-1.7c0-3.8-3.5-6.5-6.5-8.3c-1-0.6-1.7-1.4-2.2-2.3c5.8,0.7,11.4,1.8,16.2,3.4c0.8,0.2,1.6,0.4,2.4,0.4 c1.7,0,3.4-0.6,4.9-1.6c0.8-0.6,2.4-1.4,5.7-2.2c0.4-0.1,0.9-0.2,1.4-0.2c1.9,0,3.6,0.8,4.7,2.3c4.1,5.2,6.5,9.7,6.5,12.1 c0,1.8-1.8,3.4-3.2,4.7C113.4,117.3,112.3,118.4,112.3,119.9z M122.2,122h-7.9v-2.1c0-1.6,5.8-4.2,5.8-8.5c0-3.8-4-9.6-6.9-13.3 c-1.5-2-3.9-3-6.3-3c-0.6,0-1.2,0.1-1.9,0.2c-2.3,0.5-4.8,1.3-6.4,2.5c-1.1,0.8-2.4,1.2-3.8,1.2c-0.6,0-1.2-0.1-1.8-0.3 c-5.4-1.7-11.4-2.9-17.7-3.6c-0.1-0.3-0.1-0.5-0.2-0.8c8.8-3.3,16.4-10.5,20.1-21.8c4-1.7,6.9-5.8,6.9-10.6c0-2.3-0.7-4.5-1.8-6.3 c0.4-2.6,1.7-13.1-0.8-23.9c0,0,0,0,0,0c-0.3-1.2-0.6-2.4-0.9-3.5c0,0,0,0,0,0C121.3,56.3,122.2,111,122.2,122z"/>
    <path d="M83.9,113.7c-2.2-0.9-4.3-0.7-4.8,0.5s0.9,2.8,3.1,3.7c2.2,0.9,4.3,0.7,4.8-0.5C87.5,116.2,86.1,114.6,83.9,113.7z"/>
    <path d="M47.5,51.8c1.2,0,2.2,0.1,3.6,0.5c0.8,0.2,1.5,0.6,2.2,0.8c1.2,0.3,2.4-0.7,2-2c-0.2-0.8-1.1-1.5-1.7-2 C49.8,46.1,43,46.5,40,50.7c-0.6,0.8-0.2,2,0.7,2.4c0.8,0.3,1.4-0.1,2.1-0.4C44.5,52,45.7,51.8,47.5,51.8z"/>
    <path d="M73.7,53.2c0.9,0.3,1.9-0.4,2.7-0.7c1.3-0.4,2.3-0.7,4-0.7c1.9,0,2.9,0.2,4.7,0.9c0.3,0.1,0.6,0.3,0.9,0.4 c1.5,0.6,2.7-1.1,1.9-2.4c-0.5-0.9-1.5-1.7-2.4-2.2c-2.7-1.6-6.3-1.8-9.2-0.5c-1.2,0.5-2.4,1.4-3.3,2.4 C72.4,51.4,72.4,52.8,73.7,53.2z"/>
    <ellipse cx="47.6" cy="58.8" rx="4.9" ry="5.1"/>
    <ellipse cx="80.4" cy="58.8" rx="4.9" ry="5.1"/>
    <path d="M72.4,76.1c-3.2,1.9-13.6,1.9-16.8,0c-1.8-1.1-3.7,0.6-2.9,2.2c0.8,1.6,6.4,5.4,11.4,5.4c4.9,0,10.6-3.8,11.3-5.4 C76.1,76.7,74.2,75,72.4,76.1z"/>
    <path d="M64,72.4c2.8,0,4.2-2,4.5-2.7c0.3-0.7,0-1.4-0.7-1.6c-0.1,0-0.2-0.1-0.3-0.1h-7.1c-0.1,0-0.2,0-0.3,0.1 c-0.6,0.3-1,0.9-0.7,1.6S61.2,72.4,64,72.4z"/>
  </g>
</svg>