<svg viewBox="0 0 128 128" xmlns="http://www.w3.org/2000/svg">
  <g>
    <polygon points="40.43,30.06 40.07,30.06 38.9,33.94 36.02,42.05 44.44,42.05 41.6,33.94 "/>
    <path d="M85.93,36.24c1.32,0,2.38-0.37,3.18-1.1c0.8-0.74,1.19-1.66,1.19-2.77c0-1.08-0.38-1.99-1.15-2.73 c-0.77-0.74-1.78-1.1-3.04-1.1h-6.26v7.71h6.08V36.24z"/>
    <path d="M91.3,45.66c0-1.23-0.42-2.24-1.26-3.02c-0.84-0.78-2.04-1.17-3.61-1.17h-6.58v8.34h6.76c1.47,0,2.62-0.38,3.45-1.15 C90.89,47.89,91.3,46.89,91.3,45.66z"/>
    <path d="M116,4H12c-4.4,0-8,3.6-8,8v104c0,4.4,3.6,8,8,8h104c4.4,0,8-3.6,8-8V12C124,7.6,120.4,4,116,4z M49.19,102.62 c-2.18,1.01-4.59,1.51-7.23,1.51c-3.13,0.03-5.99-0.72-8.57-2.21s-4.62-3.52-6.11-6.08c-1.49-2.57-2.23-5.42-2.23-8.54 s0.74-5.97,2.23-8.54c1.49-2.57,3.52-4.6,6.11-6.09c2.58-1.49,5.44-2.23,8.56-2.23c4.87,0,8.89,1.76,12.08,5.27l-4.28,4.15 c-2.07-2.43-4.66-3.65-7.75-3.65c-2.01,0-3.85,0.46-5.5,1.37c-1.65,0.92-2.95,2.22-3.9,3.9c-0.95,1.68-1.42,3.62-1.42,5.81 s0.47,4.13,1.42,5.81c0.95,1.68,2.25,2.98,3.9,3.9s3.49,1.37,5.5,1.37c3.4,0,6.23-1.41,8.52-4.24l4.33,4.1 C53.26,100.15,51.37,101.62,49.19,102.62z M49.12,55.35l-2.7-7.71H34.07l-2.7,7.71h-6.72l12.08-32.27h6.99l12.12,32.27H49.12z M73.76,23.08h12.62c1.8,0,3.46,0.38,4.98,1.13c1.52,0.75,2.71,1.77,3.58,3.07c0.87,1.29,1.31,2.7,1.31,4.24 c0,1.62-0.4,3.03-1.19,4.21c-0.8,1.19-1.84,2.1-3.13,2.73v0.36c1.68,0.6,3.02,1.56,4.01,2.86c0.99,1.31,1.49,2.88,1.49,4.71 c0,1.77-0.47,3.34-1.42,4.71s-2.22,2.42-3.83,3.15c-1.61,0.74-3.39,1.1-5.34,1.1H73.76V23.08z M99.49,95.73 c-1.35,2.43-3.28,4.33-5.77,5.68c-2.49,1.35-5.42,2.03-8.79,2.03H74.02V71.16h10.91c3.36,0,6.29,0.68,8.79,2.03 c2.49,1.35,4.42,3.24,5.77,5.68c1.35,2.43,2.03,5.24,2.03,8.43S100.84,93.3,99.49,95.73z"/>
    <path d="M84.66,76.93h-4.55v20.73l4.55,0c3.49,0,6.14-0.92,7.98-2.77c1.83-1.85,2.75-4.38,2.75-7.6c0-3.21-0.92-5.75-2.75-7.59 C90.81,77.85,88.15,76.93,84.66,76.93z"/>
  </g>
</svg>