<svg viewBox="0 0 128 128" xmlns="http://www.w3.org/2000/svg">
  <g>
    <path d="M69.06,64c0-2.15-1.35-3.98-3.25-4.71l-4.56-16.56c-0.44-1.6-2.1-2.54-3.69-2.1c-1.6,0.44-2.54,2.09-2.1,3.69l4.56,16.57 c-0.67,0.86-1.09,1.93-1.09,3.11c0,2.08,1.26,3.87,3.06,4.65v24.42c0,1.1,0.9,2,2,2s2-0.9,2-2V68.65 C67.8,67.87,69.06,66.08,69.06,64z"/>
    <path d="M64,4C30.86,4,4,30.86,4,64s26.86,60,60,60s60-26.86,60-60S97.14,4,64,4z M64,112.14c-26.59,0-48.14-21.55-48.14-48.14 S37.41,15.86,64,15.86S112.14,37.41,112.14,64S90.59,112.14,64,112.14z"/>
    <rect height="5" width="5" x="61.5" y="100"/>
    <rect height="5" width="5" x="61.5" y="23"/>
    <rect height="5" width="5" x="23" y="61.5"/>
    <rect height="5" width="5" x="100" y="61.5"/>
    <rect height="3" transform="matrix(0.5001 -0.866 0.866 0.5001 -61.9286 87.4157)" width="5" x="42.25" y="95.85"/>
    <rect height="3" transform="matrix(0.5001 -0.866 0.866 0.5001 15.0727 87.4257)" width="5" x="80.76" y="29.16"/>
    <rect height="5" transform="matrix(0.866 -0.5 0.5 0.866 -37.5172 54.6651)" width="3" x="81.75" y="94.84"/>
    <rect height="5" transform="matrix(0.866 -0.5 0.5 0.866 -9.3353 26.4841)" width="3" x="43.25" y="28.16"/>
    <rect height="5" transform="matrix(0.5 -0.866 0.866 0.5 -23.4323 125.9254)" width="3" x="95.84" y="80.76"/>
    <rect height="5" transform="matrix(0.5 -0.866 0.866 0.5 -23.421 48.9201)" width="3" x="29.16" y="42.24"/>
    <rect height="3" transform="matrix(0.866 -0.5001 0.5001 0.866 -37.5212 26.4912)" width="5" x="28.16" y="81.75"/>
    <rect height="3" transform="matrix(0.866 -0.5001 0.5001 0.866 -9.332 54.6775)" width="5" x="94.84" y="43.25"/>
  </g>
</svg>