<svg viewBox="0 0 128 128" xmlns="http://www.w3.org/2000/svg">
  <path d="M103.63,112.38V62.7h0.01c-0.11-2.29-2.39-4.43-6.34-5.81c-14.07-5.13-33.53-6.39-49.39-4.07V33.15 c0-9.47,7.21-17.18,16.08-17.18c11.21,0,17.08,10.15,17.08,20.18v5.88c-0.4,2.28,1.75,2.84,4.86,2.88c5.37,0,6.09-2.08,6.18-2.49 l0.02-6.27C92.13,17.51,79.77,2.91,64,2.91c-16.06,0-29.13,13.57-29.14,30.25v22.35c-1.4,0.35-3.02,0.81-4.23,1.41 c-3.91,1.37-6.14,3.51-6.26,5.78h-0.02v50.08c0.02,15.08,80.3,15.23,79.24-0.4H103.63z M69.97,111.16H58.05 c-1.47,0-2.49-1.47-1.96-2.85l4.18-10.89c-6.74-3.86-4.07-14.28,3.8-14.33c8.16,0.07,10.56,11.04,3.34,14.57l4.49,10.58 C72.48,109.62,71.47,111.16,69.97,111.16z"/>
</svg>