<svg viewBox="0 0 128 128" xmlns="http://www.w3.org/2000/svg">
  <path d="M112.4,62.2c1-13.5,6.5-22.7,7.3-24.2c0.8-1.5,3-3.8,1.7-6.3c-1.2-2.4-4.5-1.6-7.5-1.6 c-2.1,0-17.3-1.2-25.6-4.9c-8.7-3.9-17.5-12-19-14.9c-1.5-3-3-5.6-5.3-5.8c-2.7-0.2-4.5,3.8-5.6,6.2s-8.2,9.4-16.6,13.7 c-9,4.5-24.1,6.3-27.3,6.5c-2.7,0.1-6.3-0.4-7.5,1.8c-1,1.9,1.5,4.7,2.8,7c1.4,2.4,6.3,13.2,6,24.6c-0.3,13.2-5.9,22.4-7,24.2 s-4,4.6-2.4,7.3c1.4,2.4,4.5,1.7,7,1.6c3.1-0.2,17.9,0.8,26.5,5.1c7.1,3.5,14.5,10.7,17.5,14.1c3,3.4,4,6.4,6.8,6.3 c3.3-0.1,4.2-3.8,6-6.3c1.2-1.7,9.2-10.7,18.8-14.9c7.1-3.1,22.2-4.3,23.8-4.4c3.2-0.1,7.2,0.7,8.3-1.5c1.1-2.2-1.6-5.6-2.5-7 C116.1,84.7,111.6,74,112.4,62.2z M92,76.7c0.1-2.5-1.4-7-1.5-12.3c-0.1-4.7,1.2-9.9,1.3-13L110.6,41c-0.6,5-4.3,14.4-4.2,22.6 c0.1,10.3,3.8,19,4.4,23.6L92,76.7z M16.1,87.6C17,83,21.7,74.2,21.5,64c-0.2-9.6-4.3-19-4.8-23.9l19.8,11.1c0,3.2,1.3,8.1,1.4,12.1 c0.1,5-0.8,9.7-1.2,12.8L16.1,87.6z M66.7,40c2.4,1.3,5.2,3.8,8,5.4c2.8,1.6,6.3,3.2,8.7,4.7l-16.7,9.3L66.7,40z M61.3,59.7 l-17.9-10c2.4-1.2,7-2.6,10.1-4.3c3.4-1.9,5.8-4.1,7.9-5.4V59.7z M41.5,54l17.4,9.7l-17.6,9.8c0.1-3.2,0.9-8,0.9-11.2 C42.2,59.9,41.7,56.5,41.5,54z M61.3,68.1v20c-2.6-1.3-5.7-4.2-8.2-5.7c-2.7-1.7-7-3.2-9.5-4.6L61.3,68.1z M66.6,68.1l16.9,9.4 c-2.4,1.4-5.8,3.2-8.3,4.5c-2.5,1.3-5.9,4.2-8.6,5.7L66.6,68.1z M68.9,63.9l17.7-9.7c0.1,2.6-0.5,6.8-0.4,9.8 c0.1,3.2,0.6,7.4,0.4,9.8L68.9,63.9z M84.1,29.1c6.1,3.3,18.1,5.2,23.5,7.4l-19,10.6c-3.1-1.5-8.1-3.3-11.4-5.1 c-2.9-1.6-7.3-6.1-10.5-8.2l0.1-17C71.1,19.2,78,25.8,84.1,29.1z M43.6,29.9c5.6-2.6,13.2-9.9,17.7-12.8v16.6 c-2.8,1.9-6,5.9-10.4,8.4c-4.4,2.5-9.4,3.4-12.2,4.9L19,36.1C24,34.2,36.4,33.2,43.6,29.9z M42,97.2c-8.4-3.5-18.7-4-23.4-5.6 l19.8-10.9c2.7,1.2,7.8,2.4,11.9,5c4.2,2.7,8.1,6.4,11,8.2v17.7C56.8,108.7,50.1,100.6,42,97.2z M86,97.1 c-8.4,3.9-14.8,12.3-19.5,14.8l0.1-18c3-2,7.3-6.4,11.6-8.5c3.1-1.5,7.5-3.5,10.4-5.1l20,11.2C104.1,93.6,94.1,93.3,86,97.1z"/>
</svg>