<svg viewBox="0 0 128 128" xmlns="http://www.w3.org/2000/svg">
  <path d="M116,4H12c-4.42,0-8,3.58-8,8v104c0,4.42,3.58,8,8,8h104c4.42,0,8-3.58,8-8V12C124,7.58,120.42,4,116,4z M95.82,89.67 c-0.01,0.09-0.03,0.19-0.05,0.28c-0.02,0.07-0.04,0.14-0.06,0.21c-0.03,0.09-0.06,0.19-0.11,0.28c-0.03,0.07-0.07,0.13-0.1,0.2 c-0.05,0.08-0.1,0.17-0.15,0.25c-0.04,0.06-0.09,0.12-0.14,0.18c-0.06,0.07-0.13,0.14-0.2,0.21c-0.05,0.05-0.11,0.1-0.17,0.14 c-0.08,0.07-0.17,0.13-0.26,0.18c-0.03,0.02-0.05,0.04-0.08,0.06c-0.03,0.01-0.06,0.02-0.08,0.03c-0.15,0.08-0.3,0.14-0.46,0.19 c-0.04,0.01-0.08,0.03-0.11,0.04C93.63,91.96,93.42,92,93.2,92H34.8c-0.22,0-0.43-0.04-0.63-0.09c-0.04-0.01-0.08-0.03-0.11-0.04 c-0.16-0.05-0.32-0.11-0.46-0.19c-0.03-0.01-0.06-0.02-0.08-0.03c-0.03-0.02-0.05-0.04-0.08-0.06c-0.09-0.06-0.17-0.12-0.26-0.18 c-0.06-0.05-0.12-0.09-0.17-0.14c-0.07-0.07-0.13-0.14-0.2-0.21c-0.05-0.06-0.1-0.12-0.14-0.18c-0.06-0.08-0.11-0.16-0.15-0.25 c-0.04-0.06-0.07-0.13-0.1-0.2c-0.04-0.09-0.07-0.18-0.11-0.28c-0.02-0.07-0.05-0.14-0.06-0.21c-0.02-0.09-0.04-0.18-0.05-0.28 c-0.01-0.09-0.02-0.17-0.02-0.26c0-0.04-0.01-0.08-0.01-0.12c0-0.04,0.01-0.07,0.02-0.11c0.01-0.14,0.03-0.28,0.06-0.43 c0.01-0.06,0.02-0.12,0.04-0.18c0.06-0.2,0.13-0.39,0.24-0.57l29.2-50.7c0.23-0.43,0.59-0.78,1.02-1.02 c1.27-0.71,2.88-0.25,3.58,1.02L95.5,88c0.1,0.19,0.18,0.38,0.24,0.57c0.02,0.06,0.03,0.12,0.04,0.18c0.03,0.14,0.05,0.28,0.06,0.43 c0,0.04,0.01,0.07,0.02,0.11c0,0.04-0.01,0.08-0.01,0.12C95.84,89.5,95.83,89.58,95.82,89.67z"/>
</svg>