<svg viewBox="0 0 128 128" xmlns="http://www.w3.org/2000/svg">
  <path d="M118.01,22.74C118.01,11.29,93.83,4,64,4S9.99,9.9,9.99,22.74c0,2.84,1.87,5.55,5.21,7.99l14.38,79.66 C30.7,118.02,45.29,124,64.05,124s33.08-5.98,34.51-13.61l14.49-79.86C116.23,28.15,118.01,25.51,118.01,22.74z M107.47,21.01 c0,0.9-0.29,1.78-0.85,2.62l-7.21-7.21l1.84-1.84C105.2,16.33,107.47,18.49,107.47,21.01z M93.93,38.55l-8.09,8.09l-5.99-5.99 c4.97-0.53,9.64-1.31,13.89-2.29L93.93,38.55z M34.19,38.34c4.24,0.98,8.91,1.77,13.88,2.3l-6,6l-8.09-8.09L34.19,38.34z M64.69,9.32l7.1,7.1l-8.09,8.09l-8.09-8.09l7.09-7.09c0.43,0,0.86-0.01,1.3-0.01C64.23,9.32,64.46,9.32,64.69,9.32z M93.7,16.42 l-8.09,8.09l-8.09-8.09l6.02-6.02c1.67,0.2,3.29,0.43,4.83,0.68L93.7,16.42z M44.9,93.27l8.09-8.09l6.23,6.23 c-5.16,0.27-9.96,0.98-14.15,2.03L44.9,93.27z M44.68,27.37l8.09-8.09l8.09,8.09l-6.65,6.65c-1.06-0.08-2.11-0.16-3.14-0.26 L44.68,27.37z M76.31,33.81c-1,0.09-2.02,0.17-3.05,0.24l-6.68-6.68l8.09-8.09l8.09,8.09L76.31,33.81z M67.79,34.31 c-1.25,0.03-2.51,0.05-3.79,0.05c-1.47,0-2.92-0.02-4.35-0.07l4.06-4.06L67.79,34.31z M55.85,82.32l8.09-8.09l8.09,8.09l-8.09,8.09 L55.85,82.32z M55.85,60.43l8.09-8.09l8.09,8.09l-8.09,8.09L55.85,60.43z M52.99,57.58l-8.09-8.09l8.09-8.09l8.09,8.09L52.99,57.58z M61.08,71.38l-8.09,8.09l-8.09-8.09l8.09-8.09L61.08,71.38z M82.82,93.43c-4.19-1.05-8.99-1.75-14.15-2.03l6.23-6.23l8.09,8.09 L82.82,93.43z M74.88,79.47l-8.09-8.09l8.09-8.09l8.09,8.09L74.88,79.47z M66.79,49.49l8.09-8.09l8.09,8.09l-8.09,8.09L66.79,49.49z M63.95,46.64l-5.25-5.25c1.74,0.06,3.51,0.09,5.3,0.09c1.75,0,3.49-0.03,5.2-0.09L63.95,46.64z M87.59,32.22 c-1.54,0.31-3.14,0.59-4.81,0.83l2.82-2.82L87.59,32.22z M74.66,13.56l-4.14-4.13c2.7,0.09,5.31,0.24,7.82,0.45L74.66,13.56z M52.75,13.56l-3.64-3.64c2.48-0.21,5.07-0.37,7.74-0.47L52.75,13.56z M49.91,16.42l-8.09,8.09l-8.09-8.09l5.21-5.21 c1.59-0.28,3.27-0.53,5.01-0.74L49.91,16.42z M44.55,32.95c-1.6-0.25-3.15-0.52-4.63-0.82l1.9-1.9L44.55,32.95z M38.96,27.36 l-3.67,3.67c-4.87-1.32-8.79-2.96-11.35-4.83l6.93-6.93L38.96,27.36z M30.49,13.18c0.35-0.11,0.71-0.22,1.07-0.32l-0.7,0.7 L30.49,13.18z M50.13,60.43l-8.09,8.09l-8.09-8.09l8.09-8.09L50.13,60.43z M50.13,82.32l-8.09,8.09l-8.09-8.09l8.09-8.09 L50.13,82.32z M39.19,93.27l-3.69,3.69c-1.52,0.82-2.81,1.71-3.83,2.66L29.38,86.9l1.72-1.72L39.19,93.27z M96.25,99.65 c-1.03-0.96-2.33-1.86-3.87-2.69l-3.69-3.69l8.09-8.09l1.8,1.8L96.25,99.65z M85.83,90.41l-8.09-8.09l8.09-8.09l8.09,8.09 L85.83,90.41z M77.74,60.43l8.09-8.09l8.09,8.09l-8.09,8.09L77.74,60.43z M92.24,31.16l-3.78-3.78l8.09-8.09l7.15,7.15 C101.05,28.27,97.11,29.87,92.24,31.16z M95.64,12.64c0.49,0.13,0.96,0.27,1.42,0.41l-0.51,0.51L95.64,12.64z M26.35,14.76 l1.66,1.66l-6.85,6.85c-0.41-0.73-0.63-1.49-0.63-2.26C20.53,18.58,22.66,16.48,26.35,14.76z M19.78,33.45 c1.74,0.86,3.67,1.67,5.79,2.42l2.69,2.69l-6.39,6.39L19.78,33.45z M31.1,41.4l8.09,8.09l-8.09,8.09l-8.09-8.09L31.1,41.4z M23.84,56.02l4.4,4.41l-3.06,3.06L23.84,56.02z M26.05,68.35l5.05-5.05l8.09,8.09l-8.09,8.08l-3.72-3.72L26.05,68.35z M100.67,75.57l-3.89,3.89l-8.09-8.09l8.09-8.09l5.19,5.19L100.67,75.57z M102.85,63.65l-3.22-3.22l4.67-4.67L102.85,63.65z M96.78,57.58l-8.09-8.09l8.09-8.09l8.09,8.09L96.78,57.58z M106.25,45.16l-6.61-6.61l2.63-2.63c2.26-0.79,4.32-1.65,6.15-2.57 L106.25,45.16z"/>
</svg>