<svg viewBox="0 0 128 128" xmlns="http://www.w3.org/2000/svg">
  <g>
    <path d="M64,4C30.86,4,4,30.86,4,64s26.86,60,60,60s60-26.86,60-60S97.14,4,64,4z M64,114c-27.61,0-50-22.39-50-50 c-0.04-11.53,3.96-22.71,11.3-31.6l14.22,14.22L34.8,48.4c-0.68,0.23-1.13,0.88-1.1,1.6v3.2c0,0.94,0.77,1.71,1.71,1.71 c0.2,0,0.4-0.04,0.59-0.11l4.9-1.8c0.89-0.33,1.87,0.13,2.19,1.01c0.07,0.19,0.1,0.39,0.11,0.59v45.1c0.03,0.93,0.77,1.67,1.7,1.7 H49c0.93-0.03,1.67-0.77,1.7-1.7V57.8l14.43,14.43C63.11,73.44,61.36,75.06,60,77c-1.71,2.51-2.61,5.47-2.6,8.5 c-0.19,4.56,1.68,8.97,5.1,12c3.3,3,7.9,4.5,13.4,4.5s10-1.5,13.4-4.5c0.2-0.17,0.37-0.37,0.55-0.55l5.75,5.75 C86.71,110.04,75.53,114.04,64,114z M66.1,58.4c-0.15-2.7,0.83-5.34,2.7-7.3c1.85-1.85,4.39-2.83,7-2.7 c2.64-0.04,5.19,0.97,7.1,2.8c1.92,1.89,2.94,4.51,2.8,7.2c0.13,2.67-0.85,5.27-2.7,7.2c-1.89,1.85-4.46,2.83-7.1,2.7 c-0.17,0.01-0.33,0-0.5,0l-9.29-9.29C66.1,58.8,66.09,58.6,66.1,58.4z M69.06,76.16l15.82,15.82c-0.3,0.37-0.62,0.71-0.98,1.02 c-1.9,2-4.6,2.9-8.1,2.9s-6.3-0.9-8.2-2.8c-1.99-2.09-3.04-4.91-2.9-7.8c-0.03-0.47-0.03-0.94,0-1.41 C64.92,80.67,66.61,77.89,69.06,76.16z M102.7,95.6l-8.33-8.33c0.04-0.58,0.06-1.17,0.03-1.77c0.04-3.05-0.91-6.03-2.7-8.5 c-1.83-2.52-4.32-4.5-7.2-5.7c2.51-1.17,4.65-3.01,6.2-5.3c1.53-2.27,2.34-4.96,2.3-7.7c0.17-4.42-1.54-8.71-4.7-11.8 c-3.2-2.9-7.3-4.3-12.4-4.3c-5.1,0-9.3,1.4-12.4,4.3c-1.8,1.68-3.07,3.71-3.84,6.06L45.47,38.37c0.08-0.06,0.16-0.1,0.23-0.17 c0.81-0.74,1.25-1.8,1.2-2.9v-7.2c-0.01-0.21-0.19-0.39-0.4-0.4c0,0-1.1,0-1.1,0.1c-0.21,0.01-0.39,0.19-0.4,0.4v7.1 c0.03,0.19,0.03,0.37,0.01,0.56c-0.06,0.54-0.33,1.01-0.71,1.34l-3.9-3.9v-5.1c-0.01-0.21-0.19-0.39-0.4-0.4h-1.2 c-0.21,0.01-0.39,0.19-0.4,0.4v3.1l-6-6C41.29,17.96,52.47,13.96,64,14c27.61,0,50,22.39,50,50 C114.04,75.53,110.04,86.71,102.7,95.6z"/>
    <path d="M87.5,34c0.4-0.22,0.74-0.52,1-0.9c0.41-0.59,0.62-1.29,0.6-2c0.04-0.99-0.36-1.94-1.1-2.6c-0.9-0.65-1.99-0.97-3.1-0.9 h-3.3c-0.01,0-0.03,0-0.04,0c-0.38,0.01-0.67,0.32-0.66,0.7v10.1c0,0.01,0,0.03,0,0.04c0.01,0.38,0.32,0.67,0.7,0.66h0.5 c0.01,0,0.03,0,0.04,0c0.38-0.01,0.67-0.32,0.66-0.7v-3c0-0.01,0-0.03,0-0.04c0.01-0.38,0.32-0.67,0.7-0.66h1.1 c0.3,0,0.5,0.1,0.6,0.5l1.9,3.7c0.17,0.23,0.42,0.37,0.7,0.4h1.7v-0.1L87.2,35C87.08,34.64,87.2,34.24,87.5,34z M86.4,32.5 c-0.46,0.34-1.03,0.52-1.6,0.5h-1.3c-0.01,0-0.03,0-0.04,0c-0.38-0.01-0.67-0.32-0.66-0.7v-2.4c0-0.01,0-0.03,0-0.04 c0.01-0.38,0.32-0.67,0.7-0.66h1.4c0.57-0.02,1.14,0.16,1.6,0.5c0.34,0.39,0.52,0.89,0.5,1.4C87.04,31.64,86.81,32.16,86.4,32.5z"/>
    <path d="M78,27.7h-6.6c-0.21,0.01-0.39,0.19-0.4,0.4v10.6c0.01,0.21,0.19,0.39,0.4,0.4H78c0.21-0.01,0.39-0.19,0.4-0.4v-0.8 c-0.01-0.21-0.19-0.39-0.4-0.4h-4.6c-0.21-0.01-0.39-0.19-0.4-0.4v-2.7c0.01-0.21,0.19-0.39,0.4-0.4h3.9c0.02,0,0.04,0,0.06,0 c0.21-0.02,0.36-0.2,0.34-0.4v-0.8c-0.01-0.21-0.19-0.39-0.4-0.4h-3.9c-0.21-0.01-0.39-0.19-0.4-0.4v-2.3 c0.01-0.21,0.19-0.39,0.4-0.4H78c0.21-0.01,0.39-0.19,0.4-0.4v-0.8C78.39,27.89,78.21,27.71,78,27.7z"/>
    <path d="M66.5,28.4c-0.82-0.48-1.75-0.73-2.7-0.7h-2.9c-0.21,0.01-0.39,0.19-0.4,0.4v10.6c0.01,0.21,0.19,0.39,0.4,0.4h2.9 c0.94-0.02,1.87-0.26,2.7-0.7c0.77-0.45,1.39-1.11,1.8-1.9c0.42-0.87,0.63-1.83,0.6-2.8v-0.6c0.01-0.97-0.19-1.92-0.6-2.8 C67.92,29.49,67.29,28.82,66.5,28.4z M66.2,36.5c-0.61,0.68-1.49,1.05-2.4,1h-0.9c-0.21-0.01-0.39-0.19-0.4-0.4v-7.4 c0.01-0.21,0.19-0.39,0.4-0.4h1c0.88-0.03,1.72,0.34,2.3,1c0.57,0.82,0.85,1.8,0.8,2.8v0.6C67.1,34.7,66.82,35.7,66.2,36.5z"/>
    <path d="M57.8,28.1c-0.01-0.21-0.19-0.39-0.4-0.4h-1.1c-0.21,0.01-0.39,0.19-0.4,0.4v6.3c0,0.4-0.6,0.5-0.8,0.2l-4.2-6.7 c0-0.1-0.2-0.2-0.3-0.2h-1.3c-0.21,0.01-0.39,0.19-0.4,0.4v10.5c0.01,0.21,0.19,0.39,0.4,0.4h1.2c0.21-0.01,0.39-0.19,0.4-0.4v-6.2 c0-0.4,0.6-0.5,0.8-0.2l4.2,6.7c0,0.1,0.2,0.2,0.3,0.2h1.3c0.05,0,0.09-0.01,0.13-0.03c0.18-0.09,0.25-0.3,0.17-0.47V28.1z"/>
  </g>
</svg>