<svg viewBox="0 0 128 128" xmlns="http://www.w3.org/2000/svg">
  <path d="M123.16,52.83c-1.8,0-1.8,1.9-1.8,1.9v4.07h-0.83c-0.95-2.98-3.59-4.44-5.07-5.04c-0.2-0.9-0.47-1.58-0.8-2.08 c-0.89-1.34-2.13-1.68-2.13-1.68s2.39-1.45,2.46-3.81c0.11-3.36-0.22-12.88-0.22-14.56s-1.12-3.25-3.47-3.36 c-1.79-0.09-8.4-0.06-11.2-0.11c-3.16-0.06-3.26,2.08-3.34,5.23h-2.4c-1.52-8.85-8.7-9.93-13.75-10.1c-2.57-0.09-43.56,0-48.95,0.09 c-6.33,0.1-11.47,5.39-11.55,13.27c-0.06,6.14,4.08,10.29,7.81,12.07c0,0.21,0,0.45,0,0.74c-6.85,0.09-11.56,0.16-12.26,0.21 c-2.34,0.18-2.94,2.83-3.09,5.06c-1.15-0.02-2.73-0.03-3.15,0.02c-1.63,0.22-1.89,2-2.5,2.07c-0.49,0.05-3.31-0.24-4.19,0.33 c-0.93,0.6-1.03,6.53-0.11,7.13c0.93,0.6,3.65,0.27,4.24,0.54c0.59,0.27,1.14,1.85,2.83,2.01c0.66,0.06,1.78,0.06,2.91,0.03 c0.01,0.66,0.03,1.19,0.05,1.5c0.11,1.68,0.88,4.49,5.69,4.49c1.65,0,5.38,0.01,9.58,0.03c0,0.58,0,0.94,0,0.99 c0,0.47,0.07,1.62,1.21,1.62c1.15,0,1.42-0.81,1.42-1.62c0-0.08,0-0.43,0-0.98c0.68,0,1.35,0.01,2.03,0.01c0,0.35,0,0.59,0,0.66 c0,0.88,0.2,1.89,1.28,1.89c1.08,0,1.42-0.94,1.42-1.96c0-0.07,0-0.28,0-0.58c5.67,0.03,10.5,0.05,10.5,0.05S45,76.32,48.24,78.9 c2.53,2.01,4.58,2.18,8.16,2.21c0.02,2.36,0.49,6.32,3.11,8.9c2.54,2.49,4.77,4.25,14.84,4.39c4.17,0.06,7.18,0.09,9.29,0.11 c2.25,6.71,4.58,13.57,4.92,14.29c0.67,1.46,0.9,3.7,2.24,3.81c1.34,0.11,15.45,0.11,17.13,0s2.8-1.79,1.57-4.59 c-1.23-2.8-10.3-26.65-10.3-26.65s4.67-0.69,6.61-3.7c1.48-2.3,1.57-5.38,1.57-5.38s4.48,0.56,6.83-2.02 c0.58-0.64,0.97-1.3,1.23-2.01c1.7-0.63,4.64-2.2,5.29-5.71h0.62v3.54c0,0-0.16,2.01,1.85,2.01c1.69,0,1.74-1.95,1.74-1.95V54.74 C124.96,54.74,125.01,52.83,123.16,52.83z M78.64,81.12c-0.77,0.23-1.65,0.86-1.71,2.59h-4.01c-0.08-1.15-0.32-2.05-0.9-2.55 C75.02,81.15,77.58,81.13,78.64,81.12z M36.98,26.96c2.4-0.08,33.89,0,37.4,0.09c3.25,0.08,4.71,1.54,4.96,2.91 s-1.29,3.33-3.77,3.42c-2.48,0.09-29.36,0-34.75,0.09c-5.31,0.09-7.69,0-7.96-3.25C32.69,28.17,34.57,27.06,36.98,26.96z M61.93,83.67c0.01-0.8,0.01-1.69,0.01-2.5c2.28,0.02,5.07,0.02,7.75,0.01c-0.92,0.91-0.86,3.11-0.86,4.52 c0,1.62,0.23,3.37,1.5,3.77c-1.23-0.09-2.35-0.21-3.27-0.39C64.61,88.6,61.88,86.6,61.93,83.67z M71.36,89.54 c1.04-0.19,1.41-1.11,1.53-2.59h4.56c0.37,1.02,0.88,1.92,1.41,2.64C76.41,89.65,73.73,89.65,71.36,89.54z M87.73,48.86 c2.08-1.23,5.52-4.07,6.53-9.73h2.4c-0.03,2.82-0.03,5.67-0.03,6.28c0,2.01,1.12,3.36,1.12,3.36S93.84,48.8,87.73,48.86z"/>
</svg>