<svg viewBox="0 0 128 128" xmlns="http://www.w3.org/2000/svg">
  <path d="M119.4,79.1c-1.2-0.8-5.5-4.9-6.8-6.1c-1.3-1.2-9.7-10.4-10.9-10.6c-1.2-0.2-3.6,0.9-5.8,1.8c-2.2,0.9-10.3,3.7-10.3,3.7 s12.8-12.6,13.7-12.6s5.5,3.5,7,4.4c1.5,0.9,11,7.3,12.7,7.4c1.6,0.2,7.3,0.8,7.3-1s-4-2.5-5.7-3c-1.6-0.4-7.8-5.8-10.3-7.7 c-3.4-2.7-10.9-8.6-12.7-8.6c-1.8,0-3.7,2.2-5.1,3.5c-1.3,1.3-11.5,11.5-13.2,13.4c-0.5,0.6-1.1,0.8-1.6,0.8 c2.9-2.7,14.3-13.9,14.1-27.9c-0.2-16.1-12.2-23.4-21.2-23.9C60.3,12.2,45,19.5,44.3,36.7c-0.4,10.3,2.1,17.7,4.2,22 c-4.5-6.1-11.9-16.2-13.3-18c-2.4-3.3-4.6-3.3-6.2-2.1c-1.6,1.2-1.2,3.3-0.7,4.3c0.4,1,1.8,3.7,3.4,6c1.6,2.2,9.5,13.2,9.5,13.2 s-15-14.8-17.6-12.9c-1.3,1-3.9,3.7-6.5,6.3c-2.1,2.1-6.1,6.9-9.2,9.6s-7.3,5.5-7,6.7C1.1,73,3,73.6,5.1,72.7 c1.8-0.8,7.6-4.5,10-6.5s7.8-7.2,9-7.7c1.2-0.4,2.9,2.3,5.2,4.1c2.2,1.8,7.6,6.2,7.6,6.2s-9.5-4.5-11-3.9c-1.5,0.6-6.1,9.8-7.7,12.7 c-1.6,2.8-6.8,10.7-8.2,12.5c-1.3,1.8-3.7,3.1-2.8,4.9c0.9,1.8,3.1,0.8,4,0.2c0.9-0.6,7.7-8.2,9.7-10.9c1.9-2.7,6.7-10.4,7.5-10.6 c0.3-0.1,2.8,0.8,4.2,1.3c1.9,0.7,4.9,1.9,4.9,1.9s-4.2,1.6-5.4,3.3c-0.8,1.1-2.8,17.7-3.1,20.5c-0.3,2.8-2.2,7.3-2.2,7.3 c-0.8,2.8-3.1,6.2-1.9,7.6c1.7,1.9,3.1-0.3,3.7-1s6-10.7,6.8-13.2c0.8-2.5,3.5-15,4.1-16.1c0.4-0.7,2-1,3.2-1.1 c2,4.8,6.3,9.5,14.5,10.8c7,1.1,12.4-0.3,16.2-3c0,2.1,0.3,5,1,7.1c0.7,2,6,17,6.9,19.1c1.8,4.2,3.4,5.7,4.8,5.2 c1.3-0.4,1.3-2.2,0.6-6c-0.7-3.7-4.8-22-5.1-24.3c-0.3-2.2,0.6-9.2,0.6-9.2s8.8-1.5,9.7-0.9c0.9,0.6,2.9,4.7,4.5,7.7 c4.9,9.4,8.5,13.6,9.6,15.1c1,1.5,6.8,5.9,8.1,4.1c1.3-1.8-3.1-5.7-4.3-7.2c-1.2-1.5-4.9-10.5-6.1-13.3c-0.9-2.1-5.7-12.6-7.3-13.5 c-1.6-0.9-11.8-0.2-11.8-0.2s14.3-5.6,15.6-5.3c1.3,0.3,5.3,4.5,6.1,5.4c2.9,3.2,7.6,6.5,9.4,7.4c1.5,0.8,10.7,3.7,11.6,1.7 C128,83,120.6,79.8,119.4,79.1z M64.8,47.6l0.5-4c0.1-0.8,0.8-1.3,1.5-1.2c0.8,0.1,1.3,0.8,1.2,1.5l-0.5,4c-0.1,0.7-0.7,1.2-1.4,1.2 c-0.1,0-0.1,0-0.2,0C65.2,49,64.7,48.3,64.8,47.6z M54.5,42.5c0.8-0.1,1.5,0.4,1.6,1.1l0.7,4.1c0.1,0.8-0.4,1.5-1.1,1.6 c-0.1,0-0.2,0-0.2,0c-0.7,0-1.2-0.5-1.4-1.1l-0.7-4.1C53.2,43.3,53.7,42.6,54.5,42.5z M49.2,72.4c-0.4,1.8-1.8,3.1-3.1,2.8 s-2.1-2-1.8-3.8c0.4-1.8,1.8-3.1,3.1-2.8S49.6,70.6,49.2,72.4z M57.2,76c-0.3,2.5-2.1,4.3-4.2,4c-2-0.2-3.5-2.4-3.2-4.8 c0.3-2.5,2.1-4.3,4.2-4C56,71.4,57.5,73.6,57.2,76z M61.3,35L61.3,35c-0.8,0-1.4-0.6-1.4-1.3l-0.1-3.9c0-0.8,0.6-1.4,1.3-1.4 c0.8,0,1.4,0.6,1.4,1.3l0.1,3.9C62.7,34.3,62.1,35,61.3,35z M66.3,81.7c-2.1,0-3.7-2-3.7-4.5c0-2.5,1.7-4.5,3.7-4.5s3.7,2,3.7,4.5 C70,79.7,68.4,81.7,66.3,81.7z M73.1,34.9l1.1-4.3c0.2-0.7,0.9-1.2,1.7-1s1.2,0.9,1,1.7l-1.1,4.3c-0.2,0.6-0.7,1-1.3,1 c-0.1,0-0.2,0-0.3,0C73.4,36.4,73,35.6,73.1,34.9z M74,78.7c-1.4,0.1-2.6-1.3-2.8-3.1c-0.2-1.9,0.8-3.5,2.1-3.6s2.6,1.3,2.8,3.1 C76.3,76.9,75.4,78.5,74,78.7z M76.5,52c-0.2,0-0.3-0.1-0.5-0.1c-0.7-0.3-1-1.2-0.6-1.8l2-4.1c0.3-0.7,1.2-1,1.8-0.6s1,1.1,0.6,1.8 l-2,4.1C77.6,51.8,77,52,76.5,52z"/>
</svg>