<svg viewBox="0 0 128 128" xmlns="http://www.w3.org/2000/svg">
  <g>
    <path d="M66,59.35V31c0-1.1-0.9-2-2-2s-2,0.9-2,2v22.94l-5.78-9.86c-0.84-1.43-2.68-1.91-4.11-1.07s-1.91,2.68-1.07,4.11 l8.51,14.51c-0.38,0.71-0.61,1.51-0.61,2.37c0,2.79,2.27,5.06,5.06,5.06s5.06-2.27,5.06-5.06C69.06,61.92,67.8,60.13,66,59.35z"/>
    <path d="M64,4C30.86,4,4,30.86,4,64s26.86,60,60,60s60-26.86,60-60S97.14,4,64,4z M64,112.14c-26.59,0-48.14-21.55-48.14-48.14 S37.41,15.86,64,15.86S112.14,37.41,112.14,64S90.59,112.14,64,112.14z"/>
    <rect height="5" width="5" x="61.5" y="100"/>
    <rect height="5" width="5" x="61.5" y="23"/>
    <rect height="5" width="5" x="23" y="61.5"/>
    <rect height="5" width="5" x="100" y="61.5"/>
    <rect height="3" transform="matrix(0.5001 -0.866 0.866 0.5001 -61.9273 87.4195)" width="5" x="42.25" y="95.84"/>
    <rect height="3" transform="matrix(0.5001 -0.866 0.866 0.5001 15.073 87.4194)" width="5" x="80.75" y="29.16"/>
    <rect height="5" transform="matrix(0.866 -0.5 0.5 0.866 -37.5192 54.6673)" width="3" x="81.75" y="94.84"/>
    <rect height="5" transform="matrix(0.866 -0.5 0.5 0.866 -9.3324 26.4849)" width="3" x="43.25" y="28.16"/>
    <rect height="5" transform="matrix(0.5 -0.866 0.866 0.5 -23.4245 125.9274)" width="3" x="95.84" y="80.75"/>
    <rect height="5" transform="matrix(0.5 -0.866 0.866 0.5 -23.4273 48.9201)" width="3" x="29.16" y="42.25"/>
    <rect height="3" transform="matrix(0.866 -0.5001 0.5001 0.866 -37.522 26.4857)" width="5" x="28.16" y="81.75"/>
    <rect height="3" transform="matrix(0.866 -0.5001 0.5001 0.866 -9.3326 54.6752)" width="5" x="94.84" y="43.25"/>
  </g>
</svg>