<svg viewBox="0 0 128 128" xmlns="http://www.w3.org/2000/svg">
  <g>
    <path d="M21.1,61.8c-0.2,0-0.3,0-0.5,0.1c-0.2,0.1-0.5,0.1-0.7,0.1c-1.3,0-2.4-0.8-2.9-2.1l-0.1-0.2 c-0.2-0.7-0.6-1.3-1-1.9l-0.1-0.2l-0.1-0.2l-0.1-0.1c-1.2-2.2-3.2-2.5-4.2-2.5c-3.4,0-5.2,2.6-5.2,5.1v4h19.1 c-0.8-0.2-1.4-0.6-2-1.1C22.8,62.4,22,61.8,21.1,61.8z"/>
    <path d="M114.5,58.1c-1.4,0-3.4,0.4-5.2,2.3l-0.1,0.1c-0.6,0.6-1.3,0.9-2.2,0.9c-0.8,0-1.7-0.4-2.2-1 c-0.5-0.5-1.2-1.1-2.1-1.1c-0.7,0-1.3,0.3-1.9,0.9c-0.6,0.6-1.3,0.9-2.1,0.9c-0.8,0-1.6-0.3-2.1-0.9c-2.3-2.3-5.3-3.6-8.5-3.6 c-2.3,0-4.5,0.7-6.4,1.9C81,58.8,80.4,59,79.8,59c-0.7,0-1.4-0.2-1.9-0.7c-0.5-0.5-1.1-0.7-1.7-0.7c-0.6,0-1.2,0.2-1.8,0.7 c-0.6,0.5-1.2,0.7-2,0.7c-0.7,0-1.4-0.3-2-0.8c-3.2-2.8-7.2-4.3-11.2-4.3c-5.5,0-10.5,2.6-13.9,7.2c-0.8,1.1-2,1.7-3.3,1.7 c-0.7,0-1.3-0.2-1.9-0.5c-1.6-0.9-3.3-1.3-5.1-1.3c-2.3,0-4.6,0.8-6.5,2.2c-0.5,0.4-1.1,0.6-1.6,0.8h94.9 C121.1,60.9,118.5,58.1,114.5,58.1z"/>
    <path d="M81.4,22.9c-3.2-2.5-2.7-6-4.6-5.6c-1,0.2-1.6-0.2-1.8-0.3c0,0,0-0.1-0.1-0.1c-4.2-8.8-4.8-8.3-5.3-8.2 c-0.1,0-0.2,0.1-0.4,0.2c-0.3,1.8-1.2,8.5,0.6,8.2c0,0,0.7-0.2,0.9,1c0.2,1.2,0.2,5.9,0.8,6.1c0.7,0.1,1.4-0.2,0.9-3.1 C72,18,74.2,23.1,75,23.1c0.7,0,0.9-0.1,1.7,0.9c0.8,1-0.2-2.1-1.8-4.3c-1.6-2.2,1.2-0.3,1.5,0.1c0.3,0.4,3.2,4.1,3.7,5.1 c1.7,3.3,6.6,4.5,6,3.8C84.8,27.3,84.6,25.4,81.4,22.9z"/>
    <path d="M66.5,14.9c0.2-1.2,0.3-2.2,0.5-3.1h-0.1c-0.1-0.1-1.2-0.9-1.8-1.2c0,0,0,0-0.1,0c-0.3,1.6-0.8,5.2-0.8,6 c0,1,0,2.2,0.2,2.3c0.3,0.1,0.5-1.1,0.9-1.8c0.4-0.7,0.3,0.5,0.4,0.9c0.3,2.5,0.8,3.9,1.9,4.9C67.9,23.1,66.1,17.3,66.5,14.9z"/>
    <path d="M56.7,11.5l-8.6,11.2c0.4,0.6,0.5,1,0.8,0.8l4.5-3.8c0.1-0.1,0.2,0,0.2,0.2l-1,4.1l4-6.4 c0.2-0.3,0.2-0.7,0.2-1l0.4-4.9C57,11.5,56.8,11.3,56.7,11.5z"/>
    <path d="M124,71.1v-0.6C124,70.7,124,70.9,124,71.1l-0.1,0V72C123.9,71.7,124,71.4,124,71.1L124,71.1z"/>
    <path d="M69.7,111.7c0.6,0,1.1,0.5,5.3-7.7c0,0,0-0.1,0.1-0.1c0.2-0.1,0.7-0.5,1.8-0.3c1.9,0.3,1.4-2.9,4.6-5.2 c3.2-2.3,3.4-4,4.6-5.4c0.6-0.6-4.2,0.4-6,3.5c-0.5,0.9-3.4,4.3-3.7,4.7c-0.3,0.4-3.1,2.1-1.5,0.1c1.6-2,2.6-4.9,1.8-4 c-0.9,1-1,0.8-1.7,0.8c-0.7,0-2.9,4.8-2.5,2.1c0.5-2.7-0.3-3-0.9-2.9s-0.7,4.5-0.8,5.6c-0.2,1.1-0.9,0.9-0.9,0.9 c-1.8-0.2-0.9,6-0.6,7.6C69.4,111.7,69.5,111.7,69.7,111.7z"/>
    <path d="M65.1,109.9c0.6-0.3,1.7-1.1,1.8-1.2H67c-0.1-0.8-0.3-1.8-0.5-2.8c-0.4-2.2,1.5-7.7,1.2-7.4 c-1.1,1-1.6,2.3-1.9,4.6c-0.1,0.4,0,1.5-0.4,0.9c-0.4-0.6-0.6-1.7-0.9-1.7c-0.2,0-0.2,1.1-0.2,2.1 C64.2,105.1,64.8,108.5,65.1,109.9C65.1,109.9,65.1,109.9,65.1,109.9z"/>
    <path d="M57,108.8l-0.4-4.5c0.1-0.3,0-0.6-0.2-0.9l-4-5.9l1,3.8c0,0.2-0.1,0.3-0.2,0.2l-4.5-3.6 c-0.2-0.1-0.4,0.2-0.8,0.8l8.6,10.4C56.8,109.2,57,109.1,57,108.8z"/>
    <path d="M123.9,64C123.9,64,123.9,64,123.9,64l0-9.9c0-2.9-1.6-5.6-4.1-7c-1.6-0.9-3.2-1.8-4.7-2.8c0,0,0,0,0,0 c-0.7-0.4-1.4-0.8-2.1-1.3h0c-24.1-15-36.7-32.9-40.1-37.7C72.2,4.5,71.3,4,70.2,4l-3.8,0.6c-0.8,0.1-1.6,0.2-2.5,0.2 s-1.6-0.1-2.5-0.2L57.7,4c-1.1,0-2,0.5-2.7,1.4c-2.4,3.5-9.7,14.4-22.6,25.1c-0.8,0.7-1.6,1.3-2.5,2l0,0 c-6.1,4.9-13.3,9.9-21.8,14.6c-2.5,1.4-4.1,4.1-4.1,7V124h119.9V72c-1.2,7-10.6,6.8-16.1,1.1c0,0-0.1-0.1-0.1-0.1 c-0.4-0.4-1.1-0.4-1.5,0c-1,1.1-2.2,1.7-3.6,1.7c-1.2,0-2.4-0.5-3.3-1.5c-0.4-0.4-1-0.4-1.4,0c-2.6,2.6-6.1,4.2-10,4.2 c-2.8,0-5.3-0.8-7.5-2.2C80,75,79.5,75,79.2,75.3c-0.9,0.7-1.9,1.2-3,1.2c-1.1,0-2.2-0.5-3.1-1.2c-0.4-0.3-1-0.3-1.3,0 c-3.4,3-7.8,4.8-12.6,4.8c-6.3,0-12-3.1-15.5-8c-0.6-0.8-1.7-1.1-2.5-0.6c-1.8,1-3.9,1.6-6.1,1.6c-2.4,0-4.7-0.7-6.6-1.9 c-0.4-0.2-0.7-0.5-1.1-0.8c-0.8-0.6-2-0.6-2.7,0.2c-0.2,0.2-0.4,0.4-0.7,0.6c-0.9,0.7-1.9,1.1-2.9,1.1c-0.3,0-0.7,0-1-0.1 c-0.5-0.1-1.1,0.1-1.2,0.7c0,0.1,0,0.1-0.1,0.2c-0.3,1-0.8,1.8-1.4,2.5c0,0,0,0.1-0.1,0.1C13.8,81.9,4.1,79.3,4.1,72v-0.9h0V60 c0-4.4,3.6-7.1,7.2-7.1c2.3,0,4.6,1.1,6,3.6c0,0.1,0.1,0.1,0.1,0.2c0.6,0.7,1.1,1.5,1.4,2.5c0,0.1,0.1,0.1,0.1,0.2 c0.2,0.4,0.5,0.7,1,0.7c0.1,0,0.2,0,0.3,0c0.3-0.1,0.6-0.1,1-0.1c1.3,0,2.6,0.6,3.6,1.7c0.4,0.4,0.9,0.6,1.4,0.6 c0.5,0,0.9-0.2,1.3-0.5c2.2-1.7,4.8-2.6,7.7-2.6c2.2,0,4.3,0.6,6.1,1.6c0.3,0.2,0.6,0.2,0.9,0.2c0.6,0,1.2-0.3,1.6-0.9 c3.5-4.8,9.2-8,15.5-8c4.8,0,9.2,1.8,12.5,4.8c0.2,0.2,0.4,0.3,0.7,0.3c0.2,0,0.5-0.1,0.7-0.2c0.9-0.8,2-1.2,3.1-1.2 c1.1,0,2.1,0.4,3,1.2c0.2,0.2,0.4,0.2,0.6,0.2c0.2,0,0.4-0.1,0.6-0.2c2.2-1.4,4.8-2.2,7.5-2.2c3.9,0,7.4,1.6,10,4.2 c0.2,0.2,0.4,0.3,0.7,0.3c0.3,0,0.5-0.1,0.7-0.3c1-0.9,2.1-1.5,3.3-1.5c1.4,0,2.6,0.6,3.6,1.7c0.2,0.2,0.5,0.3,0.8,0.3 c0.2,0,0.5-0.1,0.7-0.3c0,0,0.1-0.1,0.1-0.1c1.9-2,4.3-2.9,6.7-2.9C118.9,56,123.1,59.2,123.9,64c0,0.1,0,0.3,0,0.4 c0,0,0,0.1,0,0.1c0,0.3,0.1,0.7,0.1,1V64H123.9z M39,87.7c0,0,7.6,8.1,8.9,5.5s1.7-1.8,2.8-10.6c0,0,1.1-2.7,1.9,1.7 c0.8,4.4,1.1,8.9,3.8,7.9s0.7-2.4,3.1-4.9c2.4-2.4,3.9,8,7.6,7.5c3.7-0.4,7.9-10.6,19.3-13.1c0,0,2.5-0.3-1.8,3.2 c-4.2,3.5-5.6,9.8-3.2,9.3s8-7.1,9.3-6.8c1.3,0.2-2.1,2.7-0.1,3.1c1.9,0.4,13.2-10.9,22.2-10.8c-24.1,13.9-36.7,30.6-40.1,35 c-0.6,0.8-1.6,1.3-2.7,1.3l-3.8-0.5c-1.6-0.2-3.3-0.2-4.9,0l-3.8,0.6c-1.1,0-2-0.5-2.7-1.3c-2.4-3.2-9.7-13.4-22.6-23.3 c-0.1-0.1-0.2-0.1-0.3-0.2c0-1-0.3-2.2-1.5-3.7C30.6,87.5,42.1,95.9,39,87.7z M90.7,31.4c-2.1,0.4,1.4,3.1,0.1,3.3 c-1.3,0.2-6.9-6.9-9.3-7.4c-2.4-0.4-1.1,6.3,3.2,10.1s1.8,3.4,1.8,3.4c-11.5-2.7-15.7-13.7-19.3-14.1s-5.2,10.7-7.6,8.1 c-2.4-2.6-0.5-4.2-3.1-5.2s-2.9,3.7-3.8,8.5S50.7,40,50.7,40c-1.1-9.4-1.6-8.6-2.8-11.4S39,34.5,39,34.5c1.5-4.3-0.4-4.4-2.8-3.4 C47.6,21.3,54.4,11.5,57,7.7l0.4-0.6c0,0,0.1-0.1,0.1-0.1L61,7.6c1,0.1,2,0.2,2.9,0.2s2-0.1,2.9-0.2L70.3,7c0,0,0.1,0,0.1,0.1 C79.5,20,89.8,29.9,99.1,37.1C95,34.1,91.7,31.2,90.7,31.4z"/>
    <path d="M26.1,64.1c0.3,0,0.6,0,0.9-0.1h-1.8C25.5,64.1,25.8,64.1,26.1,64.1z"/>
  </g>
</svg>