<svg viewBox="0 0 128 128" xmlns="http://www.w3.org/2000/svg">
  <g>
    <path d="M117.54,97.79c-6.77-6.65-10.99-8.89-12.71-18.53c-1.72-9.63-0.35-29.94-7.92-43.25C92.62,28.46,86.1,23.66,78.82,21.1 c0.14-0.75,0.22-1.52,0.22-2.3c0-7.09-5.77-12.86-12.86-12.86c-7.09,0-12.86,5.77-12.86,12.86c0,0.37,0.02,0.73,0.06,1.09 c-8.94,2.06-17.18,7.15-22.29,16.13c-7.58,13.3-6.2,33.61-7.92,43.25c-1.72,9.64-5.94,11.88-12.71,18.53 c-2.92,2.87-6.45,7.44-6.46,10.37c-0.01,2.95,1.49,4.01,5.06,5.51c10.1,4.25,23.6,8.37,54.94,8.37s44.84-4.12,54.94-8.37 c3.57-1.5,5.07-2.57,5.06-5.51S120.46,100.66,117.54,97.79z M60.8,18.8c0-2.96,2.41-5.38,5.38-5.38c2.97,0,5.38,2.41,5.38,5.38 c0,0.17-0.03,0.33-0.05,0.5c-2.19-0.33-4.4-0.5-6.61-0.5c-0.3,0-0.6,0.01-0.9,0.02c-0.3,0-0.6-0.02-0.9-0.02 c-0.76,0-1.53,0.02-2.29,0.06C60.81,18.84,60.8,18.82,60.8,18.8z M64,118.1c-27.45,0-49.7-5.29-49.7-9.72s22.25-8.02,49.7-8.02 s49.7,3.59,49.7,8.02S91.45,118.1,64,118.1z"/>
    <path d="M70.01,103.37c-4.44-1.53-10-1.25-13.24,0.49c-3.4,1.82-1.04,11.91,7.23,11.91s9.1-7.64,9.09-8.95 C73.08,105.1,72.15,104.11,70.01,103.37z"/>
  </g>
</svg>