<svg viewBox="0 0 128 128" xmlns="http://www.w3.org/2000/svg">
  <g>
    <path d="M122.66,4H5.34C4.6,4,4,4.6,4,5.34v117.32C4,123.4,4.6,124,5.34,124h117.32c0.74,0,1.34-0.6,1.34-1.34V5.34 C124,4.6,123.4,4,122.66,4z M106.73,106.73H21.26V21.26h85.47V106.73z"/>
    <path d="M48.15,55.07c0.27,0.18,0.57,0.34,0.86,0.49c0.41,0.22,0.81,0.43,1.11,0.71c0.21,0.18,0.41,0.42,0.62,0.68 c0.21,0.26,0.43,0.51,0.66,0.73c0.96,0.93,2.3,1.52,4.09,1.8c0.75,0.12,1.52,0.18,2.29,0.18c1.24,0,2.49-0.15,3.69-0.46 c0.47-0.12,0.94-0.26,1.41-0.41c1.15-0.35,2.24-0.68,3.29-0.63c0.54,0.03,1.1,0.16,1.69,0.3c0.31,0.07,0.62,0.15,0.93,0.21 c2.04,0.4,4.1,0.25,6.17,0.11l11.85-0.87l4.65,0.3c0.48,0.04,0.93-0.29,1.04-0.76c0.12-0.47-0.13-0.96-0.58-1.15 c-2.77-1.19-5.46-2.6-8-4.18c-0.51-0.32-1.04-0.66-1.46-1.08c-0.75-0.75-1.2-1.81-1.67-2.93c-0.16-0.38-0.32-0.76-0.49-1.13 c-1.87-4.01-5.39-6.8-9.18-7.28l-0.45-0.05c-0.46-0.05-0.9-0.09-1.24-0.23c-0.61-0.25-1.11-0.84-1.64-1.46 c-0.15-0.18-0.3-0.35-0.45-0.52c-2.53-2.84-6.56-4.29-10.26-3.68c-3.82,0.63-7.12,3.35-8.41,6.92c-0.11,0.31-0.21,0.62-0.31,0.94 c-0.21,0.68-0.41,1.32-0.76,1.83c-0.16,0.24-0.38,0.46-0.61,0.71c-0.15,0.16-0.29,0.31-0.44,0.48c-1.24,1.46-1.77,3.49-1.46,5.57 C45.43,52.26,46.54,54.04,48.15,55.07z M49.26,44.59c0.53-0.75,0.79-1.58,1.04-2.38c0.09-0.28,0.17-0.57,0.28-0.85 c1.03-2.87,3.78-5.13,6.85-5.63c0.46-0.08,0.92-0.11,1.39-0.11c2.62,0,5.28,1.16,7.05,3.15c0.14,0.16,0.28,0.32,0.42,0.48 c0.63,0.75,1.35,1.6,2.42,2.03c0.6,0.24,1.23,0.3,1.78,0.36l0.4,0.04c3.12,0.4,6.04,2.75,7.62,6.14c0.16,0.35,0.31,0.71,0.46,1.06 c0.53,1.25,1.07,2.54,2.1,3.57c0.57,0.57,1.24,1,1.82,1.36c1.19,0.74,2.42,1.45,3.68,2.12L74.74,56.8 c-1.86,0.13-3.78,0.27-5.56-0.08c-0.29-0.06-0.57-0.12-0.85-0.19c-0.65-0.16-1.32-0.32-2.05-0.36c-1.43-0.08-2.72,0.32-3.98,0.71 c-0.44,0.13-0.88,0.27-1.31,0.38c-1.68,0.43-3.47,0.51-5.18,0.24c-1.37-0.21-2.35-0.62-3.01-1.26c-0.18-0.18-0.35-0.38-0.51-0.58 c-0.24-0.29-0.52-0.62-0.84-0.9c-0.47-0.42-0.98-0.69-1.48-0.96c-0.24-0.13-0.49-0.26-0.72-0.41c-1.13-0.72-1.91-2-2.13-3.5 c-0.23-1.5,0.14-2.95,1-3.97c0.12-0.14,0.24-0.27,0.37-0.4C48.74,45.23,49.01,44.94,49.26,44.59z"/>
    <path d="M26,26v76h76V26H26z M99,99H29V73.08c0.92,0.14,1.84,0.32,2.75,0.52c0.26,0.81,0.67,1.55,1.29,2.17 c0.28,0.33,0.53,0.57,0.7,0.71c0.25,0.16,0.5,0.28,0.74,0.38c-0.01,0.23-0.02,0.46-0.05,0.69c-0.22,1.13-0.42,2.28-0.86,3.38 c-0.63,1.58,3.87,2.48,3.49,1.25c-0.56-1.56-0.75-3.33-0.61-5.07c0.86-0.17,1.58-0.74,2.15-1.52c0.84,0.3,1.69,0.62,2.53,0.95 c0.8,2.08,3.28,3.08,5.53,2.49c0.1-0.02,0.2-0.04,0.3-0.06c0.66,0.28,1.31,0.56,1.97,0.85c13.16,5.73,28.02,12.2,50.07,7.56V99z M99,85.34c-14.64,3.15-26.08,1.27-35.96-2.04c0-0.18,0-0.36-0.02-0.54c-0.09-0.96-0.39-1.88-0.87-2.71 c1.82-0.19,3.72-0.43,5.67-0.75c4.27-0.7,8.02-2.05,12-3.47c5.61-2.01,11.41-4.08,19.18-4.46V85.34z M99,63.21 c-1.56,0.78-2.91,2-3.8,3.51c-0.18,0.31-0.34,0.66-0.66,0.85c-1.03,0.38-2.21,0.46-3.01,1.36c-0.34-2.12-2.91-3.3-4.88-2.64 c-1.67,0.42-2.5,2.18-2.65,3.78c-1.76-0.52-3.7,0.83-3.82,2.66c-0.02,0.17-0.02,0.36-0.11,0.5c-0.44,0.45-1.33,0.4-1.87,0.94 c-0.07,0.06-0.14,0.12-0.2,0.19c-3.47,1.23-6.82,2.36-10.5,2.96c-2.07,0.34-4.07,0.59-5.99,0.78c0.04-0.29,0.1-0.59,0.12-0.88 c0.08-1.48-1.08-2.73-1.39-4.17c-0.22-1.03,0-2.1-0.12-3.14c-0.04-0.41-0.36-0.94-0.74-0.77c-0.14,0.07-0.22,0.2-0.29,0.33 c-0.48,0.9-0.71,1.93-0.65,2.95c0.04,0.75,0.24,1.52,0.03,2.24c-0.12,0.42-0.37,0.78-0.54,1.18c-0.33,0.76-0.4,1.63-0.18,2.42 c0.01,0.04,0.03,0.09,0.04,0.13c-1.31,0.08-2.57,0.13-3.77,0.15c0.13-0.37,0.26-0.74,0.3-1.1c0.16-1.29,0.23-2.51-1.16-4.06 c-0.52-0.66-1.12-1.28-1.2-2.1c0.39-1.95-0.05-3.66-1.25-5.22c0.58-4.13-3.94-5.5-4.24-0.79c-0.19,0.23-0.36,0.43-0.54,0.63 c-1.54,1.46-3.85,1.81-2.77,4.7c0.06,0.17,0.12,0.35,0.06,0.52c-0.06,0.16-0.21,0.25-0.35,0.34c-0.99,0.64-1.7,1.71-1.92,2.87 c-0.48-0.18-0.96-0.35-1.44-0.53c0.74-2.12,0.71-4.78-0.34-6.47c-0.01-0.03-0.02-0.06-0.03-0.09c-0.33-2.47,0.58-5.64-1.46-7.46 c-0.32-0.23-0.47-0.55-0.39-0.94c0.23-2.88-0.98-5.61-1.68-8.35c-0.13-0.73-0.86-0.41-1.06,0.17c-0.48,1.3-0.11,2.74-0.18,4.13 c0,0.03-0.01,0.07-0.01,0.1c-0.31,0.85-0.67,1.75-0.69,3.22c-0.02,1.1,0.51,1.74-0.22,2.46c-0.72,0.7-1.19,1.56-1.46,2.63 c-0.29,1.16-0.17,2.73,0.48,3.92c0.01,0.09,0.02,0.18,0.04,0.27c-0.55-0.03-1.36,0.24-1.43,2.41c-0.02,0.59,0.03,1.12,0.1,1.64 c-0.72-0.14-1.45-0.26-2.18-0.36V29h70V63.21z"/>
  </g>
</svg>