<svg viewBox="0 0 128 128" xmlns="http://www.w3.org/2000/svg">
  <g>
    <path d="M82.44,61.14c-1.4-2.71-3.8-5.82-6.74-8.76c-1.96-1.96-3.81-3.5-5.46-4.68c-1.66-1.18-3.12-2-4.31-2.53 c-0.63,0.66-1.27,1.32-1.91,1.99c-0.59,0.67-0.67,1.64-0.24,2.33C35.4,78.3,25.25,89.55,22.69,92.84c-0.23,0.3-0.33,0.66-0.31,1.02 c0.02,0.35,0.16,0.7,0.43,0.97l0.72,0.69c-0.53,0.38-1.06,0.75-1.59,1.11c-0.68,0.47-1.37,0.91-2.04,1.35 c-0.33,0.21-0.66,0.43-0.99,0.64c-0.66,0.42-1.29,0.83-1.9,1.24c-0.61,0.41-1.19,0.81-1.73,1.2c-0.82,0.6-1.54,1.19-2.14,1.79 c-2.98,2.98-3.2,5.77-3.93,9.07c-0.52,2.36-1.45,5.17-3.08,7.58c-0.92,1.37-2.33,2.27-0.87,3.72l0.15,0.15 c0.1,0.1,0.2,0.19,0.3,0.27c0.03,0.02,0.06,0.04,0.09,0.06c0.07,0.05,0.14,0.09,0.21,0.13c0.03,0.01,0.06,0.03,0.09,0.04 c0.07,0.03,0.13,0.06,0.19,0.07c0.03,0.01,0.06,0.02,0.09,0.03c0.08,0.02,0.16,0.03,0.24,0.03c0.01,0,0.01,0,0.02,0 c0.09,0,0.19-0.01,0.28-0.03c0.02-0.01,0.05-0.02,0.07-0.03c0.07-0.02,0.14-0.04,0.21-0.07c0.02-0.01,0.05-0.02,0.07-0.03 c0.09-0.04,0.18-0.09,0.26-0.14c0.02-0.01,0.04-0.02,0.05-0.04c0.08-0.04,0.15-0.09,0.23-0.15c0.03-0.02,0.05-0.04,0.08-0.06 c0.08-0.06,0.15-0.11,0.22-0.17c0.02-0.02,0.04-0.03,0.06-0.05c0.05-0.04,0.1-0.08,0.15-0.12c0.03-0.02,0.06-0.05,0.09-0.07 c0.03-0.02,0.05-0.04,0.08-0.06c0.08-0.06,0.16-0.13,0.24-0.19c0.03-0.02,0.05-0.04,0.08-0.06c0.11-0.08,0.21-0.16,0.32-0.23 c2.41-1.62,5.22-2.56,7.58-3.08c3.3-0.72,6.09-0.95,9.07-3.93c2.36-2.34,4.58-6.6,7.49-10.58l0.22,0.21 c0.54,0.54,1.38,0.59,1.98,0.12c0.33-0.26,0.74-0.6,1.25-1.01c2.24-1.85,6.3-5.4,13.02-11.67c6.73-6.26,16.14-15.26,29.09-28 c0.69,0.53,1.72,0.55,2.43-0.16c0.62-0.6,1.24-1.2,1.85-1.79C82.94,62.17,82.73,61.69,82.44,61.14z M27.65,107.87 c-1.42,2.2-2.76,4.28-3.99,5.5c-1.97,1.97-3.71,2.32-6.34,2.86c-0.41,0.08-0.82,0.17-1.26,0.26c-1.29,0.28-2.92,0.75-4.63,1.44 c2.4-2.36,4.99-4.95,6.07-6.04c0.29,0.16,0.61,0.26,0.96,0.26c1.08,0,1.96-0.88,1.96-1.96s-0.88-1.96-1.96-1.96 c-1.08,0-1.96,0.88-1.96,1.96c0,0.37,0.11,0.72,0.29,1.01c-1.11,1.08-3.75,3.64-6.04,5.92c0.57-1.41,1.03-2.93,1.39-4.55 c0.1-0.45,0.19-0.88,0.27-1.31c0.54-2.61,0.89-4.33,2.85-6.29c1.21-1.21,3.28-2.54,5.47-3.95c1.6-1.04,3.31-2.14,4.99-3.38 l5.37,5.17C29.82,104.51,28.7,106.25,27.65,107.87z"/>
    <path d="M122.96,16.76c1.21-1.74-0.49-5.55-3.22-8.18s-6.45-4.46-8.18-3.22c-0.32,0.23-1.34,0.95-2.93,2.12 c-0.01-0.01-0.44-0.16-1.03-0.12c-1.01-0.89-2.36-2.13-2.36-2.13c-0.99-0.87-2.29-1.31-3.64-1.22c-1.36,0.09-2.59,0.68-3.43,1.64 c-3.92,3.83-7.84,7.66-11.76,11.49c-5.34,5.22-18.29,17.91-19.15,19c-0.86,1.09-0.28,1.7-0.18,1.81c1.3,1.43,3.62,1.62,5.32,0.7 c-1.41,1.4-2.84,2.82-4.29,4.29c3.14,1.59,6.64,4.35,9.66,7.37c1.58,1.58,3.09,3.29,4.39,5.02c1.31,1.72,2.41,3.45,3.18,5.08 c7.57-7.5,14.09-14.59,19.48-20.79c5.39-6.19,9.64-11.51,12.69-15.46c0,0,1.54-0.12,2.61-1.4c1.08-1.28,0.7-3,0.7-3s0,0,0-0.01 C122.01,18.13,122.73,17.09,122.96,16.76z M74.49,36.63c0.49-0.8,0.83-1.71,0.98-2.64c0.21-1.24,0.28-1.85,1.2-2.66 c0.33-0.29,18.94-17.67,21.79-20.9c0.47-0.54,1.88-1.67,3.44-0.48c0.09,0.07,0.78,0.65,1.65,1.37 C96.79,16.56,86.38,25.12,74.49,36.63z"/>
  </g>
</svg>