<svg viewBox="0 0 128 128" xmlns="http://www.w3.org/2000/svg">
  <path d="M106.1,76.65c-0.21-3.73-0.41-34.62-0.83-38.33c-0.84-7.36-4.37-15.74-13.94-20.15c0.32-0.94,1.06-14.53-28.26-14.21 c-14,0.15-19.99,2.24-26.26,8.47c-2.8,2.78-7.39,8.47-7.02,19.26c0.11,3.18,0.16,3.39,0.74,6.73c0.26,1.48,1.22,6.93,1.22,6.93 c-4.06,4.07-6.44,10.66-7.94,16.92c-2.44,10.19-1.87,35.1-1.95,40.44c-0.04,2.57-0.84,6.42-0.84,6.42s-1.53,5.89-0.44,7.99 c1.06,2.03,4.04,6.13,14.71,7.08c13.34,1.19,32.94-1.83,32.97-1.83c3.77,0.16,14.7-0.54,14.85-0.55c4.14-0.42,11.81-3.11,13.05-7.25 c1.24-4.14-1.04-20.51-1.04-20.51s6.22-1.66,9.12-4.97C107.14,85.77,106.31,80.38,106.1,76.65z M33.87,47.47l1.19-1.18 c0,0-0.56-2.53-0.6-2.91c2.47-1.36,5.6-2.4,6.42-1.96c0.83,0.45-2.4,7.76-3.83,10.91c1.16-1.54,2.43-3.34,3.68-5.25 c2.94-4.49,3.46-8.62,5.51-12.17c1.88-3.25,3.9-6.24,10.59-4.52c2.09,0.54,3.84,2.83,3.84,2.83c0.06,1.36-11.29,19.51-12.63,21.7 c-1.34,2.19-4.53,7.43-5.47,8.26c-1.15,1.03-5.01,2.1-7.03,2.25c-5.05,0.39-7.55,2.12-8.15,3.33c-0.6,1.21,3.89,5.22,7.11,6.01 c3.22,0.79,10.08,0.55,11.36,1.09c1.28,0.54,3.82,2.72,5.82,3.88s4.74,3.11,4.68,4.14c-0.06,1.03-0.5,1.13-1.4,0.9 c-1.06-0.27-5.53-1.62-8.19-1.93c-4.83-0.56-11.92-0.81-15.97,0.23c-1.94,0.5-5.25,2.1-5.71,3.71c0.23-9.23,0.7-19.8,1.64-23.87 C29.08,52.83,32.79,48.54,33.87,47.47z M62.11,59.78c0.07,0.69-1.53,1.73-4.58,3.26c-3.05,1.52-6.34,2.32-7.56,1.87 c-2.08-0.76,1.39-6.11,2.29-7.01c0.64-0.64,2.37-1.05,5.13-0.76C60.03,57.42,62.04,59.09,62.11,59.78z M51.62,89.87 c0.08,0.41-4.2,4.9-11.79,4.67c-3.38-0.1-10.15-2.85-9.16-5.13c0.35-0.82,4.66-0.58,8.93-0.53C44.27,88.94,51.44,89.05,51.62,89.87z M65.71,114.42c-1.03,2.06-2.73,2.25-5.77,2.79c-3.04,0.55-16.76,2.49-25.02,1.34c-5.37-0.75-9.42-2.14-11.73-3.78 c0.02-1.05,1.62-7.87,1.67-11.97c0.01-0.54,0.22-15.3,0.23-15.27c0.51,1.63,1.35,2.86,2.55,4.37c1.04,1.31,3.04,4.8,4.31,6.86 c1.28,2.06,3.77,5.46,8.61,5.81c5.64,0.41,7.84-2.41,10.46-5.94c2.61-3.52,4.13-7.17,7.83-6.74c3.7,0.43,4.49,5.04,5.16,8.32 C64.68,103.49,66.74,112.36,65.71,114.42z M82.85,53.47c-0.96,4.05-2.23,15.41-3.5,15.41c-1.27,0-2.63-2.47-5.58-5.71 c-2.75-3.01-6.02-6.45-7.13-10.02c-1.63-5.23,0.9-11.52,5.88-13.43c4.77-1.82,10.57,1.6,11.92,3.27 C85.32,44.08,83.81,49.42,82.85,53.47z M86.05,16.12c-1.2,4.25-3.83,6.91-7.52,6.54c-4.35-0.43-14.38-4.9-31.15-2.94 c-6.92,0.81-11.1,2.22-13.58,3.48c0.81-2.57,2.69-6.19,5.11-8.63c2.07-2.1,6.29-6.42,19.73-7.44c14.17-1.08,24.77,3.54,28.01,6.43 C86.52,14.3,86.33,15.14,86.05,16.12z"/>
</svg>