<svg viewBox="0 0 128 128" xmlns="http://www.w3.org/2000/svg">
  <path d="M107.1,17.45c-1.47-0.88-2.72-1.65-4.2-2.19l-0.01-1.1C102.78,8.54,99.28,4,95,4c-4.35,0-7.9,4.68-7.9,10.43v0.01h-5.19 C81.86,8.75,78.34,4,74.02,4c-4.35,0-7.9,4.68-7.9,10.43v0.01h-5.2C60.86,8.76,57.35,4,53.03,4c-4.35,0-7.9,4.68-7.9,10.43v0.01 h-5.19C39.89,8.74,36.37,4,32.05,4c-4.35,0-7.9,4.68-7.9,10.43v0.01h-2.79c-3.95,0-6.01,2.69-6.01,6.01v90.16 c0,0.41,0.04,0.81,0.12,1.2v0.1c0,3.21,3.48,5.82,6.52,8.6C25.8,124,28.75,124,30.35,124h76.28c3.32,0,6.01-2.69,6.02-6.01V24.12 C112.65,22.3,112.47,20.67,107.1,17.45z M91.81,14.43c0-2.81,1.46-5.18,3.19-5.18c1.63,0,3.2,1.89,3.2,5.18v0.02 c-0.15,0-6.39-0.01-6.39-0.01V14.43z M70.83,14.43c0-2.81,1.46-5.18,3.19-5.18c1.7,0,3.15,2.44,3.2,5.19h-6.39V14.43z M49.84,14.43 c0-2.81,1.46-5.18,3.19-5.18c1.7,0,3.14,2.44,3.19,5.19h-6.38V14.43z M28.85,14.43c0-2.81,1.46-5.18,3.19-5.18 c1.71,0,3.16,2.42,3.2,5.19h-6.39V14.43z M18.35,20.45c0-2,1.01-3.01,3.01-3.01h3.13c0.21,0.91,0.5,1.77,0.88,2.56 c0.7,1.46,2.21,2.11,3.54,1.4c1.13-0.59,1.34-2.21,0.57-3.96h15.99c0.21,0.91,0.5,1.77,0.88,2.56c0.7,1.46,2.21,2.11,3.54,1.4 c1.14-0.59,1.4-2.42,0.58-3.96h15.99c0.21,0.91,0.5,1.77,0.88,2.56c0.7,1.46,2.28,2.22,3.54,1.4c1.03-0.67,1.09-1.97,0.98-2.7 c-0.05-0.36-0.37-1.18-0.4-1.26h15.98c0.21,0.91,0.5,1.77,0.88,2.56c0.7,1.46,2.21,2.11,3.54,1.4c1.13-0.59,1.34-2.05,0.58-3.96 h5.31c2.18,0,3.01,1.69,3.01,3.01v10.71H18.35V20.45z M18.35,33.16h82.41v9.81H18.35V33.16z M18.35,44.97h82.41v9.81H18.35V44.97z M18.35,56.78h82.41v9.81H18.35V56.78z M18.35,68.59h82.41v9.82H18.35V68.59z M18.35,80.41h82.41v7.48c0,0.8-0.83,1.59-2.19,2.32 H18.35V80.41z M100.76,98.26v12.62c0,1.51-1.23,2.74-2.74,2.74h-14.7C89.3,110.44,96.71,104.95,100.76,98.26z M18.35,92.22h74.52 c-2.5,0.61-5.3,1.05-7.94,1.23l-2.9,0.19l0.09,2.9c0,0.06,0.06,2.47-0.45,5.48H18.35V92.22z M21.36,113.62 c-1.66,0-3.01-1.35-3.01-3.01v-6.58h62.91c-0.48,2.01-1.25,4.1-2.44,5.84c-1.19,1.75-2.82,3.14-5.02,3.75H21.36z M109.65,118.02 c-0.03,1.65-1.37,2.98-3.02,2.98H30.35c-0.76,0-1.74,0.03-2.97-0.48c-1.65-0.68-5.08-3.76-5.23-3.9h75.87 c3.17,0,5.74-2.57,5.74-5.74v-6.84l5.89,3.31V118.02z M109.65,105.33l-5.89-3.31v-9.79l5.89,3.31V105.33z M109.65,93.52l-5.89-3.31 v-9.79l5.89,3.31V93.52z M103.76,78.4v-9.8l5.89,3.31v9.8L103.76,78.4z M103.76,66.58v-9.79l5.89,3.31v9.79L103.76,66.58z M103.76,54.77v-9.79l5.89,3.3v9.8L103.76,54.77z M103.76,42.96v-9.8l5.89,3.31v9.8L103.76,42.96z M103.76,31.14V20.45 c0-0.55-0.07-1.08-0.2-1.59c0.54,0.29,2,1.16,2,1.16c4.09,2.46,4.09,3.22,4.09,4.1v10.33L103.76,31.14z"/>
</svg>