<svg viewBox="0 0 128 128" xmlns="http://www.w3.org/2000/svg">
  <path d="M103.63,112.38V62.7h0.01c-0.11-2.29-2.39-4.43-6.34-5.81c-1.21-0.58-2.79-1.03-4.18-1.38V40.16 c0-16.67-13.07-30.24-29.13-30.24S34.86,23.49,34.86,40.16v15.35c-1.4,0.35-3.02,0.81-4.23,1.41c-3.91,1.37-6.14,3.51-6.26,5.78 h-0.02v50.08c0.02,15.08,80.3,15.23,79.24-0.4H103.63z M47.91,40.16c0.9-22.8,31.27-22.79,32.16,0c0,0,0,12.66,0,12.66 c-9.94-1.49-22.23-1.5-32.16,0V40.16z M69.97,111.16H58.05c-1.47,0-2.49-1.47-1.96-2.85l4.18-10.89c-6.74-3.86-4.07-14.28,3.8-14.33 c8.16,0.07,10.56,11.04,3.34,14.57l4.49,10.58C72.48,109.62,71.47,111.16,69.97,111.16z"/>
</svg>