<svg viewBox="0 0 128 128" xmlns="http://www.w3.org/2000/svg">
  <path d="M122.69,91.62l-19.52-65.78C98.54,8.26,80.6,2.29,66.79,10.7c-11.21-5.04-21.93,1.04-27.6,15.67c0,0-14.59,37.5-14.59,37.5 c-4.6,11.81-1.74,21.37,7.46,24.96c19.36,7.01,23.59-22.09,29.26-33.25l0.71,2.38c0,0-16.91,43.46-16.91,43.46 c-5.08,13.05-15.17,14.48-22.92,11.46c-11.61-4.52-13.34-15.43-9.92-24.24l18.9-48.58c0.33-0.86-5.88-3.28-6.21-2.42L6.08,86.23 c-5.59,14.11,0.45,27.81,13.71,32.87c13.3,5.18,25.98-0.96,31.55-15.26L65.13,68.4l6.3,21.23c0.26,0.88,6.66-1.01,6.39-1.9 l-8.75-29.47l3.62-9.3c-1.24,4.01-1.12,8.96,0.53,14.51l11.45,38.58C93.12,134.51,131.67,121.43,122.69,91.62z M56.32,50.1 l-9.01,22.74C42.23,85.62,36.6,83.43,34.48,82.6c-7.57-2.95-5.55-11.49-3.67-16.32l14.59-37.5c1.79-4.58,6.71-14.4,15.36-13 c-8.99,10.66-4.85,22.41-0.86,35C58.28,50.14,56.48,49.71,56.32,50.1z M62.99,37.76c-1.97-6.64-1.07-14.18,4.25-19.13 c0.04,0.04,0.37,0.36,0.82,0.84c0,0-0.01,0.01-0.01,0.01c7.7,7.75,1.11,19.94-2.07,28.34L62.99,37.76z M107.9,113.9 c-10.6,3.15-15.32-8.56-16.86-13.74L79.61,61.57c-1.47-4.97-2.79-13.65,5-15.96c2.18-0.65,7.97-2.37,11.99,10.79l7.1,23.41 c0.24,0.78,6.68-0.96,6.38-1.94l-7.1-23.41c-2.22-7.28-7.8-18.94-20.26-15.24c-4.36,1.29-7.47,3.98-9.22,7.66 c4.66-10.8,8.15-21.98-0.39-31.85c8.76-3.35,19.29-1.53,23.65,12.7c0,0,19.52,65.78,19.52,65.78 C118.53,101.11,117.69,111,107.9,113.9z"/>
</svg>