<svg viewBox="0 0 128 128" xmlns="http://www.w3.org/2000/svg">
  <path d="M75.63,55.37c-17.01-17.91-39.46-31.1-47.31-21.99c-4.19,4.19-4.15,11.55-0.61,20.29c-0.05,8.55-1.68,17.2-9.43,24.02 c-3.88,3.96-7.98,7.9-12.06,11.64c-7.67,8.41,4.91,28.77,18.52,34.04c0.57,0.24,8.29,3.1,12.66-0.04 c5.61-4.02,9.26-9.11,15.01-14.47c0,0,0,0,0.01,0c0.2-0.19,1.04-0.94,1.24-1.12h0.01c2.89-2.52,6.86-5.41,14.29-5.17 c4.63,0.15,9.61-0.65,9.61-0.65c6.48,2.24,13.02,2.8,17.75-1.54C103.41,92.29,93.97,74.07,75.63,55.37z M53.38,64.78 c3.6-2.19,12.9,7.19,10.7,10.69C59.7,77.58,51.19,67.63,53.38,64.78z M51.09,65.17C50.3,70,58.13,78.69,63.91,77.72l-4.35,7.74 c-5.32-4.26-11.23-10.09-15.58-15.41L51.09,65.17z M50.22,106.8c-0.36,0.34-0.71,0.67-1.05,1c-13.44-4.36-23.5-15.37-28.46-28.31 c6.25-5.61,9.13-13.03,9.68-20.19c6.78,13.16,23.29,30.05,36.48,37.59c0,0,4.83,2.59,4.84,2.59C58.71,98.94,55.5,101.79,50.22,106.8 z"/>
</svg>