<svg viewBox="0 0 128 128" xmlns="http://www.w3.org/2000/svg">
  <path d="M116,4H12c-4.42,0-8,3.58-8,8v104c0,4.42,3.58,8,8,8h104c4.42,0,8-3.58,8-8V12C124,7.58,120.42,4,116,4z M108.68,87.74 l-23,23c-0.69,0.61-1.59,0.94-2.51,0.94c-2.11,0-3.81-1.71-3.81-3.81V94.45c-0.01-1.06-0.86-1.91-1.92-1.92h-32.6 C30,92.53,18,78.85,18,61.85c-0.01-3.01,0.38-6,1.15-8.91l14.19,12.75c0.5,10.06,6.9,11.5,11.5,11.5h32.6 c1.06-0.01,1.91-0.86,1.92-1.92V61.88c0-0.94,0.34-1.86,0.96-2.56c1.39-1.57,3.79-1.71,5.36-0.32l23,22.99 c0.12,0.1,0.23,0.22,0.34,0.34C110.42,83.92,110.27,86.34,108.68,87.74z M108.88,70.77L94.69,58.02 c-0.38-10.07-6.9-11.51-11.5-11.51h-32.6c-1.06,0.01-1.91,0.86-1.91,1.92v13.42c0.01,0.93-0.33,1.84-0.95,2.54 c-1.39,1.58-3.8,1.73-5.38,0.34l-23-22.98c-0.11-0.09-0.21-0.2-0.31-0.31c-1.42-1.59-1.28-4.03,0.31-5.44l23-23 c0.69-0.61,1.57-0.94,2.49-0.95c2.11-0.02,3.82,1.68,3.84,3.78v13.43c0.01,1.05,0.86,1.9,1.91,1.91h32.57 C98,31.17,110,44.85,110,61.85C110.03,64.86,109.65,67.86,108.88,70.77z"/>
</svg>