<svg viewBox="0 0 128 128" xmlns="http://www.w3.org/2000/svg">
  <path d="M123.8,47.84c0,0-1-1.7-19.03-3.41c-18.93-1.8-28.35,2-32.25,4.41c-0.7,0.3-1.9,0.6-3.31,0.5h-0.3 c-1.9-0.1-3.61-0.2-5.61-0.2h-0.1c-1.1,0-3.51,0.1-5.21,0.2c-0.8,0.1-1.5,0-2.1-0.2c-3.61-2.4-13.02-6.61-32.75-4.71 C5.1,46.14,4.1,47.84,4.1,47.84L4,54.65c0,0,2.7,0.8,4.41,2.9c1.7,2.1,2.5,14.12,5.41,19.73c4.4,8.72,26.14,6.52,26.14,6.52 s8.91,0.7,13.22-6.81c3.71-6.41,5.21-15.43,5.61-17.63c0.9-0.9,2.6-2,5.11-2.1c2.8,0,4.61,1.4,5.41,2.4 c0.4,2.7,1.9,11.22,5.51,17.33c4.31,7.51,13.22,6.81,13.22,6.81s21.74,2.2,26.14-6.51c2.8-5.61,3.61-17.63,5.41-19.73 c1.7-2.2,4.41-2.9,4.41-2.9L123.8,47.84z M32.19,55.36c-0.77,3.47-4.11,1.62-9,4.6c-2.06,1.26-2.9,2.16-3.66,2.13 c-0.73-0.03-1.36-0.78-1.01-2.2c0.63-2.58,1.68-6.39,8.3-7.67C31.15,51.38,32.61,53.48,32.19,55.36z M87.15,57.98 c-4.23,1.44-4.93,3.49-5.81,4.05c-0.59,0.37-2.33,1.21-2.14-1.34c0.22-3.24,1.28-5.69,4.46-7.48c1.77-0.99,6.74-1.88,7.27,0.73 C91.47,56.63,88.94,57.37,87.15,57.98z"/>
</svg>