<svg viewBox="0 0 128 128" xmlns="http://www.w3.org/2000/svg">
  <g>
    <path d="M91.98,94.08c-0.25,2.71-0.28,6.12,0.96,8.54c2.39-8.96,0.49-16.12,0.49-16.12S92.31,90.44,91.98,94.08z"/>
    <path d="M109.28,110.42c-1.66,1.38-3.53,2.43-5.58,2.94c-1.03,0.23-2.1,0.32-3.19,0.26c-1.1-0.04-2.19-0.31-3.32-0.58 c0.95,0.66,2,1.22,3.16,1.54c1.15,0.31,2.38,0.44,3.61,0.32c2.47-0.25,4.74-1.42,6.6-2.92c1.84-1.53,3.38-3.36,4.6-5.35 c1.22-1.98,2.21-4.11,2.78-6.36c-1.33,1.9-2.66,3.72-4.07,5.45C112.46,107.44,110.96,109.07,109.28,110.42z"/>
    <path d="M112.63,69.84c-0.44-0.44-14.56-14.5-35.06-27.89c0.12-0.12,0.15-0.31,0.02-0.45l-1.87-2.08 c-0.52-0.47-0.89-0.37-1.01-0.38c-4.59-6.25-18.51-25.19-20.38-27.31c-0.33-0.37-0.69-0.71-1.07-1.03 c-0.11-0.09-4.83-5.14-19.34-2.77C18.73,10.41,9.79,21.9,4.04,30.98l4.08,3.84l-3.9,4.74l2.27,2.6L4,47.95l5,2.8 c-0.25,3.45-0.26,5.63-0.26,5.63l27.83,12.98c0.02,0.12,2.11,2.32,2.13,2.24l5.4,8.8c4.28,9.79,9.86,22.52,13.28,30.54 c0,0,1.47-1.28,3.51-3.19l3.25,5.28h0.01l8.76,4.19c0,0,1.38-9.76,3.83-15.95c3.53,4.97,7.83,11.84,12.93,16.07 c11.54,9.56,27.36,0.19,32.33-16.07C129.29,77.44,112.62,69.84,112.63,69.84z M37.85,64.06L7.19,46.87l1.46-3.41L26.4,54.87 L7.55,39.45l1.28-1.54l15.13,11.82l13.92,13.11l0.25,0.52C38.03,63.6,37.93,63.83,37.85,64.06z M39.36,60.8L7.27,30.59 c5.23-7.89,13.55-17.68,27.11-20.2c2.37-0.44,4.68-0.66,6.86-0.66c3.65,0,8.55,0.63,11.21,3.65C54,15.13,65.13,30.22,71.6,39.02 c-0.23,0.01-0.49,0.04-0.74,0.07c-3.12-3.22-5.96-6.93-8.25-10.25c-0.57,0.01-1.15,0.03-1.75,0.07c2.22,3.29,5.04,7.07,8.19,10.42 c-1.63,0.29-3.53,0.76-5.69,1.56c-3.14-3.78-6.04-7.94-8.1-11.1c-0.49,0.13-0.98,0.27-1.47,0.43c2.03,3.13,4.93,7.34,8.14,11.23 c-1.51,0.62-3.12,1.41-4.83,2.37c-3.23-4.15-6.24-8.56-8.08-11.34c-0.34,0.22-0.67,0.44-0.99,0.68c-0.07,0.05-0.14,0.11-0.2,0.16 c1.82,2.77,4.78,7.1,7.99,11.24c-0.67,0.4-3.62,2.36-4.35,2.9c-2.79-3.67-5.55-7.56-7.57-10.49c-0.33,0.35-0.67,0.72-1,1.1 c1.75,2.53,4.5,6.44,7.4,10.27c-1.46,1.14-2.78,2.28-3.95,3.41c-2.19-2.91-4.57-6.14-6.91-9.39c-0.32,0.42-0.62,0.83-0.91,1.23 c1.82,2.52,4.3,5.91,6.78,9.2c-1.35,1.39-2.49,2.76-3.46,4.07l-6.5-8.63c-0.37,0.58-0.65,1.03-0.83,1.32l6.45,8.56 C40.35,59.04,39.82,59.94,39.36,60.8z M41.52,64.69c0.61-1.1,1.28-2.17,2-3.19l2.47,3.27c0.19-0.31,0.47-0.74,0.84-1.3l-2.41-3.2 c0.03-0.03,0.05-0.07,0.08-0.1c1.07-1.38,2.23-2.68,3.44-3.93c0.77,0.99,1.51,1.93,2.21,2.79c0.3-0.37,0.62-0.75,0.95-1.13 c-0.65-0.82-1.37-1.74-2.12-2.71c1.26-1.21,2.6-2.35,4-3.41c0.61,0.77,1.22,1.51,1.81,2.21c0.34-0.33,0.7-0.66,1.06-0.99 c-0.56-0.66-1.13-1.37-1.71-2.1c1.43-1.06,2.91-2.04,4.43-2.93c0.48,0.56,0.96,1.11,1.43,1.64c0.39-0.28,0.79-0.56,1.2-0.84 c-0.44-0.49-0.89-1-1.33-1.53c1.6-0.88,3.25-1.68,4.94-2.38c0.03-0.01,0.05-0.02,0.08-0.03c0.38,0.4,0.76,0.82,1.14,1.2 c0.47-0.22,0.95-0.43,1.43-0.63c-0.37-0.36-0.74-0.76-1.1-1.14c1.49-0.55,3.03-1,4.58-1.36c0.48-0.12,0.97-0.22,1.45-0.31 c0.42,0.37,0.84,0.74,1.27,1.09c0.56-0.09,1.12-0.14,1.69-0.19c12.49,8.07,22.73,16.53,28.95,22.04c-0.34-0.01-0.69-0.02-1.04-0.02 c-7.36,0-14.8,2.57-22.12,7.62c-8.27,5.71-12.64,11.64-16.5,16.88c-2.23,3.02-4.36,5.92-7.08,8.53L41.52,64.69z M119.63,100.49 c-3.73,11.29-10.95,17.77-19.79,17.77c-1.23,0-2.51-0.12-3.79-0.37c-2.55-0.48-4.38-1.66-5.62-3.6c-2.82-4.43-2.69-12.78,0.37-24.8 c0.63-2.46,2.09-5,3.11-6.37c0.82,1.04,1.83,3.11,2.03,6.6c0.13,2.05-0.24,4.61-0.59,7.09c-0.69,4.84-1.34,9.42,1.04,12.37 c1.14,1.42,2.79,2.22,4.91,2.37c0.25,0.02,0.5,0.03,0.75,0.03c5.26,0,10.31-4.05,13.2-10.57c3.31-7.5,2.49-15.6-2.09-20.64 c-3.33-3.67-7.17-5.52-11.4-5.52c-5.37,0-11.17,3.09-17.26,9.18c-9.34,9.37-12.58,23.04-13.62,29.45l-3.48-1.66l6.25-14.2 l9.09-20.69l-13.39,18.2c-2.82,3.83-7.95,8.76-11.05,11.61c-1.2-2.8-1.58-4.14-1.58-4.14c9.69-7.69,12.06-17.45,25.84-27.41 c8.28-5.98,17.8-7.04,21.66-7.16c0.01,0,0.01,0,0.02,0c3.63,2.07,6.12,3.49,6.68,3.83C120.97,77.91,123.9,87.54,119.63,100.49z"/>
    <path d="M98.4,72.16c-6.58,1.14-13.56,6.18-17.25,11.76l0.14,0.11c1.29-1.1,8.52-8.05,17.48-9.9c10.88-2.25,17.32,4.63,18.22,6.07 l0.17-0.1C116.57,78.41,111.54,69.89,98.4,72.16z"/>
    <path d="M58.25,24.14L47.95,11.3c-0.53-0.06-1.2-0.1-1.96-0.12L56.43,24.2C57.07,24.16,57.67,24.14,58.25,24.14z"/>
    <path d="M50.66,25.29L38.69,11.73c-0.54,0.1-1.09,0.21-1.65,0.33l12.15,13.76C49.68,25.62,50.17,25.44,50.66,25.29z"/>
    <path d="M80.38,67.94L67.55,52.3l-3.12,2.43L75.99,71.1C75.99,71.1,78.54,68.62,80.38,67.94z"/>
    <path d="M44.61,27.94L31.85,13.6c-10.21,2.74-18.8,16.76-18.8,16.76l16.38,15.35C29.43,45.71,33.66,36.3,44.61,27.94z"/>
    <path d="M87.8,65.06L73.83,49.68l-2.05,0.58l14.03,15.46C86.48,65.46,87.15,65.24,87.8,65.06z"/>
    <path d="M97.2,63.34L81.24,48.91c-0.8-0.05-1.71-0.05-2.69,0.01l16.02,14.61C94.57,63.53,96.2,63,97.2,63.34z"/>
    <path d="M71.37,75.52L61,58.33c-0.47,0.46-0.95,0.94-1.42,1.43l10.46,17.35C70.48,76.57,70.92,76.04,71.37,75.52z"/>
    <path d="M65.44,82.85l-9.71-19.02c-0.48,0.52-0.95,1.04-1.41,1.55l9.76,19.11C64.57,83.91,65.03,83.35,65.44,82.85z"/>
    <path d="M59.15,90.35l-8.76-20.49c-0.6,0.69-1.08,1.26-1.41,1.66l8.76,20.5C58.15,91.53,58.63,90.96,59.15,90.35z"/>
  </g>
</svg>