<svg viewBox="0 0 128 128" xmlns="http://www.w3.org/2000/svg">
  <g>
    <path d="M114.78,57.46c-0.38-0.02-1.74,0.03-3.66,0c0,0,0.18-29.74,0.18-29.74c-0.07-0.06-2.35-1.95-2.4-2.56 c-0.05-0.62,2.88-2.26,3.03-7.75c0.15-5.49-8.26-13.85-10.83-13.9C98.64,3.46,90.26,11.1,89.97,16.9c-0.3,5.94,3.25,6.96,3.25,7.97 c0,0.41-2.58,3.06-2.58,3.06h-0.02c0,0-0.02,14.12-0.08,28.73L69.31,30.02c0,0-0.01-6.39-0.15-8.64c-0.17-2.76-2.16-4.49-5.18-4.41 c-3.28,0.09-5.2,1.9-5.27,4.58c-0.09,3.11-0.17,8.21-0.17,8.21L36.89,57.42c-0.12-14.87-0.19-29.48-0.19-29.48l0.02-0.01 c0,0-2.19-2.65-2.14-2.99c0.06-0.34,3.25-1.73,3.2-6.91C37.72,11.6,29.27,3.82,26.8,3.82c-2.47,0-11.23,7.52-11.23,13.88 c0,4.89,2.97,7.21,2.97,7.72c0,0.5-2.29,2.62-2.29,2.62l0.02,0.01h-0.03l0.06,30.49c-4.21,0.12-4.74-0.93-4.94,5.59 c-0.02,2.76,0.26,56.44,0.18,57.65c-0.28,2.55,3.09,2.14,4.88,2.15v0.01c7.27-0.01,29.32-0.06,36.22-0.02c0,0,0-0.02,0-0.04 c3.8,0,35.6-0.06,38.43-0.05v-0.01l19.66-0.03v-0.03h3.44c1.21,0.01,1.3-0.95,1.38-2.59c0.09-1.64,0.96-60.95,0.96-61.9 C116.51,58.32,116.51,57.54,114.78,57.46z M63.83,33.23c0.81,0,22.16,25.95,26.67,31.44c-0.12,12.69-0.11,23.76-0.41,23.93 c0,0-12.72,0.29-25.66,0.29c-13.39,0-27.02-0.3-27.05-0.31c-0.16-0.11-0.3-10.22-0.41-22.16C42.17,59.79,63.03,33.23,63.83,33.23z M107.75,120.79l-16.69,0.03c-0.01-5.53-0.03-16.96-0.03-19.43c0-3.28-2.03-7.34-7.34-7.34c-4.89,0-6.99,4.47-6.99,7.27 c0,1.75,0.04,13.81,0.06,19.52l-4.47,0.01c-0.02-5.55-0.07-17.16-0.18-19.84c-0.14-3.56-2.37-7.24-7.68-7.1 c-4.97,0.13-7.01,3.67-7.15,7.59c-0.07,2.07,0.04,13.79,0.1,19.37l-4.74,0.01c-0.01-5.72-0.03-17.68-0.03-19.38 c0-2.79-1.05-7.2-7.06-7.2c-6.15,0-7.34,4.75-7.41,6.99c-0.06,1.96-0.09,13.94-0.1,19.62l-18.63,0.03l-0.16-89.91l14.47-0.07 c0.04,8.98,0.22,37.43,0.39,48.08c0.04,3,0.09,5.34,0.13,6.94c0.09,3.3,0.11,4.19,1.51,5.12c0.93,0.6,1.13,0.73,32.03,0.73 c6.26,0,11.62-0.02,15.5-0.06c8.01-0.08,8.01-0.08,8.98-1.07c1-1,1-1,1.12-11.73c0.14-10.65,0.22-39.11,0.24-48.07l14.66-0.15 L107.75,120.79z"/>
    <path d="M24.53,51.6c0.1,0.1,4.89-0.1,4.9-0.1V36.61h-4.9V51.6z"/>
    <polygon points="24.48,86.14 29.46,86.14 29.46,70.94 24.55,71.07 "/>
    <polygon points="98.85,50.7 103.89,50.7 103.89,35.38 98.91,35.38 "/>
    <path d="M98.52,83.87h4.98V68.74h-4.72C98.98,68.74,98.53,83.88,98.52,83.87z"/>
    <path d="M46.04,68.34c-0.08,10.18,7.82,17.4,18,17.55c23.86,0.47,24.24-36.38-0.6-35.55C54.4,50.49,46.13,56.95,46.04,68.34z M64.26,51.71l4.15,6.95l9.2,0.06c0.5,0,0.81,0.54,0.57,0.97l-4.41,7.96l4.82,8.08c0.18,0.31-0.04,0.7-0.39,0.7l-9.33,0.06 l-3.74,6.74c-0.22,0.41-0.8,0.42-1.04,0.03l-4.16-6.72L49.6,76.61c-0.37,0-0.59-0.39-0.41-0.7l5.05-8.56l-4.89-7.89 c-0.25-0.4,0.04-0.92,0.51-0.91l9.53,0.06l4.07-6.9C63.64,51.41,64.08,51.41,64.26,51.71z"/>
    <path d="M64.26,55.63c-0.18-0.3-0.61-0.3-0.79,0l-1.77,2.99l4.36,0.03L64.26,55.63z"/>
    <polygon points="52.39,60.57 55.38,65.41 58.21,60.61 "/>
    <polygon points="67.7,74.5 71.46,67.71 67.26,60.67 60.52,60.62 56.57,67.32 61.04,74.54 "/>
    <path d="M52.7,73.89c-0.18,0.31,0.04,0.7,0.4,0.7l5.6-0.03l-3.27-5.29L52.7,73.89z"/>
    <polygon points="75.34,60.72 69.61,60.68 72.59,65.68 "/>
    <path d="M74.68,74.46c0.36,0,0.58-0.39,0.39-0.7l-2.43-4.08l-2.66,4.8L74.68,74.46z"/>
    <polygon points="64.54,80.19 66.59,76.5 62.27,76.53 "/>
  </g>
</svg>