<svg viewBox="0 0 128 128" xmlns="http://www.w3.org/2000/svg">
  <g>
    <path d="M94,20.36c0-9.44-13.42-17.1-29.98-17.1c-16.55,0-31,6.96-29.98,17.09h-0.02v88.57c0,7.92,13.42,14.34,29.98,14.34 s29.98-6.42,29.98-14.34V20.74C93.99,20.62,94,20.49,94,20.36z M40.56,17.55c0-6.31,10.58-11.43,23.64-11.43 s23.64,5.12,23.64,11.43S77.26,28.98,64.2,28.98S40.56,23.86,40.56,17.55z M50.99,51.54c0-0.66,0.25-1.05,0.86-1.3 c0.57-0.22,1.39,0.02,2.25,0.23c1.68,0.42,3.41,0.66,4.97,0.64c0.63-0.01,0.57-0.61,0.57-1.16c0-0.43,0-3.94,0-5.48 c0-0.6,0.07-1.36,1.18-1.36c0.67,0,1.48,0.19,3.17,0.2c1.69-0.02,2.5-0.2,3.17-0.2c1.11,0,1.18,0.76,1.18,1.36 c0,1.54,0,5.05,0,5.48c0,0.55-0.06,1.15,0.57,1.16c1.56,0.02,3.29-0.22,4.97-0.64c0.85-0.22,1.68-0.46,2.25-0.23 c0.61,0.24,0.86,0.64,0.86,1.3l0.04,5.09c-0.28,0.8-0.58,1.37-0.89,1.53c-0.94,0.48-2.99,1.24-6.27,1.4 c-0.66,0.03-1.38-0.19-1.53,0.52c-0.07,0.35,0,4.67,0,6.42c0,1.59-2.31,1.75-3.54,1.86c-0.26,0.02-1.34,0.02-1.61,0 c-1.24-0.1-3.54-0.27-3.54-1.86c0-1.75,0.07-6.07,0-6.42c-0.15-0.71-0.88-0.49-1.53-0.52c-3.28-0.16-5.33-0.91-6.27-1.4 c-0.32-0.17-0.61-0.74-0.89-1.53L50.99,51.54z M77.04,108.73c0,1-0.65,1.93-1.81,2.5c-2.39,1.18-6.24,1.98-10.87,1.93 c-0.12,0-0.23-0.01-0.35-0.01s-0.23,0.01-0.35,0.01c-4.62,0.05-8.48-0.75-10.87-1.93c-1.16-0.57-1.81-1.5-1.81-2.5v-4.22 c0-1.08,0.58-2.15,1.95-1.95c0,0,3.85,1.17,11.07,1.17c7.22,0,11.07-1.17,11.07-1.17c1.37-0.2,1.96,0.87,1.97,1.95V108.73z"/>
    <path d="M72.1,19.46c1.14-1.13,1.91-2.88,1.01-4.45c-0.35-0.62-0.71-1.27-1.05-1.9c-0.36-0.65-0.35,0.05-0.43,0.32 c-0.41,1.42-1.22,2.05-1.79,2.36c-1.72,0.92-3.78,1.36-5.83,1.33c-2.06,0.02-4.11-0.41-5.83-1.33c-0.58-0.31-1.38-0.94-1.79-2.36 c-0.08-0.28-0.07-0.97-0.43-0.32c-0.35,0.63-0.7,1.28-1.05,1.9c-0.9,1.58-0.12,3.33,1.03,4.45c2.01,1.95,5.13,2.85,8.08,2.85 C66.97,22.31,70.09,21.41,72.1,19.46z"/>
  </g>
</svg>