<svg viewBox="0 0 128 128" xmlns="http://www.w3.org/2000/svg">
  <g>
    <path d="M35.03,50.98c-0.06,0.22,0.07,0.39,0.27,0.49c1.61,0.72,5.06-0.39,3.33-2.5c-0.11-0.07-0.42-0.14-0.51,0.09 c-0.49,1.24-1.52,1.42-2.7,1.66C35.26,50.75,35.07,50.82,35.03,50.98z"/>
    <path d="M32.9,49.35c0.43-0.14,1.44-2.15,3.07-2.44c1.32-0.23,1.22-1.12,0.53-1.55c-1.54-0.93-4.07,1.51-4.05,3.06 C32.32,49.04,32.58,49.46,32.9,49.35z"/>
    <path d="M124.02,75.02c-0.9-3.12-3.51-2.34-5.93-1.87c-0.06-0.9-0.33-1.75-0.76-2.49v-53.1h-0.01 c0.67-11.44-12.61-18.25-20.24-9.83c-0.86-0.06-1.58,0.92-1.91,1.89c-3.44-0.5-7.15,1.13-9.28,4.01c-0.7-0.47-1.94-0.02-2.42,0.82 c-1.08,1.91,2.21,4.32,7.4,7.77c4.55,2.81,8.16,3.4,8.16,3.4c0.69,0.24,2.07,0.22,2.59-0.69c0.42-0.73,0.47-1.77-0.13-2.3 c1.49-3.41,0.95-7.63-1.44-10.36c0.63-0.78,0.86-1.69,0.47-2.36c5.35-4.7,13.35-0.05,12.84,7.57v50.46 c-1.57-0.28-3.26,0.19-4.44,1.16c-1.3-1.77-3.18-3.07-5.37-3.64c5.15-4.9,1.57-13.9-5.63-13.84c-5-0.05-8.9,4.67-7.93,9.56 c-4.45-1.65-9.75,0.73-11.6,4.89c-3.39-1.65-7.9-0.29-9.84,2.81c-2.76-3.04-8.07-1.32-8.54,2.76c-7.56-1.9-18.25-6.43-21.2-7.23 c0.29-0.66,0.87-0.99,1.47-1.32c3.73-2.11,5.83-4.88,4.76-7.8c-0.2-1.07-1.37-2.44-0.77-3.3c0.17-0.25,0.36-0.54,0.52-0.83 c2.37-3.61-3.99-2.61-4.79-4.49c-0.54-1.27-0.7-2.28-1.38-3.44c2.79-3.47-0.49-8.83-4.67-8.68c-0.31-3.61-2.64-4.09-4.15-4.01 c-1.17-0.63-2.81-0.53-3.89,0.23c-1.63-5.38-9.11-5.27-10.67-0.16c-4.14-0.75-7.7,3.39-6.07,7.55c-3.24,2.7-2.71,8.4,0.94,10.47 c-1.13,4.02,1.15,7.66,3.45,9c0.03,0.42,0.14,1.22,0.54,2.06c-2.65,0.03-5.28,0.31-7.87,0.87c-2.49,0.48-3.17,3.96-1.06,5.34 c1.08,0.86,2.46,0.46,3.69,0.22c0,0,1.51,2.83,1.55,2.91c6.12,13.43,6.03,33.97,14.3,40.14c0.04,0.17,0.11,0.32,0.23,0.41 c1.14,0.86,4.95,2.78,3.81,5.5c-0.44,1.06-1.65,1.37-2.81,1.89c-2.84,1.43-4.01,3.26-3.93,5.02c1.08,3.08,12.38,2.15,12.41,0.23 c0.09-0.52,0.16-1.46-0.21-2.95c-0.38-1.54-0.18-3.21,0.88-4.48c0.93-1.11,1.75-1.27,4.15-1.54c0.39-0.04,0.66-0.21,0.83-0.45 l58.57,0.42c2.35,0.31,3.34,0.43,4.24,1.57c1.06,1.27,1.26,2.94,0.88,4.48c-0.37,1.49-0.3,2.43-0.21,2.95 c0.02,1.91,11.75,2.95,12.41-0.23c0.05-0.22,0.06-0.41,0.03-0.57c-0.26-1.27-1.3-3.25-3.96-4.45c-1.16-0.52-2.37-0.83-2.81-1.89 c-1.14-2.72,2.48-4.39,3.69-5.43c0.12-0.11,0.19-0.3,0.22-0.53c5.92-6.13,5.71-17.82,6.95-26.32c0.18-0.98,0.46-2.49,0.84-4.11 C122.83,78.58,124.44,77,124.02,75.02z M112.45,69.36c0.31,0,0.62,0.04,0.91,0.11v4.43c-0.85,0.11-1.7,0.2-2.55,0.3 c-0.1-1.37-0.47-2.66-1.07-3.81C110.47,69.76,111.41,69.36,112.45,69.36z M109.31,74.35c-5.43,0.53-10.91,0.7-16.44,0.76 c-0.11-3.13,1.62-5.95,4.18-7.4c1.7,0.2,3.47-0.21,4.89-1.03C105.92,67.09,109.06,70.33,109.31,74.35z M97.92,53.12 c3.62,0,6.57,2.95,6.57,6.57c-0.33,8.7-12.81,8.7-13.14,0C91.35,56.07,94.3,53.12,97.92,53.12z M86.93,62.16 c1.32,0,2.57,0.33,3.67,0.9c0.74,1.62,2,2.95,3.57,3.77c0.13,0.29,0.25,0.58,0.35,0.89c-1.99,1.82-3.25,4.5-3.15,7.4 c-3.76,0.03-6.16,0.05-10.77-0.19C76.6,69.88,80.44,62.06,86.93,62.16z M75.12,66.86c0.98,0,1.9,0.23,2.73,0.62 c-0.73,2.38-0.37,5.23,0.86,7.32c-2.94-0.23-6.28-0.6-9.96-1.24C68.52,69.94,71.51,66.85,75.12,66.86z M64.94,68.82 c1.18,0,2.23,0.59,2.86,1.49c-0.36,0.92-0.57,1.91-0.57,2.96c-1.85-0.35-3.77-0.77-5.76-1.26C61.63,70.23,63.12,68.82,64.94,68.82z M35.06,41.55c1.79,1.98,2.3,3.77,3.14,5.99c0.96,1.97,3.09,2.12,4.85,2.64c-0.4,0.68-0.8,1.09-0.94,1.84 c-0.15,1.05,0.26,1.94,0.6,2.73c-2.23,0.41-1.21,1.71,0.47,1.29c0.23,0.82,0.45,2.22-2.16,4.15c-1.95,1.56-3.18,1.46-4.1,3.59 c-2.87-0.91-5.78-1.76-8.72-2.43c0.44-1.87-0.23-3.38-0.4-3.35c-3.15,0.59-5.77-3.19-3.8-4.92c0.66-0.59,1.6-0.19,2.66,0.28 l1.46,0.73c0,0,0.43,0,0.56-0.71c0.63-3.6-4.1-6.53-2.83-8.49c0,0,0.07-0.04,0.19-0.1C29.84,45.44,32.04,42.18,35.06,41.55z M28.07,31.62c3.07,0.07,3.27,4.5,0.22,4.84c-0.32-1.45-1.14-2.77-2.28-3.69C26.44,32.08,27.2,31.62,28.07,31.62z M20.55,28.28 c2.09,0,3.79,1.56,4.05,3.59c0.08,0.03,0,0,0,0c-2.62-1.3-6.12-0.58-7.97,1.66C15.81,30.97,17.87,28.24,20.55,28.28z M21.71,32.72 c2.9,0,5.26,2.36,5.26,5.26c-0.25,6.96-10.27,6.96-10.52,0C16.45,35.08,18.81,32.72,21.71,32.72z M18.7,47.12 c0.6-0.75,1.04-1.64,1.26-2.62c0.8,0.22,1.71,0.3,2.55,0.19C22.54,44.84,22.59,48.66,18.7,47.12z M14.96,32.1 c-0.06,1.04,0.19,2.08,0.67,2.94c-0.27,0.5-0.43,1.05-0.55,1.61c-1.53-0.38-3.29-0.15-4.62,0.6C9.66,34.7,11.75,31.71,14.96,32.1z M13.56,48.11c-7.67-0.41-6.04-11.7,1.4-9.92c0.08,2.5,1.5,4.65,3.58,5.76C18.11,46.31,16.04,48.11,13.56,48.11z M116.43,88.19 c-0.84,8.38-1.84,14.92-5.26,18.64c-2.09-0.22-3.34,1.31-3.34,1.31c0.05-0.01-0.61-3.33-3-2.76c0-0.01,0.01-0.02,0.02-0.02 c-1.22,0.1-2.27,0.95-2.45,2.13c-0.04,0.25-0.19,1.74,0.1,1.9c-0.34-0.27-3.03-1.04-4.28,0.83l-58.84-0.43 c-1.53-1.39-3.54-0.6-3.91-0.4c0.29-0.16,0.14-1.65,0.1-1.9c-0.18-1.18-1.23-2.03-2.45-2.13c0.01,0,0.02,0.01,0.02,0.02 c-2.38-0.58-3.06,2.76-3,2.76c0,0-1.31-1.61-3.49-1.29c-5.94-4.46-7.95-21.71-10.72-31.75c-0.69-2.2-1.48-4.37-2.4-6.48 c3.82-0.25,7.24,0.37,8.45,0.63c14.95,3.23,24.77,9.51,42.52,13.43c18.22,4.02,38.82,3.22,52.46,0.74 C116.76,84.96,116.6,86.56,116.43,88.19z M121.3,76.58c-11.03,2.29-21.94,2.49-33.08,2.51c-7.2,0.02-21.36,0.05-38.53-6.53 C37.95,68,21.54,61.26,7.09,64.43c-1.21,0.27-1.72-1.62-0.43-1.92c15.07-3.23,31.36,3.74,43.9,8.29 c17.51,6.28,31.67,6.32,37.73,6.34c11.06-0.03,21.87-0.24,32.62-2.47C122.18,74.43,122.55,76.3,121.3,76.58z"/>
    <path d="M83.25,54.96c3.32,0,6.01-2.69,6.01-6.01c-0.27-7.96-11.75-7.95-12.02,0C77.24,52.27,79.93,54.96,83.25,54.96z M83.25,44.44c5.96,0.19,5.96,8.83,0,9.02C77.29,53.27,77.29,44.63,83.25,44.44z"/>
  </g>
</svg>