<svg viewBox="0 0 128 128" xmlns="http://www.w3.org/2000/svg">
  <path d="M124,88.6L98.1,77c-0.2-0.1-0.4-0.1-0.6-0.2c0,0,0,0,0,0c-0.2,0-0.3,0-0.5,0c0,0,0,0-0.1,0c0,0,0,0-0.1,0 c-0.1,0-0.3,0-0.4,0.1c0,0-0.1,0-0.1,0c-0.1,0-0.3,0.1-0.4,0.1c0,0-0.1,0-0.1,0c-0.2,0.1-0.3,0.2-0.4,0.3c0,0,0,0-0.1,0.1 c-0.1,0.1-0.2,0.2-0.3,0.3c0,0-0.1,0.1-0.1,0.1c-0.1,0.1-0.1,0.2-0.2,0.3c0,0.1-0.1,0.1-0.1,0.2c-0.1,0.2-0.1,0.3-0.2,0.5 c-0.1,0.4-0.2,0.9-0.4,1.4c-3.1-1.7-5.8-3.4-7.1-4.6c-1.1-1-1.8-5.7-3-11.8c-0.6-2.9-3.3-10.9-3.9-14.3c-1.8-11-3.4-23.7-4.3-31.1 c0.1-0.2,0.1-0.3,0.1-0.5c0-0.3-0.1-0.7-0.3-1c-0.3-2.9-0.5-4.6-0.5-4.6c-0.3-3.2-1.1-8.1-5-8.1c-3.2,0-5.4,1.6-6.3,3.8 c-0.9-2.2-3.2-3.8-6.3-3.8c-4,0-4.7,4.9-5,8.1c0,0-0.2,1.8-0.5,4.7c-0.1,0.4-0.2,0.7-0.2,1c0,0.2,0,0.3,0.1,0.5 c-0.9,7.4-2.5,20-4.3,31.1c-0.6,3.4-3.3,11.4-3.8,14.3c-1.2,6-1.9,10.7-3,11.8c-1.3,1.2-4,2.9-7.1,4.6c-0.1-0.5-0.3-0.9-0.4-1.3 c0,0,0,0,0,0c0-0.2-0.1-0.4-0.2-0.5c0,0,0-0.1-0.1-0.1c-0.1-0.1-0.2-0.3-0.2-0.4c0,0,0-0.1-0.1-0.1c-0.2-0.3-0.5-0.5-0.8-0.6 c0,0,0,0-0.1,0c-0.1-0.1-0.3-0.1-0.4-0.2c0,0-0.1,0-0.1,0c-0.2,0-0.3-0.1-0.5-0.1c0,0,0,0-0.1,0c0,0,0,0,0,0c-0.1,0-0.3,0-0.4,0 c0,0-0.1,0-0.1,0c-0.1,0-0.2,0.1-0.3,0.1c-0.1,0-0.2,0-0.2,0.1L4,88.4V124h39.9l10.8-8.3c1-2.1,0.6-4.7-1.2-6.2 c-0.8-0.7-1.7-1.5-2.7-2.5c1.6-2.5,3.1-5,4.6-7c2.2-2.9,6.6-1.8,8.3-6.2c1.7,4.3,6.1,3.2,8.3,6.2c1.5,2,3,4.4,4.6,7 c-1,0.9-1.9,1.8-2.7,2.5c-1.8,1.6-2.3,4.1-1.2,6.2l10.8,8.3H124V88.6z M54.4,12.4c0.5-4.4,1.4-6.3,3-6.3c2.9,0,4.8,1.7,4.8,4.2 l0,3.2c-0.9-1-2.3-1.7-4.1-1.7c-1.6,0-2.9,0.5-3.8,1.3C54.3,12.7,54.4,12.4,54.4,12.4z M53.8,17.3c0.4-1.3,1.5-3.5,4.3-3.5 c3.6,0,4,3.8,4,4.2c0,0.1,0.1,0.3,0.1,0.4l0,8.4c-1.1-1.4-2.8-2.5-5.2-2.5c-1.9,0-3.3,0.7-4.4,1.7C53.2,22.6,53.5,19.6,53.8,17.3z M58.5,95.8c-1.5,0.6-3.2,1.2-4.5,3c-1.5,1.9-3,4.3-4.5,6.7c0,0,0,0,0,0c-2.6-2.6-5.6-6-8.4-9.8c-3.6-4.9-5.8-9.9-7-13.6 c3.4-1.9,6.4-3.7,7.9-5.1c1.3-1.2,1.9-3.7,2.9-9.1c0.2-1.1,0.5-2.4,0.7-3.7c0.2-1.2,0.9-3.4,1.6-5.7c1-3.3,2-6.6,2.3-8.7 c1-6,1.9-12.6,2.7-18.5c0,0,0-0.1,0.1-0.1c0-0.2,1-4.8,5-4.8c4.1,0,5.1,4.7,5.1,4.8c0,0,0,0.1,0,0.1l0.2,58.1 C62.5,94.3,60.9,94.9,58.5,95.8z M65.3,10.3c0-2.5,1.9-4.2,4.8-4.2c1.7,0,2.6,1.9,3.1,6.3c0,0,0,0.3,0.1,0.7c-1-0.8-2.2-1.3-3.8-1.3 c-1.9,0-3.2,0.7-4.1,1.7L65.3,10.3z M65.3,18.5c0.1-0.1,0.1-0.3,0.1-0.4c0-0.2,0.3-4.2,4-4.2c2.8,0,3.9,2.3,4.3,3.5 c0.3,2.3,0.6,5.3,1.1,8.7c-1.1-1-2.5-1.7-4.4-1.7c-2.3,0-4,1.1-5.2,2.5L65.3,18.5z M86.5,95.7c-2.8,3.9-5.8,7.2-8.4,9.8 c-1.5-2.4-3-4.8-4.5-6.7c-1.3-1.7-3-2.4-4.5-3c-2.4-0.9-4-1.5-4-6.5l0.2-58.1c0,0,0,0,0-0.1c0,0,1-4.8,5.1-4.8c4.1,0,5,4.6,5,4.8 c0,0.1,0,0.1,0.1,0.2c0.8,5.9,1.7,12.4,2.7,18.4c0.3,2,1.3,5.4,2.3,8.6c0.7,2.4,1.3,4.6,1.6,5.7c0.3,1.3,0.5,2.5,0.7,3.7 c1,5.5,1.6,7.9,2.9,9.1c1.5,1.3,4.5,3.2,7.9,5.1C92.3,85.8,90.1,90.7,86.5,95.7z"/>
</svg>