<svg viewBox="0 0 128 128" xmlns="http://www.w3.org/2000/svg">
  <path d="M37.87,103.66c-0.32-11.24-16.36-11.03-16.62,0.15C21.87,114.98,37.57,114.52,37.87,103.66z"/>
  <path d="M99.04,89.3c-6.04,0-10.77,5-10.77,11.02c0.83,14.39,21.07,13.81,21.48-0.2C109.75,94.1,105.08,89.3,99.04,89.3z"/>
  <path d="M115.86,79.31h7.37V79.3c1.02,0.12,0.28-5.02-3.09-7.92c-1.93-1.66-4.83-2.54-8.16-3.07c-0.01-5.07-1.82-28.7-2.23-35.02 c1.3,0.06,2.78-1.33,2.64-3.22c-0.15-1.84-2.61-2.68-7.36-3.14c-3.07-0.3-10.65-1-19.92-1.15c-9.89,0.23-24.75-1.55-25.29,5.59 c0.14,1.39,1.01,1.36,2.02,1.31c-3.39,7.52-7.51,17.85-9.75,26.34c0,0.04-0.01,0.06-0.01,0.09l-0.03,0.01 c-0.38,0.01-1.91,0.05-4.01,0.17V35c0.01-4.74-1.43-9.93-4.89-10.16c-0.84,0.23-3.29,2.29-2.9,3.21c0.38,0.92,2.14,1.99,2.6,4.28 c0.46,2.29,0.23,4.05,0.23,4.05s-1.45,0-1.53,1.15c-0.07,0.97-0.02,17.14-0.01,22.28c-7.46,0.98-23.51,3.69-26,9.62 c-0.55,0.49-0.94,1.91-1.21,3.67c0.6,0,6.48-0.04,9.94,0.1c3.09,0.1,3.19,1.75,0.11,1.97c-3.55,0.29-9.89,0.63-10.39,0.66 c-0.09,0.96-0.15,1.79-0.21,2.77c0.48-0.02,4.25-0.14,7.66-0.14c2.08,0,2.83,0.28,2.83,0.86c0,0.5-1.3,0.96-2.79,1.18 c-3.44,0.49-7.38,0.81-7.87,0.85c-0.05,0.85-0.11,1.76-0.16,2.69c0.95-0.06,4.95-0.24,6.61-0.27c-1.38,0.67-2.7,1.51-3.91,2.49 c-1.33,0.13-2.56,0.25-2.85,0.28c-0.06,0.95-0.11,1.86-0.16,2.68c-0.51,0.61-0.97,1.24-1.4,1.9c0.01-1.34-0.04-2.91-0.4-3.15 C10.7,87.54,1.6,91.5,1.6,92.68s0.32,9.2,0.32,9.63c0,0.32,4.06,2.43,6.46,3.65c3.35,24.02,37.32,25.74,42.43,1.97 c6.12-0.27,16.05-0.28,23.39-0.43c3.32,10.42,13.77,18,24.77,17.83C123.2,125.42,134.11,94.65,115.86,79.31z M41.57,87.67 c1.5,1.12,2.81,2.44,3.91,3.94c-0.88,0.63-2.17,1.54-2.29,1.51c-0.1-0.02-0.73-0.94-1.52-1.69c-0.74-0.71-1.63-1.25-1.63-1.35 C40.04,89.94,40.95,88.59,41.57,87.67z M32.21,83.9c2.03,0.28,3.94,0.83,5.7,1.62c-0.51,0.97-1.27,2.38-1.41,2.38 c-0.21,0-1.09-0.39-2.07-0.69c-0.98-0.3-2.38-0.48-2.44-0.63C31.95,86.48,32.1,84.96,32.21,83.9z M27.88,83.73 c0.08,1.11,0.2,2.73,0.12,2.81c-0.12,0.12-0.97,0.06-2.41,0.4c-0.94,0.22-2.02,0.77-2.11,0.71c-0.06-0.04-0.77-1.62-1.24-2.66 C24.03,84.28,25.92,83.86,27.88,83.73z M16.1,88.96c0.68-0.66,1.42-1.25,2.18-1.79c0.7,0.96,1.74,2.44,1.71,2.59 c-0.03,0.14-1,0.81-1.98,1.75c-0.94,0.91-1.62,1.86-1.74,1.83c-0.08-0.02-1.35-1.2-2.23-2.01C14.67,90.5,15.34,89.7,16.1,88.96z M11.51,95.9c0.99,0.52,2.43,1.27,2.47,1.35c0.05,0.12-0.48,1.43-0.66,2.23c-0.18,0.8-0.36,2.14-0.36,2.14l-2.7-0.17 C10.41,99.52,10.84,97.66,11.51,95.9z M10.28,105.09c1.08-0.02,2.65-0.04,2.71,0.02c0,0,0.18,1.07,0.52,2.29 c0.25,0.94,0.83,2.05,0.74,2.17c-0.06,0.08-1.49,0.84-2.47,1.35C11.01,109.1,10.49,107.14,10.28,105.09z M17.93,118.9 c-1.49-1.16-2.8-2.52-3.92-4.06c0.91-0.6,2.23-1.48,2.32-1.48c0.12,0.06,0.71,0.95,1.51,1.72c0.61,0.59,1.73,1.4,1.73,1.52 C19.57,116.68,18.6,118,17.93,118.9z M27.46,122.86c-1.97-0.25-3.85-0.79-5.6-1.58c0.55-1.04,1.36-2.57,1.44-2.59 c0.11-0.03,0.95,0.43,2.12,0.74c1.08,0.3,2.04,0.28,2.17,0.39C27.72,119.93,27.57,121.68,27.46,122.86z M32.37,122.84 c-0.05-1.17-0.11-2.94-0.05-3c0.11-0.1,0.92-0.15,2.18-0.51c1.29-0.37,2.26-0.82,2.36-0.78c0.08,0.03,0.69,1.65,1.1,2.72 C36.22,122.06,34.35,122.59,32.37,122.84z M29.73,115.1c-7.01,0-11.21-5.24-11.58-10.47c-0.98-16.67,23.13-16.67,23.08-0.96 C41.23,109.8,37.36,115.1,29.73,115.1z M41.83,118.93c-0.67-0.91-1.65-2.26-1.65-2.36c0.03-0.11,1.01-0.98,1.6-1.6 c0.59-0.62,1.46-1.71,1.62-1.73c0.12,0,1.35,1.03,2.2,1.75C44.53,116.48,43.26,117.8,41.83,118.93z M47.9,110.74 c-1-0.47-2.45-1.16-2.46-1.26c-0.02-0.15,0.41-1.26,0.62-1.93s0.57-2.25,0.62-2.35c0.03-0.07,1.45,0.18,2.46,0.38 C48.96,107.39,48.52,109.12,47.9,110.74z M46.45,101.33c-0.18-0.13-0.14-1.18-0.41-2.24c-0.26-1.01-0.62-2.04-0.57-2.22 c0.03-0.12,1.36-0.76,2.3-1.21c0.72,1.76,1.19,3.66,1.39,5.67C48.1,101.37,46.57,101.41,46.45,101.33z M117.28,83.57 c1.43,1.69,2.63,3.57,3.56,5.61c-1.09,0.4-2.77,1-2.85,0.98c-0.12-0.03-0.8-1.59-1.22-2.28c-0.42-0.69-1.48-1.84-1.45-2.05 C115.34,85.69,116.5,84.41,117.28,83.57z M98.69,85.05c9.86-0.07,15.41,7.01,15.41,15.08c0,19.48-28,20-29.84,1.24 C83.63,92.51,89.6,85.12,98.69,85.05z M82.58,81.47c1.66-1.58,3.54-2.91,5.58-3.95c0.63,1.2,1.66,3.16,1.66,3.22 c0,0.09-1.22,0.79-2.26,1.54s-2.12,1.54-2.27,1.54C85.19,83.82,83.57,82.37,82.58,81.47z M113.23,79.75 c-0.82,0.95-2.08,2.4-2.19,2.4c-0.12-0.06-1.43-0.99-2.21-1.5c-0.78-0.51-2.63-1.26-2.66-1.41c-0.02-0.1,0.57-1.69,0.99-2.79 C109.34,77.26,111.38,78.38,113.23,79.75z M97.09,36.01c0.67,0,5.78,0.01,7.06,0.06c1.35,0.08,1.95,0.45,2.03,1.58 s1.28,21.79,1.43,23.37c0.15,1.58-0.53,2.48-1.2,2.48c-0.67,0-5.56,0.08-7.21,0.08c-1.65,0-1.88-0.82-2.03-1.65 c-0.15-0.83-1.13-22.24-1.28-23.67C95.74,36.84,96.19,36.01,97.09,36.01z M98.78,74.95c0.73,0,1.45,0.04,2.17,0.1 c-0.16,1.36-0.43,3.51-0.47,3.55c-0.06,0.06-1.05-0.06-2.84,0.08c-1.82,0.15-2.76,0.4-2.91,0.23c-0.1-0.12-0.68-2.15-1.03-3.4 C95.34,75.15,97.04,74.95,98.78,74.95z M58.27,46.53c1.72-4.69,4.46-10.94,5.78-13.9c1.56-0.03,3.49-0.05,5.67-0.06 c-2.29,5.82-6.81,19.88-7.94,24.89l-7.11-0.27C55.36,54.88,56.61,51.01,58.27,46.53z M73.49,83.12c-2.49,0.06-6.92,0.09-7.12-0.32 c-0.28-0.56-0.09-7.64,0.84-15.56c0.94-7.93,3.11-15.29,3.11-15.29s4.25,0.19,4.53,0c0.28-0.19,2.83-10.67,2.64-11.14 c-0.19-0.47-3.87-0.09-3.87-0.09c0.17-0.87,1.85-6.35,2.85-8.14c5.01,0.03,9.87,0.08,14.94,0.21c0.05,7.72,0.84,29.77,0.9,35.09 c-3.9,0.27-7.33,0.62-8.11,0.88C81.81,69.1,76.36,77.78,73.49,83.12z M81.44,89c0.06,0.12-0.72,1.22-1.26,2.36 c-0.54,1.13-0.78,2.21-0.87,2.21c-0.06,0-2.19-0.5-3.5-0.81c0.59-2.16,1.47-4.21,2.59-6.09C79.53,87.52,81.4,88.92,81.44,89z M74.9,99.29c0-0.09,0.01-0.18,0.01-0.27c1.3,0.04,3.42,0.13,3.44,0.21c0.03,0.12,0.03,1.73,0.15,2.69 c0.12,0.95,0.45,2.54,0.39,2.63c-0.04,0.06-2,0.47-3.26,0.72C75.14,103.34,74.89,101.33,74.9,99.29z M82.44,116.77 c-1.69-1.56-3.13-3.4-4.27-5.33c1.12-0.62,2.89-1.59,2.96-1.54c0.12,0.09,0.6,1.11,1.41,2.1c0.8,0.98,2.06,2.21,2.06,2.3 C84.6,114.36,83.27,115.84,82.44,116.77z M93.43,122.69c-2.17-0.51-4.24-1.31-6.18-2.39c0.69-1.06,1.82-2.76,1.9-2.77 c0.15-0.03,1.17,0.69,2.34,1.11c1.16,0.42,2.72,0.81,2.72,0.81L93.43,122.69z M98.97,123.33c-0.41,0-0.82-0.01-1.23-0.03l0.72-3.5 c0,0,1.6,0.08,2.7-0.01c1.04-0.08,2.41-0.5,2.56-0.41c0.1,0.06,0.7,2,1.08,3.23C102.93,123.08,100.98,123.33,98.97,123.33z M109.5,120.9c-0.57-1.2-1.48-3.17-1.34-3.27c0.12-0.09,1.58-0.93,2.45-1.56c0.86-0.63,1.94-1.65,2.06-1.74 c0.08-0.06,1.74,1.54,2.73,2.51C113.65,118.47,111.67,119.85,109.5,120.9z M119.16,112.36c-1.1-0.79-2.92-2.1-2.94-2.2 c-0.03-0.15,0.75-1.31,1.29-2.3c0.54-0.98,1.02-2.33,1.17-2.36c0.1-0.02,2.02,0.63,3.24,1.06 C121.26,108.63,120.33,110.57,119.16,112.36z M119.54,100.99c-0.06-0.15,0.1-1.77,0.03-2.93c-0.09-1.4-0.33-2.93-0.24-3.05 c0.06-0.08,1.95-0.56,3.17-0.86c0.51,2.34,0.67,4.88,0.45,7.3C121.64,101.32,119.58,101.09,119.54,100.99z"/>
</svg>