<svg viewBox="0 0 128 128" xmlns="http://www.w3.org/2000/svg">
  <path d="M116,4H11.5C7.37,4.03,4.03,7.37,4,11.5V116c0,4.42,3.58,8,8,8h104c4.42,0,8-3.58,8-8V12C124,7.58,120.42,4,116,4z M63.99,13c8.28,0,15,6.72,15,15c0,8.28-6.72,15-15,15c-8.28,0-15-6.72-15-15C48.99,19.72,55.7,13,63.99,13z M22.7,48.15 c1.88-2.08,5.09-2.24,7.34-0.57c2.03,1.51,4.96,3.68,6.6,4.9c0.77,0.58,1.78,0.69,2.66,0.31c4.31-1.88,10.86-4.72,14.39-6.19 c0.21-0.08,0.54-0.19,0.75-0.27c2.5-0.74,5.79-1.11,8.45-1.29C63.26,45.01,63.63,45,64,45s0.74,0.01,1.11,0.05 c2.66,0.18,5.94,0.55,8.45,1.29c0.21,0.08,0.54,0.19,0.75,0.27c3.54,1.47,10.09,4.31,14.4,6.19c0.87,0.38,1.88,0.26,2.65-0.31 l6.6-4.9c2.24-1.67,5.47-1.52,7.34,0.56c2.15,2.39,1.75,6.03-0.78,7.91L94.09,63.8c-0.94,0.7-2.04,1.05-3.13,1.05 c-2.54,0-9.72-2.72-9.72-2.72c-0.58-0.19-1.17,0.24-1.17,0.85v5.16c0,0.55-0.45,1-1,1H48.92c-0.55,0-1-0.45-1-1v-5.16 c0-0.61-0.59-1.04-1.17-0.85c0,0-7.18,2.72-9.72,2.72c-1.09,0-2.19-0.35-3.13-1.05l-10.43-7.75C20.96,54.18,20.55,50.53,22.7,48.15z M77.04,90.08c-0.35-0.35-0.4-0.9-0.11-1.3l6.39-8.74c0.36-0.5,1.08-0.56,1.52-0.12l5.17,5.07c3.32,3.34,3.32,8.73-0.01,12.06 l-10.07,10.07c-2.55,2.55-6.7,2.5-9.19-0.14c-2.4-2.55-2.15-6.62,0.33-9.1l6.74-6.8L77.04,90.08z M81.83,75.72 c0,0.54-0.17,1.06-0.49,1.5l-0.56,0.77l0.02,0.02l-8.6,11.78c-0.67,0.92-1.73,1.47-2.85,1.47h-10.7c-1.12,0-2.18-0.54-2.85-1.47 l-9.37-12.96c-0.17-0.35-0.26-0.72-0.26-1.11v-1.66c0-0.88,0.6-1.61,1.4-1.79h32.86c0.8,0.18,1.4,0.91,1.4,1.79V75.72z M51.07,88.78 c0.29,0.4,0.24,0.95-0.11,1.3l-0.77,1l6.74,6.8c2.48,2.48,2.73,6.55,0.33,9.1c-2.49,2.64-6.64,2.69-9.19,0.14L38,97.05 c-3.33-3.33-3.33-8.72-0.01-12.06l5.17-5.07c0.44-0.44,1.16-0.38,1.52,0.12L51.07,88.78z"/>
</svg>