<svg viewBox="0 0 128 128" xmlns="http://www.w3.org/2000/svg">
  <g>
    <path d="M111.5,19.75c-0.3,0-29.11-1-46.01-15.3c-0.7-0.6-1.7-0.6-2.4,0c-17.11,14.2-46.02,15.2-46.32,15.3c-1,0-1.7,0.8-1.7,1.8 v0.1c-1.5,25.91,3.03,59.27,24.01,83.52c12.1,14.7,23.91,18.53,24.51,18.73c0,0,0.28,0.09,0.54,0.09s0.57-0.1,0.57-0.1 c0.5-0.2,12.48-4.02,24.49-18.72c19.91-24.21,24.01-58.82,24.01-83.52v-0.1C113.2,20.55,112.4,19.75,111.5,19.75z M107.66,22.57 c1.07,0,1.93,0.86,1.93,1.93s-0.86,1.93-1.93,1.93c-1.07,0-1.93-0.86-1.93-1.93S106.59,22.57,107.66,22.57z M94.53,20.64 c1.07,0,1.93,0.86,1.93,1.93s-0.86,1.93-1.93,1.93c-1.07,0-1.93-0.86-1.93-1.93S93.46,20.64,94.53,20.64z M81.73,17.1 c1.07,0,1.93,0.86,1.93,1.93c0,1.07-0.86,1.93-1.93,1.93c-1.07,0-1.93-0.86-1.93-1.93C79.8,17.96,80.66,17.1,81.73,17.1z M70.15,11.87c1.07,0,1.93,0.86,1.93,1.93s-0.86,1.93-1.93,1.93s-1.93-0.86-1.93-1.93S69.08,11.87,70.15,11.87z M57.54,11.87 c1.07,0,1.93,0.86,1.93,1.93s-0.86,1.93-1.93,1.93c-1.07,0-1.93-0.86-1.93-1.93S56.47,11.87,57.54,11.87z M45.95,17.1 c1.07,0,1.93,0.86,1.93,1.93c0,1.07-0.86,1.93-1.93,1.93s-1.93-0.86-1.93-1.93C44.02,17.96,44.88,17.1,45.95,17.1z M33.16,20.64 c1.07,0,1.93,0.86,1.93,1.93s-0.86,1.93-1.93,1.93c-1.07,0-1.93-0.86-1.93-1.93S32.09,20.64,33.16,20.64z M20.02,22.57 c1.07,0,1.93,0.86,1.93,1.93s-0.86,1.93-1.93,1.93s-1.93-0.86-1.93-1.93S18.95,22.57,20.02,22.57z M17.66,36.3 c0-1.07,0.86-1.93,1.93-1.93c1.07,0,1.93,0.86,1.93,1.93s-0.86,1.93-1.93,1.93C18.52,38.23,17.66,37.37,17.66,36.3z M19.22,50.12 c0-1.07,0.86-1.93,1.93-1.93c1.07,0,1.93,0.86,1.93,1.93s-0.86,1.93-1.93,1.93C20.08,52.05,19.22,51.19,19.22,50.12z M23.89,65.94 c-1.07,0-1.93-0.86-1.93-1.93s0.86-1.93,1.93-1.93s1.93,0.86,1.93,1.93S24.96,65.94,23.89,65.94z M28.49,80.29 c-1.07,0-1.93-0.86-1.93-1.93s0.86-1.93,1.93-1.93s1.93,0.86,1.93,1.93S29.56,80.29,28.49,80.29z M34.36,92.56 c-1.07,0-1.93-0.86-1.93-1.93s0.86-1.93,1.93-1.93s1.93,0.86,1.93,1.93S35.43,92.56,34.36,92.56z M42.42,104 c-1.07,0-1.93-0.86-1.93-1.93s0.86-1.93,1.93-1.93s1.93,0.86,1.93,1.93S43.49,104,42.42,104z M52.76,114 c-1.07,0-1.93-0.86-1.93-1.93s0.86-1.93,1.93-1.93s1.93,0.86,1.93,1.93S53.83,114,52.76,114z M63.6,119.4 c-1.07,0-1.93-0.86-1.93-1.93c0-1.07,0.86-1.93,1.93-1.93c1.07,0,1.93,0.86,1.93,1.93C65.53,118.54,64.67,119.4,63.6,119.4z M74.92,114c-1.07,0-1.93-0.86-1.93-1.93s0.86-1.93,1.93-1.93s1.93,0.86,1.93,1.93S75.99,114,74.92,114z M85.26,104 c-1.07,0-1.93-0.86-1.93-1.93s0.86-1.93,1.93-1.93s1.93,0.86,1.93,1.93S86.33,104,85.26,104z M83.95,96.86 c-9.6,11.74-19,14.81-19.41,14.91l-0.41,0.1l-0.41-0.1c-0.41-0.1-9.81-3.16-19.41-14.91c-15.94-19.31-19-46.99-19-66.71v-0.1 c0-0.72,0.2-1.74,1.02-1.74c0.31,0,23.3-0.71,36.88-12.05c0,0,0.75-0.78,1.94,0.2c13.48,11.34,36.47,12.16,36.67,12.16h-0.1 c0.82,0,1.23,0.61,1.23,1.43v0.1C102.95,49.97,99.89,77.55,83.95,96.86z M93.33,92.56c-1.07,0-1.93-0.86-1.93-1.93 s0.86-1.93,1.93-1.93s1.93,0.86,1.93,1.93S94.4,92.56,93.33,92.56z M99.19,80.29c-1.07,0-1.93-0.86-1.93-1.93s0.86-1.93,1.93-1.93 s1.93,0.86,1.93,1.93S100.26,80.29,99.19,80.29z M103.79,65.94c-1.07,0-1.93-0.86-1.93-1.93s0.86-1.93,1.93-1.93 c1.07,0,1.93,0.86,1.93,1.93S104.86,65.94,103.79,65.94z M106.53,52.05c-1.07,0-1.93-0.86-1.93-1.93s0.86-1.93,1.93-1.93 c1.07,0,1.93,0.86,1.93,1.93S107.6,52.05,106.53,52.05z M108.09,38.23c-1.07,0-1.93-0.86-1.93-1.93s0.86-1.93,1.93-1.93 c1.07,0,1.93,0.86,1.93,1.93S109.16,38.23,108.09,38.23z"/>
    <path d="M98.89,30.36h0.09c-0.19,0-21.44-0.77-33.91-11.45c-0.34-0.34-0.66-0.46-0.94-0.47v90.35l0.38-0.1 c0.38-0.1,9.07-2.98,17.95-14.05c14.73-18.19,17.57-44.17,17.57-62.84v-0.1C100.02,30.94,99.65,30.36,98.89,30.36z"/>
  </g>
</svg>