<svg viewBox="0 0 128 128" xmlns="http://www.w3.org/2000/svg">
  <g>
    <path d="M64,4C30.86,4,4,30.86,4,64s26.86,60,60,60s60-26.86,60-60S97.14,4,64,4z M64,114c-27.61,0.2-50-22.39-50-50 c-0.04-11.38,3.86-22.41,11.02-31.24L49.5,57.02c-0.07,0.13-0.14,0.27-0.2,0.38c-0.33,0.63-0.91,1.1-1.6,1.3l-9.6,2.7 c-1.13,0.32-1.93,1.33-2,2.5c-0.02,1.42,1.11,2.59,2.53,2.61c0.26,0,0.52-0.03,0.77-0.11L51.3,63c0.08-0.01,0.15-0.05,0.2-0.1 c0,0,0.2,0,0.2-0.1c0.1-0.12,0.24-0.2,0.4-0.2h0.1c0.31-0.23,0.55-0.54,0.7-0.9l0.42-0.9l3.45,3.43L56.7,69.7 c-0.01,0.54-0.19,1.06-0.5,1.5l-7,8.5c-0.75,0.93-0.94,2.19-0.5,3.3l3.9,15.7c0.4,1.74,2.14,2.83,3.89,2.43 c0.04-0.01,0.08-0.02,0.11-0.03c1.77-0.43,2.86-2.21,2.43-3.98C59.02,97.08,59.01,97.04,59,97l-3.4-13.7c-0.11-0.49,0-1,0.3-1.4 l6.5-8c0.23-0.32,0.61-0.5,1-0.5h1c0.68-0.03,1.27,0.49,1.3,1.18c0,0.01,0,0.01,0,0.02c-0.01,2.82,0.26,5.63,0.8,8.4 c0.18,0.63,0.45,1.24,0.8,1.8l10.9,15.7c1,1.5,3.03,1.91,4.53,0.91c0.29-0.19,0.55-0.43,0.77-0.71c0.98-1.18,1.02-2.87,0.1-4.1 l-10-14.5c-0.36-0.57-0.58-1.2-0.68-1.86l22.67,22.46C85.35,110.85,75.53,113.92,64,114z M102.7,95.6l-0.01,0.01L72.4,65.58V51.6 c-0.01-0.35,0.27-0.65,0.62-0.66c0.09,0,0.19,0.02,0.28,0.06l4.9,2c0.31,0.13,0.49,0.47,0.4,0.8L76,62.4 c-0.46,1.35,0.26,2.81,1.61,3.27c0.03,0.01,0.06,0.02,0.09,0.03c1.37,0.37,2.81-0.36,3.3-1.7l3.2-10.5c0.59-1.55-0.05-3.3-1.5-4.1 c0,0-8.9-6.5-18.9-6.6c-3.3,0-6.2,0.9-7.5,2.3c-0.34,0.37-0.99,1.42-1.78,2.76L32.08,25.62l0.32-0.32 C41.29,17.96,52.47,13.96,64,14c27.61,0,50,22.39,50,50C114.04,75.53,110.04,86.71,102.7,95.6z"/>
    <ellipse cx="63.9" cy="33.8" rx="7.8" ry="7.8" transform="matrix(0.9871 -0.1602 0.1602 0.9871 -4.589 10.6721)"/>
  </g>
</svg>