<svg viewBox="0 0 128 128" xmlns="http://www.w3.org/2000/svg">
  <path d="M124,39.21V11.42h-0.01V4c0,0-46.22,0-70.24,0c-7.99,0-14.45,2.41-19.67,6.13h-0.03c-1.16,0.83-2.58,1.83-3.68,2.87h0.17 c-5.68,5.23-9.63,12.04-12.39,18.49c-0.18,0.43-0.36,0.85-0.53,1.28c0,0.01,0,0.01,0,0.01c-0.18,0.45-0.36,0.9-0.53,1.35 c-0.18,0.48-0.36,0.95-0.53,1.42c-0.02,0.07-0.05,0.15-0.08,0.22c-0.12,0.35-0.25,0.7-0.37,1.04c-0.02,0.06-0.04,0.12-0.06,0.18 h-0.01c-1.1,2.85-2.71,8.76-2.71,8.76h0.01c-0.35,1.36-0.59,2.62-0.65,3.76c-0.15,2.08,0.46,3.93,2.33,5.68 c0.07,0.07,0.4,0.27,0.89,0.55c0.39,0.3,0.81,0.6,1.28,0.91l5.88,2.93c2.97,1.56,5.61,2.93,5.61,2.93h0.24 c0.1,0.18,0.19,0.4,0.31,0.64c0.12,0.25,0.25,0.52,0.39,0.81H4v38.52l7.15,8.75V124H37.1v-12.77l7.15-8.75h39.49l7.15,8.75V124 h25.96v-12.77l7.15-8.75v-2.94h-0.01V82.49H124V49.51h-0.01v-10.3H124z M29.37,18.54c1.81-2.13,3.76-3.96,5.84-5.51l6.22,0.04 c0.47,0,0.58,0.58,0.24,0.92c-3.12,3.19-6.09,5.64-14.32,17.95c-2.51,3.76-5.05,4.32-7.07,4.74c-0.29,0.06-0.63,0.11-0.98,0.15 C21.97,29.42,25.35,23.28,29.37,18.54z M18.05,38.88c1.16-1.05,2.68-1.27,3.39-0.48s0.35,2.28-0.81,3.33 c-1.16,1.05-2.68,1.27-3.39,0.48C16.53,41.42,16.89,39.93,18.05,38.88z M15.7,49.51c0.07-1.06,0.34-2.31,0.73-3.71 c3.39-0.32,8.12-2.14,12.79-9.6C39.16,20.31,47.15,13.05,50.55,11c0.31-0.18,0.5-0.87-0.61-0.87H39.92C44.12,8.05,48.73,7,53.75,7 h67.24v4.42H73.14c-4.99,0-9.36,2.03-13.11,5.2h-4.51c-6.29,0-13.76,13.07-16.97,19.33c-0.75,1.47,0.24,3.26,1.8,3.26h5.36 c-2.99,6.3-9.08,10.3-15.75,10.3C29.96,49.51,15.7,49.51,15.7,49.51z M58.25,39.67c0.05-0.15,0.11-0.31,0.17-0.46h62.57v10.3H64.66 C59.91,49.51,56.63,44.45,58.25,39.67z M57.16,36.19c-0.42,0.01-0.76-0.36-0.76-0.81V20.44c0-0.45,0.34-0.81,0.76-0.81h19.12 c0.42,0,0.76,0.36,0.76,0.81v14.94c0,0.45-0.34,0.81-0.76,0.81C76.28,36.19,57.16,36.19,57.16,36.19z M78.91,35.38V20.44 c0-0.45,0.34-0.81,0.76-0.81H98.8c0.42,0,0.76,0.36,0.76,0.81v14.94c0,0.45-0.34,0.81-0.76,0.81H79.67 C79.25,36.2,78.91,35.83,78.91,35.38z M102.19,36.2c-0.42,0-0.76-0.36-0.76-0.81V20.44c0-0.45,0.34-0.81,0.76-0.81h18.8V36.2H102.19 z M54.52,21.47v13.91c0,0.45-0.34,0.81-0.76,0.81h-10.5v0.01c-0.57,0-1-0.24-0.68-1.18c0.19-0.55,5.12-10.6,10.78-14.24 C53.87,20.45,54.52,20.84,54.52,21.47z M7,66.96h14.27c1.23,0.67,2.49,1.46,3.69,2.41H7V66.96z M120.99,97.09H7V72.9h21.46 c0.04,0.05,0.07,0.09,0.11,0.14c4.17,5.65,6.37,9.45,17.48,9.45h74.94C120.99,82.49,120.99,97.09,120.99,97.09z M121,76.17H48.52 c-8.88,0-11.85-3.28-14.49-9.74c-0.19-0.45-0.44-1.02-0.72-1.63H121V76.17z"/>
</svg>