<svg viewBox="0 0 128 128" xmlns="http://www.w3.org/2000/svg">
  <g>
    <path d="M67.6,22.59l3.09,0.68c1.33,2.85,5.52,3.81,7.95,1.73l3.76,0.82c1.37,2.65,5.31,3.56,7.7,1.68l33.9,7.38v-4.09l-27.91-6.08 c0.16-0.9,1.25-7.98-3.93-9.25L34.1,3.97c-1.12-0.23-2.2,0.58-2.26,1.73c-0.08,1.6-0.51,3.64,0.83,5.2L4,4.66v4.08l29.49,6.42 c1.14,3.49,6.19,4.61,8.7,1.9l2.96,0.64c1.21,3.29,6,4.37,8.5,1.86l2.12,0.46c1.14,1.5,0.4,3.9,1.96,5.1 c-1.03,4.27-2.4,8.7-2.89,12.94c-0.97,9.39,1.47,16.36,7.43,20.64h-6.58c-1.9-0.03-3.38,1.9-2.81,3.72H48.6 c-3.83,0-6.31,3.53-6.31,3.53s-7.72,3.11-7.77,5.76c0,0-0.01,7.63,0,11.27h0.01c0.02,4.29,0.08,19.95,0.1,24.52 c-0.07,6.22,4.74,10.54,9.59,12.66c0.65,0.47,4.88,3.34,11.01,3.34h24.29c5.95,0,10.11-2.7,10.94-3.29c0-0.01,0.02-0.01,0.02-0.01 c1.44-0.64,9.67-4.27,9.67-12.7l0.1-24.52h0.02c-0.01-3.28,0-7.93,0.02-11.25l-0.04-0.03c0.01-0.49-0.29-0.9-0.58-1.29 c-1.8-1.98-4.58-3.46-7.02-4.32c0,0-2.93-3.67-7.01-3.67h-3.69c0.57-1.82-0.9-3.75-2.81-3.72h-4.63c-0.18-0.76-0.85-2.13-3.29-3.11 c-13.87-5.37-9.24-18.18-6.55-29.48C66.88,25.31,66.29,23.44,67.6,22.59z M50.41,102.57c0,1.18-0.95,2.14-2.13,2.15H36.62 c-0.01-2.34-0.1-23.47-0.11-25.19l11.77,0.08c1.18,0,2.13,0.96,2.13,2.15V102.57z M98.25,80.98v1.99l-0.09,21.75H86.47 c-1.18-0.01-2.13-0.97-2.13-2.15V81.76c0-1.19,0.95-2.15,2.13-2.15l11.79-0.08l0.01,1.45H98.25z M91.54,67.87 c2.36,0.66,5.17,2.18,6.71,3.97c0,0,0,0.01,0.01,0.01c0.05,0.43,0.01,4.67,0.01,5.22H85.53c-2.18,0.03-3.08,1.95-2.85,3.91h-2.15 v36.46c0,2.35-1.91,4.26-4.27,4.26H59.41c-2.36,0-4.27-1.91-4.27-4.26V80.98h-3.06c0.23-1.96-0.67-3.87-2.85-3.91H36.5 c0.01-1.44-0.01-3.56-0.01-4.99c0.08-0.2,0.45-0.56,0.68-0.78c1.65-1.39,4.03-2.9,6.1-3.43H91.54z"/>
    <path d="M59.41,119.7h16.85c1.07,0,1.97-0.75,2.2-1.75c0.04-0.16,0.07-0.33,0.07-0.51V76.95c0-1.25-1.02-2.26-2.27-2.26H59.41 c-1.25,0-2.27,1.01-2.27,2.26v40.49c0,0.49,0.16,0.95,0.43,1.32C57.98,119.33,58.65,119.7,59.41,119.7z M60.69,81.64 c0-1.1,0.9-2,2-2h9.67c1.11,0,2,0.9,2,2v21.1c0,1.1-0.9,2-2,2h-9.67c-1.1,0-2-0.9-2-2V81.64z"/>
  </g>
</svg>