<svg viewBox="0 0 128 128" xmlns="http://www.w3.org/2000/svg">
  <g>
    <path d="M38.5,34.2c1.1-0.6,1.5-1.9,0.9-3c-0.4-1.1-1.6-1.6-2.7-1.2c-1.6,0.5-3.2,1.2-4.7,2c-4,2.2-7.3,5.3-9.9,9 c-0.7,1-0.5,2.3,0.4,3c0.5,0.4,1.1,0.6,1.8,0.5c0.5-0.1,0.9-0.3,1.3-0.7c3.8-3.8,8.1-7,12.8-9.7L38.5,34.2z"/>
    <path d="M108,40c-2.6-3.7-5.9-6.8-9.9-9c-1.5-0.8-3-1.5-4.7-2c-1.1-0.4-2.3,0.2-2.7,1.2c-0.5,1.1-0.1,2.3,0.9,2.9l0.1,0.1 c4.7,2.7,9,5.9,12.8,9.7c0.3,0.3,0.8,0.6,1.3,0.6c0.6,0.1,1.3-0.1,1.8-0.5C108.5,42.3,108.7,41,108,40z"/>
    <path d="M95.4,68.9c-0.2,0-0.3,0.1-0.5,0.1c-10.3,3-20.9,4.5-31.6,4.4C52.7,73.5,42,72,31.8,69c-2.7-1-5.7,0.1-7.1,2.6 c-0.1,0.3-0.2,0.5-0.3,0.8c0,0.1-0.1,0.2-0.1,0.3c0,0,0,0,0,0.1c0,0,0,0,0,0c-0.6,2.2,0.3,4.6,1.2,6.7c0.4,0.8,0.8,1.6,1.2,2.3 c0.1,0.2,0.2,0.3,0.3,0.5c0.1,0.2,0.2,0.3,0.3,0.5c0,0,0,0,0-0.1c4.3,7.4,10.9,13,19,16.2c0.2-0.3,0.4-0.6,0.8-0.9 c0.4-0.4,0.8-0.7,1.2-1c4.4-3.5,9.8-5.4,15.4-5.3c5.4-0.1,10.7,1.8,14.8,5.4c0.4,0.3,0.8,0.7,1.1,1c0.3,0.3,0.5,0.7,0.7,1 c8.4-3.2,15.2-8.8,19.6-16.4c0,0.1,0,0.1,0,0.1c0.6-1.1,1.2-2.2,1.8-3.3c1.1-2.5,2.1-5.4,0.8-7.9c-0.4-0.6-0.8-1.2-1.4-1.6 C99.3,68.8,97.3,68.3,95.4,68.9z M64.1,82.2c-13.1,0.2-26-2.7-37.8-8.4c0.1-0.4,0.3-0.7,0.5-1c0.6-1,1.7-1.6,2.8-1.6 c0.5,0,0.9,0.1,1.4,0.2C41.4,74.5,52.3,76,63.2,76h0.4c10.9,0,21.7-1.5,32.2-4.6c0.5-0.1,0.9-0.2,1.4-0.2c1.1,0.1,2.2,0.7,2.8,1.6 c0.3,0.4,0.5,1,0.6,1.7C89.1,79.7,76.7,82.4,64.1,82.2z"/>
    <path d="M124.5,70.1c-0.8-1.6-1.8-2.9-2.9-4.1c0-1,0.1-2,0.1-3.1c0-16.9-6.1-31.3-17.6-41.5C93.4,12.1,79.1,7,63.6,7 c-27.9,0-58,17.5-58,55.9c0,1.3,0,2.6,0.1,3.9c-0.8,1-1.5,2.1-2.2,3.3c-2.8,5.2-3,13.9,2.9,17.1c1.6,0.9,3.2,1.3,4.7,1.3 c9.9,20.6,31.8,30.3,52.5,30.3c15.4,0,29.8-5.2,40.4-14.5c5.1-4.5,9.1-9.8,12-15.8c1.8,0.2,3.7-0.2,5.6-1.3 C127.5,84.1,127.3,75.3,124.5,70.1z M10.4,75.1l-0.5,4c-0.2,1.3-0.5,2.8-1.6,3.4c-1.3,0.5-2.8,0-3.4-1.2c-1.4-2.3-0.6-9.1,1.1-11.5 c0.8-1,3.3-2.9,4.7-2.2C12.2,68.4,10.6,73.5,10.4,75.1z M100.7,57.1c0,0,4,6.6,6.3,22.6c0.4,3,2.4,6,5.2,7.6 c-2.7,5.3-6.3,10-10.8,14c-9.9,8.7-23.3,13.5-37.8,13.5c-13.8,0-27.3-4.6-36.9-12.6c-4.9-4.1-8.8-9-11.6-14.5 c3.2-1.5,5.4-4.7,5.9-8c2.3-16,6.3-22.6,6.3-22.6s-10,0.3-17.7,6.1c0-0.1,0-0.2,0-0.2c0-16.4,5.9-30,17.1-39.3 c9.6-8,23.1-12.6,36.9-12.6c14.5,0,27.9,4.8,37.7,13.4c10.6,9.4,16.2,22.6,16.2,38.2C110,57.4,100.7,57.1,100.7,57.1z M123.3,81.3 c-0.7,1.2-2.1,1.8-3.4,1.2c-1.2-0.6-1.5-2.1-1.6-3.4l-0.5-4c-0.2-1.6-1.9-6.7-0.2-7.6c1.4-0.7,3.9,1.2,4.7,2.2 c1,1.5,1.7,4.7,1.8,7.5C124,78.9,123.8,80.4,123.3,81.3z"/>
    <path d="M31,48.5c-0.7,0.9-1.3,2-1.8,3c-0.2,0.4-0.3,0.7-0.4,0.9l-0.1,0.3c-0.5,1.3-0.1,2.7,0.9,3.6c1.4,1.2,3.5,1.1,4.7-0.3 l0.3-0.3l0.6-0.6c0.5-0.5,1-1,1.5-1.5c0.7-0.6,1.4-1,2.2-1.4c0.4-0.2,0.8-0.3,1.2-0.4c0.2,0,0.4-0.1,0.5-0.1c0.1,0,0.2,0,0.3,0h0.4 c0.8,0,1.7,0.2,2.4,0.5c0.8,0.4,1.5,0.8,2.2,1.4c0.3,0.3,0.6,0.5,0.9,0.8l0.6,0.6c0.1,0.1,0.2,0.2,0.3,0.3l0.2,0.3l0.2,0.2l0,0 c0.9,1.1,2.3,1.5,3.7,1.1c1.8-0.6,2.7-2.5,2.2-4.2l-0.1-0.3c0-0.1-0.1-0.2-0.1-0.3c0-0.2-0.1-0.3-0.2-0.5c-0.5-1.1-1.1-2.2-1.9-3.1 c-1.1-1.4-2.4-2.6-4-3.5c-0.9-0.5-1.9-1-3-1.2c-1.1-0.3-2.2-0.4-3.4-0.5h-0.8c-0.1,0-0.6,0.1-0.9,0.1c-0.6,0.1-1.2,0.2-1.7,0.3 C35.2,44.5,32.8,46.2,31,48.5z"/>
    <path d="M79.6,56.1l0.3-0.3l0.6-0.6c0.5-0.5,1-1,1.5-1.5c0.7-0.6,1.4-1.1,2.2-1.4c0.4-0.2,0.8-0.3,1.2-0.4c0.2,0,0.4-0.1,0.5-0.1 c0.1,0,0.2,0,0.3,0h0.4c0.8,0,1.7,0.2,2.5,0.5c0.8,0.4,1.5,0.8,2.2,1.4c0.3,0.2,0.6,0.5,0.9,0.8l0.6,0.6c0.1,0.1,0.2,0.2,0.3,0.3 l0.2,0.3l0.2,0.2l-0.1,0c0.9,1.1,2.3,1.5,3.7,1.1c1.8-0.6,2.7-2.5,2.2-4.2l-0.1-0.3c0-0.1-0.1-0.2-0.1-0.3c0-0.2-0.1-0.3-0.2-0.5 c-0.2-0.5-0.5-1-0.7-1.4c-0.3-0.6-0.7-1.2-1.1-1.7c-1.1-1.4-2.5-2.6-4-3.5c-0.9-0.5-1.9-1-3-1.3c-1.1-0.3-2.2-0.4-3.4-0.5h-0.8 c-0.1,0-0.6,0.1-0.9,0.1c-0.6,0.1-1.2,0.2-1.7,0.3c-2.8,0.8-5.2,2.5-7,4.8c-0.7,1-1.3,2-1.8,3.1c-0.2,0.4-0.3,0.7-0.4,0.9L74,52.8 c-0.5,1.3-0.1,2.7,0.9,3.6C76.3,57.7,78.4,57.5,79.6,56.1z"/>
  </g>
</svg>