<svg viewBox="0 0 128 128" xmlns="http://www.w3.org/2000/svg">
  <g>
    <path d="M122.42,38.59c-0.35-3.08-2-9.35-5.03-12.78c-0.88-1-3.33-4.68-9.11-5.55c-1.29-0.19-64.36-0.35-64.36-0.35 s-3-3.96-8.11-4.49c-0.44-0.05-0.87-0.07-1.28-0.07c-3.75,0-6.5,1.7-7.24,2.21c-0.03-0.03-0.04-0.05-0.04-0.05 s-9.79,0.28-9.96,1.85c-0.16,1.52,13.54,13.79,14.7,14.62c-2.1,4.69-7.59,17.14-8.88,22.19c-0.51,2.01-0.53,3.21-0.53,3.49 c-0.01,0-0.02,0-0.02,0l-0.05,7.97c0,0,0.2,5.58,2.13,10.74c0.81,2.14,1.91,4.12,3.12,5.9l-2.59,2.37 c-2.01-1.27-4.15-2.17-6.38-2.49c-0.82-0.12-1.61-0.19-2.36-0.22c2.57-1.55,4.25-3.59,4.25-4.7c0-2.34-5.04-7.35-10.73-7.19 c-2.27,0.06-4.48,1.71-4.6,6.94c-0.07,3.49,1.47,5.7,3.22,6.55c-2.41,1.24-4.06,3.09-4.98,5.05c-1.87,3.99-1.23,8.45-1.07,8.58 c0.18,0.14,3.41-1.44,7.73-2.5c-1.06,0.9-2.01,1.96-2.82,3.17c-4.76,7.11-2.9,16.55,4.21,21.31s16.57,3.19,21.33-3.92 c2.5-3.74,3.31-7.99,2.39-11.97c0.01,0.01,0.01,0.02,0.01,0.02s4.27,0.27,4.71-0.04c0.14-0.1-0.68-1.96-2.22-4.54l45.94,0.12h0.01 c-0.7,3.71-0.47,6.57-0.47,6.57s1.32,0.03,3.49,0.06v0.05c-0.27,9.14,7.16,16.45,16.3,16.45c9.02,0,16.21-7.07,16.39-16.04 c2.53,0,4.15-0.02,4.23-0.09c0.17-0.14,0.49-4.05-0.64-8.64c0,0,0,0,0-0.01c0.29-0.68,0.55-1.38,0.55-1.72 c0-0.81-0.28-28.88-0.29-29.76c0.01-0.01,0.01-0.01,0.02-0.01c1.59-0.27,1.85-2.29,1.94-3.79 C125.42,62.38,122.77,41.67,122.42,38.59z M9.23,82.82c-1.26,0.06-2.33-1.77-2.21-4.42c0.09-1.95,1.07-3.85,2.02-3.85 c1.2,0,2.02,1.83,2.02,4.23C11.06,80.68,10.36,82.77,9.23,82.82z M22.86,114.32c-3.78,1.69-7.69-0.1-9.04-3.69 c-1.44-3.82,0.66-7.45,4-8.86c3.48-1.46,7.21,0.58,8.47,3.49C27.79,108.74,26.46,112.71,22.86,114.32z M24.58,59.67v-0.05 c0-0.18,0.02-1.21,0.47-2.96c1.23-4.84,6.62-17.07,8.74-21.78h5.94c0,0-0.16,17.89-0.16,20.71c0,2.82-1.77,4.14-3.35,4.14 C35.05,59.73,28.09,59.69,24.58,59.67z M70.88,67.71h-0.02v3.8c-5.25-0.04-20.11-0.15-20.35,0.04c-0.3,0.23-0.52,1.26-0.52,3.52 c0,2.27,1.11,3.17,1.53,3.2c1.18,0.08,3.28,0,3.28,0s-1.01,2.44-1.01,3.36c0,0.71,0.1,9.01,0.15,12.78c-3.22,0-7.64,0.01-7.64,0.01 l0.08-26.91h-0.03l0.28-32.22c0,0,14.35,0.23,24.3,0.32C70.98,42.73,70.91,62.33,70.88,67.71z M82.61,72.01 c0,0-1.09,1.26-1.01,3.28c0.08,2.02,1.24,3.53,1.24,3.53l3.52,0.15c0,0-0.15,1.87-0.15,3.74c0,0.75-0.08,8.91-0.1,11.38 c-0.01,0-0.01,0.01-0.01,0.01v0.02c-2.51-0.03-4.96-0.05-5.67-0.05c-1.63,0-2.69-1.85-2.8-3.71s0.08-54.74,0.08-54.74 c5.81-0.02,17.67-0.09,18.2-0.05c2.29,0.18,3.06,1.95,2.97,3.62c-0.08,1.43-0.01,22.7,0,28.83h-0.01c0,0-1.64,1.36-3.15,3.72 L82.61,72.01z M102.93,114.89c-4.33,0.15-7.22-2.99-7.26-7.29c-0.04-3.98,3.12-7.21,7.25-7.1c4.47,0.11,7.35,2.81,7.35,7.33 C110.27,110.96,107.95,114.72,102.93,114.89z M114.1,77.46c0,0-13.24,0-13.62-0.13c-0.24-0.08-0.27-4.63,0.25-4.98 c0.19-0.12,13.5,0.19,13.5,0.19L114.1,77.46z M122.2,64.89c-1.01,0.35-1.96,1.16-2.45,2.82l-17.87,0.27 c-0.03-11.46-0.06-27.45,0-28.63c0.2-3.71-2.16-6.49-5.73-6.77c-0.59-0.05-52.49-0.34-52.49-0.34l-0.29,33.19l-6.36,2.13 l-11.27,0.05L25.5,67.2c-0.03-0.33-0.07-4.36-0.06-4.52c1.25,0.01,2.76,0.01,4.26,0.02c2.92,0.02,5.79,0.03,6.52,0.03 c3.08,0,6.35-2.5,6.35-7.14c0-2.77,0.18-23.71,0.18-23.71h-3.4c-0.32-0.39-7.7-9.21-10.09-12.01c0.76-0.48,2.73-1.57,5.27-1.52 c4.42,0.09,7.9,4.56,7.9,4.56l62.83,0.18c5.02,0,6.62,1,9.88,4.71c2.4,2.71,3.96,8.14,4.3,11.13c0.09,0.77,2.91,21.9,2.89,24.83 C122.3,64.31,122.24,64.67,122.2,64.89z"/>
    <path d="M22.66,109.83c-0.89,1.34-2.68,1.63-4.03,0.73s-1.71-2.69-0.81-4.03c0.9-1.34,2.71-1.71,4.03-0.77 C23.3,106.8,23.56,108.49,22.66,109.83z"/>
    <path d="M105.99,107.63c0,0.05,0,0.09-0.01,0.14c-0.07,1.66-1.41,2.97-3.09,2.97c-1.71,0-3.1-1.36-3.08-3.07v-0.05 c0.06-1.9,1.4-3.14,3.13-3.14S105.99,105.89,105.99,107.63z"/>
  </g>
</svg>