<svg viewBox="0 0 128 128" xmlns="http://www.w3.org/2000/svg">
  <g>
    <path d="M34.1,57.7c1.8,1.3,4.2,1,5.6-0.6l0.2-0.3l0.5-0.6c0.3-0.4,0.8-0.9,1.3-1.4c0.3-0.3,0.5-0.5,0.8-0.7 c0.3-0.2,0.5-0.4,0.8-0.5c0.2-0.1,0.4-0.2,0.7-0.2h0.4c0,0,0.1,0,0.1,0c0,0,0.1,0,0.1,0c0,0,0.1,0,0.1,0c0.2,0,0.5,0.1,0.6,0.2 c0.3,0.2,0.6,0.3,0.8,0.5c0.3,0.2,0.6,0.5,0.8,0.7s0.5,0.5,0.7,0.8l0.5,0.6l0.4,0.5l0.2,0.2c0.9,1.1,2.4,1.7,3.8,1.5 c0.1,0,0.1,0,0.2,0c2-0.3,3.5-2.2,3.2-4.2v-0.2c0-0.2-0.1-0.5-0.2-0.7c-0.1-0.5-0.3-0.9-0.5-1.4c-0.2-0.6-0.5-1.1-0.8-1.6 c-0.8-1.5-2-2.8-3.4-3.8c-0.9-0.7-1.9-1.3-3-1.7c-0.6-0.2-1.2-0.4-1.9-0.5c-0.3,0-0.7-0.1-1-0.1h-1.9l-0.5,0.1l-0.6,0.1 c-0.3,0.1-0.7,0.1-1,0.2c-0.3,0.1-0.6,0.2-0.9,0.3c-1.1,0.4-2.1,1-3,1.7c-1.4,1-2.5,2.3-3.4,3.8c-0.5,0.9-1,1.9-1.2,2.9 c-0.2,0.7-0.3,1.1-0.3,1.1C32.5,55.6,33,56.9,34.1,57.7z"/>
    <path d="M73.6,57.7c1.8,1.3,4.2,1,5.6-0.6l0.2-0.3l0.5-0.6c0.3-0.4,0.8-0.9,1.3-1.4c0.3-0.3,0.5-0.5,0.8-0.7 c0.3-0.2,0.5-0.4,0.8-0.5c0.2-0.1,0.4-0.2,0.7-0.2H84c0,0,0.1,0,0.1,0c0,0,0.1,0,0.1,0c0,0,0.1,0,0.1,0c0.2,0,0.4,0.1,0.6,0.2 c0.3,0.2,0.6,0.3,0.8,0.5c0.3,0.2,0.6,0.5,0.8,0.7s0.5,0.5,0.7,0.8l0.5,0.6l0.4,0.5l0.2,0.2c0.9,1.2,2.5,1.8,3.9,1.5 c0,0,0.1,0,0.1,0c2-0.3,3.4-2.2,3.1-4.3v-0.2c0-0.2-0.1-0.5-0.2-0.7c-0.1-0.5-0.3-0.9-0.5-1.3c-0.2-0.6-0.5-1.1-0.8-1.6 c-0.8-1.5-2-2.8-3.4-3.8c-0.9-0.7-1.9-1.3-3-1.7c-0.6-0.2-1.2-0.4-1.9-0.5c-0.3,0-0.7-0.1-1-0.1H83l-0.5,0.1l-0.6,0.1 c-0.3,0.1-0.7,0.1-1,0.2c-0.3,0.1-0.6,0.2-0.9,0.3c-1.1,0.4-2.1,1-3,1.7c-1.4,1-2.5,2.3-3.4,3.8c-0.5,0.9-1,1.9-1.2,2.9 c-0.2,0.7-0.3,1.1-0.3,1.1C71.9,55.6,72.5,56.9,73.6,57.7z"/>
    <path d="M121.9,41c0-3.8-1.2-7.6-5.4-17c-1.5-3.3-2.5-6.2-3.9-8.8c-0.2-0.4-0.6-0.8-1-1c-1.3-0.7-3-0.3-3.7,1 c-1.2,2.3-2.2,4.6-3.1,7c-0.3-0.3-0.5-0.5-0.8-0.8C93.4,12.1,79.1,7,63.6,7c-27.9,0-58,17.5-58,55.9c0,38.4,30.1,55.9,58,55.9 c15.4,0,29.8-5.2,40.4-14.5c11.5-10.2,17.6-24.5,17.6-41.4c0-5.4-0.6-10.6-1.9-15.5C121.1,45.4,121.9,43.1,121.9,41z M101.4,101.3 c-9.9,8.7-23.3,13.5-37.8,13.5c-13.8,0-27.3-4.6-36.9-12.6C15.5,92.9,9.6,79.3,9.6,62.9c0-16.4,5.9-30,17.1-39.3 c9.6-8,23.1-12.6,36.9-12.6c14.5,0,27.9,4.8,37.7,13.4c0.7,0.6,1.3,1.2,1.9,1.8c-0.1,0.1-0.1,0.3-0.2,0.4 c-2.4,6.1-4.1,10.5-4.1,14.3c0,5.4,5,11.7,11.5,11.7c2.2,0,4.2-0.7,5.9-1.9c0.8,3.9,1.2,7.9,1.2,12.2 C117.6,78.6,112,91.9,101.4,101.3z M117.5,45.4c-1.5,2.3-4.8,1.8-4.8-1.9c0-2.4,0.5-14.8,2.6-13.1 C118.7,33.2,119.6,42.2,117.5,45.4z"/>
    <path d="M100.8,70c-1.4-1.2-3.4-1.7-5.3-1.1c-0.2,0-0.3,0.1-0.5,0.1c-10.3,3-20.9,4.5-31.6,4.4C52.7,73.5,42,72,31.8,69 c-2.7-1-5.7,0.1-7.1,2.6c-0.1,0.3-0.2,0.5-0.3,0.8c0,0.1-0.1,0.2-0.1,0.3c0,0,0,0,0,0.1c0,0,0,0,0,0c-0.6,2.2,0.3,4.6,1.2,6.7 c0.4,0.8,0.8,1.6,1.2,2.3c0.1,0.2,0.2,0.3,0.3,0.5c0.1,0.2,0.2,0.3,0.3,0.5c0,0,0,0,0-0.1c4.3,7.4,10.9,13,19,16.2 c0.2-0.3,0.4-0.6,0.8-0.9c0.4-0.4,0.8-0.7,1.2-1c4.4-3.5,9.8-5.4,15.4-5.3c5.4-0.1,10.7,1.8,14.8,5.4c0.4,0.3,0.8,0.7,1.1,1 c0.3,0.3,0.5,0.7,0.7,1c8.4-3.2,15.2-8.8,19.6-16.4c0,0.1,0,0.1,0,0.1c0.6-1.1,1.2-2.2,1.8-3.3c1.1-2.5,2.1-5.4,0.8-7.9 C101.8,71,101.3,70.4,100.8,70z M64.1,82.2c-13.1,0.2-26-2.7-37.8-8.4c0.1-0.4,0.3-0.7,0.5-1c0.6-1,1.7-1.6,2.8-1.6 c0.5,0,0.9,0.1,1.4,0.2C41.4,74.5,52.3,76,63.2,76h0.4c10.9,0,21.7-1.5,32.2-4.6c0.5-0.1,0.9-0.2,1.4-0.2c1.1,0.1,2.2,0.7,2.8,1.6 c0.3,0.4,0.5,1,0.6,1.7C89.1,79.7,76.7,82.4,64.1,82.2z"/>
  </g>
</svg>