<svg viewBox="0 0 128 128" xmlns="http://www.w3.org/2000/svg">
  <g>
    <path d="M104,21.4C93.4,12.1,79.1,7,63.6,7c-27.9,0-58,17.5-58,55.9c0,38.4,30.1,55.9,58,55.9 c15.4,0,29.8-5.2,40.4-14.5c11.5-10.2,17.6-24.5,17.6-41.4C121.6,46,115.5,31.6,104,21.4z M101.4,101.3 c-9.9,8.7-23.3,13.5-37.8,13.5c-13.8,0-27.3-4.6-36.9-12.6C15.5,92.9,9.6,79.3,9.6,62.9c0-16.4,5.9-30,17.1-39.3 c9.6-8,23.1-12.6,36.9-12.6c14.5,0,27.9,4.8,37.7,13.4c10.6,9.4,16.3,22.7,16.3,38.5C117.6,78.6,112,91.9,101.4,101.3z"/>
    <path d="M63.9,82c-10.5,0-18,6.3-20.2,9.8c-0.8,1.1-1,2.6-0.5,3.9c0.4,0.8,1.3,1.3,2.2,1.3c0.3,0,0.7-0.1,1-0.2 c5.3-1.7,9.9-4.1,17.5-4.1c7.6,0,12.2,2.4,17.5,4.1c0.3,0.1,0.7,0.2,1,0.2c0.9,0,1.8-0.5,2.2-1.3c0.6-1.3,0.4-2.8-0.5-3.9 C81.9,88.3,74.4,82,63.9,82z"/>
    <path d="M106.3,49c-3.1-4.3-7.7-7.3-12.9-8.3c-1.9-0.4-3.9-0.6-5.8-0.3c-1,0-1.8,0.8-1.8,1.9s0.8,1.8,1.9,1.8 c5.9,0.5,11.4,3.1,15.7,7.2C105,52.8,107.7,51.1,106.3,49z"/>
    <path d="M39.7,42.2c0-1-0.8-1.8-1.8-1.9c-1.9-0.2-3.9-0.1-5.8,0.3c-5.2,1-9.8,4-12.9,8.3c-1.4,2.1,1.3,3.8,2.9,2.2 c4.2-4.2,9.8-6.7,15.7-7.2C38.9,44,39.7,43.2,39.7,42.2z"/>
    <path d="M49.7,66.2c2.1-2.2,2.5-5.5,1-8.2c-0.5-1-1.5-1.8-2.6-2.2c-6-1.6-12.4-1.3-18.4,0.7c-1.1,0.4-1.6,1.6-1.2,2.7 c0.4,1,1.4,1.5,2.5,1.2c2.4-0.5,4.8-0.6,7.2-0.4c0,0.1,0,0.4,0,0.4c0,4.9,3.2,7.8,6.7,7.8C46.7,68.2,48.5,67.5,49.7,66.2z M45.1,59.2c1.4-0.7,3.1-0.1,3.8,1.3c0.5,1.1,0.3,2.4-0.6,3.3c-1.4,0.7-3.1,0.1-3.8-1.3C43.9,61.4,44.2,60,45.1,59.2z"/>
    <path d="M96,55.8c-6-1.6-12.4-1.3-18.4,0.7c-1.1,0.4-1.6,1.5-1.3,2.6s1.5,1.6,2.6,1.3c2.4-0.5,4.8-0.6,7.2-0.4 c0,0.1,0,0.4,0,0.4c0,4.9,3.2,7.8,6.7,7.8c1.8,0,3.5-0.8,4.8-2.1c2.1-2.2,2.5-5.5,1-8.1C98.1,57,97.1,56.2,96,55.8z M96.3,63.8 c-1.4,0.7-3.1,0.1-3.8-1.4c-0.5-1.1-0.3-2.4,0.6-3.3c1.4-0.7,3.1-0.1,3.8,1.4C97.4,61.7,97.2,63,96.3,63.8z"/>
  </g>
</svg>