<svg viewBox="0 0 128 128" xmlns="http://www.w3.org/2000/svg">
  <path d="M123.91,79.16c-1.12-5.65-6.6-14.79-6.6-14.79s-7.29,4.25-17.13,6.07c-4.99,0.92-13.24,1.88-21.56,2.49l-15.86-27.6 c-0.7-1.76-1.07-2.78-0.67-4.19c0.31-1.03,0.06-2.06-0.57-2.54c-0.72-0.55-1.65-0.49-2.51,0.02l-3.96,2.36 c-0.91,0.53-1.26,1.3-1.07,2.11s0.89,1.46,1.63,1.6c1.32,0.26,2.53,0.82,3.68,2.63l14.88,25.89c-3.67,0.21-7.25,0.33-10.44,0.33 c-11.64,0-30.2-1.1-37.44-2.39c-8.89-1.58-15.95-6.43-15.95-6.43s-5.56,9.55-6.49,14.44C1.6,90.93,7.44,97.47,25.94,102.04 c8.87,2.19,24.2,3.34,39.5,3.37c7.05-0.01,14.1-0.26,20.52-0.75c3.22,7.33,7.88,14.52,10.97,18.34c1.02,1.27,2.42,1.09,3.4,0.51 l9.02-5.13c1.59-1.01,1.35-2.31,0.78-3.51c-1.44-3-4.38-7.77-7.37-12.34c0.76-0.16,1.5-0.32,2.18-0.49 C123.46,97.46,126.21,90.78,123.91,79.16z M63.89,81.42c-14.28-0.24-29.08-1.47-35.23-2.93c-9.54-2.27-14.69-6.93-16.97-9.8 c0-0.08,0-0.16,0.01-0.24c2.52,1.54,8.19,3.67,10.27,4.25l-1.11,0.82c2.31,1.18,5.81,2.54,10.45,3.46l2.61-2.37 c3.12,0.3,6.65,0.56,10.26,0.77l-2.83,2.85c6.29,0.57,13.87,1,21.24,1.15l0.42-3.34c0,0,1.8-0.01,2.34-0.01l0.35,3.34 c4.04-0.09,8-0.27,11.73-0.5l1.13,1.98C73.95,81.13,68.97,81.34,63.89,81.42z M107.87,115.94c0.07,0.14,0.11,0.25,0.14,0.33 l-8.91,5.06c-0.08,0.05-0.15,0.08-0.21,0.11l-0.64-0.93c-3.38-4.88-9.02-13.05-11.55-20.89c-1.31-4.07-3.76-13.26-4.76-17.03 c2.81,2.33,9.89,8.41,12.88,12.65C98.77,100.86,105.51,111.02,107.87,115.94z M99.07,78.5c-3.13,0.75-8.8,1.47-15.71,2.01 c-0.29-0.23-0.54-0.44-0.71-0.59l-0.79-1.36c1.95-0.15,3.81-0.31,5.55-0.48l-2.92-3.13c3.55-0.32,6.95-0.7,9.94-1.1l3.03,2.91 c3.7-0.73,8.69-2.44,11.23-3.87l-2.73-1.25c3.25-0.92,6.04-1.99,8.16-2.92c0.57-0.25,1.1-0.49,1.57-0.71 c0.33,0.92-0.39,1.72-0.39,1.72C113.06,72.35,108.37,76.28,99.07,78.5z"/>
</svg>