<svg viewBox="0 0 128 128" xmlns="http://www.w3.org/2000/svg">
  <g>
    <path d="M64,4C30.9,4,4,30.9,4,64s26.9,60,60,60s60-26.9,60-60S97.1,4,64,4z M62.66,55.92c0.09,0.03,0.15,0.1,0.19,0.19 L62.66,55.92z M64,114c-27.6-0.25-50-22.4-50-50c0-11.84,4.09-22.7,11.02-31.24L48.47,56H42.1c-1.5,0-2.9,1.1-3,2.6 C38.9,60.5,40.3,62,42,62h12.52l8.38,8.3v29.9c0,1.9,1.4,3.6,3.3,3.8c2.2,0.2,4-1.5,4-3.7V77.54l3,2.97v19.69 c0,1.9,1.4,3.6,3.3,3.8c2.2,0.2,4-1.5,4-3.7V87.75l15.09,14.96l0,0C95.06,103.15,83.64,114.18,64,114z M102.7,95.6L102.7,95.6 L80.5,73.61V56.1c0-0.4,0.6-0.5,0.7-0.1l5.9,17c0.6,1.6,2.3,2.4,3.9,1.7c1.4-0.5,2-2.3,1.5-3.8l-7.7-21.8 c-1.8-3.7-5.8-5.3-11.6-5.3c-4.6,0-8.6,1.5-10.6,3.7l-4.36,4.05L32.08,25.62c0,0,11.42-11.64,31.92-11.62c27.6,0.03,50,22.4,50,50 C114,76,109.8,87,102.7,95.6z"/>
    <path d="M41,70.9c0.4,0.4,1.1,0.4,1.5,0l2.5-2.5c0.4-0.4,0.4-1.1,0-1.5l-2.5-2.5c-0.4-0.4-1.1-0.4-1.5,0l-2.5,2.5 c-0.4,0.4-0.4,1.1,0,1.5L41,70.9z"/>
    <path d="M46,75.8c-0.4-0.4-1.1-0.4-1.5,0L42,78.3c-0.4,0.4-0.4,1.1,0,1.5l2.5,2.5c0.4,0.4,1.1,0.4,1.5,0l2.6-2.5 c0.4-0.4,0.4-1.1-0.1-1.5L46,75.8z"/>
    <path d="M40.4,87.2c-0.4-0.4-1.1-0.4-1.5,0l-2.5,2.5c-0.4,0.4-0.4,1.1,0,1.5l2.5,2.5c0.4,0.4,1.1,0.4,1.5,0l2.5-2.5 c0.4-0.4,0.4-1.1,0-1.5L40.4,87.2z"/>
    <ellipse cx="71.6" cy="34.1" rx="8.1" ry="8.1" transform="matrix(0.9732 -0.2298 0.2298 0.9732 -5.9192 17.3626)"/>
  </g>
</svg>