<svg viewBox="0 0 128 128" xmlns="http://www.w3.org/2000/svg">
  <g>
    <path d="M104,21.4C93.4,12.1,79.1,7,63.6,7c-27.9,0-58,17.5-58,55.9c0,38.4,30.1,55.9,58,55.9c15.4,0,29.8-5.2,40.4-14.5 c11.5-10.2,17.6-24.5,17.6-41.4C121.6,46,115.5,31.6,104,21.4z M101.4,101.3c-9.9,8.7-23.3,13.5-37.8,13.5 c-13.8,0-27.3-4.6-36.9-12.6C15.5,92.9,9.6,79.3,9.6,62.9c0-16.4,5.9-30,17.1-39.3c9.6-8,23.1-12.6,36.9-12.6 c14.5,0,27.9,4.8,37.7,13.4c10.6,9.4,16.3,22.7,16.3,38.5C117.6,78.6,112,91.9,101.4,101.3z"/>
    <path d="M64.8,79.6c-7.1,0-12.8,5.7-12.8,12.8c0,7.1,5.7,12.8,12.8,12.8s12.8-5.7,12.8-12.8c0,0,0-0.1,0-0.1 C77.6,85.3,71.9,79.6,64.8,79.6z"/>
    <path d="M42.7,46.9c-4.2,0-8,3.5-8,9.4s3.8,9.4,8,9.4s8-3.5,8-9.4S46.9,46.9,42.7,46.9z M42.9,54.2c-0.7,1.4-2.4,2-3.8,1.3 c-0.9-0.9-1.1-2.2-0.6-3.3c0.7-1.4,2.4-2,3.8-1.3C43.2,51.7,43.4,53.1,42.9,54.2z"/>
    <path d="M86,46.9c-4.2,0-8,3.5-8,9.4s3.8,9.4,8,9.4s8-3.5,8-9.4S90.2,46.9,86,46.9z M86.2,54.2c-0.7,1.4-2.4,2-3.8,1.3 c-0.9-0.9-1.1-2.2-0.6-3.3c0.7-1.4,2.4-2,3.8-1.3C86.5,51.7,86.8,53.1,86.2,54.2z"/>
    <path d="M44.7,27.2c-5.3-0.5-10.5,1-14.7,4.3c-1.6,1.2-3,2.6-4.1,4.2c-0.5,0.7-0.4,1.8,0.2,2.4c0.7,0.7,1.9,0.7,2.6,0 c4.3-4.2,9.9-6.7,15.8-7.2C46.7,30.6,47.2,27.5,44.7,27.2z"/>
    <path d="M98.5,31.7c-4.2-3.2-9.4-4.8-14.7-4.3c-2.5,0.3-2,3.5,0.2,3.7c5.9,0.5,11.5,3,15.8,7.1c0.7,0.7,1.9,0.8,2.6,0 c0.7-0.6,0.8-1.7,0.2-2.4C101.5,34.3,100.1,32.9,98.5,31.7z"/>
  </g>
</svg>