<svg viewBox="0 0 128 128" xmlns="http://www.w3.org/2000/svg">
  <g>
    <path d="M68.49,22.55l2.87,0.63c1.27,3.03,5.72,4.04,8.17,1.78l3.53,0.77c1.35,2.83,5.49,3.78,7.93,1.73L124,34.65v-4.1 l-27.14-5.91c0.21-1.3,1.03-7.89-3.95-9.11L34.85,4.04c-1.12-0.23-2.2,0.58-2.26,1.73c-0.08,1.53-0.48,3.47,0.67,5.01L4,4.41V8.5 l30.19,6.58c1.16,3.69,6.25,4.83,8.86,1.93l2.81,0.61c1.18,3.48,6.12,4.59,8.67,1.89l1.91,0.42c0.76,1.17,0.91,2.59,1.13,3.96 c-0.9,24.19-7.68,32.73-9.49,34.59H39.5c-1.91-0.03-3.38,1.9-2.81,3.72h-7.46c-6.71,0-10.68,3.38-10.75,3.44 c-2.21-0.09-3.55,0.58-6.04,1.98c-3.94,2.21-3.98,3.89-3.98,3.89l0.14,35.84c0,7.47,8.65,15.97,18.23,15.93h71.1 c8.83,0.21,18.25-8.45,18.25-15.93c0,0,0.14-35.82,0.14-35.84c0-1.17-1.81-2.78-4.38-4.18c-1.7-0.93-3.23-1.86-5.65-1.69 c0,0-4.42-3.44-11.62-3.44h-6.44c0.57-1.82-0.9-3.75-2.81-3.72c0,0-8.73,0-8.73,0c-1.68-1.98-8.44-11.35-9.34-34.8 C67.69,23.26,68.07,22.89,68.49,22.55z M29.22,102.42c0,1.18-0.96,2.14-2.13,2.15h-16.5l-0.1-25.19l16.6,0.08 c1.18,0,2.13,0.96,2.13,2.15V102.42z M114.19,104.57H97.72c-1.18-0.01-2.13-0.97-2.13-2.15V81.61c0-1.19,0.95-2.15,2.13-2.15 l16.58-0.08L114.19,104.57z M107.58,67.64c2.44,0.51,6.18,3.04,6.71,3.98c0,0,0.01,5.29,0.01,5.3H96.78 c-1.57,0-2.85,1.27-2.85,2.85v3.4c-0.76,0.83-2.86,2.78-7.09,4.63v29.61c-0.02,1.67-0.95,3.11-2.31,3.87H40.38 c-1.35-0.76-2.28-2.2-2.29-3.86V87.86c-4.6-2.02-6.64-4.17-7.21-4.87v-3.22c0-1.58-1.28-2.85-2.85-2.85H10.48l-0.04-5.18 c0.54-0.94,4.44-3.59,6.86-4.1H107.58z"/>
    <path d="M82.39,74.65h-18.2c-0.4,0-0.72,0.32-0.72,0.72v44.02c0,0.27,0.21,0.48,0.48,0.48h18.42c1.35,0,2.46-1.11,2.47-2.47V77.1 C84.84,75.75,83.74,74.65,82.39,74.65z M81.05,102.59c0,1.1-0.9,2-2,2h-9.67c-1.1,0-2-0.9-2-2v-21.1c0-1.1,0.9-2,2-2h9.67 c1.11,0,2,0.9,2,2V102.59z"/>
    <path d="M60.74,74.65h-18.2c-1.35,0-2.45,1.1-2.45,2.45v40.31c0.01,1.35,1.11,2.46,2.46,2.46h18.43c0.27,0,0.48-0.21,0.48-0.48 V75.37C61.46,74.97,61.14,74.65,60.74,74.65z M57.42,102.59c0,1.1-0.9,2-2,2h-9.67c-1.1,0-2-0.9-2-2v-21.1c0-1.1,0.9-2,2-2h9.67 c1.1,0,2,0.9,2,2V102.59z"/>
  </g>
</svg>