<svg viewBox="0 0 128 128" xmlns="http://www.w3.org/2000/svg">
  <path d="M64,4C30.86,4,4,30.86,4,64s26.86,60,60,60s60-26.86,60-60S97.14,4,64,4z M64,114c-27.61,0.06-50-22.39-50-50 c-0.04-11.38,3.86-22.41,11.02-31.24L46.25,53.8l-1.55,3.6c-0.1,0.2-0.2,0.2-0.4,0.2h-0.1c-1.43-0.4-2.91-0.6-4.4-0.6 c-0.84,0.02-1.67,0.08-2.5,0.2c-7.94,1.17-14.05,7.61-14.8,15.6c-0.47,4.87,1.17,9.71,4.5,13.3c3.29,3.6,7.93,5.66,12.8,5.7 c0.6,0.02,1.2-0.02,1.8-0.1c9.54-1.02,16.45-9.58,15.43-19.13c-0.59-5.5-3.76-10.39-8.53-13.17c-0.19-0.07-0.28-0.29-0.21-0.48 c0-0.01,0.01-0.01,0.01-0.02l0.92-2.15l12.69,12.57l1.79,6.18c0.13,0.32,0.3,0.62,0.5,0.9c0.1,0.1,0.2,0.2,0.3,0.2 c0.06,0,0.1,0.04,0.1,0.1c0.08,0.08,0.19,0.11,0.3,0.1h4.56l2.2,2.18c1.64,6.05,6.39,10.69,12.35,12.25l11.58,11.47 C86.75,109.66,75.91,113.98,64,114z M38.34,76.87c0.02,0.01,0.04,0.02,0.06,0.03c0.26,0.08,0.53,0.11,0.8,0.1 c0.78-0.01,1.49-0.48,1.8-1.2l5.3-12.4c0.1-0.2,0.2-0.3,0.4-0.3s0.2,0,0.2,0.1c6.3,3.97,8.19,12.31,4.21,18.61 c-2.47,3.92-6.78,6.29-11.41,6.29H39c-6.95-0.4-12.5-5.95-12.9-12.9c-0.22-3.7,1.13-7.33,3.7-10c2.56-2.68,6.1-4.2,9.8-4.2 c0.94,0,1.88,0.1,2.8,0.3c0.2,0,0.2,0.2,0.3,0.2c0.1,0.15,0.11,0.35,0,0.5l-5.3,12.4C36.98,75.34,37.4,76.45,38.34,76.87z M93.4,74.5l-3.7-12.8c-0.1-0.2,0-0.3,0.1-0.4c0.1-0.1,0.2-0.2,0.3-0.2h0.1c7.39,1.06,12.53,7.91,11.47,15.3 c-0.68,4.71-3.73,8.56-7.85,10.41L83.92,77h7.68c1.1-0.07,1.93-1.03,1.86-2.13C93.45,74.75,93.43,74.62,93.4,74.5z M88.8,73 c-0.1,0.1-0.2,0.2-0.3,0.2h-8.41l-4.05-4.01c1.71-3.83,5.14-6.73,9.36-7.69h0.1c0.2,0,0.3,0.1,0.4,0.3L89,72.7 C89,72.8,88.9,72.9,88.8,73z M84.6,57.6c-0.2,0.1-0.3,0.2-0.4,0.2c-4.84,1.15-8.81,4.3-11.09,8.49l-1.16-1.15L78.2,51.1 c0.1-0.2,0.2-0.2,0.4-0.2h3.8c0.2,0,0.3,0.1,0.4,0.3l1.8,6.1V57.6z M73.8,51.4L69,62.21l-7.62-7.55L60.4,51.3 c-0.01-0.14,0.02-0.28,0.1-0.4c0.1-0.1,0.2-0.2,0.3-0.2h12.5c0.2,0,0.3,0.1,0.3,0.2C73.6,51,73.9,51.2,73.8,51.4z M102.7,95.6 l-0.01,0.01l-5.99-5.94c5.76-3.13,9.46-9.41,8.95-16.36c-0.28-3.79-1.81-7.38-4.35-10.21c-3.28-3.62-7.91-5.72-12.8-5.8L86,48.4 c-0.23-0.81-0.96-1.38-1.8-1.4h-3.5c-0.2,0-0.3-0.1-0.3-0.2c0-0.1-0.1-0.2,0-0.4l1.5-3.3c0.1-0.1,0.2-0.2,0.3-0.2 c0.61-0.12,1.18-0.36,1.7-0.7l4.9-3.3h0.1c0.63-0.72,0.78-1.73,0.4-2.6c-0.37-0.88-1.25-1.43-2.2-1.4H73.4 c-1.03-0.03-1.96,0.62-2.3,1.6c-0.31,0.98,0.01,2.05,0.8,2.7h0.2l5.7,2.3c0.11,0.01,0.19,0.09,0.2,0.2V42l-2.1,4.7 c-0.1,0.2-0.2,0.2-0.4,0.2H57.9c0,0-6.5-0.3-6.5-5.6s9.3-5.6,9.4-5.6c1.06-0.01,1.91-0.88,1.9-1.94V33.7 c0.03-1.02-0.76-1.87-1.78-1.9H60.8c-2.1,0.1-4.19,0.47-6.2,1.1c-5.63,1.98-6.87,5.51-6.9,8.2L32.08,25.62 c0,0,11.26-11.38,31.92-11.62c27.61-0.33,50,22.39,50,50C114.04,75.53,110.04,86.71,102.7,95.6z"/>
</svg>