<svg viewBox="0 0 128 128" xmlns="http://www.w3.org/2000/svg">
  <g>
    <path d="M48.39,106.15l-16.05-3.71c-1.71,0.45-3.33,0.89-4.81,1.28c1.75,0.43,12.08,3,15.8,4.06L48.39,106.15z"/>
    <path d="M22.82,104.99c-1.65,0.45-2.69,0.73-2.79,0.77c-0.77,0.27-1.03,1.26,0.24,1.61c0.38,0.1,5.75,1.58,13.14,3.62l4.94-1.6 C34.02,108.09,24.68,105.51,22.82,104.99z"/>
    <path d="M65.54,100.6L50.63,97.7c-1.3,0.32-2.72,0.68-4.22,1.06l14.87,3.22L65.54,100.6z"/>
    <path d="M111.45,106.74c-0.64-0.14-18.4-3.87-33.32-6.88l-38.38,12.87c17.43,4.79,40.28,11.05,40.64,11.05 c0.58,0,31.84-14.53,32.41-14.76C113.38,108.79,113.05,107.1,111.45,106.74z M64.04,107.89l5.06-1.86l6.99,1.58l-5.38,1.86 L64.04,107.89z M74.41,110.35l5.03-1.98l6.44,1.46l-4.7,2.14L74.41,110.35z M90.99,114.3l-6.03-1.44l4.9-2.13l6.33,1.43 L90.99,114.3z"/>
    <path d="M57.31,103.26l-15.62-3.29c-1.49,0.39-3,0.78-4.49,1.18l15.74,3.52L57.31,103.26z"/>
    <path d="M71.78,98.59c-7.31-1.45-12.96-2.5-13.88-2.5c-0.35,0-1.51,0.24-3.23,0.63l14.55,2.69L71.78,98.59z"/>
    <path d="M117.98,64.13c0-0.02,0-0.03,0-0.03c-0.05-0.09-1.6-2.21-1.7-2.24l-0.01,0.01c-2.07-7.76-19.01-10.56-26.5-12.68 l3.63-10.02c0,0-2.53-4.67-3.19-5.11c-0.34-0.23-2.9-0.64-3.01-0.3c-0.23,0.67-0.36,4.64-0.36,4.64l-8.32,8.35 c-10.79-2.19-26.7-5.2-36.02-5.71c0-0.02-0.03-0.01-0.05-0.03c0.51-1.19,3.81-5.25,2.12-5.27c-0.69-0.05-3.65-0.05-4.05,0.12 c-0.23,0.1-1.11,0.97-1.82,1.71c-4.49-5.79-13.22-18.82-13.6-18.92c-0.47-0.12-4.67-0.88-5.02-0.47c-0.31,0.36,4.62,18,6.36,22.95 c-0.59,0.05-1.21,0.1-1.77,0.17c-1.04,0.41-1.38,1.67-0.71,2.69c-2.46,0.27-6.98,0.81-11.01,1.3c-4.03,0.48-7.57,0.91-8.1,0.96 c-1.28,0.12-1.87,0.76-1.81,1.4C3.1,48.29,3.8,48.7,6.43,48.7c2.04,0,14.89-0.46,20.86-0.69c6.49,5.8,16.17,10.64,24.34,13.86 c-2.43,3.78-35.86,7.19-40.62,7.34c0,0-0.74-3.77-1.04-3.87c-0.72-0.24-3.34-0.19-3.43-0.1c-0.67,0.67,0.04,8.41,1.28,9.39 c2.82,2.21,26.05-0.4,37.1-1.66c0.11,1.61,0.61,3.33,2.75,4.76c3.02,2.01,7.12,4.06,10.97,5.39c3.66,1.26,7.98,0.29,8.42-5.39 c0.26-3.41,0.02-6.71-3.61-7.44c4.4-0.73,8.03-1.39,9.88-1.73c0.27,0.06,0.54,0.13,0.81,0.19v4.51c-2.74,1.47-2.89,6.63,1.61,7.3 c4.37,0.35,5.16-4.99,2.7-6.71v-4.07c2.99,0.69,6.2,1.39,9.49,2.02c-2.95,5.65,6.99,7.73,6.04,1.04c2.93,0.48,5.81,0.83,8.74,1.13 c0,1.16,0.02,3.99,0.28,4.17c0.33,0.23,1.73,0.14,1.73,0.14c-2.74,1.08-2.97,6.75,1.87,6.72c5.37-0.04,4.42-6.36,1.17-6.92 c0,0,1.03-0.05,1.03-0.28c0-0.15-0.02-2.05-0.04-3.33c3.21,0.18,6.43,0.29,9.62-0.11C127.69,73.36,122.38,66.91,117.98,64.13z M65.12,76.46c0,2.4-0.75,5.43-2.46,5.43c-1.72,0-2.34-2.69-2.23-5.6C60.85,69.99,65.47,70.56,65.12,76.46z M113.57,71.63 c-10.36,0.06-26.85-2.8-36.8-5.32c0.1-0.62-0.18-1.17-0.56-1.36c-0.98-0.7-13.01-3.15-17.74-3.75c-7.71-2.53-20.3-8.11-27.52-14.01 c0.55-1.28-1.87-2.47-3.04-2.79c-0.1-0.12-0.21-0.23-0.3-0.34c2.12-0.09,6.51-0.45,9.69-0.03c6.41,0.59,11.56,1.51,10.63,0.51 c12.03,1.87,61.04,8.74,65.35,17.68l-0.12,0.49l0.28,0.47c-2,0.35-4.27,0.21-5.17,0.17c-2.21-0.18-2.33,2.48-0.05,2.83 c1.29,0.26,4.53,0.62,7.11-0.15c0.01,0,0.01,0,0.02-0.01c2.24,1.24,4.77,3.58,5.12,4.77C119.85,71.08,118.08,71.63,113.57,71.63z"/>
    <path d="M39.57,48.96c-1.75-0.2-1.74,3.38-0.17,3.44C41.16,52.6,41.3,48.97,39.57,48.96z"/>
    <path d="M46.67,51.23c-1.73-0.25-1.85,3.55-0.16,3.53C48.09,55.07,48.49,51.16,46.67,51.23z"/>
    <path d="M53.42,52.88c-1.55,0.01-1.71,3.33-0.03,3.47C55.12,56.54,55.26,52.77,53.42,52.88z"/>
    <path d="M76.11,57.9c-1.75-0.2-1.74,3.38-0.17,3.44C77.71,61.52,77.84,57.95,76.11,57.9z"/>
    <path d="M83.69,59.57c-1.73-0.25-1.85,3.55-0.16,3.53C85.11,63.4,85.51,59.51,83.69,59.57z"/>
    <path d="M91.31,61.57c-1.55,0.01-1.71,3.33-0.03,3.47C93.01,65.23,93.15,61.46,91.31,61.57z"/>
    <path d="M60.66,54.61c-1.75-0.2-1.74,3.38-0.17,3.44C62.25,58.25,62.38,54.63,60.66,54.61z"/>
    <path d="M68.12,56.11c-1.55,0.01-1.71,3.33-0.03,3.47C69.82,59.77,69.96,56,68.12,56.11z"/>
  </g>
</svg>