<svg viewBox="0 0 128 128" xmlns="http://www.w3.org/2000/svg">
  <g>
    <path d="M104,21.4C93.4,12.1,79.1,7,63.6,7c-27.9,0-58,17.5-58,55.9c0,5.9,0.7,11.2,2,16.1c-1.9,5-3.1,9.1-3.1,12.7 c0,7,6.5,15.2,15,15.2c1.9,0,3.7-0.4,5.3-1.2c10.9,8.8,25.1,13,38.7,13c15.4,0,29.8-5.2,40.4-14.5c11.5-10.2,17.6-24.5,17.6-41.4 C121.6,46,115.5,31.6,104,21.4z M22.4,95.1c0-3.1,0.6-19.3,3.3-17c4.4,3.7,5.6,15.3,2.9,19.5C26.8,100.7,22.4,100,22.4,95.1z M101.4,101.3c-9.9,8.7-23.3,13.5-37.8,13.5c-13,0-25.7-4.1-35.1-11.2c3.6-3,5.9-7.6,5.8-11.7c0-4.9-1.5-9.9-7-22.1 c-1.9-4.3-3.2-8-5.1-11.5c-0.3-0.6-0.8-1-1.3-1.4c-1.7-0.9-3.8-0.3-4.8,1.4c-2,3.5-3.3,7.5-4.8,11.2c-0.4,0.9-0.7,1.7-1,2.6 c-0.4-2.9-0.7-6-0.7-9.2c0-16.4,5.9-30,17.1-39.3c9.6-8,23.1-12.6,36.9-12.6c14.5,0,27.9,4.8,37.7,13.4 c10.6,9.4,16.3,22.7,16.3,38.5C117.6,78.6,112,91.9,101.4,101.3z"/>
    <path d="M64,87.2c-10.8,0-17.8,7.9-19.6,11.6c-0.7,1.4-0.7,2.6-0.1,3.1c0.6,0.4,1.5,0.4,2.1,0c0.3-0.1,0.6-0.3,0.9-0.5 c10-7.2,23.6-7.2,33.6,0c0.3,0.2,0.6,0.4,0.9,0.5c0.6,0.4,1.5,0.4,2.1,0c0.6-0.5,0.6-1.7-0.1-3.1C81.8,95.1,74.8,87.2,64,87.2z"/>
    <path d="M45.5,33.5c0.6-0.8,0.4-2-0.4-2.6c-0.8-0.6-2-0.4-2.6,0.4l-0.1,0.1c-3.9,4.4-9.2,7.3-15,8.3 c-2.2,0.4-2.3,3.6,0.1,3.7c5.3,0.1,10.4-1.9,14.3-5.5C43.3,36.7,44.5,35.2,45.5,33.5z"/>
    <path d="M101.2,39.8c-5.8-1-11.1-3.9-15-8.2L86,31.4c-0.6-0.8-1.7-1-2.6-0.5c-0.8,0.6-1,1.7-0.4,2.6 c1,1.7,2.2,3.2,3.7,4.5c3.9,3.6,9,5.5,14.3,5.5C103.5,43.3,103.4,40.1,101.2,39.8z"/>
    <path d="M52.7,64.4c0-5.9-3.8-9.4-8-9.4s-8,3.5-8,9.4s3.8,9.4,8,9.4S52.7,70.2,52.7,64.4z M41.1,63.5 c-0.9-0.9-1.1-2.2-0.6-3.3c0.7-1.4,2.4-2,3.8-1.3c0.9,0.9,1.1,2.2,0.6,3.3C44.2,63.6,42.5,64.2,41.1,63.5z"/>
    <path d="M83,54.9c-4.2,0-8,3.5-8,9.4s3.8,9.4,8,9.4s8-3.5,8-9.4S87.2,54.9,83,54.9z M83.2,62.2c-0.7,1.4-2.4,2-3.8,1.3 c-0.9-0.9-1.1-2.2-0.6-3.3c0.7-1.4,2.4-2,3.8-1.3C83.5,59.7,83.8,61.1,83.2,62.2z"/>
  </g>
</svg>