<svg viewBox="0 0 128 128" xmlns="http://www.w3.org/2000/svg">
  <g>
    <path d="M124,64c0-33.14-26.86-60-60-60S4,30.86,4,64c0,17.72,7.69,33.63,19.9,44.61l8.79-10.43c0.21,1.03,0.28,2.92,1.58,3 c0,0,1.53,0,1.53,0l-7.48,11.05c0,0,0.08,0.06,0.22,0.16c0,0-0.01,0-0.01-0.01c1.89,1.4,4.08,2.79,6.14,3.95l0,0 C43.35,121.21,53.35,124,64,124c10.65,0,20.65-2.79,29.33-7.66l0,0.01c2.03-1.17,4.51-2.73,6.35-4.11l-7.48-11.05 c0.01,0,1.95,0,1.96,0c1.14-0.04,1.35-1.64,1.5-2.59l8.43,10.01C116.31,97.63,124,81.72,124,64z M80.35,104.21l-34.22-0.06 c-0.64,0-1.05-0.69-0.74-1.25l1.34-2.46c0.3-0.55,0.88-0.9,1.51-0.9h30.03c0.64,0,1.23,0.36,1.52,0.92l1.31,2.51 C81.39,103.53,80.98,104.21,80.35,104.21z M87.09,116.21l-46.14-0.51c-0.92-0.01-1.5-0.86-1.08-1.56l1.73-2.87 c0.37-0.61,1.09-0.99,1.88-0.99h41.2c0.85,0,1.62,0.44,1.95,1.12l1.61,3.32C88.59,115.44,87.98,116.22,87.09,116.21z M97.62,93.2 H30.38c-1.21,0-2.19-0.98-2.19-2.19v-5.76h25.68v5.16h19.57v-5.16h26.35v5.76C99.8,92.22,98.82,93.2,97.62,93.2z M100.7,81.08 c0,0.82-0.69,1.48-1.54,1.48H28.84c-0.85,0-1.55-0.66-1.55-1.48V42.93c-0.39-7.67,1.86-18.86,13-23.65 c4.54-2.1,10.65-3.42,18.93-3.32h10.3c30.91,0.28,31.01,20.62,31.18,26.97C100.7,42.93,100.7,81.08,100.7,81.08z"/>
    <path d="M71.07,34.52H56.94c-2.45,0-4.45,2-4.45,4.45v8.69v28.39c0,2.45,2,4.45,4.45,4.45h14.12c2.45,0,4.45-1.99,4.46-4.45V47.61 v-8.64C75.52,36.52,73.52,34.52,71.07,34.52z M71.06,78.5H56.94c-1.35,0-2.45-1.1-2.45-2.45V38.97c0-1.35,1.1-2.45,2.45-2.45h14.13 c1.35,0,2.45,1.1,2.45,2.45v37.07C73.51,77.4,72.41,78.5,71.06,78.5z"/>
    <path d="M48.84,23.15c-3.19,0-16.68,2.07-16.68,19.86c0,3.13,0,15.73,0,19.09c0,0.96,0.81,1.73,1.81,1.73h14.87 c1,0,1.81-0.77,1.81-1.73V47.66V24.88C50.65,23.92,50.15,23.15,48.84,23.15z M47.77,61.16h-11.9c-0.82,0-1.49-0.64-1.49-1.43V43.16 c0-14.66,10.76-17.05,13.39-17.05c1.08,0,1.49,0.64,1.49,1.43v32.19C49.26,60.52,48.59,61.16,47.77,61.16z"/>
    <path d="M71.74,41.22c0-1.47-1.19-2.66-2.65-2.66H58.91c-1.47,0-2.66,1.19-2.66,2.66v20.06c0,1.47,1.19,2.66,2.66,2.66h10.17 c1.47,0,2.66-1.19,2.66-2.66V41.22z M68.29,61.51h-8.3c-1.1,0-2-0.9-2-2V42.93c0-1.1,0.9-2,2-2h8.3c1.1,0,2,0.9,2,2v16.58 C70.29,60.61,69.39,61.51,68.29,61.51z"/>
    <path d="M71.65,22.7h-15.3c-1.54,0-2.79,1.25-2.79,2.79v2.89c0,1.54,1.25,2.79,2.79,2.79h15.3c1.54,0,2.79-1.24,2.79-2.79v-2.89 C74.44,23.95,73.19,22.7,71.65,22.7z M58.93,28.93h-3v-3.98h3V28.93z M62.51,28.93h-1.98v-3.98h1.98V28.93z M67.6,28.93h-1.39 v-3.98h1.39V28.93z M72.07,28.93h-3v-3.98h3V28.93z"/>
    <path d="M36.7,77.49c6.25-0.16,6.25-9.32,0-9.48C30.45,68.17,30.45,77.33,36.7,77.49z"/>
    <path d="M91.33,77.49c6.25-0.16,6.25-9.32,0-9.48C85.08,68.17,85.08,77.33,91.33,77.49z"/>
    <path d="M79.78,23.15c-1.31,0-1.81,0.77-1.81,1.73v22.73V62.1c0,0.96,0.81,1.73,1.81,1.73h14.87c1,0,1.81-0.77,1.81-1.73 c0-3.23,0-16.12,0-19.09C96.47,25.22,82.98,23.15,79.78,23.15z M92.76,61.16h-11.9c-0.82,0-1.49-0.64-1.49-1.43V27.54 c0-0.79,0.41-1.43,1.49-1.43c2.63,0,13.39,2.39,13.39,17.05v16.57C94.25,60.52,93.58,61.16,92.76,61.16z"/>
  </g>
</svg>