<svg viewBox="0 0 128 128" xmlns="http://www.w3.org/2000/svg">
  <g>
    <path d="M122,72c0,0.2-0.1,0.4-0.1,0.6c0,0-0.1,0.5-0.6,0.1c-0.1-0.1-0.3-0.2-0.5-0.3c-0.2-0.1-0.3-0.2-0.4-0.3l0,0 c-0.5,0-3.5-1.8-14.2-2.2c-7.4-0.3-11.9,0.5-13.8,0.9c-0.3,0.3-0.7,0.3-1,0.3c-0.8,0-1.4,0.2-1.7,0.1c-2.4,8.8-9.3,15.8-18,18.4 c0.5,0.2,1.1,0.6,1.5,1.2c0.1,0.1,0.1,0.3,0.1,0.4c0.4,0.7,1.9,4.1,2,14.4c0,5.9-0.5,10.5-0.9,12.9c0,0.2-0.1,0.5-0.2,0.7 c0,0.1,0,0.2,0,0.4c-0.2,1-0.7,2.5-1.3,3.3C100.9,119.4,120.4,98.9,122,72z"/>
    <path d="M54,119.9c0-0.1,0-0.2,0-0.3c-0.1-0.3-0.2-0.7-0.3-1.2c-0.3-2.4-0.8-6.9-0.8-12.7c0-10.2,1.6-13.7,1.9-14.4 c0-0.1,0-0.2,0.1-0.4c0.3-0.5,0.7-0.8,1.1-1.1c0,0,0,0,0.1,0s0.1-0.1,0.2-0.1C47.1,87.1,40,79.6,37.8,70.1 c-0.2,0.1-0.4,0.1-0.8,0.2c-0.2,0-0.4,0.1-0.7,0.1c-0.4,0.1-0.8,0.1-1.2,0.1c-1.9-0.1-8.6-0.8-14.5-0.5C9.9,70.5,8.2,71.5,7.4,71.9 c-0.1,0-0.1,0.1-0.2,0.1c-0.2,0.1-0.3,0.2-0.5,0.3c-0.3,0.2-0.4,0.1-0.5,0c1.9,26.7,22,47,49.2,50.6 C54.7,122.2,54.3,120.8,54,119.9z"/>
    <path d="M120.6,53.1c0-0.2-0.1-0.5-0.1-0.7c-3.5-24-20-42.9-46.3-46.7c0.1,0.1,0.1,0.3,0.2,0.4c0.5,1.8,0.8,6,0.8,12.9 c0,7.9-2.2,15.6-2.2,15.6l0,0c0,0.1,0,0.2-0.1,0.2c-0.4,1-1.8,3.3-1.8,3.3c-0.1,0.1-0.1,0.1-0.2,0.1c8.8,2.4,15.8,9.1,18.5,17.7 c0.1-0.1,0.2-0.3,0.4-0.6c0.2-0.3,0.7-0.7,1-1s0.9-0.8,2-1.2c1.2-0.5,6.2-2.1,13-2.2c10.5-0.3,13.8,1.7,13.8,1.7 c0.3,0.1,0.5,0.2,0.7,0.4l0,0C120.4,53,120.5,53.1,120.6,53.1z"/>
    <path d="M57,38.1c0,0-1.4-1.9-1.8-3.3c0-0.1,0-0.1,0-0.2l0,0c0,0-2.5-8-2.7-15.7c-0.2-8,0.8-11.1,1.3-12.9c0-0.1,0.1-0.1,0.1-0.2 C28.8,9.9,10.3,29.3,7.4,53.5c0.1,0,0.2-0.1,0.2-0.1l0,0c0.2-0.1,0.5-0.3,0.7-0.3c0,0,3.3-1.9,13.8-1.7c6.8,0.2,11.7,1.7,13,2.2 c1,0.4,1.6,0.8,2,1.1s0.8,0.7,1.1,1c0.1,0.1,0.1,0.1,0.2,0.2c2.8-8.7,9.9-15.4,18.8-17.7C57.1,38.1,57.1,38.1,57,38.1z M45.2,17.5 c-9.5,4.1-17.6,11.6-22.3,20.8c-0.5,1-2.1,2.2-3.8,1.6c-1.3-0.5-1.3-2.8-0.7-4.3C22.8,24.1,30.6,17.4,43,13 c2.5-0.9,3.8-0.5,4.3,1.2C47.8,15.8,46.7,16.9,45.2,17.5z"/>
    <path d="M121.6,54.9c-0.3-1.1-0.8-1.8-1.3-1.8l0,0c-0.2-0.2-0.5-0.3-0.7-0.4 c0,0-3.3-2-13.8-1.7c-6.8,0.2-11.7,1.8-13,2.2c-1.1,0.4-1.7,0.9-2,1.2c-0.4,0.3-0.8,0.7-1,1c-0.5,0.7-0.6,0.8-0.5,1.3 c0.2,0.9,1,3.5,1,6.7c0,3.1-0.8,6.4-0.9,7.7c0,0.5,0.8,0.1,1.9,0.1c0.3,0,0.7,0,1-0.3c1.9-0.4,6.5-1.2,13.8-0.9 c10.7,0.4,13.7,2.2,14.2,2.2l0,0c0.1,0.1,0.2,0.2,0.4,0.3c0.2,0.1,0.3,0.2,0.5,0.3c0.5,0.4,0.6-0.1,0.6-0.1 C123.3,66.4,122.9,60.3,121.6,54.9z" fill="none" stroke="#000000" stroke-miterlimit="10"/>
    <path d="M38.2,55.7c-0.2-0.3-0.7-0.7-1.1-1c-0.3-0.3-0.9-0.7-2-1.1 c-1.2-0.5-6.2-2-13-2.2c-10.5-0.2-13.8,1.7-13.8,1.7c-0.3,0.1-0.5,0.2-0.7,0.3l0,0c-0.5,0-1,0.7-1.3,1.8c-1.2,5.2-1.6,11-0.2,17 c0,0,0.1,0.5,0.6,0.1C6.8,72.2,7,72.1,7.2,72c0.1,0,0.1-0.1,0.2-0.1c0.8-0.3,2.5-1.3,13.1-1.9c6-0.3,12.6,0.4,14.5,0.5 c0.4,0,0.9,0,1.2-0.1c0.3,0,0.6-0.1,0.7-0.1c1.1-0.2,1.4-0.3,1.3-0.8c-0.1-1.2-0.7-3.4-0.7-6.3c0-3,0.8-5.5,1-6.4 C38.8,56.5,38.7,56.3,38.2,55.7z" fill="none" stroke="#000000" stroke-miterlimit="10"/>
    <path d="M75.2,105.7c0-10.2-1.6-13.7-2-14.4c0-0.1,0-0.3-0.1-0.4 c-0.4-0.7-1-1.1-1.6-1.3l0,0l0,0h-0.1c-0.1,0-0.1,0-0.2,0c-0.2,0-0.4,0-0.6,0c0,0,0,0-0.1,0s-0.1,0-0.2,0c-1,0.3-2.5,0.8-6.2,0.8 c-3.7,0-5.2-0.4-6.2-0.8c-0.1,0-0.2,0-0.3-0.1c-0.1,0-0.1,0-0.2,0c-0.1,0-0.2,0-0.3,0s-0.2,0-0.3,0c0,0,0,0-0.1,0l0,0l0,0 c-0.2,0.1-0.3,0.1-0.5,0.2c0,0,0,0-0.1,0c-0.4,0.2-0.8,0.6-1.1,1.1c-0.1,0.1-0.1,0.2-0.1,0.4C54.5,92,53,95.5,53,105.7 c0,5.8,0.4,10.3,0.8,12.7c0.1,0.4,0.2,0.8,0.3,1.2c0,0.1,0,0.2,0,0.3c0.3,1.2,1,3.2,2,3.5c0,0,3.4,0.6,8,0.6c6,0,8.3-0.6,8.3-0.6 c0.8-0.3,1.5-2.4,1.8-3.8c0-0.2,0-0.3,0-0.4c0.1-0.2,0.1-0.4,0.2-0.7C74.7,116.2,75.2,111.6,75.2,105.7z" fill="none" stroke="#000000" stroke-miterlimit="10"/>
    <path d="M75.1,19c0-6.9-0.2-11-0.8-12.9c-0.2-0.7-0.5-1.1-1.2-1.3 c-1.3-0.3-4-0.8-9-0.8S56.3,4.5,55,4.8C54.3,5,54.1,5.3,53.9,6c-0.5,1.8-1.5,4.9-1.3,12.9c0.2,7.7,2.7,15.7,2.7,15.7l0,0 c0,0.1,0,0.1,0,0.2c0.4,1.4,1.8,3.3,1.8,3.3c0.4,0.5,0.8,0.5,1.5,0.3c1.2-0.2,3.1-0.7,5.5-0.7c2.5,0,4.2,0.5,5.5,0.7 c0.8,0.2,1.1,0,1.4-0.3c0,0,1.5-2.3,1.8-3.3c0-0.1,0-0.2,0.1-0.2l0,0C72.9,34.6,75.1,26.8,75.1,19z" fill="none" stroke="#000000" stroke-miterlimit="10"/>
  </g>
</svg>