<svg viewBox="0 0 128 128" xmlns="http://www.w3.org/2000/svg">
  <g>
    <path d="M125.59,83.88c-0.17-3.24-0.73-5.8-0.73-5.8s-0.03,0-0.06-0.01c0,0,0,0-0.02,0c-0.97-8.17-8.92-7.18-13.82-9.52 c-6.05-6.06-10.97-18.99-25.42-21.3c0.01-0.11,0.41-4.85-0.81-6.51c-0.95-1.31-4.33-1.24-6.69-1.29 c-1.37-0.02-12.01-0.03-15.26,0.03c-2.81,0.06-4.82,0.03-5.63,0.6c-1.78,1.25-1.2,7.07-1.2,7.07h0.06 c-12.87,2.23-21.24,12.93-29.17,22.28c-0.77,0.11-15.41,2.86-18.16,4.84c-2.51,1.76-4.04,3.96-4.52,6.93c-0.04,0-0.07,0-0.07,0 s-0.32,2.01-0.62,4.98c-0.28,2.9-0.26,7.86-0.26,7.86s0.03-0.01,0.06-0.02c-0.76,13.78-0.16,17.35,14.57,16.8 c1.03,16.59,26.75,18.04,28.24,0.08c13.39,0.05,29.05,0.13,42.47,0.18c0.79,16.7,26.37,18.22,27.67,0.09 c4.79,0.03,7.29,0.31,8.38-5.29c0.33-2.76,0.71-11.23,0.89-15.47c0.1,0,0.16,0,0.16,0S125.77,87.3,125.59,83.88z M68.23,41.47 c0.14,0,0.26,0.01,0.33,0.01c0.07,0,4.96-0.03,5.02-0.03l0.03,3.7h-3.38v-0.01h-2V41.47z M10.4,89.28c-0.78,0.44-2.9,1.23-5.17,2 c0.02-2.64,0.27-5.84,0.61-8.18c1.73-0.09,4.52-0.22,6.51-0.15C11.86,84.97,10.89,88.22,10.4,89.28z M32.04,117.01 c-10.42-0.44-9.49-14.46-0.3-14.55C41.46,102.08,42.55,117.07,32.04,117.01z M68.48,103.74c-10.71,0.26-9.52-15.8-8.59-16 c0.93-0.19,2.05,2.43,3.89,2.37c2.58-0.06,3.41-2.71,4.53-2.78c1.06-0.06,2.56,2.68,4.47,2.79c2.31,0.13,3.1-2.78,4.03-2.45 C77.34,87.86,79.06,103.48,68.48,103.74z M102.35,117.5c-10.42-0.44-9.48-14.45-0.3-14.55 C111.77,102.57,112.86,117.56,102.35,117.5z M121.63,77.91c-0.33,0-0.68,0.01-0.99,0.04c-0.12,0.03-0.24,0.04-0.34,0.07 c-0.9,0.36-0.48,1.85-0.42,4.2L14.35,83.14c0.2-1.11,0.49-1.71,0.15-1.91c-0.01-0.01-0.03-0.01-0.04-0.02 c-0.06-0.03-0.12-0.05-0.2-0.07c-0.01,0-0.01,0-0.02,0c-0.08-0.03-0.19-0.05-0.3-0.06c-0.03-0.01-0.06-0.01-0.09-0.02 c-2.17-0.23-4.4-0.09-6.59-0.03c0.47-1.85,1.34-3,3.17-4.32c2.48-1.48,14.57-4.02,18-4.48c3.38-4.25,15.12-18.92,24.98-21.43 c7.25-1.82,33.45-4.05,42.3,4.2c5.15,3.83,9.56,12.96,13.75,16.15c2.55,1.48,8.74,2.1,10.94,3.88c0.46,0.4,0.9,1.51,1.26,2.88 H121.63z M122.3,88.39c-0.27-2.77-0.38-5.77-0.54-8.48c0.45,0,0.95,0.02,1.41,0.05c0.39,2.09,0.56,6.31,0.52,8.46 C123.08,88.41,122.63,88.4,122.3,88.39z"/>
    <path d="M92.23,53.9c-11.09-6.27-36.08-5.98-46.89,1.72c-5.52,4.03-12.72,13.86-13.7,15.17c-0.98,1.31-0.24,3.33,2.12,3.43 c0.74,0.03,2.38,0.06,4.65,0.09c-0.21,0.79-0.27,1.44-0.08,1.77c0.39,0.74,12.15,0.57,12.97-0.33c0.14-0.15,0.25-0.65,0.32-1.33 c19.39,0.12,47.22,0.2,47.22,0.2c0.49-0.24,6.2-5.63,6.28-6.2S99.25,57.57,92.23,53.9z M70.06,70.13 c-0.36,0.18-9.8,0.19-18.37,0.11c-0.08-1.14-0.26-2.08-0.55-2.32c-0.9-0.73-5-0.63-7.91-0.16c-0.91,0.15-1.9,1.09-2.75,2.3 c-1.6-0.05-2.6-0.11-2.64-0.17c-0.33-0.49,5.85-8.38,11.54-12.25c4.88-3.32,15.28-3.79,19.28-3.84c0.71-0.01,1.64-0.04,1.71,0.04 C70.45,53.94,70.22,70.05,70.06,70.13z M96.48,70.62c-0.32,0.16-20.88,0-21.12-0.08c-0.12-0.04-0.14-16.37-0.02-16.55 c4-0.1,9.15,0.29,14.94,3.09c5.65,2.89,9.62,10.27,9.54,10.52C99.74,67.85,96.81,70.46,96.48,70.62z"/>
  </g>
</svg>