<svg viewBox="0 0 128 128" xmlns="http://www.w3.org/2000/svg">
  <g>
    <path d="M36.2,29.7c-2,0.3-3.9,0.8-5.8,1.7c-5,2.3-8.9,6.4-10.8,11.4c-0.5,1.4,0.2,2.5,1.1,2.9c0.5,0.2,1,0.3,1.5,0.2 c0.6-0.1,1.2-0.5,1.6-1.1c3-4.8,7.8-8.6,13.2-10.4l0.1,0c1.4-0.5,1.9-1.8,1.7-2.9C38.6,30.5,37.7,29.5,36.2,29.7z"/>
    <path d="M105.2,45.9c0.5,0.1,1.1,0,1.5-0.2c0.9-0.4,1.6-1.5,1.1-2.9c-1.9-4.9-5.9-9.1-10.8-11.4c-1.8-0.9-3.8-1.4-5.8-1.7 c-1.5-0.2-2.4,0.7-2.6,1.7c-0.2,1.1,0.3,2.4,1.7,2.9l0.1,0c5.4,1.9,10.2,5.7,13.2,10.4C103.9,45.4,104.5,45.8,105.2,45.9z"/>
    <path d="M102.6,105.5c0.5-0.4,1-0.8,1.4-1.2c11.5-10.2,17.6-24.5,17.6-41.4c0-16.9-6.1-31.3-17.6-41.5C93.4,12.1,79.1,7,63.6,7 c-27.9,0-58,17.5-58,55.9c0,19.5,7.8,33.6,19.1,42.8c-4.8,0.9-8.1,2.9-8.1,5.3c0,1.8,2,3.5,5.1,4.5c-0.2,0.4-0.2,0.8-0.2,1.2 c0,4.2,7.8,7.6,17.5,7.6c8.4,0,15.3-2.6,17.1-6c2.6,0.3,5.1,0.4,7.6,0.4c2.9,0,5.8-0.2,8.7-0.6c1.6,3.5,8.7,6.1,17.1,6.1 c9.7,0,17.5-3.4,17.5-7.6c0-0.4-0.1-0.8-0.2-1.2c3.1-1.1,5.1-2.7,5.1-4.5C111.7,108.4,107.9,106.3,102.6,105.5z M35.6,115.8 c-1,0.2-2.1,0.3-3,0.8c-0.3,0.2-0.7,0.4-0.8,0.8c-0.3,1,1.4,1.8,1.3,2.9c-1.5-0.1-3-0.6-4.5-1.1c-0.8-0.3-1.8-0.7-2-1.5 c-0.2-0.7,0.2-1.4,0.7-1.8c0.5-0.4,1.2-0.7,1.8-0.9c0.4-0.1,0.8-0.2,1.1-0.5c0.3-0.2,0.6-0.7,0.5-1.1c-0.2-0.7-1.1-0.8-1.9-0.7 c-1.7,0.2-5,1.2-6.2,0c-1.1-1.1-0.6-3.1,0.6-3.9c2.3-1.5,5.2-1.7,7.3-1.6c1.6,0.1,3-1.2,3-2.8l1.7-52.2c0.3-0.2,0.6-0.3,0.8-0.5 c0.4-0.3,0.9-0.4,1.4-0.6c0.1,0,0.2-0.1,0.3-0.1c-0.4,16.6-0.9,49.4-1.2,51.6c-0.3,3,0,5.2,1.7,7.7c0.4,0.7,1,1.3,1.2,2 C40.3,114.6,37.3,115.4,35.6,115.8z M45,51.9c-0.1-0.1-0.1-0.1-0.2-0.2c0.1,0,0.1,0.1,0.2,0.1c0,0,0,0,0.1,0 C45,51.9,45,51.9,45,51.9z M46.6,72.4c2.4-1.3,5-2.3,7.7-2.9c3.1-0.7,6.4-0.9,9.6-0.8c0,0,0,0,0,0c3.3,0,6.7,0.2,9.9,0.9 c2.8,0.6,5.4,1.6,7.9,3l0,4.5c-5.4-1-11.4-1.6-17.7-1.6c-6.2,0-12,0.6-17.4,1.6L46.6,72.4z M63.6,114.8c-3,0-5.9-0.2-8.8-0.6 c-1.8-1.5-5-2.8-7.9-3.7l-0.1-10.9c5.5-2.2,11.3-3.5,17.2-3.7h0c0.3,0,0.6,0,0.8,0c-0.3,0-0.6,0-0.9,0c6,0.1,12,1.6,17.6,3.8 l-0.1,10.8c-2.8,0.9-5.8,2.1-7.7,3.5C70.4,114.5,67,114.8,63.6,114.8z M87,115.8l-0.9,0.2c-1,0.2-1.3,1.4-0.6,2.1 c0.6,0.7,0.9,1.4,0,1.9c-2,1-6-0.9-6-0.9c-5.2-1.2-1.7-3.3,1.9-4.8c3-1.2,5-4.2,4.9-7.4l-0.6-56.4c0,0,0.1,0,0.1,0 c0.2,0,0.5-0.1,0.7-0.1c0.1,0,0.1,0,0.4,0l0.3,0h0.2c0.5,0,1.1,0,1.6,0.1c0,0,0.1,0,0.1,0l1.5,60.6C90.7,113.3,89.2,115.3,87,115.8 z M99.1,103.1l-2-48.1c0.6,0.2,1.4,0.1,2-0.1c1.7-0.6,2.5-2.3,1.8-3.8c0,0,0-0.1-0.1-0.2c-0.1-0.2-0.1-0.4-0.4-0.8 c-0.1-0.2-0.2-0.4-0.4-0.6c-0.2-0.2-0.3-0.4-0.5-0.7c-0.4-0.5-0.8-1-1.3-1.5c-0.5-0.5-1.2-1.1-1.9-1.6c-0.7-0.5-1.6-1-2.5-1.4 c-0.9-0.4-2-0.8-3-1c-1.1-0.2-2.2-0.3-3.3-0.4l-0.8,0c-0.2,0-0.5,0-0.8,0.1c-0.7,0.1-1.2,0.2-1.7,0.3c-1.1,0.2-2.1,0.6-3,1 c-0.9,0.4-1.8,0.9-2.5,1.4c-0.8,0.5-1.4,1-1.9,1.6c-1.1,1-1.8,2-2.2,2.8c-0.2,0.4-0.3,0.7-0.4,0.8c-0.1,0.2-0.1,0.3-0.1,0.3 c-0.5,1.1-0.3,2.4,0.8,3.2c1.3,1.1,3.4,1,4.6-0.2l0.2-0.2c0,0,0.2-0.2,0.6-0.6c0.4-0.4,1-0.8,1.7-1.3c0,0,0,0,0,0l-0.1,17.8 c-2.3-1.3-4.8-2.2-7.3-2.8c-3.3-0.9-6.8-1.2-10.2-1.3v0c-3.5,0.1-7,0.4-10.5,1.3c-2.5,0.6-4.9,1.5-7.2,2.8l-0.1-17.1 c0.3,0.2,0.5,0.4,0.7,0.5c0.3,0.3,0.5,0.4,0.7,0.6c0.1,0.1,0.4,0.4,0.5,0.5l0.2,0.2c0.9,0.9,2.4,1.2,3.3,0.7 c1.7-0.6,2.5-2.3,1.8-3.8c0,0,0,0-0.1-0.2c-0.1-0.2-0.1-0.4-0.4-0.8c-0.1-0.2-0.3-0.4-0.4-0.6c-0.2-0.2-0.3-0.5-0.5-0.7 c-0.3-0.5-0.8-1-1.3-1.5c-0.5-0.6-1.1-1.1-1.9-1.6c-0.7-0.5-1.6-1-2.5-1.4c-0.9-0.4-1.9-0.8-3-1c-1.1-0.2-2.2-0.3-3.3-0.3h-0.8 c-0.1,0-0.5,0.1-0.8,0.1c-0.6,0.1-1.2,0.2-1.7,0.3c-1,0.2-2.1,0.6-3,1s-1.8,0.9-2.5,1.4s-1.4,1.1-1.9,1.6c-1.1,1.1-1.8,2.1-2.2,2.8 c-0.2,0.3-0.3,0.6-0.4,0.8l-0.1,0.3c-0.5,1-0.2,2.4,0.8,3.2c1,0.7,2.3,0.9,3.4,0.5l-2,48.8c-0.8-0.6-1.6-1.2-2.4-1.9 C15.5,92.9,9.6,79.3,9.6,62.9c0-16.4,5.9-30,17.1-39.3c9.6-8,23.1-12.6,36.9-12.6c14.5,0,27.9,4.8,37.7,13.4 c10.6,9.4,16.3,22.7,16.3,38.5c0,15.7-5.6,29-16.2,38.4C100.6,101.9,99.9,102.5,99.1,103.1z"/>
  </g>
</svg>