<svg viewBox="0 0 128 128" xmlns="http://www.w3.org/2000/svg">
  <path d="M122.6,87.89c-1.32-0.17-3.21-0.39-4.82-0.58c0.44-5.17,1.16-13.39,1.64-18.6c-1.63-0.2-9.71-1.2-11.15-1.38l0.79-8.64h0.01 l0.27-2.96h-0.01l0.76-8.38l0.08,0.01l0.28-3.02l-11.46-1.73l0.49-20.53c-0.09-2.5-3.27-2.51-6.7-2.97 c-4.12-0.08-9.08-0.15-9.14,2.49c0,0-0.44,18.62-0.44,18.62l-13.29-2l0.61-25.8c-0.1-2.43-4.07-2.39-7.78-2.82 c-4.56-0.05-10.47-0.22-10.59,2.36c0,0-0.59,25.24-0.59,25.24L27.3,38.65c-0.03,10.16-1.38,20.33-5.14,29.66 c-0.55,1.36-1.16,2.65-1.82,3.9c0,0,0,0,0,0.01c-0.01,0-0.01,0.01-0.01,0.01c-0.18,0.35-0.77,1.33-0.81,1.38l-0.21,5.55 c-4.49-0.12-8.96-0.23-13.43-0.19c-1.03,0.06-1.82,0.92-1.66,1.98c0,0-0.27,1.76-0.4,4.52c-0.27,7.63,0.38,16.11,4.81,23.48 C15.26,119.89,24.43,124,28.52,124c4.09,0,80.46,0,80.46,0c13.56-0.74,13.72-16.15,14.59-28.08c0.23-1.65,0.27-6.07,0.36-6.52 C123.97,88.62,123.38,87.95,122.6,87.89z M29.28,40.54l30.54-1.82l48.38,7.3l-0.09,1.03L60,39.74c-0.01,1.76-0.05,3.43-0.12,5.02 l-30.82,0.75C29.17,43.87,29.25,42.2,29.28,40.54z M28.72,49.54L59.57,49c0,0.01,0,0.01,0,0.02l6.58,0.89l0.49-4.23l1.98,0.28 l-0.49,4.22l4.3,0.58l0.48-4.19l1.99,0.28l-0.48,4.18l4.3,0.58l0.48-4.16l1.98,0.28l-0.48,4.14l4.3,0.58l0.48-4.12l1.98,0.28 l-0.47,4.11l4.3,0.58l0.47-4.08l1.98,0.28l-0.47,4.07l4.3,0.58l0.47-4.05l1.98,0.28l-0.47,4.04l4.31,0.58l0.46-4.01l1.98,0.28 l-0.46,4l1.5,0.2c-0.01,0.01-0.08,0.92-0.08,0.96h-0.01l-0.18,1.99l-47.76-6.41c-0.21,1.82-0.46,3.5-0.75,5.04l-31.02,0.09 C28.01,54.84,28.41,52.3,28.72,49.54z M26.61,61.16H57.5c0-0.01,0-0.02,0-0.02l0.18,0.02l7.22,0.83L65.33,58l2.03,0.24l-0.43,3.99 l4.32,0.53l0.42-3.98l1.99,0.25l-0.42,3.98l4.31,0.53l0.42-3.98l1.99,0.25l-0.42,3.97l4.31,0.53l0.42-3.97l1.99,0.25l-0.42,3.97 l4.31,0.53l0.42-3.96l1.99,0.25l-0.42,3.96l4.31,0.53l0.42-3.95l1.99,0.25l-0.42,3.95l4.31,0.53l0.43-3.94l1.98,0.25l-0.42,3.94 l1.54,0.19v0.06l-0.18,1.92c2.64,0.34,8.43,1.06,11.15,1.39c0,0.03-0.08,0.96-0.09,1.02l-60.29-7.47c-0.63,2.02-1.29,3.65-1.91,4.96 L24.08,68.9C24.9,66.89,25.79,64.31,26.61,61.16z M21.5,74.22c0.24-0.41,0.49-0.84,0.74-1.33c4.86,0.07,32.73-0.2,36.86,0.59 l0.43-3.99l1.99,0.24l-0.43,3.98l4.63,0.53l0.43-3.98l1.99,0.23l-0.43,3.98l4.63,0.54l0.43-3.98l1.99,0.23l-0.43,3.97l4.63,0.54 l0.43-3.97l1.99,0.23L80.95,76l4.63,0.53l0.43-3.97L88,72.79l-0.43,3.97l4.63,0.53l0.43-3.96l1.99,0.23l-0.43,3.96l4.63,0.53 l0.43-3.95l1.99,0.23l-0.43,3.95l4.63,0.53l0.43-3.95l1.98,0.23l-0.42,3.95l4.63,0.54l0.43-3.95l1.98,0.23l-0.42,3.94l2.34,0.28 c0.01,0.07-0.43,4.94-0.43,5.01c-16.08-1.92-69.43-7.7-94.62-6.77L21.5,74.22z M121.58,95.79C108.91,94.96,45.6,90.97,5.83,91.1 c-0.1-2.13-0.08-4.06,0-5.64c40.09-0.03,103.17,6.35,115.91,7.66C121.69,94.03,121.63,94.92,121.58,95.79z"/>
</svg>