<svg viewBox="0 0 128 128" xmlns="http://www.w3.org/2000/svg">
  <g>
    <path d="M124,37.1c0,0-2.9-0.5-7.9-0.8C106,17.4,85.6,7.3,64,7.3c-21.7,0-42.2,9.9-52.2,28.9C6.9,36.6,4,37.1,4,37.1v8.3 c0,0,2.3,0.1,3.5,1.5C6.1,52.1,5.3,57.8,5.3,64c0,36.9,28.2,56.7,58.7,56.7s58.7-20.3,58.7-56.7c0-6.2-0.8-11.8-2.3-17.1 c1.2-1.5,3.6-1.5,3.6-1.5V37.1z M25.8,24.8c9.9-8.7,23.4-13.4,38.1-13.4c14.7,0,28.2,4.8,38.1,13.6c3.7,3.2,6.8,7,9.2,11 c-2.4-0.1-5.1-0.2-8-0.2c-12.5,0-17.4,0-27.4,1c-5.9,0.6-12,0.6-12,0.6s-6.1-0.1-12-0.7c-9.9-1-14.9-1-27.4-1c-3,0-5.7,0.1-8.2,0.2 C19,31.8,22.1,28.1,25.8,24.8z M90.4,44.7c0,1.9-1.5,2.7-3,3.2C86,48.4,84.8,50,84.7,52c-0.1,1.6-0.7,3.1-2.3,3.4 c-0.2,0-0.4,0-0.5,0c-1.4,0-2.6-1-2.8-2.4c-0.6-3,0.1-5.8,1.8-7.9c1.6-2,4-3.1,6.6-3.1C89,42.1,90.4,43.1,90.4,44.7z M17.3,45.1 c1.6-2,4-3.1,6.6-3.1c1.5,0.1,2.9,1.1,2.9,2.7c0,1.9-1.5,2.7-3,3.2c-1.4,0.5-2.6,2.2-2.7,4.1c-0.1,1.6-0.7,3.1-2.3,3.4 c-0.2,0-0.4,0-0.5,0c-1.4,0-2.6-1-2.8-2.4C14.9,50,15.6,47.2,17.3,45.1z M102.1,103c-10,8.8-23.5,13.7-38.1,13.7 c-14.7,0-28.2-4.8-38.1-13.5C15,93.6,9.3,80.1,9.3,64c0-1.1,0-2.1,0.1-3.2c1.9,7.4,7,14.6,20.9,14.6c17.7,0,26.1-9.1,27.5-19.2 c0.6-4.2,2-8.8,6.3-8.8c4.3,0,5.7,4.6,6.3,8.8c1.4,10.1,9.8,19.2,27.5,19.2c13.8,0,19-7.1,20.8-14.5c0,1,0.1,2,0.1,3.1 C118.7,79.9,113,93.4,102.1,103z"/>
    <path d="M84.3,78.4c-0.3,0-0.7,0.1-1.1,0.2c-5.8,1.8-12.4,2.8-19.2,2.8s-13.4-1-19.2-2.8c-0.4-0.1-0.7-0.2-1.1-0.2 c-1.1,0-1.9,0.5-2.4,1.4c-0.6,1.2-0.5,2.8,0.5,4.2c2.5,3.8,10.7,9.7,22.2,9.7s19.7-6,22.2-9.7c1-1.5,1.1-3,0.5-4.2 C86.2,79,85.4,78.4,84.3,78.4z"/>
  </g>
</svg>