<svg viewBox="0 0 128 128" xmlns="http://www.w3.org/2000/svg">
  <g>
    <path d="M104,21.4C93.4,12.1,79.1,7,63.6,7c-27.9,0-58,17.5-58,55.9c0,30.6,19.1,47.9,41,53.7 c2.8,5.6,8.6,9.4,15.3,9.4h3.3c6.7,0,12.5-3.8,15.3-9.4c8.9-2.3,16.9-6.5,23.5-12.3c11.5-10.2,17.6-24.5,17.6-41.4 C121.6,46,115.5,31.6,104,21.4z M65.2,124h-3.3c-8.4,0-15.2-6.8-15.2-15.2v-21l0-1.4c5.1,0.4,10,0.6,14.8,0.6h0v17.2 c0,1.1,0.9,2,2,2v0c1.1,0,2-0.9,2-2V87h0c5-0.1,9.9-0.3,14.8-0.7l0,22.5C80.3,117.2,73.5,124,65.2,124z M101.4,101.3 c-5.5,4.8-12.1,8.4-19.3,10.7c0.2-1,0.3-2.1,0.3-3.2l0-2.5c10.3-5.3,17-14.5,18.9-24.7c0.3-1.9-0.9-3.7-2.8-4.1 c-0.4-0.1-0.9-0.1-1.3,0c-11.3,2-22.8,3-34.3,2.9c-11.5,0.1-23-0.9-34.3-2.9c-1.9-0.4-3.7,0.9-4.1,2.8c-0.1,0.4-0.1,0.9,0,1.3 c2.2,10.6,9.8,19.9,20.3,25v2.1c0,1.1,0.1,2.1,0.3,3.1c-6.9-2.2-13.2-5.5-18.3-9.8C15.5,92.9,9.6,79.3,9.6,62.9 c0-16.4,5.9-30,17.1-39.3c9.6-8,23.1-12.6,36.9-12.6c14.5,0,27.9,4.8,37.7,13.4c10.6,9.4,16.3,22.7,16.3,38.5 C117.6,78.6,112,91.9,101.4,101.3z"/>
    <path d="M58.2,58.3l-21.3-13C34.8,44,32,44.1,30,45.7c-0.4,0.3-0.8,0.8-1,1.3c-1.1,2-0.3,4.6,1.7,5.7l0.4,0.2L43.7,58 l-12.2,2.4c-2.4,0.7-4.1,2.7-3.8,4.9c0.5,2.9,3.8,4.6,6.8,3.8c0.1-0.1,0.3-0.1,0.5-0.2l22.9-8.7c0.4,0,0.7-0.3,0.8-0.6 C58.9,59.1,58.7,58.5,58.2,58.3z"/>
    <path d="M96.5,60.1l-12.2-2.4l12.6-5.2l0.4-0.2c2-1.1,2.8-3.6,1.7-5.7c-0.2-0.5-0.6-0.9-1-1.3c-2-1.5-4.8-1.7-6.9-0.3 l-21.3,13c-0.5,0.2-0.8,0.8-0.6,1.3c0.1,0.3,0.4,0.6,0.8,0.6L93,68.7c0.2,0,0.3,0.1,0.5,0.2c3,0.8,6.3-0.9,6.8-3.8 C100.6,62.8,98.9,60.8,96.5,60.1z"/>
  </g>
</svg>