<svg viewBox="0 0 128 128" xmlns="http://www.w3.org/2000/svg">
  <g>
    <path d="M104.4,21.4C93.8,12.1,79.5,7,64,7C36.1,7,6,24.5,6,62.9c0,38.4,30.1,55.9,58,55.9c15.4,0,29.8-5.2,40.4-14.5 C115.9,94.1,122,79.8,122,62.9C122,46,115.9,31.6,104.4,21.4z M101.8,101.3c-9.9,8.7-23.3,13.5-37.8,13.5 c-13.8,0-27.3-4.6-36.9-12.6C15.9,92.9,10,79.3,10,62.9c0-16.4,5.9-30,17.1-39.3C36.7,15.6,50.2,11,64,11 c14.5,0,27.9,4.8,37.7,13.4c10.6,9.4,16.3,22.7,16.3,38.5C118,78.6,112.4,91.9,101.8,101.3z"/>
    <path d="M105,48.7c0,0-0.2,0.2-0.6,1.5c-1.7,6.4-6.2,12.4-14.2,13.2c-10,1.1-15.2-5.9-16-10.9 c-1-6.6,2.4-12.5,8.9-14.3c3.9-1.1,7.6,0,10.3,3c1.3,1.4,2.6,4,2.2,6.5c-1.3,7-7.8,6.9-10,5.2c-1.7-1.3-2.3-3.9,1.2-4.8 c1.3-0.3,2.4-0.6,2.8-2.3c0.2-1.1-0.7-2.2-1.6-2.7c-2.1-1.1-4.9-0.1-6.5,1.3c-1.7,1.5-2.5,3.8-2,6.4c0.4,2,2,4.7,4.8,6.1 c3.5,1.7,12.7,1.5,14.8-7.5c1-4.1-0.8-8.4-2.8-10.6c-5.5-6.2-13-4.7-14.3-4.3C73.7,37,69,44.2,70.5,53.3C71.4,59,77,70,92.1,66.7 c9-2,13.5-8.5,13.3-17.1C105.4,49.1,105.1,48.8,105,48.7z"/>
    <path d="M37.8,38.1c10-1.1,15.2,5.9,16,10.9c1,6.7-2.4,12.5-8.9,14.3c-3.9,1.1-7.6,0-10.3-3c-1.3-1.4-2.6-4-2.2-6.5 c1.3-7,7.8-6.9,10-5.2c1.7,1.3,2.3,3.9-1.2,4.8c-1.3,0.3-2.4,0.6-2.8,2.3c-0.2,1.1,0.7,2.2,1.6,2.7c2.1,1.1,4.9,0.1,6.5-1.3 c1.7-1.5,2.5-3.9,2-6.4c-0.4-2-2-4.7-4.8-6.1c-3.5-1.7-12.7-1.5-14.9,7.5c-1,4.2,0.8,8.4,2.8,10.7c5.5,6.2,13,4.7,14.3,4.3 c8.4-2.3,13.1-9.5,11.6-18.7c-0.9-5.7-6.5-16.6-21.6-13.3c-9,2-13.5,8.5-13.3,17.1c0,0.5,0.3,0.8,0.4,0.9c0,0,0.2-0.2,0.6-1.5 C25.3,44.9,29.8,39,37.8,38.1z"/>
    <path d="M85.2,86.5c-1.8,0.9-2.8,1.9-6.1,1.7c-2.2-0.2-3.8-1.2-5.7-2.4c-2.4-1.5-5.1-3.3-9.3-3.4 c-4.2,0.2-6.9,1.9-9.3,3.4C52.8,87,51.2,88,49,88.2c-3.3,0.2-4.4-0.6-6.2-1.5c-8.3-4-12.8-1.1-14.2,0.6c-1.3,1.5-0.4,3.2,2,1.4 c1.5-1.1,4.2-2.5,10.4,1c2,1.1,3.8,2.8,8.4,2.5c3.2-0.2,5.4-1.7,7.6-3c2.1-1.4,4.1-2.6,7.1-2.8c3,0.2,5,1.4,7.1,2.8 c2.1,1.4,4.4,2.8,7.6,3c4.5,0.3,6.3-1.5,8.3-2.6c6.1-3.5,8.9-1.9,10.4-0.8c2.4,1.8,3.4,0.1,2-1.4C98,85.5,93.4,82.5,85.2,86.5z"/>
  </g>
</svg>