<svg viewBox="0 0 128 128" xmlns="http://www.w3.org/2000/svg">
  <g>
    <path d="M121.9,6.04c-3.45-3.11-13.67-1.26-21.41,1.7c-11.15,4.45-16.11,8.34-16.11,8.34s0,0.02,0,0.06h-0.06 c0,0-9.62,5.58-23.41,18.63c-3.93,3.72-7.53,7.32-10.7,10.8c0-0.02,0-0.03,0-0.03c-0.66,0.77-4.1,4.79-4.76,5.6l-25.34,4.49 L3.77,71.73l1.37,4.04l0.12,0.05L5.2,75.88l13.05,6.36l17.91-9.14c0.01,0.49,0.04,0.97,0.09,1.43c-0.77,0.65-4.93,4.56-5.18,6.14 c-12.81,1.12-18.98,21.96-20.99,29.58c-1.04,3.04-3.53,3.66-2.7,5.05c1.11,2.81,16.04-0.41,17.07-1.17 c-0.02,0.05-0.22,0.53-0.82,1.51c-0.23,0.37-1.03,0.9-0.97,1.45c5.15,3.37,25.04-6.02,26.35-19.29c0.67-0.07,4.07-3.76,5.33-5.14 c0.51,0.07,1.03,0.13,1.56,0.17l-7.64,16.19c0,0,7.12,15.77,7.44,15.77s4.37,0.32,4.37,0.32l14.4-16.1l3.34-25.26 c5.39-4.23,10.53-9.55,16.29-15.56c10.12-10.58,18.61-23.71,18.61-23.71s4.34-5.23,8.45-17.02C126.89,11.06,121.93,6.07,121.9,6.04 z M39.95,66.94c0.89-3.6,3.13-7.75,6.83-12.6c1.2,3.89,3.8,10.31,9.01,16.47c-4.51-0.29-10.36,5.38-14.5,8.78 C38.89,76.02,38.58,72.53,39.95,66.94z M39.67,105.38c-6.7,7.26-10.84,6.67-11.19,6.32c-0.42-0.42,0.39-2.01-1.18-2.49 c-2.29-0.69-11.83,2.76-12.31,2.14c-0.49-0.62,1.89-9.83,7.01-17.78c4.14-6.43,8.98-7.87,10.68-8.19c0.25,0.5,0.54,1.03,0.88,1.57 c-7.17,7.22-12.26,13.6-12.33,14.9c-0.08,1.44,2.12,3.54,2.12,3.54c0.44,0.51,1.19,1.03,1.89,1.43c0.7,0.4,1.36,0.68,1.62,0.72 c0.63,0.29,10.69-8.03,14.84-12.53c0.93,0.58,1.8,1.04,2.59,1.41C43.61,99.34,42.26,102.58,39.67,105.38z M62.63,88.87 c-5.32,1.67-9.25,1.41-13.68-1.85c3.75-4.37,8.65-10.13,8.25-14.62c4.17,4.31,9.79,7.38,10.8,7.91l-0.01,0.02 c-0.14-0.01,3.98,2.21,5.64,2.79C70.18,85.57,66.58,87.54,62.63,88.87z M91.93,66.12c-4.58,4.78-8.87,9.25-13.28,13.05 c-1.67-0.68-4.75-2.2-5.6-2.58l0.01-0.01c-9.24-4.36-19.64-15.71-22.13-27.29c3.27-3.73,7.26-7.81,12.04-12.34 c10.76-10.18,18.98-15.76,21.8-17.56c2.73,12.31,16.01,22.48,24.77,24.45C107.39,47.04,100.18,57.5,91.93,66.12z"/>
    <path d="M76.14,54.5c3.44,2.57,8.32,2.44,11.38-0.69s3.06-8.82,0.19-11.76c-3.3-3.37-8.59-3.9-12.38-0.18 C72.02,45.12,72.2,51.56,76.14,54.5z"/>
  </g>
</svg>