<svg viewBox="0 0 128 128" xmlns="http://www.w3.org/2000/svg">
  <g>
    <path d="M124.09,67.9L91.74,55.96l-0.38-2.29l0.25,0.44l2.04-0.04c1.12-0.03,2.09-0.79,2.38-1.88c0.56-2.05,0.9-5.68-1.37-10.17 c-2.25-4.45-5.42-6.2-7.46-6.88c-1.11-0.37-2.34,0.12-2.93,1.13l-1.46,2.49l-13.03-4.97c-0.12-2.56-0.23-5.13-0.24-5.44 c-0.03-0.65-0.97-0.67-1.05,0c-0.04,0.32-0.12,2.85-0.2,5.39l-13.46,6.34c-0.27-0.84-0.91-1.53-1.77-1.85L6.73,21.12 c-2.66-0.77-3.64,0.69-3.63,2.41L1.98,57.21c-0.03,1.21,0.71,2.32,1.87,2.77l26.93,9.95c0.05,0.18,0.09,0.36,0.14,0.54l-3.13,3.51 c-0.16-0.04-0.33-0.04-0.49,0.02l-4.13,1.55c-0.44,0.16-0.67,0.66-0.5,1.1l0.79,2.08c0.16,0.44,0.66,0.67,1.1,0.5l4.13-1.56 c0.14-0.05,0.25-0.15,0.35-0.26l4.76,0.73c5.04,10.18,13.53,16.55,20.13,14.26c1.76-0.61,3.76-2.02,4.92-3.61 c1.3-1.49,2.45-3.32,3.38-5.39l11.05-4.72l-0.27,8.19c-0.04,1.23,0.71,2.34,1.87,2.79l46.68,17.24c2.34,1,3.27-0.34,3.33-2.22 l1.13-33.92C126.05,69.49,125.28,68.34,124.09,67.9z M29.44,49.94L28.9,65.31c0.36,0.14,0.71,0.27,1.07,0.41 c0.08,0.56,0.16,1.13,0.27,1.7C17.85,62.74,4.5,57.64,4.02,57.27c0,0-0.04,0.08-0.04,0L5.1,23.61c0.02-0.68,0.61-0.72,0.93-0.62 l46.33,17.14c0.53,0.15,0.6,0.83,0.6,0.83l-1.51,0.71l0.01-0.27l-8.96-3.31l-0.24,7.79c-0.34-0.06-0.68-0.1-1.02-0.13l0.25-8.04 l-11.47-4.23l-0.54,15.39l3.1,1.15c-0.19,0.29-0.37,0.58-0.55,0.89L29.44,49.94z M31.41,72.17c0.12,0.36,0.23,0.72,0.35,1.08 l-2.16,0.96L31.41,72.17z M29.37,75.95l2.91-1.29c0.24,0.62,0.5,1.24,0.76,1.84L29.37,75.95z M53.23,90.56 c-5.5,2.07-12.95-3.31-17.66-12.16l14.29,2.18c0.04,0.01,0.07,0.01,0.11,0.01c0.37,0,0.69-0.27,0.74-0.64 c0.06-0.41-0.22-0.79-0.63-0.85l-15.34-2.34c-0.41-0.87-0.79-1.76-1.15-2.68l19.49-8.63c0.38-0.17,0.55-0.62,0.39-0.99 c-0.17-0.38-0.62-0.56-0.99-0.39L33.1,72.66c-0.2-0.59-0.39-1.17-0.55-1.76l9.92-11.11c0.28-0.31,0.25-0.78-0.06-1.06 c-0.31-0.28-0.78-0.25-1.06,0.06l-9.26,10.37c-2.3-9.76-0.26-18.73,5.24-20.8c6.38-2.4,15.4,5.23,19.71,16.67 C61.35,76.47,59.61,88.16,53.23,90.56z M77.04,52.68l46.35,17.12c0.38,0.14,0.62,0.51,0.61,0.91l-1.13,33.9 c-0.02,0.25-0.15,0.57-0.6,0.4c0,0-47.24-18.05-47.24-18.08l1.12-33.66C76.17,52.64,76.64,52.53,77.04,52.68z M69.07,44.55 c-3.29,0-5.96-1.28-5.96-2.85v-2.23c0-1.44,2.22-2.62,5.1-2.82c-0.04,1.53-0.07,2.65-0.07,2.65s0.19,0.4,0.94,0.4 s0.94-0.4,0.94-0.4s-0.05-1.12-0.12-2.65c2.9,0.2,5.13,1.39,5.13,2.82v2.23C75.03,43.28,72.36,44.55,69.07,44.55z"/>
    <path d="M15.89,44.89l-9.85-3.67l-0.5,15.1c1.53,0.64,5.14,2.05,9.88,3.86L15.89,44.89z"/>
    <polygon points="15.92,43.82 16.4,28.45 6.58,24.82 6.07,40.14 "/>
    <path d="M28.44,49.57l-11.54-4.3l-0.47,15.3c3.41,1.31,7.34,2.8,11.47,4.37L28.44,49.57z"/>
    <polygon points="16.93,44.19 28.47,48.49 29.02,33.11 17.41,28.82 "/>
    <path d="M87.93,74.95l-0.47,15.3c3.44,1.32,7.41,2.83,11.59,4.41l0.5-15.35L87.93,74.95z"/>
    <polygon points="112.04,82.9 112.53,67.39 101.04,63.14 100.54,78.59 "/>
    <polygon points="121.97,86.63 122.49,71.07 113.54,67.76 113.05,83.28 "/>
    <path d="M112.53,99.75c3.08,1.16,6.08,2.29,8.89,3.34l0.51-15.38l-8.92-3.35L112.53,99.75z"/>
    <path d="M77.07,70.87l-0.5,15.12c1.53,0.64,5.14,2.05,9.88,3.86l0.47-15.29L77.07,70.87z"/>
    <path d="M100.5,79.66L100,95.02c3.77,1.43,7.69,2.91,11.51,4.35L112,83.98L100.5,79.66z"/>
    <polygon points="87.96,73.87 99.58,78.23 100.08,62.79 88.44,58.49 "/>
    <polygon points="86.95,73.49 87.43,58.12 77.61,54.49 77.1,69.8 "/>
  </g>
</svg>