<svg viewBox="0 0 128 128" xmlns="http://www.w3.org/2000/svg">
  <g>
    <path d="M118.5,92c-0.3-2.5-1-4.9-2-7.2l1.6-1l-3.3-5.7L113,79c-1.5-2-3.3-3.7-5.3-5.2l0.9-1.7l-5.7-3.3l-1.1,1.7 c-2.2-0.9-4.6-1.5-7.1-1.8l-0.1-2H88V69c-2.5,0.4-4.8,1-7,2l-1.2-1.8l-5.7,3.3l1.1,2c-1.9,1.5-3.6,3.2-5,5.2l-2-1l-3.3,5.7l2,1.3 c-0.2,0.6-0.4,1.1-0.6,1.7c-0.9,0.4-2.1,0.4-3-0.2l-1.1-0.7c-1.5-1-2.1-3-1.3-4.6c3.7-8.2,10.8-14.1,19.1-17.1 c-2.2,0.4-4.3,1.1-6.5,1.8h-0.1c-0.4,0.2-0.7,0.2-0.9,0.2c0-0.3-0.1-0.7,0-1.4l4.8-28.1H107l3.2,30.8c2,1.4,3.8,3,5.5,4.7 c0-0.4,0-0.7-0.1-1.2l-3.7-36.2c-0.1-1.1-0.7-2-1.6-2.5h2.8c3.7,0,4.6-1.7,4.6-2.8c0-1.1-0.9-2-2.1-2H67.7c-1.1,0-2,0.9-2,2 c0,1.1,1.5,2.9,4.3,2.9h4.1c-0.1,0.1-0.3,0.2-0.4,0.3c-0.4,0.3-0.7,0.7-1,1.3v0.1c0,0.1-0.1,0.2-0.1,0.3s-0.1,0.2-0.1,0.2 l-4.6,26.9c-1.4,0.1-10.3,0.4-20.9,1.2V52.1c0-1.1-0.9-2-2-2.1v-9c0-1.5-0.5-2.8-1.5-3.8c-2.2-2.1-5.8-2.2-6.2-2.2 c-1.1,0-2,0.9-2,2s0.9,2,2,2c0.7,0,2.6,0.3,3.4,1c0.2,0.2,0.4,0.6,0.4,1v9c-1.1,0-2,1-2,2.1v11.8C26,65.1,12.5,66.7,8,69 c-1.4,0.7-2.8,2-3.5,4.9h7.6c1.3,0,2.1,0.8,1.9,1.7l-1.1,6.9c-0.2,1-1.1,1.5-2.4,1.5l-5.4-0.1l3.6,17.8l-0.3,0.5l0.5,0.3l0.2,1.1 c-0.3,1-0.6,2-0.7,3.1H7.2v3.6l1.2,0.1c0.2,1.3,0.5,2.6,1.1,3.9l-1,0.6l1.8,3.1l1.1-0.6c0.8,1.1,1.8,2,2.9,2.8l-0.6,1.1l3.1,1.8 l0.7-1.1c1.2,0.5,2.5,0.8,3.8,1l0.1,1.2H25l0.1-1.2c1.3-0.2,2.6-0.5,3.8-1l0.6,1l3.1-1.8l-0.6-1.1c1.1-0.8,2-1.8,2.8-2.9l1.1,0.5 l1.8-3.1l-1-0.6c0.5-1.2,0.8-2.5,1-3.9h1.1v-3.6h-1.2c-0.2-1.4-0.5-2.7-1.1-3.9l0.9-0.6l-1.8-3.1l-1,0.5c-0.8-1.1-1.8-2-2.9-2.8 l0.5-1l-3.1-1.8l-0.6,1c-1.2-0.5-2.5-0.8-3.9-1v-1.1H21v1.2c-1.4,0.2-2.7,0.5-3.9,1.1l-0.6-0.9l-3.1,1.8l0.5,1 c-0.2,0.2-0.5,0.4-0.7,0.6c-0.2,0.1-0.3,0.2-0.5,0.2c-1,0.6-2.3,0.2-2.8-0.8L9.7,96c-0.5-0.9-0.2-2,0.6-2.6 c6.4-4.4,15.9-5.2,22.8-1.1c5.9,3.6,8.9,9.1,9,15.9h23.4l2.9,5l2.1-1.1c1.5,1.9,3.2,3.6,5.1,5.1l-1,2l5.7,3.3l1.2-1.9 c2.2,0.9,4.6,1.5,7,1.9l0.1,2.1h6.6l0.1-2.2c2.5-0.3,4.9-1,7.1-1.9l1.1,1.7l5.7-3.3l-1-1.8c2-1.5,3.7-3.3,5.2-5.2l1.7,0.9l3.3-5.7 l-1.7-1.1c0.9-2.3,1.6-4.7,1.9-7.2l1.9-0.1v-6.6L118.5,92z M23.2,99.2c5,0,9.1,4.1,9.1,9.1s-4.1,9.1-9.1,9.1s-9.1-4.1-9.1-9.1 S18.1,99.2,23.2,99.2z M91.8,112.3c-9.2,0-16.6-7.4-16.6-16.6s7.4-16.6,16.6-16.6c9.2,0,16.6,7.4,16.6,16.6 C108.5,104.8,101,112.3,91.8,112.3z"/>
    <ellipse cx="91.8" cy="95.6" rx="8.1" ry="8.1" transform="matrix(0.9732 -0.2298 0.2298 0.9732 -19.5087 23.6488)"/>
    <path d="M23.2,112.8c2.4,0,4.4-2,4.4-4.4s-2-4.4-4.4-4.4s-4.4,2-4.4,4.4S20.8,112.8,23.2,112.8z"/>
  </g>
</svg>