<svg viewBox="0 0 128 128" xmlns="http://www.w3.org/2000/svg">
  <path d="M123.7,70.5c0.2-2.1,0.3-4.3,0.3-6.5c0-37.7-28.8-57.9-60-57.9S4,26.8,4,64c0,2.1,0.1,4.2,0.3,6.3c-1.6,0.9-2.4,3.1-2.4,6.4 c0,6.6,0.9,15.3,8.3,25.3c2.8,3.9,5.2,5.8,6.9,7.2c2.2,1.8,3,2.4,3.1,5.6c0.2,5.4,1.4,11.4,1.4,11.6L22,128h25l0.1-1.9 c0-0.2,0.2-3.4,0.4-6.2c5.3,1.3,10.9,2,16.5,2c5.5,0,10.9-0.6,16.1-1.9c0.2,2.7,0.4,5.9,0.4,6.1l0.1,1.9h25l0.3-1.6 c0.1-0.3,1.2-6.2,1.4-11.6c0.1-3.2,0.8-3.8,3.1-5.6c1.7-1.4,4.1-3.3,6.9-7.2c7.3-9.9,8.3-18.7,8.3-25.3 C125.7,73.7,125,71.6,123.7,70.5z M43.7,116.4c-0.1,1.5-0.3,5.3-0.5,7.6h-18c-0.4-2.1-0.9-5.9-1.1-9.4c-0.2-5.1-2.2-6.6-4.6-8.6 c-1.6-1.3-3.7-3-6.2-6.4c-6.7-9-7.5-17-7.5-22.9c0-1.9,0.3-2.7,0.4-2.9c0.5,0.2,1.7,1,2.8,2.6c6,8.4,10.3,9.8,14.9,11.2 c3.6,1.1,7.3,2.3,12.9,7.4C43.2,100.7,43.9,108.7,43.7,116.4z M79.9,116c-5.1,1.3-10.4,1.9-15.9,1.9c-5.6,0.1-11.1-0.6-16.3-1.9 c0.1-8.2-0.8-17.3-8.1-23.9c-6.2-5.6-10.6-7-14.4-8.2c-4.2-1.3-7.6-2.4-12.8-9.7c-0.6-0.8-2.2-2.8-4.1-3.8C8.1,68.2,8,66.1,8,64 c0-16.3,5.9-30.1,17-39.9c10.2-9,24-14,39-14s28.9,4.9,39,13.8c11.1,9.8,17,23.6,17,40.1c0,2.1-0.1,4.1-0.3,6.1 c-2.2,0.9-3.9,3.1-4.5,4c-5.2,7.3-8.6,8.4-12.8,9.7C98.5,85,94.2,86.4,88,92C80.7,98.7,79.8,107.8,79.9,116z M114.2,99.6 c-2.5,3.4-4.6,5.1-6.2,6.4c-2.5,2-4.4,3.5-4.6,8.6c-0.1,3.5-0.7,7.3-1.1,9.4h-18c-0.2-2.3-0.4-6.1-0.5-7.5 c-0.2-7.8,0.5-15.8,6.7-21.5c5.6-5.1,9.3-6.2,12.9-7.4c4.6-1.4,8.9-2.8,14.9-11.2c1.2-1.6,2.3-2.4,2.8-2.6c0.1,0.3,0.4,1,0.4,2.9 C121.7,82.6,120.8,90.6,114.2,99.6z"/>
  <path d="M76,99.4c0,6.6-5.4,12-12,12s-12-5.4-12-12V85.6c0-6.6,5.4-12,12-12s12,5.4,12,12V99.4z"/>
  <path d="M51.2,40.1c-2.4-1.5-5.1-2.3-7.9-2.3c-6.3,0-12.3,4.1-15.9,10.9c-5.2,9.8-3.1,20.9,4.8,26c2.4,1.5,5.1,2.3,7.9,2.3 c6.3,0,12.3-4.1,15.9-10.9C61.2,56.3,59.1,45.2,51.2,40.1z M52.5,64.2c-3.1,6-7.9,8.8-12.3,8.8c-2,0-4-0.6-5.8-1.7 c-5.6-3.6-8-12-3.5-20.7c3.1-6,7.8-8.8,12.3-8.8c2,0,4,0.6,5.8,1.7C54.7,47.1,57.1,55.5,52.5,64.2z"/>
  <path d="M72,66.1C75.5,72.9,81.5,77,87.9,77c2.8,0,5.5-0.8,7.9-2.3c7.9-5.1,10-16.2,4.8-26C97,41.9,91,37.8,84.7,37.8 c-2.8,0-5.5,0.8-7.9,2.3C68.9,45.2,66.7,56.3,72,66.1z M78.9,43.5c1.8-1.1,3.7-1.7,5.8-1.7c4.5,0,9.2,2.8,12.3,8.8 c4.6,8.7,2.2,17.1-3.5,20.7c-1.8,1.1-3.7,1.7-5.8,1.7c-4.5,0-9.2-2.8-12.3-8.8C70.9,55.5,73.3,47.1,78.9,43.5z"/>
</svg>