<svg viewBox="0 0 128 128" xmlns="http://www.w3.org/2000/svg">
  <path d="M123.03,94.94c-1.28-4.97-7.09-8.32-11.87-9.34c-15.06-2.88-39.15-14.01-52.42-9.63c0.02-0.18-0.21-0.21-0.37-0.27 c-3.16-0.37-6.49,0.06-9.56,0.86c-0.02,0-0.04,0.01-0.05,0.02c-0.37,0.11-0.7,0.25-1.01,0.42v-0.02c-1.77-3.75-5.82-6.48-10.01-6.35 c-4.34-0.99-8.76,2.09-9.89,5.85V64.81c0-2.57-1.6-4.86-4.01-5.75c0,0-9.63-4-14.77-4.11c-2.28-0.14-4.22,1.77-4.21,4.04 c0,0,0,64.9,0,64.9h6l4.8-9.58c4.84,0.33,94.22-0.81,97.08,0.77l4.42,8.81h6v-17.22c0-0.2-0.06-0.38-0.15-0.55 C124.57,101.37,124.75,97.85,123.03,94.94z M48.3,78.94c1.17-0.62,2.96-1.02,5.89-1.28c-6.38,6.73-9.29,21.19-9.52,25.57l-6.33-1.8 c-0.33-0.14-0.34-0.19-0.34-0.73c0.01-7.89,2.8-13.74,4.51-16.54C44.71,80.19,48.19,78.97,48.3,78.94z M45.81,77.57 c0.01,0.02,0.01,0.05,0.01,0.08c-1.87-0.13-4.25,1.38-5.84-0.16c-1.33-1.33,0.4-3.6,2.03-2.63c-0.11-0.39-0.3-0.92-0.62-1.47 C43.39,74.3,44.99,75.92,45.81,77.57z M28.91,83.59c3.24,0.62,7.5,1.57,9.63,4.07c-0.46,1.15-0.91,2.45-1.3,3.88 c-6.63,0.82-18.31,1.02-20.94-3.44c1.41-2.07,6.26-5.35,12.48-4.6C28.82,83.53,28.87,83.57,28.91,83.59z M14.86,107.04 c-1.49,0-1.88-1.45-1.88-3.11v-7.91c0-1.15,0.84-2.09,1.87-2.09c5.83-0.09,16.42,0.27,21.88-0.31c-0.18,2.27-2.21,8.57,0.94,9.7 c0.91,0.14,7.76,2.47,8.49,2.22c0.13-0.06,0.24-0.21,0.29-0.36c1.67,0.6,4.07,1.21,7.01,1.82L14.86,107.04z"/>
</svg>