<svg viewBox="0 0 128 128" xmlns="http://www.w3.org/2000/svg">
  <g>
    <path d="M76.79,64.96C75.5,64.97,71,64.99,71,64.99l0.48,2.83h-2.65l-0.27-2.81l-7.26,0.04l-0.4,2.78h-2.4l0.56-2.77l-6.45,0.04 l-30.29,59.09h83.77L76.79,64.96z M49.97,120.17l-4.34-0.1l3.24-13.52l4.04,0.05L49.97,120.17z M53.91,101.36h-3.59l2.59-11.23 h3.35L53.91,101.36z M57.26,85.39l-3.35,0.05l2-7.68l2.89,0.05L57.26,85.39z M59.55,74.56h-2.84c0,0,1.05-4.24,1.15-4.49h2.44 L59.55,74.56z M69.47,70.33l2.33-0.05l0.93,4.33l-2.74,0.05L69.47,70.33z M70.59,77.82l2.7-0.09l1.53,7.9l-3.35,0.05L70.59,77.82z M72.3,90.37h3.25L78,101.2l-3.89,0.1L72.3,90.37z M75.07,106.9l3.92-0.07l2.95,13.29h-4.99L75.07,106.9z"/>
    <path d="M124.19,48.29c0,0-3.85,0.07-8.97,2.07c-1.71,0.67-3.35,1.55-4.76,2.42l0.06-11.98h2.96c1.11,0,2-0.9,2-2 c0-0.56-0.22-1.06-0.59-1.42c-0.36-0.36-0.86-0.58-1.41-0.58h-2.94l0.07-15.44h2.52c1.1,0,1.99-0.9,1.99-2c0-1.1-0.9-2-2-2H95.43 v-5.52c0-2.56-2.08-4.64-4.64-4.64h-53.9c-2.56,0-4.64,2.08-4.64,4.64v5.52H13.98c-1.1,0-2,0.9-2,2c0,1.1,0.9,2,2,2h3.49v15.56 H14.1c-1.11,0-2,0.9-2,2c0,1.11,0.9,2,2,2h3.37v11.91c-1.8-0.95-3.83-1.91-5.54-2.43c-2.33-0.71-4.58-0.87-6.1-0.87 c-1.2,0-1.95,0.1-1.95,0.1l-0.02,67.04c0,4.15,3.37,7.52,7.52,7.52h7.13l31.82-59.07h-0.67c-0.01,0-0.01,0-0.02,0l-1.62,0.01 c-1.55-1.55-7.17-6.06-13.99-8.1c-2.88-0.86-6.68-1.4-10.85-1.51V40.91l9.07-0.01v4.07c0,2.56,2.08,4.64,4.64,4.64h53.9 c2.56,0,4.64-2.08,4.64-4.64v-4.15l9.33-0.01l-0.1,15.37c0,0-5.83-0.23-10.28,0.94c-4.5,1.18-12.28,6.57-14.05,7.82 c-0.01,0-0.02,0.01-0.02,0.01h-0.72l29.65,59.24h7.45c4.15,0,7.52-3.37,7.52-7.52L124.19,48.29z M17.47,62.39 c-0.56-3.01-1.58-7.3-2.9-7.3c-2.18,0-3.6,7.31-3.6,7.31s-1.12-2.82-2.6-2.89c-0.47-0.02-1,0.6-1.51,1.47l0.01-8.42 c1.19,0.06,2.67,0.25,4.19,0.71c1.87,0.57,4.37,1.83,6.41,2.97V62.39z M41.57,63.68l-7.51,1.24c-0.31-1.42-1.23-4.93-2.59-5.36 C33.77,59.93,39.36,62.17,41.57,63.68z M31.23,59.52c-1.62,0-2.39,4.15-2.39,4.15s-0.7-2.18-1.76-2.25 c-0.83-0.05-1.92,2.28-2.44,3.52l-1.46-0.07v-6.34C24.37,58.54,26.97,58.7,31.23,59.52z M32.25,36.9l-9.07,0.01V24.05l9.07,9.07 V36.9z M32.25,28.17l-6.81-6.81h6.81V28.17z M93.43,44.97c0,1.46-1.18,2.64-2.64,2.64h-53.9c-1.46,0-2.64-1.18-2.64-2.64V11.84 c0-1.46,1.18-2.64,2.64-2.64h53.9c1.46,0,2.64,1.18,2.64,2.64V44.97z M95.43,21.36h7.05l-7.05,7.05V21.36z M104.78,36.81 l-9.35,0.01v-3.46l9.43-9.43L104.78,36.81z M104.63,60.79c-2.58,0.3-4.82,3.28-5.35,4.04l-10.63,0.06l-1.89-0.62 c2.9-1.81,6.23-3.67,8.39-4.25c2.72-0.73,5.66-0.88,7.64-0.88c0.75,0,1.39,0.02,1.85,0.05L104.63,60.79z M121.18,59.49 c-0.23-0.17-0.5-0.27-0.79-0.28c-1.4-0.04-2.6,3.45-2.6,3.45s-1.48-2.46-4.01-2.53c-1.34-0.04-2.75,0.75-3.36,1.13l0.03-4.89 c1.57-1.09,3.66-2.36,5.86-3.22c1.87-0.72,3.55-1.17,4.88-1.44L121.18,59.49z"/>
    <path d="M36.68,10.87l-0.29,34.59l54.8-0.09V11.06L36.68,10.87z M69.97,16.89h14.87v8.68c0,0-14.95-0.16-15.03-0.08L69.97,16.89z M51.06,15.03c2.42,0,5.71,2.25,5.71,5.87s-2.58,5.87-5.71,5.87c-3.14,0-5.95-2.25-5.95-5.79C45.11,17.2,47.92,15.03,51.06,15.03z M51.35,42.03c-0.96,0-9.81-8.52-9.48-9.16c0.32-0.64,6.75,1.21,6.75,1.21v-4.9h5.06v5.22c0,0,5.95-2.17,6.43-1.61 C60.59,33.35,52.31,42.03,51.35,42.03z M77.88,42.35c-0.96,0-9.81-8.52-9.48-9.16c0.32-0.64,6.75,1.21,6.75,1.21v-4.9h5.06v5.22 c0,0,5.95-2.17,6.43-1.61C87.12,33.67,78.84,42.35,77.88,42.35z"/>
  </g>
</svg>