<svg viewBox="0 0 128 128" xmlns="http://www.w3.org/2000/svg">
  <g>
    <path d="M57.5,37.67c0.46,0,14.17,0.06,14.17,0.06c0.23-0.19,0.51-0.31,0.82-0.31c0.01,0,0.01,0,0.02,0l3.84,0.06l0.03-3.31 c0.71-0.01,1.23-0.02,1.48-0.02c2.11-0.04,2.43-1.87,2.45-3.05c0.02-1.57-1.04-2.73-2.66-2.8c-0.13,0-0.41-0.01-0.79-0.01 c-0.6-1.45-2.74-5.2-9-6.38c0.41-0.57,0.79-1.39,0.8-2.51c0.02-2.64-2.09-3.43-2.09-3.43s1.31-0.54,1.33-2.17 c0.02-1.74-2.25-2.17-2.25-2.17s1.12-1.35,1.04-3.61c-0.08-2.33-1.94-4.99-2.57-5.05c0,0-2.07,1.55-2.29,5.17 c-0.14,2.22,0.96,3.4,0.96,3.4s-2.29,0.23-2.44,2.22c-0.11,1.55,1.7,2.14,1.7,2.14s-2.49,0.58-2.66,3.32 c-0.07,1.15,0.41,2.03,0.9,2.63c-6.66,1.23-8.95,5.78-9.3,6.56c-0.25,0-0.42,0.01-0.49,0.01c-1.28,0.02-2.89,1.04-2.89,2.96 c-0.01,2.11,1.64,2.97,3.65,3.02c0.1,0,0.26,0,0.45,0.01l-0.03,2.64h4.74C56.88,37.05,57.27,37.31,57.5,37.67z"/>
    <path d="M89.64,71.88c0,0.75-0.01,1.51-0.02,2.28c-0.01,1.37-0.02,2.77-0.02,4.18l-2.91-0.08l0.01-1.04c0-0.35-0.13-0.69-0.38-0.94 c-0.24-0.25-0.58-0.39-0.93-0.39l-9.64-0.02c-1.05-2.07-2.21-4.19-2.43-4.3c-0.05-0.03-19.38-0.32-19.44-0.29 c-0.2,0.11-1.49,2.23-2.64,4.28l-9.29-0.12c-0.36,0.02-0.69,0.13-0.94,0.38c-0.25,0.24-0.39,0.58-0.39,0.93v1l-2.93-0.03 c0.01-2.15,0.08-4.24,0.2-6.28h3.96c0.73,0,1.31-0.59,1.31-1.31v-1.09h6.95c0.72,0,1.31-0.59,1.31-1.31c0-0.2-0.05-0.38-0.13-0.55 l4.83,0.08c-0.32,0.63-0.52,1.12-0.45,1.24c0.03,0.06,16.3,0.29,16.32,0.26c0.04-0.08-0.15-0.58-0.44-1.24l4.33,0.07 c-0.01,0.06-0.04,0.11-0.04,0.17c-0.02,0.73,0.55,1.33,1.27,1.35l6.95,0.2l-0.03,1.09c-0.02,0.73,0.55,1.33,1.27,1.35L89.64,71.88z "/>
    <path d="M83.94,46.79l-5.41-0.06c-0.67-0.01-1.23-0.52-1.29-1.19l-0.08-0.93l-6.64-0.13c-0.72-0.01-1.3-0.61-1.28-1.34 c0-0.15,0.03-0.29,0.08-0.42L58.74,42.6c-0.01,0-0.01,0-0.02,0c0.09,0.18,0.15,0.38,0.15,0.6c-0.01,0.72-0.58,1.31-1.34,1.28 L51,44.35l-0.11,1.12c-0.06,0.67-0.63,1.18-1.3,1.18c-0.01,0-0.01,0-0.02,0l-5.03-0.07c-0.39,0.55-0.78,1.12-1.17,1.73 c-0.55,0.86-1.07,1.89-1.55,3.04l2.84,0.07l0.03-1.03c0.02-0.72,0.62-1.28,1.35-1.27l7.99,0.23c-0.25-0.24-0.41-0.59-0.4-0.97 c0.01-0.72,0.62-1.33,1.34-1.28l18.63,0.38c0.72,0.01,1.3,0.61,1.28,1.34c-0.01,0.27-0.12,0.51-0.27,0.71l8.35,0.12 c0.71,0.01,1.28,0.58,1.29,1.29l0.01,1.03l2.78-0.02c-0.35-0.79-0.74-1.56-1.19-2.3C85.2,48.6,84.56,47.65,83.94,46.79z"/>
    <path d="M86.69,69.17l0.03-1.09c0.02-0.73-0.55-1.33-1.27-1.35l-7.33-0.21c0.01-0.07,0.04-0.13,0.04-0.2 c0.01-0.72-0.57-1.32-1.29-1.33l-6.57-0.11c-0.44-0.88-0.83-1.58-0.92-1.63c-0.04-0.02-10.59-0.18-10.63-0.17 c-0.11,0.03-0.58,0.71-1.13,1.58l-7.19-0.12c0,0-0.01,0-0.02,0c-0.71,0-1.3,0.57-1.31,1.29c0,0.21,0.06,0.41,0.15,0.59h-7.4 c-0.72,0-1.31,0.59-1.31,1.31v1.09h-2.46c0.2-2.25,0.46-4.4,0.79-6.44l4.37,0.12h0.04c0.7,0,1.28-0.55,1.32-1.25l0.03-0.73 l6.59,0.19c0.73,0.01,1.33-0.55,1.35-1.27c0.01-0.45-0.22-0.84-0.55-1.08l7.1,0.13c-0.53,0.16-1.16,0.49-1.32,1.2 c-0.22,0.92,0.43,1.41,1.6,1.43c0.29,0.01,9.18,0.15,9.53,0.15c1.35,0.01,1.72-0.55,1.56-1.27c-0.16-0.7-0.83-1.11-1.3-1.32 l6.41,0.12c-0.12,0.2-0.21,0.42-0.21,0.66c0,0.72,0.58,1.31,1.3,1.32l6.59,0.07v0.73c0,0.71,0.57,1.3,1.29,1.31l4.87,0.06 c0.14,2.02,0.19,4.12,0.2,6.31L86.69,69.17z"/>
    <path d="M89.59,80.96c-0.02,5.74-0.12,13.66-0.21,20.53l-6.58-0.09v-9.23c0.98,0,1.55-0.01,1.58-0.04c0.21-0.26-4.83-8.58-5.17-8.8 c-0.04-0.03-31.52-0.54-31.56-0.51c-0.63,0.4-4.87,8.41-4.57,8.8c0.04,0.05,0.7,0.09,1.82,0.12l-0.14,9.18l-7.01-0.09 c-0.03-6.91-0.05-14.76-0.06-20.49l4.23,0.04h0.01c0.34,0,0.67-0.14,0.92-0.37c0.25-0.24,0.39-0.58,0.39-0.93v-1l6.61,0.08 c-0.32,0.65-0.51,1.11-0.45,1.19c0.06,0.08,28.08,0.58,28.11,0.55c0.07-0.07-0.14-0.62-0.5-1.4l7.05,0.01l-0.01,1 c-0.01,0.72,0.55,1.31,1.27,1.33L89.59,80.96z"/>
    <path d="M77.3,40.11l-4.82-0.07c-0.54-0.01-0.99-0.34-1.19-0.81c-3.95-0.02-9.59-0.04-13.87-0.06c-0.24,0.3-0.59,0.5-1.01,0.5 h-5.35c-1.01,0.76-2.65,2.15-4.51,4.32l1.85,0.03l0.11-1.13c0.07-0.68,0.6-1.2,1.33-1.18l7.74,0.15c0,0,0,0,0,0 c-0.09-0.18-0.15-0.37-0.15-0.59c0.01-0.72,0.6-1.31,1.33-1.3l10.89,0.12c0.72,0.01,1.3,0.6,1.3,1.33c0,0.16-0.04,0.31-0.09,0.45 l7.52,0.14c0.67,0.01,1.22,0.53,1.28,1.19l0.08,0.92l2.08,0.03C80.02,42.1,78.43,40.85,77.3,40.11z"/>
    <path d="M44.59,112.46l0.13-8.92l-6.96-0.09c0.01,3.53,0.03,6.67,0.04,8.97L44.59,112.46z"/>
    <path d="M39.35,59.78l2.68,0.07l0.03-0.73c0.03-0.72,0.59-1.27,1.35-1.26l6.95,0.2c-0.33-0.24-0.55-0.62-0.54-1.06 c0.01-0.72,0.62-1.33,1.34-1.28l11.33,0.21c0.23-0.08,0.49-0.15,0.75-0.19c-0.67-0.34-1.03-0.99-1.03-1.76 c0-1.13,0.56-2.17,2.01-2.17c1.2,0,2.15,1.16,2.13,2.05c-0.03,0.85-0.36,1.59-1.07,1.93c0.24,0.06,0.47,0.13,0.68,0.21l10.49,0.2 c0.72,0.01,1.3,0.61,1.29,1.34c-0.01,0.23-0.1,0.44-0.21,0.63l7.06,0.08c0.72,0.01,1.3,0.59,1.3,1.31v0.73l3.29,0.05 c-0.25-2.02-0.62-3.94-1.18-5.76l-5.04,0.04c0-0.01,0-0.01-0.01-0.01c-0.72,0-1.3-0.58-1.31-1.29l-0.01-1.05l-7.28-0.1 c-0.72-0.01-1.3-0.6-1.29-1.33c0-0.28,0.11-0.52,0.26-0.72l-18.39-0.38c0.26,0.25,0.42,0.59,0.41,0.98 c-0.02,0.72-0.63,1.28-1.35,1.27l-6.73-0.19l-0.03,1.02c-0.03,0.72-0.62,1.28-1.32,1.28c-0.01,0-0.02,0-0.04,0l-5.02-0.14 C40.28,55.7,39.77,57.65,39.35,59.78z"/>
    <path d="M82.8,104.02v8.68l6.4,0.04c0.03-2.14,0.08-5.18,0.13-8.64L82.8,104.02z"/>
    <path d="M110.15,115.4c-0.04-0.06-3.54-0.08-9.17-0.09l0.08-16.09c0.49,0,0.86-0.01,1.08-0.01c1.65-0.05,1.9-0.96,1.92-1.61 c0.02-0.76-0.41-1.6-1.75-1.68c-0.31-0.02-1.58-0.03-3.2-0.04l-0.07-7.17c0.94,0,2.25-0.37,2.26-1.79c0.01-1.49-1.86-1.73-2.4-1.77 c-0.14-0.01-0.86-0.02-1.82-0.03v-6.14c0.09,0,0.17,0,0.23,0.01c1.2,0.05,1.95-0.86,1.95-1.72s-0.55-1.62-1.85-1.7 c-0.31-0.02-1.12-0.05-2.09-0.08l0.06-5c1.14-0.02,1.77-1.07,1.77-1.84c0-0.77-0.69-1.48-1.67-1.58c-0.35-0.04-1.1-0.06-1.94-0.09 l0.06-4.48l0.12,0c0,0,2.34-1.1,2.26-3.5c-0.14-3.93-4.85-5.95-4.85-5.95s1.1-0.38,1.01-2.16c-0.08-1.39-1.1-2.02-2.21-2.06 c-0.95-0.04-1.79,0.67-2.01,1.48c0.28,0.55,0.53,1.11,0.77,1.68c0.6,0.12,1.06,0.62,1.07,1.25c0,0.33-0.13,0.62-0.33,0.85 c0.28,0.91,1.15,5.13,1.29,6.35c0.48,0.2,0.82,0.67,0.81,1.23c-0.01,0.44-0.25,0.82-0.61,1.05c0.13,1.72,0.22,6.29,0.22,6.78 c0.37,0.24,0.63,0.65,0.62,1.13c-0.01,0.45-0.26,0.82-0.62,1.05c-0.01,1.52-0.04,6.04-0.04,6.74c0.64,0.1,1.14,0.64,1.12,1.32 c-0.01,0.64-0.5,1.14-1.13,1.23c-0.02,5.79-0.12,13.76-0.22,20.63c0.52,0.18,0.89,0.66,0.88,1.24c0,0.58-0.39,1.05-0.92,1.21 c-0.05,3.59-0.1,6.73-0.14,8.89c0.4,0.22,0.69,0.64,0.68,1.14c0,0.5-0.3,0.93-0.72,1.14c0,0.02-6.91,0.07-10.53,0.06V92.16 c-4.07-0.03-28.97-0.31-32.82-0.37l-0.33,23.33c-0.82-0.01-9.97-0.08-10.66-0.09c0,0-0.69-0.01-0.69-0.01 c-0.72,0-1.31-0.59-1.3-1.32c0-0.72,0.59-1.3,1.31-1.3h0.01l0.66,0c-0.01-2.31-0.02-5.46-0.04-9.02c-0.62-0.11-1.1-0.63-1.09-1.29 c0.01-0.64,0.46-1.19,1.08-1.28c-0.01-3.25-0.06-17.47-0.06-20.51c-0.69-0.04-1.24-0.61-1.24-1.31c0.01-0.7,0.55-1.24,1.24-1.28 c0.01-2.13,0.07-4.25,0.2-6.35c-0.55-0.16-0.96-0.64-0.96-1.24c0-0.66,0.5-1.19,1.14-1.28c0.12-1.38,0.66-5.75,0.79-6.56 c-0.59-0.14-1.04-0.65-1.02-1.29c0.02-0.72,0.64-1.27,1.35-1.27l0.12,0c0.2-1.02,1.26-5.24,1.6-6.3c-0.19-0.23-0.31-0.52-0.3-0.85 c0.01-0.41,0.22-0.76,0.53-0.99c0.11-0.31,0.2-0.74,0.2-1.35c0-0.82-0.66-1.94-2.1-1.94s-2.19,1.05-2.19,2.16c0,1.2,1,2,1,2 s-5.02,2.28-4.94,5.85c0.05,2.21,2.06,2.54,2.06,2.54l0.21,0.01l-0.05,4.68c-1.08-0.02-2.01-0.03-2.2-0.01 c-0.48,0.05-1.36,0.78-1.32,1.81c0.05,1.03,0.71,1.57,1.57,1.63c0.02,0,0.06,0,0.08,0l0.05,5.05l-2.62-0.09c0,0-1.5,0.1-1.53,1.83 c-0.03,1.74,1.68,1.72,1.68,1.72l0.53,0.02v6.42c-1.94-0.05-3.63-0.09-4-0.09c-0.96,0-1.49,0.72-1.49,1.72s0.62,1.72,1.68,1.77 c0.17,0.01,0.58,0.02,1.11,0.04l0.08,7.85c-1.84-0.04-3.26-0.07-3.45-0.07c-0.58,0-1.44,0.44-1.54,1.7 c-0.1,1.26,0.53,1.81,1.63,1.87c0.1,0.01,0.44,0.02,0.94,0.03l-0.17,16.19c-5.57-0.05-9.06-0.06-9.15-0.02 c-0.92,0.46-1.01,8.71-0.57,9.44c0.18,0.3,94.83,0.46,95.12,0.34C111.02,124.4,110.58,115.98,110.15,115.4z M75.51,122.51 l-24.97-0.19c-0.03-0.91-0.05-2.23,0.04-2.47c0.06-0.17,24.66,0.14,24.8,0.26C75.49,120.2,75.51,121.41,75.51,122.51z M53.02,97.23 c0.19-0.32,21.09,0.06,21.22,0.38c0.13,0.3-0.24,17.42-0.26,18.4c0.11,0,0.21,0,0.27,0c0.16,0,0.19,1.04,0.19,2.06l-22.63-0.21 c-0.01-0.84,0-1.7,0.02-1.99c0-0.02,0.3-0.04,0.81-0.04C52.67,113.68,52.89,97.45,53.02,97.23z"/>
  </g>
</svg>