<svg viewBox="0 0 128 128" xmlns="http://www.w3.org/2000/svg">
  <g>
    <path d="M30.3,39.4c2.5-2.2,5.8-4.4,7.6-5.7c0.9-0.6,1.1-1.7,0.5-2.6c-2.7-4.2-4.2-9.3-4.9-12.9c-0.4-1.8-2.7-2.3-3.9-0.9 c-3.2,4.3-7.2,13.3-6.7,25.6c0.1,1.8,1.2,2.9,2.4,1.6C26.8,42.8,28.5,40.9,30.3,39.4z"/>
    <path d="M105,42.9c0.5-12.2-3.5-21.3-6.7-25.6c-1.1-1.5-3.5-1-3.9,0.9c-0.7,3.5-2.2,8.6-4.9,12.9c-0.6,0.9-0.3,2,0.5,2.6 c1.9,1.3,5.1,3.5,7.6,5.7c1.8,1.5,3.5,3.4,4.9,5.1C103.8,45.9,104.9,44.7,105,42.9z"/>
    <path d="M86.6,45.2c-0.7,0-1.3,0.1-2,0.2c-6.6,1.2-11,7.6-9.8,14.5c1.1,6.1,6.2,10.5,12.1,10.5c0.7,0,1.3-0.1,2-0.2 c6.6-1.2,11-7.6,9.8-14.5C97.6,49.5,92.4,45.2,86.6,45.2z M94.2,63.3c-1.4,2-3.5,3.4-5.8,3.8c-0.5,0.1-1,0.1-1.5,0.1 c-4.5,0-8.3-3.4-9.1-8c-0.4-2.5,0.1-5.1,1.5-7.2c1.4-2,3.5-3.4,5.8-3.8c0.5-0.1,1-0.1,1.5-0.1c4.5,0,8.3,3.3,9.1,8 C96.1,58.7,95.6,61.2,94.2,63.3z"/>
    <path d="M42.9,45.4c-0.7-0.1-1.4-0.2-2-0.2c-5.8,0-11,4.3-12.1,10.5c-1.2,6.8,3.2,13.3,9.8,14.5c0.7,0.1,1.4,0.2,2,0.2 c5.8,0,11-4.3,12.1-10.5C53.9,53,49.5,46.5,42.9,45.4z M49.7,59.3c-0.8,4.6-4.6,8-9.1,8c-0.5,0-1,0-1.5-0.1c-5-0.9-8.2-5.8-7.3-11 c0.8-4.6,4.6-8,9.1-8c0.5,0,1,0,1.5,0.1c2.4,0.4,4.5,1.8,5.8,3.8C49.6,54.2,50.2,56.8,49.7,59.3z"/>
    <path d="M66,80.9V75c2.9-1,6.1-3.9,6-6.3c-0.1-2.9-4.2-4.1-8.1-4.1c-3.9,0.1-8,1.4-7.9,4.3c0,2.3,3.2,5,6,6v6.2 c-0.1,2.5-1.3,4.5-3.2,6.5c-2.8,3-5.5,6.6-5.5,12c0,8,4.8,12.6,10.7,12.6s10.7-4.6,10.7-12.6c0-5.4-2.6-8.8-5.5-12 C67.4,85.6,66.1,83.5,66,80.9z"/>
    <path d="M125.9,68.7c-0.3-0.8-1.2-1.2-1.9-0.9l-9.8,3.6c0-0.2,0-0.5,0-0.7c-0.2-2.5-0.5-4.9-1-7.2l7.6-7.8c0.6-0.6,0.6-1.5,0-2.1 c-0.6-0.6-1.5-0.6-2.1,0l-6.2,6.4c-0.2-0.6-0.3-1.2-0.5-1.7c4.6-35.5-8.9-50.4-15.6-53.7C95.4,4.2,94.4,4,93.5,4 c-1.2,0-2.4,0.4-3.4,1.3c-3.2,2.8-1.6,12-9.9,23c-4.9-1.3-10.4-2-16.3-2s-11.3,0.7-16.3,2C39.4,17.2,41,8,37.8,5.3 c-1-0.9-2.2-1.3-3.4-1.3c-0.9,0-1.8,0.2-2.7,0.7c-6.6,3.3-20.1,18.2-15.6,53.7c-0.2,0.6-0.3,1.2-0.5,1.7l-6.2-6.4 c-0.6-0.6-1.5-0.6-2.1,0c-0.6,0.6-0.6,1.5,0,2.1l7.6,7.8c-0.5,2.3-0.8,4.7-1,7.2c0,0.2,0,0.5,0,0.7L4,67.9 c-0.8-0.3-1.6,0.1-1.9,0.9c-0.3,0.8,0.1,1.6,0.9,1.9l10.8,4c0,2.6,0.3,5.1,0.8,7.6l-9.9,1.1c-0.8,0.1-1.4,0.8-1.3,1.7 c0.1,0.8,0.7,1.3,1.5,1.3c0.1,0,0.1,0,0.2,0l10.3-1.2c1.8,6.5,5.1,12.3,10,17c0.1,3.1-0.2,6.3-1.4,9.7c-1.4,4.2-3.2,8.3-5.5,12 h25.3c0,0,1-4.2,2.2-9.7c5,1.6,11,2.8,18.1,2.8c7.1-0.1,13.2-1.3,18.1-2.8c1.3,5.5,2.2,9.7,2.2,9.7h4.4c0,0,0,0,0,0h20.9 c-2.3-3.7-4.2-7.9-5.5-12c-1.3-4-1.6-7.6-1.3-11.3c0,0.5-0.1,1-0.1,1.5c4.8-4.8,8.2-10.5,10-17l10.3,1.2c0.1,0,0.1,0,0.2,0 c0.8,0,1.4-0.6,1.5-1.3c0.1-0.8-0.5-1.6-1.3-1.7l-9.9-1.1c0.5-2.4,0.7-5,0.8-7.6l10.8-4C125.8,70.4,126.2,69.5,125.9,68.7z M39.7,122H21.8c1.5-2.9,2.9-6,4-9.4c2.7-8.1,1.2-14.8-0.4-22.5c-0.2-1-0.4-2-0.4-2.9c-0.2-3.1,0.2-7.4,3.5-10.2 c0.4-0.3,0.8-0.6,1.2-0.9c10-2.3,19.5,5.1,17.2,15.6C45.7,97.1,41.5,114.7,39.7,122z M25.2,102.2c0-0.5,0-1-0.1-1.5 C25.2,101.2,25.2,101.7,25.2,102.2z M25.1,100.6c0-0.5-0.1-1-0.2-1.5C25,99.6,25.1,100.1,25.1,100.6z M102.2,112.6 c1.1,3.4,2.4,6.5,4,9.4H88.3c-1.8-7.3-6-24.9-7.2-30.3c-2.2-10.5,7.2-17.9,17.2-15.6c0.4,0.3,0.8,0.5,1.2,0.9 c3.3,2.8,3.7,7.1,3.5,10.2c-0.1,0.9-0.2,1.9-0.4,3C101,97.8,99.6,104.5,102.2,112.6z M103,99.1c-0.1,0.5-0.1,1-0.2,1.5 C102.9,100.1,103,99.6,103,99.1z M111.5,82l-2.6-0.3c-0.8-0.1-1.6,0.5-1.7,1.3s0.5,1.6,1.3,1.7l2.2,0.3c-1.5,5.3-4.1,10-7.7,14.1 c0.3-2.8,0.9-5.6,1.6-8.6c0.2-1,0.4-2.1,0.5-3.2c0.3-3.7-0.4-7.4-2.7-10.3c-0.2-0.4-0.8-1-1.4-1.5c-0.1-0.1-0.1-0.1-0.2-0.2 c-0.6-0.5-1.2-0.9-1.8-1.3c0,0,0,0,0,0c-10-5.8-24.5,4.8-22.2,16.2c0.8,3.9,3,13.9,4.9,21.9c-5,1.6-11,2.7-17.7,2.8 c-6.7-0.1-12.7-1.3-17.7-2.8c1.8-8.1,4.1-18.1,4.9-21.9C53.6,78.2,37,67,27.2,75.4c-0.6,0.5-1.3,1.2-1.6,1.6 c-2.3,2.9-2.9,6.6-2.6,10.2c0.1,1.1,0.2,2.2,0.5,3.2c0.6,3,1.2,5.8,1.6,8.6c-3.6-4.1-6.2-8.8-7.7-14.1l2.2-0.3 c0.8-0.1,1.4-0.8,1.3-1.7c-0.1-0.8-0.8-1.4-1.7-1.3L16.5,82c-0.4-2.1-0.7-4.3-0.7-6.6l3.7,1.4c0.2,0.1,0.3,0.1,0.5,0.1 c0.6,0,1.2-0.4,1.4-1c0.3-0.8-0.1-1.6-0.9-1.9l-4.7-1.7c0-0.4,0-0.9,0.1-1.3c0.1-1.9,0.4-3.7,0.7-5.6l4.8,5 c0.3,0.3,0.7,0.5,1.1,0.5c0.4,0,0.8-0.1,1-0.4c0.6-0.6,0.6-1.5,0-2.1l-6.2-6.4c0.2-1,0.5-1.9,0.8-2.8l0.1-0.4l-0.1-0.4 C13.9,25,25.7,9.8,32.6,6.5C33.2,6.2,33.9,6,34.5,6c0.8,0,1.4,0.3,2,0.8c0.8,0.7,1.3,2.7,1.8,5c1.1,4.5,2.5,10.7,7.8,17.7l0.8,1.1 l1.3-0.3c0.2-0.1,0.4-0.1,0.6-0.1c2.6,5.5,3.4,13.3,5.3,14.9c1.1,1,3.4,0.8,4.8-0.7c1.5-1.7,3.1-7.3,2.4-15.9 c0.9,0,1.8-0.1,2.7-0.1s1.8,0,2.7,0.1c-0.6,8.6,0.9,14.2,2.4,15.9c1.3,1.5,3.6,1.7,4.8,0.7c1.9-1.6,2.7-9.4,5.3-14.9 c0.2,0,0.4,0.1,0.6,0.1l1.3,0.3l0.8-1.1c5.3-7,6.7-13.2,7.8-17.7c0.6-2.3,1-4.4,1.8-5c0.6-0.5,1.3-0.8,2-0.8c0.6,0,1.2,0.2,1.9,0.5 c6.9,3.4,18.7,18.5,14.5,51.6l-0.1,0.4l0.1,0.4c0.3,0.9,0.5,1.9,0.8,2.8l-6.2,6.4c-0.6,0.6-0.6,1.5,0,2.1c0.3,0.3,0.7,0.4,1,0.4 c0.4,0,0.8-0.2,1.1-0.5l4.8-5c0.3,1.8,0.5,3.7,0.7,5.6c0,0.4,0,0.9,0.1,1.3l-4.7,1.7c-0.8,0.3-1.2,1.2-0.9,1.9c0.2,0.6,0.8,1,1.4,1 c0.2,0,0.3,0,0.5-0.1l3.7-1.4C112.1,77.7,111.9,79.9,111.5,82z"/>
  </g>
</svg>