<svg viewBox="0 0 128 128" xmlns="http://www.w3.org/2000/svg">
  <path d="M118.36,87.92c-0.88-0.74-4.1-2.43-7.27-3.39c6.2-2.9,3.72-7.23-1.55-9.74c-0.1-0.99-0.47-40.83-41.2-42.96v-5.65 c1.67-0.14,6.37-0.73,8.14-2.46l0.47-4.91h-0.01c0-0.01,0-0.01,0-0.01c-3.1-9.93-22.83-9.53-25.9,0.01l0.34,4.91 c1.88,1.83,7.15,2.37,8.3,2.46v5.65c-40.7,2.68-41.21,42.72-41.21,42.72s0.01,0,0.01,0.01c-4.63,2.38-8.16,6.95-1.57,9.97 c-3.18,0.96-6.35,2.63-7.25,3.37c-3.9,3.54-5.55,12.5-5.99,18.12c2.69,4.84,31.63,10.49,60.57,10.49c29.03,0,57.58-5.62,60.09-10.47 C123.94,100.4,121.77,91.46,118.36,87.92z M54.17,20.53l-0.1-1.36c3.11-6.1,16.72-6.35,19.84-0.05l-0.14,1.42 C69.31,21.69,58.62,21.7,54.17,20.53z M64,34.67c33.27,0,40.68,24.91,42.3,37.26c-13.66,7.32-64.58,9.37-84.59-0.1 C23.38,59.14,30.91,34.67,64,34.67z M64,87.87c-14.72-0.11-39.83-1.22-47.75-7.4c0.21-1.07,2.57-3.04,5.66-4.18 c15.6,7.73,68.76,7.85,84.28,0.24c2.36,1.03,5.35,2.56,5.56,3.93C103.9,86.64,78.7,87.76,64,87.87z"/>
</svg>