<svg viewBox="0 0 128 128" xmlns="http://www.w3.org/2000/svg">
  <g>
    <path d="M63.96,7.03c1.33,0,2.59,0.52,3.53,1.46l52.17,51.97c1.82,1.93,1.76,5-0.18,6.89l-52,52.2c-0.94,0.94-2.2,1.46-3.53,1.46 s-2.59-0.52-3.52-1.46l-3.04-3.05l-0.21-0.22l-0.25-0.17c-0.25-0.16-0.48-0.35-0.69-0.56l-48.3-48.5l-0.02-0.02L7.89,67 c-1.69-1.63-1.76-4.33-0.14-6.03l0.47-0.47l0.04-0.04l0.02-0.03L60.43,8.48C61.37,7.55,62.63,7.03,63.96,7.03 M63.96,4.03 c-2.04,0-4.09,0.78-5.65,2.33l-52.2,52c0,0-0.01,0.01-0.01,0.01l-0.49,0.49C5.6,58.87,5.6,58.87,5.6,58.87 c-2.78,2.9-2.69,7.5,0.21,10.29l48.3,48.5c0.01,0.01,0.01,0.01,0.01,0.01c0.36,0.36,0.74,0.67,1.15,0.94l3.04,3.05 c1.56,1.56,3.6,2.34,5.65,2.34c2.04,0,4.09-0.78,5.65-2.34l52-52.2c3.1-3.02,3.19-7.97,0.2-11.1l-52.2-52 C68.05,4.8,66,4.03,63.96,4.03L63.96,4.03z"/>
    <circle cx="72.61" cy="32.47" r="6.5"/>
    <circle cx="46.31" cy="45.26" r="6.5"/>
    <path d="M94.31,59.06l-8.7-7c-0.28-0.19-0.49-0.47-0.6-0.8l-4.6-8.2c-0.75-1.34-1.96-2.37-3.4-2.9c-3.4-1-8.3-0.4-10.7,2.2 l-7.7,8.4c-0.81,0.65-1.09,1.74-0.7,2.7l2.49,6.32l-3.29,0.68c-0.38,0.07-0.77-0.08-1-0.4c-1.1-1.5-3.4-5.9-5.1-6.5 c-3.21-1.34-6.85-1.16-9.9,0.5c-0.3,0-7.2,5.4-7.2,5.4l-0.1,0.1l-0.3,0.3c-0.11,0.11-0.17,0.25-0.2,0.4l-3.3,7.3 c-0.48,0.99-0.23,2.18,0.6,2.9c1.01,0.87,2.53,0.76,3.4-0.25c0.17-0.19,0.3-0.41,0.4-0.65l3-6.7c0.07-0.15,0.18-0.29,0.3-0.4l1.3-1 c0.44-0.33,1.07-0.24,1.4,0.2c0.13,0.17,0.2,0.38,0.2,0.6v9.4c0,0.2-0.1,0.4-0.1,0.6l0.1,7.1c-0.02,0.21-0.09,0.42-0.2,0.6 l-5.8,8.1c-0.77,1.1-0.5,2.63,0.6,3.4c1.1,0.77,2.63,0.5,3.4-0.6l6.5-9c0.38-0.52,0.52-1.17,0.4-1.8v-3.2 c-0.01-0.99,0.79-1.79,1.78-1.8c0.01,0,0.01,0,0.02,0c0.76,0.01,1.44,0.49,1.7,1.2l5.1,14.1c0.49,1.23,1.83,1.88,3.1,1.5 c0.85-0.32,1.41-1.05,1.56-1.88c0.26,0.73,0.79,1.37,1.55,1.74c1.48,0.73,3.28,0.18,4.09-1.26l6.5-12.7c0.2-0.33,0.31-0.71,0.3-1.1 c0.12-0.32,0.19-0.66,0.2-1l0.1-7.4c-0.01-0.87,0.69-1.59,1.56-1.6c0.01,0,0.03,0,0.04,0c0.66-0.02,1.27,0.38,1.5,1l8.6,22.4 c0.61,1.6,2.4,2.41,4,1.8c1.6-0.61,2.41-2.4,1.8-4l-8.5-22.3c-0.32-0.93-0.49-1.91-0.5-2.9v-10.4l1.2,2.2c0.1,0.1,0.1,0.2,0.2,0.3 c0.1,0.1,0.3,0.3,0.4,0.5l9.5,7.7c1.03,0.83,2.54,0.67,3.37-0.37c0.01-0.01,0.02-0.02,0.03-0.03 C95.55,61.48,95.37,59.93,94.31,59.06z M63.21,52.86l1.7-1.9c0.2-0.2,0.4-0.1,0.4,0.2v8.4l-2.3-5.8 C63.01,53.36,63.01,53.06,63.21,52.86z M65.41,65.66l-0.2,9.7l-6.3,12.2c-0.16,0.32-0.24,0.65-0.28,0.98l-6.32-16.48 c0-0.1-0.1-0.1-0.1-0.2v-9l1.3,1.7c0.37,0.48,0.9,0.8,1.5,0.9h1l6.73-1.35c0.59,0.31,1.3,0.39,1.97,0.15 c0.26-0.07,0.5-0.21,0.7-0.4V65.66z"/>
  </g>
</svg>