<svg viewBox="0 0 128 128" xmlns="http://www.w3.org/2000/svg">
  <g>
    <path d="M64,6.1c-10,0-19.8,2.1-28.4,6.1c-2.3-4.8-4-8.2-4-8.2s-4.5,7.6-8,15.7C11.8,29.5,4,44.4,4,64c0,37.7,28.8,57.9,60,57.9 s60-20.7,60-57.9C124,26.6,95.2,6.1,64,6.1z M103,103.9c-10.2,9-24.1,14-39,14c-15,0-28.9-4.9-39-13.8C13.9,94.3,8,80.5,8,64 c0-13.8,4.1-25.8,11.9-35C17.6,35,16,39.7,16,44c0,7.8,7,15.9,15.6,15.9c8.6,0,15.6-8.2,15.6-15.9c0-4.9-1.6-9.5-6.2-20 c-1.2-2.8-2.5-5.5-3.7-8.1c8-3.7,17.1-5.7,26.7-5.7c15,0,28.9,5,39,13.9c11.1,9.8,17,23.6,17,40C120,80.3,114.1,94.1,103,103.9z"/>
    <path d="M64,84.3c-10.5,0-18.1,8.8-20.3,12.9c-0.9,1.6-1,3.3-0.5,4.6c0.4,1,1.2,1.5,2.2,1.5c0.3,0,0.7-0.1,1-0.2 c5.3-2,11.4-6.5,17.5-6.5c6.2,0,12.3,4.5,17.6,6.5c0.3,0.1,0.7,0.2,1,0.2c1,0,1.8-0.6,2.2-1.5c0.6-1.3,0.4-3-0.5-4.6 C82.1,93.1,74.5,84.3,64,84.3z"/>
    <path d="M48,73.8c0.9-0.4,1.8-0.9,2.5-1.4c0.8-0.5,1.4-1,1.9-1.6c0.5-0.5,1-1,1.3-1.5c0.2-0.2,0.3-0.5,0.5-0.7 c0.1-0.2,0.3-0.4,0.4-0.6c0.3-0.4,0.3-0.6,0.4-0.8s0.1-0.2,0.1-0.2c0.7-1.5-0.1-3.2-1.8-3.8c-1.3-0.5-2.8-0.1-3.7,0.8l-0.2,0.2 c-0.1,0.1-0.4,0.4-0.5,0.5c-0.2,0.2-0.4,0.4-0.7,0.6s-0.6,0.5-1,0.7c-0.4,0.2-0.8,0.5-1.2,0.7c-0.4,0.2-0.9,0.4-1.4,0.6 s-1,0.3-1.5,0.4c-0.5,0.1-1,0.1-1.6,0.1h-0.2H41c-0.3,0-0.3,0-0.4,0c-0.2,0-0.5-0.1-0.7-0.1c-0.5-0.1-1-0.2-1.5-0.4s-1-0.3-1.4-0.6 c-0.4-0.2-0.8-0.5-1.2-0.7c-0.7-0.5-1.3-1-1.7-1.3c-0.4-0.4-0.6-0.6-0.6-0.6l-0.2-0.2c-1.2-1.2-3.2-1.2-4.6-0.2 c-1,0.8-1.3,2.2-0.8,3.2l0.2,0.3c0.1,0.2,0.2,0.5,0.4,0.8c0.4,0.7,1.1,1.7,2.2,2.8c0.5,0.5,1.2,1.1,1.9,1.6c0.7,0.5,1.6,1,2.5,1.4 c0.9,0.4,2,0.8,3,1c0.5,0.1,1.1,0.2,1.7,0.3c0.3,0,0.7,0.1,0.8,0.1h0.8c1.1,0,2.2-0.1,3.3-0.3C46,74.6,47,74.2,48,73.8z"/>
    <path d="M98.2,63.2c-1.3-0.5-2.8-0.1-3.7,0.8l-0.2,0.2c-0.1,0.1-0.4,0.4-0.5,0.5c-0.2,0.2-0.4,0.4-0.7,0.6c-0.3,0.2-0.6,0.5-1,0.7 c-0.4,0.2-0.8,0.5-1.2,0.7c-0.4,0.2-0.9,0.4-1.4,0.6s-1,0.3-1.5,0.4c-0.5,0.1-1,0.1-1.6,0.1h-0.2h-0.3c-0.3,0-0.3,0-0.4,0 c-0.2,0-0.4-0.1-0.7-0.1c-0.5-0.1-1-0.2-1.5-0.4s-1-0.3-1.4-0.6c-0.4-0.2-0.8-0.5-1.2-0.7c-0.7-0.5-1.3-1-1.7-1.3 c-0.4-0.4-0.6-0.6-0.6-0.6l-0.2-0.2c-1.2-1.2-3.2-1.2-4.6-0.2c-1,0.8-1.3,2.2-0.8,3.2l0.1,0.3c0.1,0.2,0.2,0.5,0.4,0.8 c0.4,0.7,1.1,1.7,2.2,2.8c0.5,0.5,1.2,1.1,1.9,1.6s1.6,1,2.5,1.4s2,0.8,3,1c0.5,0.1,1.1,0.2,1.7,0.3c0.3,0,0.7,0.1,0.8,0.1h0.8 c1.1,0,2.2-0.1,3.3-0.3c1.1-0.2,2.1-0.6,3-1c0.9-0.4,1.8-0.9,2.5-1.4c0.8-0.5,1.4-1,1.9-1.6c0.5-0.5,1-1,1.3-1.5 c0.2-0.2,0.3-0.5,0.5-0.7c0.1-0.2,0.3-0.4,0.4-0.6c0.3-0.4,0.3-0.6,0.4-0.8C100,67.1,100,67,100,67C100.7,65.5,99.9,63.8,98.2,63.2 z"/>
  </g>
</svg>