<svg viewBox="0 0 128 128" xmlns="http://www.w3.org/2000/svg">
  <g>
    <path d="M52.61,53.54c2.96-2.4,1.13-7.86-2.76-7.72c-3.87-0.14-5.71,5.33-2.75,7.72H52.61z"/>
    <path d="M80.89,53.54c2.96-2.4,1.13-7.86-2.76-7.72c-3.87-0.14-5.71,5.33-2.75,7.72H80.89z"/>
    <path d="M67.91,59.57c0.31-0.71-0.18-1.38-0.87-1.47c0,0-6.08,0-6.08,0C57.23,59.76,65.31,64.74,67.91,59.57z"/>
    <path d="M63.75,65.28c-4.48,0-7.61,3.65-7.99,4.8c-0.1,0.72,0.38,0.51,1.27-0.1c4.25-3.22,9.19-3.22,13.61-0.05 c0.85,0.51,1.75,1.13,1.61,0.16C71.84,68.62,68.2,65.28,63.75,65.28z"/>
    <path d="M63.9,71.88c2.46,0,4.54,1.34,4.34,0.62c-0.21-0.72-2.13-2.51-4.48-2.51s-4.01,1.91-4.21,2.51 C59.36,73.11,61.44,71.88,63.9,71.88z"/>
    <path d="M105.85,103.24c-5.38-11.21-10.2-26.99-28.09-24.49c5.72-3.33,10.48-8.91,13.04-16.77c5.31-1.95,7.64-9.64,4.43-14.49 C98.09,32.71,93.49,2.25,63.9,3.08C37.94,2.69,29.23,25.54,32.6,47.8c-3,4.86-0.57,12.28,4.6,14.18 c2.59,7.96,7.44,13.59,13.26,16.9c-17.65-2.36-22.94,13.29-28.32,24.36c-2.11,4.78-3.8,11.35-1.13,15.38 c2.68,4.03,5.93,5.38,11.92,5.38h61.11C108.8,124.79,110.84,113.85,105.85,103.24z M92.55,54.87c0.44-1.14,1.19-3.08,1.76-4.58 c1.11,3.19-0.16,7.17-2.75,8.98c0.34-1.35,0.61-2.76,0.81-4.23C92.45,55.01,92.52,54.96,92.55,54.87z M33.28,52.82 c0-0.77,0.11-1.52,0.3-2.22l1.66,4.22c0.08,0.22,0.34,0.25,0.5,0.13c-0.04,0.04-0.07,0.05-0.11,0.07c0.2,1.48,0.47,2.9,0.81,4.26 C34.53,57.87,33.28,55.5,33.28,52.82z M45.58,72.54c-5.36-5.67-8.25-13.8-8.41-23.55c1.27-5.41,3.01-12.51,4.05-15.27 c0.89-2.39,3.42-3.78,5.87-3.31c7.46,1.93,26.16,1.93,33.62,0c5.82-0.97,6.68,5.82,7.81,9.98c0.01,0,0,0.01,0,0.01 C98.95,68.3,68.08,94.16,45.58,72.54z M52.88,101.03c-3.85,1.63-9.51,2.79-13.63,4.55c-1.62,0.65-3.97,2.74-5.54,1.83 c-1.08-0.62-0.82-1.44-0.78-1.55h0.01c1.56-1.55,3.58-2.74,6.51-3.57c0.68-0.18,0.37-1.23-0.29-1.03 c-3.28,0.95-5.81,2.53-7.84,4.84c-1.08,0.15-2.31-0.77-2.26-1.81c0.71-2.9,5.26-4.24,8.21-5.08c0.29-0.07,0.46-0.36,0.39-0.65 c-0.07-0.29-0.37-0.46-0.65-0.39c-3.34,0.86-6.37,1.81-9.09,5.01c-2.82-0.54-1.25-3.49-0.11-4.07c0.01,0,0.03,0.01,0.03,0.01 c1.75-1.54,4.03-2.61,7.07-3.34c0.68-0.16,0.43-1.21-0.25-1.05c-3.27,0.79-5.71,1.96-7.61,3.66c-1.52-5.15,11.17-7.33,15.35-6.05 C45.98,92.55,54.86,99.82,52.88,101.03z M63.3,92.73c-6.92-0.49-7.43-5.8-7.11-11.42c5.08,1.51,10.55,1.5,15.63,0l0.01,4.39 C71.87,90.23,67.65,93.26,63.3,92.73z M93.95,106.75c-0.3,0.53-2.69,0.59-4.26,0.87c-1.57,0.28-2.46,1.11-4.92,1.93 c-2.46,0.82-4.34,1.06-4.34,1.06c-4.26-8.64-11.85-11.65-11.85-11.65s9.83-2.59,18.05,0C91.84,100.6,94.75,105.33,93.95,106.75z"/>
    <path d="M45.03,44.98c2.94-1.4,6.28-1.48,9.26-0.16c2.1,1.01,3.19-1.24,1.48-2.62C48.95,35.54,38.67,44.84,45.03,44.98z"/>
    <path d="M72.01,44.96c0.74,0.51,1.52,0.04,2.23-0.24c2.86-1.21,6.06-0.92,8.83,0.36c1.33,0.55,2.35-0.96,1.67-2.08 c-0.54-0.91-1.54-1.6-2.45-2.08c-2.31-1.21-5.15-1.3-7.54-0.27C73.65,41.13,69.9,43.5,72.01,44.96z"/>
  </g>
</svg>