<svg viewBox="0 0 128 128" xmlns="http://www.w3.org/2000/svg">
  <g>
    <path d="M105.85,103.24c-1.65-3.74-5.81-13.66-11.19-19.45c2.2-8.24,3.68-18.33,4.07-27.87c0.27-6.83-0.43-19.38-0.45-19.54 c-0.01-4.13-0.44-32.88-33.9-33.05c-35.15,0-34.87,32.5-34.87,33.02c-0.07,0.52-0.81,15.95-0.37,21.59 c0.59,9.25,1.98,18.56,4.12,26.36c-5.3,5.77-9.49,15.27-11.12,18.94c-2.11,4.78-3.8,11.35-1.13,15.38 c2.68,4.03,5.93,5.38,11.92,5.38h61.11c7.94,0,10.26-1.34,12.93-5.38C109.65,114.59,107.96,108.02,105.85,103.24z M42.85,38.9 c19.17-4.31,30.01-14.47,30.01-14.47c2.82,6.16,11.64,12.17,14.81,14.45c1.3,0.94,2.18,4.93,2.72,9.09 C90.03,67.8,77.11,79.3,63.99,80.31c-13.4-1.04-26.41-12.96-26.39-33.08C38.69,43.18,40.39,39.46,42.85,38.9z M52.88,101.03 c-3.85,1.63-9.51,2.79-13.63,4.55c-1.62,0.65-3.97,2.74-5.54,1.83c-1.08-0.62-0.82-1.44-0.78-1.55h0.01 c1.56-1.55,3.58-2.74,6.51-3.57c0.68-0.19,0.38-1.22-0.29-1.03c-3.28,0.95-5.81,2.53-7.84,4.84c-1.11,0.12-2.28-0.73-2.26-1.81 c0-0.73,0.52-1.25,0.59-1.32c2.06-1.99,4.46-2.95,7.62-3.76c0.29-0.07,0.46-0.36,0.39-0.65c-0.07-0.29-0.37-0.46-0.65-0.39 c-3.34,0.86-6.37,1.81-9.09,5.01c-0.6-0.08-1.2-0.36-1.5-1.12c-0.56-1.46,1.16-2.79,1.39-2.95c0.01,0,0.03,0.01,0.03,0.01 c1.75-1.54,4.03-2.61,7.07-3.34c0.69-0.17,0.44-1.2-0.25-1.05c-3.27,0.79-5.71,1.96-7.61,3.66c-0.31-0.51-0.42-1.31,0.41-2.47 c3.01-3.28,9.94-4.64,14.94-3.58c5.04,1.03,9.22,5.47,10.76,7.79C53.38,100.46,53.26,100.91,52.88,101.03z M63.3,92.73 c-3.93,0-7.11-3.15-7.11-7.03v-5.06c5.16,2.16,10.32,2.22,15.63-0.01l0.01,5.07c0,3.88-3.19,7.03-7.11,7.03H63.3z M93.95,106.75 c-0.3,0.53-2.69,0.59-4.26,0.87c-1.57,0.28-2.46,1.11-4.92,1.93c-2.46,0.82-4.34,1.06-4.34,1.06 c-4.26-8.64-11.85-11.65-11.85-11.65s9.83-2.59,18.05,0C91.84,100.6,94.75,105.33,93.95,106.75z"/>
    <path d="M49.85,45.82c-3.93-0.05-5.71,5.22-2.75,7.72h5.51C55.57,51.04,53.79,45.77,49.85,45.82z"/>
    <path d="M78.13,45.82c-3.93-0.05-5.71,5.22-2.75,7.72h5.51C83.85,51.04,82.07,45.77,78.13,45.82z"/>
    <path d="M45.41,44.14c0.74-0.25,2.19-1,4.6-1.02c2.42,0.02,3.86,0.77,4.6,1.02s1.41-0.03,1.63-0.34c1.21-1.64-2.88-4.08-6.22-3.92 c-3.37-0.14-7.37,2.24-6.24,3.92C44,44.1,44.67,44.38,45.41,44.14z"/>
    <path d="M73.37,44.14c0.74-0.25,2.19-1,4.6-1.02c2.42,0.02,3.86,0.77,4.6,1.02s1.41-0.03,1.63-0.34c1.21-1.64-2.88-4.08-6.22-3.92 c-3.37-0.14-7.37,2.24-6.24,3.92C71.96,44.1,72.63,44.38,73.37,44.14z"/>
    <path d="M64,61.88c2.73,0.05,5.24-2.8,3.32-3.71c-0.09-0.03-0.18-0.06-0.28-0.07h-6.08c-0.09,0.01-0.19,0.03-0.28,0.07 C58.76,59.08,61.28,61.94,64,61.88z"/>
    <path d="M55.82,70.48c0.2,0.15,0.45-0.01,1.21-0.5c1.36-0.88,3.9-2.51,6.8-2.51c2.74,0,5.29,1.54,6.81,2.46 c0.84,0.46,1.09,0.79,1.53,0.61c0.17-0.13,0.11-0.37,0.08-0.45c-0.41-1.47-4.05-4.81-8.5-4.81c-4.48,0-7.61,3.65-7.99,4.8 C55.74,70.15,55.67,70.36,55.82,70.48z"/>
    <path d="M63.9,71.88c2.46,0,4.54,1.34,4.34,0.62c-0.21-0.72-2.13-2.51-4.48-2.51s-4.01,1.91-4.21,2.51 C59.36,73.11,61.44,71.88,63.9,71.88z"/>
  </g>
</svg>