<svg viewBox="0 0 128 128" xmlns="http://www.w3.org/2000/svg">
  <g>
    <path d="M64,4C30.9,4,4,30.9,4,64s26.9,60,60,60 s60-26.9,60-60S97.1,4,64,4L64,4z" fill="none" stroke="#000000" stroke-miterlimit="10" stroke-width="2"/>
    <path d="M64,11.1c-29.2,0-52.9,23.7-52.9,52.9s23.7,52.9,52.9,52.9s52.9-23.7,52.9-52.9S93.2,11.1,64,11.1z M113.1,81.2 c-0.4,1.3-1.6,2.1-2.9,2.1c-0.1,0-0.1,0-0.2,0c-3.3,7.8-8.4,14.5-14.9,19.7c0.7,1.3,0.3,2.9-0.9,3.8c-0.5,0.4-1.2,0.6-1.8,0.6 c-0.8,0-1.6-0.3-2.2-1c-6.9,4.3-14.8,6.9-23.4,7.4c-0.4,1.2-1.5,2.1-2.8,2.1s-2.4-0.9-2.8-2.1c-8.6-0.5-16.6-3.1-23.5-7.4 c-0.6,0.5-1.3,0.8-2,0.8c-0.6,0-1.2-0.2-1.8-0.6c-1.2-0.8-1.5-2.3-1-3.6C26.5,98,21.3,91.2,18,83.4c-0.1,0-0.2,0-0.3,0 c-1.3,0-2.4-0.8-2.8-2.1c-0.4-1.3,0.1-2.7,1.2-3.4c-1.3-4.4-2-9.1-2-13.9c0-3.9,0.5-7.7,1.3-11.4c-1.3-0.7-1.9-2.2-1.5-3.6 c0.4-1.4,1.8-2.2,3.1-2.1c3-8.3,8.2-15.6,14.8-21.2c-0.5-1.2-0.1-2.7,1-3.5c1.1-0.8,2.5-0.7,3.6,0c7.2-4.8,15.7-7.7,24.8-8.3 c0.3-1.3,1.5-2.3,2.9-2.3s2.6,1,2.9,2.3c9.1,0.5,17.6,3.5,24.7,8.3c1-0.8,2.5-0.8,3.5,0c1.1,0.8,1.5,2.3,1,3.5 c6.6,5.6,11.7,12.8,14.7,21.1c1.4-0.1,2.7,0.7,3.1,2.1c0.5,1.4-0.2,2.9-1.4,3.6c0.8,3.6,1.3,7.4,1.3,11.3c0,4.8-0.7,9.5-2,13.9 C113,78.6,113.5,80,113.1,81.2z"/>
    <g>
      <path d="M64,55c1.1,0,2.1,0.2,3.1,0.5V14.9 c0-1.7-1.3-3-3-3c-1.7,0-3,1.3-3,3v40.5C62,55.2,63,55,64,55z" fill="none" stroke="#000000" stroke-miterlimit="10" stroke-width="0.75"/>
      <path d="M64,68.5c1.6,0,3-1.3,3-3c0-1.6-1.3-3-3-3 s-3,1.3-3,3C61,67.2,62.4,68.5,64,68.5z" fill="none" stroke="#000000" stroke-miterlimit="10" stroke-width="0.75"/>
      <path d="M55.8,59c1.2-1.6,2.9-2.8,4.9-3.5L37,23.1 c-1-1.3-2.8-1.6-4.2-0.7c-1.3,1-1.6,2.9-0.7,4.2L55.8,59z" fill="none" stroke="#000000" stroke-miterlimit="10" stroke-width="0.75"/>
      <path d="M74.5,65.2L112.2,53c1.6-0.5,2.4-2.2,1.9-3.8 s-2.2-2.4-3.8-1.9L72.6,59.5C73.7,61.2,74.4,63.1,74.5,65.2z" fill="none" stroke="#000000" stroke-miterlimit="10" stroke-width="0.75"/>
      <path d="M72.4,59.2L96,26.7c1-1.3,0.7-3.2-0.7-4.2 c-1.3-1-3.2-0.7-4.2,0.7L67.5,55.7C69.5,56.4,71.1,57.6,72.4,59.2z" fill="none" stroke="#000000" stroke-miterlimit="10" stroke-width="0.75"/>
      <path d="M53.5,65.8L16.7,77.7c-1.6,0.5-2.4,2.2-1.9,3.8 c0.4,1.3,1.6,2.1,2.8,2.1c0.3,0,0.6,0,0.9-0.1l36.8-11.9C54.2,69.8,53.6,67.9,53.5,65.8z" fill="none" stroke="#000000" stroke-miterlimit="10" stroke-width="0.75"/>
      <path d="M64,76c-1,0-2-0.1-2.9-0.4v37.5 c0,1.7,1.3,3,3,3c1.7,0,3-1.3,3-3V75.5C66.1,75.8,65.1,76,64,76z" fill="none" stroke="#000000" stroke-miterlimit="10" stroke-width="0.75"/>
      <path d="M72.4,71.8c-1.2,1.6-2.9,2.9-4.8,3.6l22.5,30.9 c0.6,0.8,1.5,1.2,2.4,1.2c0.6,0,1.2-0.2,1.8-0.6c1.3-1,1.6-2.8,0.7-4.2L72.4,71.8z" fill="none" stroke="#000000" stroke-miterlimit="10" stroke-width="0.75"/>
      <path d="M15.8,52.9l37.7,12.3c0.1-2.1,0.8-4.1,1.9-5.7 L17.7,47.2c-1.6-0.5-3.3,0.3-3.8,1.9C13.4,50.7,14.2,52.4,15.8,52.9z" fill="none" stroke="#000000" stroke-miterlimit="10" stroke-width="0.75"/>
      <path d="M111.2,77.6L74.5,65.7c0,2.1-0.7,4.1-1.8,5.7 l36.6,11.9c0.3,0.1,0.6,0.2,0.9,0.2c1.3,0,2.4-0.8,2.8-2.1C113.6,79.8,112.8,78.1,111.2,77.6z" fill="none" stroke="#000000" stroke-miterlimit="10" stroke-width="0.75"/>
      <path d="M55.7,71.9l-22.3,30.8c-1,1.3-0.7,3.2,0.7,4.2 c0.5,0.4,1.2,0.6,1.8,0.6c0.9,0,1.8-0.4,2.4-1.2l22.4-30.8C58.6,74.7,56.9,73.5,55.7,71.9z" fill="none" stroke="#000000" stroke-miterlimit="10" stroke-width="0.75"/>
    </g>
    <path d="M64,62.5c1.6,0,3,1.3,3,3c0,1.7-1.3,3-3,3s-3-1.3-3-3S62.4,62.5,64,62.5 M64,60.5c-2.7,0-5,2.2-5,5c0,2.7,2.2,5,5,5 c2.7,0,5-2.2,5-5S66.7,60.5,64,60.5L64,60.5z"/>
  </g>
</svg>