<svg viewBox="0 0 128 128" xmlns="http://www.w3.org/2000/svg">
  <path d="M122.83,105.86c0.2-0.77,0.23-3.03-0.02-4.84c-1.46-10.66-5.18-16.08-13.26-16.08H49.78c-3.48,0-6.62,0.37-9.39,1.82 c-2.05-2.32-6.24-5.09-12.54-5.31V64.81c0-2.57-1.6-4.86-4.01-5.75c0,0-9.63-4.15-14.77-4.11c-3.83,0.03-4.21,1.8-4.21,4.04v64.9h6 l4.8-9.58h96.7l4.8,9.58h6v-17.22C123.16,106.36,123.03,106.07,122.83,105.86z M48.41,86.96c-1.16,1.01-2.11,2.21-2.87,3.59 c-3.15,5.81-3.68,11.42-3.76,15.03h-7.92l-0.06-0.06c0.16-3.4,0.79-9.63,3.21-13.08C39.94,88.25,43.59,87.12,48.41,86.96z M38.69,87.82c-1.19,0.88-2.76,2.32-3.62,3.94c-2.52,0.19-5.52,0.19-7.74,0.19c-7.24,0-10.06-2.54-11.03-3.85 c1.23-1.55,4.5-4.68,10.76-4.68C33.07,83.42,36.89,85.94,38.69,87.82z M14.86,107.04c-1.49,0-1.88-1.45-1.88-3.11v-7.91 c0-1.15,0.84-2.09,1.87-2.09c0,0,18.11-0.05,19.15-0.1c-0.01,0.03-0.02,0.07-0.03,0.1c-1.59,3.86-2.04,8.74-2.17,11.5 c-0.03,0.63,0.24,1.2,0.66,1.59L14.86,107.04z"/>
</svg>