<svg viewBox="0 0 128 128" xmlns="http://www.w3.org/2000/svg">
  <g>
    <path d="M104,104.3c11.5-10.2,17.6-24.5,17.6-41.4c0-16.9-6.1-31.3-17.6-41.5C93.4,12.1,79.1,7,63.6,7c-27.9,0-58,17.5-58,55.9 c0,24.2,12,40.1,27.8,48.6c-2,0.3-3.3,0.8-3.4,1.6c-0.1,1.1,3,2.4,6.9,3.5c-7.6,0.8-12.1,2-12.1,3.4c0,2.4,14.4,4.2,32.1,4.2 c0.4,0,0.7,0,1.1,0c6.5,0,13.1-0.3,19.6-1c3.6,0.5,7.3,0.8,10.9,0.8c0.2,0,0.4,0,0.6,0c8.8,0,16-1.1,16-2.5c0-1-3.4-1.8-8.4-2.2 c4.9-1.5,6.6-3.2,6.4-4.4c-0.2-0.9-2.6-1.4-6.1-1.4c-2.5,0-5.7,0.2-9,0.7c0,0,0,0,0,0C93.9,111.7,99.3,108.4,104,104.3z M9.6,62.9 c0-16.4,5.9-30,17.1-39.3c9.6-8,23.1-12.6,36.9-12.6c14.5,0,27.9,4.8,37.7,13.4c10.6,9.4,16.3,22.7,16.3,38.5 c0,15.7-5.6,29-16.2,38.4c-1,0.8-1.9,1.6-3,2.4c0.6-0.9,0.9-2,0.9-3.2c-0.1-5.8-2.1-11.3-5.6-15.9c-7-9.4-19.2-15.8-29.7-15.8 c-11.4,0-23.4,6.4-30,15.8c0,0,0,0,0,0c-3.3,4.6-5.2,10.1-5.3,15.8c0,4.8,5.4,7.6,10.3,5.8v3.4c-4.5-2-8.7-4.5-12.3-7.5 C15.5,92.9,9.6,79.3,9.6,62.9z M64,81c-3.1,0-6.2,0.1-9.3,0.3c-0.2,0-0.4,0-0.6,0h0h0c-10.8,0.6-14.9,2.1-15.1,2.2 c-0.7,0.1-1.3,0.3-2,0.4c6.5-7.9,17.1-13.1,27-13.1c9.2,0,19.8,5.3,26.5,13C81.8,81.9,72.9,80.9,64,81z M61.2,81.1 c-0.2,0-0.3,0-0.5,0C60.9,81.1,61,81.1,61.2,81.1z M58.5,81.1c0,0-0.1,0-0.1,0C58.4,81.1,58.5,81.1,58.5,81.1z M56.3,81.2 C56.2,81.2,56.2,81.2,56.3,81.2C56.2,81.2,56.2,81.2,56.3,81.2z M37.6,111.3c-0.1,0-0.3,0-0.4,0C37.3,111.3,37.5,111.3,37.6,111.3z M88.3,116.1c3.2-0.5,6.2-0.7,8.7-0.7c1.5,0,2.5,0.1,3.2,0.2c-0.7,0.5-2,1.1-4.1,1.7l-10,3l10.4,0.9c0.8,0.1,1.5,0.1,2.1,0.2 c-2.4,0.3-5.6,0.5-9.6,0.5l-0.6,0c-3.6,0-7.2-0.3-10.6-0.8l-0.2,0l-0.2,0c-6.4,0.7-12.9,1-19.4,1c-0.4,0-0.7,0-1.1,0 c-14.6,0-24-1.2-28.1-2.3c1.6-0.4,4.1-0.9,8.4-1.4l10.5-1.1l-10.1-2.8c-1.5-0.4-2.7-0.8-3.5-1.1c0.7-0.1,1.6-0.1,2.8-0.1 c0.7,0,1.4,0,2.2,0.1l2.1,0.1V85c2.6-0.6,9.4-1.9,22.5-1.9c12,0,19.5,1.3,22.5,2v31.4L88.3,116.1z M88,106c0.2,0.1,0.5,0.2,0.7,0.3 c1.8,0.7,3.6,0.8,5.3,0.4c-1.9,1.2-3.9,2.2-6,3.1V106z"/>
    <path d="M109.9,111.1c-1.4,0.2-2.5,1.1-2.4,1.9c0.1,0.9,1.4,1.4,2.9,1.2c1.4-0.2,2.5-1.1,2.4-1.9S111.3,110.9,109.9,111.1z"/>
    <path d="M25.6,112c0.4-1.1-0.9-2.6-2.9-3.2c-1.9-0.6-3.8-0.2-4.1,1c-0.4,1.1,0.9,2.6,2.9,3.2C23.4,113.5,25.3,113.1,25.6,112z"/>
    <ellipse cx="58.2" cy="110.5" rx="2.4" ry="4.7"/>
    <ellipse cx="62.8" cy="93.9" rx="2.2" ry="4.1"/>
    <ellipse cx="76.4" cy="103.8" rx="4" ry="7.2"/>
    <ellipse cx="48.2" cy="98.3" rx="1.9" ry="3.3"/>
    <path d="M36.2,69.2c0.2,0,0.3-0.1,0.5-0.2l22.9-8.6c0.4,0,0.7-0.3,0.8-0.6c0.2-0.5-0.1-1.1-0.6-1.3l-21.3-13 c-2.1-1.3-4.9-1.2-6.9,0.3c-0.4,0.3-0.8,0.8-1,1.3c-1.1,2-0.3,4.6,1.8,5.7l0.4,0.2l12.5,5.2l-12.2,2.4c-2.4,0.7-4.1,2.7-3.8,4.9 C29.9,68.4,33.2,70.1,36.2,69.2z"/>
    <path d="M69.4,60.2l22.9,8.6c0.2,0.1,0.3,0.1,0.5,0.2c3,0.8,6.3-0.9,6.8-3.8c0.3-2.2-1.4-4.2-3.8-4.9l-12.2-2.4l12.5-5.2l0.4-0.2 c2.1-1.1,2.8-3.6,1.8-5.7c-0.3-0.5-0.6-0.9-1-1.3c-2-1.5-4.7-1.7-6.9-0.3l-21.3,13c-0.5,0.2-0.8,0.8-0.6,1.3 C68.7,59.9,69,60.2,69.4,60.2z"/>
    <path d="M31.5,38.5c5.3,0.1,10.4-1.9,14.3-5.5c1.5-1.3,2.7-2.8,3.7-4.5c0.6-0.8,0.4-2-0.5-2.5s-2-0.4-2.5,0.5l-0.1,0.1 c-3.9,4.4-9.2,7.3-15,8.3C29.2,35.2,29.1,38.4,31.5,38.5z"/>
    <path d="M81.2,33c3.9,3.6,9,5.5,14.3,5.5c2.5-0.1,2.3-3.3,0.1-3.7c-5.9-1-11.2-3.9-15.1-8.4c-0.6-0.8-1.7-1-2.5-0.5 c-0.8,0.6-1,1.7-0.5,2.5C78.5,30.2,79.7,31.7,81.2,33z"/>
  </g>
</svg>