<svg viewBox="0 0 128 128" xmlns="http://www.w3.org/2000/svg">
  <g>
    <ellipse cx="59" cy="39.9" rx="1.9" ry="2.9" transform="matrix(0.9956 -9.406924e-02 9.406924e-02 0.9956 -3.4944 5.7275)"/>
    <path d="M59.3,33.3c-2.1-0.4-3.2,0.2-3.6,0.9c-0.6,1-0.2,2.1,1.6,1.6c2.2-0.7,4.8,1.2,5.4,1.1c0.5-0.1,0.5-0.8,0-1.5 C62.1,34.8,61.3,33.7,59.3,33.3z"/>
    <path d="M95.9,22.2C94.4,10.5,86.1,2.6,71.1,4.5c-12.1,1.6-20.8,8-20.8,20.1c0,0.1,0.4,0.7,1.4,1.6c0,0.5-0.1,1-0.1,1.5 c0,2.9,0.4,5.7,1.2,7.7c0.1,0.2,0.8,1.9,0.9,2.5c0.6,2.1-3.2,4.7-3.3,7.1c-0.1,1.8,3.7,2.4,4,2.7c1.6,1.3,0.5,8.6,9.3,8.6 c0.4,0,0.8,0,1.3,0c1.6-0.1,3.1-0.3,4.4-0.3c1.7,0,3,0.4,3.8,1.7l0.3,2.2c-2.2,1.7-4.9,3.6-7.1,4.5c-10.8,4.7-9.3,13.7-7.6,15.5 c-8,2.4-18.8,9.8-22,22.1c-0.3-0.1-0.6-0.1-0.9-0.1c-1,0-2,0.4-2.7,1.2l-2.2,4.3l2.6,6.3c0.4,1,1.3,1.8,2.2,2.2 c0.2,3.3,0.7,6.1,1.3,8.3h51c0.3-2.8,0.5-6.1,0.5-9.8c0-3.9-1.6-14.9-0.8-23.7c0.4-3.8,3.1-14,3.7-20c0.4-4.3-1.3-8.3-4.3-11l0.4,0 c4.3-0.3,7.7-3.7,8.1-7.9l0.6-5.2C96.5,46.2,98,37.9,95.9,22.2z M69.4,54.8c-0.9,0-1.9,0.1-2.9,0.2c-0.5,0.1-1.1,0.1-1.6,0.1 c-0.4,0-0.8,0-1.2,0c-4.2,0-5.8-1.7-6.7-3.7c1-0.2,2-0.7,2.8-1.5c1.1-1.1,0.1-2.1-1.3-1.2c-0.6,0.4-1.4,0.6-2.3,0.6 c-0.3-1.1-0.6-2-1.3-2.5c-0.2-0.2-0.5-0.3-1.1-0.4c-2.3-0.7-2.6-1.2-2.6-1.4c0-0.8,0.8-1.9,1.6-2.9c1.1-1.5,2.2-3,1.7-4.5 c-0.1-0.5-0.5-1.4-0.9-2.4L53.7,35c-0.8-1.9-1.2-4.6-1.1-7.3c0-0.3,0-0.5,0-0.8c2.6,1.9,7.9,4.7,17.8,6.7c7,1.4,7.3,15.8,7.1,22.8 c0,0-0.1,0-0.1,0c0,0-1.3,1.1-3,2.5l-0.2-1.6c0-0.1-0.1-0.2-0.1-0.3C72.9,55.1,70.9,54.8,69.4,54.8z M77.9,101.2 c-0.1,0.2-0.1,0.3-0.1,0.5c-0.1,1.8-1.3,3.3-3,3.8c-0.1,0-0.2,0.1-0.3,0.1l-25.8,5.1c-0.8,0.2-1.5,0.3-2.3,0.4 c-0.1,0-0.2,0-0.3,0.1l-8.4,2.7c-0.1,0-0.2,0-0.3,0c-0.9,0-1.6-0.5-1.9-1.3l-2.2-5.4l1.7-3.2c0.3-0.2,0.7-0.4,1.1-0.4 c0.3,0,0.6,0.1,0.8,0.2l0.1,0c1.6,0.8,3.7,1.9,6,1.9c0.4,0,0.9,0,1.3-0.1c0.1,0,0.1,0,0.2,0c0.8-0.2,1.6-0.5,2.5-0.7 c0,0,0.1,0,0.1,0l21.9-5.8c0.7-0.2,1.3-0.8,1.5-1.5l2.6-13.2l8.1,1.6L77.9,101.2z"/>
  </g>
</svg>