<svg viewBox="0 0 128 128" xmlns="http://www.w3.org/2000/svg">
  <path d="M122.21,50.07c-4.95-17.2-20.79-26.1-20.79-26.1S93.94,5.36,82.09,2.7C68.63-0.32,50.43,17.2,39.8,22.76 s-23.44,11.6-26.1,14.26c-2.66,2.66-11.37,15.23-9.43,30.21c1.94,14.98,8.14,25.98,13.05,28.04c5.5,2.3,26.07-10.84,30.06-13.9 c5.57-4.27,8.31-7.36,9.58-9.04c0.01,0,0.02,0.01,0.03,0.02c0.15,0.1,0.3,0.16,0.47,0.2c-1.14,4.33-3.94,16.03-3.17,24.17 c0.96,10.15,2.9,17.16,7.49,19.82c3.42,1.98,11.82,1.55,24.08-3.81c1.8,2.67,5.04,7.16,6.78,9.32c1.76,1.94,2.11,2.99,3.85,3.62 c0.05-0.01,0.12-0.03,0.15-0.08c1.1-1.57,0.96-3.75,1.76-5.48c3.37-4.35,20.15-14.8,23.42-17.35l-11.09-7.18 C121.96,81.53,125.44,61.26,122.21,50.07z M70.78,41.84c-3.61,9.44-7.75,17.97-10.55,23.09c1.27-4.93,3.65-12.79,7.09-22.88 c1.37-4.01,2.43-7.8,3.36-11.14c2.26-8.11,3.71-12.84,6.29-12.84c0.13,0,0.26,0.02,0.39,0.04l0.01-0.01 C79.18,19.9,73.08,35.84,70.78,41.84z M116.42,102.84c-6.39,4.94-20.09,12.25-21.27,17.54c-2.66-3.23-8.27-11.35-10.06-14.24 c6.35-3.04,14.11-7.44,19.49-10.96L116.42,102.84z"/>
</svg>