<svg viewBox="0 0 128 128" xmlns="http://www.w3.org/2000/svg">
  <g>
    <ellipse cx="24" cy="15" rx="7" ry="5"/>
    <path d="M74.9,21.3c3.7-2.8,5.6-6.5,4.3-8.2c-1.3-1.7-5.4-0.8-9,2.1c-3.7,2.8-5.6,6.5-4.3,8.2S71.2,24.1,74.9,21.3z"/>
    <path d="M119.2,12.3c0.1-0.4,0.2-0.8,0.3-1.3c0.4,0.1,0.9,0.2,1.3,0.2c2.7,0,4.8-2.1,4.8-4.8s-2.1-4.8-4.8-4.8 c-2.7,0-4.8,2.1-4.8,4.8c0,0.5,0.1,1,0.3,1.5l-3.5,2l-2,1.1l-7.7,4.4l-0.1,0l-8.3,4.7l-7.8,4.4L81,27.9c-5.5-1.7-11.3-2.6-17.4-2.6 c-3.1,0-6.1,0.2-9.2,0.7c-0.2-1.3-0.8-2.6-1.9-3.7c-2.1-2.1-5.2-2.6-6.9-0.9c-1.5,1.5-1.2,4.4,0.6,6.5C27.7,33.7,12,48.9,12,75.1 c0,8.2,1.6,15.3,4.2,21.4c-0.5,0-0.9,0-1.4,0C11.5,96.7,8.9,98,9,99.4c0.1,1.4,2.9,2.3,6.2,2.1c1.2-0.1,2.3-0.3,3.3-0.6 c9.4,16.3,27.8,24,45.1,24c11.6,0,22.5-3.3,31.4-9.4c0.5,0.4,1,0.6,1.5,0.6c1.7,0,3.1-1.9,3.4-4.5c5.7-5.2,9.9-11.6,12.4-18.8 c2.3-1.3,4.1-3.3,5.6-5.9c1.6-2.6,1.9-5.7,1-8.6c-0.6-2.2-2-4.2-3.8-5.6c-0.2-4.2-0.8-8.2-1.8-12c1-0.4,2.1-1,3.2-1.8 c2.9-2.1,4.8-4.5,4.2-5.4s-3.5,0-6.5,2.1c-0.7,0.5-1.4,1.1-2,1.6c-0.8-2.2-1.7-4.3-2.8-6.3l0.2-0.9l0,0l1.3-5.3v-0.1l1.4-5.4 l-0.1,0l1.3-5.2h0.1l1.3-5.3l1.4-5.3l1.4-5.7l-0.1,0l0.9-3.1C118.6,14.5,119,13,119.2,12.3z M115.1,78.8c0,0.1,0.1,0.3,0.1,0.4 c0.6,2,0.4,4.1-0.6,5.9c-0.1,0.2-0.3,0.4-0.4,0.7C114.6,83.5,114.9,81.2,115.1,78.8z M111.2,75.1c0,0.3,0,0.6,0,0.9 c-0.8-0.6-1.7-0.9-2.7-1c-1,0-1.9,0.8-1.9,1.8c0,0.9,0.7,1.7,1.6,1.9c0.5,0,1,0.3,1.2,0.8c0.3,0.7,0.4,1.5,0.2,2.3 c-0.3,0.7-1,1.2-1.7,1.3c-0.8,0.2-1.7,0.1-2.4-0.3c-1-0.5-1.8-1.4-2.1-2.5c-0.3-1.1-0.2-2.3,0.3-3.3c0.7-1.4,1.9-2.4,3.4-2.8 c1.4-0.4,2.8-0.3,4.1,0.3C111.2,74.7,111.2,74.9,111.2,75.1z M111,70.5c-4.1-1-8.4,0.8-10.5,4.7c0,0,0,0.1,0,0.1 c-2.1,3.9-0.6,8.8,3.3,10.9c1.5,0.9,3.4,1.1,5.1,0.7c0.4-0.1,0.8-0.2,1.1-0.4c-0.3,1.2-0.6,2.4-1,3.6c-1.5,0.6-3.3,1-5.4,1 c-2.8,0-17.8-0.4-20.9-0.5c0,0,0,0,0,0c-2.4-0.1-6.8-0.2-9.5-0.2c0.7-1,1.1-2.2,1.3-3.5c0.3-2-0.3-3.9-1.6-5.4 c-2.3-3.1-8.8-2.3-8.8-2.3c-1.7,0.1-3.8,0.9-3.5,2.9c0.3,1.2,1.3,2,2.4,2.3c2.6,0.6,6.2,0,6.3,2.6c0.1,2.9-4.4,1.7-4.7,4.8 c-0.4,3.1,4.7,2.7,4.7,4.8c0,1.6-1.7,1.9-3.4,2.3c-1.5,0.3-4.4,0.8-4.6,2.5c-0.2,1.7,0.8,3.9,4.8,3.2c6.4-1,8.6-4.5,8.6-6.7 c0-0.9-0.1-1.8-0.4-2.7l8.1,0l0,0l21.1-0.3c1.4,0,2.7-0.1,3.9-0.4c-2,4.6-4.8,8.7-8.2,12.3c-0.6-1.1-1.6-1.8-2.6-1.8 c-1.9,0-3.5,2.5-3.5,5.5c0,0.5,0,0.9,0.1,1.4c-8.2,5.8-18.5,8.9-29.5,8.9c-12.2,0-24.1-4.1-32.5-11.1c-6.8-5.6-11.4-13.1-13.6-21.8 c1.2,0.5,3.7,0.8,6.6,0.6c4-0.3,7.1-1.2,7.1-2.2c0-0.7-1.9-1.2-4.4-1.3c-0.1-1.3-0.6-3-1.6-4.7c-1.8-3.1-4.4-5-5.8-4.2 c-1.4,0.8-1.1,4,0.7,7.1c0.5,0.8,1,1.5,1.5,2.1c-2.1,0.3-3.7,0.8-4.5,1.3C16.4,83,16,79.1,16,75.1c0-14.4,5.2-26.4,15.1-34.6 c8.5-7.1,20.4-11.1,32.5-11.1c4.4,0,8.7,0.5,12.8,1.5l1,2.8c0,0.2,0.1,0.3,0.2,0.5l0.1,0c0.4,1.1,1.6,3.3,4.5,6.2v0.1 c2.2,2.2,4.5,4.3,7,6.2c0.1,0.1,0.3,0.2,0.4,0.3c9.1,6.9,14.6,7.8,15.2,7.8l2.3,0.3C109.2,59.8,110.5,65,111,70.5z"/>
    <path d="M15.9,111c-1.2,0.8-0.6,3.6,1.2,6.4c1.8,2.8,4.2,4.4,5.4,3.6s0.6-3.6-1.2-6.4C19.5,111.9,17.1,110.2,15.9,111z"/>
    <path d="M56.7,62.6c0-0.2,0-0.3-0.2-0.7c-0.1-0.3-0.3-0.8-0.5-1.3c-0.2-0.5-0.5-1.1-0.8-1.5c-0.8-1.4-1.9-2.6-3.2-3.6 c-0.9-0.7-1.8-1.2-2.9-1.6c-0.6-0.2-1.2-0.4-1.8-0.5c-0.3,0-0.6-0.1-0.9-0.1h-2.2l-0.6,0.1c-0.3,0-0.7,0.1-1,0.2 c-0.3,0.1-0.6,0.2-0.9,0.3c-1,0.4-2,0.9-2.9,1.6c-1.3,1-2.3,2.2-3.1,3.7C35.4,60,35,61,34.7,61.9c-0.2,0.6-0.2,1-0.2,1 c-0.2,1.3,0.3,2.5,1.4,3.3c1.7,1.2,3.9,0.9,5.3-0.6l0.2-0.2l0.5-0.6c0.3-0.3,0.7-0.8,1.2-1.3c0.3-0.2,0.5-0.5,0.8-0.7 c0.2-0.2,0.5-0.4,0.8-0.5c0.2-0.1,0.4-0.2,0.6-0.2h0.4c0.1,0,0.1,0,0.1,0c0,0,0.1,0,0.1,0c0,0,0.1,0,0.1,0c0.2,0,0.4,0.1,0.6,0.2 c0.3,0.2,0.5,0.3,0.8,0.5c0.3,0.2,0.5,0.4,0.8,0.7c0.2,0.2,0.5,0.5,0.7,0.7l0.5,0.5l0.4,0.5l0.1,0.2c0.9,1.1,2.3,1.7,3.7,1.5 c0,0,0.1,0,0.1,0c1.9-0.3,3.3-2.1,3-4V62.6z"/>
    <path d="M93.8,62.6c0-0.2-0.1-0.5-0.2-0.7c-0.1-0.4-0.3-0.8-0.5-1.3c-0.2-0.5-0.5-1-0.8-1.5c-0.8-1.4-1.9-2.6-3.2-3.6 c-1.4-1-3-1.7-4.6-2c-0.3,0-0.6-0.1-0.9-0.1h-2.2l-0.6,0.1c-0.3,0-0.7,0.1-1,0.2c-0.3,0.1-0.6,0.2-0.9,0.3c-1,0.4-2,0.9-2.9,1.6 c-1.3,1-2.4,2.2-3.2,3.6c-0.5,0.9-0.8,1.8-1.1,2.8c-0.2,0.6-0.3,1-0.3,1c-0.2,1.3,0.3,2.5,1.4,3.3c1.7,1.2,3.9,0.9,5.3-0.6l0.2-0.2 l0.5-0.6c0.3-0.3,0.7-0.8,1.2-1.3c0.2-0.2,0.5-0.5,0.8-0.7c0.2-0.2,0.5-0.4,0.8-0.5c0.2-0.1,0.4-0.2,0.6-0.2h0.4c0,0,0.1,0,0.1,0 c0,0,0,0,0.1,0c0,0,0.1,0,0.1,0c0.2,0,0.4,0.1,0.6,0.2c0.3,0.2,0.5,0.3,0.8,0.5c0.3,0.2,0.5,0.4,0.8,0.7c0.2,0.2,0.5,0.5,0.7,0.7 l0.5,0.5l0.4,0.5l0.2,0.2c0.9,1.1,2.3,1.6,3.7,1.4c0,0,0.1,0,0.1,0c1.9-0.3,3.3-2.1,3-4V62.6z"/>
  </g>
</svg>