<svg viewBox="0 0 128 128" xmlns="http://www.w3.org/2000/svg">
  <g>
    <path d="M119,73.1c-0.4-0.2-0.7-0.3-1.1-0.3c-0.5,0-0.9,0.2-1.2,0.4c-0.3-0.9-1.2-1.8-2.4-1.8H114c-0.6,0.1-1.1,0.3-1.4,0.5 c-0.3-0.2-0.8-0.5-1.4-0.5H111c-1,0.1-1.5,0.5-1.8,0.9c-0.3,0.4-0.3,0.8-0.4,1.2c-0.3-0.1-0.6-0.2-1-0.2c-0.3,0-0.7,0.1-1,0.2 c-1.5,0.7-1.3,2.1-1.1,3c0,0.2,0.1,0.5,0.1,0.7c0.1,1.6-0.6,2.9-0.8,3.2c-0.2,0.2-0.3,0.3-0.5,0.5c-1.4,1.4-2.6,2.5-1.8,5.3 c0,0-0.1,0.1-0.1,0.1l-0.4,0.5l-5.7,8.7c0,0-1.8-3.5-5-9c-2.3-4-5.1-7.5-10-9.8h-0.1c0,0-0.1,0-0.1,0c0,0,0,0-0.1,0 c-1-0.5-2.2-0.9-3.4-1.2c-0.3-0.1-0.7-0.2-1.1-0.3l-1.1-0.3c0,0,0,0-0.1,0c-1.9-0.4-4.1-0.7-6.5-0.9v-2.2 c6.2-1.6,11.8-6.3,14.3-14.2c2.5-1,4.3-3.6,4.3-6.6c0-1.8-0.7-3.5-1.7-4.8c0.1-1.1,0.2-3.3,0-6.1c1.9-0.6,7.3-2,7.3-6.3 c-0.1-1.6-1-2-2.3-2.6c-1.4-0.7-5.1-1-6.6-0.9l-0.1-1.8c-0.2-3.5-0.9-6.4-2.5-8.9c3-1.2,5.2-4.1,5.2-7.5c0-4.5-3.6-8.1-8.1-8.1 s-8.1,3.6-8.1,8.1c0,0,0,0.1,0,0.1c-2.2-0.6-4.6-0.9-6.8-1c-3,0.1-6.4,0.6-9.3,1.9c-8,3.5-10.5,8-11,15.4l-0.1,1.8c0,0,0,0,0,0 c-1.5-0.1-5.2,0.2-6.6,0.9c-1.3,0.6-2.1,1-2.1,2.6c0,3.9,4.6,5.4,6.8,6.1c-0.3,4,0,6.9,0,6.9l0,0c-0.8,1.2-1.2,2.5-1.2,4.1 c0,3,1.8,5.6,4.4,6.6c2.4,7.5,7.7,12.1,13.6,13.9v2.4h-0.1c-2.4,0.2-4.5,0.4-6.3,0.8c-1.4,0.3-2.7,0.6-3.9,1 c-0.2,0.1-0.4,0.1-0.6,0.2c-0.4,0.1-0.8,0.3-1.2,0.4c-0.1,0-0.2,0.1-0.3,0.1h-0.1c-4,1.7-6.1,3.9-8.2,5.5l-6.3,5.5l-3.9-12.3 l-0.2-0.6c0.5-0.5,0.8-1,1-1.6c0.8-2.8-0.4-4-1.8-5.4c-0.2-0.2-0.3-0.3-0.5-0.5c-0.2-0.3-0.9-1.6-0.8-3.2c0-0.2,0.1-0.5,0.1-0.7 c0.2-0.9,0.4-2.3-1.1-3c-0.3-0.2-0.7-0.2-1-0.2c-0.4,0-0.7,0.1-1,0.2c0-0.4-0.1-0.8-0.4-1.2c-0.3-0.4-0.8-0.9-1.8-0.9h-0.1 c-0.6,0-1.1,0.2-1.4,0.5c-0.3-0.2-0.8-0.4-1.4-0.5c-0.2-0.1-0.3-0.1-0.4-0.1c-1.3,0-2.1,0.9-2.5,1.9c-0.3-0.2-0.8-0.4-1.2-0.4 c-0.4,0-0.8,0.1-1.1,0.3c-1.7,1.1-1.7,4.5-1.6,5.5c0.2,3.2,1.2,5.7,3.1,7.6c2.2,2.3,5.3,3.6,8.4,3.6c1.5,0,2.8-0.3,3.9-0.8l0,0.1 l3.8,12.4l0.9,2.9l2.3-2l6.3-5.5c0.5-0.4,1-0.8,1.5-1.2c1.6-1.3,3.1-2.6,5.5-3.7v33.1h-3l0.1-10.3v-2.6l-2.5,0.7 c0,0-4.1,1.1-8.6,2.2c-0.5,0.1-0.9,0.2-1.4,0.2c-3.6,0-7.2-3.1-8.2-7.1c-1.9-7.9-2.9-17-3-18c0,0,0,0,0-0.1v-0.2c0-0.1,0-0.1,0-0.2 c-0.7-0.1-1.3-0.3-2-0.6c0,0.2-0.1,0.5-0.1,0.8v0.3c0,0,1,9.8,3,18.4c1.2,5.1,5.7,8.6,10.1,8.6c0.6,0,1.2-0.1,1.9-0.2 c4.7-1.1,8.7-2.2,8.7-2.2l0.1,10.3h-0.1v11.8h45.7v-11.8c0,0,0,0-0.1,0V105c0,0,1.8,2.3,4.7,5.3c1.4,1.4,4,2.4,6.8,2.4 c2.7,0,5.6-1,7.2-3.6c2.2-3.5,7.1-15.3,9-19.6c0.1-0.2,0.1-0.3,0.2-0.5c0.1,0,0.1-0.2,0-0.3c-0.8,0.4-1.6,0.7-2.4,0.9 c-0.2,0.6-0.5,1.2-0.8,2c-2.1,4.8-5.9,13.9-7.7,16.6c-1.5,2.3-4.1,2.7-5.6,2.7c-2.5,0-4.5-0.9-5.3-1.8c-2.8-2.9-4.6-5.2-4.6-5.2 l-3.6-4.4v12.2c-1.4,0-3,0-3-0.1V78.9c3.9,2.1,6.1,4.9,8.3,8.6c3.2,5.4,5,8.9,5,8.9l1.6,3l1.9-2.8l5.6-8.6c1.2,1.1,3.1,1.8,5.4,1.8 c3.1,0,6.1-1.3,8.3-3.6c1.8-1.9,2.9-4.4,3.1-7.6C120.7,77.6,120.7,74.2,119,73.1z M21.6,74.8c-2.7,0-5.3-1.1-7.3-3.1 c-1.6-1.6-2.5-3.9-2.7-6.7c-0.1-2,0.3-3.7,0.9-4.1c0.1-0.1,0.2-0.1,0.3-0.1c0.1,0,0.2,0,0.4,0.1l0.5,0.3c-0.1,0.2-0.1,0.3-0.2,0.5 c-0.2,0.8-0.3,1.6-0.3,2.4c0,1.6,0.4,3.3,1.4,4.7c0.1,0.2,0.4,0.2,0.7,0.1c0.2-0.1,0.2-0.4,0.1-0.6c-0.8-1.2-1.1-2.7-1.2-4.2 c-0.1-0.9,0-1.7,0.1-2.5l0.4,0.3l0.8-1.6c0.1-0.3,0.5-0.9,1.1-0.9h0.1c0.4,0,0.6,0.2,0.7,0.3l0.1,0.1c-0.2,0.4-0.4,0.8-0.5,1.1 c-0.3,0.8-0.4,1.7-0.4,2.5c0,1.6,0.4,3.3,1.2,4.8c0.1,0.2,0.4,0.3,0.6,0.2c0.2-0.1,0.3-0.4,0.2-0.6c-0.6-1.4-1-2.9-1-4.4 c0-0.8,0.1-1.5,0.2-2.3c0-0.3,0.1-0.7,0.2-1l0.3,0.2l0.9-0.6c0.2-0.1,0.3-0.2,0.5-0.2h0.1c0.3,0,0.5,0.1,0.6,0.3 c0.1,0.1,0.1,0.2,0.1,0.4l0.1,2.4l0.2-0.1c-0.2,0.5-0.3,1-0.3,1.6c0,1.2,0.1,2.7,1,3.8c0.1,0.2,0.4,0.2,0.6,0.1 c0.2-0.1,0.2-0.4,0.1-0.6c-0.5-1-0.7-2.1-0.7-3.3c0-0.7,0.1-1.4,0.2-2.1l1-0.6c0.1,0,0.2-0.1,0.3-0.1s0.2,0,0.3,0.1 c0.4,0.2,0.5,0.2,0.3,1.4v0.1c0,0.2-0.1,0.5-0.1,0.7c-0.2,2.2,0.8,3.9,1,4.2l0.1,0.1l0.1,0.1c0.1,0.1,0.2,0.2,0.3,0.3l0.2,0.2 c1.4,1.3,2,1.9,1.4,3.9C26.2,73.8,24.1,74.8,21.6,74.8z M66.2,79.7c0.6,0,1.3,0.1,2.1,0.2c1.7,0.2,3,0.6,3,0.7 c0,0.2-1.4,0.1-3.1-0.1c-0.8-0.1-1.6-0.3-2.1-0.4C66.1,80,66.1,79.8,66.2,79.7z M71.2,77.5c0,0.2-1.3,0.6-3,0.9 c-0.8,0.2-1.5,0.3-2.1,0.3c0-0.1-0.1-0.3-0.1-0.4c0.5-0.2,1.3-0.3,2.1-0.5C69.8,77.5,71.2,77.3,71.2,77.5z M84.1,54.5 c0.3-1.4,0.5-2.8,0.6-4.4c0.2-0.5,0.3-0.9,0.5-1.4c0.3,0.6,0.4,1.3,0.4,2.1C85.6,52.2,85,53.5,84.1,54.5z M76.3,7.2 c1.3,0,2.4,1.1,2.4,2.4c0,1.3-1.1,2.4-2.4,2.4s-2.4-1.1-2.4-2.4C73.9,8.3,75,7.2,76.3,7.2z M42.3,50.8c0-0.3,0-0.6,0.1-0.9L43,52 c0,0.1,0.1,0.1,0.1,0.1c0.1,0.2,0.3,0.2,0.4,0c0.1,0.8,0.2,1.7,0.4,2.5C42.9,53.7,42.3,52.3,42.3,50.8z M45.2,47.6 c0-0.7,0-1.5,0.1-2.2c0.4-1.5,0.8-2.9,1.2-4.3c1.9,0.3,4.1,0.6,6.2,0.8c-1.5,0.2-2.8,0.9-3.6,2.1c-0.3,0.5-0.1,1.2,0.5,1.6 c0.5,0.2,0.9-0.1,1.3-0.3c1.1-0.5,1.8-0.6,2.9-0.6c0.7,0,1.4,0,2.2,0.3c0.5,0.1,0.9,0.4,1.4,0.5c0.7,0.2,1.4-0.4,1.2-1.2 c-0.1-0.5-0.6-0.9-1-1.2c-0.5-0.4-1.1-0.7-1.7-1c4.4,0.3,8,0.5,8,0.5s3.6-0.1,8-0.5c0,0-0.1,0-0.1,0.1c-0.7,0.3-1.5,0.8-2,1.5 c-0.5,0.6-0.5,1.5,0.3,1.7c0.6,0.2,1.2-0.2,1.7-0.4c0.8-0.2,1.4-0.4,2.5-0.4c1.2,0,1.8,0.1,2.9,0.6c0.2,0.1,0.3,0.2,0.5,0.3 c1,0.3,1.7-0.7,1.3-1.7c-0.3-0.5-0.9-1-1.5-1.3c-0.6-0.3-1.2-0.5-1.8-0.7c1.7-0.2,3.3-0.4,4.9-0.6c0.8,2.7,1.6,5.7,2.2,8 c-0.3,6.4-2.2,11.8-5.8,15.6c-3.4,3.6-7.9,5.5-12.9,5.5c-4.9,0-9.5-2-12.9-5.5C47.2,60.7,45.2,54.8,45.2,47.6z M64,72.3 c1,0,2.1-0.1,3.1-0.2v3.8c0,0.2,0,0.4-0.1,0.6c-0.5,0.3-0.9,0.6-1.4,0.9c-0.4-0.5-1.1-0.8-2.1-0.8c-1,0-1.6,0.3-2.1,0.8 c-0.3-0.2-0.6-0.4-0.9-0.5c-0.1-0.2-0.1-0.5-0.1-0.8v-4h0.2C61.7,72.2,62.9,72.3,64,72.3z M59.1,77.8c0.7,0.1,1.4,0.3,1.9,0.5 c0,0.1-0.1,0.3-0.1,0.5c-0.5-0.1-1.2-0.2-1.9-0.3c-1.7-0.3-3-0.8-3-0.9C56,77.3,57.4,77.5,59.1,77.8z M59,79.9 c0.7-0.1,1.4-0.2,1.9-0.2c0,0.2,0.1,0.3,0.1,0.5c-0.5,0.1-1.2,0.2-1.9,0.3c-1.7,0.2-3.1,0.3-3.1,0.1C55.9,80.5,57.3,80.1,59,79.9z M52.2,76.6c0.5-0.1,1-0.2,1.5-0.2c0,0.7,0.1,1.6,0.1,2.5c0,2.6-0.4,4.1,0.5,4.6c1.3,0.6,3.1-0.4,4.5-1.1c0.6-0.3,1.9-0.8,2.7-1.4 c0.5,0.4,1.2,0.7,2,0.7c0.8,0,1.5-0.2,1.9-0.7c0.9,0.5,2.1,1.1,2.7,1.4c1.5,0.7,3.3,1.7,4.6,1.1c1-0.5,0.6-2,0.6-4.6 c0-1,0.1-1.9,0.1-2.6c0.5,0.1,1,0.2,1.5,0.3H75l0.5,0.1v35H51.9v-35C52,76.6,52.1,76.6,52.2,76.6z M119.2,78.6 c-0.2,2.8-1.1,5-2.7,6.7c-1.9,2-4.6,3.1-7.3,3.1c-2.6,0-4.6-1-5.1-2.5c-0.6-2,0-2.6,1.4-3.9l0.2-0.2c0.1-0.1,0.2-0.2,0.3-0.3 l0.1-0.1l0.1-0.1c0.2-0.3,1.2-2,1-4.1c0-0.2-0.1-0.5-0.1-0.7v-0.2c-0.2-1.2-0.1-1.2,0.3-1.4c0.1-0.1,0.2-0.1,0.3-0.1s0.2,0,0.3,0.1 l1.3,0.7c0.1,0.7,0.1,1.3,0.1,1.9c0.1,1.2-0.1,2.4-0.7,3.3c-0.1,0.2-0.1,0.5,0.1,0.6c0.2,0.1,0.4,0.1,0.6-0.1 c0.9-1.1,1.1-2.5,1-3.8c-0.1-0.5-0.2-1-0.3-1.5l0.1-2.3c0-0.3,0.1-0.4,0.1-0.4c0-0.1,0.2-0.2,0.6-0.3h0.1c0.2,0,0.4,0.1,0.5,0.2 l0.9,0.6l0.5-0.3c0.1,0.4,0.2,0.8,0.2,1.1c0.2,0.8,0.2,1.5,0.2,2.3c0,1.5-0.4,3-1,4.4c-0.1,0.2,0,0.5,0.2,0.6 c0.2,0.1,0.5,0,0.6-0.2c0.8-1.4,1.2-3.1,1.2-4.8c0-0.8-0.1-1.7-0.4-2.5c-0.2-0.4-0.4-0.8-0.6-1.2c0.2-0.1,0.4-0.2,0.7-0.2 c0.2-0.1,0.2-0.1,0.3-0.1c0.6,0,0.9,0.6,1.2,1.1l0.7,1.6l0.4-0.3c0.1,0.8,0.2,1.5,0.2,2.3c-0.1,1.5-0.4,3-1.2,4.2 c-0.1,0.2-0.1,0.5,0.1,0.6c0.2,0.1,0.4,0.1,0.6-0.1c1-1.4,1.4-3.1,1.4-4.7c0-0.8-0.1-1.6-0.3-2.4c0-0.1-0.1-0.2-0.1-0.4l0.3-0.2 c0.1-0.1,0.3-0.2,0.4-0.2s0.2,0,0.3,0.1C119,75,119.3,77,119.2,78.6z"/>
    <path d="M24.6,53.8c4.5,0,8.1-3.6,8.1-8.1s-3.6-8.1-8.1-8.1s-8.1,3.6-8.1,8.1S20.1,53.8,24.6,53.8z M22.2,40.8 c1.3,0,2.4,1.1,2.4,2.4s-1.1,2.4-2.4,2.4s-2.4-1.1-2.4-2.4S20.9,40.8,22.2,40.8z"/>
    <path d="M53.8,45.8c-1.7,0-3.1,1.4-3.1,3.2c0,1.8,1.4,3.2,3.1,3.2s3.1-1.4,3.1-3.2C56.9,47.2,55.5,45.8,53.8,45.8z"/>
    <path d="M74.2,52.2c1.7,0,3.1-1.4,3.1-3.2c0-1.8-1.4-3.2-3.1-3.2s-3.1,1.4-3.1,3.2C71.1,50.8,72.5,52.2,74.2,52.2z"/>
    <path d="M64,57.4c1.7,0,2.6-1.2,2.8-1.7c0.2-0.4,0-0.8-0.4-1c-0.1,0-0.1,0-0.2,0h-4.4c-0.1,0-0.1,0-0.2,0c-0.4,0.2-0.6,0.6-0.4,1 S62.3,57.4,64,57.4z"/>
    <path d="M71.1,61.2c0.4-1.1-0.7-2.1-1.9-1.4c-2,1.2-8.5,1.2-10.4,0c-1.1-0.7-2.3,0.4-1.8,1.4s4,3.4,7.1,3.4 C67.2,64.6,70.7,62.3,71.1,61.2z"/>
    <path d="M105.8,63.7c4.5,0,8.1-3.6,8.1-8.1s-3.6-8.1-8.1-8.1s-8.1,3.6-8.1,8.1S101.3,63.7,105.8,63.7z M103.3,50.6 c1.3,0,2.4,1.1,2.4,2.4s-1,2.4-2.4,2.4c-1.3,0-2.4-1.1-2.4-2.4S102,50.6,103.3,50.6z"/>
  </g>
</svg>