<svg viewBox="0 0 128 128" xmlns="http://www.w3.org/2000/svg">
  <g>
    <path d="M121.2,93.5l-5.6-4.2c3.9-7.7,6-16.6,6-26.3c0-16.9-6.1-31.3-17.6-41.5C93.4,12.1,79.1,7,63.6,7 c-27.9,0-58,17.5-58,55.9c0,38.4,30.1,55.9,58,55.9c15.4,0,29.8-5.2,40.4-14.5c1.2-1.1,2.4-2.3,3.5-3.4l5.1,3.9 c2.6,2,6.3,1.5,8.3-1.1l1.4-1.9C124.3,99.2,123.8,95.5,121.2,93.5z M101.4,101.3c-9.9,8.7-23.3,13.5-37.8,13.5 c-13.8,0-27.3-4.6-36.9-12.6C15.5,92.9,9.6,79.3,9.6,62.9c0-16.4,5.9-30,17.1-39.3c9.6-8,23.1-12.6,36.9-12.6 c14.5,0,27.9,4.8,37.7,13.4c10.6,9.4,16.3,22.7,16.3,38.5c0,8.8-1.8,16.9-5.2,23.9c-1.8-1.3-4.1-1.5-6.1-0.6 c-0.1-0.1-0.2-0.2-0.3-0.3l-2.4-1.9c-1.5-1.2-2.5-3.1-2.5-5.1v-2.6c0-1.4-1.2-2.6-2.6-2.6h-3.3c-1.4,0-2.6,1.2-2.6,2.6v3.4 c0,1.4-1.2,2.6-2.6,2.6h-3.3c-1.4,0-2.6-1.2-2.6-2.6v-3.4c0-1.4-1.2-2.6-2.6-2.6h-3.3c-1.4,0-2.6,1.2-2.6,2.6v3.4 c0,1.4-1.2,2.6-2.6,2.6h-3.3c-1.4,0-2.6-1.2-2.6-2.6v-3.4c0-1.4-1.2-2.6-2.6-2.6h-3.3c-1.4,0-2.6,1.2-2.6,2.6v3.4 c0,1.4-1.2,2.6-2.6,2.6h-3.3c-1.4,0-2.6-1.2-2.6-2.6v-3.4c0-1.4-1.2-2.6-2.6-2.6h-3.3c-1.4,0-2.6,1.2-2.6,2.6v3.4 c0,1.4-1.2,2.6-2.6,2.6h-3.3c-1.4,0-2.6-1.2-2.6-2.6v-3.4c0-1.4-1.2-2.6-2.6-2.6h-3.3c-1.4,0-2.6,1.2-2.6,2.6v9.3 c0,1.4,1.2,2.6,2.6,2.6h3.3c1.4,0,2.6,1.1,2.6,2.6v2.1c0,1.4,1.1,2.6,2.6,2.6c0,0,0,0,0,0h3.3c1.4,0,2.6-1.1,2.6-2.6c0,0,0,0,0,0 v-2.1c0-1.4,1.2-2.6,2.6-2.6h3.3c1.4,0,2.6,1.1,2.6,2.6v2.1c0,1.4,1.1,2.6,2.6,2.6c0,0,0,0,0,0h3.3c1.4,0,2.6-1.1,2.6-2.6 c0,0,0,0,0,0v-2.1c0-1.4,1.2-2.6,2.6-2.6h3.3c1.4,0,2.6,1.2,2.6,2.6v2.1c0,1.4,1.1,2.6,2.6,2.6c0,0,0,0,0,0h3.3 c1.4,0,2.6-1.1,2.6-2.6c0,0,0,0,0,0v-2.1c0-1.4,1.2-2.6,2.6-2.6h3.3c1.4,0,2.6,1.2,2.6,2.6v2.1c0,1.4,1.1,2.6,2.6,2.6h3.3 c1.4,0,2.6-1.1,2.6-2.6c0,0,0,0,0,0v-2.1c0-1.4,1.2-2.6,2.6-2.6h1.1c0.8,0,1.5,0.3,2.1,0.7l3.2,2.5l0.1,0.1c-0.8,2.4,0,5,2,6.5 l0.5,0.4C103.4,99.4,102.4,100.4,101.4,101.3z M109.1,95.1c-0.8,1-2.2,1.2-3.3,0.5c0,0,0,0,0,0c-1-0.8-1.2-2.3-0.5-3.3c0,0,0,0,0,0 l1.9-2.5c0.8-1,2.2-1.2,3.3-0.5c0,0,0,0,0,0c0.5,0.4,0.8,0.9,0.9,1.6s-0.1,1.3-0.5,1.8L109.1,95.1z M118.7,99.2l-1.2,1.5 c-0.9,1.2-2.6,1.4-3.7,0.5l-1.7-1.2c-1.2-0.9-1.4-2.6-0.5-3.7l1.2-1.5c0.9-1.2,2.6-1.4,3.7-0.5l1.7,1.3 C119.3,96.4,119.6,98,118.7,99.2z"/>
    <path d="M44.2,61c3.7,0,7-4.3,7-11.5S47.9,38,44.2,38c-3.7,0-7,4.3-7,11.5S40.6,61,44.2,61z M41.2,44.2 c0.7-1.4,2.4-2.1,3.8-1.4c0.9,0.8,1.1,2.1,0.6,3.2c-0.7,1.4-2.4,2.1-3.8,1.4C41,46.6,40.7,45.3,41.2,44.2z"/>
    <path d="M83.8,61c3.7,0,7-4.3,7-11.5S87.5,38,83.8,38c-3.7,0-7,4.3-7,11.5S80.1,61,83.8,61z M79.4,44.2 c0.7-1.4,2.4-2.1,3.8-1.4h0c0.9,0.8,1.1,2.1,0.6,3.2c-0.7,1.4-2.4,2.1-3.8,1.4C79.2,46.6,78.9,45.3,79.4,44.2z"/>
  </g>
</svg>