<svg viewBox="0 0 128 128" xmlns="http://www.w3.org/2000/svg">
  <g>
    <path d="M113.37,68.94c-0.49-10.9-0.36-31.17-0.59-42.09c0.01-0.81-0.02-1.8-0.77-2.28c-1.06-0.61-2.38-0.44-3.55-0.37 c-5.25,0.51-10.55,0.49-15.83,0.28c-2.95,0.03-5.97-0.6-8.9-0.23c-0.69,0.15-1.22,0.72-1.31,1.42c-0.12,2.37,0.13,4.63,0.16,7.16 c0,0-0.01,0-0.01,0c0.12,3.11,0.21,6.24,0.31,9.37c-0.01,0-0.01,0-0.02,0c0.03,1.25,0.11,3.76,0.14,5.01c0,0,0.01,0,0.01,0 c-0.1,7.4,0.94,15.58-0.48,22.73C77.12,78.5,68.83,86.9,62.48,94.33c-4.13,4.91-5.26,5.03-7.12,9.1c0,0-0.01,0-0.01,0 c-0.29,0.71-0.55,1.47-0.75,2.24c-1.31,4.58-0.53,9.84,2.59,13.54c0,0,0,0.01,0,0.01c2.83,3.54,7.47,5.36,11.95,4.64 c2.93-0.43,5.88-1.54,8.1-3.54c1.51-1.47,7.69-7.24,13.63-12.75c8.11-7.26,10.54-10.36,14.36-12.52c2.96-1.83,5.91-1.96,9.05-4.6 C121.21,85.11,115.51,75.01,113.37,68.94z M85.4,27.13c8.37,0.53,16.49,0.73,24.38,0c0.01,1.49,0.05,4.36,0.06,5.85 c-8.6,1.24-17.26,1.28-24.23,0.36C85.54,31.31,85.45,29.11,85.4,27.13z M85.77,38.36c7.77,0.88,16.05,0.7,24.13-0.38 c0.01,1.05,0.03,3.18,0.04,4.23c-8.44,1.22-17.04,1.28-24.04,0.44C85.86,41.23,85.81,39.8,85.77,38.36z M99.97,77.07 c-4.2,2.12,2.66,11.93,3.84,15.35c-5.06,2.47-25.43,23.61-30.17,26.82c-2-6.55-8.39-13.74-15.23-15.23c0.94-2.08,2.42-3.22,4-5.1 C72.8,86.76,80.48,79.64,85.58,70.43c1.12-6.4,0.52-13.16,0.45-22.81c7.74,0.85,15.93,0.65,23.97-0.42 c0.31,6.45-0.35,17.17,0.65,23.47C107.55,72.79,103.21,75.43,99.97,77.07z"/>
    <path d="M67.73,48.83c-0.51-12.26-0.32-29.48-0.59-41.71c-0.01-0.92,0.1-2.09-0.77-2.66c-1.06-0.61-2.38-0.44-3.55-0.37 C55.01,4.86,47.15,4.42,39.32,4c-1.58-0.04-2.72,0.64-2.58,2.37c0.15,5.15,0.36,10.45,0.51,15.73c0,0-0.01,0-0.01,0 c0.11,8.24,0.86,20.49-0.15,27.29c-2.4,6.33-24.84,28.24-27.37,33.93c0,0-0.01,0-0.01,0c-0.29,0.71-0.55,1.47-0.75,2.24 c-1.31,4.58-0.53,9.84,2.59,13.54c0,0,0,0.01,0,0.01c1.92,2.32,4.59,4.05,7.58,4.57c0.02,0.01,0.05,0.01,0.07,0.02 c7.95,1.25,12.54-3.37,17.79-8.57c5.59-5.2,15.77-14.73,20.43-18.82c1.91-1.38,3.91-2.37,6.28-3.23 C76.64,68.53,71.35,58.01,67.73,48.83z M64.3,22.1c-8.44,1.22-17.04,1.28-24.04,0.43c-0.04-1.41-0.09-2.84-0.13-4.28 c7.77,0.88,16.05,0.7,24.13-0.38C64.27,18.92,64.29,21.05,64.3,22.1z M39.76,7.02c8.37,0.53,16.49,0.73,24.38,0 c0.01,1.49,0.05,4.36,0.06,5.85c-8.6,1.24-17.26,1.28-24.23,0.36C39.9,11.2,39.81,9,39.76,7.02z M54.33,56.96 c-4.2,2.12,2.66,11.93,3.84,15.35C53.11,74.78,32.74,95.92,28,99.13c-2-6.55-8.39-13.74-15.23-15.23c0.97-2.13,2.51-3.3,4.13-5.25 c10.33-12.09,17.98-19.16,23.04-28.33c1.12-6.4,0.52-13.16,0.45-22.81c7.74,0.85,15.93,0.66,23.97-0.42l0.11,10.2 c0.11,2.36-0.16,11.11,0.54,13.26C61.91,52.68,57.57,55.32,54.33,56.96z"/>
  </g>
</svg>