<svg viewBox="0 0 128 128" xmlns="http://www.w3.org/2000/svg">
  <g>
    <path d="M26.72,45.83c2.73,2.24,5.49,4.77,8.83,7.01c2.71-1.9,5.41-3.81,8.04-5.69c0,0,0,0,0,0c0.93-0.66,1.82-1.3,2.67-1.91 c-3.91-2.46-6.94-5.04-8.65-6.61C34.54,40.55,30.3,43.41,26.72,45.83C26.72,45.83,26.72,45.83,26.72,45.83z M35.54,50.4 c-1.73-1.21-2.56-2-4.01-3.17c3.78-2.92,5.88-4.42,10.26-1.26C39.82,47.39,37.69,48.89,35.54,50.4z"/>
    <path d="M42.26,35.71c2.52,2.44,5.38,4.44,8.49,6.27c3-2.17,6.15-4.41,9.21-6.58c-3.36-2.13-6.7-4.47-8.83-5.99 C48.36,31.45,42.38,35.62,42.26,35.71z M50.67,39.57c-1.52-0.95-2.38-1.38-3.92-2.63c3.53-2.83,4.96-3.36,8.51-0.66 C53.68,37.41,52.13,38.52,50.67,39.57z"/>
    <path d="M63.11,21.72c-3.45,0.31-5.24,2.95-8.14,4.83c2.51,2.01,5.74,4.1,9.03,6c1.91-1.35,3.83-2.68,5.71-4c0,0,0,0,0,0 c1.12-0.78,2.25-1.57,3.27-2.28c-2.58-1.49-5.49-3.15-6.57-3.75C65.43,21.93,64.27,21.64,63.11,21.72z M63.9,30.17 c-1.49-0.89-2.83-1.74-4.02-2.53c2.21-2.28,5.68-2.02,8.1-0.32C67.5,27.66,64.8,29.54,63.9,30.17z"/>
    <path d="M67.95,34.91c3.29,1.97,6.93,4.17,10.24,6.15c3.2-2.35,6.12-4.45,8.81-6.41c-4.59-2.78-8.76-5.28-10.09-6.08 C75.08,29.86,71.82,32.15,67.95,34.91C67.95,34.91,67.95,34.91,67.95,34.91z M78.08,38.66c-1.57-0.94-3.19-1.92-4.78-2.88 c3.82-2.53,5.25-2.78,8.85-0.09C82.15,35.7,79.09,37.93,78.08,38.66z"/>
    <path d="M113.73,51.38c-0.35-1.01-1.29-1.63-2.14-2.23c-2.06-1.33-4.46-2.44-6.83-3.75c0,0,0,0,0,0h-0.01 c-1.57,1.24-4.72,3.73-8.43,6.67c3.28,2.02,8.16,5.02,10.72,6.59C109.87,56.08,114.37,54.01,113.73,51.38z M101.7,53.03 c3.17-2.68,5.53-2.17,8.76,0.36c-1.23,0.99-1.93,1.54-3.56,2.83L101.7,53.03z"/>
    <path d="M48.95,81.18c1.88-0.89,7.6-4.78,10.84-7.08c-2.62-1.55-6.33-3.82-10.11-6.18c-4.15,3.08-8.01,5.97-10.16,7.57c0,0,0,0,0,0 c0,0,0,0,0,0C41.02,76.4,47.4,80.25,48.95,81.18z M49,78.88c-1.23-0.74-2.44-1.48-3.72-2.24c3.25-2.86,6.32-4.55,10.01-1.84 C52.6,76.64,50.42,78.05,49,78.88z"/>
    <path d="M35.4,58.67c-4.36,3.16-8.15,5.89-10.3,7.43c0,0,0,0,0,0c0,0,0,0,0,0c1.43,0.98,7.94,5.32,9.59,6.38 c1.67-1.02,7.39-5.05,10.56-7.36C41.08,62.47,37.32,60.02,35.4,58.67z M40.56,66.02c-2.5,1.77-4.52,3.18-5.87,4.08 c-1.13-0.73-2.28-1.49-3.44-2.26C34.25,65.1,36.81,63.58,40.56,66.02z"/>
    <path d="M58.25,86.79C58.25,86.78,58.25,86.78,58.25,86.79c6.16,4.34,7.95,2.01,14.01-2.34c0,0,0,0,0,0 c0.84-0.61,1.75-1.26,2.71-1.96c-2.31-1.28-7.21-4.01-10.64-5.86h-0.01c-3.89,2.76-7.72,5.4-10.65,7.41 C54.72,84.67,57.74,86.48,58.25,86.79z M65.99,86.43c-2.18,1.59-4.32,0.14-6.24-1.07c4.11-3.68,5.19-4.96,10.57-1.97 C68.47,84.7,66.73,85.94,65.99,86.43z"/>
    <path d="M90.96,37.05c-1.77,1.35-4.95,3.76-8.6,6.51c3.62,2.19,5.82,3.51,9.8,5.96c2.95-2.29,6.02-4.67,8.45-6.55 C97.94,41.29,94.09,38.94,90.96,37.05C90.96,37.05,90.96,37.05,90.96,37.05C90.96,37.05,90.96,37.05,90.96,37.05z M92.03,47.09 c-1.35-0.83-2.45-1.5-3.63-2.22c2.71-1.86,4.43-2.43,7.24-0.58C94.76,44.98,92.03,47.09,92.03,47.09z"/>
    <path d="M15.35,59.5c1.88,1.19,3.45,2.21,5.48,3.65c2.08-1.45,7.3-5.1,10.62-7.43c0,0,0,0,0,0c0,0,0,0,0,0 c-3.22-2.48-6.88-5.45-8.9-7.1c0,0,0,0,0,0c0,0,0,0,0,0C19.22,51.39,7.59,55,15.35,59.5C15.35,59.5,15.35,59.5,15.35,59.5 C15.35,59.5,15.35,59.5,15.35,59.5z M17,58.18c3.6-2.79,5.9-3.91,9.76-1.62c-2.34,1.64-4.41,3.08-5.94,4.15 C19.81,59.99,17.2,58.31,17,58.18z"/>
    <path d="M125.03,58.85c-0.25-0.62-0.66-0.87-0.93-0.97c0.43-3.42-0.83-5.99-3.72-7.98c-2.89-2.08-17.37-10.76-26.68-16.21 c-8.48-4.9-21.25-13.9-26.57-15.43c-2.66-0.79-5.53-0.69-8.11,0.24h-0.01c-5.26,2.07-14.61,9.51-25.7,16.72 c-8.69,5.82-23.14,14.86-25.14,16.86c-3.55,3.55-3.84,8.73-3.84,8.73c-2.61,0.41-2.51,4.06-0.06,6.28 c0.03,5.26,0.39,6.57,5.03,10.03c2.96,2.15,50.29,33.42,53.03,34.74c1.36,0.66,3.14,1.09,4.59,1.13c0,0,0-0.03,0-0.06 c0.72-0.08,1.37-0.28,2.04-0.61c1.93-0.99,38.03-31,41.81-34.21c5.83-5.24,11.85-7.4,12.63-14.94 C124.84,62.2,125.51,60.01,125.03,58.85z M120.22,67.13c-1.75,2.73-7.59,6.71-10.74,9.46c-3.93,3.32-20.18,16.49-24.92,20.44 c-4.12,3.41-14.44,12.34-16.5,13.51c-0.57,0.28-1.07,0.43-1.64,0.41c-0.13,0-0.34-0.03-0.33-0.03 c-6.94-2.18-53.96-34.22-55.61-35.42c-2.83-2.05-3.49-3.03-3.97-4.59c-0.06-0.2-0.15-0.7-0.2-1.86c8.08,6.8,44.85,29.8,52.37,34.49 c2.65,1.68,6.69,5.12,8.27,4.73c10.96-7.51,40.28-32.68,53.98-43.11C120.7,66.03,120.46,66.73,120.22,67.13z M121.97,59.3 c-9.23,7.37-53.54,43.27-55.31,43.27c-1.77,0-54.02-32.34-60.32-39.54c-0.05-3.46,0.22-6.47,3.28-9.57 c1.13-1.19,8.74-6.11,14.84-10.06c9.67-6.33,28.21-18.93,28.21-18.92c5.28-3.45,7.55-5.72,13.91-4.3 c3.26,0.94,10.32,5.4,16.54,9.34c10.36,6.8,31.21,18.1,36.65,22.59C122.14,53.81,122.54,55.69,121.97,59.3z"/>
    <path d="M98.33,58.52c-1.83-1.2-3.77-2.48-5.57-3.64c-2.68,2.13-5.47,4.33-8.08,6.41c-0.19-1.03-2.31-2.15-3.86-2.9 c2.5-1.96,5.26-4.13,7.82-6.12c-2.62-1.62-6.2-3.76-9.93-5.95c-1.64,1.24-3.3,2.49-4.92,3.71c-1.96-1.18-2.45-1.6-4.18-2.68 c1.6-1.18,3.26-2.4,4.82-3.54c-4.04-2.37-7.8-4.51-10.49-6.03h-0.01c-3.04,2.2-6.22,4.49-9.26,6.74c1.19,0.78,2.58,1.69,3.87,2.53 c0,0.01-0.01,0.01-0.01,0.01c-1.39,1-2.74,2.06-4.13,3.05c-1.45-0.88-2.81-1.7-4.01-2.42c-3.47,2.59-7.2,5.31-10.73,7.89 c1.74,1.14,3.7,2.43,5.54,3.6c-3.62,2.8,0.38,4.63,3.46,6.73c1.84,1.38,12.93,7.97,14.16,8.7c1.23,0.73,3.94,1.17,5.41-0.22 c0.19-0.18,0.6-0.5,1.17-0.92c3.26,1.76,8.47,4.52,10.38,5.53c3.33-2.41,6.71-4.9,10.03-7.32c-2.56-1.76-6.54-4.38-9.54-6.07 c1.66-1.26,3.05-2.38,3.8-3.16c3.29,1.88,8.97,5.07,10.34,5.84c2.93-2.16,5.91-4.4,8.74-6.59 C101.85,60.84,100.15,59.72,98.33,58.52z M80.21,51.99c0.97-0.05,2.38,0.75,3.55,1.55c-1.11,0.87-2.19,1.71-3.24,2.54 c-0.05-0.88-0.38-1.78-1.02-2.4c-0.12-0.11-0.98-0.7-1.3-0.9C78.8,52.37,79.5,52.03,80.21,51.99z M63.96,43.5 c1.47,0.05,3.51,0.95,5.1,1.77c-0.45,0.33-0.9,0.66-1.35,0.99c-1.67-0.83-3.27-1.66-4.8-1.58c-0.93,0.19-1.76,0.68-2.57,1.16 c-0.29-0.19-0.56-0.37-0.83-0.54C60.98,44.33,62.69,43.45,63.96,43.5z M55.46,51.82c2.02-1.4,6.02-4.76,7.75-5.17 c3.52,0.68,7.3,3.86,11.19,6.12c1.94,1.24,3.55,2.06,3.98,2.82c0.73,1.3-0.07,2.94-0.92,3.75c-6.61,6.24-11.65,9.58-13.2,10.38 c0,0-6-2.78-16.62-10.06c-0.61-0.41-0.93-1.4-0.17-2.14C48.71,56.43,53.44,53.26,55.46,51.82z M84.65,72.97 c-1.61,1.19-3.29,2.41-5.04,3.68c-1.53-0.81-3.67-1.94-6.08-3.23C78.03,69.79,79.94,69.61,84.65,72.97z M94.26,65.91 c-1.46-0.82-3.71-2.08-6.31-3.56c4.83-3.81,5.83-3.16,10.73,0.25C97.53,63.48,94.26,65.91,94.26,65.91z"/>
  </g>
</svg>