<svg viewBox="0 0 128 128" xmlns="http://www.w3.org/2000/svg">
  <g>
    <path d="M104,21.4C93.4,12.1,79.1,7,63.6,7c-27.9,0-58,17.5-58,55.9c0,38.4,30.1,55.9,58,55.9 c15.4,0,29.8-5.2,40.4-14.5c11.5-10.2,17.6-24.5,17.6-41.4C121.6,46,115.5,31.6,104,21.4z M101.4,101.3 c-9.9,8.7-23.3,13.5-37.8,13.5c-13.8,0-27.3-4.6-36.9-12.6C15.5,92.9,9.6,79.3,9.6,62.9c0-16.4,5.9-30,17.1-39.3 c9.6-8,23.1-12.6,36.9-12.6c14.5,0,27.9,4.8,37.7,13.4c10.6,9.4,16.3,22.7,16.3,38.5C117.6,78.6,112,91.9,101.4,101.3z"/>
    <path d="M44,59.8c4.2,0,8-3.5,8-9.4s-3.8-9.4-8-9.4c-4.2,0-8,3.5-8,9.4S39.8,59.8,44,59.8z M39.8,46.2 c0.7-1.4,2.4-2,3.8-1.3c0.9,0.9,1.1,2.2,0.6,3.3c-0.7,1.4-2.4,2-3.8,1.3C39.5,48.7,39.3,47.3,39.8,46.2z"/>
    <path d="M82.4,40.9c-4.2,0-8,3.5-8,9.4s3.8,9.4,8,9.4s8-3.5,8-9.4S86.6,40.9,82.4,40.9z M82.6,48.2 c-0.7,1.4-2.4,2-3.8,1.3c-0.9-0.9-1.1-2.2-0.6-3.3c0.7-1.4,2.4-2,3.8-1.3C82.9,45.7,83.1,47.1,82.6,48.2z"/>
    <path d="M85.6,78.1c-0.3,0-0.6,0.1-0.9,0.2c-4.8,2.8-12.9,6.2-21.5,6.2H63c-6.9,0-13.4-2.2-18.2-4.5 c-0.5-1.3-1.1-2.7-1.8-4.2c-1.7-3.9-3.4-7.7-4.9-10.8c-0.1-0.3-0.4-0.5-0.7-0.7c-0.7-0.3-1.5,0-1.9,0.7c-1.8,3.4-3.4,7-4.8,10.6 c-0.4,1-0.8,1.9-1.1,2.8c-2.4,6.1-4.1,10.5-4.1,14.3c0,5.4,5,11.7,11.5,11.7c6.4,0,11.5-6.3,11.4-11.6c0-1.6-0.2-3.2-0.8-5.1 c4.7,2.5,9.9,3.9,15.4,3.8h0.1c9.1,0.1,17.8-3.7,23.8-10.5c0.5-0.5,0.6-1.3,0.3-1.9C86.9,78.6,86.3,78.1,85.6,78.1z M44,97.3 c-1.5,2.3-4.8,1.8-4.8-1.9c0-2.4,0.5-14.8,2.6-13.1C45.2,85.1,46.1,94.1,44,97.3z"/>
  </g>
</svg>