<svg viewBox="0 0 128 128" xmlns="http://www.w3.org/2000/svg">
  <g>
    <path d="M115.11,39.3c-1.77-2.99-5.78-3.61-8.31-6c-1.77-1.67-7.52-6.75-10.95-10.88c-1.45-1.75-2.72-2.89-3.69-3.64 c2.35-1.54,3.36-4.07,2.18-6.09c-0.61-1.04-2.04,0.95-5.92,1.43c-1.35,0.17-3.55-0.75-3.55-0.75s1.8-1.49,1.8-5.05 c0-2.73-2.46-5.07-4.45-4.71c-0.48,0.09,0.31,3.84-1.88,5.9c-1,0.94-2.64,1.35-4.91,0.92c-3.02-2.97-9.47-7.74-19-6.69 C36.14,6.8,37.88,29.13,39.04,43.9c-7.19-1.97-13.45,4.69-15.34,10.79c-3.17,0.42-8.01,2.1-10.47,8.17 c-3.34,8.25-0.74,14,0.93,18.27c1.13,2.9,2.31,7.92,3.06,8.07c0.93,0.19,6.12-5.38,10.2-10.2c5.55-6.16,7.47-14.73,1.35-22.3 c0.63-3.37,6.67-9.63,11.26-6.29c1.68,8.21,4.08,17.88,6.01,32.51c1.39,10.49,1.5,19.52,1.11,23.64 c-0.56,5.93-2.32,15.48-2.32,15.48s1.11,2.41,4.91,2.32c2.42-0.06,3.15-1.76,3.15-1.76s1.95-9.55,1.58-25.22 c-0.2-8.56-1.54-18.16-3.03-26.38c2.73-4.43,7.79-4.51,9.92,0.39c0.74,1.67,0.56,2.5,0,4.27c-0.56,1.77-1.68,4.8-0.56,8.53 c1.11,3.71,4.91,8.16,7.32,10.29c2.41,2.13,7.97,6.4,8.81,6.12c0.83-0.28,1.21-9.74,0.74-15.02c-0.46-5.29-2.5-9.83-6.12-11.87 c-3.62-2.04-4.08-1.58-5.01-2.69c-0.93-1.11-2.41-7.05-9.27-8.16c-2.8-0.45-5.48,0.49-7.13,1.39c-2.74-13.6-8.8-32.27-2.53-47.35 c5.96-10.7,18.08-7.01,22.18-3.03c0,0.03,0.01,0.07,0.01,0.11c0,0.04-0.01,3.58-3.47,4.83c-2.45,0.88-5.1,0.27-5.51,0.61 c-0.84,0.7,0.07,2.93,2.38,3.54c1.6,0.42,3.74,0.14,3.74,0.14s-0.95,2.11-2.24,2.93c-1.29,0.82-2.99,1.2-2.86,1.77 c0.44,1.88,3.21,2.07,5.61,1.54c0.39,5.83,2.74,13.65,2.13,19.17c-0.53,4.86-1.95,12.17,2.07,15.47c3.6,2.95,5.52,1.65,5.82,1.42 c1.06,2.43,4.04,4.19,6.64,3.08c1.8,1.63,5.94-0.43,6.78-3.23c5.17,2.23,13.96-2.5,14.04-8.12c5.28,0.09,8.44-6.19,7.49-10.19 C115.88,45.7,116.85,42.17,115.11,39.3z M95.86,61.72l-4.18-0.2c0.1-0.99,0.18-2.06,0.22-2.84c1.46,1.53,7.01-0.12,7.19-0.16 C99.09,58.78,97.92,61.06,95.86,61.72z M109.4,52.55c-1.25,1.94-3.11,2.42-4.11,2.54c0.17-1.47,0.13-2.63-0.02-3.19 c2.05-6.05-12.87,1.2-16.24-1.24c-2.4-0.68-4.66-2.54-5.5-0.27c-1.45,3.22,2.37,5.08,3.75,6.22c-0.25,1.43-1.2,8.33-3.36,9.69 c-3.42,2.25-5.25-2.92-6.08-5.17c1.2-3.24,3.13-4.05,4.13-10.07c0.95-5.51-0.57-8.85-0.14-9.39c0.43-0.54,1.27-0.03,2.5,0.62 c1.23,0.64,6.99,4.2,11.65,5.3c4.47,1.06,10.7,0.74,14.49-0.09C110.59,48.75,110.55,50.77,109.4,52.55z"/>
    <path d="M107.72,69.63c-2.32-1.76-4.7-0.92-4.36,0.1c0.33,0.99,1.15,4.15,0.93,8.99c-0.18,3.87-3.12,6.17-3.71,7.97 c-0.45,1.37,9.86,2.35,11.27-6.03C112.95,74.09,109.34,70.86,107.72,69.63z"/>
    <path d="M100.57,109.41c-0.61-1.54-1.3-4.27-3.71-6.68c-2.41-2.41-6.12-2.5-7.88-3.71c-1.76-1.2-2.03-3.05-3.43-2.96 c-1.95,0.13-2.04,4.54-1.11,7.51c0.93,2.97,4.54,10.2,11.4,11.78c6.86,1.58,9.09-0.46,9.18-1.58 C105.11,112.65,101.59,112.01,100.57,109.41z"/>
  </g>
</svg>