<svg viewBox="0 0 128 128" xmlns="http://www.w3.org/2000/svg">
  <path d="M114.45,31.49c0.22-1.36-0.49-3.41,0.29-4.78c1.02-1.81,2.84-4.02,0.63-5.52c-2.31-1.66-7.47-2.38-9.01,0.48 c-0.84-9.17-11.2-17.25-28.15-16.59C63.82,5.35,49.2,16.13,42.02,20.44c-4.68,2.8-10.82,5.2-16.83,6.94c-5,1.44-7.48,0.67-7.61,3.07 c-0.09,1.6,6.29,1.85,10.03,2.38c1.82,0.26,8.1,0.93,16.27,1.38c-6.9,7.1-12.13,15.62-16.8,24.3c-0.01,0.01-0.01,0.01-0.01,0.02 c-2.32,4.21-4.06,7.92-6.53,11.84c-4.3,6.71-9,11.24-11.42,13.09c-2.33,1.95-4.45,2.82-5.09,5.97c-0.68,6.74,3.51,13.81,8.04,18.72 c14.67,15.99,47.11,20.42,69.52,8.85C113.83,101.76,138.09,62.35,114.45,31.49z M60.65,23.29c12.05-5.45,29.66-9.79,39.23-3.25 c-3.05-0.12-8.19-0.27-13.69,0.35c-9.6,1.1-17.88,3.91-27.66,3.65C59.28,23.81,60,23.56,60.65,23.29z M118.41,69.2 c-6.48,29.03-42.48,54.63-72.42,50c-23.64-3.29-36.98-14.77-38.04-28.98c0.17-0.86,0.26-1,2.3-2.57c2.82-2.16,7.08-5.43,13.07-14.23 c7.57-12.18,13.45-27.62,26.06-38.95c18.62,1.07,39.6-0.81,50.37-8.4c0.95,0.39,1.89,0.8,2.78,1.26c1.56,3.07,4.34,5.21,7.86,5.66 C119.11,41.87,121.55,55.11,118.41,69.2z"/>
</svg>