<svg viewBox="0 0 128 128" xmlns="http://www.w3.org/2000/svg">
  <path d="M117.7,10.5c-16.2-17.7-38.1,13-38.3,13.2c0.1,0.1,0.3,0.1,0.4,0.2C66.9,34.9,28.5,68.6,12.6,94 c-0.3,0.4-0.7,1-1.1,1.7c-3.3,4.7-10.3,14.6-4.4,22.2c2.5,3.2,5.9,5.1,9.6,5.2c2.7,0.1,5.3-0.7,7.6-2.2c0.1-0.1,0.2-0.2,0.4-0.3 c15.8-8.2,37-28,52-43.2c8.6-8.7,16-16.8,20.7-22c2.8-3.1,4.9-5.5,6.1-6.9c0.1-0.1,0.2-0.3,0.3-0.4c0.4,0.5,0.6,0.7,0.6,0.7 s8.2-8.3,14.9-16.8C124.6,25.2,125.2,18.7,117.7,10.5z M16.8,118c-2.3-0.1-4.4-1.2-5.6-3c-1-1.5-1.3-3.4-0.9-5.3 c0.5-1.9,1.7-3.6,3.4-4.8c1.4-0.9,3-1.4,4.7-1.4c2.3,0.1,4.4,1.1,5.6,3c1,1.5,1.3,3.4,0.9,5.3c-0.4,1.9-1.6,3.6-3.4,4.8 C20.1,117.6,18.5,118.1,16.8,118z M101.9,30.4c-4.6,3.6-3.6,8.6-1.6,12.5C96.8,49,57.6,91.3,30,110.5c0.1-2.4-0.6-4.7-1.9-6.7 c-2.1-3.1-5.7-5.1-9.6-5.2c-0.5,0-1.1,0-1.6,0c15-25.2,57.5-62.2,68.2-71.3c12.6,4.8,23-5.3,23-5.3l-5.8-4.8c0.1,0,0.1-0.1,0.2-0.1 c4.6-3.1,5.2-1.6,8,1.8C113.2,22.4,110.5,23.7,101.9,30.4z"/>
</svg>