<svg viewBox="0 0 128 128" xmlns="http://www.w3.org/2000/svg">
  <g>
    <path d="M119.2,90.4c0,0,4.4-3,4.1-3.8c-0.3-0.8-2.4-1.2-4.8-2.2c-0.3-0.1-0.5-0.2-0.8-0.3c-0.1-0.3-0.3-0.7-0.4-1.1 c-0.1-0.3-0.3-0.6-0.4-1l0,0c-1.6-3.9-4.5-10.8-6.2-14.9c-2.5-6-6.6-14.4-6.6-14.4s2.2-6.1,3.2-13.4c0.6-4.6,0.6-7.4,0.5-8.9 c-0.1-2.2-0.5-7-1.6-11.4c-1.5-6-3.5-10-5.9-10.7c-1.5-0.4-6.5,2.2-10,5.5c-3.5,3.4-7,8-7,8s0,0,0.1,0c-1,1.2-2.1,2.7-3.1,4.7 c-2.8,5.2-3.8,7.3-3.8,7.3s-7.2-0.6-10.4-0.6c-3.2,0-8.6,0.7-8.6,0.7s-5.1-9.3-7.7-12.5c-0.2-0.3-0.5-0.6-0.7-0.8 c-0.5-0.5-3.7-4.1-7.4-7.4c-3.5-3.1-8.2-6.1-10-5.6c-2,0.6-4.4,5.2-6.6,12.8c-1.1,4-2,11.4-2,11.4s0,0,0,0c-0.8,6.5,0,11.1,0.6,14 c0.6,3,2.2,7.2,2.2,7.2s-1.7,2.5-3.9,8.3c-2.2,5.8-4.8,12.8-6.6,15.8c-0.9,1.5-2.6,3.9-4,5.9c-0.4,0.6-0.8,1.2-1.2,1.7 c-0.2,0.2-0.3,0.5-0.5,0.7c-2.5,0.9-5.1,1.5-5,2.1c0.2,0.9,5.2,3.9,5.2,3.9s-5.2,0.6-5.4,1.3c-0.4,1.4,14.8,9.1,23.2,12.3 c6.4,2.5,18,6.6,22.3,7.8c1.8,3.5,5.8,6.5,14.1,7c0.5,0,0.9,0,1.4,0c6.5,0,10.4-2.3,12.6-5.5c0,0,0,0,0-0.1 c3.7-0.9,13.4-4.5,16.1-5.9c5.8-3,21.6-11.1,23.8-12.5c2.2-1.4,5.5-3.3,5.3-4.1C123.4,91.1,119.2,90.4,119.2,90.4z M91.3,23 c2.7-4.3,6.6-8.6,7.6-8.5c1,0.2,5.1,9.7,3.8,18.3c-1.3,8.6-3,13.6-3.5,13.7c-0.3,0-3-3.2-6.5-5.9c-2.9-2.2-6.5-3.8-6.6-4.2 C85.9,35.5,88.5,27.3,91.3,23z M75.1,70.8c0.5-3.7,3.1-5.4,5.9-5.4c0.4,0,0.9,0,1.3,0.1c3.1,0.7,4.8,4.1,3.4,8.2 c-0.9,2.7-3.2,5.6-6,5.6c-0.3,0-0.5,0-0.8-0.1C75.7,78.6,74.5,75.4,75.1,70.8z M53.6,71.2c0.6,3.1,0.3,6.7-2.8,7.7 c-0.6,0.2-1.3,0.3-1.9,0.3c-2.6,0-5.1-1.6-6.1-5.2c-1.3-4.9,0.7-7.2,3.8-8.2c0.5-0.2,1-0.2,1.5-0.2C50.6,65.6,52.9,67.7,53.6,71.2z M33.7,16.5c0.7-0.4,3.6,0.9,7.8,6.4c4.2,5.5,7.4,12.1,7.1,12.7c-0.1,0.3-5.1,1.8-9,4.5c-3.9,2.7-7.5,7-7.7,7 c-0.4,0-1.9-6-2.1-13.5C29.6,23.7,33.1,16.9,33.7,16.5z M28.4,103.1C22,100.6,13,96.1,8.7,93.5c0.5-0.1,1-0.1,1.4-0.2 c0.9-0.1,1.6-0.7,1.7-1.6c0.2-0.8-0.2-1.7-0.9-2.1c-0.9-0.5-1.8-1.1-2.6-1.7c0.7-0.2,1.4-0.4,2.1-0.7c0.4-0.1,0.7-0.4,0.9-0.7 c0.5-0.7,1.2-1.7,1.9-2.7c3.1-1.3,8.1-2.8,15-1.9c8.6,1,13,3.6,19.2,7.8c1.7,1.2,3.2,2.8,4.4,4.5c0,0,0,0,0,0c0,0-2.5,3.4-3,8 c-0.2,1.9-0.6,5,0.3,8.1C44.1,108.8,34.2,105.3,28.4,103.1z M64.2,117.7c-5.3-0.3-9.1-1.7-11.3-4.2c-2.9-3.4-2.4-8.2-2.1-10.9 l0-0.2c0.3-2.9,1.6-5.3,2.2-6.4c1.4,2.3,2.3,4.6,2.8,6.1c-0.3,0.5-0.5,1.1-0.5,1.9c0.3,3.5,1.9,6.8,7.2,7.5c-1.4,1-3.1,2.1-3.6,2.1 c-0.5,0-2.2-1.5-3.6-2.8c-0.9-0.8-1.8-1.5-2.8-0.3c-0.8,0.9,1.3,3,2.2,4c1,1,3.1,2.3,4.4,2.5c1.5,0.1,5.3-3.1,5.3-3.1 s3.3,3,5.5,3.4c-1.3,0.3-2.8,0.5-4.4,0.5C65.1,117.7,64.7,117.7,64.2,117.7z M76.3,113.4c-0.8,1.1-1.9,2-3.2,2.7 c1.3-1,2.4-2.2,2.9-2.8c0.6-0.6,1.7-1.8,0.8-2.8c-0.8-0.9-1.9,0-2.9,0.8c-2,1.8-3.4,3.2-3.7,3.2c-0.3,0-2.2-1.6-3.7-3 c5.9-0.6,7.5-4.1,7.6-7.6c0-1-0.1-1.9-1.1-2.7c0.9-1.8,2-3.8,3.1-5.5l0.1,0.1c0.3,0.6,0.9,1.9,1.7,4.8 C79.1,104.3,79,109.7,76.3,113.4z M117.9,93.5c-0.3,0.2-0.6,0.4-0.9,0.5c-1.9,1.2-14.2,7.5-20.8,10.9l-2.9,1.5 c-2.3,1.2-9.7,4-13.9,5.3c1.7-4,1.4-8.7,0.5-11.5c-1.8-6.1-2.5-6.1-2.5-6.1c0,0,0,0,0,0c0.6-0.7,1.1-1.4,1.6-1.9 c3-2.9,11.2-9.4,21.7-10.3c7.2-0.7,11.4,0.3,14.5,1.3c0.3,0.7,0.5,1.3,0.7,1.8c0.2,0.5,0.6,0.9,1.1,1.1c0.3,0.1,0.5,0.2,0.8,0.3 c0.6,0.2,1.3,0.5,1.8,0.7c0.2,0.1,0.3,0.1,0.5,0.2c-0.6,0.5-1.4,1-2.1,1.6c-0.7,0.5-1,1.3-0.8,2.1s0.8,1.4,1.6,1.5 c0.2,0,0.4,0.1,0.6,0.1C119,92.9,118.4,93.3,117.9,93.5z"/>
    <path d="M43.9,93.9c-1.1-0.6-6.1-2.8-8.6-3.5c-2.5-0.8-5.4-1.8-5.6-0.4c-0.2,1.5,2.3,2.1,4.6,3.2c2.7,1.3,6,3.2,7.7,4.1 c1.8,0.9,3.5,0.6,3.9-0.3C46.4,95.5,44.9,94.5,43.9,93.9z"/>
    <path d="M36.2,98.1c-2.8-0.9-7.6-2.6-7.9-0.8c-0.2,1.4,4,2.4,6.8,3.9c2.4,1.3,6.7,3.6,7.5,1.1C43.2,100,38.9,98.9,36.2,98.1z"/>
    <path d="M98.4,92.2c1.2-0.4,2.1-0.8,1.9-1.6c-0.2-0.8-2.1-0.9-3.5-0.6c-2,0.4-5.4,1.1-8.2,2.6c-1.8,0.9-5.6,2.2-4.6,4.6 c0.8,1.8,3.4,0,6.1-1.3C93.1,94.3,97.2,92.5,98.4,92.2z"/>
    <path d="M93.6,97.8c-2.4,0.6-7.3,2-6.5,4.9c0.6,2.1,5.6-0.5,7.9-1.5c2.4-1,7.1-2.5,6.7-3.8C101.3,95.9,95.3,97.3,93.6,97.8z"/>
    <path d="M47.5,70.7c-0.5,0.5-2.1,1.5-3.2,0.1c0,0,0,0,0-0.1c-0.1,0.7,0,1.6,0.3,2.8c0.6,2.3,2.1,3.7,4.2,3.7c0.4,0,0.9-0.1,1.3-0.2 c2.2-0.7,1.7-4.3,1.5-5.4c-0.5-2.4-1.8-3.9-3.5-4C48.8,68.5,48.3,69.9,47.5,70.7z"/>
    <path d="M79.3,77.3c0.1,0,0.3,0,0.4,0c1.7,0,3.4-2.2,4.1-4.3c0.5-1.6,0.5-3.2-0.1-4.3c-0.4-0.7-1-1.1-1.8-1.3 c-0.3-0.1-0.6-0.1-0.9-0.1c-0.3,0-0.7,0-1.2,0.2c0.1,0,0.2,0.1,0.3,0.1c1,0.7,0.6,2.5-0.1,3.4c-0.4,0.5-1.8,2.1-3,1 C76.8,74.1,77.1,76.8,79.3,77.3z"/>
  </g>
</svg>