<svg viewBox="0 0 128 128" xmlns="http://www.w3.org/2000/svg">
  <g id="face">
    <path d="M63.6,120.3c-15.09,0-29.82-5.07-40.42-13.9C10.7,96,4.1,80.96,4.1,62.9c0-18.06,6.6-33.1,19.08-43.5 C33.78,10.57,48.51,5.5,63.6,5.5c15.83,0,30.53,5.25,41.39,14.77c11.85,10.51,18.11,25.25,18.11,42.63 c0,17.31-6.26,32.02-18.1,42.52C94.06,115.02,79.36,120.3,63.6,120.3z M63.6,8.5C36.39,8.5,7.1,25.52,7.1,62.9 s29.29,54.4,56.5,54.4c15.03,0,29.03-5.02,39.41-14.13c11.18-9.91,17.09-23.84,17.09-40.27c0-16.5-5.91-30.46-17.09-40.38 C92.7,13.48,78.7,8.5,63.6,8.5z"/>
  </g>
  <g id="eyes">
    <path d="M89.66,66.72c-1.1,0.92-1.3,2.49-0.45,3.51c0.85,1.02,2.43,1.09,3.53,0.17c1.1-0.92,1.3-2.49,0.45-3.51 C92.34,65.87,90.76,65.8,89.66,66.72z" fill="#FFFFFF"/>
    <path d="M85.7,47.4c-8.51,0-15.4,6.89-15.4,15.4c0,1.98,0.39,3.87,1.07,5.6c1.84,0.07,3.54,0.95,4.63,2.44 c1.06,1.36,2.77,2.04,4.48,1.79c0.24-0.02,0.47-0.02,0.71,0c1.1,0,2.19,0.3,3.13,0.87c1.48,0.9,3.35,0.9,4.83,0 c0.94-0.57,2.03-0.87,3.13-0.87h0.27c1.6,0.04,3.12-0.68,4.09-1.95c0.86-1.09,2.04-1.82,3.34-2.13c0.72-1.78,1.12-3.72,1.12-5.75 C101.1,54.29,94.21,47.4,85.7,47.4z M86.06,63.88c-3.99,2.97-9.17,2.75-11.58-0.48c-2.41-3.23-1.13-8.26,2.86-11.23 c3.99-2.97,9.17-2.75,11.58,0.48S90.05,60.91,86.06,63.88z M92.75,70.4c-1.1,0.92-2.68,0.85-3.53-0.17 c-0.85-1.02-0.65-2.59,0.45-3.51c1.1-0.92,2.68-0.85,3.53,0.17C94.05,67.9,93.85,69.47,92.75,70.4z"/>
  </g>
  <path d="M43,47.7c-9.58,0.03-17.33,7.82-17.3,17.4s7.82,17.33,17.4,17.3c9.58-0.03,17.33-7.82,17.3-17.4 C60.34,55.43,52.57,47.71,43,47.7" fill="none"/>
  <circle cx="43.3" cy="62.8" fill="none" r="15.4"/>
  <ellipse cx="37.78" cy="68.56" fill="none" rx="2.4" ry="2.6" transform="matrix(0.6429 -0.7659 0.7659 0.6429 -39.0206 53.4203)"/>
  <ellipse cx="47.29" cy="58.01" fill="none" rx="7.3" ry="9" transform="matrix(0.5971 -0.8022 0.8022 0.5971 -27.4812 61.3107)"/>
  <g>
    <path d="M80.48,72.63" fill="none" stroke="#000000" stroke-miterlimit="10"/>
    <path d="M85.95,82.9c-0.02,0-0.04,0-0.05,0c-8.27-0.03-15.57-5.9-17.36-13.97l-0.09-0.42l0.4-0.16c0.73-0.29,1.5-0.44,2.27-0.46 c0,0,0,0,0,0c0.07,0,0.13,0,0.19,0.01c2.09,0.08,3.92,1.04,5.1,2.65c0.94,1.2,2.47,1.82,4.01,1.59c0.3-0.02,0.56-0.03,0.82,0 c0,0,0.01,0,0.01,0c1.16,0,2.33,0.33,3.34,0.94c1.33,0.81,2.98,0.81,4.31,0c1.02-0.62,2.19-0.94,3.39-0.94h0.27 c1.46,0.04,2.83-0.62,3.69-1.75c0.91-1.16,2.2-1.97,3.62-2.31c0.76-0.18,1.54-0.22,2.32-0.12l0.01-0.01l0.27,0.03 c0.16,0.03,0.31,0.07,0.46,0.12l0.6,0.17l-0.09,0.45C101.71,76.94,94.37,82.9,85.95,82.9z M69.61,69.14 c1.85,7.4,8.63,12.74,16.29,12.76c0.02,0,0.03,0,0.05,0c7.78,0,14.59-5.4,16.39-12.93l-0.07-0.01c-0.72-0.12-1.46-0.09-2.17,0.07 c-1.21,0.29-2.3,0.98-3.06,1.95c-1.05,1.38-2.74,2.18-4.5,2.14h-0.26c-1.02,0-2.01,0.28-2.87,0.8c-1.65,1-3.7,1-5.35,0 c-0.86-0.52-1.85-0.8-2.87-0.8c-0.25-0.02-0.46-0.02-0.67,0c-1.86,0.28-3.75-0.49-4.92-1.98c-1.01-1.37-2.56-2.18-4.26-2.24 l-0.23-0.01C70.62,68.9,70.11,68.99,69.61,69.14z"/>
    <path d="M89.41,73.93l-0.52-0.86c1.02-0.62,2.19-0.94,3.39-0.94h0.27c1.46,0.04,2.83-0.62,3.69-1.75 c1.42-1.81,3.68-2.72,5.94-2.44l0.01-0.01l0.27,0.03c0.03,0,0.06,0.01,0.09,0.02c0.17-0.95,0.25-1.91,0.25-2.88 c0.01-4.5-1.73-8.73-4.9-11.93S90.5,48.21,86,48.2c-9.26,0.01-16.84,7.55-16.9,16.8c0,1.21,0.13,2.46,0.41,3.71l-0.98,0.22 C68.24,67.6,68.1,66.28,68.1,65c0.06-9.8,8.09-17.79,17.9-17.8c4.77,0.01,9.25,1.88,12.61,5.27s5.21,7.87,5.19,12.64 c0,1.21-0.13,2.43-0.38,3.61l-0.11,0.53l-0.69-0.2c-0.06-0.02-0.13-0.04-0.19-0.06l-0.16-0.01c-1.99-0.33-3.99,0.45-5.24,2.03 c-1.05,1.38-2.74,2.18-4.5,2.14h-0.26C91.26,73.13,90.27,73.41,89.41,73.93z"/>
  </g>
  <g id="eyebrows">
    <path d="M27.4,39.8c-2.2,0.4-2.3,3.6,0.1,3.7c5.3,0.07,10.42-1.9,14.3-5.5c1.48-1.28,2.73-2.8,3.7-4.5 c0.58-0.83,0.38-1.97-0.45-2.55s-1.97-0.38-2.55,0.45l-0.1,0.1C38.48,35.88,33.19,38.81,27.4,39.8z"/>
    <path d="M84.5,31.4c-0.58-0.83-1.72-1.03-2.55-0.45s-1.03,1.72-0.45,2.55c0.97,1.7,2.22,3.22,3.7,4.5c3.9,3.57,9.01,5.54,14.3,5.5 c2.5-0.1,2.3-3.3,0.1-3.7C93.74,38.84,88.41,35.87,84.5,31.4L84.5,31.4"/>
  </g>
  <path id="mouth" d="M64,103.2c10.8,0,17.8-7.9,19.7-11.6c0.7-1.4,0.7-2.6,0.1-3.1c-0.64-0.4-1.46-0.4-2.1,0 c-0.32,0.13-0.62,0.3-0.9,0.5c-4.9,3.52-10.77,5.44-16.8,5.5c-6.01-0.08-11.87-1.96-16.8-5.4c-0.28-0.2-0.58-0.37-0.9-0.5 c-0.64-0.4-1.46-0.4-2.1,0c-0.6,0.6-0.6,1.7,0.1,3.1C46.2,95.3,53.2,103.2,64,103.2z"/>
  <g id="eyes_00000158013761757883718740000016292490489756766909_">
    <path d="M46.75,66.87c-1.1,0.92-1.3,2.49-0.45,3.51c0.85,1.02,2.43,1.09,3.53,0.17c1.1-0.92,1.3-2.49,0.45-3.51 C49.43,66.02,47.85,65.95,46.75,66.87z" fill="#FFFFFF"/>
    <path d="M42.79,47.55c-8.51,0-15.4,6.89-15.4,15.4c0,1.98,0.39,3.87,1.07,5.6c1.84,0.07,3.54,0.95,4.63,2.44 c1.06,1.36,2.77,2.04,4.48,1.79c0.24-0.02,0.47-0.02,0.71,0c1.1,0,2.19,0.3,3.13,0.87c1.48,0.9,3.35,0.9,4.83,0 c0.94-0.57,2.03-0.87,3.13-0.87h0.27c1.6,0.04,3.12-0.68,4.09-1.95c0.86-1.09,2.04-1.82,3.34-2.13c0.72-1.78,1.12-3.72,1.12-5.75 C58.19,54.44,51.3,47.55,42.79,47.55z M43.15,64.03c-3.99,2.97-9.17,2.75-11.58-0.48c-2.41-3.23-1.13-8.26,2.86-11.23 c3.99-2.97,9.17-2.75,11.58,0.48S47.14,61.06,43.15,64.03z M49.84,70.55c-1.1,0.92-2.68,0.85-3.53-0.17 c-0.85-1.02-0.65-2.59,0.45-3.51c1.1-0.92,2.68-0.85,3.53,0.17C51.14,68.05,50.94,69.62,49.84,70.55z"/>
  </g>
  <g>
    <path d="M37.57,72.78" fill="none" stroke="#000000" stroke-miterlimit="10"/>
    <path d="M43.05,83.05c-0.02,0-0.04,0-0.06,0c-8.27-0.03-15.57-5.9-17.36-13.97l-0.09-0.42l0.4-0.16c0.74-0.29,1.5-0.44,2.27-0.46 c0.09-0.01,0.13,0,0.19,0.01c2.09,0.08,3.92,1.04,5.1,2.65c0.94,1.2,2.47,1.82,4,1.59c0.3-0.03,0.56-0.02,0.82,0 c0,0,0.01,0,0.01,0c1.16,0,2.32,0.33,3.34,0.94c1.33,0.81,2.98,0.81,4.31,0c1.02-0.62,2.19-0.94,3.39-0.94h0.27 c1.47,0.04,2.83-0.62,3.69-1.75c0.91-1.16,2.19-1.98,3.62-2.31c0.76-0.18,1.53-0.22,2.31-0.12l0.01-0.01l0.28,0.03 c0.15,0.03,0.3,0.07,0.45,0.12l0.61,0.18l-0.1,0.46C58.8,77.09,51.46,83.05,43.05,83.05z M26.7,69.29 c1.85,7.4,8.63,12.74,16.29,12.76c0.02,0,0.04,0,0.05,0c7.78,0,14.59-5.4,16.38-12.92l-0.07-0.01c-0.72-0.12-1.45-0.1-2.17,0.07 c-1.21,0.29-2.3,0.98-3.06,1.95c-1.06,1.38-2.76,2.17-4.5,2.14h-0.26c-1.02,0-2.01,0.28-2.87,0.8c-1.65,1-3.7,1-5.35,0 c-0.86-0.52-1.85-0.8-2.87-0.8c-0.25-0.02-0.46-0.02-0.67,0c-1.85,0.28-3.75-0.49-4.92-1.98c-1.01-1.37-2.56-2.18-4.26-2.24 l-0.23-0.01C27.71,69.05,27.2,69.14,26.7,69.29z"/>
    <path d="M46.5,74.08l-0.52-0.86c1.02-0.62,2.19-0.94,3.39-0.94h0.27c1.47,0.04,2.83-0.62,3.69-1.75c1.42-1.8,3.67-2.72,5.93-2.44 l0.01-0.01l0.28,0.03c0.03,0,0.06,0.01,0.08,0.02c0.17-0.95,0.25-1.91,0.25-2.88c0.03-9.29-7.51-16.87-16.8-16.9 c-9.26,0.01-16.84,7.55-16.9,16.8c0,1.21,0.13,2.46,0.41,3.71l-0.98,0.22c-0.29-1.32-0.44-2.64-0.44-3.93 c0.06-9.8,8.09-17.79,17.9-17.8c4.77,0.01,9.25,1.88,12.61,5.27c3.36,3.38,5.21,7.87,5.19,12.64c0,1.21-0.13,2.42-0.38,3.6 l-0.11,0.52l-0.7-0.2c-0.06-0.02-0.12-0.04-0.18-0.05l-0.16-0.01c-1.99-0.33-3.99,0.45-5.23,2.03c-1.06,1.38-2.76,2.17-4.5,2.14 h-0.26C48.35,73.28,47.36,73.56,46.5,74.08z"/>
  </g>
</svg>