<svg viewBox="0 0 128 128" xmlns="http://www.w3.org/2000/svg">
  <path d="M119.3,54.5c-5.7-8.4-13.8-12.9-17.5-14.5c-3.1-1.3-5.8-1.5-5.7-3.2c0.1-1.7,3.7-0.3,4.5-2.6c0.8-2.3-4.5-4-7.1-1.8 s-1.1,6.2-1.1,6.2S91.8,50.3,88,56c-3,4.5-6.2,5.5-10,6.7c-1.2,0.4-2.3,0.6-3.5,0.8c-0.3-1.4-0.5-2.3-0.5-2.7 c-0.1-1.1,1.5-3.2,1.5-3.2s3.4,1.3,6-1.6c3.2-3.8,3.4-13.3,0.7-18.7c-2.1-4.2-4.2-6.2-4.9-6.4c-0.7-0.1-3.8,4.4-5.2,8.1 c-1.4,3.8-2,7.2-2,7.2s-1.5-1.1-4.4-1.4c-2.2-0.2-3.9,0.2-3.9,0.2s0.1-4.2-0.4-7.2c-0.5-3-1.6-7.4-3-7.8c-1.4-0.4-6.3,5.4-7.7,7.6 c-1.9,2.8-6.8,10.1-1.4,16.8c2.7,3.2,5.4,3,5.4,3s1.6,2.4,0.9,3.7c-0.1,0.3-0.3,0.9-0.5,1.7c-1.4-0.2-2.7-0.5-4-1 c-4.3-1.6-8-6.6-9-9.3c-1.6-4.2-1.5-7.1-1.5-10.8c0-4.2,0-6.9,0-6.9s2.6-3.4,0.1-6.1s-6.2-1.2-5.9,1.1c0.3,2.3,3,1,2.7,2.9 c-0.3,1.9-5.2,2.4-9.6,4.8c-6.8,3.8-11.6,6.8-16.9,15C3,64.8,0.6,83.5,1.6,85c0.3,0.4,6.2-3.1,11.7-1.2c2.8,1,5.1,5.5,5.6,5.6 s5-7.3,12.4-6C40,85,40.5,93.8,41.2,94c0.4,0.1,1.5-4.9,7.7-4.4c2.5,0.2,4.7,2.3,6.6,5l3.5,5.6c0,0,0,0,0,0c2.4,4,5.5,8.9,6.1,8.9 c0.7,0.1,3.8-4.7,6.1-8.4c0,0,0,0,0,0l0.4-0.6c0.5-0.8,1-1.6,1.3-2.2l1.4-2.4l0,0c2-3.3,5.3-7.4,8.5-7.5c3.9-0.1,5.7,5.9,6.5,5.8 c0.7-0.1,1.1-7.9,7.5-8.8c6.7-1,8.4,6.5,9.3,6.3c0.8-0.1,1.4-6.8,9.5-7c8-0.1,9.6,5.8,10.6,5.7C127.6,89.8,127.5,66.8,119.3,54.5z M74.7,40.1c0.9-1.9,2-3.8,3.5-3.7c1.5,0.1,3.6,4.9,3.6,10.1c0,5.2-0.7,7.4-2.9,8.6c-2,1.1-3.1,0.4-3.1,0.4s-0.3-3.2-1.1-4.7 c-0.8-1.4-2.4-3.1-2.4-3.1S72.9,43.8,74.7,40.1z M66,53.1c0.8,0,0.9,0.8,0.9,1.5s-0.3,1.9-1,1.8c-0.7-0.2-0.9-0.4-0.9-1.6 C64.9,53.7,65.3,53.1,66,53.1z M61.8,54.4c0.3-0.8,0.9-1.5,1.5-1.3c0.9,0.3,0.6,1.5,0.4,2c-0.2,0.5-1,1.6-1.7,1.1 C61.5,55.9,61.5,55.2,61.8,54.4z M61.3,57.7c1.4,0.8,1.7-1.2,2.6-1.2c0.7,0,0.9,0.6,1.2,0.9c0.5,0.5,1.5,0.5,2.2-0.7 c0.7-1.2,1.9,0,1.3,0.8c-0.1,0.2-0.3,0.6-0.5,0.9c-0.1,1.3-1,4.2-1.8,3.8c-0.5-0.3-0.7-1.6-0.8-2.6c-1-0.2-1.7-0.9-1.7-0.9 s-0.5,0.8-1.7,0.9c0,1-0.1,2.5-0.7,2.6c-0.9,0.1-1.5-1.9-1.7-3.2c0-0.1,0-0.1,0-0.2c-0.3-0.4-0.4-0.8-0.5-1.2 c-0.3-1-0.1-1.9,0.9-1.8C61.5,55.9,60.3,57.1,61.3,57.7z M60.1,53.5c0,1.2-0.9,2.1-2,2.1c-1.1,0-2-0.9-2-2.1s0.9-2.1,2-2.1 C59.2,51.4,60.1,52.3,60.1,53.5z M54.3,53.5c0,0-2.4,0.7-4-1.4c-2.4-3.3-1.4-7.1,0.4-10.5c1.6-3,5.8-7.3,6.8-7.2 c2.3,0.4,1.8,11.7,1.8,11.7s-1.6,0.8-3.1,2.8C54.6,51,54.3,53.5,54.3,53.5z M72.5,80.9C72,87.8,65.9,91,64.1,91.3 c0,0-7.2-2.8-7.9-11c-0.5-6.1,3.8-16.2,8.2-16C68.5,64.5,73,73.2,72.5,80.9z M71.2,56.3c-1.1,0-2-0.9-2-2.1c0-1.2,0.9-2.1,2-2.1 s2,0.9,2,2.1C73.2,55.3,72.3,56.3,71.2,56.3z"/>
</svg>