<svg viewBox="0 0 128 128" xmlns="http://www.w3.org/2000/svg">
  <g>
    <rect height="14.5" width="13.5" x="4.3" y="21.4"/>
    <rect height="14.5" width="34" x="4.3" y="38.5"/>
    <rect height="14.5" width="13.5" x="4.3" y="56.9"/>
    <rect height="14.5" width="34" x="4.3" y="74.2"/>
    <rect height="14.5" width="16.5" x="4.3" y="91.9"/>
    <rect height="14.5" width="38.6" x="4.3" y="109.7"/>
    <rect height="14.5" width="38.6" x="45.8" y="109.7"/>
    <rect height="14.5" width="36.3" x="87.7" y="109.7"/>
    <rect height="14.5" width="38" x="23.8" y="91.9"/>
    <rect height="14.5" width="35" x="64.8" y="91.9"/>
    <rect height="14.5" width="21.2" x="102.8" y="91.9"/>
    <rect height="14.5" width="38.7" x="41.3" y="74.2"/>
    <rect height="14.5" width="41" x="83" y="74.2"/>
    <rect height="14.5" width="34" x="4.3" y="4"/>
    <rect height="14.5" width="38.7" x="41.3" y="4"/>
    <rect height="14.5" width="41" x="83" y="4"/>
    <rect height="14.5" width="37.2" x="20.8" y="56.9"/>
    <rect height="14.5" width="39" x="61" y="56.9"/>
    <rect height="14.5" width="21" x="103" y="56.9"/>
    <rect height="14.5" width="38.7" x="41.3" y="38.5"/>
    <rect height="14.5" width="41" x="83" y="38.5"/>
    <rect height="14.5" width="38" x="20.8" y="21.4"/>
    <rect height="14.5" width="38" x="61.8" y="21.4"/>
    <rect height="14.5" width="21.2" x="102.8" y="21.4"/>
  </g>
</svg>