<svg viewBox="0 0 128 128" xmlns="http://www.w3.org/2000/svg" xmlns:xlink="http://www.w3.org/1999/xlink">
  <path d="M122.18,39.63c3.37-2.31,2.16-7.8-1.87-8.65L120.34,7c0-1.82-1.61-3.07-3.3-2.89c-3.68-0.1-20.27,0.03-23.69,0.01 c0.02,0,0.05-0.01,0.07-0.01c-1.84-0.25-3.61,0.79-3.62,2.88c0,0,0,22.8,0,22.8c-2.29-1.41-5.12-1.71-7.4,0.28 c-3.74,3.19,2.65,13.96,1.98,19.19c-0.65,5.06-3.83,13.98,2.76,21.12L56.59,89.47c-4.53,2.75-10.27,3.29-15.24,1.44L3.88,74.07H3.87 L3.8,123.93c0,0,62.94-0.05,70.38-0.05c10.32-3.49,28.47-36.54,33.25-43.54c6.73-2.03,11.69-11.11,14.44-16.54 c2.31-1.55,2.76-5.38,0.76-7.43c0.1-0.4,0.06-0.83-0.14-1.19c1.89-1.6,2.18-5.09,0.5-7.05c0.06-0.34,0.02-0.67-0.14-0.94 C124.83,45.18,124.51,41.1,122.18,39.63z M119.7,32.87c2.8,0.51,3.31,3.99,1.05,5.42c-3.11-0.57-6.25-0.98-9.41-1.15 c-2.45-1.86-1.47-5.42,1.63-5.51C114.74,31.81,117.93,32.57,119.7,32.87z M92,6.99c0-0.48,0.17-0.9,0.55-0.9 c0.01,0,23.43-0.07,23.45-0.07v24.1c-1.11-0.19-2.77-0.67-3.89-0.42V10.53H95.36v42.5l11.54,0.06c0.18,1.87,1.36,3.44,2.87,4.13 c0.07,0.23,0.21,0.43,0.39,0.58c-0.73,1.17-0.99,2.77-0.54,4.16L92,61.88V6.99z M107.7,77.07c-0.72,0.34-1.24,0.48-1.47,0.43 c-0.19-0.11-0.38-0.2-0.59-0.27c0.2,0.15-12.67-4.69-15.91-8.47c-4.96-5.01-3.82-11.13-2.87-16.21c1.1-4.26,0.34-7.65-1.14-12.39 c-0.66-2.22-2.02-6.85-1.38-7.79c1.66-1.74,4.64,0.13,5.46,1.31v30.19H90v0.01l20.83,0.1c1.78,2.07,4.75,1.37,7.08,0.98 C115.34,69.7,111.62,75.19,107.7,77.07z M119.5,62.71c-0.16,0.01-5.24,0.81-5.24,0.75c-1.42,0.01-2.64-1.16-2.82-2.56 c-0.25-1.15,0.5-1.99,0.88-2.97c2.85-0.29,5.72-0.44,8.6-0.45C122.79,59,121.9,62.41,119.5,62.71z M120.81,54.01 c-0.22,0.12-0.35,0.35-0.53,0.48c-3.27,0.16-6.71-0.02-9.86,0.81c-2.03-1.05-2.05-4.64,0.07-5.55c0.33-0.16,0.58-0.41,0.78-0.7 c3.43,0.09,6.87-0.01,10.28,0.46C122.55,50.8,122.21,53.18,120.81,54.01z M121.18,46.1c-0.12,0.11-0.22,0.23-0.3,0.36 c-3.43-0.34-6.97-0.47-10.39-0.3c-3.45-0.53-3.22-5.5,0.11-6.08c3.26,0.16,6.5,0.57,9.7,1.15c0.24,0.03,0.46,0.01,0.66-0.05 C122.52,42.17,122.62,44.89,121.18,46.1z"/>
</svg>