<svg viewBox="0 0 128 128" xmlns="http://www.w3.org/2000/svg">
  <g>
    <path d="M122.2,44c-1-1-2.2-1.4-3.4-1.4c-0.2,0-0.4,0-0.5,0.1c-2.9-8.2-7.7-15.4-14.3-21.2C93.4,12.1,79.1,7,63.6,7 c-27.9,0-58,17.5-58,55.9c0,38.4,30.1,55.9,58,55.9c15.4,0,29.8-5.2,40.4-14.5c11.5-10.2,17.6-24.5,17.6-41.4 c0-3.6-0.3-7.1-0.9-10.5l1.5-1.6C124.1,48.9,124.1,45.9,122.2,44z M101.4,101.3c-9.9,8.7-23.3,13.5-37.8,13.5 c-13.8,0-27.3-4.6-36.9-12.6C15.5,92.9,9.6,79.3,9.6,62.9c0-16.4,5.9-30,17.1-39.3c9.6-8,23.1-12.6,36.9-12.6 c14.5,0,27.9,4.8,37.7,13.4c6.2,5.5,10.7,12.4,13.4,20.3l-34,33.9c-5.4-1.7-11-2.6-16.7-2.6c-8.1-0.1-16,2-23.1,5.9 c-2.6,1.4-0.9,4.9,1.3,4.1c7-2.4,14.3-3.5,21.7-3.3c4,0,7.9,0.3,11.8,0.9c0.8,0.1,1.5,0.2,2.3,0.4l0,0c1.1,0.2,2.2,0.4,3.3,0.7 c0.7,0.2,1.4,0.4,2.1,0.6c0.2,0.1,0.5,0.1,0.7,0.2c0.9,0.3,1.8,0.6,2.6,0.9l0,0c0,0,0,0,0,0c0.6,0.2,1.1,0.4,1.5,0.6 c0.9,0.4,1.8,0.2,2.5-0.5c0.9-0.9,0.8-2.3,0-3.2c-0.1-0.1-0.3-0.2-0.5-0.3l-0.1-0.1c0,0,0,0,0,0L111,62.3l1.2-1.1l1.4-1.4l0,0 l1-1.1l2.6-2.7c0.2,2.2,0.4,4.5,0.4,6.9C117.6,78.6,112,91.9,101.4,101.3z M86.7,81c-0.3-0.3-0.3-0.9,0-1.2c0.3-0.3,0.9-0.3,1.2,0 l1.6,1.6l-0.3,0.3l-0.9,0.9L86.7,81z M92.6,76.5c0.3-0.3,0.9-0.3,1.2,0l0.3,0.3L92.9,78l-0.3-0.3C92.3,77.4,92.3,76.8,92.6,76.5z M96.5,70c0.3-0.3,0.9-0.3,1.2,0l1.7,1.7l-1.2,1.2l-1.7-1.7C96.1,70.9,96.1,70.4,96.5,70z M102.4,66.8c0.3-0.3,0.9-0.3,1.2,0 l0.4,0.4l-1.2,1.2l-0.4-0.4C102,67.7,102,67.1,102.4,66.8z M106.3,60.4c0.3-0.3,0.9-0.3,1.2,0l1.6,1.6l-1.2,1.2l-1.6-1.6 C106,61.3,106,60.8,106.3,60.4z M121.2,49.8l-2.3,2.4l-1.7-1.7c-0.3-0.3-0.9-0.3-1.2,0c-0.3,0.3-0.3,0.9,0,1.2l1.7,1.7l-3.9,4 l-0.4-0.4c-0.3-0.3-0.9-0.3-1.2,0c-0.3,0.3-0.3,0.9,0,1.2l0.5,0.5l-1.4,1.4l-1.2,1.1l0,0l0,0l-0.1,0.1c0.4-1.1,0.1-2.4-0.8-3.3 c0,0,0,0,0,0c-1.3-1.3-3.3-1.3-4.6,0L79.4,82.6c-0.2,0-0.3-0.1-0.5-0.1l2.9-2.9l34.6-34.6c0.6-0.6,1.5-1,2.4-1s1.7,0.4,2.4,1 C122.5,46.4,122.5,48.5,121.2,49.8z"/>
    <path d="M46,38.6c1,0,1.9-0.8,1.9-1.8c0-1-0.8-1.9-1.8-1.9c-1.9-0.2-3.9-0.2-5.8,0.2c-5.2,1-9.8,3.9-13,8.1 c-1.4,2.1,1.2,3.8,2.9,2.3C34.5,41.5,40.1,39,46,38.6L46,38.6z"/>
    <path d="M81.9,38.8L81.9,38.8c5.9,0.4,11.5,2.9,15.8,7c1.6,1.5,4.3-0.2,2.9-2.3c-3.2-4.2-7.8-7.1-13-8.1 c-1.9-0.4-3.9-0.5-5.8-0.2c-1,0-1.8,0.9-1.8,1.9C80.1,38,80.9,38.8,81.9,38.8z"/>
    <path d="M52,55.4c0-5.9-3.8-9.4-8-9.4c-4.2,0-8,3.5-8,9.4s3.8,9.4,8,9.4C48.2,64.8,52,61.2,52,55.4z M40.4,54.5 c-0.9-0.9-1.1-2.2-0.6-3.3c0.7-1.4,2.4-2,3.8-1.3c0.9,0.9,1.1,2.2,0.6,3.3C43.6,54.6,41.8,55.2,40.4,54.5z"/>
    <path d="M82.4,64.8c4.2,0,8-3.5,8-9.4s-3.8-9.4-8-9.4s-8,3.5-8,9.4S78.2,64.8,82.4,64.8z M78.2,51.2 c0.7-1.4,2.4-2,3.8-1.3c0.9,0.9,1.1,2.2,0.6,3.3c-0.7,1.4-2.4,2-3.8,1.3C77.9,53.7,77.7,52.3,78.2,51.2z"/>
  </g>
</svg>