<svg viewBox="0 0 128 128" xmlns="http://www.w3.org/2000/svg">
  <path d="M104.7,25.6c-1.3-1.1-9.4-8.9-13.5-13c-0.4-0.4-3.3-3.9-5.8-6.4c-1.2-1.3-2.8-1.9-4.6-1.7 c-1.8,0.2-3.5,1.2-4.8,2.8c-0.5-0.1-1.1-0.1-1.7,0.1c-1.8,0.4-3.3,1.6-4.3,3.3c-0.9,1.4-1.3,3.2-1.4,5c-0.5-0.2-1.1-0.4-1.8-0.5 c-2.8-0.4-6.3,0.4-7.7,3.3c-0.5,1-0.9,2.3-1.3,3.7c-1.4,4.3-3.5,10.8-9.3,17.7c-0.8,1-1.8,2-2.8,3.2c-4.1,4.7-9.8,11.2-14.7,19.2 c-5.7,9.4-8.5,21.5-9.7,26.6c-0.1,0.5-0.2,1-0.3,1.3c-0.5,2.2-7.2,9.1-13.3,14.8c0,0,0.5,1.1,1.8,2.4c0,0,13.5-13,14.4-16.5 c0.1-0.4,0.2-0.9,0.3-1.4c1.2-5,3.9-16.7,9.3-25.7C38.3,56,43.6,49.9,47.9,45c1-1.2,2-2.2,2.8-3.2c6.2-7.3,8.4-14.1,9.8-18.7 c0.4-1.4,0.8-2.6,1.2-3.4c0.6-1.3,2.8-1.9,4.5-1.6c0.5,0.1,2.2,0.5,2.7,1.8c-0.5,0.4-1.1,0.9-1.5,1.5c-1.9,2.5-1.7,5.9-1.1,11.2 c0.2,1.5,0.5,2.9,0.9,4.2C67.1,37,67,37.3,67,37.5c-0.6,5.4-5.7,15.9-10.9,21.9c-1.1,0.4-2.2,0.8-3.2,1.3c-3.4,1.5-3.3,2.5-3.3,2.5 c8.3-2.2,18.1-3,25.4-2.9c0.4,2.8,0.9,5.9,1.4,8.5C59.3,70.3,48,77.1,40.8,90.2c-0.8,1.5-1.4,4-1.1,4.7c0.2,0.6,2-2.8,2.7-3.9 C49.7,79.3,61.3,73.1,77,71.6c0.1,0.2,0.1,0.5,0.2,0.7c0.7,2.7,2.2,4.3,3.2,5.2c0.4,0.3,0.9-0.1,0.8-0.5c-1.7-5.6-2.5-12.8-3.3-17.7 c-0.7-4.5-1.2-8-1.9-10.1c-0.5-1.7-1.5-3.5-2.5-5.3c-1.7-3.2-3.7-6.9-4.3-11.6c-0.5-4.5-0.8-7.3,0.5-9c0.9-1.1,2.2-1.8,3.2-1.5 c1.2,0.2,1.7,1.4,1.9,2.3l0.1,0.2c0.1,0.2,1.8,4.2,3.1,6.7c0.5,1.1,1.4,2.4,2.5,4c1.5,2.4,3.5,5.3,5,8.4c3.6,7.5,6.6,20.7,7.4,24.9 c0.1,0.5,0.8,0.5,0.9,0c0.2-1,0.4-2.9,0.1-6c-0.8-8.8-3.1-15-5.8-20.2c-1.7-3.2-3.6-6.3-5.2-8.7c-1-1.5-1.9-2.8-2.3-3.8 c-1.1-2.2-2.7-5.8-3-6.4c-0.6-2.4-2.2-4-4.2-4.4c-0.6-0.1-1.3-0.1-1.9,0c-0.5-2.5-0.3-4.9,0.7-6.6c0.6-1,1.5-1.7,2.4-1.9 c1.7-0.4,2.9,1.5,4.6,4.5l0.5,0.9c1.8,3.1,9,11.1,12.8,14.6c2.2,2,4.9,5.5,5.6,8.4l0.1,0.3c2.4,7.3,4.9,21.2,5.5,24.8 c0.1,0.6,0.1,0.8,0.5,0.1c0.6-1.2,0.7-4,0.5-6c-0.5-5.9-2.4-15.1-3.6-19.7l-0.1-0.3c-0.9-3.6-4-7.6-6.5-9.9 C90.8,24.4,84,16.7,82.5,14.1L82,13.2c-0.9-1.6-2-3.5-3.3-4.7c0.7-0.7,1.5-1.1,2.3-1.1c0.6,0,1.4,0,2.2,0.8c2.6,2.7,5.7,6.3,5.8,6.4 l0.1,0.1c0.5,0.5,12,11.8,13.8,13.2c4.5,3.8,5.2,7.9,5.2,11.3c0,10.8-1.1,30.1-4.1,39.3C101.6,85.4,96,90.8,91,95.4 c-10.5,9.5-22.7,13.6-29.2,15.9l-1.1,0.4c-5.8,2-11.6,6.1-17.6,12.5l3.7,0.5c5.1-5.1,10-8.4,14.9-10.1l1.1-0.4 C69,112,82.1,107.5,93,97.6c5.3-4.8,11.2-10.6,13.7-18.2c3.1-9.5,4.2-29.3,4.2-40.2C110.9,35.3,110.2,30.2,104.7,25.6z M73.2,50.1 c0.5,1.5,0.9,4,1.4,7c-4.6,0-9.1,0.1-13.5,0.9c3.6-5,6.7-11.3,8.1-16.3c0.6,1.2,1.2,2.4,1.8,3.5C71.9,47,72.7,48.6,73.2,50.1z"/>
</svg>