<svg viewBox="0 0 128 128" xmlns="http://www.w3.org/2000/svg">
  <g>
    <path d="M104.06,32.62c2.58,3.05,4.1,8.77,0.68,14.33c3.53,1.77,7.04,2.29,8.61,1.87c3.17-0.86,5.14-7.8,4.88-17.91 c-0.26-10.11-5.4-15.77-10.2-15.42c-4.11,0.29-9.86,4.31-12,10.45c-0.22,0.63-0.38,1.28-0.53,1.94 C99.1,28.42,102.25,30.47,104.06,32.62z"/>
    <path d="M14.73,67.76c5.1,14.16,32.91,15.42,42.93,11.65c10.02-3.77,24.25-21.76,24.5-23.56c0.25-1.8-3.17-3.52-5.23-9.6 c-2.05-6.08,1.59-9.98,0.26-11.31c-1.54-1.54-12.08,1.37-20.38,2.23c-8.31,0.86-22.37,2.99-24.25,3.34 c-4.93,0.93-8.15,2.94-11.4,5.57C19.02,47.81,10.87,57.05,14.73,67.76z"/>
    <path d="M85.66,36.62c-1.66,3.41-1.45,8.2,2.51,11.04c4.24,3.05,10.75,1.52,13.02-3.15s0.91-9.57-3.25-11.68 C92.7,30.17,87.33,33.21,85.66,36.62z"/>
    <path d="M124.24,38.17c-0.2-5.93-1.4-11.96-3.51-17.4c-2.59-6.86-8.71-13.19-12.88-14.02c-4.17-0.8-8.49-1.07-12.63-0.07 c-1.19,0.17-4.93,0.95-9.03,4.27c-4.97,4.03-10.71,11.22-13.54,13.28c-2.83,2.06-8.56,5.49-8.56,5.49 c-6.67,1.56-27.97,3.97-33.08,5.39s-12.15,4.18-14.35,5.92c-3.6,2.85-12.25,17.36-12.2,21.91c0,0.04,0,0.09,0,0.13c0,0,0,0,0,0 c-0.18,5.57-0.11,11.21,0.58,16.76c1,7.66,2.41,11.78,2.41,11.78s3.83,17.46,26.12,26.12c16.88,6.5,36.26,3.26,51.96-4.97 c8.24-4.56,19-15.08,23.26-20.33c4.26-5.25,12.52-17.14,13.51-24.81s2.03-19.79,1.99-27.46C124.29,39.48,124.27,38.82,124.24,38.17 z M8.01,79.44c-0.9-6.92-0.59-15.31-0.55-16.24l0-0.08l0-0.08l0-0.13c-0.04-3.19,7.72-16.88,11.06-19.52 c1.69-1.34,8.15-3.95,13.29-5.38c2.45-0.68,9.46-1.69,16.24-2.66c6.87-0.99,13.37-1.92,16.72-2.7l0.09-0.02 c3.31-0.5,16.52-2.74,24.32-7.94c4.1-2.74,5.62-10.59,6.15-14.98c3.81-0.93,7.84-0.83,11.92-0.01c2.62,0.52,8.2,5.63,10.66,12.14 c1.96,2.98,4.88,20.84,2.62,29.36c-1.41,6.11-5.69,15.02-8.34,19.76c0.22-2.15,1.04-12.24-2.71-14.84 c-4.19-2.92-16.28,0.68-18.59,2.48c-2.31,1.8-7.28,7.71-11.74,12.94c-4.45,5.23-10.76,10.55-16.5,13.38 c-5.74,2.83-9.73,2.37-12.9,5.2c-3.17,2.82-0.65,14.52-4.1,14.66c-2.98,0.13-1.59-13.82-5.57-15.08 c-3.96-1.25-5.25-0.96-13.98-2.39c-8.6-1.41-16.2-4.62-16.43-4.71c-0.53-0.62-1.08-1.53-1.6-2.67C8.06,79.76,8.04,79.61,8.01,79.44 z"/>
  </g>
</svg>