<svg viewBox="0 0 128 128" xmlns="http://www.w3.org/2000/svg">
  <g>
    <path d="M34.4,79.7c2.8,0,3.2-2.5,3-4.8c-0.2-2.3-1.3-4.2-3.5-4.2c-2.1,0.1-3.3,2.2-3.2,4.7C30.8,77.5,31.6,79.7,34.4,79.7z"/>
    <path d="M50.6,73.1c1.6-1.8,2.5-3.9,1.2-5.3c-1.5-1.6-3.9,0.1-5.1,1.4c-1.1,1.3-2.6,3.6-1.5,5.1C46.4,76.1,49,74.9,50.6,73.1z"/>
    <path d="M121,73.8c-0.8-0.5-2.7-1.2-4.5-1.8c2-2.1,7.3-8.1,7-9.3c-0.1-0.6-0.7-1.2-1.6-1.6c-1.4-1-6.4-2-9.3-2.9 c1.4-1.5,4.9-5.3,4.1-6.9c-0.1-0.2-0.4-0.5-0.8-0.7c-0.4-0.7-8.4-2.2-13.3-3.2c1.3-2,4.9-7.5,4.3-8.3c-0.3-0.4-0.8-0.6-1.6-0.9 c-1.6-0.9-12.2-1.5-14.9-1.5c-0.7,0-1.4,0-2.1,0.1c0.6-2,1.7-6.4,0.8-6.9c0,0-0.1,0-0.1,0c-0.9-0.4-6.4,1.6-9.6,2.4 c-1.7,0.5-3.4,1.2-4.7,1.8c-0.2-1.9-0.7-5.4-2.2-5.1c0,0,0,0,0,0c-1.8,0-7.1,4.1-8.8,5.9c-1.7,1.8-4.9,5.2-4.9,5.2 s-2.5-3.6-3.6-4.6c-0.9-1.1-1.6-1.9-2-1.9c-0.7,0-4.1,4-6,6.3c-2-2.2-4.6-5.4-5.1-5.6c-0.6-0.8-1.2-1.3-1.6-1.3 c-1.5,0-5.9,9.2-7.3,12.3c-1.8-1.5-4.7-3.8-5.7-4.4c-1-0.9-1.8-1.4-2.1-1.3c-1,0.6-2.2,5.8-2.5,8.7c-0.2,2-0.5,4.6-0.7,6 c-1.4-0.2-3-0.5-4.1-0.8c-2-0.7-5.8-3.2-6.2-2c0,0,0,0,0,0c-0.7,0.5,1.3,5.8,2.7,8.5c1.1,2.2,3.2,4.9,4.5,6.7 c-2.5,2.3-4.2,4.8-5.4,5.4c-1.8,0.9-5,0.8-7,2.4c-1,0.1-1.7,0.7-1.9,2.4c-0.1,0.8,0,1.5,0.2,2.1c0,1.1,0.2,2.1,0.6,3.2 c-0.3,0.3-0.4,0.9-0.2,1.2c0.3,0.7,0.7,0.7,1,0.7c1.2,2.2,3,4.4,5.5,6.2c4.7,3.4,10.1,6,18.4,6.3c-0.2,1.3-0.7,4.9-1.3,5.9 c-0.3,0.7-2,2.5-3.2,4.3c-0.4,0.2-0.9,0.5-1.2,0.8c-0.7,0.6-1.5,2.3-0.4,3.1c0.3,0.2,0.5,0.2,0.8,0.2c0.1,0.1,0.1,0.1,0.2,0.2 c0.2,0.2,0.5,0.3,0.7,0.4c0.1,0,0.1,0.1,0.2,0.1c0.3,0.1,0.5,0.2,0.8,0.3c0,0,0.1,0,0.1,0c0.3,0.1,0.6,0.1,0.9,0.2 c0.1,0,0.1,0,0.2,0c0.3,0,0.7,0.1,1,0.1c0,0,0,0,0.1,0c0.1,0,0.1,0,0.2,0c0.2,0,0.4,0,0.6,0c0.1,0,0.2,0,0.3,0c0.2,0,0.4,0,0.6-0.1 c0.1,0,0.2,0,0.3,0c0.2,0,0.4-0.1,0.7-0.1c0.1,0,0.1,0,0.2,0c0.3-0.1,0.5-0.1,0.8-0.2c0.1,0,0.1-0.1,0.2-0.1 c0.2-0.1,0.4-0.1,0.5-0.2c0.1,0,0.2-0.1,0.2-0.1c0.2-0.1,0.3-0.2,0.4-0.2c0.1,0,0.2-0.1,0.2-0.1c0.1-0.1,0.3-0.2,0.4-0.3 c0.1,0,0.1-0.1,0.2-0.1c0.2-0.2,0.3-0.3,0.5-0.5c1.9-2.5,4.1-6.9,4.6-7.9c0.1,0.1,0.2,0.3,0.3,0.4c0.8,1.1,1.9,2.2,1.9,2.2 s-0.8,1.9-1.4,2.6s-2.5,2.2-4,3.6c-0.7,0.7-0.8,1.6-0.2,2.4c0,0.3,0.1,0.6,0.3,0.8c0.3,0.3,0.6,0.4,1,0.4c0.6,0.4,1.4,0.7,2.3,1 c0.3,0.1,0.6,0.2,0.9,0.2c0.2,0.1,0.5,0.1,0.7,0.1c0.1,0,0.3,0.1,0.4,0.1c0.1,0,0.1,0,0.2,0c0.2,0,0.4,0,0.6,0c0,0,0.1,0,0.1,0 c0,0,0,0,0,0c0.2,0,0.5,0,0.7-0.1c0.1,0,0.1,0,0.2,0c0.2,0,0.4-0.1,0.7-0.1c0.1,0,0.2-0.1,0.3-0.1c0.2-0.1,0.5-0.1,0.7-0.2 c0.1,0,0.2-0.1,0.3-0.1c0.4-0.1,0.7-0.3,1.2-0.4c4.3-1.8,12-7.2,12-7.2s5.3,1.5,10.4,1.8c1.5,0.1,3.2,0.1,5,0.2 c-2,1.4-2.1,3.1-0.9,4.4c0.1,0.1,0.1,0.2,0.2,0.3c0.1,0,0.1,0.1,0.2,0.1c0.4,0.3,0.8,0.6,1.3,0.9c0.6,0.3,1.3,0.5,2.2,0.6 c0.3,0.2,0.6,0.2,1,0.1c0.5,0,1,0.1,1.6,0.1c3.2,0,6.9-0.6,8.4-1.1c1.8-0.6,4-2.4,4.5-5.2c0.2,0,0.3,0,0.5,0c0,0,0,0,0,0 c4.7-0.4,18.1-1.6,18.4-2.8c0.1-0.4-0.2-1.1-0.6-1.9c0,0,0,0,0,0c0-0.4-1.5-3-2.7-5.2c2.5-1.4,11-6.2,10.9-7.5 c-0.1-0.6-0.4-1.2-0.9-1.8c-0.5-0.9-1.9-2.3-3.1-3.5c1.8-2.5,7.6-10.7,7.3-11.6C122.2,74.6,121.7,74.2,121,73.8z M100.4,64 c1.9-1.1,4.3-1.5,5.7-2c2-0.6,2.4,1.4,1.4,2.1c-1,0.7-3.8,2.2-5.5,2.9C99.8,68,97.9,65.5,100.4,64z M99.9,76.7 c-2.2,1.3-12,5.4-15.1,6.5c-3.2,1.2-5.1-2.7-1.4-4.2c3.9-1.7,13.7-4.7,15.7-5.4C101.1,73,102.1,75.4,99.9,76.7z M96.5,52.2 c-1,0.9-7.9,5.4-10.1,6.6c-2.8,1.6-5.3-1.6-1.6-3.7c2.3-1.3,8.5-4.2,10.4-4.9C96.9,49.7,97.5,51.3,96.5,52.2z M81.7,45.9 c2.5-1.9,7.7-4.9,9-5.9c1.5-1,2.3,0.4,1.5,1.3c-0.9,1-6.2,6.7-8.2,8.2C81.5,51.5,78.8,48.1,81.7,45.9z M93.5,59.5 c2.9-1.6,4.2,1,1.8,2.7c-1.5,1-20,13.6-22.7,15.4c-3.3,2.2-6.1-2.5-2.8-4.8C72.4,71.1,91.1,60.8,93.5,59.5z M65.5,66.4 c-3.4,2.8-6.3-0.9-3.3-3.3c3.8-3,9.1-6.6,11.3-8.2c2.6-1.8,4.5,0.1,2.5,2.1C73.8,59.3,69,63.5,65.5,66.4z M74.9,41 c2.7-1.8,3.8,0.4,2,2.2c-1.8,1.9-6.7,6.6-9.3,8.7c-2.6,2.1-6-1.4-3-3.8C67.4,45.8,72.7,42.5,74.9,41z M60.3,42.5 c1.5-1.4,4.1-3,6-3.9c2-0.9,2.9,0.6,1.6,1.9c-1.3,1.3-2.6,2.5-5.1,4.3C60.5,46.5,59,43.7,60.3,42.5z M48.9,56.2 c1.4-1.9,6-7.1,7.9-8.7c1.7-1.4,3.2,0.2,2.2,1.8c-1.1,1.6-4.3,7.1-6.3,9.9C50.6,62.1,46.6,59.4,48.9,56.2z M37,50.3 c1-2.5,3.4-5.6,4.9-8c1.5-2.3,3.2-1.4,2.5,0.8c-0.8,2.8-2.2,6.1-3.7,9.2C39.3,55.4,35.5,53.9,37,50.3z M13,88.7 c3,0.6,5.3-1.5,6-2.1c0.7-0.7,0.3-2.8-1.6-1.8c-1.7,0.8-1.5,1.7-3.9,1.3c-2.5-0.4-3-3.8-3-3.8s3-2.7,3.1-4.1 c0.1-1.3-1.2-2.2-3.5-2.9c0.4-0.1,0.8-0.2,1.3-0.3c1.1-0.2,2.2-0.5,3.1-0.9c1-0.5,1.9-1.5,3.1-2.8c0.8-0.9,3-5.6,3-5.6 c0,0,0,0-0.1-0.1c2.4-1.8,5.3-3.1,8.9-2.6c8.8,1.1,13,9.5,13,9.5s0.8-3.7,4.2-7.7c3.8-4.5,11.5-3.9,9.4,4.1 c-1.3,5.1-4.4,7.7-6.6,8.9c-1.3,0.7-2.2,1-2.2,1s0,2.8-0.4,5.2c-0.1,0.4-0.2,0.8-0.3,1.3c0,0.1-0.1,0.2-0.1,0.3 c-0.1,0.4-0.3,0.8-0.4,1.2c0,0,0,0.1,0,0.1c-0.4,1-0.9,2-1.5,2.9c-2.4,3.8-6.6,7.1-12.7,7.1l-1.2-1C23.8,95.3,18.3,92.5,13,88.7z M92.6,107.6l-1.5,0.1l-0.3,1.5c-0.3,1.9-1.9,3.3-3.2,3.7c-1.1,0.4-4.1,0.9-6.9,1c0.2-0.5,0.3-1.1-0.2-1.6 c-0.6-0.5-1.9-0.1-2.9,0.8c-0.2,0.2-0.3,0.4-0.5,0.5c-0.2,0-0.4-0.1-0.5-0.1c0.2-0.2,0.3-0.3,0.4-0.4c0.5-0.6,1.4-1.6,0.6-2.5 c-0.2-0.3-0.5-0.4-0.8-0.4l3.6-2.5l-1.7-0.1c1.7-0.4,3.2-0.7,4.1-1.2c0,0,0.1,0,0.1-0.1c0.1,0,0.1-0.1,0.2-0.1 c0.1,0,0.1-0.1,0.1-0.1c0,0,0.1-0.1,0.1-0.1c0,0,0.1-0.1,0.1-0.1c0,0,0.1-0.1,0.1-0.1c0-0.1,0.1-0.1,0.1-0.2c0,0,0-0.1,0-0.1 c0-0.1,0-0.2,0-0.3c0-0.1-0.1-0.2-0.1-0.3c0,0,0,0-0.1-0.1c-0.1-0.1-0.1-0.1-0.2-0.2c0,0,0,0,0,0c-0.1-0.1-0.2-0.1-0.4-0.1 c0,0-0.1,0-0.1,0c-0.1,0-0.3,0-0.4-0.1c0,0-0.1,0-0.1,0c-0.2,0-0.4,0-0.6,0c0,0-0.1,0-0.1,0c-0.2,0-0.4,0-0.6,0c-0.1,0-0.1,0-0.2,0 c-0.2,0-0.5,0-0.8,0c0,0-0.1,0-0.1,0c-0.3,0-0.5,0-0.8,0.1c0,0-0.1,0-0.1,0c-0.4,0-0.8,0.1-1.3,0.1c-0.1,0-0.3,0-0.4,0 c-0.1,0-0.3,0-0.4,0c-0.2,0-0.5,0-0.7,0.1c-0.1,0-0.2,0-0.2,0l0,0c-1.8,0.1-3.8,0.2-5.7,0.1c-5.3-0.5-12.5-1.1-12.5-1.1 s-4.3,3.9-7.1,6.5c-1.6,1-3.2,1.8-4.5,2.4c-0.6,0.2-1.1,0.4-1.5,0.6c0.3-0.6,0.4-1.2-0.2-1.7c-1-0.8-1.9,0.2-2.5,0.7 c-0.2,0.2-0.6,0.6-1,1c-0.1,0-0.2,0-0.4-0.1c-0.2-0.1-0.4-0.1-0.6-0.2c0.1-0.1,0.2-0.1,0.2-0.2c0.9-0.7,1.4-2.2,0.4-2.9 c-0.1,0-0.1-0.1-0.2-0.1c0.9-0.7,1.5-1.3,1.8-1.7c0.7-0.8,1.4-2.5,1.7-3l0.5-1.2l-0.9-1c0,0-1-1.1-1.8-2.1 c-0.1-0.1-0.2-0.2-0.3-0.3l-0.9-1.2c1.7-1,4.4-2.7,5.6-3.9c0.9-0.9,1.8-2.1,2.5-3.2l0,0c0,0,0,0,0,0c0.2-0.3,0.4-0.6,0.5-0.9 c0,0,0,0,0,0c0.1-0.1,0.2-0.3,0.2-0.4c0,0,0,0,0,0c0.1-0.1,0.1-0.2,0.2-0.3c0,0,0,0,0,0c0-0.1,0.1-0.2,0.1-0.3c0,0,0,0,0-0.1 c0-0.1,0.1-0.1,0.1-0.2c0,0,0,0,0-0.1c0-0.1,0-0.1,0.1-0.1c0,0,0,0,0,0c0,0,0-0.1,0-0.1c0-0.1,0.2-0.1,0.5-0.1 c1.2,0,4.5,0.3,8.9,1.2c5.8,1.1,12.4,3.2,17.4,5.3c4.8,2,15,6.7,15.9,11.4C92.7,107.6,92.7,107.6,92.6,107.6z M103.5,99 c-1.5,0.3-3,0.4-5.1,0.4c-3.2,0-3.1-3.9-0.3-3.7c1.8,0.1,3.6,0.3,5.1,0.5C105.4,96.5,105.3,98.6,103.5,99z M105.5,88.3 c-1.4,0.3-8.6,2.7-12.5,3.3c-2.9,0.5-3.6-3.8-0.8-4.4c3.3-0.6,8.9-1.3,12-1.8C107.7,85,107.3,87.9,105.5,88.3z M111.7,77.7 c-1.5,0.8-3.3,1.7-5.1,2.2c-2.2,0.7-3.2-2.1-1.1-3c1.5-0.6,3.7-1.3,5.3-1.6C112.4,75,113,77,111.7,77.7z"/>
  </g>
</svg>