<svg viewBox="0 0 128 128" xmlns="http://www.w3.org/2000/svg">
  <g>
    <path d="M56.1,124.5H35.9c-1.1,0-2.13-0.51-2.75-1.37c-0.54-0.75-0.7-1.66-0.42-2.49c1.84-4.88,7.17-8.14,13.27-8.14 c6.18,0,11.68,3.47,13.37,8.44c0.25,0.76,0.13,1.54-0.34,2.2C58.42,123.99,57.32,124.5,56.1,124.5z M46,113.5 c-5.6,0-10.67,3.07-12.33,7.48c-0.17,0.5-0.06,1.08,0.29,1.57c0.43,0.6,1.16,0.96,1.94,0.96h20.2c0.89,0,1.7-0.36,2.12-0.95 c0.2-0.28,0.4-0.73,0.21-1.3C56.87,116.69,51.76,113.5,46,113.5z"/>
    <path d="M85.5,105.9c1.8-0.6,3.3-2.1,4.8-3.2c1.5-1.2,6-3.9,8.4-3.3c0,0,0.6,2.5,0.4,3.5c-0.3,1.4-0.4,2.7-4.9,6.7 c-11.5-2-18.5,1.6-19,1.9c-0.4-0.2-2.2-0.8-3.3-1.8c-0.7-0.7-1-1.4-1.2-2.3c-0.1-0.5,0.3-1.1,0.8-1.1 C71.9,106.3,78.7,108.2,85.5,105.9z" fill="#875845"/>
    <g>
      <g>
        <path d="M35.25,42.29l-0.22-0.63c-0.07-0.2-0.09-0.26-0.18-0.46c-0.04-0.09-0.08-0.19-0.13-0.3c-0.05-0.13-0.11-0.27-0.17-0.38 c-0.95-1.7-3.89-5.05-6.28-7.15l-0.46-0.46l0.33-0.35c3.87-4.18,6.53-7.03,7.11-7.61c1.88-1.78,8.68-4,9.61-4.29 c1.41-1.17,17.48-14.53,20.61-16.19c0.82-0.41,1.97-0.66,3.03-0.66c1.05,0,1.82,0.42,2.39,0.73c0.23,0.12,0.51,0.27,0.61,0.27 c0.07-0.01,0.3-0.08,0.63-0.17c1.03-0.29,2.96-0.83,4.47-0.83c1.14,0,1.89,0.27,2.61,0.53c0.61,0.22,1.19,0.43,2.02,0.47 c1.18,0.1,2.11,0.05,3.1,0c0.98-0.05,1.98-0.1,3.22,0c0.15,0.03,0.24,0.04,0.34,0.05c0.45,0.05,1.21,0.13,1.73,0.86 c0.55,0.78,0.03,1.7-0.23,2.14c-0.02,0.03-0.03,0.06-0.05,0.08C89.39,8,89.54,8.2,89.65,8.34c0.41,0.55,0.65,0.9,0.65,1.26 c0.08,0.43,0.25,3.84-0.27,4.75c-0.18,0.37-1.1,1.01-4.38,3.13l-1.29,0.84l-0.55-0.84l1.29-0.84c1.7-1.1,3.81-2.47,4.06-2.8 c0.28-0.5,0.25-3.46,0.14-4.16c-0.04-0.17-0.31-0.54-0.46-0.74C88.49,8.46,88.3,8.19,88.3,7.9c0-0.19,0.08-0.33,0.21-0.55 c0.17-0.3,0.46-0.8,0.28-1.06c-0.26-0.36-0.65-0.4-1.02-0.44c-0.15-0.02-0.28-0.03-0.39-0.06c-1.09-0.08-2.02-0.04-3,0.01 c-0.98,0.05-1.98,0.1-3.22,0c-0.96-0.05-1.63-0.29-2.29-0.53C78.2,5.03,77.56,4.8,76.6,4.8c-1.37,0-3.21,0.51-4.2,0.79 c-0.57,0.16-0.75,0.21-0.9,0.21c-0.36,0-0.7-0.18-1.09-0.39C69.89,5.12,69.29,4.8,68.5,4.8c-0.9,0-1.91,0.21-2.58,0.55 C62.82,7,45.59,21.34,45.42,21.48l-0.17,0.09c-0.07,0.02-7.51,2.39-9.31,4.09c-0.54,0.54-3.11,3.29-6.74,7.21 c2.43,2.18,5.25,5.41,6.23,7.19c0.07,0.15,0.14,0.31,0.21,0.47c0.03,0.07,0.06,0.14,0.08,0.2l10.19-7.23l0.58,0.82L35.25,42.29z "/>
        <path d="M84.1,17.9" fill="none" stroke="#000000" stroke-miterlimit="10"/>
        <path d="M79.4,20.9" fill="none" stroke="#000000" stroke-miterlimit="10"/>
        <path d="M76,19.2" fill="none" stroke="#000000" stroke-miterlimit="10"/>
        <path d="M51.3,32.3c0-0.3,0-0.6,0-1c0-1,0.1-2,0.2-3 c0.1-0.4,0.1-0.8,0.2-1.1l0,0c0.6-3.1,1.9-5.8,3.7-8c2.6-3.2,6.2-5.3,10.2-5.3" fill="none" stroke="#000000" stroke-miterlimit="10"/>
        <path d="M86.7,25.9c-0.2-0.8-0.4-1.6-0.7-2.2c-0.6-1.5-1.9-4.2-5.3-5.8L76,19.2c1.8,2.2,3,4.9,3.6,8 C81.5,24.8,84.7,25.1,86.7,25.9z"/>
        <path d="M92.4,34.5c-3.3-0.9-4.4-3.9-5.3-6.8c0,0.1-0.1,0.2-0.1,0.3c-1,1.8-1.3,4.5-3.8,6c-1.2,0.7-2.4,0.7-3.4,0.5 c-0.1,1.4-0.4,2.7-0.7,3.9l0,0c3.4,4.3,8,2.3,8,2.3L85,37.9C85,37.9,89.3,39.1,92.4,34.5z"/>
        <path d="M51,17.9c-3.4,1.6-4.7,4.3-5.3,5.8c-0.3,0.6-0.5,1.3-0.7,2.1c2-0.7,5-0.9,6.7,1.3c0.6-3.1,1.9-5.8,3.7-8L51,17.9z"/>
        <path d="M48.1,33.9c-2.4-1.5-2.7-4-3.7-5.9c-0.8,2.8-2,5.6-5.2,6.5c3,4.6,7.5,3.4,7.5,3.4l-2.2,2.7c0,0,4.4,1.9,7.8-2 c-0.4-1.2-0.6-2.6-0.7-4.2C50.5,34.6,49.3,34.6,48.1,33.9z"/>
        <path d="M50.4,35.01c-0.92,0-1.77-0.23-2.55-0.68c-0.1-0.05-0.22-0.14-0.35-0.23c-0.08-0.06-0.15-0.12-0.22-0.15l-0.09-0.05 c-1.34-1.06-1.93-2.46-2.46-3.7c-0.27-0.63-0.52-1.23-0.84-1.71l-0.08-0.13v-0.12c-0.31-0.57-0.55-1.17-0.36-1.73 c0.12-0.37,0.41-0.65,0.86-0.85c0.11-0.05,0.2-0.09,0.29-0.12c0.06-0.02,0.11-0.04,0.18-0.07c1.16-0.41,4.95-1.45,7.31,1.43 l0.14,0.17l-0.03,0.22c-0.2,1.3-0.39,2.67-0.39,4.02c0,1.08,0.1,2.08,0.2,3.05l0.04,0.45l-0.44,0.09 C51.19,34.97,50.79,35.01,50.4,35.01z M47.78,33.08c0.11,0.06,0.22,0.14,0.32,0.22c0.08,0.06,0.15,0.12,0.22,0.15 c0.81,0.47,1.67,0.64,2.63,0.53c-0.08-0.85-0.16-1.73-0.16-2.68c0-1.34,0.18-2.68,0.37-3.95c-1.96-2.17-5.08-1.3-6.01-0.98 c-0.07,0.04-0.16,0.07-0.26,0.1c-0.06,0.02-0.11,0.04-0.18,0.07c-0.2,0.09-0.3,0.17-0.33,0.27c-0.09,0.26,0.24,0.85,0.35,1.04 l0.06,0.2c0.33,0.53,0.58,1.12,0.85,1.75C46.15,30.97,46.66,32.19,47.78,33.08z"/>
        <path d="M80.76,34.91c-0.51,0-0.92-0.07-1.17-0.12l0.22-0.98c0.5,0.11,1.78,0.29,3.04-0.44c1.6-0.96,2.18-2.45,2.75-3.9 c0.25-0.65,0.52-1.32,0.87-1.92l0-0.04c0.02-0.07,0.04-0.12,0.07-0.2l0.08-0.13c0.31-0.38,0.31-0.49,0.31-0.51l0,0 c0,0-0.04-0.09-0.33-0.22l-0.22-0.11c-1.92-0.77-4.81-0.96-6.49,1.07l-0.77-0.64c2.02-2.45,5.4-2.25,7.67-1.35l0.24,0.12 c0.5,0.22,0.79,0.52,0.88,0.9c0.11,0.49-0.16,0.93-0.46,1.3c0,0.01-0.01,0.03-0.01,0.04l-0.06,0.18 c-0.35,0.62-0.59,1.23-0.84,1.87c-0.6,1.53-1.28,3.25-3.17,4.39C82.43,34.77,81.5,34.91,80.76,34.91z"/>
        <path d="M36.7,74c1.4-0.9,2.7-1.7,4-2.4c-0.3-2.4-0.6-4.8-0.6-4.8S38.8,70.4,36.7,74z" fill="none"/>
        <path d="M50.9,59.1c-0.6,3.3-1.4,6.3-3.3,9.1c9.5-3.9,16-3.8,16-3.8S61,62,57.7,56.8c-2.3,4.5-4.8,7.2-4.8,7.2 S52.7,60.5,50.9,59.1z" fill="none"/>
        <g>
          <path d="M100.7,111.3c-0.86,0-1.55-0.54-1.96-1.53c-0.53-1.28-0.53-3.19,0.01-3.73c0.11-0.11,0.27-0.26,0.47-0.45 c0.69-0.65,1.85-1.73,3-3.12c1.11-1.33,0.53-5.35,0.16-6.54c-0.35,0.3-0.93,0.98-1.37,1.51c-1.13,1.35-2.31,2.75-3.42,2.94 c-1.21,0.21-2.33-0.54-2.9-1.38c-0.57-0.84-0.65-1.77-0.21-2.48c0.73-1.18,3.52-6.57,3.93-7.37l0.47-11.38l1,0.04l-0.53,11.7 c-0.13,0.25-3.22,6.23-4.02,7.53c-0.23,0.37-0.15,0.89,0.19,1.39c0.38,0.55,1.13,1.09,1.9,0.95c0.75-0.13,1.95-1.56,2.83-2.6 c1.15-1.37,1.77-2.07,2.42-2c0.37,0.09,0.53,0.38,0.66,0.8c0.37,1.13,1.19,5.69-0.33,7.52c-1.19,1.43-2.38,2.54-3.08,3.21 c-0.19,0.18-0.34,0.32-0.45,0.43c-0.14,0.24-0.24,1.86,0.33,2.9c0.36,0.65,0.78,0.65,0.91,0.65c1.77,0,10.1-4.65,11.29-6.29 c0.98-1.36,3.14-5.52,2.11-14.85c-0.17-1.63,0.5-6.06,1.21-10.76c0.59-3.88,1.19-7.88,1.28-10.12 c0.64-12.16-1.69-22.13-6.37-27.35l0.74-0.67c4.93,5.49,7.29,15.46,6.63,28.06c-0.09,2.28-0.7,6.32-1.29,10.22 c-0.67,4.43-1.36,9-1.21,10.5c1.04,9.33-0.99,13.74-2.29,15.54C111.4,106.54,102.8,111.3,100.7,111.3z"/>
          <path d="M103.2,47.8" fill="none" stroke="#000000" stroke-miterlimit="10"/>
          <path d="M106.9,41.2" fill="none" stroke="#000000" stroke-miterlimit="10"/>
          <path d="M99.46,77.36l-0.65-0.45c-2.93-2.02-5.49-4.48-7.62-7.31c-1.83-2.57-3.26-5.26-4.24-8.03 c-0.1,0.24-0.19,0.48-0.29,0.72c-0.27,0.67-0.55,1.35-0.8,1.99l-0.25,0.64l-0.54-0.43c-3.63-2.95-5.35-7.48-6.02-9.73 l-2.77,5.81l-0.5-0.67c-3.17-4.3-3.85-9.74-4.1-13.46l1-0.07c0.35,5.3,1.44,9.22,3.42,12.24l3.27-6.87l0.3,1.47 c0.01,0.06,1.32,6.26,5.5,10.06c0.18-0.45,0.36-0.9,0.55-1.35c0.27-0.67,0.55-1.34,0.79-1.99l0.52-1.36l0.42,1.39 c0.95,3.13,2.47,6.18,4.53,9.05c1.88,2.51,4.13,4.73,6.68,6.59c0.01-0.08,0.01-0.15,0.02-0.23c0.02-0.36,0.05-0.75,0.1-1.13 c0-0.45,0-1.08,0.1-1.72c0.1-5.17-0.13-11.95-0.69-14.2l0.95-0.31c0.99,2.48,3.3,4.48,4.4,5.32 c1.53-8.04-1.01-15.09-1.04-15.17l-0.72-1.97l5.28,4.93c0.12-1.91,0.23-6.16-0.86-9.58l-0.09-0.29l0.21-0.22 c0.3-0.3,0.41-0.25,2.25,0.61c0.6,0.28,1.29,0.6,1.89,0.86c-0.1-0.6-0.24-1.14-0.38-1.7c-1.39-5.66-4.72-7.18-8.24-8.79 l-2.46-1.13h5.81c-2.73-4.39-5.89-4.73-10.18-5.18l-1.48-0.16l3.09-2.26c-1.91-1.3-8.96-5.44-21.4-5.87 c0.38,0.39,0.76,0.85,1.15,1.37l-0.8,0.6c-0.69-0.92-1.34-1.61-2-2.1l-1.23-0.92l1.53,0.02c15.99,0.2,23.59,6.25,23.91,6.51 l0.5,0.41l-2.08,1.52c4.13,0.47,7.46,1.21,10.3,6.32l0.41,0.74h-3c3.01,1.49,5.86,3.5,7.13,8.68c0.2,0.8,0.41,1.63,0.51,2.67 l0.08,0.79l-0.74-0.27c-0.73-0.26-1.8-0.76-2.75-1.2c-0.23-0.11-0.49-0.23-0.72-0.33c1.15,4.55,0.57,9.79,0.54,10.02 l-0.11,0.98l-3.87-3.61c0.72,2.78,1.75,8.44,0.38,14.68l-0.16,0.71l-0.61-0.4c-0.12-0.08-2.36-1.57-4.05-3.87 c0.3,3.2,0.4,7.98,0.32,11.86c-0.1,0.63-0.1,1.19-0.1,1.69c-0.05,0.42-0.07,0.79-0.1,1.13c-0.03,0.42-0.06,0.82-0.11,1.15 L99.46,77.36z"/>
        </g>
        <path d="M9.46,60.39c-0.49,0-0.98-0.17-1.38-0.5l-1.01-0.91c-0.87-0.75-0.94-2.17-0.15-3.1c0.01-0.01,1.61-1.81,4.11-4.51 l0.39-0.42l0.36,0.44c1.11,1.34,3.3,2.96,4.5,3.81l0.58,0.41l-6.17,4.41C10.31,60.26,9.88,60.39,9.46,60.39z M11.39,52.44 c-2.28,2.47-3.72,4.09-3.72,4.09c-0.44,0.51-0.42,1.29,0.05,1.69l1.01,0.91c0.39,0.33,0.94,0.35,1.39,0.06l5.02-3.58 C14.01,54.77,12.44,53.56,11.39,52.44z"/>
        <g>
          <path d="M35.3,41.1L35.3,41.1c0.1,0.2,0.2,0.3,0.2,0.5C35.5,41.4,35.4,41.2,35.3,41.1z" fill="#757575"/>
          <path d="M31.1,80.65V79.7c0-0.05-0.03-0.2-0.07-0.42c-0.12-0.72-0.38-2.23-0.53-4.14c-0.28-4.27,0.02-10.26,2.77-15.78 l-2.43,1.84l-0.14-0.82c-0.02-0.13-0.51-3.13,0.2-7.66L31,52.14l0.56,0.19c0.45,0.15,1.13-0.04,1.98-0.55 c1.93-1.02,2.79-2.22,2.94-2.45c0.58-0.96,0.76-1.89,0.51-2.66c-0.23-0.7-0.81-1.25-1.68-1.6l-0.66-0.26l0.46-0.53 c0.46-0.53,0.44-1.22-0.08-2.48l0.92-0.38c0.4,0.96,0.72,2.04,0.27,2.99c0.84,0.46,1.44,1.14,1.71,1.95 c0.35,1.06,0.14,2.28-0.61,3.51c-0.26,0.39-1.23,1.69-3.29,2.78c-0.85,0.51-1.59,0.77-2.21,0.73c-0.38,2.75-0.31,4.89-0.22,6 l5.23-3.96l-1.5,2.35c-3.72,5.82-4.13,12.62-3.82,17.3c0.12,1.63,0.33,2.96,0.46,3.74c1.75-1.42,3.18-3.49,4.11-5.06 c2.05-3.41,3.24-6.97,3.26-7l0.7-2.09l0.87,6.99c0.08,0.49,0.15,0.99,0.21,1.48c0.05,0.35,0.09,0.68,0.14,1 c2.5-1.92,4.42-3.93,5.73-5.98c1.85-2.82,2.63-5.61,3.23-8.92l0.15-0.81l0.65,0.51c1.29,1,1.83,2.95,2.05,4.2 c0.9-1.12,2.5-3.29,4-6.23c1.01-1.86,2.36-4.84,3.16-8.58c0.06-0.18,0.11-0.35,0.14-0.5c-0.35-0.09-0.66-0.19-0.97-0.34 c-3.95-1.28-6.54-4.07-7.86-8.51L51.5,38.8c-0.36-1.09-0.59-2.46-0.7-4.27c-0.07-0.69-0.14-1.39-0.18-2.13H50.6v-1h1 c0,1.07,0.1,2.07,0.2,3.04c0.11,1.75,0.33,3.04,0.68,4.1l0.03,0.16c1.19,4.06,3.57,6.63,7.25,7.82 c0.41,0.2,0.76,0.29,1.24,0.39l0.4,0.08v0.41c0,0.42-0.14,0.9-0.23,1.16c-0.8,3.8-2.2,6.88-3.24,8.78 c-2.3,4.5-4.77,7.19-4.87,7.3l-0.8,0.86l-0.07-1.17c0-0.03-0.15-2.48-1.19-3.97c-0.54,2.69-1.36,5.52-3.19,8.32 c-1.48,2.33-3.71,4.59-6.62,6.73l-0.62,0.45l-0.17-0.75c-0.12-0.54-0.21-1.18-0.29-1.86c-0.06-0.47-0.13-0.97-0.21-1.47 l-0.35-2.82c-0.57,1.38-1.45,3.34-2.62,5.29c-1.09,1.84-2.84,4.35-5.05,5.86L31.1,80.65z"/>
          <path d="M26.75,76.54c-0.64,0-1.28-0.05-1.93-0.15c-6.56-0.97-9.36-7.96-9.92-11.52c-0.33-1.95-0.07-6.31,0.2-9.62l0.06-0.74 l0.66,0.33c0.12,0.06,0.21,0.12,0.3,0.18c0.06,0.04,0.12,0.08,0.2,0.12c1,0.56,1.75,0.92,2.45,1.18 c1.45,0.51,2.98,0.87,4.37,0.04c2.65-1.47,6.8-4.83,6.84-4.86l0.39-0.32l0.31,0.39c0.36,0.45,0.6,0.69,1,0.85l0.37,0.15 l-0.06,0.39c-0.46,2.99-0.39,5.31-0.29,6.49l5.23-3.95l-1.5,2.35c-3.72,5.83-4.13,12.62-3.82,17.3l0.02,0.36l-0.34,0.13 C29.82,76.25,28.3,76.54,26.75,76.54z M16.04,56.14c-0.32,4.24-0.37,7.2-0.14,8.58c0.52,3.31,3.09,9.8,9.08,10.69 c1.92,0.29,3.81,0.11,5.6-0.54c-0.24-4.24,0.12-10.05,2.8-15.41l-2.43,1.84l-0.14-0.82c-0.02-0.12-0.48-2.97,0.14-7.29 c-0.27-0.16-0.49-0.35-0.72-0.6c-1.1,0.88-4.33,3.39-6.59,4.64c-1.73,1.04-3.52,0.63-5.21,0.03 C17.72,57,16.98,56.65,16.04,56.14z"/>
        </g>
        <path d="M55.5,19.1c-1.8,2.2-3.1,5-3.7,8l0,0c-0.1,0.4-0.1,0.8-0.2,1.1 c-0.1,1-0.2,2-0.2,3" fill="none" stroke="#000000" stroke-miterlimit="10"/>
        <path d="M65.6,48.2c-1.49,0-3-0.17-4.6-0.51c-4.77-1.08-7.89-4.1-9.28-8.95c-0.3-1.28-0.61-2.75-0.72-4.3l1-0.07 c0.1,1.48,0.39,2.85,0.69,4.12c1.29,4.52,4.08,7.22,8.52,8.22c4.05,0.87,7.72,0.56,10.82-0.58c3.31-1.36,5.47-3.94,6.59-7.87 c0.3-1.18,0.49-2.49,0.69-3.83c0.09-0.95,0.2-1.94,0.2-3.03c0-1.35-0.2-2.73-0.39-4.02c-0.39-1.77-0.98-3.41-1.75-4.84 c-0.53-1.17-1.27-2.18-1.85-2.93l0.79-0.61c0.62,0.8,1.4,1.87,1.96,3.1c0.79,1.48,1.41,3.21,1.83,5.1 c0.21,1.37,0.41,2.79,0.41,4.21c0,1.13-0.1,2.16-0.2,3.15c-0.2,1.39-0.4,2.73-0.71,3.97c-1.22,4.26-3.57,7.05-7.19,8.54 C70.33,47.82,68.06,48.2,65.6,48.2z"/>
      </g>
      <path d="M59.35,28.76c-0.24,0-0.49-0.04-0.73-0.12c-1.06-0.33-1.79-0.38-2.32-0.42c-0.96-0.07-1.37-0.15-1.64-1.46l0,0 c-0.44-2.1,0.79-4.07,2.79-4.5c2.1-0.44,4.07,0.79,4.5,2.79c0.23,1.12-0.16,2.32-1,3.07C60.48,28.54,59.92,28.76,59.35,28.76z M55.14,26.65c0.21,1,0.34,1.01,1.19,1.07c0.56,0.04,1.32,0.1,2.44,0.44c0.65,0.22,1.3,0.07,1.84-0.42 c0.7-0.62,1.03-1.66,0.84-2.59c-0.37-1.73-2.08-2.79-3.9-2.41C55.82,23.11,54.76,24.82,55.14,26.65L55.14,26.65z"/>
      <path d="M71.75,28.76c-0.57,0-1.13-0.22-1.6-0.64c-0.84-0.75-1.23-1.95-0.99-3.07c0.21-0.98,0.79-1.8,1.65-2.32 c0.84-0.51,1.85-0.68,2.84-0.47c2.01,0.42,3.23,2.4,2.79,4.5v0c-0.28,1.31-0.68,1.39-1.64,1.46c-0.53,0.04-1.26,0.09-2.33,0.42 C72.24,28.72,71.99,28.76,71.75,28.76z M72.81,22.67c-0.62,0-1.22,0.16-1.75,0.48c-0.74,0.45-1.25,1.16-1.42,2 c-0.2,0.93,0.14,1.97,0.84,2.59c0.54,0.48,1.2,0.63,1.84,0.42c1.13-0.35,1.89-0.41,2.44-0.45c0.85-0.06,0.98-0.07,1.19-1.07 c0.38-1.82-0.67-3.54-2.41-3.9C73.3,22.69,73.06,22.67,72.81,22.67z"/>
      <g>
        <ellipse cx="72.3" cy="26.5" rx="1.8" ry="1.9"/>
        <ellipse cx="59.1" cy="26.5" rx="1.8" ry="1.9"/>
      </g>
      <g>
        <path d="M63.6,39.5L63.6,39.5L63.6,39.5L63.6,39.5z" fill="#FFF8E1"/>
        <g>
          <path d="M68.8,37.1L68.8,37.1c-0.3,0-0.7,0.2-0.8,0.6l-0.2,1.7l0,0l0.2-1.7C68.1,37.3,68.6,37.1,68.8,37.1z" fill="none"/>
          <path d="M69.9,36c-2.6,1.3-5.7,1.1-8.4,0c-1-0.4-1.9,0.3-1.5,1.1c0.1,0.3,0.7,0.8,1.4,1.3c0-0.1,0.2-0.5,0.3-0.8 c0.2-0.5,0.6-0.5,0.8-0.5l0,0l0,0c0.3,0,0.7,0.2,0.8,0.7l0.2,1.7c0.7,0.2,1.4,0.4,2.1,0.4s1.4-0.2,2.1-0.4l0,0l0,0l0.2-1.7 c0.1-0.5,0.5-0.7,0.8-0.7l0,0l0,0c0.3,0,0.7,0,0.8,0.5c0.1,0.4,0.3,0.8,0.3,0.9c0.7-0.5,1.2-1,1.4-1.3 C71.8,36.3,71.1,35.5,69.9,36z"/>
        </g>
      </g>
      <path d="M54.1,4c-1,1.4-1.2,6.7-1.2,6.7l-4.8-3.3c0,0-1.8,2.5-2,7.7c-0.2,4.5,1.7,7.5,3.8,10.1c0.2,0.2,0.5,0.5,0.4,0.7 c-3.7,8.7-1,15.3,2.3,18.7c0-1.2-1.1-11.6-0.5-16.8c0.3-2.5,0.5-3.8,3-4.5c8.9-2.4,17-7.4,16.8-7.9c1.2,3.6,4.3,7.2,6.8,10.1 c2.1,2.4,0.1,19,0,19.1c7.6-9.2,2.6-18.2,2.6-18.2c-0.2-0.5-0.2-0.4,0-0.8c1.1-2.4,2.9-6,1.2-11c-1.5-4.6-7.6-8.5-12-7.3 C57.9,10.8,54.1,4,54.1,4z"/>
      <path d="M54.1,4c-1,1.3-1.2,6.7-1.2,6.7l-4.8-3.3c-1.3,2.3-1,5.3-0.1,7.8c0.9,2.3,2.5,4.3,4.6,5.7c0.2,0.1,0.3,0.2,0.4,0.4 c0.1,0.2-0.1,0.4-0.2,0.6c-1.4,2.3-2.7,4.4-3.5,6.9c-0.6,2.2-0.9,4.5-0.7,6.7c0.2,1.9,0.6,3.7,1.4,5.4c0.3,0.7,0.7,1.4,1.2,2.1 c0.2,0.3,1.4,1.4,1.4,1.7c0-1.2-1.1-11.6-0.5-16.8c0.3-2.5,0.5-3.8,3-4.5c8.9-2.4,17-7.4,16.8-7.9c1.2,3.6,4.3,7.2,6.8,10.1 c2.1,2.4,0.1,19,0,19.1c3.5-4.2,5.1-9.6,3.7-15C82,28,81,26.4,80.8,24.6c-0.2-1.8-0.3-3.6,0-5.4c0.9,1,1.5,2.1,1.8,3.4 c-0.1-0.4,0.2-1.3,0.3-1.8c0.1-0.6,0.2-1.2,0.2-1.8c0.1-1.5-0.2-2.9-0.7-4.3C81,10,74.9,6.1,70.5,7.3C57.9,10.8,54.1,4,54.1,4z"/>
      <g id="nose_19_">
        <path d="M62.18,31.66l-0.07-0.03c-0.18-0.07-0.39-0.18-0.47-0.4c-0.1-0.26,0.03-0.52,0.24-0.95c0.23-0.71,1.57-2.34,3.92-2.34 c2.62,0,3.73,1.95,3.92,2.34c0.1,0.25,0.19,0.53,0.13,0.78c-0.06,0.25-0.24,0.44-0.56,0.56l-0.09,0.02 c-0.02,0-0.13-0.02-0.29-0.05c-0.53-0.1-1.95-0.35-3.21-0.35c-1.55,0-3.43,0.39-3.45,0.39L62.18,31.66z M65.7,30.75 c1.3,0,2.7,0.25,3.29,0.36c0.07,0.01,0.13,0.02,0.17,0.03c0.18-0.08,0.2-0.16,0.2-0.19c0.03-0.12-0.04-0.32-0.1-0.46 c-0.16-0.33-1.14-2.04-3.47-2.04c-2.29,0-3.33,1.63-3.46,2.03c-0.12,0.25-0.25,0.51-0.24,0.58l0,0c0,0,0.02,0.03,0.13,0.08 C62.61,31.06,64.26,30.75,65.7,30.75z"/>
      </g>
    </g>
    <path d="M45.2,37.9" fill="url(#SVGID_1_)"/>
    <g>
      <path d="M74.7,64.1c-0.2,0-0.3,0-0.5,0c-0.1,0-0.1,0-0.2,0c-2.1,0-3.8,1.7-3.8,3.8s1.7,3.8,3.8,3.8s3.8-1.7,3.8-3.8 c0-0.1,0-0.2,0-0.3C77.9,65.9,76.5,64.3,74.7,64.1z" fill="none"/>
      <path d="M94.1,115.3c2.9-1.4,3.3-3.1,3.3-3.1l-3.4-2.6c6.7-5.8,5.1-6.2,3.7-16.1c0,0,6-13,2.9-17.8c-0.3-0.4-0.7-0.8-1.2-1.3 c0,0.9-0.1,1.6-0.2,2.2c-2.9-1.9-5.4-4.4-7.5-7.2c-4.8-2.7-10.2-5.3-13-6.9c-7.5-4.3-13.2-8.6-17.9-14.3c-0.8,3.3-2,6.3-3.2,8.7 c3.3,5.1,5.9,7.6,5.9,7.6s-6.5-0.1-16,3.8C46,70.5,44,72.7,41,74.9c-0.1-0.9-0.3-2.1-0.5-3.3c-1.3,0.7-2.6,1.5-4,2.4 c-1.3,2.2-3,4.4-4.9,5.7l0,0c0,0.2,0.1,0.4,0.1,0.6c1,3.9,2.3,10.2,1.8,13.2c-1.4,9.8-3,10.2,3.7,16.1l-3.4,2.6 c0,0,1,4.2,11.2,4.9c10.5,0.8,14.2-2.5,14.2-2.5c-0.2,0.2-3.1-3.2-3.1-3.2s3.7-1.3,4.3-3.5c0.5-1.7,0.8-5.8,1.4-7.6 c0,0,0.6-3.4,1.9-5.4c1-1.7,2.5-1.7,3.5,0c1.5,2.7,1.9,5.4,1.9,5.4c0.4,1.9,0.9,5.9,1.4,7.6c0.6,2.2,4.3,3.5,4.3,3.5 s-2.9,3.3-3.1,3.2c0,0,1.2,1.1,4.3,1.8c2.5-2.1,5.9-3.5,9.7-3.5C89,113,91.8,113.8,94.1,115.3z M74,71.6c-2.1,0-3.8-1.7-3.8-3.8 S71.9,64,74,64c0.1,0,0.1,0,0.2,0c0.2,0,0.3,0,0.5,0c1.9,0.2,3.2,1.7,3.1,3.5c0,0.1,0,0.2,0,0.3C77.8,70,76.1,71.6,74,71.6z"/>
      <path d="M96.37,124.41c-0.07,0-0.13,0-0.2-0.01l-20.27,0c-1.15,0-2.25-0.56-2.86-1.47c-0.51-0.75-0.62-1.63-0.3-2.42 c0.62-1.65,1.74-3.21,3.24-4.49c2.5-2.3,6.16-3.62,10.03-3.62c2.92,0,5.81,0.82,8.36,2.37c2.46,1.6,4.19,3.7,5.01,6.06l0,0.01 c0.26,0.79,0.11,1.64-0.41,2.33C98.37,123.95,97.41,124.41,96.37,124.41z M86,113.4c-3.61,0-7.03,1.23-9.36,3.37 c-1.36,1.17-2.41,2.62-2.97,4.11c-0.2,0.49-0.12,1.02,0.2,1.5c0.43,0.63,1.21,1.03,2.03,1.03h20.3c0.79,0.05,1.54-0.28,1.97-0.83 c0.33-0.43,0.42-0.93,0.26-1.41c-0.75-2.15-2.34-4.07-4.6-5.54C91.45,114.17,88.74,113.4,86,113.4z"/>
    </g>
    <path d="M58.3,106.5c-1.3,0.3-6.1,1.8-12.3-0.6c-1.8-0.7-3.8-2.1-5.6-2.9c-3.3-1.4-8.3-0.8-7,2c1.1,2.4,4,4.4,4,4.4 c11.5-2,17.9,1.8,19.1,1.8c0.4-0.2,2-0.7,3.2-1.8c0.7-0.7,1-1.4,1.2-2.3c0.1-0.5-0.3-1.1-0.8-1.1 C59.6,106.3,59.1,106.3,58.3,106.5z" fill="none"/>
    <g>
      <path d="M16.35,56.25c-0.14-0.14-0.29-0.21-0.47-0.31c-0.12-0.06-0.21-0.12-0.3-0.18c-0.06-0.04-0.12-0.08-0.2-0.12 c-1.76-1.21-3.45-2.61-4.35-3.61c-0.13-0.18-0.23-0.31-0.33-0.42c-0.15-0.18-0.27-0.33-0.35-0.49c-0.66-1.15-1.61-3.4-0.48-5.28 c0.64-1.15,1.54-1.24,2.73-1.24c0.21,0,0.39-0.07,0.5-0.19c0.1-0.11,0.13-0.26,0.11-0.44c-0.12-1.11,0.17-2.05,0.84-2.72 c0.55-0.66,1.47-1.05,2.55-1.05c0.42,0,0.6-0.07,0.6-0.7c0-0.92,0.1-1.88,0.82-2.73c0.91-1.04,2.07-1.17,2.98-1.17 c0.63,0,0.63,0,0.7-0.66c0.09-0.7,0.27-1.59,0.91-2.36c1.46-1.59,4.18-1.56,6.19,0.03l0.14,0.14c1.64,1.35,3.67,3.46,5.14,5.35 c0.7,0.93,1.15,1.58,1.43,2.05c0.07,0.15,0.13,0.28,0.19,0.42c0.04,0.11,0.09,0.22,0.13,0.31l0.05,0.11v0.12 c0,0.02,0.03,0.07,0.05,0.11c0.03,0.05,0.06,0.11,0.09,0.17c0.35,0.83,0.71,1.97,0.25,3.01c0.85,0.49,1.46,1.21,1.73,2.08 c0.23,0.75,0.32,1.95-0.61,3.4c-0.25,0.38-1.22,1.68-3.29,2.77c-1.12,0.67-2.04,0.88-2.79,0.63l-0.11-0.04l-0.08-0.08 c-0.11-0.01-0.27-0.07-0.4-0.2c-0.65-0.95-0.83-1.77-0.63-2.58c0.52-2.49,3.76-5.41,5.06-6.05l0.02-0.03 c0.44-0.58,0.42-1.36-0.06-2.51l-0.05-0.09c-0.07-0.12-0.15-0.27-0.18-0.48c-0.04-0.09-0.08-0.19-0.12-0.29 c-0.04-0.11-0.09-0.22-0.13-0.31c-0.24-0.4-0.69-1.04-1.35-1.92c-1.42-1.83-3.39-3.88-5.02-5.21l-0.14-0.13 c-1.75-1.38-3.82-1.15-4.78-0.11c-0.36,0.43-0.57,0.98-0.67,1.82c-0.13,1.15-0.56,1.54-1.7,1.54c-1.05,0-1.72,0.25-2.22,0.83 c-0.48,0.56-0.58,1.21-0.58,2.07c0,1.41-0.87,1.7-1.6,1.7c-0.78,0-1.43,0.26-1.82,0.72c-0.49,0.49-0.68,1.13-0.59,1.92 c0.06,0.45-0.06,0.89-0.34,1.22c-0.3,0.35-0.75,0.54-1.25,0.54c-1.14,0-1.5,0.09-1.86,0.74c-0.88,1.46-0.06,3.33,0.5,4.31 c0.04,0.08,0.15,0.22,0.24,0.33c0.12,0.14,0.24,0.29,0.34,0.44c0.8,0.88,2.45,2.25,4.07,3.36c0.06,0.03,0.15,0.08,0.24,0.15 c0.06,0.04,0.12,0.08,0.2,0.12c0.22,0.11,0.47,0.24,0.73,0.49L16.35,56.25z M31.73,52.35c0.45,0.11,1.11-0.09,1.92-0.57 c1.93-1.02,2.79-2.22,2.94-2.45c0.56-0.89,0.73-1.77,0.49-2.56c-0.21-0.66-0.69-1.21-1.39-1.57l0,0 c-1.01,0.46-4.13,3.18-4.6,5.41c-0.13,0.52-0.02,1.02,0.36,1.62C31.55,52.26,31.64,52.29,31.73,52.35z"/>
      <path d="M32.1,45.1c0.3,2-1.2,4.1-3.9,4.3c-0.3-0.8-0.6-1.5-1-2.1c-0.5-0.9-1.2-1.6-1.9-2.3c-0.7-0.7-1.5-1.3-2.4-1.7 c-0.9-0.5-3-1.1-3-1.1s2.4,2.9,3.8,4.2c1.4,1.2,3,2.5,4.4,3.7c0.4,1.3,0.5,2.6-1,3.7c-1.9,1.4-6.5-2-7.6-3c-1.3-1.1-2.7-2.3-4-3.6 c0,0,0.3,2.5,2.8,4.7c1.4,1.3,3.9,2,5,2c0.3,0.8,0.1,1.8-0.5,2.4c-0.6,0.6-1.5,0.8-2.4,0.8c-0.7-0.1-2.5-0.7-3.6-1.3 c0.7,0.4,1.3,0.7,1.9,0.9c1.8,0.6,3.3,0.9,4.8,0c2.6-1.5,6.9-4.9,6.9-4.9c0.2,0.3,0.5,0.6,0.8,0.7c-0.4-0.6-0.6-1.3-0.5-2.1 c0.2-2.7,3.72-5.33,4.8-5.8c-0.33,0.06-2,0.8-3-0.8c-0.7-1.4-1.7-3.1-2.4-3.8c-0.7-0.7-1.4-1.3-2.3-1.9c-0.9-0.5-1.8-1-3-1.2 c0,0,2.5,3,3.8,4.4"/>
      <path d="M35.4,44.7C35.4,44.7,35.5,44.7,35.4,44.7L35.4,44.7z" fill="#75A768"/>
    </g>
    <path d="M54.1,4c0,0-0.5,2.9,0.5,5.3s2.5,3.2,2.5,3.2c-1.8,0.1-4.3-1.8-4.3-1.8s0-1.9,0.3-3.8C53.5,5.4,54.1,4,54.1,4z"/>
  </g>
</svg>