<svg viewBox="0 0 128 128" xmlns="http://www.w3.org/2000/svg">
  <g>
    <path d="M50,48.5c-2.3,0-4.2,2.3-4.2,5.1s1.9,5.1,4.3,5.3c3.1,0.3,4.2-2.5,4.2-5.3C54.2,50.8,52.3,48.5,50,48.5z"/>
    <path d="M67.3,35.3c4,0,3.7-7.3,3.7-8.9c0-1.6-1.1-7.7-2.4-7.9c-1.5-0.2-3.5,4.9-3.9,7.1 C63.4,32.2,63.6,35.3,67.3,35.3z"/>
    <path d="M123.3,82.3l-7.8,2.8c-0.5-1.8-1.1-3.6-1.7-5.5l9.1-3.3c-0.3-3-0.7-6.3-1.2-9.8L110.9,72 c-0.8-1.9-1.6-3.7-2.5-5.4l12-6.6c-0.6-2.5-1.2-5-2-7.6L105,60.4c-1-1.6-2-3.2-3-4.6l14.2-9.4c-1.2-3-2.7-6-4.4-8.7 c-0.2-0.3-0.4-0.6-0.5-0.8l-13.8,13c-2-2.5-4-4.5-5.7-6.2l13.4-15.2c-2-2.4-4.1-4.5-6.3-6.5L86,38.8c-0.6-0.4-1-0.7-1.2-0.8 c-1.1-0.7-3.5-1.9-5-2.6l13.2-18c0,0,0.1,0.1,0.1,0.1c-2.7-1.9-5.5-3.6-8.5-5.1c0,0,0,0,0,0l-6.4,13.2c-0.4-3.2-1.1-6.5-2.4-8.9 c-1.3-2.4-2.3-4.3-3-5.8l0.9-2.8c-5.8-1.4-15.6-1-15.2-1l2.1,8.4c-0.2,0.3-0.4,0.7-0.6,0.9c-1.6,2.5-2.8,7-3.3,9.3L45.9,9.1 C46,9.1,46.1,9,46.1,9c-6.2,1.6-13.4,4.7-13.9,6c-0.6,1.5,2.2,3.6,3.4,4.7c0.9,0.9,8.4,7.4,11.4,10.1c-0.4,0.2-0.7,0.5-1.1,0.7 c-4.1,3.1-12,11.1-15.8,15.6c-3.8,4.5-10,12.7-10,12.7c-2.2,2.4-3.6,5.4-5.4,7.3c-1.9,2-5.8,5.4-8,10c-2.2,4.6-3.2,10.6-0.2,15.6 c1.7,2.8,4.3,5,7.7,6c0,0,0,0,0,0s5-2.4,7.2-4.6c2.2-2.1,4.3-4.5,4.8-5.3c0.5-0.8,1.6-2.2,2.5-1.6c0.9,0.7,0.5,1.8-0.1,2.7 s-2.2,3.1-4.6,5.4c-2.1,1.9-3.1,2.4-4.7,3.3c-0.8,0.5-1.7,0.6-2,0.7c1.8,0.1,3.7-0.2,5.8-0.9c5.7-2,8.8-4.7,10.1-7.1l0,0 c0,0,9.2,1.3,17-1.3c7.9-2.5,13-6.2,13-6.2s-1.6,9.9-2.8,18.4c-1.3,8.6-2.9,19-2.2,19.9c0.7,0.8,15.7,1.7,30.9,1.3 c15.2-0.4,29-1.4,29.7-2.1c0.5-0.5,1.7-10.6-1.1-25.4l4.7-0.5c0,0,0,0,0,0C123,90.3,123.4,86.1,123.3,82.3z M14.6,87 c-1.8-0.3-0.2-3.1-0.9-4.6C13,81,11,81.3,11.1,79.7c0.1-2.2,5.4-2.8,6.6,0.6C18.8,83.8,16.5,87.4,14.6,87z M89.8,47.4 c0,0,1.3,0.7,2.8,2.3c1.3,1.4,2.2,2.6,2.2,2.6s-10.1,8.1-10.2,7.5C84.4,59.3,89.8,47.4,89.8,47.4z M27.1,58.2 c-1.1-0.5-2.3-0.8-3.4-0.7L33,45.8c0,0,1.6,2-1.1,6C30.7,53.6,28.4,56.5,27.1,58.2z M37.2,87.5c-0.7,0-2,0-3.2-0.1 c0.1-1,0.1-2.1-0.1-3.2c0.9-0.7,2.3-1.4,3.8-1.2c2.8,0.5,3,4.3,3,4.3S38.6,87.5,37.2,87.5z M52,84.8c0,0-1.4,0.7-2.6,1.1 c-0.9,0.3-2.8,0.6-2.8,0.6s0.8-8.5-2.7-10c-3.5-1.5-7.2,0.2-10.1,1.9c-0.7,0.4-1.4,0.8-1.9,1.1c-0.2-0.3-0.5-0.5-0.8-0.7 c-0.5-0.4-1.2-0.9-1.7-1.4c2.6-2.3,10.6-8.8,16-7.8C53.6,71.1,52,84.8,52,84.8z M60.1,47.2c-0.8,1.5-1.8,3.8-2.9,9.3 c-1.1,5.5,3.2,8,4.7,13.4c1.1,4.1-0.2,9.9-0.2,9.9l-3.4,1.6c0,0,5.3-13.1-7.3-17.5c-9.2-3.3-16.2,1.5-19.3,4.3 c0.5-1.8,0.7-3.8,0-5.5c0.4-0.3,0.8-0.5,1.3-0.9c3.4-2.5,5.2-5.4,7.3-8.8c1.9-3.1,2-8.5,2.8-12.7c0.8-4.2,1.6-4.4,2.7-5.4 c1-1,2.5-1.5,2.5-1.5s-0.2,4,0.3,7.9c0.4,3,4.2,3.5,6.5,1.8s3.3-12.2,3.3-12.2l2-0.8c0,0,0-0.4,0.6-4.5c0.6-4.1,1.7-5.9,3-7.8 c1.4-2.1,4.6-5.9,5.6-6c0.9-0.1,2,2,3.1,4.4c1,2.2,3.1,6.3,2.8,12.7c-0.3,6.4-2.4,7.1-4.1,9.4c-3.2,4.3-3.3,10.6-1.4,12 c1.9,1.4,4-2.7,4.8-4c0.8-1.3,3.3-7.5,3.3-7.5s2.1,0.8,3.1,1.3c1,0.5,2.4,1.8,2.4,1.8s-2.2,5.2-3.5,8.9c-1.4,3.8-5.4,14.1-6.3,17 c-0.9,2.8-2.8,7.7-2.2,8.4c0.4,0.4,1.8-0.5,2.6-1c0.8-0.5,10.1-6.2,13.7-8.7c3.6-2.5,11.1-8,11.1-8s0.6,0.6,1.2,1.6 c0.8,1.3,1.3,2.4,1.3,2.4s-10.3,9.4-17.6,14.5c-3.9,2.8-16.1,9.7-16.1,9.7s0.7-3.7,0.7-5.6s1-8,0.2-11c-2.1-7.3-4-6.5-4.7-12.8 c-0.7-6.2,2.7-8,0.5-11.4C63,43.8,60.6,46.4,60.1,47.2z M63.7,101.5c0,0,8.1-3.7,12.5-6.1c4.4-2.4,10.1-7.5,12.2-9.2 C90.4,84.6,105,69,105,69s0.9,1.4,1.6,2.9c0.7,1.5,1.2,3.2,1.2,3.2s-1.3,1.9-3.8,4.7c-2.5,2.7-14.4,15.1-21.9,20 c-7.5,4.9-19.3,9.4-19.3,9.4L63.7,101.5z M95.2,110.2c-1.5,1.4-3,3.1-6.9,5.5c-1.4,0.8-6.6,3.5-6.6,3.5s-4.2,0.1-7,0.1 c-1.2,0-8.1-0.1-7.8-0.5c0.8-0.8,14.2-5.8,19.2-10.4c1.8-1.6,13.2-12.3,17-16.6s7.9-9.1,7.9-9.1s0.3,1.4,0.8,3 c0.5,1.6,0.7,2.8,0.7,2.8s-4.8,7.2-7.3,10.5C102.6,102.4,96.6,108.8,95.2,110.2z M111,117.7c-2,0.1-7.7,0.3-7.7,0.3 s4.1-5.6,5.6-7.9c1.4-2.3,5.6-10.3,5.6-10.3c0.6-1,0.8,4.4,0.9,6.3c0.1,1.8,0.6,10.1,0.6,10.9C116,117.3,113,117.6,111,117.7z"/>
  </g>
</svg>