<svg viewBox="0 0 128 128" xmlns="http://www.w3.org/2000/svg">
  <g>
    <path d="M121.85,64c-1.67-37.99-29.3-60-55.96-60c-20,0-56.17,17.94-59.67,57.05C2.65,101.02,32.75,124,65.89,124 S124.7,97.01,121.85,64z M60.49,100.05C39.66,97.76,31.1,83.7,31.1,64.92c0-18.77,15.86-37.16,32.12-37.16 c16.26,0,30.91,15.5,33.5,37.16C98.96,83.68,81.05,102.31,60.49,100.05z"/>
    <path d="M64,43.32c-11.02,0-19.96,9.26-19.96,20.68S52.98,84.68,64,84.68S83.96,75.42,83.96,64S75.02,43.32,64,43.32z M64,81.68 c-9.35,0-16.96-7.93-16.96-17.68S54.65,46.32,64,46.32c9.35,0,16.96,7.93,16.96,17.68S73.35,81.68,64,81.68z"/>
    <ellipse cx="64" cy="64" rx="9.16" ry="8.53" transform="matrix(0.4369 -0.8995 0.8995 0.4369 -21.5285 93.6014)"/>
  </g>
</svg>