<svg viewBox="0 0 128 128" xmlns="http://www.w3.org/2000/svg">
  <g>
    <path d="M70.78,57.85l0.04-1.34c0,0,10.49-5.24,11.04-5.7c0.56-0.47,1.03-6.87-0.18-7.52c-0.2-0.1-1.3-0.21-3-0.3 c4.07-7.57,19.28-35.88,19.64-36.63c0.73-1.58,1.12-2.23-1.67-2.23C93.86,4.12,70.1,3.34,69.09,4.24 c-0.69,0.62-4.41,7.72-6.98,12.72c-3.31-7.3-6.04-13.08-6.44-13.24c-0.55-0.22-7.97-0.3-15.22-0.38 c-7.26-0.09-14.34-0.18-14.94,0.38C25,4.19,40.44,31.94,46.54,42.86c-1.49,0.11-2.42,0.25-2.55,0.43c-0.76,1.1-0.65,6.13-0.28,6.78 c0.37,0.65,12.35,6.22,12.35,6.22l-0.01,1.72c-15.01,3.05-27.07,14.75-27.07,32.71c0,23.96,21.66,34.63,36.06,34.12 c15.88-0.57,34.9-12.95,33.75-35.81C97.86,70.57,84.48,60.38,70.78,57.85z M48.7,47.66v-0.74l0.11,0c0.1,0.18,0.16,0.28,0.16,0.28 s4.04,0.52,13.06,0.6c9.02,0.08,13.49-0.52,13.49-0.52s-0.03-0.06-0.07-0.17L77,47.12l0.05,0.84l-6.35,3.66c0,0-0.03-1.4-0.72-1.75 s-11.8-0.29-12.74-0.24s-0.94,1.73-0.94,1.73L48.7,47.66z M84.56,112.18c-5.64,5.53-13.12,8.49-20.03,8.49 c-0.25,0-0.51,0-0.76-0.01c-7.5-0.25-14.91-3.41-20.33-8.66c-5.8-5.62-8.98-13.22-8.94-21.39c0.09-19.95,17.53-29.2,29.36-29.2 c0.03,0,0.07,0,0.1,0c16.03,0.07,29.19,12.53,29.56,29.42C93.68,98.35,90.6,106.24,84.56,112.18z"/>
    <path d="M63.99,64.72c-0.04,0-0.12,0.01-0.15,0.01c-10.61,0-26.3,8.68-26.34,25.88c-0.03,12.86,9.93,26.08,26.52,26.64 c6.32,0.2,12.83-2.22,18.09-7.39c5.46-5.37,8.53-12.29,8.42-18.99C90.29,76.34,78.41,64.78,63.99,64.72z M72.01,108.82 c-0.52,0.69-14.19,0.51-14.7,0.17c-0.51-0.34-0.6-7.3,0.09-7.56c0.35-0.13,3.7-0.09,3.7-0.09l0.17-18.05c0,0-4.56,2.15-5.16,1.55 c-0.31-0.3-0.78-7.05-0.26-7.82c0.33-0.5,9.53-3.86,10.65-4.12c1.12-0.26,2.06,0.27,2.15,1.12c0.09,0.85-0.19,27.43-0.19,27.43 s3.27-0.21,3.7,0.31C72.4,102.04,72.53,108.13,72.01,108.82z"/>
  </g>
</svg>