<svg viewBox="0 0 128 128" xmlns="http://www.w3.org/2000/svg">
  <g>
    <path d="M106.9,119.6l-5.2-14.3c-0.2-0.6-1.3-1.2-2.6-0.9l-2.2,0.6c-1.5,0.8-1.9,1.7-1.9,1.7l-4.8-2.7c0,0,0,0,0,0l-11.8-8 l-1.5-5.9c1.8-1.3,2.9-2.3,2.9-2.3s-3-3.4-3.5-9.7c1.3-3.8,0-8.1-1.4-10.7L74.1,66c2.9-0.4,4.9-0.4,4.9-0.4 c-8.8-8.3-4.6-15.4-4.6-15.4s0.1-1.2,4.6-2.1c0,0-0.1-0.7-0.1-2c1.6-0.3,3-0.6,4.1-0.8c6.2-1.4,7.2-3.6,8.7-5.5 c1.2-1.5,7.2-10.4,7.2-10.4l0-0.1c1.1-1.1,5.1-4.9,5.5-5.6c0.9-1.5,2.9-4.9,2.5-8.7c-0.1-1-0.6-1.4-1-1.4c-0.2,0-0.5,0.1-0.6,0.3 c0,0,0,0,0,0C104.6,8,99.6,3.4,93.5,3.4c-6.4,0-11.7,5.2-11.7,11.7c0,6.4,5.1,11.5,11.4,11.6c-0.1,0.2-0.1,0.4-0.1,0.6l-0.2,0 l-9.3,8.5c0,0,0,0,0,0c-0.1,0-1.2,0.1-2.9,0.2c0-0.1,0.1-0.2,0.1-0.3c0,0-9.4,0.1-13.7,1.3c-0.2-1-0.3-2.2,0.1-3.5 c0.9-0.1,1.5-0.4,1.7-1.4C69.5,30,70,29,70.5,28c0.7-1.2,1.4-2.5,1.7-5.8c0.4-3.2-0.6-6.2-2.8-8.5c-2.6-2.8-7.2-4.5-11.5-4.4 c-2.9,0.1-5.6,0.8-7.8,2c0,0-4.4,2.5-5.2,4.7c-0.9,2.4,0.2,3.7,0.4,3.9c0.2,0.2,0.5,0.2,0.7,0.2l0,0c0,0,0,0,0,0 c0,0.3-0.1,0.5-0.1,0.8c-0.1,1.9,0.1,3.8,0.5,5.1c0,0.2,0.5,1.3,0.5,1.7c0.3,1.4-2.3,3-2.5,4.6c-0.2,1.2,2.3,1.7,2.5,1.9 c0.3,0.2,0.4,0.7,0.5,1.3c0,0,0,0,0,0l0.1,0.4c0,0.1,0.1,0.2,0.1,0.3l0.2,0.7c0,0,0,0,0,0c0.6,1.6,1.8,3.2,5.7,3.3 c0.2,0,0.4,0,0.6,0c1.8,0,2.2-0.2,2.2-0.2l0.2,2.7c0,0-0.1,0.1-0.1,0.1c-0.9,1-1.7,2-2.5,3.4c-3.7,3.7-5.9,6.5-5.9,6.5 c0.2,0,0.4,0.1,0.6,0.1L33.4,69.2c-3.1,2.6-3.6,6.2-4.8,8.2c-1.1,1.8-2,3.5-2,3.5c-0.3,0.4,0.2,1,1.1,1c0.5,0,1-0.2,1.6-0.7 c0.6-0.5,1.1-1.4,1.6-2.3c0,0,0,0,0,0c0.1,0.8,0.3,1.4,0.4,1.6c0.3,0.4,0.8,0.6,1.2,0.6c0.3,0,0.5-0.1,0.7-0.4 c0.3-0.5-0.4-1.4-0.4-1.9c0-0.6,0.3-1.1,0.3-1.1c0.2,0.6,1.5,1.8,2,1.8c0,0,0,0,0.1,0c1.3-0.4-0.7-2-0.6-3.1 c0.1-0.8,0.2-1.5,0.3-2.1c-0.2,0-0.5,0-0.8,0.1c-0.1,0-0.3,0.1-0.4,0.2c0.1-0.1,0.3-0.1,0.4-0.2c0.3-0.1,0.5-0.1,0.8-0.1 c2,0,1.6,3,3,3.8c0.1,0.1,0.3,0.1,0.4,0.1c0.5,0,0.9-0.5,1-1c0-1-0.7-1.5-0.4-3c0.3-1.7,0.5-2,0.6-2.8L51,61.4 c0.2,6.2,1.9,12.2,2.2,13.2l0,0.1l-6.7,3.5c0,0,0,0,0,0l-4.8,2.2c-2.9,1.3-5.8,4.9-4.2,10.9c0.6,2.2,3.1,8.6,4.8,13l0,0l1.8,5.5 c-0.5,0.4-0.7,0.6-0.7,0.6l-5.3,3.2c-1.3,1.1-1.9,2.9-1.3,4.6l0.4,1.3c0.1,0.3,0.4,0.6,0.8,0.8c0.2,0.1,0.5,0.2,0.8,0.2 c0.2,0,0.4,0,0.6-0.1l0.8-0.3l11.5-3.5c2.3-0.8,3.2-1.8,3.1-2.9c0-0.3,0-0.6-0.1-0.9l-0.6-2.2c-0.3-1-1.1-2-1.6-2.6l-1.2-6.3 c-0.1,0-0.2,0-0.3,0c0,0,0.1,0,0.1,0c-0.9-4.5-1.9-9.9-2.3-11.5l7.7-2.5c0.9,1.3,1.4,2.2,1.4,2.2s1.7-0.8,3.9-1.8 c1.1,3.1,2.6,6.5,2.9,7.1c0.3,1,0.6,1.9,0.8,2.6c0.9,3.1,2.5,6.3,7.5,8.8l14.5,6c0,0,0,0,0,0l8.1,3.6l4.2,4.9 c1.1,1.3,3,1.8,4.6,1.3l1.3-0.4C106.6,121.7,107.2,120.7,106.9,119.6z M105,14.2c0,0.1-0.1,0.3-0.1,0.4 C104.9,14.5,104.9,14.4,105,14.2z M83.9,15.1c0-5.3,4.3-9.7,9.7-9.7s9.7,4.3,9.7,9.7c0,0.1,0,0.1,0,0.2c-0.3-1.7-0.7-2-1.1-2 c0,0-0.1,0-0.1,0c-0.7,0.1-1.1,0.5-1,1.6c0.2,2.3,0.4,4.1,0.3,5.3c0,0-0.9-2.8-1.7-4.4c-0.3-0.7-0.7-1-1.1-1 c-0.5,0-0.9,0.7-0.8,1.3c0.4,1.8,1.2,4.3,0.7,4.5c0,0-1.2-1.6-1.9-2.5c-0.1-0.1-0.4-0.3-0.8-0.3c-0.2,0-0.3,0-0.5,0.1 c-0.2,0.1-0.5,0.8,0,1.7c0.5,1,1.7,4,1.7,4s-0.9,0.4-1.7,1c-0.4,0.1-0.9,0.1-1.3,0.1C88.2,24.8,83.9,20.4,83.9,15.1z M94,25.6 C94,25.6,94,25.6,94,25.6C94,25.6,94,25.6,94,25.6z M83.8,37.4c0.4,0,0.7-0.1,1-0.4l9-8.3c0.5-0.2,0.9-0.7,0.9-1.2 c0.2-1.5,2.5-2.5,2.5-2.5c0.4-0.1,0.7-0.4,0.8-0.8c0.2-0.4,0.2-0.8,0-1.1c0,0-0.2-0.5-0.4-1c0.2,0.1,0.4,0.2,0.7,0.2 c0.2,0,0.4,0,0.6-0.1c0.6-0.2,0.9-0.6,1-1.1c0.3,0.4,0.8,0.7,1.3,0.7c0,0,0.1,0,0.1,0c0.5,0,1-0.4,1.2-0.8c0.1,0.1,0.2,0.2,0.3,0.2 c0.2,0.1,0.5,0.2,0.7,0.2c0.2,0,0.3,0,0.5-0.1c-0.3,0.7-0.7,1.3-0.9,1.7l0,0c-0.3,0.4-2,2.2-5.3,5.3c-0.2,0.2-0.3,0.4-0.4,0.6 c-2.1,3.1-6.1,8.9-6.9,10c-0.2,0.2-0.4,0.5-0.5,0.7c-1.2,1.6-2.3,3.1-7.3,4.2c-1,0.2-2.2,0.5-3.6,0.8c0.1-1.8,0.5-4.1,1.3-6.8 C82,37.6,83.2,37.5,83.8,37.4z M55.6,38.2c-0.2,0-0.6,0.1-1.3,0.1c-0.2,0-0.4,0-0.6,0c-2.5-0.1-3.4-0.8-3.8-1.9 c0.2-0.1,0.4-0.3,0.6-0.4c0.8-0.7,0.2-1.4-0.8-0.9c-0.1,0-0.1,0.1-0.2,0.1c0,0,0-0.1,0-0.1c-0.2-0.8-0.4-1.7-1.1-2.4 c-0.3-0.3-0.7-0.5-1.1-0.6c-0.1,0-0.3-0.1-0.4-0.2c0.2-0.2,0.3-0.4,0.5-0.6c0.9-1.1,2-2.4,1.6-4c-0.1-0.4-0.2-0.9-0.5-1.7l-0.1-0.2 c-0.4-1.1-0.5-2.8-0.4-4.3c0-0.4,0.1-0.8,0.1-1.2c2.3-0.3,6-0.7,8.1-0.4c0.4,0.1,0.9,0.2,1.1,0.5c0.1,0.2,0.2,1.2,0.3,1.4 c0.4,2.4,0.3,4,1.1,5.5c0.1,0.2,0.7,0.5,0.7,0.5l0.9-1.6c0.6-0.9,1.1-1.7,1.9-1.6c2.4,0.3,2.4,4.6-0.3,5.8c0,0,0.7,2.8,3.3,3.5 c-0.4,1.6-0.3,3,0,4.2C63.4,38.3,61,39,58.5,41l-0.1-1.1l-0.2-3.3L55.6,38.2z M31.5,77.8c0.1-0.1,0.1-0.3,0.2-0.4 C31.7,77.5,31.6,77.6,31.5,77.8z M33.3,75c-0.1,0.4-0.1,0.8-0.2,1.3c-0.1,0-0.2,0-0.3,0c0.1-0.5,0.3-0.9,0.4-1.3 c-0.4,0.4-0.8,1-1.2,1.7c0.5-0.9,1-1.7,1.7-2.1C33.6,74.8,33.5,74.9,33.3,75z M31.8,77.3c0.1-0.2,0.2-0.3,0.3-0.5 C31.9,77,31.9,77.1,31.8,77.3z M38.4,70.5c-0.3,0.3-0.5,0.6-0.5,1c0,0.2-0.1,0.4-0.2,0.7c-0.1,0.4-0.3,1-0.4,1.9 c-0.5-0.7-1.2-1.2-2.4-1.2c-0.4,0-0.8,0.1-1.2,0.2c-1,0.3-1.8,1-2.4,1.9c0.7-1.6,1.5-3.3,3-4.6c0,0,0.1-0.1,0.1-0.1l15.8-16.8 c0.4,0.2,0.8,0.4,1.2,0.7c-0.1,0.3-0.1,0.5-0.2,0.8c-0.3,1.4-0.4,2.9-0.4,4.5L38.4,70.5z M44.7,105c1-0.6,2.8-1.3,5-1.4l0.7,3.8 c-1.8,0.1-3.4,0.7-4.6,1.3L44.7,105z M48.4,88.3l-1.8,0.6l0.5,1.8c0.4,1.5,1.4,6.5,2.2,11c-2.2,0.2-4,0.9-5.2,1.5 c-1.7-4.3-4-10.4-4.6-12.4c-1.3-4.7,0.8-7.5,3.1-8.5l6.5-2.9c2.4,1.5,4.8,4.3,6.5,6.6L48.4,88.3z M87.7,111.1 C87.7,111.2,87.7,111.2,87.7,111.1C87.7,111.2,87.7,111.2,87.7,111.1z M87.8,112.4C87.8,112.4,87.8,112.4,87.8,112.4 C87.8,112.4,87.8,112.4,87.8,112.4z M87.7,111.5C87.7,111.5,87.7,111.5,87.7,111.5C87.7,111.5,87.7,111.5,87.7,111.5z M87.8,112.2 c0,0,0,0.1,0,0.1C87.8,112.3,87.8,112.2,87.8,112.2z M87.8,110.3L87.8,110.3l-13.6-5.7c-4.6-2.2-5.7-5.1-6.4-7.5 c-0.2-0.6-0.4-1.4-0.7-2.3c2.9-0.6,5.8-2.1,8-3.5l1.4,5.2l0.2,0.7l0.6,0.4l11.9,8C88.2,107.4,87.9,109.1,87.8,110.3z M87.7,110.8 C87.7,110.8,87.7,110.7,87.7,110.8C87.7,110.7,87.7,110.8,87.7,110.8z M89.6,104.8C89.6,104.8,89.6,104.8,89.6,104.8 C89.6,104.8,89.6,104.8,89.6,104.8z M89.7,111.2c0-1,0.2-2.7,1.1-4.5l4,2.3c0,0.9,0,1.7,0.1,2.4l-0.3,2L89.7,111.2z"/>
    <path d="M51,26.3c-0.7,0.1-1.1,1-1,2c0.1,1,0.7,1.8,1.4,1.7c0.7-0.1,1.1-1,1-2C52.3,27,51.7,26.2,51,26.3z"/>
    <path d="M51.1,23.7c-1.4,0-2.1,0.5-2.3,1c-0.3,0.7,0.1,1.4,1.2,0.9c1.4-0.7,3.2,0.3,3.7,0.1c0.3-0.1,0.2-0.5-0.2-0.9 C53.1,24.3,52.4,23.7,51.1,23.7z"/>
  </g>
</svg>