<svg viewBox="0 0 128 128" xmlns="http://www.w3.org/2000/svg">
  <g>
    <path d="M109.9,111.1c-1.4,0.2-2.5,1.1-2.4,1.9s1.4,1.4,2.9,1.2c1.4-0.2,2.5-1.1,2.4-1.9S111.3,110.9,109.9,111.1z"/>
    <path d="M25.6,112c0.4-1.1-0.9-2.6-2.9-3.2c-1.9-0.6-3.8-0.2-4.1,1s0.9,2.6,2.9,3.2C23.4,113.5,25.3,113.1,25.6,112z"/>
    <ellipse cx="58.2" cy="110.5" rx="2.4" ry="4.7"/>
    <ellipse cx="62.8" cy="93.9" rx="2.2" ry="4.1"/>
    <path d="M76.4,96.6c-1.8,0-3.4,2.3-3.8,5.4c-0.1,0.6-0.1,1.2-0.1,1.9c0,4,1.8,7.2,4,7.2s4-3.2,4-7.2c0-0.1,0-0.2,0-0.3 C80.2,99.7,78.5,96.6,76.4,96.6z"/>
    <path d="M48.2,95c-1,0-1.9,1.5-1.9,3.3s0.8,3.3,1.9,3.3c1,0,1.9-1.5,1.9-3.3S49.2,95,48.2,95z"/>
    <path d="M102.3,118.4c2.3-1.4,2.7-2.8,2.5-3.9c-0.2-1-1.3-2.3-5.8-2.6c14.8-9.6,25-25.9,25-47.9c0-37.4-28.8-57.9-60-57.9 S4,26.1,4,64c0,22.4,10.2,38.6,25,48.1c-0.1,0.2-0.2,0.5-0.2,0.7c-0.1,1,0.3,2,2.1,3c-6.5,1.1-7.5,2.6-7.5,4.1 c0,1.8,1.8,3.3,10.7,4.5c6.1,0.8,14.2,1.3,22.8,1.3c7.6,0,14.9-0.4,20.7-1c3.1,0.5,7.2,0.8,11.6,0.8c14.5,0,17.5-2.2,17.5-4 C106.7,120.3,106,119.2,102.3,118.4z M41,83.1c6.1-6.3,14.9-10.3,23-10.3c6.4,0,14.2,3.1,20.2,8.1c0.8,0.7,1.6,1.4,2.3,2.1 C79.6,81.7,72,81,64,81C55.8,81,48,81.7,41,83.1z M25,104.1C13.9,94.3,8,80.5,8,64c0-16.5,5.9-30.4,17-40.2 c10.1-8.9,24-13.7,39-13.7c15,0,28.9,5,39,13.9c11.1,9.8,17,23.6,17,40c0,16.3-5.9,30.1-17,39.9c-3.9,3.4-8.3,6.3-13,8.5l0-5.7 c4.6,1.1,9.3-1.7,9.3-6.1c0-5.8-2.2-11.2-5.6-15.9c-7-9.4-19.2-15.8-29.7-15.8c-11.4,0-23.4,6.4-30.1,15.9 c-3.3,4.7-5.3,10-5.3,15.8c0,4.5,4.7,7.2,9.3,6.1v3.2c-1.6,0-3.3,0-4.7,0.2C30.3,108.3,27.5,106.3,25,104.1z M89.1,122.4 c-4.2,0-8.4-0.3-11.3-0.7l-0.2,0l-0.2,0c-5.7,0.7-13,1-20.5,1c-15.8,0-26.6-1.5-29.8-2.8c1.4-0.5,4.4-1.3,10.1-1.9l3-0.3l4.8-0.5 l-7.5-2.1c-2.6-0.7-4.1-1.4-5-1.8c1.1-0.3,3.2-0.6,6.4-0.4c0.2,0,0.3,0,0.5,0l1.6,0.1l0-7.4l0.1-18.7c3.1-0.7,10-1.8,22.4-1.8 c16.4,0,24.5,2.4,24.5,2.4v0l-0.7-0.2l-0.2,18.3l-0.1,8l0,2.2l1.7-0.2c1.8-0.3,3.4-0.4,4.8-0.5c4.3-0.3,6.9-0.1,8,0.2 c-0.6,0.5-2.1,1.5-5.3,2.5l-7.5,2.3l7.8,0.6c2.4,0.2,4.1,0.5,5.2,0.7C99.4,121.9,95.1,122.4,89.1,122.4z"/>
    <path d="M29.4,61.5c0.5,2.9,3.8,4.6,6.8,3.8c0.2,0,0.3-0.1,0.5-0.2l22.9-8.6c0.9-0.3,1-1.4,0.2-1.9c-4.6-2.8-16.3-10-21.3-13 c-2.1-1.3-5.1-1.3-6.9,0.3c-2.3,2-1.9,5.3,0.7,6.9c0.1,0.1,0.3,0.2,0.4,0.2l12.5,5.2l-12.2,2.4C30.8,57.2,29.1,59.3,29.4,61.5z"/>
    <path d="M69.4,56.2l22.9,8.6c0.2,0.1,0.3,0.1,0.5,0.2c3,0.8,6.3-0.9,6.8-3.8c0.3-2.2-1.4-4.2-3.8-4.9l-12.2-2.4l12.5-5.2 c0.1-0.1,0.3-0.2,0.4-0.2c2.6-1.6,3.1-4.9,0.7-6.9c-1.8-1.6-4.8-1.6-6.9-0.3c-5,3.1-16.7,10.2-21.3,13 C68.4,54.8,68.5,55.9,69.4,56.2z"/>
    <path d="M35.2,35.9c0,0,0.4,0.1,1,0.2c0.4,0.1,0.8,0.1,1.2,0.1c0.3,0,0.5,0,0.7,0c0.3,0,0.6,0,0.9,0c0.6,0,1.2-0.1,1.9-0.3 c0.7-0.1,1.4-0.4,2-0.6l0.4-0.2c0.5-0.2,1.1-0.4,1.6-0.7c0.6-0.3,1.1-0.6,1.6-1l0.7-0.5c0.5-0.4,1-0.8,1.4-1.2 c0.5-0.4,0.8-0.9,1.2-1.3l0.3-0.4c0.4-0.6,0.8-1.2,1.1-1.7c0.3-0.6,0.6-1.2,0.8-1.7l0.1-0.2c0.1-0.2,0.2-0.4,0.2-0.6l0.2-1 c0-0.2,0.1-0.3,0.1-0.5c0-0.1,0-0.2,0-0.3l0-0.2c0-0.6,0.1-0.9,0.1-0.9v0c0-0.9-0.5-1.8-1.3-2.3c-0.6-0.4-1.3-0.5-1.9-0.3 c-0.7,0.2-1.2,0.6-1.6,1.2c0,0-0.2,0.3-0.4,0.8l-0.1,0.1c0,0.1-0.1,0.1-0.1,0.2c-0.1,0.1-0.2,0.2-0.3,0.4c-0.1,0.2-0.3,0.5-0.6,0.8 c-0.1,0.2-0.3,0.4-0.5,0.7l-0.2,0.3c-0.1,0.2-0.3,0.4-0.5,0.5c-0.1,0.2-0.3,0.3-0.4,0.5c-0.3,0.3-0.7,0.7-1.1,1 c-0.2,0.2-0.5,0.4-0.7,0.6c-0.1,0.1-0.3,0.2-0.4,0.3l-0.3,0.2c-0.3,0.2-0.6,0.4-0.9,0.6c-0.4,0.3-0.8,0.5-1.2,0.7 c-0.2,0.1-0.4,0.2-0.6,0.3c-0.2,0.1-0.4,0.2-0.7,0.3c-0.1,0.1-0.3,0.1-0.4,0.2c-0.2,0.1-0.5,0.2-0.7,0.3c-0.3,0.1-0.7,0.2-1,0.3 l-0.2,0.1c-0.2,0.1-0.4,0.1-0.6,0.2c-0.5,0.1-0.8,0.2-0.8,0.2L35,31.1c-0.8,0.3-1.5,0.9-1.7,1.8C33,34.2,33.8,35.6,35.2,35.9z"/>
    <path d="M75.4,24.4c0,0.2,0.1,0.3,0.1,0.5l0.3,1c0.1,0.2,0.1,0.4,0.2,0.6l0.1,0.2c0.2,0.5,0.4,1.1,0.8,1.7c0.3,0.6,0.8,1.2,1.1,1.8 l0.3,0.3c0.4,0.5,0.7,0.9,1.2,1.3c0.4,0.4,0.9,0.8,1.3,1.2l0.5,0.4l0.3,0.2c0.5,0.3,1,0.7,1.5,1c0.5,0.3,1.1,0.5,1.6,0.7l0.5,0.2 c0.6,0.2,1.3,0.5,2,0.6c0.7,0.2,1.3,0.3,1.8,0.3c0.3,0,0.6,0,0.9,0c0.2,0,0.5,0,0.7,0c0.5,0,0.9-0.1,1.2-0.1c0.7-0.1,1-0.2,1-0.2 c0.9-0.2,1.5-0.9,1.8-1.7c0.2-0.6,0.1-1.3-0.2-1.9c-0.3-0.6-0.8-1-1.5-1.2L92.6,31c0,0-0.3-0.1-0.8-0.2c-0.1,0-0.3-0.1-0.5-0.1 l-0.3-0.1c-0.3-0.1-0.6-0.2-1-0.3c-0.2-0.1-0.5-0.2-0.7-0.3L89,29.8c-0.2-0.1-0.4-0.2-0.6-0.3c-0.2-0.1-0.4-0.2-0.6-0.3 c-0.4-0.2-0.8-0.5-1.3-0.7c-0.3-0.2-0.5-0.3-0.8-0.5c-0.1-0.1-0.3-0.2-0.4-0.3c-0.1-0.1-0.3-0.2-0.4-0.3c-0.2-0.2-0.5-0.4-0.7-0.6 c-0.4-0.3-0.7-0.7-1-0.9c-0.1-0.2-0.3-0.3-0.5-0.5c-0.2-0.2-0.3-0.3-0.4-0.5c-0.1-0.1-0.2-0.3-0.3-0.4c-0.2-0.2-0.3-0.4-0.5-0.6 c-0.2-0.3-0.4-0.6-0.6-0.8c-0.1-0.1-0.2-0.3-0.2-0.3c0-0.1-0.1-0.2-0.1-0.2l-0.1-0.1c-0.3-0.5-0.4-0.8-0.4-0.8 c-0.5-0.8-1.4-1.3-2.3-1.2c-0.7,0-1.3,0.3-1.8,0.8s-0.7,1.1-0.7,1.8c0,0,0,0.3,0.1,1C75.3,24,75.3,24.2,75.4,24.4z"/>
  </g>
</svg>