<svg viewBox="0 0 128 128" xmlns="http://www.w3.org/2000/svg">
  <g>
    <path d="M77.5,42.7c-5.8,0.2-8.7,2.2-8.7,2.2l8.4,9.2l8.5-9.1c0,0-2.2-2.3-7.5-2.3C78,42.7,77.8,42.7,77.5,42.7z M77.2,51.1 l-4.9-5.5c1.3-0.4,3.1-0.8,5.3-0.9c0.2,0,0.4,0,0.6,0c1.9,0,3.3,0.3,4.2,0.7L77.2,51.1z"/>
    <path d="M103.5,24.5c-0.2-0.5-0.4-1.1-0.8-1.7c0.2-0.2,0.4-0.4,0.4-0.4c0,0-3.9-9.2-11-15.4c-3.7-3.2-6.4-4.8-7.9-4.7 c-0.8,0-1.8,0.2-2.4,1.9c-0.6,1.7-0.9,3.2-0.6,3.9c0.3,0.9,1.2,1.3,2.6,1.2c1.8-0.2,3.6-0.2,3.6-0.2c3.3,0.7,5.1,15,5.2,15.9 c0.4,0.3,0.9,0.5,1.3,0.6l0.2,0.8l-4.4,3.6c0,0-2.4,0.4-5.1,0.9c1.2-2.3,2.1-5,2.4-7.8c0-0.1,0-0.2,0-0.2l0-0.1 c0.1-1.4,0.1-2.9-0.1-4.3l0,0c0,0,0-0.1-0.1-0.4c-0.3-1.7-0.8-3.3-1.7-4.8c-0.9-1.5-2.1-2.7-3.6-3.6c-1.5-1-3.4-1.8-5.8-1.9 c-0.1,0-0.2,0-0.3,0c-0.5,0-1,0-1.5,0c-3.2,0.2-5.6,1.3-7.3,2.8c-1.3,1.1-2.4,2.5-3.1,4.1c-0.6,1.3-1,2.8-1.2,4.4 c0,0.2,0,0.3-0.1,0.4c0,0.1,0,0.1,0,0.2c-0.1,0.9-0.1,1.9-0.1,2.9c0,1.2,0,2.7-0.1,4.4c-0.3,1-0.9,1.7-2.3,2.6 c-2.2,1.5-3.7,3.5-4.1,5.5c-1.5,1.2-2.3,2.2-2.3,2.2l0,0c0,0,0,0,0,0c-1.3,1.7-1.8,5.5-4.9,10.1C48,47,47.6,46.5,47.2,46L49,44 c0.4-0.5,0.5-1.2,0.3-1.7l-2-4.7c-0.3-0.8-1.2-1.2-2-0.9c-1.3,0.4-3.2,1.2-3.8,2.2c-1.2,2.2,0.5,8,1.5,10.2c0.5,1.1,1,2.1,1.5,3 c-0.8,0.7-1.6,1.5-2.5,2.2C34.6,60,28.8,61.3,24.6,64c-0.9,0.6-0.8,1.8,0.1,2.3c3.6,1.8,14.7,5.2,14.6,16.1c0,8.5-3.9,12,1.4,17.9 c2.6,2.9,5.4,4,8.2,4c2.9,0,5.7-1.1,8.1-2.4c-0.9,3.4-2.4,8.1-4.6,11.7c-1.9,2.6-5.1,4.7-6.7,9.1c-0.8,2,3.6,4,7,2.1 c2-1.1,5.1-8,5.1-8c2.7-5,10.9-12.9,10.9-12.9c-0.2-1-0.5-1.8-1-2.5c0.7-1.2,1.5-2.5,2.3-3.8c0,0,0.1,0,0.1,0 c6.5,0,10.4,2.6,12.3,4.3c0.3,0.2,0.6,0.4,0.9,0.4c0.5,0,1-0.3,1.2-0.8C86.9,95.7,94,77.6,95.4,65c1.2-10.8,0-18.6-1.7-24.1 c3.7-4.3,8.1-9.3,8.9-10.4C104,28.7,104.5,27.3,103.5,24.5z M78.4,33.8c0,3-3.1,4.7-3.1,4.7s-3.5-1.4-3.5-4.6l0-0.2 c-2.1-0.9-3.9-2.8-5.1-5.4l-0.4-3.1c-0.1-1.1-0.3-3.7,0.5-4.4c1-0.8,3.9-3,4.8-5.1c0,0,3.8,3.3,10.4,4.5c1.8,0.3,1.7,3.5,1.7,4.3 c0,0.4,0,0.7,0,1.1c-0.8,3.7-2.8,6.6-5.4,8L78.4,33.8z M53.8,41c0.4-1.1,0.8-2,1.1-2.5c0.5-0.5,3-1.8,5.5-3 c0.5,0.1,1.1,0.2,1.8,0.4c-2.3,1.1-4.5,3-5.8,6.1l-3.1,7.4c0,0-0.1-0.1-0.1-0.1c-0.2-0.1-1.6-0.1-3.1-0.9 C52.1,45.6,53.1,42.9,53.8,41z M48.9,102.4c-2.5,0-4.7-1.1-6.7-3.3c-2.9-3.2-2.5-5.2-1.7-9.1c0.4-2.1,0.9-4.4,0.9-7.5 c0-11-9.6-15.2-14.2-17.3c-0.1-0.1-0.2-0.1-0.4-0.2c1.1-0.6,2.4-1.2,3.9-1.9c3.5-1.6,7.8-3.6,12.7-7.5c0.9-0.7,1.7-1.4,2.4-2.1 c2.3,3.4,4.6,5,4.6,5s0.5,0.1,1.2,0.1c0.4,0.2,0.8,0.4,1.2,0.6c0.6,0.3,1.2,0.4,1.8,0.4c1.4,0,2.7-0.9,4-2.5c1.1-1.4,3.5-5.2,5.3-8 c0.4,2.8,0.6,6.1,0.7,10.1c0,0-0.1,0-0.1-0.1c-0.6-0.3-1.4-0.1-1.7,0.6l-1.2,2.5c-0.2,0.4-0.1,1,0.2,1.3c-0.2,0.2-0.4,0.4-0.5,0.6 c0,0-6.9,10.9-8,14c-0.7,1.8-0.9,3.4-0.4,4.8c-1,0.9-5.4,5.2-5.8,7.3c-0.7,3.8,2.6,7.4,4.2,6c3.6-3,4.6-6.6,6.4-9.3 c0.2-0.4,0.4-0.8,0.4-1.2c1.4-0.3,2.8-1.2,4.1-2.8c1.2-1.3,3.8-5.4,5.9-8.5c0.1-0.2,0.3-0.2,0.4-0.2c0.3,0,0.6,0.3,0.5,0.7 l-8.6,22.5c-1.4-0.1-2.3,0-2.3,0s-0.1,0.6-0.3,1.6C55,100.8,51.9,102.4,48.9,102.4z M93.4,64.8C92.1,76.6,85.5,93.7,83,99.9 c-2.1-1.7-5.9-3.9-11.8-4.1c4.1-6.7,8.2-13.5,9.3-15.8c1.8-3.7,2.7-8.7,3-10.9c0.4-0.2,0.7-0.6,0.7-1l0.2-2.9 c0.1-0.7-0.4-1.2-1.1-1.3c3.3-7.7,5.1-13.7,6-18c0.7-0.8,1.6-1.9,2.7-3C94.5,51.6,93.8,61.3,93.4,64.8z M101,29.5 c-0.7,1-5.6,6.6-13,15l-0.3,0.4l-0.1,0.5c-1.2,5.4-3.3,11.6-6.3,18.5c-2.7,0.1-4.9-0.1-7-0.5c0,0,0.1,0.1,0.1,0.1l1.5,2.3 c0.3,0.5,0.2,1.1-0.3,1.4l-2.1,1.4c2.4,0.5,5,0.7,7.9,0.6l0,0.3c-0.4,2.4-1.3,6.5-2.7,9.6c-1.4,2.8-7.6,13-12.4,20.9 c-1.2-1-2.7-1.6-4.1-1.9l8.4-22.1c0.3-0.8,0.2-1.6-0.3-2.3c-0.5-0.7-1.2-1.1-2.1-1.1c-0.8,0-1.6,0.4-2.1,1.1 c-3.7,5.6-5.1,7.6-5.7,8.3c-1.3,1.4-2.6,2.2-3.7,2.2c-0.4,0-0.8-0.1-1.2-0.3c-1-0.6-1.9-1.5-0.7-4.7c0.8-2.3,5.9-10.6,7.8-13.6 l0-0.1l0-0.1c0,0,0,0,0.1-0.1l0.2-0.1l0.1-0.2l0.2-0.2c3,1.5,5.7,2.6,8.4,3.3l-1.4-2.1c-0.3-0.5-0.2-1.1,0.3-1.4l2.3-1.5 c0.1,0,0.1-0.1,0.2-0.1c-2.2-0.5-4.3-1.4-6.8-2.6c0-4.1-0.3-8-0.7-11.4l-0.7-5.5l-3,4.7c-2.5,4-4.4,6.8-5.2,7.8 c-0.8,1-1.5,1.5-2.1,1.7c0.4-0.3,0.7-0.8,1-1.4c0.9-2.3,0.3-4-0.8-5.4l3.4-8.1c1.4-3.5,4.1-5.1,6.9-5.9c0.9,0.3,1.8,0.6,2.7,0.8 c3.4,0.8,7.2,0.8,7.2,0.8s6.6,0.7,10.4-2.4c0.1-0.1,0.2-0.2,0.3-0.3c0,0,0,0,0,0l9.4-7.9l0.9-0.8l-0.2-1.1c2.1,0.1,3.9-0.9,5.1-1.9 c0.2,0.4,0.3,0.7,0.4,1C102.4,27.2,102.1,27.9,101,29.5z"/>
    <path d="M70.1,23c-0.8,0-1.4,0.7-1.4,1.5s0.7,1.4,1.4,1.4c0.8,0,1.4-0.7,1.4-1.5C71.5,23.6,70.9,23,70.1,23z"/>
    <path d="M80.8,24.2c0-0.8-0.7-1.4-1.4-1.4c-0.8,0-1.4,0.7-1.4,1.5c0,0.8,0.7,1.4,1.4,1.4C80.2,25.6,80.8,25,80.8,24.2z"/>
    <path d="M77.2,29.4c-0.9,0.6-3.8,0.6-4.7,0.1c-0.5-0.3-1,0.2-0.8,0.7c0.2,0.5,1.9,1.5,3.2,1.4c1.4,0,3-1.2,3.1-1.6 C78.3,29.6,77.8,29.1,77.2,29.4z"/>
    <path d="M74.7,28.1c0.8,0,1.2-0.6,1.3-0.8c0.1-0.2,0-0.4-0.2-0.5c0,0-0.1,0-0.1,0l-2,0.1c0,0-0.1,0-0.1,0c-0.2,0.1-0.3,0.3-0.2,0.5 C73.5,27.6,73.9,28.2,74.7,28.1z"/>
    <path d="M71.7,22.4c0.2,0.1,0.5,0,0.5-0.1c0.1-0.1,0.1-0.3,0-0.4c-0.3-0.3-0.9-0.8-2.1-0.8c-1.2,0-1.8,0.6-2,0.9 c-0.1,0.2-0.1,0.3,0,0.4c0.1,0.1,0.3,0.2,0.5,0.1s0.7-0.3,1.5-0.4C71,22,71.5,22.3,71.7,22.4z"/>
    <path d="M77.9,22.2c0.2-0.1,0.7-0.3,1.5-0.4c0.8,0,1.3,0.2,1.5,0.3c0.2,0.1,0.5,0,0.5-0.1c0.1-0.1,0.1-0.3,0-0.4 c-0.3-0.3-0.9-0.8-2.1-0.8c-1.2,0-1.8,0.6-2,0.9c-0.1,0.2-0.1,0.3,0,0.4C77.5,22.2,77.7,22.3,77.9,22.2z"/>
  </g>
</svg>