<svg viewBox="0 0 128 128" xmlns="http://www.w3.org/2000/svg">
  <g>
    <path d="M104,21.4C93.4,12.1,79.1,7,63.6,7c-27.9,0-58,17.5-58,55.9c0,17.6,6.3,30.7,15.8,39.9l-0.4,3.4l5,0.5 c10.8,8.2,24.4,12.1,37.6,12.1c9.2,0,18.1-1.9,26-5.4l10.4,1.1l0.8-7.7c1.1-0.8,2.1-1.7,3.2-2.6c11.5-10.2,17.6-24.5,17.6-41.4 C121.6,46,115.5,31.6,104,21.4z M32.7,87.8l0.2-2.4l3.3,0.3l1.4-5.3l2.6,0.2L38.8,86l2.1,0.2l1.4-5.3l2.6,0.2l-1.4,5.3l3,0.3 l-0.2,2.4l-3.4-0.3l-0.9,3.4l3,0.3l-0.2,2.4l-3.4-0.3l-1.4,5.3l-2.6-0.2l1.4-5.3l-2.1-0.2l-1.4,5.3l-2.6-0.2l1.4-5.3l-2.9-0.3 l0.2-2.4l3.3,0.3l0.9-3.4L32.7,87.8z M63.6,114.8c-10.3,0-20.3-2.5-28.8-7.1l45.7,4.8C75.1,114,69.5,114.8,63.6,114.8z M53.5,97.2 c0.4,0.5,1,0.8,1.6,0.8c0.5,0.1,0.9-0.1,1.3-0.4c0.4-0.3,0.6-0.7,0.7-1.2c0.1-0.5,0-1.1-0.3-1.5c-0.4-0.5-0.9-0.9-1.5-1.1 c-0.7-0.4-1.4-0.8-2-1.1c-0.6-0.4-1.1-0.8-1.5-1.2c-0.4-0.4-0.7-1-0.9-1.5c-0.2-0.7-0.3-1.3-0.2-2c0.1-1.2,0.7-2.3,1.6-3 c1-0.8,2.3-1.2,3.6-1.1l0.2-2.4l1.8,0.2l-0.2,2.5c1.2,0.2,2.4,1,3.1,2c0.7,1.1,1,2.4,0.8,3.7l-3.9-0.4c0.1-0.6,0-1.3-0.3-1.9 c-0.5-0.8-1.5-1-2.3-0.5c-0.1,0-0.1,0.1-0.2,0.1c-0.3,0.3-0.5,0.8-0.5,1.3c-0.1,0.5,0,1,0.3,1.4c0.4,0.5,0.9,0.8,1.5,1.1 c0.7,0.4,1.3,0.7,1.9,1.1c0.6,0.3,1.1,0.8,1.5,1.3c0.4,0.4,0.7,1,0.9,1.5c0.2,0.6,0.3,1.3,0.2,2c-0.1,1.2-0.6,2.3-1.5,3.1 c-1,0.8-2.2,1.2-3.5,1.1l-0.2,2.3l-1.8-0.2l0.2-2.3c-1.4-0.2-2.7-1-3.6-2.1c-0.8-1.1-1.2-2.5-1-3.9l3.8,0.4 C53,95.9,53.2,96.6,53.5,97.2z M69.9,100.5c0.8,0.9,0.7,2.2-0.2,3c0,0-0.1,0.1-0.1,0.1c-0.5,0.4-1.1,0.5-1.7,0.4 c-0.6,0-1.2-0.3-1.6-0.8c-0.4-0.4-0.6-1-0.5-1.6c0-0.6,0.3-1.1,0.8-1.5C67.6,99.5,69,99.7,69.9,100.5z M66.8,97.8l0.7-12.6l4.5,0.4 l-1.8,12.5L66.8,97.8z M96.3,96.2c-0.2,1.8-0.8,3.4-2,4.7c-1,1.1-2.5,1.7-3.9,1.5c-0.6,0-1.2-0.2-1.7-0.6c-0.4-0.3-0.8-0.8-1-1.3 c-0.8,0.9-2,1.4-3.2,1.2c-0.7-0.1-1.4-0.4-1.9-0.9c-0.5-0.6-0.9-1.2-1-2c-0.2-0.9-0.2-1.9,0-2.8c0.3-1.7,1.1-3.3,2.3-4.5 c1-1,2.5-1.6,3.9-1.4c1,0.1,2.1,0.5,2.9,1.1l0.7,0.6l-1.3,6.8c-0.2,1.1,0.1,1.7,1,1.7c0.8,0,1.5-0.4,1.8-1.1c0.6-1,1-2.1,1.1-3.2 c0.5-2.1,0.1-4.4-1-6.2c-1.2-1.6-3.1-2.6-5.1-2.7C86.4,87,85,87.3,83.8,88c-1.3,0.7-2.3,1.7-3.1,3c-0.8,1.4-1.4,3-1.6,4.7 c-0.4,2.7-0.1,4.9,1,6.5c1.3,1.7,3.2,2.7,5.3,2.7c0.7,0.1,1.4,0.1,2.1,0c0.6,0,1.2-0.2,1.8-0.4l0.2,2c-0.6,0.3-1.3,0.5-2,0.6 c-0.8,0.1-1.7,0.1-2.6,0c-1.9-0.1-3.7-0.7-5.3-1.8c-1.4-1-2.5-2.4-3-4c-0.6-1.9-0.7-4-0.4-5.9c0.2-2,1-3.9,2-5.7 c1-1.6,2.4-2.8,4.1-3.6c3.4-1.5,7.3-1.2,10.4,0.8c1.3,0.9,2.4,2.3,2.9,3.8C96.4,92.5,96.5,94.3,96.3,96.2z M101.4,101.2l2.1-20.3 l-79-8.3l-2.6,24.9c-8.1-9-12.3-20.8-12.3-34.7c0-16.4,5.9-30,17.1-39.3c9.6-8,23.1-12.6,36.9-12.6c14.5,0,27.9,4.8,37.7,13.4 c10.6,9.4,16.3,22.7,16.3,38.5C117.6,78.6,112,91.8,101.4,101.2z"/>
    <polygon points="40.2,88.6 38.2,88.3 37.2,91.7 39.3,91.9 "/>
    <path d="M85.6,93.2c-0.7,0.9-1.1,2-1.2,3.2c-0.2,0.8-0.2,1.6,0,2.3c0.1,0.5,0.6,0.9,1.1,0.9c0.4,0,0.8-0.1,1.1-0.4 c0.4-0.4,0.7-0.8,0.9-1.3l1-5.3c-0.2-0.1-0.5-0.1-0.7-0.2C87,92.3,86.1,92.6,85.6,93.2z"/>
    <path d="M52.8,49.2c-5.9,0.3-11.7-1.6-16.2-5.5l-0.1-0.1c-1.7-1.5-4.3,0.9-2.8,3c1.2,1.6,2.7,3,4.3,4.1 c1,0.7,2.1,1.3,3.3,1.8c-2.4,1.5-4.1,4.4-4.1,8.3c0,5.9,3.8,9.4,8,9.4s8-3.5,8-9.4c0-3-1-5.4-2.5-7c0.8-0.1,1.7-0.2,2.5-0.5 C55.6,52.6,55.1,49,52.8,49.2z M44.9,58.2c-0.7,1.4-2.4,2-3.8,1.3c-0.9-0.9-1.1-2.2-0.6-3.3c0.7-1.4,2.4-2,3.8-1.3 C45.2,55.7,45.4,57.1,44.9,58.2z"/>
    <path d="M91.5,43.6l-0.1,0.1c-4.5,3.9-10.3,5.8-16.2,5.5c-2.2-0.2-2.8,3.4-0.3,4.1c0.8,0.2,1.6,0.4,2.5,0.5 c-1.5,1.6-2.5,4-2.5,7c0,5.9,3.8,9.4,8,9.4s8-3.5,8-9.4c0-3.9-1.7-6.8-4.1-8.3c1.1-0.5,2.2-1.1,3.3-1.8c1.7-1.1,3.1-2.5,4.3-4.1 C95.8,44.6,93.2,42.2,91.5,43.6z M83.2,58.2c-0.7,1.4-2.4,2-3.8,1.3c-0.9-0.9-1.1-2.2-0.6-3.3c0.7-1.4,2.4-2,3.8-1.3 C83.5,55.7,83.8,57.1,83.2,58.2z"/>
  </g>
</svg>