<svg viewBox="0 0 128 128" xmlns="http://www.w3.org/2000/svg">
  <g>
    <path d="M125.9,40.5l-0.1-7.2c0,0-0.8-1.4-13.7-2.9c-2.3-3.3-5-6.3-8-9C93.4,12.1,79.1,7,63.6,7 C45.3,7,26,14.5,15,30.6C3,32,2.2,33.3,2.2,33.3l-0.1,7.2c0,0,2.8,0.8,4.7,3.1c0.4,0.4,0.7,1.3,1,2.3c-1.4,5.1-2.2,10.7-2.2,16.9 c0,38.4,30.1,55.9,58,55.9c15.4,0,29.8-5.2,40.4-14.5c11.5-10.2,17.6-24.5,17.6-41.4c0-5.3-0.6-10.4-1.8-15.2 c0.4-1.9,0.9-3.4,1.4-4C123,41.3,125.9,40.5,125.9,40.5z M100.1,74.1c0.1,0.2,0.1,0.3,0.1,0.5c-11.3,5.3-23.5,7.7-36.1,7.7 c-13.3,0-26-2.6-37.9-8.5c0.4-0.8,1.2-1.7,2-2.3c3.2,0.3,6.2,0.3,8.4,0.2c1.2,0.3,2.4,0.5,3.6,0.8c8.1,1.5,14.2,2.8,22.3,2.6h0.2 c8.2,0.1,14.8-1.1,22.9-2.6c1.3-0.3,2.7-0.6,4-0.9c1.8,0.1,4.9,0.2,8.2,0C98.9,72.3,99.8,73.3,100.1,74.1z M14.8,37.7 c0.7-1.1,3.4-4.2,19-3.7s17.8,4,18.7,5.6c0,0.1,0.1,0.1,0.1,0.2l0.7,2.2c0.4,2.2,0.3,5.7-0.9,11.3c-1.8,8.4-4.1,14.2-19.7,13.3 C22.6,66,15.6,66,14,51.3C13,42.2,14.1,38.8,14.8,37.7z M54.1,64.2c4.1-7.2,5.7-17.2,5.9-19c1-0.5,2.2-1,3.8-1 c1.8,0,3.1,0.6,4.1,1.2c0.3,2.3,1.9,11.9,5.9,18.8c1.9,3.4,4.8,5.1,7.3,6.1c-6.1,1.3-11.6,1.9-18.3,2.1h-0.2 c-6.2-0.1-11.1-0.8-16.6-1.8C48.8,69.7,52,67.9,54.1,64.2z M95.4,66.5c-15.6,0.9-17.9-4.9-19.7-13.3c-1.8-8.4-1.1-12.1-0.2-13.6 c0.9-1.6,3.1-5.1,18.7-5.6c15.6-0.5,18.2,2.6,19,3.7c0.7,1.1,1.8,4.5,0.9,13.7C112.4,66,105.4,66,95.4,66.5z M26.7,23.6 c9.6-8,23.1-12.6,36.9-12.6c14.5,0,27.9,4.8,37.7,13.4c1.9,1.7,3.6,3.5,5.2,5.5c-0.3,0-0.6-0.1-1-0.1c-25.5-2.4-34.6,4.7-36.3,6.3 l-0.2,0c-1.9-0.1-3.7-0.2-5.7-0.2h-0.1c-1,0-2.9,0.1-4.6,0.2c-1.8-1.7-11-8.6-36.3-6.3c-0.7,0.1-1.3,0.1-1.9,0.2 C22.3,27.7,24.4,25.6,26.7,23.6z M117.6,62.9c0,15.7-5.6,29-16.2,38.4c-9.9,8.7-23.3,13.5-37.8,13.5c-13.8,0-27.3-4.6-36.9-12.6 C15.5,92.9,9.6,79.3,9.6,62.9c0-2.3,0.1-4.5,0.4-6.7c0.7,3.1,1.5,6.1,2.6,8.3c1.9,3.7,6.7,5.6,11.8,6.4c-0.4,0.8-0.7,1.7-0.8,2.6 c-0.6,4.4,3.4,9.1,3.4,9.1c0.1,0.2,0.1,0.1,0-0.1c4.3,7.5,10.9,13.2,19.1,16.4c0.2-0.3,0.5-0.8,0.8-1c0.4-0.3,0.8-0.6,1.2-0.9 c4.3-3.4,9.4-5.2,15.5-5.2c6.1,0,10.7,1.9,14.8,5.4c0.4,0.3,0.8,0.6,1.1,1c0.3,0.4,0.5,0.7,0.6,1c8.5-3.2,15.4-9,19.8-16.7 c0,0.1,0,0.1,0.1,0c0,0,1.2-2.1,1.2-2.1c0.8-2,1.9-4.2,1.6-6.8c-0.1-0.8-0.3-1.6-0.7-2.4c5.7-0.7,11.4-2.6,13.5-6.7 c0.8-1.6,1.4-3.6,2-5.8C117.6,60.1,117.6,61.5,117.6,62.9z"/>
    <path d="M90,41.9c-4.2,0-8,3.5-8,9.4s3.8,9.4,8,9.4s8-3.5,8-9.4S94.2,41.9,90,41.9z M90,49.6c-1,1.4-2.5,1.7-3.6,1 c-1-0.7-1.4-2.2-0.4-3.7c1-1.4,2.5-1.7,3.6-1C90.7,46.6,91,48.1,90,49.6z"/>
    <path d="M37.7,60.8c4.2,0,8-3.5,8-9.4s-3.8-9.4-8-9.4s-8,3.5-8,9.4S33.5,60.8,37.7,60.8z M33.7,46.8 c1-1.4,2.5-1.7,3.6-1c1,0.7,1.4,2.2,0.4,3.7c-1,1.4-2.5,1.7-3.6,1C33,49.8,32.7,48.3,33.7,46.8z"/>
  </g>
</svg>