<svg viewBox="0 0 128 128" xmlns="http://www.w3.org/2000/svg">
  <g>
    <path d="M64,6.1C32.8,6.1,4,26.1,4,64c0,37.7,28.8,57.9,60,57.9s60-20.7,60-57.9C124,26.6,95.2,6.1,64,6.1z M103,103.9 c-10.2,9-24.1,14-39,14c-15,0-28.9-4.9-39-13.8C13.9,94.3,8,80.5,8,64s5.9-30.4,17-40.2c10.1-8.9,24-13.7,39-13.7s28.9,5,39,13.9 c11.1,9.8,17,23.6,17,40C120,80.3,114.1,94.1,103,103.9z"/>
    <path d="M75.5,21.4L75.5,21.4c5.8,0.4,11.4,2.9,15.5,6.7c0.5,0.5,1.1,0.7,1.7,0.7c0.6,0,1.2-0.2,1.6-0.6c0.8-0.7,1.1-1.9,0.3-3.1 c-3.1-4.3-8-7.3-13.4-8.2c-2-0.4-4-0.4-6-0.2c-1.5,0.2-2.1,1.3-2,2.3C73.2,20.2,74,21.3,75.5,21.4z"/>
    <path d="M40.3,72.9c11,0.1,20.1-8.9,20.1-20.1c0-10.7-8.3-19.4-18.8-20.1c3.5-1.9,6.5-4.8,8.3-8.3c0.7-1.3,0.1-2.5-0.7-3 c-0.9-0.6-2.3-0.6-3.2,0.5c-3.5,4.4-8.8,7.6-14.4,8.7l0.1,0.5l-0.2-0.5c-1.4,0.3-2.1,1.5-2,2.6c0.1,0.7,0.5,1.4,1.2,1.8 c-6.3,3.4-10.6,10.1-10.6,17.7C20.1,63.8,29.1,72.9,40.3,72.9z M24.9,47h13.6c-0.1,0.4-0.1,0.7-0.2,1.1c-0.8,5.6,1.7,9.3,4.9,9.8 c3.3,0.5,6.7-2.5,7.5-8c0.1-1,0.2-2,0.1-2.9h4.7c0.7,1.8,1.1,3.8,1.1,5.8c0,9-7.3,16.4-16.4,16.4c-9,0-16.4-7.3-16.4-16.4 C23.8,50.7,24.2,48.8,24.9,47z"/>
    <path d="M88.2,35.7C77.6,35.7,69,44.3,69,54.9c0,10.6,8.6,19.2,19.2,19.2c10.6,0,19.2-8.6,19.2-19.2 C107.4,44.3,98.8,35.7,88.2,35.7z M88.2,70.4c-7.6,0-14-5.5-15.3-12.8c0.9,4.1,3.5,6.4,6.3,6.4c3.3-0.1,6.3-3.7,6.1-9.5 c0-0.8-0.1-1.5-0.2-2.1c8.7,2.4,17.3,4.8,18.5,5.1C102.3,64.8,95.9,70.4,88.2,70.4z"/>
    <path d="M93.5,74.9c-1.2-0.2-2.3,0.7-2.5,1.9c-0.1,1.2,0.7,2.3,1.9,2.5c1.1,0.1,2.1,0.4,3.1,0.8c0.1,2.3-2,4.5-4.2,5.3 c-2.6,1-5.7,1-8.8,0.9h-0.4c-3.7-0.1-7.6-0.1-11.1,1.7c-1.6,0.8-3.1,1.9-4.4,3c-2,1.6-3.7,2.9-5.6,3.1c-1.1,0.1-2.2-0.2-3.5-0.5 c-0.8-0.2-1.6-0.4-2.5-0.5c-3.1-0.5-6,0.1-8.8,0.6c-1.5,0.3-3,0.6-4.4,0.7c-3.5,0.3-7.4-1.1-8-3.9c0-0.2-0.1-0.3-0.2-0.5 c0.1,0,0.2,0,0.4-0.1c1.2-0.1,2.1-1.2,2-2.4s-1.2-2.1-2.4-2c-3.6,0.3-6.9,2.9-8,6.3c-0.4,1.2,0.3,2.4,1.4,2.8 c0.2,0.1,0.4,0.1,0.7,0.1c0.9,0,1.8-0.6,2.1-1.5v-0.1c1.7,3.9,6.4,5.8,10.9,5.8c0.4,0,0.8,0,1.2,0c1.7-0.1,3.3-0.4,4.9-0.7 c2.6-0.5,5-0.9,7.3-0.6c0.7,0.1,1.4,0.3,2.1,0.5c1.5,0.4,3.1,0.8,4.9,0.6c3.3-0.3,5.8-2.2,8-4c1.2-1,2.4-1.9,3.6-2.5 c2.6-1.3,5.7-1.3,9-1.2h0.4c3.5,0.1,7.1,0.2,10.6-1.2c2.7-1.1,5.5-3.4,6.6-6.5c0,0,0,0,0.1,0.1c0.4,0.5,1.1,0.8,1.7,0.8 c0.5,0,1-0.2,1.4-0.5c0.9-0.8,1.1-2.2,0.3-3.1C101,77.3,97.4,75.3,93.5,74.9z"/>
  </g>
</svg>