<svg viewBox="0 0 128 128" xmlns="http://www.w3.org/2000/svg">
  <g>
    <path d="M124.3,25.5c-1.3,0-7.8,0.4-10.6,6.7c-2.9,6.3-2.1,8.3-6.6,12.5c-1.4,1.3-3.2,1.8-4.6,2c-2.2-1.9-4.5-2.8-6.5-3.9 c-4.4-2.3-10.4-2.8-18.4-3.1c3.5-2.7,6.6-5.2,7.3-6c1.6-1.9,8.6-12.9,10.2-16.5c1.3-2.9-0.3-5.3-2-6.6c-2.3-1.7-5.5-1.4-7.9,0.4 C83,12.8,74.7,23.8,73.8,24.7C73,25.6,51.1,39.1,50.6,39.4c-0.6-0.4-1.4-1.2-2.2-2c0.1-0.1,0.1-0.2,0.2-0.3c0-0.2-0.2-0.6-0.6-1 c0.4-0.5,0.6-0.9,0.6-1.4c0.1-1.5-0.5-3.2-1-4.2c-0.2-1-0.7-2.1-1.1-3.4c-1.2-3.3-2.8-9.3-4.4-10.9c-0.5-0.5-1.1-0.6-1.9-0.6 c-0.4,0-0.8,0-1.2,0.1c-1.3-2-3.3-4.4-6.2-5.5c-1.7-0.7-3.7-0.9-5.6-0.9c-4.3,0-8.5,1.3-10.3,2.6c-2.8,2-4.5,7-5.1,7.9 c-0.5,0.9-3.1,1.3-4.6,1.5c-1.2,0.2-3.9,0.7-5.2,1.9c-0.7,0.4-1.3,0.9-1.4,1.8c-0.1,0.5,0.2,1,0.5,1.4c0.1,1.4,0.5,2.9,1,4.1 c-0.3,0.6-0.4,1.2,0.2,1.7c0.2,0.1,0.4,0.1,0.5,0c0.2,0.4,0.3,0.7,0.5,0.9c1,1.7,4,3.6,6.3,4c2.2,0.4,10.2,0.5,10.2,0.5 s0.6,3.2,1.1,4.9c0.2,0.9,0.9,3.3,1.6,5.6c-0.2,0.1-0.4,0.2-0.4,0.3c-0.3,0.5,1.1,4.6,1.7,4.9c0.1,0,0.1,0,0.2,0 c0.2,0.7,0.5,2,0.9,3.7c-0.2,0-0.4,0.1-0.4,0.1c-0.4,0.4,0.4,4.7,1,5.1c0.1,0,0.3,0.1,0.5,0.1l0.4,1.2c0.4,1.7,0.8,3.3,1.2,4.5 c1.1,3.6,3.6,9.2,8.2,13.4c-0.1,3.4-0.2,9.4-0.2,12c0,3.8,0.3,12.9-0.2,14.2c-0.9,2.3-2.4,3-2.9,4c-0.5,1.1-0.8,3.4,1.2,4.2 s5.9-0.4,7.7-1.4c1.8-1,3.2-2.3,3.4-3c0.5-1.6,1.3-15.7,1.4-18.7c0-1.8,0-4,0-6.1c3.9,0.8,6.9,0.3,7.2,0.6c0.5,0.4,1.1,5,1.1,6.7 c0,1.3,0.1,15,0.1,15.9c0,0.9-0.1,0.8-1.7,4.5c-1.6,3.7-1.4,5.7,2.4,5.8c0.1,0,0.2,0,0.2,0c3.7,0,6.6-2.3,7.7-4.1 c1.2-1.8,1.7-13.2,2-18.6s-0.1-12.7-0.1-12.7s0,0,0,0c0,0.1,0,0.2,0,0.2l0.9-0.5c0,0,0,0,0-0.1c0.5-0.2,1-0.6,1.7-1 c1.4-1,5.7-4.1,9.5-6.6c0.5-0.3,1-0.6,1.6-0.9c0.1,1.9,0.4,4.4,1,7.2c0.8,3.5,4.1,8.8,3.8,12.9s-1.7,7.3-3.5,9.4 c-1.8,2.1-1.5,4.5-1,5.1c0.5,0.6,2.8,1.5,6.5,1c2.9-0.4,4.1-1.7,4.4-2.3c0.3-0.6,2.8-9.5,3.4-11.7s2-7.5,2.5-9.8 c0.1-0.6,0.3-1.3,0.4-1.9c3.9,4.2,10.2,11.4,10.7,12.7c0.5,1.4,0.1,10.6-0.2,11.7c-0.3,1.1-2,2.1-1.9,4.3c0.1,2.4,2.7,2.7,5.5,2.7 c2.8,0,4.9-1.9,5.8-3.7c0.9-1.8,0.8-15.6,0.3-17.5c-0.5-1.9-3.7-11-5.1-13.8c-1.4-2.8,0.4-3.8-2.3-19.6c-0.3-1.7-0.6-3.2-1-4.6 c3.5-0.5,6.6-2.2,10.1-6.4c3.8-4.6,3.8-13.7,5.2-18c1.4-4.3,3.7-6.2,3.7-6.9S125.6,25.5,124.3,25.5z M75.8,26.5 c1-1.2,10.2-12.4,11.1-13.3s2.9-1.3,4.3-0.5c1.3,0.8,1.8,2.9,0.8,4.3c-0.4,0.6-8.1,13.2-9.1,14.6c-0.5,0.7-5.4,4.3-10.2,7.8 c-0.1,0-0.3,0-0.4,0c-2.3,0-4.9,0.1-7.3,0.1c0-0.1,0-0.1,0-0.2c-0.1-0.4-3.3-0.3-5.6-0.1c-0.4-0.4-1.8-0.2-2.8-0.2 c-0.2,0-0.4,0-0.6,0C57,38.4,74.8,27.7,75.8,26.5z M65.1,41.6c1.6,0,3.2-0.1,4.8-0.1c-1.8,1.3-3.4,2.5-4.6,3.3 C65.2,43.6,65.2,42.5,65.1,41.6z M23.8,45c-0.4-1.4-0.7-2.6-0.9-3.1c-0.5-1.6-1-4.7-1-4.7l-0.3-1.6l-1.6,0c-2.2,0-8.2-0.2-9.9-0.5 c-0.2,0-0.4-0.1-0.6-0.2c1.5,0.2,2.8,0,3.2,0c1,0,1.3-1.6-0.1-1.6c-1.5,0-3.1,0-4.3-0.6c-1.2-0.6-2.3-1.9-2.6-2.7 c-0.3-0.8-0.2-2.6-0.2-2.6s2.8-0.2,2.8-2.3c0-0.8-0.4-1.4-1-1.7c0.1,0,0.2,0,0.3-0.1c2.7-0.4,5.1-0.9,6-2.5 c0.2-0.3,0.3-0.6,0.6-1.2c0.7-1.6,2.1-4.8,3.9-6.1c1.2-0.9,5-2.2,9.1-2.2c1.9,0,3.5,0.3,4.9,0.8c2.4,0.9,4.2,3.1,5.2,4.7L38,18 l1.3-0.2c0.3-0.1,0.6-0.1,0.8-0.1c0.3,0,0.5,0,0.5,0.1c0.9,0.9,2.3,5.3,3,7.6c0.3,0.9,0.6,1.8,0.8,2.5l0.2,0.7 c0.3,0.9,0.6,1.8,0.8,2.5c0.2,0.7,0.7,2.1,1,3.4c0.1-0.1,0.1-0.1,0,0c0,0,0,0,0,0c0,0-0.1,0.1-0.1,0.1c0,0,0,0,0,0 c-0.2,0.2-0.3,0.3-0.5,0.5l0,0c-1.9,1.6-4.8,2.8-6.6,3.4c-2.6,0.9-6.9,2.4-8.8,1c-1.9-1.4-0.9-6.8,0.2-10.4c1.1-3.4,4.3-9.3,4.7-10 c0-0.1,0.1-0.1,0.1-0.2c0-0.5,0-1-0.3-1.1c-0.7-0.3-2.4,1.8-3.5,3.7c-1.3,2.4-3.3,6.1-4.2,11.3c-0.7,4.1-0.7,8.2,1.4,9.2 c1.1,0.5,2.5,0.6,4,0.5c-1.2,0.8-2.4,1.5-3.7,2.3c-1.6,0.9-3.5,1.8-4.9,2.4C24.2,46.4,24,45.7,23.8,45z M26,52.7 c1.3-0.6,3.3-1.6,6.1-3.1c3.4-1.9,5.6-3.3,7.3-4.5c3.4-2.5,6-4.7,7.6-6.1c2.7,2.5,3.3,2.7,3.7,2.9c0.4,0.1,0.9,0.2,2.3,0.2 c0.4,0,0.8,0,1.2,0c0.2,2.7,0.5,7.2,0.8,10.8c-1.3,0.4-3.7,1.2-5.6,1.6c-2.8,0.6-7.5,1.6-10.4,1.8c-3.4,0.2-8.8,0.4-11.9,0.5 C26.5,54.7,26.2,53.4,26,52.7z M64.6,82.7l-1.3,0.5l0.1,1.4c0,0.1,0.4,7.3,0.1,12.5l-0.1,1.7c-0.2,3.9-0.8,14.3-1.6,16 c-0.9,1.3-3.2,3.2-6,3.2l-0.2,0c-0.9,0-1.3-0.2-1.4-0.2c0-0.2,0-0.9,0.8-2.7c0.4-1,0.7-1.7,1-2.2c0.7-1.6,0.9-2,0.9-3.1 c0-0.7-0.1-14.6-0.2-15.9c0-0.1-0.2-6.9-1.9-8.2c-0.7-0.5-1.4-0.5-2.6-0.5c-1.3,0-3.2,0-5.5-0.4c-2.3-0.5-4.5-1.3-6.3-2.4 c-1-0.6-2.1-1.4-3-2.3c-5-4.6-7.1-10.7-7.6-12.5c-0.3-0.9-0.6-2.1-0.9-3.3c2.5,0.1,7.2,0.2,12.6-0.2c5.6-0.5,12.3-2.1,16.4-3.2 c1.1,2,3.2,5.7,3.2,5.7s0,0,0-0.1l0.4,0.7c0,0,3.6,7.1,3.8,9.3c0.2,1.4,0.2,4.1,0.3,6.1C64.9,82.6,64.6,82.7,64.6,82.7z M109.7,82.6c1.3,2.7,4.5,11.7,4.9,13.4c0.4,1.8,0.4,14.3-0.2,16.1c-0.7,1.3-2.1,2.5-4,2.5c-1.6,0-3.5-0.1-3.5-0.8 c0-0.7,0.3-1.1,0.8-1.8c0.4-0.5,0.8-1.1,1-1.8c0.3-1.2,0.9-11,0.2-12.9C108.2,95,98,84,97.9,83.9c-0.3-0.3-0.5-0.6-0.8-0.8 c-3.4-3.6-6.4-12.2-6.4-12.3l-0.6-1.9l-1.9,0.6c-0.2,0.1-6.1,2.1-10.2,4.3c-0.6,0.3-1.2,0.7-1.7,1c-3.4,2.3-7.2,4.9-9,6.2l-0.5,0.4 c-0.2,0.1-0.3,0.2-0.5,0.3c0-6.2,0.1-22.6-0.4-28.1c-0.1-1.5-0.2-3.3-0.4-5.1c1.3-1,5.4-4,9.5-7.1c0.3,0,0.6,0,1,0 c8.4,0.3,14.7,0.7,19,2.9c0.5,0.3,1.1,0.5,1.6,0.8c4.1,2,8.3,4.1,10.6,17.1c1.5,8.9,1.6,13,1.6,15.4 C108.9,79.8,108.9,81,109.7,82.6z M121.6,32.5c-0.5,1.5-0.8,3.6-1.2,5.7c-0.6,4-1.4,9-3.6,11.7c-3.6,4.3-6.5,5.4-9.1,5.8 c-1-3.3-2.2-5.6-3.6-7.2c1.4-0.3,3-1,4.3-2.3c3.4-3.1,4.1-5.4,5.1-8.3c0.5-1.4,1-2.9,1.9-4.9c2.3-4.9,7.3-5.4,8.6-5.5 C123.3,28.6,122.3,30.3,121.6,32.5z"/>
    <path d="M22.5,17.9c-1.4-0.2-2.7,0.6-2.9,2.6c-0.2,1.7,0.7,3.1,2,3.3c1.6,0.3,2.7-1,2.9-2.6C24.8,19.6,23.8,18.1,22.5,17.9z"/>
  </g>
</svg>