<svg viewBox="0 0 128 128" xmlns="http://www.w3.org/2000/svg">
  <path d="M123.5,79c0-0.9-0.1-1.9-0.2-2.9l0-0.8c0,0,0,0,0,0c-0.4-3-1.2-6.3-2.8-9c-1.6-2.6-3.5-4.1-4.8-4.9c0-0.1-0.1-0.2-0.1-0.2 c-0.3-0.2-1.3-0.5-1.3-0.5s-0.7-2.7-1-2.9c0,0,0,0.1,0,0.1c-0.7-1.4-1.7-3-3.4-4.5c-2.4-2-5.9-3.1-10-3.5c0,0-0.1-0.1-0.1-0.1l-1,0 c-0.8-0.1-1.7-0.1-2.6-0.1l-0.9,0c0,0,0,0,0.1,0c-1.1,0-2.3,0.1-3.5,0.2c-2.7,0.2-5.3,0.9-7.7,1.7c0,0,0,0-0.1-0.1l-3.4,1.4 c0,0,0,0,0,0c-0.5,0.2-0.9,0.4-1.4,0.7l0,0l0,0c-3.3,1.7-5.4,3.3-5.4,3.3s-2.8-4.7-6.2-7c-2.5-1.7-9.5-5.8-17.3-6.3 c-9.2-0.6-20,1.2-21.7,1.5c3.1-2.7,10.8-8.8,17.6-11.4c8-3,15.5-4.4,23-4.1c2.6,0.1,6.8,0.5,11.2,1c6.1,0.6,13,1.4,17.6,1.3 c7.9-0.1,13.1-1.3,13.3-1.3c0.7-0.2,1.2-0.9,1-1.7c-0.2-0.7-0.9-1.2-1.6-1c-0.1,0-5.2,1.2-12.8,1.3c-4.4,0.1-11.3-0.7-17.3-1.3 c-4.4-0.5-8.6-0.9-11.4-1c-7.9-0.2-15.8,1.2-24.1,4.3C37.2,34.4,28.5,41.8,26,44c-1-0.6-2.2-1.3-3.4-2c1.1-1.7,5-6.8,10.1-9.9 c5.8-3.5,14.9-7.7,25.5-8.3c10-0.6,18.3-0.8,26-0.8c7.2,0,13-0.6,15.6-1.2c2.7-0.6,5.2-2,5.3-2c0.7-0.4,0.9-1.2,0.6-1.9 s-1.2-0.9-1.9-0.6c0,0-2.3,1.2-4.6,1.8c-2.5,0.5-8,1.1-15,1.1c-7.7,0-16.1,0.3-26.2,0.8c-11.1,0.6-20.7,5.1-26.7,8.7 c-5.7,3.4-9.8,9.1-11,10.8c-0.6-0.4-1.2-0.8-1.5-1.1c-2.1-1.7-4.8-4.8-6.9-6.8c-2-1.8-3.3-4-4.6-3.7c-0.8,0.2-1,1.1-0.7,2.1 c0.4,1,3.6,5.7,4.2,6.7c0.6,0.9,4.1,5.9,4.1,5.9s-2.5-0.8-4.5-2c-1.2-0.7-4.7-2.3-5.6-1.3c-1.1,1.3,3.5,4.1,5.4,5.4 c2,1.4,6.5,5,6.5,5S15.7,51,14.2,51s-3,0.2-2.8,1.4c0.2,1.2,3.6,1.8,5.7,2.8c2.1,1,7,2.7,7,2.7l0,0c0,0,0,0,0,0h0c0,0,0,0,0,0 c0,0,5.1,8.2,16.2,13c-0.2,0-0.4,0-0.6,0c-0.2,0-0.3,0-0.5,0c-1.9,0-4.3,0-5.2-0.3c-1.5-0.4-3.9-1.7-5.1-2c-1.2-0.2-5.7,2.3-9.2,3.8 c-3.4,1.5-5.6,2.7-5.4,3.4c0.3,1.7,3.5,1.1,5.2,0.7s9.2-3.3,9.2-3.3s0.8,0.7,1.6,1.2c1.1,0.7,2.5,1.4,2.5,1.4s-2.3,0.1-3.4,0.8 c-1,0.7-1.5,2.2-2.1,3.8C26.9,82,24,87.2,22.7,89c-1.2,1.8-3.8,5.3-3.1,6.2c0.7,0.9,1.5,0.8,2.2,0.4c0.7-0.4,5-5.6,6.6-7.6 c1.6-2.1,5.1-7.1,5.1-7.1s1.5,0.4,2.2,0.5c0.9,0.1,3.1,0.3,3.1,0.3s-2.1,0.7-2.4,2.5c-0.2,1.3-1.6,4.9-1.9,6.5 c-0.4,1.6-3,6.8-3.2,7.6c-0.2,0.8-0.1,3.4,0.1,5.1s0.3,4.7,1.9,4.5c1.6-0.2,1.7-7.5,1.7-7.5s2.8-4.3,3.9-6.7 c1.1-2.4,2.4-7.6,2.4-7.6s2.8,0.2,3.8,0.2c1,0,3.3-0.2,3.3-0.2S46.4,95.7,47,101c0.6,5.3,1.9,11.5,3.5,11.5c1.6,0,1.4-3.1,1.5-5.7 c0.1-2.5-0.5-3.5-0.2-7.8c0.3-4.3,2.4-11.9,2.4-11.9s7.7,0.8,11.2,0c2.4-0.5,6.9-1.5,9.1-3.4c1.3-1.2,1.5-2.5,1.5-2.5l5-0.1 c0.1,0.3,1.2,4.4,5.9,4.6c0.2,0,0.3,0,0.5,0c5.6,0,6.6-4.8,6.6-4.8s1.5,2.8,4.6,2.8c0.8,0,1.6-0.2,2.6-0.6c4.9-2.1,2.8-7,2.8-7 l2.3,1.6c0,0,0,0,0,0c0.8,1,1.7,2,2.4,3.3l0.9,3.2c0,0,0,0,0,0c0.4,3.4,0.2,7.4,0.2,7.4s0,0-0.1,0c0,0,0,0,0,0 c-0.1,0-0.4,0.1-0.8,0.3c0,0,0,0,0,0l0,0c-1.1,0.4-2.9,1-4.7,1.9c-2.9,1.4-7.2,5.2-8.9,7.1c-2.1,2.4-4,6.4-3.6,7 c0.5,0.6,4.6-0.5,6-0.9c1.4-0.5,5.4-2.5,5.4-2.5s-2.1,2.4-3.2,3.9c-1.1,1.4-5,6.7-4.9,7.5c0.1,0.8,8.3,0.3,14.1-2.1 c5.4-2.2,10.3-8,11.4-12.3c0.7-2.8,0.3-6.2,0.1-7.8l0.9-3.5c0,0,0,0,0,0l0,0c0,0,1.4-2.5,1.9-6.2c0.1-0.9,0.2-2.3,0.2-3.9 c0,0,0-0.1,0-0.1L123.5,79z M41.7,58.3c0.8-1.1,2.2,0,3.3,0.5c1.3,0.6,5.9,1.3,9.6,1.4c4.2,0.2,6.3-0.3,7.5-0.6 c1.2-0.3,2.7-0.6,3.4,0.1c0.6,0.7,0.3,2.2-0.8,2.7c-1.1,0.5-7.2,1.3-10.3,1c-2.6-0.2-6.8-0.6-9.6-1.6S40.9,59.4,41.7,58.3z M31.1,47.9c1.2-1.8,4.2-2.5,6-1.2c1.9,1.2,2.2,4.1,0.9,5.9c-1.2,1.8-4.5,2.3-6.3,0.9C30,52.1,29.8,49.7,31.1,47.9z M45.7,72.9 c-0.8-0.2-1.5-0.4-2.2-0.7L41,69.1c-6.7-2.9-11.2-7.2-13.4-9.9l0.4-0.1c2.2,0.9,4.8,2,6.2,2.5c2.6,0.9,15,4.6,22.3,4.1 c7.2-0.6,11.3-0.7,12,1.5c0.5,1.8-1.3,3.9-3,4.8C63.8,73,57.3,75.9,45.7,72.9z M117.8,83.4c-1.8,0.7-4.6,0.8-6.4,0.8 c0-0.1,0-0.2,0-0.3l-0.8-3.1c1.8-0.1,4.4-0.4,6.5-1.1c1.8-0.6,3.2-1.6,4.3-2.5c0.1,0.9,0.1,1.9,0.1,1.9s0,1.3-0.1,2.6 C120.5,82.2,119.4,82.9,117.8,83.4z M87.3,83.7c-0.1,0-0.3,0-0.4,0c-2.7-0.1-3.7-2-4-2.8l1.9-0.1c0,0,0.7-1.2,1.3-2.5 c0.6-1.4,3-5.9,2.1-12.4c-0.5-4.2-4-8.9-6-11.2l1.5-0.7l0,0l1.2-0.4c0.3-0.1,0.6-0.2,0.9-0.3c2.6,2.9,5.3,7.4,6,12.8 c0.8,6.4-2.8,13.6-2.8,13.6s1.4-0.3,3.2-0.7l-0.3,1.5C91.8,81,91,83.7,87.3,83.7z M107.7,76.4l-1.4-1l-2-0.8l-2.4,2.2 c0.2,0.5,1.1,3.2-1.8,4.4c-0.6,0.3-1.2,0.4-1.8,0.4c-1.8,0-2.8-1.7-2.8-1.7l-0.9-1.6c2.1-0.6,4.1-1.2,4.8-1.8 c1.6-1.3,4.2-7.8,3-14.6c-0.8-5-3-8.2-4.8-10c0.3,0,0.6,0,0.9,0l0,0l0,0l0.3,0l0,0l0.6,0.1c0.9,0.1,1.7,0.2,2.5,0.4 c1.5,1.8,3.2,4.7,3.9,8.4c1.5,8.2-1.5,13.8-1.5,13.8s1,0.2,2.4-0.8c2.1-1.4,3.9-4,4.9-7c0.5-1.4,0.8-2.9,1.1-4.3l0.4,0.1l2,1 c0.1,0.1,0.2,0.1,0.3,0.2c-0.3,1.7-0.9,4-2.2,6.5c-1.6,3.2-3.8,5.1-5.3,6.2C107.9,76.5,107.8,76.4,107.7,76.4z M118.5,94.1 c-1.1,0.2-2.5,0.3-4.2-0.1c-1.1-0.2-2.1-0.6-2.8-1l0,0l0.1-1.4c0-0.1,0-0.8,0-1.8c0.9,0.5,2.1,1,3.4,1.2c1.6,0.3,3,0.1,4.1-0.2 l-0.7,3.1C118.5,94,118.5,94.1,118.5,94.1z"/>
</svg>