<svg viewBox="0 0 128 128" xmlns="http://www.w3.org/2000/svg">
  <g>
    <path d="M123.7,84.1c-0.2-1-1-1.6-2-1.5l-9.4,1.5c-0.3-2.5-1.2-4.9-2.6-7.1l7.1-4.9c0.8-0.5,1-1.6,0.5-2.4 c-0.5-0.8-1.6-1-2.4-0.5l-7.3,5c-0.6-0.6-1.3-1.3-2.1-1.8c-1.1-0.9-2.2-1.6-3.2-2.3l7.7-9.2c0.6-0.7,0.5-1.9-0.2-2.5 s-1.8-0.5-2.5,0.2L99.4,68c-2.6-1.9-4.7-3.4-6.7-5.1l6.9-11.8c0.5-0.8,0.2-1.9-0.6-2.4c-0.8-0.5-1.9-0.2-2.4,0.6L90,60.6 c-1.9-1.8-4.1-4.1-6.8-7.2l8.6-10.1c0.6-0.7,0.5-1.8-0.2-2.5c-0.7-0.6-1.8-0.5-2.5,0.2l-8.2,9.6c-2.1-2.8-4-5.8-5.7-8.8l9.6-7.1 c0.8-0.6,1-1.7,0.4-2.5c-0.6-0.8-1.7-1-2.5-0.4l-9.3,6.8c-1.7-3.1-3.3-6.2-5.1-9.1l7.8-6.8c0.7-0.6,0.8-1.7,0.2-2.5 c-0.6-0.7-1.7-0.8-2.5-0.2l-7.4,6.5c-1.9-2.6-3.9-5-6.4-7l6-10.3c0.5-0.8,0.2-1.9-0.6-2.4S63.5,6.9,63,7.7l-5.9,10.1 c-2.4-1.5-5-2.5-7.6-3.2l0.8-7.5c0.1-1-0.6-1.8-1.6-1.9c-1-0.1-1.8,0.6-1.9,1.6l-0.7,7.2c-3.1-0.4-6.2-0.2-9.2,0.4L35.5,6 c-0.2-1-1.1-1.6-2-1.4c-1,0.2-1.6,1.1-1.4,2l1.5,8.7c-1.5,0.5-2.9,1.2-4.2,2l-4.9-6.3c-0.6-0.8-1.7-0.9-2.5-0.3 c-0.8,0.6-0.9,1.7-0.3,2.5l4.8,6.2c-1,0.8-2,1.7-3,2.7c-0.5,0.6-1.1,1.2-1.5,1.8l-7.8-5.3c-0.8-0.5-1.9-0.3-2.4,0.5 c-0.5,0.8-0.3,1.9,0.5,2.4l7.7,5.2c-1.4,2.1-2.5,4.3-3.3,6.4l-8.8-2c-1-0.2-1.9,0.4-2.1,1.3c-0.2,0.9,0.4,1.9,1.3,2.1l8.6,2 c-0.6,2.9-0.7,5.8-0.4,8.5l-8.3,0.7c-1,0.1-1.7,0.9-1.6,1.9C5.2,48.3,6,49,6.9,49c0,0,0.1,0,0.2,0l8.7-0.7c0.8,3.1,2.2,6.1,4,8.7 l-8.4,4.5c-0.9,0.5-1.2,1.5-0.7,2.4c0.3,0.6,0.9,0.9,1.5,0.9c0.3,0,0.6-0.1,0.8-0.2l8.9-4.8c1.1,1.2,2.2,2.4,3.4,3.4 c0.7,0.6,1.4,1.1,2,1.6L21.2,73c-0.6,0.8-0.4,1.9,0.4,2.5c0.3,0.2,0.7,0.3,1,0.3c0.5,0,1.1-0.2,1.4-0.7l6.1-8.2 c4.1,2.8,8.2,4.7,11.9,6.2l-5.7,7c-0.6,0.8-0.5,1.8,0.3,2.5c0.3,0.3,0.7,0.4,1.1,0.4c0.5,0,1-0.2,1.4-0.6l6.4-7.8 c4,1.6,7.5,3.1,10,5.2L46.8,87c-0.7,0.6-0.8,1.7-0.2,2.5c0.3,0.4,0.8,0.6,1.3,0.6c0.4,0,0.8-0.1,1.1-0.4l8.7-7.4 c1.9,2.6,3.2,5.6,4.6,8.7L53,96.2c-0.8,0.5-1.1,1.5-0.7,2.4c0.3,0.6,0.9,0.9,1.5,0.9c0.3,0,0.6-0.1,0.9-0.2l9.2-5.1 c0.9,1.8,1.8,3.5,3,5.3l-8.7,6.9c-0.8,0.6-0.9,1.7-0.3,2.5c0.3,0.4,0.8,0.7,1.4,0.7c0.4,0,0.8-0.1,1.1-0.4l8.7-6.9 c1.3,1.6,2.9,3.1,4.9,4.6l-6.2,10.4c-0.5,0.8-0.2,1.9,0.6,2.4c0.3,0.2,0.6,0.2,0.9,0.2c0.6,0,1.2-0.3,1.5-0.9l6.1-10.2 c1.6,0.9,3.3,1.6,5,2.1l-2.1,10.6c-0.2,1,0.4,1.9,1.4,2.1c0.1,0,0.2,0,0.3,0c0.8,0,1.5-0.6,1.7-1.4l2.1-10.6c1.5,0.2,3,0.2,4.5,0.1 l2.2,10.4c0.2,0.8,0.9,1.4,1.7,1.4c0.1,0,0.2,0,0.4,0c0.9-0.2,1.6-1.1,1.4-2.1l-2.1-10.2c1.5-0.3,3.1-0.8,4.5-1.5l4.3,8.2 c0.3,0.6,0.9,0.9,1.5,0.9c0.3,0,0.6-0.1,0.8-0.2c0.9-0.5,1.2-1.5,0.7-2.4l-4.3-8.2c1.6-1,3.1-2.2,4.4-3.7c0.2-0.2,0.3-0.3,0.5-0.5 l8.1,8.2c0.3,0.4,0.8,0.5,1.2,0.5s0.9-0.2,1.2-0.5c0.7-0.7,0.7-1.8,0-2.5l-8.4-8.6c1.1-1.7,2.1-3.5,2.8-5.4l8.7,5.2 c0.3,0.2,0.6,0.2,0.9,0.2c0.6,0,1.2-0.3,1.5-0.8c0.5-0.8,0.2-1.9-0.6-2.4l-9.4-5.6c0.4-1.5,0.6-3.1,0.6-4.6l9.8-1.5 C123.2,86,123.8,85.1,123.7,84.1z M101,100.3c-5.9,5.3-16,7.9-24.9,0.4c-6-5.1-6.8-14.4-14.8-22.8c-9.5-10-15.2-8.9-27.2-16.4 c-14.6-9.2-15.9-24.4-6.2-34.9c7.9-8.5,19.9-8.3,28.3-0.8c8.8,7.9,13.1,17.6,19,26.3c2.9,4.3,7.1,10.1,21,20.3 C110.1,82.5,107.1,94.8,101,100.3z"/>
    <path d="M76,82.1c-2.3,1.2-2.9,4-1.5,6.4c1.3,2.3,4.1,3,6.3,1.5c1.3-0.9,2.2-3.5,0.8-5.8C80.2,81.8,77.7,81.1,76,82.1z "/>
    <path d="M92.7,86.8c-2.4-0.1-3.8,1.8-3.8,3.9c0,2.2,1.3,4.5,4.1,4.2c2.3-0.2,3.6-2.2,3.4-4.3 C96.1,88.9,94.8,86.9,92.7,86.8z"/>
    <path d="M80.8,68.5c-0.4-2.8-2.7-5-5.6-5c-2.9,0-5.1,1.9-5.1,5.3c0,2.9,2.9,5.8,5.8,5.6C79.6,74.4,81.2,71.7,80.8,68.5 z"/>
    <path d="M52.2,36.4c-5.1-4.7-12.5-5.7-16.2-2c-3.6,3.7-4.7,10.2,1.5,16c6,5.6,15.1,7.5,19.2,3.8 C60.9,50.4,57.9,41.7,52.2,36.4z"/>
    <path d="M65.1,52.2c-1.8,0.6-3,2.5-2.2,4.4c0.9,2.5,2.9,3.7,5,2.8c1.7-0.7,2.3-2.7,1.6-4.7 C68.8,52.7,66.8,51.6,65.1,52.2z"/>
    <path d="M57,61.7c-1.2,0.8-1.4,2.6-0.4,3.8c0.9,1.3,2.9,1.7,4.1,0.9c1.2-0.9,1.1-2.7,0.2-4 C59.9,61.1,58.2,60.8,57,61.7z"/>
  </g>
</svg>