<svg viewBox="0 0 128 128" xmlns="http://www.w3.org/2000/svg">
  <g>
    <path d="M75.08,26.4c0.8,2.6,3.99,3.08,6.37,3.03c4.72-0.22,6.09-3.05,5.25-5.24c-0.93-1.77-3.22-2.17-5.06-2.27 C77.72,21.63,74.21,23.41,75.08,26.4z"/>
    <path d="M123.81,85.75c-0.25-14.36-0.62-31.41-0.92-45.45c0.09-5.07-9.41-10.95-13.72-14.31c-5.57-4.08-11.77-7.76-18.34-9.66 c-4.89-1.13-6.86-2.57-10.75-1.53C77.37,16.11,50.3,30.55,48,32.41c-0.4,0.96,0.07,2.26,0.17,3.53c1.15,8.07-3.4,5.18-7.68,2.85 c-3.14,1.6-5.87,4.01-8.77,6.06c-9.18,7.03-18.74,14.07-27.27,21.53v0.01H4.44c0,0,0,0.03,0,0.06c0.08,4.74,0.76,38.89,0.94,41.8 c0.19,2.82,1.5,6.19,4.69,7.13c3.08,0.99,6.24,0.59,9.39,0.19c9.2-1.13,94.98-19.52,98.55-20.08 C122.47,94.81,124.29,90.08,123.81,85.75z M40.55,42.16c7.72,5.21,12.41,0.24,10.39-8.11C56,31.01,76.73,19.81,78.5,19.01 c1.9-1.02,3.42-2.15,5.5-1.33c3.61,0.78,11.12,2.39,19.19,7.84c6.33,4.35,15.1,10.33,16.73,14.31c-0.07,0.46,0,0.44-0.21,1.41 c-7.06,1.91-9.04,2.21-20.36,4.98c-0.36-5.64-5.69-7.27-10.37-7c-6.34,0.53-13.83,5.96-11.85,12.35 c-16.14,3.92-24.26,5.62-38.47,9.08c0-0.23,0.02-0.45-0.07-0.66c-1.24-9.22-17.18-4.23-13.23,3.89 c-9.74,2.18-13.83,3.71-17.41,3.35C13.54,62.52,35.19,45.69,40.55,42.16z M117.55,92.53c-17.94,3.57-92.91,19.62-98.45,20.06 c-3.47,0.39-5.17,0.78-8.18-0.09c-1.69-0.5-2.43-2.71-2.55-4.45c-0.13-2.02-0.61-25.25-0.86-37.84c5,0.35,6.94-0.82,21.8-4.2 c2.09,0.09,4.28-0.55,6.14-1.5c16.42-4.02,25.64-5.97,43.83-10.37c2.83,2.41,6.85,2.56,10.28,1.51c3.63-0.87,7.33-3.34,8.83-6.11 c10.22-2.51,15.22-3.56,21.58-5.26c0.23,10.82,0.86,40.49,0.86,43.51C120.83,89.82,119.8,92.17,117.55,92.53z"/>
    <path d="M22.68,79.83c0.08,1.24-0.37,2.5-1.28,3.35c-0.12,0.14-0.26,0.24-0.4,0.36c-0.41,0.31-0.88,0.56-1.37,0.71 c-0.17,0.04-0.34,0.08-0.51,0.11c-0.84,0.12-3.67,0.61-5.17-2.42c-1.8-3.75,2.41-7.26,5.23-6.26c2.06,0.73,2.89,2.33,3.13,2.89 C22.52,78.96,22.65,79.37,22.68,79.83z"/>
    <path d="M112.85,86.09c-3.15,2.21-7.93,2.95-11.05,0.35c0,0,0,0-0.01,0c-10.33-9.9,8.66-23.4,15.16-10.66 C117.96,79.06,117.59,82.68,112.85,86.09z"/>
    <path d="M44.49,98.56c-0.99,0.72-2.13,1.22-3.33,1.41c-0.29,0.06-0.59,0.07-0.88,0.09c-0.59,0.02-1.22-0.03-1.8-0.13 c-1.06-0.23-2.17-0.53-2.98-1.27c-2.98-1.95-3.81-6.93-0.86-9.96c2.74-3.1,9.28-3.55,11.52,1.32c0,0.01,0.01,0.01,0.01,0.02 C47.38,92.11,47.25,96.44,44.49,98.56z"/>
    <path d="M76.66,85.18c-1.65,2.02-3.89,3.48-6.36,4.28c-5.81,1.37-9.42,1-14.48-4.27c-6.97-7.46-0.42-21.95,10.21-21.4 C80.07,64.63,83.8,76.58,76.66,85.18z"/>
  </g>
</svg>