<svg viewBox="0 0 128 128" xmlns="http://www.w3.org/2000/svg">
  <path d="M89.4,43.1c4.09,0,7.4,3.9,7.4,8.7s-3.31,8.7-7.4,8.7S82,56.6,82,51.8S85.31,43.1,89.4,43.1z M38.6,43.1 c4.09,0,7.4,3.9,7.4,8.7s-3.31,8.7-7.4,8.7s-7.4-3.9-7.4-8.7S34.51,43.1,38.6,43.1z M125.9,42.5l-0.1-7.2c0,0-0.6-1.1-9.7-2.4 c-10.7-18-31-27.7-52.4-27.7c-21.5,0-41.9,9.5-52.5,27.9c-8.4,1.3-9,2.3-9,2.3l-0.1,7.2c0,0,2.3,0.7,4.1,2.4 c-1.6,5.5-2.5,11.5-2.5,18.1c0,37.7,28.9,57.9,60,57.9c31.2,0,60-20.7,60-57.9c0-6.4-0.9-12.3-2.4-17.7 C123.2,43.3,125.9,42.5,125.9,42.5z M113.2,39.7c0.8,1.1,1.8,4.5,0.9,13.7C112.4,68,105.4,68,95.4,68.5 c-15.6,0.9-17.9-4.9-19.7-13.3s-1.1-12.1-0.2-13.6c0.9-1.6,3.1-5.1,18.7-5.6S112.4,38.6,113.2,39.7z M64,83.3 c-14.8,0-29.1-3.3-42.5-9.4c-0.2-0.5-0.3-1.1-0.5-1.7c8.3,2.3,19.1,1.2,19.1,1.2s2,0.1,4.6-0.5c6.2,0.4,12.7,0.7,19.2,0.7 s13-0.2,19.3-0.7c2.6,0.6,4.6,0.5,4.6,0.5s10.8,1.1,19.1-1.2c-0.1,0.5-0.3,1.1-0.4,1.6C93.1,79.9,78.8,83.3,64,83.3z M82.6,99.4 c-5.7,2.3-12,3.5-18.7,3.5c-6.3,0-12.6-1.3-18.3-3.7c5.2-3.7,11.5-5.8,18.3-5.8C71,93.3,77.4,95.6,82.6,99.4z M51.8,69.2 c0.8-0.8,1.6-1.8,2.3-2.9c4.1-7.1,5.7-17.1,5.9-19c1-0.6,2.3-1,3.8-1c1.8,0,3.1,0.6,4.1,1.2c0.3,2.3,1.9,11.9,5.9,18.8 c0.7,1.2,1.5,2.1,2.3,2.9c-4,0.2-8,0.3-12.2,0.3C59.8,69.5,55.7,69.4,51.8,69.2z M24.7,23c10.1-8.9,24-13.7,39.1-13.7 c15,0,28.9,4.9,39,13.9c3.1,2.7,5.8,5.8,8.1,9.2c-1.6-0.2-3.3-0.4-5.3-0.5c-25.5-2.4-34.6,4.7-36.3,6.3h-0.2 c-1.9-0.1-3.7-0.2-5.7-0.2h-0.1c-1,0-2.9,0.1-4.6,0.2c-1.8-1.7-11-8.6-36.3-6.3c-2.2,0.2-4.2,0.4-6,0.6C18.7,28.9,21.5,25.8,24.7,23 z M14.8,39.7c0.7-1.1,3.4-4.2,19-3.7s17.8,4,18.7,5.6c0,0.1,0.1,0.1,0.1,0.2l0.7,2.2c0.4,2.2,0.3,5.7-0.9,11.3 c-1.8,8.4-4.1,14.2-19.7,13.3C22.6,68,15.6,68,14,53.3C13,44.2,14.1,40.8,14.8,39.7z M102.8,103c-10.2,9-24.1,14-39.1,14 s-28.9-4.9-39.1-13.8c-11.1-9.8-17-23.6-17-40.1c0-3.9,0.3-7.6,1-11.2c1,4.8,2,10.9,3.8,14.6c0.8,1.6,2.1,2.8,3.8,3.8 c0,0.2,0,0.4,0.1,0.7c4,19.8,23.6,36.1,47.6,36.1c26,0,43.6-16.5,47.5-35.6c0-0.2,0.1-0.4,0.1-0.6s0-0.4,0.1-0.6 c1.7-1,3-2.2,3.8-3.8c1.7-3.3,2.7-8.6,3.5-13.1c0.5,3.1,0.8,6.4,0.8,9.7C119.8,79.4,113.9,93.2,102.8,103z M7.56,40.25H5.81 c-0.85,0-1.54-0.69-1.54-1.54s0.69-1.54,1.54-1.54h1.75c0.85,0,1.54,0.69,1.54,1.54S8.41,40.25,7.56,40.25z M122.19,40.25h-1.75 c-0.85,0-1.54-0.69-1.54-1.54s0.69-1.54,1.54-1.54h1.75c0.85,0,1.54,0.69,1.54,1.54S123.04,40.25,122.19,40.25z"/>
</svg>