<svg viewBox="0 0 128 128" xmlns="http://www.w3.org/2000/svg">
  <g>
    <path d="M70.75,89.52c-2.53-0.16-2.94,4.17-0.19,3.92C72.57,93.13,72.7,89.67,70.75,89.52z"/>
    <path d="M84.63,91.41c-0.09-1.61-2.49-2.49-3.32-0.87C80.13,93.39,84.56,94.74,84.63,91.41z"/>
    <path d="M84.31,99.76c-0.72,0.87-0.14,2.86,1.38,2.91C89.02,102.48,86.81,97.09,84.31,99.76z"/>
    <path d="M69.33,105.62c-2.22,0.19-1.97,3.7,0.27,3.46C71.56,108.95,71.41,105.45,69.33,105.62z"/>
    <path d="M59.44,99.81c-0.6,0.78-0.56,2.93,1.48,2.86c1.39-0.05,2.63-1.85,1.43-3.18C61.61,98.66,60.18,98.85,59.44,99.81z"/>
    <path d="M42.47,102.76c-2.11-1.58-3.89,1.3-1.99,2.81C42.77,106.99,44.09,104.26,42.47,102.76z"/>
    <path d="M99.63,109.81c-0.18-1.32-2.91-11.28-4.49-21.93C93.55,77.22,91.35,57.04,91,50.35c-0.29-5.48-1.43-8.31-2.57-9.74 c0.01-0.01,0.02-0.02,0.02-0.02s-1-1.41-2.22-2.27c-0.33-0.23-0.96-0.61-1.7-1.04c0.95-1.33,1.62-4.33,0.2-5.42 c0,0,3.85-4.52,3.97-10.99C89.35,1.73,60.91,1.41,48.88,5.48c-4.46,1.4-11,6.11-11.11,14.65c-0.12,9.28,4.4,12.4,4.4,12.4 s-1.57,1.82-0.53,4.29c-0.97,0.56-3.26,3.14-3.49,3.57c0,0.01,0,0.01,0,0.01c-1.23,1.76-1.5,2.73-1.94,5.29 c-0.44,2.55-1.32,13.3-1.5,16.65c-0.45,9.51-5.77,37.28-7.05,45.9c-0.26,1.67,0.35,4.23,1.85,5.37c1.5,1.15,15.96,9.5,17.81,10.03 c1.85,0.53,28.55,0.68,30.64,0.28c2.51-0.49,19.14-7.97,20.61-9.34C99.33,113.87,99.81,111.13,99.63,109.81z M73.22,12.51 c1.92,0.04,3.87,0.72,3.87,2.42c0,1.34-0.9,2.3-3.87,2.42C67.81,17.85,67.99,12.5,73.22,12.51z M63.08,7.01 c5.21-0.35,6.08,4.38,0.18,4.59C57.78,12,57.77,6.99,63.08,7.01z M52.93,11.93c5.94-0.24,5.54,4.91,0.24,4.65 c-2.04,0-4.12-0.34-4.18-2.23C48.94,12.99,50.26,12.04,52.93,11.93z M44.3,34.42c0.86-2.01,2.98,3.73,19.16,4.15 c11.9,0.3,17.9-5.05,18.75-4.03c1.26,1.5-4.92,7.73-19.02,7.73S43.7,35.83,44.3,34.42z M58.72,65.91c4.59,0.98,9.8,0.03,14.33-0.11 c0.18,4.33,0.34,6.48,0.6,10.92c-3.95,1.6-6.21,3.26-13.26,3.33c-1.96,0-4.39-0.1-6.3-0.69c0.3-4.48,0.62-9.46,0.91-13.88 C56.3,65.55,57.48,65.73,58.72,65.91z M55.17,62.98c0.36-5.26,0.65-9.26,0.75-9.8c0.31-1.66,3.98,0,8.14,0 c4.78,0,8.2-1.43,8.41,0.34c0.12,1.05,0.28,5.21,0.47,9.78C66.97,63.86,61.11,64.02,55.17,62.98z M44.94,112.81 c-1.77,1.25-10.6-4.26-11.54-5.82c-0.85-3.43,4.03-27,5.23-34.73c4.03,2.09,6.15,5.54,10.81,7.91 C48.49,91.68,46.45,111.75,44.94,112.81z M49.66,77.41c-4.7-2.93-6.14-5.55-9.88-7.37l0.02-0.09c0.58-0.72,3.08-3.13,10.72-4.25 C50.28,68.9,49.72,76.59,49.66,77.41z M50.71,63.15L50.71,63.15c-0.05,0.01-0.11,0.02-0.15,0.02c-4.12,0.39-10.47,2.48-12.39,4.84 c0.63-5.95,1.41-16.2,2.4-20.56c0.47-1.14,2.94,0.44,5.34,1.61c2.49,1.21,4.92,1.93,5.18,2.76C51.4,52.8,51.12,57.55,50.71,63.15z M73.4,116.25c-2.9,0.85-17.86,1.53-20.33-1.12c-2.41-1.9,0.48-22.99,0.86-33.22c1.98,0.55,4.42,0.63,6.46,0.64 c7.01-0.07,9.49-1.53,13.41-3.17c0.67,11.85,1.77,32.68,1.77,34.07C75.57,115.21,74.65,115.73,73.4,116.25z M76.74,52.65 c0-1.26,2.58-1.62,4.64-2.78c2.15-1.21,4.08-2.74,4.4-2.21c0.52,0.87,1.12,10.33,2.16,22.44c-1.11-1.63-3.79-4.67-8.99-6.06 c-0.56-0.16-1.09-0.26-1.63-0.37C76.98,57.87,76.74,53.24,76.74,52.65z M77.48,66.26c5.22,0.89,8.65,5.18,8.78,5.86 c0.02,0.08,0.05,0.16,0.07,0.23c-3.12-0.16-4.92,0.76-8.32,2.35C77.82,71.9,77.64,69.01,77.48,66.26z M93.67,107.83 c-0.31,2.39-9.88,6.63-11.01,5.71c-2.3-4.02-3.58-26.27-4.47-36.17c3.88-1.81,6.37-3.25,9.97-2.19l0.6,3.8 C90.32,93.6,93.97,105.53,93.67,107.83z"/>
  </g>
</svg>