<svg viewBox="0 0 128 128" xmlns="http://www.w3.org/2000/svg">
  <path d="M123.58,4.05c-1.43-1.47-4-1.47-5.42,0.01c0,0-55.89,55.89-55.89,55.89c-0.46-0.12-0.95-0.07-1.41-0.01l-0.01,0.01 c-1.99,0.53-4.15,1.77-5.31,3.62c-0.59-0.03-1.27,0.82-1,1.24c0.02,0.01,0.04,0.02,0.05,0.03c-4.71-1.3-9.4,1.13-13.15,3.81 c-0.45-0.19-2.11,0.96-1.85,1.41c-1.43,1.11-2.75,2.36-4.17,3.47c-0.68-0.09-2.24,0.84-2.05,1.23c-7.1,1.74-14.56,5.42-20.02,9.94 c-2.09,1.4-6.93,5.79-7.6,6.55c-1.6,1.52-1.88,3.33-0.54,5.14c6.16,8.4,20.69,22.35,25.84,26.03c3.32,2.34,4.21,1.78,5.61,0.12 l0.06,0.06c7.16-7.97,13.55-17.09,16.43-27.54c0.28,0.14,1.1-1.43,1-2.1c0.9-1.11,2.18-2.58,3.49-4.3c0.4,0.05,1.42-1.29,1.31-1.79 c2.6-3.79,5-8.49,3.94-13.2c0.55,0.28,1.52-0.77,1.03-1.39c0.02-0.01,0.04-0.01,0.05-0.02c1.42-0.75,2.26-2.24,3.09-3.56 c0.55-1.14,1.25-1.64,0.69-3.39l55.83-55.83C125.08,7.98,125.08,5.55,123.58,4.05z M50.14,94.8c-2.42,8.03-6.92,15.6-13.56,23.42 c-0.9-0.89-2.35-2.26-2.82-3.42c-0.73-1.25,0.38-1.89,1.26-2.57c2-1.88,5.03-3.84,5.51-6.65c-0.28-0.52-1.9,1.22-2.2,1.49 c-2.03,1.62-4.59,4.71-7.49,3.88c-3.16-2.67-5.63-6.23-8.85-8.91c-0.41-0.37-0.49-0.53-0.03-0.98c1.52-1.48,2.98-3.03,4.37-4.63 c1.24-2.86-5.47,3.23-5.96,3.68c-0.44,0.37-1.71-1.04-1.99-1.26c-0.74-0.59-1.23-0.82-0.37-1.69c3.87-3.92,7.78-7.56,12.43-10.58 c0.86-0.55,1.76-1.12,2.25-2.02c-0.09-0.24-0.44-0.21-0.69-0.12c-6.45,2.32-15.12,10.33-15.86,11.04c-1.48,1.45-5-2.8-6.24-3.94 c3.98-3.66,12.99-11.15,21.51-13.02c1.72-0.36,3.25-0.96,4.57-1.75c5.21,4.15,11.13,10.16,15.08,15.37 C50.49,93.15,50.27,94.15,50.14,94.8z M52.78,89.91c-0.13,0.16-0.25,0.3-0.37,0.45c-3.88-5.32-9.14-10.82-14.46-15.01 c1.29-1.1,2.45-2.12,3.98-3.31c4.6,3.99,10.05,9.53,13.76,14.15C54.81,87.4,53.84,88.63,52.78,89.91z M57.07,84.21 c-3.59-4.67-8.59-9.64-13.21-13.58c4.34-3.05,9.52-4.91,13.6-0.61C61.51,74.07,60.61,78.73,57.07,84.21z M65.9,66.64 c-1.08,2.11-2.1,3.36-2.6,3.71c-0.17-0.06-0.34-0.14-0.51-0.23c-1.4-2.25-3.34-4.08-5.5-5.59c0.86-1.22,2.9-2.65,4.54-2.64 C62.29,61.91,66.63,66.07,65.9,66.64z"/>
</svg>