<svg viewBox="0 0 128 128" xmlns="http://www.w3.org/2000/svg">
  <g>
    <path d="M38.7,72.5c-1.8,2.5-2.2,3.8-1.9,8.4c0.3,4.7,4.6,5.1,4.6,1.8c0-3.4-0.5-4.4,0.5-6s4.9-4.4,3.2-6.5 C43.4,68.2,40.5,70,38.7,72.5z"/>
    <path d="M41.1,85.6c-2.4,0-3,2.8-1.7,4.4c1.1,1.4,4.3,1,4.6-1.4C44.3,86.2,42.7,85.6,41.1,85.6z"/>
    <path d="M79.6,36.5c-1.8,0.3-1.2,3.2,0,5.7c1.2,2.6,3.3,3.8,4.6,2.7s-0.2-3.3-0.9-4.7C82.5,38.9,81.4,36.2,79.6,36.5z"/>
    <path d="M123.1,76.7c-1.2-1.3-4.5-6.2-8.1-7c-0.2,0-0.4-0.1-0.7-0.1c-4,0-15.8,4.5-16.1,4.6c0,0,0,0,0,0c0.9-0.4,2.2-1.8,3.4-2.7 c0,0,0,0,0.1,0c0.2-0.1,0.3-0.3,0.5-0.4c0.1-0.1,0.2-0.1,0.3-0.2c0.1,0,0.1-0.1,0.2-0.1c0,0,0.1-0.1,0.1-0.1 c0.1-0.1,0.2-0.1,0.2-0.2c0,0,0.1,0,0.1-0.1c0.1-0.1,0.2-0.1,0.3-0.2c0,0,0.1,0,0.1-0.1c0.1-0.1,0.2-0.2,0.3-0.2c0,0,0,0,0.1,0 c0.1-0.1,0.2-0.2,0.4-0.3c0,0,0,0,0,0c1.3-1,2.7-2.1,2.9-2.7v0c0,0,0,0,0.1,0c0.1,0,0.1-0.1,0.2-0.1c0.5-0.4,1.1-0.8,1.5-1.1 c0.3-0.2,0.5-0.4,0.7-0.5c0,0,0.1,0,0.1-0.1c0.2-0.2,0.4-0.3,0.6-0.4c2.7,1,6.4,3.4,8.2,3.7c0.4,0.1,0.7,0.1,1,0.1 c1.3,0,2.1-0.6,1.1-2.1c-1.2-1.9-7.8-7.4-10.9-7.4c-0.1,0-0.1,0-0.2,0c-3.5,0.3-13.3,8-14,8.5c-0.1,0-0.2,0.1-0.3,0.1 c0,0-0.1,0-0.1,0c-0.1,0-0.1,0-0.2,0c0,0,0,0,0,0c-0.1,0-0.1,0-0.2-0.1c0,0,0,0,0,0c0-0.1-0.1-0.1-0.1-0.2c0-1,4.4-2.8,5.9-6.1 c1.1-2.4,0.2-3.4,0.2-3.4s2.2-1.1,2.4-4.6c0.1-2.2-1-4.5-1.8-5.9c1.7-6-1.2-14.4-8.5-20.3c-5.7-4.5-13-6.5-18.1-6.5 c-1.5,0-2.9,0.2-3.9,0.5c-0.4,0.1-0.6,0.3-0.7,0.5c-0.2,0.1-0.3,0.2-0.4,0.5c0,0.2-0.1,0.4-0.1,0.6c0,0.1,0,0.1,0,0.2 c0,0.1,0,0.3,0.1,0.4c0,0.1,0,0.2,0.1,0.2c0,0.1,0.1,0.3,0.1,0.4c0,0.1,0.1,0.2,0.1,0.3c0.1,0.2,0.1,0.3,0.2,0.5 c0,0.1,0.1,0.2,0.1,0.3c0.1,0.2,0.2,0.3,0.3,0.5c0,0.1,0.1,0.2,0.1,0.2c0.1,0.2,0.2,0.4,0.3,0.5c0,0.1,0.1,0.1,0.1,0.2 c0.1,0.2,0.3,0.4,0.4,0.6c0,0.1,0.1,0.1,0.1,0.2c0.2,0.2,0.3,0.4,0.5,0.6c0,0,0,0.1,0.1,0.1c0.6,0.7,1.2,1.4,1.7,2c0,0,0,0,0,0 c0.2,0.2,0.3,0.3,0.5,0.5c0,0,0.1,0.1,0.1,0.1c0.1,0.1,0.2,0.2,0.3,0.3c0.1,0.1,0.1,0.1,0.2,0.2c0,0,0.1,0.1,0.1,0.1 c0.1,0.1,0.1,0.1,0.2,0.2c-0.2,0.3-0.5,0.5-0.7,0.8c0,0,0,0,0,0c-0.2,0.3-0.4,0.6-0.6,1c-0.5-0.5-1.4-1.3-2-1.8c-0.7-0.6-2-2-2.9-2 c-0.2,0-0.4,0.1-0.5,0.2c-0.9,0.9-0.3,4.5,1.4,6.8c1,1.3,2.9,3.4,3.9,4.4c0.1,0.2,0.2,0.3,0.3,0.4c0.1,0.1,0.1,0.1,0.2,0.2 c0.1,0.1,0.1,0.3,0.2,0.4c0.4,0.5,1,0.9,1.8,1.4c0.6,1.6,2,3.4,4.9,5.5c3,2.2,6.4,4.4,9.6,5.1c0.2,0.2,0.5,0.6,0.9,1.1 c0.3,0.4,0.6,0.8,0.9,1.1c0.5,0.5,0.9,1.1,1.2,1.4c-1.9,0.3-4,1.9-4.7,2.7c-0.9,1.2-1.5,2.3-1.8,3c-0.9-0.2-1.8-0.4-2.6-0.4 c0,0-0.1,0-0.1,0c-0.2,0-0.5,0-0.7,0c0,0,0,0-0.1,0c0,0,0,0-0.1,0c-0.1,0-0.2,0-0.4,0c0,0-0.1,0-0.1,0c-0.2,0-0.4,0-0.6,0.1 c0,0-0.1,0-0.1,0c-0.1,0-0.2,0.1-0.3,0.1c0,0-0.1,0-0.1,0c-0.2,0.1-0.4,0.3-0.5,0.5c0,0,0,0.1,0,0.1c0,0.1,0,0.1,0,0.2 c-0.7,0-1.4,0-2.2,0c-1.1,0-2.2,0-3.4,0c-0.1-1.6,0-4.1,0.8-6.4c1.3-3.9,2.8-11.2-3.7-11.6c-0.2,0-0.4,0-0.5,0 c-5.9,0-6,7.3-4.5,11.6c0.4,1.2,0.7,4.6,0.9,6.6c-2.2,0-4.3,0.1-6,0.2c-1.8,0.1-3.5,0.2-5.1,0.3c-0.1-1.7-0.2-4.8,0.1-7.5 c0.4-3.9,2.5-10-3.5-11c-0.4-0.1-0.7-0.1-1-0.1c-5.2,0-7.3,7.4-5,12.7c1.3,3,2,5.2,2.3,6.5c-2.8,0.3-4.7,0.7-5.6,0.9 c0,0,0-0.1-0.1-0.1c-0.1-0.1-0.2-0.2-0.4-0.2c0,0-0.1,0-0.1-0.1C45.1,65,45,65,44.9,65c-0.1,0-0.1,0-0.2,0c-0.1,0-0.2,0-0.4-0.1 c-0.1,0-0.1,0-0.2,0c-0.1,0-0.3,0-0.4,0c0,0-0.1,0-0.1,0c0,0-0.1,0-0.1,0c-0.3,0-0.5,0-0.8,0c0,0,0,0,0,0c-0.3,0-0.6,0.1-0.9,0.1 c-0.1,0-0.1,0-0.2,0c-0.6,0.1-1.2,0.2-1.8,0.3c-0.1-1.8-0.7-8-4.2-8c-0.1,0-0.2,0-0.2,0l0.1-0.5c0,0,1.2-0.7,2-2.9 c0.2-0.7,0.4-1.5,0.4-2c6.4-0.9,12.9-6.5,16.4-11.2c4.9-6.6,7.3-10,5.8-12c-0.2-0.3-0.5-0.4-0.9-0.4c-2,0-5.9,3.1-7.3,4.3 c-0.1-0.2-0.1-0.4-0.2-0.6c0,0,0,0,0,0c-0.1-0.2-0.2-0.4-0.3-0.5c-0.2-0.3-0.3-0.5-0.5-0.8c0,0,0,0,0,0c-0.2-0.2-0.3-0.5-0.5-0.7 c0,0,0,0,0,0c0.1-0.1,0.2-0.2,0.4-0.3c0,0,0,0,0,0c0.1-0.1,0.3-0.2,0.5-0.3c0,0,0.1,0,0.1-0.1c0.2-0.1,0.3-0.3,0.5-0.4 c0,0,0.1-0.1,0.1-0.1c0.2-0.1,0.4-0.3,0.6-0.5c0,0,0,0,0.1,0c0.2-0.2,0.4-0.3,0.6-0.5c0,0,0.1,0,0.1-0.1c0.2-0.2,0.4-0.3,0.6-0.5 c0,0,0.1-0.1,0.1-0.1c0.2-0.2,0.4-0.4,0.6-0.5c0,0,0.1-0.1,0.1-0.1c0.2-0.2,0.4-0.4,0.7-0.6c0,0,0,0,0.1,0c0.2-0.2,0.4-0.4,0.6-0.5 c0,0,0.1-0.1,0.1-0.1c0.2-0.2,0.4-0.4,0.6-0.5c0,0,0.1-0.1,0.1-0.1c0.2-0.2,0.3-0.4,0.5-0.5c0,0,0.1-0.1,0.1-0.1 c0.2-0.2,0.3-0.4,0.4-0.5c0,0,0,0,0,0c0.1-0.2,0.2-0.3,0.3-0.5c0,0,0,0,0-0.1c0.1-0.1,0.2-0.3,0.2-0.4c0,0,0-0.1,0-0.1 c0-0.1,0.1-0.3,0.1-0.4c0,0,0,0,0-0.1c0-0.1,0-0.2-0.1-0.3c-0.1-0.1-0.2-0.2-0.3-0.3c0-0.1-0.1-0.1-0.2-0.1 c-0.4-0.2-1.8-0.5-4.1-0.5c-4.4,0-11.6,1.1-19.2,5.8c-6.9,4.3-11,15.3-6.6,21.5c-1.5,1.4-3.1,3.7-2.8,6.5c0.6,4.9,4.3,5.8,4.3,5.8 s0,1.3,0.8,3.2c0.8,2,2.8,4.1,2.4,4.7c0,0-0.1,0.1-0.1,0.1c-0.5-0.4-2.1-1.3-3.5-2.3c-2.1-1.4-6.8-4.5-8.6-4.8 c-0.2,0-0.4-0.1-0.7-0.1c-1.7,0-3.8,0.9-7.2,3.2C9,66.9,6.8,70,8.2,71c0.2,0.2,0.5,0.2,0.9,0.2c1.3,0,3.3-1.1,4.4-1.5 c1.1-0.4,4-1.8,5.5-2.4c0,0,0,0,0,0l0,0c-0.3,1.2,5.2,5.4,6.6,6.6c0,0,0,0,0,0c0.1,0.1,0.2,0.1,0.2,0.2c0.1,0.1,0.1,0.1,0.2,0.2 c0,0,0.1,0,0.1,0.1c0.1,0.1,0.2,0.2,0.3,0.3c0,0,0,0,0.1,0.1c0.3,0.2,0.7,0.5,1.1,0.8c-3.1-0.9-8.7-2.4-11.1-2.6 c-2.1-0.3-3.1-0.6-3.9-0.6c-0.5,0-1,0.1-1.6,0.4c-1.8,0.8-6,5.8-7.2,7.2S0,84.9,0.4,85.8c0.2,0.4,0.6,0.6,1.2,0.6 c0.9,0,2.2-0.5,4-1.7c2.2-1.5,4.9-4.2,6.7-5.7c0.3,0,0.7,0.1,1,0.2c0.3,0.1,0.6,0.1,0.8,0.2c0.1,0,0.2,0.1,0.3,0.1 c0.2,0,0.3,0.1,0.5,0.1c0.1,0,0.3,0.1,0.4,0.1c0.1,0,0.3,0.1,0.4,0.1c0.1,0,0.3,0.1,0.4,0.1c0.1,0,0.3,0.1,0.4,0.1 c0.1,0,0.3,0.1,0.4,0.1c0.2,0,0.3,0.1,0.5,0.1c0.1,0,0.3,0.1,0.4,0.1c0.2,0.1,0.4,0.1,0.6,0.2c0.1,0,0.2,0.1,0.3,0.1 c0.4,0.1,0.8,0.3,1.3,0.4c0,0,0.1,0,0.1,0l0,0c0.2,0.4,4.5,1.7,6.9,2.5c0,0,0,0,0.1,0c0.2,0,0.3,0.1,0.5,0.1c0.1,0,0.2,0,0.2,0.1 c0.1,0,0.2,0,0.2,0.1c0.1,0,0.2,0.1,0.3,0.1c0,0,0,0,0.1,0c0.1,0,0.2,0,0.2,0c0.1,0,0.2,0,0.3,0c0,0,0,0,0,0c0.1,0,0.2,0,0.3,0 c0,0,0,0,0,0c0,0,0,0.1-0.1,0.1c-0.1,0.1-0.1,0.1-0.2,0.2c-1.2-0.1-4.6-0.5-6.8-0.5c-0.6,0-1.1,0-1.4,0.1c-2.2,0.5-8.8,5.9-10,7.9 c-1.2,2-4,8.6-4.6,11c-0.4,1.7,0.1,2.2,0.9,2.2c0.4,0,0.9-0.1,1.4-0.3c1.5-0.6,5.3-6.5,6-7.4c0.7-1,4-3.6,5-4.5 c0.4-0.4,1.3-1.1,2.1-1.8c0.1,0,0.1,0.1,0.2,0.1c0,0,0.1,0,0.1,0c0.1,0,0.1,0,0.2,0c0,0,0.1,0,0.1,0c0.1,0,0.1,0,0.2,0 c0.1,0,0.1,0,0.2,0c0.1,0,0.1,0,0.2,0c0,0,0.1,0,0.1,0c0,0,0,0,0,0c0.3,0,0.6,0,0.9,0c0.1,0,0.2,0,0.2,0c0.2,0,0.4,0,0.7,0 c0.1,0,0.2,0,0.3,0c0.2,0.4,2.5,0.7,4.5,0.9c0.1,0,0.1,0,0.2,0c0,0,0.1,0,0.1,0c0.6,0.1,1.2,0.1,1.7,0.2c0,0,0,0,0,0 c0,0.1-0.1,0.2-0.1,0.4c0,0,0,0,0,0c0,0.1-0.1,0.1-0.1,0.2c-0.1,0.1-0.1,0.2-0.2,0.2c-2.5,0-6.1,1.3-7.2,1.9 c-1.3,0.8-2.8,3-3.5,6.2s-1.7,8.7-1,9.1c0.1,0,0.2,0.1,0.3,0.1c1.1,0,3.5-1.4,4.6-3.9c1.2-2.8,2.7-5.6,3.9-6.6 c0.1,0,0.2-0.1,0.3-0.1c0,0,0.1,0,0.1,0c0.1,0,0.3,0,0.5,0c0,0,0.1,0,0.1,0c0.1,0,0.3,0,0.4,0c0.2,0,0.5,0,0.7,0c0,0,0.1,0,0.1,0 c0.3,0,0.6,0,1,0.1c0.1,0,0.2,0,0.3,0c0.3,0,0.5,0,0.8,0.1c0.3,0,0.6,0,0.9,0.1c0.1,0,0.2,0,0.3,0c0,0,0,0,0,0.1 c0.1,0.7,8.4,2.8,8.4,2.8s0,0,0.1,0.1c0,0,0.1,0.1,0.1,0.1c0,0,0.1,0,0.1,0.1c1.3,0.8,6,3.8,8.1,4.7c0,0,0,0,0,0 c0.2,0.1,0.3,0.1,0.4,0.2c0,0,0,0,0,0c0.1,0,0.2,0,0.3,0.1c0,0,0,0,0,0c0,0,0,0,0,0h0c4.3,1.7,9.1,2.2,13.4,2.2 c1.9,0,3.8-0.1,5.5-0.2c6.8-0.5,13.2-4.3,15.3-6.4l0,0c0,0,0,0.1,0.1,0.1c0,0,0,0,0,0c0,0,0,0,0,0c0,0,0.1,0,0.1,0c0,0,0,0,0,0 c0.1,0,0.1-0.1,0.2-0.1c0,0,0.1,0,0.1,0c0.1,0,0.2-0.1,0.2-0.1c0,0,0.1,0,0.1-0.1c0.1-0.1,0.3-0.2,0.4-0.3c2.5-1.8,3.5-3.2,3.5-3.2 s4.2,0.1,4.7-0.7l5.2-0.5c0.8,0.4,1.4,0.9,1.4,0.9s1.2,3.2,1.8,5c0.6,1.7,2.8,5,4.5,5c0.1,0,0.1,0,0.2,0c1.7-0.2,1-6.4,1-7.4 c-0.3-3.2-2.2-7.1-3.7-8.5c-2.3-2-8.1-3.1-9.3-3.3c0,0,0.1-0.1,0.2-0.2c0.2,0,0.4,0,0.6-0.1c0.2,0,0.5,0,0.7-0.1 c0.2,0,0.3,0,0.5-0.1c0,0,0.1,0,0.1,0c2.7-0.2,6.1-0.4,6.6-1.1c0.1,0,0.1,0,0.2,0c0,0,0,0,0.1,0c0.1,0,0.2,0,0.3,0 c0.1,0,0.2,0,0.3,0c0,0,0,0,0,0c0,0,0,0,0,0c0.1,0,0.2,0,0.3,0c0,0,0,0,0,0c0.1,0,0.1-0.1,0.2-0.2c0.9,0.9,2.1,2,3.2,2.9 c1.4,1.2,5.6,5.4,5.6,5.4s3.2,6.3,5.2,6.4c0,0,0,0,0.1,0c1.9,0,1.9-2.7,1-5.1c-0.9-2.5-2.2-6.6-2.7-7.1c-0.5-0.5-2.2-3-4.3-5.1 c-1-1-4.8-4.3-5.8-4.5c-0.5-0.1-3.2-0.2-5.7-0.2c-1.3,0-2.6,0-3.5,0.1c0.3-0.1,0.5-0.3,0.8-0.5c0,0,0,0,0,0c0.2,0,0.3-0.1,0.5-0.1 c0,0,0,0,0.1,0c0.1,0,0.3-0.1,0.4-0.1c0,0,0.1,0,0.1,0c0.1,0,0.2-0.1,0.3-0.1c0.1,0,0.2-0.1,0.3-0.1c0.1,0,0.2-0.1,0.3-0.1 c0.1,0,0.1,0,0.2-0.1c0.1,0,0.1,0,0.2-0.1c0.1,0,0.3-0.1,0.4-0.1c0,0,0,0,0,0c0.1,0,0.3-0.1,0.4-0.1c0,0,0,0,0,0 c0.2-0.1,0.3-0.1,0.5-0.2c0,0,0,0,0,0c1.8-0.6,4.1-1.5,4.6-2l0,0c0,0,0,0,0.1,0c2.3-0.6,4.6-1.3,5.9-1.6c0,0,0.1,0,0.1,0 c0.1,0,0.3-0.1,0.4-0.1c0,0,0,0,0.1,0c0.1,0,0.2-0.1,0.2-0.1c0,0,0.1,0,0.2,0c2.4,2.4,7.2,7.4,10.5,7.4c0.3,0,0.7-0.1,1-0.2 C128.9,82.8,124.5,78.1,123.1,76.7z M97.1,68.8c9.5-7.3,12.2-7.8,12.6-7.9c1.6,0,5.9,3.1,8.1,5.2c-0.8-0.3-1.8-0.9-2.7-1.3 c-1.4-0.7-2.8-1.5-4.1-1.9l-1-0.4l-0.9,0.6l-2.8,2c-3.2,1.8-8.6,6.3-8.8,6c-0.2-0.2-0.3-0.8-0.8-2l0,0C96.8,69,96.9,68.9,97.1,68.8 z M70.7,32.3c0.1,0.1,0.2,0.2,0.3,0.3c0.4,0.4,1.1,1,2,1.7l0.7,0.6c-0.1,0.6-0.2,1.2-0.2,1.8c-0.6-0.7-1.2-1.4-1.5-1.8 C71.3,34,70.9,33.1,70.7,32.3z M82.8,46.7c-2.3-1.7-3.7-3.3-4.2-4.6l-0.3-0.7L77.7,41c-0.9-0.5-1.1-0.8-1.2-0.9c0,0,0,0,0-0.1 l-0.1-0.3c0-0.6,0.2-1.3,0.3-1.9c0.7-3.3,3.2-4.2,3.2-5.2S78.6,30,75.5,27c-0.8-0.8-1.8-1.6-2.7-2.3c-0.6-0.9-0.9-1.6-1.1-2 c0.6-0.2,1.5-0.3,2.9-0.3c4.6,0,11.6,1.9,16.9,6.1c5.3,4.2,9.7,11.8,7.8,18.2l-0.2,0.8l0.4,0.7c0.3,0.5,0.5,0.9,0.7,1.4 c-0.3,0.5-0.6,1-1,1.4c-1.6,1.8-3.4,2.6-5.4,2.7c-0.4-0.5-0.8-1-1.2-1.5l-0.4-0.6l-0.7-0.2C89.2,50.9,86.3,49.4,82.8,46.7z M91.2,61c0.4-0.5,2-1.7,3.4-1.9l2.7-0.5c0.2,1.1-0.4,2.6-1.4,4c-1,1.4-2.5,2.4-3.4,2.9c-0.5-0.6-1.1-1.2-1.9-1.7 c-0.2-0.1-0.5-0.3-0.9-0.4C90.1,62.8,90.5,61.9,91.2,61z M54.2,47.3c0.2,0,0.5,0,0.7,0.1c2.1,0.4,2.7,1.4,2.5,4.2 c-0.4-2.1-2.1-3.7-4-3.5c-0.8,0.1-1.6,0.5-2.1,1.2c0.1-0.1,0.1-0.2,0.2-0.3C52.1,47.8,53.1,47.3,54.2,47.3z M35.7,59.3 C35.7,59.3,35.7,59.3,35.7,59.3c1.1,0,2.1,2.8,2.3,6.2l0,0.4c-0.4,0.1-0.8,0.2-1.2,0.3c-0.7,0.2-1.3,0.6-1.9,1 c-0.2-0.7-0.7-1.4-1.1-2.1c-0.1-0.1-0.2-0.3-0.3-0.4c-0.2-0.4-0.4-0.8-0.5-1.2c-0.5-1.2-1.2-3.9,0.4-5.3l-0.2,1.3L35.7,59.3z M53.3,34.1c2.5-2.1,4.4-3.2,5.3-3.6c-0.4,1.7-3.6,6.1-5.8,9.1c-0.2,0.2-0.3,0.5-0.5,0.7c0.3-1.5,0.4-3.6,0.2-5.4L53.3,34.1z M28.7,39.1c0.3-1.7,1-3.4,1.8-4.9c-0.4,0.9-0.7,1.9-0.9,3c-0.5,2.8-0.8,7.8,1.8,7.5c3.5-0.4,1.9-3.9,2.6-6.7c1-3.5,4-5.3,1.7-7.3 c-0.8-0.7-1.7-0.7-2.5-0.2c0.8-0.9,1.7-1.7,2.7-2.3c7.6-4.8,14.6-5.5,18.1-5.5c0.8,0,1.4,0,2,0.1c-0.8,0.8-2.1,2-3.8,3.5 c-2.2,1.3-5.9,3.6-5.9,4.6c0,1.3,1.1,1.7,2.2,5c0.9,2.8,1,5.9,1.7,6.9c-3.4,3.5-8.1,6.7-12.4,7.3l-1.5,0.2L36,51.6 c0,0.1,0,0.2,0,0.3c-2-0.1-3.9-0.7-5.7-2c-0.2-0.2-0.4-0.4-0.7-0.6c0,0,0,0,0,0l1.2-1.2l-1-1.4C28.5,44.8,28.1,42.1,28.7,39.1z M18.3,65.5c-0.9,0.3-2,0.9-3.1,1.4c-0.9,0.4-1.9,0.9-2.4,1c-0.4,0.1-0.8,0.3-1.2,0.5c-0.3,0.1-0.6,0.3-0.9,0.4 C11.4,68,12.4,67,14,66c2.9-1.9,4.8-2.9,6.1-2.9c0.1,0,0.2,0,0.4,0c0.8,0.1,3.7,1.7,7.8,4.4c0.7,0.5,1.4,0.9,2.1,1.3 c0.5,0.3,1,0.6,1.2,0.8c-0.1,0.2-0.3,0.4-0.4,0.6c-0.6,1-1.2,2.9-1,2.8c0.1-0.1-5.3-3.5-8.3-5.1c-0.2-0.2-0.4-0.5-0.6-0.7l0.1-0.5 L20.4,66L19.5,65L18.3,65.5z M11.6,77l-0.7,0.6c-0.4,0.4-0.9,0.8-1.4,1.2c-1.6,1.4-3.5,3.2-5.1,4.3c-0.4,0.2-0.7,0.4-1,0.6 C4,83,4.7,82.2,5.4,81.3c3.9-4.8,5.9-6.4,6.4-6.7c0.5-0.2,0.7-0.2,0.8-0.2c0.2,0,0.6,0.1,1.1,0.2c0.6,0.1,1.4,0.3,2.6,0.4 c1.6,0.2,5.5,1.1,10.8,2.6l2.8,0.2l0.2,2.6c0,0-2-0.5-5.5-1c-2.2-0.3-5.7-0.9-8.1-1.2c-0.9-0.3-1.8-0.5-2.7-0.8 c-0.3-0.1-0.7-0.2-1.2-0.2L11.6,77z M21.2,88.8l-1,0.8c-0.9,0.7-1.7,1.5-2.2,1.9c-0.3,0.2-0.7,0.6-1.1,1c-2,1.6-3.5,3-4.1,3.8 c-0.1,0.1-0.3,0.4-0.5,0.7c-2,2.9-3.1,4.4-3.9,5.2c1-2.8,3.1-7.7,4-9.3c1-1.7,7.1-6.6,8.7-6.9c0,0,0.3,0,1,0c2.1,0,5.6,0.4,6.6,0.5 l0.8,0.1l0.6-0.5c0.2-0.1,0.4-0.3,0.6-0.6c0.4,0.3,0.8,0.7,1,1c0.5,1,1,2.7,0.7,3.1c-0.2,0.3-3.7,0-6.2-0.2L26,89.2l-1.3,0.1 l-0.2,0c-0.6,0-1.3,0.1-1.8,0.1c-0.3,0-0.4,0-0.5,0L21.2,88.8z M27.2,98.3l-0.3,0.1l-0.2,0.2c-1.8,1.5-3.6,5.2-4.5,7.3 c-0.3,0.7-0.7,1.3-1.2,1.7c0.2-1.5,0.5-3.6,1-5.7c0.7-3.1,2-4.6,2.6-5c0.8-0.5,4-1.6,6.2-1.6l0.9,0l0.6-0.7 c0.3-0.3,0.5-0.6,0.6-0.9c1,0.3,1.6,0.8,1.8,1.4c0.4,0.8,2,3.7,2,3.7s-0.6,0-1.3,0l0-0.2l-1.7-0.2c-0.2,0-0.3,0-0.4,0 c-0.3,0-0.6,0-1-0.1c-1-0.1-2.2-0.2-3.1-0.2C28.3,98,27.7,98.1,27.2,98.3z M69.9,108.3c-2,0.1-3.7,0.2-5.3,0.2 c-5.1,0-9.2-0.7-12.7-2l-0.4-0.2l-0.2,0c-0.9-0.3-3.7-1.9-6.5-3.6c-2.1-2.3-5.2-6.4-7.2-11.2c-0.8-2.1-4.2-12.7-4-16.3 c0.2-3.7,1.7-5.7,3.9-6.7c1.2-0.6,4.1-1.1,6.1-1.7c0.5,0,0.8,0,0.9,0.1l0.6,0.6l1.1-0.2c0.9-0.2,2.7-0.5,5.5-0.8l2.2-0.3l-0.5-2.2 c-0.5-2-1.3-4.3-2.4-6.9c-0.5-1.2-0.8-2.7-0.8-4.1c0.4,2.2,2.1,3.8,4,3.6c1.1-0.1,2.1-0.9,2.6-1.9c-0.1,0.5-0.1,0.9-0.2,1.4 c-0.3,2.6-0.2,5.5-0.1,7.8l0.1,2.1l2.1-0.2c1.7-0.1,3.3-0.2,5-0.3c1.5-0.1,3.5-0.1,5.9-0.2l2.1,0l-0.2-2.1c-0.4-5.5-0.8-6.7-1-7.1 c-0.9-2.4-1.1-6,0.2-7.8c0.3-0.5,0.9-1.1,2.4-1.1c0.1,0,0.3,0,0.4,0c1.5,0.1,2.1,0.7,2.3,1.1c0.2,0.4,0.4,0.8,0.5,1.4 c-0.4-0.7-0.9-1.2-1.7-1.4c-1.8-0.5-3.8,0.9-4.4,3.2c-0.7,2.3,0.2,4.6,2,5.1c1.3,0.4,2.6-0.2,3.5-1.4c-0.1,0.4-0.2,0.7-0.3,1.1 c-0.9,2.6-1,5.3-0.9,7.1l0.1,1.9l1.9,0c1.2,0,2.3,0,3.4,0l2.2,0l1.9,0l0.1-0.9c1.4,0.2,3.4,0.4,4.8,1.2c2.5,1.4,4.5,4.9,4.3,12.1 C93.1,85,91,92.9,90.7,94.1c-0.4,1.5-1.5,3.6-2.5,5.3c-0.2,0.3-0.6,0.6-1.1,1l-0.1-1l-3.1,3.1C82.1,104.3,76.2,107.9,69.9,108.3z M103.9,95.4c1,0.9,2.7,4.2,3,7.2l0,0.1c0.2,2.2,0.2,3.6,0.1,4.5c-0.7-0.8-1.5-2-1.9-3c-0.7-1.8-1.8-5-1.8-5l-0.2-0.7l-0.6-0.4 c0,0-0.7-0.4-1.4-0.9l-0.6-0.3l-0.6,0.1l-4.4,0.4c-1.2-0.1-2.3-0.1-2.3-0.1s1.2-2.2,1.6-3.4c0.1-0.4,0.3-0.9,0.4-1.3l0.4,0.1 C98.8,93.1,102.6,94.2,103.9,95.4z M99.2,83.9c0.8-0.1,2-0.1,3.4-0.1c2.4,0,4.6,0.1,5.3,0.2c0.9,0.4,3.7,2.8,4.8,3.9 c1.3,1.3,2.5,2.9,3.3,3.9c0.4,0.5,0.7,0.9,0.9,1.1c0.3,0.6,1,2.7,1.5,4.1c0.3,0.9,0.6,1.7,0.9,2.4c0.3,0.7,0.4,1.3,0.4,1.8 c-0.9-1-2.1-2.9-3-4.7l-0.2-0.3l-0.2-0.2c-0.2-0.2-4.3-4.2-5.7-5.4c-0.6-0.6-1.3-1.2-2-1.9c-0.4-0.4-0.8-0.7-1.1-1l-2.3-2.1 l-0.6,1.6l-0.9-0.1l-0.4,0.5c-2.2-0.2-6.9-0.3-6.9-0.3s0.2-1.3,0.4-2.1c0-0.2,0.1-0.7,0.2-1.3L99.2,83.9z M117,75.6 c-0.2-0.2-0.5-0.5-0.7-0.7l-0.8-0.8l-1.1,0.2c-0.1,0-0.3,0.1-0.4,0.1c-0.2,0.1-0.7,0.2-1.4,0.4c-0.9-0.1-2,0.2-4.5,0.6 c-3.4,0.5-10.4,2.6-10.4,2.6c0,0,0.1-1.1,0.2-1.8l0.9-0.3c4.7-1.8,12.7-4.5,15.4-4.5c0.2,0,0.3,0,0.3,0c2.2,0.5,4.7,3.5,6,5.1 c0.4,0.5,0.8,1,1.1,1.3c1.7,1.7,2.6,2.9,3,3.6C122.3,80.9,118.7,77.3,117,75.6z"/>
  </g>
</svg>