<svg viewBox="0 0 128 128" xmlns="http://www.w3.org/2000/svg">
  <g>
    <path d="M77.7,43.31c10.49-1.93,15.67,6.84,15.9,7.24c0.55,0.97,1.57,1.52,2.61,1.52c0.5,0,1-0.12,1.46-0.38 c1.45-0.81,1.96-2.64,1.15-4.08c-2.51-4.48-10.38-12.36-22.21-10.19c-1.63,0.3-2.71,1.86-2.41,3.49 C74.51,42.53,76.09,43.61,77.7,43.31z"/>
    <path d="M50.67,43.31c1.63,0.3,3.19-0.78,3.49-2.41s-0.78-3.19-2.41-3.49c-11.8-2.18-19.68,5.71-22.21,10.19 c-0.81,1.44-0.3,3.25,1.13,4.07c0.47,0.27,0.98,0.39,1.48,0.39c1.04,0,2.05-0.54,2.61-1.51C34.98,50.18,40.19,41.38,50.67,43.31z"/>
    <path d="M104.4,21.4C93.8,12.1,79.5,7,64,7C36.1,7,6,24.5,6,62.9c0,13.56,3.76,24.5,9.85,33c-6.19,15.57,6.03,30.18,22.8,29.65 c8.11,0.7,15.41-3.47,22.17-6.83c2.23,0.12,4.56,0.09,6.78-0.01c0.01-0.01,0.02-0.01,0.03-0.02c14.02-0.75,27.01-5.83,36.77-14.39 C115.9,94.1,122,79.8,122,62.9C122,46,115.9,31.6,104.4,21.4z M47.06,121.23c-24.01,6.77-38.81-14-23.52-33.1 c2.23-2.98,6.49-8.32,9.3-13.79c1.6-2.83,2.21-6.53,3.51-8.94c0.64-0.85,3.07-0.31,3.29,0.47c1.29,3.05,1.15,6.48-0.42,9.47 c-1.49,3.2-2.2,4.78-2.23,5.85c-0.17,0.45-0.08,0.73,0.28,1.11c2.84,4.53,20.59-9.26,25.25-12.16c3.14-2.24,6.97-3.01,6.88,1.69 c-0.41,2.73-2.19,4.03-4.4,5.79c-2.23,1.87-10.12,7.61-15.24,10.19c1.14,3.25,13.64-6.02,18.37-9.42 c2.21-1.71,10.11-8.73,12.32-3.68c0,0.01,0,0.01,0,0.02c0.36,3.91-3.28,6.4-7.63,9.93c-6.58,4.98-16.5,11.62-16.5,11.62 c1.45,3.24,16.1-8.31,18.8-10.06c3.03-2.22,8.4-0.34,4.52,4.75c-4.06,5.19-11.84,9.9-20.18,14.86c0,0,0.58,0.98,2.69,0.26 c2.1-0.72,10.83-6.03,12.21-6.49c1.37-0.46,2.74-0.89,3.66,0.7c0.62,1.93-1.37,4.38-3.48,6.06 C74.41,106.45,61.3,116.18,47.06,121.23z M101.76,101.29c-7.7,6.76-17.51,11.15-28.26,12.79c3.63-3.63,6.29-7.6,7.03-9.18 c6.69-4.53,11.01-11.61,11.01-19.59c-0.03-22.65-31.57-32.47-48.07-17.6c-0.28-1.4-0.7-2.66-1.5-3.74c-1.58-2.45-6.7-2.78-8.2-0.13 c-1.34,2.26-1.96,5.84-3.33,8.58c-4.19,8.37-8.84,12.25-12.63,19.23C12.68,83.62,10,73.89,10,62.9c0-16.38,5.91-29.96,17.1-39.28 C36.73,15.6,50.18,11,64,11c14.5,0,27.91,4.76,37.75,13.39C112.38,33.82,118,47.14,118,62.9C118,78.59,112.38,91.88,101.76,101.29z "/>
  </g>
</svg>