<svg viewBox="0 0 128 128" xmlns="http://www.w3.org/2000/svg">
  <g>
    <path d="M85.3,57.3c-7.2,0-10.3,4.9-10.3,4.9l0,0c-0.2,0.4-0.4,0.8-0.4,1.2c0,1.2,1,2.2,2.1,2.2c0.2,0,0.8-0.2,0.9-0.2 c4.3-1.8,7.7-1.8,7.7-1.8s3.3,0,7.6,1.8c0,0,0.7,0.2,0.9,0.2c1.2,0,2.1-1,2.1-2.1c0-0.5-0.2-0.9-0.4-1.3 C95.6,62.2,92.5,57.3,85.3,57.3z"/>
    <path d="M42.7,57.3c-7.2,0-10.3,4.9-10.3,4.9l0,0C32.2,62.6,32,63,32,63.5c0,1.2,1,2.2,2.1,2.2c0.2,0,0.8-0.2,0.9-0.2 c4.3-1.8,7.7-1.8,7.7-1.8s3.3,0,7.6,1.8c0.1,0,0.7,0.2,0.9,0.2c1.2,0,2.1-1,2.1-2.1c0-0.5-0.1-0.9-0.4-1.3 C53,62.2,49.9,57.3,42.7,57.3z"/>
    <ellipse cx="43" cy="73.3" rx="6.7" ry="6.9"/>
    <ellipse cx="85.4" cy="73.3" rx="6.7" ry="6.9"/>
    <path d="M109.3,63.1c0.9-18.8-2.1-59.1-45.2-59.3h0c0,0,0,0,0,0C21.8,4,18.2,45,18.6,63.2c-2.6,2.8-4.2,6.7-4.2,10.9 c0,6,3.3,11.3,8,13.8c0.1,0.5,0.3,0.9,0.4,1.4c0,0,0,0,0,0c0.1,0.4,0.2,0.8,0.4,1.2c0,0,0,0,0,0c0.1,0.4,0.3,0.8,0.4,1.2 c0,0,0,0,0,0c0.1,0.4,0.3,0.8,0.4,1.1c0,0,0,0,0,0.1c0.1,0.4,0.3,0.8,0.4,1.1c0,0,0,0,0,0.1c0.1,0.4,0.3,0.8,0.5,1.1 c0,0,0,0.1,0,0.1c0.2,0.4,0.3,0.7,0.5,1.1c0,0,0,0.1,0.1,0.1c0.2,0.4,0.3,0.7,0.5,1.1c0,0,0,0.1,0.1,0.1c0.2,0.4,0.3,0.7,0.5,1.1 c0,0.1,0.1,0.1,0.1,0.2c0.2,0.4,0.3,0.7,0.5,1c0,0.1,0.1,0.1,0.1,0.2c0.2,0.3,0.4,0.7,0.5,1c0,0.1,0.1,0.1,0.1,0.2 c0.2,0.3,0.4,0.7,0.6,1c0,0.1,0.1,0.1,0.1,0.2c0.2,0.3,0.4,0.6,0.6,1c0,0.1,0.1,0.2,0.1,0.2c0.2,0.3,0.4,0.6,0.6,0.9 c0.1,0.1,0.1,0.2,0.2,0.3c0.2,0.3,0.4,0.6,0.6,0.9c0.1,0.1,0.1,0.2,0.2,0.3c0.2,0.3,0.4,0.6,0.6,0.9c0.1,0.1,0.1,0.2,0.2,0.3 c0.2,0.3,0.4,0.5,0.6,0.8c0.1,0.1,0.2,0.2,0.2,0.3c0.2,0.3,0.4,0.5,0.6,0.8c0.1,0.1,0.2,0.2,0.3,0.3c0.2,0.2,0.4,0.5,0.6,0.7 c0.1,0.1,0.2,0.2,0.3,0.4c0.2,0.2,0.4,0.5,0.6,0.7c0.1,0.1,0.2,0.3,0.4,0.4c0.2,0.2,0.4,0.4,0.6,0.6c0.1,0.1,0.3,0.3,0.4,0.4 c0.2,0.2,0.4,0.4,0.6,0.6c0.1,0.1,0.3,0.3,0.4,0.4c0.2,0.2,0.4,0.4,0.6,0.5c0.2,0.1,0.3,0.3,0.5,0.4c0.2,0.2,0.4,0.3,0.6,0.5 c0.2,0.2,0.4,0.3,0.6,0.5c0.2,0.1,0.4,0.3,0.5,0.4c0.2,0.2,0.4,0.3,0.6,0.5c0.2,0.1,0.3,0.2,0.5,0.3c0.2,0.2,0.5,0.3,0.7,0.5 c0.1,0.1,0.3,0.2,0.4,0.3c0.3,0.2,0.6,0.4,0.8,0.5c0.1,0.1,0.2,0.1,0.3,0.2c0.3,0.2,0.6,0.4,1,0.6c0.1,0,0.2,0.1,0.2,0.1 c0.4,0.2,0.7,0.4,1.1,0.6c0,0,0.1,0,0.1,0c4.6,2.3,10,3.7,16.3,4c0,0,0,0,0.1,0c0.5,0,1.1,0,1.6,0h0c0.6,0,1.1,0,1.6,0 c0,0,0,0,0.1,0c6.3-0.2,11.6-1.6,16.2-3.9c0,0,0.1,0,0.1,0c0.4-0.2,0.7-0.4,1.1-0.6c0.1,0,0.2-0.1,0.3-0.1c0.3-0.2,0.6-0.3,0.9-0.5 c0.1-0.1,0.3-0.1,0.4-0.2c0.3-0.2,0.5-0.3,0.8-0.5c0.2-0.1,0.3-0.2,0.5-0.3c0.2-0.2,0.5-0.3,0.7-0.5c0.2-0.1,0.4-0.2,0.5-0.4 c0.2-0.1,0.4-0.3,0.6-0.4c0.2-0.1,0.4-0.3,0.6-0.4c0.2-0.1,0.4-0.3,0.5-0.4c0.2-0.2,0.4-0.3,0.6-0.5c0.2-0.1,0.3-0.3,0.5-0.4 c0.2-0.2,0.4-0.4,0.6-0.6c0.1-0.1,0.3-0.3,0.4-0.4c0.2-0.2,0.4-0.4,0.6-0.6c0.1-0.1,0.2-0.2,0.4-0.4c0.2-0.2,0.4-0.4,0.6-0.7 c0.1-0.1,0.2-0.2,0.3-0.3c0.2-0.2,0.4-0.5,0.6-0.7c0.1-0.1,0.2-0.2,0.3-0.3c0.2-0.3,0.4-0.5,0.6-0.8c0.1-0.1,0.2-0.2,0.2-0.3 c0.2-0.3,0.4-0.5,0.6-0.8c0.1-0.1,0.1-0.2,0.2-0.3c0.2-0.3,0.4-0.6,0.6-0.8c0.1-0.1,0.1-0.2,0.2-0.3c0.2-0.3,0.4-0.6,0.6-0.9 c0.1-0.1,0.1-0.2,0.2-0.2c0.2-0.3,0.4-0.6,0.6-0.9c0-0.1,0.1-0.1,0.1-0.2c0.2-0.3,0.4-0.6,0.6-1c0-0.1,0.1-0.1,0.1-0.2 c0.2-0.3,0.4-0.7,0.6-1c0-0.1,0.1-0.1,0.1-0.2c0.2-0.3,0.4-0.7,0.6-1c0-0.1,0.1-0.1,0.1-0.2c0.2-0.3,0.4-0.7,0.6-1 c0,0,0-0.1,0.1-0.1c0.2-0.4,0.4-0.7,0.5-1.1c0,0,0-0.1,0.1-0.1c0.2-0.4,0.3-0.7,0.5-1.1c0,0,0-0.1,0-0.1c0.2-0.4,0.3-0.7,0.5-1.1 c0,0,0,0,0-0.1c0.2-0.4,0.3-0.8,0.5-1.1c0,0,0,0,0-0.1c0.2-0.4,0.3-0.8,0.5-1.2c0,0,0,0,0,0c0.2-0.4,0.3-0.8,0.4-1.2c0,0,0,0,0,0 c0.1-0.4,0.3-0.8,0.4-1.2c0,0,0,0,0,0c0.5-1.4,0.9-2.8,1.3-4.2c4.8-2.5,8.1-7.8,8.1-13.9C113.7,69.8,112,65.9,109.3,63.1z M18.3,74.1c0-1.4,0.2-2.7,0.7-4c0.1,1,0.2,1.6,0.2,1.6s0.3,3.9,1.5,9.6C19.2,79.3,18.3,76.8,18.3,74.1z M77.9,101.9 c-2.8,2.4-8.5,5.5-13.6,5.5c-5.1,0-10.9-3.1-13.7-5.5c-0.7-0.6-0.3-1.8,0.7-1.8h26C78.2,100.1,78.6,101.3,77.9,101.9z M98.7,89.2 c-1.7,4.8-4.4,7.3-8.7,8.2c-6.4,1.7-8.7-6-21.3-7.5c0.9-0.7,1.4-1.6,1.6-2c0.4-1-0.1-1.9-0.9-2.2c-0.1-0.1-0.3-0.1-0.4-0.1h-9.6 c-0.2,0-0.3,0-0.4,0.1c-0.9,0.3-1.4,1.2-0.9,2.2c0.2,0.4,0.7,1.2,1.6,2c-12.9,1.5-16.3,8.9-22.6,7.5c-5.5-1.2-7.5-7.1-8.7-11.5 c-2.9-10.8,0-36.3,1-39c1.4-3.8,5.2-5.9,9.1-5.2c6,1.1,15.5,2.5,26,2.5h0.2c10.5,0,20-1.4,26-2.5c3.9-0.7,7.7,1.5,9.1,5.2 C100.6,49.7,103.6,75,98.7,89.2z M107.1,81.6c1-5,1.3-8.5,1.3-9c0,0,0-0.1,0-0.1s0.2-1.1,0.4-3c0.6,1.4,0.9,2.9,0.9,4.6 C109.7,77,108.7,79.6,107.1,81.6z"/>
  </g>
</svg>