<svg viewBox="0 0 128 128" xmlns="http://www.w3.org/2000/svg">
  <path d="M94,9C72.1,9,64,31.4,64,31.4s-0.1-0.2-0.2-0.5C60.2,19.7,50.5,9,34,9C17.5,9-1.5,22.1,5.5,52 c7,29.9,58.6,67.1,58.6,67.1s51.4-37.2,58.4-67.1C129.5,22.1,111.9,9,94,9z M32.2,30.2c-4,3-7.5,4.9-9.9,9.6c-1.5,2.9-2.3,6-2.8,9.2 c-0.2,1.3-1.8,1.6-2.5,0.5c-4.2-7.5-5.4-17.8,0-24.6c3.8-4.7,10.5-8.5,16.1-4.1C36.2,23.1,34.9,28.1,32.2,30.2z M91.2,28.5 c-5.1,4.9-11.5,6.2-14,6.2c-1.8,0-3-1.7-2.4-3.3c1.2-3,2.7-5.9,4.6-8.5c2.7-3.8,8-6.1,11.2-3.8C94,21.4,93.6,26.2,91.2,28.5z"/>
</svg>