<svg viewBox="0 0 128 128" xmlns="http://www.w3.org/2000/svg">
  <polygon display="none" fill="#10203D" points="10.4,117.7 118.3,117.5 118.7,8.7 10.7,9.3 "/>
  <path d="M116.67,12.84c-0.7,0-1.41-0.1-1.75-0.32c-0.33-0.16-0.74-0.65-0.92-2.87c-0.09-1-0.04-2.31,0.37-3 c0.12-0.22,0.44-0.55,1.62-0.75c0.98-0.17,3.37-0.32,4.13,0.33c0.74,0.63,0.94,3.12,0.92,4.22c-0.02,1.16-0.23,1.48-0.43,1.65 c-0.55,0.41-2.03,0.61-3.17,0.71C117.2,12.82,116.94,12.84,116.67,12.84z M117.88,6.74c-1.1,0-2.39,0.16-2.66,0.43 c-0.18,0.3-0.32,1.23-0.22,2.38c0.15,1.82,0.44,2.1,0.45,2.11c0.19,0.11,0.99,0.24,1.9,0.14c1.54-0.13,2.45-0.35,2.66-0.5 c0.23-0.47-0.04-3.86-0.53-4.32C119.27,6.81,118.62,6.74,117.88,6.74z"/>
  <path d="M10.49,13.73c-1.1,0-2.33-0.17-2.79-0.53c-0.58-0.5-0.88-1.81-0.92-2.9C6.75,9.52,6.82,8.07,7.65,7.25 c1.19-1.2,4.48-1.39,5.77-0.34c0.68,0.55,0.99,2.05,0.99,3.29c0,0.79-0.1,2.2-0.75,2.85c-0.55,0.42-1.45,0.65-2.45,0.65 C10.98,13.72,10.74,13.73,10.49,13.73z M10.91,7.22c-1,0-2.08,0.26-2.55,0.73c-0.4,0.4-0.61,1.26-0.57,2.31 c0.04,1.16,0.37,2.01,0.54,2.15c0.19,0.14,1.47,0.39,2.84,0.28c0.91,0,1.57-0.2,1.84-0.4c0.17-0.18,0.4-0.93,0.4-2.1 c0-1.21-0.32-2.27-0.61-2.51l0,0C12.39,7.37,11.67,7.22,10.91,7.22z"/>
  <path d="M116.71,124.55H11.41c-4.41,0-8-3.59-8-8V11.24c0-4.41,3.59-8,8-8h105.3c4.41,0,8,3.59,8,8v105.3 C124.71,120.96,121.12,124.55,116.71,124.55z M11.41,4.24c-3.86,0-7,3.14-7,7v105.3c0,3.86,3.14,7,7,7h105.3c3.86,0,7-3.14,7-7 V11.24c0-3.86-3.14-7-7-7H11.41z M117.07,121.22c-0.82,0-1.93-0.1-2.5-0.6c-0.56-0.56-0.79-2.35-0.79-3.67h-5.78l-85.1,0.2H14.1 c-0.03,0.91-0.15,2.77-0.64,3.25c-0.73,0.58-4.7,0.56-5.65-0.15c-1.03-0.9-1.05-5.13-0.28-6.03c0.53-0.53,2.5-0.43,3.48-0.33V80.75 l-0.1-51.6V13.77c-1.21,0.02-2.42-0.17-2.96-0.5c-0.75-0.56-0.94-2.06-0.98-2.51c-0.05-0.56-0.15-2.45,0.77-3.46 c1.21-1.21,4.62-1.4,5.8-0.33c0.57,0.46,0.88,1.65,0.95,2.77L50.5,9.35l28.6-0.1l34.88-0.2c-0.01-0.98,0.16-1.89,0.36-2.39 c0.16-0.29,0.47-0.62,1.65-0.82c0.98-0.17,3.38-0.32,4.14,0.33c0.75,0.65,0.9,3.08,0.9,3.97c-0.01,1.42-0.29,1.82-0.5,2 c-0.09,0.1-0.46,0.46-2.71,0.67l0.19,16.54l0.1,52.4v32.11c0.91,0.03,2.26,0.17,2.62,0.71c0.64,0.76,0.4,4.91-0.21,5.77 c-0.56,0.65-2.1,0.82-2.74,0.86C117.6,121.21,117.35,121.22,117.07,121.22z M108.01,115.94h6.83l-0.04,0.53 c-0.1,1.56,0.24,3.17,0.46,3.42c0.23,0.2,1.14,0.38,2.39,0.31c1.23-0.08,1.96-0.35,2.08-0.49c0.36-0.51,0.53-4.03,0.19-4.56 c-0.13-0.1-0.97-0.31-2.31-0.31h-0.5v-33.1l-0.1-52.4l-0.21-17.47l0.47-0.04c1.63-0.13,2.44-0.34,2.59-0.46 c0.38-0.55,0.09-4.01-0.38-4.46c-0.49-0.4-3.7-0.26-4.24,0.17c-0.15,0.43-0.33,1.39-0.24,2.4l0.05,0.54l-35.95,0.2l-28.6,0.1 l-37,0.41v-0.51c0-1.21-0.32-2.27-0.61-2.51C12.08,7,9.28,7.18,8.46,8c-0.41,0.44-0.61,1.5-0.5,2.67c0.09,1.01,0.38,1.65,0.55,1.77 c0.29,0.17,1.52,0.4,2.86,0.3l0.54-0.04v16.44l0.1,51.6v34.27l-0.57-0.07c-1.56-0.21-2.97-0.14-3.22-0.01 c-0.36,0.44-0.37,4.03,0.22,4.54c0.58,0.43,3.68,0.45,4.32,0.2c0.15-0.33,0.35-1.57,0.35-3.02v-0.5h9.8L108.01,115.94z"/>
  <path d="M10.99,121.07c-1.32,0-2.8-0.24-3.32-0.7c-1-0.88-1.02-5.1-0.25-6c0.71-0.71,4.02-0.28,4.05-0.27 c0.46,0.06,1.58,0.24,1.98,0.64c0.4,0.41,0.55,1.41,0.55,2.16c0,0.54-0.03,3.26-0.72,3.72C12.97,120.93,12.03,121.07,10.99,121.07z M9.41,114.96c-0.66,0-1.16,0.05-1.3,0.13c-0.36,0.44-0.36,4.02,0.22,4.54c0.56,0.49,3.81,0.56,4.33,0.21 c0.13-0.2,0.34-1.46,0.34-2.93c0-0.86-0.19-1.37-0.26-1.46c-0.07-0.05-0.55-0.24-1.4-0.35C10.66,115,9.98,114.96,9.41,114.96z"/>
  <path d="M117.12,121.28c-0.82,0-1.93-0.1-2.5-0.6c-0.64-0.64-0.85-2.89-0.77-4.21c0-1.14,0.19-1.8,0.62-2.08 c0.54-0.33,1.6-0.48,3.18-0.48c0.4,0,2.44,0.03,3.05,0.65c0,0,0,0,0,0c0.71,0.71,0.58,5-0.18,5.88c-0.53,0.62-2.07,0.78-2.71,0.83 C117.64,121.27,117.39,121.28,117.12,121.28z M115.01,115.23c0.01,0-0.16,0.24-0.16,1.27c-0.1,1.6,0.24,3.21,0.46,3.45 c0.23,0.2,1.14,0.39,2.39,0.31c1.23-0.08,1.96-0.35,2.08-0.49c0.39-0.46,0.55-3.92,0.22-4.53c-0.18-0.12-1.03-0.35-2.34-0.35 C115.71,114.9,115.14,115.15,115.01,115.23C115.01,115.23,115.01,115.23,115.01,115.23z"/>
  <path d="M32.6,50.7c-1.3-1-3.4,1.3-4.1,2.1S24,58.2,28,63.5s11.8,5.2,17.2,4.8c7.2-0.6,13.7-3.7,12.7-6.9 c-0.8-2.5-8.1,2.8-16.7,1.9c-7.9-0.8-10.6-2.6-10.7-6.6C30.3,52.7,34.6,52.2,32.6,50.7z" fill="none"/>
  <path d="M25.8,64.8c-1.7,0.3-1.8,5.6-1,8.9c0.9,3.8,4.7,7.8,12.5,7.5c9.4-0.4,16.8-6.9,18.2-8s3.2-3.4,2.5-4.5 c-0.8-1.1-2.7-0.5-5.1,0.9c-2.5,1.3-11.3,5.9-16.1,5.6s-7-2-8-4.9C27.8,67.4,27.4,64.6,25.8,64.8z" fill="none"/>
  <path d="M47.8,31.8c1,0,2.5-1.5,5.2-1.9s3.2,0.2,4-0.1c0.7-0.3,1.3-1.6,0.2-2.4c-1-0.8-4.6-0.8-6.5-0.4s-5,1.7-5,2.8 C45.7,30.9,46.9,31.8,47.8,31.8z" fill="none"/>
  <path d="M31.2,94.3c3.9,1.1,6.1,0.9,6-1.6s-2.4-2.3-3.9-2.7c-1.5-0.3-4.9-1.3-5.9-4.8c-1.2-4.3-0.2-5.9-1.3-6.4 c-1.6-0.7-3.6,2.4-2.5,7.4C24.7,91.3,27.9,93.4,31.2,94.3z" fill="none"/>
  <path d="M74.8,29.6c1.6,0,2.9,0.1,3.8,0.5c0.8,0.5,1,1.2,1.9,1.3c0.9,0.1,3,0,2.9-1.3s-2.6-2.6-4.7-2.9s-6-0.8-6,0.9 C72.7,29.2,73.2,29.6,74.8,29.6z" fill="none"/>
  <path d="M67.4,22c-3,0.1-7.6-0.3-8.6,0.6c-0.7,0.6-0.6,4.4,0.3,5.1c0.9,0.7,9.2,0.2,10,0.2s1.5-0.7,1.4-3 S70.3,21.9,67.4,22z" fill="none"/>
  <path d="M59.9,36c1.2,0.4,1.8,0,4.6-0.1c2.8-0.1,3.9,0.4,5.4-0.6s1.3-4.5,0.3-5.2c-0.8-0.7-4.4-0.4-5.7-0.4 s-6.5-1.2-6.3,2.8C58.2,33.7,58.1,35.4,59.9,36z" fill="none"/>
  <path d="M64.4,20.6c1.9,0,4.6,0.6,5.7-0.5c1-1.1,0.5-4.4-0.4-4.9s-3.2,0.1-5.4,0.1c-2.1,0-4.8-0.2-5.4,0.5 c-0.5,0.6-1.2,4-0.2,4.7C59.6,21.2,62.5,20.6,64.4,20.6z" fill="none"/>
  <path d="M58.1,74.7c-1.3-0.5-2.5,0.8-4.2,2.6c-1.7,1.8-7.6,7.5-11.2,10c-1.8,1.3-3.6,1.6-4,2.8 c-0.4,1.2-0.1,3.4,0.7,3.7c1.6,0.5,6.1-3,8-4.3c1.9-1.4,4.2-3.9,4.2-3.9s-2,7.2-7.2,13.2c-4.8,5.6-5.5,4.8-6.8,6.6 c-0.8,1.1-1.1,2.1-1.2,2.7c-0.1-0.7-0.3-1.3-0.6-1.5c-1-0.5-3,0-5-2.3c-1.5-1.8-2.5-3.8-2.3-6.4c0.1-1.9-0.2-3.2-1-3.3 c-1-0.1-2,1.5-2,5c0,4.3,1.7,8.4,4.6,10.2c2.4,1.5,4,1.7,5.2,1.5c0.7-0.1,1.1-1,1.2-2c0.1,0.7,0.5,1.6,1.7,1.2 c1.9-0.7,6.3-3,10.3-8.6s6.5-11,8.1-15.5C58,82,59.8,75.4,58.1,74.7z" fill="none"/>
  <path d="M108.7,29.1c-2.8-0.3-10.3-1.2-21.8,1.7c-11.9,3-19,7.6-19,7.6S63,38.8,60,37.5c-3-1.4-10.7-5.7-23.1-7.9 c-9-1.6-15.9-1.4-17.7-0.7c-1.1,0.4-4,1.8-2.5,5.4c1,2.5,7.4,0,7.4,0s4.9-0.6,11.7,0.2s20.7,6.2,20.7,6.2s-2.1,1.8-5.8,0.5 c-3.6-1.3-5.1-4-6.2-3.3c-1.1,0.7-0.6,4.9,4.6,7s9.3,0.2,9.3,0.2l0.2,6.9c0,0-1.4-1-3.3-1.1c-1.9-0.1-15.5,0.9-17.1-3.6 c-1.5-4.5,2.9-7,3.9-7.8s1.6-2.2,0.3-2.8s-9,2-9.5,8.8c-0.5,6.9,8.6,10.1,13.6,10.6s9.8,0.4,10.5,0.2c0.8-0.2,1.7-1,1.7-1 s0.6,18.6,1,21c0.4,2.4,1.9,5.3,4.8,5.1c2.9-0.2,3.6-3.7,3.8-6s1.5-19.3,1.5-19.3s1,1.2,2.3,1.2s11.8,1,17.4-1.5s7.7-6.7,6.8-12.1 c-0.9-5.4-7.1-7.3-8.3-6.4c-1.2,0.9,0.7,2.7,1.5,3.6c0.9,0.8,4,7-0.9,9.3s-15.2,1.2-16.4,1.4s-2,1.5-2,1.5l0.2-7.6 c0,0,7.4,1.8,11.4-2s3.2-5.8,2-6c-1.3-0.2-2.1,3.2-5.1,4.1c-3,0.8-6.9,0.5-6.9,0.5s5.5-3.9,15.5-6.2c9.9-2.3,18.4-1.3,18.4-1.3 s4,3.4,6.9,1.2S111.5,29.4,108.7,29.1z" fill="none"/>
  <path d="M77.2,76.5c5.9,3.4,12.5,5.7,20.3,4c8.3-1.8,8.5-12.9,4.7-13.3c-3.1-0.4,1.4,6.1-6.1,7.5 C88.9,76,81.7,72.8,79,71.4s-6.6-5.2-8.3-3.2C69.7,69.3,71.2,73.1,77.2,76.5z" fill="none"/>
  <path d="M96.7,61c-4.4,3.1-11.3,2.2-17,1.4c-5.3-0.8-7.4-2.8-8.6-0.9c-0.9,1.4-0.1,3.1,3.5,4.6 c5.3,2.2,19.3,5.9,25.7-0.6c6.4-6.6,0.3-15.8-2.6-15C94,51.5,102.1,57.3,96.7,61z" fill="none"/>
  <path d="M102.4,94.8c-1.8,0.2-0.9,7.7-3.9,9.8c-3,2.1-4.7,0.6-5.8,1.8c-0.4,0.5-0.2,2.5,0.4,3.4 c0.6,0.8,6.5,1.3,8.9-2.3C104.5,103.6,104.4,94.7,102.4,94.8z" fill="none"/>
  <path d="M103.2,79c-0.9,0.3-0.9,5.6-3.5,8.5c-2.8,3.1-5.2,1.9-6.8,2.7c-0.6,0.3-0.8,0.9-0.8,1.7c-0.1-0.5-0.3-1-0.5-1.3 c-0.7-1.1-2-1.4-4.8-3.1c-3.5-2.1-7-5.4-10.1-8.3s-5.1-5.9-6.2-5c-1.3,1-1.2,2.4-0.2,5.9c0.8,2.7,5,15.8,11.9,23.4 c6,6.6,9.7,6.4,9.7,4.6c-0.1-3.1-1.4-2-7-9.6C80.8,93,77.5,86,77.5,86s3.3,3.1,6.7,5.5c3.3,2.3,6.6,3.4,7.5,3.1 c0.4-0.1,0.5-0.6,0.6-1.3c0.2,0.6,0.4,1.1,0.7,1.3c0.7,0.5,5,0.4,7.6-1.7c4.2-3.4,4.5-6.4,4.5-10C105,80.5,104,78.7,103.2,79z" fill="none"/>
  <path d="M117.4,81.9l-0.1-52.4c-1.5-1.4-4.6-3.8-9.2-5.1c-8.5-2.5-19.6-2.2-24.4-2.2c-1.6,0-3.8,0.1-4.4-0.7C79,20.8,79,12.2,79,9.9 h-8.7c0.1,1.4,0.1,3.5-0.5,3.9c-0.9,0.7-2.1,0.2-5.1,0.2s-4.8,0.4-5.8-0.2c-0.7-0.4-0.8-2.6-0.8-3.9h-7.8c0.1,2.9,0.2,11.2-0.7,12 c-1.1,1-8.2,1.2-14.9,0.5c-6.6-0.7-13.8-0.1-17.1,1.7c-2.5,1.4-5.2,3.8-6.5,4.9l0.1,51.6l5.6-8.1c0,0-0.3,10.6,1.5,25.3 c1.1,9.3,3.6,16.7,4.4,18.8l85.1-0.2c0.7-3.3,3.2-14.8,3.8-21.1c0.9-10.7,0.1-20.3,0.1-20.3L117.4,81.9z M78.7,27.1 c2.1,0.4,4.6,1.6,4.7,2.9s-2,1.4-2.9,1.3s-1-0.8-1.9-1.3s-2.2-0.5-3.8-0.5c-1.6,0-2.1-0.4-2.1-1.5C72.7,26.3,76.6,26.8,78.7,27.1z M58.9,15.8c0.6-0.7,3.2-0.5,5.4-0.5c2.1,0,4.4-0.5,5.4-0.1s1.5,3.8,0.4,4.9c-1,1.1-3.8,0.5-5.7,0.5s-4.8,0.6-5.7-0.1 C57.7,19.8,58.4,16.4,58.9,15.8z M70.5,25c0.1,2.3-0.6,3-1.4,3s-9.1,0.5-10-0.2s-1-4.5-0.3-5.1c1-0.9,5.6-0.5,8.6-0.6 C70.3,21.9,70.4,22.7,70.5,25z M64.4,29.6c1.3,0,4.9-0.2,5.7,0.4c1,0.8,1.2,4.2-0.3,5.2s-2.6,0.5-5.4,0.6S61,36.5,59.9,36 c-1.7-0.6-1.6-2.3-1.7-3.6C58,28.5,63.2,29.6,64.4,29.6z M50.8,26.9c1.9-0.4,5.4-0.5,6.5,0.4c1,0.9,0.5,2.1-0.2,2.4s-1.3-0.2-4,0.1 c-2.7,0.4-4.2,1.9-5.2,1.9s-2.2-0.9-2.1-2.1C45.8,28.7,48.9,27.4,50.8,26.9z M26.1,78.8c1.1,0.5,0.1,2.1,1.3,6.4 c1,3.5,4.3,4.4,5.9,4.8c1.5,0.3,3.8,0.2,3.9,2.7c0.1,2.5-2.1,2.7-6,1.6c-3.4-0.9-6.6-3-7.6-8.1C22.5,81.2,24.5,78.1,26.1,78.8z M41.1,63.2c8.6,0.9,16-4.3,16.7-1.9c1,3.2-5.5,6.3-12.7,6.9c-5.3,0.5-13.2,0.5-17.2-4.8s-0.2-9.9,0.5-10.7c0.7-0.8,2.9-3,4.1-2.1 c2,1.5-2.3,2-2.2,5.9C30.5,60.6,33.2,62.4,41.1,63.2z M28.8,70.3c1,2.9,3.2,4.6,8,4.9s13.6-4.3,16.1-5.6c2.5-1.3,4.3-1.9,5.1-0.9 c0.8,1.1-1,3.4-2.5,4.5c-1.4,1.1-8.8,7.6-18.2,8c-7.8,0.3-11.7-3.7-12.5-7.5c-0.8-3.3-0.7-8.6,1-8.9C27.4,64.6,27.8,67.4,28.8,70.3z M56.4,86.4c-1.6,4.5-4.1,9.9-8.1,15.5s-8.3,7.9-10.3,8.6c-1.3,0.5-1.6-0.5-1.7-1.2c-0.1,0.9-0.5,1.8-1.2,2c-1.1,0.2-2.8,0-5.2-1.5 c-2.9-1.8-4.6-5.9-4.6-10.2c0-3.5,1-5.1,2-5c0.8,0.1,1.2,1.4,1,3.3c-0.2,2.6,0.8,4.6,2.3,6.4c2,2.3,4,1.8,5,2.3 c0.3,0.2,0.6,0.8,0.6,1.5c0.1-0.6,0.4-1.6,1.2-2.7c1.3-1.8,2-0.9,6.8-6.6c5.1-6,7.2-13.2,7.2-13.2s-2.3,2.5-4.2,3.9s-6.4,4.9-8,4.3 c-0.8-0.3-1.1-2.5-0.7-3.7c0.4-1.2,2.2-1.6,4-2.8c3.6-2.5,9.5-8.2,11.2-10s2.9-3.1,4.2-2.6C59.8,75.4,58,82,56.4,86.4z M102,107.5 c-2.4,3.6-8.3,3.2-8.9,2.3c-0.6-0.8-0.8-2.9-0.4-3.4c1.1-1.2,2.8,0.3,5.8-1.8c3-2.1,2.1-9.6,3.9-9.8 C104.4,94.7,104.5,103.6,102,107.5z M100.5,92.8c-2.6,2.1-6.9,2.2-7.6,1.7c-0.3-0.2-0.6-0.7-0.7-1.3c0,0.6-0.2,1.2-0.6,1.3 c-0.9,0.3-4.2-0.7-7.5-3.1s-6.7-5.5-6.7-5.5s3.4,7,7.4,12.5c5.5,7.6,6.9,6.4,7,9.6c0,1.8-3.7,2-9.7-4.6c-6.8-7.6-11-20.7-11.9-23.4 c-1.1-3.5-1.1-5,0.2-5.9c1.1-0.9,3.1,2.1,6.2,5s6.6,6.1,10.1,8.3c2.8,1.7,4.2,2,4.8,3.1c0.2,0.4,0.4,0.8,0.5,1.3 c0-0.7,0.3-1.4,0.8-1.7c1.5-0.7,4,0.5,6.8-2.7c2.6-2.9,2.6-8.2,3.5-8.5c0.8-0.3,1.9,1.4,1.9,3.8C105,86.5,104.7,89.5,100.5,92.8z M97.7,50.4c2.9-0.8,9,8.5,2.6,15C93.9,72,79.9,68.2,74.6,66c-3.6-1.5-4.4-3.2-3.5-4.6c1.3-1.9,3.4,0.1,8.6,0.9 c5.7,0.9,12.6,1.7,17-1.4C102.1,57.3,94,51.5,97.7,50.4z M79,71.4c2.7,1.3,9.9,4.6,17.1,3.2c7.5-1.4,3-7.8,6.1-7.5 c3.9,0.5,3.6,11.5-4.7,13.3c-7.8,1.7-14.4-0.5-20.3-4c-5.9-3.4-7.4-7.2-6.5-8.4C72.4,66.2,76.3,70,79,71.4z M105.8,34.7 c0,0-8.5-1-18.4,1.3c-10,2.3-15.5,6.2-15.5,6.2s3.9,0.3,6.9-0.5s3.8-4.3,5.1-4.1c1.3,0.2,2,2.3-2,6s-11.4,2-11.4,2l-0.2,7.6 c0,0,0.9-1.3,2-1.5s11.5,0.8,16.4-1.4c4.9-2.3,1.8-8.4,0.9-9.3c-0.8-0.8-2.7-2.6-1.5-3.6c1.2-0.9,7.4,1,8.3,6.4s-1.2,9.5-6.8,12.1 c-5.6,2.5-16.1,1.5-17.4,1.5s-2.3-1.2-2.3-1.2s-1.3,17-1.5,19.3s-0.9,5.8-3.8,6s-4.4-2.7-4.8-5.1c-0.4-2.4-1-21-1-21s-0.9,0.8-1.7,1 s-5.5,0.3-10.5-0.2S32.5,52.5,33,45.6s8.2-9.4,9.5-8.8c1.3,0.6,0.7,2-0.3,2.8s-5.4,3.3-3.9,7.8s15.2,3.5,17.1,3.6s3.3,1.1,3.3,1.1 l-0.2-6.9c0,0-4.1,1.8-9.3-0.2s-5.7-6.3-4.6-7c1.1-0.7,2.6,2,6.2,3.3c3.7,1.3,5.8-0.5,5.8-0.5s-13.9-5.4-20.7-6.2S24,34.3,24,34.3 s-6.4,2.5-7.4,0c-1.5-3.6,1.5-5,2.5-5.4c1.8-0.7,8.8-0.9,17.7,0.8C49.3,31.9,57,36.2,60,37.5c3,1.4,7.9,0.9,7.9,0.9s7.1-4.7,19-7.6 c11.5-2.9,19-2,21.8-1.7s6.9,4.4,4,6.7S105.8,34.7,105.8,34.7z"/>
</svg>