<svg viewBox="0 0 128 128" xmlns="http://www.w3.org/2000/svg">
  <g>
    <path d="M98.29,8.07c-0.3,0.81,7.18,2.15,13.33,8.37c5.41,5.48,6.74,12,7.41,12c0.67,0,2.67-6.59-5.26-14.37 C105.84,6.29,98.62,7.16,98.29,8.07z"/>
    <path d="M121.61,13.99c-2.95-5.55-7.77-6.51-8.36-5.47c-0.46,0.81,3.48,2.3,5.92,7.03c2.52,4.89,2.37,7.26,3.18,7.55 C123.16,23.4,123.9,18.29,121.61,13.99z"/>
    <path d="M14.61,110.48c-5.18-5.25-7.55-10.8-8.59-10.66c-1.28,0.18,1.24,7.35,6.44,12.66c6.89,7.03,13.92,8.07,14,7.11 C26.53,118.63,20.2,116.15,14.61,110.48z"/>
    <path d="M14.54,118.27c-4.07-2.67-5.18-5.19-6.07-4.15c-0.63,0.73,1.53,4.52,4.81,6.52c3.78,2.3,7.33,2,7.48,1.11 C20.91,120.86,17.65,120.31,14.54,118.27z"/>
    <path d="M115.54,44.91c0.7,0.03,1.21-0.73,0.93-1.36c-0.14-0.36-3.04-7.47-8.77-12.51c-1.61-2.8-4.02-5.34-7.25-6.08 c-2.4-0.53-5.64-0.11-6.9,2.24c-0.32,0.34-0.35,0.94-0.02,1.29c-4.8,2.31-14.45,8.33-19.61,11.6c-0.02-0.62-0.2-3.88-2.06-3.91 c-0.08,0.01-0.18-0.03-0.26-0.01c-0.19,0-0.37,0.03-0.53,0.07c-0.02,0-0.03,0.01-0.04,0.01c-0.15,0.04-0.3,0.09-0.44,0.15 c-0.92-2.69-5.15-14.85-7.59-20.03c1.45-0.73,3.05-1.31,4.71-1.19c9.6,0.54,12.13,5.63,13.53,5.15c0.67,1.35,2.63,0.12,1.69-1.07 c1.22-0.93,2.87-3.11,3.23-5.07c0.91,0.89,2.3-0.47,1.42-1.4c-0.06-0.06-0.46-0.48-1.17-1.06c-0.08-1.33-0.04-2.08-0.52-2.61 c-1.84-2.01-4.35-3.34-6.96-4.11c-2.98-0.9-6.1-1.08-9.23-0.86c-8.99,0.66-12,9.18-9.43,12.1c-1.88,5.2-4.83,17.83-5.41,20.37 C53.91,37.33,53.71,39,53.71,39c-1.6-0.64-3.25,0.23-3.5,1.96c-0.01,0-0.01,0-0.02,0v-0.01c-5.85-12.03-1.47-29.59,0.3-33.87 l-2.81-1.06c-2.04,4.89-6.31,22.87-0.53,35.58c-0.69,0.67-1.06,1.57-1.06,1.57c-0.8-0.14-1.72-0.02-2.39,0.47 c-3.2-0.86-14.71-3.89-19.91-4.66c0.99-1.9,1.23-5.49,5.33-7.88c3.03-1.78,6.41-2.96,9.93-2.76c0.25-0.02,0.29-0.08,0.38-0.36 c0.41,0.1,0.66,0.18,0.67,0.19c1.24,0.43,1.89-1.43,0.66-1.88c-0.07-0.02-0.48-0.16-1.11-0.31c0.02-3.1-0.65-7.05-3.61-8.61 c-1.92-1.04-10.62,2.13-15.14,10.18c2.64-7.7,7.12-10.26,7.09-10.18c0.5-0.24,0.7-0.84,0.46-1.34c-0.87-1.96-6.12,1.96-9.39,10.71 c-3.26,8.25,0.64,16.83,2.32,12.96c0.06,0.13,0.16,0.24,0.27,0.33c0.05,0.07,0.1,0.15,0.15,0.22v0.01 c2.27,3.41,10.4,12.32,13.35,15.52c-0.93,2.27-0.29,6.04,2.7,6.55c0.03,0,0.05,0.01,0.07,0.01c-0.2,0.99,0.42,2.86,0.49,2.96 c-0.02,0-0.09,0.01-0.13,0.01c-0.03,0.01-0.06,0.01-0.1,0.02c-2.87,0.74-2.36,3.96-1.42,5.1c-4.07,4.26-12.55,13.32-15.31,17.7 c-0.1-0.03-0.23-0.06-0.38-0.1c-4.45-5.88-0.27-15.97,3.99-19.39c0.18-0.18-1.14-1.83-3.31-3.12c1.44-1.51-1.02-2.9-1.82-0.89 c-7.39-2.61-8.35-0.35-10.6,9.72c-1.3-5.05,0.25-7.25-1.85-7.97c-0.56,0.02-0.99,0.48-0.97,1.03c0.31,2.82,1.64,24.03,10.81,24.91 c1.6,0.39,3.73,0.57,4.78-0.94c0.32-0.2,0.49-0.55,0.44-0.94c5.15-0.72,19.18-4.91,25.04-6.71c-0.27,1.74,1.34,2.96,3.15,3.03 c0.06,3.29,0.35,16.32,1.22,21.99c-5.21,0.38-11.84-7.4-12.75-10.93c-3.84-1.48-8.56,2.73-9.68,5.74c-1.39-0.37-1.8,1.34-0.61,2.12 c0.06,0.41,0.32,0.79,0.55,1.18c0,0.01,0.01,0.01,0.01,0.02c4.24,6.69,12.87,10.91,20.6,7.96c-4.16,3.63-20.91-0.84-19.97-1.23 c-1.15-0.58-2.04,1.26-0.86,1.8c5.23,3.01,23.54,5.44,26.71-3.81c0.23-0.54-0.08-1.23-0.67-1.34c0.14-0.32,0.11-0.68-0.08-0.96 c3.8-4.53,10.51-15.06,11.73-17.74c1.03-0.3,1.84-1.16,2.4-1.99c-0.01,0-0.01,0-0.02,0c0.88-0.19,1.72-0.72,2.29-1.41 c0,0-0.01-0.04-0.03-0.09c5.24,3.39,17.86,11.37,22.01,13.11c-1.92,3.62-9.38,10.64-15.82,10.44c-1.09,0.15-2.45-0.38-2.81,1.09 c-1.47-0.53-2.07,1.66-0.49,1.94c-1.29,3.25,2.7,9.43,4.58,9.46c1.93-0.12,3.87-0.83,5.7-1.53c-1.72,0.61-1.2,2.87,0.44,2.14 c4.01-2.59,17.97-15.3,12.79-23.32c0,0,0-0.01-0.01-0.01c-0.46-0.64-1.15-1.15-1.95-1.17c-0.34-0.23-0.86-0.19-1.15,0.12 c-0.87-3.94-6.55-16.89-9.37-23.2c0.69-0.01,2.64-1.3,2.56-2.91c4.29-0.53,14.67-1.93,19.67-3.18c1.02,10.44-5.88,10.9-10.54,13.74 c-0.69,1.59,0.6,7.29,3.8,9.32c-1.42,1.39,0.73,2.82,1.74,1.06c3.43,1.47,7.63-3.84,9.33-6.4c-0.42,2.19-0.8,3.7-0.81,3.74 c-0.29,1.27,1.59,1.75,1.94,0.49c0.2-1.01,3.08-13.99,2.76-18.15c-0.22-3.36-3-8.21-6.92-6.78c-0.1,0.07-0.19,0.13-0.29,0.2 c-4.38-2.91-15.6-8.41-19.41-10.24c0.84-1.74-1.13-3.73-2.96-3.28c-0.24,0.05-0.47,0.12-0.7,0.21c0.05,0.02-0.38-0.16-0.67-0.23 c2.61-5.66,8.42-18.44,10.28-24.12c5.97,3.4,4.67,14.97,3.99,17.82c0,0,0.01,0.01,0.02,0.03c0,0,0.01,0.01,0.01,0.02 c0.01,0.01,0.02,0.03,0.04,0.05c0.01,0.02,0.02,0.03,0.03,0.05c0.19,0.24,0.41,0.48,0.66,0.67c-0.28,0.36-0.48,0.54-0.49,0.54 c-1.04,0.81,0.19,2.38,1.23,1.58c0.06-0.04,0.49-0.39,1.03-1.15c4.47,1.66,10.01-0.79,10.58-2.53c0,0-0.3-5.33-2.15-10.94 c2.87,3.81,4.37,7.47,4.39,7.53C114.77,44.67,115.14,44.91,115.54,44.91z M21.33,38.45c-1.59-2.24-1.31-6.44,1.22-10.79 c4.28-7.02,11.23-8.97,12.36-9.05c2.22,0.11,3.42,4.92,3.24,7.09C29.73,24.25,22.36,30.44,21.33,38.45z M20.93,66.77 c0.97,0.57,1.74,1.21,2.21,1.69c-3.89,3.71-7.02,11.73-4.64,17.94C14.15,82.21,19.26,69.1,20.93,66.77z M12.81,84.79 c-4-6.1-2.06-13.53,1.3-19.57c1.57-0.15,3.4,0.16,4.99,0.71c-2.73,4.41-8.48,20.39,0.79,23.79C18.18,89.67,15.25,88.91,12.81,84.79 z M84.98,111.19c4.02-1.79,6.48-4.77,8.16-6.96c-1.22,5.62-10.28,9.3-15.22,8.88C79.6,112.99,81.91,112.56,84.98,111.19z M95.23,104.06c2.35,8.94-9.16,18.49-15.89,18.54c-2-0.64-4.2-5.18-3.4-7.64C82.9,116.26,94.14,111.39,95.23,104.06z M110.97,79.86 c0.97-5.11-0.44-8.39-1.05-9.51c0.08-0.03,0.15-0.07,0.21-0.1c3.63,1.11,3.47,9.18,2.76,13.44c-3.02,7.62-7.71,10.5-9.15,10.28 C105.92,91.28,109.83,85.83,110.97,79.86z M109.19,74.77c1.16,6.31-4.48,15.14-7.23,18.2c-2.18-1.22-3.85-5.78-3.39-7.39 C103.03,83.93,108.86,81.28,109.19,74.77z M69.81,5.65c7.67-0.8,13.52,2.53,14.95,4.46c0.02,0.11,0.05,0.27,0.07,0.44 c-4.71-3.64-17-6.73-22.49-1.04C63.72,7.59,66.15,5.91,69.81,5.65z M71.27,8.35c6.57,0,11.43,3.01,13.56,4.69 c-0.08,1.86-1.61,4.12-2.82,5.02c-2.49-4.13-14.95-8.88-20.16-4C62.31,12.44,64.17,8.35,71.27,8.35z M52.12,40.36 c0.78-0.24,2.12,0.45,2.84,0.63c0.1-0.68,0.28-2.98,0.83-3.19c1.06-0.05,1.68,1.08,2.95,0.96c1.88,0.02,1.89-3.08,3.41-1.68 c0.92,1.1,2.66,0.97,3.53-0.19c1.95-2.09,1.52,2.75,5.94,0.77c0.03,0,0.13,0,0.33,0.14c0.15,0.23,0.3,0.86,0.39,1.54l-1.08,0.71 c-1.45-1.26-3.28,0.33-3.26,0.99c-1.37-0.3-3.65-0.23-4.53,1.96c-2.22,0.11-5.06,0.23-8.2,1.37c0,0-1.64,0.27-1.64,0.27l-0.5-0.76 c-0.15-0.93-0.73-1.67-1.46-2.19l-0.07-0.1C51.69,41.15,51.9,40.55,52.12,40.36z M60.44,51.68l1.85,2.91l-6.02,2.64 c0,0-0.24-3.62-0.24-3.74L60.44,51.68z M57.25,49.5l1.81-4.8c0,0,2.29,1.07,2.4,1.37c0.12,0.31-0.43,3.54-0.43,3.54 s-0.75,0.28-1.77,0.28C58.23,49.89,57.25,49.5,57.25,49.5z M57.65,59.48l1.22,3.27l-2.91,3.46c0,0-0.97-2.12-1.38-3.15 c-0.71-1.77-0.79-3.74-0.79-3.74L57.65,59.48z M60,76.03c0.52-1.18,0.83-2.87,0.83-3.07c0,0,3.34,0.16,3.38,0.28 c0.04,0.12-0.27,1.54-0.94,3.19c-0.78,1.93-1.65,2.91-1.65,2.91l-2.76-0.79C58.86,78.55,59.47,77.26,60,76.03z M63.11,70.45 c-1.37,0.63-3.5,0.91-3.5,0.91l-0.2-3.98c0,0,1.15,0.08,2.37-0.48c0.9-0.41,1.85-1.22,1.85-1.22l2.2,3.23 C65.83,68.91,64.65,69.75,63.11,70.45z M62.81,63.98c0,0-0.62-1.6-0.98-3.56c-0.19-1.03-0.45-2.88-0.45-2.88l3.29,0.19l1.45,5.94 L62.81,63.98z M52.44,54.24c0,0-1.27,1.41-1.98,2.36c-0.6,0.8-1.29,2.53-1.29,2.53l-3.38-1.9c0,0,0.73-1.66,1.83-3.12 c0.72-0.96,2.14-2.04,2.14-2.04L52.44,54.24z M36.28,58.34c-0.3-4.06,2.6-2.62,4.17-4.8c0.83-1.43-0.81-2.74,0.01-4.03 c0.41-0.68,0.57-0.44,1.08-0.43c1.93,0.4,2.75-1.15,2.56-2.75c-0.23-2.03,1.5-1.83,2.89-1.44c0.23-0.5,0.48-1.26,0.83-1.76 c0.72,1.57,1.48,2.96,2.22,4.16c-3.67,3.09-6.13,7.47-7.1,12.23l-1.17,0.5c-0.95-0.12-2.56,0.15-3.22,0.91 C36.4,60.64,36.31,59,36.28,58.34z M46.6,72.03c-0.21-0.07-0.34-0.02-0.43-0.18c-1.34-3.72-4.52-5.84-8.69-3.76 c-0.11-0.61,0.84-1.41,0.98-1.29c0,0,2.25-0.01,2.25-0.01c-0.49-1.32-1.73-3.14-1.19-4.65c0.06-0.41,1.35-0.68,1.79-0.65 c1.23,0.03,1.27,1.49,2.64,1.8c1.63,0.59,3.86-0.67,4.42,1.52c0.23,0.6,0.51,1.34,1.23,2c1.01,0.99,2.62,1.18,3.58,1.88 c0.1,0.11,0.15,0.65,0.18,0.97c-0.08,1.32,0.9,3.3,2.21,3.95c0.73,0.52,0.83,0.63,0.82,1.16c-0.02,1.66-0.8,2.59-1.04,3.98 c-0.11,1.16,0.8,2.8,0.15,3.91c-0.3,0.56-1.68,0.9-2.45,0.89c-2.13,0.11-2-2.3-3.03-3.58c-0.97-0.9-1.08-1.6-0.67-2.72 C50.21,74.94,49.36,72.51,46.6,72.03z M44.62,114.29c-4.51,0-8.12-2.2-10.58-4.42c4.29,2.93,11.54,4.3,16.59,3.18 C48.6,113.87,46.58,114.29,44.62,114.29z M42.03,110.95c-5.47-0.98-9.68-4.66-11.32-6.3c0.77-2.7,4.61-6.16,7.52-5.57 c2.01,5.87,8.36,11.06,14.02,11.22c0,0.01,0.01,0.02,0.01,0.03C50.76,111.13,47.72,111.97,42.03,110.95z M67.47,89.47 c-1.44,1.73-2.93-0.31-4.63-0.61c-1.87-0.46-3.15,1.36-4.93,0.99c-1.69-0.26-2.3-2.72-3.8-3.64c-1.24-1.27-5.67-0.32-4.96-2.54 c0.12-0.12,0.38-0.31,0.71-0.52c0.46,0.87,1.24,1.58,2.22,1.79c0.02,0.01,0.05,0.01,0.07,0.02c1.43,0.34,3.85-0.28,4.51-1.37 c2.13,0.63,4.16,0.92,5.79,1.03c0.8,0.97,2.54,1.11,2.54,1.11C64.57,88.66,67.58,89.5,67.47,89.47z M83.25,73.71 c-1.61-0.12-3.27,1.37-4.11,1.99c-6.27-1.17-7.41,1.97-7.81,7.11c-0.24,0.62-0.52,0.94-0.81,1.27c-0.9,0.69-1.09,2.42-0.62,3.63 c-1.79,1.22-3.63-0.31-3.42-1.85c0,0,0.12-1.5,0.12-1.5c-0.74-0.13-3.14,0-3.03-1.01c0.15-0.72,0.29-0.79,0.62-0.96 c1.2-0.38,1.84-2.09,1.65-3.53c-0.03-1.11,0-1.26,0.89-1.61c1.34-0.22,3.05-2.22,3.15-3.83c0.15-0.66,0.2-0.78,0.38-0.9 c1.1-0.61,2.04-0.19,3.27-1.32c0.9-0.67,1.19-2.16,1.93-2.43c0.99-0.31,1.88,0.32,2.95,0.11c1.35-0.18,2.75-1.3,4.08-0.42 c1.08,0.46,0.02,3,0.45,4.1c0.2,0.53,0.44,0.9,0.65,1.16C83.48,73.71,83.37,73.71,83.25,73.71z M67.99,63.54l3.31-2.05l1.81,5.55 c0,0-2.68,0.71-3.58,0.67C69.49,67.71,67.99,63.54,67.99,63.54z M86.93,56.2c0.45-0.09,1.16,0.61,1.08,0.94 c-0.06,0.58-0.65,1.24-1.09,1.58c0.3-0.69,0.28-1.78-0.05-2.52H86.93z M86.13,59.77c0.53,0.62,1.53,1.59,1.54,2.42 c-0.01,0.29-0.28,0.68-0.52,1.03c-0.83,0.93-0.97,2.54-0.11,3.41c0.24,0.34,0.36,0.51,0.33,0.96c-0.01,0.26-0.11,0.38-0.5,0.75 c-2.66,1.9,0.73,4.84-0.69,6.76c-0.2-0.41-1.61-3.42-1.83-3.73c0.42-1.94,0.22-4.41-2.63-4.73c-0.27-0.48-0.52-0.94-0.75-1.36 c0.06-0.88,0.07-1.86,0.05-2.71c0.01-0.01,0.02-0.01,0.03-0.01c1.17-0.3,2.21-1.12,2.59-1.94C83.64,60.62,85.1,60.6,86.13,59.77z M85.63,57.45c0.06,1.77-1.91,1.69-2.96,1.63c-0.53,0.99-0.16,1.32-2.01,2.03c-1.46,0.24-2.48-0.86-3.24-1.6 c-3.39,1.97-6.25-1.31-6.72-3.44l-0.16-1.21l-1.2,0.07c-2.91-0.97-3.7-3.87-2.68-6.72c-1.11-0.69-2.48-0.86-1.98-4.1 c0.37-2.21,2.79-1.86,4.51-1.08l0.26-1.61c0.93-0.98,1.19,0.24,1.24,2.15c0.13,3.07,1.62,4.04,2.92,5.36 c0.76,0.94,0.58,2.56,1.7,3.59c2.12,2.15,5.52,0.8,7.16,3.12c0,0,0.54,0.58,0.54,0.58C84.49,55.9,85.73,56.3,85.63,57.45z M100.89,47.79c0.75-3.38,1.05-12.46-2.4-16.2C103.39,34.5,102.59,44.97,100.89,47.79z M110.83,47.27 c-0.72,1.39-5.65,2.62-8.25,1.63c1.05-2.07,2.05-5.61,1.45-11.24c-0.55-5.1-4.16-7.86-6.63-9.18c3.09-0.14,7.49,2.38,9.83,4.84 C109.91,38.79,110.67,45.4,110.83,47.27z"/>
  </g>
</svg>