<svg viewBox="0 0 128 128" xmlns="http://www.w3.org/2000/svg">
  <g>
    <path d="M114.9,68.4c0.3-3.4,0.6-7.6,0.8-12c-1.7,2.3-3.4,4.5-5.2,6.6C112.1,65,113.6,66.8,114.9,68.4z"/>
    <path d="M102,17.3c-5.2-0.2-12.9,4.2-13.7,14.9c-0.2,2.3-0.2,5.2-0.3,8.6c6,4.3,12.4,10.8,18,17 c4-4.7,7.3-9.5,10.2-14.7c0-3.8,0-7.3-0.3-10.1C114.7,20,107.2,17.4,102,17.3z"/>
    <path d="M22.3,71.1c-1.1,3.4-0.8,6.6,2.2,8.9c1.9,1.5,4.5,2,7.4,1.4c0,0,0,0,0.1,0c0.9-0.2,1.8-0.5,2.7-0.9 c0.1,0,0.1,0,0.2-0.1c0.2-0.1,0.5-0.2,0.7-0.3c0.1-0.1,0.3-0.1,0.4-0.2c0.2-0.1,0.5-0.2,0.7-0.4c0.2-0.1,0.3-0.2,0.5-0.3 c0.2-0.1,0.4-0.3,0.7-0.4c0.4-0.2,0.7-0.5,1.1-0.8c0.1-0.1,0.2-0.1,0.3-0.2c-1.6-4-3.1-9.2-4.1-14.8C29.1,66.3,24.6,69.4,22.3,71.1 z"/>
    <path d="M33.8,49.9c-2,3.5-4,7.1-5.9,10.5c1.9-1.2,4.1-2.5,6.4-3.8C34,54.4,33.8,52.1,33.8,49.9z"/>
    <path d="M59.3,19c-2.6-1-7.7-0.9-14.3,10.8c0,0-2.1,3.9-5.2,9.4c-0.1,0.5-0.2,0.9-0.2,1.4c0-0.3-0.1-0.7-0.1-1 c-0.6,2.8-0.8,5.7-0.8,8.5c0,2.9,0.2,5.7,0.7,8.5c0.4,2.8,1.1,5.6,2,8.3c0.6,1.9,1.4,3.8,2.4,5.6c0.3,0.8,0.5,1.5,0.8,2.2 c0.1-0.1,0.2-0.2,0.3-0.3c0,0.1,0.1,0.2,0.1,0.2c0-0.1-0.1-0.2-0.1-0.3c3.5-4.4,7.8-11.6,11.4-18.2c-5.1,1.4-10,3.3-14.4,5.4 c-0.2-1.1-0.4-2.2-0.5-3.3c-0.2-1.1-0.3-2.2-0.5-3.3c5.9-2.8,12.5-5.4,19.6-6.8c1.9-3.7,3.1-6.2,3.1-6.2 C68.2,25.7,62.7,20.4,59.3,19z"/>
    <path d="M113.9,78.3C113.9,78.3,113.9,78.3,113.9,78.3C113.9,78.3,113.9,78.3,113.9,78.3c-1.2-2.5-2.7-4.9-4.3-7.2 c-1.9-2.6-4-5.1-6.1-7.5c-2.2-2.4-4.5-4.7-6.9-6.8c-1.8-1.6-3.7-3.2-5.7-4.6c-1-0.9-2-1.8-2.9-2.6c0.2,8.8,0.9,18.6,2.2,24.2 c4-3.5,7.5-6.8,10.6-10.1c0.4,0.4,0.8,0.9,1.2,1.3c1.1,1.2,2.3,2.5,3.4,3.7c-4.2,4.4-8.5,8.3-12.5,11.7c0.6,0.9,1.2,1.7,1.9,2.3 c2.3,2.2,5.3,3.2,9,3.3c0.3,0,0.6,0,0.9,0c1,0,1.9-0.2,2.7-0.5c0.6-0.2,1-0.3,1-0.3s0-0.1,0-0.1c2.8-1.3,4.6-3.9,5.4-6.4 c0.2,0.3,0.5,0.6,0.7,0.8C114.3,79.1,114.1,78.7,113.9,78.3z"/>
    <path d="M121.1,69c-0.4-2.9-0.8-5.6-1.1-9.2v0c-0.3-4.1-0.3-8.4-0.2-12.6c0.1-11.2,0.2-21.8-5.7-28.8 c-5.7-6.7-14.8-5.8-17.5-5.3c-6.6,1.1-14.5,7.8-17.2,14.5c-1,2.4-1.6,4.5-1.8,7c-1.3-5.3-4.4-10.3-9.2-14.8l0,0 c-1.8-1.7-7.2-6.9-14.1-4.9c-8.6,2.5-15.4,16.2-20.9,27.2c-1.8,3.6-3.4,6.9-5,9.5c-1,1.7-2.1,3.3-3.4,5.2 C22,61.5,18.2,67.2,14,76.3c-5.5,12-8.6,24.3-8.3,33.7c0,1.6,1.8,6.7,9,9.6c3.2,1.3,6.1,1.6,7.9,1.6c0.6,0,1,0,1.3-0.1 c1.6-0.3,14.7-4.3,22-13.3C54.8,96.6,57.9,87.8,59.9,82c0.5-1.5,0.9-2.7,1.4-3.8c0.6-1.5,1.2-2.8,1.7-3.9c2.8-6.4,3.4-8,7.6-14.1 c3.9-5.8,6.7-10.8,7.6-15.6c0.1,1,0.3,2.1,0.5,3.3c1,7,1,9.1,0.8,18.8l0,1.7c-0.1,2.5-0.3,4.9-0.5,7.4c-0.7,7.2-1.4,14.6,1.7,25.2 c2.5,8.6,6.1,15.3,9.9,18.5c1.9,1.6,6.5,2.4,11,2.4c4,0,8-0.7,9.9-2c4.5-3.3,11.2-17.6,11.3-32.6C122.6,78.7,121.8,73.7,121.1,69z M76.3,42.4c-0.3,5-3.2,10.3-7.5,16.7c-4.2,6.3-5,8-7.7,14.4c-0.5,1.1-1,2.4-1.7,3.9c-0.5,1.1-0.9,2.4-1.4,3.9 c-2,5.7-4.9,14.3-13.8,25.3c-7.4,9.2-20.6,12.5-20.7,12.5c-0.2,0-0.5,0.1-0.9,0.1c-1.5-1.3-4.1-3.2-6.7-4.7 c-3.1-1.7-6.1-2.7-7.9-3.3c-0.3-0.6-0.4-1.1-0.4-1.3c-0.3-9.1,2.7-21.1,8.1-32.8c4.2-9,7.9-14.6,11-19.2c1.2-1.9,2.4-3.6,3.4-5.3 c1.6-2.7,3.3-6,5-9.6c5.3-10.7,11.9-23.9,19.7-26.2c0.9-0.3,1.8-0.4,2.6-0.4c4,0,7.3,2.6,9.5,4.8C73.7,27.5,76.8,34.6,76.3,42.4z M120.5,87.4c-0.1,14.1-6.4,28-10.4,31c-3.2,2.3-15.6,2.1-18.4-0.3c-1.6-1.4-5.8-5.8-9.3-17.5c-3-10.2-2.3-17.4-1.7-24.4 c0.2-2.6,0.5-5,0.5-7.6l0-1.7c0.2-9.9,0.3-11.9-0.8-19.2c-1.6-11.1-1.3-14.3,0.8-19.3c2.5-6.2,9.7-12.2,15.7-13.3 c0.7-0.1,2.1-0.3,3.7-0.3c3.6,0,8.5,0.8,12,4.9c5.4,6.4,5.3,16.6,5.2,27.4c0,4.2-0.1,8.5,0.2,12.7v0c0.3,3.6,0.7,6.5,1.1,9.3 C119.8,74,120.6,78.8,120.5,87.4z"/>
  </g>
</svg>