<svg viewBox="0 0 128 128" xmlns="http://www.w3.org/2000/svg">
  <g>
    <path d="M116.7,3.2H11.4c-4.4,0-8,3.6-8,8v105.3c0,4.4,3.6,8,8,8h105.3c4.4,0,8-3.6,8-8V11.2C124.7,6.8,121.1,3.2,116.7,3.2z M123.7,116.5c0,3.9-3.1,7-7,7H11.4c-3.9,0-7-3.1-7-7V11.2c0-3.9,3.1-7,7-7h105.3c3.9,0,7,3.1,7,7V116.5z"/>
    <path d="M120.7,114.6c-0.4-0.5-1.7-0.7-2.6-0.7V81.8L118,29.3l-0.2-16.5c2.2-0.2,2.6-0.5,2.7-0.7c0,0,0.1,0,0.1-0.1 c0.2-0.2,0.4-0.5,0.4-1.6c0-0.3,0-0.7,0-1.1c-0.1-1.1-0.3-2.6-0.9-3.1c-0.8-0.6-3.2-0.5-4.1-0.3c-1.2,0.2-1.5,0.5-1.6,0.8 c0,0,0,0.1,0,0.2c-0.3,0.6-0.3,1.4-0.3,2.2L79.1,9.2L50.5,9.3l-36,0.4c-0.1-1.1-0.4-2.3-1-2.8c-0.2-0.2-0.4-0.3-0.7-0.4 c-0.1,0-0.2-0.1-0.3-0.1c-0.1,0-0.2-0.1-0.2-0.1C10.8,6,8.6,6.3,7.7,7.2c-0.8,0.8-0.9,2.3-0.9,3c0,1.1,0.3,2.4,0.9,2.9 c0.3,0.2,0.8,0.4,1.4,0.4c0.5,0.1,1.2,0.1,1.8,0.1v15.4L11,80.8v33.1c-1-0.1-3-0.2-3.5,0.3c0,0-0.1,0.1-0.1,0.1c0,0,0,0,0,0 c-0.8,0.9-0.8,5.1,0.2,6c0.5,0.5,2,0.7,3.3,0.7c1,0,2-0.1,2.3-0.5c0.1-0.1,0.2-0.2,0.2-0.3c0.4-0.6,0.5-2.3,0.6-3.2h8.8L108,117 h5.8c0,1.3,0.2,3.1,0.8,3.7c0,0,0,0,0,0c0,0,0,0,0,0.1c0.6,0.5,1.7,0.6,2.5,0.6c0.3,0,0.5,0,0.7,0c0.6-0.1,2.2-0.2,2.7-0.8 c0.7-0.8,0.9-4.3,0.4-5.5C120.8,114.8,120.8,114.6,120.7,114.6z M115.2,7.2C115.2,7.2,115.2,7.2,115.2,7.2c0.3-0.3,1.6-0.5,2.7-0.5 c0.7,0,1.4,0.1,1.6,0.2c0.1,0.1,0.3,0.5,0.4,1c0.2,1.2,0.3,3,0,3.4c0,0,0,0,0,0c-0.4,0.1-1.2,0.3-2.5,0.4c-0.9,0.1-1.7,0-1.9-0.1 c0,0-0.2-0.3-0.4-1.6h0L115,9.5C114.9,8.5,115.1,7.7,115.2,7.2z M79.1,10.2L114,10c0.2,1.9,0.6,2.3,0.9,2.5 c0.3,0.2,1.1,0.3,1.8,0.3c0,0,0.1,0,0.1,0l0.2,16.4c-1.6-1.4-4.6-3.6-8.9-4.8c-8.5-2.5-19.6-2.2-24.4-2.2c-1.6,0-3.8,0.1-4.4-0.7 C79,20.8,79,12.9,79.1,10.2L79.1,10.2z M41.1,63.2c8.6,0.9,16-4.3,16.7-1.9c1,3.2-5.5,6.3-12.7,6.9c-5.3,0.5-13.2,0.5-17.2-4.8 c-4-5.3-0.2-9.9,0.5-10.7c0.7-0.8,2.9-3,4.1-2.1c2,1.5-2.3,2-2.2,5.9C30.5,60.6,33.2,62.4,41.1,63.2z M28.8,70.3 c1,2.9,3.2,4.6,8,4.9s13.6-4.3,16.1-5.6c2.5-1.3,4.3-1.9,5.1-0.9c0.8,1.1-1,3.4-2.5,4.5c-1.4,1.1-8.8,7.6-18.2,8 c-7.8,0.3-11.7-3.7-12.5-7.5c-0.8-3.3-0.7-8.6,1-8.9C27.4,64.6,27.8,67.4,28.8,70.3z M30.6,104.3c2,2.3,4,1.8,5,2.3 c0.3,0.2,0.6,0.8,0.6,1.5c0.1-0.6,0.4-1.6,1.2-2.7c1.3-1.8,2-0.9,6.8-6.6c5.1-6,7.2-13.2,7.2-13.2s-2.3,2.5-4.2,3.9 c-1.9,1.4-6.4,4.9-8,4.3c-0.8-0.3-1.1-2.5-0.7-3.7s2.2-1.6,4-2.8c3.6-2.5,9.5-8.2,11.2-10c1.7-1.8,2.9-3.1,4.2-2.6 c1.9,0.7,0.1,7.3-1.5,11.7c-1.6,4.5-4.1,9.9-8.1,15.5c-4,5.6-8.3,7.9-10.3,8.6c-1.3,0.5-1.6-0.5-1.7-1.2c-0.1,0.9-0.5,1.8-1.2,2 c-1.1,0.2-2.8,0-5.2-1.5c-2.9-1.8-4.6-5.9-4.6-10.2c0-3.5,1-5.1,2-5c0.8,0.1,1.2,1.4,1,3.3C28.1,100.5,29.1,102.5,30.6,104.3z M26.1,78.8c1.1,0.5,0.1,2.1,1.3,6.4c1,3.5,4.3,4.4,5.9,4.8c1.5,0.3,3.8,0.2,3.9,2.7c0.1,2.5-2.1,2.7-6,1.6c-3.4-0.9-6.6-3-7.6-8.1 C22.5,81.2,24.5,78.1,26.1,78.8z M97.7,50.4c2.9-0.8,9,8.5,2.6,15C93.9,72,79.9,68.2,74.6,66c-3.6-1.5-4.4-3.2-3.5-4.6 c1.3-1.9,3.4,0.1,8.6,0.9c5.7,0.9,12.6,1.7,17-1.4C102.1,57.3,94,51.5,97.7,50.4z M79,71.4c2.7,1.3,9.9,4.6,17.1,3.2 c7.5-1.4,3-7.8,6.1-7.5c3.9,0.5,3.6,11.5-4.7,13.3c-7.8,1.7-14.4-0.5-20.3-4c-5.9-3.4-7.4-7.2-6.5-8.4C72.4,66.2,76.3,70,79,71.4z M76.6,79.1c3.1,2.9,6.6,6.1,10.1,8.3c2.8,1.7,4.2,2,4.8,3.1c0.2,0.4,0.4,0.8,0.5,1.3c0-0.7,0.3-1.4,0.8-1.7c1.5-0.7,4,0.5,6.8-2.7 c2.6-2.9,2.6-8.2,3.5-8.5c0.8-0.3,1.9,1.4,1.9,3.8c0,3.8-0.3,6.8-4.5,10.1c-2.6,2.1-6.9,2.2-7.6,1.7c-0.3-0.2-0.6-0.7-0.7-1.3 c0,0.6-0.2,1.2-0.6,1.3c-0.9,0.3-4.2-0.7-7.5-3.1c-3.3-2.4-6.7-5.5-6.7-5.5s3.4,7,7.4,12.5c5.5,7.6,6.9,6.4,7,9.6 c0,1.8-3.7,2-9.7-4.6c-6.8-7.6-11-20.7-11.9-23.4c-1.1-3.5-1.1-5,0.2-5.9C71.5,73.2,73.5,76.2,76.6,79.1z M102,107.5 c-2.4,3.6-8.3,3.2-8.9,2.3c-0.6-0.8-0.8-2.9-0.4-3.4c1.1-1.2,2.8,0.3,5.8-1.8c3-2.1,2.1-9.6,3.9-9.8 C104.4,94.7,104.5,103.6,102,107.5z M87.4,36c-10,2.3-15.5,6.2-15.5,6.2s3.9,0.3,6.9-0.5s3.8-4.3,5.1-4.1c1.3,0.2,2,2.3-2,6 c-4,3.7-11.4,2-11.4,2l-0.2,7.6c0,0,0.9-1.3,2-1.5c1.1-0.2,11.5,0.8,16.4-1.4c4.9-2.3,1.8-8.4,0.9-9.3c-0.8-0.8-2.7-2.6-1.5-3.6 c1.2-0.9,7.4,1,8.3,6.4c0.9,5.4-1.2,9.5-6.8,12.1c-5.6,2.5-16.1,1.5-17.4,1.5s-2.3-1.2-2.3-1.2s-1.3,17-1.5,19.3 c-0.2,2.3-0.9,5.8-3.8,6c-2.9,0.2-4.4-2.7-4.8-5.1c-0.4-2.4-1-21-1-21s-0.9,0.8-1.7,1c-0.8,0.2-5.5,0.3-10.5-0.2S32.5,52.5,33,45.6 c0.5-6.9,8.2-9.4,9.5-8.8c1.3,0.6,0.7,2-0.3,2.8c-1,0.8-5.4,3.3-3.9,7.8s15.2,3.5,17.1,3.6c1.9,0.1,3.3,1.1,3.3,1.1l-0.2-6.9 c0,0-4.1,1.8-9.3-0.2s-5.7-6.3-4.6-7c1.1-0.7,2.6,2,6.2,3.3c3.7,1.3,5.8-0.5,5.8-0.5s-13.9-5.4-20.7-6.2C29.1,33.8,24,34.3,24,34.3 s-6.4,2.5-7.4,0c-1.5-3.6,1.5-5,2.5-5.4c1.8-0.7,8.8-0.9,17.7,0.8C49.3,31.9,57,36.2,60,37.5c3,1.4,7.9,0.9,7.9,0.9s7.1-4.7,19-7.6 c11.5-2.9,19-2,21.8-1.7c2.8,0.3,6.9,4.4,4,6.7c-2.9,2.3-6.9-1.1-6.9-1.1S97.3,33.7,87.4,36z M78.7,27.1c2.1,0.4,4.6,1.6,4.7,2.9 c0.1,1.3-2,1.4-2.9,1.3c-0.9-0.1-1-0.8-1.9-1.3c-0.9-0.5-2.2-0.5-3.8-0.5c-1.6,0-2.1-0.4-2.1-1.5C72.7,26.3,76.6,26.8,78.7,27.1z M70.1,20.1c-1,1.1-3.8,0.5-5.7,0.5c-1.9,0-4.8,0.6-5.7-0.1c-1-0.7-0.3-4.1,0.2-4.7c0.6-0.7,3.2-0.5,5.4-0.5c2.1,0,4.4-0.5,5.4-0.1 C70.7,15.6,71.2,19,70.1,20.1z M69.1,28c-0.8,0-9.1,0.5-10-0.2c-0.9-0.7-1-4.5-0.3-5.1c1-0.9,5.6-0.5,8.6-0.6 c2.9-0.2,3,0.6,3.1,2.9S69.9,28,69.1,28z M64.4,29.6c1.3,0,4.9-0.2,5.7,0.4c1,0.8,1.2,4.2-0.3,5.2s-2.6,0.5-5.4,0.6 c-2.8,0.1-3.4,0.7-4.5,0.2c-1.7-0.6-1.6-2.3-1.7-3.6C58,28.5,63.2,29.6,64.4,29.6z M69.8,13.8c-0.9,0.7-2.1,0.2-5.1,0.2 s-4.8,0.4-5.8-0.2c-0.6-0.4-0.8-2.2-0.8-3.5l12.2,0C70.4,11.6,70.4,13.4,69.8,13.8z M50.8,26.9c1.9-0.4,5.4-0.5,6.5,0.4 c1,0.9,0.5,2.1-0.2,2.4c-0.7,0.3-1.3-0.2-4,0.1c-2.7,0.4-4.2,1.9-5.2,1.9s-2.2-0.9-2.1-2.1C45.8,28.7,48.9,27.4,50.8,26.9z M13.7,13c0.5-0.5,0.7-1.5,0.7-2.3l35.9-0.4c0.1,3.2,0.1,10.8-0.7,11.6c-1.1,1-8.2,1.2-14.9,0.5c-6.6-0.7-13.8-0.1-17.1,1.7 c-2.1,1.2-4.3,3-5.7,4.2V13.7C12.6,13.6,13.2,13.4,13.7,13z M9,12.6c-0.2-0.1-0.4-0.1-0.5-0.2C8.3,12.3,8,11.7,8,10.7 C7.8,9.5,8,8.4,8.5,8c0.7-0.7,2.6-0.9,3.8-0.6c0.2,0.1,0.4,0.2,0.6,0.3c0.3,0.2,0.6,1.3,0.6,2.5c0,1.2-0.2,1.9-0.4,2.1 c-0.3,0.2-0.9,0.4-1.8,0.4C10.3,12.8,9.6,12.7,9,12.6z M12.7,119.7c-0.7,0.2-3.7,0.2-4.3-0.2c-0.5-0.5-0.6-3.6-0.3-4.4 c0.2-0.1,0.6-0.1,1.3-0.1c0.6,0,1.2,0,1.9,0.1c0.8,0.1,1.3,0.3,1.4,0.4c0.1,0.1,0.3,0.6,0.3,1.5C13,118.2,12.8,119.3,12.7,119.7z M13.9,116.1c-0.1-0.6-0.2-1.1-0.5-1.4c-0.3-0.3-0.9-0.5-1.4-0.6V80.7l0-1.3l4.8-6.9c0,0-0.3,10.6,1.5,25.3 c1,8.7,3.3,15.8,4.2,18.3H13.9z M114.5,114.4c-0.4,0.2-0.5,0.7-0.6,1.5H108l-0.1,0c0.8-3.8,3.1-14.6,3.7-20.6 c0.9-10.7,0.1-20.3,0.1-20.3l5.4,6.5l0,0.2v32.2C115.8,114,114.9,114.1,114.5,114.4z M119.7,119.7c-0.1,0.1-0.8,0.4-2.1,0.5 c-1.2,0.1-2.1-0.1-2.4-0.3c-0.2-0.3-0.5-1.9-0.4-3.4c0-1,0.2-1.3,0.2-1.3c0.1-0.1,0.7-0.3,2.7-0.3c1.2,0,2,0.2,2.3,0.3 C120.2,115.9,120.1,119.2,119.7,119.7z"/>
  </g>
</svg>