<svg viewBox="0 0 128 128" xmlns="http://www.w3.org/2000/svg">
  <g id="tone">
    <path d="M123.9,94.9c-0.3-2.7-2.2-5.9-5.8-6.9c-1.6-0.4-3.2-0.7-4.8-0.8c0-0.1,0.1-0.1,0.1-0.2c0-3.4-1.7-4.5-3.9-5.8 c-3.8-2.2-8.6-1.2-13.1,0.6c-0.4-0.6-1-1.2-1.8-1.7c-1.7-1.1-7-4.7-16.5,1.3c-9.1,5.7-17.2,8.2-17.3,8.2l3.2,2.5 c0.3-0.1,6.5-1.4,16.1-7.4c5.8-3.7,9-3.1,10.6-2.3c0.9,0.5,1.4,1,1.6,1.4c-3.1,1.5-5.9,3-7.8,3.6c-4.2,1.3-13.7,3.4-14.7,3.7 l1.9,3.5c0.9-0.2,10-2.6,14.4-3.7s14.3-7.9,19.8-7.2c2.3,0.3,3.6,1.8,3.8,3.4c0,0.1,0,0.2,0,0.2c-5.5,0.6-10.6,2.9-15.6,5.2 c-3.5,1.6-5.3,3.2-10.6,3.4l0.4,3.8c3.1-0.3,6.5-1.8,10.5-3.6c7-3.1,15.1-6.8,22.8-4.4c3.6,1.1,3.9,4.2,3,4.4 c-0.9,0.2-6.6,2.2-8.9,2.8l1.1,3.7c6.1-1.8,8.7-2.8,9.8-3.2C124.3,98.6,124.1,97,123.9,94.9z"/>
    <path d="M116.7,100.3c-6.7-2.6-16.5-3.8-30.8-3.8c-0.6,0-2.4-0.7-4.2-1.5c-3.1-1.3-7.2-3.1-12.9-4.5c-2.9-0.8-6-1.2-9.1-1.7 c-5.4-0.8-11-1.6-12.9-3.8c1.1-4.4,4.2-8.4,6.8-11.1c5.5-5.7,8.8-9.3,8.4-14.1c-0.4-4.5-2.7-6-4-6.6c-2-0.8-4.6-0.3-6.3,1.2 c-2,1.8-6.2,8.5-19.6,14.6c-3.6,1.6-6.8,4-11,7.9c-3.7,3.4-7.2,5.1-9.7,6.1c-0.6,0.2-1,0.4-1.9,0.6c-1.7,0.5-2.5,1.4-3,2.8 c-0.3,0.8-0.6,2.1-0.6,2.1l1.3-0.2c6.3-1,12.4-4.7,16.4-8.6c3.8-3.7,6.9-5.8,10.2-7.3c8.8-3.9,18.2-13.2,20.3-15.1 c0.5-0.5,1.6-0.8,2.4-0.5c0.9,0.3,1.5,1.5,1.6,3.3c0.3,3-2,5.7-7.3,11.1c-2.7,2.8-8.1,7.4-8.2,14.3c0,1.6,1,3,2.5,3.6 c2.6,1,7.4,2.6,14,3.3c3,0.3,6.1,0.9,8.7,1.6c5.4,1.4,9.5,3.1,12.4,4.4c2.6,1.1,4.3,1.8,5.7,1.8c13.8,0,23.1,1.1,29.4,3.6 c3.5,1.4,5.3,3.9,5.1,6.2c-0.1,1.3-1.5,1.2-2.7,1.1c-11.6-1.1-40.7-3.1-59.5,1.8c-19.3,5-47.7,4.5-52.2,3.6c0,0,0.4,1.1,0.8,1.9 c0.8,1.7,2,2.4,3.5,2.5c2.8,0.2,7.3,0.4,10.7,0.2c9.7-0.4,23.9-0.8,38.2-4.5c18.3-4.7,46.8-2.7,58.2-1.7c1.6,0.2,3.6,0.3,5-0.9 c1.2-1.1,1.4-2.6,1.4-3.7C124,106.8,121.5,102.2,116.7,100.3z"/>
  </g>
</svg>