<svg viewBox="0 0 128 128" xmlns="http://www.w3.org/2000/svg">
  <path d="M72.2,21.8C69.9,11.7,63.5,9,58.9,8.6c-1.8-0.2-4.7,0-6.1,0.4c-7.2,1.2-13.1,9.4-19.8,14.2C25.6,28.5,12.3,27,5.6,38.7 C3.5,42.3,3.1,46,3.8,49.3C4,50.5,4.6,52.9,5.7,55c1.9,3.8,5.8,8.4,13.2,10.1c10.9,2.4,23.9-1.5,36.5-9.9S74.7,32.7,72.2,21.8z M34.2,26.4c5.1-3.4,6.1-6.1,7.2-5.9c2.8,0.5,0.7,10.3-8.2,13.2c-5.3,1.7-9.2,0.5-9.6-1.3C23.1,30.1,27.3,30.9,34.2,26.4z"/>
  <path d="M124.2,74.7c-1.3-10.7-6.3-11.7-14.7-22.1c-3.1-3.9-4.6-11.9-8.8-17.6c-3.7-5.1-6.5-5.4-9.4-5.7h-0.1 C87.8,29,81.1,29.8,77,34.7c-4.6,5.5-4.6,14.3-4,19.4c0.7,5.1,4.6,21.5,11.4,28.7c0.1,0.1,0.3,0.3,0.4,0.4 c4.2,5.4,10.3,10.7,18.4,12.2C118.2,98.1,125.4,84.9,124.2,74.7z M99.1,47c2.1,4.1,3,6.2,6.2,10.6c1.5,2,4.4,4.6,5.2,6l0,0 c0.1,0.1,0.1,0.3,0.1,0.4c0,0,0,0,0,0.1s0,0.2,0,0.3c-0.4,1-5.6,2.7-11.5-7c-5.1-8.3-4-13.3-3.1-13.9c0.1-0.1,0.2-0.1,0.3-0.1l0,0 c0.1,0,0.2,0,0.3,0l0,0c0.2,0.1,0.4,0.3,0.6,0.5l0,0C97.9,44.7,98.5,46,99.1,47z"/>
  <path d="M79.9,84c-1-0.7-1.9-1.3-2.9-1.8c-0.9-0.5-1.9-0.8-3-1.1c-1.4-0.3-2.7-0.4-3.5-0.4C64.7,80.3,58,80.8,56,80.8 c-11.8,0-17.1-7.6-27.4-7c-7.1,0.5-11.2,4.5-12.9,7.8c-0.6,1.2-1.2,2.7-1.6,4.4c0,0,0,0,0,0.1s0,0.2-0.1,0.3 c-0.1,0.4-0.1,0.8-0.2,1.4c-0.4,3.6,0,9.6,3,14.9c2.6,4.5,6.8,7.9,12.6,10.6c3.6,1.6,8.1,3,14.4,4.3c18.2,3.8,40.3-1.3,42.5-18.5 C87.4,92.1,83.4,86.6,79.9,84z M42.4,81.4c0.7-0.7,4.9,1.7,10.2,2.2c3,0.3,9.3,0.1,9.9,0.5c1,0.7-2.1,5.8-10,5.3 C44.5,88.9,41.3,82.6,42.4,81.4z"/>
</svg>