<svg viewBox="0 0 128 128" xmlns="http://www.w3.org/2000/svg">
  <g>
    <path d="M59.42,125.35c-1.2,0-2.07-0.43-2.64-0.86c-2.18-1.62-2.61-5.05-2.68-6.94c-0.09-2.76,0.06-7.82,0.24-10.98 c-0.06,0.02-0.11,0.03-0.16,0.05c-3.76,1.46-6.97,1.43-9.47-0.11c-2.96-1.82-4.74-5.68-5.3-11.47l-0.07-0.44 c-0.14-0.97-0.28-1.97-0.76-2.5c-0.4-0.44-0.89-0.75-1.13-0.82c-0.09,0.14-0.26,0.51-0.36,1.38c-0.05,0.39-0.05,1.06-0.06,1.85 c-0.04,3.88-0.11,11.11-5.44,12.16c-2.1,0.42-4.38-0.65-5.41-2.56c-1.68-3.11-2.07-10.87-2.15-14.58 c-1.29,0.21-3.03,0.25-4.64-0.46c-1.63-0.73-2.81-2.06-3.5-3.95c-0.84-2.27-0.62-4-0.38-5.82c0.31-2.4,0.66-5.11-1.04-10.54 c-6.4-18.02-2.22-36.98,11.18-50.66C39.66,3.78,60.36-1.13,79.67,5.27c13.81,4.47,24.94,13.91,31.34,26.59 c5.98,11.85,7.02,25.14,2.91,37.41c-0.99,2.97-1.6,5.97-2.85,12.6c-0.67,3.37-0.77,10.11-0.77,13.82c0,6.3-2.11,9.7-6.26,10.09 c-4.77,0.54-6-3.13-6.52-5.92c-0.36-2.02-0.12-4.15,0.12-6.21c0.24-2.08,0.46-4.05,0.01-5.49c-0.27,0.56-0.57,1.4-0.77,2.49 c-0.06,0.39-0.11,0.88-0.16,1.42c-0.4,3.79-1.06,10.12-7.48,11.57c-2.8,0.61-4.5-0.38-5.52-1.29c-0.2,1.58-0.25,4.28-0.12,6.96 c0.19,2.05-0.2,6.48-3.06,8.12c-1.89,1.09-4.22,0.68-6.91-1.22c-3.55-2.59-3.2-7.26-2.9-11.38c0.08-1.12,0.16-2.17,0.16-3.14 c0-1.47-1.23-2.13-2.1-2.13c-0.34,0-0.84,0.09-1.23,0.53c-0.44,0.48-0.67,1.28-0.67,2.3c-0.1,1.94,0.13,4.09,0.38,6.36 c0.69,6.33,1.54,14.21-6.38,16.39C60.36,125.29,59.87,125.35,59.42,125.35z M57.39,105.77c-0.19,2.91-0.39,8.7-0.29,11.68 c0.07,2.24,0.64,4.02,1.47,4.64c0.24,0.18,0.67,0.4,1.55,0.16c5.08-1.4,4.96-5.91,4.18-13.17c-0.25-2.29-0.51-4.66-0.39-6.76 c0-2.17,0.78-3.5,1.44-4.23c0.89-0.98,2.11-1.52,3.46-1.52c2.51,0,5.1,1.92,5.1,5.13c0,1.08-0.09,2.24-0.17,3.36 c-0.26,3.5-0.53,7.13,1.65,8.72c0.91,0.64,2.62,1.66,3.66,1.06c1.16-0.67,1.75-3.29,1.56-5.31c-0.16-3.18-0.24-8.66,1.01-10.26 c0.57-0.67,1.16-0.81,1.56-0.82c0.93,0.02,1.52,0.62,1.99,1.13c0.72,0.78,1.45,1.58,3.41,1.15c3.98-0.9,4.69-4.59,5.15-8.96 c0.06-0.58,0.12-1.12,0.19-1.59c0.24-1.3,1.17-5.42,3.66-5.63c0.85-0.08,2.06,0.29,2.83,2.43c0.77,2.11,0.49,4.61,0.21,7.02 c-0.21,1.84-0.43,3.75-0.14,5.33c0.64,3.49,1.75,3.64,3.26,3.47c1.54-0.15,3.57-1.04,3.57-7.11c0-3.83,0.11-10.78,0.83-14.39 c1.27-6.76,1.9-9.83,2.95-12.98c3.85-11.51,2.88-23.98-2.75-35.11c-6.04-11.96-16.55-20.87-29.59-25.09l-0.01,0 C60.51,2.08,40.99,6.71,27.79,20.19C15.21,33.03,11.29,50.83,17.31,67.8c1.91,6.11,1.48,9.44,1.17,11.87 c-0.22,1.7-0.36,2.82,0.22,4.41c0.41,1.12,1.03,1.85,1.9,2.25c1.86,0.83,4.3-0.11,4.33-0.12L27,85.38l0,2.22 c0,3.26,0.33,12.33,1.82,15.09c0.4,0.75,1.36,1.21,2.19,1.04c2.94-0.58,2.99-6.21,3.02-9.24c0.01-0.91,0.02-1.63,0.08-2.17 c0.25-2.16,1.05-3.48,2.39-3.91c2.06-0.66,3.95,1.3,4.31,1.7c1.09,1.21,1.32,2.81,1.5,4.09l0.07,0.49c0.47,4.82,1.81,8,3.9,9.29 c1.66,1.02,3.97,0.97,6.88-0.16c0.79-0.26,2.57-0.72,3.61,0.2C57.27,104.44,57.49,105.08,57.39,105.77z"/>
    <g>
      <g>
        <path d="M48.6,24.6c-3.7-0.7-7.7,1.7-8.7,6.9s1.7,8.9,5.4,9.7c3.7,0.7,7.7-1.7,8.7-6.8C55,29.1,52.3,25.3,48.6,24.6z"/>
        <path d="M77.5,33.9c-3.8,0-7.2,3.2-7.2,8.4s3.4,8.4,7.2,8.4c3.8,0,7.2-3.2,7.2-8.4S81.3,33.9,77.5,33.9z"/>
      </g>
      <path id="mouth_80_" d="M63.2,73.1c-9.9-1.6-16.9-7.9-20.3-13.9 c-0.3-0.6-0.3-1.3,0-1.9c0.4-0.6,1-0.9,1.7-0.8l0,0c0.3,0,0.6,0.2,0.8,0.4c4,3.4,10.9,8,18.9,9.3l0.8,0.1c8.7,0.8,13.5-1.8,18-3.7 c0.3-0.1,1.9-0.6,2.4,0.9c0.2,0.7-0.3,1.6-0.8,2.1c-3.7,4-10.1,8.5-21,7.5H63.2z" stroke="#000000" stroke-miterlimit="10" stroke-width="1.0587"/>
    </g>
  </g>
</svg>