<svg viewBox="0 0 128 128" xmlns="http://www.w3.org/2000/svg">
  <path d="M123.4,81c-0.3-1.3-3.3-5.2-5.1-6.5c-1.9-1.4-6.7-4-10.1-5.4c-2.4-1-4.2-1.9-6.1-3.9c-1.9-2-7.5-10.5-9.5-10.8 c-1.4-0.2-8.5,2.1-12.7,3.6c0,0,0,0,0,0c-0.6-0.5-1.2-1-1.7-1.4c-1.4-1-2.9-1.6-4.1-1.9c0,0,0,0,0,0c0.7-0.5,1.4-1,1.8-1.3 c0.8-0.8,4-7.1,4.5-7.1s10.5,3.6,12.3,3.8c1.9,0.1,5.6-0.4,8.4-0.7c4-0.5,11.7-1.3,12.4-2.6c1.2-2.1-5.3-1.8-9.5-1.9 c-4.2-0.1-7.8,0.8-9.4,0.6c-1.6-0.2-14.9-6.1-16.5-5.8c-1.5,0.3-9,8.9-9.9,10c-0.4-1-1.1-2-1.9-3.1c0.4-1.1,0.8-2.2,1-3 c0.8-2.7,2.1-8.7,1.6-10.4C68.3,31.5,57.3,21,57.3,21s0.2-2.1,0.5-4.4c0.3-2.5-0.3-4.3-1.3-4.5c-1.9-0.4-2.5,4.3-2.8,5.7 c-0.3,1.8-0.9,5.3-0.5,6.5c0.4,1.2,9.7,9.9,9.9,10.7c0.2,0.7-2,5.6-2.5,6.8c-1.1-0.6-2.2-1.1-3.3-1.4c-1.6-1.4-4.2-3.5-6.3-4.5 c-1.8-0.9-3.7-1.5-5.5-1.6c-1.5-2.6-7.7-13.1-2.9-20.7c8.4-13.5,33.8,1.6,45.8,0c8.4-1.1,10.2-4,9.8-4.8C97.5,7.4,94,11.5,83,10.1 C70.5,8.5,49.8-2.7,40.3,10c-7.6,10.2-1.7,21.5,0.6,25.2c-1,0.5-2.1,1.2-3.1,2.3c-1.1,1.1-1.9,2.2-2.4,3.2c-3.7-2.3-15-8.2-25.2-0.6 c-12.7,9.4-1.4,30.1,0.2,42.6c1.4,11-2.7,14.5-1.4,15.2c0.9,0.4,3.7-1.4,4.8-9.8c1.5-12-13.5-37.4,0-45.8c7.8-4.9,18.6,1.8,20.8,3 c0.1,1.2,0.5,2.3,0.9,3.5c0.9,2.4,3.1,5.1,4.8,6.9c0.2,1.5,0.7,3.1,1.6,4.6c-0.9,0.4-6.2,2.8-6.9,2.6c-0.8-0.2-9.5-9.5-10.7-9.9 c-1.2-0.4-4.7,0.1-6.5,0.5c-1.4,0.3-6.1,0.9-5.7,2.8c0.2,1.1,2,1.7,4.6,1.3c2.3-0.3,4.4-0.5,4.4-0.5s10.5,11,12.2,11.5 c1.7,0.5,7.7-0.8,10.4-1.6c0.8-0.2,1.9-0.6,3.1-1c1.1,0.8,2.1,1.4,3,1.9c-0.6,0.5-9.8,8.4-10.1,10c-0.3,1.6,5.6,14.9,5.8,16.5 c0.2,1.6-0.7,5.2-0.6,9.4c0.1,4.2-0.2,10.7,1.9,9.5c1.4-0.8,2.1-8.4,2.6-12.4c0.4-2.8,0.8-6.5,0.7-8.4c-0.1-1.9-3.7-11.8-3.8-12.3 c-0.1-0.5,6.3-3.7,7.1-4.5c0.3-0.3,0.8-1,1.3-1.7c0,0,0,0,0,0c0.3,1.2,0.9,2.7,1.9,4.1c0.4,0.5,0.8,1.1,1.4,1.7l0,0 c-1.4,4.3-3.8,11.4-3.6,12.7c0.3,2,8.8,7.6,10.8,9.5c2,1.9,2.9,3.8,3.9,6.1c1.4,3.4,4,8.2,5.4,10.1c1.3,1.8,5.2,4.8,6.5,5.1 c2.6,0.6-2-6.2-4.8-12.4c-2.9-6.1-3.8-9.7-4.6-11.1c-0.8-1.4-9.3-7.4-9.4-8.3c-0.1-0.4,1.2-2.9,2.4-5.1c0,0,0,0,0,0 c1.8,1.7,3.7,3.4,5.5,4.9c4,3.4,20.3,18.7,31.9,21l2,5.5c0.2,0.6,0.8,1,1.5,0.9c0.1,0,0.2,0,0.3-0.1c0.7-0.3,1.1-1,0.8-1.8l-1.5-4.2 c2.1-0.1,3.9-0.7,5.3-2.1c1.5-1.5,2.1-3.3,2.1-5.4l4.3,1.6c0.7,0.3,1.5-0.1,1.8-0.8c0-0.1,0.1-0.2,0.1-0.3c0.1-0.6-0.3-1.2-0.9-1.5 l-5.6-2C110,90.2,94.8,74,91.4,70c-1.5-1.8-3.2-3.7-4.9-5.5c2.2-1.2,4.7-2.5,5.1-2.4c0.9,0.1,6.8,8.7,8.3,9.4 c1.4,0.8,5,1.7,11.1,4.6S124,83.7,123.4,81z M46,45.5c2.3-2.3,5.5-3.6,8.5-3.6c2.6,0,5,0.9,7.2,2.8c1.2,1,2.1,1.9,2.8,2.8 c-1.3,2.8-2.7,7.3-1.6,12c0.2,1,0.8,1.8,1.2,2.3c-0.2,0.3-0.4,0.6-0.7,0.8c-0.3,0.3-0.7,0.7-1,1c-0.5-0.5-1.3-1-2.3-1.3 c-4.7-1-9.1,0.3-12,1.6c-0.9-0.7-1.9-1.7-2.8-2.8C39.9,54.8,43.2,48.4,46,45.5z M66.8,64.2c1.2-1.5,2.3-3.1,3.1-4.7l0.5-0.3 c1.7,1.5,4.9,4.4,8,8.5c4.5,5.8,9.1,15.3,10.7,19.9c0.1,0.3,0.2,0.6,0.3,1c-0.3-0.1-0.6-0.2-1-0.3c-4.6-1.6-14-6.2-19.9-10.7 c-3.9-3-6.8-6.1-8.3-7.9C62.5,68.2,65,66.4,66.8,64.2z M44,36.9c0.6-1.1,2.1-1.5,3.5-0.8s2,2.1,1.4,3.3c-0.6,1.1-2.1,1.5-3.5,0.8 C44.1,39.5,43.4,38.1,44,36.9z M38.7,38.1c1.2-1.3,3.7-1.5,3.9-0.4c0.1,0.9-1.4,1-2.3,1.9c-0.9,0.9-0.8,2.5-1.7,2.4 C37.5,42,37.4,39.4,38.7,38.1z M36.9,46.8c-0.7-1.4-0.3-2.9,0.9-3.5c1.1-0.6,2.6,0.1,3.3,1.5s0.3,2.9-0.9,3.5S37.5,48.2,36.9,46.8z M73.4,91c-0.7-0.6-1.3-1.1-1.7-1.5c-4.6-4-10.8-9.9-13.1-13c-1.2-1.7-1.6-3.5-1.8-4.7c0.3-0.2,0.6-0.3,0.9-0.5 c1.6,1.8,4.7,5.2,9,8.5c6.4,4.9,16.1,9.7,20.7,11.2c1.1,0.3,2.1,0.7,3.1,1c2.5,8.2,3.3,14,3.3,14.1c0,0.2,0.1,0.4,0.2,0.5 c-1.8-1-3.8-2.3-5.8-3.7C82.1,98.7,76.5,93.7,73.4,91z M109.2,108.8c-1,1-2.4,1.6-4.2,1.6c-2.5,0-5.7-1-9.4-3 c0.7-0.1,1.3-0.7,1.3-1.5v-0.2c0-0.2-0.7-4.7-3-12.8c8.1,2.3,12.7,3,12.8,3h0.2c0.4,0,0.8-0.2,1-0.4 C110.5,100.6,112.1,106,109.2,108.8z M91.4,73.1c3.4,3.9,9.8,11.2,14.4,18.6c0.2,0.4,0.5,0.8,0.7,1.2c-1.6-0.3-6.7-1.2-13.5-3.3 c-0.3-1-0.6-2-1-3.1c-1.5-4.6-6.2-14.3-11.2-20.7c-3.4-4.5-6.9-7.6-8.7-9.1c0-0.1,0.1-0.1,0.1-0.2c1.1,0.1,3,0.6,4.7,1.8 c3.1,2.2,9,8.4,13,13.1C90.2,71.8,90.8,72.4,91.4,73.1z"/>
</svg>