<svg viewBox="0 0 128 128" xmlns="http://www.w3.org/2000/svg">
  <path d="M121.5,60.1c0-0.3,0-0.6,0-0.8c0-0.7-0.1-1.4-0.1-2 c0-0.3,0-0.6-0.1-0.9c-0.1-0.8-0.2-1.7-0.3-2.5c0-0.1,0-0.2,0-0.2c-0.1-0.9-0.3-1.7-0.4-2.6c-0.1-0.3-0.1-0.6-0.2-0.9 c-0.1-0.6-0.3-1.2-0.4-1.8c-0.1-0.3-0.1-0.6-0.2-0.9c-0.2-0.7-0.3-1.3-0.5-2c-0.1-0.2-0.1-0.4-0.2-0.6c-0.2-0.8-0.5-1.5-0.8-2.3 c-0.1-0.3-0.2-0.6-0.4-0.9c-0.2-0.5-0.4-1-0.6-1.4c-0.1-0.3-0.3-0.7-0.4-1c-0.2-0.5-0.4-1-0.7-1.5c-0.2-0.4-0.4-0.8-0.6-1.2 c-0.3-0.6-0.6-1.1-0.9-1.7c-0.2-0.4-0.4-0.7-0.6-1.1c-0.2-0.4-0.4-0.7-0.6-1.1c-0.2-0.4-0.5-0.7-0.7-1.1c-0.2-0.3-0.4-0.7-0.7-1 c-2.3-3.4-5.1-6.5-8.2-9.3C93.4,12.1,79.1,7,63.6,7c-27.9,0-58,17.5-58,55.9c0,12,2.9,21.9,7.8,30l0,0l0,0c0.6,1,1.2,1.9,1.9,2.9 c0.2,0.3,0.4,0.5,0.6,0.8c0.5,0.7,1.1,1.4,1.6,2.1c0.2,0.2,0.4,0.5,0.6,0.7c0.7,0.8,1.5,1.7,2.2,2.5c0.1,0.1,0.3,0.3,0.4,0.4 c0.7,0.7,1.3,1.3,2,1.9c0.2,0.2,0.5,0.4,0.7,0.6c0.7,0.6,1.4,1.2,2.1,1.7c0.2,0.1,0.3,0.3,0.5,0.4c0.9,0.7,1.8,1.3,2.7,1.9 c0.2,0.2,0.5,0.3,0.7,0.4c0.7,0.5,1.4,0.9,2.2,1.3c0.3,0.2,0.5,0.3,0.8,0.5c1,0.5,1.9,1,2.9,1.5l0,0c1,0.5,2,0.9,3,1.3 c0.3,0.1,0.6,0.2,0.9,0.3c0.8,0.3,1.6,0.6,2.4,0.9c0.3,0.1,0.5,0.2,0.8,0.3c1,0.4,2.1,0.7,3.1,1c0.2,0.1,0.4,0.1,0.6,0.1 c0.9,0.2,1.8,0.5,2.7,0.7c0.3,0.1,0.6,0.1,0.9,0.2c0.9,0.2,1.8,0.4,2.7,0.5c0.2,0,0.4,0.1,0.6,0.1c1.1,0.2,2.1,0.3,3.2,0.4 c0.3,0,0.5,0.1,0.8,0.1c0.8,0.1,1.7,0.2,2.5,0.2c0.3,0,0.6,0,0.9,0.1c1.1,0.1,2.2,0.1,3.2,0.1c15.4,0,29.8-5.2,40.4-14.5 c11.5-10.2,17.6-24.5,17.6-41.4C121.6,61.9,121.6,61,121.5,60.1z" fill="none" stroke="#000000" stroke-miterlimit="10" stroke-width="3"/>
  <path d="M44.7,45.9c-4.2,0-8,3.5-8,9.4s3.8,9.4,8,9.4s8-3.5,8-9.4S48.9,45.9,44.7,45.9z"/>
  <path d="M83,45.9c-4.2,0-8,3.5-8,9.4s3.8,9.4,8,9.4s8-3.5,8-9.4S87.2,45.9,83,45.9z"/>
  <path d="M89.3,79.3c-2.8,1.7-9.5,4.7-21.5,9.9c0,0,0,0-0.1,0c0,0,0,0-0.1,0c-12.1,5.2-18.8,7.9-22,8.8c-1.9,0.5-3.6-1.4-1.9-4 c3.1-4.7,38.5-19.8,44-18.8C90.8,75.7,91,78.3,89.3,79.3z"/>
</svg>