<svg viewBox="0 0 128 128" xmlns="http://www.w3.org/2000/svg">
  <ellipse cx="64" cy="110.4" rx="35.9" ry="8.5"/>
  <g opacity="0.8">
    <path d="M41,91.6c0.6,8.2-8.8,11.5-11.3,3.3c-0.9-2.7-0.4-5.7-0.2-8.5 C30.1,79.7,30,73,29,66.3c-0.9-5.8-2-19.5,3.9-22.4c2.6-1.3,4.6-0.7,6.6,0.3c2.8,1.7,3.2,5.6,3.1,8.9c-0.2,5.7-0.8,11.3-1.2,16.9 c-0.5,6.2-1.9,10.8-1.2,15.8C40.5,87.8,40.9,89.7,41,91.6z" fill="none" stroke="#000000" stroke-miterlimit="10"/>
  </g>
  <path d="M31.8,26.1c-2.1,2.6-6.5,8.9-7.7,11.4 c-2.4,4.9-2.5,9.3-2.5,14.7c0,7.7,0,56.2,0,57c-0.1,2.7,1.8,4.9,4.9,6.8c10,6.4,28.6,7.8,37.4,7.8s27.4-1.4,37.4-7.8 c3.1-2,5-4.1,4.9-6.8c0-0.8,0-49.3,0-57c0-5.4-0.1-9.8-2.5-14.7c-1.3-2.6-5.7-8.9-7.7-11.4" fill="none" stroke="#000000" stroke-miterlimit="10" stroke-width="2"/>
  <path d="M28.2,12.1c0,0-0.8,2.2-0.8,5.9 c0.1,6.7,1.9,7.3,4.4,8.4c0.1,0,0.2,0.1,0.3,0.1c6,2.7,17.1,4.6,31.9,4.6c15,0,26.4-2,32.3-4.7c0.1-0.1,0.1,0,0.2-0.1 c2.3-1.1,4-1.8,4-8.2c0-3.7-0.7-5.9-0.7-5.9" fill="none" stroke="#000000" stroke-miterlimit="10" stroke-width="2"/>
  <ellipse cx="64" cy="12.5" fill="none" rx="35.9" ry="8.5" stroke="#000000" stroke-miterlimit="10" stroke-width="2"/>
</svg>