<svg viewBox="0 0 128 128" xmlns="http://www.w3.org/2000/svg">
  <path d="M117.9,82.6c-0.3-1.8-1.1-3.5-1.8-5.2c-2.2-5.7-3.3-11.9-3.2-18c0-2.7,0.6-4.6-0.8-6.9 c-0.2-0.3-1.5-2.3-3.1-4.9c0,0,0,0,0,0c-0.9-1.5-2-3.2-3.1-4.9c-1.7-2.7-3.4-5.4-4.5-7.2c-4.7-7.5-8.5-13.9-13.3-21.1 c-0.3-0.4-0.5-0.8-0.8-1.2c-0.1-0.2-0.3-0.4-0.4-0.6c-0.6-0.9-1.2-1.8-1.8-2.7c0,0,0,0,0,0c0,0,0-0.1-0.1-0.1 c-1.1-1.6-2.5-2.3-4.7-2.3c-1.4,0-3.1,0.3-5.4,0.8l-4.2,1c0,0,0,0,0,0l-7.7,1.9c-1.5,0.4-2.9,1.2-4,2.3l-17.4,18L24.1,42.4 c-2.3,1.4-4.2,3.5-5.4,6l-4.3,8.4c0,0,0,0,0,0l-1.9,3.7c-2.1,4.2-4.3,8.4-5.6,12.8C5.7,77.7,5.5,82.2,7.4,87c0.5,1.2,1,2.5,1.5,3.8 c2.7,6.4,5.8,12.7,9.2,18.9c0.2,0.3,0.3,0.5,0.5,0.8c0,0,0,0.1,0.1,0.1c3,4.3,7.8,3.8,12.7,4.5c6,0.9,12,1.8,17.9,2.7 c8.5,1.3,23.8,4.7,30.4,4.7c0.9,0,1.7-0.1,2.2-0.2c4.3-1.2,23.7-8.4,26.3-9.8c2.4-1.3,9-11.8,9.3-14.6 C117.8,94.5,118.2,84.2,117.9,82.6z M109.3,66.9c0.5,4.1,1.6,8.2,3.1,12c0.1,0.3,0.3,0.7,0.4,1c0.5,1.2,1,2.4,1.2,3.4 c0,0.1,0,0.3,0,0.5c-8.1,3.8-15.6,8.8-22.3,14.7c-0.7,0.6-1.4,1.3-2.4,1.6c-0.5,0.2-1,0.1-1.5-0.1c-1.9-0.8-3.6-4-4.7-5.3 c-2.1-2.5-4.3-4.9-6.8-6.9c-1.8-1.5-8.9-5-10.1-6.8c-1.2-1.8,6.8-1.5,9.9-1.9c4.4-0.4,7.2-2.6,10.1-3.4c2.4-0.6,6.2-1.1,8.6-1.4 C101.9,73.4,105.5,70.2,109.3,66.9z M93.4,30.3c1.5,2.4,3,4.8,4.6,7.4c1.1,1.8,2.8,4.5,4.5,7.2l0.2,0.3l2.5,4l0,0l0.4,0.6 c0.7,1.1,1.3,2,1.7,2.8c-0.3,0.1-0.7,0.1-1.2,0c-2.5-0.8-5.2-0.9-5.7-1c-2.9-0.1-8.7,12.8-12,12.8c-3.3,0-14.7-18.1-17.9-21.8 c-0.4-0.5-0.6-1-0.7-1.7l-1-18.5c-0.1-0.8,0.2-1.6,0.8-2.1l8.4-8.4c0.8-0.1,1.5-0.2,2.1-0.2c1,0,1.1,0.1,1.4,0.6l0.1,0.1l0.1,0.2 l0,0c0.6,0.8,1.1,1.6,1.7,2.4l0.2,0.3l0.2,0.3c0.2,0.2,0.3,0.5,0.5,0.7l0.3,0.5C87.9,21.3,90.6,25.7,93.4,30.3z"/>
</svg>