<svg viewBox="0 0 128 128" xmlns="http://www.w3.org/2000/svg">
  <g id="tone">
    <path d="M54,20.3C50.7,13.5,44.4,5,37.5,5.5l-1,4.2c6.4-1,11.1,6.2,11.8,10.1c0.3,1.4,0.7,2.6-2.5,7.4c-0.8,1.2-2.2,2.9-3.5,3.4 c-2.3,0.9-4,0-4.7-2.4c-1.8-5.9-2.8-9-3.6-11.2c-0.9-2.6-1.1-4.6-0.3-5.7c0.8-1.3,3-1.8,4.1-1.9l-0.3-4l0,0 c-1.7,0.1-11.4,1.4-7.2,12.9c1.8,4.9,4.8,14.8,5.9,25.3L54,20.3z"/>
    <path d="M89,97.3c-4-1.1-2.1-4.4-1.3-7c2.4-6.8,5.6-12.7,6.4-19.9l4,0.3c-0.6,8.7-6.6,17.9-6.3,22.5C92.2,97.6,90.5,97.7,89,97.3z"/>
    <path d="M71.5,86.7c-1.3,0-3-0.4-3.9-1.3c-1.5-2.2,1.3-4.1,2.2-6c2.5-6.9,5-13.8,8-20.5l3.6,1.7c-3.1,6.8-5.6,14.6-8.5,21.5 C72.9,83.7,73.1,86.7,71.5,86.7z"/>
    <path d="M106.8,73.5c-3.7-4.3-8.8-2.8-8.8-2.8s0.1-9-7.1-12.9c-2.2-1.1-4.2-1.5-5.8-1.5c-3.4,0-5.6,1.6-5.6,1.6s1.2-8-5.8-12 c-4.8-2.8-8.8-0.8-8.8-0.8s3.1-6.6,6.5-12.7c4.4-7.8,8.6-12.7,9.1-18.5c0.6-7-3.8-9.9-9.4-9.9l0,0c-2.4,0-4.9,0.8-7.8,3.3 c-3.5,3.1-9.2,7.9-23.3,28.1C32.8,45.7,23.1,61,19.2,73.9c-1.4,4.5-2.1,10.9-0.4,15.3c3,7.7,11.8,15.8,18.5,20.2 c2.7,1.8,9.1,5.1,13,7l2.8-3.3c-3.8-1.8-10.9-5.4-13.7-7.2c-6.8-4.4-14.9-13.5-16.8-18.3c-1.5-3.6-0.4-9.3,0.5-12.5 c3.8-12.3,13.3-27.4,20.2-37.4C56.8,18.5,66,10.3,66,10.3c4.8-3.7,8.6-1.8,9.5-0.8c0.8,0.9,1.1,2.2,1,4.1 c-0.3,4.5-4.2,9.4-8.6,16.8C54.7,52,49.7,65.6,48.7,68c-1.5,2.1-3.5,3.2-4,4.7c-0.9,2.5,2.8,3.7,4.1,3.2s2.8-4.7,4-7.2 c2.7-5.6,6.7-13.1,8.5-16.4s7.2-4.2,10.5-2.8c4.3,2.4,4.6,6.2,4.5,8.8s-1,6.7-1,6.7l4.7-1c0.2-0.1,3.8-5.4,10.1-1.8 c5.4,3.5,3.7,13.4,3.7,13.4l3.5,0.8c0,0,3.8-2.1,6.4-0.2c3.6,2.7,3.1,12.1,0.5,21.6c-2.5,9.1-4.4,14.7-7.5,18.2 c-1.1,1.3-8.2,7.5-31.7,1.5c-3.5-0.9-8-2.6-12.6-4.6l-2.1,3.6c4.9,2.2,9.9,4.1,13.7,5c27,6.3,33.9-0.6,35.8-2.8 c3.6-4.1,5.7-10.1,8.4-19.8S111.4,78.8,106.8,73.5z"/>
  </g>
</svg>