<svg viewBox="0 0 128 128" xmlns="http://www.w3.org/2000/svg">
  <g>
    <path d="M64,5c16,0,29,7.2,29,16.1c0,0.1,0,0.3,0,0.4l0,0l0,0v88.1c0,7.2-13.3,13.3-29,13.3s-29-6.1-29-13.3V22v-0.9 C35.4,11.3,46.7,5,64,5 M64,4c-16.5,0-29.6,6-30,17.1l0,0v88.6c0,7.9,13.4,14.3,30,14.3s30-6.4,30-14.3V21.6c0-0.2,0-0.3,0-0.5 C94,11.7,80.6,4,64,4L64,4z"/>
    <path d="M63,69.6c-1.33-0.11-4-0.33-4-2.4c0-0.53,0.01-1.31,0.02-2.16c0.02-1.52,0.05-3.82,0-4.13l-0.03-0.12 c-0.07-0.04-0.38-0.02-0.57-0.01c-0.14,0.01-0.28,0.01-0.42,0.01c-4.07-0.25-6.04-1.18-6.54-1.46c-0.36-0.11-0.7-0.61-1.13-1.76 L50.3,57.4v-5.1c0-0.88,0.4-1.48,1.19-1.76c0.57-0.31,1.28-0.13,2.02,0.05c0.16,0.04,0.32,0.08,0.49,0.12 c1.66,0.39,3.3,0.59,4.89,0.59c0.11-0.07,0.11-0.36,0.1-0.52l0-0.18v-5.5c0-1.57,0.92-1.9,1.7-1.9c0.29,0,0.59,0.03,0.97,0.07 c0.55,0.06,1.22,0.13,2.23,0.13s1.69-0.07,2.23-0.13c0.37-0.04,0.68-0.07,0.97-0.07c0.78,0,1.7,0.33,1.7,1.9v5.5 c0,0.22,0,0.62,0.07,0.71c1.7,0.09,3.44-0.25,4.92-0.6c0.85-0.21,1.73-0.43,2.47-0.19c1.1,0.31,1.24,1.11,1.24,1.77v0.02 l-0.23,5.26c-0.34,0.92-0.69,1.48-1.09,1.74c-0.95,0.48-2.99,1.27-6.55,1.48c-0.15,0-0.27-0.01-0.39-0.01 c-0.6-0.03-0.62,0.02-0.66,0.15c-0.05,0.28-0.02,2.53,0,4.02c0.01,0.86,0.02,1.68,0.02,2.25c0,2.07-2.67,2.29-3.96,2.4L63,69.6z M58.68,59.78c0.52,0,1.19,0.12,1.31,0.95c0.06,0.15,0.07,0.93,0.02,4.33C60.01,65.9,60,66.68,60,67.2c0,1.01,1.54,1.28,3.04,1.4 l1.56,0c1.46-0.12,3-0.39,3-1.4c0-0.57-0.01-1.38-0.02-2.24c-0.04-3.32-0.03-4.09,0.05-4.32c0.27-0.94,1.14-0.89,1.67-0.85 c0.1,0.01,0.21,0.01,0.3,0.01c3.35-0.2,5.25-0.93,6.08-1.35c0.04-0.03,0.29-0.27,0.63-1.15l0.2-5.01c0-0.56-0.14-0.69-0.54-0.81 c-0.48-0.16-1.22,0.03-1.94,0.2c-1.56,0.37-3.38,0.73-5.15,0.61h0c-1.07,0-1.07-1.1-1.07-1.7v-5.5c0-0.7-0.16-0.9-0.7-0.9 c-0.26,0-0.53,0.03-0.86,0.06c-0.57,0.06-1.28,0.13-2.34,0.13c-1.06,0-1.77-0.07-2.34-0.13c-0.33-0.04-0.6-0.06-0.86-0.06 c-0.54,0-0.7,0.2-0.7,0.9l0,5.66c0.01,0.4,0.02,0.89-0.32,1.24c-0.13,0.14-0.38,0.3-0.78,0.3c-1.66,0-3.39-0.21-5.11-0.61 c-0.17-0.04-0.34-0.08-0.51-0.12c-0.54-0.13-1.09-0.27-1.32-0.14l-0.1,0.05c-0.34,0.12-0.56,0.29-0.56,0.83v5.01 c0.36,0.94,0.55,1.11,0.58,1.13c1.01,0.55,3.1,1.18,6.15,1.36c0.09,0,0.21-0.01,0.33-0.01C58.46,59.78,58.57,59.78,58.68,59.78z"/>
    <path d="M63.47,18.34c-0.91,0-1.85-0.06-2.72-0.15c-2.89-0.25-4.24-1.72-4.69-2.34c-0.5-0.71-0.7-1.46-0.55-2.07l0-0.01 c0.42-1.53,3.78-2.17,5.48-2.17c3.07,0,6.39,2.32,7.02,3.33c0.57,0.97,0.39,1.64,0.14,2.04C67.49,18.03,65.55,18.34,63.47,18.34z M56.48,14.03c-0.06,0.25,0.01,0.71,0.4,1.25c0.76,1.06,2.24,1.78,3.96,1.93c4.16,0.41,6.07-0.13,6.47-0.76 c0.06-0.09,0.23-0.35-0.15-0.98c-0.42-0.68-3.39-2.85-6.17-2.85C59.08,12.6,56.68,13.36,56.48,14.03z"/>
    <path d="M73.1,15.8c-0.3-0.6-0.7-1.3-1.1-1.9c-0.4-0.6-0.3,0.1-0.4,0.3c-0.4,1.4-1.2,2-1.8,2.4C68.1,17.5,66,18,64,17.9 c-2.1,0-4.1-0.4-5.8-1.3c-0.6-0.3-1.4-0.9-1.8-2.4c-0.1-0.3-0.1-1-0.4-0.3c-0.3,0.6-0.7,1.3-1,1.9c-0.9,1.6-0.1,3.3,1,4.4 c2,2,5.1,2.9,8.1,2.9l0,0l0,0c2.9,0,6.1-0.9,8.1-2.9C73.2,19.1,74,17.3,73.1,15.8z"/>
    <g>
      <path d="M64,98.4c-10.9,0-22.9-3-23.7-7.8c0-0.1,0-0.3,0-0.4l0,0V112l0,0c0.8,4.8,12.8,7.8,23.7,7.8c11.2,0,23.7-3,23.7-7.8V90.6 C87.7,95.4,75.2,98.4,64,98.4z M77,109.5c0,1-0.6,1.9-1.8,2.5c-2.4,1.2-6.2,2-10.9,1.9c-0.1,0-0.2,0-0.3,0s-0.2,0-0.4,0 c-4.6,0-8.5-0.8-10.9-1.9c-1.2-0.6-1.8-1.5-1.8-2.5v-4.2c0-1.1,0.6-2.2,2-2c0,0,3.9,1.2,11.1,1.2s11.1-1.2,11.1-1.2 c1.4-0.2,2,0.9,2,2L77,109.5L77,109.5z"/>
      <path d="M87.7,90.2c0,0.1,0,0.3,0,0.4V90.2L87.7,90.2z"/>
      <path d="M64,83c6.2,0,12,0.9,16.4,2.4c4,1.4,6.3,3.3,6.3,5.2c0,3.6-10.8,6.8-22.7,6.8c-11.5,0-22.1-3.3-22.7-7 c-0.1-0.7,0.1-1.4,0.7-2.1C44.7,85.2,53.7,83,64,83 M64,82c-13,0-24.5,3.5-23.7,8.6c0.8,4.8,12.8,7.8,23.7,7.8 c11.2,0,23.7-3,23.7-7.8C87.7,85.8,77,82,64,82L64,82z"/>
    </g>
    <path d="M64.2,30.2c-13.29,0-24.1-5.34-24.1-11.9c0-6.56,10.81-11.9,24.1-11.9c13.29,0,24.1,5.34,24.1,11.9 C88.3,24.86,77.49,30.2,64.2,30.2z M64.2,7.4c-12.74,0-23.1,4.89-23.1,10.9c0,6.01,10.36,10.9,23.1,10.9s23.1-4.89,23.1-10.9 C87.3,12.29,76.94,7.4,64.2,7.4z"/>
  </g>
</svg>