<svg viewBox="0 0 128 128" xmlns="http://www.w3.org/2000/svg">
  <g>
    <path d="M122.51,15.95C120.49,8.69,100.57,4,66.31,4s-54.18,4.69-56.2,11.95c-0.15,0.5-0.13,1.02-0.08,1.51 c0.63,7.35,3.47,13.87,3.47,13.87s0.52,0.54,1.85,1.37C6.86,41.63,1.61,49.17,2.54,58.56C2.52,63.52,8.43,76.57,13.3,79.04 c3.19,1.61,6.45,2.61,9.89,3.03l2.46,21.86c0.8,8.79,16.87,20.07,40.97,20.07s39.97-10.57,40.97-20.07l7.85-69.73 c3.17-1.56,4.49-2.89,4.94-3.39c1.34-1.52,2.21-12.73,2.21-12.73S122.7,16.65,122.51,15.95z M12.04,16.49 C13.38,11.65,28.4,6,66.31,6s52.93,5.65,54.27,10.48c0.1,0.34,0.15,0.88-0.47,1.7c-3.34,4.39-19.43,9.51-53.8,9.51 s-50.46-5.12-53.8-9.51C11.89,17.36,11.94,16.82,12.04,16.49z M21.48,66.9c-2.85-0.23-5.35-0.83-7.44-1.83v-0.03 c0.53-3.91,2.43-8.23,5.75-13.17L21.48,66.9z M80.88,51.51c-1.69,1.02-33.35,19.83-56.73,19.83c-11.54,0.14-21.43-5.27-19.5-17.95 c1.1-5.74,5.06-12.11,11.78-18.94l0.43,0.23l0.25,2.22l0.02,0.11c-8.26,8.92-16.56,21.58-4.18,28.7c8.21,4.4,21.87,3.72,40.38-3.51 c11.47-4.48,19.64-9.17,23.13-11.17c0.86-0.49,1.67-0.96,1.86-1.03l0.12-0.05c3-1.55,5.86-1.84,7.3-0.74c1,0.76,1.49,1.73,1.7,2.65 C85.07,49.01,80.88,51.51,80.88,51.51z"/>
    <ellipse cx="66.31" cy="15.4" rx="47.64" ry="7.85"/>
  </g>
</svg>