<svg viewBox="0 0 128 128" xmlns="http://www.w3.org/2000/svg">
  <g>
    <path d="M44,40.9c-4.2,0-8,3.5-8,9.4s3.8,9.4,8,9.4s8-3.5,8-9.4S48.2,40.9,44,40.9z"/>
    <path d="M82.4,40.9c-4.2,0-8,3.5-8,9.4s3.8,9.4,8,9.4s8-3.5,8-9.4S86.6,40.9,82.4,40.9z"/>
  </g>
  <path d="M117.4,39.5c-3.2-7-7.7-13.3-13.4-18.4C93.6,11.6,79.2,6.5,63.6,6.5C35.4,6.5,5.1,24.1,5.1,62.9c0,12.8,3.5,25.3,11.6,35.3 c3.9,4.8,8.7,9.7,14.2,12.6c0.1,0.2,0.2,0.3,0.4,0.5c0,0,0,0,0,0c0.1,0.2,0.2,0.4,0.3,0.6c0.1,0.1,0.2,0.3,0.3,0.4 c0.1,0.1,0.2,0.3,0.3,0.4c0,0,0.1,0.1,0.1,0.1c0.3,0.5,0.7,0.9,1.1,1.3c0.3,0.3,0.5,0.5,0.8,0.8c0.1,0.1,0.2,0.1,0.3,0.2 c0.7,0.5,1.4,1,2.1,1.4c0.7,0.4,1.4,0.9,2.1,1.2c0.7,0.4,1.4,0.7,2.1,1.1c0.7,0.3,1.4,0.6,2.1,0.9c0.7,0.3,1.4,0.5,2.1,0.7 c0.7,0.2,1.4,0.4,2.1,0.6c0.7,0.2,1.4,0.3,2.1,0.4c0.7,0.1,1.4,0.2,2.1,0.2c0.6,0,1.1,0.1,1.7,0.1c0.1,0,0.2,0,0.3,0 c3.2,0.2,6.4-0.2,9.1-1.2c1.2-0.5,2.5-1,3.8-1.5c14.4-0.6,27.7-5.7,37.9-14.6c8.4-7.4,14.1-17.5,16.4-28.4c1-4.8,1.5-9.7,1.4-14.6 C122,53.9,120.5,46.4,117.4,39.5z M32.1,108.6c-0.1-0.2-0.2-0.6-0.4-0.9c-1.8-4-2-8.1-1.4-11.9c0,0,0.8-4.3,2.7-8.8 c1.1-2.4,2.3-4.4,3.3-5.9l0.1-0.1c4-5.1,9.9-10,13.6-14.1c3.5-3.9,3.5-5.2,4.7-6.1c0.1-0.1,0.2-0.2,0.3-0.3c1.7-1,3.9-0.2,4.3,2.3 c0,0,0,0,0,0c0,0.1,0,0.2,0,0.3c0,0.2,0,0.5,0,0.7c-0.4,4-1.7,5.7-3.5,7.7c-0.3,0.3-0.6,0.6-0.8,1c-1.2,1.6-2.6,3.4-3.1,4.7 c-0.4,0.8,0.3,1.7,1.2,1.6c6.1-0.8,20.4-10.5,24-12.8c1.2-0.9,2.5-1.4,3.9-1.5c2.3-0.3,2.6,2.3,2.6,3.2c0,0.1,0,0.2-0.1,0.4 c-0.7,2.9-1.3,3-4.3,5.6c-2.2,1.9-10.1,7.6-15.2,10.2c0,0,0,0,0,0.1c0,0,0,0,0,0c0,0,0.1,1.2,2.5,0.5C69,83.9,78.3,78.1,83.3,74 c0,0,6.5-5.6,9.3-4.8c2.8,0.8,2.6,2.8,1.7,4.6c-0.6,1.2-1.7,2.5-3.3,4c-1,0.9-2.1,1.8-3.4,2.8c-6.6,5-16.8,11.8-16.8,11.8s0,0,0,0 c-0.1,0-0.1,0.1-0.1,0.1s0.2,1,2.2,0.4c4-1.2,16.6-10.5,16.6-10.5c1-0.8,4.3-1.8,5.5,0.3c0.7,1,0.5,2.7-1.9,5.5 c-2.9,3.4-11.7,9.4-19.3,13.8c0,0,0.6,1,2.7,0.3c2.1-0.7,10.8-6,12.2-6.5c1.4-0.5,2.8-0.9,3.7,0.7c1.1,2.2-0.4,4-3.3,6.3 c-0.1,0.1-13.9,10.8-28.2,15.7c-0.2,0.1-0.4,0.1-0.6,0.2c-0.4,0.1-0.8,0.2-1.1,0.3c-0.2,0-0.3,0.1-0.5,0.1c0,0,0.1,0,0.1,0 c-7,1.7-14.7,0.1-23.5-5.6c0,0-0.1-0.1-0.1-0.1c0,0-0.1-0.1-0.2-0.2C33.9,111.8,32.9,110.2,32.1,108.6z M113.4,87.9 c-2.8,5.4-6.6,10.3-11.1,14.4c-7.6,6.7-17.1,11.1-27.6,12.9c9.3-4.8,16.1-9.9,16.2-9.9c2.1-1.7,6.5-5.1,4.1-10.1 c-0.6-1.1-1.5-1.8-2.4-2.2c1.3-1.1,2.4-2.2,3.4-3.4c1.2-1.5,3.9-5.1,1.5-8.6c-0.9-1.2-2.1-2-3.5-2.2c2.4-2,4.9-6.6,2.2-10.4 c-1-1.4-2.9-2.5-6-1.8C88,67.1,86,68.7,86,68.7c0.1-0.2,1.2-3.5-1.6-5.4c-0.7-0.8-1.7-1.3-2.8-1.3c-0.2,0-0.4,0-0.6,0 c-1.3,0.1-2.5,0.5-3.7,1.1c-0.9,0.4-1.7,1-2.3,1.4c-0.3,0.2-0.6,0.4-0.9,0.6C73,66,71.6,67,70,68c-7.6,5-15,8.8-14.6,8.2 c1.4-2.8,3.8-4.8,5.1-7.4c1.1-2.2,1.2-4,1-5.6c0-1-0.3-1.9-0.7-2.8c-1-2.1-3.3-3.3-5.6-2.7c-2.4,0.8-3.2,3.8-7.5,8.5 c-3.7,4-8.4,7.6-12,12.5c-0.3,0.4-0.6,0.7-0.9,1.1L34.7,80c-1.3,1.9-2.5,4.1-3.5,6.2c-1.9,4.6-2.8,9-2.8,9.2l0.6,0.1h-0.6 c-0.5,3.7-0.2,7.3,0.8,10.6c0,0,0,0,0,0c0,0.1,0.1,0.3,0.1,0.4c-0.4-0.6-1-1-1.6-1.5C17.5,97.1,11,86.1,8.8,73.4 C8.3,69.9,8,66.4,8,62.9C8,26.2,36.8,9.5,63.5,9.5c14.8,0,28.6,4.9,38.7,13.7c1.7,1.5,3.3,3.1,4.8,4.9c5.1,6.1,9.4,14.3,11,22.1 C120.5,62.7,119.2,76.5,113.4,87.9z"/>
</svg>