<svg viewBox="0 0 128 128" xmlns="http://www.w3.org/2000/svg">
  <g>
    <path d="M114.4,35.8l-38,38c-2.4,2.4-5.6,4.1-9.3,5c0,0-8.5,1.4-13.8,5"/>
    <path d="M112.4,30.8l-38,38c-2.4,2.4-5.6,4.1-9.3,5c0,0-10.9,1.8-15.8,6.7"/>
    <path d="M43.7,74.4L26.2,91.9c-1.5,1.5-2,3.7-1.4,5.7c0.3,0.9,0.7,1.8,1.4,2.5l1.8,1.8c1,1,2.2,1.5,3.5,1.6 c1.7,0.2,3.4-0.4,4.7-1.6l17.5-17.5L43.7,74.4z"/>
    <path d="M95.8,17l-38,38c-2.4,2.4-4.1,5.6-5,9.3c0,0-1.4,8.5-5.1,13.9"/>
    <path d="M91.8,14.1l-38,38c-2.4,2.4-4.1,5.6-5,9.3c0,0-1.3,7.7-4.6,13.1"/>
    <path d="M67.5,45.2c-0.1-0.1-0.1-0.1-0.2-0.2 M62.9,49.9c0.5,0.4,1,0.8,1.4,1.2c2.8,2.4,3.9,6.5,6.9,8.7c1,0.7,2.2,1.1,3.3,1.8 c1.3,0.7,2.4,1.7,3.4,2.9c0.2,0.2,0.3,0.4,0.4,0.6c0.2,0.3,0.5,0.6,0.8,0.8c1,0.7,2.3,0.1,2.9-0.5l1-1c0.6-0.6,1.6-1.9,0.8-2.8 c-0.4-0.5-1.1-0.7-1.7-1c-2.2-1.3-3.2-4-4.6-6.2c-1.2-1.8-2.7-3.3-4.5-4.4c-1.7-1-3.3-1.3-4.4-3.2c-0.3-0.5-0.6-1.1-1-1.6 M62.5,49.5c0.1,0.2,0.3,0.3,0.4,0.4 M74.3,54l-0.7,0.6C73,55,72.3,55,71.7,54.5c-0.5-0.4-0.9-0.8-1.5-1c-0.6-0.4-0.9-1.1-0.7-1.8 l0.3-0.9c0.3-0.8,1.2-1.1,1.9-0.7c0.9,0.5,1.7,1.1,2.4,1.8C74.9,52.5,74.9,53.5,74.3,54z"/>
    <path d="M19.2,104.9c0.4,1,3.5,4.3,4.5,4.6c1.1,0.3,2-0.2,2-0.2l0,0l5.8-5.8c-1.3-0.1-2.5-0.7-3.5-1.6l-1.8-1.8 c-0.7-0.7-1.2-1.6-1.4-2.5l-5.7,5.7C19,103.3,18.8,104,19.2,104.9z"/>
    <path d="M13.5,115c-1.3-1.5-2-3.5-0.6-5.1c-0.1,0.1-0.2,0.1-0.3,0.1c-0.7,0.2-1.5,0.2-2.2,0.3c-2,0.3-3.5,1.8-4.9,3.3 c-0.3,0.3-0.6,0.6-0.7,1c-0.1,0.5,0,1,0.2,1.5c1,2.5,3,4.5,5,6.3c1.1,1,2.6,2.1,4.1,1.3c0.4-0.2,0.8-0.5,1.1-0.9 c0.1-0.2,0.3-0.3,0.4-0.5c0.5-0.6,1-1.2,1.4-1.8c0.4-0.5,0.7-1.1,0.8-1.7c0.1-0.6,0-1.2,0.1-1.8c0.1-0.3,0.2-0.5,0.3-0.7 c-0.4,0.3-0.9,0.5-1.2,0.5C15.8,117,14.3,116,13.5,115z"/>
    <path d="M18.3,116.4c0.5-0.3,0.9-0.8,1.1-1.2C18.9,115.6,18.5,116,18.3,116.4z"/>
    <path d="M13.4,109.5c-0.2,0.1-0.4,0.3-0.5,0.4l0,0C13,109.9,13.2,109.7,13.4,109.5L13.4,109.5z"/>
    <path d="M18.2,114.6c-1.5-0.8-3.4-2.4-4.5-4.5c-0.1-0.2-0.2-0.4-0.2-0.5c-0.2,0.1-0.4,0.2-0.6,0.4 c-1.3,1.6-0.7,3.6,0.6,5.1c0.8,0.9,2.3,1.9,3.6,1.9c0.3,0,0.7-0.2,1.2-0.5c0.4-0.4,0.7-0.8,1.1-1.2c0,0,0,0,0-0.1 C19,115,18.7,114.9,18.2,114.6z"/>
    <path d="M25.7,109.3L25.7,109.3c0,0-0.9,0.5-2,0.2s-4.1-3.6-4.5-4.6c-0.4-0.9-0.1-1.5-0.1-1.6l0,0c0,0-1.1-0.5-1.7,0.2 s-2.8,2.8-3.4,3.4c-0.6,0.6-1,1.3-0.5,2.6c0.1,0.2,0.2,0.4,0.3,0.6c1.1,2.1,3.1,3.7,4.5,4.5c0.5,0.2,0.8,0.4,1.2,0.6 c0.8,0.3,1.3,0.2,2.1-0.3c1.2-0.8,3.4-3.2,3.8-3.8C25.8,110.4,25.7,109.3,25.7,109.3z"/>
    <path d="M123,31.5c-0.3-0.9-0.7-1.9-1.4-2.6c-1.3-1.4-3.3-1.6-5.1-2c-1.5-0.4-2.4-1-3.4-2c-2.2-2.1-4.5-4.2-6.7-6.4 c-2-1.9-4.2-3.8-5.8-6c-1.8-2.6-1.8-6.6-5-8.1c-1.7-0.7-3.7-0.5-5.1,0.7c-3.3,2.8-0.8,7.7,1.4,10.3c2,2.4,5.4,6.1,8.8,9.5 c3.8,3.9,7.7,7.6,9.6,9.1c3.7,2.9,6.7,4.1,8.6,4c2.3-0.1,4.1-1.2,4.4-3.7C123.4,33.4,123.2,32.4,123,31.5z M94.6,10.1 c-0.1,0.8-0.2,1.6-0.1,2.4c0.1,0.6,0.1,1.3-0.3,1.6s-1,0.1-1.4-0.2c-0.8-0.6-1.3-1.5-1.7-2.4c-0.4-1-0.8-2-0.8-3.1s0.7-3.1,2-3.5 c1.8-0.6,2.9,1.1,2.8,2.7C95,8.5,94.7,9.3,94.6,10.1z"/>
  </g>
</svg>