<svg viewBox="0 0 128 128" xmlns="http://www.w3.org/2000/svg">
  <path d="M97.56,94.17c-1.8-3.85-2.81-6.3-4.62-11.28c0,0,0,0,0,0c-7.23-19.6-0.18-26.32,0.48-43.19 c-0.13-3.89-3.13-16.66-5.53-25.04c-1.74-6.3-2.59-8.64-3.35-9.05c-1.4-0.58-4.46-2.99-4.73-0.4c0.73,9.14,2.07,27.83-9.08,33.81 v0.01c-1.62,0.9-3.34,1.45-5.21,1.68c-20.09,1.67-19.6-23.14-18.36-35.5c-0.26-2.62-3.35-0.15-4.73,0.4 c-2.66,2.43-8.66,30.6-8.7,34.1c-0.14,8.84,3.51,16.61,3.75,25.75c0,0,0,0,0,0c0.47,9.03-4.71,22.36-6.92,27.48 c-0.5,1.17-0.12,2.52,0.93,3.24c0,0,6.84,5.85,13,12.73c5.01,5.59,8.98,11.18,10.71,13.71c0.6,0.88,1.59,1.4,2.66,1.4h11.32 c1.05,0,2.04-0.51,2.64-1.37c1.88-2.88,9.05-12.18,13.84-17.28c0,0,0,0.01,0,0.01c0.44-0.52,1.83-2.07,1.76-2.02l0,0 c1.71-1.93,3.96-4.04,3.97-4.04c2.72-2.19,5.67-3.83,5.67-3.83C97.55,95.23,97.8,94.67,97.56,94.17z M84.04,102.67 c-5.05,5.22-12.9,15.76-14.86,18.35c0,0-11.32,0-11.32,0c-0.05,0-0.13-0.02-0.18-0.09c-1.94-2.83-5.94-8.42-10.95-14.02 c-6.24-6.97-12.99-12.76-13.31-13.03c1.85-4.35,5.71-14.22,6.78-22.82c17.22,12.23,36.39,8.92,44.59,30.75l-0.75,0.85L84.04,102.67z M90.63,96.12c-7.17-25.89-47.18-30.1-52.76-63.47c1.51-6.99,3.58-16.28,6.03-23.59c-1.68,19.01,3.79,35.61,21.35,34.7 c0.96,6.97,3.82,13.9,9.65,19.94c5.35,5.54,9.95,10.57,13.54,14.61c1.1,4.6,4.2,12.46,5.63,15.48 C93.15,94.35,91.91,95.16,90.63,96.12z"/>
</svg>