<svg viewBox="0 0 128 128" xmlns="http://www.w3.org/2000/svg">
  <g>
    <path d="M56.33,29.84c-0.28-0.07-52.01-0.39-52.26-0.23c-0.2,0.14-0.18,13.53-0.16,14.18c0.04,1.45,0.83,2.36,2.59,2.36 c0.68,0,7.71,0,16.17,0.01c-0.04,11.28,0,49.73,0,50.4c0,0.81,0.74,1.62,2.02,1.75s9.9,0,10.85,0c0.94,0,2.09-0.47,2.09-2.16 c0-1.68,0.07-38.64,0.11-49.98c8.72,0.01,15.98,0.01,16.43,0.01c1.44,0,1.99-1.07,2.06-2.02C56.3,43.21,56.47,29.87,56.33,29.84z"/>
    <path d="M124.34,33.25c0-2.09-1.57-2.96-3.05-2.96c-1.48,0-14.32-0.18-14.63,0c-0.32,0.18-14.6,38.09-14.6,38.09 S78.63,30.3,78.17,30.13c-0.47-0.17-12.89-0.02-14.81-0.02c-1.05,0-3.42,0.11-3.4,2.79c0.02,1.97,0.08,62.51,0.08,63.38 c0,0.87,0.07,1.89,2.09,1.89s9.2,0.06,10.28,0.06c1.08,0,1.75-0.88,1.75-1.89c0-0.94,0.35-28.86,0.35-28.86 s11.34,28.81,11.88,29.56c0.54,0.74,1.96,1.01,5.84,0.96c3.91-0.05,5.01-0.49,5.35-1.37c0.31-0.8,1.58-4.31,1.58-4.31l11.33-28.94 c0,0,0.51,30.89,0.51,31.83c0,0.94,0.61,2.29,2.22,2.36c1.61,0.07,8.35,0.07,9.3,0.07c1.62,0,1.79-1.18,1.82-2.29 C124.36,94.36,124.34,35.34,124.34,33.25z"/>
  </g>
</svg>