<svg viewBox="0 0 128 128" xmlns="http://www.w3.org/2000/svg">
  <path d="M116,3.96H12c-4.42,0-8,3.58-8,8v104c0,4.42,3.58,8,8,8h104c4.42,0,8-3.58,8-8v-104C124,7.54,120.42,3.96,116,3.96z M108.06,64.46l-24,24c-0.71,0.61-1.62,0.95-2.56,0.96c-2.21,0.02-4.02-1.75-4.04-3.96v-14c0-1.1-0.9-2-2-2h-23c-1.1,0-2,0.9-2,2v14 c-0.01,0.94-0.35,1.85-0.96,2.56c-1.44,1.68-3.96,1.88-5.64,0.44l-24-24c-0.12-0.11-0.24-0.22-0.35-0.35 c-1.47-1.66-1.31-4.19,0.35-5.65l24-24c0.71-0.61,1.62-0.95,2.56-0.96c2.21-0.02,4.02,1.75,4.04,3.96v14c0,1.1,0.9,2,2,2h23 c1.1,0,2-0.9,2-2v-14c0.01-0.94,0.35-1.85,0.96-2.56c1.44-1.68,3.96-1.88,5.64-0.44l24,24c0.21,0.17,0.39,0.36,0.56,0.56 C109.97,60.67,109.72,63.11,108.06,64.46z"/>
</svg>