<svg viewBox="0 0 128 128" xmlns="http://www.w3.org/2000/svg">
  <path d="M120.86,37.16c0-1.8-1.52-3.32-3.32-3.32H10.47c-1.8,0-3.32,1.42-3.32,3.32L4.01,90.77c-0.14,2.48,1.71,3.38,3.51,3.38 h112.95c1.8,0,3.66-0.65,3.53-3.53L120.86,37.16z M88.88,75.96c0.98,0,1.67,0.75,1.67,1.59v4.39c0,0.94-0.79,1.59-1.67,1.59H38.92 c-0.88,0-1.75-0.57-1.67-1.59v-4.39c0-0.94,0.79-1.59,1.67-1.59H88.88z M44.4,70.21v-4.39c0-0.84,0.69-1.49,1.57-1.49h4.6 c0.88,0,1.57,0.65,1.57,1.49v4.39c0,0.84-0.69,1.49-1.57,1.49h-4.6C45.09,71.7,44.41,70.99,44.4,70.21z M56.16,70.21v-4.39 c0-0.84,0.69-1.49,1.57-1.49h4.6c0.88,0,1.57,0.65,1.57,1.49v4.39c0,0.84-0.69,1.49-1.57,1.49h-4.6 C56.85,71.7,56.16,70.95,56.16,70.21z M67.92,70.21v-4.39c0-0.84,0.69-1.49,1.57-1.49h4.6c0.88,0,1.57,0.65,1.57,1.49v4.39 c0,0.84-0.69,1.49-1.57,1.49h-4.6C68.61,71.7,67.92,70.95,67.92,70.21z M79.67,70.21v-4.39c0-0.84,0.69-1.49,1.57-1.49h4.6 c0.88,0,1.57,0.65,1.57,1.49v4.39c0,0.84-0.69,1.49-1.57,1.49h-4.6C80.36,71.7,79.68,70.95,79.67,70.21z M40.39,70.21 c0,0.84-0.69,1.49-1.57,1.49h-4.6c-0.88,0-1.67-0.75-1.57-1.49v-4.39c0-0.84,0.69-1.49,1.57-1.49h4.6c0.88,0,1.57,0.65,1.57,1.49 V70.21z M33.05,77.55v4.39c0,0.94-0.79,1.59-1.67,1.59h-5.06c-0.88,0-1.5-0.7-1.47-1.59l-0.03-4.37c0-0.94,0.69-1.59,1.57-1.59 l5.09-0.02C32.36,75.96,33.05,76.71,33.05,77.55z M94.86,81.94v-4.39c0-0.94,0.79-1.59,1.67-1.59h5.2c0.98,0,1.67,0.75,1.67,1.59 v4.39c0,0.94-0.79,1.59-1.67,1.59h-5.2C95.55,83.53,94.86,82.78,94.86,81.94z M117.18,81.94c0,0.94-0.79,1.59-1.67,1.59h-6.13 c-0.88,0-1.67-0.75-1.67-1.59v-4.39c0-0.94,0.79-1.59,1.67-1.59h5.84c0.98,0,1.67,0.75,1.67,1.59L117.18,81.94z M116.61,70.2 c0,0.94-0.79,1.59-1.67,1.59H93.56c-0.88,0-1.57-0.65-1.67-1.59l-0.25-4.67c0-0.94,0.79-1.59,1.67-1.59h21.29 c0.98,0,1.67,0.75,1.67,1.59L116.61,70.2z M115.69,53.8l0.31,4.39c0,0.94-0.79,1.59-1.67,1.59h-5.44c-0.88,0-1.66-0.75-1.66-1.59 V53.8c0-0.94,0.79-1.59,1.67-1.59h5.12C115,52.21,115.69,52.96,115.69,53.8z M103.09,41.92c0-0.84,0.69-1.59,1.67-1.59h8.52 c0.88,0,1.67,0.65,1.67,1.59l0.22,4.39c-0.01,0.84-0.79,1.59-1.67,1.59h-8.74c-0.88,0-1.67-0.65-1.67-1.59V41.92z M103.78,53.8v4.39 c0,0.94-0.79,1.59-1.67,1.59h-4.6c-0.98,0-1.67-0.75-1.67-1.59V53.8c0-0.94,0.79-1.59,1.67-1.59h4.6 C103.09,52.21,103.78,52.96,103.78,53.8z M91.33,41.92c0-0.84,0.69-1.59,1.67-1.59h4.6c0.88,0,1.67,0.65,1.67,1.59l0.2,4.39 c0,0.84-0.78,1.59-1.66,1.59H93c-0.88,0-1.67-0.65-1.67-1.59V41.92z M92.51,53.8v4.39c0,0.94-0.79,1.59-1.67,1.59h-4.6 c-0.88,0-1.57-0.75-1.67-1.59V53.8c0-0.94,0.79-1.59,1.67-1.59h4.6C91.82,52.21,92.51,52.96,92.51,53.8z M80.17,41.92 c0-0.84,0.69-1.59,1.67-1.59h4.6c0.88,0,1.67,0.65,1.67,1.59v4.39c-0.01,1.01-0.79,1.59-1.67,1.59h-4.6c-0.88,0-1.67-0.65-1.67-1.59 V41.92z M81.34,53.8v4.39c0,0.94-0.79,1.59-1.67,1.59h-4.6c-0.88,0-1.66-0.75-1.67-1.59V53.8c0-0.94,0.79-1.59,1.67-1.59h4.6 C80.65,52.21,81.34,52.96,81.34,53.8z M69,41.92c0-0.84,0.69-1.59,1.67-1.59h4.6c0.88,0,1.67,0.65,1.67,1.59v4.39 c-0.01,0.99-0.79,1.59-1.67,1.59h-4.6c-0.88,0-1.67-0.65-1.67-1.59V41.92z M70.08,53.8v4.39c0,0.94-0.79,1.59-1.67,1.59h-4.6 c-0.89,0-1.57-0.75-1.67-1.59V53.8c0-0.94,0.79-1.59,1.67-1.59h4.6C69.39,52.21,70.08,52.96,70.08,53.8z M57.73,41.92 c0-0.84,0.69-1.59,1.67-1.59H64c0.88,0,1.67,0.65,1.67,1.59v4.39c0,0.84-0.79,1.59-1.67,1.59h-4.6c-0.88,0-1.67-0.65-1.67-1.59 V41.92z M58.91,53.8v4.39c0,0.94-0.79,1.59-1.67,1.59h-4.6c-0.88,0-1.67-0.75-1.67-1.59V53.8c0-0.94,0.79-1.59,1.67-1.59h4.6 C58.22,52.21,58.91,52.96,58.91,53.8z M46.56,41.92c0-0.84,0.69-1.59,1.67-1.59h4.6c0.88,0,1.67,0.65,1.67,1.59v4.39 c0,0.95-0.79,1.59-1.67,1.59h-4.6c-0.88,0-1.67-0.65-1.67-1.59V41.92z M47.74,53.8v4.39c0,0.94-0.79,1.59-1.67,1.59h-4.6 c-0.88,0-1.67-0.75-1.67-1.59V53.8c0-0.94,0.79-1.59,1.67-1.59h4.6C47.05,52.21,47.74,52.96,47.74,53.8z M35.3,41.92 c0-0.84,0.69-1.59,1.67-1.59h4.6c0.88,0,1.67,0.65,1.67,1.59v4.39c-0.01,0.84-0.79,1.59-1.67,1.59h-4.6c-0.88,0-1.67-0.65-1.67-1.59 V41.92z M36.47,53.8v4.39c0,0.94-0.79,1.59-1.67,1.59h-4.6c-0.88,0-1.57-0.75-1.57-1.59V53.8c0-0.94,0.69-1.59,1.57-1.59h4.6 C35.78,52.21,36.47,52.96,36.47,53.8z M24.4,41.92c0-0.84,0.69-1.59,1.57-1.59h4.43c0.88,0,1.57,0.65,1.57,1.59v4.39 c0,0.98-0.59,1.59-1.57,1.59h-4.6c-0.88,0-1.57-0.65-1.57-1.59L24.4,41.92z M13.06,41.92c0-0.84,0.69-1.59,1.57-1.59h4.6 c0.88,0,1.57,0.65,1.57,1.59l-0.45,4.39c0,0.84-0.69,1.59-1.57,1.59h-4.6c-0.88,0-1.57-0.65-1.57-1.59L13.06,41.92z M12.17,53.8 c0-0.94,0.69-1.59,1.57-1.59h9.31c0.88,0,1.57,0.75,1.57,1.59v4.39c0,0.94-0.69,1.59-1.57,1.59h-9.66c-0.88,0-1.57-0.75-1.57-1.59 L12.17,53.8z M11.62,65.72c0-0.94,0.69-1.59,1.57-1.59h13.68c0.88,0,1.57,0.75,1.57,1.59l-0.29,4.39c0,0.94-0.69,1.59-1.57,1.59 H12.96c-0.88,0-1.57-0.75-1.57-1.59L11.62,65.72z M11.04,77.55c0-0.94,0.69-1.59,1.57-1.59h5.98c0.88,0,1.57,0.75,1.57,1.59v4.39 c0,0.94-0.69,1.59-1.57,1.59h-6.41c-0.89,0-1.57-0.75-1.57-1.59L11.04,77.55z"/>
</svg>