<svg viewBox="0 0 128 128" xmlns="http://www.w3.org/2000/svg">
  <path d="M116,4H12c-4.4,0-8,3.6-8,8v104c0,4.4,3.6,8,8,8h104c4.4,0,8-3.6,8-8V12C124,7.6,120.4,4,116,4z M66.8,66L23.4,91.7 c-1.5,0.9-3.4-0.2-3.4-2V64V38.3c0-1.8,1.9-2.9,3.4-2L66.8,62C68.4,62.9,68.4,65.1,66.8,66z M86.1,90.1H86c0,1-0.8,1.9-1.9,1.9H73.9 c-1,0-1.9-0.8-1.9-1.9V37.9c0-1,0.8-1.9,1.9-1.9h10.3c1,0,1.9,0.8,1.9,1.9V90.1z M108.1,90.1H108c0,1-0.8,1.9-1.9,1.9H95.9 c-1,0-1.9-0.8-1.9-1.9V37.9c0-1,0.8-1.9,1.9-1.9h10.3c1,0,1.9,0.8,1.9,1.9V90.1z"/>
</svg>