<svg viewBox="0 0 128 128" xmlns="http://www.w3.org/2000/svg">
  <path d="M116.46,3.96h-104c-4.42,0-8,3.58-8,8v104c0,4.42,3.58,8,8,8h104c4.42,0,8-3.58,8-8v-104 C124.46,7.54,120.88,3.96,116.46,3.96z M107.05,91.66l-35-24.4v22.3C72.1,90,72,90.45,71.77,90.84c-0.58,0.98-1.84,1.3-2.82,0.72 l-36.9-25v23.6c0,1.05-0.85,1.9-1.9,1.9h-10.3c-1.05,0-1.9-0.85-1.9-1.9v-52.3c0-1.05,0.85-1.9,1.9-1.9h10.2 c1.05,0,1.9,0.85,1.9,1.9v23.5l36.9-25.1c0.38-0.23,0.83-0.33,1.28-0.28c1.13,0.13,1.95,1.15,1.82,2.28v22.4l35-24.4 c1.3-0.9,3,0.2,3,2v25.7l0.1,25.7C110.05,91.46,108.45,92.56,107.05,91.66z"/>
</svg>