<svg viewBox="0 0 128 128" xmlns="http://www.w3.org/2000/svg">
  <path d="M116.46,4.14h-104c-4.42,0-8,3.58-8,8v104c0,4.42,3.58,8,8,8h104c4.42,0,8-3.58,8-8v-104 C124.46,7.72,120.88,4.14,116.46,4.14z M107.46,66.14L91.8,76.19L67.56,91.84c-0.35,0.24-0.78,0.34-1.2,0.3 c-0.14,0.01-0.28-0.02-0.4-0.1c-0.1,0-0.2-0.1-0.4-0.2c-0.24-0.11-0.45-0.28-0.6-0.5c-0.07-0.06-0.12-0.14-0.16-0.23 c-0.26-0.39-0.4-0.87-0.34-1.37v-22.3l-3,2l-34,22.4c0,0,0,0,0,0c-0.37,0.26-0.77,0.33-1.16,0.3c-0.01,0-0.03,0-0.04,0 c-0.11,0.01-0.21-0.02-0.31-0.06c-0.02-0.01-0.04-0.02-0.07-0.03c-0.01,0-0.01,0-0.02-0.01c-0.09,0-0.18-0.08-0.33-0.16 c-0.02-0.01-0.04-0.02-0.07-0.04c-0.11-0.07-0.19-0.16-0.29-0.25c-0.52-0.47-0.83-1.14-0.81-1.85v-51.3 c-0.07-0.92,0.45-1.76,1.28-2.11c0.07-0.03,0.14-0.07,0.22-0.09c0.09,0,0.19-0.07,0.34-0.09c0.02,0,0.03-0.01,0.06-0.01 c0,0,0.01,0,0.01,0c0.19-0.02,0.38-0.01,0.57,0.04c0.02,0,0.03,0,0.05,0.01c0.19,0.05,0.38,0.13,0.56,0.25l37,24.3v-22.3 c-0.05-0.44,0.05-0.89,0.28-1.28c0.06-0.1,0.13-0.19,0.2-0.27c0.01-0.02,0.01-0.03,0.02-0.05c0.17-0.2,0.38-0.36,0.6-0.5 c0.1-0.1,0.2-0.1,0.4-0.2c0.2-0.1,0.3-0.1,0.4-0.1c0.42-0.04,0.85,0.06,1.2,0.3l24.2,15.69l15.7,10.11 c0.24,0.16,0.45,0.37,0.62,0.62C108.84,63.86,108.56,65.38,107.46,66.14z"/>
</svg>