<svg viewBox="0 0 128 128" xmlns="http://www.w3.org/2000/svg">
  <path d="M120.59,69.19c-4.64-7.46-12.67-7.18-13.09-7.74c-0.43-0.56,2.46-9.23-1.27-22.1c-4.08-14.08-21.4-22.52-38.01-18.02 c-16.61,4.5-20.56,21.82-21.4,22.1c-0.85,0.29-6.9-3.66-15.77,2.96s-6.88,15.19-7.6,15.91c-1.27,1.27-5.63-0.42-11.53,2.95 c-4.85,2.77-6.71,6.82-7.23,9.64c-0.04-0.04-0.06-0.06-0.06-0.06S2.29,82.9,8.71,87.88c10.67,8.26,26.45,4.96,26.45,4.96 s5.04,5.72,14.49,6.9c10,1.27,16.4-2.48,16.4-2.48s2.13,3.91,10.72,6.47c6.84,2.04,16.08,0.93,21.44-2.4 c5.77-3.57,7.05-8.48,7.05-8.48s8.4-0.34,13.23-3.52c4.83-3.18,5.35-7.9,5.34-9.82C123.93,77.5,123.53,73.91,120.59,69.19z"/>
</svg>