<svg viewBox="0 0 128 128" xmlns="http://www.w3.org/2000/svg">
  <path d="M116.46,3.96h-104c-4.42,0-8,3.58-8,8v104c0,4.42,3.58,8,8,8h104c4.42,0,8-3.58,8-8v-104 C124.46,7.54,120.88,3.96,116.46,3.96z M101.66,94.26c-2.04,2.51-4.33,4.8-6.83,6.85c-20.51,16.79-50.76,13.78-67.55-6.73 C10.49,73.87,13.5,43.62,34.01,26.83c20.51-16.79,50.75-13.78,67.55,6.73c0.32,0.36,0.32,0.9,0,1.25c-0.34,0.37-0.93,0.39-1.3,0.05 c-7.57-7.15-17.59-11.12-28-11.1c-22.2,0-40.2,18-40.2,40.2c0,22.2,18,40.2,40.2,40.2c10.45,0,20.51-4,28.1-11.2 C101.16,92.16,102.36,93.36,101.66,94.26z M111.96,61.46l-8.1,5.8c-0.49,0.28-0.7,0.87-0.5,1.4l3.2,9.5 c0.23,0.66-0.12,1.39-0.79,1.61c-0.41,0.14-0.87,0.06-1.21-0.21l-8-5.9c-0.45-0.3-1.05-0.3-1.5,0l-8,5.9 c-0.56,0.43-1.36,0.32-1.79-0.24c-0.25-0.33-0.33-0.77-0.21-1.16l3.2-9.5c0.2-0.53-0.01-1.12-0.5-1.4l-8.3-5.7 c-0.57-0.41-0.7-1.2-0.29-1.77c0.25-0.35,0.66-0.55,1.09-0.53l10,0.1c0.56,0.02,1.06-0.36,1.2-0.9l3-9.5 c0.17-0.7,0.87-1.13,1.57-0.96c0.44,0.11,0.79,0.43,0.93,0.86l3,9.5c0.19,0.51,0.66,0.86,1.2,0.9l10-0.1c0.71,0,1.29,0.58,1.29,1.29 C112.45,60.84,112.27,61.21,111.96,61.46z"/>
</svg>