<svg viewBox="0 0 128 128" xmlns="http://www.w3.org/2000/svg">
  <path d="M116.46,3.96h-104c-4.42,0-8,3.58-8,8v104c0,4.42,3.58,8,8,8h104c4.42,0,8-3.58,8-8v-104 C124.46,7.54,120.88,3.96,116.46,3.96z M99.46,55.96h-2.77H69.46v25.1l12.5,6.9c1.33,0.79,2.14,2.12,2.37,3.54 c0.02,0.09,0.03,0.18,0.04,0.27c0.01,0.12,0.02,0.23,0.03,0.35c0,0.06,0.01,0.13,0.01,0.19c0,0.14-0.03,0.27-0.04,0.41 c-0.01,0.1-0.01,0.19-0.03,0.29c-0.32,2.43-2.37,4.32-4.89,4.35c-0.88,0-1.75-0.24-2.5-0.7l-7.5-4v14.3c0,2.76-2.24,5-5,5 s-5-2.24-5-5v-20.1l-12.5-6.9c-1.33-0.79-2.14-2.1-2.36-3.52c-0.2-1.12-0.05-2.31,0.56-3.38c0.02-0.04,0.04-0.07,0.06-0.11 c1.4-2.33,4.41-3.08,6.74-1.69l7.5,4v-19.3h-30c-2.76,0-5-2.24-5-5c0-2.76,2.24-5,5-5h30v-9h-14c-2.76,0-5-2.24-5-5 c0-2.76,2.24-5,5-5h14v-6c0-2.76,2.24-5,5-5s5,2.24,5,5v6h14c2.76,0,5,2.24,5,5c0,2.76-2.24,5-5,5h-14v9h30c2.76,0,5,2.24,5,5 C104.46,53.72,102.22,55.96,99.46,55.96z"/>
</svg>