<svg viewBox="0 0 128 128" xmlns="http://www.w3.org/2000/svg">
  <g>
    <path d="M64.46,47.46c4.14,0,7.5-3.36,7.5-7.5c0-4.14-3.36-7.5-7.5-7.5c-4.13,0.03-7.47,3.37-7.5,7.5 C56.96,44.1,60.32,47.46,64.46,47.46z"/>
    <path d="M84.46,26.96c2.47,3.78,3.82,8.2,3.89,12.72c0.19,13.16-10.32,23.99-23.49,24.18c-13.01,0.2-23.47,10.79-23.5,23.8v1.2 c0.2,3.59,1.53,7.02,3.8,9.8c2.67,3.25,6.38,5.48,10.5,6.3c4.06,0.92,8.25,1.19,12.4,0.8c14.1-1.2,26.66-9.43,33.39-21.88 C112.47,63.47,104.87,37.99,84.46,26.96z M64.46,90.96c-3.31,0-6-2.69-6-6c0-3.31,2.69-6,6-6c3.31,0,6,2.69,6,6 C70.46,88.27,67.77,90.96,64.46,90.96z"/>
    <path d="M116.46,3.96h-104c-4.42,0-8,3.58-8,8v104c0,4.42,3.58,8,8,8h104c4.42,0,8-3.58,8-8v-104 C124.46,7.54,120.88,3.96,116.46,3.96z M64.46,111.96c-26.51,0-48-21.49-48-48c0-26.51,21.49-48,48-48s48,21.49,48,48 C112.46,90.47,90.97,111.96,64.46,111.96z"/>
  </g>
</svg>