<svg viewBox="0 0 128 128" xmlns="http://www.w3.org/2000/svg">
  <g>
    <path d="M27.4,90.7c0,0-0.1,0.1-0.1,0.2l0,0.1C27.3,90.9,27.4,90.8,27.4,90.7z"/>
    <path d="M114.4,101.2c-4.7-0.5-8.7-3.6-12.3-7.2c0,0,0,0,0,0c0,0,0,0,0,0c-2.1-2.1-4-4.3-5.9-6.3c0,0,0-0.1,0-0.1 c2.9-2,4.6-4.3,4.7-7.4c0.2-3.8-1.7-8.8-1.2-11.7c0.4-2.5,2.2-13.8,0.6-22.6c-0.5-2.7-1.4-5-2.6-7.2c4.7-5.2,10-11.1,16.7-11.9 c3-0.3,6.4-0.6,8.5-2.8c1.3-1.4,1.9-3.6,1.4-5.5c-0.5-1.9-2.1-3.5-4-4c-1.1-0.3-2.2-0.3-3.2-0.8c-2-0.8-3-3-4-5 c-0.2-0.4-0.4-0.8-0.6-1.2c-0.9-1.6-2-3-3.7-3.3C108.4,4,108.1,4,107.8,4c-0.8,0-1.7,0.2-2.5,0.5c-2.1,0.7-4.2,2-4.9,4.1 c-0.5,1.5-0.2,3.2-0.1,4.8c0.2,6.7-5.4,11.9-10.5,16.4c-7.2-5.6-16.3-8.2-25-8.5c0,0-0.1,0-0.2,0s-0.1,0-0.2,0c-0.1,0-0.2,0-0.3,0 c-0.1,0-0.2,0-0.3,0c0,0-0.1,0-0.2,0c0,0-0.1,0-0.1,0c0,0-0.1,0-0.1,0c-8.8,0.3-18,3-25.3,8.7c-5.2-4.6-11-9.9-10.8-16.7 c0-1.6,0.4-3.3-0.1-4.8c-0.7-2.1-2.8-3.4-4.9-4.1C21.9,4.2,21,4,20.2,4c-0.3,0-0.6,0-0.9,0.1c-1.7,0.4-2.8,1.8-3.7,3.3 c-0.2,0.4-0.4,0.8-0.6,1.2c-0.9,2-2,4.2-4,5c-1,0.4-2.2,0.4-3.2,0.8c-1.9,0.6-3.5,2.1-4,4c-0.5,1.7-0.1,3.6,1,5 c0.2,0.4,0.6,0.8,1.2,1.2c1,0.7,2.2,1.2,3.4,1.5c1.5,0.4,3.1,0.7,4.7,0.7c4.6,0.7,8.5,3.8,12.1,7.3c0,0,0,0,0,0.1c0,0,0.1,0,0.1,0 c1.6,1.6,3,3.2,4.5,4.8c-1.1,2.1-1.9,4.3-2.4,6.8c-1.6,8.8,0.2,20.1,0.6,22.6c0.6,3.5-0.9,7.3-1.2,10.7c-0.3,3.6,1.3,6.4,4.2,8.4 c0,0,0,0,0,0.1c-1.9,2-3.8,4.3-5.9,6.4c0,0,0,0,0,0c0,0,0,0,0,0c-3.6,3.6-7.6,6.6-12.3,7.2c-3,0.3-6.4,0.6-8.5,2.8 c-1.3,1.4-1.9,3.6-1.4,5.5c0.4,1.3,1.2,2.5,2.4,3.3c0.1,0.1,0.1,0.1,0.2,0.2c0,0,0,0,0.1,0c0.4,0.3,0.9,0.5,1.4,0.6 c1.1,0.3,3.3,1,4.3,1.4c2,0.8,2.1,2.3,2.9,4.4c0.2,0.4,0.4,0.8,0.6,1.2c0.9,1.6,2,3,3.7,3.4c0.3,0.1,0.6,0.1,0.9,0.1 c0.8,0,1.7-0.2,2.5-0.5c2.1-0.7,4.2-2,4.9-4.1c0.5-1.5,0.2-3.2,0.1-4.8c0-0.8,0-1.6,0.2-2.3c0,0,0,0,0,0c0,0,0,0,0,0 c1.3-7.4,9.6-13,14.6-18c0.1,1,0,2.2-0.2,3.3c-1.2,5.4,1.6,7.4,2.9,8.2c2.6,1.4,5.9,0.7,5.9,0.7s0.5,0.8,1.1,1.5l0,0c0,0,0,0,0,0 c0.4,0.5,0.9,1,1.3,1.2c1,0.6,2.1,1,3.3,1.2c2.4,0.5,4.7-0.3,6.2-1.1c0.4-0.2,0.9-0.3,1.3-0.3v-0.2c0,0,0,0,0,0v0.2 c0.5,0,0.9,0.1,1.3,0.3c1.5,0.8,3.8,1.6,6.2,1.1c1.2-0.3,2.3-0.6,3.3-1.2c1.1-0.7,2.4-2.8,2.4-2.8s3.3,0.8,5.9-0.7 c1.4-0.8,4.3-2.7,3.4-8.4c0,0,0,0,0,0.1c0-0.7,0-1.4,0.1-2c0,0,0,0,0,0c5.6,5.2,13.7,11.1,13.5,19.1c-0.1,1.6-0.4,3.3,0.1,4.8 c0.7,2.1,2.8,3.4,4.9,4.1c0.8,0.3,1.7,0.5,2.5,0.5c0.3,0,0.6,0,0.9-0.1c1.7-0.4,2.8-1.8,3.7-3.3c0.2-0.4,0.4-0.8,0.6-1.2 c0.7-1.4,1.4-3,2.6-4.1c0.8-0.4,4.2-1.1,6.2-2.3c0.2-0.1,0.3-0.2,0.3-0.4c1-0.8,1.7-1.8,2.1-3.1c0.5-1.9,0-4.1-1.4-5.5 C120.8,101.8,117.5,101.6,114.4,101.2z M102.4,13.3c0-0.4,0-0.9-0.1-1.3c-0.1-1-0.2-2,0.1-2.8c0.5-1.5,2.5-2.4,3.6-2.8 c0.8-0.3,1.3-0.4,1.8-0.4c0.2,0,0.3,0,0.4,0c0.8,0.2,1.6,1,2.4,2.4c0.2,0.4,0.4,0.7,0.6,1.1l0,0l0,0c1,2.2,2.3,4.8,5,6 c0.8,0.3,1.6,0.5,2.3,0.6c0.4,0.1,0.8,0.1,1.1,0.2c1.2,0.4,2.3,1.4,2.6,2.7c0.3,1.1,0.1,2.3-0.6,3.2c-0.7,0.1-1.3,0.2-1.6,0.2 c-4.9,0.1-6.1-0.8-7.4-1.2c-4.1-1.5-5.2,1.2-4,3.4c0.3,0.5,0.7,0.9,1.3,1.3c-3,1.2-5.7,3.3-8.2,5.6c-1-1.3-2.9-3.1-6.3-4.2 C99.2,23.4,102.5,18.9,102.4,13.3z M18.2,25.9c0.5-0.3,0.9-0.7,1.2-1.2c1.1-2.2,0-4.9-4-3.4c-1.3,0.5-2.5,1.3-7.4,1.2 c-0.3,0-0.9-0.2-1.5-0.2c-0.7-0.9-1-2.2-0.7-3.3c0.3-1.2,1.4-2.3,2.6-2.7c0.3-0.1,0.7-0.2,1.1-0.2c0.7-0.1,1.5-0.2,2.3-0.6 c2.7-1.1,4-3.8,5-6l0,0l0,0c0.2-0.4,0.4-0.7,0.6-1.1C18.1,7,18.9,6.2,19.7,6c0.1,0,0.3,0,0.5,0c0.5,0,1.1,0.1,1.8,0.4 c1.1,0.4,3.1,1.3,3.6,2.8c0.3,0.8,0.2,1.7,0.1,2.8c0,0.4-0.1,0.9-0.1,1.3c-0.2,6,3.7,10.9,7.9,15c-3.1,0.8-5.3,2.5-6.5,4.1 C24.4,29.7,21.5,27.3,18.2,25.9z M31.8,87.6C31.8,87.6,31.8,87.6,31.8,87.6L31.8,87.6C31.8,87.6,31.8,87.6,31.8,87.6z M25.6,114.7 c0,0.4,0,0.9,0.1,1.3c0.1,1,0.2,2-0.1,2.8c-0.5,1.5-2.5,2.4-3.6,2.8c-0.8,0.3-1.3,0.4-1.8,0.4c-0.2,0-0.3,0-0.4,0 c-0.8-0.2-1.6-1-2.4-2.4l-0.1-0.2c-0.2-0.3-0.3-0.6-0.4-0.8c-0.1-0.4-0.3-0.7-0.4-1.1c-0.1-0.3-0.2-0.7-0.4-1 c0.1-0.2,0.1-0.4,0.2-0.6c0.5-2.4,0.4-5.1-1.8-5.4c-0.9-0.1-4.4,0.3-6.9,0.8c-0.9-0.5-1.6-1.4-1.8-2.3c-0.3-1.2,0-2.7,0.9-3.6 c1.4-1.5,4.1-1.8,6.7-2.1l0.6-0.1c5.7-0.7,10.3-4.5,14.4-8.7c0.7,0.3,1.4,0.7,1.8,1.4c0.7,1.3,1.1,2.9,0.9,4.3 c-0.1,1.2-0.5,2.3-0.9,3.4C27.4,106.9,25.5,110.5,25.6,114.7z M80.7,104.3c-1.8,0.1-2.1-1.2-2.1-1.4c0-2.1,0-4.6,0-5.3 c0-0.8-0.7-1.5-1.6-1.5c-0.8,0-1.5,0.7-1.5,1.5c0,0.8,0.1,4.5,0.1,7c-0.1,0.6-0.4,1.2-0.8,1.8c-0.7,1-2,1.3-3.1,1.6 c-1.9,0.4-5.6,0.3-6-2.2c0-1.2,0-2.3,0-2.7v-5.5c0-0.8-0.7-1.5-1.6-1.5c-0.9,0-1.5,0.7-1.5,1.5v8c0,0,0,0,0,0c-0.2,2.6-4,2.8-6,2.4 c-1.1-0.2-2.4-0.6-3.1-1.6c-0.5-0.6-0.7-1.4-0.9-2.2c0.1-2.4,0.3-5.9,0.3-6.6c0-0.8-0.7-1.5-1.5-1.5S50,96.7,50,97.6 c0,0.7-0.1,3.1-0.1,5.3c0,0,0,0,0,0s-0.2,1.5-2.1,1.4c-2.2-0.2-3.2-0.7-3.8-1.5v-0.6c0-1.6,0.1-3.5,0.2-4.4 c0.3-2.7,0.8-6.3-2.6-7.8c-1-0.5-2.1-0.9-3.1-1.3c-1.9-0.8-3.7-1.5-5.2-2.5c-2.7-1.8-3.9-4-3.7-6.8c0.1-1.1,0.3-2.3,0.6-3.6 c0.5-2.5,1-5,0.6-7.6c-0.5-3.1-2.1-13.8-0.6-21.9c0.9-4.8,3.1-8.8,7.1-12.6c6.7-6.3,16.1-10,26.4-10.3l0.4,0l0,0c0.1,0,0.1,0,0.2,0 c0.1,0,0.1,0,0.2,0c0,0,0.1,0,0.1,0l0,0l0.2,0c10.4,0.3,19.7,4,26.4,10.3c4,3.8,6.2,7.8,7.1,12.6c1.5,8.2-0.1,18.9-0.6,21.9 c-0.3,1.9,0.1,4.1,0.5,6.5c0.4,1.9,0.7,3.9,0.7,5.5c-0.1,2.6-1.7,4.6-5.3,6.8c-0.6,0.3-1.2,0.7-1.9,1c-2.5,1.2-5.6,2.8-6.7,6.5 c-0.4,1.3-0.3,2.6-0.3,3.7l0.1,4.1C84.3,103.3,83.5,104.1,80.7,104.3z M122.3,109c-0.3,0.9-0.9,1.8-1.8,2.3c-2.5-0.4-6-0.9-6.8-0.8 c-2.2,0.2-2.3,2.9-1.8,5.4c0.1,0.3,0.1,0.5,0.2,0.8c-0.3,0.6-0.6,1.2-0.9,1.8l0,0l0,0c-0.2,0.4-0.4,0.7-0.6,1.1 c-0.8,1.4-1.6,2.2-2.4,2.4c-0.1,0-0.3,0-0.5,0c-0.5,0-1.1-0.1-1.8-0.4c-1.1-0.4-3.1-1.3-3.6-2.8c-0.3-0.8-0.2-1.7-0.1-2.8 c0-0.4,0.1-0.9,0.1-1.3c0.1-4.2-1.7-7.8-4.3-11c-0.4-1.1-0.8-2.2-0.9-3.4c-0.2-1.5,0.2-3,0.9-4.3c0.4-0.7,1.1-1.2,1.8-1.4 c4,4.2,8.6,8,14.4,8.7l0.6,0.1c2.6,0.3,5.2,0.6,6.7,2.1C122.3,106.3,122.7,107.8,122.3,109z"/>
    <path d="M100.8,91l0-0.1c0-0.1-0.1-0.1-0.1-0.2C100.6,90.8,100.7,90.9,100.8,91z"/>
    <path d="M27.4,37.3c-0.1-0.1-0.1-0.2-0.2-0.3l0,0.1C27.3,37.2,27.4,37.3,27.4,37.3z"/>
    <path d="M100.8,37c-0.1,0.1-0.1,0.2-0.2,0.3c0,0,0.1-0.1,0.1-0.2L100.8,37z"/>
    <ellipse cx="46.5" cy="66.1" rx="10.1" ry="9.2" transform="matrix(0.2588 -0.9659 0.9659 0.2588 -29.4162 93.8602)"/>
    <ellipse cx="82.1" cy="66.1" rx="9.2" ry="10.1" transform="matrix(0.9659 -0.2588 0.2588 0.9659 -14.31 23.4994)"/>
    <path d="M64.3,71.4c-3.3,0-5.9,8.1-5.9,11.4c0,7,5.9,2.1,5.9,2.1s5.9,4.5,5.9-2.1C70.2,79.5,67.5,71.4,64.3,71.4z"/>
  </g>
</svg>