<svg viewBox="0 0 128 128" xmlns="http://www.w3.org/2000/svg">
  <path d="M64,4C30.86,4,4,30.86,4,64s26.86,60,60,60s60-26.86,60-60S97.14,4,64,4z M96.8,68H86c-0.6,0-1,0.5-1,1.1 c1.1,11.9,5.8,20.1,9.8,22.3c1.5,0.8,2.3,2.6,1.9,4.4c-0.7,3-3.6,3.9-6.2,2.3C83.4,93.9,78,82.6,77,68.9c-0.1-0.5-0.5-0.9-1-0.9H52 c-0.5,0-1,0.4-1,0.9c-1.1,14-6.6,25.4-13.9,29.5c-2.6,1.4-5.8-0.4-5.9-3.4c0-1.5,0.8-2.9,2.1-3.6c4-2.3,8.6-10.5,9.7-22.3 c0-0.6-0.4-1.1-1-1.1H31.2c-2.3,0-4.2-2-3.9-4.4c0.1-2.1,2-3.6,4.1-3.6H42c0.6,0,1-0.5,1-1.1c-1.1-11.8-5.8-20.1-9.8-22.3 c-1.5-0.8-2.3-2.6-1.9-4.4c0.7-2.9,3.6-3.9,6.2-2.3C44.6,34.1,50,45.4,51,59.1c0,0.5,0.5,0.9,1,0.9h24c0.5,0,0.9-0.4,1-0.9 c1.1-14,6.6-25.5,13.9-29.5c2.6-1.5,5.8,0.4,5.9,3.4c0,1.5-0.8,2.9-2.1,3.6c-4,2.3-8.6,10.5-9.7,22.3c-0.1,0.6,0.4,1.1,1,1.1h10.6 c2.1,0,4,1.5,4.2,3.6C101,66,99.1,68,96.8,68z"/>
</svg>