<svg viewBox="0 0 128 128" xmlns="http://www.w3.org/2000/svg">
  <path d="M121.64,31.35c0,0-15.54-7.26-31.3-15.34C78.3,9.84,63.69,3.6,48.48,3.6c-23.6,0-42.74,19.14-42.74,42.75 c0,4.96,0.85,9.72,2.41,14.15c-0.54,0.3-1.59,1.16-1.58,3.15c0.02,2.19,1.87,4.19,3.78,5.28c0.12,0.07,0.96,0.57,2.66,1.27 c1.54,2.28,3.3,4.44,5.25,6.37l-14.1,44.85c-0.43,1.09,0.07,2.32,1.14,2.79c1.07,0.47,2.32,0.02,2.83-1.03l16.46-41.39 c5.81,3.93,12.64,6.45,20,7.12l1.42,26.55c0.05,1.17,1.01,2.09,2.18,2.09s2.13-0.92,2.18-2.09l1.42-26.51 c7.28-0.53,14.39-3.02,20.4-7.04l16.41,41.27c0.51,1.05,1.76,1.5,2.83,1.03c1.07-0.47,1.57-1.7,1.14-2.79L78.52,76.75 c1.87-1.85,3.58-3.86,5.07-6.04c1.31-0.46,2.35-0.89,3.16-1.29c2.46-1.1,3.81-3.33,3.82-5.51c0.01-2.44-1.65-3.69-1.65-3.69 s-0.01,0.01-0.02,0.01c1.82-5.21,2.58-10.82,2.24-16.44l25.04,5.87c3.97,0.3,6.15-4.37,7.16-7.59 C124.61,37.47,124.04,32.36,121.64,31.35z M48.48,86.09c-8.45,0-16.3-2.66-22.74-7.18l0.87-2.19c6.35,4.53,14.05,7.27,21.88,7.27 c7.73,0,15.33-2.77,21.64-7.28l0.92,2.32C64.64,83.48,56.86,86.09,48.48,86.09z M120.45,41.27c-0.96,3.47-2.99,5.37-3.67,5.45 l-28.87-6.77c0.75,7.31,0.15,15.16-2.76,21.72c-0.79,0.27-1.68,0.56-2.69,0.87c2.15-4.28,3.39-8.91,3.39-13.65H85.8 c0.03-0.08,0.05-0.17,0.05-0.25c0-2.74-16.73-4.96-37.36-4.96s-37.36,2.22-37.36,4.96c0,0.08,0.02,0.17,0.05,0.25h-0.05 c0,4.71,1.14,9.26,3.15,13.44c-0.95-0.33-1.8-0.63-2.56-0.9c-1.92-4.66-2.98-9.74-2.98-15.08C8.74,24.43,26.57,6.6,48.48,6.6 c15,0,29.52,6.46,40.49,12.08c15.45,7.92,30.89,15.15,31.39,15.38C120.91,34.72,121.42,37.74,120.45,41.27z"/>
</svg>