<svg viewBox="0 0 128 128" xmlns="http://www.w3.org/2000/svg">
  <path d="M118.14,3.98c-5.31,0-20,0-25.43,0c-1.66,0-2.93,1.27-2.93,2.93v2v3.86v2c0,1.66,1.27,2.93,2.93,2.93h6.35L81.54,35.31 c-4.79-3.09-10.49-4.9-16.61-4.9c-6.65,0-12.79,2.13-17.81,5.72l-2.97-3.1l5.1-5.1c1.17-1.17,1.65-3.03-0.09-5.1l-0.01,0 c-0.12-0.18-0.25-0.34-0.41-0.49l-4.1-4.1c-1.17-1.17-3.03-1.17-4.1,0l-5.57,5.57l-6.03-6.03h4.36c1.66,0,2.93-1.27,2.93-2.93v-1.99 V9V7c0-1.66-1.27-2.93-2.93-2.93c-5.49,0-18.07,0-23.43,0C8.2,4.07,6.93,5.34,6.93,7v8.79v2v12.65v2c0,1.66,1.27,2.93,2.93,2.93 h5.86c1.66,0,2.93-1.27,2.93-2.93v-2v-2.59c0-0.68,0.78-0.98,1.27-0.49l5.66,5.66c-1.83,1.86-5.59,5.67-5.83,5.93 c-0.13,0.13-0.24,0.27-0.35,0.42c-0.01,0.01-0.04,0.04-0.04,0.05c-1.61,2.22-1.25,4.09-0.08,5.17l4.57,4.57 c1.17,1.17,3.03,1.17,4.1,0c0.35-0.35,6.8-6.8,6.93-6.93l3.53,3.53c-2.99,5.02-4.24,11.17-4.12,17.31 c0.3,14.91,10.66,27.34,24.79,30.08v0.03v7.36h-8.79c-1.66,0-2.93,1.27-2.93,2.93v2.01v2.85v2.01c0,1.66,1.27,2.93,2.93,2.93h8.79 v5.82v2.01c0,1.66,1.27,2.93,2.93,2.93h5.86c1.66,0,2.93-1.27,2.93-2.93v-2.01v-5.82h8.79c1.66,0,2.93-1.27,2.93-2.93v-2.01v-2.85 v-2.01c0-1.66-1.27-2.93-2.93-2.93H70.8v-7.36v-0.03c14.13-2.73,24.67-15.17,25.03-30.08c0.16-6.69-1.63-13.3-5.14-18.57 l17.41-17.41c0.49-0.49,1.27-0.1,1.27,0.49v4.77v2.01c0,1.66,1.27,2.93,2.93,2.93h5.86c1.66,0,2.93-1.27,2.93-2.93v-2.01V17.69v-2 V8.91v-2C121.07,5.34,119.8,3.98,118.14,3.98z M65,79.57c-0.73-0.02-1.46-0.05-2.18-0.13v0.01c-8.89-1.01-16.07-8.33-16.08-17.39 c-0.02-9.79,8.29-17.51,18.18-17.51c9.9,0,18.15,7.74,18.15,17.51C83.07,71.8,74.85,79.53,65,79.57z"/>
</svg>