<svg viewBox="0 0 128 128" xmlns="http://www.w3.org/2000/svg">
  <path d="M121.08,108.34L56.03,40.48c0.26-0.71,0.27-1.27-0.02-1.58l-7.76-8.37C64.26,17.24,78.73,10.32,86.73,7.15 c0.4-0.06,1.35-0.69,1.26-0.82c0,0-0.01,0-0.01,0c0.76-1.21-0.2-2.47-1.6-2.3C62.34,3.67,45.43,13,37.21,18.87 c-0.21-0.12-0.47-0.13-0.68-0.02c-6.31,3.33-9.25,7.57-10.57,9.85c-0.15,0.26-0.12,0.59,0.09,0.82c0.03,0.03,0.06,0.07,0.1,0.1 c-6.71,8.51-17.65,25.6-20.6,49.37c-0.36,1.28,1.12,2.23,2.17,1.6c0.6-0.26,0.96-1.48,1.32-2.11c4.13-8.21,12.54-22.21,27.32-37.06 c1.61,1.87,7.25,8.42,7.42,8.6c0.26,0.28,0.73,0.33,1.36,0.2l60.27,71.67c2.17,2.54,6.03,2.83,8.57,0.64l6.59-5.7 C123.11,114.64,123.33,110.81,121.08,108.34z"/>
</svg>