<svg viewBox="0 0 128 128" xmlns="http://www.w3.org/2000/svg">
  <g>
    <path d="M109.68,67.93c-2.42-2.56-5.39,1.32-8.23,3.29c-0.21-1.94,0.38-6.5-3.18-5.75c-3.22,1.04-1.11,6.53-1.35,9.4 c-1.75,1.42-3.43,2.78-4.65,3.78c-3.82-4.84-8-7.82-8-7.82c9.25-8.75,9.03-27.83-0.51-35.66c4.3-0.48,6.49-1.44,6.7-3.13 c0.49-3.94-10.49-4.58-10.49-4.58S82.5,8.74,82.15,8.17C81.8,7.6,76.52,4.8,67.23,4.23C58.49,3.7,51.68,5.29,51.39,6.56 C51.1,7.83,51.04,26.2,51.04,26.2s-12.1,0.5-12.32,3.59c-0.13,1.84,2.31,3.33,8.28,4.34c-11.41,6.89-11.57,27.41-3.77,35.71 c-2.57,1.97-5.01,4.43-7.09,6.99c-0.89-0.75-2.3-1.95-3.86-3.28c0.21-2.9,2.3-7.98-0.67-9.14c-3.48-1-3.36,3.3-3.58,5.5 c-3.42-2.57-6.22-7.1-9.23-4.15c-1.47,1.75-0.39,3.76,0.92,5.07c1.79,1.79,9.06,8.01,12.86,11.24c-0.32,0.59-0.63,1.16-0.9,1.77 c-5.34,11.43-1.88,25.71,8.26,33.54c11.79,8.81,28.6,9.19,41.86,3.61c13.84-5.73,21.38-23.44,13.8-37.32 c3.9-3.24,11.61-9.66,12.81-10.81C109.61,71.71,111.19,69.58,109.68,67.93z M82.52,117.28c-11.07,6.29-30.98,5.84-40.73-2.26 c-7.35-5.74-10.79-14.81-9.21-24.27C35.29,78.34,45.1,72.36,47.9,70.17c-2.79-2.8-7.3-5.61-7.02-18.68 c0.68-12.86,10.26-16.18,10.36-16.21c1.7-0.65,9.61-1.17,13.88-0.87c6.4,0.29,13.42,1.16,14.74,1.59 c11.14,6.89,11,27.37-0.45,35.05c2.86,2.23,13.68,8.57,15.93,21.17C96.65,102.78,91.86,112.15,82.52,117.28z"/>
    <path d="M51.84,45.93c-4.89-0.93-5.64,7.35-1.79,8.26C54.29,55.25,55.86,46.64,51.84,45.93z"/>
    <path d="M72.91,50.2c-0.3,5.64,6.66,5.7,6.68-0.04C79.9,44.82,72.99,45.36,72.91,50.2z"/>
    <path d="M68.16,61.31c-1.11,0.6-2.99,1-4.49,0.95s-3.45-0.81-4.15-1.23c-1.12-0.66-2.01-1.47-3.09-0.56 c-1.13,0.95,0.07,2.83,2.53,3.94c2.57,1.16,6.9,1.51,10.31-0.21C72.96,62.29,71.36,59.32,68.16,61.31z"/>
    <path d="M60.05,52.54c-0.14,0.56,2.6,7.33,3.91,7.19c1.3-0.14,3.45-7.23,3.27-7.75c-0.18-0.53-2.32-0.77-3.55-0.74 C62.45,51.27,60.19,51.98,60.05,52.54z"/>
    <path d="M63.67,87.92c4.67,0.01,4.88-7.64-0.21-7.48c-2.13-0.1-4.09,1.43-4.09,3.66C59.37,87.55,62.34,87.95,63.67,87.92z"/>
    <path d="M63.04,94.23c-1.33,0.26-3.03,1.43-3.08,4.35c-0.04,2.12,3.16,3.23,4.88,2.97c2.12-0.32,3.73-2.85,2.97-5.09 C66.96,93.97,64.36,93.97,63.04,94.23z"/>
  </g>
</svg>