<svg viewBox="0 0 128 128" xmlns="http://www.w3.org/2000/svg">
  <g>
    <path d="M64,4C30.86,4,4,30.86,4,64s26.86,60,60,60s60-26.86,60-60S97.14,4,64,4z M101.88,57.4l-2.2,1.1c-3.4,1.8-6.5,3.1-9.6,4.1 v14.5c0,15.1-11.6,27.2-25.7,27.2c-14.1,0-25.5-12.2-25.5-27.3V61.6c-1.7,0.7-3.4,1.5-5.2,2.5l-3.1,1.6c-0.7,0.4-1.4,0.6-2.2,0.6 c-2.1,0-3.9-1.4-4.6-3.4c-0.8-2.4,0.3-5.1,2.5-6.3l3-1.5c3.4-1.8,6.5-3.1,9.6-4.1V32.8c0-1.4,0.5-2.6,1.4-3.6c1-1,2.2-1.5,3.5-1.5 c0.2,0,0.3,0,0.5,0c2.5,0.2,4.4,2.5,4.4,5.2v16.3c0.5,0,1.1,0,1.6,0c3.7,0,7.5,0.6,11.7,1.7l7.3,2c3.4,0.9,6.4,1.3,9.3,1.3 c0.6,0,1.1,0,1.7,0V32.8c0-1.4,0.5-2.6,1.4-3.6c1-1,2.2-1.5,3.5-1.5c0.2,0,0.3,0,0.5,0c2.5,0.2,4.4,2.5,4.4,5.2v18.9 c1.6-0.7,3.3-1.5,5.2-2.5l2-1c0.7-0.4,1.5-0.6,2.3-0.6c1.8,0,3.5,1,4.3,2.6C105.18,52.8,104.28,56,101.88,57.4z"/>
    <path d="M66.98,62.7l-7.3-2c-3.4-0.9-6.4-1.3-9.3-1.3c-0.6,0-1.2,0-1.7,0v17.7c0,9.4,7.1,17.1,15.8,17.1c0.2,0,0.4,0,0.6,0 c8.4-0.3,15.2-8.2,15.2-17.5V64.4c-0.5,0-1.1,0-1.6,0C74.98,64.4,71.18,63.8,66.98,62.7z"/>
  </g>
</svg>