<svg viewBox="0 0 128 128" xmlns="http://www.w3.org/2000/svg">
  <path d="M123.39,60.92c0,0-0.01,0-0.01,0c-0.73-2.86-5.16-3.56-6.37-5.96c-1.21-15.3-9.97-40.35-36.36-47.87V6.68 C80.65,5.19,79.3,4,77.61,4H50.39c-1.69,0-3.04,1.19-3.04,2.68v0.39C21.07,14.5,12.23,39.3,11,54.65c-1.43,2.19-5.81,4.03-6.43,6.52 c0,0-0.01,0-0.01,0c0,0.01,0,0.02,0,0.04c-0.04,0.18-0.07,0.36-0.07,0.54c-0.32,2.72,0,4.19,0,4.19c0,3.02,2.93,5.86,8.02,8.3 l0,0.17c0,25.5,18.17,46.52,41.59,49.28c5.52,0.59,13.77,0.48,19.31,0.06c23.63-2.53,42.04-23.66,42.04-49.34v-0.16 c5.1-2.44,8.04-5.28,8.04-8.31C123.49,65.94,123.96,62.95,123.39,60.92z M46.2,39.93c0-0.89,0.68-1.61,1.53-1.61h9.08 c0.84,0,1.53-0.72,1.53-1.61v-9.54c0-0.89,0.68-1.61,1.53-1.61h8.26c0.84,0,1.53,0.72,1.53,1.61v9.54c0,0.89,0.68,1.61,1.53,1.61 h9.08c0.85,0,1.53,0.72,1.53,1.61v8.67c0,0.89-0.68,1.61-1.53,1.61h-9.08c-0.84,0-1.53,0.72-1.53,1.61v9.54 c0,0.89-0.68,1.61-1.53,1.61h-8.26c-0.84,0-1.53-0.72-1.53-1.61v-9.54c0-0.89-0.68-1.61-1.53-1.61h-9.08 c-0.84,0-1.53-0.72-1.53-1.61V39.93z M79.68,114.35c-0.31-1.32-1.45-2.26-2.89-2.26H51c-1.42,0-2.54,0.91-2.87,2.2 c-15.17-4.9-26.43-19.5-27.57-37.04c10.86,3.23,26.29,5.25,43.44,5.25c17.14,0,32.58-2.02,43.44-5.25 C106.32,94.89,94.94,109.51,79.68,114.35z"/>
</svg>