<svg viewBox="0 0 128 128" xmlns="http://www.w3.org/2000/svg">
  <g>
    <path d="M44.89,9.91c0,2.75-1.26,5.21-3.23,6.84c-0.11-2.79-2.4-5.04-5.22-5.04c-2.89,0-5.24,2.35-5.24,5.24v0.38 c-2.42-1.58-4.03-4.31-4.03-7.42V4H16.7v5.91c0,8.98,6.18,16.53,14.5,18.69v10.88c-8.32,2.16-14.49,9.71-14.49,18.69v11.65 c0,8.99,6.17,16.54,14.49,18.69V99.4c-8.32,2.16-14.49,9.71-14.49,18.69v5.9h10.47v-5.9c0-3.1,1.6-5.83,4.02-7.41v1.21 c0,2.89,2.35,5.24,5.24,5.24s5.24-2.35,5.24-5.24v-0.63c1.97,1.63,3.22,4.08,3.22,6.83v5.9h10.47v-5.9 c0-8.69-5.77-16.06-13.69-18.49v-11.3c7.92-2.42,13.69-9.79,13.69-18.49V58.18c0-8.7-5.77-16.07-13.69-18.5V28.4 c7.92-2.42,13.69-9.79,13.69-18.49V4H44.89V9.91z M44.89,58.18v11.64c0,2.75-1.26,5.21-3.23,6.84c-0.11-2.79-2.4-5.03-5.22-5.03 c-2.89,0-5.24,2.35-5.24,5.24v0.37c-2.42-1.58-4.03-4.31-4.03-7.42V58.18c0-3.11,1.61-5.84,4.03-7.42v1.21 c0,2.89,2.35,5.24,5.24,5.24s5.24-2.35,5.24-5.24v-0.61C43.64,52.98,44.89,55.44,44.89,58.18z"/>
    <path d="M111.29,39.86V28.22c0.01-8.84-5.97-16.3-14.09-18.6V4H86.73v5.62c-8.12,2.29-14.1,9.75-14.1,18.59v11.65 c0,8.84,5.97,16.3,14.09,18.59v11.09c-8.12,2.29-14.09,9.75-14.09,18.59v11.65c0,8.84,5.97,16.3,14.09,18.59V124H97.2v-5.63 c8.12-2.29,14.09-9.75,14.09-18.59V88.14c0.01-8.84-5.97-16.3-14.09-18.6V58.45C105.32,56.16,111.29,48.7,111.29,39.86z M83.1,39.86V28.22c0-2.93,1.43-5.52,3.63-7.14v0.51c0,2.89,2.35,5.24,5.23,5.24c2.89,0,5.24-2.35,5.24-5.24v-0.5 c2.19,1.61,3.62,4.2,3.62,7.13v11.64c0,2.93-1.43,5.52-3.62,7.13v-0.5c0-2.89-2.35-5.24-5.24-5.24c-2.89,0-5.24,2.35-5.24,5.24v0.5 C84.53,45.38,83.1,42.79,83.1,39.86z M100.82,88.14v11.64c0,2.92-1.43,5.51-3.62,7.13v-0.5c0-2.89-2.35-5.24-5.24-5.24 c-2.89,0-5.24,2.35-5.24,5.24v0.5c-2.19-1.61-3.62-4.2-3.62-7.13V88.14c0-2.93,1.43-5.52,3.62-7.13v0.5c0,2.89,2.35,5.24,5.24,5.24 c2.89,0,5.24-2.35,5.24-5.24v-0.5C99.39,82.63,100.82,85.21,100.82,88.14z"/>
  </g>
</svg>