<svg viewBox="0 0 128 128" xmlns="http://www.w3.org/2000/svg">
  <path d="M120.1,92.91c-0.23-1.89-1.27-3.59-2.52-5.02c-0.01,0-0.01-0.01-0.02-0.01c-3.14-3.55-9.74-7.53-22.79-9.61 c0.16-2.99,0.81-14.58,0.99-17.78c1.31-1.72,1.81-2.59,2.34-3.93c1.23-1.36,2.58-2.81,2.7-4.71c0.22-3.38-3.11-6.2-6.25-6.6 c0.03-0.01,0.05-0.02,0.05-0.02c-1.01-0.92-2.45-1.46-3.82-1.31c0.23-10.16-0.59-33.56-13.02-34.33c-7.29-0.46-10.63,5.6-10.63,5.6 s-0.24-7.06-0.41-9.09c-0.17-2.03-1.79-2.6-2.84-2.52c-1.06,0.08-2.35,0.97-2.52,2.52c-0.16,1.54-0.08,9.01-0.08,9.01 c-3.1-4.63-6.85-6.6-10.48-6.2c-6.25,0.69-12.15,8.41-13.79,21.62c-0.84,6.58-0.99,11.55-0.9,15.04c-1.27,0.1-2.53,0.71-3.25,1.79 c-1.68-0.94-3.94-0.02-5.26,1.21c-2.61,2.28-1.3,5.92,0.88,8.04c0.01,0,0.01,0.01,0.01,0.01c0.87,0.77,1.22,1.49,2.03,2.6 c0.4,4.54,1.31,14.58,1.73,19.19l-0.01,0.01c-6.41,1.12-13.87,2.9-19.3,5.74c-6.19,2.48-8.43,9.32-5.12,14.89 c2.34,3.66,3.65,3.98,7,7.72c12.35,11.56,30.48,17.33,48.38,17.48c21.65,0.18,42.97-7.86,53.32-23.8h-0.01 C118.48,98.16,120.18,95.9,120.1,92.91z M90.66,48.03c0.24-0.3,0.61-0.75,1-1.14c0.03,0.01,2.65,0.33,2.66,0.35 c8.07,1.74,2.65,8.58-1.18,13.1c-1.82,0.99-4.06,1.94-6.84,2.75c0.16-1.85,0.62-4.7,0.89-6.43c4.88-1.55,7.19-3.45,8.08-4.84 C94.77,50.82,93.55,49.38,90.66,48.03z M85.35,77.22c0.04-0.66,0.08-1.34,0.12-2.03c0.01-0.07,0.01-0.14,0.02-0.2 c0.13-2.15,0.27-4.39,0.41-6.39c0.04-0.03,0.08-0.05,0.12-0.07c1-0.6,2-1.23,2.94-1.88c0.01-0.02,0.03-0.03,0.05-0.04 c0.41-0.29,0.81-0.58,1.19-0.86c0.03-0.02,0.05-0.04,0.08-0.06c0.4-0.3,0.77-0.6,1.13-0.89c-0.01,3.98-0.03,8.83-0.04,12.99 C89.48,77.56,87.47,77.37,85.35,77.22z M91.36,79.8c-0.01,1.63-0.01,2.99-0.02,3.91c-1.92-0.26-4.04-0.51-6.35-0.73 c0.06-0.92,0.14-2.23,0.23-3.76c2.1,0.14,4.09,0.33,5.9,0.56L91.36,79.8z M86.72,46.6c-3.64-1.03-8.78-1.84-16-2.12 c0.51-0.53,1.25-1.41,1.96-2.6c4.06,0.31,10.08,1.01,14.02,2.18C86.71,44.97,86.71,45.84,86.72,46.6z M41.98,77.08 c-1.03,0.1-2.08,0.22-3.12,0.35c-0.03,0.01-0.05,0.01-0.07,0.01c-1.05,0.13-2.1,0.28-3.16,0.43l-0.45-13.54 c1.87,1.66,3.92,3.17,6.12,4.39c0.11,1.32,0.22,2.63,0.33,3.84c0.01,0.2,0.03,0.41,0.05,0.6c0.01,0.14,0.02,0.26,0.03,0.4 c0.08,0.81,0.12,1.52,0.18,2.31c0.01,0.03,0.01,0.06,0.01,0.08c0.03,0.37,0.06,0.74,0.08,1.12V77.08z M42.14,79.07 c0.11,1.4,0.25,3.18,0.34,4.31c-2.26,0.31-4.48,0.67-6.63,1.07c-0.03-0.88-0.12-3.73-0.15-4.57C37.83,79.57,39.98,79.3,42.14,79.07z M38.44,87.34c0-0.76-1.14-1.19-1.14-1.71c0-0.48,1.2-1.03,3.33-0.68c1.96,0.34,3.81,2.43,0.86,5.29c-2.27,2.18-2.24,4.89-0.1,7.28 c2.42,2.72,6.71,3.15,6.9,4.05c0.26,1.22-5.52,0.86-7.9-0.14c-1.9-0.8-5.66-2.67-6.19-6.52C33.63,90.72,38.44,88.39,38.44,87.34z M51.31,56.51c-0.67,0.93-9.54-0.68-9.36-3.99c0.23-4.13,8.21-5.24,9.45-4.22c0.6,0.49-2.79,2.13-2.84,4.04 C48.52,54.25,51.78,55.86,51.31,56.51z M46.22,71.08c1.65,0.66,2.99,1.14,4.45,1.73c0.01,0.01,0.02,0.01,0.03,0.02 c0.85,0.35,1.66,0.71,2.41,1.2c0.28,0.17,0.55,0.36,0.8,0.56c0.04,0.04,0.09,0.07,0.14,0.11c0.24,0.21,0.47,0.44,0.68,0.68 c0.03,0.03,0.06,0.06,0.09,0.1c0.23,0.28,0.44,0.58,0.62,0.91c-1.21,0-2.57,0-3.78,0.05c-0.2,0-0.41,0-0.61,0.02 c-1.69,0.06-3.35,0.14-5.05,0.27c0-0.01,0-0.01,0-0.01c0.01-0.48,0.03-0.97,0.05-1.45v-0.04C46.1,73.76,46.16,72.32,46.22,71.08z M45.82,82.96c0.03-1.01,0.07-2.86,0.11-4.22l0.21-0.02c3.6-0.26,6.7-0.37,9.97-0.33c0.21,1.15,0.21,2.64,0.15,3.71 C52.84,82.27,49.32,82.56,45.82,82.96z M47.26,64.5c0.7-1.94,1.77-3.38,3.24-4.01c1.22-0.53,2.53-0.99,3.52-1.33 c5.76,0.52,14.73,0.41,20.39-0.14c2.39,0.35,6.05,1.86,6.08,5.41C72.04,66.14,55.69,66.03,47.26,64.5z M80.94,74.04 c0,0,0,0.01,0,0.02c0.02,0.97,0.03,1.95,0.03,2.91c-1.43-0.07-2.83-0.13-4.22-0.17c-0.08-0.01-0.17-0.01-0.25-0.01 c-1.35-0.05-2.69-0.08-3.99-0.11H72.5c0.15-0.34,0.32-0.65,0.51-0.94c0.03-0.05,0.07-0.1,0.1-0.15c0.17-0.23,0.35-0.45,0.55-0.66 c0.05-0.05,0.1-0.1,0.15-0.15c0.21-0.2,0.42-0.38,0.66-0.55c0.05-0.04,0.1-0.08,0.16-0.12c0.26-0.19,0.54-0.37,0.84-0.54 c0.03-0.01,0.06-0.03,0.09-0.05c0.35-0.19,0.71-0.37,1.1-0.55c0.07-0.04,0.16-0.08,0.24-0.11c1.31-0.61,2.5-1.05,3.98-1.72 c0,0.01,0,0.01,0,0.01C80.91,72.09,80.93,73.06,80.94,74.04z M71.83,80.34c0.02-0.62,0.07-1.16,0.15-1.67 c2.93,0.05,5.9,0.15,8.9,0.3h0.1c0,1.34,0,2.59-0.01,3.66c-2.78-0.2-5.81-0.37-9.11-0.49C71.82,81.56,71.82,80.96,71.83,80.34z M77.03,14.7c9.03,0.53,9.52,21.37,9.66,27.28c-3.83-1.05-9.06-1.71-13.05-2.02c1.22-2.5,1.06-7.42,0.49-7.7c0,0-0.01,0-0.02,0 c-1.66-2.06-4.32-3.09-6.88-3.51C67.42,26.27,69.1,14.92,77.03,14.7z M61.32,30.73c0.45,2.07,5.18,2.2,5.69,0 c2.3,0.39,3.76,1.21,4.59,1.84c-2.66,2.74-12.22,2.13-15.02,0.32C57.41,32.11,58.88,31.16,61.32,30.73z M42.04,26.88 c2.11-8.41,5.45-12.25,8.77-12.71c4.61-0.63,9.17,5.28,10.28,14.58c-5.48,0.92-7.14,4.19-7.27,4.48c0,0.01-0.01,0.01-0.01,0.02 c-0.01,0.01-0.01,0.01-0.01,0.01c-0.55,0.78-0.1,4.26,1.18,6.86c0,0,0,0,0,0.01c-4.51,0.17-10.52,1.21-14.46,2.6 C40.64,37.71,41,30.83,42.04,26.88z M40.47,45.94c0-0.34,0-0.7,0.01-1.08C43.91,43.37,53,42,56.12,42.08 c0.54,0.83,1.42,1.89,1.95,2.46c-8.6,0.41-14.1,1.52-17.61,2.83C40.46,46.96,40.46,46.48,40.47,45.94z M30.63,55.92 c-3.57-3.26-3.17-6.45,0.89-6.93c0.48,0.06,2.23,0.11,2.81-0.37c0.65,0.26,1.19,0.69,1.68,1.22c-1.23,1.08-1.59,2.07-1.68,2.69 c1.18,1.33,3.45,3.15,8.16,4.6l-0.36,0.43c0,0-0.64,0.76-0.97,2.76c-0.12,0.72-0.16,1.71-0.15,2.84c-0.79-0.21-1.53-0.44-2.24-0.67 c-0.4-0.2-3.53-1.76-4.47-2.52C33.23,59.12,31.57,56.92,30.63,55.92z M115.03,99.1l-2.5,3.44c-0.89,1.07-2.06,2.35-3.52,3.75 c-9.14,6.29-28,9.13-46.56,9.09c-16.89-0.03-33.52-2.44-42.36-6.77c-4.12-3.11-5.98-5.51-6-5.53c-3.93-3.29-6.68-7.2-5.53-11.72 c0.3-4.22,9.45-8.41,23.87-10.94c0.07,0.85,0.33,3.74,0.41,4.63c-9.78,2.3-17.39,4.64-17.98,9.44c4.44,4.66,17.59,11.23,47.82,11.68 c31.52,0.47,45.93-8.44,51-12.09c-0.28-3.89-4.99-7.37-19.24-9.89l0.21-3.91c12.42,2.07,22.33,6.43,23.47,13.04 C118.14,94.4,117.35,96.57,115.03,99.1z M30.69,98.24c-0.72,0.43-8.34-0.43-7.86-4.43c0.3-2.53,3.62-3.95,4.33-4.62 c0.71-0.66,0.13-1.62,0.71-1.95c1.09-0.61,3.86,0.19,3.86,1.53c0,1.33-2.31,2.62-3.09,4.57C27.98,95,31.4,97.81,30.69,98.24z"/>
</svg>