<svg viewBox="0 0 128 128" xmlns="http://www.w3.org/2000/svg">
  <path d="M121.58,104.7c-1.65-0.08-2.58,1-2.58,1l-0.22,5.78c-3.38-7-9.29-19.18-13.07-26.47c-5.54-10.69-15.1-33.38-16-35.05 c-0.7-1.17-2.25-1.63-3.55-1.43c-3.83-0.27-21.06-1.49-29.05-2.17c-7.1-0.24-14.36-2.94-21.37-2.07 c-1.32,0.99-4.51,12.37-12.24,27.95c-4.95,9.98-10.8,22.03-14.37,29.4l-0.22-3.21c0,0-1.22-0.84-2.6-0.76 c-1.38,0.09-2.11,0.85-2.11,0.85l0.72,12.98c0,0,1.22,0.68,2.52,0.68s2.36-0.93,2.36-0.93l-0.04-0.59 c6.76,3.35,25.87,9.56,32.36,10.91l0.2,3.02c0.86,0.55,4.29,0.64,5.12-0.26c0-0.09-0.01-1.5-0.01-1.54c0.01,0,0.02,0.01,0.04,0.01 c0.2,1.25,8.68,0.28,10.23,0.33c0.89,0.84,7.46,0.59,11.15,0.5c3.72-0.08,10.26-1.21,10.48-2.51c0.04-0.24,0.08-0.6,0.13-1.04 l16-0.97c0.09,0.45,0.17,0.73,0.22,0.81c0.52,0.87,7.35,1.38,10.28,1.05c3.86-0.44,9.42-2.35,9.9-3.14l2.7-0.46l-0.06,1.5 c0,0,1.3,0.69,2.77,0.69c1.47,0,2.08-0.87,2.08-0.87l0.78-13.34C124.13,105.35,123.23,104.78,121.58,104.7z M47.4,119.16l-0.05-7.83 c0,0-1.3-0.87-3.03-0.87s-2.86,0.95-2.86,0.95l0.46,7.02c-6.19-1.26-27.06-8.24-32.2-11.12c2.86-5.91,10.38-21.47,16.47-33.74 c5.75-11.62,7.95-18.3,11.39-26.59c5.04,0.24,13.43,1.94,19.27,2.37c6.62,0.56,19.69,1.5,26.12,1.96 C78.7,59.92,70,79.37,65.17,88.93c-1.84,3.41-5.94,11.04-8.26,15.4C53.64,109.44,50.38,114.53,47.4,119.16z M79.72,117.06 c0.34-4.32,0.77-10.89,1.25-15.44c0.7-6.59,5.81-31.37,5.81-31.37c2.06,8.02,6.12,34.06,8.11,45.89L79.72,117.06z M113.22,115.24 c-1.53-1.3-3.47-2.91-5.18-4.42L97.06,96.67c-0.22-0.35-0.43-0.7-0.64-1.04l-5.96-26.36c-0.26-1.16-1.18-2.05-2.34-2.28l-1.29-0.26 c-1.56-0.32-3.15,0.67-3.51,2.27c0,0-5.32,23.03-5.32,23.03c-1.59,3.19-3.6,7.01-6.03,11.41c-3.94,7.11-9.33,13.1-12.26,16.56 c-2.81,0.19-5.62,0.34-7.82,0.38c1.99-4.01,9.29-17.74,15.92-30.03c2.09-3.76,15.81-33.86,18.2-38.4c0.24-0.49,0.74-0.56,1.15-0.39 c4.29,9.57,10.98,25.35,15.89,34.83c4.09,7.89,10.77,21.7,13.9,28.21L113.22,115.24z"/>
</svg>