<svg viewBox="0 0 128 128" xmlns="http://www.w3.org/2000/svg">
  <path d="M47.3,71.3V32.5l26.5-9c0.7-0.2,0.7-1.1,0.1-1.4L47.3,10.5V9V8.2V7c0-0.9-0.9-1.6-2-1.6c-1.1,0-2,0.7-2,1.6v64.4 c-2.4,0.1-4.8,0.3-7.1,0.6C17.1,74.4,8.2,80.6,4,86.7v37.4h120V89C112.5,84.2,78.2,71.2,47.3,71.3z M44.3,7c0-0.3,0.4-0.6,1-0.6 c0.6,0,1,0.3,1,0.6v1.2V9v1.4c-0.3,0.1-0.5,0.4-0.5,0.7v20.8c0,0.3,0.2,0.6,0.5,0.7V95c0,0.3-0.4,0.6-1,0.6c-0.6,0-1-0.3-1-0.6V7z M48.7,100.3c-5.4,0-9.7-1.8-9.7-4c0-1.4,1.7-2.6,4.3-3.3v2c0,0.9,0.9,1.6,2,1.6c1.1,0,2-0.7,2-1.6v-2.6c0.5,0,0.9,0,1.4,0 c5.4,0,9.7,1.8,9.7,4C58.4,98.5,54.1,100.3,48.7,100.3z"/>
</svg>