<svg viewBox="0 0 128 128" xmlns="http://www.w3.org/2000/svg">
  <g>
    <circle cx="64" cy="62.87" r="4.55"/>
    <path d="M112.73,5.68c-10.25-4.65-22.88,1.09-28.21,12.83c-2.13,4.69-2.17,10.11-2.15,12.14c0.03,2.8-4.29,6.87-5.66,8.08 c-0.21,0.18-0.26,0.46-0.18,0.71c-3.3,2.28-8.14,5.63-12.53,8.65c-4.4-3.02-9.24-6.37-12.54-8.66c0.08-0.25,0.02-0.52-0.18-0.7 c-1.36-1.21-5.69-5.28-5.66-8.08c0.02-2.03-0.02-7.45-2.15-12.14C38.15,6.77,25.52,1.03,15.27,5.68 C5.02,10.33,1.03,23.62,6.36,35.36c4.5,9.92,14.21,15.55,23.29,14.26c1.67-0.24,5.97-0.46,10.63,3.13l1.68,1.6 c0.32,0.3,0.83,0.23,1.05-0.15l-0.18,0.4l6.72,9.6c-4.85,12.67-14.27,37.22-16.24,42.33c-2.91,7.57-2.96,10.64-2.21,12.9 c0.65,1.99,5.51,4.5,5.51,4.5L64,84.82l27.39,39.11c0,0,4.86-2.51,5.51-4.51c0.75-2.26,0.7-5.33-2.21-12.9 c-1.97-5.11-11.38-29.65-16.24-42.32l6.72-9.6l-0.19-0.4c0.22,0.38,0.73,0.45,1.05,0.15l1.68-1.6c4.65-3.59,8.96-3.37,10.63-3.13 c9.08,1.29,18.79-4.35,23.29-14.26C126.97,23.62,122.98,10.33,112.73,5.68z M30.71,39.69c-6.15,2.79-13.73-0.66-16.92-7.7 c-3.2-7.04-0.8-15.01,5.35-17.8c6.15-2.79,13.72,0.65,16.92,7.7C39.26,28.93,36.86,36.9,30.71,39.69z M35.75,119.92 c-0.88-0.6-1.59-1.18-1.83-1.53c-0.44-1.41-0.48-3.84,2.19-10.78c1.86-4.84,10.5-27.36,15.52-40.44l10.54,15.04L35.75,119.92z M91.89,107.6c2.66,6.92,2.63,9.36,2.19,10.79c-0.24,0.35-0.95,0.93-1.83,1.53L46.3,54.33l5.41-11.08 c7.56,5.23,18.92,13.08,20.93,14.34c0.06,0.04,0.09,0.08,0.11,0.12C73.35,59.27,89.28,100.81,91.89,107.6z M77.15,60.82 c-1.01-2.63-1.62-4.23-1.62-4.23c-0.26-0.64-0.71-1.17-1.3-1.54c-0.91-0.57-3.9-2.61-7.58-5.14c3.23-2.22,6.62-4.56,9.42-6.5 l5.61,10.95L77.15,60.82z M114.21,31.98c-3.19,7.05-10.77,10.5-16.92,7.7c-6.15-2.79-8.54-10.76-5.35-17.8 c3.2-7.04,10.77-10.49,16.92-7.7C115.01,16.97,117.4,24.94,114.21,31.98z"/>
  </g>
</svg>