<svg viewBox="0 0 128 128" xmlns="http://www.w3.org/2000/svg">
  <path d="M124.03,119.52c-0.14-0.94-10.59-28.56-10.59-28.56c-0.76-2.23-1.05-4.17-2.83-5.82L52.37,26.9c0.68-1.45,0.6-2.1-0.27-3.17 l-8.58-8.58c-0.74-0.73-2.1-0.62-2.83,0.07l-8.82-8.83c-3.12-3.12-9.65-4.29-16.8,2.86l-4.99,4.99c-8.27,8.27-6.79,14.49-3.67,17.61 l8.62,8.61c-0.93,0.53-1.08,1.93-0.31,2.66l8.77,8.78c1.12,0.88,1.7,0.91,3.24,0.28l58.58,58.58c1.59,1.32,3.51,1.92,5.67,2.66 l27.84,10.43C121.49,124.82,124.49,122.32,124.03,119.52z M25.33,49.5l-7.21-7.22c2.62-1.4,8.63-4.91,13.85-10.12 c5.46-5.45,9.15-11.6,10.43-13.89l7.28,7.29c-0.81,1.97-3.66,8.07-9.85,14.26C33.58,46.07,27.26,48.77,25.33,49.5z M114.61,114.6 c-1.33,1.33-2.88,2.23-4.34,2.84l-6.89-2.58c0,0-11.79-4.4-12-4.47c2.04-1.07,2.69-3.1,2.89-4.42L35.55,47.32 c0.54-0.37,1.08-0.77,1.63-1.19l58.96,58.89c1.83,0.05,4.79-0.23,6.83-2.27c2.08-2.08,2.23-5.03,2.1-6.78L46.16,37.19 c0.43-0.55,0.83-1.09,1.22-1.62l58.79,58.66c1.34-0.18,3.32-0.67,4.57-1.93l4.14,11.06l2.58,6.89 C116.84,111.71,115.94,113.27,114.61,114.6z"/>
</svg>