<svg viewBox="0 0 128 128" xmlns="http://www.w3.org/2000/svg">
  <path d="M109.53,56.95c-2.82,0-19.89,1.32-36.09,3.17c-0.09,0-0.18-0.09-0.09-0.18c12.76-10.12,25.79-21.3,27.73-23.24 c6.25-6.25,4.05-10.3,2.2-12.15c-3.08-3.08-7.57-2.38-12.15,2.2c-1.94,1.94-13.12,14.96-23.24,27.73c-0.09,0.09-0.18,0-0.18-0.09 c1.85-16.2,3.17-33.27,3.17-36.09c0-8.89-4.4-10.21-7.04-10.21S56.8,9.42,56.8,18.31c0,2.82,1.32,19.89,3.17,36.09 c0,0.09-0.09,0.18-0.18,0.09C49.93,41.9,38.76,28.87,36.82,26.85c-4.67-4.67-9.07-5.28-12.15-2.2c-1.85,1.85-2.38,4.31-1.41,6.95 c0.62,1.67,1.85,3.43,3.61,5.19c1.94,1.94,14.96,13.12,27.73,23.24c0.09,0.09,0,0.18-0.09,0.18c-16.2-1.85-33.27-3.17-36.09-3.17 c-8.8-0.09-10.03,4.31-10.03,6.95c0,2.64,1.32,7.04,10.21,7.04c2.82,0,19.89-1.32,36.09-3.17c0.09,0,0.18,0.09,0.09,0.18 C41.84,78.08,28.9,89.26,26.87,91.19c-1.76,1.85-3.08,3.52-3.61,5.19c-0.97,2.55-0.44,5.11,1.41,6.95c1.23,1.23,2.73,1.94,4.4,1.94 c2.38,0,5.02-1.41,7.75-4.14c1.94-1.94,13.12-14.96,23.24-27.73c0.09-0.09,0.18,0,0.18,0.09c-1.85,16.2-3.17,33.27-3.17,36.09 c0,8.89,4.4,10.21,7.04,10.21s7.04-1.32,7.04-10.21c0-2.82-1.32-19.89-3.17-36.09c0-0.09,0.09-0.18,0.18-0.09 c10.12,12.76,21.3,25.79,23.24,27.73c2.73,2.73,5.37,4.14,7.75,4.14c1.67,0,3.17-0.7,4.4-1.94c1.85-1.85,4.05-5.9-2.2-12.15 c-1.94-1.94-14.96-13.12-27.73-23.24c-0.09-0.09,0-0.18,0.09-0.18c16.2,1.85,33.27,3.17,36.09,3.17c8.89,0,10.21-4.4,10.21-7.04 S118.42,56.95,109.53,56.95L109.53,56.95z"/>
</svg>