<svg viewBox="0 0 128 128" xmlns="http://www.w3.org/2000/svg">
  <g>
    <circle cx="62.47" cy="111.97" r="12"/>
    <path d="M89.47,12.17c-6.22-6.01-17.97-8.83-28.7-8c-8.89,0.69-16.2,3.3-21.9,8.2c-5.3,4.6-8.5,10.6-9.4,18.1 c-0.3,2.4,1.6,4.4,4,4.4h4.7h0.1h6.8c1.9,0,3.6-1.3,3.9-3.2c0.5-3,1.9-5.4,4-7.4c6.31-5.15,17.15-5.37,22.3,0.1 c2.5,2.7,3.8,6.5,3.8,11.5c0,3.8-1.1,7.4-3.2,10.6c-1.4,2.2-4.7,5.8-10,10.9c-5.2,5.1-8.8,9.8-10.5,14c-1.4,3.4-2.3,7.7-2.5,12.9 c-0.1,2.3,1.7,4.2,4,4.2h10.2c2,0,3.8-1.6,4-3.6c0.5-5.9,2.3-10.5,5.2-13.9c0.1-0.1,0.2-0.2,0.3-0.3l9.8-9.6 c8.2-8.5,12.2-17.1,12.2-25.9C98.47,25.37,95.47,17.67,89.47,12.17z"/>
  </g>
</svg>