<svg viewBox="0 0 128 128" xmlns="http://www.w3.org/2000/svg">
  <path d="M124.46,29.44c0.08-2.88,0-6.81-0.65-7.46c-0.66-0.66-12.39-4.06-31.4-2.36c-19.32,1.73-29.3,7.47-29.3,7.47 s-15.08-8.52-32.25-8.78c-17.17-0.26-25.56,4.72-26.35,5.5C3.92,24.4,5.17,40.07,5.17,40.07s0.26,3.02,1.97,3.41 c1.71,0.39,9.57-2.75,19.27-2.88c6.67-0.09,11.78,0.69,14.33,1.18c-4.2,3.94-11.91,13.28-13.02,29.28 c-0.01,0.07-2.08,15.05,7.86,27.87c5.96,7.69,15.92,14.03,27.53,14.16c15.98,0.17,26.31-7.6,31.72-16.12 c7.11-11.19,6.11-24.61,5.96-25.67c0-0.03-0.02-0.05-0.03-0.08c-0.38-12.19-9.71-24.87-12.88-28.84 c13.08-1.61,31.43-0.13,33.09-0.68c1.74-0.58,2.32-3.89,2.32-3.89s-0.04,0-0.06-0.01l0.05-0.01 C123.28,37.8,124.34,33.66,124.46,29.44z M82.57,71.86c0.46,17.51-11.02,21.46-18.44,21.34s-17.77-6.75-17.05-20.19 c0.01-0.17,0.03-0.34,0.04-0.51c0.3-2.23,2.13-11.76,12.6-20.59c1.59-1.35,3.98-2.66,6.8-3.86C69.76,50.43,82.27,60.36,82.57,71.86z "/>
</svg>