<svg viewBox="0 0 128 128" xmlns="http://www.w3.org/2000/svg">
  <path d="M64,4C30.86,4,4,30.86,4,64s26.86,60,60,60s60-26.86,60-60S97.14,4,64,4z M66.64,27.6c0.05-0.07,0.1-0.14,0.16-0.2 c0.8-0.9,1.7-1.9,2.3-2.7c0.63-0.71,1.68-0.88,2.5-0.4c4.84,3.07,9.45,6.48,13.8,10.2c0.75,0.67,0.84,1.82,0.2,2.6L83,40.4 c-0.72,0.82-1.97,0.91-2.8,0.2c-4.15-3.73-8.52-7.2-13.1-10.4C66.25,29.61,66.05,28.44,66.64,27.6z M48,75c-0.6-1.2-1.2-2.6-1.9-4 c-0.32-0.45-0.94-0.56-1.39-0.24c-0.22,0.15-0.36,0.38-0.41,0.64v30.7c0.03,1.02-0.76,1.87-1.78,1.9c-0.04,0-0.08,0-0.12,0h-3.7 c-1.05,0-1.9-0.85-1.9-1.9V75.9c-0.1-0.55-0.62-0.91-1.16-0.81c-0.26,0.05-0.49,0.2-0.64,0.41c-1.58,3.8-3.45,7.48-5.6,11 c-0.53,0.89-1.67,1.18-2.55,0.65c-0.33-0.2-0.59-0.5-0.75-0.85c-0.6-1.3-1.4-2.6-2.1-3.8c-0.42-0.65-0.38-1.49,0.1-2.1 c4.3-5.8,8.7-15,11.4-23.4c0.15-0.5-0.14-1.02-0.64-1.16c-0.09-0.03-0.17-0.04-0.26-0.04h-7.2c-1.05,0-1.9-0.85-1.9-1.9v-3.7 c0.05-1.03,0.87-1.85,1.9-1.9h8.4c0.55,0,1-0.45,1-1V36.9c0.01-0.49-0.38-0.91-0.88-0.92c-0.07,0-0.15,0-0.22,0.02 c-1.9,0.4-3.8,0.8-5.7,1.1c-0.93,0.16-1.83-0.4-2.1-1.3c-0.3-0.9-0.6-1.8-1-2.7c-0.38-0.94,0.06-2.01,1-2.39 c0.13-0.05,0.26-0.09,0.4-0.11c6.9-1.5,14.4-3.5,19.6-5.8c0.81-0.36,1.77-0.11,2.3,0.6c0.7,0.9,1.7,2.3,2.5,3.4 c0.63,0.83,0.47,2.02-0.36,2.65c-0.13,0.1-0.28,0.19-0.44,0.25c-2.22,0.83-4.49,1.53-6.8,2.1c-0.4,0.12-0.68,0.48-0.7,0.9v12.7 c0,0.55,0.45,1,1,1H52c1.05,0,1.9,0.85,1.9,1.9V54c0,1.05-0.85,1.9-1.9,1.9h-6.9c-0.55,0-1,0.45-1,1v0.4 c0.02,0.21,0.09,0.42,0.2,0.6c1.9,2.5,6.2,8.5,8.5,11.8c0.03,0.05,0.07,0.08,0.11,0.12l0.6,0.8c0,0,0.29,0.4,0.39,0.76 c0.06-0.2,0.13-0.4,0.18-0.58c0.21-0.71,0.42-1.4,0.42-1.4c1.34-5.56,2.27-11.21,2.8-16.9c0.09-1.05,1.02-1.82,2.07-1.73 c0.08,0,0.15,0.01,0.23,0.03l2.4,0.6c0.91,0.23,1.53,1.06,1.5,2c-0.8,8-2.4,17.8-4.8,24.5c-0.33,0.99-1.41,1.53-2.4,1.2l-2.7-0.9 c-1.01-0.38-1.54-1.48-1.2-2.5c0.3-0.76,0.57-1.56,0.84-2.36L51,75.4C50,76.37,48.6,76.3,48,75z M103,79.8c-1.1,0.3-2.6,0.7-3.7,1.1 c-1.02,0.28-2.08-0.32-2.36-1.34c-0.02-0.05-0.03-0.11-0.04-0.16c-1.41-6.74-3.35-13.36-5.8-19.8c-0.24-0.49-0.84-0.7-1.34-0.46 c-0.2,0.09-0.36,0.26-0.46,0.46c-3.75,8.39-8.38,16.37-13.8,23.8c-0.23,0.32-0.37,0.7-0.4,1.1v7.2c0,3.6,0.4,4.2,3.4,4.2h9.4 c2.5,0,3.1-1.7,3.5-9.3c0.06-1.06,0.96-1.87,2.02-1.81c0.27,0.01,0.54,0.09,0.78,0.21c0.94,0.47,1.91,0.87,2.9,1.2 c0.81,0.33,1.33,1.13,1.3,2c-0.9,11.4-3,14.9-9.8,14.9h-11c-7,0-9.4-1.8-10-7.8c-0.02-0.52-0.46-0.91-0.97-0.89 c-0.24,0.02-0.47,0.12-0.63,0.29c-2.32,2.32-4.8,4.49-7.4,6.5c-0.75,0.56-1.79,0.51-2.5-0.1c-0.9-0.9-2.2-1.9-3.3-2.8 c-0.83-0.62-1-1.79-0.38-2.62c0.11-0.14,0.23-0.27,0.38-0.38c5.31-3.96,10.12-8.56,14.3-13.7c0.28-0.34,0.42-0.76,0.4-1.2V45 c0-1.05,0.85-1.9,1.9-1.9h3.9c1.02-0.03,1.87,0.76,1.9,1.78c0,0.04,0,0.08,0,0.12v21.4c0.05,0.55,0.54,0.95,1.09,0.9 c0.28-0.03,0.54-0.17,0.71-0.4c6.32-11.4,11.16-23.57,14.4-36.2c0.24-0.98,1.21-1.59,2.2-1.4l4,0.8c1.05,0.2,1.73,1.2,1.54,2.24 c-0.01,0.05-0.03,0.11-0.04,0.16c-2.02,7.16-4.43,14.2-7.2,21.1c-0.17,0.52,0.12,1.09,0.64,1.26c0.15,0.05,0.31,0.06,0.46,0.04 l2.8-0.8c0.44-0.1,0.89,0.11,1.1,0.5c3.19,7.41,5.67,15.12,7.4,23C104.49,78.56,103.93,79.51,103,79.8z"/>
</svg>